<svg xmlns="http://www.w3.org/2000/svg" xmlns:xlink="http://www.w3.org/1999/xlink" width="320" height="320" viewBox="0 0 320 320">
  <defs>
    <clipPath id="clip-Original_Small_Scale_Logo_SVG">
      <rect width="320" height="320"/>
    </clipPath>
  </defs>
  <g id="Original_Small_Scale_Logo_SVG" clip-path="url(#clip-Original_Small_Scale_Logo_SVG)">
    <path id="Path_54" data-name="Path 54" d="M135.739,0h-4.277A131.574,131.574,0,0,0,0,131.686v.2a123.842,123.842,0,0,0,123.943,123.74H251.934a15.51,15.51,0,0,0,15.489-15.5V131.686c0-.078,0-.155,0-.233A131.569,131.569,0,0,0,135.739,0m86.643,221.217-.011.038-.746,0-.037,0-.04,0-81.484-.2c-2.156.131-4.33.2-6.521.2-2.253,0-4.482-.1-6.7-.234H126.5l.011-.023c-51.621-3.392-92.384-43.748-92.384-93.067,0-51.542,44.512-93.326,99.419-93.326s99.42,41.783,99.42,93.326A88.046,88.046,0,0,1,230.386,149L126.5,148.993c-11.24,0-20.426-8.382-20.426-18.934s9.185-18.081,20.426-18.081h3.593l61.369.279c-7.242-23.623-30.422-40.91-57.917-40.91-33.29,0-60.278,25.333-60.278,56.583s26.988,56.583,60.278,56.583h87.263l.059.034c.242-.007.48-.034.723-.034,10.809,0,19.571,8.226,19.571,18.371,0,9.895-8.339,17.939-18.777,18.334" transform="translate(26 32)" fill="#eb6f2d"/>
  </g>
</svg>
