<svg width="48" height="48" viewBox="0 0 48 48" fill="none" xmlns="http://www.w3.org/2000/svg">
<path fill-rule="evenodd" clip-rule="evenodd" d="M0 0V48H48V0H0ZM35.0866 9.4078C34.4835 7.9519 33.5996 6.62903 32.4853 5.51472L33.8995 4.10051C35.1995 5.40053 36.2308 6.94388 36.9343 8.64244C37.6379 10.341 38 12.1615 38 14C38 15.8385 37.6379 17.659 36.9343 19.3576C36.2307 21.0561 35.1995 22.5995 33.8995 23.8995L32.4853 22.4853C33.5996 21.371 34.4835 20.0481 35.0866 18.5922C35.6896 17.1363 36 15.5759 36 14C36 12.4241 35.6896 10.8637 35.0866 9.4078ZM28.2426 9.7574C28.7998 10.3146 29.2417 10.976 29.5433 11.7039C29.8448 12.4319 30 13.2121 30 14C30 14.788 29.8448 15.5682 29.5433 16.2961C29.2417 17.0241 28.7998 17.6855 28.2426 18.2427L29.6569 19.6569C30.3997 18.914 30.989 18.0321 31.391 17.0615C31.7931 16.0909 32 15.0506 32 14C32 12.9495 31.7931 11.9092 31.391 10.9386C30.989 9.96797 30.3997 9.08605 29.6569 8.34319L28.2426 9.7574ZM19.7574 9.7574C19.2002 10.3146 18.7583 10.976 18.4567 11.7039C18.1552 12.4319 18 13.2121 18 14C18 14.788 18.1552 15.5682 18.4567 16.2961C18.7583 17.0241 19.2002 17.6855 19.7574 18.2427L18.3431 19.6569C17.6003 18.914 17.011 18.0321 16.609 17.0615C16.2069 16.0909 16 15.0506 16 14C16 12.9495 16.2069 11.9092 16.609 10.9386C17.011 9.96797 17.6003 9.08605 18.3431 8.34319L19.7574 9.7574ZM12.9134 9.4078C13.5165 7.9519 14.4004 6.62903 15.5147 5.51472L14.1005 4.10051C12.8005 5.40053 11.7693 6.94388 11.0657 8.64244C10.3621 10.341 10 12.1615 10 14C10 15.8385 10.3621 17.659 11.0657 19.3576C11.7693 21.0561 12.8005 22.5995 14.1005 23.8995L15.5147 22.4853C14.4004 21.371 13.5165 20.0481 12.9134 18.5922C12.3104 17.1363 12 15.5759 12 14C12 12.4241 12.3104 10.8637 12.9134 9.4078ZM26 14C26 15.1046 25.1046 16 24 16C22.8954 16 22 15.1046 22 14C22 12.8954 22.8954 12 24 12C25.1046 12 26 12.8954 26 14ZM13 26C11.3431 26 10 27.3431 10 29V41C10 42.6569 11.3431 44 13 44H35C36.6569 44 38 42.6569 38 41V29C38 27.3431 36.6569 26 35 26H13ZM20 32.25C20 31.5596 19.4404 31 18.75 31H17.25C16.7073 31 16.2429 31.3464 16.0709 31.8332C15.8868 32.354 15.3155 32.6269 14.7948 32.4428C14.2741 32.2588 14.0011 31.6875 14.1852 31.1668C14.6309 29.9058 15.8334 29 17.25 29H18.75C20.5449 29 22 30.4551 22 32.25C22 33.2051 21.5867 34.065 20.9324 34.6583L17.474 38H21C21.5523 38 22 38.4477 22 39C22 39.5523 21.5523 40 21 40H15C14.5924 40 14.2256 39.7526 14.0729 39.3747C13.9201 38.9969 14.012 38.5641 14.3051 38.2809L19.5551 33.208C19.5643 33.1991 19.5736 33.1904 19.5831 33.1819C19.8404 32.9516 20 32.6201 20 32.25ZM32.6739 30.3619C33.0856 30.7301 33.1208 31.3623 32.7526 31.7739C32.3844 32.1856 31.7522 32.2208 31.3406 31.8526C30.8744 31.4356 30.3041 31.1502 29.6884 31.0278C29.0088 30.8926 28.3044 30.962 27.6642 31.2271C27.024 31.4923 26.4769 31.9414 26.0919 32.5175C25.7069 33.0937 25.5014 33.771 25.5014 34.4639C25.5014 35.1569 25.7069 35.8342 26.0919 36.4104C26.4769 36.9865 27.024 37.4356 27.6642 37.7007C28.3044 37.9659 29.0088 38.0353 29.6884 37.9001C30.1642 37.8055 30.6128 37.6136 31.0073 37.3389V35.4639H29.0049C28.4526 35.4639 28.0049 35.0162 28.0049 34.4639C28.0049 33.9117 28.4526 33.4639 29.0049 33.4639H32.0073C32.5595 33.4639 33.0073 33.9117 33.0073 34.4639V37.8206C33.0073 38.1052 32.886 38.3763 32.6739 38.566C31.9417 39.221 31.0458 39.6693 30.0786 39.8617C29.011 40.074 27.9045 39.965 26.8988 39.5485C25.8932 39.132 25.0337 38.4266 24.429 37.5215C23.8242 36.6165 23.5014 35.5524 23.5014 34.4639C23.5014 33.3755 23.8242 32.3114 24.429 31.4064C25.0337 30.5013 25.8932 29.7959 26.8988 29.3794C27.9045 28.9628 29.011 28.8538 30.0786 29.0662C31.0458 29.2586 31.9417 29.7069 32.6739 30.3619Z" fill="#333333"/>
</svg>
