<svg width="48" height="48" viewBox="0 0 48 48" fill="none" xmlns="http://www.w3.org/2000/svg">
<path fill-rule="evenodd" clip-rule="evenodd" d="M0 0V47.9994H47.9994V0H0ZM33.8906 4.40614C36.8365 7.13881 38.5125 10.9739 38.5175 14.992C38.5105 19.009 36.8335 22.8409 33.8886 25.5719L33.4296 25.0799C36.2365 22.4759 37.8335 18.821 37.8375 14.992C37.8315 11.1631 36.2335 7.50951 33.4256 4.90614L33.8906 4.40635V4.40614ZM13.6738 4.92374L14.1718 5.40613C11.6769 7.9738 10.2779 11.4119 10.2729 14.9918C10.2739 18.5738 11.6679 22.0147 14.1618 24.5857L13.6838 25.0487C11.0659 22.3547 9.59928 18.7478 9.59368 14.9918C9.59358 11.2329 11.0569 7.6221 13.6738 4.92394V4.92374ZM32.3026 6.11512C34.7726 8.40669 36.1775 11.6229 36.1815 14.9918C36.1755 18.3598 34.7686 21.5737 32.2986 23.8627L31.8236 23.3517C34.1506 21.1937 35.4736 18.1648 35.4786 14.9918C35.4726 11.8189 34.1486 8.79179 31.8216 6.63472L32.3026 6.11512ZM15.3498 6.54872L15.8628 7.04681C13.7948 9.17498 12.6368 12.0248 12.6328 14.9918C12.6328 17.9608 13.7888 20.8117 15.8548 22.9427L15.3588 23.4237C13.1648 21.1647 11.9349 18.1408 11.9299 14.9918C11.9289 11.8399 13.1558 8.81169 15.3498 6.54872ZM30.7296 7.8085C32.7286 9.66298 33.8656 12.2658 33.8686 14.9918C33.8646 17.7178 32.7266 20.3187 30.7286 22.1717L30.2206 21.6247C32.0656 19.9128 33.1156 17.5098 33.1186 14.9918C33.1156 12.4738 32.0646 10.0709 30.2186 8.3593L30.7296 7.8085ZM17.0118 8.1601L17.5568 8.68739C15.9148 10.3759 14.9948 12.6368 14.9918 14.9918C14.9928 17.3478 15.9108 19.6098 17.5508 21.3007L17.0178 21.8157C15.2408 19.9877 14.2458 17.5408 14.2418 14.9918C14.2418 12.4408 15.2358 9.99087 17.0118 8.1601ZM29.1226 9.53898C30.6396 10.9469 31.5036 12.9218 31.5056 14.9918C31.5016 17.0608 30.6376 19.0348 29.1206 20.4407L28.6266 19.9098C29.9956 18.6408 30.7746 16.8588 30.7766 14.9918C30.7736 13.1248 29.9936 11.3429 28.6246 10.0739L29.1226 9.53898ZM18.7068 9.80458L19.2378 10.3179C18.0208 11.5699 17.3388 13.2458 17.3358 14.9918C17.3368 16.7378 18.0178 18.4148 19.2338 19.6678L18.7128 20.1737C17.3638 18.7858 16.6078 16.9278 16.6048 14.9918C16.6048 13.0558 17.3588 11.1949 18.7068 9.80458ZM27.4997 11.2849C28.5306 12.2418 29.1176 13.5848 29.1186 14.9918C29.1156 16.3978 28.5286 17.7398 27.4977 18.6948L27.0407 18.2028C27.9347 17.3738 28.4426 16.2108 28.4446 14.9918C28.4436 13.7728 27.9347 12.6088 27.0407 11.7789L27.4997 11.2849ZM20.4197 11.4669L20.9077 11.9378C20.1127 12.7558 19.6668 13.8508 19.6658 14.9918C19.6668 16.1328 20.1117 17.2278 20.9057 18.0468L20.4257 18.5138C19.5088 17.5708 18.9938 16.3078 18.9918 14.9918C18.9918 13.6758 19.5038 12.4118 20.4197 11.4669ZM24.0567 12.2928C25.5467 12.2938 26.7537 13.5018 26.7537 14.9918C26.7507 16.3318 25.7657 17.4668 24.4387 17.6578V30.9406H37.4975C38.0235 30.9406 38.4485 31.3636 38.4485 31.8906V42.1325C38.4485 42.6585 38.0235 43.0835 37.4975 43.0835H10.4079C9.88168 43.0835 9.45688 42.6585 9.45688 42.1325V31.8906C9.45688 31.3636 9.88168 30.9406 10.4079 30.9406H23.7267V17.6658C22.3757 17.4998 21.3597 16.3528 21.3567 14.9918C21.3567 13.5008 22.5657 12.2928 24.0567 12.2928ZM24.0567 13.0038C22.9577 13.0038 22.0677 13.8938 22.0677 14.9918C22.0687 16.0898 22.9587 16.9788 24.0567 16.9788C25.1527 16.9778 26.0417 16.0888 26.0427 14.9918C26.0427 13.8948 25.1537 13.0048 24.0567 13.0038ZM19.0118 32.0506C18.3588 32.0506 17.7748 32.1906 17.2598 32.4706C16.7448 32.7456 16.3448 33.1266 16.0608 33.6146C15.7808 34.1036 15.6428 34.6436 15.6428 35.2336H17.5718C17.5718 34.7456 17.6968 34.3516 17.9448 34.0546C18.1978 33.7526 18.5428 33.6016 18.9788 33.6016C19.3818 33.6016 19.6928 33.7256 19.9098 33.9746C20.1277 34.2186 20.2357 34.5556 20.2357 34.9856C20.2357 35.3016 20.1317 35.6356 19.9237 35.9856C19.7198 36.3365 19.4008 36.7475 18.9708 37.2185L15.8358 40.5605V41.8785H22.4797V40.3275H18.3118L20.5157 38.0035C21.1187 37.3415 21.5457 36.7625 21.7947 36.2655C22.0437 35.7676 22.1677 35.2796 22.1677 34.8006C22.1677 33.9256 21.8907 33.2486 21.3357 32.7696C20.7847 32.2896 20.0107 32.0506 19.0118 32.0506ZM28.0856 32.0756C27.2647 32.0756 26.5467 32.2626 25.9337 32.6386C25.3237 33.0086 24.8577 33.5496 24.5307 34.2556C24.2087 34.9576 24.0467 35.7895 24.0467 36.7515V37.4055C24.0557 38.3415 24.2297 39.1565 24.5697 39.8495C24.9147 40.5425 25.3997 41.0725 26.0267 41.4385C26.6587 41.8005 27.3897 41.9815 28.2246 41.9815C29.0186 41.9815 29.7426 41.8645 30.3956 41.6305C31.0496 41.3915 31.5556 41.0585 31.9136 40.6305V36.7845H28.1186V38.2475H29.9276V39.9095C29.6096 40.2275 29.0776 40.3865 28.3316 40.3865C27.5897 40.3865 27.0267 40.1275 26.6427 39.6105C26.2587 39.0945 26.0657 38.3305 26.0657 37.3195V36.7045C26.0707 35.7026 26.2497 34.9466 26.6037 34.4386C26.9567 33.9316 27.4707 33.6796 28.1456 33.6796C28.6756 33.6796 29.0896 33.8056 29.3906 34.0616C29.6946 34.3186 29.8916 34.7236 29.9796 35.2746H31.9136C31.7946 34.2336 31.4116 33.4406 30.7676 32.8976C30.1226 32.3506 29.2286 32.0756 28.0856 32.0756Z" fill="#333333"/>
</svg>
