<svg width="48" height="48" viewBox="0 0 48 48" fill="none" xmlns="http://www.w3.org/2000/svg">
<path d="M33.8905 4.40625L33.4255 4.90624C36.2334 7.50941 37.8314 11.163 37.8374 14.9921C37.8334 18.8211 36.2364 22.476 33.4295 25.08L33.8885 25.572C36.8334 22.841 38.5104 19.0091 38.5174 14.9921C38.5124 10.9742 36.8364 7.13912 33.8905 4.40625ZM13.6737 4.92384C11.0568 7.62221 9.59349 11.233 9.59359 14.9917C9.59919 18.7477 11.0658 22.3546 13.6837 25.0486L14.1617 24.5856C11.6678 22.0146 10.2738 18.5737 10.2728 14.9917C10.2778 11.4118 11.6768 7.97371 14.1717 5.40604L13.6737 4.92364V4.92384ZM32.3025 6.11523L31.8215 6.63482C34.1485 8.7919 35.4725 11.819 35.4785 14.9919C35.4735 18.1649 34.1505 21.1938 31.8235 23.3518L32.2985 23.8628C34.7685 21.5738 36.1754 18.3599 36.1814 14.9919C36.1774 11.623 34.7725 8.4068 32.3025 6.11523ZM15.3497 6.54882C13.1557 8.81179 11.9288 11.84 11.9298 14.9919C11.9348 18.1409 13.1647 21.1648 15.3587 23.4238L15.8547 22.9428C13.7887 20.8118 12.6327 17.9609 12.6327 14.9919C12.6367 12.025 13.7947 9.17509 15.8627 7.04692L15.3497 6.54882ZM30.7295 7.80861L30.2185 8.3594C32.0645 10.071 33.1155 12.4739 33.1185 14.9919C33.1155 17.5099 32.0655 19.9129 30.2205 21.6248L30.7285 22.1718C32.7265 20.3188 33.8645 17.7179 33.8685 14.9919C33.8655 12.266 32.7285 9.66308 30.7295 7.80861ZM17.0117 8.1602C15.2357 9.99098 14.2417 12.4409 14.2417 14.9919C14.2457 17.5409 15.2407 19.9879 17.0177 21.8158L17.5507 21.3008C15.9107 19.6099 14.9927 17.3479 14.9917 14.9919C14.9947 12.6369 15.9147 10.376 17.5567 8.6875L17.0117 8.1602ZM29.1225 9.53908L28.6245 10.074C29.9935 11.343 30.7735 13.1249 30.7765 14.9919C30.7745 16.8589 29.9955 18.6409 28.6265 19.9099L29.1205 20.4408C30.6375 19.0349 31.5015 17.0609 31.5055 14.9919C31.5035 12.9219 30.6395 10.947 29.1225 9.53908ZM18.7067 9.80468C17.3587 11.195 16.6047 13.0559 16.6047 14.9919C16.6077 16.9279 17.3637 18.7859 18.7127 20.1739L19.2337 19.6679C18.0177 18.4149 17.3367 16.7379 17.3357 14.9919C17.3387 13.2459 18.0207 11.57 19.2377 10.318L18.7067 9.80468ZM27.4996 11.285L27.0406 11.779C27.9346 12.6089 28.4435 13.7729 28.4445 14.9919C28.4425 16.2109 27.9346 17.3739 27.0406 18.2029L27.4976 18.6949C28.5285 17.7399 29.1155 16.3979 29.1185 14.9919C29.1175 13.5849 28.5305 12.242 27.4996 11.285ZM20.4196 11.467C19.5037 12.4119 18.9917 13.6759 18.9917 14.9919C18.9937 16.3079 19.5087 17.5709 20.4256 18.5139L20.9056 18.0469C20.1117 17.2279 19.6667 16.1329 19.6657 14.9919C19.6667 13.8509 20.1127 12.7559 20.9076 11.938L20.4196 11.467ZM24.0566 12.293C22.5656 12.293 21.3566 13.5009 21.3566 14.9919C21.3596 16.3529 22.3756 17.4999 23.7266 17.6659V30.9407H10.4078C9.88158 30.9407 9.45679 31.3637 9.45679 31.8907V42.1326C9.45679 42.6586 9.88158 43.0836 10.4078 43.0836H37.4974C38.0234 43.0836 38.4484 42.6586 38.4484 42.1326V31.8907C38.4484 31.3637 38.0234 30.9407 37.4974 30.9407H24.4386V17.6579C25.7656 17.4669 26.7506 16.3319 26.7536 14.9919C26.7536 13.5019 25.5466 12.294 24.0566 12.293ZM24.0566 13.0039C25.1536 13.0049 26.0426 13.8949 26.0426 14.9919C26.0416 16.0889 25.1526 16.9779 24.0566 16.9789C22.9586 16.9789 22.0686 16.0899 22.0676 14.9919C22.0676 13.8939 22.9576 13.0039 24.0566 13.0039ZM10.8708 31.3887H23.7166H24.4036H36.9974C37.5054 31.3887 37.9154 31.7757 37.9154 32.2597V41.6736C37.9154 42.1576 37.5054 42.5486 36.9974 42.5486H10.8708C10.3628 42.5486 9.95488 42.1576 9.95488 41.6736V32.2597C9.95488 31.7757 10.3628 31.3887 10.8708 31.3887ZM19.1877 31.9407C18.5347 31.9407 17.9507 32.0797 17.4357 32.3587C16.9197 32.6347 16.5207 33.0167 16.2357 33.5057C15.9567 33.9937 15.8157 34.5337 15.8157 35.1247H17.7477C17.7477 34.6357 17.8717 34.2427 18.1207 33.9447C18.3737 33.6427 18.7187 33.4917 19.1537 33.4917C19.5577 33.4917 19.8697 33.6167 20.0877 33.8647C20.3057 34.1097 20.4136 34.4477 20.4136 34.8787C20.4136 35.1937 20.3077 35.5277 20.0997 35.8787C19.8947 36.2297 19.5787 36.6406 19.1477 37.1106L16.0097 40.4546V41.7726H22.6576V40.2226H18.4877L20.6926 37.8956C21.2966 37.2346 21.7236 36.6556 21.9726 36.1576C22.2206 35.6607 22.3456 35.1707 22.3456 34.6907C22.3456 33.8157 22.0686 33.1397 21.5136 32.6597C20.9626 32.1797 20.1867 31.9407 19.1877 31.9407ZM27.8746 31.9407C27.0486 31.9407 26.3276 32.1277 25.7106 32.5057C25.0976 32.8787 24.6256 33.4217 24.2966 34.1327C23.9726 34.8387 23.8106 35.6757 23.8106 36.6446V37.3046C23.8186 38.2456 23.9956 39.0636 24.3376 39.7616C24.6836 40.4586 25.1716 40.9926 25.8026 41.3606C26.4376 41.7256 27.1756 41.9076 28.0156 41.9076C28.8145 41.9076 29.5435 41.7896 30.2005 41.5546C30.8585 41.3146 31.3665 40.9796 31.7265 40.5486V36.6776H27.9076V38.1496H29.7285V39.8216C29.4085 40.1416 28.8715 40.3026 28.1206 40.3026C27.3746 40.3026 26.8096 40.0406 26.4236 39.5206C26.0366 39.0016 25.8436 38.2336 25.8436 37.2166V36.5976C25.8476 35.5887 26.0266 34.8287 26.3826 34.3177C26.7376 33.8077 27.2556 33.5527 27.9356 33.5527C28.4685 33.5527 28.8845 33.6817 29.1875 33.9387C29.4935 34.1967 29.6915 34.6027 29.7805 35.1577H31.7265C31.6065 34.1097 31.2225 33.3117 30.5735 32.7657C29.9255 32.2147 29.0245 31.9407 27.8746 31.9407Z" fill="#333333"/>
</svg>
