<svg width="48" height="48" viewBox="0 0 48 48" fill="none" xmlns="http://www.w3.org/2000/svg">
<path d="M32.4854 5.5148C33.5997 6.6291 34.4836 7.95197 35.0866 9.40788C35.6897 10.8638 36.0001 12.4242 36.0001 14.0001C36.0001 15.5759 35.6897 17.1364 35.0866 18.5923C34.4836 20.0482 33.5997 21.3711 32.4854 22.4854L33.8996 23.8996C35.1996 22.5996 36.2308 21.0562 36.9344 19.3577C37.638 17.6591 38.0001 15.8386 38.0001 14.0001C38.0001 12.1616 37.638 10.3411 36.9344 8.64251C36.2308 6.94396 35.1996 5.40061 33.8996 4.10059L32.4854 5.5148Z" fill="#333333"/>
<path fill-rule="evenodd" clip-rule="evenodd" d="M13 26C11.3431 26 10 27.3431 10 29V41C10 42.6569 11.3431 44 13 44H35C36.6569 44 38 42.6569 38 41V29C38 27.3431 36.6569 26 35 26H13ZM20 32.25C20 31.5596 19.4404 31 18.75 31H17.25C16.7073 31 16.2429 31.3464 16.0709 31.8332C15.8868 32.354 15.3155 32.6269 14.7948 32.4428C14.2741 32.2588 14.0011 31.6875 14.1852 31.1668C14.6309 29.9058 15.8334 29 17.25 29H18.75C20.5449 29 22 30.4551 22 32.25C22 33.2051 21.5867 34.065 20.9324 34.6583L17.474 38H21C21.5523 38 22 38.4477 22 39C22 39.5523 21.5523 40 21 40H15C14.5924 40 14.2256 39.7526 14.0729 39.3747C13.9201 38.9969 14.012 38.5641 14.3051 38.2809L19.5551 33.2079C19.5643 33.1991 19.5736 33.1904 19.5831 33.1819C19.8404 32.9516 20 32.6201 20 32.25ZM32.6739 30.3619C33.0856 30.7301 33.1208 31.3623 32.7526 31.7739C32.3844 32.1856 31.7522 32.2208 31.3406 31.8526C30.8744 31.4357 30.3041 31.1503 29.6884 31.0278C29.0088 30.8926 28.3044 30.962 27.6642 31.2272C27.024 31.4923 26.4769 31.9414 26.0919 32.5175C25.7069 33.0937 25.5014 33.771 25.5014 34.464C25.5014 35.1569 25.7069 35.8342 26.0919 36.4104C26.4769 36.9865 27.024 37.4356 27.6642 37.7008C28.3044 37.9659 29.0088 38.0353 29.6884 37.9001C30.1642 37.8055 30.6128 37.6136 31.0073 37.3389V35.464H29.0049C28.4526 35.464 28.0049 35.0162 28.0049 34.464C28.0049 33.9117 28.4526 33.464 29.0049 33.464H32.0073C32.5595 33.464 33.0073 33.9117 33.0073 34.464V37.8207C33.0073 38.1052 32.886 38.3763 32.6739 38.566C31.9417 39.221 31.0458 39.6693 30.0786 39.8617C29.011 40.0741 27.9045 39.9651 26.8988 39.5485C25.8932 39.132 25.0337 38.4266 24.429 37.5215C23.8242 36.6165 23.5014 35.5524 23.5014 34.464C23.5014 33.3755 23.8242 32.3114 24.429 31.4064C25.0337 30.5013 25.8932 29.7959 26.8988 29.3794C27.9045 28.9629 29.011 28.8539 30.0786 29.0662C31.0458 29.2586 31.9417 29.7069 32.6739 30.3619Z" fill="#333333"/>
<path d="M29.5433 11.704C29.2418 10.9761 28.7998 10.3146 28.2427 9.75748L29.6569 8.34326C30.3998 9.08613 30.989 9.96804 31.3911 10.9386C31.7931 11.9093 32 12.9495 32 14.0001C32 15.0507 31.7931 16.091 31.3911 17.0616C30.989 18.0322 30.3998 18.9141 29.6569 19.657L28.2427 18.2428C28.7998 17.6856 29.2418 17.0242 29.5433 16.2962C29.8448 15.5683 30 14.788 30 14.0001C30 13.2122 29.8448 12.432 29.5433 11.704Z" fill="#333333"/>
<path d="M18.4567 11.704C18.7583 10.9761 19.2002 10.3146 19.7574 9.75748L18.3431 8.34326C17.6003 9.08613 17.011 9.96804 16.609 10.9386C16.2069 11.9093 16 12.9495 16 14.0001C16 15.0507 16.2069 16.091 16.609 17.0616C17.011 18.0322 17.6003 18.9141 18.3431 19.657L19.7574 18.2428C19.2002 17.6856 18.7583 17.0242 18.4567 16.2962C18.1552 15.5683 18 14.788 18 14.0001C18 13.2122 18.1552 12.432 18.4567 11.704Z" fill="#333333"/>
<path d="M15.5147 5.5148C14.4004 6.6291 13.5165 7.95197 12.9134 9.40788C12.3104 10.8638 12 12.4242 12 14.0001C12 15.5759 12.3104 17.1364 12.9134 18.5923C13.5165 20.0482 14.4004 21.3711 15.5147 22.4854L14.1005 23.8996C12.8005 22.5996 11.7693 21.0562 11.0657 19.3576C10.3621 17.6591 10 15.8386 10 14.0001C10 12.1616 10.3621 10.3411 11.0657 8.64251C11.7693 6.94395 12.8005 5.40061 14.1005 4.10059L15.5147 5.5148Z" fill="#333333"/>
<path d="M24 16C25.1046 16 26 15.1046 26 14C26 12.8954 25.1046 12 24 12C22.8954 12 22 12.8954 22 14C22 15.1046 22.8954 16 24 16Z" fill="#333333"/>
</svg>
