<svg width="48" height="48" viewBox="0 0 48 48" fill="none" xmlns="http://www.w3.org/2000/svg">
<path d="M33.8905 4.40625L33.4255 4.90624C36.2334 7.50941 37.8314 11.163 37.8374 14.9921C37.8334 18.8211 36.2364 22.476 33.4295 25.08L33.8885 25.572C36.8334 22.841 38.5104 19.0091 38.5174 14.9921C38.5124 10.9742 36.8364 7.13912 33.8905 4.40625ZM13.6737 4.92384C11.0568 7.62221 9.59349 11.233 9.59359 14.9917C9.59919 18.7477 11.0658 22.3546 13.6837 25.0486L14.1617 24.5856C11.6678 22.0146 10.2738 18.5737 10.2728 14.9917C10.2778 11.4118 11.6768 7.97371 14.1717 5.40604L13.6737 4.92364V4.92384ZM32.3025 6.11523L31.8215 6.63482C34.1485 8.7919 35.4725 11.819 35.4785 14.9919C35.4735 18.1649 34.1505 21.1938 31.8235 23.3518L32.2985 23.8628C34.7685 21.5738 36.1754 18.3599 36.1814 14.9919C36.1774 11.623 34.7725 8.4068 32.3025 6.11523ZM15.3497 6.54882C13.1557 8.81179 11.9288 11.84 11.9298 14.9919C11.9348 18.1409 13.1647 21.1648 15.3587 23.4238L15.8547 22.9428C13.7887 20.8118 12.6327 17.9609 12.6327 14.9919C12.6367 12.025 13.7947 9.17509 15.8627 7.04692L15.3497 6.54882ZM30.7295 7.80861L30.2185 8.3594C32.0645 10.071 33.1155 12.4739 33.1185 14.9919C33.1155 17.5099 32.0655 19.9129 30.2205 21.6248L30.7285 22.1718C32.7265 20.3188 33.8645 17.7179 33.8685 14.9919C33.8655 12.266 32.7285 9.66308 30.7295 7.80861ZM17.0117 8.1602C15.2357 9.99098 14.2417 12.4409 14.2417 14.9919C14.2457 17.5409 15.2407 19.9879 17.0177 21.8158L17.5507 21.3008C15.9107 19.6099 14.9927 17.3479 14.9917 14.9919C14.9947 12.6369 15.9147 10.376 17.5567 8.6875L17.0117 8.1602ZM29.1225 9.53908L28.6245 10.074C29.9935 11.343 30.7735 13.1249 30.7765 14.9919C30.7745 16.8589 29.9955 18.6409 28.6265 19.9099L29.1205 20.4408C30.6375 19.0349 31.5015 17.0609 31.5055 14.9919C31.5035 12.9219 30.6395 10.947 29.1225 9.53908ZM18.7067 9.80468C17.3587 11.195 16.6047 13.0559 16.6047 14.9919C16.6077 16.9279 17.3637 18.7859 18.7127 20.1739L19.2337 19.6679C18.0177 18.4149 17.3367 16.7379 17.3357 14.9919C17.3387 13.2459 18.0207 11.57 19.2377 10.318L18.7067 9.80468ZM27.4996 11.285L27.0406 11.779C27.9346 12.6089 28.4435 13.7729 28.4445 14.9919C28.4425 16.2109 27.9346 17.3739 27.0406 18.2029L27.4976 18.6949C28.5285 17.7399 29.1155 16.3979 29.1185 14.9919C29.1175 13.5849 28.5305 12.242 27.4996 11.285ZM20.4196 11.467C19.5037 12.4119 18.9917 13.6759 18.9917 14.9919C18.9937 16.3079 19.5087 17.5709 20.4256 18.5139L20.9056 18.0469C20.1117 17.2279 19.6667 16.1329 19.6657 14.9919C19.6667 13.8509 20.1127 12.7559 20.9076 11.938L20.4196 11.467ZM24.0566 12.293C22.5656 12.293 21.3566 13.5009 21.3566 14.9919C21.3596 16.3529 22.3756 17.4999 23.7266 17.6659V30.9407H10.4078C9.88158 30.9407 9.45679 31.3637 9.45679 31.8907V42.1326C9.45679 42.6586 9.88158 43.0836 10.4078 43.0836H37.4974C38.0234 43.0836 38.4484 42.6586 38.4484 42.1326V31.8907C38.4484 31.3637 38.0234 30.9407 37.4974 30.9407H24.4386V17.6579C25.7656 17.4669 26.7506 16.3319 26.7536 14.9919C26.7536 13.5019 25.5466 12.294 24.0566 12.293ZM24.0566 13.0039C25.1536 13.0049 26.0426 13.8949 26.0426 14.9919C26.0416 16.0889 25.1526 16.9779 24.0566 16.9789C22.9586 16.9789 22.0686 16.0899 22.0676 14.9919C22.0676 13.8939 22.9576 13.0039 24.0566 13.0039ZM19.0117 32.0507C20.0107 32.0507 20.7846 32.2897 21.3356 32.7697C21.8906 33.2487 22.1676 33.9257 22.1676 34.8007C22.1676 35.2797 22.0436 35.7677 21.7946 36.2656C21.5456 36.7626 21.1186 37.3416 20.5156 38.0036L18.3117 40.3276H22.4796V41.8786H15.8357V40.5606L18.9707 37.2186C19.4007 36.7476 19.7197 36.3366 19.9237 35.9857C20.1317 35.6357 20.2357 35.3017 20.2357 34.9857C20.2357 34.5557 20.1277 34.2187 19.9097 33.9747C19.6927 33.7257 19.3817 33.6017 18.9787 33.6017C18.5427 33.6017 18.1977 33.7527 17.9447 34.0547C17.6967 34.3517 17.5717 34.7457 17.5717 35.2337H15.6427C15.6427 34.6437 15.7807 34.1037 16.0607 33.6147C16.3447 33.1267 16.7447 32.7457 17.2597 32.4707C17.7747 32.1907 18.3587 32.0507 19.0117 32.0507ZM28.0856 32.0757C29.2285 32.0757 30.1225 32.3507 30.7675 32.8977C31.4115 33.4407 31.7945 34.2337 31.9135 35.2747H29.9795C29.8915 34.7237 29.6945 34.3187 29.3905 34.0617C29.0895 33.8057 28.6755 33.6797 28.1456 33.6797C27.4706 33.6797 26.9566 33.9317 26.6036 34.4387C26.2496 34.9467 26.0706 35.7027 26.0656 36.7046V37.3196C26.0656 38.3306 26.2586 39.0946 26.6426 39.6106C27.0266 40.1276 27.5896 40.3866 28.3315 40.3866C29.0775 40.3866 29.6095 40.2276 29.9275 39.9096V38.2476H28.1186V36.7846H31.9135V40.6306C31.5555 41.0586 31.0495 41.3916 30.3955 41.6306C29.7425 41.8646 29.0185 41.9816 28.2246 41.9816C27.3896 41.9816 26.6586 41.8006 26.0266 41.4386C25.3996 41.0726 24.9146 40.5426 24.5696 39.8496C24.2296 39.1566 24.0556 38.3416 24.0466 37.4056V36.7516C24.0466 35.7897 24.2086 34.9577 24.5306 34.2557C24.8576 33.5497 25.3236 33.0087 25.9336 32.6387C26.5466 32.2627 27.2646 32.0757 28.0856 32.0757Z" fill="#333333"/>
</svg>
