<svg width="48" height="48" viewBox="0 0 48 48" fill="none" xmlns="http://www.w3.org/2000/svg">
<path d="M33.9 4.3999L33.43 4.8999C34.8149 6.18943 35.9194 7.75038 36.6746 9.48547C37.4298 11.2206 37.8195 13.0926 37.8195 14.9849C37.8195 16.8772 37.4298 18.7493 36.6746 20.4843C35.9194 22.2194 34.8149 23.7804 33.43 25.0699L33.89 25.5699C35.346 24.2203 36.5085 22.5853 37.3051 20.7668C38.1017 18.9483 38.5152 16.9852 38.52 14.9999C38.52 10.9799 36.84 7.1499 33.89 4.4199L33.9 4.3999ZM13.67 4.9199C11.056 7.61896 9.59521 11.2295 9.59708 14.9869C9.59895 18.7443 11.0633 22.3534 13.68 25.0499L14.16 24.5899C11.67 22.0179 10.2786 18.5778 10.2805 14.9979C10.2823 11.418 11.6773 7.97933 14.17 5.4099L13.67 4.9199ZM32.3 6.1199L31.82 6.6299C32.9733 7.69803 33.8936 8.99275 34.5234 10.433C35.1532 11.8732 35.4788 13.428 35.48 14.9999C35.48 18.1699 34.15 21.1999 31.82 23.3599L32.3 23.8699C33.518 22.7357 34.4894 21.3628 35.1536 19.8368C35.8178 18.3107 36.1606 16.6642 36.1606 14.9999C36.1606 13.3356 35.8178 11.6891 35.1536 10.163C34.4894 8.63698 33.518 7.26409 32.3 6.1299V6.1199ZM15.35 6.5499C13.1586 8.81098 11.9332 11.8361 11.9332 14.9849C11.9332 18.1337 13.1586 21.1588 15.35 23.4199L15.85 22.9399C13.7852 20.8079 12.6316 17.9558 12.6334 14.9879C12.6353 12.0199 13.7925 9.16929 15.86 7.0399L15.35 6.5399V6.5499ZM30.73 7.7999L30.22 8.3499C31.1304 9.19772 31.8563 10.2239 32.3527 11.3646C32.8491 12.5052 33.1053 13.7359 33.1053 14.9799C33.1053 16.2239 32.8491 17.4546 32.3527 18.5952C31.8563 19.7359 31.1304 20.7621 30.22 21.6099L30.72 22.1599C31.7067 21.2426 32.4939 20.1318 33.0325 18.8969C33.571 17.662 33.8495 16.3293 33.8504 14.9821C33.8514 13.6348 33.5748 12.3018 33.0379 11.0661C32.5011 9.83046 31.7154 8.71862 30.73 7.7999ZM17.01 8.1499C15.2347 9.98028 14.2418 12.43 14.2418 14.9799C14.2418 17.5298 15.2347 19.9795 17.01 21.8099L17.55 21.2899C15.9144 19.5985 15.0001 17.3377 15.0001 14.9849C15.0001 12.6321 15.9144 10.3713 17.55 8.6799L17.01 8.1499ZM29.12 9.5299L28.62 10.0599C29.296 10.6888 29.8351 11.4502 30.2038 12.2967C30.5724 13.1432 30.7627 14.0566 30.7627 14.9799C30.7627 15.9032 30.5724 16.8166 30.2038 17.6631C29.8351 18.5096 29.296 19.271 28.62 19.8999L29.12 20.4299C29.868 19.7328 30.4645 18.8892 30.8723 17.9515C31.2802 17.0139 31.4906 16.0024 31.4906 14.9799C31.4906 13.9574 31.2802 12.9459 30.8723 12.0083C30.4645 11.0707 29.868 10.227 29.12 9.5299ZM18.71 9.7899C17.3629 11.1798 16.6096 13.0393 16.6096 14.9749C16.6096 16.9105 17.3629 18.77 18.71 20.1599L19.23 19.6599C18.0161 18.4064 17.3373 16.7299 17.3373 14.9849C17.3373 13.2399 18.0161 11.5634 19.23 10.3099L18.71 9.7899ZM27.5 11.2699L27.04 11.7699C27.4803 12.1807 27.8314 12.6776 28.0714 13.2298C28.3115 13.7821 28.4354 14.3778 28.4354 14.9799C28.4354 15.582 28.3115 16.1778 28.0714 16.73C27.8314 17.2822 27.4803 17.7791 27.04 18.1899L27.5 18.6899C28.0091 18.2164 28.4152 17.643 28.6928 17.0055C28.9705 16.368 29.1138 15.6802 29.1138 14.9849C29.1138 14.2896 28.9705 13.6018 28.6928 12.9643C28.4152 12.3268 28.0091 11.7535 27.5 11.2799V11.2699ZM20.42 11.4599C19.506 12.4037 18.995 13.6661 18.995 14.9799C18.995 16.2937 19.506 17.5561 20.42 18.4999L20.91 18.0399C20.1187 17.2197 19.6766 16.1245 19.6766 14.9849C19.6766 13.8453 20.1187 12.7501 20.91 11.9299L20.42 11.4599ZM24.06 12.2799C23.3722 12.2794 22.7101 12.5414 22.2089 13.0125C21.7077 13.4835 21.4052 14.1281 21.3631 14.8146C21.321 15.5011 21.5425 16.1778 21.9823 16.7066C22.4222 17.2354 23.0473 17.5763 23.73 17.6599V30.9299H10.4C10.1481 30.9299 9.90642 31.03 9.72826 31.2082C9.5501 31.3863 9.45001 31.6279 9.45001 31.8799V42.1199C9.45001 42.6499 9.87001 43.0699 10.4 43.0699H37.5C38.02 43.0699 38.45 42.6499 38.45 42.1199V31.8999C38.45 31.6479 38.3499 31.4063 38.1718 31.2282C37.9936 31.05 37.752 30.9499 37.5 30.9499H24.44V17.6599C25.112 17.559 25.7212 17.2085 26.1461 16.6782C26.571 16.148 26.7804 15.477 26.7324 14.7992C26.6845 14.1214 26.3827 13.4866 25.8874 13.0215C25.392 12.5564 24.7395 12.2951 24.06 12.2899V12.2799ZM24.06 12.9899C24.3213 12.9899 24.5801 13.0414 24.8216 13.1414C25.063 13.2414 25.2824 13.388 25.4672 13.5728C25.6519 13.7575 25.7985 13.9769 25.8985 14.2184C25.9985 14.4598 26.05 14.7186 26.05 14.9799C26.05 15.2412 25.9985 15.5 25.8985 15.7414C25.7985 15.9829 25.6519 16.2023 25.4672 16.387C25.2824 16.5718 25.063 16.7184 24.8216 16.8184C24.5801 16.9184 24.3213 16.9699 24.06 16.9699C23.5322 16.9699 23.0261 16.7602 22.6529 16.387C22.2797 16.0138 22.07 15.5077 22.07 14.9799C22.07 14.4521 22.2797 13.946 22.6529 13.5728C23.0261 13.1996 23.5322 12.9899 24.06 12.9899ZM19 32.0499C20 32.0499 20.77 32.2899 21.33 32.7699C21.88 33.2499 22.16 33.9299 22.16 34.7999C22.16 35.2799 22.03 35.7699 21.78 36.2699C21.4374 36.8991 21.0138 37.4808 20.52 37.9999L18.32 40.3299H22.48V41.8799H15.84V40.5599L18.97 37.2199C19.4 36.7499 19.72 36.3399 19.92 35.9899C20.13 35.6399 20.24 35.2999 20.24 34.9899C20.24 34.5599 20.13 34.2199 19.91 33.9699C19.69 33.7299 19.38 33.5999 18.98 33.5999C18.54 33.5999 18.2 33.7499 17.94 34.0499C17.7 34.3499 17.57 34.7499 17.57 35.2299H15.64C15.64 34.6399 15.78 34.0999 16.06 33.6099C16.34 33.1299 16.74 32.7499 17.26 32.4699C17.7984 32.184 18.4005 32.0395 19.01 32.0499H19ZM28.08 32.0799C29.22 32.0799 30.11 32.3499 30.76 32.8999C31.4354 33.5104 31.8446 34.3612 31.9 35.2699H29.97C29.9235 34.8121 29.7141 34.3863 29.38 34.0699C29.08 33.8099 28.67 33.6799 28.14 33.6799C27.46 33.6799 26.94 33.9299 26.59 34.4399C26.1938 35.1243 26.0094 35.9107 26.06 36.6999V37.3199C26.06 38.3299 26.25 39.0899 26.63 39.6199C27.02 40.1199 27.58 40.3899 28.33 40.3899C29.07 40.3899 29.6 40.2299 29.92 39.9099V38.2499H28.11V36.7799H31.91V40.6299C31.55 41.0599 31.04 41.3899 30.39 41.6299C29.6891 41.872 28.9515 41.9904 28.21 41.9799C27.38 41.9799 26.65 41.7999 26.01 41.4399C25.3798 41.0653 24.8751 40.5118 24.56 39.8499C24.22 39.1499 24.05 38.3499 24.04 37.4099V36.7499C24.04 35.7899 24.2 34.9499 24.52 34.2499C24.85 33.5499 25.32 33.0099 25.92 32.6399C26.573 32.2537 27.3217 32.0595 28.08 32.0799Z" fill="#333333"/>
</svg>
