<svg width="48" height="48" viewBox="0 0 48 48" fill="none" xmlns="http://www.w3.org/2000/svg">
<path fill-rule="evenodd" clip-rule="evenodd" d="M0 0V47.9994H47.9994V0H0ZM33.8906 4.40614C36.8365 7.13881 38.5125 10.9739 38.5175 14.992C38.5105 19.009 36.8335 22.8409 33.8886 25.5719L33.4296 25.0799C36.2365 22.4759 37.8335 18.821 37.8375 14.992C37.8315 11.1631 36.2335 7.50951 33.4256 4.90614L33.8906 4.40635V4.40614ZM13.6738 4.92374L14.1718 5.40613C11.6769 7.9738 10.2779 11.4119 10.2729 14.9918C10.2739 18.5738 11.6679 22.0147 14.1618 24.5857L13.6838 25.0487C11.0659 22.3547 9.59928 18.7478 9.59368 14.9918C9.59358 11.2329 11.0569 7.6221 13.6738 4.92394V4.92374ZM32.3026 6.11512C34.7726 8.40669 36.1775 11.6229 36.1815 14.9918C36.1755 18.3598 34.7686 21.5737 32.2986 23.8627L31.8236 23.3517C34.1506 21.1937 35.4736 18.1648 35.4786 14.9918C35.4726 11.8189 34.1486 8.79179 31.8216 6.63472L32.3026 6.11512ZM15.3498 6.54872L15.8628 7.04681C13.7948 9.17498 12.6368 12.0248 12.6328 14.9918C12.6328 17.9608 13.7888 20.8117 15.8548 22.9427L15.3588 23.4237C13.1648 21.1647 11.9349 18.1408 11.9299 14.9918C11.9289 11.8399 13.1558 8.81169 15.3498 6.54872ZM30.7296 7.8085C32.7286 9.66298 33.8656 12.2658 33.8686 14.9918C33.8646 17.7178 32.7266 20.3187 30.7286 22.1717L30.2206 21.6247C32.0656 19.9128 33.1156 17.5098 33.1186 14.9918C33.1156 12.4738 32.0646 10.0709 30.2186 8.3593L30.7296 7.8085ZM17.0118 8.1601L17.5568 8.68739C15.9148 10.3759 14.9948 12.6368 14.9918 14.9918C14.9928 17.3478 15.9108 19.6098 17.5508 21.3007L17.0178 21.8157C15.2408 19.9877 14.2458 17.5408 14.2418 14.9918C14.2418 12.4408 15.2358 9.99087 17.0118 8.1601ZM29.1226 9.53898C30.6396 10.9469 31.5036 12.9218 31.5056 14.9918C31.5016 17.0608 30.6376 19.0348 29.1206 20.4407L28.6266 19.9098C29.9956 18.6408 30.7746 16.8588 30.7766 14.9918C30.7736 13.1248 29.9936 11.3429 28.6246 10.0739L29.1226 9.53898ZM18.7068 9.80458L19.2378 10.3179C18.0208 11.5699 17.3388 13.2458 17.3358 14.9918C17.3368 16.7378 18.0178 18.4148 19.2338 19.6678L18.7128 20.1737C17.3638 18.7858 16.6078 16.9278 16.6048 14.9918C16.6048 13.0558 17.3588 11.1949 18.7068 9.80458ZM27.4997 11.2849C28.5306 12.2418 29.1176 13.5848 29.1186 14.9918C29.1156 16.3978 28.5286 17.7398 27.4977 18.6948L27.0407 18.2028C27.9347 17.3738 28.4426 16.2108 28.4446 14.9918C28.4436 13.7728 27.9347 12.6088 27.0407 11.7789L27.4997 11.2849ZM20.4197 11.4669L20.9077 11.9378C20.1127 12.7558 19.6668 13.8508 19.6658 14.9918C19.6668 16.1328 20.1117 17.2278 20.9057 18.0468L20.4257 18.5138C19.5088 17.5708 18.9938 16.3078 18.9918 14.9918C18.9918 13.6758 19.5038 12.4118 20.4197 11.4669ZM24.0567 12.2928C25.5467 12.2938 26.7537 13.5018 26.7537 14.9918C26.7507 16.3318 25.7657 17.4668 24.4387 17.6578V30.9406H37.4975C38.0235 30.9406 38.4485 31.3636 38.4485 31.8906V42.1325C38.4485 42.6585 38.0235 43.0835 37.4975 43.0835H10.4079C9.88168 43.0835 9.45688 42.6585 9.45688 42.1325V31.8906C9.45688 31.3636 9.88168 30.9406 10.4079 30.9406H23.7267V17.6658C22.3757 17.4998 21.3597 16.3528 21.3567 14.9918C21.3567 13.5008 22.5657 12.2928 24.0567 12.2928ZM24.0567 13.0038C22.9577 13.0038 22.0677 13.8938 22.0677 14.9918C22.0687 16.0898 22.9587 16.9788 24.0567 16.9788C25.1527 16.9778 26.0417 16.0888 26.0427 14.9918C26.0427 13.8948 25.1537 13.0048 24.0567 13.0038ZM19.3008 32.0266C18.7118 32.0266 18.1708 32.1406 17.6798 32.3666C17.1918 32.5926 16.8098 32.9066 16.5348 33.3106C16.2648 33.7086 16.1308 34.1606 16.1308 34.6656H18.0508C18.0508 34.3426 18.1758 34.0796 18.4238 33.8806C18.6718 33.6766 18.9798 33.5756 19.3478 33.5756C19.7548 33.5756 20.0737 33.6826 20.3047 33.8996C20.5387 34.1166 20.6557 34.4226 20.6557 34.8116C20.6557 35.2156 20.5387 35.5376 20.3047 35.7806C20.0697 36.0245 19.7078 36.1475 19.2208 36.1475H18.1968V37.6475H19.2148C20.2777 37.6475 20.8087 38.1315 20.8087 39.0975C20.8087 39.4955 20.6767 39.8185 20.4157 40.0615C20.1587 40.3015 19.8038 40.4195 19.3478 40.4195C18.9488 40.4195 18.6108 40.3045 18.3358 40.0735C18.0658 39.8435 17.9318 39.5465 17.9318 39.1835H16.0118C16.0118 40.0205 16.3158 40.6955 16.9278 41.2045C17.5438 41.7145 18.3348 41.9685 19.3008 41.9685C20.3327 41.9685 21.1597 41.7095 21.7847 41.1905C22.4137 40.6725 22.7287 39.9835 22.7287 39.1245C22.7287 38.5925 22.5937 38.1315 22.3237 37.7415C22.0577 37.3515 21.6517 37.0595 21.1067 36.8645C21.5457 36.6655 21.9017 36.3795 22.1717 36.0075C22.4417 35.6356 22.5757 35.2276 22.5757 34.7846C22.5757 33.9256 22.2847 33.2526 21.7047 32.7656C21.1247 32.2736 20.3237 32.0266 19.3008 32.0266ZM28.0776 32.0266C27.2537 32.0266 26.5357 32.2146 25.9197 32.5916C25.3087 32.9636 24.8377 33.5036 24.5097 34.2126C24.1857 34.9166 24.0247 35.7526 24.0247 36.7185V37.3765C24.0337 38.3155 24.2097 39.1325 24.5507 39.8275C24.8957 40.5235 25.3827 41.0555 26.0117 41.4235C26.6447 41.7865 27.3807 41.9685 28.2186 41.9685C29.0156 41.9685 29.7426 41.8515 30.3976 41.6165C31.0536 41.3775 31.5606 41.0425 31.9196 40.6125V36.7515H28.1106V38.2205H29.9256V39.8885C29.6066 40.2075 29.0726 40.3665 28.3236 40.3665C27.5797 40.3665 27.0157 40.1075 26.6307 39.5895C26.2447 39.0715 26.0527 38.3055 26.0527 37.2905V36.6715C26.0567 35.6656 26.2347 34.9096 26.5897 34.3996C26.9437 33.8906 27.4607 33.6346 28.1386 33.6346C28.6696 33.6346 29.0866 33.7646 29.3886 34.0206C29.6936 34.2776 29.8896 34.6826 29.9786 35.2356H31.9196C31.7996 34.1906 31.4156 33.3956 30.7696 32.8516C30.1226 32.3016 29.2256 32.0266 28.0776 32.0266Z" fill="#333333"/>
</svg>
