<svg width="48" height="48" viewBox="0 0 48 48" fill="none" xmlns="http://www.w3.org/2000/svg">
<path d="M33.9 4.3999L33.43 4.8999C34.8149 6.18943 35.9194 7.75038 36.6746 9.48547C37.4298 11.2206 37.8195 13.0926 37.8195 14.9849C37.8195 16.8772 37.4298 18.7493 36.6746 20.4843C35.9194 22.2194 34.8149 23.7804 33.43 25.0699L33.89 25.5699C35.346 24.2203 36.5085 22.5853 37.3051 20.7668C38.1017 18.9483 38.5152 16.9852 38.52 14.9999C38.52 10.9799 36.84 7.1499 33.89 4.4199L33.9 4.3999ZM13.67 4.9199C11.056 7.61896 9.59521 11.2295 9.59708 14.9869C9.59895 18.7443 11.0633 22.3534 13.68 25.0499L14.16 24.5899C11.67 22.0179 10.2786 18.5778 10.2805 14.9979C10.2823 11.418 11.6773 7.97933 14.17 5.4099L13.67 4.9199ZM32.3 6.1199L31.82 6.6299C32.9684 7.69863 33.8843 8.99251 34.5106 10.4308C35.1369 11.8692 35.4601 13.4211 35.4601 14.9899C35.4601 16.5587 35.1369 18.1106 34.5106 19.549C33.8843 20.9873 32.9684 22.2812 31.82 23.3499L32.3 23.8599C33.518 22.7257 34.4894 21.3528 35.1536 19.8268C35.8178 18.3007 36.1606 16.6542 36.1606 14.9899C36.1606 13.3256 35.8178 11.6791 35.1536 10.153C34.4894 8.62698 33.518 7.25409 32.3 6.1199ZM15.35 6.5499C13.1609 8.81218 11.9371 11.8369 11.9371 14.9849C11.9371 18.1329 13.1609 21.1576 15.35 23.4199L15.85 22.9399C13.7852 20.8079 12.6316 17.9558 12.6334 14.9879C12.6353 12.0199 13.7925 9.16929 15.86 7.0399L15.35 6.5399V6.5499ZM30.73 7.7999L30.22 8.3499C31.1319 9.19783 31.8593 10.2246 32.3567 11.3662C32.854 12.5078 33.1107 13.7397 33.1107 14.9849C33.1107 16.2301 32.854 17.462 32.3567 18.6036C31.8593 19.7452 31.1319 20.772 30.22 21.6199L30.72 22.1599C31.7067 21.2426 32.4939 20.1318 33.0325 18.8969C33.571 17.662 33.8495 16.3293 33.8504 14.9821C33.8514 13.6348 33.5748 12.3018 33.0379 11.0661C32.5011 9.83046 31.7154 8.71862 30.73 7.7999ZM17.01 8.1499C15.2347 9.98028 14.2418 12.43 14.2418 14.9799C14.2418 17.5298 15.2347 19.9795 17.01 21.8099L17.55 21.2899C15.9121 19.5997 14.9962 17.3385 14.9962 14.9849C14.9962 12.6313 15.9121 10.3701 17.55 8.6799L17.01 8.1499ZM29.12 9.5299L28.62 10.0599C29.296 10.6888 29.8351 11.4502 30.2038 12.2967C30.5724 13.1432 30.7627 14.0566 30.7627 14.9799C30.7627 15.9032 30.5724 16.8166 30.2038 17.6631C29.8351 18.5096 29.296 19.271 28.62 19.8999L29.12 20.4299C29.868 19.7328 30.4645 18.8892 30.8723 17.9515C31.2802 17.0139 31.4906 16.0024 31.4906 14.9799C31.4906 13.9574 31.2802 12.9459 30.8723 12.0083C30.4645 11.0707 29.868 10.227 29.12 9.5299ZM18.71 9.7899C17.3629 11.1798 16.6096 13.0393 16.6096 14.9749C16.6096 16.9105 17.3629 18.77 18.71 20.1599L19.23 19.6599C18.0161 18.4064 17.3373 16.7299 17.3373 14.9849C17.3373 13.2399 18.0161 11.5634 19.23 10.3099L18.71 9.7899ZM27.5 11.2799L27.04 11.7699C27.4803 12.1807 27.8314 12.6776 28.0714 13.2298C28.3115 13.7821 28.4354 14.3778 28.4354 14.9799C28.4354 15.582 28.3115 16.1778 28.0714 16.73C27.8314 17.2822 27.4803 17.7791 27.04 18.1899L27.5 18.6899C28.0091 18.2164 28.4152 17.643 28.6928 17.0055C28.9705 16.368 29.1138 15.6802 29.1138 14.9849C29.1138 14.2896 28.9705 13.6018 28.6928 12.9643C28.4152 12.3268 28.0091 11.7535 27.5 11.2799ZM20.42 11.4599C19.506 12.4037 18.995 13.6661 18.995 14.9799C18.995 16.2937 19.506 17.5561 20.42 18.4999L20.91 18.0399C20.1164 17.2209 19.6726 16.1253 19.6726 14.9849C19.6726 13.8445 20.1164 12.7489 20.91 11.9299L20.42 11.4599ZM24.06 12.2799C23.3722 12.2794 22.7101 12.5414 22.2089 13.0125C21.7077 13.4835 21.4052 14.1281 21.3631 14.8146C21.321 15.5011 21.5425 16.1778 21.9823 16.7066C22.4222 17.2354 23.0473 17.5763 23.73 17.6599V30.9299H10.4C10.1481 30.9299 9.90642 31.03 9.72826 31.2082C9.5501 31.3863 9.45001 31.6279 9.45001 31.8799V42.1199C9.45001 42.6499 9.87001 43.0699 10.4 43.0699H37.5C38.02 43.0699 38.45 42.6499 38.45 42.1199V31.8999C38.45 31.6479 38.3499 31.4063 38.1718 31.2282C37.9936 31.05 37.752 30.9499 37.5 30.9499H24.44V17.6599C25.112 17.559 25.7212 17.2085 26.1461 16.6782C26.571 16.148 26.7804 15.477 26.7324 14.7992C26.6845 14.1214 26.3827 13.4866 25.8874 13.0215C25.392 12.5564 24.7395 12.2951 24.06 12.2899V12.2799ZM24.06 12.9899C24.3213 12.9899 24.5801 13.0414 24.8216 13.1414C25.063 13.2414 25.2824 13.388 25.4672 13.5728C25.6519 13.7575 25.7985 13.9769 25.8985 14.2184C25.9985 14.4598 26.05 14.7186 26.05 14.9799C26.05 15.2412 25.9985 15.5 25.8985 15.7414C25.7985 15.9829 25.6519 16.2023 25.4672 16.387C25.2824 16.5718 25.063 16.7184 24.8216 16.8184C24.5801 16.9184 24.3213 16.9699 24.06 16.9699C23.5322 16.9699 23.0261 16.7602 22.6529 16.387C22.2797 16.0138 22.07 15.5077 22.07 14.9799C22.07 14.4521 22.2797 13.946 22.6529 13.5728C23.0261 13.1996 23.5322 12.9899 24.06 12.9899ZM19.3 32.0299C20.1629 31.9805 21.0148 32.2431 21.7 32.7699C22.29 33.2499 22.58 33.9299 22.58 34.7899C22.58 35.2299 22.44 35.6399 22.18 36.0099C21.9 36.3799 21.55 36.6699 21.11 36.8699C21.65 37.0599 22.06 37.3499 22.32 37.7399C22.59 38.1399 22.72 38.5899 22.72 39.1199C22.72 39.9799 22.42 40.6699 21.79 41.1899C21.16 41.7099 20.33 41.9699 19.3 41.9699C18.4448 42.0064 17.6045 41.7369 16.93 41.2099C16.6301 40.9657 16.3909 40.6553 16.2313 40.3031C16.0716 39.9508 15.9959 39.5664 16.01 39.1799H17.93C17.93 39.5499 18.07 39.8399 18.33 40.0799C18.61 40.2999 18.95 40.4199 19.35 40.4199C19.8 40.4199 20.15 40.2999 20.42 40.0599C20.68 39.8199 20.81 39.4999 20.81 39.0999C20.81 38.1299 20.28 37.6499 19.21 37.6499H18.2V36.1499H19.22C19.71 36.1499 20.07 36.0199 20.3 35.7799C20.54 35.5399 20.66 35.2199 20.66 34.8099C20.66 34.4199 20.54 34.1099 20.3 33.8999C20.0367 33.6743 19.6962 33.5596 19.35 33.5799C18.98 33.5799 18.67 33.6799 18.42 33.8799C18.3003 33.973 18.2044 34.0931 18.1401 34.2304C18.0758 34.3678 18.0449 34.5184 18.05 34.6699H16.13C16.13 34.1699 16.26 33.7099 16.53 33.3099C16.81 32.9099 17.19 32.5899 17.68 32.3699C18.18 32.1399 18.71 32.0299 19.3 32.0299ZM28.08 32.0299C29.23 32.0299 30.12 32.2999 30.77 32.8499C31.452 33.4648 31.8651 34.3232 31.92 35.2399H29.98C29.89 34.6799 29.69 34.2799 29.38 34.0199C29.08 33.7599 28.67 33.6299 28.14 33.6299C27.46 33.6299 26.94 33.8899 26.59 34.3999C26.1895 35.0865 26.0016 35.8765 26.05 36.6699V37.2899C26.05 38.3099 26.25 39.0699 26.63 39.5899C27.02 40.1099 27.58 40.3699 28.33 40.3699C29.07 40.3699 29.61 40.2099 29.93 39.8899V38.2199H28.1V36.7499H31.91V40.6099C31.55 41.0399 31.04 41.3799 30.39 41.6099C29.73 41.8499 29.01 41.9699 28.21 41.9699C27.37 41.9699 26.64 41.7899 26.01 41.4199C25.3709 41.0457 24.8588 40.4883 24.54 39.8199C24.1864 39.0557 24.0087 38.2219 24.02 37.3799V36.7199C24.02 35.7499 24.18 34.9199 24.5 34.2199C24.83 33.4999 25.3 32.9599 25.91 32.5899C26.5634 32.2047 27.3118 32.0106 28.07 32.0299H28.08Z" fill="#333333"/>
</svg>
