<svg width="48" height="48" viewBox="0 0 48 48" fill="none" xmlns="http://www.w3.org/2000/svg">
<path d="M24.07 4.4201C22.25 4.2901 20.84 5.8701 20.66 7.5801L19.83 10.9001C18.49 11.0801 19.72 9.4501 18.43 9.3501C17.57 8.9201 16.54 9.2201 16.55 10.3001C16.13 11.1701 16.32 12.2801 17.47 12.2701C18.61 13.0101 18.57 11.1001 19.33 11.4001C20.08 11.5001 19.26 12.5301 19.3 13.0501C18.23 13.3901 16.27 13.9001 16 15.5501C14.14 15.2001 12.45 16.7501 12.27 18.5501C11.72 20.1501 12.67 22.0501 14.27 22.5501C13.87 23.7701 15.37 23.5001 16.07 23.8201C16.91 24.1201 17.93 24.0801 18.61 24.6701C19.11 25.2301 17.81 26.5101 18.79 26.5901C19.35 26.8101 20.49 26.6701 19.95 27.5501C19.8 28.3101 19.15 29.6101 20.35 29.8101L30.2 32.2601C31.33 32.3301 31.16 30.9001 31.47 30.1601C31.54 29.3601 32.6 30.1901 33.14 30.1601C33.8 30.0601 33.3 28.0901 34.54 28.4101L38.27 29.3301C39.02 28.1301 41.62 28.8701 42.14 26.8601C42.78 25.3301 42.98 23.3001 41.49 22.1801C39.71 21.6501 40.93 18.8901 38.85 18.2001C38.55 17.9301 38.85 16.4301 39.27 16.3501C40.39 16.2801 39.07 18.0801 40.54 18.0001C41.44 18.4801 42.33 17.9401 42.34 16.9201C42.8 16.0101 42.37 15.0201 41.28 15.0301C40.13 14.3601 40.32 16.4001 39.35 15.7501C39.1 15.3501 39.61 14.5001 39.65 13.9301C39.99 12.3101 40.88 10.4701 39.68 8.9801C38.55 7.5301 36.56 7.5801 34.94 7.0601C31.42 6.1901 27.91 5.2901 24.39 4.4601L24.07 4.4201ZM24.07 5.9501C28.6 6.9801 33.1 8.1701 37.61 9.2701C39.21 9.6401 39.09 11.4201 38.65 12.6201L37.38 17.7201L20.68 13.5701C21.25 11.3901 21.74 9.1901 22.34 7.0201C22.64 6.3501 23.34 5.9101 24.07 5.9501ZM23.83 12.2201C23.7 12.6101 24.96 12.5901 25.36 12.7901C26.16 12.7601 26.43 13.3301 26.61 14.0001C26.89 14.2601 26.39 14.8201 26.94 14.9001C27.37 14.9201 27.34 14.2101 26.92 14.2701C26.77 13.7501 26 12.6901 27.06 13.2101C27.39 13.3601 28.93 13.6501 27.96 13.2501L23.83 12.2201ZM30.7 13.9201C30.57 14.3201 31.82 14.2901 32.23 14.5001C33.03 14.4701 33.3 15.0401 33.48 15.7101C33.75 15.9601 33.26 16.5201 33.81 16.6001C34.23 16.6301 34.21 15.9201 33.79 15.9801C33.64 15.4501 32.87 14.3901 33.93 14.9201C34.26 15.0601 35.8 15.3501 34.83 14.9501L30.7 13.9301V13.9201ZM15.6 16.8101C17.6 16.6501 18.83 19.3601 17.4 20.7601C16.1 22.3301 13.26 21.2601 13.31 19.2301C13.2939 18.6058 13.5258 18.0006 13.955 17.547C14.3843 17.0934 14.9758 16.8284 15.6 16.8101ZM21.3 18.8301C22.1 19.3901 21.33 20.4501 21.26 21.2301C20.91 22.5401 20.66 23.8801 20.25 25.1601C19.01 26.1401 19.28 24.0701 19.6 23.3701C19.98 21.9701 20.25 20.5201 20.7 19.1301C20.82 18.9301 21.05 18.7701 21.3 18.8301ZM22.92 19.2301C23.72 19.8001 22.96 20.8601 22.89 21.6401C22.54 22.9401 22.29 24.2801 21.87 25.5601C20.64 26.5501 20.91 24.4801 21.23 23.7801C21.61 22.3701 21.88 20.9201 22.33 19.5401C22.44 19.3401 22.68 19.1701 22.93 19.2401L22.92 19.2301ZM24.55 19.6301C25.35 20.2001 24.58 21.2601 24.52 22.0401C24.16 23.3401 23.92 24.6901 23.5 25.9701C22.26 26.9501 22.53 24.8701 22.85 24.1801C23.23 22.7801 23.51 21.3301 23.95 19.9401C24.07 19.7401 24.31 19.5801 24.55 19.6401V19.6301ZM26.17 20.0401C26.97 20.6001 26.2 21.6701 26.14 22.4401C25.79 23.7501 25.54 25.0901 25.12 26.3701C23.89 27.3501 24.16 25.2801 24.48 24.5801C24.86 23.1801 25.13 21.7301 25.58 20.3501C25.69 20.1501 25.93 19.9801 26.18 20.0501L26.17 20.0401ZM27.8 20.4401C28.6 21.0101 27.83 22.0701 27.77 22.8501C27.41 24.1501 27.17 25.4901 26.75 26.7701C25.51 27.7601 25.78 25.6901 26.1 24.9901C26.48 23.5801 26.76 22.1401 27.2 20.7501C27.32 20.5501 27.56 20.3801 27.8 20.4501V20.4401ZM29.42 20.8401C30.22 21.4101 29.46 22.4701 29.39 23.2501C29.04 24.5501 28.79 25.9001 28.37 27.1801C27.14 28.1601 27.4 26.0901 27.73 25.3901C28.11 23.9901 28.38 22.5401 28.83 21.1501C28.94 20.9501 29.18 20.7901 29.43 20.8501L29.42 20.8401ZM31.05 21.2501C31.85 21.8201 31.08 22.8801 31.01 23.6501C30.66 24.9601 30.41 26.3001 30 27.5801C28.76 28.5701 29.03 26.4901 29.35 25.8001C29.73 24.3901 30.01 22.9401 30.45 21.5601C30.57 21.3601 30.8 21.1901 31.05 21.2601V21.2501ZM32.67 21.6501C33.47 22.2201 32.71 23.2801 32.64 24.0601C32.29 25.3601 32.04 26.7001 31.62 27.9901C30.39 28.9701 30.65 26.8901 30.98 26.1901C31.36 24.7901 31.63 23.3501 32.08 21.9601C32.19 21.7601 32.43 21.5901 32.68 21.6601L32.67 21.6501ZM34.3 22.0501C35.1 22.6201 34.33 23.6801 34.27 24.4701C33.91 25.7701 33.67 27.1101 33.25 28.3901C32.01 29.3701 32.28 27.3001 32.6 26.6001C32.98 25.2001 33.26 23.7501 33.7 22.3601C33.82 22.1601 34.05 22.0001 34.3 22.0601V22.0501ZM39.17 22.6601C41.16 22.5001 42.39 25.2101 40.97 26.6101C39.67 28.1801 36.82 27.1101 36.87 25.0801C36.862 24.7702 36.9152 24.4617 37.0265 24.1723C37.1378 23.8829 37.305 23.6183 37.5186 23.3935C37.7322 23.1688 37.988 22.9883 38.2713 22.8625C38.5547 22.7367 38.8601 22.6679 39.17 22.6601ZM12.55 23.6201C11.67 23.9401 11.85 25.1001 11.55 25.8401C10.97 28.3001 10.25 30.7401 9.77001 33.2201C10.13 34.1101 11.32 33.9301 12.09 34.2501C13.1 34.4701 14.09 34.8201 15.11 34.9501C15.99 34.5801 15.82 33.4001 16.14 32.6201C16.7 30.1901 17.42 27.7801 17.89 25.3401C17.52 24.4601 16.34 24.6301 15.56 24.3101C14.56 24.0901 13.56 23.7501 12.55 23.6101V23.6201ZM34.68 29.1201C33.81 29.4401 33.98 30.6001 33.68 31.3401C33.11 33.8001 32.38 36.2401 31.9 38.7201C32.27 39.6001 33.45 39.4301 34.23 39.7501C35.23 39.9701 36.23 40.3101 37.24 40.4401C38.13 40.0801 37.95 38.8901 38.27 38.1101C38.84 35.6901 39.55 33.2801 40.02 30.8401C39.66 29.9501 38.48 30.1301 37.7 29.8101C36.7 29.5901 35.7 29.2401 34.68 29.1101V29.1201ZM11.07 34.8701C7.62001 34.6701 4.34001 38.2501 5.60001 41.6601C5.90001 43.1001 6.94001 43.9201 8.34001 43.6101H38.84C38.97 41.0301 35.2 40.0501 33.69 41.9301C32.55 40.3501 29.83 40.4001 28.77 42.0501C27.88 40.5601 25.67 40.2601 24.33 41.3001C22.67 38.9501 19.31 38.4201 16.73 39.3301C16.31 36.6701 13.68 34.8301 11.07 34.8701Z" fill="#333333"/>
</svg>
