<svg width="48" height="48" viewBox="0 0 48 48" fill="none" xmlns="http://www.w3.org/2000/svg">
<path d="M24.07 4.40004C22.25 4.27004 20.84 5.86004 20.66 7.57004L19.83 10.89C18.49 11.07 19.72 9.43004 18.43 9.34004C17.57 8.91004 16.54 9.21004 16.55 10.29C16.13 11.16 16.32 12.27 17.47 12.26C18.61 13 18.57 11.09 19.33 11.38C20.08 11.48 19.25 12.51 19.3 13.03C18.23 13.37 16.27 13.89 16 15.53C14.14 15.19 12.45 16.73 12.27 18.53C11.72 20.13 12.67 22.03 14.27 22.54C13.87 23.75 15.37 23.48 16.07 23.81C16.91 24.11 17.93 24.06 18.61 24.65C19.11 25.22 17.81 26.49 18.79 26.57C19.35 26.79 20.49 26.66 19.95 27.53C19.8 28.3 19.15 29.6 20.35 29.8L30.2 32.24C31.33 32.31 31.16 30.89 31.46 30.14C31.54 29.34 32.6 30.17 33.14 30.14C33.8 30.04 33.3 28.08 34.54 28.39L38.27 29.32C39.02 28.12 41.62 28.85 42.14 26.84C42.78 25.32 42.98 23.28 41.49 22.17C39.71 21.63 40.93 18.87 38.85 18.19C38.55 17.92 38.85 16.41 39.27 16.33C40.39 16.27 39.07 18.07 40.53 17.98C41.43 18.46 42.33 17.92 42.33 16.91C42.8 15.99 42.37 15.01 41.28 15.01C40.13 14.35 40.32 16.38 39.35 15.73C39.09 15.34 39.61 14.48 39.65 13.91C39.99 12.3 40.88 10.46 39.68 8.97004C38.55 7.51004 36.56 7.57004 34.94 7.04004C31.42 6.18004 27.91 5.27004 24.39 4.44004L24.07 4.41004V4.40004ZM23.83 4.91004C23.97 4.91004 24.11 4.91004 24.25 4.93004L37.68 8.23004C38.93 8.53004 40.23 9.53004 39.59 12.12L38.15 17.9L37.88 17.82L39.34 12.07C39.59 10.59 39.38 9.36004 37.92 8.81004L24.2 5.43004C23.14 5.33004 22.34 5.78004 21.84 6.88004L20.17 13.44L19.8 13.15L21.33 6.86004C21.53 6.39004 21.71 5.90004 22.32 5.46004L22.58 5.28004C23 5.03004 23.41 4.92004 23.83 4.91004ZM24.07 5.93004C28.6 6.97004 33.1 8.16004 37.61 9.26004C39.21 9.62004 39.09 11.4 38.65 12.61L37.38 17.71L20.68 13.56C21.25 11.37 21.74 9.17004 22.34 7.00004C22.64 6.33004 23.34 5.89004 24.07 5.93004ZM23.83 12.2C23.7 12.6 24.95 12.57 25.36 12.78C26.16 12.75 26.43 13.31 26.61 13.98C26.89 14.24 26.39 14.8 26.94 14.88C27.37 14.91 27.34 14.2 26.92 14.26C26.77 13.73 26 12.67 27.06 13.2C27.39 13.34 28.93 13.63 27.96 13.23L23.83 12.2ZM19.41 13.57C19.67 13.57 20.01 13.69 20.54 14.05L37.24 18.2C37.74 18.2 38.22 18.26 38.54 18.66C39.88 19.13 39.67 20.68 40.2 21.71C38.59 21.23 37.58 22 35.84 21.59L20.37 17.69C18.72 17.34 17.81 16.24 16.5 15.65C16.72 14.45 18.5 13.65 19.16 13.62C19.2401 13.5901 19.3245 13.5732 19.41 13.57ZM30.7 13.91C30.58 14.29 31.82 14.28 32.23 14.48C33.03 14.45 33.3 15.02 33.48 15.69C33.75 15.95 33.26 16.51 33.81 16.58C34.24 16.61 34.21 15.9 33.79 15.96C33.64 15.44 32.87 14.38 33.93 14.9C34.26 15.05 35.8 15.34 34.83 14.94L30.7 13.9V13.91ZM15.6 16.8C17.6 16.65 18.83 19.35 17.4 20.75C16.1 22.32 13.26 21.25 13.31 19.22C13.2939 18.5958 13.5258 17.9905 13.955 17.5369C14.3843 17.0833 14.9758 16.8183 15.6 16.8ZM21.12 18.82C21.1793 18.807 21.2407 18.807 21.3 18.82C22.1 19.39 21.33 20.45 21.26 21.23C20.91 22.53 20.66 23.87 20.25 25.16C19.01 26.14 19.28 24.06 19.6 23.36C19.98 21.96 20.25 20.51 20.7 19.13C20.7443 19.0518 20.8046 18.9837 20.877 18.9303C20.9493 18.8769 21.0321 18.8393 21.12 18.82ZM22.74 19.22C22.7993 19.207 22.8607 19.207 22.92 19.22C23.72 19.79 22.95 20.85 22.89 21.63C22.54 22.93 22.29 24.28 21.87 25.56C20.64 26.54 20.9 24.47 21.23 23.77C21.61 22.37 21.88 20.92 22.33 19.53C22.3743 19.4547 22.4335 19.3892 22.504 19.3376C22.5745 19.286 22.6548 19.2494 22.74 19.23V19.22ZM24.37 19.62L24.55 19.63C25.35 20.19 24.58 21.26 24.52 22.03C24.16 23.34 23.92 24.68 23.5 25.96C22.26 26.94 22.53 24.87 22.85 24.17C23.23 22.77 23.51 21.32 23.95 19.94C23.9937 19.8603 24.0537 19.7906 24.1261 19.7355C24.1984 19.6803 24.2815 19.641 24.37 19.62ZM25.99 20.03C26.0493 20.017 26.1107 20.017 26.17 20.03C26.97 20.6 26.2 21.66 26.14 22.44C25.79 23.74 25.54 25.08 25.12 26.36C23.89 27.35 24.15 25.28 24.48 24.58C24.86 23.17 25.13 21.73 25.58 20.34C25.6232 20.2628 25.682 20.1954 25.7525 20.1421C25.8231 20.0887 25.904 20.0506 25.99 20.03ZM27.62 20.43C27.6793 20.4167 27.7407 20.4167 27.8 20.43C28.6 21 27.83 22.06 27.77 22.85C27.41 24.15 27.17 25.49 26.75 26.77C25.51 27.75 25.78 25.68 26.1 24.98C26.48 23.58 26.76 22.13 27.2 20.74C27.2454 20.6636 27.3061 20.5975 27.3784 20.5458C27.4507 20.4942 27.533 20.4581 27.62 20.44V20.43ZM29.24 20.83L29.42 20.84C30.22 21.41 29.46 22.47 29.39 23.25C29.04 24.55 28.79 25.89 28.37 27.17C27.14 28.16 27.4 26.08 27.73 25.38C28.11 23.98 28.38 22.53 28.83 21.15C28.8737 21.0732 28.9326 21.0061 29.0031 20.9528C29.0736 20.8995 29.1542 20.8611 29.24 20.84V20.83ZM30.87 21.23C30.93 21.2203 30.9914 21.2237 31.05 21.24C31.85 21.81 31.08 22.87 31.01 23.65C30.66 24.95 30.41 26.29 30 27.58C28.76 28.56 29.03 26.48 29.35 25.78C29.73 24.38 30.01 22.94 30.45 21.55C30.4943 21.4718 30.5546 21.4037 30.627 21.3503C30.6993 21.2969 30.7821 21.2593 30.87 21.24V21.23ZM32.49 21.64C32.5493 21.6267 32.6107 21.6267 32.67 21.64C33.47 22.21 32.71 23.28 32.64 24.06C32.29 25.36 32.04 26.7 31.62 27.98C30.39 28.96 30.65 26.89 30.98 26.19C31.36 24.79 31.63 23.34 32.08 21.95C32.1247 21.8751 32.184 21.8099 32.2545 21.7583C32.3249 21.7068 32.405 21.67 32.49 21.65V21.64ZM34.12 22.04L34.3 22.05C35.1 22.62 34.33 23.68 34.27 24.45C33.91 25.76 33.67 27.1 33.25 28.38C32.01 29.37 32.28 27.3 32.6 26.6C32.98 25.19 33.26 23.74 33.7 22.36C33.7448 22.2821 33.8052 22.2144 33.8775 22.161C33.9498 22.1077 34.0324 22.0699 34.12 22.05V22.04ZM39.17 22.66C41.16 22.5 42.39 25.2 40.96 26.6C39.66 28.17 36.82 27.1 36.88 25.07C36.8665 24.4475 37.0997 23.8448 37.5286 23.3934C37.9576 22.942 38.5476 22.6784 39.17 22.66ZM12.55 23.61C11.67 23.93 11.85 25.09 11.55 25.83C10.97 28.3 10.25 30.73 9.77001 33.21C10.13 34.1 11.32 33.93 12.09 34.25C13.1 34.46 14.09 34.81 15.11 34.94C15.99 34.57 15.82 33.39 16.14 32.61C16.7 30.18 17.42 27.78 17.89 25.33C17.52 24.45 16.34 24.63 15.56 24.3C14.56 24.09 13.56 23.74 12.55 23.61ZM12.8 24.17L17.02 25.19C17.16 25.24 17.32 25.25 17.32 25.54L15.32 33.87C15.23 34.15 15.15 34.45 14.73 34.34L10.61 33.36C10.46 33.3 10.34 33.23 10.34 33.01L12.38 24.53C12.44 24.32 12.53 24.13 12.8 24.17ZM34.68 29.11C33.81 29.43 33.98 30.59 33.68 31.33C33.11 33.79 32.38 36.23 31.9 38.71C32.27 39.6 33.45 39.43 34.23 39.74C35.23 39.96 36.23 40.31 37.24 40.44C38.13 40.07 37.95 38.89 38.27 38.11C38.84 35.68 39.55 33.27 40.02 30.83C39.66 29.95 38.47 30.12 37.7 29.8C36.7 29.58 35.7 29.24 34.68 29.11ZM34.93 29.66L39.15 30.69C39.29 30.75 39.45 30.79 39.45 31.04L37.35 39.66C37.32 39.84 37.25 39.87 37.18 39.91L32.74 38.86C32.55 38.79 32.42 38.69 32.47 38.51L34.52 30.03C34.57 29.79 34.7 29.67 34.93 29.66ZM11.07 34.86C7.62001 34.67 4.34001 38.24 5.60001 41.65C5.90001 43.1 6.94001 43.92 8.34001 43.61H38.84C38.97 41.02 35.2 40.05 33.69 41.93C32.54 40.34 29.83 40.39 28.77 42.04C27.88 40.56 25.67 40.26 24.33 41.29C22.67 38.94 19.31 38.41 16.73 39.33C16.31 36.66 13.68 34.83 11.07 34.87V34.86ZM10.27 35.36C10.53 35.34 10.8 35.34 11.07 35.38C14.57 35.58 15.62 37.36 16.22 39.43C16.32 39.98 16.62 39.83 16.88 39.81C19.11 39.39 21.34 38.87 23.92 41.6C24.17 41.93 24.4 41.86 24.62 41.71C26.22 40.79 27.4 41.19 28.34 42.33C28.69 42.7 28.94 42.54 29.18 42.35C29.96 41.06 32.24 40.75 33.3 42.27C33.57 42.54 33.82 42.51 34.06 42.27C34.3518 41.9472 34.722 41.7052 35.1347 41.5672C35.5474 41.4293 35.9888 41.4001 36.4161 41.4825C36.8433 41.565 37.2421 41.7562 37.5739 42.0378C37.9057 42.3194 38.1592 42.6818 38.31 43.09H8.34001C5.86001 43.43 5.26001 40.27 6.19001 38.26C6.56965 37.4713 7.14298 36.7916 7.85646 36.2845C8.56994 35.7774 9.40031 35.4593 10.27 35.36Z" fill="#333333"/>
</svg>
