<svg width="48" height="48" viewBox="0 0 48 48" fill="none" xmlns="http://www.w3.org/2000/svg">
<path fill-rule="evenodd" clip-rule="evenodd" d="M0 0V47.9994H47.9994V0H0ZM24.0657 4.40614L24.3867 4.43544C27.9127 5.27193 31.4226 6.17792 34.9426 7.04091C36.5595 7.57311 38.5525 7.51031 39.6835 8.96669C40.8755 10.4579 39.9925 12.2958 39.6495 13.9138C39.6095 14.4838 39.0945 15.3398 39.3455 15.7338C40.3185 16.3808 40.1315 14.3458 41.2765 15.0138C42.3665 15.0088 42.8045 15.9898 42.3295 16.9058C42.3295 17.9248 41.4295 18.4638 40.5345 17.9838C39.0735 18.0678 40.3935 16.2668 39.2725 16.3338C38.8555 16.4138 38.5425 17.9158 38.8495 18.1878C40.9305 18.8758 39.7145 21.6307 41.4895 22.1657C42.9775 23.2837 42.7825 25.3177 42.1385 26.8417C41.6205 28.8506 39.0225 28.1196 38.2675 29.3176C37.0235 29.0096 35.7806 28.7006 34.5366 28.3926C33.2956 28.0766 33.8006 30.0366 33.1386 30.1366C32.6016 30.1726 31.5406 29.3366 31.4646 30.1386C31.1606 30.8876 31.3286 32.3136 30.2006 32.2416L20.3567 29.7966C19.1408 29.5986 19.8018 28.2986 19.9527 27.5307C20.4867 26.6577 19.3508 26.7897 18.7928 26.5737C17.8008 26.4947 19.1178 25.2197 18.6068 24.6517C17.9308 24.0597 16.9108 24.1007 16.0758 23.8067C15.3648 23.4797 13.8678 23.7507 14.2788 22.5407C12.6618 22.0347 11.7199 20.1337 12.2708 18.5368C12.4528 16.7348 14.1388 15.1898 15.9958 15.5328C16.2728 13.8878 18.2288 13.3728 19.2988 13.0308C19.2548 12.5148 20.0777 11.4749 19.3318 11.3809C18.5748 11.0859 18.6138 12.9968 17.4748 12.2578C16.3248 12.2678 16.1338 11.1579 16.5528 10.2869C16.5448 9.20908 17.5738 8.90789 18.4258 9.33968C19.7198 9.43028 18.4908 11.0659 19.8318 10.8889C20.1067 9.78088 20.3807 8.67399 20.6557 7.56631C20.8417 5.85943 22.2497 4.27085 24.0657 4.40614ZM24.0717 5.92963C23.3467 5.89043 22.6317 6.33492 22.3437 7.00191C21.7377 9.17178 21.2477 11.3749 20.6877 13.5588L37.3825 17.7028C37.8045 16.0048 38.2275 14.3078 38.6495 12.6088C39.0935 11.4019 39.2155 9.62278 37.6125 9.25578C33.0966 8.1588 28.5996 6.96631 24.0717 5.92963ZM23.8317 12.2028C25.2087 12.5458 26.5857 12.8888 27.9626 13.2318C28.9306 13.6328 27.3897 13.3428 27.0607 13.1988C25.9997 12.6708 26.7707 13.7318 26.9217 14.2558C27.3457 14.1978 27.3657 14.9088 26.9377 14.8748C26.3907 14.8018 26.8867 14.2418 26.6107 13.9878C26.4297 13.3138 26.1527 12.7468 25.3607 12.7768C24.9537 12.5698 23.7037 12.5928 23.8317 12.2048V12.2028ZM30.6986 13.9118C32.0766 14.2538 33.4536 14.5948 34.8316 14.9378C35.8006 15.3368 34.2596 15.0488 33.9296 14.9038C32.8696 14.3758 33.6376 15.4368 33.7886 15.9608C34.2136 15.9018 34.2356 16.6138 33.8066 16.5798C33.2596 16.5078 33.7516 15.9488 33.4786 15.6948C33.2976 15.0198 33.0226 14.4518 32.2296 14.4818C31.8236 14.2758 30.5796 14.2948 30.6986 13.9118ZM15.5978 16.7948C14.3298 16.8028 13.2508 17.9458 13.3108 19.2108C13.2558 21.2437 16.1008 22.3107 17.3948 20.7397C18.8258 19.3408 17.5908 16.6358 15.5978 16.7948ZM21.1167 18.8068C20.9427 18.8368 20.7877 18.9678 20.6987 19.1168C20.2537 20.5037 19.9787 21.9477 19.6018 23.3567C19.2778 24.0557 19.0108 26.1277 20.2457 25.1457C20.6647 23.8637 20.9127 22.5247 21.2637 21.2207C21.3287 20.4387 22.0977 19.3768 21.2967 18.8118C21.2357 18.7968 21.1747 18.7958 21.1167 18.8068ZM22.7417 19.2108C22.5677 19.2418 22.4137 19.3718 22.3257 19.5208C21.8817 20.9077 21.6057 22.3527 21.2287 23.7617C20.9047 24.4597 20.6367 26.5297 21.8707 25.5487C22.2887 24.2667 22.5377 22.9287 22.8887 21.6247C22.9537 20.8427 23.7227 19.7818 22.9217 19.2168C22.8607 19.2008 22.7997 19.2008 22.7417 19.2108ZM24.3687 19.6148C24.1947 19.6458 24.0397 19.7768 23.9507 19.9258C23.5057 21.3117 23.2307 22.7547 22.8537 24.1637C22.5297 24.8627 22.2607 26.9347 23.4957 25.9527C23.9147 24.6707 24.1647 23.3327 24.5157 22.0287C24.5807 21.2477 25.3497 20.1847 24.5487 19.6208C24.4877 19.6058 24.4267 19.6048 24.3687 19.6148ZM25.9917 20.0197C25.8177 20.0497 25.6627 20.1807 25.5737 20.3297C25.1297 21.7167 24.8557 23.1587 24.4787 24.5677C24.1547 25.2667 23.8867 27.3367 25.1207 26.3547C25.5387 25.0727 25.7877 23.7357 26.1387 22.4317C26.2037 21.6497 26.9727 20.5897 26.1717 20.0247C26.1107 20.0097 26.0497 20.0088 25.9917 20.0197ZM27.6187 20.4217C27.4447 20.4517 27.2897 20.5827 27.2007 20.7317C26.7557 22.1187 26.4807 23.5637 26.1037 24.9727C25.7797 25.6707 25.5107 27.7417 26.7457 26.7597C27.1647 25.4777 27.4147 24.1397 27.7657 22.8357C27.8307 22.0547 28.5976 20.9917 27.7967 20.4277C27.7357 20.4117 27.6767 20.4117 27.6187 20.4217ZM29.2436 20.8257C29.0696 20.8567 28.9146 20.9877 28.8256 21.1367C28.3806 22.5227 28.1056 23.9657 27.7287 25.3747C27.4047 26.0737 27.1367 28.1476 28.3706 27.1637C28.7886 25.8817 29.0396 24.5437 29.3906 23.2397C29.4556 22.4587 30.2226 21.3957 29.4216 20.8317C29.3606 20.8167 29.3016 20.8157 29.2436 20.8257ZM30.8666 21.2287C30.6926 21.2587 30.5386 21.3897 30.4506 21.5387C30.0066 22.9267 29.7306 24.3697 29.3536 25.7787C29.0306 26.4767 28.7626 28.5496 29.9956 27.5657C30.4136 26.2837 30.6626 24.9467 31.0136 23.6427C31.0786 22.8607 31.8476 21.8007 31.0466 21.2357V21.2337C30.9856 21.2187 30.9246 21.2177 30.8666 21.2287ZM32.4936 21.6327C32.3196 21.6627 32.1626 21.7937 32.0736 21.9427C31.6286 23.3307 31.3556 24.7737 30.9786 26.1837C30.6546 26.8817 30.3866 28.9546 31.6206 27.9707C32.0386 26.6887 32.2896 25.3507 32.6406 24.0467C32.7056 23.2657 33.4726 22.2027 32.6716 21.6387C32.6106 21.6227 32.5516 21.6227 32.4936 21.6327ZM34.1186 22.0367C33.9446 22.0677 33.7886 22.1987 33.7006 22.3477C33.2566 23.7347 32.9806 25.1787 32.6036 26.5877C32.2796 27.2867 32.0106 29.3566 33.2456 28.3746C33.6646 27.0927 33.9146 25.7537 34.2656 24.4487C34.3306 23.6677 35.0976 22.6067 34.2966 22.0427C34.2356 22.0277 34.1766 22.0267 34.1186 22.0367ZM39.1655 22.6477C37.8995 22.6557 36.8165 23.7997 36.8765 25.0637C36.8215 27.0967 39.6665 28.1626 40.9605 26.5917C42.3915 25.1937 41.1595 22.4857 39.1655 22.6477ZM12.5488 23.6037C13.5638 23.7287 14.5578 24.0777 15.5618 24.2947C16.3398 24.6137 17.5228 24.4407 17.8888 25.3237C17.4168 27.7657 16.7038 30.1726 16.1388 32.6016C15.8198 33.3796 15.9918 34.5626 15.1068 34.9276C14.0878 34.8026 13.0998 34.4546 12.0938 34.2376C11.3159 33.9196 10.1339 34.0896 9.76938 33.2046C10.2499 30.7276 10.9709 28.2876 11.5449 25.8237C11.8549 25.0847 11.6739 23.9227 12.5488 23.6037ZM34.6836 29.1016C35.6986 29.2266 36.6925 29.5736 37.6965 29.7906C38.4745 30.1096 39.6575 29.9386 40.0225 30.8216C39.5515 33.2636 38.8375 35.6705 38.2725 38.0995C37.9545 38.8775 38.1265 40.0585 37.2415 40.4235C36.2225 40.2985 35.2346 39.9505 34.2286 39.7335C33.4496 39.4155 32.2686 39.5875 31.9036 38.7025C32.3836 36.2255 33.1056 33.7836 33.6796 31.3196C33.9896 30.5816 33.8086 29.4206 34.6836 29.1016ZM11.0679 34.8586C13.6798 34.8176 16.3088 36.6525 16.7228 39.3175C19.3108 38.4005 22.6737 38.9345 24.3337 41.2785C25.6707 40.2455 27.8847 40.5465 28.7676 42.0305C29.8326 40.3825 32.5446 40.3345 33.6906 41.9175C35.2026 40.0365 38.9705 41.0135 38.8475 43.5955H8.3379C6.94421 43.9054 5.90513 43.0865 5.60343 41.6405C4.33985 38.2315 7.6246 34.6626 11.0679 34.8586Z" fill="#333333"/>
</svg>
