<svg width="48" height="48" viewBox="0 0 48 48" fill="none" xmlns="http://www.w3.org/2000/svg">
<path d="M16.8367 22.6545C16.6223 23.4547 15.7998 23.9296 14.9996 23.7152C14.1994 23.5008 13.7245 22.6783 13.9389 21.8781C14.1534 21.0779 14.9759 20.603 15.7761 20.8174C16.5763 21.0318 17.0511 21.8543 16.8367 22.6545Z" fill="#333333"/>
<path d="M32.3863 28.3739C33.1865 28.5884 34.009 28.1135 34.2234 27.3133C34.4378 26.5131 33.9629 25.6906 33.1627 25.4762C32.3625 25.2618 31.54 25.7366 31.3256 26.5368C31.1112 27.337 31.5861 28.1595 32.3863 28.3739Z" fill="#333333"/>
<path fill-rule="evenodd" clip-rule="evenodd" d="M13.2065 14.9525L14.6553 15.3407L14.5227 15.8357L12.8381 17.0387C12.2718 17.4431 11.8638 18.0316 11.6837 18.7037L10.3941 23.5164C10.0418 24.8314 10.6201 26.1765 11.7253 26.8523L10.8207 30.2286C10.6777 30.7621 10.9943 31.3104 11.5278 31.4533L15.3915 32.4886C15.9249 32.6316 16.4733 32.315 16.6162 31.7815L17.4892 28.5234L27.0043 31.073C27.0047 31.0731 27.0052 31.0732 27.0056 31.0733L28.3015 31.4206L27.4285 34.6787C27.2856 35.2121 27.6022 35.7605 28.1356 35.9034L31.9993 36.9387C32.5328 37.0816 33.0812 36.765 33.2241 36.2316L34.1791 32.6676C35.2557 32.446 36.1702 31.6386 36.4741 30.5046L37.7942 25.5779C37.946 25.0112 37.9284 24.4125 37.7435 23.8557L37.0264 21.697C36.982 21.5635 36.9287 21.4343 36.8672 21.3102L36.8716 21.2936L38.3205 21.6818C39.3875 21.9677 40.4841 21.3345 40.77 20.2676L41.6759 16.8869C41.9618 15.8199 41.3286 14.7233 40.2617 14.4374L38.7727 14.0384C38.91 12.6063 37.9979 11.2426 36.562 10.8579L20.1413 6.45795C18.7055 6.07321 17.2337 6.79814 16.6366 8.10704L15.1476 7.70808C14.0807 7.42219 12.984 8.05536 12.6981 9.12229L11.7922 12.503C11.5064 13.57 12.1395 14.6666 13.2065 14.9525ZM14.63 9.63993L16.0788 10.0282L15.173 13.4089L13.7241 13.0207L14.63 9.63993ZM28.4879 29.3999L33.3175 30.694C33.851 30.837 34.3993 30.5204 34.5423 29.9869L35.8624 25.0603C35.913 24.8714 35.9071 24.6718 35.8454 24.4862L35.1284 22.3275C35.0224 22.0084 34.763 21.7639 34.4382 21.6768L16.9671 16.9955C16.6785 16.9181 16.3704 16.9739 16.1272 17.1476L14.0003 18.6663C13.8116 18.8011 13.6756 18.9973 13.6155 19.2213L12.326 24.0341C12.183 24.5675 12.4996 25.1159 13.0331 25.2588L17.8627 26.5529L19.1568 21.7233C19.2997 21.1898 19.8481 20.8732 20.3815 21.0162L29.0749 23.3456C29.6083 23.4885 29.9249 24.0368 29.782 24.5703L28.4879 29.3999ZM19.7946 27.0706L22.2094 27.7176L22.8777 25.2232C23.0207 24.6897 23.569 24.3732 24.1025 24.5161C24.636 24.659 24.9525 25.2074 24.8096 25.7408L24.1412 28.2352L26.556 28.8823L27.5913 25.0186L20.8298 23.2069L19.7946 27.0706ZM38.2951 15.981L39.744 16.3692L38.8382 19.75L37.3893 19.3617L38.2951 15.981ZM36.7515 14.0145C36.8945 13.481 36.5779 12.9327 36.0444 12.7897L19.6237 8.3898C19.0904 8.24692 18.5423 8.56318 18.3991 9.09624L16.846 14.8925L35.1986 19.81L36.7515 14.0145Z" fill="#333333"/>
<path d="M11 34.0002C9.67392 34.0002 8.40215 34.527 7.46447 35.4647C6.52678 36.4024 6 37.6741 6 39.0002V41.0002C6 41.5525 6.44772 42.0002 7 42.0002C7.55228 42.0002 8 41.5525 8 41.0002V39.0002C8 38.2046 8.31607 37.4415 8.87868 36.8789C9.44129 36.3163 10.2044 36.0002 11 36.0002C11.7957 36.0002 12.5587 36.3163 13.1213 36.8789C13.6839 37.4415 14 38.2046 14 39.0002V40.0002C14 40.5525 14.4477 41.0002 15 41.0002C15.5523 41.0002 16 40.5525 16 40.0002C16 39.4698 16.2107 38.9611 16.5858 38.586C16.9609 38.2109 17.4696 38.0002 18 38.0002C18.5304 38.0002 19.0391 38.2109 19.4142 38.586C19.7893 38.9611 20 39.4698 20 40.0002C20 40.5525 20.4477 41.0002 21 41.0002C21.5523 41.0002 22 40.5525 22 40.0002C22 39.735 22.1054 39.4807 22.2929 39.2931C22.4804 39.1056 22.7348 39.0002 23 39.0002C23.2652 39.0002 23.5196 39.1056 23.7071 39.2931C23.8946 39.4807 24 39.735 24 40.0002V41.0002C24 41.5525 24.4477 42.0002 25 42.0002C25.0863 42.0002 25.1701 41.9893 25.25 41.9687C25.3299 41.9893 25.4137 42.0002 25.5 42.0002H34.5C35.0523 42.0002 35.5 41.5525 35.5 41.0002C35.5 40.4479 35.0523 40.0002 34.5 40.0002H26C26 39.2046 25.6839 38.4415 25.1213 37.8789C24.5587 37.3163 23.7957 37.0002 23 37.0002C22.3472 37.0002 21.7162 37.213 21.2 37.6002C21.0871 37.4497 20.9631 37.3064 20.8284 37.1718C20.0783 36.4217 19.0609 36.0002 18 36.0002C17.0954 36.0002 16.2224 36.3067 15.5197 36.862C15.2766 36.348 14.9453 35.8745 14.5355 35.4647C13.5979 34.527 12.3261 34.0002 11 34.0002Z" fill="#333333"/>
</svg>
