<svg width="48" height="48" viewBox="0 0 48 48" fill="none" xmlns="http://www.w3.org/2000/svg">
<path d="M24.0656 4.40601C22.2496 4.27071 20.8416 5.8593 20.6556 7.56617C20.3806 8.67386 20.1066 9.78075 19.8316 10.8887C18.4907 11.0657 19.7196 9.43015 18.4257 9.33955C17.5737 8.90776 16.5447 9.20895 16.5527 10.2867C16.1337 11.1577 16.3247 12.2677 17.4747 12.2577C18.6137 12.9967 18.5747 11.0857 19.3317 11.3807C20.0776 11.4747 19.2547 12.5147 19.2986 13.0307C18.2287 13.3727 16.2727 13.8877 15.9957 15.5327C14.1387 15.1897 12.4527 16.7347 12.2707 18.5366C11.7197 20.1336 12.6617 22.0346 14.2787 22.5406C13.8677 23.7506 15.3647 23.4796 16.0757 23.8066C16.9107 24.1006 17.9307 24.0596 18.6067 24.6516C19.1177 25.2196 17.8007 26.4945 18.7927 26.5735C19.3506 26.7895 20.4866 26.6575 19.9526 27.5305C19.8016 28.2985 19.1407 29.5985 20.3566 29.7965L30.2005 32.2415C31.3285 32.3135 31.1605 30.8875 31.4645 30.1385C31.5405 29.3365 32.6015 30.1725 33.1385 30.1365C33.8005 30.0365 33.2955 28.0765 34.5365 28.3925C35.7804 28.7005 37.0234 29.0095 38.2674 29.3175C39.0224 28.1195 41.6204 28.8505 42.1384 26.8415C42.7824 25.3175 42.9774 23.2836 41.4894 22.1656C39.7144 21.6306 40.9304 18.8756 38.8494 18.1876C38.5424 17.9156 38.8554 16.4137 39.2724 16.3337C40.3934 16.2667 39.0734 18.0676 40.5344 17.9836C41.4294 18.4636 42.3294 17.9246 42.3294 16.9057C42.8044 15.9897 42.3664 15.0087 41.2764 15.0137C40.1314 14.3457 40.3184 16.3807 39.3454 15.7337C39.0944 15.3397 39.6094 14.4837 39.6494 13.9137C39.9924 12.2957 40.8754 10.4597 39.6834 8.96856C38.5524 7.51217 36.5594 7.57297 34.9425 7.04078C31.4225 6.17779 27.9125 5.2718 24.3866 4.43531L24.0656 4.40601ZM23.8336 4.91001C23.9736 4.90701 24.1136 4.91401 24.2536 4.93141L37.6754 8.23217C38.9284 8.53656 40.2294 9.52755 39.5914 12.1187L38.1494 17.8996L37.8824 17.8236L39.3414 12.0677C39.5924 10.5887 39.3844 9.35895 37.9154 8.81226L24.2046 5.4334C23.1356 5.323 22.3376 5.7832 21.8436 6.88068L20.1736 13.4357L19.7986 13.1517L21.3296 6.86498C21.5326 6.38579 21.7126 5.90489 22.3156 5.4686L22.5776 5.283C22.9966 5.02641 23.4146 4.91871 23.8336 4.91001ZM24.0716 5.92949C28.5995 6.96618 33.0965 8.15867 37.6124 9.25565C39.2154 9.62265 39.0934 11.4017 38.6494 12.6087C38.2274 14.3077 37.8044 16.0047 37.3824 17.7026L20.6876 13.5587C21.2476 11.3747 21.7376 9.17165 22.3436 7.00178C22.6316 6.33479 23.3466 5.89029 24.0716 5.92949ZM23.8316 12.2027V12.2047C23.7036 12.5927 24.9536 12.5697 25.3606 12.7767C26.1526 12.7467 26.4296 13.3137 26.6106 13.9877C26.8866 14.2417 26.3906 14.8017 26.9376 14.8747C27.3655 14.9087 27.3455 14.1977 26.9216 14.2557C26.7706 13.7317 25.9996 12.6707 27.0606 13.1987C27.3895 13.3427 28.9305 13.6327 27.9625 13.2317C26.5856 12.8887 25.2086 12.5457 23.8316 12.2027ZM19.4056 13.5737C19.6726 13.5677 20.0166 13.6927 20.5406 14.0527L37.2494 18.1986C37.7464 18.2076 38.2244 18.2576 38.5364 18.6556C39.8844 19.1336 39.6694 20.6776 40.1964 21.7146C38.5904 21.2306 37.5804 21.9986 35.8434 21.5936L20.3746 17.6876C18.7167 17.3417 17.8097 16.2417 16.4957 15.6537C16.7177 14.4577 18.5017 13.6537 19.1617 13.6187C19.2377 13.5927 19.3166 13.5757 19.4056 13.5737ZM30.6985 13.9117C30.5795 14.2947 31.8235 14.2757 32.2295 14.4817C33.0225 14.4517 33.2975 15.0197 33.4785 15.6947C33.7515 15.9487 33.2595 16.5077 33.8065 16.5797C34.2355 16.6137 34.2135 15.9017 33.7885 15.9607C33.6375 15.4367 32.8695 14.3757 33.9295 14.9037C34.2595 15.0487 35.8004 15.3367 34.8315 14.9377C33.4535 14.5947 32.0765 14.2537 30.6985 13.9117ZM15.5977 16.7947C17.5907 16.6357 18.8257 19.3406 17.3947 20.7396C16.1007 22.3106 13.2557 21.2436 13.3107 19.2106C13.2507 17.9456 14.3297 16.8027 15.5977 16.7947ZM21.1166 18.8066C21.1746 18.7956 21.2356 18.7966 21.2966 18.8116C22.0976 19.3766 21.3286 20.4386 21.2636 21.2206C20.9126 22.5246 20.6646 23.8636 20.2456 25.1456C19.0107 26.1275 19.2776 24.0556 19.6016 23.3566C19.9786 21.9476 20.2536 20.5036 20.6986 19.1166C20.7876 18.9676 20.9426 18.8366 21.1166 18.8066ZM22.7416 19.2106C22.7996 19.2006 22.8606 19.2006 22.9216 19.2166C23.7226 19.7816 22.9536 20.8426 22.8886 21.6246C22.5376 22.9286 22.2886 24.2666 21.8706 25.5485C20.6366 26.5295 20.9046 24.4596 21.2286 23.7616C21.6056 22.3526 21.8816 20.9076 22.3256 19.5206C22.4136 19.3716 22.5676 19.2416 22.7416 19.2106ZM24.3686 19.6146C24.4266 19.6046 24.4876 19.6056 24.5486 19.6206C25.3496 20.1846 24.5806 21.2476 24.5156 22.0286C24.1646 23.3326 23.9146 24.6706 23.4956 25.9525C22.2606 26.9345 22.5296 24.8626 22.8536 24.1636C23.2306 22.7546 23.5056 21.3116 23.9506 19.9256C24.0396 19.7766 24.1946 19.6456 24.3686 19.6146ZM25.9916 20.0196C26.0496 20.0086 26.1106 20.0096 26.1716 20.0246C26.9726 20.5896 26.2036 21.6496 26.1386 22.4316C25.7876 23.7356 25.5386 25.0726 25.1206 26.3545C23.8866 27.3365 24.1546 25.2666 24.4786 24.5676C24.8556 23.1586 25.1296 21.7166 25.5736 20.3296C25.6626 20.1806 25.8176 20.0496 25.9916 20.0196ZM27.6185 20.4216C27.6765 20.4116 27.7355 20.4116 27.7965 20.4276C28.5975 20.9916 27.8305 22.0546 27.7655 22.8356C27.4145 24.1396 27.1646 25.4775 26.7456 26.7595C25.5106 27.7415 25.7796 25.6705 26.1036 24.9726C26.4806 23.5636 26.7556 22.1186 27.2006 20.7316C27.2896 20.5826 27.4445 20.4516 27.6185 20.4216ZM29.2435 20.8256C29.3015 20.8156 29.3605 20.8166 29.4215 20.8316C30.2225 21.3956 29.4555 22.4586 29.3905 23.2396C29.0395 24.5436 28.7885 25.8815 28.3705 27.1635C27.1366 28.1475 27.4045 26.0735 27.7285 25.3746C28.1055 23.9656 28.3805 22.5226 28.8255 21.1366C28.9145 20.9876 29.0695 20.8566 29.2435 20.8256ZM30.8665 21.2286C30.9245 21.2176 30.9855 21.2186 31.0465 21.2336V21.2356C31.8475 21.8006 31.0785 22.8606 31.0135 23.6426C30.6625 24.9466 30.4135 26.2835 29.9955 27.5655C28.7625 28.5495 29.0305 26.4765 29.3535 25.7785C29.7305 24.3696 30.0065 22.9266 30.4505 21.5386C30.5385 21.3896 30.6925 21.2586 30.8665 21.2286ZM32.4935 21.6326C32.5515 21.6226 32.6105 21.6226 32.6715 21.6386C33.4725 22.2026 32.7055 23.2656 32.6405 24.0466C32.2895 25.3506 32.0385 26.6885 31.6205 27.9705C30.3865 28.9545 30.6545 26.8815 30.9785 26.1835C31.3555 24.7736 31.6285 23.3306 32.0735 21.9426C32.1625 21.7936 32.3195 21.6626 32.4935 21.6326ZM34.1185 22.0366C34.1765 22.0266 34.2355 22.0276 34.2965 22.0426C35.0975 22.6066 34.3305 23.6676 34.2655 24.4486C33.9145 25.7535 33.6645 27.0925 33.2455 28.3745C32.0105 29.3565 32.2795 27.2865 32.6035 26.5875C32.9805 25.1786 33.2565 23.7346 33.7005 22.3476C33.7885 22.1986 33.9445 22.0676 34.1185 22.0366ZM39.1654 22.6476C41.1594 22.4856 42.3914 25.1936 40.9604 26.5915C39.6664 28.1625 36.8214 27.0965 36.8764 25.0636C36.8164 23.7996 37.8994 22.6556 39.1654 22.6476ZM12.5487 23.6036C11.6737 23.9226 11.8547 25.0846 11.5447 25.8235C10.9708 28.2875 10.2498 30.7275 9.76927 33.2045C10.1338 34.0894 11.3157 33.9194 12.0937 34.2374C13.0997 34.4544 14.0877 34.8024 15.1067 34.9274C15.9917 34.5624 15.8197 33.3795 16.1387 32.6015C16.7037 30.1725 17.4167 27.7655 17.8887 25.3236C17.5227 24.4406 16.3397 24.6136 15.5617 24.2946C14.5577 24.0776 13.5637 23.7286 12.5487 23.6036ZM12.7967 24.1556L17.0177 25.1796C17.1577 25.2276 17.3177 25.2436 17.3177 25.5325L15.3237 33.8564C15.2327 34.1384 15.1547 34.4364 14.7337 34.3314L10.6068 33.3535C10.4648 33.2935 10.3368 33.2185 10.3398 32.9995L12.3787 24.5196C12.4427 24.3086 12.5267 24.1206 12.7967 24.1556ZM34.6835 29.1015C33.8085 29.4205 33.9895 30.5815 33.6795 31.3195C33.1055 33.7834 32.3835 36.2254 31.9035 38.7024C32.2685 39.5874 33.4495 39.4154 34.2285 39.7334C35.2344 39.9504 36.2224 40.2984 37.2414 40.4234C38.1264 40.0584 37.9544 38.8774 38.2724 38.0994C38.8374 35.6704 39.5514 33.2635 40.0224 30.8215C39.6574 29.9385 38.4744 30.1095 37.6964 29.7905C36.6924 29.5735 35.6984 29.2265 34.6835 29.1015ZM34.9315 29.6535L39.1514 30.6755C39.2904 30.7355 39.4434 30.7715 39.4544 31.0305L37.3474 39.6534C37.3204 39.8324 37.2504 39.8604 37.1834 39.8974L32.7415 38.8514C32.5525 38.7814 32.4245 38.6814 32.4745 38.4974L34.5155 30.0175C34.5655 29.7765 34.7035 29.6555 34.9315 29.6535ZM11.0678 34.8584C7.6245 34.6624 4.33974 38.2314 5.60332 41.6403C5.90502 43.0863 6.9441 43.9053 8.33769 43.5953H38.8473C38.9703 41.0134 35.2023 40.0364 33.6904 41.9173C32.5444 40.3344 29.8324 40.3824 28.7674 42.0303C27.8844 40.5464 25.6705 40.2454 24.3335 41.2784C22.6735 38.9344 19.3105 38.4004 16.7226 39.3174C16.3086 36.6524 13.6796 34.8174 11.0677 34.8584H11.0678ZM10.2678 35.3454C10.5298 35.3274 10.7978 35.3344 11.0678 35.3724C14.5787 35.5734 15.6177 37.3544 16.2167 39.4194C16.3107 39.9674 16.6147 39.8144 16.8767 39.8044C19.1137 39.3764 21.3426 38.8604 23.9236 41.5873C24.1666 41.9193 24.3966 41.8493 24.6246 41.7003C26.2166 40.7834 27.3975 41.1794 28.3435 42.3213C28.6875 42.6913 28.9355 42.5333 29.1775 42.3413C29.9645 41.0504 32.2395 40.7424 33.3045 42.2553C33.5665 42.5343 33.8155 42.4973 34.0565 42.2673C36.0104 40.4014 38.0824 42.0783 38.3084 43.0813H8.33779C5.86232 43.4243 5.26073 40.2644 6.19121 38.2474C6.82601 36.8714 8.42788 35.4714 10.2678 35.3454Z" fill="#333333"/>
</svg>
