<?xml version="1.0" encoding="UTF-8" standalone="no"?>
<!-- Created with Inkscape (http://www.inkscape.org/) -->
<svg id="svg8" xmlns:rdf="http://www.w3.org/1999/02/22-rdf-syntax-ns#" xmlns="http://www.w3.org/2000/svg" xmlns:osb="http://www.openswatchbook.org/uri/2009/osb" height="48" width="48" version="1.1" xmlns:cc="http://creativecommons.org/ns#" viewBox="0 0 12.7 12.7" xmlns:dc="http://purl.org/dc/elements/1.1/">
 <title id="title4753">UIO-icon</title>
 <metadata id="metadata5">
  <rdf:RDF>
   <cc:Work rdf:about="">
    <dc:format>image/svg+xml</dc:format>
    <dc:type rdf:resource="http://purl.org/dc/dcmitype/StillImage"/>
    <dc:title>UIO-icon</dc:title>
    <dc:creator>
     <cc:Agent>
      <dc:title>Joaquín Urbano</dc:title>
     </cc:Agent>
    </dc:creator>
    <dc:rights>
     <cc:Agent>
      <dc:title>GPL</dc:title>
     </cc:Agent>
    </dc:rights>
   </cc:Work>
  </rdf:RDF>
 </metadata>
 <g id="layer1" transform="translate(0,-284.3)" fill="#333">
  <path id="path1933" d="m25.105 4.4043c-0.512-0.0113-1.14-0.0076-1.931 0.0019-2.848 0.039-2.849 0.0382-3.504 0.3594-1.173 0.5763-2.311 2.0905-2.805 3.7324-0.091 0.3039-0.156 0.5611-0.142 0.5762 2.249 0.5602 4.334 0.8222 6.976 0.8008 3.172-0.0404 4.178-0.1969 5.932-0.5957l0.767-0.1738-0.113-0.4278c-0.352-1.3149-1.422-2.8846-2.447-3.5898-0.701-0.483-1.195-0.6487-2.733-0.6836zm-8.535 5.2734-0.39 1.1033c4.8239 1.1594 9.6997 1.2973 14.648 0l-0.28125-1.0254c-2.6955 0.64142-4.9582 0.70177-6.9688 0.6875-2.2733-0.016131-4.2676-0.1842-7.0078-0.76563zm14.326 1.6033c-2.6243 0.82422-5.4177 0.94836-7.3691 0.95312-3.0232 0.004826-5.0427-0.28721-7.5879-0.92578l-2.0762 0.24023c-2.3215 0.26759-3.581 0.49689-3.8203 0.69531-0.23484 0.19502-0.19578 0.49306 0.099609 0.76367 2.4974 1.1126 4.4187 1.6174 6.3984 1.8887l-0.004 4.979c-0.00161 2.0844 0.5155 4.1544 1.9922 5.084 2.09 1.3157 3.1271 2.1809 4.9668 2.2383 1.2599 0.00378 2.871-1.135 4.6094-2.2227 1.5631-0.97807 2.3613-3.0259 2.3613-5.0996-0.011045-1.6089-0.015711-3.4417-0.03125-5.0625 1.8005-0.25982 3.5598-0.65022 5.6973-1.3359 0.87128-0.43499 1.1978-0.91966 0.82812-1.2266-0.25894-0.21506-1.5416-0.45374-3.8496-0.7168zm-1.0156 3.6133c0.016706 1.5526 0.056981 3.1232 0.066406 4.6758 0 1.8753-0.63337 4.0318-2.0469 4.916-1.572 0.98366-3.2259 2.1971-4.3652 2.1934-1.6637-0.047622-2.9459-1.0229-4.8359-2.2129-1.334-0.84-1.664-2.987-1.659-4.872l0.011719-4.6309c1.1487 0.13419 2.3319 0.20417 3.6777 0.26758 2.6738 0.12246 2.7514 0.12208 5.3652 0 1.3152-0.063362 2.4694-0.17031 3.5938-0.30859l0.019531-0.003906c0.058426-0.00722 0.1156-0.015966 0.17383-0.023438zm-9.3887 1.0449c-0.43898 0.00011339-0.79482 0.356-0.79492 0.79492 0.00009828 0.43895 0.35596 0.79481 0.79492 0.79492 0.43898-0.00011339 0.79482-0.35604 0.79492-0.79492-0.00009828-0.43899-0.35596-0.79481-0.79492-0.79492zm5.9688 0c-0.43898 0.00011339-0.79483 0.356-0.79492 0.79492 0.0000945 0.43895 0.35592 0.79481 0.79492 0.79492 0.43898-0.00011339 0.79482-0.35604 0.79492-0.79492-0.00009828-0.43899-0.35596-0.79481-0.79492-0.79492zm-3.034 3.67c-0.37814 0.00378-0.67004 0.070579-0.66602 0.14844 0.001999 0.080882 0.32239 0.14686 0.7168 0.14648 0.39441 0.0000377 0.71477-0.065602 0.7168-0.14648 0.003201-0.082016-0.31865-0.14844-0.7168-0.14844-0.017008-0.00011339-0.034-0.00011339-0.050781 0zm2.9551 2.2617c-0.00007561 0.00041575-0.011341 0.001424-0.011719 0.001953 0.00011717 0.00037786 0.011719-0.00041575 0.011719 0zm-0.011719 0.001953c-0.015874-0.053669-1.2268 0.071172-2.7285 0.2832-0.064441 0.007559-0.12896 0.019785-0.19336 0.027344-1.4369 0.2075-2.5416 0.40995-2.5215 0.46094 0.026079 0.052158 1.2485-0.077409 2.7422-0.28906 1.4821-0.21014 2.6733-0.42369 2.7012-0.48242zm3.9434 5.5605c-1.5652 1.4702-4.7177 2.8115-6.8027 2.8438-2.5629-0.002872-5.0208-1.0188-6.8379-2.8262l-0.10938 0.029297c-0.87529 0.31559-1.7272 0.6743-2.582 1.0449v8.9727h-2.652v-7.825c-0.972 0.416-1.9725 0.83-3.0682 1.211-2.5451 0.749-2.545 2.867-2.545 4.019v6.6621h5.6132v-1.791h2.6523v1.791h18.736v-1.791h2.6523v1.791h5.918v-6.6621c0-1.1525 0.00016284-3.2682-2.5449-4.0195-1.2109-0.42077-2.3081-0.88043-3.373-1.3418v7.9551h-2.651v-9.105c-0.795-0.341-1.588-0.669-2.405-0.959z" transform="matrix(.26458 0 0 .26458 0 284.3)"/>
 </g>
</svg>
