<svg width="48" height="48" viewBox="0 0 48 48" fill="none" xmlns="http://www.w3.org/2000/svg">
<path fill-rule="evenodd" clip-rule="evenodd" d="M14.4733 7.97339C13.0142 7.97499 11.6886 8.82178 11.0723 10.1442C9.47368 10.2157 8.51664 10.3343 8.51254 10.4614C8.51099 10.5893 9.47404 10.7071 11.0833 10.7786C11.0029 11.0793 10.96 11.3915 10.9592 11.7027C10.9594 13.6932 12.5737 15.3058 14.5644 15.3051C16.5544 15.3049 18.1694 13.6926 18.1695 11.7027C18.1687 11.3847 18.1244 11.0658 18.0399 10.7593C19.4145 10.6861 20.2085 10.5778 20.2052 10.4614C20.2003 10.3411 19.3407 10.2277 17.8799 10.1552C17.2661 8.82682 15.9366 7.97519 14.4733 7.97339ZM33.5805 7.97339C32.1172 7.97519 30.7877 8.82682 30.1739 10.1552C28.7131 10.2277 27.8536 10.3411 27.8486 10.4614C27.8454 10.5778 28.642 10.6861 30.0167 10.7593C29.9321 11.0658 29.8879 11.3847 29.887 11.7027C29.8872 13.6926 31.4995 15.3049 33.4895 15.3051C35.4801 15.3058 37.0944 13.6932 37.0946 11.7027C37.0938 11.3915 37.0537 11.0793 36.9733 10.7786C38.5825 10.7071 39.5456 10.5893 39.544 10.4614C39.5399 10.3343 38.5801 10.2157 36.9815 10.1442C36.3652 8.82178 35.0397 7.97494 33.5805 7.97339ZM17.4524 10.7869H17.4552C17.5504 11.0827 17.5999 11.392 17.6014 11.7027C17.601 13.3783 16.2429 14.7365 14.5672 14.7369C12.8903 14.7382 11.5278 13.3796 11.5275 11.7027C11.5275 11.3978 11.575 11.0947 11.6654 10.8035C12.4976 10.832 13.4196 10.8448 14.3575 10.8448C15.4532 10.8445 16.5259 10.8254 17.4524 10.7869ZM30.6015 10.7869C31.528 10.8254 32.6007 10.8445 33.6963 10.8448C34.6343 10.8448 35.5591 10.832 36.3912 10.8035C36.4816 11.0947 36.5264 11.3978 36.5264 11.7027C36.5261 13.3796 35.1664 14.7382 33.4895 14.7369C31.8138 14.7365 30.4556 13.3783 30.4553 11.7027C30.4567 11.392 30.5062 11.0827 30.6015 10.7869ZM14.9147 16.1905L14.2058 16.1933L10.9261 16.1961V16.2016C10.3364 16.2134 9.7719 16.538 9.49451 17.1064L7.22163 21.7653V17.0899H8.68631V16.3175H4.98184V17.0899H6.44929V23.3458L5.51144 25.2656C5.11727 26.0735 5.45117 27.0423 6.25896 27.4365C6.32068 27.4665 6.38609 27.4838 6.44929 27.5054V33.0856H5.92796V33.7779H5.33767C4.63795 33.7779 4.07434 34.3415 4.07434 35.0413V40.8697H4.33914V35.3171C4.33914 34.6435 4.8792 34.1034 5.55282 34.1034H5.91141V40.8807H6.32516V34.1034H7.61607V40.8807H8.03258V34.1034H8.09602C8.76956 34.1034 9.31246 34.6435 9.31246 35.3171V40.8697H9.59381V35.0413C9.59381 34.3415 9.0302 33.7779 8.33048 33.7779H7.7402V33.0855H7.22163V27.5798C7.72668 27.5011 8.18451 27.1857 8.42703 26.6888L10.9261 21.5721V39.2559C10.9261 40.1548 11.6464 40.8778 12.5453 40.8778C13.4442 40.8778 14.1699 40.1548 14.1699 39.2559V29.7148H14.9505V39.2559C14.9505 40.1548 15.6763 40.8778 16.5752 40.8778C17.474 40.8778 18.1971 40.1548 18.1971 39.2559V21.5583L20.7017 26.6916C21.096 27.4994 22.062 27.8304 22.8698 27.4364C23.6776 27.0421 24.0116 26.0733 23.6173 25.2655L19.6342 17.1063C19.3558 16.5356 18.7895 16.2065 18.1971 16.1988V16.1905H14.9147ZM29.8567 16.1905V16.1988C29.2643 16.2066 28.7008 16.5356 28.4224 17.1063L24.4393 25.2655C24.045 26.0734 24.3762 27.0421 25.184 27.4364C25.9918 27.8305 26.9606 27.4994 27.3549 26.6916L29.8567 21.5584V39.256C29.8567 40.1549 30.5798 40.8779 31.4786 40.8779C32.3775 40.8779 33.1033 40.1549 33.1033 39.256V29.7148H33.8867V39.2559C33.8867 40.1548 34.6097 40.8778 35.5086 40.8778C36.4075 40.8778 37.1277 40.1548 37.1277 39.2559V21.5721L39.6268 26.6888C39.8693 27.1857 40.3272 27.5011 40.8322 27.5798V33.0855H40.3136V33.7778H39.7233C39.0236 33.7778 38.46 34.3414 38.46 35.0411V40.8695H38.7414V35.317C38.7414 34.6434 39.2843 34.1033 39.9578 34.1033H40.024V40.8806H40.4377V34.1033H41.7287V40.8806H42.1452V34.1033H42.501C43.1746 34.1033 43.7174 34.6434 43.7174 35.317V40.8695H43.9795V35.0411C43.9795 34.3414 43.4159 33.7778 42.7161 33.7778H42.1259V33.0855H41.6045V27.5053C41.6677 27.4837 41.7332 27.4664 41.7949 27.4364C42.6027 27.0422 42.9366 26.0733 42.5424 25.2655L41.6073 23.3457V17.0898H43.072V16.3174H39.3675V17.0898H40.835V21.7652L38.5593 17.1063C38.2819 16.538 37.7201 16.2133 37.1305 16.2016V16.1961L33.848 16.1933L33.1391 16.1905H29.8567Z" fill="#333333"/>
</svg>
