<svg width="48" height="48" viewBox="0 0 48 48" fill="none" xmlns="http://www.w3.org/2000/svg">
<path fill-rule="evenodd" clip-rule="evenodd" d="M17.6585 29.0081C17.3549 29.0256 17.1849 29.0697 17.1208 29.0989C16.4871 29.3877 14.4055 30.1431 13 30.6461L13 37.747C13.7206 37.7129 14.5308 37.6848 14.9859 37.7031C17.0075 37.7846 18.5351 38.2551 19.9627 38.7083C20.0046 38.7216 20.0465 38.7349 20.0883 38.7482C21.4666 39.1861 22.7528 39.5948 24.4446 39.7229C24.963 39.7622 25.4161 39.8083 25.8406 39.8515C26.366 39.9049 26.8478 39.9539 27.3557 39.9801C28.2155 40.0244 28.8757 39.9767 29.4099 39.7811C30.0696 39.5394 32.4501 38.426 34.8416 37.2131C36.0255 36.6127 37.1882 35.9999 38.1143 35.4746C38.578 35.2116 38.9733 34.9756 39.2786 34.7776C39.6062 34.5652 39.7637 34.4383 39.8074 34.3935C39.9855 34.2109 40.1121 33.7056 39.8793 33.2512C39.7168 32.934 39.2646 32.4699 37.9942 32.68C36.5246 32.9231 34.776 33.6398 33.0587 34.3443C32.2252 34.6862 31.3964 35.0253 30.6627 35.2703C29.9596 35.505 29.2036 35.7042 28.5545 35.6651C27.6146 35.6084 25.958 35.3601 24.5836 35.1362C23.8861 35.0225 23.2446 34.9123 22.7776 34.8305C22.5439 34.7896 22.3538 34.7558 22.2218 34.7322L22.0693 34.7047L22.0161 34.6951C22.016 34.6951 22.0151 34.6949 22.1944 33.7111L22.0151 34.6949L22.2065 32.7112L27.5685 32.7761C27.5727 32.7758 27.5798 32.7754 27.5896 32.7745C27.6255 32.7713 27.6982 32.762 27.8014 32.7352C28.0056 32.6822 28.3418 32.5578 28.7584 32.2602C28.9023 32.1574 29.0776 31.978 29.2372 31.7461C29.368 31.556 29.4645 31.3651 29.5215 31.2033C28.7223 31.1805 27.9383 31.0459 27.3531 30.9182C27.0277 30.8472 26.7538 30.7761 26.5597 30.7223C26.4625 30.6954 26.3848 30.6726 26.3302 30.6562C26.3128 30.651 26.2977 30.6464 26.2851 30.6425L19.7176 29.1692L19.7154 29.1688C19.7013 29.1663 19.6795 29.1625 19.6506 29.1576C19.5929 29.1479 19.5076 29.1342 19.4018 29.1188C19.1889 29.0878 18.8981 29.051 18.5835 29.0266C18.2657 29.0021 17.9421 28.9917 17.6585 29.0081ZM19.9162 28.1889L20.0995 27.2059L20.1174 27.2092L26.8062 28.7097L26.848 28.7231L26.8594 28.7267L26.9055 28.7408C26.9476 28.7534 27.0115 28.7721 27.0939 28.795C27.259 28.8407 27.4964 28.9024 27.7794 28.9641C28.3543 29.0896 29.0785 29.2066 29.7538 29.2066C30.3777 29.2066 31.0231 29.4392 31.3681 30.071C31.6644 30.6136 31.5954 31.2093 31.4845 31.6218C31.3464 32.1351 31.0604 32.6755 30.6968 33.1344C31.1875 32.9493 31.7239 32.7301 32.2997 32.4939C32.3405 32.4771 32.3816 32.4603 32.4228 32.4434C34.0458 31.7773 35.9703 30.9876 37.6678 30.7068C39.6075 30.386 41.0192 31.09 41.6593 32.3392C42.229 33.4512 42.0967 34.9105 41.2393 35.7898C41.0241 36.0105 40.6962 36.2421 40.3669 36.4556C40.0153 36.6837 39.5822 36.9413 39.101 37.2143C38.1372 37.7609 36.9441 38.3893 35.7462 38.9968C33.3742 40.1999 30.8878 41.3697 30.0977 41.6591C29.1821 41.9944 28.1986 42.0262 27.2528 41.9774C26.7376 41.9509 26.1391 41.8914 25.5442 41.8322C25.1144 41.7895 24.6866 41.747 24.2935 41.7172C22.3657 41.5712 20.8861 41.1006 19.5232 40.6672C19.4678 40.6496 19.4126 40.632 19.3575 40.6145C17.9499 40.1677 16.6404 39.7714 14.9054 39.7015C14.3148 39.6777 12.8477 39.7538 12.0584 39.8L11 39.8619L11 29.2355L11.6649 28.999C13.0204 28.5168 15.6479 27.5723 16.2913 27.279C16.6933 27.0958 17.1575 27.0337 17.5432 27.0114C17.9488 26.9879 18.3696 27.0041 18.7378 27.0326C19.1092 27.0614 19.4463 27.1042 19.6897 27.1396C19.8119 27.1574 19.9119 27.1735 19.9824 27.1854C20.0177 27.1913 20.0457 27.1962 20.0655 27.1997L20.089 27.2039L20.0959 27.2052L20.0995 27.2059C20.0997 27.2059 20.0995 27.2059 19.9162 28.1889Z" fill="#333333"/>
<path fill-rule="evenodd" clip-rule="evenodd" d="M31.6187 10.7772C30.2144 11.423 29.4584 11.9313 29.2313 12.1909C29.1589 12.2738 29.0182 12.5165 29.0452 13.1465C29.0718 13.7681 29.256 14.5288 29.5445 15.3325C29.8268 16.1192 30.1747 16.8539 30.4577 17.3993C30.4973 17.4756 30.5354 17.5477 30.5715 17.6152C30.6595 17.6412 30.7544 17.6687 30.8553 17.6973C31.4799 17.874 32.3152 18.0861 33.1861 18.2392C34.0753 18.3955 34.9087 18.4734 35.5597 18.4299C36.0208 18.399 36.2178 18.3197 36.2742 18.2949C36.3176 18.2247 36.4203 18.0447 36.5658 17.6949C36.7481 17.2563 36.9442 16.6837 37.1473 16.0007C37.5527 14.6375 37.9478 12.9654 38.2971 11.317C38.5369 10.1851 38.752 9.07989 38.9309 8.1169C38.0583 8.38532 37.067 8.70242 36.0492 9.05159C34.4974 9.58396 32.9199 10.1787 31.6187 10.7772ZM39.3243 5.90831C35.8781 6.9339 29.3026 9.07137 27.7258 10.8743C25.5634 13.347 29.22 19.2873 29.22 19.2873C29.22 19.2873 36.0271 21.6252 37.757 19.6471C39.0288 18.1929 40.428 11.1229 41.08 7.47988C41.3149 6.16744 41.4527 5.2998 41.4527 5.2998C41.4527 5.2998 40.6044 5.52735 39.3243 5.90831ZM30.9244 18.2408C30.9246 18.2412 30.9246 18.2411 30.9244 18.2408V18.2408Z" fill="#333333"/>
<path fill-rule="evenodd" clip-rule="evenodd" d="M20.1503 14.7839C20.1629 14.805 20.2277 14.9345 20.2121 15.3007C20.1927 15.7528 20.0561 16.3309 19.828 16.9665C19.606 17.5851 19.3311 18.1662 19.106 18.6C19.1003 18.611 19.0947 18.6218 19.089 18.6326C19.0644 18.6397 19.0392 18.6469 19.0135 18.6541C18.5135 18.7956 17.8478 18.9645 17.1566 19.086C16.4472 19.2108 15.8035 19.2687 15.3177 19.2361C15.1491 19.2249 15.037 19.2055 14.9677 19.1894C14.9327 19.1214 14.8831 19.0178 14.8212 18.869C14.68 18.5293 14.5249 18.0776 14.3618 17.5293C14.0366 16.4355 13.7179 15.0879 13.4349 13.7524C13.2898 13.0676 13.1559 12.3948 13.037 11.7729C13.5853 11.946 14.1737 12.138 14.7733 12.3436C16.0289 12.7744 17.2975 13.253 18.3386 13.7319C18.8594 13.9714 19.2936 14.1975 19.6278 14.4028C19.7935 14.5047 19.9208 14.593 20.0145 14.666C20.0607 14.7019 20.0947 14.7311 20.1187 14.7532C20.1306 14.7641 20.1392 14.7725 20.145 14.7784C20.1473 14.7807 20.149 14.7825 20.1503 14.7839ZM12.6343 9.55517C15.5157 10.4271 20.4361 12.0724 21.6586 13.4703C23.4159 15.4796 20.4444 20.3068 20.4444 20.3068C20.4444 20.3068 14.9129 22.2067 13.5071 20.5992C12.5196 19.4701 11.4376 14.1745 10.8811 11.123C10.6454 9.83037 10.5039 8.9404 10.5039 8.9404C10.5039 8.9404 11.3741 9.1738 12.6343 9.55517Z" fill="#333333"/>
<path fill-rule="evenodd" clip-rule="evenodd" d="M35.6508 11.2409C36.0701 11.6003 36.1187 12.2316 35.7593 12.6509C32.779 16.1279 29.0682 21.2252 27.4299 25.3679C27.2268 25.8815 26.6458 26.1332 26.1323 25.9301C25.6187 25.727 25.367 25.146 25.5701 24.6324C27.3334 20.1735 31.221 14.8723 34.2407 11.3493C34.6002 10.93 35.2315 10.8815 35.6508 11.2409Z" fill="#333333"/>
<path fill-rule="evenodd" clip-rule="evenodd" d="M15.8809 14.4482C15.4472 14.7901 15.3728 15.4189 15.7147 15.8526C17.9574 18.6974 20.4044 22.3391 21.5667 25.3591C21.7651 25.8745 22.3438 26.1315 22.8592 25.9331C23.3746 25.7348 23.6316 25.1561 23.4333 24.6407C22.1615 21.3363 19.5648 17.5058 17.2853 14.6144C16.9434 14.1807 16.3146 14.1063 15.8809 14.4482Z" fill="#333333"/>
<path fill-rule="evenodd" clip-rule="evenodd" d="M6 29.0008C6 27.8963 6.89543 27.0008 8 27.0008H11C12.1046 27.0008 13 27.8963 13 29.0008V39.9962C13 41.1007 12.1046 41.9962 11 41.9962H8C6.89543 41.9962 6 41.1007 6 39.9962V29.0008ZM8 29.0008V39.9962L11 39.9962V29.0008H8Z" fill="#333333"/>
</svg>
