<svg width="48" height="48" viewBox="0 0 48 48" fill="none" xmlns="http://www.w3.org/2000/svg">
<g clip-path="url(#clip0)">
<path fill-rule="evenodd" clip-rule="evenodd" d="M0.103516 0.03125V48.0312H48.1035V0.03125H0.103516ZM20.877 9.48242C21.5246 9.66837 22.3356 10.0872 23.1855 10.6699C25.7346 12.4198 28.6291 15.6576 28.4883 18.5781C28.3853 20.4505 26.1922 21.6626 24.4844 20.4883C24.5289 18.9909 24.66 17.6002 24.5312 15.8945C24.5021 14.5269 23.9279 13.5967 23.7754 13.082C24.4842 16.8156 24.0435 18.5045 24.4102 20.4492L24.3242 25.6895C24.0982 25.2863 23.8317 25.0039 23.4297 25.1094L23.9258 21.166C14.5733 22.834 23.5111 12.8286 20.877 9.48242ZM8.11719 15.8594C11.8895 15.8231 17.0489 17.0319 18.9531 20.0488C20.1625 21.9938 18.8159 24.741 16.2871 24.7637C15.283 23.2364 14.442 21.7529 13.1191 20.1387C12.1324 18.7925 10.9093 18.2669 10.3965 17.8594C13.719 21.0939 14.4594 23.0888 16.1875 24.7754L19.7715 30.0723C19.2633 29.8277 18.7984 29.732 18.4707 30.1191L16.207 25.832C8.02932 34.0473 9.95364 17.7903 4.97852 16.291C5.75588 16.0234 6.85973 15.8707 8.11719 15.8594ZM40.0918 15.9648C41.3492 15.9776 42.4512 16.1289 43.2285 16.3965C38.2534 17.8958 40.1797 34.1528 32.002 25.9375L29.7363 30.2246C29.4087 29.8376 28.9437 29.9328 28.4355 30.1777L32.0215 24.8809C33.7496 23.1942 34.49 21.1994 37.8125 17.9648C37.2997 18.3723 36.0746 18.8979 35.0879 20.2441C33.765 21.8584 32.924 23.3418 31.9199 24.8691C29.3912 24.8468 28.0465 22.0993 29.2559 20.1543C31.1601 17.1373 36.3194 15.927 40.0918 15.9648ZM35.9883 30.5605C37.3622 32.2471 34.3301 33.2165 33.0332 33.4375C33.3862 33.8389 35.651 33.8682 36.6699 33.4922C38.2855 33.0054 40.5403 30.8722 41.6016 31.9297C42.4569 33.2563 39.2045 34.4196 38.1387 35.3516C34.2604 37.9437 30.6949 34.8341 27.3809 38.5547H24.3633V38.5781H20.793C17.4789 34.8575 13.9134 37.9671 10.0352 35.375C8.9693 34.443 5.7169 33.2798 6.57227 31.9531C7.63355 30.8956 9.88835 33.0288 11.5039 33.5156C12.5229 33.8915 14.7876 33.8623 15.1406 33.4609C13.8434 33.2398 10.8089 32.2694 12.1855 30.582C14.2939 30.6512 16.3503 31.3219 18.4766 31.3105C21.5267 30.8776 22.9581 34.1799 23.8262 34.9141C23.8355 34.9254 23.846 34.928 23.8555 34.9355C23.9055 34.9749 23.9535 35.0045 24 35.0234C24.8313 35.1911 26.2037 30.7931 29.6973 31.2891C31.8235 31.3015 33.88 30.6297 35.9883 30.5605Z" fill="#333333"/>
</g>
<defs>
<clipPath id="clip0">
<rect width="48" height="48" fill="white"/>
</clipPath>
</defs>
</svg>
