<svg width="48" height="48" viewBox="0 0 48 48" fill="none" xmlns="http://www.w3.org/2000/svg">
<path d="M6 30.0005C6 29.4482 6.44772 29.0005 7 29.0005H10C10.5523 29.0005 11 29.4482 11 30.0005V40.9958C11 41.5481 10.5523 41.9958 10 41.9958H7C6.44772 41.9958 6 41.5481 6 40.9958V30.0005Z" fill="#333333"/>
<path d="M20.9148 29.1888C20.9148 29.1888 18.6371 28.764 17.7052 29.1888C17.0113 29.5051 14.3259 30.4693 13 30.941L13 39.8015C13.7674 39.7566 15.2933 39.6759 15.9451 39.7022C19.701 39.8535 21.6183 41.4359 25.3668 41.7199C27.4636 41.8788 29.3011 42.2509 30.7506 41.7199C32.2001 41.1889 40.4829 37.1535 41.5182 36.0915C42.5536 35.0296 42.0359 32.1623 38.8263 32.6933C35.6168 33.2242 31.3718 35.773 29.6117 35.6668C27.8517 35.5606 23.1926 34.711 23.1926 34.711L28.542 34.7757C28.542 34.7757 29.2977 34.8159 30.3365 34.0738C31.3753 33.3318 32.3037 31.2065 30.7506 31.2065C29.1976 31.2065 27.541 30.6755 27.541 30.6755L20.9148 29.1888Z" fill="#333333"/>
<path fill-rule="evenodd" clip-rule="evenodd" d="M19.1761 21.6474C18.7053 21.9361 18.5576 22.5518 18.8462 23.0226C19.7647 24.521 20.5471 26.0084 21.067 27.3592C21.2654 27.8746 21.844 28.1316 22.3595 27.9332C22.8749 27.7349 23.1319 27.1562 22.9335 26.6408C22.3547 25.137 21.5068 23.536 20.5513 21.9774C20.2627 21.5065 19.647 21.3588 19.1761 21.6474Z" fill="#333333"/>
<path fill-rule="evenodd" clip-rule="evenodd" d="M29.5903 20.6926C30.0362 21.0185 30.1335 21.6442 29.8076 22.09C28.6506 23.6732 27.6313 25.79 26.9143 27.4056C26.6903 27.9104 26.0994 28.138 25.5946 27.914C25.0898 27.69 24.8622 27.0991 25.0862 26.5943C25.8098 24.964 26.9006 22.6781 28.1929 20.9099C28.5188 20.464 29.1444 20.3667 29.5903 20.6926Z" fill="#333333"/>
<path fill-rule="evenodd" clip-rule="evenodd" d="M42.1053 6C42.1053 6 29.5818 9.35911 27.24 12.0368C25.3882 14.1543 27.4768 18.6199 28.432 20.3959C30.1289 17.7983 32.0681 15.3009 33.741 13.3492C34.1004 12.9299 34.7317 12.8813 35.1511 13.2407C35.5704 13.6001 35.6189 14.2314 35.2595 14.6508C33.5998 16.5871 31.7136 19.0259 30.0849 21.5225C32.263 22.1355 36.7079 23.1326 38.1031 21.5372C39.9766 19.395 42.1053 6 42.1053 6ZM8.87793 9.66945C8.87793 9.66945 19.2132 12.4416 21.1458 14.6514C22.6382 16.358 21.0292 19.9128 20.2188 21.4434C19.1305 19.7217 17.9188 18.052 16.7856 16.6145C16.4436 16.1808 15.8149 16.1064 15.3812 16.4483C14.9474 16.7902 14.873 17.419 15.215 17.8527C16.338 19.2773 17.5123 20.9017 18.5509 22.5478C16.6833 23.0536 13.2817 23.7506 12.1808 22.4917C10.6347 20.7239 8.87793 9.66945 8.87793 9.66945Z" fill="#333333"/>
</svg>
