<svg width="48" height="48" viewBox="0 0 48 48" fill="none" xmlns="http://www.w3.org/2000/svg">
<path fill-rule="evenodd" clip-rule="evenodd" d="M48 0H0V48H48V0ZM7 29.0005C6.44772 29.0005 6 29.4482 6 30.0005V40.9958C6 41.5481 6.44772 41.9958 7 41.9958H10C10.5523 41.9958 11 41.5481 11 40.9958V30.0005C11 29.4482 10.5523 29.0005 10 29.0005H7ZM20.9148 29.1888C20.9148 29.1888 18.6371 28.764 17.7052 29.1888C17.0113 29.5051 14.3259 30.4693 13 30.941L13 39.8015C13.7674 39.7566 15.2933 39.6759 15.9451 39.7022C17.8882 39.7805 19.3391 40.2418 20.8062 40.7081C22.1749 41.1433 23.5575 41.5828 25.3668 41.7199C25.8215 41.7544 26.2641 41.7989 26.6931 41.842C28.2423 41.9977 29.6155 42.1358 30.7506 41.7199C32.2001 41.1889 40.4829 37.1535 41.5182 36.0915C42.5536 35.0296 42.0359 32.1623 38.8263 32.6933C37.2426 32.9553 35.4069 33.7085 33.7419 34.3917C32.0326 35.0931 30.5034 35.7206 29.6117 35.6668C27.8517 35.5606 23.1926 34.711 23.1926 34.711L28.542 34.7757C28.542 34.7757 29.2977 34.8159 30.3365 34.0738C31.3753 33.3318 32.3036 31.2065 30.7506 31.2065C29.1976 31.2065 27.541 30.6755 27.541 30.6755L20.9148 29.1888ZM18.8462 23.0226C18.5576 22.5518 18.7053 21.9361 19.1761 21.6474C19.647 21.3588 20.2627 21.5065 20.5513 21.9774C21.5068 23.536 22.3547 25.137 22.9335 26.6408C23.1319 27.1562 22.8749 27.7349 22.3595 27.9332C21.844 28.1316 21.2654 27.8746 21.067 27.3592C20.5471 26.0084 19.7647 24.521 18.8462 23.0226ZM29.5903 20.6926C30.0362 21.0185 30.1335 21.6442 29.8076 22.09C28.6506 23.6732 27.6313 25.79 26.9143 27.4056C26.6903 27.9104 26.0994 28.138 25.5946 27.914C25.0898 27.69 24.8622 27.0991 25.0862 26.5943C25.8098 24.964 26.9006 22.6781 28.1929 20.9099C28.5188 20.464 29.1444 20.3667 29.5903 20.6926ZM27.24 12.0368C29.5818 9.35911 42.1053 6 42.1053 6C42.1053 6 39.9766 19.395 38.1031 21.5372C36.7079 23.1326 32.263 22.1355 30.0849 21.5225C31.7136 19.0259 33.5998 16.5871 35.2595 14.6508C35.6189 14.2314 35.5704 13.6001 35.1511 13.2407C34.7317 12.8813 34.1004 12.9299 33.741 13.3492C32.0681 15.3009 30.1289 17.7983 28.432 20.3959C27.4768 18.6199 25.3882 14.1543 27.24 12.0368ZM21.1458 14.6514C19.2132 12.4416 8.87793 9.66945 8.87793 9.66945C8.87793 9.66945 10.6347 20.7239 12.1808 22.4917C13.2817 23.7506 16.6833 23.0536 18.5509 22.5478C17.5123 20.9017 16.338 19.2773 15.215 17.8527C14.873 17.419 14.9474 16.7902 15.3812 16.4483C15.8149 16.1064 16.4436 16.1808 16.7856 16.6145C17.9188 18.052 19.1305 19.7217 20.2188 21.4434C21.0292 19.9128 22.6382 16.358 21.1458 14.6514Z" fill="#333333"/>
</svg>
