<svg width="48" height="48" viewBox="0 0 48 48" fill="none" xmlns="http://www.w3.org/2000/svg">
<path d="M42.0874 36.2505L42.0874 36.2505C43.4347 38.5776 41.7544 41.5 39.0601 41.5H8.94012C6.24582 41.5 4.56555 38.5776 5.91283 36.2505L5.91286 36.2505L20.9728 10.2305C20.9728 10.2305 20.9729 10.2305 20.9729 10.2305C22.3203 7.90316 25.6799 7.90316 27.0274 10.2305C27.0274 10.2305 27.0274 10.2305 27.0274 10.2305L42.0874 36.2505ZM21.5001 26C21.5001 27.3761 22.624 28.5 24.0001 28.5C25.3763 28.5 26.5001 27.3761 26.5001 26V22C26.5001 20.6238 25.3763 19.5 24.0001 19.5C22.624 19.5 21.5001 20.6238 21.5001 22V26ZM24.0001 36.5C25.3808 36.5 26.5001 35.3807 26.5001 34C26.5001 32.6193 25.3808 31.5 24.0001 31.5C22.6194 31.5 21.5001 32.6193 21.5001 34C21.5001 35.3807 22.6194 36.5 24.0001 36.5Z" stroke="#333333"/>
</svg>
