<svg width="48" height="48" viewBox="0 0 48 48" fill="none" xmlns="http://www.w3.org/2000/svg">
<path d="M40.5 24C40.5 33.1127 33.1127 40.5 24 40.5C14.8873 40.5 7.5 33.1127 7.5 24C7.5 14.8873 14.8873 7.5 24 7.5C33.1127 7.5 40.5 14.8873 40.5 24ZM21.5 22C21.5 23.3761 22.6239 24.5 24 24.5C25.3761 24.5 26.5 23.3761 26.5 22V18C26.5 16.6239 25.3761 15.5 24 15.5C22.6239 15.5 21.5 16.6239 21.5 18V22ZM26.5 30C26.5 28.6193 25.3807 27.5 24 27.5C22.6193 27.5 21.5 28.6193 21.5 30C21.5 31.3807 22.6193 32.5 24 32.5C25.3807 32.5 26.5 31.3807 26.5 30Z" stroke="#333333"/>
</svg>
