<svg width="48" height="48" viewBox="0 0 48 48" fill="none" xmlns="http://www.w3.org/2000/svg">
<path fill-rule="evenodd" clip-rule="evenodd" d="M0 0H48V48H0V0ZM29.7324 15C29.3866 14.4022 28.7403 14 28 14H6C4.89543 14 4 14.8954 4 16V35H8.12602C8.57006 36.7252 10.1362 38 12 38C13.8638 38 15.4299 36.7252 15.874 35H28.5H29H30H31.126C31.5701 36.7252 33.1362 38 35 38C36.8638 38 38.4299 36.7252 38.874 35H43H44V34V26.8757C44 26.0384 43.6501 25.2392 43.0348 24.6713L37.7529 19.7956C37.1987 19.284 36.4722 19 35.718 19H35V18H34V17C34 16.4477 33.5523 16 33 16C32.4477 16 32 16.4477 32 17V18H31V19H30V16V15H29.7324ZM30 21V26L41.5257 26L36.3963 21.2652C36.2116 21.0947 35.9694 21 35.718 21H30ZM30 28V33H31.126C31.5701 31.2748 33.1362 30 35 30C36.8638 30 38.4299 31.2748 38.874 33H42V28L30 28ZM14 34C14 35.1046 13.1046 36 12 36C10.8954 36 10 35.1046 10 34C10 32.8954 10.8954 32 12 32C13.1046 32 14 32.8954 14 34ZM35 36C36.1046 36 37 35.1046 37 34C37 32.8954 36.1046 32 35 32C33.8954 32 33 32.8954 33 34C33 35.1046 33.8954 36 35 36ZM16 19V22H13V24H16V27H18V24H21V22H18V19H16ZM32 12.5C32 13.0523 32.4477 13.5 33 13.5C33.5523 13.5 34 13.0523 34 12.5V11C34 10.4477 33.5523 10 33 10C32.4477 10 32 10.4477 32 11V12.5ZM36.5 17C36.5 16.4477 36.9477 16 37.5 16H39C39.5523 16 40 16.4477 40 17C40 17.5523 39.5523 18 39 18H37.5C36.9477 18 36.5 17.5523 36.5 17ZM35.8285 12.759C35.4193 13.1298 35.3881 13.7622 35.759 14.1715C36.1298 14.5807 36.7622 14.6119 37.1715 14.241L38.0857 13.4126C38.4949 13.0417 38.5261 12.4093 38.1552 12.0001C37.7844 11.5908 37.152 11.5597 36.7427 11.9306L35.8285 12.759Z" fill="#333333"/>
</svg>
