<svg width="48" height="48" viewBox="0 0 48 48" fill="none" xmlns="http://www.w3.org/2000/svg">
<path fill-rule="evenodd" clip-rule="evenodd" d="M0 0V48H48V0H0ZM26.4941 7.35742H34.9551V14.0098C32.8286 14.7569 30.7323 15.5368 26.4941 14.0098V7.35742ZM29.9746 9.26953V10.6133H28.6309V11.9883H29.9746V13.332H31.3496V11.9883H32.6934V10.6133H31.3496V9.26953H29.9746ZM8.30859 12.6035H26.0977V14.3789C29.4404 15.7694 32.5007 15.654 35.3438 14.3789V12.6035H39.7285L38.6289 14.2012H38.6074V21.5137V23.0977V23.1113V31.7324V38.5H39.6953V38.543H39.6973V40.6426H39.6953H8.27734H8.27344V38.5H9.64258V31.7324V29.7832V21.5137H9.64648V14.2305L8.30859 12.6035ZM27.5449 20.2441V26.4082H35.4785V20.2441H27.5449ZM13.3496 20.291V25.2734H18.3965V20.291H13.3496ZM19.7207 20.2969V25.2773H24.7676V20.2969H19.7207ZM19.7207 26.4082V31.3906H24.7676V26.4082H19.7207ZM13.3477 26.4102V31.3926H18.3965V26.4102H13.3477ZM27.5137 27.8398V31.7324V38.5H35.4453V27.8398H27.5137Z" fill="#333333"/>
</svg>
