<svg width="48" height="48" viewBox="0 0 48 48" fill="none" xmlns="http://www.w3.org/2000/svg">
<path d="M26 40H34V24H26V40Z" fill="#333333"/>
<path d="M21 24H14V31H21V24Z" fill="#333333"/>
<path d="M20 9H18V11H16V13H18V15H20V13H22V11H20V9Z" fill="#333333"/>
<path fill-rule="evenodd" clip-rule="evenodd" d="M0 0H48V48H0V0ZM24.6531 9.98462H42.5V12.5014L38 15.5321V40H41C41.5523 40 42 40.4477 42 41C42 41.5523 41.5523 42 41 42H38V42.0154H10V42H7C6.44772 42 6 41.5523 6 41C6 40.4477 6.44772 40 7 40H10V15.4969L6 12.4662V9.98462H13.3469C14.1749 7.66227 16.3933 6 19 6C21.6067 6 23.8251 7.66227 24.6531 9.98462Z" fill="#333333"/>
</svg>
