<svg width="48" height="48" viewBox="0 0 48 48" fill="none" xmlns="http://www.w3.org/2000/svg">
<g clip-path="url(#clip0)">
<path fill-rule="evenodd" clip-rule="evenodd" d="M-0.104736 0.104858V48.1049H47.8953V0.104858H-0.104736ZM33.6492 11.392L35.0671 11.3979L34.3953 13.1889L33.6492 11.392ZM35.8679 12.0385L36.9812 12.9154L35.6082 13.4447L35.8679 12.0385ZM33.032 12.0834L33.2917 13.4896L31.9187 12.9603L33.032 12.0834ZM33.7898 13.8275H35.1023C35.5524 13.8275 35.9148 14.1899 35.9148 14.64V15.89C35.9148 15.9603 35.8904 16.0223 35.8738 16.0873H38.2156L42.3914 24.5619L42.4089 24.4994V33.6322H39.7449C39.7153 34.4855 39.3331 35.2947 38.679 35.889C38.025 36.4834 37.1501 36.8164 36.239 36.8177C35.3273 36.8173 34.4514 36.4847 33.7965 35.8903C33.1415 35.2959 32.7589 34.4862 32.7292 33.6322C31.4197 33.6321 31.0219 33.6323 30.2722 33.6322C30.0738 33.6321 29.8515 33.6324 29.655 33.6322C24.8876 33.6286 20.6698 33.6209 14.6804 33.6322C14.6508 34.4855 14.2687 35.2947 13.6146 35.889C12.9605 36.4834 12.0856 36.8164 11.1746 36.8177C10.2628 36.8173 9.38695 36.4847 8.73202 35.8903C8.0771 35.2959 7.6944 34.4862 7.66479 33.6322H5.38159V28.8607H5.38354V16.0873H5.54175V16.0834H29.7742V16.0873H30.7781H33.0183C33.0017 16.0223 32.9773 15.9603 32.9773 15.89V14.64C32.9773 14.1899 33.3396 13.8275 33.7898 13.8275L33.7898 13.8275ZM6.15112 16.8627V31.8607H6.14917V32.8607H7.7312C7.73239 32.8569 7.73196 32.8528 7.73315 32.849C7.89905 32.1094 8.33144 31.4457 8.95773 30.9695C9.58403 30.4933 10.3661 30.2335 11.1726 30.2338C11.9802 30.2349 12.7627 30.4968 13.3885 30.9752C14.0142 31.4537 14.4449 32.1195 14.6082 32.8607C19.0645 32.8796 24.3877 32.8758 30.2703 32.8607V32.8646H30.6785V32.8607H32.7937C32.7987 32.8422 32.8061 32.827 32.8113 32.8119C32.9846 32.0809 33.4187 31.4272 34.0418 30.9585C34.665 30.4898 35.44 30.2342 36.239 30.2338C37.047 30.2345 37.8299 30.4961 38.4561 30.9746C39.0822 31.4531 39.5132 32.1192 39.6765 32.8607H41.6492V24.8607L37.7781 16.8627H30.78H30.6804H30.6472H30.4168H30.4031H29.7742H29.6531L6.15112 16.8627ZM37.448 17.3724L41.0808 24.8588H31.1648V17.3744L37.448 17.3724ZM19.239 19.0619H22.239V23.5619H26.739V26.5599H22.239V31.0599H19.239V26.5599H14.739V23.5619H19.239V19.0619ZM36.2605 31.8646C35.7964 31.8646 35.3512 32.0358 35.0231 32.3406C34.6949 32.6453 34.5105 33.0586 34.5105 33.4896C34.5105 33.9206 34.6949 34.3339 35.0231 34.6387C35.3512 34.9434 35.7964 35.1146 36.2605 35.1146C36.7246 35.1146 37.1697 34.9434 37.4979 34.6387C37.8261 34.3339 38.0105 33.9206 38.0105 33.4896C38.0105 33.0586 37.8261 32.6453 37.4979 32.3406C37.1697 32.0358 36.7246 31.8646 36.2605 31.8646ZM11.1609 31.89C10.6968 31.89 10.2516 32.0612 9.92345 32.366C9.59526 32.6707 9.41089 33.084 9.41089 33.515C9.41089 33.946 9.59526 34.3593 9.92345 34.6641C10.2516 34.9688 10.6968 35.14 11.1609 35.14C11.625 35.14 12.0701 34.9688 12.3983 34.6641C12.7265 34.3593 12.9109 33.946 12.9109 33.515C12.9109 33.084 12.7265 32.6707 12.3983 32.366C12.0701 32.0612 11.625 31.89 11.1609 31.89Z" fill="#333333"/>
</g>
<defs>
<clipPath id="clip0">
<rect width="48" height="48" fill="white"/>
</clipPath>
</defs>
</svg>
