<svg width="48" height="48" viewBox="0 0 48 48" fill="none" xmlns="http://www.w3.org/2000/svg">
<path fill-rule="evenodd" clip-rule="evenodd" d="M33.4428 10.8918L34.1889 12.6886L34.8608 10.8976L33.4428 10.8918ZM35.6616 11.5383L35.4018 12.9446L36.7748 12.4153L35.6616 11.5383ZM32.8256 11.5832L31.7123 12.4603L33.0854 12.9895L32.8256 11.5832ZM33.5834 13.3274C33.1333 13.3274 32.7709 13.6898 32.7709 14.1399V15.39C32.7709 15.4603 32.7953 15.5222 32.8119 15.5872H31.5951H30.7319V15.5891H30.0229H5.17718V15.5911V16.3607V28.3606H5.1734V33.1321H7.45661C7.48621 33.9861 7.8689 34.7958 8.52382 35.3903C9.17875 35.9847 10.0546 36.3173 10.9664 36.3177C11.8775 36.3163 12.7523 35.9833 13.4064 35.389C14.0605 34.7947 14.4427 33.9854 14.4722 33.1321C20.4608 33.1208 24.6785 33.1285 29.4449 33.1321C29.6414 33.1322 29.8637 33.132 30.0621 33.1321C30.8124 33.1322 31.2105 33.132 32.5211 33.1321C32.5826 34.9073 34.1355 36.3168 36.0308 36.3177C37.9254 36.3158 39.4771 34.9065 39.5386 33.1321H42.2027V29.2728V23.9993L42.1851 24.0617L38.0093 15.5871H35.6675C35.6841 15.5221 35.7086 15.46 35.7086 15.3897V14.1398C35.7086 13.6896 35.3462 13.3273 34.8961 13.3273L33.5834 13.3274ZM33.562 13.8313H34.9135C35.0721 13.8313 35.2006 13.9598 35.2006 14.1185V15.2084C35.2006 15.3671 35.0721 15.4957 34.9135 15.4957H33.562C33.4033 15.4957 33.2749 15.3671 33.2749 15.2084V14.1185C33.2749 13.9598 33.4033 13.8313 33.562 13.8313ZM5.94477 16.3607H30.0229H30.8295V16.3626H37.5698L41.4409 24.3607V32.3606H39.4682C39.1316 30.8321 37.6961 29.7352 36.0307 29.7337C34.3848 29.7346 32.9601 30.8061 32.603 32.3118C32.5978 32.3269 32.5904 32.3421 32.5854 32.3606H30.8295H30.4409H30.062C29.8307 32.3612 29.6744 32.36 29.4448 32.3606C23.8481 32.3757 18.682 32.3795 14.4018 32.3606C14.2386 31.6194 13.8078 30.9535 13.1821 30.4751C12.5564 29.9966 11.7739 29.7347 10.9663 29.7335C10.1597 29.7333 9.37768 29.9931 8.75139 30.4693C8.12509 30.9455 7.6927 31.6092 7.52681 32.3488C7.52561 32.3526 7.52609 32.3563 7.52486 32.3601H5.94283V31.3602H5.94478L5.94477 16.3607ZM37.2416 16.8723L30.9584 16.8743V24.3587H40.8745L37.2416 16.8723ZM36.7416 17.3723L40.0483 23.8275L31.4584 23.8577V17.3733C33.2194 17.3619 34.9576 17.3705 36.7416 17.3713V17.3723ZM19.0327 18.5617V23.0618H14.5327V26.0598H19.0327V30.5599H22.0327V26.0598H26.5327V23.0618H22.0327V18.5617H19.0327ZM19.5327 19.0618H21.5327V23.5599H26.0327V25.5599H21.5327V30.0598H19.5327V25.5599H15.0346V23.5599H19.5327V19.0618ZM10.978 30.2981C11.3476 30.2981 11.7135 30.3671 12.055 30.5015C12.3965 30.6358 12.7067 30.8328 12.9681 31.0811C13.2294 31.3294 13.4368 31.6243 13.5782 31.9487C13.7196 32.2731 13.7924 32.6208 13.7924 32.972C13.7924 33.3232 13.7196 33.6709 13.5782 33.9953C13.4368 34.3197 13.2294 34.6145 12.9681 34.8628C12.7067 35.1111 12.3965 35.308 12.055 35.4424C11.7135 35.5767 11.3476 35.6458 10.978 35.6457C10.6084 35.6458 10.2424 35.5767 9.90095 35.4424C9.55948 35.308 9.24921 35.1111 8.98786 34.8628C8.7265 34.6145 8.51919 34.3197 8.37775 33.9953C8.23631 33.6709 8.16351 33.3232 8.16352 32.972C8.16351 32.6208 8.23631 32.2731 8.37775 31.9487C8.51919 31.6243 8.7265 31.3294 8.98786 31.0811C9.24921 30.8328 9.55948 30.6358 9.90095 30.5015C10.2424 30.3671 10.6084 30.2981 10.978 30.2981ZM36.021 30.3548C37.5753 30.3545 38.8354 31.5517 38.8354 33.0286C38.8354 34.5055 37.5753 35.7027 36.021 35.7025C34.4666 35.7027 33.2064 34.5055 33.2065 33.0286C33.2064 31.5517 34.4666 30.3545 36.021 30.3548ZM10.976 31.3431C10.7462 31.3431 10.5186 31.3851 10.3063 31.4668C10.094 31.5485 9.90109 31.6681 9.73858 31.819C9.57608 31.9699 9.44718 32.1491 9.35923 32.3463C9.27129 32.5434 9.22602 32.7547 9.22602 32.9681C9.22603 33.3991 9.41041 33.8124 9.7386 34.1171C10.0668 34.4219 10.5119 34.593 10.976 34.593C11.4401 34.593 11.8853 34.4219 12.2134 34.1171C12.5416 33.8124 12.726 33.3991 12.726 32.9681C12.726 32.7547 12.6808 32.5434 12.5928 32.3463C12.5049 32.1491 12.376 31.9699 12.2135 31.819C12.051 31.6681 11.858 31.5485 11.6457 31.4668C11.4334 31.3851 11.2058 31.3431 10.976 31.3431ZM36.0678 31.4016C35.1013 31.4016 34.3178 32.1292 34.3178 33.0267C34.3178 33.9241 35.1013 34.6517 36.0678 34.6517C37.0343 34.6517 37.8178 33.9241 37.8178 33.0267C37.8178 32.1292 37.0343 31.4016 36.0678 31.4016ZM10.976 31.9388C11.2701 31.9388 11.5521 32.0471 11.7602 32.2402C11.9682 32.4332 12.0852 32.695 12.0854 32.9681C12.0856 33.1035 12.057 33.2376 12.0013 33.3627C11.9456 33.4878 11.8639 33.6015 11.7609 33.6973C11.6579 33.793 11.5355 33.869 11.4008 33.9208C11.2662 33.9726 11.1218 33.9994 10.976 33.9994C10.8302 33.9994 10.6859 33.9726 10.5512 33.9208C10.4165 33.869 10.2942 33.793 10.1912 33.6973C10.0881 33.6015 10.0064 33.4878 9.95075 33.3627C9.89507 33.2376 9.86649 33.1035 9.86665 32.9681C9.86688 32.695 9.98387 32.4332 10.1919 32.2402C10.3999 32.0471 10.682 31.9388 10.976 31.9388ZM36.0678 31.9974C36.6802 31.9974 37.1767 32.4581 37.1772 33.0267C37.1779 33.596 36.681 34.0579 36.0678 34.0579C35.4547 34.0579 34.9578 33.596 34.9584 33.0267C34.9589 32.4581 35.4555 31.9974 36.0678 31.9974Z" fill="#333333"/>
</svg>
