<svg width="48" height="48" viewBox="0 0 48 48" fill="none" xmlns="http://www.w3.org/2000/svg">
<path fill-rule="evenodd" clip-rule="evenodd" d="M33.7965 11.599L34.5426 13.3958L35.2145 11.6048L33.7965 11.599ZM36.0152 12.2455L35.7555 13.6517L37.1285 13.1223L36.0152 12.2455ZM33.1793 12.2905L32.066 13.1674L33.4391 13.6967L33.1793 12.2905ZM33.9371 14.0346C33.487 14.0346 33.1246 14.397 33.1246 14.847V16.0971C33.1246 16.1674 33.149 16.2293 33.1656 16.2943H30.9254H29.9215V16.2907H5.68907V16.2943H5.53087V29.0678H5.52698V33.8392H7.81018C7.83978 34.6932 8.22247 35.503 8.8774 36.0974C9.53232 36.6918 10.4082 37.0244 11.3199 37.0249C12.231 37.0235 13.1059 36.6905 13.76 36.0961C14.4141 35.5018 14.7962 34.6926 14.8258 33.8392C20.8152 33.8279 25.033 33.8357 29.8004 33.8392C29.9969 33.8394 30.2192 33.8391 30.4176 33.8392C31.1673 33.8394 31.5651 33.8392 32.8746 33.8392C32.9042 34.6932 33.2869 35.503 33.9419 36.0974C34.5968 36.6918 35.4726 37.0244 36.3844 37.0249C37.2958 37.024 38.1712 36.6911 38.8257 36.0967C39.4802 35.5023 39.8626 34.6929 39.8922 33.8392H42.5563V24.7065L42.5385 24.7689L38.3627 16.2942H36.0211C36.0377 16.2292 36.0621 16.1673 36.0621 16.097V14.8469C36.0621 14.3968 35.6998 14.0344 35.2496 14.0344L33.9371 14.0346ZM6.29845 17.0698H29.8004H29.9215H30.5504H30.5641H30.7945H30.8258H30.9254H37.9235L41.7946 25.0678V33.0677H39.8219C39.6586 32.3262 39.2276 31.6601 38.6014 31.1817C37.9753 30.7032 37.1923 30.4415 36.3844 30.4408C35.5854 30.4412 34.8104 30.6969 34.1872 31.1656C33.5641 31.6343 33.13 32.288 32.9567 33.0189C32.9515 33.0341 32.944 33.0492 32.9391 33.0677H30.8258V33.0714H30.4176V33.0677C24.5351 33.0828 19.2119 33.0866 14.7555 33.0677C14.5922 32.3265 14.1615 31.6607 13.5358 31.1822C12.9101 30.7038 12.1275 30.4419 11.3199 30.4407C10.5134 30.4405 9.73135 30.7003 9.10506 31.1765C8.47876 31.6527 8.04637 32.3163 7.88048 33.056C7.87928 33.0597 7.87972 33.0635 7.87853 33.0673H6.2965V32.0674H6.29845V17.0698ZM37.5953 17.5795L31.3121 17.5814V25.0659H41.2281L37.5953 17.5795ZM19.3863 19.2689V23.769H14.8863V26.7671H19.3863V31.267H22.3863V26.7671H26.8863V23.769H22.3863V19.2689H19.3863ZM36.4078 32.0716C36.6376 32.0716 36.8652 32.1137 37.0775 32.1954C37.2898 32.2771 37.4828 32.3968 37.6453 32.5476C37.8078 32.6985 37.9367 32.8777 38.0246 33.0749C38.1126 33.272 38.1578 33.4833 38.1578 33.6967C38.1578 33.9101 38.1126 34.1213 38.0246 34.3185C37.9367 34.5156 37.8078 34.6948 37.6453 34.8457C37.4828 34.9966 37.2898 35.1163 37.0775 35.198C36.8652 35.2796 36.6376 35.3217 36.4078 35.3217C36.178 35.3217 35.9504 35.2796 35.7381 35.198C35.5258 35.1163 35.3329 34.9966 35.1704 34.8457C35.0079 34.6948 34.879 34.5156 34.791 34.3185C34.7031 34.1213 34.6578 33.9101 34.6578 33.6967C34.6578 33.4833 34.7031 33.272 34.791 33.0749C34.879 32.8777 35.0079 32.6985 35.1704 32.5476C35.3329 32.3968 35.5258 32.2771 35.7381 32.1954C35.9504 32.1137 36.178 32.0716 36.4078 32.0716ZM11.3082 32.0982C11.538 32.0982 11.7656 32.1401 11.9779 32.2218C12.1902 32.3035 12.3832 32.4232 12.5457 32.5741C12.7082 32.725 12.8371 32.9041 12.925 33.1013C13.013 33.2984 13.0582 33.5097 13.0582 33.7231C13.0582 33.9365 13.013 34.1479 12.925 34.345C12.8371 34.5422 12.7082 34.7212 12.5457 34.8721C12.3832 35.023 12.1902 35.1428 11.9779 35.2245C11.7656 35.3062 11.538 35.3482 11.3082 35.3482C11.0784 35.3482 10.8508 35.3062 10.6385 35.2245C10.4262 35.1428 10.2333 35.023 10.0708 34.8721C9.90827 34.7212 9.77937 34.5422 9.69142 34.345C9.60348 34.1479 9.55821 33.9365 9.55821 33.7231C9.55821 33.5097 9.60348 33.2984 9.69142 33.1013C9.77937 32.9041 9.90827 32.725 10.0708 32.5741C10.2333 32.4232 10.4262 32.3035 10.6385 32.2218C10.8508 32.1401 11.0784 32.0982 11.3082 32.0982Z" fill="#333333"/>
</svg>
