<?xml version="1.0" encoding="UTF-8" standalone="no"?>
<!-- Created with Inkscape (http://www.inkscape.org/) -->
<svg id="svg8" xmlns:rdf="http://www.w3.org/1999/02/22-rdf-syntax-ns#" xmlns="http://www.w3.org/2000/svg" xmlns:osb="http://www.openswatchbook.org/uri/2009/osb" height="48" width="48" version="1.1" xmlns:cc="http://creativecommons.org/ns#" viewBox="0 0 12.7 12.7" xmlns:dc="http://purl.org/dc/elements/1.1/">
 <title id="title4753">UIO-icon</title>
 <metadata id="metadata5">
  <rdf:RDF>
   <cc:Work rdf:about="">
    <dc:format>image/svg+xml</dc:format>
    <dc:type rdf:resource="http://purl.org/dc/dcmitype/StillImage"/>
    <dc:title>UIO-icon</dc:title>
    <dc:creator>
     <cc:Agent>
      <dc:title>Joaquín Urbano</dc:title>
     </cc:Agent>
    </dc:creator>
    <dc:rights>
     <cc:Agent>
      <dc:title>GPL</dc:title>
     </cc:Agent>
    </dc:rights>
   </cc:Work>
  </rdf:RDF>
 </metadata>
 <g id="layer1" transform="translate(0,-284.3)">
  <path id="path4800" d="m9.0467 285.35v0.23513h-0.11782c-0.13053 0-0.23409 0.10578-0.23409 0.23513l-0.0010335 1.6464c0 0.12935 0.1046 0.23513 0.23513 0.23513h1.6464c0.12935 0 0.23513-0.10578 0.23513-0.23513v-1.6464c0-0.12935-0.10578-0.23513-0.23513-0.23513h-0.11782v-0.23513h-0.23513v0.23513h-0.9402v-0.23513zm-4.1894 0.039274c-0.64081 0-1.1601 0.5194-1.1601 1.1601 0 0.64068 0.51932 1.1601 1.1601 1.1601 0.64081 0 1.1607-0.51946 1.1607-1.1601 0-0.64073-0.51984-1.1601-1.1607-1.1601zm0 0.18345c0.53948 0.000053 0.9772 0.43767 0.9772 0.9772 0 0.53964-0.43772 0.97668-0.9772 0.97668-0.53974 0.0002646-0.97772-0.43705-0.97772-0.97668 0-0.53977 0.43797-0.97749 0.97772-0.9772zm4.0716 0.60048h1.6464v1.2935h-1.6462zm0.23513 0.23513v0.58808h0.58808v-0.58808zm-4.422 1.5865-1.0563 0.00103v0.0031c-0.1897 0.00397-0.37127 0.10837-0.46044 0.29146l-1.2826 2.6267c-0.12673 0.26008-0.018753 0.57167 0.24133 0.69867 0.25982 0.127 0.5709 0.020304 0.69763-0.23978l0.80409-1.648c0.019579 1.1223-0.65255 1.5905-0.73484 3.3357h0.7347v2.358c0 0.28919 0.23248 0.52193 0.52193 0.52193s0.52297-0.23275 0.52297-0.52193v-2.358h0.25115v2.358c0 0.28919 0.23326 0.52193 0.52245 0.52193 0.28945 0 0.52245-0.23275 0.52245-0.52193v-2.358h0.73639c-0.073024-1.7399-0.73639-2.0924-0.73639-3.3398l0.80615 1.6521c0.12673 0.26008 0.43858 0.36678 0.69867 0.23978 0.26008-0.127 0.36651-0.43858 0.23978-0.69867l-1.2821-2.6272c-0.089693-0.18388-0.27174-0.28959-0.4625-0.29197v-0.00258h-1.0567zm1.2656 0.19172 0.00051677 0.00413c0.12435 0.00317 0.24331 0.070315 0.30231 0.19017l0.2744 0.55656c0.0034395 0.00582 0.0084585 0.00865 0.011369 0.014469l1.0139 2.0541c0.08493 0.17224 0.014881 0.37964-0.1571 0.46457-0.17224 0.08493-0.37912 0.014628-0.46405-0.15761l-0.27544-0.55656c-0.003175-0.00503-0.0082063-0.00942-0.010852-0.015503l-0.85214-1.7255c-0.092338 2.1293 0.55722 1.9102 0.71624 3.8649h-0.7163v2.5203c0 0.095778-0.038064 0.18224-0.10077 0.24495-0.062705 0.062441-0.14969 0.10077-0.24546 0.10077-0.096043 0-0.18251-0.038063-0.24495-0.10077-0.062705-0.062441-0.10232-0.14917-0.10232-0.24495v-2.5202h-0.6026v2.5203c0 0.19182-0.15518 0.34572-0.34727 0.34572s-0.34623-0.15389-0.34623-0.34572v-2.5202l-0.70538 0.00258c0.11112-1.7227 0.85328-2.0664 0.70538-3.8799l-0.85783 1.7368c-0.00291 0.00609-0.0076773 0.010476-0.010852 0.015503l-0.27544 0.55656c-0.08493 0.17224-0.29181 0.24203-0.46405 0.1571-0.17198-0.08493-0.24203-0.29181-0.1571-0.46405l1.0144-2.0536c0.002646-0.00609 0.0079289-0.00891 0.011369-0.014986l0.2744-0.55656c0.063764-0.12912 0.19631-0.20069 0.33125-0.19275zm-1.1503 2.05a1.3214 1.3214 0 0 0 -1.3214 1.3208 1.3214 1.3214 0 0 0 1.3214 1.3214 1.3214 1.3214 0 0 0 1.3214 -1.3214 1.3214 1.3214 0 0 0 -1.3214 -1.3208zm0 0.18087a1.1402 1.1402 0 0 1 1.14 1.14 1.1402 1.1402 0 0 1 -1.14 1.1405 1.1402 1.1402 0 0 1 -1.14 -1.1405 1.1402 1.1402 0 0 1 1.14 -1.14zm-0.084233 0.067696c-0.021166-0.00794-0.04858-0.0007207-0.059428 0.029972v0.0005168c-0.029368 0.064822-0.079578 0.11025-0.1018 0.20205-0.028046 0.13282 0.19936 0.14393 0.27027 0.14366 0.20478 0.00714 0.27907 0.13521 0.06873 0.154-0.17489 0.016404-0.35497 0.021291-0.39016 0.38086-0.004498 0.052651 0.019944 0.14579 0.062012 0.26458 0.014023 0.077787-0.0089801 0.16748-0.055811 0.26458-0.023548-0.00317-0.040977-0.011427-0.045475-0.031006 0.004233-0.083872 0.021452-0.15477-0.011886-0.27595-0.032808-0.11774-0.11333-0.17381-0.19482-0.1881-0.16325-0.033866-0.30803-0.064579-0.43873-0.021187-0.13785 0.051593-0.093727 0.25548 0.024805 0.25787l0.14573 0.00465c0.10054 0.00185 0.15471 0.046035 0.10232 0.18759l-0.070797 0.20516c-0.057943 0.177 0.13716 0.37077 0.39274 0.39326 0.25849-0.00609 0.40766-0.12203 0.60927-0.185 0.19288-0.10663 0.15763-0.18212 0.1571-0.25011-0.032279-0.09419-0.037121-0.12875-0.10697-0.23564-0.027252-0.028839-0.039717-0.036385-0.075964-0.060461-0.087841-0.097365 0.054592-0.15902 0.16175-0.28629 0.055826-0.079109-0.038775-0.17206-0.14831-0.14004-0.092603 0.030427-0.14094 0.086855-0.23513 0.18448-0.05371 0.059001-0.12662 0.197-0.026872 0.31368 0.027781 0.05371-0.0096539 0.079127-0.1049 0.10955-0.030956 0.0082-0.053426 0.00897-0.078031 0.012402 0.049476-0.082284 0.061755-0.16595 0.050643-0.25115-0.021166-0.089693-0.05784-0.1753-0.059428-0.26975 0.030427-0.36221 0.24764-0.3125 0.41961-0.34055 0.081755-0.00291 0.25685-0.19684-0.11886-0.2651-0.118-0.020902-0.2343-0.011878-0.21446-0.0894 0.016933-0.067732 0.062868-0.11039 0.092501-0.16278 0.016139-0.026458 0.0012649-0.048138-0.019637-0.055811zm0.80925 0.91571c-0.083343 0-0.16646 0.032354-0.22996 0.096118-0.127 0.127-0.127 0.33344 0 0.46044 0.12726 0.127 0.33344 0.12675 0.46044-0.0005167 0.127-0.12726 0.12675-0.33344-0.00051676-0.46044-0.063499-0.063499-0.14662-0.095602-0.22996-0.095601z" fill-rule="evenodd" stroke-width=".26458" fill="#333"/>
  <text id="text1512" style="word-spacing:0px;letter-spacing:0px" xml:space="preserve" font-size="7.0556px" line-height="1.25" y="270.5416565" x="44.97916794" font-family="robo" fill="#000000"><tspan id="tspan1510" y="276.9786682" x="44.97916794" stroke-width=".26458"/></text>
 </g>
</svg>
