<svg width="48" height="48" viewBox="0 0 48 48" fill="none" xmlns="http://www.w3.org/2000/svg">
<path d="M20.0001 12C22.2093 12 24.0001 10.2091 24.0001 8C24.0001 5.79086 22.2093 4 20.0001 4C17.791 4 16.0001 5.79086 16.0001 8C16.0001 10.2091 17.791 12 20.0001 12Z" fill="#333333"/>
<path d="M33.0002 10C33.0002 9.44772 32.5525 9 32.0002 9C31.448 9 31.0002 9.44772 31.0002 10V12.3028L32.1682 14.0547C32.4745 14.5142 33.0954 14.6384 33.5549 14.3321C34.0145 14.0257 34.1386 13.4048 33.8323 12.9453L33.0002 11.6972V10Z" fill="#333333"/>
<path fill-rule="evenodd" clip-rule="evenodd" d="M32.0002 18C35.314 18 38.0002 15.3137 38.0002 12C38.0002 8.68629 35.314 6 32.0002 6C28.6865 6 26.0002 8.68629 26.0002 12C26.0002 15.3137 28.6865 18 32.0002 18ZM32.0002 16C34.2094 16 36.0002 14.2091 36.0002 12C36.0002 9.79086 34.2094 8 32.0002 8C29.7911 8 28.0002 9.79086 28.0002 12C28.0002 14.2091 29.7911 16 32.0002 16Z" fill="#333333"/>
<path fill-rule="evenodd" clip-rule="evenodd" d="M15.7507 27.0617C16.1545 27.3848 16.6452 27.5259 17.1236 27.4962C17.1344 28.8153 17.086 30.1806 17.033 31.6742C16.9413 34.2576 16.836 37.2246 17.0001 41V42C17.0001 43.1046 17.8956 44 19.0001 44C20.1047 44 21.0001 43.1046 21.0001 42V41L22.4623 33.3079C22.6614 33.247 22.9105 33.1647 23.1923 33.0581C23.8688 32.8021 24.7957 32.383 25.6765 31.7425C26.5527 31.1052 27.4918 30.1688 28.0048 28.8499C28.5383 27.4778 28.5218 25.9191 27.8571 24.2572C26.7094 21.3881 24.6144 18.9108 22.9143 17.2108C22.0489 16.3454 21.251 15.6471 20.6668 15.1631C20.3741 14.9206 20.1334 14.7304 19.9627 14.5986C19.8773 14.5327 19.8093 14.4812 19.7608 14.445L19.7032 14.4021L19.6858 14.3894L19.6801 14.3852L19.6765 14.3825L19.5337 14.5788L19.5341 14.5779L19.5351 14.5766C19.6763 14.3824 19.6765 14.3825 19.6765 14.3825C19.3346 14.1339 18.9224 14 18.4997 14H16.5001C15.7362 14 15.1275 14.3317 14.7667 14.5722C14.372 14.8354 14.0175 15.1641 13.7175 15.4784C13.1142 16.1105 12.5271 16.9018 12.0352 17.6233C11.5341 18.3582 11.0885 19.085 10.7705 19.6232C10.6106 19.8937 10.481 20.1199 10.3906 20.2799C10.3454 20.36 10.3098 20.4237 10.2851 20.4683L10.2562 20.5206L10.2481 20.5354L10.2443 20.5423C9.77988 21.3938 9.99334 22.4558 10.7507 23.0617L15.7507 27.0617ZM16.7178 22.7129L14.6004 21.019C14.8224 20.6598 15.0741 20.2668 15.3401 19.8767C15.5011 19.6406 15.6618 19.4136 15.8195 19.2012C16.2296 20.4424 16.5182 21.5968 16.7178 22.7129Z" fill="#333333"/>
</svg>
