<?xml version="1.0" encoding="UTF-8" standalone="no"?>
<!-- Created with Inkscape (http://www.inkscape.org/) -->
<svg id="svg8" xmlns:rdf="http://www.w3.org/1999/02/22-rdf-syntax-ns#" xmlns="http://www.w3.org/2000/svg" xmlns:osb="http://www.openswatchbook.org/uri/2009/osb" height="48" width="48" version="1.1" xmlns:cc="http://creativecommons.org/ns#" viewBox="0 0 12.7 12.7" xmlns:dc="http://purl.org/dc/elements/1.1/">
 <title id="title4753">UIO-icon</title>
 <metadata id="metadata5">
  <rdf:RDF>
   <cc:Work rdf:about="">
    <dc:format>image/svg+xml</dc:format>
    <dc:type rdf:resource="http://purl.org/dc/dcmitype/StillImage"/>
    <dc:title>UIO-icon</dc:title>
    <dc:creator>
     <cc:Agent>
      <dc:title>Joaquín Urbano</dc:title>
     </cc:Agent>
    </dc:creator>
    <dc:rights>
     <cc:Agent>
      <dc:title>GPL</dc:title>
     </cc:Agent>
    </dc:rights>
   </cc:Work>
  </rdf:RDF>
 </metadata>
 <g id="layer1" transform="translate(0,-284.3)">
  <path id="rect4846" d="m0 284.3v12.7h12.7v-12.7zm10.539 1.034h0.23513v0.23513h0.94051v-0.23513h0.23513v0.23513h0.11782c0.12935 0 0.23513 0.10578 0.23513 0.23513v1.6464c0 0.12935-0.10578 0.23513-0.23513 0.23513h-1.646c-0.13053 0-0.23513-0.10578-0.23513-0.23513l0.001034-1.6464c0-0.12935 0.10357-0.23513 0.23409-0.23513h0.11782zm-4.1894 0.038757c0.64074 0 1.1607 0.5194 1.1607 1.1601 0 0.64073-0.51991 1.1601-1.1607 1.1601-0.64074 0-1.1601-0.51941-1.1601-1.1601 0-0.64074 0.5194-1.1601 1.1601-1.1601zm4.0716 0.78393v1.294h1.6464v-1.294zm0.23513 0.23564h0.58808v0.58756h-0.58808zm-4.422 1.5865 0.22789 0.0005167h1.0568v0.00207c0.19071 0.00248 0.37284 0.10824 0.4625 0.29197l1.2821 2.6277c0.12692 0.26008 0.020292 0.57123-0.23978 0.69815-0.26007 0.12691-0.57175 0.020291-0.69867-0.23978l-0.80615-1.6516c0 1.2475 0.66323 1.5997 0.73639 3.3398h-0.73639v2.3575c0 0.28938-0.23306 0.52245-0.52245 0.52245s-0.52245-0.23307-0.52245-0.52245v-2.3575h-0.25166v2.3575c0 0.28939-0.23306 0.52245-0.52245 0.52245s-0.52193-0.23306-0.52193-0.52245v-2.3575h-0.7339c0.082216-1.7454 0.75446-2.2138 0.73484-3.3362l-0.80409 1.648c-0.12692 0.26009-0.43808 0.36671-0.69815 0.23978-0.26007-0.12691-0.36773-0.43809-0.24081-0.69815l1.2826-2.6272c0.089288-0.18298 0.2706-0.28745 0.46044-0.29146v-0.0031zm0.11524 2.2412c-0.72976 0.0000333-1.3213 0.59161-1.3214 1.3214 0.00003334 0.72976 0.59161 1.3213 1.3214 1.3214 0.72976-0.0000334 1.3213-0.59161 1.3214-1.3214-0.00003333-0.72976-0.59161-1.3213-1.3214-1.3214zm0 0.18138a1.1402 1.1402 0 0 1 1.14 1.14 1.1402 1.1402 0 0 1 -1.14 1.14 1.1402 1.1402 0 0 1 -1.14 -1.14 1.1402 1.1402 0 0 1 1.14 -1.14zm-0.084233 0.067696c-0.021104-0.00764-0.048677-0.0007782-0.059428 0.029972-0.029255 0.064999-0.079605 0.11056-0.1018 0.20257-0.028117 0.13264 0.19934 0.14393 0.27027 0.14366 0.20495 0.007 0.27872 0.13505 0.068213 0.154-0.17472 0.0164-0.35432 0.020799-0.38964 0.38034-0.00455 0.0526 0.019762 0.14592 0.062012 0.26458 0.013973 0.0778-0.00923 0.1675-0.055811 0.26458-0.023728-0.003-0.041154-0.011406-0.045475-0.031006 0.00411-0.0838 0.020922-0.15466-0.012402-0.27595-0.032777-0.11766-0.11291-0.1737-0.1943-0.1881-0.16323-0.0339-0.308-0.064587-0.43873-0.021187-0.13778 0.0517-0.09374 0.25584 0.024805 0.25838l0.14521 0.00413c0.10058 0.002 0.15507 0.046196 0.10284 0.18759l-0.070797 0.20567c-0.057981 0.17696 0.1371 0.37041 0.39274 0.39274 0.25848-0.006 0.40782-0.12152 0.60927-0.18448 0.19298-0.10679 0.15728-0.18266 0.15658-0.25063-0.032127-0.0942-0.03656-0.12836-0.10645-0.23513-0.027302-0.0289-0.039823-0.036978-0.075964-0.060978-0.087817-0.0973 0.054404-0.1591 0.16175-0.28629 0.055769-0.079-0.038701-0.17177-0.14831-0.13953-0.092556 0.0302-0.14094 0.086398-0.23513 0.18397-0.053701 0.0591-0.12649 0.19755-0.026872 0.31419 0.027831 0.0536-0.00974 0.079004-0.1049 0.10955-0.031139 0.008-0.053438 0.009-0.078031 0.012402 0.049482-0.0824 0.061721-0.1665 0.050643-0.25166-0.021116-0.089599-0.057855-0.17527-0.059428-0.26975 0.03028-0.36197 0.24766-0.31219 0.41961-0.34003 0.081626-0.003 0.25679-0.19693-0.11886-0.2651-0.11785-0.0211-0.23429-0.012317-0.21446-0.089917 0.016952-0.0676 0.062927-0.10998 0.092501-0.16226 0.016102-0.0266 0.001467-0.048689-0.019637-0.056327zm0.80925 0.91571c-0.083288 0.00004-0.16645 0.032001-0.22996 0.095601-0.12703 0.12715-0.12715 0.33341 0 0.46044 0.12716 0.12703 0.33342 0.12667 0.46044-0.0005167 0.12703-0.12715 0.12663-0.33341-0.00051676-0.46044-0.06358-0.0635-0.14667-0.095085-0.22996-0.095084z" fill-rule="evenodd" fill-opacity=".99505" fill="#333"/>
  <text id="text1512" style="word-spacing:0px;letter-spacing:0px" xml:space="preserve" font-size="7.0556px" line-height="1.25" y="270.5416565" x="44.97916794" font-family="robo" fill="#000000"><tspan id="tspan1510" y="276.9786682" x="44.97916794" stroke-width=".26458"/></text>
 </g>
</svg>
