<svg width="48" height="48" viewBox="0 0 48 48" fill="none" xmlns="http://www.w3.org/2000/svg">
<path d="M24 20.163C24.8555 20.1632 25.6918 19.9097 26.4032 19.4346C27.1145 18.9595 27.669 18.2841 27.9965 17.4938C28.324 16.7035 28.4098 15.8339 28.2431 14.9949C28.0763 14.1558 27.6645 13.3851 27.0596 12.7801C26.4548 12.1752 25.6842 11.7632 24.8452 11.5962C24.0062 11.4292 23.1365 11.5148 22.3462 11.8421C21.5558 12.1695 20.8803 12.7238 20.405 13.4351C19.9297 14.1463 19.676 14.9826 19.676 15.838C19.6759 16.4059 19.7877 16.9683 20.0049 17.493C20.2221 18.0178 20.5406 18.4946 20.9422 18.8962C21.3437 19.2978 21.8204 19.6164 22.3451 19.8338C22.8698 20.0511 23.4321 20.163 24 20.163Z" fill="#333333"/>
<path d="M33.27 26.637L30.25 22.73C30.1003 22.4449 29.8838 22.2004 29.6189 22.0174C29.354 21.8343 29.0486 21.7182 28.729 21.679C28.694 21.679 28.659 21.672 28.624 21.669C28.589 21.666 28.534 21.655 28.486 21.655H19.514C19.466 21.655 19.422 21.666 19.376 21.669C19.33 21.672 19.306 21.669 19.271 21.679C18.9514 21.7182 18.6461 21.8343 18.3812 22.0174C18.1163 22.2004 17.8997 22.4449 17.75 22.73L14.73 26.637C14.5593 26.8473 14.4331 27.0901 14.3591 27.3507C14.2851 27.6113 14.2647 27.8841 14.2993 28.1528C14.3339 28.4215 14.4228 28.6803 14.5604 28.9136C14.698 29.1469 14.8816 29.3498 15.1 29.51C15.5573 29.7567 16.0804 29.8539 16.5957 29.7879C17.111 29.7219 17.5927 29.496 17.973 29.142L18.2 28.849H29.8L30.027 29.142C30.4073 29.496 30.889 29.7219 31.4044 29.7879C31.9197 29.8539 32.4428 29.7567 32.9 29.51C33.1185 29.3498 33.302 29.1469 33.4397 28.9136C33.5773 28.6803 33.6661 28.4215 33.7007 28.1528C33.7353 27.8841 33.715 27.6113 33.641 27.3507C33.5669 27.0901 33.4407 26.8473 33.27 26.637Z" fill="#333333"/>
<path d="M31.82 34.625L30.3 31.139C30.0827 30.6412 29.6765 30.2501 29.1708 30.0518C28.6651 29.8535 28.1013 29.8642 27.6035 30.0815C27.1057 30.2989 26.7146 30.7051 26.5163 31.2107C26.318 31.7164 26.3287 32.2802 26.546 32.778L27.717 35.46L26.837 37.7C26.6368 38.211 26.6477 38.7805 26.8674 39.2834C27.0871 39.7863 27.4976 40.1813 28.0085 40.3815C28.5195 40.5817 29.089 40.5708 29.5919 40.3511C30.0948 40.1314 30.4898 39.721 30.69 39.21L31.823 36.321C31.832 36.299 31.834 36.277 31.842 36.255C31.9513 35.9966 32.0057 35.7183 32.0019 35.4377C31.9981 35.1571 31.9362 34.8804 31.82 34.625Z" fill="#333333"/>
<path d="M20.4 30.082C20.1544 29.9671 19.8879 29.9033 19.6169 29.8945C19.3458 29.8857 19.0758 29.9322 18.8232 30.0311C18.5706 30.1299 18.3408 30.2792 18.1478 30.4696C17.9547 30.6601 17.8023 30.8878 17.7 31.139L16.18 34.625C16.0642 34.8801 16.0024 35.1565 15.9986 35.4367C15.9948 35.7169 16.0491 35.9948 16.158 36.253C16.166 36.275 16.168 36.297 16.177 36.319L17.31 39.208C17.3953 39.4711 17.5354 39.7132 17.7212 39.9181C17.9069 40.1231 18.1341 40.2863 18.3876 40.397C18.641 40.5077 18.9151 40.5633 19.1917 40.5602C19.4683 40.5571 19.7411 40.4953 19.992 40.379C20.2548 40.2937 20.4965 40.1536 20.7011 39.9681C20.9058 39.7826 21.0688 39.5558 21.1795 39.3026C21.2901 39.0495 21.3459 38.7758 21.343 38.4996C21.3402 38.2233 21.2789 37.9508 21.163 37.7L20.285 35.462L21.456 32.78C21.5707 32.5345 21.6343 32.2683 21.643 31.9975C21.6516 31.7267 21.6052 31.4569 21.5064 31.2046C21.4076 30.9523 21.2587 30.7227 21.0685 30.5297C20.8783 30.3368 20.6509 30.1844 20.4 30.082Z" fill="#333333"/>
<path d="M26.7 7.92519C26.7 7.70468 26.4701 7.55952 26.271 7.65434L24 8.73601L26.271 9.81768C26.4701 9.9125 26.7 9.76734 26.7 9.54683V7.92519Z" fill="#333333"/>
<path d="M21.729 7.65435C21.53 7.55952 21.3 7.70468 21.3 7.92519V9.54683C21.3 9.76734 21.53 9.9125 21.729 9.81768L24 8.73601L21.729 7.65435Z" fill="#333333"/>
</svg>
