<svg width="48" height="48" viewBox="0 0 48 48" fill="none" xmlns="http://www.w3.org/2000/svg">
<mask id="path-1-inside-1_4265:6494" fill="white">
<path fill-rule="evenodd" clip-rule="evenodd" d="M24.549 25.2378L24.9778 34.0201C25.0731 34.0234 25.168 34.0269 25.2619 34.0303C25.3135 34.0321 25.3648 34.034 25.4158 34.0358C25.8769 34.0523 26.3208 34.0658 26.7559 34.0582C27.6317 34.0428 28.3951 33.9416 29.0473 33.6571C29.5654 33.4313 30.0357 33.1002 30.4292 32.6824L31.6542 31.3814L32.3828 32.1288C32.6099 32.3618 32.8103 32.645 32.9709 32.8789C33.0182 32.9478 33.0627 33.0134 33.1055 33.0765C33.224 33.2512 33.3294 33.4066 33.4439 33.558C33.7367 33.9453 33.8691 33.9951 33.8748 34.0002H38.8599C39.1267 34.0002 39.3376 33.9155 39.6226 33.6237M31.566 34.3691C31.6558 34.4998 31.7518 34.6362 31.8484 34.764C32.1854 35.2098 32.8422 36.0002 33.8592 36.0002H38.8599C39.7921 36.0002 40.491 35.597 41.0538 35.0208C41.6622 34.3973 42.0002 33.5565 42.0002 32.6849C42.0002 31.8134 41.6625 30.9727 41.0539 30.3493C40.4444 29.7249 39.6127 29.3696 38.74 29.3696H36.0768L35.9435 29.313C35.61 28.9591 35.2421 28.5291 34.8301 28.0476C34.4823 27.6412 34.1031 27.198 33.6865 26.7326C32.778 25.7179 31.708 24.6208 30.6609 24.03M31.566 34.3691C31.0588 34.8357 30.4782 35.2151 29.8467 35.4904C28.8418 35.9287 27.7727 36.0407 26.7909 36.0579C26.2971 36.0665 25.8059 36.0511 25.3444 36.0346C25.2924 36.0327 25.2409 36.0308 25.1898 36.029C24.7788 36.0141 24.3953 36.0002 24.0244 36.0002H23.0721L22.4502 23.2634H23.5002C23.9467 23.2634 24.4175 23.2422 24.9272 23.2193C24.9912 23.2164 25.0559 23.2135 25.1212 23.2106C25.6951 23.1851 26.3098 23.161 26.9253 23.1732C28.1454 23.1973 29.4798 23.3635 30.6609 24.03M24.549 25.2378C24.7057 25.2313 24.862 25.2243 25.0168 25.2173C25.0815 25.2144 25.1459 25.2114 25.21 25.2086C25.7834 25.1831 26.3409 25.162 26.8857 25.1728C27.9864 25.1946 28.9256 25.3472 29.6779 25.7718C30.4034 26.181 31.2774 27.0402 32.1964 28.0667C32.5359 28.4459 32.8897 28.8583 33.2345 29.2601C33.7521 29.8633 34.2493 30.4428 34.6475 30.8512L34.7877 30.995L35.6697 31.3696H38.74C39.0665 31.3696 39.3844 31.5022 39.6228 31.7464C39.8618 31.9912 40.0002 32.3284 40.0002 32.6849C40.0002 33.0412 39.8616 33.3787 39.6226 33.6237"/>
<path d="M19.1 25.7002C20.6464 26.86 20.9598 29.0538 19.8 30.6002L16.8 34.6002C16.139 35.4815 15.1017 36.0002 14 36.0002H9.5C7.567 36.0002 6 34.4332 6 32.5002C6 30.5672 7.567 29.0002 9.5 29.0002H12.25L14.2 26.4002C15.3598 24.8538 17.5536 24.5404 19.1 25.7002Z"/>
<path d="M42 16.5C42 20.0899 39.0899 23 35.5 23C31.9101 23 29 20.0899 29 16.5C29 12.9101 31.9101 10 35.5 10C39.0899 10 42 12.9101 42 16.5Z"/>
</mask>
<path d="M40.1088 32.7498L25.0351 24.3639L24.0628 26.1116L39.1365 34.4976L40.1088 32.7498ZM29.6647 24.1172L30.5698 34.4563L32.5622 34.2819L31.6571 23.9428L29.6647 24.1172ZM24.9778 34.0201L22.9801 34.1177L23.0699 35.9556L24.909 36.0189L24.9778 34.0201ZM24.549 25.2378L24.467 23.2394L22.4531 23.322L22.5514 25.3353L24.549 25.2378ZM25.2619 34.0303L25.3346 32.0316H25.3346L25.2619 34.0303ZM25.4158 34.0358L25.4873 32.0371L25.4873 32.0371L25.4158 34.0358ZM26.7559 34.0582L26.7209 32.0585L26.7559 34.0582ZM29.0473 33.6571L28.2482 31.8237L28.2477 31.8239L29.0473 33.6571ZM31.6542 31.3814L33.0863 29.9853L31.6291 28.4906L30.1981 30.0104L31.6542 31.3814ZM32.3828 32.1288L33.8149 30.7327L33.8149 30.7327L32.3828 32.1288ZM32.9709 32.8789L31.322 34.0108L31.322 34.0108L32.9709 32.8789ZM33.1055 33.0765L31.4504 34.1993V34.1993L33.1055 33.0765ZM33.4439 33.558L31.8484 34.764L31.8484 34.764L33.4439 33.558ZM33.8748 34.0002L32.5374 35.4873L33.1078 36.0002H33.8748V34.0002ZM39.6226 33.6237L41.0534 35.0212L41.0544 35.0202L39.6226 33.6237ZM31.566 34.3691L33.2142 33.2362L31.9084 31.3364L30.2118 32.8972L31.566 34.3691ZM31.8484 34.764L30.2529 35.97L30.2529 35.97L31.8484 34.764ZM41.0538 35.0208L42.4847 36.4181L42.4851 36.4176L41.0538 35.0208ZM41.0539 30.3493L39.6227 31.7464L39.6228 31.7464L41.0539 30.3493ZM36.0768 29.3696L35.2949 31.2105L35.6697 31.3696H36.0768V29.3696ZM35.9435 29.313L34.4879 30.6845L34.7756 30.9899L35.1617 31.1539L35.9435 29.313ZM34.8301 28.0476L33.3105 29.3479V29.3479L34.8301 28.0476ZM33.6865 26.7326L32.1964 28.0667L33.6865 26.7326ZM30.6609 24.03L29.678 25.7718L29.6782 25.7719L30.6609 24.03ZM29.8467 35.4904L29.0476 33.657L29.0472 33.6572L29.8467 35.4904ZM26.7909 36.0579L26.8259 38.0576H26.8259L26.7909 36.0579ZM25.3444 36.0346L25.4158 34.0358L25.4158 34.0358L25.3444 36.0346ZM25.1898 36.029L25.2623 34.0303H25.2623L25.1898 36.029ZM23.0721 36.0002L21.0744 36.0977L21.1673 38.0002H23.0721V36.0002ZM22.4502 23.2634V21.2634H20.3502L20.4526 23.361L22.4502 23.2634ZM24.9272 23.2193L24.8372 21.2213H24.8372L24.9272 23.2193ZM25.1212 23.2106L25.0325 21.2125L25.1212 23.2106ZM26.9253 23.1732L26.8857 25.1728L26.9253 23.1732ZM25.0168 25.2173L25.1071 27.2152H25.1071L25.0168 25.2173ZM25.21 25.2086L25.1212 23.2106L25.21 25.2086ZM26.8857 25.1728L26.9253 23.1732L26.8857 25.1728ZM29.6779 25.7718L28.695 27.5136L28.6952 27.5137L29.6779 25.7718ZM32.1964 28.0667L30.7063 29.4007L32.1964 28.0667ZM33.2345 29.2601L34.7523 27.9577L34.7523 27.9577L33.2345 29.2601ZM34.6475 30.8512L33.2155 32.2474L33.2155 32.2474L34.6475 30.8512ZM34.7877 30.995L33.3557 32.3912L33.6361 32.6788L34.0059 32.8359L34.7877 30.995ZM35.6697 31.3696L34.8878 33.2105L35.2625 33.3696H35.6697V31.3696ZM39.6228 31.7464L41.0539 30.3493L41.0539 30.3493L39.6228 31.7464ZM19.8 30.6002L21.4 31.8002L19.8 30.6002ZM16.8 34.6002L18.4 35.8002H18.4L16.8 34.6002ZM12.25 29.0002V31.0002H13.25L13.85 30.2002L12.25 29.0002ZM14.2 26.4002L12.6 25.2002L14.2 26.4002ZM26.9754 33.9226L26.5466 25.1402L22.5514 25.3353L22.9801 34.1177L26.9754 33.9226ZM25.3346 32.0316C25.2409 32.0282 25.1442 32.0247 25.0466 32.0213L24.909 36.0189C25.0021 36.0221 25.095 36.0255 25.1893 36.0289L25.3346 32.0316ZM25.4873 32.0371C25.437 32.0353 25.3863 32.0335 25.3346 32.0316L25.1893 36.0289C25.2408 36.0308 25.2927 36.0327 25.3444 36.0346L25.4873 32.0371ZM26.7209 32.0585C26.3445 32.0651 25.9481 32.0536 25.4873 32.0371L25.3444 36.0346C25.8057 36.0511 26.2971 36.0665 26.7909 36.0579L26.7209 32.0585ZM28.2477 31.8239C27.9485 31.9544 27.4912 32.045 26.7209 32.0585L26.7909 36.0579C27.7722 36.0407 28.8417 35.9288 29.847 35.4903L28.2477 31.8239ZM28.9733 31.3112C28.7635 31.5338 28.5161 31.7069 28.2482 31.8237L29.8465 35.4905C30.6147 35.1557 31.3078 34.6665 31.8851 34.0537L28.9733 31.3112ZM33.8149 30.7327L33.0863 29.9853L30.2221 32.7775L30.9507 33.5249L33.8149 30.7327ZM34.6198 31.747C34.4591 31.5129 34.1741 31.1012 33.8149 30.7327L30.9507 33.5249C30.9903 33.5655 31.0439 33.6277 31.1119 33.7168C31.1792 33.8051 31.2468 33.9012 31.322 34.0108L34.6198 31.747ZM34.7605 31.9536C34.7181 31.891 34.6706 31.8211 34.6198 31.747L31.322 34.0108C31.3657 34.0745 31.4073 34.1358 31.4504 34.1993L34.7605 31.9536ZM35.0394 32.352C34.9612 32.2485 34.8845 32.1364 34.7605 31.9536L31.4504 34.1993C31.5635 34.366 31.6977 34.5647 31.8484 34.764L35.0394 32.352ZM35.2122 32.5131C35.1616 32.4676 35.117 32.4322 35.0846 32.4076C35.0514 32.3823 35.0224 32.3619 35.0003 32.3469C34.9576 32.3178 34.9224 32.2962 34.9028 32.2845C34.8656 32.2622 34.8352 32.2457 34.8309 32.2433C34.8242 32.2397 34.815 32.2348 34.8195 32.2372C34.8205 32.2377 34.8248 32.24 34.8304 32.2431C34.8574 32.258 34.8909 32.2773 34.9274 32.3008C34.9986 32.3466 35.0502 32.3878 35.0824 32.4159C35.1413 32.4672 35.1266 32.4674 35.0394 32.352L31.8484 34.764C32.054 35.036 32.2519 35.2546 32.4516 35.429C32.5542 35.5186 32.6583 35.5974 32.7651 35.666C32.8194 35.7009 32.8664 35.728 32.903 35.7481C32.911 35.7525 32.9173 35.7559 32.9202 35.7575C32.9265 35.7609 32.9189 35.7568 32.9136 35.7539C32.9106 35.7523 32.8813 35.7364 32.845 35.7146C32.8259 35.7031 32.791 35.6818 32.7486 35.6529C32.7126 35.6284 32.6312 35.5716 32.5374 35.4873L35.2122 32.5131ZM38.1919 32.2262C38.1464 32.2728 38.2119 32.1927 38.3784 32.1138C38.4651 32.0728 38.5591 32.0415 38.6548 32.0221C38.7475 32.0034 38.8201 32.0002 38.8599 32.0002V36.0002C39.2278 36.0002 39.6506 35.9372 40.0904 35.7289C40.5004 35.5348 40.8139 35.2664 41.0534 35.0212L38.1919 32.2262ZM29.9178 35.5019C30.0146 35.6428 30.1299 35.8073 30.2529 35.97L33.4439 33.558C33.3736 33.4651 33.2971 33.3568 33.2142 33.2362L29.9178 35.5019ZM30.2529 35.97C30.5689 36.388 31.7643 38.0002 33.8592 38.0002V34.0002C33.9028 34.0002 33.8986 34.025 33.8086 33.9567C33.7006 33.8746 33.5857 33.7457 33.4439 33.558L30.2529 35.97ZM38.8599 38.0002C40.4595 38.0002 41.6463 37.2766 42.4847 36.4181L39.6229 33.6235C39.4666 33.7835 39.3375 33.8721 39.233 33.9221C39.1379 33.9675 39.0245 34.0002 38.8599 34.0002V38.0002ZM42.4851 36.4176C43.4629 35.4157 44.0002 34.0716 44.0002 32.6849H40.0002C40.0002 33.0413 39.8616 33.3788 39.6224 33.6239L42.4851 36.4176ZM44.0002 32.6849C44.0002 31.2985 43.4633 29.9543 42.485 28.9522L39.6228 31.7464C39.8617 31.9911 40.0002 32.3283 40.0002 32.6849H44.0002ZM42.485 28.9522C41.5045 27.9478 40.1592 27.3696 38.74 27.3696V31.3696C39.0663 31.3696 39.3842 31.502 39.6227 31.7464L42.485 28.9522ZM38.74 27.3696H36.0768V31.3696H38.74V27.3696ZM36.8587 27.5288L36.7254 27.4722L35.1617 31.1539L35.2949 31.2105L36.8587 27.5288ZM37.3992 27.9415C37.1054 27.6297 36.7713 27.2399 36.3497 26.7473L33.3105 29.3479C33.713 29.8183 34.1147 30.2885 34.4879 30.6845L37.3992 27.9415ZM36.3497 26.7473C36.0033 26.3424 35.6102 25.883 35.1766 25.3986L32.1964 28.0667C32.5959 28.5129 32.9613 28.9399 33.3105 29.3479L36.3497 26.7473ZM35.1766 25.3986C34.2774 24.3942 33.0118 23.06 31.6437 22.2881L29.6782 25.7719C30.4042 26.1815 31.2787 27.0416 32.1964 28.0667L35.1766 25.3986ZM30.6459 37.3238C31.483 36.9589 32.2508 36.4567 32.9201 35.8409L30.2118 32.8972C29.8668 33.2147 29.4734 33.4714 29.0476 33.657L30.6459 37.3238ZM26.8259 38.0576C27.9142 38.0385 29.2889 37.9156 30.6463 37.3236L29.0472 33.6572C28.3948 33.9417 27.6312 34.0429 26.7559 34.0582L26.8259 38.0576ZM25.2729 38.0333C25.735 38.0498 26.2736 38.0672 26.8259 38.0576L26.7559 34.0582C26.3207 34.0658 25.8768 34.0523 25.4158 34.0358L25.2729 38.0333ZM25.1174 38.0277C25.1684 38.0295 25.2204 38.0314 25.2729 38.0333L25.4158 34.0358C25.3645 34.034 25.3134 34.0321 25.2623 34.0303L25.1174 38.0277ZM24.0244 38.0002C24.3525 38.0002 24.6987 38.0125 25.1174 38.0277L25.2623 34.0303C24.8588 34.0157 24.4381 34.0002 24.0244 34.0002V38.0002ZM23.0721 38.0002H24.0244V34.0002H23.0721V38.0002ZM23.5002 21.2634H22.4502V25.2634H23.5002V21.2634ZM24.8372 21.2213C24.3173 21.2447 23.8933 21.2634 23.5002 21.2634V25.2634C24 25.2634 24.5177 25.2397 25.0171 25.2172L24.8372 21.2213ZM25.0325 21.2125C24.9664 21.2155 24.9012 21.2184 24.8372 21.2213L25.0171 25.2172C25.0813 25.2144 25.1454 25.2115 25.21 25.2086L25.0325 21.2125ZM26.9649 21.1736C26.2787 21.16 25.607 21.187 25.0325 21.2125L25.21 25.2086C25.7832 25.1831 26.3408 25.162 26.8857 25.1728L26.9649 21.1736ZM31.6438 22.2882C30.0343 21.3799 28.305 21.2001 26.9649 21.1736L26.8857 25.1728C27.9858 25.1946 28.9254 25.3471 29.678 25.7718L31.6438 22.2882ZM24.6309 27.2361C24.7924 27.2295 24.9529 27.2222 25.1071 27.2152L24.9266 23.2193C24.7711 23.2263 24.6189 23.2332 24.467 23.2394L24.6309 27.2361ZM25.1071 27.2152C25.1719 27.2123 25.2355 27.2094 25.2987 27.2066L25.1212 23.2106C25.0563 23.2135 24.9912 23.2164 24.9266 23.2193L25.1071 27.2152ZM25.2987 27.2066C25.8718 27.1812 26.372 27.163 26.8461 27.1724L26.9253 23.1732C26.3097 23.161 25.695 23.1851 25.1212 23.2106L25.2987 27.2066ZM26.8461 27.1724C27.828 27.1918 28.3718 27.3312 28.695 27.5136L30.6609 24.03C29.4795 23.3633 28.1448 23.1973 26.9253 23.1732L26.8461 27.1724ZM28.6952 27.5137C29.0982 27.741 29.7754 28.3609 30.7063 29.4007L33.6865 26.7326C32.7795 25.7195 31.7085 24.621 30.6607 24.0299L28.6952 27.5137ZM30.7063 29.4007C31.0293 29.7614 31.369 30.1573 31.7167 30.5625L34.7523 27.9577C34.4104 27.5592 34.0426 27.1304 33.6865 26.7326L30.7063 29.4007ZM31.7167 30.5625C32.2183 31.147 32.7627 31.7829 33.2155 32.2474L36.0796 29.4551C35.736 29.1026 35.2859 28.5795 34.7523 27.9577L31.7167 30.5625ZM33.2155 32.2474L33.3557 32.3912L36.2198 29.5989L36.0796 29.4551L33.2155 32.2474ZM38.74 33.3696C38.5206 33.3696 38.3246 33.2797 38.1916 33.1435L41.0539 30.3493C40.4441 29.7247 39.6124 29.3696 38.74 29.3696V33.3696ZM38.1916 33.1435C38.0612 33.0099 38.0002 32.8437 38.0002 32.6849H42.0002C42.0002 31.8131 41.6623 30.9725 41.0539 30.3493L38.1916 33.1435ZM38.0002 32.6849C38.0002 32.5255 38.0614 32.36 38.1909 32.2272L41.0544 35.0202C41.6619 34.3973 42.0002 33.557 42.0002 32.6849H38.0002ZM30.1981 30.0104L28.9731 31.3114L31.8853 34.0535L33.1103 32.7525L30.1981 30.0104ZM38.8599 32.0002H33.8748V36.0002H38.8599V32.0002ZM33.8592 38.0002H38.8599V34.0002H33.8592V38.0002ZM20.4526 23.361L21.0744 36.0977L25.0697 35.9026L24.4478 23.1659L20.4526 23.361ZM34.0059 32.8359L34.8878 33.2105L36.4515 29.5288L35.5696 29.1542L34.0059 32.8359ZM35.6697 33.3696H38.74V29.3696H35.6697V33.3696ZM21.4 31.8002C23.2225 29.3702 22.7301 25.9227 20.3 24.1002L17.9 27.3002C18.5627 27.7973 18.6971 28.7375 18.2 29.4002L21.4 31.8002ZM18.4 35.8002L21.4 31.8002L18.2 29.4002L15.2 33.4002L18.4 35.8002ZM14 38.0002C15.7312 38.0002 17.3613 37.1851 18.4 35.8002L15.2 33.4002C14.9167 33.7779 14.4721 34.0002 14 34.0002V38.0002ZM9.5 38.0002H14V34.0002H9.5V38.0002ZM4 32.5002C4 35.5378 6.46243 38.0002 9.5 38.0002V34.0002C8.67157 34.0002 8 33.3286 8 32.5002H4ZM9.5 27.0002C6.46243 27.0002 4 29.4626 4 32.5002H8C8 31.6718 8.67157 31.0002 9.5 31.0002V27.0002ZM12.25 27.0002H9.5V31.0002H12.25V27.0002ZM12.6 25.2002L10.65 27.8002L13.85 30.2002L15.8 27.6002L12.6 25.2002ZM20.3 24.1002C17.8699 22.2777 14.4225 22.7702 12.6 25.2002L15.8 27.6002C16.2971 26.9375 17.2373 26.8032 17.9 27.3002L20.3 24.1002ZM40 16.5C40 18.9853 37.9853 21 35.5 21V25C40.1944 25 44 21.1944 44 16.5H40ZM35.5 21C33.0147 21 31 18.9853 31 16.5H27C27 21.1944 30.8056 25 35.5 25V21ZM31 16.5C31 14.0147 33.0147 12 35.5 12V8C30.8056 8 27 11.8056 27 16.5H31ZM35.5 12C37.9853 12 40 14.0147 40 16.5H44C44 11.8056 40.1944 8 35.5 8V12Z" fill="#333333" mask="url(#path-1-inside-1_4265:6494)"/>
</svg>
