<svg width="48" height="48" viewBox="0 0 48 48" fill="none" xmlns="http://www.w3.org/2000/svg">
<path fill-rule="evenodd" clip-rule="evenodd" d="M48 0H0V48H48V0ZM26.271 7.46868C26.4701 7.5635 26.7001 7.41835 26.7001 7.19783V5.57619C26.7001 5.35568 26.4701 5.21052 26.271 5.30535L24 6.38701L21.7291 5.30535C21.53 5.21052 21.3 5.35568 21.3 5.57619V7.19783C21.3 7.41835 21.53 7.5635 21.7291 7.46868L24 6.38701L26.271 7.46868ZM29.5765 14.5606C29.5765 17.6316 27.087 20.1211 24.0159 20.1211C20.9449 20.1211 18.4554 17.6316 18.4554 14.5606C18.4554 11.4896 20.9449 9 24.0159 9C27.087 9 29.5765 11.4896 29.5765 14.5606ZM16.0013 30.984C15.9819 32.0419 16.1759 33.0928 16.5718 34.074C16.9677 35.0551 17.5573 35.9464 18.3055 36.6945C19.0536 37.4427 19.9449 38.0323 20.926 38.4282C21.9072 38.8241 22.9581 39.0181 24.016 38.9987C25.773 39.0036 27.4829 38.4311 28.8828 37.3693C30.2826 36.3074 31.7637 34.3315 31.7637 33.1218C31.7637 31.912 29.0578 27.0085 25.8695 23.8282C24.9367 22.8977 23.6667 22.3991 21.5446 21.9747C18.4554 21.3568 16.0013 17.6498 16.0013 15.7963V30.984ZM32.0479 29.3888C32.0479 29.3888 30.1944 25.0639 26.4873 21.9747C29.5765 21.3568 32.0479 17.6498 32.0479 15.7963V29.3888Z" fill="#333333"/>
</svg>
