<svg width="48" height="48" viewBox="0 0 48 48" fill="none" xmlns="http://www.w3.org/2000/svg">
<path d="M28.1011 33.0673C27.6546 33.2568 27.1746 33.3546 26.6896 33.355H23.4416L23.0777 26.079L26.9 26.079L26.903 26.079C27.4972 26.0754 28.0823 26.2241 28.6027 26.5107C29.1231 26.7974 29.5614 27.2126 29.8758 27.7166L29.906 27.765L29.9462 27.8053L32.2082 30.0703L32.3547 30.217H32.562H33.431V30.221H33.931C34.3472 30.221 34.7462 30.3863 35.0405 30.6806C35.3347 30.9748 35.5 31.3739 35.5 31.79C35.5 32.2061 35.3347 32.6052 35.0405 32.8995C34.7462 33.1937 34.3472 33.359 33.931 33.359H31.883C31.8767 33.3582 31.8683 33.3572 31.8595 33.3564C31.8426 33.3547 31.8198 33.353 31.793 33.353V33.3529L31.7805 33.3532C31.5695 33.3585 31.3596 33.32 31.1641 33.2402C30.9686 33.1605 30.7918 33.0411 30.6447 32.8897L30.6447 32.8896L30.6396 32.8845L30.0016 32.2465L29.6422 31.8871L29.2888 32.2522C28.9514 32.6007 28.5475 32.8779 28.1011 33.0673ZM18.8956 28.0016L18.9836 27.9135C19.1068 27.8087 19.2457 27.7235 19.3956 27.6614C19.5838 27.5835 19.7854 27.5434 19.989 27.5434C20.1927 27.5434 20.3943 27.5835 20.5824 27.6614C20.7706 27.7394 20.9415 27.8536 21.0855 27.9976C21.2295 28.1416 21.3437 28.3125 21.4216 28.5006C21.4995 28.6888 21.5396 28.8904 21.5396 29.094C21.5396 29.2976 21.4995 29.4993 21.4216 29.6874C21.3437 29.8755 21.2295 30.0465 21.0855 30.1905L21.0854 30.1905L18.3964 32.8805L18.3964 32.8805L18.3916 32.8854C18.2443 33.0368 18.0674 33.1562 17.8718 33.236C17.6763 33.3158 17.4664 33.3543 17.2552 33.3492L17.2552 33.349H17.243C17.2163 33.349 17.1935 33.3507 17.1767 33.3523C17.1678 33.3532 17.1593 33.3542 17.153 33.355H14.073C13.6569 33.355 13.2578 33.1897 12.9636 32.8955C12.6693 32.6012 12.504 32.2021 12.504 31.786C12.504 31.3699 12.6693 30.9708 12.9636 30.6766C13.2578 30.3823 13.6569 30.217 14.073 30.217H16.473H16.6801L16.8266 30.0706L18.8956 28.0016ZM29.662 14.937L30.6993 15.431L29.662 15.9251V14.937ZM33.0248 15.431L34.062 14.937V15.9251L33.0248 15.431ZM35.5 21.855C35.5 23.8642 33.8712 25.493 31.862 25.493C29.8528 25.493 28.224 23.8642 28.224 21.855C28.224 19.8458 29.8528 18.217 31.862 18.217C33.8712 18.217 35.5 19.8458 35.5 21.855Z" stroke="#333333"/>
</svg>
