<svg width="48" height="48" viewBox="0 0 48 48" fill="none" xmlns="http://www.w3.org/2000/svg">
<path fill-rule="evenodd" clip-rule="evenodd" d="M48 0H0V48H48V0ZM34.5619 14.6202C34.5619 14.3997 34.332 14.2545 34.1329 14.3494L31.8619 15.431L29.5909 14.3494C29.3918 14.2545 29.1619 14.3997 29.1619 14.6202V16.2418C29.1619 16.4624 29.3918 16.6075 29.5909 16.5127L31.8619 15.431L34.1329 16.5127C34.332 16.6075 34.5619 16.4624 34.5619 16.2418V14.6202ZM31.8619 25.993C34.1473 25.993 35.9999 24.1404 35.9999 21.855C35.9999 19.5697 34.1473 17.717 31.8619 17.717C29.5766 17.717 27.7239 19.5697 27.7239 21.855C27.7239 24.1404 29.5766 25.993 31.8619 25.993ZM33.9309 29.717H32.5619L30.2999 27.452C29.9403 26.8755 29.439 26.4007 28.8438 26.0728C28.2486 25.7449 27.5794 25.5749 26.8999 25.579H22.5519L22.9659 33.855H26.6899C27.2419 33.8545 27.7881 33.7432 28.2962 33.5276C28.8043 33.312 29.264 32.9966 29.6479 32.6L30.2859 33.238C30.4811 33.439 30.7157 33.5973 30.9751 33.7032C31.2344 33.809 31.5129 33.86 31.7929 33.853C31.8049 33.853 31.8162 33.8545 31.8274 33.856C31.8387 33.8575 31.8499 33.859 31.8619 33.859H33.9309C34.4796 33.859 35.0059 33.641 35.3939 33.253C35.7819 32.865 35.9999 32.3388 35.9999 31.79C35.9999 31.2413 35.7819 30.715 35.3939 30.327C35.0059 29.939 34.4796 29.721 33.9309 29.721V29.717ZM16.4729 29.717L18.5419 27.648L18.5389 27.644C18.7293 27.4536 18.9554 27.3026 19.2042 27.1995C19.453 27.0965 19.7196 27.0434 19.9889 27.0434C20.2582 27.0434 20.5249 27.0965 20.7736 27.1995C21.0224 27.3026 21.2485 27.4536 21.4389 27.644C21.6293 27.8344 21.7804 28.0605 21.8834 28.3093C21.9865 28.5581 22.0395 28.8247 22.0395 29.094C22.0395 29.3633 21.9865 29.63 21.8834 29.8788C21.7804 30.1275 21.6293 30.3536 21.4389 30.544L18.7499 33.234C18.5546 33.4348 18.32 33.5931 18.0606 33.6989C17.8013 33.8047 17.5229 33.8559 17.2429 33.849C17.231 33.849 17.2199 33.8505 17.2086 33.852C17.1972 33.8535 17.1855 33.855 17.1729 33.855H14.0729C13.5242 33.855 12.9979 33.637 12.6099 33.249C12.2219 32.861 12.0039 32.3348 12.0039 31.786C12.0039 31.2373 12.2219 30.711 12.6099 30.323C12.9979 29.935 13.5242 29.717 14.0729 29.717H16.4729Z" fill="#333333"/>
</svg>
