<svg width="48" height="48" viewBox="0 0 48 48" fill="none" xmlns="http://www.w3.org/2000/svg">
<path fill-rule="evenodd" clip-rule="evenodd" d="M19.7873 31.4943C18.0852 32.7272 17.0007 34.6757 17.0007 36.8566C17.0007 37.6143 17.1601 38.7537 17.565 39.6649C17.9758 40.5894 18.4908 40.9995 19.1118 40.9995C19.8214 40.9995 20.3341 40.4539 20.3341 39.8566C20.3341 39.5826 20.2226 39.3085 19.9822 38.7894C19.9751 38.774 19.9679 38.7584 19.9605 38.7426C19.7518 38.2929 19.4452 37.6322 19.4452 36.8566C19.4452 35.9938 19.8554 35.1155 20.2969 34.4394C20.7503 33.7449 21.3498 33.0914 21.9338 32.6895L23.0677 34.337C22.7483 34.5568 22.32 34.9991 21.9715 35.5328C21.611 36.085 21.4452 36.5676 21.4452 36.8566C21.4452 37.1508 21.561 37.4392 21.7971 37.9489C21.8066 37.9695 21.8164 37.9906 21.8264 38.0122C22.0315 38.4531 22.3341 39.1037 22.3341 39.8566C22.3341 41.6263 20.8569 42.9995 19.1118 42.9995C17.3192 42.9995 16.2787 41.6954 15.7373 40.477C15.1901 39.2454 15.0007 37.8133 15.0007 36.8566C15.0007 33.9896 16.4301 31.4565 18.6141 29.8746L19.7873 31.4943ZM31.0007 36.8566C31.0007 34.6757 29.9163 32.7272 28.2141 31.4943L29.3873 29.8746C31.5714 31.4565 33.0007 33.9896 33.0007 36.8566C33.0007 37.7437 32.7884 39.1707 32.2391 40.4103C31.7069 41.611 30.6763 42.9995 28.8896 42.9995C27.1446 42.9995 25.6674 41.6263 25.6674 39.8566C25.6674 39.1193 25.9683 38.4651 26.1714 38.0235C26.1821 38.0003 26.1925 37.9777 26.2026 37.9557C26.4399 37.4371 26.5563 37.1427 26.5563 36.8566C26.5563 36.5676 26.3904 36.085 26.0299 35.5328C25.6814 34.9991 25.2531 34.5568 24.9338 34.337L26.0677 32.6895C26.6517 33.0914 27.2511 33.7449 27.7046 34.4394C28.146 35.1155 28.5563 35.9938 28.5563 36.8566C28.5563 37.6214 28.2505 38.288 28.043 38.7403C28.0356 38.7565 28.0283 38.7724 28.0211 38.788C27.7785 39.3181 27.6674 39.595 27.6674 39.8566C27.6674 40.4539 28.18 40.9995 28.8896 40.9995C29.4487 40.9995 29.9736 40.5859 30.4106 39.5999C30.8304 38.6527 31.0007 37.5082 31.0007 36.8566Z" fill="#333333"/>
<path fill-rule="evenodd" clip-rule="evenodd" d="M24.0007 15.9999C25.9337 15.9999 27.5007 14.4329 27.5007 12.4999C27.5007 10.5669 25.9337 8.99987 24.0007 8.99987C22.0677 8.99987 20.5007 10.5669 20.5007 12.4999C20.5007 14.4329 22.0677 15.9999 24.0007 15.9999ZM24.0007 17.9999C27.0383 17.9999 29.5007 15.5374 29.5007 12.4999C29.5007 9.46231 27.0383 6.99987 24.0007 6.99987C20.9632 6.99987 18.5007 9.46231 18.5007 12.4999C18.5007 15.5374 20.9632 17.9999 24.0007 17.9999Z" fill="#333333"/>
<path fill-rule="evenodd" clip-rule="evenodd" d="M33.965 20.7349C33.8186 20.2023 33.2682 19.8893 32.7357 20.0356C29.2711 20.9879 26.6244 21.4254 24.0048 21.4143C21.3819 21.4032 18.7311 20.9424 15.2539 20.0325C14.7196 19.8926 14.1731 20.2124 14.0333 20.7467C13.8935 21.281 14.2133 21.8275 14.7476 21.9673C16.3451 22.3853 17.797 22.7176 19.1728 22.9578C19.6515 23.0414 20.0008 23.457 20.0008 23.9429V29.9403C20.0008 30.0301 20.0676 30.4148 20.3548 30.8784C20.6254 31.3152 21.0605 31.7687 21.7282 32.066C21.9478 32.1638 22.1885 32.2833 22.3846 32.3807L22.5114 32.4436C22.7569 32.5649 22.9759 32.6703 23.1909 32.7614C23.6567 32.9588 23.905 32.9999 24.0008 32.9999C24.0966 32.9999 24.3449 32.9588 24.8107 32.7614C25.0254 32.6704 25.244 32.5652 25.4891 32.4441M25.4902 32.4436L25.6168 32.3807C25.813 32.2833 26.0538 32.1638 26.2734 32.066C26.9411 31.7687 27.3761 31.3152 27.6468 30.8784C27.934 30.4148 28.0008 30.0301 28.0008 29.9403V23.9695C28.0008 23.4834 28.3504 23.0677 28.8294 22.9843C30.2066 22.7447 31.6621 22.4049 33.2658 21.9641C33.7983 21.8178 34.1113 21.2674 33.965 20.7349M32.2057 18.1072C33.8033 17.6681 35.4544 18.6072 35.8935 20.2048C36.3326 21.8024 35.3934 23.4535 33.7958 23.8926C32.4583 24.2602 31.2047 24.5641 30.0008 24.801V29.9403C30.0008 30.4836 29.7824 31.2289 29.3469 31.9318C28.8947 32.6615 28.1695 33.411 27.087 33.893C26.9096 33.972 26.7041 34.0739 26.4972 34.1766L26.3766 34.2364C26.1248 34.3609 25.8625 34.4879 25.5909 34.6029C25.0417 34.8357 24.4983 34.9999 24.0008 34.9999C23.5033 34.9999 22.9599 34.8357 22.4107 34.6029C22.1391 34.4879 21.8768 34.3609 21.625 34.2364L21.5049 34.1769C21.298 34.0741 21.092 33.972 20.9146 33.893C19.8321 33.411 19.1068 32.6615 18.6547 31.9318C18.2192 31.2289 18.0008 30.4836 18.0008 29.9403V24.7747C16.8066 24.5415 15.5643 24.2484 14.2413 23.9022C12.6384 23.4827 11.679 21.8433 12.0985 20.2404C12.5179 18.6375 14.1573 17.6782 15.7602 18.0976C19.1627 18.988 21.6297 19.4042 24.0132 19.4143C26.387 19.4243 28.8416 19.0318 32.2057 18.1072Z" fill="#333333"/>
<path d="M24.0002 4.99987L18.7502 6.73192V3.26782L24.0002 4.99987Z" fill="#333333"/>
<path d="M24.0002 4.99987L29.2502 6.73192V3.26782L24.0002 4.99987Z" fill="#333333"/>
</svg>
