<svg width="48" height="48" viewBox="0 0 48 48" fill="none" xmlns="http://www.w3.org/2000/svg">
<path fill-rule="evenodd" clip-rule="evenodd" d="M17.8 27.6001C19.1255 28.5942 19.3941 30.4746 18.4 31.8001L15.4 35.8001C14.8334 36.5555 13.9443 37.0001 13 37.0001H9C7.34315 37.0001 6 35.657 6 34.0001C6 32.3433 7.34315 31.0001 9 31.0001H11.5L13.6 28.2001C14.5941 26.8746 16.4745 26.606 17.8 27.6001Z" fill="#333333"/>
<path d="M39.4739 31.3935H36.2698L35.7002 31.1314C34.2405 29.5094 31.876 25.9828 29.895 24.7721C29.0571 24.2598 28.1151 23.9941 27.1586 24.0002H21.5L22.0859 37.0001H26.8158C27.5967 36.9987 28.3693 36.8232 29.0877 36.4838C29.8066 36.1443 30.4565 35.6478 30.999 35.0239L31.5684 34.3687C32.2876 35.1679 32.9516 37.0001 34.0188 37.0001H39.6078C40.2779 37.0001 40.7864 36.7048 41.2602 36.1791C41.7339 35.6533 42 34.9403 42 34.1968C42 33.4534 41.7339 32.7403 41.2602 32.2147C40.7864 31.6888 40.144 31.3935 39.4739 31.3935Z" fill="#333333"/>
<path d="M40 16.5001C40 20.09 37.0899 23.0001 33.5 23.0001C29.9101 23.0001 27 20.09 27 16.5001C27 12.9103 29.9101 10.0001 33.5 10.0001C37.0899 10.0001 40 12.9103 40 16.5001Z" fill="#333333"/>
<path fill-rule="evenodd" clip-rule="evenodd" d="M33.5 21.0001C35.9853 21.0001 38 18.9854 38 16.5001C38 14.0148 35.9853 12.0001 33.5 12.0001C31.0147 12.0001 29 14.0148 29 16.5001C29 18.9854 31.0147 21.0001 33.5 21.0001ZM33.5 23.0001C37.0899 23.0001 40 20.09 40 16.5001C40 12.9103 37.0899 10.0001 33.5 10.0001C29.9101 10.0001 27 12.9103 27 16.5001C27 20.09 29.9101 23.0001 33.5 23.0001Z" fill="#333333"/>
<path d="M33 8.00012L27.75 9.73217V6.26807L33 8.00012Z" fill="#333333"/>
<path d="M33 8.00012L38.25 9.73217V6.26807L33 8.00012Z" fill="#333333"/>
</svg>
