<svg width="48" height="48" viewBox="0 0 48 48" fill="none" xmlns="http://www.w3.org/2000/svg">
<path fill-rule="evenodd" clip-rule="evenodd" d="M48 0H0V48H48V0ZM26.4032 19.6596C25.6918 20.1347 24.8555 20.3882 24.0001 20.388C23.4321 20.388 22.8698 20.2761 22.3451 20.0587C21.8204 19.8414 21.3437 19.5228 20.9422 19.1212C20.5406 18.7195 20.2222 18.2427 20.0049 17.718C19.7877 17.1933 19.6759 16.6309 19.6761 16.063C19.6761 15.2075 19.9297 14.3713 20.405 13.66C20.8803 12.9488 21.5558 12.3944 22.3462 12.0671C23.1365 11.7398 24.0062 11.6542 24.8452 11.8212C25.6842 11.9881 26.4548 12.4001 27.0596 13.0051C27.6645 13.6101 28.0763 14.3808 28.2431 15.2198C28.4098 16.0589 28.324 16.9285 27.9965 17.7188C27.669 18.5091 27.1145 19.1845 26.4032 19.6596ZM30.2501 22.955L33.2701 26.862C33.4401 27.0722 33.5658 27.3147 33.6394 27.5749C33.7131 27.835 33.7333 28.1074 33.6987 28.3756C33.6641 28.6438 33.5755 28.9022 33.4382 29.1351C33.301 29.3681 33.1179 29.5708 32.9001 29.731C32.4428 29.9777 31.9197 30.0749 31.4044 30.0088C30.8891 29.9428 30.4074 29.717 30.0271 29.363L29.8001 29.07H18.1981L17.9711 29.363C17.5907 29.717 17.1091 29.9428 16.5937 30.0088C16.0784 30.0749 15.5553 29.9777 15.0981 29.731C14.8798 29.5706 14.6964 29.3676 14.5589 29.1342C14.4215 28.9008 14.3328 28.642 14.2984 28.3733C14.264 28.1047 14.2845 27.8318 14.3587 27.5714C14.4329 27.3109 14.5593 27.0682 14.7301 26.858L17.7501 22.951C17.8998 22.6659 18.1163 22.4214 18.3812 22.2383C18.6461 22.0553 18.9515 21.9392 19.2711 21.9C19.3061 21.895 19.3301 21.893 19.3761 21.89C19.3953 21.8887 19.4141 21.8861 19.433 21.8834C19.4595 21.8797 19.4861 21.876 19.5141 21.876H28.4861C28.5175 21.876 28.5521 21.8807 28.5819 21.8848C28.5976 21.887 28.612 21.8889 28.6241 21.89C28.6368 21.8911 28.6495 21.8927 28.6622 21.8943C28.6845 21.8971 28.7068 21.9 28.7291 21.9C29.049 21.9396 29.3546 22.0563 29.6195 22.2401C29.8845 22.4238 30.1008 22.6692 30.2501 22.955ZM30.3001 31.364C30.0831 30.8659 29.6772 30.4744 29.1716 30.2756C28.666 30.0768 28.1021 30.087 27.6041 30.304C27.106 30.5209 26.7145 30.9268 26.5157 31.4324C26.3169 31.938 26.3271 32.5019 26.5441 33L27.7151 35.682L26.8371 37.92C26.6368 38.4309 26.6477 39.0005 26.8674 39.5034C27.0871 40.0062 27.4976 40.4012 28.0086 40.6015C28.5195 40.8017 29.089 40.7908 29.5919 40.5711C30.0948 40.3514 30.4898 39.9409 30.6901 39.43L31.8231 36.541C31.8279 36.5291 31.8307 36.5173 31.8335 36.5054C31.8359 36.4953 31.8384 36.4851 31.8421 36.475C31.951 36.2168 32.0053 35.9389 32.0015 35.6587C31.9977 35.3785 31.9359 35.1021 31.8201 34.847L30.3001 31.364ZM19.6169 30.1195C19.8879 30.1282 20.1544 30.192 20.4001 30.307C20.6503 30.4095 20.8771 30.5616 21.0668 30.7542C21.2566 30.9468 21.4053 31.1759 21.504 31.4276C21.6027 31.6793 21.6493 31.9485 21.6411 32.2187C21.6329 32.489 21.5699 32.7547 21.4561 33L20.2851 35.681L21.1631 37.919C21.2792 38.1699 21.3408 38.4426 21.3438 38.719C21.3469 38.9955 21.2912 39.2695 21.1805 39.5228C21.0699 39.7762 20.9067 40.0032 20.7018 40.1889C20.497 40.3746 20.2551 40.5147 19.9921 40.6C19.7414 40.7164 19.4688 40.7783 19.1925 40.7817C18.9161 40.785 18.6421 40.7297 18.3887 40.6195C18.1352 40.5092 17.9081 40.3464 17.7221 40.1419C17.5362 39.9374 17.3958 39.6958 17.3101 39.433L16.1771 36.544C16.1722 36.5321 16.1694 36.5203 16.1666 36.5084C16.1642 36.4983 16.1617 36.4881 16.1581 36.478C16.0491 36.2198 15.9948 35.9419 15.9986 35.6617C16.0024 35.3815 16.0642 35.1051 16.1801 34.85L17.7001 31.364C17.8024 31.1128 17.9547 30.885 18.1478 30.6946C18.3409 30.5041 18.5707 30.3549 18.8232 30.256C19.0758 30.1572 19.3458 30.1107 19.6169 30.1195Z" fill="#333333"/>
</svg>
