<svg width="48" height="48" viewBox="0 0 48 48" fill="none" xmlns="http://www.w3.org/2000/svg">
<path d="M24.0002 19.663H24C23.4978 19.663 23.0005 19.5641 22.5365 19.3718C22.0724 19.1796 21.6509 18.8979 21.2957 18.5427C20.9406 18.1875 20.659 17.7658 20.4669 17.3018C20.2747 16.8377 20.1759 16.3404 20.176 15.8381V15.838C20.176 15.0815 20.4004 14.3419 20.8207 13.7129C21.2411 13.0838 21.8385 12.5936 22.5375 12.3041C23.2365 12.0146 24.0056 11.9389 24.7476 12.0866C25.4896 12.2342 26.1711 12.5986 26.706 13.1336C27.2409 13.6687 27.6052 14.3503 27.7527 15.0923C27.9001 15.8344 27.8243 16.6035 27.5346 17.3024C27.245 18.0013 26.7546 18.5986 26.1255 19.0188C25.4963 19.439 24.7567 19.6632 24.0002 19.663ZM32.8744 26.9428L32.8743 26.9429L32.8818 26.9521C33.0098 27.1098 33.1045 27.2919 33.16 27.4874C33.2155 27.6828 33.2308 27.8874 33.2048 28.0889C33.1789 28.2904 33.1123 28.4846 33.009 28.6595C32.9116 28.8247 32.7834 28.9696 32.6315 29.0864C32.2738 29.2713 31.8679 29.3432 31.4679 29.2919C31.0689 29.2408 30.6952 29.0698 30.396 28.8019L30.1953 28.5428L30.0452 28.349H29.8H18.2H17.9549L17.8048 28.5428L17.6041 28.8019C17.3048 29.0698 16.9311 29.2408 16.5322 29.2919C16.1321 29.3432 15.7263 29.2713 15.3685 29.0864C15.2167 28.9696 15.0885 28.8247 14.991 28.6595C14.8878 28.4846 14.8212 28.2904 14.7952 28.0889C14.7693 27.8874 14.7845 27.6828 14.8401 27.4874C14.8956 27.2919 14.9902 27.1098 15.1183 26.9521L15.1184 26.9522L15.1256 26.9428L18.1456 23.0358L18.1724 23.0012L18.1927 22.9625C18.3048 22.749 18.4671 22.5658 18.6655 22.4287C18.8639 22.2916 19.0926 22.2047 19.3319 22.1753L19.3708 22.1705L19.3735 22.1697C19.3833 22.1694 19.3952 22.1688 19.4086 22.168C19.4343 22.1663 19.4569 22.1637 19.4738 22.1615C19.4846 22.1601 19.4986 22.1582 19.5068 22.157C19.5092 22.1567 19.5112 22.1564 19.5123 22.1562C19.5166 22.1556 19.5197 22.1553 19.5217 22.155H28.4809C28.4837 22.1553 28.4882 22.1558 28.4957 22.1567L28.528 22.1611C28.5398 22.1627 28.5598 22.1653 28.5813 22.1672C28.5811 22.1672 28.5829 22.1673 28.5891 22.1681L28.6003 22.1695L28.6163 22.1715C28.6321 22.1734 28.6578 22.1764 28.6888 22.178C28.9207 22.2097 29.1419 22.2956 29.3346 22.4287C29.533 22.5658 29.6952 22.749 29.8074 22.9625L29.8277 23.0012L29.8544 23.0358L32.8744 26.9428ZM31.3617 34.8249L31.3617 34.8249L31.3649 34.832C31.4525 35.0245 31.4991 35.233 31.502 35.4445C31.5048 35.6559 31.4638 35.8656 31.3815 36.0604L31.3765 36.0721L31.3721 36.0841C31.3634 36.1083 31.3574 36.1292 31.3535 36.1438L31.3501 36.1575L30.2246 39.0275L30.2245 39.0276C30.0727 39.415 29.7731 39.7263 29.3917 39.8929C29.0104 40.0595 28.5785 40.0678 28.191 39.916C27.8035 39.7641 27.4922 39.4646 27.3256 39.0832C27.159 38.7019 27.1507 38.2699 27.3026 37.8825L28.1824 35.6428L28.2582 35.4499L28.1753 35.2599L27.0043 32.5779C26.84 32.2017 26.8319 31.7755 26.9818 31.3933C27.1317 31.0111 27.4273 30.704 27.8036 30.5397C28.1799 30.3755 28.606 30.3674 28.9883 30.5173C29.3705 30.6672 29.6775 30.9628 29.8418 31.3391L31.3617 34.8249ZM20.1881 30.5349L20.1994 30.5402L20.211 30.5449C20.3992 30.6217 20.5697 30.736 20.7123 30.8807C20.855 31.0254 20.9667 31.1976 21.0408 31.3869C21.1149 31.5761 21.1497 31.7784 21.1432 31.9815C21.1367 32.1846 21.089 32.3843 21.003 32.5684L21.0029 32.5683L20.9978 32.5799L19.8268 35.2619L19.7439 35.4518L19.8196 35.6446L20.6976 37.8826L20.7029 37.8963L20.7091 37.9096C20.7953 38.0963 20.841 38.2991 20.8431 38.5047C20.8452 38.7103 20.8037 38.914 20.7213 39.1024C20.639 39.2908 20.5177 39.4596 20.3653 39.5976C20.213 39.7357 20.0331 39.84 19.8376 39.9035L19.809 39.9127L19.7818 39.9254C19.595 40.012 19.392 40.0579 19.1861 40.0602C18.9803 40.0625 18.7763 40.0211 18.5876 39.9388C18.399 39.8564 18.2299 39.7349 18.0917 39.5824C17.9534 39.4298 17.8491 39.2497 17.7857 39.0539L17.781 39.0395L17.7755 39.0255L16.65 36.1555L16.6465 36.1418C16.6427 36.1272 16.6367 36.1063 16.6279 36.0821L16.6236 36.0703L16.6187 36.0586C16.5366 35.8641 16.4957 35.6546 16.4985 35.4435C16.5014 35.2323 16.5479 35.0241 16.6353 34.8318L16.6353 34.8318L16.6384 34.8249L18.1584 31.3389L18.1585 31.3389L18.1631 31.3276C18.2398 31.1392 18.3541 30.9684 18.4989 30.8256C18.6437 30.6827 18.8161 30.5708 19.0055 30.4967C19.1949 30.4225 19.3974 30.3877 19.6007 30.3942C19.804 30.4008 20.0039 30.4487 20.1881 30.5349ZM26.2 9.23005L25.1628 8.73601L26.2 8.24198V9.23005ZM21.8 8.24198L22.8373 8.73601L21.8 9.23005V8.24198Z" stroke="#333333"/>
</svg>
