<svg width="48" height="48" viewBox="0 0 48 48" fill="none" xmlns="http://www.w3.org/2000/svg">
<path d="M24.0002 19.888H24.0001C23.4978 19.888 23.0005 19.789 22.5365 19.5968C22.0725 19.4046 21.6509 19.1228 21.2958 18.7676C20.9407 18.4125 20.659 17.9908 20.4669 17.5267C20.2748 17.0627 20.1759 16.5653 20.1761 16.0631V16.063C20.1761 15.3064 20.4004 14.5669 20.8207 13.9378C21.2411 13.3088 21.8385 12.8185 22.5375 12.5291C23.2365 12.2396 24.0056 12.1639 24.7476 12.3115C25.4896 12.4592 26.1711 12.8236 26.706 13.3586C27.2409 13.8936 27.6052 14.5753 27.7527 15.3173C27.9002 16.0593 27.8243 16.8284 27.5346 17.5274C27.245 18.2263 26.7546 18.8236 26.1255 19.2438C25.4963 19.664 24.7567 19.8882 24.0002 19.888ZM32.8745 27.1678L32.8744 27.1678L32.8813 27.1764C33.0089 27.3341 33.1031 27.516 33.1584 27.7111C33.2136 27.9062 33.2287 28.1105 33.2028 28.3117C33.1768 28.5128 33.1104 28.7066 33.0074 28.8813C32.9103 29.0461 32.7826 29.1908 32.6313 29.3075C32.2736 29.4923 31.8678 29.5641 31.4679 29.5129C31.069 29.4618 30.6952 29.2907 30.396 29.0228L30.1953 28.7638L30.0452 28.57H29.8001H18.1981H17.9529L17.8028 28.7638L17.6021 29.0228C17.3029 29.2907 16.9291 29.4618 16.5302 29.5129C16.1302 29.5641 15.7244 29.4923 15.3667 29.3074C15.215 29.1906 15.087 29.0457 14.9897 28.8805C14.8867 28.7054 14.8202 28.5113 14.7944 28.3098C14.7686 28.1083 14.784 27.9037 14.8396 27.7083C14.8953 27.513 14.99 27.3309 15.1181 27.1733L15.1182 27.1734L15.1256 27.1638L18.1456 23.2568L18.1724 23.2222L18.1927 23.1835C18.3049 22.9699 18.4671 22.7868 18.6655 22.6497C18.8639 22.5126 19.0926 22.4256 19.3319 22.3963L19.332 22.3964L19.3418 22.395C19.358 22.3926 19.3672 22.3916 19.4086 22.3889C19.4343 22.3872 19.4569 22.3846 19.4738 22.3825C19.4846 22.3811 19.4986 22.3791 19.5068 22.378C19.5093 22.3776 19.5112 22.3774 19.5123 22.3772C19.5166 22.3766 19.5197 22.3762 19.5217 22.376H28.4809C28.4837 22.3762 28.4882 22.3767 28.4957 22.3777L28.528 22.3821C28.5398 22.3837 28.5599 22.3863 28.5813 22.3882C28.5812 22.3881 28.5817 22.3882 28.5831 22.3883C28.5843 22.3885 28.5863 22.3887 28.5892 22.3891L28.6003 22.3905L28.6163 22.3925C28.632 22.3944 28.6576 22.3973 28.6884 22.3989C28.9205 22.431 29.1419 22.5173 29.3346 22.6509C29.533 22.7886 29.6951 22.9723 29.8068 23.1864L29.8273 23.2257L29.8545 23.2608L32.8745 27.1678ZM29.8417 31.5636L29.8418 31.564L31.3618 35.047L31.3617 35.047L31.3648 35.0538C31.4521 35.246 31.4987 35.4543 31.5016 35.6654C31.5044 35.8766 31.4635 36.086 31.3814 36.2806L31.3765 36.2922L31.3722 36.3041C31.3634 36.3283 31.3574 36.3491 31.3536 36.3638L31.3501 36.3775L30.2246 39.2474L30.2245 39.2475C30.0727 39.635 29.7731 39.9463 29.3918 40.1129C29.0104 40.2795 28.5785 40.2878 28.191 40.136C27.8035 39.9841 27.4922 39.6845 27.3256 39.3032C27.159 38.9219 27.1507 38.49 27.3025 38.1026C27.3025 38.1025 27.3026 38.1025 27.3026 38.1024L28.1805 35.8646L28.2562 35.6717L28.1733 35.4819L27.0025 32.8003C27.0024 32.8002 27.0024 32.8002 27.0024 32.8001C26.8385 32.4237 26.8308 31.9975 26.981 31.6154C27.1313 31.2332 27.4272 30.9264 27.8037 30.7624C28.1802 30.5984 28.6064 30.5907 28.9886 30.7409C29.3708 30.8912 29.6777 31.1871 29.8417 31.5636ZM20.1881 30.7598L20.1992 30.765L20.2105 30.7697C20.3982 30.8465 20.5683 30.9606 20.7106 31.1051C20.8529 31.2496 20.9645 31.4214 21.0385 31.6102C21.1125 31.799 21.1475 32.0008 21.1413 32.2035C21.1352 32.4062 21.0879 32.6055 21.0025 32.7894L21.0024 32.7894L20.9979 32.7998L19.8269 35.4808L19.7439 35.6707L19.8196 35.8636L20.6976 38.1016L20.703 38.1155L20.7093 38.129C20.7958 38.3158 20.8416 38.5187 20.8439 38.7245C20.8461 38.9302 20.8047 39.1341 20.7223 39.3227C20.64 39.5113 20.5185 39.6802 20.3661 39.8184C20.2136 39.9566 20.0335 40.0609 19.8378 40.1244L19.809 40.1337L19.7815 40.1465C19.5949 40.2331 19.3921 40.2792 19.1864 40.2817C18.9807 40.2842 18.7768 40.2431 18.5882 40.161C18.3995 40.0789 18.2305 39.9578 18.0921 39.8056C17.9537 39.6533 17.8492 39.4735 17.7854 39.2779L17.7809 39.264L17.7755 39.2504L16.65 36.3805L16.6465 36.3668C16.6427 36.3521 16.6367 36.3312 16.6279 36.3071L16.6236 36.2952L16.6187 36.2836C16.5366 36.089 16.4957 35.8796 16.4985 35.6684C16.5014 35.4573 16.548 35.249 16.6353 35.0568L16.6353 35.0568L16.6384 35.0498L18.1584 31.5638L18.1585 31.5639L18.1631 31.5526C18.2398 31.3642 18.3541 31.1934 18.4989 31.0505C18.6437 30.9077 18.8161 30.7958 19.0055 30.7216C19.1949 30.6475 19.3974 30.6126 19.6007 30.6192C19.804 30.6258 20.0039 30.6736 20.1881 30.7598Z" stroke="#333333"/>
</svg>
