<svg width="48" height="48" viewBox="0 0 48 48" fill="none" xmlns="http://www.w3.org/2000/svg">
<path d="M35 9.00012L29.75 10.7322V7.26807L35 9.00012Z" fill="#333333"/>
<path d="M35 9.00012L40.25 10.7322V7.26807L35 9.00012Z" fill="#333333"/>
<path fill-rule="evenodd" clip-rule="evenodd" d="M42 17.5001C42 21.09 39.0899 24.0001 35.5 24.0001C31.9101 24.0001 29 21.09 29 17.5001C29 13.9103 31.9101 11.0001 35.5 11.0001C39.0899 11.0001 42 13.9103 42 17.5001ZM40 17.5001C40 19.9854 37.9853 22.0001 35.5 22.0001C33.0147 22.0001 31 19.9854 31 17.5001C31 15.0148 33.0147 13.0001 35.5 13.0001C37.9853 13.0001 40 15.0148 40 17.5001Z" fill="#333333"/>
<path fill-rule="evenodd" clip-rule="evenodd" d="M30.6606 25.0299C29.761 24.5223 28.748 24.2579 27.7181 24.2634H22.4465L22.5014 25.3154C22.7634 30.344 22.8943 33.0258 22.9597 34.4497C22.9924 35.1617 23.0087 35.5575 23.0167 35.7741C23.0207 35.8824 23.0226 35.9446 23.0235 35.9782L23.0242 36.0065L23.0243 37.0001H27.4159C29.1133 36.9973 30.4454 36.2815 31.5421 35.3345C31.6386 35.4755 31.743 35.6248 31.8482 35.764C32.1852 36.2098 32.842 37.0001 33.859 37.0001H38.8596C40.7299 37.0001 42 35.2767 42 33.6849C42 31.9312 40.5817 30.3696 38.7398 30.3696H36.092C35.2782 29.9614 34.6093 29.1741 33.793 28.132C33.7424 28.0674 33.6911 28.0017 33.6391 27.9351C32.8635 26.9407 31.9329 25.7477 30.6606 25.0299ZM29.6777 26.7718C29.0789 26.4338 28.4074 26.2594 27.7268 26.2634L27.7209 26.2634L24.5533 26.2634C24.7793 30.6224 24.8967 33.0311 24.9576 34.3579C24.9691 34.6084 24.9786 34.8206 24.9865 35.0001H27.4125C28.7706 34.9977 29.8501 34.2971 30.9385 33.1413L31.654 32.3814L32.3826 33.1288C32.6097 33.3618 32.8101 33.645 32.9707 33.8789C33.0179 33.9477 33.0624 34.0133 33.1052 34.0763C33.2237 34.251 33.3292 34.4066 33.4437 34.558C33.7112 34.9119 33.8449 34.9839 33.8703 34.9976C33.8727 34.9989 33.8746 35.0001 33.8746 35.0001H38.8596C39.403 35.0001 40 34.4084 40 33.6849C40 32.9634 39.4061 32.3696 38.7398 32.3696H35.6694L35.4821 32.29C34.0394 31.6772 33.0396 30.4135 32.2185 29.3654L32.1499 29.2777C31.2937 28.1842 30.5911 27.287 29.6777 26.7718Z" fill="#333333"/>
<path fill-rule="evenodd" clip-rule="evenodd" d="M14.2 27.4003L12.25 30.0003H9.5C7.567 30.0003 6 31.5673 6 33.5003C6 35.4333 7.567 37.0003 9.5 37.0003H14C15.1017 37.0003 16.139 36.4816 16.8 35.6003L19.8 31.6003C20.9598 30.0539 20.6464 27.8601 19.1 26.7003C17.5536 25.5405 15.3598 25.8539 14.2 27.4003ZM15.8 28.6003L13.25 32.0003H9.5C8.67157 32.0003 8 32.6719 8 33.5003C8 34.3288 8.67157 35.0003 9.5 35.0003H14C14.4721 35.0003 14.9167 34.778 15.2 34.4003L18.2 30.4003C18.6971 29.7376 18.5627 28.7974 17.9 28.3003C17.2373 27.8033 16.2971 27.9376 15.8 28.6003Z" fill="#333333"/>
</svg>
