<svg width="48" height="48" viewBox="0 0 48 48" fill="none" xmlns="http://www.w3.org/2000/svg">
<path fill-rule="evenodd" clip-rule="evenodd" d="M23.9999 17C26.2092 17 28 15.2091 28 13C28 10.7909 26.2092 8.99997 23.9999 8.99997C21.7909 8.99997 20 10.7908 20 13C20 15.2092 21.7908 17 23.9999 17ZM30 13C30 16.3137 27.3138 19 23.9999 19C20.6862 19 18 16.3137 18 13C18 9.68632 20.6862 6.99997 23.9999 6.99997C27.3138 6.99997 30 9.68632 30 13Z" fill="#333333"/>
<path fill-rule="evenodd" clip-rule="evenodd" d="M32.4317 17.0979C32.779 17.2641 33 17.615 33 18H32C33 18 33 18 33 18V34.0413C33 36.2298 32.3134 37.4678 30.8134 39.1733C29.2949 40.8998 27.0121 42 24 42C17.791 42 15 36.8335 15 33.0413V18.0006C15 18.0006 15 18 16 18L15 18.0006C15 17.6213 15.2146 17.274 15.5541 17.1049C15.8936 16.9358 16.2996 16.9733 16.6023 17.2017C19.8107 19.6227 22.0812 20.6601 24.174 20.6549C26.2561 20.6497 28.4061 19.6109 31.3727 17.2212C31.6725 16.9797 32.0844 16.9317 32.4317 17.0979ZM17 19.9479L17 33.0413C17 36.0709 19.209 40 24 40C26.4879 40 28.2051 39.1105 29.3116 37.8525C30.4366 36.5735 31 35.8321 31 34.0413V20.0159C28.6193 21.7051 26.4612 22.6492 24.1789 22.6549C21.864 22.6606 19.5909 21.6996 17 19.9479Z" fill="#333333"/>
<path fill-rule="evenodd" clip-rule="evenodd" d="M15.6616 18.0121C15.9626 17.549 16.582 17.4177 17.045 17.7187C19.1336 19.0764 22.2588 21.7545 25.2478 24.9032C28.2343 28.0492 31.1671 30.7509 32.8046 34.1777C33.0427 34.676 32.8318 34.273 32.3335 34.5111C31.8352 34.7492 31.2382 35.5383 31 35.04C29.4947 31.8896 26.7263 29.3656 23.7973 26.2801C20.8709 23.1973 17.8664 20.6381 15.955 19.3955C15.4919 19.0945 15.3606 18.4751 15.6616 18.0121Z" fill="#333333"/>
<path d="M24 5.49997L20.25 6.799V4.20093L24 5.49997Z" fill="#333333"/>
<path d="M24 5.49997L27.75 6.799V4.20093L24 5.49997Z" fill="#333333"/>
</svg>
