<?xml version="1.0" encoding="UTF-8" standalone="no"?>
<!-- Created with Inkscape (http://www.inkscape.org/) -->
<svg id="svg8" xmlns:rdf="http://www.w3.org/1999/02/22-rdf-syntax-ns#" xmlns="http://www.w3.org/2000/svg" xmlns:osb="http://www.openswatchbook.org/uri/2009/osb" height="48" width="48" version="1.1" xmlns:cc="http://creativecommons.org/ns#" viewBox="0 0 12.7 12.7" xmlns:dc="http://purl.org/dc/elements/1.1/">
 <title id="title4753">UIO-icon</title>
 <metadata id="metadata5">
  <rdf:RDF>
   <cc:Work rdf:about="">
    <dc:format>image/svg+xml</dc:format>
    <dc:type rdf:resource="http://purl.org/dc/dcmitype/StillImage"/>
    <dc:title>UIO-icon</dc:title>
    <dc:creator>
     <cc:Agent>
      <dc:title>Joaquín Urbano</dc:title>
     </cc:Agent>
    </dc:creator>
    <dc:rights>
     <cc:Agent>
      <dc:title>GPL</dc:title>
     </cc:Agent>
    </dc:rights>
   </cc:Work>
  </rdf:RDF>
 </metadata>
 <g id="layer1" transform="translate(0,-284.3)">
  <path id="circle5040" d="m20.654 3.998c-1.064 0.0469-2.225 0.456-2.941 1.4571-0.987 1.6688 0.073 2.5066 1.555 3.0215a14.273 12.398 0 0 0 -8.856 7.9394 4.1875 4.1875 0 0 0 -0.912 -0.104 4.1875 4.1875 0 0 0 -4.1875 4.188 4.1875 4.1875 0 0 0 4.1875 4.188 4.1875 4.1875 0 0 0 1.158 -0.165 14.273 12.398 0 0 0 13.342 8.034 14.273 12.398 0 0 0 8.117 -2.209 6.8536 6.8536 0 0 0 5.029 2.209 6.8536 6.8536 0 0 0 6.854 -6.854 6.8536 6.8536 0 0 0 -1.488 -4.254 6.8536 6.8536 0 0 1 0.076 0.094 4.1875 4.1875 0 0 0 0.135 -1.043 4.1875 4.1875 0 0 0 -4.188 -4.188 4.1875 4.1875 0 0 0 -0.93 0.11 14.273 12.398 0 0 0 -13.605 -8.6622 14.273 12.398 0 0 0 -1.074 0.039c-0.878-0.6466-4.991-0.4592-3.233-2.0508 1.542-1.2654 3.714-0.6413 0.862 0.795 4.322-0.9921 2.442-2.648 0.099-2.545zm3.346 5.4629a12.315 10.697 0 0 1 12.209 9.4611 6.8536 6.8536 0 0 0 -5.916 6.781 6.8536 6.8536 0 0 0 0.791 3.188 12.315 10.697 0 0 1 -7.084 1.964 12.315 10.697 0 0 1 -12.258 -9.746 2.326 2.326 0 0 1 -2.242 1.717 2.326 2.326 0 0 1 -2.3262 -2.326 2.326 2.326 0 0 1 2.3262 -2.326 2.326 2.326 0 0 1 2.207 1.599 12.315 10.697 0 0 1 12.293 -10.312zm-3.982 7.5391a1.5082 1.5082 0 0 0 -1.508 1.508 1.5082 1.5082 0 0 0 1.508 1.508 1.5082 1.5082 0 0 0 1.507 -1.508 1.5082 1.5082 0 0 0 -1.507 -1.508zm8 0a1.5082 1.5082 0 0 0 -1.508 1.508 1.5082 1.5082 0 0 0 1.508 1.508 1.5082 1.5082 0 0 0 1.507 -1.508 1.5082 1.5082 0 0 0 -1.507 -1.508zm10.517 1.174a2.326 2.326 0 0 1 2.246 1.722 6.8536 6.8536 0 0 0 -3.635 -1.046 6.8536 6.8536 0 0 0 -0.339 0.017 6.8536 6.8536 0 0 1 0.086 -0.008 2.326 2.326 0 0 1 1.642 -0.685zm-1.389 1.736a5.7929 5.7929 0 0 1 5.793 5.793 5.7929 5.7929 0 0 1 -5.793 5.793 5.7929 5.7929 0 0 1 -5.792 -5.793 5.7929 5.7929 0 0 1 5.792 -5.793zm-0.085 1.008c-0.978 0.03-1.88 0.538-2.409 1.361-0.884 1.378-0.483 3.212 0.895 4.096 0.544 0.347 1.185 0.506 1.828 0.455l0.498 2.287-1.156-0.283 1.791 1.656 0.988-2.263-0.937 0.728-0.495-2.258c0.65-0.211 1.207-0.642 1.577-1.217 0.883-1.377 0.484-3.209-0.893-4.093-0.502-0.323-1.091-0.486-1.687-0.469zm0.085 0.701c0.433 0 0.857 0.124 1.221 0.358 1.052 0.674 1.357 2.073 0.682 3.125-0.675 1.051-2.074 1.356-3.125 0.681s-1.355-2.074-0.68-3.125c0.416-0.648 1.132-1.039 1.902-1.039zm-17.974 2.022c-0.247 0.022-0.47 0.264-0.438 0.658 0.203 1.978 2.507 3.509 5.284 3.512 2.778-0.001 5.085-1.533 5.289-3.512-1.171 1.653-3.002 2.734-5.289 2.781-2.214-0.001-4.06-1.207-4.26-2.781-0.067-0.484-0.339-0.681-0.586-0.658zm-15.172 10.359v10h40v-10h-40zm3.8672 1.096c0.8281 0 1.462 0.274 1.9004 0.82 0.4384 0.543 0.6614 1.324 0.6714 2.344v1.398c0 1.051-0.217 1.854-0.6519 2.41-0.4349 0.557-1.0716 0.836-1.9101 0.836-0.8282 0-1.4601-0.274-1.8985-0.82s-0.6634-1.328-0.6738-2.348v-1.398c0-1.061 0.2198-1.868 0.6582-2.418 0.4419-0.55 1.0762-0.824 1.9043-0.824zm6.0858 0c0.783 0 1.389 0.188 1.82 0.564 0.435 0.376 0.655 0.906 0.655 1.592 0 0.376-0.098 0.759-0.293 1.148-0.195 0.39-0.529 0.843-1.002 1.362l-1.729 1.822h3.268v1.215h-5.209v-1.033l2.459-2.62c0.337-0.368 0.586-0.691 0.746-0.966 0.164-0.275 0.246-0.535 0.246-0.782 0-0.337-0.085-0.603-0.256-0.794-0.17-0.195-0.416-0.292-0.732-0.292-0.341 0-0.61 0.119-0.809 0.356-0.195 0.233-0.291 0.539-0.291 0.922h-1.514c0-0.463 0.109-0.885 0.329-1.268 0.222-0.382 0.535-0.68 0.939-0.896 0.404-0.219 0.862-0.33 1.373-0.33zm10.344 0c0.828 0 1.462 0.274 1.9 0.82 0.439 0.543 0.664 1.324 0.674 2.344v1.398c0 1.051-0.217 1.854-0.652 2.41-0.435 0.557-1.072 0.836-1.91 0.836-0.829 0-1.462-0.274-1.901-0.82-0.438-0.546-0.663-1.328-0.674-2.348v-1.398c0-1.061 0.22-1.868 0.659-2.418 0.441-0.55 1.076-0.824 1.904-0.824zm5.998 0c0.804 0 1.433 0.194 1.889 0.58 0.455 0.383 0.683 0.911 0.683 1.586 0 0.348-0.106 0.668-0.318 0.961-0.212 0.292-0.49 0.517-0.834 0.673 0.428 0.154 0.746 0.382 0.955 0.688 0.212 0.306 0.318 0.668 0.318 1.086 0 0.675-0.248 1.216-0.742 1.623-0.491 0.407-1.14 0.611-1.951 0.611-0.759 0-1.38-0.199-1.863-0.599-0.481-0.4-0.721-0.931-0.721-1.588h1.508c0 0.285 0.106 0.518 0.318 0.699 0.216 0.181 0.48 0.272 0.793 0.272 0.358 0 0.64-0.094 0.842-0.282 0.205-0.191 0.307-0.444 0.307-0.758 0-0.758-0.417-1.136-1.252-1.136h-0.799v-1.18h0.804c0.383 0 0.666-0.096 0.85-0.287s0.277-0.445 0.277-0.762c0-0.306-0.093-0.544-0.277-0.715-0.181-0.17-0.432-0.256-0.752-0.256-0.289 0-0.53 0.081-0.725 0.241-0.194 0.156-0.293 0.361-0.293 0.615h-1.507c0-0.397 0.106-0.751 0.318-1.064 0.216-0.317 0.516-0.565 0.898-0.743 0.387-0.177 0.811-0.265 1.274-0.265zm3.898 0.105h2.047l1.951 5.512 1.942-5.512h2.056v7.598h-1.57v-2.076l0.156-3.586-2.05 5.662h-1.077l-2.046-5.656 0.158 3.58v2.076h-1.567v-7.598zm-26.326 1.115c-0.3549 0-0.6186 0.14-0.7891 0.414-0.167 0.272-0.2552 0.697-0.2656 1.278v1.847c0 0.62 0.083 1.081 0.25 1.383 0.1705 0.3 0.4421 0.45 0.8145 0.45 0.3688 0 0.6352-0.145 0.7988-0.434 0.1635-0.289 0.2489-0.729 0.2558-1.324v-1.807c0-0.63-0.0877-1.088-0.2617-1.373-0.1705-0.289-0.4374-0.434-0.8027-0.434zm16.43 0c-0.355 0-0.617 0.14-0.787 0.414-0.167 0.272-0.255 0.697-0.266 1.278v1.847c0 0.62 0.083 1.081 0.25 1.383 0.171 0.3 0.442 0.45 0.815 0.45 0.368 0 0.635-0.145 0.798-0.434 0.164-0.289 0.247-0.729 0.254-1.324v-1.807c0-0.63-0.085-1.088-0.259-1.373-0.171-0.289-0.44-0.434-0.805-0.434zm-6.639 2.622h2.94v1.216h-2.94v-1.216z" fill-rule="evenodd" transform="matrix(.26458 0 0 .26458 0 284.3)" fill="#333"/>
 </g>
</svg>
