<svg width="48" height="48" viewBox="0 0 48 48" fill="none" xmlns="http://www.w3.org/2000/svg">
<path d="M16.5012 30.9932H16.5013V30.984V18.643C16.7143 18.9877 16.9572 19.3313 17.2258 19.6633C18.2673 20.9507 19.7464 22.1249 21.4465 22.465C23.5451 22.8847 24.692 23.3599 25.5164 24.1822C27.0745 25.7364 28.5242 27.7226 29.5846 29.473C30.1141 30.3472 30.5415 31.1543 30.8346 31.8104C30.9812 32.1388 31.0914 32.4231 31.1641 32.655C31.2396 32.8962 31.2637 33.0473 31.2637 33.1218C31.2637 33.5642 30.9726 34.2523 30.4387 35.014C29.9205 35.7534 29.2356 36.4741 28.5806 36.9709C27.2681 37.9665 25.6648 38.5033 24.0174 38.4987L24.0174 38.4986L24.0068 38.4988C23.0161 38.517 22.032 38.3353 21.1131 37.9645C20.1943 37.5938 19.3596 37.0416 18.659 36.341C17.9584 35.6404 17.4062 34.8057 17.0355 33.8869C16.6647 32.968 16.483 31.9839 16.5012 30.9932ZM31.5479 18.6342V27.3439C31.4075 27.1026 31.2517 26.8443 31.0805 26.5732C30.2546 25.2655 29.0617 23.647 27.498 22.198C28.8148 21.6903 29.9603 20.715 30.8141 19.6641C31.0863 19.3291 31.3324 18.9822 31.5479 18.6342ZM29.0765 14.5606C29.0765 17.3554 26.8108 19.6211 24.0159 19.6211C21.2211 19.6211 18.9554 17.3554 18.9554 14.5606C18.9554 11.7657 21.2211 9.5 24.0159 9.5C26.8108 9.5 29.0765 11.7657 29.0765 14.5606Z" stroke="#333333"/>
<path d="M21.8 5.89298L22.8373 6.38701L21.8 6.88105V5.89298ZM25.1628 6.38701L26.2001 5.89298V6.88105L25.1628 6.38701Z" stroke="#333333" stroke-linejoin="round"/>
</svg>
