<svg width="48" height="48" viewBox="0 0 48 48" fill="none" xmlns="http://www.w3.org/2000/svg">
<path fill-rule="evenodd" clip-rule="evenodd" d="M48 0H0V48H48V0ZM26.7 7.92519C26.7 7.70468 26.4701 7.55952 26.271 7.65435L24 8.73601L21.729 7.65435C21.53 7.55952 21.3 7.70468 21.3 7.92519V9.54683C21.3 9.76735 21.53 9.9125 21.729 9.81768L24 8.73601L26.271 9.81768C26.4701 9.9125 26.7 9.76734 26.7 9.54683V7.92519ZM26.4032 19.4346C25.6918 19.9097 24.8555 20.1632 24 20.163C23.4321 20.163 22.8698 20.0511 22.3451 19.8338C21.8204 19.6164 21.3437 19.2978 20.9422 18.8962C20.5406 18.4946 20.2221 18.0178 20.0049 17.493C19.7877 16.9683 19.6759 16.4059 19.676 15.838C19.676 14.9826 19.9297 14.1463 20.405 13.4351C20.8803 12.7238 21.5558 12.1695 22.3462 11.8421C23.1365 11.5148 24.0062 11.4292 24.8452 11.5962C25.6842 11.7632 26.4548 12.1752 27.0596 12.7801C27.6645 13.3851 28.0763 14.1558 28.2431 14.9949C28.4098 15.8339 28.324 16.7035 27.9965 17.4938C27.669 18.2841 27.1145 18.9595 26.4032 19.4346ZM30.25 22.73L33.27 26.637C33.4407 26.8473 33.5669 27.0901 33.641 27.3507C33.715 27.6113 33.7353 27.8841 33.7007 28.1528C33.6661 28.4215 33.5773 28.6803 33.4397 28.9136C33.302 29.1469 33.1185 29.3498 32.9 29.51C32.4428 29.7567 31.9197 29.8539 31.4044 29.7879C30.889 29.7219 30.4073 29.496 30.027 29.142L29.8 28.849H18.2L17.973 29.142C17.5927 29.496 17.111 29.7219 16.5957 29.7879C16.0804 29.8539 15.5573 29.7567 15.1 29.51C14.8816 29.3498 14.698 29.1469 14.5604 28.9136C14.4228 28.6803 14.3339 28.4215 14.2993 28.1528C14.2647 27.8841 14.2851 27.6113 14.3591 27.3507C14.4331 27.0901 14.5593 26.8473 14.73 26.637L17.75 22.73C17.8997 22.4449 18.1163 22.2004 18.3812 22.0174C18.6461 21.8343 18.9514 21.7182 19.271 21.679C19.2957 21.672 19.3149 21.6714 19.3401 21.6706C19.3508 21.6703 19.3624 21.6699 19.376 21.669C19.3952 21.6678 19.4141 21.6651 19.433 21.6625C19.4595 21.6587 19.4861 21.655 19.514 21.655H28.486C28.5175 21.655 28.5521 21.6598 28.582 21.6639C28.5976 21.666 28.612 21.668 28.624 21.669C28.6368 21.6701 28.6495 21.6717 28.6622 21.6733C28.6845 21.6762 28.7068 21.679 28.729 21.679C29.0486 21.7182 29.354 21.8343 29.6189 22.0174C29.8838 22.2004 30.1003 22.4449 30.25 22.73ZM31.82 34.625L30.3 31.139C30.0827 30.6412 29.6765 30.2501 29.1708 30.0518C28.6651 29.8535 28.1014 29.8642 27.6035 30.0815C27.1057 30.2989 26.7146 30.7051 26.5163 31.2107C26.318 31.7164 26.3287 32.2802 26.546 32.778L27.717 35.46L26.837 37.7C26.6368 38.211 26.6477 38.7805 26.8674 39.2834C27.0871 39.7863 27.4976 40.1813 28.0085 40.3815C28.5195 40.5817 29.089 40.5708 29.5919 40.3511C30.0948 40.1314 30.4898 39.721 30.69 39.21L31.823 36.321C31.8279 36.3092 31.8307 36.2973 31.8335 36.2855C31.8359 36.2753 31.8383 36.2652 31.842 36.255C31.9513 35.9966 32.0057 35.7183 32.0019 35.4377C31.9981 35.1571 31.9362 34.8804 31.82 34.625ZM19.6169 29.8945C19.8879 29.9033 20.1544 29.9671 20.4 30.082C20.6509 30.1844 20.8783 30.3368 21.0685 30.5297C21.2587 30.7227 21.4076 30.9523 21.5064 31.2046C21.6052 31.4569 21.6516 31.7267 21.643 31.9975C21.6343 32.2683 21.5707 32.5345 21.456 32.78L20.285 35.462L21.163 37.7C21.2789 37.9508 21.3402 38.2233 21.343 38.4996C21.3459 38.7758 21.2901 39.0495 21.1795 39.3026C21.0688 39.5558 20.9058 39.7826 20.7011 39.9681C20.4965 40.1536 20.2548 40.2937 19.992 40.379C19.7411 40.4953 19.4683 40.5571 19.1917 40.5602C18.9151 40.5633 18.641 40.5077 18.3876 40.397C18.1341 40.2863 17.9069 40.1231 17.7212 39.9181C17.5354 39.7132 17.3953 39.4711 17.31 39.208L16.177 36.319C16.1722 36.3072 16.1694 36.2953 16.1666 36.2835C16.1641 36.2733 16.1617 36.2632 16.158 36.253C16.0491 35.9948 15.9948 35.7169 15.9986 35.4367C16.0024 35.1565 16.0642 34.8801 16.18 34.625L17.7 31.139C17.8023 30.8878 17.9547 30.6601 18.1478 30.4696C18.3408 30.2792 18.5706 30.1299 18.8232 30.0311C19.0758 29.9322 19.3458 29.8857 19.6169 29.8945Z" fill="#333333"/>
</svg>
