<svg width="48" height="48" viewBox="0 0 48 48" fill="none" xmlns="http://www.w3.org/2000/svg">
<path d="M23.9999 20C27.3138 20 30 17.3137 30 14C30 10.6863 27.3138 7.99997 23.9999 7.99997C20.6862 7.99997 18 10.6863 18 14C18 17.3137 20.6862 20 23.9999 20Z" fill="#333333"/>
<path d="M24 6.49997L20.25 7.799V5.20093L24 6.49997Z" fill="#333333"/>
<path d="M24 6.49997L27.75 7.799V5.20093L24 6.49997Z" fill="#333333"/>
<path fill-rule="evenodd" clip-rule="evenodd" d="M15 18.447V35.0413C15 38.4522 17.8125 42 24 42C30.1875 42 33 39.0207 33 35.0413V35.1866C31.556 31.5157 28.5648 27.8432 24.9861 24.7526C22.9581 23.0013 20.7695 21.461 18.615 20.2306C18.4277 20.1285 18.2384 20.0226 18.0469 19.913C17.0121 19.3466 15.9892 18.8543 15 18.447ZM25.0324 22.1913C25.4587 22.532 25.8794 22.8815 26.2933 23.2389C28.893 25.484 31.2616 28.0782 33 30.8309V19C29.9579 21.1782 27.49 22.186 25.0324 22.1913Z" fill="#333333"/>
</svg>
