<svg width="48" height="48" viewBox="0 0 48 48" fill="none" xmlns="http://www.w3.org/2000/svg">
<path fill-rule="evenodd" clip-rule="evenodd" d="M48 0H0V48H48V0ZM18.8481 32.0343C19.9716 30.4614 19.6073 28.2755 18.0343 27.1519C16.4614 26.0284 14.2755 26.3927 13.1519 27.9657L11.6988 30H9.5C7.567 30 6 31.567 6 33.5C6 35.433 7.567 37 9.5 37H13.5C14.6303 37 15.6911 36.4541 16.3481 35.5343L18.8481 32.0343ZM39.474 31.3934H36.2699L35.7002 31.1313C35.2718 30.6552 34.7654 30.0151 34.2137 29.3175C32.8856 27.6386 31.2946 25.6273 29.895 24.7719C29.0572 24.2597 28.1152 23.994 27.1587 24.0001H21.5L22.0859 37H26.8159C27.5967 36.9986 28.3694 36.8231 29.0878 36.4836C29.8066 36.1442 30.4566 35.6477 30.999 35.0237L31.5685 34.3686C31.7926 34.6176 32.0114 34.967 32.2386 35.33C32.7407 36.1318 33.2843 37 34.0189 37H39.6078C40.2779 37 40.7864 36.7047 41.2603 36.179C41.7339 35.6532 42.0001 34.9401 42.0001 34.1967C42.0001 33.4533 41.7339 32.7402 41.2603 32.2146C40.7864 31.6887 40.144 31.3934 39.474 31.3934ZM33.5 23C37.0899 23 40 20.0899 40 16.5C40 12.9101 37.0899 10 33.5 10C29.9101 10 27 12.9101 27 16.5C27 20.0899 29.9101 23 33.5 23Z" fill="#333333"/>
</svg>
