<svg width="48" height="48" viewBox="0 0 48 48" fill="none" xmlns="http://www.w3.org/2000/svg">
<path fill-rule="evenodd" clip-rule="evenodd" d="M19.7868 30.4947C18.0847 31.7276 17.0002 33.6761 17.0002 35.8569C17.0002 36.6147 17.1596 37.754 17.5645 38.6653C17.9753 39.5898 18.4903 39.9999 19.1114 39.9999C19.8209 39.9999 20.3336 39.4543 20.3336 38.857C20.3336 38.583 20.2221 38.3089 19.9817 37.7897C19.9746 37.7744 19.9674 37.7588 19.96 37.7429C19.7513 37.2933 19.4447 36.6326 19.4447 35.8569C19.4447 34.9941 19.855 34.1159 20.2964 33.4398C20.7499 32.7452 21.3493 32.0918 21.9333 31.6898L23.0672 33.3373C22.7479 33.5571 22.3195 33.9994 21.9711 34.5332C21.6105 35.0854 21.4447 35.5679 21.4447 35.8569C21.4447 36.1512 21.5605 36.4395 21.7966 36.9493C21.8061 36.9699 21.8159 36.991 21.826 37.0126C22.031 37.4534 22.3336 38.1041 22.3336 38.857C22.3336 40.6267 20.8564 41.9999 19.1114 41.9999C17.3188 41.9999 16.2782 40.6957 15.7368 39.4774C15.1896 38.2458 15.0002 36.8137 15.0002 35.8569C15.0002 32.99 16.4296 30.4569 18.6136 28.8749L19.7868 30.4947ZM31.0002 35.8569C31.0002 33.6761 29.9158 31.7276 28.2136 30.4947L29.3868 28.8749C31.5709 30.4569 33.0002 32.99 33.0002 35.8569C33.0002 36.7441 32.7879 38.1711 32.2386 39.4106C31.7064 40.6114 30.6758 41.9999 28.8891 41.9999C27.1441 41.9999 25.6669 40.6267 25.6669 38.857C25.6669 38.1197 25.9678 37.4655 26.1709 37.0239C26.1816 37.0007 26.192 36.978 26.2021 36.956C26.4394 36.4375 26.5558 36.1431 26.5558 35.8569C26.5558 35.5679 26.39 35.0854 26.0294 34.5332C25.681 33.9994 25.2526 33.5571 24.9333 33.3373L26.0672 31.6898C26.6512 32.0918 27.2506 32.7452 27.7041 33.4398C28.1455 34.1159 28.5558 34.9941 28.5558 35.8569C28.5558 36.6218 28.25 37.2884 28.0425 37.7407C28.0351 37.7569 28.0278 37.7728 28.0206 37.7884C27.778 38.3185 27.6669 38.5953 27.6669 38.857C27.6669 39.4543 28.1795 39.9999 28.8891 39.9999C29.4482 39.9999 29.9731 39.5863 30.4101 38.6003C30.8299 37.653 31.0002 36.5086 31.0002 35.8569Z" fill="#333333"/>
<path fill-rule="evenodd" clip-rule="evenodd" d="M24.0002 15C25.9332 15 27.5002 13.433 27.5002 11.5C27.5002 9.567 25.9332 8 24.0002 8C22.0672 8 20.5002 9.567 20.5002 11.5C20.5002 13.433 22.0672 15 24.0002 15ZM24.0002 17C27.0378 17 29.5002 14.5376 29.5002 11.5C29.5002 8.46243 27.0378 6 24.0002 6C20.9627 6 18.5002 8.46243 18.5002 11.5C18.5002 14.5376 20.9627 17 24.0002 17Z" fill="#333333"/>
<path fill-rule="evenodd" clip-rule="evenodd" d="M29.5002 28H18.5002V26H29.5002V28Z" fill="#333333"/>
<path fill-rule="evenodd" clip-rule="evenodd" d="M33.965 19.735C33.8186 19.2025 33.2682 18.8894 32.7357 19.0358C29.2711 19.988 26.6244 20.4255 24.0048 20.4144C21.3819 20.4033 18.7311 19.9425 15.2539 19.0326C14.7196 18.8928 14.1731 19.2126 14.0333 19.7469C13.8935 20.2812 14.2133 20.8276 14.7476 20.9674C16.3451 21.3855 17.797 21.7177 19.1728 21.958C19.6515 22.0416 20.0008 22.4571 20.0008 22.9431V28.9404C20.0008 29.0303 20.0676 29.4149 20.3548 29.8785C20.6254 30.3153 21.0605 30.7688 21.7282 31.0661C21.9478 31.1639 22.1885 31.2834 22.3846 31.3808L22.5114 31.4437C22.7569 31.5651 22.9759 31.6704 23.1909 31.7615C23.6567 31.9589 23.905 32 24.0008 32C24.0966 32 24.3449 31.9589 24.8107 31.7615C25.0254 31.6706 25.244 31.5654 25.4891 31.4442M25.4902 31.4437L25.6168 31.3809C25.813 31.2835 26.0538 31.1639 26.2734 31.0661C26.9411 30.7688 27.3761 30.3153 27.6468 29.8785C27.934 29.4149 28.0008 29.0303 28.0008 28.9404V22.9697C28.0008 22.4835 28.3504 22.0678 28.8294 21.9845C30.2066 21.7448 31.6621 21.405 33.2658 20.9643C33.7983 20.8179 34.1113 20.2675 33.965 19.735M32.2057 17.1073C33.8033 16.6682 35.4544 17.6073 35.8935 19.2049C36.3326 20.8026 35.3934 22.4536 33.7958 22.8927C32.4583 23.2604 31.2047 23.5642 30.0008 23.8011V28.9404C30.0008 29.4838 29.7824 30.229 29.3469 30.9319C28.8947 31.6616 28.1695 32.4111 27.087 32.8931C26.9096 32.9722 26.7041 33.074 26.4972 33.1767L26.3766 33.2365C26.1248 33.361 25.8625 33.488 25.5909 33.6031C25.0417 33.8358 24.4983 34 24.0008 34C23.5033 34 22.9599 33.8358 22.4107 33.6031C22.1391 33.488 21.8768 33.361 21.625 33.2365L21.5049 33.177C21.298 33.0742 21.092 32.9722 20.9146 32.8931C19.8321 32.4111 19.1068 31.6616 18.6547 30.9319C18.2192 30.229 18.0008 29.4838 18.0008 28.9404V23.7748C16.8066 23.5416 15.5643 23.2485 14.2413 22.9023C12.6384 22.4829 11.679 20.8434 12.0985 19.2406C12.5179 17.6377 14.1573 16.6783 15.7602 17.0977C19.1627 17.9881 21.6297 18.4044 24.0132 18.4144C26.387 18.4245 28.8416 18.0319 32.2057 17.1073Z" fill="#333333"/>
</svg>
