<svg width="48" height="48" viewBox="0 0 48 48" fill="none" xmlns="http://www.w3.org/2000/svg">
<path fill-rule="evenodd" clip-rule="evenodd" d="M0 0H48V48H0V0ZM23.9999 19C27.3138 19 30 16.3138 30 13.0001C30 9.68635 27.3138 7 23.9999 7C20.6862 7 18 9.68635 18 13.0001C18 16.3138 20.6862 19 23.9999 19ZM15 35.0411V17.4468C15.9892 17.854 17.0121 18.3464 18.0469 18.9127C18.2384 19.0224 18.4277 19.1283 18.615 19.2304C20.7695 20.4608 22.9581 22.0011 24.9861 23.7524C28.5648 26.843 31.556 30.5155 33 34.1864V35.0411C33 39.0205 30.1875 40.9998 24 40.9998C17.8125 40.9998 15 38.452 15 35.0411ZM26.2933 22.2387C25.8794 21.8813 25.4587 21.5318 25.0324 21.1911C27.49 21.1857 29.9579 20.178 33 17.9998V29.8306C31.2616 27.078 28.893 24.4838 26.2933 22.2387Z" fill="#333333"/>
</svg>
