<?xml version="1.0" encoding="UTF-8" standalone="no"?>
<!-- Created with Inkscape (http://www.inkscape.org/) -->
<svg id="svg8" xmlns:rdf="http://www.w3.org/1999/02/22-rdf-syntax-ns#" xmlns="http://www.w3.org/2000/svg" xmlns:osb="http://www.openswatchbook.org/uri/2009/osb" height="48" width="48" version="1.1" xmlns:cc="http://creativecommons.org/ns#" viewBox="0 0 12.7 12.7" xmlns:dc="http://purl.org/dc/elements/1.1/">
 <title id="title4753">UIO-icon</title>
 <metadata id="metadata5">
  <rdf:RDF>
   <cc:Work rdf:about="">
    <dc:format>image/svg+xml</dc:format>
    <dc:type rdf:resource="http://purl.org/dc/dcmitype/StillImage"/>
    <dc:title>UIO-icon</dc:title>
    <dc:creator>
     <cc:Agent>
      <dc:title>Joaquín Urbano</dc:title>
     </cc:Agent>
    </dc:creator>
    <dc:rights>
     <cc:Agent>
      <dc:title>GPL</dc:title>
     </cc:Agent>
    </dc:rights>
   </cc:Work>
  </rdf:RDF>
 </metadata>
 <g id="layer1" transform="translate(0,-284.3)">
  <path id="rect15520" d="m0 0v48h48v-48h-48zm20.654 3.998c2.343-0.103 4.223 1.5529-0.099 2.545 2.852-1.4363 0.68-2.0604-0.862-0.795-1.758 1.5916 2.355 1.4042 3.233 2.0508 0.357-0.0247 0.715-0.0377 1.074-0.039 6.224 0.0015 11.73 3.5062 13.605 8.6622 0.305-0.071 0.617-0.108 0.93-0.11 2.313 0 4.188 1.875 4.188 4.188-0.001 0.352-0.047 0.702-0.135 1.043-0.025-0.032-0.051-0.063-0.076-0.094 0.961 1.21 1.486 2.709 1.488 4.254 0 3.785-3.068 6.854-6.854 6.854-1.911-0.003-3.734-0.804-5.029-2.209-2.384 1.435-5.216 2.206-8.117 2.209-5.938-0.007-11.251-3.206-13.342-8.034-0.376 0.109-0.7662 0.164-1.158 0.165-2.3127 0-4.1875-1.875-4.1875-4.188s1.8748-4.188 4.1875-4.188c0.3069 0.001 0.613 0.036 0.912 0.104 1.355-3.706 4.634-6.6458 8.856-7.9394-1.482-0.5149-2.542-1.3527-1.555-3.0215 0.716-1.0011 1.877-1.4102 2.941-1.4571zm3.346 5.4629c-6.624 0.0067-12.055 4.5631-12.293 10.312-0.313-0.953-1.203-1.598-2.207-1.599-1.2848 0-2.3263 1.041-2.3262 2.326-0.0001 1.285 1.0414 2.326 2.3262 2.326 1.049-0.001 1.967-0.704 2.242-1.717 0.567 5.515 5.884 9.743 12.258 9.746 2.538-0.005 5.012-0.691 7.084-1.964-0.518-0.983-0.79-2.077-0.791-3.188 0.004-3.42 2.528-6.313 5.916-6.781-0.721-5.386-5.967-9.4506-12.209-9.4611zm-3.982 7.5391c0.832 0 1.507 0.675 1.507 1.508 0 0.832-0.675 1.507-1.507 1.508-0.833-0.001-1.508-0.676-1.508-1.508 0-0.833 0.675-1.508 1.508-1.508zm8 0c0.832 0 1.507 0.675 1.507 1.508 0 0.832-0.675 1.507-1.507 1.508-0.833-0.001-1.508-0.676-1.508-1.508 0-0.833 0.675-1.508 1.508-1.508zm10.517 1.174c-0.617 0.002-1.207 0.248-1.642 0.685-0.029 0.003-0.058 0.005-0.086 0.008 0.113-0.008 0.226-0.014 0.339-0.017 1.286 0.001 2.546 0.363 3.635 1.046-0.273-1.016-1.194-1.722-2.246-1.722zm-1.389 1.736c-2.975 0-5.466 2.254-5.763 5.215-0.02 0.192-0.029 0.385-0.029 0.578 0 1.507 0.587 2.954 1.636 4.035 0.27 0.278 0.566 0.528 0.885 0.746 0.319 0.219 0.659 0.405 1.016 0.555 0.356 0.151 0.726 0.265 1.105 0.342s0.764 0.115 1.15 0.115c1.507 0 2.955-0.587 4.036-1.637 0.277-0.269 0.527-0.565 0.746-0.884 0.218-0.32 0.404-0.66 0.554-1.016 0.151-0.356 0.265-0.727 0.342-1.105 0.077-0.379 0.115-0.765 0.115-1.151 0-1.507-0.587-2.954-1.636-4.035-0.27-0.278-0.566-0.528-0.885-0.746s-0.659-0.404-1.016-0.555c-0.356-0.15-0.726-0.265-1.105-0.342-0.379-0.076-0.764-0.115-1.151-0.115zm1.85 1.938l0.762 0.726 0.621-0.621 0.484 0.485-0.623 0.656 0.727 0.726-0.485 0.485-0.724-0.727-1.281 1.244c0.414 0.519 0.656 1.176 0.656 1.832 0 1.625-1.312 2.905-2.903 2.905-1.59 0-2.904-1.28-2.904-2.905 0-1.59 1.314-2.869 2.904-2.869 0.623 0 1.246 0.206 1.764 0.586l1.277-1.277-0.759-0.762 0.484-0.484zm-19.824 1.793c0.247-0.023 0.519 0.174 0.586 0.658 0.2 1.574 2.046 2.78 4.26 2.781 2.287-0.047 4.118-1.128 5.289-2.781-0.204 1.979-2.511 3.511-5.289 3.512-2.777-0.003-5.081-1.534-5.284-3.512-0.032-0.394 0.191-0.636 0.438-0.658zm17.058 0.8c-1.209 0-2.212 1.003-2.212 2.213 0 1.245 1.003 2.246 2.212 2.246 1.21 0 2.211-1.001 2.211-2.246 0-1.21-1.001-2.213-2.211-2.213zm-32.23 9.559h40v10h-40v-10zm3.8672 1.096c-0.8281 0-1.4624 0.274-1.9043 0.824-0.4384 0.55-0.6582 1.357-0.6582 2.418v1.398c0.0104 1.02 0.2354 1.802 0.6738 2.348s1.0703 0.82 1.8985 0.82c0.8385 0 1.4752-0.279 1.9101-0.836 0.4349-0.556 0.6519-1.359 0.6519-2.41v-1.398c-0.01-1.02-0.233-1.801-0.6714-2.344-0.4384-0.546-1.0723-0.82-1.9004-0.82zm16.43 0c-0.828 0-1.463 0.274-1.904 0.824-0.439 0.55-0.659 1.357-0.659 2.418v1.398c0.011 1.02 0.236 1.802 0.674 2.348 0.439 0.546 1.072 0.82 1.901 0.82 0.838 0 1.475-0.279 1.91-0.836 0.435-0.556 0.652-1.359 0.652-2.41v-1.398c-0.01-1.02-0.235-1.801-0.674-2.344-0.438-0.546-1.072-0.82-1.9-0.82zm6.082 0c-0.487 0-0.927 0.116-1.317 0.349-0.389 0.23-0.694 0.553-0.914 0.971-0.215 0.414-0.322 0.87-0.322 1.367 0 0.783 0.202 1.407 0.606 1.869 0.403 0.46 0.941 0.69 1.613 0.69 0.525 0 0.984-0.194 1.377-0.58-0.108 1.172-0.817 1.788-2.129 1.847l-0.334 0.006v1.258l0.369-0.006c1.155-0.049 2.048-0.434 2.678-1.158s0.945-1.72 0.945-2.986v-0.559c-0.003-0.605-0.112-1.142-0.328-1.611-0.216-0.47-0.518-0.83-0.908-1.08-0.39-0.251-0.835-0.377-1.336-0.377zm-15.074 0.027c-0.769 0.004-1.447 0.177-2.032 0.525-0.581 0.345-1.026 0.834-1.339 1.467-0.31 0.63-0.465 1.357-0.465 2.182v0.543c0 0.929 0.245 1.672 0.736 2.228 0.494 0.557 1.141 0.836 1.941 0.836 0.495 0 0.935-0.111 1.325-0.334 0.393-0.222 0.696-0.533 0.908-0.933 0.216-0.4 0.324-0.848 0.324-1.342 0-0.773-0.194-1.396-0.584-1.869s-0.915-0.709-1.576-0.709c-0.616 0-1.126 0.204-1.529 0.615 0.083-0.612 0.332-1.091 0.746-1.436 0.417-0.344 0.966-0.52 1.648-0.531h0.147v-1.242h-0.25zm18.888 0.078v7.598h1.567v-2.076l-0.158-3.58 2.046 5.656h1.077l2.05-5.662-0.156 3.586v2.076h1.57v-7.598h-2.056l-1.942 5.512-1.951-5.512h-2.047zm-3.826 1.111c0.327 0 0.589 0.141 0.783 0.422 0.195 0.282 0.293 0.68 0.293 1.192v0.621c-0.09 0.177-0.225 0.328-0.402 0.453-0.174 0.125-0.383 0.188-0.627 0.188-0.344 0-0.611-0.133-0.803-0.397-0.188-0.268-0.283-0.609-0.283-1.023 0-0.418 0.098-0.763 0.293-1.038 0.195-0.278 0.443-0.418 0.746-0.418zm-22.5 0.004c0.3653 0 0.6322 0.145 0.8027 0.434 0.174 0.285 0.2617 0.743 0.2617 1.373v1.807c-0.0069 0.595-0.0923 1.035-0.2558 1.324-0.1636 0.289-0.43 0.434-0.7988 0.434-0.3724 0-0.644-0.15-0.8145-0.45-0.167-0.302-0.25-0.763-0.25-1.383v-1.847c0.0104-0.581 0.0986-1.006 0.2656-1.278 0.1705-0.274 0.4342-0.414 0.7891-0.414zm16.43 0c0.365 0 0.634 0.145 0.805 0.434 0.174 0.285 0.259 0.743 0.259 1.373v1.807c-0.007 0.595-0.09 1.035-0.254 1.324-0.163 0.289-0.43 0.434-0.798 0.434-0.373 0-0.644-0.15-0.815-0.45-0.167-0.302-0.25-0.763-0.25-1.383v-1.847c0.011-0.581 0.099-1.006 0.266-1.278 0.17-0.274 0.432-0.414 0.787-0.414zm-10.213 2.612c0.341 0 0.613 0.127 0.814 0.381 0.202 0.254 0.303 0.587 0.303 1.002 0 0.407-0.101 0.738-0.303 0.996-0.198 0.254-0.459 0.381-0.783 0.381-0.358 0-0.637-0.141-0.836-0.422-0.198-0.286-0.297-0.681-0.297-1.186v-0.459c0.094-0.209 0.24-0.377 0.438-0.502 0.198-0.129 0.42-0.191 0.664-0.191zm3.574 0.01v1.216h2.94v-1.216h-2.94z" fill-rule="evenodd" transform="matrix(.26458 0 0 .26458 0 284.3)" fill="#333"/>
 </g>
</svg>
