<svg width="48" height="48" viewBox="0 0 48 48" fill="none" xmlns="http://www.w3.org/2000/svg">
<path fill-rule="evenodd" clip-rule="evenodd" d="M18.9994 22.9999V29.9402C18.9994 30.5735 19.5698 32.2001 21.32 32.9795C21.5203 33.0686 21.7455 33.1805 21.9478 33.2809C21.9885 33.3012 22.0283 33.3209 22.0668 33.34C22.3155 33.4629 22.5561 33.5791 22.7995 33.6822C23.3069 33.8972 23.7028 33.9999 23.9994 33.9999C24.2961 33.9999 24.6919 33.8972 25.1994 33.6822C25.4428 33.5791 25.6834 33.4629 25.932 33.34C25.9705 33.3209 26.0104 33.3012 26.0511 33.2809C26.2534 33.1805 26.4786 33.0686 26.6788 32.9795C28.4291 32.2001 28.9994 30.5735 28.9994 29.9402V22.9999C24.6054 22.9999 23.1146 22.9999 18.9994 22.9999Z" fill="#333333"/>
<path fill-rule="evenodd" clip-rule="evenodd" d="M17.9804 32.6994C18.4581 33.5069 19.2522 34.3189 20.4343 34.8562C20.2568 35.024 20.0868 35.2186 19.9261 35.4578C19.4259 36.2025 18.996 37.1226 18.996 37.9894C18.996 38.7818 19.3211 39.4635 19.5674 39.9799L19.5854 40.0176C19.8572 40.5882 20.029 40.9722 20.029 41.3782C20.029 42.2908 19.2447 42.9999 18.3182 42.9999C17.4547 42.9999 16.7714 42.4248 16.2625 41.3116C15.7656 40.2245 15.5743 38.8833 15.5743 37.9894C15.5743 35.7482 16.4288 34.0499 17.9804 32.6994Z" fill="#333333"/>
<path fill-rule="evenodd" clip-rule="evenodd" d="M27.5647 34.8562C28.7469 34.3189 29.5409 33.5068 30.0186 32.6993C31.5702 34.0499 32.4248 35.7482 32.4248 37.9894C32.4248 38.8833 32.2335 40.2245 31.7366 41.3116C31.2277 42.4248 30.5444 42.9999 29.6809 42.9999C28.7543 42.9999 27.97 42.2908 27.97 41.3782C27.97 40.9722 28.1419 40.5882 28.4137 40.0176L28.4317 39.9799C28.6779 39.4635 29.003 38.7818 29.003 37.9894C29.003 37.1226 28.5732 36.2025 28.0729 35.4578C27.9123 35.2186 27.7423 35.024 27.5647 34.8562Z" fill="#333333"/>
<path fill-rule="evenodd" clip-rule="evenodd" d="M35.941 20.0072C36.2062 21.0794 35.552 22.1637 34.4797 22.4289C30.4811 23.418 27.2601 23.9142 23.9917 23.9018C20.7289 23.8894 17.5156 23.3702 13.541 22.4342C12.4658 22.181 11.7995 21.1041 12.0527 20.0289C12.3059 18.9538 13.3828 18.2875 14.458 18.5407C18.2939 19.4441 21.1751 19.8911 24.0069 19.9018C26.833 19.9126 29.7067 19.489 33.5192 18.5459C34.5915 18.2807 35.6757 18.9349 35.941 20.0072Z" fill="#333333"/>
<path fill-rule="evenodd" clip-rule="evenodd" d="M23.9995 17.9999C27.037 17.9999 29.4995 15.5374 29.4995 12.4999C29.4995 9.46231 27.037 6.99987 23.9995 6.99987C20.9619 6.99987 18.4995 9.46231 18.4995 12.4999C18.4995 15.5374 20.9619 17.9999 23.9995 17.9999Z" fill="#333333"/>
<path d="M23.9995 4.99987L18.7495 6.73192V3.26782L23.9995 4.99987Z" fill="#333333"/>
<path d="M23.9995 4.99987L29.2495 6.73192V3.26782L23.9995 4.99987Z" fill="#333333"/>
</svg>
