<svg width="48" height="48" viewBox="0 0 48 48" fill="none" xmlns="http://www.w3.org/2000/svg">
<path fill-rule="evenodd" clip-rule="evenodd" d="M17.8 27.6C19.1255 28.5941 19.3941 30.4745 18.4 31.8L15.4 35.8C14.8334 36.5554 13.9443 37 13 37H9C7.34315 37 6 35.6569 6 34C6 32.3431 7.34315 31 9 31H11.5L13.6 28.2C14.5941 26.8745 16.4745 26.6059 17.8 27.6Z" fill="#333333"/>
<path d="M39.474 31.3934H36.2699L35.7002 31.1313C34.2406 29.5093 31.8761 25.9827 29.895 24.772C29.0572 24.2597 28.1152 23.994 27.1587 24.0001H21.5L22.0859 37H26.8159C27.5967 36.9986 28.3694 36.8231 29.0878 36.4836C29.8066 36.1442 30.4566 35.6477 30.999 35.0237L31.5685 34.3686C32.2876 35.1678 32.9516 37 34.0189 37H39.6078C40.2779 37 40.7864 36.7047 41.2603 36.179C41.7339 35.6532 42.0001 34.9401 42.0001 34.1967C42.0001 33.4533 41.7339 32.7402 41.2603 32.2146C40.7864 31.6887 40.144 31.3934 39.474 31.3934Z" fill="#333333"/>
<path d="M40 16.5C40 20.0899 37.0899 23 33.5 23C29.9101 23 27 20.0899 27 16.5C27 12.9101 29.9101 10 33.5 10C37.0899 10 40 12.9101 40 16.5Z" fill="#333333"/>
<path fill-rule="evenodd" clip-rule="evenodd" d="M33.5 21C35.9853 21 38 18.9853 38 16.5C38 14.0147 35.9853 12 33.5 12C31.0147 12 29 14.0147 29 16.5C29 18.9853 31.0147 21 33.5 21ZM33.5 23C37.0899 23 40 20.0899 40 16.5C40 12.9101 37.0899 10 33.5 10C29.9101 10 27 12.9101 27 16.5C27 20.0899 29.9101 23 33.5 23Z" fill="#333333"/>
</svg>
