<svg width="48" height="48" viewBox="0 0 48 48" fill="none" xmlns="http://www.w3.org/2000/svg">
<path d="M31.862 26.484C34.1474 26.484 36 24.6314 36 22.346C36 20.0607 34.1474 18.208 31.862 18.208C29.5767 18.208 27.724 20.0607 27.724 22.346C27.724 24.6314 29.5767 26.484 31.862 26.484Z" fill="#333333"/>
<path d="M33.931 30.208H32.562L30.3 27.943C29.9402 27.3666 29.4389 26.8919 28.8438 26.564C28.2486 26.2362 27.5795 26.0661 26.9 26.07H22.552L22.966 34.346H26.69C27.2423 34.3452 27.7888 34.2334 28.297 34.0171C28.8051 33.8008 29.2646 33.4845 29.648 33.087L30.286 33.726C30.4812 33.9269 30.7159 34.0851 30.9752 34.1908C31.2346 34.2965 31.5131 34.3473 31.793 34.34C31.817 34.34 31.838 34.346 31.862 34.346H33.931C34.4798 34.346 35.006 34.128 35.394 33.74C35.782 33.352 36 32.8257 36 32.277C36 31.7283 35.782 31.202 35.394 30.814C35.006 30.426 34.4798 30.208 33.931 30.208Z" fill="#333333"/>
<path d="M18.542 28.139L16.473 30.208H14.073C13.5243 30.208 12.998 30.426 12.61 30.814C12.222 31.202 12.004 31.7283 12.004 32.277C12.004 32.8257 12.222 33.352 12.61 33.74C12.998 34.128 13.5243 34.346 14.073 34.346H17.173C17.198 34.346 17.219 34.346 17.243 34.34C17.523 34.3471 17.8014 34.2962 18.0607 34.1905C18.3201 34.0849 18.5547 33.9267 18.75 33.726L21.439 31.036C21.6294 30.8456 21.7805 30.6195 21.8835 30.3707C21.9866 30.122 22.0396 29.8553 22.0396 29.586C22.0396 29.3167 21.9866 29.0501 21.8835 28.8013C21.7805 28.5525 21.6294 28.3264 21.439 28.136C21.2486 27.9456 21.0226 27.7945 20.7738 27.6915C20.525 27.5884 20.2583 27.5354 19.989 27.5354C19.7197 27.5354 19.4531 27.5884 19.2043 27.6915C18.9555 27.7945 18.7294 27.9456 18.539 28.136L18.542 28.139Z" fill="#333333"/>
</svg>
