<svg width="48" height="48" viewBox="0 0 48 48" fill="none" xmlns="http://www.w3.org/2000/svg">
<path d="M25.957 9.88481C25.7016 9.876 25.5223 9.89175 25.4804 9.93364C25.0955 10.3186 25.7644 10.9626 26.9609 11.3575C28.1711 11.7569 28.356 11.9689 29.3261 14.0977C30.7721 17.2707 30.6247 17.9607 29.1269 15.0313C27.6734 12.1887 27.0158 11.8193 25.6855 13.0938C24.3637 14.3602 24.6575 15.5224 26.0019 14.3457C26.2718 14.1095 26.7767 13.8297 27.123 13.7247C27.6665 13.5598 27.9542 13.9389 29.2226 16.4922L30.6914 19.4512L30.1992 19.6387C29.8183 19.278 29.3226 19.0994 28.8281 19.1133C28.3983 19.1254 27.9697 19.2818 27.6191 19.5879L27.4297 19.752C27.4801 19.6662 27.4975 19.5854 27.457 19.5391L27.291 19.3477C27.2268 19.2742 27.0562 19.3178 26.9101 19.4454L26.3027 19.9766C26.1566 20.1042 26.0902 20.2665 26.1543 20.3399L26.3203 20.5293C26.3607 20.5757 26.4452 20.5718 26.5371 20.5332L23.2969 23.3614C22.55 24.0135 22.4289 25.1079 22.9824 25.9024C21.9195 26.6015 21.0155 26.8966 20.0996 26.8926C18.4178 26.6385 18.2114 26.1758 17.4433 25.1114C15.5704 22.5895 11.4733 23.0082 8.13474 23.4414C7.53905 23.4358 6.98389 23.4303 6.52341 23.42C4.53159 23.3279 4.41936 23.3596 4.32224 24.045C4.24871 24.564 4.40068 24.8141 4.86521 24.9356C5.22064 25.0285 5.5117 25.1616 5.5117 25.2305C5.5117 25.2995 5.16173 26.2158 4.73435 27.2676C4.10958 28.8052 3.93342 29.2252 4.02146 29.3399C4.72601 27.3806 6.22776 25.8012 8.1367 24.9961C8.78878 24.7008 9.50281 24.5184 10.2597 24.4551C10.5117 24.4293 10.7685 24.4141 11.0273 24.4141C11.4802 24.4141 11.9229 24.4578 12.3535 24.5352L12.0371 25.6856C11.703 25.6301 11.366 25.6005 11.0273 25.5997C10.2054 25.5997 9.39018 25.7617 8.63084 26.0762C7.87151 26.3907 7.18271 26.8524 6.60154 27.4336C6.02037 28.0148 5.55864 28.7036 5.24412 29.4629C4.9296 30.2223 4.76755 31.0375 4.76755 31.8594C4.76755 32.6813 4.9296 33.4946 5.24412 34.2539C5.55864 35.0132 6.02037 35.7041 6.60154 36.2852C7.18271 36.8664 7.87151 37.3262 8.63084 37.6407C9.39018 37.9552 10.2054 38.1172 11.0273 38.1172C11.8492 38.1172 12.6625 37.9552 13.4219 37.6407C14.1812 37.3262 14.872 36.8664 15.4531 36.2852C16.0343 35.7041 16.4941 35.0132 16.8086 34.2539C17.1231 33.4946 17.2851 32.6813 17.2851 31.8594C17.2838 30.519 16.8531 29.2135 16.0547 28.1368C15.2563 27.0601 14.1319 26.2676 12.8496 25.877L13.166 24.7286C16.2343 25.6477 18.4707 28.4919 18.4707 31.8594C26.7885 32.1196 24.0155 29.8805 25.832 28.2051C25.9394 28.0835 27.1107 26.9016 28.4355 25.5782C30.6769 23.3392 30.9345 23.1724 32.1562 23.17C33.2884 23.1678 33.5342 23.2901 33.9316 24.0586C34.3837 24.933 34.3685 24.9687 33.1289 25.9649C30.9288 27.7329 29.8562 31.1939 30.6426 33.9864C30.8958 34.8854 31.1468 34.8648 31.2793 34.211C31.0122 33.4773 30.8672 32.6854 30.8672 31.8594C30.8672 29.1262 32.4615 26.7645 34.7715 25.6563L35.0156 26.2344C33.9584 26.746 33.066 27.5444 32.4414 28.5391C31.8168 29.5338 31.484 30.6849 31.4824 31.8594C31.4824 32.6813 31.6445 33.4946 31.959 34.2539C32.2735 35.0132 32.7352 35.7041 33.3164 36.2852C33.8975 36.8664 34.5864 37.3262 35.3457 37.6407C36.1051 37.9552 36.9203 38.1172 37.7422 38.1172C38.5641 38.1172 39.3773 37.9552 40.1367 37.6407C40.896 37.3262 41.5848 36.8664 42.166 36.2852C42.7472 35.7041 43.2089 35.0132 43.5234 34.2539C43.8379 33.4946 44 32.6813 44 31.8594C44 31.0375 43.8379 30.2223 43.5234 29.4629C43.2089 28.7036 42.7472 28.0148 42.166 27.4336C41.5848 26.8524 40.896 26.3907 40.1367 26.0762C39.3773 25.7617 38.5641 25.5997 37.7422 25.5997C37.0231 25.6024 36.3089 25.7297 35.6328 25.9747L35.3906 25.3965C36.1242 25.1294 36.9162 24.9844 37.7422 24.9844C38.6619 24.9844 39.538 25.1665 40.3398 25.4942C40.7354 25.4536 40.9041 25.3743 40.8633 25.252C40.6831 24.7114 38.779 24.3357 36.9668 24.4844C35.3301 24.6186 35.3143 24.6115 34.8613 23.5274C34.6103 22.9267 34.5029 22.2229 34.6797 22.2579C36.4278 19.6893 34.4415 18.9594 31.4844 16.1231C31.1 16.2706 30.674 15.6304 29.5683 13.2481C28.1631 10.2205 28.1296 10.1809 26.8886 9.98246C26.5431 9.92721 26.2123 9.89362 25.957 9.88481ZM13.0176 19.0664C9.88905 19.0685 7.28329 19.1171 7.22459 19.1758C7.1659 19.2345 7.02045 19.6681 6.90232 20.1387C6.70864 20.9104 6.80484 21.0481 7.8867 21.5332C10.1417 22.2957 15.7412 21.8815 18.6172 20.7637V20.7657C19.4742 20.3997 19.5227 20.2924 19.1406 19.7168C18.7254 19.0914 18.4568 19.0626 13.0176 19.0664ZM10.9765 27.0235L11.0781 27.0254C11.2719 27.0291 11.4643 27.0454 11.6562 27.0723L11.0781 29.1817L10.9765 29.5547L10.914 29.7793C10.6797 29.7914 10.4496 29.8429 10.2324 29.9317L10.1386 29.9747C9.92922 30.0726 9.73839 30.2045 9.57224 30.3653L9.50193 30.4395C9.33809 30.6145 9.20656 30.8152 9.1113 31.0352L9.0742 31.1309C8.99334 31.3474 8.94928 31.5775 8.94334 31.8086V31.9102C8.94974 32.1656 9.00215 32.4163 9.09959 32.6524L9.14255 32.7461C9.24043 32.9556 9.37243 33.1483 9.53318 33.3145L9.6074 33.3829C9.78239 33.5468 9.98499 33.6801 10.2051 33.7754L10.2988 33.8106C10.5153 33.8915 10.7454 33.9354 10.9765 33.9414L11.0781 33.9434C11.3335 33.937 11.5861 33.8826 11.8222 33.7852L11.914 33.7442C12.1235 33.6463 12.3162 33.5144 12.4824 33.3536L12.5508 33.2793C12.7147 33.1043 12.848 32.9017 12.9433 32.6817L12.9785 32.586C13.0594 32.3695 13.1053 32.1413 13.1113 31.9102V31.8086C13.1049 31.5532 13.0525 31.3006 12.9551 31.0645L12.9121 30.9707C12.8142 30.7612 12.6823 30.5704 12.5215 30.4043L12.4472 30.334C12.2723 30.1701 12.0696 30.0387 11.8496 29.9434L11.7539 29.9063C11.7513 29.9053 11.7487 29.9052 11.7461 29.9043L12.4746 27.25C12.5762 27.2816 12.6761 27.3173 12.7754 27.3555L12.8711 27.3907C13.4262 27.6214 13.9338 27.9526 14.3672 28.3692L14.4433 28.4395C14.8536 28.8509 15.1865 29.332 15.4258 29.8614L15.4668 29.9551C15.719 30.5405 15.8532 31.1713 15.8613 31.8086V31.9102C15.8543 32.4914 15.7422 33.066 15.5312 33.6075L15.4961 33.7032C15.2654 34.2583 14.9321 34.7659 14.5156 35.1993L14.4472 35.2754C14.0358 35.6857 13.5528 36.0186 13.0234 36.2579L12.9297 36.2989C12.3443 36.5511 11.7154 36.6853 11.0781 36.6934L10.9765 36.6914C10.3954 36.6844 9.81885 36.5743 9.27732 36.3633L9.18162 36.3282C8.62653 36.0975 8.11888 35.7643 7.68552 35.3477L7.6113 35.2793C7.20098 34.8679 6.86826 34.3849 6.62888 33.8555L6.58591 33.7618C6.3337 33.1764 6.20143 32.5475 6.19334 31.9102V31.8086C6.20031 31.2275 6.31241 30.6509 6.52341 30.1094L6.55857 30.0137C6.78924 29.4586 7.12052 28.951 7.53709 28.5176L7.6074 28.4434C8.0188 28.0331 8.49983 27.7004 9.02927 27.461L9.12302 27.418C9.70839 27.1658 10.3392 27.0316 10.9765 27.0235ZM37.6894 27.0235L37.7929 27.0254C38.374 27.0324 38.9487 27.1445 39.4902 27.3555L39.5859 27.3907C40.141 27.6214 40.6486 27.9526 41.082 28.3692L41.1562 28.4395C41.5665 28.8509 41.8993 29.332 42.1386 29.8614L42.1816 29.9551C42.4338 30.5405 42.5681 31.1713 42.5761 31.8086L42.5742 31.9102C42.5672 32.4914 42.4571 33.066 42.2461 33.6075L42.2109 33.7032C41.9802 34.2583 41.647 34.7659 41.2304 35.1993L41.1621 35.2754C40.7507 35.6857 40.2677 36.0186 39.7383 36.2579L39.6445 36.2989C39.0591 36.5511 38.4302 36.6853 37.7929 36.6934L37.6894 36.6914C37.1082 36.6844 36.5337 36.5743 35.9922 36.3633L35.8965 36.3282C35.3414 36.0975 34.8338 35.7642 34.4004 35.3477L34.3261 35.2793C33.9158 34.8679 33.583 34.3849 33.3437 33.8555L33.3008 33.7618C33.0486 33.1764 32.9143 32.5475 32.9062 31.9102L32.9082 31.8086C32.9152 31.2275 33.0273 30.6509 33.2383 30.1094L33.2734 30.0137C33.5041 29.4586 33.8354 28.951 34.2519 28.5176L34.3222 28.4434C34.6874 28.0801 35.1077 27.7775 35.5683 27.5469L36.9648 30.8614C36.933 30.8859 36.9023 30.9122 36.873 30.9395L36.8027 31.0137C36.7142 31.1116 36.6421 31.2215 36.5879 31.3418L36.5508 31.4375C36.5085 31.557 36.4836 31.682 36.4785 31.8086V31.9102C36.4841 32.0514 36.5127 32.1908 36.5644 32.3223L36.6074 32.4161C36.6632 32.5297 36.7353 32.6346 36.8222 32.7266L36.8945 32.7969C36.9924 32.8854 37.1043 32.9576 37.2246 33.0118L37.3183 33.0489C37.4377 33.0912 37.5628 33.116 37.6894 33.1211H37.7929C37.9343 33.1156 38.0734 33.0869 38.2051 33.0352L38.2988 32.9942C38.4125 32.9383 38.5173 32.8662 38.6094 32.7793L38.6797 32.7051C38.7681 32.6071 38.8405 32.4954 38.8945 32.375L38.9316 32.2813C38.9739 32.1619 38.9988 32.0368 39.0039 31.9102V31.8086C38.9983 31.6672 38.9696 31.5263 38.9179 31.3946L38.8769 31.3028C38.8209 31.189 38.7471 31.0843 38.6601 30.9922L38.5879 30.92C38.4899 30.8316 38.3782 30.7591 38.2578 30.7051L38.164 30.668C38.0446 30.6257 37.9195 30.6028 37.7929 30.5977L37.6894 30.5957C37.6542 30.5974 37.6208 30.6008 37.5859 30.6055L36.1875 27.2891C36.6715 27.122 37.1774 27.0314 37.6894 27.0235Z" fill="#333333"/>
</svg>
