<svg width="48" height="48" viewBox="0 0 48 48" fill="none" xmlns="http://www.w3.org/2000/svg">
<path d="M31.4551 12.8506C31.3661 12.8515 31.1839 12.8543 31.1054 12.8543H27.7265C27.4495 12.8543 27.2266 13.0773 27.2266 13.3543C27.2266 13.6314 27.4495 13.8543 27.7265 13.8543H31.0371L31.9297 16.2958H31.9316V16.2977H18.1307L18.1287 16.2958L17.826 15.4364L17.4744 14.4442H18.9334C19.2784 14.4442 19.5565 14.166 19.5565 13.8211C19.5565 13.476 19.2785 13.1981 18.9334 13.1981H14.83C14.4849 13.1981 14.2089 13.4762 14.2089 13.8211C14.2089 14.1662 14.4849 14.4442 14.83 14.4442H16.414L16.7655 15.4364L17.289 16.9188V16.9207L15.6347 19.6317L14.6698 21.2118C13.628 20.6774 12.4736 20.3977 11.3027 20.3934C7.19582 20.3934 3.86719 23.7223 3.86719 27.8289C3.86716 31.9358 7.19604 35.2643 11.3027 35.2643C15.2043 35.2643 18.4433 32.2498 18.7207 28.358H19.9961C20.244 29.2123 21.0265 29.7988 21.9161 29.7994C23.0208 29.7994 23.9161 28.9041 23.9161 27.7994C23.9152 27.4963 23.8444 27.1986 23.711 26.9264L24.2364 26.485L27.4747 23.774L32.8654 19.2624L32.9826 19.1649L33.6701 21.0419C33.4298 21.1488 33.205 21.2769 32.9826 21.4069V21.3956C32.9431 21.4183 32.9063 21.4444 32.8674 21.4678L32.8654 21.4698C31.884 22.0598 31.0776 22.8532 30.4768 23.7744H30.4748C30.4676 23.7858 30.4628 23.7971 30.4553 23.8085C30.3174 24.0224 30.1876 24.2421 30.0724 24.4686C29.8405 24.925 29.6596 25.4049 29.5256 25.9003C29.512 25.9506 29.4991 26.0004 29.4865 26.0507C29.4322 26.2695 29.3861 26.4908 29.3518 26.7147C29.3484 26.7374 29.3431 26.7571 29.34 26.779C29.3022 27.0401 29.2773 27.304 29.2678 27.57C29.2595 27.8073 29.2649 28.0455 29.2795 28.2849C29.2844 28.3677 29.293 28.4501 29.301 28.5329C29.318 28.712 29.3409 28.8908 29.3713 29.07C29.3837 29.1445 29.3955 29.2185 29.4103 29.2926C29.4603 29.5413 29.5193 29.7898 29.5959 30.0367C29.6682 30.2691 29.7515 30.4947 29.8439 30.7144C29.8943 30.8343 29.954 30.948 30.0099 31.0641C30.0621 31.1718 30.1112 31.2821 30.1681 31.3864C30.2307 31.5013 30.3012 31.6095 30.3693 31.7206C30.4227 31.8071 30.4728 31.8963 30.5295 31.9802C30.6254 32.1227 30.7294 32.2576 30.8342 32.3923C30.8697 32.4377 30.9032 32.4845 30.9396 32.5291C31.0566 32.6724 31.1802 32.8081 31.3068 32.9412C31.3382 32.9753 31.3686 33.0089 31.4006 33.041C31.5392 33.1816 31.6834 33.3146 31.8322 33.4433C31.8526 33.4622 31.8723 33.4774 31.8927 33.4963C32.0509 33.6301 32.2147 33.7555 32.383 33.8752C32.3981 33.8865 32.4125 33.8979 32.4279 33.9092C32.6035 34.0324 32.7836 34.1478 32.9689 34.2551C32.9734 34.2577 32.9761 34.2588 32.9806 34.2626C34.7142 35.2623 36.841 35.5702 38.9024 34.9287C42.8236 33.7087 45.0131 29.5413 43.7931 25.62C42.5863 21.7475 38.4987 19.5569 34.6054 20.6961L34.0446 19.1465L32.6794 15.4048L31.9254 13.3638C31.7569 12.8914 31.6537 12.8483 31.4566 12.8345L31.4551 12.8506ZM14.8028 13.6924H18.9456C18.9975 13.6924 19.0393 13.7343 19.0393 13.786V13.839C19.0393 13.8908 18.9975 13.9328 18.9456 13.9328H14.8028C14.7509 13.9328 14.7091 13.8908 14.7091 13.839V13.786C14.7091 13.7343 14.7509 13.6924 14.8028 13.6924ZM18.4825 17.2998H32.2989L32.6154 18.167L25.9199 23.7743L24.2363 25.1844L23.0625 26.1669C22.7266 25.9303 22.3268 25.8026 21.916 25.8018C21.7764 25.8026 21.6364 25.8169 21.5 25.8486C21.2915 25.1671 21.0072 24.3897 20.7676 23.7744L18.4825 17.2998ZM17.7189 18.1377L19.7091 23.7744L19.8673 24.2257L20.5997 26.2998C20.2828 26.5776 20.0604 26.9494 19.9669 27.3604H18.7144C18.5446 25.9047 17.9626 24.481 17.3745 23.5635C16.8773 22.855 16.2594 22.227 15.5308 21.7217L16.8062 19.6318L17.3745 18.7002L17.7189 18.1377ZM11.3027 21.3389C12.3008 21.3417 13.2843 21.574 14.1777 22.0186L11.4981 26.4112C11.4333 26.4036 11.368 26.3997 11.3027 26.3997C10.5108 26.3997 9.86916 27.0414 9.86912 27.8333C9.86912 28.6253 10.5107 29.2669 11.3027 29.2669C11.8905 29.2667 12.4181 28.909 12.6348 28.3626H17.7696C17.4945 31.7304 14.6819 34.3229 11.3028 34.3256C7.71691 34.3256 4.81075 31.4194 4.81075 27.8336C4.81076 24.2476 7.71702 21.3414 11.3028 21.3414L11.3027 21.3389ZM36.6838 21.3389C39.5306 21.3351 42.0488 23.183 42.8947 25.9015C43.96 29.3255 42.0472 32.9651 38.623 34.0305C36.631 34.6503 34.5706 34.2569 32.9825 33.1497L32.9805 33.1477C32.4238 32.7591 31.9266 32.2815 31.5098 31.7297C31.4936 31.707 31.4769 31.687 31.461 31.6651C31.2668 31.4013 31.0919 31.1198 30.9376 30.8233C30.9179 30.7852 30.9021 30.7447 30.8829 30.7061C30.7334 30.4042 30.5995 30.0909 30.4962 29.7588C30.4001 29.4489 30.3354 29.1358 30.2872 28.8233C30.2717 28.7231 30.2646 28.623 30.254 28.5225C30.2313 28.3097 30.2184 28.0975 30.2169 27.8858C30.2161 27.7717 30.2157 27.6574 30.2208 27.544C30.231 27.3203 30.2559 27.1001 30.2891 26.88C30.3016 26.7976 30.3069 26.7138 30.3223 26.6321C30.3783 26.3373 30.4553 26.0479 30.5508 25.7649C30.5788 25.6825 30.6154 25.6038 30.6465 25.5226C30.7228 25.3234 30.807 25.1272 30.9024 24.9366C30.9569 24.8278 31.0156 24.7224 31.0762 24.6165C31.17 24.4529 31.2711 24.2934 31.379 24.138C31.4463 24.0412 31.5114 23.9422 31.584 23.8488C31.9606 23.3657 32.407 22.9316 32.918 22.5656C33.2521 22.326 33.6099 22.1116 33.9961 21.9348L35.7578 26.7473C35.3263 27.1199 35.1571 27.7124 35.3262 28.257C35.5615 29.0132 36.3649 29.4356 37.1212 29.2004C37.8774 28.9653 38.2998 28.1618 38.0645 27.4055C37.8775 26.8068 37.3227 26.3977 36.6954 26.3977L34.933 21.5977C35.5024 21.4348 36.0908 21.3505 36.683 21.3479L36.6838 21.3389ZM15.0411 22.5263C16.6316 23.6459 17.6347 25.4206 17.7774 27.3604H12.6561C12.5953 27.1866 12.5003 27.0263 12.3788 26.8877L15.0411 22.5263ZM40.4006 22.9911L40.215 23.2723C41.154 23.9945 41.8471 24.9878 42.2013 26.1181C43.1476 29.1592 41.4495 32.3906 38.4082 33.337C36.8799 33.8106 35.2243 33.6284 33.8361 32.833L33.6506 33.1086C35.1223 33.9596 36.8838 34.1577 38.508 33.6554C41.7249 32.6546 43.5204 29.2357 42.5196 26.0185C42.1435 24.8146 41.4025 23.7572 40.4005 22.9913L40.4006 22.9911ZM7.1683 23.3563C5.91848 24.5087 5.20635 26.1309 5.20347 27.8309C5.20344 31.1999 7.93414 33.9303 11.3033 33.9303C12.5645 33.9289 13.7937 33.5366 14.8228 32.8073L14.6119 32.5454C13.6433 33.2274 12.4878 33.5937 11.3033 33.5962C8.1184 33.5962 5.53758 31.0153 5.53758 27.8304C5.53939 26.2304 6.20565 24.7031 7.37742 23.6136L7.1683 23.3563ZM21.9221 26.3114C22.7465 26.311 23.4148 26.9802 23.4143 27.8055C23.4138 28.6301 22.7457 29.2981 21.9221 29.2977C21.0992 29.297 20.4323 28.6293 20.4318 27.8055C20.4313 26.981 21.0984 26.3121 21.9221 26.3114ZM11.3126 26.9014C11.8281 26.901 12.2462 27.3182 12.2461 27.833C12.2462 28.3477 11.8281 28.7649 11.3126 28.7646C10.797 28.7649 10.3789 28.3477 10.379 27.833C10.3789 27.3182 10.797 26.901 11.3126 26.9014ZM36.6955 26.9052C37.2089 26.9048 37.6252 27.3202 37.6252 27.8329C37.6253 28.3455 37.2089 28.7609 36.6955 28.7606C36.1828 28.7598 35.7676 28.3447 35.7678 27.8329C35.7677 27.321 36.1829 26.9058 36.6955 26.9052Z" fill="#333333"/>
</svg>
