<svg width="48" height="48" viewBox="0 0 48 48" fill="none" xmlns="http://www.w3.org/2000/svg">
<path d="M32.6005 12.7256C32.5121 12.7265 32.3284 12.729 32.2495 12.729H28.8714C28.5944 12.729 28.3713 12.952 28.3713 13.2291C28.3713 13.5061 28.5944 13.7291 28.8714 13.7291H32.1812L33.0766 16.1739H19.2745L18.6197 14.3189H20.0777C20.4228 14.3189 20.7005 14.0411 20.7005 13.6961C20.7005 13.351 20.4228 13.0732 20.0777 13.0732H15.9754C15.6304 13.0732 15.3526 13.351 15.3526 13.6961C15.3526 14.0411 15.6304 14.3189 15.9754 14.3189H17.559L18.433 16.7949L15.8136 21.0873C14.7717 20.553 13.6185 20.2721 12.4476 20.2678C8.34073 20.2678 5.01172 23.5969 5.01172 27.7037C5.01169 31.8105 8.3408 35.1395 12.4476 35.1395C16.3492 35.1395 19.5871 32.124 19.8645 28.2324H21.1405C21.3883 29.0867 22.1705 29.6748 23.06 29.6754C24.1647 29.6754 25.0602 28.7799 25.0602 27.6752C25.0594 27.3721 24.9896 27.073 24.8562 26.8008L34.1263 19.0395L34.814 20.9174C31.3733 22.451 29.6228 26.3153 30.7393 29.913C31.9593 33.8343 36.127 36.0242 40.0483 34.8041C43.9695 33.5841 46.1594 29.4164 44.9394 25.4951C43.7325 21.6226 39.6446 19.4317 35.7517 20.5708L33.0724 13.2555C32.9034 12.7814 32.7987 12.7397 32.6003 12.726L32.6005 12.7256ZM19.6273 17.1756H33.4426L33.7602 18.0429L24.2071 26.0411C23.8711 25.8045 23.4706 25.6772 23.0597 25.6764C22.9201 25.6773 22.781 25.6916 22.6446 25.7226L19.6273 17.1756ZM18.8622 18.0127L21.7433 26.1742C21.4264 26.452 21.2054 26.8231 21.1119 27.2341H19.8596C19.7154 24.967 18.5428 22.8903 16.676 21.5958L18.8622 18.0127ZM12.4472 21.2126C13.4452 21.2154 14.4292 21.4484 15.3227 21.8931L12.6425 26.2852C12.5778 26.2776 12.5125 26.2739 12.4472 26.2739C11.6552 26.2739 11.0132 26.916 11.0132 27.7079C11.0131 28.4999 11.6552 29.142 12.4472 29.142C13.0349 29.1418 13.5631 28.7829 13.7798 28.2366H18.9135C18.6384 31.6044 15.8262 34.1984 12.4471 34.2007C8.86117 34.2007 5.95426 31.2936 5.95426 27.7078C5.95427 24.1219 8.8612 21.215 12.4471 21.215L12.4472 21.2126ZM37.8282 21.2127C40.675 21.2089 43.1929 23.0583 44.0387 25.7764C45.104 29.2004 43.1919 32.8396 39.7679 33.905C36.3438 34.9704 32.7043 33.0583 31.6392 29.6342C30.6735 26.5168 32.1719 23.167 35.1395 21.809L36.9019 26.6212C36.4704 26.9938 36.3007 27.587 36.4698 28.1316C36.7051 28.8878 37.5089 29.3101 38.2651 29.0749C39.0213 28.8398 39.4437 28.0357 39.2083 27.2794C39.0213 26.6807 38.4668 26.2731 37.8395 26.2731L36.0777 21.4629C36.6471 21.3 37.2361 21.2161 37.8283 21.213L37.8282 21.2127ZM16.1844 22.4011C17.7749 23.5206 18.7797 25.2942 18.9223 27.2339H13.7996C13.7387 27.06 13.645 26.8998 13.5234 26.7613L16.1844 22.4011ZM41.5454 22.8657L41.3583 23.1462C42.2972 23.8683 42.991 24.862 43.3453 25.9923C44.2915 29.0334 42.5932 32.2657 39.5521 33.2121C38.0238 33.6856 36.3675 33.5031 34.9793 32.7078L34.7954 32.9833C36.2671 33.8344 38.0272 34.0326 39.6514 33.5303C42.8682 32.5294 44.6645 29.1105 43.6637 25.8934C43.2876 24.6895 42.5476 23.6317 41.5455 22.8658L41.5454 22.8657ZM8.312 23.2312C7.06219 24.3836 6.35001 26.0053 6.34714 27.7054C6.34711 31.0744 9.07815 33.8055 12.4473 33.8055C13.7086 33.8041 14.9384 33.4117 15.9674 32.6824L15.7553 32.4205C14.7868 33.1025 13.6318 33.4697 12.4473 33.4722C9.26244 33.4722 6.68049 30.8903 6.68049 27.7054C6.6823 26.1054 7.34875 24.5781 8.52052 23.4886L8.312 23.2312Z" fill="#333333"/>
</svg>
