<svg width="49" height="48" viewBox="0 0 49 48" fill="none" xmlns="http://www.w3.org/2000/svg">
<path d="M31.9551 12.8506C31.8661 12.8515 31.6839 12.8543 31.6054 12.8543H28.2265C27.9495 12.8543 27.7266 13.0773 27.7266 13.3543C27.7266 13.6314 27.9495 13.8543 28.2265 13.8543H31.5371L32.4297 16.2958H32.4316V16.2977H18.6307L18.6287 16.2958L18.326 15.4364L17.9744 14.4442H19.4334C19.7784 14.4442 20.0565 14.166 20.0565 13.8211C20.0565 13.476 19.7785 13.1981 19.4334 13.1981H15.33C14.9849 13.1981 14.7089 13.4762 14.7089 13.8211C14.7089 14.1662 14.9849 14.4442 15.33 14.4442H16.914L17.2655 15.4364L17.789 16.9188V16.9207L16.1347 19.6317L15.1698 21.2118C14.128 20.6774 12.9736 20.3977 11.8027 20.3934C7.69582 20.3934 4.36719 23.7223 4.36719 27.8289C4.36716 31.9358 7.69604 35.2643 11.8027 35.2643C15.7043 35.2643 18.9433 32.2498 19.2207 28.358H20.4961C20.744 29.2123 21.5265 29.7988 22.4161 29.7994C23.5208 29.7994 24.4161 28.9041 24.4161 27.7994C24.4152 27.4963 24.3444 27.1986 24.211 26.9264L24.7364 26.485L27.9747 23.774L33.3654 19.2624L33.4826 19.1649L34.1701 21.0419C33.9298 21.1488 33.705 21.2769 33.4826 21.4069V21.3956C33.4431 21.4183 33.4063 21.4444 33.3674 21.4678L33.3654 21.4698C32.384 22.0598 31.5776 22.8532 30.9768 23.7744H30.9748C30.9676 23.7858 30.9628 23.7971 30.9553 23.8085C30.8174 24.0224 30.6876 24.2421 30.5724 24.4686C30.3405 24.925 30.1596 25.4049 30.0256 25.9003C30.012 25.9506 29.9991 26.0004 29.9865 26.0507C29.9322 26.2695 29.8861 26.4908 29.8518 26.7147C29.8484 26.7374 29.8431 26.7571 29.84 26.779C29.8022 27.0401 29.7773 27.304 29.7678 27.57C29.7595 27.8073 29.7649 28.0455 29.7795 28.2849C29.7844 28.3677 29.793 28.4501 29.801 28.5329C29.818 28.712 29.8409 28.8908 29.8713 29.07C29.8837 29.1445 29.8955 29.2185 29.9103 29.2926C29.9603 29.5413 30.0193 29.7898 30.0959 30.0367C30.1682 30.2691 30.2515 30.4947 30.3439 30.7144C30.3943 30.8343 30.454 30.948 30.5099 31.0641C30.5621 31.1718 30.6112 31.2821 30.6681 31.3864C30.7307 31.5013 30.8012 31.6095 30.8693 31.7206C30.9227 31.8071 30.9728 31.8963 31.0295 31.9802C31.1254 32.1227 31.2294 32.2576 31.3342 32.3923C31.3697 32.4377 31.4032 32.4845 31.4396 32.5291C31.5566 32.6724 31.6802 32.8081 31.8068 32.9412C31.8382 32.9753 31.8686 33.0089 31.9006 33.041C32.0392 33.1816 32.1834 33.3146 32.3322 33.4433C32.3526 33.4622 32.3723 33.4774 32.3927 33.4963C32.5509 33.6301 32.7147 33.7555 32.883 33.8752C32.8981 33.8865 32.9125 33.8979 32.9279 33.9092C33.1035 34.0324 33.2836 34.1478 33.4689 34.2551C33.4734 34.2577 33.4761 34.2588 33.4806 34.2626C35.2142 35.2623 37.341 35.5702 39.4024 34.9287C43.3236 33.7087 45.5131 29.5413 44.2931 25.62C43.0863 21.7475 38.9987 19.5569 35.1054 20.6961L34.5446 19.1465L33.1794 15.4048L32.4254 13.3638C32.2569 12.8914 32.1537 12.8483 31.9566 12.8345L31.9551 12.8506ZM15.3028 13.6924H19.4456C19.4975 13.6924 19.5393 13.7343 19.5393 13.786V13.839C19.5393 13.8908 19.4975 13.9328 19.4456 13.9328H15.3028C15.2509 13.9328 15.2091 13.8908 15.2091 13.839V13.786C15.2091 13.7343 15.2509 13.6924 15.3028 13.6924ZM18.9825 17.2998H32.7989L33.1154 18.167L26.4199 23.7743L24.7363 25.1844L23.5625 26.1669C23.2266 25.9303 22.8268 25.8026 22.416 25.8018C22.2764 25.8026 22.1364 25.8169 22 25.8486C21.7915 25.1671 21.5072 24.3897 21.2676 23.7744L18.9825 17.2998ZM18.2189 18.1377L20.2091 23.7744L20.3673 24.2257L21.0997 26.2998C20.7828 26.5776 20.5604 26.9494 20.4669 27.3604H19.2144C19.0446 25.9047 18.4626 24.481 17.8745 23.5635C17.3773 22.855 16.7594 22.227 16.0308 21.7217L17.3062 19.6318L17.8745 18.7002L18.2189 18.1377ZM11.8027 21.3389C12.8008 21.3417 13.7843 21.574 14.6777 22.0186L11.9981 26.4112C11.9333 26.4036 11.868 26.3997 11.8027 26.3997C11.0108 26.3997 10.3692 27.0414 10.3691 27.8333C10.3691 28.6253 11.0107 29.2669 11.8027 29.2669C12.3905 29.2667 12.9181 28.909 13.1348 28.3626H18.2696C17.9945 31.7304 15.1819 34.3229 11.8028 34.3256C8.21691 34.3256 5.31075 31.4194 5.31075 27.8336C5.31076 24.2476 8.21702 21.3414 11.8028 21.3414L11.8027 21.3389ZM37.1838 21.3389C40.0306 21.3351 42.5488 23.183 43.3947 25.9015C44.46 29.3255 42.5472 32.9651 39.123 34.0305C37.131 34.6503 35.0706 34.2569 33.4825 33.1497L33.4805 33.1477C32.9238 32.7591 32.4266 32.2815 32.0098 31.7297C31.9936 31.707 31.9769 31.687 31.961 31.6651C31.7668 31.4013 31.5919 31.1198 31.4376 30.8233C31.4179 30.7852 31.4021 30.7447 31.3829 30.7061C31.2334 30.4042 31.0995 30.0909 30.9962 29.7588C30.9001 29.4489 30.8354 29.1358 30.7872 28.8233C30.7717 28.7231 30.7646 28.623 30.754 28.5225C30.7313 28.3097 30.7184 28.0975 30.7169 27.8858C30.7161 27.7717 30.7157 27.6574 30.7208 27.544C30.731 27.3203 30.7559 27.1001 30.7891 26.88C30.8016 26.7976 30.8069 26.7138 30.8223 26.6321C30.8783 26.3373 30.9553 26.0479 31.0508 25.7649C31.0788 25.6825 31.1154 25.6038 31.1465 25.5226C31.2228 25.3234 31.307 25.1272 31.4024 24.9366C31.4569 24.8278 31.5156 24.7224 31.5762 24.6165C31.67 24.4529 31.7711 24.2934 31.879 24.138C31.9463 24.0412 32.0114 23.9422 32.084 23.8488C32.4606 23.3657 32.907 22.9316 33.418 22.5656C33.7521 22.326 34.1099 22.1116 34.4961 21.9348L36.2578 26.7473C35.8263 27.1199 35.6571 27.7124 35.8262 28.257C36.0615 29.0132 36.8649 29.4356 37.6212 29.2004C38.3774 28.9653 38.7998 28.1618 38.5645 27.4055C38.3775 26.8068 37.8227 26.3977 37.1954 26.3977L35.433 21.5977C36.0024 21.4348 36.5908 21.3505 37.183 21.3479L37.1838 21.3389ZM15.5411 22.5263C17.1316 23.6459 18.1347 25.4206 18.2774 27.3604H13.1561C13.0953 27.1866 13.0003 27.0263 12.8788 26.8877L15.5411 22.5263ZM40.9006 22.9911L40.715 23.2723C41.654 23.9945 42.3471 24.9878 42.7013 26.1181C43.6476 29.1592 41.9495 32.3906 38.9082 33.337C37.3799 33.8106 35.7243 33.6284 34.3361 32.833L34.1506 33.1086C35.6223 33.9596 37.3838 34.1577 39.008 33.6554C42.2249 32.6546 44.0204 29.2357 43.0196 26.0185C42.6435 24.8146 41.9025 23.7572 40.9005 22.9913L40.9006 22.9911ZM7.6683 23.3563C6.41848 24.5087 5.70635 26.1309 5.70347 27.8309C5.70344 31.1999 8.43414 33.9303 11.8033 33.9303C13.0645 33.9289 14.2937 33.5366 15.3228 32.8073L15.1119 32.5454C14.1433 33.2274 12.9878 33.5937 11.8033 33.5962C8.6184 33.5962 6.03758 31.0153 6.03758 27.8304C6.03939 26.2304 6.70565 24.7031 7.87742 23.6136L7.6683 23.3563ZM22.4221 26.3114C23.2465 26.311 23.9148 26.9802 23.9143 27.8055C23.9138 28.6301 23.2457 29.2981 22.4221 29.2977C21.5992 29.297 20.9323 28.6293 20.9318 27.8055C20.9313 26.981 21.5984 26.3121 22.4221 26.3114ZM11.8126 26.9014C12.3281 26.901 12.7462 27.3182 12.7461 27.833C12.7462 28.3477 12.3281 28.7649 11.8126 28.7646C11.297 28.7649 10.8789 28.3477 10.879 27.833C10.8789 27.3182 11.297 26.901 11.8126 26.9014ZM37.1955 26.9052C37.7089 26.9048 38.1252 27.3202 38.1252 27.8329C38.1253 28.3455 37.7089 28.7609 37.1955 28.7606C36.6828 28.7598 36.2676 28.3447 36.2678 27.8329C36.2677 27.321 36.6829 26.9058 37.1955 26.9052Z" fill="#333333"/>
</svg>
