<svg width="48" height="48" viewBox="0 0 48 48" fill="none" xmlns="http://www.w3.org/2000/svg">
<path fill-rule="evenodd" clip-rule="evenodd" d="M48 0H0V48H48V0ZM10.4894 36V32H12.4894V33.0376C12.882 33.0381 13.2707 33.1157 13.6335 33.266C13.9975 33.4167 14.3282 33.6377 14.6067 33.9163C14.8853 34.1949 15.1063 34.5256 15.2571 34.8895C15.403 35.2419 15.4804 35.6188 15.4852 36H39.5068C39.5068 35.606 39.5844 35.2159 39.7352 34.852C39.886 34.488 40.1069 34.1573 40.3855 33.8787C40.6641 33.6001 40.9948 33.3791 41.3588 33.2284C41.7174 33.0798 42.1013 33.0023 42.4894 33V22.9961C42.0958 22.9959 41.7061 22.9184 41.3424 22.7677C40.9785 22.617 40.6477 22.396 40.3692 22.1174C40.2315 21.9798 40.108 21.8295 40 21.6687V18H42.4894C43.5939 18 44.4894 18.8954 44.4894 20V36C44.4894 37.1046 43.5939 38 42.4894 38H12.4894C11.3848 38 10.4894 37.1046 10.4894 36ZM25 20C25 22.2091 23.2091 24 21 24C18.7909 24 17 22.2091 17 20C17 17.7909 18.7909 16 21 16C23.2091 16 25 17.7909 25 20ZM4 12C4 10.8954 4.89543 10 6 10H36C37.1046 10 38 10.8954 38 12V28C38 29.1046 37.1046 30 36 30H6C4.89543 30 4 29.1046 4 28V12ZM33.0011 12H8.99817C8.99817 12.394 8.92057 12.7841 8.76981 13.1481C8.61904 13.512 8.39807 13.8427 8.11949 14.1213C7.84091 14.3999 7.5102 14.6209 7.14622 14.7716C6.78281 14.9222 6.39334 14.9998 6 15V25.0376C6.39262 25.0381 6.78134 25.1157 7.1441 25.266C7.50807 25.4167 7.83879 25.6377 8.11737 25.9163C8.39594 26.1949 8.61692 26.5256 8.76768 26.8895C8.91365 27.2419 8.99103 27.6188 8.99581 28H33.0175C33.0175 27.606 33.0951 27.2159 33.2458 26.8519C33.3966 26.488 33.6176 26.1573 33.8961 25.8787C34.1747 25.6001 34.5054 25.3791 34.8694 25.2284C35.228 25.0798 35.612 25.0023 36 25V14.9961C35.6064 14.9959 35.2167 14.9184 34.8531 14.7677C34.4891 14.617 34.1584 14.396 33.8798 14.1174C33.6012 13.8388 33.3802 13.5081 33.2295 13.1441C33.0792 12.7814 33.0016 12.3926 33.0011 12Z" fill="#333333"/>
</svg>
