<svg width="48" height="48" viewBox="0 0 48 48" fill="none" xmlns="http://www.w3.org/2000/svg">
<path d="M14.346 4.09377C13.476 4.09377 12.777 4.79277 12.777 5.66177V42.5228C12.777 43.3928 13.477 44.0928 14.346 44.0928H34.05C34.92 44.0928 35.618 43.3928 35.618 42.5228V5.66277C35.618 4.79277 34.919 4.09277 34.05 4.09277H14.346V4.09377ZM14.776 4.59377H33.616C34.446 4.59377 35.117 5.27677 35.117 6.12477V42.0648C35.117 42.9118 34.447 43.5938 33.615 43.5938H14.775C13.945 43.5938 13.275 42.9118 13.275 42.0638V6.12477C13.275 5.27677 13.945 4.59377 14.775 4.59377H14.776ZM18.225 9.23577C18.041 9.25877 17.862 9.36277 17.57 9.48977L15.762 11.3458C15.6751 11.435 15.6066 11.5405 15.5606 11.6562C15.5146 11.7719 15.4919 11.8956 15.4939 12.0201C15.4958 12.1447 15.5224 12.2676 15.572 12.3818C15.6216 12.496 15.6933 12.5993 15.783 12.6858C15.8719 12.773 15.9772 12.8418 16.0929 12.8881C16.2085 12.9345 16.3322 12.9575 16.4567 12.9558C16.5813 12.9541 16.7043 12.9278 16.8186 12.8784C16.933 12.8289 17.0364 12.7574 17.123 12.6678L18.932 10.8078C19.0188 10.7185 19.0872 10.613 19.1331 10.4972C19.1791 10.3814 19.2016 10.2577 19.1996 10.1332C19.1976 10.0087 19.1709 9.88577 19.1212 9.77158C19.0715 9.65738 18.9997 9.55413 18.91 9.46777C18.597 9.27177 18.408 9.21277 18.225 9.23577ZM21.787 9.23577C21.603 9.25877 21.424 9.36277 21.133 9.48977L19.324 11.3458C19.2371 11.435 19.1688 11.5406 19.1228 11.6563C19.0769 11.7721 19.0543 11.8958 19.0564 12.0203C19.0584 12.1449 19.085 12.2678 19.1347 12.382C19.1844 12.4962 19.2562 12.5994 19.346 12.6858C19.4349 12.773 19.5402 12.8418 19.6559 12.8881C19.7715 12.9345 19.8952 12.9575 20.0197 12.9558C20.1443 12.9541 20.2673 12.9278 20.3816 12.8784C20.496 12.8289 20.5994 12.7574 20.686 12.6678L22.494 10.8078C22.5809 10.7186 22.6493 10.6131 22.6954 10.4974C22.7414 10.3816 22.764 10.2579 22.7621 10.1334C22.7601 10.0089 22.7336 9.88596 22.684 9.77173C22.6344 9.6575 22.5627 9.5542 22.473 9.46777C22.16 9.27177 21.971 9.21277 21.787 9.23577ZM25.164 9.23577C24.98 9.25877 24.801 9.36277 24.51 9.48977L22.7 11.3458C22.6131 11.435 22.5448 11.5406 22.4988 11.6563C22.4529 11.7721 22.4303 11.8958 22.4324 12.0203C22.4344 12.1449 22.461 12.2678 22.5107 12.382C22.5604 12.4962 22.6322 12.5994 22.722 12.6858C22.8109 12.773 22.9162 12.8418 23.0319 12.8881C23.1475 12.9345 23.2712 12.9575 23.3957 12.9558C23.5203 12.9541 23.6433 12.9278 23.7576 12.8784C23.872 12.8289 23.9754 12.7574 24.062 12.6678L25.87 10.8078C25.9569 10.7186 26.0253 10.6131 26.0714 10.4974C26.1174 10.3816 26.14 10.2579 26.1381 10.1334C26.1361 10.0089 26.1096 9.88596 26.06 9.77173C26.0104 9.6575 25.9387 9.5542 25.849 9.46777C25.535 9.27177 25.347 9.21277 25.163 9.23577H25.164ZM28.727 9.23577C28.543 9.25877 28.364 9.36277 28.072 9.48977L26.264 11.3458C26.1771 11.435 26.1086 11.5405 26.0626 11.6562C26.0166 11.7719 25.9939 11.8956 25.9959 12.0201C25.9978 12.1447 26.0244 12.2676 26.074 12.3818C26.1236 12.496 26.1953 12.5993 26.285 12.6858C26.3739 12.773 26.4792 12.8418 26.5949 12.8881C26.7105 12.9345 26.8342 12.9575 26.9587 12.9558C27.0833 12.9541 27.2063 12.9278 27.3206 12.8784C27.435 12.8289 27.5384 12.7574 27.625 12.6678L29.434 10.8078C29.5208 10.7185 29.5892 10.613 29.6351 10.4972C29.6811 10.3814 29.7036 10.2577 29.7016 10.1332C29.6996 10.0087 29.6729 9.88577 29.6232 9.77158C29.5735 9.65738 29.5017 9.55413 29.412 9.46777C29.099 9.27177 28.91 9.21277 28.727 9.23577ZM31.926 9.23577C31.742 9.25877 31.565 9.36277 31.273 9.48977L29.465 11.3458C29.3781 11.435 29.3096 11.5405 29.2636 11.6562C29.2176 11.7719 29.1949 11.8956 29.1969 12.0201C29.1988 12.1447 29.2254 12.2676 29.275 12.3818C29.3246 12.496 29.3963 12.5993 29.486 12.6858C29.5749 12.773 29.6802 12.8418 29.7959 12.8881C29.9115 12.9345 30.0352 12.9575 30.1597 12.9558C30.2843 12.9541 30.4073 12.9278 30.5216 12.8784C30.636 12.8289 30.7394 12.7574 30.826 12.6678L32.635 10.8078C32.7218 10.7185 32.7902 10.613 32.8361 10.4972C32.8821 10.3814 32.9046 10.2577 32.9026 10.1332C32.9006 10.0087 32.8739 9.88577 32.8242 9.77158C32.7745 9.65738 32.7027 9.55413 32.613 9.46777C32.3 9.27177 32.11 9.21277 31.926 9.23577ZM18.3 9.68177C18.3914 9.68981 18.4778 9.72736 18.546 9.78877C18.952 10.1508 18.471 10.5748 18.296 10.7578L17.431 11.6618C16.823 12.2928 16.559 12.7198 16.136 12.3118C15.776 11.9388 16.092 11.7168 16.78 11.0178L17.646 10.1148C17.851 9.91477 18.064 9.66977 18.3 9.68177ZM21.862 9.68177C21.9534 9.68981 22.0398 9.72736 22.108 9.78877C22.515 10.1508 22.033 10.5748 21.858 10.7578L20.993 11.6618C20.386 12.2928 20.122 12.7198 19.698 12.3118C19.338 11.9388 19.654 11.7168 20.343 11.0178L21.208 10.1148C21.413 9.91477 21.626 9.66977 21.862 9.68177ZM25.239 9.68177C25.3304 9.68981 25.4168 9.72736 25.485 9.78877C25.892 10.1508 25.41 10.5748 25.235 10.7578L24.37 11.6618C23.763 12.2928 23.499 12.7198 23.075 12.3118C22.715 11.9388 23.031 11.7168 23.72 11.0178L24.585 10.1148C24.79 9.91477 25.003 9.66977 25.239 9.68177ZM28.802 9.68177C28.8934 9.68981 28.9798 9.72736 29.048 9.78877C29.454 10.1508 28.973 10.5748 28.798 10.7578L27.933 11.6618C27.325 12.2928 27.061 12.7198 26.638 12.3118C26.278 11.9388 26.594 11.7168 27.282 11.0178L28.147 10.1148C28.353 9.91477 28.566 9.66977 28.802 9.68177ZM32.002 9.68177C32.0938 9.68959 32.1805 9.72716 32.249 9.78877C32.656 10.1508 32.174 10.5748 31.999 10.7578L31.134 11.6618C30.526 12.2928 30.262 12.7198 29.839 12.3118C29.479 11.9388 29.795 11.7168 30.483 11.0178L31.349 10.1148C31.554 9.91477 31.767 9.66977 32.003 9.68177H32.002ZM13.796 14.9798C13.7812 14.9799 13.7666 14.983 13.753 14.9888C13.7394 14.9946 13.727 15.003 13.7167 15.0136C13.7064 15.0242 13.6983 15.0368 13.6928 15.0505C13.6874 15.0643 13.6847 15.079 13.685 15.0938C13.685 15.1548 13.735 15.2058 13.795 15.2068C13.858 15.2068 13.908 15.1568 13.909 15.0938C13.9092 15.0788 13.9065 15.064 13.9009 15.0501C13.8954 15.0362 13.8871 15.0235 13.8765 15.0129C13.866 15.0023 13.8534 14.9939 13.8396 14.9882C13.8258 14.9825 13.8109 14.9796 13.796 14.9798ZM14.358 14.9798C14.3279 14.98 14.2992 14.9922 14.278 15.0135C14.2568 15.0349 14.245 15.0637 14.245 15.0938C14.245 15.1548 14.297 15.2068 14.358 15.2068C14.42 15.2068 14.469 15.1548 14.47 15.0938V15.0738C14.4661 15.0471 14.4525 15.0228 14.4319 15.0055C14.4112 14.9881 14.3849 14.979 14.358 14.9798ZM14.921 14.9798C14.906 14.9796 14.8912 14.9825 14.8773 14.9882C14.8635 14.9939 14.8509 15.0023 14.8404 15.0129C14.8299 15.0235 14.8216 15.0362 14.816 15.0501C14.8104 15.064 14.8077 15.0788 14.808 15.0938C14.808 15.1558 14.858 15.2078 14.921 15.2068C14.982 15.2068 15.031 15.1548 15.032 15.0938V15.0738C15.0281 15.0473 15.0147 15.0231 14.9942 15.0058C14.9738 14.9885 14.9477 14.9792 14.921 14.9798ZM15.483 14.9798C15.468 14.9796 15.4532 14.9825 15.4393 14.9882C15.4255 14.9939 15.4129 15.0023 15.4024 15.0129C15.3919 15.0235 15.3836 15.0362 15.378 15.0501C15.3724 15.064 15.3697 15.0788 15.37 15.0938C15.37 15.1558 15.421 15.2078 15.483 15.2068C15.545 15.2068 15.594 15.1548 15.595 15.0938V15.0858C15.5934 15.0571 15.581 15.0302 15.5601 15.0104C15.5393 14.9907 15.5117 14.9797 15.483 14.9798ZM16.046 14.9798C16.031 14.9796 16.0162 14.9825 16.0023 14.9882C15.9885 14.9939 15.9759 15.0023 15.9654 15.0129C15.9549 15.0235 15.9466 15.0362 15.941 15.0501C15.9354 15.064 15.9327 15.0788 15.933 15.0938C15.933 15.1558 15.983 15.2078 16.046 15.2068C16.107 15.2068 16.156 15.1548 16.157 15.0938V15.0858C16.1554 15.0573 16.1431 15.0305 16.1225 15.0108C16.1019 14.9911 16.0745 14.98 16.046 14.9798ZM16.608 14.9798C16.593 14.9796 16.5782 14.9825 16.5643 14.9882C16.5505 14.9939 16.5379 15.0023 16.5274 15.0129C16.5169 15.0235 16.5086 15.0362 16.503 15.0501C16.4974 15.064 16.4947 15.0788 16.495 15.0938C16.495 15.1558 16.546 15.2078 16.608 15.2068C16.67 15.2068 16.719 15.1548 16.72 15.0938V15.0858C16.7184 15.0571 16.706 15.0302 16.6851 15.0104C16.6643 14.9907 16.6367 14.9797 16.608 14.9798ZM17.169 14.9798C17.1542 14.9799 17.1396 14.983 17.126 14.9888C17.1124 14.9946 17.1 15.003 17.0897 15.0136C17.0794 15.0242 17.0713 15.0368 17.0658 15.0505C17.0604 15.0643 17.0577 15.079 17.058 15.0938C17.058 15.1548 17.108 15.2068 17.169 15.2068C17.1989 15.2065 17.2275 15.1945 17.2486 15.1734C17.2697 15.1523 17.2817 15.1237 17.282 15.0938V15.0858C17.2804 15.0569 17.2678 15.0298 17.2468 15.0101C17.2257 14.9903 17.1978 14.9795 17.169 14.9798ZM17.732 14.9798C17.7171 14.9798 17.7024 14.9827 17.6887 14.9885C17.6749 14.9942 17.6625 15.0027 17.6521 15.0133C17.6416 15.0239 17.6334 15.0365 17.6279 15.0503C17.6224 15.0641 17.6197 15.0789 17.62 15.0938C17.62 15.1548 17.67 15.2068 17.731 15.2068C17.761 15.2068 17.7899 15.1949 17.8112 15.1737C17.8326 15.1526 17.8447 15.1238 17.845 15.0938V15.0858C17.8434 15.0568 17.8307 15.0295 17.8094 15.0097C17.7881 14.99 17.76 14.9792 17.731 14.9798H17.732ZM18.294 14.9798C18.2792 14.9799 18.2646 14.983 18.251 14.9888C18.2374 14.9946 18.225 15.003 18.2147 15.0136C18.2044 15.0242 18.1963 15.0368 18.1908 15.0505C18.1854 15.0643 18.1827 15.079 18.183 15.0938C18.183 15.1548 18.233 15.2068 18.294 15.2068C18.3239 15.2065 18.3525 15.1945 18.3736 15.1734C18.3947 15.1523 18.4067 15.1237 18.407 15.0938V15.0858C18.4054 15.0569 18.3928 15.0298 18.3718 15.0101C18.3507 14.9903 18.3228 14.9795 18.294 14.9798ZM18.857 14.9798C18.8421 14.9798 18.8274 14.9827 18.8137 14.9885C18.7999 14.9942 18.7875 15.0027 18.7771 15.0133C18.7666 15.0239 18.7584 15.0365 18.7529 15.0503C18.7474 15.0641 18.7447 15.0789 18.745 15.0938C18.745 15.1548 18.795 15.2068 18.856 15.2068C18.918 15.2068 18.967 15.1548 18.968 15.0938V15.0738C18.9641 15.0473 18.9507 15.0231 18.9302 15.0058C18.9098 14.9885 18.8838 14.9792 18.857 14.9798ZM19.419 14.9798C19.404 14.9796 19.3892 14.9825 19.3753 14.9882C19.3615 14.9939 19.3489 15.0023 19.3384 15.0129C19.3279 15.0235 19.3196 15.0362 19.314 15.0501C19.3084 15.064 19.3057 15.0788 19.306 15.0938C19.306 15.1558 19.357 15.2078 19.419 15.2068C19.48 15.2068 19.529 15.1548 19.53 15.0938V15.0858C19.5285 15.0573 19.5161 15.0305 19.4955 15.0108C19.4749 14.9911 19.4475 14.98 19.419 14.9798ZM19.982 14.9798C19.9669 14.9795 19.952 14.9823 19.938 14.9879C19.9241 14.9935 19.9114 15.0019 19.9008 15.0126C19.8901 15.0232 19.8817 15.0359 19.8761 15.0498C19.8705 15.0638 19.8677 15.0787 19.868 15.0938C19.868 15.1558 19.92 15.2078 19.981 15.2068C20.043 15.2068 20.092 15.1548 20.093 15.0938V15.0858C20.0915 15.0573 20.0791 15.0305 20.0585 15.0108C20.0379 14.9911 20.0105 14.98 19.982 14.9798ZM20.544 14.9798C20.529 14.9796 20.5142 14.9825 20.5003 14.9882C20.4865 14.9939 20.4739 15.0023 20.4634 15.0129C20.4529 15.0235 20.4446 15.0362 20.439 15.0501C20.4334 15.064 20.4307 15.0788 20.431 15.0938C20.431 15.1558 20.482 15.2078 20.544 15.2068C20.605 15.2068 20.654 15.1548 20.655 15.0938V15.0858C20.6535 15.0573 20.6411 15.0305 20.6205 15.0108C20.5999 14.9911 20.5725 14.98 20.544 14.9798ZM21.107 14.9798C21.0919 14.9795 21.077 14.9823 21.063 14.9879C21.0491 14.9935 21.0364 15.0019 21.0258 15.0126C21.0151 15.0232 21.0067 15.0359 21.0011 15.0498C20.9955 15.0638 20.9927 15.0787 20.993 15.0938C20.993 15.1558 21.045 15.2078 21.106 15.2068C21.168 15.2068 21.217 15.1548 21.218 15.0938V15.0858C21.2165 15.0573 21.2041 15.0305 21.1835 15.0108C21.1629 14.9911 21.1355 14.98 21.107 14.9798ZM21.667 14.9798C21.6522 14.9799 21.6376 14.983 21.624 14.9888C21.6104 14.9946 21.598 15.003 21.5877 15.0136C21.5774 15.0242 21.5693 15.0368 21.5638 15.0505C21.5584 15.0643 21.5557 15.079 21.556 15.0938C21.556 15.1548 21.606 15.2068 21.667 15.2068C21.6969 15.2065 21.7255 15.1945 21.7466 15.1734C21.7677 15.1523 21.7797 15.1237 21.78 15.0938V15.0858C21.7784 15.0569 21.7658 15.0298 21.7448 15.0101C21.7237 14.9903 21.6958 14.9795 21.667 14.9798ZM22.23 14.9798C22.2151 14.9798 22.2004 14.9827 22.1866 14.9885C22.1729 14.9942 22.1605 15.0027 22.1501 15.0133C22.1396 15.0239 22.1314 15.0365 22.1259 15.0503C22.1204 15.0641 22.1177 15.0789 22.118 15.0938C22.118 15.1548 22.168 15.2068 22.229 15.2068C22.259 15.2068 22.2879 15.1949 22.3092 15.1737C22.3306 15.1526 22.3427 15.1238 22.343 15.0938V15.0858C22.3414 15.0569 22.3288 15.0298 22.3078 15.0101C22.2867 14.9903 22.2588 14.9795 22.23 14.9798ZM22.792 14.9798C22.7772 14.9799 22.7626 14.983 22.749 14.9888C22.7354 14.9946 22.723 15.003 22.7127 15.0136C22.7024 15.0242 22.6943 15.0368 22.6888 15.0505C22.6834 15.0643 22.6807 15.079 22.681 15.0938C22.681 15.1548 22.731 15.2058 22.792 15.2068C22.854 15.2068 22.905 15.1568 22.905 15.0938C22.9052 15.0788 22.9025 15.064 22.8969 15.0501C22.8914 15.0362 22.8831 15.0235 22.8725 15.0129C22.862 15.0023 22.8495 14.9939 22.8356 14.9882C22.8218 14.9825 22.8069 14.9796 22.792 14.9798ZM23.355 14.9798C23.3401 14.9798 23.3254 14.9827 23.3116 14.9885C23.2979 14.9942 23.2855 15.0027 23.2751 15.0133C23.2646 15.0239 23.2564 15.0365 23.2509 15.0503C23.2454 15.0641 23.2427 15.0789 23.243 15.0938C23.243 15.1548 23.293 15.2068 23.354 15.2068C23.3837 15.2063 23.412 15.1941 23.4329 15.173C23.4539 15.1519 23.4657 15.1235 23.466 15.0938V15.0738C23.4619 15.0474 23.4484 15.0233 23.428 15.0061C23.4076 14.9888 23.3817 14.9795 23.355 14.9798ZM23.917 14.9798C23.902 14.9796 23.8872 14.9825 23.8733 14.9882C23.8595 14.9939 23.8469 15.0023 23.8364 15.0129C23.8259 15.0235 23.8176 15.0362 23.812 15.0501C23.8064 15.064 23.8037 15.0788 23.804 15.0938C23.804 15.1558 23.855 15.2078 23.917 15.2068C23.978 15.2068 24.027 15.1548 24.028 15.0938V15.0738C24.0241 15.0473 24.0107 15.0231 23.9902 15.0058C23.9698 14.9885 23.9438 14.9792 23.917 14.9798ZM24.48 14.9798C24.4649 14.9795 24.45 14.9823 24.436 14.9879C24.4221 14.9935 24.4094 15.0019 24.3988 15.0126C24.3881 15.0232 24.3797 15.0359 24.3741 15.0498C24.3685 15.0638 24.3657 15.0787 24.366 15.0938C24.366 15.1558 24.418 15.2078 24.48 15.2068C24.54 15.2068 24.59 15.1548 24.59 15.0938V15.0858C24.5885 15.0575 24.5763 15.0308 24.5559 15.0111C24.5354 14.9914 24.5083 14.9802 24.48 14.9798ZM25.042 14.9798C25.027 14.9796 25.0122 14.9825 24.9983 14.9882C24.9845 14.9939 24.9719 15.0023 24.9614 15.0129C24.9509 15.0235 24.9426 15.0362 24.937 15.0501C24.9314 15.064 24.9287 15.0788 24.929 15.0938C24.929 15.1558 24.98 15.2078 25.042 15.2068C25.103 15.2068 25.152 15.1548 25.153 15.0938V15.0858C25.1515 15.0573 25.1391 15.0305 25.1185 15.0108C25.0979 14.9911 25.0705 14.98 25.042 14.9798ZM25.602 14.9798C25.5873 14.98 25.5728 14.9832 25.5593 14.9891C25.5458 14.9949 25.5336 15.0034 25.5234 15.014C25.5131 15.0246 25.5051 15.0371 25.4997 15.0508C25.4943 15.0644 25.4917 15.0791 25.492 15.0938C25.492 15.1548 25.542 15.2068 25.602 15.2068C25.632 15.2068 25.6609 15.1949 25.6822 15.1737C25.7036 15.1526 25.7157 15.1238 25.716 15.0938V15.0858C25.7144 15.0569 25.7018 15.0298 25.6808 15.0101C25.6597 14.9903 25.6318 14.9795 25.603 14.9798H25.602ZM26.165 14.9798C26.1502 14.9799 26.1356 14.983 26.122 14.9888C26.1084 14.9946 26.096 15.003 26.0857 15.0136C26.0754 15.0242 26.0673 15.0368 26.0618 15.0505C26.0564 15.0643 26.0537 15.079 26.054 15.0938C26.054 15.1548 26.104 15.2068 26.165 15.2068C26.1949 15.2065 26.2235 15.1945 26.2446 15.1734C26.2657 15.1523 26.2777 15.1237 26.278 15.0938V15.0858C26.2764 15.0569 26.2638 15.0298 26.2428 15.0101C26.2217 14.9903 26.1938 14.9795 26.165 14.9798ZM26.728 14.9798C26.7131 14.9798 26.6984 14.9827 26.6847 14.9885C26.6709 14.9942 26.6585 15.0027 26.6481 15.0133C26.6376 15.0239 26.6294 15.0365 26.6239 15.0503C26.6184 15.0641 26.6157 15.0789 26.616 15.0938C26.616 15.1548 26.666 15.2068 26.728 15.2068C26.7579 15.2065 26.7865 15.1945 26.8076 15.1734C26.8287 15.1523 26.8407 15.1237 26.841 15.0938V15.0858C26.8394 15.0569 26.8268 15.0298 26.8058 15.0101C26.7847 14.9903 26.7568 14.9795 26.728 14.9798ZM27.29 14.9798C27.2752 14.9799 27.2606 14.983 27.247 14.9888C27.2334 14.9946 27.221 15.003 27.2107 15.0136C27.2004 15.0242 27.1923 15.0368 27.1868 15.0505C27.1814 15.0643 27.1787 15.079 27.179 15.0938C27.179 15.1548 27.229 15.2058 27.29 15.2068C27.352 15.2068 27.403 15.1568 27.403 15.0938C27.4032 15.0788 27.4005 15.064 27.3949 15.0501C27.3894 15.0362 27.3811 15.0235 27.3705 15.0129C27.36 15.0023 27.3474 14.9939 27.3336 14.9882C27.3198 14.9825 27.3049 14.9796 27.29 14.9798ZM27.853 14.9798C27.8381 14.9798 27.8234 14.9827 27.8097 14.9885C27.7959 14.9942 27.7835 15.0027 27.7731 15.0133C27.7626 15.0239 27.7544 15.0365 27.7489 15.0503C27.7434 15.0641 27.7407 15.0789 27.741 15.0938C27.741 15.1548 27.791 15.2068 27.853 15.2068C27.913 15.2068 27.963 15.1548 27.963 15.0938C27.965 15.0858 27.965 15.0818 27.963 15.0738C27.9591 15.0475 27.9458 15.0234 27.9256 15.0061C27.9054 14.9889 27.8796 14.9795 27.853 14.9798ZM28.415 14.9798C28.4 14.9796 28.3852 14.9825 28.3713 14.9882C28.3575 14.9939 28.3449 15.0023 28.3344 15.0129C28.3239 15.0235 28.3156 15.0362 28.31 15.0501C28.3044 15.064 28.3017 15.0788 28.302 15.0938C28.302 15.1558 28.353 15.2078 28.415 15.2068C28.476 15.2068 28.525 15.1548 28.526 15.0938V15.0858C28.5245 15.0575 28.5123 15.0308 28.4919 15.0111C28.4714 14.9914 28.4443 14.9802 28.416 14.9798H28.415ZM28.978 14.9798C28.9629 14.9795 28.948 14.9823 28.934 14.9879C28.9201 14.9935 28.9074 15.0019 28.8968 15.0126C28.8861 15.0232 28.8777 15.0359 28.8721 15.0498C28.8665 15.0638 28.8637 15.0787 28.864 15.0938C28.864 15.1558 28.916 15.2078 28.978 15.2068C29.038 15.2068 29.088 15.1548 29.088 15.0938V15.0858C29.0865 15.0575 29.0743 15.0308 29.0539 15.0111C29.0334 14.9914 29.0063 14.9802 28.978 14.9798ZM29.54 14.9798C29.525 14.9796 29.5102 14.9825 29.4963 14.9882C29.4825 14.9939 29.4699 15.0023 29.4594 15.0129C29.4489 15.0235 29.4406 15.0362 29.435 15.0501C29.4294 15.064 29.4267 15.0788 29.427 15.0938C29.427 15.1558 29.478 15.2078 29.54 15.2068C29.601 15.2068 29.65 15.1548 29.651 15.0938V15.0858C29.6495 15.0575 29.6373 15.0308 29.6169 15.0111C29.5964 14.9914 29.5693 14.9802 29.541 14.9798H29.54ZM30.1 14.9798C30.0853 14.98 30.0708 14.9832 30.0573 14.9891C30.0438 14.9949 30.0316 15.0034 30.0214 15.014C30.0111 15.0246 30.0031 15.0371 29.9977 15.0508C29.9923 15.0644 29.9897 15.0791 29.99 15.0938C29.99 15.1548 30.039 15.2068 30.1 15.2068C30.13 15.2068 30.1589 15.1949 30.1802 15.1737C30.2016 15.1526 30.2137 15.1238 30.214 15.0938V15.0858C30.2124 15.0569 30.1998 15.0298 30.1788 15.0101C30.1577 14.9903 30.1298 14.9795 30.101 14.9798H30.1ZM30.663 14.9798C30.6482 14.9799 30.6336 14.983 30.62 14.9888C30.6064 14.9946 30.594 15.003 30.5837 15.0136C30.5734 15.0242 30.5653 15.0368 30.5598 15.0505C30.5544 15.0643 30.5517 15.079 30.552 15.0938C30.552 15.1548 30.602 15.2068 30.663 15.2068C30.6929 15.2065 30.7215 15.1945 30.7426 15.1734C30.7637 15.1523 30.7757 15.1237 30.776 15.0938V15.0858C30.7744 15.0569 30.7618 15.0298 30.7408 15.0101C30.7197 14.9903 30.6918 14.9795 30.663 14.9798ZM31.226 14.9798C31.2111 14.9798 31.1964 14.9827 31.1826 14.9885C31.1689 14.9942 31.1565 15.0027 31.1461 15.0133C31.1356 15.0239 31.1274 15.0365 31.1219 15.0503C31.1164 15.0641 31.1137 15.0789 31.114 15.0938C31.114 15.1548 31.164 15.2068 31.226 15.2068C31.2559 15.2065 31.2845 15.1945 31.3056 15.1734C31.3267 15.1523 31.3387 15.1237 31.339 15.0938V15.0858C31.3374 15.0569 31.3248 15.0298 31.3038 15.0101C31.2827 14.9903 31.2548 14.9795 31.226 14.9798ZM31.788 14.9798C31.7732 14.9799 31.7586 14.983 31.745 14.9888C31.7314 14.9946 31.719 15.003 31.7087 15.0136C31.6984 15.0242 31.6903 15.0368 31.6848 15.0505C31.6794 15.0643 31.6767 15.079 31.677 15.0938C31.677 15.1548 31.727 15.2068 31.788 15.2068C31.849 15.2068 31.898 15.1548 31.899 15.0938V15.0738C31.8951 15.0475 31.8818 15.0234 31.8616 15.0061C31.8414 14.9889 31.8156 14.9795 31.789 14.9798H31.788ZM32.351 14.9798C32.3359 14.9795 32.321 14.9823 32.307 14.9879C32.2931 14.9935 32.2804 15.0019 32.2698 15.0126C32.2591 15.0232 32.2507 15.0359 32.2451 15.0498C32.2395 15.0638 32.2367 15.0787 32.237 15.0938C32.237 15.1558 32.289 15.2078 32.351 15.2068C32.411 15.2068 32.461 15.1548 32.461 15.0938C32.463 15.0858 32.463 15.0818 32.461 15.0738C32.4571 15.0475 32.4438 15.0234 32.4236 15.0061C32.4034 14.9889 32.3776 14.9795 32.351 14.9798ZM32.913 14.9798C32.898 14.9796 32.8832 14.9825 32.8693 14.9882C32.8555 14.9939 32.8429 15.0023 32.8324 15.0129C32.8219 15.0235 32.8136 15.0362 32.808 15.0501C32.8024 15.064 32.7997 15.0788 32.8 15.0938C32.8 15.1558 32.851 15.2078 32.913 15.2068C32.974 15.2068 33.023 15.1548 33.024 15.0938V15.0858C33.0225 15.0575 33.0103 15.0308 32.9899 15.0111C32.9694 14.9914 32.9423 14.9802 32.914 14.9798H32.913ZM33.476 14.9798C33.4609 14.9795 33.446 14.9823 33.432 14.9879C33.4181 14.9935 33.4054 15.0019 33.3948 15.0126C33.3841 15.0232 33.3757 15.0359 33.3701 15.0498C33.3645 15.0638 33.3617 15.0787 33.362 15.0938C33.362 15.1558 33.414 15.2078 33.476 15.2068C33.5053 15.2057 33.5332 15.1934 33.5537 15.1724C33.5742 15.1513 33.5857 15.1232 33.586 15.0938V15.0858C33.5845 15.0575 33.5723 15.0308 33.5519 15.0111C33.5314 14.9914 33.5043 14.9802 33.476 14.9798ZM34.038 14.9798C34.023 14.9796 34.0082 14.9825 33.9943 14.9882C33.9805 14.9939 33.9679 15.0023 33.9574 15.0129C33.9469 15.0235 33.9386 15.0362 33.933 15.0501C33.9274 15.064 33.9247 15.0788 33.925 15.0938C33.925 15.1558 33.976 15.2078 34.038 15.2068C34.0675 15.206 34.0956 15.1938 34.1163 15.1727C34.137 15.1516 34.1487 15.1233 34.149 15.0938V15.0858C34.1475 15.0575 34.1353 15.0308 34.1149 15.0111C34.0944 14.9914 34.0673 14.9802 34.039 14.9798H34.038ZM34.598 14.9798C34.5833 14.98 34.5688 14.9832 34.5553 14.9891C34.5418 14.9949 34.5296 15.0034 34.5194 15.014C34.5091 15.0246 34.5011 15.0371 34.4957 15.0508C34.4903 15.0644 34.4877 15.0791 34.488 15.0938C34.488 15.1548 34.537 15.2068 34.598 15.2068C34.628 15.2068 34.6569 15.1949 34.6782 15.1737C34.6996 15.1526 34.7117 15.1238 34.712 15.0938V15.0858C34.7104 15.0569 34.6978 15.0298 34.6768 15.0101C34.6557 14.9903 34.6278 14.9795 34.599 14.9798H34.598ZM16.456 17.8648C16.3313 17.8668 16.2083 17.8935 16.094 17.9433C15.9797 17.9931 15.8764 18.0649 15.79 18.1548L13.981 20.0118C13.8941 20.101 13.8258 20.2066 13.7798 20.3223C13.7339 20.4381 13.7113 20.5618 13.7134 20.6863C13.7154 20.8109 13.742 20.9338 13.7917 21.048C13.8414 21.1622 13.9132 21.2654 14.003 21.3518C14.0917 21.4394 14.197 21.5085 14.3126 21.555C14.4283 21.6016 14.5521 21.6247 14.6767 21.6231C14.8014 21.6214 14.9245 21.595 15.0389 21.5453C15.1533 21.4956 15.2566 21.4237 15.343 21.3338L17.151 19.4738C17.2379 19.3846 17.3063 19.2791 17.3524 19.1634C17.3984 19.0476 17.421 18.9239 17.4191 18.7994C17.4171 18.6749 17.3906 18.552 17.341 18.4377C17.2914 18.3235 17.2197 18.2202 17.13 18.1338C17.0409 18.0467 16.9355 17.9782 16.8198 17.932C16.7042 17.8858 16.5805 17.863 16.456 17.8648ZM20.019 17.8648C19.8943 17.8668 19.7713 17.8935 19.657 17.9433C19.5427 17.9931 19.4394 18.0649 19.353 18.1548L17.544 20.0118C17.4571 20.101 17.3886 20.2065 17.3426 20.3222C17.2966 20.4379 17.2739 20.5616 17.2759 20.6861C17.2778 20.8107 17.3044 20.9336 17.354 21.0478C17.4036 21.162 17.4753 21.2653 17.565 21.3518C17.6537 21.4394 17.759 21.5085 17.8746 21.555C17.9903 21.6016 18.1141 21.6247 18.2387 21.6231C18.3634 21.6214 18.4865 21.595 18.6009 21.5453C18.7153 21.4956 18.8186 21.4237 18.905 21.3338L20.714 19.4768C20.8008 19.3875 20.8692 19.282 20.9151 19.1662C20.9611 19.0504 20.9836 18.9267 20.9816 18.8022C20.9796 18.6777 20.9529 18.5548 20.9032 18.4406C20.8535 18.3264 20.7817 18.2231 20.692 18.1368C20.6031 18.0497 20.4979 17.981 20.3824 17.9347C20.2669 17.8883 20.1434 17.8653 20.019 17.8668V17.8648ZM23.396 17.8648C23.2713 17.8668 23.1483 17.8935 23.034 17.9433C22.9197 17.9931 22.8164 18.0649 22.73 18.1548L20.92 20.0118C20.8331 20.101 20.7648 20.2066 20.7188 20.3223C20.6729 20.4381 20.6503 20.5618 20.6524 20.6863C20.6544 20.8109 20.681 20.9338 20.7307 21.048C20.7804 21.1622 20.8522 21.2654 20.942 21.3518C21.0307 21.4394 21.136 21.5085 21.2516 21.555C21.3673 21.6016 21.4911 21.6247 21.6157 21.6231C21.7404 21.6214 21.8635 21.595 21.9779 21.5453C22.0923 21.4956 22.1956 21.4237 22.282 21.3338L24.091 19.4738C24.1778 19.3845 24.2462 19.279 24.2921 19.1632C24.3381 19.0474 24.3606 18.9237 24.3586 18.7992C24.3566 18.6747 24.3299 18.5518 24.2802 18.4376C24.2305 18.3234 24.1587 18.2201 24.069 18.1338C23.9799 18.0467 23.8745 17.9782 23.7588 17.932C23.6432 17.8858 23.5195 17.863 23.395 17.8648H23.396ZM26.958 17.8648C26.8333 17.8668 26.7103 17.8935 26.596 17.9433C26.4817 17.9931 26.3784 18.0649 26.292 18.1548L24.483 20.0118C24.3961 20.101 24.3278 20.2066 24.2818 20.3223C24.2359 20.4381 24.2133 20.5618 24.2154 20.6863C24.2174 20.8109 24.244 20.9338 24.2937 21.048C24.3434 21.1622 24.4152 21.2654 24.505 21.3518C24.5937 21.4394 24.699 21.5085 24.8146 21.555C24.9303 21.6016 25.0541 21.6247 25.1787 21.6231C25.3034 21.6214 25.4265 21.595 25.5409 21.5453C25.6553 21.4956 25.7586 21.4237 25.845 21.3338L27.653 19.4738C27.7399 19.3846 27.8083 19.2791 27.8544 19.1634C27.9004 19.0476 27.923 18.9239 27.9211 18.7994C27.9191 18.6749 27.8926 18.552 27.843 18.4377C27.7934 18.3235 27.7217 18.2202 27.632 18.1338C27.5429 18.0467 27.4375 17.9782 27.3218 17.932C27.2062 17.8858 27.0825 17.863 26.958 17.8648ZM30.159 17.8648C30.0343 17.8668 29.9113 17.8935 29.797 17.9433C29.6827 17.9931 29.5794 18.0649 29.493 18.1548L27.685 20.0118C27.5981 20.101 27.5296 20.2065 27.4836 20.3222C27.4376 20.4379 27.4149 20.5616 27.4169 20.6861C27.4188 20.8107 27.4454 20.9336 27.495 21.0478C27.5446 21.162 27.6163 21.2653 27.706 21.3518C27.7947 21.4394 27.9 21.5085 28.0156 21.555C28.1313 21.6016 28.2551 21.6247 28.3797 21.6231C28.5044 21.6214 28.6275 21.595 28.7419 21.5453C28.8563 21.4956 28.9596 21.4237 29.046 21.3338L30.854 19.4738C30.9409 19.3846 31.0093 19.2791 31.0554 19.1634C31.1014 19.0476 31.1241 18.9239 31.1221 18.7994C31.1201 18.6749 31.0936 18.552 31.044 18.4377C30.9944 18.3235 30.9227 18.2202 30.833 18.1338C30.7439 18.0467 30.6385 17.9782 30.5228 17.932C30.4072 17.8858 30.2835 17.863 30.159 17.8648ZM33.722 17.8648C33.5973 17.8668 33.4743 17.8935 33.36 17.9433C33.2457 17.9931 33.1424 18.0649 33.056 18.1548L31.247 20.0118C31.1601 20.101 31.0918 20.2066 31.0458 20.3223C30.9999 20.4381 30.9773 20.5618 30.9794 20.6863C30.9814 20.8109 31.008 20.9338 31.0577 21.048C31.1074 21.1622 31.1792 21.2654 31.269 21.3518C31.3577 21.4394 31.463 21.5085 31.5786 21.555C31.6943 21.6016 31.8181 21.6247 31.9427 21.6231C32.0674 21.6214 32.1905 21.595 32.3049 21.5453C32.4193 21.4956 32.5226 21.4237 32.609 21.3338L34.417 19.4738C34.5039 19.3846 34.5723 19.2791 34.6184 19.1634C34.6644 19.0476 34.687 18.9239 34.6851 18.7994C34.6831 18.6749 34.6566 18.552 34.607 18.4377C34.5574 18.3235 34.4857 18.2202 34.396 18.1338C34.3069 18.0467 34.2015 17.9782 34.0858 17.932C33.9702 17.8858 33.8465 17.863 33.722 17.8648ZM16.521 18.3478C16.6124 18.3557 16.6988 18.3933 16.767 18.4548C17.173 18.8168 16.692 19.2408 16.517 19.4238L15.651 20.3278C15.044 20.9588 14.781 21.3858 14.356 20.9778C13.996 20.6048 14.313 20.3818 15.001 19.6838L15.866 18.7808C16.072 18.5808 16.284 18.3358 16.521 18.3478ZM20.083 18.3478C20.1744 18.3557 20.2608 18.3933 20.329 18.4548C20.736 18.8168 20.254 19.2408 20.079 19.4238L19.214 20.3278C18.607 20.9588 18.343 21.3858 17.919 20.9778C17.559 20.6048 17.875 20.3818 18.564 19.6838L19.429 18.7808C19.634 18.5808 19.847 18.3358 20.083 18.3478ZM23.46 18.3478C23.5514 18.3557 23.6378 18.3933 23.706 18.4548C24.113 18.8168 23.631 19.2408 23.456 19.4238L22.591 20.3278C21.984 20.9588 21.72 21.3858 21.296 20.9778C20.936 20.6048 21.252 20.3818 21.94 19.6838L22.806 18.7808C23.011 18.5808 23.224 18.3358 23.46 18.3478ZM27.023 18.3478C27.1144 18.3557 27.2008 18.3933 27.269 18.4548C27.675 18.8168 27.194 19.2408 27.019 19.4238L26.153 20.3278C25.546 20.9588 25.283 21.3858 24.858 20.9778C24.498 20.6048 24.815 20.3818 25.503 19.6838L26.368 18.7808C26.574 18.5808 26.786 18.3358 27.022 18.3478H27.023ZM30.223 18.3478C30.3148 18.3555 30.4015 18.3931 30.47 18.4548C30.876 18.8168 30.395 19.2408 30.22 19.4238L29.354 20.3278C28.747 20.9588 28.484 21.3858 28.06 20.9778C27.7 20.6048 28.016 20.3818 28.704 19.6838L29.569 18.7808C29.775 18.5808 29.987 18.3358 30.224 18.3478H30.223ZM33.786 18.3478C33.8774 18.3557 33.9638 18.3933 34.032 18.4548C34.439 18.8168 33.957 19.2408 33.782 19.4238L32.917 20.3278C32.31 20.9588 32.046 21.3858 31.622 20.9778C31.262 20.6048 31.578 20.3818 32.267 19.6838L33.132 18.7808C33.337 18.5808 33.55 18.3358 33.786 18.3478ZM13.796 23.9808C13.7813 23.9809 13.7667 23.9839 13.7532 23.9897C13.7397 23.9954 13.7274 24.0038 13.7171 24.0143C13.7068 24.0248 13.6986 24.0372 13.6931 24.0508C13.6876 24.0645 13.6848 24.0791 13.685 24.0938C13.685 24.1548 13.735 24.2058 13.795 24.2068C13.858 24.2068 13.908 24.1568 13.909 24.0938C13.9092 24.0788 13.9065 24.064 13.9009 24.0501C13.8954 24.0362 13.8871 24.0235 13.8765 24.0129C13.866 24.0023 13.8534 23.9939 13.8396 23.9882C13.8258 23.9825 13.8109 23.9796 13.796 23.9798V23.9808ZM14.358 23.9808C14.3281 23.981 14.2995 23.993 14.2784 24.0142C14.2572 24.0353 14.2452 24.0639 14.245 24.0938C14.245 24.1548 14.297 24.2068 14.358 24.2068C14.42 24.2068 14.469 24.1548 14.47 24.0938V24.0738C14.4661 24.0471 14.4525 24.0228 14.4319 24.0055C14.4112 23.9881 14.3849 23.979 14.358 23.9798V23.9808ZM14.921 23.9808C14.9061 23.9806 14.8913 23.9835 14.8776 23.9891C14.8638 23.9947 14.8513 24.0031 14.8408 24.0136C14.8303 24.0241 14.8219 24.0366 14.8163 24.0504C14.8107 24.0641 14.8078 24.0789 14.808 24.0938C14.808 24.1558 14.858 24.2078 14.921 24.2068C14.982 24.2068 15.031 24.1548 15.032 24.0938V24.0738C15.0281 24.0473 15.0147 24.0231 14.9942 24.0058C14.9738 23.9885 14.9477 23.9792 14.921 23.9798V23.9808ZM15.483 23.9808C15.4681 23.9806 15.4533 23.9835 15.4396 23.9891C15.4258 23.9947 15.4133 24.0031 15.4028 24.0136C15.3923 24.0241 15.3839 24.0366 15.3783 24.0504C15.3727 24.0641 15.3698 24.0789 15.37 24.0938C15.37 24.1558 15.421 24.2078 15.483 24.2068C15.545 24.2068 15.594 24.1548 15.595 24.0938V24.0858C15.5932 24.0573 15.5806 24.0306 15.5598 24.0111C15.539 23.9916 15.5115 23.9807 15.483 23.9808ZM16.046 23.9808C16.0311 23.9806 16.0163 23.9835 16.0026 23.9891C15.9888 23.9947 15.9763 24.0031 15.9658 24.0136C15.9553 24.0241 15.9469 24.0366 15.9413 24.0504C15.9357 24.0641 15.9328 24.0789 15.933 24.0938C15.933 24.1558 15.983 24.2078 16.046 24.2068C16.107 24.2068 16.156 24.1548 16.157 24.0938V24.0858C16.1552 24.0575 16.1428 24.0309 16.1222 24.0114C16.1016 23.9919 16.0743 23.981 16.046 23.9808ZM16.608 23.9808C16.5931 23.9806 16.5783 23.9835 16.5646 23.9891C16.5508 23.9947 16.5383 24.0031 16.5278 24.0136C16.5173 24.0241 16.5089 24.0366 16.5033 24.0504C16.4977 24.0641 16.4948 24.0789 16.495 24.0938C16.495 24.1558 16.546 24.2078 16.608 24.2068C16.67 24.2068 16.719 24.1548 16.72 24.0938V24.0858C16.7182 24.0573 16.7056 24.0306 16.6848 24.0111C16.664 23.9916 16.6365 23.9807 16.608 23.9808ZM17.169 23.9808C17.1543 23.9809 17.1397 23.9839 17.1262 23.9897C17.1127 23.9954 17.1004 24.0038 17.0901 24.0143C17.0798 24.0248 17.0716 24.0372 17.0661 24.0508C17.0606 24.0645 17.0578 24.0791 17.058 24.0938C17.058 24.1548 17.108 24.2068 17.169 24.2068C17.1989 24.2065 17.2275 24.1945 17.2486 24.1734C17.2697 24.1523 17.2817 24.1237 17.282 24.0938V24.0858C17.2802 24.0571 17.2675 24.0303 17.2464 24.0107C17.2254 23.9912 17.1977 23.9805 17.169 23.9808ZM17.732 23.9808C17.7172 23.9808 17.7025 23.9837 17.6889 23.9894C17.6752 23.9951 17.6628 24.0034 17.6524 24.0139C17.642 24.0244 17.6338 24.0369 17.6282 24.0506C17.6226 24.0643 17.6198 24.079 17.62 24.0938C17.62 24.1548 17.67 24.2068 17.731 24.2068C17.761 24.2068 17.7899 24.1949 17.8112 24.1737C17.8326 24.1526 17.8447 24.1238 17.845 24.0938V24.0858C17.8432 24.0569 17.8303 24.0299 17.8091 24.0104C17.7878 23.9908 17.7599 23.9802 17.731 23.9808H17.732ZM18.294 23.9808C18.2793 23.9809 18.2647 23.9839 18.2512 23.9897C18.2377 23.9954 18.2254 24.0038 18.2151 24.0143C18.2048 24.0248 18.1966 24.0372 18.1911 24.0508C18.1856 24.0645 18.1828 24.0791 18.183 24.0938C18.183 24.1548 18.233 24.2068 18.294 24.2068C18.3239 24.2065 18.3525 24.1945 18.3736 24.1734C18.3947 24.1523 18.4067 24.1237 18.407 24.0938V24.0858C18.4052 24.0571 18.3925 24.0303 18.3714 24.0107C18.3504 23.9912 18.3227 23.9805 18.294 23.9808ZM18.857 23.9808C18.8422 23.9808 18.8275 23.9837 18.8139 23.9894C18.8002 23.9951 18.7878 24.0034 18.7774 24.0139C18.767 24.0244 18.7588 24.0369 18.7532 24.0506C18.7476 24.0643 18.7448 24.079 18.745 24.0938C18.745 24.1548 18.795 24.2068 18.856 24.2068C18.918 24.2068 18.967 24.1548 18.968 24.0938V24.0738C18.9641 24.0473 18.9507 24.0231 18.9302 24.0058C18.9098 23.9885 18.8838 23.9792 18.857 23.9798V23.9808ZM19.419 23.9808C19.4041 23.9806 19.3893 23.9835 19.3756 23.9891C19.3618 23.9947 19.3493 24.0031 19.3388 24.0136C19.3283 24.0241 19.3199 24.0366 19.3143 24.0504C19.3087 24.0641 19.3058 24.0789 19.306 24.0938C19.306 24.1558 19.357 24.2078 19.419 24.2068C19.48 24.2068 19.529 24.1548 19.53 24.0938V24.0858C19.5282 24.0575 19.5158 24.0309 19.4952 24.0114C19.4746 23.9919 19.4473 23.981 19.419 23.9808ZM19.982 23.9808C19.967 23.9805 19.9522 23.9832 19.9383 23.9888C19.9244 23.9944 19.9118 24.0027 19.9011 24.0132C19.8905 24.0237 19.8821 24.0363 19.8764 24.0501C19.8707 24.064 19.8678 24.0788 19.868 24.0938C19.868 24.1558 19.92 24.2078 19.981 24.2068C20.043 24.2068 20.092 24.1548 20.093 24.0938V24.0858C20.0912 24.0575 20.0788 24.0309 20.0582 24.0114C20.0376 23.9919 20.0103 23.981 19.982 23.9808ZM20.544 23.9808C20.5291 23.9806 20.5143 23.9835 20.5006 23.9891C20.4868 23.9947 20.4743 24.0031 20.4638 24.0136C20.4533 24.0241 20.4449 24.0366 20.4393 24.0504C20.4337 24.0641 20.4308 24.0789 20.431 24.0938C20.431 24.1558 20.482 24.2078 20.544 24.2068C20.605 24.2068 20.654 24.1548 20.655 24.0938V24.0858C20.6532 24.0575 20.6408 24.0309 20.6202 24.0114C20.5996 23.9919 20.5723 23.981 20.544 23.9808ZM21.107 23.9808C21.092 23.9805 21.0772 23.9832 21.0633 23.9888C21.0494 23.9944 21.0368 24.0027 21.0261 24.0132C21.0155 24.0237 21.0071 24.0363 21.0014 24.0501C20.9957 24.064 20.9928 24.0788 20.993 24.0938C20.993 24.1558 21.045 24.2078 21.106 24.2068C21.168 24.2068 21.217 24.1548 21.218 24.0938V24.0858C21.2162 24.0575 21.2038 24.0309 21.1832 24.0114C21.1626 23.9919 21.1353 23.981 21.107 23.9808ZM21.667 23.9808C21.6523 23.9809 21.6377 23.9839 21.6242 23.9897C21.6107 23.9954 21.5984 24.0038 21.5881 24.0143C21.5778 24.0248 21.5696 24.0372 21.5641 24.0508C21.5586 24.0645 21.5558 24.0791 21.556 24.0938C21.556 24.1548 21.606 24.2068 21.667 24.2068C21.6969 24.2065 21.7255 24.1945 21.7466 24.1734C21.7677 24.1523 21.7797 24.1237 21.78 24.0938V24.0858C21.7782 24.0571 21.7655 24.0303 21.7444 24.0107C21.7234 23.9912 21.6957 23.9805 21.667 23.9808ZM22.23 23.9808C22.2152 23.9808 22.2005 23.9837 22.1869 23.9894C22.1732 23.9951 22.1608 24.0034 22.1504 24.0139C22.14 24.0244 22.1318 24.0369 22.1262 24.0506C22.1206 24.0643 22.1178 24.079 22.118 24.0938C22.118 24.1548 22.168 24.2068 22.229 24.2068C22.259 24.2068 22.2879 24.1949 22.3092 24.1737C22.3306 24.1526 22.3427 24.1238 22.343 24.0938V24.0858C22.3412 24.0571 22.3285 24.0303 22.3074 24.0107C22.2864 23.9912 22.2587 23.9805 22.23 23.9808ZM22.792 23.9808C22.7773 23.9809 22.7627 23.9839 22.7492 23.9897C22.7357 23.9954 22.7234 24.0038 22.7131 24.0143C22.7028 24.0248 22.6946 24.0372 22.6891 24.0508C22.6836 24.0645 22.6808 24.0791 22.681 24.0938C22.681 24.1548 22.731 24.2058 22.792 24.2068C22.854 24.2068 22.905 24.1568 22.905 24.0938C22.9052 24.0788 22.9025 24.064 22.8969 24.0501C22.8914 24.0362 22.8831 24.0235 22.8725 24.0129C22.862 24.0023 22.8495 23.9939 22.8356 23.9882C22.8218 23.9825 22.8069 23.9796 22.792 23.9798V23.9808ZM23.355 23.9808C23.3402 23.9808 23.3255 23.9837 23.3119 23.9894C23.2982 23.9951 23.2858 24.0034 23.2754 24.0139C23.265 24.0244 23.2568 24.0369 23.2512 24.0506C23.2456 24.0643 23.2428 24.079 23.243 24.0938C23.243 24.1548 23.293 24.2068 23.354 24.2068C23.3837 24.2063 23.412 24.1942 23.4329 24.173C23.4539 24.1519 23.4657 24.1235 23.466 24.0938V24.0738C23.4619 24.0474 23.4484 24.0233 23.428 24.0061C23.4076 23.9888 23.3817 23.9795 23.355 23.9798V23.9808ZM23.917 23.9808C23.9021 23.9806 23.8873 23.9835 23.8736 23.9891C23.8598 23.9947 23.8473 24.0031 23.8368 24.0136C23.8263 24.0241 23.8179 24.0366 23.8123 24.0504C23.8067 24.0641 23.8038 24.0789 23.804 24.0938C23.804 24.1558 23.855 24.2078 23.917 24.2068C23.978 24.2068 24.027 24.1548 24.028 24.0938V24.0738C24.0241 24.0473 24.0107 24.0231 23.9902 24.0058C23.9698 23.9885 23.9438 23.9792 23.917 23.9798V23.9808ZM24.48 23.9808C24.465 23.9805 24.4502 23.9832 24.4363 23.9888C24.4224 23.9944 24.4098 24.0027 24.3991 24.0132C24.3885 24.0237 24.3801 24.0363 24.3744 24.0501C24.3687 24.064 24.3658 24.0788 24.366 24.0938C24.366 24.1558 24.418 24.2078 24.48 24.2068C24.54 24.2068 24.59 24.1548 24.59 24.0938V24.0858C24.5882 24.0576 24.5759 24.0312 24.5555 24.0117C24.5351 23.9923 24.5082 23.9812 24.48 23.9808ZM25.042 23.9808C25.0271 23.9806 25.0123 23.9835 24.9986 23.9891C24.9848 23.9947 24.9723 24.0031 24.9618 24.0136C24.9513 24.0241 24.9429 24.0366 24.9373 24.0504C24.9317 24.0641 24.9288 24.0789 24.929 24.0938C24.929 24.1558 24.98 24.2078 25.042 24.2068C25.103 24.2068 25.152 24.1548 25.153 24.0938V24.0858C25.1512 24.0575 25.1388 24.0309 25.1182 24.0114C25.0976 23.9919 25.0703 23.981 25.042 23.9808ZM25.602 23.9808C25.5724 23.9813 25.5443 23.9935 25.5237 24.0146C25.5031 24.0358 25.4917 24.0642 25.492 24.0938C25.492 24.1548 25.542 24.2068 25.602 24.2068C25.632 24.2068 25.6609 24.1949 25.6822 24.1737C25.7036 24.1526 25.7157 24.1238 25.716 24.0938V24.0858C25.7142 24.0571 25.7015 24.0303 25.6804 24.0107C25.6594 23.9912 25.6317 23.9805 25.603 23.9808H25.602ZM26.165 23.9808C26.1503 23.9809 26.1357 23.9839 26.1222 23.9897C26.1087 23.9954 26.0964 24.0038 26.0861 24.0143C26.0758 24.0248 26.0676 24.0372 26.0621 24.0508C26.0566 24.0645 26.0538 24.0791 26.054 24.0938C26.054 24.1548 26.104 24.2068 26.165 24.2068C26.1949 24.2065 26.2235 24.1945 26.2446 24.1734C26.2657 24.1523 26.2777 24.1237 26.278 24.0938V24.0858C26.2762 24.0571 26.2635 24.0303 26.2424 24.0107C26.2214 23.9912 26.1937 23.9805 26.165 23.9808ZM26.728 23.9808C26.7132 23.9808 26.6985 23.9837 26.6849 23.9894C26.6712 23.9951 26.6588 24.0034 26.6484 24.0139C26.638 24.0244 26.6298 24.0369 26.6242 24.0506C26.6186 24.0643 26.6158 24.079 26.616 24.0938C26.616 24.1548 26.666 24.2068 26.728 24.2068C26.7579 24.2065 26.7865 24.1945 26.8076 24.1734C26.8287 24.1523 26.8407 24.1237 26.841 24.0938V24.0858C26.8392 24.0571 26.8265 24.0303 26.8054 24.0107C26.7844 23.9912 26.7567 23.9805 26.728 23.9808ZM27.29 23.9808C27.2753 23.9809 27.2607 23.9839 27.2472 23.9897C27.2337 23.9954 27.2214 24.0038 27.2111 24.0143C27.2008 24.0248 27.1926 24.0372 27.1871 24.0508C27.1816 24.0645 27.1788 24.0791 27.179 24.0938C27.179 24.1548 27.229 24.2058 27.29 24.2068C27.352 24.2068 27.403 24.1568 27.403 24.0938C27.4032 24.0788 27.4005 24.064 27.3949 24.0501C27.3894 24.0362 27.3811 24.0235 27.3705 24.0129C27.36 24.0023 27.3474 23.9939 27.3336 23.9882C27.3198 23.9825 27.3049 23.9796 27.29 23.9798V23.9808ZM27.853 23.9808C27.8382 23.9808 27.8235 23.9837 27.8099 23.9894C27.7962 23.9951 27.7838 24.0034 27.7734 24.0139C27.763 24.0244 27.7548 24.0369 27.7492 24.0506C27.7436 24.0643 27.7408 24.079 27.741 24.0938C27.741 24.1548 27.791 24.2068 27.853 24.2068C27.913 24.2068 27.963 24.1548 27.963 24.0938C27.965 24.0858 27.965 24.0818 27.963 24.0738C27.9591 24.0475 27.9458 24.0234 27.9256 24.0061C27.9054 23.9889 27.8796 23.9795 27.853 23.9798V23.9808ZM28.415 23.9808C28.4001 23.9806 28.3853 23.9835 28.3716 23.9891C28.3578 23.9947 28.3453 24.0031 28.3348 24.0136C28.3243 24.0241 28.3159 24.0366 28.3103 24.0504C28.3047 24.0641 28.3018 24.0789 28.302 24.0938C28.302 24.1558 28.353 24.2078 28.415 24.2068C28.476 24.2068 28.525 24.1548 28.526 24.0938V24.0858C28.5242 24.0576 28.5119 24.0312 28.4915 24.0117C28.4711 23.9923 28.4442 23.9812 28.416 23.9808H28.415ZM28.978 23.9808C28.963 23.9805 28.9482 23.9832 28.9343 23.9888C28.9204 23.9944 28.9078 24.0027 28.8971 24.0132C28.8865 24.0237 28.8781 24.0363 28.8724 24.0501C28.8667 24.064 28.8638 24.0788 28.864 24.0938C28.864 24.1558 28.916 24.2078 28.978 24.2068C29.038 24.2068 29.088 24.1548 29.088 24.0938V24.0858C29.0862 24.0576 29.0739 24.0312 29.0535 24.0117C29.0331 23.9923 29.0062 23.9812 28.978 23.9808ZM29.54 23.9808C29.5251 23.9806 29.5103 23.9835 29.4966 23.9891C29.4828 23.9947 29.4703 24.0031 29.4598 24.0136C29.4493 24.0241 29.4409 24.0366 29.4353 24.0504C29.4297 24.0641 29.4268 24.0789 29.427 24.0938C29.427 24.1558 29.478 24.2078 29.54 24.2068C29.601 24.2068 29.65 24.1548 29.651 24.0938V24.0858C29.6492 24.0576 29.6369 24.0312 29.6165 24.0117C29.5961 23.9923 29.5692 23.9812 29.541 23.9808H29.54ZM30.1 23.9808C30.0704 23.9813 30.0423 23.9935 30.0217 24.0146C30.0011 24.0358 29.9897 24.0642 29.99 24.0938C29.99 24.1548 30.039 24.2068 30.1 24.2068C30.13 24.2068 30.1589 24.1949 30.1802 24.1737C30.2016 24.1526 30.2137 24.1238 30.214 24.0938V24.0858C30.2122 24.0571 30.1995 24.0303 30.1784 24.0107C30.1574 23.9912 30.1297 23.9805 30.101 23.9808H30.1ZM30.663 23.9808C30.6483 23.9809 30.6337 23.9839 30.6202 23.9897C30.6067 23.9954 30.5944 24.0038 30.5841 24.0143C30.5738 24.0248 30.5656 24.0372 30.5601 24.0508C30.5546 24.0645 30.5518 24.0791 30.552 24.0938C30.552 24.1548 30.602 24.2068 30.663 24.2068C30.6929 24.2065 30.7215 24.1945 30.7426 24.1734C30.7637 24.1523 30.7757 24.1237 30.776 24.0938V24.0858C30.7742 24.0571 30.7615 24.0303 30.7404 24.0107C30.7194 23.9912 30.6917 23.9805 30.663 23.9808ZM31.226 23.9808C31.2112 23.9808 31.1965 23.9837 31.1829 23.9894C31.1692 23.9951 31.1568 24.0034 31.1464 24.0139C31.136 24.0244 31.1278 24.0369 31.1222 24.0506C31.1166 24.0643 31.1138 24.079 31.114 24.0938C31.114 24.1548 31.164 24.2068 31.226 24.2068C31.2559 24.2065 31.2845 24.1945 31.3056 24.1734C31.3267 24.1523 31.3387 24.1237 31.339 24.0938V24.0858C31.3372 24.0571 31.3245 24.0303 31.3034 24.0107C31.2824 23.9912 31.2547 23.9805 31.226 23.9808ZM31.788 23.9808C31.7733 23.9809 31.7587 23.9839 31.7452 23.9897C31.7317 23.9954 31.7194 24.0038 31.7091 24.0143C31.6988 24.0248 31.6906 24.0372 31.6851 24.0508C31.6796 24.0645 31.6768 24.0791 31.677 24.0938C31.677 24.1548 31.727 24.2068 31.788 24.2068C31.849 24.2068 31.898 24.1548 31.899 24.0938V24.0738C31.8951 24.0475 31.8818 24.0234 31.8616 24.0061C31.8414 23.9889 31.8156 23.9795 31.789 23.9798L31.788 23.9808ZM32.351 23.9808C32.336 23.9805 32.3212 23.9832 32.3073 23.9888C32.2934 23.9944 32.2808 24.0027 32.2701 24.0132C32.2595 24.0237 32.2511 24.0363 32.2454 24.0501C32.2397 24.064 32.2368 24.0788 32.237 24.0938C32.237 24.1558 32.289 24.2078 32.351 24.2068C32.411 24.2068 32.461 24.1548 32.461 24.0938C32.463 24.0858 32.463 24.0818 32.461 24.0738C32.4571 24.0475 32.4438 24.0234 32.4236 24.0061C32.4034 23.9889 32.3776 23.9795 32.351 23.9798V23.9808ZM32.913 23.9808C32.8981 23.9806 32.8833 23.9835 32.8696 23.9891C32.8558 23.9947 32.8433 24.0031 32.8328 24.0136C32.8223 24.0241 32.8139 24.0366 32.8083 24.0504C32.8027 24.0641 32.7998 24.0789 32.8 24.0938C32.8 24.1558 32.851 24.2078 32.913 24.2068C32.974 24.2068 33.023 24.1548 33.024 24.0938V24.0858C33.0222 24.0576 33.0099 24.0312 32.9895 24.0117C32.9691 23.9923 32.9422 23.9812 32.914 23.9808H32.913ZM33.476 23.9808C33.461 23.9805 33.4462 23.9832 33.4323 23.9888C33.4184 23.9944 33.4058 24.0027 33.3951 24.0132C33.3845 24.0237 33.3761 24.0363 33.3704 24.0501C33.3647 24.064 33.3618 24.0788 33.362 24.0938C33.362 24.1558 33.414 24.2078 33.476 24.2068C33.5053 24.2057 33.5332 24.1934 33.5537 24.1724C33.5742 24.1513 33.5857 24.1232 33.586 24.0938V24.0858C33.5842 24.0576 33.5719 24.0312 33.5515 24.0117C33.5311 23.9923 33.5042 23.9812 33.476 23.9808ZM34.038 23.9808C34.0231 23.9806 34.0083 23.9835 33.9946 23.9891C33.9808 23.9947 33.9683 24.0031 33.9578 24.0136C33.9473 24.0241 33.9389 24.0366 33.9333 24.0504C33.9277 24.0641 33.9248 24.0789 33.925 24.0938C33.925 24.1558 33.976 24.2078 34.038 24.2068C34.0675 24.206 34.0956 24.1938 34.1163 24.1727C34.137 24.1516 34.1487 24.1233 34.149 24.0938V24.0858C34.1472 24.0576 34.1349 24.0312 34.1145 24.0117C34.0941 23.9923 34.0672 23.9812 34.039 23.9808H34.038ZM34.598 23.9808C34.5684 23.9813 34.5403 23.9935 34.5197 24.0146C34.4991 24.0358 34.4877 24.0642 34.488 24.0938C34.488 24.1548 34.537 24.2068 34.598 24.2068C34.628 24.2068 34.6569 24.1949 34.6782 24.1737C34.6996 24.1526 34.7117 24.1238 34.712 24.0938V24.0858C34.7102 24.0571 34.6975 24.0303 34.6764 24.0107C34.6554 23.9912 34.6277 23.9805 34.599 23.9808H34.598ZM16.456 26.5328C16.3313 26.5348 16.2083 26.5615 16.094 26.6112C15.9797 26.661 15.8764 26.7329 15.79 26.8228L13.98 28.6798C13.8931 28.769 13.8248 28.8746 13.7788 28.9903C13.7329 29.1061 13.7103 29.2298 13.7124 29.3543C13.7144 29.4789 13.741 29.6018 13.7907 29.716C13.8404 29.8302 13.9122 29.9334 14.002 30.0198C14.0908 30.1071 14.1961 30.176 14.3118 30.2224C14.4274 30.2689 14.5511 30.2919 14.6757 30.2902C14.8003 30.2885 14.9234 30.2622 15.0377 30.2127C15.1521 30.1632 15.2555 30.0915 15.342 30.0018L17.15 28.1418C17.2369 28.0526 17.3053 27.9471 17.3514 27.8314C17.3974 27.7156 17.4201 27.5919 17.4181 27.4674C17.4161 27.3429 17.3896 27.22 17.34 27.1057C17.2904 26.9915 17.2187 26.8882 17.129 26.8018C17.0399 26.7147 16.9345 26.6462 16.8188 26.6C16.7032 26.5538 16.5795 26.531 16.455 26.5328H16.456ZM20.019 26.5328C19.8943 26.5348 19.7713 26.5615 19.657 26.6112C19.5427 26.661 19.4394 26.7329 19.353 26.8228L17.544 28.6798C17.4571 28.769 17.3886 28.8745 17.3426 28.9902C17.2966 29.1059 17.2739 29.2296 17.2759 29.3541C17.2778 29.4787 17.3044 29.6016 17.354 29.7158C17.4036 29.83 17.4753 29.9333 17.565 30.0198C17.6538 30.1071 17.7591 30.176 17.8748 30.2224C17.9904 30.2689 18.1141 30.2919 18.2387 30.2902C18.3633 30.2885 18.4864 30.2622 18.6007 30.2127C18.7151 30.1632 18.8185 30.0915 18.905 30.0018L20.714 28.1448C20.8008 28.0555 20.8692 27.95 20.9151 27.8342C20.9611 27.7184 20.9836 27.5947 20.9816 27.4702C20.9796 27.3457 20.9529 27.2228 20.9032 27.1086C20.8535 26.9944 20.7817 26.8911 20.692 26.8048C20.6031 26.7177 20.4979 26.649 20.3824 26.6027C20.2669 26.5563 20.1434 26.5333 20.019 26.5348V26.5328ZM23.396 26.5328C23.2713 26.5348 23.1483 26.5615 23.034 26.6112C22.9197 26.661 22.8164 26.7329 22.73 26.8228L20.92 28.6798C20.8331 28.769 20.7648 28.8746 20.7188 28.9903C20.6729 29.1061 20.6503 29.2298 20.6524 29.3543C20.6544 29.4789 20.681 29.6018 20.7307 29.716C20.7804 29.8302 20.8522 29.9334 20.942 30.0198C21.0308 30.1071 21.1361 30.176 21.2518 30.2224C21.3674 30.2689 21.4911 30.2919 21.6157 30.2902C21.7403 30.2885 21.8634 30.2622 21.9777 30.2127C22.0921 30.1632 22.1955 30.0915 22.282 30.0018L24.091 28.1418C24.1778 28.0525 24.2462 27.947 24.2921 27.8312C24.3381 27.7154 24.3606 27.5917 24.3586 27.4672C24.3566 27.3427 24.3299 27.2198 24.2802 27.1056C24.2305 26.9914 24.1587 26.8881 24.069 26.8018C23.9799 26.7148 23.8745 26.6462 23.7588 26.6001C23.6431 26.5539 23.5195 26.531 23.395 26.5328H23.396ZM26.958 26.5328C26.8333 26.5348 26.7103 26.5615 26.596 26.6112C26.4817 26.661 26.3784 26.7329 26.292 26.8228L24.483 28.6798C24.3961 28.769 24.3278 28.8746 24.2818 28.9903C24.2359 29.1061 24.2133 29.2298 24.2154 29.3543C24.2174 29.4789 24.244 29.6018 24.2937 29.716C24.3434 29.8302 24.4152 29.9334 24.505 30.0198C24.5938 30.1071 24.6991 30.176 24.8148 30.2224C24.9304 30.2689 25.0541 30.2919 25.1787 30.2902C25.3033 30.2885 25.4264 30.2622 25.5407 30.2127C25.6551 30.1632 25.7585 30.0915 25.845 30.0018L27.653 28.1418C27.7399 28.0526 27.8083 27.9471 27.8544 27.8314C27.9004 27.7156 27.923 27.5919 27.9211 27.4674C27.9191 27.3429 27.8926 27.22 27.843 27.1057C27.7934 26.9915 27.7217 26.8882 27.632 26.8018C27.5429 26.7148 27.4375 26.6462 27.3218 26.6001C27.2061 26.5539 27.0825 26.531 26.958 26.5328ZM30.159 26.5328C30.0343 26.5348 29.9113 26.5615 29.797 26.6112C29.6827 26.661 29.5794 26.7329 29.493 26.8228L27.685 28.6798C27.5981 28.769 27.5296 28.8745 27.4836 28.9902C27.4376 29.1059 27.4149 29.2296 27.4169 29.3541C27.4188 29.4787 27.4454 29.6016 27.495 29.7158C27.5446 29.83 27.6163 29.9333 27.706 30.0198C27.7948 30.1071 27.9001 30.176 28.0158 30.2224C28.1314 30.2689 28.2551 30.2919 28.3797 30.2902C28.5043 30.2885 28.6274 30.2622 28.7417 30.2127C28.8561 30.1632 28.9595 30.0915 29.046 30.0018L30.854 28.1418C30.9409 28.0526 31.0093 27.9471 31.0554 27.8314C31.1014 27.7156 31.1241 27.5919 31.1221 27.4674C31.1201 27.3429 31.0936 27.22 31.044 27.1057C30.9944 26.9915 30.9227 26.8882 30.833 26.8018C30.7439 26.7147 30.6385 26.6462 30.5228 26.6C30.4072 26.5538 30.2835 26.531 30.159 26.5328ZM33.722 26.5328C33.5973 26.5348 33.4743 26.5615 33.36 26.6112C33.2457 26.661 33.1424 26.7329 33.056 26.8228L31.247 28.6798C31.1601 28.769 31.0918 28.8746 31.0458 28.9903C30.9999 29.1061 30.9773 29.2298 30.9794 29.3543C30.9814 29.4789 31.008 29.6018 31.0577 29.716C31.1074 29.8302 31.1792 29.9334 31.269 30.0198C31.3578 30.1071 31.4631 30.176 31.5788 30.2224C31.6944 30.2689 31.8181 30.2919 31.9427 30.2902C32.0673 30.2885 32.1904 30.2622 32.3047 30.2127C32.4191 30.1632 32.5225 30.0915 32.609 30.0018L34.417 28.1418C34.5039 28.0526 34.5723 27.9471 34.6184 27.8314C34.6644 27.7156 34.687 27.5919 34.6851 27.4674C34.6831 27.3429 34.6566 27.22 34.607 27.1057C34.5574 26.9915 34.4857 26.8882 34.396 26.8018C34.3069 26.7147 34.2015 26.6462 34.0858 26.6C33.9702 26.5538 33.8465 26.531 33.722 26.5328ZM16.521 27.0158C16.6124 27.0238 16.6988 27.0614 16.767 27.1228C17.173 27.4848 16.692 27.9078 16.517 28.0918L15.651 28.9958C15.044 29.6278 14.781 30.0538 14.356 29.6458C13.996 29.2728 14.313 29.0498 15.001 28.3518L15.866 27.4488C16.072 27.2488 16.284 27.0038 16.521 27.0158ZM20.083 27.0158C20.1744 27.0238 20.2608 27.0614 20.329 27.1228C20.736 27.4848 20.254 27.9078 20.079 28.0918L19.214 28.9958C18.607 29.6278 18.343 30.0538 17.919 29.6458C17.559 29.2728 17.875 29.0498 18.564 28.3518L19.429 27.4488C19.634 27.2488 19.847 27.0038 20.083 27.0158ZM23.46 27.0158C23.5514 27.0238 23.6378 27.0614 23.706 27.1228C24.113 27.4848 23.631 27.9078 23.456 28.0918L22.591 28.9958C21.984 29.6278 21.72 30.0538 21.296 29.6458C20.936 29.2728 21.252 29.0498 21.94 28.3518L22.806 27.4488C23.011 27.2488 23.224 27.0038 23.46 27.0158ZM27.023 27.0158C27.1144 27.0238 27.2008 27.0614 27.269 27.1228C27.675 27.4848 27.194 27.9078 27.019 28.0918L26.153 28.9958C25.546 29.6278 25.283 30.0538 24.858 29.6458C24.498 29.2728 24.815 29.0498 25.503 28.3518L26.368 27.4488C26.574 27.2488 26.786 27.0038 27.022 27.0158H27.023ZM30.223 27.0158C30.3148 27.0236 30.4015 27.0612 30.47 27.1228C30.876 27.4848 30.395 27.9078 30.22 28.0918L29.354 28.9958C28.747 29.6278 28.484 30.0538 28.06 29.6458C27.7 29.2728 28.016 29.0498 28.704 28.3518L29.569 27.4488C29.775 27.2488 29.987 27.0038 30.224 27.0158H30.223ZM33.786 27.0158C33.8774 27.0238 33.9638 27.0614 34.032 27.1228C34.439 27.4848 33.957 27.9078 33.782 28.0918L32.917 28.9958C32.31 29.6278 32.046 30.0538 31.622 29.6458C31.262 29.2728 31.578 29.0498 32.267 28.3518L33.132 27.4488C33.337 27.2488 33.55 27.0038 33.786 27.0158ZM13.796 32.9808C13.7813 32.9809 13.7667 32.9839 13.7532 32.9897C13.7397 32.9954 13.7274 33.0038 13.7171 33.0143C13.7068 33.0248 13.6986 33.0372 13.6931 33.0508C13.6876 33.0645 13.6848 33.0791 13.685 33.0938C13.685 33.1548 13.735 33.2058 13.795 33.2068C13.858 33.2068 13.908 33.1568 13.909 33.0938C13.9092 33.0788 13.9065 33.064 13.9009 33.0501C13.8954 33.0362 13.8871 33.0235 13.8765 33.0129C13.866 33.0023 13.8534 32.9939 13.8396 32.9882C13.8258 32.9825 13.8109 32.9796 13.796 32.9798V32.9808ZM14.358 32.9808C14.3281 32.981 14.2995 32.993 14.2784 33.0142C14.2572 33.0353 14.2452 33.0639 14.245 33.0938C14.245 33.1548 14.297 33.2068 14.358 33.2068C14.42 33.2068 14.469 33.1548 14.47 33.0938V33.0738C14.4658 33.0473 14.4522 33.0232 14.4316 33.0061C14.4109 32.989 14.3848 32.98 14.358 32.9808ZM14.921 32.9808C14.9061 32.9806 14.8913 32.9835 14.8776 32.9891C14.8638 32.9947 14.8513 33.0031 14.8408 33.0136C14.8303 33.0241 14.8219 33.0366 14.8163 33.0504C14.8107 33.0641 14.8078 33.0789 14.808 33.0938C14.808 33.1558 14.858 33.2078 14.921 33.2068C14.982 33.2068 15.031 33.1548 15.032 33.0938V33.0738C15.0279 33.0475 15.0144 33.0235 14.9939 33.0064C14.9735 32.9893 14.9476 32.9802 14.921 32.9808ZM15.483 32.9808C15.4681 32.9806 15.4533 32.9835 15.4396 32.9891C15.4258 32.9947 15.4133 33.0031 15.4028 33.0136C15.3923 33.0241 15.3839 33.0366 15.3783 33.0504C15.3727 33.0641 15.3698 33.0789 15.37 33.0938C15.37 33.1558 15.421 33.2078 15.483 33.2068C15.545 33.2068 15.594 33.1548 15.595 33.0938V33.0858C15.5932 33.0573 15.5806 33.0306 15.5598 33.0111C15.539 32.9916 15.5115 32.9807 15.483 32.9808ZM16.046 32.9808C16.0311 32.9806 16.0163 32.9835 16.0026 32.9891C15.9888 32.9947 15.9763 33.0031 15.9658 33.0136C15.9553 33.0241 15.9469 33.0366 15.9413 33.0504C15.9357 33.0641 15.9328 33.0789 15.933 33.0938C15.933 33.1558 15.983 33.2078 16.046 33.2068C16.107 33.2068 16.156 33.1548 16.157 33.0938V33.0858C16.1552 33.0575 16.1428 33.0309 16.1222 33.0114C16.1016 32.9919 16.0743 32.981 16.046 32.9808ZM16.608 32.9808C16.5931 32.9806 16.5783 32.9835 16.5646 32.9891C16.5508 32.9947 16.5383 33.0031 16.5278 33.0136C16.5173 33.0241 16.5089 33.0366 16.5033 33.0504C16.4977 33.0641 16.4948 33.0789 16.495 33.0938C16.495 33.1558 16.546 33.2078 16.608 33.2068C16.67 33.2068 16.719 33.1548 16.72 33.0938V33.0858C16.7182 33.0573 16.7056 33.0306 16.6848 33.0111C16.664 32.9916 16.6365 32.9807 16.608 32.9808ZM17.169 32.9808C17.1543 32.9809 17.1397 32.9839 17.1262 32.9897C17.1127 32.9954 17.1004 33.0038 17.0901 33.0143C17.0798 33.0248 17.0716 33.0372 17.0661 33.0508C17.0606 33.0645 17.0578 33.0791 17.058 33.0938C17.058 33.1548 17.108 33.2068 17.169 33.2068C17.1989 33.2065 17.2275 33.1945 17.2486 33.1734C17.2697 33.1523 17.2817 33.1237 17.282 33.0938V33.0858C17.2802 33.0571 17.2675 33.0303 17.2464 33.0107C17.2254 32.9912 17.1977 32.9805 17.169 32.9808ZM17.732 32.9808C17.7172 32.9808 17.7025 32.9837 17.6889 32.9894C17.6752 32.9951 17.6628 33.0034 17.6524 33.0139C17.642 33.0244 17.6338 33.0369 17.6282 33.0506C17.6226 33.0643 17.6198 33.079 17.62 33.0938C17.62 33.1548 17.67 33.2068 17.731 33.2068C17.761 33.2068 17.7899 33.1949 17.8112 33.1737C17.8326 33.1526 17.8447 33.1238 17.845 33.0938V33.0858C17.8432 33.0569 17.8303 33.0299 17.8091 33.0104C17.7878 32.9908 17.7599 32.9802 17.731 32.9808H17.732ZM18.294 32.9808C18.2793 32.9809 18.2647 32.9839 18.2512 32.9897C18.2377 32.9954 18.2254 33.0038 18.2151 33.0143C18.2048 33.0248 18.1966 33.0372 18.1911 33.0508C18.1856 33.0645 18.1828 33.0791 18.183 33.0938C18.183 33.1548 18.233 33.2068 18.294 33.2068C18.3239 33.2065 18.3525 33.1945 18.3736 33.1734C18.3947 33.1523 18.4067 33.1237 18.407 33.0938V33.0858C18.4052 33.0571 18.3925 33.0303 18.3714 33.0107C18.3504 32.9912 18.3227 32.9805 18.294 32.9808ZM18.857 32.9808C18.8422 32.9808 18.8275 32.9837 18.8139 32.9894C18.8002 32.9951 18.7878 33.0034 18.7774 33.0139C18.767 33.0244 18.7588 33.0369 18.7532 33.0506C18.7476 33.0643 18.7448 33.079 18.745 33.0938C18.745 33.1548 18.795 33.2068 18.856 33.2068C18.918 33.2068 18.967 33.1548 18.968 33.0938V33.0738C18.9639 33.0475 18.9504 33.0235 18.9299 33.0064C18.9095 32.9893 18.8836 32.9802 18.857 32.9808ZM19.419 32.9808C19.4041 32.9806 19.3893 32.9835 19.3756 32.9891C19.3618 32.9947 19.3493 33.0031 19.3388 33.0136C19.3283 33.0241 19.3199 33.0366 19.3143 33.0504C19.3087 33.0641 19.3058 33.0789 19.306 33.0938C19.306 33.1558 19.357 33.2078 19.419 33.2068C19.48 33.2068 19.529 33.1548 19.53 33.0938V33.0858C19.5282 33.0575 19.5158 33.0309 19.4952 33.0114C19.4746 32.9919 19.4473 32.981 19.419 32.9808ZM19.982 32.9808C19.967 32.9805 19.9522 32.9832 19.9383 32.9888C19.9244 32.9944 19.9118 33.0027 19.9011 33.0132C19.8905 33.0237 19.8821 33.0363 19.8764 33.0501C19.8707 33.064 19.8678 33.0788 19.868 33.0938C19.868 33.1558 19.92 33.2078 19.981 33.2068C20.043 33.2068 20.092 33.1548 20.093 33.0938V33.0858C20.0912 33.0575 20.0788 33.0309 20.0582 33.0114C20.0376 32.9919 20.0103 32.981 19.982 32.9808ZM20.544 32.9808C20.5291 32.9806 20.5143 32.9835 20.5006 32.9891C20.4868 32.9947 20.4743 33.0031 20.4638 33.0136C20.4533 33.0241 20.4449 33.0366 20.4393 33.0504C20.4337 33.0641 20.4308 33.0789 20.431 33.0938C20.431 33.1558 20.482 33.2078 20.544 33.2068C20.605 33.2068 20.654 33.1548 20.655 33.0938V33.0858C20.6532 33.0575 20.6408 33.0309 20.6202 33.0114C20.5996 32.9919 20.5723 32.981 20.544 32.9808ZM21.107 32.9808C21.092 32.9805 21.0772 32.9832 21.0633 32.9888C21.0494 32.9944 21.0368 33.0027 21.0261 33.0132C21.0155 33.0237 21.0071 33.0363 21.0014 33.0501C20.9957 33.064 20.9928 33.0788 20.993 33.0938C20.993 33.1558 21.045 33.2078 21.106 33.2068C21.168 33.2068 21.217 33.1548 21.218 33.0938V33.0858C21.2162 33.0575 21.2038 33.0309 21.1832 33.0114C21.1626 32.9919 21.1353 32.981 21.107 32.9808ZM21.667 32.9808C21.6523 32.9809 21.6377 32.9839 21.6242 32.9897C21.6107 32.9954 21.5984 33.0038 21.5881 33.0143C21.5778 33.0248 21.5696 33.0372 21.5641 33.0508C21.5586 33.0645 21.5558 33.0791 21.556 33.0938C21.556 33.1548 21.606 33.2068 21.667 33.2068C21.6969 33.2065 21.7255 33.1945 21.7466 33.1734C21.7677 33.1523 21.7797 33.1237 21.78 33.0938V33.0858C21.7782 33.0571 21.7655 33.0303 21.7444 33.0107C21.7234 32.9912 21.6957 32.9805 21.667 32.9808ZM22.23 32.9808C22.2152 32.9808 22.2005 32.9837 22.1869 32.9894C22.1732 32.9951 22.1608 33.0034 22.1504 33.0139C22.14 33.0244 22.1318 33.0369 22.1262 33.0506C22.1206 33.0643 22.1178 33.079 22.118 33.0938C22.118 33.1548 22.168 33.2068 22.229 33.2068C22.259 33.2068 22.2879 33.1949 22.3092 33.1737C22.3306 33.1526 22.3427 33.1238 22.343 33.0938V33.0858C22.3412 33.0571 22.3285 33.0303 22.3074 33.0107C22.2864 32.9912 22.2587 32.9805 22.23 32.9808ZM22.792 32.9808C22.7773 32.9809 22.7627 32.9839 22.7492 32.9897C22.7357 32.9954 22.7234 33.0038 22.7131 33.0143C22.7028 33.0248 22.6946 33.0372 22.6891 33.0508C22.6836 33.0645 22.6808 33.0791 22.681 33.0938C22.681 33.1548 22.731 33.2058 22.792 33.2068C22.854 33.2068 22.905 33.1568 22.905 33.0938C22.9052 33.0788 22.9025 33.064 22.8969 33.0501C22.8914 33.0362 22.8831 33.0235 22.8725 33.0129C22.862 33.0023 22.8495 32.9939 22.8356 32.9882C22.8218 32.9825 22.8069 32.9796 22.792 32.9798V32.9808ZM23.355 32.9808C23.3402 32.9808 23.3255 32.9837 23.3119 32.9894C23.2982 32.9951 23.2858 33.0034 23.2754 33.0139C23.265 33.0244 23.2568 33.0369 23.2512 33.0506C23.2456 33.0643 23.2428 33.079 23.243 33.0938C23.243 33.1548 23.293 33.2068 23.354 33.2068C23.3837 33.2063 23.412 33.1941 23.4329 33.173C23.4539 33.1519 23.4657 33.1235 23.466 33.0938V33.0738C23.4617 33.0476 23.4481 33.0237 23.4277 33.0067C23.4074 32.9896 23.3815 32.9804 23.355 32.9808ZM23.917 32.9808C23.9021 32.9806 23.8873 32.9835 23.8736 32.9891C23.8598 32.9947 23.8473 33.0031 23.8368 33.0136C23.8263 33.0241 23.8179 33.0366 23.8123 33.0504C23.8067 33.0641 23.8038 33.0789 23.804 33.0938C23.804 33.1558 23.855 33.2078 23.917 33.2068C23.978 33.2068 24.027 33.1548 24.028 33.0938V33.0738C24.0239 33.0475 24.0104 33.0235 23.9899 33.0064C23.9695 32.9893 23.9436 32.9802 23.917 32.9808ZM24.48 32.9808C24.465 32.9805 24.4502 32.9832 24.4363 32.9888C24.4224 32.9944 24.4098 33.0027 24.3991 33.0132C24.3885 33.0237 24.3801 33.0363 24.3744 33.0501C24.3687 33.064 24.3658 33.0788 24.366 33.0938C24.366 33.1558 24.418 33.2078 24.48 33.2068C24.54 33.2068 24.59 33.1548 24.59 33.0938V33.0858C24.5882 33.0576 24.5759 33.0312 24.5555 33.0117C24.5351 32.9923 24.5082 32.9812 24.48 32.9808ZM25.042 32.9808C25.0271 32.9806 25.0123 32.9835 24.9986 32.9891C24.9848 32.9947 24.9723 33.0031 24.9618 33.0136C24.9513 33.0241 24.9429 33.0366 24.9373 33.0504C24.9317 33.0641 24.9288 33.0789 24.929 33.0938C24.929 33.1558 24.98 33.2078 25.042 33.2068C25.103 33.2068 25.152 33.1548 25.153 33.0938V33.0858C25.1512 33.0575 25.1388 33.0309 25.1182 33.0114C25.0976 32.9919 25.0703 32.981 25.042 32.9808ZM25.602 32.9808C25.5724 32.9813 25.5443 32.9935 25.5237 33.0146C25.5031 33.0358 25.4917 33.0642 25.492 33.0938C25.492 33.1548 25.542 33.2068 25.602 33.2068C25.632 33.2068 25.6609 33.1949 25.6822 33.1737C25.7036 33.1526 25.7157 33.1238 25.716 33.0938V33.0858C25.7142 33.0571 25.7015 33.0303 25.6804 33.0107C25.6594 32.9912 25.6317 32.9805 25.603 32.9808H25.602ZM26.165 32.9808C26.1503 32.9809 26.1357 32.9839 26.1222 32.9897C26.1087 32.9954 26.0964 33.0038 26.0861 33.0143C26.0758 33.0248 26.0676 33.0372 26.0621 33.0508C26.0566 33.0645 26.0538 33.0791 26.054 33.0938C26.054 33.1548 26.104 33.2068 26.165 33.2068C26.1949 33.2065 26.2235 33.1945 26.2446 33.1734C26.2657 33.1523 26.2777 33.1237 26.278 33.0938V33.0858C26.2762 33.0571 26.2635 33.0303 26.2424 33.0107C26.2214 32.9912 26.1937 32.9805 26.165 32.9808ZM26.728 32.9808C26.7132 32.9808 26.6985 32.9837 26.6849 32.9894C26.6712 32.9951 26.6588 33.0034 26.6484 33.0139C26.638 33.0244 26.6298 33.0369 26.6242 33.0506C26.6186 33.0643 26.6158 33.079 26.616 33.0938C26.616 33.1548 26.666 33.2068 26.728 33.2068C26.7579 33.2065 26.7865 33.1945 26.8076 33.1734C26.8287 33.1523 26.8407 33.1237 26.841 33.0938V33.0858C26.8392 33.0571 26.8265 33.0303 26.8054 33.0107C26.7844 32.9912 26.7567 32.9805 26.728 32.9808ZM27.29 32.9808C27.2753 32.9809 27.2607 32.9839 27.2472 32.9897C27.2337 32.9954 27.2214 33.0038 27.2111 33.0143C27.2008 33.0248 27.1926 33.0372 27.1871 33.0508C27.1816 33.0645 27.1788 33.0791 27.179 33.0938C27.179 33.1548 27.229 33.2058 27.29 33.2068C27.352 33.2068 27.403 33.1568 27.403 33.0938C27.4032 33.0788 27.4005 33.064 27.3949 33.0501C27.3894 33.0362 27.3811 33.0235 27.3705 33.0129C27.36 33.0023 27.3474 32.9939 27.3336 32.9882C27.3198 32.9825 27.3049 32.9796 27.29 32.9798V32.9808ZM27.853 32.9808C27.8382 32.9808 27.8235 32.9837 27.8099 32.9894C27.7962 32.9951 27.7838 33.0034 27.7734 33.0139C27.763 33.0244 27.7548 33.0369 27.7492 33.0506C27.7436 33.0643 27.7408 33.079 27.741 33.0938C27.741 33.1548 27.791 33.2068 27.853 33.2068C27.913 33.2068 27.963 33.1548 27.963 33.0938C27.965 33.0858 27.965 33.0818 27.963 33.0738C27.9589 33.0476 27.9455 33.0238 27.9253 33.0068C27.9051 32.9897 27.8794 32.9805 27.853 32.9808ZM28.415 32.9808C28.4001 32.9806 28.3853 32.9835 28.3716 32.9891C28.3578 32.9947 28.3453 33.0031 28.3348 33.0136C28.3243 33.0241 28.3159 33.0366 28.3103 33.0504C28.3047 33.0641 28.3018 33.0789 28.302 33.0938C28.302 33.1558 28.353 33.2078 28.415 33.2068C28.476 33.2068 28.525 33.1548 28.526 33.0938V33.0858C28.5242 33.0576 28.5119 33.0312 28.4915 33.0117C28.4711 32.9923 28.4442 32.9812 28.416 32.9808H28.415ZM28.978 32.9808C28.963 32.9805 28.9482 32.9832 28.9343 32.9888C28.9204 32.9944 28.9078 33.0027 28.8971 33.0132C28.8865 33.0237 28.8781 33.0363 28.8724 33.0501C28.8667 33.064 28.8638 33.0788 28.864 33.0938C28.864 33.1558 28.916 33.2078 28.978 33.2068C29.038 33.2068 29.088 33.1548 29.088 33.0938V33.0858C29.0862 33.0576 29.0739 33.0312 29.0535 33.0117C29.0331 32.9923 29.0062 32.9812 28.978 32.9808ZM29.54 32.9808C29.5251 32.9806 29.5103 32.9835 29.4966 32.9891C29.4828 32.9947 29.4703 33.0031 29.4598 33.0136C29.4493 33.0241 29.4409 33.0366 29.4353 33.0504C29.4297 33.0641 29.4268 33.0789 29.427 33.0938C29.427 33.1558 29.478 33.2078 29.54 33.2068C29.601 33.2068 29.65 33.1548 29.651 33.0938V33.0858C29.6492 33.0576 29.6369 33.0312 29.6165 33.0117C29.5961 32.9923 29.5692 32.9812 29.541 32.9808H29.54ZM30.1 32.9808C30.0704 32.9813 30.0423 32.9935 30.0217 33.0146C30.0011 33.0358 29.9897 33.0642 29.99 33.0938C29.99 33.1548 30.039 33.2068 30.1 33.2068C30.13 33.2068 30.1589 33.1949 30.1802 33.1737C30.2016 33.1526 30.2137 33.1238 30.214 33.0938V33.0858C30.2122 33.0571 30.1995 33.0303 30.1784 33.0107C30.1574 32.9912 30.1297 32.9805 30.101 32.9808H30.1ZM30.663 32.9808C30.6483 32.9809 30.6337 32.9839 30.6202 32.9897C30.6067 32.9954 30.5944 33.0038 30.5841 33.0143C30.5738 33.0248 30.5656 33.0372 30.5601 33.0508C30.5546 33.0645 30.5518 33.0791 30.552 33.0938C30.552 33.1548 30.602 33.2068 30.663 33.2068C30.6929 33.2065 30.7215 33.1945 30.7426 33.1734C30.7637 33.1523 30.7757 33.1237 30.776 33.0938V33.0858C30.7742 33.0571 30.7615 33.0303 30.7404 33.0107C30.7194 32.9912 30.6917 32.9805 30.663 32.9808ZM31.226 32.9808C31.2112 32.9808 31.1965 32.9837 31.1829 32.9894C31.1692 32.9951 31.1568 33.0034 31.1464 33.0139C31.136 33.0244 31.1278 33.0369 31.1222 33.0506C31.1166 33.0643 31.1138 33.079 31.114 33.0938C31.114 33.1548 31.164 33.2068 31.226 33.2068C31.2559 33.2065 31.2845 33.1945 31.3056 33.1734C31.3267 33.1523 31.3387 33.1237 31.339 33.0938V33.0858C31.3372 33.0571 31.3245 33.0303 31.3034 33.0107C31.2824 32.9912 31.2547 32.9805 31.226 32.9808ZM31.788 32.9808C31.7733 32.9809 31.7587 32.9839 31.7452 32.9897C31.7317 32.9954 31.7194 33.0038 31.7091 33.0143C31.6988 33.0248 31.6906 33.0372 31.6851 33.0508C31.6796 33.0645 31.6768 33.0791 31.677 33.0938C31.677 33.1548 31.727 33.2068 31.788 33.2068C31.849 33.2068 31.898 33.1548 31.899 33.0938V33.0738C31.8949 33.0476 31.8815 33.0238 31.8613 33.0068C31.8411 32.9897 31.8154 32.9805 31.789 32.9808H31.788ZM32.351 32.9808C32.336 32.9805 32.3212 32.9832 32.3073 32.9888C32.2934 32.9944 32.2808 33.0027 32.2701 33.0132C32.2595 33.0237 32.2511 33.0363 32.2454 33.0501C32.2397 33.064 32.2368 33.0788 32.237 33.0938C32.237 33.1558 32.289 33.2078 32.351 33.2068C32.411 33.2068 32.461 33.1548 32.461 33.0938C32.463 33.0858 32.463 33.0818 32.461 33.0738C32.4569 33.0476 32.4435 33.0238 32.4233 33.0068C32.4031 32.9897 32.3774 32.9805 32.351 32.9808ZM32.913 32.9808C32.8981 32.9806 32.8833 32.9835 32.8696 32.9891C32.8558 32.9947 32.8433 33.0031 32.8328 33.0136C32.8223 33.0241 32.8139 33.0366 32.8083 33.0504C32.8027 33.0641 32.7998 33.0789 32.8 33.0938C32.8 33.1558 32.851 33.2078 32.913 33.2068C32.974 33.2068 33.023 33.1548 33.024 33.0938V33.0858C33.0222 33.0576 33.0099 33.0312 32.9895 33.0117C32.9691 32.9923 32.9422 32.9812 32.914 32.9808H32.913ZM33.476 32.9808C33.461 32.9805 33.4462 32.9832 33.4323 32.9888C33.4184 32.9944 33.4058 33.0027 33.3951 33.0132C33.3845 33.0237 33.3761 33.0363 33.3704 33.0501C33.3647 33.064 33.3618 33.0788 33.362 33.0938C33.362 33.1558 33.414 33.2078 33.476 33.2068C33.5053 33.2057 33.5332 33.1934 33.5537 33.1724C33.5742 33.1513 33.5857 33.1232 33.586 33.0938V33.0858C33.5842 33.0576 33.5719 33.0312 33.5515 33.0117C33.5311 32.9923 33.5042 32.9812 33.476 32.9808ZM34.038 32.9808C34.0231 32.9806 34.0083 32.9835 33.9946 32.9891C33.9808 32.9947 33.9683 33.0031 33.9578 33.0136C33.9473 33.0241 33.9389 33.0366 33.9333 33.0504C33.9277 33.0641 33.9248 33.0789 33.925 33.0938C33.925 33.1558 33.976 33.2078 34.038 33.2068C34.0675 33.206 34.0956 33.1938 34.1163 33.1727C34.137 33.1516 34.1487 33.1233 34.149 33.0938V33.0858C34.1472 33.0576 34.1349 33.0312 34.1145 33.0117C34.0941 32.9923 34.0672 32.9812 34.039 32.9808H34.038ZM34.598 32.9808C34.5684 32.9813 34.5403 32.9935 34.5197 33.0146C34.4991 33.0358 34.4877 33.0642 34.488 33.0938C34.488 33.1548 34.537 33.2068 34.598 33.2068C34.628 33.2068 34.6569 33.1949 34.6782 33.1737C34.6996 33.1526 34.7117 33.1238 34.712 33.0938V33.0858C34.7102 33.0571 34.6975 33.0303 34.6764 33.0107C34.6554 32.9912 34.6277 32.9805 34.599 32.9808H34.598ZM18.238 35.1988C18.1132 35.2007 17.99 35.2273 17.8755 35.2771C17.761 35.3269 17.6575 35.3988 17.571 35.4888L15.763 37.3458C15.6761 37.435 15.6076 37.5405 15.5616 37.6562C15.5156 37.7719 15.4929 37.8956 15.4949 38.0201C15.4968 38.1447 15.5234 38.2676 15.573 38.3818C15.6226 38.4961 15.6943 38.5993 15.784 38.6858C15.8728 38.7731 15.9781 38.842 16.0938 38.8884C16.2094 38.9349 16.3331 38.9579 16.4577 38.9562C16.5823 38.9545 16.7054 38.9282 16.8197 38.8787C16.9341 38.8292 17.0375 38.7575 17.124 38.6678L18.933 36.8078C19.0198 36.7185 19.0882 36.613 19.1341 36.4972C19.1801 36.3814 19.2026 36.2577 19.2006 36.1332C19.1986 36.0087 19.1719 35.8858 19.1222 35.7716C19.0725 35.6574 19.0007 35.5541 18.911 35.4678C18.8219 35.3808 18.7165 35.3122 18.6008 35.2661C18.4851 35.2199 18.3615 35.197 18.237 35.1988H18.238ZM21.8 35.1988C21.6753 35.2008 21.5523 35.2275 21.438 35.2773C21.3237 35.3271 21.2204 35.3989 21.134 35.4888L19.325 37.3458C19.2381 37.435 19.1698 37.5406 19.1238 37.6563C19.0779 37.7721 19.0553 37.8958 19.0574 38.0203C19.0594 38.1449 19.086 38.2678 19.1357 38.382C19.1854 38.4962 19.2572 38.5994 19.347 38.6858C19.4358 38.7731 19.5411 38.842 19.6568 38.8884C19.7724 38.9349 19.8961 38.9579 20.0207 38.9562C20.1453 38.9545 20.2684 38.9282 20.3827 38.8787C20.4971 38.8292 20.6005 38.7575 20.687 38.6678L22.495 36.8078C22.5819 36.7186 22.6503 36.6131 22.6964 36.4974C22.7424 36.3816 22.765 36.2579 22.7631 36.1334C22.7611 36.0089 22.7346 35.886 22.685 35.7717C22.6354 35.6575 22.5637 35.5542 22.474 35.4678C22.3849 35.3808 22.2795 35.3122 22.1638 35.2661C22.0481 35.2199 21.9245 35.197 21.8 35.1988ZM25.177 35.1988C25.0523 35.2008 24.9293 35.2275 24.815 35.2772C24.7007 35.327 24.5974 35.3989 24.511 35.4888L22.7 37.3448C22.6131 37.434 22.5448 37.5396 22.4988 37.6553C22.4529 37.7711 22.4303 37.8948 22.4324 38.0193C22.4344 38.1439 22.461 38.2668 22.5107 38.381C22.5604 38.4952 22.6322 38.5984 22.722 38.6848C22.8108 38.7721 22.9161 38.841 23.0318 38.8874C23.1474 38.9339 23.2711 38.9569 23.3957 38.9552C23.5203 38.9535 23.6434 38.9272 23.7577 38.8777C23.8721 38.8282 23.9755 38.7565 24.062 38.6668L25.87 36.8068C25.9569 36.7176 26.0253 36.6121 26.0714 36.4964C26.1174 36.3806 26.14 36.2569 26.1381 36.1324C26.1361 36.0079 26.1096 35.885 26.06 35.7707C26.0104 35.6565 25.9387 35.5532 25.849 35.4668C25.7599 35.3797 25.6545 35.3112 25.5388 35.265C25.4232 35.2188 25.2995 35.196 25.175 35.1978L25.177 35.1988ZM28.739 35.1988C28.6143 35.2008 28.4913 35.2275 28.377 35.2772C28.2627 35.327 28.1594 35.3989 28.073 35.4888L26.265 37.3458C26.1781 37.435 26.1096 37.5405 26.0636 37.6562C26.0176 37.7719 25.9949 37.8956 25.9969 38.0201C25.9988 38.1447 26.0254 38.2676 26.075 38.3818C26.1246 38.4961 26.1963 38.5993 26.286 38.6858C26.3748 38.7731 26.4801 38.842 26.5958 38.8884C26.7114 38.9349 26.8351 38.9579 26.9597 38.9562C27.0843 38.9545 27.2074 38.9282 27.3217 38.8787C27.4361 38.8292 27.5395 38.7575 27.626 38.6678L29.435 36.8078C29.5218 36.7185 29.5902 36.613 29.6361 36.4972C29.6821 36.3814 29.7046 36.2577 29.7026 36.1332C29.7006 36.0087 29.6739 35.8858 29.6242 35.7716C29.5745 35.6574 29.5027 35.5541 29.413 35.4678C29.3239 35.3807 29.2185 35.3122 29.1028 35.266C28.9872 35.2198 28.8635 35.197 28.739 35.1988ZM31.94 35.1988C31.8153 35.2008 31.6923 35.2275 31.578 35.2773C31.4637 35.3271 31.3604 35.3989 31.274 35.4888L29.466 37.3458C29.3791 37.435 29.3106 37.5405 29.2646 37.6562C29.2186 37.7719 29.1959 37.8956 29.1979 38.0201C29.1998 38.1447 29.2264 38.2676 29.276 38.3818C29.3256 38.4961 29.3973 38.5993 29.487 38.6858C29.5758 38.7731 29.6811 38.842 29.7968 38.8884C29.9124 38.9349 30.0361 38.9579 30.1607 38.9562C30.2853 38.9545 30.4084 38.9282 30.5227 38.8787C30.6371 38.8292 30.7405 38.7575 30.827 38.6678L32.636 36.8078C32.7228 36.7185 32.7912 36.613 32.8371 36.4972C32.8831 36.3814 32.9056 36.2577 32.9036 36.1332C32.9016 36.0087 32.8749 35.8858 32.8252 35.7716C32.7755 35.6574 32.7037 35.5541 32.614 35.4678C32.5249 35.3807 32.4195 35.3122 32.3038 35.266C32.1882 35.2198 32.0645 35.197 31.94 35.1988ZM18.302 35.6818C18.3934 35.6898 18.4798 35.7274 18.548 35.7888C18.954 36.1508 18.473 36.5738 18.298 36.7578L17.433 37.6618C16.825 38.2938 16.561 38.7198 16.138 38.3118C15.778 37.9388 16.094 37.7168 16.782 37.0178L17.648 36.1148C17.853 35.9148 18.066 35.6698 18.302 35.6818ZM21.864 35.6818C21.9554 35.6898 22.0418 35.7274 22.11 35.7888C22.517 36.1508 22.035 36.5738 21.86 36.7578L20.995 37.6618C20.388 38.2938 20.124 38.7198 19.7 38.3118C19.34 37.9388 19.656 37.7168 20.345 37.0178L21.21 36.1148C21.415 35.9148 21.628 35.6698 21.864 35.6818ZM25.241 35.6818C25.3324 35.6898 25.4188 35.7274 25.487 35.7888C25.894 36.1508 25.412 36.5738 25.237 36.7578L24.372 37.6618C23.765 38.2938 23.501 38.7198 23.077 38.3118C22.717 37.9388 23.033 37.7168 23.722 37.0178L24.587 36.1148C24.792 35.9148 25.005 35.6698 25.241 35.6818ZM28.804 35.6818C28.8954 35.6898 28.9818 35.7274 29.05 35.7888C29.456 36.1508 28.975 36.5738 28.8 36.7578L27.935 37.6618C27.327 38.2938 27.063 38.7198 26.64 38.3118C26.28 37.9388 26.596 37.7168 27.284 37.0178L28.149 36.1148C28.355 35.9148 28.568 35.6698 28.804 35.6818ZM32.004 35.6818C32.0958 35.6896 32.1825 35.7272 32.251 35.7888C32.658 36.1508 32.176 36.5738 32.001 36.7578L31.136 37.6618C30.528 38.2938 30.264 38.7198 29.841 38.3118C29.481 37.9388 29.797 37.7168 30.485 37.0178L31.351 36.1148C31.556 35.9148 31.769 35.6698 32.005 35.6818H32.004Z" fill="#333333"/>
</svg>
