<svg width="48" height="48" viewBox="0 0 48 48" fill="none" xmlns="http://www.w3.org/2000/svg">
<g clip-path="url(#clip0)">
<path fill-rule="evenodd" clip-rule="evenodd" d="M0.0253906 -0.00585938V47.9941H48.0254V-0.00585938H0.0253906ZM14.1738 3.99414H33.8789C34.7483 3.99414 35.4473 4.69306 35.4473 5.5625V42.4238C35.4473 43.2933 34.7483 43.9941 33.8789 43.9941H14.1738C13.3044 43.9941 12.6055 43.2933 12.6055 42.4238V5.5625C12.6055 4.69306 13.3044 3.99414 14.1738 3.99414ZM30.8711 4.72852C30.8121 4.73207 30.768 4.7805 30.7676 4.83984C30.767 4.90258 30.8162 4.9535 30.8789 4.95312C30.9409 4.95263 30.9929 4.90183 30.9922 4.83984C30.9917 4.77862 30.9401 4.72927 30.8789 4.72852C30.8763 4.72844 30.8749 4.72844 30.8711 4.72852ZM30.8711 5.29102C30.8121 5.29457 30.768 5.343 30.7676 5.40234C30.767 5.46508 30.8162 5.516 30.8789 5.51562C30.9409 5.51513 30.9929 5.46433 30.9922 5.40234C30.9917 5.34112 30.9401 5.29177 30.8789 5.29102C30.8763 5.29094 30.8749 5.29094 30.8711 5.29102ZM30.8711 5.85351C30.8121 5.85707 30.768 5.90588 30.7676 5.96484C30.767 6.02758 30.8162 6.0785 30.8789 6.07812C30.9409 6.07763 30.9929 6.02683 30.9922 5.96484C30.9917 5.90362 30.9401 5.85427 30.8789 5.85351C30.8763 5.85344 30.8749 5.85344 30.8711 5.85351ZM25.2891 6.33203V6.33398C25.0469 6.33727 24.8061 6.43483 24.623 6.62305L22.8145 8.48047C22.4483 8.85653 22.4556 9.45415 22.832 9.82031C23.0202 10.0036 23.2637 10.0917 23.5059 10.0879C23.748 10.0841 23.9888 9.98862 24.1719 9.80078L25.9805 7.94141C26.3466 7.56496 26.3393 6.96768 25.9629 6.60156C25.7747 6.41863 25.5313 6.32863 25.2891 6.33203ZM30.8613 6.41601C30.8069 6.42357 30.7672 6.47216 30.7676 6.52734C30.7681 6.58933 30.8165 6.63905 30.8789 6.63867C30.9401 6.63818 30.9918 6.58895 30.9922 6.52734C30.9917 6.46611 30.9401 6.41677 30.8789 6.41601C30.8713 6.41545 30.8709 6.41545 30.8633 6.41601H30.8613ZM30.8809 6.97656C30.8181 6.97596 30.7672 7.0271 30.7676 7.08984C30.7681 7.15183 30.8185 7.20155 30.8809 7.20117C30.9421 7.20068 30.9914 7.15145 30.9922 7.08984C30.9928 7.02786 30.9432 6.97732 30.8809 6.97656ZM30.8711 7.53906C30.8114 7.54265 30.7668 7.59225 30.7676 7.65234C30.7681 7.71433 30.8165 7.76443 30.8789 7.76367C30.9401 7.76318 30.9918 7.71395 30.9922 7.65234C30.9928 7.59036 30.9409 7.53982 30.8789 7.53906C30.8763 7.53895 30.8749 7.53895 30.8711 7.53906ZM30.8711 8.10156C30.8114 8.10519 30.7668 8.15475 30.7676 8.21484C30.7681 8.27683 30.8165 8.32655 30.8789 8.32617C30.9401 8.32572 30.9918 8.27645 30.9922 8.21484C30.9928 8.15286 30.9409 8.10232 30.8789 8.10156C30.8763 8.10149 30.8749 8.10149 30.8711 8.10156ZM19.7207 8.33203V8.33398C19.4785 8.33727 19.2377 8.43483 19.0547 8.62305L17.2461 10.4805C16.88 10.8565 16.8872 11.4542 17.2637 11.8203C17.5459 12.0951 17.9528 12.1577 18.293 12.0137C18.4063 11.9657 18.512 11.8945 18.6035 11.8008L20.4121 9.94141C20.7782 9.56496 20.771 8.96768 20.3945 8.60156C20.2064 8.41863 19.9629 8.32863 19.7207 8.33203ZM30.8711 8.66406C30.8114 8.66765 30.7668 8.71725 30.7676 8.77734C30.7681 8.83933 30.8165 8.88905 30.8789 8.88867C30.9401 8.88818 30.9918 8.83895 30.9922 8.77734C30.9928 8.71536 30.9409 8.66482 30.8789 8.66406C30.8763 8.66399 30.8749 8.66399 30.8711 8.66406ZM30.8711 9.22656C30.8121 9.23011 30.768 9.27855 30.7676 9.33789C30.767 9.40063 30.8162 9.45155 30.8789 9.45117C30.9409 9.45068 30.9929 9.39987 30.9922 9.33789C30.9917 9.27666 30.9401 9.22732 30.8789 9.22656C30.8763 9.22649 30.8749 9.22649 30.8711 9.22656ZM30.8711 9.78906C30.8121 9.79265 30.768 9.84105 30.7676 9.90039C30.767 9.96313 30.8162 10.014 30.8789 10.0137C30.9409 10.0132 30.9929 9.96237 30.9922 9.90039C30.9917 9.83916 30.9401 9.78944 30.8789 9.78906C30.8763 9.78895 30.8749 9.78895 30.8711 9.78906ZM30.8613 10.3516C30.8069 10.3591 30.7672 10.4081 30.7676 10.4629C30.767 10.5256 30.8162 10.5765 30.8789 10.5762C30.9409 10.5757 30.9929 10.5249 30.9922 10.4629C30.9917 10.4017 30.9401 10.3523 30.8789 10.3516C30.8713 10.351 30.8709 10.351 30.8633 10.3516H30.8613ZM30.8809 10.9121C30.8181 10.9115 30.7672 10.9626 30.7676 11.0254C30.7681 11.0874 30.8185 11.1371 30.8809 11.1367C30.9421 11.1362 30.9914 11.087 30.9922 11.0254C30.9928 10.9634 30.9432 10.9129 30.8809 10.9121ZM30.8809 11.4746C30.8181 11.474 30.7672 11.5251 30.7676 11.5879C30.7681 11.6499 30.8185 11.7003 30.8809 11.6992C30.9421 11.6988 30.9914 11.6487 30.9922 11.5879C30.9928 11.5259 30.9432 11.4754 30.8809 11.4746ZM30.8711 12.0371C30.8114 12.0407 30.7668 12.0903 30.7676 12.1504C30.7681 12.2124 30.8165 12.2628 30.8789 12.2617C30.9401 12.2612 30.9918 12.2116 30.9922 12.1504C30.9928 12.0884 30.9409 12.0379 30.8789 12.0371C30.8763 12.037 30.8749 12.037 30.8711 12.0371ZM25.2891 12.0449V12.0469C25.0469 12.0502 24.8061 12.1477 24.623 12.3359L22.8145 14.1934C22.4483 14.5694 22.4556 15.1671 22.832 15.5332C23.2083 15.8994 23.8058 15.8882 24.1719 15.5137L25.9805 13.6543C26.3466 13.2779 26.3393 12.6806 25.9629 12.3145C25.7747 12.1315 25.5313 12.0415 25.2891 12.0449ZM30.8711 12.5996C30.8114 12.6032 30.7668 12.6528 30.7676 12.7129C30.7681 12.7749 30.8165 12.825 30.8789 12.8242C30.9401 12.8237 30.9918 12.7741 30.9922 12.7129C30.9928 12.6509 30.9409 12.6 30.8789 12.5996C30.8763 12.5995 30.8749 12.5995 30.8711 12.5996ZM30.8711 13.1621C30.8121 13.1657 30.768 13.2141 30.7676 13.2734C30.767 13.3362 30.8162 13.3871 30.8789 13.3867C30.9409 13.3862 30.9929 13.3354 30.9922 13.2734C30.9917 13.2122 30.9401 13.1629 30.8789 13.1621C30.8763 13.162 30.8749 13.162 30.8711 13.1621ZM30.8711 13.7246C30.8121 13.7282 30.768 13.777 30.7676 13.8359C30.767 13.8987 30.8162 13.9496 30.8789 13.9492C30.9409 13.9487 30.9929 13.8979 30.9922 13.8359C30.9917 13.7747 30.9401 13.7254 30.8789 13.7246C30.8763 13.7245 30.8749 13.7245 30.8711 13.7246ZM19.7207 14.0449V14.0469C19.4785 14.0502 19.2377 14.1477 19.0547 14.3359L17.2461 16.1934C16.88 16.5694 16.8872 17.1671 17.2637 17.5332C17.6399 17.8994 18.2374 17.889 18.6035 17.5137L20.4121 15.6543C20.7782 15.2779 20.771 14.6806 20.3945 14.3145C20.2064 14.1315 19.9629 14.0415 19.7207 14.0449ZM30.8711 14.2871C30.8121 14.2907 30.768 14.3399 30.7676 14.3984C30.767 14.4612 30.8162 14.5121 30.8789 14.5117C30.9409 14.5113 30.9929 14.4604 30.9922 14.3984C30.9917 14.3372 30.9401 14.2875 30.8789 14.2871C30.8763 14.287 30.8749 14.287 30.8711 14.2871ZM30.8613 14.8496C30.8069 14.8572 30.7672 14.9061 30.7676 14.9609C30.767 15.0237 30.8162 15.0746 30.8789 15.0742C30.9409 15.0737 30.9929 15.0229 30.9922 14.9609C30.9917 14.8997 30.9401 14.85 30.8789 14.8496C30.8713 14.849 30.8709 14.849 30.8633 14.8496H30.8613ZM30.8613 15.4121C30.8069 15.4197 30.7672 15.4683 30.7676 15.5234C30.7681 15.5854 30.8165 15.6355 30.8789 15.6348C30.9401 15.6343 30.9918 15.5847 30.9922 15.5234C30.9917 15.4622 30.9401 15.4129 30.8789 15.4121C30.8713 15.4115 30.8709 15.4115 30.8633 15.4121H30.8613ZM30.8809 15.9727C30.8181 15.972 30.7672 16.0232 30.7676 16.0859C30.7681 16.1479 30.8185 16.1984 30.8809 16.1973C30.9421 16.1968 30.9914 16.1468 30.9922 16.0859C30.9928 16.024 30.9432 15.9734 30.8809 15.9727ZM30.8711 16.5352C30.8114 16.5388 30.7668 16.5883 30.7676 16.6484C30.7681 16.7104 30.8165 16.7605 30.8789 16.7598C30.9401 16.7593 30.9918 16.7097 30.9922 16.6484C30.9928 16.5865 30.9409 16.5359 30.8789 16.5352C30.8763 16.5351 30.8749 16.5351 30.8711 16.5352ZM25.2891 16.7402V16.7422C25.0469 16.7455 24.8061 16.843 24.623 17.0312L22.8145 18.8887C22.4483 19.2647 22.4556 19.8624 22.832 20.2285C23.2083 20.5948 23.8058 20.5866 24.1719 20.209L25.9805 18.3496C26.3466 17.9732 26.3393 17.3759 25.9629 17.0098C25.7747 16.8268 25.5313 16.7368 25.2891 16.7402ZM30.8711 17.0977C30.8114 17.1012 30.7668 17.1508 30.7676 17.2109C30.7681 17.2729 30.8165 17.3226 30.8789 17.3223C30.9401 17.3218 30.9918 17.2725 30.9922 17.2109C30.9928 17.149 30.9409 17.0984 30.8789 17.0977C30.8763 17.0976 30.8749 17.0976 30.8711 17.0977ZM30.8711 17.6602C30.8121 17.6637 30.768 17.7129 30.7676 17.7715C30.767 17.8342 30.8162 17.8851 30.8789 17.8848C30.9409 17.8843 30.9929 17.8335 30.9922 17.7715C30.9917 17.7103 30.9401 17.6602 30.8789 17.6602C30.8763 17.6601 30.8749 17.6601 30.8711 17.6602ZM30.8711 18.2227C30.8121 18.2262 30.768 18.275 30.7676 18.334C30.767 18.3967 30.8162 18.4476 30.8789 18.4473C30.9409 18.4468 30.9929 18.396 30.9922 18.334C30.9917 18.2728 30.9401 18.2227 30.8789 18.2227C30.8763 18.2225 30.8749 18.2225 30.8711 18.2227ZM30.8711 18.7852C30.8121 18.7887 30.768 18.8379 30.7676 18.8965C30.767 18.9592 30.8162 19.0101 30.8789 19.0098C30.9409 19.0093 30.9929 18.9585 30.9922 18.8965C30.9917 18.8353 30.9401 18.7855 30.8789 18.7852C30.8763 18.785 30.8749 18.785 30.8711 18.7852ZM19.7207 19.3047V19.3066C19.4785 19.31 19.2377 19.4075 19.0547 19.5957L17.2461 21.4531C16.88 21.8292 16.8872 22.4268 17.2637 22.793C17.6399 23.1592 18.2374 23.1487 18.6035 22.7734L20.4121 20.9141C20.7782 20.5376 20.771 19.9403 20.3945 19.5742C20.2064 19.3913 19.9629 19.3013 19.7207 19.3047ZM30.8613 19.3477C30.8069 19.3552 30.7672 19.4038 30.7676 19.459C30.767 19.5217 30.8162 19.5726 30.8789 19.5723C30.9409 19.5718 30.9929 19.521 30.9922 19.459C30.9917 19.3978 30.9401 19.3484 30.8789 19.3477C30.8713 19.3471 30.8709 19.3471 30.8633 19.3477H30.8613ZM30.8809 19.9082C30.8181 19.9076 30.7672 19.9587 30.7676 20.0215C30.7681 20.0835 30.8185 20.1339 30.8809 20.1328C30.9421 20.1324 30.9914 20.0827 30.9922 20.0215C30.9928 19.9595 30.9432 19.909 30.8809 19.9082ZM30.8711 20.4707C30.8114 20.4743 30.7668 20.5239 30.7676 20.584C30.7681 20.646 30.8165 20.6961 30.8789 20.6953C30.9401 20.6948 30.9918 20.6452 30.9922 20.584C30.9928 20.522 30.9409 20.4711 30.8789 20.4707C30.8763 20.4706 30.8749 20.4706 30.8711 20.4707ZM30.8711 21.0332C30.8114 21.0368 30.7668 21.0864 30.7676 21.1465C30.7681 21.2085 30.8165 21.2582 30.8789 21.2578C30.9401 21.2573 30.9918 21.2081 30.9922 21.1465C30.9928 21.0845 30.9409 21.034 30.8789 21.0332C30.8763 21.0331 30.8749 21.0331 30.8711 21.0332ZM30.8711 21.5957C30.8114 21.5993 30.7668 21.6489 30.7676 21.709C30.7681 21.771 30.8165 21.8207 30.8789 21.8203C30.9401 21.8198 30.9918 21.7706 30.9922 21.709C30.9928 21.647 30.9409 21.5965 30.8789 21.5957C30.8763 21.5956 30.8749 21.5956 30.8711 21.5957ZM25.2891 21.9551V21.957C25.0469 21.9604 24.8061 22.0579 24.623 22.2461L22.8145 24.1035C22.4483 24.4796 22.4556 25.0772 22.832 25.4434C23.2083 25.8096 23.8058 25.8014 24.1719 25.4238L25.9805 23.5645C26.3466 23.188 26.3393 22.5907 25.9629 22.2246C25.7747 22.0417 25.5313 21.9517 25.2891 21.9551ZM30.8711 22.1582C30.8121 22.1618 30.768 22.2109 30.7676 22.2695C30.767 22.3323 30.8162 22.3832 30.8789 22.3828C30.9409 22.3823 30.9929 22.3315 30.9922 22.2695C30.9917 22.2083 30.9401 22.1586 30.8789 22.1582C30.8763 22.1581 30.8749 22.1581 30.8711 22.1582ZM30.8711 22.7207C30.8121 22.7243 30.768 22.7731 30.7676 22.832C30.767 22.8948 30.8162 22.9457 30.8789 22.9453C30.9409 22.9448 30.9929 22.894 30.9922 22.832C30.9917 22.7708 30.9401 22.7207 30.8789 22.7207C30.8763 22.7206 30.8749 22.7206 30.8711 22.7207ZM30.8711 23.2832C30.8121 23.2868 30.768 23.3352 30.7676 23.3945C30.767 23.4573 30.8162 23.5082 30.8789 23.5078C30.9409 23.5073 30.9929 23.4565 30.9922 23.3945C30.9917 23.3333 30.9401 23.284 30.8789 23.2832C30.8763 23.2831 30.8749 23.2831 30.8711 23.2832ZM30.8613 23.8457C30.8069 23.8533 30.7672 23.9018 30.7676 23.957C30.767 24.0198 30.8162 24.0707 30.8789 24.0703C30.9409 24.0698 30.9929 24.019 30.9922 23.957C30.9917 23.8958 30.9401 23.8465 30.8789 23.8457C30.8713 23.8451 30.8709 23.8451 30.8633 23.8457H30.8613ZM30.8613 24.4082C30.8069 24.4158 30.7672 24.4643 30.7676 24.5195C30.7681 24.5815 30.8165 24.632 30.8789 24.6309C30.9401 24.6304 30.9918 24.5808 30.9922 24.5195C30.9917 24.4583 30.9401 24.409 30.8789 24.4082C30.8713 24.4076 30.8709 24.4076 30.8633 24.4082H30.8613ZM19.7207 24.5625V24.5644C19.4785 24.5678 19.2377 24.6653 19.0547 24.8535L17.2461 26.7109C16.88 27.087 16.8872 27.6847 17.2637 28.0508C17.6399 28.417 18.2374 28.4088 18.6035 28.0312L20.4121 26.1719C20.7782 25.7954 20.771 25.1982 20.3945 24.832C20.2064 24.6491 19.9629 24.5591 19.7207 24.5625ZM30.8711 24.9687C30.8114 24.9723 30.7668 25.0219 30.7676 25.082C30.7681 25.144 30.8165 25.1937 30.8789 25.1934C30.9401 25.1929 30.9918 25.1436 30.9922 25.082C30.9928 25.02 30.9409 24.9695 30.8789 24.9687C30.8763 24.9687 30.8749 24.9687 30.8711 24.9687ZM30.8711 25.5312C30.8114 25.5348 30.7668 25.5844 30.7676 25.6445C30.7681 25.7065 30.8165 25.7562 30.8789 25.7559C30.9401 25.7554 30.9918 25.7061 30.9922 25.6445C30.9928 25.5825 30.9409 25.532 30.8789 25.5312C30.8763 25.5312 30.8749 25.5312 30.8711 25.5312ZM30.8711 26.0937C30.8114 26.0973 30.7668 26.1469 30.7676 26.207C30.7681 26.269 30.8165 26.3187 30.8789 26.3184C30.9401 26.3179 30.9918 26.2686 30.9922 26.207C30.9928 26.145 30.9409 26.0945 30.8789 26.0937C30.8763 26.0936 30.8749 26.0936 30.8711 26.0937ZM30.8711 26.6562C30.8121 26.6598 30.768 26.7086 30.7676 26.7676C30.767 26.8303 30.8162 26.8812 30.8789 26.8809C30.9409 26.8804 30.9929 26.8296 30.9922 26.7676C30.9917 26.7063 30.9401 26.657 30.8789 26.6562C30.8763 26.6561 30.8749 26.6561 30.8711 26.6562ZM25.2891 27.1699V27.1719C25.0469 27.1752 24.8061 27.2727 24.623 27.4609L22.8145 29.3184C22.4483 29.6944 22.4556 30.2921 22.832 30.6582C23.2083 31.0244 23.8058 31.0159 24.1719 30.6387L25.9805 28.7793C26.3466 28.4029 26.3393 27.8056 25.9629 27.4394C25.7747 27.2565 25.5313 27.1665 25.2891 27.1699ZM30.8711 27.2187C30.8121 27.2224 30.766 27.2707 30.7656 27.3301C30.765 27.3928 30.8162 27.4437 30.8789 27.4434C30.9409 27.4429 30.991 27.3921 30.9902 27.3301C30.9898 27.2688 30.9401 27.2195 30.8789 27.2187C30.8763 27.2187 30.8749 27.2187 30.8711 27.2187ZM30.8711 27.7812C30.8121 27.7848 30.766 27.8332 30.7656 27.8926C30.765 27.9553 30.8162 28.0062 30.8789 28.0059C30.9409 28.0054 30.991 27.9546 30.9902 27.8926C30.9898 27.8313 30.9401 27.782 30.8789 27.7812C30.8763 27.7812 30.8749 27.7812 30.8711 27.7812ZM30.8594 28.3437C30.8049 28.3513 30.7652 28.3999 30.7656 28.4551C30.7661 28.5171 30.8165 28.5675 30.8789 28.5664C30.9401 28.5659 30.9899 28.5159 30.9902 28.4551C30.9898 28.3938 30.9401 28.3445 30.8789 28.3437C30.8713 28.3432 30.8689 28.3432 30.8613 28.3437H30.8594ZM30.8789 28.9043C30.8162 28.9037 30.7652 28.9548 30.7656 29.0176C30.7661 29.0796 30.8165 29.1293 30.8789 29.1289C30.9401 29.1284 30.9895 29.0792 30.9902 29.0176C30.9908 28.9556 30.9413 28.9051 30.8789 28.9043ZM30.8711 29.4668C30.8114 29.4704 30.7649 29.52 30.7656 29.5801C30.7661 29.6421 30.8165 29.6918 30.8789 29.6914C30.9401 29.6909 30.9899 29.6417 30.9902 29.5801C30.9908 29.5181 30.9409 29.4676 30.8789 29.4668C30.8763 29.4667 30.8749 29.4667 30.8711 29.4668ZM19.7207 29.8223V29.8242C19.4785 29.8275 19.2377 29.9251 19.0547 30.1133L17.2461 31.9707C16.88 32.3468 16.8872 32.9444 17.2637 33.3105C17.6399 33.6768 18.2374 33.6663 18.6035 33.291L20.4121 31.4316C20.7782 31.0552 20.771 30.4579 20.3945 30.0918C20.2064 29.9089 19.9629 29.8189 19.7207 29.8223ZM30.8711 30.0293C30.8114 30.0329 30.7649 30.0825 30.7656 30.1426C30.7661 30.2046 30.8165 30.2543 30.8789 30.2539C30.9401 30.2534 30.9899 30.2042 30.9902 30.1426C30.9908 30.0806 30.9409 30.03 30.8789 30.0293C30.8763 30.0292 30.8749 30.0292 30.8711 30.0293ZM30.8711 30.5918C30.8114 30.5954 30.7649 30.645 30.7656 30.7051C30.7661 30.7671 30.8165 30.8175 30.8789 30.8164C30.9401 30.8159 30.9899 30.7663 30.9902 30.7051C30.9908 30.6431 30.9409 30.5925 30.8789 30.5918C30.8763 30.5917 30.8749 30.5917 30.8711 30.5918ZM30.8711 31.1543C30.8121 31.1579 30.766 31.2063 30.7656 31.2656C30.765 31.3284 30.8162 31.3793 30.8789 31.3789C30.9409 31.3784 30.991 31.3276 30.9902 31.2656C30.9898 31.2044 30.9401 31.155 30.8789 31.1543C30.8763 31.1542 30.8749 31.1542 30.8711 31.1543ZM30.8711 31.7168C30.8121 31.7204 30.766 31.7688 30.7656 31.8281C30.765 31.8909 30.8162 31.9418 30.8789 31.9414C30.9409 31.9409 30.991 31.8901 30.9902 31.8281C30.9898 31.7669 30.9401 31.7175 30.8789 31.7168C30.8763 31.7167 30.8749 31.7167 30.8711 31.7168ZM30.8594 32.2793C30.8049 32.2869 30.7652 32.3354 30.7656 32.3906C30.765 32.4534 30.8162 32.5043 30.8789 32.5039C30.9409 32.5034 30.991 32.4526 30.9902 32.3906C30.9898 32.3294 30.9401 32.28 30.8789 32.2793C30.8713 32.2787 30.8689 32.2787 30.8613 32.2793H30.8594ZM25.2891 32.3848V32.3867C25.0469 32.39 24.8061 32.4876 24.623 32.6758L22.8145 34.5332C22.4483 34.9093 22.4556 35.5069 22.832 35.873C23.2083 36.2393 23.8058 36.2311 24.1719 35.8535L25.9805 33.9941C26.3466 33.6177 26.3393 33.0204 25.9629 32.6543C25.7747 32.4714 25.5313 32.3814 25.2891 32.3848ZM30.8594 32.8418C30.8049 32.8494 30.7652 32.8983 30.7656 32.9531C30.7661 33.0151 30.8165 33.0648 30.8789 33.0644C30.9401 33.064 30.9899 33.0147 30.9902 32.9531C30.9898 32.8919 30.9401 32.8422 30.8789 32.8418C30.8713 32.8412 30.8689 32.8412 30.8613 32.8418H30.8594ZM30.8789 33.4023C30.8162 33.4017 30.7652 33.4529 30.7656 33.5156C30.7661 33.5776 30.8165 33.6273 30.8789 33.6269C30.9401 33.6265 30.9895 33.5772 30.9902 33.5156C30.9908 33.4536 30.9413 33.4031 30.8789 33.4023ZM30.8711 33.9648C30.8114 33.9684 30.7649 34.018 30.7656 34.0781C30.7661 34.1401 30.8165 34.1898 30.8789 34.1895C30.9401 34.189 30.9899 34.1397 30.9902 34.0781C30.9908 34.0161 30.9409 33.9656 30.8789 33.9648C30.8763 33.9648 30.8749 33.9648 30.8711 33.9648ZM30.8711 34.5273C30.8114 34.5309 30.7649 34.5805 30.7656 34.6406C30.7661 34.7026 30.8165 34.7523 30.8789 34.7519C30.9401 34.7515 30.9899 34.7022 30.9902 34.6406C30.9908 34.5786 30.9409 34.5281 30.8789 34.5273C30.8763 34.5272 30.8749 34.5272 30.8711 34.5273ZM19.7207 35.084C19.4785 35.0873 19.2377 35.1848 19.0547 35.373L17.2461 37.2305C16.88 37.6065 16.8872 38.2042 17.2637 38.5703C17.6399 38.9365 18.2374 38.928 18.6035 38.5527L20.4121 36.6934C20.7782 36.3169 20.771 35.7196 20.3945 35.3535C20.2064 35.1706 19.9629 35.0806 19.7207 35.084ZM30.8711 35.0898C30.8121 35.0935 30.766 35.1418 30.7656 35.2012C30.765 35.2639 30.8162 35.3148 30.8789 35.3145C30.9409 35.314 30.991 35.2632 30.9902 35.2012C30.9898 35.1399 30.9401 35.0906 30.8789 35.0898C30.8763 35.0897 30.8749 35.0897 30.8711 35.0898ZM30.8711 35.6523C30.8121 35.6559 30.766 35.7043 30.7656 35.7637C30.765 35.8264 30.8162 35.8773 30.8789 35.8769C30.9409 35.8765 30.991 35.8256 30.9902 35.7637C30.9898 35.7024 30.9401 35.6531 30.8789 35.6523C30.8763 35.6523 30.8749 35.6523 30.8711 35.6523ZM30.8711 36.2148C30.8121 36.2184 30.766 36.2668 30.7656 36.3262C30.765 36.3889 30.8162 36.4398 30.8789 36.4395C30.9409 36.439 30.991 36.3882 30.9902 36.3262C30.9898 36.2649 30.9401 36.2156 30.8789 36.2148C30.8763 36.2148 30.8749 36.2148 30.8711 36.2148ZM30.8711 36.7773C30.8121 36.7809 30.766 36.8293 30.7656 36.8887C30.765 36.9514 30.8162 37.0023 30.8789 37.0019C30.9409 37.0015 30.991 36.9506 30.9902 36.8887C30.9898 36.8274 30.9401 36.7781 30.8789 36.7773C30.8763 36.7773 30.8749 36.7773 30.8711 36.7773ZM30.8594 37.3398C30.8049 37.3474 30.7652 37.3964 30.7656 37.4512C30.7661 37.5132 30.8165 37.5633 30.8789 37.5625C30.9401 37.562 30.9899 37.5124 30.9902 37.4512C30.9898 37.3899 30.9401 37.3406 30.8789 37.3398C30.8713 37.3393 30.8689 37.3393 30.8613 37.3398H30.8594ZM30.8711 37.9004C30.8114 37.904 30.7649 37.9536 30.7656 38.0137C30.7661 38.0757 30.8165 38.1254 30.8789 38.125C30.9401 38.1245 30.9899 38.0753 30.9902 38.0137C30.9908 37.9517 30.9409 37.9011 30.8789 37.9004C30.8763 37.9003 30.8749 37.9003 30.8711 37.9004ZM23.7539 37.9941V37.9961C23.5117 37.9994 23.271 38.0969 23.0879 38.2852L21.2793 40.1426C20.9132 40.5186 20.9204 41.1163 21.2969 41.4824C21.6731 41.8487 22.2706 41.8397 22.6367 41.4629L24.4453 39.6035C24.8114 39.2271 24.8042 38.6298 24.4277 38.2637C24.2396 38.0807 23.9961 37.9907 23.7539 37.9941ZM30.8711 38.4629C30.8114 38.4665 30.7649 38.5161 30.7656 38.5762C30.7661 38.6382 30.8165 38.6879 30.8789 38.6875C30.9401 38.687 30.9899 38.6378 30.9902 38.5762C30.9908 38.5142 30.9409 38.4636 30.8789 38.4629C30.8763 38.4628 30.8749 38.4628 30.8711 38.4629ZM30.8711 39.0254C30.8114 39.029 30.7649 39.0786 30.7656 39.1387C30.7661 39.2007 30.8165 39.2508 30.8789 39.25C30.9401 39.2495 30.9899 39.2003 30.9902 39.1387C30.9908 39.0767 30.9409 39.0261 30.8789 39.0254C30.8763 39.0253 30.8749 39.0253 30.8711 39.0254ZM30.8711 39.5879C30.8121 39.5915 30.766 39.6399 30.7656 39.6992C30.765 39.762 30.8162 39.8129 30.8789 39.8125C30.9409 39.812 30.991 39.7612 30.9902 39.6992C30.9898 39.638 30.9401 39.5886 30.8789 39.5879C30.8763 39.5878 30.8749 39.5878 30.8711 39.5879ZM30.8711 40.1504C30.8121 40.154 30.766 40.2024 30.7656 40.2617C30.765 40.3245 30.8162 40.3754 30.8789 40.375C30.9409 40.3745 30.991 40.3237 30.9902 40.2617C30.9898 40.2005 30.9401 40.1511 30.8789 40.1504C30.8763 40.1503 30.8749 40.1503 30.8711 40.1504ZM30.8711 40.7129C30.8121 40.7165 30.766 40.7653 30.7656 40.8242C30.765 40.887 30.8162 40.9379 30.8789 40.9375C30.9409 40.937 30.991 40.8862 30.9902 40.8242C30.9898 40.763 30.9401 40.7136 30.8789 40.7129C30.8763 40.7128 30.8749 40.7128 30.8711 40.7129ZM30.8594 41.2754C30.8049 41.2829 30.7652 41.3315 30.7656 41.3867C30.765 41.4495 30.8162 41.5004 30.8789 41.5C30.9409 41.4995 30.991 41.4487 30.9902 41.3867C30.9898 41.3255 30.9401 41.2758 30.8789 41.2754C30.8713 41.2748 30.8689 41.2748 30.8613 41.2754H30.8594ZM30.8594 41.8379C30.8049 41.8454 30.7652 41.894 30.7656 41.9492C30.7661 42.0112 30.8165 42.0609 30.8789 42.0605C30.9401 42.0601 30.9899 42.0108 30.9902 41.9492C30.9898 41.888 30.9401 41.8386 30.8789 41.8379C30.8713 41.8373 30.8689 41.8373 30.8613 41.8379H30.8594ZM30.8789 42.3984C30.8162 42.3978 30.7652 42.449 30.7656 42.5117C30.7661 42.5737 30.8165 42.6234 30.8789 42.623C30.9401 42.6226 30.9895 42.5733 30.9902 42.5117C30.9908 42.4497 30.9413 42.3992 30.8789 42.3984ZM30.8711 42.9609C30.8114 42.9646 30.7649 43.0141 30.7656 43.0742C30.7661 43.1362 30.8165 43.1859 30.8789 43.1855C30.9401 43.1851 30.9899 43.1358 30.9902 43.0742C30.9908 43.0122 30.9409 42.9617 30.8789 42.9609C30.8763 42.9608 30.8749 42.9608 30.8711 42.9609Z" fill="#333333"/>
</g>
<defs>
<clipPath id="clip0">
<rect width="48" height="48" fill="white"/>
</clipPath>
</defs>
</svg>
