<svg width="48" height="48" viewBox="0 0 48 48" fill="none" xmlns="http://www.w3.org/2000/svg">
<path d="M14.346 4.09402C13.476 4.09402 12.777 4.79302 12.777 5.66202V42.523C12.777 43.393 13.477 44.093 14.346 44.093H34.05C34.92 44.093 35.618 43.393 35.618 42.523V5.66302C35.618 4.79302 34.919 4.09302 34.05 4.09302H14.346V4.09402ZM19.088 9.21402C19.2126 9.21236 19.3363 9.23537 19.4519 9.2817C19.5676 9.32804 19.673 9.3968 19.762 9.48402C19.8517 9.57044 19.9234 9.67374 19.973 9.78797C20.0226 9.90221 20.0491 10.0251 20.0511 10.1497C20.053 10.2742 20.0304 10.3979 19.9844 10.5136C19.9383 10.6293 19.8699 10.7348 19.783 10.824L17.975 12.684C17.8886 12.7739 17.7853 12.8457 17.671 12.8954C17.5568 12.9451 17.4338 12.9716 17.3091 12.9735C17.1845 12.9753 17.0608 12.9525 16.9451 12.9062C16.8294 12.86 16.724 12.7912 16.635 12.704C16.5452 12.6177 16.4734 12.5144 16.4237 12.4002C16.374 12.286 16.3474 12.1631 16.3454 12.0386C16.3433 11.9141 16.3659 11.7904 16.4118 11.6746C16.4578 11.5588 16.5261 11.4533 16.613 11.364L18.422 9.50602C18.5084 9.41614 18.6117 9.34424 18.726 9.29447C18.8403 9.2447 18.9633 9.21803 19.088 9.21602V9.21502V9.21402ZM23.088 9.21402C23.2126 9.21236 23.3363 9.23537 23.4519 9.2817C23.5676 9.32804 23.673 9.3968 23.762 9.48402C23.8517 9.57044 23.9234 9.67374 23.973 9.78797C24.0226 9.90221 24.0491 10.0251 24.0511 10.1497C24.053 10.2742 24.0304 10.3979 23.9844 10.5136C23.9383 10.6293 23.8699 10.7348 23.783 10.824L21.975 12.684C21.8886 12.7739 21.7853 12.8457 21.671 12.8954C21.5568 12.9451 21.4338 12.9716 21.3091 12.9735C21.1845 12.9753 21.0608 12.9525 20.9451 12.9062C20.8294 12.86 20.724 12.7912 20.635 12.704C20.5452 12.6177 20.4734 12.5144 20.4237 12.4002C20.374 12.286 20.3474 12.1631 20.3454 12.0386C20.3433 11.9141 20.3659 11.7904 20.4118 11.6746C20.4578 11.5588 20.5261 11.4533 20.613 11.364L22.422 9.50602C22.5084 9.41614 22.6117 9.34424 22.726 9.29447C22.8403 9.2447 22.9633 9.21803 23.088 9.21602V9.21502V9.21402ZM27.088 9.21402C27.2126 9.21236 27.3363 9.23537 27.4519 9.2817C27.5676 9.32804 27.673 9.3968 27.762 9.48402C27.8517 9.57044 27.9234 9.67374 27.973 9.78797C28.0226 9.90221 28.0491 10.0251 28.0511 10.1497C28.053 10.2742 28.0304 10.3979 27.9844 10.5136C27.9383 10.6293 27.8699 10.7348 27.783 10.824L25.975 12.684C25.8886 12.7739 25.7853 12.8457 25.671 12.8954C25.5568 12.9451 25.4338 12.9716 25.3091 12.9735C25.1845 12.9753 25.0608 12.9525 24.9451 12.9062C24.8294 12.86 24.724 12.7912 24.635 12.704C24.5452 12.6177 24.4734 12.5144 24.4237 12.4002C24.374 12.286 24.3474 12.1631 24.3454 12.0386C24.3433 11.9141 24.3659 11.7904 24.4118 11.6746C24.4578 11.5588 24.5261 11.4533 24.613 11.364L26.422 9.50602C26.5084 9.41614 26.6117 9.34424 26.726 9.29447C26.8403 9.2447 26.9633 9.21803 27.088 9.21602V9.21502V9.21402ZM31.088 9.21402C31.2126 9.21236 31.3363 9.23537 31.4519 9.2817C31.5676 9.32804 31.673 9.3968 31.762 9.48402C31.8517 9.57044 31.9234 9.67374 31.973 9.78797C32.0226 9.90221 32.0491 10.0251 32.0511 10.1497C32.053 10.2742 32.0304 10.3979 31.9844 10.5136C31.9383 10.6293 31.8699 10.7348 31.783 10.824L29.975 12.684C29.8886 12.7739 29.7853 12.8457 29.671 12.8954C29.5568 12.9451 29.4338 12.9716 29.3091 12.9735C29.1845 12.9753 29.0608 12.9525 28.9451 12.9062C28.8294 12.86 28.724 12.7912 28.635 12.704C28.5452 12.6177 28.4734 12.5144 28.4237 12.4002C28.374 12.286 28.3474 12.1631 28.3454 12.0386C28.3433 11.9141 28.3659 11.7904 28.4118 11.6746C28.4578 11.5588 28.5261 11.4533 28.613 11.364L30.422 9.50602C30.5084 9.41614 30.6117 9.34424 30.726 9.29447C30.8403 9.2447 30.9633 9.21803 31.088 9.21602V9.21502V9.21402ZM13.795 14.98C13.8232 14.9827 13.8495 14.9958 13.8686 15.0168C13.8877 15.0378 13.8983 15.0651 13.8983 15.0935C13.8983 15.1219 13.8877 15.1493 13.8686 15.1703C13.8495 15.1913 13.8232 15.2044 13.795 15.207C13.7654 15.2062 13.7374 15.194 13.7166 15.1729C13.6959 15.1519 13.6842 15.1236 13.684 15.094C13.684 15.031 13.733 14.981 13.794 14.98H13.795ZM14.357 14.98C14.3839 14.9792 14.4102 14.9884 14.4309 15.0057C14.4515 15.023 14.4651 15.0473 14.469 15.074V15.094C14.468 15.155 14.419 15.207 14.357 15.207C14.3272 15.2065 14.2987 15.1944 14.2776 15.1734C14.2566 15.1523 14.2445 15.1238 14.244 15.094C14.244 15.031 14.295 14.981 14.357 14.98ZM14.92 14.98C14.9468 14.9795 14.9728 14.9887 14.9932 15.0061C15.0137 15.0234 15.0271 15.0475 15.031 15.074V15.094C15.031 15.155 14.981 15.207 14.92 15.207C14.8901 15.2068 14.8615 15.1948 14.8404 15.1736C14.8192 15.1525 14.8072 15.1239 14.807 15.094C14.807 15.031 14.857 14.98 14.92 14.98ZM15.482 14.98C15.542 14.98 15.59 15.027 15.594 15.086V15.094C15.593 15.155 15.544 15.207 15.482 15.207C15.4521 15.2068 15.4235 15.1948 15.4024 15.1736C15.3812 15.1525 15.3692 15.1239 15.369 15.094C15.369 15.031 15.419 14.98 15.482 14.98ZM16.045 14.98C16.105 14.98 16.153 15.027 16.156 15.086V15.094C16.156 15.155 16.106 15.207 16.045 15.207C16.0151 15.2068 15.9865 15.1948 15.9654 15.1736C15.9442 15.1525 15.9322 15.1239 15.932 15.094C15.932 15.031 15.982 14.98 16.045 14.98ZM16.607 14.98C16.667 14.98 16.715 15.027 16.719 15.086V15.094C16.718 15.155 16.669 15.207 16.607 15.207C16.5771 15.2068 16.5485 15.1948 16.5274 15.1736C16.5062 15.1525 16.4942 15.1239 16.494 15.094C16.494 15.031 16.544 14.98 16.607 14.98ZM17.168 14.98C17.228 14.98 17.278 15.026 17.281 15.086V15.094C17.2807 15.1239 17.2687 15.1525 17.2476 15.1736C17.2265 15.1948 17.1979 15.2068 17.168 15.207C17.1384 15.2062 17.1104 15.194 17.0896 15.1729C17.0689 15.1519 17.0572 15.1236 17.057 15.094C17.057 15.031 17.106 14.981 17.168 14.98ZM17.731 14.98C17.791 14.98 17.841 15.026 17.844 15.086V15.094C17.8437 15.1241 17.8316 15.1528 17.8102 15.174C17.7889 15.1951 17.76 15.207 17.73 15.207C17.7006 15.206 17.6728 15.1937 17.6523 15.1726C17.6318 15.1516 17.6202 15.1234 17.62 15.094C17.619 15.031 17.669 14.981 17.73 14.98H17.731ZM18.293 14.98C18.353 14.98 18.403 15.026 18.406 15.086V15.094C18.4057 15.1239 18.3937 15.1525 18.3726 15.1736C18.3515 15.1948 18.3229 15.2068 18.293 15.207C18.2634 15.2062 18.2354 15.194 18.2146 15.1729C18.1939 15.1519 18.1822 15.1236 18.182 15.094C18.182 15.031 18.231 14.981 18.293 14.98ZM18.856 14.98C18.8826 14.9797 18.9084 14.9891 18.9286 15.0064C18.9488 15.0237 18.9621 15.0477 18.966 15.074V15.094C18.966 15.155 18.916 15.207 18.856 15.207C18.8263 15.2065 18.7979 15.1944 18.777 15.1733C18.7561 15.1522 18.7442 15.1237 18.744 15.094C18.744 15.031 18.794 14.981 18.855 14.98H18.856ZM19.418 14.98C19.478 14.98 19.526 15.027 19.529 15.086V15.094C19.529 15.155 19.479 15.207 19.418 15.207C19.3881 15.2068 19.3595 15.1948 19.3384 15.1736C19.3172 15.1525 19.3052 15.1239 19.305 15.094C19.305 15.031 19.355 14.98 19.418 14.98ZM19.981 14.98C20.04 14.98 20.088 15.027 20.091 15.086V15.094C20.091 15.155 20.041 15.207 19.981 15.207C19.9509 15.207 19.9221 15.1951 19.9007 15.174C19.8794 15.1528 19.8672 15.1241 19.867 15.094C19.867 15.031 19.917 14.98 19.98 14.98H19.981ZM20.543 14.98C20.603 14.98 20.651 15.027 20.654 15.086V15.094C20.654 15.155 20.604 15.207 20.543 15.207C20.5131 15.2068 20.4845 15.1948 20.4634 15.1736C20.4422 15.1525 20.4302 15.1239 20.43 15.094C20.43 15.031 20.48 14.98 20.543 14.98ZM21.106 14.98C21.165 14.98 21.213 15.027 21.216 15.086V15.094C21.216 15.155 21.166 15.207 21.106 15.207C21.0759 15.207 21.0471 15.1951 21.0257 15.174C21.0044 15.1528 20.9922 15.1241 20.992 15.094C20.992 15.031 21.042 14.98 21.105 14.98H21.106ZM21.666 14.98C21.726 14.98 21.776 15.026 21.779 15.086V15.094C21.7787 15.1239 21.7667 15.1525 21.7456 15.1736C21.7245 15.1948 21.6959 15.2068 21.666 15.207C21.6364 15.2062 21.6084 15.194 21.5876 15.1729C21.5669 15.1519 21.5552 15.1236 21.555 15.094C21.555 15.031 21.604 14.981 21.666 14.98ZM22.229 14.98C22.289 14.98 22.339 15.026 22.342 15.086V15.094C22.3417 15.1239 22.3297 15.1525 22.3086 15.1736C22.2875 15.1948 22.2589 15.2068 22.229 15.207C22.1993 15.2065 22.1709 15.1944 22.15 15.1733C22.1291 15.1522 22.1172 15.1237 22.117 15.094C22.117 15.031 22.167 14.981 22.228 14.98H22.229ZM22.791 14.98C22.8192 14.9827 22.8455 14.9958 22.8646 15.0168C22.8837 15.0378 22.8943 15.0651 22.8943 15.0935C22.8943 15.1219 22.8837 15.1493 22.8646 15.1703C22.8455 15.1913 22.8192 15.2044 22.791 15.207C22.7614 15.2062 22.7334 15.194 22.7126 15.1729C22.6919 15.1519 22.6802 15.1236 22.68 15.094C22.68 15.031 22.729 14.981 22.791 14.98ZM23.354 14.98C23.408 14.98 23.457 15.02 23.464 15.074V15.094C23.464 15.155 23.414 15.207 23.354 15.207C23.3243 15.2065 23.2959 15.1944 23.275 15.1733C23.2541 15.1522 23.2422 15.1237 23.242 15.094C23.242 15.031 23.292 14.981 23.353 14.98H23.354ZM23.916 14.98C23.9428 14.9795 23.9688 14.9887 23.9892 15.0061C24.0097 15.0234 24.0231 15.0475 24.027 15.074V15.094C24.027 15.155 23.977 15.207 23.916 15.207C23.8861 15.2068 23.8575 15.1948 23.8364 15.1736C23.8152 15.1525 23.8032 15.1239 23.803 15.094C23.803 15.031 23.853 14.98 23.916 14.98ZM24.479 14.98C24.538 14.98 24.586 15.027 24.589 15.086V15.094C24.589 15.155 24.539 15.207 24.479 15.207C24.4489 15.207 24.4201 15.1951 24.3987 15.174C24.3774 15.1528 24.3652 15.1241 24.365 15.094C24.365 15.031 24.415 14.98 24.479 14.98ZM25.041 14.98C25.101 14.98 25.149 15.027 25.152 15.086V15.094C25.152 15.155 25.102 15.207 25.041 15.207C25.0111 15.2068 24.9825 15.1948 24.9614 15.1736C24.9402 15.1525 24.9282 15.1239 24.928 15.094C24.928 15.031 24.978 14.98 25.041 14.98ZM25.601 14.98C25.661 14.98 25.711 15.026 25.715 15.086V15.094C25.7147 15.1239 25.7027 15.1525 25.6816 15.1736C25.6605 15.1948 25.6319 15.2068 25.602 15.207C25.5723 15.2065 25.5439 15.1944 25.523 15.1733C25.5021 15.1522 25.4902 15.1237 25.49 15.094C25.49 15.031 25.54 14.981 25.602 14.98H25.601ZM26.164 14.98C26.224 14.98 26.274 15.026 26.277 15.086V15.094C26.2767 15.1239 26.2647 15.1525 26.2436 15.1736C26.2225 15.1948 26.1939 15.2068 26.164 15.207C26.1344 15.2062 26.1064 15.194 26.0856 15.1729C26.0649 15.1519 26.0532 15.1236 26.053 15.094C26.053 15.031 26.103 14.981 26.164 14.98ZM26.727 14.98C26.787 14.98 26.837 15.026 26.84 15.086V15.094C26.8397 15.1239 26.8277 15.1525 26.8066 15.1736C26.7855 15.1948 26.7569 15.2068 26.727 15.207C26.6973 15.2065 26.6689 15.1944 26.648 15.1733C26.6271 15.1522 26.6152 15.1237 26.615 15.094C26.615 15.031 26.665 14.981 26.727 14.98ZM27.289 14.98C27.3172 14.9827 27.3435 14.9958 27.3626 15.0168C27.3817 15.0378 27.3923 15.0651 27.3923 15.0935C27.3923 15.1219 27.3817 15.1493 27.3626 15.1703C27.3435 15.1913 27.3172 15.2044 27.289 15.207C27.2594 15.2062 27.2314 15.194 27.2106 15.1729C27.1899 15.1519 27.1782 15.1236 27.178 15.094C27.178 15.031 27.228 14.981 27.289 14.98ZM27.852 14.98C27.8786 14.9797 27.9044 14.9891 27.9246 15.0064C27.9448 15.0237 27.9581 15.0477 27.962 15.074C27.964 15.082 27.964 15.086 27.962 15.094C27.962 15.155 27.912 15.207 27.852 15.207C27.8223 15.2065 27.7939 15.1944 27.773 15.1733C27.7521 15.1522 27.7402 15.1237 27.74 15.094C27.74 15.031 27.79 14.981 27.852 14.98ZM28.414 14.98C28.474 14.98 28.522 15.027 28.525 15.086V15.094C28.525 15.155 28.475 15.207 28.415 15.207C28.3849 15.207 28.3561 15.1951 28.3347 15.174C28.3134 15.1528 28.3012 15.1241 28.301 15.094C28.301 15.031 28.351 14.98 28.414 14.98ZM28.977 14.98C29.036 14.98 29.084 15.027 29.087 15.086V15.094C29.087 15.155 29.037 15.207 28.977 15.207C28.9469 15.207 28.9181 15.1951 28.8967 15.174C28.8754 15.1528 28.8632 15.1241 28.863 15.094C28.863 15.031 28.913 14.98 28.977 14.98ZM29.539 14.98C29.599 14.98 29.647 15.027 29.65 15.086V15.094C29.65 15.155 29.6 15.207 29.54 15.207C29.5099 15.207 29.4811 15.1951 29.4597 15.174C29.4384 15.1528 29.4262 15.1241 29.426 15.094C29.426 15.031 29.476 14.98 29.539 14.98ZM30.099 14.98C30.159 14.98 30.209 15.026 30.213 15.086V15.094C30.2127 15.1239 30.2007 15.1525 30.1796 15.1736C30.1585 15.1948 30.1299 15.2068 30.1 15.207C30.0703 15.2065 30.0419 15.1944 30.021 15.1733C30.0001 15.1522 29.9882 15.1237 29.988 15.094C29.988 15.031 30.038 14.981 30.1 14.98H30.099ZM30.662 14.98C30.722 14.98 30.772 15.026 30.775 15.086V15.094C30.7747 15.1239 30.7627 15.1525 30.7416 15.1736C30.7205 15.1948 30.6919 15.2068 30.662 15.207C30.6324 15.2062 30.6044 15.194 30.5836 15.1729C30.5629 15.1519 30.5512 15.1236 30.551 15.094C30.551 15.031 30.601 14.981 30.662 14.98ZM31.225 14.98C31.285 14.98 31.335 15.026 31.338 15.086V15.094C31.3377 15.1239 31.3257 15.1525 31.3046 15.1736C31.2835 15.1948 31.2549 15.2068 31.225 15.207C31.1953 15.2065 31.1669 15.1944 31.146 15.1733C31.1251 15.1522 31.1132 15.1237 31.113 15.094C31.113 15.031 31.163 14.981 31.225 14.98ZM31.787 14.98C31.8138 14.9795 31.8398 14.9887 31.8602 15.0061C31.8807 15.0234 31.8941 15.0475 31.898 15.074V15.094C31.898 15.155 31.848 15.207 31.788 15.207C31.7583 15.2065 31.7299 15.1944 31.709 15.1733C31.6881 15.1522 31.6762 15.1237 31.676 15.094C31.675 15.031 31.726 14.981 31.787 14.98ZM32.35 14.98C32.3766 14.9797 32.4024 14.9891 32.4226 15.0064C32.4428 15.0237 32.4561 15.0477 32.46 15.074C32.462 15.082 32.462 15.086 32.46 15.094C32.46 15.155 32.41 15.207 32.35 15.207C32.3199 15.207 32.2911 15.1951 32.2697 15.174C32.2484 15.1528 32.2362 15.1241 32.236 15.094C32.236 15.031 32.286 14.98 32.35 14.98ZM32.912 14.98C32.972 14.98 33.02 15.027 33.023 15.086V15.094C33.023 15.155 32.973 15.207 32.913 15.207C32.8829 15.207 32.8541 15.1951 32.8327 15.174C32.8114 15.1528 32.7992 15.1241 32.799 15.094C32.799 15.031 32.849 14.98 32.912 14.98ZM33.475 14.98C33.534 14.98 33.582 15.027 33.585 15.086V15.094C33.585 15.155 33.535 15.207 33.475 15.207C33.4449 15.207 33.4161 15.1951 33.3947 15.174C33.3734 15.1528 33.3612 15.1241 33.361 15.094C33.361 15.031 33.411 14.98 33.475 14.98ZM34.037 14.98C34.097 14.98 34.145 15.027 34.148 15.086V15.094C34.148 15.155 34.098 15.207 34.038 15.207C34.0079 15.207 33.9791 15.1951 33.9577 15.174C33.9364 15.1528 33.9242 15.1241 33.924 15.094C33.924 15.031 33.974 14.98 34.037 14.98ZM34.597 14.98C34.657 14.98 34.707 15.026 34.711 15.086V15.094C34.7107 15.1239 34.6987 15.1525 34.6776 15.1736C34.6565 15.1948 34.6279 15.2068 34.598 15.207C34.5683 15.2065 34.5399 15.1944 34.519 15.1733C34.4981 15.1522 34.4862 15.1237 34.486 15.094C34.486 15.031 34.536 14.981 34.598 14.98H34.597ZM19.087 17.883C19.2117 17.8812 19.3356 17.9042 19.4515 17.9505C19.5673 17.9969 19.6729 18.0657 19.762 18.153C19.8517 18.2394 19.9234 18.3427 19.973 18.457C20.0226 18.5712 20.0491 18.6941 20.0511 18.8187C20.053 18.9432 20.0304 19.0669 19.9844 19.1826C19.9383 19.2983 19.8699 19.4038 19.783 19.493L17.975 21.352C17.8884 21.4417 17.785 21.5133 17.6706 21.5627C17.5562 21.6121 17.4331 21.6384 17.3085 21.64C17.1839 21.6415 17.0602 21.6184 16.9446 21.5719C16.829 21.5254 16.7238 21.4564 16.635 21.369C16.5452 21.2827 16.4734 21.1794 16.4237 21.0652C16.374 20.951 16.3474 20.8281 16.3454 20.7036C16.3433 20.5791 16.3659 20.4554 16.4118 20.3396C16.4578 20.2238 16.5261 20.1183 16.613 20.029L18.422 18.172C18.5084 18.0821 18.6117 18.0102 18.726 17.9605C18.8403 17.9107 18.9633 17.884 19.088 17.882L19.087 17.883ZM23.087 17.883C23.2117 17.8812 23.3356 17.9042 23.4515 17.9505C23.5673 17.9969 23.6729 18.0657 23.762 18.153C23.8517 18.2394 23.9234 18.3427 23.973 18.457C24.0226 18.5712 24.0491 18.6941 24.0511 18.8187C24.053 18.9432 24.0304 19.0669 23.9844 19.1826C23.9383 19.2983 23.8699 19.4038 23.783 19.493L21.975 21.352C21.8884 21.4417 21.785 21.5133 21.6706 21.5627C21.5562 21.6121 21.4331 21.6384 21.3085 21.64C21.1839 21.6415 21.0602 21.6184 20.9446 21.5719C20.829 21.5254 20.7238 21.4564 20.635 21.369C20.5452 21.2827 20.4734 21.1794 20.4237 21.0652C20.374 20.951 20.3474 20.8281 20.3454 20.7036C20.3433 20.5791 20.3659 20.4554 20.4118 20.3396C20.4578 20.2238 20.5261 20.1183 20.613 20.029L22.422 18.172C22.5084 18.0821 22.6117 18.0102 22.726 17.9605C22.8403 17.9107 22.9633 17.884 23.088 17.882L23.087 17.883ZM27.087 17.883C27.2117 17.8812 27.3356 17.9042 27.4515 17.9505C27.5673 17.9969 27.6729 18.0657 27.762 18.153C27.8517 18.2394 27.9234 18.3427 27.973 18.457C28.0226 18.5712 28.0491 18.6941 28.0511 18.8187C28.053 18.9432 28.0304 19.0669 27.9844 19.1826C27.9383 19.2983 27.8699 19.4038 27.783 19.493L25.975 21.352C25.8884 21.4417 25.785 21.5133 25.6706 21.5627C25.5562 21.6121 25.4331 21.6384 25.3085 21.64C25.1839 21.6415 25.0602 21.6184 24.9446 21.5719C24.829 21.5254 24.7238 21.4564 24.635 21.369C24.5452 21.2827 24.4734 21.1794 24.4237 21.0652C24.374 20.951 24.3474 20.8281 24.3454 20.7036C24.3433 20.5791 24.3659 20.4554 24.4118 20.3396C24.4578 20.2238 24.5261 20.1183 24.613 20.029L26.422 18.172C26.5084 18.0821 26.6117 18.0102 26.726 17.9605C26.8403 17.9107 26.9633 17.884 27.088 17.882L27.087 17.883ZM31.087 17.883C31.2117 17.8812 31.3356 17.9042 31.4515 17.9505C31.5673 17.9969 31.6729 18.0657 31.762 18.153C31.8517 18.2394 31.9234 18.3427 31.973 18.457C32.0226 18.5712 32.0491 18.6941 32.0511 18.8187C32.053 18.9432 32.0304 19.0669 31.9844 19.1826C31.9383 19.2983 31.8699 19.4038 31.783 19.493L29.975 21.352C29.8884 21.4417 29.785 21.5133 29.6706 21.5627C29.5562 21.6121 29.4331 21.6384 29.3085 21.64C29.1839 21.6415 29.0602 21.6184 28.9446 21.5719C28.829 21.5254 28.7238 21.4564 28.635 21.369C28.5452 21.2827 28.4734 21.1794 28.4237 21.0652C28.374 20.951 28.3474 20.8281 28.3454 20.7036C28.3433 20.5791 28.3659 20.4554 28.4118 20.3396C28.4578 20.2238 28.5261 20.1183 28.613 20.029L30.422 18.172C30.5084 18.0821 30.6117 18.0102 30.726 17.9605C30.8403 17.9107 30.9633 17.884 31.088 17.882L31.087 17.883ZM13.796 23.98C13.859 23.98 13.91 24.03 13.909 24.093C13.9087 24.1229 13.8967 24.1515 13.8756 24.1726C13.8545 24.1938 13.8259 24.2058 13.796 24.206C13.7664 24.2052 13.7384 24.193 13.7176 24.1719C13.6969 24.1509 13.6852 24.1226 13.685 24.093C13.685 24.03 13.734 23.98 13.795 23.979L13.796 23.98ZM14.358 23.98C14.3848 23.9792 14.4109 23.9882 14.4316 24.0053C14.4522 24.0225 14.4658 24.0465 14.47 24.073V24.093C14.469 24.154 14.42 24.206 14.358 24.206C14.3282 24.2055 14.2997 24.1934 14.2786 24.1724C14.2576 24.1513 14.2455 24.1228 14.245 24.093C14.245 24.03 14.296 23.98 14.358 23.979V23.98ZM14.921 23.98C14.9476 23.9795 14.9735 23.9886 14.9939 24.0057C15.0144 24.0228 15.0279 24.0467 15.032 24.073V24.093C15.032 24.154 14.982 24.206 14.921 24.206C14.8911 24.2058 14.8625 24.1938 14.8414 24.1726C14.8202 24.1515 14.8082 24.1229 14.808 24.093C14.808 24.03 14.858 23.979 14.921 23.979V23.98ZM15.483 23.98C15.543 23.98 15.591 24.026 15.595 24.085V24.093C15.594 24.154 15.545 24.206 15.483 24.206C15.4531 24.2058 15.4245 24.1938 15.4034 24.1726C15.3822 24.1515 15.3702 24.1229 15.37 24.093C15.37 24.03 15.42 23.979 15.483 23.979V23.98ZM16.046 23.98C16.106 23.98 16.154 24.026 16.157 24.085V24.093C16.157 24.154 16.107 24.206 16.046 24.206C16.0161 24.2058 15.9875 24.1938 15.9664 24.1726C15.9452 24.1515 15.9332 24.1229 15.933 24.093C15.933 24.03 15.983 23.979 16.046 23.979V23.98ZM16.608 23.98C16.668 23.98 16.716 24.026 16.72 24.085V24.093C16.719 24.154 16.67 24.206 16.608 24.206C16.5781 24.2058 16.5495 24.1938 16.5284 24.1726C16.5072 24.1515 16.4952 24.1229 16.495 24.093C16.495 24.03 16.545 23.979 16.608 23.979V23.98ZM17.169 23.98C17.229 23.979 17.279 24.025 17.282 24.085V24.093C17.2817 24.1229 17.2697 24.1515 17.2486 24.1726C17.2275 24.1938 17.1989 24.2058 17.169 24.206C17.1394 24.2052 17.1114 24.193 17.0906 24.1719C17.0699 24.1509 17.0582 24.1226 17.058 24.093C17.058 24.03 17.107 23.98 17.169 23.979V23.98ZM17.732 23.98C17.792 23.979 17.842 24.025 17.845 24.085V24.093C17.8447 24.1231 17.8326 24.1518 17.8112 24.173C17.7899 24.1941 17.761 24.206 17.731 24.206C17.7016 24.205 17.6738 24.1927 17.6533 24.1716C17.6328 24.1506 17.6212 24.1224 17.621 24.093C17.62 24.03 17.67 23.98 17.731 23.979L17.732 23.98ZM18.294 23.98C18.354 23.979 18.404 24.025 18.407 24.085V24.093C18.4067 24.1229 18.3947 24.1515 18.3736 24.1726C18.3525 24.1938 18.3239 24.2058 18.294 24.206C18.2644 24.2052 18.2364 24.193 18.2156 24.1719C18.1949 24.1509 18.1832 24.1226 18.183 24.093C18.183 24.03 18.232 23.98 18.294 23.979V23.98ZM18.857 23.98C18.8834 23.9797 18.9091 23.9889 18.9293 24.006C18.9495 24.0231 18.9629 24.0469 18.967 24.073V24.093C18.967 24.154 18.917 24.206 18.857 24.206C18.8273 24.2055 18.7989 24.1934 18.778 24.1723C18.7571 24.1512 18.7452 24.1227 18.745 24.093C18.745 24.03 18.795 23.98 18.856 23.979L18.857 23.98ZM19.419 23.98C19.479 23.98 19.527 24.026 19.53 24.085V24.093C19.53 24.154 19.48 24.206 19.419 24.206C19.3891 24.2058 19.3605 24.1938 19.3394 24.1726C19.3182 24.1515 19.3062 24.1229 19.306 24.093C19.306 24.03 19.356 23.979 19.419 23.979V23.98ZM19.982 23.98C20.041 23.98 20.089 24.026 20.092 24.085V24.093C20.092 24.154 20.042 24.206 19.982 24.206C19.9519 24.206 19.9231 24.1941 19.9017 24.173C19.8804 24.1518 19.8682 24.1231 19.868 24.093C19.868 24.03 19.918 23.979 19.981 23.979L19.982 23.98ZM20.544 23.98C20.604 23.98 20.652 24.026 20.655 24.085V24.093C20.655 24.154 20.605 24.206 20.544 24.206C20.5141 24.2058 20.4855 24.1938 20.4644 24.1726C20.4432 24.1515 20.4312 24.1229 20.431 24.093C20.431 24.03 20.481 23.979 20.544 23.979V23.98ZM21.107 23.98C21.166 23.98 21.214 24.026 21.217 24.085V24.093C21.217 24.154 21.167 24.206 21.107 24.206C21.0769 24.206 21.0481 24.1941 21.0267 24.173C21.0054 24.1518 20.9932 24.1231 20.993 24.093C20.993 24.03 21.043 23.979 21.106 23.979L21.107 23.98ZM21.667 23.98C21.727 23.979 21.777 24.025 21.78 24.085V24.093C21.7797 24.1229 21.7677 24.1515 21.7466 24.1726C21.7255 24.1938 21.6969 24.2058 21.667 24.206C21.6374 24.2052 21.6094 24.193 21.5886 24.1719C21.5679 24.1509 21.5562 24.1226 21.556 24.093C21.556 24.03 21.605 23.98 21.667 23.979V23.98ZM22.23 23.98C22.29 23.979 22.34 24.025 22.343 24.085V24.093C22.3427 24.1229 22.3307 24.1515 22.3096 24.1726C22.2885 24.1938 22.2599 24.2058 22.23 24.206C22.2003 24.2055 22.1719 24.1934 22.151 24.1723C22.1301 24.1512 22.1182 24.1227 22.118 24.093C22.118 24.03 22.168 23.98 22.229 23.979L22.23 23.98ZM22.792 23.98C22.855 23.98 22.906 24.03 22.905 24.093C22.9047 24.1229 22.8927 24.1515 22.8716 24.1726C22.8505 24.1938 22.8219 24.2058 22.792 24.206C22.7624 24.2052 22.7344 24.193 22.7136 24.1719C22.6929 24.1509 22.6812 24.1226 22.681 24.093C22.681 24.03 22.73 23.98 22.792 23.979V23.98ZM23.355 23.98C23.409 23.98 23.458 24.019 23.465 24.073V24.093C23.465 24.154 23.415 24.206 23.355 24.206C23.3253 24.2055 23.2969 24.1934 23.276 24.1723C23.2551 24.1512 23.2432 24.1227 23.243 24.093C23.243 24.03 23.293 23.98 23.354 23.979L23.355 23.98ZM23.917 23.98C23.9436 23.9795 23.9695 23.9886 23.9899 24.0057C24.0104 24.0228 24.0239 24.0467 24.028 24.073V24.093C24.028 24.154 23.978 24.206 23.917 24.206C23.8871 24.2058 23.8585 24.1938 23.8374 24.1726C23.8162 24.1515 23.8042 24.1229 23.804 24.093C23.804 24.03 23.854 23.979 23.917 23.979V23.98ZM24.48 23.98C24.539 23.98 24.587 24.026 24.59 24.085V24.093C24.59 24.154 24.54 24.206 24.48 24.206C24.4499 24.206 24.4211 24.1941 24.3997 24.173C24.3784 24.1518 24.3662 24.1231 24.366 24.093C24.366 24.03 24.416 23.979 24.48 23.979V23.98ZM25.042 23.98C25.102 23.98 25.15 24.026 25.153 24.085V24.093C25.153 24.154 25.103 24.206 25.042 24.206C25.0121 24.2058 24.9835 24.1938 24.9624 24.1726C24.9412 24.1515 24.9292 24.1229 24.929 24.093C24.929 24.03 24.979 23.979 25.042 23.979V23.98ZM25.602 23.98C25.662 23.979 25.712 24.025 25.716 24.085V24.093C25.7157 24.1229 25.7037 24.1515 25.6826 24.1726C25.6615 24.1938 25.6329 24.2058 25.603 24.206C25.5733 24.2055 25.5449 24.1934 25.524 24.1723C25.5031 24.1512 25.4912 24.1227 25.491 24.093C25.491 24.03 25.541 23.98 25.603 23.979L25.602 23.98ZM26.165 23.98C26.225 23.979 26.275 24.025 26.278 24.085V24.093C26.2777 24.1229 26.2657 24.1515 26.2446 24.1726C26.2235 24.1938 26.1949 24.2058 26.165 24.206C26.1354 24.2052 26.1074 24.193 26.0866 24.1719C26.0659 24.1509 26.0542 24.1226 26.054 24.093C26.054 24.03 26.104 23.98 26.165 23.979V23.98ZM26.728 23.98C26.788 23.979 26.838 24.025 26.841 24.085V24.093C26.8407 24.1229 26.8287 24.1515 26.8076 24.1726C26.7865 24.1938 26.7579 24.2058 26.728 24.206C26.6983 24.2055 26.6699 24.1934 26.649 24.1723C26.6281 24.1512 26.6162 24.1227 26.616 24.093C26.616 24.03 26.666 23.98 26.728 23.979V23.98ZM27.29 23.98C27.353 23.98 27.404 24.03 27.403 24.093C27.4027 24.1229 27.3907 24.1515 27.3696 24.1726C27.3485 24.1938 27.3199 24.2058 27.29 24.206C27.2604 24.2052 27.2324 24.193 27.2116 24.1719C27.1909 24.1509 27.1792 24.1226 27.179 24.093C27.179 24.03 27.229 23.98 27.29 23.979V23.98ZM27.853 23.98C27.8794 23.9797 27.9051 23.9889 27.9253 24.006C27.9455 24.0231 27.9589 24.0469 27.963 24.073C27.965 24.081 27.965 24.085 27.963 24.093C27.963 24.154 27.913 24.206 27.853 24.206C27.8233 24.2055 27.7949 24.1934 27.774 24.1723C27.7531 24.1512 27.7412 24.1227 27.741 24.093C27.741 24.03 27.791 23.98 27.853 23.979V23.98ZM28.415 23.98C28.475 23.98 28.523 24.026 28.526 24.085V24.093C28.526 24.154 28.476 24.206 28.416 24.206C28.3859 24.206 28.3571 24.1941 28.3357 24.173C28.3144 24.1518 28.3022 24.1231 28.302 24.093C28.302 24.03 28.352 23.979 28.415 23.979V23.98ZM28.978 23.98C29.037 23.98 29.085 24.026 29.088 24.085V24.093C29.088 24.154 29.038 24.206 28.978 24.206C28.9479 24.206 28.9191 24.1941 28.8977 24.173C28.8764 24.1518 28.8642 24.1231 28.864 24.093C28.864 24.03 28.914 23.979 28.978 23.979V23.98ZM29.54 23.98C29.6 23.98 29.648 24.026 29.651 24.085V24.093C29.651 24.154 29.601 24.206 29.541 24.206C29.5109 24.206 29.4821 24.1941 29.4607 24.173C29.4394 24.1518 29.4272 24.1231 29.427 24.093C29.427 24.03 29.477 23.979 29.54 23.979V23.98ZM30.1 23.98C30.16 23.979 30.21 24.025 30.214 24.085V24.093C30.2137 24.1229 30.2017 24.1515 30.1806 24.1726C30.1595 24.1938 30.1309 24.2058 30.101 24.206C30.0713 24.2055 30.0429 24.1934 30.022 24.1723C30.0011 24.1512 29.9892 24.1227 29.989 24.093C29.989 24.03 30.039 23.98 30.101 23.979L30.1 23.98ZM30.663 23.98C30.723 23.979 30.773 24.025 30.776 24.085V24.093C30.7757 24.1229 30.7637 24.1515 30.7426 24.1726C30.7215 24.1938 30.6929 24.2058 30.663 24.206C30.6334 24.2052 30.6054 24.193 30.5846 24.1719C30.5639 24.1509 30.5522 24.1226 30.552 24.093C30.552 24.03 30.602 23.98 30.663 23.979V23.98ZM31.226 23.98C31.286 23.979 31.336 24.025 31.339 24.085V24.093C31.3387 24.1229 31.3267 24.1515 31.3056 24.1726C31.2845 24.1938 31.2559 24.2058 31.226 24.206C31.1963 24.2055 31.1679 24.1934 31.147 24.1723C31.1261 24.1512 31.1142 24.1227 31.114 24.093C31.114 24.03 31.164 23.98 31.226 23.979V23.98ZM31.788 23.98C31.8146 23.9795 31.8405 23.9886 31.8609 24.0057C31.8814 24.0228 31.8949 24.0467 31.899 24.073V24.093C31.899 24.154 31.849 24.206 31.789 24.206C31.7593 24.2055 31.7309 24.1934 31.71 24.1723C31.6891 24.1512 31.6772 24.1227 31.677 24.093C31.676 24.03 31.727 23.98 31.788 23.979V23.98ZM32.351 23.98C32.3774 23.9797 32.4031 23.9889 32.4233 24.006C32.4435 24.0231 32.4569 24.0469 32.461 24.073C32.463 24.081 32.463 24.085 32.461 24.093C32.461 24.154 32.411 24.206 32.351 24.206C32.3209 24.206 32.2921 24.1941 32.2707 24.173C32.2494 24.1518 32.2372 24.1231 32.237 24.093C32.237 24.03 32.287 23.979 32.351 23.979V23.98ZM32.913 23.98C32.973 23.98 33.021 24.026 33.024 24.085V24.093C33.024 24.154 32.974 24.206 32.914 24.206C32.8839 24.206 32.8551 24.1941 32.8337 24.173C32.8124 24.1518 32.8002 24.1231 32.8 24.093C32.8 24.03 32.85 23.979 32.913 23.979V23.98ZM33.476 23.98C33.535 23.98 33.583 24.026 33.586 24.085V24.093C33.586 24.154 33.536 24.206 33.476 24.206C33.4459 24.206 33.4171 24.1941 33.3957 24.173C33.3744 24.1518 33.3622 24.1231 33.362 24.093C33.362 24.03 33.412 23.979 33.476 23.979V23.98ZM34.038 23.98C34.098 23.98 34.146 24.026 34.149 24.085V24.093C34.149 24.154 34.099 24.206 34.039 24.206C34.0089 24.206 33.9801 24.1941 33.9587 24.173C33.9374 24.1518 33.9252 24.1231 33.925 24.093C33.925 24.03 33.975 23.979 34.038 23.979V23.98ZM34.598 23.98C34.658 23.979 34.708 24.025 34.712 24.085V24.093C34.7117 24.1229 34.6997 24.1515 34.6786 24.1726C34.6575 24.1938 34.6289 24.2058 34.599 24.206C34.5693 24.2055 34.5409 24.1934 34.52 24.1723C34.4991 24.1512 34.4872 24.1227 34.487 24.093C34.487 24.03 34.537 23.98 34.599 23.979L34.598 23.98ZM19.088 26.548C19.2127 26.5462 19.3366 26.5692 19.4525 26.6155C19.5683 26.6618 19.6739 26.7307 19.763 26.818C19.8527 26.9044 19.9244 27.0077 19.974 27.122C20.0236 27.2362 20.0501 27.3591 20.0521 27.4837C20.0541 27.6082 20.0314 27.7319 19.9854 27.8476C19.9393 27.9633 19.8709 28.0688 19.784 28.158L17.976 30.017C17.8896 30.1069 17.7863 30.1787 17.672 30.2284C17.5578 30.2781 17.4348 30.3046 17.3101 30.3065C17.1855 30.3083 17.0618 30.2855 16.9461 30.2392C16.8304 30.193 16.725 30.1243 16.636 30.037C16.5462 29.9507 16.4744 29.8474 16.4247 29.7332C16.375 29.619 16.3484 29.4961 16.3464 29.3716C16.3443 29.2471 16.3669 29.1234 16.4128 29.0076C16.4588 28.8918 16.5271 28.7863 16.614 28.697L18.423 26.839C18.5094 26.7491 18.6127 26.6772 18.727 26.6275C18.8413 26.5777 18.9643 26.551 19.089 26.549V26.548H19.088ZM23.088 26.548C23.2127 26.5462 23.3366 26.5692 23.4525 26.6155C23.5683 26.6618 23.6739 26.7307 23.763 26.818C23.8527 26.9044 23.9244 27.0077 23.974 27.122C24.0236 27.2362 24.0501 27.3591 24.0521 27.4837C24.0541 27.6082 24.0314 27.7319 23.9854 27.8476C23.9393 27.9633 23.8709 28.0688 23.784 28.158L21.976 30.017C21.8896 30.1069 21.7863 30.1787 21.672 30.2284C21.5577 30.2781 21.4348 30.3046 21.3101 30.3065C21.1855 30.3083 21.0618 30.2855 20.9461 30.2392C20.8304 30.193 20.725 30.1243 20.636 30.037C20.5462 29.9507 20.4744 29.8474 20.4247 29.7332C20.375 29.619 20.3484 29.4961 20.3464 29.3716C20.3443 29.2471 20.3669 29.1234 20.4128 29.0076C20.4588 28.8918 20.5271 28.7863 20.614 28.697L22.423 26.839C22.5094 26.7491 22.6127 26.6772 22.727 26.6275C22.8413 26.5777 22.9643 26.551 23.089 26.549V26.548H23.088ZM27.088 26.548C27.2127 26.5462 27.3366 26.5692 27.4525 26.6155C27.5683 26.6618 27.6739 26.7307 27.763 26.818C27.8527 26.9044 27.9244 27.0077 27.974 27.122C28.0236 27.2362 28.0501 27.3591 28.0521 27.4837C28.0541 27.6082 28.0314 27.7319 27.9854 27.8476C27.9393 27.9633 27.8709 28.0688 27.784 28.158L25.976 30.017C25.8896 30.1069 25.7863 30.1787 25.672 30.2284C25.5577 30.2781 25.4348 30.3046 25.3101 30.3065C25.1855 30.3083 25.0618 30.2855 24.9461 30.2392C24.8304 30.193 24.725 30.1243 24.636 30.037C24.5462 29.9507 24.4744 29.8474 24.4247 29.7332C24.375 29.619 24.3484 29.4961 24.3464 29.3716C24.3443 29.2471 24.3669 29.1234 24.4128 29.0076C24.4588 28.8918 24.5271 28.7863 24.614 28.697L26.423 26.839C26.5094 26.7491 26.6127 26.6772 26.727 26.6275C26.8413 26.5777 26.9643 26.551 27.089 26.549V26.548H27.088ZM31.088 26.548C31.2127 26.5462 31.3366 26.5692 31.4525 26.6155C31.5683 26.6618 31.6739 26.7307 31.763 26.818C31.8527 26.9044 31.9244 27.0077 31.974 27.122C32.0236 27.2362 32.0501 27.3591 32.0521 27.4837C32.054 27.6082 32.0314 27.7319 31.9854 27.8476C31.9393 27.9633 31.8709 28.0688 31.784 28.158L29.976 30.017C29.8896 30.1069 29.7863 30.1787 29.672 30.2284C29.5578 30.2781 29.4348 30.3046 29.3101 30.3065C29.1855 30.3083 29.0618 30.2855 28.9461 30.2392C28.8304 30.193 28.725 30.1243 28.636 30.037C28.5462 29.9507 28.4744 29.8474 28.4247 29.7332C28.375 29.619 28.3484 29.4961 28.3464 29.3716C28.3443 29.2471 28.3669 29.1234 28.4128 29.0076C28.4588 28.8918 28.5271 28.7863 28.614 28.697L30.423 26.839C30.5094 26.7491 30.6127 26.6772 30.727 26.6275C30.8413 26.5777 30.9643 26.551 31.089 26.549V26.548H31.088ZM13.796 32.98C13.8242 32.9827 13.8505 32.9958 13.8696 33.0168C13.8887 33.0378 13.8993 33.0651 13.8993 33.0935C13.8993 33.1219 13.8887 33.1493 13.8696 33.1703C13.8505 33.1913 13.8242 33.2044 13.796 33.207C13.7664 33.2062 13.7384 33.194 13.7176 33.1729C13.6969 33.1519 13.6852 33.1236 13.685 33.094C13.685 33.031 13.734 32.981 13.795 32.98H13.796ZM14.358 32.98C14.3849 32.9792 14.4112 32.9884 14.4319 33.0057C14.4525 33.023 14.4661 33.0473 14.47 33.074V33.094C14.469 33.155 14.42 33.207 14.358 33.207C14.3282 33.2065 14.2997 33.1944 14.2786 33.1734C14.2576 33.1523 14.2455 33.1238 14.245 33.094C14.245 33.031 14.296 32.981 14.358 32.98ZM14.921 32.98C14.9477 32.9795 14.9738 32.9887 14.9942 33.0061C15.0147 33.0234 15.0281 33.0475 15.032 33.074V33.094C15.032 33.155 14.982 33.207 14.921 33.207C14.8911 33.2068 14.8625 33.1948 14.8414 33.1736C14.8202 33.1525 14.8082 33.1239 14.808 33.094C14.808 33.031 14.858 32.98 14.921 32.98ZM15.483 32.98C15.543 32.98 15.591 33.027 15.595 33.086V33.094C15.594 33.155 15.545 33.207 15.483 33.207C15.4531 33.2068 15.4245 33.1948 15.4034 33.1736C15.3822 33.1525 15.3702 33.1239 15.37 33.094C15.37 33.031 15.42 32.98 15.483 32.98ZM16.046 32.98C16.106 32.98 16.154 33.027 16.157 33.086V33.094C16.157 33.155 16.107 33.207 16.046 33.207C16.0161 33.2068 15.9875 33.1948 15.9664 33.1736C15.9452 33.1525 15.9332 33.1239 15.933 33.094C15.933 33.031 15.983 32.98 16.046 32.98ZM16.608 32.98C16.668 32.98 16.716 33.027 16.72 33.086V33.094C16.719 33.155 16.67 33.207 16.608 33.207C16.5781 33.2068 16.5495 33.1948 16.5284 33.1736C16.5072 33.1525 16.4952 33.1239 16.495 33.094C16.495 33.031 16.545 32.98 16.608 32.98ZM17.169 32.98C17.229 32.98 17.279 33.026 17.282 33.086V33.094C17.2817 33.1239 17.2697 33.1525 17.2486 33.1736C17.2275 33.1948 17.1989 33.2068 17.169 33.207C17.1394 33.2062 17.1114 33.194 17.0906 33.1729C17.0699 33.1519 17.0582 33.1236 17.058 33.094C17.058 33.031 17.107 32.981 17.169 32.98ZM17.732 32.98C17.792 32.98 17.842 33.026 17.845 33.086V33.094C17.8447 33.1241 17.8326 33.1528 17.8112 33.174C17.7899 33.1951 17.761 33.207 17.731 33.207C17.7016 33.206 17.6738 33.1937 17.6533 33.1726C17.6328 33.1516 17.6212 33.1234 17.621 33.094C17.62 33.031 17.67 32.981 17.731 32.98H17.732ZM18.294 32.98C18.354 32.98 18.404 33.026 18.407 33.086V33.094C18.4067 33.1239 18.3947 33.1525 18.3736 33.1736C18.3525 33.1948 18.3239 33.2068 18.294 33.207C18.2644 33.2062 18.2364 33.194 18.2156 33.1729C18.1949 33.1519 18.1832 33.1236 18.183 33.094C18.183 33.031 18.232 32.981 18.294 32.98ZM18.857 32.98C18.8836 32.9797 18.9094 32.9891 18.9296 33.0064C18.9498 33.0237 18.9631 33.0477 18.967 33.074V33.094C18.967 33.155 18.917 33.207 18.857 33.207C18.8273 33.2065 18.7989 33.1944 18.778 33.1733C18.7571 33.1522 18.7452 33.1237 18.745 33.094C18.745 33.031 18.795 32.981 18.856 32.98H18.857ZM19.419 32.98C19.479 32.98 19.527 33.027 19.53 33.086V33.094C19.53 33.155 19.48 33.207 19.419 33.207C19.3891 33.2068 19.3605 33.1948 19.3394 33.1736C19.3182 33.1525 19.3062 33.1239 19.306 33.094C19.306 33.031 19.356 32.98 19.419 32.98ZM19.982 32.98C20.041 32.98 20.089 33.027 20.092 33.086V33.094C20.092 33.155 20.042 33.207 19.982 33.207C19.9519 33.207 19.9231 33.1951 19.9017 33.174C19.8804 33.1528 19.8682 33.1241 19.868 33.094C19.868 33.031 19.918 32.98 19.981 32.98H19.982ZM20.544 32.98C20.604 32.98 20.652 33.027 20.655 33.086V33.094C20.655 33.155 20.605 33.207 20.544 33.207C20.5141 33.2068 20.4855 33.1948 20.4644 33.1736C20.4432 33.1525 20.4312 33.1239 20.431 33.094C20.431 33.031 20.481 32.98 20.544 32.98ZM21.107 32.98C21.166 32.98 21.214 33.027 21.217 33.086V33.094C21.217 33.155 21.167 33.207 21.107 33.207C21.0769 33.207 21.0481 33.1951 21.0267 33.174C21.0054 33.1528 20.9932 33.1241 20.993 33.094C20.993 33.031 21.043 32.98 21.106 32.98H21.107ZM21.667 32.98C21.727 32.98 21.777 33.026 21.78 33.086V33.094C21.7797 33.1239 21.7677 33.1525 21.7466 33.1736C21.7255 33.1948 21.6969 33.2068 21.667 33.207C21.6374 33.2062 21.6094 33.194 21.5886 33.1729C21.5679 33.1519 21.5562 33.1236 21.556 33.094C21.556 33.031 21.605 32.981 21.667 32.98ZM22.23 32.98C22.29 32.98 22.34 33.026 22.343 33.086V33.094C22.3427 33.1239 22.3307 33.1525 22.3096 33.1736C22.2885 33.1948 22.2599 33.2068 22.23 33.207C22.2003 33.2065 22.1719 33.1944 22.151 33.1733C22.1301 33.1522 22.1182 33.1237 22.118 33.094C22.118 33.031 22.168 32.981 22.229 32.98H22.23ZM22.792 32.98C22.8202 32.9827 22.8465 32.9958 22.8656 33.0168C22.8847 33.0378 22.8953 33.0651 22.8953 33.0935C22.8953 33.1219 22.8847 33.1493 22.8656 33.1703C22.8465 33.1913 22.8202 33.2044 22.792 33.207C22.7624 33.2062 22.7344 33.194 22.7136 33.1729C22.6929 33.1519 22.6812 33.1236 22.681 33.094C22.681 33.031 22.73 32.981 22.792 32.98ZM23.355 32.98C23.409 32.98 23.458 33.02 23.465 33.074V33.094C23.465 33.155 23.415 33.207 23.355 33.207C23.3253 33.2065 23.2969 33.1944 23.276 33.1733C23.2551 33.1522 23.2432 33.1237 23.243 33.094C23.243 33.031 23.293 32.981 23.354 32.98H23.355ZM23.917 32.98C23.9438 32.9795 23.9698 32.9887 23.9902 33.0061C24.0107 33.0234 24.0241 33.0475 24.028 33.074V33.094C24.028 33.155 23.978 33.207 23.917 33.207C23.8871 33.2068 23.8585 33.1948 23.8374 33.1736C23.8162 33.1525 23.8042 33.1239 23.804 33.094C23.804 33.031 23.854 32.98 23.917 32.98ZM24.48 32.98C24.539 32.98 24.587 33.027 24.59 33.086V33.094C24.59 33.155 24.54 33.207 24.48 33.207C24.4499 33.207 24.4211 33.1951 24.3997 33.174C24.3784 33.1528 24.3662 33.1241 24.366 33.094C24.366 33.031 24.416 32.98 24.48 32.98ZM25.042 32.98C25.102 32.98 25.15 33.027 25.153 33.086V33.094C25.153 33.155 25.103 33.207 25.042 33.207C25.0121 33.2068 24.9835 33.1948 24.9624 33.1736C24.9412 33.1525 24.9292 33.1239 24.929 33.094C24.929 33.031 24.979 32.98 25.042 32.98ZM25.602 32.98C25.662 32.98 25.712 33.026 25.716 33.086V33.094C25.7157 33.1239 25.7037 33.1525 25.6826 33.1736C25.6615 33.1948 25.6329 33.2068 25.603 33.207C25.5733 33.2065 25.5449 33.1944 25.524 33.1733C25.5031 33.1522 25.4912 33.1237 25.491 33.094C25.491 33.031 25.541 32.981 25.603 32.98H25.602ZM26.165 32.98C26.225 32.98 26.275 33.026 26.278 33.086V33.094C26.2777 33.1239 26.2657 33.1525 26.2446 33.1736C26.2235 33.1948 26.1949 33.2068 26.165 33.207C26.1354 33.2062 26.1074 33.194 26.0866 33.1729C26.0659 33.1519 26.0542 33.1236 26.054 33.094C26.054 33.031 26.104 32.981 26.165 32.98ZM26.728 32.98C26.788 32.98 26.838 33.026 26.841 33.086V33.094C26.8407 33.1239 26.8287 33.1525 26.8076 33.1736C26.7865 33.1948 26.7579 33.2068 26.728 33.207C26.6983 33.2065 26.6699 33.1944 26.649 33.1733C26.6281 33.1522 26.6162 33.1237 26.616 33.094C26.616 33.031 26.666 32.981 26.728 32.98ZM27.29 32.98C27.3182 32.9827 27.3445 32.9958 27.3636 33.0168C27.3827 33.0378 27.3933 33.0651 27.3933 33.0935C27.3933 33.1219 27.3827 33.1493 27.3636 33.1703C27.3445 33.1913 27.3182 33.2044 27.29 33.207C27.2604 33.2062 27.2324 33.194 27.2116 33.1729C27.1909 33.1519 27.1792 33.1236 27.179 33.094C27.179 33.031 27.229 32.981 27.29 32.98ZM27.853 32.98C27.8796 32.9797 27.9054 32.9891 27.9256 33.0064C27.9458 33.0237 27.9591 33.0477 27.963 33.074C27.965 33.082 27.965 33.086 27.963 33.094C27.963 33.155 27.913 33.207 27.853 33.207C27.8233 33.2065 27.7949 33.1944 27.774 33.1733C27.7531 33.1522 27.7412 33.1237 27.741 33.094C27.741 33.031 27.791 32.981 27.853 32.98ZM28.415 32.98C28.475 32.98 28.523 33.027 28.526 33.086V33.094C28.526 33.155 28.476 33.207 28.416 33.207C28.3859 33.207 28.3571 33.1951 28.3357 33.174C28.3144 33.1528 28.3022 33.1241 28.302 33.094C28.302 33.031 28.352 32.98 28.415 32.98ZM28.978 32.98C29.037 32.98 29.085 33.027 29.088 33.086V33.094C29.088 33.155 29.038 33.207 28.978 33.207C28.9479 33.207 28.9191 33.1951 28.8977 33.174C28.8764 33.1528 28.8642 33.1241 28.864 33.094C28.864 33.031 28.914 32.98 28.978 32.98ZM29.54 32.98C29.6 32.98 29.648 33.027 29.651 33.086V33.094C29.651 33.155 29.601 33.207 29.541 33.207C29.5109 33.207 29.4821 33.1951 29.4607 33.174C29.4394 33.1528 29.4272 33.1241 29.427 33.094C29.427 33.031 29.477 32.98 29.54 32.98ZM30.1 32.98C30.16 32.98 30.21 33.026 30.214 33.086V33.094C30.2137 33.1239 30.2017 33.1525 30.1806 33.1736C30.1595 33.1948 30.1309 33.2068 30.101 33.207C30.0713 33.2065 30.0429 33.1944 30.022 33.1733C30.0011 33.1522 29.9892 33.1237 29.989 33.094C29.989 33.031 30.039 32.981 30.101 32.98H30.1ZM30.663 32.98C30.723 32.98 30.773 33.026 30.776 33.086V33.094C30.7757 33.1239 30.7637 33.1525 30.7426 33.1736C30.7215 33.1948 30.6929 33.2068 30.663 33.207C30.6334 33.2062 30.6054 33.194 30.5846 33.1729C30.5639 33.1519 30.5522 33.1236 30.552 33.094C30.552 33.031 30.602 32.981 30.663 32.98ZM31.226 32.98C31.286 32.98 31.336 33.026 31.339 33.086V33.094C31.3387 33.1239 31.3267 33.1525 31.3056 33.1736C31.2845 33.1948 31.2559 33.2068 31.226 33.207C31.1963 33.2065 31.1679 33.1944 31.147 33.1733C31.1261 33.1522 31.1142 33.1237 31.114 33.094C31.114 33.031 31.164 32.981 31.226 32.98ZM31.788 32.98C31.8148 32.9795 31.8408 32.9887 31.8612 33.0061C31.8817 33.0234 31.8951 33.0475 31.899 33.074V33.094C31.899 33.155 31.849 33.207 31.789 33.207C31.7593 33.2065 31.7309 33.1944 31.71 33.1733C31.6891 33.1522 31.6772 33.1237 31.677 33.094C31.676 33.031 31.727 32.981 31.788 32.98ZM32.351 32.98C32.3776 32.9797 32.4034 32.9891 32.4236 33.0064C32.4438 33.0237 32.4571 33.0477 32.461 33.074C32.463 33.082 32.463 33.086 32.461 33.094C32.461 33.155 32.411 33.207 32.351 33.207C32.3209 33.207 32.2921 33.1951 32.2707 33.174C32.2494 33.1528 32.2372 33.1241 32.237 33.094C32.237 33.031 32.287 32.98 32.351 32.98ZM32.913 32.98C32.973 32.98 33.021 33.027 33.024 33.086V33.094C33.024 33.155 32.974 33.207 32.914 33.207C32.8839 33.207 32.8551 33.1951 32.8337 33.174C32.8124 33.1528 32.8002 33.1241 32.8 33.094C32.8 33.031 32.85 32.98 32.913 32.98ZM33.476 32.98C33.535 32.98 33.583 33.027 33.586 33.086V33.094C33.586 33.155 33.536 33.207 33.476 33.207C33.4459 33.207 33.4171 33.1951 33.3957 33.174C33.3744 33.1528 33.3622 33.1241 33.362 33.094C33.362 33.031 33.412 32.98 33.476 32.98ZM34.038 32.98C34.098 32.98 34.146 33.027 34.149 33.086V33.094C34.149 33.155 34.099 33.207 34.039 33.207C34.0089 33.207 33.9801 33.1951 33.9587 33.174C33.9374 33.1528 33.9252 33.1241 33.925 33.094C33.925 33.031 33.975 32.98 34.038 32.98ZM34.598 32.98C34.658 32.98 34.708 33.026 34.712 33.086V33.094C34.7117 33.1239 34.6997 33.1525 34.6786 33.1736C34.6575 33.1948 34.6289 33.2068 34.599 33.207C34.5693 33.2065 34.5409 33.1944 34.52 33.1733C34.4991 33.1522 34.4872 33.1237 34.487 33.094C34.487 33.031 34.537 32.981 34.599 32.98H34.598ZM19.088 35.215C19.2127 35.2132 19.3366 35.2362 19.4525 35.2825C19.5683 35.3289 19.6739 35.3977 19.763 35.485C19.8527 35.5714 19.9244 35.6747 19.974 35.789C20.0236 35.9032 20.0501 36.0261 20.0521 36.1507C20.0541 36.2752 20.0314 36.3989 19.9854 36.5146C19.9393 36.6303 19.8709 36.7358 19.784 36.825L17.976 38.684C17.8896 38.7739 17.7863 38.8457 17.672 38.8954C17.5578 38.9451 17.4348 38.9716 17.3101 38.9735C17.1855 38.9753 17.0618 38.9525 16.9461 38.9062C16.8304 38.86 16.725 38.7912 16.636 38.704C16.5462 38.6177 16.4744 38.5144 16.4247 38.4002C16.375 38.286 16.3484 38.1631 16.3464 38.0386C16.3443 37.9141 16.3669 37.7904 16.4128 37.6746C16.4588 37.5588 16.5271 37.4533 16.614 37.364L18.423 35.506C18.5094 35.4161 18.6127 35.3442 18.727 35.2945C18.8413 35.2447 18.9643 35.218 19.089 35.216V35.215H19.088ZM23.088 35.215C23.2127 35.2132 23.3366 35.2362 23.4525 35.2825C23.5683 35.3289 23.6739 35.3977 23.763 35.485C23.8527 35.5714 23.9244 35.6747 23.974 35.789C24.0236 35.9032 24.0501 36.0261 24.0521 36.1507C24.0541 36.2752 24.0314 36.3989 23.9854 36.5146C23.9393 36.6303 23.8709 36.7358 23.784 36.825L21.976 38.684C21.8896 38.7739 21.7863 38.8457 21.672 38.8954C21.5577 38.9451 21.4348 38.9716 21.3101 38.9735C21.1855 38.9753 21.0618 38.9525 20.9461 38.9062C20.8304 38.86 20.725 38.7912 20.636 38.704C20.5462 38.6177 20.4744 38.5144 20.4247 38.4002C20.375 38.286 20.3484 38.1631 20.3464 38.0386C20.3443 37.9141 20.3669 37.7904 20.4128 37.6746C20.4588 37.5588 20.5271 37.4533 20.614 37.364L22.423 35.506C22.5094 35.4161 22.6127 35.3442 22.727 35.2945C22.8413 35.2447 22.9643 35.218 23.089 35.216V35.215H23.088ZM27.088 35.215C27.2127 35.2132 27.3366 35.2362 27.4525 35.2825C27.5683 35.3289 27.6739 35.3977 27.763 35.485C27.8527 35.5714 27.9244 35.6747 27.974 35.789C28.0236 35.9032 28.0501 36.0261 28.0521 36.1507C28.0541 36.2752 28.0314 36.3989 27.9854 36.5146C27.9393 36.6303 27.8709 36.7358 27.784 36.825L25.976 38.684C25.8896 38.7739 25.7863 38.8457 25.672 38.8954C25.5577 38.9451 25.4348 38.9716 25.3101 38.9735C25.1855 38.9753 25.0618 38.9525 24.9461 38.9062C24.8304 38.86 24.725 38.7912 24.636 38.704C24.5462 38.6177 24.4744 38.5144 24.4247 38.4002C24.375 38.286 24.3484 38.1631 24.3464 38.0386C24.3443 37.9141 24.3669 37.7904 24.4128 37.6746C24.4588 37.5588 24.5271 37.4533 24.614 37.364L26.423 35.506C26.5094 35.4161 26.6127 35.3442 26.727 35.2945C26.8413 35.2447 26.9643 35.218 27.089 35.216V35.215H27.088ZM31.088 35.215C31.2127 35.2132 31.3366 35.2362 31.4525 35.2825C31.5683 35.3289 31.6739 35.3977 31.763 35.485C31.8527 35.5714 31.9244 35.6747 31.974 35.789C32.0236 35.9032 32.0501 36.0261 32.0521 36.1507C32.054 36.2752 32.0314 36.3989 31.9854 36.5146C31.9393 36.6303 31.8709 36.7358 31.784 36.825L29.976 38.684C29.8896 38.7739 29.7863 38.8457 29.672 38.8954C29.5578 38.9451 29.4348 38.9716 29.3101 38.9735C29.1855 38.9753 29.0618 38.9525 28.9461 38.9062C28.8304 38.86 28.725 38.7912 28.636 38.704C28.5462 38.6177 28.4744 38.5144 28.4247 38.4002C28.375 38.286 28.3484 38.1631 28.3464 38.0386C28.3443 37.9141 28.3669 37.7904 28.4128 37.6746C28.4588 37.5588 28.5271 37.4533 28.614 37.364L30.423 35.506C30.5094 35.4161 30.6127 35.3442 30.727 35.2945C30.8413 35.2447 30.9643 35.218 31.089 35.216V35.215H31.088Z" fill="#333333"/>
</svg>
