<svg width="48" height="48" viewBox="0 0 48 48" fill="none" xmlns="http://www.w3.org/2000/svg">
<path d="M14.1992 3.95715C13.3298 3.95715 12.6309 4.65613 12.6309 5.52557V42.3869C12.6309 43.2564 13.3298 43.9572 14.1992 43.9572H33.9043C34.7737 43.9572 35.4727 43.2564 35.4727 42.3869V5.52557C35.4727 4.65613 34.7737 3.95715 33.9043 3.95715H14.1992ZM30.8965 4.69154C30.9003 4.69146 30.9017 4.69146 30.9043 4.69154C30.9655 4.69229 31.0152 4.74184 31.0156 4.80307C31.0164 4.86506 30.9663 4.9157 30.9043 4.91645C30.8416 4.91683 30.7904 4.86581 30.791 4.80307C30.7914 4.74373 30.8375 4.69532 30.8965 4.69154H30.8965ZM30.8965 5.25406C30.9003 5.25398 30.9017 5.25398 30.9043 5.25406C30.9655 5.25481 31.0152 5.30402 31.0156 5.36525C31.0164 5.42723 30.9663 5.47825 30.9043 5.47863C30.8416 5.47901 30.7904 5.42799 30.791 5.36525C30.7914 5.30591 30.8375 5.25746 30.8965 5.25406H30.8965ZM30.8965 5.81658C30.9003 5.81651 30.9017 5.81651 30.9043 5.81658C30.9655 5.81734 31.0152 5.86681 31.0156 5.92766C31.0164 5.98964 30.9663 6.04028 30.9043 6.04104C30.8416 6.04142 30.7904 5.9904 30.791 5.92766C30.7914 5.86832 30.8375 5.81998 30.8965 5.81658H30.8965ZM30.8848 6.37911H30.8867C30.8943 6.37854 30.8967 6.37854 30.9043 6.37911C30.9655 6.37986 31.0152 6.4293 31.0156 6.49053C31.0152 6.55213 30.9655 6.60131 30.9043 6.60206C30.8419 6.60244 30.7915 6.55251 30.791 6.49053C30.7906 6.43534 30.8303 6.38666 30.8848 6.37911ZM30.9043 6.93967C30.9667 6.94042 31.0162 6.99106 31.0156 7.05305C31.0149 7.11465 30.9655 7.16374 30.9043 7.16412C30.8419 7.1645 30.7915 7.11503 30.791 7.05305C30.7907 6.99031 30.8416 6.93929 30.9043 6.93967ZM30.8965 7.50207C30.9003 7.50196 30.9017 7.50196 30.9043 7.50207C30.9663 7.50283 31.0162 7.55347 31.0156 7.61546C31.0153 7.67706 30.9655 7.72627 30.9043 7.72665C30.8419 7.72702 30.7915 7.67706 30.791 7.61546C30.7903 7.55536 30.8368 7.50585 30.8965 7.50207H30.8965ZM30.8965 8.0646C30.9003 8.06452 30.9017 8.06452 30.9043 8.0646C30.9663 8.06535 31.0162 8.11599 31.0156 8.17798C31.0153 8.23959 30.9655 8.28876 30.9043 8.28952C30.8419 8.28989 30.7915 8.23996 30.791 8.17798C30.7903 8.11788 30.8368 8.06838 30.8965 8.0646H30.8965ZM30.8965 8.62712C30.9003 8.62705 30.9017 8.62705 30.9043 8.62712C30.9663 8.62788 31.0162 8.67852 31.0156 8.7405C31.0153 8.80211 30.9655 8.85128 30.9043 8.85204C30.8419 8.85242 30.7915 8.80249 30.791 8.7405C30.7903 8.68041 30.8368 8.6309 30.8965 8.62712H30.8965ZM30.8965 9.18964C30.9003 9.18957 30.9017 9.18957 30.9043 9.18964C30.9655 9.1904 31.0152 9.23987 31.0156 9.30072C31.0164 9.3627 30.9663 9.41372 30.9043 9.4141C30.8416 9.41448 30.7904 9.36346 30.791 9.30072C30.7914 9.24138 30.8375 9.19305 30.8965 9.18964H30.8965ZM25.373 9.19714C25.6153 9.19374 25.8587 9.28377 26.0469 9.4667C26.4233 9.83293 26.4306 10.4301 26.0644 10.8065L24.2559 12.6659C23.8897 13.0435 23.2923 13.0509 22.916 12.6847C22.5396 12.3185 22.5323 11.721 22.8984 11.3449L24.707 9.48757C24.8901 9.29935 25.1309 9.20181 25.373 9.19841V9.19714ZM30.8965 9.75378C30.9003 9.75367 30.9017 9.75367 30.9043 9.75378C30.9655 9.75454 31.0152 9.80374 31.0156 9.86497C31.0164 9.92696 30.9663 9.9776 30.9043 9.97835C30.8416 9.97873 30.7904 9.92771 30.791 9.86497C30.7914 9.80563 30.8375 9.75718 30.8965 9.75378H30.8965ZM30.8848 10.3163H30.8867C30.8943 10.3157 30.8967 10.3157 30.9043 10.3163C30.9655 10.3171 31.0152 10.3666 31.0156 10.4278C31.0164 10.4898 30.9663 10.5405 30.9043 10.5412C30.8416 10.5416 30.7904 10.4906 30.791 10.4278C30.7906 10.3727 30.8303 10.3239 30.8848 10.3163ZM30.9043 10.8769C30.9667 10.8776 31.0162 10.9283 31.0156 10.9902C31.0149 11.0519 30.9655 11.1011 30.9043 11.1014C30.8419 11.1018 30.7915 11.0519 30.791 10.9902C30.7907 10.9275 30.8416 10.8765 30.9043 10.8769ZM19.8106 11.0095C20.0528 11.0061 20.2962 11.0961 20.4844 11.2791C20.8608 11.6453 20.8681 12.2424 20.502 12.6189L18.6934 14.4782C18.3272 14.8558 17.7298 14.8646 17.3535 14.4971C16.9771 14.1309 16.9698 13.5334 17.3359 13.1573L19.1445 11.2998C19.3276 11.1116 19.5684 11.0141 19.8106 11.0107V11.0095ZM30.9043 11.4392C30.9667 11.4399 31.0162 11.4906 31.0156 11.5525C31.0149 11.6138 30.9655 11.6634 30.9043 11.6637C30.8419 11.6645 30.7915 11.6141 30.791 11.5525C30.7907 11.4898 30.8416 11.4388 30.9043 11.4392ZM30.8965 12.0017C30.9003 12.0016 30.9017 12.0016 30.9043 12.0017C30.9663 12.0024 31.0162 12.0531 31.0156 12.1151C31.0153 12.1763 30.9655 12.2258 30.9043 12.2266C30.8419 12.2274 30.7915 12.1774 30.791 12.1151C30.7903 12.055 30.8368 12.0055 30.8965 12.0017H30.8965ZM30.8965 12.5642C30.9003 12.5641 30.9017 12.5641 30.9043 12.5642C30.9663 12.5646 31.0162 12.6156 31.0156 12.6776C31.0153 12.7388 30.9655 12.7884 30.9043 12.7891C30.8419 12.7899 30.7915 12.7396 30.791 12.6776C30.7903 12.6175 30.8368 12.568 30.8965 12.5642H30.8965ZM30.8965 13.1267C30.9003 13.1267 30.9017 13.1267 30.9043 13.1267C30.9655 13.1275 31.0152 13.1766 31.0156 13.2378C31.0164 13.2998 30.9663 13.3508 30.9043 13.3512C30.8416 13.3516 30.7904 13.3005 30.791 13.2378C30.7914 13.1785 30.8375 13.1301 30.8965 13.1267H30.8965ZM30.8965 13.6893C30.9003 13.6892 30.9017 13.6892 30.9043 13.6893C30.9655 13.69 31.0152 13.7395 31.0156 13.8003C31.0164 13.8623 30.9663 13.913 30.9043 13.9137C30.8416 13.9141 30.7904 13.8631 30.791 13.8003C30.7914 13.741 30.8375 13.6927 30.8965 13.6893H30.8965ZM25.3789 13.7082C25.6211 13.7048 25.8646 13.7947 26.0527 13.9776C26.4292 14.3438 26.4364 14.941 26.0703 15.3174L24.2617 17.1768C23.8956 17.5544 23.2981 17.5613 22.9219 17.1958C22.5454 16.8295 22.5382 16.2319 22.9043 15.8558L24.7129 13.9985C24.896 13.8103 25.1367 13.7127 25.3789 13.7093V13.7082ZM30.8965 14.253C30.9003 14.2529 30.9017 14.2529 30.9043 14.253C30.9655 14.2534 31.0152 14.3032 31.0156 14.3645C31.0164 14.4264 30.9663 14.4772 30.9043 14.478C30.8416 14.4783 30.7904 14.4272 30.791 14.3645C30.7914 14.3055 30.8375 14.2568 30.8965 14.253H30.8965ZM30.8848 14.8156H30.8867C30.8943 14.815 30.8967 14.815 30.9043 14.8156C30.9655 14.8159 31.0152 14.8658 31.0156 14.927C31.0164 14.989 30.9663 15.0396 30.9043 15.0404C30.8416 15.0407 30.7904 14.9897 30.791 14.927C30.7906 14.8722 30.8303 14.8231 30.8848 14.8156ZM30.8848 15.3781H30.8867C30.8943 15.3775 30.8967 15.3775 30.9043 15.3781C30.9655 15.3788 31.0152 15.4283 31.0156 15.4895C31.0152 15.5507 30.9655 15.6003 30.9043 15.601C30.8419 15.6014 30.7915 15.5515 30.791 15.4895C30.7906 15.4343 30.8303 15.3856 30.8848 15.3781ZM30.9043 15.9385C30.9667 15.9393 31.0162 15.9899 31.0156 16.0519C31.0149 16.1131 30.9655 16.1627 30.9043 16.1635C30.8419 16.1642 30.7915 16.1139 30.791 16.0519C30.7907 15.9892 30.8416 15.9382 30.9043 15.9385ZM19.8106 16.2708C20.0528 16.2674 20.2962 16.3573 20.4844 16.5403C20.8608 16.9065 20.8681 17.5036 20.502 17.8801L18.6934 19.7395C18.3272 20.1171 17.7298 20.1259 17.3535 19.7584C16.9771 19.3922 16.9698 18.7946 17.3359 18.4185L19.1445 16.5612C19.3276 16.3729 19.5684 16.2754 19.8106 16.272V16.2708ZM30.8965 16.5014C30.9003 16.5013 30.9017 16.5013 30.9043 16.5014C30.9663 16.5022 31.0163 16.5528 31.0156 16.6148C31.0153 16.676 30.9655 16.7255 30.9043 16.7262C30.842 16.727 30.7915 16.6768 30.791 16.6148C30.7903 16.5547 30.8368 16.5052 30.8965 16.5014H30.8965ZM30.8965 17.0638C30.9003 17.0637 30.9017 17.0637 30.9043 17.0638C30.9663 17.0646 31.0163 17.1152 31.0156 17.1772C31.0153 17.2388 30.9655 17.288 30.9043 17.2887C30.842 17.2891 30.7915 17.2392 30.791 17.1772C30.7903 17.1171 30.8368 17.0676 30.8965 17.0638H30.8965ZM30.8965 17.6263C30.9003 17.6263 30.9017 17.6263 30.9043 17.6263C30.9656 17.6267 31.0152 17.6763 31.0156 17.7375C31.0164 17.7995 30.9663 17.8502 30.9043 17.8509C30.8416 17.8513 30.7904 17.8003 30.791 17.7375C30.7914 17.6786 30.8375 17.6297 30.8965 17.6263H30.8965ZM30.8965 18.1889C30.9003 18.1887 30.9017 18.1887 30.9043 18.1889C30.9656 18.1892 31.0152 18.2391 31.0156 18.3003C31.0164 18.3623 30.9663 18.4133 30.9043 18.4137C30.8416 18.414 30.7904 18.363 30.791 18.3003C30.7914 18.2413 30.8375 18.1926 30.8965 18.1889H30.8965ZM30.8965 18.7514C30.9003 18.7513 30.9017 18.7513 30.9043 18.7514C30.9656 18.7518 31.0152 18.8016 31.0156 18.8628C31.0164 18.9248 30.9663 18.9754 30.9043 18.9762C30.8416 18.9766 30.7904 18.9255 30.791 18.8628C30.7914 18.8038 30.8375 18.7552 30.8965 18.7514H30.8965ZM25.3789 18.9234C25.6211 18.92 25.8646 19.0099 26.0527 19.1928C26.4292 19.559 26.4364 20.1562 26.0703 20.5326L24.2617 22.392C23.8956 22.7696 23.2981 22.7765 22.9219 22.411C22.5454 22.0447 22.5382 21.4471 22.9043 21.071L24.7129 19.2137C24.896 19.0255 25.1367 18.9279 25.3789 18.9245V18.9234ZM30.8848 19.3139H30.8867C30.8943 19.3133 30.8967 19.3133 30.9043 19.3139C30.9655 19.3147 31.0152 19.3642 31.0156 19.4254C31.0164 19.4874 30.9663 19.5381 30.9043 19.5388C30.8416 19.5392 30.7904 19.4882 30.791 19.4254C30.7906 19.3703 30.8303 19.3215 30.8848 19.3139ZM30.9043 19.8745C30.9667 19.8752 31.0162 19.9259 31.0156 19.9878C31.0149 20.0491 30.9655 20.0986 30.9043 20.0994C30.842 20.1001 30.7915 20.0502 30.791 19.9878C30.7907 19.9251 30.8416 19.8741 30.9043 19.8745ZM30.8965 20.437C30.9003 20.4369 30.9017 20.4369 30.9043 20.437C30.9663 20.4374 31.0163 20.4884 31.0156 20.5504C31.0153 20.6116 30.9655 20.6612 30.9043 20.6619C30.842 20.6627 30.7915 20.6124 30.791 20.5504C30.7903 20.4903 30.8368 20.4408 30.8965 20.437H30.8965ZM30.8965 20.9995C30.9003 20.9994 30.9017 20.9994 30.9043 20.9995C30.9663 21.0003 31.0163 21.0509 31.0156 21.1129C31.0153 21.1745 30.9655 21.2236 30.9043 21.2243C30.842 21.2247 30.7915 21.1749 30.791 21.1129C30.7903 21.0528 30.8368 21.0033 30.8965 20.9995H30.8965ZM19.8106 21.5308C20.0528 21.5274 20.2962 21.6173 20.4844 21.8002C20.8608 22.1665 20.8681 22.7636 20.502 23.14L18.6934 24.9995C18.3272 25.377 17.7298 25.3839 17.3535 25.0184C16.9771 24.6521 16.9698 24.0545 17.3359 23.6784L19.1445 21.8211C19.3276 21.6329 19.5684 21.5353 19.8106 21.5319V21.5308ZM30.8965 21.561C30.9003 21.5609 30.9017 21.5609 30.9043 21.561C30.9663 21.5618 31.0163 21.6124 31.0156 21.6744C31.0153 21.736 30.9655 21.7851 30.9043 21.7855C30.842 21.7858 30.7915 21.7364 30.791 21.6744C30.7903 21.6143 30.8368 21.5648 30.8965 21.561H30.8965ZM30.8965 22.1234C30.9003 22.1233 30.9017 22.1233 30.9043 22.1234C30.9655 22.1238 31.0152 22.1737 31.0156 22.2349C31.0164 22.2969 30.9663 22.3476 30.9043 22.3483C30.8416 22.3487 30.7904 22.2977 30.791 22.2349C30.7914 22.176 30.8375 22.1272 30.8965 22.1234H30.8965ZM30.8965 22.6859C30.9003 22.6858 30.9017 22.6858 30.9043 22.6859C30.9655 22.6863 31.0152 22.7362 31.0156 22.7975C31.0164 22.8594 30.9663 22.9101 30.9043 22.9108C30.8416 22.9112 30.7904 22.8602 30.791 22.7975C30.7914 22.7385 30.8375 22.6897 30.8965 22.6859H30.8965ZM30.8965 23.2485C30.9003 23.2484 30.9017 23.2484 30.9043 23.2485C30.9655 23.2492 31.0152 23.2988 31.0156 23.36C31.0164 23.422 30.9663 23.4726 30.9043 23.4734C30.8416 23.4737 30.7904 23.4227 30.791 23.36C30.7914 23.3006 30.8375 23.2522 30.8965 23.2485H30.8965ZM30.8848 23.811H30.8867C30.8943 23.8104 30.8967 23.8104 30.9043 23.811C30.9655 23.8117 31.0152 23.8612 31.0156 23.9221C31.0164 23.984 30.9663 24.0351 30.9043 24.0354C30.8416 24.0358 30.7904 23.9848 30.791 23.9221C30.7906 23.8669 30.8303 23.8185 30.8848 23.811ZM25.3789 24.1372C25.6211 24.1338 25.8646 24.2237 26.0527 24.4066C26.4292 24.7728 26.4364 25.37 26.0703 25.7464L24.2617 27.6058C23.8956 27.9834 23.2981 27.9903 22.9219 27.6248C22.5454 27.2585 22.5382 26.6609 22.9043 26.2848L24.7129 24.4275C24.896 24.2393 25.1367 24.1417 25.3789 24.1383V24.1372ZM30.8848 24.3734H30.8867C30.8943 24.3728 30.8967 24.3728 30.9043 24.3734C30.9655 24.3741 31.0152 24.4232 31.0156 24.4845C31.0153 24.5457 30.9655 24.5952 30.9043 24.596C30.8419 24.5968 30.7915 24.5464 30.791 24.4845C30.7906 24.4293 30.8303 24.3809 30.8848 24.3734ZM30.8965 24.9339C30.9003 24.9339 30.9017 24.9339 30.9043 24.9339C30.9663 24.9347 31.0163 24.9853 31.0156 25.0473C31.0153 25.1089 30.9655 25.158 30.9043 25.1587C30.842 25.1591 30.7915 25.1093 30.791 25.0473C30.7903 24.9872 30.8368 24.9377 30.8965 24.9339H30.8965ZM30.8965 25.4964C30.9003 25.4963 30.9017 25.4963 30.9043 25.4964C30.9663 25.4971 31.0163 25.5478 31.0156 25.6097C31.0153 25.6713 30.9655 25.7205 30.9043 25.7209C30.842 25.7213 30.7915 25.6713 30.791 25.6097C30.7903 25.5496 30.8368 25.5001 30.8965 25.4964H30.8965ZM30.8965 26.0589C30.9003 26.0588 30.9017 26.0588 30.9043 26.0589C30.9663 26.0596 31.0163 26.1103 31.0156 26.1723C31.0153 26.2339 30.9655 26.283 30.9043 26.2833C30.842 26.2837 30.7915 26.2342 30.791 26.1723C30.7903 26.1122 30.8368 26.0627 30.8965 26.0589H30.8965ZM30.8965 26.6214C30.9003 26.6213 30.9017 26.6213 30.9043 26.6214C30.9655 26.6222 31.0152 26.6716 31.0156 26.7328C31.0164 26.7948 30.9663 26.8454 30.9043 26.8462C30.8416 26.8466 30.7904 26.7956 30.791 26.7328C30.7914 26.6735 30.8375 26.6252 30.8965 26.6214H30.8965ZM19.8106 26.7873C20.0528 26.7839 20.2962 26.8739 20.4844 27.0568C20.8608 27.4231 20.8681 28.0202 20.502 28.3966L18.6934 30.2559C18.3272 30.6335 17.7298 30.6424 17.3535 30.2749C16.9771 29.9086 16.9698 29.3111 17.3359 28.935L19.1445 27.0777C19.3276 26.8895 19.5684 26.7919 19.8106 26.7885V26.7873ZM30.8965 27.1838C30.9003 27.1837 30.9017 27.1837 30.9043 27.1838C30.9655 27.1846 31.0152 27.234 31.0156 27.2952C31.0164 27.3572 30.9663 27.4079 30.9043 27.4086C30.8416 27.409 30.7904 27.358 30.791 27.2952C30.7914 27.2359 30.8375 27.1876 30.8965 27.1838H30.8965ZM30.8965 27.7463C30.9003 27.7463 30.9017 27.7463 30.9043 27.7463C30.9655 27.7471 31.0152 27.7962 31.0156 27.8574C31.0164 27.9194 30.9663 27.9704 30.9043 27.9708C30.8416 27.9712 30.7904 27.9201 30.791 27.8574C30.7914 27.7981 30.8375 27.7497 30.8965 27.7463H30.8965ZM30.8848 28.3087H30.8867C30.8943 28.3082 30.8967 28.3082 30.9043 28.3087C30.9655 28.3095 31.0152 28.3591 31.0156 28.4199C31.0153 28.4812 30.9655 28.5306 30.9043 28.5313C30.8419 28.5321 30.7915 28.4819 30.791 28.4199C30.7906 28.3647 30.8303 28.3163 30.8848 28.3087ZM30.9043 28.8693C30.9667 28.8701 31.0162 28.9207 31.0156 28.9827C31.0149 29.0443 30.9655 29.0935 30.9043 29.0942C30.842 29.0946 30.7915 29.0447 30.791 28.9827C30.7907 28.9199 30.8416 28.8689 30.9043 28.8693ZM25.3789 29.3518C25.6211 29.3484 25.8646 29.4383 26.0528 29.6212C26.4292 29.9875 26.4365 30.5846 26.0703 30.961L24.2617 32.8205C23.8956 33.198 23.2981 33.2049 22.9219 32.8394C22.5455 32.4731 22.5382 31.8755 22.9043 31.4994L24.7129 29.6421C24.896 29.4539 25.1367 29.3563 25.3789 29.3529V29.3518ZM30.8965 29.4318C30.9003 29.4317 30.9017 29.4317 30.9043 29.4318C30.9663 29.4326 31.0163 29.4832 31.0157 29.5452C31.0153 29.6068 30.9656 29.656 30.9043 29.6564C30.842 29.6568 30.7915 29.6072 30.791 29.5452C30.7903 29.4851 30.8368 29.4356 30.8965 29.4318H30.8965ZM30.8965 29.9943C30.9003 29.9943 30.9017 29.9943 30.9043 29.9943C30.9663 29.9951 31.0163 30.0457 31.0157 30.1077C31.0153 30.1693 30.9656 30.2184 30.9043 30.2188C30.842 30.2192 30.7915 30.1693 30.791 30.1077C30.7903 30.0476 30.8368 29.9981 30.8965 29.9943H30.8965ZM30.8965 30.5569C30.9003 30.5568 30.9017 30.5568 30.9043 30.5569C30.9663 30.5576 31.0163 30.6083 31.0157 30.6702C31.0153 30.7315 30.9656 30.7809 30.9043 30.7813C30.842 30.7821 30.7915 30.7322 30.791 30.6702C30.7903 30.6102 30.8368 30.5606 30.8965 30.5569H30.8965ZM30.8965 31.1194C30.9003 31.1193 30.9017 31.1193 30.9043 31.1194C30.9656 31.1201 31.0152 31.1696 31.0157 31.2308C31.0164 31.2928 30.9663 31.3434 30.9043 31.3442C30.8416 31.3446 30.7904 31.2936 30.791 31.2308C30.7914 31.1715 30.8376 31.1232 30.8965 31.1194H30.8965ZM30.8965 31.6819C30.9003 31.6818 30.9017 31.6818 30.9043 31.6819C30.9656 31.6827 31.0152 31.7321 31.0157 31.793C31.0164 31.855 30.9663 31.906 30.9043 31.9064C30.8416 31.9067 30.7904 31.8557 30.791 31.793C30.7914 31.7337 30.8376 31.6853 30.8965 31.6819H30.8965ZM19.8106 32.047C20.0528 32.0436 20.2963 32.1335 20.4844 32.3164C20.8608 32.6826 20.8681 33.2799 20.502 33.6563L18.6934 35.5157C18.3273 35.8932 17.7298 35.9021 17.3535 35.5346C16.9771 35.1683 16.9698 34.5708 17.336 34.1948L19.1446 32.3373C19.3276 32.1491 19.5684 32.0515 19.8106 32.0481V32.047ZM30.8848 32.2442H30.8867C30.8943 32.2436 30.8968 32.2436 30.9043 32.2442C30.9655 32.245 31.0152 32.2942 31.0156 32.3554C31.0164 32.4174 30.9663 32.4684 30.9043 32.4688C30.8416 32.4692 30.7904 32.4181 30.791 32.3554C30.7907 32.3002 30.8304 32.2518 30.8848 32.2442H30.8848ZM30.8848 32.8067H30.8867C30.8943 32.8062 30.8968 32.8062 30.9043 32.8067C30.9655 32.8071 31.0152 32.8571 31.0156 32.9179C31.0153 32.9795 30.9655 33.0286 30.9043 33.0293C30.842 33.0297 30.7915 32.9799 30.791 32.9179C30.7907 32.8631 30.8304 32.8143 30.8848 32.8067H30.8848ZM30.9043 33.3673C30.9667 33.368 31.0162 33.4187 31.0157 33.4807C31.0149 33.5423 30.9656 33.5914 30.9043 33.5917C30.842 33.5921 30.7915 33.5423 30.791 33.4807C30.7907 33.4179 30.8416 33.3669 30.9043 33.3673ZM30.8965 33.9298C30.9003 33.9298 30.9017 33.9298 30.9043 33.9298C30.9663 33.9306 31.0163 33.9812 31.0157 34.0432C31.0153 34.1048 30.9656 34.1539 30.9043 34.1543C30.842 34.1546 30.7915 34.1052 30.791 34.0432C30.7903 33.9831 30.8368 33.9336 30.8965 33.9298H30.8965ZM30.8965 34.4922C30.9003 34.4921 30.9017 34.4921 30.9043 34.4922C30.9663 34.493 31.0163 34.5437 31.0157 34.6057C31.0153 34.6673 30.9656 34.7164 30.9043 34.7168C30.842 34.7172 30.7915 34.6673 30.791 34.6057C30.7903 34.5456 30.8368 34.496 30.8965 34.4922H30.8965ZM23.8418 34.9629C24.084 34.9595 24.3275 35.0496 24.5156 35.2325C24.8921 35.5987 24.8993 36.1959 24.5332 36.5723L22.7246 38.4317C22.3585 38.8093 21.761 38.818 21.3848 38.4505C21.0083 38.0843 21.0011 37.4868 21.3672 37.1107L23.1758 35.2534C23.3589 35.0651 23.5996 34.9676 23.8418 34.9642L23.8418 34.9629ZM30.8965 35.0549C30.9003 35.0547 30.9017 35.0547 30.9043 35.0549C30.9656 35.0556 31.0152 35.1051 31.0157 35.1663C31.0164 35.2283 30.9663 35.2789 30.9043 35.2797C30.8416 35.28 30.7904 35.229 30.791 35.1663C30.7914 35.1069 30.8376 35.0586 30.8965 35.0549H30.8965ZM30.8965 35.6174C30.9003 35.6173 30.9017 35.6173 30.9043 35.6174C30.9656 35.6181 31.0152 35.6672 31.0157 35.7285C31.0164 35.7904 30.9663 35.8415 30.9043 35.8418C30.8416 35.8422 30.7904 35.7912 30.791 35.7285C30.7914 35.6691 30.8376 35.6208 30.8965 35.6174H30.8965ZM30.8965 36.1798C30.9003 36.1797 30.9017 36.1797 30.9043 36.1798C30.9656 36.1805 31.0152 36.2301 31.0157 36.291C31.0164 36.353 30.9663 36.404 30.9043 36.4044C30.8416 36.4047 30.7904 36.3537 30.791 36.291C30.7914 36.2316 30.8376 36.1832 30.8965 36.1798H30.8965ZM30.8965 36.7423C30.9003 36.7422 30.9017 36.7422 30.9043 36.7423C30.9656 36.7431 31.0152 36.7923 31.0157 36.8535C31.0164 36.9155 30.9663 36.9661 30.9043 36.9669C30.8416 36.9673 30.7904 36.9162 30.791 36.8535C30.7914 36.7942 30.8376 36.7457 30.8965 36.7423H30.8965ZM30.8848 37.3048H30.8867C30.8943 37.3043 30.8968 37.3043 30.9043 37.3048C30.9655 37.3056 31.0152 37.355 31.0156 37.4163C31.0153 37.4775 30.9655 37.5271 30.9043 37.5275C30.842 37.5282 30.7915 37.4782 30.791 37.4163C30.7907 37.3611 30.8304 37.3124 30.8848 37.3048H30.8848ZM30.8965 37.8654C30.9003 37.8654 30.9017 37.8654 30.9043 37.8654C30.9663 37.8662 31.0163 37.9168 31.0157 37.9788C31.0153 38.0404 30.9656 38.0895 30.9043 38.0899C30.842 38.0902 30.7915 38.0404 30.791 37.9788C30.7903 37.9187 30.8368 37.8692 30.8965 37.8654H30.8965ZM30.8965 38.4278C30.9003 38.4277 30.9017 38.4277 30.9043 38.4278C30.9663 38.4286 31.0163 38.4792 31.0157 38.5412C31.0153 38.6028 30.9656 38.652 30.9043 38.6524C30.842 38.6528 30.7915 38.6032 30.791 38.5412C30.7903 38.4811 30.8368 38.4316 30.8965 38.4278H30.8965ZM30.8965 38.9903C30.9003 38.9902 30.9017 38.9902 30.9043 38.9903C30.9663 38.9911 31.0163 39.0417 31.0157 39.1037C31.0153 39.1653 30.9656 39.2145 30.9043 39.2152C30.842 39.2156 30.7915 39.1657 30.791 39.1037C30.7903 39.0436 30.8368 38.9941 30.8965 38.9903H30.8965ZM30.8965 39.5529C30.9003 39.5528 30.9017 39.5528 30.9043 39.5529C30.9656 39.5536 31.0152 39.6032 31.0157 39.6644C31.0164 39.7264 30.9663 39.777 30.9043 39.7778C30.8416 39.7781 30.7904 39.7271 30.791 39.6644C30.7914 39.6051 30.8376 39.5566 30.8965 39.5529H30.8965ZM30.8965 40.1154C30.9003 40.1153 30.9017 40.1153 30.9043 40.1154C30.9656 40.1161 31.0152 40.1652 31.0157 40.2265C31.0164 40.2884 30.9663 40.3395 30.9043 40.3398C30.8416 40.3402 30.7904 40.2892 30.791 40.2265C30.7914 40.1671 30.8376 40.1188 30.8965 40.1154H30.8965ZM30.8965 40.6779C30.9003 40.6778 30.9017 40.6778 30.9043 40.6779C30.9656 40.6787 31.0152 40.7281 31.0157 40.789C31.0164 40.851 30.9663 40.9016 30.9043 40.9024C30.8416 40.9027 30.7904 40.8517 30.791 40.789C30.7914 40.7296 30.8376 40.6813 30.8965 40.6779H30.8965ZM30.8848 41.2403H30.8867C30.8943 41.2397 30.8968 41.2397 30.9043 41.2403C30.9655 41.2411 31.0152 41.2906 31.0156 41.3518C31.0164 41.4138 30.9663 41.4645 30.9043 41.4652C30.8416 41.4656 30.7904 41.4146 30.791 41.3518C30.7907 41.2967 30.8304 41.2479 30.8848 41.2403H30.8848ZM30.8848 41.8028H30.8867C30.8943 41.8023 30.8968 41.8023 30.9043 41.8028C30.9655 41.8036 31.0152 41.8531 31.0156 41.9144C31.0153 41.976 30.9655 42.0251 30.9043 42.0254C30.842 42.0258 30.7915 41.9764 30.791 41.9144C30.7907 41.8592 30.8304 41.8104 30.8848 41.8028H30.8848ZM30.9043 42.3634C30.9667 42.3642 31.0162 42.4148 31.0157 42.4768C31.0149 42.5384 30.9656 42.5876 30.9043 42.588C30.842 42.5883 30.7915 42.5384 30.791 42.4768C30.7907 42.414 30.8416 42.363 30.9043 42.3634ZM30.8965 42.9259C30.9003 42.9258 30.9017 42.9258 30.9043 42.9259C30.9663 42.9267 31.0163 42.9773 31.0157 43.0393C31.0153 43.1009 30.9656 43.1501 30.9043 43.1508C30.842 43.1512 30.7915 43.1013 30.791 43.0393C30.7903 42.9792 30.8368 42.9297 30.8965 42.9259H30.8965Z" fill="#333333"/>
</svg>
