<svg width="48" height="48" viewBox="0 0 48 48" fill="none" xmlns="http://www.w3.org/2000/svg">
<path d="M23.7169 4.13692C20.4259 4.14392 17.193 4.15892 14.037 4.15792C13.8311 4.15779 13.6272 4.19827 13.437 4.27705C13.2469 4.35583 13.0741 4.47135 12.9286 4.61701C12.7832 4.76266 12.6678 4.93558 12.5893 5.12587C12.5108 5.31616 12.4706 5.52007 12.471 5.72592V42.5879C12.471 43.4579 13.168 44.1579 14.037 44.1579H33.742C34.612 44.1579 35.311 43.4579 35.311 42.5879V5.72692C35.311 4.85692 34.611 4.15792 33.742 4.15792C30.4003 4.13285 27.0586 4.12585 23.7169 4.13692ZM19.8829 5.19892H19.891C19.9203 5.19997 19.948 5.2125 19.9682 5.2338C19.9884 5.25511 19.9995 5.2835 19.9989 5.31285C19.9984 5.3422 19.9864 5.37018 19.9654 5.39075C19.9445 5.41132 19.9163 5.42285 19.8869 5.42285C19.8576 5.42285 19.8294 5.41132 19.8085 5.39075C19.7875 5.37018 19.7755 5.3422 19.775 5.31285C19.7744 5.2835 19.7855 5.25511 19.8057 5.2338C19.8259 5.2125 19.8536 5.19997 19.8829 5.19892ZM27.8829 5.19892H27.891C27.9203 5.19997 27.948 5.2125 27.9682 5.2338C27.9884 5.25511 27.9995 5.2835 27.9989 5.31285C27.9984 5.3422 27.9864 5.37018 27.9654 5.39075C27.9445 5.41132 27.9163 5.42285 27.8869 5.42285C27.8576 5.42285 27.8294 5.41132 27.8085 5.39075C27.7875 5.37018 27.7755 5.3422 27.775 5.31285C27.7744 5.2835 27.7855 5.25511 27.8057 5.2338C27.8259 5.2125 27.8536 5.19997 27.8829 5.19892ZM19.8829 5.76192H19.891C19.9203 5.76297 19.948 5.7755 19.9682 5.7968C19.9884 5.81811 19.9995 5.8465 19.9989 5.87585C19.9984 5.9052 19.9864 5.93318 19.9654 5.95375C19.9445 5.97432 19.9163 5.98585 19.8869 5.98585C19.8576 5.98585 19.8294 5.97432 19.8085 5.95375C19.7875 5.93318 19.7755 5.9052 19.775 5.87585C19.7744 5.8465 19.7855 5.81811 19.8057 5.7968C19.8259 5.7755 19.8536 5.76297 19.8829 5.76192ZM27.8829 5.76192H27.891C27.9203 5.76297 27.948 5.7755 27.9682 5.7968C27.9884 5.81811 27.9995 5.8465 27.9989 5.87585C27.9984 5.9052 27.9864 5.93318 27.9654 5.95375C27.9445 5.97432 27.9163 5.98585 27.8869 5.98585C27.8576 5.98585 27.8294 5.97432 27.8085 5.95375C27.7875 5.93318 27.7755 5.9052 27.775 5.87585C27.7744 5.8465 27.7855 5.81811 27.8057 5.7968C27.8259 5.7755 27.8536 5.76297 27.8829 5.76192ZM19.8729 6.32392H19.891C19.951 6.32492 20.001 6.37392 20.002 6.43592C20.002 6.46576 19.9901 6.49437 19.969 6.51547C19.9479 6.53657 19.9193 6.54842 19.8895 6.54842C19.8596 6.54842 19.831 6.53657 19.8099 6.51547C19.7888 6.49437 19.777 6.46576 19.777 6.43592C19.777 6.38092 19.8189 6.33192 19.8729 6.32392ZM27.8729 6.32392H27.891C27.951 6.32492 28.001 6.37392 28.002 6.43592C28.002 6.46576 27.9901 6.49437 27.969 6.51547C27.9479 6.53657 27.9193 6.54842 27.8895 6.54842C27.8596 6.54842 27.831 6.53657 27.8099 6.51547C27.7888 6.49437 27.777 6.46576 27.777 6.43592C27.777 6.38092 27.8189 6.33192 27.8729 6.32392ZM24.1089 6.61892C24.5333 6.61892 24.9403 6.78749 25.2403 7.08755C25.5404 7.38761 25.709 7.79458 25.709 8.21892C25.709 8.64327 25.5404 9.05023 25.2403 9.35029C24.9403 9.65035 24.5333 9.81892 24.1089 9.81892C23.6846 9.81892 23.2776 9.65035 22.9776 9.35029C22.6775 9.05023 22.509 8.64327 22.509 8.21892C22.509 7.79458 22.6775 7.38761 22.9776 7.08755C23.2776 6.78749 23.6846 6.61892 24.1089 6.61892ZM19.893 6.88492C19.9077 6.88505 19.9222 6.88808 19.9357 6.89383C19.9493 6.89958 19.9615 6.90794 19.9719 6.91843C19.9822 6.92893 19.9903 6.94135 19.9958 6.95499C20.0013 6.96862 20.0041 6.98321 20.004 6.99792C20.0038 7.01263 20.0008 7.02717 19.995 7.04071C19.9893 7.05424 19.9809 7.06652 19.9704 7.07682C19.9599 7.08713 19.9475 7.09527 19.9339 7.10078C19.9202 7.10629 19.9057 7.10905 19.891 7.10892C19.8612 7.10866 19.8329 7.0966 19.812 7.07541C19.7912 7.05422 19.7797 7.02563 19.78 6.99592C19.7802 6.96622 19.7923 6.93784 19.8135 6.91702C19.8347 6.8962 19.8632 6.88466 19.893 6.88492ZM27.893 6.88492C27.9077 6.88505 27.9222 6.88808 27.9357 6.89383C27.9493 6.89958 27.9615 6.90794 27.9719 6.91843C27.9822 6.92893 27.9903 6.94135 27.9958 6.95499C28.0013 6.96862 28.0041 6.98321 28.004 6.99792C28.0038 7.01263 28.0008 7.02717 27.995 7.04071C27.9893 7.05424 27.9809 7.06652 27.9704 7.07682C27.9599 7.08713 27.9475 7.09527 27.9339 7.10078C27.9202 7.10629 27.9057 7.10905 27.891 7.10892C27.8612 7.10866 27.8329 7.0966 27.812 7.07541C27.7912 7.05422 27.7797 7.02563 27.78 6.99592C27.7802 6.96622 27.7923 6.93784 27.8135 6.91702C27.8347 6.8962 27.8632 6.88466 27.893 6.88492ZM19.8829 7.44792H19.891C19.9206 7.44897 19.9486 7.4616 19.9689 7.4831C19.9893 7.50459 20.0005 7.53323 19.9999 7.56285C19.9994 7.59247 19.9873 7.6207 19.9661 7.64146C19.945 7.66222 19.9166 7.67385 19.8869 7.67385C19.8573 7.67385 19.8289 7.66222 19.8078 7.64146C19.7866 7.6207 19.7745 7.59247 19.774 7.56285C19.7734 7.53323 19.7846 7.50459 19.805 7.4831C19.8253 7.4616 19.8533 7.44897 19.8829 7.44792ZM27.8829 7.44792H27.891C27.9206 7.44897 27.9486 7.4616 27.9689 7.4831C27.9893 7.50459 28.0005 7.53323 27.9999 7.56285C27.9994 7.59247 27.9873 7.6207 27.9661 7.64146C27.945 7.66222 27.9166 7.67385 27.8869 7.67385C27.8573 7.67385 27.8289 7.66222 27.8078 7.64146C27.7866 7.6207 27.7745 7.59247 27.774 7.56285C27.7734 7.53323 27.7846 7.50459 27.805 7.4831C27.8253 7.4616 27.8533 7.44897 27.8829 7.44792ZM19.8829 8.00792H19.891C19.9206 8.00897 19.9486 8.0216 19.9689 8.0431C19.9893 8.06459 20.0005 8.09323 19.9999 8.12285C19.9994 8.15247 19.9873 8.1807 19.9661 8.20146C19.945 8.22222 19.9166 8.23385 19.8869 8.23385C19.8573 8.23385 19.8289 8.22222 19.8078 8.20146C19.7866 8.1807 19.7745 8.15247 19.774 8.12285C19.7734 8.09323 19.7846 8.06459 19.805 8.0431C19.8253 8.0216 19.8533 8.00897 19.8829 8.00792ZM27.8829 8.00792H27.891C27.9206 8.00897 27.9486 8.0216 27.9689 8.0431C27.9893 8.06459 28.0005 8.09323 27.9999 8.12285C27.9994 8.15247 27.9873 8.1807 27.9661 8.20146C27.945 8.22222 27.9166 8.23385 27.8869 8.23385C27.8573 8.23385 27.8289 8.22222 27.8078 8.20146C27.7866 8.1807 27.7745 8.15247 27.774 8.12285C27.7734 8.09323 27.7846 8.06459 27.805 8.0431C27.8253 8.0216 27.8533 8.00897 27.8829 8.00792ZM19.8829 8.57092H19.891C19.9206 8.57197 19.9486 8.5846 19.9689 8.6061C19.9893 8.62759 20.0005 8.65623 19.9999 8.68585C19.9994 8.71547 19.9873 8.7437 19.9661 8.76446C19.945 8.78522 19.9166 8.79685 19.8869 8.79685C19.8573 8.79685 19.8289 8.78522 19.8078 8.76446C19.7866 8.7437 19.7745 8.71547 19.774 8.68585C19.7734 8.65623 19.7846 8.62759 19.805 8.6061C19.8253 8.5846 19.8533 8.57197 19.8829 8.57092ZM27.8829 8.57092H27.891C27.9206 8.57197 27.9486 8.5846 27.9689 8.6061C27.9893 8.62759 28.0005 8.65623 27.9999 8.68585C27.9994 8.71547 27.9873 8.7437 27.9661 8.76446C27.945 8.78522 27.9166 8.79685 27.8869 8.79685C27.8573 8.79685 27.8289 8.78522 27.8078 8.76446C27.7866 8.7437 27.7745 8.71547 27.774 8.68585C27.7734 8.65623 27.7846 8.62759 27.805 8.6061C27.8253 8.5846 27.8533 8.57197 27.8829 8.57092ZM19.8829 9.13292H19.891C19.9203 9.13397 19.948 9.1465 19.9682 9.1678C19.9884 9.18911 19.9995 9.2175 19.9989 9.24685C19.9984 9.2762 19.9864 9.30418 19.9654 9.32475C19.9445 9.34532 19.9163 9.35685 19.8869 9.35685C19.8576 9.35685 19.8294 9.34532 19.8085 9.32475C19.7875 9.30418 19.7755 9.2762 19.775 9.24685C19.7744 9.2175 19.7855 9.18911 19.8057 9.1678C19.8259 9.1465 19.8536 9.13397 19.8829 9.13292ZM27.8829 9.13292H27.891C27.9203 9.13397 27.948 9.1465 27.9682 9.1678C27.9884 9.18911 27.9995 9.2175 27.9989 9.24685C27.9984 9.2762 27.9864 9.30418 27.9654 9.32475C27.9445 9.34532 27.9163 9.35685 27.8869 9.35685C27.8576 9.35685 27.8294 9.34532 27.8085 9.32475C27.7875 9.30418 27.7755 9.2762 27.775 9.24685C27.7744 9.2175 27.7855 9.18911 27.8057 9.1678C27.8259 9.1465 27.8536 9.13397 27.8829 9.13292ZM16.516 9.43192C16.7294 9.42659 16.9417 9.46401 17.1404 9.54199C17.3391 9.61998 17.5203 9.73694 17.6731 9.886C17.8259 10.0351 17.9474 10.2132 18.0303 10.4099C18.1132 10.6066 18.1559 10.8179 18.1559 11.0314C18.1559 11.2449 18.1132 11.4562 18.0303 11.6529C17.9474 11.8497 17.8259 12.0278 17.6731 12.1768C17.5203 12.3259 17.3391 12.4429 17.1404 12.5208C16.9417 12.5988 16.7294 12.6363 16.516 12.6309C16.0916 12.6309 15.6846 12.4624 15.3846 12.1623C15.0845 11.8622 14.916 11.4553 14.916 11.0309C14.916 10.6066 15.0845 10.1996 15.3846 9.89955C15.6846 9.59949 16.0916 9.43092 16.516 9.43092V9.43192ZM31.266 9.43192C31.4794 9.42659 31.6917 9.46401 31.8904 9.54199C32.0891 9.61998 32.2703 9.73694 32.4231 9.886C32.5759 10.0351 32.6974 10.2132 32.7803 10.4099C32.8632 10.6066 32.9059 10.8179 32.9059 11.0314C32.9059 11.2449 32.8632 11.4562 32.7803 11.6529C32.6974 11.8497 32.5759 12.0278 32.4231 12.1768C32.2703 12.3259 32.0891 12.4429 31.8904 12.5208C31.6917 12.5988 31.4794 12.6363 31.266 12.6309C30.8416 12.6309 30.4346 12.4624 30.1346 12.1623C29.8345 11.8622 29.666 11.4553 29.666 11.0309C29.666 10.6066 29.8345 10.1996 30.1346 9.89955C30.4346 9.59949 30.8416 9.43092 31.266 9.43092V9.43192ZM19.8829 9.69592H19.891C19.9203 9.69697 19.948 9.7095 19.9682 9.7308C19.9884 9.75211 19.9995 9.7805 19.9989 9.80985C19.9984 9.8392 19.9864 9.86718 19.9654 9.88775C19.9445 9.90832 19.9163 9.91985 19.8869 9.91985C19.8576 9.91985 19.8294 9.90832 19.8085 9.88775C19.7875 9.86718 19.7755 9.8392 19.775 9.80985C19.7744 9.7805 19.7855 9.75211 19.8057 9.7308C19.8259 9.7095 19.8536 9.69697 19.8829 9.69592ZM27.8829 9.69592H27.891C27.9203 9.69697 27.948 9.7095 27.9682 9.7308C27.9884 9.75211 27.9995 9.7805 27.9989 9.80985C27.9984 9.8392 27.9864 9.86718 27.9654 9.88775C27.9445 9.90832 27.9163 9.91985 27.8869 9.91985C27.8576 9.91985 27.8294 9.90832 27.8085 9.88775C27.7875 9.86718 27.7755 9.8392 27.775 9.80985C27.7744 9.7805 27.7855 9.75211 27.8057 9.7308C27.8259 9.7095 27.8536 9.69697 27.8829 9.69592ZM19.871 10.2579H19.891C19.951 10.2579 20.001 10.3099 20.002 10.3709C20.002 10.4008 19.9901 10.4294 19.969 10.4505C19.9479 10.4716 19.9193 10.4834 19.8895 10.4834C19.8596 10.4834 19.831 10.4716 19.8099 10.4505C19.7888 10.4294 19.777 10.4008 19.777 10.3709C19.777 10.3159 19.817 10.2659 19.871 10.2579ZM27.871 10.2579H27.891C27.951 10.2579 28.001 10.3099 28.002 10.3709C28.002 10.4008 27.9901 10.4294 27.969 10.4505C27.9479 10.4716 27.9193 10.4834 27.8895 10.4834C27.8596 10.4834 27.831 10.4716 27.8099 10.4505C27.7888 10.4294 27.777 10.4008 27.777 10.3709C27.777 10.3159 27.817 10.2659 27.871 10.2579ZM19.893 10.8179C19.9549 10.8189 20.004 10.8719 20.003 10.9339C20.003 10.9631 19.9914 10.9911 19.9707 11.0117C19.9501 11.0323 19.9221 11.0439 19.893 11.0439C19.8782 11.0445 19.8634 11.042 19.8496 11.0367C19.8358 11.0314 19.8232 11.0234 19.8126 11.0132C19.8019 11.0029 19.7935 10.9906 19.7877 10.977C19.7819 10.9633 19.7789 10.9487 19.7789 10.9339C19.7789 10.8709 19.8289 10.8179 19.893 10.8189V10.8179ZM27.893 10.8179C27.955 10.8189 28.004 10.8719 28.003 10.9339C28.003 10.9631 27.9914 10.9911 27.9707 11.0117C27.9501 11.0323 27.9221 11.0439 27.893 11.0439C27.8782 11.0445 27.8634 11.042 27.8496 11.0367C27.8358 11.0314 27.8232 11.0234 27.8126 11.0132C27.8019 11.0029 27.7935 10.9906 27.7877 10.977C27.7819 10.9633 27.7789 10.9487 27.7789 10.9339C27.7789 10.8709 27.8289 10.8179 27.893 10.8189V10.8179ZM19.893 11.3809C19.9228 11.3812 19.9513 11.3933 19.9722 11.4146C19.9931 11.4359 20.0047 11.4646 20.0044 11.4944C20.0042 11.5243 19.9921 11.5528 19.9708 11.5737C19.9495 11.5946 19.9208 11.6062 19.891 11.6059C19.8762 11.6058 19.8616 11.6028 19.848 11.597C19.8344 11.5912 19.822 11.5828 19.8117 11.5723C19.8013 11.5617 19.7932 11.5492 19.7876 11.5356C19.7821 11.5219 19.7793 11.5072 19.7794 11.4924C19.7796 11.4776 19.7826 11.463 19.7884 11.4494C19.7942 11.4358 19.8026 11.4235 19.8131 11.4132C19.8236 11.4028 19.8361 11.3946 19.8498 11.3891C19.8635 11.3836 19.8782 11.3808 19.893 11.3809ZM27.893 11.3809C27.9228 11.3812 27.9513 11.3933 27.9722 11.4146C27.9931 11.4359 28.0047 11.4646 28.0044 11.4944C28.0042 11.5243 27.9921 11.5528 27.9708 11.5737C27.9495 11.5946 27.9208 11.6062 27.891 11.6059C27.8762 11.6058 27.8616 11.6028 27.848 11.597C27.8344 11.5912 27.822 11.5828 27.8117 11.5723C27.7908 11.551 27.7792 11.5223 27.7794 11.4924C27.7797 11.4626 27.7918 11.4341 27.8131 11.4132C27.8344 11.3923 27.8631 11.3807 27.893 11.3809ZM24.1089 11.7909C24.5333 11.7909 24.9403 11.9595 25.2403 12.2596C25.5404 12.5596 25.709 12.9666 25.709 13.3909C25.709 13.8153 25.5404 14.2222 25.2403 14.5223C24.9403 14.8224 24.5333 14.9909 24.1089 14.9909C23.6846 14.9909 23.2776 14.8224 22.9776 14.5223C22.6775 14.2222 22.509 13.8153 22.509 13.3909C22.509 12.9666 22.6775 12.5596 22.9776 12.2596C23.2776 11.9595 23.6846 11.7909 24.1089 11.7909ZM19.8829 11.9439C19.8984 11.943 19.9138 11.9452 19.9283 11.9504C19.9429 11.9557 19.9562 11.9638 19.9674 11.9744C19.9787 11.985 19.9876 11.9978 19.9937 12.012C19.9998 12.0262 20.003 12.0415 20.003 12.0569C20.002 12.1179 19.952 12.1699 19.891 12.1699C19.8634 12.1674 19.8376 12.1548 19.8186 12.1347C19.7996 12.1145 19.7885 12.0881 19.7875 12.0604C19.7866 12.0327 19.7957 12.0056 19.8133 11.9842C19.8308 11.9627 19.8556 11.9484 19.8829 11.9439ZM27.8829 11.9439C27.8984 11.943 27.9138 11.9452 27.9283 11.9504C27.9429 11.9557 27.9562 11.9638 27.9674 11.9744C27.9787 11.985 27.9876 11.9978 27.9937 12.012C27.9998 12.0262 28.003 12.0415 28.003 12.0569C28.002 12.1179 27.952 12.1699 27.891 12.1699C27.8634 12.1674 27.8376 12.1548 27.8186 12.1347C27.7996 12.1145 27.7885 12.0881 27.7875 12.0604C27.7866 12.0327 27.7957 12.0056 27.8133 11.9842C27.8308 11.9627 27.8556 11.9484 27.8829 11.9439ZM19.8829 12.5059C19.8984 12.5048 19.9139 12.5069 19.9285 12.5121C19.9431 12.5173 19.9565 12.5255 19.9677 12.5361C19.979 12.5467 19.988 12.5596 19.994 12.5738C20.0001 12.5881 20.0031 12.6034 20.003 12.6189C20.002 12.6809 19.952 12.7319 19.891 12.7329C19.8625 12.7315 19.8356 12.7194 19.8156 12.699C19.7956 12.6787 19.7839 12.6516 19.7829 12.6231C19.7819 12.5946 19.7916 12.5667 19.8101 12.545C19.8287 12.5234 19.8546 12.5094 19.8829 12.5059ZM27.8829 12.5059C27.8984 12.5048 27.9139 12.5069 27.9285 12.5121C27.9431 12.5173 27.9565 12.5255 27.9677 12.5361C27.979 12.5467 27.988 12.5596 27.994 12.5738C28.0001 12.5881 28.0031 12.6034 28.003 12.6189C28.002 12.6809 27.952 12.7319 27.891 12.7329C27.8625 12.7315 27.8356 12.7194 27.8156 12.699C27.7956 12.6787 27.7839 12.6516 27.7829 12.6231C27.7819 12.5946 27.7916 12.5667 27.8101 12.545C27.8287 12.5234 27.8546 12.5094 27.8829 12.5059ZM16.516 14.7239C16.9403 14.7239 17.3473 14.8925 17.6473 15.1926C17.9474 15.4926 18.1159 15.8996 18.1159 16.3239C18.1159 16.7483 17.9474 17.1552 17.6473 17.4553C17.3473 17.7554 16.9403 17.9239 16.516 17.9239C16.0916 17.9239 15.6846 17.7554 15.3846 17.4553C15.0845 17.1552 14.916 16.7483 14.916 16.3239C14.916 15.8996 15.0845 15.4926 15.3846 15.1926C15.6846 14.8925 16.0916 14.7239 16.516 14.7239ZM31.266 14.7239C31.6903 14.7239 32.0973 14.8925 32.3973 15.1926C32.6974 15.4926 32.866 15.8996 32.866 16.3239C32.866 16.7483 32.6974 17.1552 32.3973 17.4553C32.0973 17.7554 31.6903 17.9239 31.266 17.9239C30.8416 17.9239 30.4346 17.7554 30.1346 17.4553C29.8345 17.1552 29.666 16.7483 29.666 16.3239C29.666 15.8996 29.8345 15.4926 30.1346 15.1926C30.4346 14.8925 30.8416 14.7239 31.266 14.7239ZM19.871 14.7559H19.891C19.9131 14.7561 19.9347 14.7629 19.953 14.7754C19.9713 14.7878 19.9855 14.8054 19.9938 14.826C20.0021 14.8465 20.0041 14.8691 19.9996 14.8907C19.9951 14.9124 19.9842 14.9323 19.9684 14.9478C19.9526 14.9633 19.9326 14.9738 19.9108 14.978C19.8891 14.9821 19.8666 14.9797 19.8462 14.971C19.8258 14.9623 19.8084 14.9478 19.7963 14.9293C19.7841 14.9108 19.7778 14.8891 19.778 14.8669C19.777 14.8129 19.817 14.7639 19.871 14.7569V14.7559ZM27.871 14.7559H27.891C27.9131 14.7561 27.9347 14.7629 27.953 14.7754C27.9713 14.7878 27.9855 14.8054 27.9938 14.826C28.0021 14.8465 28.0041 14.8691 27.9996 14.8907C27.9951 14.9124 27.9842 14.9323 27.9684 14.9478C27.9526 14.9633 27.9326 14.9738 27.9108 14.978C27.8891 14.9821 27.8666 14.9797 27.8462 14.971C27.8258 14.9623 27.8084 14.9478 27.7963 14.9293C27.7841 14.9108 27.7778 14.8891 27.778 14.8669C27.7769 14.8129 27.817 14.7639 27.871 14.7569V14.7559ZM19.871 15.3189H19.891C19.951 15.3189 20.001 15.3689 20.002 15.4289C20.0021 15.4503 19.996 15.4713 19.9846 15.4894C19.9731 15.5075 19.9567 15.5219 19.9373 15.531C19.9179 15.54 19.8963 15.5433 19.8751 15.5405C19.8539 15.5376 19.8339 15.5288 19.8176 15.515C19.8013 15.5011 19.7892 15.4829 19.7829 15.4625C19.7766 15.442 19.7763 15.4202 19.782 15.3995C19.7877 15.3789 19.7992 15.3604 19.8152 15.3461C19.8311 15.3318 19.8508 15.3224 19.872 15.3189H19.871ZM27.871 15.3189H27.891C27.951 15.3189 28.001 15.3689 28.002 15.4289C28.0021 15.4503 27.996 15.4713 27.9846 15.4894C27.9731 15.5075 27.9567 15.5219 27.9373 15.531C27.9179 15.54 27.8963 15.5433 27.8751 15.5405C27.8539 15.5376 27.8339 15.5288 27.8176 15.515C27.8013 15.5011 27.7892 15.4829 27.7829 15.4625C27.7766 15.442 27.7763 15.4202 27.782 15.3995C27.7877 15.3789 27.7992 15.3604 27.8152 15.3461C27.8311 15.3318 27.8508 15.3224 27.872 15.3189H27.871ZM19.893 15.8789C19.9228 15.8792 19.9513 15.8913 19.9722 15.9126C19.9931 15.9339 20.0047 15.9626 20.0044 15.9924C20.0042 16.0223 19.9921 16.0508 19.9708 16.0717C19.9495 16.0926 19.9208 16.1042 19.891 16.1039C19.8762 16.1038 19.8616 16.1008 19.848 16.095C19.8344 16.0892 19.822 16.0808 19.8117 16.0703C19.8013 16.0597 19.7932 16.0472 19.7876 16.0336C19.7821 16.0199 19.7793 16.0052 19.7794 15.9904C19.7796 15.9756 19.7826 15.961 19.7884 15.9474C19.7942 15.9338 19.8026 15.9215 19.8131 15.9112C19.8236 15.9008 19.8361 15.8926 19.8498 15.8871C19.8635 15.8816 19.8782 15.8788 19.893 15.8789ZM27.893 15.8789C27.9228 15.8792 27.9513 15.8913 27.9722 15.9126C27.9931 15.9339 28.0047 15.9626 28.0044 15.9924C28.0042 16.0223 27.9921 16.0508 27.9708 16.0717C27.9495 16.0926 27.9208 16.1042 27.891 16.1039C27.8762 16.1038 27.8616 16.1008 27.848 16.095C27.8344 16.0892 27.822 16.0808 27.8117 16.0703C27.7908 16.049 27.7792 16.0203 27.7794 15.9904C27.7797 15.9606 27.7918 15.9321 27.8131 15.9112C27.8344 15.8903 27.8631 15.8787 27.893 15.8789ZM24.1089 17.0259C24.3224 17.0206 24.5347 17.058 24.7334 17.136C24.9321 17.214 25.1133 17.3309 25.2661 17.48C25.4189 17.6291 25.5404 17.8072 25.6233 18.0039C25.7062 18.2006 25.7489 18.4119 25.7489 18.6254C25.7489 18.8389 25.7062 19.0502 25.6233 19.2469C25.5404 19.4437 25.4189 19.6218 25.2661 19.7708C25.1133 19.9199 24.9321 20.0369 24.7334 20.1148C24.5347 20.1928 24.3224 20.2303 24.1089 20.2249C23.6846 20.2249 23.2776 20.0564 22.9776 19.7563C22.6775 19.4562 22.509 19.0493 22.509 18.6249C22.509 18.2006 22.6775 17.7936 22.9776 17.4936C23.2776 17.1935 23.6846 17.0249 24.1089 17.0249V17.0259ZM19.8829 17.5659C19.8982 17.5648 19.9136 17.5669 19.928 17.572C19.9425 17.577 19.9558 17.585 19.967 17.5954C19.9783 17.6058 19.9872 17.6184 19.9934 17.6324C19.9996 17.6465 20.0029 17.6616 20.003 17.6769C20.0033 17.6988 19.9972 17.7203 19.9855 17.7388C19.9737 17.7572 19.9568 17.7718 19.9368 17.7808C19.9169 17.7898 19.8947 17.7927 19.8731 17.7892C19.8515 17.7857 19.8314 17.776 19.8153 17.7612C19.7992 17.7464 19.7877 17.7272 19.7824 17.706C19.777 17.6848 19.778 17.6625 19.7852 17.6418C19.7924 17.6211 19.8055 17.603 19.8229 17.5897C19.8402 17.5764 19.8611 17.5685 19.8829 17.5669V17.5659ZM27.8829 17.5659C27.8982 17.5648 27.9136 17.5669 27.928 17.572C27.9425 17.577 27.9558 17.585 27.967 17.5954C27.9783 17.6058 27.9872 17.6184 27.9934 17.6324C27.9996 17.6465 28.0029 17.6616 28.003 17.6769C28.0033 17.6988 27.9972 17.7203 27.9855 17.7388C27.9737 17.7572 27.9568 17.7718 27.9368 17.7808C27.9169 17.7898 27.8947 17.7927 27.8731 17.7892C27.8515 17.7857 27.8314 17.776 27.8153 17.7612C27.7992 17.7464 27.7877 17.7272 27.7824 17.706C27.777 17.6848 27.778 17.6625 27.7852 17.6418C27.7924 17.6211 27.8055 17.603 27.8229 17.5897C27.8402 17.5764 27.8611 17.5685 27.8829 17.5669V17.5659ZM19.8829 18.6919C19.8982 18.6908 19.9136 18.6929 19.928 18.698C19.9425 18.703 19.9558 18.711 19.967 18.7214C19.9783 18.7318 19.9872 18.7444 19.9934 18.7584C19.9996 18.7725 20.0029 18.7876 20.003 18.8029C20.0031 18.8248 19.9968 18.8462 19.985 18.8645C19.9731 18.8828 19.9561 18.8973 19.9361 18.9061C19.9162 18.9149 19.894 18.9177 19.8725 18.9141C19.851 18.9105 19.8309 18.9007 19.8149 18.8859C19.7989 18.871 19.7875 18.8518 19.7823 18.8306C19.777 18.8094 19.778 18.7872 19.7853 18.7666C19.7925 18.7459 19.8056 18.7279 19.823 18.7146C19.8403 18.7014 19.8612 18.6935 19.8829 18.6919ZM27.8829 18.6919C27.8982 18.6908 27.9136 18.6929 27.928 18.698C27.9425 18.703 27.9558 18.711 27.967 18.7214C27.9783 18.7318 27.9872 18.7444 27.9934 18.7584C27.9996 18.7725 28.0029 18.7876 28.003 18.8029C28.0031 18.8248 27.9968 18.8462 27.985 18.8645C27.9731 18.8828 27.9561 18.8973 27.9361 18.9061C27.9162 18.9149 27.894 18.9177 27.8725 18.9141C27.851 18.9105 27.8309 18.9007 27.8149 18.8859C27.7989 18.871 27.7875 18.8518 27.7823 18.8306C27.777 18.8094 27.778 18.7872 27.7853 18.7666C27.7925 18.7459 27.8056 18.7279 27.823 18.7146C27.8403 18.7014 27.8612 18.6935 27.8829 18.6919ZM19.871 19.2539H19.891C19.9131 19.2543 19.9345 19.2612 19.9527 19.2738C19.9709 19.2864 19.9849 19.3041 19.9931 19.3247C20.0012 19.3452 20.0031 19.3677 19.9985 19.3893C19.9938 19.411 19.9829 19.4307 19.9671 19.4461C19.9512 19.4616 19.9312 19.472 19.9095 19.476C19.8877 19.4801 19.8653 19.4776 19.8449 19.4689C19.8246 19.4602 19.8073 19.4457 19.7952 19.4272C19.7831 19.4087 19.7768 19.387 19.777 19.3649C19.777 19.3109 19.817 19.2619 19.871 19.2549V19.2539ZM27.871 19.2539H27.891C27.9131 19.2543 27.9345 19.2612 27.9527 19.2738C27.9709 19.2864 27.9849 19.3041 27.9931 19.3247C28.0012 19.3452 28.0031 19.3677 27.9985 19.3893C27.9938 19.411 27.9829 19.4307 27.9671 19.4461C27.9512 19.4616 27.9312 19.472 27.9095 19.476C27.8877 19.4801 27.8653 19.4776 27.8449 19.4689C27.8246 19.4602 27.8073 19.4457 27.7952 19.4272C27.7831 19.4087 27.7768 19.387 27.777 19.3649C27.777 19.3109 27.817 19.2619 27.871 19.2549V19.2539ZM19.893 19.8139C19.9228 19.8142 19.9513 19.8263 19.9722 19.8476C19.9931 19.8689 20.0047 19.8976 20.0044 19.9274C20.0042 19.9573 19.9921 19.9858 19.9708 20.0067C19.9495 20.0276 19.9208 20.0392 19.891 20.0389C19.8612 20.0387 19.8329 20.0266 19.812 20.0054C19.7912 19.9842 19.7797 19.9556 19.78 19.9259C19.7802 19.8962 19.7923 19.8678 19.8135 19.847C19.8347 19.8262 19.8632 19.8147 19.893 19.8149V19.8139ZM27.893 19.8139C27.9228 19.8142 27.9513 19.8263 27.9722 19.8476C27.9931 19.8689 28.0047 19.8976 28.0044 19.9274C28.0042 19.9573 27.9921 19.9858 27.9708 20.0067C27.9495 20.0276 27.9208 20.0392 27.891 20.0389C27.8612 20.0387 27.8329 20.0266 27.812 20.0054C27.7912 19.9842 27.7797 19.9556 27.78 19.9259C27.7802 19.8962 27.7923 19.8678 27.8135 19.847C27.8347 19.8262 27.8632 19.8147 27.893 19.8149V19.8139ZM16.516 19.9589C16.7294 19.9536 16.9417 19.991 17.1404 20.069C17.3391 20.147 17.5203 20.2639 17.6731 20.413C17.8259 20.5621 17.9474 20.7402 18.0303 20.9369C18.1132 21.1336 18.1559 21.3449 18.1559 21.5584C18.1559 21.7719 18.1132 21.9832 18.0303 22.1799C17.9474 22.3767 17.8259 22.5548 17.6731 22.7038C17.5203 22.8529 17.3391 22.9699 17.1404 23.0478C16.9417 23.1258 16.7294 23.1633 16.516 23.1579C16.0987 23.1475 15.702 22.9744 15.4105 22.6756C15.1191 22.3767 14.9559 21.9758 14.9559 21.5584C14.9559 21.141 15.1191 20.7401 15.4105 20.4413C15.702 20.1425 16.0987 19.9694 16.516 19.9589ZM31.266 19.9589C31.4794 19.9536 31.6917 19.991 31.8904 20.069C32.0891 20.147 32.2703 20.2639 32.4231 20.413C32.5759 20.5621 32.6974 20.7402 32.7803 20.9369C32.8632 21.1336 32.9059 21.3449 32.9059 21.5584C32.9059 21.7719 32.8632 21.9832 32.7803 22.1799C32.6974 22.3767 32.5759 22.5548 32.4231 22.7038C32.2703 22.8529 32.0891 22.9699 31.8904 23.0478C31.6917 23.1258 31.4794 23.1633 31.266 23.1579C30.8487 23.1475 30.452 22.9744 30.1605 22.6756C29.8691 22.3767 29.7059 21.9758 29.7059 21.5584C29.7059 21.141 29.8691 20.7401 30.1605 20.4413C30.452 20.1425 30.8487 19.9694 31.266 19.9589ZM24.1089 22.2599C24.3224 22.2546 24.5347 22.292 24.7334 22.37C24.9321 22.448 25.1133 22.5649 25.2661 22.714C25.4189 22.8631 25.5404 23.0412 25.6233 23.2379C25.7062 23.4346 25.7489 23.6459 25.7489 23.8594C25.7489 24.0729 25.7062 24.2842 25.6233 24.4809C25.5404 24.6777 25.4189 24.8558 25.2661 25.0048C25.1133 25.1539 24.9321 25.2709 24.7334 25.3489C24.5347 25.4268 24.3224 25.4643 24.1089 25.4589C23.6917 25.4485 23.295 25.2754 23.0035 24.9766C22.7121 24.6777 22.5489 24.2768 22.5489 23.8594C22.5489 23.442 22.7121 23.0411 23.0035 22.7423C23.295 22.4435 23.6917 22.2704 24.1089 22.2599ZM19.871 23.7519H19.891C19.9133 23.7521 19.9352 23.759 19.9537 23.7716C19.9721 23.7842 19.9865 23.8021 19.9948 23.8228C20.0031 23.8436 20.0051 23.8664 20.0005 23.8883C19.9958 23.9102 19.9848 23.9303 19.9688 23.9459C19.9527 23.9615 19.9324 23.972 19.9104 23.9761C19.8884 23.9801 19.8656 23.9775 19.8451 23.9686C19.8245 23.9597 19.8071 23.945 19.7949 23.9261C19.7828 23.9073 19.7766 23.8853 19.777 23.8629C19.777 23.8089 19.817 23.7599 19.871 23.7529V23.7519ZM27.871 23.7519H27.891C27.9133 23.7521 27.9352 23.759 27.9537 23.7716C27.9721 23.7842 27.9865 23.8021 27.9948 23.8228C28.0031 23.8436 28.0051 23.8664 28.0005 23.8883C27.9958 23.9102 27.9848 23.9303 27.9688 23.9459C27.9527 23.9615 27.9324 23.972 27.9104 23.9761C27.8884 23.9801 27.8656 23.9775 27.8451 23.9686C27.8245 23.9597 27.8071 23.945 27.7949 23.9261C27.7828 23.9073 27.7766 23.8853 27.777 23.8629C27.777 23.8089 27.817 23.7599 27.871 23.7529V23.7519ZM19.871 24.3149H19.891C19.951 24.3149 20.001 24.3649 20.002 24.4259C19.9993 24.4539 19.9863 24.4799 19.9655 24.4989C19.9447 24.5178 19.9176 24.5283 19.8895 24.5283C19.8613 24.5283 19.8342 24.5178 19.8134 24.4989C19.7926 24.4799 19.7796 24.4539 19.777 24.4259C19.777 24.3709 19.817 24.3219 19.871 24.3149ZM27.871 24.3149H27.891C27.951 24.3149 28.001 24.3649 28.002 24.4259C27.9993 24.4539 27.9863 24.4799 27.9655 24.4989C27.9447 24.5178 27.9176 24.5283 27.8895 24.5283C27.8613 24.5283 27.8342 24.5178 27.8134 24.4989C27.7926 24.4799 27.7796 24.4539 27.777 24.4259C27.777 24.3709 27.817 24.3219 27.871 24.3149ZM16.516 25.1939C16.7294 25.1886 16.9417 25.226 17.1404 25.304C17.3391 25.382 17.5203 25.4989 17.6731 25.648C17.8259 25.7971 17.9474 25.9752 18.0303 26.1719C18.1132 26.3686 18.1559 26.5799 18.1559 26.7934C18.1559 27.0069 18.1132 27.2182 18.0303 27.4149C17.9474 27.6117 17.8259 27.7898 17.6731 27.9388C17.5203 28.0879 17.3391 28.2049 17.1404 28.2829C16.9417 28.3608 16.7294 28.3983 16.516 28.3929C16.0916 28.3929 15.6846 28.2244 15.3846 27.9243C15.0845 27.6242 14.916 27.2173 14.916 26.7929C14.916 26.3686 15.0845 25.9616 15.3846 25.6616C15.6846 25.3615 16.0916 25.1929 16.516 25.1929V25.1939ZM31.266 25.1939C31.4794 25.1886 31.6917 25.226 31.8904 25.304C32.0891 25.382 32.2703 25.4989 32.4231 25.648C32.5759 25.7971 32.6974 25.9752 32.7803 26.1719C32.8632 26.3686 32.9059 26.5799 32.9059 26.7934C32.9059 27.0069 32.8632 27.2182 32.7803 27.4149C32.6974 27.6117 32.5759 27.7898 32.4231 27.9388C32.2703 28.0879 32.0891 28.2049 31.8904 28.2829C31.6917 28.3608 31.4794 28.3983 31.266 28.3929C30.8416 28.3929 30.4346 28.2244 30.1346 27.9243C29.8345 27.6242 29.666 27.2173 29.666 26.7929C29.666 26.3686 29.8345 25.9616 30.1346 25.6616C30.4346 25.3615 30.8416 25.1929 31.266 25.1929V25.1939ZM24.1089 27.4949C24.3237 27.4873 24.5378 27.5231 24.7384 27.6C24.939 27.6769 25.1221 27.7935 25.2767 27.9427C25.4313 28.092 25.5543 28.2708 25.6382 28.4686C25.7222 28.6664 25.7655 28.879 25.7655 29.0939C25.7655 29.3088 25.7222 29.5215 25.6382 29.7193C25.5543 29.917 25.4313 30.0959 25.2767 30.2451C25.1221 30.3943 24.939 30.5109 24.7384 30.5878C24.5378 30.6648 24.3237 30.7005 24.1089 30.6929C23.6917 30.6825 23.295 30.5094 23.0035 30.2106C22.7121 29.9117 22.5489 29.5108 22.5489 29.0934C22.5489 28.676 22.7121 28.2751 23.0035 27.9763C23.295 27.6775 23.6917 27.5044 24.1089 27.4939V27.4949ZM19.871 28.2499H19.891C19.951 28.2509 20.001 28.2999 20.002 28.3619C20.0017 28.3832 19.9953 28.404 19.9836 28.4219C19.9719 28.4397 19.9554 28.4538 19.936 28.4626C19.9165 28.4713 19.895 28.4744 19.8739 28.4713C19.8528 28.4682 19.833 28.4592 19.8169 28.4453C19.8007 28.4314 19.7889 28.4132 19.7827 28.3927C19.7766 28.3723 19.7764 28.3506 19.7822 28.3301C19.7879 28.3096 19.7995 28.2911 19.8154 28.2769C19.8313 28.2627 19.8509 28.2533 19.872 28.2499H19.871ZM27.871 28.2499H27.891C27.951 28.2509 28.001 28.2999 28.002 28.3619C28.0017 28.3832 27.9953 28.404 27.9836 28.4219C27.9719 28.4397 27.9554 28.4538 27.936 28.4626C27.9165 28.4713 27.895 28.4744 27.8739 28.4713C27.8528 28.4682 27.833 28.4592 27.8169 28.4453C27.8007 28.4314 27.7889 28.4132 27.7827 28.3927C27.7766 28.3723 27.7764 28.3506 27.7822 28.3301C27.7879 28.3096 27.7995 28.2911 27.8154 28.2769C27.8313 28.2627 27.8509 28.2533 27.872 28.2499H27.871ZM19.893 28.8099C19.9228 28.8102 19.9513 28.8223 19.9722 28.8436C19.9931 28.8649 20.0047 28.8936 20.0044 28.9234C20.0042 28.9533 19.9921 28.9818 19.9708 29.0027C19.9495 29.0236 19.9208 29.0352 19.891 29.0349C19.8612 29.0347 19.8329 29.0226 19.812 29.0014C19.7912 28.9802 19.7797 28.9516 19.78 28.9219C19.7802 28.8922 19.7923 28.8638 19.8135 28.843C19.8347 28.8222 19.8632 28.8107 19.893 28.8109V28.8099ZM27.893 28.8099C27.9228 28.8102 27.9513 28.8223 27.9722 28.8436C27.9931 28.8649 28.0047 28.8936 28.0044 28.9234C28.0042 28.9533 27.9921 28.9818 27.9708 29.0027C27.9495 29.0236 27.9208 29.0352 27.891 29.0349C27.8612 29.0347 27.8329 29.0226 27.812 29.0014C27.7912 28.9802 27.7797 28.9516 27.78 28.9219C27.7802 28.8922 27.7923 28.8638 27.8135 28.843C27.8347 28.8222 27.8632 28.8107 27.893 28.8109V28.8099ZM16.516 30.4279C16.7294 30.4226 16.9417 30.46 17.1404 30.538C17.3391 30.616 17.5203 30.7329 17.6731 30.882C17.8259 31.0311 17.9474 31.2092 18.0303 31.4059C18.1132 31.6026 18.1559 31.8139 18.1559 32.0274C18.1559 32.2409 18.1132 32.4522 18.0303 32.6489C17.9474 32.8457 17.8259 33.0238 17.6731 33.1728C17.5203 33.3219 17.3391 33.4389 17.1404 33.5168C16.9417 33.5948 16.7294 33.6323 16.516 33.6269C16.0987 33.6165 15.702 33.4434 15.4105 33.1446C15.1191 32.8457 14.9559 32.4448 14.9559 32.0274C14.9559 31.61 15.1191 31.2091 15.4105 30.9103C15.702 30.6115 16.0987 30.4384 16.516 30.4279ZM31.266 30.4279C31.4794 30.4226 31.6917 30.46 31.8904 30.538C32.0891 30.616 32.2703 30.7329 32.4231 30.882C32.5759 31.0311 32.6974 31.2092 32.7803 31.4059C32.8632 31.6026 32.9059 31.8139 32.9059 32.0274C32.9059 32.2409 32.8632 32.4522 32.7803 32.6489C32.6974 32.8457 32.5759 33.0238 32.4231 33.1728C32.2703 33.3219 32.0891 33.4389 31.8904 33.5168C31.6917 33.5948 31.4794 33.6323 31.266 33.6269C30.8487 33.6165 30.452 33.4434 30.1605 33.1446C29.8691 32.8457 29.7059 32.4448 29.7059 32.0274C29.7059 31.61 29.8691 31.2091 30.1605 30.9103C30.452 30.6115 30.8487 30.4384 31.266 30.4279ZM19.8829 31.0579C19.8983 31.0571 19.9137 31.0594 19.9282 31.0647C19.9427 31.07 19.9559 31.0782 19.9671 31.0888C19.9783 31.0993 19.9873 31.1121 19.9934 31.1262C19.9996 31.1403 20.0028 31.1555 20.003 31.1709C20.0031 31.2009 19.9913 31.2297 19.9702 31.251C19.9491 31.2723 19.9204 31.2843 19.8904 31.2844C19.8756 31.2845 19.8609 31.2816 19.8472 31.276C19.8334 31.2704 19.8209 31.2621 19.8104 31.2517C19.7891 31.2306 19.7771 31.2019 19.777 31.1719C19.777 31.1119 19.8239 31.0619 19.8829 31.0589V31.0579ZM27.8829 31.0579C27.8983 31.0571 27.9137 31.0594 27.9282 31.0647C27.9427 31.07 27.9559 31.0782 27.9671 31.0888C27.9783 31.0993 27.9873 31.1121 27.9934 31.1262C27.9996 31.1403 28.0028 31.1555 28.003 31.1709C28.003 31.1858 28.0002 31.2005 27.9945 31.2142C27.9889 31.2279 27.9807 31.2404 27.9702 31.251C27.9598 31.2615 27.9473 31.2699 27.9337 31.2756C27.92 31.2814 27.9053 31.2844 27.8904 31.2844C27.8756 31.2845 27.8609 31.2816 27.8472 31.276C27.8334 31.2704 27.8209 31.2621 27.8104 31.2517C27.7999 31.2412 27.7915 31.2288 27.7857 31.2151C27.78 31.2014 27.777 31.1868 27.777 31.1719C27.777 31.1119 27.8239 31.0619 27.8829 31.0589V31.0579ZM19.871 32.1839H19.891C19.9131 32.1843 19.9345 32.1912 19.9527 32.2038C19.9709 32.2164 19.9849 32.2341 19.9931 32.2547C20.0012 32.2752 20.0031 32.2977 19.9985 32.3193C19.9938 32.341 19.9829 32.3607 19.9671 32.3762C19.9512 32.3916 19.9312 32.402 19.9095 32.406C19.8877 32.4101 19.8653 32.4076 19.8449 32.3989C19.8246 32.3902 19.8073 32.3757 19.7952 32.3572C19.7831 32.3387 19.7768 32.317 19.777 32.2949C19.777 32.2399 19.817 32.1909 19.871 32.1839ZM27.871 32.1839H27.891C27.9131 32.1843 27.9345 32.1912 27.9527 32.2038C27.9709 32.2164 27.9849 32.2341 27.9931 32.2547C28.0012 32.2752 28.0031 32.2977 27.9985 32.3193C27.9938 32.341 27.9829 32.3607 27.9671 32.3762C27.9512 32.3916 27.9312 32.402 27.9095 32.406C27.8877 32.4101 27.8653 32.4076 27.8449 32.3989C27.8246 32.3902 27.8073 32.3757 27.7952 32.3572C27.7831 32.3387 27.7768 32.317 27.777 32.2949C27.777 32.2399 27.817 32.1909 27.871 32.1839ZM24.1089 32.7289C24.3224 32.7236 24.5347 32.761 24.7334 32.839C24.9321 32.917 25.1133 33.0339 25.2661 33.183C25.4189 33.3321 25.5404 33.5102 25.6233 33.7069C25.7062 33.9036 25.7489 34.1149 25.7489 34.3284C25.7489 34.5419 25.7062 34.7532 25.6233 34.9499C25.5404 35.1467 25.4189 35.3248 25.2661 35.4738C25.1133 35.6229 24.9321 35.7399 24.7334 35.8179C24.5347 35.8958 24.3224 35.9333 24.1089 35.9279C23.6846 35.9279 23.2776 35.7593 22.9776 35.4593C22.6775 35.1592 22.509 34.7523 22.509 34.3279C22.509 33.9036 22.6775 33.4966 22.9776 33.1966C23.2776 32.8965 23.6846 32.7279 24.1089 32.7279V32.7289ZM19.871 32.7459H19.891C19.951 32.7459 20.001 32.7959 20.002 32.8579C20.0019 32.8793 19.9957 32.9002 19.9841 32.9181C19.9725 32.9361 19.9561 32.9504 19.9366 32.9593C19.9172 32.9682 19.8957 32.9713 19.8745 32.9684C19.8533 32.9655 19.8335 32.9565 19.8172 32.9426C19.801 32.9288 19.789 32.9105 19.7828 32.8901C19.7766 32.8697 19.7763 32.8479 19.7821 32.8273C19.7878 32.8067 19.7994 32.7882 19.8153 32.774C19.8312 32.7597 19.8509 32.7504 19.872 32.7469L19.871 32.7459ZM27.871 32.7459H27.891C27.951 32.7459 28.001 32.7959 28.002 32.8579C28.0019 32.8793 27.9957 32.9002 27.9841 32.9181C27.9725 32.9361 27.9561 32.9504 27.9366 32.9593C27.9172 32.9682 27.8957 32.9713 27.8745 32.9684C27.8533 32.9655 27.8335 32.9565 27.8172 32.9426C27.801 32.9288 27.789 32.9105 27.7828 32.8901C27.7766 32.8697 27.7763 32.8479 27.7821 32.8273C27.7878 32.8067 27.7994 32.7882 27.8153 32.774C27.8312 32.7597 27.8509 32.7504 27.872 32.7469L27.871 32.7459ZM19.893 33.3059C19.9549 33.3079 20.004 33.3599 20.003 33.4219C20.003 33.4511 19.9914 33.4791 19.9707 33.4997C19.9501 33.5203 19.9221 33.5319 19.893 33.5319C19.8782 33.5325 19.8634 33.53 19.8496 33.5247C19.8358 33.5194 19.8232 33.5114 19.8126 33.5012C19.8019 33.4909 19.7935 33.4786 19.7877 33.465C19.7819 33.4513 19.7789 33.4367 19.7789 33.4219C19.7789 33.3589 19.8289 33.3059 19.893 33.3069V33.3059ZM27.893 33.3059C27.955 33.3079 28.004 33.3599 28.003 33.4219C28.003 33.4511 27.9914 33.4791 27.9707 33.4997C27.9501 33.5203 27.9221 33.5319 27.893 33.5319C27.8782 33.5325 27.8634 33.53 27.8496 33.5247C27.8358 33.5194 27.8232 33.5114 27.8126 33.5012C27.8019 33.4909 27.7935 33.4786 27.7877 33.465C27.7819 33.4513 27.7789 33.4367 27.7789 33.4219C27.7789 33.3589 27.8289 33.3059 27.893 33.3069V33.3059ZM19.8829 33.8689H19.891C19.9206 33.87 19.9486 33.8826 19.9689 33.9041C19.9893 33.9256 20.0005 33.9542 19.9999 33.9839C19.9994 34.0135 19.9873 34.0417 19.9661 34.0625C19.945 34.0832 19.9166 34.0949 19.8869 34.0949C19.8573 34.0949 19.8289 34.0832 19.8078 34.0625C19.7866 34.0417 19.7745 34.0135 19.774 33.9839C19.7734 33.9542 19.7846 33.9256 19.805 33.9041C19.8253 33.8826 19.8533 33.87 19.8829 33.8689ZM27.8829 33.8689H27.891C27.9206 33.87 27.9486 33.8826 27.9689 33.9041C27.9893 33.9256 28.0005 33.9542 27.9999 33.9839C27.9994 34.0135 27.9873 34.0417 27.9661 34.0625C27.945 34.0832 27.9166 34.0949 27.8869 34.0949C27.8573 34.0949 27.8289 34.0832 27.8078 34.0625C27.7866 34.0417 27.7745 34.0135 27.774 33.9839C27.7734 33.9542 27.7846 33.9256 27.805 33.9041C27.8253 33.8826 27.8533 33.87 27.8829 33.8689ZM16.516 35.6619C16.9403 35.6619 17.3473 35.8305 17.6473 36.1306C17.9474 36.4306 18.1159 36.8376 18.1159 37.2619C18.1159 37.6863 17.9474 38.0932 17.6473 38.3933C17.3473 38.6933 16.9403 38.8619 16.516 38.8619C16.0916 38.8619 15.6846 38.6933 15.3846 38.3933C15.0845 38.0932 14.916 37.6863 14.916 37.2619C14.916 36.8376 15.0845 36.4306 15.3846 36.1306C15.6846 35.8305 16.0916 35.6619 16.516 35.6619ZM31.266 35.6619C31.6903 35.6619 32.0973 35.8305 32.3973 36.1306C32.6974 36.4306 32.866 36.8376 32.866 37.2619C32.866 37.6863 32.6974 38.0932 32.3973 38.3933C32.0973 38.6933 31.6903 38.8619 31.266 38.8619C30.8416 38.8619 30.4346 38.6933 30.1346 38.3933C29.8345 38.0932 29.666 37.6863 29.666 37.2619C29.666 36.8376 29.8345 36.4306 30.1346 36.1306C30.4346 35.8305 30.8416 35.6619 31.266 35.6619ZM19.871 37.2439H19.891C19.951 37.2449 20.001 37.2939 20.002 37.3559C20.0017 37.3772 19.9953 37.398 19.9836 37.4159C19.9719 37.4337 19.9554 37.4478 19.936 37.4566C19.9165 37.4653 19.895 37.4684 19.8739 37.4653C19.8528 37.4622 19.833 37.4532 19.8169 37.4393C19.8007 37.4254 19.7889 37.4072 19.7827 37.3867C19.7766 37.3663 19.7764 37.3446 19.7822 37.3241C19.7879 37.3035 19.7995 37.2851 19.8154 37.2709C19.8313 37.2567 19.8509 37.2473 19.872 37.2439H19.871ZM27.871 37.2439H27.891C27.951 37.2449 28.001 37.2939 28.002 37.3559C28.0017 37.3772 27.9953 37.398 27.9836 37.4159C27.9719 37.4337 27.9554 37.4478 27.936 37.4566C27.9165 37.4653 27.895 37.4684 27.8739 37.4653C27.8528 37.4622 27.833 37.4532 27.8169 37.4393C27.8007 37.4254 27.7889 37.4072 27.7827 37.3867C27.7766 37.3663 27.7764 37.3446 27.7822 37.3241C27.7879 37.3035 27.7995 37.2851 27.8154 37.2709C27.8313 37.2567 27.8509 37.2473 27.872 37.2439H27.871ZM19.8829 37.8039H19.891C19.9206 37.805 19.9486 37.8176 19.9689 37.8391C19.9893 37.8606 20.0005 37.8892 19.9999 37.9188C19.9994 37.9485 19.9873 37.9767 19.9661 37.9975C19.945 38.0182 19.9166 38.0299 19.8869 38.0299C19.8573 38.0299 19.8289 38.0182 19.8078 37.9975C19.7866 37.9767 19.7745 37.9485 19.774 37.9188C19.7734 37.8892 19.7846 37.8606 19.805 37.8391C19.8253 37.8176 19.8533 37.805 19.8829 37.8039ZM27.8829 37.8039H27.891C27.9206 37.805 27.9486 37.8176 27.9689 37.8391C27.9893 37.8606 28.0005 37.8892 27.9999 37.9188C27.9994 37.9485 27.9873 37.9767 27.9661 37.9975C27.945 38.0182 27.9166 38.0299 27.8869 38.0299C27.8573 38.0299 27.8289 38.0182 27.8078 37.9975C27.7866 37.9767 27.7745 37.9485 27.774 37.9188C27.7734 37.8892 27.7846 37.8606 27.805 37.8391C27.8253 37.8176 27.8533 37.805 27.8829 37.8039ZM24.1089 37.9979C24.5333 37.9979 24.9403 38.1665 25.2403 38.4665C25.5404 38.7666 25.709 39.1736 25.709 39.5979C25.709 40.0223 25.5404 40.4292 25.2403 40.7293C24.9403 41.0293 24.5333 41.1979 24.1089 41.1979C23.6846 41.1979 23.2776 41.0293 22.9776 40.7293C22.6775 40.4292 22.509 40.0223 22.509 39.5979C22.509 39.1736 22.6775 38.7666 22.9776 38.4665C23.2776 38.1665 23.6846 37.9979 24.1089 37.9979ZM19.8829 39.4919H19.891C19.9206 39.493 19.9486 39.5056 19.9689 39.5271C19.9893 39.5486 20.0005 39.5772 19.9999 39.6068C19.9994 39.6365 19.9873 39.6647 19.9661 39.6855C19.945 39.7062 19.9166 39.7178 19.8869 39.7178C19.8573 39.7178 19.8289 39.7062 19.8078 39.6855C19.7866 39.6647 19.7745 39.6365 19.774 39.6068C19.7734 39.5772 19.7846 39.5486 19.805 39.5271C19.8253 39.5056 19.8533 39.493 19.8829 39.4919ZM27.8829 39.4919H27.891C27.9206 39.493 27.9486 39.5056 27.9689 39.5271C27.9893 39.5486 28.0005 39.5772 27.9999 39.6068C27.9994 39.6365 27.9873 39.6647 27.9661 39.6855C27.945 39.7062 27.9166 39.7178 27.8869 39.7178C27.8573 39.7178 27.8289 39.7062 27.8078 39.6855C27.7866 39.6647 27.7745 39.6365 27.774 39.6068C27.7734 39.5772 27.7846 39.5486 27.805 39.5271C27.8253 39.5056 27.8533 39.493 27.8829 39.4919ZM19.8829 40.0549H19.891C19.9206 40.056 19.9486 40.0686 19.9689 40.0901C19.9893 40.1116 20.0005 40.1402 19.9999 40.1698C19.9994 40.1995 19.9873 40.2277 19.9661 40.2485C19.945 40.2692 19.9166 40.2808 19.8869 40.2808C19.8573 40.2808 19.8289 40.2692 19.8078 40.2485C19.7866 40.2277 19.7745 40.1995 19.774 40.1698C19.7734 40.1402 19.7846 40.1116 19.805 40.0901C19.8253 40.0686 19.8533 40.056 19.8829 40.0549ZM27.8829 40.0549H27.891C27.9206 40.056 27.9486 40.0686 27.9689 40.0901C27.9893 40.1116 28.0005 40.1402 27.9999 40.1698C27.9994 40.1995 27.9873 40.2277 27.9661 40.2485C27.945 40.2692 27.9166 40.2808 27.8869 40.2808C27.8573 40.2808 27.8289 40.2692 27.8078 40.2485C27.7866 40.2277 27.7745 40.1995 27.774 40.1698C27.7734 40.1402 27.7846 40.1116 27.805 40.0901C27.8253 40.0686 27.8533 40.056 27.8829 40.0549ZM19.8829 40.6169H19.891C19.9206 40.618 19.9486 40.6306 19.9689 40.6521C19.9893 40.6736 20.0005 40.7022 19.9999 40.7318C19.9994 40.7615 19.9873 40.7897 19.9661 40.8105C19.945 40.8312 19.9166 40.8428 19.8869 40.8428C19.8573 40.8428 19.8289 40.8312 19.8078 40.8105C19.7866 40.7897 19.7745 40.7615 19.774 40.7318C19.7734 40.7022 19.7846 40.6736 19.805 40.6521C19.8253 40.6306 19.8533 40.618 19.8829 40.6169ZM27.8829 40.6169H27.891C27.9206 40.618 27.9486 40.6306 27.9689 40.6521C27.9893 40.6736 28.0005 40.7022 27.9999 40.7318C27.9994 40.7615 27.9873 40.7897 27.9661 40.8105C27.945 40.8312 27.9166 40.8428 27.8869 40.8428C27.8573 40.8428 27.8289 40.8312 27.8078 40.8105C27.7866 40.7897 27.7745 40.7615 27.774 40.7318C27.7734 40.7022 27.7846 40.6736 27.805 40.6521C27.8253 40.6306 27.8533 40.618 27.8829 40.6169ZM19.871 41.1799H19.891C19.9133 41.1801 19.9352 41.187 19.9537 41.1996C19.9721 41.2122 19.9865 41.2301 19.9948 41.2508C20.0031 41.2716 20.0051 41.2944 20.0005 41.3163C19.9958 41.3382 19.9848 41.3583 19.9688 41.3739C19.9527 41.3895 19.9324 41.4 19.9104 41.404C19.8884 41.4081 19.8656 41.4055 19.8451 41.3966C19.8245 41.3877 19.8071 41.373 19.7949 41.3541C19.7828 41.3353 19.7766 41.3133 19.777 41.2909C19.777 41.2359 19.817 41.1879 19.871 41.1799ZM27.871 41.1799H27.891C27.9133 41.1801 27.9352 41.187 27.9537 41.1996C27.9721 41.2122 27.9865 41.2301 27.9948 41.2508C28.0031 41.2716 28.0051 41.2944 28.0005 41.3163C27.9958 41.3382 27.9848 41.3583 27.9688 41.3739C27.9527 41.3895 27.9324 41.4 27.9104 41.404C27.8884 41.4081 27.8656 41.4055 27.8451 41.3966C27.8245 41.3877 27.8071 41.373 27.7949 41.3541C27.7828 41.3353 27.7766 41.3133 27.777 41.2909C27.777 41.2359 27.817 41.1879 27.871 41.1799ZM19.871 41.7419H19.891C19.951 41.7429 20.001 41.7919 20.002 41.8539C20.002 41.9149 19.952 41.9639 19.891 41.9649C19.8762 41.9652 19.8615 41.9625 19.8477 41.9571C19.834 41.9516 19.8214 41.9435 19.8108 41.9332C19.8002 41.9229 19.7918 41.9105 19.786 41.8969C19.7801 41.8833 19.7771 41.8687 19.777 41.8539C19.777 41.7989 19.817 41.7499 19.871 41.7419ZM27.871 41.7419H27.891C27.951 41.7429 28.001 41.7919 28.002 41.8539C28.002 41.9149 27.952 41.9639 27.891 41.9649C27.8762 41.9652 27.8615 41.9625 27.8477 41.9571C27.834 41.9516 27.8214 41.9435 27.8108 41.9332C27.8002 41.9229 27.7918 41.9105 27.786 41.8969C27.7801 41.8833 27.7771 41.8687 27.777 41.8539C27.777 41.7989 27.817 41.7499 27.871 41.7419ZM19.893 42.3029C19.9227 42.3032 19.951 42.3152 19.9719 42.3364C19.9927 42.3576 20.0042 42.3862 20.004 42.4159C20.0037 42.4456 19.9916 42.474 19.9704 42.4948C19.9492 42.5156 19.9207 42.5272 19.891 42.5269C19.8762 42.5268 19.8617 42.5238 19.8482 42.518C19.8346 42.5123 19.8224 42.5039 19.812 42.4934C19.8017 42.4829 19.7936 42.4705 19.7881 42.4569C19.7826 42.4432 19.7798 42.4286 19.78 42.4139C19.7801 42.3992 19.7831 42.3847 19.7889 42.3711C19.7946 42.3576 19.803 42.3453 19.8135 42.335C19.824 42.3247 19.8364 42.3166 19.85 42.3111C19.8637 42.3056 19.8782 42.3028 19.893 42.3029ZM27.893 42.3029C27.9077 42.3031 27.9222 42.3061 27.9357 42.3118C27.9493 42.3176 27.9615 42.3259 27.9719 42.3364C27.9822 42.3469 27.9903 42.3593 27.9958 42.373C28.0013 42.3866 28.0041 42.4012 28.004 42.4159C28.0038 42.4306 28.0008 42.4452 27.995 42.4587C27.9893 42.4722 27.9809 42.4845 27.9704 42.4948C27.9599 42.5051 27.9475 42.5133 27.9339 42.5188C27.9202 42.5243 27.9057 42.5271 27.891 42.5269C27.8612 42.5267 27.8329 42.5146 27.812 42.4934C27.7912 42.4722 27.7797 42.4436 27.78 42.4139C27.7802 42.3842 27.7923 42.3558 27.8135 42.335C27.8347 42.3142 27.8632 42.3027 27.893 42.3029Z" fill="#333333"/>
</svg>
