<svg width="48" height="48" viewBox="0 0 48 48" fill="none" xmlns="http://www.w3.org/2000/svg">
<path d="M28.906 4.0818C23.986 4.0678 19.122 4.1248 14.146 4.1248C13.277 4.1248 12.58 4.8238 12.58 5.6928V42.5538C12.58 43.4238 13.277 44.1238 14.146 44.1238H33.852C34.721 44.1238 35.42 43.4238 35.42 42.5538V5.6938C35.42 4.8238 34.721 4.1238 33.852 4.1238C32.2034 4.09959 30.5547 4.08559 28.906 4.0818ZM14.58 4.6248H33.418C34.249 4.6248 34.92 5.3058 34.92 6.1548V42.0938C34.92 42.9408 34.25 43.6238 33.418 43.6238H14.58C13.749 43.6238 13.08 42.9408 13.08 42.0938V6.1538C13.08 5.3058 13.749 4.6238 14.58 4.6238V4.6248ZM20.367 5.0648C20.3376 5.06585 20.3099 5.07838 20.2897 5.09969C20.2695 5.12099 20.2584 5.14938 20.259 5.17873C20.2595 5.20809 20.2715 5.23606 20.2925 5.25663C20.3134 5.2772 20.3416 5.28873 20.371 5.28873C20.4003 5.28873 20.4285 5.2772 20.4494 5.25663C20.4704 5.23606 20.4824 5.20809 20.4829 5.17873C20.4835 5.14938 20.4724 5.12099 20.4522 5.09969C20.4321 5.07838 20.4043 5.06585 20.375 5.0648H20.367ZM27.617 5.0648C27.5876 5.06585 27.5599 5.07838 27.5397 5.09969C27.5195 5.12099 27.5084 5.14938 27.509 5.17873C27.5095 5.20809 27.5215 5.23606 27.5425 5.25663C27.5634 5.2772 27.5916 5.28873 27.621 5.28873C27.6503 5.28873 27.6785 5.2772 27.6994 5.25663C27.7204 5.23606 27.7324 5.20809 27.7329 5.17873C27.7335 5.14938 27.7224 5.12099 27.7022 5.09969C27.682 5.07838 27.6543 5.06585 27.625 5.0648H27.617ZM17.893 5.1558C17.7683 5.15782 17.6453 5.18448 17.531 5.23425C17.4167 5.28403 17.3133 5.35592 17.227 5.4458L15.418 7.3028C15.3312 7.39191 15.2627 7.49723 15.2167 7.61277C15.1706 7.72831 15.1477 7.85179 15.1493 7.97618C15.1509 8.10056 15.177 8.22341 15.2261 8.3377C15.2752 8.452 15.3464 8.5555 15.4355 8.6423C15.5246 8.72911 15.6299 8.79751 15.7454 8.84361C15.861 8.88971 15.9844 8.9126 16.1088 8.91097C16.2332 8.90935 16.3561 8.88324 16.4704 8.83414C16.5846 8.78504 16.6882 8.7139 16.775 8.6248L18.584 6.7648C18.6711 6.67581 18.7397 6.57047 18.786 6.45484C18.8323 6.33922 18.8552 6.21559 18.8536 6.09106C18.8519 5.96653 18.8256 5.84356 18.7763 5.72922C18.7269 5.61488 18.6554 5.51143 18.566 5.4248C18.477 5.33788 18.3718 5.26938 18.2563 5.22322C18.1408 5.17706 18.0173 5.15415 17.893 5.1558ZM31.893 5.1558C31.7683 5.15782 31.6453 5.18448 31.531 5.23425C31.4167 5.28403 31.3134 5.35592 31.227 5.4458L29.418 7.3028C29.3312 7.39191 29.2627 7.49723 29.2167 7.61277C29.1706 7.72831 29.1477 7.85179 29.1493 7.97618C29.1509 8.10056 29.177 8.22341 29.2261 8.3377C29.2752 8.452 29.3464 8.5555 29.4355 8.6423C29.5246 8.72911 29.6299 8.79751 29.7454 8.84361C29.861 8.88971 29.9844 8.9126 30.1088 8.91097C30.2332 8.90935 30.3561 8.88324 30.4704 8.83414C30.5846 8.78504 30.6882 8.7139 30.775 8.6248L32.584 6.7648C32.6711 6.67581 32.7397 6.57047 32.786 6.45484C32.8323 6.33922 32.8552 6.21559 32.8536 6.09106C32.8519 5.96653 32.8256 5.84356 32.7763 5.72922C32.7269 5.61488 32.6554 5.51143 32.566 5.4248C32.477 5.33788 32.3718 5.26938 32.2563 5.22322C32.1408 5.17706 32.0173 5.15415 31.893 5.1558ZM20.367 5.6258C20.3376 5.62685 20.3099 5.63938 20.2897 5.66069C20.2695 5.68199 20.2584 5.71038 20.259 5.73973C20.2595 5.76909 20.2715 5.79706 20.2925 5.81763C20.3134 5.8382 20.3416 5.84973 20.371 5.84973C20.4003 5.84973 20.4285 5.8382 20.4494 5.81763C20.4704 5.79706 20.4824 5.76909 20.4829 5.73973C20.4835 5.71038 20.4724 5.68199 20.4522 5.66069C20.4321 5.63938 20.4043 5.62685 20.375 5.6258H20.367ZM27.617 5.6258C27.5876 5.62685 27.5599 5.63938 27.5397 5.66069C27.5195 5.68199 27.5084 5.71038 27.509 5.73973C27.5095 5.76909 27.5215 5.79706 27.5425 5.81763C27.5634 5.8382 27.5916 5.84973 27.621 5.84973C27.6503 5.84973 27.6785 5.8382 27.6994 5.81763C27.7204 5.79706 27.7324 5.76909 27.7329 5.73973C27.7335 5.71038 27.7224 5.68199 27.7022 5.66069C27.682 5.63938 27.6543 5.62685 27.625 5.6258H27.617ZM17.957 5.6388H17.959C18.037 5.6418 18.119 5.6768 18.203 5.7458C18.61 6.1078 18.126 6.5308 17.951 6.7148L17.086 7.6188C16.479 8.2498 16.215 8.6768 15.791 8.2688C15.431 7.8958 15.751 7.6728 16.439 6.9738L17.305 6.0718C17.509 5.8718 17.721 5.6278 17.957 5.6388ZM31.957 5.6388H31.959C32.037 5.6418 32.119 5.6768 32.203 5.7458C32.61 6.1078 32.126 6.5308 31.951 6.7148L31.086 7.6188C30.479 8.2498 30.215 8.6768 29.791 8.2688C29.431 7.8958 29.751 7.6728 30.439 6.9738L31.305 6.0718C31.509 5.8718 31.721 5.6278 31.957 5.6388ZM20.357 6.1888C20.3358 6.19205 20.316 6.2013 20.2999 6.21545C20.2839 6.22961 20.2722 6.24807 20.2663 6.26865C20.2604 6.28924 20.2605 6.31108 20.2667 6.3316C20.2728 6.35211 20.2847 6.37044 20.3009 6.3844C20.3171 6.39837 20.337 6.40739 20.3582 6.4104C20.3794 6.4134 20.4011 6.41027 20.4205 6.40137C20.44 6.39246 20.4565 6.37816 20.4681 6.36016C20.4797 6.34216 20.4859 6.32122 20.486 6.2998C20.486 6.2398 20.436 6.1898 20.375 6.1898H20.357V6.1888ZM27.607 6.1888C27.5858 6.19205 27.566 6.2013 27.5499 6.21545C27.5339 6.22961 27.5222 6.24807 27.5163 6.26865C27.5104 6.28924 27.5105 6.31108 27.5167 6.3316C27.5228 6.35211 27.5347 6.37044 27.5509 6.3844C27.5671 6.39837 27.587 6.40739 27.6082 6.4104C27.6294 6.4134 27.6511 6.41027 27.6705 6.40137C27.69 6.39246 27.7065 6.37816 27.7181 6.36016C27.7297 6.34216 27.7359 6.32122 27.736 6.2998C27.736 6.2398 27.686 6.1898 27.625 6.1898H27.607V6.1888ZM24.893 6.2238C24.7683 6.22582 24.6453 6.25248 24.531 6.30226C24.4167 6.35203 24.3133 6.42392 24.227 6.5138L22.418 8.3698C22.3312 8.4589 22.2627 8.56423 22.2167 8.67977C22.1706 8.79531 22.1477 8.91879 22.1493 9.04318C22.1509 9.16756 22.177 9.29041 22.2261 9.4047C22.2752 9.519 22.3464 9.6225 22.4355 9.7093C22.5246 9.79611 22.6299 9.86451 22.7454 9.91061C22.861 9.95671 22.9844 9.9796 23.1088 9.97797C23.2332 9.97635 23.3561 9.95024 23.4704 9.90114C23.5846 9.85204 23.6882 9.78091 23.775 9.6918L25.584 7.8318C25.6709 7.74283 25.7395 7.63755 25.7856 7.52202C25.8318 7.40649 25.8547 7.28297 25.8531 7.15856C25.8514 7.03416 25.8252 6.9113 25.7759 6.79705C25.7266 6.68281 25.6553 6.57941 25.566 6.4928C25.4771 6.4057 25.3719 6.33702 25.2564 6.29068C25.1409 6.24435 25.0174 6.22128 24.893 6.2228V6.2238ZM24.957 6.7068H24.959C25.037 6.7108 25.119 6.7448 25.203 6.8138C25.61 7.1758 25.126 7.5998 24.951 7.7828L24.086 8.6868C23.479 9.3188 23.215 9.7458 22.791 9.3368C22.431 8.9638 22.751 8.7418 23.439 8.0428L24.305 7.1398C24.509 6.9398 24.721 6.6968 24.957 6.7068ZM20.377 6.7498C20.3622 6.74967 20.3475 6.75245 20.3338 6.75798C20.3201 6.76352 20.3077 6.77169 20.2971 6.78205C20.2758 6.80296 20.2637 6.83147 20.2635 6.8613C20.2632 6.89114 20.2748 6.91986 20.2957 6.94115C20.3166 6.96243 20.3451 6.97454 20.375 6.9748C20.4048 6.97507 20.4335 6.96347 20.4548 6.94256C20.4761 6.92165 20.4882 6.89314 20.4885 6.8633C20.4887 6.83347 20.4771 6.80475 20.4562 6.78346C20.4353 6.76218 20.4068 6.75007 20.377 6.7498ZM27.627 6.7498C27.6122 6.74967 27.5975 6.75245 27.5838 6.75798C27.5701 6.76352 27.5577 6.77169 27.5471 6.78205C27.5258 6.80296 27.5137 6.83147 27.5135 6.8613C27.5132 6.89114 27.5248 6.91986 27.5457 6.94115C27.5666 6.96243 27.5951 6.97454 27.625 6.9748C27.6548 6.97507 27.6835 6.96347 27.7048 6.94256C27.7261 6.92165 27.7382 6.89314 27.7385 6.8633C27.7387 6.83347 27.7271 6.80475 27.7062 6.78346C27.6853 6.76218 27.6568 6.75007 27.627 6.7498ZM20.367 7.3118C20.3376 7.31285 20.3099 7.32538 20.2897 7.34669C20.2695 7.36799 20.2584 7.39638 20.259 7.42573C20.2595 7.45509 20.2715 7.48306 20.2925 7.50363C20.3134 7.5242 20.3416 7.53573 20.371 7.53573C20.4003 7.53573 20.4285 7.5242 20.4494 7.50363C20.4704 7.48306 20.4824 7.45509 20.4829 7.42573C20.4835 7.39638 20.4724 7.36799 20.4522 7.34669C20.4321 7.32538 20.4043 7.31285 20.375 7.3118H20.367ZM27.617 7.3118C27.5876 7.31285 27.5599 7.32538 27.5397 7.34669C27.5195 7.36799 27.5084 7.39638 27.509 7.42573C27.5095 7.45509 27.5215 7.48306 27.5425 7.50363C27.5634 7.5242 27.5916 7.53573 27.621 7.53573C27.6503 7.53573 27.6785 7.5242 27.6994 7.50363C27.7204 7.48306 27.7324 7.45509 27.7329 7.42573C27.7335 7.39638 27.7224 7.36799 27.7022 7.34669C27.682 7.32538 27.6543 7.31285 27.625 7.3118H27.617ZM20.367 7.8718C20.3376 7.87285 20.3099 7.88538 20.2897 7.90669C20.2695 7.92799 20.2584 7.95638 20.259 7.98573C20.2595 8.01509 20.2715 8.04306 20.2925 8.06363C20.3134 8.0842 20.3416 8.09573 20.371 8.09573C20.4003 8.09573 20.4285 8.0842 20.4494 8.06363C20.4704 8.04306 20.4824 8.01509 20.4829 7.98573C20.4835 7.95638 20.4724 7.92799 20.4522 7.90669C20.4321 7.88538 20.4043 7.87285 20.375 7.8718H20.367ZM27.617 7.8718C27.5876 7.87285 27.5599 7.88538 27.5397 7.90669C27.5195 7.92799 27.5084 7.95638 27.509 7.98573C27.5095 8.01509 27.5215 8.04306 27.5425 8.06363C27.5634 8.0842 27.5916 8.09573 27.621 8.09573C27.6503 8.09573 27.6785 8.0842 27.6994 8.06363C27.7204 8.04306 27.7324 8.01509 27.7329 7.98573C27.7335 7.95638 27.7224 7.92799 27.7022 7.90669C27.682 7.88538 27.6543 7.87285 27.625 7.8718H27.617ZM20.367 8.4348C20.3376 8.43585 20.3099 8.44838 20.2897 8.46969C20.2695 8.49099 20.2584 8.51938 20.259 8.54873C20.2595 8.57809 20.2715 8.60606 20.2925 8.62663C20.3134 8.6472 20.3416 8.65873 20.371 8.65873C20.4003 8.65873 20.4285 8.6472 20.4494 8.62663C20.4704 8.60606 20.4824 8.57809 20.4829 8.54873C20.4835 8.51938 20.4724 8.49099 20.4522 8.46969C20.4321 8.44838 20.4043 8.43585 20.375 8.4348H20.367ZM27.617 8.4348C27.5876 8.43585 27.5599 8.44838 27.5397 8.46969C27.5195 8.49099 27.5084 8.51938 27.509 8.54873C27.5095 8.57809 27.5215 8.60606 27.5425 8.62663C27.5634 8.6472 27.5916 8.65873 27.621 8.65873C27.6503 8.65873 27.6785 8.6472 27.6994 8.62663C27.7204 8.60606 27.7324 8.57809 27.7329 8.54873C27.7335 8.51938 27.7224 8.49099 27.7022 8.46969C27.682 8.44838 27.6543 8.43585 27.625 8.4348H27.617ZM17.893 8.9488C17.7683 8.95082 17.6453 8.97748 17.531 9.02725C17.4167 9.07703 17.3133 9.14892 17.227 9.2388L15.418 11.0948C15.3312 11.1839 15.2627 11.2892 15.2167 11.4048C15.1706 11.5203 15.1477 11.6438 15.1493 11.7682C15.1509 11.8926 15.177 12.0154 15.2261 12.1297C15.2752 12.244 15.3464 12.3475 15.4355 12.4343C15.5246 12.5211 15.6299 12.5895 15.7454 12.6356C15.861 12.6817 15.9844 12.7046 16.1088 12.703C16.2332 12.7013 16.3561 12.6752 16.4704 12.6261C16.5846 12.577 16.6882 12.5059 16.775 12.4168L18.584 10.5578C18.6711 10.4688 18.7397 10.3635 18.786 10.2478C18.8323 10.1322 18.8552 10.0086 18.8536 9.88406C18.8519 9.75953 18.8256 9.63656 18.7763 9.52222C18.7269 9.40788 18.6554 9.30443 18.566 9.2178C18.477 9.13088 18.3718 9.06238 18.2563 9.01622C18.1408 8.97006 18.0173 8.94715 17.893 8.9488ZM31.893 8.9488C31.7683 8.95082 31.6453 8.97748 31.531 9.02725C31.4167 9.07703 31.3134 9.14892 31.227 9.2388L29.418 11.0948C29.3312 11.1839 29.2627 11.2892 29.2167 11.4048C29.1706 11.5203 29.1477 11.6438 29.1493 11.7682C29.1509 11.8926 29.177 12.0154 29.2261 12.1297C29.2752 12.244 29.3464 12.3475 29.4355 12.4343C29.5246 12.5211 29.6299 12.5895 29.7454 12.6356C29.861 12.6817 29.9844 12.7046 30.1088 12.703C30.2332 12.7013 30.3561 12.6752 30.4704 12.6261C30.5846 12.577 30.6882 12.5059 30.775 12.4168L32.584 10.5578C32.6711 10.4688 32.7397 10.3635 32.786 10.2478C32.8323 10.1322 32.8552 10.0086 32.8536 9.88406C32.8519 9.75953 32.8256 9.63656 32.7763 9.52222C32.7269 9.40788 32.6554 9.30443 32.566 9.2178C32.477 9.13088 32.3718 9.06238 32.2563 9.01622C32.1408 8.97006 32.0173 8.94715 31.893 8.9488ZM20.367 8.9978C20.3522 8.99872 20.3379 9.00253 20.3246 9.00901C20.3114 9.01548 20.2996 9.02451 20.2898 9.03556C20.2801 9.04661 20.2726 9.05947 20.2678 9.07341C20.263 9.08735 20.261 9.10209 20.262 9.1168C20.2629 9.13151 20.2667 9.14589 20.2732 9.15913C20.2796 9.17237 20.2887 9.1842 20.2997 9.19395C20.3108 9.2037 20.3236 9.21118 20.3376 9.21596C20.3515 9.22074 20.3662 9.22272 20.381 9.2218C20.4107 9.21995 20.4384 9.20637 20.4581 9.18405C20.4778 9.16173 20.4878 9.13251 20.486 9.1028C20.4841 9.0731 20.4705 9.04535 20.4482 9.02566C20.4259 9.00597 20.3967 8.99595 20.367 8.9978ZM27.617 8.9978C27.6022 8.99872 27.5879 9.00253 27.5746 9.00901C27.5614 9.01548 27.5496 9.02451 27.5398 9.03556C27.5301 9.04661 27.5226 9.05947 27.5178 9.07341C27.513 9.08735 27.511 9.10209 27.512 9.1168C27.5129 9.13151 27.5167 9.14589 27.5232 9.15913C27.5296 9.17237 27.5387 9.1842 27.5497 9.19395C27.5608 9.2037 27.5736 9.21118 27.5876 9.21596C27.6015 9.22074 27.6162 9.22272 27.631 9.2218C27.6607 9.21995 27.6884 9.20637 27.7081 9.18405C27.7278 9.16173 27.7378 9.13251 27.736 9.1028C27.7341 9.0731 27.7205 9.04535 27.6982 9.02566C27.6759 9.00597 27.6467 8.99595 27.617 8.9978ZM17.957 9.4308H17.959C18.037 9.4348 18.119 9.4708 18.203 9.5388C18.61 9.9008 18.126 10.3238 17.951 10.5078L17.086 11.4118C16.479 12.0428 16.215 12.4698 15.791 12.0618C15.431 11.6888 15.751 11.4658 16.439 10.7668L17.305 9.8648C17.509 9.6648 17.721 9.4208 17.957 9.4308ZM31.957 9.4308H31.959C32.037 9.4348 32.119 9.4708 32.203 9.5388C32.61 9.9008 32.126 10.3238 31.951 10.5078L31.086 11.4118C30.479 12.0428 30.215 12.4698 29.791 12.0618C29.431 11.6888 29.751 11.4658 30.439 10.7668L31.305 9.8648C31.509 9.6648 31.721 9.4208 31.957 9.4308ZM20.367 9.5608C20.3449 9.56218 20.3237 9.57 20.306 9.58331C20.2883 9.59662 20.2749 9.61483 20.2675 9.63567C20.2601 9.65651 20.259 9.67908 20.2642 9.70056C20.2695 9.72205 20.281 9.74151 20.2972 9.75654C20.3135 9.77156 20.3338 9.78149 20.3556 9.78508C20.3774 9.78868 20.3999 9.78578 20.4201 9.77676C20.4403 9.76774 20.4574 9.75298 20.4693 9.73432C20.4812 9.71567 20.4873 9.69393 20.487 9.6718C20.487 9.6564 20.4839 9.64115 20.4777 9.62701C20.4716 9.61287 20.4626 9.60015 20.4514 9.58964C20.4401 9.57913 20.4268 9.57105 20.4123 9.56592C20.3978 9.56078 20.3823 9.5587 20.367 9.5598V9.5608ZM27.617 9.5608C27.5949 9.56218 27.5737 9.57 27.556 9.58331C27.5383 9.59662 27.5249 9.61483 27.5175 9.63567C27.5101 9.65651 27.509 9.67908 27.5142 9.70056C27.5195 9.72205 27.531 9.74151 27.5472 9.75654C27.5635 9.77156 27.5838 9.78149 27.6056 9.78508C27.6274 9.78868 27.6499 9.78578 27.6701 9.77676C27.6903 9.76774 27.7074 9.75298 27.7193 9.73432C27.7312 9.71567 27.7373 9.69393 27.737 9.6718C27.737 9.6564 27.7339 9.64115 27.7277 9.62701C27.7216 9.61287 27.7126 9.60015 27.7014 9.58964C27.6901 9.57913 27.6768 9.57105 27.6623 9.56592C27.6478 9.56078 27.6323 9.5587 27.617 9.5598V9.5608ZM20.355 10.1228C20.3286 10.1275 20.3047 10.1415 20.2877 10.1622C20.2707 10.1829 20.2615 10.209 20.262 10.2358C20.262 10.2655 20.2738 10.294 20.2948 10.315C20.3158 10.336 20.3443 10.3478 20.374 10.3478C20.4037 10.3478 20.4321 10.336 20.4532 10.315C20.4742 10.294 20.486 10.2655 20.486 10.2358C20.4857 10.2063 20.474 10.178 20.4533 10.1569C20.4326 10.1358 20.4045 10.1236 20.375 10.1228H20.355ZM27.605 10.1228C27.5786 10.1275 27.5547 10.1415 27.5377 10.1622C27.5207 10.1829 27.5115 10.209 27.512 10.2358C27.512 10.2655 27.5238 10.294 27.5448 10.315C27.5658 10.336 27.5943 10.3478 27.624 10.3478C27.6537 10.3478 27.6821 10.336 27.7032 10.315C27.7242 10.294 27.736 10.2655 27.736 10.2358C27.7357 10.2063 27.724 10.178 27.7033 10.1569C27.6826 10.1358 27.6545 10.1236 27.625 10.1228H27.605ZM24.893 10.2238C24.7683 10.2259 24.6453 10.2526 24.531 10.3023C24.4167 10.3521 24.3134 10.424 24.227 10.5138L22.418 12.3708C22.2426 12.5508 22.146 12.793 22.1493 13.0442C22.1526 13.2954 22.2555 13.535 22.4355 13.7103C22.6154 13.8856 22.8576 13.9823 23.1088 13.979C23.36 13.9757 23.5996 13.8728 23.775 13.6928L25.584 11.8328C25.6709 11.7438 25.7395 11.6386 25.7856 11.523C25.8318 11.4075 25.8547 11.284 25.8531 11.1596C25.8514 11.0352 25.8252 10.9123 25.7759 10.7981C25.7266 10.6838 25.6553 10.5804 25.566 10.4938C25.4771 10.4067 25.3719 10.338 25.2564 10.2917C25.1409 10.2453 25.0174 10.2223 24.893 10.2238ZM20.377 10.6838C20.362 10.6839 20.3472 10.687 20.3334 10.6929C20.3196 10.6987 20.3071 10.7072 20.2966 10.7179C20.2861 10.7286 20.2779 10.7412 20.2722 10.7551C20.2666 10.769 20.2638 10.7838 20.264 10.7988C20.264 10.8608 20.314 10.9088 20.377 10.9078C20.3915 10.9079 20.4059 10.9052 20.4194 10.8997C20.4328 10.8942 20.4451 10.8862 20.4554 10.8759C20.4657 10.8657 20.4739 10.8535 20.4795 10.8401C20.4851 10.8267 20.488 10.8123 20.488 10.7978C20.4882 10.7679 20.4767 10.7391 20.456 10.7176C20.4352 10.6961 20.4068 10.6836 20.377 10.6828V10.6838ZM27.627 10.6838C27.612 10.6839 27.5972 10.687 27.5834 10.6929C27.5696 10.6987 27.5571 10.7072 27.5466 10.7179C27.5361 10.7286 27.5279 10.7412 27.5222 10.7551C27.5166 10.769 27.5138 10.7838 27.514 10.7988C27.514 10.8608 27.564 10.9088 27.627 10.9078C27.6415 10.9079 27.6559 10.9052 27.6694 10.8997C27.6828 10.8942 27.6951 10.8862 27.7054 10.8759C27.7157 10.8657 27.7239 10.8535 27.7295 10.8401C27.7351 10.8267 27.738 10.8123 27.738 10.7978C27.7382 10.7679 27.7267 10.7391 27.706 10.7176C27.6852 10.6961 27.6568 10.6836 27.627 10.6828V10.6838ZM24.957 10.7088H24.959C25.037 10.7128 25.119 10.7478 25.203 10.8158C25.61 11.1778 25.126 11.6018 24.951 11.7848L24.086 12.6888C23.479 13.3208 23.215 13.7478 22.791 13.3388C22.431 12.9658 22.751 12.7438 23.439 12.0448L24.305 11.1418C24.509 10.9418 24.721 10.6988 24.957 10.7088ZM20.377 11.2458C20.3622 11.2457 20.3475 11.2485 20.3338 11.254C20.3201 11.2595 20.3077 11.2677 20.2971 11.278C20.2758 11.299 20.2637 11.3275 20.2635 11.3573C20.2632 11.3871 20.2748 11.4159 20.2957 11.4371C20.3166 11.4584 20.3451 11.4705 20.375 11.4708C20.4048 11.4711 20.4335 11.4595 20.4548 11.4386C20.4761 11.4176 20.4882 11.3891 20.4885 11.3593C20.4887 11.3295 20.4771 11.3007 20.4562 11.2795C20.4353 11.2582 20.4068 11.2461 20.377 11.2458ZM27.627 11.2458C27.6122 11.2457 27.5975 11.2485 27.5838 11.254C27.5701 11.2595 27.5577 11.2677 27.5471 11.278C27.5258 11.299 27.5137 11.3275 27.5135 11.3573C27.5132 11.3871 27.5248 11.4159 27.5457 11.4371C27.5666 11.4584 27.5951 11.4705 27.625 11.4708C27.6548 11.4711 27.6835 11.4595 27.7048 11.4386C27.7261 11.4176 27.7382 11.3891 27.7385 11.3593C27.7387 11.3295 27.7271 11.3007 27.7062 11.2795C27.6853 11.2582 27.6568 11.2461 27.627 11.2458ZM20.367 11.8078C20.3386 11.8113 20.3127 11.8252 20.2941 11.8469C20.2756 11.8686 20.2659 11.8965 20.2669 11.925C20.2679 11.9535 20.2796 11.9806 20.2996 12.0009C20.3196 12.0212 20.3465 12.0333 20.375 12.0348C20.436 12.0348 20.485 11.9828 20.486 11.9218C20.4863 11.9063 20.4834 11.8909 20.4774 11.8766C20.4715 11.8623 20.4626 11.8494 20.4515 11.8387C20.4403 11.828 20.427 11.8197 20.4124 11.8144C20.3979 11.8091 20.3824 11.8068 20.367 11.8078ZM27.617 11.8078C27.5886 11.8113 27.5627 11.8252 27.5441 11.8469C27.5256 11.8686 27.5159 11.8965 27.5169 11.925C27.5179 11.9535 27.5296 11.9806 27.5496 12.0009C27.5696 12.0212 27.5965 12.0333 27.625 12.0348C27.686 12.0348 27.735 11.9828 27.736 11.9218C27.7363 11.9063 27.7334 11.8909 27.7274 11.8766C27.7215 11.8623 27.7126 11.8494 27.7015 11.8387C27.6903 11.828 27.677 11.8197 27.6624 11.8144C27.6479 11.8091 27.6324 11.8068 27.617 11.8078ZM20.367 12.3708C20.3386 12.3743 20.3127 12.3882 20.2941 12.4099C20.2756 12.4316 20.2659 12.4595 20.2669 12.488C20.2679 12.5165 20.2796 12.5436 20.2996 12.5639C20.3196 12.5842 20.3465 12.5963 20.375 12.5978C20.436 12.5968 20.485 12.5448 20.486 12.4838C20.4861 12.4691 20.4833 12.4545 20.4778 12.4409C20.4723 12.4272 20.4642 12.4148 20.4539 12.4043C20.4436 12.3938 20.4313 12.3855 20.4177 12.3797C20.4042 12.374 20.3897 12.3709 20.375 12.3708H20.367ZM27.617 12.3708C27.5886 12.3743 27.5627 12.3882 27.5441 12.4099C27.5256 12.4316 27.5159 12.4595 27.5169 12.488C27.5179 12.5165 27.5296 12.5436 27.5496 12.5639C27.5696 12.5842 27.5965 12.5963 27.625 12.5978C27.686 12.5968 27.735 12.5448 27.736 12.4838C27.7361 12.4691 27.7333 12.4545 27.7278 12.4409C27.7223 12.4272 27.7142 12.4148 27.7039 12.4043C27.6936 12.3938 27.6813 12.3855 27.6677 12.3797C27.6542 12.374 27.6397 12.3709 27.625 12.3708H27.617ZM17.893 12.7418C17.7683 12.7439 17.6453 12.7706 17.531 12.8203C17.4167 12.8701 17.3134 12.942 17.227 13.0318L15.418 14.8888C15.3307 14.9777 15.2619 15.0829 15.2154 15.1985C15.169 15.314 15.1459 15.4376 15.1474 15.5621C15.1488 15.6867 15.1749 15.8097 15.2241 15.9241C15.2733 16.0385 15.3446 16.142 15.434 16.2288C15.6144 16.4038 15.8568 16.5002 16.1082 16.4968C16.3595 16.4935 16.5993 16.3906 16.775 16.2108L18.584 14.3508C18.6711 14.2618 18.7397 14.1565 18.786 14.0408C18.8323 13.9252 18.8552 13.8016 18.8536 13.6771C18.8519 13.5525 18.8256 13.4296 18.7763 13.3152C18.7269 13.2009 18.6554 13.0974 18.566 13.0108C18.477 12.9239 18.3718 12.8554 18.2563 12.8092C18.1408 12.7631 18.0173 12.7401 17.893 12.7418ZM31.893 12.7418C31.7683 12.7439 31.6453 12.7706 31.531 12.8203C31.4167 12.8701 31.3134 12.942 31.227 13.0318L29.418 14.8888C29.2518 15.0702 29.1627 15.3091 29.1696 15.5551C29.1765 15.801 29.2788 16.0346 29.4549 16.2064C29.631 16.3782 29.867 16.4747 30.113 16.4755C30.359 16.4764 30.5957 16.3814 30.773 16.2108L32.582 14.3508C32.714 14.2171 32.8033 14.0471 32.8382 13.8624C32.8732 13.6778 32.8523 13.4869 32.7782 13.3142C32.7042 13.1415 32.5803 12.9948 32.4224 12.8928C32.2645 12.7908 32.0799 12.7383 31.892 12.7418H31.893ZM20.367 12.9328C20.3376 12.9339 20.3099 12.9464 20.2897 12.9677C20.2695 12.989 20.2584 13.0174 20.259 13.0467C20.2595 13.0761 20.2715 13.1041 20.2925 13.1246C20.3134 13.1452 20.3416 13.1567 20.371 13.1567C20.4003 13.1567 20.4285 13.1452 20.4494 13.1246C20.4704 13.1041 20.4824 13.0761 20.4829 13.0467C20.4835 13.0174 20.4724 12.989 20.4522 12.9677C20.4321 12.9464 20.4043 12.9339 20.375 12.9328H20.367ZM27.617 12.9328C27.5876 12.9339 27.5599 12.9464 27.5397 12.9677C27.5195 12.989 27.5084 13.0174 27.509 13.0467C27.5095 13.0761 27.5215 13.1041 27.5425 13.1246C27.5634 13.1452 27.5916 13.1567 27.621 13.1567C27.6503 13.1567 27.6785 13.1452 27.6994 13.1246C27.7204 13.1041 27.7324 13.0761 27.7329 13.0467C27.7335 13.0174 27.7224 12.989 27.7022 12.9677C27.682 12.9464 27.6543 12.9339 27.625 12.9328H27.617ZM17.957 13.2238H17.959C18.037 13.2278 18.119 13.2638 18.203 13.3318C18.61 13.6938 18.126 14.1168 17.951 14.3008L17.086 15.2048C16.479 15.8358 16.215 16.2628 15.791 15.8548C15.431 15.4818 15.751 15.2588 16.439 14.5598L17.305 13.6578C17.509 13.4578 17.721 13.2138 17.957 13.2238ZM31.957 13.2238H31.959C32.037 13.2278 32.119 13.2638 32.203 13.3318C32.61 13.6938 32.126 14.1168 31.951 14.3008L31.086 15.2048C30.479 15.8358 30.215 16.2628 29.791 15.8548C29.431 15.4818 29.751 15.2588 30.439 14.5598L31.305 13.6578C31.509 13.4578 31.721 13.2138 31.957 13.2238ZM20.367 13.4958C20.3376 13.4969 20.3099 13.5094 20.2897 13.5307C20.2695 13.552 20.2584 13.5804 20.259 13.6097C20.2595 13.6391 20.2715 13.6671 20.2925 13.6876C20.3134 13.7082 20.3416 13.7197 20.371 13.7197C20.4003 13.7197 20.4285 13.7082 20.4494 13.6876C20.4704 13.6671 20.4824 13.6391 20.4829 13.6097C20.4835 13.5804 20.4724 13.552 20.4522 13.5307C20.4321 13.5094 20.4043 13.4969 20.375 13.4958H20.367ZM27.617 13.4958C27.5876 13.4969 27.5599 13.5094 27.5397 13.5307C27.5195 13.552 27.5084 13.5804 27.509 13.6097C27.5095 13.6391 27.5215 13.6671 27.5425 13.6876C27.5634 13.7082 27.5916 13.7197 27.621 13.7197C27.6503 13.7197 27.6785 13.7082 27.6994 13.6876C27.7204 13.6671 27.7324 13.6391 27.7329 13.6097C27.7335 13.5804 27.7224 13.552 27.7022 13.5307C27.682 13.5094 27.6543 13.4969 27.625 13.4958H27.617ZM20.367 14.0578C20.3522 14.0587 20.3377 14.0625 20.3244 14.069C20.3111 14.0755 20.2993 14.0846 20.2895 14.0957C20.2797 14.1068 20.2721 14.1197 20.2673 14.1337C20.2625 14.1477 20.2605 14.1625 20.2615 14.1773C20.2624 14.1921 20.2662 14.2065 20.2727 14.2198C20.2792 14.2331 20.2883 14.245 20.2994 14.2548C20.3105 14.2646 20.3234 14.2721 20.3374 14.2769C20.3514 14.2817 20.3662 14.2837 20.381 14.2828C20.4108 14.2809 20.4387 14.2673 20.4585 14.2449C20.4782 14.2225 20.4883 14.1931 20.4865 14.1633C20.4846 14.1335 20.471 14.1056 20.4486 14.0858C20.4261 14.066 20.3968 14.0559 20.367 14.0578ZM27.617 14.0578C27.6022 14.0587 27.5877 14.0625 27.5744 14.069C27.5611 14.0755 27.5493 14.0846 27.5395 14.0957C27.5297 14.1068 27.5221 14.1197 27.5173 14.1337C27.5125 14.1477 27.5105 14.1625 27.5115 14.1773C27.5124 14.1921 27.5162 14.2065 27.5227 14.2198C27.5292 14.2331 27.5383 14.245 27.5494 14.2548C27.5605 14.2646 27.5734 14.2721 27.5874 14.2769C27.6014 14.2817 27.6162 14.2837 27.631 14.2828C27.6608 14.2809 27.6887 14.2673 27.7085 14.2449C27.7282 14.2225 27.7383 14.1931 27.7365 14.1633C27.7346 14.1335 27.721 14.1056 27.6986 14.0858C27.6761 14.066 27.6468 14.0559 27.617 14.0578ZM24.893 14.2258C24.7683 14.2278 24.6453 14.2545 24.531 14.3043C24.4167 14.354 24.3133 14.4259 24.227 14.5158L22.418 16.3728C22.3307 16.4617 22.2619 16.5669 22.2154 16.6825C22.169 16.798 22.1459 16.9216 22.1474 17.0461C22.1488 17.1707 22.1749 17.2937 22.2241 17.4081C22.2733 17.5225 22.3446 17.626 22.434 17.7128C22.6141 17.888 22.8564 17.9845 23.1077 17.9812C23.3589 17.9778 23.5986 17.8748 23.774 17.6948L25.582 15.8348C25.7133 15.701 25.802 15.5312 25.8365 15.3469C25.8711 15.1626 25.85 14.9721 25.7761 14.7998C25.7021 14.6275 25.5785 14.4811 25.4211 14.3793C25.2636 14.2774 25.0794 14.2247 24.892 14.2278V14.2258H24.893ZM20.355 14.6208C20.3287 14.6251 20.3049 14.6387 20.2879 14.659C20.2708 14.6794 20.2616 14.7052 20.262 14.7318C20.2618 14.754 20.2681 14.7757 20.2803 14.7942C20.2924 14.8127 20.3098 14.8272 20.3302 14.8359C20.3506 14.8445 20.3731 14.847 20.3948 14.8428C20.4166 14.8387 20.4366 14.8282 20.4524 14.8127C20.4682 14.7972 20.4791 14.7773 20.4836 14.7556C20.4881 14.7339 20.4861 14.7114 20.4778 14.6909C20.4695 14.6703 20.4553 14.6527 20.437 14.6402C20.4187 14.6278 20.3971 14.621 20.375 14.6208H20.355ZM27.605 14.6208C27.5787 14.6251 27.5549 14.6387 27.5379 14.659C27.5208 14.6794 27.5116 14.7052 27.512 14.7318C27.5118 14.754 27.5181 14.7757 27.5303 14.7942C27.5424 14.8127 27.5598 14.8272 27.5802 14.8359C27.6006 14.8445 27.6231 14.847 27.6448 14.8428C27.6666 14.8387 27.6866 14.8282 27.7024 14.8127C27.7182 14.7972 27.7291 14.7773 27.7336 14.7556C27.7381 14.7339 27.7361 14.7114 27.7278 14.6909C27.7195 14.6703 27.7053 14.6527 27.687 14.6402C27.6687 14.6278 27.6471 14.621 27.625 14.6208H27.605ZM24.957 14.7088H24.959C25.037 14.7128 25.119 14.7478 25.203 14.8158C25.61 15.1778 25.126 15.6018 24.951 15.7848L24.086 16.6888C23.479 17.3208 23.215 17.7468 22.791 17.3388C22.431 16.9658 22.751 16.7438 23.439 16.0448L24.305 15.1418C24.509 14.9418 24.721 14.6988 24.957 14.7088ZM20.355 15.1828C20.3339 15.1862 20.3142 15.1956 20.2983 15.2099C20.2824 15.2241 20.2708 15.2426 20.2651 15.2632C20.2593 15.2838 20.2596 15.3056 20.2658 15.326C20.272 15.3464 20.284 15.3647 20.3002 15.3785C20.3165 15.3924 20.3364 15.4013 20.3575 15.4043C20.3787 15.4072 20.4002 15.4041 20.4196 15.3952C20.4391 15.3862 20.4555 15.372 20.4671 15.354C20.4787 15.3361 20.4849 15.3152 20.485 15.2938C20.485 15.2338 20.436 15.1838 20.375 15.1838H20.355V15.1828ZM27.605 15.1828C27.5839 15.1862 27.5642 15.1956 27.5483 15.2099C27.5324 15.2241 27.5208 15.2426 27.5151 15.2632C27.5093 15.2838 27.5096 15.3056 27.5158 15.326C27.522 15.3464 27.534 15.3647 27.5502 15.3785C27.5665 15.3924 27.5864 15.4013 27.6075 15.4043C27.6287 15.4072 27.6502 15.4041 27.6696 15.3952C27.6891 15.3862 27.7055 15.372 27.7171 15.354C27.7287 15.3361 27.7349 15.3152 27.735 15.2938C27.735 15.2338 27.686 15.1838 27.625 15.1838H27.605V15.1828ZM20.377 15.7438C20.3622 15.7437 20.3475 15.7465 20.3338 15.752C20.3201 15.7575 20.3077 15.7657 20.2971 15.776C20.2758 15.797 20.2637 15.8255 20.2635 15.8553C20.2632 15.8851 20.2748 15.9139 20.2957 15.9351C20.3166 15.9564 20.3451 15.9685 20.375 15.9688C20.4048 15.9691 20.4335 15.9575 20.4548 15.9366C20.4761 15.9157 20.4882 15.8871 20.4885 15.8573C20.4887 15.8275 20.4771 15.7987 20.4562 15.7775C20.4353 15.7562 20.4068 15.7441 20.377 15.7438ZM27.627 15.7438C27.6122 15.7437 27.5975 15.7465 27.5838 15.752C27.5701 15.7575 27.5577 15.7657 27.5471 15.776C27.5258 15.797 27.5137 15.8255 27.5135 15.8553C27.5132 15.8851 27.5248 15.9139 27.5457 15.9351C27.5666 15.9564 27.5951 15.9685 27.625 15.9688C27.6548 15.9691 27.6835 15.9575 27.7048 15.9366C27.7261 15.9157 27.7382 15.8871 27.7385 15.8573C27.7387 15.8275 27.7271 15.7987 27.7062 15.7775C27.6853 15.7562 27.6568 15.7441 27.627 15.7438ZM20.367 16.3068C20.3383 16.3086 20.3114 16.3213 20.2919 16.3423C20.2724 16.3634 20.2616 16.3911 20.262 16.4198C20.262 16.4818 20.312 16.5318 20.375 16.5308C20.3897 16.5303 20.4041 16.5269 20.4175 16.5207C20.4309 16.5146 20.443 16.5059 20.453 16.4952C20.463 16.4844 20.4708 16.4718 20.476 16.458C20.4811 16.4442 20.4835 16.4295 20.483 16.4148C20.4824 16.4001 20.479 16.3856 20.4729 16.3722C20.4668 16.3589 20.4581 16.3468 20.4473 16.3368C20.4366 16.3267 20.4239 16.3189 20.4101 16.3138C20.3963 16.3087 20.3817 16.3063 20.367 16.3068ZM27.617 16.3068C27.5883 16.3086 27.5614 16.3213 27.5419 16.3423C27.5224 16.3634 27.5116 16.3911 27.512 16.4198C27.512 16.4818 27.562 16.5318 27.625 16.5308C27.6397 16.5303 27.6541 16.5269 27.6675 16.5207C27.6809 16.5146 27.693 16.5059 27.703 16.4952C27.713 16.4844 27.7208 16.4718 27.726 16.458C27.7311 16.4442 27.7335 16.4295 27.733 16.4148C27.7324 16.4001 27.729 16.3856 27.7229 16.3722C27.7168 16.3589 27.7081 16.3468 27.6973 16.3368C27.6866 16.3267 27.6739 16.3189 27.6601 16.3138C27.6463 16.3087 27.6317 16.3063 27.617 16.3068ZM17.893 16.5348C17.7683 16.5368 17.6453 16.5635 17.531 16.6133C17.4167 16.663 17.3133 16.7349 17.227 16.8248L15.418 18.6818C15.3266 18.7698 15.2538 18.8752 15.2039 18.9919C15.1541 19.1085 15.1282 19.234 15.1277 19.3609C15.1273 19.4877 15.1524 19.6134 15.2014 19.7304C15.2505 19.8474 15.3226 19.9533 15.4134 20.0419C15.5042 20.1305 15.6119 20.1999 15.73 20.2461C15.8482 20.2923 15.9744 20.3142 16.1012 20.3107C16.228 20.3071 16.3529 20.2781 16.4682 20.2254C16.5836 20.1727 16.6873 20.0973 16.773 20.0038L18.582 18.1438C18.714 18.0101 18.8033 17.8401 18.8382 17.6554C18.8732 17.4708 18.8523 17.2799 18.7782 17.1072C18.7042 16.9345 18.5803 16.7878 18.4224 16.6858C18.2645 16.5838 18.0799 16.5313 17.892 16.5348H17.893ZM31.893 16.5348C31.7683 16.5368 31.6453 16.5635 31.531 16.6133C31.4167 16.663 31.3134 16.7349 31.227 16.8248L29.418 18.6818C29.2518 18.8632 29.1627 19.1021 29.1696 19.3481C29.1765 19.594 29.2788 19.8276 29.4549 19.9994C29.631 20.1712 29.867 20.2677 30.113 20.2685C30.359 20.2694 30.5957 20.1744 30.773 20.0038L32.582 18.1438C32.714 18.0101 32.8033 17.8401 32.8382 17.6554C32.8732 17.4708 32.8523 17.2799 32.7782 17.1072C32.7042 16.9345 32.5803 16.7878 32.4224 16.6858C32.2645 16.5838 32.0799 16.5313 31.892 16.5348H31.893ZM20.367 16.8688C20.3376 16.8699 20.3099 16.8824 20.2897 16.9037C20.2695 16.925 20.2584 16.9534 20.259 16.9827C20.2595 17.0121 20.2715 17.0401 20.2925 17.0606C20.3134 17.0812 20.3416 17.0927 20.371 17.0927C20.4003 17.0927 20.4285 17.0812 20.4494 17.0606C20.4704 17.0401 20.4824 17.0121 20.4829 16.9827C20.4835 16.9534 20.4724 16.925 20.4522 16.9037C20.4321 16.8824 20.4043 16.8699 20.375 16.8688C20.3723 16.8687 20.3696 16.8687 20.367 16.8688ZM27.617 16.8688C27.5876 16.8699 27.5599 16.8824 27.5397 16.9037C27.5195 16.925 27.5084 16.9534 27.509 16.9827C27.5095 17.0121 27.5215 17.0401 27.5425 17.0606C27.5634 17.0812 27.5916 17.0927 27.621 17.0927C27.6503 17.0927 27.6785 17.0812 27.6994 17.0606C27.7204 17.0401 27.7324 17.0121 27.7329 16.9827C27.7335 16.9534 27.7224 16.925 27.7022 16.9037C27.682 16.8824 27.6543 16.8699 27.625 16.8688C27.6223 16.8687 27.6196 16.8687 27.617 16.8688ZM17.957 17.0168V17.0188H17.959C18.037 17.0228 18.119 17.0568 18.203 17.1248C18.61 17.4858 18.126 17.9098 17.951 18.0938L17.086 18.9978C16.479 19.6288 16.215 20.0558 15.791 19.6478C15.431 19.2748 15.751 19.0518 16.439 18.3528L17.305 17.4508C17.509 17.2508 17.721 17.0068 17.957 17.0168ZM31.957 17.0168V17.0188H31.959C32.037 17.0228 32.119 17.0568 32.203 17.1248C32.61 17.4858 32.126 17.9098 31.951 18.0938L31.086 18.9978C30.479 19.6288 30.215 20.0558 29.791 19.6478C29.431 19.2748 29.751 19.0518 30.439 18.3528L31.305 17.4508C31.509 17.2508 31.721 17.0068 31.957 17.0168ZM20.367 17.4318C20.3522 17.4327 20.3379 17.4365 20.3246 17.443C20.3114 17.4495 20.2996 17.4585 20.2898 17.4696C20.2801 17.4806 20.2726 17.4935 20.2678 17.5074C20.263 17.5213 20.261 17.5361 20.262 17.5508C20.2629 17.5655 20.2667 17.5799 20.2732 17.5931C20.2796 17.6064 20.2887 17.6182 20.2997 17.6279C20.3108 17.6377 20.3236 17.6452 20.3376 17.65C20.3515 17.6547 20.3662 17.6567 20.381 17.6558C20.4107 17.6539 20.4384 17.6404 20.4581 17.618C20.4778 17.5957 20.4878 17.5665 20.486 17.5368C20.4841 17.5071 20.4705 17.4793 20.4482 17.4597C20.4259 17.44 20.3967 17.4299 20.367 17.4318ZM27.617 17.4318C27.6022 17.4327 27.5879 17.4365 27.5746 17.443C27.5614 17.4495 27.5496 17.4585 27.5398 17.4696C27.5301 17.4806 27.5226 17.4935 27.5178 17.5074C27.513 17.5213 27.511 17.5361 27.512 17.5508C27.5129 17.5655 27.5167 17.5799 27.5232 17.5931C27.5296 17.6064 27.5387 17.6182 27.5497 17.6279C27.5608 17.6377 27.5736 17.6452 27.5876 17.65C27.6015 17.6547 27.6162 17.6567 27.631 17.6558C27.6607 17.6539 27.6884 17.6404 27.7081 17.618C27.7278 17.5957 27.7378 17.5665 27.736 17.5368C27.7341 17.5071 27.7205 17.4793 27.6982 17.4597C27.6759 17.44 27.6467 17.4299 27.617 17.4318ZM20.367 17.9938C20.3522 17.9947 20.3379 17.9985 20.3246 18.005C20.3114 18.0115 20.2996 18.0205 20.2898 18.0316C20.2801 18.0426 20.2726 18.0555 20.2678 18.0694C20.263 18.0834 20.261 18.0981 20.262 18.1128C20.2629 18.1275 20.2667 18.1419 20.2732 18.1551C20.2796 18.1684 20.2887 18.1802 20.2997 18.1899C20.3108 18.1997 20.3236 18.2072 20.3376 18.212C20.3515 18.2167 20.3662 18.2187 20.381 18.2178C20.4107 18.2159 20.4384 18.2024 20.4581 18.18C20.4778 18.1577 20.4878 18.1285 20.486 18.0988C20.4841 18.0691 20.4705 18.0413 20.4482 18.0217C20.4259 18.002 20.3967 17.9919 20.367 17.9938ZM27.617 17.9938C27.5873 17.9957 27.5595 18.0092 27.5398 18.0316C27.5201 18.0539 27.5101 18.0831 27.512 18.1128C27.5138 18.1425 27.5274 18.1703 27.5497 18.1899C27.572 18.2096 27.6013 18.2197 27.631 18.2178C27.6457 18.2169 27.66 18.2131 27.6733 18.2066C27.6865 18.2001 27.6984 18.1911 27.7081 18.18C27.7179 18.169 27.7253 18.1561 27.7301 18.1422C27.7349 18.1283 27.7369 18.1135 27.736 18.0988C27.735 18.0841 27.7312 18.0697 27.7248 18.0565C27.7183 18.0432 27.7093 18.0314 27.6982 18.0217C27.6872 18.0119 27.6743 18.0044 27.6603 17.9997C27.6464 17.9949 27.6317 17.9929 27.617 17.9938ZM24.893 18.2258C24.7683 18.2278 24.6453 18.2545 24.531 18.3043C24.4167 18.354 24.3133 18.4259 24.227 18.5158L22.418 20.3728C22.3307 20.4617 22.2619 20.5669 22.2154 20.6825C22.169 20.798 22.1459 20.9216 22.1474 21.0461C22.1488 21.1707 22.1749 21.2937 22.2241 21.4081C22.2733 21.5225 22.3446 21.626 22.434 21.7128C22.6141 21.888 22.8564 21.9845 23.1077 21.9812C23.3589 21.9778 23.5986 21.8748 23.774 21.6948L25.582 19.8348C25.714 19.7011 25.8033 19.5311 25.8382 19.3464C25.8732 19.1618 25.8523 18.9709 25.7782 18.7982C25.7042 18.6255 25.5803 18.4788 25.4224 18.3768C25.2645 18.2748 25.0799 18.2223 24.892 18.2258H24.893ZM20.367 18.5558C20.3522 18.5567 20.3377 18.5605 20.3244 18.567C20.3111 18.5735 20.2993 18.5826 20.2895 18.5937C20.2797 18.6048 20.2721 18.6177 20.2673 18.6317C20.2625 18.6457 20.2605 18.6605 20.2615 18.6753C20.2624 18.6901 20.2662 18.7045 20.2727 18.7178C20.2792 18.7311 20.2883 18.743 20.2994 18.7528C20.3105 18.7626 20.3234 18.7701 20.3374 18.7749C20.3514 18.7797 20.3662 18.7817 20.381 18.7808C20.4107 18.7789 20.4384 18.7654 20.4581 18.743C20.4778 18.7207 20.4878 18.6915 20.486 18.6618C20.4841 18.6321 20.4705 18.6043 20.4482 18.5847C20.4259 18.565 20.3967 18.5549 20.367 18.5568V18.5558ZM27.617 18.5558C27.6022 18.5567 27.5877 18.5605 27.5744 18.567C27.5611 18.5735 27.5493 18.5826 27.5395 18.5937C27.5297 18.6048 27.5221 18.6177 27.5173 18.6317C27.5125 18.6457 27.5105 18.6605 27.5115 18.6753C27.5124 18.6901 27.5162 18.7045 27.5227 18.7178C27.5292 18.7311 27.5383 18.743 27.5494 18.7528C27.5605 18.7626 27.5734 18.7701 27.5874 18.7749C27.6014 18.7797 27.6162 18.7817 27.631 18.7808C27.6607 18.7789 27.6884 18.7654 27.7081 18.743C27.7278 18.7207 27.7378 18.6915 27.736 18.6618C27.7341 18.6321 27.7205 18.6043 27.6982 18.5847C27.6759 18.565 27.6467 18.5549 27.617 18.5568V18.5558ZM24.957 18.7088H24.959C25.037 18.7128 25.119 18.7468 25.203 18.8158C25.61 19.1778 25.126 19.6018 24.951 19.7848L24.086 20.6888C23.479 21.3208 23.215 21.7468 22.791 21.3388C22.431 20.9658 22.751 20.7438 23.439 20.0448L24.305 19.1418C24.509 18.9418 24.721 18.6988 24.957 18.7088ZM20.355 19.1188C20.3286 19.1229 20.3047 19.1364 20.2876 19.1568C20.2705 19.1773 20.2614 19.2032 20.262 19.2298C20.2616 19.2522 20.2678 19.2743 20.28 19.2931C20.2922 19.312 20.3097 19.3268 20.3303 19.3356C20.3509 19.3445 20.3737 19.347 20.3958 19.3429C20.4178 19.3387 20.4381 19.3281 20.4541 19.3124C20.4701 19.2967 20.4811 19.2766 20.4856 19.2546C20.4901 19.2326 20.488 19.2098 20.4795 19.189C20.471 19.1683 20.4566 19.1505 20.4379 19.138C20.4193 19.1255 20.3974 19.1188 20.375 19.1188H20.355ZM27.605 19.1188C27.5786 19.1229 27.5547 19.1364 27.5376 19.1568C27.5205 19.1773 27.5114 19.2032 27.512 19.2298C27.5116 19.2522 27.5178 19.2743 27.53 19.2931C27.5422 19.312 27.5597 19.3268 27.5803 19.3356C27.6009 19.3445 27.6237 19.347 27.6458 19.3429C27.6678 19.3387 27.6881 19.3281 27.7041 19.3124C27.7201 19.2967 27.7311 19.2766 27.7356 19.2546C27.7401 19.2326 27.738 19.2098 27.7295 19.189C27.721 19.1683 27.7066 19.1505 27.6879 19.138C27.6693 19.1255 27.6474 19.1188 27.625 19.1188H27.605ZM20.377 19.6788C20.3622 19.6787 20.3475 19.6815 20.3338 19.687C20.3201 19.6925 20.3077 19.7007 20.2971 19.711C20.2866 19.7214 20.2782 19.7337 20.2724 19.7473C20.2666 19.7609 20.2636 19.7755 20.2635 19.7903C20.2633 19.8051 20.2661 19.8197 20.2716 19.8334C20.2772 19.8471 20.2853 19.8596 20.2957 19.8701C20.3061 19.8807 20.3184 19.8891 20.332 19.8949C20.3456 19.9006 20.3602 19.9037 20.375 19.9038C20.3897 19.9039 20.4043 19.9012 20.4179 19.8957C20.4315 19.8902 20.444 19.882 20.4544 19.8717C20.4649 19.8614 20.4733 19.8491 20.479 19.8356C20.4848 19.8221 20.4878 19.8075 20.488 19.7928C20.4881 19.7781 20.4853 19.7635 20.4798 19.7499C20.4743 19.7362 20.4662 19.7238 20.4559 19.7133C20.4456 19.7028 20.4333 19.6945 20.4197 19.6887C20.4062 19.683 20.3917 19.6799 20.377 19.6798V19.6788ZM27.627 19.6788C27.6122 19.6787 27.5975 19.6815 27.5838 19.687C27.5701 19.6925 27.5577 19.7007 27.5471 19.711C27.5366 19.7214 27.5282 19.7337 27.5224 19.7473C27.5166 19.7609 27.5136 19.7755 27.5135 19.7903C27.5133 19.8051 27.5161 19.8197 27.5216 19.8334C27.5272 19.8471 27.5353 19.8596 27.5457 19.8701C27.5561 19.8807 27.5684 19.8891 27.582 19.8949C27.5956 19.9006 27.6102 19.9037 27.625 19.9038C27.6397 19.9039 27.6543 19.9012 27.6679 19.8957C27.6815 19.8902 27.694 19.882 27.7044 19.8717C27.7149 19.8614 27.7233 19.8491 27.729 19.8356C27.7348 19.8221 27.7378 19.8075 27.738 19.7928C27.7381 19.7781 27.7353 19.7635 27.7298 19.7499C27.7243 19.7362 27.7162 19.7238 27.7059 19.7133C27.6956 19.7028 27.6833 19.6945 27.6697 19.6887C27.6562 19.683 27.6417 19.6799 27.627 19.6798V19.6788ZM20.367 20.2418C20.3383 20.2436 20.3114 20.2563 20.2919 20.2773C20.2724 20.2984 20.2616 20.3261 20.262 20.3548C20.2622 20.3769 20.2689 20.3984 20.2812 20.4166C20.2936 20.4349 20.3111 20.4491 20.3316 20.4575C20.352 20.4658 20.3744 20.468 20.396 20.4636C20.4177 20.4592 20.4375 20.4486 20.4531 20.433C20.4688 20.4174 20.4794 20.3975 20.4837 20.3759C20.4881 20.3543 20.486 20.3318 20.4776 20.3114C20.4693 20.291 20.4551 20.2735 20.4368 20.2611C20.4185 20.2487 20.397 20.242 20.375 20.2418H20.367ZM27.617 20.2418C27.5883 20.2436 27.5614 20.2563 27.5419 20.2773C27.5224 20.2984 27.5116 20.3261 27.512 20.3548C27.5122 20.3769 27.5189 20.3984 27.5312 20.4166C27.5436 20.4349 27.5611 20.4491 27.5816 20.4575C27.602 20.4658 27.6244 20.468 27.646 20.4636C27.6677 20.4592 27.6875 20.4486 27.7031 20.433C27.7188 20.4174 27.7294 20.3975 27.7337 20.3759C27.7381 20.3543 27.736 20.3318 27.7276 20.3114C27.7193 20.291 27.7051 20.2735 27.6868 20.2611C27.6685 20.2487 27.647 20.242 27.625 20.2418H27.617ZM17.893 20.3278C17.7683 20.3301 17.6452 20.357 17.531 20.4069C17.4167 20.4569 17.3134 20.5289 17.227 20.6188L15.418 22.4758C15.3307 22.5647 15.2619 22.6699 15.2154 22.7855C15.169 22.901 15.1459 23.0246 15.1474 23.1491C15.1488 23.2737 15.1749 23.3967 15.2241 23.5111C15.2733 23.6255 15.3446 23.729 15.434 23.8158C15.6141 23.9909 15.8563 24.0874 16.1075 24.0842C16.3587 24.0811 16.5983 23.9784 16.774 23.7988L18.582 21.9388C18.7144 21.8052 18.8039 21.635 18.8391 21.4502C18.8742 21.2654 18.8534 21.0743 18.7793 20.9014C18.7052 20.7284 18.5812 20.5816 18.4231 20.4796C18.265 20.3776 18.0801 20.3251 17.892 20.3288V20.3278H17.893ZM31.893 20.3278C31.7683 20.3301 31.6452 20.357 31.531 20.4069C31.4167 20.4569 31.3134 20.5289 31.227 20.6188L29.418 22.4758C29.3307 22.5647 29.2619 22.6699 29.2154 22.7855C29.169 22.901 29.1459 23.0246 29.1474 23.1491C29.1488 23.2737 29.1749 23.3967 29.2241 23.5111C29.2733 23.6255 29.3446 23.729 29.434 23.8158C29.6141 23.9909 29.8563 24.0874 30.1075 24.0842C30.3587 24.0811 30.5983 23.9784 30.774 23.7988L32.582 21.9388C32.7144 21.8052 32.8039 21.635 32.8391 21.4502C32.8742 21.2654 32.8534 21.0743 32.7793 20.9014C32.7052 20.7284 32.5812 20.5816 32.4231 20.4796C32.265 20.3776 32.0801 20.3251 31.892 20.3288V20.3278H31.893ZM20.367 20.8048C20.3383 20.8066 20.3114 20.8193 20.2919 20.8403C20.2724 20.8614 20.2616 20.8891 20.262 20.9178C20.262 20.9798 20.312 21.0298 20.375 21.0288C20.436 21.0288 20.485 20.9788 20.486 20.9178C20.4861 20.9031 20.4833 20.8885 20.4778 20.8749C20.4723 20.8612 20.4642 20.8488 20.4539 20.8383C20.4436 20.8278 20.4313 20.8195 20.4177 20.8137C20.4042 20.808 20.3897 20.8049 20.375 20.8048H20.367ZM27.617 20.8048C27.5883 20.8066 27.5614 20.8193 27.5419 20.8403C27.5224 20.8614 27.5116 20.8891 27.512 20.9178C27.512 20.9798 27.562 21.0298 27.625 21.0288C27.686 21.0288 27.735 20.9788 27.736 20.9178C27.7361 20.9031 27.7333 20.8885 27.7278 20.8749C27.7223 20.8612 27.7142 20.8488 27.7039 20.8383C27.6936 20.8278 27.6813 20.8195 27.6677 20.8137C27.6542 20.808 27.6397 20.8049 27.625 20.8048H27.617ZM17.957 20.8118H17.959C18.037 20.8158 18.119 20.8508 18.203 20.9198C18.61 21.2808 18.126 21.7048 17.951 21.8878L17.086 22.7928C16.479 23.4238 16.215 23.8508 15.791 23.4428C15.431 23.0698 15.751 22.8468 16.439 22.1478L17.305 21.2458C17.509 21.0458 17.721 20.8018 17.957 20.8118ZM31.957 20.8118H31.959C32.037 20.8158 32.119 20.8508 32.203 20.9198C32.61 21.2808 32.126 21.7048 31.951 21.8878L31.086 22.7928C30.479 23.4238 30.215 23.8508 29.791 23.4428C29.431 23.0698 29.751 22.8468 30.439 22.1478L31.305 21.2458C31.509 21.0458 31.721 20.8018 31.957 20.8118ZM20.367 21.3668C20.3383 21.3686 20.3114 21.3813 20.2919 21.4023C20.2724 21.4234 20.2616 21.4511 20.262 21.4798C20.262 21.5096 20.2738 21.5383 20.2949 21.5594C20.316 21.5805 20.3446 21.5923 20.3745 21.5923C20.4043 21.5923 20.4329 21.5805 20.454 21.5594C20.4751 21.5383 20.487 21.5096 20.487 21.4798C20.4871 21.465 20.4843 21.4503 20.4787 21.4366C20.4732 21.4229 20.4649 21.4105 20.4545 21.4C20.4441 21.3895 20.4317 21.3811 20.418 21.3754C20.4044 21.3697 20.3897 21.3668 20.375 21.3668H20.367ZM27.617 21.3668C27.5883 21.3686 27.5614 21.3813 27.5419 21.4023C27.5224 21.4234 27.5116 21.4511 27.512 21.4798C27.512 21.5096 27.5238 21.5383 27.5449 21.5594C27.566 21.5805 27.5946 21.5923 27.6245 21.5923C27.6543 21.5923 27.6829 21.5805 27.704 21.5594C27.7251 21.5383 27.737 21.5096 27.737 21.4798C27.7371 21.465 27.7343 21.4503 27.7287 21.4366C27.7232 21.4229 27.7149 21.4105 27.7045 21.4C27.6941 21.3895 27.6817 21.3811 27.668 21.3754C27.6544 21.3697 27.6397 21.3668 27.625 21.3668H27.617ZM20.367 21.9298C20.3522 21.9307 20.3379 21.9345 20.3246 21.941C20.3114 21.9475 20.2996 21.9565 20.2898 21.9676C20.2801 21.9786 20.2726 21.9915 20.2678 22.0054C20.263 22.0194 20.261 22.0341 20.262 22.0488C20.2629 22.0635 20.2667 22.0779 20.2732 22.0911C20.2796 22.1044 20.2887 22.1162 20.2997 22.1259C20.3108 22.1357 20.3236 22.1432 20.3376 22.148C20.3515 22.1527 20.3662 22.1547 20.381 22.1538C20.4107 22.1519 20.4384 22.1384 20.4581 22.116C20.4778 22.0937 20.4878 22.0645 20.486 22.0348C20.4841 22.0051 20.4705 21.9774 20.4482 21.9577C20.4259 21.938 20.3967 21.9279 20.367 21.9298ZM27.617 21.9298C27.5873 21.9317 27.5595 21.9452 27.5398 21.9676C27.5201 21.9899 27.5101 22.0191 27.512 22.0488C27.5138 22.0785 27.5274 22.1063 27.5497 22.1259C27.572 22.1456 27.6013 22.1557 27.631 22.1538C27.6457 22.1529 27.66 22.1491 27.6733 22.1426C27.6865 22.1361 27.6984 22.1271 27.7081 22.116C27.7179 22.105 27.7253 22.0921 27.7301 22.0782C27.7349 22.0643 27.7369 22.0495 27.736 22.0348C27.735 22.0201 27.7312 22.0057 27.7248 21.9925C27.7183 21.9792 27.7093 21.9674 27.6982 21.9577C27.6872 21.9479 27.6743 21.9404 27.6603 21.9356C27.6464 21.9309 27.6317 21.9289 27.617 21.9298ZM24.893 22.2258C24.7683 22.2278 24.6453 22.2545 24.531 22.3043C24.4167 22.354 24.3133 22.4259 24.227 22.5158L22.418 24.3728C22.3307 24.4617 22.2619 24.5669 22.2154 24.6825C22.169 24.798 22.1459 24.9216 22.1474 25.0461C22.1488 25.1707 22.1749 25.2937 22.2241 25.4081C22.2733 25.5225 22.3446 25.626 22.434 25.7128C22.6141 25.888 22.8564 25.9845 23.1077 25.9812C23.3589 25.9778 23.5986 25.8748 23.774 25.6948L25.582 23.8348C25.714 23.7011 25.8033 23.5311 25.8382 23.3464C25.8732 23.1618 25.8523 22.9709 25.7782 22.7982C25.7042 22.6255 25.5803 22.4788 25.4224 22.3768C25.2645 22.2748 25.0799 22.2223 24.892 22.2258H24.893ZM20.367 22.4918C20.3522 22.4927 20.3379 22.4965 20.3246 22.503C20.3114 22.5095 20.2996 22.5185 20.2898 22.5296C20.2801 22.5406 20.2726 22.5535 20.2678 22.5674C20.263 22.5814 20.261 22.5961 20.262 22.6108C20.2629 22.6255 20.2667 22.6399 20.2732 22.6531C20.2796 22.6664 20.2887 22.6782 20.2997 22.688C20.3108 22.6977 20.3236 22.7052 20.3376 22.71C20.3515 22.7147 20.3662 22.7167 20.381 22.7158C20.4107 22.7139 20.4384 22.7004 20.4581 22.678C20.4778 22.6557 20.4878 22.6265 20.486 22.5968C20.4841 22.5671 20.4705 22.5393 20.4482 22.5197C20.4259 22.5 20.3967 22.4899 20.367 22.4918ZM27.617 22.4918C27.6022 22.4927 27.5879 22.4965 27.5746 22.503C27.5614 22.5095 27.5496 22.5185 27.5398 22.5296C27.5301 22.5406 27.5226 22.5535 27.5178 22.5674C27.513 22.5814 27.511 22.5961 27.512 22.6108C27.5129 22.6255 27.5167 22.6399 27.5232 22.6531C27.5296 22.6664 27.5387 22.6782 27.5497 22.688C27.5608 22.6977 27.5736 22.7052 27.5876 22.71C27.6015 22.7147 27.6162 22.7167 27.631 22.7158C27.6607 22.7139 27.6884 22.7004 27.7081 22.678C27.7278 22.6557 27.7378 22.6265 27.736 22.5968C27.7341 22.5671 27.7205 22.5393 27.6982 22.5197C27.6759 22.5 27.6467 22.4899 27.617 22.4918ZM24.957 22.7088H24.959C25.037 22.7128 25.119 22.7468 25.203 22.8158C25.61 23.1778 25.126 23.6018 24.951 23.7848L24.086 24.6888C23.479 25.3208 23.215 25.7468 22.791 25.3388C22.431 24.9658 22.751 24.7438 23.439 24.0448L24.305 23.1418C24.509 22.9418 24.721 22.6988 24.957 22.7088ZM20.367 23.0548C20.3376 23.0559 20.3099 23.0684 20.2897 23.0897C20.2695 23.111 20.2584 23.1394 20.259 23.1687C20.2595 23.1981 20.2715 23.2261 20.2925 23.2466C20.3134 23.2672 20.3416 23.2787 20.371 23.2787C20.4003 23.2787 20.4285 23.2672 20.4494 23.2466C20.4704 23.2261 20.4824 23.1981 20.4829 23.1687C20.4835 23.1394 20.4724 23.111 20.4522 23.0897C20.4321 23.0684 20.4043 23.0559 20.375 23.0548H20.367ZM27.617 23.0548C27.5876 23.0559 27.5599 23.0684 27.5397 23.0897C27.5195 23.111 27.5084 23.1394 27.509 23.1687C27.5095 23.1981 27.5215 23.2261 27.5425 23.2466C27.5634 23.2672 27.5916 23.2787 27.621 23.2787C27.6503 23.2787 27.6785 23.2672 27.6994 23.2466C27.7204 23.2261 27.7324 23.1981 27.7329 23.1687C27.7335 23.1394 27.7224 23.111 27.7022 23.0897C27.682 23.0684 27.6543 23.0559 27.625 23.0548H27.617ZM20.355 23.6168C20.3287 23.6211 20.3049 23.6347 20.2879 23.6551C20.2708 23.6754 20.2616 23.7012 20.262 23.7278C20.2618 23.75 20.2681 23.7717 20.2803 23.7902C20.2924 23.8087 20.3098 23.8232 20.3302 23.8319C20.3506 23.8405 20.3731 23.843 20.3948 23.8388C20.4166 23.8347 20.4366 23.8242 20.4524 23.8087C20.4682 23.7932 20.4791 23.7733 20.4836 23.7516C20.4881 23.7299 20.4861 23.7074 20.4778 23.6869C20.4695 23.6663 20.4553 23.6487 20.437 23.6362C20.4187 23.6238 20.3971 23.617 20.375 23.6168H20.355ZM27.605 23.6168C27.5787 23.6211 27.5549 23.6347 27.5379 23.6551C27.5208 23.6754 27.5116 23.7012 27.512 23.7278C27.5118 23.75 27.5181 23.7717 27.5303 23.7902C27.5424 23.8087 27.5598 23.8232 27.5802 23.8319C27.6006 23.8405 27.6231 23.843 27.6448 23.8388C27.6666 23.8347 27.6866 23.8242 27.7024 23.8087C27.7182 23.7932 27.7291 23.7733 27.7336 23.7516C27.7381 23.7299 27.7361 23.7074 27.7278 23.6869C27.7195 23.6663 27.7053 23.6487 27.687 23.6362C27.6687 23.6238 27.6471 23.617 27.625 23.6168H27.605ZM17.893 24.1228C17.7684 24.1247 17.6454 24.1512 17.5311 24.2008C17.4168 24.2504 17.3134 24.3221 17.227 24.4118L15.418 26.2688C15.3307 26.3577 15.2619 26.4629 15.2154 26.5785C15.169 26.694 15.1459 26.8176 15.1474 26.9421C15.1488 27.0667 15.1749 27.1897 15.2241 27.3041C15.2733 27.4185 15.3446 27.522 15.434 27.6088C15.6141 27.7839 15.8563 27.8804 16.1075 27.8772C16.3587 27.8741 16.5983 27.7714 16.774 27.5918L18.582 25.7318C18.7144 25.5982 18.8039 25.428 18.8391 25.2432C18.8742 25.0584 18.8534 24.8673 18.7793 24.6944C18.7052 24.5214 18.5812 24.3746 18.4231 24.2726C18.265 24.1706 18.0801 24.1181 17.892 24.1218L17.893 24.1228ZM31.893 24.1228C31.7684 24.1247 31.6454 24.1512 31.5311 24.2008C31.4168 24.2504 31.3134 24.3221 31.227 24.4118L29.418 26.2688C29.3307 26.3577 29.2619 26.4629 29.2154 26.5785C29.169 26.694 29.1459 26.8176 29.1474 26.9421C29.1488 27.0667 29.1749 27.1897 29.2241 27.3041C29.2733 27.4185 29.3446 27.522 29.434 27.6088C29.6141 27.7839 29.8563 27.8804 30.1075 27.8772C30.3587 27.8741 30.5983 27.7714 30.774 27.5918L32.582 25.7318C32.7144 25.5982 32.8039 25.428 32.8391 25.2432C32.8742 25.0584 32.8534 24.8673 32.7793 24.6944C32.7052 24.5214 32.5812 24.3746 32.4231 24.2726C32.265 24.1706 32.0801 24.1181 31.892 24.1218L31.893 24.1228ZM20.355 24.1788C20.3285 24.1829 20.3044 24.1966 20.2873 24.2172C20.2702 24.2378 20.2611 24.264 20.262 24.2908C20.262 24.3528 20.312 24.4028 20.375 24.4018C20.436 24.4018 20.485 24.3518 20.486 24.2908C20.486 24.2298 20.436 24.1808 20.375 24.1798H20.355V24.1788ZM27.605 24.1788C27.5785 24.1829 27.5544 24.1966 27.5373 24.2172C27.5202 24.2378 27.5111 24.264 27.512 24.2908C27.512 24.3528 27.562 24.4028 27.625 24.4018C27.686 24.4018 27.735 24.3518 27.736 24.2908C27.736 24.2298 27.686 24.1808 27.625 24.1798H27.605V24.1788ZM17.957 24.6048H17.959C18.037 24.6088 18.119 24.6438 18.203 24.7128C18.61 25.0738 18.126 25.4978 17.951 25.6808L17.086 26.5858C16.479 27.2168 16.215 27.6438 15.791 27.2358C15.431 26.8628 15.751 26.6398 16.439 25.9408L17.305 25.0388C17.509 24.8388 17.721 24.5948 17.957 24.6048ZM31.957 24.6048H31.959C32.037 24.6088 32.119 24.6438 32.203 24.7128C32.61 25.0738 32.126 25.4978 31.951 25.6808L31.086 26.5858C30.479 27.2168 30.215 27.6438 29.791 27.2358C29.431 26.8628 29.751 26.6398 30.439 25.9408L31.305 25.0388C31.509 24.8388 31.721 24.5948 31.957 24.6048ZM20.367 24.7398C20.3376 24.7409 20.3099 24.7534 20.2897 24.7747C20.2695 24.796 20.2584 24.8244 20.259 24.8537C20.2595 24.8831 20.2715 24.9111 20.2925 24.9316C20.3134 24.9522 20.3416 24.9637 20.371 24.9637C20.4003 24.9637 20.4285 24.9522 20.4494 24.9316C20.4704 24.9111 20.4824 24.8831 20.4829 24.8537C20.4835 24.8244 20.4724 24.796 20.4522 24.7747C20.4321 24.7534 20.4043 24.7409 20.375 24.7398C20.3723 24.7397 20.3696 24.7397 20.367 24.7398ZM27.617 24.7398C27.5876 24.7409 27.5599 24.7534 27.5397 24.7747C27.5195 24.796 27.5084 24.8244 27.509 24.8537C27.5095 24.8831 27.5215 24.9111 27.5425 24.9316C27.5634 24.9522 27.5916 24.9637 27.621 24.9637C27.6503 24.9637 27.6785 24.9522 27.6994 24.9316C27.7204 24.9111 27.7324 24.8831 27.7329 24.8537C27.7335 24.8244 27.7224 24.796 27.7022 24.7747C27.682 24.7534 27.6543 24.7409 27.625 24.7398C27.6223 24.7397 27.6196 24.7397 27.617 24.7398ZM20.367 25.3028C20.3383 25.3046 20.3114 25.3173 20.2919 25.3383C20.2724 25.3594 20.2616 25.3871 20.262 25.4158C20.262 25.4778 20.312 25.5278 20.375 25.5268C20.4048 25.5257 20.433 25.5129 20.4533 25.491C20.4737 25.4692 20.4845 25.4401 20.4835 25.4103C20.4824 25.3805 20.4695 25.3523 20.4477 25.3319C20.4258 25.3116 20.3968 25.3007 20.367 25.3018V25.3028ZM27.617 25.3028C27.5883 25.3046 27.5614 25.3173 27.5419 25.3383C27.5224 25.3594 27.5116 25.3871 27.512 25.4158C27.512 25.4778 27.562 25.5278 27.625 25.5268C27.6548 25.5257 27.683 25.5129 27.7033 25.491C27.7237 25.4692 27.7345 25.4401 27.7335 25.4103C27.7324 25.3805 27.7195 25.3523 27.6977 25.3319C27.6758 25.3116 27.6468 25.3007 27.617 25.3018V25.3028ZM20.367 25.8648C20.3383 25.8666 20.3114 25.8793 20.2919 25.9003C20.2724 25.9214 20.2616 25.9491 20.262 25.9778C20.262 26.0398 20.312 26.0898 20.375 26.0898C20.436 26.0898 20.485 26.0398 20.486 25.9778C20.4861 25.9624 20.4831 25.9471 20.4771 25.933C20.4711 25.9188 20.4623 25.906 20.4511 25.8954C20.4399 25.8848 20.4267 25.8766 20.4122 25.8713C20.3977 25.8661 20.3823 25.8638 20.367 25.8648ZM27.617 25.8648C27.5883 25.8666 27.5614 25.8793 27.5419 25.9003C27.5224 25.9214 27.5116 25.9491 27.512 25.9778C27.512 26.0398 27.562 26.0898 27.625 26.0898C27.686 26.0898 27.735 26.0398 27.736 25.9778C27.7361 25.9624 27.7331 25.9471 27.7271 25.933C27.7211 25.9188 27.7123 25.906 27.7011 25.8954C27.6899 25.8848 27.6767 25.8766 27.6622 25.8713C27.6477 25.8661 27.6323 25.8638 27.617 25.8648ZM24.893 26.2258C24.7683 26.2278 24.6453 26.2545 24.531 26.3043C24.4167 26.354 24.3133 26.4259 24.227 26.5158L22.418 28.3728C22.3307 28.4617 22.2619 28.5669 22.2154 28.6825C22.169 28.798 22.1459 28.9216 22.1474 29.0461C22.1488 29.1707 22.1749 29.2937 22.2241 29.4081C22.2733 29.5225 22.3446 29.626 22.434 29.7128C22.6141 29.888 22.8564 29.9845 23.1077 29.9812C23.3589 29.9778 23.5986 29.8748 23.774 29.6948L25.582 27.8348C25.714 27.7011 25.8033 27.5311 25.8382 27.3464C25.8732 27.1618 25.8523 26.9709 25.7782 26.7982C25.7042 26.6255 25.5803 26.4788 25.4224 26.3768C25.2645 26.2748 25.0799 26.2223 24.892 26.2258H24.893ZM20.367 26.4278C20.3373 26.4289 20.3092 26.4417 20.2889 26.4634C20.2687 26.4852 20.2579 26.5141 20.259 26.5438C20.26 26.5735 20.2728 26.6016 20.2946 26.6218C20.3163 26.6421 20.3453 26.6529 20.375 26.6518C20.3897 26.6513 20.4041 26.6479 20.4175 26.6417C20.4309 26.6356 20.443 26.6269 20.453 26.6162C20.463 26.6054 20.4708 26.5928 20.476 26.579C20.4811 26.5652 20.4835 26.5505 20.483 26.5358C20.4824 26.5211 20.479 26.5066 20.4729 26.4932C20.4668 26.4799 20.4581 26.4678 20.4473 26.4578C20.4366 26.4478 20.4239 26.4399 20.4101 26.4348C20.3963 26.4297 20.3817 26.4273 20.367 26.4278ZM27.617 26.4278C27.5873 26.4289 27.5592 26.4417 27.5389 26.4634C27.5187 26.4852 27.5079 26.5141 27.509 26.5438C27.51 26.5735 27.5228 26.6016 27.5446 26.6218C27.5663 26.6421 27.5953 26.6529 27.625 26.6518C27.6397 26.6513 27.6541 26.6479 27.6675 26.6417C27.6809 26.6356 27.693 26.6269 27.703 26.6162C27.713 26.6054 27.7208 26.5928 27.726 26.579C27.7311 26.5652 27.7335 26.5505 27.733 26.5358C27.7324 26.5211 27.729 26.5066 27.7229 26.4932C27.7168 26.4799 27.7081 26.4678 27.6973 26.4578C27.6866 26.4478 27.6739 26.4399 27.6601 26.4348C27.6463 26.4297 27.6317 26.4273 27.617 26.4278ZM24.955 26.7078H24.957C25.0484 26.7165 25.1347 26.7543 25.203 26.8158C25.61 27.1778 25.126 27.6018 24.951 27.7848L24.084 28.6888C23.477 29.3208 23.213 29.7468 22.789 29.3388C22.429 28.9658 22.751 28.7438 23.439 28.0448L24.303 27.1418C24.508 26.9418 24.72 26.6988 24.955 26.7088V26.7078ZM20.367 26.9898C20.3522 26.9907 20.3379 26.9945 20.3246 27.001C20.3114 27.0075 20.2996 27.0165 20.2898 27.0276C20.2801 27.0386 20.2726 27.0515 20.2678 27.0654C20.263 27.0794 20.261 27.0941 20.262 27.1088C20.2629 27.1235 20.2667 27.1379 20.2732 27.1511C20.2796 27.1644 20.2887 27.1762 20.2997 27.1859C20.3108 27.1957 20.3236 27.2032 20.3376 27.208C20.3515 27.2127 20.3662 27.2147 20.381 27.2138C20.4107 27.2119 20.4384 27.1984 20.4581 27.1761C20.4778 27.1537 20.4878 27.1245 20.486 27.0948C20.4841 27.0651 20.4705 27.0373 20.4482 27.0177C20.4259 26.998 20.3967 26.9879 20.367 26.9898ZM27.617 26.9898C27.6022 26.9907 27.5879 26.9945 27.5746 27.001C27.5614 27.0075 27.5496 27.0165 27.5398 27.0276C27.5301 27.0386 27.5226 27.0515 27.5178 27.0654C27.513 27.0794 27.511 27.0941 27.512 27.1088C27.5129 27.1235 27.5167 27.1379 27.5232 27.1511C27.5296 27.1644 27.5387 27.1762 27.5497 27.1859C27.5608 27.1957 27.5736 27.2032 27.5876 27.208C27.6015 27.2127 27.6162 27.2147 27.631 27.2138C27.6607 27.2119 27.6884 27.1984 27.7081 27.1761C27.7278 27.1537 27.7378 27.1245 27.736 27.0948C27.7341 27.0651 27.7205 27.0373 27.6982 27.0177C27.6759 26.998 27.6467 26.9879 27.617 26.9898ZM20.367 27.5528C20.3522 27.5537 20.3379 27.5575 20.3246 27.564C20.3114 27.5705 20.2996 27.5795 20.2898 27.5906C20.2801 27.6016 20.2726 27.6145 20.2678 27.6284C20.263 27.6424 20.261 27.6571 20.262 27.6718C20.2629 27.6865 20.2667 27.7009 20.2732 27.7141C20.2796 27.7274 20.2887 27.7392 20.2997 27.7489C20.3108 27.7587 20.3236 27.7662 20.3376 27.771C20.3515 27.7757 20.3662 27.7777 20.381 27.7768C20.4107 27.7749 20.4384 27.7614 20.4581 27.739C20.4778 27.7167 20.4878 27.6875 20.486 27.6578C20.4841 27.6281 20.4705 27.6003 20.4482 27.5807C20.4259 27.561 20.3967 27.5509 20.367 27.5528ZM27.617 27.5528C27.6022 27.5537 27.5879 27.5575 27.5746 27.564C27.5614 27.5705 27.5496 27.5795 27.5398 27.5906C27.5301 27.6016 27.5226 27.6145 27.5178 27.6284C27.513 27.6424 27.511 27.6571 27.512 27.6718C27.5129 27.6865 27.5167 27.7009 27.5232 27.7141C27.5296 27.7274 27.5387 27.7392 27.5497 27.7489C27.5608 27.7587 27.5736 27.7662 27.5876 27.771C27.6015 27.7757 27.6162 27.7777 27.631 27.7768C27.6607 27.7749 27.6884 27.7614 27.7081 27.739C27.7278 27.7167 27.7378 27.6875 27.736 27.6578C27.7341 27.6281 27.7205 27.6003 27.6982 27.5807C27.6759 27.561 27.6467 27.5509 27.617 27.5528ZM17.893 27.9158C17.7684 27.9177 17.6454 27.9442 17.5311 27.9938C17.4168 28.0434 17.3134 28.1151 17.227 28.2048L15.418 30.0618C15.3307 30.1507 15.2619 30.2559 15.2154 30.3715C15.169 30.487 15.1459 30.6106 15.1474 30.7351C15.1488 30.8597 15.1749 30.9827 15.2241 31.0971C15.2733 31.2115 15.3446 31.315 15.434 31.4018C15.6141 31.5769 15.8563 31.6734 16.1075 31.6702C16.3587 31.6671 16.5983 31.5644 16.774 31.3848L18.582 29.5248C18.7144 29.3912 18.8039 29.221 18.8391 29.0362C18.8742 28.8514 18.8534 28.6603 18.7793 28.4874C18.7052 28.3144 18.5812 28.1676 18.4231 28.0656C18.265 27.9636 18.0801 27.9111 17.892 27.9148L17.893 27.9158ZM31.893 27.9158C31.7681 27.9177 31.6448 27.9442 31.5302 27.9938C31.4156 28.0434 31.3118 28.1151 31.225 28.2048L29.416 30.0618C29.3288 30.1508 29.2602 30.2561 29.2139 30.3718C29.1676 30.4874 29.1447 30.611 29.1463 30.7355C29.148 30.8601 29.1743 30.983 29.2236 31.0974C29.273 31.2117 29.3445 31.3152 29.434 31.4018C29.6141 31.5769 29.8563 31.6734 30.1075 31.6702C30.3587 31.6671 30.5983 31.5644 30.774 31.3848L32.582 29.5248C32.7144 29.3912 32.8039 29.221 32.8391 29.0362C32.8742 28.8514 32.8534 28.6603 32.7793 28.4874C32.7052 28.3144 32.5812 28.1676 32.4231 28.0656C32.265 27.9636 32.0801 27.9111 31.892 27.9148L31.893 27.9158ZM20.355 28.1158C20.3289 28.1201 20.3052 28.1335 20.2882 28.1537C20.2711 28.1738 20.2618 28.1994 20.262 28.2258C20.262 28.2556 20.2738 28.2843 20.2949 28.3054C20.316 28.3265 20.3446 28.3383 20.3745 28.3383C20.4043 28.3383 20.4329 28.3265 20.454 28.3054C20.4751 28.2843 20.487 28.2556 20.487 28.2258C20.486 28.1658 20.437 28.1158 20.375 28.1158C20.367 28.1138 20.365 28.1138 20.357 28.1158H20.355ZM27.605 28.1158C27.5789 28.1201 27.5552 28.1335 27.5382 28.1537C27.5211 28.1738 27.5118 28.1994 27.512 28.2258C27.512 28.2556 27.5238 28.2843 27.5449 28.3054C27.566 28.3265 27.5946 28.3383 27.6245 28.3383C27.6543 28.3383 27.6829 28.3265 27.704 28.3054C27.7251 28.2843 27.737 28.2556 27.737 28.2258C27.736 28.1658 27.687 28.1158 27.625 28.1158C27.617 28.1138 27.615 28.1138 27.607 28.1158H27.605ZM17.955 28.3978H17.959C18.037 28.4018 18.119 28.4368 18.203 28.5058C18.61 28.8668 18.126 29.2908 17.951 29.4738L17.084 30.3788C16.477 31.0098 16.213 31.4368 15.789 31.0288C15.429 30.6558 15.751 30.4328 16.439 29.7338L17.303 28.8318C17.508 28.6318 17.72 28.3878 17.955 28.3978ZM31.955 28.3978H31.957C32.0484 28.4065 32.1347 28.4443 32.203 28.5058C32.61 28.8668 32.126 29.2908 31.951 29.4738L31.084 30.3788C30.477 31.0098 30.213 31.4368 29.789 31.0288C29.429 30.6558 29.749 30.4328 30.437 29.7338L31.303 28.8318C31.508 28.6318 31.72 28.3878 31.955 28.3978ZM20.377 28.6758C20.3622 28.6757 20.3477 28.6784 20.334 28.6839C20.3204 28.6895 20.308 28.6976 20.2975 28.7079C20.287 28.7182 20.2786 28.7305 20.2729 28.744C20.2671 28.7576 20.2641 28.7721 20.264 28.7868C20.2638 28.8015 20.2666 28.8161 20.2721 28.8297C20.2776 28.8434 20.2857 28.8558 20.2961 28.8663C20.3064 28.8768 20.3186 28.8851 20.3322 28.8909C20.3457 28.8966 20.3602 28.8997 20.375 28.8998C20.4047 28.9001 20.4333 28.8885 20.4544 28.8677C20.4756 28.8469 20.4877 28.8185 20.488 28.7888C20.4882 28.7591 20.4767 28.7305 20.4559 28.7093C20.435 28.6881 20.4067 28.6761 20.377 28.6758ZM27.627 28.6758C27.6122 28.6757 27.5977 28.6784 27.584 28.6839C27.5704 28.6895 27.558 28.6976 27.5475 28.7079C27.537 28.7182 27.5286 28.7305 27.5229 28.744C27.5171 28.7576 27.5141 28.7721 27.514 28.7868C27.5138 28.8015 27.5166 28.8161 27.5221 28.8297C27.5276 28.8434 27.5357 28.8558 27.5461 28.8663C27.5564 28.8768 27.5686 28.8851 27.5822 28.8909C27.5957 28.8966 27.6102 28.8997 27.625 28.8998C27.6547 28.9001 27.6833 28.8885 27.7044 28.8677C27.7256 28.8469 27.7377 28.8185 27.738 28.7888C27.7382 28.7591 27.7267 28.7305 27.7059 28.7093C27.685 28.6881 27.6567 28.6761 27.627 28.6758ZM20.367 29.2378C20.3383 29.2396 20.3114 29.2523 20.2919 29.2733C20.2724 29.2944 20.2616 29.3221 20.262 29.3508C20.262 29.3806 20.2738 29.4093 20.2949 29.4304C20.316 29.4515 20.3446 29.4633 20.3745 29.4633C20.4043 29.4633 20.4329 29.4515 20.454 29.4304C20.4751 29.4093 20.487 29.3806 20.487 29.3508C20.4871 29.3353 20.4841 29.32 20.478 29.3057C20.472 29.2914 20.463 29.2786 20.4517 29.268C20.4405 29.2574 20.4271 29.2492 20.4125 29.244C20.3979 29.2388 20.3824 29.2367 20.367 29.2378ZM27.617 29.2378C27.5883 29.2396 27.5614 29.2523 27.5419 29.2733C27.5224 29.2944 27.5116 29.3221 27.512 29.3508C27.512 29.3806 27.5238 29.4093 27.5449 29.4304C27.566 29.4515 27.5946 29.4633 27.6245 29.4633C27.6543 29.4633 27.6829 29.4515 27.704 29.4304C27.7251 29.4093 27.737 29.3806 27.737 29.3508C27.7371 29.3353 27.7341 29.32 27.728 29.3057C27.722 29.2914 27.713 29.2786 27.7017 29.268C27.6905 29.2574 27.6771 29.2492 27.6625 29.244C27.6479 29.2388 27.6324 29.2367 27.617 29.2378ZM20.367 29.8008C20.3376 29.8019 20.3099 29.8144 20.2897 29.8357C20.2695 29.857 20.2584 29.8854 20.259 29.9147C20.2595 29.9441 20.2715 29.9721 20.2925 29.9926C20.3134 30.0132 20.3416 30.0247 20.371 30.0247C20.4003 30.0247 20.4285 30.0132 20.4494 29.9926C20.4704 29.9721 20.4824 29.9441 20.4829 29.9147C20.4835 29.8854 20.4724 29.857 20.4522 29.8357C20.4321 29.8144 20.4043 29.8019 20.375 29.8008C20.3723 29.8007 20.3696 29.8007 20.367 29.8008ZM27.617 29.8008C27.5876 29.8019 27.5599 29.8144 27.5397 29.8357C27.5195 29.857 27.5084 29.8854 27.509 29.9147C27.5095 29.9441 27.5215 29.9721 27.5425 29.9926C27.5634 30.0132 27.5916 30.0247 27.621 30.0247C27.6503 30.0247 27.6785 30.0132 27.6994 29.9926C27.7204 29.9721 27.7324 29.9441 27.7329 29.9147C27.7335 29.8854 27.7224 29.857 27.7022 29.8357C27.682 29.8144 27.6543 29.8019 27.625 29.8008C27.6223 29.8007 27.6196 29.8007 27.617 29.8008ZM24.893 30.2258C24.7683 30.2278 24.6453 30.2545 24.531 30.3043C24.4167 30.354 24.3133 30.4259 24.227 30.5158L22.416 32.3728C22.2522 32.5549 22.1652 32.7933 22.1733 33.038C22.1813 33.2828 22.2838 33.5149 22.4592 33.6858C22.6347 33.8567 22.8694 33.9531 23.1143 33.9548C23.3592 33.9565 23.5952 33.8633 23.773 33.6948L25.582 31.8348C25.714 31.7011 25.8033 31.5311 25.8382 31.3464C25.8732 31.1618 25.8523 30.9709 25.7782 30.7982C25.7042 30.6255 25.5803 30.4788 25.4224 30.3768C25.2645 30.2748 25.0799 30.2223 24.892 30.2258H24.893ZM20.367 30.3628C20.3383 30.3646 20.3114 30.3773 20.2919 30.3983C20.2724 30.4194 20.2616 30.4471 20.262 30.4758C20.2622 30.4982 20.2692 30.52 20.2819 30.5384C20.2947 30.5568 20.3127 30.571 20.3336 30.5791C20.3545 30.5871 20.3773 30.5888 20.3991 30.5837C20.4209 30.5787 20.4407 30.5672 20.456 30.5508C20.4712 30.5344 20.4812 30.5138 20.4846 30.4917C20.4881 30.4695 20.4848 30.4469 20.4752 30.4266C20.4656 30.4064 20.4502 30.3895 20.4309 30.3781C20.4116 30.3667 20.3893 30.3614 20.367 30.3628ZM27.617 30.3628C27.5883 30.3646 27.5614 30.3773 27.5419 30.3983C27.5224 30.4194 27.5116 30.4471 27.512 30.4758C27.5122 30.4982 27.5192 30.52 27.5319 30.5384C27.5447 30.5568 27.5627 30.571 27.5836 30.5791C27.6045 30.5871 27.6273 30.5888 27.6491 30.5837C27.6709 30.5787 27.6907 30.5672 27.706 30.5508C27.7212 30.5344 27.7312 30.5138 27.7346 30.4917C27.7381 30.4695 27.7348 30.4469 27.7252 30.4266C27.7156 30.4064 27.7002 30.3895 27.6809 30.3781C27.6616 30.3667 27.6393 30.3614 27.617 30.3628ZM24.955 30.7088H24.957C25.0483 30.7172 25.1345 30.7547 25.203 30.8158C25.61 31.1778 25.124 31.6018 24.949 31.7848L24.084 32.6888C23.477 33.3208 23.213 33.7478 22.789 33.3388C22.429 32.9658 22.749 32.7438 23.437 32.0448L24.303 31.1418C24.508 30.9418 24.72 30.6988 24.955 30.7088ZM20.367 30.9238C20.3385 30.9261 20.3119 30.9389 20.2924 30.9598C20.273 30.9808 20.2621 31.0082 20.262 31.0368C20.262 31.0665 20.2738 31.095 20.2948 31.116C20.3158 31.137 20.3443 31.1488 20.374 31.1488C20.4037 31.1488 20.4321 31.137 20.4532 31.116C20.4742 31.095 20.486 31.0665 20.486 31.0368C20.4858 31.0215 20.4826 31.0064 20.4765 30.9923C20.4704 30.9783 20.4616 30.9656 20.4505 30.955C20.4394 30.9445 20.4262 30.9363 20.4119 30.9309C20.3975 30.9255 20.3823 30.9231 20.367 30.9238ZM27.617 30.9238C27.5885 30.9261 27.5619 30.9389 27.5424 30.9598C27.523 30.9808 27.5121 31.0082 27.512 31.0368C27.512 31.0665 27.5238 31.095 27.5448 31.116C27.5658 31.137 27.5943 31.1488 27.624 31.1488C27.6537 31.1488 27.6821 31.137 27.7032 31.116C27.7242 31.095 27.736 31.0665 27.736 31.0368C27.7358 31.0215 27.7326 31.0064 27.7265 30.9923C27.7204 30.9783 27.7116 30.9656 27.7005 30.955C27.6894 30.9445 27.6762 30.9363 27.6619 30.9309C27.6475 30.9255 27.6323 30.9231 27.617 30.9238ZM20.367 31.4858C20.3522 31.4867 20.3379 31.4905 20.3246 31.497C20.3114 31.5035 20.2996 31.5125 20.2898 31.5236C20.2801 31.5346 20.2726 31.5475 20.2678 31.5614C20.263 31.5754 20.261 31.5901 20.262 31.6048C20.2629 31.6195 20.2667 31.6339 20.2732 31.6471C20.2796 31.6604 20.2887 31.6722 20.2997 31.6819C20.3108 31.6917 20.3236 31.6992 20.3376 31.704C20.3515 31.7087 20.3662 31.7107 20.381 31.7098C20.4107 31.7079 20.4384 31.6944 20.4581 31.6721C20.4778 31.6497 20.4878 31.6205 20.486 31.5908C20.4841 31.5611 20.4705 31.5333 20.4482 31.5137C20.4259 31.494 20.3967 31.4839 20.367 31.4858ZM27.617 31.4858C27.6022 31.4867 27.5879 31.4905 27.5746 31.497C27.5614 31.5035 27.5496 31.5125 27.5398 31.5236C27.5301 31.5346 27.5226 31.5475 27.5178 31.5614C27.513 31.5754 27.511 31.5901 27.512 31.6048C27.5129 31.6195 27.5167 31.6339 27.5232 31.6471C27.5296 31.6604 27.5387 31.6722 27.5497 31.6819C27.5608 31.6917 27.5736 31.6992 27.5876 31.704C27.6015 31.7087 27.6162 31.7107 27.631 31.7098C27.6607 31.7079 27.6884 31.6944 27.7081 31.6721C27.7278 31.6497 27.7378 31.6205 27.736 31.5908C27.7341 31.5611 27.7205 31.5333 27.6982 31.5137C27.6759 31.494 27.6467 31.4839 27.617 31.4858ZM17.891 31.7088C17.7664 31.7107 17.6434 31.7373 17.5291 31.7869C17.4148 31.8365 17.3115 31.9081 17.225 31.9978L15.416 33.8548C15.3288 33.9438 15.2602 34.0491 15.2139 34.1648C15.1676 34.2804 15.1447 34.404 15.1463 34.5285C15.148 34.6531 15.1743 34.776 15.2236 34.8904C15.273 35.0047 15.3445 35.1082 15.434 35.1948C15.6141 35.3699 15.8563 35.4664 16.1075 35.4632C16.3587 35.4601 16.5983 35.3574 16.774 35.1778L18.582 33.3178C18.6691 33.2288 18.7377 33.1235 18.784 33.0078C18.8303 32.8922 18.8532 32.7686 18.8516 32.6441C18.8499 32.5195 18.8236 32.3966 18.7743 32.2822C18.7249 32.1679 18.6534 32.0644 18.564 31.9778C18.4751 31.8907 18.3699 31.822 18.2544 31.7757C18.1389 31.7293 18.0154 31.7063 17.891 31.7078V31.7088ZM31.891 31.7088C31.7664 31.7107 31.6434 31.7373 31.5291 31.7869C31.4148 31.8365 31.3115 31.9081 31.225 31.9978L29.416 33.8548C29.3288 33.9438 29.2602 34.0491 29.2139 34.1648C29.1676 34.2804 29.1447 34.404 29.1463 34.5285C29.148 34.6531 29.1743 34.776 29.2236 34.8904C29.273 35.0047 29.3445 35.1082 29.434 35.1948C29.6141 35.3699 29.8563 35.4664 30.1075 35.4632C30.3587 35.4601 30.5983 35.3574 30.774 35.1778L32.582 33.3178C32.6691 33.2289 32.7379 33.1236 32.7842 33.008C32.8306 32.8924 32.8536 32.7688 32.8521 32.6443C32.8505 32.5197 32.8243 32.3968 32.775 32.2824C32.7258 32.168 32.6544 32.0645 32.565 31.9778C32.476 31.8906 32.3706 31.8218 32.2549 31.7755C32.1392 31.7292 32.0156 31.7061 31.891 31.7078V31.7088ZM20.356 32.0488C20.3296 32.0529 20.3055 32.0664 20.2882 32.0868C20.271 32.1071 20.2616 32.1331 20.262 32.1598C20.2616 32.1822 20.2678 32.2043 20.28 32.2231C20.2922 32.242 20.3097 32.2568 20.3303 32.2656C20.3509 32.2745 20.3737 32.277 20.3958 32.2729C20.4178 32.2687 20.4381 32.2581 20.4541 32.2424C20.4701 32.2267 20.4811 32.2066 20.4856 32.1846C20.4901 32.1626 20.488 32.1398 20.4795 32.119C20.471 32.0983 20.4566 32.0805 20.4379 32.068C20.4193 32.0555 20.3974 32.0488 20.375 32.0488H20.355H20.356ZM27.606 32.0488C27.5796 32.0529 27.5555 32.0664 27.5382 32.0868C27.521 32.1071 27.5116 32.1331 27.512 32.1598C27.5116 32.1822 27.5178 32.2043 27.53 32.2231C27.5422 32.242 27.5597 32.2568 27.5803 32.2656C27.6009 32.2745 27.6237 32.277 27.6458 32.2729C27.6678 32.2687 27.6881 32.2581 27.7041 32.2424C27.7201 32.2267 27.7311 32.2066 27.7356 32.1846C27.7401 32.1626 27.738 32.1398 27.7295 32.119C27.721 32.0983 27.7066 32.0805 27.6879 32.068C27.6693 32.0555 27.6474 32.0488 27.625 32.0488H27.605H27.606ZM17.956 32.1908H17.957C18.0484 32.1995 18.1347 32.2373 18.203 32.2988C18.61 32.6598 18.124 33.0838 17.949 33.2668L17.084 34.1718C16.477 34.8028 16.213 35.2298 15.789 34.8218C15.429 34.4488 15.749 34.2258 16.438 33.5268L17.303 32.6248C17.508 32.4248 17.72 32.1808 17.955 32.1908H17.956ZM31.956 32.1908H31.957C32.0484 32.1995 32.1347 32.2373 32.203 32.2988C32.61 32.6598 32.124 33.0838 31.949 33.2668L31.084 34.1718C30.477 34.8028 30.213 35.2298 29.789 34.8218C29.429 34.4488 29.749 34.2258 30.437 33.5268L31.303 32.6248C31.508 32.4248 31.72 32.1808 31.955 32.1908H31.956ZM20.356 32.6108C20.3349 32.6142 20.3152 32.6236 20.2993 32.6379C20.2834 32.6521 20.2718 32.6706 20.2661 32.6912C20.2603 32.7118 20.2606 32.7336 20.2668 32.754C20.273 32.7744 20.285 32.7927 20.3012 32.8065C20.3175 32.8204 20.3374 32.8293 20.3585 32.8323C20.3797 32.8352 20.4012 32.8321 20.4206 32.8232C20.4401 32.8142 20.4565 32.8 20.4681 32.782C20.4797 32.7641 20.4859 32.7432 20.486 32.7218C20.4854 32.6926 20.4735 32.6648 20.4528 32.6442C20.4321 32.6237 20.4041 32.6121 20.375 32.6118H20.355L20.356 32.6108ZM27.606 32.6108C27.5849 32.6142 27.5652 32.6236 27.5493 32.6379C27.5334 32.6521 27.5218 32.6706 27.5161 32.6912C27.5103 32.7118 27.5106 32.7336 27.5168 32.754C27.523 32.7744 27.535 32.7927 27.5512 32.8065C27.5675 32.8204 27.5874 32.8293 27.6085 32.8323C27.6297 32.8352 27.6512 32.8321 27.6706 32.8232C27.6901 32.8142 27.7065 32.8 27.7181 32.782C27.7297 32.7641 27.7359 32.7432 27.736 32.7218C27.7354 32.6926 27.7235 32.6648 27.7028 32.6442C27.6821 32.6237 27.6541 32.6121 27.625 32.6118H27.605L27.606 32.6108ZM20.377 33.1708C20.3619 33.1709 20.347 33.174 20.3332 33.18C20.3193 33.1859 20.3068 33.1945 20.2963 33.2053C20.2858 33.216 20.2775 33.2288 20.272 33.2428C20.2664 33.2568 20.2637 33.2717 20.264 33.2868C20.264 33.3488 20.314 33.3968 20.377 33.3968C20.3915 33.3969 20.4059 33.3942 20.4194 33.3887C20.4328 33.3833 20.4451 33.3752 20.4554 33.3649C20.4657 33.3547 20.4739 33.3425 20.4795 33.3291C20.4851 33.3157 20.488 33.3013 20.488 33.2868C20.4882 33.2569 20.4767 33.2281 20.456 33.2066C20.4352 33.1851 20.4068 33.1726 20.377 33.1718V33.1708ZM27.627 33.1708C27.6119 33.1709 27.597 33.174 27.5832 33.18C27.5693 33.1859 27.5568 33.1945 27.5463 33.2053C27.5358 33.216 27.5275 33.2288 27.522 33.2428C27.5164 33.2568 27.5137 33.2717 27.514 33.2868C27.514 33.3488 27.564 33.3968 27.627 33.3968C27.6415 33.3969 27.6559 33.3942 27.6694 33.3887C27.6828 33.3833 27.6951 33.3752 27.7054 33.3649C27.7157 33.3547 27.7239 33.3425 27.7295 33.3291C27.7351 33.3157 27.738 33.3013 27.738 33.2868C27.7382 33.2569 27.7267 33.2281 27.706 33.2066C27.6852 33.1851 27.6568 33.1726 27.627 33.1718V33.1708ZM20.367 33.7338C20.3383 33.7356 20.3114 33.7483 20.2919 33.7693C20.2724 33.7904 20.2616 33.8181 20.262 33.8468C20.262 33.9098 20.312 33.9598 20.375 33.9588C20.436 33.9588 20.485 33.9088 20.486 33.8468C20.4861 33.8321 20.4833 33.8175 20.4778 33.8039C20.4723 33.7902 20.4642 33.7778 20.4539 33.7673C20.4436 33.7568 20.4313 33.7485 20.4177 33.7427C20.4042 33.737 20.3897 33.7339 20.375 33.7338H20.367ZM27.617 33.7338C27.5883 33.7356 27.5614 33.7483 27.5419 33.7693C27.5224 33.7904 27.5116 33.8181 27.512 33.8468C27.512 33.9098 27.562 33.9598 27.625 33.9588C27.686 33.9588 27.735 33.9088 27.736 33.8468C27.7361 33.8321 27.7333 33.8175 27.7278 33.8039C27.7223 33.7902 27.7142 33.7778 27.7039 33.7673C27.6936 33.7568 27.6813 33.7485 27.6677 33.7427C27.6542 33.737 27.6397 33.7339 27.625 33.7338H27.617ZM24.891 34.2258C24.7663 34.2278 24.6433 34.2545 24.529 34.3043C24.4147 34.354 24.3114 34.4259 24.225 34.5158L22.416 36.3728C22.2522 36.5549 22.1652 36.7933 22.1733 37.038C22.1813 37.2828 22.2838 37.5149 22.4592 37.6858C22.6347 37.8567 22.8694 37.9531 23.1143 37.9548C23.3592 37.9565 23.5952 37.8633 23.773 37.6948L25.582 35.8348C25.6691 35.7458 25.7377 35.6405 25.784 35.5248C25.8303 35.4092 25.8532 35.2856 25.8516 35.1611C25.8499 35.0365 25.8236 34.9136 25.7743 34.7992C25.7249 34.6849 25.6534 34.5814 25.564 34.4948C25.475 34.4079 25.3697 34.3395 25.2542 34.2933C25.1388 34.2471 25.0153 34.2242 24.891 34.2258ZM20.367 34.2958C20.3376 34.2969 20.3099 34.3094 20.2897 34.3307C20.2695 34.352 20.2584 34.3804 20.259 34.4097C20.2595 34.4391 20.2715 34.4671 20.2925 34.4876C20.3134 34.5082 20.3416 34.5197 20.371 34.5197C20.4003 34.5197 20.4285 34.5082 20.4494 34.4876C20.4704 34.4671 20.4824 34.4391 20.4829 34.4097C20.4835 34.3804 20.4724 34.352 20.4522 34.3307C20.4321 34.3094 20.4043 34.2969 20.375 34.2958C20.3723 34.2957 20.3696 34.2957 20.367 34.2958ZM27.617 34.2958C27.5876 34.2969 27.5599 34.3094 27.5397 34.3307C27.5195 34.352 27.5084 34.3804 27.509 34.4097C27.5095 34.4391 27.5215 34.4671 27.5425 34.4876C27.5634 34.5082 27.5916 34.5197 27.621 34.5197C27.6503 34.5197 27.6785 34.5082 27.6994 34.4876C27.7204 34.4671 27.7324 34.4391 27.7329 34.4097C27.7335 34.3804 27.7224 34.352 27.7022 34.3307C27.682 34.3094 27.6543 34.2969 27.625 34.2958C27.6223 34.2957 27.6196 34.2957 27.617 34.2958ZM24.955 34.7088H24.957C25.0483 34.7172 25.1345 34.7547 25.203 34.8158C25.61 35.1778 25.124 35.6018 24.949 35.7848L24.086 36.6888C23.479 37.3208 23.215 37.7478 22.791 37.3388C22.431 36.9658 22.751 36.7438 23.439 36.0448L24.305 35.1418C24.509 34.9418 24.72 34.6988 24.955 34.7088ZM20.367 34.8588C20.3371 34.8599 20.3089 34.8727 20.2886 34.8946C20.2682 34.9164 20.2574 34.9455 20.2585 34.9753C20.2595 35.0051 20.2724 35.0333 20.2942 35.0537C20.3161 35.074 20.3451 35.0849 20.375 35.0838C20.3897 35.0833 20.4043 35.0798 20.4177 35.0737C20.4312 35.0676 20.4433 35.0588 20.4533 35.048C20.4634 35.0372 20.4713 35.0245 20.4764 35.0107C20.4816 34.9968 20.484 34.9821 20.4835 34.9673C20.4829 34.9525 20.4795 34.938 20.4734 34.9246C20.4672 34.9111 20.4585 34.899 20.4477 34.8889C20.4369 34.8789 20.4242 34.871 20.4103 34.8658C20.3965 34.8607 20.3817 34.8583 20.367 34.8588ZM27.617 34.8588C27.5871 34.8599 27.5589 34.8727 27.5386 34.8946C27.5182 34.9164 27.5074 34.9455 27.5085 34.9753C27.5095 35.0051 27.5224 35.0333 27.5442 35.0537C27.5661 35.074 27.5951 35.0849 27.625 35.0838C27.6397 35.0833 27.6543 35.0798 27.6677 35.0737C27.6812 35.0676 27.6933 35.0588 27.7033 35.048C27.7134 35.0372 27.7213 35.0245 27.7264 35.0107C27.7316 34.9968 27.734 34.9821 27.7335 34.9673C27.7329 34.9525 27.7295 34.938 27.7234 34.9246C27.7172 34.9111 27.7085 34.899 27.6977 34.8889C27.6869 34.8789 27.6742 34.871 27.6603 34.8658C27.6465 34.8607 27.6317 34.8583 27.617 34.8588ZM20.367 35.4218C20.3522 35.4227 20.3379 35.4265 20.3246 35.433C20.3114 35.4395 20.2996 35.4485 20.2898 35.4596C20.2801 35.4706 20.2726 35.4835 20.2678 35.4974C20.263 35.5114 20.261 35.5261 20.262 35.5408C20.2629 35.5555 20.2667 35.5699 20.2732 35.5831C20.2796 35.5964 20.2887 35.6082 20.2997 35.6179C20.3108 35.6277 20.3236 35.6352 20.3376 35.64C20.3515 35.6447 20.3662 35.6467 20.381 35.6458C20.4107 35.6439 20.4384 35.6304 20.4581 35.608C20.4778 35.5857 20.4878 35.5565 20.486 35.5268C20.4841 35.4971 20.4705 35.4694 20.4482 35.4497C20.4259 35.43 20.3967 35.4199 20.367 35.4218ZM27.617 35.4218C27.6022 35.4227 27.5879 35.4265 27.5746 35.433C27.5614 35.4395 27.5496 35.4485 27.5398 35.4596C27.5301 35.4706 27.5226 35.4835 27.5178 35.4974C27.513 35.5114 27.511 35.5261 27.512 35.5408C27.5129 35.5555 27.5167 35.5699 27.5232 35.5831C27.5296 35.5964 27.5387 35.6082 27.5497 35.6179C27.5608 35.6277 27.5736 35.6352 27.5876 35.64C27.6015 35.6447 27.6162 35.6467 27.631 35.6458C27.6607 35.6439 27.6884 35.6304 27.7081 35.608C27.7278 35.5857 27.7378 35.5565 27.736 35.5268C27.7341 35.4971 27.7205 35.4694 27.6982 35.4497C27.6759 35.43 27.6467 35.4199 27.617 35.4218ZM31.891 35.4998V35.5018C31.7664 35.5037 31.6434 35.5302 31.5291 35.5798C31.4148 35.6294 31.3114 35.7011 31.225 35.7908L29.416 37.6478C29.2581 37.8309 29.1761 38.0673 29.1865 38.3087C29.197 38.5502 29.2993 38.7786 29.4724 38.9473C29.6456 39.116 29.8765 39.2122 30.1182 39.2164C30.3599 39.2206 30.5941 39.1324 30.773 38.9698L32.584 37.1098C32.6711 37.0208 32.7397 36.9155 32.786 36.7998C32.8323 36.6842 32.8552 36.5606 32.8536 36.4361C32.8519 36.3115 32.8256 36.1886 32.7763 36.0742C32.7269 35.9599 32.6554 35.8564 32.566 35.7698C32.4771 35.6827 32.3719 35.614 32.2564 35.5677C32.1409 35.5213 32.0174 35.4983 31.893 35.4998H31.891ZM17.891 35.5018C17.7664 35.5037 17.6434 35.5302 17.5291 35.5798C17.4148 35.6294 17.3114 35.7011 17.225 35.7908L15.416 37.6478C15.2581 37.8309 15.176 38.0673 15.1865 38.3087C15.197 38.5502 15.2993 38.7786 15.4724 38.9473C15.6456 39.116 15.8765 39.2122 16.1182 39.2164C16.3599 39.2206 16.5941 39.1324 16.773 38.9698L18.582 37.1108C18.6691 37.0218 18.7377 36.9165 18.784 36.8008C18.8303 36.6852 18.8532 36.5616 18.8516 36.4371C18.8499 36.3125 18.8236 36.1896 18.7743 36.0752C18.7249 35.9609 18.6534 35.8574 18.564 35.7708C18.475 35.6837 18.3698 35.6151 18.2544 35.5688C18.1389 35.5224 18.0154 35.4993 17.891 35.5008V35.5018ZM17.955 35.9838H17.957C18.0484 35.9925 18.1347 36.0303 18.203 36.0918C18.61 36.4528 18.124 36.8768 17.949 37.0598L17.084 37.9648C16.477 38.5958 16.213 39.0228 15.789 38.6148C15.429 38.2418 15.749 38.0188 16.438 37.3198L17.303 36.4178C17.508 36.2178 17.72 35.9738 17.955 35.9838ZM20.367 35.9838C20.3522 35.9847 20.3377 35.9885 20.3244 35.995C20.3111 36.0015 20.2993 36.0106 20.2895 36.0217C20.2797 36.0328 20.2721 36.0457 20.2673 36.0597C20.2625 36.0737 20.2605 36.0885 20.2615 36.1033C20.2624 36.1181 20.2662 36.1325 20.2727 36.1458C20.2792 36.1591 20.2883 36.171 20.2994 36.1808C20.3105 36.1906 20.3234 36.1981 20.3374 36.2029C20.3514 36.2077 20.3662 36.2097 20.381 36.2088C20.4108 36.2069 20.4387 36.1933 20.4585 36.1709C20.4782 36.1485 20.4883 36.1191 20.4865 36.0893C20.4846 36.0595 20.471 36.0316 20.4486 36.0118C20.4261 35.992 20.3968 35.9819 20.367 35.9838ZM27.617 35.9838C27.6022 35.9847 27.5877 35.9885 27.5744 35.995C27.5611 36.0015 27.5493 36.0106 27.5395 36.0217C27.5297 36.0328 27.5221 36.0457 27.5173 36.0597C27.5125 36.0737 27.5105 36.0885 27.5115 36.1033C27.5124 36.1181 27.5162 36.1325 27.5227 36.1458C27.5292 36.1591 27.5383 36.171 27.5494 36.1808C27.5605 36.1906 27.5734 36.1981 27.5874 36.2029C27.6014 36.2077 27.6162 36.2097 27.631 36.2088C27.6608 36.2069 27.6887 36.1933 27.7085 36.1709C27.7282 36.1485 27.7383 36.1191 27.7365 36.0893C27.7346 36.0595 27.721 36.0316 27.6986 36.0118C27.6761 35.992 27.6468 35.9819 27.617 35.9838ZM31.955 35.9838H31.957C32.0484 35.9925 32.1347 36.0303 32.203 36.0918C32.61 36.4528 32.124 36.8768 31.949 37.0598L31.084 37.9648C30.477 38.5958 30.213 39.0228 29.789 38.6148C29.429 38.2418 29.749 38.0188 30.437 37.3198L31.303 36.4178C31.508 36.2178 31.72 35.9738 31.955 35.9838ZM20.367 36.5468C20.3522 36.5477 20.3379 36.5515 20.3246 36.558C20.3114 36.5645 20.2996 36.5735 20.2898 36.5846C20.2801 36.5956 20.2726 36.6085 20.2678 36.6224C20.263 36.6363 20.261 36.6511 20.262 36.6658C20.2629 36.6805 20.2667 36.6949 20.2732 36.7081C20.2796 36.7214 20.2887 36.7332 20.2997 36.7429C20.3108 36.7527 20.3236 36.7602 20.3376 36.765C20.3515 36.7697 20.3662 36.7717 20.381 36.7708C20.4107 36.7689 20.4384 36.7554 20.4581 36.733C20.4778 36.7107 20.4878 36.6815 20.486 36.6518C20.4841 36.6221 20.4705 36.5943 20.4482 36.5747C20.4259 36.555 20.3967 36.5449 20.367 36.5468ZM27.617 36.5468C27.6022 36.5477 27.5879 36.5515 27.5746 36.558C27.5614 36.5645 27.5496 36.5735 27.5398 36.5846C27.5301 36.5956 27.5226 36.6085 27.5178 36.6224C27.513 36.6363 27.511 36.6511 27.512 36.6658C27.5129 36.6805 27.5167 36.6949 27.5232 36.7081C27.5296 36.7214 27.5387 36.7332 27.5497 36.7429C27.5608 36.7527 27.5736 36.7602 27.5876 36.765C27.6015 36.7697 27.6162 36.7717 27.631 36.7708C27.6607 36.7689 27.6884 36.7554 27.7081 36.733C27.7278 36.7107 27.7378 36.6815 27.736 36.6518C27.7341 36.6221 27.7205 36.5943 27.6982 36.5747C27.6759 36.555 27.6467 36.5449 27.617 36.5468ZM20.355 37.1088C20.3286 37.1129 20.3047 37.1264 20.2876 37.1468C20.2705 37.1673 20.2614 37.1932 20.262 37.2198C20.262 37.2496 20.2738 37.2783 20.2949 37.2994C20.316 37.3204 20.3446 37.3323 20.3745 37.3323C20.4043 37.3323 20.4329 37.3204 20.454 37.2994C20.4751 37.2783 20.487 37.2496 20.487 37.2198C20.486 37.1598 20.437 37.1098 20.375 37.1098H20.355V37.1088ZM27.605 37.1088C27.5786 37.1129 27.5547 37.1264 27.5376 37.1468C27.5205 37.1673 27.5114 37.1932 27.512 37.2198C27.512 37.2496 27.5238 37.2783 27.5449 37.2994C27.566 37.3204 27.5946 37.3323 27.6245 37.3323C27.6543 37.3323 27.6829 37.3204 27.704 37.2994C27.7251 37.2783 27.737 37.2496 27.737 37.2198C27.736 37.1598 27.687 37.1098 27.625 37.1098H27.605V37.1088ZM20.367 37.6688C20.3376 37.6698 20.3099 37.6824 20.2897 37.7037C20.2695 37.725 20.2584 37.7534 20.259 37.7827C20.2595 37.8121 20.2715 37.8401 20.2925 37.8606C20.3134 37.8812 20.3416 37.8927 20.371 37.8927C20.4003 37.8927 20.4285 37.8812 20.4494 37.8606C20.4704 37.8401 20.4824 37.8121 20.4829 37.7827C20.4835 37.7534 20.4724 37.725 20.4522 37.7037C20.4321 37.6824 20.4043 37.6698 20.375 37.6688C20.3723 37.6687 20.3696 37.6687 20.367 37.6688ZM27.617 37.6688C27.5876 37.6698 27.5599 37.6824 27.5397 37.7037C27.5195 37.725 27.5084 37.7534 27.509 37.7827C27.5095 37.8121 27.5215 37.8401 27.5425 37.8606C27.5634 37.8812 27.5916 37.8927 27.621 37.8927C27.6503 37.8927 27.6785 37.8812 27.6994 37.8606C27.7204 37.8401 27.7324 37.8121 27.7329 37.7827C27.7335 37.7534 27.7224 37.725 27.7022 37.7037C27.682 37.6824 27.6543 37.6698 27.625 37.6688C27.6223 37.6687 27.6196 37.6687 27.617 37.6688ZM24.891 38.2258C24.7663 38.2278 24.6433 38.2545 24.529 38.3043C24.4147 38.354 24.3114 38.4259 24.225 38.5158L22.416 40.3728C22.2522 40.5549 22.1652 40.7933 22.1733 41.038C22.1813 41.2828 22.2838 41.5149 22.4592 41.6858C22.6347 41.8567 22.8694 41.9531 23.1143 41.9548C23.3592 41.9565 23.5952 41.8633 23.773 41.6948L25.582 39.8348C25.6691 39.7458 25.7377 39.6405 25.784 39.5248C25.8303 39.4092 25.8532 39.2856 25.8516 39.1611C25.8499 39.0365 25.8236 38.9136 25.7743 38.7992C25.7249 38.6849 25.6534 38.5814 25.564 38.4948C25.475 38.4079 25.3697 38.3395 25.2542 38.2933C25.1388 38.2471 25.0153 38.2242 24.891 38.2258ZM20.367 38.2318C20.3381 38.2336 20.3111 38.2465 20.2916 38.2677C20.272 38.289 20.2614 38.3169 20.262 38.3458C20.262 38.4078 20.312 38.4578 20.375 38.4558C20.4047 38.4558 20.4331 38.444 20.4542 38.423C20.4752 38.402 20.487 38.3735 20.487 38.3438C20.487 38.3141 20.4752 38.2856 20.4542 38.2646C20.4331 38.2436 20.4047 38.2318 20.375 38.2318C20.3723 38.2316 20.3696 38.2316 20.367 38.2318ZM27.617 38.2318C27.5881 38.2336 27.5611 38.2465 27.5416 38.2677C27.522 38.289 27.5114 38.3169 27.512 38.3458C27.512 38.4078 27.562 38.4578 27.625 38.4558C27.6547 38.4558 27.6831 38.444 27.7042 38.423C27.7252 38.402 27.737 38.3735 27.737 38.3438C27.737 38.3141 27.7252 38.2856 27.7042 38.2646C27.6831 38.2436 27.6547 38.2318 27.625 38.2318C27.6223 38.2316 27.6196 38.2316 27.617 38.2318ZM24.955 38.7088H24.957C25.035 38.7128 25.117 38.7468 25.201 38.8158C25.608 39.1778 25.124 39.6018 24.949 39.7848L24.084 40.6888C23.477 41.3208 23.213 41.7478 22.789 41.3388C22.429 40.9658 22.749 40.7438 23.437 40.0448L24.303 39.1418C24.508 38.9418 24.72 38.6988 24.955 38.7088ZM20.367 38.7948C20.3376 38.7958 20.3099 38.8084 20.2897 38.8297C20.2695 38.851 20.2584 38.8794 20.259 38.9087C20.2595 38.9381 20.2715 38.9661 20.2925 38.9866C20.3134 39.0072 20.3416 39.0187 20.371 39.0187C20.4003 39.0187 20.4285 39.0072 20.4494 38.9866C20.4704 38.9661 20.4824 38.9381 20.4829 38.9087C20.4835 38.8794 20.4724 38.851 20.4522 38.8297C20.4321 38.8084 20.4043 38.7958 20.375 38.7948C20.3723 38.7946 20.3696 38.7946 20.367 38.7948ZM27.617 38.7948C27.5876 38.7958 27.5599 38.8084 27.5397 38.8297C27.5195 38.851 27.5084 38.8794 27.509 38.9087C27.5095 38.9381 27.5215 38.9661 27.5425 38.9866C27.5634 39.0072 27.5916 39.0187 27.621 39.0187C27.6503 39.0187 27.6785 39.0072 27.6994 38.9866C27.7204 38.9661 27.7324 38.9381 27.7329 38.9087C27.7335 38.8794 27.7224 38.851 27.7022 38.8297C27.682 38.8084 27.6543 38.7958 27.625 38.7948C27.6223 38.7946 27.6196 38.7946 27.617 38.7948ZM17.891 39.2948C17.7664 39.2967 17.6434 39.3233 17.5291 39.3729C17.4148 39.4225 17.3115 39.4941 17.225 39.5838L15.416 41.4408C15.3288 41.5298 15.2602 41.6351 15.2139 41.7508C15.1676 41.8664 15.1447 41.99 15.1463 42.1145C15.148 42.2391 15.1743 42.362 15.2236 42.4764C15.273 42.5907 15.3445 42.6942 15.434 42.7808C15.6141 42.9559 15.8563 43.0524 16.1075 43.0492C16.3587 43.0461 16.5983 42.9434 16.774 42.7638L18.582 40.9038C18.6691 40.8148 18.7377 40.7095 18.784 40.5938C18.8303 40.4782 18.8532 40.3546 18.8516 40.2301C18.8499 40.1055 18.8236 39.9826 18.7743 39.8682C18.7249 39.7539 18.6534 39.6504 18.564 39.5638C18.475 39.4767 18.3698 39.4081 18.2544 39.3618C18.1389 39.3154 18.0154 39.2923 17.891 39.2938V39.2948ZM31.891 39.2948C31.7664 39.2967 31.6434 39.3233 31.5291 39.3729C31.4148 39.4225 31.3115 39.4941 31.225 39.5838L29.416 41.4408C29.3288 41.5298 29.2602 41.6351 29.2139 41.7508C29.1676 41.8664 29.1447 41.99 29.1463 42.1145C29.148 42.2391 29.1743 42.362 29.2236 42.4764C29.273 42.5907 29.3445 42.6942 29.434 42.7808C29.6141 42.9559 29.8563 43.0524 30.1075 43.0492C30.3587 43.0461 30.5983 42.9434 30.774 42.7638L32.582 40.9038C32.6691 40.8149 32.7379 40.7096 32.7842 40.594C32.8306 40.4784 32.8536 40.3548 32.8521 40.2303C32.8505 40.1057 32.8243 39.9828 32.775 39.8684C32.7258 39.754 32.6544 39.6505 32.565 39.5638C32.4759 39.4766 32.3706 39.4079 32.2549 39.3616C32.1392 39.3152 32.0155 39.2922 31.891 39.2938V39.2948ZM20.367 39.3568C20.3449 39.3582 20.3237 39.366 20.306 39.3793C20.2883 39.3926 20.2749 39.4108 20.2675 39.4317C20.2601 39.4525 20.259 39.4751 20.2642 39.4966C20.2695 39.5181 20.281 39.5375 20.2972 39.5525C20.3135 39.5676 20.3338 39.5775 20.3556 39.5811C20.3774 39.5847 20.3999 39.5818 20.4201 39.5728C20.4403 39.5637 20.4574 39.549 20.4693 39.5303C20.4812 39.5117 20.4873 39.4899 20.487 39.4678C20.4867 39.4526 20.4834 39.4375 20.4771 39.4236C20.4709 39.4097 20.4619 39.3972 20.4507 39.387C20.4394 39.3767 20.4262 39.3688 20.4118 39.3637C20.3974 39.3587 20.3822 39.3567 20.367 39.3578V39.3568ZM27.617 39.3568C27.5949 39.3582 27.5737 39.366 27.556 39.3793C27.5383 39.3926 27.5249 39.4108 27.5175 39.4317C27.5101 39.4525 27.509 39.4751 27.5142 39.4966C27.5195 39.5181 27.531 39.5375 27.5472 39.5525C27.5635 39.5676 27.5838 39.5775 27.6056 39.5811C27.6274 39.5847 27.6499 39.5818 27.6701 39.5728C27.6903 39.5637 27.7074 39.549 27.7193 39.5303C27.7312 39.5117 27.7373 39.4899 27.737 39.4678C27.7367 39.4526 27.7334 39.4375 27.7271 39.4236C27.7209 39.4097 27.7119 39.3972 27.7007 39.387C27.6894 39.3767 27.6762 39.3688 27.6618 39.3637C27.6474 39.3587 27.6322 39.3567 27.617 39.3578V39.3568ZM17.957 39.7768H17.959C18.037 39.7808 18.119 39.8158 18.203 39.8848C18.61 40.2458 18.126 40.6698 17.951 40.8528L17.086 41.7578C16.479 42.3888 16.215 42.8158 15.791 42.4078C15.431 42.0348 15.751 41.8118 16.439 41.1128L17.305 40.2108C17.509 40.0108 17.721 39.7668 17.957 39.7768ZM31.957 39.7768H31.959C32.037 39.7808 32.119 39.8158 32.203 39.8848C32.61 40.2458 32.126 40.6698 31.951 40.8528L31.086 41.7578C30.479 42.3888 30.215 42.8158 29.791 42.4078C29.431 42.0348 29.751 41.8118 30.439 41.1128L31.305 40.2108C31.509 40.0108 31.721 39.7668 31.957 39.7768ZM20.367 39.9198C20.3522 39.9207 20.3379 39.9245 20.3246 39.931C20.3114 39.9375 20.2996 39.9465 20.2898 39.9576C20.2801 39.9686 20.2726 39.9815 20.2678 39.9954C20.263 40.0093 20.261 40.0241 20.262 40.0388C20.2629 40.0535 20.2667 40.0679 20.2732 40.0811C20.2796 40.0944 20.2887 40.1062 20.2997 40.1159C20.3108 40.1257 20.3236 40.1332 20.3376 40.138C20.3515 40.1427 20.3662 40.1447 20.381 40.1438C20.4107 40.1419 20.4384 40.1284 20.4581 40.106C20.4778 40.0837 20.4878 40.0545 20.486 40.0248C20.4841 39.9951 20.4705 39.9673 20.4482 39.9477C20.4259 39.928 20.3967 39.9179 20.367 39.9198ZM27.617 39.9198C27.6022 39.9207 27.5879 39.9245 27.5746 39.931C27.5614 39.9375 27.5496 39.9465 27.5398 39.9576C27.5301 39.9686 27.5226 39.9815 27.5178 39.9954C27.513 40.0093 27.511 40.0241 27.512 40.0388C27.5129 40.0535 27.5167 40.0679 27.5232 40.0811C27.5296 40.0944 27.5387 40.1062 27.5497 40.1159C27.5608 40.1257 27.5736 40.1332 27.5876 40.138C27.6015 40.1427 27.6162 40.1447 27.631 40.1438C27.6607 40.1419 27.6884 40.1284 27.7081 40.106C27.7278 40.0837 27.7378 40.0545 27.736 40.0248C27.7341 39.9951 27.7205 39.9673 27.6982 39.9477C27.6759 39.928 27.6467 39.9179 27.617 39.9198ZM20.367 40.4818C20.3371 40.4837 20.3092 40.4973 20.2895 40.5197C20.2697 40.5421 20.2596 40.5715 20.2615 40.6013C20.2633 40.6311 20.2769 40.659 20.2994 40.6788C20.3218 40.6986 20.3511 40.7087 20.381 40.7068C20.4108 40.7049 20.4387 40.6913 20.4585 40.6689C20.4782 40.6465 20.4883 40.6171 20.4865 40.5873C20.4846 40.5575 20.471 40.5296 20.4486 40.5098C20.4261 40.49 20.3968 40.4799 20.367 40.4818ZM27.617 40.4818C27.5871 40.4837 27.5592 40.4973 27.5395 40.5197C27.5197 40.5421 27.5096 40.5715 27.5115 40.6013C27.5133 40.6311 27.5269 40.659 27.5494 40.6788C27.5718 40.6986 27.6011 40.7087 27.631 40.7068C27.6608 40.7049 27.6887 40.6913 27.7085 40.6689C27.7282 40.6465 27.7383 40.6171 27.7365 40.5873C27.7346 40.5575 27.721 40.5296 27.6986 40.5098C27.6761 40.49 27.6468 40.4799 27.617 40.4818ZM20.355 41.0448C20.3286 41.0489 20.3047 41.0624 20.2876 41.0828C20.2705 41.1033 20.2614 41.1292 20.262 41.1558C20.2598 41.1718 20.2611 41.188 20.2658 41.2034C20.2704 41.2188 20.2783 41.2331 20.2889 41.2452C20.2995 41.2573 20.3126 41.267 20.3273 41.2737C20.3419 41.2804 20.3579 41.2838 20.374 41.2838C20.3901 41.2838 20.406 41.2804 20.4207 41.2737C20.4353 41.267 20.4484 41.2573 20.459 41.2452C20.4696 41.2331 20.4775 41.2188 20.4821 41.2034C20.4868 41.188 20.4881 41.1718 20.486 41.1558C20.486 41.0948 20.436 41.0458 20.375 41.0448H20.355ZM27.605 41.0448C27.5786 41.0489 27.5547 41.0624 27.5376 41.0828C27.5205 41.1033 27.5114 41.1292 27.512 41.1558C27.5098 41.1718 27.5111 41.188 27.5158 41.2034C27.5204 41.2188 27.5283 41.2331 27.5389 41.2452C27.5495 41.2573 27.5626 41.267 27.5773 41.2737C27.5919 41.2804 27.6079 41.2838 27.624 41.2838C27.6401 41.2838 27.656 41.2804 27.6707 41.2737C27.6853 41.267 27.6984 41.2573 27.709 41.2452C27.7196 41.2331 27.7275 41.2188 27.7321 41.2034C27.7368 41.188 27.7381 41.1718 27.736 41.1558C27.736 41.0948 27.686 41.0458 27.625 41.0448H27.605ZM20.355 41.6068C20.3285 41.6109 20.3044 41.6246 20.2873 41.6452C20.2702 41.6658 20.2611 41.692 20.262 41.7188C20.262 41.7808 20.312 41.8308 20.375 41.8288C20.436 41.8288 20.485 41.7798 20.486 41.7188C20.486 41.6568 20.436 41.6078 20.375 41.6068H20.355ZM27.605 41.6068C27.5785 41.6109 27.5544 41.6246 27.5373 41.6452C27.5202 41.6658 27.5111 41.692 27.512 41.7188C27.512 41.7808 27.562 41.8308 27.625 41.8288C27.686 41.8288 27.735 41.7798 27.736 41.7188C27.736 41.6568 27.686 41.6078 27.625 41.6068H27.605ZM20.377 42.1668C20.3621 42.1667 20.3474 42.1695 20.3336 42.175C20.3199 42.1806 20.3073 42.1888 20.2968 42.1992C20.2862 42.2096 20.2777 42.222 20.2719 42.2356C20.2661 42.2493 20.2631 42.264 20.263 42.2788C20.2628 42.2936 20.2656 42.3084 20.2712 42.3221C20.2767 42.3359 20.2849 42.3484 20.2953 42.359C20.3057 42.3696 20.3181 42.378 20.3318 42.3838C20.3454 42.3896 20.3601 42.3927 20.375 42.3928C20.4048 42.3931 20.4335 42.3815 20.4548 42.3606C20.4761 42.3396 20.4882 42.3111 20.4885 42.2813C20.4887 42.2515 20.4771 42.2227 20.4562 42.2015C20.4353 42.1802 20.4068 42.1681 20.377 42.1678V42.1668ZM27.627 42.1668C27.6121 42.1667 27.5974 42.1695 27.5836 42.175C27.5699 42.1806 27.5573 42.1888 27.5468 42.1992C27.5362 42.2096 27.5277 42.222 27.5219 42.2356C27.5161 42.2493 27.5131 42.264 27.513 42.2788C27.5128 42.2936 27.5156 42.3084 27.5212 42.3221C27.5267 42.3359 27.5349 42.3484 27.5453 42.359C27.5557 42.3696 27.5681 42.378 27.5818 42.3838C27.5954 42.3896 27.6101 42.3927 27.625 42.3928C27.6548 42.3931 27.6835 42.3815 27.7048 42.3606C27.7261 42.3396 27.7382 42.3111 27.7385 42.2813C27.7387 42.2515 27.7271 42.2227 27.7062 42.2015C27.6853 42.1802 27.6568 42.1681 27.627 42.1678V42.1668ZM20.367 42.7298C20.3376 42.7309 20.3099 42.7434 20.2897 42.7647C20.2695 42.786 20.2584 42.8144 20.259 42.8437C20.2595 42.8731 20.2715 42.9011 20.2925 42.9216C20.3134 42.9422 20.3416 42.9537 20.371 42.9537C20.4003 42.9537 20.4285 42.9422 20.4494 42.9216C20.4704 42.9011 20.4824 42.8731 20.4829 42.8437C20.4835 42.8144 20.4724 42.786 20.4522 42.7647C20.4321 42.7434 20.4043 42.7309 20.375 42.7298C20.3723 42.7297 20.3696 42.7297 20.367 42.7298ZM27.617 42.7298C27.5876 42.7309 27.5599 42.7434 27.5397 42.7647C27.5195 42.786 27.5084 42.8144 27.509 42.8437C27.5095 42.8731 27.5215 42.9011 27.5425 42.9216C27.5634 42.9422 27.5916 42.9537 27.621 42.9537C27.6503 42.9537 27.6785 42.9422 27.6994 42.9216C27.7204 42.9011 27.7324 42.8731 27.7329 42.8437C27.7335 42.8144 27.7224 42.786 27.7022 42.7647C27.682 42.7434 27.6543 42.7309 27.625 42.7298C27.6223 42.7297 27.6196 42.7297 27.617 42.7298Z" fill="#333333"/>
</svg>
