<svg width="48" height="48" viewBox="0 0 48 48" fill="none" xmlns="http://www.w3.org/2000/svg">
<path d="M14.346 4.09402C13.476 4.09402 12.777 4.79302 12.777 5.66202V42.523C12.777 43.393 13.477 44.093 14.346 44.093H34.05C34.92 44.093 35.618 43.393 35.618 42.523V5.66302C35.618 4.79302 34.919 4.09302 34.05 4.09302H14.346V4.09402ZM14.776 4.59402H33.616C34.446 4.59402 35.117 5.27702 35.117 6.12502V42.065C35.117 42.912 34.447 43.594 33.615 43.594H14.775C13.945 43.594 13.275 42.912 13.275 42.064V6.12502C13.275 5.27702 13.945 4.59402 14.775 4.59402H14.776ZM18.129 9.41202C17.9156 9.40668 17.7032 9.44411 17.5045 9.52209C17.3058 9.60007 17.1247 9.71704 16.9718 9.86609C16.819 10.0151 16.6976 10.1933 16.6146 10.39C16.5317 10.5867 16.489 10.798 16.489 11.0115C16.489 11.225 16.5317 11.4363 16.6146 11.633C16.6976 11.8298 16.819 12.0079 16.9718 12.1569C17.1247 12.306 17.3058 12.423 17.5045 12.5009C17.7032 12.5789 17.9156 12.6164 18.129 12.611C18.5463 12.6006 18.943 12.4275 19.2344 12.1287C19.5259 11.8298 19.689 11.4289 19.689 11.0115C19.689 10.5941 19.5259 10.1932 19.2344 9.89438C18.943 9.59555 18.5463 9.42245 18.129 9.41202ZM22.129 9.41202C21.9156 9.40668 21.7032 9.44411 21.5045 9.52209C21.3058 9.60007 21.1247 9.71704 20.9718 9.86609C20.819 10.0151 20.6976 10.1933 20.6146 10.39C20.5317 10.5867 20.489 10.798 20.489 11.0115C20.489 11.225 20.5317 11.4363 20.6146 11.633C20.6976 11.8298 20.819 12.0079 20.9718 12.1569C21.1247 12.306 21.3058 12.423 21.5045 12.5009C21.7032 12.5789 21.9156 12.6164 22.129 12.611C22.5463 12.6006 22.943 12.4275 23.2344 12.1287C23.5259 11.8298 23.689 11.4289 23.689 11.0115C23.689 10.5941 23.5259 10.1932 23.2344 9.89438C22.943 9.59555 22.5463 9.42245 22.129 9.41202ZM26.129 9.41202C25.9156 9.40668 25.7032 9.44411 25.5045 9.52209C25.3058 9.60007 25.1247 9.71704 24.9718 9.86609C24.819 10.0151 24.6976 10.1933 24.6146 10.39C24.5317 10.5867 24.489 10.798 24.489 11.0115C24.489 11.225 24.5317 11.4363 24.6146 11.633C24.6976 11.8298 24.819 12.0079 24.9718 12.1569C25.1247 12.306 25.3058 12.423 25.5045 12.5009C25.7032 12.5789 25.9156 12.6164 26.129 12.611C26.5463 12.6006 26.943 12.4275 27.2344 12.1287C27.5259 11.8298 27.689 11.4289 27.689 11.0115C27.689 10.5941 27.5259 10.1932 27.2344 9.89438C26.943 9.59555 26.5463 9.42245 26.129 9.41202ZM30.129 9.41202C29.9156 9.40668 29.7032 9.44411 29.5045 9.52209C29.3058 9.60007 29.1247 9.71704 28.9718 9.86609C28.819 10.0151 28.6976 10.1933 28.6146 10.39C28.5317 10.5867 28.489 10.798 28.489 11.0115C28.489 11.225 28.5317 11.4363 28.6146 11.633C28.6976 11.8298 28.819 12.0079 28.9718 12.1569C29.1247 12.306 29.3058 12.423 29.5045 12.5009C29.7032 12.5789 29.9156 12.6164 30.129 12.611C30.5463 12.6006 30.943 12.4275 31.2344 12.1287C31.5259 11.8298 31.689 11.4289 31.689 11.0115C31.689 10.5941 31.5259 10.1932 31.2344 9.89438C30.943 9.59555 30.5463 9.42245 30.129 9.41202ZM18.129 9.87302C18.2784 9.87282 18.4263 9.90205 18.5644 9.95903C18.7025 10.016 18.828 10.0996 18.9338 10.2051C19.0395 10.3106 19.1235 10.4359 19.1808 10.5738C19.2382 10.7118 19.2678 10.8596 19.268 11.009C19.2682 11.1584 19.2389 11.3064 19.182 11.4444C19.125 11.5825 19.0414 11.708 18.9359 11.8138C18.8304 11.9196 18.7051 12.0035 18.5672 12.0609C18.4292 12.1182 18.2814 12.1478 18.132 12.148C17.8303 12.1484 17.5408 12.029 17.3272 11.8159C17.1136 11.6029 16.9934 11.3137 16.993 11.012C16.9926 10.7103 17.112 10.4208 17.3251 10.2072C17.5381 9.99364 17.8273 9.87342 18.129 9.87302ZM22.129 9.87302C22.2784 9.87282 22.4263 9.90205 22.5644 9.95903C22.7025 10.016 22.828 10.0996 22.9338 10.2051C23.0395 10.3106 23.1235 10.4359 23.1808 10.5738C23.2382 10.7118 23.2678 10.8596 23.268 11.009C23.2682 11.1584 23.2389 11.3064 23.182 11.4444C23.125 11.5825 23.0414 11.708 22.9359 11.8138C22.8304 11.9196 22.7051 12.0035 22.5672 12.0609C22.4292 12.1182 22.2814 12.1478 22.132 12.148C21.8303 12.1484 21.5408 12.029 21.3272 11.8159C21.1136 11.6029 20.9934 11.3137 20.993 11.012C20.9926 10.7103 21.112 10.4208 21.3251 10.2072C21.5381 9.99364 21.8273 9.87342 22.129 9.87302ZM26.129 9.87302C26.2784 9.87282 26.4263 9.90205 26.5644 9.95903C26.7025 10.016 26.828 10.0996 26.9338 10.2051C27.0395 10.3106 27.1235 10.4359 27.1808 10.5738C27.2382 10.7118 27.2678 10.8596 27.268 11.009C27.2682 11.1584 27.2389 11.3064 27.182 11.4444C27.125 11.5825 27.0414 11.708 26.9359 11.8138C26.8304 11.9196 26.7051 12.0035 26.5672 12.0609C26.4292 12.1182 26.2814 12.1478 26.132 12.148C25.8303 12.1484 25.5408 12.029 25.3272 11.8159C25.1136 11.6029 24.9934 11.3137 24.993 11.012C24.9926 10.7103 25.112 10.4208 25.3251 10.2072C25.5381 9.99364 25.8273 9.87342 26.129 9.87302ZM30.129 9.87302C30.2784 9.87282 30.4263 9.90205 30.5644 9.95903C30.7025 10.016 30.828 10.0996 30.9338 10.2051C31.0395 10.3106 31.1235 10.4359 31.1808 10.5738C31.2382 10.7118 31.2678 10.8596 31.268 11.009C31.2682 11.1584 31.2389 11.3064 31.182 11.4444C31.125 11.5825 31.0414 11.708 30.9359 11.8138C30.8304 11.9196 30.7051 12.0035 30.5672 12.0609C30.4292 12.1182 30.2814 12.1478 30.132 12.148C29.8303 12.1484 29.5408 12.029 29.3272 11.8159C29.1136 11.6029 28.9934 11.3137 28.993 11.012C28.9926 10.7103 29.112 10.4208 29.3251 10.2072C29.5381 9.99364 29.8273 9.87342 30.129 9.87302ZM13.795 14.98C13.7802 14.9801 13.7656 14.9832 13.752 14.989C13.7384 14.9948 13.726 15.0033 13.7157 15.0139C13.7054 15.0245 13.6973 15.037 13.6918 15.0508C13.6864 15.0645 13.6837 15.0792 13.684 15.094C13.684 15.155 13.734 15.206 13.794 15.207C13.857 15.207 13.907 15.157 13.908 15.094C13.9082 15.0791 13.9055 15.0642 13.8999 15.0503C13.8944 15.0364 13.8861 15.0238 13.8755 15.0132C13.865 15.0025 13.8525 14.9941 13.8386 14.9884C13.8248 14.9827 13.8099 14.9799 13.795 14.98ZM14.357 14.98C14.3269 14.9803 14.2982 14.9924 14.277 15.0138C14.2558 15.0351 14.244 15.064 14.244 15.094C14.244 15.155 14.296 15.207 14.357 15.207C14.419 15.207 14.468 15.155 14.469 15.094V15.074C14.4651 15.0473 14.4515 15.023 14.4309 15.0057C14.4102 14.9884 14.3839 14.9792 14.357 14.98ZM14.92 14.98C14.905 14.9799 14.8902 14.9827 14.8763 14.9884C14.8625 14.9941 14.8499 15.0025 14.8394 15.0132C14.8289 15.0238 14.8206 15.0364 14.815 15.0503C14.8094 15.0642 14.8067 15.0791 14.807 15.094C14.807 15.156 14.857 15.208 14.92 15.207C14.981 15.207 15.03 15.155 15.031 15.094V15.074C15.0271 15.0475 15.0137 15.0234 14.9932 15.0061C14.9728 14.9887 14.9468 14.9795 14.92 14.98ZM15.482 14.98C15.467 14.9799 15.4522 14.9827 15.4383 14.9884C15.4245 14.9941 15.4119 15.0025 15.4014 15.0132C15.3909 15.0238 15.3826 15.0364 15.377 15.0503C15.3714 15.0642 15.3687 15.0791 15.369 15.094C15.369 15.156 15.42 15.208 15.482 15.207C15.544 15.207 15.593 15.155 15.594 15.094V15.086C15.5924 15.0574 15.58 15.0304 15.5591 15.0107C15.5383 14.991 15.5107 14.98 15.482 14.98ZM16.045 14.98C16.03 14.9799 16.0152 14.9827 16.0013 14.9884C15.9875 14.9941 15.9749 15.0025 15.9644 15.0132C15.9539 15.0238 15.9456 15.0364 15.94 15.0503C15.9344 15.0642 15.9317 15.0791 15.932 15.094C15.932 15.156 15.982 15.208 16.045 15.207C16.106 15.207 16.155 15.155 16.156 15.094V15.086C16.1545 15.0575 16.1421 15.0307 16.1215 15.011C16.1009 14.9913 16.0735 14.9802 16.045 14.98ZM16.607 14.98C16.592 14.9799 16.5772 14.9827 16.5633 14.9884C16.5495 14.9941 16.5369 15.0025 16.5264 15.0132C16.5159 15.0238 16.5076 15.0364 16.502 15.0503C16.4964 15.0642 16.4937 15.0791 16.494 15.094C16.494 15.156 16.545 15.208 16.607 15.207C16.669 15.207 16.718 15.155 16.719 15.094V15.086C16.7174 15.0574 16.705 15.0304 16.6841 15.0107C16.6633 14.991 16.6357 14.98 16.607 14.98ZM17.168 14.98C17.1532 14.9801 17.1386 14.9832 17.125 14.989C17.1114 14.9948 17.099 15.0033 17.0887 15.0139C17.0784 15.0245 17.0703 15.037 17.0648 15.0508C17.0594 15.0645 17.0567 15.0792 17.057 15.094C17.057 15.155 17.107 15.207 17.168 15.207C17.1979 15.2068 17.2265 15.1948 17.2476 15.1736C17.2687 15.1525 17.2807 15.1239 17.281 15.094V15.086C17.2794 15.0572 17.2668 15.0301 17.2458 15.0103C17.2247 14.9906 17.1968 14.9797 17.168 14.98ZM17.731 14.98C17.7161 14.98 17.7014 14.983 17.6876 14.9887C17.6739 14.9945 17.6615 15.0029 17.6511 15.0135C17.6406 15.0241 17.6324 15.0367 17.6269 15.0505C17.6214 15.0644 17.6187 15.0791 17.619 15.094C17.619 15.155 17.669 15.207 17.73 15.207C17.76 15.207 17.7889 15.1951 17.8102 15.174C17.8316 15.1528 17.8437 15.1241 17.844 15.094V15.086C17.8424 15.057 17.8297 15.0298 17.8084 15.01C17.7871 14.9902 17.759 14.9795 17.73 14.98H17.731ZM18.293 14.98C18.2782 14.9801 18.2636 14.9832 18.25 14.989C18.2364 14.9948 18.224 15.0033 18.2137 15.0139C18.2034 15.0245 18.1953 15.037 18.1898 15.0508C18.1844 15.0645 18.1817 15.0792 18.182 15.094C18.182 15.155 18.232 15.207 18.293 15.207C18.3229 15.2068 18.3515 15.1948 18.3726 15.1736C18.3937 15.1525 18.4057 15.1239 18.406 15.094V15.086C18.4044 15.0572 18.3918 15.0301 18.3708 15.0103C18.3497 14.9906 18.3218 14.9797 18.293 14.98ZM18.856 14.98C18.8411 14.98 18.8264 14.983 18.8126 14.9887C18.7989 14.9945 18.7865 15.0029 18.7761 15.0135C18.7656 15.0241 18.7574 15.0367 18.7519 15.0505C18.7464 15.0644 18.7437 15.0791 18.744 15.094C18.744 15.155 18.794 15.207 18.855 15.207C18.917 15.207 18.966 15.155 18.967 15.094V15.074C18.9631 15.0475 18.9497 15.0234 18.9292 15.0061C18.9088 14.9887 18.8828 14.9795 18.856 14.98ZM19.418 14.98C19.403 14.9799 19.3882 14.9827 19.3743 14.9884C19.3605 14.9941 19.3479 15.0025 19.3374 15.0132C19.3269 15.0238 19.3186 15.0364 19.313 15.0503C19.3074 15.0642 19.3047 15.0791 19.305 15.094C19.305 15.156 19.356 15.208 19.418 15.207C19.479 15.207 19.528 15.155 19.529 15.094V15.086C19.5274 15.0575 19.5151 15.0307 19.4945 15.011C19.4739 14.9913 19.4465 14.9802 19.418 14.98ZM19.981 14.98C19.9659 14.9797 19.951 14.9825 19.937 14.9881C19.9231 14.9938 19.9104 15.0022 19.8998 15.0128C19.8891 15.0234 19.8807 15.0361 19.8751 15.0501C19.8695 15.064 19.8667 15.079 19.867 15.094C19.867 15.156 19.919 15.208 19.98 15.207C20.042 15.207 20.091 15.155 20.092 15.094V15.086C20.0904 15.0575 20.0781 15.0307 20.0575 15.011C20.0369 14.9913 20.0095 14.9802 19.981 14.98ZM20.543 14.98C20.528 14.9799 20.5132 14.9827 20.4993 14.9884C20.4855 14.9941 20.4729 15.0025 20.4624 15.0132C20.4519 15.0238 20.4436 15.0364 20.438 15.0503C20.4324 15.0642 20.4297 15.0791 20.43 15.094C20.43 15.156 20.481 15.208 20.543 15.207C20.604 15.207 20.653 15.155 20.654 15.094V15.086C20.6524 15.0575 20.6401 15.0307 20.6195 15.011C20.5989 14.9913 20.5715 14.9802 20.543 14.98ZM21.106 14.98C21.0909 14.9797 21.076 14.9825 21.062 14.9881C21.0481 14.9938 21.0354 15.0022 21.0248 15.0128C21.0141 15.0234 21.0057 15.0361 21.0001 15.0501C20.9945 15.064 20.9917 15.079 20.992 15.094C20.992 15.156 21.044 15.208 21.105 15.207C21.167 15.207 21.216 15.155 21.217 15.094V15.086C21.2154 15.0575 21.2031 15.0307 21.1825 15.011C21.1619 14.9913 21.1345 14.9802 21.106 14.98ZM21.666 14.98C21.6512 14.9801 21.6366 14.9832 21.623 14.989C21.6094 14.9948 21.597 15.0033 21.5867 15.0139C21.5764 15.0245 21.5683 15.037 21.5628 15.0508C21.5574 15.0645 21.5547 15.0792 21.555 15.094C21.555 15.155 21.605 15.207 21.666 15.207C21.6959 15.2068 21.7245 15.1948 21.7456 15.1736C21.7667 15.1525 21.7787 15.1239 21.779 15.094V15.086C21.7774 15.0572 21.7648 15.0301 21.7438 15.0103C21.7227 14.9906 21.6948 14.9797 21.666 14.98ZM22.229 14.98C22.2141 14.98 22.1994 14.983 22.1856 14.9887C22.1719 14.9945 22.1595 15.0029 22.1491 15.0135C22.1386 15.0241 22.1304 15.0367 22.1249 15.0505C22.1194 15.0644 22.1167 15.0791 22.117 15.094C22.117 15.155 22.167 15.207 22.228 15.207C22.258 15.207 22.2869 15.1951 22.3082 15.174C22.3296 15.1528 22.3417 15.1241 22.342 15.094V15.086C22.3404 15.0572 22.3278 15.0301 22.3068 15.0103C22.2857 14.9906 22.2578 14.9797 22.229 14.98ZM22.791 14.98C22.7762 14.9801 22.7616 14.9832 22.748 14.989C22.7344 14.9948 22.722 15.0033 22.7117 15.0139C22.7014 15.0245 22.6933 15.037 22.6878 15.0508C22.6824 15.0645 22.6797 15.0792 22.68 15.094C22.68 15.155 22.73 15.206 22.791 15.207C22.853 15.207 22.904 15.157 22.904 15.094C22.9042 15.0791 22.9015 15.0642 22.8959 15.0503C22.8904 15.0364 22.8821 15.0238 22.8715 15.0132C22.861 15.0025 22.8485 14.9941 22.8346 14.9884C22.8208 14.9827 22.8059 14.9799 22.791 14.98ZM23.354 14.98C23.3391 14.98 23.3244 14.983 23.3106 14.9887C23.2969 14.9945 23.2845 15.0029 23.2741 15.0135C23.2636 15.0241 23.2554 15.0367 23.2499 15.0505C23.2444 15.0644 23.2417 15.0791 23.242 15.094C23.242 15.155 23.292 15.207 23.353 15.207C23.3827 15.2065 23.411 15.1944 23.4319 15.1733C23.4529 15.1522 23.4647 15.1237 23.465 15.094V15.074C23.4609 15.0476 23.4474 15.0236 23.427 15.0063C23.4066 14.989 23.3807 14.9797 23.354 14.98ZM23.916 14.98C23.901 14.9799 23.8862 14.9827 23.8723 14.9884C23.8585 14.9941 23.8459 15.0025 23.8354 15.0132C23.8249 15.0238 23.8166 15.0364 23.811 15.0503C23.8054 15.0642 23.8027 15.0791 23.803 15.094C23.803 15.156 23.854 15.208 23.916 15.207C23.977 15.207 24.026 15.155 24.027 15.094V15.074C24.0231 15.0475 24.0097 15.0234 23.9892 15.0061C23.9688 14.9887 23.9428 14.9795 23.916 14.98ZM24.479 14.98C24.4639 14.9797 24.449 14.9825 24.435 14.9881C24.4211 14.9938 24.4084 15.0022 24.3978 15.0128C24.3871 15.0234 24.3787 15.0361 24.3731 15.0501C24.3675 15.064 24.3647 15.079 24.365 15.094C24.365 15.156 24.417 15.208 24.479 15.207C24.539 15.207 24.589 15.155 24.589 15.094V15.086C24.5875 15.0577 24.5753 15.031 24.5549 15.0114C24.5344 14.9917 24.5073 14.9805 24.479 14.98ZM25.041 14.98C25.026 14.9799 25.0112 14.9827 24.9973 14.9884C24.9835 14.9941 24.9709 15.0025 24.9604 15.0132C24.9499 15.0238 24.9416 15.0364 24.936 15.0503C24.9304 15.0642 24.9277 15.0791 24.928 15.094C24.928 15.156 24.979 15.208 25.041 15.207C25.102 15.207 25.151 15.155 25.152 15.094V15.086C25.1505 15.0575 25.1381 15.0307 25.1175 15.011C25.0969 14.9913 25.0695 14.9802 25.041 14.98ZM25.601 14.98C25.5863 14.9803 25.5718 14.9834 25.5583 14.9893C25.5448 14.9952 25.5326 15.0036 25.5224 15.0142C25.5121 15.0248 25.5041 15.0373 25.4987 15.051C25.4933 15.0647 25.4907 15.0793 25.491 15.094C25.491 15.155 25.541 15.207 25.601 15.207C25.631 15.207 25.6599 15.1951 25.6812 15.174C25.7026 15.1528 25.7147 15.1241 25.715 15.094V15.086C25.7134 15.0572 25.7008 15.0301 25.6798 15.0103C25.6587 14.9906 25.6308 14.9797 25.602 14.98H25.601ZM26.164 14.98C26.1492 14.9801 26.1346 14.9832 26.121 14.989C26.1074 14.9948 26.095 15.0033 26.0847 15.0139C26.0744 15.0245 26.0663 15.037 26.0608 15.0508C26.0554 15.0645 26.0527 15.0792 26.053 15.094C26.053 15.155 26.103 15.207 26.164 15.207C26.1939 15.2068 26.2225 15.1948 26.2436 15.1736C26.2647 15.1525 26.2767 15.1239 26.277 15.094V15.086C26.2754 15.0572 26.2628 15.0301 26.2418 15.0103C26.2207 14.9906 26.1928 14.9797 26.164 14.98ZM26.727 14.98C26.7121 14.98 26.6974 14.983 26.6836 14.9887C26.6699 14.9945 26.6575 15.0029 26.6471 15.0135C26.6366 15.0241 26.6284 15.0367 26.6229 15.0505C26.6174 15.0644 26.6147 15.0791 26.615 15.094C26.615 15.155 26.665 15.207 26.727 15.207C26.7569 15.2068 26.7855 15.1948 26.8066 15.1736C26.8277 15.1525 26.8397 15.1239 26.84 15.094V15.086C26.8384 15.0572 26.8258 15.0301 26.8048 15.0103C26.7837 14.9906 26.7558 14.9797 26.727 14.98ZM27.289 14.98C27.2742 14.9801 27.2596 14.9832 27.246 14.989C27.2324 14.9948 27.22 15.0033 27.2097 15.0139C27.1994 15.0245 27.1913 15.037 27.1858 15.0508C27.1804 15.0645 27.1777 15.0792 27.178 15.094C27.178 15.155 27.228 15.206 27.289 15.207C27.351 15.207 27.402 15.157 27.402 15.094C27.4022 15.0791 27.3995 15.0642 27.3939 15.0503C27.3884 15.0364 27.3801 15.0238 27.3695 15.0132C27.359 15.0025 27.3464 14.9941 27.3326 14.9884C27.3188 14.9827 27.3039 14.9799 27.289 14.98ZM27.852 14.98C27.8371 14.98 27.8224 14.983 27.8086 14.9887C27.7949 14.9945 27.7825 15.0029 27.7721 15.0135C27.7616 15.0241 27.7534 15.0367 27.7479 15.0505C27.7424 15.0644 27.7397 15.0791 27.74 15.094C27.74 15.155 27.79 15.207 27.852 15.207C27.912 15.207 27.962 15.155 27.962 15.094C27.964 15.086 27.964 15.082 27.962 15.074C27.9581 15.0477 27.9448 15.0237 27.9246 15.0064C27.9044 14.9891 27.8786 14.9797 27.852 14.98ZM28.414 14.98C28.399 14.9799 28.3842 14.9827 28.3703 14.9884C28.3565 14.9941 28.3439 15.0025 28.3334 15.0132C28.3229 15.0238 28.3146 15.0364 28.309 15.0503C28.3034 15.0642 28.3007 15.0791 28.301 15.094C28.301 15.156 28.352 15.208 28.414 15.207C28.475 15.207 28.524 15.155 28.525 15.094V15.086C28.5235 15.0577 28.5113 15.031 28.4909 15.0114C28.4704 14.9917 28.4433 14.9805 28.415 14.98H28.414ZM28.977 14.98C28.9619 14.9797 28.947 14.9825 28.933 14.9881C28.9191 14.9938 28.9064 15.0022 28.8958 15.0128C28.8851 15.0234 28.8767 15.0361 28.8711 15.0501C28.8655 15.064 28.8627 15.079 28.863 15.094C28.863 15.156 28.915 15.208 28.977 15.207C29.037 15.207 29.087 15.155 29.087 15.094V15.086C29.0855 15.0577 29.0733 15.031 29.0529 15.0114C29.0324 14.9917 29.0053 14.9805 28.977 14.98ZM29.539 14.98C29.524 14.9799 29.5092 14.9827 29.4953 14.9884C29.4815 14.9941 29.4689 15.0025 29.4584 15.0132C29.4479 15.0238 29.4396 15.0364 29.434 15.0503C29.4284 15.0642 29.4257 15.0791 29.426 15.094C29.426 15.156 29.477 15.208 29.539 15.207C29.6 15.207 29.649 15.155 29.65 15.094V15.086C29.6485 15.0577 29.6363 15.031 29.6159 15.0114C29.5954 14.9917 29.5683 14.9805 29.54 14.98H29.539ZM30.099 14.98C30.0843 14.9803 30.0698 14.9834 30.0563 14.9893C30.0428 14.9952 30.0306 15.0036 30.0204 15.0142C30.0101 15.0248 30.0021 15.0373 29.9967 15.051C29.9913 15.0647 29.9887 15.0793 29.989 15.094C29.989 15.155 30.038 15.207 30.099 15.207C30.129 15.207 30.1579 15.1951 30.1792 15.174C30.2006 15.1528 30.2127 15.1241 30.213 15.094V15.086C30.2114 15.0572 30.1988 15.0301 30.1778 15.0103C30.1567 14.9906 30.1288 14.9797 30.1 14.98H30.099ZM30.662 14.98C30.6472 14.9801 30.6326 14.9832 30.619 14.989C30.6054 14.9948 30.593 15.0033 30.5827 15.0139C30.5724 15.0245 30.5643 15.037 30.5588 15.0508C30.5534 15.0645 30.5507 15.0792 30.551 15.094C30.551 15.155 30.601 15.207 30.662 15.207C30.6919 15.2068 30.7205 15.1948 30.7416 15.1736C30.7627 15.1525 30.7747 15.1239 30.775 15.094V15.086C30.7734 15.0572 30.7608 15.0301 30.7398 15.0103C30.7187 14.9906 30.6908 14.9797 30.662 14.98ZM31.225 14.98C31.2101 14.98 31.1954 14.983 31.1817 14.9887C31.1679 14.9945 31.1555 15.0029 31.1451 15.0135C31.1346 15.0241 31.1264 15.0367 31.1209 15.0505C31.1154 15.0644 31.1127 15.0791 31.113 15.094C31.113 15.155 31.163 15.207 31.225 15.207C31.2549 15.2068 31.2835 15.1948 31.3046 15.1736C31.3257 15.1525 31.3377 15.1239 31.338 15.094V15.086C31.3364 15.0572 31.3238 15.0301 31.3028 15.0103C31.2817 14.9906 31.2538 14.9797 31.225 14.98ZM31.787 14.98C31.7722 14.9801 31.7576 14.9832 31.744 14.989C31.7304 14.9948 31.718 15.0033 31.7077 15.0139C31.6974 15.0245 31.6893 15.037 31.6838 15.0508C31.6784 15.0645 31.6757 15.0792 31.676 15.094C31.676 15.155 31.726 15.207 31.787 15.207C31.848 15.207 31.897 15.155 31.898 15.094V15.074C31.8941 15.0477 31.8808 15.0237 31.8606 15.0064C31.8404 14.9891 31.8146 14.9797 31.788 14.98H31.787ZM32.35 14.98C32.3349 14.9797 32.32 14.9825 32.306 14.9881C32.2921 14.9938 32.2794 15.0022 32.2688 15.0128C32.2581 15.0234 32.2497 15.0361 32.2441 15.0501C32.2385 15.064 32.2357 15.079 32.236 15.094C32.236 15.156 32.288 15.208 32.35 15.207C32.41 15.207 32.46 15.155 32.46 15.094C32.462 15.086 32.462 15.082 32.46 15.074C32.4561 15.0477 32.4428 15.0237 32.4226 15.0064C32.4024 14.9891 32.3766 14.9797 32.35 14.98ZM32.912 14.98C32.897 14.9799 32.8822 14.9827 32.8683 14.9884C32.8545 14.9941 32.8419 15.0025 32.8314 15.0132C32.8209 15.0238 32.8126 15.0364 32.807 15.0503C32.8014 15.0642 32.7987 15.0791 32.799 15.094C32.799 15.156 32.85 15.208 32.912 15.207C32.973 15.207 33.022 15.155 33.023 15.094V15.086C33.0215 15.0577 33.0093 15.031 32.9889 15.0114C32.9684 14.9917 32.9413 14.9805 32.913 14.98H32.912ZM33.475 14.98C33.4599 14.9797 33.445 14.9825 33.431 14.9881C33.4171 14.9938 33.4044 15.0022 33.3938 15.0128C33.3831 15.0234 33.3747 15.0361 33.3691 15.0501C33.3635 15.064 33.3607 15.079 33.361 15.094C33.361 15.156 33.413 15.208 33.475 15.207C33.5043 15.206 33.5322 15.1937 33.5527 15.1726C33.5732 15.1516 33.5847 15.1234 33.585 15.094V15.086C33.5835 15.0577 33.5713 15.031 33.5509 15.0114C33.5304 14.9917 33.5033 14.9805 33.475 14.98ZM34.037 14.98C34.022 14.9799 34.0072 14.9827 33.9933 14.9884C33.9795 14.9941 33.9669 15.0025 33.9564 15.0132C33.9459 15.0238 33.9376 15.0364 33.932 15.0503C33.9264 15.0642 33.9237 15.0791 33.924 15.094C33.924 15.156 33.975 15.208 34.037 15.207C34.0665 15.2062 34.0946 15.194 34.1153 15.1729C34.136 15.1519 34.1477 15.1236 34.148 15.094V15.086C34.1465 15.0577 34.1343 15.031 34.1139 15.0114C34.0934 14.9917 34.0663 14.9805 34.038 14.98H34.037ZM34.597 14.98C34.5823 14.9803 34.5678 14.9834 34.5543 14.9893C34.5408 14.9952 34.5286 15.0036 34.5184 15.0142C34.5081 15.0248 34.5001 15.0373 34.4947 15.051C34.4893 15.0647 34.4867 15.0793 34.487 15.094C34.487 15.155 34.536 15.207 34.597 15.207C34.627 15.207 34.6559 15.1951 34.6772 15.174C34.6986 15.1528 34.7107 15.1241 34.711 15.094V15.086C34.7094 15.0572 34.6968 15.0301 34.6758 15.0103C34.6547 14.9906 34.6268 14.9797 34.598 14.98H34.597ZM18.13 18.078C17.9166 18.0727 17.7042 18.1101 17.5055 18.1881C17.3068 18.2661 17.1257 18.383 16.9728 18.5321C16.82 18.6811 16.6986 18.8593 16.6156 19.056C16.5327 19.2527 16.49 19.464 16.49 19.6775C16.49 19.891 16.5327 20.1023 16.6156 20.299C16.6986 20.4958 16.82 20.6739 16.9728 20.8229C17.1257 20.972 17.3068 21.089 17.5055 21.1669C17.7042 21.2449 17.9166 21.2824 18.13 21.277C18.5473 21.2666 18.944 21.0935 19.2354 20.7947C19.5269 20.4958 19.69 20.0949 19.69 19.6775C19.69 19.2601 19.5269 18.8592 19.2354 18.5604C18.944 18.2615 18.5473 18.0885 18.13 18.078ZM22.13 18.078C21.9166 18.0727 21.7042 18.1101 21.5055 18.1881C21.3068 18.2661 21.1257 18.383 20.9728 18.5321C20.82 18.6811 20.6986 18.8593 20.6156 19.056C20.5327 19.2527 20.49 19.464 20.49 19.6775C20.49 19.891 20.5327 20.1023 20.6156 20.299C20.6986 20.4958 20.82 20.6739 20.9728 20.8229C21.1257 20.972 21.3068 21.089 21.5055 21.1669C21.7042 21.2449 21.9166 21.2824 22.13 21.277C22.5473 21.2666 22.944 21.0935 23.2354 20.7947C23.5269 20.4958 23.69 20.0949 23.69 19.6775C23.69 19.2601 23.5269 18.8592 23.2354 18.5604C22.944 18.2615 22.5473 18.0885 22.13 18.078ZM26.13 18.078C25.9166 18.0727 25.7042 18.1101 25.5055 18.1881C25.3068 18.2661 25.1257 18.383 24.9728 18.5321C24.82 18.6811 24.6986 18.8593 24.6156 19.056C24.5327 19.2527 24.49 19.464 24.49 19.6775C24.49 19.891 24.5327 20.1023 24.6156 20.299C24.6986 20.4958 24.82 20.6739 24.9728 20.8229C25.1257 20.972 25.3068 21.089 25.5055 21.1669C25.7042 21.2449 25.9166 21.2824 26.13 21.277C26.5473 21.2666 26.944 21.0935 27.2354 20.7947C27.5269 20.4958 27.69 20.0949 27.69 19.6775C27.69 19.2601 27.5269 18.8592 27.2354 18.5604C26.944 18.2615 26.5473 18.0885 26.13 18.078ZM30.13 18.078C29.9166 18.0727 29.7042 18.1101 29.5055 18.1881C29.3068 18.2661 29.1257 18.383 28.9728 18.5321C28.82 18.6811 28.6986 18.8593 28.6156 19.056C28.5327 19.2527 28.49 19.464 28.49 19.6775C28.49 19.891 28.5327 20.1023 28.6156 20.299C28.6986 20.4958 28.82 20.6739 28.9728 20.8229C29.1257 20.972 29.3068 21.089 29.5055 21.1669C29.7042 21.2449 29.9166 21.2824 30.13 21.277C30.5473 21.2666 30.944 21.0935 31.2354 20.7947C31.5269 20.4958 31.69 20.0949 31.69 19.6775C31.69 19.2601 31.5269 18.8592 31.2354 18.5604C30.944 18.2615 30.5473 18.0885 30.13 18.078ZM18.13 18.539C18.4317 18.5386 18.7211 18.6581 18.9347 18.8711C19.1484 19.0842 19.2686 19.3733 19.269 19.675C19.2694 19.9767 19.1499 20.2662 18.9369 20.4798C18.7238 20.6934 18.4347 20.8136 18.133 20.814C17.8313 20.8144 17.5418 20.695 17.3282 20.4819C17.1146 20.2689 16.9944 19.9797 16.994 19.678C16.9936 19.3763 17.113 19.0868 17.3261 18.8732C17.5391 18.6596 17.8283 18.5394 18.13 18.539ZM22.13 18.539C22.4317 18.5386 22.7211 18.6581 22.9347 18.8711C23.1484 19.0842 23.2686 19.3733 23.269 19.675C23.2694 19.9767 23.1499 20.2662 22.9369 20.4798C22.7238 20.6934 22.4347 20.8136 22.133 20.814C21.9836 20.8142 21.8356 20.785 21.6976 20.728C21.5595 20.671 21.434 20.5874 21.3282 20.4819C21.2224 20.3764 21.1385 20.2511 21.0811 20.1132C21.0238 19.9753 20.9942 19.8274 20.994 19.678C20.9938 19.5286 21.023 19.3807 21.08 19.2426C21.137 19.1045 21.2206 18.979 21.3261 18.8732C21.4316 18.7675 21.5569 18.6835 21.6948 18.6262C21.8327 18.5688 21.9806 18.5392 22.13 18.539ZM26.13 18.539C26.4317 18.5386 26.7211 18.6581 26.9347 18.8711C27.1484 19.0842 27.2686 19.3733 27.269 19.675C27.2694 19.9767 27.1499 20.2662 26.9369 20.4798C26.7238 20.6934 26.4347 20.8136 26.133 20.814C25.9836 20.8142 25.8356 20.785 25.6976 20.728C25.5595 20.671 25.434 20.5874 25.3282 20.4819C25.2224 20.3764 25.1385 20.2511 25.0811 20.1132C25.0238 19.9753 24.9942 19.8274 24.994 19.678C24.9938 19.5286 25.023 19.3807 25.08 19.2426C25.137 19.1045 25.2206 18.979 25.3261 18.8732C25.4316 18.7675 25.5569 18.6835 25.6948 18.6262C25.8327 18.5688 25.9806 18.5392 26.13 18.539ZM30.13 18.539C30.2794 18.5388 30.4273 18.568 30.5654 18.625C30.7035 18.682 30.829 18.7656 30.9347 18.8711C31.0405 18.9766 31.1245 19.1019 31.1818 19.2398C31.2392 19.3778 31.2688 19.5256 31.269 19.675C31.2692 19.8244 31.2399 19.9724 31.183 20.1104C31.126 20.2485 31.0424 20.374 30.9369 20.4798C30.8314 20.5856 30.7061 20.6695 30.5682 20.7269C30.4302 20.7842 30.2824 20.8138 30.133 20.814C29.8313 20.8144 29.5418 20.695 29.3282 20.4819C29.1146 20.2689 28.9944 19.9797 28.994 19.678C28.9936 19.3763 29.113 19.0868 29.3261 18.8732C29.5391 18.6596 29.8283 18.5394 30.13 18.539ZM13.795 23.98C13.7802 23.9801 13.7656 23.9832 13.752 23.989C13.7384 23.9948 13.726 24.0033 13.7157 24.0139C13.7054 24.0245 13.6973 24.037 13.6918 24.0508C13.6864 24.0645 13.6837 24.0792 13.684 24.094C13.684 24.155 13.734 24.206 13.794 24.207C13.857 24.207 13.907 24.157 13.908 24.094C13.9082 24.0791 13.9055 24.0642 13.8999 24.0503C13.8944 24.0364 13.8861 24.0238 13.8755 24.0132C13.865 24.0025 13.8525 23.9941 13.8386 23.9884C13.8248 23.9827 13.8099 23.9799 13.795 23.98ZM14.357 23.98C14.3269 23.9803 14.2982 23.9924 14.277 24.0138C14.2558 24.0351 14.244 24.064 14.244 24.094C14.244 24.155 14.296 24.207 14.357 24.207C14.419 24.207 14.468 24.155 14.469 24.094V24.074C14.4651 24.0473 14.4515 24.023 14.4309 24.0057C14.4102 23.9884 14.3839 23.9792 14.357 23.98ZM14.92 23.98C14.905 23.9799 14.8902 23.9827 14.8763 23.9884C14.8625 23.9941 14.8499 24.0025 14.8394 24.0132C14.8289 24.0238 14.8206 24.0364 14.815 24.0503C14.8094 24.0642 14.8067 24.0791 14.807 24.094C14.807 24.156 14.857 24.208 14.92 24.207C14.981 24.207 15.03 24.155 15.031 24.094V24.074C15.0271 24.0475 15.0137 24.0234 14.9932 24.0061C14.9728 23.9887 14.9468 23.9795 14.92 23.98ZM15.482 23.98C15.467 23.9799 15.4522 23.9827 15.4383 23.9884C15.4245 23.9941 15.4119 24.0025 15.4014 24.0132C15.3909 24.0238 15.3826 24.0364 15.377 24.0503C15.3714 24.0642 15.3687 24.0791 15.369 24.094C15.369 24.156 15.42 24.208 15.482 24.207C15.544 24.207 15.593 24.155 15.594 24.094V24.086C15.5922 24.0575 15.5796 24.0308 15.5588 24.0113C15.538 23.9918 15.5105 23.981 15.482 23.981V23.98ZM16.045 23.98C16.03 23.9799 16.0152 23.9827 16.0013 23.9884C15.9875 23.9941 15.9749 24.0025 15.9644 24.0132C15.9539 24.0238 15.9456 24.0364 15.94 24.0503C15.9344 24.0642 15.9317 24.0791 15.932 24.094C15.932 24.156 15.982 24.208 16.045 24.207C16.106 24.207 16.155 24.155 16.156 24.094V24.086C16.1542 24.0577 16.1418 24.0311 16.1212 24.0117C16.1006 23.9922 16.0733 23.9812 16.045 23.981V23.98ZM16.607 23.98C16.592 23.9799 16.5772 23.9827 16.5633 23.9884C16.5495 23.9941 16.5369 24.0025 16.5264 24.0132C16.5159 24.0238 16.5076 24.0364 16.502 24.0503C16.4964 24.0642 16.4937 24.0791 16.494 24.094C16.494 24.156 16.545 24.208 16.607 24.207C16.669 24.207 16.718 24.155 16.719 24.094V24.086C16.7172 24.0575 16.7046 24.0308 16.6838 24.0113C16.663 23.9918 16.6355 23.981 16.607 23.981V23.98ZM17.168 23.98C17.1532 23.9801 17.1386 23.9832 17.125 23.989C17.1114 23.9948 17.099 24.0033 17.0887 24.0139C17.0784 24.0245 17.0703 24.037 17.0648 24.0508C17.0594 24.0645 17.0567 24.0792 17.057 24.094C17.057 24.155 17.107 24.207 17.168 24.207C17.1979 24.2068 17.2265 24.1948 17.2476 24.1736C17.2687 24.1525 17.2807 24.1239 17.281 24.094V24.086C17.2792 24.0574 17.2665 24.0305 17.2454 24.011C17.2244 23.9914 17.1967 23.9807 17.168 23.981V23.98ZM17.731 23.98C17.7161 23.98 17.7014 23.983 17.6876 23.9887C17.6739 23.9945 17.6615 24.0029 17.6511 24.0135C17.6406 24.0241 17.6324 24.0367 17.6269 24.0505C17.6214 24.0644 17.6187 24.0791 17.619 24.094C17.619 24.155 17.669 24.207 17.73 24.207C17.76 24.207 17.7889 24.1951 17.8102 24.174C17.8316 24.1528 17.8437 24.1241 17.844 24.094V24.086C17.8422 24.0572 17.8293 24.0302 17.8081 24.0106C17.7868 23.991 17.7589 23.9804 17.73 23.981L17.731 23.98ZM18.293 23.98C18.2782 23.9801 18.2636 23.9832 18.25 23.989C18.2364 23.9948 18.224 24.0033 18.2137 24.0139C18.2034 24.0245 18.1953 24.037 18.1898 24.0508C18.1844 24.0645 18.1817 24.0792 18.182 24.094C18.182 24.155 18.232 24.207 18.293 24.207C18.3229 24.2068 18.3515 24.1948 18.3726 24.1736C18.3937 24.1525 18.4057 24.1239 18.406 24.094V24.086C18.4042 24.0574 18.3915 24.0305 18.3704 24.011C18.3494 23.9914 18.3217 23.9807 18.293 23.981V23.98ZM18.856 23.98C18.8411 23.98 18.8264 23.983 18.8126 23.9887C18.7989 23.9945 18.7865 24.0029 18.7761 24.0135C18.7656 24.0241 18.7574 24.0367 18.7519 24.0505C18.7464 24.0644 18.7437 24.0791 18.744 24.094C18.744 24.155 18.794 24.207 18.855 24.207C18.917 24.207 18.966 24.155 18.967 24.094V24.074C18.9631 24.0475 18.9497 24.0234 18.9292 24.0061C18.9088 23.9887 18.8828 23.9795 18.856 23.98ZM19.418 23.98C19.403 23.9799 19.3882 23.9827 19.3743 23.9884C19.3605 23.9941 19.3479 24.0025 19.3374 24.0132C19.3269 24.0238 19.3186 24.0364 19.313 24.0503C19.3074 24.0642 19.3047 24.0791 19.305 24.094C19.305 24.156 19.356 24.208 19.418 24.207C19.479 24.207 19.528 24.155 19.529 24.094V24.086C19.5272 24.0577 19.5148 24.0311 19.4942 24.0117C19.4736 23.9922 19.4463 23.9812 19.418 23.981V23.98ZM19.981 23.98C19.9659 23.9797 19.951 23.9825 19.937 23.9881C19.9231 23.9938 19.9104 24.0022 19.8998 24.0128C19.8891 24.0234 19.8807 24.0361 19.8751 24.0501C19.8695 24.064 19.8667 24.079 19.867 24.094C19.867 24.156 19.919 24.208 19.98 24.207C20.042 24.207 20.091 24.155 20.092 24.094V24.086C20.0902 24.0577 20.0778 24.0311 20.0572 24.0117C20.0366 23.9922 20.0093 23.9812 19.981 23.981V23.98ZM20.543 23.98C20.528 23.9799 20.5132 23.9827 20.4993 23.9884C20.4855 23.9941 20.4729 24.0025 20.4624 24.0132C20.4519 24.0238 20.4436 24.0364 20.438 24.0503C20.4324 24.0642 20.4297 24.0791 20.43 24.094C20.43 24.156 20.481 24.208 20.543 24.207C20.604 24.207 20.653 24.155 20.654 24.094V24.086C20.6522 24.0577 20.6398 24.0311 20.6192 24.0117C20.5986 23.9922 20.5713 23.9812 20.543 23.981V23.98ZM21.106 23.98C21.0909 23.9797 21.076 23.9825 21.062 23.9881C21.0481 23.9938 21.0354 24.0022 21.0248 24.0128C21.0141 24.0234 21.0057 24.0361 21.0001 24.0501C20.9945 24.064 20.9917 24.079 20.992 24.094C20.992 24.156 21.044 24.208 21.105 24.207C21.167 24.207 21.216 24.155 21.217 24.094V24.086C21.2152 24.0577 21.2028 24.0311 21.1822 24.0117C21.1616 23.9922 21.1343 23.9812 21.106 23.981V23.98ZM21.666 23.98C21.6512 23.9801 21.6366 23.9832 21.623 23.989C21.6094 23.9948 21.597 24.0033 21.5867 24.0139C21.5764 24.0245 21.5683 24.037 21.5628 24.0508C21.5574 24.0645 21.5547 24.0792 21.555 24.094C21.555 24.155 21.605 24.207 21.666 24.207C21.6959 24.2068 21.7245 24.1948 21.7456 24.1736C21.7667 24.1525 21.7787 24.1239 21.779 24.094V24.086C21.7772 24.0574 21.7645 24.0305 21.7434 24.011C21.7224 23.9914 21.6947 23.9807 21.666 23.981V23.98ZM22.229 23.98C22.2141 23.98 22.1994 23.983 22.1856 23.9887C22.1719 23.9945 22.1595 24.0029 22.1491 24.0135C22.1386 24.0241 22.1304 24.0367 22.1249 24.0505C22.1194 24.0644 22.1167 24.0791 22.117 24.094C22.117 24.155 22.167 24.207 22.228 24.207C22.258 24.207 22.2869 24.1951 22.3082 24.174C22.3296 24.1528 22.3417 24.1241 22.342 24.094V24.086C22.3402 24.0574 22.3275 24.0305 22.3064 24.011C22.2854 23.9914 22.2577 23.9807 22.229 23.981V23.98ZM22.791 23.98C22.7762 23.9801 22.7616 23.9832 22.748 23.989C22.7344 23.9948 22.722 24.0033 22.7117 24.0139C22.7014 24.0245 22.6933 24.037 22.6878 24.0508C22.6824 24.0645 22.6797 24.0792 22.68 24.094C22.68 24.155 22.73 24.206 22.791 24.207C22.853 24.207 22.904 24.157 22.904 24.094C22.9042 24.0791 22.9015 24.0642 22.8959 24.0503C22.8904 24.0364 22.8821 24.0238 22.8715 24.0132C22.861 24.0025 22.8485 23.9941 22.8346 23.9884C22.8208 23.9827 22.8059 23.9799 22.791 23.98ZM23.354 23.98C23.3391 23.98 23.3244 23.983 23.3106 23.9887C23.2969 23.9945 23.2845 24.0029 23.2741 24.0135C23.2636 24.0241 23.2554 24.0367 23.2499 24.0505C23.2444 24.0644 23.2417 24.0791 23.242 24.094C23.242 24.155 23.292 24.207 23.353 24.207C23.3827 24.2065 23.411 24.1944 23.4319 24.1733C23.4529 24.1522 23.4647 24.1237 23.465 24.094V24.074C23.4609 24.0476 23.4474 24.0236 23.427 24.0063C23.4066 23.989 23.3807 23.9797 23.354 23.98ZM23.916 23.98C23.901 23.9799 23.8862 23.9827 23.8723 23.9884C23.8585 23.9941 23.8459 24.0025 23.8354 24.0132C23.8249 24.0238 23.8166 24.0364 23.811 24.0503C23.8054 24.0642 23.8027 24.0791 23.803 24.094C23.803 24.156 23.854 24.208 23.916 24.207C23.977 24.207 24.026 24.155 24.027 24.094V24.074C24.0231 24.0475 24.0097 24.0234 23.9892 24.0061C23.9688 23.9887 23.9428 23.9795 23.916 23.98ZM24.479 23.98C24.4639 23.9797 24.449 23.9825 24.435 23.9881C24.4211 23.9938 24.4084 24.0022 24.3978 24.0128C24.3871 24.0234 24.3787 24.0361 24.3731 24.0501C24.3675 24.064 24.3647 24.079 24.365 24.094C24.365 24.156 24.417 24.208 24.479 24.207C24.539 24.207 24.589 24.155 24.589 24.094V24.086C24.5872 24.0579 24.5749 24.0315 24.5545 24.012C24.5341 23.9925 24.5072 23.9815 24.479 23.981V23.98ZM25.041 23.98C25.026 23.9799 25.0112 23.9827 24.9973 23.9884C24.9835 23.9941 24.9709 24.0025 24.9604 24.0132C24.9499 24.0238 24.9416 24.0364 24.936 24.0503C24.9304 24.0642 24.9277 24.0791 24.928 24.094C24.928 24.156 24.979 24.208 25.041 24.207C25.102 24.207 25.151 24.155 25.152 24.094V24.086C25.1502 24.0577 25.1378 24.0311 25.1172 24.0117C25.0966 23.9922 25.0693 23.9812 25.041 23.981V23.98ZM25.601 23.98C25.5863 23.9803 25.5718 23.9834 25.5583 23.9893C25.5448 23.9952 25.5326 24.0036 25.5224 24.0142C25.5121 24.0248 25.5041 24.0373 25.4987 24.051C25.4933 24.0647 25.4907 24.0793 25.491 24.094C25.491 24.155 25.541 24.207 25.601 24.207C25.631 24.207 25.6599 24.1951 25.6812 24.174C25.7026 24.1528 25.7147 24.1241 25.715 24.094V24.086C25.7132 24.0574 25.7005 24.0305 25.6794 24.011C25.6584 23.9914 25.6307 23.9807 25.602 23.981L25.601 23.98ZM26.164 23.98C26.1492 23.9801 26.1346 23.9832 26.121 23.989C26.1074 23.9948 26.095 24.0033 26.0847 24.0139C26.0744 24.0245 26.0663 24.037 26.0608 24.0508C26.0554 24.0645 26.0527 24.0792 26.053 24.094C26.053 24.155 26.103 24.207 26.164 24.207C26.1939 24.2068 26.2225 24.1948 26.2436 24.1736C26.2647 24.1525 26.2767 24.1239 26.277 24.094V24.086C26.2752 24.0574 26.2625 24.0305 26.2414 24.011C26.2204 23.9914 26.1927 23.9807 26.164 23.981V23.98ZM26.727 23.98C26.7121 23.98 26.6974 23.983 26.6836 23.9887C26.6699 23.9945 26.6575 24.0029 26.6471 24.0135C26.6366 24.0241 26.6284 24.0367 26.6229 24.0505C26.6174 24.0644 26.6147 24.0791 26.615 24.094C26.615 24.155 26.665 24.207 26.727 24.207C26.7569 24.2068 26.7855 24.1948 26.8066 24.1736C26.8277 24.1525 26.8397 24.1239 26.84 24.094V24.086C26.8382 24.0574 26.8255 24.0305 26.8044 24.011C26.7834 23.9914 26.7557 23.9807 26.727 23.981V23.98ZM27.289 23.98C27.2742 23.9801 27.2596 23.9832 27.246 23.989C27.2324 23.9948 27.22 24.0033 27.2097 24.0139C27.1994 24.0245 27.1913 24.037 27.1858 24.0508C27.1804 24.0645 27.1777 24.0792 27.178 24.094C27.178 24.155 27.228 24.206 27.289 24.207C27.351 24.207 27.402 24.157 27.402 24.094C27.4022 24.0791 27.3995 24.0642 27.3939 24.0503C27.3884 24.0364 27.3801 24.0238 27.3695 24.0132C27.359 24.0025 27.3464 23.9941 27.3326 23.9884C27.3188 23.9827 27.3039 23.9799 27.289 23.98ZM27.852 23.98C27.8371 23.98 27.8224 23.983 27.8086 23.9887C27.7949 23.9945 27.7825 24.0029 27.7721 24.0135C27.7616 24.0241 27.7534 24.0367 27.7479 24.0505C27.7424 24.0644 27.7397 24.0791 27.74 24.094C27.74 24.155 27.79 24.207 27.852 24.207C27.912 24.207 27.962 24.155 27.962 24.094C27.964 24.086 27.964 24.082 27.962 24.074C27.9581 24.0477 27.9448 24.0237 27.9246 24.0064C27.9044 23.9891 27.8786 23.9797 27.852 23.98ZM28.414 23.98C28.399 23.9799 28.3842 23.9827 28.3703 23.9884C28.3565 23.9941 28.3439 24.0025 28.3334 24.0132C28.3229 24.0238 28.3146 24.0364 28.309 24.0503C28.3034 24.0642 28.3007 24.0791 28.301 24.094C28.301 24.156 28.352 24.208 28.414 24.207C28.475 24.207 28.524 24.155 28.525 24.094V24.086C28.5232 24.0579 28.5109 24.0315 28.4905 24.012C28.4701 23.9925 28.4432 23.9815 28.415 23.981L28.414 23.98ZM28.977 23.98C28.9619 23.9797 28.947 23.9825 28.933 23.9881C28.9191 23.9938 28.9064 24.0022 28.8958 24.0128C28.8851 24.0234 28.8767 24.0361 28.8711 24.0501C28.8655 24.064 28.8627 24.079 28.863 24.094C28.863 24.156 28.915 24.208 28.977 24.207C29.037 24.207 29.087 24.155 29.087 24.094V24.086C29.0852 24.0579 29.0729 24.0315 29.0525 24.012C29.0321 23.9925 29.0052 23.9815 28.977 23.981V23.98ZM29.539 23.98C29.524 23.9799 29.5092 23.9827 29.4953 23.9884C29.4815 23.9941 29.4689 24.0025 29.4584 24.0132C29.4479 24.0238 29.4396 24.0364 29.434 24.0503C29.4284 24.0642 29.4257 24.0791 29.426 24.094C29.426 24.156 29.477 24.208 29.539 24.207C29.6 24.207 29.649 24.155 29.65 24.094V24.086C29.6482 24.0579 29.6359 24.0315 29.6155 24.012C29.5951 23.9925 29.5682 23.9815 29.54 23.981L29.539 23.98ZM30.099 23.98C30.0843 23.9803 30.0698 23.9834 30.0563 23.9893C30.0428 23.9952 30.0306 24.0036 30.0204 24.0142C30.0101 24.0248 30.0021 24.0373 29.9967 24.051C29.9913 24.0647 29.9887 24.0793 29.989 24.094C29.989 24.155 30.038 24.207 30.099 24.207C30.129 24.207 30.1579 24.1951 30.1792 24.174C30.2006 24.1528 30.2127 24.1241 30.213 24.094V24.086C30.2112 24.0574 30.1985 24.0305 30.1774 24.011C30.1564 23.9914 30.1287 23.9807 30.1 23.981L30.099 23.98ZM30.662 23.98C30.6472 23.9801 30.6326 23.9832 30.619 23.989C30.6054 23.9948 30.593 24.0033 30.5827 24.0139C30.5724 24.0245 30.5643 24.037 30.5588 24.0508C30.5534 24.0645 30.5507 24.0792 30.551 24.094C30.551 24.155 30.601 24.207 30.662 24.207C30.6919 24.2068 30.7205 24.1948 30.7416 24.1736C30.7627 24.1525 30.7747 24.1239 30.775 24.094V24.086C30.7732 24.0574 30.7605 24.0305 30.7394 24.011C30.7184 23.9914 30.6907 23.9807 30.662 23.981V23.98ZM31.225 23.98C31.2101 23.98 31.1954 23.983 31.1817 23.9887C31.1679 23.9945 31.1555 24.0029 31.1451 24.0135C31.1346 24.0241 31.1264 24.0367 31.1209 24.0505C31.1154 24.0644 31.1127 24.0791 31.113 24.094C31.113 24.155 31.163 24.207 31.225 24.207C31.2549 24.2068 31.2835 24.1948 31.3046 24.1736C31.3257 24.1525 31.3377 24.1239 31.338 24.094V24.086C31.3362 24.0574 31.3235 24.0305 31.3024 24.011C31.2814 23.9914 31.2537 23.9807 31.225 23.981V23.98ZM31.787 23.98C31.7722 23.9801 31.7576 23.9832 31.744 23.989C31.7304 23.9948 31.718 24.0033 31.7077 24.0139C31.6974 24.0245 31.6893 24.037 31.6838 24.0508C31.6784 24.0645 31.6757 24.0792 31.676 24.094C31.676 24.155 31.726 24.207 31.787 24.207C31.848 24.207 31.897 24.155 31.898 24.094V24.074C31.8941 24.0477 31.8808 24.0237 31.8606 24.0064C31.8404 23.9891 31.8146 23.9797 31.788 23.98H31.787ZM32.35 23.98C32.3349 23.9797 32.32 23.9825 32.306 23.9881C32.2921 23.9938 32.2794 24.0022 32.2688 24.0128C32.2581 24.0234 32.2497 24.0361 32.2441 24.0501C32.2385 24.064 32.2357 24.079 32.236 24.094C32.236 24.156 32.288 24.208 32.35 24.207C32.41 24.207 32.46 24.155 32.46 24.094C32.462 24.086 32.462 24.082 32.46 24.074C32.4561 24.0477 32.4428 24.0237 32.4226 24.0064C32.4024 23.9891 32.3766 23.9797 32.35 23.98ZM32.912 23.98C32.897 23.9799 32.8822 23.9827 32.8683 23.9884C32.8545 23.9941 32.8419 24.0025 32.8314 24.0132C32.8209 24.0238 32.8126 24.0364 32.807 24.0503C32.8014 24.0642 32.7987 24.0791 32.799 24.094C32.799 24.156 32.85 24.208 32.912 24.207C32.973 24.207 33.022 24.155 33.023 24.094V24.086C33.0212 24.0579 33.0089 24.0315 32.9885 24.012C32.9681 23.9925 32.9412 23.9815 32.913 23.981L32.912 23.98ZM33.475 23.98C33.4599 23.9797 33.445 23.9825 33.431 23.9881C33.4171 23.9938 33.4044 24.0022 33.3938 24.0128C33.3831 24.0234 33.3747 24.0361 33.3691 24.0501C33.3635 24.064 33.3607 24.079 33.361 24.094C33.361 24.156 33.413 24.208 33.475 24.207C33.5043 24.206 33.5322 24.1937 33.5527 24.1726C33.5732 24.1516 33.5847 24.1234 33.585 24.094V24.086C33.5832 24.0579 33.5709 24.0315 33.5505 24.012C33.5301 23.9925 33.5032 23.9815 33.475 23.981V23.98ZM34.037 23.98C34.022 23.9799 34.0072 23.9827 33.9933 23.9884C33.9795 23.9941 33.9669 24.0025 33.9564 24.0132C33.9459 24.0238 33.9376 24.0364 33.932 24.0503C33.9264 24.0642 33.9237 24.0791 33.924 24.094C33.924 24.156 33.975 24.208 34.037 24.207C34.0665 24.2062 34.0946 24.194 34.1153 24.1729C34.136 24.1519 34.1477 24.1236 34.148 24.094V24.086C34.1462 24.0579 34.1339 24.0315 34.1135 24.012C34.0931 23.9925 34.0662 23.9815 34.038 23.981L34.037 23.98ZM34.597 23.98C34.5823 23.9803 34.5678 23.9834 34.5543 23.9893C34.5408 23.9952 34.5286 24.0036 34.5184 24.0142C34.5081 24.0248 34.5001 24.0373 34.4947 24.051C34.4893 24.0647 34.4867 24.0793 34.487 24.094C34.487 24.155 34.536 24.207 34.597 24.207C34.627 24.207 34.6559 24.1951 34.6772 24.174C34.6986 24.1528 34.7107 24.1241 34.711 24.094V24.086C34.7092 24.0574 34.6965 24.0305 34.6754 24.011C34.6544 23.9914 34.6267 23.9807 34.598 23.981L34.597 23.98ZM18.13 26.746C17.9166 26.7407 17.7042 26.7781 17.5055 26.8561C17.3068 26.9341 17.1257 27.051 16.9728 27.2001C16.82 27.3491 16.6986 27.5273 16.6156 27.724C16.5327 27.9207 16.49 28.132 16.49 28.3455C16.49 28.559 16.5327 28.7703 16.6156 28.967C16.6986 29.1638 16.82 29.3419 16.9728 29.4909C17.1257 29.64 17.3068 29.757 17.5055 29.8349C17.7042 29.9129 17.9166 29.9504 18.13 29.945C18.5473 29.9346 18.944 29.7615 19.2354 29.4627C19.5269 29.1638 19.69 28.7629 19.69 28.3455C19.69 27.9281 19.5269 27.5272 19.2354 27.2284C18.944 26.9296 18.5473 26.7565 18.13 26.746ZM22.13 26.746C21.9166 26.7407 21.7042 26.7781 21.5055 26.8561C21.3068 26.9341 21.1257 27.051 20.9728 27.2001C20.82 27.3491 20.6986 27.5273 20.6156 27.724C20.5327 27.9207 20.49 28.132 20.49 28.3455C20.49 28.559 20.5327 28.7703 20.6156 28.967C20.6986 29.1638 20.82 29.3419 20.9728 29.4909C21.1257 29.64 21.3068 29.757 21.5055 29.8349C21.7042 29.9129 21.9166 29.9504 22.13 29.945C22.5473 29.9346 22.944 29.7615 23.2354 29.4627C23.5269 29.1638 23.69 28.7629 23.69 28.3455C23.69 27.9281 23.5269 27.5272 23.2354 27.2284C22.944 26.9296 22.5473 26.7565 22.13 26.746ZM26.13 26.746C25.9166 26.7407 25.7042 26.7781 25.5055 26.8561C25.3068 26.9341 25.1257 27.051 24.9728 27.2001C24.82 27.3491 24.6986 27.5273 24.6156 27.724C24.5327 27.9207 24.49 28.132 24.49 28.3455C24.49 28.559 24.5327 28.7703 24.6156 28.967C24.6986 29.1638 24.82 29.3419 24.9728 29.4909C25.1257 29.64 25.3068 29.757 25.5055 29.8349C25.7042 29.9129 25.9166 29.9504 26.13 29.945C26.5473 29.9346 26.944 29.7615 27.2354 29.4627C27.5269 29.1638 27.69 28.7629 27.69 28.3455C27.69 27.9281 27.5269 27.5272 27.2354 27.2284C26.944 26.9296 26.5473 26.7565 26.13 26.746ZM30.13 26.746C29.9166 26.7407 29.7042 26.7781 29.5055 26.8561C29.3068 26.9341 29.1257 27.051 28.9728 27.2001C28.82 27.3491 28.6986 27.5273 28.6156 27.724C28.5327 27.9207 28.49 28.132 28.49 28.3455C28.49 28.559 28.5327 28.7703 28.6156 28.967C28.6986 29.1638 28.82 29.3419 28.9728 29.4909C29.1257 29.64 29.3068 29.757 29.5055 29.8349C29.7042 29.9129 29.9166 29.9504 30.13 29.945C30.5473 29.9346 30.944 29.7615 31.2354 29.4627C31.5269 29.1638 31.69 28.7629 31.69 28.3455C31.69 27.9281 31.5269 27.5272 31.2354 27.2284C30.944 26.9296 30.5473 26.7565 30.13 26.746ZM18.13 27.207C18.2794 27.2069 18.4273 27.2362 18.5654 27.2932C18.7034 27.3503 18.8289 27.4339 18.9346 27.5395C19.0403 27.645 19.1242 27.7703 19.1815 27.9083C19.2388 28.0462 19.2683 28.1941 19.2685 28.3435C19.2686 28.4929 19.2393 28.6408 19.1823 28.7789C19.1252 28.917 19.0416 29.0424 18.936 29.1481C18.8305 29.2539 18.7052 29.3378 18.5672 29.395C18.4292 29.4523 18.2814 29.4819 18.132 29.482C17.8303 29.4823 17.5409 29.3627 17.3274 29.1496C17.1138 28.9364 16.9937 28.6472 16.9935 28.3455C16.9932 28.0438 17.1128 27.7544 17.3259 27.5409C17.5391 27.3274 17.8283 27.2073 18.13 27.207ZM22.13 27.207C22.2794 27.2069 22.4273 27.2362 22.5654 27.2932C22.7034 27.3503 22.8289 27.4339 22.9346 27.5395C23.0403 27.645 23.1242 27.7703 23.1815 27.9083C23.2388 28.0462 23.2683 28.1941 23.2685 28.3435C23.2686 28.4929 23.2393 28.6408 23.1823 28.7789C23.1252 28.917 23.0416 29.0424 22.936 29.1481C22.8305 29.2539 22.7052 29.3378 22.5672 29.395C22.4292 29.4523 22.2814 29.4819 22.132 29.482C21.8303 29.4823 21.5409 29.3627 21.3274 29.1496C21.1138 28.9364 20.9937 28.6472 20.9935 28.3455C20.9932 28.0438 21.1128 27.7544 21.3259 27.5409C21.5391 27.3274 21.8283 27.2073 22.13 27.207ZM26.13 27.207C26.2794 27.2069 26.4273 27.2362 26.5654 27.2932C26.7034 27.3503 26.8289 27.4339 26.9346 27.5395C27.0403 27.645 27.1242 27.7703 27.1815 27.9083C27.2388 28.0462 27.2683 28.1941 27.2685 28.3435C27.2686 28.4929 27.2393 28.6408 27.1823 28.7789C27.1252 28.917 27.0416 29.0424 26.936 29.1481C26.8305 29.2539 26.7052 29.3378 26.5672 29.395C26.4292 29.4523 26.2814 29.4819 26.132 29.482C25.8303 29.4823 25.5409 29.3627 25.3274 29.1496C25.1138 28.9364 24.9937 28.6472 24.9935 28.3455C24.9932 28.0438 25.1128 27.7544 25.3259 27.5409C25.5391 27.3274 25.8283 27.2073 26.13 27.207ZM30.13 27.207C30.2794 27.2069 30.4273 27.2362 30.5654 27.2932C30.7034 27.3503 30.8289 27.4339 30.9346 27.5395C31.0403 27.645 31.1242 27.7703 31.1815 27.9083C31.2388 28.0462 31.2683 28.1941 31.2685 28.3435C31.2686 28.4929 31.2393 28.6408 31.1823 28.7789C31.1252 28.917 31.0416 29.0424 30.936 29.1481C30.8305 29.2539 30.7052 29.3378 30.5672 29.395C30.4292 29.4523 30.2814 29.4819 30.132 29.482C29.8303 29.4823 29.5409 29.3627 29.3274 29.1496C29.1138 28.9364 28.9937 28.6472 28.9935 28.3455C28.9932 28.0438 29.1128 27.7544 29.3259 27.5409C29.5391 27.3274 29.8283 27.2073 30.13 27.207ZM13.795 32.98C13.7802 32.9801 13.7656 32.9832 13.752 32.989C13.7384 32.9948 13.726 33.0033 13.7157 33.0139C13.7054 33.0245 13.6973 33.037 13.6918 33.0508C13.6864 33.0645 13.6837 33.0792 13.684 33.094C13.684 33.155 13.734 33.206 13.794 33.207C13.857 33.207 13.907 33.157 13.908 33.094C13.9082 33.0791 13.9055 33.0642 13.8999 33.0503C13.8944 33.0364 13.8861 33.0238 13.8755 33.0132C13.865 33.0025 13.8525 32.9941 13.8386 32.9884C13.8248 32.9827 13.8099 32.9799 13.795 32.98ZM14.357 32.98C14.3269 32.9803 14.2982 32.9924 14.277 33.0138C14.2558 33.0351 14.244 33.064 14.244 33.094C14.244 33.155 14.296 33.207 14.357 33.207C14.419 33.207 14.468 33.155 14.469 33.094V33.074C14.4648 33.0475 14.4512 33.0235 14.4306 33.0063C14.4099 32.9892 14.3838 32.9802 14.357 32.981V32.98ZM14.92 32.98C14.905 32.9799 14.8902 32.9827 14.8763 32.9884C14.8625 32.9941 14.8499 33.0025 14.8394 33.0132C14.8289 33.0238 14.8206 33.0364 14.815 33.0503C14.8094 33.0642 14.8067 33.0791 14.807 33.094C14.807 33.156 14.857 33.208 14.92 33.207C14.981 33.207 15.03 33.155 15.031 33.094V33.074C15.0269 33.0477 15.0134 33.0238 14.9929 33.0067C14.9725 32.9896 14.9466 32.9805 14.92 32.981V32.98ZM15.482 32.98C15.467 32.9799 15.4522 32.9827 15.4383 32.9884C15.4245 32.9941 15.4119 33.0025 15.4014 33.0132C15.3909 33.0238 15.3826 33.0364 15.377 33.0503C15.3714 33.0642 15.3687 33.0791 15.369 33.094C15.369 33.156 15.42 33.208 15.482 33.207C15.544 33.207 15.593 33.155 15.594 33.094V33.086C15.5922 33.0575 15.5796 33.0308 15.5588 33.0113C15.538 32.9918 15.5105 32.981 15.482 32.981V32.98ZM16.045 32.98C16.03 32.9799 16.0152 32.9827 16.0013 32.9884C15.9875 32.9941 15.9749 33.0025 15.9644 33.0132C15.9539 33.0238 15.9456 33.0364 15.94 33.0503C15.9344 33.0642 15.9317 33.0791 15.932 33.094C15.932 33.156 15.982 33.208 16.045 33.207C16.106 33.207 16.155 33.155 16.156 33.094V33.086C16.1542 33.0577 16.1418 33.0311 16.1212 33.0116C16.1006 32.9922 16.0733 32.9812 16.045 32.981V32.98ZM16.607 32.98C16.592 32.9799 16.5772 32.9827 16.5633 32.9884C16.5495 32.9941 16.5369 33.0025 16.5264 33.0132C16.5159 33.0238 16.5076 33.0364 16.502 33.0503C16.4964 33.0642 16.4937 33.0791 16.494 33.094C16.494 33.156 16.545 33.208 16.607 33.207C16.669 33.207 16.718 33.155 16.719 33.094V33.086C16.7172 33.0575 16.7046 33.0308 16.6838 33.0113C16.663 32.9918 16.6355 32.981 16.607 32.981V32.98ZM17.168 32.98C17.1532 32.9801 17.1386 32.9832 17.125 32.989C17.1114 32.9948 17.099 33.0033 17.0887 33.0139C17.0784 33.0245 17.0703 33.037 17.0648 33.0508C17.0594 33.0645 17.0567 33.0792 17.057 33.094C17.057 33.155 17.107 33.207 17.168 33.207C17.1979 33.2068 17.2265 33.1948 17.2476 33.1736C17.2687 33.1525 17.2807 33.1239 17.281 33.094V33.086C17.2792 33.0574 17.2665 33.0305 17.2454 33.011C17.2244 32.9914 17.1967 32.9807 17.168 32.981V32.98ZM17.731 32.98C17.7161 32.98 17.7014 32.983 17.6876 32.9887C17.6739 32.9945 17.6615 33.0029 17.6511 33.0135C17.6406 33.0241 17.6324 33.0367 17.6269 33.0505C17.6214 33.0644 17.6187 33.0791 17.619 33.094C17.619 33.155 17.669 33.207 17.73 33.207C17.76 33.207 17.7889 33.1951 17.8102 33.174C17.8316 33.1528 17.8437 33.1241 17.844 33.094V33.086C17.8422 33.0572 17.8293 33.0302 17.8081 33.0106C17.7868 32.991 17.7589 32.9804 17.73 32.981L17.731 32.98ZM18.293 32.98C18.2782 32.9801 18.2636 32.9832 18.25 32.989C18.2364 32.9948 18.224 33.0033 18.2137 33.0139C18.2034 33.0245 18.1953 33.037 18.1898 33.0508C18.1844 33.0645 18.1817 33.0792 18.182 33.094C18.182 33.155 18.232 33.207 18.293 33.207C18.3229 33.2068 18.3515 33.1948 18.3726 33.1736C18.3937 33.1525 18.4057 33.1239 18.406 33.094V33.086C18.4042 33.0574 18.3915 33.0305 18.3704 33.011C18.3494 32.9914 18.3217 32.9807 18.293 32.981V32.98ZM18.856 32.98C18.8411 32.98 18.8264 32.983 18.8126 32.9887C18.7989 32.9945 18.7865 33.0029 18.7761 33.0135C18.7656 33.0241 18.7574 33.0367 18.7519 33.0505C18.7464 33.0644 18.7437 33.0791 18.744 33.094C18.744 33.155 18.794 33.207 18.855 33.207C18.917 33.207 18.966 33.155 18.967 33.094V33.074C18.9629 33.0477 18.9494 33.0238 18.9289 33.0067C18.9085 32.9896 18.8826 32.9805 18.856 32.981V32.98ZM19.418 32.98C19.403 32.9799 19.3882 32.9827 19.3743 32.9884C19.3605 32.9941 19.3479 33.0025 19.3374 33.0132C19.3269 33.0238 19.3186 33.0364 19.313 33.0503C19.3074 33.0642 19.3047 33.0791 19.305 33.094C19.305 33.156 19.356 33.208 19.418 33.207C19.479 33.207 19.528 33.155 19.529 33.094V33.086C19.5272 33.0577 19.5148 33.0311 19.4942 33.0116C19.4736 32.9922 19.4463 32.9812 19.418 32.981V32.98ZM19.981 32.98C19.9659 32.9797 19.951 32.9825 19.937 32.9881C19.9231 32.9938 19.9104 33.0022 19.8998 33.0128C19.8891 33.0234 19.8807 33.0361 19.8751 33.0501C19.8695 33.064 19.8667 33.079 19.867 33.094C19.867 33.156 19.919 33.208 19.98 33.207C20.042 33.207 20.091 33.155 20.092 33.094V33.086C20.0902 33.0577 20.0778 33.0311 20.0572 33.0116C20.0366 32.9922 20.0093 32.9812 19.981 32.981V32.98ZM20.543 32.98C20.528 32.9799 20.5132 32.9827 20.4993 32.9884C20.4855 32.9941 20.4729 33.0025 20.4624 33.0132C20.4519 33.0238 20.4436 33.0364 20.438 33.0503C20.4324 33.0642 20.4297 33.0791 20.43 33.094C20.43 33.156 20.481 33.208 20.543 33.207C20.604 33.207 20.653 33.155 20.654 33.094V33.086C20.6522 33.0577 20.6398 33.0311 20.6192 33.0116C20.5986 32.9922 20.5713 32.9812 20.543 32.981V32.98ZM21.106 32.98C21.0909 32.9797 21.076 32.9825 21.062 32.9881C21.0481 32.9938 21.0354 33.0022 21.0248 33.0128C21.0141 33.0234 21.0057 33.0361 21.0001 33.0501C20.9945 33.064 20.9917 33.079 20.992 33.094C20.992 33.156 21.044 33.208 21.105 33.207C21.167 33.207 21.216 33.155 21.217 33.094V33.086C21.2152 33.0577 21.2028 33.0311 21.1822 33.0116C21.1616 32.9922 21.1343 32.9812 21.106 32.981V32.98ZM21.666 32.98C21.6512 32.9801 21.6366 32.9832 21.623 32.989C21.6094 32.9948 21.597 33.0033 21.5867 33.0139C21.5764 33.0245 21.5683 33.037 21.5628 33.0508C21.5574 33.0645 21.5547 33.0792 21.555 33.094C21.555 33.155 21.605 33.207 21.666 33.207C21.6959 33.2068 21.7245 33.1948 21.7456 33.1736C21.7667 33.1525 21.7787 33.1239 21.779 33.094V33.086C21.7772 33.0574 21.7645 33.0305 21.7434 33.011C21.7224 32.9914 21.6947 32.9807 21.666 32.981V32.98ZM22.229 32.98C22.2141 32.98 22.1994 32.983 22.1856 32.9887C22.1719 32.9945 22.1595 33.0029 22.1491 33.0135C22.1386 33.0241 22.1304 33.0367 22.1249 33.0505C22.1194 33.0644 22.1167 33.0791 22.117 33.094C22.117 33.155 22.167 33.207 22.228 33.207C22.258 33.207 22.2869 33.1951 22.3082 33.174C22.3296 33.1528 22.3417 33.1241 22.342 33.094V33.086C22.3402 33.0574 22.3275 33.0305 22.3064 33.011C22.2854 32.9914 22.2577 32.9807 22.229 32.981V32.98ZM22.791 32.98C22.7762 32.9801 22.7616 32.9832 22.748 32.989C22.7344 32.9948 22.722 33.0033 22.7117 33.0139C22.7014 33.0245 22.6933 33.037 22.6878 33.0508C22.6824 33.0645 22.6797 33.0792 22.68 33.094C22.68 33.155 22.73 33.206 22.791 33.207C22.853 33.207 22.904 33.157 22.904 33.094C22.9042 33.0791 22.9015 33.0642 22.8959 33.0503C22.8904 33.0364 22.8821 33.0238 22.8715 33.0132C22.861 33.0025 22.8485 32.9941 22.8346 32.9884C22.8208 32.9827 22.8059 32.9799 22.791 32.98ZM23.354 32.98C23.3391 32.98 23.3244 32.983 23.3106 32.9887C23.2969 32.9945 23.2845 33.0029 23.2741 33.0135C23.2636 33.0241 23.2554 33.0367 23.2499 33.0505C23.2444 33.0644 23.2417 33.0791 23.242 33.094C23.242 33.155 23.292 33.207 23.353 33.207C23.3827 33.2065 23.411 33.1944 23.4319 33.1733C23.4529 33.1522 23.4647 33.1237 23.465 33.094V33.074C23.4607 33.0478 23.4471 33.024 23.4267 33.0069C23.4064 32.9899 23.3805 32.9807 23.354 32.981V32.98ZM23.916 32.98C23.901 32.9799 23.8862 32.9827 23.8723 32.9884C23.8585 32.9941 23.8459 33.0025 23.8354 33.0132C23.8249 33.0238 23.8166 33.0364 23.811 33.0503C23.8054 33.0642 23.8027 33.0791 23.803 33.094C23.803 33.156 23.854 33.208 23.916 33.207C23.977 33.207 24.026 33.155 24.027 33.094V33.074C24.0229 33.0477 24.0094 33.0238 23.9889 33.0067C23.9685 32.9896 23.9426 32.9805 23.916 32.981V32.98ZM24.479 32.98C24.4639 32.9797 24.449 32.9825 24.435 32.9881C24.4211 32.9938 24.4084 33.0022 24.3978 33.0128C24.3871 33.0234 24.3787 33.0361 24.3731 33.0501C24.3675 33.064 24.3647 33.079 24.365 33.094C24.365 33.156 24.417 33.208 24.479 33.207C24.539 33.207 24.589 33.155 24.589 33.094V33.086C24.5872 33.0579 24.5749 33.0315 24.5545 33.012C24.5341 32.9925 24.5072 32.9815 24.479 32.981V32.98ZM25.041 32.98C25.026 32.9799 25.0112 32.9827 24.9973 32.9884C24.9835 32.9941 24.9709 33.0025 24.9604 33.0132C24.9499 33.0238 24.9416 33.0364 24.936 33.0503C24.9304 33.0642 24.9277 33.0791 24.928 33.094C24.928 33.156 24.979 33.208 25.041 33.207C25.102 33.207 25.151 33.155 25.152 33.094V33.086C25.1502 33.0577 25.1378 33.0311 25.1172 33.0116C25.0966 32.9922 25.0693 32.9812 25.041 32.981V32.98ZM25.601 32.98C25.5863 32.9803 25.5718 32.9834 25.5583 32.9893C25.5448 32.9952 25.5326 33.0036 25.5224 33.0142C25.5121 33.0248 25.5041 33.0373 25.4987 33.051C25.4933 33.0647 25.4907 33.0793 25.491 33.094C25.491 33.155 25.541 33.207 25.601 33.207C25.631 33.207 25.6599 33.1951 25.6812 33.174C25.7026 33.1528 25.7147 33.1241 25.715 33.094V33.086C25.7132 33.0574 25.7005 33.0305 25.6794 33.011C25.6584 32.9914 25.6307 32.9807 25.602 32.981L25.601 32.98ZM26.164 32.98C26.1492 32.9801 26.1346 32.9832 26.121 32.989C26.1074 32.9948 26.095 33.0033 26.0847 33.0139C26.0744 33.0245 26.0663 33.037 26.0608 33.0508C26.0554 33.0645 26.0527 33.0792 26.053 33.094C26.053 33.155 26.103 33.207 26.164 33.207C26.1939 33.2068 26.2225 33.1948 26.2436 33.1736C26.2647 33.1525 26.2767 33.1239 26.277 33.094V33.086C26.2752 33.0574 26.2625 33.0305 26.2414 33.011C26.2204 32.9914 26.1927 32.9807 26.164 32.981V32.98ZM26.727 32.98C26.7121 32.98 26.6974 32.983 26.6836 32.9887C26.6699 32.9945 26.6575 33.0029 26.6471 33.0135C26.6366 33.0241 26.6284 33.0367 26.6229 33.0505C26.6174 33.0644 26.6147 33.0791 26.615 33.094C26.615 33.155 26.665 33.207 26.727 33.207C26.7569 33.2068 26.7855 33.1948 26.8066 33.1736C26.8277 33.1525 26.8397 33.1239 26.84 33.094V33.086C26.8382 33.0574 26.8255 33.0305 26.8044 33.011C26.7834 32.9914 26.7557 32.9807 26.727 32.981V32.98ZM27.289 32.98C27.2742 32.9801 27.2596 32.9832 27.246 32.989C27.2324 32.9948 27.22 33.0033 27.2097 33.0139C27.1994 33.0245 27.1913 33.037 27.1858 33.0508C27.1804 33.0645 27.1777 33.0792 27.178 33.094C27.178 33.155 27.228 33.206 27.289 33.207C27.351 33.207 27.402 33.157 27.402 33.094C27.4022 33.0791 27.3995 33.0642 27.3939 33.0503C27.3884 33.0364 27.3801 33.0238 27.3695 33.0132C27.359 33.0025 27.3464 32.9941 27.3326 32.9884C27.3188 32.9827 27.3039 32.9799 27.289 32.98ZM27.852 32.98C27.8371 32.98 27.8224 32.983 27.8086 32.9887C27.7949 32.9945 27.7825 33.0029 27.7721 33.0135C27.7616 33.0241 27.7534 33.0367 27.7479 33.0505C27.7424 33.0644 27.7397 33.0791 27.74 33.094C27.74 33.155 27.79 33.207 27.852 33.207C27.912 33.207 27.962 33.155 27.962 33.094C27.964 33.086 27.964 33.082 27.962 33.074C27.9579 33.0479 27.9445 33.0241 27.9243 33.007C27.9041 32.9899 27.8784 32.9807 27.852 32.981V32.98ZM28.414 32.98C28.399 32.9799 28.3842 32.9827 28.3703 32.9884C28.3565 32.9941 28.3439 33.0025 28.3334 33.0132C28.3229 33.0238 28.3146 33.0364 28.309 33.0503C28.3034 33.0642 28.3007 33.0791 28.301 33.094C28.301 33.156 28.352 33.208 28.414 33.207C28.475 33.207 28.524 33.155 28.525 33.094V33.086C28.5232 33.0579 28.5109 33.0315 28.4905 33.012C28.4701 32.9925 28.4432 32.9815 28.415 32.981L28.414 32.98ZM28.977 32.98C28.9619 32.9797 28.947 32.9825 28.933 32.9881C28.9191 32.9938 28.9064 33.0022 28.8958 33.0128C28.8851 33.0234 28.8767 33.0361 28.8711 33.0501C28.8655 33.064 28.8627 33.079 28.863 33.094C28.863 33.156 28.915 33.208 28.977 33.207C29.037 33.207 29.087 33.155 29.087 33.094V33.086C29.0852 33.0579 29.0729 33.0315 29.0525 33.012C29.0321 32.9925 29.0052 32.9815 28.977 32.981V32.98ZM29.539 32.98C29.524 32.9799 29.5092 32.9827 29.4953 32.9884C29.4815 32.9941 29.4689 33.0025 29.4584 33.0132C29.4479 33.0238 29.4396 33.0364 29.434 33.0503C29.4284 33.0642 29.4257 33.0791 29.426 33.094C29.426 33.156 29.477 33.208 29.539 33.207C29.6 33.207 29.649 33.155 29.65 33.094V33.086C29.6482 33.0579 29.6359 33.0315 29.6155 33.012C29.5951 32.9925 29.5682 32.9815 29.54 32.981L29.539 32.98ZM30.099 32.98C30.0843 32.9803 30.0698 32.9834 30.0563 32.9893C30.0428 32.9952 30.0306 33.0036 30.0204 33.0142C30.0101 33.0248 30.0021 33.0373 29.9967 33.051C29.9913 33.0647 29.9887 33.0793 29.989 33.094C29.989 33.155 30.038 33.207 30.099 33.207C30.129 33.207 30.1579 33.1951 30.1792 33.174C30.2006 33.1528 30.2127 33.1241 30.213 33.094V33.086C30.2112 33.0574 30.1985 33.0305 30.1774 33.011C30.1564 32.9914 30.1287 32.9807 30.1 32.981L30.099 32.98ZM30.662 32.98C30.6472 32.9801 30.6326 32.9832 30.619 32.989C30.6054 32.9948 30.593 33.0033 30.5827 33.0139C30.5724 33.0245 30.5643 33.037 30.5588 33.0508C30.5534 33.0645 30.5507 33.0792 30.551 33.094C30.551 33.155 30.601 33.207 30.662 33.207C30.6919 33.2068 30.7205 33.1948 30.7416 33.1736C30.7627 33.1525 30.7747 33.1239 30.775 33.094V33.086C30.7732 33.0574 30.7605 33.0305 30.7394 33.011C30.7184 32.9914 30.6907 32.9807 30.662 32.981V32.98ZM31.225 32.98C31.2101 32.98 31.1954 32.983 31.1817 32.9887C31.1679 32.9945 31.1555 33.0029 31.1451 33.0135C31.1346 33.0241 31.1264 33.0367 31.1209 33.0505C31.1154 33.0644 31.1127 33.0791 31.113 33.094C31.113 33.155 31.163 33.207 31.225 33.207C31.2549 33.2068 31.2835 33.1948 31.3046 33.1736C31.3257 33.1525 31.3377 33.1239 31.338 33.094V33.086C31.3362 33.0574 31.3235 33.0305 31.3024 33.011C31.2814 32.9914 31.2537 32.9807 31.225 32.981V32.98ZM31.787 32.98C31.7722 32.9801 31.7576 32.9832 31.744 32.989C31.7304 32.9948 31.718 33.0033 31.7077 33.0139C31.6974 33.0245 31.6893 33.037 31.6838 33.0508C31.6784 33.0645 31.6757 33.0792 31.676 33.094C31.676 33.155 31.726 33.207 31.787 33.207C31.848 33.207 31.897 33.155 31.898 33.094V33.074C31.8939 33.0479 31.8805 33.0241 31.8603 33.007C31.8401 32.9899 31.8144 32.9807 31.788 32.981L31.787 32.98ZM32.35 32.98C32.3349 32.9797 32.32 32.9825 32.306 32.9881C32.2921 32.9938 32.2794 33.0022 32.2688 33.0128C32.2581 33.0234 32.2497 33.0361 32.2441 33.0501C32.2385 33.064 32.2357 33.079 32.236 33.094C32.236 33.156 32.288 33.208 32.35 33.207C32.41 33.207 32.46 33.155 32.46 33.094C32.462 33.086 32.462 33.082 32.46 33.074C32.4559 33.0479 32.4425 33.0241 32.4223 33.007C32.4021 32.9899 32.3764 32.9807 32.35 32.981V32.98ZM32.912 32.98C32.897 32.9799 32.8822 32.9827 32.8683 32.9884C32.8545 32.9941 32.8419 33.0025 32.8314 33.0132C32.8209 33.0238 32.8126 33.0364 32.807 33.0503C32.8014 33.0642 32.7987 33.0791 32.799 33.094C32.799 33.156 32.85 33.208 32.912 33.207C32.973 33.207 33.022 33.155 33.023 33.094V33.086C33.0212 33.0579 33.0089 33.0315 32.9885 33.012C32.9681 32.9925 32.9412 32.9815 32.913 32.981L32.912 32.98ZM33.475 32.98C33.4599 32.9797 33.445 32.9825 33.431 32.9881C33.4171 32.9938 33.4044 33.0022 33.3938 33.0128C33.3831 33.0234 33.3747 33.0361 33.3691 33.0501C33.3635 33.064 33.3607 33.079 33.361 33.094C33.361 33.156 33.413 33.208 33.475 33.207C33.5043 33.206 33.5322 33.1937 33.5527 33.1726C33.5732 33.1516 33.5847 33.1234 33.585 33.094V33.086C33.5832 33.0579 33.5709 33.0315 33.5505 33.012C33.5301 32.9925 33.5032 32.9815 33.475 32.981V32.98ZM34.037 32.98C34.022 32.9799 34.0072 32.9827 33.9933 32.9884C33.9795 32.9941 33.9669 33.0025 33.9564 33.0132C33.9459 33.0238 33.9376 33.0364 33.932 33.0503C33.9264 33.0642 33.9237 33.0791 33.924 33.094C33.924 33.156 33.975 33.208 34.037 33.207C34.0665 33.2062 34.0946 33.194 34.1153 33.1729C34.136 33.1519 34.1477 33.1236 34.148 33.094V33.086C34.1462 33.0579 34.1339 33.0315 34.1135 33.012C34.0931 32.9925 34.0662 32.9815 34.038 32.981L34.037 32.98ZM34.597 32.98C34.5823 32.9803 34.5678 32.9834 34.5543 32.9893C34.5408 32.9952 34.5286 33.0036 34.5184 33.0142C34.5081 33.0248 34.5001 33.0373 34.4947 33.051C34.4893 33.0647 34.4867 33.0793 34.487 33.094C34.487 33.155 34.536 33.207 34.597 33.207C34.627 33.207 34.6559 33.1951 34.6772 33.174C34.6986 33.1528 34.7107 33.1241 34.711 33.094V33.086C34.7092 33.0574 34.6965 33.0305 34.6754 33.011C34.6544 32.9914 34.6267 32.9807 34.598 32.981L34.597 32.98ZM18.13 35.413C17.9166 35.4077 17.7042 35.4451 17.5055 35.5231C17.3068 35.6011 17.1257 35.718 16.9728 35.8671C16.82 36.0161 16.6986 36.1943 16.6156 36.391C16.5327 36.5877 16.49 36.799 16.49 37.0125C16.49 37.226 16.5327 37.4373 16.6156 37.634C16.6986 37.8308 16.82 38.0089 16.9728 38.1579C17.1257 38.307 17.3068 38.424 17.5055 38.5019C17.7042 38.5799 17.9166 38.6174 18.13 38.612C18.5473 38.6016 18.944 38.4285 19.2354 38.1297C19.5269 37.8308 19.69 37.4299 19.69 37.0125C19.69 36.5951 19.5269 36.1942 19.2354 35.8954C18.944 35.5965 18.5473 35.4235 18.13 35.413ZM22.13 35.413C21.9166 35.4077 21.7042 35.4451 21.5055 35.5231C21.3068 35.6011 21.1257 35.718 20.9728 35.8671C20.82 36.0161 20.6986 36.1943 20.6156 36.391C20.5327 36.5877 20.49 36.799 20.49 37.0125C20.49 37.226 20.5327 37.4373 20.6156 37.634C20.6986 37.8308 20.82 38.0089 20.9728 38.1579C21.1257 38.307 21.3068 38.424 21.5055 38.5019C21.7042 38.5799 21.9166 38.6174 22.13 38.612C22.5473 38.6016 22.944 38.4285 23.2354 38.1297C23.5269 37.8308 23.69 37.4299 23.69 37.0125C23.69 36.5951 23.5269 36.1942 23.2354 35.8954C22.944 35.5965 22.5473 35.4235 22.13 35.413ZM26.13 35.413C25.9166 35.4077 25.7042 35.4451 25.5055 35.5231C25.3068 35.6011 25.1257 35.718 24.9728 35.8671C24.82 36.0161 24.6986 36.1943 24.6156 36.391C24.5327 36.5877 24.49 36.799 24.49 37.0125C24.49 37.226 24.5327 37.4373 24.6156 37.634C24.6986 37.8308 24.82 38.0089 24.9728 38.1579C25.1257 38.307 25.3068 38.424 25.5055 38.5019C25.7042 38.5799 25.9166 38.6174 26.13 38.612C26.5473 38.6016 26.944 38.4285 27.2354 38.1297C27.5269 37.8308 27.69 37.4299 27.69 37.0125C27.69 36.5951 27.5269 36.1942 27.2354 35.8954C26.944 35.5965 26.5473 35.4235 26.13 35.413ZM30.13 35.413C29.9166 35.4077 29.7042 35.4451 29.5055 35.5231C29.3068 35.6011 29.1257 35.718 28.9728 35.8671C28.82 36.0161 28.6986 36.1943 28.6156 36.391C28.5327 36.5877 28.49 36.799 28.49 37.0125C28.49 37.226 28.5327 37.4373 28.6156 37.634C28.6986 37.8308 28.82 38.0089 28.9728 38.1579C29.1257 38.307 29.3068 38.424 29.5055 38.5019C29.7042 38.5799 29.9166 38.6174 30.13 38.612C30.5473 38.6016 30.944 38.4285 31.2354 38.1297C31.5269 37.8308 31.69 37.4299 31.69 37.0125C31.69 36.5951 31.5269 36.1942 31.2354 35.8954C30.944 35.5965 30.5473 35.4235 30.13 35.413ZM18.13 35.874C18.2794 35.8739 18.4273 35.9032 18.5654 35.9602C18.7034 36.0173 18.8289 36.1009 18.9346 36.2065C19.0403 36.312 19.1242 36.4373 19.1815 36.5753C19.2388 36.7133 19.2683 36.8611 19.2685 37.0105C19.2686 37.1599 19.2393 37.3078 19.1823 37.4459C19.1252 37.584 19.0416 37.7094 18.936 37.8151C18.8305 37.9209 18.7052 38.0048 18.5672 38.062C18.4292 38.1193 18.2814 38.1489 18.132 38.149C17.8303 38.1493 17.5409 38.0297 17.3274 37.8166C17.1138 37.6034 16.9937 37.3142 16.9935 37.0125C16.9932 36.7108 17.1128 36.4214 17.3259 36.2079C17.5391 35.9944 17.8283 35.8743 18.13 35.874ZM22.13 35.874C22.2794 35.8739 22.4273 35.9032 22.5654 35.9602C22.7034 36.0173 22.8289 36.1009 22.9346 36.2065C23.0403 36.312 23.1242 36.4373 23.1815 36.5753C23.2388 36.7133 23.2683 36.8611 23.2685 37.0105C23.2686 37.1599 23.2393 37.3078 23.1823 37.4459C23.1252 37.584 23.0416 37.7094 22.936 37.8151C22.8305 37.9209 22.7052 38.0048 22.5672 38.062C22.4292 38.1193 22.2814 38.1489 22.132 38.149C21.8303 38.1493 21.5409 38.0297 21.3274 37.8166C21.1138 37.6034 20.9937 37.3142 20.9935 37.0125C20.9932 36.7108 21.1128 36.4214 21.3259 36.2079C21.5391 35.9944 21.8283 35.8743 22.13 35.874ZM26.13 35.874C26.4317 35.8738 26.7211 35.9933 26.9346 36.2065C27.1481 36.4196 27.2682 36.7088 27.2685 37.0105C27.2687 37.3122 27.1492 37.6016 26.936 37.8151C26.7229 38.0287 26.4337 38.1488 26.132 38.149C25.9826 38.1491 25.8347 38.1199 25.6966 38.0628C25.5585 38.0058 25.4331 37.9221 25.3274 37.8166C25.2216 37.711 25.1377 37.5857 25.0804 37.4477C25.0232 37.3098 24.9936 37.1619 24.9935 37.0125C24.9933 36.8631 25.0226 36.7152 25.0797 36.5771C25.1367 36.4391 25.2204 36.3136 25.3259 36.2079C25.4315 36.1022 25.5568 36.0183 25.6948 35.961C25.8327 35.9037 25.9806 35.8741 26.13 35.874ZM30.13 35.874C30.2794 35.8739 30.4273 35.9032 30.5654 35.9602C30.7034 36.0173 30.8289 36.1009 30.9346 36.2065C31.0403 36.312 31.1242 36.4373 31.1815 36.5753C31.2388 36.7133 31.2683 36.8611 31.2685 37.0105C31.2686 37.1599 31.2393 37.3078 31.1823 37.4459C31.1252 37.584 31.0416 37.7094 30.936 37.8151C30.8305 37.9209 30.7052 38.0048 30.5672 38.062C30.4292 38.1193 30.2814 38.1489 30.132 38.149C29.8303 38.1493 29.5409 38.0297 29.3274 37.8166C29.1138 37.6034 28.9937 37.3142 28.9935 37.0125C28.9932 36.7108 29.1128 36.4214 29.3259 36.2079C29.5391 35.9944 29.8283 35.8743 30.13 35.874Z" fill="#333333"/>
</svg>
