<svg width="48" height="48" viewBox="0 0 48 48" fill="none" xmlns="http://www.w3.org/2000/svg">
<g clip-path="url(#clip0)">
<path fill-rule="evenodd" clip-rule="evenodd" d="M0.0449219 0.0450439V48.045H48.0449V0.0450439H0.0449219ZM24.043 4.02942C27.3107 4.01921 30.5789 4.02111 33.8965 4.06457C34.7659 4.06457 35.4648 4.76349 35.4648 5.63293V42.4943C35.4648 43.3637 34.7659 44.0646 33.8965 44.0646H14.1914C13.322 44.0646 12.625 43.3637 12.625 42.4943V5.63293C12.625 4.76349 13.322 4.06457 14.1914 4.06457C17.508 4.06457 20.7752 4.04076 24.043 4.02942ZM24.0371 4.56457C23.9782 4.56835 23.932 4.61656 23.9316 4.6759C23.931 4.73864 23.9822 4.78956 24.0449 4.78918C24.1069 4.78843 24.157 4.73789 24.1562 4.6759C24.1558 4.61467 24.1061 4.56533 24.0449 4.56457C24.0423 4.5645 24.0409 4.5645 24.0371 4.56457ZM24.0371 5.12707C23.9782 5.13085 23.932 5.17944 23.9316 5.2384C23.931 5.30114 23.9822 5.35206 24.0449 5.35168C24.1069 5.35093 24.157 5.30039 24.1562 5.2384C24.1558 5.17717 24.1061 5.12783 24.0449 5.12707C24.0423 5.127 24.0409 5.127 24.0371 5.12707ZM24.0273 5.68957C23.9729 5.69713 23.9313 5.74572 23.9316 5.8009C23.9322 5.86289 23.9826 5.91261 24.0449 5.91223C24.1062 5.91185 24.1559 5.86251 24.1562 5.8009C24.1558 5.73967 24.1061 5.69033 24.0449 5.68957C24.0373 5.68901 24.0368 5.68901 24.0293 5.68957H24.0273ZM29.2598 6.15051C28.3761 6.15055 27.6602 6.86651 27.6602 7.75012C27.6602 8.63377 28.3761 9.34973 29.2598 9.34973C30.1434 9.34973 30.8593 8.63377 30.8594 7.75012C30.8593 6.86651 30.1434 6.15055 29.2598 6.15051ZM18.8301 6.24036C17.9464 6.24039 17.2305 6.95635 17.2305 7.83997C17.2305 8.72362 17.9464 9.43957 18.8301 9.43957C19.7137 9.43957 20.4296 8.72362 20.4297 7.83997C20.4296 6.95635 19.7137 6.24039 18.8301 6.24036ZM24.0469 6.25207C23.9841 6.2517 23.9332 6.30262 23.9336 6.36536C23.9341 6.42734 23.9845 6.47744 24.0469 6.47668C24.1081 6.47593 24.1574 6.42696 24.1582 6.36536C24.1588 6.30337 24.1092 6.25283 24.0469 6.25207ZM24.0371 6.81457C23.9774 6.81835 23.9309 6.86776 23.9316 6.92786C23.9321 6.98984 23.9826 7.03956 24.0449 7.03918C24.1062 7.03843 24.1559 6.98908 24.1562 6.92786C24.157 6.86587 24.1069 6.81533 24.0449 6.81457C24.0423 6.81446 24.0409 6.81446 24.0371 6.81457ZM24.0371 7.37512C23.9774 7.3789 23.9309 7.42831 23.9316 7.4884C23.9322 7.55039 23.9826 7.60011 24.0449 7.59973C24.1062 7.59897 24.1559 7.55001 24.1562 7.4884C24.1569 7.42642 24.1069 7.37588 24.0449 7.37512C24.0423 7.37505 24.0409 7.37505 24.0371 7.37512ZM24.0371 7.93762C23.9774 7.9414 23.9309 7.99081 23.9316 8.0509C23.9322 8.11289 23.9826 8.16261 24.0449 8.16223C24.1062 8.16147 24.1559 8.11251 24.1562 8.0509C24.1569 7.98892 24.1069 7.93838 24.0449 7.93762C24.0423 7.93755 24.0409 7.93755 24.0371 7.93762ZM24.0371 8.50012C23.9782 8.50352 23.932 8.55249 23.9316 8.61145C23.9311 8.67419 23.9822 8.72511 24.0449 8.72473C24.1069 8.72435 24.157 8.67343 24.1562 8.61145C24.1558 8.55022 24.1061 8.50088 24.0449 8.50012C24.0423 8.50005 24.0409 8.50005 24.0371 8.50012ZM24.0371 9.06262C23.9782 9.06602 23.932 9.11461 23.9316 9.17395C23.9311 9.23669 23.9822 9.28761 24.0449 9.28723C24.1069 9.28648 24.157 9.23593 24.1562 9.17395C24.1558 9.1131 24.1061 9.06338 24.0449 9.06262C24.0423 9.06251 24.0409 9.06251 24.0371 9.06262ZM24.0254 9.62512C23.971 9.63268 23.9313 9.68322 23.9316 9.7384C23.9311 9.80114 23.9822 9.85206 24.0449 9.85168C24.1069 9.85093 24.157 9.80039 24.1562 9.7384C24.1558 9.67717 24.1061 9.62588 24.0449 9.62512C24.0373 9.62455 24.0368 9.62455 24.0293 9.62512H24.0254ZM24.0469 10.1857C23.9841 10.1853 23.9332 10.2382 23.9336 10.3009C23.9341 10.3629 23.9845 10.4107 24.0469 10.4103C24.1081 10.4099 24.1574 10.3625 24.1582 10.3009C24.1588 10.2389 24.1092 10.1864 24.0469 10.1857ZM24.0469 10.7482C23.9841 10.7478 23.9332 10.7987 23.9336 10.8614C23.9341 10.9234 23.9845 10.9739 24.0469 10.9728C24.1081 10.972 24.1574 10.9227 24.1582 10.8614C24.1588 10.7995 24.1092 10.7489 24.0469 10.7482ZM24.0371 11.3107C23.9774 11.3144 23.9309 11.3639 23.9316 11.4239C23.9321 11.4859 23.9826 11.538 24.0449 11.5372C24.1062 11.5369 24.1559 11.4852 24.1562 11.4239C24.1569 11.362 24.1069 11.3114 24.0449 11.3107C24.0423 11.3106 24.0409 11.3106 24.0371 11.3107ZM29.2598 11.5665C28.3761 11.5666 27.6602 12.2825 27.6602 13.1661C27.6602 14.0498 28.3761 14.7657 29.2598 14.7657C30.1434 14.7657 30.8593 14.0498 30.8594 13.1661C30.8593 12.2825 30.1434 11.5666 29.2598 11.5665ZM18.8301 11.6564C17.9464 11.6564 17.2305 12.3724 17.2305 13.256C17.2305 14.1396 17.9464 14.8556 18.8301 14.8556C19.7137 14.8556 20.4296 14.1396 20.4297 13.256C20.4296 12.3724 19.7137 11.6564 18.8301 11.6564ZM24.0371 11.8732C23.9774 11.8769 23.9309 11.9264 23.9316 11.9864C23.9321 12.0484 23.9826 12.1005 24.0449 12.0997C24.1062 12.099 24.1559 12.0477 24.1562 11.9864C24.1569 11.9245 24.1069 11.8735 24.0449 11.8732C24.0423 11.8731 24.0409 11.8731 24.0371 11.8732ZM24.0371 12.4357C23.9782 12.4391 23.932 12.4877 23.9316 12.547C23.931 12.6097 23.9822 12.6607 24.0449 12.6603C24.1069 12.6599 24.157 12.609 24.1562 12.547C24.1558 12.4861 24.1061 12.4364 24.0449 12.4357C24.0423 12.4356 24.0409 12.4356 24.0371 12.4357ZM24.0371 12.9982C23.9782 13.0016 23.932 13.0505 23.9316 13.1095C23.931 13.1722 23.9822 13.2232 24.0449 13.2228C24.1069 13.222 24.157 13.1715 24.1562 13.1095C24.1558 13.0483 24.1061 12.9989 24.0449 12.9982C24.0423 12.9981 24.0409 12.9981 24.0371 12.9982ZM24.0371 13.5607C23.9782 13.5644 23.932 13.613 23.9316 13.672C23.931 13.7347 23.9822 13.7857 24.0449 13.7853C24.1069 13.7849 24.157 13.734 24.1562 13.672C24.1558 13.6108 24.1061 13.561 24.0449 13.5607C24.0423 13.5606 24.0409 13.5606 24.0371 13.5607ZM24.0254 14.1232C23.971 14.1307 23.9313 14.1797 23.9316 14.2345C23.931 14.2972 23.9822 14.3482 24.0449 14.3478C24.1069 14.347 24.157 14.2965 24.1562 14.2345C24.1558 14.1733 24.1061 14.1235 24.0449 14.1232C24.0373 14.1226 24.0368 14.1226 24.0293 14.1232H24.0254ZM24.0254 14.6857C23.971 14.6936 23.9313 14.7418 23.9316 14.797C23.9321 14.8586 23.9826 14.9087 24.0449 14.9083C24.1062 14.9079 24.1559 14.8582 24.1562 14.797C24.1558 14.7358 24.1061 14.6864 24.0449 14.6857C24.0373 14.6851 24.0349 14.6851 24.0273 14.6857H24.0254ZM24.0469 15.2462C23.9841 15.2458 23.9332 15.2968 23.9336 15.3595C23.9341 15.4215 23.9845 15.4716 24.0469 15.4708C24.1081 15.4701 24.1574 15.4207 24.1582 15.3595C24.1588 15.2975 24.1092 15.247 24.0469 15.2462ZM24.0371 15.8087C23.9774 15.8125 23.9309 15.8619 23.9316 15.922C23.9321 15.984 23.9826 16.0341 24.0449 16.0333C24.1062 16.0326 24.1559 15.9832 24.1562 15.922C24.1569 15.86 24.1069 15.8095 24.0449 15.8087C24.0423 15.8086 24.0409 15.8086 24.0371 15.8087ZM24.0371 16.3712C23.9774 16.375 23.9309 16.4244 23.9316 16.4845C23.9321 16.5465 23.9826 16.5962 24.0449 16.5958C24.1062 16.5951 24.1559 16.5461 24.1562 16.4845C24.1569 16.4225 24.1069 16.372 24.0449 16.3712C24.0423 16.3711 24.0409 16.3711 24.0371 16.3712ZM24.0371 16.9337C23.9782 16.9371 23.932 16.9861 23.9316 17.045C23.931 17.1078 23.9822 17.1587 24.0449 17.1583C24.1069 17.1576 24.157 17.107 24.1562 17.045C24.1558 16.9842 24.1061 16.9337 24.0449 16.9337C24.0423 16.9336 24.0409 16.9336 24.0371 16.9337ZM29.2598 16.9786C28.3761 16.9787 27.6602 17.6946 27.6602 18.5782C27.6602 19.4619 28.3761 20.1779 29.2598 20.1779C30.1434 20.1779 30.8593 19.4619 30.8594 18.5782C30.8593 17.6946 30.1434 16.9787 29.2598 16.9786ZM18.8301 17.0685C17.9464 17.0685 17.2305 17.7845 17.2305 18.6681C17.2305 19.5517 17.9464 20.2677 18.8301 20.2677C19.7137 20.2677 20.4296 19.5517 20.4297 18.6681C20.4296 17.7845 19.7137 17.0685 18.8301 17.0685ZM24.0371 17.4962C23.9782 17.5 23.932 17.5486 23.9316 17.6075C23.931 17.6703 23.9822 17.7232 24.0449 17.7228C24.1069 17.722 24.157 17.6695 24.1562 17.6075C24.1558 17.5463 24.1061 17.4966 24.0449 17.4962C24.0423 17.4961 24.0409 17.4961 24.0371 17.4962ZM24.0371 18.0587C23.9782 18.0625 23.932 18.1111 23.9316 18.17C23.931 18.2328 23.9822 18.2857 24.0449 18.2853C24.1069 18.2845 24.157 18.232 24.1562 18.17C24.1558 18.1088 24.1061 18.0591 24.0449 18.0587C24.0423 18.0586 24.0409 18.0586 24.0371 18.0587ZM24.0254 18.6212C23.971 18.6292 23.9313 18.6774 23.9316 18.7325C23.931 18.7953 23.9822 18.8482 24.0449 18.8478C24.1069 18.847 24.157 18.7945 24.1562 18.7325C24.1558 18.6713 24.1061 18.622 24.0449 18.6212C24.0373 18.6206 24.0349 18.6206 24.0273 18.6212H24.0254ZM24.0469 19.1818C23.9841 19.1814 23.9332 19.2323 23.9336 19.295C23.9341 19.357 23.9845 19.4091 24.0469 19.4083C24.1081 19.4076 24.1574 19.3563 24.1582 19.295C24.1588 19.2331 24.1092 19.1825 24.0469 19.1818ZM24.0371 19.7443C23.9774 19.748 23.9309 19.7974 23.9316 19.8575C23.9321 19.9195 23.9826 19.9716 24.0449 19.9708C24.1062 19.9701 24.1559 19.9188 24.1562 19.8575C24.1569 19.7956 24.1069 19.7446 24.0449 19.7443C24.0423 19.7442 24.0409 19.7442 24.0371 19.7443ZM24.0371 20.3068C23.9774 20.3105 23.9309 20.3599 23.9316 20.42C23.9321 20.482 23.9826 20.5337 24.0449 20.5333C24.1062 20.5326 24.1559 20.4816 24.1562 20.42C24.1569 20.3581 24.1069 20.3075 24.0449 20.3068C24.0423 20.3067 24.0409 20.3067 24.0371 20.3068ZM24.0371 20.8693C23.9774 20.873 23.9309 20.9224 23.9316 20.9825C23.9321 21.0441 23.9826 21.0946 24.0449 21.0939C24.1062 21.0935 24.1559 21.0441 24.1562 20.9825C24.1569 20.9206 24.1069 20.87 24.0449 20.8693C24.0423 20.8692 24.0409 20.8692 24.0371 20.8693ZM24.0371 21.4318C23.9782 21.4355 23.932 21.4841 23.9316 21.5431C23.931 21.6058 23.9822 21.6587 24.0449 21.6583C24.1069 21.6576 24.157 21.6051 24.1562 21.5431C24.1558 21.4819 24.1061 21.4321 24.0449 21.4318C24.0423 21.4316 24.0409 21.4316 24.0371 21.4318ZM24.0371 21.9943C23.9782 21.998 23.932 22.0466 23.9316 22.1056C23.931 22.1683 23.9822 22.2212 24.0449 22.2208C24.1069 22.2201 24.157 22.1676 24.1562 22.1056C24.1558 22.0444 24.1061 21.9946 24.0449 21.9943C24.0423 21.9941 24.0409 21.9941 24.0371 21.9943ZM29.2598 22.3907C28.3761 22.3908 27.6602 23.1067 27.6602 23.9904C27.6602 24.874 28.3761 25.59 29.2598 25.59C30.1434 25.59 30.8593 24.874 30.8594 23.9904C30.8593 23.1067 30.1434 22.3908 29.2598 22.3907ZM18.8301 22.4806C17.9464 22.4806 17.2305 23.1966 17.2305 24.0802C17.2305 24.9639 17.9464 25.6798 18.8301 25.6798C19.7137 25.6798 20.4296 24.9639 20.4297 24.0802C20.4296 23.1966 19.7137 22.4806 18.8301 22.4806ZM24.0371 22.5587C23.9782 22.5625 23.932 22.6107 23.9316 22.67C23.931 22.7328 23.9822 22.7837 24.0449 22.7833C24.1069 22.7826 24.157 22.732 24.1562 22.67C24.1558 22.6088 24.1061 22.5595 24.0449 22.5587C24.0423 22.5586 24.0409 22.5586 24.0371 22.5587ZM24.0254 23.1212C23.971 23.1288 23.9313 23.1758 23.9316 23.2306C23.931 23.2933 23.9822 23.3442 24.0449 23.3439C24.1069 23.3435 24.157 23.2926 24.1562 23.2306C24.1558 23.1694 24.1061 23.122 24.0449 23.1212C24.0373 23.1206 24.0349 23.1206 24.0273 23.1212H24.0254ZM24.0254 23.6837C23.971 23.6913 23.9313 23.7379 23.9316 23.7931C23.9321 23.8551 23.9826 23.9071 24.0449 23.9064C24.1062 23.9056 24.1559 23.8543 24.1562 23.7931C24.1558 23.7322 24.1061 23.6845 24.0449 23.6837C24.0373 23.6831 24.0349 23.6831 24.0273 23.6837H24.0254ZM24.0371 24.2443C23.9774 24.248 23.9309 24.2974 23.9316 24.3575C23.9321 24.4195 23.9826 24.4692 24.0449 24.4689C24.1062 24.4681 24.1559 24.4191 24.1562 24.3575C24.1569 24.2956 24.1069 24.245 24.0449 24.2443C24.0423 24.2442 24.0409 24.2442 24.0371 24.2443ZM24.0371 24.8068C23.9774 24.8105 23.9309 24.8599 23.9316 24.92C23.9321 24.982 23.9826 25.0298 24.0449 25.0294C24.1062 25.029 24.1559 24.9816 24.1562 24.92C24.1569 24.8581 24.1069 24.8075 24.0449 24.8068C24.0423 24.8067 24.0409 24.8067 24.0371 24.8068ZM24.0371 25.3693C23.9774 25.373 23.9309 25.4224 23.9316 25.4825C23.9321 25.5441 23.9826 25.5927 24.0449 25.5919C24.1062 25.5915 24.1559 25.5441 24.1562 25.4825C24.1569 25.4206 24.1069 25.37 24.0449 25.3693C24.0423 25.3691 24.0409 25.3691 24.0371 25.3693ZM24.0371 25.9318C23.9782 25.9355 23.932 25.9837 23.9316 26.0431C23.931 26.1058 23.9822 26.1567 24.0449 26.1564C24.1069 26.1556 24.157 26.1051 24.1562 26.0431C24.1558 25.9819 24.1061 25.9325 24.0449 25.9318C24.0423 25.9316 24.0409 25.9316 24.0371 25.9318ZM24.0371 26.4943C23.9782 26.498 23.932 26.5462 23.9316 26.6056C23.931 26.6683 23.9822 26.7192 24.0449 26.7189C24.1069 26.7181 24.157 26.6676 24.1562 26.6056C24.1558 26.5444 24.1061 26.495 24.0449 26.4943C24.0423 26.4942 24.0409 26.4942 24.0371 26.4943ZM24.0371 27.0568C23.9782 27.0602 23.932 27.1072 23.9316 27.1661C23.931 27.2289 23.9822 27.2798 24.0449 27.2794C24.1069 27.279 24.157 27.2281 24.1562 27.1661C24.1558 27.1053 24.1061 27.0575 24.0449 27.0568C24.0423 27.0567 24.0409 27.0567 24.0371 27.0568ZM24.0254 27.6193C23.971 27.6268 23.9313 27.6738 23.9316 27.7286C23.9321 27.7906 23.9826 27.8427 24.0449 27.8419C24.1062 27.8412 24.1559 27.7899 24.1562 27.7286C24.1558 27.6674 24.1061 27.62 24.0449 27.6193C24.0373 27.6187 24.0349 27.6187 24.0273 27.6193H24.0254ZM29.2598 27.8048C28.3761 27.8048 27.6602 28.5208 27.6602 29.4044C27.6602 30.2881 28.3761 31.004 29.2598 31.004C30.1434 31.004 30.8593 30.2881 30.8594 29.4044C30.8593 28.5208 30.1434 27.8048 29.2598 27.8048ZM18.8301 27.8947C17.9464 27.8947 17.2305 28.6106 17.2305 29.4943C17.2305 30.3779 17.9464 31.0939 18.8301 31.0939C19.7137 31.0939 20.4296 30.3779 20.4297 29.4943C20.4296 28.6106 19.7137 27.8947 18.8301 27.8947ZM24.0469 28.1798C23.9841 28.1794 23.9332 28.2303 23.9336 28.2931C23.9341 28.3551 23.9845 28.4048 24.0469 28.4044C24.1081 28.4037 24.1574 28.3547 24.1582 28.2931C24.1588 28.2311 24.1092 28.1806 24.0469 28.1798ZM24.0371 28.7423C23.9774 28.7461 23.9309 28.7955 23.9316 28.8556C23.9321 28.9172 23.9826 28.9657 24.0449 28.965C24.1062 28.9646 24.1559 28.9172 24.1562 28.8556C24.1569 28.7936 24.1069 28.7431 24.0449 28.7423C24.0423 28.7422 24.0409 28.7422 24.0371 28.7423ZM24.0371 29.3048C23.9774 29.3086 23.9309 29.358 23.9316 29.4181C23.9321 29.4801 23.9826 29.5278 24.0449 29.5275C24.1062 29.5271 24.1559 29.4797 24.1562 29.4181C24.1569 29.3561 24.1069 29.3056 24.0449 29.3048C24.0423 29.3047 24.0409 29.3047 24.0371 29.3048ZM24.0371 29.8673C23.9774 29.8711 23.9309 29.9205 23.9316 29.9806C23.9321 30.0422 23.9826 30.0911 24.0449 30.09C24.1062 30.0896 24.1559 30.0418 24.1562 29.9806C24.1569 29.9186 24.1069 29.8681 24.0449 29.8673C24.0423 29.8672 24.0409 29.8672 24.0371 29.8673ZM24.0371 30.4279C23.9782 30.4316 23.932 30.4818 23.9316 30.5411C23.931 30.6039 23.9822 30.6548 24.0449 30.6544C24.1069 30.6537 24.157 30.6031 24.1562 30.5411C24.1558 30.4799 24.1061 30.4286 24.0449 30.4279C24.0423 30.4277 24.0409 30.4277 24.0371 30.4279ZM24.0371 30.9904C23.9782 30.9941 23.932 31.0427 23.9316 31.1017C23.931 31.1644 23.9822 31.2153 24.0449 31.215C24.1069 31.2142 24.157 31.1637 24.1562 31.1017C24.1558 31.0405 24.1061 30.9911 24.0449 30.9904C24.0423 30.9903 24.0409 30.9903 24.0371 30.9904ZM24.0254 31.5529C23.971 31.5608 23.9313 31.609 23.9316 31.6642C23.931 31.7269 23.9822 31.7778 24.0449 31.7775C24.1069 31.7767 24.157 31.7262 24.1562 31.6642C24.1558 31.603 24.1061 31.5536 24.0449 31.5529C24.0373 31.5523 24.0349 31.5523 24.0273 31.5529H24.0254ZM24.0254 32.1154C23.971 32.1229 23.9313 32.1699 23.9316 32.2247C23.9321 32.2867 23.9826 32.3364 24.0449 32.3361C24.1062 32.3353 24.1559 32.2863 24.1562 32.2247C24.1558 32.1635 24.1061 32.1157 24.0449 32.1154C24.0373 32.1148 24.0349 32.1148 24.0273 32.1154H24.0254ZM24.0469 32.6759C23.9841 32.6755 23.9332 32.7284 23.9336 32.7911C23.9341 32.8531 23.9845 32.8989 24.0469 32.8986C24.1081 32.8982 24.1574 32.8527 24.1582 32.7911C24.1588 32.7292 24.1092 32.6767 24.0469 32.6759ZM29.2598 33.2169C28.3761 33.217 27.6602 33.9329 27.6602 34.8165C27.6602 35.7002 28.3761 36.4161 29.2598 36.4161C30.1434 36.4161 30.8593 35.7002 30.8594 34.8165C30.8593 33.9329 30.1434 33.217 29.2598 33.2169ZM24.0371 33.2384C23.9774 33.2422 23.9309 33.2916 23.9316 33.3517C23.9321 33.4137 23.9826 33.4638 24.0449 33.463C24.1062 33.4623 24.1559 33.4133 24.1562 33.3517C24.1569 33.2897 24.1069 33.2392 24.0449 33.2384C24.0423 33.2384 24.0409 33.2384 24.0371 33.2384ZM18.8301 33.3068C17.9464 33.3068 17.2305 34.0228 17.2305 34.9064C17.2305 35.79 17.9464 36.506 18.8301 36.506C19.7137 36.506 20.4296 35.79 20.4297 34.9064C20.4296 34.0228 19.7137 33.3068 18.8301 33.3068ZM24.0371 33.8009C23.9774 33.8047 23.9309 33.8541 23.9316 33.9142C23.9321 33.9758 23.9826 34.0259 24.0449 34.0255C24.1062 34.0251 24.1559 33.9758 24.1562 33.9142C24.1569 33.8522 24.1069 33.8017 24.0449 33.8009C24.0423 33.8008 24.0409 33.8008 24.0371 33.8009ZM24.0371 34.3634C23.9782 34.3672 23.932 34.4154 23.9316 34.4747C23.931 34.5375 23.9822 34.5884 24.0449 34.588C24.1069 34.5873 24.157 34.5367 24.1562 34.4747C24.1558 34.4135 24.1061 34.3642 24.0449 34.3634C24.0423 34.3633 24.0409 34.3633 24.0371 34.3634ZM24.0371 34.9259C23.9782 34.9297 23.932 34.9783 23.9316 35.0372C23.931 35.1 23.9822 35.1509 24.0449 35.1505C24.1069 35.1498 24.157 35.0992 24.1562 35.0372C24.1558 34.976 24.1061 34.9267 24.0449 34.9259C24.0423 34.9258 24.0409 34.9258 24.0371 34.9259ZM24.0371 35.4884C23.9782 35.4922 23.932 35.5408 23.9316 35.5997C23.931 35.6625 23.9822 35.7134 24.0449 35.713C24.1069 35.7123 24.157 35.6617 24.1562 35.5997C24.1558 35.5385 24.1061 35.4892 24.0449 35.4884C24.0423 35.4883 24.0409 35.4883 24.0371 35.4884ZM24.0371 36.0509C23.9782 36.0543 23.932 36.1029 23.9316 36.1622C23.931 36.225 23.9822 36.2759 24.0449 36.2755C24.1069 36.2751 24.157 36.2242 24.1562 36.1622C24.1558 36.1014 24.1061 36.0517 24.0449 36.0509C24.0423 36.0508 24.0409 36.0508 24.0371 36.0509ZM24.0254 36.6134C23.971 36.621 23.9313 36.6695 23.9316 36.7247C23.9321 36.7867 23.9826 36.8372 24.0449 36.8361C24.1062 36.8353 24.1559 36.786 24.1562 36.7247C24.1558 36.6635 24.1061 36.6142 24.0449 36.6134C24.0373 36.6128 24.0349 36.6128 24.0273 36.6134H24.0254ZM24.0371 37.1739C23.9774 37.1777 23.9309 37.2271 23.9316 37.2872C23.9321 37.3492 23.9826 37.3989 24.0449 37.3986C24.1062 37.3978 24.1559 37.3488 24.1562 37.2872C24.1569 37.2252 24.1069 37.1747 24.0449 37.1739C24.0423 37.1739 24.0409 37.1739 24.0371 37.1739ZM24.0371 37.7364C23.9774 37.7402 23.9309 37.7896 23.9316 37.8497C23.9321 37.9113 23.9826 37.9618 24.0449 37.9611C24.1062 37.9607 24.1559 37.9113 24.1562 37.8497C24.1569 37.7877 24.1069 37.7372 24.0449 37.7364C24.0423 37.7363 24.0409 37.7363 24.0371 37.7364ZM24.0371 38.2989C23.9774 38.3027 23.9309 38.3521 23.9316 38.4122C23.9321 38.4738 23.9826 38.5239 24.0449 38.5236C24.1062 38.5232 24.1559 38.4738 24.1562 38.4122C24.1569 38.3502 24.1069 38.2997 24.0449 38.2989C24.0423 38.2988 24.0409 38.2988 24.0371 38.2989ZM29.2598 38.629C28.3761 38.6291 27.6602 39.345 27.6602 40.2286C27.6602 41.1123 28.3761 41.8282 29.2598 41.8282C30.1434 41.8282 30.8593 41.1123 30.8594 40.2286C30.8593 39.345 30.1434 38.6291 29.2598 38.629ZM18.8301 38.7189C17.9464 38.7189 17.2305 39.4349 17.2305 40.3185C17.2305 41.2021 17.9464 41.9181 18.8301 41.9181C19.7137 41.9181 20.4296 41.2021 20.4297 40.3185C20.4296 39.4349 19.7137 38.7189 18.8301 38.7189ZM24.0371 38.8614C23.9782 38.8652 23.932 38.9134 23.9316 38.9728C23.931 39.0355 23.9822 39.0864 24.0449 39.0861C24.1069 39.0853 24.157 39.0348 24.1562 38.9728C24.1558 38.9115 24.1061 38.8622 24.0449 38.8614C24.0423 38.8614 24.0409 38.8614 24.0371 38.8614ZM24.0371 39.4239C23.9782 39.4277 23.932 39.4763 23.9316 39.5353C23.931 39.598 23.9822 39.6489 24.0449 39.6486C24.1069 39.6478 24.157 39.5973 24.1562 39.5353C24.1558 39.474 24.1061 39.4247 24.0449 39.4239C24.0423 39.4239 24.0409 39.4239 24.0371 39.4239ZM24.0371 39.9864C23.9782 39.9899 23.932 40.0388 23.9316 40.0978C23.931 40.1605 23.9822 40.2114 24.0449 40.2111C24.1069 40.2107 24.157 40.1598 24.1562 40.0978C24.1558 40.0365 24.1061 39.9872 24.0449 39.9864C24.0423 39.9864 24.0409 39.9864 24.0371 39.9864ZM24.0254 40.5489C23.971 40.5565 23.9313 40.6051 23.9316 40.6603C23.931 40.723 23.9822 40.7739 24.0449 40.7736C24.1069 40.7728 24.157 40.7223 24.1562 40.6603C24.1558 40.5994 24.1061 40.5497 24.0449 40.5489C24.0373 40.5484 24.0349 40.5484 24.0273 40.5489H24.0254ZM24.0254 41.1114C23.971 41.119 23.9313 41.1676 23.9316 41.2228C23.9321 41.2848 23.9826 41.3349 24.0449 41.3341C24.1062 41.3333 24.1559 41.2844 24.1562 41.2228C24.1558 41.1615 24.1061 41.1122 24.0449 41.1114C24.0373 41.1109 24.0349 41.1109 24.0273 41.1114H24.0254ZM24.0469 41.672C23.9841 41.6716 23.9332 41.7225 23.9336 41.7853C23.9341 41.8469 23.9845 41.897 24.0469 41.8966C24.1081 41.8962 24.1574 41.8469 24.1582 41.7853C24.1588 41.7233 24.1092 41.6727 24.0469 41.672ZM24.0371 42.2306C23.9774 42.2344 23.9309 42.2838 23.9316 42.3439C23.9321 42.4059 23.9826 42.4556 24.0449 42.4552C24.1062 42.4548 24.1559 42.4055 24.1562 42.3439C24.1569 42.2819 24.1069 42.2313 24.0449 42.2306C24.0423 42.2305 24.0409 42.2305 24.0371 42.2306Z" fill="#333333"/>
</g>
<defs>
<clipPath id="clip0">
<rect width="48" height="48" fill="white"/>
</clipPath>
</defs>
</svg>
