<svg width="48" height="48" viewBox="0 0 48 48" fill="none" xmlns="http://www.w3.org/2000/svg">
<g clip-path="url(#clip0)">
<path fill-rule="evenodd" clip-rule="evenodd" d="M-0.0878906 -0.791016V48.1777H48.4375V-0.791016H-0.0878906ZM14.3223 3.69336H34.0254C34.8948 3.69336 35.5957 4.39228 35.5957 5.26172V42.123C35.5957 42.9925 34.8948 43.6934 34.0254 43.6934H14.3223C13.4528 43.6934 12.752 42.9925 12.752 42.123V5.26172C12.752 4.39228 13.4528 3.69336 14.3223 3.69336ZM19.9824 12.373V12.375C19.7402 12.3784 19.4995 12.4758 19.3164 12.6641L17.5078 14.5215C17.1417 14.8975 17.1491 15.4951 17.5254 15.8613C17.9016 16.2282 18.4991 16.2205 18.8652 15.8418L20.6738 13.9824C21.04 13.606 21.0329 13.0088 20.6562 12.6426C20.4681 12.4596 20.2246 12.3696 19.9824 12.373ZM25.0645 12.373V12.375C24.8223 12.3784 24.5815 12.4758 24.3984 12.6641L22.5898 14.5215C22.2237 14.8975 22.2328 15.4951 22.6094 15.8613C22.9856 16.2282 23.5831 16.2205 23.9492 15.8418L25.7578 13.9824C26.1239 13.606 26.1148 13.0088 25.7383 12.6426C25.5501 12.4596 25.3067 12.3696 25.0645 12.373ZM30.1484 12.373V12.375C29.9062 12.3784 29.6655 12.4758 29.4824 12.6641L27.6738 14.5215C27.3077 14.8975 27.3148 15.4951 27.6914 15.8613C28.0677 16.2282 28.6651 16.2205 29.0312 15.8418L30.8398 13.9824C31.206 13.606 31.1989 13.0088 30.8223 12.6426C30.6341 12.4596 30.3906 12.3696 30.1484 12.373ZM13.4902 23.5801V23.582C13.4282 23.5828 13.3783 23.6329 13.3789 23.6953C13.3794 23.7565 13.4289 23.8063 13.4902 23.8066C13.5523 23.807 13.603 23.7573 13.6035 23.6953C13.6036 23.6915 13.6036 23.6913 13.6035 23.6875V23.6855C13.5999 23.6258 13.5501 23.5793 13.4902 23.5801ZM14.0527 23.5801V23.582C13.9907 23.5828 13.9408 23.6329 13.9414 23.6953C13.9419 23.7565 13.9914 23.8063 14.0527 23.8066C14.1148 23.807 14.1655 23.7573 14.166 23.6953C14.1661 23.6915 14.1661 23.6913 14.166 23.6875V23.6855C14.1624 23.6258 14.1126 23.5793 14.0527 23.5801ZM16.3027 23.5801V23.582C16.2399 23.5817 16.1888 23.6326 16.1895 23.6953C16.1899 23.7573 16.2407 23.8074 16.3027 23.8066C16.364 23.8059 16.4136 23.7565 16.4141 23.6953C16.4142 23.6915 16.4142 23.6913 16.4141 23.6875V23.6855C16.4105 23.6266 16.3618 23.5805 16.3027 23.5801ZM16.8652 23.5801V23.582C16.8024 23.5817 16.7513 23.6326 16.752 23.6953C16.7524 23.7573 16.8032 23.8074 16.8652 23.8066C16.9265 23.8059 16.9761 23.7565 16.9766 23.6953C16.9766 23.6915 16.9766 23.6913 16.9766 23.6875V23.6855C16.973 23.6266 16.9243 23.5805 16.8652 23.5801ZM17.4258 23.5801V23.582C17.3637 23.5828 17.3139 23.6329 17.3145 23.6953C17.3149 23.7565 17.3645 23.8063 17.4258 23.8066C17.4878 23.807 17.5386 23.7573 17.5391 23.6953C17.5391 23.6915 17.5391 23.6913 17.5391 23.6875V23.6855C17.5355 23.6258 17.4856 23.5793 17.4258 23.5801ZM17.9883 23.5801V23.582C17.9262 23.5828 17.8764 23.6329 17.877 23.6953C17.8774 23.7565 17.927 23.8063 17.9883 23.8066C18.0503 23.807 18.1011 23.7573 18.1016 23.6953C18.1017 23.6915 18.1017 23.6913 18.1016 23.6875V23.6855C18.098 23.6258 18.0481 23.5793 17.9883 23.5801ZM18.5508 23.5801V23.582C18.4887 23.5828 18.4389 23.6329 18.4395 23.6953C18.4399 23.7565 18.4895 23.8063 18.5508 23.8066C18.6128 23.807 18.6636 23.7573 18.6641 23.6953C18.6642 23.6915 18.6642 23.6913 18.6641 23.6875V23.6855C18.6605 23.6258 18.6106 23.5793 18.5508 23.5801ZM20.2383 23.5801V23.582C20.1755 23.5817 20.1244 23.6326 20.125 23.6953C20.1255 23.7573 20.1762 23.8074 20.2383 23.8066C20.2996 23.8059 20.3491 23.7565 20.3496 23.6953C20.3497 23.6915 20.3497 23.6913 20.3496 23.6875V23.6855C20.3461 23.6266 20.2974 23.5805 20.2383 23.5801ZM20.8008 23.5801V23.582C20.738 23.5817 20.6869 23.6326 20.6875 23.6953C20.688 23.7573 20.7387 23.8074 20.8008 23.8066C20.8621 23.8059 20.9116 23.7565 20.9121 23.6953C20.9122 23.6915 20.9122 23.6913 20.9121 23.6875V23.6855C20.9086 23.6266 20.8599 23.5805 20.8008 23.5801ZM21.3633 23.5801V23.582C21.3005 23.5817 21.2494 23.6326 21.25 23.6953C21.2505 23.7573 21.3012 23.8074 21.3633 23.8066C21.4246 23.8059 21.4741 23.7565 21.4746 23.6953C21.4747 23.6915 21.4747 23.6913 21.4746 23.6875V23.6855C21.4711 23.6266 21.4224 23.5805 21.3633 23.5801ZM21.9238 23.5801V23.582C21.8618 23.5828 21.8119 23.6329 21.8125 23.6953C21.813 23.7565 21.8625 23.8063 21.9238 23.8066C21.9859 23.807 22.0366 23.7573 22.0371 23.6953C22.0372 23.6915 22.0372 23.6913 22.0371 23.6875V23.6855C22.0335 23.6258 21.9837 23.5793 21.9238 23.5801ZM22.4863 23.5801V23.582C22.4243 23.5828 22.3744 23.6329 22.375 23.6953C22.3755 23.7565 22.425 23.8063 22.4863 23.8066C22.5484 23.807 22.5991 23.7573 22.5996 23.6953C22.5997 23.6915 22.5997 23.6913 22.5996 23.6875V23.6855C22.596 23.6258 22.5462 23.5793 22.4863 23.5801ZM23.0488 23.5801V23.582C22.9868 23.5828 22.9369 23.6329 22.9375 23.6953C22.938 23.7565 22.9875 23.8063 23.0488 23.8066C23.1109 23.807 23.1616 23.7573 23.1621 23.6953C23.1622 23.6915 23.1622 23.6913 23.1621 23.6875V23.6855C23.1585 23.6258 23.1087 23.5793 23.0488 23.5801ZM24.7363 23.5801V23.582C24.6735 23.5817 24.6224 23.6326 24.623 23.6953C24.6235 23.7573 24.6743 23.8074 24.7363 23.8066C24.7976 23.8059 24.8472 23.7565 24.8477 23.6953C24.8477 23.6915 24.8477 23.6913 24.8477 23.6875V23.6855C24.8441 23.6266 24.7954 23.5805 24.7363 23.5801ZM25.2988 23.5801V23.582C25.236 23.5817 25.1849 23.6326 25.1855 23.6953C25.186 23.7573 25.2368 23.8074 25.2988 23.8066C25.3601 23.8059 25.4097 23.7565 25.4102 23.6953C25.4102 23.6915 25.4102 23.6913 25.4102 23.6875V23.6855C25.4066 23.6266 25.3579 23.5805 25.2988 23.5801ZM25.8613 23.5801V23.582C25.7985 23.5817 25.7474 23.6326 25.748 23.6953C25.7485 23.7573 25.7993 23.8074 25.8613 23.8066C25.9226 23.8059 25.9722 23.7565 25.9727 23.6953C25.9727 23.6915 25.9727 23.6913 25.9727 23.6875V23.6855C25.9691 23.6266 25.9204 23.5805 25.8613 23.5801ZM26.4219 23.5801V23.582C26.3598 23.5828 26.31 23.6329 26.3105 23.6953C26.311 23.7565 26.3606 23.8063 26.4219 23.8066C26.4839 23.807 26.5347 23.7573 26.5352 23.6953C26.5352 23.6915 26.5352 23.6913 26.5352 23.6875V23.6855C26.5316 23.6258 26.4817 23.5793 26.4219 23.5801ZM26.9844 23.5801V23.582C26.9223 23.5828 26.8725 23.6329 26.873 23.6953C26.8735 23.7565 26.9231 23.8063 26.9844 23.8066C27.0464 23.807 27.0972 23.7573 27.0977 23.6953C27.0977 23.6915 27.0977 23.6913 27.0977 23.6875V23.6855C27.0941 23.6258 27.0442 23.5793 26.9844 23.5801ZM27.5469 23.5801V23.582C27.4848 23.5828 27.435 23.6329 27.4355 23.6953C27.436 23.7565 27.4856 23.8063 27.5469 23.8066C27.6089 23.807 27.6597 23.7573 27.6602 23.6953C27.6602 23.6915 27.6602 23.6913 27.6602 23.6875V23.6855C27.6566 23.6258 27.6067 23.5793 27.5469 23.5801ZM29.2344 23.5801V23.582C29.1716 23.5817 29.1205 23.6326 29.1211 23.6953C29.1216 23.7573 29.1723 23.8074 29.2344 23.8066C29.2957 23.8059 29.3452 23.7565 29.3457 23.6953C29.3458 23.6915 29.3458 23.6913 29.3457 23.6875V23.6855C29.3421 23.6266 29.2935 23.5805 29.2344 23.5801ZM29.7969 23.5801V23.582C29.7341 23.5817 29.683 23.6326 29.6836 23.6953C29.6841 23.7573 29.7348 23.8074 29.7969 23.8066C29.8582 23.8059 29.9077 23.7565 29.9082 23.6953C29.9083 23.6915 29.9083 23.6913 29.9082 23.6875V23.6855C29.9046 23.6266 29.856 23.5805 29.7969 23.5801ZM30.3594 23.5801V23.582C30.2966 23.5817 30.2455 23.6326 30.2461 23.6953C30.2466 23.7573 30.2973 23.8074 30.3594 23.8066C30.4207 23.8059 30.4702 23.7565 30.4707 23.6953C30.4708 23.6915 30.4708 23.6913 30.4707 23.6875V23.6855C30.4671 23.6266 30.4185 23.5805 30.3594 23.5801ZM30.9199 23.5801V23.582C30.8579 23.5828 30.808 23.6329 30.8086 23.6953C30.8091 23.7565 30.8586 23.8063 30.9199 23.8066C30.982 23.807 31.0327 23.7573 31.0332 23.6953C31.0333 23.6915 31.0333 23.6913 31.0332 23.6875V23.6855C31.0296 23.6258 30.9798 23.5793 30.9199 23.5801ZM31.4824 23.5801V23.582C31.4204 23.5828 31.3705 23.6329 31.3711 23.6953C31.3716 23.7565 31.4211 23.8063 31.4824 23.8066C31.5445 23.807 31.5952 23.7573 31.5957 23.6953C31.5958 23.6915 31.5958 23.6913 31.5957 23.6875V23.6855C31.5921 23.6258 31.5423 23.5793 31.4824 23.5801ZM33.7324 23.5801V23.582C33.6696 23.5817 33.6185 23.6326 33.6191 23.6953C33.6196 23.7573 33.6704 23.8074 33.7324 23.8066C33.7937 23.8059 33.8433 23.7565 33.8437 23.6953C33.8438 23.6915 33.8438 23.6913 33.8437 23.6875V23.6855C33.8402 23.6266 33.7915 23.5805 33.7324 23.5801ZM34.2949 23.5801V23.582C34.2321 23.5817 34.181 23.6326 34.1816 23.6953C34.1821 23.7573 34.2329 23.8074 34.2949 23.8066C34.3562 23.8059 34.4058 23.7565 34.4062 23.6953C34.4063 23.6915 34.4063 23.6913 34.4062 23.6875V23.6855C34.4027 23.6266 34.354 23.5805 34.2949 23.5801ZM34.8574 23.5801V23.582C34.7946 23.5817 34.7435 23.6326 34.7441 23.6953C34.7446 23.7573 34.7954 23.8074 34.8574 23.8066C34.9187 23.8059 34.9683 23.7565 34.9687 23.6953C34.9688 23.6915 34.9688 23.6913 34.9687 23.6875V23.6855C34.9652 23.6266 34.9165 23.5805 34.8574 23.5801ZM14.6152 23.582C14.5532 23.5828 14.5033 23.6329 14.5039 23.6953C14.5044 23.7565 14.5539 23.8059 14.6152 23.8066C14.6773 23.807 14.728 23.7577 14.7285 23.6953C14.7291 23.6326 14.678 23.5817 14.6152 23.582ZM19.1133 23.582C19.0512 23.5828 19.0014 23.6329 19.002 23.6953C19.0024 23.7565 19.052 23.8059 19.1133 23.8066C19.1753 23.807 19.2261 23.7577 19.2266 23.6953C19.2272 23.6326 19.1761 23.5817 19.1133 23.582ZM28.1094 23.582C28.0473 23.5828 27.9975 23.6329 27.998 23.6953C27.9985 23.7565 28.0481 23.8059 28.1094 23.8066C28.1714 23.807 28.2222 23.7577 28.2227 23.6953C28.2233 23.6326 28.1722 23.5817 28.1094 23.582ZM32.0449 23.582C31.9829 23.5828 31.933 23.6329 31.9336 23.6953C31.9341 23.7565 31.9836 23.8059 32.0449 23.8066C32.107 23.807 32.1577 23.7577 32.1582 23.6953C32.1588 23.6326 32.1077 23.5817 32.0449 23.582ZM15.1777 23.584C15.1157 23.5847 15.0658 23.6349 15.0664 23.6973C15.0669 23.7585 15.1164 23.8063 15.1777 23.8066C15.239 23.8063 15.2886 23.7585 15.2891 23.6973C15.2896 23.6897 15.2896 23.6853 15.2891 23.6777C15.28 23.6233 15.2328 23.5836 15.1777 23.584ZM15.7402 23.584C15.6774 23.5836 15.6263 23.6345 15.627 23.6973C15.6274 23.7592 15.6782 23.8074 15.7402 23.8066C15.8015 23.8063 15.8511 23.7585 15.8516 23.6973C15.8521 23.6897 15.8521 23.6853 15.8516 23.6777C15.8425 23.6233 15.7953 23.5836 15.7402 23.584ZM19.6758 23.584C19.6137 23.5847 19.5639 23.6349 19.5645 23.6973C19.5649 23.7585 19.6145 23.8063 19.6758 23.8066C19.7371 23.8063 19.7866 23.7585 19.7871 23.6973C19.7877 23.6897 19.7877 23.6853 19.7871 23.6777C19.778 23.6233 19.7309 23.5836 19.6758 23.584ZM23.6113 23.584C23.5493 23.5847 23.4994 23.6349 23.5 23.6973C23.5005 23.7585 23.55 23.8063 23.6113 23.8066C23.6726 23.8063 23.7222 23.7585 23.7227 23.6973C23.7232 23.6897 23.7232 23.6853 23.7227 23.6777C23.7136 23.6233 23.6664 23.5836 23.6113 23.584ZM24.1738 23.584C24.111 23.5836 24.0599 23.6345 24.0605 23.6973C24.061 23.7592 24.1118 23.8074 24.1738 23.8066C24.2351 23.8063 24.2847 23.7585 24.2852 23.6973C24.2857 23.6897 24.2857 23.6853 24.2852 23.6777C24.2761 23.6233 24.2289 23.5836 24.1738 23.584ZM28.6719 23.584C28.6091 23.5836 28.558 23.6345 28.5586 23.6973C28.5591 23.7592 28.6098 23.8074 28.6719 23.8066C28.7332 23.8063 28.7827 23.7585 28.7832 23.6973C28.7838 23.6897 28.7838 23.6853 28.7832 23.6777C28.7741 23.6233 28.727 23.5836 28.6719 23.584ZM32.6074 23.584C32.5454 23.5847 32.4955 23.6349 32.4961 23.6973C32.4966 23.7585 32.5461 23.8063 32.6074 23.8066C32.6687 23.8063 32.7183 23.7585 32.7187 23.6973C32.7193 23.6897 32.7193 23.6853 32.7187 23.6777C32.7097 23.6233 32.6625 23.5836 32.6074 23.584ZM33.1699 23.584C33.1071 23.5836 33.056 23.6345 33.0566 23.6973C33.0571 23.7592 33.1079 23.8074 33.1699 23.8066C33.2312 23.8063 33.2808 23.7585 33.2812 23.6973C33.2818 23.6897 33.2818 23.6853 33.2812 23.6777C33.2722 23.6233 33.225 23.5836 33.1699 23.584ZM24.1738 30.9746C23.8473 30.9745 23.524 31.0369 23.2223 31.1583C22.9206 31.2797 22.6465 31.4576 22.4156 31.682C22.1847 31.9064 22.0015 32.1727 21.8766 32.4659C21.7517 32.7591 21.6874 33.0733 21.6875 33.3906C21.6879 34.0311 21.95 34.6453 22.4163 35.098C22.8825 35.5507 23.5147 35.8049 24.1738 35.8047C24.8329 35.8049 25.4651 35.5507 25.9314 35.098C26.3976 34.6453 26.6598 34.0311 26.6602 33.3906C26.6602 33.0733 26.596 32.7591 26.4711 32.4659C26.3461 32.1727 26.163 31.9064 25.9321 31.682C25.7012 31.4576 25.4271 31.2797 25.1254 31.1583C24.8237 31.0369 24.5003 30.9745 24.1738 30.9746Z" fill="#333333"/>
</g>
<defs>
<clipPath id="clip0">
<rect width="48" height="48" fill="white"/>
</clipPath>
</defs>
</svg>
