<svg width="48" height="48" viewBox="0 0 48 48" fill="none" xmlns="http://www.w3.org/2000/svg">
<path d="M14.346 4.09377C13.476 4.09377 12.777 4.79277 12.777 5.66177V42.5228C12.777 43.3928 13.477 44.0928 14.346 44.0928H34.05C34.92 44.0928 35.618 43.3928 35.618 42.5228V5.66277C35.618 4.79277 34.919 4.09277 34.05 4.09277H14.346V4.09377ZM16.139 8.43877C16.2636 8.43712 16.3873 8.46012 16.5029 8.50646C16.6186 8.5528 16.724 8.62155 16.813 8.70877C17.189 9.07477 17.203 9.67177 16.836 10.0488L15.027 11.9088C14.9403 11.9981 14.8368 12.0694 14.7225 12.1187C14.6083 12.168 14.4854 12.1943 14.3609 12.1961C14.2365 12.1978 14.1129 12.175 13.9972 12.129C13.8816 12.083 13.7762 12.0146 13.687 11.9278C13.5972 11.8415 13.5253 11.7383 13.4755 11.6241C13.4257 11.51 13.399 11.3871 13.3968 11.2626C13.3947 11.138 13.4172 11.0143 13.4631 10.8985C13.5089 10.7827 13.5772 10.6771 13.664 10.5878L15.473 8.72977C15.5595 8.64007 15.6628 8.56836 15.7771 8.51876C15.8914 8.46917 16.0144 8.44266 16.139 8.44077V8.43977V8.43877ZM19.119 8.43877C19.2436 8.43712 19.3673 8.46012 19.4829 8.50646C19.5986 8.5528 19.704 8.62155 19.793 8.70877C19.8827 8.7952 19.9544 8.8985 20.004 9.01273C20.0536 9.12696 20.0801 9.24988 20.0821 9.37441C20.084 9.49894 20.0614 9.62262 20.0154 9.73835C19.9693 9.85409 19.9009 9.95958 19.814 10.0488L18.006 11.9088C17.9193 11.9981 17.8158 12.0694 17.7015 12.1187C17.5873 12.168 17.4644 12.1943 17.3399 12.1961C17.2155 12.1978 17.0919 12.175 16.9762 12.129C16.8606 12.083 16.7552 12.0146 16.666 11.9278C16.5763 11.8413 16.5046 11.7381 16.455 11.6238C16.4054 11.5096 16.3788 11.3867 16.3769 11.2621C16.3749 11.1376 16.3976 11.0139 16.4436 10.8982C16.4896 10.7825 16.5581 10.677 16.645 10.5878L18.453 8.72977C18.5395 8.64012 18.6429 8.56844 18.7572 8.51884C18.8714 8.46925 18.9944 8.44272 19.119 8.44077V8.43977V8.43877ZM22.098 8.43877C22.2226 8.43712 22.3463 8.46012 22.4619 8.50646C22.5776 8.5528 22.683 8.62155 22.772 8.70877C22.8617 8.7952 22.9334 8.8985 22.983 9.01273C23.0326 9.12696 23.0591 9.24988 23.0611 9.37441C23.063 9.49894 23.0404 9.62262 22.9944 9.73835C22.9483 9.85409 22.8799 9.95958 22.793 10.0488L20.984 11.9088C20.8973 11.9981 20.7938 12.0694 20.6795 12.1187C20.5653 12.168 20.4424 12.1943 20.3179 12.1961C20.1935 12.1978 20.0699 12.175 19.9542 12.129C19.8386 12.083 19.7332 12.0146 19.644 11.9278C19.5543 11.8413 19.4826 11.7381 19.433 11.6238C19.3834 11.5096 19.3568 11.3867 19.3549 11.2621C19.3529 11.1376 19.3756 11.0139 19.4216 10.8982C19.4676 10.7825 19.5361 10.677 19.623 10.5878L21.432 8.72977C21.5185 8.64012 21.6219 8.56844 21.7362 8.51884C21.8504 8.46925 21.9734 8.44272 22.098 8.44077V8.43977V8.43877ZM25.076 8.43877C25.2006 8.43712 25.3243 8.46012 25.4399 8.50646C25.5556 8.5528 25.661 8.62155 25.75 8.70877C26.127 9.07477 26.14 9.67177 25.773 10.0488L23.965 11.9088C23.8783 11.9981 23.7748 12.0694 23.6605 12.1187C23.5463 12.168 23.4234 12.1943 23.2989 12.1961C23.1745 12.1978 23.0509 12.175 22.9352 12.129C22.8196 12.083 22.7142 12.0146 22.625 11.9278C22.5352 11.8415 22.4633 11.7383 22.4135 11.6241C22.3637 11.51 22.337 11.3871 22.3348 11.2626C22.3327 11.138 22.3552 11.0143 22.4011 10.8985C22.4469 10.7827 22.5152 10.6771 22.602 10.5878L24.41 8.72977C24.4965 8.64007 24.5998 8.56836 24.7141 8.51876C24.8284 8.46917 24.9514 8.44266 25.076 8.44077V8.43977V8.43877ZM28.056 8.43877C28.1806 8.43712 28.3043 8.46012 28.4199 8.50646C28.5356 8.5528 28.641 8.62155 28.73 8.70877C28.8197 8.79513 28.8915 8.89838 28.9412 9.01258C28.9909 9.12677 29.0176 9.24967 29.0196 9.3742C29.0216 9.49873 28.9991 9.62243 28.9531 9.7382C28.9072 9.85397 28.8388 9.95952 28.752 10.0488L26.943 11.9088C26.8563 11.9981 26.7528 12.0694 26.6385 12.1187C26.5243 12.168 26.4014 12.1943 26.2769 12.1961C26.1525 12.1978 26.0289 12.175 25.9132 12.129C25.7976 12.083 25.6922 12.0146 25.603 11.9278C25.5133 11.8413 25.4416 11.7381 25.392 11.6238C25.3424 11.5096 25.3158 11.3867 25.3139 11.2621C25.3119 11.1376 25.3346 11.0139 25.3806 10.8982C25.4266 10.7825 25.4951 10.677 25.582 10.5878L27.391 8.72977C27.4775 8.64012 27.5809 8.56844 27.6952 8.51884C27.8094 8.46925 27.9324 8.44272 28.057 8.44077V8.43977L28.056 8.43877ZM31.036 8.43877C31.1604 8.43725 31.2839 8.46032 31.3994 8.50665C31.5149 8.55299 31.6201 8.62167 31.709 8.70877C31.7987 8.7952 31.8704 8.8985 31.92 9.01273C31.9696 9.12696 31.9961 9.24988 31.9981 9.37441C32 9.49894 31.9774 9.62262 31.9314 9.73835C31.8853 9.85409 31.8169 9.95958 31.73 10.0488L29.922 11.9088C29.8353 11.9981 29.7318 12.0694 29.6175 12.1187C29.5033 12.168 29.3804 12.1943 29.2559 12.1961C29.1315 12.1978 29.0079 12.175 28.8922 12.129C28.7766 12.083 28.6712 12.0146 28.582 11.9278C28.4923 11.8413 28.4206 11.7381 28.371 11.6238C28.3214 11.5096 28.2948 11.3867 28.2929 11.2621C28.2909 11.1376 28.3136 11.0139 28.3596 10.8982C28.4056 10.7825 28.4741 10.677 28.561 10.5878L30.369 8.72977C30.4555 8.64012 30.5589 8.56844 30.6731 8.51884C30.7874 8.46925 30.9104 8.44272 31.035 8.44077V8.43977L31.036 8.43877ZM34.014 8.43877C34.1384 8.43725 34.2619 8.46032 34.3774 8.50665C34.4929 8.55299 34.5981 8.62167 34.687 8.70877C35.064 9.07477 35.077 9.67177 34.711 10.0488L32.902 11.9088C32.8153 11.9981 32.7118 12.0694 32.5975 12.1187C32.4833 12.168 32.3604 12.1943 32.2359 12.1961C32.1115 12.1978 31.9879 12.175 31.8722 12.129C31.7566 12.083 31.6512 12.0146 31.562 11.9278C31.4722 11.8415 31.4003 11.7383 31.3505 11.6241C31.3007 11.51 31.274 11.3871 31.2718 11.2626C31.2697 11.138 31.2922 11.0143 31.3381 10.8985C31.3839 10.7827 31.4522 10.6771 31.539 10.5878L33.348 8.72977C33.4345 8.64007 33.5378 8.56836 33.6521 8.51876C33.7664 8.46917 33.8894 8.44266 34.014 8.44077V8.43977V8.43877ZM13.794 14.9798C13.8222 14.9824 13.8485 14.9955 13.8676 15.0165C13.8867 15.0375 13.8973 15.0649 13.8973 15.0933C13.8973 15.1217 13.8867 15.149 13.8676 15.17C13.8485 15.191 13.8222 15.2041 13.794 15.2068C13.7646 15.2057 13.7368 15.1934 13.7163 15.1724C13.6958 15.1513 13.6842 15.1232 13.684 15.0938C13.684 15.0308 13.733 14.9808 13.794 14.9798ZM14.357 14.9798C14.3839 14.979 14.4102 14.9881 14.4309 15.0055C14.4515 15.0228 14.4651 15.0471 14.469 15.0738V15.0938C14.468 15.1548 14.419 15.2068 14.357 15.2068C14.3272 15.2063 14.2987 15.1942 14.2776 15.1731C14.2566 15.152 14.2445 15.1236 14.244 15.0938C14.244 15.0308 14.295 14.9808 14.357 14.9798ZM14.92 14.9798C14.9468 14.9792 14.9728 14.9885 14.9932 15.0058C15.0137 15.0231 15.0271 15.0473 15.031 15.0738V15.0938C15.031 15.1548 14.981 15.2068 14.92 15.2068C14.8901 15.2065 14.8615 15.1945 14.8404 15.1734C14.8192 15.1523 14.8072 15.1237 14.807 15.0938C14.807 15.0308 14.857 14.9798 14.92 14.9798ZM15.482 14.9798C15.542 14.9798 15.59 15.0268 15.594 15.0858V15.0938C15.593 15.1548 15.544 15.2068 15.482 15.2068C15.4521 15.2065 15.4235 15.1945 15.4024 15.1734C15.3812 15.1523 15.3692 15.1237 15.369 15.0938C15.369 15.0308 15.419 14.9798 15.482 14.9798ZM16.045 14.9798C16.105 14.9798 16.153 15.0268 16.156 15.0858V15.0938C16.156 15.1548 16.106 15.2068 16.045 15.2068C16.0151 15.2065 15.9865 15.1945 15.9654 15.1734C15.9442 15.1523 15.9322 15.1237 15.932 15.0938C15.932 15.0308 15.982 14.9798 16.045 14.9798ZM16.607 14.9798C16.667 14.9798 16.715 15.0268 16.719 15.0858V15.0938C16.718 15.1548 16.669 15.2068 16.607 15.2068C16.5771 15.2065 16.5485 15.1945 16.5274 15.1734C16.5062 15.1523 16.4942 15.1237 16.494 15.0938C16.494 15.0308 16.544 14.9798 16.607 14.9798ZM17.168 14.9798C17.228 14.9798 17.278 15.0258 17.281 15.0858V15.0938C17.2807 15.1237 17.2687 15.1523 17.2476 15.1734C17.2265 15.1945 17.1979 15.2065 17.168 15.2068C17.1384 15.206 17.1104 15.1938 17.0896 15.1727C17.0689 15.1516 17.0572 15.1233 17.057 15.0938C17.057 15.0308 17.106 14.9808 17.168 14.9798ZM17.731 14.9798C17.791 14.9798 17.841 15.0258 17.844 15.0858V15.0938C17.8437 15.1238 17.8316 15.1526 17.8102 15.1737C17.7889 15.1949 17.76 15.2068 17.73 15.2068C17.7006 15.2057 17.6728 15.1934 17.6523 15.1724C17.6318 15.1513 17.6202 15.1232 17.62 15.0938C17.619 15.0308 17.669 14.9808 17.73 14.9798H17.731ZM18.293 14.9798C18.353 14.9798 18.403 15.0258 18.406 15.0858V15.0938C18.4057 15.1237 18.3937 15.1523 18.3726 15.1734C18.3515 15.1945 18.3229 15.2065 18.293 15.2068C18.2634 15.206 18.2354 15.1938 18.2146 15.1727C18.1939 15.1516 18.1822 15.1233 18.182 15.0938C18.182 15.0308 18.231 14.9808 18.293 14.9798ZM18.856 14.9798C18.8826 14.9795 18.9084 14.9889 18.9286 15.0061C18.9488 15.0234 18.9621 15.0475 18.966 15.0738V15.0938C18.966 15.1548 18.916 15.2068 18.856 15.2068C18.8263 15.2063 18.7979 15.1941 18.777 15.173C18.7561 15.1519 18.7442 15.1235 18.744 15.0938C18.744 15.0308 18.794 14.9808 18.855 14.9798H18.856ZM19.418 14.9798C19.478 14.9798 19.526 15.0268 19.529 15.0858V15.0938C19.529 15.1548 19.479 15.2068 19.418 15.2068C19.3881 15.2065 19.3595 15.1945 19.3384 15.1734C19.3172 15.1523 19.3052 15.1237 19.305 15.0938C19.305 15.0308 19.355 14.9798 19.418 14.9798ZM19.981 14.9798C20.04 14.9798 20.088 15.0268 20.091 15.0858V15.0938C20.091 15.1548 20.041 15.2068 19.981 15.2068C19.9509 15.2068 19.9221 15.1949 19.9007 15.1737C19.8794 15.1526 19.8672 15.1238 19.867 15.0938C19.867 15.0308 19.917 14.9798 19.98 14.9798H19.981ZM20.543 14.9798C20.603 14.9798 20.651 15.0268 20.654 15.0858V15.0938C20.654 15.1548 20.604 15.2068 20.543 15.2068C20.5131 15.2065 20.4845 15.1945 20.4634 15.1734C20.4422 15.1523 20.4302 15.1237 20.43 15.0938C20.43 15.0308 20.48 14.9798 20.543 14.9798ZM21.106 14.9798C21.165 14.9798 21.213 15.0268 21.216 15.0858V15.0938C21.216 15.1548 21.166 15.2068 21.106 15.2068C21.0759 15.2068 21.0471 15.1949 21.0257 15.1737C21.0044 15.1526 20.9922 15.1238 20.992 15.0938C20.992 15.0308 21.042 14.9798 21.105 14.9798H21.106ZM21.666 14.9798C21.726 14.9798 21.776 15.0258 21.779 15.0858V15.0938C21.7787 15.1237 21.7667 15.1523 21.7456 15.1734C21.7245 15.1945 21.6959 15.2065 21.666 15.2068C21.6364 15.206 21.6084 15.1938 21.5876 15.1727C21.5669 15.1516 21.5552 15.1233 21.555 15.0938C21.555 15.0308 21.604 14.9808 21.666 14.9798ZM22.229 14.9798C22.289 14.9798 22.339 15.0258 22.342 15.0858V15.0938C22.3417 15.1237 22.3297 15.1523 22.3086 15.1734C22.2875 15.1945 22.2589 15.2065 22.229 15.2068C22.1993 15.2063 22.1709 15.1941 22.15 15.173C22.1291 15.1519 22.1172 15.1235 22.117 15.0938C22.117 15.0308 22.167 14.9808 22.228 14.9798H22.229ZM22.791 14.9798C22.8192 14.9824 22.8455 14.9955 22.8646 15.0165C22.8837 15.0375 22.8943 15.0649 22.8943 15.0933C22.8943 15.1217 22.8837 15.149 22.8646 15.17C22.8455 15.191 22.8192 15.2041 22.791 15.2068C22.7614 15.206 22.7334 15.1938 22.7126 15.1727C22.6919 15.1516 22.6802 15.1233 22.68 15.0938C22.68 15.0308 22.729 14.9808 22.791 14.9798ZM23.354 14.9798C23.408 14.9798 23.457 15.0198 23.464 15.0738V15.0938C23.464 15.1548 23.414 15.2068 23.354 15.2068C23.3243 15.2063 23.2959 15.1941 23.275 15.173C23.2541 15.1519 23.2422 15.1235 23.242 15.0938C23.242 15.0308 23.292 14.9808 23.353 14.9798H23.354ZM23.916 14.9798C23.9428 14.9792 23.9688 14.9885 23.9892 15.0058C24.0097 15.0231 24.0231 15.0473 24.027 15.0738V15.0938C24.027 15.1548 23.977 15.2068 23.916 15.2068C23.8861 15.2065 23.8575 15.1945 23.8364 15.1734C23.8152 15.1523 23.8032 15.1237 23.803 15.0938C23.803 15.0308 23.853 14.9798 23.916 14.9798ZM24.479 14.9798C24.538 14.9798 24.586 15.0268 24.589 15.0858V15.0938C24.589 15.1548 24.539 15.2068 24.479 15.2068C24.4489 15.2068 24.4201 15.1949 24.3987 15.1737C24.3774 15.1526 24.3652 15.1238 24.365 15.0938C24.365 15.0308 24.415 14.9798 24.479 14.9798ZM25.041 14.9798C25.101 14.9798 25.149 15.0268 25.152 15.0858V15.0938C25.152 15.1548 25.102 15.2068 25.041 15.2068C25.0111 15.2065 24.9825 15.1945 24.9614 15.1734C24.9402 15.1523 24.9282 15.1237 24.928 15.0938C24.928 15.0308 24.978 14.9798 25.041 14.9798ZM25.601 14.9798C25.661 14.9798 25.711 15.0258 25.715 15.0858V15.0938C25.7147 15.1237 25.7027 15.1523 25.6816 15.1734C25.6605 15.1945 25.6319 15.2065 25.602 15.2068C25.5723 15.2063 25.5439 15.1941 25.523 15.173C25.5021 15.1519 25.4902 15.1235 25.49 15.0938C25.49 15.0308 25.54 14.9808 25.602 14.9798H25.601ZM26.164 14.9798C26.224 14.9798 26.274 15.0258 26.277 15.0858V15.0938C26.2767 15.1237 26.2647 15.1523 26.2436 15.1734C26.2225 15.1945 26.1939 15.2065 26.164 15.2068C26.1344 15.206 26.1064 15.1938 26.0856 15.1727C26.0649 15.1516 26.0532 15.1233 26.053 15.0938C26.053 15.0308 26.103 14.9808 26.164 14.9798ZM26.727 14.9798C26.787 14.9798 26.837 15.0258 26.84 15.0858V15.0938C26.8397 15.1237 26.8277 15.1523 26.8066 15.1734C26.7855 15.1945 26.7569 15.2065 26.727 15.2068C26.6973 15.2063 26.6689 15.1941 26.648 15.173C26.6271 15.1519 26.6152 15.1235 26.615 15.0938C26.615 15.0308 26.665 14.9808 26.727 14.9798ZM27.289 14.9798C27.3172 14.9824 27.3435 14.9955 27.3626 15.0165C27.3817 15.0375 27.3923 15.0649 27.3923 15.0933C27.3923 15.1217 27.3817 15.149 27.3626 15.17C27.3435 15.191 27.3172 15.2041 27.289 15.2068C27.2594 15.206 27.2314 15.1938 27.2106 15.1727C27.1899 15.1516 27.1782 15.1233 27.178 15.0938C27.178 15.0308 27.228 14.9808 27.289 14.9798ZM27.852 14.9798C27.8786 14.9795 27.9044 14.9889 27.9246 15.0061C27.9448 15.0234 27.9581 15.0475 27.962 15.0738C27.964 15.0818 27.964 15.0858 27.962 15.0938C27.962 15.1548 27.912 15.2068 27.852 15.2068C27.8223 15.2063 27.7939 15.1941 27.773 15.173C27.7521 15.1519 27.7402 15.1235 27.74 15.0938C27.74 15.0308 27.79 14.9808 27.852 14.9798ZM28.414 14.9798C28.474 14.9798 28.522 15.0268 28.525 15.0858V15.0938C28.525 15.1548 28.475 15.2068 28.415 15.2068C28.3849 15.2068 28.3561 15.1949 28.3347 15.1737C28.3134 15.1526 28.3012 15.1238 28.301 15.0938C28.301 15.0308 28.351 14.9798 28.414 14.9798ZM28.977 14.9798C29.036 14.9798 29.084 15.0268 29.087 15.0858V15.0938C29.087 15.1548 29.037 15.2068 28.977 15.2068C28.9469 15.2068 28.9181 15.1949 28.8967 15.1737C28.8754 15.1526 28.8632 15.1238 28.863 15.0938C28.863 15.0308 28.913 14.9798 28.977 14.9798ZM29.539 14.9798C29.599 14.9798 29.647 15.0268 29.65 15.0858V15.0938C29.65 15.1548 29.6 15.2068 29.54 15.2068C29.5099 15.2068 29.4811 15.1949 29.4597 15.1737C29.4384 15.1526 29.4262 15.1238 29.426 15.0938C29.426 15.0308 29.476 14.9798 29.539 14.9798ZM30.099 14.9798C30.159 14.9798 30.209 15.0258 30.213 15.0858V15.0938C30.2127 15.1237 30.2007 15.1523 30.1796 15.1734C30.1585 15.1945 30.1299 15.2065 30.1 15.2068C30.0703 15.2063 30.0419 15.1941 30.021 15.173C30.0001 15.1519 29.9882 15.1235 29.988 15.0938C29.988 15.0308 30.038 14.9808 30.1 14.9798H30.099ZM30.662 14.9798C30.722 14.9798 30.772 15.0258 30.775 15.0858V15.0938C30.7747 15.1237 30.7627 15.1523 30.7416 15.1734C30.7205 15.1945 30.6919 15.2065 30.662 15.2068C30.6324 15.206 30.6044 15.1938 30.5836 15.1727C30.5629 15.1516 30.5512 15.1233 30.551 15.0938C30.551 15.0308 30.601 14.9808 30.662 14.9798ZM31.225 14.9798C31.285 14.9798 31.335 15.0258 31.338 15.0858V15.0938C31.3377 15.1237 31.3257 15.1523 31.3046 15.1734C31.2835 15.1945 31.2549 15.2065 31.225 15.2068C31.1953 15.2063 31.1669 15.1941 31.146 15.173C31.1251 15.1519 31.1132 15.1235 31.113 15.0938C31.113 15.0308 31.163 14.9808 31.225 14.9798ZM31.787 14.9798C31.8138 14.9792 31.8398 14.9885 31.8602 15.0058C31.8807 15.0231 31.8941 15.0473 31.898 15.0738V15.0938C31.898 15.1548 31.848 15.2068 31.788 15.2068C31.7583 15.2063 31.7299 15.1941 31.709 15.173C31.6881 15.1519 31.6762 15.1235 31.676 15.0938C31.675 15.0308 31.726 14.9808 31.787 14.9798ZM32.35 14.9798C32.3766 14.9795 32.4024 14.9889 32.4226 15.0061C32.4428 15.0234 32.4561 15.0475 32.46 15.0738C32.462 15.0818 32.462 15.0858 32.46 15.0938C32.46 15.1548 32.41 15.2068 32.35 15.2068C32.3199 15.2068 32.2911 15.1949 32.2697 15.1737C32.2484 15.1526 32.2362 15.1238 32.236 15.0938C32.236 15.0308 32.286 14.9798 32.35 14.9798ZM32.912 14.9798C32.972 14.9798 33.02 15.0268 33.023 15.0858V15.0938C33.023 15.1548 32.973 15.2068 32.913 15.2068C32.8829 15.2068 32.8541 15.1949 32.8327 15.1737C32.8114 15.1526 32.7992 15.1238 32.799 15.0938C32.799 15.0308 32.849 14.9798 32.912 14.9798ZM33.475 14.9798C33.534 14.9798 33.582 15.0268 33.585 15.0858V15.0938C33.585 15.1548 33.535 15.2068 33.475 15.2068C33.4449 15.2068 33.4161 15.1949 33.3947 15.1737C33.3734 15.1526 33.3612 15.1238 33.361 15.0938C33.361 15.0308 33.411 14.9798 33.475 14.9798ZM34.037 14.9798C34.097 14.9798 34.145 15.0268 34.148 15.0858V15.0938C34.148 15.1548 34.098 15.2068 34.038 15.2068C34.0079 15.2068 33.9791 15.1949 33.9577 15.1737C33.9364 15.1526 33.9242 15.1238 33.924 15.0938C33.924 15.0308 33.974 14.9798 34.037 14.9798ZM34.597 14.9798C34.657 14.9798 34.707 15.0258 34.711 15.0858V15.0938C34.7107 15.1237 34.6987 15.1523 34.6776 15.1734C34.6565 15.1945 34.6279 15.2065 34.598 15.2068C34.5683 15.2063 34.5399 15.1941 34.519 15.173C34.4981 15.1519 34.4862 15.1235 34.486 15.0938C34.486 15.0308 34.536 14.9808 34.598 14.9798H34.597ZM16.16 17.6268C16.2846 17.6251 16.4083 17.6481 16.5239 17.6945C16.6396 17.7408 16.745 17.8096 16.834 17.8968C17.211 18.2628 17.224 18.8598 16.857 19.2368L15.049 21.0958C14.9623 21.1851 14.8589 21.2566 14.7447 21.3059C14.6304 21.3553 14.5076 21.3817 14.3831 21.3836C14.2587 21.3854 14.1351 21.3627 14.0194 21.3168C13.9037 21.2708 13.7982 21.2025 13.709 21.1158C13.6191 21.0295 13.5472 20.9264 13.4973 20.8123C13.4474 20.6982 13.4206 20.5753 13.4183 20.4508C13.4161 20.3262 13.4385 20.2025 13.4843 20.0867C13.53 19.9708 13.5982 19.8652 13.685 19.7758L15.495 17.9178C15.5813 17.828 15.6844 17.7562 15.7985 17.7064C15.9127 17.6566 16.0355 17.6299 16.16 17.6278V17.6268ZM19.14 17.6268C19.2646 17.6252 19.3882 17.6482 19.5039 17.6945C19.6196 17.7409 19.7249 17.8096 19.814 17.8968C19.9037 17.9831 19.9755 18.0864 20.0252 18.2006C20.0749 18.3148 20.1016 18.4377 20.1036 18.5622C20.1056 18.6867 20.0831 18.8104 20.0371 18.9262C19.9912 19.042 19.9228 19.1475 19.836 19.2368L18.027 21.0958C17.9403 21.1851 17.8369 21.2566 17.7227 21.3059C17.6084 21.3553 17.4856 21.3817 17.3611 21.3836C17.2367 21.3854 17.1131 21.3627 16.9974 21.3168C16.8817 21.2708 16.7762 21.2025 16.687 21.1158C16.5973 21.0293 16.5256 20.9261 16.476 20.8118C16.4264 20.6976 16.3998 20.5747 16.3979 20.4501C16.3959 20.3256 16.4186 20.2019 16.4646 20.0862C16.5106 19.9705 16.5791 19.865 16.666 19.7758L18.475 17.9178C18.5614 17.8279 18.6647 17.756 18.779 17.7062C18.8933 17.6565 19.0163 17.6298 19.141 17.6278V17.6268H19.14ZM22.12 17.6268C22.2444 17.6253 22.3679 17.6484 22.4834 17.6947C22.5989 17.7411 22.7041 17.8097 22.793 17.8968C22.8827 17.9832 22.9544 18.0865 23.004 18.2007C23.0536 18.315 23.0801 18.4379 23.0821 18.5624C23.084 18.6869 23.0614 18.8106 23.0154 18.9264C22.9693 19.0421 22.9009 19.1476 22.814 19.2368L21.006 21.0958C20.9193 21.1851 20.8159 21.2566 20.7017 21.3059C20.5874 21.3553 20.4646 21.3817 20.3401 21.3836C20.2157 21.3854 20.0921 21.3627 19.9764 21.3168C19.8607 21.2708 19.7552 21.2025 19.666 21.1158C19.5763 21.0293 19.5046 20.9261 19.455 20.8118C19.4054 20.6976 19.3788 20.5747 19.3769 20.4501C19.3749 20.3256 19.3976 20.2019 19.4436 20.0862C19.4896 19.9705 19.5581 19.865 19.645 19.7758L21.453 17.9178C21.5394 17.8279 21.6427 17.756 21.757 17.7062C21.8713 17.6565 21.9943 17.6298 22.119 17.6278V17.6268H22.12ZM25.098 17.6268C25.2226 17.6251 25.3463 17.6481 25.4619 17.6945C25.5776 17.7408 25.683 17.8096 25.772 17.8968C26.148 18.2628 26.161 18.8598 25.795 19.2368L23.986 21.0958C23.8993 21.1851 23.7959 21.2566 23.6817 21.3059C23.5674 21.3553 23.4446 21.3817 23.3201 21.3836C23.1957 21.3854 23.0721 21.3627 22.9564 21.3168C22.8407 21.2708 22.7352 21.2025 22.646 21.1158C22.5562 21.0295 22.4843 20.9263 22.4345 20.8121C22.3847 20.698 22.358 20.5751 22.3558 20.4506C22.3537 20.326 22.3762 20.2023 22.4221 20.0865C22.4679 19.9707 22.5362 19.8651 22.623 19.7758L24.432 17.9178C24.5184 17.8279 24.6217 17.756 24.736 17.7062C24.8503 17.6565 24.9733 17.6298 25.098 17.6278V17.6268ZM28.078 17.6268C28.2026 17.6252 28.3262 17.6482 28.4419 17.6945C28.5576 17.7409 28.663 17.8096 28.752 17.8968C28.8417 17.9832 28.9134 18.0865 28.963 18.2007C29.0126 18.315 29.0391 18.4379 29.0411 18.5624C29.043 18.6869 29.0204 18.8106 28.9744 18.9264C28.9283 19.0421 28.8599 19.1476 28.773 19.2368L26.965 21.0958C26.8783 21.1851 26.7749 21.2566 26.6607 21.3059C26.5464 21.3553 26.4236 21.3817 26.2991 21.3836C26.1747 21.3854 26.0511 21.3627 25.9354 21.3168C25.8197 21.2708 25.7142 21.2025 25.625 21.1158C25.5353 21.0293 25.4636 20.9261 25.414 20.8118C25.3644 20.6976 25.3378 20.5747 25.3359 20.4501C25.3339 20.3256 25.3566 20.2019 25.4026 20.0862C25.4486 19.9705 25.5171 19.865 25.604 19.7758L27.412 17.9178C27.4984 17.8279 27.6017 17.756 27.716 17.7062C27.8303 17.6565 27.9533 17.6298 28.078 17.6278V17.6268ZM31.057 17.6268C31.1816 17.6252 31.3052 17.6482 31.4209 17.6945C31.5366 17.7409 31.642 17.8096 31.731 17.8968C31.8207 17.9832 31.8924 18.0865 31.942 18.2007C31.9916 18.315 32.0181 18.4379 32.0201 18.5624C32.0221 18.6869 31.9994 18.8106 31.9534 18.9264C31.9073 19.0421 31.8389 19.1476 31.752 19.2368L29.943 21.0958C29.8563 21.1851 29.753 21.2566 29.6387 21.3059C29.5244 21.3553 29.4016 21.3817 29.2771 21.3836C29.1527 21.3854 29.0291 21.3627 28.9134 21.3168C28.7977 21.2708 28.6922 21.2025 28.603 21.1158C28.5133 21.0293 28.4416 20.9261 28.392 20.8118C28.3424 20.6976 28.3158 20.5747 28.3139 20.4501C28.3119 20.3256 28.3346 20.2019 28.3806 20.0862C28.4266 19.9705 28.4951 19.865 28.582 19.7758L30.391 17.9178C30.4774 17.8279 30.5807 17.756 30.695 17.7062C30.8093 17.6565 30.9323 17.6298 31.057 17.6278V17.6268ZM34.035 17.6268C34.1596 17.6251 34.2833 17.6481 34.3989 17.6945C34.5146 17.7408 34.62 17.8096 34.709 17.8968C35.086 18.2628 35.099 18.8598 34.732 19.2368L32.924 21.0958C32.8373 21.1851 32.734 21.2566 32.6197 21.3059C32.5054 21.3553 32.3826 21.3817 32.2581 21.3836C32.1337 21.3854 32.0101 21.3627 31.8944 21.3168C31.7787 21.2708 31.6732 21.2025 31.584 21.1158C31.4942 21.0295 31.4223 20.9263 31.3725 20.8121C31.3227 20.698 31.296 20.5751 31.2938 20.4506C31.2917 20.326 31.3142 20.2023 31.3601 20.0865C31.4059 19.9707 31.4742 19.8651 31.561 19.7758L33.369 17.9178C33.4554 17.8279 33.5587 17.756 33.673 17.7062C33.7873 17.6565 33.9103 17.6298 34.035 17.6278V17.6268ZM13.795 23.9808C13.858 23.9808 13.909 24.0308 13.908 24.0938C13.9077 24.1237 13.8957 24.1523 13.8746 24.1734C13.8535 24.1945 13.8249 24.2065 13.795 24.2068C13.7654 24.206 13.7374 24.1938 13.7166 24.1727C13.6959 24.1516 13.6842 24.1233 13.684 24.0938C13.684 24.0308 13.733 23.9808 13.794 23.9798L13.795 23.9808ZM14.357 23.9808C14.3838 23.98 14.4099 23.989 14.4306 24.0061C14.4512 24.0232 14.4648 24.0473 14.469 24.0738V24.0938C14.468 24.1548 14.419 24.2068 14.357 24.2068C14.3272 24.2063 14.2987 24.1942 14.2776 24.1731C14.2566 24.152 14.2445 24.1236 14.244 24.0938C14.244 24.0308 14.295 23.9808 14.357 23.9798V23.9808ZM14.92 23.9808C14.9466 23.9802 14.9725 23.9893 14.9929 24.0064C15.0134 24.0235 15.0269 24.0475 15.031 24.0738V24.0938C15.031 24.1548 14.981 24.2068 14.92 24.2068C14.8901 24.2065 14.8615 24.1945 14.8404 24.1734C14.8192 24.1523 14.8072 24.1237 14.807 24.0938C14.807 24.0308 14.857 23.9798 14.92 23.9798V23.9808ZM15.482 23.9808C15.542 23.9808 15.59 24.0268 15.594 24.0858V24.0938C15.593 24.1548 15.544 24.2068 15.482 24.2068C15.4521 24.2065 15.4235 24.1945 15.4024 24.1734C15.3812 24.1523 15.3692 24.1237 15.369 24.0938C15.369 24.0308 15.419 23.9798 15.482 23.9798V23.9808ZM16.045 23.9808C16.105 23.9808 16.153 24.0268 16.156 24.0858V24.0938C16.156 24.1548 16.106 24.2068 16.045 24.2068C16.0151 24.2065 15.9865 24.1945 15.9654 24.1734C15.9442 24.1523 15.9322 24.1237 15.932 24.0938C15.932 24.0308 15.982 23.9798 16.045 23.9798V23.9808ZM16.607 23.9808C16.667 23.9808 16.715 24.0268 16.719 24.0858V24.0938C16.718 24.1548 16.669 24.2068 16.607 24.2068C16.5771 24.2065 16.5485 24.1945 16.5274 24.1734C16.5062 24.1523 16.4942 24.1237 16.494 24.0938C16.494 24.0308 16.544 23.9798 16.607 23.9798V23.9808ZM17.168 23.9808C17.228 23.9798 17.278 24.0258 17.281 24.0858V24.0938C17.2807 24.1237 17.2687 24.1523 17.2476 24.1734C17.2265 24.1945 17.1979 24.2065 17.168 24.2068C17.1384 24.206 17.1104 24.1938 17.0896 24.1727C17.0689 24.1516 17.0572 24.1233 17.057 24.0938C17.057 24.0308 17.106 23.9808 17.168 23.9798V23.9808ZM17.731 23.9808C17.791 23.9798 17.841 24.0258 17.844 24.0858V24.0938C17.8437 24.1238 17.8316 24.1526 17.8102 24.1737C17.7889 24.1949 17.76 24.2068 17.73 24.2068C17.7006 24.2057 17.6728 24.1934 17.6523 24.1724C17.6318 24.1513 17.6202 24.1232 17.62 24.0938C17.619 24.0308 17.669 23.9808 17.73 23.9798L17.731 23.9808ZM18.293 23.9808C18.353 23.9798 18.403 24.0258 18.406 24.0858V24.0938C18.4057 24.1237 18.3937 24.1523 18.3726 24.1734C18.3515 24.1945 18.3229 24.2065 18.293 24.2068C18.2634 24.206 18.2354 24.1938 18.2146 24.1727C18.1939 24.1516 18.1822 24.1233 18.182 24.0938C18.182 24.0308 18.231 23.9808 18.293 23.9798V23.9808ZM18.856 23.9808C18.8824 23.9805 18.9081 23.9897 18.9283 24.0068C18.9485 24.0238 18.9619 24.0476 18.966 24.0738V24.0938C18.966 24.1548 18.916 24.2068 18.856 24.2068C18.8263 24.2063 18.7979 24.1942 18.777 24.173C18.7561 24.1519 18.7442 24.1235 18.744 24.0938C18.744 24.0308 18.794 23.9808 18.855 23.9798L18.856 23.9808ZM19.418 23.9808C19.478 23.9808 19.526 24.0268 19.529 24.0858V24.0938C19.529 24.1548 19.479 24.2068 19.418 24.2068C19.3881 24.2065 19.3595 24.1945 19.3384 24.1734C19.3172 24.1523 19.3052 24.1237 19.305 24.0938C19.305 24.0308 19.355 23.9798 19.418 23.9798V23.9808ZM19.981 23.9808C20.04 23.9808 20.088 24.0268 20.091 24.0858V24.0938C20.091 24.1548 20.041 24.2068 19.981 24.2068C19.9509 24.2068 19.9221 24.1949 19.9007 24.1737C19.8794 24.1526 19.8672 24.1238 19.867 24.0938C19.867 24.0308 19.917 23.9798 19.98 23.9798L19.981 23.9808ZM20.543 23.9808C20.603 23.9808 20.651 24.0268 20.654 24.0858V24.0938C20.654 24.1548 20.604 24.2068 20.543 24.2068C20.5131 24.2065 20.4845 24.1945 20.4634 24.1734C20.4422 24.1523 20.4302 24.1237 20.43 24.0938C20.43 24.0308 20.48 23.9798 20.543 23.9798V23.9808ZM21.106 23.9808C21.165 23.9808 21.213 24.0268 21.216 24.0858V24.0938C21.216 24.1548 21.166 24.2068 21.106 24.2068C21.0759 24.2068 21.0471 24.1949 21.0257 24.1737C21.0044 24.1526 20.9922 24.1238 20.992 24.0938C20.992 24.0308 21.042 23.9798 21.105 23.9798L21.106 23.9808ZM21.666 23.9808C21.726 23.9798 21.776 24.0258 21.779 24.0858V24.0938C21.7787 24.1237 21.7667 24.1523 21.7456 24.1734C21.7245 24.1945 21.6959 24.2065 21.666 24.2068C21.6364 24.206 21.6084 24.1938 21.5876 24.1727C21.5669 24.1516 21.5552 24.1233 21.555 24.0938C21.555 24.0308 21.604 23.9808 21.666 23.9798V23.9808ZM22.229 23.9808C22.289 23.9798 22.339 24.0258 22.342 24.0858V24.0938C22.3417 24.1237 22.3297 24.1523 22.3086 24.1734C22.2875 24.1945 22.2589 24.2065 22.229 24.2068C22.1993 24.2063 22.1709 24.1942 22.15 24.173C22.1291 24.1519 22.1172 24.1235 22.117 24.0938C22.117 24.0308 22.167 23.9808 22.228 23.9798L22.229 23.9808ZM22.791 23.9808C22.854 23.9808 22.905 24.0308 22.904 24.0938C22.9037 24.1237 22.8917 24.1523 22.8706 24.1734C22.8495 24.1945 22.8209 24.2065 22.791 24.2068C22.7614 24.206 22.7334 24.1938 22.7126 24.1727C22.6919 24.1516 22.6802 24.1233 22.68 24.0938C22.68 24.0308 22.729 23.9808 22.791 23.9798V23.9808ZM23.354 23.9808C23.408 23.9808 23.457 24.0198 23.464 24.0738V24.0938C23.464 24.1548 23.414 24.2068 23.354 24.2068C23.3243 24.2063 23.2959 24.1942 23.275 24.173C23.2541 24.1519 23.2422 24.1235 23.242 24.0938C23.242 24.0308 23.292 23.9808 23.353 23.9798L23.354 23.9808ZM23.916 23.9808C23.9426 23.9802 23.9685 23.9893 23.9889 24.0064C24.0094 24.0235 24.0229 24.0475 24.027 24.0738V24.0938C24.027 24.1548 23.977 24.2068 23.916 24.2068C23.8861 24.2065 23.8575 24.1945 23.8364 24.1734C23.8152 24.1523 23.8032 24.1237 23.803 24.0938C23.803 24.0308 23.853 23.9798 23.916 23.9798V23.9808ZM24.479 23.9808C24.538 23.9808 24.586 24.0268 24.589 24.0858V24.0938C24.589 24.1548 24.539 24.2068 24.479 24.2068C24.4489 24.2068 24.4201 24.1949 24.3987 24.1737C24.3774 24.1526 24.3652 24.1238 24.365 24.0938C24.365 24.0308 24.415 23.9798 24.479 23.9798V23.9808ZM25.041 23.9808C25.101 23.9808 25.149 24.0268 25.152 24.0858V24.0938C25.152 24.1548 25.102 24.2068 25.041 24.2068C25.0111 24.2065 24.9825 24.1945 24.9614 24.1734C24.9402 24.1523 24.9282 24.1237 24.928 24.0938C24.928 24.0308 24.978 23.9798 25.041 23.9798V23.9808ZM25.601 23.9808C25.661 23.9798 25.711 24.0258 25.715 24.0858V24.0938C25.7147 24.1237 25.7027 24.1523 25.6816 24.1734C25.6605 24.1945 25.6319 24.2065 25.602 24.2068C25.5723 24.2063 25.5439 24.1942 25.523 24.173C25.5021 24.1519 25.4902 24.1235 25.49 24.0938C25.49 24.0308 25.54 23.9808 25.602 23.9798L25.601 23.9808ZM26.164 23.9808C26.224 23.9798 26.274 24.0258 26.277 24.0858V24.0938C26.2767 24.1237 26.2647 24.1523 26.2436 24.1734C26.2225 24.1945 26.1939 24.2065 26.164 24.2068C26.1344 24.206 26.1064 24.1938 26.0856 24.1727C26.0649 24.1516 26.0532 24.1233 26.053 24.0938C26.053 24.0308 26.103 23.9808 26.164 23.9798V23.9808ZM26.727 23.9808C26.787 23.9798 26.837 24.0258 26.84 24.0858V24.0938C26.8397 24.1237 26.8277 24.1523 26.8066 24.1734C26.7855 24.1945 26.7569 24.2065 26.727 24.2068C26.6973 24.2063 26.6689 24.1942 26.648 24.173C26.6271 24.1519 26.6152 24.1235 26.615 24.0938C26.615 24.0308 26.665 23.9808 26.727 23.9798V23.9808ZM27.289 23.9808C27.352 23.9808 27.403 24.0308 27.402 24.0938C27.4017 24.1237 27.3897 24.1523 27.3686 24.1734C27.3475 24.1945 27.3189 24.2065 27.289 24.2068C27.2594 24.206 27.2314 24.1938 27.2106 24.1727C27.1899 24.1516 27.1782 24.1233 27.178 24.0938C27.178 24.0308 27.228 23.9808 27.289 23.9798V23.9808ZM27.852 23.9808C27.8784 23.9805 27.9041 23.9897 27.9243 24.0068C27.9445 24.0238 27.9579 24.0476 27.962 24.0738C27.964 24.0818 27.964 24.0858 27.962 24.0938C27.962 24.1548 27.912 24.2068 27.852 24.2068C27.8223 24.2063 27.7939 24.1942 27.773 24.173C27.7521 24.1519 27.7402 24.1235 27.74 24.0938C27.74 24.0308 27.79 23.9808 27.852 23.9798V23.9808ZM28.414 23.9808C28.474 23.9808 28.522 24.0268 28.525 24.0858V24.0938C28.525 24.1548 28.475 24.2068 28.415 24.2068C28.3849 24.2068 28.3561 24.1949 28.3347 24.1737C28.3134 24.1526 28.3012 24.1238 28.301 24.0938C28.301 24.0308 28.351 23.9798 28.414 23.9798V23.9808ZM28.977 23.9808C29.036 23.9808 29.084 24.0268 29.087 24.0858V24.0938C29.087 24.1548 29.037 24.2068 28.977 24.2068C28.9469 24.2068 28.9181 24.1949 28.8967 24.1737C28.8754 24.1526 28.8632 24.1238 28.863 24.0938C28.863 24.0308 28.913 23.9798 28.977 23.9798V23.9808ZM29.539 23.9808C29.599 23.9808 29.647 24.0268 29.65 24.0858V24.0938C29.65 24.1548 29.6 24.2068 29.54 24.2068C29.5099 24.2068 29.4811 24.1949 29.4597 24.1737C29.4384 24.1526 29.4262 24.1238 29.426 24.0938C29.426 24.0308 29.476 23.9798 29.539 23.9798V23.9808ZM30.099 23.9808C30.159 23.9798 30.209 24.0258 30.213 24.0858V24.0938C30.2127 24.1237 30.2007 24.1523 30.1796 24.1734C30.1585 24.1945 30.1299 24.2065 30.1 24.2068C30.0703 24.2063 30.0419 24.1942 30.021 24.173C30.0001 24.1519 29.9882 24.1235 29.988 24.0938C29.988 24.0308 30.038 23.9808 30.1 23.9798L30.099 23.9808ZM30.662 23.9808C30.722 23.9798 30.772 24.0258 30.775 24.0858V24.0938C30.7747 24.1237 30.7627 24.1523 30.7416 24.1734C30.7205 24.1945 30.6919 24.2065 30.662 24.2068C30.6324 24.206 30.6044 24.1938 30.5836 24.1727C30.5629 24.1516 30.5512 24.1233 30.551 24.0938C30.551 24.0308 30.601 23.9808 30.662 23.9798V23.9808ZM31.225 23.9808C31.285 23.9798 31.335 24.0258 31.338 24.0858V24.0938C31.3377 24.1237 31.3257 24.1523 31.3046 24.1734C31.2835 24.1945 31.2549 24.2065 31.225 24.2068C31.1953 24.2063 31.1669 24.1942 31.146 24.173C31.1251 24.1519 31.1132 24.1235 31.113 24.0938C31.113 24.0308 31.163 23.9808 31.225 23.9798V23.9808ZM31.787 23.9808C31.8136 23.9802 31.8395 23.9893 31.8599 24.0064C31.8804 24.0235 31.8939 24.0475 31.898 24.0738V24.0938C31.898 24.1548 31.848 24.2068 31.788 24.2068C31.7583 24.2063 31.7299 24.1942 31.709 24.173C31.6881 24.1519 31.6762 24.1235 31.676 24.0938C31.675 24.0308 31.726 23.9808 31.787 23.9798V23.9808ZM32.35 23.9808C32.3764 23.9805 32.4021 23.9897 32.4223 24.0068C32.4425 24.0238 32.4559 24.0476 32.46 24.0738C32.462 24.0818 32.462 24.0858 32.46 24.0938C32.46 24.1548 32.41 24.2068 32.35 24.2068C32.3199 24.2068 32.2911 24.1949 32.2697 24.1737C32.2484 24.1526 32.2362 24.1238 32.236 24.0938C32.236 24.0308 32.286 23.9798 32.35 23.9798V23.9808ZM32.912 23.9808C32.972 23.9808 33.02 24.0268 33.023 24.0858V24.0938C33.023 24.1548 32.973 24.2068 32.913 24.2068C32.8829 24.2068 32.8541 24.1949 32.8327 24.1737C32.8114 24.1526 32.7992 24.1238 32.799 24.0938C32.799 24.0308 32.849 23.9798 32.912 23.9798V23.9808ZM33.475 23.9808C33.534 23.9808 33.582 24.0268 33.585 24.0858V24.0938C33.585 24.1548 33.535 24.2068 33.475 24.2068C33.4449 24.2068 33.4161 24.1949 33.3947 24.1737C33.3734 24.1526 33.3612 24.1238 33.361 24.0938C33.361 24.0308 33.411 23.9798 33.475 23.9798V23.9808ZM34.037 23.9808C34.097 23.9808 34.145 24.0268 34.148 24.0858V24.0938C34.148 24.1548 34.098 24.2068 34.038 24.2068C34.0079 24.2068 33.9791 24.1949 33.9577 24.1737C33.9364 24.1526 33.9242 24.1238 33.924 24.0938C33.924 24.0308 33.974 23.9798 34.037 23.9798V23.9808ZM34.597 23.9808C34.657 23.9798 34.707 24.0258 34.711 24.0858V24.0938C34.7107 24.1237 34.6987 24.1523 34.6776 24.1734C34.6565 24.1945 34.6279 24.2065 34.598 24.2068C34.5683 24.2063 34.5399 24.1942 34.519 24.173C34.4981 24.1519 34.4862 24.1235 34.486 24.0938C34.486 24.0308 34.536 23.9808 34.598 23.9798L34.597 23.9808ZM16.14 26.8038C16.2646 26.8021 16.3883 26.8251 16.5039 26.8715C16.6196 26.9178 16.725 26.9866 16.814 27.0738C17.19 27.4388 17.204 28.0368 16.837 28.4138L15.028 30.2718C14.9413 30.3611 14.8379 30.4326 14.7237 30.4819C14.6094 30.5313 14.4866 30.5577 14.3621 30.5596C14.2377 30.5614 14.1141 30.5387 13.9984 30.4928C13.8827 30.4468 13.7772 30.3785 13.688 30.2918C13.5982 30.2055 13.5263 30.1023 13.4765 29.9881C13.4267 29.874 13.4 29.7511 13.3978 29.6266C13.3957 29.502 13.4182 29.3783 13.4641 29.2625C13.5099 29.1467 13.5782 29.0411 13.665 28.9518L15.474 27.0948C15.5604 27.0049 15.6637 26.9331 15.778 26.8833C15.8923 26.8335 16.0153 26.8068 16.14 26.8048V26.8038ZM19.12 26.8038C19.2446 26.8022 19.3682 26.8252 19.4839 26.8715C19.5996 26.9179 19.7049 26.9866 19.794 27.0738C19.8837 27.1602 19.9554 27.2635 20.005 27.3777C20.0546 27.492 20.0811 27.6149 20.0831 27.7394C20.0851 27.8639 20.0624 27.9876 20.0164 28.1034C19.9703 28.2191 19.9019 28.3246 19.815 28.4138L18.007 30.2718C17.9203 30.3611 17.817 30.4326 17.7027 30.4819C17.5884 30.5313 17.4656 30.5577 17.3411 30.5596C17.2167 30.5614 17.0931 30.5387 16.9774 30.4928C16.8617 30.4468 16.7562 30.3785 16.667 30.2918C16.5773 30.2053 16.5056 30.102 16.456 29.9878C16.4064 29.8736 16.3798 29.7507 16.3779 29.6261C16.3759 29.5016 16.3986 29.3779 16.4446 29.2622C16.4906 29.1465 16.5591 29.041 16.646 28.9518L18.454 27.0948C18.5404 27.0049 18.6437 26.9331 18.758 26.8833C18.8723 26.8335 18.9953 26.8068 19.12 26.8048V26.8038ZM22.099 26.8038C22.2236 26.8021 22.3473 26.8251 22.4629 26.8715C22.5786 26.9178 22.684 26.9866 22.773 27.0738C22.8627 27.1602 22.9344 27.2635 22.984 27.3777C23.0336 27.492 23.0601 27.6149 23.0621 27.7394C23.0641 27.8639 23.0414 27.9876 22.9954 28.1034C22.9493 28.2191 22.8809 28.3246 22.794 28.4138L20.985 30.2718C20.8983 30.3611 20.7949 30.4326 20.6807 30.4819C20.5664 30.5313 20.4436 30.5577 20.3191 30.5596C20.1947 30.5614 20.0711 30.5387 19.9554 30.4928C19.8397 30.4468 19.7342 30.3785 19.645 30.2918C19.5553 30.2053 19.4836 30.102 19.434 29.9878C19.3844 29.8736 19.3578 29.7507 19.3559 29.6261C19.3539 29.5016 19.3766 29.3779 19.4226 29.2622C19.4686 29.1465 19.5371 29.041 19.624 28.9518L21.433 27.0948C21.5194 27.0049 21.6227 26.9331 21.737 26.8833C21.8513 26.8335 21.9743 26.8068 22.099 26.8048V26.8038ZM25.077 26.8038C25.2016 26.8021 25.3253 26.8251 25.4409 26.8715C25.5566 26.9178 25.662 26.9866 25.751 27.0738C26.128 27.4388 26.141 28.0368 25.774 28.4138L23.966 30.2718C23.8793 30.3611 23.776 30.4326 23.6617 30.4819C23.5474 30.5313 23.4246 30.5577 23.3001 30.5596C23.1757 30.5614 23.0521 30.5387 22.9364 30.4928C22.8207 30.4468 22.7152 30.3785 22.626 30.2918C22.5362 30.2055 22.4643 30.1023 22.4145 29.9881C22.3647 29.874 22.338 29.7511 22.3358 29.6266C22.3337 29.502 22.3562 29.3783 22.4021 29.2625C22.4479 29.1467 22.5162 29.0411 22.603 28.9518L24.411 27.0948C24.4974 27.0049 24.6007 26.9331 24.715 26.8833C24.8293 26.8335 24.9523 26.8068 25.077 26.8048V26.8038ZM28.057 26.8038C28.1816 26.8022 28.3052 26.8252 28.4209 26.8715C28.5366 26.9179 28.642 26.9866 28.731 27.0738C28.8207 27.1601 28.8925 27.2634 28.9422 27.3776C28.9919 27.4918 29.0186 27.6147 29.0206 27.7392C29.0226 27.8637 29.0001 27.9874 28.9541 28.1032C28.9082 28.219 28.8398 28.3245 28.753 28.4138L26.944 30.2718C26.8573 30.3611 26.7539 30.4326 26.6397 30.4819C26.5254 30.5313 26.4026 30.5577 26.2781 30.5596C26.1537 30.5614 26.0301 30.5387 25.9144 30.4928C25.7987 30.4468 25.6932 30.3785 25.604 30.2918C25.5143 30.2053 25.4426 30.102 25.393 29.9878C25.3434 29.8736 25.3168 29.7507 25.3149 29.6261C25.3129 29.5016 25.3356 29.3779 25.3816 29.2622C25.4276 29.1465 25.4961 29.041 25.583 28.9518L27.392 27.0948C27.4784 27.0049 27.5817 26.9331 27.696 26.8833C27.8103 26.8335 27.9333 26.8068 28.058 26.8048V26.8038H28.057ZM31.037 26.8038C31.1614 26.8023 31.2849 26.8253 31.4004 26.8717C31.5159 26.918 31.6211 26.9867 31.71 27.0738C31.7997 27.1602 31.8714 27.2635 31.921 27.3777C31.9706 27.492 31.9971 27.6149 31.9991 27.7394C32.001 27.8639 31.9784 27.9876 31.9324 28.1034C31.8863 28.2191 31.8179 28.3246 31.731 28.4138L29.923 30.2718C29.8363 30.3611 29.733 30.4326 29.6187 30.4819C29.5044 30.5313 29.3816 30.5577 29.2571 30.5596C29.1327 30.5614 29.0091 30.5387 28.8934 30.4928C28.7777 30.4468 28.6722 30.3785 28.583 30.2918C28.4933 30.2053 28.4216 30.102 28.372 29.9878C28.3224 29.8736 28.2958 29.7507 28.2939 29.6261C28.2919 29.5016 28.3146 29.3779 28.3606 29.2622C28.4066 29.1465 28.4751 29.041 28.562 28.9518L30.37 27.0948C30.4564 27.0049 30.5597 26.9331 30.674 26.8833C30.7883 26.8335 30.9113 26.8068 31.036 26.8048V26.8038H31.037ZM34.015 26.8038C34.1394 26.8023 34.2629 26.8253 34.3784 26.8717C34.4939 26.918 34.5991 26.9867 34.688 27.0738C35.065 27.4388 35.078 28.0368 34.712 28.4138L32.903 30.2718C32.8163 30.3611 32.713 30.4326 32.5987 30.4819C32.4844 30.5313 32.3616 30.5577 32.2371 30.5596C32.1127 30.5614 31.9891 30.5387 31.8734 30.4928C31.7577 30.4468 31.6522 30.3785 31.563 30.2918C31.4732 30.2055 31.4013 30.1023 31.3515 29.9881C31.3017 29.874 31.275 29.7511 31.2728 29.6266C31.2707 29.502 31.2932 29.3783 31.3391 29.2625C31.3849 29.1467 31.4532 29.0411 31.54 28.9518L33.349 27.0948C33.4354 27.0049 33.5387 26.9331 33.653 26.8833C33.7673 26.8335 33.8903 26.8068 34.015 26.8048V26.8038ZM13.795 32.9788C13.8232 32.9814 13.8495 32.9945 13.8686 33.0155C13.8877 33.0365 13.8983 33.0639 13.8983 33.0923C13.8983 33.1207 13.8877 33.148 13.8686 33.169C13.8495 33.19 13.8232 33.2031 13.795 33.2058C13.7656 33.2047 13.7378 33.1924 13.7173 33.1714C13.6968 33.1503 13.6852 33.1222 13.685 33.0928C13.685 33.0298 13.734 32.9798 13.795 32.9788ZM14.358 32.9788C14.3849 32.978 14.4112 32.9871 14.4319 33.0045C14.4525 33.0218 14.4661 33.0461 14.47 33.0728V33.0928C14.469 33.1538 14.42 33.2058 14.358 33.2058C14.3282 33.2053 14.2997 33.1932 14.2786 33.1721C14.2576 33.151 14.2455 33.1226 14.245 33.0928C14.245 33.0298 14.296 32.9798 14.358 32.9788ZM14.921 32.9788C14.9477 32.9782 14.9738 32.9875 14.9942 33.0048C15.0147 33.0221 15.0281 33.0463 15.032 33.0728V33.0928C15.032 33.1538 14.982 33.2058 14.921 33.2058C14.8911 33.2055 14.8625 33.1935 14.8414 33.1724C14.8202 33.1513 14.8082 33.1227 14.808 33.0928C14.808 33.0298 14.858 32.9788 14.921 32.9788ZM15.483 32.9788C15.543 32.9788 15.591 33.0258 15.595 33.0848V33.0928C15.594 33.1538 15.545 33.2058 15.483 33.2058C15.4531 33.2055 15.4245 33.1935 15.4034 33.1724C15.3822 33.1513 15.3702 33.1227 15.37 33.0928C15.37 33.0298 15.42 32.9788 15.483 32.9788ZM16.046 32.9788C16.106 32.9788 16.154 33.0258 16.157 33.0848V33.0928C16.157 33.1538 16.107 33.2058 16.046 33.2058C16.0161 33.2055 15.9875 33.1935 15.9664 33.1724C15.9452 33.1513 15.9332 33.1227 15.933 33.0928C15.933 33.0298 15.983 32.9788 16.046 32.9788ZM16.608 32.9788C16.668 32.9788 16.716 33.0258 16.72 33.0848V33.0928C16.719 33.1538 16.67 33.2058 16.608 33.2058C16.5781 33.2055 16.5495 33.1935 16.5284 33.1724C16.5072 33.1513 16.4952 33.1227 16.495 33.0928C16.495 33.0298 16.545 32.9788 16.608 32.9788ZM17.169 32.9788C17.229 32.9788 17.279 33.0248 17.282 33.0848V33.0928C17.2817 33.1227 17.2697 33.1513 17.2486 33.1724C17.2275 33.1935 17.1989 33.2055 17.169 33.2058C17.1394 33.205 17.1114 33.1928 17.0906 33.1717C17.0699 33.1506 17.0582 33.1223 17.058 33.0928C17.058 33.0298 17.107 32.9798 17.169 32.9788ZM17.732 32.9788C17.792 32.9788 17.842 33.0248 17.845 33.0848V33.0928C17.8447 33.1228 17.8326 33.1516 17.8112 33.1727C17.7899 33.1939 17.761 33.2058 17.731 33.2058C17.7016 33.2047 17.6738 33.1924 17.6533 33.1714C17.6328 33.1503 17.6212 33.1222 17.621 33.0928C17.62 33.0298 17.67 32.9798 17.731 32.9788H17.732ZM18.294 32.9788C18.354 32.9788 18.404 33.0248 18.407 33.0848V33.0928C18.4067 33.1227 18.3947 33.1513 18.3736 33.1724C18.3525 33.1935 18.3239 33.2055 18.294 33.2058C18.2644 33.205 18.2364 33.1928 18.2156 33.1717C18.1949 33.1506 18.1832 33.1223 18.183 33.0928C18.183 33.0298 18.232 32.9798 18.294 32.9788ZM18.857 32.9788C18.8836 32.9785 18.9094 32.9879 18.9296 33.0051C18.9498 33.0224 18.9631 33.0465 18.967 33.0728V33.0928C18.967 33.1538 18.917 33.2058 18.857 33.2058C18.8273 33.2053 18.7989 33.1931 18.778 33.172C18.7571 33.1509 18.7452 33.1225 18.745 33.0928C18.745 33.0298 18.795 32.9798 18.856 32.9788H18.857ZM19.419 32.9788C19.479 32.9788 19.527 33.0258 19.53 33.0848V33.0928C19.53 33.1538 19.48 33.2058 19.419 33.2058C19.3891 33.2055 19.3605 33.1935 19.3394 33.1724C19.3182 33.1513 19.3062 33.1227 19.306 33.0928C19.306 33.0298 19.356 32.9788 19.419 32.9788ZM19.982 32.9788C20.041 32.9788 20.089 33.0258 20.092 33.0848V33.0928C20.092 33.1538 20.042 33.2058 19.982 33.2058C19.9519 33.2058 19.9231 33.1939 19.9017 33.1727C19.8804 33.1516 19.8682 33.1228 19.868 33.0928C19.868 33.0298 19.918 32.9788 19.981 32.9788H19.982ZM20.544 32.9788C20.604 32.9788 20.652 33.0258 20.655 33.0848V33.0928C20.655 33.1538 20.605 33.2058 20.544 33.2058C20.5141 33.2055 20.4855 33.1935 20.4644 33.1724C20.4432 33.1513 20.4312 33.1227 20.431 33.0928C20.431 33.0298 20.481 32.9788 20.544 32.9788ZM21.107 32.9788C21.166 32.9788 21.214 33.0258 21.217 33.0848V33.0928C21.217 33.1538 21.167 33.2058 21.107 33.2058C21.0769 33.2058 21.0481 33.1939 21.0267 33.1727C21.0054 33.1516 20.9932 33.1228 20.993 33.0928C20.993 33.0298 21.043 32.9788 21.106 32.9788H21.107ZM21.667 32.9788C21.727 32.9788 21.777 33.0248 21.78 33.0848V33.0928C21.7797 33.1227 21.7677 33.1513 21.7466 33.1724C21.7255 33.1935 21.6969 33.2055 21.667 33.2058C21.6374 33.205 21.6094 33.1928 21.5886 33.1717C21.5679 33.1506 21.5562 33.1223 21.556 33.0928C21.556 33.0298 21.605 32.9798 21.667 32.9788ZM22.23 32.9788C22.29 32.9788 22.34 33.0248 22.343 33.0848V33.0928C22.3427 33.1227 22.3307 33.1513 22.3096 33.1724C22.2885 33.1935 22.2599 33.2055 22.23 33.2058C22.2003 33.2053 22.1719 33.1931 22.151 33.172C22.1301 33.1509 22.1182 33.1225 22.118 33.0928C22.118 33.0298 22.168 32.9798 22.229 32.9788H22.23ZM22.792 32.9788C22.8202 32.9814 22.8465 32.9945 22.8656 33.0155C22.8847 33.0365 22.8953 33.0639 22.8953 33.0923C22.8953 33.1207 22.8847 33.148 22.8656 33.169C22.8465 33.19 22.8202 33.2031 22.792 33.2058C22.7624 33.205 22.7344 33.1928 22.7136 33.1717C22.6929 33.1506 22.6812 33.1223 22.681 33.0928C22.681 33.0298 22.73 32.9798 22.792 32.9788ZM23.355 32.9788C23.409 32.9788 23.458 33.0188 23.465 33.0728V33.0928C23.465 33.1538 23.415 33.2058 23.355 33.2058C23.3253 33.2053 23.2969 33.1931 23.276 33.172C23.2551 33.1509 23.2432 33.1225 23.243 33.0928C23.243 33.0298 23.293 32.9798 23.354 32.9788H23.355ZM23.917 32.9788C23.9438 32.9782 23.9698 32.9875 23.9902 33.0048C24.0107 33.0221 24.0241 33.0463 24.028 33.0728V33.0928C24.028 33.1538 23.978 33.2058 23.917 33.2058C23.8871 33.2055 23.8585 33.1935 23.8374 33.1724C23.8162 33.1513 23.8042 33.1227 23.804 33.0928C23.804 33.0298 23.854 32.9788 23.917 32.9788ZM24.48 32.9788C24.539 32.9788 24.587 33.0258 24.59 33.0848V33.0928C24.59 33.1538 24.54 33.2058 24.48 33.2058C24.4499 33.2058 24.4211 33.1939 24.3997 33.1727C24.3784 33.1516 24.3662 33.1228 24.366 33.0928C24.366 33.0298 24.416 32.9788 24.48 32.9788ZM25.042 32.9788C25.102 32.9788 25.15 33.0258 25.153 33.0848V33.0928C25.153 33.1538 25.103 33.2058 25.042 33.2058C25.0121 33.2055 24.9835 33.1935 24.9624 33.1724C24.9412 33.1513 24.9292 33.1227 24.929 33.0928C24.929 33.0298 24.979 32.9788 25.042 32.9788ZM25.602 32.9788C25.662 32.9788 25.712 33.0248 25.716 33.0848V33.0928C25.7157 33.1227 25.7037 33.1513 25.6826 33.1724C25.6615 33.1935 25.6329 33.2055 25.603 33.2058C25.5733 33.2053 25.5449 33.1931 25.524 33.172C25.5031 33.1509 25.4912 33.1225 25.491 33.0928C25.491 33.0298 25.541 32.9798 25.603 32.9788H25.602ZM26.165 32.9788C26.225 32.9788 26.275 33.0248 26.278 33.0848V33.0928C26.2777 33.1227 26.2657 33.1513 26.2446 33.1724C26.2235 33.1935 26.1949 33.2055 26.165 33.2058C26.1354 33.205 26.1074 33.1928 26.0866 33.1717C26.0659 33.1506 26.0542 33.1223 26.054 33.0928C26.054 33.0298 26.104 32.9798 26.165 32.9788ZM26.728 32.9788C26.788 32.9788 26.838 33.0248 26.841 33.0848V33.0928C26.8407 33.1227 26.8287 33.1513 26.8076 33.1724C26.7865 33.1935 26.7579 33.2055 26.728 33.2058C26.6983 33.2053 26.6699 33.1931 26.649 33.172C26.6281 33.1509 26.6162 33.1225 26.616 33.0928C26.616 33.0298 26.666 32.9798 26.728 32.9788ZM27.29 32.9788C27.3182 32.9814 27.3445 32.9945 27.3636 33.0155C27.3827 33.0365 27.3933 33.0639 27.3933 33.0923C27.3933 33.1207 27.3827 33.148 27.3636 33.169C27.3445 33.19 27.3182 33.2031 27.29 33.2058C27.2604 33.205 27.2324 33.1928 27.2116 33.1717C27.1909 33.1506 27.1792 33.1223 27.179 33.0928C27.179 33.0298 27.229 32.9798 27.29 32.9788ZM27.853 32.9788C27.8796 32.9785 27.9054 32.9879 27.9256 33.0051C27.9458 33.0224 27.9591 33.0465 27.963 33.0728C27.965 33.0808 27.965 33.0848 27.963 33.0928C27.963 33.1538 27.913 33.2058 27.853 33.2058C27.8233 33.2053 27.7949 33.1931 27.774 33.172C27.7531 33.1509 27.7412 33.1225 27.741 33.0928C27.741 33.0298 27.791 32.9798 27.853 32.9788ZM28.415 32.9788C28.475 32.9788 28.523 33.0258 28.526 33.0848V33.0928C28.526 33.1538 28.476 33.2058 28.416 33.2058C28.3859 33.2058 28.3571 33.1939 28.3357 33.1727C28.3144 33.1516 28.3022 33.1228 28.302 33.0928C28.302 33.0298 28.352 32.9788 28.415 32.9788ZM28.978 32.9788C29.037 32.9788 29.085 33.0258 29.088 33.0848V33.0928C29.088 33.1538 29.038 33.2058 28.978 33.2058C28.9479 33.2058 28.9191 33.1939 28.8977 33.1727C28.8764 33.1516 28.8642 33.1228 28.864 33.0928C28.864 33.0298 28.914 32.9788 28.978 32.9788ZM29.54 32.9788C29.6 32.9788 29.648 33.0258 29.651 33.0848V33.0928C29.651 33.1538 29.601 33.2058 29.541 33.2058C29.5109 33.2058 29.4821 33.1939 29.4607 33.1727C29.4394 33.1516 29.4272 33.1228 29.427 33.0928C29.427 33.0298 29.477 32.9788 29.54 32.9788ZM30.1 32.9788C30.16 32.9788 30.21 33.0248 30.214 33.0848V33.0928C30.2137 33.1227 30.2017 33.1513 30.1806 33.1724C30.1595 33.1935 30.1309 33.2055 30.101 33.2058C30.0713 33.2053 30.0429 33.1931 30.022 33.172C30.0011 33.1509 29.9892 33.1225 29.989 33.0928C29.989 33.0298 30.039 32.9798 30.101 32.9788H30.1ZM30.663 32.9788C30.723 32.9788 30.773 33.0248 30.776 33.0848V33.0928C30.7757 33.1227 30.7637 33.1513 30.7426 33.1724C30.7215 33.1935 30.6929 33.2055 30.663 33.2058C30.6334 33.205 30.6054 33.1928 30.5846 33.1717C30.5639 33.1506 30.5522 33.1223 30.552 33.0928C30.552 33.0298 30.602 32.9798 30.663 32.9788ZM31.226 32.9788C31.286 32.9788 31.336 33.0248 31.339 33.0848V33.0928C31.3387 33.1227 31.3267 33.1513 31.3056 33.1724C31.2845 33.1935 31.2559 33.2055 31.226 33.2058C31.1963 33.2053 31.1679 33.1931 31.147 33.172C31.1261 33.1509 31.1142 33.1225 31.114 33.0928C31.114 33.0298 31.164 32.9798 31.226 32.9788ZM31.788 32.9788C31.8148 32.9782 31.8408 32.9875 31.8612 33.0048C31.8817 33.0221 31.8951 33.0463 31.899 33.0728V33.0928C31.899 33.1538 31.849 33.2058 31.789 33.2058C31.7593 33.2053 31.7309 33.1931 31.71 33.172C31.6891 33.1509 31.6772 33.1225 31.677 33.0928C31.676 33.0298 31.727 32.9798 31.788 32.9788ZM32.351 32.9788C32.3776 32.9785 32.4034 32.9879 32.4236 33.0051C32.4438 33.0224 32.4571 33.0465 32.461 33.0728C32.463 33.0808 32.463 33.0848 32.461 33.0928C32.461 33.1538 32.411 33.2058 32.351 33.2058C32.3209 33.2058 32.2921 33.1939 32.2707 33.1727C32.2494 33.1516 32.2372 33.1228 32.237 33.0928C32.237 33.0298 32.287 32.9788 32.351 32.9788ZM32.913 32.9788C32.973 32.9788 33.021 33.0258 33.024 33.0848V33.0928C33.024 33.1538 32.974 33.2058 32.914 33.2058C32.8839 33.2058 32.8551 33.1939 32.8337 33.1727C32.8124 33.1516 32.8002 33.1228 32.8 33.0928C32.8 33.0298 32.85 32.9788 32.913 32.9788ZM33.476 32.9788C33.535 32.9788 33.583 33.0258 33.586 33.0848V33.0928C33.586 33.1538 33.536 33.2058 33.476 33.2058C33.4459 33.2058 33.4171 33.1939 33.3957 33.1727C33.3744 33.1516 33.3622 33.1228 33.362 33.0928C33.362 33.0298 33.412 32.9788 33.476 32.9788ZM34.038 32.9788C34.098 32.9788 34.146 33.0258 34.149 33.0848V33.0928C34.149 33.1538 34.099 33.2058 34.039 33.2058C34.0089 33.2058 33.9801 33.1939 33.9587 33.1727C33.9374 33.1516 33.9252 33.1228 33.925 33.0928C33.925 33.0298 33.975 32.9788 34.038 32.9788ZM34.598 32.9788C34.658 32.9788 34.708 33.0248 34.712 33.0848V33.0928C34.7117 33.1227 34.6997 33.1513 34.6786 33.1724C34.6575 33.1935 34.6289 33.2055 34.599 33.2058C34.5693 33.2053 34.5409 33.1931 34.52 33.172C34.4991 33.1509 34.4872 33.1225 34.487 33.0928C34.487 33.0298 34.537 32.9798 34.599 32.9788H34.598ZM16.14 35.9918C16.2646 35.9901 16.3883 36.0131 16.5039 36.0595C16.6196 36.1058 16.725 36.1746 16.814 36.2618C17.19 36.6278 17.204 37.2248 16.837 37.6018L15.028 39.4608C14.9413 39.5501 14.8379 39.6216 14.7237 39.6709C14.6094 39.7203 14.4866 39.7467 14.3621 39.7486C14.2377 39.7504 14.1141 39.7277 13.9984 39.6818C13.8827 39.6358 13.7772 39.5675 13.688 39.4808C13.5982 39.3945 13.5263 39.2913 13.4765 39.1771C13.4267 39.063 13.4 38.9401 13.3978 38.8156C13.3957 38.691 13.4182 38.5673 13.4641 38.4515C13.5099 38.3357 13.5782 38.2301 13.665 38.1408L15.474 36.2828C15.5605 36.1931 15.6639 36.1214 15.7781 36.0718C15.8924 36.0222 16.0154 35.9957 16.14 35.9938V35.9918ZM19.12 35.9918C19.2446 35.9902 19.3682 36.0132 19.4839 36.0595C19.5996 36.1059 19.7049 36.1746 19.794 36.2618C19.8837 36.3482 19.9554 36.4515 20.005 36.5657C20.0546 36.68 20.0811 36.8029 20.0831 36.9274C20.0851 37.0519 20.0624 37.1756 20.0164 37.2914C19.9703 37.4071 19.9019 37.5126 19.815 37.6018L18.007 39.4608C17.9203 39.5501 17.817 39.6216 17.7027 39.6709C17.5884 39.7203 17.4656 39.7467 17.3411 39.7486C17.2167 39.7504 17.0931 39.7277 16.9774 39.6818C16.8617 39.6358 16.7562 39.5675 16.667 39.4808C16.5773 39.3943 16.5056 39.2911 16.456 39.1768C16.4064 39.0626 16.3798 38.9397 16.3779 38.8151C16.3759 38.6906 16.3986 38.5669 16.4446 38.4512C16.4906 38.3355 16.5591 38.23 16.646 38.1408L18.454 36.2828C18.5405 36.1931 18.6439 36.1214 18.7582 36.0718C18.8724 36.0222 18.9954 35.9957 19.12 35.9938V35.9918ZM22.099 35.9918C22.2236 35.9901 22.3473 36.0131 22.4629 36.0595C22.5786 36.1058 22.684 36.1746 22.773 36.2618C22.8627 36.3482 22.9344 36.4515 22.984 36.5657C23.0336 36.68 23.0601 36.8029 23.0621 36.9274C23.0641 37.0519 23.0414 37.1756 22.9954 37.2914C22.9493 37.4071 22.8809 37.5126 22.794 37.6018L20.985 39.4608C20.8983 39.5501 20.7949 39.6216 20.6807 39.6709C20.5664 39.7203 20.4436 39.7467 20.3191 39.7486C20.1947 39.7504 20.0711 39.7277 19.9554 39.6818C19.8397 39.6358 19.7342 39.5675 19.645 39.4808C19.5553 39.3943 19.4836 39.2911 19.434 39.1768C19.3844 39.0626 19.3578 38.9397 19.3559 38.8151C19.3539 38.6906 19.3766 38.5669 19.4226 38.4512C19.4686 38.3355 19.5371 38.23 19.624 38.1408L21.433 36.2828C21.5195 36.1931 21.6229 36.1214 21.7372 36.0718C21.8514 36.0222 21.9744 35.9957 22.099 35.9938V35.9918ZM25.077 35.9918C25.2016 35.9901 25.3253 36.0131 25.4409 36.0595C25.5566 36.1058 25.662 36.1746 25.751 36.2618C26.128 36.6278 26.141 37.2248 25.774 37.6018L23.966 39.4608C23.8793 39.5501 23.776 39.6216 23.6617 39.6709C23.5474 39.7203 23.4246 39.7467 23.3001 39.7486C23.1757 39.7504 23.0521 39.7277 22.9364 39.6818C22.8207 39.6358 22.7152 39.5675 22.626 39.4808C22.5362 39.3945 22.4643 39.2913 22.4145 39.1771C22.3647 39.063 22.338 38.9401 22.3358 38.8156C22.3337 38.691 22.3562 38.5673 22.4021 38.4515C22.4479 38.3357 22.5162 38.2301 22.603 38.1408L24.411 36.2828C24.4975 36.1931 24.6009 36.1214 24.7151 36.0718C24.8294 36.0222 24.9524 35.9957 25.077 35.9938V35.9918ZM28.057 35.9918C28.1816 35.9902 28.3052 36.0132 28.4209 36.0595C28.5366 36.1059 28.642 36.1746 28.731 36.2618C28.8207 36.3481 28.8925 36.4514 28.9422 36.5656C28.9919 36.6798 29.0186 36.8027 29.0206 36.9272C29.0226 37.0517 29.0001 37.1754 28.9541 37.2912C28.9082 37.407 28.8398 37.5125 28.753 37.6018L26.944 39.4608C26.8573 39.5501 26.7539 39.6216 26.6397 39.6709C26.5254 39.7203 26.4026 39.7467 26.2781 39.7486C26.1537 39.7504 26.0301 39.7277 25.9144 39.6818C25.7987 39.6358 25.6932 39.5675 25.604 39.4808C25.5143 39.3943 25.4426 39.2911 25.393 39.1768C25.3434 39.0626 25.3168 38.9397 25.3149 38.8151C25.3129 38.6906 25.3356 38.5669 25.3816 38.4512C25.4276 38.3355 25.4961 38.23 25.583 38.1408L27.392 36.2828C27.4785 36.1931 27.5819 36.1214 27.6961 36.0718C27.8104 36.0222 27.9334 35.9957 28.058 35.9938V35.9918H28.057ZM31.037 35.9918C31.1614 35.9903 31.2849 36.0133 31.4004 36.0597C31.5159 36.106 31.6211 36.1747 31.71 36.2618C31.7997 36.3482 31.8714 36.4515 31.921 36.5657C31.9706 36.68 31.9971 36.8029 31.9991 36.9274C32.001 37.0519 31.9784 37.1756 31.9324 37.2914C31.8863 37.4071 31.8179 37.5126 31.731 37.6018L29.923 39.4608C29.8363 39.5501 29.733 39.6216 29.6187 39.6709C29.5044 39.7203 29.3816 39.7467 29.2571 39.7486C29.1327 39.7504 29.0091 39.7277 28.8934 39.6818C28.7777 39.6358 28.6722 39.5675 28.583 39.4808C28.4933 39.3943 28.4216 39.2911 28.372 39.1768C28.3224 39.0626 28.2958 38.9397 28.2939 38.8151C28.2919 38.6906 28.3146 38.5669 28.3606 38.4512C28.4066 38.3355 28.4751 38.23 28.562 38.1408L30.37 36.2828C30.4565 36.1931 30.5599 36.1214 30.6742 36.0718C30.7884 36.0222 30.9114 35.9957 31.036 35.9938V35.9918H31.037ZM34.015 35.9918C34.1394 35.9903 34.2629 36.0133 34.3784 36.0597C34.4939 36.106 34.5991 36.1747 34.688 36.2618C35.065 36.6278 35.078 37.2248 34.712 37.6018L32.903 39.4608C32.8163 39.5501 32.713 39.6216 32.5987 39.6709C32.4844 39.7203 32.3616 39.7467 32.2371 39.7486C32.1127 39.7504 31.9891 39.7277 31.8734 39.6818C31.7577 39.6358 31.6522 39.5675 31.563 39.4808C31.4732 39.3945 31.4013 39.2913 31.3515 39.1771C31.3017 39.063 31.275 38.9401 31.2728 38.8156C31.2707 38.691 31.2932 38.5673 31.3391 38.4515C31.3849 38.3357 31.4532 38.2301 31.54 38.1408L33.349 36.2828C33.4355 36.1931 33.5389 36.1214 33.6531 36.0718C33.7674 36.0222 33.8904 35.9957 34.015 35.9938V35.9918Z" fill="#333333"/>
</svg>
