<svg width="48" height="48" viewBox="0 0 48 48" fill="none" xmlns="http://www.w3.org/2000/svg">
<path fill-rule="evenodd" clip-rule="evenodd" d="M0 0V48H48V0H0ZM23.815 4.098C27.127 4.09 30.501 4.091 33.852 4.121C34.722 4.121 35.42 4.82 35.42 5.689V42.551C35.42 43.421 34.721 44.121 33.852 44.121H14.147C13.277 44.121 12.58 43.421 12.58 42.551V5.689C12.58 4.819 13.277 4.121 14.147 4.121C17.252 4.121 20.502 4.105 23.815 4.098ZM19.992 5.16C19.9773 5.16092 19.9629 5.16473 19.9497 5.1712C19.9364 5.17768 19.9246 5.1867 19.9149 5.19775C19.8952 5.22007 19.8851 5.2493 19.887 5.279C19.8889 5.3087 19.9024 5.33645 19.9248 5.35615C19.9471 5.37584 19.9763 5.38586 20.006 5.384C20.0357 5.38214 20.0635 5.36856 20.0831 5.34625C20.1028 5.32393 20.1129 5.2947 20.111 5.265C20.1091 5.2353 20.0956 5.20755 20.0732 5.18785C20.0509 5.16816 20.0217 5.15814 19.992 5.16ZM27.992 5.16C27.9773 5.16092 27.9629 5.16473 27.9497 5.1712C27.9364 5.17768 27.9246 5.1867 27.9149 5.19775C27.8952 5.22007 27.8851 5.2493 27.887 5.279C27.8889 5.3087 27.9024 5.33645 27.9248 5.35615C27.9471 5.37584 27.9763 5.38586 28.006 5.384C28.0357 5.38214 28.0635 5.36856 28.0831 5.34625C28.1028 5.32393 28.1129 5.2947 28.111 5.265C28.1091 5.2353 28.0956 5.20755 28.0732 5.18785C28.0509 5.16816 28.0217 5.15814 27.992 5.16ZM19.992 5.723C19.9773 5.72392 19.9629 5.72773 19.9497 5.7342C19.9364 5.74068 19.9246 5.7497 19.9149 5.76075C19.9051 5.7718 19.8976 5.78467 19.8928 5.79861C19.8881 5.81255 19.8861 5.82729 19.887 5.842C19.8879 5.85671 19.8917 5.87109 19.8982 5.88433C19.9047 5.89756 19.9137 5.9094 19.9248 5.91915C19.9358 5.9289 19.9487 5.93637 19.9626 5.94115C19.9765 5.94593 19.9913 5.94792 20.006 5.947C20.0357 5.94514 20.0635 5.93156 20.0831 5.90925C20.1028 5.88693 20.1129 5.8577 20.111 5.828C20.1091 5.7983 20.0956 5.77055 20.0732 5.75085C20.0509 5.73116 20.0217 5.72114 19.992 5.723ZM27.992 5.723C27.9773 5.72392 27.9629 5.72773 27.9497 5.7342C27.9364 5.74068 27.9246 5.7497 27.9149 5.76075C27.9051 5.7718 27.8976 5.78467 27.8928 5.79861C27.8881 5.81255 27.8861 5.82729 27.887 5.842C27.8879 5.85671 27.8917 5.87109 27.8982 5.88433C27.9047 5.89756 27.9137 5.9094 27.9248 5.91915C27.9358 5.9289 27.9487 5.93637 27.9626 5.94115C27.9765 5.94593 27.9913 5.94792 28.006 5.947C28.0357 5.94514 28.0635 5.93156 28.0831 5.90925C28.1028 5.88693 28.1129 5.8577 28.111 5.828C28.1091 5.7983 28.0956 5.77055 28.0732 5.75085C28.0509 5.73116 28.0217 5.72114 27.992 5.723ZM19.982 6.285C19.9556 6.28926 19.9315 6.30276 19.9141 6.32308C19.8968 6.34341 19.8871 6.36925 19.887 6.396C19.887 6.4257 19.8988 6.45419 19.9198 6.4752C19.9408 6.4962 19.9693 6.508 19.999 6.508C20.0287 6.508 20.0572 6.4962 20.0782 6.4752C20.0992 6.45419 20.111 6.4257 20.111 6.396C20.111 6.336 20.061 6.286 20.001 6.285H19.981H19.982ZM27.982 6.285C27.9556 6.28926 27.9315 6.30276 27.9141 6.32308C27.8968 6.34341 27.8871 6.36925 27.887 6.396C27.887 6.4257 27.8988 6.45419 27.9198 6.4752C27.9408 6.4962 27.9693 6.508 27.999 6.508C28.0287 6.508 28.0572 6.4962 28.0782 6.4752C28.0992 6.45419 28.111 6.4257 28.111 6.396C28.111 6.336 28.061 6.286 28.001 6.285H27.981H27.982ZM20.002 6.845C19.9863 6.84352 19.9705 6.84533 19.9556 6.85031C19.9407 6.85529 19.927 6.86334 19.9153 6.87393C19.9037 6.88452 19.8944 6.89742 19.888 6.91181C19.8817 6.9262 19.8784 6.94177 19.8784 6.9575C19.8784 6.97323 19.8817 6.9888 19.888 7.00319C19.8944 7.01758 19.9037 7.03048 19.9153 7.04107C19.927 7.05166 19.9407 7.05971 19.9556 7.06469C19.9705 7.06967 19.9863 7.07148 20.002 7.07C20.0317 7.07 20.0602 7.0582 20.0812 7.0372C20.1022 7.01619 20.114 6.9877 20.114 6.958C20.114 6.9283 20.1022 6.89981 20.0812 6.8788C20.0602 6.8578 20.0317 6.846 20.002 6.846V6.845ZM28.002 6.845C27.9863 6.84352 27.9705 6.84533 27.9556 6.85031C27.9407 6.85529 27.927 6.86334 27.9153 6.87393C27.9037 6.88452 27.8944 6.89742 27.888 6.91181C27.8817 6.9262 27.8784 6.94177 27.8784 6.9575C27.8784 6.97323 27.8817 6.9888 27.888 7.00319C27.8944 7.01758 27.9037 7.03048 27.9153 7.04107C27.927 7.05166 27.9407 7.05971 27.9556 7.06469C27.9705 7.06967 27.9863 7.07148 28.002 7.07C28.0317 7.07 28.0602 7.0582 28.0812 7.0372C28.1022 7.01619 28.114 6.9877 28.114 6.958C28.114 6.9283 28.1022 6.89981 28.0812 6.8788C28.0602 6.8578 28.0317 6.846 28.002 6.846V6.845ZM19.992 7.408C19.9773 7.40892 19.9629 7.41273 19.9497 7.4192C19.9364 7.42568 19.9246 7.4347 19.9149 7.44575C19.9051 7.4568 19.8976 7.46967 19.8928 7.48361C19.8881 7.49755 19.8861 7.51229 19.887 7.527C19.8879 7.54171 19.8917 7.55609 19.8982 7.56933C19.9047 7.58256 19.9137 7.5944 19.9248 7.60415C19.9358 7.6139 19.9487 7.62137 19.9626 7.62615C19.9765 7.63093 19.9913 7.63292 20.006 7.632C20.0357 7.63014 20.0635 7.61656 20.0831 7.59425C20.1028 7.57193 20.1129 7.5427 20.111 7.513C20.1091 7.4833 20.0956 7.45555 20.0732 7.43585C20.0509 7.41616 20.0217 7.40614 19.992 7.408ZM27.992 7.408C27.9773 7.40892 27.9629 7.41273 27.9497 7.4192C27.9364 7.42568 27.9246 7.4347 27.9149 7.44575C27.9051 7.4568 27.8976 7.46967 27.8928 7.48361C27.8881 7.49755 27.8861 7.51229 27.887 7.527C27.8879 7.54171 27.8917 7.55609 27.8982 7.56933C27.9047 7.58256 27.9137 7.5944 27.9248 7.60415C27.9358 7.6139 27.9487 7.62137 27.9626 7.62615C27.9765 7.63093 27.9913 7.63292 28.006 7.632C28.0357 7.63014 28.0635 7.61656 28.0831 7.59425C28.1028 7.57193 28.1129 7.5427 28.111 7.513C28.1091 7.4833 28.0956 7.45555 28.0732 7.43585C28.0509 7.41616 28.0217 7.40614 27.992 7.408ZM19.992 7.968C19.9772 7.96892 19.9628 7.97274 19.9495 7.97924C19.9362 7.98575 19.9243 7.9948 19.9145 8.0059C19.9047 8.017 19.8972 8.02991 19.8924 8.04392C19.8876 8.05792 19.8856 8.07273 19.8865 8.0875C19.8874 8.10227 19.8912 8.11672 19.8977 8.13002C19.9042 8.14332 19.9133 8.1552 19.9244 8.165C19.9355 8.1748 19.9484 8.18231 19.9624 8.18712C19.9764 8.19192 19.9912 8.19392 20.006 8.193C20.0357 8.19114 20.0635 8.17756 20.0831 8.15525C20.1028 8.13293 20.1129 8.1037 20.111 8.074C20.1091 8.0443 20.0956 8.01655 20.0732 7.99685C20.0509 7.97716 20.0217 7.96714 19.992 7.969V7.968ZM27.992 7.968C27.9772 7.96892 27.9628 7.97274 27.9495 7.97924C27.9362 7.98575 27.9243 7.9948 27.9145 8.0059C27.9047 8.017 27.8972 8.02991 27.8924 8.04392C27.8876 8.05792 27.8856 8.07273 27.8865 8.0875C27.8874 8.10227 27.8912 8.11672 27.8977 8.13002C27.9042 8.14332 27.9133 8.1552 27.9244 8.165C27.9355 8.1748 27.9484 8.18231 27.9624 8.18712C27.9764 8.19192 27.9912 8.19392 28.006 8.193C28.0357 8.19114 28.0635 8.17756 28.0831 8.15525C28.1028 8.13293 28.1129 8.1037 28.111 8.074C28.1091 8.0443 28.0956 8.01655 28.0732 7.99685C28.0509 7.97716 28.0217 7.96714 27.992 7.969V7.968ZM19.992 8.531C19.9773 8.53192 19.9629 8.53573 19.9497 8.5422C19.9364 8.54868 19.9246 8.5577 19.9149 8.56875C19.9051 8.5798 19.8976 8.59267 19.8928 8.60661C19.8881 8.62055 19.8861 8.63529 19.887 8.65C19.8879 8.66471 19.8917 8.67909 19.8982 8.69233C19.9047 8.70557 19.9137 8.7174 19.9248 8.72715C19.9358 8.7369 19.9487 8.74438 19.9626 8.74915C19.9765 8.75393 19.9913 8.75592 20.006 8.755C20.0357 8.75314 20.0635 8.73956 20.0831 8.71725C20.1028 8.69493 20.1129 8.6657 20.111 8.636C20.1091 8.6063 20.0956 8.57855 20.0732 8.55886C20.0509 8.53916 20.0217 8.52914 19.992 8.531ZM27.992 8.531C27.9773 8.53192 27.9629 8.53573 27.9497 8.5422C27.9364 8.54868 27.9246 8.5577 27.9149 8.56875C27.9051 8.5798 27.8976 8.59267 27.8928 8.60661C27.8881 8.62055 27.8861 8.63529 27.887 8.65C27.8879 8.66471 27.8917 8.67909 27.8982 8.69233C27.9047 8.70557 27.9137 8.7174 27.9248 8.72715C27.9358 8.7369 27.9487 8.74438 27.9626 8.74915C27.9765 8.75393 27.9913 8.75592 28.006 8.755C28.0357 8.75314 28.0635 8.73956 28.0831 8.71725C28.1028 8.69493 28.1129 8.6657 28.111 8.636C28.1091 8.6063 28.0956 8.57855 28.0732 8.55886C28.0509 8.53916 28.0217 8.52914 27.992 8.531ZM19.992 9.094C19.9761 9.09312 19.9601 9.09562 19.9452 9.10135C19.9303 9.10707 19.9168 9.11589 19.9056 9.12721C19.8943 9.13854 19.8856 9.15212 19.88 9.16705C19.8744 9.18199 19.872 9.19795 19.873 9.21388C19.874 9.2298 19.8783 9.24534 19.8858 9.25946C19.8932 9.27359 19.9035 9.28597 19.9161 9.29581C19.9287 9.30565 19.9432 9.31271 19.9587 9.31653C19.9742 9.32036 19.9903 9.32086 20.006 9.318C20.0332 9.31304 20.0577 9.29827 20.0747 9.27648C20.0918 9.25469 20.1003 9.2274 20.0985 9.19978C20.0968 9.17216 20.085 9.14614 20.0654 9.12664C20.0457 9.10714 20.0196 9.09553 19.992 9.094ZM27.992 9.094C27.9761 9.09312 27.9601 9.09562 27.9452 9.10135C27.9303 9.10707 27.9168 9.11589 27.9056 9.12721C27.8943 9.13854 27.8856 9.15212 27.88 9.16705C27.8744 9.18199 27.872 9.19795 27.873 9.21388C27.874 9.2298 27.8783 9.24534 27.8858 9.25946C27.8932 9.27359 27.9035 9.28597 27.9161 9.29581C27.9287 9.30565 27.9432 9.31271 27.9587 9.31653C27.9742 9.32036 27.9903 9.32086 28.006 9.318C28.0332 9.31304 28.0577 9.29827 28.0747 9.27648C28.0918 9.25469 28.1003 9.2274 28.0985 9.19978C28.0968 9.17216 28.085 9.14614 28.0654 9.12664C28.0457 9.10714 28.0196 9.09553 27.992 9.094ZM19.992 9.656C19.9773 9.65692 19.9629 9.66073 19.9497 9.6672C19.9364 9.67368 19.9246 9.6827 19.9149 9.69375C19.9051 9.7048 19.8976 9.71767 19.8928 9.73161C19.8881 9.74555 19.8861 9.76029 19.887 9.775C19.8879 9.78971 19.8917 9.80409 19.8982 9.81733C19.9047 9.83057 19.9137 9.8424 19.9248 9.85215C19.9358 9.8619 19.9487 9.86938 19.9626 9.87415C19.9765 9.87893 19.9913 9.88092 20.006 9.88C20.0357 9.87814 20.0635 9.86456 20.0831 9.84225C20.1028 9.81993 20.1129 9.7907 20.111 9.761C20.1091 9.7313 20.0956 9.70355 20.0732 9.68386C20.0509 9.66416 20.0217 9.65414 19.992 9.656ZM27.992 9.656C27.9773 9.65692 27.9629 9.66073 27.9497 9.6672C27.9364 9.67368 27.9246 9.6827 27.9149 9.69375C27.9051 9.7048 27.8976 9.71767 27.8928 9.73161C27.8881 9.74555 27.8861 9.76029 27.887 9.775C27.8879 9.78971 27.8917 9.80409 27.8982 9.81733C27.9047 9.83057 27.9137 9.8424 27.9248 9.85215C27.9358 9.8619 27.9487 9.86938 27.9626 9.87415C27.9765 9.87893 27.9913 9.88092 28.006 9.88C28.0357 9.87814 28.0635 9.86456 28.0831 9.84225C28.1028 9.81993 28.1129 9.7907 28.111 9.761C28.1091 9.7313 28.0956 9.70355 28.0732 9.68386C28.0509 9.66416 28.0217 9.65414 27.992 9.656ZM19.981 10.219C19.9544 10.2235 19.9304 10.2374 19.9131 10.2581C19.8959 10.2788 19.8866 10.305 19.887 10.332C19.887 10.3618 19.8989 10.3905 19.92 10.4115C19.941 10.4326 19.9697 10.4445 19.9995 10.4445C20.0293 10.4445 20.058 10.4326 20.079 10.4115C20.1001 10.3905 20.112 10.3618 20.112 10.332C20.1117 10.3023 20.0999 10.2738 20.079 10.2527C20.0581 10.2316 20.0297 10.2195 20 10.219H19.981ZM27.981 10.219C27.9544 10.2235 27.9304 10.2374 27.9131 10.2581C27.8959 10.2788 27.8866 10.305 27.887 10.332C27.887 10.3618 27.8989 10.3905 27.92 10.4115C27.941 10.4326 27.9697 10.4445 27.9995 10.4445C28.0293 10.4445 28.058 10.4326 28.079 10.4115C28.1001 10.3905 28.112 10.3618 28.112 10.332C28.1117 10.3023 28.0999 10.2738 28.079 10.2527C28.0581 10.2316 28.0297 10.2195 28 10.219H27.981ZM20.002 10.779C19.987 10.7791 19.9722 10.7822 19.9584 10.7881C19.9447 10.7939 19.9322 10.8024 19.9217 10.8131C19.9112 10.8238 19.9029 10.8364 19.8973 10.8503C19.8917 10.8642 19.8889 10.879 19.889 10.894C19.889 10.956 19.939 11.004 20.002 11.004C20.0165 11.0041 20.0309 11.0014 20.0444 10.9959C20.0579 10.9904 20.0701 10.9824 20.0804 10.9721C20.0907 10.9619 20.0989 10.9497 20.1045 10.9363C20.1101 10.9229 20.113 10.9085 20.113 10.894C20.1133 10.8643 20.1019 10.8356 20.0814 10.8141C20.0608 10.7926 20.0327 10.78 20.003 10.779H20.002ZM28.002 10.779C27.987 10.7791 27.9722 10.7822 27.9584 10.7881C27.9447 10.7939 27.9322 10.8024 27.9217 10.8131C27.9112 10.8238 27.9029 10.8364 27.8973 10.8503C27.8917 10.8642 27.8889 10.879 27.889 10.894C27.889 10.956 27.939 11.004 28.002 11.004C28.0165 11.0041 28.0309 11.0014 28.0444 10.9959C28.0579 10.9904 28.0701 10.9824 28.0804 10.9721C28.0907 10.9619 28.0989 10.9497 28.1045 10.9363C28.1101 10.9229 28.113 10.9085 28.113 10.894C28.1133 10.8643 28.1019 10.8356 28.0814 10.8141C28.0608 10.7926 28.0327 10.78 28.003 10.779H28.002ZM20.002 11.342C19.9723 11.342 19.9438 11.3538 19.9228 11.3748C19.9018 11.3958 19.89 11.4243 19.89 11.454C19.89 11.4837 19.9018 11.5122 19.9228 11.5332C19.9438 11.5542 19.9723 11.566 20.002 11.566C20.0318 11.566 20.0605 11.5541 20.0815 11.533C20.1026 11.512 20.1145 11.4833 20.1145 11.4535C20.1145 11.4237 20.1026 11.395 20.0815 11.374C20.0605 11.3529 20.0318 11.341 20.002 11.341V11.342ZM28.002 11.342C27.9723 11.342 27.9438 11.3538 27.9228 11.3748C27.9018 11.3958 27.89 11.4243 27.89 11.454C27.89 11.4837 27.9018 11.5122 27.9228 11.5332C27.9438 11.5542 27.9723 11.566 28.002 11.566C28.0318 11.566 28.0605 11.5541 28.0815 11.533C28.1026 11.512 28.1145 11.4833 28.1145 11.4535C28.1145 11.4237 28.1026 11.395 28.0815 11.374C28.0605 11.3529 28.0318 11.341 28.002 11.341V11.342ZM17.532 11.556V11.559C17.4073 11.5608 17.2841 11.5873 17.1696 11.6369C17.0552 11.6865 16.9516 11.7582 16.865 11.848L15.058 13.704C14.883 13.884 14.7866 14.1261 14.79 14.3771C14.7935 14.6281 14.8966 14.8675 15.0765 15.0425C15.2564 15.2175 15.4986 15.3139 15.7496 15.3105C16.0006 15.307 16.24 15.2039 16.415 15.024L18.224 13.164C18.311 13.075 18.3795 12.9697 18.4257 12.8542C18.4719 12.7387 18.4948 12.6152 18.4931 12.4908C18.4914 12.3664 18.4652 12.2435 18.4159 12.1293C18.3667 12.015 18.2953 11.9116 18.206 11.825C18.117 11.7378 18.0116 11.669 17.896 11.6227C17.7803 11.5763 17.6566 11.5533 17.532 11.555V11.556ZM25.09 11.556V11.559C24.9654 11.5609 24.8425 11.5875 24.7282 11.6371C24.6139 11.6867 24.5105 11.7583 24.424 11.848L22.615 13.705C22.5283 13.7941 22.4601 13.8994 22.4141 14.0149C22.3681 14.1304 22.3453 14.2538 22.347 14.3781C22.3488 14.5024 22.3749 14.6251 22.4241 14.7393C22.4732 14.8535 22.5444 14.9568 22.6335 15.0435C22.7226 15.1302 22.8279 15.1984 22.9434 15.2444C23.0589 15.2904 23.1823 15.3132 23.3066 15.3115C23.4309 15.3097 23.5536 15.2836 23.6678 15.2344C23.782 15.1853 23.8853 15.1141 23.972 15.025L25.782 13.165C25.869 13.076 25.9375 12.9707 25.9837 12.8552C26.0299 12.7397 26.0528 12.6162 26.0511 12.4918C26.0494 12.3674 26.0232 12.2445 25.9739 12.1303C25.9247 12.016 25.8533 11.9126 25.764 11.826C25.675 11.7388 25.5696 11.67 25.454 11.6237C25.3383 11.5773 25.2146 11.5543 25.09 11.556ZM32.25 11.556V11.559C32.1254 11.5609 32.0025 11.5875 31.8882 11.6371C31.7739 11.6867 31.6705 11.7583 31.584 11.848L29.776 13.705C29.6893 13.7941 29.6211 13.8994 29.5751 14.0149C29.5291 14.1304 29.5063 14.2538 29.508 14.3781C29.5098 14.5024 29.5359 14.6251 29.5851 14.7393C29.6342 14.8535 29.7054 14.9568 29.7945 15.0435C29.8836 15.1302 29.9889 15.1984 30.1044 15.2444C30.2199 15.2904 30.3433 15.3132 30.4676 15.3115C30.5919 15.3097 30.7146 15.2836 30.8288 15.2344C30.943 15.1853 31.0463 15.1141 31.133 15.025L32.941 13.165C33.028 13.0761 33.0966 12.9709 33.1429 12.8554C33.1892 12.7399 33.2122 12.6164 33.2106 12.492C33.209 12.3676 33.1829 12.2447 33.1337 12.1304C33.0845 12.0161 33.0133 11.9127 32.924 11.826C32.835 11.7388 32.7296 11.67 32.614 11.6237C32.4983 11.5773 32.3746 11.5543 32.25 11.556ZM19.992 11.904C19.9646 11.9085 19.9399 11.9228 19.9223 11.9443C19.9048 11.9657 19.8956 11.9928 19.8966 12.0205C19.8976 12.0482 19.9086 12.0746 19.9276 12.0948C19.9467 12.1149 19.9724 12.1274 20 12.13C20.0295 12.1292 20.0576 12.117 20.0783 12.0959C20.099 12.0748 20.1108 12.0465 20.111 12.017C20.1112 12.0016 20.1082 11.9863 20.1022 11.9721C20.0962 11.958 20.0873 11.9452 20.0761 11.9346C20.065 11.924 20.0517 11.9158 20.0373 11.9105C20.0228 11.9053 20.0074 11.903 19.992 11.904ZM27.992 11.904C27.9646 11.9085 27.9399 11.9228 27.9223 11.9443C27.9048 11.9657 27.8956 11.9928 27.8966 12.0205C27.8976 12.0482 27.9086 12.0746 27.9276 12.0948C27.9467 12.1149 27.9724 12.1274 28 12.13C28.0295 12.1292 28.0576 12.117 28.0783 12.0959C28.099 12.0748 28.1108 12.0465 28.111 12.017C28.1112 12.0016 28.1082 11.9863 28.1022 11.9721C28.0962 11.958 28.0873 11.9452 28.0761 11.9346C28.065 11.924 28.0517 11.9158 28.0373 11.9105C28.0228 11.9053 28.0074 11.903 27.992 11.904ZM19.992 12.467C19.9646 12.4715 19.9399 12.4858 19.9223 12.5073C19.9048 12.5287 19.8956 12.5558 19.8966 12.5835C19.8976 12.6112 19.9086 12.6376 19.9276 12.6578C19.9467 12.6779 19.9724 12.6904 20 12.693C20.0295 12.6922 20.0576 12.68 20.0783 12.6589C20.099 12.6378 20.1108 12.6095 20.111 12.58C20.1112 12.5646 20.1082 12.5493 20.1022 12.5351C20.0962 12.521 20.0873 12.5082 20.0761 12.4976C20.065 12.487 20.0517 12.4788 20.0373 12.4735C20.0228 12.4683 20.0074 12.466 19.992 12.467ZM27.992 12.467C27.9646 12.4715 27.9399 12.4858 27.9223 12.5073C27.9048 12.5287 27.8956 12.5558 27.8966 12.5835C27.8976 12.6112 27.9086 12.6376 27.9276 12.6578C27.9467 12.6779 27.9724 12.6904 28 12.693C28.0295 12.6922 28.0576 12.68 28.0783 12.6589C28.099 12.6378 28.1108 12.6095 28.111 12.58C28.1112 12.5646 28.1082 12.5493 28.1022 12.5351C28.0962 12.521 28.0873 12.5082 28.0761 12.4976C28.065 12.487 28.0517 12.4788 28.0373 12.4735C28.0228 12.4683 28.0074 12.466 27.992 12.467ZM19.992 13.029C19.9622 13.0301 19.934 13.0429 19.9136 13.0648C19.8933 13.0866 19.8824 13.1157 19.8835 13.1455C19.8846 13.1753 19.8974 13.2035 19.9193 13.2239C19.9411 13.2442 19.9702 13.2551 20 13.254C20.0148 13.2535 20.0293 13.25 20.0427 13.2439C20.0562 13.2378 20.0683 13.229 20.0784 13.2182C20.0885 13.2074 20.0963 13.1947 20.1015 13.1809C20.1066 13.167 20.109 13.1523 20.1085 13.1375C20.108 13.1227 20.1045 13.1082 20.0984 13.0948C20.0923 13.0813 20.0835 13.0692 20.0727 13.0591C20.0619 13.049 20.0492 13.0412 20.0354 13.036C20.0215 13.0309 20.0068 13.0285 19.992 13.029ZM27.992 13.029C27.9622 13.0301 27.934 13.0429 27.9136 13.0648C27.8933 13.0866 27.8824 13.1157 27.8835 13.1455C27.8846 13.1753 27.8974 13.2035 27.9193 13.2239C27.9411 13.2442 27.9702 13.2551 28 13.254C28.0148 13.2535 28.0293 13.25 28.0427 13.2439C28.0562 13.2378 28.0683 13.229 28.0784 13.2182C28.0885 13.2074 28.0963 13.1947 28.1015 13.1809C28.1066 13.167 28.109 13.1523 28.1085 13.1375C28.108 13.1227 28.1045 13.1082 28.0984 13.0948C28.0923 13.0813 28.0835 13.0692 28.0727 13.0591C28.0619 13.049 28.0492 13.0412 28.0354 13.036C28.0215 13.0309 28.0068 13.0285 27.992 13.029ZM19.992 13.592C19.9773 13.5929 19.9629 13.5967 19.9497 13.6032C19.9364 13.6097 19.9246 13.6187 19.9149 13.6298C19.9051 13.6408 19.8976 13.6537 19.8928 13.6676C19.8881 13.6815 19.8861 13.6963 19.887 13.711C19.8879 13.7257 19.8917 13.7401 19.8982 13.7533C19.9047 13.7666 19.9137 13.7784 19.9248 13.7881C19.9358 13.7979 19.9487 13.8054 19.9626 13.8102C19.9765 13.8149 19.9913 13.8169 20.006 13.816C20.0357 13.8141 20.0635 13.8006 20.0831 13.7782C20.1028 13.7559 20.1129 13.7267 20.111 13.697C20.1091 13.6673 20.0956 13.6395 20.0732 13.6199C20.0509 13.6002 20.0217 13.5901 19.992 13.592ZM27.992 13.592C27.9773 13.5929 27.9629 13.5967 27.9497 13.6032C27.9364 13.6097 27.9246 13.6187 27.9149 13.6298C27.9051 13.6408 27.8976 13.6537 27.8928 13.6676C27.8881 13.6815 27.8861 13.6963 27.887 13.711C27.8879 13.7257 27.8917 13.7401 27.8982 13.7533C27.9047 13.7666 27.9137 13.7784 27.9248 13.7881C27.9358 13.7979 27.9487 13.8054 27.9626 13.8102C27.9765 13.8149 27.9913 13.8169 28.006 13.816C28.0357 13.8141 28.0635 13.8006 28.0831 13.7782C28.1028 13.7559 28.1129 13.7267 28.111 13.697C28.1091 13.6673 28.0956 13.6395 28.0732 13.6199C28.0509 13.6002 28.0217 13.5901 27.992 13.592ZM19.992 14.154C19.9772 14.1549 19.9628 14.1587 19.9495 14.1652C19.9362 14.1717 19.9243 14.1808 19.9145 14.1919C19.9047 14.203 19.8972 14.2159 19.8924 14.2299C19.8876 14.2439 19.8856 14.2587 19.8865 14.2735C19.8874 14.2883 19.8912 14.3027 19.8977 14.316C19.9042 14.3293 19.9133 14.3412 19.9244 14.351C19.9355 14.3608 19.9484 14.3683 19.9624 14.3731C19.9764 14.3779 19.9912 14.3799 20.006 14.379C20.0358 14.3771 20.0637 14.3635 20.0835 14.3411C20.1033 14.3187 20.1134 14.2893 20.1115 14.2595C20.1096 14.2297 20.096 14.2018 20.0736 14.182C20.0512 14.1622 20.0218 14.1521 19.992 14.154ZM27.992 14.154C27.9772 14.1549 27.9628 14.1587 27.9495 14.1652C27.9362 14.1717 27.9243 14.1808 27.9145 14.1919C27.9047 14.203 27.8972 14.2159 27.8924 14.2299C27.8876 14.2439 27.8856 14.2587 27.8865 14.2735C27.8874 14.2883 27.8912 14.3027 27.8977 14.316C27.9042 14.3293 27.9133 14.3412 27.9244 14.351C27.9355 14.3608 27.9484 14.3683 27.9624 14.3731C27.9764 14.3779 27.9912 14.3799 28.006 14.379C28.0358 14.3771 28.0637 14.3635 28.0835 14.3411C28.1033 14.3187 28.1134 14.2893 28.1115 14.2595C28.1096 14.2297 28.096 14.2018 28.0736 14.182C28.0512 14.1622 28.0218 14.1521 27.992 14.154ZM19.981 14.717C19.9546 14.7211 19.9306 14.7346 19.9133 14.755C19.896 14.7753 19.8867 14.8013 19.887 14.828C19.8849 14.844 19.8862 14.8602 19.8908 14.8756C19.8955 14.891 19.9034 14.9053 19.914 14.9174C19.9246 14.9295 19.9376 14.9392 19.9523 14.9459C19.967 14.9526 19.9829 14.956 19.999 14.956C20.0151 14.956 20.031 14.9526 20.0457 14.9459C20.0604 14.9392 20.0734 14.9295 20.084 14.9174C20.0946 14.9053 20.1025 14.891 20.1072 14.8756C20.1118 14.8602 20.1131 14.844 20.111 14.828C20.111 14.768 20.061 14.717 20.001 14.717H19.981ZM27.981 14.717C27.9546 14.7211 27.9306 14.7346 27.9133 14.755C27.896 14.7753 27.8867 14.8013 27.887 14.828C27.8849 14.844 27.8862 14.8602 27.8908 14.8756C27.8955 14.891 27.9034 14.9053 27.914 14.9174C27.9246 14.9295 27.9376 14.9392 27.9523 14.9459C27.967 14.9526 27.9829 14.956 27.999 14.956C28.0151 14.956 28.031 14.9526 28.0457 14.9459C28.0604 14.9392 28.0734 14.9295 28.084 14.9174C28.0946 14.9053 28.1025 14.891 28.1072 14.8756C28.1118 14.8602 28.1131 14.844 28.111 14.828C28.111 14.768 28.061 14.717 28.001 14.717H27.981ZM19.981 15.279C19.9599 15.2824 19.9403 15.2918 19.9243 15.3061C19.9084 15.3203 19.8969 15.3388 19.8911 15.3594C19.8854 15.38 19.8856 15.4017 19.8919 15.4222C19.8981 15.4426 19.91 15.4608 19.9263 15.4747C19.9425 15.4886 19.9624 15.4975 19.9836 15.5005C20.0047 15.5034 20.0263 15.5003 20.0457 15.4913C20.0651 15.4824 20.0816 15.4682 20.0931 15.4502C20.1047 15.4323 20.1109 15.4114 20.111 15.39C20.111 15.33 20.061 15.28 20.001 15.28H19.98L19.981 15.279ZM27.981 15.279C27.9599 15.2824 27.9403 15.2918 27.9243 15.3061C27.9084 15.3203 27.8969 15.3388 27.8911 15.3594C27.8854 15.38 27.8856 15.4017 27.8919 15.4222C27.8981 15.4426 27.91 15.4608 27.9263 15.4747C27.9425 15.4886 27.9624 15.4975 27.9836 15.5005C28.0047 15.5034 28.0263 15.5003 28.0457 15.4913C28.0651 15.4824 28.0816 15.4682 28.0931 15.4502C28.1047 15.4323 28.1109 15.4114 28.111 15.39C28.111 15.33 28.061 15.28 28.001 15.28H27.98L27.981 15.279ZM20.002 15.839C19.9863 15.8375 19.9705 15.8393 19.9556 15.8443C19.9407 15.8493 19.927 15.8573 19.9153 15.8679C19.9037 15.8785 19.8944 15.8914 19.888 15.9058C19.8817 15.9202 19.8784 15.9358 19.8784 15.9515C19.8784 15.9672 19.8817 15.9828 19.888 15.9972C19.8944 16.0116 19.9037 16.0245 19.9153 16.0351C19.927 16.0457 19.9407 16.0537 19.9556 16.0587C19.9705 16.0637 19.9863 16.0655 20.002 16.064C20.0318 16.064 20.0605 16.0521 20.0815 16.031C20.1026 16.01 20.1145 15.9813 20.1145 15.9515C20.1145 15.9217 20.1026 15.893 20.0815 15.872C20.0605 15.8509 20.0318 15.839 20.002 15.839ZM28.002 15.839C27.9863 15.8375 27.9705 15.8393 27.9556 15.8443C27.9407 15.8493 27.927 15.8573 27.9153 15.8679C27.9037 15.8785 27.8944 15.8914 27.888 15.9058C27.8817 15.9202 27.8784 15.9358 27.8784 15.9515C27.8784 15.9672 27.8817 15.9828 27.888 15.9972C27.8944 16.0116 27.9037 16.0245 27.9153 16.0351C27.927 16.0457 27.9407 16.0537 27.9556 16.0587C27.9705 16.0637 27.9863 16.0655 28.002 16.064C28.0318 16.064 28.0605 16.0521 28.0815 16.031C28.1026 16.01 28.1145 15.9813 28.1145 15.9515C28.1145 15.9217 28.1026 15.893 28.0815 15.872C28.0605 15.8509 28.0318 15.839 28.002 15.839ZM19.992 16.402C19.9634 16.4038 19.9365 16.4165 19.9169 16.4375C19.8974 16.4586 19.8867 16.4863 19.887 16.515C19.887 16.578 19.937 16.628 20 16.627C20.0156 16.6278 20.0313 16.6254 20.0459 16.6198C20.0606 16.6142 20.0739 16.6057 20.0851 16.5947C20.0963 16.5837 20.105 16.5705 20.1108 16.556C20.1166 16.5414 20.1193 16.5258 20.1188 16.5101C20.1182 16.4945 20.1144 16.4791 20.1076 16.465C20.1008 16.4509 20.0911 16.4383 20.0792 16.4282C20.0672 16.418 20.0533 16.4104 20.0383 16.4059C20.0233 16.4014 20.0075 16.4001 19.992 16.402ZM27.992 16.402C27.9634 16.4038 27.9365 16.4165 27.9169 16.4375C27.8974 16.4586 27.8867 16.4863 27.887 16.515C27.887 16.578 27.937 16.628 28 16.627C28.0156 16.6278 28.0313 16.6254 28.0459 16.6198C28.0606 16.6142 28.0739 16.6057 28.0851 16.5947C28.0963 16.5837 28.105 16.5705 28.1108 16.556C28.1166 16.5414 28.1193 16.5258 28.1188 16.5101C28.1182 16.4945 28.1144 16.4791 28.1076 16.465C28.1008 16.4509 28.0911 16.4383 28.0792 16.4282C28.0672 16.418 28.0533 16.4104 28.0383 16.4059C28.0233 16.4014 28.0075 16.4001 27.992 16.402ZM17.532 16.816V16.818C17.4072 16.8199 17.284 16.8466 17.1695 16.8963C17.055 16.9461 16.9515 17.018 16.865 17.108L15.058 18.964C14.883 19.1439 14.7866 19.3861 14.79 19.6371C14.7935 19.8881 14.8966 20.1275 15.0765 20.3025C15.2564 20.4775 15.4986 20.5739 15.7496 20.5705C16.0006 20.567 16.24 20.4639 16.415 20.284L18.224 18.424C18.3561 18.2903 18.4453 18.1203 18.4803 17.9356C18.5152 17.751 18.4943 17.5601 18.4203 17.3874C18.3462 17.2147 18.2223 17.068 18.0644 16.966C17.9066 16.864 17.7219 16.8115 17.534 16.815H17.532V16.816ZM25.09 16.816V16.818C24.9654 16.8201 24.8424 16.8468 24.7281 16.8965C24.6138 16.9463 24.5104 17.0182 24.424 17.108L22.615 18.965C22.5283 19.0541 22.4601 19.1594 22.4141 19.2749C22.3681 19.3904 22.3453 19.5138 22.347 19.6381C22.3488 19.7624 22.3749 19.8851 22.4241 19.9993C22.4732 20.1135 22.5444 20.2168 22.6335 20.3035C22.7226 20.3902 22.8279 20.4584 22.9434 20.5044C23.0589 20.5504 23.1823 20.5732 23.3066 20.5715C23.4309 20.5697 23.5536 20.5436 23.6678 20.4944C23.782 20.4453 23.8853 20.3741 23.972 20.285L25.782 18.425C25.9141 18.2913 26.0033 18.1213 26.0383 17.9366C26.0732 17.752 26.0523 17.5611 25.9783 17.3884C25.9042 17.2157 25.7803 17.069 25.6224 16.967C25.4646 16.865 25.2799 16.8125 25.092 16.816H25.09ZM32.25 16.816V16.818C32.1254 16.8201 32.0023 16.8468 31.8881 16.8965C31.7738 16.9463 31.6704 17.0182 31.584 17.108L29.776 18.965C29.6893 19.0541 29.6211 19.1594 29.5751 19.2749C29.5291 19.3904 29.5063 19.5138 29.508 19.6381C29.5098 19.7624 29.5359 19.8851 29.5851 19.9993C29.6342 20.1135 29.7054 20.2168 29.7945 20.3035C29.8836 20.3902 29.9889 20.4584 30.1044 20.5044C30.2199 20.5504 30.3433 20.5732 30.4676 20.5715C30.5919 20.5697 30.7146 20.5436 30.8288 20.4944C30.943 20.4453 31.0463 20.3741 31.133 20.285L32.941 18.425C33.073 18.2914 33.1622 18.1214 33.1972 17.9369C33.2322 17.7523 33.2114 17.5615 33.1374 17.3889C33.0635 17.2162 32.9398 17.0695 32.7821 16.9674C32.6244 16.8654 32.4398 16.8127 32.252 16.816H32.25ZM19.992 16.965C19.9773 16.9659 19.9629 16.9697 19.9497 16.9762C19.9364 16.9827 19.9246 16.9917 19.9149 17.0028C19.9051 17.0138 19.8976 17.0267 19.8928 17.0406C19.8881 17.0545 19.8861 17.0693 19.887 17.084C19.8879 17.0987 19.8917 17.1131 19.8982 17.1263C19.9047 17.1396 19.9137 17.1514 19.9248 17.1611C19.9358 17.1709 19.9487 17.1784 19.9626 17.1832C19.9765 17.1879 19.9913 17.1899 20.006 17.189C20.0357 17.1871 20.0635 17.1736 20.0831 17.1512C20.1028 17.1289 20.1129 17.0997 20.111 17.07C20.1091 17.0403 20.0956 17.0125 20.0732 16.9929C20.0509 16.9732 20.0217 16.9631 19.992 16.965ZM27.992 16.965C27.9773 16.9659 27.9629 16.9697 27.9497 16.9762C27.9364 16.9827 27.9246 16.9917 27.9149 17.0028C27.9051 17.0138 27.8976 17.0267 27.8928 17.0406C27.8881 17.0545 27.8861 17.0693 27.887 17.084C27.8879 17.0987 27.8917 17.1131 27.8982 17.1263C27.9047 17.1396 27.9137 17.1514 27.9248 17.1611C27.9358 17.1709 27.9487 17.1784 27.9626 17.1832C27.9765 17.1879 27.9913 17.1899 28.006 17.189C28.0357 17.1871 28.0635 17.1736 28.0831 17.1512C28.1028 17.1289 28.1129 17.0997 28.111 17.07C28.1091 17.0403 28.0956 17.0125 28.0732 16.9929C28.0509 16.9732 28.0217 16.9631 27.992 16.965ZM19.992 17.527C19.9765 17.5269 19.9611 17.5299 19.9468 17.536C19.9326 17.5421 19.9197 17.551 19.909 17.5623C19.8983 17.5735 19.8901 17.5869 19.8848 17.6014C19.8795 17.616 19.8773 17.6315 19.8782 17.647C19.8792 17.6625 19.8834 17.6776 19.8904 17.6914C19.8975 17.7052 19.9073 17.7174 19.9193 17.7273C19.9313 17.7371 19.9452 17.7444 19.9601 17.7487C19.975 17.7529 19.9906 17.7541 20.006 17.752C20.0343 17.7482 20.0602 17.7338 20.0783 17.7117C20.0965 17.6897 20.1056 17.6615 20.1038 17.633C20.102 17.6044 20.0895 17.5776 20.0688 17.558C20.048 17.5383 20.0206 17.5272 19.992 17.527ZM27.992 17.527C27.9765 17.5269 27.9611 17.5299 27.9468 17.536C27.9326 17.5421 27.9197 17.551 27.909 17.5623C27.8983 17.5735 27.8901 17.5869 27.8848 17.6014C27.8795 17.616 27.8773 17.6315 27.8782 17.647C27.8792 17.6625 27.8834 17.6776 27.8904 17.6914C27.8975 17.7052 27.9073 17.7174 27.9193 17.7273C27.9313 17.7371 27.9452 17.7444 27.9601 17.7487C27.975 17.7529 27.9906 17.7541 28.006 17.752C28.0343 17.7482 28.0602 17.7338 28.0783 17.7117C28.0965 17.6897 28.1056 17.6615 28.1038 17.633C28.102 17.6044 28.0895 17.5776 28.0688 17.558C28.048 17.5383 28.0206 17.5272 27.992 17.527ZM19.992 18.09C19.9761 18.0891 19.9601 18.0916 19.9452 18.0973C19.9303 18.1031 19.9168 18.1119 19.9056 18.1232C19.8943 18.1345 19.8856 18.1481 19.88 18.1631C19.8744 18.178 19.872 18.1939 19.873 18.2099C19.874 18.2258 19.8783 18.2413 19.8858 18.2555C19.8932 18.2696 19.9035 18.282 19.9161 18.2918C19.9287 18.3016 19.9432 18.3087 19.9587 18.3125C19.9742 18.3164 19.9903 18.3169 20.006 18.314C20.0332 18.309 20.0577 18.2943 20.0747 18.2725C20.0918 18.2507 20.1003 18.2234 20.0985 18.1958C20.0968 18.1682 20.085 18.1421 20.0654 18.1226C20.0457 18.1031 20.0196 18.0915 19.992 18.09ZM27.992 18.09C27.9761 18.0891 27.9601 18.0916 27.9452 18.0973C27.9303 18.1031 27.9168 18.1119 27.9056 18.1232C27.8943 18.1345 27.8856 18.1481 27.88 18.1631C27.8744 18.178 27.872 18.1939 27.873 18.2099C27.874 18.2258 27.8783 18.2413 27.8858 18.2555C27.8932 18.2696 27.9035 18.282 27.9161 18.2918C27.9287 18.3016 27.9432 18.3087 27.9587 18.3125C27.9742 18.3164 27.9903 18.3169 28.006 18.314C28.0332 18.309 28.0577 18.2943 28.0747 18.2725C28.0918 18.2507 28.1003 18.2234 28.0985 18.1958C28.0968 18.1682 28.085 18.1421 28.0654 18.1226C28.0457 18.1031 28.0196 18.0915 27.992 18.09ZM19.992 18.652C19.9627 18.653 19.9349 18.6656 19.9147 18.6869C19.8945 18.7082 19.8835 18.7366 19.884 18.7659C19.8845 18.7953 19.8966 18.8233 19.9175 18.8438C19.9385 18.8644 19.9666 18.8759 19.996 18.8759C20.0254 18.8759 20.0535 18.8644 20.0745 18.8438C20.0954 18.8233 20.1075 18.7953 20.108 18.7659C20.1085 18.7366 20.0975 18.7082 20.0773 18.6869C20.0571 18.6656 20.0293 18.653 20 18.652C19.9973 18.6519 19.9947 18.6519 19.992 18.652ZM27.992 18.652C27.9627 18.653 27.9349 18.6656 27.9147 18.6869C27.8945 18.7082 27.8835 18.7366 27.884 18.7659C27.8845 18.7953 27.8966 18.8233 27.9175 18.8438C27.9385 18.8644 27.9666 18.8759 27.996 18.8759C28.0254 18.8759 28.0535 18.8644 28.0745 18.8438C28.0954 18.8233 28.1075 18.7953 28.108 18.7659C28.1085 18.7366 28.0975 18.7082 28.0773 18.6869C28.0571 18.6656 28.0293 18.653 28 18.652C27.9973 18.6519 27.9947 18.6519 27.992 18.652ZM19.981 19.215C19.9546 19.2191 19.9306 19.2326 19.9133 19.253C19.896 19.2733 19.8867 19.2993 19.887 19.326C19.8868 19.3482 19.8932 19.3699 19.9053 19.3884C19.9175 19.4069 19.9348 19.4214 19.9552 19.4301C19.9756 19.4387 19.9981 19.4412 20.0199 19.437C20.0416 19.4329 20.0617 19.4224 20.0775 19.4069C20.0933 19.3914 20.1041 19.3715 20.1086 19.3498C20.1132 19.3281 20.1111 19.3056 20.1028 19.2851C20.0946 19.2645 20.0804 19.2469 20.062 19.2344C20.0437 19.222 20.0222 19.2152 20 19.215H19.981ZM27.981 19.215C27.9546 19.2191 27.9306 19.2326 27.9133 19.253C27.896 19.2733 27.8867 19.2993 27.887 19.326C27.8868 19.3482 27.8932 19.3699 27.9053 19.3884C27.9175 19.4069 27.9348 19.4214 27.9552 19.4301C27.9756 19.4387 27.9981 19.4412 28.0199 19.437C28.0416 19.4329 28.0617 19.4224 28.0775 19.4069C28.0933 19.3914 28.1041 19.3715 28.1086 19.3498C28.1132 19.3281 28.1111 19.3056 28.1028 19.2851C28.0946 19.2645 28.0804 19.2469 28.062 19.2344C28.0437 19.222 28.0222 19.2152 28 19.215H27.981ZM20.002 19.775C19.9863 19.7735 19.9705 19.7753 19.9556 19.7803C19.9407 19.7853 19.927 19.7933 19.9153 19.8039C19.9037 19.8145 19.8944 19.8274 19.888 19.8418C19.8817 19.8562 19.8784 19.8718 19.8784 19.8875C19.8784 19.9032 19.8817 19.9188 19.888 19.9332C19.8944 19.9476 19.9037 19.9605 19.9153 19.9711C19.927 19.9817 19.9407 19.9897 19.9556 19.9947C19.9705 19.9997 19.9863 20.0015 20.002 20C20.0318 20 20.0605 19.9881 20.0815 19.967C20.1026 19.946 20.1145 19.9173 20.1145 19.8875C20.1145 19.8577 20.1026 19.829 20.0815 19.8079C20.0605 19.7869 20.0318 19.775 20.002 19.775ZM28.002 19.775C27.9863 19.7735 27.9705 19.7753 27.9556 19.7803C27.9407 19.7853 27.927 19.7933 27.9153 19.8039C27.9037 19.8145 27.8944 19.8274 27.888 19.8418C27.8817 19.8562 27.8784 19.8718 27.8784 19.8875C27.8784 19.9032 27.8817 19.9188 27.888 19.9332C27.8944 19.9476 27.9037 19.9605 27.9153 19.9711C27.927 19.9817 27.9407 19.9897 27.9556 19.9947C27.9705 19.9997 27.9863 20.0015 28.002 20C28.0318 20 28.0605 19.9881 28.0815 19.967C28.1026 19.946 28.1145 19.9173 28.1145 19.8875C28.1145 19.8577 28.1026 19.829 28.0815 19.8079C28.0605 19.7869 28.0318 19.775 28.002 19.775ZM19.992 20.338C19.9634 20.3398 19.9365 20.3525 19.9169 20.3735C19.8974 20.3946 19.8867 20.4223 19.887 20.451C19.887 20.4807 19.8988 20.5092 19.9198 20.5302C19.9408 20.5512 19.9693 20.563 19.999 20.563C20.0287 20.563 20.0572 20.5512 20.0782 20.5302C20.0992 20.5092 20.111 20.4807 20.111 20.451C20.1113 20.4215 20.0999 20.393 20.0793 20.3719C20.0587 20.3507 20.0305 20.3385 20.001 20.338H19.992ZM27.992 20.338C27.9634 20.3398 27.9365 20.3525 27.9169 20.3735C27.8974 20.3946 27.8867 20.4223 27.887 20.451C27.887 20.4807 27.8988 20.5092 27.9198 20.5302C27.9408 20.5512 27.9693 20.563 27.999 20.563C28.0287 20.563 28.0572 20.5512 28.0782 20.5302C28.0992 20.5092 28.111 20.4807 28.111 20.451C28.1113 20.4215 28.0999 20.393 28.0793 20.3719C28.0587 20.3507 28.0305 20.3385 28.001 20.338H27.992ZM19.992 20.9C19.9627 20.901 19.9349 20.9136 19.9147 20.9349C19.8945 20.9562 19.8835 20.9846 19.884 21.0139C19.8845 21.0433 19.8966 21.0713 19.9175 21.0918C19.9385 21.1124 19.9666 21.1239 19.996 21.1239C20.0254 21.1239 20.0535 21.1124 20.0745 21.0918C20.0954 21.0713 20.1075 21.0433 20.108 21.0139C20.1085 20.9846 20.0975 20.9562 20.0773 20.9349C20.0571 20.9136 20.0293 20.901 20 20.9H19.992ZM27.992 20.9C27.9627 20.901 27.9349 20.9136 27.9147 20.9349C27.8945 20.9562 27.8835 20.9846 27.884 21.0139C27.8845 21.0433 27.8966 21.0713 27.9175 21.0918C27.9385 21.1124 27.9666 21.1239 27.996 21.1239C28.0254 21.1239 28.0535 21.1124 28.0745 21.0918C28.0954 21.0713 28.1075 21.0433 28.108 21.0139C28.1085 20.9846 28.0975 20.9562 28.0773 20.9349C28.0571 20.9136 28.0293 20.901 28 20.9H27.992ZM19.992 21.463C19.9634 21.4648 19.9365 21.4775 19.9169 21.4985C19.8974 21.5196 19.8867 21.5473 19.887 21.576C19.887 21.6057 19.8988 21.6342 19.9198 21.6552C19.9408 21.6762 19.9693 21.688 19.999 21.688C20.0287 21.688 20.0572 21.6762 20.0782 21.6552C20.0992 21.6342 20.111 21.6057 20.111 21.576C20.1113 21.5465 20.0999 21.518 20.0793 21.4969C20.0587 21.4757 20.0305 21.4635 20.001 21.463H19.992ZM27.992 21.463C27.9634 21.4648 27.9365 21.4775 27.9169 21.4985C27.8974 21.5196 27.8867 21.5473 27.887 21.576C27.887 21.6057 27.8988 21.6342 27.9198 21.6552C27.9408 21.6762 27.9693 21.688 27.999 21.688C28.0287 21.688 28.0572 21.6762 28.0782 21.6552C28.0992 21.6342 28.111 21.6057 28.111 21.576C28.1113 21.5465 28.0999 21.518 28.0793 21.4969C28.0587 21.4757 28.0305 21.4635 28.001 21.463H27.992ZM19.992 22.025C19.9765 22.0249 19.9611 22.0279 19.9468 22.034C19.9326 22.0401 19.9197 22.049 19.909 22.0603C19.8983 22.0715 19.8901 22.0849 19.8848 22.0994C19.8795 22.114 19.8773 22.1295 19.8782 22.145C19.8792 22.1605 19.8834 22.1756 19.8904 22.1894C19.8975 22.2032 19.9073 22.2154 19.9193 22.2253C19.9313 22.2351 19.9452 22.2424 19.9601 22.2467C19.975 22.2509 19.9906 22.2521 20.006 22.25C20.0343 22.2462 20.0602 22.2318 20.0783 22.2097C20.0965 22.1877 20.1056 22.1595 20.1038 22.131C20.102 22.1024 20.0895 22.0756 20.0688 22.056C20.048 22.0363 20.0206 22.0252 19.992 22.025ZM27.992 22.025C27.9765 22.0249 27.9611 22.0279 27.9468 22.034C27.9326 22.0401 27.9197 22.049 27.909 22.0603C27.8983 22.0715 27.8901 22.0849 27.8848 22.0994C27.8795 22.114 27.8773 22.1295 27.8782 22.145C27.8792 22.1605 27.8834 22.1756 27.8904 22.1894C27.8975 22.2032 27.9073 22.2154 27.9193 22.2253C27.9313 22.2351 27.9452 22.2424 27.9601 22.2467C27.975 22.2509 27.9906 22.2521 28.006 22.25C28.0343 22.2462 28.0602 22.2318 28.0783 22.2097C28.0965 22.1877 28.1056 22.1595 28.1038 22.131C28.102 22.1024 28.0895 22.0756 28.0688 22.056C28.048 22.0363 28.0206 22.0252 27.992 22.025ZM17.533 22.075V22.076C17.4084 22.0781 17.2854 22.1048 17.1711 22.1545C17.0568 22.2043 16.9534 22.2762 16.867 22.366L15.059 24.223C14.9718 24.3119 14.9031 24.4172 14.8567 24.5328C14.8104 24.6484 14.7873 24.772 14.7889 24.8965C14.7905 25.0211 14.8167 25.144 14.8659 25.2584C14.9152 25.3728 14.9866 25.4763 15.076 25.563C15.1651 25.6501 15.2705 25.7187 15.3862 25.7649C15.5019 25.8111 15.6256 25.8339 15.7502 25.832C15.8747 25.8302 15.9977 25.8037 16.112 25.7541C16.2262 25.7045 16.3296 25.6327 16.416 25.543L18.225 23.683C18.3121 23.594 18.3808 23.4887 18.4271 23.373C18.4733 23.2574 18.4963 23.1338 18.4946 23.0093C18.4929 22.8847 18.4667 22.7618 18.4173 22.6474C18.3679 22.5331 18.2965 22.4296 18.207 22.343C18.1179 22.256 18.0125 22.1874 17.8969 22.1412C17.7812 22.0951 17.6575 22.0722 17.533 22.074V22.075ZM25.092 22.075V22.076C24.9674 22.0781 24.8444 22.1048 24.7301 22.1545C24.6158 22.2043 24.5124 22.2762 24.426 22.366L22.617 24.223C22.5299 24.312 22.4612 24.4173 22.4149 24.533C22.3687 24.6486 22.3457 24.7722 22.3474 24.8967C22.3491 25.0213 22.3753 25.1442 22.4247 25.2586C22.4741 25.3729 22.5455 25.4764 22.635 25.563C22.7241 25.6501 22.8295 25.7187 22.9452 25.7649C23.0609 25.8111 23.1846 25.8339 23.3092 25.832C23.4337 25.8302 23.5567 25.8037 23.671 25.7541C23.7852 25.7045 23.8886 25.6327 23.975 25.543L25.783 23.683C25.8702 23.5941 25.9389 23.4888 25.9853 23.3732C26.0316 23.2576 26.0547 23.134 26.0531 23.0095C26.0515 22.8849 26.0253 22.762 25.9761 22.6476C25.9268 22.5332 25.8554 22.4297 25.766 22.343C25.6769 22.256 25.5715 22.1874 25.4559 22.1412C25.3402 22.0951 25.2165 22.0722 25.092 22.074V22.075ZM32.252 22.075V22.076C32.1274 22.0781 32.0043 22.1048 31.8901 22.1545C31.7758 22.2043 31.6724 22.2762 31.586 22.366L29.777 24.223C29.6899 24.312 29.6212 24.4173 29.5749 24.533C29.5287 24.6486 29.5057 24.7722 29.5074 24.8967C29.5091 25.0213 29.5353 25.1442 29.5847 25.2586C29.6341 25.3729 29.7055 25.4764 29.795 25.563C29.8841 25.6501 29.9895 25.7187 30.1052 25.7649C30.2209 25.8111 30.3446 25.8339 30.4692 25.832C30.5937 25.8302 30.7167 25.8037 30.831 25.7541C30.9452 25.7045 31.0486 25.6327 31.135 25.543L32.943 23.683C33.0302 23.5941 33.0989 23.4888 33.1453 23.3732C33.1916 23.2576 33.2147 23.134 33.2131 23.0095C33.2115 22.8849 33.1853 22.762 33.1361 22.6476C33.0868 22.5332 33.0154 22.4297 32.926 22.343C32.8369 22.256 32.7315 22.1874 32.6159 22.1412C32.5002 22.0951 32.3765 22.0722 32.252 22.074V22.075ZM19.992 22.588C19.9761 22.5871 19.9601 22.5896 19.9452 22.5953C19.9303 22.6011 19.9168 22.6099 19.9056 22.6212C19.8943 22.6325 19.8856 22.6461 19.88 22.6611C19.8744 22.676 19.872 22.6919 19.873 22.7079C19.874 22.7238 19.8783 22.7393 19.8858 22.7535C19.8932 22.7676 19.9035 22.78 19.9161 22.7898C19.9287 22.7996 19.9432 22.8067 19.9587 22.8105C19.9742 22.8144 19.9903 22.8149 20.006 22.812C20.0332 22.807 20.0577 22.7923 20.0747 22.7705C20.0918 22.7487 20.1003 22.7214 20.0985 22.6938C20.0968 22.6662 20.085 22.6401 20.0654 22.6206C20.0457 22.6011 20.0196 22.5895 19.992 22.588ZM27.992 22.588C27.9761 22.5871 27.9601 22.5896 27.9452 22.5953C27.9303 22.6011 27.9168 22.6099 27.9056 22.6212C27.8943 22.6325 27.8856 22.6461 27.88 22.6611C27.8744 22.676 27.872 22.6919 27.873 22.7079C27.874 22.7238 27.8783 22.7393 27.8858 22.7535C27.8932 22.7676 27.9035 22.78 27.9161 22.7898C27.9287 22.7996 27.9432 22.8067 27.9587 22.8105C27.9742 22.8144 27.9903 22.8149 28.006 22.812C28.0332 22.807 28.0577 22.7923 28.0747 22.7705C28.0918 22.7487 28.1003 22.7214 28.0985 22.6938C28.0968 22.6662 28.085 22.6401 28.0654 22.6206C28.0457 22.6011 28.0196 22.5895 27.992 22.588ZM19.992 23.15C19.9627 23.151 19.9349 23.1636 19.9147 23.1849C19.8945 23.2062 19.8835 23.2346 19.884 23.2639C19.8845 23.2933 19.8966 23.3213 19.9175 23.3418C19.9385 23.3624 19.9666 23.3739 19.996 23.3739C20.0254 23.3739 20.0535 23.3624 20.0745 23.3418C20.0954 23.3213 20.1075 23.2933 20.108 23.2639C20.1085 23.2346 20.0975 23.2062 20.0773 23.1849C20.0571 23.1636 20.0293 23.151 20 23.15H19.992ZM27.992 23.15C27.9627 23.151 27.9349 23.1636 27.9147 23.1849C27.8945 23.2062 27.8835 23.2346 27.884 23.2639C27.8845 23.2933 27.8966 23.3213 27.9175 23.3418C27.9385 23.3624 27.9666 23.3739 27.996 23.3739C28.0254 23.3739 28.0535 23.3624 28.0745 23.3418C28.0954 23.3213 28.1075 23.2933 28.108 23.2639C28.1085 23.2346 28.0975 23.2062 28.0773 23.1849C28.0571 23.1636 28.0293 23.151 28 23.15H27.992ZM19.981 23.713C19.9546 23.7171 19.9306 23.7306 19.9133 23.751C19.896 23.7713 19.8867 23.7973 19.887 23.824C19.8849 23.84 19.8862 23.8562 19.8908 23.8716C19.8955 23.887 19.9034 23.9013 19.914 23.9134C19.9246 23.9255 19.9376 23.9352 19.9523 23.9419C19.967 23.9486 19.9829 23.952 19.999 23.952C20.0151 23.952 20.031 23.9486 20.0457 23.9419C20.0604 23.9352 20.0734 23.9255 20.084 23.9134C20.0946 23.9013 20.1025 23.887 20.1072 23.8716C20.1118 23.8562 20.1131 23.84 20.111 23.824C20.111 23.763 20.061 23.714 20.001 23.713H19.98H19.981ZM27.981 23.713C27.9546 23.7171 27.9306 23.7306 27.9133 23.751C27.896 23.7713 27.8867 23.7973 27.887 23.824C27.8849 23.84 27.8862 23.8562 27.8908 23.8716C27.8955 23.887 27.9034 23.9013 27.914 23.9134C27.9246 23.9255 27.9376 23.9352 27.9523 23.9419C27.967 23.9486 27.9829 23.952 27.999 23.952C28.0151 23.952 28.031 23.9486 28.0457 23.9419C28.0604 23.9352 28.0734 23.9255 28.084 23.9134C28.0946 23.9013 28.1025 23.887 28.1072 23.8716C28.1118 23.8562 28.1131 23.84 28.111 23.824C28.111 23.763 28.061 23.714 28.001 23.713H27.98H27.981ZM19.981 24.275C19.9544 24.2791 19.9302 24.2927 19.913 24.3133C19.8957 24.3339 19.8864 24.3601 19.887 24.387C19.887 24.449 19.937 24.499 20 24.497C20.061 24.497 20.111 24.447 20.111 24.387C20.111 24.325 20.061 24.276 20.001 24.275H19.98H19.981ZM27.981 24.275C27.9544 24.2791 27.9302 24.2927 27.913 24.3133C27.8957 24.3339 27.8864 24.3601 27.887 24.387C27.887 24.449 27.937 24.499 28 24.497C28.061 24.497 28.111 24.447 28.111 24.387C28.111 24.325 28.061 24.276 28.001 24.275H27.98H27.981ZM19.992 24.835C19.9772 24.8359 19.9628 24.8397 19.9495 24.8462C19.9362 24.8527 19.9243 24.8618 19.9145 24.8729C19.9047 24.884 19.8972 24.8969 19.8924 24.9109C19.8876 24.9249 19.8856 24.9397 19.8865 24.9545C19.8874 24.9693 19.8912 24.9837 19.8977 24.997C19.9042 25.0103 19.9133 25.0222 19.9244 25.032C19.9355 25.0418 19.9484 25.0493 19.9624 25.0541C19.9764 25.0589 19.9912 25.0609 20.006 25.06C20.0357 25.0581 20.0635 25.0446 20.0831 25.0222C20.1028 24.9999 20.1129 24.9707 20.111 24.941C20.1091 24.9113 20.0956 24.8835 20.0732 24.8639C20.0509 24.8442 20.0217 24.8341 19.992 24.836V24.835ZM27.992 24.835C27.9772 24.8359 27.9628 24.8397 27.9495 24.8462C27.9362 24.8527 27.9243 24.8618 27.9145 24.8729C27.9047 24.884 27.8972 24.8969 27.8924 24.9109C27.8876 24.9249 27.8856 24.9397 27.8865 24.9545C27.8874 24.9693 27.8912 24.9837 27.8977 24.997C27.9042 25.0103 27.9133 25.0222 27.9244 25.032C27.9355 25.0418 27.9484 25.0493 27.9624 25.0541C27.9764 25.0589 27.9912 25.0609 28.006 25.06C28.0357 25.0581 28.0635 25.0446 28.0831 25.0222C28.1028 24.9999 28.1129 24.9707 28.111 24.941C28.1091 24.9113 28.0956 24.8835 28.0732 24.8639C28.0509 24.8442 28.0217 24.8341 27.992 24.836V24.835ZM19.992 25.398C19.9773 25.3989 19.9629 25.4027 19.9497 25.4092C19.9364 25.4157 19.9246 25.4247 19.9149 25.4358C19.9051 25.4468 19.8976 25.4597 19.8928 25.4736C19.8881 25.4875 19.8861 25.5023 19.887 25.517C19.8879 25.5317 19.8917 25.5461 19.8982 25.5593C19.9047 25.5726 19.9137 25.5844 19.9248 25.5941C19.9358 25.6039 19.9487 25.6114 19.9626 25.6162C19.9765 25.6209 19.9913 25.6229 20.006 25.622C20.0357 25.6201 20.0635 25.6066 20.0831 25.5842C20.1028 25.5619 20.1129 25.5327 20.111 25.503C20.1091 25.4733 20.0956 25.4455 20.0732 25.4259C20.0509 25.4062 20.0217 25.3961 19.992 25.398ZM27.992 25.398C27.9773 25.3989 27.9629 25.4027 27.9497 25.4092C27.9364 25.4157 27.9246 25.4247 27.9149 25.4358C27.9051 25.4468 27.8976 25.4597 27.8928 25.4736C27.8881 25.4875 27.8861 25.5023 27.887 25.517C27.8879 25.5317 27.8917 25.5461 27.8982 25.5593C27.9047 25.5726 27.9137 25.5844 27.9248 25.5941C27.9358 25.6039 27.9487 25.6114 27.9626 25.6162C27.9765 25.6209 27.9913 25.6229 28.006 25.622C28.0357 25.6201 28.0635 25.6066 28.0831 25.5842C28.1028 25.5619 28.1129 25.5327 28.111 25.503C28.1091 25.4733 28.0956 25.4455 28.0732 25.4259C28.0509 25.4062 28.0217 25.3961 27.992 25.398ZM19.992 25.961C19.9773 25.9619 19.9629 25.9657 19.9497 25.9722C19.9364 25.9787 19.9246 25.9877 19.9149 25.9988C19.9051 26.0098 19.8976 26.0227 19.8928 26.0366C19.8881 26.0505 19.8861 26.0653 19.887 26.08C19.8879 26.0947 19.8917 26.1091 19.8982 26.1223C19.9047 26.1356 19.9137 26.1474 19.9248 26.1571C19.9358 26.1669 19.9487 26.1744 19.9626 26.1792C19.9765 26.1839 19.9913 26.1859 20.006 26.185C20.0357 26.1831 20.0635 26.1696 20.0831 26.1472C20.1028 26.1249 20.1129 26.0957 20.111 26.066C20.1091 26.0363 20.0956 26.0085 20.0732 25.9889C20.0509 25.9692 20.0217 25.9591 19.992 25.961ZM27.992 25.961C27.9773 25.9619 27.9629 25.9657 27.9497 25.9722C27.9364 25.9787 27.9246 25.9877 27.9149 25.9988C27.9051 26.0098 27.8976 26.0227 27.8928 26.0366C27.8881 26.0505 27.8861 26.0653 27.887 26.08C27.8879 26.0947 27.8917 26.1091 27.8982 26.1223C27.9047 26.1356 27.9137 26.1474 27.9248 26.1571C27.9358 26.1669 27.9487 26.1744 27.9626 26.1792C27.9765 26.1839 27.9913 26.1859 28.006 26.185C28.0357 26.1831 28.0635 26.1696 28.0831 26.1472C28.1028 26.1249 28.1129 26.0957 28.111 26.066C28.1091 26.0363 28.0956 26.0085 28.0732 25.9889C28.0509 25.9692 28.0217 25.9591 27.992 25.961ZM19.992 26.523C19.9765 26.5229 19.9611 26.5259 19.9468 26.532C19.9326 26.5381 19.9197 26.547 19.909 26.5583C19.8983 26.5695 19.8901 26.5829 19.8848 26.5974C19.8795 26.612 19.8773 26.6275 19.8782 26.643C19.8792 26.6585 19.8834 26.6736 19.8904 26.6874C19.8975 26.7012 19.9073 26.7134 19.9193 26.7233C19.9313 26.7331 19.9452 26.7404 19.9601 26.7447C19.975 26.7489 19.9906 26.7501 20.006 26.748C20.0343 26.7442 20.0602 26.7298 20.0783 26.7077C20.0965 26.6857 20.1056 26.6575 20.1038 26.629C20.102 26.6004 20.0895 26.5736 20.0688 26.554C20.048 26.5343 20.0206 26.5232 19.992 26.523ZM27.992 26.523C27.9765 26.5229 27.9611 26.5259 27.9468 26.532C27.9326 26.5381 27.9197 26.547 27.909 26.5583C27.8983 26.5695 27.8901 26.5829 27.8848 26.5974C27.8795 26.612 27.8773 26.6275 27.8782 26.643C27.8792 26.6585 27.8834 26.6736 27.8904 26.6874C27.8975 26.7012 27.9073 26.7134 27.9193 26.7233C27.9313 26.7331 27.9452 26.7404 27.9601 26.7447C27.975 26.7489 27.9906 26.7501 28.006 26.748C28.0343 26.7442 28.0602 26.7298 28.0783 26.7077C28.0965 26.6857 28.1056 26.6575 28.1038 26.629C28.102 26.6004 28.0895 26.5736 28.0688 26.554C28.048 26.5343 28.0206 26.5232 27.992 26.523ZM19.992 27.086C19.9773 27.0869 19.9629 27.0907 19.9497 27.0972C19.9364 27.1037 19.9246 27.1127 19.9149 27.1238C19.9051 27.1348 19.8976 27.1477 19.8928 27.1616C19.8881 27.1755 19.8861 27.1903 19.887 27.205C19.8879 27.2197 19.8917 27.2341 19.8982 27.2473C19.9047 27.2606 19.9137 27.2724 19.9248 27.2821C19.9358 27.2919 19.9487 27.2994 19.9626 27.3042C19.9765 27.3089 19.9913 27.3109 20.006 27.31C20.0357 27.3081 20.0635 27.2946 20.0831 27.2722C20.1028 27.2499 20.1129 27.2207 20.111 27.191C20.1091 27.1613 20.0956 27.1335 20.0732 27.1139C20.0509 27.0942 20.0217 27.0841 19.992 27.086ZM27.992 27.086C27.9773 27.0869 27.9629 27.0907 27.9497 27.0972C27.9364 27.1037 27.9246 27.1127 27.9149 27.1238C27.9051 27.1348 27.8976 27.1477 27.8928 27.1616C27.8881 27.1755 27.8861 27.1903 27.887 27.205C27.8879 27.2197 27.8917 27.2341 27.8982 27.2473C27.9047 27.2606 27.9137 27.2724 27.9248 27.2821C27.9358 27.2919 27.9487 27.2994 27.9626 27.3042C27.9765 27.3089 27.9913 27.3109 28.006 27.31C28.0357 27.3081 28.0635 27.2946 28.0831 27.2722C28.1028 27.2499 28.1129 27.2207 28.111 27.191C28.1091 27.1613 28.0956 27.1335 28.0732 27.1139C28.0509 27.0942 28.0217 27.0841 27.992 27.086ZM17.533 27.334C17.4084 27.3362 17.2854 27.3629 17.1711 27.4127C17.0568 27.4624 16.9535 27.5343 16.867 27.624L15.059 29.482C14.9723 29.5711 14.9041 29.6764 14.8581 29.7919C14.8121 29.9074 14.7893 30.0308 14.791 30.1551C14.7928 30.2794 14.8189 30.4021 14.8681 30.5163C14.9172 30.6305 14.9884 30.7338 15.0775 30.8205C15.1666 30.9072 15.2719 30.9754 15.3874 31.0214C15.5029 31.0674 15.6263 31.0902 15.7506 31.0885C15.8749 31.0867 15.9976 31.0606 16.1118 31.0114C16.226 30.9623 16.3293 30.8911 16.416 30.802L18.225 28.943C18.3121 28.854 18.3808 28.7487 18.4271 28.633C18.4733 28.5174 18.4963 28.3938 18.4946 28.2693C18.4929 28.1447 18.4667 28.0218 18.4173 27.9074C18.3679 27.7931 18.2965 27.6896 18.207 27.603C18.118 27.5158 18.0126 27.447 17.897 27.4007C17.7813 27.3543 17.6576 27.3313 17.533 27.333V27.334ZM25.092 27.334C24.9674 27.3362 24.8444 27.3629 24.7301 27.4127C24.6158 27.4624 24.5125 27.5343 24.426 27.624L22.617 29.482C22.5303 29.5711 22.4621 29.6764 22.4161 29.7919C22.3701 29.9074 22.3473 30.0308 22.349 30.1551C22.3508 30.2794 22.3769 30.4021 22.4261 30.5163C22.4752 30.6305 22.5464 30.7338 22.6355 30.8205C22.7246 30.9072 22.8299 30.9754 22.9454 31.0214C23.0609 31.0674 23.1843 31.0902 23.3086 31.0885C23.4329 31.0867 23.5556 31.0606 23.6698 31.0114C23.784 30.9623 23.8873 30.8911 23.974 30.802L25.784 28.943C25.8711 28.854 25.9398 28.7487 25.9861 28.633C26.0323 28.5174 26.0553 28.3938 26.0536 28.2693C26.0519 28.1447 26.0257 28.0218 25.9763 27.9074C25.9269 27.7931 25.8555 27.6896 25.766 27.603C25.677 27.5158 25.5716 27.447 25.456 27.4007C25.3403 27.3543 25.2166 27.3313 25.092 27.333V27.334ZM32.252 27.334C32.1274 27.3362 32.0044 27.3629 31.8901 27.4127C31.7758 27.4624 31.6725 27.5343 31.586 27.624L29.777 29.482C29.6903 29.5711 29.6221 29.6764 29.5761 29.7919C29.5301 29.9074 29.5073 30.0308 29.509 30.1551C29.5108 30.2794 29.5369 30.4021 29.5861 30.5163C29.6352 30.6305 29.7064 30.7338 29.7955 30.8205C29.8846 30.9072 29.9899 30.9754 30.1054 31.0214C30.2209 31.0674 30.3443 31.0902 30.4686 31.0885C30.5929 31.0867 30.7156 31.0606 30.8298 31.0114C30.944 30.9623 31.0473 30.8911 31.134 30.802L32.944 28.943C33.0311 28.854 33.0998 28.7487 33.1461 28.633C33.1923 28.5174 33.2153 28.3938 33.2136 28.2693C33.2119 28.1447 33.1857 28.0218 33.1363 27.9074C33.0869 27.7931 33.0155 27.6896 32.926 27.603C32.837 27.5158 32.7316 27.447 32.616 27.4007C32.5003 27.3543 32.3766 27.3313 32.252 27.333V27.334ZM19.992 27.648C19.9765 27.6479 19.9611 27.6509 19.9468 27.657C19.9326 27.6631 19.9197 27.672 19.909 27.6833C19.8983 27.6945 19.8901 27.7079 19.8848 27.7224C19.8795 27.737 19.8773 27.7525 19.8782 27.768C19.8792 27.7835 19.8834 27.7986 19.8904 27.8124C19.8975 27.8262 19.9073 27.8384 19.9193 27.8483C19.9313 27.8581 19.9452 27.8654 19.9601 27.8697C19.975 27.8739 19.9906 27.8751 20.006 27.873C20.0343 27.8692 20.0602 27.8548 20.0783 27.8327C20.0965 27.8107 20.1056 27.7825 20.1038 27.754C20.102 27.7254 20.0895 27.6986 20.0688 27.679C20.048 27.6593 20.0206 27.6482 19.992 27.648ZM27.992 27.648C27.9765 27.6479 27.9611 27.6509 27.9468 27.657C27.9326 27.6631 27.9197 27.672 27.909 27.6833C27.8983 27.6945 27.8901 27.7079 27.8848 27.7224C27.8795 27.737 27.8773 27.7525 27.8782 27.768C27.8792 27.7835 27.8834 27.7986 27.8904 27.8124C27.8975 27.8262 27.9073 27.8384 27.9193 27.8483C27.9313 27.8581 27.9452 27.8654 27.9601 27.8697C27.975 27.8739 27.9906 27.8751 28.006 27.873C28.0343 27.8692 28.0602 27.8548 28.0783 27.8327C28.0965 27.8107 28.1056 27.7825 28.1038 27.754C28.102 27.7254 28.0895 27.6986 28.0688 27.679C28.048 27.6593 28.0206 27.6482 27.992 27.648ZM19.981 28.211C19.9546 28.2151 19.9306 28.2286 19.9133 28.249C19.896 28.2693 19.8867 28.2953 19.887 28.322C19.887 28.384 19.937 28.435 20 28.433C20.061 28.433 20.111 28.383 20.111 28.323C20.111 28.261 20.061 28.212 20.001 28.211H19.98H19.981ZM27.981 28.211C27.9546 28.2151 27.9306 28.2286 27.9133 28.249C27.896 28.2693 27.8867 28.2953 27.887 28.322C27.887 28.384 27.937 28.435 28 28.433C28.061 28.433 28.111 28.383 28.111 28.323C28.111 28.261 28.061 28.212 28.001 28.211H27.98H27.981ZM20.002 28.771C19.9863 28.7695 19.9705 28.7713 19.9556 28.7763C19.9407 28.7813 19.927 28.7893 19.9153 28.7999C19.9037 28.8105 19.8944 28.8234 19.888 28.8378C19.8817 28.8522 19.8784 28.8678 19.8784 28.8835C19.8784 28.8992 19.8817 28.9148 19.888 28.9292C19.8944 28.9436 19.9037 28.9565 19.9153 28.9671C19.927 28.9777 19.9407 28.9857 19.9556 28.9907C19.9705 28.9957 19.9863 28.9975 20.002 28.996C20.0318 28.996 20.0605 28.9841 20.0815 28.963C20.1026 28.942 20.1145 28.9133 20.1145 28.8835C20.1145 28.8537 20.1026 28.825 20.0815 28.8039C20.0605 28.7829 20.0318 28.771 20.002 28.771ZM28.002 28.771C27.9863 28.7695 27.9705 28.7713 27.9556 28.7763C27.9407 28.7813 27.927 28.7893 27.9153 28.7999C27.9037 28.8105 27.8944 28.8234 27.888 28.8378C27.8817 28.8522 27.8784 28.8678 27.8784 28.8835C27.8784 28.8992 27.8817 28.9148 27.888 28.9292C27.8944 28.9436 27.9037 28.9565 27.9153 28.9671C27.927 28.9777 27.9407 28.9857 27.9556 28.9907C27.9705 28.9957 27.9863 28.9975 28.002 28.996C28.0318 28.996 28.0605 28.9841 28.0815 28.963C28.1026 28.942 28.1145 28.9133 28.1145 28.8835C28.1145 28.8537 28.1026 28.825 28.0815 28.8039C28.0605 28.7829 28.0318 28.771 28.002 28.771ZM19.992 29.334C19.9634 29.3358 19.9365 29.3485 19.9169 29.3695C19.8974 29.3906 19.8867 29.4183 19.887 29.447C19.887 29.4767 19.8988 29.5052 19.9198 29.5262C19.9408 29.5472 19.9693 29.559 19.999 29.559C20.0287 29.559 20.0572 29.5472 20.0782 29.5262C20.0992 29.5052 20.111 29.4767 20.111 29.447C20.1113 29.4175 20.0999 29.389 20.0793 29.3679C20.0587 29.3467 20.0305 29.3345 20.001 29.334H19.992ZM27.992 29.334C27.9634 29.3358 27.9365 29.3485 27.9169 29.3695C27.8974 29.3906 27.8867 29.4183 27.887 29.447C27.887 29.4767 27.8988 29.5052 27.9198 29.5262C27.9408 29.5472 27.9693 29.559 27.999 29.559C28.0287 29.559 28.0572 29.5472 28.0782 29.5262C28.0992 29.5052 28.111 29.4767 28.111 29.447C28.1113 29.4175 28.0999 29.389 28.0793 29.3679C28.0587 29.3467 28.0305 29.3345 28.001 29.334H27.992ZM19.992 29.896C19.9627 29.897 19.9349 29.9096 19.9147 29.9309C19.8945 29.9522 19.8835 29.9806 19.884 30.0099C19.8845 30.0393 19.8966 30.0673 19.9175 30.0878C19.9385 30.1084 19.9666 30.1199 19.996 30.1199C20.0254 30.1199 20.0535 30.1084 20.0745 30.0878C20.0954 30.0673 20.1075 30.0393 20.108 30.0099C20.1085 29.9806 20.0975 29.9522 20.0773 29.9309C20.0571 29.9096 20.0293 29.897 20 29.896H19.992ZM27.992 29.896C27.9627 29.897 27.9349 29.9096 27.9147 29.9309C27.8945 29.9522 27.8835 29.9806 27.884 30.0099C27.8845 30.0393 27.8966 30.0673 27.9175 30.0878C27.9385 30.1084 27.9666 30.1199 27.996 30.1199C28.0254 30.1199 28.0535 30.1084 28.0745 30.0878C28.0954 30.0673 28.1075 30.0393 28.108 30.0099C28.1085 29.9806 28.0975 29.9522 28.0773 29.9309C28.0571 29.9096 28.0293 29.897 28 29.896H27.992ZM19.992 30.459C19.9634 30.4608 19.9365 30.4735 19.9169 30.4945C19.8974 30.5156 19.8867 30.5433 19.887 30.572C19.887 30.634 19.937 30.685 20 30.683C20.0147 30.6825 20.0292 30.6791 20.0426 30.6729C20.0559 30.6668 20.068 30.6581 20.078 30.6474C20.0881 30.6366 20.0959 30.624 20.101 30.6102C20.1061 30.5964 20.1085 30.5817 20.108 30.567C20.1075 30.5523 20.1041 30.5378 20.0979 30.5244C20.0918 30.5111 20.0831 30.499 20.0724 30.489C20.0616 30.4789 20.049 30.4711 20.0352 30.466C20.0214 30.4608 20.0067 30.4585 19.992 30.459ZM27.992 30.459C27.9634 30.4608 27.9365 30.4735 27.9169 30.4945C27.8974 30.5156 27.8867 30.5433 27.887 30.572C27.887 30.634 27.937 30.685 28 30.683C28.0297 30.6819 28.0578 30.6691 28.078 30.6474C28.0983 30.6256 28.1091 30.5967 28.108 30.567C28.1069 30.5373 28.0941 30.5092 28.0724 30.489C28.0506 30.4687 28.0217 30.4579 27.992 30.459ZM19.992 31.019C19.9634 31.0213 19.9366 31.0343 19.9171 31.0554C19.8977 31.0766 19.8869 31.1043 19.887 31.133C19.8849 31.149 19.8862 31.1652 19.8908 31.1806C19.8955 31.196 19.9034 31.2103 19.914 31.2224C19.9246 31.2345 19.9376 31.2442 19.9523 31.2509C19.967 31.2576 19.9829 31.261 19.999 31.261C20.0151 31.261 20.031 31.2576 20.0457 31.2509C20.0604 31.2442 20.0734 31.2345 20.084 31.2224C20.0946 31.2103 20.1025 31.196 20.1072 31.1806C20.1118 31.1652 20.1131 31.149 20.111 31.133C20.111 31.1176 20.1079 31.1024 20.1019 31.0882C20.0958 31.074 20.087 31.0612 20.0759 31.0506C20.0647 31.0399 20.0516 31.0316 20.0372 31.0262C20.0227 31.0208 20.0074 31.0183 19.992 31.019ZM27.992 31.019C27.9634 31.0213 27.9366 31.0343 27.9171 31.0554C27.8977 31.0766 27.8869 31.1043 27.887 31.133C27.8849 31.149 27.8862 31.1652 27.8908 31.1806C27.8955 31.196 27.9034 31.2103 27.914 31.2224C27.9246 31.2345 27.9376 31.2442 27.9523 31.2509C27.967 31.2576 27.9829 31.261 27.999 31.261C28.0151 31.261 28.031 31.2576 28.0457 31.2509C28.0604 31.2442 28.0734 31.2345 28.084 31.2224C28.0946 31.2103 28.1025 31.196 28.1072 31.1806C28.1118 31.1652 28.1131 31.149 28.111 31.133C28.111 31.1176 28.1079 31.1024 28.1019 31.0882C28.0958 31.074 28.087 31.0612 28.0759 31.0506C28.0647 31.0399 28.0516 31.0316 28.0372 31.0262C28.0227 31.0208 28.0074 31.0183 27.992 31.019ZM19.992 31.582C19.9623 31.5839 19.9345 31.5974 19.9149 31.6198C19.8952 31.6421 19.8851 31.6713 19.887 31.701C19.8889 31.7307 19.9024 31.7585 19.9248 31.7781C19.9471 31.7978 19.9763 31.8079 20.006 31.806C20.0207 31.8051 20.0351 31.8013 20.0483 31.7948C20.0616 31.7883 20.0734 31.7793 20.0831 31.7682C20.0929 31.7572 20.1004 31.7443 20.1052 31.7304C20.1099 31.7165 20.1119 31.7017 20.111 31.687C20.1101 31.6723 20.1063 31.6579 20.0998 31.6447C20.0933 31.6314 20.0843 31.6196 20.0732 31.6099C20.0622 31.6001 20.0493 31.5926 20.0354 31.5878C20.0215 31.5831 20.0067 31.5811 19.992 31.582ZM27.992 31.582C27.9623 31.5839 27.9345 31.5974 27.9149 31.6198C27.8952 31.6421 27.8851 31.6713 27.887 31.701C27.8889 31.7307 27.9024 31.7585 27.9248 31.7781C27.9471 31.7978 27.9763 31.8079 28.006 31.806C28.0207 31.8051 28.0351 31.8013 28.0483 31.7948C28.0616 31.7883 28.0734 31.7793 28.0831 31.7682C28.0929 31.7572 28.1004 31.7443 28.1052 31.7304C28.1099 31.7165 28.1119 31.7017 28.111 31.687C28.1101 31.6723 28.1063 31.6579 28.0998 31.6447C28.0933 31.6314 28.0843 31.6196 28.0732 31.6099C28.0622 31.6001 28.0493 31.5926 28.0354 31.5878C28.0215 31.5831 28.0067 31.5811 27.992 31.582ZM19.981 32.144C19.9543 32.1479 19.93 32.1615 19.9127 32.1821C19.8954 32.2028 19.8862 32.2291 19.887 32.256C19.887 32.2781 19.8935 32.2997 19.9058 32.3181C19.9181 32.3365 19.9355 32.3509 19.9559 32.3594C19.9763 32.3679 19.9988 32.3702 20.0205 32.3659C20.0422 32.3617 20.0621 32.3511 20.0778 32.3355C20.0935 32.32 20.1043 32.3001 20.1087 32.2785C20.1132 32.2568 20.1111 32.2343 20.1028 32.2138C20.0944 32.1933 20.0802 32.1758 20.0619 32.1634C20.0437 32.1509 20.0221 32.1442 20 32.144H19.981ZM27.981 32.144C27.9543 32.1479 27.93 32.1615 27.9127 32.1821C27.8954 32.2028 27.8862 32.2291 27.887 32.256C27.887 32.2781 27.8935 32.2997 27.9058 32.3181C27.9181 32.3365 27.9355 32.3509 27.9559 32.3594C27.9763 32.3679 27.9988 32.3702 28.0205 32.3659C28.0422 32.3617 28.0621 32.3511 28.0778 32.3355C28.0935 32.32 28.1043 32.3001 28.1087 32.2785C28.1132 32.2568 28.1111 32.2343 28.1028 32.2138C28.0944 32.1933 28.0802 32.1758 28.0619 32.1634C28.0437 32.1509 28.0221 32.1442 28 32.144H27.981ZM17.531 32.592V32.594C17.4064 32.5959 17.2835 32.6225 17.1692 32.6721C17.0549 32.7217 16.9515 32.7933 16.865 32.883L15.057 34.74C14.9698 34.8289 14.9011 34.9342 14.8547 35.0498C14.8084 35.1654 14.7853 35.289 14.7869 35.4135C14.7885 35.5381 14.8147 35.661 14.8639 35.7754C14.9132 35.8898 14.9846 35.9933 15.074 36.08C15.1631 36.167 15.2686 36.2355 15.3843 36.2816C15.5 36.3277 15.6236 36.3505 15.7482 36.3486C15.8727 36.3468 15.9956 36.3203 16.1099 36.2708C16.2242 36.2212 16.3275 36.1496 16.414 36.06L18.223 34.201C18.3101 34.112 18.3788 34.0067 18.4251 33.891C18.4713 33.7754 18.4943 33.6518 18.4926 33.5273C18.4909 33.4027 18.4647 33.2798 18.4153 33.1654C18.3659 33.0511 18.2945 32.9476 18.205 32.861C18.116 32.7738 18.0106 32.705 17.895 32.6587C17.7793 32.6123 17.6556 32.5893 17.531 32.591V32.592ZM25.09 32.592V32.594C24.9654 32.5959 24.8425 32.6225 24.7282 32.6721C24.6139 32.7217 24.5105 32.7933 24.424 32.883L22.615 34.74C22.5279 34.829 22.4592 34.9343 22.4129 35.05C22.3667 35.1656 22.3437 35.2892 22.3454 35.4137C22.3471 35.5383 22.3733 35.6612 22.4227 35.7756C22.472 35.8899 22.5435 35.9934 22.633 36.08C22.7221 36.167 22.8276 36.2355 22.9433 36.2816C23.059 36.3277 23.1826 36.3505 23.3072 36.3486C23.4317 36.3468 23.5546 36.3203 23.6689 36.2708C23.7832 36.2212 23.8865 36.1496 23.973 36.06L25.781 34.201C25.8682 34.1121 25.9369 34.0068 25.9833 33.8912C26.0296 33.7756 26.0527 33.652 26.0511 33.5275C26.0495 33.4029 26.0233 33.28 25.9741 33.1656C25.9248 33.0512 25.8534 32.9477 25.764 32.861C25.675 32.7738 25.5696 32.705 25.454 32.6587C25.3383 32.6123 25.2146 32.5893 25.09 32.591V32.592ZM32.25 32.592V32.594C32.1254 32.5959 32.0025 32.6225 31.8882 32.6721C31.7739 32.7217 31.6705 32.7933 31.584 32.883L29.776 34.74C29.6888 34.8289 29.6201 34.9342 29.5737 35.0498C29.5274 35.1654 29.5043 35.289 29.5059 35.4135C29.5075 35.5381 29.5337 35.661 29.5829 35.7754C29.6322 35.8898 29.7036 35.9933 29.793 36.08C29.8821 36.1671 29.9875 36.2357 30.1032 36.2819C30.2189 36.3281 30.3426 36.3509 30.4672 36.349C30.5917 36.3472 30.7147 36.3207 30.829 36.2711C30.9432 36.2215 31.0466 36.1497 31.133 36.06L32.941 34.201C33.0282 34.1121 33.0969 34.0068 33.1433 33.8912C33.1896 33.7756 33.2127 33.652 33.2111 33.5275C33.2095 33.4029 33.1833 33.28 33.1341 33.1656C33.0848 33.0512 33.0134 32.9477 32.924 32.861C32.835 32.7738 32.7296 32.705 32.614 32.6587C32.4983 32.6123 32.3746 32.5893 32.25 32.591V32.592ZM19.98 32.707C19.9589 32.7104 19.9393 32.7198 19.9233 32.7341C19.9074 32.7483 19.8959 32.7668 19.8901 32.7874C19.8844 32.808 19.8846 32.8297 19.8909 32.8502C19.8971 32.8706 19.909 32.8888 19.9253 32.9027C19.9415 32.9166 19.9614 32.9255 19.9826 32.9285C20.0037 32.9314 20.0253 32.9283 20.0447 32.9193C20.0641 32.9104 20.0806 32.8962 20.0921 32.8782C20.1037 32.8603 20.1099 32.8394 20.11 32.818C20.111 32.757 20.061 32.708 20 32.707H19.981H19.98ZM27.98 32.707C27.9589 32.7104 27.9393 32.7198 27.9233 32.7341C27.9074 32.7483 27.8959 32.7668 27.8901 32.7874C27.8844 32.808 27.8846 32.8297 27.8909 32.8502C27.8971 32.8706 27.909 32.8888 27.9253 32.9027C27.9415 32.9166 27.9614 32.9255 27.9826 32.9285C28.0037 32.9314 28.0253 32.9283 28.0447 32.9193C28.0641 32.9104 28.0806 32.8962 28.0921 32.8782C28.1037 32.8603 28.1099 32.8394 28.11 32.818C28.111 32.757 28.061 32.708 28 32.707H27.981H27.98ZM20.002 33.267C19.9869 33.2671 19.9721 33.2702 19.9582 33.2762C19.9444 33.2821 19.9318 33.2907 19.9213 33.3014C19.9108 33.3122 19.9026 33.325 19.897 33.339C19.8915 33.353 19.8887 33.3679 19.889 33.383C19.889 33.445 19.939 33.493 20.002 33.492C20.0165 33.4921 20.0309 33.4894 20.0444 33.4839C20.0579 33.4784 20.0701 33.4704 20.0804 33.4601C20.0907 33.4499 20.0989 33.4377 20.1045 33.4243C20.1101 33.4109 20.113 33.3965 20.113 33.382C20.1133 33.3523 20.1019 33.3236 20.0814 33.3021C20.0608 33.2806 20.0327 33.268 20.003 33.267H20.002ZM28.002 33.267C27.9869 33.2671 27.9721 33.2702 27.9582 33.2762C27.9444 33.2821 27.9318 33.2907 27.9213 33.3014C27.9108 33.3122 27.9026 33.325 27.897 33.339C27.8915 33.353 27.8887 33.3679 27.889 33.383C27.889 33.445 27.939 33.493 28.002 33.492C28.0165 33.4921 28.0309 33.4894 28.0444 33.4839C28.0579 33.4784 28.0701 33.4704 28.0804 33.4601C28.0907 33.4499 28.0989 33.4377 28.1045 33.4243C28.1101 33.4109 28.113 33.3965 28.113 33.382C28.1133 33.3523 28.1019 33.3236 28.0814 33.3021C28.0608 33.2806 28.0327 33.268 28.003 33.267H28.002ZM19.992 33.83C19.9634 33.8318 19.9365 33.8445 19.9169 33.8655C19.8974 33.8866 19.8867 33.9143 19.887 33.943C19.887 34.005 19.937 34.056 20 34.054C20.061 34.054 20.111 34.004 20.111 33.944C20.1113 33.9293 20.1086 33.9147 20.1032 33.901C20.0979 33.8873 20.0898 33.8748 20.0796 33.8642C20.0694 33.8536 20.0572 33.8452 20.0437 33.8393C20.0302 33.8334 20.0157 33.8303 20.001 33.83H19.992ZM27.992 33.83C27.9634 33.8318 27.9365 33.8445 27.9169 33.8655C27.8974 33.8866 27.8867 33.9143 27.887 33.943C27.887 34.005 27.937 34.056 28 34.054C28.061 34.054 28.111 34.004 28.111 33.944C28.1113 33.9293 28.1086 33.9147 28.1032 33.901C28.0979 33.8873 28.0898 33.8748 28.0796 33.8642C28.0694 33.8536 28.0572 33.8452 28.0437 33.8393C28.0302 33.8334 28.0157 33.8303 28.001 33.83H27.992ZM19.992 34.392C19.9773 34.3929 19.9629 34.3967 19.9497 34.4032C19.9364 34.4097 19.9246 34.4187 19.9149 34.4298C19.9051 34.4408 19.8976 34.4537 19.8928 34.4676C19.8881 34.4815 19.8861 34.4963 19.887 34.511C19.8879 34.5257 19.8917 34.5401 19.8982 34.5533C19.9047 34.5666 19.9137 34.5784 19.9248 34.5881C19.9358 34.5979 19.9487 34.6054 19.9626 34.6102C19.9765 34.6149 19.9913 34.6169 20.006 34.616C20.0357 34.6141 20.0635 34.6006 20.0831 34.5782C20.1028 34.5559 20.1129 34.5267 20.111 34.497C20.1091 34.4673 20.0956 34.4395 20.0732 34.4199C20.0509 34.4002 20.0217 34.3901 19.992 34.392ZM27.992 34.392C27.9773 34.3929 27.9629 34.3967 27.9497 34.4032C27.9364 34.4097 27.9246 34.4187 27.9149 34.4298C27.9051 34.4408 27.8976 34.4537 27.8928 34.4676C27.8881 34.4815 27.8861 34.4963 27.887 34.511C27.8879 34.5257 27.8917 34.5401 27.8982 34.5533C27.9047 34.5666 27.9137 34.5784 27.9248 34.5881C27.9358 34.5979 27.9487 34.6054 27.9626 34.6102C27.9765 34.6149 27.9913 34.6169 28.006 34.616C28.0357 34.6141 28.0635 34.6006 28.0831 34.5782C28.1028 34.5559 28.1129 34.5267 28.111 34.497C28.1091 34.4673 28.0956 34.4395 28.0732 34.4199C28.0509 34.4002 28.0217 34.3901 27.992 34.392ZM19.992 34.955C19.9773 34.9559 19.9629 34.9597 19.9497 34.9662C19.9364 34.9727 19.9246 34.9817 19.9149 34.9928C19.9051 35.0038 19.8976 35.0167 19.8928 35.0306C19.8881 35.0445 19.8861 35.0593 19.887 35.074C19.8879 35.0887 19.8917 35.1031 19.8982 35.1163C19.9047 35.1296 19.9137 35.1414 19.9248 35.1511C19.9358 35.1609 19.9487 35.1684 19.9626 35.1732C19.9765 35.1779 19.9913 35.1799 20.006 35.179C20.0357 35.1771 20.0635 35.1636 20.0831 35.1412C20.1028 35.1189 20.1129 35.0897 20.111 35.06C20.1091 35.0303 20.0956 35.0025 20.0732 34.9829C20.0509 34.9632 20.0217 34.9531 19.992 34.955ZM27.992 34.955C27.9773 34.9559 27.9629 34.9597 27.9497 34.9662C27.9364 34.9727 27.9246 34.9817 27.9149 34.9928C27.9051 35.0038 27.8976 35.0167 27.8928 35.0306C27.8881 35.0445 27.8861 35.0593 27.887 35.074C27.8879 35.0887 27.8917 35.1031 27.8982 35.1163C27.9047 35.1296 27.9137 35.1414 27.9248 35.1511C27.9358 35.1609 27.9487 35.1684 27.9626 35.1732C27.9765 35.1779 27.9913 35.1799 28.006 35.179C28.0357 35.1771 28.0635 35.1636 28.0831 35.1412C28.1028 35.1189 28.1129 35.0897 28.111 35.06C28.1091 35.0303 28.0956 35.0025 28.0732 34.9829C28.0509 34.9632 28.0217 34.9531 27.992 34.955ZM19.992 35.517C19.9627 35.518 19.9349 35.5306 19.9147 35.5519C19.8945 35.5732 19.8835 35.6016 19.884 35.6309C19.8845 35.6603 19.8966 35.6883 19.9175 35.7088C19.9385 35.7294 19.9666 35.7409 19.996 35.7409C20.0254 35.7409 20.0535 35.7294 20.0745 35.7088C20.0954 35.6883 20.1075 35.6603 20.108 35.6309C20.1085 35.6016 20.0975 35.5732 20.0773 35.5519C20.0571 35.5306 20.0293 35.518 20 35.517H19.992ZM27.992 35.517C27.9627 35.518 27.9349 35.5306 27.9147 35.5519C27.8945 35.5732 27.8835 35.6016 27.884 35.6309C27.8845 35.6603 27.8966 35.6883 27.9175 35.7088C27.9385 35.7294 27.9666 35.7409 27.996 35.7409C28.0254 35.7409 28.0535 35.7294 28.0745 35.7088C28.0954 35.6883 28.1075 35.6603 28.108 35.6309C28.1085 35.6016 28.0975 35.5732 28.0773 35.5519C28.0571 35.5306 28.0293 35.518 28 35.517H27.992ZM19.992 36.08C19.9627 36.081 19.9349 36.0936 19.9147 36.1149C19.8945 36.1362 19.8835 36.1646 19.884 36.1939C19.8845 36.2233 19.8966 36.2513 19.9175 36.2718C19.9385 36.2924 19.9666 36.3039 19.996 36.3039C20.0254 36.3039 20.0535 36.2924 20.0745 36.2718C20.0954 36.2513 20.1075 36.2233 20.108 36.1939C20.1085 36.1646 20.0975 36.1362 20.0773 36.1149C20.0571 36.0936 20.0293 36.081 20 36.08H19.992ZM27.992 36.08C27.9627 36.081 27.9349 36.0936 27.9147 36.1149C27.8945 36.1362 27.8835 36.1646 27.884 36.1939C27.8845 36.2233 27.8966 36.2513 27.9175 36.2718C27.9385 36.2924 27.9666 36.3039 27.996 36.3039C28.0254 36.3039 28.0535 36.2924 28.0745 36.2718C28.0954 36.2513 28.1075 36.2233 28.108 36.1939C28.1085 36.1646 28.0975 36.1362 28.0773 36.1149C28.0571 36.0936 28.0293 36.081 28 36.08H27.992ZM19.992 36.642C19.9627 36.643 19.9349 36.6556 19.9147 36.6769C19.8945 36.6982 19.8835 36.7266 19.884 36.7559C19.8845 36.7853 19.8966 36.8133 19.9175 36.8338C19.9385 36.8544 19.9666 36.8659 19.996 36.8659C20.0254 36.8659 20.0535 36.8544 20.0745 36.8338C20.0954 36.8133 20.1075 36.7853 20.108 36.7559C20.1085 36.7266 20.0975 36.6982 20.0773 36.6769C20.0571 36.6556 20.0293 36.643 20 36.642H19.992ZM27.992 36.642C27.9627 36.643 27.9349 36.6556 27.9147 36.6769C27.8945 36.6982 27.8835 36.7266 27.884 36.7559C27.8845 36.7853 27.8966 36.8133 27.9175 36.8338C27.9385 36.8544 27.9666 36.8659 27.996 36.8659C28.0254 36.8659 28.0535 36.8544 28.0745 36.8338C28.0954 36.8133 28.1075 36.7853 28.108 36.7559C28.1085 36.7266 28.0975 36.6982 28.0773 36.6769C28.0571 36.6556 28.0293 36.643 28 36.642H27.992ZM19.981 37.205C19.9545 37.2089 19.9303 37.2223 19.913 37.2427C19.8957 37.2632 19.8865 37.2892 19.887 37.316C19.887 37.3458 19.8989 37.3745 19.92 37.3955C19.941 37.4166 19.9697 37.4285 19.9995 37.4285C20.0293 37.4285 20.058 37.4166 20.079 37.3955C20.1001 37.3745 20.112 37.3458 20.112 37.316C20.111 37.255 20.062 37.206 20 37.205H19.981ZM27.981 37.205C27.9545 37.2089 27.9303 37.2223 27.913 37.2427C27.8957 37.2632 27.8865 37.2892 27.887 37.316C27.887 37.3458 27.8989 37.3745 27.92 37.3955C27.941 37.4166 27.9697 37.4285 27.9995 37.4285C28.0293 37.4285 28.058 37.4166 28.079 37.3955C28.1001 37.3745 28.112 37.3458 28.112 37.316C28.111 37.255 28.062 37.206 28 37.205H27.981ZM19.992 37.765C19.9622 37.7669 19.9343 37.7805 19.9145 37.8029C19.8947 37.8253 19.8846 37.8547 19.8865 37.8845C19.8884 37.9143 19.902 37.9422 19.9244 37.962C19.9468 37.9818 19.9762 37.9919 20.006 37.99C20.0357 37.9881 20.0635 37.9746 20.0831 37.9522C20.1028 37.9299 20.1129 37.9007 20.111 37.871C20.1091 37.8413 20.0956 37.8135 20.0732 37.7939C20.0509 37.7742 20.0217 37.7641 19.992 37.766V37.765ZM27.992 37.765C27.9622 37.7669 27.9343 37.7805 27.9145 37.8029C27.8947 37.8253 27.8846 37.8547 27.8865 37.8845C27.8884 37.9143 27.902 37.9422 27.9244 37.962C27.9468 37.9818 27.9762 37.9919 28.006 37.99C28.0357 37.9881 28.0635 37.9746 28.0831 37.9522C28.1028 37.9299 28.1129 37.9007 28.111 37.871C28.1091 37.8413 28.0956 37.8135 28.0732 37.7939C28.0509 37.7742 28.0217 37.7641 27.992 37.766V37.765ZM19.992 38.328C19.9773 38.3289 19.9629 38.3327 19.9497 38.3392C19.9364 38.3457 19.9246 38.3547 19.9149 38.3658C19.9051 38.3768 19.8976 38.3897 19.8928 38.4036C19.8881 38.4175 19.8861 38.4323 19.887 38.447C19.8879 38.4617 19.8917 38.4761 19.8982 38.4893C19.9047 38.5026 19.9137 38.5144 19.9248 38.5241C19.9358 38.5339 19.9487 38.5414 19.9626 38.5462C19.9765 38.5509 19.9913 38.5529 20.006 38.552C20.0357 38.5501 20.0635 38.5366 20.0831 38.5142C20.1028 38.4919 20.1129 38.4627 20.111 38.433C20.1091 38.4033 20.0956 38.3755 20.0732 38.3559C20.0509 38.3362 20.0217 38.3261 19.992 38.328ZM27.992 38.328C27.9773 38.3289 27.9629 38.3327 27.9497 38.3392C27.9364 38.3457 27.9246 38.3547 27.9149 38.3658C27.9051 38.3768 27.8976 38.3897 27.8928 38.4036C27.8881 38.4175 27.8861 38.4323 27.887 38.447C27.8879 38.4617 27.8917 38.4761 27.8982 38.4893C27.9047 38.5026 27.9137 38.5144 27.9248 38.5241C27.9358 38.5339 27.9487 38.5414 27.9626 38.5462C27.9765 38.5509 27.9913 38.5529 28.006 38.552C28.0357 38.5501 28.0635 38.5366 28.0831 38.5142C28.1028 38.4919 28.1129 38.4627 28.111 38.433C28.1091 38.4033 28.0956 38.3755 28.0732 38.3559C28.0509 38.3362 28.0217 38.3261 27.992 38.328ZM19.992 38.891C19.9773 38.8919 19.9629 38.8957 19.9497 38.9022C19.9364 38.9087 19.9246 38.9177 19.9149 38.9288C19.9051 38.9398 19.8976 38.9527 19.8928 38.9666C19.8881 38.9805 19.8861 38.9953 19.887 39.01C19.8879 39.0247 19.8917 39.0391 19.8982 39.0523C19.9047 39.0656 19.9137 39.0774 19.9248 39.0871C19.9358 39.0969 19.9487 39.1044 19.9626 39.1092C19.9765 39.1139 19.9913 39.1159 20.006 39.115C20.0357 39.1131 20.0635 39.0996 20.0831 39.0772C20.1028 39.0549 20.1129 39.0257 20.111 38.996C20.1091 38.9663 20.0956 38.9385 20.0732 38.9189C20.0509 38.8992 20.0217 38.8891 19.992 38.891ZM27.992 38.891C27.9773 38.8919 27.9629 38.8957 27.9497 38.9022C27.9364 38.9087 27.9246 38.9177 27.9149 38.9288C27.9051 38.9398 27.8976 38.9527 27.8928 38.9666C27.8881 38.9805 27.8861 38.9953 27.887 39.01C27.8879 39.0247 27.8917 39.0391 27.8982 39.0523C27.9047 39.0656 27.9137 39.0774 27.9248 39.0871C27.9358 39.0969 27.9487 39.1044 27.9626 39.1092C27.9765 39.1139 27.9913 39.1159 28.006 39.115C28.0357 39.1131 28.0635 39.0996 28.0831 39.0772C28.1028 39.0549 28.1129 39.0257 28.111 38.996C28.1091 38.9663 28.0956 38.9385 28.0732 38.9189C28.0509 38.8992 28.0217 38.8891 27.992 38.891ZM19.992 39.453C19.9773 39.4539 19.9629 39.4577 19.9497 39.4642C19.9364 39.4707 19.9246 39.4797 19.9149 39.4908C19.9051 39.5018 19.8976 39.5147 19.8928 39.5286C19.8881 39.5425 19.8861 39.5573 19.887 39.572C19.8879 39.5867 19.8917 39.6011 19.8982 39.6143C19.9047 39.6276 19.9137 39.6394 19.9248 39.6491C19.9358 39.6589 19.9487 39.6664 19.9626 39.6712C19.9765 39.6759 19.9913 39.6779 20.006 39.677C20.0357 39.6751 20.0635 39.6616 20.0831 39.6392C20.1028 39.6169 20.1129 39.5877 20.111 39.558C20.1091 39.5283 20.0956 39.5005 20.0732 39.4809C20.0509 39.4612 20.0217 39.4511 19.992 39.453ZM27.992 39.453C27.9773 39.4539 27.9629 39.4577 27.9497 39.4642C27.9364 39.4707 27.9246 39.4797 27.9149 39.4908C27.9051 39.5018 27.8976 39.5147 27.8928 39.5286C27.8881 39.5425 27.8861 39.5573 27.887 39.572C27.8879 39.5867 27.8917 39.6011 27.8982 39.6143C27.9047 39.6276 27.9137 39.6394 27.9248 39.6491C27.9358 39.6589 27.9487 39.6664 27.9626 39.6712C27.9765 39.6759 27.9913 39.6779 28.006 39.677C28.0357 39.6751 28.0635 39.6616 28.0831 39.6392C28.1028 39.6169 28.1129 39.5877 28.111 39.558C28.1091 39.5283 28.0956 39.5005 28.0732 39.4809C28.0509 39.4612 28.0217 39.4511 27.992 39.453ZM19.992 40.016C19.9766 40.0159 19.9614 40.0189 19.9472 40.0249C19.9331 40.031 19.9203 40.0398 19.9098 40.051C19.8992 40.0622 19.891 40.0754 19.8858 40.0898C19.8806 40.1043 19.8784 40.1197 19.8793 40.135C19.8803 40.1504 19.8844 40.1653 19.8914 40.179C19.8984 40.1927 19.9081 40.2048 19.92 40.2146C19.9319 40.2243 19.9457 40.2315 19.9605 40.2357C19.9753 40.2399 19.9908 40.241 20.006 40.239C20.0341 40.2352 20.0597 40.221 20.0777 40.1991C20.0956 40.1772 20.1046 40.1493 20.1029 40.121C20.1011 40.0927 20.0887 40.0662 20.0681 40.0467C20.0475 40.0272 20.0203 40.0162 19.992 40.016ZM27.992 40.016C27.9766 40.0159 27.9614 40.0189 27.9472 40.0249C27.9331 40.031 27.9203 40.0398 27.9098 40.051C27.8992 40.0622 27.891 40.0754 27.8858 40.0898C27.8806 40.1043 27.8784 40.1197 27.8793 40.135C27.8803 40.1504 27.8844 40.1653 27.8914 40.179C27.8984 40.1927 27.9081 40.2048 27.92 40.2146C27.9319 40.2243 27.9457 40.2315 27.9605 40.2357C27.9753 40.2399 27.9908 40.241 28.006 40.239C28.0341 40.2352 28.0597 40.221 28.0777 40.1991C28.0956 40.1772 28.1046 40.1493 28.1029 40.121C28.1011 40.0927 28.0887 40.0662 28.0681 40.0467C28.0475 40.0272 28.0203 40.0162 27.992 40.016ZM19.992 40.578C19.9773 40.5789 19.9629 40.5827 19.9497 40.5892C19.9364 40.5957 19.9246 40.6047 19.9149 40.6158C19.9051 40.6268 19.8976 40.6397 19.8928 40.6536C19.8881 40.6675 19.8861 40.6823 19.887 40.697C19.8879 40.7117 19.8917 40.7261 19.8982 40.7393C19.9047 40.7526 19.9137 40.7644 19.9248 40.7741C19.9358 40.7839 19.9487 40.7914 19.9626 40.7962C19.9765 40.8009 19.9913 40.8029 20.006 40.802C20.0357 40.8001 20.0635 40.7866 20.0831 40.7642C20.1028 40.7419 20.1129 40.7127 20.111 40.683C20.1091 40.6533 20.0956 40.6255 20.0732 40.6059C20.0509 40.5862 20.0217 40.5761 19.992 40.578ZM27.992 40.578C27.9773 40.5789 27.9629 40.5827 27.9497 40.5892C27.9364 40.5957 27.9246 40.6047 27.9149 40.6158C27.9051 40.6268 27.8976 40.6397 27.8928 40.6536C27.8881 40.6675 27.8861 40.6823 27.887 40.697C27.8879 40.7117 27.8917 40.7261 27.8982 40.7393C27.9047 40.7526 27.9137 40.7644 27.9248 40.7741C27.9358 40.7839 27.9487 40.7914 27.9626 40.7962C27.9765 40.8009 27.9913 40.8029 28.006 40.802C28.0357 40.8001 28.0635 40.7866 28.0831 40.7642C28.1028 40.7419 28.1129 40.7127 28.111 40.683C28.1091 40.6533 28.0956 40.6255 28.0732 40.6059C28.0509 40.5862 28.0217 40.5761 27.992 40.578ZM19.981 41.141C19.9548 41.1451 19.9309 41.1584 19.9136 41.1786C19.8964 41.1988 19.8869 41.2245 19.887 41.251C19.8864 41.2735 19.8925 41.2956 19.9046 41.3146C19.9166 41.3335 19.934 41.3485 19.9546 41.3575C19.9752 41.3665 19.998 41.3692 20.0201 41.3652C20.0423 41.3612 20.0627 41.3506 20.0788 41.335C20.0949 41.3193 20.1059 41.2992 20.1106 41.2772C20.1152 41.2552 20.1131 41.2323 20.1047 41.2115C20.0962 41.1907 20.0817 41.1728 20.0631 41.1603C20.0444 41.1477 20.0225 41.141 20 41.141H19.981ZM27.981 41.141C27.9548 41.1451 27.9309 41.1584 27.9136 41.1786C27.8964 41.1988 27.8869 41.2245 27.887 41.251C27.8864 41.2735 27.8925 41.2956 27.9046 41.3146C27.9166 41.3335 27.934 41.3485 27.9546 41.3575C27.9752 41.3665 27.998 41.3692 28.0201 41.3652C28.0423 41.3612 28.0627 41.3506 28.0788 41.335C28.0949 41.3193 28.1059 41.2992 28.1106 41.2772C28.1152 41.2552 28.1131 41.2323 28.1047 41.2115C28.0962 41.1907 28.0817 41.1728 28.0631 41.1603C28.0444 41.1477 28.0225 41.141 28 41.141H27.981ZM19.981 41.703C19.9545 41.7069 19.9303 41.7203 19.913 41.7407C19.8957 41.7612 19.8865 41.7872 19.887 41.814C19.887 41.876 19.937 41.927 20 41.926C20.061 41.926 20.111 41.876 20.111 41.814C20.111 41.754 20.061 41.704 20.001 41.703H19.98H19.981ZM27.981 41.703C27.9545 41.7069 27.9303 41.7203 27.913 41.7407C27.8957 41.7612 27.8865 41.7872 27.887 41.814C27.887 41.876 27.937 41.927 28 41.926C28.061 41.926 28.111 41.876 28.111 41.814C28.111 41.754 28.061 41.704 28.001 41.703H27.98H27.981ZM20.002 42.263C19.9863 42.2615 19.9705 42.2633 19.9556 42.2683C19.9407 42.2733 19.927 42.2813 19.9153 42.2919C19.9037 42.3025 19.8944 42.3154 19.888 42.3298C19.8817 42.3442 19.8784 42.3598 19.8784 42.3755C19.8784 42.3912 19.8817 42.4068 19.888 42.4212C19.8944 42.4356 19.9037 42.4485 19.9153 42.4591C19.927 42.4697 19.9407 42.4777 19.9556 42.4827C19.9705 42.4877 19.9863 42.4895 20.002 42.488C20.0317 42.488 20.0602 42.4762 20.0812 42.4552C20.1022 42.4342 20.114 42.4057 20.114 42.376C20.114 42.3463 20.1022 42.3178 20.0812 42.2968C20.0602 42.2758 20.0317 42.264 20.002 42.264V42.263ZM28.002 42.263C27.9863 42.2615 27.9705 42.2633 27.9556 42.2683C27.9407 42.2733 27.927 42.2813 27.9153 42.2919C27.9037 42.3025 27.8944 42.3154 27.888 42.3298C27.8817 42.3442 27.8784 42.3598 27.8784 42.3755C27.8784 42.3912 27.8817 42.4068 27.888 42.4212C27.8944 42.4356 27.9037 42.4485 27.9153 42.4591C27.927 42.4697 27.9407 42.4777 27.9556 42.4827C27.9705 42.4877 27.9863 42.4895 28.002 42.488C28.0317 42.488 28.0602 42.4762 28.0812 42.4552C28.1022 42.4342 28.114 42.4057 28.114 42.376C28.114 42.3463 28.1022 42.3178 28.0812 42.2968C28.0602 42.2758 28.0317 42.264 28.002 42.264V42.263ZM19.992 42.826C19.9773 42.8269 19.9629 42.8307 19.9497 42.8372C19.9364 42.8437 19.9246 42.8527 19.9149 42.8638C19.9051 42.8748 19.8976 42.8877 19.8928 42.9016C19.8881 42.9155 19.8861 42.9303 19.887 42.945C19.8879 42.9597 19.8917 42.9741 19.8982 42.9873C19.9047 43.0006 19.9137 43.0124 19.9248 43.0221C19.9358 43.0319 19.9487 43.0394 19.9626 43.0442C19.9765 43.0489 19.9913 43.0509 20.006 43.05C20.0357 43.0481 20.0635 43.0346 20.0831 43.0122C20.1028 42.9899 20.1129 42.9607 20.111 42.931C20.1091 42.9013 20.0956 42.8735 20.0732 42.8539C20.0509 42.8342 20.0217 42.8241 19.992 42.826ZM27.992 42.826C27.9773 42.8269 27.9629 42.8307 27.9497 42.8372C27.9364 42.8437 27.9246 42.8527 27.9149 42.8638C27.9051 42.8748 27.8976 42.8877 27.8928 42.9016C27.8881 42.9155 27.8861 42.9303 27.887 42.945C27.8879 42.9597 27.8917 42.9741 27.8982 42.9873C27.9047 43.0006 27.9137 43.0124 27.9248 43.0221C27.9358 43.0319 27.9487 43.0394 27.9626 43.0442C27.9765 43.0489 27.9913 43.0509 28.006 43.05C28.0357 43.0481 28.0635 43.0346 28.0831 43.0122C28.1028 42.9899 28.1129 42.9607 28.111 42.931C28.1091 42.9013 28.0956 42.8735 28.0732 42.8539C28.0509 42.8342 28.0217 42.8241 27.992 42.826Z" fill="#333333"/>
</svg>
