<svg width="48" height="48" viewBox="0 0 48 48" fill="none" xmlns="http://www.w3.org/2000/svg">
<path d="M14.209 3.9375C13.3395 3.9375 12.6406 4.63642 12.6406 5.50586V42.3672C12.6406 43.2366 13.3395 43.9375 14.209 43.9375H33.9141C34.7835 43.9375 35.4824 43.2366 35.4824 42.3672V5.50586C35.4824 4.63642 34.7835 3.9375 33.9141 3.9375H14.209ZM21.3594 10.248C22.243 10.2481 22.9589 10.964 22.959 11.8477C22.9589 12.7313 22.243 13.4473 21.3594 13.4473C20.4757 13.4473 19.7598 12.7313 19.7598 11.8477C19.7598 10.964 20.4757 10.2481 21.3594 10.248ZM26.7656 10.248C27.6492 10.2481 28.3652 10.964 28.3652 11.8477C28.3652 12.7313 27.6492 13.4473 26.7656 13.4473C25.882 13.4473 25.1661 12.7313 25.166 11.8477C25.1661 10.964 25.882 10.2481 26.7656 10.248ZM21.3594 14.3027C22.243 14.3028 22.9589 15.0187 22.959 15.9023C22.9589 16.786 22.243 17.502 21.3594 17.502C20.4757 17.502 19.7598 16.786 19.7598 15.9023C19.7598 15.0187 20.4757 14.3028 21.3594 14.3027ZM26.7656 14.3027C27.6492 14.3028 28.3652 15.0187 28.3652 15.9023C28.3652 16.786 27.6492 17.502 26.7656 17.502C25.882 17.502 25.1661 16.786 25.166 15.9023C25.1661 15.0187 25.882 14.3028 26.7656 14.3027ZM13.6582 23.8242C13.7209 23.8238 13.7721 23.8748 13.7715 23.9375C13.7707 23.9999 13.7202 24.0513 13.6582 24.0508C13.5966 24.05 13.5474 23.9987 13.5469 23.9375C13.5465 23.8751 13.5962 23.8247 13.6582 23.8242ZM14.2207 23.8242C14.2759 23.8238 14.3264 23.8635 14.334 23.918C14.3346 23.9255 14.3346 23.9299 14.334 23.9375C14.3332 23.9987 14.2819 24.0503 14.2207 24.0508C14.1591 24.0504 14.1099 23.9987 14.1094 23.9375C14.109 23.8751 14.1587 23.8247 14.2207 23.8242ZM14.7832 23.8242C14.8384 23.8238 14.8889 23.8635 14.8965 23.918C14.8971 23.9255 14.8971 23.9299 14.8965 23.9375C14.8957 23.9987 14.8444 24.0503 14.7832 24.0508C14.7212 24.0515 14.6724 23.9995 14.6719 23.9375C14.6715 23.8748 14.7205 23.8236 14.7832 23.8242ZM15.3457 23.8242C15.405 23.8246 15.4554 23.8707 15.459 23.9297C15.4591 23.9352 15.4591 23.9349 15.459 23.9375C15.4582 23.9987 15.4069 24.0503 15.3457 24.0508C15.2837 24.0515 15.2349 23.9995 15.2344 23.9375C15.234 23.8748 15.283 23.8236 15.3457 23.8242ZM15.9082 23.8242C15.9675 23.8246 16.0159 23.8707 16.0195 23.9297C16.0196 23.9352 16.0196 23.9349 16.0195 23.9375C16.0188 23.9987 15.9694 24.0503 15.9082 24.0508C15.8462 24.0515 15.7974 23.9995 15.7969 23.9375C15.7965 23.8748 15.8455 23.8236 15.9082 23.8242ZM16.4707 23.8242C16.53 23.8246 16.5804 23.8707 16.584 23.9297C16.5841 23.9352 16.5841 23.9349 16.584 23.9375C16.5832 23.9987 16.5319 24.0503 16.4707 24.0508C16.4087 24.0515 16.3599 23.9995 16.3594 23.9375C16.359 23.8748 16.408 23.8236 16.4707 23.8242ZM17.0312 23.8242C17.0913 23.8235 17.1409 23.87 17.1445 23.9297C17.1446 23.9352 17.1446 23.9349 17.1445 23.9375C17.1438 23.9995 17.0932 24.0514 17.0312 24.0508C16.9696 24.0504 16.9204 23.9987 16.9199 23.9375C16.9195 23.8751 16.9693 23.8247 17.0312 23.8242ZM17.5937 23.8242C17.6538 23.8235 17.7034 23.87 17.707 23.9297C17.7071 23.9352 17.7071 23.9349 17.707 23.9375C17.7063 23.9995 17.6557 24.0514 17.5937 24.0508C17.5321 24.0504 17.4829 23.9987 17.4824 23.9375C17.482 23.8751 17.5318 23.8247 17.5937 23.8242ZM18.1562 23.8242C18.2163 23.8235 18.2659 23.87 18.2695 23.9297C18.2696 23.9352 18.2696 23.9349 18.2695 23.9375C18.2688 23.9995 18.2182 24.0514 18.1562 24.0508C18.0946 24.0504 18.0454 23.9987 18.0449 23.9375C18.0445 23.8751 18.0943 23.8247 18.1562 23.8242ZM18.7187 23.8242C18.7739 23.8238 18.8244 23.8635 18.832 23.918C18.8326 23.9255 18.8326 23.9299 18.832 23.9375C18.8313 23.9987 18.78 24.0503 18.7187 24.0508C18.6575 24.0504 18.6079 23.9987 18.6074 23.9375C18.6067 23.8751 18.6568 23.8247 18.7187 23.8242ZM19.2812 23.8242C19.3406 23.8246 19.3909 23.8707 19.3945 23.9297C19.3946 23.9352 19.3946 23.9349 19.3945 23.9375C19.3938 23.9987 19.3425 24.0503 19.2812 24.0508C19.2193 24.0515 19.1704 23.9995 19.1699 23.9375C19.1695 23.8748 19.2185 23.8236 19.2812 23.8242ZM19.8437 23.8242C19.9031 23.8246 19.9534 23.8707 19.957 23.9297C19.9571 23.9352 19.9571 23.9349 19.957 23.9375C19.9563 23.9987 19.905 24.0503 19.8437 24.0508C19.7818 24.0515 19.7329 23.9995 19.7324 23.9375C19.732 23.8748 19.781 23.8236 19.8437 23.8242ZM20.4062 23.8242C20.4656 23.8246 20.5159 23.8707 20.5195 23.9297C20.5196 23.9352 20.5196 23.9349 20.5195 23.9375C20.5188 23.9987 20.4675 24.0503 20.4062 24.0508C20.3443 24.0515 20.2954 23.9995 20.2949 23.9375C20.2945 23.8748 20.3435 23.8236 20.4062 23.8242ZM20.9687 23.8242C21.0281 23.8246 21.0784 23.8707 21.082 23.9297C21.0821 23.9352 21.0821 23.9349 21.082 23.9375C21.0813 23.9987 21.03 24.0503 20.9687 24.0508C20.9068 24.0515 20.8579 23.9995 20.8574 23.9375C20.857 23.8748 20.906 23.8236 20.9687 23.8242ZM21.5293 23.8242C21.5894 23.8235 21.639 23.87 21.6426 23.9297C21.6427 23.9352 21.6427 23.9349 21.6426 23.9375C21.6418 23.9995 21.5913 24.0514 21.5293 24.0508C21.4677 24.0504 21.4185 23.9987 21.418 23.9375C21.4176 23.8751 21.4673 23.8247 21.5293 23.8242ZM22.0918 23.8242C22.1519 23.8235 22.2015 23.87 22.2051 23.9297C22.2052 23.9352 22.2052 23.9349 22.2051 23.9375C22.2043 23.9995 22.1538 24.0514 22.0918 24.0508C22.0302 24.0504 21.981 23.9987 21.9805 23.9375C21.9801 23.8751 22.0298 23.8247 22.0918 23.8242ZM22.6543 23.8242C22.717 23.8238 22.7682 23.8748 22.7676 23.9375C22.7668 23.9999 22.7163 24.0513 22.6543 24.0508C22.5927 24.05 22.5454 23.9987 22.5449 23.9375C22.5445 23.8751 22.5923 23.8247 22.6543 23.8242ZM23.2168 23.8242C23.2716 23.8238 23.3225 23.8635 23.3301 23.918C23.3306 23.9255 23.3306 23.9299 23.3301 23.9375C23.3297 23.9987 23.278 24.0503 23.2168 24.0508C23.1552 24.0504 23.106 23.9987 23.1055 23.9375C23.1051 23.8751 23.1548 23.8247 23.2168 23.8242ZM23.7793 23.8242C23.8345 23.8238 23.885 23.8635 23.8926 23.918C23.8931 23.9255 23.8931 23.9299 23.8926 23.9375C23.8918 23.9987 23.8405 24.0503 23.7793 24.0508C23.7173 24.0515 23.6665 23.9995 23.666 23.9375C23.6656 23.8748 23.7166 23.8236 23.7793 23.8242ZM24.3418 23.8242C24.4011 23.8246 24.4515 23.8707 24.4551 23.9297C24.4552 23.9352 24.4552 23.9349 24.4551 23.9375C24.4543 23.9987 24.403 24.0503 24.3418 24.0508C24.2798 24.0515 24.229 23.9995 24.2285 23.9375C24.2281 23.8748 24.2791 23.8236 24.3418 23.8242ZM24.9043 23.8242C24.9636 23.8246 25.014 23.8707 25.0176 23.9297C25.0177 23.9352 25.0177 23.9349 25.0176 23.9375C25.0168 23.9987 24.9655 24.0503 24.9043 24.0508C24.8423 24.0515 24.7935 23.9995 24.793 23.9375C24.7926 23.8748 24.8416 23.8236 24.9043 23.8242ZM25.4648 23.8242C25.5249 23.8235 25.5765 23.87 25.5801 23.9297C25.5802 23.9352 25.5802 23.9349 25.5801 23.9375C25.5793 23.9995 25.5268 24.0514 25.4648 24.0508C25.4036 24.0504 25.354 23.9987 25.3535 23.9375C25.3528 23.8751 25.4029 23.8247 25.4648 23.8242ZM26.0273 23.8242C26.0874 23.8235 26.139 23.87 26.1426 23.9297C26.1427 23.9352 26.1427 23.9349 26.1426 23.9375C26.1418 23.9995 26.0893 24.0514 26.0273 24.0508C25.9657 24.0504 25.9165 23.9987 25.916 23.9375C25.9156 23.8751 25.9654 23.8247 26.0273 23.8242ZM26.5898 23.8242C26.6499 23.8235 26.7015 23.87 26.7051 23.9297C26.7052 23.9352 26.7052 23.9349 26.7051 23.9375C26.7043 23.9995 26.6518 24.0514 26.5898 24.0508C26.5282 24.0504 26.479 23.9987 26.4785 23.9375C26.4781 23.8751 26.5279 23.8247 26.5898 23.8242ZM27.1523 23.8242C27.2151 23.8238 27.2682 23.8748 27.2676 23.9375C27.2668 23.9999 27.2143 24.0513 27.1523 24.0508C27.0907 24.05 27.0415 23.9987 27.041 23.9375C27.0406 23.8751 27.0904 23.8247 27.1523 23.8242ZM27.7148 23.8242C27.77 23.8238 27.8205 23.8635 27.8281 23.918C27.8287 23.9255 27.8287 23.9299 27.8281 23.9375C27.8274 23.9987 27.7761 24.0503 27.7148 24.0508C27.6536 24.0504 27.604 23.9987 27.6035 23.9375C27.6028 23.8751 27.6529 23.8247 27.7148 23.8242ZM28.2773 23.8242C28.3367 23.8246 28.387 23.8707 28.3906 23.9297C28.3907 23.9352 28.3907 23.9349 28.3906 23.9375C28.3899 23.9987 28.3386 24.0503 28.2773 24.0508C28.2154 24.0515 28.1646 23.9995 28.1641 23.9375C28.1637 23.8748 28.2146 23.8236 28.2773 23.8242ZM28.8398 23.8242C28.8992 23.8246 28.9495 23.8707 28.9531 23.9297C28.9532 23.9352 28.9532 23.9349 28.9531 23.9375C28.9524 23.9987 28.9011 24.0503 28.8398 24.0508C28.7779 24.0515 28.7271 23.9995 28.7266 23.9375C28.7262 23.8748 28.7771 23.8236 28.8398 23.8242ZM29.4023 23.8242C29.4617 23.8246 29.512 23.8707 29.5156 23.9297C29.5157 23.9352 29.5157 23.9349 29.5156 23.9375C29.5149 23.9987 29.4636 24.0503 29.4023 24.0508C29.3404 24.0515 29.2915 23.9995 29.291 23.9375C29.2906 23.8748 29.3396 23.8236 29.4023 23.8242ZM29.9629 23.8242C30.023 23.8235 30.0726 23.87 30.0762 23.9297C30.0763 23.9352 30.0763 23.9349 30.0762 23.9375C30.0754 23.9995 30.0249 24.0514 29.9629 24.0508C29.9013 24.0504 29.8521 23.9987 29.8516 23.9375C29.8512 23.8751 29.9009 23.8247 29.9629 23.8242ZM30.5254 23.8242C30.5855 23.8235 30.637 23.87 30.6406 23.9297C30.6407 23.9352 30.6407 23.9349 30.6406 23.9375C30.6399 23.9995 30.5874 24.0514 30.5254 24.0508C30.4638 24.0504 30.4165 23.9987 30.416 23.9375C30.4156 23.8751 30.4634 23.8247 30.5254 23.8242ZM31.0879 23.8242C31.148 23.8235 31.1976 23.87 31.2012 23.9297C31.2012 23.9352 31.2012 23.9349 31.2012 23.9375C31.2004 23.9995 31.1499 24.0514 31.0879 24.0508C31.0263 24.0504 30.9771 23.9987 30.9766 23.9375C30.9762 23.8751 31.0259 23.8247 31.0879 23.8242ZM31.6504 23.8242C31.7056 23.8238 31.7561 23.8635 31.7637 23.918C31.7642 23.9255 31.7642 23.9299 31.7637 23.9375C31.7629 23.9987 31.7116 24.0503 31.6504 24.0508C31.5892 24.0504 31.5415 23.9987 31.541 23.9375C31.5403 23.8751 31.5884 23.8247 31.6504 23.8242ZM32.2129 23.8242C32.2681 23.8238 32.3186 23.8635 32.3262 23.918C32.3267 23.9255 32.3267 23.9299 32.3262 23.9375C32.3254 23.9987 32.2741 24.0503 32.2129 24.0508C32.1509 24.0515 32.1021 23.9995 32.1016 23.9375C32.1012 23.8748 32.1501 23.8236 32.2129 23.8242ZM32.7754 23.8242C32.8347 23.8246 32.8851 23.8707 32.8887 23.9297C32.8887 23.9352 32.8887 23.9349 32.8887 23.9375C32.8879 23.9987 32.8366 24.0503 32.7754 24.0508C32.7134 24.0515 32.6646 23.9995 32.6641 23.9375C32.6637 23.8748 32.7126 23.8236 32.7754 23.8242ZM33.3379 23.8242C33.3969 23.8246 33.4476 23.8707 33.4512 23.9297C33.4513 23.9352 33.4513 23.9349 33.4512 23.9375C33.4508 23.9987 33.3991 24.0503 33.3379 24.0508C33.2759 24.0515 33.2251 23.9995 33.2246 23.9375C33.2242 23.8748 33.2751 23.8236 33.3379 23.8242ZM33.9004 23.8242C33.9594 23.8246 34.0101 23.8707 34.0137 23.9297C34.0138 23.9352 34.0138 23.9349 34.0137 23.9375C34.0133 23.9987 33.9616 24.0503 33.9004 24.0508C33.8384 24.0515 33.7876 23.9995 33.7871 23.9375C33.7867 23.8748 33.8376 23.8236 33.9004 23.8242ZM34.4609 23.8242C34.521 23.8235 34.5726 23.87 34.5762 23.9297C34.5762 23.9352 34.5762 23.9349 34.5762 23.9375C34.5754 23.9995 34.5229 24.0514 34.4609 24.0508C34.3993 24.0504 34.3521 23.9987 34.3516 23.9375C34.3512 23.8751 34.399 23.8247 34.4609 23.8242ZM21.3594 30.373C22.243 30.3731 22.9589 31.089 22.959 31.9727C22.9589 32.8563 22.243 33.5723 21.3594 33.5723C20.4757 33.5723 19.7598 32.8563 19.7598 31.9727C19.7598 31.089 20.4757 30.3731 21.3594 30.373ZM26.7656 30.373C27.6492 30.3731 28.3652 31.089 28.3652 31.9727C28.3652 32.8563 27.6492 33.5723 26.7656 33.5723C25.882 33.5723 25.1661 32.8563 25.166 31.9727C25.1661 31.089 25.882 30.3731 26.7656 30.373ZM21.3594 34.4277C22.243 34.4278 22.9589 35.1437 22.959 36.0273C22.9589 36.911 22.243 37.6269 21.3594 37.6269C20.4757 37.6269 19.7598 36.911 19.7598 36.0273C19.7598 35.1437 20.4757 34.4278 21.3594 34.4277ZM26.7656 34.4277C27.6492 34.4278 28.3652 35.1437 28.3652 36.0273C28.3652 36.911 27.6492 37.6269 26.7656 37.6269C25.882 37.6269 25.1661 36.911 25.166 36.0273C25.1661 35.1437 25.882 34.4278 26.7656 34.4277Z" fill="#333333"/>
</svg>
