<svg width="48" height="48" viewBox="0 0 48 48" fill="none" xmlns="http://www.w3.org/2000/svg">
<path d="M23.84 4.10315C20.553 4.11115 17.32 4.12615 14.146 4.12515C13.277 4.12515 12.58 4.82415 12.58 5.69315V42.5542C12.58 43.4242 13.277 44.1242 14.146 44.1242H33.852C34.721 44.1242 35.42 43.4242 35.42 42.5542V5.69315C35.42 4.82315 34.721 4.12515 33.852 4.12515C30.466 4.09515 27.126 4.09515 23.84 4.10315ZM14.58 4.62515H33.418C34.249 4.62515 34.92 5.30615 34.92 6.15415V42.0942C34.92 42.9412 34.25 43.6242 33.418 43.6242H14.58C13.749 43.6242 13.08 42.9412 13.08 42.0942V6.15315C13.08 5.30515 13.749 4.62315 14.58 4.62315V4.62515ZM19.992 5.16515C19.9626 5.1662 19.9349 5.17873 19.9147 5.20004C19.8945 5.22134 19.8834 5.24973 19.884 5.27908C19.8845 5.30844 19.8965 5.33641 19.9175 5.35698C19.9384 5.37756 19.9666 5.38908 19.996 5.38908C20.0253 5.38908 20.0535 5.37756 20.0744 5.35698C20.0954 5.33641 20.1074 5.30844 20.1079 5.27908C20.1085 5.24973 20.0974 5.22134 20.0772 5.20004C20.0571 5.17873 20.0293 5.1662 20 5.16515H19.992ZM27.992 5.16515C27.9626 5.1662 27.9349 5.17873 27.9147 5.20004C27.8945 5.22134 27.8834 5.24973 27.884 5.27908C27.8845 5.30844 27.8965 5.33641 27.9175 5.35698C27.9384 5.37756 27.9666 5.38908 27.996 5.38908C28.0253 5.38908 28.0535 5.37756 28.0744 5.35698C28.0954 5.33641 28.1074 5.30844 28.1079 5.27908C28.1085 5.24973 28.0974 5.22134 28.0772 5.20004C28.057 5.17873 28.0293 5.1662 28 5.16515H27.992ZM19.992 5.72815C19.9772 5.72907 19.9629 5.73288 19.9496 5.73936C19.9364 5.74584 19.9246 5.75486 19.9148 5.76591C19.9051 5.77696 19.8976 5.78982 19.8928 5.80376C19.888 5.8177 19.886 5.83245 19.887 5.84715C19.8879 5.86186 19.8917 5.87624 19.8982 5.88948C19.9046 5.90272 19.9137 5.91455 19.9247 5.9243C19.9358 5.93405 19.9486 5.94153 19.9626 5.94631C19.9765 5.95109 19.9912 5.95307 20.006 5.95215C20.0357 5.9503 20.0634 5.93672 20.0831 5.9144C20.1028 5.89208 20.1128 5.86286 20.111 5.83315C20.1091 5.80345 20.0955 5.7757 20.0732 5.75601C20.0509 5.73632 20.0217 5.7263 19.992 5.72815ZM27.992 5.72815C27.9772 5.72907 27.9629 5.73288 27.9496 5.73936C27.9364 5.74584 27.9246 5.75486 27.9148 5.76591C27.9051 5.77696 27.8976 5.78982 27.8928 5.80376C27.888 5.8177 27.886 5.83245 27.887 5.84715C27.8879 5.86186 27.8917 5.87624 27.8982 5.88948C27.9046 5.90272 27.9137 5.91455 27.9247 5.9243C27.9358 5.93405 27.9486 5.94153 27.9626 5.94631C27.9765 5.95109 27.9912 5.95307 28.006 5.95215C28.0357 5.9503 28.0634 5.93672 28.0831 5.9144C28.1028 5.89208 28.1128 5.86286 28.111 5.83315C28.1091 5.80345 28.0955 5.7757 28.0732 5.75601C28.0509 5.73632 28.0217 5.7263 27.992 5.72815ZM24.978 6.06415V6.06615C24.8533 6.06823 24.7303 6.09491 24.616 6.14468C24.5017 6.19445 24.3984 6.26632 24.312 6.35615L22.504 8.21315C22.4168 8.30209 22.348 8.40737 22.3017 8.52296C22.2553 8.63855 22.2323 8.76216 22.2339 8.88669C22.2354 9.01122 22.2616 9.1342 22.3109 9.24858C22.3602 9.36295 22.4315 9.46646 22.521 9.55315C22.7014 9.72811 22.9438 9.82427 23.1951 9.82052C23.4464 9.81677 23.6859 9.71341 23.861 9.53315L25.67 7.67315C25.7571 7.58416 25.8257 7.47882 25.872 7.36319C25.9183 7.24757 25.9412 7.12394 25.9396 6.99941C25.9379 6.87488 25.9116 6.75191 25.8623 6.63757C25.8129 6.52323 25.7414 6.41978 25.652 6.33315C25.5629 6.24611 25.4575 6.17754 25.3418 6.13138C25.2261 6.08521 25.1025 6.06237 24.978 6.06415ZM19.982 6.29115C19.9608 6.2944 19.941 6.30365 19.9249 6.3178C19.9089 6.33196 19.8972 6.35042 19.8913 6.371C19.8854 6.39159 19.8855 6.41343 19.8917 6.43395C19.8978 6.45446 19.9097 6.47279 19.9259 6.48675C19.9421 6.50072 19.962 6.50974 19.9832 6.51275C20.0044 6.51575 20.0261 6.51262 20.0455 6.50372C20.065 6.49481 20.0815 6.48051 20.0931 6.46251C20.1047 6.44451 20.1109 6.42357 20.111 6.40215C20.111 6.34115 20.061 6.29215 20 6.29115H19.982ZM27.982 6.29115C27.9608 6.2944 27.941 6.30365 27.9249 6.3178C27.9089 6.33196 27.8972 6.35042 27.8913 6.371C27.8854 6.39159 27.8855 6.41343 27.8917 6.43395C27.8978 6.45446 27.9097 6.47279 27.9259 6.48675C27.9421 6.50072 27.962 6.50974 27.9832 6.51275C28.0044 6.51575 28.0261 6.51262 28.0455 6.50372C28.065 6.49481 28.0815 6.48051 28.0931 6.46251C28.1047 6.44451 28.1109 6.42357 28.111 6.40215C28.111 6.34115 28.061 6.29215 28 6.29115H27.982ZM25.043 6.54915H25.045C25.1357 6.55739 25.2214 6.59495 25.289 6.65615C25.696 7.01815 25.212 7.44115 25.037 7.62515L24.172 8.52915C23.565 9.16015 23.301 9.58715 22.877 9.17915C22.517 8.80615 22.837 8.58315 23.525 7.88415L24.391 6.98215C24.596 6.78215 24.808 6.53815 25.043 6.54915ZM20.002 6.85115C19.9872 6.85102 19.9725 6.8538 19.9588 6.85933C19.9451 6.86487 19.9327 6.87304 19.9221 6.8834C19.9116 6.89375 19.9032 6.90608 19.8974 6.91968C19.8916 6.93328 19.8886 6.94788 19.8885 6.96265C19.8883 6.97743 19.8911 6.99208 19.8966 7.00578C19.9022 7.01948 19.9103 7.03196 19.9207 7.0425C19.9311 7.05304 19.9434 7.06143 19.957 7.06721C19.9706 7.07298 19.9852 7.07602 20 7.07615C20.0298 7.07642 20.0585 7.06482 20.0798 7.04391C20.1011 7.023 20.1132 6.99449 20.1135 6.96465C20.1137 6.93482 20.1021 6.9061 20.0812 6.88481C20.0603 6.86353 20.0318 6.85142 20.002 6.85115ZM28.002 6.85115C27.9872 6.85102 27.9725 6.8538 27.9588 6.85933C27.9451 6.86487 27.9327 6.87304 27.9221 6.8834C27.9116 6.89375 27.9032 6.90608 27.8974 6.91968C27.8916 6.93328 27.8886 6.94788 27.8885 6.96265C27.8883 6.97743 27.8911 6.99208 27.8966 7.00578C27.9022 7.01948 27.9103 7.03196 27.9207 7.0425C27.9311 7.05304 27.9434 7.06143 27.957 7.06721C27.9706 7.07298 27.9852 7.07602 28 7.07615C28.0298 7.07642 28.0585 7.06482 28.0798 7.04391C28.1011 7.023 28.1132 6.99449 28.1135 6.96465C28.1137 6.93482 28.1021 6.9061 28.0812 6.88481C28.0603 6.86353 28.0318 6.85142 28.002 6.85115ZM19.992 7.41415C19.9633 7.41595 19.9364 7.42867 19.9169 7.4497C19.8974 7.47072 19.8866 7.49845 19.887 7.52715C19.887 7.58915 19.937 7.63915 20 7.63815C20.0297 7.63709 20.0577 7.62428 20.078 7.60252C20.0982 7.58077 20.109 7.55186 20.108 7.52215C20.1069 7.49245 20.0941 7.46438 20.0723 7.44413C20.0506 7.42388 20.0217 7.41309 19.992 7.41415ZM27.992 7.41415C27.9633 7.41595 27.9364 7.42867 27.9169 7.4497C27.8974 7.47072 27.8866 7.49845 27.887 7.52715C27.887 7.58915 27.937 7.63915 28 7.63815C28.0147 7.63763 28.0291 7.63421 28.0425 7.6281C28.0559 7.62198 28.068 7.61329 28.078 7.60252C28.088 7.59175 28.0958 7.57911 28.101 7.56532C28.1061 7.55153 28.1085 7.53686 28.108 7.52215C28.1074 7.50745 28.104 7.49299 28.0979 7.4796C28.0918 7.46621 28.0831 7.45416 28.0723 7.44413C28.0616 7.4341 28.0489 7.42629 28.0351 7.42115C28.0213 7.41601 28.0067 7.41363 27.992 7.41415ZM19.992 7.97415C19.9626 7.9752 19.9349 7.98773 19.9147 8.00904C19.8945 8.03034 19.8834 8.05873 19.884 8.08808C19.8845 8.11744 19.8965 8.14541 19.9175 8.16598C19.9384 8.18655 19.9666 8.19808 19.996 8.19808C20.0253 8.19808 20.0535 8.18655 20.0744 8.16598C20.0954 8.14541 20.1074 8.11744 20.1079 8.08808C20.1085 8.05873 20.0974 8.03034 20.0772 8.00904C20.0571 7.98773 20.0293 7.9752 20 7.97415H19.992ZM27.992 7.97415C27.9626 7.9752 27.9349 7.98773 27.9147 8.00904C27.8945 8.03034 27.8834 8.05873 27.884 8.08808C27.8845 8.11744 27.8965 8.14541 27.9175 8.16598C27.9384 8.18655 27.9666 8.19808 27.996 8.19808C28.0253 8.19808 28.0535 8.18655 28.0744 8.16598C28.0954 8.14541 28.1074 8.11744 28.1079 8.08808C28.1085 8.05873 28.0974 8.03034 28.0772 8.00904C28.057 7.98773 28.0293 7.9752 28 7.97415H27.992ZM19.992 8.53715C19.9626 8.5382 19.9349 8.55073 19.9147 8.57204C19.8945 8.59334 19.8834 8.62173 19.884 8.65108C19.8845 8.68044 19.8965 8.70841 19.9175 8.72898C19.9384 8.74955 19.9666 8.76108 19.996 8.76108C20.0253 8.76108 20.0535 8.74955 20.0744 8.72898C20.0954 8.70841 20.1074 8.68044 20.1079 8.65108C20.1085 8.62173 20.0974 8.59334 20.0772 8.57204C20.0571 8.55073 20.0293 8.5382 20 8.53715H19.992ZM27.992 8.53715C27.9626 8.5382 27.9349 8.55073 27.9147 8.57204C27.8945 8.59334 27.8834 8.62173 27.884 8.65108C27.8845 8.68044 27.8965 8.70841 27.9175 8.72898C27.9384 8.74955 27.9666 8.76108 27.996 8.76108C28.0253 8.76108 28.0535 8.74955 28.0744 8.72898C28.0954 8.70841 28.1074 8.68044 28.1079 8.65108C28.1085 8.62173 28.0974 8.59334 28.0772 8.57204C28.057 8.55073 28.0293 8.5382 28 8.53715H27.992ZM19.992 9.09915C19.9621 9.10101 19.9342 9.11464 19.9145 9.13705C19.8947 9.15946 19.8846 9.18882 19.8865 9.21865C19.8883 9.24849 19.9019 9.27637 19.9244 9.29615C19.9468 9.31594 19.9761 9.32601 20.006 9.32415C20.0207 9.32323 20.0352 9.31941 20.0485 9.31291C20.0618 9.30641 20.0737 9.29735 20.0835 9.28625C20.0933 9.27516 20.1008 9.26224 20.1056 9.24824C20.1104 9.23424 20.1124 9.21943 20.1115 9.20465C20.1105 9.18988 20.1067 9.17543 20.1002 9.16213C20.0937 9.14884 20.0847 9.13695 20.0736 9.12715C20.0625 9.11736 20.0495 9.10984 20.0355 9.10504C20.0215 9.10023 20.0067 9.09823 19.992 9.09915ZM27.992 9.09915C27.9621 9.10101 27.9342 9.11464 27.9145 9.13705C27.8947 9.15946 27.8846 9.18882 27.8865 9.21865C27.8883 9.24849 27.9019 9.27637 27.9244 9.29615C27.9468 9.31594 27.9761 9.32601 28.006 9.32415C28.0207 9.32323 28.0352 9.31941 28.0485 9.31291C28.0618 9.30641 28.0737 9.29735 28.0835 9.28625C28.0933 9.27516 28.1008 9.26224 28.1056 9.24824C28.1104 9.23424 28.1124 9.21943 28.1115 9.20465C28.1105 9.18988 28.1067 9.17543 28.1002 9.16213C28.0937 9.14884 28.0847 9.13695 28.0736 9.12715C28.0625 9.11736 28.0495 9.10984 28.0355 9.10504C28.0215 9.10023 28.0067 9.09823 27.992 9.09915ZM19.992 9.66215C19.9626 9.6632 19.9349 9.67573 19.9147 9.69704C19.8945 9.71834 19.8834 9.74673 19.884 9.77608C19.8845 9.80544 19.8965 9.83341 19.9175 9.85398C19.9384 9.87455 19.9666 9.88608 19.996 9.88608C20.0253 9.88608 20.0535 9.87455 20.0744 9.85398C20.0954 9.83341 20.1074 9.80544 20.1079 9.77608C20.1085 9.74673 20.0974 9.71834 20.0772 9.69704C20.0571 9.67573 20.0293 9.6632 20 9.66215H19.992ZM27.992 9.66215C27.9626 9.6632 27.9349 9.67573 27.9147 9.69704C27.8945 9.71834 27.8834 9.74673 27.884 9.77608C27.8845 9.80544 27.8965 9.83341 27.9175 9.85398C27.9384 9.87455 27.9666 9.88608 27.996 9.88608C28.0253 9.88608 28.0535 9.87455 28.0744 9.85398C28.0954 9.83341 28.1074 9.80544 28.1079 9.77608C28.1085 9.74673 28.0974 9.71834 28.0772 9.69704C28.057 9.67573 28.0293 9.6632 28 9.66215H27.992ZM19.98 10.2242C19.9534 10.2289 19.9294 10.243 19.9124 10.2639C19.8953 10.2849 19.8863 10.3112 19.887 10.3382C19.8848 10.3541 19.8861 10.3704 19.8908 10.3858C19.8954 10.4012 19.9033 10.4154 19.9139 10.4276C19.9245 10.4397 19.9376 10.4494 19.9523 10.4561C19.9669 10.4627 19.9829 10.4662 19.999 10.4662C20.0151 10.4662 20.031 10.4627 20.0457 10.4561C20.0603 10.4494 20.0734 10.4397 20.084 10.4276C20.0946 10.4154 20.1025 10.4012 20.1071 10.3858C20.1118 10.3704 20.1131 10.3541 20.111 10.3382C20.111 10.3084 20.0994 10.2799 20.0786 10.2586C20.0579 10.2373 20.0297 10.2249 20 10.2242H19.98ZM27.98 10.2242C27.9534 10.2289 27.9294 10.243 27.9124 10.2639C27.8953 10.2849 27.8863 10.3112 27.887 10.3382C27.8848 10.3541 27.8861 10.3704 27.8908 10.3858C27.8954 10.4012 27.9033 10.4154 27.9139 10.4276C27.9245 10.4397 27.9376 10.4494 27.9523 10.4561C27.9669 10.4627 27.9829 10.4662 27.999 10.4662C28.0151 10.4662 28.031 10.4627 28.0457 10.4561C28.0603 10.4494 28.0734 10.4397 28.084 10.4276C28.0946 10.4154 28.1025 10.4012 28.1071 10.3858C28.1118 10.3704 28.1131 10.3541 28.111 10.3382C28.111 10.3084 28.0994 10.2799 28.0786 10.2586C28.0579 10.2373 28.0297 10.2249 28 10.2242H27.98ZM20.002 10.7842C19.9869 10.7843 19.972 10.7874 19.9582 10.7933C19.9443 10.7992 19.9318 10.8078 19.9213 10.8186C19.9108 10.8294 19.9025 10.8421 19.897 10.8561C19.8914 10.8701 19.8887 10.8851 19.889 10.9002C19.889 10.9622 19.939 11.0102 20.002 11.0102C20.0165 11.0103 20.0309 11.0075 20.0444 11.0021C20.0578 10.9966 20.0701 10.9885 20.0804 10.9783C20.0907 10.9681 20.0989 10.9559 20.1045 10.9425C20.1101 10.9291 20.113 10.9147 20.113 10.9002C20.1132 10.8703 20.1017 10.8415 20.081 10.8199C20.0602 10.7984 20.0318 10.7859 20.002 10.7852V10.7842ZM28.002 10.7842C27.9869 10.7843 27.972 10.7874 27.9582 10.7933C27.9443 10.7992 27.9318 10.8078 27.9213 10.8186C27.9108 10.8294 27.9025 10.8421 27.897 10.8561C27.8914 10.8701 27.8887 10.8851 27.889 10.9002C27.889 10.9622 27.939 11.0102 28.002 11.0102C28.0165 11.0103 28.0309 11.0075 28.0444 11.0021C28.0578 10.9966 28.0701 10.9885 28.0804 10.9783C28.0907 10.9681 28.0989 10.9559 28.1045 10.9425C28.1101 10.9291 28.113 10.9147 28.113 10.9002C28.1132 10.8703 28.1017 10.8415 28.081 10.8199C28.0602 10.7984 28.0318 10.7859 28.002 10.7852V10.7842ZM24.979 11.3242V11.3262C24.8544 11.3281 24.7314 11.3546 24.6171 11.4042C24.5028 11.4538 24.3995 11.5255 24.313 11.6152L22.503 13.4722C22.4158 13.5612 22.3472 13.6665 22.3009 13.7821C22.2546 13.8977 22.2317 14.0214 22.2333 14.1459C22.235 14.2704 22.2613 14.3934 22.3106 14.5077C22.36 14.6221 22.4315 14.7255 22.521 14.8122C22.7014 14.9871 22.9438 15.0833 23.1951 15.0795C23.4464 15.0758 23.6859 14.9724 23.861 14.7922L25.67 12.9332C25.8024 12.7995 25.8919 12.6294 25.9271 12.4446C25.9622 12.2598 25.9414 12.0686 25.8673 11.8957C25.7932 11.7228 25.6692 11.5759 25.5111 11.4739C25.353 11.3719 25.1681 11.3194 24.98 11.3232H24.978L24.979 11.3242ZM20.002 11.3472C19.9872 11.347 19.9725 11.3498 19.9588 11.3553C19.9451 11.3609 19.9327 11.369 19.9221 11.3794C19.9008 11.4003 19.8887 11.4288 19.8885 11.4587C19.8882 11.4885 19.8998 11.5172 19.9207 11.5385C19.9416 11.5598 19.9701 11.5719 20 11.5722C20.0298 11.5724 20.0585 11.5608 20.0798 11.5399C20.1011 11.519 20.1132 11.4905 20.1135 11.4607C20.1137 11.4308 20.1021 11.4021 20.0812 11.3808C20.0603 11.3595 20.0318 11.3474 20.002 11.3472ZM28.002 11.3472C27.9872 11.347 27.9725 11.3498 27.9588 11.3553C27.9451 11.3609 27.9327 11.369 27.9221 11.3794C27.9116 11.3898 27.9032 11.4021 27.8974 11.4157C27.8916 11.4293 27.8886 11.4439 27.8885 11.4587C27.8883 11.4734 27.8911 11.4881 27.8966 11.5018C27.9022 11.5155 27.9103 11.528 27.9207 11.5385C27.9311 11.549 27.9434 11.5574 27.957 11.5632C27.9706 11.569 27.9852 11.572 28 11.5722C28.0298 11.5724 28.0585 11.5608 28.0798 11.5399C28.1011 11.519 28.1132 11.4905 28.1135 11.4607C28.1137 11.4308 28.1021 11.4021 28.0812 11.3808C28.0603 11.3595 28.0318 11.3474 28.002 11.3472ZM17.532 11.5622V11.5642C17.4071 11.5661 17.2839 11.5927 17.1695 11.6425C17.055 11.6923 16.9515 11.7642 16.865 11.8542L15.057 13.7112C14.8859 13.892 14.793 14.1329 14.7982 14.3818C14.8034 14.6306 14.9064 14.8674 15.0849 15.0409C15.2634 15.2144 15.503 15.3107 15.7519 15.3088C16.0009 15.307 16.239 15.2073 16.415 15.0312L18.223 13.1712C18.3101 13.0822 18.3787 12.9768 18.425 12.8612C18.4713 12.7456 18.4942 12.6219 18.4926 12.4974C18.4909 12.3729 18.4646 12.2499 18.4153 12.1356C18.3659 12.0212 18.2944 11.9178 18.205 11.8312C18.1159 11.7441 18.0105 11.6755 17.8948 11.6294C17.7791 11.5832 17.6555 11.5604 17.531 11.5622H17.532ZM32.25 11.5622V11.5642C32.1253 11.5662 32.0023 11.5928 31.888 11.6426C31.7737 11.6924 31.6704 11.7643 31.584 11.8542L29.775 13.7112C29.6838 13.7993 29.6112 13.9048 29.5616 14.0216C29.512 14.1383 29.4864 14.2637 29.4862 14.3905C29.486 14.5174 29.5112 14.6429 29.5605 14.7598C29.6097 14.8766 29.682 14.9824 29.7729 15.0708C29.8638 15.1593 29.9715 15.2285 30.0897 15.2745C30.2078 15.3205 30.334 15.3423 30.4608 15.3386C30.5876 15.3349 30.7123 15.3058 30.8276 15.253C30.9429 15.2002 31.0464 15.1247 31.132 15.0312L32.942 13.1712C33.0291 13.0822 33.0977 12.9768 33.144 12.8612C33.1903 12.7456 33.2132 12.6219 33.2116 12.4974C33.2099 12.3729 33.1836 12.2499 33.1343 12.1356C33.0849 12.0212 33.0134 11.9178 32.924 11.8312C32.8349 11.7441 32.7295 11.6755 32.6138 11.6294C32.4981 11.5832 32.3745 11.5604 32.25 11.5622ZM25.043 11.8062V11.8082C25.1341 11.8165 25.2203 11.8536 25.289 11.9142C25.696 12.2752 25.212 12.6992 25.037 12.8832L24.172 13.7872C23.565 14.4182 23.301 14.8452 22.877 14.4372C22.517 14.0642 22.835 13.8412 23.523 13.1422L24.389 12.2382C24.594 12.0372 24.807 11.7952 25.043 11.8062ZM19.993 11.9102C19.9656 11.9147 19.9408 11.929 19.9233 11.9504C19.9057 11.9719 19.8966 11.999 19.8975 12.0267C19.8985 12.0544 19.9096 12.0808 19.9286 12.1009C19.9476 12.1211 19.9734 12.1336 20.001 12.1362C20.061 12.1362 20.111 12.0842 20.111 12.0232C20.1111 12.0078 20.1081 11.9925 20.1021 11.9783C20.0961 11.9641 20.0873 11.9513 20.0761 11.9407C20.0649 11.9301 20.0517 11.9219 20.0372 11.9167C20.0227 11.9114 20.0073 11.9092 19.992 11.9102H19.993ZM27.993 11.9102C27.9656 11.9147 27.9408 11.929 27.9233 11.9504C27.9057 11.9719 27.8966 11.999 27.8975 12.0267C27.8985 12.0544 27.9096 12.0808 27.9286 12.1009C27.9476 12.1211 27.9734 12.1336 28.001 12.1362C28.061 12.1362 28.111 12.0842 28.111 12.0232C28.1111 12.0078 28.1081 11.9925 28.1021 11.9783C28.0961 11.9641 28.0873 11.9513 28.0761 11.9407C28.0649 11.9301 28.0517 11.9219 28.0372 11.9167C28.0227 11.9114 28.0073 11.9092 27.992 11.9102H27.993ZM17.596 12.0472H17.598C17.6887 12.0554 17.7744 12.093 17.842 12.1542C18.248 12.5162 17.765 12.9392 17.59 13.1232L16.725 14.0272C16.117 14.6582 15.853 15.0852 15.43 14.6772C15.07 14.3042 15.39 14.0822 16.078 13.3832L16.943 12.4802C17.148 12.2802 17.36 12.0362 17.596 12.0472ZM32.315 12.0472H32.316C32.4067 12.0554 32.4924 12.093 32.56 12.1542C32.967 12.5162 32.484 12.9392 32.309 13.1232L31.443 14.0272C30.836 14.6582 30.573 15.0852 30.148 14.6772C29.788 14.3042 30.108 14.0822 30.797 13.3832L31.662 12.4802C31.867 12.2802 32.079 12.0362 32.315 12.0472ZM19.992 12.4722C19.9646 12.4767 19.9398 12.491 19.9223 12.5124C19.9047 12.5339 19.8956 12.561 19.8965 12.5887C19.8975 12.6164 19.9086 12.6428 19.9276 12.6629C19.9466 12.6831 19.9724 12.6956 20 12.6982C20.061 12.6982 20.11 12.6472 20.111 12.5862C20.1113 12.5707 20.1084 12.5553 20.1024 12.541C20.0965 12.5267 20.0876 12.5138 20.0765 12.5031C20.0653 12.4923 20.052 12.4841 20.0374 12.4787C20.0229 12.4734 20.0074 12.4712 19.992 12.4722ZM27.992 12.4722C27.9646 12.4767 27.9398 12.491 27.9223 12.5124C27.9047 12.5339 27.8956 12.561 27.8965 12.5887C27.8975 12.6164 27.9086 12.6428 27.9276 12.6629C27.9466 12.6831 27.9724 12.6956 28 12.6982C28.061 12.6982 28.11 12.6472 28.111 12.5862C28.1113 12.5707 28.1084 12.5553 28.1024 12.541C28.0965 12.5267 28.0876 12.5138 28.0765 12.5031C28.0653 12.4923 28.052 12.4841 28.0374 12.4787C28.0229 12.4734 28.0074 12.4712 27.992 12.4722ZM19.992 13.0352C19.9699 13.0365 19.9487 13.0444 19.931 13.0577C19.9133 13.071 19.8999 13.0892 19.8925 13.11C19.8851 13.1309 19.884 13.1534 19.8892 13.1749C19.8945 13.1964 19.906 13.2159 19.9222 13.2309C19.9385 13.2459 19.9588 13.2558 19.9806 13.2594C20.0024 13.263 20.0249 13.2601 20.0451 13.2511C20.0653 13.2421 20.0824 13.2273 20.0943 13.2087C20.1062 13.19 20.1123 13.1683 20.112 13.1462C20.1119 13.1308 20.1086 13.1157 20.1024 13.1017C20.0963 13.0877 20.0873 13.0751 20.076 13.0646C20.0648 13.0542 20.0515 13.0463 20.037 13.0412C20.0226 13.0361 20.0072 13.0341 19.992 13.0352ZM27.992 13.0352C27.9699 13.0365 27.9487 13.0444 27.931 13.0577C27.9133 13.071 27.8999 13.0892 27.8925 13.11C27.8851 13.1309 27.884 13.1534 27.8892 13.1749C27.8945 13.1964 27.906 13.2159 27.9222 13.2309C27.9385 13.2459 27.9588 13.2558 27.9806 13.2594C28.0024 13.263 28.0249 13.2601 28.0451 13.2511C28.0653 13.2421 28.0824 13.2273 28.0943 13.2087C28.1062 13.19 28.1123 13.1683 28.112 13.1462C28.1119 13.1308 28.1086 13.1157 28.1024 13.1017C28.0963 13.0877 28.0873 13.0751 28.076 13.0646C28.0648 13.0542 28.0515 13.0463 28.037 13.0412C28.0226 13.0361 28.0072 13.0341 27.992 13.0352ZM19.992 13.5972C19.9621 13.599 19.9342 13.6126 19.9145 13.6351C19.8947 13.6575 19.8846 13.6868 19.8865 13.7167C19.8883 13.7465 19.9019 13.7744 19.9244 13.7942C19.9468 13.8139 19.9761 13.824 20.006 13.8222C20.0207 13.8212 20.0352 13.8174 20.0485 13.8109C20.0618 13.8044 20.0737 13.7954 20.0835 13.7843C20.0933 13.7732 20.1008 13.7602 20.1056 13.7462C20.1104 13.7322 20.1124 13.7174 20.1115 13.7027C20.1105 13.6879 20.1067 13.6734 20.1002 13.6601C20.0937 13.6468 20.0847 13.635 20.0736 13.6252C20.0625 13.6154 20.0495 13.6078 20.0355 13.603C20.0215 13.5982 20.0067 13.5962 19.992 13.5972ZM27.992 13.5972C27.9621 13.599 27.9342 13.6126 27.9145 13.6351C27.8947 13.6575 27.8846 13.6868 27.8865 13.7167C27.8883 13.7465 27.9019 13.7744 27.9244 13.7942C27.9468 13.8139 27.9761 13.824 28.006 13.8222C28.0207 13.8212 28.0352 13.8174 28.0485 13.8109C28.0618 13.8044 28.0737 13.7954 28.0835 13.7843C28.0933 13.7732 28.1008 13.7602 28.1056 13.7462C28.1104 13.7322 28.1124 13.7174 28.1115 13.7027C28.1105 13.6879 28.1067 13.6734 28.1002 13.6601C28.0937 13.6468 28.0847 13.635 28.0736 13.6252C28.0625 13.6154 28.0495 13.6078 28.0355 13.603C28.0215 13.5982 28.0067 13.5962 27.992 13.5972ZM19.992 14.1602C19.9772 14.1611 19.9629 14.1649 19.9496 14.1714C19.9364 14.1778 19.9246 14.1869 19.9148 14.1979C19.9051 14.209 19.8976 14.2218 19.8928 14.2358C19.888 14.2497 19.886 14.2644 19.887 14.2792C19.8879 14.2939 19.8917 14.3082 19.8982 14.3215C19.9046 14.3347 19.9137 14.3465 19.9247 14.3563C19.9358 14.366 19.9486 14.3735 19.9626 14.3783C19.9765 14.3831 19.9912 14.3851 20.006 14.3842C20.0357 14.3823 20.0634 14.3687 20.0831 14.3464C20.1028 14.3241 20.1128 14.2949 20.111 14.2652C20.1091 14.2354 20.0955 14.2077 20.0732 14.188C20.0509 14.1683 20.0217 14.1583 19.992 14.1602ZM27.992 14.1602C27.9772 14.1611 27.9629 14.1649 27.9496 14.1714C27.9364 14.1778 27.9246 14.1869 27.9148 14.1979C27.9051 14.209 27.8976 14.2218 27.8928 14.2358C27.888 14.2497 27.886 14.2644 27.887 14.2792C27.8879 14.2939 27.8917 14.3082 27.8982 14.3215C27.9046 14.3347 27.9137 14.3465 27.9247 14.3563C27.9358 14.366 27.9486 14.3735 27.9626 14.3783C27.9765 14.3831 27.9912 14.3851 28.006 14.3842C28.0357 14.3823 28.0634 14.3687 28.0831 14.3464C28.1028 14.3241 28.1128 14.2949 28.111 14.2652C28.1091 14.2354 28.0955 14.2077 28.0732 14.188C28.0509 14.1683 28.0217 14.1583 27.992 14.1602ZM19.98 14.7222C19.9536 14.7265 19.9296 14.7402 19.9125 14.7608C19.8954 14.7814 19.8864 14.8074 19.887 14.8342C19.887 14.8572 19.894 14.8797 19.9072 14.8986C19.9203 14.9175 19.939 14.9319 19.9605 14.9399C19.9821 14.948 20.0056 14.9492 20.028 14.9435C20.0503 14.9378 20.0703 14.9254 20.0854 14.908C20.1005 14.8906 20.1098 14.869 20.1123 14.8461C20.1148 14.8232 20.1102 14.8001 20.0991 14.7799C20.0881 14.7597 20.0712 14.7433 20.0506 14.733C20.03 14.7227 20.0068 14.7189 19.984 14.7222H19.98ZM27.98 14.7222C27.9536 14.7265 27.9296 14.7402 27.9125 14.7608C27.8954 14.7814 27.8864 14.8074 27.887 14.8342C27.887 14.8572 27.894 14.8797 27.9072 14.8986C27.9203 14.9175 27.939 14.9319 27.9605 14.9399C27.9821 14.948 28.0056 14.9492 28.028 14.9435C28.0503 14.9378 28.0703 14.9254 28.0854 14.908C28.1005 14.8906 28.1098 14.869 28.1123 14.8461C28.1148 14.8232 28.1102 14.8001 28.0991 14.7799C28.0881 14.7597 28.0712 14.7433 28.0506 14.733C28.03 14.7227 28.0068 14.7189 27.984 14.7222H27.98ZM19.98 15.2852C19.9589 15.2886 19.9392 15.298 19.9233 15.3122C19.9074 15.3265 19.8958 15.345 19.8901 15.3655C19.8843 15.3861 19.8846 15.4079 19.8908 15.4283C19.897 15.4488 19.909 15.467 19.9252 15.4809C19.9415 15.4947 19.9614 15.5037 19.9825 15.5066C20.0037 15.5096 20.0252 15.5064 20.0446 15.4975C20.0641 15.4886 20.0805 15.4743 20.0921 15.4564C20.1037 15.4384 20.1099 15.4175 20.11 15.3962C20.11 15.3352 20.061 15.2862 20 15.2852H19.98ZM27.98 15.2852C27.9589 15.2886 27.9392 15.298 27.9233 15.3122C27.9074 15.3265 27.8958 15.345 27.8901 15.3655C27.8843 15.3861 27.8846 15.4079 27.8908 15.4283C27.897 15.4488 27.909 15.467 27.9252 15.4809C27.9415 15.4947 27.9614 15.5037 27.9825 15.5066C28.0037 15.5096 28.0252 15.5064 28.0446 15.4975C28.0641 15.4886 28.0805 15.4743 28.0921 15.4564C28.1037 15.4384 28.1099 15.4175 28.11 15.3962C28.11 15.3352 28.061 15.2862 28 15.2852H27.98ZM20.002 15.8452C19.9872 15.845 19.9725 15.8478 19.9588 15.8533C19.9451 15.8589 19.9327 15.867 19.9221 15.8774C19.9116 15.8878 19.9032 15.9001 19.8974 15.9137C19.8916 15.9273 19.8886 15.9419 19.8885 15.9567C19.8883 15.9714 19.8911 15.9861 19.8966 15.9998C19.9022 16.0135 19.9103 16.026 19.9207 16.0365C19.9311 16.047 19.9434 16.0554 19.957 16.0612C19.9706 16.067 19.9852 16.07 20 16.0702C20.0298 16.0704 20.0585 16.0588 20.0798 16.0379C20.1011 16.017 20.1132 15.9885 20.1135 15.9587C20.1137 15.9288 20.1021 15.9001 20.0812 15.8788C20.0603 15.8575 20.0318 15.8454 20.002 15.8452ZM28.002 15.8452C27.9872 15.845 27.9725 15.8478 27.9588 15.8533C27.9451 15.8589 27.9327 15.867 27.9221 15.8774C27.9116 15.8878 27.9032 15.9001 27.8974 15.9137C27.8916 15.9273 27.8886 15.9419 27.8885 15.9567C27.8883 15.9714 27.8911 15.9861 27.8966 15.9998C27.9022 16.0135 27.9103 16.026 27.9207 16.0365C27.9311 16.047 27.9434 16.0554 27.957 16.0612C27.9706 16.067 27.9852 16.07 28 16.0702C28.0298 16.0704 28.0585 16.0588 28.0798 16.0379C28.1011 16.017 28.1132 15.9885 28.1135 15.9587C28.1137 15.9288 28.1021 15.9001 28.0812 15.8788C28.0603 15.8575 28.0318 15.8454 28.002 15.8452ZM19.992 16.4082C19.9633 16.4099 19.9364 16.4227 19.9169 16.4437C19.8974 16.4647 19.8866 16.4925 19.887 16.5212C19.887 16.5832 19.937 16.6342 20 16.6322C20.0147 16.6316 20.0291 16.6282 20.0425 16.6221C20.0559 16.616 20.068 16.6073 20.078 16.5965C20.088 16.5857 20.0958 16.5731 20.101 16.5593C20.1061 16.5455 20.1085 16.5309 20.108 16.5162C20.1074 16.5014 20.104 16.487 20.0979 16.4736C20.0918 16.4602 20.0831 16.4482 20.0723 16.4381C20.0616 16.4281 20.0489 16.4203 20.0351 16.4151C20.0213 16.41 20.0067 16.4076 19.992 16.4082ZM27.992 16.4082C27.9633 16.4099 27.9364 16.4227 27.9169 16.4437C27.8974 16.4647 27.8866 16.4925 27.887 16.5212C27.887 16.5832 27.937 16.6342 28 16.6322C28.0147 16.6316 28.0291 16.6282 28.0425 16.6221C28.0559 16.616 28.068 16.6073 28.078 16.5965C28.088 16.5857 28.0958 16.5731 28.101 16.5593C28.1061 16.5455 28.1085 16.5309 28.108 16.5162C28.1074 16.5014 28.104 16.487 28.0979 16.4736C28.0918 16.4602 28.0831 16.4482 28.0723 16.4381C28.0616 16.4281 28.0489 16.4203 28.0351 16.4151C28.0213 16.41 28.0067 16.4076 27.992 16.4082ZM24.98 16.5822V16.5842C24.8554 16.586 24.7324 16.6125 24.6181 16.6621C24.5038 16.7117 24.4004 16.7835 24.314 16.8732L22.506 18.7302C22.4193 18.8193 22.351 18.9246 22.305 19.04C22.2591 19.1555 22.2363 19.2789 22.238 19.4032C22.2397 19.5275 22.2659 19.6503 22.315 19.7644C22.3642 19.8786 22.4354 19.982 22.5245 20.0687C22.7044 20.2437 22.9465 20.3401 23.1975 20.3366C23.3218 20.3349 23.4446 20.3087 23.5587 20.2596C23.6729 20.2104 23.7763 20.1393 23.863 20.0502L25.672 18.1912C25.7591 18.1022 25.8277 17.9968 25.874 17.8812C25.9203 17.7656 25.9432 17.6419 25.9416 17.5174C25.9399 17.3929 25.9136 17.2699 25.8643 17.1556C25.8149 17.0412 25.7434 16.9378 25.654 16.8512C25.565 16.7639 25.4596 16.6952 25.3439 16.6488C25.2282 16.6025 25.1046 16.5795 24.98 16.5812V16.5822ZM17.531 16.8222V16.8242C17.4064 16.8261 17.2834 16.8526 17.1691 16.9022C17.0548 16.9518 16.9515 17.0235 16.865 17.1132L15.057 18.9702C14.9683 19.0589 14.8981 19.1644 14.8506 19.2805C14.803 19.3966 14.779 19.521 14.7799 19.6464C14.7809 19.7719 14.8067 19.8959 14.856 20.0112C14.9052 20.1266 14.9769 20.2311 15.0669 20.3185C15.1568 20.406 15.2633 20.4746 15.38 20.5206C15.4967 20.5666 15.6214 20.5889 15.7468 20.5862C15.8723 20.5836 15.9959 20.5561 16.1106 20.5052C16.2253 20.4544 16.3288 20.3813 16.415 20.2902L18.223 18.4312C18.355 18.2975 18.4443 18.1274 18.4792 17.9428C18.5142 17.7581 18.4933 17.5673 18.4192 17.3945C18.3452 17.2218 18.2213 17.0751 18.0634 16.9732C17.9055 16.8712 17.7209 16.8186 17.533 16.8222H17.531ZM32.25 16.8222V16.8242C32.1254 16.826 32.0024 16.8525 31.8881 16.9021C31.7738 16.9517 31.6704 17.0235 31.584 17.1132L29.775 18.9702C29.6838 19.0583 29.6112 19.1638 29.5616 19.2806C29.512 19.3973 29.4864 19.5227 29.4862 19.6495C29.486 19.7764 29.5112 19.9019 29.5605 20.0188C29.6097 20.1356 29.682 20.2414 29.7729 20.3298C29.8638 20.4183 29.9715 20.4875 30.0897 20.5335C30.2078 20.5795 30.334 20.6013 30.4608 20.5976C30.5876 20.5939 30.7123 20.5648 30.8276 20.512C30.9429 20.4592 31.0464 20.3837 31.132 20.2902L32.942 18.4312C33.074 18.2975 33.1633 18.1274 33.1982 17.9428C33.2332 17.7581 33.2123 17.5673 33.1382 17.3945C33.0642 17.2218 32.9403 17.0751 32.7824 16.9732C32.6245 16.8712 32.4399 16.8186 32.252 16.8222H32.25ZM19.992 16.9702C19.9631 16.972 19.9361 16.9848 19.9166 17.0061C19.897 17.0273 19.8864 17.0553 19.887 17.0842C19.887 17.1462 19.937 17.1962 20 17.1952C20.061 17.1952 20.11 17.1452 20.111 17.0842C20.1113 17.0687 20.1084 17.0533 20.1024 17.039C20.0965 17.0247 20.0876 17.0118 20.0765 17.0011C20.0653 16.9903 20.052 16.9821 20.0374 16.9767C20.0229 16.9714 20.0074 16.9692 19.992 16.9702ZM27.992 16.9702C27.9631 16.972 27.9361 16.9848 27.9166 17.0061C27.897 17.0273 27.8864 17.0553 27.887 17.0842C27.887 17.1462 27.937 17.1962 28 17.1952C28.061 17.1952 28.11 17.1452 28.111 17.0842C28.1113 17.0687 28.1084 17.0533 28.1024 17.039C28.0965 17.0247 28.0876 17.0118 28.0765 17.0011C28.0653 16.9903 28.052 16.9821 28.0374 16.9767C28.0229 16.9714 28.0074 16.9692 27.992 16.9702ZM25.045 17.0662V17.0682C25.124 17.0722 25.205 17.1062 25.289 17.1732C25.696 17.5352 25.214 17.9572 25.039 18.1402L24.174 19.0452C23.567 19.6762 23.303 20.1032 22.879 19.6952C22.519 19.3222 22.837 19.1012 23.525 18.4022L24.391 17.4982C24.596 17.2972 24.809 17.0542 25.045 17.0662ZM17.595 17.3042V17.3062C17.6865 17.3143 17.773 17.3515 17.842 17.4122C18.248 17.7732 17.765 18.1972 17.59 18.3812L16.725 19.2852C16.117 19.9162 15.853 20.3432 15.43 19.9352C15.07 19.5622 15.388 19.3392 16.076 18.6402L16.941 17.7362C17.147 17.5352 17.359 17.2932 17.596 17.3042H17.595ZM32.315 17.3042V17.3062C32.4058 17.3147 32.4915 17.3518 32.56 17.4122C32.967 17.7732 32.484 18.1972 32.309 18.3812L31.443 19.2852C30.836 19.9162 30.573 20.3432 30.148 19.9352C29.788 19.5622 30.107 19.3392 30.795 18.6402L31.66 17.7362C31.866 17.5352 32.078 17.2932 32.315 17.3042ZM19.992 17.5332C19.9772 17.5341 19.9629 17.5379 19.9496 17.5444C19.9364 17.5508 19.9246 17.5599 19.9148 17.5709C19.9051 17.582 19.8976 17.5948 19.8928 17.6088C19.888 17.6227 19.886 17.6374 19.887 17.6522C19.8879 17.6669 19.8917 17.6812 19.8982 17.6945C19.9046 17.7077 19.9137 17.7195 19.9247 17.7293C19.9358 17.739 19.9486 17.7465 19.9626 17.7513C19.9765 17.7561 19.9912 17.7581 20.006 17.7572C20.0357 17.7553 20.0634 17.7417 20.0831 17.7194C20.1028 17.6971 20.1128 17.6679 20.111 17.6382C20.1091 17.6084 20.0955 17.5807 20.0732 17.561C20.0509 17.5413 20.0217 17.5313 19.992 17.5332ZM27.992 17.5332C27.9772 17.5341 27.9629 17.5379 27.9496 17.5444C27.9364 17.5508 27.9246 17.5599 27.9148 17.5709C27.9051 17.582 27.8976 17.5948 27.8928 17.6088C27.888 17.6227 27.886 17.6374 27.887 17.6522C27.8879 17.6669 27.8917 17.6812 27.8982 17.6945C27.9046 17.7077 27.9137 17.7195 27.9247 17.7293C27.9358 17.739 27.9486 17.7465 27.9626 17.7513C27.9765 17.7561 27.9912 17.7581 28.006 17.7572C28.0357 17.7553 28.0634 17.7417 28.0831 17.7194C28.1028 17.6971 28.1128 17.6679 28.111 17.6382C28.1091 17.6084 28.0955 17.5807 28.0732 17.561C28.0509 17.5413 28.0217 17.5313 27.992 17.5332ZM19.992 18.0952C19.9772 18.0961 19.9627 18.0999 19.9494 18.1064C19.9361 18.1129 19.9243 18.122 19.9145 18.1331C19.9047 18.1442 19.8971 18.1571 19.8923 18.1711C19.8875 18.1851 19.8855 18.1999 19.8865 18.2147C19.8874 18.2294 19.8912 18.2439 19.8977 18.2572C19.9042 18.2705 19.9133 18.2824 19.9244 18.2922C19.9355 18.3019 19.9484 18.3095 19.9624 18.3143C19.9764 18.3191 19.9912 18.3211 20.006 18.3202C20.0358 18.3183 20.0637 18.3047 20.0835 18.2823C20.1032 18.2598 20.1133 18.2305 20.1115 18.2007C20.1096 18.1708 20.096 18.1429 20.0736 18.1232C20.0511 18.1034 20.0218 18.0933 19.992 18.0952ZM27.992 18.0952C27.9772 18.0961 27.9627 18.0999 27.9494 18.1064C27.9361 18.1129 27.9243 18.122 27.9145 18.1331C27.9047 18.1442 27.8971 18.1571 27.8923 18.1711C27.8875 18.1851 27.8855 18.1999 27.8865 18.2147C27.8874 18.2294 27.8912 18.2439 27.8977 18.2572C27.9042 18.2705 27.9133 18.2824 27.9244 18.2922C27.9355 18.3019 27.9484 18.3095 27.9624 18.3143C27.9764 18.3191 27.9912 18.3211 28.006 18.3202C28.0358 18.3183 28.0637 18.3047 28.0835 18.2823C28.1032 18.2598 28.1133 18.2305 28.1115 18.2007C28.1096 18.1708 28.096 18.1429 28.0736 18.1232C28.0511 18.1034 28.0218 18.0933 27.992 18.0952ZM19.992 18.6582C19.9649 18.6626 19.9403 18.6768 19.9229 18.6981C19.9055 18.7194 19.8965 18.7462 19.8975 18.7737C19.8985 18.8011 19.9094 18.8273 19.9283 18.8472C19.9471 18.8672 19.9726 18.8796 20 18.8822C20.0147 18.8816 20.0291 18.8782 20.0425 18.8721C20.0559 18.866 20.068 18.8573 20.078 18.8465C20.088 18.8357 20.0958 18.8231 20.101 18.8093C20.1061 18.7955 20.1085 18.7809 20.108 18.7662C20.1074 18.7514 20.104 18.737 20.0979 18.7236C20.0918 18.7102 20.0831 18.6982 20.0723 18.6881C20.0616 18.6781 20.0489 18.6703 20.0351 18.6651C20.0213 18.66 20.0067 18.6576 19.992 18.6582ZM27.992 18.6582C27.9649 18.6626 27.9403 18.6768 27.9229 18.6981C27.9055 18.7194 27.8965 18.7462 27.8975 18.7737C27.8985 18.8011 27.9094 18.8273 27.9283 18.8472C27.9471 18.8672 27.9726 18.8796 28 18.8822C28.0147 18.8816 28.0291 18.8782 28.0425 18.8721C28.0559 18.866 28.068 18.8573 28.078 18.8465C28.088 18.8357 28.0958 18.8231 28.101 18.8093C28.1061 18.7955 28.1085 18.7809 28.108 18.7662C28.1074 18.7514 28.104 18.737 28.0979 18.7236C28.0918 18.7102 28.0831 18.6982 28.0723 18.6881C28.0616 18.6781 28.0489 18.6703 28.0351 18.6651C28.0213 18.66 28.0067 18.6576 27.992 18.6582ZM19.98 19.2202C19.9536 19.2245 19.9296 19.2382 19.9125 19.2588C19.8954 19.2794 19.8864 19.3054 19.887 19.3322C19.887 19.3543 19.8935 19.3759 19.9058 19.3943C19.918 19.4127 19.9355 19.427 19.9559 19.4355C19.9763 19.444 19.9987 19.4463 20.0204 19.4421C20.0421 19.4378 20.0621 19.4273 20.0778 19.4117C20.0935 19.3961 20.1042 19.3763 20.1087 19.3546C20.1131 19.3329 20.111 19.3105 20.1027 19.29C20.0944 19.2695 20.0802 19.2519 20.0619 19.2395C20.0436 19.2271 20.0221 19.2204 20 19.2202H19.98ZM27.98 19.2202C27.9536 19.2245 27.9296 19.2382 27.9125 19.2588C27.8954 19.2794 27.8864 19.3054 27.887 19.3322C27.887 19.3543 27.8935 19.3759 27.9058 19.3943C27.918 19.4127 27.9355 19.427 27.9559 19.4355C27.9763 19.444 27.9987 19.4463 28.0204 19.4421C28.0421 19.4378 28.0621 19.4273 28.0778 19.4117C28.0935 19.3961 28.1042 19.3763 28.1087 19.3546C28.1131 19.3329 28.111 19.3105 28.1027 19.29C28.0944 19.2695 28.0802 19.2519 28.0619 19.2395C28.0436 19.2271 28.0221 19.2204 28 19.2202H27.98ZM20.002 19.7802C19.972 19.7799 19.9431 19.7915 19.9218 19.8125C19.9004 19.8335 19.8882 19.8622 19.888 19.8922C19.8877 19.9221 19.8993 19.951 19.9203 19.9724C19.9413 19.9937 19.97 20.0059 20 20.0062C20.0298 20.0064 20.0585 19.9948 20.0798 19.9739C20.1011 19.953 20.1132 19.9245 20.1135 19.8947C20.1137 19.8648 20.1021 19.8361 20.0812 19.8148C20.0603 19.7935 20.0318 19.7814 20.002 19.7812V19.7802ZM28.002 19.7802C27.9871 19.78 27.9724 19.7828 27.9586 19.7884C27.9449 19.7939 27.9323 19.8021 27.9218 19.8125C27.9112 19.8229 27.9027 19.8353 27.8969 19.849C27.8911 19.8626 27.8881 19.8773 27.888 19.8922C27.8878 19.907 27.8906 19.9217 27.8962 19.9355C27.9017 19.9492 27.9099 19.9618 27.9203 19.9724C27.9307 19.9829 27.9431 19.9914 27.9568 19.9972C27.9704 20.003 27.9851 20.006 28 20.0062C28.0298 20.0064 28.0585 19.9948 28.0798 19.9739C28.1011 19.953 28.1132 19.9245 28.1135 19.8947C28.1137 19.8648 28.1021 19.8361 28.0812 19.8148C28.0603 19.7935 28.0318 19.7814 28.002 19.7812V19.7802ZM19.992 20.3432C19.9631 20.345 19.9361 20.3578 19.9166 20.3791C19.897 20.4003 19.8864 20.4283 19.887 20.4572C19.887 20.5192 19.937 20.5692 20 20.5682C20.0298 20.5682 20.0584 20.5563 20.0795 20.5352C20.1006 20.5141 20.1125 20.4855 20.1125 20.4557C20.1125 20.4258 20.1006 20.3972 20.0795 20.3761C20.0584 20.355 20.0298 20.3432 20 20.3432H19.992ZM27.992 20.3432C27.9631 20.345 27.9361 20.3578 27.9166 20.3791C27.897 20.4003 27.8864 20.4283 27.887 20.4572C27.887 20.5192 27.937 20.5692 28 20.5682C28.0298 20.5682 28.0584 20.5563 28.0795 20.5352C28.1006 20.5141 28.1125 20.4855 28.1125 20.4557C28.1125 20.4258 28.1006 20.3972 28.0795 20.3761C28.0584 20.355 28.0298 20.3432 28 20.3432H27.992ZM19.992 20.9062C19.9626 20.9072 19.9349 20.9197 19.9147 20.941C19.8945 20.9623 19.8834 20.9907 19.884 21.0201C19.8845 21.0494 19.8965 21.0774 19.9175 21.098C19.9384 21.1186 19.9666 21.1301 19.996 21.1301C20.0253 21.1301 20.0535 21.1186 20.0744 21.098C20.0954 21.0774 20.1074 21.0494 20.1079 21.0201C20.1085 20.9907 20.0974 20.9623 20.0772 20.941C20.0571 20.9197 20.0293 20.9072 20 20.9062H19.992ZM27.992 20.9062C27.9626 20.9072 27.9349 20.9197 27.9147 20.941C27.8945 20.9623 27.8834 20.9907 27.884 21.0201C27.8845 21.0494 27.8965 21.0774 27.9175 21.098C27.9384 21.1186 27.9666 21.1301 27.996 21.1301C28.0253 21.1301 28.0535 21.1186 28.0744 21.098C28.0954 21.0774 28.1074 21.0494 28.1079 21.0201C28.1085 20.9907 28.0974 20.9623 28.0772 20.941C28.057 20.9197 28.0293 20.9072 28 20.9062H27.992ZM19.992 21.4682C19.9631 21.47 19.9361 21.4828 19.9166 21.5041C19.897 21.5253 19.8864 21.5533 19.887 21.5822C19.887 21.6442 19.937 21.6942 20 21.6932C20.061 21.6932 20.11 21.6432 20.111 21.5822C20.1112 21.5674 20.1086 21.5527 20.1031 21.5389C20.0977 21.5252 20.0895 21.5126 20.0792 21.502C20.0689 21.4914 20.0566 21.483 20.043 21.4772C20.0294 21.4713 20.0147 21.4683 20 21.4682H19.992ZM27.992 21.4682C27.9631 21.47 27.9361 21.4828 27.9166 21.5041C27.897 21.5253 27.8864 21.5533 27.887 21.5822C27.887 21.6442 27.937 21.6942 28 21.6932C28.061 21.6932 28.11 21.6432 28.111 21.5822C28.1112 21.5674 28.1086 21.5527 28.1031 21.5389C28.0977 21.5252 28.0895 21.5126 28.0792 21.502C28.0689 21.4914 28.0566 21.483 28.043 21.4772C28.0294 21.4713 28.0147 21.4683 28 21.4682H27.992ZM24.98 21.8412C24.8553 21.8435 24.7322 21.8704 24.618 21.9203C24.5037 21.9702 24.4004 22.0422 24.314 22.1322L22.506 23.9902C22.4188 24.0791 22.35 24.1844 22.3037 24.3C22.2573 24.4156 22.2343 24.5392 22.2359 24.6637C22.2374 24.7882 22.2636 24.9112 22.3129 25.0256C22.3622 25.14 22.4335 25.2435 22.523 25.3302C22.7034 25.5051 22.9458 25.6013 23.1971 25.5975C23.4484 25.5938 23.6879 25.4904 23.863 25.3102L25.672 23.4502C25.7589 23.3612 25.8275 23.2559 25.8736 23.1404C25.9198 23.0248 25.9427 22.9013 25.9411 22.7769C25.9394 22.6525 25.9132 22.5297 25.8639 22.4154C25.8146 22.3012 25.7433 22.1978 25.654 22.1112C25.565 22.0239 25.4596 21.9552 25.3439 21.9088C25.2282 21.8625 25.1046 21.8395 24.98 21.8412ZM19.992 22.0312C19.9772 22.0321 19.9629 22.0359 19.9496 22.0424C19.9364 22.0488 19.9246 22.0579 19.9148 22.0689C19.9051 22.08 19.8976 22.0928 19.8928 22.1068C19.888 22.1207 19.886 22.1354 19.887 22.1502C19.8879 22.1649 19.8917 22.1792 19.8982 22.1925C19.9046 22.2057 19.9137 22.2176 19.9247 22.2273C19.9358 22.2371 19.9486 22.2445 19.9626 22.2493C19.9765 22.2541 19.9912 22.2561 20.006 22.2552C20.0357 22.2533 20.0634 22.2397 20.0831 22.2174C20.1028 22.1951 20.1128 22.1659 20.111 22.1362C20.1091 22.1064 20.0955 22.0787 20.0732 22.059C20.0509 22.0393 20.0217 22.0293 19.992 22.0312ZM27.992 22.0312C27.9772 22.0321 27.9629 22.0359 27.9496 22.0424C27.9364 22.0488 27.9246 22.0579 27.9148 22.0689C27.9051 22.08 27.8976 22.0928 27.8928 22.1068C27.888 22.1207 27.886 22.1354 27.887 22.1502C27.8879 22.1649 27.8917 22.1792 27.8982 22.1925C27.9046 22.2057 27.9137 22.2176 27.9247 22.2273C27.9358 22.2371 27.9486 22.2445 27.9626 22.2493C27.9765 22.2541 27.9912 22.2561 28.006 22.2552C28.0357 22.2533 28.0634 22.2397 28.0831 22.2174C28.1028 22.1951 28.1128 22.1659 28.111 22.1362C28.1091 22.1064 28.0955 22.0787 28.0732 22.059C28.0509 22.0393 28.0217 22.0293 27.992 22.0312ZM17.533 22.0802V22.0822C17.4084 22.084 17.2854 22.1105 17.1711 22.1601C17.0568 22.2097 16.9534 22.2815 16.867 22.3712L15.059 24.2282C14.9718 24.3171 14.903 24.4224 14.8567 24.538C14.8103 24.6536 14.7873 24.7772 14.7889 24.9017C14.7904 25.0262 14.8166 25.1492 14.8659 25.2636C14.9152 25.378 14.9865 25.4815 15.076 25.5682C15.1651 25.6551 15.2705 25.7237 15.3862 25.7698C15.5019 25.8159 15.6256 25.8386 15.7501 25.8368C15.8746 25.8349 15.9976 25.8085 16.1118 25.7589C16.2261 25.7094 16.3295 25.6378 16.416 25.5482L18.225 23.6892C18.3121 23.6002 18.3807 23.4948 18.427 23.3792C18.4733 23.2636 18.4962 23.1399 18.4946 23.0154C18.4929 22.8909 18.4666 22.7679 18.4173 22.6536C18.3679 22.5392 18.2964 22.4358 18.207 22.3492C18.118 22.2619 18.0126 22.1932 17.8969 22.1468C17.7812 22.1005 17.6576 22.0775 17.533 22.0792V22.0802ZM32.252 22.0802V22.0822C32.1274 22.0841 32.0044 22.1106 31.8901 22.1602C31.7758 22.2098 31.6725 22.2815 31.586 22.3712L29.777 24.2282C29.6898 24.3172 29.6212 24.4225 29.5749 24.5381C29.5286 24.6537 29.5057 24.7774 29.5073 24.9019C29.509 25.0264 29.5353 25.1494 29.5846 25.2637C29.634 25.3781 29.7055 25.4815 29.795 25.5682C29.8841 25.6551 29.9895 25.7237 30.1052 25.7698C30.2209 25.8159 30.3446 25.8386 30.4691 25.8368C30.5936 25.8349 30.7166 25.8085 30.8308 25.7589C30.9451 25.7094 31.0485 25.6378 31.135 25.5482L32.943 23.6892C33.0301 23.6002 33.0989 23.4949 33.1452 23.3793C33.1916 23.2638 33.2146 23.1401 33.2131 23.0156C33.2115 22.8911 33.1853 22.7681 33.136 22.6537C33.0868 22.5394 33.0154 22.4358 32.926 22.3492C32.837 22.2619 32.7316 22.1932 32.6159 22.1468C32.5002 22.1005 32.3766 22.0775 32.252 22.0792V22.0802ZM25.045 22.3242C25.124 22.3282 25.205 22.3622 25.289 22.4312C25.696 22.7932 25.214 23.2172 25.039 23.4012L24.174 24.3042C23.567 24.9362 23.303 25.3632 22.879 24.9542C22.519 24.5812 22.837 24.3592 23.525 23.6602L24.391 22.7582C24.596 22.5562 24.809 22.3122 25.045 22.3242ZM17.598 22.5642V22.5662C17.676 22.5702 17.757 22.6042 17.842 22.6722C18.248 23.0332 17.767 23.4552 17.592 23.6382L16.727 24.5432C16.119 25.1742 15.855 25.6012 15.432 25.1932C15.072 24.8202 15.39 24.5992 16.078 23.9002L16.943 22.9962C17.149 22.7952 17.361 22.5522 17.598 22.5642ZM32.316 22.5642V22.5662C32.396 22.5702 32.476 22.6042 32.56 22.6722C32.967 23.0332 32.486 23.4552 32.31 23.6382L31.445 24.5432C30.838 25.1742 30.574 25.6012 30.15 25.1932C29.79 24.8202 30.109 24.5992 30.797 23.9002L31.662 22.9962C31.868 22.7952 32.08 22.5532 32.316 22.5642ZM19.992 22.5942C19.9772 22.5951 19.9629 22.5989 19.9496 22.6054C19.9364 22.6118 19.9246 22.6209 19.9148 22.6319C19.9051 22.643 19.8976 22.6558 19.8928 22.6698C19.888 22.6837 19.886 22.6984 19.887 22.7132C19.8879 22.7279 19.8917 22.7422 19.8982 22.7555C19.9046 22.7687 19.9137 22.7806 19.9247 22.7903C19.9358 22.8001 19.9486 22.8075 19.9626 22.8123C19.9765 22.8171 19.9912 22.8191 20.006 22.8182C20.0207 22.8172 20.0352 22.8134 20.0485 22.8069C20.0618 22.8004 20.0737 22.7914 20.0835 22.7803C20.0933 22.7692 20.1008 22.7562 20.1056 22.7422C20.1104 22.7282 20.1124 22.7134 20.1115 22.6987C20.1105 22.6839 20.1067 22.6694 20.1002 22.6561C20.0937 22.6428 20.0847 22.631 20.0736 22.6212C20.0625 22.6114 20.0495 22.6038 20.0355 22.599C20.0215 22.5942 20.0067 22.5922 19.992 22.5932V22.5942ZM27.992 22.5942C27.9772 22.5951 27.9629 22.5989 27.9496 22.6054C27.9364 22.6118 27.9246 22.6209 27.9148 22.6319C27.9051 22.643 27.8976 22.6558 27.8928 22.6698C27.888 22.6837 27.886 22.6984 27.887 22.7132C27.8879 22.7279 27.8917 22.7422 27.8982 22.7555C27.9046 22.7687 27.9137 22.7806 27.9247 22.7903C27.9358 22.8001 27.9486 22.8075 27.9626 22.8123C27.9765 22.8171 27.9912 22.8191 28.006 22.8182C28.0207 22.8172 28.0352 22.8134 28.0485 22.8069C28.0618 22.8004 28.0737 22.7914 28.0835 22.7803C28.0933 22.7692 28.1008 22.7562 28.1056 22.7422C28.1104 22.7282 28.1124 22.7134 28.1115 22.6987C28.1105 22.6839 28.1067 22.6694 28.1002 22.6561C28.0937 22.6428 28.0847 22.631 28.0736 22.6212C28.0625 22.6114 28.0495 22.6038 28.0355 22.599C28.0215 22.5942 28.0067 22.5922 27.992 22.5932V22.5942ZM19.992 23.1562C19.9626 23.1572 19.9349 23.1697 19.9147 23.191C19.8945 23.2123 19.8834 23.2407 19.884 23.2701C19.8845 23.2994 19.8965 23.3274 19.9175 23.348C19.9384 23.3686 19.9666 23.3801 19.996 23.3801C20.0253 23.3801 20.0535 23.3686 20.0744 23.348C20.0954 23.3274 20.1074 23.2994 20.1079 23.2701C20.1085 23.2407 20.0974 23.2123 20.0772 23.191C20.0571 23.1697 20.0293 23.1572 20 23.1562H19.992ZM27.992 23.1562C27.9626 23.1572 27.9349 23.1697 27.9147 23.191C27.8945 23.2123 27.8834 23.2407 27.884 23.2701C27.8845 23.2994 27.8965 23.3274 27.9175 23.348C27.9384 23.3686 27.9666 23.3801 27.996 23.3801C28.0253 23.3801 28.0535 23.3686 28.0744 23.348C28.0954 23.3274 28.1074 23.2994 28.1079 23.2701C28.1085 23.2407 28.0974 23.2123 28.0772 23.191C28.057 23.1697 28.0293 23.1572 28 23.1562H27.992ZM19.98 23.7182C19.9536 23.7225 19.9296 23.7362 19.9125 23.7568C19.8954 23.7774 19.8864 23.8034 19.887 23.8302C19.8848 23.8461 19.8861 23.8624 19.8908 23.8778C19.8954 23.8932 19.9033 23.9074 19.9139 23.9196C19.9245 23.9317 19.9376 23.9414 19.9523 23.9481C19.9669 23.9547 19.9829 23.9582 19.999 23.9582C20.0151 23.9582 20.031 23.9547 20.0457 23.9481C20.0603 23.9414 20.0734 23.9317 20.084 23.9196C20.0946 23.9074 20.1025 23.8932 20.1071 23.8778C20.1118 23.8624 20.1131 23.8461 20.111 23.8302C20.111 23.7692 20.061 23.7202 20 23.7182H19.98ZM27.98 23.7182C27.9536 23.7225 27.9296 23.7362 27.9125 23.7568C27.8954 23.7774 27.8864 23.8034 27.887 23.8302C27.8848 23.8461 27.8861 23.8624 27.8908 23.8778C27.8954 23.8932 27.9033 23.9074 27.9139 23.9196C27.9245 23.9317 27.9376 23.9414 27.9523 23.9481C27.9669 23.9547 27.9829 23.9582 27.999 23.9582C28.0151 23.9582 28.031 23.9547 28.0457 23.9481C28.0603 23.9414 28.0734 23.9317 28.084 23.9196C28.0946 23.9074 28.1025 23.8932 28.1071 23.8778C28.1118 23.8624 28.1131 23.8461 28.111 23.8302C28.111 23.7692 28.061 23.7202 28 23.7182H27.98ZM19.98 24.2812C19.9536 24.2853 19.9297 24.2988 19.9126 24.3192C19.8955 24.3396 19.8864 24.3655 19.887 24.3922C19.887 24.4542 19.937 24.5052 20 24.5042C20.061 24.5042 20.11 24.4542 20.111 24.3922C20.111 24.3312 20.061 24.2822 20 24.2812H19.98ZM27.98 24.2812C27.9536 24.2853 27.9297 24.2988 27.9126 24.3192C27.8955 24.3396 27.8864 24.3655 27.887 24.3922C27.887 24.4542 27.937 24.5052 28 24.5042C28.061 24.5042 28.11 24.4542 28.111 24.3922C28.111 24.3312 28.061 24.2822 28 24.2812H27.98ZM19.992 24.8412C19.9631 24.843 19.9361 24.8558 19.9166 24.8771C19.897 24.8983 19.8864 24.9263 19.887 24.9552C19.887 25.0172 19.937 25.0672 20 25.0662C20.0298 25.0651 20.058 25.0522 20.0783 25.0304C20.0987 25.0085 20.1095 24.9795 20.1085 24.9497C20.1074 24.9198 20.0945 24.8916 20.0727 24.8713C20.0508 24.8509 20.0218 24.8401 19.992 24.8412ZM27.992 24.8412C27.9631 24.843 27.9361 24.8558 27.9166 24.8771C27.897 24.8983 27.8864 24.9263 27.887 24.9552C27.887 25.0172 27.937 25.0672 28 25.0662C28.0298 25.0651 28.058 25.0522 28.0783 25.0304C28.0987 25.0085 28.1095 24.9795 28.1085 24.9497C28.1074 24.9198 28.0945 24.8916 28.0727 24.8713C28.0508 24.8509 28.0218 24.8401 27.992 24.8412ZM19.992 25.4042C19.9626 25.4052 19.9349 25.4177 19.9147 25.439C19.8945 25.4603 19.8834 25.4887 19.884 25.5181C19.8845 25.5474 19.8965 25.5754 19.9175 25.596C19.9384 25.6166 19.9666 25.6281 19.996 25.6281C20.0253 25.6281 20.0535 25.6166 20.0744 25.596C20.0954 25.5754 20.1074 25.5474 20.1079 25.5181C20.1085 25.4887 20.0974 25.4603 20.0772 25.439C20.0571 25.4177 20.0293 25.4052 20 25.4042C19.9973 25.404 19.9946 25.404 19.992 25.4042ZM27.992 25.4042C27.9626 25.4052 27.9349 25.4177 27.9147 25.439C27.8945 25.4603 27.8834 25.4887 27.884 25.5181C27.8845 25.5474 27.8965 25.5754 27.9175 25.596C27.9384 25.6166 27.9666 25.6281 27.996 25.6281C28.0253 25.6281 28.0535 25.6166 28.0744 25.596C28.0954 25.5754 28.1074 25.5474 28.1079 25.5181C28.1085 25.4887 28.0974 25.4603 28.0772 25.439C28.057 25.4177 28.0293 25.4052 28 25.4042C27.9973 25.404 27.9946 25.404 27.992 25.4042ZM19.992 25.9672C19.9633 25.9689 19.9364 25.9817 19.9169 26.0027C19.8974 26.0237 19.8866 26.0515 19.887 26.0802C19.887 26.1422 19.937 26.1922 20 26.1912C20.0147 26.1906 20.0293 26.1872 20.0427 26.1811C20.0562 26.1749 20.0683 26.1662 20.0783 26.1554C20.0884 26.1446 20.0963 26.1319 20.1014 26.118C20.1066 26.1042 20.109 26.0894 20.1085 26.0747C20.1079 26.0599 20.1045 26.0454 20.0984 26.0319C20.0922 26.0185 20.0835 26.0064 20.0727 25.9963C20.0619 25.9862 20.0492 25.9784 20.0353 25.9732C20.0215 25.968 20.0067 25.9656 19.992 25.9662V25.9672ZM27.992 25.9672C27.9633 25.9689 27.9364 25.9817 27.9169 26.0027C27.8974 26.0237 27.8866 26.0515 27.887 26.0802C27.887 26.1422 27.937 26.1922 28 26.1912C28.0147 26.1906 28.0293 26.1872 28.0427 26.1811C28.0562 26.1749 28.0683 26.1662 28.0783 26.1554C28.0884 26.1446 28.0963 26.1319 28.1014 26.118C28.1066 26.1042 28.109 26.0894 28.1085 26.0747C28.1079 26.0599 28.1045 26.0454 28.0984 26.0319C28.0922 26.0185 28.0835 26.0064 28.0727 25.9963C28.0619 25.9862 28.0492 25.9784 28.0353 25.9732C28.0215 25.968 28.0067 25.9656 27.992 25.9662V25.9672ZM19.992 26.5292C19.9772 26.5301 19.9629 26.5339 19.9496 26.5404C19.9364 26.5468 19.9246 26.5559 19.9148 26.5669C19.9051 26.578 19.8976 26.5908 19.8928 26.6048C19.888 26.6187 19.886 26.6334 19.887 26.6482C19.8879 26.6629 19.8917 26.6772 19.8982 26.6905C19.9046 26.7037 19.9137 26.7155 19.9247 26.7253C19.9358 26.7351 19.9486 26.7425 19.9626 26.7473C19.9765 26.7521 19.9912 26.7541 20.006 26.7532C20.0357 26.7513 20.0634 26.7377 20.0831 26.7154C20.1028 26.6931 20.1128 26.6639 20.111 26.6342C20.1091 26.6045 20.0955 26.5767 20.0732 26.557C20.0509 26.5373 20.0217 26.5273 19.992 26.5292ZM27.992 26.5292C27.9772 26.5301 27.9629 26.5339 27.9496 26.5404C27.9364 26.5468 27.9246 26.5559 27.9148 26.5669C27.9051 26.578 27.8976 26.5908 27.8928 26.6048C27.888 26.6187 27.886 26.6334 27.887 26.6482C27.8879 26.6629 27.8917 26.6772 27.8982 26.6905C27.9046 26.7037 27.9137 26.7155 27.9247 26.7253C27.9358 26.7351 27.9486 26.7425 27.9626 26.7473C27.9765 26.7521 27.9912 26.7541 28.006 26.7532C28.0357 26.7513 28.0634 26.7377 28.0831 26.7154C28.1028 26.6931 28.1128 26.6639 28.111 26.6342C28.1091 26.6045 28.0955 26.5767 28.0732 26.557C28.0509 26.5373 28.0217 26.5273 27.992 26.5292ZM19.992 27.0922C19.9623 27.094 19.9345 27.1076 19.9148 27.1299C19.8951 27.1522 19.8851 27.1814 19.887 27.2112C19.8888 27.2409 19.9024 27.2686 19.9247 27.2883C19.947 27.308 19.9763 27.318 20.006 27.3162C20.0207 27.3152 20.035 27.3114 20.0483 27.305C20.0615 27.2985 20.0734 27.2894 20.0831 27.2784C20.0929 27.2674 20.1003 27.2545 20.1051 27.2405C20.1099 27.2266 20.1119 27.2119 20.111 27.1972C20.11 27.1824 20.1062 27.1681 20.0998 27.1548C20.0933 27.1416 20.0843 27.1298 20.0732 27.12C20.0622 27.1103 20.0493 27.1028 20.0353 27.098C20.0214 27.0932 20.0067 27.0912 19.992 27.0922ZM27.992 27.0922C27.9623 27.094 27.9345 27.1076 27.9148 27.1299C27.8951 27.1522 27.8851 27.1814 27.887 27.2112C27.8888 27.2409 27.9024 27.2686 27.9247 27.2883C27.947 27.308 27.9763 27.318 28.006 27.3162C28.0207 27.3152 28.035 27.3114 28.0483 27.305C28.0615 27.2985 28.0734 27.2894 28.0831 27.2784C28.0929 27.2674 28.1003 27.2545 28.1051 27.2405C28.1099 27.2266 28.1119 27.2119 28.111 27.1972C28.11 27.1824 28.1062 27.1681 28.0998 27.1548C28.0933 27.1416 28.0843 27.1298 28.0732 27.12C28.0622 27.1103 28.0493 27.1028 28.0353 27.098C28.0214 27.0932 28.0067 27.0912 27.992 27.0922ZM24.978 27.0992V27.1012C24.8533 27.1032 24.7303 27.1299 24.616 27.1797C24.5017 27.2295 24.3984 27.3013 24.312 27.3912L22.504 29.2482C22.4173 29.3373 22.349 29.4426 22.303 29.558C22.2571 29.6735 22.2343 29.7969 22.236 29.9212C22.2377 30.0455 22.2639 30.1683 22.313 30.2824C22.3622 30.3966 22.4334 30.5 22.5225 30.5867C22.6116 30.6733 22.7169 30.7416 22.8323 30.7876C22.9478 30.8336 23.0712 30.8563 23.1955 30.8546C23.3198 30.8529 23.4426 30.8267 23.5567 30.7776C23.6709 30.7284 23.7743 30.6573 23.861 30.5682L25.67 28.7082C25.7571 28.6192 25.8257 28.5138 25.872 28.3982C25.9183 28.2826 25.9412 28.1589 25.9396 28.0344C25.9379 27.9099 25.9116 27.7869 25.8623 27.6726C25.8129 27.5582 25.7414 27.4548 25.652 27.3682C25.5629 27.2811 25.4575 27.2125 25.3418 27.1664C25.2261 27.1202 25.1025 27.0974 24.978 27.0992ZM17.533 27.3392C17.4082 27.3415 17.2851 27.3686 17.1708 27.4187C17.0565 27.4688 16.9533 27.541 16.867 27.6312L15.059 29.4882C14.9678 29.5763 14.8952 29.6818 14.8456 29.7986C14.796 29.9153 14.7704 30.0407 14.7702 30.1675C14.77 30.2944 14.7952 30.4199 14.8445 30.5368C14.8937 30.6536 14.966 30.7594 15.0569 30.8478C15.1478 30.9363 15.2555 31.0055 15.3737 31.0515C15.4918 31.0975 15.618 31.1193 15.7448 31.1156C15.8716 31.1119 15.9963 31.0828 16.1116 31.03C16.2269 30.9772 16.3304 30.9017 16.416 30.8082L18.225 28.9482C18.3119 28.8592 18.3805 28.7539 18.4266 28.6384C18.4728 28.5228 18.4957 28.3993 18.4941 28.2749C18.4924 28.1505 18.4662 28.0277 18.4169 27.9134C18.3676 27.7992 18.2963 27.6958 18.207 27.6092C18.118 27.5219 18.0126 27.4532 17.8969 27.4068C17.7812 27.3605 17.6576 27.3375 17.533 27.3392ZM32.252 27.3392C32.1272 27.3416 32.0041 27.3686 31.8898 27.4188C31.7756 27.4689 31.6723 27.541 31.586 27.6312L29.777 29.4882C29.6108 29.6698 29.522 29.9089 29.5292 30.1549C29.5363 30.4009 29.639 30.6345 29.8154 30.8061C29.9919 30.9777 30.2282 31.0739 30.4743 31.0743C30.7204 31.0747 30.957 30.9792 31.134 30.8082L32.944 28.9482C33.0309 28.8592 33.0995 28.7539 33.1456 28.6384C33.1918 28.5228 33.2147 28.3993 33.2131 28.2749C33.2114 28.1505 33.1852 28.0277 33.1359 27.9134C33.0866 27.7992 33.0153 27.6958 32.926 27.6092C32.837 27.5219 32.7316 27.4532 32.6159 27.4068C32.5002 27.3605 32.3766 27.3375 32.252 27.3392ZM25.043 27.5842C25.122 27.5872 25.203 27.6222 25.287 27.6912C25.694 28.0532 25.212 28.4772 25.037 28.6602L24.172 29.5642C23.565 30.1952 23.301 30.6222 22.877 30.2142C22.517 29.8412 22.835 29.6192 23.523 28.9202L24.389 28.0152C24.594 27.8152 24.807 27.5722 25.043 27.5842ZM19.993 27.6542C19.9782 27.655 19.9639 27.6588 19.9506 27.6652C19.9373 27.6716 19.9255 27.6806 19.9157 27.6916C19.9059 27.7026 19.8983 27.7154 19.8935 27.7293C19.8887 27.7432 19.8866 27.7579 19.8875 27.7727C19.8883 27.7874 19.8921 27.8018 19.8985 27.815C19.9049 27.8283 19.9139 27.8402 19.9249 27.8499C19.9359 27.8597 19.9487 27.8673 19.9626 27.8721C19.9765 27.877 19.9912 27.879 20.006 27.8782C20.0357 27.8763 20.0634 27.8627 20.0831 27.8404C20.1028 27.8181 20.1128 27.7889 20.111 27.7592C20.1091 27.7295 20.0955 27.7017 20.0732 27.682C20.0509 27.6623 20.0217 27.6523 19.992 27.6542H19.993ZM27.993 27.6542C27.9782 27.655 27.9639 27.6588 27.9506 27.6652C27.9373 27.6716 27.9255 27.6806 27.9157 27.6916C27.9059 27.7026 27.8983 27.7154 27.8935 27.7293C27.8887 27.7432 27.8866 27.7579 27.8875 27.7727C27.8883 27.7874 27.8921 27.8018 27.8985 27.815C27.9049 27.8283 27.9139 27.8402 27.9249 27.8499C27.9359 27.8597 27.9487 27.8673 27.9626 27.8721C27.9765 27.877 27.9912 27.879 28.006 27.8782C28.0357 27.8763 28.0634 27.8627 28.0831 27.8404C28.1028 27.8181 28.1128 27.7889 28.111 27.7592C28.1091 27.7295 28.0955 27.7017 28.0732 27.682C28.0509 27.6623 28.0217 27.6523 27.992 27.6542H27.993ZM17.598 27.8222C17.676 27.8262 17.757 27.8602 17.842 27.9292C18.248 28.2912 17.767 28.7152 17.592 28.8992L16.727 29.8022C16.119 30.4342 15.855 30.8612 15.432 30.4522C15.072 30.0792 15.39 29.8572 16.078 29.1582L16.943 28.2562C17.149 28.0552 17.361 27.8102 17.598 27.8222ZM32.316 27.8222C32.396 27.8262 32.476 27.8602 32.56 27.9292C32.967 28.2912 32.486 28.7152 32.31 28.8992L31.445 29.8022C30.838 30.4342 30.574 30.8612 30.15 30.4522C29.79 30.0792 30.109 29.8572 30.797 29.1582L31.662 28.2562C31.868 28.0552 32.08 27.8102 32.316 27.8222ZM19.98 28.2172C19.9539 28.2214 19.9302 28.2349 19.9132 28.255C19.8961 28.2752 19.8868 28.3008 19.887 28.3272C19.887 28.3902 19.937 28.4402 20 28.4392C20.061 28.4392 20.11 28.3892 20.111 28.3282C20.111 28.2672 20.061 28.2182 20 28.2172H19.98ZM27.98 28.2172C27.9539 28.2214 27.9302 28.2349 27.9132 28.255C27.8961 28.2752 27.8868 28.3008 27.887 28.3272C27.887 28.3902 27.937 28.4402 28 28.4392C28.061 28.4392 28.11 28.3892 28.111 28.3282C28.111 28.2672 28.061 28.2182 28 28.2172H27.98ZM20.002 28.7772C19.9863 28.7755 19.9705 28.7772 19.9555 28.7821C19.9406 28.7869 19.9268 28.7948 19.9151 28.8053C19.9033 28.8158 19.8939 28.8286 19.8874 28.843C19.881 28.8573 19.8775 28.8728 19.8774 28.8886C19.8773 28.9043 19.8804 28.9199 19.8866 28.9343C19.8929 28.9488 19.902 28.9617 19.9136 28.9724C19.9251 28.9831 19.9388 28.9913 19.9536 28.9964C19.9685 29.0015 19.9843 29.0035 20 29.0022C20.028 28.9998 20.0541 28.987 20.0733 28.9664C20.0924 28.9457 20.1031 28.9187 20.1034 28.8906C20.1036 28.8624 20.0934 28.8352 20.0746 28.8142C20.0559 28.7933 20.0299 28.78 20.002 28.7772ZM28.002 28.7772C27.9863 28.7755 27.9705 28.7772 27.9555 28.7821C27.9406 28.7869 27.9268 28.7948 27.9151 28.8053C27.9033 28.8158 27.8939 28.8286 27.8874 28.843C27.881 28.8573 27.8775 28.8728 27.8774 28.8886C27.8772 28.9043 27.8804 28.9199 27.8866 28.9343C27.8929 28.9488 27.902 28.9617 27.9136 28.9724C27.9251 28.9831 27.9388 28.9913 27.9536 28.9964C27.9685 29.0015 27.9843 29.0035 28 29.0022C28.028 28.9998 28.0541 28.987 28.0733 28.9664C28.0924 28.9457 28.1031 28.9187 28.1034 28.8906C28.1036 28.8624 28.0934 28.8352 28.0746 28.8142C28.0559 28.7933 28.0299 28.78 28.002 28.7772ZM19.992 29.3402C19.9633 29.3419 19.9364 29.3547 19.9169 29.3757C19.8974 29.3967 19.8866 29.4245 19.887 29.4532C19.887 29.5152 19.937 29.5652 20 29.5642C20.061 29.5642 20.11 29.5142 20.111 29.4532C20.1111 29.4384 20.1083 29.4239 20.1028 29.4102C20.0973 29.3966 20.0892 29.3842 20.0789 29.3737C20.0686 29.3632 20.0563 29.3548 20.0427 29.3491C20.0292 29.3433 20.0147 29.3403 20 29.3402H19.992ZM27.992 29.3402C27.9633 29.3419 27.9364 29.3547 27.9169 29.3757C27.8974 29.3967 27.8866 29.4245 27.887 29.4532C27.887 29.5152 27.937 29.5652 28 29.5642C28.061 29.5642 28.11 29.5142 28.111 29.4532C28.1111 29.4384 28.1083 29.4239 28.1028 29.4102C28.0973 29.3966 28.0892 29.3842 28.0789 29.3737C28.0686 29.3632 28.0563 29.3548 28.0427 29.3491C28.0292 29.3433 28.0147 29.3403 28 29.3402H27.992ZM19.992 29.9022C19.9626 29.9032 19.9349 29.9157 19.9147 29.937C19.8945 29.9583 19.8834 29.9867 19.884 30.0161C19.8845 30.0454 19.8965 30.0734 19.9175 30.094C19.9384 30.1146 19.9666 30.1261 19.996 30.1261C20.0253 30.1261 20.0535 30.1146 20.0744 30.094C20.0954 30.0734 20.1074 30.0454 20.1079 30.0161C20.1085 29.9867 20.0974 29.9583 20.0772 29.937C20.0571 29.9157 20.0293 29.9032 20 29.9022H19.992ZM27.992 29.9022C27.9626 29.9032 27.9349 29.9157 27.9147 29.937C27.8945 29.9583 27.8834 29.9867 27.884 30.0161C27.8845 30.0454 27.8965 30.0734 27.9175 30.094C27.9384 30.1146 27.9666 30.1261 27.996 30.1261C28.0253 30.1261 28.0535 30.1146 28.0744 30.094C28.0954 30.0734 28.1074 30.0454 28.1079 30.0161C28.1085 29.9867 28.0974 29.9583 28.0772 29.937C28.057 29.9157 28.0293 29.9032 28 29.9022H27.992ZM19.992 30.4652C19.9633 30.4669 19.9364 30.4797 19.9169 30.5007C19.8974 30.5217 19.8866 30.5495 19.887 30.5782C19.887 30.6402 19.937 30.6902 20 30.6892C20.0147 30.6886 20.0291 30.6852 20.0425 30.6791C20.0559 30.673 20.068 30.6643 20.078 30.6535C20.088 30.6428 20.0958 30.6301 20.101 30.6163C20.1061 30.6025 20.1085 30.5879 20.108 30.5732C20.1074 30.5584 20.104 30.544 20.0979 30.5306C20.0918 30.5172 20.0831 30.5052 20.0723 30.4951C20.0616 30.4851 20.0489 30.4773 20.0351 30.4721C20.0213 30.467 20.0067 30.4646 19.992 30.4652ZM27.992 30.4652C27.9633 30.4669 27.9364 30.4797 27.9169 30.5007C27.8974 30.5217 27.8866 30.5495 27.887 30.5782C27.887 30.6402 27.937 30.6902 28 30.6892C28.0147 30.6886 28.0291 30.6852 28.0425 30.6791C28.0559 30.673 28.068 30.6643 28.078 30.6535C28.088 30.6428 28.0958 30.6301 28.101 30.6163C28.1061 30.6025 28.1085 30.5879 28.108 30.5732C28.1074 30.5584 28.104 30.544 28.0979 30.5306C28.0918 30.5172 28.0831 30.5052 28.0723 30.4951C28.0616 30.4851 28.0489 30.4773 28.0351 30.4721C28.0213 30.467 28.0067 30.4646 27.992 30.4652ZM19.992 31.0252C19.9635 31.0274 19.9369 31.0403 19.9174 31.0612C19.898 31.0821 19.8871 31.1096 19.887 31.1382C19.887 31.1679 19.8988 31.1963 19.9198 31.2174C19.9408 31.2384 19.9693 31.2502 19.999 31.2502C20.0287 31.2502 20.0571 31.2384 20.0782 31.2174C20.0992 31.1963 20.111 31.1679 20.111 31.1382C20.1108 31.1228 20.1076 31.1077 20.1015 31.0937C20.0954 31.0796 20.0866 31.0669 20.0755 31.0564C20.0644 31.0458 20.0512 31.0376 20.0369 31.0323C20.0225 31.0269 20.0073 31.0245 19.992 31.0252ZM27.992 31.0252C27.9635 31.0274 27.9369 31.0403 27.9174 31.0612C27.898 31.0821 27.8871 31.1096 27.887 31.1382C27.887 31.1679 27.8988 31.1963 27.9198 31.2174C27.9408 31.2384 27.9693 31.2502 27.999 31.2502C28.0287 31.2502 28.0571 31.2384 28.0782 31.2174C28.0992 31.1963 28.111 31.1679 28.111 31.1382C28.1108 31.1228 28.1076 31.1077 28.1015 31.0937C28.0954 31.0796 28.0866 31.0669 28.0755 31.0564C28.0644 31.0458 28.0512 31.0376 28.0369 31.0323C28.0225 31.0269 28.0073 31.0245 27.992 31.0252ZM19.992 31.5882C19.9649 31.5926 19.9403 31.6068 19.9229 31.6281C19.9055 31.6494 19.8965 31.6762 19.8975 31.7037C19.8985 31.7311 19.9094 31.7573 19.9283 31.7772C19.9471 31.7972 19.9726 31.8096 20 31.8122C20.0147 31.8116 20.0291 31.8082 20.0425 31.8021C20.0559 31.796 20.068 31.7873 20.078 31.7765C20.088 31.7658 20.0958 31.7531 20.101 31.7393C20.1061 31.7255 20.1085 31.7109 20.108 31.6962C20.1074 31.6814 20.104 31.667 20.0979 31.6536C20.0918 31.6402 20.0831 31.6282 20.0723 31.6181C20.0616 31.6081 20.0489 31.6003 20.0351 31.5951C20.0213 31.59 20.0067 31.5876 19.992 31.5882ZM27.992 31.5882C27.9649 31.5926 27.9403 31.6068 27.9229 31.6281C27.9055 31.6494 27.8965 31.6762 27.8975 31.7037C27.8985 31.7311 27.9094 31.7573 27.9283 31.7772C27.9471 31.7972 27.9726 31.8096 28 31.8122C28.0147 31.8116 28.0291 31.8082 28.0425 31.8021C28.0559 31.796 28.068 31.7873 28.078 31.7765C28.088 31.7658 28.0958 31.7531 28.101 31.7393C28.1061 31.7255 28.1085 31.7109 28.108 31.6962C28.1074 31.6814 28.104 31.667 28.0979 31.6536C28.0918 31.6402 28.0831 31.6282 28.0723 31.6181C28.0616 31.6081 28.0489 31.6003 28.0351 31.5951C28.0213 31.59 28.0067 31.5876 27.992 31.5882ZM19.98 32.1502C19.9536 32.1543 19.9297 32.1678 19.9126 32.1882C19.8955 32.2086 19.8864 32.2345 19.887 32.2612C19.8866 32.2833 19.8928 32.3052 19.9048 32.3238C19.9168 32.3425 19.9341 32.3571 19.9545 32.3659C19.9748 32.3748 19.9974 32.3773 20.0192 32.3733C20.041 32.3693 20.0612 32.3589 20.0771 32.3434C20.093 32.3279 20.1039 32.3081 20.1085 32.2864C20.1131 32.2646 20.1112 32.2421 20.1029 32.2215C20.0946 32.2009 20.0804 32.1832 20.0621 32.1707C20.0438 32.1581 20.0221 32.1514 20 32.1512C19.992 32.1492 19.99 32.1492 19.982 32.1512H19.98V32.1502ZM27.98 32.1502C27.9536 32.1543 27.9297 32.1678 27.9126 32.1882C27.8955 32.2086 27.8864 32.2345 27.887 32.2612C27.8866 32.2833 27.8928 32.3052 27.9048 32.3238C27.9168 32.3425 27.9341 32.3571 27.9545 32.3659C27.9748 32.3748 27.9974 32.3773 28.0192 32.3733C28.041 32.3693 28.0612 32.3589 28.0771 32.3434C28.093 32.3279 28.1039 32.3081 28.1085 32.2864C28.1131 32.2646 28.1112 32.2421 28.1029 32.2215C28.0946 32.2009 28.0804 32.1832 28.0621 32.1707C28.0438 32.1581 28.0221 32.1514 28 32.1512C27.992 32.1492 27.99 32.1492 27.982 32.1512H27.98V32.1502ZM24.98 32.3042V32.3062C24.8553 32.3082 24.7323 32.3348 24.618 32.3846C24.5037 32.4344 24.4003 32.5063 24.314 32.5962L22.506 34.4532C22.3309 34.6328 22.2344 34.8747 22.2377 35.1255C22.241 35.3764 22.3438 35.6156 22.5235 35.7907C22.7031 35.9657 22.945 36.0622 23.1958 36.0589C23.4467 36.0556 23.6859 35.9528 23.861 35.7732L25.67 33.9132C25.802 33.7795 25.8913 33.6094 25.9262 33.4248C25.9612 33.2401 25.9403 33.0493 25.8662 32.8765C25.7922 32.7038 25.6683 32.5571 25.5104 32.4552C25.3525 32.3532 25.1679 32.3006 24.98 32.3042ZM17.531 32.5972V32.5992C17.4063 32.6012 17.2833 32.6278 17.169 32.6776C17.0547 32.7274 16.9514 32.7993 16.865 32.8892L15.057 34.7462C14.9698 34.8351 14.901 34.9404 14.8547 35.056C14.8083 35.1715 14.7853 35.2952 14.7869 35.4197C14.7884 35.5442 14.8146 35.6672 14.8639 35.7816C14.9132 35.896 14.9845 35.9995 15.074 36.0862C15.1631 36.1731 15.2685 36.2417 15.3842 36.2878C15.4999 36.3339 15.6236 36.3566 15.7481 36.3548C15.8726 36.3529 15.9956 36.3265 16.1098 36.2769C16.2241 36.2274 16.3275 36.1558 16.414 36.0662L18.223 34.2062C18.3101 34.1172 18.3787 34.0118 18.425 33.8962C18.4713 33.7806 18.4942 33.6569 18.4926 33.5324C18.4909 33.4079 18.4646 33.2849 18.4153 33.1706C18.3659 33.0562 18.2944 32.9528 18.205 32.8662C18.1159 32.7791 18.0105 32.7105 17.8948 32.6644C17.7791 32.6182 17.6555 32.5954 17.531 32.5972ZM32.25 32.5972V32.5992C32.1253 32.6012 32.0023 32.6278 31.888 32.6776C31.7737 32.7274 31.6704 32.7993 31.584 32.8892L29.775 34.7462C29.6878 34.8351 29.6192 34.9405 29.5729 35.0561C29.5266 35.1717 29.5037 35.2954 29.5053 35.4199C29.507 35.5444 29.5333 35.6674 29.5826 35.7817C29.632 35.8961 29.7035 35.9995 29.793 36.0862C29.8821 36.1731 29.9875 36.2417 30.1032 36.2878C30.2189 36.3339 30.3426 36.3566 30.4671 36.3548C30.5916 36.3529 30.7146 36.3265 30.8288 36.2769C30.9431 36.2274 31.0465 36.1558 31.133 36.0662L32.941 34.2062C33.0281 34.1172 33.0969 34.0119 33.1432 33.8963C33.1896 33.7808 33.2126 33.6571 33.2111 33.5326C33.2095 33.4081 33.1833 33.2851 33.134 33.1707C33.0848 33.0564 33.0134 32.9528 32.924 32.8662C32.8349 32.7791 32.7295 32.7105 32.6138 32.6644C32.4981 32.6182 32.3745 32.5954 32.25 32.5972ZM19.98 32.7132C19.9589 32.7166 19.9392 32.726 19.9233 32.7402C19.9074 32.7545 19.8958 32.773 19.8901 32.7935C19.8843 32.8141 19.8846 32.8359 19.8908 32.8563C19.897 32.8768 19.909 32.895 19.9252 32.9089C19.9415 32.9227 19.9614 32.9317 19.9825 32.9346C20.0037 32.9376 20.0252 32.9344 20.0446 32.9255C20.0641 32.9166 20.0805 32.9023 20.0921 32.8844C20.1037 32.8664 20.1099 32.8455 20.11 32.8242C20.11 32.7632 20.061 32.7132 20 32.7132H19.98ZM27.98 32.7132C27.9589 32.7166 27.9392 32.726 27.9233 32.7402C27.9074 32.7545 27.8958 32.773 27.8901 32.7935C27.8843 32.8141 27.8846 32.8359 27.8908 32.8563C27.897 32.8768 27.909 32.895 27.9252 32.9089C27.9415 32.9227 27.9614 32.9317 27.9825 32.9346C28.0037 32.9376 28.0252 32.9344 28.0446 32.9255C28.0641 32.9166 28.0805 32.9023 28.0921 32.8844C28.1037 32.8664 28.1099 32.8455 28.11 32.8242C28.11 32.7632 28.061 32.7132 28 32.7132H27.98ZM25.043 32.7892H25.045C25.1351 32.7975 25.2201 32.835 25.287 32.8962C25.694 33.2582 25.212 33.6822 25.037 33.8652L24.174 34.7692C23.567 35.4012 23.303 35.8272 22.879 35.4192C22.519 35.0462 22.837 34.8242 23.525 34.1252L24.391 33.2202C24.596 33.0202 24.808 32.7792 25.043 32.7892ZM17.596 33.0822C17.674 33.0862 17.756 33.1202 17.84 33.1892C18.246 33.5512 17.765 33.9752 17.59 34.1582L16.725 35.0622C16.117 35.6942 15.853 36.1202 15.43 35.7122C15.07 35.3392 15.388 35.1172 16.076 34.4182L16.941 33.5132C17.147 33.3132 17.359 33.0702 17.596 33.0822ZM32.315 33.0822C32.393 33.0862 32.474 33.1202 32.559 33.1892C32.965 33.5512 32.484 33.9752 32.309 34.1582L31.443 35.0622C30.836 35.6942 30.573 36.1202 30.148 35.7122C29.788 35.3392 30.107 35.1172 30.795 34.4182L31.66 33.5132C31.866 33.3132 32.078 33.0702 32.315 33.0822ZM20.002 33.2732C19.987 33.2733 19.9722 33.2764 19.9584 33.2822C19.9446 33.2881 19.9321 33.2966 19.9216 33.3072C19.9111 33.3179 19.9029 33.3306 19.8972 33.3444C19.8916 33.3583 19.8888 33.3732 19.889 33.3882C19.889 33.4502 19.939 33.4982 20.002 33.4982C20.0165 33.4983 20.0309 33.4955 20.0444 33.4901C20.0578 33.4846 20.0701 33.4765 20.0804 33.4663C20.0907 33.4561 20.0989 33.4439 20.1045 33.4305C20.1101 33.4171 20.113 33.4027 20.113 33.3882C20.1132 33.3583 20.1017 33.3295 20.081 33.3079C20.0602 33.2864 20.0318 33.2739 20.002 33.2732ZM28.002 33.2732C27.987 33.2733 27.9722 33.2764 27.9584 33.2822C27.9446 33.2881 27.9321 33.2966 27.9216 33.3072C27.9111 33.3179 27.9029 33.3306 27.8972 33.3444C27.8916 33.3583 27.8888 33.3732 27.889 33.3882C27.889 33.4502 27.939 33.4982 28.002 33.4982C28.0165 33.4983 28.0309 33.4955 28.0444 33.4901C28.0578 33.4846 28.0701 33.4765 28.0804 33.4663C28.0907 33.4561 28.0989 33.4439 28.1045 33.4305C28.1101 33.4171 28.113 33.4027 28.113 33.3882C28.1132 33.3583 28.1017 33.3295 28.081 33.3079C28.0602 33.2864 28.0318 33.2739 28.002 33.2732ZM19.992 33.8362C19.9633 33.8379 19.9364 33.8507 19.9169 33.8717C19.8974 33.8927 19.8866 33.9205 19.887 33.9492C19.887 34.0112 19.937 34.0612 20 34.0602C20.061 34.0602 20.11 34.0102 20.111 33.9492C20.1111 33.9344 20.1083 33.9199 20.1028 33.9062C20.0973 33.8926 20.0892 33.8802 20.0789 33.8697C20.0686 33.8592 20.0563 33.8508 20.0427 33.8451C20.0292 33.8393 20.0147 33.8363 20 33.8362H19.992ZM27.992 33.8362C27.9633 33.8379 27.9364 33.8507 27.9169 33.8717C27.8974 33.8927 27.8866 33.9205 27.887 33.9492C27.887 34.0112 27.937 34.0612 28 34.0602C28.061 34.0602 28.11 34.0102 28.111 33.9492C28.1111 33.9344 28.1083 33.9199 28.1028 33.9062C28.0973 33.8926 28.0892 33.8802 28.0789 33.8697C28.0686 33.8592 28.0563 33.8508 28.0427 33.8451C28.0292 33.8393 28.0147 33.8363 28 33.8362H27.992ZM19.992 34.3982C19.9626 34.3992 19.9349 34.4117 19.9147 34.433C19.8945 34.4543 19.8834 34.4827 19.884 34.5121C19.8845 34.5414 19.8965 34.5694 19.9175 34.59C19.9384 34.6106 19.9666 34.6221 19.996 34.6221C20.0253 34.6221 20.0535 34.6106 20.0744 34.59C20.0954 34.5694 20.1074 34.5414 20.1079 34.5121C20.1085 34.4827 20.0974 34.4543 20.0772 34.433C20.0571 34.4117 20.0293 34.3992 20 34.3982C19.9973 34.398 19.9946 34.398 19.992 34.3982ZM27.992 34.3982C27.9626 34.3992 27.9349 34.4117 27.9147 34.433C27.8945 34.4543 27.8834 34.4827 27.884 34.5121C27.8845 34.5414 27.8965 34.5694 27.9175 34.59C27.9384 34.6106 27.9666 34.6221 27.996 34.6221C28.0253 34.6221 28.0535 34.6106 28.0744 34.59C28.0954 34.5694 28.1074 34.5414 28.1079 34.5121C28.1085 34.4827 28.0974 34.4543 28.0772 34.433C28.057 34.4117 28.0293 34.3992 28 34.3982C27.9973 34.398 27.9946 34.398 27.992 34.3982ZM19.992 34.9612C19.9623 34.9622 19.9342 34.975 19.9139 34.9968C19.8937 35.0185 19.8829 35.0474 19.884 35.0772C19.885 35.1069 19.8978 35.1349 19.9196 35.1552C19.9413 35.1754 19.9703 35.1862 20 35.1852C20.0297 35.1852 20.0581 35.1734 20.0792 35.1523C20.1002 35.1313 20.112 35.1029 20.112 35.0732C20.112 35.0435 20.1002 35.015 20.0792 34.994C20.0581 34.973 20.0297 34.9612 20 34.9612C19.9973 34.961 19.9946 34.961 19.992 34.9612ZM27.992 34.9612C27.9623 34.9622 27.9342 34.975 27.9139 34.9968C27.8937 35.0185 27.8829 35.0474 27.884 35.0772C27.885 35.1069 27.8978 35.1349 27.9196 35.1552C27.9413 35.1754 27.9703 35.1862 28 35.1852C28.0297 35.1852 28.0581 35.1734 28.0792 35.1523C28.1002 35.1313 28.112 35.1029 28.112 35.0732C28.112 35.0435 28.1002 35.015 28.0792 34.994C28.0581 34.973 28.0297 34.9612 28 34.9612C27.9973 34.961 27.9946 34.961 27.992 34.9612ZM19.992 35.5232C19.9626 35.5242 19.9349 35.5367 19.9147 35.558C19.8945 35.5793 19.8834 35.6077 19.884 35.6371C19.8845 35.6664 19.8965 35.6944 19.9175 35.715C19.9384 35.7356 19.9666 35.7471 19.996 35.7471C20.0253 35.7471 20.0535 35.7356 20.0744 35.715C20.0954 35.6944 20.1074 35.6664 20.1079 35.6371C20.1085 35.6077 20.0974 35.5793 20.0772 35.558C20.0571 35.5367 20.0293 35.5242 20 35.5232H19.992ZM27.992 35.5232C27.9626 35.5242 27.9349 35.5367 27.9147 35.558C27.8945 35.5793 27.8834 35.6077 27.884 35.6371C27.8845 35.6664 27.8965 35.6944 27.9175 35.715C27.9384 35.7356 27.9666 35.7471 27.996 35.7471C28.0253 35.7471 28.0535 35.7356 28.0744 35.715C28.0954 35.6944 28.1074 35.6664 28.1079 35.6371C28.1085 35.6077 28.0974 35.5793 28.0772 35.558C28.057 35.5367 28.0293 35.5242 28 35.5232H27.992ZM19.992 36.0862C19.9626 36.0872 19.9349 36.0997 19.9147 36.121C19.8945 36.1423 19.8834 36.1707 19.884 36.2001C19.8845 36.2294 19.8965 36.2574 19.9175 36.278C19.9384 36.2986 19.9666 36.3101 19.996 36.3101C20.0253 36.3101 20.0535 36.2986 20.0744 36.278C20.0954 36.2574 20.1074 36.2294 20.1079 36.2001C20.1085 36.1707 20.0974 36.1423 20.0772 36.121C20.0571 36.0997 20.0293 36.0872 20 36.0862H19.992ZM27.992 36.0862C27.9626 36.0872 27.9349 36.0997 27.9147 36.121C27.8945 36.1423 27.8834 36.1707 27.884 36.2001C27.8845 36.2294 27.8965 36.2574 27.9175 36.278C27.9384 36.2986 27.9666 36.3101 27.996 36.3101C28.0253 36.3101 28.0535 36.2986 28.0744 36.278C28.0954 36.2574 28.1074 36.2294 28.1079 36.2001C28.1085 36.1707 28.0974 36.1423 28.0772 36.121C28.057 36.0997 28.0293 36.0872 28 36.0862H27.992ZM19.992 36.6482C19.9772 36.6487 19.9627 36.6521 19.9492 36.6582C19.9358 36.6644 19.9237 36.6731 19.9136 36.6839C19.9035 36.6948 19.8957 36.7074 19.8905 36.7213C19.8853 36.7351 19.8829 36.7499 19.8835 36.7647C19.884 36.7794 19.8874 36.794 19.8936 36.8074C19.8997 36.8208 19.9084 36.833 19.9192 36.843C19.9301 36.8531 19.9427 36.861 19.9566 36.8661C19.9705 36.8713 19.9852 36.8737 20 36.8732C20.0298 36.8732 20.0584 36.8613 20.0795 36.8402C20.1006 36.8191 20.1125 36.7905 20.1125 36.7607C20.1125 36.7308 20.1006 36.7022 20.0795 36.6811C20.0584 36.66 20.0298 36.6482 20 36.6482H19.992ZM27.992 36.6482C27.9772 36.6487 27.9627 36.6521 27.9492 36.6582C27.9358 36.6644 27.9237 36.6731 27.9136 36.6839C27.9035 36.6948 27.8957 36.7074 27.8905 36.7213C27.8853 36.7351 27.8829 36.7499 27.8835 36.7647C27.884 36.7794 27.8874 36.794 27.8936 36.8074C27.8997 36.8208 27.9084 36.833 27.9192 36.843C27.9301 36.8531 27.9427 36.861 27.9566 36.8661C27.9705 36.8713 27.9852 36.8737 28 36.8732C28.0298 36.8732 28.0584 36.8613 28.0795 36.8402C28.1006 36.8191 28.1125 36.7905 28.1125 36.7607C28.1125 36.7308 28.1006 36.7022 28.0795 36.6811C28.0584 36.66 28.0298 36.6482 28 36.6482H27.992ZM19.98 37.2112C19.9536 37.2153 19.9297 37.2288 19.9126 37.2492C19.8955 37.2696 19.8864 37.2955 19.887 37.3222C19.887 37.3842 19.937 37.4342 20 37.4332C20.061 37.4332 20.11 37.3832 20.111 37.3222C20.111 37.2612 20.061 37.2122 20 37.2112H19.98ZM27.98 37.2112C27.9536 37.2153 27.9297 37.2288 27.9126 37.2492C27.8955 37.2696 27.8864 37.2955 27.887 37.3222C27.887 37.3842 27.937 37.4342 28 37.4332C28.061 37.4332 28.11 37.3832 28.111 37.3222C28.111 37.2612 28.061 37.2122 28 37.2112H27.98ZM24.98 37.5662V37.5682C24.8553 37.5702 24.7323 37.5968 24.618 37.6466C24.5037 37.6964 24.4003 37.7683 24.314 37.8582L22.506 39.7152C22.4193 39.8041 22.351 39.9093 22.305 40.0247C22.2589 40.14 22.2361 40.2633 22.2377 40.3875C22.2393 40.5117 22.2654 40.6344 22.3144 40.7485C22.3635 40.8626 22.4345 40.966 22.5235 41.0527C22.6124 41.1393 22.7176 41.2076 22.833 41.2537C22.9483 41.2997 23.0716 41.3225 23.1958 41.3209C23.32 41.3193 23.4427 41.2932 23.5568 41.2442C23.6709 41.1952 23.7743 41.1241 23.861 41.0352L25.67 39.1752C25.802 39.0415 25.8913 38.8714 25.9262 38.6868C25.9612 38.5021 25.9403 38.3113 25.8662 38.1385C25.7922 37.9658 25.6683 37.8191 25.5104 37.7171C25.3525 37.6152 25.1679 37.5626 24.98 37.5662ZM19.992 37.7712C19.9626 37.7722 19.9349 37.7847 19.9147 37.806C19.8945 37.8273 19.8834 37.8557 19.884 37.8851C19.8845 37.9144 19.8965 37.9424 19.9175 37.963C19.9384 37.9836 19.9666 37.9951 19.996 37.9951C20.0253 37.9951 20.0535 37.9836 20.0744 37.963C20.0954 37.9424 20.1074 37.9144 20.1079 37.8851C20.1085 37.8557 20.0974 37.8273 20.0772 37.806C20.0571 37.7847 20.0293 37.7722 20 37.7712C19.9973 37.771 19.9946 37.771 19.992 37.7712ZM27.992 37.7712C27.9626 37.7722 27.9349 37.7847 27.9147 37.806C27.8945 37.8273 27.8834 37.8557 27.884 37.8851C27.8845 37.9144 27.8965 37.9424 27.9175 37.963C27.9384 37.9836 27.9666 37.9951 27.996 37.9951C28.0253 37.9951 28.0535 37.9836 28.0744 37.963C28.0954 37.9424 28.1074 37.9144 28.1079 37.8851C28.1085 37.8557 28.0974 37.8273 28.0772 37.806C28.057 37.7847 28.0293 37.7722 28 37.7712C27.9973 37.771 27.9946 37.771 27.992 37.7712ZM25.043 38.0512H25.045C25.1351 38.0595 25.2201 38.097 25.287 38.1582C25.694 38.5202 25.212 38.9432 25.037 39.1272L24.174 40.0312C23.567 40.6622 23.303 41.0892 22.879 40.6812C22.519 40.3082 22.837 40.0852 23.525 39.3862L24.391 38.4822C24.596 38.2822 24.808 38.0401 25.043 38.0512ZM19.993 38.3342C19.9641 38.3357 19.937 38.3483 19.9173 38.3694C19.8975 38.3904 19.8867 38.4183 19.887 38.4472C19.887 38.5092 19.937 38.5592 20 38.5582C20.0298 38.5571 20.058 38.5442 20.0783 38.5224C20.0987 38.5005 20.1095 38.4715 20.1085 38.4417C20.1074 38.4118 20.0945 38.3836 20.0727 38.3633C20.0508 38.3429 20.0218 38.3321 19.992 38.3332L19.993 38.3342ZM27.993 38.3342C27.9641 38.3357 27.937 38.3483 27.9173 38.3694C27.8975 38.3904 27.8867 38.4183 27.887 38.4472C27.887 38.5092 27.937 38.5592 28 38.5582C28.0298 38.5571 28.058 38.5442 28.0783 38.5224C28.0987 38.5005 28.1095 38.4715 28.1085 38.4417C28.1074 38.4118 28.0945 38.3836 28.0727 38.3633C28.0508 38.3429 28.0218 38.3321 27.992 38.3332L27.993 38.3342ZM19.993 38.8962C19.9636 38.8972 19.9359 38.9097 19.9157 38.931C19.8955 38.9523 19.8844 38.9807 19.885 39.0101C19.8855 39.0394 19.8975 39.0674 19.9185 39.088C19.9394 39.1086 19.9676 39.1201 19.997 39.1201C20.0263 39.1201 20.0545 39.1086 20.0754 39.088C20.0964 39.0674 20.1084 39.0394 20.1089 39.0101C20.1095 38.9807 20.0984 38.9523 20.0782 38.931C20.058 38.9097 20.0303 38.8972 20.001 38.8962C19.998 38.896 19.995 38.896 19.992 38.8962H19.993ZM27.993 38.8962C27.9636 38.8972 27.9359 38.9097 27.9157 38.931C27.8955 38.9523 27.8844 38.9807 27.885 39.0101C27.8855 39.0394 27.8975 39.0674 27.9185 39.088C27.9394 39.1086 27.9676 39.1201 27.997 39.1201C28.0263 39.1201 28.0545 39.1086 28.0754 39.088C28.0964 39.0674 28.1084 39.0394 28.1089 39.0101C28.1095 38.9807 28.0984 38.9523 28.0782 38.931C28.058 38.9097 28.0303 38.8972 28.001 38.8962C27.998 38.896 27.995 38.896 27.992 38.8962H27.993ZM19.993 39.4592C19.9782 39.46 19.9639 39.4637 19.9506 39.4702C19.9373 39.4766 19.9255 39.4855 19.9157 39.4966C19.9059 39.5076 19.8983 39.5204 19.8935 39.5343C19.8887 39.5482 19.8866 39.5629 19.8875 39.5777C19.8883 39.5924 19.8921 39.6068 19.8985 39.62C19.9049 39.6333 19.9139 39.6451 19.9249 39.6549C19.9359 39.6647 19.9487 39.6723 19.9626 39.6771C19.9765 39.682 19.9912 39.684 20.006 39.6832C20.0357 39.6813 20.0634 39.6677 20.0831 39.6454C20.1028 39.6231 20.1128 39.5939 20.111 39.5642C20.1091 39.5344 20.0955 39.5067 20.0732 39.487C20.0509 39.4673 20.0217 39.4573 19.992 39.4592H19.993ZM27.993 39.4592C27.9782 39.46 27.9639 39.4637 27.9506 39.4702C27.9373 39.4766 27.9255 39.4855 27.9157 39.4966C27.9059 39.5076 27.8983 39.5204 27.8935 39.5343C27.8887 39.5482 27.8866 39.5629 27.8875 39.5777C27.8883 39.5924 27.8921 39.6068 27.8985 39.62C27.9049 39.6333 27.9139 39.6451 27.9249 39.6549C27.9359 39.6647 27.9487 39.6723 27.9626 39.6771C27.9765 39.682 27.9912 39.684 28.006 39.6832C28.0357 39.6813 28.0634 39.6677 28.0831 39.6454C28.1028 39.6231 28.1128 39.5939 28.111 39.5642C28.1091 39.5344 28.0955 39.5067 28.0732 39.487C28.0509 39.4673 28.0217 39.4573 27.992 39.4592H27.993ZM19.993 40.0212C19.9782 40.022 19.9639 40.0257 19.9506 40.0322C19.9373 40.0386 19.9255 40.0475 19.9157 40.0586C19.9059 40.0696 19.8983 40.0824 19.8935 40.0963C19.8887 40.1102 19.8866 40.1249 19.8875 40.1397C19.8883 40.1544 19.8921 40.1688 19.8985 40.182C19.9049 40.1953 19.9139 40.2071 19.9249 40.2169C19.9359 40.2267 19.9487 40.2343 19.9626 40.2391C19.9765 40.244 19.9912 40.246 20.006 40.2452C20.0357 40.2433 20.0634 40.2297 20.0831 40.2074C20.1028 40.1851 20.1128 40.1559 20.111 40.1262C20.1091 40.0964 20.0955 40.0687 20.0732 40.049C20.0509 40.0293 20.0217 40.0193 19.992 40.0212H19.993ZM27.993 40.0212C27.9782 40.022 27.9639 40.0257 27.9506 40.0322C27.9373 40.0386 27.9255 40.0475 27.9157 40.0586C27.9059 40.0696 27.8983 40.0824 27.8935 40.0963C27.8887 40.1102 27.8866 40.1249 27.8875 40.1397C27.8883 40.1544 27.8921 40.1688 27.8985 40.182C27.9049 40.1953 27.9139 40.2071 27.9249 40.2169C27.9359 40.2267 27.9487 40.2343 27.9626 40.2391C27.9765 40.244 27.9912 40.246 28.006 40.2452C28.0357 40.2433 28.0634 40.2297 28.0831 40.2074C28.1028 40.1851 28.1128 40.1559 28.111 40.1262C28.1091 40.0964 28.0955 40.0687 28.0732 40.049C28.0509 40.0293 28.0217 40.0193 27.992 40.0212H27.993ZM19.993 40.5842C19.9782 40.585 19.9639 40.5887 19.9506 40.5952C19.9373 40.6016 19.9255 40.6105 19.9157 40.6216C19.9059 40.6326 19.8983 40.6454 19.8935 40.6593C19.8887 40.6732 19.8866 40.6879 19.8875 40.7027C19.8883 40.7174 19.8921 40.7318 19.8985 40.745C19.9049 40.7583 19.9139 40.7701 19.9249 40.7799C19.9359 40.7897 19.9487 40.7973 19.9626 40.8021C19.9765 40.807 19.9912 40.809 20.006 40.8082C20.0207 40.8072 20.035 40.8034 20.0483 40.7969C20.0615 40.7905 20.0734 40.7814 20.0831 40.7704C20.0929 40.7593 20.1003 40.7465 20.1051 40.7325C20.1099 40.7186 20.1119 40.7039 20.111 40.6892C20.11 40.6744 20.1062 40.6601 20.0998 40.6468C20.0933 40.6336 20.0843 40.6218 20.0732 40.612C20.0622 40.6023 20.0493 40.5948 20.0353 40.59C20.0214 40.5852 20.0067 40.5832 19.992 40.5842H19.993ZM27.993 40.5842C27.9782 40.585 27.9639 40.5887 27.9506 40.5952C27.9373 40.6016 27.9255 40.6105 27.9157 40.6216C27.9059 40.6326 27.8983 40.6454 27.8935 40.6593C27.8887 40.6732 27.8866 40.6879 27.8875 40.7027C27.8883 40.7174 27.8921 40.7318 27.8985 40.745C27.9049 40.7583 27.9139 40.7701 27.9249 40.7799C27.9359 40.7897 27.9487 40.7973 27.9626 40.8021C27.9765 40.807 27.9912 40.809 28.006 40.8082C28.0207 40.8072 28.035 40.8034 28.0483 40.7969C28.0615 40.7905 28.0734 40.7814 28.0831 40.7704C28.0929 40.7593 28.1003 40.7465 28.1051 40.7325C28.1099 40.7186 28.1119 40.7039 28.111 40.6892C28.11 40.6744 28.1062 40.6601 28.0998 40.6468C28.0933 40.6336 28.0843 40.6218 28.0732 40.612C28.0622 40.6023 28.0493 40.5948 28.0353 40.59C28.0214 40.5852 28.0067 40.5832 27.992 40.5842H27.993ZM19.981 41.1462C19.9545 41.15 19.9303 41.1635 19.913 41.1839C19.8957 41.2043 19.8864 41.2304 19.887 41.2572C19.8864 41.2796 19.8925 41.3018 19.9045 41.3207C19.9166 41.3397 19.934 41.3547 19.9546 41.3637C19.9752 41.3727 19.998 41.3754 20.0201 41.3713C20.0422 41.3673 20.0626 41.3568 20.0787 41.3411C20.0948 41.3254 20.1059 41.3053 20.1105 41.2833C20.1151 41.2613 20.1131 41.2385 20.1046 41.2176C20.0962 41.1968 20.0817 41.179 20.063 41.1664C20.0444 41.1539 20.0224 41.1472 20 41.1472H19.98L19.981 41.1462ZM27.981 41.1462C27.9545 41.15 27.9303 41.1635 27.913 41.1839C27.8957 41.2043 27.8864 41.2304 27.887 41.2572C27.8864 41.2796 27.8925 41.3018 27.9045 41.3207C27.9166 41.3397 27.934 41.3547 27.9546 41.3637C27.9752 41.3727 27.998 41.3754 28.0201 41.3713C28.0422 41.3673 28.0626 41.3568 28.0787 41.3411C28.0948 41.3254 28.1059 41.3053 28.1105 41.2833C28.1151 41.2613 28.1131 41.2385 28.1046 41.2176C28.0962 41.1968 28.0817 41.179 28.063 41.1664C28.0444 41.1539 28.0224 41.1472 28 41.1472H27.98L27.981 41.1462ZM19.981 41.7092C19.9545 41.713 19.9303 41.7265 19.913 41.7469C19.8957 41.7673 19.8864 41.7934 19.887 41.8202C19.887 41.8822 19.937 41.9322 20 41.9312C20.061 41.9312 20.11 41.8812 20.111 41.8202C20.111 41.7592 20.061 41.7102 20 41.7092H19.98H19.981ZM27.981 41.7092C27.9545 41.713 27.9303 41.7265 27.913 41.7469C27.8957 41.7673 27.8864 41.7934 27.887 41.8202C27.887 41.8822 27.937 41.9322 28 41.9312C28.061 41.9312 28.11 41.8812 28.111 41.8202C28.111 41.7592 28.061 41.7102 28 41.7092H27.98H27.981ZM20.002 42.2692C19.9721 42.2689 19.9434 42.2805 19.9221 42.3014C19.9008 42.3223 19.8887 42.3508 19.8885 42.3807C19.8882 42.4105 19.8998 42.4392 19.9207 42.4605C19.9416 42.4818 19.9701 42.4939 20 42.4942C20.0147 42.4943 20.0294 42.4915 20.0431 42.486C20.0568 42.4804 20.0693 42.4723 20.0798 42.4619C20.0903 42.4516 20.0987 42.4392 20.1045 42.4256C20.1103 42.412 20.1133 42.3974 20.1135 42.3827C20.1136 42.3679 20.1108 42.3532 20.1053 42.3395C20.0997 42.3258 20.0916 42.3134 20.0812 42.3028C20.0709 42.2923 20.0585 42.2839 20.0449 42.2781C20.0313 42.2723 20.0167 42.2693 20.002 42.2692ZM28.002 42.2692C27.9721 42.2689 27.9434 42.2805 27.9221 42.3014C27.9008 42.3223 27.8887 42.3508 27.8885 42.3807C27.8882 42.4105 27.8998 42.4392 27.9207 42.4605C27.9416 42.4818 27.9701 42.4939 28 42.4942C28.0147 42.4943 28.0294 42.4915 28.0431 42.486C28.0568 42.4804 28.0693 42.4723 28.0798 42.4619C28.0903 42.4516 28.0987 42.4392 28.1045 42.4256C28.1103 42.412 28.1133 42.3974 28.1135 42.3827C28.1136 42.3679 28.1108 42.3532 28.1053 42.3395C28.0997 42.3258 28.0916 42.3134 28.0812 42.3028C28.0709 42.2923 28.0585 42.2839 28.0449 42.2781C28.0313 42.2723 28.0167 42.2693 28.002 42.2692ZM19.992 42.8322C19.9626 42.8332 19.9349 42.8457 19.9147 42.867C19.8945 42.8883 19.8834 42.9167 19.884 42.9461C19.8845 42.9754 19.8965 43.0034 19.9175 43.024C19.9384 43.0446 19.9666 43.0561 19.996 43.0561C20.0253 43.0561 20.0535 43.0446 20.0744 43.024C20.0954 43.0034 20.1074 42.9754 20.1079 42.9461C20.1085 42.9167 20.0974 42.8883 20.0772 42.867C20.0571 42.8457 20.0293 42.8332 20 42.8322C19.9973 42.832 19.9946 42.832 19.992 42.8322ZM27.992 42.8322C27.9626 42.8332 27.9349 42.8457 27.9147 42.867C27.8945 42.8883 27.8834 42.9167 27.884 42.9461C27.8845 42.9754 27.8965 43.0034 27.9175 43.024C27.9384 43.0446 27.9666 43.0561 27.996 43.0561C28.0253 43.0561 28.0535 43.0446 28.0744 43.024C28.0954 43.0034 28.1074 42.9754 28.1079 42.9461C28.1085 42.9167 28.0974 42.8883 28.0772 42.867C28.057 42.8457 28.0293 42.8332 28 42.8322C27.9973 42.832 27.9946 42.832 27.992 42.8322Z" fill="#333333"/>
</svg>
