<svg width="48" height="48" viewBox="0 0 48 48" fill="none" xmlns="http://www.w3.org/2000/svg">
<path d="M14.209 3.9375C13.3395 3.9375 12.6406 4.63642 12.6406 5.50586V42.3672C12.6406 43.2366 13.3395 43.9375 14.209 43.9375H33.9141C34.7835 43.9375 35.4824 43.2366 35.4824 42.3672V5.50586C35.4824 4.63642 34.7835 3.9375 33.9141 3.9375H14.209ZM14.6387 4.4375H33.4785C34.3098 4.4375 34.9805 5.12108 34.9805 5.96875V41.9082C34.9805 42.7559 34.3098 43.4375 33.4785 43.4375H14.6387C13.8074 43.4375 13.1387 42.7559 13.1387 41.9082V5.96875C13.1387 5.12108 13.8074 4.4375 14.6387 4.4375ZM21.3594 10.248C20.4757 10.2481 19.7598 10.964 19.7598 11.8477C19.7598 12.7313 20.4757 13.4473 21.3594 13.4473C22.243 13.4473 22.9589 12.7313 22.959 11.8477C22.9589 10.964 22.243 10.2481 21.3594 10.248ZM26.7656 10.248C25.882 10.2481 25.1661 10.964 25.166 11.8477C25.1661 12.7313 25.882 13.4473 26.7656 13.4473C27.6492 13.4473 28.3652 12.7313 28.3652 11.8477C28.3652 10.964 27.6492 10.2481 26.7656 10.248ZM21.3594 10.709C21.9886 10.7084 22.4987 11.2184 22.498 11.8477C22.4977 12.4763 21.9879 12.9849 21.3594 12.9844C20.7315 12.9839 20.223 12.4755 20.2227 11.8477C20.2221 11.2191 20.7308 10.7094 21.3594 10.709ZM26.7656 10.709C27.3949 10.7084 27.9049 11.2184 27.9043 11.8477C27.9039 12.4763 27.3942 12.9849 26.7656 12.9844C26.1377 12.9839 25.6293 12.4755 25.6289 11.8477C25.6283 11.2191 26.137 10.7094 26.7656 10.709ZM21.3594 14.3027C20.4757 14.3028 19.7598 15.0187 19.7598 15.9023C19.7598 16.786 20.4757 17.502 21.3594 17.502C22.243 17.502 22.9589 16.786 22.959 15.9023C22.9589 15.0187 22.243 14.3028 21.3594 14.3027ZM26.7656 14.3027C25.882 14.3028 25.1661 15.0187 25.166 15.9023C25.1661 16.786 25.882 17.502 26.7656 17.502C27.6492 17.502 28.3652 16.786 28.3652 15.9023C28.3652 15.0187 27.6492 14.3028 26.7656 14.3027ZM21.3594 14.7637C21.9886 14.7631 22.4987 15.273 22.498 15.9023C22.4977 16.531 21.9879 17.0396 21.3594 17.0391C20.7315 17.0386 20.223 16.5302 20.2227 15.9023C20.2221 15.2738 20.7308 14.7641 21.3594 14.7637ZM26.7656 14.7637C27.3949 14.7631 27.9049 15.273 27.9043 15.9023C27.9039 16.531 27.3942 17.0396 26.7656 17.0391C26.1377 17.0386 25.6293 16.5302 25.6289 15.9023C25.6283 15.2738 26.137 14.7641 26.7656 14.7637ZM13.6582 23.8242C13.5962 23.8247 13.5465 23.8751 13.5469 23.9375C13.5474 23.9987 13.5966 24.05 13.6582 24.0508C13.7202 24.0513 13.7707 23.9999 13.7715 23.9375C13.7721 23.8748 13.7209 23.8238 13.6582 23.8242ZM14.2207 23.8242C14.1587 23.8247 14.109 23.8751 14.1094 23.9375C14.1099 23.9987 14.1591 24.0504 14.2207 24.0508C14.2819 24.0503 14.3332 23.9987 14.334 23.9375C14.3346 23.9299 14.3346 23.9255 14.334 23.918C14.3264 23.8635 14.2759 23.8238 14.2207 23.8242ZM14.7832 23.8242C14.7205 23.8236 14.6715 23.8748 14.6719 23.9375C14.6724 23.9995 14.7212 24.0515 14.7832 24.0508C14.8444 24.0503 14.8957 23.9987 14.8965 23.9375C14.8971 23.9299 14.8971 23.9255 14.8965 23.918C14.8889 23.8635 14.8384 23.8238 14.7832 23.8242ZM15.3457 23.8242C15.283 23.8236 15.234 23.8748 15.2344 23.9375C15.2349 23.9995 15.2837 24.0515 15.3457 24.0508C15.4069 24.0503 15.4582 23.9987 15.459 23.9375C15.4591 23.9349 15.4591 23.9352 15.459 23.9297C15.4554 23.8707 15.405 23.8246 15.3457 23.8242ZM15.9082 23.8242C15.8455 23.8236 15.7965 23.8748 15.7969 23.9375C15.7974 23.9995 15.8462 24.0515 15.9082 24.0508C15.9694 24.0503 16.0188 23.9987 16.0195 23.9375C16.0196 23.9349 16.0196 23.9352 16.0195 23.9297C16.0159 23.8707 15.9675 23.8246 15.9082 23.8242ZM16.4707 23.8242C16.408 23.8236 16.359 23.8748 16.3594 23.9375C16.3599 23.9995 16.4087 24.0515 16.4707 24.0508C16.5319 24.0503 16.5832 23.9987 16.584 23.9375C16.5841 23.9349 16.5841 23.9352 16.584 23.9297C16.5804 23.8707 16.53 23.8246 16.4707 23.8242ZM17.0312 23.8242C16.9693 23.8247 16.9195 23.8751 16.9199 23.9375C16.9204 23.9987 16.9696 24.0504 17.0312 24.0508C17.0932 24.0514 17.1438 23.9995 17.1445 23.9375C17.1446 23.9349 17.1446 23.9352 17.1445 23.9297C17.1409 23.87 17.0913 23.8235 17.0312 23.8242ZM17.5937 23.8242C17.5318 23.8247 17.482 23.8751 17.4824 23.9375C17.4829 23.9987 17.5321 24.0504 17.5937 24.0508C17.6557 24.0514 17.7063 23.9995 17.707 23.9375C17.7071 23.9349 17.7071 23.9352 17.707 23.9297C17.7034 23.87 17.6538 23.8235 17.5937 23.8242ZM18.1562 23.8242C18.0943 23.8247 18.0445 23.8751 18.0449 23.9375C18.0454 23.9987 18.0946 24.0504 18.1562 24.0508C18.2182 24.0514 18.2688 23.9995 18.2695 23.9375C18.2696 23.9349 18.2696 23.9352 18.2695 23.9297C18.2659 23.87 18.2163 23.8235 18.1562 23.8242ZM18.7187 23.8242C18.6568 23.8247 18.6067 23.8751 18.6074 23.9375C18.6079 23.9987 18.6575 24.0504 18.7187 24.0508C18.78 24.0503 18.8313 23.9987 18.832 23.9375C18.8326 23.9299 18.8326 23.9255 18.832 23.918C18.8244 23.8635 18.7739 23.8238 18.7187 23.8242ZM19.2812 23.8242C19.2185 23.8236 19.1695 23.8748 19.1699 23.9375C19.1704 23.9995 19.2193 24.0515 19.2812 24.0508C19.3425 24.0503 19.3938 23.9987 19.3945 23.9375C19.3946 23.9349 19.3946 23.9352 19.3945 23.9297C19.3909 23.8707 19.3406 23.8246 19.2812 23.8242ZM19.8437 23.8242C19.781 23.8236 19.732 23.8748 19.7324 23.9375C19.7329 23.9995 19.7818 24.0515 19.8437 24.0508C19.905 24.0503 19.9563 23.9987 19.957 23.9375C19.9571 23.9349 19.9571 23.9352 19.957 23.9297C19.9534 23.8707 19.9031 23.8246 19.8437 23.8242ZM20.4062 23.8242C20.3435 23.8236 20.2945 23.8748 20.2949 23.9375C20.2954 23.9995 20.3443 24.0515 20.4062 24.0508C20.4675 24.0503 20.5188 23.9987 20.5195 23.9375C20.5196 23.9349 20.5196 23.9352 20.5195 23.9297C20.5159 23.8707 20.4656 23.8246 20.4062 23.8242ZM20.9687 23.8242C20.906 23.8236 20.857 23.8748 20.8574 23.9375C20.8579 23.9995 20.9068 24.0515 20.9687 24.0508C21.03 24.0503 21.0813 23.9987 21.082 23.9375C21.0821 23.9349 21.0821 23.9352 21.082 23.9297C21.0784 23.8707 21.0281 23.8246 20.9687 23.8242ZM21.5293 23.8242C21.4673 23.8247 21.4176 23.8751 21.418 23.9375C21.4185 23.9987 21.4677 24.0504 21.5293 24.0508C21.5913 24.0514 21.6418 23.9995 21.6426 23.9375C21.6427 23.9349 21.6427 23.9352 21.6426 23.9297C21.639 23.87 21.5894 23.8235 21.5293 23.8242ZM22.0918 23.8242C22.0298 23.8247 21.9801 23.8751 21.9805 23.9375C21.981 23.9987 22.0302 24.0504 22.0918 24.0508C22.1538 24.0514 22.2043 23.9995 22.2051 23.9375C22.2052 23.9349 22.2052 23.9352 22.2051 23.9297C22.2015 23.87 22.1519 23.8235 22.0918 23.8242ZM22.6543 23.8242C22.5923 23.8247 22.5445 23.8751 22.5449 23.9375C22.5454 23.9987 22.5927 24.05 22.6543 24.0508C22.7163 24.0513 22.7668 23.9999 22.7676 23.9375C22.7682 23.8748 22.717 23.8238 22.6543 23.8242ZM23.2168 23.8242C23.1548 23.8247 23.1051 23.8751 23.1055 23.9375C23.106 23.9987 23.1552 24.0504 23.2168 24.0508C23.278 24.0503 23.3297 23.9987 23.3301 23.9375C23.3306 23.9299 23.3306 23.9255 23.3301 23.918C23.3225 23.8635 23.2716 23.8238 23.2168 23.8242ZM23.7793 23.8242C23.7166 23.8236 23.6656 23.8748 23.666 23.9375C23.6665 23.9995 23.7173 24.0515 23.7793 24.0508C23.8405 24.0503 23.8918 23.9987 23.8926 23.9375C23.8931 23.9299 23.8931 23.9255 23.8926 23.918C23.885 23.8635 23.8345 23.8238 23.7793 23.8242ZM24.3418 23.8242C24.2791 23.8236 24.2281 23.8748 24.2285 23.9375C24.229 23.9995 24.2798 24.0515 24.3418 24.0508C24.403 24.0503 24.4543 23.9987 24.4551 23.9375C24.4552 23.9349 24.4552 23.9352 24.4551 23.9297C24.4515 23.8707 24.4011 23.8246 24.3418 23.8242ZM24.9043 23.8242C24.8416 23.8236 24.7926 23.8748 24.793 23.9375C24.7935 23.9995 24.8423 24.0515 24.9043 24.0508C24.9655 24.0503 25.0168 23.9987 25.0176 23.9375C25.0177 23.9349 25.0177 23.9352 25.0176 23.9297C25.014 23.8707 24.9636 23.8246 24.9043 23.8242ZM25.4648 23.8242C25.4029 23.8247 25.3528 23.8751 25.3535 23.9375C25.354 23.9987 25.4036 24.0504 25.4648 24.0508C25.5268 24.0514 25.5793 23.9995 25.5801 23.9375C25.5802 23.9349 25.5802 23.9352 25.5801 23.9297C25.5765 23.87 25.5249 23.8235 25.4648 23.8242ZM26.0273 23.8242C25.9654 23.8247 25.9156 23.8751 25.916 23.9375C25.9165 23.9987 25.9657 24.0504 26.0273 24.0508C26.0893 24.0514 26.1418 23.9995 26.1426 23.9375C26.1427 23.9349 26.1427 23.9352 26.1426 23.9297C26.139 23.87 26.0874 23.8235 26.0273 23.8242ZM26.5898 23.8242C26.5279 23.8247 26.4781 23.8751 26.4785 23.9375C26.479 23.9987 26.5282 24.0504 26.5898 24.0508C26.6518 24.0514 26.7043 23.9995 26.7051 23.9375C26.7052 23.9349 26.7052 23.9352 26.7051 23.9297C26.7015 23.87 26.6499 23.8235 26.5898 23.8242ZM27.1523 23.8242C27.0904 23.8247 27.0406 23.8751 27.041 23.9375C27.0415 23.9987 27.0907 24.05 27.1523 24.0508C27.2143 24.0513 27.2668 23.9999 27.2676 23.9375C27.2682 23.8748 27.2151 23.8238 27.1523 23.8242ZM27.7148 23.8242C27.6529 23.8247 27.6028 23.8751 27.6035 23.9375C27.604 23.9987 27.6536 24.0504 27.7148 24.0508C27.7761 24.0503 27.8274 23.9987 27.8281 23.9375C27.8287 23.9299 27.8287 23.9255 27.8281 23.918C27.8205 23.8635 27.77 23.8238 27.7148 23.8242ZM28.2773 23.8242C28.2146 23.8236 28.1637 23.8748 28.1641 23.9375C28.1646 23.9995 28.2154 24.0515 28.2773 24.0508C28.3386 24.0503 28.3899 23.9987 28.3906 23.9375C28.3907 23.9349 28.3907 23.9352 28.3906 23.9297C28.387 23.8707 28.3367 23.8246 28.2773 23.8242ZM28.8398 23.8242C28.7771 23.8236 28.7262 23.8748 28.7266 23.9375C28.7271 23.9995 28.7779 24.0515 28.8398 24.0508C28.9011 24.0503 28.9524 23.9987 28.9531 23.9375C28.9532 23.9349 28.9532 23.9352 28.9531 23.9297C28.9495 23.8707 28.8992 23.8246 28.8398 23.8242ZM29.4023 23.8242C29.3396 23.8236 29.2906 23.8748 29.291 23.9375C29.2915 23.9995 29.3404 24.0515 29.4023 24.0508C29.4636 24.0503 29.5149 23.9987 29.5156 23.9375C29.5157 23.9349 29.5157 23.9352 29.5156 23.9297C29.512 23.8707 29.4617 23.8246 29.4023 23.8242ZM29.9629 23.8242C29.9009 23.8247 29.8512 23.8751 29.8516 23.9375C29.8521 23.9987 29.9013 24.0504 29.9629 24.0508C30.0249 24.0514 30.0754 23.9995 30.0762 23.9375C30.0763 23.9349 30.0763 23.9352 30.0762 23.9297C30.0726 23.87 30.023 23.8235 29.9629 23.8242ZM30.5254 23.8242C30.4634 23.8247 30.4156 23.8751 30.416 23.9375C30.4165 23.9987 30.4638 24.0504 30.5254 24.0508C30.5874 24.0514 30.6399 23.9995 30.6406 23.9375C30.6407 23.9349 30.6407 23.9352 30.6406 23.9297C30.637 23.87 30.5855 23.8235 30.5254 23.8242ZM31.0879 23.8242C31.0259 23.8247 30.9762 23.8751 30.9766 23.9375C30.9771 23.9987 31.0263 24.0504 31.0879 24.0508C31.1499 24.0514 31.2004 23.9995 31.2012 23.9375C31.2012 23.9349 31.2012 23.9352 31.2012 23.9297C31.1976 23.87 31.148 23.8235 31.0879 23.8242ZM31.6504 23.8242C31.5884 23.8247 31.5403 23.8751 31.541 23.9375C31.5415 23.9987 31.5892 24.0504 31.6504 24.0508C31.7116 24.0503 31.7629 23.9987 31.7637 23.9375C31.7642 23.9299 31.7642 23.9255 31.7637 23.918C31.7561 23.8635 31.7056 23.8238 31.6504 23.8242ZM32.2129 23.8242C32.1501 23.8236 32.1012 23.8748 32.1016 23.9375C32.1021 23.9995 32.1509 24.0515 32.2129 24.0508C32.2741 24.0503 32.3254 23.9987 32.3262 23.9375C32.3267 23.9299 32.3267 23.9255 32.3262 23.918C32.3186 23.8635 32.2681 23.8238 32.2129 23.8242ZM32.7754 23.8242C32.7126 23.8236 32.6637 23.8748 32.6641 23.9375C32.6646 23.9995 32.7134 24.0515 32.7754 24.0508C32.8366 24.0503 32.8879 23.9987 32.8887 23.9375C32.8887 23.9349 32.8887 23.9352 32.8887 23.9297C32.8851 23.8707 32.8347 23.8246 32.7754 23.8242ZM33.3379 23.8242C33.2751 23.8236 33.2242 23.8748 33.2246 23.9375C33.2251 23.9995 33.2759 24.0515 33.3379 24.0508C33.3991 24.0503 33.4508 23.9987 33.4512 23.9375C33.4513 23.9349 33.4513 23.9352 33.4512 23.9297C33.4476 23.8707 33.3968 23.8246 33.3379 23.8242ZM33.9004 23.8242C33.8376 23.8236 33.7867 23.8748 33.7871 23.9375C33.7876 23.9995 33.8384 24.0515 33.9004 24.0508C33.9616 24.0503 34.0133 23.9987 34.0137 23.9375C34.0138 23.9349 34.0138 23.9352 34.0137 23.9297C34.0101 23.8707 33.9593 23.8246 33.9004 23.8242ZM34.4609 23.8242C34.399 23.8247 34.3512 23.8751 34.3516 23.9375C34.3521 23.9987 34.3993 24.0504 34.4609 24.0508C34.5229 24.0514 34.5754 23.9995 34.5762 23.9375C34.5762 23.9349 34.5762 23.9352 34.5762 23.9297C34.5726 23.87 34.521 23.8235 34.4609 23.8242ZM21.3594 30.373C20.4757 30.3731 19.7598 31.089 19.7598 31.9727C19.7598 32.8563 20.4757 33.5723 21.3594 33.5723C22.243 33.5723 22.9589 32.8563 22.959 31.9727C22.9589 31.089 22.243 30.3731 21.3594 30.373ZM26.7656 30.373C25.882 30.3731 25.1661 31.089 25.166 31.9727C25.1661 32.8563 25.882 33.5723 26.7656 33.5723C27.6492 33.5723 28.3652 32.8563 28.3652 31.9727C28.3652 31.089 27.6492 30.3731 26.7656 30.373ZM21.3594 30.834C21.9886 30.8334 22.4987 31.3434 22.498 31.9727C22.4977 32.6013 21.9879 33.1099 21.3594 33.1094C20.7315 33.1089 20.223 32.6005 20.2227 31.9727C20.2221 31.3441 20.7308 30.8344 21.3594 30.834ZM26.7656 30.834C27.3949 30.8334 27.9049 31.3434 27.9043 31.9727C27.9039 32.6013 27.3942 33.1099 26.7656 33.1094C26.1377 33.1089 25.6293 32.6005 25.6289 31.9727C25.6283 31.3441 26.137 30.8344 26.7656 30.834ZM21.3594 34.4277C20.4757 34.4278 19.7598 35.1437 19.7598 36.0273C19.7598 36.911 20.4757 37.6269 21.3594 37.6269C22.243 37.6269 22.9589 36.911 22.959 36.0273C22.9589 35.1437 22.243 34.4278 21.3594 34.4277ZM26.7656 34.4277C25.882 34.4278 25.1661 35.1437 25.166 36.0273C25.1661 36.911 25.882 37.6269 26.7656 37.6269C27.6492 37.6269 28.3652 36.911 28.3652 36.0273C28.3652 35.1437 27.6492 34.4278 26.7656 34.4277ZM21.3594 34.8887C21.9886 34.8881 22.4987 35.398 22.498 36.0273C22.4977 36.6559 21.9879 37.1646 21.3594 37.1641C20.7315 37.1636 20.223 36.6552 20.2227 36.0273C20.2221 35.3988 20.7308 34.8891 21.3594 34.8887ZM26.7656 34.8887C27.3949 34.8881 27.9049 35.398 27.9043 36.0273C27.9039 36.6559 27.3942 37.1646 26.7656 37.1641C26.1377 37.1636 25.6293 36.6552 25.6289 36.0273C25.6283 35.3988 26.137 34.8891 26.7656 34.8887Z" fill="#333333"/>
</svg>
