<svg width="48" height="48" viewBox="0 0 48 48" fill="none" xmlns="http://www.w3.org/2000/svg">
<path d="M23.998 4.09181C20.7303 4.10267 17.4631 4.12502 14.1465 4.12502C13.277 4.12502 12.5801 4.82393 12.5801 5.69337V42.5547C12.5801 43.4241 13.277 44.125 14.1465 44.125H33.8516C34.721 44.125 35.4199 43.4241 35.4199 42.5547V5.69337C35.4199 4.82393 34.721 4.12502 33.8516 4.12502C30.5339 4.08158 27.2658 4.08095 23.998 4.09181ZM23.9922 4.62697C23.996 4.62689 23.9974 4.62689 24 4.62697C24.0612 4.62772 24.1109 4.67707 24.1113 4.7383C24.1121 4.80028 24.062 4.85109 24 4.85158C23.9373 4.85196 23.8861 4.80104 23.8867 4.7383C23.8871 4.67896 23.9332 4.63052 23.9922 4.62697ZM23.9922 5.18947C23.996 5.18939 23.9974 5.18939 24 5.18947C24.0612 5.19022 24.1109 5.23957 24.1113 5.3008C24.1121 5.36278 24.062 5.41359 24 5.41408C23.9373 5.41446 23.8861 5.36354 23.8867 5.3008C23.8871 5.24184 23.9332 5.19302 23.9922 5.18947ZM23.9824 5.75197H23.9844C23.9919 5.7514 23.9924 5.7514 24 5.75197C24.0612 5.75272 24.1109 5.80207 24.1113 5.8633C24.1109 5.9249 24.0612 5.97413 24 5.97462C23.9376 5.975 23.8872 5.92528 23.8867 5.8633C23.8863 5.80812 23.928 5.75953 23.9824 5.75197ZM29.2148 6.21291C30.0985 6.21294 30.8144 6.9289 30.8145 7.81251C30.8144 8.69617 30.0985 9.41212 29.2148 9.41212C28.3312 9.41212 27.6153 8.69617 27.6152 7.81251C27.6153 6.9289 28.3312 6.21294 29.2148 6.21291ZM18.7852 6.30275C19.6688 6.30279 20.3847 7.01874 20.3848 7.90236C20.3847 8.78601 19.6688 9.50197 18.7852 9.50197C17.9015 9.50197 17.1856 8.78601 17.1855 7.90236C17.1856 7.01874 17.9015 6.30279 18.7852 6.30275ZM24.002 6.31251C24.0643 6.31327 24.1138 6.36381 24.1133 6.4258C24.1125 6.4874 24.0632 6.53663 24.002 6.53712C23.9396 6.53788 23.8892 6.48778 23.8887 6.4258C23.8883 6.36306 23.9392 6.31191 24.002 6.31251ZM23.9922 6.87501C23.996 6.8749 23.9974 6.8749 24 6.87501C24.062 6.87577 24.112 6.92631 24.1113 6.9883C24.1109 7.04952 24.0612 7.09913 24 7.09962C23.9376 7.1 23.8872 7.05028 23.8867 6.9883C23.886 6.9282 23.9325 6.8786 23.9922 6.87501ZM23.9922 7.43556C23.996 7.43549 23.9974 7.43549 24 7.43556C24.062 7.43632 24.112 7.48686 24.1113 7.54884C24.1109 7.61045 24.0612 7.65972 24 7.66017C23.9376 7.66055 23.8873 7.61083 23.8867 7.54884C23.886 7.48875 23.9325 7.43919 23.9922 7.43556ZM23.9922 7.99806C23.996 7.99799 23.9974 7.99799 24 7.99806C24.062 7.99882 24.112 8.04936 24.1113 8.11134C24.1109 8.17295 24.0612 8.22218 24 8.22267C23.9376 8.22305 23.8873 8.17333 23.8867 8.11134C23.886 8.05125 23.9325 8.00165 23.9922 7.99806ZM23.9922 8.56056C23.996 8.56049 23.9974 8.56049 24 8.56056C24.0612 8.56132 24.1109 8.61066 24.1113 8.67189C24.1121 8.73387 24.062 8.78468 24 8.78517C23.9373 8.78555 23.8862 8.73463 23.8867 8.67189C23.8871 8.61293 23.9332 8.56411 23.9922 8.56056ZM23.9922 9.12306C23.996 9.12295 23.9974 9.12295 24 9.12306C24.0612 9.12382 24.1109 9.17316 24.1113 9.23439C24.1121 9.29637 24.062 9.34718 24 9.34767C23.9373 9.34805 23.8862 9.29713 23.8867 9.23439C23.8871 9.17505 23.9332 9.12661 23.9922 9.12306ZM23.9805 9.68556H23.9844C23.9919 9.68499 23.9924 9.68499 24 9.68556C24.0612 9.68632 24.1109 9.73761 24.1113 9.79884C24.1121 9.86083 24.062 9.91163 24 9.91212C23.9373 9.9125 23.8862 9.86158 23.8867 9.79884C23.8863 9.74366 23.926 9.69312 23.9805 9.68556ZM24.002 10.2461C24.0643 10.2469 24.1138 10.2994 24.1133 10.3613C24.1125 10.4229 24.0632 10.4702 24.002 10.4707C23.9396 10.4711 23.8892 10.4233 23.8887 10.3613C23.8883 10.2986 23.9392 10.2455 24.002 10.2461ZM24.002 10.8086C24.0643 10.8094 24.1138 10.8599 24.1133 10.9219C24.1125 10.9831 24.0632 11.0328 24.002 11.0332C23.9396 11.0344 23.8892 10.9839 23.8887 10.9219C23.8883 10.8591 23.9392 10.808 24.002 10.8086ZM23.9922 11.3711C23.996 11.371 23.9974 11.371 24 11.3711C24.062 11.3719 24.1119 11.4224 24.1113 11.4844C24.1109 11.5456 24.0612 11.5972 24 11.5977C23.9376 11.5984 23.8872 11.5464 23.8867 11.4844C23.886 11.4243 23.9325 11.3747 23.9922 11.3711ZM29.2148 11.627C30.0985 11.627 30.8144 12.343 30.8145 13.2266C30.8144 14.1102 30.0985 14.8262 29.2148 14.8262C28.3312 14.8262 27.6153 14.1102 27.6152 13.2266C27.6153 12.343 28.3312 11.627 29.2148 11.627ZM18.7852 11.7168C19.6688 11.7168 20.3847 12.4328 20.3848 13.3164C20.3847 14.2001 19.6688 14.916 18.7852 14.916C17.9015 14.916 17.1856 14.2001 17.1855 13.3164C17.1856 12.4328 17.9015 11.7168 18.7852 11.7168ZM23.9922 11.9336C23.996 11.9335 23.9974 11.9335 24 11.9336C24.062 11.934 24.1119 11.9849 24.1113 12.0469C24.1109 12.1081 24.0612 12.1597 24 12.1602C23.9376 12.1609 23.8872 12.1089 23.8867 12.0469C23.886 11.9868 23.9325 11.9372 23.9922 11.9336ZM23.9922 12.4961C23.996 12.496 23.9974 12.496 24 12.4961C24.0612 12.4969 24.1109 12.5462 24.1113 12.6074C24.1121 12.6694 24.062 12.7202 24 12.7207C23.9373 12.7211 23.8861 12.6702 23.8867 12.6074C23.8871 12.5481 23.9332 12.4997 23.9922 12.4961ZM23.9922 13.0586C23.996 13.0585 23.9974 13.0585 24 13.0586C24.0612 13.0594 24.1109 13.1087 24.1113 13.1699C24.1121 13.2319 24.062 13.2827 24 13.2832C23.9373 13.2836 23.8861 13.2327 23.8867 13.1699C23.8871 13.111 23.9332 13.0622 23.9922 13.0586ZM23.9922 13.6211C23.996 13.621 23.9974 13.621 24 13.6211C24.0612 13.6215 24.1109 13.6712 24.1113 13.7324C24.1121 13.7944 24.062 13.8453 24 13.8457C23.9373 13.8461 23.8861 13.7952 23.8867 13.7324C23.8871 13.6735 23.9332 13.6247 23.9922 13.6211ZM23.9805 14.1836H23.9844C23.9919 14.183 23.9924 14.183 24 14.1836C24.0612 14.184 24.1109 14.2337 24.1113 14.2949C24.1121 14.3569 24.062 14.4077 24 14.4082C23.9373 14.4086 23.8861 14.3577 23.8867 14.2949C23.8863 14.2401 23.926 14.1912 23.9805 14.1836ZM23.9805 14.7461H23.9824C23.99 14.7455 23.9924 14.7455 24 14.7461C24.0612 14.7469 24.1109 14.7962 24.1113 14.8574C24.1109 14.9187 24.0612 14.9683 24 14.9688C23.9376 14.9691 23.8872 14.9194 23.8867 14.8574C23.8863 14.8023 23.926 14.7537 23.9805 14.7461ZM24.002 15.3067C24.0643 15.3074 24.1138 15.358 24.1133 15.4199C24.1125 15.4812 24.0632 15.5308 24.002 15.5313C23.9396 15.532 23.8892 15.4819 23.8887 15.4199C23.8883 15.3572 23.9392 15.3061 24.002 15.3067ZM23.9922 15.8692C23.996 15.8691 23.9974 15.8691 24 15.8692C24.062 15.8699 24.1119 15.9205 24.1113 15.9824C24.1109 16.0437 24.0612 16.0933 24 16.0938C23.9376 16.0945 23.8872 16.0444 23.8867 15.9824C23.886 15.9223 23.9325 15.8728 23.9922 15.8692ZM23.9922 16.4317C23.996 16.4316 23.9974 16.4316 24 16.4317C24.062 16.4324 24.1119 16.483 24.1113 16.5449C24.1109 16.6065 24.0612 16.6558 24 16.6563C23.9376 16.6566 23.8872 16.6069 23.8867 16.5449C23.886 16.4848 23.9325 16.4353 23.9922 16.4317ZM23.9922 16.9942C23.996 16.9941 23.9974 16.9941 24 16.9942C24.0612 16.9942 24.1109 17.0443 24.1113 17.1055C24.1121 17.1675 24.062 17.2183 24 17.2188C23.9373 17.2191 23.8861 17.1682 23.8867 17.1055C23.8871 17.0465 23.9332 16.9978 23.9922 16.9942ZM29.2148 17.0391C30.0985 17.0391 30.8144 17.7551 30.8145 18.6387C30.8144 19.5223 30.0985 20.2383 29.2148 20.2383C28.3312 20.2383 27.6153 19.5223 27.6152 18.6387C27.6153 17.7551 28.3312 17.0391 29.2148 17.0391ZM18.7852 17.1289C19.6688 17.129 20.3847 17.8449 20.3848 18.7285C20.3847 19.6122 19.6688 20.3281 18.7852 20.3281C17.9015 20.3281 17.1856 19.6122 17.1855 18.7285C17.1856 17.8449 17.9015 17.129 18.7852 17.1289ZM23.9922 17.5567C23.996 17.5565 23.9974 17.5565 24 17.5567C24.0612 17.557 24.1109 17.6068 24.1113 17.668C24.1121 17.73 24.062 17.7808 24 17.7813C23.9373 17.7816 23.8861 17.7307 23.8867 17.668C23.8871 17.609 23.9332 17.5603 23.9922 17.5567ZM23.9922 18.1192C23.996 18.119 23.9974 18.119 24 18.1192C24.0612 18.1195 24.1109 18.1693 24.1113 18.2305C24.1121 18.2925 24.062 18.3433 24 18.3438C23.9373 18.3441 23.8861 18.2932 23.8867 18.2305C23.8871 18.1715 23.9332 18.1228 23.9922 18.1192ZM23.9805 18.6817H23.9824C23.99 18.6811 23.9924 18.6811 24 18.6817C24.0612 18.6824 24.1109 18.7318 24.1113 18.793C24.1121 18.855 24.062 18.9058 24 18.9063C23.9373 18.9066 23.8861 18.8557 23.8867 18.793C23.8863 18.7378 23.926 18.6893 23.9805 18.6817ZM24.002 19.2422C24.0643 19.243 24.1138 19.2935 24.1133 19.3555C24.1125 19.4167 24.0632 19.4664 24.002 19.4668C23.9396 19.4676 23.8892 19.4175 23.8887 19.3555C23.8883 19.2927 23.9392 19.2416 24.002 19.2422ZM23.9922 19.8047C23.996 19.8046 23.9974 19.8046 24 19.8047C24.062 19.8051 24.1119 19.856 24.1113 19.918C24.1109 19.9792 24.0612 20.0288 24 20.0293C23.9376 20.0301 23.8872 19.98 23.8867 19.918C23.886 19.8579 23.9325 19.8083 23.9922 19.8047ZM23.9922 20.3672C23.996 20.3671 23.9974 20.3671 24 20.3672C24.062 20.368 24.1119 20.4185 24.1113 20.4805C24.1109 20.5421 24.0612 20.5913 24 20.5918C23.9376 20.5922 23.8872 20.5425 23.8867 20.4805C23.886 20.4204 23.9325 20.3708 23.9922 20.3672ZM23.9922 20.9297C23.996 20.9296 23.9974 20.9296 24 20.9297C24.062 20.9305 24.1119 20.981 24.1113 21.043C24.1109 21.1046 24.0612 21.1538 24 21.1543C23.9376 21.1551 23.8872 21.105 23.8867 21.043C23.886 20.9829 23.9325 20.9333 23.9922 20.9297ZM23.9922 21.4922C23.996 21.4921 23.9974 21.4921 24 21.4922C24.0612 21.4926 24.1109 21.5423 24.1113 21.6035C24.1121 21.6655 24.062 21.7163 24 21.7168C23.9373 21.7172 23.8861 21.6663 23.8867 21.6035C23.8871 21.5446 23.9332 21.4958 23.9922 21.4922ZM23.9922 22.0547C23.996 22.0546 23.9974 22.0546 24 22.0547C24.0612 22.0551 24.1109 22.1048 24.1113 22.166C24.1121 22.228 24.062 22.2788 24 22.2793C23.9373 22.2797 23.8861 22.2288 23.8867 22.166C23.8871 22.1071 23.9332 22.0583 23.9922 22.0547ZM29.2148 22.4512C30.0985 22.4512 30.8144 23.1672 30.8145 24.0508C30.8144 24.9344 30.0985 25.6504 29.2148 25.6504C28.3312 25.6504 27.6153 24.9344 27.6152 24.0508C27.6153 23.1672 28.3312 22.4512 29.2148 22.4512ZM18.7852 22.541C19.6688 22.5411 20.3847 23.257 20.3848 24.1406C20.3847 25.0243 19.6688 25.7402 18.7852 25.7402C17.9015 25.7402 17.1856 25.0243 17.1855 24.1406C17.1856 23.257 17.9015 22.5411 18.7852 22.541ZM23.9922 22.6172C23.996 22.6171 23.9974 22.6171 24 22.6172C24.0612 22.618 24.1109 22.6673 24.1113 22.7285C24.1121 22.7905 24.062 22.8413 24 22.8418C23.9373 22.8422 23.8861 22.7913 23.8867 22.7285C23.8871 22.6692 23.9332 22.6208 23.9922 22.6172ZM23.9805 23.1797H23.9824C23.99 23.1791 23.9924 23.1791 24 23.1797C24.0612 23.1805 24.1109 23.2298 24.1113 23.291C24.1121 23.353 24.062 23.4038 24 23.4043C23.9373 23.4047 23.8861 23.3538 23.8867 23.291C23.8863 23.2362 23.926 23.1873 23.9805 23.1797ZM23.9805 23.7422H23.9824C23.99 23.7416 23.9924 23.7416 24 23.7422C24.0612 23.743 24.1109 23.7923 24.1113 23.8535C24.1109 23.9148 24.0612 23.9644 24 23.9649C23.9376 23.9656 23.8872 23.9155 23.8867 23.8535C23.8863 23.7984 23.926 23.7498 23.9805 23.7422ZM23.9922 24.3027C23.996 24.3027 23.9974 24.3027 24 24.3027C24.062 24.3035 24.1119 24.354 24.1113 24.416C24.1109 24.4776 24.0612 24.5269 24 24.5274C23.9376 24.5277 23.8872 24.478 23.8867 24.416C23.886 24.3559 23.9325 24.3063 23.9922 24.3027ZM23.9922 24.8652C23.996 24.8652 23.9974 24.8652 24 24.8652C24.062 24.866 24.1119 24.9165 24.1113 24.9785C24.1109 25.0401 24.0612 25.0894 24 25.0899C23.9376 25.0902 23.8872 25.0405 23.8867 24.9785C23.886 24.9184 23.9325 24.8688 23.9922 24.8652ZM23.9922 25.4277C23.996 25.4276 23.9974 25.4276 24 25.4277C24.062 25.4285 24.1119 25.479 24.1113 25.541C24.1109 25.6026 24.0612 25.6519 24 25.6524C23.9376 25.6531 23.8872 25.603 23.8867 25.541C23.886 25.4809 23.9325 25.4313 23.9922 25.4277ZM23.9922 25.9902C23.996 25.9901 23.9974 25.9901 24 25.9902C24.0612 25.991 24.1109 26.0403 24.1113 26.1016C24.1121 26.1636 24.062 26.2144 24 26.2149C23.9373 26.2152 23.8861 26.1643 23.8867 26.1016C23.8871 26.0422 23.9332 25.9938 23.9922 25.9902ZM23.9922 26.5527C23.996 26.5527 23.9974 26.5527 24 26.5527C24.0612 26.5535 24.1109 26.6028 24.1113 26.6641C24.1121 26.7261 24.062 26.7769 24 26.7774C23.9373 26.7777 23.8861 26.7268 23.8867 26.6641C23.8871 26.6047 23.9332 26.5563 23.9922 26.5527ZM23.9922 27.1152C23.996 27.1152 23.9974 27.1152 24 27.1152C24.0612 27.116 24.1109 27.1653 24.1113 27.2266C24.1121 27.2886 24.062 27.3394 24 27.3399C23.9373 27.3402 23.8861 27.2893 23.8867 27.2266C23.8871 27.1676 23.9332 27.1188 23.9922 27.1152ZM23.9805 27.6777H23.9824C23.99 27.6772 23.9924 27.6772 24 27.6777C24.0612 27.6785 24.1109 27.7278 24.1113 27.7891C24.1109 27.8503 24.0612 27.8999 24 27.9004C23.9376 27.9012 23.8872 27.8511 23.8867 27.7891C23.8863 27.7343 23.926 27.6853 23.9805 27.6777ZM29.2148 27.8633C30.0985 27.8633 30.8144 28.5793 30.8145 29.4629C30.8144 30.3466 30.0985 31.0625 29.2148 31.0625C28.3312 31.0625 27.6153 30.3466 27.6152 29.4629C27.6153 28.5793 28.3312 27.8633 29.2148 27.8633ZM18.7852 27.9531C19.6688 27.9532 20.3847 28.6691 20.3848 29.5527C20.3847 30.4364 19.6688 31.1524 18.7852 31.1524C17.9015 31.1524 17.1856 30.4364 17.1855 29.5527C17.1856 28.6691 17.9015 27.9532 18.7852 27.9531ZM24.002 28.2383C24.0643 28.2391 24.1138 28.2896 24.1133 28.3516C24.1125 28.4132 24.0632 28.4624 24.002 28.4629C23.9396 28.4633 23.8892 28.4136 23.8887 28.3516C23.8883 28.2888 23.9392 28.2377 24.002 28.2383ZM23.9922 28.8008C23.996 28.8007 23.9974 28.8007 24 28.8008C24.062 28.8016 24.1119 28.8521 24.1113 28.9141C24.1109 28.9757 24.0612 29.0249 24 29.0254C23.9376 29.0262 23.8872 28.9761 23.8867 28.9141C23.886 28.854 23.9325 28.8044 23.9922 28.8008ZM23.9922 29.3633C23.996 29.3632 23.9974 29.3632 24 29.3633C24.062 29.3641 24.1119 29.4146 24.1113 29.4766C24.1109 29.5382 24.0612 29.5874 24 29.5879C23.9376 29.5883 23.8872 29.5386 23.8867 29.4766C23.886 29.4165 23.9325 29.3669 23.9922 29.3633ZM23.9922 29.9258C23.996 29.9257 23.9974 29.9257 24 29.9258C24.062 29.9266 24.1119 29.9771 24.1113 30.0391C24.1109 30.1003 24.0612 30.15 24 30.1504C23.9376 30.1515 23.8872 30.1011 23.8867 30.0391C23.886 29.979 23.9325 29.9294 23.9922 29.9258ZM23.9922 30.4863C23.996 30.4862 23.9974 30.4862 24 30.4863C24.0612 30.4871 24.1109 30.5384 24.1113 30.5996C24.1121 30.6616 24.062 30.7124 24 30.7129C23.9373 30.7133 23.8861 30.6624 23.8867 30.5996C23.8871 30.5403 23.9332 30.4899 23.9922 30.4863ZM23.9922 31.0488C23.996 31.0488 23.9974 31.0488 24 31.0488C24.0612 31.0496 24.1109 31.0989 24.1113 31.1602C24.1121 31.2222 24.062 31.273 24 31.2735C23.9373 31.2738 23.8861 31.2229 23.8867 31.1602C23.8871 31.1012 23.9332 31.0524 23.9922 31.0488ZM23.9805 31.6113H23.9824C23.99 31.6108 23.9924 31.6108 24 31.6113C24.0612 31.6121 24.1109 31.6614 24.1113 31.7227C24.1121 31.7847 24.062 31.8355 24 31.836C23.9373 31.8363 23.8861 31.7854 23.8867 31.7227C23.8863 31.6675 23.926 31.6189 23.9805 31.6113ZM23.9805 32.1738H23.9824C23.99 32.1733 23.9924 32.1733 24 32.1738C24.0612 32.1742 24.1109 32.2239 24.1113 32.2852C24.1109 32.3468 24.0612 32.396 24 32.3965C23.9376 32.3969 23.8872 32.3471 23.8867 32.2852C23.8863 32.2304 23.926 32.1814 23.9805 32.1738ZM24.002 32.7344C24.0643 32.7351 24.1138 32.7876 24.1133 32.8496C24.1125 32.9112 24.0632 32.9585 24.002 32.959C23.9396 32.9594 23.8892 32.9116 23.8887 32.8496C23.8883 32.7869 23.9392 32.7338 24.002 32.7344ZM29.2148 33.2754C30.0985 33.2754 30.8144 33.9914 30.8145 34.875C30.8144 35.7587 30.0985 36.4746 29.2148 36.4746C28.3312 36.4746 27.6153 35.7587 27.6152 34.875C27.6153 33.9914 28.3312 33.2754 29.2148 33.2754ZM23.9922 33.2969C23.996 33.2968 23.9974 33.2968 24 33.2969C24.062 33.2976 24.1119 33.3482 24.1113 33.4102C24.1109 33.4718 24.0612 33.521 24 33.5215C23.9376 33.5223 23.8872 33.4721 23.8867 33.4102C23.886 33.3501 23.9325 33.3005 23.9922 33.2969ZM18.7852 33.3652C19.6688 33.3653 20.3847 34.0812 20.3848 34.9649C20.3847 35.8485 19.6688 36.5645 18.7852 36.5645C17.9015 36.5645 17.1856 35.8485 17.1855 34.9649C17.1856 34.0812 17.9015 33.3653 18.7852 33.3652ZM23.9922 33.8594C23.996 33.8593 23.9974 33.8593 24 33.8594C24.062 33.8601 24.1119 33.9107 24.1113 33.9727C24.1109 34.0343 24.0612 34.0835 24 34.084C23.9376 34.0844 23.8872 34.0346 23.8867 33.9727C23.886 33.9126 23.9325 33.863 23.9922 33.8594ZM23.9922 34.4219C23.996 34.4218 23.9974 34.4218 24 34.4219C24.0612 34.4226 24.1109 34.472 24.1113 34.5332C24.1121 34.5952 24.062 34.646 24 34.6465C23.9373 34.6469 23.8861 34.596 23.8867 34.5332C23.8871 34.4739 23.9332 34.4255 23.9922 34.4219ZM23.9922 34.9844C23.996 34.9843 23.9974 34.9843 24 34.9844C24.0612 34.9851 24.1109 35.0345 24.1113 35.0957C24.1121 35.1577 24.062 35.2085 24 35.209C23.9373 35.2094 23.8861 35.1585 23.8867 35.0957C23.8871 35.0368 23.9332 34.988 23.9922 34.9844ZM23.9922 35.5469C23.996 35.5468 23.9974 35.5468 24 35.5469C24.0612 35.5476 24.1109 35.597 24.1113 35.6582C24.1121 35.7202 24.062 35.771 24 35.7715C23.9373 35.7719 23.8861 35.721 23.8867 35.6582C23.8871 35.5993 23.9332 35.5505 23.9922 35.5469ZM23.9922 36.1094C23.996 36.1093 23.9974 36.1093 24 36.1094C24.0612 36.1101 24.1109 36.1595 24.1113 36.2207C24.1121 36.2827 24.062 36.3335 24 36.334C23.9373 36.3344 23.8861 36.2835 23.8867 36.2207C23.8871 36.1614 23.9332 36.113 23.9922 36.1094ZM23.9805 36.6719H23.9824C23.99 36.6713 23.9924 36.6713 24 36.6719C24.0612 36.6726 24.1109 36.722 24.1113 36.7832C24.1109 36.8444 24.0612 36.8941 24 36.8945C23.9376 36.8957 23.8872 36.8452 23.8867 36.7832C23.8863 36.728 23.926 36.6795 23.9805 36.6719ZM23.9922 37.2324C23.996 37.2324 23.9974 37.2324 24 37.2324C24.062 37.2332 24.1119 37.2837 24.1113 37.3457C24.1109 37.4073 24.0612 37.4566 24 37.457C23.9376 37.4574 23.8872 37.4077 23.8867 37.3457C23.886 37.2856 23.9325 37.236 23.9922 37.2324ZM23.9922 37.7949C23.996 37.7948 23.9974 37.7948 24 37.7949C24.062 37.7957 24.1119 37.8462 24.1113 37.9082C24.1109 37.9698 24.0612 38.0191 24 38.0195C23.9376 38.0203 23.8872 37.9702 23.8867 37.9082C23.886 37.8481 23.9325 37.7985 23.9922 37.7949ZM23.9922 38.3574C23.996 38.3573 23.9974 38.3573 24 38.3574C24.062 38.3582 24.1119 38.4087 24.1113 38.4707C24.1109 38.5323 24.0612 38.5816 24 38.582C23.9376 38.5824 23.8872 38.5327 23.8867 38.4707C23.886 38.4106 23.9325 38.361 23.9922 38.3574ZM29.2148 38.6875C30.0985 38.6876 30.8144 39.4035 30.8145 40.2871C30.8144 41.1708 30.0985 41.8867 29.2148 41.8867C28.3312 41.8867 27.6153 41.1708 27.6152 40.2871C27.6153 39.4035 28.3312 38.6876 29.2148 38.6875ZM18.7852 38.7774C19.6688 38.7774 20.3847 39.4934 20.3848 40.377C20.3847 41.2606 19.6688 41.9766 18.7852 41.9766C17.9015 41.9766 17.1856 41.2606 17.1855 40.377C17.1856 39.4934 17.9015 38.7774 18.7852 38.7774ZM23.9922 38.9199C23.996 38.9199 23.9974 38.9199 24 38.9199C24.0612 38.9207 24.1109 38.97 24.1113 39.0313C24.1121 39.0932 24.062 39.1441 24 39.1445C23.9373 39.1449 23.8861 39.094 23.8867 39.0313C23.8871 38.9719 23.9332 38.9235 23.9922 38.9199ZM23.9922 39.4824C23.996 39.4824 23.9974 39.4824 24 39.4824C24.0612 39.4832 24.1109 39.5325 24.1113 39.5938C24.1121 39.6557 24.062 39.7066 24 39.707C23.9373 39.7074 23.8861 39.6565 23.8867 39.5938C23.8871 39.5348 23.9332 39.486 23.9922 39.4824ZM23.9922 40.0449C23.996 40.0449 23.9974 40.0449 24 40.0449C24.0612 40.0457 24.1109 40.095 24.1113 40.1563C24.1121 40.2182 24.062 40.2691 24 40.2695C23.9373 40.2699 23.8861 40.219 23.8867 40.1563C23.8871 40.0973 23.9332 40.0485 23.9922 40.0449ZM23.9805 40.6074H23.9824C23.99 40.6069 23.9924 40.6069 24 40.6074C24.0612 40.6082 24.1109 40.6575 24.1113 40.7188C24.1121 40.7807 24.062 40.8316 24 40.832C23.9373 40.8324 23.8861 40.7815 23.8867 40.7188C23.8863 40.6636 23.926 40.615 23.9805 40.6074ZM23.9805 41.1699H23.9824C23.99 41.1694 23.9924 41.1694 24 41.1699C24.0612 41.1707 24.1109 41.22 24.1113 41.2813C24.1109 41.3429 24.0612 41.3921 24 41.3926C23.9376 41.3933 23.8872 41.3432 23.8867 41.2813C23.8863 41.2261 23.926 41.1775 23.9805 41.1699ZM24.002 41.7305C24.0643 41.7312 24.1138 41.7818 24.1133 41.8438C24.1125 41.9054 24.0632 41.9546 24.002 41.9551C23.9396 41.9555 23.8892 41.9057 23.8887 41.8438C23.8883 41.781 23.9392 41.7299 24.002 41.7305ZM23.9922 42.293C23.996 42.2929 23.9974 42.2929 24 42.293C24.062 42.2937 24.1119 42.3443 24.1113 42.4063C24.1109 42.4679 24.0612 42.5171 24 42.5176C23.9376 42.518 23.8872 42.4682 23.8867 42.4063C23.886 42.3462 23.9325 42.2966 23.9922 42.293Z" fill="#333333"/>
</svg>
