<svg width="48" height="48" viewBox="0 0 48 48" fill="none" xmlns="http://www.w3.org/2000/svg">
<g clip-path="url(#clip0)">
<path fill-rule="evenodd" clip-rule="evenodd" d="M-0.0878906 -0.0839844V48H47.9062V-0.0839844H-0.0878906ZM14.0566 3.95898H33.7617C34.6312 3.95898 35.3301 4.6579 35.3301 5.52734V42.3887C35.3301 43.2581 34.6312 43.959 33.7617 43.959H14.0566C13.1872 43.959 12.4883 43.2581 12.4883 42.3887V5.52734C12.4883 4.6579 13.1872 3.95898 14.0566 3.95898ZM20.7695 12.2949C19.8859 12.295 19.17 13.0109 19.1699 13.8945C19.17 14.7782 19.8859 15.4941 20.7695 15.4941C21.6532 15.4941 22.3672 14.7782 22.3672 13.8945C22.3672 13.0109 21.6532 12.295 20.7695 12.2949ZM27.0508 12.2949C26.1672 12.295 25.4512 13.0109 25.4512 13.8945C25.4512 14.7782 26.1672 15.4941 27.0508 15.4941C27.9344 15.4941 28.6484 14.7782 28.6484 13.8945C28.6484 13.0109 27.9344 12.295 27.0508 12.2949ZM14.0684 23.8457C14.0064 23.8465 13.9547 23.8966 13.9551 23.959C13.9556 24.0202 14.0067 24.0699 14.0684 24.0703C14.1296 24.0696 14.1789 24.0202 14.1797 23.959C14.1803 23.9514 14.1803 23.949 14.1797 23.9414C14.1721 23.887 14.1235 23.8473 14.0684 23.8477V23.8457ZM14.6309 23.8457C14.5681 23.8453 14.5172 23.8962 14.5176 23.959C14.5181 24.021 14.5689 24.0711 14.6309 24.0703C14.6921 24.0696 14.7414 24.0202 14.7422 23.959C14.7428 23.9514 14.7428 23.949 14.7422 23.9414C14.7346 23.887 14.686 23.8473 14.6309 23.8477V23.8457ZM15.1934 23.8457C15.1306 23.8453 15.0797 23.8982 15.0801 23.9609C15.0806 24.0229 15.1314 24.073 15.1934 24.0723C15.2546 24.0715 15.3039 24.0222 15.3047 23.9609C15.3048 23.9572 15.3048 23.9569 15.3047 23.9531C15.3011 23.8942 15.2527 23.848 15.1934 23.8477V23.8457ZM15.7559 23.8457C15.6931 23.8453 15.6422 23.8982 15.6426 23.9609C15.6431 24.0229 15.6939 24.073 15.7559 24.0723C15.8171 24.0715 15.8664 24.0222 15.8672 23.9609C15.8673 23.9572 15.8673 23.9569 15.8672 23.9531C15.8636 23.8942 15.8152 23.848 15.7559 23.8477V23.8457ZM16.3184 23.8457C16.2556 23.8453 16.2047 23.8982 16.2051 23.9609C16.2056 24.0229 16.2564 24.073 16.3184 24.0723C16.3796 24.0715 16.4289 24.0222 16.4297 23.9609C16.4298 23.9572 16.4298 23.9569 16.4297 23.9531C16.4261 23.8942 16.3777 23.848 16.3184 23.8477V23.8457ZM16.8789 23.8457C16.8169 23.8465 16.7672 23.8986 16.7676 23.9609C16.7681 24.0222 16.8173 24.0719 16.8789 24.0723C16.9409 24.0726 16.9914 24.0229 16.9922 23.9609C16.9923 23.9572 16.9923 23.9569 16.9922 23.9531C16.9886 23.8934 16.939 23.8469 16.8789 23.8477V23.8457ZM17.4414 23.8457C17.3794 23.8465 17.3297 23.8986 17.3301 23.9609C17.3306 24.0222 17.3798 24.0719 17.4414 24.0723C17.5034 24.0726 17.5539 24.0229 17.5547 23.9609C17.5548 23.9572 17.5548 23.9569 17.5547 23.9531C17.5511 23.8934 17.5015 23.8469 17.4414 23.8477V23.8457ZM18.0039 23.8457C17.9419 23.8465 17.8922 23.8986 17.8926 23.9609C17.8931 24.0222 17.9423 24.0719 18.0039 24.0723C18.0659 24.0726 18.1164 24.0229 18.1172 23.9609C18.1173 23.9572 18.1173 23.9569 18.1172 23.9531C18.1136 23.8934 18.064 23.8469 18.0039 23.8477V23.8457ZM18.5664 23.8457C18.5044 23.8465 18.4543 23.8966 18.4551 23.959C18.4556 24.0202 18.5052 24.0699 18.5664 24.0703C18.6276 24.0696 18.677 24.0202 18.6777 23.959C18.6783 23.9514 18.6783 23.949 18.6777 23.9414C18.6701 23.887 18.6216 23.8473 18.5664 23.8477V23.8457ZM19.1289 23.8457C19.0662 23.8453 19.0152 23.8982 19.0156 23.9609C19.0161 24.0229 19.0669 24.073 19.1289 24.0723C19.1901 24.0715 19.2395 24.0222 19.2402 23.9609C19.2403 23.9572 19.2403 23.9569 19.2402 23.9531C19.2366 23.8942 19.1882 23.848 19.1289 23.8477V23.8457ZM19.6914 23.8457C19.6287 23.8453 19.5777 23.8982 19.5781 23.9609C19.5786 24.0229 19.6294 24.073 19.6914 24.0723C19.7526 24.0715 19.802 24.0222 19.8027 23.9609C19.8028 23.9572 19.8028 23.9569 19.8027 23.9531C19.7991 23.8942 19.7507 23.848 19.6914 23.8477V23.8457ZM20.2539 23.8457C20.1912 23.8453 20.1402 23.8982 20.1406 23.9609C20.1411 24.0229 20.1919 24.073 20.2539 24.0723C20.3151 24.0715 20.3645 24.0222 20.3652 23.9609C20.3653 23.9572 20.3653 23.9569 20.3652 23.9531C20.3616 23.8942 20.3132 23.848 20.2539 23.8477V23.8457ZM20.8164 23.8457C20.7537 23.8453 20.7027 23.8982 20.7031 23.9609C20.7036 24.0229 20.7544 24.073 20.8164 24.0723C20.8776 24.0715 20.927 24.0222 20.9277 23.9609C20.9278 23.9572 20.9278 23.9569 20.9277 23.9531C20.9241 23.8942 20.8757 23.848 20.8164 23.8477V23.8457ZM21.377 23.8457C21.315 23.8465 21.2652 23.8986 21.2656 23.9609C21.2661 24.0222 21.3153 24.0719 21.377 24.0723C21.4389 24.0726 21.4895 24.0229 21.4902 23.9609C21.4903 23.9572 21.4903 23.9569 21.4902 23.9531C21.4866 23.8934 21.437 23.8469 21.377 23.8477V23.8457ZM21.9395 23.8457C21.8775 23.8465 21.8277 23.8986 21.8281 23.9609C21.8286 24.0222 21.8778 24.0719 21.9395 24.0723C22.0014 24.0726 22.052 24.0229 22.0527 23.9609C22.0528 23.9572 22.0528 23.9569 22.0527 23.9531C22.0491 23.8934 21.9995 23.8469 21.9395 23.8477V23.8457ZM23.0645 23.8457C23.0025 23.8465 22.9527 23.8966 22.9531 23.959C22.9536 24.0202 23.0028 24.0699 23.0645 24.0703C23.1257 24.0696 23.1754 24.0202 23.1758 23.959C23.1763 23.9514 23.1763 23.949 23.1758 23.9414C23.1682 23.887 23.1193 23.8473 23.0645 23.8477V23.8457ZM23.627 23.8457C23.5642 23.8453 23.5133 23.8962 23.5137 23.959C23.5142 24.021 23.565 24.0711 23.627 24.0703C23.6882 24.0696 23.7375 24.0202 23.7383 23.959C23.7388 23.9514 23.7388 23.949 23.7383 23.9414C23.7307 23.887 23.6821 23.8473 23.627 23.8477V23.8457ZM24.1895 23.8457C24.1267 23.8453 24.0758 23.8982 24.0762 23.9609C24.0767 24.0229 24.1275 24.073 24.1895 24.0723C24.2507 24.0715 24.3 24.0222 24.3008 23.9609C24.3009 23.9572 24.3009 23.9569 24.3008 23.9531C24.2972 23.8942 24.2488 23.848 24.1895 23.8477V23.8457ZM24.752 23.8457C24.6892 23.8453 24.6383 23.8982 24.6387 23.9609C24.6392 24.0229 24.69 24.073 24.752 24.0723C24.8132 24.0715 24.8625 24.0222 24.8633 23.9609C24.8634 23.9572 24.8634 23.9569 24.8633 23.9531C24.8597 23.8942 24.8113 23.848 24.752 23.8477V23.8457ZM25.3125 23.8457C25.2505 23.8465 25.2004 23.8986 25.2012 23.9609C25.2016 24.0222 25.2513 24.0719 25.3125 24.0723C25.3745 24.0726 25.425 24.0229 25.4258 23.9609C25.4259 23.9572 25.4259 23.9569 25.4258 23.9531C25.4222 23.8934 25.3726 23.8469 25.3125 23.8477V23.8457ZM25.875 23.8457C25.813 23.8465 25.7633 23.8986 25.7637 23.9609C25.7642 24.0222 25.8134 24.0719 25.875 24.0723C25.937 24.0726 25.9875 24.0229 25.9883 23.9609C25.9884 23.9572 25.9884 23.9569 25.9883 23.9531C25.9847 23.8934 25.9351 23.8469 25.875 23.8477V23.8457ZM26.4375 23.8457C26.3755 23.8465 26.3258 23.8986 26.3262 23.9609C26.3267 24.0222 26.3759 24.0719 26.4375 24.0723C26.4995 24.0726 26.55 24.0229 26.5508 23.9609C26.5509 23.9572 26.5509 23.9569 26.5508 23.9531C26.5472 23.8934 26.4976 23.8469 26.4375 23.8477V23.8457ZM27.5625 23.8457C27.5005 23.8465 27.4504 23.8966 27.4512 23.959C27.4517 24.0202 27.5013 24.0699 27.5625 24.0703C27.6237 24.0696 27.6731 24.0202 27.6738 23.959C27.6744 23.9514 27.6744 23.949 27.6738 23.9414C27.6662 23.887 27.6177 23.8473 27.5625 23.8477V23.8457ZM28.125 23.8457C28.0623 23.8453 28.0113 23.8982 28.0117 23.9609C28.0122 24.0229 28.063 24.073 28.125 24.0723C28.1862 24.0715 28.2356 24.0222 28.2363 23.9609C28.2364 23.9572 28.2364 23.9569 28.2363 23.9531C28.2327 23.8942 28.1843 23.848 28.125 23.8477V23.8457ZM28.6875 23.8457C28.6248 23.8453 28.5738 23.8982 28.5742 23.9609C28.5747 24.0229 28.6255 24.073 28.6875 24.0723C28.7487 24.0715 28.7981 24.0222 28.7988 23.9609C28.7989 23.9572 28.7989 23.9569 28.7988 23.9531C28.7952 23.8942 28.7468 23.848 28.6875 23.8477V23.8457ZM29.25 23.8457C29.1873 23.8453 29.1363 23.8982 29.1367 23.9609C29.1372 24.0229 29.188 24.073 29.25 24.0723C29.3112 24.0715 29.3606 24.0222 29.3613 23.9609C29.3614 23.9572 29.3614 23.9569 29.3613 23.9531C29.3577 23.8942 29.3093 23.848 29.25 23.8477V23.8457ZM29.8105 23.8457C29.7486 23.8465 29.6988 23.8986 29.6992 23.9609C29.6997 24.0222 29.7489 24.0719 29.8105 24.0723C29.8725 24.0726 29.9231 24.0229 29.9238 23.9609C29.9239 23.9572 29.9239 23.9569 29.9238 23.9531C29.9202 23.8934 29.8706 23.8469 29.8105 23.8477V23.8457ZM30.373 23.8457C30.3111 23.8465 30.2613 23.8986 30.2617 23.9609C30.2622 24.0222 30.3114 24.0719 30.373 24.0723C30.435 24.0726 30.4856 24.0229 30.4863 23.9609C30.4864 23.9572 30.4864 23.9569 30.4863 23.9531C30.4827 23.8934 30.4331 23.8469 30.373 23.8477V23.8457ZM30.9355 23.8457C30.8736 23.8465 30.8238 23.8986 30.8242 23.9609C30.8247 24.0222 30.8739 24.0719 30.9355 24.0723C30.9975 24.0726 31.0481 24.0229 31.0488 23.9609C31.0489 23.9572 31.0489 23.9569 31.0488 23.9531C31.0452 23.8934 30.9956 23.8469 30.9355 23.8477V23.8457ZM31.498 23.8457C31.4361 23.8465 31.386 23.8966 31.3867 23.959C31.3872 24.0202 31.4368 24.0699 31.498 24.0703C31.5593 24.0696 31.6086 24.0202 31.6094 23.959C31.6099 23.9514 31.6099 23.949 31.6094 23.9414C31.6018 23.887 31.5532 23.8473 31.498 23.8477V23.8457ZM32.0605 23.8457C31.9978 23.8453 31.9469 23.8962 31.9473 23.959C31.9478 24.021 31.9986 24.0711 32.0605 24.0703C32.1218 24.0696 32.1711 24.0202 32.1719 23.959C32.1724 23.9514 32.1724 23.949 32.1719 23.9414C32.1643 23.887 32.1157 23.8473 32.0605 23.8477V23.8457ZM32.623 23.8457C32.5603 23.8453 32.5094 23.8982 32.5098 23.9609C32.5103 24.0229 32.5611 24.073 32.623 24.0723C32.6843 24.0715 32.7336 24.0222 32.7344 23.9609C32.7344 23.9572 32.7344 23.9569 32.7344 23.9531C32.7308 23.8942 32.6824 23.848 32.623 23.8477V23.8457ZM33.1855 23.8457C33.1228 23.8453 33.0719 23.8982 33.0723 23.9609C33.0728 24.0229 33.1236 24.073 33.1855 24.0723C33.2468 24.0715 33.2965 24.0222 33.2969 23.9609C33.297 23.9572 33.297 23.9569 33.2969 23.9531C33.2933 23.8942 33.2445 23.848 33.1855 23.8477V23.8457ZM33.748 23.8457C33.6853 23.8453 33.6344 23.8982 33.6348 23.9609C33.6353 24.0229 33.6861 24.073 33.748 24.0723C33.8093 24.0715 33.859 24.0222 33.8594 23.9609C33.8595 23.9572 33.8595 23.9569 33.8594 23.9531C33.8558 23.8942 33.807 23.848 33.748 23.8477V23.8457ZM34.3086 23.8457C34.2466 23.8465 34.1969 23.8986 34.1973 23.9609C34.1978 24.0222 34.247 24.0719 34.3086 24.0723C34.3706 24.0726 34.4211 24.0229 34.4219 23.9609C34.4219 23.9572 34.4219 23.9569 34.4219 23.9531C34.4183 23.8934 34.3687 23.8469 34.3086 23.8477V23.8457ZM13.5059 23.8477C13.4439 23.8484 13.3942 23.8986 13.3945 23.9609C13.395 24.0222 13.4443 24.0715 13.5059 24.0723C13.5678 24.0726 13.6184 24.0233 13.6191 23.9609C13.6197 23.8982 13.5686 23.8473 13.5059 23.8477ZM22.502 23.8477C22.44 23.8484 22.3902 23.8986 22.3906 23.9609C22.3911 24.0222 22.4403 24.0715 22.502 24.0723C22.5639 24.0726 22.6145 24.0233 22.6152 23.9609C22.6158 23.8982 22.5647 23.8473 22.502 23.8477ZM27 23.8477C26.938 23.8484 26.8883 23.8986 26.8887 23.9609C26.8892 24.0222 26.9384 24.0715 27 24.0723C27.062 24.0726 27.1125 24.0233 27.1133 23.9609C27.1139 23.8982 27.0627 23.8473 27 23.8477ZM20.7695 32.4238C19.8859 32.4239 19.17 33.1398 19.1699 34.0234C19.17 34.9071 19.8859 35.623 20.7695 35.623C21.6532 35.623 22.3672 34.9071 22.3672 34.0234C22.3672 33.1398 21.6532 32.4239 20.7695 32.4238ZM27.0508 32.4238C26.1672 32.4239 25.4512 33.1398 25.4512 34.0234C25.4512 34.9071 26.1672 35.623 27.0508 35.623C27.9344 35.623 28.6484 34.9071 28.6484 34.0234C28.6484 33.1398 27.9344 32.4239 27.0508 32.4238Z" fill="#333333"/>
</g>
<defs>
<clipPath id="clip0">
<rect width="48" height="48" fill="white"/>
</clipPath>
</defs>
</svg>
