<svg width="48" height="48" viewBox="0 0 48 48" fill="none" xmlns="http://www.w3.org/2000/svg">
<g clip-path="url(#clip0)">
<path fill-rule="evenodd" clip-rule="evenodd" d="M0 0.0488281V48.0488H48V0.0488281H0ZM14.146 4.04883H33.851C34.721 4.04883 35.419 4.74783 35.419 5.61683V42.4778C35.419 43.3478 34.721 44.0478 33.851 44.0478H14.146C13.276 44.0478 12.578 43.3478 12.578 42.4778V5.61783C12.578 4.74783 13.277 4.04783 14.146 4.04783V4.04883ZM14.956 9.39483C14.7426 9.38949 14.5303 9.42692 14.3315 9.5049C14.1328 9.58288 13.9517 9.69985 13.7989 9.8489C13.646 9.99796 13.5246 10.1761 13.4417 10.3728C13.3587 10.5695 13.316 10.7808 13.316 10.9943C13.316 11.2078 13.3587 11.4191 13.4417 11.6158C13.5246 11.8126 13.646 11.9907 13.7989 12.1398C13.9517 12.2888 14.1328 12.4058 14.3315 12.4838C14.5303 12.5617 14.7426 12.5992 14.956 12.5938C15.3803 12.5938 15.7873 12.4253 16.0874 12.1252C16.3874 11.8251 16.556 11.4182 16.556 10.9938C16.556 10.5695 16.3874 10.1625 16.0874 9.86246C15.7873 9.5624 15.3803 9.39383 14.956 9.39383V9.39483ZM18.58 9.39483C18.3653 9.38723 18.1512 9.42297 17.9506 9.49991C17.7499 9.57684 17.5668 9.6934 17.4122 9.84263C17.2576 9.99187 17.1347 10.1707 17.0507 10.3685C16.9667 10.5663 16.9234 10.779 16.9234 10.9938C16.9234 11.2087 16.9667 11.4214 17.0507 11.6192C17.1347 11.8169 17.2576 11.9958 17.4122 12.145C17.5668 12.2943 17.7499 12.4108 17.9506 12.4878C18.1512 12.5647 18.3653 12.6004 18.58 12.5928C18.9943 12.5782 19.3867 12.4033 19.6746 12.105C19.9625 11.8068 20.1234 11.4084 20.1234 10.9938C20.1234 10.5793 19.9625 10.1809 19.6746 9.88263C19.3867 9.58436 18.9943 9.40948 18.58 9.39483ZM22.205 9.39483C21.9903 9.38723 21.7762 9.42297 21.5756 9.49991C21.3749 9.57684 21.1918 9.6934 21.0372 9.84263C20.8826 9.99187 20.7597 10.1707 20.6757 10.3685C20.5917 10.5663 20.5484 10.779 20.5484 10.9938C20.5484 11.2087 20.5917 11.4214 20.6757 11.6192C20.7597 11.8169 20.8826 11.9958 21.0372 12.145C21.1918 12.2943 21.3749 12.4108 21.5756 12.4878C21.7762 12.5647 21.9903 12.6004 22.205 12.5928C22.6193 12.5782 23.0117 12.4033 23.2996 12.105C23.5875 11.8068 23.7484 11.4084 23.7484 10.9938C23.7484 10.5793 23.5875 10.1809 23.2996 9.88263C23.0117 9.58436 22.6193 9.40948 22.205 9.39483ZM25.828 9.39483C25.6146 9.38949 25.4023 9.42692 25.2035 9.5049C25.0048 9.58288 24.8237 9.69985 24.6709 9.8489C24.518 9.99796 24.3966 10.1761 24.3137 10.3728C24.2307 10.5695 24.188 10.7808 24.188 10.9943C24.188 11.2078 24.2307 11.4191 24.3137 11.6158C24.3966 11.8126 24.518 11.9907 24.6709 12.1398C24.8237 12.2888 25.0048 12.4058 25.2035 12.4838C25.4023 12.5617 25.6146 12.5992 25.828 12.5938C26.2523 12.5938 26.6593 12.4253 26.9594 12.1252C27.2594 11.8251 27.428 11.4182 27.428 10.9938C27.428 10.5695 27.2594 10.1625 26.9594 9.86246C26.6593 9.5624 26.2523 9.39383 25.828 9.39383V9.39483ZM29.451 9.39483C29.2363 9.38723 29.0222 9.42297 28.8216 9.49991C28.6209 9.57684 28.4378 9.6934 28.2832 9.84263C28.1286 9.99187 28.0057 10.1707 27.9217 10.3685C27.8377 10.5663 27.7944 10.779 27.7944 10.9938C27.7944 11.2087 27.8377 11.4214 27.9217 11.6192C28.0057 11.8169 28.1286 11.9958 28.2832 12.145C28.4378 12.2943 28.6209 12.4108 28.8216 12.4878C29.0222 12.5647 29.2363 12.6004 29.451 12.5928C29.8653 12.5782 30.2577 12.4033 30.5456 12.105C30.8335 11.8068 30.9944 11.4084 30.9944 10.9938C30.9944 10.5793 30.8335 10.1809 30.5456 9.88263C30.2577 9.58436 29.8653 9.40948 29.451 9.39483ZM33.076 9.39483C32.8613 9.38723 32.6472 9.42297 32.4466 9.49991C32.2459 9.57684 32.0629 9.6934 31.9082 9.84263C31.7536 9.99187 31.6307 10.1707 31.5467 10.3685C31.4627 10.5663 31.4194 10.779 31.4194 10.9938C31.4194 11.2087 31.4627 11.4214 31.5467 11.6192C31.6307 11.8169 31.7536 11.9958 31.9082 12.145C32.0629 12.2943 32.2459 12.4108 32.4466 12.4878C32.6472 12.5647 32.8613 12.6004 33.076 12.5928C33.4903 12.5782 33.8827 12.4033 34.1706 12.105C34.4585 11.8068 34.6194 11.4084 34.6194 10.9938C34.6194 10.5793 34.4585 10.1809 34.1706 9.88263C33.8827 9.58436 33.4903 9.40948 33.076 9.39483ZM13.596 14.9348C13.5811 14.9348 13.5664 14.9378 13.5527 14.9435C13.539 14.9493 13.5265 14.9577 13.5161 14.9683C13.5057 14.9789 13.4975 14.9915 13.4919 15.0054C13.4864 15.0192 13.4837 15.034 13.484 15.0488C13.484 15.1098 13.534 15.1618 13.595 15.1618C13.6251 15.1618 13.6539 15.15 13.6753 15.1288C13.6966 15.1076 13.7087 15.0789 13.709 15.0488C13.7091 15.0339 13.7063 15.019 13.7006 15.0052C13.6949 14.9914 13.6865 14.9788 13.6759 14.9683C13.6652 14.9577 13.6526 14.9494 13.6387 14.9439C13.6248 14.9383 13.61 14.9356 13.595 14.9358L13.596 14.9348ZM14.158 14.9348C14.143 14.9348 14.1282 14.9378 14.1144 14.9435C14.1005 14.9492 14.088 14.9576 14.0774 14.9682C14.0668 14.9788 14.0584 14.9914 14.0527 15.0052C14.0469 15.019 14.044 15.0339 14.044 15.0488C14.044 15.1098 14.096 15.1618 14.158 15.1618C14.218 15.1618 14.268 15.1098 14.269 15.0488C14.2696 15.0425 14.2696 15.0361 14.269 15.0298C14.2651 15.0033 14.2517 14.9792 14.2313 14.9619C14.2108 14.9446 14.1848 14.9353 14.158 14.9358V14.9348ZM14.72 14.9348C14.7051 14.9348 14.6903 14.9378 14.6765 14.9435C14.6627 14.9493 14.6502 14.9577 14.6397 14.9683C14.6292 14.9789 14.6209 14.9915 14.6153 15.0053C14.6097 15.0191 14.6069 15.0339 14.607 15.0488C14.607 15.1108 14.658 15.1628 14.72 15.1618C14.781 15.1618 14.83 15.1098 14.831 15.0488C14.8316 15.0425 14.8316 15.0361 14.831 15.0298C14.8271 15.0035 14.8139 14.9795 14.7936 14.9622C14.7734 14.9449 14.7476 14.9355 14.721 14.9358L14.72 14.9348ZM15.283 14.9348C15.268 14.9347 15.2531 14.9376 15.2392 14.9432C15.2253 14.9489 15.2127 14.9573 15.2021 14.9679C15.1915 14.9785 15.1831 14.9912 15.1774 15.005C15.1717 15.0189 15.1689 15.0338 15.169 15.0488C15.169 15.1108 15.221 15.1628 15.283 15.1618C15.343 15.1618 15.393 15.1098 15.394 15.0488V15.0408C15.3922 15.0125 15.3798 14.9859 15.3592 14.9665C15.3386 14.947 15.3114 14.936 15.283 14.9358V14.9348ZM15.845 14.9348C15.8301 14.9348 15.8153 14.9378 15.8015 14.9435C15.7877 14.9493 15.7752 14.9577 15.7647 14.9683C15.7542 14.9789 15.7459 14.9915 15.7403 15.0053C15.7347 15.0191 15.7319 15.0339 15.732 15.0488C15.732 15.1108 15.783 15.1628 15.845 15.1618C15.906 15.1618 15.955 15.1098 15.956 15.0488V15.0408C15.9542 15.0127 15.9419 14.9863 15.9216 14.9668C15.9012 14.9473 15.8742 14.9363 15.846 14.9358L15.845 14.9348ZM16.408 14.9348C16.393 14.9347 16.3781 14.9376 16.3642 14.9432C16.3503 14.9489 16.3377 14.9573 16.3271 14.9679C16.3165 14.9785 16.3081 14.9912 16.3024 15.005C16.2967 15.0189 16.2939 15.0338 16.294 15.0488C16.294 15.1108 16.346 15.1628 16.408 15.1618C16.468 15.1618 16.518 15.1098 16.519 15.0488V15.0408C16.5172 15.0125 16.5048 14.9859 16.4842 14.9665C16.4636 14.947 16.4364 14.936 16.408 14.9358V14.9348ZM16.968 14.9348C16.9532 14.935 16.9386 14.938 16.925 14.9438C16.9114 14.9496 16.8991 14.9581 16.8887 14.9687C16.8784 14.9793 16.8703 14.9918 16.8649 15.0056C16.8594 15.0193 16.8567 15.034 16.857 15.0488C16.857 15.1098 16.907 15.1618 16.968 15.1618C16.9979 15.1616 17.0265 15.1496 17.0476 15.1284C17.0688 15.1073 17.0807 15.0787 17.081 15.0488V15.0408C17.0792 15.0122 17.0665 14.9853 17.0455 14.9658C17.0244 14.9462 16.9967 14.9355 16.968 14.9358V14.9348ZM17.531 14.9348C17.5161 14.9348 17.5014 14.9378 17.4877 14.9435C17.474 14.9493 17.4615 14.9577 17.4511 14.9683C17.4407 14.9789 17.4325 14.9915 17.4269 15.0054C17.4214 15.0192 17.4187 15.034 17.419 15.0488C17.419 15.1098 17.469 15.1618 17.531 15.1618C17.5609 15.1616 17.5895 15.1496 17.6106 15.1284C17.6318 15.1073 17.6437 15.0787 17.644 15.0488V15.0408C17.6422 15.0122 17.6295 14.9853 17.6085 14.9658C17.5874 14.9462 17.5597 14.9355 17.531 14.9358V14.9348ZM18.093 14.9348C18.0782 14.935 18.0636 14.938 18.05 14.9438C18.0364 14.9496 18.0241 14.9581 18.0137 14.9687C18.0034 14.9793 17.9953 14.9918 17.9899 15.0056C17.9844 15.0193 17.9817 15.034 17.982 15.0488C17.982 15.1098 18.032 15.1618 18.093 15.1618C18.1229 15.1616 18.1515 15.1496 18.1726 15.1284C18.1938 15.1073 18.2057 15.0787 18.206 15.0488V15.0408C18.2042 15.0122 18.1915 14.9853 18.1705 14.9658C18.1494 14.9462 18.1217 14.9355 18.093 14.9358V14.9348ZM18.656 14.9348C18.6411 14.9348 18.6264 14.9378 18.6127 14.9435C18.599 14.9493 18.5865 14.9577 18.5761 14.9683C18.5657 14.9789 18.5575 14.9915 18.5519 15.0054C18.5464 15.0192 18.5437 15.034 18.544 15.0488C18.544 15.1098 18.594 15.1618 18.656 15.1618C18.717 15.1618 18.766 15.1098 18.767 15.0488C18.7676 15.0425 18.7676 15.0361 18.767 15.0298C18.7631 15.0033 18.7497 14.9792 18.7293 14.9619C18.7088 14.9446 18.6828 14.9353 18.656 14.9358V14.9348ZM19.218 14.9348C19.2031 14.9348 19.1883 14.9378 19.1745 14.9435C19.1607 14.9493 19.1482 14.9577 19.1377 14.9683C19.1272 14.9789 19.1189 14.9915 19.1133 15.0053C19.1077 15.0191 19.1049 15.0339 19.105 15.0488C19.105 15.1108 19.156 15.1628 19.218 15.1618C19.279 15.1618 19.328 15.1098 19.33 15.0488V15.0408C19.3282 15.0124 19.3156 14.9856 19.2948 14.9661C19.274 14.9466 19.2465 14.9358 19.218 14.9358V14.9348ZM19.781 14.9348C19.7661 14.9348 19.7513 14.9378 19.7375 14.9435C19.7237 14.9493 19.7112 14.9577 19.7007 14.9683C19.6902 14.9789 19.6819 14.9915 19.6763 15.0053C19.6707 15.0191 19.6679 15.0339 19.668 15.0488C19.668 15.1108 19.718 15.1628 19.781 15.1618C19.842 15.1618 19.891 15.1098 19.892 15.0488V15.0408C19.8902 15.0125 19.8778 14.9859 19.8572 14.9665C19.8366 14.947 19.8094 14.936 19.781 14.9358V14.9348ZM20.343 14.9348C20.3281 14.9348 20.3133 14.9378 20.2995 14.9435C20.2857 14.9493 20.2732 14.9577 20.2627 14.9683C20.2522 14.9789 20.2439 14.9915 20.2383 15.0053C20.2327 15.0191 20.2299 15.0339 20.23 15.0488C20.23 15.1108 20.281 15.1628 20.343 15.1618C20.404 15.1618 20.453 15.1098 20.455 15.0488V15.0408C20.4532 15.0124 20.4406 14.9856 20.4198 14.9661C20.399 14.9466 20.3715 14.9358 20.343 14.9358V14.9348ZM20.906 14.9348C20.8911 14.9348 20.8763 14.9378 20.8625 14.9435C20.8487 14.9493 20.8362 14.9577 20.8257 14.9683C20.8152 14.9789 20.8069 14.9915 20.8013 15.0053C20.7957 15.0191 20.7929 15.0339 20.793 15.0488C20.793 15.1108 20.843 15.1628 20.906 15.1618C20.967 15.1618 21.016 15.1098 21.017 15.0488V15.0408C21.0152 15.0125 21.0028 14.9859 20.9822 14.9665C20.9616 14.947 20.9344 14.936 20.906 14.9358V14.9348ZM21.466 14.9348C21.4512 14.935 21.4366 14.938 21.423 14.9438C21.4094 14.9496 21.3971 14.9581 21.3867 14.9687C21.3764 14.9793 21.3683 14.9918 21.3629 15.0056C21.3574 15.0193 21.3547 15.034 21.355 15.0488C21.355 15.1098 21.405 15.1618 21.466 15.1618C21.4961 15.1618 21.5249 15.15 21.5463 15.1288C21.5676 15.1076 21.5797 15.0789 21.58 15.0488V15.0408C21.5782 15.012 21.5653 14.985 21.5441 14.9654C21.5229 14.9459 21.4949 14.9353 21.466 14.9358V14.9348ZM22.029 14.9348C22.0142 14.935 21.9996 14.938 21.986 14.9438C21.9724 14.9496 21.9601 14.9581 21.9497 14.9687C21.9394 14.9793 21.9313 14.9918 21.9259 15.0056C21.9204 15.0193 21.9177 15.034 21.918 15.0488C21.918 15.1098 21.968 15.1618 22.028 15.1618C22.0581 15.1618 22.0869 15.15 22.1083 15.1288C22.1296 15.1076 22.1417 15.0789 22.142 15.0488V15.0408C22.1402 15.0122 22.1275 14.9853 22.1065 14.9658C22.0854 14.9462 22.0577 14.9355 22.029 14.9358V14.9348ZM22.591 14.9348C22.5762 14.935 22.5616 14.938 22.548 14.9438C22.5344 14.9496 22.5221 14.9581 22.5117 14.9687C22.5014 14.9793 22.4933 14.9918 22.4879 15.0056C22.4824 15.0193 22.4797 15.034 22.48 15.0488C22.48 15.1098 22.53 15.1618 22.591 15.1618C22.6211 15.1618 22.6499 15.15 22.6713 15.1288C22.6926 15.1076 22.7047 15.0789 22.705 15.0488C22.705 15.0339 22.702 15.0191 22.6963 15.0054C22.6906 14.9916 22.6821 14.9791 22.6716 14.9686C22.661 14.9581 22.6484 14.9498 22.6346 14.9441C22.6207 14.9385 22.6059 14.9357 22.591 14.9358V14.9348ZM23.154 14.9348C23.1392 14.935 23.1246 14.938 23.111 14.9438C23.0974 14.9496 23.0851 14.9581 23.0747 14.9687C23.0644 14.9793 23.0563 14.9918 23.0509 15.0056C23.0454 15.0193 23.0427 15.034 23.043 15.0488C23.043 15.1098 23.093 15.1618 23.153 15.1618C23.1827 15.1613 23.2111 15.1492 23.232 15.1281C23.2529 15.107 23.2647 15.0785 23.265 15.0488C23.2656 15.0425 23.2656 15.0361 23.265 15.0298C23.2609 15.0034 23.2474 14.9794 23.227 14.9621C23.2067 14.9448 23.1807 14.9355 23.154 14.9358V14.9348ZM23.716 14.9348C23.7011 14.9348 23.6863 14.9378 23.6725 14.9435C23.6588 14.9493 23.6462 14.9577 23.6357 14.9683C23.6252 14.9789 23.6169 14.9915 23.6113 15.0053C23.6057 15.0191 23.6029 15.0339 23.603 15.0488C23.603 15.1108 23.654 15.1628 23.716 15.1618C23.777 15.1618 23.826 15.1098 23.828 15.0488C23.8286 15.0425 23.8286 15.0361 23.828 15.0298C23.8241 15.0032 23.8105 14.9789 23.7899 14.9615C23.7692 14.9442 23.7429 14.9351 23.716 14.9358V14.9348ZM24.279 14.9348C24.2641 14.9348 24.2493 14.9378 24.2355 14.9435C24.2218 14.9493 24.2092 14.9577 24.1987 14.9683C24.1882 14.9789 24.1799 14.9915 24.1743 15.0053C24.1687 15.0191 24.1659 15.0339 24.166 15.0488C24.166 15.1108 24.216 15.1628 24.279 15.1618C24.34 15.1618 24.389 15.1098 24.39 15.0488V15.0408C24.3882 15.0125 24.3758 14.9859 24.3552 14.9665C24.3346 14.947 24.3074 14.936 24.279 14.9358V14.9348ZM24.841 14.9348C24.8261 14.9348 24.8113 14.9378 24.7975 14.9435C24.7838 14.9493 24.7712 14.9577 24.7607 14.9683C24.7502 14.9789 24.7419 14.9915 24.7363 15.0053C24.7307 15.0191 24.7279 15.0339 24.728 15.0488C24.728 15.1108 24.779 15.1628 24.841 15.1618C24.902 15.1618 24.951 15.1098 24.953 15.0488V15.0408C24.9512 15.0124 24.9386 14.9856 24.9178 14.9661C24.897 14.9466 24.8695 14.9358 24.841 14.9358V14.9348ZM25.401 14.9348C25.3863 14.9351 25.3718 14.9382 25.3583 14.9441C25.3448 14.95 25.3326 14.9585 25.3224 14.969C25.3122 14.9796 25.3041 14.9921 25.2988 15.0058C25.2934 15.0195 25.2907 15.0341 25.291 15.0488C25.291 15.1098 25.341 15.1618 25.401 15.1618C25.4311 15.1618 25.4599 15.15 25.4813 15.1288C25.5026 15.1076 25.5147 15.0789 25.515 15.0488V15.0408C25.5132 15.0122 25.5005 14.9853 25.4795 14.9658C25.4584 14.9462 25.4307 14.9355 25.402 14.9358L25.401 14.9348ZM25.964 14.9348C25.9492 14.935 25.9346 14.938 25.921 14.9438C25.9074 14.9496 25.8951 14.9581 25.8847 14.9687C25.8744 14.9793 25.8663 14.9918 25.8609 15.0056C25.8554 15.0193 25.8527 15.034 25.853 15.0488C25.853 15.1098 25.903 15.1618 25.964 15.1618C25.9941 15.1618 26.0229 15.15 26.0443 15.1288C26.0656 15.1076 26.0777 15.0789 26.078 15.0488V15.0408C26.0762 15.012 26.0633 14.985 26.0421 14.9654C26.0209 14.9459 25.9929 14.9353 25.964 14.9358V14.9348ZM26.527 14.9348C26.5122 14.935 26.4976 14.938 26.484 14.9438C26.4704 14.9496 26.4581 14.9581 26.4477 14.9687C26.4374 14.9793 26.4293 14.9918 26.4239 15.0056C26.4184 15.0193 26.4157 15.034 26.416 15.0488C26.416 15.1098 26.466 15.1618 26.526 15.1618C26.5561 15.1618 26.5849 15.15 26.6063 15.1288C26.6276 15.1076 26.6397 15.0789 26.64 15.0488V15.0408C26.6382 15.0122 26.6255 14.9853 26.6045 14.9658C26.5834 14.9462 26.5557 14.9355 26.527 14.9358V14.9348ZM27.089 14.9348C27.0742 14.935 27.0596 14.938 27.046 14.9438C27.0324 14.9496 27.0201 14.9581 27.0097 14.9687C26.9994 14.9793 26.9913 14.9918 26.9859 15.0056C26.9804 15.0193 26.9777 15.034 26.978 15.0488C26.978 15.1098 27.028 15.1618 27.089 15.1618C27.1191 15.1618 27.1479 15.15 27.1693 15.1288C27.1906 15.1076 27.2027 15.0789 27.203 15.0488C27.2031 15.0339 27.2003 15.019 27.1946 15.0052C27.1889 14.9914 27.1805 14.9788 27.1699 14.9683C27.1592 14.9577 27.1466 14.9494 27.1327 14.9439C27.1188 14.9383 27.104 14.9356 27.089 14.9358V14.9348ZM27.652 14.9348C27.6372 14.935 27.6226 14.938 27.609 14.9438C27.5954 14.9496 27.5831 14.9581 27.5727 14.9687C27.5624 14.9793 27.5543 14.9918 27.5489 15.0056C27.5434 15.0193 27.5407 15.034 27.541 15.0488C27.541 15.1098 27.591 15.1618 27.651 15.1618C27.713 15.1618 27.762 15.1098 27.763 15.0488C27.7635 15.0425 27.7635 15.0362 27.763 15.0298C27.7591 15.0033 27.7457 14.9792 27.7253 14.9619C27.7048 14.9446 27.6788 14.9353 27.652 14.9358V14.9348ZM28.214 14.9348C28.1991 14.9348 28.1843 14.9378 28.1705 14.9435C28.1567 14.9493 28.1442 14.9577 28.1337 14.9683C28.1232 14.9789 28.1149 14.9915 28.1093 15.0053C28.1037 15.0191 28.1009 15.0339 28.101 15.0488C28.101 15.1108 28.152 15.1628 28.214 15.1618C28.276 15.1618 28.324 15.1098 28.326 15.0488V15.0408C28.3242 15.0124 28.3116 14.9856 28.2908 14.9661C28.27 14.9466 28.2425 14.9358 28.214 14.9358V14.9348ZM28.777 14.9348C28.7621 14.9348 28.7473 14.9378 28.7335 14.9435C28.7197 14.9493 28.7072 14.9577 28.6967 14.9683C28.6862 14.9789 28.6779 14.9915 28.6723 15.0053C28.6667 15.0191 28.6639 15.0339 28.664 15.0488C28.664 15.1108 28.714 15.1628 28.777 15.1618C28.838 15.1618 28.887 15.1098 28.888 15.0488V15.0408C28.8862 15.0125 28.8738 14.9859 28.8532 14.9665C28.8326 14.947 28.8054 14.936 28.777 14.9358V14.9348ZM29.339 14.9348C29.3241 14.9348 29.3093 14.9378 29.2955 14.9435C29.2817 14.9493 29.2692 14.9577 29.2587 14.9683C29.2482 14.9789 29.2399 14.9915 29.2343 15.0053C29.2287 15.0191 29.2259 15.0339 29.226 15.0488C29.226 15.1108 29.277 15.1628 29.339 15.1618C29.401 15.1618 29.449 15.1098 29.451 15.0488V15.0408C29.4492 15.0124 29.4366 14.9856 29.4158 14.9661C29.395 14.9466 29.3675 14.9358 29.339 14.9358V14.9348ZM29.899 14.9348C29.8843 14.9351 29.8698 14.9382 29.8563 14.9441C29.8428 14.95 29.8306 14.9585 29.8204 14.969C29.8102 14.9796 29.8021 14.9921 29.7968 15.0058C29.7914 15.0195 29.7887 15.0341 29.789 15.0488C29.789 15.1098 29.839 15.1618 29.899 15.1618C29.9291 15.1618 29.9579 15.15 29.9793 15.1288C30.0006 15.1076 30.0127 15.0789 30.013 15.0488V15.0408C30.0112 15.0122 29.9985 14.9853 29.9775 14.9658C29.9564 14.9462 29.9287 14.9355 29.9 14.9358L29.899 14.9348ZM30.462 14.9348C30.4473 14.9351 30.4328 14.9382 30.4193 14.9441C30.4058 14.95 30.3936 14.9585 30.3834 14.969C30.3732 14.9796 30.3651 14.9921 30.3598 15.0058C30.3544 15.0195 30.3517 15.0341 30.352 15.0488C30.352 15.1098 30.401 15.1618 30.462 15.1618C30.4921 15.1618 30.5209 15.15 30.5423 15.1288C30.5636 15.1076 30.5757 15.0789 30.576 15.0488V15.0408C30.5742 15.012 30.5613 14.985 30.5401 14.9654C30.5189 14.9459 30.4909 14.9353 30.462 14.9358V14.9348ZM31.025 14.9348C31.0102 14.935 30.9956 14.938 30.982 14.9438C30.9684 14.9496 30.9561 14.9581 30.9457 14.9687C30.9354 14.9793 30.9273 14.9918 30.9219 15.0056C30.9164 15.0193 30.9137 15.034 30.914 15.0488C30.914 15.1098 30.964 15.1618 31.024 15.1618C31.0541 15.1618 31.0829 15.15 31.1043 15.1288C31.1256 15.1076 31.1377 15.0789 31.138 15.0488V15.0408C31.1362 15.0122 31.1235 14.9853 31.1025 14.9658C31.0814 14.9462 31.0537 14.9355 31.025 14.9358V14.9348ZM31.587 14.9348C31.5723 14.9351 31.5578 14.9382 31.5443 14.9441C31.5308 14.95 31.5186 14.9585 31.5084 14.969C31.4982 14.9796 31.4901 14.9921 31.4848 15.0058C31.4794 15.0195 31.4767 15.0341 31.477 15.0488C31.477 15.1098 31.527 15.1618 31.587 15.1618C31.649 15.1618 31.698 15.1098 31.699 15.0488C31.6996 15.0425 31.6996 15.0361 31.699 15.0298C31.6951 15.0032 31.6815 14.9789 31.6609 14.9615C31.6402 14.9442 31.6139 14.9351 31.587 14.9358V14.9348ZM32.15 14.9348C32.1351 14.9348 32.1203 14.9378 32.1065 14.9435C32.0928 14.9493 32.0802 14.9577 32.0697 14.9683C32.0592 14.9789 32.0509 14.9915 32.0453 15.0053C32.0397 15.0191 32.0369 15.0339 32.037 15.0488C32.037 15.1108 32.087 15.1628 32.15 15.1618C32.211 15.1618 32.26 15.1098 32.261 15.0488C32.2616 15.0425 32.2616 15.0361 32.261 15.0298C32.2571 15.0033 32.2437 14.9792 32.2233 14.9619C32.2028 14.9446 32.1768 14.9353 32.15 14.9358V14.9348ZM32.712 14.9348C32.6971 14.9348 32.6823 14.9378 32.6685 14.9435C32.6548 14.9493 32.6422 14.9577 32.6317 14.9683C32.6212 14.9789 32.6129 14.9915 32.6073 15.0053C32.6017 15.0191 32.5989 15.0339 32.599 15.0488C32.599 15.1108 32.65 15.1628 32.712 15.1618C32.774 15.1618 32.823 15.1098 32.824 15.0488V15.0408C32.8222 15.0124 32.8096 14.9856 32.7888 14.9661C32.768 14.9466 32.7405 14.9358 32.712 14.9358V14.9348ZM33.275 14.9348C33.2601 14.9348 33.2453 14.9378 33.2315 14.9435C33.2178 14.9493 33.2052 14.9577 33.1947 14.9683C33.1842 14.9789 33.1759 14.9915 33.1703 15.0053C33.1647 15.0191 33.1619 15.0339 33.162 15.0488C33.162 15.1108 33.212 15.1628 33.275 15.1618C33.336 15.1618 33.385 15.1098 33.386 15.0488V15.0408C33.3842 15.0125 33.3718 14.9859 33.3512 14.9665C33.3306 14.947 33.3034 14.936 33.275 14.9358V14.9348ZM33.837 14.9348C33.8221 14.9348 33.8073 14.9378 33.7935 14.9435C33.7798 14.9493 33.7672 14.9577 33.7567 14.9683C33.7462 14.9789 33.7379 14.9915 33.7323 15.0053C33.7267 15.0191 33.7239 15.0339 33.724 15.0488C33.724 15.1108 33.775 15.1628 33.837 15.1618C33.899 15.1618 33.948 15.1098 33.949 15.0488V15.0408C33.9472 15.0124 33.9346 14.9856 33.9138 14.9661C33.893 14.9466 33.8655 14.9358 33.837 14.9358V14.9348ZM34.397 14.9348C34.3823 14.9351 34.3678 14.9382 34.3543 14.9441C34.3408 14.95 34.3286 14.9585 34.3184 14.969C34.3082 14.9796 34.3001 14.9921 34.2948 15.0058C34.2894 15.0195 34.2867 15.0341 34.287 15.0488C34.287 15.1098 34.337 15.1618 34.397 15.1618C34.4271 15.1618 34.4559 15.15 34.4773 15.1288C34.4986 15.1076 34.5107 15.0789 34.511 15.0488V15.0408C34.5092 15.0122 34.4965 14.9853 34.4755 14.9658C34.4544 14.9462 34.4267 14.9355 34.398 14.9358L34.397 14.9348ZM14.94 18.1338C14.7266 18.1285 14.5143 18.1659 14.3155 18.2439C14.1168 18.3219 13.9357 18.4388 13.7829 18.5879C13.63 18.737 13.5086 18.9151 13.4257 19.1118C13.3427 19.3085 13.3 19.5198 13.3 19.7333C13.3 19.9468 13.3427 20.1581 13.4257 20.3548C13.5086 20.5516 13.63 20.7297 13.7829 20.8788C13.9357 21.0278 14.1168 21.1448 14.3155 21.2228C14.5143 21.3007 14.7266 21.3382 14.94 21.3328C15.3643 21.3328 15.7713 21.1643 16.0714 20.8642C16.3714 20.5641 16.54 20.1572 16.54 19.7328C16.54 19.3085 16.3714 18.9015 16.0714 18.6015C15.7713 18.3014 15.3643 18.1328 14.94 18.1328V18.1338ZM18.563 18.1338C18.3496 18.1285 18.1373 18.1659 17.9385 18.2439C17.7398 18.3219 17.5587 18.4388 17.4059 18.5879C17.253 18.737 17.1316 18.9151 17.0487 19.1118C16.9657 19.3085 16.923 19.5198 16.923 19.7333C16.923 19.9468 16.9657 20.1581 17.0487 20.3548C17.1316 20.5516 17.253 20.7297 17.4059 20.8788C17.5587 21.0278 17.7398 21.1448 17.9385 21.2228C18.1373 21.3007 18.3496 21.3382 18.563 21.3328C18.9873 21.3328 19.3943 21.1643 19.6944 20.8642C19.9944 20.5641 20.163 20.1572 20.163 19.7328C20.163 19.3085 19.9944 18.9015 19.6944 18.6015C19.3943 18.3014 18.9873 18.1328 18.563 18.1328V18.1338ZM22.186 18.1338C21.9726 18.1285 21.7603 18.1659 21.5615 18.2439C21.3628 18.3219 21.1817 18.4388 21.0289 18.5879C20.876 18.737 20.7546 18.9151 20.6717 19.1118C20.5887 19.3085 20.546 19.5198 20.546 19.7333C20.546 19.9468 20.5887 20.1581 20.6717 20.3548C20.7546 20.5516 20.876 20.7297 21.0289 20.8788C21.1817 21.0278 21.3628 21.1448 21.5615 21.2228C21.7603 21.3007 21.9726 21.3382 22.186 21.3328C22.6103 21.3328 23.0173 21.1643 23.3174 20.8642C23.6174 20.5641 23.786 20.1572 23.786 19.7328C23.786 19.3085 23.6174 18.9015 23.3174 18.6015C23.0173 18.3014 22.6103 18.1328 22.186 18.1328V18.1338ZM25.811 18.1338C25.5976 18.1285 25.3853 18.1659 25.1865 18.2439C24.9878 18.3219 24.8067 18.4388 24.6539 18.5879C24.501 18.737 24.3796 18.9151 24.2967 19.1118C24.2137 19.3085 24.171 19.5198 24.171 19.7333C24.171 19.9468 24.2137 20.1581 24.2967 20.3548C24.3796 20.5516 24.501 20.7297 24.6539 20.8788C24.8067 21.0278 24.9878 21.1448 25.1865 21.2228C25.3853 21.3007 25.5976 21.3382 25.811 21.3328C26.2353 21.3328 26.6423 21.1643 26.9424 20.8642C27.2424 20.5641 27.411 20.1572 27.411 19.7328C27.411 19.3085 27.2424 18.9015 26.9424 18.6015C26.6423 18.3014 26.2353 18.1328 25.811 18.1328V18.1338ZM29.434 18.1338C29.2206 18.1285 29.0083 18.1659 28.8095 18.2439C28.6108 18.3219 28.4297 18.4388 28.2769 18.5879C28.124 18.737 28.0026 18.9151 27.9197 19.1118C27.8367 19.3085 27.794 19.5198 27.794 19.7333C27.794 19.9468 27.8367 20.1581 27.9197 20.3548C28.0026 20.5516 28.124 20.7297 28.2769 20.8788C28.4297 21.0278 28.6108 21.1448 28.8095 21.2228C29.0083 21.3007 29.2206 21.3382 29.434 21.3328C29.8583 21.3328 30.2653 21.1643 30.5654 20.8642C30.8654 20.5641 31.034 20.1572 31.034 19.7328C31.034 19.3085 30.8654 18.9015 30.5654 18.6015C30.2653 18.3014 29.8583 18.1328 29.434 18.1328V18.1338ZM33.059 18.1338C32.8456 18.1285 32.6333 18.1659 32.4345 18.2439C32.2358 18.3219 32.0547 18.4388 31.9019 18.5879C31.749 18.737 31.6276 18.9151 31.5447 19.1118C31.4617 19.3085 31.419 19.5198 31.419 19.7333C31.419 19.9468 31.4617 20.1581 31.5447 20.3548C31.6276 20.5516 31.749 20.7297 31.9019 20.8788C32.0547 21.0278 32.2358 21.1448 32.4345 21.2228C32.6333 21.3007 32.8456 21.3382 33.059 21.3328C33.4833 21.3328 33.8903 21.1643 34.1904 20.8642C34.4904 20.5641 34.659 20.1572 34.659 19.7328C34.659 19.3085 34.4904 18.9015 34.1904 18.6015C33.8903 18.3014 33.4833 18.1328 33.059 18.1328V18.1338ZM13.596 23.9368C13.5813 23.937 13.5668 23.94 13.5532 23.9457C13.5397 23.9515 13.5274 23.9598 13.5171 23.9703C13.5068 23.9808 13.4986 23.9933 13.4931 24.0069C13.4876 24.0205 13.4849 24.0351 13.485 24.0498C13.485 24.1108 13.535 24.1628 13.596 24.1628C13.6261 24.1628 13.6549 24.151 13.6763 24.1298C13.6976 24.1086 13.7097 24.0799 13.71 24.0498C13.7101 24.0349 13.7073 24.02 13.7016 24.0062C13.6959 23.9924 13.6875 23.9798 13.6769 23.9693C13.6662 23.9587 13.6536 23.9504 13.6397 23.9449C13.6258 23.9393 13.611 23.9366 13.596 23.9368ZM14.159 23.9368C14.1289 23.9368 14.1001 23.9487 14.0787 23.9699C14.0574 23.991 14.0453 24.0198 14.045 24.0498C14.045 24.1108 14.097 24.1628 14.159 24.1628C14.219 24.1628 14.269 24.1108 14.27 24.0498C14.2706 24.0435 14.2706 24.0371 14.27 24.0308C14.2661 24.0043 14.2527 23.9802 14.2323 23.9629C14.2118 23.9456 14.1858 23.9363 14.159 23.9368ZM14.721 23.9368C14.691 23.9368 14.6623 23.9487 14.6411 23.9699C14.6199 23.9911 14.608 24.0199 14.608 24.0498C14.608 24.1118 14.659 24.1638 14.721 24.1628C14.782 24.1628 14.831 24.1108 14.832 24.0498C14.8326 24.0435 14.8326 24.0371 14.832 24.0308C14.8281 24.0045 14.8149 23.9805 14.7946 23.9632C14.7744 23.9459 14.7486 23.9365 14.722 23.9368H14.721ZM15.284 23.9368C15.2691 23.9367 15.2543 23.9395 15.2404 23.9451C15.2266 23.9508 15.214 23.9591 15.2034 23.9696C15.1929 23.9801 15.1844 23.9926 15.1787 24.0064C15.173 24.0201 15.17 24.0349 15.17 24.0498C15.17 24.1118 15.222 24.1638 15.284 24.1628C15.2992 24.1624 15.3142 24.159 15.3281 24.1527C15.342 24.1465 15.3545 24.1375 15.3648 24.1263C15.3752 24.1151 15.3832 24.1019 15.3884 24.0876C15.3936 24.0733 15.3958 24.058 15.395 24.0428C15.3935 24.0143 15.3811 23.9875 15.3605 23.9678C15.3399 23.9481 15.3125 23.937 15.284 23.9368ZM15.846 23.9368C15.816 23.9368 15.7873 23.9487 15.7661 23.9699C15.7449 23.9911 15.733 24.0199 15.733 24.0498C15.733 24.1118 15.784 24.1638 15.846 24.1628C15.8612 24.1624 15.8762 24.159 15.8901 24.1527C15.904 24.1465 15.9165 24.1375 15.9268 24.1263C15.9372 24.1151 15.9452 24.1019 15.9504 24.0876C15.9556 24.0733 15.9578 24.058 15.957 24.0428C15.9555 24.0145 15.9433 23.9878 15.9229 23.9682C15.9025 23.9485 15.8753 23.9373 15.847 23.9368H15.846ZM16.409 23.9368C16.3941 23.9367 16.3793 23.9395 16.3654 23.9451C16.3516 23.9508 16.339 23.9591 16.3284 23.9696C16.3179 23.9801 16.3094 23.9926 16.3037 24.0064C16.298 24.0201 16.295 24.0349 16.295 24.0498C16.295 24.1118 16.347 24.1638 16.409 24.1628C16.4242 24.1624 16.4392 24.159 16.4531 24.1527C16.467 24.1465 16.4795 24.1375 16.4898 24.1263C16.5002 24.1151 16.5082 24.1019 16.5134 24.0876C16.5186 24.0733 16.5208 24.058 16.52 24.0428C16.5185 24.0143 16.5061 23.9875 16.4855 23.9678C16.4649 23.9481 16.4375 23.937 16.409 23.9368ZM16.969 23.9368C16.9394 23.9374 16.9111 23.9495 16.8904 23.9706C16.8696 23.9918 16.858 24.0202 16.858 24.0498C16.858 24.1108 16.908 24.1628 16.969 24.1628C16.9844 24.1627 16.9996 24.1595 17.0137 24.1533C17.0279 24.1472 17.0406 24.1382 17.0512 24.127C17.0617 24.1158 17.0699 24.1025 17.0752 24.0881C17.0805 24.0736 17.0828 24.0582 17.082 24.0428C17.0805 24.014 17.0678 23.9869 17.0468 23.9671C17.0257 23.9474 16.9979 23.9365 16.969 23.9368ZM17.532 23.9368C17.5022 23.9371 17.4737 23.9491 17.4527 23.9703C17.4318 23.9914 17.42 24.02 17.42 24.0498C17.42 24.1108 17.47 24.1628 17.532 24.1628C17.5474 24.1627 17.5626 24.1595 17.5767 24.1533C17.5909 24.1472 17.6036 24.1382 17.6142 24.127C17.6247 24.1158 17.6329 24.1025 17.6382 24.0881C17.6435 24.0736 17.6458 24.0582 17.645 24.0428C17.6435 24.014 17.6308 23.9869 17.6098 23.9671C17.5887 23.9474 17.5609 23.9365 17.532 23.9368ZM18.094 23.9368C18.0644 23.9374 18.0361 23.9495 18.0154 23.9706C17.9946 23.9918 17.983 24.0202 17.983 24.0498C17.983 24.1108 18.033 24.1628 18.094 24.1628C18.1094 24.1627 18.1246 24.1595 18.1387 24.1533C18.1529 24.1472 18.1656 24.1382 18.1762 24.127C18.1867 24.1158 18.1949 24.1025 18.2002 24.0881C18.2055 24.0736 18.2078 24.0582 18.207 24.0428C18.2055 24.014 18.1928 23.9869 18.1718 23.9671C18.1507 23.9474 18.1229 23.9365 18.094 23.9368ZM18.657 23.9368C18.6422 23.9368 18.6276 23.9398 18.6139 23.9454C18.6003 23.9511 18.5879 23.9595 18.5774 23.97C18.567 23.9805 18.5588 23.993 18.5532 24.0067C18.5477 24.0204 18.5449 24.035 18.545 24.0498C18.545 24.1108 18.595 24.1628 18.657 24.1628C18.718 24.1628 18.767 24.1108 18.768 24.0498C18.7686 24.0435 18.7686 24.0371 18.768 24.0308C18.7641 24.0043 18.7507 23.9802 18.7303 23.9629C18.7098 23.9456 18.6838 23.9363 18.657 23.9368ZM19.219 23.9368C19.189 23.9368 19.1603 23.9487 19.1391 23.9699C19.1179 23.9911 19.106 24.0199 19.106 24.0498C19.106 24.1118 19.157 24.1638 19.219 24.1628C19.2343 24.1626 19.2494 24.1592 19.2634 24.153C19.2774 24.1468 19.29 24.1378 19.3005 24.1266C19.311 24.1154 19.319 24.1022 19.3243 24.0878C19.3295 24.0734 19.3318 24.0581 19.331 24.0428C19.3295 24.0142 19.317 23.9872 19.2961 23.9675C19.2753 23.9478 19.2477 23.9368 19.219 23.9368ZM19.782 23.9368C19.752 23.9368 19.7233 23.9487 19.7021 23.9699C19.6809 23.9911 19.669 24.0199 19.669 24.0498C19.669 24.1118 19.719 24.1638 19.782 24.1628C19.7972 24.1624 19.8122 24.159 19.8261 24.1527C19.84 24.1465 19.8525 24.1375 19.8628 24.1263C19.8732 24.1151 19.8812 24.1019 19.8864 24.0876C19.8916 24.0733 19.8938 24.058 19.893 24.0428C19.8915 24.0143 19.8791 23.9875 19.8585 23.9678C19.8379 23.9481 19.8105 23.937 19.782 23.9368ZM20.344 23.9368C20.314 23.9368 20.2853 23.9487 20.2641 23.9699C20.2429 23.9911 20.231 24.0199 20.231 24.0498C20.231 24.1118 20.282 24.1638 20.344 24.1628C20.3593 24.1626 20.3744 24.1592 20.3884 24.153C20.4024 24.1468 20.415 24.1378 20.4255 24.1266C20.436 24.1154 20.444 24.1022 20.4493 24.0878C20.4545 24.0734 20.4568 24.0581 20.456 24.0428C20.4545 24.0142 20.442 23.9872 20.4211 23.9675C20.4003 23.9478 20.3727 23.9368 20.344 23.9368ZM20.907 23.9368C20.877 23.9368 20.8483 23.9487 20.8271 23.9699C20.8059 23.9911 20.794 24.0199 20.794 24.0498C20.794 24.1118 20.844 24.1638 20.907 24.1628C20.9222 24.1624 20.9372 24.159 20.9511 24.1527C20.965 24.1465 20.9775 24.1375 20.9878 24.1263C20.9982 24.1151 21.0062 24.1019 21.0114 24.0876C21.0166 24.0733 21.0188 24.058 21.018 24.0428C21.0165 24.0143 21.0041 23.9875 20.9835 23.9678C20.9629 23.9481 20.9355 23.937 20.907 23.9368ZM21.467 23.9368C21.4387 23.9395 21.4125 23.9526 21.3934 23.9736C21.3743 23.9946 21.3637 24.0219 21.3637 24.0503C21.3637 24.0787 21.3743 24.1061 21.3934 24.1271C21.4125 24.1481 21.4387 24.1612 21.467 24.1638C21.4827 24.1639 21.4982 24.1607 21.5126 24.1545C21.5269 24.1482 21.5399 24.1391 21.5506 24.1277C21.5613 24.1162 21.5695 24.1027 21.5747 24.0879C21.58 24.0731 21.5821 24.0575 21.581 24.0418C21.5792 24.013 21.5663 23.986 21.5451 23.9664C21.5239 23.9469 21.4959 23.9363 21.467 23.9368ZM22.03 23.9368C22.0017 23.9395 21.9755 23.9526 21.9564 23.9736C21.9373 23.9946 21.9267 24.0219 21.9267 24.0503C21.9267 24.0787 21.9373 24.1061 21.9564 24.1271C21.9755 24.1481 22.0017 24.1612 22.03 24.1638C22.0456 24.1637 22.061 24.1604 22.0752 24.1542C22.0895 24.1479 22.1023 24.1387 22.1129 24.1273C22.1235 24.1159 22.1316 24.1024 22.1368 24.0877C22.142 24.073 22.1441 24.0574 22.143 24.0418C22.1412 24.0132 22.1285 23.9863 22.1075 23.9668C22.0864 23.9472 22.0587 23.9365 22.03 23.9368ZM22.592 23.9368C22.5773 23.937 22.5628 23.94 22.5492 23.9457C22.5357 23.9515 22.5234 23.9598 22.5131 23.9703C22.5028 23.9808 22.4946 23.9933 22.4891 24.0069C22.4836 24.0205 22.4809 24.0351 22.481 24.0498C22.481 24.1108 22.531 24.1628 22.592 24.1628C22.6221 24.1628 22.6509 24.151 22.6723 24.1298C22.6936 24.1086 22.7057 24.0799 22.706 24.0498C22.706 24.0349 22.703 24.0201 22.6973 24.0064C22.6916 23.9926 22.6831 23.9801 22.6726 23.9696C22.662 23.9591 22.6494 23.9508 22.6355 23.9451C22.6217 23.9395 22.6069 23.9367 22.592 23.9368ZM23.155 23.9368C23.1267 23.9395 23.1005 23.9526 23.0814 23.9736C23.0623 23.9946 23.0517 24.0219 23.0517 24.0503C23.0517 24.0787 23.0623 24.1061 23.0814 24.1271C23.1005 24.1481 23.1267 24.1612 23.155 24.1638C23.1847 24.163 23.2129 24.1507 23.2337 24.1294C23.2544 24.1081 23.266 24.0795 23.266 24.0498C23.2666 24.0435 23.2666 24.0371 23.266 24.0308C23.2619 24.0044 23.2484 23.9804 23.228 23.9631C23.2077 23.9458 23.1817 23.9365 23.155 23.9368ZM23.717 23.9368C23.687 23.9368 23.6583 23.9487 23.6371 23.9699C23.6159 23.9911 23.604 24.0199 23.604 24.0498C23.604 24.1118 23.655 24.1638 23.717 24.1628C23.778 24.1628 23.827 24.1108 23.829 24.0498C23.8296 24.0435 23.8296 24.0371 23.829 24.0308C23.8251 24.0042 23.8115 23.9799 23.7909 23.9625C23.7702 23.9452 23.7439 23.9361 23.717 23.9368ZM24.28 23.9368C24.25 23.9368 24.2213 23.9487 24.2001 23.9699C24.1789 23.9911 24.167 24.0199 24.167 24.0498C24.167 24.1118 24.217 24.1638 24.28 24.1628C24.2952 24.1624 24.3102 24.159 24.3241 24.1527C24.338 24.1465 24.3505 24.1375 24.3608 24.1263C24.3712 24.1151 24.3792 24.1019 24.3844 24.0876C24.3896 24.0733 24.3918 24.058 24.391 24.0428C24.3895 24.0143 24.3771 23.9875 24.3565 23.9678C24.3359 23.9481 24.3085 23.937 24.28 23.9368ZM24.842 23.9368C24.812 23.9368 24.7833 23.9487 24.7621 23.9699C24.7409 23.9911 24.729 24.0199 24.729 24.0498C24.729 24.1118 24.78 24.1638 24.842 24.1628C24.8573 24.1626 24.8724 24.1592 24.8864 24.153C24.9004 24.1468 24.913 24.1378 24.9235 24.1266C24.934 24.1154 24.942 24.1022 24.9473 24.0878C24.9525 24.0734 24.9548 24.0581 24.954 24.0428C24.9525 24.0142 24.94 23.9872 24.9191 23.9675C24.8983 23.9478 24.8707 23.9368 24.842 23.9368ZM25.402 23.9368C25.3725 23.9374 25.3443 23.9495 25.3237 23.9707C25.3031 23.9919 25.2917 24.0203 25.292 24.0498C25.292 24.1108 25.342 24.1628 25.402 24.1628C25.4175 24.1628 25.4328 24.1597 25.4471 24.1536C25.4613 24.1475 25.4741 24.1386 25.4848 24.1273C25.4955 24.1161 25.5037 24.1028 25.5091 24.0883C25.5145 24.0738 25.5168 24.0583 25.516 24.0428C25.5145 24.014 25.5018 23.9869 25.4808 23.9671C25.4597 23.9474 25.4319 23.9365 25.403 23.9368H25.402ZM25.965 23.9368C25.9354 23.9374 25.9071 23.9495 25.8864 23.9706C25.8656 23.9918 25.854 24.0202 25.854 24.0498C25.854 24.1108 25.904 24.1628 25.965 24.1628C25.9805 24.1628 25.9958 24.1597 26.0101 24.1536C26.0243 24.1475 26.0371 24.1386 26.0478 24.1273C26.0585 24.1161 26.0667 24.1028 26.0721 24.0883C26.0775 24.0738 26.0798 24.0583 26.079 24.0428C26.0774 24.0138 26.0647 23.9866 26.0434 23.9668C26.0222 23.947 25.994 23.9363 25.965 23.9368ZM26.528 23.9368C26.5133 23.937 26.4988 23.94 26.4852 23.9457C26.4717 23.9515 26.4594 23.9598 26.4491 23.9703C26.4388 23.9808 26.4306 23.9933 26.4251 24.0069C26.4196 24.0205 26.4169 24.0351 26.417 24.0498C26.417 24.1108 26.467 24.1628 26.527 24.1628C26.5425 24.1628 26.5578 24.1597 26.5721 24.1536C26.5863 24.1475 26.5991 24.1386 26.6098 24.1273C26.6205 24.1161 26.6287 24.1028 26.6341 24.0883C26.6395 24.0738 26.6418 24.0583 26.641 24.0428C26.6395 24.014 26.6268 23.9869 26.6058 23.9671C26.5847 23.9474 26.5569 23.9365 26.528 23.9368ZM27.09 23.9368C27.0604 23.9374 27.0321 23.9495 27.0114 23.9706C26.9906 23.9918 26.979 24.0202 26.979 24.0498C26.979 24.1108 27.029 24.1628 27.09 24.1628C27.1201 24.1628 27.1489 24.151 27.1703 24.1298C27.1916 24.1086 27.2037 24.0799 27.204 24.0498C27.2041 24.0349 27.2013 24.02 27.1956 24.0062C27.1899 23.9924 27.1815 23.9798 27.1709 23.9693C27.1602 23.9587 27.1476 23.9504 27.1337 23.9449C27.1198 23.9393 27.105 23.9366 27.09 23.9368ZM27.653 23.9368C27.6383 23.937 27.6238 23.94 27.6102 23.9457C27.5967 23.9515 27.5844 23.9598 27.5741 23.9703C27.5638 23.9808 27.5556 23.9933 27.5501 24.0069C27.5446 24.0205 27.5419 24.0351 27.542 24.0498C27.542 24.1108 27.592 24.1628 27.652 24.1628C27.714 24.1628 27.763 24.1108 27.764 24.0498C27.7645 24.0435 27.7645 24.0372 27.764 24.0308C27.7601 24.0043 27.7467 23.9802 27.7263 23.9629C27.7058 23.9456 27.6798 23.9363 27.653 23.9368ZM28.215 23.9368C28.185 23.9368 28.1563 23.9487 28.1351 23.9699C28.1139 23.9911 28.102 24.0199 28.102 24.0498C28.102 24.1118 28.153 24.1638 28.215 24.1628C28.2303 24.1626 28.2454 24.1592 28.2594 24.153C28.2734 24.1468 28.286 24.1378 28.2965 24.1266C28.307 24.1154 28.315 24.1022 28.3203 24.0878C28.3255 24.0734 28.3278 24.0581 28.327 24.0428C28.3255 24.0142 28.313 23.9872 28.2921 23.9675C28.2713 23.9478 28.2437 23.9368 28.215 23.9368ZM28.778 23.9368C28.748 23.9368 28.7193 23.9487 28.6981 23.9699C28.6769 23.9911 28.665 24.0199 28.665 24.0498C28.665 24.1118 28.715 24.1638 28.778 24.1628C28.7932 24.1624 28.8082 24.159 28.8221 24.1527C28.836 24.1465 28.8485 24.1375 28.8588 24.1263C28.8692 24.1151 28.8772 24.1019 28.8824 24.0876C28.8876 24.0733 28.8898 24.058 28.889 24.0428C28.8875 24.0143 28.8751 23.9875 28.8545 23.9678C28.8339 23.9481 28.8065 23.937 28.778 23.9368ZM29.34 23.9368C29.31 23.9368 29.2813 23.9487 29.2601 23.9699C29.2389 23.9911 29.227 24.0199 29.227 24.0498C29.227 24.1118 29.278 24.1638 29.34 24.1628C29.3553 24.1626 29.3704 24.1592 29.3844 24.153C29.3984 24.1468 29.411 24.1378 29.4215 24.1266C29.432 24.1154 29.44 24.1022 29.4453 24.0878C29.4505 24.0734 29.4528 24.0581 29.452 24.0428C29.4505 24.0142 29.438 23.9872 29.4171 23.9675C29.3963 23.9478 29.3687 23.9368 29.34 23.9368ZM29.9 23.9368C29.8717 23.9395 29.8455 23.9526 29.8264 23.9736C29.8073 23.9946 29.7967 24.0219 29.7967 24.0503C29.7967 24.0787 29.8073 24.1061 29.8264 24.1271C29.8455 24.1481 29.8717 24.1612 29.9 24.1638C29.9157 24.1639 29.9312 24.1607 29.9456 24.1545C29.9599 24.1482 29.9729 24.1391 29.9836 24.1277C29.9943 24.1162 30.0025 24.1027 30.0077 24.0879C30.013 24.0731 30.0151 24.0575 30.014 24.0418C30.0122 24.0132 29.9995 23.9863 29.9785 23.9668C29.9574 23.9472 29.9297 23.9365 29.901 23.9368H29.9ZM30.463 23.9368C30.4347 23.9395 30.4085 23.9526 30.3894 23.9736C30.3703 23.9946 30.3597 24.0219 30.3597 24.0503C30.3597 24.0787 30.3703 24.1061 30.3894 24.1271C30.4085 24.1481 30.4347 24.1612 30.463 24.1638C30.4787 24.1639 30.4942 24.1607 30.5086 24.1545C30.5229 24.1482 30.5359 24.1391 30.5466 24.1277C30.5573 24.1162 30.5655 24.1027 30.5707 24.0879C30.576 24.0731 30.5781 24.0575 30.577 24.0418C30.5752 24.013 30.5623 23.986 30.5411 23.9664C30.5199 23.9469 30.4919 23.9363 30.463 23.9368ZM31.026 23.9368C30.9977 23.9395 30.9715 23.9526 30.9524 23.9736C30.9333 23.9946 30.9227 24.0219 30.9227 24.0503C30.9227 24.0787 30.9333 24.1061 30.9524 24.1271C30.9715 24.1481 30.9977 24.1612 31.026 24.1638C31.0416 24.1637 31.057 24.1604 31.0712 24.1542C31.0855 24.1479 31.0983 24.1387 31.1089 24.1273C31.1195 24.1159 31.1276 24.1024 31.1328 24.0877C31.138 24.073 31.1401 24.0574 31.139 24.0418C31.1372 24.0132 31.1245 23.9863 31.1035 23.9668C31.0824 23.9472 31.0547 23.9365 31.026 23.9368ZM31.588 23.9368C31.5585 23.9374 31.5303 23.9495 31.5097 23.9707C31.4891 23.9919 31.4777 24.0203 31.478 24.0498C31.478 24.1108 31.528 24.1628 31.588 24.1628C31.65 24.1628 31.699 24.1108 31.7 24.0498C31.7006 24.0435 31.7006 24.0371 31.7 24.0308C31.6961 24.0042 31.6825 23.9799 31.6619 23.9625C31.6412 23.9452 31.6149 23.9361 31.588 23.9368ZM32.151 23.9368C32.121 23.9368 32.0923 23.9487 32.0711 23.9699C32.0499 23.9911 32.038 24.0199 32.038 24.0498C32.038 24.1118 32.088 24.1638 32.151 24.1628C32.212 24.1628 32.261 24.1108 32.262 24.0498C32.2626 24.0435 32.2626 24.0371 32.262 24.0308C32.2581 24.0043 32.2447 23.9802 32.2243 23.9629C32.2038 23.9456 32.1778 23.9363 32.151 23.9368ZM32.713 23.9368C32.683 23.9368 32.6543 23.9487 32.6331 23.9699C32.6119 23.9911 32.6 24.0199 32.6 24.0498C32.6 24.1118 32.651 24.1638 32.713 24.1628C32.7283 24.1626 32.7434 24.1592 32.7574 24.153C32.7714 24.1468 32.784 24.1378 32.7945 24.1266C32.805 24.1154 32.813 24.1022 32.8183 24.0878C32.8235 24.0734 32.8258 24.0581 32.825 24.0428C32.8235 24.0142 32.811 23.9872 32.7901 23.9675C32.7693 23.9478 32.7417 23.9368 32.713 23.9368ZM33.276 23.9368C33.246 23.9368 33.2173 23.9487 33.1961 23.9699C33.1749 23.9911 33.163 24.0199 33.163 24.0498C33.163 24.1118 33.213 24.1638 33.276 24.1628C33.2912 24.1624 33.3062 24.159 33.3201 24.1527C33.334 24.1465 33.3465 24.1375 33.3568 24.1263C33.3672 24.1151 33.3752 24.1019 33.3804 24.0876C33.3856 24.0733 33.3878 24.058 33.387 24.0428C33.3855 24.0143 33.3731 23.9875 33.3525 23.9678C33.3319 23.9481 33.3045 23.937 33.276 23.9368ZM33.838 23.9368C33.808 23.9368 33.7793 23.9487 33.7581 23.9699C33.7369 23.9911 33.725 24.0199 33.725 24.0498C33.725 24.1118 33.776 24.1638 33.838 24.1628C33.8533 24.1626 33.8684 24.1592 33.8824 24.153C33.8964 24.1468 33.909 24.1378 33.9195 24.1266C33.93 24.1154 33.938 24.1022 33.9433 24.0878C33.9485 24.0734 33.9508 24.0581 33.95 24.0428C33.9485 24.0142 33.936 23.9872 33.9151 23.9675C33.8943 23.9478 33.8667 23.9368 33.838 23.9368ZM34.398 23.9368C34.3697 23.9395 34.3435 23.9526 34.3244 23.9736C34.3053 23.9946 34.2947 24.0219 34.2947 24.0503C34.2947 24.0787 34.3053 24.1061 34.3244 24.1271C34.3435 24.1481 34.3697 24.1612 34.398 24.1638C34.4137 24.1639 34.4292 24.1607 34.4436 24.1545C34.4579 24.1482 34.4709 24.1391 34.4816 24.1277C34.4923 24.1162 34.5005 24.1027 34.5057 24.0879C34.511 24.0731 34.5131 24.0575 34.512 24.0418C34.5102 24.0132 34.4975 23.9863 34.4765 23.9668C34.4554 23.9472 34.4277 23.9365 34.399 23.9368H34.398ZM14.94 26.7668C14.7253 26.7592 14.5112 26.795 14.3106 26.8719C14.1099 26.9488 13.9268 27.0654 13.7722 27.2146C13.6176 27.3639 13.4947 27.5427 13.4107 27.7405C13.3267 27.9383 13.2834 28.151 13.2834 28.3658C13.2834 28.5807 13.3267 28.7934 13.4107 28.9912C13.4947 29.1889 13.6176 29.3678 13.7722 29.517C13.9268 29.6663 14.1099 29.7828 14.3106 29.8598C14.5112 29.9367 14.7253 29.9724 14.94 29.9648C15.3543 29.9502 15.7467 29.7753 16.0346 29.477C16.3225 29.1788 16.4834 28.7804 16.4834 28.3658C16.4834 27.9513 16.3225 27.5529 16.0346 27.2546C15.7467 26.9564 15.3543 26.7815 14.94 26.7668ZM18.563 26.7668C18.3496 26.7615 18.1373 26.7989 17.9385 26.8769C17.7398 26.9549 17.5587 27.0718 17.4059 27.2209C17.253 27.37 17.1316 27.5481 17.0487 27.7448C16.9657 27.9415 16.923 28.1528 16.923 28.3663C16.923 28.5798 16.9657 28.7911 17.0487 28.9878C17.1316 29.1846 17.253 29.3627 17.4059 29.5118C17.5587 29.6608 17.7398 29.7778 17.9385 29.8558C18.1373 29.9337 18.3496 29.9712 18.563 29.9658C18.9873 29.9658 19.3943 29.7973 19.6944 29.4972C19.9944 29.1971 20.163 28.7902 20.163 28.3658C20.163 27.9415 19.9944 27.5345 19.6944 27.2345C19.3943 26.9344 18.9873 26.7658 18.563 26.7658V26.7668ZM22.188 26.7668C21.9746 26.7615 21.7623 26.7989 21.5635 26.8769C21.3648 26.9549 21.1837 27.0718 21.0309 27.2209C20.878 27.37 20.7566 27.5481 20.6737 27.7448C20.5907 27.9415 20.548 28.1528 20.548 28.3663C20.548 28.5798 20.5907 28.7911 20.6737 28.9878C20.7566 29.1846 20.878 29.3627 21.0309 29.5118C21.1837 29.6608 21.3648 29.7778 21.5635 29.8558C21.7623 29.9337 21.9746 29.9712 22.188 29.9658C22.6123 29.9658 23.0193 29.7973 23.3194 29.4972C23.6194 29.1971 23.788 28.7902 23.788 28.3658C23.788 27.9415 23.6194 27.5345 23.3194 27.2345C23.0193 26.9344 22.6123 26.7658 22.188 26.7658V26.7668ZM25.811 26.7668C25.5976 26.7615 25.3853 26.7989 25.1865 26.8769C24.9878 26.9549 24.8067 27.0718 24.6539 27.2209C24.501 27.37 24.3796 27.5481 24.2967 27.7448C24.2137 27.9415 24.171 28.1528 24.171 28.3663C24.171 28.5798 24.2137 28.7911 24.2967 28.9878C24.3796 29.1846 24.501 29.3627 24.6539 29.5118C24.8067 29.6608 24.9878 29.7778 25.1865 29.8558C25.3853 29.9337 25.5976 29.9712 25.811 29.9658C26.2353 29.9658 26.6423 29.7973 26.9424 29.4972C27.2424 29.1971 27.411 28.7902 27.411 28.3658C27.411 27.9415 27.2424 27.5345 26.9424 27.2345C26.6423 26.9344 26.2353 26.7658 25.811 26.7658V26.7668ZM29.434 26.7668C29.2206 26.7615 29.0083 26.7989 28.8095 26.8769C28.6108 26.9549 28.4297 27.0718 28.2769 27.2209C28.124 27.37 28.0026 27.5481 27.9197 27.7448C27.8367 27.9415 27.794 28.1528 27.794 28.3663C27.794 28.5798 27.8367 28.7911 27.9197 28.9878C28.0026 29.1846 28.124 29.3627 28.2769 29.5118C28.4297 29.6608 28.6108 29.7778 28.8095 29.8558C29.0083 29.9337 29.2206 29.9712 29.434 29.9658C29.8583 29.9658 30.2653 29.7973 30.5654 29.4972C30.8654 29.1971 31.034 28.7902 31.034 28.3658C31.034 27.9415 30.8654 27.5345 30.5654 27.2345C30.2653 26.9344 29.8583 26.7658 29.434 26.7658V26.7668ZM33.059 26.7668C32.8456 26.7615 32.6333 26.7989 32.4345 26.8769C32.2358 26.9549 32.0547 27.0718 31.9019 27.2209C31.749 27.37 31.6276 27.5481 31.5447 27.7448C31.4617 27.9415 31.419 28.1528 31.419 28.3663C31.419 28.5798 31.4617 28.7911 31.5447 28.9878C31.6276 29.1846 31.749 29.3627 31.9019 29.5118C32.0547 29.6608 32.2358 29.7778 32.4345 29.8558C32.6333 29.9337 32.8456 29.9712 33.059 29.9658C33.4833 29.9658 33.8903 29.7973 34.1904 29.4972C34.4904 29.1971 34.659 28.7902 34.659 28.3658C34.659 27.9415 34.4904 27.5345 34.1904 27.2345C33.8903 26.9344 33.4833 26.7658 33.059 26.7658V26.7668ZM13.596 32.9368C13.5813 32.937 13.5668 32.94 13.5532 32.9457C13.5397 32.9515 13.5274 32.9598 13.5171 32.9703C13.5068 32.9808 13.4986 32.9933 13.4931 33.0069C13.4876 33.0205 13.4849 33.0351 13.485 33.0498C13.485 33.1108 13.535 33.1628 13.596 33.1628C13.6261 33.1628 13.6549 33.151 13.6763 33.1298C13.6976 33.1086 13.7097 33.0799 13.71 33.0498C13.7101 33.0349 13.7073 33.02 13.7016 33.0062C13.6959 32.9924 13.6875 32.9798 13.6769 32.9693C13.6662 32.9587 13.6536 32.9504 13.6397 32.9449C13.6258 32.9393 13.611 32.9366 13.596 32.9368ZM14.159 32.9368C14.1289 32.9368 14.1001 32.9487 14.0787 32.9699C14.0574 32.991 14.0453 33.0198 14.045 33.0498C14.045 33.1108 14.097 33.1628 14.159 33.1628C14.219 33.1628 14.269 33.1108 14.27 33.0498C14.2706 33.0435 14.2706 33.0371 14.27 33.0308C14.2661 33.0043 14.2527 32.9802 14.2323 32.9629C14.2118 32.9456 14.1858 32.9363 14.159 32.9368ZM14.721 32.9368C14.691 32.9368 14.6623 32.9487 14.6411 32.9699C14.6199 32.9911 14.608 33.0199 14.608 33.0498C14.608 33.1118 14.659 33.1638 14.721 33.1628C14.782 33.1628 14.831 33.1108 14.832 33.0498C14.8326 33.0435 14.8326 33.0371 14.832 33.0308C14.8281 33.0045 14.8149 32.9805 14.7946 32.9632C14.7744 32.9459 14.7486 32.9365 14.722 32.9368H14.721ZM15.284 32.9368C15.2691 32.9367 15.2543 32.9395 15.2404 32.9451C15.2266 32.9508 15.214 32.9591 15.2034 32.9696C15.1929 32.9801 15.1844 32.9926 15.1787 33.0064C15.173 33.0201 15.17 33.0349 15.17 33.0498C15.17 33.1118 15.222 33.1638 15.284 33.1628C15.344 33.1628 15.394 33.1108 15.395 33.0498V33.0418C15.3932 33.0135 15.3808 32.9869 15.3602 32.9675C15.3396 32.948 15.3124 32.937 15.284 32.9368ZM15.846 32.9368C15.816 32.9368 15.7873 32.9487 15.7661 32.9699C15.7449 32.9911 15.733 33.0199 15.733 33.0498C15.733 33.1118 15.784 33.1638 15.846 33.1628C15.907 33.1628 15.956 33.1108 15.957 33.0498V33.0418C15.9552 33.0137 15.9429 32.9873 15.9226 32.9678C15.9022 32.9483 15.8752 32.9373 15.847 32.9368H15.846ZM16.409 32.9368C16.3941 32.9367 16.3793 32.9395 16.3654 32.9451C16.3516 32.9508 16.339 32.9591 16.3284 32.9696C16.3179 32.9801 16.3094 32.9926 16.3037 33.0064C16.298 33.0201 16.295 33.0349 16.295 33.0498C16.295 33.1118 16.347 33.1638 16.409 33.1628C16.469 33.1628 16.519 33.1108 16.52 33.0498V33.0418C16.5182 33.0135 16.5058 32.9869 16.4852 32.9675C16.4646 32.948 16.4374 32.937 16.409 32.9368ZM16.969 32.9368C16.9394 32.9374 16.9111 32.9495 16.8904 32.9706C16.8696 32.9918 16.858 33.0202 16.858 33.0498C16.858 33.1108 16.908 33.1628 16.969 33.1628C16.9989 33.1626 17.0275 33.1506 17.0486 33.1294C17.0697 33.1083 17.0817 33.0797 17.082 33.0498V33.0418C17.0802 33.0132 17.0675 32.9863 17.0465 32.9668C17.0254 32.9472 16.9977 32.9365 16.969 32.9368ZM17.532 32.9368C17.5022 32.9371 17.4737 32.9491 17.4527 32.9703C17.4318 32.9914 17.42 33.02 17.42 33.0498C17.42 33.1108 17.47 33.1628 17.532 33.1628C17.5619 33.1626 17.5905 33.1506 17.6116 33.1294C17.6327 33.1083 17.6447 33.0797 17.645 33.0498V33.0418C17.6432 33.0132 17.6305 32.9863 17.6095 32.9668C17.5884 32.9472 17.5607 32.9365 17.532 32.9368ZM18.094 32.9368C18.0644 32.9374 18.0361 32.9495 18.0154 32.9706C17.9946 32.9918 17.983 33.0202 17.983 33.0498C17.983 33.1108 18.033 33.1628 18.094 33.1628C18.1239 33.1626 18.1525 33.1506 18.1736 33.1294C18.1947 33.1083 18.2067 33.0797 18.207 33.0498V33.0418C18.2052 33.0132 18.1925 32.9863 18.1715 32.9668C18.1504 32.9472 18.1227 32.9365 18.094 32.9368ZM18.657 32.9368C18.6422 32.9368 18.6276 32.9398 18.6139 32.9454C18.6003 32.9511 18.5879 32.9595 18.5774 32.97C18.567 32.9805 18.5588 32.993 18.5532 33.0067C18.5477 33.0204 18.5449 33.035 18.545 33.0498C18.545 33.1108 18.595 33.1628 18.657 33.1628C18.718 33.1628 18.767 33.1108 18.768 33.0498C18.7686 33.0435 18.7686 33.0371 18.768 33.0308C18.7641 33.0043 18.7507 32.9802 18.7303 32.9629C18.7098 32.9456 18.6838 32.9363 18.657 32.9368ZM19.219 32.9368C19.189 32.9368 19.1603 32.9487 19.1391 32.9699C19.1179 32.9911 19.106 33.0199 19.106 33.0498C19.106 33.1118 19.157 33.1638 19.219 33.1628C19.28 33.1628 19.329 33.1108 19.331 33.0498V33.0418C19.3292 33.0134 19.3166 32.9866 19.2958 32.9671C19.275 32.9476 19.2475 32.9368 19.219 32.9368ZM19.782 32.9368C19.752 32.9368 19.7233 32.9487 19.7021 32.9699C19.6809 32.9911 19.669 33.0199 19.669 33.0498C19.669 33.1118 19.719 33.1638 19.782 33.1628C19.843 33.1628 19.892 33.1108 19.893 33.0498V33.0418C19.8912 33.0135 19.8788 32.9869 19.8582 32.9675C19.8376 32.948 19.8104 32.937 19.782 32.9368ZM20.344 32.9368C20.314 32.9368 20.2853 32.9487 20.2641 32.9699C20.2429 32.9911 20.231 33.0199 20.231 33.0498C20.231 33.1118 20.282 33.1638 20.344 33.1628C20.405 33.1628 20.454 33.1108 20.456 33.0498V33.0418C20.4542 33.0134 20.4416 32.9866 20.4208 32.9671C20.4 32.9476 20.3725 32.9368 20.344 32.9368ZM20.907 32.9368C20.877 32.9368 20.8483 32.9487 20.8271 32.9699C20.8059 32.9911 20.794 33.0199 20.794 33.0498C20.794 33.1118 20.844 33.1638 20.907 33.1628C20.968 33.1628 21.017 33.1108 21.018 33.0498V33.0418C21.0162 33.0135 21.0038 32.9869 20.9832 32.9675C20.9626 32.948 20.9354 32.937 20.907 32.9368ZM21.467 32.9368C21.4523 32.937 21.4378 32.94 21.4242 32.9457C21.4107 32.9515 21.3984 32.9598 21.3881 32.9703C21.3778 32.9808 21.3696 32.9933 21.3641 33.0069C21.3586 33.0205 21.3559 33.0351 21.356 33.0498C21.356 33.1108 21.406 33.1628 21.467 33.1628C21.4971 33.1628 21.5259 33.151 21.5473 33.1298C21.5686 33.1086 21.5807 33.0799 21.581 33.0498V33.0418C21.5792 33.013 21.5663 32.986 21.5451 32.9664C21.5239 32.9469 21.4959 32.9363 21.467 32.9368ZM22.03 32.9368C22.0153 32.937 22.0008 32.94 21.9872 32.9457C21.9737 32.9515 21.9614 32.9598 21.9511 32.9703C21.9408 32.9808 21.9326 32.9933 21.9271 33.0069C21.9216 33.0205 21.9189 33.0351 21.919 33.0498C21.919 33.1108 21.969 33.1628 22.029 33.1628C22.0591 33.1628 22.0879 33.151 22.1093 33.1298C22.1306 33.1086 22.1427 33.0799 22.143 33.0498V33.0418C22.1412 33.0132 22.1285 32.9863 22.1075 32.9668C22.0864 32.9472 22.0587 32.9365 22.03 32.9368ZM22.592 32.9368C22.5773 32.937 22.5628 32.94 22.5492 32.9457C22.5357 32.9515 22.5234 32.9598 22.5131 32.9703C22.5028 32.9808 22.4946 32.9933 22.4891 33.0069C22.4836 33.0205 22.4809 33.0351 22.481 33.0498C22.481 33.1108 22.531 33.1628 22.592 33.1628C22.6221 33.1628 22.6509 33.151 22.6723 33.1298C22.6936 33.1086 22.7057 33.0799 22.706 33.0498C22.706 33.0349 22.703 33.0201 22.6973 33.0064C22.6916 32.9926 22.6831 32.9801 22.6726 32.9696C22.662 32.9591 22.6494 32.9508 22.6355 32.9451C22.6217 32.9395 22.6069 32.9367 22.592 32.9368ZM23.155 32.9368C23.1403 32.937 23.1258 32.94 23.1122 32.9457C23.0987 32.9515 23.0864 32.9598 23.0761 32.9703C23.0658 32.9808 23.0576 32.9933 23.0521 33.0069C23.0466 33.0205 23.0439 33.0351 23.044 33.0498C23.044 33.1108 23.094 33.1628 23.154 33.1628C23.1837 33.1623 23.212 33.1502 23.233 33.1291C23.2539 33.108 23.2657 33.0795 23.266 33.0498C23.2666 33.0435 23.2666 33.0371 23.266 33.0308C23.2619 33.0044 23.2484 32.9804 23.228 32.9631C23.2077 32.9458 23.1817 32.9365 23.155 32.9368ZM23.717 32.9368C23.687 32.9368 23.6583 32.9487 23.6371 32.9699C23.6159 32.9911 23.604 33.0199 23.604 33.0498C23.604 33.1118 23.655 33.1638 23.717 33.1628C23.778 33.1628 23.827 33.1108 23.829 33.0498C23.8296 33.0435 23.8296 33.0371 23.829 33.0308C23.8251 33.0042 23.8115 32.9799 23.7909 32.9625C23.7702 32.9452 23.7439 32.9361 23.717 32.9368ZM24.28 32.9368C24.25 32.9368 24.2213 32.9487 24.2001 32.9699C24.1789 32.9911 24.167 33.0199 24.167 33.0498C24.167 33.1118 24.217 33.1638 24.28 33.1628C24.341 33.1628 24.39 33.1108 24.391 33.0498V33.0418C24.3892 33.0135 24.3768 32.9869 24.3562 32.9675C24.3356 32.948 24.3084 32.937 24.28 32.9368ZM24.842 32.9368C24.812 32.9368 24.7833 32.9487 24.7621 32.9699C24.7409 32.9911 24.729 33.0199 24.729 33.0498C24.729 33.1118 24.78 33.1638 24.842 33.1628C24.903 33.1628 24.952 33.1108 24.954 33.0498V33.0418C24.9522 33.0134 24.9396 32.9866 24.9188 32.9671C24.898 32.9476 24.8705 32.9368 24.842 32.9368ZM25.402 32.9368C25.3725 32.9374 25.3443 32.9495 25.3237 32.9707C25.3031 32.9919 25.2917 33.0203 25.292 33.0498C25.292 33.1108 25.342 33.1628 25.402 33.1628C25.4321 33.1628 25.4609 33.151 25.4823 33.1298C25.5036 33.1086 25.5157 33.0799 25.516 33.0498V33.0418C25.5142 33.0132 25.5015 32.9863 25.4805 32.9668C25.4594 32.9472 25.4317 32.9365 25.403 32.9368H25.402ZM25.965 32.9368C25.9354 32.9374 25.9071 32.9495 25.8864 32.9706C25.8656 32.9918 25.854 33.0202 25.854 33.0498C25.854 33.1108 25.904 33.1628 25.965 33.1628C25.9951 33.1628 26.0239 33.151 26.0453 33.1298C26.0666 33.1086 26.0787 33.0799 26.079 33.0498V33.0418C26.0772 33.013 26.0643 32.986 26.0431 32.9664C26.0219 32.9469 25.9939 32.9363 25.965 32.9368ZM26.528 32.9368C26.4984 32.9374 26.4701 32.9495 26.4494 32.9706C26.4286 32.9918 26.417 33.0202 26.417 33.0498C26.417 33.1108 26.467 33.1628 26.527 33.1628C26.5571 33.1628 26.5859 33.151 26.6073 33.1298C26.6286 33.1086 26.6407 33.0799 26.641 33.0498V33.0418C26.6392 33.0132 26.6265 32.9863 26.6055 32.9668C26.5844 32.9472 26.5567 32.9365 26.528 32.9368ZM27.09 32.9368C27.0604 32.9374 27.0321 32.9495 27.0114 32.9706C26.9906 32.9918 26.979 33.0202 26.979 33.0498C26.979 33.1108 27.029 33.1628 27.09 33.1628C27.1201 33.1628 27.1489 33.151 27.1703 33.1298C27.1916 33.1086 27.2037 33.0799 27.204 33.0498C27.2041 33.0349 27.2013 33.02 27.1956 33.0062C27.1899 32.9924 27.1815 32.9798 27.1709 32.9693C27.1602 32.9587 27.1476 32.9504 27.1337 32.9449C27.1198 32.9393 27.105 32.9366 27.09 32.9368ZM27.653 32.9368C27.6383 32.937 27.6238 32.94 27.6102 32.9457C27.5967 32.9515 27.5844 32.9598 27.5741 32.9703C27.5638 32.9808 27.5556 32.9933 27.5501 33.0069C27.5446 33.0205 27.5419 33.0351 27.542 33.0498C27.542 33.1108 27.592 33.1628 27.652 33.1628C27.714 33.1628 27.763 33.1108 27.764 33.0498C27.7645 33.0435 27.7645 33.0372 27.764 33.0308C27.7601 33.0043 27.7467 32.9802 27.7263 32.9629C27.7058 32.9456 27.6798 32.9363 27.653 32.9368ZM28.215 32.9368C28.185 32.9368 28.1563 32.9487 28.1351 32.9699C28.1139 32.9911 28.102 33.0199 28.102 33.0498C28.102 33.1118 28.153 33.1638 28.215 33.1628C28.277 33.1628 28.325 33.1108 28.327 33.0498V33.0418C28.3252 33.0134 28.3126 32.9866 28.2918 32.9671C28.271 32.9476 28.2435 32.9368 28.215 32.9368ZM28.778 32.9368C28.748 32.9368 28.7193 32.9487 28.6981 32.9699C28.6769 32.9911 28.665 33.0199 28.665 33.0498C28.665 33.1118 28.715 33.1638 28.778 33.1628C28.839 33.1628 28.888 33.1108 28.889 33.0498V33.0418C28.8872 33.0135 28.8748 32.9869 28.8542 32.9675C28.8336 32.948 28.8064 32.937 28.778 32.9368ZM29.34 32.9368C29.31 32.9368 29.2813 32.9487 29.2601 32.9699C29.2389 32.9911 29.227 33.0199 29.227 33.0498C29.227 33.1118 29.278 33.1638 29.34 33.1628C29.402 33.1628 29.45 33.1108 29.452 33.0498V33.0418C29.4502 33.0134 29.4376 32.9866 29.4168 32.9671C29.396 32.9476 29.3685 32.9368 29.34 32.9368ZM29.9 32.9368C29.8705 32.9374 29.8423 32.9495 29.8217 32.9707C29.8011 32.9919 29.7897 33.0203 29.79 33.0498C29.79 33.1108 29.84 33.1628 29.9 33.1628C29.9301 33.1628 29.9589 33.151 29.9803 33.1298C30.0016 33.1086 30.0137 33.0799 30.014 33.0498V33.0418C30.0122 33.0132 29.9995 32.9863 29.9785 32.9668C29.9574 32.9472 29.9297 32.9365 29.901 32.9368H29.9ZM30.463 32.9368C30.4335 32.9374 30.4053 32.9495 30.3847 32.9707C30.3641 32.9919 30.3527 33.0203 30.353 33.0498C30.353 33.1108 30.402 33.1628 30.463 33.1628C30.4931 33.1628 30.5219 33.151 30.5433 33.1298C30.5646 33.1086 30.5767 33.0799 30.577 33.0498V33.0418C30.5752 33.013 30.5623 32.986 30.5411 32.9664C30.5199 32.9469 30.4919 32.9363 30.463 32.9368ZM31.026 32.9368C31.0113 32.937 30.9968 32.94 30.9832 32.9457C30.9697 32.9515 30.9574 32.9598 30.9471 32.9703C30.9368 32.9808 30.9286 32.9933 30.9231 33.0069C30.9176 33.0205 30.9149 33.0351 30.915 33.0498C30.915 33.1108 30.965 33.1628 31.025 33.1628C31.0551 33.1628 31.0839 33.151 31.1053 33.1298C31.1266 33.1086 31.1387 33.0799 31.139 33.0498V33.0418C31.1372 33.0132 31.1245 32.9863 31.1035 32.9668C31.0824 32.9472 31.0547 32.9365 31.026 32.9368ZM31.588 32.9368C31.5585 32.9374 31.5303 32.9495 31.5097 32.9707C31.4891 32.9919 31.4777 33.0203 31.478 33.0498C31.478 33.1108 31.528 33.1628 31.588 33.1628C31.65 33.1628 31.699 33.1108 31.7 33.0498C31.7006 33.0435 31.7006 33.0371 31.7 33.0308C31.6961 33.0042 31.6825 32.9799 31.6619 32.9625C31.6412 32.9452 31.6149 32.9361 31.588 32.9368ZM32.151 32.9368C32.121 32.9368 32.0923 32.9487 32.0711 32.9699C32.0499 32.9911 32.038 33.0199 32.038 33.0498C32.038 33.1118 32.088 33.1638 32.151 33.1628C32.212 33.1628 32.261 33.1108 32.262 33.0498C32.2626 33.0435 32.2626 33.0371 32.262 33.0308C32.2581 33.0043 32.2447 32.9802 32.2243 32.9629C32.2038 32.9456 32.1778 32.9363 32.151 32.9368ZM32.713 32.9368C32.683 32.9368 32.6543 32.9487 32.6331 32.9699C32.6119 32.9911 32.6 33.0199 32.6 33.0498C32.6 33.1118 32.651 33.1638 32.713 33.1628C32.775 33.1628 32.824 33.1108 32.825 33.0498V33.0418C32.8232 33.0134 32.8106 32.9866 32.7898 32.9671C32.769 32.9476 32.7415 32.9368 32.713 32.9368ZM33.276 32.9368C33.246 32.9368 33.2173 32.9487 33.1961 32.9699C33.1749 32.9911 33.163 33.0199 33.163 33.0498C33.163 33.1118 33.213 33.1638 33.276 33.1628C33.337 33.1628 33.386 33.1108 33.387 33.0498V33.0418C33.3852 33.0135 33.3728 32.9869 33.3522 32.9675C33.3316 32.948 33.3044 32.937 33.276 32.9368ZM33.838 32.9368C33.808 32.9368 33.7793 32.9487 33.7581 32.9699C33.7369 32.9911 33.725 33.0199 33.725 33.0498C33.725 33.1118 33.776 33.1638 33.838 33.1628C33.9 33.1628 33.949 33.1108 33.95 33.0498V33.0418C33.9482 33.0134 33.9356 32.9866 33.9148 32.9671C33.894 32.9476 33.8665 32.9368 33.838 32.9368ZM34.398 32.9368C34.3685 32.9374 34.3403 32.9495 34.3197 32.9707C34.2991 32.9919 34.2877 33.0203 34.288 33.0498C34.288 33.1108 34.338 33.1628 34.398 33.1628C34.4281 33.1628 34.4569 33.151 34.4783 33.1298C34.4996 33.1086 34.5117 33.0799 34.512 33.0498V33.0418C34.5102 33.0132 34.4975 32.9863 34.4765 32.9668C34.4554 32.9472 34.4277 32.9365 34.399 32.9368H34.398ZM14.958 35.3958C14.7433 35.3882 14.5292 35.4238 14.3285 35.5007C14.1279 35.5776 13.9448 35.6941 13.7901 35.8433C13.6355 35.9925 13.5124 36.1713 13.4284 36.369C13.3444 36.5668 13.301 36.7794 13.3009 36.9943C13.3009 37.2092 13.3441 37.4219 13.428 37.6197C13.5119 37.8175 13.6348 37.9964 13.7894 38.1457C13.9439 38.2949 14.127 38.4116 14.3276 38.4886C14.5282 38.5656 14.7423 38.6014 14.957 38.5938C15.3713 38.5792 15.7637 38.4043 16.0516 38.106C16.3395 37.8078 16.5004 37.4094 16.5004 36.9948C16.5004 36.5803 16.3395 36.1819 16.0516 35.8836C15.7637 35.5854 15.3713 35.4105 14.957 35.3958H14.958ZM18.581 35.3958C18.3663 35.3882 18.1522 35.4238 17.9515 35.5007C17.7509 35.5776 17.5678 35.6941 17.4131 35.8433C17.2585 35.9925 17.1354 36.1713 17.0514 36.369C16.9674 36.5668 16.924 36.7794 16.9239 36.9943C16.9239 37.2092 16.9671 37.4219 17.051 37.6197C17.1349 37.8175 17.2578 37.9964 17.4124 38.1457C17.5669 38.2949 17.75 38.4116 17.9506 38.4886C18.1512 38.5656 18.3653 38.6014 18.58 38.5938C18.9943 38.5792 19.3867 38.4043 19.6746 38.106C19.9625 37.8078 20.1234 37.4094 20.1234 36.9948C20.1234 36.5803 19.9625 36.1819 19.6746 35.8836C19.3867 35.5854 18.9943 35.4105 18.58 35.3958H18.581ZM22.206 35.3958C21.9913 35.3882 21.7772 35.4238 21.5765 35.5007C21.3759 35.5776 21.1928 35.6941 21.0381 35.8433C20.8835 35.9925 20.7604 36.1713 20.6764 36.369C20.5924 36.5668 20.549 36.7794 20.5489 36.9943C20.5489 37.2092 20.5921 37.4219 20.676 37.6197C20.7599 37.8175 20.8828 37.9964 21.0374 38.1457C21.1919 38.2949 21.375 38.4116 21.5756 38.4886C21.7762 38.5656 21.9903 38.6014 22.205 38.5938C22.6193 38.5792 23.0117 38.4043 23.2996 38.106C23.5875 37.8078 23.7484 37.4094 23.7484 36.9948C23.7484 36.5803 23.5875 36.1819 23.2996 35.8836C23.0117 35.5854 22.6193 35.4105 22.205 35.3958H22.206ZM25.829 35.3958C25.6143 35.3882 25.4002 35.424 25.1996 35.5009C24.9989 35.5778 24.8158 35.6944 24.6612 35.8436C24.5066 35.9929 24.3837 36.1717 24.2997 36.3695C24.2157 36.5673 24.1724 36.78 24.1724 36.9948C24.1724 37.2097 24.2157 37.4224 24.2997 37.6202C24.3837 37.8179 24.5066 37.9968 24.6612 38.146C24.8158 38.2953 24.9989 38.4118 25.1996 38.4888C25.4002 38.5657 25.6143 38.6014 25.829 38.5938C26.2433 38.5792 26.6357 38.4043 26.9236 38.106C27.2115 37.8078 27.3724 37.4094 27.3724 36.9948C27.3724 36.5803 27.2115 36.1819 26.9236 35.8836C26.6357 35.5854 26.2433 35.4105 25.829 35.3958ZM29.452 35.3958C29.2373 35.3882 29.0232 35.4238 28.8225 35.5007C28.6219 35.5776 28.4388 35.6941 28.2841 35.8433C28.1295 35.9925 28.0064 36.1713 27.9224 36.369C27.8384 36.5668 27.795 36.7794 27.7949 36.9943C27.7949 37.2092 27.8381 37.4219 27.922 37.6197C28.0059 37.8175 28.1288 37.9964 28.2834 38.1457C28.4379 38.2949 28.621 38.4116 28.8216 38.4886C29.0222 38.5656 29.2363 38.6014 29.451 38.5938C29.8653 38.5792 30.2577 38.4043 30.5456 38.106C30.8335 37.8078 30.9944 37.4094 30.9944 36.9948C30.9944 36.5803 30.8335 36.1819 30.5456 35.8836C30.2577 35.5854 29.8653 35.4105 29.451 35.3958H29.452ZM33.077 35.3958C32.8623 35.3882 32.6482 35.4238 32.4475 35.5007C32.2469 35.5776 32.0638 35.6941 31.9091 35.8433C31.7545 35.9925 31.6314 36.1713 31.5474 36.369C31.4634 36.5668 31.42 36.7794 31.4199 36.9943C31.4199 37.2092 31.4631 37.4219 31.547 37.6197C31.6309 37.8175 31.7538 37.9964 31.9084 38.1457C32.0629 38.2949 32.246 38.4116 32.4466 38.4886C32.6472 38.5656 32.8613 38.6014 33.076 38.5938C33.4903 38.5792 33.8827 38.4043 34.1706 38.106C34.4585 37.8078 34.6194 37.4094 34.6194 36.9948C34.6194 36.5803 34.4585 36.1819 34.1706 35.8836C33.8827 35.5854 33.4903 35.4105 33.076 35.3958H33.077Z" fill="#333333"/>
</g>
<defs>
<clipPath id="clip0">
<rect width="48" height="48" fill="white"/>
</clipPath>
</defs>
</svg>
