<svg width="48" height="48" viewBox="0 0 48 48" fill="none" xmlns="http://www.w3.org/2000/svg">
<g clip-path="url(#clip0)">
<path fill-rule="evenodd" clip-rule="evenodd" d="M0.0527344 0.0390625V48.0391H48.0527V0.0390625H0.0527344ZM14.1992 4.03906H33.9043C34.7737 4.03906 35.4727 4.73798 35.4727 5.60742V42.4687C35.4727 43.3382 34.7737 44.0391 33.9043 44.0391H14.1992C13.3298 44.0391 12.6309 43.3382 12.6309 42.4687V5.60742C12.6309 4.73798 13.3298 4.03906 14.1992 4.03906ZM22.248 10.1074V10.1094C22.0059 10.1128 21.7651 10.2102 21.582 10.3984L19.7734 12.2559C19.4075 12.6319 19.4146 13.2295 19.791 13.5957C20.1673 13.9606 20.7647 13.9534 21.1309 13.5762L22.9395 11.7168C23.3054 11.3404 23.2983 10.7432 22.9219 10.377C22.7337 10.194 22.4902 10.104 22.248 10.1074ZM27.6387 10.1074V10.1094C27.3965 10.1128 27.1557 10.2102 26.9727 10.3984L25.1641 12.2559C24.7981 12.6319 24.8071 13.2295 25.1836 13.5957C25.5598 13.9606 26.1573 13.9534 26.5234 13.5762L28.332 11.7168C28.698 11.3404 28.689 10.7432 28.3125 10.377C28.1244 10.194 27.8809 10.104 27.6387 10.1074ZM22.248 14.1074V14.1094C22.0059 14.1128 21.7651 14.2102 21.582 14.3984L19.7734 16.2559C19.4075 16.6319 19.4146 17.2295 19.791 17.5957C20.1673 17.9606 20.7647 17.9534 21.1309 17.5762L22.9395 15.7168C23.3054 15.3404 23.2983 14.7432 22.9219 14.377C22.7337 14.194 22.4902 14.104 22.248 14.1074ZM27.6387 14.1074V14.1094C27.3965 14.1128 27.1557 14.2102 26.9727 14.3984L25.1641 16.2559C24.7981 16.6319 24.8071 17.2295 25.1836 17.5957C25.5598 17.9606 26.1573 17.9534 26.5234 17.5762L28.332 15.7168C28.698 15.3404 28.689 14.7432 28.3125 14.377C28.1244 14.194 27.8809 14.104 27.6387 14.1074ZM13.6484 23.9258C13.5865 23.9262 13.5367 23.9767 13.5371 24.0391C13.5376 24.1003 13.5868 24.1535 13.6484 24.1543C13.7104 24.1547 13.761 24.1014 13.7617 24.0391C13.7623 23.9763 13.7112 23.9254 13.6484 23.9258ZM22.6445 23.9258C22.5825 23.9262 22.5328 23.9767 22.5332 24.0391C22.5337 24.1003 22.5829 24.1535 22.6445 24.1543C22.7065 24.1547 22.7571 24.1014 22.7578 24.0391C22.7584 23.9763 22.7073 23.9254 22.6445 23.9258ZM27.1426 23.9258C27.0806 23.9262 27.0309 23.9767 27.0312 24.0391C27.0317 24.1003 27.081 24.1535 27.1426 24.1543C27.2046 24.1547 27.2551 24.1014 27.2559 24.0391C27.2565 23.9763 27.2053 23.9254 27.1426 23.9258ZM14.2109 23.9277C14.149 23.9281 14.0973 23.9787 14.0977 24.041C14.0981 24.1022 14.1493 24.1539 14.2109 24.1543C14.2722 24.1539 14.3215 24.1022 14.3223 24.041C14.3228 24.0335 14.3228 24.029 14.3223 24.0215C14.3146 23.9671 14.2661 23.9274 14.2109 23.9277ZM14.7734 23.9277C14.7107 23.9274 14.6598 23.9783 14.6602 24.041C14.6606 24.103 14.7115 24.1551 14.7734 24.1543C14.8347 24.1539 14.884 24.1022 14.8848 24.041C14.8853 24.0335 14.8853 24.029 14.8848 24.0215C14.8771 23.9671 14.8286 23.9274 14.7734 23.9277ZM15.3359 23.9277C15.2732 23.9274 15.2223 23.9783 15.2227 24.041C15.2231 24.103 15.274 24.1551 15.3359 24.1543C15.3972 24.1539 15.4465 24.1022 15.4473 24.041C15.4473 24.0367 15.4473 24.037 15.4473 24.0332C15.4436 23.9742 15.3953 23.9281 15.3359 23.9277ZM15.8984 23.9277C15.8357 23.9274 15.7848 23.9783 15.7852 24.041C15.7856 24.103 15.8365 24.1551 15.8984 24.1543C15.9597 24.1539 16.009 24.1022 16.0098 24.041C16.0098 24.0367 16.0098 24.037 16.0098 24.0332C16.0061 23.9742 15.9578 23.9281 15.8984 23.9277ZM16.4609 23.9277C16.3982 23.9274 16.3473 23.9783 16.3477 24.041C16.3481 24.103 16.399 24.1551 16.4609 24.1543C16.5222 24.1539 16.5715 24.1022 16.5723 24.041C16.5723 24.0367 16.5723 24.037 16.5723 24.0332C16.5686 23.9742 16.5203 23.9281 16.4609 23.9277ZM17.0215 23.9277C16.9595 23.9281 16.9098 23.9787 16.9102 24.041C16.9106 24.1022 16.9599 24.1539 17.0215 24.1543C17.0835 24.1547 17.134 24.103 17.1348 24.041C17.1349 24.0367 17.1349 24.037 17.1348 24.0332C17.1312 23.9735 17.0816 23.927 17.0215 23.9277ZM17.584 23.9277C17.522 23.9281 17.4723 23.9787 17.4727 24.041C17.4731 24.1022 17.5224 24.1539 17.584 24.1543C17.646 24.1547 17.6965 24.103 17.6973 24.041C17.6974 24.0367 17.6974 24.037 17.6973 24.0332C17.6937 23.9735 17.6441 23.927 17.584 23.9277ZM18.1465 23.9277C18.0845 23.9281 18.0348 23.9787 18.0352 24.041C18.0356 24.1022 18.0849 24.1539 18.1465 24.1543C18.2085 24.1547 18.259 24.103 18.2598 24.041C18.2598 24.0367 18.2598 24.037 18.2598 24.0332C18.2562 23.9735 18.2066 23.927 18.1465 23.9277ZM18.709 23.9277C18.647 23.9281 18.5969 23.9787 18.5977 24.041C18.5981 24.1022 18.6478 24.1539 18.709 24.1543C18.7702 24.1539 18.8196 24.1022 18.8203 24.041C18.8209 24.0335 18.8209 24.029 18.8203 24.0215C18.8127 23.9671 18.7642 23.9274 18.709 23.9277ZM19.2715 23.9277C19.2087 23.9274 19.1578 23.9783 19.1582 24.041C19.1587 24.103 19.2095 24.1551 19.2715 24.1543C19.3327 24.1539 19.382 24.1022 19.3828 24.041C19.3829 24.0367 19.3829 24.037 19.3828 24.0332C19.3792 23.9742 19.3308 23.9281 19.2715 23.9277ZM19.834 23.9277C19.7712 23.9274 19.7203 23.9783 19.7207 24.041C19.7212 24.103 19.772 24.1551 19.834 24.1543C19.8952 24.1539 19.9446 24.1022 19.9453 24.041C19.9454 24.0367 19.9454 24.037 19.9453 24.0332C19.9417 23.9742 19.8933 23.9281 19.834 23.9277ZM20.3965 23.9277C20.3337 23.9274 20.2828 23.9783 20.2832 24.041C20.2837 24.103 20.3345 24.1551 20.3965 24.1543C20.4577 24.1539 20.507 24.1022 20.5078 24.041C20.5079 24.0367 20.5079 24.037 20.5078 24.0332C20.5042 23.9742 20.4558 23.9281 20.3965 23.9277ZM20.959 23.9277C20.8962 23.9274 20.8453 23.9783 20.8457 24.041C20.8462 24.103 20.897 24.1551 20.959 24.1543C21.0202 24.1539 21.0695 24.1022 21.0703 24.041C21.0704 24.0367 21.0704 24.037 21.0703 24.0332C21.0667 23.9742 21.0183 23.9281 20.959 23.9277ZM21.5195 23.9277C21.4575 23.9281 21.4078 23.9787 21.4082 24.041C21.4087 24.1022 21.4579 24.1539 21.5195 24.1543C21.5815 24.1547 21.6321 24.103 21.6328 24.041C21.6329 24.0367 21.6329 24.037 21.6328 24.0332C21.6292 23.9735 21.5796 23.927 21.5195 23.9277ZM22.082 23.9277C22.02 23.9281 21.9703 23.9787 21.9707 24.041C21.9712 24.1022 22.0204 24.1539 22.082 24.1543C22.144 24.1547 22.1946 24.103 22.1953 24.041C22.1954 24.0367 22.1954 24.037 22.1953 24.0332C22.1917 23.9735 22.1421 23.927 22.082 23.9277ZM23.207 23.9277C23.145 23.9281 23.0953 23.9787 23.0957 24.041C23.0962 24.1022 23.1454 24.1539 23.207 24.1543C23.2683 24.1539 23.318 24.1022 23.3184 24.041C23.3189 24.0335 23.3189 24.029 23.3184 24.0215C23.3108 23.9671 23.2618 23.9274 23.207 23.9277ZM23.7695 23.9277C23.7068 23.9274 23.6559 23.9783 23.6562 24.041C23.6567 24.103 23.7075 24.1551 23.7695 24.1543C23.8308 24.1539 23.8801 24.1022 23.8809 24.041C23.8814 24.0335 23.8814 24.029 23.8809 24.0215C23.8733 23.9671 23.8247 23.9274 23.7695 23.9277ZM24.332 23.9277C24.2693 23.9274 24.2184 23.9783 24.2187 24.041C24.2192 24.103 24.27 24.1551 24.332 24.1543C24.3933 24.1539 24.4426 24.1022 24.4434 24.041C24.4434 24.0367 24.4434 24.037 24.4434 24.0332C24.4397 23.9742 24.3914 23.9281 24.332 23.9277ZM24.8945 23.9277C24.8318 23.9274 24.7809 23.9783 24.7812 24.041C24.7817 24.103 24.8325 24.1551 24.8945 24.1543C24.9558 24.1539 25.0051 24.1022 25.0059 24.041C25.006 24.0367 25.006 24.037 25.0059 24.0332C25.0022 23.9742 24.9539 23.9281 24.8945 23.9277ZM25.4551 23.9277C25.3931 23.9281 25.343 23.9787 25.3437 24.041C25.3442 24.1022 25.3938 24.1539 25.4551 24.1543C25.5171 24.1547 25.5676 24.103 25.5684 24.041C25.5685 24.0367 25.5685 24.037 25.5684 24.0332C25.5648 23.9735 25.5152 23.927 25.4551 23.9277ZM26.0176 23.9277C25.9556 23.9281 25.9059 23.9787 25.9062 24.041C25.9067 24.1022 25.956 24.1539 26.0176 24.1543C26.0796 24.1547 26.1301 24.103 26.1309 24.041C26.1309 24.0367 26.1309 24.037 26.1309 24.0332C26.1273 23.9735 26.0777 23.927 26.0176 23.9277ZM26.5801 23.9277C26.5181 23.9281 26.4684 23.9787 26.4687 24.041C26.4692 24.1022 26.5185 24.1539 26.5801 24.1543C26.6421 24.1547 26.6926 24.103 26.6934 24.041C26.6934 24.0367 26.6934 24.037 26.6934 24.0332C26.6898 23.9735 26.6402 23.927 26.5801 23.9277ZM27.7051 23.9277C27.6431 23.9281 27.593 23.9787 27.5937 24.041C27.5942 24.1022 27.6438 24.1539 27.7051 24.1543C27.7663 24.1539 27.8156 24.1022 27.8164 24.041C27.817 24.0335 27.817 24.029 27.8164 24.0215C27.8088 23.9671 27.7603 23.9274 27.7051 23.9277ZM28.2676 23.9277C28.2048 23.9274 28.1539 23.9783 28.1543 24.041C28.1548 24.103 28.2056 24.1551 28.2676 24.1543C28.3288 24.1539 28.3781 24.1022 28.3789 24.041C28.379 24.0367 28.379 24.037 28.3789 24.0332C28.3753 23.9742 28.3269 23.9281 28.2676 23.9277ZM28.8301 23.9277C28.7673 23.9274 28.7164 23.9783 28.7168 24.041C28.7173 24.103 28.7681 24.1551 28.8301 24.1543C28.8913 24.1539 28.9406 24.1022 28.9414 24.041C28.9415 24.0367 28.9415 24.037 28.9414 24.0332C28.9378 23.9742 28.8894 23.9281 28.8301 23.9277ZM29.3926 23.9277C29.3298 23.9274 29.2789 23.9783 29.2793 24.041C29.2798 24.103 29.3306 24.1551 29.3926 24.1543C29.4538 24.1539 29.5031 24.1022 29.5039 24.041C29.504 24.0367 29.504 24.037 29.5039 24.0332C29.5003 23.9742 29.4519 23.9281 29.3926 23.9277ZM29.9531 23.9277C29.8911 23.9281 29.8414 23.9787 29.8418 24.041C29.8423 24.1022 29.8915 24.1539 29.9531 24.1543C30.0151 24.1547 30.0656 24.103 30.0664 24.041C30.0665 24.0367 30.0665 24.037 30.0664 24.0332C30.0628 23.9735 30.0132 23.927 29.9531 23.9277ZM30.5156 23.9277C30.4536 23.9281 30.4039 23.9787 30.4043 24.041C30.4048 24.1022 30.454 24.1539 30.5156 24.1543C30.5776 24.1547 30.6281 24.103 30.6289 24.041C30.629 24.0367 30.629 24.037 30.6289 24.0332C30.6253 23.9735 30.5757 23.927 30.5156 23.9277ZM31.0781 23.9277C31.0161 23.9281 30.9664 23.9787 30.9668 24.041C30.9673 24.1022 31.0165 24.1539 31.0781 24.1543C31.1401 24.1547 31.1906 24.103 31.1914 24.041C31.1915 24.0367 31.1915 24.037 31.1914 24.0332C31.1878 23.9735 31.1382 23.927 31.0781 23.9277ZM31.6406 23.9277C31.5786 23.9281 31.5285 23.9787 31.5293 24.041C31.5298 24.1022 31.5794 24.1539 31.6406 24.1543C31.7019 24.1539 31.7512 24.1022 31.752 24.041C31.7525 24.0335 31.7525 24.029 31.752 24.0215C31.7443 23.9671 31.6958 23.9274 31.6406 23.9277ZM32.2031 23.9277C32.1404 23.9274 32.0895 23.9783 32.0898 24.041C32.0903 24.103 32.1411 24.1551 32.2031 24.1543C32.2644 24.1539 32.3137 24.1022 32.3145 24.041C32.315 24.0335 32.315 24.029 32.3145 24.0215C32.3068 23.9671 32.2583 23.9274 32.2031 23.9277ZM32.7656 23.9277C32.7029 23.9274 32.652 23.9783 32.6523 24.041C32.6528 24.103 32.7036 24.1551 32.7656 24.1543C32.8269 24.1539 32.8762 24.1022 32.877 24.041C32.877 24.0367 32.877 24.037 32.877 24.0332C32.8733 23.9742 32.825 23.9281 32.7656 23.9277ZM33.3281 23.9277C33.2654 23.9274 33.2145 23.9783 33.2148 24.041C33.2153 24.103 33.2661 24.1551 33.3281 24.1543C33.3894 24.1539 33.4391 24.1022 33.4395 24.041C33.4396 24.0367 33.4396 24.037 33.4395 24.0332C33.4358 23.9742 33.3871 23.9281 33.3281 23.9277ZM33.8906 23.9277C33.8279 23.9274 33.777 23.9783 33.7773 24.041C33.7778 24.103 33.8286 24.1551 33.8906 24.1543C33.9519 24.1539 34.0016 24.1022 34.0019 24.041C34.0021 24.0367 34.0021 24.037 34.0019 24.0332C33.9983 23.9742 33.9496 23.9281 33.8906 23.9277ZM34.4512 23.9277C34.3892 23.9281 34.3395 23.9787 34.3398 24.041C34.3403 24.1022 34.3896 24.1539 34.4512 24.1543C34.5131 24.1547 34.5637 24.103 34.5645 24.041C34.5645 24.0367 34.5645 24.037 34.5645 24.0332C34.5608 23.9735 34.5113 23.927 34.4512 23.9277ZM22.248 30.2148V30.2168C22.0059 30.2202 21.7651 30.3176 21.582 30.5059L19.7734 32.3633C19.4075 32.7393 19.4146 33.3369 19.791 33.7031C20.1673 34.068 20.7647 34.0627 21.1309 33.6836L22.9395 31.8242C23.3054 31.4478 23.2983 30.8506 22.9219 30.4844C22.7337 30.3014 22.4902 30.2114 22.248 30.2148ZM27.6387 30.2148V30.2168C27.3965 30.2202 27.1557 30.3176 26.9727 30.5059L25.1641 32.3633C24.7981 32.7393 24.8071 33.3369 25.1836 33.7031C25.5598 34.068 26.1573 34.0627 26.5234 33.6836L28.332 31.8242C28.698 31.4478 28.689 30.8506 28.3125 30.4844C28.1244 30.3014 27.8809 30.2114 27.6387 30.2148ZM22.248 34.2148V34.2168C22.0059 34.2202 21.7651 34.3176 21.582 34.5059L19.7734 36.3633C19.4075 36.7393 19.4146 37.3369 19.791 37.7031C20.1673 38.068 20.7647 38.0627 21.1309 37.6836L22.9395 35.8242C23.3054 35.4478 23.2983 34.8506 22.9219 34.4844C22.7337 34.3014 22.4902 34.2114 22.248 34.2148ZM27.6387 34.2148V34.2168C27.3965 34.2202 27.1557 34.3176 26.9727 34.5059L25.1641 36.3633C24.7981 36.7393 24.8071 37.3369 25.1836 37.7031C25.5598 38.068 26.1573 38.0627 26.5234 37.6836L28.332 35.8242C28.698 35.4478 28.689 34.8506 28.3125 34.4844C28.1244 34.3014 27.8809 34.2114 27.6387 34.2148Z" fill="#333333"/>
</g>
<defs>
<clipPath id="clip0">
<rect width="48" height="48" fill="white"/>
</clipPath>
</defs>
</svg>
