<svg width="48" height="48" viewBox="0 0 48 48" fill="none" xmlns="http://www.w3.org/2000/svg">
<path d="M28.8221 4.08214C23.7421 4.06714 18.5961 4.12314 14.1471 4.12514C13.2771 4.12514 12.5801 4.82414 12.5801 5.69314V42.5551C12.5801 43.4251 13.2771 44.1251 14.1461 44.1251H33.8521C34.7211 44.1251 35.4201 43.4251 35.4201 42.5551V5.69314C35.4201 4.82414 34.7211 4.12514 33.8521 4.12514C32.1755 4.10039 30.4988 4.08606 28.8221 4.08214ZM23.9921 5.15814H24.0001C24.0294 5.15919 24.0572 5.17171 24.0774 5.19302C24.0976 5.21433 24.1086 5.24272 24.1081 5.27207C24.1075 5.30142 24.0955 5.3294 24.0746 5.34997C24.0536 5.37054 24.0254 5.38207 23.9961 5.38207C23.9667 5.38207 23.9385 5.37054 23.9176 5.34997C23.8966 5.3294 23.8846 5.30142 23.8841 5.27207C23.8836 5.24272 23.8946 5.21433 23.9148 5.19302C23.935 5.17171 23.9627 5.15919 23.9921 5.15814ZM23.9921 5.72114H24.0001C24.0294 5.72219 24.0572 5.73471 24.0774 5.75602C24.0976 5.77733 24.1086 5.80572 24.1081 5.83507C24.1075 5.86442 24.0955 5.8924 24.0746 5.91297C24.0536 5.93354 24.0254 5.94507 23.9961 5.94507C23.9667 5.94507 23.9385 5.93354 23.9176 5.91297C23.8966 5.8924 23.8846 5.86442 23.8841 5.83507C23.8836 5.80572 23.8946 5.77733 23.9148 5.75602C23.935 5.73471 23.9627 5.72219 23.9921 5.72114ZM23.9821 6.28314H24.0001C24.0611 6.28414 24.1101 6.33314 24.1111 6.39514C24.1109 6.40959 24.108 6.42386 24.1023 6.43716C24.0967 6.45046 24.0885 6.46251 24.0782 6.47263C24.0678 6.48275 24.0556 6.49074 24.0422 6.49615C24.0289 6.50156 24.0145 6.50427 24.0001 6.50414C23.9854 6.50454 23.9708 6.50199 23.9571 6.49664C23.9434 6.4913 23.9309 6.48326 23.9203 6.473C23.9098 6.46275 23.9014 6.45048 23.8957 6.43694C23.89 6.42339 23.8871 6.40884 23.8871 6.39414C23.8871 6.33914 23.9281 6.29114 23.9821 6.28414V6.28314ZM19.3911 6.50214C19.6045 6.4968 19.8168 6.53423 20.0155 6.61221C20.2143 6.6902 20.3954 6.80716 20.5482 6.95621C20.701 7.10527 20.8225 7.2834 20.9054 7.48012C20.9884 7.67684 21.0311 7.88816 21.0311 8.10164C21.0311 8.31512 20.9884 8.52644 20.9054 8.72316C20.8225 8.91988 20.701 9.09801 20.5482 9.24706C20.3954 9.39612 20.2143 9.51308 20.0155 9.59107C19.8168 9.66905 19.6045 9.70648 19.3911 9.70114C18.9738 9.69071 18.5771 9.51761 18.2857 9.21878C17.9942 8.91995 17.8311 8.51906 17.8311 8.10164C17.8311 7.68422 17.9942 7.28333 18.2857 6.9845C18.5771 6.68567 18.9738 6.51257 19.3911 6.50214ZM28.6091 6.50214C28.8225 6.4968 29.0348 6.53423 29.2335 6.61221C29.4323 6.6902 29.6134 6.80716 29.7662 6.95621C29.919 7.10527 30.0405 7.2834 30.1234 7.48012C30.2064 7.67684 30.2491 7.88816 30.2491 8.10164C30.2491 8.31512 30.2064 8.52644 30.1234 8.72316C30.0405 8.91988 29.919 9.09801 29.7662 9.24706C29.6134 9.39612 29.4323 9.51308 29.2335 9.59107C29.0348 9.66905 28.8225 9.70648 28.6091 9.70114C28.1918 9.69071 27.7951 9.51761 27.5037 9.21878C27.2122 8.91995 27.0491 8.51906 27.0491 8.10164C27.0491 7.68422 27.2122 7.28333 27.5037 6.9845C27.7951 6.68567 28.1918 6.51257 28.6091 6.50214ZM24.0021 6.84414C24.0168 6.84427 24.0313 6.8473 24.0449 6.85305C24.0584 6.8588 24.0707 6.86716 24.081 6.87765C24.0913 6.88814 24.0994 6.90056 24.1049 6.9142C24.1104 6.92784 24.1132 6.94243 24.1131 6.95714C24.1129 6.97185 24.1099 6.98639 24.1042 6.99992C24.0984 7.01346 24.0901 7.02574 24.0796 7.03604C24.0691 7.04635 24.0567 7.05449 24.043 7.06C24.0294 7.0655 24.0148 7.06827 24.0001 7.06814C23.9704 7.06787 23.942 7.05582 23.9212 7.03463C23.9004 7.01344 23.8888 6.98484 23.8891 6.95514C23.8893 6.92544 23.9014 6.89705 23.9226 6.87624C23.9438 6.85542 23.9724 6.84387 24.0021 6.84414ZM23.9921 7.40614H24.0001C24.0294 7.40719 24.0572 7.41971 24.0774 7.44102C24.0976 7.46233 24.1086 7.49072 24.1081 7.52007C24.1075 7.54942 24.0955 7.5774 24.0746 7.59797C24.0536 7.61854 24.0254 7.63007 23.9961 7.63007C23.9667 7.63007 23.9385 7.61854 23.9176 7.59797C23.8966 7.5774 23.8846 7.54942 23.8841 7.52007C23.8836 7.49072 23.8946 7.46233 23.9148 7.44102C23.935 7.41971 23.9627 7.40719 23.9921 7.40614ZM23.9921 7.96614H24.0001C24.0294 7.96719 24.0572 7.97971 24.0774 8.00102C24.0976 8.02233 24.1086 8.05071 24.1081 8.08007C24.1075 8.10942 24.0955 8.1374 24.0746 8.15797C24.0536 8.17854 24.0254 8.19007 23.9961 8.19007C23.9667 8.19007 23.9385 8.17854 23.9176 8.15797C23.8966 8.1374 23.8846 8.10942 23.8841 8.08007C23.8836 8.05071 23.8946 8.02233 23.9148 8.00102C23.935 7.97971 23.9627 7.96719 23.9921 7.96614ZM23.9921 8.52914H24.0001C24.0294 8.53019 24.0572 8.54271 24.0774 8.56402C24.0976 8.58533 24.1086 8.61372 24.1081 8.64307C24.1075 8.67242 24.0955 8.7004 24.0746 8.72097C24.0536 8.74154 24.0254 8.75307 23.9961 8.75307C23.9667 8.75307 23.9385 8.74154 23.9176 8.72097C23.8966 8.7004 23.8846 8.67242 23.8841 8.64307C23.8836 8.61372 23.8946 8.58533 23.9148 8.56402C23.935 8.54271 23.9627 8.53019 23.9921 8.52914ZM23.9921 9.09214H24.0001C24.0146 9.09201 24.029 9.09476 24.0425 9.10022C24.0559 9.10569 24.0682 9.11377 24.0785 9.124C24.0888 9.13423 24.097 9.1464 24.1026 9.15981C24.1082 9.17322 24.1111 9.18761 24.1111 9.20214C24.1111 9.23184 24.0993 9.26033 24.0783 9.28134C24.0573 9.30234 24.0288 9.31414 23.9991 9.31414C23.9694 9.31414 23.9409 9.30234 23.9199 9.28134C23.8989 9.26033 23.8871 9.23184 23.8871 9.20214C23.887 9.17381 23.8979 9.14656 23.9175 9.12607C23.9371 9.10558 23.9638 9.09343 23.9921 9.09214ZM23.9921 9.65414H24.0001C24.0146 9.65401 24.029 9.65676 24.0425 9.66222C24.0559 9.66769 24.0682 9.67577 24.0785 9.686C24.0888 9.69623 24.097 9.7084 24.1026 9.72181C24.1082 9.73522 24.1111 9.74961 24.1111 9.76414C24.1111 9.79384 24.0993 9.82233 24.0783 9.84334C24.0573 9.86434 24.0288 9.87614 23.9991 9.87614C23.9694 9.87614 23.9409 9.86434 23.9199 9.84334C23.8989 9.82233 23.8871 9.79384 23.8871 9.76414C23.887 9.73581 23.8979 9.70856 23.9175 9.68807C23.9371 9.66758 23.9638 9.65543 23.9921 9.65414ZM23.9801 10.2171H24.0001C24.0611 10.2171 24.1101 10.2691 24.1111 10.3301C24.1111 10.3598 24.0993 10.3883 24.0783 10.4093C24.0573 10.4303 24.0288 10.4421 23.9991 10.4421C23.9694 10.4421 23.9409 10.4303 23.9199 10.4093C23.8989 10.3883 23.8871 10.3598 23.8871 10.3301C23.8871 10.2751 23.9261 10.2251 23.9801 10.2171ZM19.3901 10.5021C19.6035 10.4968 19.8158 10.5342 20.0145 10.6122C20.2133 10.6902 20.3944 10.8072 20.5472 10.9562C20.7 11.1053 20.8215 11.2834 20.9044 11.4801C20.9874 11.6768 21.0301 11.8882 21.0301 12.1016C21.0301 12.3151 20.9874 12.5264 20.9044 12.7232C20.8215 12.9199 20.7 13.098 20.5472 13.2471C20.3944 13.3961 20.2133 13.5131 20.0145 13.5911C19.8158 13.6691 19.6035 13.7065 19.3901 13.7011C18.9728 13.6907 18.5761 13.5176 18.2847 13.2188C17.9932 12.92 17.8301 12.5191 17.8301 12.1016C17.8301 11.6842 17.9932 11.2833 18.2847 10.9845C18.5761 10.6857 18.9728 10.5126 19.3901 10.5021ZM28.6101 10.5021C28.8235 10.4968 29.0358 10.5342 29.2345 10.6122C29.4333 10.6902 29.6144 10.8072 29.7672 10.9562C29.92 11.1053 30.0415 11.2834 30.1244 11.4801C30.2074 11.6768 30.2501 11.8882 30.2501 12.1016C30.2501 12.3151 30.2074 12.5264 30.1244 12.7232C30.0415 12.9199 29.92 13.098 29.7672 13.2471C29.6144 13.3961 29.4333 13.5131 29.2345 13.5911C29.0358 13.6691 28.8235 13.7065 28.6101 13.7011C28.1928 13.6907 27.7961 13.5176 27.5047 13.2188C27.2132 12.92 27.0501 12.5191 27.0501 12.1016C27.0501 11.6842 27.2132 11.2833 27.5047 10.9845C27.7961 10.6857 28.1928 10.5126 28.6101 10.5021ZM24.0021 10.7771C24.0641 10.7781 24.1141 10.8311 24.1131 10.8931C24.1131 10.9541 24.0631 11.0001 24.0021 11.0001C23.9876 11.0005 23.9732 10.9981 23.9597 10.9929C23.9462 10.9878 23.9339 10.98 23.9234 10.9701C23.9129 10.9601 23.9045 10.9482 23.8986 10.935C23.8927 10.9218 23.8895 10.9076 23.8891 10.8931C23.8891 10.8301 23.9391 10.7771 24.0021 10.7771ZM24.0021 11.3401C24.0319 11.3404 24.0604 11.3525 24.0813 11.3738C24.1022 11.3951 24.1138 11.4238 24.1136 11.4536C24.1133 11.4835 24.1012 11.512 24.0799 11.5329C24.0586 11.5538 24.0299 11.5654 24.0001 11.5651C23.9853 11.565 23.9707 11.562 23.9571 11.5562C23.9435 11.5504 23.9312 11.542 23.9208 11.5315C23.9105 11.5209 23.9023 11.5085 23.8968 11.4948C23.8912 11.4811 23.8884 11.4664 23.8886 11.4516C23.8887 11.4369 23.8917 11.4223 23.8975 11.4087C23.9033 11.3951 23.9117 11.3827 23.9222 11.3724C23.9328 11.362 23.9453 11.3539 23.959 11.3483C23.9726 11.3428 23.9873 11.34 24.0021 11.3401ZM23.9921 11.9021C24.0075 11.901 24.023 11.9031 24.0376 11.9083C24.0522 11.9135 24.0656 11.9217 24.0769 11.9323C24.0881 11.9429 24.0971 11.9558 24.1032 11.97C24.1092 11.9843 24.1123 11.9997 24.1121 12.0151C24.1111 12.0771 24.0621 12.1291 24.0001 12.1291C23.9716 12.1277 23.9447 12.1156 23.9247 12.0952C23.9047 12.0749 23.893 12.0478 23.892 12.0193C23.891 11.9908 23.9007 11.963 23.9193 11.9413C23.9378 11.9196 23.9638 11.9056 23.9921 11.9021ZM23.9921 12.4651C24.0075 12.464 24.023 12.4661 24.0376 12.4713C24.0522 12.4765 24.0656 12.4847 24.0769 12.4953C24.0881 12.5059 24.0971 12.5188 24.1032 12.533C24.1092 12.5473 24.1123 12.5626 24.1121 12.5781C24.1111 12.6391 24.0621 12.6911 24.0001 12.6921C23.9716 12.6907 23.9447 12.6786 23.9247 12.6582C23.9047 12.6379 23.893 12.6108 23.892 12.5823C23.891 12.5538 23.9007 12.526 23.9193 12.5043C23.9378 12.4826 23.9638 12.4686 23.9921 12.4651ZM23.9921 13.0271C24.0073 13.0257 24.0227 13.0276 24.0373 13.0325C24.0518 13.0374 24.0651 13.0452 24.0764 13.0556C24.0877 13.066 24.0967 13.0786 24.1029 13.0926C24.109 13.1066 24.1121 13.1218 24.1121 13.1371C24.1121 13.167 24.1002 13.1956 24.0791 13.2167C24.058 13.2378 24.0294 13.2496 23.9996 13.2496C23.9697 13.2496 23.9411 13.2378 23.92 13.2167C23.8989 13.1956 23.8871 13.167 23.8871 13.1371C23.887 13.1088 23.8979 13.0816 23.9175 13.0611C23.9371 13.0406 23.9638 13.0284 23.9921 13.0271ZM23.9921 13.5901C24.0073 13.5887 24.0227 13.5906 24.0373 13.5955C24.0518 13.6004 24.0651 13.6082 24.0764 13.6186C24.0877 13.629 24.0967 13.6416 24.1029 13.6556C24.109 13.6696 24.1121 13.6848 24.1121 13.7001C24.1121 13.73 24.1002 13.7586 24.0791 13.7797C24.058 13.8008 24.0294 13.8126 23.9996 13.8126C23.9697 13.8126 23.9411 13.8008 23.92 13.7797C23.8989 13.7586 23.8871 13.73 23.8871 13.7001C23.887 13.6718 23.8979 13.6446 23.9175 13.6241C23.9371 13.6036 23.9638 13.5914 23.9921 13.5901ZM19.3911 14.5021C19.6045 14.4968 19.8168 14.5342 20.0155 14.6122C20.2143 14.6902 20.3954 14.8072 20.5482 14.9562C20.701 15.1053 20.8225 15.2834 20.9054 15.4801C20.9884 15.6768 21.0311 15.8882 21.0311 16.1016C21.0311 16.3151 20.9884 16.5264 20.9054 16.7232C20.8225 16.9199 20.701 17.098 20.5482 17.2471C20.3954 17.3961 20.2143 17.5131 20.0155 17.5911C19.8168 17.6691 19.6045 17.7065 19.3911 17.7011C18.9738 17.6907 18.5771 17.5176 18.2857 17.2188C17.9942 16.92 17.8311 16.5191 17.8311 16.1016C17.8311 15.6842 17.9942 15.2833 18.2857 14.9845C18.5771 14.6857 18.9738 14.5126 19.3911 14.5021ZM28.6091 14.5021C28.8225 14.4968 29.0348 14.5342 29.2335 14.6122C29.4323 14.6902 29.6134 14.8072 29.7662 14.9562C29.919 15.1053 30.0405 15.2834 30.1234 15.4801C30.2064 15.6768 30.2491 15.8882 30.2491 16.1016C30.2491 16.3151 30.2064 16.5264 30.1234 16.7232C30.0405 16.9199 29.919 17.098 29.7662 17.2471C29.6134 17.3961 29.4323 17.5131 29.2335 17.5911C29.0348 17.6691 28.8225 17.7065 28.6091 17.7011C28.1918 17.6907 27.7951 17.5176 27.5037 17.2188C27.2122 16.92 27.0491 16.5191 27.0491 16.1016C27.0491 15.6842 27.2122 15.2833 27.5037 14.9845C27.7951 14.6857 28.1918 14.5126 28.6091 14.5021ZM23.9801 14.7151H24.0001C24.0222 14.7153 24.0438 14.7221 24.0621 14.7346C24.0804 14.747 24.0946 14.7647 24.1029 14.7852C24.1112 14.8057 24.1132 14.8283 24.1087 14.85C24.1042 14.8717 24.0934 14.8915 24.0776 14.907C24.0618 14.9226 24.0417 14.933 24.0199 14.9372C23.9982 14.9413 23.9757 14.9389 23.9553 14.9302C23.9349 14.9216 23.9175 14.9071 23.9054 14.8885C23.8933 14.87 23.8869 14.8483 23.8871 14.8261C23.8871 14.7711 23.9261 14.7221 23.9801 14.7151ZM23.9801 15.2771H24.0001C24.0611 15.2781 24.1101 15.3271 24.1111 15.3891C24.1111 15.4037 24.1082 15.4181 24.1026 15.4315C24.097 15.4449 24.0888 15.457 24.0785 15.4673C24.0682 15.4775 24.0559 15.4856 24.0425 15.4911C24.029 15.4965 24.0146 15.4993 24.0001 15.4991C23.9856 15.5005 23.9711 15.4989 23.9572 15.4946C23.9434 15.4903 23.9305 15.4833 23.9194 15.474C23.9082 15.4647 23.899 15.4533 23.8923 15.4405C23.8855 15.4276 23.8814 15.4136 23.8801 15.3991C23.8788 15.3847 23.8803 15.3701 23.8846 15.3563C23.8889 15.3424 23.8959 15.3296 23.9052 15.3184C23.9145 15.3073 23.9259 15.2981 23.9387 15.2913C23.9516 15.2846 23.9656 15.2805 23.9801 15.2791V15.2771ZM24.0021 15.8381C24.0318 15.8384 24.0602 15.8505 24.081 15.8717C24.1018 15.8928 24.1133 15.9214 24.1131 15.9511C24.1128 15.9808 24.1008 16.0092 24.0796 16.03C24.0584 16.0509 24.0298 16.0624 24.0001 16.0621C23.9704 16.0619 23.942 16.0498 23.9212 16.0286C23.9004 16.0074 23.8888 15.9788 23.8891 15.9491C23.8893 15.9194 23.9014 15.8911 23.9226 15.8702C23.9438 15.8494 23.9724 15.8379 24.0021 15.8381ZM23.9921 17.5261C24.0073 17.5247 24.0227 17.5266 24.0373 17.5315C24.0518 17.5364 24.0651 17.5442 24.0764 17.5546C24.0877 17.565 24.0967 17.5776 24.1029 17.5916C24.109 17.6056 24.1121 17.6208 24.1121 17.6361C24.112 17.6509 24.109 17.6655 24.1033 17.6792C24.0976 17.6928 24.0893 17.7051 24.0788 17.7155C24.0683 17.7259 24.0558 17.7342 24.0422 17.7398C24.0285 17.7454 24.0139 17.7482 23.9991 17.7481C23.9843 17.7481 23.9697 17.7451 23.9561 17.7394C23.9424 17.7337 23.9301 17.7253 23.9197 17.7148C23.9093 17.7043 23.901 17.6919 23.8955 17.6782C23.8899 17.6646 23.887 17.6499 23.8871 17.6351C23.887 17.6068 23.8979 17.5796 23.9175 17.5591C23.9371 17.5386 23.9638 17.5264 23.9921 17.5251V17.5261ZM19.3911 18.5021C19.6045 18.4968 19.8168 18.5342 20.0155 18.6122C20.2143 18.6902 20.3954 18.8072 20.5482 18.9562C20.701 19.1053 20.8225 19.2834 20.9054 19.4801C20.9884 19.6768 21.0311 19.8882 21.0311 20.1016C21.0311 20.3151 20.9884 20.5264 20.9054 20.7232C20.8225 20.9199 20.701 21.098 20.5482 21.2471C20.3954 21.3961 20.2143 21.5131 20.0155 21.5911C19.8168 21.6691 19.6045 21.7065 19.3911 21.7011C18.9738 21.6907 18.5771 21.5176 18.2857 21.2188C17.9942 20.92 17.8311 20.5191 17.8311 20.1016C17.8311 19.6842 17.9942 19.2833 18.2857 18.9845C18.5771 18.6857 18.9738 18.5126 19.3911 18.5021ZM28.6091 18.5021C28.8225 18.4968 29.0348 18.5342 29.2335 18.6122C29.4323 18.6902 29.6134 18.8072 29.7662 18.9562C29.919 19.1053 30.0405 19.2834 30.1234 19.4801C30.2064 19.6768 30.2491 19.8882 30.2491 20.1016C30.2491 20.3151 30.2064 20.5264 30.1234 20.7232C30.0405 20.9199 29.919 21.098 29.7662 21.2471C29.6134 21.3961 29.4323 21.5131 29.2335 21.5911C29.0348 21.6691 28.8225 21.7065 28.6091 21.7011C28.1918 21.6907 27.7951 21.5176 27.5037 21.2188C27.2122 20.92 27.0491 20.5191 27.0491 20.1016C27.0491 19.6842 27.2122 19.2833 27.5037 18.9845C27.7951 18.6857 28.1918 18.5126 28.6091 18.5021ZM23.9801 19.2131H24.0001C24.0222 19.2133 24.0438 19.2201 24.0621 19.2326C24.0804 19.245 24.0946 19.2627 24.1029 19.2832C24.1112 19.3037 24.1132 19.3263 24.1087 19.348C24.1042 19.3697 24.0934 19.3895 24.0776 19.405C24.0618 19.4206 24.0417 19.431 24.0199 19.4352C23.9982 19.4393 23.9757 19.4369 23.9553 19.4282C23.9349 19.4196 23.9175 19.4051 23.9054 19.3865C23.8933 19.368 23.8869 19.3463 23.8871 19.3241C23.8865 19.2975 23.8956 19.2716 23.9127 19.2512C23.9298 19.2308 23.9538 19.2172 23.9801 19.2131ZM24.0021 19.7731C24.0319 19.7734 24.0604 19.7855 24.0813 19.8068C24.1022 19.8281 24.1138 19.8568 24.1136 19.8866C24.1133 19.9165 24.1012 19.945 24.0799 19.9659C24.0586 19.9868 24.0299 19.9984 24.0001 19.9981C23.9853 19.998 23.9707 19.995 23.9571 19.9892C23.9435 19.9834 23.9312 19.975 23.9208 19.9645C23.8999 19.9432 23.8883 19.9145 23.8886 19.8846C23.8888 19.8548 23.901 19.8263 23.9222 19.8054C23.9435 19.7845 23.9722 19.7729 24.0021 19.7731ZM23.9921 21.4611C24.0075 21.46 24.023 21.4621 24.0376 21.4673C24.0522 21.4725 24.0656 21.4807 24.0769 21.4913C24.0881 21.5019 24.0971 21.5148 24.1032 21.529C24.1092 21.5433 24.1123 21.5586 24.1121 21.5741C24.1121 21.5888 24.1092 21.6032 24.1035 21.6167C24.0979 21.6302 24.0896 21.6424 24.0792 21.6526C24.0687 21.6629 24.0564 21.6709 24.0428 21.6763C24.0292 21.6818 24.0147 21.6844 24.0001 21.6841C23.9854 21.6845 23.9708 21.682 23.9571 21.6766C23.9434 21.6713 23.9309 21.6633 23.9203 21.653C23.9098 21.6427 23.9014 21.6305 23.8957 21.6169C23.89 21.6034 23.8871 21.5888 23.8871 21.5741C23.8861 21.5141 23.9331 21.4641 23.9921 21.4611ZM19.3911 22.5021C19.6045 22.4968 19.8168 22.5342 20.0155 22.6122C20.2143 22.6902 20.3954 22.8072 20.5482 22.9562C20.701 23.1053 20.8225 23.2834 20.9054 23.4801C20.9884 23.6768 21.0311 23.8882 21.0311 24.1016C21.0311 24.3151 20.9884 24.5264 20.9054 24.7232C20.8225 24.9199 20.701 25.098 20.5482 25.2471C20.3954 25.3961 20.2143 25.5131 20.0155 25.5911C19.8168 25.6691 19.6045 25.7065 19.3911 25.7011C18.9738 25.6907 18.5771 25.5176 18.2857 25.2188C17.9942 24.92 17.8311 24.5191 17.8311 24.1016C17.8311 23.6842 17.9942 23.2833 18.2857 22.9845C18.5771 22.6857 18.9738 22.5126 19.3911 22.5021ZM28.6091 22.5021C28.8225 22.4968 29.0348 22.5342 29.2335 22.6122C29.4323 22.6902 29.6134 22.8072 29.7662 22.9562C29.919 23.1053 30.0405 23.2834 30.1234 23.4801C30.2064 23.6768 30.2491 23.8882 30.2491 24.1016C30.2491 24.3151 30.2064 24.5264 30.1234 24.7232C30.0405 24.9199 29.919 25.098 29.7662 25.2471C29.6134 25.3961 29.4323 25.5131 29.2335 25.5911C29.0348 25.6691 28.8225 25.7065 28.6091 25.7011C28.1918 25.6907 27.7951 25.5176 27.5037 25.2188C27.2122 24.92 27.0491 24.5191 27.0491 24.1016C27.0491 23.6842 27.2122 23.2833 27.5037 22.9845C27.7951 22.6857 28.1918 22.5126 28.6091 22.5021ZM23.9801 23.7111H24.0001C24.0146 23.711 24.029 23.7138 24.0425 23.7192C24.0559 23.7247 24.0682 23.7328 24.0785 23.743C24.0888 23.7532 24.097 23.7654 24.1026 23.7788C24.1082 23.7922 24.1111 23.8066 24.1111 23.8211C24.1111 23.8508 24.0993 23.8793 24.0783 23.9003C24.0573 23.9213 24.0288 23.9331 23.9991 23.9331C23.9694 23.9331 23.9409 23.9213 23.9199 23.9003C23.8989 23.8793 23.8871 23.8508 23.8871 23.8211C23.8868 23.7947 23.896 23.769 23.9131 23.7488C23.9302 23.7286 23.9539 23.7152 23.9801 23.7111ZM23.9801 24.2741H24.0001C24.0145 24.274 24.0289 24.2767 24.0422 24.2821C24.0556 24.2875 24.0678 24.2955 24.0782 24.3056C24.0885 24.3158 24.0967 24.3278 24.1023 24.3411C24.108 24.3544 24.1109 24.3687 24.1111 24.3831C24.1111 24.4128 24.0993 24.4413 24.0783 24.4623C24.0573 24.4833 24.0288 24.4951 23.9991 24.4951C23.9694 24.4951 23.9409 24.4833 23.9199 24.4623C23.8989 24.4413 23.8871 24.4128 23.8871 24.3831C23.8868 24.3567 23.896 24.331 23.9131 24.3108C23.9302 24.2906 23.9539 24.2772 23.9801 24.2731V24.2741ZM23.9921 24.8341H24.0001C24.0294 24.8352 24.0572 24.8477 24.0774 24.869C24.0976 24.8903 24.1086 24.9187 24.1081 24.9481C24.1075 24.9774 24.0955 25.0054 24.0746 25.026C24.0536 25.0465 24.0254 25.0581 23.9961 25.0581C23.9667 25.0581 23.9385 25.0465 23.9176 25.026C23.8966 25.0054 23.8846 24.9774 23.8841 24.9481C23.8836 24.9187 23.8946 24.8903 23.9148 24.869C23.935 24.8477 23.9627 24.8352 23.9921 24.8341ZM23.9921 25.3971H24.0001C24.0621 25.3971 24.1121 25.4471 24.1111 25.5101C24.1111 25.5247 24.1082 25.5391 24.1026 25.5525C24.097 25.5659 24.0888 25.578 24.0785 25.5883C24.0682 25.5985 24.0559 25.6066 24.0425 25.6121C24.029 25.6175 24.0146 25.6203 24.0001 25.6201C23.9854 25.6205 23.9708 25.618 23.9571 25.6126C23.9434 25.6073 23.9309 25.5993 23.9203 25.589C23.9098 25.5787 23.9014 25.5665 23.8957 25.5529C23.89 25.5394 23.8871 25.5248 23.8871 25.5101C23.8861 25.4501 23.9331 25.4001 23.9921 25.3961V25.3971ZM23.9921 25.9591C24.0075 25.958 24.023 25.9601 24.0376 25.9653C24.0522 25.9705 24.0656 25.9787 24.0769 25.9893C24.0881 25.9999 24.0971 26.0128 24.1032 26.027C24.1092 26.0413 24.1123 26.0567 24.1121 26.0721C24.1121 26.0868 24.1092 26.1012 24.1035 26.1147C24.0979 26.1282 24.0896 26.1404 24.0792 26.1506C24.0687 26.1609 24.0564 26.1689 24.0428 26.1743C24.0292 26.1798 24.0147 26.1824 24.0001 26.1821C23.9854 26.1825 23.9708 26.18 23.9571 26.1746C23.9434 26.1693 23.9309 26.1613 23.9203 26.151C23.9098 26.1407 23.9014 26.1285 23.8957 26.1149C23.89 26.1014 23.8871 26.0868 23.8871 26.0721C23.8861 26.0121 23.9331 25.9621 23.9921 25.9591ZM19.3911 26.5021C19.6045 26.4968 19.8168 26.5342 20.0155 26.6122C20.2143 26.6902 20.3954 26.8072 20.5482 26.9562C20.701 27.1053 20.8225 27.2834 20.9054 27.4801C20.9884 27.6768 21.0311 27.8882 21.0311 28.1016C21.0311 28.3151 20.9884 28.5264 20.9054 28.7232C20.8225 28.9199 20.701 29.098 20.5482 29.2471C20.3954 29.3961 20.2143 29.5131 20.0155 29.5911C19.8168 29.6691 19.6045 29.7065 19.3911 29.7011C18.9738 29.6907 18.5771 29.5176 18.2857 29.2188C17.9942 28.92 17.8311 28.5191 17.8311 28.1016C17.8311 27.6842 17.9942 27.2833 18.2857 26.9845C18.5771 26.6857 18.9738 26.5126 19.3911 26.5021ZM28.6091 26.5021C28.8225 26.4968 29.0348 26.5342 29.2335 26.6122C29.4323 26.6902 29.6134 26.8072 29.7662 26.9562C29.919 27.1053 30.0405 27.2834 30.1234 27.4801C30.2064 27.6768 30.2491 27.8882 30.2491 28.1016C30.2491 28.3151 30.2064 28.5264 30.1234 28.7232C30.0405 28.9199 29.919 29.098 29.7662 29.2471C29.6134 29.3961 29.4323 29.5131 29.2335 29.5911C29.0348 29.6691 28.8225 29.7065 28.6091 29.7011C28.1918 29.6907 27.7951 29.5176 27.5037 29.2188C27.2122 28.92 27.0491 28.5191 27.0491 28.1016C27.0491 27.6842 27.2122 27.2833 27.5037 26.9845C27.7951 26.6857 28.1918 26.5126 28.6091 26.5021ZM23.9921 27.0841H24.0001C24.0294 27.0852 24.0572 27.0977 24.0774 27.119C24.0976 27.1403 24.1086 27.1687 24.1081 27.1981C24.1075 27.2274 24.0955 27.2554 24.0746 27.276C24.0536 27.2965 24.0254 27.3081 23.9961 27.3081C23.9667 27.3081 23.9385 27.2965 23.9176 27.276C23.8966 27.2554 23.8846 27.2274 23.8841 27.1981C23.8836 27.1687 23.8946 27.1403 23.9148 27.119C23.935 27.0977 23.9627 27.0852 23.9921 27.0841ZM23.9921 27.6471H24.0001C24.0145 27.647 24.0289 27.6497 24.0422 27.6551C24.0556 27.6605 24.0678 27.6685 24.0782 27.6786C24.0885 27.6888 24.0967 27.7008 24.1023 27.7141C24.108 27.7274 24.1109 27.7417 24.1111 27.7561C24.1111 27.7858 24.0993 27.8143 24.0783 27.8353C24.0573 27.8563 24.0288 27.8681 23.9991 27.8681C23.9694 27.8681 23.9409 27.8563 23.9199 27.8353C23.8989 27.8143 23.8871 27.7858 23.8871 27.7561C23.887 27.7278 23.8979 27.7006 23.9175 27.6801C23.9371 27.6596 23.9638 27.6474 23.9921 27.6461V27.6471ZM23.9801 28.2091H24.0001C24.0146 28.209 24.029 28.2118 24.0425 28.2172C24.0559 28.2227 24.0682 28.2308 24.0785 28.241C24.0888 28.2512 24.097 28.2634 24.1026 28.2768C24.1082 28.2902 24.1111 28.3046 24.1111 28.3191C24.1111 28.3488 24.0993 28.3773 24.0783 28.3983C24.0573 28.4193 24.0288 28.4311 23.9991 28.4311C23.9694 28.4311 23.9409 28.4193 23.9199 28.3983C23.8989 28.3773 23.8871 28.3488 23.8871 28.3191C23.8868 28.2927 23.896 28.267 23.9131 28.2468C23.9302 28.2266 23.9539 28.2132 23.9801 28.2091ZM24.0021 28.7691C24.0319 28.7694 24.0604 28.7815 24.0813 28.8028C24.1022 28.8241 24.1138 28.8528 24.1136 28.8826C24.1133 28.9125 24.1012 28.941 24.0799 28.9619C24.0586 28.9828 24.0299 28.9944 24.0001 28.9941C23.9854 28.994 23.9708 28.991 23.9573 28.9852C23.9438 28.9795 23.9315 28.9711 23.9212 28.9606C23.9109 28.9501 23.9027 28.9377 23.8972 28.9241C23.8917 28.9104 23.8889 28.8958 23.8891 28.8811C23.8892 28.8664 23.8922 28.8519 23.898 28.8384C23.9037 28.8248 23.9121 28.8125 23.9226 28.8022C23.9331 28.7919 23.9455 28.7838 23.9591 28.7783C23.9728 28.7728 23.9874 28.77 24.0021 28.7701V28.7691ZM23.9921 29.3321C24.0075 29.331 24.023 29.3331 24.0376 29.3383C24.0522 29.3435 24.0656 29.3517 24.0769 29.3623C24.0881 29.3729 24.0971 29.3858 24.1032 29.4C24.1092 29.4143 24.1123 29.4296 24.1121 29.4451C24.1121 29.4598 24.1092 29.4742 24.1035 29.4877C24.0979 29.5012 24.0896 29.5134 24.0792 29.5236C24.0687 29.5339 24.0564 29.5419 24.0428 29.5473C24.0292 29.5528 24.0147 29.5554 24.0001 29.5551C23.9854 29.5555 23.9708 29.553 23.9571 29.5476C23.9434 29.5423 23.9309 29.5343 23.9203 29.524C23.9098 29.5137 23.9014 29.5015 23.8957 29.4879C23.89 29.4744 23.8871 29.4598 23.8871 29.4451C23.8861 29.3851 23.9331 29.3351 23.9921 29.3321ZM23.9921 29.8951C24.0075 29.894 24.023 29.8961 24.0376 29.9013C24.0522 29.9065 24.0656 29.9147 24.0769 29.9253C24.0881 29.9359 24.0971 29.9488 24.1032 29.963C24.1092 29.9773 24.1123 29.9926 24.1121 30.0081C24.1121 30.0228 24.1092 30.0372 24.1035 30.0507C24.0979 30.0642 24.0896 30.0764 24.0792 30.0866C24.0687 30.0969 24.0564 30.1049 24.0428 30.1103C24.0292 30.1158 24.0147 30.1184 24.0001 30.1181C23.9854 30.1185 23.9708 30.116 23.9571 30.1106C23.9434 30.1053 23.9309 30.0973 23.9203 30.087C23.9098 30.0767 23.9014 30.0645 23.8957 30.0509C23.89 30.0374 23.8871 30.0228 23.8871 30.0081C23.8861 29.9481 23.9331 29.8981 23.9921 29.8951ZM23.9921 30.4571C24.0075 30.456 24.023 30.4581 24.0376 30.4633C24.0522 30.4685 24.0656 30.4767 24.0769 30.4873C24.0881 30.4979 24.0971 30.5108 24.1032 30.525C24.1092 30.5393 24.1123 30.5546 24.1121 30.5701C24.1121 30.5848 24.1092 30.5992 24.1035 30.6127C24.0979 30.6262 24.0896 30.6384 24.0792 30.6486C24.0687 30.6589 24.0564 30.6669 24.0428 30.6723C24.0292 30.6778 24.0147 30.6804 24.0001 30.6801C23.9854 30.6805 23.9708 30.678 23.9571 30.6726C23.9434 30.6673 23.9309 30.6593 23.9203 30.649C23.9098 30.6387 23.9014 30.6265 23.8957 30.6129C23.89 30.5994 23.8871 30.5848 23.8871 30.5701C23.8861 30.5101 23.9331 30.4601 23.9921 30.4571ZM19.3911 30.5021C19.6045 30.4968 19.8168 30.5342 20.0155 30.6122C20.2143 30.6902 20.3954 30.8072 20.5482 30.9562C20.701 31.1053 20.8225 31.2834 20.9054 31.4801C20.9884 31.6768 21.0311 31.8882 21.0311 32.1016C21.0311 32.3151 20.9884 32.5264 20.9054 32.7232C20.8225 32.9199 20.701 33.098 20.5482 33.2471C20.3954 33.3961 20.2143 33.5131 20.0155 33.5911C19.8168 33.6691 19.6045 33.7065 19.3911 33.7011C18.9738 33.6907 18.5771 33.5176 18.2857 33.2188C17.9942 32.92 17.8311 32.5191 17.8311 32.1016C17.8311 31.6842 17.9942 31.2833 18.2857 30.9845C18.5771 30.6857 18.9738 30.5126 19.3911 30.5021ZM28.6091 30.5021C28.8225 30.4968 29.0348 30.5342 29.2335 30.6122C29.4323 30.6902 29.6134 30.8072 29.7662 30.9562C29.919 31.1053 30.0405 31.2834 30.1234 31.4801C30.2064 31.6768 30.2491 31.8882 30.2491 32.1016C30.2491 32.3151 30.2064 32.5264 30.1234 32.7232C30.0405 32.9199 29.919 33.098 29.7662 33.2471C29.6134 33.3961 29.4323 33.5131 29.2335 33.5911C29.0348 33.6691 28.8225 33.7065 28.6091 33.7011C28.1918 33.6907 27.7951 33.5176 27.5037 33.2188C27.2122 32.92 27.0491 32.5191 27.0491 32.1016C27.0491 31.6842 27.2122 31.2833 27.5037 30.9845C27.7951 30.6857 28.1918 30.5126 28.6091 30.5021ZM23.9921 31.0181C24.0075 31.0173 24.0229 31.0196 24.0373 31.0249C24.0518 31.0302 24.065 31.0384 24.0762 31.049C24.0875 31.0595 24.0964 31.0723 24.1026 31.0864C24.1087 31.1005 24.112 31.1157 24.1121 31.1311C24.1121 31.161 24.1002 31.1896 24.0791 31.2107C24.058 31.2318 24.0294 31.2436 23.9996 31.2436C23.9697 31.2436 23.9411 31.2318 23.92 31.2107C23.8989 31.1896 23.8871 31.161 23.8871 31.1311C23.8871 31.0711 23.9331 31.0211 23.9921 31.0181ZM23.9921 31.5801H24.0001C24.0294 31.5812 24.0572 31.5937 24.0774 31.615C24.0976 31.6363 24.1086 31.6647 24.1081 31.6941C24.1075 31.7234 24.0955 31.7514 24.0746 31.772C24.0536 31.7925 24.0254 31.8041 23.9961 31.8041C23.9667 31.8041 23.9385 31.7925 23.9176 31.772C23.8966 31.7514 23.8846 31.7234 23.8841 31.6941C23.8836 31.6647 23.8946 31.6363 23.9148 31.615C23.935 31.5937 23.9627 31.5812 23.9921 31.5801ZM23.9801 32.1431H24.0001C24.0222 32.1433 24.0438 32.1501 24.0621 32.1626C24.0804 32.175 24.0946 32.1927 24.1029 32.2132C24.1112 32.2337 24.1132 32.2563 24.1087 32.278C24.1042 32.2997 24.0934 32.3195 24.0776 32.335C24.0618 32.3506 24.0417 32.361 24.0199 32.3652C23.9982 32.3693 23.9757 32.3669 23.9553 32.3582C23.9349 32.3496 23.9175 32.3351 23.9054 32.3165C23.8933 32.298 23.8869 32.2763 23.8871 32.2541C23.8865 32.2275 23.8956 32.2016 23.9127 32.1812C23.9298 32.1608 23.9538 32.1473 23.9801 32.1431ZM23.9801 32.7051H24.0001C24.0146 32.705 24.029 32.7078 24.0425 32.7132C24.0559 32.7187 24.0682 32.7268 24.0785 32.737C24.0888 32.7472 24.097 32.7594 24.1026 32.7728C24.1082 32.7862 24.1111 32.8006 24.1111 32.8151C24.1111 32.8761 24.0611 32.9251 24.0001 32.9251C23.9705 32.9254 23.9421 32.914 23.9209 32.8934C23.8998 32.8728 23.8876 32.8447 23.8871 32.8151C23.8868 32.7887 23.896 32.763 23.9131 32.7428C23.9302 32.7226 23.9539 32.7092 23.9801 32.7051ZM24.0021 33.2651C24.0641 33.2661 24.1141 33.3191 24.1131 33.3811C24.1131 33.4431 24.0631 33.4881 24.0021 33.4881C23.9876 33.4887 23.9732 33.4863 23.9596 33.4812C23.946 33.4761 23.9336 33.4683 23.9231 33.4584C23.9126 33.4484 23.9042 33.4364 23.8983 33.4232C23.8925 33.4099 23.8893 33.3956 23.8891 33.3811C23.8891 33.3181 23.9391 33.2651 24.0021 33.2661V33.2651ZM23.9921 34.3911C24.0075 34.39 24.023 34.3921 24.0376 34.3973C24.0522 34.4025 24.0656 34.4107 24.0769 34.4213C24.0881 34.4319 24.0971 34.4448 24.1032 34.459C24.1092 34.4733 24.1123 34.4887 24.1121 34.5041C24.1121 34.5188 24.1092 34.5332 24.1035 34.5467C24.0979 34.5602 24.0896 34.5724 24.0792 34.5826C24.0687 34.5929 24.0564 34.6009 24.0428 34.6063C24.0292 34.6118 24.0147 34.6144 24.0001 34.6141C23.9854 34.6145 23.9708 34.612 23.9571 34.6066C23.9434 34.6013 23.9309 34.5933 23.9203 34.583C23.9098 34.5727 23.9014 34.5605 23.8957 34.5469C23.89 34.5334 23.8871 34.5188 23.8871 34.5041C23.8861 34.4441 23.9331 34.3941 23.9921 34.3911ZM19.3911 34.5021C19.6045 34.4968 19.8168 34.5342 20.0155 34.6122C20.2143 34.6902 20.3954 34.8072 20.5482 34.9562C20.701 35.1053 20.8225 35.2834 20.9054 35.4801C20.9884 35.6768 21.0311 35.8882 21.0311 36.1016C21.0311 36.3151 20.9884 36.5264 20.9054 36.7232C20.8225 36.9199 20.701 37.098 20.5482 37.2471C20.3954 37.3961 20.2143 37.5131 20.0155 37.5911C19.8168 37.6691 19.6045 37.7065 19.3911 37.7011C18.9738 37.6907 18.5771 37.5176 18.2857 37.2188C17.9942 36.92 17.8311 36.5191 17.8311 36.1016C17.8311 35.6842 17.9942 35.2833 18.2857 34.9845C18.5771 34.6857 18.9738 34.5126 19.3911 34.5021ZM28.6091 34.5021C28.8225 34.4968 29.0348 34.5342 29.2335 34.6122C29.4323 34.6902 29.6134 34.8072 29.7662 34.9562C29.919 35.1053 30.0405 35.2834 30.1234 35.4801C30.2064 35.6768 30.2491 35.8882 30.2491 36.1016C30.2491 36.3151 30.2064 36.5264 30.1234 36.7232C30.0405 36.9199 29.919 37.098 29.7662 37.2471C29.6134 37.3961 29.4323 37.5131 29.2335 37.5911C29.0348 37.6691 28.8225 37.7065 28.6091 37.7011C28.1918 37.6907 27.7951 37.5176 27.5037 37.2188C27.2122 36.92 27.0491 36.5191 27.0491 36.1016C27.0491 35.6842 27.2122 35.2833 27.5037 34.9845C27.7951 34.6857 28.1918 34.5126 28.6091 34.5021ZM23.9921 36.6411C24.0073 36.6397 24.0227 36.6416 24.0373 36.6465C24.0518 36.6514 24.0651 36.6592 24.0764 36.6696C24.0877 36.68 24.0967 36.6926 24.1029 36.7066C24.109 36.7206 24.1121 36.7358 24.1121 36.7511C24.1121 36.781 24.1002 36.8096 24.0791 36.8307C24.058 36.8518 24.0294 36.8636 23.9996 36.8636C23.9697 36.8636 23.9411 36.8518 23.92 36.8307C23.8989 36.8096 23.8871 36.781 23.8871 36.7511C23.887 36.7228 23.8979 36.6956 23.9175 36.6751C23.9371 36.6546 23.9638 36.6424 23.9921 36.6411ZM23.9801 37.2031H24.0001C24.0146 37.203 24.029 37.2058 24.0425 37.2112C24.0559 37.2167 24.0682 37.2248 24.0785 37.235C24.0888 37.2452 24.097 37.2574 24.1026 37.2708C24.1082 37.2842 24.1111 37.2986 24.1111 37.3131C24.1111 37.3428 24.0993 37.3713 24.0783 37.3923C24.0573 37.4133 24.0288 37.4251 23.9991 37.4251C23.9694 37.4251 23.9409 37.4133 23.9199 37.3923C23.8989 37.3713 23.8871 37.3428 23.8871 37.3131C23.8871 37.2571 23.9261 37.2111 23.9801 37.2031ZM23.9921 37.7631H24.0001C24.0294 37.7642 24.0572 37.7767 24.0774 37.798C24.0976 37.8193 24.1086 37.8477 24.1081 37.8771C24.1075 37.9064 24.0955 37.9344 24.0746 37.955C24.0536 37.9755 24.0254 37.9871 23.9961 37.9871C23.9667 37.9871 23.9385 37.9755 23.9176 37.955C23.8966 37.9344 23.8846 37.9064 23.8841 37.8771C23.8836 37.8477 23.8946 37.8193 23.9148 37.798C23.935 37.7767 23.9627 37.7642 23.9921 37.7631ZM23.9921 38.3261C24.0075 38.325 24.023 38.3271 24.0376 38.3323C24.0522 38.3375 24.0656 38.3457 24.0769 38.3563C24.0881 38.3669 24.0971 38.3798 24.1032 38.394C24.1092 38.4083 24.1123 38.4236 24.1121 38.4391C24.1121 38.4538 24.1092 38.4682 24.1035 38.4817C24.0979 38.4952 24.0896 38.5074 24.0792 38.5176C24.0687 38.5279 24.0564 38.5359 24.0428 38.5413C24.0292 38.5468 24.0147 38.5494 24.0001 38.5491C23.9854 38.5495 23.9708 38.547 23.9571 38.5416C23.9434 38.5363 23.9309 38.5283 23.9203 38.518C23.9098 38.5077 23.9014 38.4955 23.8957 38.4819C23.89 38.4684 23.8871 38.4538 23.8871 38.4391C23.8861 38.3791 23.9331 38.3291 23.9921 38.3261ZM19.3911 38.5021C19.6045 38.4968 19.8168 38.5342 20.0155 38.6122C20.2143 38.6902 20.3954 38.8072 20.5482 38.9562C20.701 39.1053 20.8225 39.2834 20.9054 39.4801C20.9884 39.6768 21.0311 39.8882 21.0311 40.1016C21.0311 40.3151 20.9884 40.5264 20.9054 40.7232C20.8225 40.9199 20.701 41.098 20.5482 41.2471C20.3954 41.3961 20.2143 41.5131 20.0155 41.5911C19.8168 41.6691 19.6045 41.7065 19.3911 41.7011C18.9738 41.6907 18.5771 41.5176 18.2857 41.2188C17.9942 40.92 17.8311 40.5191 17.8311 40.1016C17.8311 39.6842 17.9942 39.2833 18.2857 38.9845C18.5771 38.6857 18.9738 38.5126 19.3911 38.5021ZM28.6091 38.5021C28.8225 38.4968 29.0348 38.5342 29.2335 38.6122C29.4323 38.6902 29.6134 38.8072 29.7662 38.9562C29.919 39.1053 30.0405 39.2834 30.1234 39.4801C30.2064 39.6768 30.2491 39.8882 30.2491 40.1016C30.2491 40.3151 30.2064 40.5264 30.1234 40.7232C30.0405 40.9199 29.919 41.098 29.7662 41.2471C29.6134 41.3961 29.4323 41.5131 29.2335 41.5911C29.0348 41.6691 28.8225 41.7065 28.6091 41.7011C28.1918 41.6907 27.7951 41.5176 27.5037 41.2188C27.2122 40.92 27.0491 40.5191 27.0491 40.1016C27.0491 39.6842 27.2122 39.2833 27.5037 38.9845C27.7951 38.6857 28.1918 38.5126 28.6091 38.5021ZM23.9921 38.8891C24.0075 38.888 24.023 38.8901 24.0376 38.8953C24.0522 38.9005 24.0656 38.9087 24.0769 38.9193C24.0881 38.9299 24.0971 38.9428 24.1032 38.957C24.1092 38.9713 24.1123 38.9866 24.1121 39.0021C24.1121 39.0168 24.1092 39.0312 24.1035 39.0447C24.0979 39.0582 24.0896 39.0704 24.0792 39.0806C24.0687 39.0909 24.0564 39.0989 24.0428 39.1043C24.0292 39.1098 24.0147 39.1124 24.0001 39.1121C23.9854 39.1125 23.9708 39.11 23.9571 39.1046C23.9434 39.0993 23.9309 39.0913 23.9203 39.081C23.9098 39.0707 23.9014 39.0585 23.8957 39.0449C23.89 39.0314 23.8871 39.0168 23.8871 39.0021C23.8861 38.9421 23.9331 38.8921 23.9921 38.8891ZM23.9921 39.4511H24.0001C24.0294 39.4522 24.0572 39.4647 24.0774 39.486C24.0976 39.5073 24.1086 39.5357 24.1081 39.5651C24.1075 39.5944 24.0955 39.6224 24.0746 39.643C24.0536 39.6635 24.0254 39.6751 23.9961 39.6751C23.9667 39.6751 23.9385 39.6635 23.9176 39.643C23.8966 39.6224 23.8846 39.5944 23.8841 39.5651C23.8836 39.5357 23.8946 39.5073 23.9148 39.486C23.935 39.4647 23.9627 39.4522 23.9921 39.4511ZM23.9921 40.0141H24.0001C24.0294 40.0152 24.0572 40.0277 24.0774 40.049C24.0976 40.0703 24.1086 40.0987 24.1081 40.1281C24.1075 40.1574 24.0955 40.1854 24.0746 40.206C24.0536 40.2265 24.0254 40.2381 23.9961 40.2381C23.9667 40.2381 23.9385 40.2265 23.9176 40.206C23.8966 40.1854 23.8846 40.1574 23.8841 40.1281C23.8836 40.0987 23.8946 40.0703 23.9148 40.049C23.935 40.0277 23.9627 40.0152 23.9921 40.0141ZM23.9921 40.5761H24.0001C24.0146 40.576 24.029 40.5788 24.0425 40.5842C24.0559 40.5897 24.0682 40.5978 24.0785 40.608C24.0888 40.6182 24.097 40.6304 24.1026 40.6438C24.1082 40.6572 24.1111 40.6716 24.1111 40.6861C24.1111 40.7158 24.0993 40.7443 24.0783 40.7653C24.0573 40.7863 24.0288 40.7981 23.9991 40.7981C23.9694 40.7981 23.9409 40.7863 23.9199 40.7653C23.8989 40.7443 23.8871 40.7158 23.8871 40.6861C23.887 40.6578 23.8979 40.6306 23.9175 40.6101C23.9371 40.5896 23.9638 40.5774 23.9921 40.5761ZM23.9801 41.1391H24.0001C24.0146 41.139 24.029 41.1418 24.0425 41.1472C24.0559 41.1527 24.0682 41.1608 24.0785 41.171C24.0888 41.1812 24.097 41.1934 24.1026 41.2068C24.1082 41.2202 24.1111 41.2346 24.1111 41.2491C24.1111 41.2788 24.0993 41.3073 24.0783 41.3283C24.0573 41.3493 24.0288 41.3611 23.9991 41.3611C23.9694 41.3611 23.9409 41.3493 23.9199 41.3283C23.8989 41.3073 23.8871 41.2788 23.8871 41.2491C23.8868 41.2227 23.896 41.197 23.9131 41.1768C23.9302 41.1566 23.9539 41.1432 23.9801 41.1391ZM23.9801 41.7011H24.0001C24.0146 41.701 24.029 41.7038 24.0425 41.7092C24.0559 41.7147 24.0682 41.7228 24.0785 41.733C24.0888 41.7432 24.097 41.7554 24.1026 41.7688C24.1082 41.7822 24.1111 41.7966 24.1111 41.8111C24.1111 41.8721 24.0611 41.9211 24.0001 41.9211C23.9705 41.9214 23.9421 41.91 23.9209 41.8894C23.8998 41.8688 23.8876 41.8407 23.8871 41.8111C23.8871 41.7551 23.9261 41.7091 23.9801 41.7011ZM24.0021 42.2611C24.0641 42.2631 24.1141 42.3131 24.1131 42.3751C24.1131 42.3897 24.1102 42.4041 24.1046 42.4175C24.099 42.4309 24.0908 42.4431 24.0805 42.4533C24.0702 42.4635 24.0579 42.4716 24.0445 42.4771C24.031 42.4825 24.0166 42.4853 24.0021 42.4851C23.9874 42.4855 23.9728 42.483 23.9591 42.4776C23.9454 42.4723 23.9329 42.4643 23.9223 42.454C23.9118 42.4437 23.9034 42.4315 23.8977 42.4179C23.892 42.4044 23.8891 42.3898 23.8891 42.3751C23.8891 42.3121 23.9391 42.2611 24.0021 42.2621V42.2611ZM23.9921 42.8241C24.0075 42.823 24.023 42.8251 24.0376 42.8303C24.0522 42.8355 24.0656 42.8437 24.0769 42.8543C24.0881 42.8649 24.0971 42.8778 24.1032 42.892C24.1092 42.9063 24.1123 42.9216 24.1121 42.9371C24.1121 42.9518 24.1092 42.9662 24.1035 42.9797C24.0979 42.9932 24.0896 43.0054 24.0792 43.0156C24.0687 43.0259 24.0564 43.0339 24.0428 43.0393C24.0292 43.0448 24.0147 43.0474 24.0001 43.0471C23.9854 43.0475 23.9708 43.045 23.9571 43.0396C23.9434 43.0343 23.9309 43.0263 23.9203 43.016C23.9098 43.0057 23.9014 42.9935 23.8957 42.9799C23.89 42.9664 23.8871 42.9518 23.8871 42.9371C23.8861 42.8771 23.9331 42.8271 23.9921 42.8241Z" fill="#333333"/>
</svg>
