<svg width="48" height="48" viewBox="0 0 48 48" fill="none" xmlns="http://www.w3.org/2000/svg">
<g clip-path="url(#clip0)">
<path fill-rule="evenodd" clip-rule="evenodd" d="M0.0449219 0.0449219V48.0449H48.0449V0.0449219H0.0449219ZM24.043 4.0293C27.3107 4.01909 30.5789 4.02099 33.8965 4.06445C34.7659 4.06445 35.4648 4.76337 35.4648 5.63281V42.4941C35.4648 43.3636 34.7659 44.0645 33.8965 44.0645H14.1914C13.322 44.0645 12.625 43.3636 12.625 42.4941V5.63281C12.625 4.76337 13.322 4.06445 14.1914 4.06445C17.508 4.06445 20.7752 4.04064 24.043 4.0293ZM24.0371 4.56445C23.9782 4.56823 23.932 4.61644 23.9316 4.67578C23.931 4.73852 23.9822 4.78944 24.0449 4.78906C24.1069 4.78831 24.157 4.73776 24.1562 4.67578C24.1558 4.61455 24.1061 4.56521 24.0449 4.56445C24.0423 4.56438 24.0409 4.56438 24.0371 4.56445ZM24.0371 5.12695C23.9782 5.13073 23.932 5.17932 23.9316 5.23828C23.931 5.30102 23.9822 5.35194 24.0449 5.35156C24.1069 5.35081 24.157 5.30026 24.1562 5.23828C24.1558 5.17705 24.1061 5.12771 24.0449 5.12695C24.0423 5.12688 24.0409 5.12688 24.0371 5.12695ZM24.0273 5.68945C23.9729 5.69701 23.9313 5.7456 23.9316 5.80078C23.9322 5.86276 23.9826 5.91249 24.0449 5.91211C24.1062 5.91173 24.1559 5.86239 24.1562 5.80078C24.1558 5.73955 24.1061 5.69021 24.0449 5.68945C24.0373 5.68889 24.0368 5.68889 24.0293 5.68945H24.0273ZM29.2598 6.15039C28.3761 6.15043 27.6602 6.86638 27.6602 7.75C27.6602 8.63365 28.3761 9.34961 29.2598 9.34961C30.1434 9.34961 30.8593 8.63365 30.8594 7.75C30.8593 6.86638 30.1434 6.15043 29.2598 6.15039ZM18.8301 6.24023C17.9464 6.24027 17.2305 6.95623 17.2305 7.83984C17.2305 8.7235 17.9464 9.43945 18.8301 9.43945C19.7137 9.43945 20.4296 8.7235 20.4297 7.83984C20.4296 6.95623 19.7137 6.24027 18.8301 6.24023ZM24.0469 6.25195C23.9841 6.25157 23.9332 6.30249 23.9336 6.36523C23.9341 6.42722 23.9845 6.47732 24.0469 6.47656C24.1081 6.47581 24.1574 6.42684 24.1582 6.36523C24.1588 6.30325 24.1092 6.25271 24.0469 6.25195ZM24.0371 6.81445C23.9774 6.81823 23.9309 6.86764 23.9316 6.92773C23.9321 6.98972 23.9826 7.03944 24.0449 7.03906C24.1062 7.03831 24.1559 6.98896 24.1562 6.92773C24.157 6.86575 24.1069 6.81521 24.0449 6.81445C24.0423 6.81434 24.0409 6.81434 24.0371 6.81445ZM24.0371 7.375C23.9774 7.37878 23.9309 7.42819 23.9316 7.48828C23.9322 7.55026 23.9826 7.59999 24.0449 7.59961C24.1062 7.59885 24.1559 7.54989 24.1562 7.48828C24.1569 7.4263 24.1069 7.37576 24.0449 7.375C24.0423 7.37492 24.0409 7.37492 24.0371 7.375ZM24.0371 7.9375C23.9774 7.94128 23.9309 7.99069 23.9316 8.05078C23.9322 8.11276 23.9826 8.16249 24.0449 8.16211C24.1062 8.16135 24.1559 8.11239 24.1562 8.05078C24.1569 7.9888 24.1069 7.93826 24.0449 7.9375C24.0423 7.93742 24.0409 7.93742 24.0371 7.9375ZM24.0371 8.5C23.9782 8.5034 23.932 8.55237 23.9316 8.61133C23.9311 8.67407 23.9822 8.72499 24.0449 8.72461C24.1069 8.72423 24.157 8.67331 24.1562 8.61133C24.1558 8.5501 24.1061 8.50076 24.0449 8.5C24.0423 8.49992 24.0409 8.49992 24.0371 8.5ZM24.0371 9.0625C23.9782 9.0659 23.932 9.11449 23.9316 9.17383C23.9311 9.23657 23.9822 9.28749 24.0449 9.28711C24.1069 9.28635 24.157 9.23581 24.1562 9.17383C24.1558 9.11298 24.1061 9.06326 24.0449 9.0625C24.0423 9.06239 24.0409 9.06239 24.0371 9.0625ZM24.0254 9.625C23.971 9.63256 23.9313 9.6831 23.9316 9.73828C23.9311 9.80102 23.9822 9.85194 24.0449 9.85156C24.1069 9.85081 24.157 9.80027 24.1562 9.73828C24.1558 9.67705 24.1061 9.62576 24.0449 9.625C24.0373 9.62443 24.0368 9.62443 24.0293 9.625H24.0254ZM24.0469 10.1855C23.9841 10.1852 23.9332 10.238 23.9336 10.3008C23.9341 10.3628 23.9845 10.4105 24.0469 10.4102C24.1081 10.4098 24.1574 10.3624 24.1582 10.3008C24.1588 10.2388 24.1092 10.1863 24.0469 10.1855ZM24.0469 10.748C23.9841 10.7477 23.9332 10.7986 23.9336 10.8613C23.9341 10.9233 23.9845 10.9738 24.0469 10.9727C24.1081 10.9719 24.1574 10.9226 24.1582 10.8613C24.1588 10.7993 24.1092 10.7488 24.0469 10.748ZM24.0371 11.3105C23.9774 11.3143 23.9309 11.3637 23.9316 11.4238C23.9321 11.4858 23.9826 11.5379 24.0449 11.5371C24.1062 11.5367 24.1559 11.4851 24.1562 11.4238C24.1569 11.3618 24.1069 11.3113 24.0449 11.3105C24.0423 11.3104 24.0409 11.3104 24.0371 11.3105ZM29.2598 11.5664C28.3761 11.5664 27.6602 12.2824 27.6602 13.166C27.6602 14.0497 28.3761 14.7656 29.2598 14.7656C30.1434 14.7656 30.8593 14.0497 30.8594 13.166C30.8593 12.2824 30.1434 11.5664 29.2598 11.5664ZM18.8301 11.6562C17.9464 11.6563 17.2305 12.3722 17.2305 13.2559C17.2305 14.1395 17.9464 14.8555 18.8301 14.8555C19.7137 14.8555 20.4296 14.1395 20.4297 13.2559C20.4296 12.3722 19.7137 11.6563 18.8301 11.6562ZM24.0371 11.873C23.9774 11.8768 23.9309 11.9262 23.9316 11.9863C23.9321 12.0483 23.9826 12.1004 24.0449 12.0996C24.1062 12.0989 24.1559 12.0476 24.1562 11.9863C24.1569 11.9243 24.1069 11.8734 24.0449 11.873C24.0423 11.873 24.0409 11.873 24.0371 11.873ZM24.0371 12.4355C23.9782 12.4389 23.932 12.4875 23.9316 12.5469C23.931 12.6096 23.9822 12.6605 24.0449 12.6602C24.1069 12.6598 24.157 12.6089 24.1562 12.5469C24.1558 12.486 24.1061 12.4363 24.0449 12.4355C24.0423 12.4355 24.0409 12.4355 24.0371 12.4355ZM24.0371 12.998C23.9782 13.0014 23.932 13.0504 23.9316 13.1094C23.931 13.1721 23.9822 13.223 24.0449 13.2227C24.1069 13.2219 24.157 13.1714 24.1562 13.1094C24.1558 13.0481 24.1061 12.9988 24.0449 12.998C24.0423 12.998 24.0409 12.998 24.0371 12.998ZM24.0371 13.5605C23.9782 13.5643 23.932 13.6129 23.9316 13.6719C23.931 13.7346 23.9822 13.7855 24.0449 13.7852C24.1069 13.7848 24.157 13.7339 24.1562 13.6719C24.1558 13.6106 24.1061 13.5609 24.0449 13.5605C24.0423 13.5604 24.0409 13.5604 24.0371 13.5605ZM24.0254 14.123C23.971 14.1306 23.9313 14.1796 23.9316 14.2344C23.931 14.2971 23.9822 14.348 24.0449 14.3477C24.1069 14.3469 24.157 14.2964 24.1562 14.2344C24.1558 14.1731 24.1061 14.1234 24.0449 14.123C24.0373 14.1225 24.0368 14.1225 24.0293 14.123H24.0254ZM24.0254 14.6855C23.971 14.6935 23.9313 14.7417 23.9316 14.7969C23.9321 14.8585 23.9826 14.9086 24.0449 14.9082C24.1062 14.9078 24.1559 14.8581 24.1562 14.7969C24.1558 14.7356 24.1061 14.6863 24.0449 14.6855C24.0373 14.685 24.0349 14.685 24.0273 14.6855H24.0254ZM24.0469 15.2461C23.9841 15.2457 23.9332 15.2966 23.9336 15.3594C23.9341 15.4214 23.9845 15.4715 24.0469 15.4707C24.1081 15.4699 24.1574 15.4206 24.1582 15.3594C24.1588 15.2974 24.1092 15.2468 24.0469 15.2461ZM24.0371 15.8086C23.9774 15.8124 23.9309 15.8618 23.9316 15.9219C23.9321 15.9839 23.9826 16.034 24.0449 16.0332C24.1062 16.0324 24.1559 15.9831 24.1562 15.9219C24.1569 15.8599 24.1069 15.8093 24.0449 15.8086C24.0423 15.8085 24.0409 15.8085 24.0371 15.8086ZM24.0371 16.3711C23.9774 16.3749 23.9309 16.4243 23.9316 16.4844C23.9321 16.5464 23.9826 16.5961 24.0449 16.5957C24.1062 16.5949 24.1559 16.546 24.1562 16.4844C24.1569 16.4224 24.1069 16.3718 24.0449 16.3711C24.0423 16.371 24.0409 16.371 24.0371 16.3711ZM24.0371 16.9336C23.9782 16.937 23.932 16.986 23.9316 17.0449C23.931 17.1077 23.9822 17.1586 24.0449 17.1582C24.1069 17.1574 24.157 17.1069 24.1562 17.0449C24.1558 16.9841 24.1061 16.9336 24.0449 16.9336C24.0423 16.9335 24.0409 16.9335 24.0371 16.9336ZM29.2598 16.9785C28.3761 16.9786 27.6602 17.6945 27.6602 18.5781C27.6602 19.4618 28.3761 20.1777 29.2598 20.1777C30.1434 20.1777 30.8593 19.4618 30.8594 18.5781C30.8593 17.6945 30.1434 16.9786 29.2598 16.9785ZM18.8301 17.0684C17.9464 17.0684 17.2305 17.7844 17.2305 18.668C17.2305 19.5516 17.9464 20.2676 18.8301 20.2676C19.7137 20.2676 20.4296 19.5516 20.4297 18.668C20.4296 17.7844 19.7137 17.0684 18.8301 17.0684ZM24.0371 17.4961C23.9782 17.4999 23.932 17.5485 23.9316 17.6074C23.931 17.6702 23.9822 17.723 24.0449 17.7227C24.1069 17.7219 24.157 17.6694 24.1562 17.6074C24.1558 17.5462 24.1061 17.4965 24.0449 17.4961C24.0423 17.496 24.0409 17.496 24.0371 17.4961ZM24.0371 18.0586C23.9782 18.0624 23.932 18.111 23.9316 18.1699C23.931 18.2327 23.9822 18.2855 24.0449 18.2852C24.1069 18.2844 24.157 18.2319 24.1562 18.1699C24.1558 18.1087 24.1061 18.059 24.0449 18.0586C24.0423 18.0585 24.0409 18.0585 24.0371 18.0586ZM24.0254 18.6211C23.971 18.629 23.9313 18.6772 23.9316 18.7324C23.931 18.7952 23.9822 18.848 24.0449 18.8477C24.1069 18.8469 24.157 18.7944 24.1562 18.7324C24.1558 18.6712 24.1061 18.6218 24.0449 18.6211C24.0373 18.6205 24.0349 18.6205 24.0273 18.6211H24.0254ZM24.0469 19.1816C23.9841 19.1813 23.9332 19.2322 23.9336 19.2949C23.9341 19.3569 23.9845 19.409 24.0469 19.4082C24.1081 19.4074 24.1574 19.3561 24.1582 19.2949C24.1588 19.2329 24.1092 19.1824 24.0469 19.1816ZM24.0371 19.7441C23.9774 19.7479 23.9309 19.7973 23.9316 19.8574C23.9321 19.9194 23.9826 19.9715 24.0449 19.9707C24.1062 19.9699 24.1559 19.9186 24.1562 19.8574C24.1569 19.7954 24.1069 19.7445 24.0449 19.7441C24.0423 19.7441 24.0409 19.7441 24.0371 19.7441ZM24.0371 20.3066C23.9774 20.3104 23.9309 20.3598 23.9316 20.4199C23.9321 20.4819 23.9826 20.5336 24.0449 20.5332C24.1062 20.5324 24.1559 20.4815 24.1562 20.4199C24.1569 20.3579 24.1069 20.3074 24.0449 20.3066C24.0423 20.3066 24.0409 20.3066 24.0371 20.3066ZM24.0371 20.8691C23.9774 20.8729 23.9309 20.9223 23.9316 20.9824C23.9321 21.044 23.9826 21.0945 24.0449 21.0937C24.1062 21.0934 24.1559 21.044 24.1562 20.9824C24.1569 20.9204 24.1069 20.8699 24.0449 20.8691C24.0423 20.8691 24.0409 20.8691 24.0371 20.8691ZM24.0371 21.4316C23.9782 21.4354 23.932 21.484 23.9316 21.543C23.931 21.6057 23.9822 21.6586 24.0449 21.6582C24.1069 21.6574 24.157 21.605 24.1562 21.543C24.1558 21.4817 24.1061 21.432 24.0449 21.4316C24.0423 21.4315 24.0409 21.4315 24.0371 21.4316ZM24.0371 21.9941C23.9782 21.9979 23.932 22.0465 23.9316 22.1055C23.931 22.1682 23.9822 22.2211 24.0449 22.2207C24.1069 22.2199 24.157 22.1674 24.1562 22.1055C24.1558 22.0442 24.1061 21.9945 24.0449 21.9941C24.0423 21.994 24.0409 21.994 24.0371 21.9941ZM29.2598 22.3906C28.3761 22.3907 27.6602 23.1066 27.6602 23.9902C27.6602 24.8739 28.3761 25.5898 29.2598 25.5898C30.1434 25.5898 30.8593 24.8739 30.8594 23.9902C30.8593 23.1066 30.1434 22.3907 29.2598 22.3906ZM18.8301 22.4805C17.9464 22.4805 17.2305 23.1965 17.2305 24.0801C17.2305 24.9637 17.9464 25.6797 18.8301 25.6797C19.7137 25.6797 20.4296 24.9637 20.4297 24.0801C20.4296 23.1965 19.7137 22.4805 18.8301 22.4805ZM24.0371 22.5586C23.9782 22.5624 23.932 22.6106 23.9316 22.6699C23.931 22.7327 23.9822 22.7836 24.0449 22.7832C24.1069 22.7824 24.157 22.7319 24.1562 22.6699C24.1558 22.6087 24.1061 22.5593 24.0449 22.5586C24.0423 22.5585 24.0409 22.5585 24.0371 22.5586ZM24.0254 23.1211C23.971 23.1286 23.9313 23.1757 23.9316 23.2305C23.931 23.2932 23.9822 23.3441 24.0449 23.3437C24.1069 23.3434 24.157 23.2924 24.1562 23.2305C24.1558 23.1692 24.1061 23.1218 24.0449 23.1211C24.0373 23.1205 24.0349 23.1205 24.0273 23.1211H24.0254ZM24.0254 23.6836C23.971 23.6911 23.9313 23.7378 23.9316 23.793C23.9321 23.8549 23.9826 23.907 24.0449 23.9062C24.1062 23.9055 24.1559 23.8542 24.1562 23.793C24.1558 23.7321 24.1061 23.6843 24.0449 23.6836C24.0373 23.683 24.0349 23.683 24.0273 23.6836H24.0254ZM24.0371 24.2441C23.9774 24.2479 23.9309 24.2973 23.9316 24.3574C23.9321 24.4194 23.9826 24.4691 24.0449 24.4687C24.1062 24.468 24.1559 24.419 24.1562 24.3574C24.1569 24.2954 24.1069 24.2449 24.0449 24.2441C24.0423 24.2441 24.0409 24.2441 24.0371 24.2441ZM24.0371 24.8066C23.9774 24.8104 23.9309 24.8598 23.9316 24.9199C23.9321 24.9819 23.9826 25.0297 24.0449 25.0293C24.1062 25.0289 24.1559 24.9815 24.1562 24.9199C24.1569 24.8579 24.1069 24.8074 24.0449 24.8066C24.0423 24.8066 24.0409 24.8066 24.0371 24.8066ZM24.0371 25.3691C23.9774 25.3729 23.9309 25.4223 23.9316 25.4824C23.9321 25.544 23.9826 25.5926 24.0449 25.5918C24.1062 25.5914 24.1559 25.544 24.1562 25.4824C24.1569 25.4204 24.1069 25.3699 24.0449 25.3691C24.0423 25.369 24.0409 25.369 24.0371 25.3691ZM24.0371 25.9316C23.9782 25.9354 23.932 25.9836 23.9316 26.043C23.931 26.1057 23.9822 26.1566 24.0449 26.1562C24.1069 26.1555 24.157 26.1049 24.1562 26.043C24.1558 25.9817 24.1061 25.9324 24.0449 25.9316C24.0423 25.9315 24.0409 25.9315 24.0371 25.9316ZM24.0371 26.4941C23.9782 26.4979 23.932 26.5461 23.9316 26.6055C23.931 26.6682 23.9822 26.7191 24.0449 26.7187C24.1069 26.718 24.157 26.6674 24.1562 26.6055C24.1558 26.5442 24.1061 26.4949 24.0449 26.4941C24.0423 26.4941 24.0409 26.4941 24.0371 26.4941ZM24.0371 27.0566C23.9782 27.06 23.932 27.1071 23.9316 27.166C23.931 27.2288 23.9822 27.2797 24.0449 27.2793C24.1069 27.2789 24.157 27.228 24.1562 27.166C24.1558 27.1052 24.1061 27.0574 24.0449 27.0566C24.0423 27.0566 24.0409 27.0566 24.0371 27.0566ZM24.0254 27.6191C23.971 27.6267 23.9313 27.6737 23.9316 27.7285C23.9321 27.7905 23.9826 27.8426 24.0449 27.8418C24.1062 27.841 24.1559 27.7897 24.1562 27.7285C24.1558 27.6673 24.1061 27.6199 24.0449 27.6191C24.0373 27.6186 24.0349 27.6186 24.0273 27.6191H24.0254ZM29.2598 27.8047C28.3761 27.8047 27.6602 28.5207 27.6602 29.4043C27.6602 30.2879 28.3761 31.0039 29.2598 31.0039C30.1434 31.0039 30.8593 30.2879 30.8594 29.4043C30.8593 28.5207 30.1434 27.8047 29.2598 27.8047ZM18.8301 27.8945C17.9464 27.8946 17.2305 28.6105 17.2305 29.4941C17.2305 30.3778 17.9464 31.0937 18.8301 31.0937C19.7137 31.0937 20.4296 30.3778 20.4297 29.4941C20.4296 28.6105 19.7137 27.8946 18.8301 27.8945ZM24.0469 28.1797C23.9841 28.1793 23.9332 28.2302 23.9336 28.293C23.9341 28.3549 23.9845 28.4047 24.0469 28.4043C24.1081 28.4035 24.1574 28.3546 24.1582 28.293C24.1588 28.231 24.1092 28.1804 24.0469 28.1797ZM24.0371 28.7422C23.9774 28.746 23.9309 28.7954 23.9316 28.8555C23.9321 28.9171 23.9826 28.9656 24.0449 28.9648C24.1062 28.9645 24.1559 28.9171 24.1562 28.8555C24.1569 28.7935 24.1069 28.7429 24.0449 28.7422C24.0423 28.7421 24.0409 28.7421 24.0371 28.7422ZM24.0371 29.3047C23.9774 29.3085 23.9309 29.3579 23.9316 29.418C23.9321 29.4799 23.9826 29.5277 24.0449 29.5273C24.1062 29.527 24.1559 29.4796 24.1562 29.418C24.1569 29.356 24.1069 29.3054 24.0449 29.3047C24.0423 29.3046 24.0409 29.3046 24.0371 29.3047ZM24.0371 29.8672C23.9774 29.871 23.9309 29.9204 23.9316 29.9805C23.9321 30.0421 23.9826 30.091 24.0449 30.0898C24.1062 30.0895 24.1559 30.0417 24.1562 29.9805C24.1569 29.9185 24.1069 29.8679 24.0449 29.8672C24.0423 29.8671 24.0409 29.8671 24.0371 29.8672ZM24.0371 30.4277C23.9782 30.4315 23.932 30.4817 23.9316 30.541C23.931 30.6038 23.9822 30.6547 24.0449 30.6543C24.1069 30.6535 24.157 30.603 24.1562 30.541C24.1558 30.4798 24.1061 30.4285 24.0449 30.4277C24.0423 30.4276 24.0409 30.4276 24.0371 30.4277ZM24.0371 30.9902C23.9782 30.994 23.932 31.0426 23.9316 31.1016C23.931 31.1643 23.9822 31.2152 24.0449 31.2148C24.1069 31.2141 24.157 31.1635 24.1562 31.1016C24.1558 31.0403 24.1061 30.991 24.0449 30.9902C24.0423 30.9902 24.0409 30.9902 24.0371 30.9902ZM24.0254 31.5527C23.971 31.5607 23.9313 31.6089 23.9316 31.6641C23.931 31.7268 23.9822 31.7777 24.0449 31.7773C24.1069 31.7766 24.157 31.726 24.1562 31.6641C24.1558 31.6028 24.1061 31.5535 24.0449 31.5527C24.0373 31.5522 24.0349 31.5522 24.0273 31.5527H24.0254ZM24.0254 32.1152C23.971 32.1228 23.9313 32.1698 23.9316 32.2246C23.9321 32.2866 23.9826 32.3363 24.0449 32.3359C24.1062 32.3352 24.1559 32.2862 24.1562 32.2246C24.1558 32.1634 24.1061 32.1156 24.0449 32.1152C24.0373 32.1147 24.0349 32.1147 24.0273 32.1152H24.0254ZM24.0469 32.6758C23.9841 32.6754 23.9332 32.7283 23.9336 32.791C23.9341 32.853 23.9845 32.8988 24.0469 32.8984C24.1081 32.8981 24.1574 32.8526 24.1582 32.791C24.1588 32.729 24.1092 32.6765 24.0469 32.6758ZM29.2598 33.2168C28.3761 33.2168 27.6602 33.9328 27.6602 34.8164C27.6602 35.7001 28.3761 36.416 29.2598 36.416C30.1434 36.416 30.8593 35.7001 30.8594 34.8164C30.8593 33.9328 30.1434 33.2168 29.2598 33.2168ZM24.0371 33.2383C23.9774 33.2421 23.9309 33.2915 23.9316 33.3516C23.9321 33.4135 23.9826 33.4636 24.0449 33.4629C24.1062 33.4621 24.1559 33.4132 24.1562 33.3516C24.1569 33.2896 24.1069 33.239 24.0449 33.2383C24.0423 33.2382 24.0409 33.2382 24.0371 33.2383ZM18.8301 33.3066C17.9464 33.3067 17.2305 34.0226 17.2305 34.9062C17.2305 35.7899 17.9464 36.5059 18.8301 36.5059C19.7137 36.5059 20.4296 35.7899 20.4297 34.9062C20.4296 34.0226 19.7137 33.3067 18.8301 33.3066ZM24.0371 33.8008C23.9774 33.8046 23.9309 33.854 23.9316 33.9141C23.9321 33.9757 23.9826 34.0258 24.0449 34.0254C24.1062 34.025 24.1559 33.9757 24.1562 33.9141C24.1569 33.8521 24.1069 33.8015 24.0449 33.8008C24.0423 33.8007 24.0409 33.8007 24.0371 33.8008ZM24.0371 34.3633C23.9782 34.3671 23.932 34.4153 23.9316 34.4746C23.931 34.5373 23.9822 34.5883 24.0449 34.5879C24.1069 34.5871 24.157 34.5366 24.1562 34.4746C24.1558 34.4134 24.1061 34.364 24.0449 34.3633C24.0423 34.3632 24.0409 34.3632 24.0371 34.3633ZM24.0371 34.9258C23.9782 34.9296 23.932 34.9781 23.9316 35.0371C23.931 35.0998 23.9822 35.1508 24.0449 35.1504C24.1069 35.1496 24.157 35.0991 24.1562 35.0371C24.1558 34.9759 24.1061 34.9265 24.0449 34.9258C24.0423 34.9257 24.0409 34.9257 24.0371 34.9258ZM24.0371 35.4883C23.9782 35.4921 23.932 35.5406 23.9316 35.5996C23.931 35.6623 23.9822 35.7133 24.0449 35.7129C24.1069 35.7121 24.157 35.6616 24.1562 35.5996C24.1558 35.5384 24.1061 35.489 24.0449 35.4883C24.0423 35.4882 24.0409 35.4882 24.0371 35.4883ZM24.0371 36.0508C23.9782 36.0542 23.932 36.1028 23.9316 36.1621C23.931 36.2248 23.9822 36.2758 24.0449 36.2754C24.1069 36.275 24.157 36.2241 24.1562 36.1621C24.1558 36.1013 24.1061 36.0515 24.0449 36.0508C24.0423 36.0507 24.0409 36.0507 24.0371 36.0508ZM24.0254 36.6133C23.971 36.6208 23.9313 36.6694 23.9316 36.7246C23.9321 36.7866 23.9826 36.8371 24.0449 36.8359C24.1062 36.8352 24.1559 36.7858 24.1562 36.7246C24.1558 36.6634 24.1061 36.614 24.0449 36.6133C24.0373 36.6127 24.0349 36.6127 24.0273 36.6133H24.0254ZM24.0371 37.1738C23.9774 37.1776 23.9309 37.227 23.9316 37.2871C23.9321 37.3491 23.9826 37.3988 24.0449 37.3984C24.1062 37.3977 24.1559 37.3487 24.1562 37.2871C24.1569 37.2251 24.1069 37.1746 24.0449 37.1738C24.0423 37.1738 24.0409 37.1738 24.0371 37.1738ZM24.0371 37.7363C23.9774 37.7401 23.9309 37.7895 23.9316 37.8496C23.9321 37.9112 23.9826 37.9617 24.0449 37.9609C24.1062 37.9606 24.1559 37.9112 24.1562 37.8496C24.1569 37.7876 24.1069 37.7371 24.0449 37.7363C24.0423 37.7362 24.0409 37.7362 24.0371 37.7363ZM24.0371 38.2988C23.9774 38.3026 23.9309 38.352 23.9316 38.4121C23.9321 38.4737 23.9826 38.5238 24.0449 38.5234C24.1062 38.5231 24.1559 38.4737 24.1562 38.4121C24.1569 38.3501 24.1069 38.2996 24.0449 38.2988C24.0423 38.2987 24.0409 38.2987 24.0371 38.2988ZM29.2598 38.6289C28.3761 38.6289 27.6602 39.3449 27.6602 40.2285C27.6602 41.1122 28.3761 41.8281 29.2598 41.8281C30.1434 41.8281 30.8593 41.1122 30.8594 40.2285C30.8593 39.3449 30.1434 38.6289 29.2598 38.6289ZM18.8301 38.7187C17.9464 38.7188 17.2305 39.4347 17.2305 40.3184C17.2305 41.202 17.9464 41.918 18.8301 41.918C19.7137 41.918 20.4296 41.202 20.4297 40.3184C20.4296 39.4347 19.7137 38.7188 18.8301 38.7187ZM24.0371 38.8613C23.9782 38.8651 23.932 38.9133 23.9316 38.9727C23.931 39.0354 23.9822 39.0863 24.0449 39.0859C24.1069 39.0852 24.157 39.0346 24.1562 38.9727C24.1558 38.9114 24.1061 38.8621 24.0449 38.8613C24.0423 38.8612 24.0409 38.8612 24.0371 38.8613ZM24.0371 39.4238C23.9782 39.4276 23.932 39.4762 23.9316 39.5352C23.931 39.5979 23.9822 39.6488 24.0449 39.6484C24.1069 39.6477 24.157 39.5971 24.1562 39.5352C24.1558 39.4739 24.1061 39.4246 24.0449 39.4238C24.0423 39.4238 24.0409 39.4238 24.0371 39.4238ZM24.0371 39.9863C23.9782 39.9897 23.932 40.0387 23.9316 40.0977C23.931 40.1604 23.9822 40.2113 24.0449 40.2109C24.1069 40.2106 24.157 40.1596 24.1562 40.0977C24.1558 40.0364 24.1061 39.9871 24.0449 39.9863C24.0423 39.9862 24.0409 39.9862 24.0371 39.9863ZM24.0254 40.5488C23.971 40.5564 23.9313 40.605 23.9316 40.6602C23.931 40.7229 23.9822 40.7738 24.0449 40.7734C24.1069 40.7727 24.157 40.7221 24.1562 40.6602C24.1558 40.5993 24.1061 40.5496 24.0449 40.5488C24.0373 40.5483 24.0349 40.5483 24.0273 40.5488H24.0254ZM24.0254 41.1113C23.971 41.1189 23.9313 41.1675 23.9316 41.2227C23.9321 41.2846 23.9826 41.3347 24.0449 41.334C24.1062 41.3332 24.1559 41.2843 24.1562 41.2227C24.1558 41.1614 24.1061 41.1121 24.0449 41.1113C24.0373 41.1108 24.0349 41.1108 24.0273 41.1113H24.0254ZM24.0469 41.6719C23.9841 41.6715 23.9332 41.7224 23.9336 41.7852C23.9341 41.8468 23.9845 41.8969 24.0469 41.8965C24.1081 41.8961 24.1574 41.8468 24.1582 41.7852C24.1588 41.7232 24.1092 41.6726 24.0469 41.6719ZM24.0371 42.2305C23.9774 42.2342 23.9309 42.2837 23.9316 42.3437C23.9321 42.4057 23.9826 42.4555 24.0449 42.4551C24.1062 42.4547 24.1559 42.4054 24.1562 42.3437C24.1569 42.2818 24.1069 42.2312 24.0449 42.2305C24.0423 42.2303 24.0409 42.2303 24.0371 42.2305Z" fill="#333333"/>
</g>
<defs>
<clipPath id="clip0">
<rect width="48" height="48" fill="white"/>
</clipPath>
</defs>
</svg>
