<svg width="48" height="48" viewBox="0 0 48 48" fill="none" xmlns="http://www.w3.org/2000/svg">
<g clip-path="url(#clip0)">
<path fill-rule="evenodd" clip-rule="evenodd" d="M0 0.03125V48.0312H48V0.03125H0ZM14.1465 4.03125H33.8516C34.721 4.03125 35.4199 4.73017 35.4199 5.59961V42.4609C35.4199 43.3304 34.721 44.0312 33.8516 44.0312H14.1465C13.277 44.0312 12.5781 43.3304 12.5781 42.4609V5.59961C12.5781 4.73017 13.277 4.03125 14.1465 4.03125ZM23.9863 14.0391C23.1027 14.0391 22.3868 14.7551 22.3867 15.6387C22.3868 16.5223 23.1027 17.2383 23.9863 17.2383C24.8699 17.2383 25.5859 16.5223 25.5859 15.6387C25.5859 14.7551 24.8699 14.0391 23.9863 14.0391ZM24.0332 18.6797C23.1495 18.6797 22.4336 19.3957 22.4336 20.2793C22.4336 21.1629 23.1495 21.8789 24.0332 21.8789C24.9168 21.8789 25.6328 21.1629 25.6328 20.2793C25.6328 19.3957 24.9168 18.6797 24.0332 18.6797ZM13.5977 31.8848C13.5357 31.8851 13.484 31.9357 13.4844 31.998C13.4849 32.0589 13.536 32.1086 13.5977 32.1094C13.6596 32.1101 13.7082 32.0604 13.709 31.998C13.7096 31.9353 13.6604 31.8844 13.5977 31.8848ZM15.2852 31.8848C15.2224 31.8844 15.1715 31.9353 15.1719 31.998C15.1724 32.0597 15.2232 32.1101 15.2852 32.1094C15.3464 32.109 15.3957 32.0593 15.3965 31.998C15.3966 31.9943 15.3966 31.994 15.3965 31.9902C15.3929 31.9313 15.3445 31.8851 15.2852 31.8848ZM15.8477 31.8848C15.7849 31.8844 15.734 31.9353 15.7344 31.998C15.7349 32.0597 15.7857 32.1101 15.8477 32.1094C15.9089 32.109 15.9582 32.0593 15.959 31.998C15.9591 31.9943 15.9591 31.994 15.959 31.9902C15.9554 31.9313 15.907 31.8851 15.8477 31.8848ZM16.4102 31.8848C16.3474 31.8844 16.2965 31.9353 16.2969 31.998C16.2974 32.0597 16.3482 32.1101 16.4102 32.1094C16.4714 32.109 16.5207 32.0593 16.5215 31.998C16.5216 31.9943 16.5216 31.994 16.5215 31.9902C16.5179 31.9313 16.4695 31.8851 16.4102 31.8848ZM16.9707 31.8848C16.9087 31.8851 16.857 31.9357 16.8574 31.998C16.8579 32.0589 16.9091 32.109 16.9707 32.1094C17.0327 32.1101 17.0813 32.06 17.082 31.998C17.0821 31.9943 17.0821 31.994 17.082 31.9902C17.0784 31.9305 17.0308 31.884 16.9707 31.8848ZM17.5332 31.8848C17.4712 31.8851 17.4195 31.9357 17.4199 31.998C17.4204 32.0589 17.4716 32.109 17.5332 32.1094C17.5952 32.1101 17.6457 32.06 17.6465 31.998C17.6466 31.9943 17.6466 31.994 17.6465 31.9902C17.6429 31.9305 17.5933 31.884 17.5332 31.8848ZM18.0957 31.8848C18.0337 31.8851 17.982 31.9357 17.9824 31.998C17.9829 32.0589 18.0341 32.109 18.0957 32.1094C18.1577 32.1101 18.2063 32.06 18.207 31.998C18.2071 31.9943 18.2071 31.994 18.207 31.9902C18.2034 31.9305 18.1558 31.884 18.0957 31.8848ZM19.2207 31.8848C19.158 31.8844 19.107 31.9353 19.1074 31.998C19.1079 32.0597 19.1587 32.1101 19.2207 32.1094C19.2819 32.109 19.3313 32.0593 19.332 31.998C19.3321 31.9943 19.3321 31.994 19.332 31.9902C19.3284 31.9313 19.28 31.8851 19.2207 31.8848ZM19.7832 31.8848C19.7205 31.8844 19.6695 31.9353 19.6699 31.998C19.6704 32.0597 19.7212 32.1101 19.7832 32.1094C19.8444 32.109 19.8938 32.0593 19.8945 31.998C19.8946 31.9943 19.8946 31.994 19.8945 31.9902C19.8909 31.9313 19.8425 31.8851 19.7832 31.8848ZM20.3457 31.8848C20.283 31.8844 20.232 31.9353 20.2324 31.998C20.2329 32.0597 20.2837 32.1101 20.3457 32.1094C20.4069 32.109 20.4563 32.0593 20.457 31.998C20.4571 31.9943 20.4571 31.994 20.457 31.9902C20.4534 31.9313 20.405 31.8851 20.3457 31.8848ZM20.9082 31.8848C20.8455 31.8844 20.7945 31.9353 20.7949 31.998C20.7954 32.0597 20.8462 32.1101 20.9082 32.1094C20.9694 32.109 21.0188 32.0593 21.0195 31.998C21.0196 31.9943 21.0196 31.994 21.0195 31.9902C21.0159 31.9313 20.9675 31.8851 20.9082 31.8848ZM21.4687 31.8848C21.4068 31.8851 21.3551 31.9357 21.3555 31.998C21.356 32.0589 21.4071 32.109 21.4687 32.1094C21.5307 32.1101 21.5793 32.06 21.5801 31.998C21.5802 31.9943 21.5802 31.994 21.5801 31.9902C21.5765 31.9305 21.5288 31.884 21.4687 31.8848ZM22.0312 31.8848C21.9693 31.8851 21.9176 31.9357 21.918 31.998C21.9185 32.0589 21.9696 32.109 22.0312 32.1094C22.0932 32.1101 22.1418 32.06 22.1426 31.998C22.1427 31.9943 22.1427 31.994 22.1426 31.9902C22.139 31.9305 22.0913 31.884 22.0312 31.8848ZM22.5937 31.8848C22.5318 31.8851 22.482 31.9357 22.4824 31.998C22.4829 32.0589 22.5321 32.1086 22.5937 32.1094C22.6557 32.1101 22.7043 32.0604 22.7051 31.998C22.7057 31.9353 22.6565 31.8844 22.5937 31.8848ZM24.2812 31.8848C24.2185 31.8844 24.1676 31.9353 24.168 31.998C24.1685 32.0597 24.2193 32.1101 24.2812 32.1094C24.3425 32.109 24.3918 32.0593 24.3926 31.998C24.3927 31.9943 24.3927 31.994 24.3926 31.9902C24.389 31.9313 24.3406 31.8851 24.2812 31.8848ZM24.8437 31.8848C24.781 31.8844 24.7281 31.9353 24.7285 31.998C24.729 32.0597 24.7818 32.1101 24.8437 32.1094C24.905 32.109 24.9543 32.0593 24.9551 31.998C24.9552 31.9943 24.9552 31.994 24.9551 31.9902C24.9515 31.9313 24.9031 31.8851 24.8437 31.8848ZM25.4043 31.8848C25.3423 31.8851 25.2903 31.9357 25.291 31.998C25.2915 32.0589 25.3431 32.109 25.4043 32.1094C25.4663 32.1101 25.5149 32.06 25.5156 31.998C25.5157 31.9943 25.5157 31.994 25.5156 31.9902C25.512 31.9305 25.4644 31.884 25.4043 31.8848ZM25.9668 31.8848C25.9048 31.8851 25.8531 31.9357 25.8535 31.998C25.854 32.0589 25.9052 32.109 25.9668 32.1094C26.0288 32.1101 26.0774 32.06 26.0781 31.998C26.0782 31.9943 26.0782 31.994 26.0781 31.9902C26.0745 31.9305 26.0269 31.884 25.9668 31.8848ZM26.5293 31.8848C26.4673 31.8851 26.4156 31.9357 26.416 31.998C26.4165 32.0589 26.4677 32.109 26.5293 32.1094C26.5913 32.1101 26.6418 32.06 26.6426 31.998C26.6427 31.9943 26.6427 31.994 26.6426 31.9902C26.639 31.9305 26.5894 31.884 26.5293 31.8848ZM27.0918 31.8848C27.0298 31.8851 26.9781 31.9357 26.9785 31.998C26.979 32.0589 27.0302 32.1086 27.0918 32.1094C27.1538 32.1101 27.2043 32.0604 27.2051 31.998C27.2057 31.9353 27.1545 31.8844 27.0918 31.8848ZM28.2168 31.8848C28.1541 31.8844 28.1031 31.9353 28.1035 31.998C28.104 32.0597 28.1548 32.1101 28.2168 32.1094C28.278 32.109 28.3274 32.0593 28.3281 31.998C28.3282 31.9943 28.3282 31.994 28.3281 31.9902C28.3245 31.9313 28.2761 31.8851 28.2168 31.8848ZM28.7793 31.8848C28.7166 31.8844 28.6656 31.9353 28.666 31.998C28.6665 32.0597 28.7173 32.1101 28.7793 32.1094C28.8405 32.109 28.8899 32.0593 28.8906 31.998C28.8907 31.9943 28.8907 31.994 28.8906 31.9902C28.887 31.9313 28.8386 31.8851 28.7793 31.8848ZM29.3418 31.8848C29.2791 31.8844 29.2281 31.9353 29.2285 31.998C29.229 32.0597 29.2798 32.1101 29.3418 32.1094C29.403 32.109 29.4524 32.0593 29.4531 31.998C29.4532 31.9943 29.4532 31.994 29.4531 31.9902C29.4495 31.9313 29.4011 31.8851 29.3418 31.8848ZM29.9023 31.8848C29.8404 31.8851 29.7887 31.9357 29.7891 31.998C29.7896 32.0589 29.8407 32.109 29.9023 32.1094C29.9643 32.1101 30.0129 32.06 30.0137 31.998C30.0138 31.9943 30.0138 31.994 30.0137 31.9902C30.0101 31.9305 29.9624 31.884 29.9023 31.8848ZM30.4648 31.8848C30.4029 31.8851 30.3512 31.9357 30.3516 31.998C30.3521 32.0589 30.4032 32.109 30.4648 32.1094C30.5268 32.1101 30.5774 32.06 30.5781 31.998C30.5782 31.9943 30.5782 31.994 30.5781 31.9902C30.5745 31.9305 30.5249 31.884 30.4648 31.8848ZM31.0273 31.8848C30.9654 31.8851 30.9137 31.9357 30.9141 31.998C30.9146 32.0589 30.9657 32.109 31.0273 32.1094C31.0893 32.1101 31.1399 32.06 31.1406 31.998C31.1407 31.9943 31.1407 31.994 31.1406 31.9902C31.137 31.9305 31.0874 31.884 31.0273 31.8848ZM32.7148 31.8848C32.6521 31.8844 32.6012 31.9353 32.6016 31.998C32.6021 32.0597 32.6529 32.1101 32.7148 32.1094C32.7761 32.109 32.8254 32.0593 32.8262 31.998C32.8262 31.9943 32.8262 31.994 32.8262 31.9902C32.8226 31.9313 32.7742 31.8851 32.7148 31.8848ZM33.2773 31.8848C33.2146 31.8844 33.1637 31.9353 33.1641 31.998C33.1646 32.0597 33.2154 32.1101 33.2773 32.1094C33.3386 32.109 33.3883 32.0593 33.3887 31.998C33.3888 31.9943 33.3888 31.994 33.3887 31.9902C33.3851 31.9313 33.3363 31.8851 33.2773 31.8848ZM33.8398 31.8848C33.7771 31.8844 33.7262 31.9353 33.7266 31.998C33.7271 32.0597 33.7779 32.1101 33.8398 32.1094C33.9011 32.109 33.9508 32.0593 33.9512 31.998C33.9513 31.9943 33.9513 31.994 33.9512 31.9902C33.9476 31.9313 33.8988 31.8851 33.8398 31.8848ZM34.4004 31.8848C34.3384 31.8851 34.2867 31.9357 34.2871 31.998C34.2876 32.0589 34.3388 32.109 34.4004 32.1094C34.4624 32.1101 34.511 32.06 34.5117 31.998C34.5118 31.9943 34.5118 31.994 34.5117 31.9902C34.5081 31.9305 34.4605 31.884 34.4004 31.8848ZM14.1602 31.8867C14.0982 31.8871 14.0465 31.9376 14.0469 32C14.0474 32.0608 14.0985 32.1109 14.1602 32.1113C14.2214 32.1109 14.2707 32.0612 14.2715 32C14.272 31.9924 14.272 31.988 14.2715 31.9805C14.2639 31.926 14.2153 31.8863 14.1602 31.8867ZM14.7227 31.8867C14.6599 31.8863 14.609 31.9373 14.6094 32C14.6099 32.0616 14.6607 32.1121 14.7227 32.1113C14.7839 32.1109 14.8332 32.0612 14.834 32C14.8345 31.9924 14.8345 31.988 14.834 31.9805C14.8264 31.926 14.7778 31.8863 14.7227 31.8867ZM18.6582 31.8867C18.5962 31.8871 18.5442 31.9376 18.5449 32C18.5454 32.0608 18.597 32.1109 18.6582 32.1113C18.7194 32.1109 18.7688 32.0612 18.7695 32C18.7701 31.9924 18.7701 31.988 18.7695 31.9805C18.7619 31.926 18.7134 31.8863 18.6582 31.8867ZM23.1562 31.8867C23.0943 31.8871 23.0426 31.9376 23.043 32C23.0435 32.0608 23.0946 32.1109 23.1562 32.1113C23.2175 32.1109 23.2672 32.0612 23.2676 32C23.2681 31.9924 23.2681 31.988 23.2676 31.9805C23.26 31.926 23.211 31.8863 23.1562 31.8867ZM23.7187 31.8867C23.656 31.8863 23.6031 31.9373 23.6035 32C23.604 32.0616 23.6568 32.1121 23.7187 32.1113C23.78 32.1109 23.8274 32.0612 23.8281 32C23.8287 31.9924 23.8287 31.988 23.8281 31.9805C23.8205 31.926 23.7739 31.8863 23.7187 31.8867ZM27.6543 31.8867C27.5923 31.8871 27.5403 31.9376 27.541 32C27.5415 32.0608 27.5931 32.1109 27.6543 32.1113C27.7155 32.1109 27.7649 32.0612 27.7656 32C27.7662 31.9924 27.7662 31.988 27.7656 31.9805C27.758 31.926 27.7095 31.8863 27.6543 31.8867ZM31.5898 31.8867C31.5279 31.8871 31.4758 31.9376 31.4766 32C31.4771 32.0608 31.5286 32.1109 31.5898 32.1113C31.6511 32.1109 31.7004 32.0612 31.7012 32C31.7017 31.9924 31.7017 31.988 31.7012 31.9805C31.6936 31.926 31.645 31.8863 31.5898 31.8867ZM32.1523 31.8867C32.0896 31.8863 32.0387 31.9373 32.0391 32C32.0396 32.0616 32.0904 32.1121 32.1523 32.1113C32.2136 32.1109 32.2629 32.0612 32.2637 32C32.2642 31.9924 32.2642 31.988 32.2637 31.9805C32.2561 31.926 32.2075 31.8863 32.1523 31.8867Z" fill="#333333"/>
</g>
<defs>
<clipPath id="clip0">
<rect width="48" height="48" fill="white"/>
</clipPath>
</defs>
</svg>
