<svg width="48" height="48" viewBox="0 0 48 48" fill="none" xmlns="http://www.w3.org/2000/svg">
<path fill-rule="evenodd" clip-rule="evenodd" d="M0 0V48H48V0H0ZM14.147 4H33.852C34.722 4 35.42 4.699 35.42 5.568V42.43C35.42 43.299 34.721 44 33.852 44H14.147C13.277 44 12.578 43.299 12.578 42.43V5.567C12.578 4.697 13.278 3.999 14.147 3.999V4ZM18.889 9.12C18.7642 9.12244 18.6412 9.14949 18.5269 9.1996C18.4126 9.24971 18.3093 9.32189 18.223 9.412L16.414 11.269C16.3271 11.3583 16.2588 11.4638 16.2128 11.5796C16.1669 11.6953 16.1443 11.819 16.1464 11.9436C16.1484 12.0681 16.1751 12.191 16.2248 12.3052C16.2745 12.4194 16.3463 12.5226 16.436 12.609C16.525 12.6962 16.6304 12.765 16.7461 12.8112C16.8618 12.8575 16.9856 12.8803 17.1102 12.8785C17.2348 12.8766 17.3578 12.8501 17.4721 12.8004C17.5863 12.7507 17.6896 12.6788 17.776 12.589L19.584 10.73C19.6709 10.6408 19.7394 10.5353 19.7854 10.4196C19.8314 10.3038 19.8541 10.1802 19.8521 10.0556C19.8502 9.9311 19.8236 9.80819 19.774 9.69396C19.7244 9.57972 19.6527 9.47642 19.563 9.39C19.474 9.30278 19.3686 9.23402 19.253 9.18769C19.1373 9.14135 19.0136 9.11834 18.889 9.12ZM22.889 9.12C22.7642 9.12244 22.6412 9.14949 22.5269 9.1996C22.4126 9.24971 22.3093 9.32189 22.223 9.412L20.414 11.269C20.3271 11.3583 20.2588 11.4638 20.2128 11.5796C20.1669 11.6953 20.1443 11.819 20.1464 11.9436C20.1484 12.0681 20.1751 12.191 20.2248 12.3052C20.2745 12.4194 20.3463 12.5226 20.436 12.609C20.525 12.6962 20.6304 12.765 20.7461 12.8112C20.8618 12.8575 20.9856 12.8803 21.1102 12.8785C21.2348 12.8766 21.3578 12.8501 21.4721 12.8004C21.5863 12.7507 21.6896 12.6788 21.776 12.589L23.584 10.73C23.6709 10.6408 23.7394 10.5353 23.7854 10.4196C23.8314 10.3038 23.8541 10.1802 23.8521 10.0556C23.8502 9.9311 23.8236 9.80819 23.774 9.69396C23.7244 9.57972 23.6527 9.47642 23.563 9.39C23.474 9.30278 23.3686 9.23402 23.253 9.18769C23.1373 9.14135 23.0136 9.11834 22.889 9.12ZM26.889 9.12C26.7642 9.12244 26.6412 9.14949 26.5269 9.1996C26.4126 9.24971 26.3093 9.32189 26.223 9.412L24.414 11.269C24.3271 11.3583 24.2588 11.4638 24.2128 11.5796C24.1669 11.6953 24.1443 11.819 24.1464 11.9436C24.1484 12.0681 24.1751 12.191 24.2248 12.3052C24.2745 12.4194 24.3463 12.5226 24.436 12.609C24.525 12.6962 24.6304 12.765 24.7461 12.8112C24.8618 12.8575 24.9856 12.8803 25.1102 12.8785C25.2348 12.8766 25.3578 12.8501 25.4721 12.8004C25.5863 12.7507 25.6896 12.6788 25.776 12.589L27.584 10.73C27.6709 10.6408 27.7394 10.5353 27.7854 10.4196C27.8314 10.3038 27.8541 10.1802 27.8521 10.0556C27.8502 9.9311 27.8236 9.80819 27.774 9.69396C27.7244 9.57972 27.6527 9.47642 27.563 9.39C27.474 9.30278 27.3686 9.23402 27.253 9.18769C27.1373 9.14135 27.0136 9.11834 26.889 9.12ZM30.889 9.12C30.7642 9.12244 30.6412 9.14949 30.5269 9.1996C30.4126 9.24971 30.3093 9.32189 30.223 9.412L28.414 11.269C28.3271 11.3583 28.2588 11.4638 28.2128 11.5796C28.1669 11.6953 28.1443 11.819 28.1464 11.9436C28.1484 12.0681 28.1751 12.191 28.2248 12.3052C28.2745 12.4194 28.3463 12.5226 28.436 12.609C28.525 12.6962 28.6304 12.765 28.7461 12.8112C28.8618 12.8575 28.9856 12.8803 29.1102 12.8785C29.2348 12.8766 29.3578 12.8501 29.4721 12.8004C29.5863 12.7507 29.6896 12.6788 29.776 12.589L31.584 10.73C31.6709 10.6408 31.7394 10.5353 31.7854 10.4196C31.8314 10.3038 31.8541 10.1802 31.8521 10.0556C31.8502 9.9311 31.8236 9.80819 31.774 9.69396C31.7244 9.57972 31.6527 9.47642 31.563 9.39C31.474 9.30278 31.3686 9.23402 31.253 9.18769C31.1373 9.14135 31.0136 9.11834 30.889 9.12ZM13.596 14.887C13.5813 14.8871 13.5668 14.8902 13.5532 14.8959C13.5397 14.9017 13.5274 14.91 13.5171 14.9205C13.5068 14.931 13.4986 14.9434 13.4931 14.9571C13.4876 14.9707 13.4849 14.9853 13.485 15C13.485 15.061 13.535 15.112 13.595 15.113C13.658 15.113 13.708 15.063 13.709 15C13.709 14.97 13.6971 14.9413 13.6759 14.9201C13.6547 14.8989 13.626 14.887 13.596 14.887ZM14.158 14.887C14.1281 14.8873 14.0995 14.8993 14.0784 14.9204C14.0573 14.9415 14.0453 14.9701 14.045 15C14.045 15.061 14.097 15.113 14.158 15.113C14.22 15.113 14.268 15.061 14.27 15V14.98C14.2657 14.9536 14.252 14.9297 14.2314 14.9126C14.2108 14.8955 14.1847 14.8864 14.158 14.887ZM14.721 14.887C14.691 14.887 14.6623 14.8989 14.6411 14.9201C14.6199 14.9413 14.608 14.97 14.608 15C14.608 15.062 14.658 15.114 14.721 15.113C14.782 15.113 14.831 15.061 14.832 15V14.98C14.8277 14.9538 14.8141 14.93 14.7938 14.9129C14.7734 14.8958 14.7476 14.8866 14.721 14.887ZM15.283 14.887C15.253 14.887 15.2243 14.8989 15.2031 14.9201C15.1819 14.9413 15.17 14.97 15.17 15C15.17 15.062 15.221 15.114 15.283 15.113C15.2984 15.1128 15.3136 15.1094 15.3277 15.1031C15.3418 15.0968 15.3544 15.0878 15.3649 15.0765C15.3753 15.0651 15.3834 15.0518 15.3886 15.0373C15.3938 15.0228 15.3959 15.0074 15.395 14.992C15.3932 14.9635 15.3806 14.9368 15.3598 14.9173C15.339 14.8978 15.3115 14.8869 15.283 14.887ZM15.846 14.887C15.816 14.887 15.7873 14.8989 15.7661 14.9201C15.7449 14.9413 15.733 14.97 15.733 15C15.733 15.062 15.783 15.114 15.846 15.113C15.8613 15.1126 15.8764 15.1092 15.8904 15.1028C15.9043 15.0965 15.9169 15.0874 15.9272 15.0761C15.9376 15.0648 15.9456 15.0515 15.9507 15.0371C15.9558 15.0226 15.9579 15.0073 15.957 14.992C15.9552 14.9637 15.9428 14.9371 15.9222 14.9176C15.9016 14.8981 15.8744 14.8872 15.846 14.887ZM16.408 14.887C16.378 14.887 16.3493 14.8989 16.3281 14.9201C16.3069 14.9413 16.295 14.97 16.295 15C16.295 15.062 16.346 15.114 16.408 15.113C16.4234 15.1128 16.4386 15.1094 16.4527 15.1031C16.4668 15.0968 16.4794 15.0878 16.4899 15.0765C16.5003 15.0651 16.5084 15.0518 16.5136 15.0373C16.5188 15.0228 16.5209 15.0074 16.52 14.992C16.5182 14.9635 16.5056 14.9368 16.4848 14.9173C16.464 14.8978 16.4365 14.8869 16.408 14.887ZM16.968 14.887C16.9385 14.8875 16.9103 14.8997 16.8897 14.9209C16.8691 14.942 16.8577 14.9705 16.858 15C16.858 15.061 16.908 15.113 16.968 15.113C16.9837 15.1132 16.9992 15.1101 17.0136 15.104C17.028 15.0979 17.0411 15.0889 17.0518 15.0775C17.0626 15.0662 17.071 15.0527 17.0763 15.038C17.0817 15.0233 17.084 15.0076 17.083 14.992C17.0812 14.9634 17.0685 14.9365 17.0475 14.9169C17.0264 14.8974 16.9987 14.8867 16.97 14.887H16.968ZM17.531 14.887C17.5163 14.8871 17.5018 14.8902 17.4882 14.8959C17.4747 14.9017 17.4624 14.91 17.4521 14.9205C17.4418 14.931 17.4336 14.9434 17.4281 14.9571C17.4226 14.9707 17.4199 14.9853 17.42 15C17.42 15.061 17.47 15.113 17.531 15.113C17.5466 15.113 17.562 15.1099 17.5763 15.1037C17.5906 15.0975 17.6035 15.0885 17.6142 15.0772C17.6249 15.0658 17.6331 15.0524 17.6384 15.0378C17.6437 15.0231 17.646 15.0075 17.645 14.992C17.6432 14.9632 17.6303 14.9362 17.6091 14.9166C17.5879 14.897 17.5599 14.8864 17.531 14.887ZM18.094 14.887C18.0793 14.8871 18.0648 14.8902 18.0512 14.8959C18.0377 14.9017 18.0254 14.91 18.0151 14.9205C18.0048 14.931 17.9966 14.9434 17.9911 14.9571C17.9856 14.9707 17.9829 14.9853 17.983 15C17.983 15.061 18.033 15.113 18.093 15.113C18.1086 15.113 18.124 15.1099 18.1383 15.1037C18.1526 15.0975 18.1655 15.0885 18.1762 15.0772C18.1869 15.0658 18.1951 15.0524 18.2004 15.0378C18.2057 15.0231 18.208 15.0075 18.207 14.992C18.2052 14.9634 18.1925 14.9365 18.1715 14.9169C18.1504 14.8974 18.1227 14.8867 18.094 14.887ZM18.656 14.887C18.6413 14.8871 18.6268 14.8902 18.6132 14.8959C18.5997 14.9017 18.5874 14.91 18.5771 14.9205C18.5668 14.931 18.5586 14.9434 18.5531 14.9571C18.5476 14.9707 18.5449 14.9853 18.545 15C18.545 15.061 18.595 15.113 18.656 15.113C18.718 15.113 18.766 15.061 18.768 15V14.98C18.7637 14.9536 18.75 14.9297 18.7294 14.9126C18.7088 14.8955 18.6827 14.8864 18.656 14.887ZM19.219 14.887C19.189 14.887 19.1603 14.8989 19.1391 14.9201C19.1179 14.9413 19.106 14.97 19.106 15C19.106 15.062 19.156 15.114 19.219 15.113C19.2343 15.1126 19.2494 15.1092 19.2634 15.1028C19.2773 15.0965 19.2899 15.0874 19.3002 15.0761C19.3106 15.0648 19.3186 15.0515 19.3237 15.0371C19.3288 15.0226 19.3309 15.0073 19.33 14.992C19.3282 14.9637 19.3158 14.9371 19.2952 14.9176C19.2746 14.8981 19.2474 14.8872 19.219 14.887ZM19.781 14.887C19.751 14.887 19.7223 14.8989 19.7011 14.9201C19.6799 14.9413 19.668 14.97 19.668 15C19.668 15.062 19.719 15.114 19.781 15.113C19.7964 15.1128 19.8116 15.1094 19.8257 15.1031C19.8398 15.0968 19.8524 15.0878 19.8629 15.0765C19.8733 15.0651 19.8814 15.0518 19.8866 15.0373C19.8918 15.0228 19.8939 15.0074 19.893 14.992C19.8912 14.9635 19.8786 14.9368 19.8578 14.9173C19.837 14.8978 19.8095 14.8869 19.781 14.887ZM20.344 14.887C20.314 14.887 20.2853 14.8989 20.2641 14.9201C20.2429 14.9413 20.231 14.97 20.231 15C20.231 15.062 20.281 15.114 20.344 15.113C20.3593 15.1126 20.3744 15.1092 20.3884 15.1028C20.4023 15.0965 20.4149 15.0874 20.4252 15.0761C20.4356 15.0648 20.4436 15.0515 20.4487 15.0371C20.4538 15.0226 20.4559 15.0073 20.455 14.992C20.4532 14.9637 20.4408 14.9371 20.4202 14.9176C20.3996 14.8981 20.3724 14.8872 20.344 14.887ZM20.906 14.887C20.876 14.887 20.8473 14.8989 20.8261 14.9201C20.8049 14.9413 20.793 14.97 20.793 15C20.793 15.062 20.844 15.114 20.906 15.113C20.9214 15.1128 20.9366 15.1094 20.9507 15.1031C20.9648 15.0968 20.9774 15.0878 20.9879 15.0765C20.9983 15.0651 21.0064 15.0518 21.0116 15.0373C21.0168 15.0228 21.0189 15.0074 21.018 14.992C21.0162 14.9635 21.0036 14.9368 20.9828 14.9173C20.962 14.8978 20.9345 14.8869 20.906 14.887ZM21.466 14.887C21.4365 14.8875 21.4083 14.8997 21.3877 14.9209C21.3671 14.942 21.3557 14.9705 21.356 15C21.356 15.061 21.406 15.113 21.466 15.113C21.4816 15.113 21.497 15.1099 21.5113 15.1037C21.5256 15.0975 21.5385 15.0885 21.5492 15.0772C21.5599 15.0658 21.5681 15.0524 21.5734 15.0378C21.5787 15.0231 21.581 15.0075 21.58 14.992C21.5782 14.9634 21.5655 14.9365 21.5445 14.9169C21.5234 14.8974 21.4957 14.8867 21.467 14.887H21.466ZM22.029 14.887C21.9995 14.8875 21.9713 14.8997 21.9507 14.9209C21.9301 14.942 21.9187 14.9705 21.919 15C21.919 15.061 21.968 15.113 22.029 15.113C22.0446 15.113 22.06 15.1099 22.0743 15.1037C22.0886 15.0975 22.1015 15.0885 22.1122 15.0772C22.1229 15.0658 22.1311 15.0524 22.1364 15.0378C22.1417 15.0231 22.144 15.0075 22.143 14.992C22.1412 14.9632 22.1283 14.9362 22.1071 14.9166C22.0859 14.897 22.0579 14.8864 22.029 14.887ZM22.592 14.887C22.5773 14.8871 22.5628 14.8902 22.5492 14.8959C22.5357 14.9017 22.5234 14.91 22.5131 14.9205C22.5028 14.931 22.4946 14.9434 22.4891 14.9571C22.4836 14.9707 22.4809 14.9853 22.481 15C22.481 15.061 22.531 15.112 22.591 15.113C22.654 15.113 22.704 15.063 22.705 15C22.705 14.97 22.6931 14.9413 22.6719 14.9201C22.6507 14.8989 22.622 14.887 22.592 14.887ZM23.154 14.887C23.1245 14.8875 23.0963 14.8997 23.0757 14.9209C23.0551 14.942 23.0437 14.9705 23.044 15C23.044 15.061 23.093 15.113 23.154 15.113C23.1837 15.1125 23.212 15.1004 23.233 15.0793C23.2539 15.0582 23.2657 15.0297 23.266 15V14.98C23.2617 14.9536 23.248 14.9297 23.2274 14.9126C23.2068 14.8955 23.1807 14.8864 23.154 14.887ZM23.717 14.887C23.687 14.887 23.6583 14.8989 23.6371 14.9201C23.6159 14.9413 23.604 14.97 23.604 15C23.604 15.062 23.654 15.114 23.717 15.113C23.778 15.113 23.827 15.061 23.828 15V14.98C23.8237 14.9538 23.8101 14.93 23.7898 14.9129C23.7694 14.8958 23.7436 14.8866 23.717 14.887ZM24.279 14.887C24.249 14.887 24.2203 14.8989 24.1991 14.9201C24.1779 14.9413 24.166 14.97 24.166 15C24.166 15.062 24.217 15.114 24.279 15.113C24.2944 15.1128 24.3096 15.1094 24.3237 15.1031C24.3378 15.0968 24.3504 15.0878 24.3609 15.0765C24.3713 15.0651 24.3794 15.0518 24.3846 15.0373C24.3898 15.0228 24.3919 15.0074 24.391 14.992C24.3892 14.9635 24.3766 14.9368 24.3558 14.9173C24.335 14.8978 24.3075 14.8869 24.279 14.887ZM24.842 14.887C24.812 14.887 24.7833 14.8989 24.7621 14.9201C24.7409 14.9413 24.729 14.97 24.729 15C24.729 15.062 24.779 15.114 24.842 15.113C24.8573 15.1126 24.8724 15.1092 24.8864 15.1028C24.9003 15.0965 24.9129 15.0874 24.9232 15.0761C24.9336 15.0648 24.9416 15.0515 24.9467 15.0371C24.9518 15.0226 24.9539 15.0073 24.953 14.992C24.9512 14.9637 24.9388 14.9371 24.9182 14.9176C24.8976 14.8981 24.8704 14.8872 24.842 14.887ZM25.402 14.887C25.3725 14.8875 25.3443 14.8997 25.3237 14.9209C25.3031 14.942 25.2917 14.9705 25.292 15C25.292 15.061 25.342 15.113 25.402 15.113C25.4176 15.113 25.433 15.1099 25.4473 15.1037C25.4616 15.0975 25.4745 15.0885 25.4852 15.0772C25.4959 15.0658 25.5041 15.0524 25.5094 15.0378C25.5147 15.0231 25.517 15.0075 25.516 14.992C25.5142 14.9632 25.5013 14.9362 25.4801 14.9166C25.4589 14.897 25.4309 14.8864 25.402 14.887ZM25.965 14.887C25.9503 14.8871 25.9358 14.8902 25.9222 14.8959C25.9087 14.9017 25.8964 14.91 25.8861 14.9205C25.8758 14.931 25.8676 14.9434 25.8621 14.9571C25.8566 14.9707 25.8539 14.9853 25.854 15C25.854 15.061 25.904 15.113 25.965 15.113C25.9805 15.1129 25.9958 15.1096 26.01 15.1034C26.0242 15.0972 26.037 15.0881 26.0475 15.0768C26.0581 15.0655 26.0663 15.0521 26.0715 15.0375C26.0767 15.023 26.079 15.0075 26.078 14.992C26.0762 14.9634 26.0635 14.9365 26.0425 14.9169C26.0214 14.8974 25.9937 14.8867 25.965 14.887ZM26.528 14.887C26.5132 14.887 26.4986 14.8899 26.4849 14.8956C26.4713 14.9013 26.4589 14.9096 26.4484 14.9202C26.438 14.9307 26.4298 14.9431 26.4242 14.9568C26.4187 14.9705 26.4159 14.9852 26.416 15C26.416 15.061 26.466 15.113 26.527 15.113C26.5426 15.113 26.558 15.1099 26.5723 15.1037C26.5866 15.0975 26.5995 15.0885 26.6102 15.0772C26.6209 15.0658 26.6291 15.0524 26.6344 15.0378C26.6397 15.0231 26.642 15.0075 26.641 14.992C26.6392 14.9632 26.6263 14.9362 26.6051 14.9166C26.5839 14.897 26.5559 14.8864 26.527 14.887H26.528ZM27.09 14.887C27.0753 14.8871 27.0608 14.8902 27.0472 14.8959C27.0337 14.9017 27.0214 14.91 27.0111 14.9205C27.0008 14.931 26.9926 14.9434 26.9871 14.9571C26.9816 14.9707 26.9789 14.9853 26.979 15C26.979 15.061 27.029 15.112 27.09 15.113C27.152 15.113 27.203 15.063 27.203 15C27.2031 14.9851 27.2003 14.9704 27.1947 14.9566C27.189 14.9428 27.1807 14.9303 27.1702 14.9198C27.1597 14.9093 27.1472 14.901 27.1334 14.8953C27.1196 14.8897 27.1049 14.8869 27.09 14.887ZM27.653 14.887C27.6382 14.887 27.6236 14.8899 27.6099 14.8956C27.5963 14.9013 27.5839 14.9096 27.5734 14.9202C27.563 14.9307 27.5548 14.9431 27.5492 14.9568C27.5437 14.9705 27.5409 14.9852 27.541 15C27.541 15.061 27.591 15.113 27.652 15.113C27.714 15.113 27.763 15.061 27.764 15V14.98C27.7597 14.9538 27.7461 14.93 27.7258 14.9129C27.7054 14.8958 27.6796 14.8866 27.653 14.887ZM28.215 14.887C28.185 14.887 28.1563 14.8989 28.1351 14.9201C28.1139 14.9413 28.102 14.97 28.102 15C28.102 15.062 28.153 15.114 28.215 15.113C28.2303 15.1126 28.2454 15.1092 28.2594 15.1028C28.2733 15.0965 28.2859 15.0874 28.2962 15.0761C28.3066 15.0648 28.3146 15.0515 28.3197 15.0371C28.3248 15.0226 28.3269 15.0073 28.326 14.992C28.3242 14.9637 28.3118 14.9371 28.2912 14.9176C28.2706 14.8981 28.2434 14.8872 28.215 14.887ZM28.778 14.887C28.7631 14.8869 28.7483 14.8897 28.7344 14.8953C28.7206 14.9009 28.708 14.9092 28.6974 14.9197C28.6868 14.9302 28.6784 14.9427 28.6727 14.9565C28.667 14.9703 28.664 14.9851 28.664 15C28.664 15.062 28.716 15.114 28.777 15.113C28.7924 15.1128 28.8076 15.1094 28.8217 15.1031C28.8358 15.0968 28.8484 15.0878 28.8589 15.0765C28.8693 15.0651 28.8774 15.0518 28.8826 15.0373C28.8878 15.0228 28.8899 15.0074 28.889 14.992C28.8872 14.9637 28.8748 14.9371 28.8542 14.9176C28.8336 14.8981 28.8064 14.8872 28.778 14.887ZM29.34 14.887C29.31 14.887 29.2813 14.8989 29.2601 14.9201C29.2389 14.9413 29.227 14.97 29.227 15C29.227 15.062 29.278 15.114 29.34 15.113C29.3553 15.1126 29.3704 15.1092 29.3844 15.1028C29.3983 15.0965 29.4109 15.0874 29.4212 15.0761C29.4316 15.0648 29.4396 15.0515 29.4447 15.0371C29.4498 15.0226 29.4519 15.0073 29.451 14.992C29.4492 14.9637 29.4368 14.9371 29.4162 14.9176C29.3956 14.8981 29.3684 14.8872 29.34 14.887ZM29.9 14.887C29.8705 14.8875 29.8423 14.8997 29.8217 14.9209C29.8011 14.942 29.7897 14.9705 29.79 15C29.79 15.061 29.839 15.113 29.9 15.113C29.9156 15.113 29.931 15.1099 29.9453 15.1037C29.9596 15.0975 29.9725 15.0885 29.9832 15.0772C29.9939 15.0658 30.0021 15.0524 30.0074 15.0378C30.0127 15.0231 30.015 15.0075 30.014 14.992C30.0122 14.9634 29.9995 14.9365 29.9785 14.9169C29.9574 14.8974 29.9297 14.8867 29.901 14.887H29.9ZM30.463 14.887C30.4483 14.8871 30.4338 14.8902 30.4202 14.8959C30.4067 14.9017 30.3944 14.91 30.3841 14.9205C30.3738 14.931 30.3656 14.9434 30.3601 14.9571C30.3546 14.9707 30.3519 14.9853 30.352 15C30.352 15.061 30.402 15.113 30.463 15.113C30.4785 15.1129 30.4938 15.1096 30.508 15.1034C30.5222 15.0972 30.535 15.0881 30.5455 15.0768C30.5561 15.0655 30.5643 15.0521 30.5695 15.0375C30.5747 15.023 30.577 15.0075 30.576 14.992C30.5742 14.9634 30.5615 14.9365 30.5405 14.9169C30.5194 14.8974 30.4917 14.8867 30.463 14.887ZM31.026 14.887C31.0112 14.887 30.9966 14.8899 30.9829 14.8956C30.9693 14.9013 30.9569 14.9096 30.9464 14.9202C30.936 14.9307 30.9278 14.9431 30.9222 14.9568C30.9167 14.9705 30.9139 14.9852 30.914 15C30.914 15.061 30.964 15.113 31.025 15.113C31.0406 15.113 31.056 15.1099 31.0703 15.1037C31.0846 15.0975 31.0975 15.0885 31.1082 15.0772C31.1189 15.0658 31.1271 15.0524 31.1324 15.0378C31.1377 15.0231 31.14 15.0075 31.139 14.992C31.1372 14.9634 31.1245 14.9365 31.1035 14.9169C31.0824 14.8974 31.0547 14.8867 31.026 14.887ZM31.588 14.887C31.5733 14.8871 31.5588 14.8902 31.5452 14.8959C31.5317 14.9017 31.5194 14.91 31.5091 14.9205C31.4988 14.931 31.4906 14.9434 31.4851 14.9571C31.4796 14.9707 31.4769 14.9853 31.477 15C31.477 15.061 31.527 15.113 31.588 15.113C31.649 15.113 31.698 15.061 31.699 15V14.98C31.6947 14.9538 31.6811 14.93 31.6608 14.9129C31.6404 14.8958 31.6146 14.8866 31.588 14.887ZM32.151 14.887C32.1361 14.8869 32.1213 14.8897 32.1075 14.8953C32.0936 14.9009 32.0811 14.9092 32.0704 14.9197C32.0598 14.9302 32.0514 14.9427 32.0457 14.9565C32.04 14.9703 32.037 14.9851 32.037 15C32.037 15.062 32.089 15.114 32.151 15.113C32.211 15.113 32.261 15.061 32.261 15V14.98C32.2567 14.9539 32.2433 14.9303 32.2231 14.9132C32.203 14.8962 32.1774 14.8869 32.151 14.887ZM32.713 14.887C32.683 14.887 32.6543 14.8989 32.6331 14.9201C32.6119 14.9413 32.6 14.97 32.6 15C32.6 15.062 32.651 15.114 32.713 15.113C32.7283 15.1126 32.7434 15.1092 32.7574 15.1028C32.7713 15.0965 32.7839 15.0874 32.7942 15.0761C32.8046 15.0648 32.8126 15.0515 32.8177 15.0371C32.8228 15.0226 32.8249 15.0073 32.824 14.992C32.8222 14.9637 32.8098 14.9371 32.7892 14.9176C32.7686 14.8981 32.7414 14.8872 32.713 14.887ZM33.276 14.887C33.2611 14.8869 33.2463 14.8897 33.2325 14.8953C33.2186 14.9009 33.2061 14.9092 33.1954 14.9197C33.1848 14.9302 33.1764 14.9427 33.1707 14.9565C33.165 14.9703 33.162 14.9851 33.162 15C33.162 15.062 33.214 15.114 33.276 15.113C33.2912 15.1125 33.3062 15.1089 33.3201 15.1025C33.3339 15.0961 33.3463 15.087 33.3566 15.0757C33.3668 15.0645 33.3747 15.0512 33.3798 15.0369C33.3848 15.0225 33.3869 15.0072 33.386 14.992C33.3842 14.9639 33.3719 14.9374 33.3516 14.918C33.3312 14.8985 33.3042 14.8874 33.276 14.887ZM33.838 14.887C33.808 14.887 33.7793 14.8989 33.7581 14.9201C33.7369 14.9413 33.725 14.97 33.725 15C33.725 15.062 33.776 15.114 33.838 15.113C33.8533 15.1126 33.8684 15.1092 33.8824 15.1028C33.8963 15.0965 33.9089 15.0874 33.9192 15.0761C33.9296 15.0648 33.9376 15.0515 33.9427 15.0371C33.9478 15.0226 33.9499 15.0073 33.949 14.992C33.9472 14.9637 33.9348 14.9371 33.9142 14.9176C33.8936 14.8981 33.8664 14.8872 33.838 14.887ZM34.398 14.887C34.3685 14.8875 34.3403 14.8997 34.3197 14.9209C34.2991 14.942 34.2877 14.9705 34.288 15C34.288 15.061 34.337 15.113 34.398 15.113C34.4137 15.1132 34.4292 15.1101 34.4436 15.104C34.458 15.0979 34.4711 15.0889 34.4818 15.0775C34.4926 15.0662 34.501 15.0527 34.5063 15.038C34.5117 15.0233 34.514 15.0076 34.513 14.992C34.5112 14.9632 34.4983 14.9362 34.4771 14.9166C34.4559 14.897 34.4279 14.8864 34.399 14.887H34.398ZM18.888 17.789V17.791C18.7636 17.7931 18.6408 17.8197 18.5267 17.8693C18.4126 17.9188 18.3094 17.9905 18.223 18.08L16.414 19.937C16.3271 20.0263 16.2588 20.1318 16.2128 20.2476C16.1669 20.3633 16.1443 20.487 16.1464 20.6116C16.1484 20.7361 16.1751 20.859 16.2248 20.9732C16.2745 21.0874 16.3463 21.1906 16.436 21.277C16.5251 21.3641 16.6305 21.4327 16.7462 21.4789C16.8619 21.5251 16.9856 21.5479 17.1102 21.546C17.2347 21.5442 17.3577 21.5177 17.472 21.4681C17.5863 21.4185 17.6896 21.3467 17.776 21.257L19.584 19.398C19.6709 19.3088 19.7394 19.2033 19.7854 19.0876C19.8314 18.9718 19.8541 18.8482 19.8521 18.7236C19.8502 18.5991 19.8236 18.4762 19.774 18.362C19.7244 18.2477 19.6527 18.1444 19.563 18.058C19.474 17.9708 19.3686 17.902 19.253 17.8557C19.1373 17.8093 19.0136 17.7863 18.889 17.788L18.888 17.789ZM22.888 17.789V17.791C22.7636 17.7931 22.6408 17.8197 22.5267 17.8693C22.4126 17.9188 22.3094 17.9905 22.223 18.08L20.414 19.937C20.3271 20.0263 20.2588 20.1318 20.2128 20.2476C20.1669 20.3633 20.1443 20.487 20.1464 20.6116C20.1484 20.7361 20.1751 20.859 20.2248 20.9732C20.2745 21.0874 20.3463 21.1906 20.436 21.277C20.5251 21.3641 20.6305 21.4327 20.7462 21.4789C20.8619 21.5251 20.9856 21.5479 21.1102 21.546C21.2347 21.5442 21.3577 21.5177 21.472 21.4681C21.5863 21.4185 21.6896 21.3467 21.776 21.257L23.584 19.398C23.6709 19.3088 23.7394 19.2033 23.7854 19.0876C23.8314 18.9718 23.8541 18.8482 23.8521 18.7236C23.8502 18.5991 23.8236 18.4762 23.774 18.362C23.7244 18.2477 23.6527 18.1444 23.563 18.058C23.474 17.9708 23.3686 17.902 23.253 17.8557C23.1373 17.8093 23.0136 17.7863 22.889 17.788L22.888 17.789ZM26.888 17.789V17.791C26.7636 17.7931 26.6408 17.8197 26.5267 17.8693C26.4126 17.9188 26.3094 17.9905 26.223 18.08L24.414 19.937C24.3271 20.0263 24.2588 20.1318 24.2128 20.2476C24.1669 20.3633 24.1443 20.487 24.1464 20.6116C24.1484 20.7361 24.1751 20.859 24.2248 20.9732C24.2745 21.0874 24.3463 21.1906 24.436 21.277C24.5251 21.3641 24.6305 21.4327 24.7462 21.4789C24.8619 21.5251 24.9856 21.5479 25.1102 21.546C25.2347 21.5442 25.3577 21.5177 25.472 21.4681C25.5863 21.4185 25.6896 21.3467 25.776 21.257L27.584 19.398C27.6709 19.3088 27.7394 19.2033 27.7854 19.0876C27.8314 18.9718 27.8541 18.8482 27.8521 18.7236C27.8502 18.5991 27.8236 18.4762 27.774 18.362C27.7244 18.2477 27.6527 18.1444 27.563 18.058C27.474 17.9708 27.3686 17.902 27.253 17.8557C27.1373 17.8093 27.0136 17.7863 26.889 17.788L26.888 17.789ZM30.888 17.789V17.791C30.7636 17.7931 30.6408 17.8197 30.5267 17.8693C30.4126 17.9188 30.3094 17.9905 30.223 18.08L28.414 19.937C28.3271 20.0263 28.2588 20.1318 28.2128 20.2476C28.1669 20.3633 28.1443 20.487 28.1464 20.6116C28.1484 20.7361 28.1751 20.859 28.2248 20.9732C28.2745 21.0874 28.3463 21.1906 28.436 21.277C28.5251 21.3641 28.6305 21.4327 28.7462 21.4789C28.8619 21.5251 28.9856 21.5479 29.1102 21.546C29.2347 21.5442 29.3577 21.5177 29.472 21.4681C29.5863 21.4185 29.6896 21.3467 29.776 21.257L31.584 19.398C31.6709 19.3088 31.7394 19.2033 31.7854 19.0876C31.8314 18.9718 31.8541 18.8482 31.8521 18.7236C31.8502 18.5991 31.8236 18.4762 31.774 18.362C31.7244 18.2477 31.6527 18.1444 31.563 18.058C31.474 17.9708 31.3686 17.902 31.253 17.8557C31.1373 17.8093 31.0136 17.7863 30.889 17.788L30.888 17.789ZM13.596 23.887C13.5813 23.8871 13.5668 23.8902 13.5532 23.8959C13.5397 23.9017 13.5274 23.91 13.5171 23.9205C13.5068 23.931 13.4986 23.9434 13.4931 23.9571C13.4876 23.9707 13.4849 23.9853 13.485 24C13.485 24.061 13.535 24.112 13.595 24.113C13.658 24.113 13.708 24.063 13.709 24C13.709 23.97 13.6971 23.9413 13.6759 23.9201C13.6547 23.8989 13.626 23.887 13.596 23.887ZM14.158 23.887C14.1281 23.8873 14.0995 23.8993 14.0784 23.9204C14.0573 23.9415 14.0453 23.9701 14.045 24C14.045 24.061 14.097 24.113 14.158 24.113C14.22 24.113 14.268 24.061 14.27 24V23.98C14.2657 23.9536 14.252 23.9297 14.2314 23.9126C14.2108 23.8955 14.1847 23.8864 14.158 23.887ZM14.721 23.887C14.691 23.887 14.6623 23.8989 14.6411 23.9201C14.6199 23.9413 14.608 23.97 14.608 24C14.608 24.062 14.658 24.114 14.721 24.113C14.782 24.113 14.831 24.061 14.832 24V23.98C14.8277 23.9538 14.8141 23.93 14.7938 23.9129C14.7734 23.8958 14.7476 23.8867 14.721 23.887ZM15.283 23.887C15.253 23.887 15.2243 23.8989 15.2031 23.9201C15.1819 23.9413 15.17 23.97 15.17 24C15.17 24.062 15.221 24.114 15.283 24.113C15.2984 24.1128 15.3136 24.1094 15.3277 24.1031C15.3418 24.0968 15.3544 24.0878 15.3649 24.0765C15.3753 24.0651 15.3834 24.0518 15.3886 24.0373C15.3938 24.0228 15.3959 24.0074 15.395 23.992C15.3932 23.9635 15.3806 23.9368 15.3598 23.9173C15.339 23.8978 15.3115 23.8869 15.283 23.887ZM15.846 23.887C15.816 23.887 15.7873 23.8989 15.7661 23.9201C15.7449 23.9413 15.733 23.97 15.733 24C15.733 24.062 15.783 24.114 15.846 24.113C15.8613 24.1126 15.8764 24.1092 15.8904 24.1028C15.9043 24.0965 15.9169 24.0874 15.9272 24.0761C15.9376 24.0648 15.9456 24.0515 15.9507 24.0371C15.9558 24.0226 15.9579 24.0073 15.957 23.992C15.9552 23.9637 15.9428 23.9371 15.9222 23.9176C15.9016 23.8981 15.8744 23.8872 15.846 23.887ZM16.408 23.887C16.378 23.887 16.3493 23.8989 16.3281 23.9201C16.3069 23.9413 16.295 23.97 16.295 24C16.295 24.062 16.346 24.114 16.408 24.113C16.4234 24.1128 16.4386 24.1094 16.4527 24.1031C16.4668 24.0968 16.4794 24.0878 16.4899 24.0765C16.5003 24.0651 16.5084 24.0518 16.5136 24.0373C16.5188 24.0228 16.5209 24.0074 16.52 23.992C16.5182 23.9635 16.5056 23.9368 16.4848 23.9173C16.464 23.8978 16.4365 23.8869 16.408 23.887ZM16.968 23.887C16.9385 23.8875 16.9103 23.8997 16.8897 23.9209C16.8691 23.942 16.8577 23.9705 16.858 24C16.858 24.061 16.908 24.113 16.968 24.113C16.9837 24.1132 16.9992 24.1101 17.0136 24.104C17.028 24.0979 17.0411 24.0889 17.0518 24.0775C17.0626 24.0662 17.071 24.0527 17.0763 24.038C17.0817 24.0233 17.084 24.0076 17.083 23.992C17.0812 23.9634 17.0685 23.9365 17.0475 23.9169C17.0264 23.8974 16.9987 23.8867 16.97 23.887H16.968ZM17.531 23.887C17.5163 23.8871 17.5018 23.8902 17.4882 23.8959C17.4747 23.9017 17.4624 23.91 17.4521 23.9205C17.4418 23.931 17.4336 23.9434 17.4281 23.9571C17.4226 23.9707 17.4199 23.9853 17.42 24C17.42 24.061 17.47 24.113 17.531 24.113C17.5466 24.113 17.562 24.1099 17.5763 24.1037C17.5906 24.0975 17.6035 24.0885 17.6142 24.0772C17.6249 24.0658 17.6331 24.0524 17.6384 24.0378C17.6437 24.0231 17.646 24.0075 17.645 23.992C17.6432 23.9632 17.6303 23.9362 17.6091 23.9166C17.5879 23.897 17.5599 23.8864 17.531 23.887ZM18.094 23.887C18.0793 23.8871 18.0648 23.8902 18.0512 23.8959C18.0377 23.9017 18.0254 23.91 18.0151 23.9205C18.0048 23.931 17.9966 23.9434 17.9911 23.9571C17.9856 23.9707 17.9829 23.9853 17.983 24C17.983 24.061 18.033 24.113 18.093 24.113C18.1086 24.113 18.124 24.1099 18.1383 24.1037C18.1526 24.0975 18.1655 24.0885 18.1762 24.0772C18.1869 24.0658 18.1951 24.0524 18.2004 24.0378C18.2057 24.0231 18.208 24.0075 18.207 23.992C18.2052 23.9634 18.1925 23.9365 18.1715 23.9169C18.1504 23.8974 18.1227 23.8867 18.094 23.887ZM18.656 23.887C18.6413 23.8871 18.6268 23.8902 18.6132 23.8959C18.5997 23.9017 18.5874 23.91 18.5771 23.9205C18.5668 23.931 18.5586 23.9434 18.5531 23.9571C18.5476 23.9707 18.5449 23.9853 18.545 24C18.545 24.061 18.595 24.113 18.656 24.113C18.718 24.113 18.766 24.061 18.768 24V23.98C18.7637 23.9536 18.75 23.9297 18.7294 23.9126C18.7088 23.8955 18.6827 23.8864 18.656 23.887ZM19.219 23.887C19.189 23.887 19.1603 23.8989 19.1391 23.9201C19.1179 23.9413 19.106 23.97 19.106 24C19.106 24.062 19.156 24.114 19.219 24.113C19.2343 24.1126 19.2494 24.1092 19.2634 24.1028C19.2773 24.0965 19.2899 24.0874 19.3002 24.0761C19.3106 24.0648 19.3186 24.0515 19.3237 24.0371C19.3288 24.0226 19.3309 24.0073 19.33 23.992C19.3282 23.9637 19.3158 23.9371 19.2952 23.9176C19.2746 23.8981 19.2474 23.8872 19.219 23.887ZM19.781 23.887C19.751 23.887 19.7223 23.8989 19.7011 23.9201C19.6799 23.9413 19.668 23.97 19.668 24C19.668 24.062 19.719 24.114 19.781 24.113C19.7964 24.1128 19.8116 24.1094 19.8257 24.1031C19.8398 24.0968 19.8524 24.0878 19.8629 24.0765C19.8733 24.0651 19.8814 24.0518 19.8866 24.0373C19.8918 24.0228 19.8939 24.0074 19.893 23.992C19.8912 23.9635 19.8786 23.9368 19.8578 23.9173C19.837 23.8978 19.8095 23.8869 19.781 23.887ZM20.344 23.887C20.314 23.887 20.2853 23.8989 20.2641 23.9201C20.2429 23.9413 20.231 23.97 20.231 24C20.231 24.062 20.281 24.114 20.344 24.113C20.3593 24.1126 20.3744 24.1092 20.3884 24.1028C20.4023 24.0965 20.4149 24.0874 20.4252 24.0761C20.4356 24.0648 20.4436 24.0515 20.4487 24.0371C20.4538 24.0226 20.4559 24.0073 20.455 23.992C20.4532 23.9637 20.4408 23.9371 20.4202 23.9176C20.3996 23.8981 20.3724 23.8872 20.344 23.887ZM20.906 23.887C20.876 23.887 20.8473 23.8989 20.8261 23.9201C20.8049 23.9413 20.793 23.97 20.793 24C20.793 24.062 20.844 24.114 20.906 24.113C20.9214 24.1128 20.9366 24.1094 20.9507 24.1031C20.9648 24.0968 20.9774 24.0878 20.9879 24.0765C20.9983 24.0651 21.0064 24.0518 21.0116 24.0373C21.0168 24.0228 21.0189 24.0074 21.018 23.992C21.0162 23.9635 21.0036 23.9368 20.9828 23.9173C20.962 23.8978 20.9345 23.8869 20.906 23.887ZM21.466 23.887C21.4365 23.8875 21.4083 23.8997 21.3877 23.9209C21.3671 23.942 21.3557 23.9705 21.356 24C21.356 24.061 21.406 24.113 21.466 24.113C21.4816 24.113 21.497 24.1099 21.5113 24.1037C21.5256 24.0975 21.5385 24.0885 21.5492 24.0772C21.5599 24.0658 21.5681 24.0524 21.5734 24.0378C21.5787 24.0231 21.581 24.0075 21.58 23.992C21.5782 23.9634 21.5655 23.9365 21.5445 23.9169C21.5234 23.8974 21.4957 23.8867 21.467 23.887H21.466ZM22.029 23.887C21.9995 23.8875 21.9713 23.8997 21.9507 23.9209C21.9301 23.942 21.9187 23.9705 21.919 24C21.919 24.061 21.968 24.113 22.029 24.113C22.0446 24.113 22.06 24.1099 22.0743 24.1037C22.0886 24.0975 22.1015 24.0885 22.1122 24.0772C22.1229 24.0658 22.1311 24.0524 22.1364 24.0378C22.1417 24.0231 22.144 24.0075 22.143 23.992C22.1412 23.9632 22.1283 23.9362 22.1071 23.9166C22.0859 23.897 22.0579 23.8864 22.029 23.887ZM22.592 23.887C22.5773 23.8871 22.5628 23.8902 22.5492 23.8959C22.5357 23.9017 22.5234 23.91 22.5131 23.9205C22.5028 23.931 22.4946 23.9434 22.4891 23.9571C22.4836 23.9707 22.4809 23.9853 22.481 24C22.481 24.061 22.531 24.112 22.591 24.113C22.654 24.113 22.704 24.063 22.705 24C22.705 23.97 22.6931 23.9413 22.6719 23.9201C22.6507 23.8989 22.622 23.887 22.592 23.887ZM23.154 23.887C23.1245 23.8875 23.0963 23.8997 23.0757 23.9209C23.0551 23.942 23.0437 23.9705 23.044 24C23.044 24.061 23.093 24.113 23.154 24.113C23.1837 24.1125 23.212 24.1004 23.233 24.0793C23.2539 24.0582 23.2657 24.0297 23.266 24V23.98C23.2617 23.9536 23.248 23.9297 23.2274 23.9126C23.2068 23.8955 23.1807 23.8864 23.154 23.887ZM23.717 23.887C23.687 23.887 23.6583 23.8989 23.6371 23.9201C23.6159 23.9413 23.604 23.97 23.604 24C23.604 24.062 23.654 24.114 23.717 24.113C23.778 24.113 23.827 24.061 23.828 24V23.98C23.8237 23.9538 23.8101 23.93 23.7898 23.9129C23.7694 23.8958 23.7436 23.8867 23.717 23.887ZM24.279 23.887C24.249 23.887 24.2203 23.8989 24.1991 23.9201C24.1779 23.9413 24.166 23.97 24.166 24C24.166 24.062 24.217 24.114 24.279 24.113C24.2944 24.1128 24.3096 24.1094 24.3237 24.1031C24.3378 24.0968 24.3504 24.0878 24.3609 24.0765C24.3713 24.0651 24.3794 24.0518 24.3846 24.0373C24.3898 24.0228 24.3919 24.0074 24.391 23.992C24.3892 23.9635 24.3766 23.9368 24.3558 23.9173C24.335 23.8978 24.3075 23.8869 24.279 23.887ZM24.842 23.887C24.812 23.887 24.7833 23.8989 24.7621 23.9201C24.7409 23.9413 24.729 23.97 24.729 24C24.729 24.062 24.779 24.114 24.842 24.113C24.8573 24.1126 24.8724 24.1092 24.8864 24.1028C24.9003 24.0965 24.9129 24.0874 24.9232 24.0761C24.9336 24.0648 24.9416 24.0515 24.9467 24.0371C24.9518 24.0226 24.9539 24.0073 24.953 23.992C24.9512 23.9637 24.9388 23.9371 24.9182 23.9176C24.8976 23.8981 24.8704 23.8872 24.842 23.887ZM25.402 23.887C25.3725 23.8875 25.3443 23.8997 25.3237 23.9209C25.3031 23.942 25.2917 23.9705 25.292 24C25.292 24.061 25.342 24.113 25.402 24.113C25.4176 24.113 25.433 24.1099 25.4473 24.1037C25.4616 24.0975 25.4745 24.0885 25.4852 24.0772C25.4959 24.0658 25.5041 24.0524 25.5094 24.0378C25.5147 24.0231 25.517 24.0075 25.516 23.992C25.5142 23.9632 25.5013 23.9362 25.4801 23.9166C25.4589 23.897 25.4309 23.8864 25.402 23.887ZM25.965 23.887C25.9503 23.8871 25.9358 23.8902 25.9222 23.8959C25.9087 23.9017 25.8964 23.91 25.8861 23.9205C25.8758 23.931 25.8676 23.9434 25.8621 23.9571C25.8566 23.9707 25.8539 23.9853 25.854 24C25.854 24.061 25.904 24.113 25.965 24.113C25.9805 24.1129 25.9958 24.1096 26.01 24.1034C26.0242 24.0972 26.037 24.0881 26.0475 24.0768C26.0581 24.0655 26.0663 24.0521 26.0715 24.0375C26.0767 24.023 26.079 24.0075 26.078 23.992C26.0762 23.9634 26.0635 23.9365 26.0425 23.9169C26.0214 23.8974 25.9937 23.8867 25.965 23.887ZM26.528 23.887C26.5132 23.887 26.4986 23.8899 26.4849 23.8956C26.4713 23.9013 26.4589 23.9097 26.4484 23.9202C26.438 23.9307 26.4298 23.9431 26.4242 23.9568C26.4187 23.9705 26.4159 23.9852 26.416 24C26.416 24.061 26.466 24.113 26.527 24.113C26.5426 24.113 26.558 24.1099 26.5723 24.1037C26.5866 24.0975 26.5995 24.0885 26.6102 24.0772C26.6209 24.0658 26.6291 24.0524 26.6344 24.0378C26.6397 24.0231 26.642 24.0075 26.641 23.992C26.6392 23.9632 26.6263 23.9362 26.6051 23.9166C26.5839 23.897 26.5559 23.8864 26.527 23.887H26.528ZM27.09 23.887C27.0753 23.8871 27.0608 23.8902 27.0472 23.8959C27.0337 23.9017 27.0214 23.91 27.0111 23.9205C27.0008 23.931 26.9926 23.9434 26.9871 23.9571C26.9816 23.9707 26.9789 23.9853 26.979 24C26.979 24.061 27.029 24.112 27.09 24.113C27.152 24.113 27.203 24.063 27.203 24C27.2031 23.9851 27.2003 23.9704 27.1947 23.9566C27.189 23.9428 27.1807 23.9303 27.1702 23.9198C27.1597 23.9093 27.1472 23.901 27.1334 23.8953C27.1196 23.8897 27.1049 23.8869 27.09 23.887ZM27.653 23.887C27.6382 23.887 27.6236 23.8899 27.6099 23.8956C27.5963 23.9013 27.5839 23.9097 27.5734 23.9202C27.563 23.9307 27.5548 23.9431 27.5492 23.9568C27.5437 23.9705 27.5409 23.9852 27.541 24C27.541 24.061 27.591 24.113 27.652 24.113C27.714 24.113 27.763 24.061 27.764 24V23.98C27.7597 23.9538 27.7461 23.93 27.7258 23.9129C27.7054 23.8958 27.6796 23.8867 27.653 23.887ZM28.215 23.887C28.185 23.887 28.1563 23.8989 28.1351 23.9201C28.1139 23.9413 28.102 23.97 28.102 24C28.102 24.062 28.153 24.114 28.215 24.113C28.2303 24.1126 28.2454 24.1092 28.2594 24.1028C28.2733 24.0965 28.2859 24.0874 28.2962 24.0761C28.3066 24.0648 28.3146 24.0515 28.3197 24.0371C28.3248 24.0226 28.3269 24.0073 28.326 23.992C28.3242 23.9637 28.3118 23.9371 28.2912 23.9176C28.2706 23.8981 28.2434 23.8872 28.215 23.887ZM28.778 23.887C28.7631 23.8869 28.7483 23.8897 28.7344 23.8953C28.7206 23.9009 28.708 23.9092 28.6974 23.9197C28.6868 23.9302 28.6784 23.9428 28.6727 23.9565C28.667 23.9703 28.664 23.9851 28.664 24C28.664 24.062 28.716 24.114 28.777 24.113C28.7924 24.1128 28.8076 24.1094 28.8217 24.1031C28.8358 24.0968 28.8484 24.0878 28.8589 24.0765C28.8693 24.0651 28.8774 24.0518 28.8826 24.0373C28.8878 24.0228 28.8899 24.0074 28.889 23.992C28.8872 23.9637 28.8748 23.9371 28.8542 23.9176C28.8336 23.8981 28.8064 23.8872 28.778 23.887ZM29.34 23.887C29.31 23.887 29.2813 23.8989 29.2601 23.9201C29.2389 23.9413 29.227 23.97 29.227 24C29.227 24.062 29.278 24.114 29.34 24.113C29.3553 24.1126 29.3704 24.1092 29.3844 24.1028C29.3983 24.0965 29.4109 24.0874 29.4212 24.0761C29.4316 24.0648 29.4396 24.0515 29.4447 24.0371C29.4498 24.0226 29.4519 24.0073 29.451 23.992C29.4492 23.9637 29.4368 23.9371 29.4162 23.9176C29.3956 23.8981 29.3684 23.8872 29.34 23.887ZM29.9 23.887C29.8705 23.8875 29.8423 23.8997 29.8217 23.9209C29.8011 23.942 29.7897 23.9705 29.79 24C29.79 24.061 29.839 24.113 29.9 24.113C29.9156 24.113 29.931 24.1099 29.9453 24.1037C29.9596 24.0975 29.9725 24.0885 29.9832 24.0772C29.9939 24.0658 30.0021 24.0524 30.0074 24.0378C30.0127 24.0231 30.015 24.0075 30.014 23.992C30.0122 23.9634 29.9995 23.9365 29.9785 23.9169C29.9574 23.8974 29.9297 23.8867 29.901 23.887H29.9ZM30.463 23.887C30.4483 23.8871 30.4338 23.8902 30.4202 23.8959C30.4067 23.9017 30.3944 23.91 30.3841 23.9205C30.3738 23.931 30.3656 23.9434 30.3601 23.9571C30.3546 23.9707 30.3519 23.9853 30.352 24C30.352 24.061 30.402 24.113 30.463 24.113C30.4785 24.1129 30.4938 24.1096 30.508 24.1034C30.5222 24.0972 30.535 24.0881 30.5455 24.0768C30.5561 24.0655 30.5643 24.0521 30.5695 24.0375C30.5747 24.023 30.577 24.0075 30.576 23.992C30.5742 23.9634 30.5615 23.9365 30.5405 23.9169C30.5194 23.8974 30.4917 23.8867 30.463 23.887ZM31.026 23.887C31.0112 23.887 30.9966 23.8899 30.9829 23.8956C30.9693 23.9013 30.9569 23.9097 30.9464 23.9202C30.936 23.9307 30.9278 23.9431 30.9222 23.9568C30.9167 23.9705 30.9139 23.9852 30.914 24C30.914 24.061 30.964 24.113 31.025 24.113C31.0406 24.113 31.056 24.1099 31.0703 24.1037C31.0846 24.0975 31.0975 24.0885 31.1082 24.0772C31.1189 24.0658 31.1271 24.0524 31.1324 24.0378C31.1377 24.0231 31.14 24.0075 31.139 23.992C31.1372 23.9634 31.1245 23.9365 31.1035 23.9169C31.0824 23.8974 31.0547 23.8867 31.026 23.887ZM31.588 23.887C31.5733 23.8871 31.5588 23.8902 31.5452 23.8959C31.5317 23.9017 31.5194 23.91 31.5091 23.9205C31.4988 23.931 31.4906 23.9434 31.4851 23.9571C31.4796 23.9707 31.4769 23.9853 31.477 24C31.477 24.061 31.527 24.113 31.588 24.113C31.649 24.113 31.698 24.061 31.699 24V23.98C31.6947 23.9538 31.6811 23.93 31.6608 23.9129C31.6404 23.8958 31.6146 23.8867 31.588 23.887ZM32.151 23.887C32.1361 23.8869 32.1213 23.8897 32.1075 23.8953C32.0936 23.9009 32.0811 23.9092 32.0704 23.9197C32.0598 23.9302 32.0514 23.9428 32.0457 23.9565C32.04 23.9703 32.037 23.9851 32.037 24C32.037 24.062 32.089 24.114 32.151 24.113C32.211 24.113 32.261 24.061 32.261 24V23.98C32.2567 23.954 32.2433 23.9303 32.2231 23.9132C32.203 23.8962 32.1774 23.8869 32.151 23.887ZM32.713 23.887C32.683 23.887 32.6543 23.8989 32.6331 23.9201C32.6119 23.9413 32.6 23.97 32.6 24C32.6 24.062 32.651 24.114 32.713 24.113C32.7283 24.1126 32.7434 24.1092 32.7574 24.1028C32.7713 24.0965 32.7839 24.0874 32.7942 24.0761C32.8046 24.0648 32.8126 24.0515 32.8177 24.0371C32.8228 24.0226 32.8249 24.0073 32.824 23.992C32.8222 23.9637 32.8098 23.9371 32.7892 23.9176C32.7686 23.8981 32.7414 23.8872 32.713 23.887ZM33.276 23.887C33.2611 23.8869 33.2463 23.8897 33.2325 23.8953C33.2186 23.9009 33.2061 23.9092 33.1954 23.9197C33.1848 23.9302 33.1764 23.9428 33.1707 23.9565C33.165 23.9703 33.162 23.9851 33.162 24C33.162 24.062 33.214 24.114 33.276 24.113C33.2912 24.1125 33.3062 24.1089 33.3201 24.1025C33.3339 24.0961 33.3463 24.087 33.3566 24.0757C33.3668 24.0645 33.3747 24.0512 33.3798 24.0369C33.3848 24.0225 33.3869 24.0072 33.386 23.992C33.3842 23.9639 33.3719 23.9374 33.3516 23.918C33.3312 23.8985 33.3042 23.8874 33.276 23.887ZM33.838 23.887C33.808 23.887 33.7793 23.8989 33.7581 23.9201C33.7369 23.9413 33.725 23.97 33.725 24C33.725 24.062 33.776 24.114 33.838 24.113C33.8533 24.1126 33.8684 24.1092 33.8824 24.1028C33.8963 24.0965 33.9089 24.0874 33.9192 24.0761C33.9296 24.0648 33.9376 24.0515 33.9427 24.0371C33.9478 24.0226 33.9499 24.0073 33.949 23.992C33.9472 23.9637 33.9348 23.9371 33.9142 23.9176C33.8936 23.8981 33.8664 23.8872 33.838 23.887ZM34.398 23.887C34.3685 23.8875 34.3403 23.8997 34.3197 23.9209C34.2991 23.942 34.2877 23.9705 34.288 24C34.288 24.061 34.337 24.113 34.398 24.113C34.4137 24.1132 34.4292 24.1101 34.4436 24.104C34.458 24.0979 34.4711 24.0889 34.4818 24.0775C34.4926 24.0662 34.501 24.0527 34.5063 24.038C34.5117 24.0233 34.514 24.0076 34.513 23.992C34.5112 23.9632 34.4983 23.9362 34.4771 23.9166C34.4559 23.897 34.4279 23.8864 34.399 23.887H34.398ZM18.888 26.455V26.457C18.7636 26.4591 18.6408 26.4857 18.5267 26.5353C18.4126 26.5849 18.3094 26.6565 18.223 26.746L16.413 28.602C16.3261 28.6913 16.2578 28.7968 16.2118 28.9126C16.1659 29.0283 16.1433 29.152 16.1454 29.2766C16.1474 29.4011 16.1741 29.524 16.2238 29.6382C16.2735 29.7524 16.3453 29.8556 16.435 29.942C16.524 30.0292 16.6294 30.098 16.7451 30.1442C16.8608 30.1905 16.9846 30.2133 17.1092 30.2115C17.2338 30.2096 17.3568 30.1831 17.4711 30.1334C17.5853 30.0837 17.6886 30.0119 17.775 29.922L19.583 28.063C19.6699 27.9738 19.7384 27.8683 19.7844 27.7526C19.8304 27.6368 19.8531 27.5132 19.8511 27.3886C19.8492 27.2641 19.8226 27.1412 19.773 27.027C19.7234 26.9127 19.6517 26.8094 19.562 26.723C19.473 26.6358 19.3676 26.567 19.252 26.5207C19.1363 26.4743 19.0126 26.4513 18.888 26.453V26.455ZM22.888 26.455V26.457C22.7636 26.4591 22.6408 26.4857 22.5267 26.5353C22.4126 26.5849 22.3094 26.6565 22.223 26.746L20.413 28.602C20.3261 28.6913 20.2578 28.7968 20.2118 28.9126C20.1659 29.0283 20.1433 29.152 20.1454 29.2766C20.1474 29.4011 20.1741 29.524 20.2238 29.6382C20.2735 29.7524 20.3453 29.8556 20.435 29.942C20.524 30.0292 20.6294 30.098 20.7451 30.1442C20.8608 30.1905 20.9846 30.2133 21.1092 30.2115C21.2338 30.2096 21.3568 30.1831 21.4711 30.1334C21.5853 30.0837 21.6886 30.0119 21.775 29.922L23.583 28.063C23.6699 27.9738 23.7384 27.8683 23.7844 27.7526C23.8304 27.6368 23.8531 27.5132 23.8511 27.3886C23.8492 27.2641 23.8226 27.1412 23.773 27.027C23.7234 26.9127 23.6517 26.8094 23.562 26.723C23.473 26.6358 23.3676 26.567 23.252 26.5207C23.1363 26.4743 23.0126 26.4513 22.888 26.453V26.455ZM26.888 26.455V26.457C26.7636 26.4591 26.6408 26.4857 26.5267 26.5353C26.4126 26.5849 26.3094 26.6565 26.223 26.746L24.413 28.602C24.3261 28.6913 24.2578 28.7968 24.2118 28.9126C24.1659 29.0283 24.1433 29.152 24.1454 29.2766C24.1474 29.4011 24.1741 29.524 24.2238 29.6382C24.2735 29.7524 24.3453 29.8556 24.435 29.942C24.524 30.0292 24.6294 30.098 24.7451 30.1442C24.8608 30.1905 24.9846 30.2133 25.1092 30.2115C25.2338 30.2096 25.3568 30.1831 25.4711 30.1334C25.5853 30.0837 25.6886 30.0119 25.775 29.922L27.583 28.063C27.6699 27.9738 27.7384 27.8683 27.7844 27.7526C27.8304 27.6368 27.8531 27.5132 27.8511 27.3886C27.8492 27.2641 27.8226 27.1412 27.773 27.027C27.7234 26.9127 27.6517 26.8094 27.562 26.723C27.473 26.6358 27.3676 26.567 27.252 26.5207C27.1363 26.4743 27.0126 26.4513 26.888 26.453V26.455ZM30.888 26.455V26.457C30.7636 26.4591 30.6408 26.4857 30.5267 26.5353C30.4126 26.5849 30.3094 26.6565 30.223 26.746L28.413 28.602C28.3261 28.6913 28.2578 28.7968 28.2118 28.9126C28.1659 29.0283 28.1433 29.152 28.1454 29.2766C28.1474 29.4011 28.1741 29.524 28.2238 29.6382C28.2735 29.7524 28.3453 29.8556 28.435 29.942C28.524 30.0292 28.6294 30.098 28.7451 30.1442C28.8608 30.1905 28.9846 30.2133 29.1092 30.2115C29.2338 30.2096 29.3568 30.1831 29.4711 30.1334C29.5853 30.0837 29.6886 30.0119 29.775 29.922L31.583 28.063C31.6699 27.9738 31.7384 27.8683 31.7844 27.7526C31.8304 27.6368 31.8531 27.5132 31.8511 27.3886C31.8492 27.2641 31.8226 27.1412 31.773 27.027C31.7234 26.9127 31.6517 26.8094 31.562 26.723C31.473 26.6358 31.3676 26.567 31.252 26.5207C31.1363 26.4743 31.0126 26.4513 30.888 26.453V26.455ZM13.596 32.886C13.5812 32.8861 13.5666 32.8892 13.553 32.895C13.5394 32.9008 13.5271 32.9093 13.5167 32.9199C13.5064 32.9305 13.4983 32.943 13.4929 32.9568C13.4874 32.9705 13.4847 32.9852 13.485 33C13.485 33.061 13.535 33.112 13.595 33.113C13.658 33.113 13.708 33.063 13.709 33C13.7091 32.9851 13.7063 32.9703 13.7007 32.9565C13.6951 32.9426 13.6868 32.93 13.6763 32.9194C13.6658 32.9088 13.6533 32.9004 13.6395 32.8947C13.6257 32.889 13.6109 32.886 13.596 32.886ZM14.158 32.886C14.1279 32.8863 14.0992 32.8984 14.078 32.9197C14.0569 32.9411 14.045 32.9699 14.045 33C14.045 33.061 14.097 33.113 14.158 33.113C14.22 33.113 14.268 33.061 14.27 33V32.98C14.2657 32.9536 14.252 32.9297 14.2314 32.9126C14.2108 32.8955 14.1847 32.8864 14.158 32.887V32.886ZM14.721 32.886C14.7061 32.886 14.6913 32.889 14.6775 32.8947C14.6637 32.9004 14.6512 32.9088 14.6407 32.9194C14.6302 32.93 14.6219 32.9426 14.6163 32.9565C14.6107 32.9703 14.6079 32.9851 14.608 33C14.608 33.062 14.658 33.114 14.721 33.113C14.782 33.113 14.831 33.061 14.832 33V32.98C14.8277 32.9538 14.8141 32.93 14.7938 32.9129C14.7734 32.8958 14.7476 32.8867 14.721 32.887V32.886ZM15.283 32.886C15.2681 32.886 15.2533 32.889 15.2395 32.8947C15.2257 32.9004 15.2132 32.9088 15.2027 32.9194C15.1922 32.93 15.1839 32.9426 15.1783 32.9565C15.1727 32.9703 15.1699 32.9851 15.17 33C15.17 33.062 15.221 33.114 15.283 33.113C15.2984 33.1128 15.3136 33.1094 15.3277 33.1031C15.3418 33.0968 15.3544 33.0878 15.3649 33.0765C15.3753 33.0651 15.3834 33.0518 15.3886 33.0373C15.3938 33.0228 15.3959 33.0074 15.395 32.992C15.3932 32.9635 15.3806 32.9368 15.3598 32.9173C15.339 32.8978 15.3115 32.8869 15.283 32.887V32.886ZM15.846 32.886C15.8311 32.886 15.8163 32.889 15.8025 32.8947C15.7887 32.9004 15.7762 32.9088 15.7657 32.9194C15.7552 32.93 15.7469 32.9426 15.7413 32.9565C15.7357 32.9703 15.7329 32.9851 15.733 33C15.733 33.062 15.783 33.114 15.846 33.113C15.8613 33.1126 15.8764 33.1092 15.8904 33.1028C15.9043 33.0965 15.9169 33.0874 15.9272 33.0761C15.9376 33.0648 15.9456 33.0515 15.9507 33.0371C15.9558 33.0226 15.9579 33.0073 15.957 32.992C15.9552 32.9637 15.9428 32.9371 15.9222 32.9176C15.9016 32.8981 15.8744 32.8872 15.846 32.887V32.886ZM16.408 32.886C16.3931 32.886 16.3783 32.889 16.3645 32.8947C16.3507 32.9004 16.3382 32.9088 16.3277 32.9194C16.3172 32.93 16.3089 32.9426 16.3033 32.9565C16.2977 32.9703 16.2949 32.9851 16.295 33C16.295 33.062 16.346 33.114 16.408 33.113C16.4234 33.1128 16.4386 33.1094 16.4527 33.1031C16.4668 33.0968 16.4794 33.0878 16.4899 33.0765C16.5003 33.0651 16.5084 33.0518 16.5136 33.0373C16.5188 33.0228 16.5209 33.0074 16.52 32.992C16.5182 32.9635 16.5056 32.9368 16.4848 32.9173C16.464 32.8978 16.4365 32.8869 16.408 32.887V32.886ZM16.968 32.886C16.9533 32.8863 16.9388 32.8894 16.9253 32.8953C16.9118 32.9012 16.8996 32.9096 16.8894 32.9202C16.8792 32.9308 16.8711 32.9433 16.8658 32.957C16.8604 32.9707 16.8577 32.9853 16.858 33C16.858 33.061 16.908 33.113 16.968 33.113C16.9837 33.1132 16.9992 33.1101 17.0136 33.104C17.028 33.0979 17.0411 33.0889 17.0518 33.0775C17.0626 33.0662 17.071 33.0527 17.0763 33.038C17.0817 33.0233 17.084 33.0076 17.083 32.992C17.0812 32.9634 17.0685 32.9365 17.0475 32.9169C17.0264 32.8974 16.9987 32.8867 16.97 32.887L16.968 32.886ZM17.531 32.886C17.5162 32.8861 17.5016 32.8892 17.488 32.895C17.4744 32.9008 17.4621 32.9093 17.4517 32.9199C17.4414 32.9305 17.4333 32.943 17.4279 32.9568C17.4224 32.9705 17.4197 32.9852 17.42 33C17.42 33.061 17.47 33.113 17.531 33.113C17.5466 33.113 17.562 33.1099 17.5763 33.1037C17.5906 33.0975 17.6035 33.0885 17.6142 33.0772C17.6249 33.0658 17.6331 33.0524 17.6384 33.0378C17.6437 33.0231 17.646 33.0075 17.645 32.992C17.6432 32.9632 17.6303 32.9362 17.6091 32.9166C17.5879 32.897 17.5599 32.8864 17.531 32.887V32.886ZM18.094 32.886C18.0792 32.8861 18.0646 32.8892 18.051 32.895C18.0374 32.9008 18.0251 32.9093 18.0147 32.9199C18.0044 32.9305 17.9963 32.943 17.9909 32.9568C17.9854 32.9705 17.9827 32.9852 17.983 33C17.983 33.061 18.033 33.113 18.093 33.113C18.1086 33.113 18.124 33.1099 18.1383 33.1037C18.1526 33.0975 18.1655 33.0885 18.1762 33.0772C18.1869 33.0658 18.1951 33.0524 18.2004 33.0378C18.2057 33.0231 18.208 33.0075 18.207 32.992C18.2052 32.9634 18.1925 32.9365 18.1715 32.9169C18.1504 32.8974 18.1227 32.8867 18.094 32.887V32.886ZM18.656 32.886C18.6412 32.8861 18.6266 32.8892 18.613 32.895C18.5994 32.9008 18.5871 32.9093 18.5767 32.9199C18.5664 32.9305 18.5583 32.943 18.5529 32.9568C18.5474 32.9705 18.5447 32.9852 18.545 33C18.545 33.061 18.595 33.113 18.656 33.113C18.718 33.113 18.766 33.061 18.768 33V32.98C18.7637 32.9536 18.75 32.9297 18.7294 32.9126C18.7088 32.8955 18.6827 32.8864 18.656 32.887V32.886ZM19.219 32.886C19.2041 32.886 19.1893 32.889 19.1755 32.8947C19.1617 32.9004 19.1492 32.9088 19.1387 32.9194C19.1282 32.93 19.1199 32.9426 19.1143 32.9565C19.1087 32.9703 19.1059 32.9851 19.106 33C19.106 33.062 19.156 33.114 19.219 33.113C19.2343 33.1126 19.2494 33.1092 19.2634 33.1028C19.2773 33.0965 19.2899 33.0874 19.3002 33.0761C19.3106 33.0648 19.3186 33.0515 19.3237 33.0371C19.3288 33.0226 19.3309 33.0073 19.33 32.992C19.3282 32.9637 19.3158 32.9371 19.2952 32.9176C19.2746 32.8981 19.2474 32.8872 19.219 32.887V32.886ZM19.781 32.886C19.7661 32.886 19.7513 32.889 19.7375 32.8947C19.7237 32.9004 19.7112 32.9088 19.7007 32.9194C19.6902 32.93 19.6819 32.9426 19.6763 32.9565C19.6707 32.9703 19.6679 32.9851 19.668 33C19.668 33.062 19.719 33.114 19.781 33.113C19.7964 33.1128 19.8116 33.1094 19.8257 33.1031C19.8398 33.0968 19.8524 33.0878 19.8629 33.0765C19.8733 33.0651 19.8814 33.0518 19.8866 33.0373C19.8918 33.0228 19.8939 33.0074 19.893 32.992C19.8912 32.9635 19.8786 32.9368 19.8578 32.9173C19.837 32.8978 19.8095 32.8869 19.781 32.887V32.886ZM20.344 32.886C20.3291 32.886 20.3143 32.889 20.3005 32.8947C20.2867 32.9004 20.2742 32.9088 20.2637 32.9194C20.2532 32.93 20.2449 32.9426 20.2393 32.9565C20.2337 32.9703 20.2309 32.9851 20.231 33C20.231 33.062 20.281 33.114 20.344 33.113C20.3593 33.1126 20.3744 33.1092 20.3884 33.1028C20.4023 33.0965 20.4149 33.0874 20.4252 33.0761C20.4356 33.0648 20.4436 33.0515 20.4487 33.0371C20.4538 33.0226 20.4559 33.0073 20.455 32.992C20.4532 32.9637 20.4408 32.9371 20.4202 32.9176C20.3996 32.8981 20.3724 32.8872 20.344 32.887V32.886ZM20.906 32.886C20.8911 32.886 20.8763 32.889 20.8625 32.8947C20.8487 32.9004 20.8362 32.9088 20.8257 32.9194C20.8152 32.93 20.8069 32.9426 20.8013 32.9565C20.7957 32.9703 20.7929 32.9851 20.793 33C20.793 33.062 20.844 33.114 20.906 33.113C20.9214 33.1128 20.9366 33.1094 20.9507 33.1031C20.9648 33.0968 20.9774 33.0878 20.9879 33.0765C20.9983 33.0651 21.0064 33.0518 21.0116 33.0373C21.0168 33.0228 21.0189 33.0074 21.018 32.992C21.0162 32.9635 21.0036 32.9368 20.9828 32.9173C20.962 32.8978 20.9345 32.8869 20.906 32.887V32.886ZM21.466 32.886C21.4513 32.8863 21.4368 32.8894 21.4233 32.8953C21.4098 32.9012 21.3976 32.9096 21.3874 32.9202C21.3772 32.9308 21.3691 32.9433 21.3638 32.957C21.3584 32.9707 21.3557 32.9853 21.356 33C21.356 33.061 21.406 33.113 21.466 33.113C21.4816 33.113 21.497 33.1099 21.5113 33.1037C21.5256 33.0975 21.5385 33.0885 21.5492 33.0772C21.5599 33.0658 21.5681 33.0524 21.5734 33.0378C21.5787 33.0231 21.581 33.0075 21.58 32.992C21.5782 32.9634 21.5655 32.9365 21.5445 32.9169C21.5234 32.8974 21.4957 32.8867 21.467 32.887L21.466 32.886ZM22.029 32.886C22.0143 32.8863 21.9998 32.8894 21.9863 32.8953C21.9728 32.9012 21.9606 32.9096 21.9504 32.9202C21.9402 32.9308 21.9321 32.9433 21.9268 32.957C21.9214 32.9707 21.9187 32.9853 21.919 33C21.919 33.061 21.968 33.113 22.029 33.113C22.0446 33.113 22.06 33.1099 22.0743 33.1037C22.0886 33.0975 22.1015 33.0885 22.1122 33.0772C22.1229 33.0658 22.1311 33.0524 22.1364 33.0378C22.1417 33.0231 22.144 33.0075 22.143 32.992C22.1412 32.9632 22.1283 32.9362 22.1071 32.9166C22.0859 32.897 22.0579 32.8864 22.029 32.887V32.886ZM22.592 32.886C22.5772 32.8861 22.5626 32.8892 22.549 32.895C22.5354 32.9008 22.5231 32.9093 22.5127 32.9199C22.5024 32.9305 22.4943 32.943 22.4888 32.9568C22.4834 32.9705 22.4807 32.9852 22.481 33C22.481 33.061 22.531 33.112 22.591 33.113C22.654 33.113 22.704 33.063 22.705 33C22.7051 32.9851 22.7023 32.9703 22.6967 32.9565C22.6911 32.9426 22.6828 32.93 22.6723 32.9194C22.6618 32.9088 22.6493 32.9004 22.6355 32.8947C22.6217 32.889 22.6069 32.886 22.592 32.886ZM23.154 32.886C23.1393 32.8863 23.1248 32.8894 23.1113 32.8953C23.0978 32.9012 23.0856 32.9096 23.0754 32.9202C23.0652 32.9308 23.0571 32.9433 23.0518 32.957C23.0464 32.9707 23.0437 32.9853 23.044 33C23.044 33.061 23.093 33.113 23.154 33.113C23.1837 33.1125 23.212 33.1004 23.233 33.0793C23.2539 33.0582 23.2657 33.0297 23.266 33V32.98C23.2617 32.9536 23.248 32.9297 23.2274 32.9126C23.2068 32.8955 23.1807 32.8864 23.154 32.887V32.886ZM23.717 32.886C23.7021 32.886 23.6873 32.889 23.6735 32.8947C23.6597 32.9004 23.6472 32.9088 23.6367 32.9194C23.6262 32.93 23.6179 32.9426 23.6123 32.9565C23.6067 32.9703 23.6039 32.9851 23.604 33C23.604 33.062 23.654 33.114 23.717 33.113C23.778 33.113 23.827 33.061 23.828 33V32.98C23.8237 32.9538 23.8101 32.93 23.7898 32.9129C23.7694 32.8958 23.7436 32.8867 23.717 32.887V32.886ZM24.279 32.886C24.2641 32.886 24.2493 32.889 24.2355 32.8947C24.2217 32.9004 24.2092 32.9088 24.1987 32.9194C24.1882 32.93 24.1799 32.9426 24.1743 32.9565C24.1687 32.9703 24.1659 32.9851 24.166 33C24.166 33.062 24.217 33.114 24.279 33.113C24.2944 33.1128 24.3096 33.1094 24.3237 33.1031C24.3378 33.0968 24.3504 33.0878 24.3609 33.0765C24.3713 33.0651 24.3794 33.0518 24.3846 33.0373C24.3898 33.0228 24.3919 33.0074 24.391 32.992C24.3892 32.9635 24.3766 32.9368 24.3558 32.9173C24.335 32.8978 24.3075 32.8869 24.279 32.887V32.886ZM24.842 32.886C24.8271 32.886 24.8123 32.889 24.7985 32.8947C24.7847 32.9004 24.7722 32.9088 24.7617 32.9194C24.7512 32.93 24.7429 32.9426 24.7373 32.9565C24.7317 32.9703 24.7289 32.9851 24.729 33C24.729 33.062 24.779 33.114 24.842 33.113C24.8573 33.1126 24.8724 33.1092 24.8864 33.1028C24.9003 33.0965 24.9129 33.0874 24.9232 33.0761C24.9336 33.0648 24.9416 33.0515 24.9467 33.0371C24.9518 33.0226 24.9539 33.0073 24.953 32.992C24.9512 32.9637 24.9388 32.9371 24.9182 32.9176C24.8976 32.8981 24.8704 32.8872 24.842 32.887V32.886ZM25.402 32.886C25.3873 32.8863 25.3728 32.8894 25.3593 32.8953C25.3458 32.9012 25.3336 32.9096 25.3234 32.9202C25.3132 32.9308 25.3051 32.9433 25.2998 32.957C25.2944 32.9707 25.2917 32.9853 25.292 33C25.292 33.061 25.342 33.113 25.402 33.113C25.4176 33.113 25.433 33.1099 25.4473 33.1037C25.4616 33.0975 25.4745 33.0885 25.4852 33.0772C25.4959 33.0658 25.5041 33.0524 25.5094 33.0378C25.5147 33.0231 25.517 33.0075 25.516 32.992C25.5142 32.9632 25.5013 32.9362 25.4801 32.9166C25.4589 32.897 25.4309 32.8864 25.402 32.887V32.886ZM25.965 32.886C25.9502 32.8861 25.9356 32.8892 25.922 32.895C25.9084 32.9008 25.8961 32.9093 25.8857 32.9199C25.8754 32.9305 25.8673 32.943 25.8619 32.9568C25.8564 32.9705 25.8537 32.9852 25.854 33C25.854 33.061 25.904 33.113 25.965 33.113C25.9805 33.1129 25.9958 33.1096 26.01 33.1034C26.0242 33.0972 26.037 33.0881 26.0475 33.0768C26.0581 33.0655 26.0663 33.0521 26.0715 33.0375C26.0767 33.023 26.079 33.0075 26.078 32.992C26.0762 32.9634 26.0635 32.9365 26.0425 32.9169C26.0214 32.8974 25.9937 32.8867 25.965 32.887V32.886ZM26.528 32.886C26.5131 32.886 26.4984 32.889 26.4847 32.8947C26.471 32.9005 26.4585 32.9089 26.4481 32.9195C26.4377 32.9301 26.4295 32.9427 26.4239 32.9565C26.4184 32.9703 26.4157 32.9851 26.416 33C26.416 33.061 26.466 33.113 26.527 33.113C26.5426 33.113 26.558 33.1099 26.5723 33.1037C26.5866 33.0975 26.5995 33.0885 26.6102 33.0772C26.6209 33.0658 26.6291 33.0524 26.6344 33.0378C26.6397 33.0231 26.642 33.0075 26.641 32.992C26.6392 32.9632 26.6263 32.9362 26.6051 32.9166C26.5839 32.897 26.5559 32.8864 26.527 32.887L26.528 32.886ZM27.09 32.886C27.0752 32.8861 27.0606 32.8892 27.047 32.895C27.0334 32.9008 27.0211 32.9093 27.0107 32.9199C27.0004 32.9305 26.9923 32.943 26.9869 32.9568C26.9814 32.9705 26.9787 32.9852 26.979 33C26.979 33.061 27.029 33.112 27.09 33.113C27.152 33.113 27.203 33.063 27.203 33C27.2033 32.985 27.2005 32.9702 27.195 32.9563C27.1894 32.9424 27.1811 32.9298 27.1706 32.9192C27.16 32.9085 27.1475 32.9001 27.1336 32.8944C27.1198 32.8887 27.105 32.8859 27.09 32.886ZM27.653 32.886C27.6381 32.886 27.6234 32.889 27.6097 32.8947C27.596 32.9005 27.5835 32.9089 27.5731 32.9195C27.5627 32.9301 27.5545 32.9427 27.5489 32.9565C27.5434 32.9703 27.5407 32.9851 27.541 33C27.541 33.061 27.591 33.113 27.652 33.113C27.714 33.113 27.763 33.061 27.764 33V32.98C27.7597 32.9538 27.7461 32.93 27.7258 32.9129C27.7054 32.8958 27.6796 32.8867 27.653 32.887V32.886ZM28.215 32.886C28.2001 32.886 28.1853 32.889 28.1715 32.8947C28.1577 32.9004 28.1452 32.9088 28.1347 32.9194C28.1242 32.93 28.1159 32.9426 28.1103 32.9565C28.1047 32.9703 28.1019 32.9851 28.102 33C28.102 33.062 28.153 33.114 28.215 33.113C28.2303 33.1126 28.2454 33.1092 28.2594 33.1028C28.2733 33.0965 28.2859 33.0874 28.2962 33.0761C28.3066 33.0648 28.3146 33.0515 28.3197 33.0371C28.3248 33.0226 28.3269 33.0073 28.326 32.992C28.3242 32.9637 28.3118 32.9371 28.2912 32.9176C28.2706 32.8981 28.2434 32.8872 28.215 32.887V32.886ZM28.778 32.886C28.763 32.8859 28.7481 32.8887 28.7342 32.8944C28.7203 32.9001 28.7077 32.9085 28.6971 32.9191C28.6865 32.9297 28.6781 32.9423 28.6724 32.9562C28.6667 32.9701 28.6639 32.985 28.664 33C28.664 33.062 28.716 33.114 28.777 33.113C28.7924 33.1128 28.8076 33.1094 28.8217 33.1031C28.8358 33.0968 28.8484 33.0878 28.8589 33.0765C28.8693 33.0651 28.8774 33.0518 28.8826 33.0373C28.8878 33.0228 28.8899 33.0074 28.889 32.992C28.8872 32.9637 28.8748 32.9371 28.8542 32.9176C28.8336 32.8981 28.8064 32.8872 28.778 32.887V32.886ZM29.34 32.886C29.3251 32.886 29.3103 32.889 29.2965 32.8947C29.2827 32.9004 29.2702 32.9088 29.2597 32.9194C29.2492 32.93 29.2409 32.9426 29.2353 32.9565C29.2297 32.9703 29.2269 32.9851 29.227 33C29.227 33.062 29.278 33.114 29.34 33.113C29.3553 33.1126 29.3704 33.1092 29.3844 33.1028C29.3983 33.0965 29.4109 33.0874 29.4212 33.0761C29.4316 33.0648 29.4396 33.0515 29.4447 33.0371C29.4498 33.0226 29.4519 33.0073 29.451 32.992C29.4492 32.9637 29.4368 32.9371 29.4162 32.9176C29.3956 32.8981 29.3684 32.8872 29.34 32.887V32.886ZM29.9 32.886C29.8853 32.8863 29.8708 32.8894 29.8573 32.8953C29.8438 32.9012 29.8316 32.9096 29.8214 32.9202C29.8112 32.9308 29.8031 32.9433 29.7978 32.957C29.7924 32.9707 29.7897 32.9853 29.79 33C29.79 33.061 29.839 33.113 29.9 33.113C29.9156 33.113 29.931 33.1099 29.9453 33.1037C29.9596 33.0975 29.9725 33.0885 29.9832 33.0772C29.9939 33.0658 30.0021 33.0524 30.0074 33.0378C30.0127 33.0231 30.015 33.0075 30.014 32.992C30.0122 32.9634 29.9995 32.9365 29.9785 32.9169C29.9574 32.8974 29.9297 32.8867 29.901 32.887L29.9 32.886ZM30.463 32.886C30.4482 32.8861 30.4336 32.8892 30.42 32.895C30.4064 32.9008 30.3941 32.9093 30.3837 32.9199C30.3734 32.9305 30.3653 32.943 30.3598 32.9568C30.3544 32.9705 30.3517 32.9852 30.352 33C30.352 33.061 30.402 33.113 30.463 33.113C30.4785 33.1129 30.4938 33.1096 30.508 33.1034C30.5222 33.0972 30.535 33.0881 30.5455 33.0768C30.5561 33.0655 30.5643 33.0521 30.5695 33.0375C30.5747 33.023 30.577 33.0075 30.576 32.992C30.5742 32.9634 30.5615 32.9365 30.5405 32.9169C30.5194 32.8974 30.4917 32.8867 30.463 32.887V32.886ZM31.026 32.886C31.0111 32.886 30.9964 32.889 30.9827 32.8947C30.969 32.9005 30.9565 32.9089 30.9461 32.9195C30.9357 32.9301 30.9275 32.9427 30.9219 32.9565C30.9164 32.9703 30.9137 32.9851 30.914 33C30.914 33.061 30.964 33.113 31.025 33.113C31.0406 33.113 31.056 33.1099 31.0703 33.1037C31.0846 33.0975 31.0975 33.0885 31.1082 33.0772C31.1189 33.0658 31.1271 33.0524 31.1324 33.0378C31.1377 33.0231 31.14 33.0075 31.139 32.992C31.1372 32.9634 31.1245 32.9365 31.1035 32.9169C31.0824 32.8974 31.0547 32.8867 31.026 32.887V32.886ZM31.588 32.886C31.5732 32.8861 31.5586 32.8892 31.545 32.895C31.5314 32.9008 31.5191 32.9093 31.5087 32.9199C31.4984 32.9305 31.4903 32.943 31.4848 32.9568C31.4794 32.9705 31.4767 32.9852 31.477 33C31.477 33.061 31.527 33.113 31.588 33.113C31.649 33.113 31.698 33.061 31.699 33V32.98C31.6947 32.9538 31.6811 32.93 31.6608 32.9129C31.6404 32.8958 31.6146 32.8867 31.588 32.887V32.886ZM32.151 32.886C32.136 32.8859 32.1211 32.8887 32.1072 32.8944C32.0933 32.9001 32.0807 32.9085 32.0701 32.9191C32.0595 32.9297 32.0511 32.9423 32.0454 32.9562C32.0397 32.9701 32.0369 32.985 32.037 33C32.037 33.062 32.089 33.114 32.151 33.113C32.211 33.113 32.261 33.061 32.261 33V32.98C32.2567 32.9539 32.2433 32.9303 32.2231 32.9132C32.203 32.8962 32.1774 32.8869 32.151 32.887V32.886ZM32.713 32.886C32.6981 32.886 32.6833 32.889 32.6695 32.8947C32.6558 32.9004 32.6432 32.9088 32.6327 32.9194C32.6222 32.93 32.6139 32.9426 32.6083 32.9565C32.6027 32.9703 32.5999 32.9851 32.6 33C32.6 33.062 32.651 33.114 32.713 33.113C32.7283 33.1126 32.7434 33.1092 32.7574 33.1028C32.7713 33.0965 32.7839 33.0874 32.7942 33.0761C32.8046 33.0648 32.8126 33.0515 32.8177 33.0371C32.8228 33.0226 32.8249 33.0073 32.824 32.992C32.8222 32.9637 32.8098 32.9371 32.7892 32.9176C32.7686 32.8981 32.7414 32.8872 32.713 32.887V32.886ZM33.276 32.886C33.261 32.8859 33.2461 32.8887 33.2322 32.8944C33.2183 32.9001 33.2057 32.9085 33.1951 32.9191C33.1845 32.9297 33.1761 32.9423 33.1704 32.9562C33.1647 32.9701 33.1619 32.985 33.162 33C33.162 33.062 33.214 33.114 33.276 33.113C33.2912 33.1125 33.3062 33.1089 33.3201 33.1025C33.3339 33.0961 33.3463 33.087 33.3566 33.0757C33.3668 33.0645 33.3747 33.0512 33.3798 33.0369C33.3848 33.0225 33.3869 33.0072 33.386 32.992C33.3842 32.9639 33.3719 32.9374 33.3516 32.918C33.3312 32.8985 33.3042 32.8875 33.276 32.887V32.886ZM33.838 32.886C33.8231 32.886 33.8083 32.889 33.7945 32.8947C33.7808 32.9004 33.7682 32.9088 33.7577 32.9194C33.7472 32.93 33.7389 32.9426 33.7333 32.9565C33.7277 32.9703 33.7249 32.9851 33.725 33C33.725 33.062 33.776 33.114 33.838 33.113C33.8533 33.1126 33.8684 33.1092 33.8824 33.1028C33.8963 33.0965 33.9089 33.0874 33.9192 33.0761C33.9296 33.0648 33.9376 33.0515 33.9427 33.0371C33.9478 33.0226 33.9499 33.0073 33.949 32.992C33.9472 32.9637 33.9348 32.9371 33.9142 32.9176C33.8936 32.8981 33.8664 32.8872 33.838 32.887V32.886ZM34.398 32.886C34.3833 32.8863 34.3688 32.8894 34.3553 32.8953C34.3418 32.9012 34.3296 32.9096 34.3194 32.9202C34.3092 32.9308 34.3011 32.9433 34.2958 32.957C34.2904 32.9707 34.2877 32.9853 34.288 33C34.288 33.061 34.337 33.113 34.398 33.113C34.4137 33.1132 34.4292 33.1101 34.4436 33.104C34.458 33.0979 34.4711 33.0889 34.4818 33.0775C34.4926 33.0662 34.501 33.0527 34.5063 33.038C34.5117 33.0233 34.514 33.0076 34.513 32.992C34.5112 32.9632 34.4983 32.9362 34.4771 32.9166C34.4559 32.897 34.4279 32.8864 34.399 32.887L34.398 32.886ZM18.888 35.121V35.123C18.7636 35.1251 18.6408 35.1517 18.5267 35.2013C18.4126 35.2509 18.3094 35.3225 18.223 35.412L16.414 37.269C16.3271 37.3583 16.2588 37.4638 16.2128 37.5796C16.1669 37.6953 16.1443 37.819 16.1464 37.9436C16.1484 38.0681 16.1751 38.191 16.2248 38.3052C16.2745 38.4194 16.3463 38.5226 16.436 38.609C16.525 38.6962 16.6304 38.765 16.7461 38.8112C16.8618 38.8575 16.9856 38.8803 17.1102 38.8785C17.2348 38.8766 17.3578 38.8501 17.4721 38.8004C17.5863 38.7507 17.6896 38.6788 17.776 38.589L19.584 36.73C19.6709 36.6408 19.7394 36.5353 19.7854 36.4196C19.8314 36.3039 19.8541 36.1802 19.8521 36.0556C19.8502 35.9311 19.8236 35.8082 19.774 35.694C19.7244 35.5797 19.6527 35.4764 19.563 35.39C19.474 35.3028 19.3686 35.234 19.253 35.1877C19.1373 35.1413 19.0136 35.1183 18.889 35.12L18.888 35.121ZM22.888 35.121V35.123C22.7636 35.1251 22.6408 35.1517 22.5267 35.2013C22.4126 35.2509 22.3094 35.3225 22.223 35.412L20.414 37.269C20.3271 37.3583 20.2588 37.4638 20.2128 37.5796C20.1669 37.6953 20.1443 37.819 20.1464 37.9436C20.1484 38.0681 20.1751 38.191 20.2248 38.3052C20.2745 38.4194 20.3463 38.5226 20.436 38.609C20.525 38.6962 20.6304 38.765 20.7461 38.8112C20.8618 38.8575 20.9856 38.8803 21.1102 38.8785C21.2348 38.8766 21.3578 38.8501 21.4721 38.8004C21.5863 38.7507 21.6896 38.6788 21.776 38.589L23.584 36.73C23.6709 36.6408 23.7394 36.5353 23.7854 36.4196C23.8314 36.3039 23.8541 36.1802 23.8521 36.0556C23.8502 35.9311 23.8236 35.8082 23.774 35.694C23.7244 35.5797 23.6527 35.4764 23.563 35.39C23.474 35.3028 23.3686 35.234 23.253 35.1877C23.1373 35.1413 23.0136 35.1183 22.889 35.12L22.888 35.121ZM26.888 35.121V35.123C26.7636 35.1251 26.6408 35.1517 26.5267 35.2013C26.4126 35.2509 26.3094 35.3225 26.223 35.412L24.414 37.269C24.3271 37.3583 24.2588 37.4638 24.2128 37.5796C24.1669 37.6953 24.1443 37.819 24.1464 37.9436C24.1484 38.0681 24.1751 38.191 24.2248 38.3052C24.2745 38.4194 24.3463 38.5226 24.436 38.609C24.525 38.6962 24.6304 38.765 24.7461 38.8112C24.8618 38.8575 24.9856 38.8803 25.1102 38.8785C25.2348 38.8766 25.3578 38.8501 25.4721 38.8004C25.5863 38.7507 25.6896 38.6788 25.776 38.589L27.584 36.73C27.6709 36.6408 27.7394 36.5353 27.7854 36.4196C27.8314 36.3039 27.8541 36.1802 27.8521 36.0556C27.8502 35.9311 27.8236 35.8082 27.774 35.694C27.7244 35.5797 27.6527 35.4764 27.563 35.39C27.474 35.3028 27.3686 35.234 27.253 35.1877C27.1373 35.1413 27.0136 35.1183 26.889 35.12L26.888 35.121ZM30.888 35.121V35.123C30.7636 35.1251 30.6408 35.1517 30.5267 35.2013C30.4126 35.2509 30.3094 35.3225 30.223 35.412L28.414 37.269C28.3271 37.3583 28.2588 37.4638 28.2128 37.5796C28.1669 37.6953 28.1443 37.819 28.1464 37.9436C28.1484 38.0681 28.1751 38.191 28.2248 38.3052C28.2745 38.4194 28.3463 38.5226 28.436 38.609C28.525 38.6962 28.6304 38.765 28.7461 38.8112C28.8618 38.8575 28.9856 38.8803 29.1102 38.8785C29.2348 38.8766 29.3578 38.8501 29.4721 38.8004C29.5863 38.7507 29.6896 38.6788 29.776 38.589L31.584 36.73C31.6709 36.6408 31.7394 36.5353 31.7854 36.4196C31.8314 36.3039 31.8541 36.1802 31.8521 36.0556C31.8502 35.9311 31.8236 35.8082 31.774 35.694C31.7244 35.5797 31.6527 35.4764 31.563 35.39C31.474 35.3028 31.3686 35.234 31.253 35.1877C31.1373 35.1413 31.0136 35.1183 30.889 35.12L30.888 35.121Z" fill="#333333"/>
</svg>
