<svg width="48" height="48" viewBox="0 0 48 48" fill="none" xmlns="http://www.w3.org/2000/svg">
<path fill-rule="evenodd" clip-rule="evenodd" d="M0 0V48H48V0H0ZM14.146 4H33.852C34.721 4 35.42 4.699 35.42 5.568V42.43C35.4204 42.6361 35.3801 42.8403 35.3015 43.0308C35.2229 43.2213 35.1074 43.3945 34.9617 43.5403C34.8161 43.6862 34.6431 43.8018 34.4527 43.8807C34.2622 43.9596 34.0581 44.0001 33.852 44H14.147C13.277 44 12.578 43.3 12.578 42.43V5.568C12.578 4.698 13.277 4 14.147 4H14.146ZM18.026 9.143V9.145C17.842 9.167 17.663 9.271 17.371 9.398L15.563 11.254C15.4761 11.3432 15.4076 11.4487 15.3616 11.5644C15.3156 11.6802 15.2929 11.8038 15.2949 11.9284C15.2968 12.0529 15.3234 12.1758 15.373 12.29C15.4226 12.4043 15.4943 12.5076 15.584 12.594C15.6731 12.6811 15.7785 12.7497 15.8942 12.7959C16.0099 12.8421 16.1336 12.8649 16.2582 12.863C16.3827 12.8612 16.5057 12.8347 16.62 12.7851C16.7343 12.7355 16.8376 12.6637 16.924 12.574L18.732 10.714C18.8188 10.6248 18.8871 10.5194 18.933 10.4038C18.9789 10.2881 19.0016 10.1645 18.9996 10.0401C18.9977 9.91573 18.9712 9.79293 18.9216 9.67879C18.8721 9.56464 18.8005 9.46141 18.711 9.375C18.398 9.177 18.209 9.12 18.025 9.143H18.026ZM21.588 9.143V9.145C21.404 9.167 21.225 9.271 20.934 9.398L19.125 11.255C19.0381 11.3442 18.9696 11.4497 18.9236 11.5654C18.8776 11.6812 18.8549 11.8048 18.8569 11.9294C18.8588 12.0539 18.8854 12.1768 18.935 12.291C18.9846 12.4053 19.0563 12.5086 19.146 12.595C19.2351 12.6821 19.3405 12.7507 19.4562 12.7969C19.5719 12.8431 19.6956 12.8659 19.8202 12.864C19.9447 12.8622 20.0677 12.8357 20.182 12.7861C20.2962 12.7365 20.3996 12.6647 20.486 12.575L22.295 10.715C22.3817 10.6258 22.4499 10.5203 22.4958 10.4046C22.5416 10.2889 22.5642 10.1653 22.5621 10.0409C22.5601 9.91652 22.5335 9.79374 22.4839 9.67963C22.4343 9.56553 22.3626 9.46234 22.273 9.376C21.96 9.178 21.772 9.121 21.588 9.144V9.143ZM24.965 9.143V9.145C24.781 9.167 24.602 9.271 24.311 9.398L22.502 11.254C22.4151 11.3432 22.3466 11.4487 22.3006 11.5644C22.2546 11.6802 22.2319 11.8038 22.2339 11.9284C22.2358 12.0529 22.2624 12.1758 22.312 12.29C22.3616 12.4043 22.4333 12.5076 22.523 12.594C22.6121 12.6811 22.7175 12.7497 22.8332 12.7959C22.9489 12.8421 23.0726 12.8649 23.1972 12.863C23.3217 12.8612 23.4447 12.8347 23.559 12.7851C23.6733 12.7355 23.7766 12.6637 23.863 12.574L25.672 10.714C25.7587 10.6248 25.8269 10.5193 25.8728 10.4036C25.9186 10.2879 25.9412 10.1643 25.9391 10.0399C25.9371 9.91552 25.9105 9.79274 25.8609 9.67863C25.8113 9.56453 25.7396 9.46134 25.65 9.375C25.337 9.177 25.149 9.12 24.965 9.143ZM28.527 9.143V9.145C28.343 9.167 28.164 9.271 27.873 9.398L26.064 11.254C25.9771 11.3433 25.9088 11.4488 25.8629 11.5646C25.8169 11.6803 25.7943 11.804 25.7964 11.9286C25.7984 12.0531 25.8251 12.176 25.8748 12.2902C25.9245 12.4044 25.9963 12.5076 26.086 12.594C26.1751 12.6811 26.2805 12.7497 26.3962 12.7959C26.5119 12.8421 26.6356 12.8649 26.7602 12.863C26.8847 12.8612 27.0077 12.8347 27.122 12.7851C27.2362 12.7355 27.3396 12.6637 27.426 12.574L29.234 10.714C29.3208 10.6248 29.3891 10.5194 29.435 10.4038C29.4809 10.2881 29.5036 10.1645 29.5016 10.0401C29.4997 9.91573 29.4732 9.79293 29.4236 9.67879C29.3741 9.56464 29.3025 9.46141 29.213 9.375C28.9 9.177 28.711 9.12 28.527 9.143ZM31.727 9.143V9.145C31.543 9.167 31.366 9.271 31.074 9.398L29.266 11.254C29.1791 11.3432 29.1106 11.4487 29.0646 11.5644C29.0186 11.6802 28.9959 11.8038 28.9979 11.9284C28.9998 12.0529 29.0264 12.1758 29.076 12.29C29.1256 12.4043 29.1973 12.5076 29.287 12.594C29.3761 12.6811 29.4815 12.7497 29.5972 12.7959C29.7129 12.8421 29.8366 12.8649 29.9612 12.863C30.0857 12.8612 30.2087 12.8347 30.323 12.7851C30.4373 12.7355 30.5406 12.6637 30.627 12.574L32.435 10.714C32.5218 10.6249 32.5902 10.5195 32.6362 10.4039C32.6822 10.2883 32.705 10.1648 32.7031 10.0403C32.7013 9.91594 32.6748 9.79312 32.6254 9.67894C32.576 9.56476 32.5045 9.46147 32.415 9.375C32.101 9.177 31.91 9.12 31.727 9.143ZM13.595 14.887C13.5802 14.887 13.5656 14.8899 13.5519 14.8956C13.5383 14.9013 13.5259 14.9096 13.5154 14.9202C13.505 14.9307 13.4968 14.9431 13.4912 14.9568C13.4857 14.9705 13.4829 14.9852 13.483 15C13.483 15.061 13.533 15.113 13.595 15.113C13.657 15.113 13.707 15.063 13.708 15C13.708 14.97 13.6961 14.9413 13.6749 14.9201C13.6537 14.8989 13.625 14.887 13.595 14.887ZM22.591 14.887C22.5763 14.8871 22.5618 14.8902 22.5482 14.8959C22.5347 14.9017 22.5224 14.91 22.5121 14.9205C22.5018 14.931 22.4936 14.9434 22.4881 14.9571C22.4826 14.9707 22.4799 14.9853 22.48 15C22.48 15.061 22.53 15.113 22.59 15.113C22.653 15.113 22.703 15.063 22.704 15C22.704 14.97 22.6921 14.9413 22.6709 14.9201C22.6497 14.8989 22.621 14.887 22.591 14.887ZM27.089 14.887C27.0743 14.8871 27.0598 14.8902 27.0462 14.8959C27.0327 14.9017 27.0204 14.91 27.0101 14.9205C26.9998 14.931 26.9916 14.9434 26.9861 14.9571C26.9806 14.9707 26.9779 14.9853 26.978 15C26.978 15.061 27.028 15.113 27.088 15.113C27.151 15.113 27.203 15.063 27.204 15C27.2039 14.985 27.2008 14.9702 27.1949 14.9564C27.1891 14.9427 27.1806 14.9302 27.1699 14.9197C27.1592 14.9092 27.1466 14.9009 27.1327 14.8953C27.1188 14.8897 27.104 14.8869 27.089 14.887ZM14.157 14.889C14.1296 14.8927 14.1045 14.9061 14.0863 14.9269C14.0681 14.9477 14.0581 14.9744 14.0581 15.002C14.0581 15.0296 14.0681 15.0563 14.0863 15.0771C14.1045 15.0979 14.1296 15.1113 14.157 15.115C14.1867 15.1142 14.215 15.1021 14.2361 15.0811C14.2571 15.06 14.2692 15.0317 14.27 15.002V14.982C14.2653 14.9556 14.2513 14.9318 14.2306 14.9147C14.2099 14.8977 14.1838 14.8886 14.157 14.889ZM14.72 14.889C14.7051 14.8887 14.6904 14.8915 14.6766 14.8971C14.6628 14.9027 14.6503 14.911 14.6398 14.9215C14.6294 14.9321 14.6211 14.9447 14.6157 14.9585C14.6102 14.9723 14.6076 14.9871 14.608 15.002C14.608 15.064 14.658 15.116 14.72 15.115C14.7497 15.1142 14.778 15.1021 14.7991 15.0811C14.8201 15.06 14.8322 15.0317 14.833 15.002V14.982C14.8283 14.9556 14.8143 14.9318 14.7936 14.9147C14.7729 14.8977 14.7468 14.8886 14.72 14.889ZM15.282 14.889C15.2672 14.8889 15.2526 14.8917 15.2389 14.8974C15.2252 14.903 15.2128 14.9114 15.2025 14.9219C15.1921 14.9325 15.184 14.945 15.1786 14.9587C15.1732 14.9725 15.1706 14.9872 15.171 15.002C15.171 15.064 15.221 15.116 15.282 15.115C15.3119 15.1145 15.3405 15.1025 15.3617 15.0814C15.3829 15.0603 15.3952 15.0319 15.396 15.002V14.994C15.3937 14.9654 15.3807 14.9386 15.3596 14.9191C15.3384 14.8997 15.3107 14.8889 15.282 14.889ZM15.845 14.889C15.8301 14.8887 15.8154 14.8915 15.8016 14.8971C15.7878 14.9027 15.7753 14.911 15.7648 14.9215C15.7544 14.9321 15.7461 14.9447 15.7407 14.9585C15.7352 14.9723 15.7326 14.9871 15.733 15.002C15.733 15.064 15.783 15.116 15.845 15.115C15.8747 15.1142 15.903 15.1021 15.9241 15.0811C15.9451 15.06 15.9572 15.0317 15.958 15.002V14.994C15.9557 14.9655 15.9429 14.9389 15.922 14.9195C15.901 14.9 15.8736 14.8892 15.845 14.889ZM16.407 14.889C16.3922 14.8889 16.3776 14.8917 16.3639 14.8974C16.3502 14.903 16.3378 14.9114 16.3275 14.9219C16.3171 14.9325 16.309 14.945 16.3036 14.9587C16.2982 14.9725 16.2956 14.9872 16.296 15.002C16.296 15.064 16.346 15.116 16.407 15.115C16.4367 15.1142 16.465 15.1021 16.4861 15.0811C16.5071 15.06 16.5192 15.0317 16.52 15.002V14.994C16.5177 14.9655 16.5049 14.9389 16.484 14.9195C16.463 14.9 16.4356 14.8892 16.407 14.889ZM16.967 14.889C16.9396 14.8927 16.9145 14.9061 16.8963 14.9269C16.8781 14.9477 16.8681 14.9744 16.8681 15.002C16.8681 15.0296 16.8781 15.0563 16.8963 15.0771C16.9145 15.0979 16.9396 15.1113 16.967 15.115C16.9971 15.115 17.0259 15.1031 17.0473 15.082C17.0686 15.0608 17.0807 15.0321 17.081 15.002V14.994C17.0792 14.9654 17.0665 14.9385 17.0455 14.9189C17.0244 14.8994 16.9967 14.8887 16.968 14.889H16.967ZM17.53 14.889C17.5026 14.8927 17.4775 14.9061 17.4593 14.9269C17.4411 14.9477 17.4311 14.9744 17.4311 15.002C17.4311 15.0296 17.4411 15.0563 17.4593 15.0771C17.4775 15.0979 17.5026 15.1113 17.53 15.115C17.5599 15.1147 17.5885 15.1027 17.6096 15.0816C17.6308 15.0605 17.6427 15.0319 17.643 15.002V14.994C17.6412 14.9654 17.6285 14.9385 17.6075 14.9189C17.5864 14.8994 17.5587 14.8887 17.53 14.889ZM18.093 14.889C18.0656 14.8927 18.0405 14.9061 18.0223 14.9269C18.0041 14.9477 17.9941 14.9744 17.9941 15.002C17.9941 15.0296 18.0041 15.0563 18.0223 15.0771C18.0405 15.0979 18.0656 15.1113 18.093 15.115C18.1229 15.1147 18.1515 15.1027 18.1726 15.0816C18.1938 15.0605 18.2057 15.0319 18.206 15.002V14.994C18.2042 14.9654 18.1915 14.9385 18.1705 14.9189C18.1494 14.8994 18.1217 14.8887 18.093 14.889ZM18.655 14.889C18.6403 14.8891 18.6258 14.8922 18.6122 14.8979C18.5987 14.9037 18.5864 14.912 18.5761 14.9225C18.5658 14.933 18.5576 14.9454 18.5521 14.9591C18.5466 14.9727 18.5439 14.9873 18.544 15.002C18.544 15.063 18.594 15.115 18.655 15.115C18.6849 15.1145 18.7135 15.1025 18.7347 15.0814C18.7559 15.0603 18.7682 15.0319 18.769 15.002V14.982C18.7642 14.9554 18.7501 14.9315 18.7292 14.9144C18.7083 14.8973 18.682 14.8883 18.655 14.889ZM19.218 14.889C19.2031 14.8887 19.1884 14.8915 19.1746 14.8971C19.1608 14.9027 19.1483 14.911 19.1378 14.9215C19.1274 14.9321 19.1191 14.9447 19.1137 14.9585C19.1082 14.9723 19.1056 14.9871 19.106 15.002C19.106 15.064 19.156 15.116 19.218 15.115C19.2477 15.1142 19.276 15.1021 19.2971 15.0811C19.3181 15.06 19.3302 15.0317 19.331 15.002V14.994C19.3287 14.9655 19.3159 14.9389 19.295 14.9195C19.274 14.9 19.2466 14.8892 19.218 14.889ZM19.78 14.889C19.7652 14.8889 19.7506 14.8917 19.7369 14.8974C19.7232 14.903 19.7108 14.9114 19.7005 14.9219C19.6901 14.9325 19.682 14.945 19.6766 14.9587C19.6712 14.9725 19.6686 14.9872 19.669 15.002C19.669 15.064 19.719 15.116 19.78 15.115C19.8099 15.1145 19.8385 15.1025 19.8597 15.0814C19.8809 15.0603 19.8932 15.0319 19.894 15.002V14.994C19.8917 14.9654 19.8787 14.9386 19.8576 14.9191C19.8364 14.8997 19.8087 14.8889 19.78 14.889ZM20.343 14.889C20.3281 14.8887 20.3134 14.8915 20.2996 14.8971C20.2858 14.9027 20.2733 14.911 20.2628 14.9215C20.2524 14.9321 20.2441 14.9447 20.2387 14.9585C20.2332 14.9723 20.2306 14.9871 20.231 15.002C20.231 15.064 20.281 15.116 20.343 15.115C20.404 15.115 20.453 15.063 20.454 15.002V14.994C20.4522 14.9657 20.4398 14.9391 20.4192 14.9196C20.3986 14.9001 20.3714 14.8892 20.343 14.889ZM20.905 14.889C20.8902 14.8889 20.8756 14.8917 20.8619 14.8974C20.8482 14.903 20.8358 14.9114 20.8255 14.9219C20.8151 14.9325 20.807 14.945 20.8016 14.9587C20.7962 14.9725 20.7936 14.9872 20.794 15.002C20.794 15.064 20.844 15.116 20.905 15.115C20.9349 15.1145 20.9635 15.1025 20.9847 15.0814C21.0059 15.0603 21.0182 15.0319 21.019 15.002V14.994C21.0167 14.9654 21.0037 14.9386 20.9826 14.9191C20.9614 14.8997 20.9337 14.8889 20.905 14.889ZM21.465 14.889C21.4376 14.8927 21.4125 14.9061 21.3943 14.9269C21.3761 14.9477 21.3661 14.9744 21.3661 15.002C21.3661 15.0296 21.3761 15.0563 21.3943 15.0771C21.4125 15.0979 21.4376 15.1113 21.465 15.115C21.4951 15.115 21.5239 15.1031 21.5453 15.082C21.5666 15.0608 21.5787 15.0321 21.579 15.002V14.994C21.5772 14.9654 21.5645 14.9385 21.5435 14.9189C21.5224 14.8994 21.4947 14.8887 21.466 14.889H21.465ZM22.028 14.889C22.0006 14.8927 21.9755 14.9061 21.9573 14.9269C21.9391 14.9477 21.9291 14.9744 21.9291 15.002C21.9291 15.0296 21.9391 15.0563 21.9573 15.0771C21.9755 15.0979 22.0006 15.1113 22.028 15.115C22.0581 15.115 22.0869 15.1031 22.1083 15.082C22.1296 15.0608 22.1417 15.0321 22.142 15.002V14.994C22.1402 14.9652 22.1273 14.9382 22.1061 14.9186C22.0849 14.899 22.0569 14.8884 22.028 14.889ZM23.153 14.889C23.1256 14.8927 23.1005 14.9061 23.0823 14.9269C23.0641 14.9477 23.0541 14.9744 23.0541 15.002C23.0541 15.0296 23.0641 15.0563 23.0823 15.0771C23.1005 15.0979 23.1256 15.1113 23.153 15.115C23.183 15.1147 23.2117 15.1028 23.233 15.0817C23.2543 15.0606 23.2665 15.032 23.267 15.002V14.982C23.2622 14.9554 23.2481 14.9315 23.2272 14.9144C23.2063 14.8973 23.18 14.8883 23.153 14.889ZM23.716 14.889C23.686 14.889 23.6573 14.9009 23.6361 14.9221C23.6149 14.9433 23.603 14.972 23.603 15.002C23.603 15.064 23.653 15.116 23.716 15.115C23.7457 15.1142 23.774 15.1021 23.7951 15.0811C23.8161 15.06 23.8282 15.0317 23.829 15.002V14.982C23.8243 14.9556 23.8103 14.9318 23.7896 14.9147C23.7689 14.8977 23.7428 14.8886 23.716 14.889ZM24.278 14.889C24.248 14.889 24.2193 14.9009 24.1981 14.9221C24.1769 14.9433 24.165 14.972 24.165 15.002C24.165 15.064 24.216 15.116 24.278 15.115C24.3079 15.1145 24.3365 15.1025 24.3577 15.0814C24.3789 15.0603 24.3912 15.0319 24.392 15.002V14.994C24.3897 14.9654 24.3767 14.9386 24.3556 14.9191C24.3344 14.8997 24.3067 14.8889 24.278 14.889ZM24.841 14.889C24.8262 14.8889 24.8116 14.8917 24.7979 14.8974C24.7842 14.903 24.7718 14.9114 24.7615 14.9219C24.7511 14.9325 24.743 14.945 24.7376 14.9587C24.7322 14.9725 24.7296 14.9872 24.73 15.002C24.73 15.064 24.779 15.116 24.84 15.115C24.8699 15.1145 24.8985 15.1025 24.9197 15.0814C24.9409 15.0603 24.9532 15.0319 24.954 15.002V14.994C24.9517 14.9655 24.9389 14.9389 24.918 14.9195C24.897 14.9 24.8696 14.8892 24.841 14.889ZM25.401 14.889C25.3863 14.8891 25.3718 14.8922 25.3582 14.8979C25.3447 14.9037 25.3324 14.912 25.3221 14.9225C25.3118 14.933 25.3036 14.9454 25.2981 14.9591C25.2926 14.9727 25.2899 14.9873 25.29 15.002C25.29 15.063 25.34 15.115 25.401 15.115C25.4313 15.115 25.4603 15.1032 25.482 15.0821C25.5037 15.061 25.5162 15.0322 25.517 15.002V14.994C25.5147 14.965 25.5014 14.938 25.4799 14.9185C25.4583 14.8989 25.4301 14.8884 25.401 14.889ZM25.964 14.889C25.9366 14.8927 25.9115 14.9061 25.8933 14.9269C25.8751 14.9477 25.8651 14.9744 25.8651 15.002C25.8651 15.0296 25.8751 15.0563 25.8933 15.0771C25.9115 15.0979 25.9366 15.1113 25.964 15.115C25.9939 15.1147 26.0225 15.1027 26.0436 15.0816C26.0648 15.0605 26.0767 15.0319 26.077 15.002V14.994C26.0752 14.9654 26.0625 14.9385 26.0415 14.9189C26.0204 14.8994 25.9927 14.8887 25.964 14.889ZM26.526 14.889C26.4986 14.8927 26.4735 14.9061 26.4553 14.9269C26.4371 14.9477 26.4271 14.9744 26.4271 15.002C26.4271 15.0296 26.4371 15.0563 26.4553 15.0771C26.4735 15.0979 26.4986 15.1113 26.526 15.115C26.5561 15.115 26.5849 15.1031 26.6063 15.082C26.6276 15.0608 26.6397 15.0321 26.64 15.002V14.994C26.6382 14.9652 26.6253 14.9382 26.6041 14.9186C26.5829 14.899 26.5549 14.8884 26.526 14.889ZM27.651 14.889C27.6363 14.8891 27.6218 14.8922 27.6082 14.8979C27.5947 14.9037 27.5824 14.912 27.5721 14.9225C27.5618 14.933 27.5536 14.9454 27.5481 14.9591C27.5426 14.9727 27.5399 14.9873 27.54 15.002C27.54 15.063 27.59 15.115 27.651 15.115C27.6809 15.1145 27.7095 15.1025 27.7307 15.0814C27.7519 15.0603 27.7642 15.0319 27.765 15.002V14.982C27.7602 14.9554 27.7461 14.9315 27.7252 14.9144C27.7043 14.8973 27.678 14.8883 27.651 14.889ZM28.214 14.889C28.1992 14.8889 28.1846 14.8917 28.1709 14.8974C28.1572 14.903 28.1448 14.9114 28.1345 14.9219C28.1241 14.9325 28.116 14.945 28.1106 14.9587C28.1052 14.9725 28.1026 14.9872 28.103 15.002C28.103 15.064 28.152 15.116 28.213 15.115C28.2429 15.1145 28.2715 15.1025 28.2927 15.0814C28.3139 15.0603 28.3262 15.0319 28.327 15.002V14.994C28.3247 14.9655 28.3119 14.9389 28.291 14.9195C28.27 14.9 28.2426 14.8892 28.214 14.889ZM28.776 14.889C28.7611 14.8889 28.7464 14.8917 28.7326 14.8973C28.7188 14.903 28.7063 14.9113 28.6958 14.9218C28.6853 14.9323 28.677 14.9448 28.6713 14.9586C28.6657 14.9724 28.6629 14.9871 28.663 15.002C28.663 15.064 28.714 15.116 28.776 15.115C28.8059 15.1145 28.8345 15.1025 28.8557 15.0814C28.8769 15.0603 28.8892 15.0319 28.89 15.002V14.994C28.8877 14.9654 28.8747 14.9386 28.8536 14.9191C28.8324 14.8997 28.8047 14.8889 28.776 14.889ZM29.339 14.889C29.3241 14.8889 29.3094 14.8917 29.2956 14.8973C29.2818 14.903 29.2693 14.9113 29.2588 14.9218C29.2483 14.9323 29.24 14.9448 29.2343 14.9586C29.2287 14.9724 29.2259 14.9871 29.226 15.002C29.226 15.064 29.276 15.116 29.339 15.115C29.3687 15.1142 29.397 15.1021 29.4181 15.0811C29.4391 15.06 29.4512 15.0317 29.452 15.002V14.994C29.4497 14.9655 29.4369 14.9389 29.416 14.9195C29.395 14.9 29.3676 14.8892 29.339 14.889ZM29.899 14.889C29.8716 14.8927 29.8465 14.9061 29.8283 14.9269C29.8101 14.9477 29.8001 14.9744 29.8001 15.002C29.8001 15.0296 29.8101 15.0563 29.8283 15.0771C29.8465 15.0979 29.8716 15.1113 29.899 15.115C29.9293 15.115 29.9583 15.1032 29.98 15.0821C30.0017 15.061 30.0142 15.0322 30.015 15.002V14.994C30.0127 14.965 29.9994 14.938 29.9779 14.9185C29.9563 14.8989 29.9281 14.8884 29.899 14.889ZM30.462 14.889C30.4473 14.889 30.4327 14.8919 30.4192 14.8977C30.4057 14.9034 30.3934 14.9117 30.3831 14.9223C30.3729 14.9328 30.3648 14.9453 30.3595 14.959C30.3541 14.9727 30.3516 14.9873 30.352 15.002C30.353 15.063 30.4 15.115 30.462 15.115C30.4921 15.1148 30.5209 15.1028 30.5423 15.0817C30.5638 15.0607 30.5762 15.0321 30.577 15.002V14.994C30.5747 14.9652 30.5616 14.9383 30.5402 14.9188C30.5189 14.8993 30.4909 14.8887 30.462 14.889ZM31.024 14.889C30.9966 14.8927 30.9715 14.9061 30.9533 14.9269C30.9351 14.9477 30.9251 14.9744 30.9251 15.002C30.9251 15.0296 30.9351 15.0563 30.9533 15.0771C30.9715 15.0979 30.9966 15.1113 31.024 15.115C31.0541 15.115 31.0829 15.1031 31.1043 15.082C31.1256 15.0608 31.1377 15.0321 31.138 15.002V14.994C31.1362 14.9652 31.1233 14.9382 31.1021 14.9186C31.0809 14.899 31.0529 14.8884 31.024 14.889ZM31.587 14.889C31.5723 14.8891 31.5578 14.8922 31.5442 14.8979C31.5307 14.9037 31.5184 14.912 31.5081 14.9225C31.4978 14.933 31.4896 14.9454 31.4841 14.9591C31.4786 14.9727 31.4759 14.9873 31.476 15.002C31.476 15.063 31.526 15.115 31.586 15.115C31.6159 15.1145 31.6445 15.1025 31.6657 15.0814C31.6869 15.0603 31.6992 15.0319 31.7 15.002V14.982C31.6953 14.9556 31.6813 14.9318 31.6606 14.9147C31.6399 14.8977 31.6138 14.8886 31.587 14.889ZM32.149 14.889C32.119 14.889 32.0903 14.9009 32.0691 14.9221C32.0479 14.9433 32.036 14.972 32.036 15.002C32.036 15.064 32.087 15.116 32.149 15.115C32.1789 15.1145 32.2075 15.1025 32.2287 15.0814C32.2499 15.0603 32.2622 15.0319 32.263 15.002V14.982C32.2582 14.9554 32.2441 14.9315 32.2232 14.9144C32.2023 14.8973 32.176 14.8883 32.149 14.889ZM32.712 14.889C32.682 14.889 32.6533 14.9009 32.6321 14.9221C32.6109 14.9433 32.599 14.972 32.599 15.002C32.599 15.064 32.649 15.116 32.712 15.115C32.7417 15.1142 32.77 15.1021 32.7911 15.0811C32.8121 15.06 32.8242 15.0317 32.825 15.002V14.994C32.8227 14.9655 32.8099 14.9389 32.789 14.9195C32.768 14.9 32.7406 14.8892 32.712 14.889ZM33.274 14.889C33.2593 14.889 33.2447 14.8919 33.2312 14.8977C33.2177 14.9034 33.2054 14.9117 33.1951 14.9223C33.1849 14.9328 33.1768 14.9453 33.1715 14.959C33.1661 14.9727 33.1636 14.9873 33.164 15.002C33.164 15.064 33.212 15.116 33.274 15.115C33.304 15.1147 33.3327 15.1028 33.354 15.0817C33.3753 15.0606 33.3875 15.032 33.388 15.002V14.994C33.3857 14.9654 33.3727 14.9386 33.3516 14.9191C33.3305 14.8997 33.3027 14.8889 33.274 14.889ZM33.837 14.889C33.8222 14.8889 33.8076 14.8917 33.7939 14.8974C33.7802 14.903 33.7678 14.9114 33.7575 14.9219C33.7471 14.9325 33.739 14.945 33.7336 14.9587C33.7282 14.9725 33.7256 14.9872 33.726 15.002C33.726 15.064 33.775 15.116 33.836 15.115C33.866 15.1147 33.8947 15.1028 33.916 15.0817C33.9373 15.0606 33.9495 15.032 33.95 15.002V14.994C33.9477 14.9655 33.9349 14.9389 33.914 14.9195C33.893 14.9 33.8656 14.8892 33.837 14.889ZM34.397 14.889C34.3696 14.8927 34.3445 14.9061 34.3263 14.9269C34.3081 14.9477 34.2981 14.9744 34.2981 15.002C34.2981 15.0296 34.3081 15.0563 34.3263 15.0771C34.3445 15.0979 34.3696 15.1113 34.397 15.115C34.4271 15.115 34.4559 15.1031 34.4773 15.082C34.4986 15.0608 34.5107 15.0321 34.511 15.002V14.994C34.5092 14.9652 34.4963 14.9382 34.4751 14.9186C34.4538 14.899 34.4259 14.8884 34.397 14.889ZM16.255 17.772V17.773C16.1304 17.7751 16.0074 17.8018 15.8931 17.8515C15.7788 17.9013 15.6754 17.9732 15.589 18.063L13.78 19.92C13.6931 20.0093 13.6248 20.1148 13.5788 20.2306C13.5329 20.3463 13.5103 20.47 13.5124 20.5946C13.5144 20.7191 13.5411 20.842 13.5908 20.9562C13.6405 21.0704 13.7123 21.1736 13.802 21.26C13.8909 21.3474 13.9963 21.4162 14.112 21.4625C14.2278 21.5088 14.3515 21.5317 14.4762 21.5299C14.6008 21.528 14.7239 21.5014 14.8381 21.4517C14.9524 21.4019 15.0557 21.33 15.142 21.24L16.95 19.38C17.0368 19.2908 17.1051 19.1854 17.151 19.0698C17.1969 18.9541 17.2196 18.8305 17.2176 18.7061C17.2157 18.5817 17.1892 18.4589 17.1396 18.3448C17.0901 18.2306 17.0185 18.1274 16.929 18.041C16.84 17.9538 16.7346 17.885 16.619 17.8387C16.5033 17.7923 16.3796 17.7693 16.255 17.771V17.772ZM23.195 17.772V17.773C23.0702 17.7749 22.947 17.8016 22.8325 17.8513C22.718 17.9011 22.6145 17.973 22.528 18.063L20.72 19.92C20.6331 20.0092 20.5646 20.1147 20.5186 20.2304C20.4726 20.3462 20.4499 20.4698 20.4519 20.5944C20.4538 20.7189 20.4804 20.8418 20.53 20.956C20.5796 21.0703 20.6513 21.1736 20.741 21.26C20.8299 21.3475 20.9352 21.4164 21.051 21.4628C21.1667 21.5092 21.2905 21.5322 21.4152 21.5303C21.5399 21.5284 21.6629 21.5018 21.7772 21.452C21.8915 21.4021 21.9948 21.3301 22.081 21.24L23.89 19.38C23.9767 19.2908 24.0449 19.1853 24.0908 19.0696C24.1366 18.9539 24.1592 18.8303 24.1571 18.7059C24.1551 18.5815 24.1285 18.4587 24.0789 18.3446C24.0293 18.2305 23.9576 18.1273 23.868 18.041C23.779 17.9538 23.6736 17.885 23.558 17.8387C23.4423 17.7923 23.3186 17.7693 23.194 17.771L23.195 17.772ZM26.757 17.772V17.773C26.6324 17.7751 26.5094 17.8018 26.3951 17.8515C26.2808 17.9013 26.1774 17.9732 26.091 18.063L24.282 19.92C24.1951 20.0093 24.1268 20.1148 24.0809 20.2306C24.0349 20.3463 24.0123 20.47 24.0144 20.5946C24.0164 20.7191 24.0431 20.842 24.0928 20.9562C24.1425 21.0704 24.2143 21.1736 24.304 21.26C24.3929 21.3475 24.4982 21.4164 24.614 21.4628C24.7297 21.5092 24.8535 21.5322 24.9782 21.5303C25.1029 21.5284 25.2259 21.5018 25.3402 21.452C25.4545 21.4021 25.5578 21.3301 25.644 21.24L27.452 19.38C27.5388 19.2908 27.6071 19.1854 27.653 19.0698C27.6989 18.9541 27.7216 18.8305 27.7196 18.7061C27.7177 18.5817 27.6912 18.4589 27.6416 18.3448C27.5921 18.2306 27.5205 18.1274 27.431 18.041C27.342 17.9538 27.2366 17.885 27.121 17.8387C27.0053 17.7923 26.8816 17.7693 26.757 17.771V17.772ZM29.958 17.772V17.773C29.8334 17.7751 29.7104 17.8018 29.5961 17.8515C29.4818 17.9013 29.3784 17.9732 29.292 18.063L27.483 19.92C27.3961 20.0093 27.3278 20.1148 27.2819 20.2306C27.2359 20.3463 27.2133 20.47 27.2154 20.5946C27.2174 20.7191 27.2441 20.842 27.2938 20.9562C27.3435 21.0704 27.4153 21.1736 27.505 21.26C27.5939 21.3475 27.6992 21.4164 27.815 21.4628C27.9307 21.5092 28.0545 21.5322 28.1792 21.5303C28.3039 21.5284 28.4269 21.5018 28.5412 21.452C28.6555 21.4021 28.7588 21.3301 28.845 21.24L30.653 19.38C30.7398 19.2908 30.8081 19.1854 30.854 19.0698C30.8999 18.9541 30.9226 18.8305 30.9206 18.7061C30.9187 18.5817 30.8922 18.4589 30.8426 18.3448C30.7931 18.2306 30.7215 18.1274 30.632 18.041C30.543 17.9538 30.4376 17.885 30.322 17.8387C30.2063 17.7923 30.0826 17.7693 29.958 17.771V17.772ZM33.521 17.772V17.773C33.3964 17.7751 33.2734 17.8018 33.1591 17.8515C33.0448 17.9013 32.9414 17.9732 32.855 18.063L31.045 19.92C30.9581 20.0093 30.8898 20.1148 30.8438 20.2306C30.7979 20.3463 30.7753 20.47 30.7774 20.5946C30.7794 20.7191 30.8061 20.842 30.8558 20.9562C30.9055 21.0704 30.9773 21.1736 31.067 21.26C31.1559 21.3475 31.2612 21.4164 31.377 21.4628C31.4927 21.5092 31.6165 21.5322 31.7412 21.5303C31.8659 21.5284 31.9889 21.5018 32.1032 21.452C32.2175 21.4021 32.3208 21.3301 32.407 21.24L34.216 19.38C34.3027 19.2908 34.3709 19.1853 34.4168 19.0696C34.4626 18.9539 34.4852 18.8303 34.4831 18.7059C34.4811 18.5815 34.4545 18.4587 34.4049 18.3446C34.3553 18.2305 34.2836 18.1273 34.194 18.041C34.1051 17.9539 33.9999 17.8852 33.8844 17.8389C33.7689 17.7925 33.6454 17.7695 33.521 17.771V17.772ZM19.817 17.773C19.6924 17.7751 19.5694 17.8018 19.4551 17.8515C19.3408 17.9013 19.2374 17.9732 19.151 18.063L17.343 19.92C17.2561 20.0092 17.1876 20.1147 17.1416 20.2304C17.0956 20.3462 17.0729 20.4698 17.0749 20.5944C17.0768 20.7189 17.1034 20.8418 17.153 20.956C17.2026 21.0703 17.2743 21.1736 17.364 21.26C17.4529 21.3474 17.5583 21.4162 17.674 21.4625C17.7898 21.5088 17.9135 21.5317 18.0382 21.5299C18.1628 21.528 18.2859 21.5014 18.4001 21.4517C18.5144 21.4019 18.6177 21.33 18.704 21.24L20.513 19.383C20.5999 19.2937 20.6682 19.1882 20.7141 19.0724C20.7601 18.9567 20.7827 18.833 20.7806 18.7084C20.7786 18.5839 20.7519 18.461 20.7022 18.3468C20.6525 18.2326 20.5807 18.1294 20.491 18.043C20.402 17.9558 20.2966 17.887 20.181 17.8407C20.0653 17.7943 19.9416 17.7713 19.817 17.773ZM13.595 23.887C13.5802 23.887 13.5656 23.8899 13.5519 23.8956C13.5383 23.9013 13.5259 23.9097 13.5154 23.9202C13.505 23.9307 13.4968 23.9431 13.4912 23.9568C13.4857 23.9705 13.4829 23.9852 13.483 24C13.483 24.061 13.533 24.113 13.595 24.113C13.657 24.113 13.707 24.063 13.708 24C13.708 23.97 13.6961 23.9413 13.6749 23.9201C13.6537 23.8989 13.625 23.887 13.595 23.887ZM22.591 23.887C22.5763 23.8871 22.5618 23.8902 22.5482 23.8959C22.5347 23.9017 22.5224 23.91 22.5121 23.9205C22.5018 23.931 22.4936 23.9434 22.4881 23.9571C22.4826 23.9707 22.4799 23.9853 22.48 24C22.48 24.061 22.53 24.113 22.59 24.113C22.653 24.113 22.703 24.063 22.704 24C22.704 23.97 22.6921 23.9413 22.6709 23.9201C22.6497 23.8989 22.621 23.887 22.591 23.887ZM27.089 23.887C27.0743 23.8871 27.0598 23.8902 27.0462 23.8959C27.0327 23.9017 27.0204 23.91 27.0101 23.9205C26.9998 23.931 26.9916 23.9434 26.9861 23.9571C26.9806 23.9707 26.9779 23.9853 26.978 24C26.978 24.061 27.028 24.113 27.088 24.113C27.151 24.113 27.203 24.063 27.204 24C27.2039 23.985 27.2008 23.9702 27.1949 23.9564C27.1891 23.9427 27.1806 23.9302 27.1699 23.9197C27.1592 23.9092 27.1466 23.9009 27.1327 23.8953C27.1188 23.8897 27.104 23.8869 27.089 23.887ZM14.157 23.889C14.1287 23.8917 14.1025 23.9048 14.0834 23.9258C14.0643 23.9467 14.0537 23.9741 14.0537 24.0025C14.0537 24.0309 14.0643 24.0583 14.0834 24.0792C14.1025 24.1002 14.1287 24.1133 14.157 24.116C14.1869 24.1152 14.2153 24.1029 14.2364 24.0817C14.2575 24.0605 14.2695 24.0319 14.27 24.002V23.982C14.2653 23.9556 14.2513 23.9318 14.2306 23.9147C14.2099 23.8977 14.1838 23.8886 14.157 23.889ZM14.72 23.889C14.7051 23.8887 14.6904 23.8915 14.6766 23.8971C14.6628 23.9027 14.6503 23.911 14.6398 23.9215C14.6294 23.9321 14.6211 23.9447 14.6157 23.9585C14.6102 23.9723 14.6076 23.9871 14.608 24.002C14.608 24.064 14.658 24.116 14.72 24.115C14.7497 24.1142 14.778 24.1021 14.7991 24.0811C14.8201 24.06 14.8322 24.0317 14.833 24.002V23.982C14.8283 23.9556 14.8143 23.9318 14.7936 23.9147C14.7729 23.8977 14.7468 23.8886 14.72 23.889ZM15.282 23.889C15.2672 23.8889 15.2526 23.8917 15.2389 23.8974C15.2252 23.903 15.2128 23.9114 15.2025 23.9219C15.1921 23.9325 15.184 23.945 15.1786 23.9587C15.1732 23.9725 15.1706 23.9872 15.171 24.002C15.171 24.064 15.221 24.116 15.282 24.115C15.3119 24.1145 15.3405 24.1025 15.3617 24.0814C15.3829 24.0603 15.3952 24.0319 15.396 24.002V23.994C15.3937 23.9654 15.3807 23.9386 15.3596 23.9191C15.3384 23.8997 15.3107 23.8889 15.282 23.889ZM15.845 23.889C15.8301 23.8887 15.8154 23.8915 15.8016 23.8971C15.7878 23.9027 15.7753 23.911 15.7648 23.9215C15.7544 23.9321 15.7461 23.9447 15.7407 23.9585C15.7352 23.9723 15.7326 23.9871 15.733 24.002C15.733 24.064 15.783 24.116 15.845 24.115C15.8747 24.1142 15.903 24.1021 15.9241 24.0811C15.9451 24.06 15.9572 24.0317 15.958 24.002V23.994C15.9557 23.9655 15.9429 23.9389 15.922 23.9195C15.901 23.9 15.8736 23.8892 15.845 23.889ZM16.407 23.889C16.3922 23.8889 16.3776 23.8917 16.3639 23.8974C16.3502 23.903 16.3378 23.9114 16.3275 23.9219C16.3171 23.9325 16.309 23.945 16.3036 23.9587C16.2982 23.9725 16.2956 23.9872 16.296 24.002C16.296 24.064 16.346 24.116 16.407 24.115C16.4367 24.1142 16.465 24.1021 16.4861 24.0811C16.5071 24.06 16.5192 24.0317 16.52 24.002V23.994C16.5177 23.9655 16.5049 23.9389 16.484 23.9195C16.463 23.9 16.4356 23.8892 16.407 23.889ZM16.967 23.889C16.9387 23.8917 16.9125 23.9048 16.8934 23.9258C16.8743 23.9467 16.8637 23.9741 16.8637 24.0025C16.8637 24.0309 16.8743 24.0583 16.8934 24.0792C16.9125 24.1002 16.9387 24.1133 16.967 24.116C16.9972 24.116 17.0262 24.104 17.0476 24.0826C17.069 24.0612 17.081 24.0322 17.081 24.002V23.994C17.0792 23.9654 17.0665 23.9385 17.0455 23.9189C17.0244 23.8994 16.9967 23.8887 16.968 23.889H16.967ZM17.53 23.889C17.5017 23.8917 17.4755 23.9048 17.4564 23.9258C17.4373 23.9467 17.4267 23.9741 17.4267 24.0025C17.4267 24.0309 17.4373 24.0583 17.4564 24.0792C17.4755 24.1002 17.5017 24.1133 17.53 24.116C17.5601 24.1157 17.5888 24.1036 17.61 24.0823C17.6311 24.0609 17.643 24.0321 17.643 24.002V23.994C17.6412 23.9654 17.6285 23.9385 17.6075 23.9189C17.5864 23.8994 17.5587 23.8887 17.53 23.889ZM18.093 23.889C18.0647 23.8917 18.0385 23.9048 18.0194 23.9258C18.0003 23.9467 17.9897 23.9741 17.9897 24.0025C17.9897 24.0309 18.0003 24.0583 18.0194 24.0792C18.0385 24.1002 18.0647 24.1133 18.093 24.116C18.1231 24.1157 18.1518 24.1036 18.173 24.0823C18.1941 24.0609 18.206 24.0321 18.206 24.002V23.994C18.2042 23.9654 18.1915 23.9385 18.1705 23.9189C18.1494 23.8994 18.1217 23.8887 18.093 23.889ZM18.655 23.889C18.6403 23.8891 18.6258 23.8922 18.6122 23.8979C18.5987 23.9037 18.5864 23.912 18.5761 23.9225C18.5658 23.933 18.5576 23.9454 18.5521 23.9591C18.5466 23.9727 18.5439 23.9873 18.544 24.002C18.544 24.063 18.594 24.115 18.655 24.115C18.6849 24.1145 18.7135 24.1025 18.7347 24.0814C18.7559 24.0603 18.7682 24.0319 18.769 24.002V23.982C18.7642 23.9554 18.7501 23.9315 18.7292 23.9144C18.7083 23.8973 18.682 23.8883 18.655 23.889ZM19.218 23.889C19.2031 23.8887 19.1884 23.8915 19.1746 23.8971C19.1608 23.9027 19.1483 23.911 19.1378 23.9215C19.1274 23.9321 19.1191 23.9447 19.1137 23.9585C19.1082 23.9723 19.1056 23.9871 19.106 24.002C19.106 24.064 19.156 24.116 19.218 24.115C19.2477 24.1142 19.276 24.1021 19.2971 24.0811C19.3181 24.06 19.3302 24.0317 19.331 24.002V23.994C19.3287 23.9655 19.3159 23.9389 19.295 23.9195C19.274 23.9 19.2466 23.8892 19.218 23.889ZM19.78 23.889C19.7652 23.8889 19.7506 23.8917 19.7369 23.8974C19.7232 23.903 19.7108 23.9114 19.7005 23.9219C19.6901 23.9325 19.682 23.945 19.6766 23.9587C19.6712 23.9725 19.6686 23.9872 19.669 24.002C19.669 24.064 19.719 24.116 19.78 24.115C19.8099 24.1145 19.8385 24.1025 19.8597 24.0814C19.8809 24.0603 19.8932 24.0319 19.894 24.002V23.994C19.8917 23.9654 19.8787 23.9386 19.8576 23.9191C19.8364 23.8997 19.8087 23.8889 19.78 23.889ZM20.343 23.889C20.3281 23.8887 20.3134 23.8915 20.2996 23.8971C20.2858 23.9027 20.2733 23.911 20.2628 23.9215C20.2524 23.9321 20.2441 23.9447 20.2387 23.9585C20.2332 23.9723 20.2306 23.9871 20.231 24.002C20.231 24.064 20.281 24.116 20.343 24.115C20.404 24.115 20.453 24.063 20.454 24.002V23.994C20.4522 23.9657 20.4398 23.9391 20.4192 23.9196C20.3986 23.9001 20.3714 23.8892 20.343 23.889ZM20.905 23.889C20.8902 23.8889 20.8756 23.8917 20.8619 23.8974C20.8482 23.903 20.8358 23.9114 20.8255 23.9219C20.8151 23.9325 20.807 23.945 20.8016 23.9587C20.7962 23.9725 20.7936 23.9872 20.794 24.002C20.794 24.064 20.844 24.116 20.905 24.115C20.9349 24.1145 20.9635 24.1025 20.9847 24.0814C21.0059 24.0603 21.0182 24.0319 21.019 24.002V23.994C21.0167 23.9654 21.0037 23.9386 20.9826 23.9191C20.9614 23.8997 20.9337 23.8889 20.905 23.889ZM21.465 23.889C21.4367 23.8917 21.4105 23.9048 21.3914 23.9258C21.3723 23.9467 21.3617 23.9741 21.3617 24.0025C21.3617 24.0309 21.3723 24.0583 21.3914 24.0792C21.4105 24.1002 21.4367 24.1133 21.465 24.116C21.4952 24.116 21.5242 24.104 21.5456 24.0826C21.567 24.0612 21.579 24.0322 21.579 24.002V23.994C21.5772 23.9654 21.5645 23.9385 21.5435 23.9189C21.5224 23.8994 21.4947 23.8887 21.466 23.889H21.465ZM22.028 23.889C21.9997 23.8917 21.9735 23.9048 21.9544 23.9258C21.9353 23.9467 21.9247 23.9741 21.9247 24.0025C21.9247 24.0309 21.9353 24.0583 21.9544 24.0792C21.9735 24.1002 21.9997 24.1133 22.028 24.116C22.0582 24.116 22.0872 24.104 22.1086 24.0826C22.13 24.0612 22.142 24.0322 22.142 24.002V23.994C22.1402 23.9652 22.1273 23.9382 22.1061 23.9186C22.0849 23.899 22.0569 23.8884 22.028 23.889ZM23.153 23.889C23.1247 23.8917 23.0985 23.9048 23.0794 23.9258C23.0603 23.9467 23.0497 23.9741 23.0497 24.0025C23.0497 24.0309 23.0603 24.0583 23.0794 24.0792C23.0985 24.1002 23.1247 24.1133 23.153 24.116C23.1832 24.1157 23.212 24.1036 23.2333 24.0823C23.2546 24.061 23.2667 24.0322 23.267 24.002V23.982C23.2622 23.9554 23.2481 23.9315 23.2272 23.9144C23.2063 23.8973 23.18 23.8883 23.153 23.889ZM23.716 23.889C23.686 23.889 23.6573 23.9009 23.6361 23.9221C23.6149 23.9433 23.603 23.972 23.603 24.002C23.603 24.064 23.653 24.116 23.716 24.115C23.7457 24.1142 23.774 24.1021 23.7951 24.0811C23.8161 24.06 23.8282 24.0317 23.829 24.002V23.982C23.8243 23.9556 23.8103 23.9318 23.7896 23.9147C23.7689 23.8977 23.7428 23.8886 23.716 23.889ZM24.278 23.889C24.248 23.889 24.2193 23.9009 24.1981 23.9221C24.1769 23.9433 24.165 23.972 24.165 24.002C24.165 24.064 24.216 24.116 24.278 24.115C24.3079 24.1145 24.3365 24.1025 24.3577 24.0814C24.3789 24.0603 24.3912 24.0319 24.392 24.002V23.994C24.3897 23.9654 24.3767 23.9386 24.3556 23.9191C24.3344 23.8997 24.3067 23.8889 24.278 23.889ZM24.841 23.889C24.8262 23.8889 24.8116 23.8917 24.7979 23.8974C24.7842 23.903 24.7718 23.9114 24.7615 23.9219C24.7511 23.9325 24.743 23.945 24.7376 23.9587C24.7322 23.9725 24.7296 23.9872 24.73 24.002C24.73 24.064 24.779 24.116 24.84 24.115C24.8699 24.1145 24.8985 24.1025 24.9197 24.0814C24.9409 24.0603 24.9532 24.0319 24.954 24.002V23.994C24.9517 23.9655 24.9389 23.9389 24.918 23.9195C24.897 23.9 24.8696 23.8892 24.841 23.889ZM25.401 23.889C25.3863 23.8891 25.3718 23.8922 25.3582 23.8979C25.3447 23.9037 25.3324 23.912 25.3221 23.9225C25.3118 23.933 25.3036 23.9454 25.2981 23.9591C25.2926 23.9727 25.2899 23.9873 25.29 24.002C25.29 24.063 25.34 24.115 25.401 24.115C25.4313 24.115 25.4603 24.1032 25.482 24.0821C25.5037 24.061 25.5162 24.0322 25.517 24.002V23.994C25.5147 23.965 25.5014 23.938 25.4799 23.9185C25.4583 23.8989 25.4301 23.8884 25.401 23.889ZM25.964 23.889C25.9357 23.8917 25.9095 23.9048 25.8904 23.9258C25.8713 23.9467 25.8607 23.9741 25.8607 24.0025C25.8607 24.0309 25.8713 24.0583 25.8904 24.0792C25.9095 24.1002 25.9357 24.1133 25.964 24.116C25.9941 24.1157 26.0228 24.1036 26.044 24.0823C26.0651 24.0609 26.077 24.0321 26.077 24.002V23.994C26.0752 23.9654 26.0625 23.9385 26.0415 23.9189C26.0204 23.8994 25.9927 23.8887 25.964 23.889ZM26.526 23.889C26.4977 23.8917 26.4715 23.9048 26.4524 23.9258C26.4333 23.9467 26.4227 23.9741 26.4227 24.0025C26.4227 24.0309 26.4333 24.0583 26.4524 24.0792C26.4715 24.1002 26.4977 24.1133 26.526 24.116C26.541 24.116 26.5558 24.1131 26.5696 24.1073C26.5835 24.1016 26.596 24.0932 26.6066 24.0826C26.6172 24.072 26.6256 24.0595 26.6313 24.0456C26.6371 24.0318 26.64 24.017 26.64 24.002V23.994C26.6382 23.9652 26.6253 23.9382 26.6041 23.9186C26.5829 23.899 26.5549 23.8884 26.526 23.889ZM27.651 23.889C27.6363 23.8891 27.6218 23.8922 27.6082 23.8979C27.5947 23.9037 27.5824 23.912 27.5721 23.9225C27.5618 23.933 27.5536 23.9454 27.5481 23.9591C27.5426 23.9727 27.5399 23.9873 27.54 24.002C27.54 24.063 27.59 24.115 27.651 24.115C27.6809 24.1145 27.7095 24.1025 27.7307 24.0814C27.7519 24.0603 27.7642 24.0319 27.765 24.002V23.982C27.7602 23.9554 27.7461 23.9315 27.7252 23.9144C27.7043 23.8973 27.678 23.8883 27.651 23.889ZM28.214 23.889C28.1992 23.8889 28.1846 23.8917 28.1709 23.8974C28.1572 23.903 28.1448 23.9114 28.1345 23.9219C28.1241 23.9325 28.116 23.945 28.1106 23.9587C28.1052 23.9725 28.1026 23.9872 28.103 24.002C28.103 24.064 28.152 24.116 28.213 24.115C28.2429 24.1145 28.2715 24.1025 28.2927 24.0814C28.3139 24.0603 28.3262 24.0319 28.327 24.002V23.994C28.3247 23.9655 28.3119 23.9389 28.291 23.9195C28.27 23.9 28.2426 23.8892 28.214 23.889ZM28.776 23.889C28.7611 23.8889 28.7464 23.8917 28.7326 23.8973C28.7188 23.903 28.7063 23.9113 28.6958 23.9218C28.6853 23.9323 28.677 23.9448 28.6713 23.9586C28.6657 23.9724 28.6629 23.9871 28.663 24.002C28.663 24.064 28.714 24.116 28.776 24.115C28.8059 24.1145 28.8345 24.1025 28.8557 24.0814C28.8769 24.0603 28.8892 24.0319 28.89 24.002V23.994C28.8877 23.9654 28.8747 23.9386 28.8536 23.9191C28.8324 23.8997 28.8047 23.8889 28.776 23.889ZM29.339 23.889C29.3241 23.8889 29.3094 23.8917 29.2956 23.8973C29.2818 23.903 29.2693 23.9113 29.2588 23.9218C29.2483 23.9323 29.24 23.9448 29.2343 23.9586C29.2287 23.9724 29.2259 23.9871 29.226 24.002C29.226 24.064 29.276 24.116 29.339 24.115C29.3687 24.1142 29.397 24.1021 29.4181 24.0811C29.4391 24.06 29.4512 24.0317 29.452 24.002V23.994C29.4497 23.9655 29.4369 23.9389 29.416 23.9195C29.395 23.9 29.3676 23.8892 29.339 23.889ZM29.899 23.889C29.8707 23.8917 29.8445 23.9048 29.8254 23.9258C29.8063 23.9467 29.7957 23.9741 29.7957 24.0025C29.7957 24.0309 29.8063 24.0583 29.8254 24.0792C29.8445 24.1002 29.8707 24.1133 29.899 24.116C29.9294 24.116 29.9586 24.1041 29.9803 24.0827C30.002 24.0614 30.0145 24.0324 30.015 24.002V23.994C30.0127 23.965 29.9994 23.938 29.9779 23.9185C29.9563 23.8989 29.9281 23.8884 29.899 23.889ZM30.462 23.889C30.4473 23.889 30.4327 23.8919 30.4192 23.8977C30.4057 23.9034 30.3934 23.9117 30.3831 23.9223C30.3729 23.9328 30.3648 23.9453 30.3595 23.959C30.3541 23.9727 30.3516 23.9873 30.352 24.002C30.353 24.063 30.4 24.115 30.462 24.115C30.4921 24.1147 30.5209 24.1028 30.5423 24.0817C30.5638 24.0607 30.5762 24.0321 30.577 24.002V23.994C30.5747 23.9652 30.5616 23.9383 30.5402 23.9188C30.5189 23.8993 30.4909 23.8887 30.462 23.889ZM31.024 23.889C30.9957 23.8917 30.9695 23.9048 30.9504 23.9258C30.9313 23.9467 30.9207 23.9741 30.9207 24.0025C30.9207 24.0309 30.9313 24.0583 30.9504 24.0792C30.9695 24.1002 30.9957 24.1133 31.024 24.116C31.0542 24.116 31.0832 24.104 31.1046 24.0826C31.126 24.0612 31.138 24.0322 31.138 24.002V23.994C31.1362 23.9652 31.1233 23.9382 31.1021 23.9186C31.0809 23.899 31.0529 23.8884 31.024 23.889ZM31.587 23.889C31.5723 23.8891 31.5578 23.8922 31.5442 23.8979C31.5307 23.9037 31.5184 23.912 31.5081 23.9225C31.4978 23.933 31.4896 23.9454 31.4841 23.9591C31.4786 23.9727 31.4759 23.9873 31.476 24.002C31.476 24.063 31.526 24.115 31.586 24.115C31.6159 24.1145 31.6445 24.1025 31.6657 24.0814C31.6869 24.0603 31.6992 24.0319 31.7 24.002V23.982C31.6953 23.9556 31.6813 23.9318 31.6606 23.9147C31.6399 23.8977 31.6138 23.8886 31.587 23.889ZM32.149 23.889C32.119 23.889 32.0903 23.9009 32.0691 23.9221C32.0479 23.9433 32.036 23.972 32.036 24.002C32.036 24.064 32.087 24.116 32.149 24.115C32.1789 24.1145 32.2075 24.1025 32.2287 24.0814C32.2499 24.0603 32.2622 24.0319 32.263 24.002V23.982C32.2582 23.9554 32.2441 23.9315 32.2232 23.9144C32.2023 23.8973 32.176 23.8883 32.149 23.889ZM32.712 23.889C32.682 23.889 32.6533 23.9009 32.6321 23.9221C32.6109 23.9433 32.599 23.972 32.599 24.002C32.599 24.064 32.649 24.116 32.712 24.115C32.7417 24.1142 32.77 24.1021 32.7911 24.0811C32.8121 24.06 32.8242 24.0317 32.825 24.002V23.994C32.8227 23.9655 32.8099 23.9389 32.789 23.9195C32.768 23.9 32.7406 23.8892 32.712 23.889ZM33.274 23.889C33.2593 23.889 33.2447 23.8919 33.2312 23.8977C33.2177 23.9034 33.2054 23.9117 33.1951 23.9223C33.1849 23.9328 33.1768 23.9453 33.1715 23.959C33.1661 23.9727 33.1636 23.9873 33.164 24.002C33.164 24.064 33.212 24.116 33.274 24.115C33.304 24.1147 33.3327 24.1028 33.354 24.0817C33.3753 24.0606 33.3875 24.032 33.388 24.002V23.994C33.3857 23.9654 33.3727 23.9386 33.3516 23.9191C33.3305 23.8997 33.3027 23.8889 33.274 23.889ZM33.837 23.889C33.8222 23.8889 33.8076 23.8917 33.7939 23.8974C33.7802 23.903 33.7678 23.9114 33.7575 23.9219C33.7471 23.9325 33.739 23.945 33.7336 23.9587C33.7282 23.9725 33.7256 23.9872 33.726 24.002C33.726 24.064 33.775 24.116 33.836 24.115C33.866 24.1147 33.8947 24.1028 33.916 24.0817C33.9373 24.0606 33.9495 24.032 33.95 24.002V23.994C33.9477 23.9655 33.9349 23.9389 33.914 23.9195C33.893 23.9 33.8656 23.8892 33.837 23.889ZM34.397 23.889C34.3687 23.8917 34.3425 23.9048 34.3234 23.9258C34.3043 23.9467 34.2937 23.9741 34.2937 24.0025C34.2937 24.0309 34.3043 24.0583 34.3234 24.0792C34.3425 24.1002 34.3687 24.1133 34.397 24.116C34.4272 24.116 34.4562 24.104 34.4776 24.0826C34.499 24.0612 34.511 24.0322 34.511 24.002V23.994C34.5092 23.9652 34.4963 23.9382 34.4751 23.9186C34.4538 23.899 34.4259 23.8884 34.397 23.889ZM16.255 26.439V26.441C16.1304 26.4431 16.0074 26.4698 15.8931 26.5195C15.7788 26.5693 15.6754 26.6412 15.589 26.731L13.78 28.588C13.6931 28.6773 13.6248 28.7828 13.5788 28.8986C13.5329 29.0143 13.5103 29.138 13.5124 29.2626C13.5144 29.3871 13.5411 29.51 13.5908 29.6242C13.6405 29.7384 13.7123 29.8416 13.802 29.928C13.8911 30.0151 13.9965 30.0837 14.1122 30.1299C14.2279 30.1761 14.3516 30.1989 14.4762 30.197C14.6007 30.1952 14.7237 30.1687 14.838 30.1191C14.9523 30.0695 15.0556 29.9977 15.142 29.908L16.95 28.048C17.0368 27.9588 17.1051 27.8534 17.151 27.7378C17.1969 27.6221 17.2196 27.4985 17.2176 27.3741C17.2157 27.2497 17.1892 27.1269 17.1396 27.0128C17.0901 26.8986 17.0185 26.7954 16.929 26.709C16.84 26.6218 16.7346 26.553 16.619 26.5067C16.5033 26.4603 16.3796 26.4373 16.255 26.439ZM23.195 26.439V26.441C23.0702 26.4429 22.947 26.4696 22.8325 26.5193C22.718 26.5691 22.6145 26.641 22.528 26.731L20.72 28.588C20.6331 28.6772 20.5646 28.7827 20.5186 28.8984C20.4726 29.0142 20.4499 29.1378 20.4519 29.2624C20.4538 29.3869 20.4804 29.5098 20.53 29.624C20.5796 29.7383 20.6513 29.8416 20.741 29.928C20.83 30.0152 20.9354 30.084 21.0511 30.1302C21.1668 30.1765 21.2906 30.1993 21.4152 30.1975C21.5398 30.1956 21.6628 30.1691 21.7771 30.1194C21.8913 30.0697 21.9946 29.9979 22.081 29.908L23.89 28.048C23.9767 27.9588 24.0449 27.8533 24.0908 27.7376C24.1366 27.6219 24.1592 27.4983 24.1571 27.3739C24.1551 27.2495 24.1285 27.1267 24.0789 27.0126C24.0293 26.8985 23.9576 26.7953 23.868 26.709C23.779 26.6218 23.6736 26.553 23.558 26.5067C23.4423 26.4603 23.3186 26.4373 23.194 26.439H23.195ZM26.757 26.439V26.441C26.6324 26.4431 26.5094 26.4698 26.3951 26.5195C26.2808 26.5693 26.1774 26.6412 26.091 26.731L24.282 28.588C24.1951 28.6773 24.1268 28.7828 24.0809 28.8986C24.0349 29.0143 24.0123 29.138 24.0144 29.2626C24.0164 29.3871 24.0431 29.51 24.0928 29.6242C24.1425 29.7384 24.2143 29.8416 24.304 29.928C24.393 30.0152 24.4984 30.084 24.6141 30.1302C24.7298 30.1765 24.8536 30.1993 24.9782 30.1975C25.1028 30.1956 25.2258 30.1691 25.3401 30.1194C25.4543 30.0697 25.5576 29.9979 25.644 29.908L27.452 28.048C27.5388 27.9588 27.6071 27.8534 27.653 27.7378C27.6989 27.6221 27.7216 27.4985 27.7196 27.3741C27.7177 27.2497 27.6912 27.1269 27.6416 27.0128C27.5921 26.8986 27.5205 26.7954 27.431 26.709C27.342 26.6218 27.2366 26.553 27.121 26.5067C27.0053 26.4603 26.8816 26.4373 26.757 26.439ZM29.958 26.439V26.441C29.8333 26.443 29.7103 26.4697 29.596 26.5195C29.4817 26.5692 29.3784 26.6411 29.292 26.731L27.483 28.588C27.3961 28.6773 27.3278 28.7828 27.2819 28.8986C27.2359 29.0143 27.2133 29.138 27.2154 29.2626C27.2174 29.3871 27.2441 29.51 27.2938 29.6242C27.3435 29.7384 27.4153 29.8416 27.505 29.928C27.594 30.0152 27.6994 30.084 27.8151 30.1302C27.9308 30.1765 28.0546 30.1993 28.1792 30.1975C28.3038 30.1956 28.4268 30.1691 28.5411 30.1194C28.6553 30.0697 28.7586 29.9979 28.845 29.908L30.653 28.048C30.7398 27.9588 30.8081 27.8534 30.854 27.7378C30.8999 27.6221 30.9226 27.4985 30.9206 27.3741C30.9187 27.2497 30.8922 27.1269 30.8426 27.0128C30.7931 26.8986 30.7215 26.7954 30.632 26.709C30.543 26.6218 30.4376 26.553 30.322 26.5067C30.2063 26.4603 30.0826 26.4373 29.958 26.439ZM33.521 26.439V26.441C33.3963 26.443 33.2733 26.4697 33.159 26.5195C33.0447 26.5692 32.9414 26.6411 32.855 26.731L31.045 28.588C30.9581 28.6773 30.8898 28.7828 30.8438 28.8986C30.7979 29.0143 30.7753 29.138 30.7774 29.2626C30.7794 29.3871 30.8061 29.51 30.8558 29.6242C30.9055 29.7384 30.9773 29.8416 31.067 29.928C31.156 30.0152 31.2614 30.084 31.3771 30.1302C31.4928 30.1765 31.6166 30.1993 31.7412 30.1975C31.8658 30.1956 31.9888 30.1691 32.1031 30.1194C32.2173 30.0697 32.3206 29.9979 32.407 29.908L34.216 28.048C34.3027 27.9588 34.3709 27.8533 34.4168 27.7376C34.4626 27.6219 34.4852 27.4983 34.4831 27.3739C34.4811 27.2495 34.4545 27.1267 34.4049 27.0126C34.3553 26.8985 34.2836 26.7953 34.194 26.709C34.1051 26.6219 33.9999 26.5532 33.8844 26.5069C33.7689 26.4605 33.6454 26.4375 33.521 26.439ZM19.817 26.441C19.6924 26.4431 19.5694 26.4698 19.4551 26.5195C19.3408 26.5693 19.2374 26.6412 19.151 26.731L17.343 28.588C17.2561 28.6772 17.1876 28.7827 17.1416 28.8984C17.0956 29.0142 17.0729 29.1378 17.0749 29.2624C17.0768 29.3869 17.1034 29.5098 17.153 29.624C17.2026 29.7383 17.2743 29.8416 17.364 29.928C17.4531 30.0151 17.5585 30.0837 17.6742 30.1299C17.7899 30.1761 17.9136 30.1989 18.0382 30.197C18.1627 30.1952 18.2857 30.1687 18.4 30.1191C18.5142 30.0695 18.6176 29.9977 18.704 29.908L20.513 28.051C20.5999 27.9617 20.6682 27.8562 20.7141 27.7404C20.7601 27.6247 20.7827 27.501 20.7806 27.3764C20.7786 27.2519 20.7519 27.129 20.7022 27.0148C20.6525 26.9006 20.5807 26.7974 20.491 26.711C20.402 26.6238 20.2966 26.555 20.181 26.5087C20.0653 26.4623 19.9416 26.4393 19.817 26.441ZM13.595 32.887C13.5802 32.887 13.5656 32.8899 13.5519 32.8956C13.5383 32.9013 13.5259 32.9097 13.5154 32.9202C13.505 32.9307 13.4968 32.9431 13.4912 32.9568C13.4857 32.9705 13.4829 32.9852 13.483 33C13.483 33.061 13.533 33.112 13.595 33.113C13.657 33.113 13.707 33.063 13.708 33C13.708 32.97 13.6961 32.9413 13.6749 32.9201C13.6537 32.8989 13.625 32.887 13.595 32.887ZM22.591 32.887C22.5763 32.8871 22.5618 32.8902 22.5482 32.8959C22.5347 32.9017 22.5224 32.91 22.5121 32.9205C22.5018 32.931 22.4936 32.9434 22.4881 32.9571C22.4826 32.9707 22.4799 32.9853 22.48 33C22.48 33.061 22.53 33.112 22.59 33.113C22.653 33.113 22.703 33.063 22.704 33C22.704 32.97 22.6921 32.9413 22.6709 32.9201C22.6497 32.8989 22.621 32.887 22.591 32.887ZM27.089 32.887C27.0743 32.8871 27.0598 32.8902 27.0462 32.8959C27.0327 32.9017 27.0204 32.91 27.0101 32.9205C26.9998 32.931 26.9916 32.9434 26.9861 32.9571C26.9806 32.9707 26.9779 32.9853 26.978 33C26.978 33.061 27.028 33.112 27.088 33.113C27.151 33.113 27.203 33.063 27.204 33C27.2039 32.985 27.2008 32.9702 27.1949 32.9565C27.1891 32.9427 27.1806 32.9302 27.1699 32.9197C27.1592 32.9092 27.1466 32.9009 27.1327 32.8953C27.1188 32.8897 27.104 32.8869 27.089 32.887ZM14.157 32.889C14.1287 32.8917 14.1025 32.9048 14.0834 32.9258C14.0643 32.9467 14.0537 32.9741 14.0537 33.0025C14.0537 33.0309 14.0643 33.0583 14.0834 33.0792C14.1025 33.1002 14.1287 33.1133 14.157 33.116C14.1869 33.1152 14.2153 33.1029 14.2364 33.0817C14.2575 33.0605 14.2695 33.0319 14.27 33.002V32.982C14.2653 32.9556 14.2513 32.9318 14.2306 32.9147C14.2099 32.8977 14.1838 32.8886 14.157 32.889ZM14.72 32.889C14.7051 32.8887 14.6904 32.8915 14.6766 32.8971C14.6628 32.9027 14.6503 32.911 14.6398 32.9215C14.6294 32.9321 14.6211 32.9447 14.6157 32.9585C14.6102 32.9723 14.6076 32.9871 14.608 33.002C14.608 33.064 14.658 33.116 14.72 33.115C14.7497 33.1142 14.778 33.1021 14.7991 33.0811C14.8201 33.06 14.8322 33.0317 14.833 33.002V32.982C14.8283 32.9556 14.8143 32.9318 14.7936 32.9147C14.7729 32.8977 14.7468 32.8886 14.72 32.889ZM15.282 32.889C15.2672 32.8889 15.2526 32.8917 15.2389 32.8974C15.2252 32.903 15.2128 32.9114 15.2025 32.9219C15.1921 32.9325 15.184 32.945 15.1786 32.9587C15.1732 32.9725 15.1706 32.9872 15.171 33.002C15.171 33.064 15.221 33.116 15.282 33.115C15.3119 33.1145 15.3405 33.1025 15.3617 33.0814C15.3829 33.0603 15.3952 33.0319 15.396 33.002V32.994C15.3937 32.9654 15.3807 32.9386 15.3596 32.9191C15.3384 32.8997 15.3107 32.8889 15.282 32.889ZM15.845 32.889C15.8301 32.8887 15.8154 32.8915 15.8016 32.8971C15.7878 32.9027 15.7753 32.911 15.7648 32.9215C15.7544 32.9321 15.7461 32.9447 15.7407 32.9585C15.7352 32.9723 15.7326 32.9871 15.733 33.002C15.733 33.064 15.783 33.116 15.845 33.115C15.8747 33.1142 15.903 33.1021 15.9241 33.0811C15.9451 33.06 15.9572 33.0317 15.958 33.002V32.994C15.9557 32.9655 15.9429 32.9389 15.922 32.9195C15.901 32.9 15.8736 32.8892 15.845 32.889ZM16.407 32.889C16.3922 32.8889 16.3776 32.8917 16.3639 32.8974C16.3502 32.903 16.3378 32.9114 16.3275 32.9219C16.3171 32.9325 16.309 32.945 16.3036 32.9587C16.2982 32.9725 16.2956 32.9872 16.296 33.002C16.296 33.064 16.346 33.116 16.407 33.115C16.4367 33.1142 16.465 33.1021 16.4861 33.0811C16.5071 33.06 16.5192 33.0317 16.52 33.002V32.994C16.5177 32.9655 16.5049 32.9389 16.484 32.9195C16.463 32.9 16.4356 32.8892 16.407 32.889ZM16.967 32.889C16.9387 32.8917 16.9125 32.9048 16.8934 32.9258C16.8743 32.9467 16.8637 32.9741 16.8637 33.0025C16.8637 33.0309 16.8743 33.0583 16.8934 33.0792C16.9125 33.1002 16.9387 33.1133 16.967 33.116C16.9972 33.116 17.0262 33.104 17.0476 33.0826C17.069 33.0612 17.081 33.0322 17.081 33.002V32.994C17.0792 32.9654 17.0665 32.9385 17.0455 32.9189C17.0244 32.8994 16.9967 32.8887 16.968 32.889H16.967ZM17.53 32.889C17.5017 32.8917 17.4755 32.9048 17.4564 32.9258C17.4373 32.9467 17.4267 32.9741 17.4267 33.0025C17.4267 33.0309 17.4373 33.0583 17.4564 33.0792C17.4755 33.1002 17.5017 33.1133 17.53 33.116C17.5601 33.1157 17.5888 33.1036 17.61 33.0823C17.6311 33.0609 17.643 33.0321 17.643 33.002V32.994C17.6412 32.9654 17.6285 32.9385 17.6075 32.9189C17.5864 32.8994 17.5587 32.8887 17.53 32.889ZM18.093 32.889C18.0647 32.8917 18.0385 32.9048 18.0194 32.9258C18.0003 32.9467 17.9897 32.9741 17.9897 33.0025C17.9897 33.0309 18.0003 33.0583 18.0194 33.0792C18.0385 33.1002 18.0647 33.1133 18.093 33.116C18.1231 33.1157 18.1518 33.1036 18.173 33.0823C18.1941 33.0609 18.206 33.0321 18.206 33.002V32.994C18.2042 32.9654 18.1915 32.9385 18.1705 32.9189C18.1494 32.8994 18.1217 32.8887 18.093 32.889ZM18.655 32.889C18.6403 32.8891 18.6258 32.8922 18.6122 32.8979C18.5987 32.9037 18.5864 32.912 18.5761 32.9225C18.5658 32.933 18.5576 32.9454 18.5521 32.9591C18.5466 32.9727 18.5439 32.9873 18.544 33.002C18.544 33.063 18.594 33.115 18.655 33.115C18.6849 33.1145 18.7135 33.1025 18.7347 33.0814C18.7559 33.0603 18.7682 33.0319 18.769 33.002V32.982C18.7642 32.9554 18.7501 32.9315 18.7292 32.9144C18.7083 32.8973 18.682 32.8883 18.655 32.889ZM19.218 32.889C19.2031 32.8887 19.1884 32.8915 19.1746 32.8971C19.1608 32.9027 19.1483 32.911 19.1378 32.9215C19.1274 32.9321 19.1191 32.9447 19.1137 32.9585C19.1082 32.9723 19.1056 32.9871 19.106 33.002C19.106 33.064 19.156 33.116 19.218 33.115C19.2477 33.1142 19.276 33.1021 19.2971 33.0811C19.3181 33.06 19.3302 33.0317 19.331 33.002V32.994C19.3287 32.9655 19.3159 32.9389 19.295 32.9195C19.274 32.9 19.2466 32.8892 19.218 32.889ZM19.78 32.889C19.7652 32.8889 19.7506 32.8917 19.7369 32.8974C19.7232 32.903 19.7108 32.9114 19.7005 32.9219C19.6901 32.9325 19.682 32.945 19.6766 32.9587C19.6712 32.9725 19.6686 32.9872 19.669 33.002C19.669 33.064 19.719 33.116 19.78 33.115C19.8099 33.1145 19.8385 33.1025 19.8597 33.0814C19.8809 33.0603 19.8932 33.0319 19.894 33.002V32.994C19.8917 32.9654 19.8787 32.9386 19.8576 32.9191C19.8364 32.8997 19.8087 32.8889 19.78 32.889ZM20.343 32.889C20.3281 32.8887 20.3134 32.8915 20.2996 32.8971C20.2858 32.9027 20.2733 32.911 20.2628 32.9215C20.2524 32.9321 20.2441 32.9447 20.2387 32.9585C20.2332 32.9723 20.2306 32.9871 20.231 33.002C20.231 33.064 20.281 33.116 20.343 33.115C20.404 33.115 20.453 33.063 20.454 33.002V32.994C20.4522 32.9657 20.4398 32.9391 20.4192 32.9196C20.3986 32.9001 20.3714 32.8892 20.343 32.889ZM20.905 32.889C20.8902 32.8889 20.8756 32.8917 20.8619 32.8974C20.8482 32.903 20.8358 32.9114 20.8255 32.9219C20.8151 32.9325 20.807 32.945 20.8016 32.9587C20.7962 32.9725 20.7936 32.9872 20.794 33.002C20.794 33.064 20.844 33.116 20.905 33.115C20.9349 33.1145 20.9635 33.1025 20.9847 33.0814C21.0059 33.0603 21.0182 33.0319 21.019 33.002V32.994C21.0167 32.9654 21.0037 32.9386 20.9826 32.9191C20.9614 32.8997 20.9337 32.8889 20.905 32.889ZM21.465 32.889C21.4367 32.8917 21.4105 32.9048 21.3914 32.9258C21.3723 32.9467 21.3617 32.9741 21.3617 33.0025C21.3617 33.0309 21.3723 33.0583 21.3914 33.0792C21.4105 33.1002 21.4367 33.1133 21.465 33.116C21.4952 33.116 21.5242 33.104 21.5456 33.0826C21.567 33.0612 21.579 33.0322 21.579 33.002V32.994C21.5772 32.9654 21.5645 32.9385 21.5435 32.9189C21.5224 32.8994 21.4947 32.8887 21.466 32.889H21.465ZM22.028 32.889C21.9997 32.8917 21.9735 32.9048 21.9544 32.9258C21.9353 32.9467 21.9247 32.9741 21.9247 33.0025C21.9247 33.0309 21.9353 33.0583 21.9544 33.0792C21.9735 33.1002 21.9997 33.1133 22.028 33.116C22.0582 33.116 22.0872 33.104 22.1086 33.0826C22.13 33.0612 22.142 33.0322 22.142 33.002V32.994C22.1402 32.9652 22.1273 32.9382 22.1061 32.9186C22.0849 32.899 22.0569 32.8884 22.028 32.889ZM23.153 32.889C23.1247 32.8917 23.0985 32.9048 23.0794 32.9258C23.0603 32.9467 23.0497 32.9741 23.0497 33.0025C23.0497 33.0309 23.0603 33.0583 23.0794 33.0792C23.0985 33.1002 23.1247 33.1133 23.153 33.116C23.1832 33.1157 23.212 33.1036 23.2333 33.0823C23.2546 33.061 23.2667 33.0322 23.267 33.002V32.982C23.2622 32.9554 23.2481 32.9315 23.2272 32.9144C23.2063 32.8973 23.18 32.8883 23.153 32.889ZM23.716 32.889C23.686 32.889 23.6573 32.9009 23.6361 32.9221C23.6149 32.9433 23.603 32.972 23.603 33.002C23.603 33.064 23.653 33.116 23.716 33.115C23.7457 33.1142 23.774 33.1021 23.7951 33.0811C23.8161 33.06 23.8282 33.0317 23.829 33.002V32.982C23.8243 32.9556 23.8103 32.9318 23.7896 32.9147C23.7689 32.8977 23.7428 32.8886 23.716 32.889ZM24.278 32.889C24.248 32.889 24.2193 32.9009 24.1981 32.9221C24.1769 32.9433 24.165 32.972 24.165 33.002C24.165 33.064 24.216 33.116 24.278 33.115C24.3079 33.1145 24.3365 33.1025 24.3577 33.0814C24.3789 33.0603 24.3912 33.0319 24.392 33.002V32.994C24.3897 32.9654 24.3767 32.9386 24.3556 32.9191C24.3344 32.8997 24.3067 32.8889 24.278 32.889ZM24.841 32.889C24.8262 32.8889 24.8116 32.8917 24.7979 32.8974C24.7842 32.903 24.7718 32.9114 24.7615 32.9219C24.7511 32.9325 24.743 32.945 24.7376 32.9587C24.7322 32.9725 24.7296 32.9872 24.73 33.002C24.73 33.064 24.779 33.116 24.84 33.115C24.8699 33.1145 24.8985 33.1025 24.9197 33.0814C24.9409 33.0603 24.9532 33.0319 24.954 33.002V32.994C24.9517 32.9655 24.9389 32.9389 24.918 32.9195C24.897 32.9 24.8696 32.8892 24.841 32.889ZM25.401 32.889C25.3863 32.8891 25.3718 32.8922 25.3582 32.8979C25.3447 32.9037 25.3324 32.912 25.3221 32.9225C25.3118 32.933 25.3036 32.9454 25.2981 32.9591C25.2926 32.9727 25.2899 32.9873 25.29 33.002C25.29 33.063 25.34 33.115 25.401 33.115C25.4313 33.115 25.4603 33.1032 25.482 33.0821C25.5037 33.061 25.5162 33.0322 25.517 33.002V32.994C25.5147 32.965 25.5014 32.938 25.4799 32.9185C25.4583 32.8989 25.4301 32.8884 25.401 32.889ZM25.964 32.889C25.9357 32.8917 25.9095 32.9048 25.8904 32.9258C25.8713 32.9467 25.8607 32.9741 25.8607 33.0025C25.8607 33.0309 25.8713 33.0583 25.8904 33.0792C25.9095 33.1002 25.9357 33.1133 25.964 33.116C25.9941 33.1157 26.0228 33.1036 26.044 33.0823C26.0651 33.0609 26.077 33.0321 26.077 33.002V32.994C26.0752 32.9654 26.0625 32.9385 26.0415 32.9189C26.0204 32.8994 25.9927 32.8887 25.964 32.889ZM26.526 32.889C26.4977 32.8917 26.4715 32.9048 26.4524 32.9258C26.4333 32.9467 26.4227 32.9741 26.4227 33.0025C26.4227 33.0309 26.4333 33.0583 26.4524 33.0792C26.4715 33.1002 26.4977 33.1133 26.526 33.116C26.541 33.116 26.5558 33.1131 26.5696 33.1073C26.5835 33.1016 26.596 33.0932 26.6066 33.0826C26.6172 33.072 26.6256 33.0595 26.6313 33.0456C26.6371 33.0318 26.64 33.017 26.64 33.002V32.994C26.6382 32.9652 26.6253 32.9382 26.6041 32.9186C26.5829 32.899 26.5549 32.8884 26.526 32.889ZM27.651 32.889C27.6363 32.8891 27.6218 32.8922 27.6082 32.8979C27.5947 32.9037 27.5824 32.912 27.5721 32.9225C27.5618 32.933 27.5536 32.9454 27.5481 32.9591C27.5426 32.9727 27.5399 32.9873 27.54 33.002C27.54 33.063 27.59 33.115 27.651 33.115C27.6809 33.1145 27.7095 33.1025 27.7307 33.0814C27.7519 33.0603 27.7642 33.0319 27.765 33.002V32.982C27.7602 32.9554 27.7461 32.9315 27.7252 32.9144C27.7043 32.8973 27.678 32.8883 27.651 32.889ZM28.214 32.889C28.1992 32.8889 28.1846 32.8917 28.1709 32.8974C28.1572 32.903 28.1448 32.9114 28.1345 32.9219C28.1241 32.9325 28.116 32.945 28.1106 32.9587C28.1052 32.9725 28.1026 32.9872 28.103 33.002C28.103 33.064 28.152 33.116 28.213 33.115C28.2429 33.1145 28.2715 33.1025 28.2927 33.0814C28.3139 33.0603 28.3262 33.0319 28.327 33.002V32.994C28.3247 32.9655 28.3119 32.9389 28.291 32.9195C28.27 32.9 28.2426 32.8892 28.214 32.889ZM28.776 32.889C28.7611 32.8889 28.7464 32.8917 28.7326 32.8973C28.7188 32.903 28.7063 32.9113 28.6958 32.9218C28.6853 32.9323 28.677 32.9448 28.6713 32.9586C28.6657 32.9724 28.6629 32.9871 28.663 33.002C28.663 33.064 28.714 33.116 28.776 33.115C28.8059 33.1145 28.8345 33.1025 28.8557 33.0814C28.8769 33.0603 28.8892 33.0319 28.89 33.002V32.994C28.8877 32.9654 28.8747 32.9386 28.8536 32.9191C28.8324 32.8997 28.8047 32.8889 28.776 32.889ZM29.339 32.889C29.3241 32.8889 29.3094 32.8917 29.2956 32.8973C29.2818 32.903 29.2693 32.9113 29.2588 32.9218C29.2483 32.9323 29.24 32.9448 29.2343 32.9586C29.2287 32.9724 29.2259 32.9871 29.226 33.002C29.226 33.064 29.276 33.116 29.339 33.115C29.3687 33.1142 29.397 33.1021 29.4181 33.0811C29.4391 33.06 29.4512 33.0317 29.452 33.002V32.994C29.4497 32.9655 29.4369 32.9389 29.416 32.9195C29.395 32.9 29.3676 32.8892 29.339 32.889ZM29.899 32.889C29.8707 32.8917 29.8445 32.9048 29.8254 32.9258C29.8063 32.9467 29.7957 32.9741 29.7957 33.0025C29.7957 33.0309 29.8063 33.0583 29.8254 33.0792C29.8445 33.1002 29.8707 33.1133 29.899 33.116C29.9294 33.116 29.9586 33.1041 29.9803 33.0827C30.002 33.0614 30.0145 33.0324 30.015 33.002V32.994C30.0127 32.965 29.9994 32.938 29.9779 32.9185C29.9563 32.8989 29.9281 32.8884 29.899 32.889ZM30.462 32.889C30.4473 32.889 30.4327 32.8919 30.4192 32.8977C30.4057 32.9034 30.3934 32.9117 30.3831 32.9223C30.3729 32.9328 30.3648 32.9453 30.3595 32.959C30.3541 32.9727 30.3516 32.9873 30.352 33.002C30.353 33.063 30.4 33.115 30.462 33.115C30.4921 33.1148 30.5209 33.1028 30.5423 33.0817C30.5638 33.0607 30.5762 33.0321 30.577 33.002V32.994C30.5747 32.9652 30.5616 32.9383 30.5402 32.9188C30.5189 32.8993 30.4909 32.8887 30.462 32.889ZM31.024 32.889C30.9957 32.8917 30.9695 32.9048 30.9504 32.9258C30.9313 32.9467 30.9207 32.9741 30.9207 33.0025C30.9207 33.0309 30.9313 33.0583 30.9504 33.0792C30.9695 33.1002 30.9957 33.1133 31.024 33.116C31.0542 33.116 31.0832 33.104 31.1046 33.0826C31.126 33.0612 31.138 33.0322 31.138 33.002V32.994C31.1362 32.9652 31.1233 32.9382 31.1021 32.9186C31.0809 32.899 31.0529 32.8884 31.024 32.889ZM31.587 32.889C31.5723 32.8891 31.5578 32.8922 31.5442 32.8979C31.5307 32.9037 31.5184 32.912 31.5081 32.9225C31.4978 32.933 31.4896 32.9454 31.4841 32.9591C31.4786 32.9727 31.4759 32.9873 31.476 33.002C31.476 33.063 31.526 33.115 31.586 33.115C31.6159 33.1145 31.6445 33.1025 31.6657 33.0814C31.6869 33.0603 31.6992 33.0319 31.7 33.002V32.982C31.6953 32.9556 31.6813 32.9318 31.6606 32.9147C31.6399 32.8977 31.6138 32.8886 31.587 32.889ZM32.149 32.889C32.119 32.889 32.0903 32.9009 32.0691 32.9221C32.0479 32.9433 32.036 32.972 32.036 33.002C32.036 33.064 32.087 33.116 32.149 33.115C32.1789 33.1145 32.2075 33.1025 32.2287 33.0814C32.2499 33.0603 32.2622 33.0319 32.263 33.002V32.982C32.2582 32.9554 32.2441 32.9315 32.2232 32.9144C32.2023 32.8973 32.176 32.8883 32.149 32.889ZM32.712 32.889C32.682 32.889 32.6533 32.9009 32.6321 32.9221C32.6109 32.9433 32.599 32.972 32.599 33.002C32.599 33.064 32.649 33.116 32.712 33.115C32.7417 33.1142 32.77 33.1021 32.7911 33.0811C32.8121 33.06 32.8242 33.0317 32.825 33.002V32.994C32.8227 32.9655 32.8099 32.9389 32.789 32.9195C32.768 32.9 32.7406 32.8892 32.712 32.889ZM33.274 32.889C33.2593 32.889 33.2447 32.8919 33.2312 32.8977C33.2177 32.9034 33.2054 32.9117 33.1951 32.9223C33.1849 32.9328 33.1768 32.9453 33.1715 32.959C33.1661 32.9727 33.1636 32.9873 33.164 33.002C33.164 33.064 33.212 33.116 33.274 33.115C33.304 33.1147 33.3327 33.1028 33.354 33.0817C33.3753 33.0606 33.3875 33.032 33.388 33.002V32.994C33.3857 32.9654 33.3727 32.9386 33.3516 32.9191C33.3305 32.8997 33.3027 32.8889 33.274 32.889ZM33.837 32.889C33.8222 32.8889 33.8076 32.8917 33.7939 32.8974C33.7802 32.903 33.7678 32.9114 33.7575 32.9219C33.7471 32.9325 33.739 32.945 33.7336 32.9587C33.7282 32.9725 33.7256 32.9872 33.726 33.002C33.726 33.064 33.775 33.116 33.836 33.115C33.866 33.1147 33.8947 33.1028 33.916 33.0817C33.9373 33.0606 33.9495 33.032 33.95 33.002V32.994C33.9477 32.9655 33.9349 32.9389 33.914 32.9195C33.893 32.9 33.8656 32.8892 33.837 32.889ZM34.397 32.889C34.3687 32.8917 34.3425 32.9048 34.3234 32.9258C34.3043 32.9467 34.2937 32.9741 34.2937 33.0025C34.2937 33.0309 34.3043 33.0583 34.3234 33.0792C34.3425 33.1002 34.3687 33.1133 34.397 33.116C34.4272 33.116 34.4562 33.104 34.4776 33.0826C34.499 33.0612 34.511 33.0322 34.511 33.002V32.994C34.5092 32.9652 34.4963 32.9382 34.4751 32.9186C34.4538 32.899 34.4259 32.8884 34.397 32.889ZM16.256 35.095V35.097C16.1314 35.0989 16.0085 35.1255 15.8942 35.1751C15.7799 35.2247 15.6765 35.2963 15.59 35.386L13.781 37.243C13.6941 37.3323 13.6258 37.4378 13.5799 37.5536C13.5339 37.6693 13.5113 37.793 13.5134 37.9176C13.5154 38.0421 13.5421 38.165 13.5918 38.2792C13.6415 38.3934 13.7133 38.4966 13.803 38.583C13.892 38.6702 13.9974 38.739 14.1131 38.7852C14.2288 38.8315 14.3526 38.8543 14.4772 38.8525C14.6018 38.8506 14.7248 38.8241 14.8391 38.7744C14.9533 38.7247 15.0566 38.6528 15.143 38.563L16.951 36.704C17.0379 36.6148 17.1064 36.5093 17.1524 36.3936C17.1984 36.2779 17.2211 36.1542 17.2191 36.0296C17.2172 35.9051 17.1906 35.7822 17.141 35.668C17.0914 35.5537 17.0197 35.4504 16.93 35.364C16.841 35.2768 16.7356 35.208 16.62 35.1617C16.5043 35.1153 16.3806 35.0923 16.256 35.094V35.095ZM23.196 35.095V35.097C23.0713 35.0988 22.9481 35.1253 22.8336 35.1749C22.7192 35.2245 22.6156 35.2962 22.529 35.386L20.721 37.243C20.6341 37.3322 20.5656 37.4377 20.5196 37.5534C20.4736 37.6692 20.4509 37.7928 20.4529 37.9174C20.4548 38.0419 20.4814 38.1648 20.531 38.279C20.5806 38.3933 20.6523 38.4966 20.742 38.583C20.831 38.6702 20.9364 38.739 21.0521 38.7852C21.1678 38.8315 21.2916 38.8543 21.4162 38.8525C21.5408 38.8506 21.6638 38.8241 21.7781 38.7744C21.8923 38.7247 21.9956 38.6528 22.082 38.563L23.891 36.704C23.9779 36.6147 24.0462 36.5092 24.0921 36.3934C24.1381 36.2777 24.1607 36.154 24.1586 36.0294C24.1566 35.9049 24.1299 35.782 24.0802 35.6678C24.0305 35.5536 23.9587 35.4504 23.869 35.364C23.78 35.2768 23.6746 35.208 23.559 35.1617C23.4433 35.1153 23.3196 35.0923 23.195 35.094L23.196 35.095ZM26.758 35.095V35.097C26.6334 35.0989 26.5105 35.1255 26.3962 35.1751C26.2819 35.2247 26.1785 35.2963 26.092 35.386L24.283 37.243C24.1961 37.3323 24.1278 37.4378 24.0819 37.5536C24.0359 37.6693 24.0133 37.793 24.0154 37.9176C24.0174 38.0421 24.0441 38.165 24.0938 38.2792C24.1435 38.3934 24.2153 38.4966 24.305 38.583C24.394 38.6702 24.4994 38.739 24.6151 38.7852C24.7308 38.8315 24.8546 38.8543 24.9792 38.8525C25.1038 38.8506 25.2268 38.8241 25.3411 38.7744C25.4553 38.7247 25.5586 38.6528 25.645 38.563L27.453 36.704C27.5399 36.6148 27.6084 36.5093 27.6544 36.3936C27.7004 36.2779 27.7231 36.1542 27.7211 36.0296C27.7192 35.9051 27.6926 35.7822 27.643 35.668C27.5934 35.5537 27.5217 35.4504 27.432 35.364C27.343 35.2768 27.2376 35.208 27.122 35.1617C27.0063 35.1153 26.8826 35.0923 26.758 35.094V35.095ZM29.959 35.095V35.097C29.8344 35.0989 29.7115 35.1255 29.5972 35.1751C29.4829 35.2247 29.3795 35.2963 29.293 35.386L27.484 37.243C27.3971 37.3323 27.3288 37.4378 27.2829 37.5536C27.2369 37.6693 27.2143 37.793 27.2164 37.9176C27.2184 38.0421 27.2451 38.165 27.2948 38.2792C27.3445 38.3934 27.4163 38.4966 27.506 38.583C27.595 38.6702 27.7004 38.739 27.8161 38.7852C27.9318 38.8315 28.0556 38.8543 28.1802 38.8525C28.3048 38.8506 28.4278 38.8241 28.5421 38.7744C28.6563 38.7247 28.7596 38.6528 28.846 38.563L30.654 36.704C30.7409 36.6148 30.8094 36.5093 30.8554 36.3936C30.9014 36.2779 30.9241 36.1542 30.9221 36.0296C30.9202 35.9051 30.8936 35.7822 30.844 35.668C30.7944 35.5537 30.7227 35.4504 30.633 35.364C30.544 35.2768 30.4386 35.208 30.323 35.1617C30.2073 35.1153 30.0836 35.0923 29.959 35.094V35.095ZM33.522 35.095V35.097C33.3974 35.0989 33.2745 35.1255 33.1602 35.1751C33.0459 35.2247 32.9425 35.2963 32.856 35.386L31.046 37.243C30.9591 37.3323 30.8908 37.4378 30.8449 37.5536C30.7989 37.6693 30.7763 37.793 30.7784 37.9176C30.7804 38.0421 30.8071 38.165 30.8568 38.2792C30.9065 38.3934 30.9783 38.4966 31.068 38.583C31.157 38.6702 31.2624 38.739 31.3781 38.7852C31.4938 38.8315 31.6176 38.8543 31.7422 38.8525C31.8668 38.8506 31.9898 38.8241 32.1041 38.7744C32.2183 38.7247 32.3216 38.6528 32.408 38.563L34.217 36.704C34.3039 36.6147 34.3722 36.5092 34.4182 36.3934C34.4641 36.2777 34.4867 36.154 34.4846 36.0294C34.4826 35.9049 34.4559 35.782 34.4062 35.6678C34.3565 35.5536 34.2847 35.4504 34.195 35.364C34.1061 35.2769 34.0009 35.2082 33.8854 35.1619C33.7699 35.1155 33.6464 35.0925 33.522 35.094V35.095ZM19.818 35.097C19.6934 35.0989 19.5705 35.1255 19.4562 35.1751C19.3419 35.2247 19.2385 35.2963 19.152 35.386L17.344 37.243C17.2571 37.3322 17.1886 37.4377 17.1426 37.5534C17.0966 37.6692 17.0739 37.7928 17.0759 37.9174C17.0778 38.0419 17.1044 38.1648 17.154 38.279C17.2036 38.3933 17.2753 38.4966 17.365 38.583C17.454 38.6702 17.5594 38.739 17.6751 38.7852C17.7908 38.8315 17.9146 38.8543 18.0392 38.8525C18.1638 38.8506 18.2868 38.8241 18.4011 38.7744C18.5153 38.7247 18.6186 38.6528 18.705 38.563L20.514 36.706C20.6009 36.6167 20.6692 36.5112 20.7152 36.3954C20.7611 36.2797 20.7837 36.156 20.7816 36.0314C20.7796 35.9069 20.7529 35.784 20.7032 35.6698C20.6535 35.5556 20.5817 35.4524 20.492 35.366C20.403 35.2788 20.2976 35.21 20.182 35.1637C20.0663 35.1173 19.9426 35.0943 19.818 35.096V35.097Z" fill="#333333"/>
</svg>
