<svg width="48" height="48" viewBox="0 0 48 48" fill="none" xmlns="http://www.w3.org/2000/svg">
<g clip-path="url(#clip0)">
<path fill-rule="evenodd" clip-rule="evenodd" d="M0 0.0488281V48.0488H48V0.0488281H0ZM14.0586 4.00586H33.7637C34.6331 4.00586 35.332 4.70478 35.332 5.57422V42.4336C35.332 43.303 34.6331 44.0039 33.7637 44.0039H14.0586C13.1892 44.0039 12.4902 43.303 12.4902 42.4336V5.57422C12.4902 4.70478 13.1892 4.00586 14.0586 4.00586ZM21.2285 9.10351C20.3449 9.10355 19.6289 9.81951 19.6289 10.7031C19.6289 11.5868 20.3449 12.3027 21.2285 12.3027C22.1121 12.3027 22.8281 11.5868 22.8281 10.7031C22.8281 9.81951 22.1121 9.10355 21.2285 9.10351ZM26.6504 9.10351C25.7667 9.10355 25.0508 9.81951 25.0508 10.7031C25.0508 11.5868 25.7667 12.3027 26.6504 12.3027C27.534 12.3027 28.25 11.5868 28.25 10.7031C28.25 9.81951 27.534 9.10355 26.6504 9.10351ZM13.5449 17.2324C13.4829 17.2329 13.4332 17.2833 13.4336 17.3457C13.4341 17.4069 13.4833 17.4563 13.5449 17.457C13.6069 17.4576 13.6574 17.4081 13.6582 17.3457C13.6588 17.283 13.6077 17.232 13.5449 17.2324ZM14.1074 17.2324C14.0454 17.2329 13.9938 17.2833 13.9941 17.3457C13.9946 17.4069 14.0458 17.4567 14.1074 17.457C14.1686 17.4566 14.218 17.4069 14.2187 17.3457C14.2193 17.3381 14.2193 17.3338 14.2187 17.3262C14.2111 17.2718 14.1626 17.232 14.1074 17.2324ZM14.6699 17.2324C14.6072 17.2318 14.5563 17.283 14.5566 17.3457C14.5571 17.4077 14.6079 17.4578 14.6699 17.457C14.7311 17.4566 14.7805 17.4069 14.7812 17.3457C14.7818 17.3381 14.7818 17.3338 14.7812 17.3262C14.7736 17.2718 14.7251 17.232 14.6699 17.2324ZM15.2324 17.2324C15.1697 17.2318 15.1188 17.283 15.1191 17.3457C15.1196 17.4077 15.1704 17.4578 15.2324 17.457C15.2936 17.4566 15.343 17.4069 15.3437 17.3457C15.3438 17.3431 15.3438 17.3417 15.3437 17.3379C15.3401 17.2789 15.2918 17.2328 15.2324 17.2324ZM15.7949 17.2324C15.7322 17.2318 15.6813 17.283 15.6816 17.3457C15.6821 17.4077 15.7329 17.4578 15.7949 17.457C15.8561 17.4566 15.9055 17.4069 15.9062 17.3457C15.9063 17.3431 15.9063 17.3417 15.9062 17.3379C15.9026 17.2789 15.8543 17.2328 15.7949 17.2324ZM16.3574 17.2324C16.2947 17.2318 16.2438 17.283 16.2441 17.3457C16.2446 17.4077 16.2954 17.4578 16.3574 17.457C16.4186 17.4566 16.468 17.4069 16.4687 17.3457C16.4688 17.3431 16.4688 17.3417 16.4687 17.3379C16.4651 17.2789 16.4168 17.2328 16.3574 17.2324ZM16.918 17.2324C16.856 17.2329 16.8063 17.2833 16.8066 17.3457C16.8071 17.4069 16.8564 17.4567 16.918 17.457C16.9799 17.4576 17.0305 17.4077 17.0312 17.3457C17.0314 17.3431 17.0314 17.3417 17.0312 17.3379C17.0276 17.2782 16.9781 17.2317 16.918 17.2324ZM17.4805 17.2324C17.4185 17.2329 17.3688 17.2833 17.3691 17.3457C17.3696 17.4069 17.4189 17.4567 17.4805 17.457C17.5424 17.4576 17.593 17.4077 17.5937 17.3457C17.5939 17.3431 17.5939 17.3417 17.5937 17.3379C17.5901 17.2782 17.5406 17.2317 17.4805 17.2324ZM18.043 17.2324C17.981 17.2329 17.9313 17.2833 17.9316 17.3457C17.9321 17.4069 17.9814 17.4567 18.043 17.457C18.1049 17.4576 18.1555 17.4077 18.1562 17.3457C18.1563 17.3431 18.1563 17.3417 18.1562 17.3379C18.1526 17.2782 18.1031 17.2317 18.043 17.2324ZM18.6055 17.2324C18.5435 17.2329 18.4934 17.2833 18.4941 17.3457C18.4946 17.4069 18.5442 17.4567 18.6055 17.457C18.6667 17.4566 18.716 17.4069 18.7168 17.3457C18.7174 17.3381 18.7174 17.3338 18.7168 17.3262C18.7092 17.2718 18.6606 17.232 18.6055 17.2324ZM19.168 17.2324C19.1052 17.2318 19.0543 17.283 19.0547 17.3457C19.0552 17.4077 19.106 17.4578 19.168 17.457C19.2292 17.4566 19.2785 17.4069 19.2793 17.3457C19.2794 17.3431 19.2794 17.3417 19.2793 17.3379C19.2757 17.2789 19.2273 17.2328 19.168 17.2324ZM19.7305 17.2324C19.6677 17.2318 19.6168 17.283 19.6172 17.3457C19.6177 17.4077 19.6685 17.4578 19.7305 17.457C19.7917 17.4566 19.841 17.4069 19.8418 17.3457C19.8419 17.3431 19.8419 17.3417 19.8418 17.3379C19.8382 17.2789 19.7898 17.2328 19.7305 17.2324ZM20.293 17.2324C20.2302 17.2318 20.1793 17.283 20.1797 17.3457C20.1802 17.4077 20.231 17.4578 20.293 17.457C20.3542 17.4566 20.4035 17.4069 20.4043 17.3457C20.4044 17.3431 20.4044 17.3417 20.4043 17.3379C20.4007 17.2789 20.3523 17.2328 20.293 17.2324ZM20.8555 17.2324C20.7927 17.2318 20.7418 17.283 20.7422 17.3457C20.7427 17.4077 20.7935 17.4578 20.8555 17.457C20.9167 17.4566 20.966 17.4069 20.9668 17.3457C20.9669 17.3431 20.9669 17.3417 20.9668 17.3379C20.9632 17.2789 20.9148 17.2328 20.8555 17.2324ZM21.416 17.2324C21.354 17.2329 21.3043 17.2833 21.3047 17.3457C21.3052 17.4069 21.3544 17.4567 21.416 17.457C21.478 17.4576 21.5285 17.4077 21.5293 17.3457C21.5294 17.3431 21.5294 17.3417 21.5293 17.3379C21.5257 17.2782 21.4761 17.2317 21.416 17.2324ZM21.9785 17.2324C21.9165 17.2329 21.8668 17.2833 21.8672 17.3457C21.8677 17.4069 21.9169 17.4567 21.9785 17.457C22.0405 17.4576 22.091 17.4077 22.0918 17.3457C22.0919 17.3431 22.0919 17.3417 22.0918 17.3379C22.0882 17.2782 22.0386 17.2317 21.9785 17.2324ZM22.541 17.2324C22.479 17.2329 22.4293 17.2833 22.4297 17.3457C22.4302 17.4069 22.4794 17.4563 22.541 17.457C22.603 17.4576 22.6535 17.4081 22.6543 17.3457C22.6549 17.283 22.6038 17.232 22.541 17.2324ZM23.1035 17.2324C23.0415 17.2329 22.9918 17.2833 22.9922 17.3457C22.9927 17.4069 23.0419 17.4567 23.1035 17.457C23.1647 17.4566 23.2145 17.4069 23.2148 17.3457C23.2154 17.3381 23.2154 17.3338 23.2148 17.3262C23.2072 17.2718 23.1583 17.232 23.1035 17.2324ZM23.666 17.2324C23.6033 17.2318 23.5524 17.283 23.5527 17.3457C23.5532 17.4077 23.604 17.4578 23.666 17.457C23.7272 17.4566 23.7766 17.4069 23.7773 17.3457C23.7779 17.3381 23.7779 17.3338 23.7773 17.3262C23.7697 17.2718 23.7212 17.232 23.666 17.2324ZM24.2285 17.2324C24.1658 17.2318 24.1149 17.283 24.1152 17.3457C24.1157 17.4077 24.1665 17.4578 24.2285 17.457C24.2897 17.4566 24.3391 17.4069 24.3398 17.3457C24.3399 17.3431 24.3399 17.3417 24.3398 17.3379C24.3362 17.2789 24.2879 17.2328 24.2285 17.2324ZM24.791 17.2324C24.7283 17.2318 24.6774 17.283 24.6777 17.3457C24.6782 17.4077 24.729 17.4578 24.791 17.457C24.8522 17.4566 24.9016 17.4069 24.9023 17.3457C24.9025 17.3431 24.9025 17.3417 24.9023 17.3379C24.8987 17.2789 24.8504 17.2328 24.791 17.2324ZM25.3516 17.2324C25.2896 17.2329 25.2395 17.2833 25.2402 17.3457C25.2407 17.4069 25.2903 17.4567 25.3516 17.457C25.4135 17.4576 25.4641 17.4077 25.4648 17.3457C25.465 17.3431 25.465 17.3417 25.4648 17.3379C25.4612 17.2782 25.4117 17.2317 25.3516 17.2324ZM25.9141 17.2324C25.8521 17.2329 25.8024 17.2833 25.8027 17.3457C25.8032 17.4069 25.8525 17.4567 25.9141 17.457C25.976 17.4576 26.0266 17.4077 26.0273 17.3457C26.0274 17.3431 26.0274 17.3417 26.0273 17.3379C26.0237 17.2782 25.9742 17.2317 25.9141 17.2324ZM26.4766 17.2324C26.4146 17.2329 26.3649 17.2833 26.3652 17.3457C26.3657 17.4069 26.415 17.4567 26.4766 17.457C26.5385 17.4576 26.5891 17.4077 26.5898 17.3457C26.5899 17.3431 26.5899 17.3417 26.5898 17.3379C26.5862 17.2782 26.5366 17.2317 26.4766 17.2324ZM27.0391 17.2324C26.9771 17.2329 26.9274 17.2833 26.9277 17.3457C26.9282 17.4069 26.9775 17.4563 27.0391 17.457C27.101 17.4576 27.1516 17.4081 27.1523 17.3457C27.1529 17.283 27.1018 17.232 27.0391 17.2324ZM27.6016 17.2324C27.5396 17.2329 27.4895 17.2833 27.4902 17.3457C27.4907 17.4069 27.5403 17.4567 27.6016 17.457C27.6628 17.4566 27.7121 17.4069 27.7129 17.3457C27.7135 17.3381 27.7135 17.3338 27.7129 17.3262C27.7053 17.2718 27.6567 17.232 27.6016 17.2324ZM28.1641 17.2324C28.1013 17.2318 28.0504 17.283 28.0508 17.3457C28.0513 17.4077 28.1021 17.4578 28.1641 17.457C28.2253 17.4566 28.2746 17.4069 28.2754 17.3457C28.2755 17.3431 28.2755 17.3417 28.2754 17.3379C28.2718 17.2789 28.2234 17.2328 28.1641 17.2324ZM28.7266 17.2324C28.6638 17.2318 28.6129 17.283 28.6133 17.3457C28.6138 17.4077 28.6646 17.4578 28.7266 17.457C28.7878 17.4566 28.8371 17.4069 28.8379 17.3457C28.838 17.3431 28.838 17.3417 28.8379 17.3379C28.8343 17.2789 28.7859 17.2328 28.7266 17.2324ZM29.2891 17.2324C29.2263 17.2318 29.1754 17.283 29.1758 17.3457C29.1763 17.4077 29.2271 17.4578 29.2891 17.457C29.3503 17.4566 29.3996 17.4069 29.4004 17.3457C29.4005 17.3431 29.4005 17.3417 29.4004 17.3379C29.3968 17.2789 29.3484 17.2328 29.2891 17.2324ZM29.8496 17.2324C29.7876 17.2329 29.7379 17.2833 29.7383 17.3457C29.7388 17.4069 29.788 17.4567 29.8496 17.457C29.9116 17.4576 29.9621 17.4077 29.9629 17.3457C29.963 17.3431 29.963 17.3417 29.9629 17.3379C29.9593 17.2782 29.9097 17.2317 29.8496 17.2324ZM30.4121 17.2324C30.3501 17.2329 30.3004 17.2833 30.3008 17.3457C30.3013 17.4069 30.3505 17.4567 30.4121 17.457C30.4741 17.4576 30.5246 17.4077 30.5254 17.3457C30.5255 17.3431 30.5255 17.3417 30.5254 17.3379C30.5218 17.2782 30.4722 17.2317 30.4121 17.2324ZM30.9746 17.2324C30.9126 17.2329 30.8629 17.2833 30.8633 17.3457C30.8638 17.4069 30.913 17.4567 30.9746 17.457C31.0366 17.4576 31.0871 17.4077 31.0879 17.3457C31.088 17.3431 31.088 17.3417 31.0879 17.3379C31.0843 17.2782 31.0347 17.2317 30.9746 17.2324ZM31.5371 17.2324C31.4751 17.2329 31.425 17.2833 31.4258 17.3457C31.4263 17.4069 31.4759 17.4567 31.5371 17.457C31.5983 17.4566 31.6477 17.4069 31.6484 17.3457C31.649 17.3381 31.649 17.3338 31.6484 17.3262C31.6408 17.2718 31.5923 17.232 31.5371 17.2324ZM32.0996 17.2324C32.0369 17.2318 31.9859 17.283 31.9863 17.3457C31.9868 17.4077 32.0376 17.4578 32.0996 17.457C32.1608 17.4566 32.2102 17.4069 32.2109 17.3457C32.2115 17.3381 32.2115 17.3338 32.2109 17.3262C32.2033 17.2718 32.1548 17.232 32.0996 17.2324ZM32.6621 17.2324C32.5994 17.2318 32.5484 17.283 32.5488 17.3457C32.5493 17.4077 32.6001 17.4578 32.6621 17.457C32.7233 17.4566 32.7727 17.4069 32.7734 17.3457C32.7735 17.3431 32.7735 17.3417 32.7734 17.3379C32.7698 17.2789 32.7214 17.2328 32.6621 17.2324ZM33.2246 17.2324C33.1619 17.2318 33.1109 17.283 33.1113 17.3457C33.1118 17.4077 33.1626 17.4578 33.2246 17.457C33.2858 17.4566 33.3356 17.4069 33.3359 17.3457C33.336 17.3431 33.336 17.3417 33.3359 17.3379C33.3323 17.2789 33.2836 17.2328 33.2246 17.2324ZM33.7871 17.2324C33.7244 17.2318 33.6734 17.283 33.6738 17.3457C33.6743 17.4077 33.7251 17.4578 33.7871 17.457C33.8483 17.4566 33.8981 17.4069 33.8984 17.3457C33.8985 17.3431 33.8985 17.3417 33.8984 17.3379C33.8948 17.2789 33.8461 17.2328 33.7871 17.2324ZM34.3477 17.2324C34.2857 17.2329 34.2359 17.2833 34.2363 17.3457C34.2368 17.4069 34.286 17.4567 34.3477 17.457C34.4096 17.4576 34.4602 17.4077 34.4609 17.3457C34.461 17.3431 34.461 17.3417 34.4609 17.3379C34.4573 17.2782 34.4077 17.2317 34.3477 17.2324ZM18.4902 22.3613C17.6066 22.3614 16.8907 23.0773 16.8906 23.9609C16.8907 24.8446 17.6066 25.5605 18.4902 25.5605C19.3738 25.5605 20.0898 24.8446 20.0898 23.9609C20.0898 23.0773 19.3738 22.3614 18.4902 22.3613ZM23.9121 22.3613C23.0285 22.3614 22.3125 23.0773 22.3125 23.9609C22.3125 24.8446 23.0285 25.5605 23.9121 25.5605C24.7957 25.5605 25.5117 24.8446 25.5117 23.9609C25.5117 23.0773 24.7957 22.3614 23.9121 22.3613ZM29.334 22.3613C28.4503 22.3614 27.7344 23.0773 27.7344 23.9609C27.7344 24.8446 28.4503 25.5605 29.334 25.5605C30.2176 25.5605 30.9336 24.8446 30.9336 23.9609C30.9336 23.0773 30.2176 22.3614 29.334 22.3613ZM13.5449 30.4707C13.4829 30.4712 13.4332 30.5216 13.4336 30.584C13.4341 30.6452 13.4833 30.6946 13.5449 30.6953C13.6069 30.6959 13.6574 30.6463 13.6582 30.584C13.6588 30.5212 13.6077 30.4703 13.5449 30.4707ZM14.1074 30.4707C14.0454 30.4712 13.9938 30.5216 13.9941 30.584C13.9946 30.6452 14.0458 30.6949 14.1074 30.6953C14.1686 30.6949 14.218 30.6452 14.2187 30.584C14.2193 30.5764 14.2193 30.5721 14.2187 30.5645C14.2111 30.51 14.1626 30.4703 14.1074 30.4707ZM14.6699 30.4707C14.6072 30.4701 14.5563 30.5212 14.5566 30.584C14.5571 30.646 14.6079 30.6961 14.6699 30.6953C14.7311 30.6949 14.7805 30.6452 14.7812 30.584C14.7818 30.5764 14.7818 30.5721 14.7812 30.5645C14.7736 30.51 14.7251 30.4703 14.6699 30.4707ZM15.2324 30.4707C15.1697 30.4701 15.1188 30.5212 15.1191 30.584C15.1196 30.646 15.1704 30.6961 15.2324 30.6953C15.2936 30.6949 15.343 30.6452 15.3437 30.584C15.3438 30.5814 15.3438 30.58 15.3437 30.5762C15.3401 30.5172 15.2918 30.4711 15.2324 30.4707ZM15.7949 30.4707C15.7322 30.4701 15.6813 30.5212 15.6816 30.584C15.6821 30.646 15.7329 30.6961 15.7949 30.6953C15.8561 30.6949 15.9055 30.6452 15.9062 30.584C15.9063 30.5814 15.9063 30.58 15.9062 30.5762C15.9026 30.5172 15.8543 30.4711 15.7949 30.4707ZM16.3574 30.4707C16.2947 30.4701 16.2438 30.5212 16.2441 30.584C16.2446 30.646 16.2954 30.6961 16.3574 30.6953C16.4186 30.6949 16.468 30.6452 16.4687 30.584C16.4688 30.5814 16.4688 30.58 16.4687 30.5762C16.4651 30.5172 16.4168 30.4711 16.3574 30.4707ZM16.918 30.4707C16.856 30.4712 16.8063 30.5216 16.8066 30.584C16.8071 30.6452 16.8564 30.6949 16.918 30.6953C16.9799 30.6959 17.0305 30.646 17.0312 30.584C17.0314 30.5814 17.0314 30.58 17.0312 30.5762C17.0276 30.5164 16.9781 30.4699 16.918 30.4707ZM17.4805 30.4707C17.4185 30.4712 17.3688 30.5216 17.3691 30.584C17.3696 30.6452 17.4189 30.6949 17.4805 30.6953C17.5424 30.6959 17.593 30.646 17.5937 30.584C17.5939 30.5814 17.5939 30.58 17.5937 30.5762C17.5901 30.5164 17.5406 30.4699 17.4805 30.4707ZM18.043 30.4707C17.981 30.4712 17.9313 30.5216 17.9316 30.584C17.9321 30.6452 17.9814 30.6949 18.043 30.6953C18.1049 30.6959 18.1555 30.646 18.1562 30.584C18.1563 30.5814 18.1563 30.58 18.1562 30.5762C18.1526 30.5164 18.1031 30.4699 18.043 30.4707ZM18.6055 30.4707C18.5435 30.4712 18.4934 30.5216 18.4941 30.584C18.4946 30.6452 18.5442 30.6949 18.6055 30.6953C18.6667 30.6949 18.716 30.6452 18.7168 30.584C18.7174 30.5764 18.7174 30.5721 18.7168 30.5645C18.7092 30.51 18.6606 30.4703 18.6055 30.4707ZM19.168 30.4707C19.1052 30.4701 19.0543 30.5212 19.0547 30.584C19.0552 30.646 19.106 30.6961 19.168 30.6953C19.2292 30.6949 19.2785 30.6452 19.2793 30.584C19.2794 30.5814 19.2794 30.58 19.2793 30.5762C19.2757 30.5172 19.2273 30.4711 19.168 30.4707ZM19.7305 30.4707C19.6677 30.4701 19.6168 30.5212 19.6172 30.584C19.6177 30.646 19.6685 30.6961 19.7305 30.6953C19.7917 30.6949 19.841 30.6452 19.8418 30.584C19.8419 30.5814 19.8419 30.58 19.8418 30.5762C19.8382 30.5172 19.7898 30.4711 19.7305 30.4707ZM20.293 30.4707C20.2302 30.4701 20.1793 30.5212 20.1797 30.584C20.1802 30.646 20.231 30.6961 20.293 30.6953C20.3542 30.6949 20.4035 30.6452 20.4043 30.584C20.4044 30.5814 20.4044 30.58 20.4043 30.5762C20.4007 30.5172 20.3523 30.4711 20.293 30.4707ZM20.8555 30.4707C20.7927 30.4701 20.7418 30.5212 20.7422 30.584C20.7427 30.646 20.7935 30.6961 20.8555 30.6953C20.9167 30.6949 20.966 30.6452 20.9668 30.584C20.9669 30.5814 20.9669 30.58 20.9668 30.5762C20.9632 30.5172 20.9148 30.4711 20.8555 30.4707ZM21.416 30.4707C21.354 30.4712 21.3043 30.5216 21.3047 30.584C21.3052 30.6452 21.3544 30.6949 21.416 30.6953C21.478 30.6959 21.5285 30.646 21.5293 30.584C21.5294 30.5814 21.5294 30.58 21.5293 30.5762C21.5257 30.5164 21.4761 30.4699 21.416 30.4707ZM21.9785 30.4707C21.9165 30.4712 21.8668 30.5216 21.8672 30.584C21.8677 30.6452 21.9169 30.6949 21.9785 30.6953C22.0405 30.6959 22.091 30.646 22.0918 30.584C22.0919 30.5814 22.0919 30.58 22.0918 30.5762C22.0882 30.5164 22.0386 30.4699 21.9785 30.4707ZM22.541 30.4707C22.479 30.4712 22.4293 30.5216 22.4297 30.584C22.4302 30.6452 22.4794 30.6946 22.541 30.6953C22.603 30.6959 22.6535 30.6463 22.6543 30.584C22.6549 30.5212 22.6038 30.4703 22.541 30.4707ZM23.1035 30.4707C23.0415 30.4712 22.9918 30.5216 22.9922 30.584C22.9927 30.6452 23.0419 30.6949 23.1035 30.6953C23.1647 30.6949 23.2145 30.6452 23.2148 30.584C23.2154 30.5764 23.2154 30.5721 23.2148 30.5645C23.2072 30.51 23.1583 30.4703 23.1035 30.4707ZM23.666 30.4707C23.6033 30.4701 23.5524 30.5212 23.5527 30.584C23.5532 30.646 23.604 30.6961 23.666 30.6953C23.7272 30.6949 23.7766 30.6452 23.7773 30.584C23.7779 30.5764 23.7779 30.5721 23.7773 30.5645C23.7697 30.51 23.7212 30.4703 23.666 30.4707ZM24.2285 30.4707C24.1658 30.4701 24.1149 30.5212 24.1152 30.584C24.1157 30.646 24.1665 30.6961 24.2285 30.6953C24.2897 30.6949 24.3391 30.6452 24.3398 30.584C24.3399 30.5814 24.3399 30.58 24.3398 30.5762C24.3362 30.5172 24.2879 30.4711 24.2285 30.4707ZM24.791 30.4707C24.7283 30.4701 24.6774 30.5212 24.6777 30.584C24.6782 30.646 24.729 30.6961 24.791 30.6953C24.8522 30.6949 24.9016 30.6452 24.9023 30.584C24.9025 30.5814 24.9025 30.58 24.9023 30.5762C24.8987 30.5172 24.8504 30.4711 24.791 30.4707ZM25.3516 30.4707C25.2896 30.4712 25.2395 30.5216 25.2402 30.584C25.2407 30.6452 25.2903 30.6949 25.3516 30.6953C25.4135 30.6959 25.4641 30.646 25.4648 30.584C25.465 30.5814 25.465 30.58 25.4648 30.5762C25.4612 30.5164 25.4117 30.4699 25.3516 30.4707ZM25.9141 30.4707C25.8521 30.4712 25.8024 30.5216 25.8027 30.584C25.8032 30.6452 25.8525 30.6949 25.9141 30.6953C25.976 30.6959 26.0266 30.646 26.0273 30.584C26.0274 30.5814 26.0274 30.58 26.0273 30.5762C26.0237 30.5164 25.9742 30.4699 25.9141 30.4707ZM26.4766 30.4707C26.4146 30.4712 26.3649 30.5216 26.3652 30.584C26.3657 30.6452 26.415 30.6949 26.4766 30.6953C26.5385 30.6959 26.5891 30.646 26.5898 30.584C26.5899 30.5814 26.5899 30.58 26.5898 30.5762C26.5862 30.5164 26.5366 30.4699 26.4766 30.4707ZM27.0391 30.4707C26.9771 30.4712 26.9274 30.5216 26.9277 30.584C26.9282 30.6452 26.9775 30.6946 27.0391 30.6953C27.101 30.6959 27.1516 30.6463 27.1523 30.584C27.1529 30.5212 27.1018 30.4703 27.0391 30.4707ZM27.6016 30.4707C27.5396 30.4712 27.4895 30.5216 27.4902 30.584C27.4907 30.6452 27.5403 30.6949 27.6016 30.6953C27.6628 30.6949 27.7121 30.6452 27.7129 30.584C27.7135 30.5764 27.7135 30.5721 27.7129 30.5645C27.7053 30.51 27.6567 30.4703 27.6016 30.4707ZM28.1641 30.4707C28.1013 30.4701 28.0504 30.5212 28.0508 30.584C28.0513 30.646 28.1021 30.6961 28.1641 30.6953C28.2253 30.6949 28.2746 30.6452 28.2754 30.584C28.2755 30.5814 28.2755 30.58 28.2754 30.5762C28.2718 30.5172 28.2234 30.4711 28.1641 30.4707ZM28.7266 30.4707C28.6638 30.4701 28.6129 30.5212 28.6133 30.584C28.6138 30.646 28.6646 30.6961 28.7266 30.6953C28.7878 30.6949 28.8371 30.6452 28.8379 30.584C28.838 30.5814 28.838 30.58 28.8379 30.5762C28.8343 30.5172 28.7859 30.4711 28.7266 30.4707ZM29.2891 30.4707C29.2263 30.4701 29.1754 30.5212 29.1758 30.584C29.1763 30.646 29.2271 30.6961 29.2891 30.6953C29.3503 30.6949 29.3996 30.6452 29.4004 30.584C29.4005 30.5814 29.4005 30.58 29.4004 30.5762C29.3968 30.5172 29.3484 30.4711 29.2891 30.4707ZM29.8496 30.4707C29.7876 30.4712 29.7379 30.5216 29.7383 30.584C29.7388 30.6452 29.788 30.6949 29.8496 30.6953C29.9116 30.6959 29.9621 30.646 29.9629 30.584C29.963 30.5814 29.963 30.58 29.9629 30.5762C29.9593 30.5164 29.9097 30.4699 29.8496 30.4707ZM30.4121 30.4707C30.3501 30.4712 30.3004 30.5216 30.3008 30.584C30.3013 30.6452 30.3505 30.6949 30.4121 30.6953C30.4741 30.6959 30.5246 30.646 30.5254 30.584C30.5255 30.5814 30.5255 30.58 30.5254 30.5762C30.5218 30.5164 30.4722 30.4699 30.4121 30.4707ZM30.9746 30.4707C30.9126 30.4712 30.8629 30.5216 30.8633 30.584C30.8638 30.6452 30.913 30.6949 30.9746 30.6953C31.0366 30.6959 31.0871 30.646 31.0879 30.584C31.088 30.5814 31.088 30.58 31.0879 30.5762C31.0843 30.5164 31.0347 30.4699 30.9746 30.4707ZM31.5371 30.4707C31.4751 30.4712 31.425 30.5216 31.4258 30.584C31.4263 30.6452 31.4759 30.6949 31.5371 30.6953C31.5983 30.6949 31.6477 30.6452 31.6484 30.584C31.649 30.5764 31.649 30.5721 31.6484 30.5645C31.6408 30.51 31.5923 30.4703 31.5371 30.4707ZM32.0996 30.4707C32.0369 30.4701 31.9859 30.5212 31.9863 30.584C31.9868 30.646 32.0376 30.6961 32.0996 30.6953C32.1608 30.6949 32.2102 30.6452 32.2109 30.584C32.2115 30.5764 32.2115 30.5721 32.2109 30.5645C32.2033 30.51 32.1548 30.4703 32.0996 30.4707ZM32.6621 30.4707C32.5994 30.4701 32.5484 30.5212 32.5488 30.584C32.5493 30.646 32.6001 30.6961 32.6621 30.6953C32.7233 30.6949 32.7727 30.6452 32.7734 30.584C32.7735 30.5814 32.7735 30.58 32.7734 30.5762C32.7698 30.5172 32.7214 30.4711 32.6621 30.4707ZM33.2246 30.4707C33.1619 30.4701 33.1109 30.5212 33.1113 30.584C33.1118 30.646 33.1626 30.6961 33.2246 30.6953C33.2858 30.6949 33.3356 30.6452 33.3359 30.584C33.336 30.5814 33.336 30.58 33.3359 30.5762C33.3323 30.5172 33.2836 30.4711 33.2246 30.4707ZM33.7871 30.4707C33.7244 30.4701 33.6734 30.5212 33.6738 30.584C33.6743 30.646 33.7251 30.6961 33.7871 30.6953C33.8483 30.6949 33.8981 30.6452 33.8984 30.584C33.8985 30.5814 33.8985 30.58 33.8984 30.5762C33.8948 30.5172 33.8461 30.4711 33.7871 30.4707ZM34.3477 30.4707C34.2857 30.4712 34.2359 30.5216 34.2363 30.584C34.2368 30.6452 34.286 30.6949 34.3477 30.6953C34.4096 30.6959 34.4602 30.646 34.4609 30.584C34.461 30.5814 34.461 30.58 34.4609 30.5762C34.4573 30.5164 34.4077 30.4699 34.3477 30.4707ZM21.2285 35.707C20.3449 35.7071 19.6289 36.423 19.6289 37.3066C19.6289 38.1903 20.3449 38.9062 21.2285 38.9062C22.1121 38.9062 22.8281 38.1903 22.8281 37.3066C22.8281 36.423 22.1121 35.7071 21.2285 35.707ZM26.6504 35.707C25.7667 35.7071 25.0508 36.423 25.0508 37.3066C25.0508 38.1903 25.7667 38.9062 26.6504 38.9062C27.534 38.9062 28.25 38.1903 28.25 37.3066C28.25 36.423 27.534 35.7071 26.6504 35.707Z" fill="#333333"/>
</g>
<defs>
<clipPath id="clip0">
<rect width="48" height="48" fill="white"/>
</clipPath>
</defs>
</svg>
