<svg width="48" height="48" viewBox="0 0 48 48" fill="none" xmlns="http://www.w3.org/2000/svg">
<g clip-path="url(#clip0)">
<path fill-rule="evenodd" clip-rule="evenodd" d="M0 -0.125V47.875H48V-0.125H0ZM14.1465 3.875H33.8516C34.721 3.875 35.4199 4.57392 35.4199 5.44336V42.3047C35.4199 43.1741 34.721 43.875 33.8516 43.875H14.1465C13.277 43.875 12.5781 43.1741 12.5781 42.3047V33.5937V5.44336C12.5781 4.57392 13.277 3.875 14.1465 3.875ZM18.5957 14.9121C17.7121 14.9121 16.9961 15.6281 16.9961 16.5117C16.9961 17.3954 17.7121 18.1113 18.5957 18.1113C19.4793 18.1113 20.1953 17.3954 20.1953 16.5117C20.1953 15.6281 19.4793 14.9121 18.5957 14.9121ZM24.0176 14.9121C23.1339 14.9121 22.418 15.6281 22.418 16.5117C22.418 17.3954 23.1339 18.1113 24.0176 18.1113C24.9012 18.1113 25.6171 17.3954 25.6172 16.5117C25.6171 15.6281 24.9012 14.9121 24.0176 14.9121ZM29.4395 14.9121C28.5558 14.9121 27.8399 15.6281 27.8398 16.5117C27.8399 17.3954 28.5558 18.1113 29.4395 18.1113C30.3231 18.1113 31.039 17.3954 31.0391 16.5117C31.039 15.6281 30.3231 14.9121 29.4395 14.9121ZM13.5957 29.1543C13.5337 29.1551 13.484 29.2052 13.4844 29.2676C13.4849 29.3288 13.5341 29.3781 13.5957 29.3789C13.6577 29.3793 13.7082 29.3299 13.709 29.2676C13.7096 29.2048 13.6584 29.1539 13.5957 29.1543ZM14.1582 29.1543C14.0962 29.1551 14.0465 29.2052 14.0469 29.2676C14.0474 29.3288 14.0966 29.3785 14.1582 29.3789C14.2194 29.3781 14.2707 29.3288 14.2715 29.2676C14.272 29.26 14.272 29.2556 14.2715 29.248C14.2639 29.1936 14.2134 29.1539 14.1582 29.1543ZM14.7207 29.1543C14.658 29.1539 14.609 29.2048 14.6094 29.2676C14.6099 29.3296 14.6587 29.3797 14.7207 29.3789C14.7819 29.3781 14.8332 29.3288 14.834 29.2676C14.8345 29.26 14.8345 29.2556 14.834 29.248C14.8264 29.1936 14.7759 29.1539 14.7207 29.1543ZM15.2832 29.1543C15.2205 29.1539 15.1715 29.2048 15.1719 29.2676C15.1724 29.3296 15.2212 29.3797 15.2832 29.3789C15.3444 29.3781 15.3957 29.3288 15.3965 29.2676C15.3966 29.2638 15.3966 29.2635 15.3965 29.2598C15.3929 29.2008 15.3425 29.1547 15.2832 29.1543ZM15.8457 29.1543C15.783 29.1539 15.734 29.2048 15.7344 29.2676C15.7349 29.3296 15.7837 29.3797 15.8457 29.3789C15.9069 29.3781 15.9582 29.3288 15.959 29.2676C15.9591 29.2638 15.9591 29.2635 15.959 29.2598C15.9554 29.2008 15.905 29.1547 15.8457 29.1543ZM16.4082 29.1543C16.3455 29.1539 16.2965 29.2048 16.2969 29.2676C16.2974 29.3296 16.3462 29.3797 16.4082 29.3789C16.4694 29.3781 16.5207 29.3288 16.5215 29.2676C16.5216 29.2638 16.5216 29.2635 16.5215 29.2598C16.5179 29.2008 16.4675 29.1547 16.4082 29.1543ZM16.9687 29.1543C16.9068 29.1551 16.857 29.2052 16.8574 29.2676C16.8579 29.3288 16.9071 29.3785 16.9687 29.3789C17.0307 29.3793 17.0813 29.3296 17.082 29.2676C17.0821 29.2638 17.0821 29.2635 17.082 29.2598C17.0784 29.2 17.0288 29.1535 16.9687 29.1543ZM17.5312 29.1543C17.4693 29.1551 17.4195 29.2052 17.4199 29.2676C17.4204 29.3288 17.4696 29.3785 17.5312 29.3789C17.5932 29.3793 17.6438 29.3296 17.6445 29.2676C17.6446 29.2638 17.6446 29.2635 17.6445 29.2598C17.6409 29.2 17.5913 29.1535 17.5312 29.1543ZM18.0937 29.1543C18.0318 29.1551 17.982 29.2052 17.9824 29.2676C17.9829 29.3288 18.0321 29.3785 18.0937 29.3789C18.1557 29.3793 18.2063 29.3296 18.207 29.2676C18.2071 29.2638 18.2071 29.2635 18.207 29.2598C18.2034 29.2 18.1538 29.1535 18.0937 29.1543ZM18.6562 29.1543C18.5943 29.1551 18.5442 29.2052 18.5449 29.2676C18.5454 29.3288 18.595 29.3785 18.6562 29.3789C18.7175 29.3781 18.7688 29.3288 18.7695 29.2676C18.7701 29.26 18.7701 29.2556 18.7695 29.248C18.7619 29.1936 18.7114 29.1539 18.6562 29.1543ZM19.2187 29.1543C19.156 29.1539 19.107 29.2048 19.1074 29.2676C19.1079 29.3296 19.1568 29.3797 19.2187 29.3789C19.28 29.3781 19.3313 29.3288 19.332 29.2676C19.3321 29.2638 19.3321 29.2635 19.332 29.2598C19.3284 29.2008 19.2781 29.1547 19.2187 29.1543ZM19.7812 29.1543C19.7185 29.1539 19.6695 29.2048 19.6699 29.2676C19.6704 29.3296 19.7193 29.3797 19.7812 29.3789C19.8425 29.3781 19.8938 29.3288 19.8945 29.2676C19.8946 29.2638 19.8946 29.2635 19.8945 29.2598C19.8909 29.2008 19.8406 29.1547 19.7812 29.1543ZM20.3437 29.1543C20.281 29.1539 20.232 29.2048 20.2324 29.2676C20.2329 29.3296 20.2818 29.3797 20.3437 29.3789C20.405 29.3781 20.4563 29.3288 20.457 29.2676C20.4571 29.2638 20.4571 29.2635 20.457 29.2598C20.4534 29.2008 20.4031 29.1547 20.3437 29.1543ZM20.9062 29.1543C20.8435 29.1539 20.7945 29.2048 20.7949 29.2676C20.7954 29.3296 20.8443 29.3797 20.9062 29.3789C20.9675 29.3781 21.0188 29.3288 21.0195 29.2676C21.0196 29.2638 21.0196 29.2635 21.0195 29.2598C21.0159 29.2008 20.9656 29.1547 20.9062 29.1543ZM21.4668 29.1543C21.4048 29.1551 21.3551 29.2052 21.3555 29.2676C21.356 29.3288 21.4052 29.3785 21.4668 29.3789C21.5288 29.3793 21.5793 29.3296 21.5801 29.2676C21.5802 29.2638 21.5802 29.2635 21.5801 29.2598C21.5765 29.2 21.5269 29.1535 21.4668 29.1543ZM22.0293 29.1543C21.9673 29.1551 21.9176 29.2052 21.918 29.2676C21.9185 29.3288 21.9677 29.3785 22.0293 29.3789C22.0913 29.3793 22.1418 29.3296 22.1426 29.2676C22.1427 29.2638 22.1427 29.2635 22.1426 29.2598C22.139 29.2 22.0894 29.1535 22.0293 29.1543ZM22.5918 29.1543C22.5298 29.1551 22.482 29.2052 22.4824 29.2676C22.4829 29.3288 22.5302 29.3781 22.5918 29.3789C22.6538 29.3793 22.7043 29.3299 22.7051 29.2676C22.7057 29.2048 22.6545 29.1539 22.5918 29.1543ZM23.1543 29.1543C23.0923 29.1551 23.0426 29.2052 23.043 29.2676C23.0435 29.3288 23.0927 29.3785 23.1543 29.3789C23.2155 29.3781 23.2672 29.3288 23.2676 29.2676C23.2681 29.26 23.2681 29.2556 23.2676 29.248C23.26 29.1936 23.2091 29.1539 23.1543 29.1543ZM23.7168 29.1543C23.6541 29.1539 23.6031 29.2048 23.6035 29.2676C23.604 29.3296 23.6548 29.3797 23.7168 29.3789C23.778 29.3781 23.8274 29.3288 23.8281 29.2676C23.8287 29.26 23.8287 29.2556 23.8281 29.248C23.8205 29.1936 23.772 29.1539 23.7168 29.1543ZM24.2793 29.1543C24.2166 29.1539 24.1676 29.2048 24.168 29.2676C24.1685 29.3296 24.2173 29.3797 24.2793 29.3789C24.3405 29.3781 24.3918 29.3288 24.3926 29.2676C24.3927 29.2638 24.3927 29.2635 24.3926 29.2598C24.389 29.2008 24.3386 29.1547 24.2793 29.1543ZM24.8418 29.1543C24.7791 29.1539 24.7281 29.2048 24.7285 29.2676C24.729 29.3296 24.7798 29.3797 24.8418 29.3789C24.903 29.3781 24.9543 29.3288 24.9551 29.2676C24.9552 29.2638 24.9552 29.2635 24.9551 29.2598C24.9515 29.2008 24.9011 29.1547 24.8418 29.1543ZM25.4023 29.1543C25.3404 29.1551 25.2903 29.2052 25.291 29.2676C25.2915 29.3288 25.3411 29.3785 25.4023 29.3789C25.4643 29.3793 25.5149 29.3296 25.5156 29.2676C25.5157 29.2638 25.5157 29.2635 25.5156 29.2598C25.512 29.2 25.4624 29.1535 25.4023 29.1543ZM25.9648 29.1543C25.9029 29.1551 25.8531 29.2052 25.8535 29.2676C25.854 29.3288 25.9032 29.3785 25.9648 29.3789C26.0268 29.3793 26.0774 29.3296 26.0781 29.2676C26.0782 29.2638 26.0782 29.2635 26.0781 29.2598C26.0745 29.2 26.0249 29.1535 25.9648 29.1543ZM26.5273 29.1543C26.4654 29.1551 26.4156 29.2052 26.416 29.2676C26.4165 29.3288 26.4657 29.3785 26.5273 29.3789C26.5893 29.3793 26.6418 29.3296 26.6426 29.2676C26.6427 29.2638 26.6427 29.2635 26.6426 29.2598C26.639 29.2 26.5874 29.1535 26.5273 29.1543ZM27.0898 29.1543C27.0279 29.1551 26.9781 29.2052 26.9785 29.2676C26.979 29.3288 27.0282 29.3781 27.0898 29.3789C27.1518 29.3793 27.2043 29.3299 27.2051 29.2676C27.2057 29.2048 27.1526 29.1539 27.0898 29.1543ZM27.6523 29.1543C27.5904 29.1551 27.5403 29.2052 27.541 29.2676C27.5415 29.3288 27.5911 29.3785 27.6523 29.3789C27.7136 29.3781 27.7649 29.3288 27.7656 29.2676C27.7662 29.26 27.7662 29.2556 27.7656 29.248C27.758 29.1936 27.7075 29.1539 27.6523 29.1543ZM28.2148 29.1543C28.1521 29.1539 28.1031 29.2048 28.1035 29.2676C28.104 29.3296 28.1529 29.3797 28.2148 29.3789C28.2761 29.3781 28.3274 29.3288 28.3281 29.2676C28.3282 29.2638 28.3282 29.2635 28.3281 29.2598C28.3245 29.2008 28.2742 29.1547 28.2148 29.1543ZM28.7773 29.1543C28.7146 29.1539 28.6637 29.2048 28.6641 29.2676C28.6646 29.3296 28.7154 29.3797 28.7773 29.3789C28.8386 29.3781 28.8899 29.3288 28.8906 29.2676C28.8907 29.2638 28.8907 29.2635 28.8906 29.2598C28.887 29.2008 28.8367 29.1547 28.7773 29.1543ZM29.3398 29.1543C29.2771 29.1539 29.2262 29.2048 29.2266 29.2676C29.2271 29.3296 29.2778 29.3797 29.3398 29.3789C29.4011 29.3781 29.4524 29.3288 29.4531 29.2676C29.4532 29.2638 29.4532 29.2635 29.4531 29.2598C29.4495 29.2008 29.3992 29.1547 29.3398 29.1543ZM29.9004 29.1543C29.8384 29.1551 29.7887 29.2052 29.7891 29.2676C29.7896 29.3288 29.8388 29.3785 29.9004 29.3789C29.9624 29.3793 30.0129 29.3296 30.0137 29.2676C30.0138 29.2638 30.0138 29.2635 30.0137 29.2598C30.0101 29.2 29.9605 29.1535 29.9004 29.1543ZM30.4629 29.1543C30.4009 29.1551 30.3512 29.2052 30.3516 29.2676C30.3521 29.3288 30.4013 29.3785 30.4629 29.3789C30.5249 29.3793 30.5774 29.3296 30.5781 29.2676C30.5782 29.2638 30.5782 29.2635 30.5781 29.2598C30.5745 29.2 30.523 29.1535 30.4629 29.1543ZM31.0254 29.1543C30.9634 29.1551 30.9137 29.2052 30.9141 29.2676C30.9146 29.3288 30.9638 29.3785 31.0254 29.3789C31.0874 29.3793 31.1399 29.3296 31.1406 29.2676C31.1407 29.2638 31.1407 29.2635 31.1406 29.2598C31.137 29.2 31.0855 29.1535 31.0254 29.1543ZM31.5879 29.1543C31.5259 29.1551 31.4758 29.2052 31.4766 29.2676C31.4771 29.3288 31.5267 29.3785 31.5879 29.3789C31.6491 29.3781 31.7004 29.3288 31.7012 29.2676C31.7017 29.26 31.7017 29.2556 31.7012 29.248C31.6936 29.1936 31.6431 29.1539 31.5879 29.1543ZM32.1504 29.1543C32.0876 29.1539 32.0387 29.2048 32.0391 29.2676C32.0396 29.3296 32.0884 29.3797 32.1504 29.3789C32.2116 29.3781 32.2629 29.3288 32.2637 29.2676C32.2642 29.26 32.2642 29.2556 32.2637 29.248C32.2561 29.1936 32.2056 29.1539 32.1504 29.1543ZM32.7129 29.1543C32.6501 29.1539 32.5992 29.2048 32.5996 29.2676C32.6001 29.3296 32.6509 29.3797 32.7129 29.3789C32.7741 29.3781 32.8254 29.3288 32.8262 29.2676C32.8262 29.2638 32.8262 29.2635 32.8262 29.2598C32.8226 29.2008 32.7722 29.1547 32.7129 29.1543ZM33.2754 29.1543C33.2126 29.1539 33.1617 29.2048 33.1621 29.2676C33.1626 29.3296 33.2134 29.3797 33.2754 29.3789C33.3366 29.3781 33.3883 29.3288 33.3887 29.2676C33.3888 29.2638 33.3888 29.2635 33.3887 29.2598C33.3851 29.2008 33.3343 29.1547 33.2754 29.1543ZM33.8379 29.1543C33.7751 29.1539 33.7262 29.2048 33.7266 29.2676C33.7271 29.3296 33.7759 29.3797 33.8379 29.3789C33.8991 29.3781 33.9508 29.3288 33.9512 29.2676C33.9513 29.2638 33.9513 29.2635 33.9512 29.2598C33.9476 29.2008 33.8968 29.1547 33.8379 29.1543ZM34.3984 29.1543C34.3365 29.1551 34.2867 29.2052 34.2871 29.2676C34.2876 29.3288 34.3368 29.3785 34.3984 29.3789C34.4604 29.3793 34.511 29.3296 34.5117 29.2676C34.5118 29.2638 34.5118 29.2635 34.5117 29.2598C34.5081 29.2 34.4585 29.1535 34.3984 29.1543Z" fill="#333333"/>
</g>
<defs>
<clipPath id="clip0">
<rect width="48" height="48" fill="white"/>
</clipPath>
</defs>
</svg>
