<svg width="48" height="48" viewBox="0 0 48 48" fill="none" xmlns="http://www.w3.org/2000/svg">
<g clip-path="url(#clip0)">
<path fill-rule="evenodd" clip-rule="evenodd" d="M0 0.0942383V48.0942H48V0.0942383H0ZM28.906 4.07224C30.546 4.07724 32.193 4.09124 33.852 4.11724C34.721 4.11724 35.42 4.81724 35.42 5.68624V42.5462C35.42 43.4162 34.721 44.1172 33.852 44.1172H14.147C13.277 44.1172 12.58 43.4172 12.58 42.5472V5.68624C12.58 4.81624 13.277 4.11724 14.146 4.11724C19.122 4.11724 23.986 4.05724 28.906 4.07224ZM20.367 5.05524C20.3385 5.05749 20.3119 5.07036 20.2925 5.09128C20.273 5.11221 20.2622 5.13967 20.262 5.16824C20.262 5.19794 20.2738 5.22643 20.2948 5.24743C20.3158 5.26844 20.3443 5.28024 20.374 5.28024C20.4037 5.28024 20.4322 5.26844 20.4532 5.24743C20.4742 5.22643 20.486 5.19794 20.486 5.16824C20.4859 5.15292 20.4827 5.13779 20.4766 5.12374C20.4705 5.10969 20.4616 5.09701 20.4505 5.08646C20.4394 5.07591 20.4263 5.06771 20.4119 5.06235C20.3976 5.05698 20.3823 5.05457 20.367 5.05524ZM27.617 5.05524C27.5885 5.05749 27.5619 5.07036 27.5425 5.09128C27.523 5.11221 27.5122 5.13967 27.512 5.16824C27.512 5.19794 27.5238 5.22643 27.5448 5.24743C27.5658 5.26844 27.5943 5.28024 27.624 5.28024C27.6537 5.28024 27.6822 5.26844 27.7032 5.24743C27.7242 5.22643 27.736 5.19794 27.736 5.16824C27.7359 5.15292 27.7327 5.13779 27.7266 5.12374C27.7205 5.10969 27.7116 5.09701 27.7005 5.08646C27.6894 5.07591 27.6763 5.06771 27.6619 5.06235C27.6476 5.05698 27.6323 5.05457 27.617 5.05524ZM20.367 5.61724C20.3523 5.61816 20.3379 5.62196 20.3247 5.62844C20.3114 5.63492 20.2996 5.64394 20.2899 5.65499C20.2801 5.66604 20.2726 5.6789 20.2678 5.69284C20.2631 5.70679 20.2611 5.72153 20.262 5.73624C20.2629 5.75095 20.2667 5.76533 20.2732 5.77857C20.2797 5.7918 20.2887 5.80363 20.2998 5.81338C20.3108 5.82313 20.3237 5.83061 20.3376 5.83539C20.3515 5.84017 20.3663 5.84216 20.381 5.84124C20.4107 5.83938 20.4385 5.8258 20.4581 5.80348C20.4778 5.78117 20.4879 5.75194 20.486 5.72224C20.4841 5.69253 20.4706 5.66478 20.4482 5.64509C20.4259 5.6254 20.3967 5.61538 20.367 5.61724ZM27.617 5.61724C27.6023 5.61816 27.5879 5.62196 27.5747 5.62844C27.5614 5.63492 27.5496 5.64394 27.5399 5.65499C27.5301 5.66604 27.5226 5.6789 27.5178 5.69284C27.5131 5.70679 27.5111 5.72153 27.512 5.73624C27.5129 5.75095 27.5167 5.76533 27.5232 5.77857C27.5297 5.7918 27.5387 5.80363 27.5498 5.81338C27.5608 5.82313 27.5737 5.83061 27.5876 5.83539C27.6015 5.84017 27.6163 5.84216 27.631 5.84124C27.6607 5.83938 27.6885 5.8258 27.7081 5.80348C27.7278 5.78117 27.7379 5.75194 27.736 5.72224C27.7341 5.69253 27.7206 5.66478 27.6982 5.64509C27.6759 5.6254 27.6467 5.61538 27.617 5.61724ZM20.357 6.18024C20.3358 6.18349 20.316 6.19274 20.3 6.20689C20.2839 6.22104 20.2722 6.2395 20.2663 6.26009C20.2604 6.28067 20.2606 6.30252 20.2667 6.32303C20.2728 6.34355 20.2847 6.36187 20.3009 6.37584C20.3172 6.3898 20.3371 6.39882 20.3583 6.40183C20.3795 6.40484 20.4011 6.4017 20.4206 6.3928C20.44 6.3839 20.4566 6.3696 20.4682 6.3516C20.4797 6.3336 20.4859 6.31265 20.486 6.29124C20.486 6.23124 20.436 6.18124 20.375 6.18024H20.357ZM27.607 6.18024C27.5858 6.18349 27.566 6.19274 27.55 6.20689C27.5339 6.22104 27.5222 6.2395 27.5163 6.26009C27.5104 6.28067 27.5106 6.30252 27.5167 6.32303C27.5228 6.34355 27.5347 6.36187 27.5509 6.37584C27.5672 6.3898 27.5871 6.39882 27.6083 6.40183C27.6295 6.40484 27.6511 6.4017 27.6706 6.3928C27.69 6.3839 27.7066 6.3696 27.7182 6.3516C27.7297 6.3336 27.7359 6.31265 27.736 6.29124C27.736 6.23124 27.686 6.18124 27.625 6.18024H27.607ZM20.377 6.74024C20.362 6.74037 20.3472 6.74345 20.3335 6.7493C20.3197 6.75515 20.3072 6.76366 20.2967 6.77433C20.2862 6.78501 20.2779 6.79765 20.2723 6.81154C20.2667 6.82542 20.2639 6.84027 20.264 6.85524C20.264 6.88508 20.2759 6.91369 20.297 6.93479C20.318 6.95589 20.3467 6.96774 20.3765 6.96774C20.4063 6.96774 20.435 6.95589 20.456 6.93479C20.4771 6.91369 20.489 6.88508 20.489 6.85524C20.4893 6.82517 20.4776 6.79622 20.4567 6.77468C20.4357 6.75314 20.4071 6.74076 20.377 6.74024ZM27.627 6.74024C27.612 6.74037 27.5972 6.74345 27.5835 6.7493C27.5697 6.75515 27.5572 6.76366 27.5467 6.77433C27.5362 6.78501 27.5279 6.79765 27.5223 6.81154C27.5167 6.82542 27.5139 6.84027 27.514 6.85524C27.514 6.88508 27.5259 6.91369 27.547 6.93479C27.568 6.95589 27.5967 6.96774 27.6265 6.96774C27.6563 6.96774 27.685 6.95589 27.706 6.93479C27.7271 6.91369 27.739 6.88508 27.739 6.85524C27.7393 6.82517 27.7276 6.79622 27.7067 6.77468C27.6857 6.75314 27.6571 6.74076 27.627 6.74024ZM16.723 7.24024C16.2987 7.24024 15.8917 7.40881 15.5916 7.70887C15.2916 8.00893 15.123 8.41589 15.123 8.84024C15.123 9.26458 15.2916 9.67155 15.5916 9.97161C15.8917 10.2717 16.2987 10.4402 16.723 10.4402C17.1473 10.4402 17.5543 10.2717 17.8544 9.97161C18.1544 9.67155 18.323 9.26458 18.323 8.84024C18.323 8.41589 18.1544 8.00893 17.8544 7.70887C17.5543 7.40881 17.1473 7.24024 16.723 7.24024ZM31.275 7.24024C31.0616 7.2349 30.8493 7.27233 30.6505 7.35031C30.4518 7.42829 30.2707 7.54526 30.1179 7.69431C29.965 7.84337 29.8436 8.0215 29.7607 8.21822C29.6777 8.41493 29.635 8.62626 29.635 8.83974C29.635 9.05322 29.6777 9.26454 29.7607 9.46126C29.8436 9.65798 29.965 9.83611 30.1179 9.98516C30.2707 10.1342 30.4518 10.2512 30.6505 10.3292C30.8493 10.4072 31.0616 10.4446 31.275 10.4392C31.6923 10.4288 32.089 10.2557 32.3804 9.95688C32.6719 9.65805 32.835 9.25716 32.835 8.83974C32.835 8.42232 32.6719 8.02143 32.3804 7.7226C32.089 7.42377 31.6923 7.25067 31.275 7.24024ZM20.367 7.30324C20.3523 7.30416 20.3379 7.30796 20.3247 7.31444C20.3114 7.32092 20.2996 7.32994 20.2899 7.34099C20.2801 7.35204 20.2726 7.3649 20.2678 7.37885C20.2631 7.39279 20.2611 7.40753 20.262 7.42224C20.2629 7.43695 20.2667 7.45133 20.2732 7.46457C20.2797 7.4778 20.2887 7.48963 20.2998 7.49938C20.3108 7.50913 20.3237 7.51661 20.3376 7.52139C20.3515 7.52617 20.3663 7.52816 20.381 7.52724C20.4107 7.52538 20.4385 7.5118 20.4581 7.48948C20.4778 7.46717 20.4879 7.43794 20.486 7.40824C20.4841 7.37853 20.4706 7.35078 20.4482 7.33109C20.4259 7.3114 20.3967 7.30138 20.367 7.30324ZM27.617 7.30324C27.6023 7.30416 27.5879 7.30796 27.5747 7.31444C27.5614 7.32092 27.5496 7.32994 27.5399 7.34099C27.5301 7.35204 27.5226 7.3649 27.5178 7.37885C27.5131 7.39279 27.5111 7.40753 27.512 7.42224C27.5129 7.43695 27.5167 7.45133 27.5232 7.46457C27.5297 7.4778 27.5387 7.48963 27.5498 7.49938C27.5608 7.50913 27.5737 7.51661 27.5876 7.52139C27.6015 7.52617 27.6163 7.52816 27.631 7.52724C27.6607 7.52538 27.6885 7.5118 27.7081 7.48948C27.7278 7.46717 27.7379 7.43794 27.736 7.40824C27.7341 7.37853 27.7206 7.35078 27.6982 7.33109C27.6759 7.3114 27.6467 7.30138 27.617 7.30324ZM20.367 7.86324C20.3523 7.86416 20.3379 7.86796 20.3247 7.87444C20.3114 7.88092 20.2996 7.88994 20.2899 7.90099C20.2801 7.91204 20.2726 7.9249 20.2678 7.93885C20.2631 7.95279 20.2611 7.96753 20.262 7.98224C20.2629 7.99695 20.2667 8.01133 20.2732 8.02457C20.2797 8.0378 20.2887 8.04963 20.2998 8.05938C20.3108 8.06913 20.3237 8.07661 20.3376 8.08139C20.3515 8.08617 20.3663 8.08816 20.381 8.08724C20.4107 8.08538 20.4385 8.0718 20.4581 8.04948C20.4778 8.02717 20.4879 7.99794 20.486 7.96824C20.4841 7.93853 20.4706 7.91078 20.4482 7.89109C20.4259 7.8714 20.3967 7.86138 20.367 7.86324ZM27.617 7.86324C27.6023 7.86416 27.5879 7.86796 27.5747 7.87444C27.5614 7.88092 27.5496 7.88994 27.5399 7.90099C27.5301 7.91204 27.5226 7.9249 27.5178 7.93885C27.5131 7.95279 27.5111 7.96753 27.512 7.98224C27.5129 7.99695 27.5167 8.01133 27.5232 8.02457C27.5297 8.0378 27.5387 8.04963 27.5498 8.05938C27.5608 8.06913 27.5737 8.07661 27.5876 8.08139C27.6015 8.08617 27.6163 8.08816 27.631 8.08724C27.6607 8.08538 27.6885 8.0718 27.7081 8.04948C27.7278 8.02717 27.7379 7.99794 27.736 7.96824C27.7341 7.93853 27.7206 7.91078 27.6982 7.89109C27.6759 7.8714 27.6467 7.86138 27.617 7.86324ZM20.367 8.42624C20.3373 8.42809 20.3095 8.44168 20.2899 8.46399C20.2801 8.47504 20.2726 8.48791 20.2678 8.50185C20.2631 8.51579 20.2611 8.53053 20.262 8.54524C20.2629 8.55995 20.2667 8.57433 20.2732 8.58757C20.2797 8.6008 20.2887 8.61263 20.2998 8.62238C20.3221 8.64208 20.3513 8.65209 20.381 8.65024C20.4107 8.64838 20.4385 8.6348 20.4581 8.61248C20.4778 8.59017 20.4879 8.56094 20.486 8.53124C20.4841 8.50153 20.4706 8.47378 20.4482 8.45409C20.4259 8.4344 20.3967 8.42438 20.367 8.42624ZM27.617 8.42624C27.5873 8.42809 27.5595 8.44168 27.5399 8.46399C27.5202 8.48631 27.5101 8.51553 27.512 8.54524C27.5139 8.57494 27.5274 8.60269 27.5498 8.62238C27.5721 8.64208 27.6013 8.65209 27.631 8.65024C27.6457 8.64932 27.6601 8.64551 27.6733 8.63903C27.6866 8.63256 27.6984 8.62354 27.7081 8.61248C27.7179 8.60143 27.7254 8.58857 27.7302 8.57463C27.7349 8.56069 27.7369 8.54595 27.736 8.53124C27.7351 8.51653 27.7313 8.50215 27.7248 8.48891C27.7183 8.47567 27.7093 8.46384 27.6982 8.45409C27.6872 8.44434 27.6743 8.43686 27.6604 8.43209C27.6465 8.42731 27.6317 8.42532 27.617 8.42624ZM20.367 8.98824C20.3386 8.99025 20.312 9.00291 20.2926 9.02367C20.2731 9.04443 20.2622 9.07178 20.262 9.10024C20.262 9.16224 20.312 9.21524 20.375 9.21524C20.4049 9.21445 20.4333 9.20196 20.454 9.18045C20.4748 9.15894 20.4863 9.13013 20.486 9.10024C20.486 9.08492 20.4829 9.06976 20.4769 9.0557C20.4708 9.04163 20.4619 9.02896 20.4508 9.01846C20.4396 9.00796 20.4264 8.99987 20.412 8.99467C20.3976 8.98947 20.3823 8.98728 20.367 8.98824ZM27.617 8.98824C27.5886 8.99025 27.562 9.00291 27.5426 9.02367C27.5231 9.04443 27.5122 9.07178 27.512 9.10024C27.512 9.16224 27.562 9.21524 27.625 9.21524C27.6549 9.21445 27.6833 9.20196 27.704 9.18045C27.7248 9.15894 27.7363 9.13013 27.736 9.10024C27.736 9.08492 27.7329 9.06976 27.7269 9.0557C27.7208 9.04163 27.7119 9.02896 27.7008 9.01846C27.6896 9.00796 27.6764 8.99987 27.662 8.99467C27.6476 8.98947 27.6323 8.98728 27.617 8.98824ZM24 9.06624C23.5757 9.06624 23.1687 9.23481 22.8686 9.53487C22.5686 9.83493 22.4 10.2419 22.4 10.6662C22.4 11.0906 22.5686 11.4976 22.8686 11.7976C23.1687 12.0977 23.5757 12.2662 24 12.2662C24.4243 12.2662 24.8313 12.0977 25.1314 11.7976C25.4314 11.4976 25.6 11.0906 25.6 10.6662C25.6 10.2419 25.4314 9.83493 25.1314 9.53487C24.8313 9.23481 24.4243 9.06624 24 9.06624ZM20.367 9.55124C20.3385 9.55349 20.3119 9.56636 20.2925 9.58728C20.273 9.60821 20.2622 9.63567 20.262 9.66424C20.2599 9.6802 20.2612 9.69644 20.2658 9.71186C20.2705 9.72728 20.2784 9.74153 20.289 9.75365C20.2996 9.76577 20.3126 9.77548 20.3273 9.78214C20.342 9.7888 20.3579 9.79224 20.374 9.79224C20.3901 9.79224 20.406 9.7888 20.4207 9.78214C20.4354 9.77548 20.4484 9.76577 20.459 9.75365C20.4696 9.74153 20.4775 9.72728 20.4822 9.71186C20.4868 9.69644 20.4881 9.6802 20.486 9.66424C20.4859 9.64892 20.4827 9.63379 20.4766 9.61974C20.4705 9.60569 20.4616 9.59301 20.4505 9.58246C20.4394 9.57191 20.4263 9.56371 20.4119 9.55835C20.3976 9.55298 20.3823 9.55057 20.367 9.55124ZM27.617 9.55124C27.5885 9.55349 27.5619 9.56636 27.5425 9.58728C27.523 9.60821 27.5122 9.63567 27.512 9.66424C27.5099 9.6802 27.5112 9.69644 27.5158 9.71186C27.5205 9.72728 27.5284 9.74153 27.539 9.75365C27.5496 9.76577 27.5626 9.77548 27.5773 9.78214C27.592 9.7888 27.6079 9.79224 27.624 9.79224C27.6401 9.79224 27.656 9.7888 27.6707 9.78214C27.6854 9.77548 27.6984 9.76577 27.709 9.75365C27.7196 9.74153 27.7275 9.72728 27.7322 9.71186C27.7368 9.69644 27.7381 9.6802 27.736 9.66424C27.7359 9.64892 27.7327 9.63379 27.7266 9.61974C27.7205 9.60569 27.7116 9.59301 27.7005 9.58246C27.6894 9.57191 27.6763 9.56371 27.6619 9.55835C27.6476 9.55298 27.6323 9.55057 27.617 9.55124ZM20.355 10.1132C20.301 10.1212 20.261 10.1732 20.262 10.2292C20.2599 10.2452 20.2612 10.2614 20.2658 10.2769C20.2705 10.2923 20.2784 10.3065 20.289 10.3186C20.2996 10.3308 20.3126 10.3405 20.3273 10.3471C20.342 10.3538 20.3579 10.3572 20.374 10.3572C20.3901 10.3572 20.406 10.3538 20.4207 10.3471C20.4354 10.3405 20.4484 10.3308 20.459 10.3186C20.4696 10.3065 20.4775 10.2923 20.4822 10.2769C20.4868 10.2614 20.4881 10.2452 20.486 10.2292C20.4861 10.213 20.4827 10.197 20.4762 10.1822C20.4697 10.1673 20.4602 10.154 20.4482 10.1431C20.4363 10.1321 20.4221 10.1238 20.4068 10.1187C20.3914 10.1136 20.3751 10.1117 20.359 10.1132H20.355ZM27.605 10.1132C27.551 10.1212 27.511 10.1732 27.512 10.2292C27.5099 10.2452 27.5112 10.2614 27.5158 10.2769C27.5205 10.2923 27.5284 10.3065 27.539 10.3186C27.5496 10.3308 27.5626 10.3405 27.5773 10.3471C27.592 10.3538 27.6079 10.3572 27.624 10.3572C27.6401 10.3572 27.656 10.3538 27.6707 10.3471C27.6854 10.3405 27.6984 10.3308 27.709 10.3186C27.7196 10.3065 27.7275 10.2923 27.7322 10.2769C27.7368 10.2614 27.7381 10.2452 27.736 10.2292C27.7361 10.213 27.7327 10.197 27.7262 10.1822C27.7197 10.1673 27.7102 10.154 27.6982 10.1431C27.6863 10.1321 27.6721 10.1238 27.6568 10.1187C27.6414 10.1136 27.6251 10.1117 27.609 10.1132H27.605ZM20.377 10.6732C20.3619 10.6734 20.3471 10.6765 20.3332 10.6824C20.3194 10.6883 20.3068 10.6969 20.2963 10.7077C20.2858 10.7185 20.2776 10.7312 20.272 10.7452C20.2665 10.7592 20.2637 10.7742 20.264 10.7892C20.264 10.8512 20.314 10.8992 20.377 10.8992C20.3915 10.8994 20.4059 10.8966 20.4194 10.8912C20.4329 10.8857 20.4451 10.8776 20.4554 10.8674C20.4657 10.8571 20.4739 10.845 20.4795 10.8316C20.4851 10.8182 20.488 10.8038 20.488 10.7892C20.4883 10.7593 20.4768 10.7305 20.456 10.709C20.4353 10.6875 20.4069 10.675 20.377 10.6742V10.6732ZM27.627 10.6732C27.6119 10.6734 27.5971 10.6765 27.5832 10.6824C27.5694 10.6883 27.5568 10.6969 27.5463 10.7077C27.5358 10.7185 27.5276 10.7312 27.522 10.7452C27.5165 10.7592 27.5137 10.7742 27.514 10.7892C27.514 10.8512 27.564 10.8992 27.627 10.8992C27.6415 10.8994 27.6559 10.8966 27.6694 10.8912C27.6829 10.8857 27.6951 10.8776 27.7054 10.8674C27.7157 10.8571 27.7239 10.845 27.7295 10.8316C27.7351 10.8182 27.738 10.8038 27.738 10.7892C27.7383 10.7593 27.7268 10.7305 27.706 10.709C27.6853 10.6875 27.6569 10.675 27.627 10.6742V10.6732ZM16.723 11.0762C16.5129 11.0762 16.3048 11.1176 16.1107 11.198C15.9166 11.2784 15.7402 11.3963 15.5916 11.5449C15.4431 11.6934 15.3252 11.8698 15.2448 12.0639C15.1644 12.2581 15.123 12.4661 15.123 12.6762C15.123 12.8864 15.1644 13.0944 15.2448 13.2885C15.3252 13.4827 15.4431 13.659 15.5916 13.8076C15.7402 13.9562 15.9166 14.074 16.1107 14.1544C16.3048 14.2349 16.5129 14.2762 16.723 14.2762C17.1473 14.2762 17.5543 14.1077 17.8544 13.8076C18.1544 13.5076 18.323 13.1006 18.323 12.6762C18.323 12.2519 18.1544 11.8449 17.8544 11.5449C17.5543 11.2448 17.1473 11.0762 16.723 11.0762ZM31.275 11.0762C31.0616 11.0709 30.8493 11.1083 30.6505 11.1863C30.4518 11.2643 30.2707 11.3813 30.1179 11.5303C29.965 11.6794 29.8436 11.8575 29.7607 12.0542C29.6777 12.2509 29.635 12.4623 29.635 12.6757C29.635 12.8892 29.6777 13.1005 29.7607 13.2973C29.8436 13.494 29.965 13.6721 30.1179 13.8212C30.2707 13.9702 30.4518 14.0872 30.6505 14.1652C30.8493 14.2431 31.0616 14.2806 31.275 14.2752C31.6923 14.2648 32.089 14.0917 32.3804 13.7929C32.6719 13.4941 32.835 13.0932 32.835 12.6757C32.835 12.2583 32.6719 11.8574 32.3804 11.5586C32.089 11.2598 31.6923 11.0867 31.275 11.0762ZM20.377 11.2382C20.3613 11.2368 20.3455 11.2386 20.3306 11.2436C20.3157 11.2485 20.302 11.2566 20.2903 11.2672C20.2787 11.2778 20.2694 11.2907 20.263 11.3051C20.2567 11.3194 20.2534 11.335 20.2534 11.3507C20.2534 11.3665 20.2567 11.382 20.263 11.3964C20.2694 11.4108 20.2787 11.4237 20.2903 11.4343C20.302 11.4449 20.3157 11.4529 20.3306 11.4579C20.3455 11.4629 20.3613 11.4647 20.377 11.4632C20.4068 11.4632 20.4355 11.4514 20.4565 11.4303C20.4776 11.4092 20.4895 11.3806 20.4895 11.3507C20.4895 11.3209 20.4776 11.2923 20.4565 11.2712C20.4355 11.2501 20.4068 11.2382 20.377 11.2382ZM27.627 11.2382C27.6113 11.2368 27.5955 11.2386 27.5806 11.2436C27.5657 11.2485 27.552 11.2566 27.5403 11.2672C27.5287 11.2778 27.5194 11.2907 27.513 11.3051C27.5067 11.3194 27.5034 11.335 27.5034 11.3507C27.5034 11.3665 27.5067 11.382 27.513 11.3964C27.5194 11.4108 27.5287 11.4237 27.5403 11.4343C27.552 11.4449 27.5657 11.4529 27.5806 11.4579C27.5955 11.4629 27.6113 11.4647 27.627 11.4632C27.6568 11.4632 27.6855 11.4514 27.7065 11.4303C27.7276 11.4092 27.7395 11.3806 27.7395 11.3507C27.7395 11.3209 27.7276 11.2923 27.7065 11.2712C27.6855 11.2501 27.6568 11.2382 27.627 11.2382ZM20.367 11.8012C20.3396 11.8057 20.3149 11.8201 20.2973 11.8415C20.2798 11.8629 20.2706 11.8901 20.2716 11.9178C20.2726 11.9455 20.2836 11.9719 20.3026 11.992C20.3217 12.0122 20.3474 12.0247 20.375 12.0272C20.436 12.0272 20.485 11.9752 20.486 11.9142C20.4862 11.8988 20.4832 11.8836 20.4772 11.8694C20.4712 11.8552 20.4623 11.8424 20.4511 11.8318C20.44 11.8212 20.4267 11.813 20.4123 11.8078C20.3978 11.8025 20.3824 11.8003 20.367 11.8012ZM27.617 11.8012C27.5896 11.8057 27.5649 11.8201 27.5473 11.8415C27.5298 11.8629 27.5206 11.8901 27.5216 11.9178C27.5226 11.9455 27.5336 11.9719 27.5526 11.992C27.5717 12.0122 27.5974 12.0247 27.625 12.0272C27.686 12.0272 27.735 11.9752 27.736 11.9142C27.7362 11.8988 27.7332 11.8836 27.7272 11.8694C27.7212 11.8552 27.7123 11.8424 27.7011 11.8318C27.69 11.8212 27.6767 11.813 27.6623 11.8078C27.6478 11.8025 27.6324 11.8003 27.617 11.8012ZM20.367 12.3632C20.3396 12.3677 20.3149 12.3821 20.2973 12.4035C20.2798 12.4249 20.2706 12.4521 20.2716 12.4798C20.2726 12.5075 20.2836 12.5339 20.3026 12.554C20.3217 12.5742 20.3474 12.5867 20.375 12.5892C20.436 12.5892 20.485 12.5382 20.486 12.4772C20.4863 12.4618 20.4834 12.4464 20.4775 12.4321C20.4715 12.4178 20.4627 12.4049 20.4515 12.3941C20.4403 12.3834 20.427 12.3751 20.4125 12.3698C20.3979 12.3645 20.3825 12.3623 20.367 12.3632ZM27.617 12.3632C27.5896 12.3677 27.5649 12.3821 27.5473 12.4035C27.5298 12.4249 27.5206 12.4521 27.5216 12.4798C27.5226 12.5075 27.5336 12.5339 27.5526 12.554C27.5717 12.5742 27.5974 12.5867 27.625 12.5892C27.686 12.5892 27.735 12.5382 27.736 12.4772C27.7363 12.4618 27.7334 12.4464 27.7275 12.4321C27.7215 12.4178 27.7127 12.4049 27.7015 12.3941C27.6903 12.3834 27.677 12.3751 27.6625 12.3698C27.6479 12.3645 27.6325 12.3623 27.617 12.3632ZM24 12.9042C23.5757 12.9042 23.1687 13.0728 22.8686 13.3729C22.5686 13.6729 22.4 14.0799 22.4 14.5042C22.4 14.9286 22.5686 15.3356 22.8686 15.6356C23.1687 15.9357 23.5757 16.1042 24 16.1042C24.4243 16.1042 24.8313 15.9357 25.1314 15.6356C25.4314 15.3356 25.6 14.9286 25.6 14.5042C25.6 14.0799 25.4314 13.6729 25.1314 13.3729C24.8313 13.0728 24.4243 12.9042 24 12.9042ZM20.367 12.9262C20.3523 12.9272 20.3379 12.931 20.3247 12.9374C20.3114 12.9439 20.2996 12.9529 20.2899 12.964C20.2801 12.975 20.2726 12.9879 20.2678 13.0018C20.2631 13.0158 20.2611 13.0305 20.262 13.0452C20.2629 13.0599 20.2667 13.0743 20.2732 13.0876C20.2797 13.1008 20.2887 13.1126 20.2998 13.1224C20.3108 13.1321 20.3237 13.1396 20.3376 13.1444C20.3515 13.1492 20.3663 13.1512 20.381 13.1502C20.4107 13.1484 20.4385 13.1348 20.4581 13.1125C20.4778 13.0902 20.4879 13.0609 20.486 13.0312C20.4841 13.0015 20.4706 12.9738 20.4482 12.9541C20.4259 12.9344 20.3967 12.9244 20.367 12.9262ZM27.617 12.9262C27.6023 12.9272 27.5879 12.931 27.5747 12.9374C27.5614 12.9439 27.5496 12.9529 27.5399 12.964C27.5301 12.975 27.5226 12.9879 27.5178 13.0018C27.5131 13.0158 27.5111 13.0305 27.512 13.0452C27.5129 13.0599 27.5167 13.0743 27.5232 13.0876C27.5297 13.1008 27.5387 13.1126 27.5498 13.1224C27.5608 13.1321 27.5737 13.1396 27.5876 13.1444C27.6015 13.1492 27.6163 13.1512 27.631 13.1502C27.6607 13.1484 27.6885 13.1348 27.7081 13.1125C27.7278 13.0902 27.7379 13.0609 27.736 13.0312C27.7341 13.0015 27.7206 12.9738 27.6982 12.9541C27.6759 12.9344 27.6467 12.9244 27.617 12.9262ZM20.367 13.4882C20.3522 13.4892 20.3378 13.493 20.3245 13.4995C20.3112 13.506 20.2993 13.515 20.2895 13.5261C20.2797 13.5372 20.2722 13.5502 20.2674 13.5642C20.2626 13.5782 20.2606 13.593 20.2615 13.6077C20.2624 13.6225 20.2662 13.637 20.2727 13.6503C20.2792 13.6636 20.2883 13.6754 20.2994 13.6852C20.3105 13.695 20.3234 13.7025 20.3374 13.7074C20.3514 13.7122 20.3662 13.7142 20.381 13.7132C20.4108 13.7114 20.4387 13.6977 20.4585 13.6753C20.4783 13.6529 20.4884 13.6236 20.4865 13.5937C20.4846 13.5639 20.471 13.536 20.4486 13.5162C20.4262 13.4965 20.3968 13.4864 20.367 13.4882ZM27.617 13.4882C27.5872 13.4901 27.5593 13.5037 27.5395 13.5261C27.5297 13.5372 27.5222 13.5502 27.5174 13.5642C27.5126 13.5782 27.5106 13.593 27.5115 13.6077C27.5124 13.6225 27.5162 13.637 27.5227 13.6503C27.5292 13.6636 27.5383 13.6754 27.5494 13.6852C27.5718 13.705 27.6012 13.7151 27.631 13.7132C27.6608 13.7114 27.6887 13.6977 27.7085 13.6753C27.7283 13.6529 27.7384 13.6236 27.7365 13.5937C27.7346 13.5639 27.721 13.536 27.6986 13.5162C27.6762 13.4965 27.6468 13.4864 27.617 13.4882ZM20.367 14.0512C20.3523 14.0522 20.3379 14.056 20.3247 14.0624C20.3114 14.0689 20.2996 14.0779 20.2899 14.089C20.2801 14.1 20.2726 14.1129 20.2678 14.1268C20.2631 14.1408 20.2611 14.1555 20.262 14.1702C20.2629 14.1849 20.2667 14.1993 20.2732 14.2126C20.2797 14.2258 20.2887 14.2376 20.2998 14.2474C20.3108 14.2571 20.3237 14.2646 20.3376 14.2694C20.3515 14.2742 20.3663 14.2762 20.381 14.2752C20.4107 14.2734 20.4385 14.2598 20.4581 14.2375C20.4778 14.2152 20.4879 14.1859 20.486 14.1562C20.4841 14.1265 20.4706 14.0988 20.4482 14.0791C20.4259 14.0594 20.3967 14.0494 20.367 14.0512ZM27.617 14.0512C27.6023 14.0522 27.5879 14.056 27.5747 14.0624C27.5614 14.0689 27.5496 14.0779 27.5399 14.089C27.5301 14.1 27.5226 14.1129 27.5178 14.1268C27.5131 14.1408 27.5111 14.1555 27.512 14.1702C27.5129 14.1849 27.5167 14.1993 27.5232 14.2126C27.5297 14.2258 27.5387 14.2376 27.5498 14.2474C27.5608 14.2571 27.5737 14.2646 27.5876 14.2694C27.6015 14.2742 27.6163 14.2762 27.631 14.2752C27.6607 14.2734 27.6885 14.2598 27.7081 14.2375C27.7278 14.2152 27.7379 14.1859 27.736 14.1562C27.7341 14.1265 27.7206 14.0988 27.6982 14.0791C27.6759 14.0594 27.6467 14.0494 27.617 14.0512ZM20.355 14.6132C20.3286 14.6176 20.3047 14.6313 20.2876 14.6519C20.2705 14.6724 20.2614 14.6985 20.262 14.7252C20.262 14.7483 20.2691 14.7707 20.2822 14.7896C20.2954 14.8085 20.314 14.823 20.3356 14.831C20.3572 14.839 20.3807 14.8403 20.403 14.8346C20.4253 14.8289 20.4453 14.8165 20.4604 14.7991C20.4755 14.7817 20.4849 14.7601 20.4874 14.7372C20.4898 14.7143 20.4852 14.6912 20.4742 14.671C20.4632 14.6508 20.4462 14.6344 20.4256 14.6241C20.405 14.6138 20.3818 14.61 20.359 14.6132H20.355ZM27.605 14.6132C27.5786 14.6176 27.5547 14.6313 27.5376 14.6519C27.5205 14.6724 27.5114 14.6985 27.512 14.7252C27.512 14.7483 27.5191 14.7707 27.5322 14.7896C27.5454 14.8085 27.564 14.823 27.5856 14.831C27.6072 14.839 27.6307 14.8403 27.653 14.8346C27.6753 14.8289 27.6953 14.8165 27.7104 14.7991C27.7255 14.7817 27.7349 14.7601 27.7374 14.7372C27.7398 14.7143 27.7352 14.6912 27.7242 14.671C27.7132 14.6508 27.6962 14.6344 27.6756 14.6241C27.655 14.6138 27.6318 14.61 27.609 14.6132H27.605ZM16.723 14.9142C16.5096 14.9089 16.2973 14.9463 16.0985 15.0243C15.8998 15.1023 15.7187 15.2193 15.5659 15.3683C15.413 15.5174 15.2916 15.6955 15.2087 15.8922C15.1257 16.0889 15.083 16.3003 15.083 16.5137C15.083 16.7272 15.1257 16.9385 15.2087 17.1353C15.2916 17.332 15.413 17.5101 15.5659 17.6592C15.7187 17.8082 15.8998 17.9252 16.0985 18.0032C16.2973 18.0812 16.5096 18.1186 16.723 18.1132C17.1403 18.1028 17.537 17.9297 17.8284 17.6309C18.1199 17.3321 18.283 16.9312 18.283 16.5137C18.283 16.0963 18.1199 15.6954 17.8284 15.3966C17.537 15.0978 17.1403 14.9247 16.723 14.9142ZM31.275 14.9142C31.0616 14.9089 30.8493 14.9463 30.6505 15.0243C30.4518 15.1023 30.2707 15.2193 30.1179 15.3683C29.965 15.5174 29.8436 15.6955 29.7607 15.8922C29.6777 16.0889 29.635 16.3003 29.635 16.5137C29.635 16.7272 29.6777 16.9385 29.7607 17.1353C29.8436 17.332 29.965 17.5101 30.1179 17.6592C30.2707 17.8082 30.4518 17.9252 30.6505 18.0032C30.8493 18.0812 31.0616 18.1186 31.275 18.1132C31.6923 18.1028 32.089 17.9297 32.3804 17.6309C32.6719 17.3321 32.835 16.9312 32.835 16.5137C32.835 16.0963 32.6719 15.6954 32.3804 15.3966C32.089 15.0978 31.6923 14.9247 31.275 14.9142ZM20.355 15.1762C20.3339 15.1797 20.3143 15.1891 20.2983 15.2033C20.2824 15.2176 20.2709 15.236 20.2651 15.2566C20.2594 15.2772 20.2596 15.299 20.2659 15.3194C20.2721 15.3399 20.284 15.3581 20.3003 15.372C20.3165 15.3858 20.3364 15.3948 20.3576 15.3977C20.3787 15.4007 20.4003 15.3975 20.4197 15.3886C20.4391 15.3797 20.4556 15.3654 20.4671 15.3475C20.4787 15.3295 20.4849 15.3086 20.485 15.2872C20.485 15.2272 20.436 15.1772 20.375 15.1762H20.355ZM27.605 15.1762C27.5839 15.1797 27.5643 15.1891 27.5483 15.2033C27.5324 15.2176 27.5209 15.236 27.5151 15.2566C27.5094 15.2772 27.5096 15.299 27.5159 15.3194C27.5221 15.3399 27.534 15.3581 27.5503 15.372C27.5665 15.3858 27.5864 15.3948 27.6076 15.3977C27.6287 15.4007 27.6503 15.3975 27.6697 15.3886C27.6891 15.3797 27.7056 15.3654 27.7171 15.3475C27.7287 15.3295 27.7349 15.3086 27.735 15.2872C27.735 15.2272 27.686 15.1772 27.625 15.1762H27.605ZM20.377 15.7362C20.3613 15.7348 20.3455 15.7366 20.3306 15.7416C20.3157 15.7465 20.302 15.7546 20.2903 15.7652C20.2787 15.7758 20.2694 15.7887 20.263 15.8031C20.2567 15.8174 20.2534 15.833 20.2534 15.8487C20.2534 15.8645 20.2567 15.88 20.263 15.8944C20.2694 15.9088 20.2787 15.9217 20.2903 15.9323C20.302 15.9429 20.3157 15.9509 20.3306 15.9559C20.3455 15.9609 20.3613 15.9627 20.377 15.9612C20.4068 15.9612 20.4355 15.9494 20.4565 15.9283C20.4776 15.9072 20.4895 15.8786 20.4895 15.8487C20.4895 15.8189 20.4776 15.7903 20.4565 15.7692C20.4355 15.7481 20.4068 15.7362 20.377 15.7362ZM27.627 15.7362C27.6113 15.7348 27.5955 15.7366 27.5806 15.7416C27.5657 15.7465 27.552 15.7546 27.5403 15.7652C27.5287 15.7758 27.5194 15.7887 27.513 15.8031C27.5067 15.8174 27.5034 15.833 27.5034 15.8487C27.5034 15.8645 27.5067 15.88 27.513 15.8944C27.5194 15.9088 27.5287 15.9217 27.5403 15.9323C27.552 15.9429 27.5657 15.9509 27.5806 15.9559C27.5955 15.9609 27.6113 15.9627 27.627 15.9612C27.6568 15.9612 27.6855 15.9494 27.7065 15.9283C27.7276 15.9072 27.7395 15.8786 27.7395 15.8487C27.7395 15.8189 27.7276 15.7903 27.7065 15.7692C27.6855 15.7481 27.6568 15.7362 27.627 15.7362ZM20.367 16.2992C20.3384 16.301 20.3115 16.3138 20.2919 16.3348C20.2724 16.3558 20.2617 16.3835 20.262 16.4122C20.262 16.4742 20.312 16.5252 20.375 16.5232C20.4047 16.5232 20.4332 16.5114 20.4542 16.4904C20.4752 16.4694 20.487 16.4409 20.487 16.4112C20.487 16.3815 20.4752 16.353 20.4542 16.332C20.4332 16.311 20.4047 16.2992 20.375 16.2992H20.367ZM27.617 16.2992C27.5884 16.301 27.5615 16.3138 27.5419 16.3348C27.5224 16.3558 27.5117 16.3835 27.512 16.4122C27.512 16.4742 27.562 16.5252 27.625 16.5232C27.6547 16.5232 27.6832 16.5114 27.7042 16.4904C27.7252 16.4694 27.737 16.4409 27.737 16.4112C27.737 16.3815 27.7252 16.353 27.7042 16.332C27.6832 16.311 27.6547 16.2992 27.625 16.2992H27.617ZM24 16.7402C23.5757 16.7402 23.1687 16.9088 22.8686 17.2089C22.5686 17.5089 22.4 17.9159 22.4 18.3402C22.4 18.7646 22.5686 19.1716 22.8686 19.4716C23.1687 19.7717 23.5757 19.9402 24 19.9402C24.4243 19.9402 24.8313 19.7717 25.1314 19.4716C25.4314 19.1716 25.6 18.7646 25.6 18.3402C25.6 17.9159 25.4314 17.5089 25.1314 17.2089C24.8313 16.9088 24.4243 16.7402 24 16.7402ZM20.367 16.8612C20.3377 16.8623 20.3099 16.8748 20.2897 16.8961C20.2695 16.9174 20.2585 16.9458 20.259 16.9752C20.2595 17.0045 20.2716 17.0325 20.2925 17.0531C20.3135 17.0736 20.3416 17.0852 20.371 17.0852C20.4004 17.0852 20.4285 17.0736 20.4495 17.0531C20.4704 17.0325 20.4825 17.0045 20.483 16.9752C20.4835 16.9458 20.4725 16.9174 20.4523 16.8961C20.4321 16.8748 20.4043 16.8623 20.375 16.8612H20.367ZM27.617 16.8612C27.5877 16.8623 27.5599 16.8748 27.5397 16.8961C27.5195 16.9174 27.5085 16.9458 27.509 16.9752C27.5095 17.0045 27.5216 17.0325 27.5425 17.0531C27.5635 17.0736 27.5916 17.0852 27.621 17.0852C27.6504 17.0852 27.6785 17.0736 27.6995 17.0531C27.7204 17.0325 27.7325 17.0045 27.733 16.9752C27.7335 16.9458 27.7225 16.9174 27.7023 16.8961C27.6821 16.8748 27.6543 16.8623 27.625 16.8612H27.617ZM20.367 17.4242C20.3374 17.4253 20.3094 17.4379 20.289 17.4594C20.2686 17.4809 20.2575 17.5095 20.258 17.5392C20.2585 17.5688 20.2707 17.597 20.2918 17.6178C20.3129 17.6385 20.3414 17.6502 20.371 17.6502C20.4006 17.6502 20.4291 17.6385 20.4502 17.6178C20.4713 17.597 20.4835 17.5688 20.484 17.5392C20.4845 17.5095 20.4734 17.4809 20.453 17.4594C20.4326 17.4379 20.4046 17.4253 20.375 17.4242H20.367ZM27.617 17.4242C27.5874 17.4253 27.5594 17.4379 27.539 17.4594C27.5186 17.4809 27.5075 17.5095 27.508 17.5392C27.5085 17.5688 27.5207 17.597 27.5418 17.6178C27.5629 17.6385 27.5914 17.6502 27.621 17.6502C27.6506 17.6502 27.6791 17.6385 27.7002 17.6178C27.7213 17.597 27.7335 17.5688 27.734 17.5392C27.7345 17.5095 27.7234 17.4809 27.703 17.4594C27.6826 17.4379 27.6546 17.4253 27.625 17.4242H27.617ZM20.367 17.9862C20.3515 17.9861 20.3361 17.9892 20.3218 17.9952C20.3076 18.0013 20.2947 18.0102 20.284 18.0215C20.2733 18.0328 20.2651 18.0461 20.2598 18.0607C20.2545 18.0753 20.2523 18.0908 20.2532 18.1063C20.2542 18.1217 20.2584 18.1369 20.2654 18.1507C20.2725 18.1645 20.2823 18.1767 20.2943 18.1865C20.3063 18.1964 20.3202 18.2037 20.3351 18.2079C20.35 18.2122 20.3656 18.2133 20.381 18.2112C20.4093 18.2075 20.4352 18.1931 20.4533 18.171C20.4715 18.1489 20.4806 18.1207 20.4788 18.0922C20.477 18.0637 20.4645 18.0369 20.4438 18.0172C20.423 17.9976 20.3956 17.9865 20.367 17.9862ZM27.617 17.9862C27.6015 17.9861 27.5861 17.9892 27.5718 17.9952C27.5576 18.0013 27.5447 18.0102 27.534 18.0215C27.5233 18.0328 27.5151 18.0461 27.5098 18.0607C27.5045 18.0753 27.5023 18.0908 27.5032 18.1063C27.5042 18.1217 27.5084 18.1369 27.5154 18.1507C27.5225 18.1645 27.5323 18.1767 27.5443 18.1865C27.5563 18.1964 27.5702 18.2037 27.5851 18.2079C27.6 18.2122 27.6156 18.2133 27.631 18.2112C27.6593 18.2075 27.6852 18.1931 27.7033 18.171C27.7215 18.1489 27.7306 18.1207 27.7288 18.0922C27.727 18.0637 27.7145 18.0369 27.6938 18.0172C27.673 17.9976 27.6456 17.9865 27.617 17.9862ZM20.367 18.5492C20.3523 18.5502 20.3379 18.554 20.3247 18.5604C20.3114 18.5669 20.2996 18.5759 20.2899 18.587C20.2801 18.598 20.2726 18.6109 20.2678 18.6248C20.2631 18.6388 20.2611 18.6535 20.262 18.6682C20.2629 18.6829 20.2667 18.6973 20.2732 18.7106C20.2797 18.7238 20.2887 18.7356 20.2998 18.7454C20.3108 18.7551 20.3237 18.7626 20.3376 18.7674C20.3515 18.7722 20.3663 18.7742 20.381 18.7732C20.4107 18.7714 20.4385 18.7578 20.4581 18.7355C20.4778 18.7132 20.4879 18.6839 20.486 18.6542C20.4841 18.6245 20.4706 18.5968 20.4482 18.5771C20.4259 18.5574 20.3967 18.5474 20.367 18.5492ZM27.617 18.5492C27.6023 18.5502 27.5879 18.554 27.5747 18.5604C27.5614 18.5669 27.5496 18.5759 27.5399 18.587C27.5301 18.598 27.5226 18.6109 27.5178 18.6248C27.5131 18.6388 27.5111 18.6535 27.512 18.6682C27.5129 18.6829 27.5167 18.6973 27.5232 18.7106C27.5297 18.7238 27.5387 18.7356 27.5498 18.7454C27.5608 18.7551 27.5737 18.7626 27.5876 18.7674C27.6015 18.7722 27.6163 18.7742 27.631 18.7732C27.6607 18.7714 27.6885 18.7578 27.7081 18.7355C27.7278 18.7132 27.7379 18.6839 27.736 18.6542C27.7341 18.6245 27.7206 18.5968 27.6982 18.5771C27.6759 18.5574 27.6467 18.5474 27.617 18.5492ZM16.723 18.7502C16.5129 18.7502 16.3048 18.7916 16.1107 18.872C15.9166 18.9524 15.7402 19.0703 15.5916 19.2189C15.4431 19.3674 15.3252 19.5438 15.2448 19.7379C15.1644 19.9321 15.123 20.1401 15.123 20.3502C15.123 20.5604 15.1644 20.7684 15.2448 20.9625C15.3252 21.1567 15.4431 21.333 15.5916 21.4816C15.7402 21.6302 15.9166 21.748 16.1107 21.8284C16.3048 21.9089 16.5129 21.9502 16.723 21.9502C17.1473 21.9502 17.5543 21.7817 17.8544 21.4816C18.1544 21.1816 18.323 20.7746 18.323 20.3502C18.323 19.9259 18.1544 19.5189 17.8544 19.2189C17.5543 18.9188 17.1473 18.7502 16.723 18.7502ZM31.275 18.7502C31.0616 18.7449 30.8493 18.7823 30.6505 18.8603C30.4518 18.9383 30.2707 19.0553 30.1179 19.2043C29.965 19.3534 29.8436 19.5315 29.7607 19.7282C29.6777 19.9249 29.635 20.1363 29.635 20.3497C29.635 20.5632 29.6777 20.7745 29.7607 20.9713C29.8436 21.168 29.965 21.3461 30.1179 21.4952C30.2707 21.6442 30.4518 21.7612 30.6505 21.8392C30.8493 21.9172 31.0616 21.9546 31.275 21.9492C31.6923 21.9388 32.089 21.7657 32.3804 21.4669C32.6719 21.1681 32.835 20.7672 32.835 20.3497C32.835 19.9323 32.6719 19.5314 32.3804 19.2326C32.089 18.9338 31.6923 18.7607 31.275 18.7502ZM20.355 19.1112C20.3285 19.1154 20.3044 19.129 20.2873 19.1497C20.2702 19.1703 20.2612 19.1964 20.262 19.2232C20.262 19.2453 20.2685 19.267 20.2808 19.2854C20.2931 19.3038 20.3105 19.3181 20.3309 19.3266C20.3513 19.3351 20.3738 19.3374 20.3955 19.3332C20.4172 19.3289 20.4371 19.3183 20.4528 19.3028C20.4685 19.2872 20.4793 19.2674 20.4837 19.2457C20.4882 19.224 20.4861 19.2015 20.4778 19.1811C20.4694 19.1606 20.4552 19.143 20.4369 19.1306C20.4187 19.1182 20.3971 19.1114 20.375 19.1112H20.355ZM27.605 19.1112C27.5785 19.1154 27.5544 19.129 27.5373 19.1497C27.5202 19.1703 27.5112 19.1964 27.512 19.2232C27.512 19.2453 27.5185 19.267 27.5308 19.2854C27.5431 19.3038 27.5605 19.3181 27.5809 19.3266C27.6013 19.3351 27.6238 19.3374 27.6455 19.3332C27.6672 19.3289 27.6871 19.3183 27.7028 19.3028C27.7185 19.2872 27.7293 19.2674 27.7337 19.2457C27.7382 19.224 27.7361 19.2015 27.7278 19.1811C27.7194 19.1606 27.7052 19.143 27.6869 19.1306C27.6687 19.1182 27.6471 19.1114 27.625 19.1112H27.605ZM20.377 19.6712C20.3622 19.6712 20.3475 19.6742 20.3338 19.6798C20.32 19.6855 20.3076 19.6938 20.2971 19.7043C20.2866 19.7148 20.2783 19.7273 20.2726 19.741C20.2669 19.7547 20.264 19.7694 20.264 19.7842C20.264 19.7991 20.2669 19.8138 20.2726 19.8275C20.2783 19.8412 20.2866 19.8536 20.2971 19.8641C20.3076 19.8746 20.32 19.883 20.3338 19.8886C20.3475 19.8943 20.3622 19.8972 20.377 19.8972C20.438 19.8962 20.487 19.8472 20.488 19.7852C20.4881 19.7705 20.4854 19.7559 20.4799 19.7423C20.4744 19.7287 20.4662 19.7162 20.4559 19.7057C20.4456 19.6953 20.4333 19.6869 20.4198 19.6811C20.4062 19.6754 20.3917 19.6724 20.377 19.6722V19.6712ZM27.627 19.6712C27.6122 19.6712 27.5975 19.6742 27.5838 19.6798C27.57 19.6855 27.5576 19.6938 27.5471 19.7043C27.5366 19.7148 27.5283 19.7273 27.5226 19.741C27.5169 19.7547 27.514 19.7694 27.514 19.7842C27.514 19.7991 27.5169 19.8138 27.5226 19.8275C27.5283 19.8412 27.5366 19.8536 27.5471 19.8641C27.5576 19.8746 27.57 19.883 27.5838 19.8886C27.5975 19.8943 27.6122 19.8972 27.627 19.8972C27.688 19.8962 27.737 19.8472 27.738 19.7852C27.7381 19.7705 27.7354 19.7559 27.7299 19.7423C27.7244 19.7287 27.7162 19.7162 27.7059 19.7057C27.6956 19.6953 27.6833 19.6869 27.6698 19.6811C27.6562 19.6754 27.6417 19.6724 27.627 19.6722V19.6712ZM20.367 20.2342C20.3523 20.2352 20.3379 20.239 20.3247 20.2454C20.3114 20.2519 20.2996 20.2609 20.2899 20.272C20.2801 20.283 20.2726 20.2959 20.2678 20.3098C20.2631 20.3238 20.2611 20.3385 20.262 20.3532C20.2629 20.3679 20.2667 20.3823 20.2732 20.3956C20.2797 20.4088 20.2887 20.4206 20.2998 20.4304C20.3108 20.4401 20.3237 20.4476 20.3376 20.4524C20.3515 20.4572 20.3663 20.4592 20.381 20.4582C20.4107 20.4564 20.4385 20.4428 20.4581 20.4205C20.4778 20.3982 20.4879 20.3689 20.486 20.3392C20.4841 20.3095 20.4706 20.2818 20.4482 20.2621C20.4259 20.2424 20.3967 20.2324 20.367 20.2342ZM27.617 20.2342C27.6023 20.2352 27.5879 20.239 27.5747 20.2454C27.5614 20.2519 27.5496 20.2609 27.5399 20.272C27.5301 20.283 27.5226 20.2959 27.5178 20.3098C27.5131 20.3238 27.5111 20.3385 27.512 20.3532C27.5129 20.3679 27.5167 20.3823 27.5232 20.3956C27.5297 20.4088 27.5387 20.4206 27.5498 20.4304C27.5608 20.4401 27.5737 20.4476 27.5876 20.4524C27.6015 20.4572 27.6163 20.4592 27.631 20.4582C27.6607 20.4564 27.6885 20.4428 27.7081 20.4205C27.7278 20.3982 27.7379 20.3689 27.736 20.3392C27.7341 20.3095 27.7206 20.2818 27.6982 20.2621C27.6759 20.2424 27.6467 20.2324 27.617 20.2342ZM24 20.5762C23.7866 20.5709 23.5743 20.6083 23.3755 20.6863C23.1768 20.7643 22.9957 20.8813 22.8429 21.0303C22.69 21.1794 22.5686 21.3575 22.4857 21.5542C22.4027 21.7509 22.36 21.9623 22.36 22.1757C22.36 22.3892 22.4027 22.6005 22.4857 22.7973C22.5686 22.994 22.69 23.1721 22.8429 23.3212C22.9957 23.4702 23.1768 23.5872 23.3755 23.6652C23.5743 23.7432 23.7866 23.7806 24 23.7752C24.4173 23.7648 24.814 23.5917 25.1054 23.2929C25.3969 22.9941 25.56 22.5932 25.56 22.1757C25.56 21.7583 25.3969 21.3574 25.1054 21.0586C24.814 20.7598 24.4173 20.5867 24 20.5762ZM20.367 20.7962C20.3372 20.7981 20.3093 20.8117 20.2895 20.8341C20.2697 20.8566 20.2596 20.8859 20.2615 20.9157C20.2634 20.9456 20.277 20.9735 20.2994 20.9932C20.3218 21.013 20.3512 21.0231 20.381 21.0212C20.4107 21.0194 20.4385 21.0058 20.4581 20.9835C20.4778 20.9612 20.4879 20.9319 20.486 20.9022C20.4841 20.8725 20.4706 20.8448 20.4482 20.8251C20.4259 20.8054 20.3967 20.7954 20.367 20.7972V20.7962ZM27.617 20.7962C27.5872 20.7981 27.5593 20.8117 27.5395 20.8341C27.5197 20.8566 27.5096 20.8859 27.5115 20.9157C27.5134 20.9456 27.527 20.9735 27.5494 20.9932C27.5718 21.013 27.6012 21.0231 27.631 21.0212C27.6607 21.0194 27.6885 21.0058 27.7081 20.9835C27.7278 20.9612 27.7379 20.9319 27.736 20.9022C27.7341 20.8725 27.7206 20.8448 27.6982 20.8251C27.6759 20.8054 27.6467 20.7954 27.617 20.7972V20.7962ZM20.367 21.3592C20.3382 21.361 20.3112 21.3739 20.2916 21.3951C20.272 21.4164 20.2614 21.4444 20.262 21.4732C20.262 21.5352 20.312 21.5852 20.375 21.5842C20.4048 21.5832 20.433 21.5703 20.4534 21.5485C20.4737 21.5266 20.4846 21.4976 20.4835 21.4677C20.4824 21.4379 20.4696 21.4097 20.4477 21.3894C20.4259 21.369 20.3968 21.3582 20.367 21.3592ZM27.617 21.3592C27.5882 21.361 27.5612 21.3739 27.5416 21.3951C27.522 21.4164 27.5114 21.4444 27.512 21.4732C27.512 21.5352 27.562 21.5852 27.625 21.5842C27.6548 21.5832 27.683 21.5703 27.7034 21.5485C27.7237 21.5266 27.7346 21.4976 27.7335 21.4677C27.7324 21.4379 27.7196 21.4097 27.6977 21.3894C27.6759 21.369 27.6468 21.3582 27.617 21.3592ZM20.367 21.9222C20.3523 21.9232 20.3379 21.927 20.3247 21.9334C20.3114 21.9399 20.2996 21.9489 20.2899 21.96C20.2801 21.971 20.2726 21.9839 20.2678 21.9978C20.2631 22.0118 20.2611 22.0265 20.262 22.0412C20.2629 22.0559 20.2667 22.0703 20.2732 22.0836C20.2797 22.0968 20.2887 22.1086 20.2998 22.1184C20.3108 22.1281 20.3237 22.1356 20.3376 22.1404C20.3515 22.1452 20.3663 22.1472 20.381 22.1462C20.4107 22.1444 20.4385 22.1308 20.4581 22.1085C20.4778 22.0862 20.4879 22.0569 20.486 22.0272C20.4841 21.9975 20.4706 21.9698 20.4482 21.9501C20.4259 21.9304 20.3967 21.9204 20.367 21.9222ZM27.617 21.9222C27.6023 21.9232 27.5879 21.927 27.5747 21.9334C27.5614 21.9399 27.5496 21.9489 27.5399 21.96C27.5301 21.971 27.5226 21.9839 27.5178 21.9978C27.5131 22.0118 27.5111 22.0265 27.512 22.0412C27.5129 22.0559 27.5167 22.0703 27.5232 22.0836C27.5297 22.0968 27.5387 22.1086 27.5498 22.1184C27.5608 22.1281 27.5737 22.1356 27.5876 22.1404C27.6015 22.1452 27.6163 22.1472 27.631 22.1462C27.6607 22.1444 27.6885 22.1308 27.7081 22.1085C27.7278 22.0862 27.7379 22.0569 27.736 22.0272C27.7341 21.9975 27.7206 21.9698 27.6982 21.9501C27.6759 21.9304 27.6467 21.9204 27.617 21.9222ZM20.367 22.4842C20.3373 22.4861 20.3095 22.4997 20.2899 22.522C20.2702 22.5443 20.2601 22.5735 20.262 22.6032C20.2639 22.6329 20.2774 22.6607 20.2998 22.6804C20.3221 22.7001 20.3513 22.7101 20.381 22.7082C20.3957 22.7073 20.4101 22.7035 20.4233 22.697C20.4366 22.6906 20.4484 22.6815 20.4581 22.6705C20.4679 22.6594 20.4754 22.6466 20.4802 22.6326C20.4849 22.6187 20.4869 22.6039 20.486 22.5892C20.4851 22.5745 20.4813 22.5601 20.4748 22.5469C20.4683 22.5337 20.4593 22.5218 20.4482 22.5121C20.4372 22.5023 20.4243 22.4949 20.4104 22.4901C20.3965 22.4853 20.3817 22.4833 20.367 22.4842ZM27.617 22.4842C27.6023 22.4852 27.5879 22.489 27.5747 22.4954C27.5614 22.5019 27.5496 22.5109 27.5399 22.522C27.5301 22.533 27.5226 22.5459 27.5178 22.5598C27.5131 22.5738 27.5111 22.5885 27.512 22.6032C27.5129 22.6179 27.5167 22.6323 27.5232 22.6456C27.5297 22.6588 27.5387 22.6706 27.5498 22.6804C27.5608 22.6901 27.5737 22.6976 27.5876 22.7024C27.6015 22.7072 27.6163 22.7092 27.631 22.7082C27.6607 22.7064 27.6885 22.6928 27.7081 22.6705C27.7278 22.6482 27.7379 22.6189 27.736 22.5892C27.7341 22.5595 27.7206 22.5318 27.6982 22.5121C27.6759 22.4924 27.6467 22.4824 27.617 22.4842ZM16.723 22.5862C16.5096 22.5809 16.2973 22.6183 16.0985 22.6963C15.8998 22.7743 15.7187 22.8913 15.5659 23.0403C15.413 23.1894 15.2916 23.3675 15.2087 23.5642C15.1257 23.7609 15.083 23.9723 15.083 24.1857C15.083 24.3992 15.1257 24.6105 15.2087 24.8073C15.2916 25.004 15.413 25.1821 15.5659 25.3312C15.7187 25.4802 15.8998 25.5972 16.0985 25.6752C16.2973 25.7531 16.5096 25.7906 16.723 25.7852C17.1473 25.7852 17.5543 25.6167 17.8544 25.3166C18.1544 25.0166 18.323 24.6096 18.323 24.1852C18.323 23.7609 18.1544 23.3539 17.8544 23.0539C17.5543 22.7538 17.1473 22.5852 16.723 22.5852V22.5862ZM31.275 22.5862C31.0616 22.5809 30.8493 22.6183 30.6505 22.6963C30.4518 22.7743 30.2707 22.8913 30.1179 23.0403C29.965 23.1894 29.8436 23.3675 29.7607 23.5642C29.6777 23.7609 29.635 23.9723 29.635 24.1857C29.635 24.3992 29.6777 24.6105 29.7607 24.8073C29.8436 25.004 29.965 25.1821 30.1179 25.3312C30.2707 25.4802 30.4518 25.5972 30.6505 25.6752C30.8493 25.7531 31.0616 25.7906 31.275 25.7852C31.6993 25.7852 32.1063 25.6167 32.4064 25.3166C32.7064 25.0166 32.875 24.6096 32.875 24.1852C32.875 23.7609 32.7064 23.3539 32.4064 23.0539C32.1063 22.7538 31.6993 22.5852 31.275 22.5852V22.5862ZM20.367 23.0462C20.3522 23.0472 20.3378 23.051 20.3245 23.0575C20.3112 23.064 20.2993 23.073 20.2895 23.0841C20.2797 23.0952 20.2722 23.1082 20.2674 23.1222C20.2626 23.1362 20.2606 23.151 20.2615 23.1657C20.2624 23.1805 20.2662 23.195 20.2727 23.2083C20.2792 23.2216 20.2883 23.2334 20.2994 23.2432C20.3105 23.253 20.3234 23.2605 20.3374 23.2654C20.3514 23.2702 20.3662 23.2722 20.381 23.2712C20.4107 23.2694 20.4385 23.2558 20.4581 23.2335C20.4778 23.2112 20.4879 23.1819 20.486 23.1522C20.4841 23.1225 20.4706 23.0948 20.4482 23.0751C20.4259 23.0554 20.3967 23.0454 20.367 23.0472V23.0462ZM27.617 23.0462C27.5872 23.0481 27.5593 23.0617 27.5395 23.0841C27.5197 23.1066 27.5096 23.1359 27.5115 23.1657C27.5134 23.1956 27.527 23.2235 27.5494 23.2432C27.5718 23.263 27.6012 23.2731 27.631 23.2712C27.6607 23.2694 27.6885 23.2558 27.7081 23.2335C27.7278 23.2112 27.7379 23.1819 27.736 23.1522C27.7341 23.1225 27.7206 23.0948 27.6982 23.0751C27.6759 23.0554 27.6467 23.0454 27.617 23.0472V23.0462ZM20.355 23.6092C20.3286 23.6136 20.3047 23.6273 20.2876 23.6479C20.2705 23.6684 20.2614 23.6945 20.262 23.7212C20.2618 23.7436 20.2683 23.7656 20.2806 23.7843C20.2929 23.803 20.3104 23.8176 20.3311 23.8263C20.3517 23.8351 20.3744 23.8374 20.3964 23.8332C20.4184 23.8289 20.4386 23.8183 20.4545 23.8025C20.4704 23.7867 20.4813 23.7666 20.4858 23.7447C20.4902 23.7227 20.488 23.6999 20.4795 23.6792C20.471 23.6585 20.4565 23.6408 20.4379 23.6284C20.4193 23.6159 20.3974 23.6092 20.375 23.6092H20.355ZM27.605 23.6092C27.5786 23.6136 27.5547 23.6273 27.5376 23.6479C27.5205 23.6684 27.5114 23.6945 27.512 23.7212C27.5118 23.7436 27.5183 23.7656 27.5306 23.7843C27.5429 23.803 27.5604 23.8176 27.5811 23.8263C27.6017 23.8351 27.6244 23.8374 27.6464 23.8332C27.6684 23.8289 27.6886 23.8183 27.7045 23.8025C27.7204 23.7867 27.7313 23.7666 27.7358 23.7447C27.7402 23.7227 27.738 23.6999 27.7295 23.6792C27.721 23.6585 27.7065 23.6408 27.6879 23.6284C27.6693 23.6159 27.6474 23.6092 27.625 23.6092H27.605ZM20.355 24.1722C20.3339 24.1757 20.3143 24.1851 20.2983 24.1993C20.2824 24.2135 20.2709 24.232 20.2651 24.2526C20.2594 24.2732 20.2596 24.295 20.2659 24.3154C20.2721 24.3359 20.284 24.3541 20.3003 24.368C20.3165 24.3818 20.3364 24.3908 20.3576 24.3937C20.3787 24.3967 20.4003 24.3935 20.4197 24.3846C20.4391 24.3757 20.4556 24.3614 20.4671 24.3435C20.4787 24.3255 20.4849 24.3046 20.485 24.2832C20.485 24.2222 20.436 24.1732 20.375 24.1722H20.355ZM27.605 24.1722C27.5839 24.1757 27.5643 24.1851 27.5483 24.1993C27.5324 24.2135 27.5209 24.232 27.5151 24.2526C27.5094 24.2732 27.5096 24.295 27.5159 24.3154C27.5221 24.3359 27.534 24.3541 27.5503 24.368C27.5665 24.3818 27.5864 24.3908 27.6076 24.3937C27.6287 24.3967 27.6503 24.3935 27.6697 24.3846C27.6891 24.3757 27.7056 24.3614 27.7171 24.3435C27.7287 24.3255 27.7349 24.3046 27.735 24.2832C27.735 24.2222 27.686 24.1732 27.625 24.1722H27.605ZM24 24.4122C23.7866 24.4069 23.5743 24.4443 23.3755 24.5223C23.1768 24.6003 22.9957 24.7173 22.8429 24.8663C22.69 25.0154 22.5686 25.1935 22.4857 25.3902C22.4027 25.5869 22.36 25.7983 22.36 26.0117C22.36 26.2252 22.4027 26.4365 22.4857 26.6333C22.5686 26.83 22.69 27.0081 22.8429 27.1572C22.9957 27.3062 23.1768 27.4232 23.3755 27.5012C23.5743 27.5791 23.7866 27.6166 24 27.6112C24.4173 27.6008 24.814 27.4277 25.1054 27.1289C25.3969 26.8301 25.56 26.4292 25.56 26.0117C25.56 25.5943 25.3969 25.1934 25.1054 24.8946C24.814 24.5958 24.4173 24.4227 24 24.4122ZM20.367 24.7322C20.3523 24.7332 20.3379 24.737 20.3247 24.7434C20.3114 24.7499 20.2996 24.7589 20.2899 24.77C20.2801 24.781 20.2726 24.7939 20.2678 24.8078C20.2631 24.8218 20.2611 24.8365 20.262 24.8512C20.2629 24.8659 20.2667 24.8803 20.2732 24.8936C20.2797 24.9068 20.2887 24.9186 20.2998 24.9284C20.3108 24.9381 20.3237 24.9456 20.3376 24.9504C20.3515 24.9552 20.3663 24.9572 20.381 24.9562C20.4107 24.9544 20.4385 24.9408 20.4581 24.9185C20.4778 24.8962 20.4879 24.8669 20.486 24.8372C20.4841 24.8075 20.4706 24.7798 20.4482 24.7601C20.4259 24.7404 20.3967 24.7304 20.367 24.7322ZM27.617 24.7322C27.6023 24.7332 27.5879 24.737 27.5747 24.7434C27.5614 24.7499 27.5496 24.7589 27.5399 24.77C27.5301 24.781 27.5226 24.7939 27.5178 24.8078C27.5131 24.8218 27.5111 24.8365 27.512 24.8512C27.5129 24.8659 27.5167 24.8803 27.5232 24.8936C27.5297 24.9068 27.5387 24.9186 27.5498 24.9284C27.5608 24.9381 27.5737 24.9456 27.5876 24.9504C27.6015 24.9552 27.6163 24.9572 27.631 24.9562C27.6607 24.9544 27.6885 24.9408 27.7081 24.9185C27.7278 24.8962 27.7379 24.8669 27.736 24.8372C27.7341 24.8075 27.7206 24.7798 27.6982 24.7601C27.6759 24.7404 27.6467 24.7304 27.617 24.7322ZM20.367 25.2952C20.3384 25.297 20.3115 25.3098 20.2919 25.3308C20.2724 25.3518 20.2617 25.3795 20.262 25.4082C20.262 25.4702 20.312 25.5212 20.375 25.5192C20.4047 25.5192 20.4332 25.5074 20.4542 25.4864C20.4752 25.4654 20.487 25.4369 20.487 25.4072C20.487 25.3775 20.4752 25.349 20.4542 25.328C20.4332 25.307 20.4047 25.2952 20.375 25.2952C20.3723 25.2951 20.3697 25.2951 20.367 25.2952ZM27.617 25.2952C27.5884 25.297 27.5615 25.3098 27.5419 25.3308C27.5224 25.3518 27.5117 25.3795 27.512 25.4082C27.512 25.4702 27.562 25.5212 27.625 25.5192C27.6547 25.5192 27.6832 25.5074 27.7042 25.4864C27.7252 25.4654 27.737 25.4369 27.737 25.4072C27.737 25.3775 27.7252 25.349 27.7042 25.328C27.6832 25.307 27.6547 25.2952 27.625 25.2952C27.6223 25.2951 27.6197 25.2951 27.617 25.2952ZM20.367 25.8572C20.3523 25.8582 20.3379 25.862 20.3247 25.8684C20.3114 25.8749 20.2996 25.8839 20.2899 25.895C20.2801 25.906 20.2726 25.9189 20.2678 25.9328C20.2631 25.9468 20.2611 25.9615 20.262 25.9762C20.2629 25.9909 20.2667 26.0053 20.2732 26.0186C20.2797 26.0318 20.2887 26.0436 20.2998 26.0534C20.3108 26.0631 20.3237 26.0706 20.3376 26.0754C20.3515 26.0802 20.3663 26.0822 20.381 26.0812C20.4107 26.0794 20.4385 26.0658 20.4581 26.0435C20.4778 26.0212 20.4879 25.9919 20.486 25.9622C20.4841 25.9325 20.4706 25.9048 20.4482 25.8851C20.4259 25.8654 20.3967 25.8554 20.367 25.8572ZM27.617 25.8572C27.6023 25.8582 27.5879 25.862 27.5747 25.8684C27.5614 25.8749 27.5496 25.8839 27.5399 25.895C27.5301 25.906 27.5226 25.9189 27.5178 25.9328C27.5131 25.9468 27.5111 25.9615 27.512 25.9762C27.5129 25.9909 27.5167 26.0053 27.5232 26.0186C27.5297 26.0318 27.5387 26.0436 27.5498 26.0534C27.5608 26.0631 27.5737 26.0706 27.5876 26.0754C27.6015 26.0802 27.6163 26.0822 27.631 26.0812C27.6607 26.0794 27.6885 26.0658 27.7081 26.0435C27.7278 26.0212 27.7379 25.9919 27.736 25.9622C27.7341 25.9325 27.7206 25.9048 27.6982 25.8851C27.6759 25.8654 27.6467 25.8554 27.617 25.8572ZM20.367 26.4202C20.3377 26.4213 20.3099 26.4338 20.2897 26.4551C20.2695 26.4764 20.2585 26.5048 20.259 26.5342C20.2595 26.5635 20.2716 26.5915 20.2925 26.6121C20.3135 26.6326 20.3416 26.6442 20.371 26.6442C20.4004 26.6442 20.4285 26.6326 20.4495 26.6121C20.4704 26.5915 20.4825 26.5635 20.483 26.5342C20.4835 26.5048 20.4725 26.4764 20.4523 26.4551C20.4321 26.4338 20.4043 26.4213 20.375 26.4202C20.3723 26.4201 20.3697 26.4201 20.367 26.4202ZM27.617 26.4202C27.5877 26.4213 27.5599 26.4338 27.5397 26.4551C27.5195 26.4764 27.5085 26.5048 27.509 26.5342C27.5095 26.5635 27.5216 26.5915 27.5425 26.6121C27.5635 26.6326 27.5916 26.6442 27.621 26.6442C27.6504 26.6442 27.6785 26.6326 27.6995 26.6121C27.7204 26.5915 27.7325 26.5635 27.733 26.5342C27.7335 26.5048 27.7225 26.4764 27.7023 26.4551C27.6821 26.4338 27.6543 26.4213 27.625 26.4202C27.6223 26.4201 27.6197 26.4201 27.617 26.4202ZM16.723 26.4222C16.5096 26.4169 16.2973 26.4543 16.0985 26.5323C15.8998 26.6103 15.7187 26.7273 15.5659 26.8763C15.413 27.0254 15.2916 27.2035 15.2087 27.4002C15.1257 27.5969 15.083 27.8083 15.083 28.0217C15.083 28.2352 15.1257 28.4465 15.2087 28.6433C15.2916 28.84 15.413 29.0181 15.5659 29.1672C15.7187 29.3162 15.8998 29.4332 16.0985 29.5112C16.2973 29.5891 16.5096 29.6266 16.723 29.6212C17.1473 29.6212 17.5543 29.4527 17.8544 29.1526C18.1544 28.8526 18.323 28.4456 18.323 28.0212C18.323 27.5969 18.1544 27.1899 17.8544 26.8899C17.5543 26.5898 17.1473 26.4212 16.723 26.4212V26.4222ZM31.275 26.4222C31.0616 26.4169 30.8493 26.4543 30.6505 26.5323C30.4518 26.6103 30.2707 26.7273 30.1179 26.8763C29.965 27.0254 29.8436 27.2035 29.7607 27.4002C29.6777 27.5969 29.635 27.8083 29.635 28.0217C29.635 28.2352 29.6777 28.4465 29.7607 28.6433C29.8436 28.84 29.965 29.0181 30.1179 29.1672C30.2707 29.3162 30.4518 29.4332 30.6505 29.5112C30.8493 29.5891 31.0616 29.6266 31.275 29.6212C31.6993 29.6212 32.1063 29.4527 32.4064 29.1526C32.7064 28.8526 32.875 28.4456 32.875 28.0212C32.875 27.5969 32.7064 27.1899 32.4064 26.8899C32.1063 26.5898 31.6993 26.4212 31.275 26.4212V26.4222ZM20.367 26.9822C20.3522 26.9832 20.3378 26.987 20.3245 26.9935C20.3112 27 20.2993 27.009 20.2895 27.0201C20.2797 27.0312 20.2722 27.0442 20.2674 27.0582C20.2626 27.0722 20.2606 27.087 20.2615 27.1017C20.2624 27.1165 20.2662 27.131 20.2727 27.1443C20.2792 27.1576 20.2883 27.1694 20.2994 27.1792C20.3105 27.189 20.3234 27.1965 20.3374 27.2014C20.3514 27.2062 20.3662 27.2082 20.381 27.2072C20.4108 27.2054 20.4387 27.1917 20.4585 27.1693C20.4783 27.1469 20.4884 27.1176 20.4865 27.0877C20.4846 27.0579 20.471 27.03 20.4486 27.0102C20.4262 26.9905 20.3968 26.9804 20.367 26.9822ZM27.617 26.9822C27.5872 26.9841 27.5593 26.9977 27.5395 27.0201C27.5197 27.0425 27.5096 27.0719 27.5115 27.1017C27.5134 27.1316 27.527 27.1595 27.5494 27.1792C27.5718 27.199 27.6012 27.2091 27.631 27.2072C27.6458 27.2063 27.6602 27.2025 27.6735 27.196C27.6868 27.1895 27.6987 27.1804 27.7085 27.1693C27.7183 27.1582 27.7258 27.1453 27.7306 27.1313C27.7354 27.1173 27.7374 27.1025 27.7365 27.0877C27.7356 27.073 27.7318 27.0585 27.7253 27.0452C27.7188 27.0319 27.7097 27.02 27.6986 27.0102C27.6875 27.0004 27.6746 26.9929 27.6606 26.9881C27.6466 26.9833 27.6318 26.9813 27.617 26.9822ZM20.367 27.5452C20.3377 27.5463 20.3099 27.5588 20.2897 27.5801C20.2695 27.6014 20.2585 27.6298 20.259 27.6592C20.2595 27.6885 20.2716 27.7165 20.2925 27.7371C20.3135 27.7576 20.3416 27.7692 20.371 27.7692C20.4004 27.7692 20.4285 27.7576 20.4495 27.7371C20.4704 27.7165 20.4825 27.6885 20.483 27.6592C20.4835 27.6298 20.4725 27.6014 20.4523 27.5801C20.4321 27.5588 20.4043 27.5463 20.375 27.5452C20.3723 27.5451 20.3697 27.5451 20.367 27.5452ZM27.617 27.5452C27.5877 27.5463 27.5599 27.5588 27.5397 27.5801C27.5195 27.6014 27.5085 27.6298 27.509 27.6592C27.5095 27.6885 27.5216 27.7165 27.5425 27.7371C27.5635 27.7576 27.5916 27.7692 27.621 27.7692C27.6504 27.7692 27.6785 27.7576 27.6995 27.7371C27.7204 27.7165 27.7325 27.6885 27.733 27.6592C27.7335 27.6298 27.7225 27.6014 27.7023 27.5801C27.6821 27.5588 27.6543 27.5463 27.625 27.5452C27.6223 27.5451 27.6197 27.5451 27.617 27.5452ZM20.355 28.1072C20.3339 28.1107 20.3143 28.1201 20.2983 28.1343C20.2824 28.1485 20.2709 28.167 20.2651 28.1876C20.2594 28.2082 20.2596 28.23 20.2659 28.2504C20.2721 28.2709 20.284 28.2891 20.3003 28.303C20.3165 28.3168 20.3364 28.3258 20.3576 28.3287C20.3787 28.3317 20.4003 28.3285 20.4197 28.3196C20.4391 28.3107 20.4556 28.2964 20.4671 28.2785C20.4787 28.2605 20.4849 28.2396 20.485 28.2182C20.485 28.1582 20.436 28.1082 20.375 28.1082H20.355V28.1072ZM27.605 28.1072C27.5839 28.1107 27.5643 28.1201 27.5483 28.1343C27.5324 28.1485 27.5209 28.167 27.5151 28.1876C27.5094 28.2082 27.5096 28.23 27.5159 28.2504C27.5221 28.2709 27.534 28.2891 27.5503 28.303C27.5665 28.3168 27.5864 28.3258 27.6076 28.3287C27.6287 28.3317 27.6503 28.3285 27.6697 28.3196C27.6891 28.3107 27.7056 28.2964 27.7171 28.2785C27.7287 28.2605 27.7349 28.2396 27.735 28.2182C27.735 28.1582 27.686 28.1082 27.625 28.1082H27.605V28.1072ZM24 28.2482C23.7866 28.2429 23.5743 28.2803 23.3755 28.3583C23.1768 28.4363 22.9957 28.5533 22.8429 28.7023C22.69 28.8514 22.5686 29.0295 22.4857 29.2262C22.4027 29.4229 22.36 29.6343 22.36 29.8477C22.36 30.0612 22.4027 30.2725 22.4857 30.4693C22.5686 30.666 22.69 30.8441 22.8429 30.9932C22.9957 31.1422 23.1768 31.2592 23.3755 31.3372C23.5743 31.4151 23.7866 31.4526 24 31.4472C24.4173 31.4368 24.814 31.2637 25.1054 30.9649C25.3969 30.6661 25.56 30.2652 25.56 29.8477C25.56 29.4303 25.3969 29.0294 25.1054 28.7306C24.814 28.4318 24.4173 28.2587 24 28.2482ZM20.377 28.6682C20.3472 28.668 20.3184 28.6796 20.2972 28.7005C20.2759 28.7214 20.2638 28.7499 20.2635 28.7797C20.2632 28.8096 20.2748 28.8383 20.2957 28.8596C20.3167 28.8809 20.3452 28.893 20.375 28.8932C20.3898 28.8934 20.4044 28.8906 20.4181 28.8851C20.4318 28.8795 20.4443 28.8713 20.4548 28.861C20.4654 28.8506 20.4738 28.8383 20.4796 28.8247C20.4853 28.8111 20.4884 28.7965 20.4885 28.7817C20.4886 28.767 20.4859 28.7523 20.4803 28.7386C20.4748 28.7249 20.4666 28.7124 20.4563 28.7019C20.4459 28.6914 20.4336 28.683 20.42 28.6772C20.4064 28.6714 20.3918 28.6684 20.377 28.6682ZM27.627 28.6682C27.5972 28.668 27.5684 28.6796 27.5472 28.7005C27.5259 28.7214 27.5138 28.7499 27.5135 28.7797C27.5132 28.8096 27.5248 28.8383 27.5457 28.8596C27.5667 28.8809 27.5952 28.893 27.625 28.8932C27.6398 28.8934 27.6544 28.8906 27.6681 28.8851C27.6818 28.8795 27.6943 28.8713 27.7048 28.861C27.7154 28.8506 27.7238 28.8383 27.7296 28.8247C27.7353 28.8111 27.7384 28.7965 27.7385 28.7817C27.7386 28.767 27.7359 28.7523 27.7303 28.7386C27.7248 28.7249 27.7166 28.7124 27.7063 28.7019C27.6959 28.6914 27.6836 28.683 27.67 28.6772C27.6564 28.6714 27.6418 28.6684 27.627 28.6682ZM20.367 29.2312C20.3384 29.233 20.3115 29.2458 20.2919 29.2668C20.2724 29.2878 20.2617 29.3155 20.262 29.3442C20.262 29.4062 20.312 29.4572 20.375 29.4552C20.3897 29.4547 20.4042 29.4513 20.4176 29.4452C20.4309 29.4391 20.443 29.4304 20.453 29.4196C20.4631 29.4088 20.4709 29.3962 20.476 29.3824C20.4811 29.3686 20.4835 29.3539 20.483 29.3392C20.4825 29.3245 20.4791 29.3101 20.4729 29.2967C20.4668 29.2833 20.4581 29.2712 20.4474 29.2612C20.4366 29.2512 20.424 29.2434 20.4102 29.2382C20.3964 29.2331 20.3817 29.2307 20.367 29.2312ZM27.617 29.2312C27.5884 29.233 27.5615 29.2458 27.5419 29.2668C27.5224 29.2878 27.5117 29.3155 27.512 29.3442C27.512 29.4062 27.562 29.4572 27.625 29.4552C27.6397 29.4547 27.6542 29.4513 27.6676 29.4452C27.6809 29.4391 27.693 29.4304 27.703 29.4196C27.7131 29.4088 27.7209 29.3962 27.726 29.3824C27.7311 29.3686 27.7335 29.3539 27.733 29.3392C27.7325 29.3245 27.7291 29.3101 27.7229 29.2967C27.7168 29.2833 27.7081 29.2712 27.6974 29.2612C27.6866 29.2512 27.674 29.2434 27.6602 29.2382C27.6464 29.2331 27.6317 29.2307 27.617 29.2312ZM20.367 29.7932C20.3372 29.7943 20.309 29.8072 20.2886 29.829C20.2683 29.8509 20.2574 29.8799 20.2585 29.9097C20.2596 29.9396 20.2724 29.9678 20.2943 29.9881C20.3161 30.0085 20.3452 30.0193 20.375 30.0182C20.3898 30.0177 20.4043 30.0143 20.4177 30.0081C20.4312 30.002 20.4433 29.9933 20.4534 29.9825C20.4635 29.9716 20.4713 29.9589 20.4765 29.9451C20.4816 29.9312 20.484 29.9165 20.4835 29.9017C20.483 29.887 20.4795 29.8724 20.4734 29.859C20.4673 29.8455 20.4585 29.8334 20.4477 29.8234C20.4369 29.8133 20.4242 29.8054 20.4104 29.8003C20.3965 29.7951 20.3818 29.7927 20.367 29.7932ZM27.617 29.7932C27.5872 29.7943 27.559 29.8072 27.5386 29.829C27.5183 29.8509 27.5074 29.8799 27.5085 29.9097C27.5096 29.9396 27.5224 29.9678 27.5443 29.9881C27.5661 30.0085 27.5952 30.0193 27.625 30.0182C27.6398 30.0177 27.6543 30.0143 27.6677 30.0081C27.6812 30.002 27.6933 29.9933 27.7034 29.9825C27.7135 29.9716 27.7213 29.9589 27.7265 29.9451C27.7316 29.9312 27.734 29.9165 27.7335 29.9017C27.733 29.887 27.7295 29.8724 27.7234 29.859C27.7173 29.8455 27.7085 29.8334 27.6977 29.8234C27.6869 29.8133 27.6742 29.8054 27.6604 29.8003C27.6465 29.7951 27.6318 29.7927 27.617 29.7932ZM16.723 30.2562C16.3054 30.2667 15.9085 30.4399 15.6169 30.7389C15.3252 31.0379 15.162 31.4391 15.162 31.8567C15.162 32.2744 15.3252 32.6756 15.6169 32.9746C15.9085 33.2736 16.3054 33.4468 16.723 33.4572C17.1475 33.4572 17.5546 33.2886 17.8547 32.9885C18.1549 32.6883 18.3235 32.2812 18.3235 31.8567C18.3235 31.4323 18.1549 31.0252 17.8547 30.725C17.5546 30.4249 17.1475 30.2562 16.723 30.2562ZM31.275 30.2562C30.8574 30.2667 30.4605 30.4399 30.1689 30.7389C29.8772 31.0379 29.714 31.4391 29.714 31.8567C29.714 32.2744 29.8772 32.6756 30.1689 32.9746C30.4605 33.2736 30.8574 33.4468 31.275 33.4572C31.6995 33.4572 32.1066 33.2886 32.4067 32.9885C32.7069 32.6883 32.8755 32.2812 32.8755 31.8567C32.8755 31.4323 32.7069 31.0252 32.4067 30.725C32.1066 30.4249 31.6995 30.2562 31.275 30.2562ZM20.367 30.3562C20.3384 30.358 20.3115 30.3708 20.2919 30.3918C20.2724 30.4128 20.2617 30.4405 20.262 30.4692C20.262 30.5312 20.312 30.5812 20.375 30.5802C20.3897 30.5797 20.4042 30.5763 20.4176 30.5702C20.4309 30.5641 20.443 30.5554 20.453 30.5446C20.4631 30.5338 20.4709 30.5212 20.476 30.5074C20.4811 30.4936 20.4835 30.4789 20.483 30.4642C20.4825 30.4495 20.4791 30.4351 20.4729 30.4217C20.4668 30.4083 20.4581 30.3962 20.4474 30.3862C20.4366 30.3762 20.424 30.3684 20.4102 30.3632C20.3964 30.3581 20.3817 30.3557 20.367 30.3562ZM27.617 30.3562C27.5884 30.358 27.5615 30.3708 27.5419 30.3918C27.5224 30.4128 27.5117 30.4405 27.512 30.4692C27.512 30.5312 27.562 30.5812 27.625 30.5802C27.6397 30.5797 27.6542 30.5763 27.6676 30.5702C27.6809 30.5641 27.693 30.5554 27.703 30.5446C27.7131 30.5338 27.7209 30.5212 27.726 30.5074C27.7311 30.4936 27.7335 30.4789 27.733 30.4642C27.7325 30.4495 27.7291 30.4351 27.7229 30.4217C27.7168 30.4083 27.7081 30.3962 27.6974 30.3862C27.6866 30.3762 27.674 30.3684 27.6602 30.3632C27.6464 30.3581 27.6317 30.3557 27.617 30.3562ZM20.367 30.9162C20.3385 30.9185 20.3119 30.9314 20.2925 30.9523C20.273 30.9732 20.2622 31.0007 20.262 31.0292C20.2599 31.0452 20.2612 31.0614 20.2658 31.0769C20.2705 31.0923 20.2784 31.1065 20.289 31.1186C20.2996 31.1308 20.3126 31.1405 20.3273 31.1471C20.342 31.1538 20.3579 31.1572 20.374 31.1572C20.3901 31.1572 20.406 31.1538 20.4207 31.1471C20.4354 31.1405 20.4484 31.1308 20.459 31.1186C20.4696 31.1065 20.4775 31.0923 20.4822 31.0769C20.4868 31.0614 20.4881 31.0452 20.486 31.0292C20.4859 31.0139 20.4827 30.9988 20.4766 30.9847C20.4705 30.9707 20.4616 30.958 20.4505 30.9475C20.4394 30.9369 20.4263 30.9287 20.4119 30.9233C20.3976 30.918 20.3823 30.9156 20.367 30.9162ZM27.617 30.9162C27.5885 30.9185 27.5619 30.9314 27.5425 30.9523C27.523 30.9732 27.5122 31.0007 27.512 31.0292C27.5099 31.0452 27.5112 31.0614 27.5158 31.0769C27.5205 31.0923 27.5284 31.1065 27.539 31.1186C27.5496 31.1308 27.5626 31.1405 27.5773 31.1471C27.592 31.1538 27.6079 31.1572 27.624 31.1572C27.6401 31.1572 27.656 31.1538 27.6707 31.1471C27.6854 31.1405 27.6984 31.1308 27.709 31.1186C27.7196 31.1065 27.7275 31.0923 27.7322 31.0769C27.7368 31.0614 27.7381 31.0452 27.736 31.0292C27.7359 31.0139 27.7327 30.9988 27.7266 30.9847C27.7205 30.9707 27.7116 30.958 27.7005 30.9475C27.6894 30.9369 27.6763 30.9287 27.6619 30.9233C27.6476 30.918 27.6323 30.9156 27.617 30.9162ZM20.367 31.4792C20.3523 31.4802 20.3379 31.484 20.3247 31.4904C20.3114 31.4969 20.2996 31.5059 20.2899 31.517C20.2801 31.528 20.2726 31.5409 20.2678 31.5548C20.2631 31.5688 20.2611 31.5835 20.262 31.5982C20.2629 31.6129 20.2667 31.6273 20.2732 31.6406C20.2797 31.6538 20.2887 31.6656 20.2998 31.6754C20.3108 31.6851 20.3237 31.6926 20.3376 31.6974C20.3515 31.7022 20.3663 31.7042 20.381 31.7032C20.4107 31.7014 20.4385 31.6878 20.4581 31.6655C20.4778 31.6432 20.4879 31.6139 20.486 31.5842C20.4841 31.5545 20.4706 31.5268 20.4482 31.5071C20.4259 31.4874 20.3967 31.4774 20.367 31.4792ZM27.617 31.4792C27.6023 31.4802 27.5879 31.484 27.5747 31.4904C27.5614 31.4969 27.5496 31.5059 27.5399 31.517C27.5301 31.528 27.5226 31.5409 27.5178 31.5548C27.5131 31.5688 27.5111 31.5835 27.512 31.5982C27.5129 31.6129 27.5167 31.6273 27.5232 31.6406C27.5297 31.6538 27.5387 31.6656 27.5498 31.6754C27.5608 31.6851 27.5737 31.6926 27.5876 31.6974C27.6015 31.7022 27.6163 31.7042 27.631 31.7032C27.6607 31.7014 27.6885 31.6878 27.7081 31.6655C27.7278 31.6432 27.7379 31.6139 27.736 31.5842C27.7341 31.5545 27.7206 31.5268 27.6982 31.5071C27.6759 31.4874 27.6467 31.4774 27.617 31.4792ZM20.355 32.0412C20.3288 32.0455 20.305 32.0591 20.2879 32.0795C20.2708 32.0999 20.2616 32.1257 20.262 32.1522C20.2618 32.1744 20.2682 32.1961 20.2803 32.2146C20.2925 32.2332 20.3098 32.2477 20.3302 32.2563C20.3506 32.265 20.3731 32.2674 20.3949 32.2633C20.4166 32.2591 20.4367 32.2487 20.4525 32.2331C20.4683 32.2176 20.4791 32.1978 20.4836 32.1761C20.4882 32.1544 20.4861 32.1318 20.4778 32.1113C20.4696 32.0908 20.4554 32.0731 20.4371 32.0607C20.4187 32.0482 20.3972 32.0414 20.375 32.0412H20.355ZM27.605 32.0412C27.5788 32.0455 27.555 32.0591 27.5379 32.0795C27.5208 32.0999 27.5116 32.1257 27.512 32.1522C27.5118 32.1744 27.5182 32.1961 27.5303 32.2146C27.5425 32.2332 27.5598 32.2477 27.5802 32.2563C27.6006 32.265 27.6231 32.2674 27.6449 32.2633C27.6666 32.2591 27.6867 32.2487 27.7025 32.2331C27.7183 32.2176 27.7291 32.1978 27.7336 32.1761C27.7382 32.1544 27.7361 32.1318 27.7278 32.1113C27.7196 32.0908 27.7054 32.0731 27.6871 32.0607C27.6687 32.0482 27.6472 32.0414 27.625 32.0412H27.605ZM24 32.0822C23.5824 32.0927 23.1855 32.2659 22.8939 32.5649C22.6022 32.8639 22.439 33.2651 22.439 33.6827C22.439 34.1004 22.6022 34.5016 22.8939 34.8006C23.1855 35.0996 23.5824 35.2728 24 35.2832C24.4245 35.2832 24.8316 35.1146 25.1317 34.8145C25.4319 34.5143 25.6005 34.1072 25.6005 33.6827C25.6005 33.2583 25.4319 32.8512 25.1317 32.551C24.8316 32.2509 24.4245 32.0822 24 32.0822ZM20.355 32.6032C20.3339 32.6067 20.3143 32.6161 20.2983 32.6303C20.2824 32.6446 20.2709 32.663 20.2651 32.6836C20.2594 32.7042 20.2596 32.726 20.2659 32.7464C20.2721 32.7669 20.284 32.7851 20.3003 32.799C20.3165 32.8128 20.3364 32.8218 20.3576 32.8247C20.3787 32.8277 20.4003 32.8245 20.4197 32.8156C20.4391 32.8067 20.4556 32.7924 20.4671 32.7744C20.4787 32.7565 20.4849 32.7356 20.485 32.7142C20.4845 32.6852 20.4727 32.6575 20.4522 32.637C20.4317 32.6165 20.404 32.6048 20.375 32.6042H20.355V32.6032ZM27.605 32.6032C27.5839 32.6067 27.5643 32.6161 27.5483 32.6303C27.5324 32.6446 27.5209 32.663 27.5151 32.6836C27.5094 32.7042 27.5096 32.726 27.5159 32.7464C27.5221 32.7669 27.534 32.7851 27.5503 32.799C27.5665 32.8128 27.5864 32.8218 27.6076 32.8247C27.6287 32.8277 27.6503 32.8245 27.6697 32.8156C27.6891 32.8067 27.7056 32.7924 27.7171 32.7744C27.7287 32.7565 27.7349 32.7356 27.735 32.7142C27.7345 32.6852 27.7227 32.6575 27.7022 32.637C27.6817 32.6165 27.654 32.6048 27.625 32.6042H27.605V32.6032ZM20.377 33.1642C20.362 33.1644 20.3472 33.1674 20.3335 33.1733C20.3197 33.1791 20.3072 33.1877 20.2967 33.1983C20.2862 33.209 20.2779 33.2217 20.2723 33.2355C20.2667 33.2494 20.2639 33.2643 20.264 33.2792C20.264 33.3412 20.314 33.3892 20.377 33.3892C20.3915 33.3894 20.4059 33.3866 20.4194 33.3812C20.4329 33.3757 20.4451 33.3676 20.4554 33.3574C20.4657 33.3471 20.4739 33.335 20.4795 33.3216C20.4851 33.3082 20.488 33.2938 20.488 33.2792C20.4883 33.2493 20.4768 33.2205 20.456 33.199C20.4353 33.1775 20.4069 33.165 20.377 33.1642ZM27.627 33.1642C27.612 33.1644 27.5972 33.1674 27.5835 33.1733C27.5697 33.1791 27.5572 33.1877 27.5467 33.1983C27.5362 33.209 27.5279 33.2217 27.5223 33.2355C27.5167 33.2494 27.5139 33.2643 27.514 33.2792C27.514 33.3412 27.564 33.3892 27.627 33.3892C27.6415 33.3894 27.6559 33.3866 27.6694 33.3812C27.6829 33.3757 27.6951 33.3676 27.7054 33.3574C27.7157 33.3471 27.7239 33.335 27.7295 33.3216C27.7351 33.3082 27.738 33.2938 27.738 33.2792C27.7383 33.2493 27.7268 33.2205 27.706 33.199C27.6853 33.1775 27.6569 33.165 27.627 33.1642ZM20.367 33.7272C20.3377 33.7283 20.3099 33.7408 20.2897 33.7621C20.2695 33.7834 20.2585 33.8118 20.259 33.8412C20.2595 33.8705 20.2716 33.8985 20.2925 33.9191C20.3135 33.9396 20.3416 33.9512 20.371 33.9512C20.4004 33.9512 20.4285 33.9396 20.4495 33.9191C20.4704 33.8985 20.4825 33.8705 20.483 33.8412C20.4835 33.8118 20.4725 33.7834 20.4523 33.7621C20.4321 33.7408 20.4043 33.7283 20.375 33.7272C20.3723 33.7271 20.3697 33.7271 20.367 33.7272ZM27.617 33.7272C27.5877 33.7283 27.5599 33.7408 27.5397 33.7621C27.5195 33.7834 27.5085 33.8118 27.509 33.8412C27.5095 33.8705 27.5216 33.8985 27.5425 33.9191C27.5635 33.9396 27.5916 33.9512 27.621 33.9512C27.6504 33.9512 27.6785 33.9396 27.6995 33.9191C27.7204 33.8985 27.7325 33.8705 27.733 33.8412C27.7335 33.8118 27.7225 33.7834 27.7023 33.7621C27.6821 33.7408 27.6543 33.7283 27.625 33.7272C27.6223 33.7271 27.6197 33.7271 27.617 33.7272ZM16.723 34.0942C16.5096 34.0889 16.2973 34.1263 16.0985 34.2043C15.8998 34.2823 15.7187 34.3993 15.5659 34.5483C15.413 34.6974 15.2916 34.8755 15.2087 35.0722C15.1257 35.2689 15.083 35.4803 15.083 35.6937C15.083 35.9072 15.1257 36.1185 15.2087 36.3153C15.2916 36.512 15.413 36.6901 15.5659 36.8392C15.7187 36.9882 15.8998 37.1052 16.0985 37.1832C16.2973 37.2611 16.5096 37.2986 16.723 37.2932C17.1473 37.2932 17.5543 37.1247 17.8544 36.8246C18.1544 36.5246 18.323 36.1176 18.323 35.6932C18.323 35.2689 18.1544 34.8619 17.8544 34.5619C17.5543 34.2618 17.1473 34.0932 16.723 34.0932V34.0942ZM31.275 34.0942C31.0616 34.0889 30.8493 34.1263 30.6505 34.2043C30.4518 34.2823 30.2707 34.3993 30.1179 34.5483C29.965 34.6974 29.8436 34.8755 29.7607 35.0722C29.6777 35.2689 29.635 35.4803 29.635 35.6937C29.635 35.9072 29.6777 36.1185 29.7607 36.3153C29.8436 36.512 29.965 36.6901 30.1179 36.8392C30.2707 36.9882 30.4518 37.1052 30.6505 37.1832C30.8493 37.2611 31.0616 37.2986 31.275 37.2932C31.6993 37.2932 32.1063 37.1247 32.4064 36.8246C32.7064 36.5246 32.875 36.1176 32.875 35.6932C32.875 35.2689 32.7064 34.8619 32.4064 34.5619C32.1063 34.2618 31.6993 34.0932 31.275 34.0932V34.0942ZM20.367 34.2892C20.3377 34.2903 20.3099 34.3028 20.2897 34.3241C20.2695 34.3454 20.2585 34.3738 20.259 34.4032C20.2595 34.4325 20.2716 34.4605 20.2925 34.4811C20.3135 34.5016 20.3416 34.5132 20.371 34.5132C20.4004 34.5132 20.4285 34.5016 20.4495 34.4811C20.4704 34.4605 20.4825 34.4325 20.483 34.4032C20.4835 34.3738 20.4725 34.3454 20.4523 34.3241C20.4321 34.3028 20.4043 34.2903 20.375 34.2892C20.3723 34.289 20.3697 34.289 20.367 34.2892ZM27.617 34.2892C27.5877 34.2903 27.5599 34.3028 27.5397 34.3241C27.5195 34.3454 27.5085 34.3738 27.509 34.4032C27.5095 34.4325 27.5216 34.4605 27.5425 34.4811C27.5635 34.5016 27.5916 34.5132 27.621 34.5132C27.6504 34.5132 27.6785 34.5016 27.6995 34.4811C27.7204 34.4605 27.7325 34.4325 27.733 34.4032C27.7335 34.3738 27.7225 34.3454 27.7023 34.3241C27.6821 34.3028 27.6543 34.2903 27.625 34.2892C27.6223 34.289 27.6197 34.289 27.617 34.2892ZM20.367 34.8522C20.3373 34.8533 20.3092 34.8661 20.289 34.8879C20.2687 34.9096 20.2579 34.9385 20.259 34.9682C20.2601 34.9979 20.2729 35.026 20.2946 35.0463C20.3164 35.0665 20.3453 35.0773 20.375 35.0762C20.3897 35.0757 20.4042 35.0723 20.4176 35.0662C20.4309 35.0601 20.443 35.0514 20.453 35.0406C20.4631 35.0298 20.4709 35.0172 20.476 35.0034C20.4811 34.9896 20.4835 34.9749 20.483 34.9602C20.4825 34.9455 20.4791 34.9311 20.4729 34.9177C20.4668 34.9043 20.4581 34.8922 20.4474 34.8822C20.4366 34.8722 20.424 34.8644 20.4102 34.8592C20.3964 34.8541 20.3817 34.8517 20.367 34.8522ZM27.617 34.8522C27.5873 34.8533 27.5592 34.8661 27.539 34.8879C27.5187 34.9096 27.5079 34.9385 27.509 34.9682C27.5101 34.9979 27.5229 35.026 27.5446 35.0463C27.5664 35.0665 27.5953 35.0773 27.625 35.0762C27.6397 35.0757 27.6542 35.0723 27.6676 35.0662C27.6809 35.0601 27.693 35.0514 27.703 35.0406C27.7131 35.0298 27.7209 35.0172 27.726 35.0034C27.7311 34.9896 27.7335 34.9749 27.733 34.9602C27.7325 34.9455 27.7291 34.9311 27.7229 34.9177C27.7168 34.9043 27.7081 34.8922 27.6974 34.8822C27.6866 34.8722 27.674 34.8644 27.6602 34.8592C27.6464 34.8541 27.6317 34.8517 27.617 34.8522ZM20.367 35.4142C20.3523 35.4152 20.3379 35.419 20.3247 35.4254C20.3114 35.4319 20.2996 35.4409 20.2899 35.452C20.2801 35.463 20.2726 35.4759 20.2678 35.4898C20.2631 35.5038 20.2611 35.5185 20.262 35.5332C20.2629 35.5479 20.2667 35.5623 20.2732 35.5756C20.2797 35.5888 20.2887 35.6006 20.2998 35.6104C20.3108 35.6201 20.3237 35.6276 20.3376 35.6324C20.3515 35.6372 20.3663 35.6392 20.381 35.6382C20.4107 35.6364 20.4385 35.6228 20.4581 35.6005C20.4778 35.5782 20.4879 35.5489 20.486 35.5192C20.4841 35.4895 20.4706 35.4618 20.4482 35.4421C20.4259 35.4224 20.3967 35.4124 20.367 35.4142ZM27.617 35.4142C27.6023 35.4152 27.5879 35.419 27.5747 35.4254C27.5614 35.4319 27.5496 35.4409 27.5399 35.452C27.5301 35.463 27.5226 35.4759 27.5178 35.4898C27.5131 35.5038 27.5111 35.5185 27.512 35.5332C27.5129 35.5479 27.5167 35.5623 27.5232 35.5756C27.5297 35.5888 27.5387 35.6006 27.5498 35.6104C27.5608 35.6201 27.5737 35.6276 27.5876 35.6324C27.6015 35.6372 27.6163 35.6392 27.631 35.6382C27.6607 35.6364 27.6885 35.6228 27.7081 35.6005C27.7278 35.5782 27.7379 35.5489 27.736 35.5192C27.7341 35.4895 27.7206 35.4618 27.6982 35.4421C27.6759 35.4224 27.6467 35.4124 27.617 35.4142ZM24 35.9202C23.7866 35.9149 23.5743 35.9523 23.3755 36.0303C23.1768 36.1083 22.9957 36.2253 22.8429 36.3743C22.69 36.5234 22.5686 36.7015 22.4857 36.8982C22.4027 37.0949 22.36 37.3063 22.36 37.5197C22.36 37.7332 22.4027 37.9445 22.4857 38.1413C22.5686 38.338 22.69 38.5161 22.8429 38.6652C22.9957 38.8142 23.1768 38.9312 23.3755 39.0092C23.5743 39.0871 23.7866 39.1246 24 39.1192C24.4243 39.1192 24.8313 38.9507 25.1314 38.6506C25.4314 38.3506 25.6 37.9436 25.6 37.5192C25.6 37.0949 25.4314 36.6879 25.1314 36.3879C24.8313 36.0878 24.4243 35.9192 24 35.9192V35.9202ZM20.367 35.9772C20.3373 35.9791 20.3095 35.9927 20.2899 36.015C20.2702 36.0373 20.2601 36.0665 20.262 36.0962C20.2639 36.1259 20.2774 36.1537 20.2998 36.1734C20.3221 36.1931 20.3513 36.2031 20.381 36.2012C20.3957 36.2003 20.4101 36.1965 20.4233 36.19C20.4366 36.1836 20.4484 36.1745 20.4581 36.1635C20.4679 36.1524 20.4754 36.1396 20.4802 36.1256C20.4849 36.1117 20.4869 36.0969 20.486 36.0822C20.4851 36.0675 20.4813 36.0531 20.4748 36.0399C20.4683 36.0267 20.4593 36.0148 20.4482 36.0051C20.4372 35.9953 20.4243 35.9879 20.4104 35.9831C20.3965 35.9783 20.3817 35.9763 20.367 35.9772ZM27.617 35.9772C27.6023 35.9782 27.5879 35.982 27.5747 35.9884C27.5614 35.9949 27.5496 36.0039 27.5399 36.015C27.5301 36.026 27.5226 36.0389 27.5178 36.0528C27.5131 36.0668 27.5111 36.0815 27.512 36.0962C27.5129 36.1109 27.5167 36.1253 27.5232 36.1386C27.5297 36.1518 27.5387 36.1636 27.5498 36.1734C27.5608 36.1831 27.5737 36.1906 27.5876 36.1954C27.6015 36.2002 27.6163 36.2022 27.631 36.2012C27.6607 36.1994 27.6885 36.1858 27.7081 36.1635C27.7278 36.1412 27.7379 36.1119 27.736 36.0822C27.7341 36.0525 27.7206 36.0248 27.6982 36.0051C27.6759 35.9854 27.6467 35.9754 27.617 35.9772ZM20.367 36.5392C20.3389 36.5427 20.3132 36.5565 20.2949 36.578C20.2765 36.5996 20.2669 36.6272 20.2679 36.6554C20.2689 36.6837 20.2805 36.7105 20.3003 36.7306C20.3201 36.7508 20.3468 36.7628 20.375 36.7642C20.3898 36.7637 20.4043 36.7603 20.4177 36.7541C20.4312 36.748 20.4433 36.7393 20.4534 36.7285C20.4635 36.7176 20.4713 36.7049 20.4765 36.6911C20.4816 36.6772 20.484 36.6625 20.4835 36.6477C20.483 36.633 20.4795 36.6184 20.4734 36.605C20.4673 36.5915 20.4585 36.5794 20.4477 36.5694C20.4369 36.5593 20.4242 36.5514 20.4104 36.5463C20.3965 36.5411 20.3818 36.5387 20.367 36.5392ZM27.617 36.5392C27.5889 36.5427 27.5632 36.5565 27.5449 36.578C27.5265 36.5996 27.5169 36.6272 27.5179 36.6554C27.5189 36.6837 27.5305 36.7105 27.5503 36.7306C27.5701 36.7508 27.5968 36.7628 27.625 36.7642C27.6398 36.7637 27.6543 36.7603 27.6677 36.7541C27.6812 36.748 27.6933 36.7393 27.7034 36.7285C27.7135 36.7176 27.7213 36.7049 27.7265 36.6911C27.7316 36.6772 27.734 36.6625 27.7335 36.6477C27.733 36.633 27.7295 36.6184 27.7234 36.605C27.7173 36.5915 27.7085 36.5794 27.6977 36.5694C27.6869 36.5593 27.6742 36.5514 27.6604 36.5463C27.6465 36.5411 27.6318 36.5387 27.617 36.5392ZM20.355 37.1022C20.3289 37.1065 20.3053 37.1199 20.2882 37.1401C20.2712 37.1603 20.2619 37.1858 20.262 37.2122C20.262 37.2752 20.312 37.3252 20.375 37.3242C20.436 37.3242 20.485 37.2742 20.486 37.2132C20.486 37.1522 20.436 37.1032 20.375 37.1022H20.355ZM27.605 37.1022C27.5789 37.1065 27.5553 37.1199 27.5382 37.1401C27.5212 37.1603 27.5119 37.1858 27.512 37.2122C27.512 37.2752 27.562 37.3252 27.625 37.3242C27.686 37.3242 27.735 37.2742 27.736 37.2132C27.736 37.1522 27.686 37.1032 27.625 37.1022H27.605ZM20.367 37.6622C20.3377 37.6633 20.3099 37.6758 20.2897 37.6971C20.2695 37.7184 20.2585 37.7468 20.259 37.7762C20.2595 37.8055 20.2716 37.8335 20.2925 37.8541C20.3135 37.8746 20.3416 37.8862 20.371 37.8862C20.4004 37.8862 20.4285 37.8746 20.4495 37.8541C20.4704 37.8335 20.4825 37.8055 20.483 37.7762C20.4835 37.7468 20.4725 37.7184 20.4523 37.6971C20.4321 37.6758 20.4043 37.6633 20.375 37.6622H20.367ZM27.617 37.6622C27.5877 37.6633 27.5599 37.6758 27.5397 37.6971C27.5195 37.7184 27.5085 37.7468 27.509 37.7762C27.5095 37.8055 27.5216 37.8335 27.5425 37.8541C27.5635 37.8746 27.5916 37.8862 27.621 37.8862C27.6504 37.8862 27.6785 37.8746 27.6995 37.8541C27.7204 37.8335 27.7325 37.8055 27.733 37.7762C27.7335 37.7468 27.7225 37.7184 27.7023 37.6971C27.6821 37.6758 27.6543 37.6633 27.625 37.6622H27.617ZM16.723 37.8982C15.881 37.8982 15.201 38.5802 15.201 39.4222C15.201 39.826 15.3614 40.2133 15.6469 40.4988C15.9325 40.7843 16.3197 40.9447 16.7235 40.9447C17.1273 40.9447 17.5145 40.7843 17.8001 40.4988C18.0856 40.2133 18.246 39.826 18.246 39.4222C18.246 38.5812 17.564 37.8982 16.723 37.8982ZM31.275 37.8982C30.8709 37.8982 30.4834 38.0587 30.1977 38.3445C29.912 38.6302 29.7515 39.0177 29.7515 39.4217C29.7515 39.8258 29.912 40.2133 30.1977 40.499C30.4834 40.7847 30.8709 40.9452 31.275 40.9452C31.6791 40.9452 32.0666 40.7847 32.3523 40.499C32.638 40.2133 32.7985 39.8258 32.7985 39.4217C32.7985 39.0177 32.638 38.6302 32.3523 38.3445C32.0666 38.0587 31.6791 37.8982 31.275 37.8982ZM20.367 38.2252C20.3384 38.227 20.3115 38.2398 20.2919 38.2608C20.2724 38.2818 20.2617 38.3095 20.262 38.3382C20.262 38.4002 20.312 38.4502 20.375 38.4492C20.4047 38.4492 20.4332 38.4374 20.4542 38.4164C20.4752 38.3954 20.487 38.3669 20.487 38.3372C20.487 38.3075 20.4752 38.279 20.4542 38.258C20.4332 38.237 20.4047 38.2252 20.375 38.2252C20.3723 38.2251 20.3697 38.2251 20.367 38.2252ZM27.617 38.2252C27.5884 38.227 27.5615 38.2398 27.5419 38.2608C27.5224 38.2818 27.5117 38.3095 27.512 38.3382C27.512 38.4002 27.562 38.4502 27.625 38.4492C27.6547 38.4492 27.6832 38.4374 27.7042 38.4164C27.7252 38.3954 27.737 38.3669 27.737 38.3372C27.737 38.3075 27.7252 38.279 27.7042 38.258C27.6832 38.237 27.6547 38.2252 27.625 38.2252C27.6223 38.2251 27.6197 38.2251 27.617 38.2252ZM20.367 38.7872C20.3523 38.7882 20.3379 38.792 20.3247 38.7984C20.3114 38.8049 20.2996 38.8139 20.2899 38.825C20.2801 38.836 20.2726 38.8489 20.2678 38.8628C20.2631 38.8768 20.2611 38.8915 20.262 38.9062C20.2629 38.9209 20.2667 38.9353 20.2732 38.9486C20.2797 38.9618 20.2887 38.9736 20.2998 38.9834C20.3108 38.9931 20.3237 39.0006 20.3376 39.0054C20.3515 39.0102 20.3663 39.0122 20.381 39.0112C20.4107 39.0094 20.4385 38.9958 20.4581 38.9735C20.4778 38.9512 20.4879 38.9219 20.486 38.8922C20.4841 38.8625 20.4706 38.8348 20.4482 38.8151C20.4259 38.7954 20.3967 38.7854 20.367 38.7872ZM27.617 38.7872C27.6023 38.7882 27.5879 38.792 27.5747 38.7984C27.5614 38.8049 27.5496 38.8139 27.5399 38.825C27.5301 38.836 27.5226 38.8489 27.5178 38.8628C27.5131 38.8768 27.5111 38.8915 27.512 38.9062C27.5129 38.9209 27.5167 38.9353 27.5232 38.9486C27.5297 38.9618 27.5387 38.9736 27.5498 38.9834C27.5608 38.9931 27.5737 39.0006 27.5876 39.0054C27.6015 39.0102 27.6163 39.0122 27.631 39.0112C27.6607 39.0094 27.6885 38.9958 27.7081 38.9735C27.7278 38.9512 27.7379 38.9219 27.736 38.8922C27.7341 38.8625 27.7206 38.8348 27.6982 38.8151C27.6759 38.7954 27.6467 38.7854 27.617 38.7872ZM20.367 39.3502C20.3523 39.3512 20.3379 39.355 20.3247 39.3614C20.3114 39.3679 20.2996 39.3769 20.2899 39.388C20.2801 39.399 20.2726 39.4119 20.2678 39.4258C20.2631 39.4398 20.2611 39.4545 20.262 39.4692C20.2629 39.4839 20.2667 39.4983 20.2732 39.5116C20.2797 39.5248 20.2887 39.5366 20.2998 39.5464C20.3108 39.5561 20.3237 39.5636 20.3376 39.5684C20.3515 39.5732 20.3663 39.5752 20.381 39.5742C20.4107 39.5724 20.4385 39.5588 20.4581 39.5365C20.4778 39.5142 20.4879 39.4849 20.486 39.4552C20.4841 39.4255 20.4706 39.3978 20.4482 39.3781C20.4259 39.3584 20.3967 39.3484 20.367 39.3502ZM27.617 39.3502C27.6023 39.3512 27.5879 39.355 27.5747 39.3614C27.5614 39.3679 27.5496 39.3769 27.5399 39.388C27.5301 39.399 27.5226 39.4119 27.5178 39.4258C27.5131 39.4398 27.5111 39.4545 27.512 39.4692C27.5129 39.4839 27.5167 39.4983 27.5232 39.5116C27.5297 39.5248 27.5387 39.5366 27.5498 39.5464C27.5608 39.5561 27.5737 39.5636 27.5876 39.5684C27.6015 39.5732 27.6163 39.5752 27.631 39.5742C27.6607 39.5724 27.6885 39.5588 27.7081 39.5365C27.7278 39.5142 27.7379 39.4849 27.736 39.4552C27.7341 39.4255 27.7206 39.3978 27.6982 39.3781C27.6759 39.3584 27.6467 39.3484 27.617 39.3502ZM20.367 39.9122C20.3523 39.9132 20.3379 39.917 20.3247 39.9234C20.3114 39.9299 20.2996 39.9389 20.2899 39.95C20.2801 39.961 20.2726 39.9739 20.2678 39.9878C20.2631 40.0018 20.2611 40.0165 20.262 40.0312C20.2629 40.0459 20.2667 40.0603 20.2732 40.0736C20.2797 40.0868 20.2887 40.0986 20.2998 40.1084C20.3108 40.1181 20.3237 40.1256 20.3376 40.1304C20.3515 40.1352 20.3663 40.1372 20.381 40.1362C20.4107 40.1344 20.4385 40.1208 20.4581 40.0985C20.4778 40.0762 20.4879 40.0469 20.486 40.0172C20.4841 39.9875 20.4706 39.9598 20.4482 39.9401C20.4259 39.9204 20.3967 39.9104 20.367 39.9122ZM27.617 39.9122C27.6023 39.9132 27.5879 39.917 27.5747 39.9234C27.5614 39.9299 27.5496 39.9389 27.5399 39.95C27.5301 39.961 27.5226 39.9739 27.5178 39.9878C27.5131 40.0018 27.5111 40.0165 27.512 40.0312C27.5129 40.0459 27.5167 40.0603 27.5232 40.0736C27.5297 40.0868 27.5387 40.0986 27.5498 40.1084C27.5608 40.1181 27.5737 40.1256 27.5876 40.1304C27.6015 40.1352 27.6163 40.1372 27.631 40.1362C27.6607 40.1344 27.6885 40.1208 27.7081 40.0985C27.7278 40.0762 27.7379 40.0469 27.736 40.0172C27.7341 39.9875 27.7206 39.9598 27.6982 39.9401C27.6759 39.9204 27.6467 39.9104 27.617 39.9122ZM20.367 40.4752C20.3511 40.4744 20.3351 40.4769 20.3202 40.4826C20.3053 40.4883 20.2918 40.4971 20.2806 40.5084C20.2693 40.5198 20.2606 40.5334 20.255 40.5483C20.2494 40.5632 20.247 40.5792 20.248 40.5951C20.249 40.611 20.2533 40.6266 20.2608 40.6407C20.2682 40.6548 20.2785 40.6672 20.2911 40.677C20.3037 40.6869 20.3182 40.6939 20.3337 40.6978C20.3492 40.7016 20.3653 40.7021 20.381 40.6992C20.4082 40.6943 20.4327 40.6795 20.4497 40.6577C20.4668 40.6359 20.4753 40.6086 20.4735 40.581C20.4718 40.5534 20.46 40.5274 20.4404 40.5079C20.4207 40.4884 20.3946 40.4768 20.367 40.4752ZM27.617 40.4752C27.6011 40.4744 27.5851 40.4769 27.5702 40.4826C27.5553 40.4883 27.5418 40.4971 27.5306 40.5084C27.5193 40.5198 27.5106 40.5334 27.505 40.5483C27.4994 40.5632 27.497 40.5792 27.498 40.5951C27.499 40.611 27.5033 40.6266 27.5108 40.6407C27.5182 40.6548 27.5285 40.6672 27.5411 40.677C27.5537 40.6869 27.5682 40.6939 27.5837 40.6978C27.5992 40.7016 27.6153 40.7021 27.631 40.6992C27.6582 40.6943 27.6827 40.6795 27.6997 40.6577C27.7168 40.6359 27.7253 40.6086 27.7235 40.581C27.7218 40.5534 27.71 40.5274 27.6904 40.5079C27.6707 40.4884 27.6446 40.4768 27.617 40.4752ZM20.355 41.0372C20.3288 41.0415 20.305 41.0551 20.2879 41.0755C20.2708 41.0959 20.2616 41.1217 20.262 41.1482C20.2616 41.1704 20.2678 41.1922 20.2798 41.2109C20.2918 41.2295 20.3091 41.2442 20.3295 41.253C20.3499 41.2618 20.3724 41.2644 20.3942 41.2604C20.4161 41.2564 20.4362 41.246 20.4521 41.2305C20.468 41.215 20.479 41.1952 20.4836 41.1734C20.4881 41.1517 20.4862 41.1291 20.4779 41.1085C20.4697 41.0879 20.4555 41.0703 20.4372 41.0577C20.4188 41.0452 20.3972 41.0384 20.375 41.0382C20.367 41.0362 20.365 41.0362 20.357 41.0382H20.355V41.0372ZM27.605 41.0372C27.5788 41.0415 27.555 41.0551 27.5379 41.0755C27.5208 41.0959 27.5116 41.1217 27.512 41.1482C27.5116 41.1704 27.5178 41.1922 27.5298 41.2109C27.5418 41.2295 27.5591 41.2442 27.5795 41.253C27.5999 41.2618 27.6224 41.2644 27.6442 41.2604C27.6661 41.2564 27.6862 41.246 27.7021 41.2305C27.718 41.215 27.729 41.1952 27.7336 41.1734C27.7381 41.1517 27.7362 41.1291 27.7279 41.1085C27.7197 41.0879 27.7055 41.0703 27.6872 41.0577C27.6688 41.0452 27.6472 41.0384 27.625 41.0382C27.617 41.0362 27.615 41.0362 27.607 41.0382H27.605V41.0372ZM20.355 41.6002C20.3339 41.6037 20.3143 41.6131 20.2983 41.6273C20.2824 41.6415 20.2709 41.66 20.2651 41.6806C20.2594 41.7012 20.2596 41.723 20.2659 41.7434C20.2721 41.7639 20.284 41.7821 20.3003 41.796C20.3165 41.8098 20.3364 41.8188 20.3576 41.8217C20.3787 41.8247 20.4003 41.8215 20.4197 41.8126C20.4391 41.8037 20.4556 41.7894 20.4671 41.7715C20.4787 41.7535 20.4849 41.7326 20.485 41.7112C20.485 41.6502 20.436 41.6012 20.375 41.6002H20.355ZM27.605 41.6002C27.5839 41.6037 27.5643 41.6131 27.5483 41.6273C27.5324 41.6415 27.5209 41.66 27.5151 41.6806C27.5094 41.7012 27.5096 41.723 27.5159 41.7434C27.5221 41.7639 27.534 41.7821 27.5503 41.796C27.5665 41.8098 27.5864 41.8188 27.6076 41.8217C27.6287 41.8247 27.6503 41.8215 27.6697 41.8126C27.6891 41.8037 27.7056 41.7894 27.7171 41.7715C27.7287 41.7535 27.7349 41.7326 27.735 41.7112C27.735 41.6502 27.686 41.6012 27.625 41.6002H27.605ZM20.377 42.1602C20.3622 42.1601 20.3476 42.1629 20.3339 42.1684C20.3202 42.174 20.3077 42.1821 20.2972 42.1925C20.2759 42.2134 20.2638 42.2419 20.2635 42.2717C20.2632 42.3016 20.2748 42.3303 20.2957 42.3516C20.3167 42.3729 20.3452 42.385 20.375 42.3852C20.4048 42.3855 20.4336 42.3739 20.4548 42.353C20.4761 42.3321 20.4882 42.3036 20.4885 42.2737C20.4888 42.2439 20.4772 42.2152 20.4563 42.1939C20.4353 42.1726 20.4068 42.1605 20.377 42.1602ZM27.627 42.1602C27.6122 42.1601 27.5976 42.1629 27.5839 42.1684C27.5702 42.174 27.5577 42.1821 27.5472 42.1925C27.5366 42.2028 27.5282 42.2152 27.5224 42.2288C27.5167 42.2424 27.5136 42.257 27.5135 42.2717C27.5134 42.2865 27.5161 42.3012 27.5217 42.3149C27.5272 42.3286 27.5354 42.341 27.5457 42.3516C27.5561 42.3621 27.5684 42.3705 27.582 42.3763C27.5956 42.3821 27.6102 42.3851 27.625 42.3852C27.6548 42.3855 27.6836 42.3739 27.7048 42.353C27.7261 42.3321 27.7382 42.3036 27.7385 42.2737C27.7388 42.2439 27.7272 42.2152 27.7063 42.1939C27.6853 42.1726 27.6568 42.1605 27.627 42.1602ZM20.367 42.7232C20.3377 42.7243 20.3099 42.7368 20.2897 42.7581C20.2695 42.7794 20.2585 42.8078 20.259 42.8372C20.2595 42.8665 20.2716 42.8945 20.2925 42.9151C20.3135 42.9356 20.3416 42.9472 20.371 42.9472C20.4004 42.9472 20.4285 42.9356 20.4495 42.9151C20.4704 42.8945 20.4825 42.8665 20.483 42.8372C20.4835 42.8078 20.4725 42.7794 20.4523 42.7581C20.4321 42.7368 20.4043 42.7243 20.375 42.7232C20.3723 42.723 20.3697 42.723 20.367 42.7232ZM27.617 42.7232C27.5877 42.7243 27.5599 42.7368 27.5397 42.7581C27.5195 42.7794 27.5085 42.8078 27.509 42.8372C27.5095 42.8665 27.5216 42.8945 27.5425 42.9151C27.5635 42.9356 27.5916 42.9472 27.621 42.9472C27.6504 42.9472 27.6785 42.9356 27.6995 42.9151C27.7204 42.8945 27.7325 42.8665 27.733 42.8372C27.7335 42.8078 27.7225 42.7794 27.7023 42.7581C27.6821 42.7368 27.6543 42.7243 27.625 42.7232C27.6223 42.723 27.6197 42.723 27.617 42.7232Z" fill="#333333"/>
</g>
<defs>
<clipPath id="clip0">
<rect width="48" height="48" fill="white"/>
</clipPath>
</defs>
</svg>
