<svg width="48" height="48" viewBox="0 0 48 48" fill="none" xmlns="http://www.w3.org/2000/svg">
<path d="M14.1465 4.04492C13.277 4.04492 12.5801 4.74384 12.5801 5.61328V42.4746C12.5801 43.344 13.277 44.0449 14.1465 44.0449H33.8516C34.721 44.0449 35.4199 43.344 35.4199 42.4746V5.61328C35.4199 4.74384 34.721 4.04492 33.8516 4.04492H14.1465ZM30.8437 4.7793H30.8457C30.8479 4.77927 30.8497 4.77924 30.8516 4.7793C30.9128 4.78005 30.9624 4.8294 30.9629 4.89062C30.9636 4.95261 30.9135 5.00341 30.8516 5.00391C30.7888 5.00428 30.7396 4.95336 30.7402 4.89062C30.7406 4.83193 30.7857 4.78377 30.8437 4.7793ZM30.8437 5.3418H30.8457C30.8479 5.34177 30.8497 5.34174 30.8516 5.3418C30.9128 5.34255 30.9624 5.3919 30.9629 5.45312C30.9636 5.51511 30.9135 5.56591 30.8516 5.56641C30.7888 5.56678 30.7396 5.51586 30.7402 5.45312C30.7406 5.39443 30.7857 5.34626 30.8437 5.3418ZM30.8437 5.9043H30.8457C30.8479 5.90427 30.8497 5.90424 30.8516 5.9043C30.9128 5.90505 30.9624 5.9544 30.9629 6.01562C30.9636 6.07761 30.9135 6.12841 30.8516 6.12891C30.7888 6.12928 30.7396 6.07836 30.7402 6.01562C30.7406 5.9573 30.7857 5.90877 30.8437 5.9043ZM30.834 6.4668H30.8359C30.8435 6.46623 30.844 6.46623 30.8516 6.4668C30.9128 6.46755 30.9624 6.5169 30.9629 6.57812C30.9625 6.63973 30.9128 6.68896 30.8516 6.68945C30.7892 6.68983 30.7407 6.64011 30.7402 6.57812C30.7399 6.52294 30.7796 6.47436 30.834 6.4668ZM30.8535 7.02734C30.9159 7.0281 30.9654 7.07864 30.9648 7.14062C30.9641 7.20223 30.9147 7.25146 30.8535 7.25195C30.7912 7.25271 30.7407 7.20261 30.7402 7.14062C30.7399 7.07788 30.7908 7.02674 30.8535 7.02734ZM30.8437 7.58984H30.8457C30.8479 7.5898 30.8497 7.58976 30.8516 7.58984C30.9135 7.5906 30.9635 7.64114 30.9629 7.70312C30.9625 7.76435 30.9128 7.81396 30.8516 7.81445C30.7892 7.81483 30.7407 7.76511 30.7402 7.70312C30.7395 7.64367 30.7849 7.59435 30.8437 7.58984ZM30.8437 8.15234H30.8457C30.8479 8.15231 30.8497 8.15229 30.8516 8.15234C30.9135 8.1531 30.9635 8.20364 30.9629 8.26562C30.9625 8.32723 30.9128 8.3765 30.8516 8.37695C30.7892 8.37733 30.7407 8.32761 30.7402 8.26562C30.7395 8.20617 30.7849 8.15689 30.8437 8.15234ZM30.8437 8.71484H30.8457C30.8479 8.71481 30.8497 8.71479 30.8516 8.71484C30.9135 8.7156 30.9635 8.76614 30.9629 8.82812C30.9625 8.88973 30.9128 8.93896 30.8516 8.93945C30.7892 8.93983 30.7407 8.89011 30.7402 8.82812C30.7395 8.76867 30.7849 8.71935 30.8437 8.71484ZM30.8437 9.27734H30.8457C30.8479 9.27731 30.8497 9.27729 30.8516 9.27734C30.9128 9.2781 30.9624 9.32744 30.9629 9.38867C30.9636 9.45066 30.9135 9.50146 30.8516 9.50195C30.7888 9.50233 30.7396 9.45141 30.7402 9.38867C30.7406 9.33035 30.7857 9.28181 30.8437 9.27734ZM30.8437 9.83984H30.8457C30.8479 9.8398 30.8497 9.83976 30.8516 9.83984C30.9128 9.8406 30.9624 9.88994 30.9629 9.95117C30.9636 10.0132 30.9135 10.064 30.8516 10.0645C30.7888 10.0648 30.7396 10.0139 30.7402 9.95117C30.7406 9.89247 30.7857 9.8443 30.8437 9.83984ZM24.4023 10.3242C25.286 10.3243 26.0019 11.0402 26.002 11.9238C26.0019 12.8075 25.286 13.5234 24.4023 13.5234C23.5187 13.5234 22.8028 12.8075 22.8027 11.9238C22.8028 11.0402 23.5187 10.3243 24.4023 10.3242ZM30.834 10.4023H30.8359C30.8435 10.4018 30.844 10.4018 30.8516 10.4023C30.9128 10.4031 30.9624 10.4524 30.9629 10.5137C30.9636 10.5757 30.9135 10.6265 30.8516 10.627C30.7888 10.6273 30.7396 10.5764 30.7402 10.5137C30.7399 10.4585 30.7796 10.4099 30.834 10.4023ZM30.8535 10.9629C30.9159 10.9636 30.9654 11.0142 30.9648 11.0762C30.9641 11.1378 30.9147 11.187 30.8535 11.1875C30.7912 11.1879 30.7407 11.1382 30.7402 11.0762C30.7399 11.0134 30.7908 10.9623 30.8535 10.9629ZM30.8535 11.5254C30.9159 11.5261 30.9654 11.5767 30.9648 11.6387C30.9641 11.6999 30.9147 11.7495 30.8535 11.75C30.7912 11.7511 30.7407 11.7007 30.7402 11.6387C30.7399 11.5759 30.7908 11.5248 30.8535 11.5254ZM30.8437 12.0879H30.8457C30.8479 12.0878 30.8497 12.0878 30.8516 12.0879C30.9135 12.0886 30.9635 12.1392 30.9629 12.2012C30.9625 12.2624 30.9128 12.312 30.8516 12.3125C30.7892 12.3133 30.7407 12.2632 30.7402 12.2012C30.7395 12.1417 30.7849 12.0924 30.8437 12.0879ZM30.8437 12.6504H30.8457C30.8479 12.6504 30.8497 12.6503 30.8516 12.6504C30.9135 12.6508 30.9635 12.7017 30.9629 12.7637C30.9625 12.8249 30.9128 12.8745 30.8516 12.875C30.7892 12.8758 30.7407 12.8257 30.7402 12.7637C30.7395 12.7042 30.7849 12.6549 30.8437 12.6504ZM18.8398 13.0117C19.7235 13.0118 20.4394 13.7277 20.4395 14.6113C20.4394 15.495 19.7235 16.2109 18.8398 16.2109C17.9562 16.2109 17.2403 15.495 17.2402 14.6113C17.2403 13.7277 17.9562 13.0118 18.8398 13.0117ZM30.8437 13.2129H30.8457C30.8479 13.2129 30.8497 13.2128 30.8516 13.2129C30.9128 13.2136 30.9624 13.263 30.9629 13.3242C30.9636 13.3862 30.9135 13.437 30.8516 13.4375C30.7888 13.4379 30.7396 13.387 30.7402 13.3242C30.7406 13.2655 30.7857 13.2174 30.8437 13.2129ZM30.8437 13.7754H30.8457C30.8479 13.7754 30.8497 13.7753 30.8516 13.7754C30.9128 13.7761 30.9624 13.8255 30.9629 13.8867C30.9636 13.9487 30.9135 13.9995 30.8516 14C30.7888 14.0004 30.7396 13.9495 30.7402 13.8867C30.7406 13.8284 30.7857 13.7799 30.8437 13.7754ZM30.8437 14.3379H30.8457C30.8479 14.3378 30.8497 14.3378 30.8516 14.3379C30.9128 14.3383 30.9624 14.388 30.9629 14.4492C30.9636 14.5112 30.9135 14.562 30.8516 14.5625C30.7888 14.5629 30.7396 14.512 30.7402 14.4492C30.7406 14.3909 30.7857 14.3424 30.8437 14.3379ZM30.834 14.9004H30.8359C30.8435 14.8998 30.844 14.8998 30.8516 14.9004C30.9128 14.9008 30.9624 14.9505 30.9629 15.0117C30.9636 15.0737 30.9135 15.1245 30.8516 15.125C30.7888 15.1254 30.7396 15.0745 30.7402 15.0117C30.7399 14.9569 30.7796 14.908 30.834 14.9004ZM30.834 15.4629H30.8359C30.8435 15.4623 30.844 15.4623 30.8516 15.4629C30.9128 15.4636 30.9624 15.513 30.9629 15.5742C30.9625 15.6354 30.9128 15.6851 30.8516 15.6855C30.7892 15.6859 30.7407 15.6362 30.7402 15.5742C30.7399 15.519 30.7796 15.4705 30.834 15.4629ZM24.4023 15.5586C25.286 15.5586 26.0019 16.2746 26.002 17.1582C26.0019 18.0419 25.286 18.7578 24.4023 18.7578C23.5187 18.7578 22.8028 18.0419 22.8027 17.1582C22.8028 16.2746 23.5187 15.5586 24.4023 15.5586ZM30.8535 16.0234C30.9159 16.0242 30.9654 16.0747 30.9648 16.1367C30.9641 16.1979 30.9147 16.2476 30.8535 16.248C30.7912 16.2488 30.7407 16.1987 30.7402 16.1367C30.7399 16.074 30.7908 16.0228 30.8535 16.0234ZM30.8437 16.5859H30.8457C30.8479 16.5859 30.8497 16.5859 30.8516 16.5859C30.9135 16.5867 30.9635 16.6372 30.9629 16.6992C30.9625 16.7604 30.9128 16.8101 30.8516 16.8105C30.7892 16.8113 30.7407 16.7612 30.7402 16.6992C30.7395 16.6398 30.7849 16.5904 30.8437 16.5859ZM30.8437 17.1484H30.8457C30.8479 17.1484 30.8497 17.1484 30.8516 17.1484C30.9135 17.1492 30.9635 17.1997 30.9629 17.2617C30.9625 17.3233 30.9128 17.3726 30.8516 17.373C30.7892 17.3734 30.7407 17.3237 30.7402 17.2617C30.7395 17.2023 30.7849 17.1529 30.8437 17.1484ZM30.8437 17.7109H30.8457C30.8479 17.7109 30.8497 17.7109 30.8516 17.7109C30.9128 17.7109 30.9624 17.761 30.9629 17.8223C30.9636 17.8842 30.9135 17.9351 30.8516 17.9355C30.7888 17.9359 30.7396 17.885 30.7402 17.8223C30.7406 17.7639 30.7857 17.7154 30.8437 17.7109ZM18.8398 18.2461C19.7235 18.2461 20.4394 18.9621 20.4395 19.8457C20.4394 20.7294 19.7235 21.4453 18.8398 21.4453C17.9562 21.4453 17.2403 20.7294 17.2402 19.8457C17.2403 18.9621 17.9562 18.2461 18.8398 18.2461ZM30.8437 18.2734H30.8457C30.8479 18.2734 30.8497 18.2733 30.8516 18.2734C30.9128 18.2738 30.9624 18.3235 30.9629 18.3848C30.9636 18.4467 30.9135 18.4976 30.8516 18.498C30.7888 18.4984 30.7396 18.4475 30.7402 18.3848C30.7406 18.3264 30.7857 18.2779 30.8437 18.2734ZM30.8437 18.8359H30.8457C30.8479 18.8359 30.8497 18.8358 30.8516 18.8359C30.9128 18.8363 30.9624 18.886 30.9629 18.9473C30.9636 19.0092 30.9135 19.0601 30.8516 19.0605C30.7888 19.0609 30.7396 19.01 30.7402 18.9473C30.7406 18.8889 30.7857 18.8405 30.8437 18.8359ZM30.834 19.3984H30.8359C30.8435 19.3979 30.844 19.3979 30.8516 19.3984C30.9128 19.3992 30.9624 19.4485 30.9629 19.5098C30.9636 19.5717 30.9135 19.6226 30.8516 19.623C30.7888 19.6234 30.7396 19.5725 30.7402 19.5098C30.7399 19.4546 30.7796 19.406 30.834 19.3984ZM30.8535 19.959C30.9159 19.9597 30.9654 20.0103 30.9648 20.0723C30.9641 20.1335 30.9147 20.1831 30.8535 20.1836C30.7912 20.1843 30.7407 20.1342 30.7402 20.0723C30.7399 20.0095 30.7908 19.9584 30.8535 19.959ZM30.8437 20.5215H30.8457C30.8479 20.5215 30.8497 20.5214 30.8516 20.5215C30.9135 20.5219 30.9635 20.5728 30.9629 20.6348C30.9625 20.696 30.9128 20.7456 30.8516 20.7461C30.7892 20.7468 30.7407 20.6967 30.7402 20.6348C30.7395 20.5753 30.7849 20.526 30.8437 20.5215ZM24.4023 20.793C25.286 20.793 26.0019 21.509 26.002 22.3926C26.0019 23.2762 25.286 23.9922 24.4023 23.9922C23.5187 23.9922 22.8028 23.2762 22.8027 22.3926C22.8028 21.509 23.5187 20.793 24.4023 20.793ZM30.8437 21.084C30.8475 21.0839 30.849 21.0839 30.8516 21.084C30.9135 21.0847 30.9635 21.1353 30.9629 21.1973C30.9625 21.2589 30.9128 21.3081 30.8516 21.3086C30.7892 21.309 30.7407 21.2592 30.7402 21.1973C30.7395 21.1372 30.784 21.0876 30.8437 21.084ZM30.8437 21.6465C30.8475 21.6464 30.849 21.6464 30.8516 21.6465C30.9135 21.6472 30.9635 21.6978 30.9629 21.7598C30.9625 21.8214 30.9128 21.8706 30.8516 21.8711C30.7892 21.8718 30.7407 21.8217 30.7402 21.7598C30.7395 21.6997 30.784 21.6501 30.8437 21.6465ZM30.8437 22.209C30.8475 22.2089 30.849 22.2089 30.8516 22.209C30.9128 22.2094 30.9624 22.2591 30.9629 22.3203C30.9636 22.3823 30.9135 22.4331 30.8516 22.4336C30.7888 22.434 30.7396 22.383 30.7402 22.3203C30.7406 22.2614 30.7848 22.2126 30.8437 22.209ZM30.8437 22.7715C30.8475 22.7714 30.849 22.7714 30.8516 22.7715C30.9128 22.7719 30.9624 22.8216 30.9629 22.8828C30.9636 22.9448 30.9135 22.9956 30.8516 22.9961C30.7888 22.9965 30.7396 22.9455 30.7402 22.8828C30.7406 22.8239 30.7848 22.7751 30.8437 22.7715ZM30.8437 23.334C30.8475 23.3339 30.849 23.3339 30.8516 23.334C30.9128 23.3347 30.9624 23.3841 30.9629 23.4453C30.9636 23.5073 30.9135 23.5581 30.8516 23.5586C30.7888 23.559 30.7396 23.508 30.7402 23.4453C30.7406 23.386 30.7848 23.3376 30.8437 23.334ZM18.8398 23.4805C19.7235 23.4805 20.4394 24.1965 20.4395 25.0801C20.4394 25.9637 19.7235 26.6797 18.8398 26.6797C17.9562 26.6797 17.2403 25.9637 17.2402 25.0801C17.2403 24.1965 17.9562 23.4805 18.8398 23.4805ZM30.834 23.8965H30.8359C30.8435 23.8959 30.844 23.8959 30.8516 23.8965C30.9128 23.8972 30.9624 23.9466 30.9629 24.0078C30.9636 24.0698 30.9135 24.1206 30.8516 24.1211C30.7888 24.1215 30.7396 24.0705 30.7402 24.0078C30.7399 23.953 30.7796 23.9041 30.834 23.8965ZM30.834 24.459H30.8359C30.8435 24.4584 30.844 24.4584 30.8516 24.459C30.9128 24.4597 30.9624 24.5091 30.9629 24.5703C30.9625 24.6315 30.9128 24.6811 30.8516 24.6816C30.7892 24.6824 30.7407 24.6323 30.7402 24.5703C30.7399 24.5151 30.7796 24.4666 30.834 24.459ZM30.8437 25.0195C30.8475 25.0195 30.849 25.0195 30.8516 25.0195C30.9135 25.0203 30.9635 25.0708 30.9629 25.1328C30.9625 25.1944 30.9128 25.2436 30.8516 25.2441C30.7892 25.2445 30.7407 25.1948 30.7402 25.1328C30.7395 25.0727 30.784 25.0231 30.8437 25.0195ZM30.8437 25.582C30.8475 25.582 30.849 25.582 30.8516 25.582C30.9135 25.5828 30.9635 25.6333 30.9629 25.6953C30.9625 25.7569 30.9128 25.8061 30.8516 25.8066C30.7892 25.807 30.7407 25.7573 30.7402 25.6953C30.7395 25.6352 30.784 25.5856 30.8437 25.582ZM24.4023 26.0273C25.286 26.0274 26.0019 26.7433 26.002 27.6269C26.0019 28.5106 25.286 29.2266 24.4023 29.2266C23.5187 29.2266 22.8028 28.5106 22.8027 27.6269C22.8028 26.7433 23.5187 26.0274 24.4023 26.0273ZM30.8437 26.1445C30.8475 26.1444 30.849 26.1444 30.8516 26.1445C30.9135 26.1453 30.9635 26.1958 30.9629 26.2578C30.9625 26.3194 30.9128 26.3686 30.8516 26.3691C30.7892 26.3699 30.7407 26.3198 30.7402 26.2578C30.7395 26.1977 30.784 26.1481 30.8437 26.1445ZM30.8437 26.707C30.8475 26.7069 30.849 26.7069 30.8516 26.707C30.9128 26.7078 30.9624 26.7571 30.9629 26.8184C30.9636 26.8803 30.9135 26.9311 30.8516 26.9316C30.7888 26.932 30.7396 26.8811 30.7402 26.8184C30.7406 26.759 30.7848 26.7106 30.8437 26.707ZM30.8437 27.2695C30.8475 27.2695 30.849 27.2695 30.8516 27.2695C30.9128 27.2703 30.9624 27.3196 30.9629 27.3809C30.9636 27.4428 30.9135 27.4936 30.8516 27.4941C30.7888 27.4945 30.7396 27.4436 30.7402 27.3809C30.7406 27.3215 30.7848 27.2731 30.8437 27.2695ZM30.8437 27.832C30.8475 27.832 30.849 27.832 30.8516 27.832C30.9128 27.8328 30.9624 27.8821 30.9629 27.9434C30.9636 28.0053 30.9135 28.0561 30.8516 28.0566C30.7888 28.057 30.7396 28.0061 30.7402 27.9434C30.7406 27.8844 30.7848 27.8356 30.8437 27.832ZM30.834 28.3945H30.8359C30.8435 28.394 30.844 28.394 30.8516 28.3945C30.9128 28.3953 30.9624 28.4446 30.9629 28.5059C30.9625 28.5671 30.9128 28.6167 30.8516 28.6172C30.7892 28.6179 30.7407 28.5678 30.7402 28.5059C30.7399 28.4511 30.7796 28.4021 30.834 28.3945ZM18.8398 28.7148C19.7235 28.7149 20.4394 29.4308 20.4395 30.3144C20.4394 31.1981 19.7235 31.9141 18.8398 31.9141C17.9562 31.9141 17.2403 31.1981 17.2402 30.3144C17.2403 29.4308 17.9562 28.7149 18.8398 28.7148ZM30.8535 28.9531C30.9159 28.9539 30.9654 29.0044 30.9648 29.0664C30.9641 29.128 30.9147 29.1772 30.8535 29.1777C30.7912 29.1781 30.7407 29.1284 30.7402 29.0664C30.7399 29.0037 30.7908 28.9525 30.8535 28.9531ZM30.8437 29.5156C30.8475 29.5155 30.849 29.5155 30.8516 29.5156C30.9135 29.5164 30.9635 29.5669 30.9629 29.6289C30.9625 29.6905 30.9128 29.7397 30.8516 29.7402C30.7892 29.741 30.7407 29.6909 30.7402 29.6289C30.7395 29.5688 30.784 29.5192 30.8437 29.5156ZM30.8437 30.0781C30.8475 30.078 30.849 30.078 30.8516 30.0781C30.9135 30.0789 30.9635 30.1294 30.9629 30.1914C30.9625 30.253 30.9128 30.3022 30.8516 30.3027C30.7892 30.3031 30.7407 30.2534 30.7402 30.1914C30.7395 30.1313 30.784 30.0817 30.8437 30.0781ZM30.8437 30.6406C30.8475 30.6405 30.849 30.6405 30.8516 30.6406C30.9135 30.6414 30.9635 30.6919 30.9629 30.7539C30.9625 30.8151 30.9128 30.8648 30.8516 30.8652C30.7892 30.8664 30.7407 30.8159 30.7402 30.7539C30.7395 30.6938 30.784 30.6442 30.8437 30.6406ZM30.8437 31.2031C30.8475 31.203 30.849 31.203 30.8516 31.2031C30.9128 31.2039 30.9624 31.2532 30.9629 31.3144C30.9636 31.3764 30.9135 31.4272 30.8516 31.4277C30.7888 31.4281 30.7396 31.3772 30.7402 31.3144C30.7406 31.2551 30.7848 31.2067 30.8437 31.2031ZM24.4023 31.2617C25.286 31.2618 26.0019 31.9777 26.002 32.8613C26.0019 33.745 25.286 34.4609 24.4023 34.4609C23.5187 34.4609 22.8028 33.745 22.8027 32.8613C22.8028 31.9777 23.5187 31.2618 24.4023 31.2617ZM30.8437 31.7656C30.8475 31.7655 30.849 31.7655 30.8516 31.7656C30.9128 31.7664 30.9624 31.8157 30.9629 31.8769C30.9636 31.9389 30.9135 31.9897 30.8516 31.9902C30.7888 31.9906 30.7396 31.9397 30.7402 31.8769C30.7406 31.818 30.7848 31.7692 30.8437 31.7656ZM30.834 32.3281H30.8359C30.8435 32.3276 30.844 32.3276 30.8516 32.3281C30.9128 32.3289 30.9624 32.3782 30.9629 32.4394C30.9636 32.5014 30.9135 32.5522 30.8516 32.5527C30.7888 32.5531 30.7396 32.5022 30.7402 32.4394C30.7399 32.3843 30.7796 32.3357 30.834 32.3281ZM30.834 32.8906H30.8359C30.8435 32.8901 30.844 32.8901 30.8516 32.8906C30.9128 32.891 30.9624 32.9407 30.9629 33.0019C30.9625 33.0636 30.9128 33.1128 30.8516 33.1133C30.7892 33.1137 30.7407 33.0639 30.7402 33.0019C30.7399 32.9472 30.7796 32.8982 30.834 32.8906ZM30.8535 33.4512C30.9159 33.4519 30.9654 33.5025 30.9648 33.5644C30.9641 33.6261 30.9147 33.6753 30.8535 33.6758C30.7912 33.6762 30.7407 33.6264 30.7402 33.5644C30.7399 33.5017 30.7908 33.4506 30.8535 33.4512ZM18.8398 33.9492C19.7235 33.9493 20.4394 34.6652 20.4395 35.5488C20.4394 36.4325 19.7235 37.1484 18.8398 37.1484C17.9562 37.1484 17.2403 36.4325 17.2402 35.5488C17.2403 34.6652 17.9562 33.9493 18.8398 33.9492ZM30.8437 34.0137C30.8475 34.0136 30.849 34.0136 30.8516 34.0137C30.9135 34.0144 30.9635 34.065 30.9629 34.1269C30.9625 34.1886 30.9128 34.2378 30.8516 34.2383C30.7892 34.239 30.7407 34.1889 30.7402 34.1269C30.7395 34.0669 30.784 34.0173 30.8437 34.0137ZM30.8437 34.5762C30.8475 34.5761 30.849 34.5761 30.8516 34.5762C30.9135 34.5769 30.9635 34.6275 30.9629 34.6894C30.9625 34.7511 30.9128 34.8003 30.8516 34.8008C30.7892 34.8012 30.7407 34.7514 30.7402 34.6894C30.7395 34.6294 30.784 34.5798 30.8437 34.5762ZM30.8437 35.1387C30.8475 35.1386 30.849 35.1386 30.8516 35.1387C30.9128 35.1394 30.9624 35.1888 30.9629 35.25C30.9636 35.312 30.9135 35.3628 30.8516 35.3633C30.7888 35.3637 30.7396 35.3127 30.7402 35.25C30.7406 35.1907 30.7848 35.1423 30.8437 35.1387ZM30.8437 35.7012C30.8475 35.7011 30.849 35.7011 30.8516 35.7012C30.9128 35.7019 30.9624 35.7513 30.9629 35.8125C30.9636 35.8745 30.9135 35.9253 30.8516 35.9258C30.7888 35.9262 30.7396 35.8752 30.7402 35.8125C30.7406 35.7535 30.7848 35.7048 30.8437 35.7012ZM30.8437 36.2637C30.8475 36.2636 30.849 36.2636 30.8516 36.2637C30.9128 36.2644 30.9624 36.3138 30.9629 36.375C30.9636 36.437 30.9135 36.4878 30.8516 36.4883C30.7888 36.4887 30.7396 36.4377 30.7402 36.375C30.7406 36.316 30.7848 36.2673 30.8437 36.2637ZM30.8437 36.8262C30.8475 36.8261 30.849 36.8261 30.8516 36.8262C30.9128 36.8269 30.9624 36.8763 30.9629 36.9375C30.9636 36.9995 30.9135 37.0503 30.8516 37.0508C30.7888 37.0512 30.7396 37.0002 30.7402 36.9375C30.7406 36.8782 30.7848 36.8298 30.8437 36.8262ZM30.834 37.3887H30.8359C30.8435 37.3881 30.844 37.3881 30.8516 37.3887C30.9128 37.3894 30.9624 37.4388 30.9629 37.5C30.9625 37.5612 30.9128 37.6108 30.8516 37.6113C30.7892 37.6125 30.7407 37.562 30.7402 37.5C30.7399 37.4448 30.7796 37.3963 30.834 37.3887ZM30.8437 37.9492C30.8475 37.9492 30.849 37.9492 30.8516 37.9492C30.9135 37.95 30.9635 38.0005 30.9629 38.0625C30.9625 38.1241 30.9128 38.1733 30.8516 38.1738C30.7892 38.1742 30.7407 38.1245 30.7402 38.0625C30.7395 38.0024 30.784 37.9528 30.8437 37.9492ZM30.8437 38.5117C30.8475 38.5116 30.849 38.5116 30.8516 38.5117C30.9135 38.5125 30.9635 38.563 30.9629 38.625C30.9625 38.6866 30.9128 38.7358 30.8516 38.7363C30.7892 38.7371 30.7407 38.687 30.7402 38.625C30.7395 38.5649 30.784 38.5153 30.8437 38.5117ZM30.8437 39.0742C30.8475 39.0741 30.849 39.0741 30.8516 39.0742C30.9135 39.075 30.9635 39.1255 30.9629 39.1875C30.9625 39.2491 30.9128 39.2983 30.8516 39.2988C30.7892 39.2992 30.7407 39.2495 30.7402 39.1875C30.7395 39.1274 30.784 39.0778 30.8437 39.0742ZM30.8437 39.6367C30.8475 39.6366 30.849 39.6366 30.8516 39.6367C30.9128 39.6375 30.9624 39.6868 30.9629 39.748C30.9636 39.81 30.9135 39.8608 30.8516 39.8613C30.7888 39.8617 30.7396 39.8108 30.7402 39.748C30.7406 39.6887 30.7848 39.6403 30.8437 39.6367ZM30.8437 40.1992C30.8475 40.1991 30.849 40.1991 30.8516 40.1992C30.9128 40.2 30.9624 40.2493 30.9629 40.3105C30.9636 40.3725 30.9135 40.4233 30.8516 40.4238C30.7888 40.4242 30.7396 40.3733 30.7402 40.3105C30.7406 40.2516 30.7848 40.2028 30.8437 40.1992ZM30.8437 40.7617C30.8475 40.7616 30.849 40.7616 30.8516 40.7617C30.9128 40.7625 30.9624 40.8118 30.9629 40.873C30.9636 40.935 30.9135 40.9858 30.8516 40.9863C30.7888 40.9867 30.7396 40.9358 30.7402 40.873C30.7406 40.8141 30.7848 40.7653 30.8437 40.7617ZM30.834 41.3242H30.8359C30.8435 41.3236 30.844 41.3236 30.8516 41.3242C30.9128 41.325 30.9624 41.3743 30.9629 41.4355C30.9636 41.4975 30.9135 41.5483 30.8516 41.5488C30.7888 41.5492 30.7396 41.4983 30.7402 41.4355C30.7399 41.3804 30.7796 41.3318 30.834 41.3242ZM30.834 41.8867H30.8359C30.8435 41.8861 30.844 41.8861 30.8516 41.8867C30.9128 41.8875 30.9624 41.9368 30.9629 41.998C30.9625 42.0596 30.9128 42.1089 30.8516 42.1094C30.7892 42.1101 30.7407 42.06 30.7402 41.998C30.7399 41.9429 30.7796 41.8943 30.834 41.8867ZM30.8535 42.4473C30.9159 42.448 30.9654 42.4986 30.9648 42.5605C30.9641 42.6221 30.9147 42.6714 30.8535 42.6719C30.7912 42.6722 30.7407 42.6225 30.7402 42.5605C30.7399 42.4978 30.7908 42.4467 30.8535 42.4473ZM30.8437 43.0098C30.8475 43.0096 30.849 43.0096 30.8516 43.0098C30.9135 43.0105 30.9635 43.0611 30.9629 43.123C30.9625 43.1846 30.9128 43.2339 30.8516 43.2344C30.7892 43.2347 30.7407 43.185 30.7402 43.123C30.7395 43.063 30.784 43.0134 30.8437 43.0098Z" fill="#333333"/>
</svg>
