<svg width="48" height="48" viewBox="0 0 48 48" fill="none" xmlns="http://www.w3.org/2000/svg">
<path d="M14.3461 4.09377C13.4761 4.09377 12.7771 4.79277 12.7771 5.66177V42.5228C12.7771 43.3928 13.4771 44.0928 14.3461 44.0928H34.0501C34.9201 44.0928 35.6181 43.3928 35.6181 42.5228V5.66277C35.6181 4.79277 34.9191 4.09277 34.0501 4.09277H14.3461V4.09377ZM14.7761 4.59377H33.6161C34.4461 4.59377 35.1171 5.27677 35.1171 6.12477V42.0648C35.1171 42.9118 34.4471 43.5938 33.6151 43.5938H14.7751C13.9451 43.5938 13.2751 42.9118 13.2751 42.0638V6.12477C13.2751 5.27677 13.9451 4.59377 14.7751 4.59377H14.7761ZM18.1291 9.41177C17.9157 9.40644 17.7034 9.44386 17.5046 9.52185C17.3059 9.59983 17.1248 9.71679 16.972 9.86585C16.8191 10.0149 16.6977 10.193 16.6147 10.3898C16.5318 10.5865 16.4891 10.7978 16.4891 11.0113C16.4891 11.2248 16.5318 11.4361 16.6147 11.6328C16.6977 11.8295 16.8191 12.0076 16.972 12.1567C17.1248 12.3058 17.3059 12.4227 17.5046 12.5007C17.7034 12.5787 17.9157 12.6161 18.1291 12.6108C18.5464 12.6003 18.9431 12.4272 19.2345 12.1284C19.526 11.8296 19.6891 11.4287 19.6891 11.0113C19.6891 10.5939 19.526 10.193 19.2345 9.89413C18.9431 9.59531 18.5464 9.42221 18.1291 9.41177ZM22.1291 9.41177C21.9157 9.40644 21.7034 9.44386 21.5046 9.52185C21.3059 9.59983 21.1248 9.71679 20.972 9.86585C20.8191 10.0149 20.6977 10.193 20.6147 10.3898C20.5318 10.5865 20.4891 10.7978 20.4891 11.0113C20.4891 11.2248 20.5318 11.4361 20.6147 11.6328C20.6977 11.8295 20.8191 12.0076 20.972 12.1567C21.1248 12.3058 21.3059 12.4227 21.5046 12.5007C21.7034 12.5787 21.9157 12.6161 22.1291 12.6108C22.5464 12.6003 22.9431 12.4272 23.2345 12.1284C23.526 11.8296 23.6891 11.4287 23.6891 11.0113C23.6891 10.5939 23.526 10.193 23.2345 9.89413C22.9431 9.59531 22.5464 9.42221 22.1291 9.41177ZM26.1291 9.41177C25.9157 9.40644 25.7034 9.44386 25.5046 9.52185C25.3059 9.59983 25.1248 9.71679 24.972 9.86585C24.8191 10.0149 24.6977 10.193 24.6147 10.3898C24.5318 10.5865 24.4891 10.7978 24.4891 11.0113C24.4891 11.2248 24.5318 11.4361 24.6147 11.6328C24.6977 11.8295 24.8191 12.0076 24.972 12.1567C25.1248 12.3058 25.3059 12.4227 25.5046 12.5007C25.7034 12.5787 25.9157 12.6161 26.1291 12.6108C26.5464 12.6003 26.9431 12.4272 27.2345 12.1284C27.526 11.8296 27.6891 11.4287 27.6891 11.0113C27.6891 10.5939 27.526 10.193 27.2345 9.89413C26.9431 9.59531 26.5464 9.42221 26.1291 9.41177ZM30.1291 9.41177C29.9157 9.40644 29.7034 9.44386 29.5046 9.52185C29.3059 9.59983 29.1248 9.71679 28.972 9.86585C28.8191 10.0149 28.6977 10.193 28.6147 10.3898C28.5318 10.5865 28.4891 10.7978 28.4891 11.0113C28.4891 11.2248 28.5318 11.4361 28.6147 11.6328C28.6977 11.8295 28.8191 12.0076 28.972 12.1567C29.1248 12.3058 29.3059 12.4227 29.5046 12.5007C29.7034 12.5787 29.9157 12.6161 30.1291 12.6108C30.5464 12.6003 30.9431 12.4272 31.2345 12.1284C31.526 11.8296 31.6891 11.4287 31.6891 11.0113C31.6891 10.5939 31.526 10.193 31.2345 9.89413C30.9431 9.59531 30.5464 9.42221 30.1291 9.41177ZM18.1291 9.87277C18.2785 9.87258 18.4264 9.9018 18.5645 9.95879C18.7026 10.0158 18.8281 10.0994 18.9339 10.2049C19.0396 10.3104 19.1236 10.4357 19.1809 10.5736C19.2383 10.7115 19.2679 10.8594 19.2681 11.0088C19.2683 11.1582 19.2391 11.3061 19.1821 11.4442C19.1251 11.5823 19.0415 11.7078 18.936 11.8135C18.8305 11.9193 18.7052 12.0033 18.5673 12.0606C18.4294 12.118 18.2815 12.1476 18.1321 12.1478C17.8304 12.1482 17.5409 12.0287 17.3273 11.8157C17.1137 11.6026 16.9935 11.3135 16.9931 11.0118C16.9927 10.7101 17.1122 10.4206 17.3252 10.207C17.5382 9.9934 17.8274 9.87317 18.1291 9.87277ZM22.1291 9.87277C22.2785 9.87258 22.4264 9.9018 22.5645 9.95879C22.7026 10.0158 22.8281 10.0994 22.9339 10.2049C23.0396 10.3104 23.1236 10.4357 23.1809 10.5736C23.2383 10.7115 23.2679 10.8594 23.2681 11.0088C23.2683 11.1582 23.2391 11.3061 23.1821 11.4442C23.1251 11.5823 23.0415 11.7078 22.936 11.8135C22.8305 11.9193 22.7052 12.0033 22.5673 12.0606C22.4294 12.118 22.2815 12.1476 22.1321 12.1478C21.8304 12.1482 21.5409 12.0287 21.3273 11.8157C21.1137 11.6026 20.9935 11.3135 20.9931 11.0118C20.9927 10.7101 21.1122 10.4206 21.3252 10.207C21.5382 9.9934 21.8274 9.87317 22.1291 9.87277ZM26.1291 9.87277C26.2785 9.87258 26.4264 9.9018 26.5645 9.95879C26.7026 10.0158 26.8281 10.0994 26.9339 10.2049C27.0396 10.3104 27.1236 10.4357 27.1809 10.5736C27.2383 10.7115 27.2679 10.8594 27.2681 11.0088C27.2683 11.1582 27.2391 11.3061 27.1821 11.4442C27.1251 11.5823 27.0415 11.7078 26.936 11.8135C26.8305 11.9193 26.7052 12.0033 26.5673 12.0606C26.4294 12.118 26.2815 12.1476 26.1321 12.1478C25.8304 12.1482 25.5409 12.0287 25.3273 11.8157C25.1137 11.6026 24.9935 11.3135 24.9931 11.0118C24.9927 10.7101 25.1122 10.4206 25.3252 10.207C25.5382 9.9934 25.8274 9.87317 26.1291 9.87277ZM30.1291 9.87277C30.2785 9.87258 30.4264 9.9018 30.5645 9.95879C30.7026 10.0158 30.8281 10.0994 30.9339 10.2049C31.0396 10.3104 31.1236 10.4357 31.1809 10.5736C31.2383 10.7115 31.2679 10.8594 31.2681 11.0088C31.2683 11.1582 31.2391 11.3061 31.1821 11.4442C31.1251 11.5823 31.0415 11.7078 30.936 11.8135C30.8305 11.9193 30.7052 12.0033 30.5673 12.0606C30.4294 12.118 30.2815 12.1476 30.1321 12.1478C29.8304 12.1482 29.5409 12.0287 29.3273 11.8157C29.1137 11.6026 28.9935 11.3135 28.9931 11.0118C28.9927 10.7101 29.1122 10.4206 29.3252 10.207C29.5382 9.9934 29.8274 9.87317 30.1291 9.87277ZM13.7951 14.9798C13.7803 14.9799 13.7657 14.983 13.7521 14.9888C13.7385 14.9946 13.7262 15.003 13.7158 15.0136C13.7055 15.0242 13.6974 15.0368 13.6919 15.0505C13.6865 15.0643 13.6838 15.079 13.6841 15.0938C13.6841 15.1548 13.7341 15.2058 13.7941 15.2068C13.8571 15.2068 13.9071 15.1568 13.9081 15.0938C13.9084 15.0788 13.9056 15.064 13.9001 15.0501C13.8945 15.0362 13.8862 15.0235 13.8757 15.0129C13.8651 15.0023 13.8526 14.9939 13.8387 14.9882C13.8249 14.9825 13.8101 14.9796 13.7951 14.9798ZM14.3571 14.9798C14.327 14.98 14.2983 14.9922 14.2771 15.0135C14.256 15.0349 14.2441 15.0637 14.2441 15.0938C14.2441 15.1548 14.2961 15.2068 14.3571 15.2068C14.4191 15.2068 14.4681 15.1548 14.4691 15.0938V15.0738C14.4652 15.0471 14.4516 15.0228 14.431 15.0055C14.4103 14.9881 14.384 14.979 14.3571 14.9798ZM14.9201 14.9798C14.9051 14.9796 14.8903 14.9825 14.8765 14.9882C14.8626 14.9939 14.8501 15.0023 14.8395 15.0129C14.829 15.0235 14.8207 15.0362 14.8151 15.0501C14.8096 15.064 14.8068 15.0788 14.8071 15.0938C14.8071 15.1558 14.8571 15.2078 14.9201 15.2068C14.9811 15.2068 15.0301 15.1548 15.0311 15.0938V15.0738C15.0272 15.0473 15.0138 15.0231 14.9934 15.0058C14.9729 14.9885 14.9469 14.9792 14.9201 14.9798ZM15.4821 14.9798C15.4671 14.9796 15.4523 14.9825 15.4385 14.9882C15.4246 14.9939 15.4121 15.0023 15.4015 15.0129C15.391 15.0235 15.3827 15.0362 15.3771 15.0501C15.3716 15.064 15.3688 15.0788 15.3691 15.0938C15.3691 15.1558 15.4201 15.2078 15.4821 15.2068C15.5441 15.2068 15.5931 15.1548 15.5941 15.0938V15.0858C15.5926 15.0571 15.5801 15.0302 15.5592 15.0104C15.5384 14.9907 15.5108 14.9797 15.4821 14.9798ZM16.0451 14.9798C16.0301 14.9796 16.0153 14.9825 16.0015 14.9882C15.9876 14.9939 15.9751 15.0023 15.9645 15.0129C15.954 15.0235 15.9457 15.0362 15.9401 15.0501C15.9346 15.064 15.9318 15.0788 15.9321 15.0938C15.9321 15.1558 15.9821 15.2078 16.0451 15.2068C16.1061 15.2068 16.1551 15.1548 16.1561 15.0938V15.0858C16.1546 15.0573 16.1422 15.0305 16.1216 15.0108C16.101 14.9911 16.0736 14.98 16.0451 14.9798ZM16.6071 14.9798C16.5921 14.9796 16.5773 14.9825 16.5635 14.9882C16.5496 14.9939 16.5371 15.0023 16.5265 15.0129C16.516 15.0235 16.5077 15.0362 16.5021 15.0501C16.4966 15.064 16.4938 15.0788 16.4941 15.0938C16.4941 15.1558 16.5451 15.2078 16.6071 15.2068C16.6691 15.2068 16.7181 15.1548 16.7191 15.0938V15.0858C16.7176 15.0571 16.7051 15.0302 16.6842 15.0104C16.6634 14.9907 16.6358 14.9797 16.6071 14.9798ZM17.1681 14.9798C17.1533 14.9799 17.1387 14.983 17.1251 14.9888C17.1115 14.9946 17.0992 15.003 17.0888 15.0136C17.0785 15.0242 17.0704 15.0368 17.065 15.0505C17.0595 15.0643 17.0568 15.079 17.0571 15.0938C17.0571 15.1548 17.1071 15.2068 17.1681 15.2068C17.198 15.2065 17.2266 15.1945 17.2477 15.1734C17.2688 15.1523 17.2808 15.1237 17.2811 15.0938V15.0858C17.2796 15.0569 17.2669 15.0298 17.2459 15.0101C17.2248 14.9903 17.197 14.9795 17.1681 14.9798ZM17.7311 14.9798C17.7162 14.9798 17.7015 14.9827 17.6878 14.9885C17.6741 14.9942 17.6616 15.0027 17.6512 15.0133C17.6408 15.0239 17.6326 15.0365 17.627 15.0503C17.6215 15.0641 17.6188 15.0789 17.6191 15.0938C17.6191 15.1548 17.6691 15.2068 17.7301 15.2068C17.7602 15.2068 17.789 15.1949 17.8104 15.1737C17.8317 15.1526 17.8438 15.1238 17.8441 15.0938V15.0858C17.8425 15.0568 17.8298 15.0295 17.8085 15.0097C17.7873 14.99 17.7591 14.9792 17.7301 14.9798H17.7311ZM18.2931 14.9798C18.2783 14.9799 18.2637 14.983 18.2501 14.9888C18.2365 14.9946 18.2242 15.003 18.2138 15.0136C18.2035 15.0242 18.1954 15.0368 18.19 15.0505C18.1845 15.0643 18.1818 15.079 18.1821 15.0938C18.1821 15.1548 18.2321 15.2068 18.2931 15.2068C18.323 15.2065 18.3516 15.1945 18.3727 15.1734C18.3938 15.1523 18.4058 15.1237 18.4061 15.0938V15.0858C18.4046 15.0569 18.3919 15.0298 18.3709 15.0101C18.3498 14.9903 18.322 14.9795 18.2931 14.9798ZM18.8561 14.9798C18.8412 14.9798 18.8265 14.9827 18.8128 14.9885C18.7991 14.9942 18.7866 15.0027 18.7762 15.0133C18.7658 15.0239 18.7576 15.0365 18.752 15.0503C18.7465 15.0641 18.7438 15.0789 18.7441 15.0938C18.7441 15.1548 18.7941 15.2068 18.8551 15.2068C18.9171 15.2068 18.9661 15.1548 18.9671 15.0938V15.0738C18.9632 15.0473 18.9498 15.0231 18.9294 15.0058C18.9089 14.9885 18.8829 14.9792 18.8561 14.9798ZM19.4181 14.9798C19.4031 14.9796 19.3883 14.9825 19.3745 14.9882C19.3606 14.9939 19.3481 15.0023 19.3375 15.0129C19.327 15.0235 19.3187 15.0362 19.3131 15.0501C19.3076 15.064 19.3048 15.0788 19.3051 15.0938C19.3051 15.1558 19.3561 15.2078 19.4181 15.2068C19.4791 15.2068 19.5281 15.1548 19.5291 15.0938V15.0858C19.5276 15.0573 19.5152 15.0305 19.4946 15.0108C19.474 14.9911 19.4466 14.98 19.4181 14.9798ZM19.9811 14.9798C19.9661 14.9795 19.9511 14.9823 19.9372 14.9879C19.9232 14.9935 19.9105 15.0019 19.8999 15.0126C19.8892 15.0232 19.8809 15.0359 19.8752 15.0498C19.8696 15.0638 19.8668 15.0787 19.8671 15.0938C19.8671 15.1558 19.9191 15.2078 19.9801 15.2068C20.0421 15.2068 20.0911 15.1548 20.0921 15.0938V15.0858C20.0906 15.0573 20.0782 15.0305 20.0576 15.0108C20.037 14.9911 20.0096 14.98 19.9811 14.9798ZM20.5431 14.9798C20.5281 14.9796 20.5133 14.9825 20.4995 14.9882C20.4856 14.9939 20.4731 15.0023 20.4625 15.0129C20.452 15.0235 20.4437 15.0362 20.4381 15.0501C20.4326 15.064 20.4298 15.0788 20.4301 15.0938C20.4301 15.1558 20.4811 15.2078 20.5431 15.2068C20.6041 15.2068 20.6531 15.1548 20.6541 15.0938V15.0858C20.6526 15.0573 20.6402 15.0305 20.6196 15.0108C20.599 14.9911 20.5716 14.98 20.5431 14.9798ZM21.1061 14.9798C21.0911 14.9795 21.0761 14.9823 21.0622 14.9879C21.0482 14.9935 21.0355 15.0019 21.0249 15.0126C21.0142 15.0232 21.0059 15.0359 21.0002 15.0498C20.9946 15.0638 20.9918 15.0787 20.9921 15.0938C20.9921 15.1558 21.0441 15.2078 21.1051 15.2068C21.1671 15.2068 21.2161 15.1548 21.2171 15.0938V15.0858C21.2156 15.0573 21.2032 15.0305 21.1826 15.0108C21.162 14.9911 21.1346 14.98 21.1061 14.9798ZM21.6661 14.9798C21.6513 14.9799 21.6367 14.983 21.6231 14.9888C21.6095 14.9946 21.5972 15.003 21.5868 15.0136C21.5765 15.0242 21.5684 15.0368 21.563 15.0505C21.5575 15.0643 21.5548 15.079 21.5551 15.0938C21.5551 15.1548 21.6051 15.2068 21.6661 15.2068C21.696 15.2065 21.7246 15.1945 21.7457 15.1734C21.7668 15.1523 21.7788 15.1237 21.7791 15.0938V15.0858C21.7776 15.0569 21.7649 15.0298 21.7439 15.0101C21.7228 14.9903 21.695 14.9795 21.6661 14.9798ZM22.2291 14.9798C22.2142 14.9798 22.1995 14.9827 22.1858 14.9885C22.1721 14.9942 22.1596 15.0027 22.1492 15.0133C22.1388 15.0239 22.1306 15.0365 22.125 15.0503C22.1195 15.0641 22.1168 15.0789 22.1171 15.0938C22.1171 15.1548 22.1671 15.2068 22.2281 15.2068C22.2582 15.2068 22.287 15.1949 22.3084 15.1737C22.3297 15.1526 22.3418 15.1238 22.3421 15.0938V15.0858C22.3406 15.0569 22.3279 15.0298 22.3069 15.0101C22.2858 14.9903 22.258 14.9795 22.2291 14.9798ZM22.7911 14.9798C22.7763 14.9799 22.7617 14.983 22.7481 14.9888C22.7345 14.9946 22.7222 15.003 22.7118 15.0136C22.7015 15.0242 22.6934 15.0368 22.688 15.0505C22.6825 15.0643 22.6798 15.079 22.6801 15.0938C22.6801 15.1548 22.7301 15.2058 22.7911 15.2068C22.8531 15.2068 22.9041 15.1568 22.9041 15.0938C22.9044 15.0788 22.9016 15.064 22.8961 15.0501C22.8905 15.0362 22.8822 15.0235 22.8717 15.0129C22.8611 15.0023 22.8486 14.9939 22.8347 14.9882C22.8209 14.9825 22.8061 14.9796 22.7911 14.9798ZM23.3541 14.9798C23.3392 14.9798 23.3245 14.9827 23.3108 14.9885C23.2971 14.9942 23.2846 15.0027 23.2742 15.0133C23.2638 15.0239 23.2556 15.0365 23.25 15.0503C23.2445 15.0641 23.2418 15.0789 23.2421 15.0938C23.2421 15.1548 23.2921 15.2068 23.3531 15.2068C23.3828 15.2063 23.4112 15.1941 23.4321 15.173C23.453 15.1519 23.4648 15.1235 23.4651 15.0938V15.0738C23.461 15.0474 23.4475 15.0233 23.4271 15.0061C23.4068 14.9888 23.3808 14.9795 23.3541 14.9798ZM23.9161 14.9798C23.9011 14.9796 23.8863 14.9825 23.8725 14.9882C23.8586 14.9939 23.8461 15.0023 23.8355 15.0129C23.825 15.0235 23.8167 15.0362 23.8111 15.0501C23.8056 15.064 23.8028 15.0788 23.8031 15.0938C23.8031 15.1558 23.8541 15.2078 23.9161 15.2068C23.9771 15.2068 24.0261 15.1548 24.0271 15.0938V15.0738C24.0232 15.0473 24.0098 15.0231 23.9894 15.0058C23.9689 14.9885 23.9429 14.9792 23.9161 14.9798ZM24.4791 14.9798C24.4641 14.9795 24.4491 14.9823 24.4352 14.9879C24.4212 14.9935 24.4085 15.0019 24.3979 15.0126C24.3872 15.0232 24.3789 15.0359 24.3732 15.0498C24.3676 15.0638 24.3648 15.0787 24.3651 15.0938C24.3651 15.1558 24.4171 15.2078 24.4791 15.2068C24.5391 15.2068 24.5891 15.1548 24.5891 15.0938V15.0858C24.5876 15.0575 24.5754 15.0308 24.555 15.0111C24.5346 14.9914 24.5074 14.9802 24.4791 14.9798ZM25.0411 14.9798C25.0261 14.9796 25.0113 14.9825 24.9975 14.9882C24.9836 14.9939 24.9711 15.0023 24.9605 15.0129C24.95 15.0235 24.9417 15.0362 24.9361 15.0501C24.9306 15.064 24.9278 15.0788 24.9281 15.0938C24.9281 15.1558 24.9791 15.2078 25.0411 15.2068C25.1021 15.2068 25.1511 15.1548 25.1521 15.0938V15.0858C25.1506 15.0573 25.1382 15.0305 25.1176 15.0108C25.097 14.9911 25.0696 14.98 25.0411 14.9798ZM25.6011 14.9798C25.5864 14.98 25.5719 14.9832 25.5584 14.9891C25.5449 14.9949 25.5327 15.0034 25.5225 15.014C25.5123 15.0246 25.5042 15.0371 25.4989 15.0508C25.4935 15.0644 25.4908 15.0791 25.4911 15.0938C25.4911 15.1548 25.5411 15.2068 25.6011 15.2068C25.6312 15.2068 25.66 15.1949 25.6814 15.1737C25.7027 15.1526 25.7148 15.1238 25.7151 15.0938V15.0858C25.7136 15.0569 25.7009 15.0298 25.6799 15.0101C25.6588 14.9903 25.631 14.9795 25.6021 14.9798H25.6011ZM26.1641 14.9798C26.1493 14.9799 26.1347 14.983 26.1211 14.9888C26.1075 14.9946 26.0952 15.003 26.0848 15.0136C26.0745 15.0242 26.0664 15.0368 26.0609 15.0505C26.0555 15.0643 26.0528 15.079 26.0531 15.0938C26.0531 15.1548 26.1031 15.2068 26.1641 15.2068C26.194 15.2065 26.2226 15.1945 26.2437 15.1734C26.2648 15.1523 26.2768 15.1237 26.2771 15.0938V15.0858C26.2756 15.0569 26.2629 15.0298 26.2419 15.0101C26.2208 14.9903 26.193 14.9795 26.1641 14.9798ZM26.7271 14.9798C26.7122 14.9798 26.6975 14.9827 26.6838 14.9885C26.6701 14.9942 26.6576 15.0027 26.6472 15.0133C26.6368 15.0239 26.6286 15.0365 26.623 15.0503C26.6175 15.0641 26.6148 15.0789 26.6151 15.0938C26.6151 15.1548 26.6651 15.2068 26.7271 15.2068C26.757 15.2065 26.7856 15.1945 26.8067 15.1734C26.8278 15.1523 26.8398 15.1237 26.8401 15.0938V15.0858C26.8386 15.0569 26.8259 15.0298 26.8049 15.0101C26.7838 14.9903 26.756 14.9795 26.7271 14.9798ZM27.2891 14.9798C27.2743 14.9799 27.2597 14.983 27.2461 14.9888C27.2325 14.9946 27.2202 15.003 27.2098 15.0136C27.1995 15.0242 27.1914 15.0368 27.1859 15.0505C27.1805 15.0643 27.1778 15.079 27.1781 15.0938C27.1781 15.1548 27.2281 15.2058 27.2891 15.2068C27.3511 15.2068 27.4021 15.1568 27.4021 15.0938C27.4024 15.0788 27.3996 15.064 27.3941 15.0501C27.3885 15.0362 27.3802 15.0235 27.3697 15.0129C27.3591 15.0023 27.3466 14.9939 27.3327 14.9882C27.3189 14.9825 27.3041 14.9796 27.2891 14.9798ZM27.8521 14.9798C27.8372 14.9798 27.8225 14.9827 27.8088 14.9885C27.7951 14.9942 27.7826 15.0027 27.7722 15.0133C27.7618 15.0239 27.7536 15.0365 27.748 15.0503C27.7425 15.0641 27.7398 15.0789 27.7401 15.0938C27.7401 15.1548 27.7901 15.2068 27.8521 15.2068C27.9121 15.2068 27.9621 15.1548 27.9621 15.0938C27.9641 15.0858 27.9641 15.0818 27.9621 15.0738C27.9582 15.0475 27.945 15.0234 27.9247 15.0061C27.9045 14.9889 27.8787 14.9795 27.8521 14.9798ZM28.4141 14.9798C28.3991 14.9796 28.3843 14.9825 28.3705 14.9882C28.3566 14.9939 28.3441 15.0023 28.3335 15.0129C28.323 15.0235 28.3147 15.0362 28.3091 15.0501C28.3036 15.064 28.3008 15.0788 28.3011 15.0938C28.3011 15.1558 28.3521 15.2078 28.4141 15.2068C28.4751 15.2068 28.5241 15.1548 28.5251 15.0938V15.0858C28.5236 15.0575 28.5114 15.0308 28.491 15.0111C28.4706 14.9914 28.4434 14.9802 28.4151 14.9798H28.4141ZM28.9771 14.9798C28.9621 14.9795 28.9471 14.9823 28.9332 14.9879C28.9192 14.9935 28.9065 15.0019 28.8959 15.0126C28.8852 15.0232 28.8769 15.0359 28.8712 15.0498C28.8656 15.0638 28.8628 15.0787 28.8631 15.0938C28.8631 15.1558 28.9151 15.2078 28.9771 15.2068C29.0371 15.2068 29.0871 15.1548 29.0871 15.0938V15.0858C29.0856 15.0575 29.0734 15.0308 29.053 15.0111C29.0326 14.9914 29.0054 14.9802 28.9771 14.9798ZM29.5391 14.9798C29.5241 14.9796 29.5093 14.9825 29.4955 14.9882C29.4816 14.9939 29.4691 15.0023 29.4585 15.0129C29.448 15.0235 29.4397 15.0362 29.4341 15.0501C29.4286 15.064 29.4258 15.0788 29.4261 15.0938C29.4261 15.1558 29.4771 15.2078 29.5391 15.2068C29.6001 15.2068 29.6491 15.1548 29.6501 15.0938V15.0858C29.6486 15.0575 29.6364 15.0308 29.616 15.0111C29.5956 14.9914 29.5684 14.9802 29.5401 14.9798H29.5391ZM30.0991 14.9798C30.0844 14.98 30.0699 14.9832 30.0564 14.9891C30.0429 14.9949 30.0307 15.0034 30.0205 15.014C30.0103 15.0246 30.0022 15.0371 29.9969 15.0508C29.9915 15.0644 29.9888 15.0791 29.9891 15.0938C29.9891 15.1548 30.0381 15.2068 30.0991 15.2068C30.1292 15.2068 30.158 15.1949 30.1794 15.1737C30.2007 15.1526 30.2128 15.1238 30.2131 15.0938V15.0858C30.2116 15.0569 30.1989 15.0298 30.1779 15.0101C30.1568 14.9903 30.129 14.9795 30.1001 14.9798H30.0991ZM30.6621 14.9798C30.6473 14.9799 30.6327 14.983 30.6191 14.9888C30.6055 14.9946 30.5932 15.003 30.5828 15.0136C30.5725 15.0242 30.5644 15.0368 30.559 15.0505C30.5535 15.0643 30.5508 15.079 30.5511 15.0938C30.5511 15.1548 30.6011 15.2068 30.6621 15.2068C30.692 15.2065 30.7206 15.1945 30.7417 15.1734C30.7628 15.1523 30.7748 15.1237 30.7751 15.0938V15.0858C30.7736 15.0569 30.7609 15.0298 30.7399 15.0101C30.7188 14.9903 30.691 14.9795 30.6621 14.9798ZM31.2251 14.9798C31.2102 14.9798 31.1955 14.9827 31.1818 14.9885C31.1681 14.9942 31.1556 15.0027 31.1452 15.0133C31.1348 15.0239 31.1266 15.0365 31.121 15.0503C31.1155 15.0641 31.1128 15.0789 31.1131 15.0938C31.1131 15.1548 31.1631 15.2068 31.2251 15.2068C31.255 15.2065 31.2836 15.1945 31.3047 15.1734C31.3258 15.1523 31.3378 15.1237 31.3381 15.0938V15.0858C31.3366 15.0569 31.3239 15.0298 31.3029 15.0101C31.2818 14.9903 31.254 14.9795 31.2251 14.9798ZM31.7871 14.9798C31.7723 14.9799 31.7577 14.983 31.7441 14.9888C31.7305 14.9946 31.7182 15.003 31.7078 15.0136C31.6975 15.0242 31.6894 15.0368 31.684 15.0505C31.6785 15.0643 31.6758 15.079 31.6761 15.0938C31.6761 15.1548 31.7261 15.2068 31.7871 15.2068C31.8481 15.2068 31.8971 15.1548 31.8981 15.0938V15.0738C31.8942 15.0475 31.881 15.0234 31.8607 15.0061C31.8405 14.9889 31.8147 14.9795 31.7881 14.9798H31.7871ZM32.3501 14.9798C32.3351 14.9795 32.3201 14.9823 32.3062 14.9879C32.2922 14.9935 32.2795 15.0019 32.2689 15.0126C32.2582 15.0232 32.2499 15.0359 32.2442 15.0498C32.2386 15.0638 32.2358 15.0787 32.2361 15.0938C32.2361 15.1558 32.2881 15.2078 32.3501 15.2068C32.4101 15.2068 32.4601 15.1548 32.4601 15.0938C32.4621 15.0858 32.4621 15.0818 32.4601 15.0738C32.4562 15.0475 32.443 15.0234 32.4227 15.0061C32.4025 14.9889 32.3767 14.9795 32.3501 14.9798ZM32.9121 14.9798C32.8971 14.9796 32.8823 14.9825 32.8685 14.9882C32.8546 14.9939 32.8421 15.0023 32.8315 15.0129C32.821 15.0235 32.8127 15.0362 32.8071 15.0501C32.8016 15.064 32.7988 15.0788 32.7991 15.0938C32.7991 15.1558 32.8501 15.2078 32.9121 15.2068C32.9731 15.2068 33.0221 15.1548 33.0231 15.0938V15.0858C33.0216 15.0575 33.0094 15.0308 32.989 15.0111C32.9686 14.9914 32.9414 14.9802 32.9131 14.9798H32.9121ZM33.4751 14.9798C33.4601 14.9795 33.4451 14.9823 33.4312 14.9879C33.4172 14.9935 33.4045 15.0019 33.3939 15.0126C33.3832 15.0232 33.3749 15.0359 33.3692 15.0498C33.3636 15.0638 33.3608 15.0787 33.3611 15.0938C33.3611 15.1558 33.4131 15.2078 33.4751 15.2068C33.5045 15.2057 33.5323 15.1934 33.5528 15.1724C33.5733 15.1513 33.5849 15.1232 33.5851 15.0938V15.0858C33.5836 15.0575 33.5714 15.0308 33.551 15.0111C33.5306 14.9914 33.5034 14.9802 33.4751 14.9798ZM34.0371 14.9798C34.0221 14.9796 34.0073 14.9825 33.9935 14.9882C33.9796 14.9939 33.9671 15.0023 33.9565 15.0129C33.946 15.0235 33.9377 15.0362 33.9321 15.0501C33.9266 15.064 33.9238 15.0788 33.9241 15.0938C33.9241 15.1558 33.9751 15.2078 34.0371 15.2068C34.0666 15.206 34.0947 15.1938 34.1154 15.1727C34.1361 15.1516 34.1478 15.1233 34.1481 15.0938V15.0858C34.1466 15.0575 34.1344 15.0308 34.114 15.0111C34.0936 14.9914 34.0664 14.9802 34.0381 14.9798H34.0371ZM34.5971 14.9798C34.5824 14.98 34.5679 14.9832 34.5544 14.9891C34.5409 14.9949 34.5287 15.0034 34.5185 15.014C34.5083 15.0246 34.5002 15.0371 34.4949 15.0508C34.4895 15.0644 34.4868 15.0791 34.4871 15.0938C34.4871 15.1548 34.5361 15.2068 34.5971 15.2068C34.6272 15.2068 34.656 15.1949 34.6774 15.1737C34.6987 15.1526 34.7108 15.1238 34.7111 15.0938V15.0858C34.7096 15.0569 34.6969 15.0298 34.6759 15.0101C34.6548 14.9903 34.627 14.9795 34.5981 14.9798H34.5971ZM18.1301 18.0778C17.9167 18.0724 17.7044 18.1099 17.5056 18.1878C17.3069 18.2658 17.1258 18.3828 16.973 18.5318C16.8201 18.6809 16.6987 18.859 16.6158 19.0558C16.5328 19.2525 16.4901 19.4638 16.4901 19.6773C16.4901 19.8908 16.5328 20.1021 16.6158 20.2988C16.6987 20.4955 16.8201 20.6736 16.973 20.8227C17.1258 20.9718 17.3069 21.0887 17.5056 21.1667C17.7044 21.2447 17.9167 21.2821 18.1301 21.2768C18.5474 21.2663 18.9441 21.0932 19.2355 20.7944C19.527 20.4956 19.6901 20.0947 19.6901 19.6773C19.6901 19.2599 19.527 18.859 19.2355 18.5601C18.9441 18.2613 18.5474 18.0882 18.1301 18.0778ZM22.1301 18.0778C21.9167 18.0724 21.7044 18.1099 21.5056 18.1878C21.3069 18.2658 21.1258 18.3828 20.973 18.5318C20.8201 18.6809 20.6987 18.859 20.6158 19.0558C20.5328 19.2525 20.4901 19.4638 20.4901 19.6773C20.4901 19.8908 20.5328 20.1021 20.6158 20.2988C20.6987 20.4955 20.8201 20.6736 20.973 20.8227C21.1258 20.9718 21.3069 21.0887 21.5056 21.1667C21.7044 21.2447 21.9167 21.2821 22.1301 21.2768C22.5474 21.2663 22.9441 21.0932 23.2355 20.7944C23.527 20.4956 23.6901 20.0947 23.6901 19.6773C23.6901 19.2599 23.527 18.859 23.2355 18.5601C22.9441 18.2613 22.5474 18.0882 22.1301 18.0778ZM26.1301 18.0778C25.9167 18.0724 25.7044 18.1099 25.5056 18.1878C25.3069 18.2658 25.1258 18.3828 24.973 18.5318C24.8201 18.6809 24.6987 18.859 24.6158 19.0558C24.5328 19.2525 24.4901 19.4638 24.4901 19.6773C24.4901 19.8908 24.5328 20.1021 24.6158 20.2988C24.6987 20.4955 24.8201 20.6736 24.973 20.8227C25.1258 20.9718 25.3069 21.0887 25.5056 21.1667C25.7044 21.2447 25.9167 21.2821 26.1301 21.2768C26.5474 21.2663 26.9441 21.0932 27.2355 20.7944C27.527 20.4956 27.6901 20.0947 27.6901 19.6773C27.6901 19.2599 27.527 18.859 27.2355 18.5601C26.9441 18.2613 26.5474 18.0882 26.1301 18.0778ZM30.1301 18.0778C29.9167 18.0724 29.7044 18.1099 29.5056 18.1878C29.3069 18.2658 29.1258 18.3828 28.973 18.5318C28.8201 18.6809 28.6987 18.859 28.6158 19.0558C28.5328 19.2525 28.4901 19.4638 28.4901 19.6773C28.4901 19.8908 28.5328 20.1021 28.6158 20.2988C28.6987 20.4955 28.8201 20.6736 28.973 20.8227C29.1258 20.9718 29.3069 21.0887 29.5056 21.1667C29.7044 21.2447 29.9167 21.2821 30.1301 21.2768C30.5474 21.2663 30.9441 21.0932 31.2355 20.7944C31.527 20.4956 31.6901 20.0947 31.6901 19.6773C31.6901 19.2599 31.527 18.859 31.2355 18.5601C30.9441 18.2613 30.5474 18.0882 30.1301 18.0778ZM18.1301 18.5388C18.4318 18.5384 18.7213 18.6578 18.9349 18.8709C19.1485 19.0839 19.2687 19.3731 19.2691 19.6748C19.2695 19.9765 19.15 20.2659 18.937 20.4795C18.724 20.6931 18.4348 20.8134 18.1331 20.8138C17.8314 20.8142 17.5419 20.6947 17.3283 20.4817C17.1147 20.2686 16.9945 19.9795 16.9941 19.6778C16.9937 19.3761 17.1132 19.0866 17.3262 18.873C17.5392 18.6594 17.8284 18.5392 18.1301 18.5388ZM22.1301 18.5388C22.4318 18.5384 22.7213 18.6578 22.9349 18.8709C23.1485 19.0839 23.2687 19.3731 23.2691 19.6748C23.2695 19.9765 23.15 20.2659 22.937 20.4795C22.724 20.6931 22.4348 20.8134 22.1331 20.8138C21.9837 20.814 21.8358 20.7847 21.6977 20.7278C21.5596 20.6708 21.4341 20.5872 21.3283 20.4817C21.2226 20.3762 21.1386 20.2509 21.0813 20.113C21.0239 19.975 20.9943 19.8272 20.9941 19.6778C20.9939 19.5284 21.0231 19.3804 21.0801 19.2424C21.1371 19.1043 21.2207 18.9788 21.3262 18.873C21.4317 18.7672 21.557 18.6833 21.6949 18.6259C21.8328 18.5686 21.9807 18.539 22.1301 18.5388ZM26.1301 18.5388C26.4318 18.5384 26.7213 18.6578 26.9349 18.8709C27.1485 19.0839 27.2687 19.3731 27.2691 19.6748C27.2695 19.9765 27.15 20.2659 26.937 20.4795C26.724 20.6931 26.4348 20.8134 26.1331 20.8138C25.9837 20.814 25.8358 20.7847 25.6977 20.7278C25.5596 20.6708 25.4341 20.5872 25.3283 20.4817C25.2226 20.3762 25.1386 20.2509 25.0813 20.113C25.0239 19.975 24.9943 19.8272 24.9941 19.6778C24.9939 19.5284 25.0231 19.3804 25.0801 19.2424C25.1371 19.1043 25.2207 18.9788 25.3262 18.873C25.4317 18.7672 25.557 18.6833 25.6949 18.6259C25.8328 18.5686 25.9807 18.539 26.1301 18.5388ZM30.1301 18.5388C30.2795 18.5386 30.4274 18.5678 30.5655 18.6248C30.7036 18.6818 30.8291 18.7654 30.9349 18.8709C31.0406 18.9764 31.1246 19.1017 31.1819 19.2396C31.2393 19.3775 31.2689 19.5254 31.2691 19.6748C31.2693 19.8242 31.2401 19.9721 31.1831 20.1102C31.1261 20.2483 31.0425 20.3738 30.937 20.4795C30.8315 20.5853 30.7062 20.6693 30.5683 20.7266C30.4304 20.784 30.2825 20.8136 30.1331 20.8138C29.8314 20.8142 29.5419 20.6947 29.3283 20.4817C29.1147 20.2686 28.9945 19.9795 28.9941 19.6778C28.9937 19.3761 29.1132 19.0866 29.3262 18.873C29.5392 18.6594 29.8284 18.5392 30.1301 18.5388ZM13.7951 23.9798C13.7803 23.9799 13.7657 23.983 13.7521 23.9888C13.7385 23.9946 13.7262 24.003 13.7158 24.0136C13.7055 24.0242 13.6974 24.0368 13.6919 24.0505C13.6865 24.0643 13.6838 24.079 13.6841 24.0938C13.6841 24.1548 13.7341 24.2058 13.7941 24.2068C13.8571 24.2068 13.9071 24.1568 13.9081 24.0938C13.9084 24.0788 13.9056 24.064 13.9001 24.0501C13.8945 24.0362 13.8862 24.0235 13.8757 24.0129C13.8651 24.0023 13.8526 23.9939 13.8387 23.9882C13.8249 23.9825 13.8101 23.9796 13.7951 23.9798ZM14.3571 23.9798C14.327 23.98 14.2983 23.9922 14.2771 24.0135C14.256 24.0349 14.2441 24.0637 14.2441 24.0938C14.2441 24.1548 14.2961 24.2068 14.3571 24.2068C14.4191 24.2068 14.4681 24.1548 14.4691 24.0938V24.0738C14.4652 24.0471 14.4516 24.0228 14.431 24.0055C14.4103 23.9881 14.384 23.979 14.3571 23.9798ZM14.9201 23.9798C14.9051 23.9796 14.8903 23.9825 14.8765 23.9882C14.8626 23.9939 14.8501 24.0023 14.8395 24.0129C14.829 24.0235 14.8207 24.0362 14.8151 24.0501C14.8096 24.064 14.8068 24.0788 14.8071 24.0938C14.8071 24.1558 14.8571 24.2078 14.9201 24.2068C14.9811 24.2068 15.0301 24.1548 15.0311 24.0938V24.0738C15.0272 24.0473 15.0138 24.0231 14.9934 24.0058C14.9729 23.9885 14.9469 23.9792 14.9201 23.9798ZM15.4821 23.9798C15.4671 23.9796 15.4523 23.9825 15.4385 23.9882C15.4246 23.9939 15.4121 24.0023 15.4015 24.0129C15.391 24.0235 15.3827 24.0362 15.3771 24.0501C15.3716 24.064 15.3688 24.0788 15.3691 24.0938C15.3691 24.1558 15.4201 24.2078 15.4821 24.2068C15.5441 24.2068 15.5931 24.1548 15.5941 24.0938V24.0858C15.5923 24.0573 15.5797 24.0306 15.5589 24.0111C15.5381 23.9916 15.5106 23.9807 15.4821 23.9808V23.9798ZM16.0451 23.9798C16.0301 23.9796 16.0153 23.9825 16.0015 23.9882C15.9876 23.9939 15.9751 24.0023 15.9645 24.0129C15.954 24.0235 15.9457 24.0362 15.9401 24.0501C15.9346 24.064 15.9318 24.0788 15.9321 24.0938C15.9321 24.1558 15.9821 24.2078 16.0451 24.2068C16.1061 24.2068 16.1551 24.1548 16.1561 24.0938V24.0858C16.1543 24.0575 16.1419 24.0309 16.1213 24.0114C16.1007 23.9919 16.0735 23.981 16.0451 23.9808V23.9798ZM16.6071 23.9798C16.5921 23.9796 16.5773 23.9825 16.5635 23.9882C16.5496 23.9939 16.5371 24.0023 16.5265 24.0129C16.516 24.0235 16.5077 24.0362 16.5021 24.0501C16.4966 24.064 16.4938 24.0788 16.4941 24.0938C16.4941 24.1558 16.5451 24.2078 16.6071 24.2068C16.6691 24.2068 16.7181 24.1548 16.7191 24.0938V24.0858C16.7173 24.0573 16.7047 24.0306 16.6839 24.0111C16.6631 23.9916 16.6356 23.9807 16.6071 23.9808V23.9798ZM17.1681 23.9798C17.1533 23.9799 17.1387 23.983 17.1251 23.9888C17.1115 23.9946 17.0992 24.003 17.0888 24.0136C17.0785 24.0242 17.0704 24.0368 17.065 24.0505C17.0595 24.0643 17.0568 24.079 17.0571 24.0938C17.0571 24.1548 17.1071 24.2068 17.1681 24.2068C17.198 24.2065 17.2266 24.1945 17.2477 24.1734C17.2688 24.1523 17.2808 24.1237 17.2811 24.0938V24.0858C17.2793 24.0571 17.2666 24.0303 17.2456 24.0107C17.2245 23.9912 17.1968 23.9805 17.1681 23.9808V23.9798ZM17.7311 23.9798C17.7162 23.9798 17.7015 23.9827 17.6878 23.9885C17.6741 23.9942 17.6616 24.0027 17.6512 24.0133C17.6408 24.0239 17.6326 24.0365 17.627 24.0503C17.6215 24.0641 17.6188 24.0789 17.6191 24.0938C17.6191 24.1548 17.6691 24.2068 17.7301 24.2068C17.7602 24.2068 17.789 24.1949 17.8104 24.1737C17.8317 24.1526 17.8438 24.1238 17.8441 24.0938V24.0858C17.8423 24.0569 17.8294 24.0299 17.8082 24.0104C17.787 23.9908 17.759 23.9802 17.7301 23.9808L17.7311 23.9798ZM18.2931 23.9798C18.2783 23.9799 18.2637 23.983 18.2501 23.9888C18.2365 23.9946 18.2242 24.003 18.2138 24.0136C18.2035 24.0242 18.1954 24.0368 18.19 24.0505C18.1845 24.0643 18.1818 24.079 18.1821 24.0938C18.1821 24.1548 18.2321 24.2068 18.2931 24.2068C18.323 24.2065 18.3516 24.1945 18.3727 24.1734C18.3938 24.1523 18.4058 24.1237 18.4061 24.0938V24.0858C18.4043 24.0571 18.3916 24.0303 18.3706 24.0107C18.3495 23.9912 18.3218 23.9805 18.2931 23.9808V23.9798ZM18.8561 23.9798C18.8412 23.9798 18.8265 23.9827 18.8128 23.9885C18.7991 23.9942 18.7866 24.0027 18.7762 24.0133C18.7658 24.0239 18.7576 24.0365 18.752 24.0503C18.7465 24.0641 18.7438 24.0789 18.7441 24.0938C18.7441 24.1548 18.7941 24.2068 18.8551 24.2068C18.9171 24.2068 18.9661 24.1548 18.9671 24.0938V24.0738C18.9632 24.0473 18.9498 24.0231 18.9294 24.0058C18.9089 23.9885 18.8829 23.9792 18.8561 23.9798ZM19.4181 23.9798C19.4031 23.9796 19.3883 23.9825 19.3745 23.9882C19.3606 23.9939 19.3481 24.0023 19.3375 24.0129C19.327 24.0235 19.3187 24.0362 19.3131 24.0501C19.3076 24.064 19.3048 24.0788 19.3051 24.0938C19.3051 24.1558 19.3561 24.2078 19.4181 24.2068C19.4791 24.2068 19.5281 24.1548 19.5291 24.0938V24.0858C19.5273 24.0575 19.5149 24.0309 19.4943 24.0114C19.4737 23.9919 19.4465 23.981 19.4181 23.9808V23.9798ZM19.9811 23.9798C19.9661 23.9795 19.9511 23.9823 19.9372 23.9879C19.9232 23.9935 19.9105 24.0019 19.8999 24.0126C19.8892 24.0232 19.8809 24.0359 19.8752 24.0498C19.8696 24.0638 19.8668 24.0787 19.8671 24.0938C19.8671 24.1558 19.9191 24.2078 19.9801 24.2068C20.0421 24.2068 20.0911 24.1548 20.0921 24.0938V24.0858C20.0903 24.0575 20.0779 24.0309 20.0573 24.0114C20.0367 23.9919 20.0095 23.981 19.9811 23.9808V23.9798ZM20.5431 23.9798C20.5281 23.9796 20.5133 23.9825 20.4995 23.9882C20.4856 23.9939 20.4731 24.0023 20.4625 24.0129C20.452 24.0235 20.4437 24.0362 20.4381 24.0501C20.4326 24.064 20.4298 24.0788 20.4301 24.0938C20.4301 24.1558 20.4811 24.2078 20.5431 24.2068C20.6041 24.2068 20.6531 24.1548 20.6541 24.0938V24.0858C20.6523 24.0575 20.6399 24.0309 20.6193 24.0114C20.5987 23.9919 20.5715 23.981 20.5431 23.9808V23.9798ZM21.1061 23.9798C21.0911 23.9795 21.0761 23.9823 21.0622 23.9879C21.0482 23.9935 21.0355 24.0019 21.0249 24.0126C21.0142 24.0232 21.0059 24.0359 21.0002 24.0498C20.9946 24.0638 20.9918 24.0787 20.9921 24.0938C20.9921 24.1558 21.0441 24.2078 21.1051 24.2068C21.1671 24.2068 21.2161 24.1548 21.2171 24.0938V24.0858C21.2153 24.0575 21.2029 24.0309 21.1823 24.0114C21.1617 23.9919 21.1345 23.981 21.1061 23.9808V23.9798ZM21.6661 23.9798C21.6513 23.9799 21.6367 23.983 21.6231 23.9888C21.6095 23.9946 21.5972 24.003 21.5868 24.0136C21.5765 24.0242 21.5684 24.0368 21.563 24.0505C21.5575 24.0643 21.5548 24.079 21.5551 24.0938C21.5551 24.1548 21.6051 24.2068 21.6661 24.2068C21.696 24.2065 21.7246 24.1945 21.7457 24.1734C21.7668 24.1523 21.7788 24.1237 21.7791 24.0938V24.0858C21.7773 24.0571 21.7646 24.0303 21.7436 24.0107C21.7225 23.9912 21.6948 23.9805 21.6661 23.9808V23.9798ZM22.2291 23.9798C22.2142 23.9798 22.1995 23.9827 22.1858 23.9885C22.1721 23.9942 22.1596 24.0027 22.1492 24.0133C22.1388 24.0239 22.1306 24.0365 22.125 24.0503C22.1195 24.0641 22.1168 24.0789 22.1171 24.0938C22.1171 24.1548 22.1671 24.2068 22.2281 24.2068C22.2582 24.2068 22.287 24.1949 22.3084 24.1737C22.3297 24.1526 22.3418 24.1238 22.3421 24.0938V24.0858C22.3403 24.0571 22.3276 24.0303 22.3066 24.0107C22.2855 23.9912 22.2578 23.9805 22.2291 23.9808V23.9798ZM22.7911 23.9798C22.7763 23.9799 22.7617 23.983 22.7481 23.9888C22.7345 23.9946 22.7222 24.003 22.7118 24.0136C22.7015 24.0242 22.6934 24.0368 22.688 24.0505C22.6825 24.0643 22.6798 24.079 22.6801 24.0938C22.6801 24.1548 22.7301 24.2058 22.7911 24.2068C22.8531 24.2068 22.9041 24.1568 22.9041 24.0938C22.9044 24.0788 22.9016 24.064 22.8961 24.0501C22.8905 24.0362 22.8822 24.0235 22.8717 24.0129C22.8611 24.0023 22.8486 23.9939 22.8347 23.9882C22.8209 23.9825 22.8061 23.9796 22.7911 23.9798ZM23.3541 23.9798C23.3392 23.9798 23.3245 23.9827 23.3108 23.9885C23.2971 23.9942 23.2846 24.0027 23.2742 24.0133C23.2638 24.0239 23.2556 24.0365 23.25 24.0503C23.2445 24.0641 23.2418 24.0789 23.2421 24.0938C23.2421 24.1548 23.2921 24.2068 23.3531 24.2068C23.3828 24.2063 23.4112 24.1942 23.4321 24.173C23.453 24.1519 23.4648 24.1235 23.4651 24.0938V24.0738C23.461 24.0474 23.4475 24.0233 23.4271 24.0061C23.4068 23.9888 23.3808 23.9795 23.3541 23.9798ZM23.9161 23.9798C23.9011 23.9796 23.8863 23.9825 23.8725 23.9882C23.8586 23.9939 23.8461 24.0023 23.8355 24.0129C23.825 24.0235 23.8167 24.0362 23.8111 24.0501C23.8056 24.064 23.8028 24.0788 23.8031 24.0938C23.8031 24.1558 23.8541 24.2078 23.9161 24.2068C23.9771 24.2068 24.0261 24.1548 24.0271 24.0938V24.0738C24.0232 24.0473 24.0098 24.0231 23.9894 24.0058C23.9689 23.9885 23.9429 23.9792 23.9161 23.9798ZM24.4791 23.9798C24.4641 23.9795 24.4491 23.9823 24.4352 23.9879C24.4212 23.9935 24.4085 24.0019 24.3979 24.0126C24.3872 24.0232 24.3789 24.0359 24.3732 24.0498C24.3676 24.0638 24.3648 24.0787 24.3651 24.0938C24.3651 24.1558 24.4171 24.2078 24.4791 24.2068C24.5391 24.2068 24.5891 24.1548 24.5891 24.0938V24.0858C24.5873 24.0576 24.575 24.0312 24.5547 24.0117C24.5343 23.9923 24.5073 23.9812 24.4791 23.9808V23.9798ZM25.0411 23.9798C25.0261 23.9796 25.0113 23.9825 24.9975 23.9882C24.9836 23.9939 24.9711 24.0023 24.9605 24.0129C24.95 24.0235 24.9417 24.0362 24.9361 24.0501C24.9306 24.064 24.9278 24.0788 24.9281 24.0938C24.9281 24.1558 24.9791 24.2078 25.0411 24.2068C25.1021 24.2068 25.1511 24.1548 25.1521 24.0938V24.0858C25.1503 24.0575 25.1379 24.0309 25.1173 24.0114C25.0967 23.9919 25.0695 23.981 25.0411 23.9808V23.9798ZM25.6011 23.9798C25.5864 23.98 25.5719 23.9832 25.5584 23.9891C25.5449 23.9949 25.5327 24.0034 25.5225 24.014C25.5123 24.0246 25.5042 24.0371 25.4989 24.0508C25.4935 24.0644 25.4908 24.0791 25.4911 24.0938C25.4911 24.1548 25.5411 24.2068 25.6011 24.2068C25.6312 24.2068 25.66 24.1949 25.6814 24.1737C25.7027 24.1526 25.7148 24.1238 25.7151 24.0938V24.0858C25.7133 24.0571 25.7006 24.0303 25.6796 24.0107C25.6585 23.9912 25.6308 23.9805 25.6021 23.9808L25.6011 23.9798ZM26.1641 23.9798C26.1493 23.9799 26.1347 23.983 26.1211 23.9888C26.1075 23.9946 26.0952 24.003 26.0848 24.0136C26.0745 24.0242 26.0664 24.0368 26.0609 24.0505C26.0555 24.0643 26.0528 24.079 26.0531 24.0938C26.0531 24.1548 26.1031 24.2068 26.1641 24.2068C26.194 24.2065 26.2226 24.1945 26.2437 24.1734C26.2648 24.1523 26.2768 24.1237 26.2771 24.0938V24.0858C26.2753 24.0571 26.2626 24.0303 26.2416 24.0107C26.2205 23.9912 26.1928 23.9805 26.1641 23.9808V23.9798ZM26.7271 23.9798C26.7122 23.9798 26.6975 23.9827 26.6838 23.9885C26.6701 23.9942 26.6576 24.0027 26.6472 24.0133C26.6368 24.0239 26.6286 24.0365 26.623 24.0503C26.6175 24.0641 26.6148 24.0789 26.6151 24.0938C26.6151 24.1548 26.6651 24.2068 26.7271 24.2068C26.757 24.2065 26.7856 24.1945 26.8067 24.1734C26.8278 24.1523 26.8398 24.1237 26.8401 24.0938V24.0858C26.8383 24.0571 26.8256 24.0303 26.8046 24.0107C26.7835 23.9912 26.7558 23.9805 26.7271 23.9808V23.9798ZM27.2891 23.9798C27.2743 23.9799 27.2597 23.983 27.2461 23.9888C27.2325 23.9946 27.2202 24.003 27.2098 24.0136C27.1995 24.0242 27.1914 24.0368 27.1859 24.0505C27.1805 24.0643 27.1778 24.079 27.1781 24.0938C27.1781 24.1548 27.2281 24.2058 27.2891 24.2068C27.3511 24.2068 27.4021 24.1568 27.4021 24.0938C27.4024 24.0788 27.3996 24.064 27.3941 24.0501C27.3885 24.0362 27.3802 24.0235 27.3697 24.0129C27.3591 24.0023 27.3466 23.9939 27.3327 23.9882C27.3189 23.9825 27.3041 23.9796 27.2891 23.9798ZM27.8521 23.9798C27.8372 23.9798 27.8225 23.9827 27.8088 23.9885C27.7951 23.9942 27.7826 24.0027 27.7722 24.0133C27.7618 24.0239 27.7536 24.0365 27.748 24.0503C27.7425 24.0641 27.7398 24.0789 27.7401 24.0938C27.7401 24.1548 27.7901 24.2068 27.8521 24.2068C27.9121 24.2068 27.9621 24.1548 27.9621 24.0938C27.9641 24.0858 27.9641 24.0818 27.9621 24.0738C27.9582 24.0475 27.945 24.0234 27.9247 24.0061C27.9045 23.9889 27.8787 23.9795 27.8521 23.9798ZM28.4141 23.9798C28.3991 23.9796 28.3843 23.9825 28.3705 23.9882C28.3566 23.9939 28.3441 24.0023 28.3335 24.0129C28.323 24.0235 28.3147 24.0362 28.3091 24.0501C28.3036 24.064 28.3008 24.0788 28.3011 24.0938C28.3011 24.1558 28.3521 24.2078 28.4141 24.2068C28.4751 24.2068 28.5241 24.1548 28.5251 24.0938V24.0858C28.5233 24.0576 28.511 24.0312 28.4907 24.0117C28.4703 23.9923 28.4433 23.9812 28.4151 23.9808L28.4141 23.9798ZM28.9771 23.9798C28.9621 23.9795 28.9471 23.9823 28.9332 23.9879C28.9192 23.9935 28.9065 24.0019 28.8959 24.0126C28.8852 24.0232 28.8769 24.0359 28.8712 24.0498C28.8656 24.0638 28.8628 24.0787 28.8631 24.0938C28.8631 24.1558 28.9151 24.2078 28.9771 24.2068C29.0371 24.2068 29.0871 24.1548 29.0871 24.0938V24.0858C29.0853 24.0576 29.073 24.0312 29.0527 24.0117C29.0323 23.9923 29.0053 23.9812 28.9771 23.9808V23.9798ZM29.5391 23.9798C29.5241 23.9796 29.5093 23.9825 29.4955 23.9882C29.4816 23.9939 29.4691 24.0023 29.4585 24.0129C29.448 24.0235 29.4397 24.0362 29.4341 24.0501C29.4286 24.064 29.4258 24.0788 29.4261 24.0938C29.4261 24.1558 29.4771 24.2078 29.5391 24.2068C29.6001 24.2068 29.6491 24.1548 29.6501 24.0938V24.0858C29.6483 24.0576 29.636 24.0312 29.6157 24.0117C29.5953 23.9923 29.5683 23.9812 29.5401 23.9808L29.5391 23.9798ZM30.0991 23.9798C30.0844 23.98 30.0699 23.9832 30.0564 23.9891C30.0429 23.9949 30.0307 24.0034 30.0205 24.014C30.0103 24.0246 30.0022 24.0371 29.9969 24.0508C29.9915 24.0644 29.9888 24.0791 29.9891 24.0938C29.9891 24.1548 30.0381 24.2068 30.0991 24.2068C30.1292 24.2068 30.158 24.1949 30.1794 24.1737C30.2007 24.1526 30.2128 24.1238 30.2131 24.0938V24.0858C30.2113 24.0571 30.1986 24.0303 30.1776 24.0107C30.1565 23.9912 30.1288 23.9805 30.1001 23.9808L30.0991 23.9798ZM30.6621 23.9798C30.6473 23.9799 30.6327 23.983 30.6191 23.9888C30.6055 23.9946 30.5932 24.003 30.5828 24.0136C30.5725 24.0242 30.5644 24.0368 30.559 24.0505C30.5535 24.0643 30.5508 24.079 30.5511 24.0938C30.5511 24.1548 30.6011 24.2068 30.6621 24.2068C30.692 24.2065 30.7206 24.1945 30.7417 24.1734C30.7628 24.1523 30.7748 24.1237 30.7751 24.0938V24.0858C30.7733 24.0571 30.7606 24.0303 30.7396 24.0107C30.7185 23.9912 30.6908 23.9805 30.6621 23.9808V23.9798ZM31.2251 23.9798C31.2102 23.9798 31.1955 23.9827 31.1818 23.9885C31.1681 23.9942 31.1556 24.0027 31.1452 24.0133C31.1348 24.0239 31.1266 24.0365 31.121 24.0503C31.1155 24.0641 31.1128 24.0789 31.1131 24.0938C31.1131 24.1548 31.1631 24.2068 31.2251 24.2068C31.255 24.2065 31.2836 24.1945 31.3047 24.1734C31.3258 24.1523 31.3378 24.1237 31.3381 24.0938V24.0858C31.3363 24.0571 31.3236 24.0303 31.3026 24.0107C31.2815 23.9912 31.2538 23.9805 31.2251 23.9808V23.9798ZM31.7871 23.9798C31.7723 23.9799 31.7577 23.983 31.7441 23.9888C31.7305 23.9946 31.7182 24.003 31.7078 24.0136C31.6975 24.0242 31.6894 24.0368 31.684 24.0505C31.6785 24.0643 31.6758 24.079 31.6761 24.0938C31.6761 24.1548 31.7261 24.2068 31.7871 24.2068C31.8481 24.2068 31.8971 24.1548 31.8981 24.0938V24.0738C31.8942 24.0475 31.881 24.0234 31.8607 24.0061C31.8405 23.9889 31.8147 23.9795 31.7881 23.9798H31.7871ZM32.3501 23.9798C32.3351 23.9795 32.3201 23.9823 32.3062 23.9879C32.2922 23.9935 32.2795 24.0019 32.2689 24.0126C32.2582 24.0232 32.2499 24.0359 32.2442 24.0498C32.2386 24.0638 32.2358 24.0787 32.2361 24.0938C32.2361 24.1558 32.2881 24.2078 32.3501 24.2068C32.4101 24.2068 32.4601 24.1548 32.4601 24.0938C32.4621 24.0858 32.4621 24.0818 32.4601 24.0738C32.4562 24.0475 32.443 24.0234 32.4227 24.0061C32.4025 23.9889 32.3767 23.9795 32.3501 23.9798ZM32.9121 23.9798C32.8971 23.9796 32.8823 23.9825 32.8685 23.9882C32.8546 23.9939 32.8421 24.0023 32.8315 24.0129C32.821 24.0235 32.8127 24.0362 32.8071 24.0501C32.8016 24.064 32.7988 24.0788 32.7991 24.0938C32.7991 24.1558 32.8501 24.2078 32.9121 24.2068C32.9731 24.2068 33.0221 24.1548 33.0231 24.0938V24.0858C33.0213 24.0576 33.009 24.0312 32.9887 24.0117C32.9683 23.9923 32.9413 23.9812 32.9131 23.9808L32.9121 23.9798ZM33.4751 23.9798C33.4601 23.9795 33.4451 23.9823 33.4312 23.9879C33.4172 23.9935 33.4045 24.0019 33.3939 24.0126C33.3832 24.0232 33.3749 24.0359 33.3692 24.0498C33.3636 24.0638 33.3608 24.0787 33.3611 24.0938C33.3611 24.1558 33.4131 24.2078 33.4751 24.2068C33.5045 24.2057 33.5323 24.1934 33.5528 24.1724C33.5733 24.1513 33.5849 24.1232 33.5851 24.0938V24.0858C33.5833 24.0576 33.571 24.0312 33.5507 24.0117C33.5303 23.9923 33.5033 23.9812 33.4751 23.9808V23.9798ZM34.0371 23.9798C34.0221 23.9796 34.0073 23.9825 33.9935 23.9882C33.9796 23.9939 33.9671 24.0023 33.9565 24.0129C33.946 24.0235 33.9377 24.0362 33.9321 24.0501C33.9266 24.064 33.9238 24.0788 33.9241 24.0938C33.9241 24.1558 33.9751 24.2078 34.0371 24.2068C34.0666 24.206 34.0947 24.1938 34.1154 24.1727C34.1361 24.1516 34.1478 24.1233 34.1481 24.0938V24.0858C34.1463 24.0576 34.134 24.0312 34.1137 24.0117C34.0933 23.9923 34.0663 23.9812 34.0381 23.9808L34.0371 23.9798ZM34.5971 23.9798C34.5824 23.98 34.5679 23.9832 34.5544 23.9891C34.5409 23.9949 34.5287 24.0034 34.5185 24.014C34.5083 24.0246 34.5002 24.0371 34.4949 24.0508C34.4895 24.0644 34.4868 24.0791 34.4871 24.0938C34.4871 24.1548 34.5361 24.2068 34.5971 24.2068C34.6272 24.2068 34.656 24.1949 34.6774 24.1737C34.6987 24.1526 34.7108 24.1238 34.7111 24.0938V24.0858C34.7093 24.0571 34.6966 24.0303 34.6756 24.0107C34.6545 23.9912 34.6268 23.9805 34.5981 23.9808L34.5971 23.9798ZM18.1301 26.7458C17.9167 26.7404 17.7044 26.7779 17.5056 26.8558C17.3069 26.9338 17.1258 27.0508 16.973 27.1998C16.8201 27.3489 16.6987 27.527 16.6158 27.7238C16.5328 27.9205 16.4901 28.1318 16.4901 28.3453C16.4901 28.5588 16.5328 28.7701 16.6158 28.9668C16.6987 29.1635 16.8201 29.3416 16.973 29.4907C17.1258 29.6398 17.3069 29.7567 17.5056 29.8347C17.7044 29.9127 17.9167 29.9501 18.1301 29.9448C18.5474 29.9343 18.9441 29.7612 19.2355 29.4624C19.527 29.1636 19.6901 28.7627 19.6901 28.3453C19.6901 27.9279 19.527 27.527 19.2355 27.2281C18.9441 26.9293 18.5474 26.7562 18.1301 26.7458ZM22.1301 26.7458C21.9167 26.7404 21.7044 26.7779 21.5056 26.8558C21.3069 26.9338 21.1258 27.0508 20.973 27.1998C20.8201 27.3489 20.6987 27.527 20.6158 27.7238C20.5328 27.9205 20.4901 28.1318 20.4901 28.3453C20.4901 28.5588 20.5328 28.7701 20.6158 28.9668C20.6987 29.1635 20.8201 29.3416 20.973 29.4907C21.1258 29.6398 21.3069 29.7567 21.5056 29.8347C21.7044 29.9127 21.9167 29.9501 22.1301 29.9448C22.5474 29.9343 22.9441 29.7612 23.2355 29.4624C23.527 29.1636 23.6901 28.7627 23.6901 28.3453C23.6901 27.9279 23.527 27.527 23.2355 27.2281C22.9441 26.9293 22.5474 26.7562 22.1301 26.7458ZM26.1301 26.7458C25.9167 26.7404 25.7044 26.7779 25.5056 26.8558C25.3069 26.9338 25.1258 27.0508 24.973 27.1998C24.8201 27.3489 24.6987 27.527 24.6158 27.7238C24.5328 27.9205 24.4901 28.1318 24.4901 28.3453C24.4901 28.5588 24.5328 28.7701 24.6158 28.9668C24.6987 29.1635 24.8201 29.3416 24.973 29.4907C25.1258 29.6398 25.3069 29.7567 25.5056 29.8347C25.7044 29.9127 25.9167 29.9501 26.1301 29.9448C26.5474 29.9343 26.9441 29.7612 27.2355 29.4624C27.527 29.1636 27.6901 28.7627 27.6901 28.3453C27.6901 27.9279 27.527 27.527 27.2355 27.2281C26.9441 26.9293 26.5474 26.7562 26.1301 26.7458ZM30.1301 26.7458C29.9167 26.7404 29.7044 26.7779 29.5056 26.8558C29.3069 26.9338 29.1258 27.0508 28.973 27.1998C28.8201 27.3489 28.6987 27.527 28.6158 27.7238C28.5328 27.9205 28.4901 28.1318 28.4901 28.3453C28.4901 28.5588 28.5328 28.7701 28.6158 28.9668C28.6987 29.1635 28.8201 29.3416 28.973 29.4907C29.1258 29.6398 29.3069 29.7567 29.5056 29.8347C29.7044 29.9127 29.9167 29.9501 30.1301 29.9448C30.5474 29.9343 30.9441 29.7612 31.2355 29.4624C31.527 29.1636 31.6901 28.7627 31.6901 28.3453C31.6901 27.9279 31.527 27.527 31.2355 27.2281C30.9441 26.9293 30.5474 26.7562 30.1301 26.7458ZM18.1301 27.2068C18.2795 27.2066 18.4274 27.2359 18.5655 27.293C18.7035 27.35 18.829 27.4337 18.9347 27.5392C19.0404 27.6448 19.1243 27.7701 19.1816 27.908C19.2389 28.046 19.2685 28.1939 19.2686 28.3433C19.2687 28.4927 19.2394 28.6406 19.1824 28.7787C19.1254 28.9167 19.0417 29.0422 18.9361 29.1479C18.8306 29.2536 18.7053 29.3375 18.5673 29.3948C18.4294 29.4521 18.2815 29.4816 18.1321 29.4818C17.8304 29.482 17.541 29.3624 17.3275 29.1493C17.114 28.9362 16.9939 28.647 16.9936 28.3453C16.9933 28.0436 17.1129 27.7542 17.3261 27.5406C17.5392 27.3271 17.8284 27.207 18.1301 27.2068ZM22.1301 27.2068C22.2795 27.2066 22.4274 27.2359 22.5655 27.293C22.7035 27.35 22.829 27.4337 22.9347 27.5392C23.0404 27.6448 23.1243 27.7701 23.1816 27.908C23.2389 28.046 23.2685 28.1939 23.2686 28.3433C23.2687 28.4927 23.2394 28.6406 23.1824 28.7787C23.1254 28.9167 23.0417 29.0422 22.9361 29.1479C22.8306 29.2536 22.7053 29.3375 22.5673 29.3948C22.4294 29.4521 22.2815 29.4816 22.1321 29.4818C21.8304 29.482 21.541 29.3624 21.3275 29.1493C21.114 28.9362 20.9939 28.647 20.9936 28.3453C20.9933 28.0436 21.1129 27.7542 21.3261 27.5406C21.5392 27.3271 21.8284 27.207 22.1301 27.2068ZM26.1301 27.2068C26.2795 27.2066 26.4274 27.2359 26.5655 27.293C26.7035 27.35 26.829 27.4337 26.9347 27.5392C27.0404 27.6448 27.1243 27.7701 27.1816 27.908C27.2389 28.046 27.2685 28.1939 27.2686 28.3433C27.2687 28.4927 27.2394 28.6406 27.1824 28.7787C27.1254 28.9167 27.0417 29.0422 26.9361 29.1479C26.8306 29.2536 26.7053 29.3375 26.5673 29.3948C26.4294 29.4521 26.2815 29.4816 26.1321 29.4818C25.8304 29.482 25.541 29.3624 25.3275 29.1493C25.114 28.9362 24.9939 28.647 24.9936 28.3453C24.9933 28.0436 25.1129 27.7542 25.3261 27.5406C25.5392 27.3271 25.8284 27.207 26.1301 27.2068ZM30.1301 27.2068C30.2795 27.2066 30.4274 27.2359 30.5655 27.293C30.7035 27.35 30.829 27.4337 30.9347 27.5392C31.0404 27.6448 31.1243 27.7701 31.1816 27.908C31.2389 28.046 31.2685 28.1939 31.2686 28.3433C31.2687 28.4927 31.2394 28.6406 31.1824 28.7787C31.1254 28.9167 31.0417 29.0422 30.9361 29.1479C30.8306 29.2536 30.7053 29.3375 30.5673 29.3948C30.4294 29.4521 30.2815 29.4816 30.1321 29.4818C29.8304 29.482 29.541 29.3624 29.3275 29.1493C29.114 28.9362 28.9939 28.647 28.9936 28.3453C28.9933 28.0436 29.1129 27.7542 29.3261 27.5406C29.5392 27.3271 29.8284 27.207 30.1301 27.2068ZM13.7951 32.9798C13.7803 32.9799 13.7657 32.983 13.7521 32.9888C13.7385 32.9946 13.7262 33.003 13.7158 33.0136C13.7055 33.0242 13.6974 33.0368 13.6919 33.0505C13.6865 33.0643 13.6838 33.079 13.6841 33.0938C13.6841 33.1548 13.7341 33.2058 13.7941 33.2068C13.8571 33.2068 13.9071 33.1568 13.9081 33.0938C13.9084 33.0788 13.9056 33.064 13.9001 33.0501C13.8945 33.0362 13.8862 33.0235 13.8757 33.0129C13.8651 33.0023 13.8526 32.9939 13.8387 32.9882C13.8249 32.9825 13.8101 32.9796 13.7951 32.9798ZM14.3571 32.9798C14.327 32.98 14.2983 32.9922 14.2771 33.0135C14.256 33.0349 14.2441 33.0637 14.2441 33.0938C14.2441 33.1548 14.2961 33.2068 14.3571 33.2068C14.4191 33.2068 14.4681 33.1548 14.4691 33.0938V33.0738C14.465 33.0473 14.4513 33.0232 14.4307 33.0061C14.4101 32.989 14.3839 32.98 14.3571 32.9808V32.9798ZM14.9201 32.9798C14.9051 32.9796 14.8903 32.9825 14.8765 32.9882C14.8626 32.9939 14.8501 33.0023 14.8395 33.0129C14.829 33.0235 14.8207 33.0362 14.8151 33.0501C14.8096 33.064 14.8068 33.0788 14.8071 33.0938C14.8071 33.1558 14.8571 33.2078 14.9201 33.2068C14.9811 33.2068 15.0301 33.1548 15.0311 33.0938V33.0738C15.027 33.0475 15.0135 33.0235 14.9931 33.0064C14.9726 32.9893 14.9467 32.9802 14.9201 32.9808V32.9798ZM15.4821 32.9798C15.4671 32.9796 15.4523 32.9825 15.4385 32.9882C15.4246 32.9939 15.4121 33.0023 15.4015 33.0129C15.391 33.0235 15.3827 33.0362 15.3771 33.0501C15.3716 33.064 15.3688 33.0788 15.3691 33.0938C15.3691 33.1558 15.4201 33.2078 15.4821 33.2068C15.5441 33.2068 15.5931 33.1548 15.5941 33.0938V33.0858C15.5923 33.0573 15.5797 33.0306 15.5589 33.0111C15.5381 32.9916 15.5106 32.9807 15.4821 32.9808V32.9798ZM16.0451 32.9798C16.0301 32.9796 16.0153 32.9825 16.0015 32.9882C15.9876 32.9939 15.9751 33.0023 15.9645 33.0129C15.954 33.0235 15.9457 33.0362 15.9401 33.0501C15.9346 33.064 15.9318 33.0788 15.9321 33.0938C15.9321 33.1558 15.9821 33.2078 16.0451 33.2068C16.1061 33.2068 16.1551 33.1548 16.1561 33.0938V33.0858C16.1543 33.0575 16.1419 33.0309 16.1213 33.0114C16.1007 32.9919 16.0735 32.981 16.0451 32.9808V32.9798ZM16.6071 32.9798C16.5921 32.9796 16.5773 32.9825 16.5635 32.9882C16.5496 32.9939 16.5371 33.0023 16.5265 33.0129C16.516 33.0235 16.5077 33.0362 16.5021 33.0501C16.4966 33.064 16.4938 33.0788 16.4941 33.0938C16.4941 33.1558 16.5451 33.2078 16.6071 33.2068C16.6691 33.2068 16.7181 33.1548 16.7191 33.0938V33.0858C16.7173 33.0573 16.7047 33.0306 16.6839 33.0111C16.6631 32.9916 16.6356 32.9807 16.6071 32.9808V32.9798ZM17.1681 32.9798C17.1533 32.9799 17.1387 32.983 17.1251 32.9888C17.1115 32.9946 17.0992 33.003 17.0888 33.0136C17.0785 33.0242 17.0704 33.0368 17.065 33.0505C17.0595 33.0643 17.0568 33.079 17.0571 33.0938C17.0571 33.1548 17.1071 33.2068 17.1681 33.2068C17.198 33.2065 17.2266 33.1945 17.2477 33.1734C17.2688 33.1523 17.2808 33.1237 17.2811 33.0938V33.0858C17.2793 33.0571 17.2666 33.0303 17.2456 33.0107C17.2245 32.9912 17.1968 32.9805 17.1681 32.9808V32.9798ZM17.7311 32.9798C17.7162 32.9798 17.7015 32.9827 17.6878 32.9885C17.6741 32.9942 17.6616 33.0027 17.6512 33.0133C17.6408 33.0239 17.6326 33.0365 17.627 33.0503C17.6215 33.0641 17.6188 33.0789 17.6191 33.0938C17.6191 33.1548 17.6691 33.2068 17.7301 33.2068C17.7602 33.2068 17.789 33.1949 17.8104 33.1737C17.8317 33.1526 17.8438 33.1238 17.8441 33.0938V33.0858C17.8423 33.0569 17.8294 33.0299 17.8082 33.0104C17.787 32.9908 17.759 32.9802 17.7301 32.9808L17.7311 32.9798ZM18.2931 32.9798C18.2783 32.9799 18.2637 32.983 18.2501 32.9888C18.2365 32.9946 18.2242 33.003 18.2138 33.0136C18.2035 33.0242 18.1954 33.0368 18.19 33.0505C18.1845 33.0643 18.1818 33.079 18.1821 33.0938C18.1821 33.1548 18.2321 33.2068 18.2931 33.2068C18.323 33.2065 18.3516 33.1945 18.3727 33.1734C18.3938 33.1523 18.4058 33.1237 18.4061 33.0938V33.0858C18.4043 33.0571 18.3916 33.0303 18.3706 33.0107C18.3495 32.9912 18.3218 32.9805 18.2931 32.9808V32.9798ZM18.8561 32.9798C18.8412 32.9798 18.8265 32.9827 18.8128 32.9885C18.7991 32.9942 18.7866 33.0027 18.7762 33.0133C18.7658 33.0239 18.7576 33.0365 18.752 33.0503C18.7465 33.0641 18.7438 33.0789 18.7441 33.0938C18.7441 33.1548 18.7941 33.2068 18.8551 33.2068C18.9171 33.2068 18.9661 33.1548 18.9671 33.0938V33.0738C18.963 33.0475 18.9495 33.0235 18.9291 33.0064C18.9086 32.9893 18.8827 32.9802 18.8561 32.9808V32.9798ZM19.4181 32.9798C19.4031 32.9796 19.3883 32.9825 19.3745 32.9882C19.3606 32.9939 19.3481 33.0023 19.3375 33.0129C19.327 33.0235 19.3187 33.0362 19.3131 33.0501C19.3076 33.064 19.3048 33.0788 19.3051 33.0938C19.3051 33.1558 19.3561 33.2078 19.4181 33.2068C19.4791 33.2068 19.5281 33.1548 19.5291 33.0938V33.0858C19.5273 33.0575 19.5149 33.0309 19.4943 33.0114C19.4737 32.9919 19.4465 32.981 19.4181 32.9808V32.9798ZM19.9811 32.9798C19.9661 32.9795 19.9511 32.9823 19.9372 32.9879C19.9232 32.9935 19.9105 33.0019 19.8999 33.0126C19.8892 33.0232 19.8809 33.0359 19.8752 33.0498C19.8696 33.0638 19.8668 33.0787 19.8671 33.0938C19.8671 33.1558 19.9191 33.2078 19.9801 33.2068C20.0421 33.2068 20.0911 33.1548 20.0921 33.0938V33.0858C20.0903 33.0575 20.0779 33.0309 20.0573 33.0114C20.0367 32.9919 20.0095 32.981 19.9811 32.9808V32.9798ZM20.5431 32.9798C20.5281 32.9796 20.5133 32.9825 20.4995 32.9882C20.4856 32.9939 20.4731 33.0023 20.4625 33.0129C20.452 33.0235 20.4437 33.0362 20.4381 33.0501C20.4326 33.064 20.4298 33.0788 20.4301 33.0938C20.4301 33.1558 20.4811 33.2078 20.5431 33.2068C20.6041 33.2068 20.6531 33.1548 20.6541 33.0938V33.0858C20.6523 33.0575 20.6399 33.0309 20.6193 33.0114C20.5987 32.9919 20.5715 32.981 20.5431 32.9808V32.9798ZM21.1061 32.9798C21.0911 32.9795 21.0761 32.9823 21.0622 32.9879C21.0482 32.9935 21.0355 33.0019 21.0249 33.0126C21.0142 33.0232 21.0059 33.0359 21.0002 33.0498C20.9946 33.0638 20.9918 33.0787 20.9921 33.0938C20.9921 33.1558 21.0441 33.2078 21.1051 33.2068C21.1671 33.2068 21.2161 33.1548 21.2171 33.0938V33.0858C21.2153 33.0575 21.2029 33.0309 21.1823 33.0114C21.1617 32.9919 21.1345 32.981 21.1061 32.9808V32.9798ZM21.6661 32.9798C21.6513 32.9799 21.6367 32.983 21.6231 32.9888C21.6095 32.9946 21.5972 33.003 21.5868 33.0136C21.5765 33.0242 21.5684 33.0368 21.563 33.0505C21.5575 33.0643 21.5548 33.079 21.5551 33.0938C21.5551 33.1548 21.6051 33.2068 21.6661 33.2068C21.696 33.2065 21.7246 33.1945 21.7457 33.1734C21.7668 33.1523 21.7788 33.1237 21.7791 33.0938V33.0858C21.7773 33.0571 21.7646 33.0303 21.7436 33.0107C21.7225 32.9912 21.6948 32.9805 21.6661 32.9808V32.9798ZM22.2291 32.9798C22.2142 32.9798 22.1995 32.9827 22.1858 32.9885C22.1721 32.9942 22.1596 33.0027 22.1492 33.0133C22.1388 33.0239 22.1306 33.0365 22.125 33.0503C22.1195 33.0641 22.1168 33.0789 22.1171 33.0938C22.1171 33.1548 22.1671 33.2068 22.2281 33.2068C22.2582 33.2068 22.287 33.1949 22.3084 33.1737C22.3297 33.1526 22.3418 33.1238 22.3421 33.0938V33.0858C22.3403 33.0571 22.3276 33.0303 22.3066 33.0107C22.2855 32.9912 22.2578 32.9805 22.2291 32.9808V32.9798ZM22.7911 32.9798C22.7763 32.9799 22.7617 32.983 22.7481 32.9888C22.7345 32.9946 22.7222 33.003 22.7118 33.0136C22.7015 33.0242 22.6934 33.0368 22.688 33.0505C22.6825 33.0643 22.6798 33.079 22.6801 33.0938C22.6801 33.1548 22.7301 33.2058 22.7911 33.2068C22.8531 33.2068 22.9041 33.1568 22.9041 33.0938C22.9044 33.0788 22.9016 33.064 22.8961 33.0501C22.8905 33.0362 22.8822 33.0235 22.8717 33.0129C22.8611 33.0023 22.8486 32.9939 22.8347 32.9882C22.8209 32.9825 22.8061 32.9796 22.7911 32.9798ZM23.3541 32.9798C23.3392 32.9798 23.3245 32.9827 23.3108 32.9885C23.2971 32.9942 23.2846 33.0027 23.2742 33.0133C23.2638 33.0239 23.2556 33.0365 23.25 33.0503C23.2445 33.0641 23.2418 33.0789 23.2421 33.0938C23.2421 33.1548 23.2921 33.2068 23.3531 33.2068C23.3828 33.2063 23.4112 33.1941 23.4321 33.173C23.453 33.1519 23.4648 33.1235 23.4651 33.0938V33.0738C23.4608 33.0476 23.4472 33.0237 23.4269 33.0067C23.4065 32.9896 23.3807 32.9804 23.3541 32.9808V32.9798ZM23.9161 32.9798C23.9011 32.9796 23.8863 32.9825 23.8725 32.9882C23.8586 32.9939 23.8461 33.0023 23.8355 33.0129C23.825 33.0235 23.8167 33.0362 23.8111 33.0501C23.8056 33.064 23.8028 33.0788 23.8031 33.0938C23.8031 33.1558 23.8541 33.2078 23.9161 33.2068C23.9771 33.2068 24.0261 33.1548 24.0271 33.0938V33.0738C24.023 33.0475 24.0095 33.0235 23.9891 33.0064C23.9686 32.9893 23.9427 32.9802 23.9161 32.9808V32.9798ZM24.4791 32.9798C24.4641 32.9795 24.4491 32.9823 24.4352 32.9879C24.4212 32.9935 24.4085 33.0019 24.3979 33.0126C24.3872 33.0232 24.3789 33.0359 24.3732 33.0498C24.3676 33.0638 24.3648 33.0787 24.3651 33.0938C24.3651 33.1558 24.4171 33.2078 24.4791 33.2068C24.5391 33.2068 24.5891 33.1548 24.5891 33.0938V33.0858C24.5873 33.0576 24.575 33.0312 24.5547 33.0117C24.5343 32.9923 24.5073 32.9812 24.4791 32.9808V32.9798ZM25.0411 32.9798C25.0261 32.9796 25.0113 32.9825 24.9975 32.9882C24.9836 32.9939 24.9711 33.0023 24.9605 33.0129C24.95 33.0235 24.9417 33.0362 24.9361 33.0501C24.9306 33.064 24.9278 33.0788 24.9281 33.0938C24.9281 33.1558 24.9791 33.2078 25.0411 33.2068C25.1021 33.2068 25.1511 33.1548 25.1521 33.0938V33.0858C25.1503 33.0575 25.1379 33.0309 25.1173 33.0114C25.0967 32.9919 25.0695 32.981 25.0411 32.9808V32.9798ZM25.6011 32.9798C25.5864 32.98 25.5719 32.9832 25.5584 32.9891C25.5449 32.9949 25.5327 33.0034 25.5225 33.014C25.5123 33.0246 25.5042 33.0371 25.4989 33.0508C25.4935 33.0644 25.4908 33.0791 25.4911 33.0938C25.4911 33.1548 25.5411 33.2068 25.6011 33.2068C25.6312 33.2068 25.66 33.1949 25.6814 33.1737C25.7027 33.1526 25.7148 33.1238 25.7151 33.0938V33.0858C25.7133 33.0571 25.7006 33.0303 25.6796 33.0107C25.6585 32.9912 25.6308 32.9805 25.6021 32.9808L25.6011 32.9798ZM26.1641 32.9798C26.1493 32.9799 26.1347 32.983 26.1211 32.9888C26.1075 32.9946 26.0952 33.003 26.0848 33.0136C26.0745 33.0242 26.0664 33.0368 26.0609 33.0505C26.0555 33.0643 26.0528 33.079 26.0531 33.0938C26.0531 33.1548 26.1031 33.2068 26.1641 33.2068C26.194 33.2065 26.2226 33.1945 26.2437 33.1734C26.2648 33.1523 26.2768 33.1237 26.2771 33.0938V33.0858C26.2753 33.0571 26.2626 33.0303 26.2416 33.0107C26.2205 32.9912 26.1928 32.9805 26.1641 32.9808V32.9798ZM26.7271 32.9798C26.7122 32.9798 26.6975 32.9827 26.6838 32.9885C26.6701 32.9942 26.6576 33.0027 26.6472 33.0133C26.6368 33.0239 26.6286 33.0365 26.623 33.0503C26.6175 33.0641 26.6148 33.0789 26.6151 33.0938C26.6151 33.1548 26.6651 33.2068 26.7271 33.2068C26.757 33.2065 26.7856 33.1945 26.8067 33.1734C26.8278 33.1523 26.8398 33.1237 26.8401 33.0938V33.0858C26.8383 33.0571 26.8256 33.0303 26.8046 33.0107C26.7835 32.9912 26.7558 32.9805 26.7271 32.9808V32.9798ZM27.2891 32.9798C27.2743 32.9799 27.2597 32.983 27.2461 32.9888C27.2325 32.9946 27.2202 33.003 27.2098 33.0136C27.1995 33.0242 27.1914 33.0368 27.1859 33.0505C27.1805 33.0643 27.1778 33.079 27.1781 33.0938C27.1781 33.1548 27.2281 33.2058 27.2891 33.2068C27.3511 33.2068 27.4021 33.1568 27.4021 33.0938C27.4024 33.0788 27.3996 33.064 27.3941 33.0501C27.3885 33.0362 27.3802 33.0235 27.3697 33.0129C27.3591 33.0023 27.3466 32.9939 27.3327 32.9882C27.3189 32.9825 27.3041 32.9796 27.2891 32.9798ZM27.8521 32.9798C27.8372 32.9798 27.8225 32.9827 27.8088 32.9885C27.7951 32.9942 27.7826 33.0027 27.7722 33.0133C27.7618 33.0239 27.7536 33.0365 27.748 33.0503C27.7425 33.0641 27.7398 33.0789 27.7401 33.0938C27.7401 33.1548 27.7901 33.2068 27.8521 33.2068C27.9121 33.2068 27.9621 33.1548 27.9621 33.0938C27.9641 33.0858 27.9641 33.0818 27.9621 33.0738C27.958 33.0476 27.9446 33.0238 27.9244 33.0068C27.9042 32.9897 27.8786 32.9805 27.8521 32.9808V32.9798ZM28.4141 32.9798C28.3991 32.9796 28.3843 32.9825 28.3705 32.9882C28.3566 32.9939 28.3441 33.0023 28.3335 33.0129C28.323 33.0235 28.3147 33.0362 28.3091 33.0501C28.3036 33.064 28.3008 33.0788 28.3011 33.0938C28.3011 33.1558 28.3521 33.2078 28.4141 33.2068C28.4751 33.2068 28.5241 33.1548 28.5251 33.0938V33.0858C28.5233 33.0576 28.511 33.0312 28.4907 33.0117C28.4703 32.9923 28.4433 32.9812 28.4151 32.9808L28.4141 32.9798ZM28.9771 32.9798C28.9621 32.9795 28.9471 32.9823 28.9332 32.9879C28.9192 32.9935 28.9065 33.0019 28.8959 33.0126C28.8852 33.0232 28.8769 33.0359 28.8712 33.0498C28.8656 33.0638 28.8628 33.0787 28.8631 33.0938C28.8631 33.1558 28.9151 33.2078 28.9771 33.2068C29.0371 33.2068 29.0871 33.1548 29.0871 33.0938V33.0858C29.0853 33.0576 29.073 33.0312 29.0527 33.0117C29.0323 32.9923 29.0053 32.9812 28.9771 32.9808V32.9798ZM29.5391 32.9798C29.5241 32.9796 29.5093 32.9825 29.4955 32.9882C29.4816 32.9939 29.4691 33.0023 29.4585 33.0129C29.448 33.0235 29.4397 33.0362 29.4341 33.0501C29.4286 33.064 29.4258 33.0788 29.4261 33.0938C29.4261 33.1558 29.4771 33.2078 29.5391 33.2068C29.6001 33.2068 29.6491 33.1548 29.6501 33.0938V33.0858C29.6483 33.0576 29.636 33.0312 29.6157 33.0117C29.5953 32.9923 29.5683 32.9812 29.5401 32.9808L29.5391 32.9798ZM30.0991 32.9798C30.0844 32.98 30.0699 32.9832 30.0564 32.9891C30.0429 32.9949 30.0307 33.0034 30.0205 33.014C30.0103 33.0246 30.0022 33.0371 29.9969 33.0508C29.9915 33.0644 29.9888 33.0791 29.9891 33.0938C29.9891 33.1548 30.0381 33.2068 30.0991 33.2068C30.1292 33.2068 30.158 33.1949 30.1794 33.1737C30.2007 33.1526 30.2128 33.1238 30.2131 33.0938V33.0858C30.2113 33.0571 30.1986 33.0303 30.1776 33.0107C30.1565 32.9912 30.1288 32.9805 30.1001 32.9808L30.0991 32.9798ZM30.6621 32.9798C30.6473 32.9799 30.6327 32.983 30.6191 32.9888C30.6055 32.9946 30.5932 33.003 30.5828 33.0136C30.5725 33.0242 30.5644 33.0368 30.559 33.0505C30.5535 33.0643 30.5508 33.079 30.5511 33.0938C30.5511 33.1548 30.6011 33.2068 30.6621 33.2068C30.692 33.2065 30.7206 33.1945 30.7417 33.1734C30.7628 33.1523 30.7748 33.1237 30.7751 33.0938V33.0858C30.7733 33.0571 30.7606 33.0303 30.7396 33.0107C30.7185 32.9912 30.6908 32.9805 30.6621 32.9808V32.9798ZM31.2251 32.9798C31.2102 32.9798 31.1955 32.9827 31.1818 32.9885C31.1681 32.9942 31.1556 33.0027 31.1452 33.0133C31.1348 33.0239 31.1266 33.0365 31.121 33.0503C31.1155 33.0641 31.1128 33.0789 31.1131 33.0938C31.1131 33.1548 31.1631 33.2068 31.2251 33.2068C31.255 33.2065 31.2836 33.1945 31.3047 33.1734C31.3258 33.1523 31.3378 33.1237 31.3381 33.0938V33.0858C31.3363 33.0571 31.3236 33.0303 31.3026 33.0107C31.2815 32.9912 31.2538 32.9805 31.2251 32.9808V32.9798ZM31.7871 32.9798C31.7723 32.9799 31.7577 32.983 31.7441 32.9888C31.7305 32.9946 31.7182 33.003 31.7078 33.0136C31.6975 33.0242 31.6894 33.0368 31.684 33.0505C31.6785 33.0643 31.6758 33.079 31.6761 33.0938C31.6761 33.1548 31.7261 33.2068 31.7871 33.2068C31.8481 33.2068 31.8971 33.1548 31.8981 33.0938V33.0738C31.894 33.0476 31.8806 33.0238 31.8604 33.0068C31.8402 32.9897 31.8146 32.9805 31.7881 32.9808L31.7871 32.9798ZM32.3501 32.9798C32.3351 32.9795 32.3201 32.9823 32.3062 32.9879C32.2922 32.9935 32.2795 33.0019 32.2689 33.0126C32.2582 33.0232 32.2499 33.0359 32.2442 33.0498C32.2386 33.0638 32.2358 33.0787 32.2361 33.0938C32.2361 33.1558 32.2881 33.2078 32.3501 33.2068C32.4101 33.2068 32.4601 33.1548 32.4601 33.0938C32.4621 33.0858 32.4621 33.0818 32.4601 33.0738C32.456 33.0476 32.4426 33.0238 32.4224 33.0068C32.4022 32.9897 32.3766 32.9805 32.3501 32.9808V32.9798ZM32.9121 32.9798C32.8971 32.9796 32.8823 32.9825 32.8685 32.9882C32.8546 32.9939 32.8421 33.0023 32.8315 33.0129C32.821 33.0235 32.8127 33.0362 32.8071 33.0501C32.8016 33.064 32.7988 33.0788 32.7991 33.0938C32.7991 33.1558 32.8501 33.2078 32.9121 33.2068C32.9731 33.2068 33.0221 33.1548 33.0231 33.0938V33.0858C33.0213 33.0576 33.009 33.0312 32.9887 33.0117C32.9683 32.9923 32.9413 32.9812 32.9131 32.9808L32.9121 32.9798ZM33.4751 32.9798C33.4601 32.9795 33.4451 32.9823 33.4312 32.9879C33.4172 32.9935 33.4045 33.0019 33.3939 33.0126C33.3832 33.0232 33.3749 33.0359 33.3692 33.0498C33.3636 33.0638 33.3608 33.0787 33.3611 33.0938C33.3611 33.1558 33.4131 33.2078 33.4751 33.2068C33.5045 33.2057 33.5323 33.1934 33.5528 33.1724C33.5733 33.1513 33.5849 33.1232 33.5851 33.0938V33.0858C33.5833 33.0576 33.571 33.0312 33.5507 33.0117C33.5303 32.9923 33.5033 32.9812 33.4751 32.9808V32.9798ZM34.0371 32.9798C34.0221 32.9796 34.0073 32.9825 33.9935 32.9882C33.9796 32.9939 33.9671 33.0023 33.9565 33.0129C33.946 33.0235 33.9377 33.0362 33.9321 33.0501C33.9266 33.064 33.9238 33.0788 33.9241 33.0938C33.9241 33.1558 33.9751 33.2078 34.0371 33.2068C34.0666 33.206 34.0947 33.1938 34.1154 33.1727C34.1361 33.1516 34.1478 33.1233 34.1481 33.0938V33.0858C34.1463 33.0576 34.134 33.0312 34.1137 33.0117C34.0933 32.9923 34.0663 32.9812 34.0381 32.9808L34.0371 32.9798ZM34.5971 32.9798C34.5824 32.98 34.5679 32.9832 34.5544 32.9891C34.5409 32.9949 34.5287 33.0034 34.5185 33.014C34.5083 33.0246 34.5002 33.0371 34.4949 33.0508C34.4895 33.0644 34.4868 33.0791 34.4871 33.0938C34.4871 33.1548 34.5361 33.2068 34.5971 33.2068C34.6272 33.2068 34.656 33.1949 34.6774 33.1737C34.6987 33.1526 34.7108 33.1238 34.7111 33.0938V33.0858C34.7093 33.0571 34.6966 33.0303 34.6756 33.0107C34.6545 32.9912 34.6268 32.9805 34.5981 32.9808L34.5971 32.9798ZM18.1301 35.4128C17.9167 35.4074 17.7044 35.4449 17.5056 35.5228C17.3069 35.6008 17.1258 35.7178 16.973 35.8668C16.8201 36.0159 16.6987 36.194 16.6158 36.3908C16.5328 36.5875 16.4901 36.7988 16.4901 37.0123C16.4901 37.2258 16.5328 37.4371 16.6158 37.6338C16.6987 37.8305 16.8201 38.0086 16.973 38.1577C17.1258 38.3068 17.3069 38.4237 17.5056 38.5017C17.7044 38.5797 17.9167 38.6171 18.1301 38.6118C18.5474 38.6013 18.9441 38.4282 19.2355 38.1294C19.527 37.8306 19.6901 37.4297 19.6901 37.0123C19.6901 36.5949 19.527 36.194 19.2355 35.8951C18.9441 35.5963 18.5474 35.4232 18.1301 35.4128ZM22.1301 35.4128C21.9167 35.4074 21.7044 35.4449 21.5056 35.5228C21.3069 35.6008 21.1258 35.7178 20.973 35.8668C20.8201 36.0159 20.6987 36.194 20.6158 36.3908C20.5328 36.5875 20.4901 36.7988 20.4901 37.0123C20.4901 37.2258 20.5328 37.4371 20.6158 37.6338C20.6987 37.8305 20.8201 38.0086 20.973 38.1577C21.1258 38.3068 21.3069 38.4237 21.5056 38.5017C21.7044 38.5797 21.9167 38.6171 22.1301 38.6118C22.5474 38.6013 22.9441 38.4282 23.2355 38.1294C23.527 37.8306 23.6901 37.4297 23.6901 37.0123C23.6901 36.5949 23.527 36.194 23.2355 35.8951C22.9441 35.5963 22.5474 35.4232 22.1301 35.4128ZM26.1301 35.4128C25.9167 35.4074 25.7044 35.4449 25.5056 35.5228C25.3069 35.6008 25.1258 35.7178 24.973 35.8668C24.8201 36.0159 24.6987 36.194 24.6158 36.3908C24.5328 36.5875 24.4901 36.7988 24.4901 37.0123C24.4901 37.2258 24.5328 37.4371 24.6158 37.6338C24.6987 37.8305 24.8201 38.0086 24.973 38.1577C25.1258 38.3068 25.3069 38.4237 25.5056 38.5017C25.7044 38.5797 25.9167 38.6171 26.1301 38.6118C26.5474 38.6013 26.9441 38.4282 27.2355 38.1294C27.527 37.8306 27.6901 37.4297 27.6901 37.0123C27.6901 36.5949 27.527 36.194 27.2355 35.8951C26.9441 35.5963 26.5474 35.4232 26.1301 35.4128ZM30.1301 35.4128C29.9167 35.4074 29.7044 35.4449 29.5056 35.5228C29.3069 35.6008 29.1258 35.7178 28.973 35.8668C28.8201 36.0159 28.6987 36.194 28.6158 36.3908C28.5328 36.5875 28.4901 36.7988 28.4901 37.0123C28.4901 37.2258 28.5328 37.4371 28.6158 37.6338C28.6987 37.8305 28.8201 38.0086 28.973 38.1577C29.1258 38.3068 29.3069 38.4237 29.5056 38.5017C29.7044 38.5797 29.9167 38.6171 30.1301 38.6118C30.5474 38.6013 30.9441 38.4282 31.2355 38.1294C31.527 37.8306 31.6901 37.4297 31.6901 37.0123C31.6901 36.5949 31.527 36.194 31.2355 35.8951C30.9441 35.5963 30.5474 35.4232 30.1301 35.4128ZM18.1301 35.8738C18.2795 35.8736 18.4274 35.9029 18.5655 35.96C18.7035 36.017 18.829 36.1007 18.9347 36.2062C19.0404 36.3118 19.1243 36.4371 19.1816 36.5751C19.2389 36.713 19.2685 36.8609 19.2686 37.0103C19.2687 37.1597 19.2394 37.3076 19.1824 37.4457C19.1254 37.5837 19.0417 37.7092 18.9361 37.8149C18.8306 37.9206 18.7053 38.0045 18.5673 38.0618C18.4294 38.1191 18.2815 38.1486 18.1321 38.1488C17.8304 38.149 17.541 38.0294 17.3275 37.8163C17.114 37.6032 16.9939 37.314 16.9936 37.0123C16.9933 36.7106 17.1129 36.4212 17.3261 36.2076C17.5392 35.9941 17.8284 35.874 18.1301 35.8738ZM22.1301 35.8738C22.2795 35.8736 22.4274 35.9029 22.5655 35.96C22.7035 36.017 22.829 36.1007 22.9347 36.2062C23.0404 36.3118 23.1243 36.4371 23.1816 36.5751C23.2389 36.713 23.2685 36.8609 23.2686 37.0103C23.2687 37.1597 23.2394 37.3076 23.1824 37.4457C23.1254 37.5837 23.0417 37.7092 22.9361 37.8149C22.8306 37.9206 22.7053 38.0045 22.5673 38.0618C22.4294 38.1191 22.2815 38.1486 22.1321 38.1488C21.8304 38.149 21.541 38.0294 21.3275 37.8163C21.114 37.6032 20.9939 37.314 20.9936 37.0123C20.9933 36.7106 21.1129 36.4212 21.3261 36.2076C21.5392 35.9941 21.8284 35.874 22.1301 35.8738ZM26.1301 35.8738C26.4318 35.8735 26.7212 35.9931 26.9347 36.2062C27.1482 36.4194 27.2683 36.7086 27.2686 37.0103C27.2689 37.312 27.1493 37.6014 26.9361 37.8149C26.723 38.0284 26.4338 38.1485 26.1321 38.1488C25.9827 38.1489 25.8348 38.1196 25.6967 38.0626C25.5587 38.0055 25.4332 37.9218 25.3275 37.8163C25.2218 37.7108 25.1379 37.5855 25.0806 37.4475C25.0233 37.3095 24.9937 37.1617 24.9936 37.0123C24.9935 36.8629 25.0228 36.715 25.0798 36.5769C25.1368 36.4388 25.2205 36.3134 25.3261 36.2076C25.4316 36.1019 25.5569 36.018 25.6949 35.9607C25.8328 35.9035 25.9807 35.8739 26.1301 35.8738ZM30.1301 35.8738C30.2795 35.8736 30.4274 35.9029 30.5655 35.96C30.7035 36.017 30.829 36.1007 30.9347 36.2062C31.0404 36.3118 31.1243 36.4371 31.1816 36.5751C31.2389 36.713 31.2685 36.8609 31.2686 37.0103C31.2687 37.1597 31.2394 37.3076 31.1824 37.4457C31.1254 37.5837 31.0417 37.7092 30.9361 37.8149C30.8306 37.9206 30.7053 38.0045 30.5673 38.0618C30.4294 38.1191 30.2815 38.1486 30.1321 38.1488C29.8304 38.149 29.541 38.0294 29.3275 37.8163C29.114 37.6032 28.9939 37.314 28.9936 37.0123C28.9933 36.7106 29.1129 36.4212 29.3261 36.2076C29.5392 35.9941 29.8284 35.874 30.1301 35.8738Z" fill="#333333"/>
</svg>
