<svg width="48" height="48" viewBox="0 0 48 48" fill="none" xmlns="http://www.w3.org/2000/svg">
<g clip-path="url(#clip0)">
<path fill-rule="evenodd" clip-rule="evenodd" d="M0.0878906 -0.0830078V47.917H48.0879V-0.0830078H0.0878906ZM14.2349 3.91699H33.9399C34.8099 3.91699 35.5079 4.61599 35.5079 5.48499V42.347C35.5079 43.217 34.8089 43.917 33.9399 43.917H14.2349C13.3649 43.917 12.6659 43.217 12.6659 42.347V5.48499C12.6659 4.61599 13.3659 3.91699 14.2349 3.91699ZM16.1019 9.29999C15.8885 9.29466 15.6762 9.33208 15.4774 9.41006C15.2787 9.48805 15.0976 9.60501 14.9448 9.75407C14.7919 9.90312 14.6705 10.0813 14.5875 10.278C14.5046 10.4747 14.4619 10.686 14.4619 10.8995C14.4619 11.113 14.5046 11.3243 14.5875 11.521C14.6705 11.7177 14.7919 11.8959 14.9448 12.0449C15.0976 12.194 15.2787 12.3109 15.4774 12.3889C15.6762 12.4669 15.8885 12.5043 16.1019 12.499C16.5262 12.499 16.9332 12.3304 17.2333 12.0304C17.5333 11.7303 17.7019 11.3233 17.7019 10.899C17.7019 10.4746 17.5333 10.0677 17.2333 9.76762C16.9332 9.46756 16.5262 9.29899 16.1019 9.29899V9.29999ZM20.1019 9.29999C19.8885 9.29466 19.6762 9.33208 19.4774 9.41006C19.2787 9.48805 19.0976 9.60501 18.9448 9.75407C18.7919 9.90312 18.6705 10.0813 18.5875 10.278C18.5046 10.4747 18.4619 10.686 18.4619 10.8995C18.4619 11.113 18.5046 11.3243 18.5875 11.521C18.6705 11.7177 18.7919 11.8959 18.9448 12.0449C19.0976 12.194 19.2787 12.3109 19.4774 12.3889C19.6762 12.4669 19.8885 12.5043 20.1019 12.499C20.5262 12.499 20.9332 12.3304 21.2333 12.0304C21.5333 11.7303 21.7019 11.3233 21.7019 10.899C21.7019 10.4746 21.5333 10.0677 21.2333 9.76762C20.9332 9.46756 20.5262 9.29899 20.1019 9.29899V9.29999ZM24.1019 9.29999C23.8885 9.29466 23.6762 9.33208 23.4774 9.41006C23.2787 9.48805 23.0976 9.60501 22.9448 9.75407C22.7919 9.90312 22.6705 10.0813 22.5875 10.278C22.5046 10.4747 22.4619 10.686 22.4619 10.8995C22.4619 11.113 22.5046 11.3243 22.5875 11.521C22.6705 11.7177 22.7919 11.8959 22.9448 12.0449C23.0976 12.194 23.2787 12.3109 23.4774 12.3889C23.6762 12.4669 23.8885 12.5043 24.1019 12.499C24.5262 12.499 24.9332 12.3304 25.2333 12.0304C25.5333 11.7303 25.7019 11.3233 25.7019 10.899C25.7019 10.4746 25.5333 10.0677 25.2333 9.76762C24.9332 9.46756 24.5262 9.29899 24.1019 9.29899V9.29999ZM28.1019 9.29999C27.8885 9.29466 27.6762 9.33208 27.4774 9.41006C27.2787 9.48805 27.0976 9.60501 26.9448 9.75407C26.7919 9.90312 26.6705 10.0813 26.5875 10.278C26.5046 10.4747 26.4619 10.686 26.4619 10.8995C26.4619 11.113 26.5046 11.3243 26.5875 11.521C26.6705 11.7177 26.7919 11.8959 26.9448 12.0449C27.0976 12.194 27.2787 12.3109 27.4774 12.3889C27.6762 12.4669 27.8885 12.5043 28.1019 12.499C28.5262 12.499 28.9332 12.3304 29.2333 12.0304C29.5333 11.7303 29.7019 11.3233 29.7019 10.899C29.7019 10.4746 29.5333 10.0677 29.2333 9.76762C28.9332 9.46756 28.5262 9.29899 28.1019 9.29899V9.29999ZM32.1019 9.29999C31.8885 9.29466 31.6762 9.33208 31.4774 9.41006C31.2787 9.48805 31.0976 9.60501 30.9448 9.75407C30.7919 9.90312 30.6705 10.0813 30.5875 10.278C30.5046 10.4747 30.4619 10.686 30.4619 10.8995C30.4619 11.113 30.5046 11.3243 30.5875 11.521C30.6705 11.7177 30.7919 11.8959 30.9448 12.0449C31.0976 12.194 31.2787 12.3109 31.4774 12.3889C31.6762 12.4669 31.8885 12.5043 32.1019 12.499C32.5262 12.499 32.9332 12.3304 33.2333 12.0304C33.5333 11.7303 33.7019 11.3233 33.7019 10.899C33.7019 10.4746 33.5333 10.0677 33.2333 9.76762C32.9332 9.46756 32.5262 9.29899 32.1019 9.29899V9.29999ZM14.2469 14.802C14.2168 14.8025 14.1882 14.8149 14.1672 14.8364C14.1462 14.858 14.1346 14.8869 14.1349 14.917C14.1349 14.978 14.1849 15.03 14.2469 15.031C14.2768 15.0302 14.3052 15.0179 14.3263 14.9967C14.3473 14.9755 14.3594 14.9469 14.3599 14.917C14.3604 14.9107 14.3604 14.9043 14.3599 14.898C14.3554 14.8714 14.3415 14.8473 14.3208 14.8301C14.3 14.8129 14.2738 14.8036 14.2469 14.804V14.802ZM14.8089 14.802C14.7941 14.8023 14.7794 14.8054 14.7658 14.8114C14.7522 14.8173 14.7399 14.8258 14.7296 14.8365C14.7193 14.8472 14.7112 14.8598 14.7057 14.8736C14.7003 14.8874 14.6976 14.9022 14.6979 14.917C14.6979 14.979 14.7479 15.031 14.8089 15.031C14.8388 15.0302 14.8672 15.0179 14.8883 14.9967C14.9093 14.9755 14.9214 14.9469 14.9219 14.917C14.9224 14.9107 14.9224 14.9043 14.9219 14.898C14.9174 14.8714 14.9035 14.8473 14.8828 14.8301C14.862 14.8129 14.8358 14.8036 14.8089 14.804V14.802ZM18.7449 14.802C18.7148 14.8025 18.6862 14.8149 18.6652 14.8364C18.6442 14.858 18.6326 14.8869 18.6329 14.917C18.6329 14.978 18.6829 15.03 18.7449 15.031C18.7748 15.0302 18.8032 15.0179 18.8243 14.9967C18.8453 14.9755 18.8574 14.9469 18.8579 14.917C18.8585 14.9107 18.8585 14.9043 18.8579 14.898C18.8534 14.8714 18.8395 14.8473 18.8188 14.8301C18.798 14.8129 18.7718 14.8036 18.7449 14.804V14.802ZM23.2429 14.802C23.2128 14.8025 23.1842 14.8149 23.1632 14.8364C23.1422 14.858 23.1306 14.8869 23.1309 14.917C23.1309 14.978 23.1809 15.03 23.2429 15.031C23.2728 15.0302 23.3012 15.0179 23.3223 14.9967C23.3433 14.9755 23.3554 14.9469 23.3559 14.917C23.3564 14.9107 23.3564 14.9043 23.3559 14.898C23.3514 14.8714 23.3375 14.8473 23.3168 14.8301C23.296 14.8129 23.2698 14.8036 23.2429 14.804V14.802ZM23.8049 14.802C23.7745 14.802 23.7454 14.8141 23.7239 14.8355C23.7025 14.857 23.6904 14.8861 23.6904 14.9165C23.6904 14.9469 23.7025 14.976 23.7239 14.9975C23.7454 15.0189 23.7745 15.031 23.8049 15.031C23.8659 15.031 23.9149 14.978 23.9159 14.917C23.9165 14.9107 23.9165 14.9043 23.9159 14.898C23.912 14.8717 23.8987 14.8476 23.8785 14.8304C23.8583 14.8131 23.8325 14.8037 23.8059 14.804V14.802H23.8049ZM27.7409 14.802C27.7108 14.8025 27.6822 14.8149 27.6612 14.8364C27.6402 14.858 27.6286 14.8869 27.6289 14.917C27.6289 14.978 27.6789 15.03 27.7409 15.031C27.7708 15.0302 27.7992 15.0179 27.8203 14.9967C27.8413 14.9755 27.8534 14.9469 27.8539 14.917C27.8545 14.9107 27.8545 14.9043 27.8539 14.898C27.8494 14.8714 27.8355 14.8473 27.8148 14.8301C27.794 14.8129 27.7678 14.8036 27.7409 14.804V14.802ZM31.6759 14.802C31.646 14.8028 31.6176 14.8153 31.5969 14.8368C31.5761 14.8583 31.5646 14.8871 31.5649 14.917C31.5649 14.978 31.6149 15.03 31.6759 15.031C31.706 15.0305 31.7347 15.0183 31.7559 14.997C31.7772 14.9758 31.7894 14.9471 31.7899 14.917C31.7904 14.9107 31.7904 14.9043 31.7899 14.898C31.7853 14.8712 31.7713 14.847 31.7504 14.8298C31.7295 14.8125 31.703 14.8034 31.6759 14.804V14.802ZM32.2389 14.802C32.224 14.8021 32.2092 14.8052 32.1955 14.8111C32.1818 14.8169 32.1693 14.8255 32.1589 14.8361C32.1485 14.8468 32.1403 14.8595 32.1348 14.8734C32.1293 14.8872 32.1266 14.9021 32.1269 14.917C32.1269 14.979 32.1769 15.031 32.2389 15.031C32.2688 15.0302 32.2972 15.0179 32.3183 14.9967C32.3393 14.9755 32.3514 14.9469 32.3519 14.917C32.3525 14.9107 32.3525 14.9043 32.3519 14.898C32.3474 14.8714 32.3335 14.8473 32.3128 14.8301C32.292 14.8129 32.2658 14.8036 32.2389 14.804V14.802ZM13.6839 14.804C13.6692 14.8041 13.6546 14.8071 13.6411 14.8129C13.6276 14.8186 13.6153 14.827 13.605 14.8375C13.5947 14.848 13.5865 14.8604 13.581 14.8741C13.5755 14.8877 13.5728 14.9023 13.5729 14.917C13.5729 14.978 13.6229 15.03 13.6839 15.031C13.714 15.0307 13.7427 15.0186 13.7639 14.9973C13.785 14.9759 13.7969 14.9471 13.7969 14.917C13.7969 14.887 13.785 14.8583 13.7638 14.8371C13.7426 14.8159 13.7139 14.804 13.6839 14.804ZM15.3719 14.804C15.3571 14.8039 15.3424 14.8067 15.3286 14.8123C15.3149 14.818 15.3025 14.8263 15.292 14.8368C15.2816 14.8474 15.2734 14.8599 15.2678 14.8737C15.2623 14.8874 15.2596 14.9022 15.2599 14.917C15.2599 14.979 15.3099 15.031 15.3719 15.031C15.4018 15.0302 15.4302 15.0179 15.4513 14.9967C15.4723 14.9755 15.4844 14.9469 15.4849 14.917V14.91C15.4829 14.8813 15.4701 14.8545 15.4492 14.8348C15.4282 14.8152 15.4006 14.8042 15.3719 14.804ZM15.9339 14.804C15.9191 14.804 15.9045 14.8069 15.8909 14.8126C15.8773 14.8183 15.865 14.8267 15.8547 14.8372C15.8444 14.8477 15.8362 14.8602 15.8308 14.8739C15.8253 14.8876 15.8226 14.9022 15.8229 14.917C15.8229 14.979 15.8729 15.031 15.9339 15.031C15.9638 15.0302 15.9922 15.0179 16.0133 14.9967C16.0343 14.9755 16.0464 14.9469 16.0469 14.917V14.91C16.0449 14.8813 16.0321 14.8545 16.0112 14.8348C15.9902 14.8152 15.9626 14.8042 15.9339 14.804ZM16.4969 14.804C16.4821 14.8039 16.4674 14.8067 16.4536 14.8123C16.4399 14.818 16.4275 14.8263 16.417 14.8368C16.4066 14.8474 16.3984 14.8599 16.3929 14.8737C16.3873 14.8874 16.3846 14.9022 16.3849 14.917C16.3849 14.979 16.4349 15.031 16.4969 15.031C16.5268 15.0302 16.5552 15.0179 16.5763 14.9967C16.5973 14.9755 16.6094 14.9469 16.6099 14.917V14.91C16.6079 14.8813 16.5951 14.8545 16.5742 14.8348C16.5532 14.8152 16.5256 14.8042 16.4969 14.804ZM17.0569 14.804C17.0422 14.8041 17.0276 14.8071 17.0141 14.8129C17.0006 14.8186 16.9883 14.827 16.978 14.8375C16.9677 14.848 16.9595 14.8604 16.954 14.8741C16.9485 14.8877 16.9458 14.9023 16.9459 14.917C16.9459 14.978 16.9959 15.03 17.0569 15.031C17.087 15.0307 17.1157 15.0186 17.1369 14.9973C17.158 14.9759 17.1699 14.9471 17.1699 14.917V14.91C17.1683 14.8812 17.1557 14.8541 17.1347 14.8343C17.1136 14.8146 17.0858 14.8037 17.0569 14.804ZM17.6199 14.804C17.6051 14.804 17.5905 14.8069 17.5768 14.8126C17.5631 14.8183 17.5508 14.8266 17.5403 14.8371C17.5299 14.8477 17.5217 14.8601 17.5161 14.8738C17.5106 14.8875 17.5078 14.9022 17.5079 14.917C17.5079 14.978 17.5579 15.03 17.6199 15.031C17.65 15.0307 17.6787 15.0186 17.6999 14.9973C17.721 14.9759 17.7329 14.9471 17.7329 14.917V14.91C17.7313 14.8812 17.7187 14.8541 17.6977 14.8343C17.6766 14.8146 17.6488 14.8037 17.6199 14.804ZM18.1819 14.804C18.1672 14.8041 18.1526 14.8071 18.1391 14.8129C18.1256 14.8186 18.1133 14.827 18.103 14.8375C18.0927 14.848 18.0845 14.8604 18.079 14.8741C18.0735 14.8877 18.0708 14.9023 18.0709 14.917C18.0709 14.978 18.1209 15.03 18.1819 15.031C18.212 15.0307 18.2407 15.0186 18.2619 14.9973C18.283 14.9759 18.2949 14.9471 18.2949 14.917V14.91C18.2933 14.8812 18.2807 14.8541 18.2597 14.8343C18.2386 14.8146 18.2108 14.8037 18.1819 14.804ZM19.3069 14.804C19.2921 14.804 19.2775 14.8069 19.2639 14.8126C19.2503 14.8183 19.238 14.8267 19.2277 14.8372C19.2174 14.8477 19.2092 14.8602 19.2038 14.8739C19.1983 14.8876 19.1956 14.9022 19.1959 14.917C19.1959 14.979 19.2459 15.031 19.3069 15.031C19.3368 15.0302 19.3652 15.0179 19.3863 14.9967C19.4073 14.9755 19.4194 14.9469 19.4199 14.917V14.91C19.4179 14.8813 19.4051 14.8545 19.3842 14.8348C19.3632 14.8152 19.3356 14.8042 19.3069 14.804ZM19.8699 14.804C19.8551 14.8039 19.8404 14.8067 19.8266 14.8123C19.8129 14.818 19.8005 14.8263 19.79 14.8368C19.7796 14.8474 19.7714 14.8599 19.7659 14.8737C19.7603 14.8874 19.7576 14.9022 19.7579 14.917C19.7579 14.979 19.8079 15.031 19.8699 15.031C19.8998 15.0302 19.9282 15.0179 19.9493 14.9967C19.9703 14.9755 19.9824 14.9469 19.9829 14.917V14.91C19.9809 14.8813 19.9681 14.8545 19.9472 14.8348C19.9262 14.8152 19.8986 14.8042 19.8699 14.804ZM20.4319 14.804C20.4171 14.804 20.4025 14.8069 20.3889 14.8126C20.3753 14.8183 20.363 14.8267 20.3527 14.8372C20.3424 14.8477 20.3342 14.8602 20.3288 14.8739C20.3233 14.8876 20.3206 14.9022 20.3209 14.917C20.3209 14.979 20.3709 15.031 20.4319 15.031C20.4618 15.0302 20.4902 15.0179 20.5113 14.9967C20.5323 14.9755 20.5444 14.9469 20.5449 14.917V14.91C20.5429 14.8813 20.5301 14.8545 20.5092 14.8348C20.4882 14.8152 20.4606 14.8042 20.4319 14.804ZM20.9949 14.804C20.9801 14.8039 20.9654 14.8067 20.9516 14.8123C20.9379 14.818 20.9255 14.8263 20.915 14.8368C20.9046 14.8474 20.8964 14.8599 20.8909 14.8737C20.8853 14.8874 20.8826 14.9022 20.8829 14.917C20.8829 14.979 20.9329 15.031 20.9949 15.031C21.0248 15.0302 21.0532 15.0179 21.0743 14.9967C21.0953 14.9755 21.1074 14.9469 21.1079 14.917V14.91C21.1059 14.8813 21.0931 14.8545 21.0722 14.8348C21.0512 14.8152 21.0236 14.8042 20.9949 14.804ZM21.5549 14.804C21.5253 14.8045 21.497 14.8167 21.4763 14.8378C21.4555 14.8589 21.4439 14.8874 21.4439 14.917C21.4439 14.978 21.4939 15.03 21.5549 15.031C21.5699 15.031 21.5847 15.028 21.5985 15.0223C21.6123 15.0166 21.6249 15.0082 21.6355 14.9976C21.6461 14.987 21.6545 14.9744 21.6602 14.9606C21.6659 14.9468 21.6689 14.932 21.6689 14.917V14.91C21.6673 14.881 21.6546 14.8537 21.6333 14.834C21.612 14.8142 21.5839 14.8034 21.5549 14.804ZM22.1179 14.804C22.0881 14.8043 22.0596 14.8163 22.0386 14.8374C22.0177 14.8586 22.0059 14.8872 22.0059 14.917C22.0059 14.978 22.0559 15.03 22.1179 15.031C22.148 15.0307 22.1767 15.0186 22.1979 14.9973C22.219 14.9759 22.2309 14.9471 22.2309 14.917V14.91C22.2293 14.8812 22.2167 14.8541 22.1957 14.8343C22.1746 14.8146 22.1468 14.8037 22.1179 14.804ZM22.6799 14.804C22.6652 14.804 22.6506 14.8069 22.6371 14.8126C22.6235 14.8184 22.6113 14.8267 22.601 14.8373C22.5908 14.8478 22.5827 14.8603 22.5774 14.874C22.572 14.8877 22.5695 14.9023 22.5699 14.917C22.5709 14.978 22.6189 15.03 22.6799 15.031C22.7101 15.031 22.7391 15.019 22.7605 14.9976C22.7819 14.9762 22.7939 14.9472 22.7939 14.917C22.7939 14.9021 22.7909 14.8873 22.7852 14.8735C22.7795 14.8597 22.771 14.8472 22.7604 14.8367C22.7498 14.8262 22.7373 14.8179 22.7234 14.8123C22.7096 14.8067 22.6948 14.8039 22.6799 14.804ZM24.3679 14.804C24.3531 14.8039 24.3384 14.8067 24.3246 14.8123C24.3109 14.818 24.2985 14.8263 24.288 14.8368C24.2776 14.8474 24.2694 14.8599 24.2639 14.8737C24.2583 14.8874 24.2556 14.9022 24.2559 14.917C24.2559 14.979 24.3059 15.031 24.3679 15.031C24.3978 15.0302 24.4262 15.0179 24.4473 14.9967C24.4683 14.9755 24.4804 14.9469 24.4809 14.917V14.91C24.4789 14.8813 24.4661 14.8545 24.4452 14.8348C24.4242 14.8152 24.3966 14.8042 24.3679 14.804ZM24.9299 14.804C24.8999 14.804 24.8712 14.8159 24.85 14.8371C24.8288 14.8583 24.8169 14.887 24.8169 14.917C24.8169 14.979 24.8679 15.031 24.9299 15.031C24.96 15.0305 24.9887 15.0183 25.0099 14.997C25.0312 14.9758 25.0434 14.9471 25.0439 14.917V14.91C25.0419 14.8812 25.029 14.8542 25.0078 14.8345C24.9866 14.8148 24.9588 14.8039 24.9299 14.804ZM25.4899 14.804C25.4604 14.8045 25.4322 14.8167 25.4116 14.8379C25.391 14.859 25.3796 14.8875 25.3799 14.917C25.3799 14.978 25.4299 15.03 25.4899 15.031C25.5201 15.031 25.5491 15.019 25.5705 14.9976C25.5919 14.9762 25.6039 14.9472 25.6039 14.917V14.91C25.6023 14.8812 25.5897 14.8541 25.5687 14.8343C25.5476 14.8146 25.5198 14.8037 25.4909 14.804H25.4899ZM26.0529 14.804C26.0382 14.8041 26.0236 14.8071 26.0101 14.8129C25.9966 14.8186 25.9843 14.827 25.974 14.8375C25.9637 14.848 25.9555 14.8604 25.95 14.8741C25.9445 14.8877 25.9418 14.9023 25.9419 14.917C25.9419 14.978 25.9919 15.03 26.0529 15.031C26.083 15.0307 26.1117 15.0186 26.1329 14.9973C26.154 14.9759 26.1659 14.9471 26.1659 14.917V14.91C26.1643 14.8812 26.1517 14.8541 26.1307 14.8343C26.1096 14.8146 26.0818 14.8037 26.0529 14.804ZM26.6159 14.804C26.6011 14.804 26.5865 14.8069 26.5728 14.8126C26.5591 14.8183 26.5468 14.8266 26.5363 14.8371C26.5259 14.8477 26.5177 14.8601 26.5121 14.8738C26.5066 14.8875 26.5038 14.9022 26.5039 14.917C26.5039 14.978 26.5539 15.03 26.6159 15.031C26.6461 15.0307 26.6751 15.0187 26.6966 14.9974C26.7181 14.9761 26.7304 14.9472 26.7309 14.917V14.91C26.7289 14.881 26.7158 14.8539 26.6944 14.8342C26.6731 14.8145 26.645 14.8037 26.6159 14.804ZM27.1779 14.804C27.1632 14.8041 27.1486 14.8071 27.1351 14.8129C27.1216 14.8186 27.1093 14.827 27.099 14.8375C27.0887 14.848 27.0805 14.8604 27.075 14.8741C27.0695 14.8877 27.0668 14.9023 27.0669 14.917C27.0669 14.978 27.1169 15.03 27.1779 15.031C27.2083 15.031 27.2375 15.019 27.2592 14.9977C27.2809 14.9764 27.2934 14.9474 27.2939 14.917C27.2938 14.9019 27.2907 14.8871 27.2847 14.8732C27.2788 14.8594 27.2702 14.8468 27.2594 14.8363C27.2487 14.8258 27.2359 14.8175 27.2219 14.812C27.2079 14.8064 27.1929 14.8037 27.1779 14.804ZM28.3029 14.804C28.2881 14.804 28.2735 14.8069 28.2599 14.8126C28.2463 14.8183 28.234 14.8267 28.2237 14.8372C28.2134 14.8477 28.2052 14.8602 28.1998 14.8739C28.1943 14.8876 28.1916 14.9022 28.1919 14.917C28.1919 14.979 28.2419 15.031 28.3029 15.031C28.3328 15.0302 28.3612 15.0179 28.3823 14.9967C28.4033 14.9755 28.4154 14.9469 28.4159 14.917V14.91C28.4139 14.8813 28.4011 14.8545 28.3802 14.8348C28.3592 14.8152 28.3316 14.8042 28.3029 14.804ZM28.8659 14.804C28.851 14.8039 28.8362 14.8067 28.8223 14.8123C28.8085 14.8179 28.7959 14.8262 28.7853 14.8367C28.7747 14.8472 28.7663 14.8597 28.7606 14.8735C28.7548 14.8873 28.7519 14.9021 28.7519 14.917C28.7519 14.979 28.8039 15.031 28.8659 15.031C28.8958 15.0302 28.9242 15.0179 28.9453 14.9967C28.9663 14.9755 28.9784 14.9469 28.9789 14.917V14.91C28.9769 14.8813 28.9641 14.8545 28.9432 14.8348C28.9222 14.8152 28.8946 14.8042 28.8659 14.804ZM29.4279 14.804C29.3979 14.804 29.3692 14.8159 29.348 14.8371C29.3268 14.8583 29.3149 14.887 29.3149 14.917C29.3149 14.979 29.3659 15.031 29.4279 15.031C29.4578 15.0302 29.4862 15.0179 29.5073 14.9967C29.5283 14.9755 29.5404 14.9469 29.5409 14.917V14.91C29.5389 14.8813 29.5261 14.8545 29.5052 14.8348C29.4842 14.8152 29.4566 14.8042 29.4279 14.804ZM29.9879 14.804C29.9584 14.8048 29.9305 14.817 29.9099 14.8381C29.8894 14.8592 29.8779 14.8875 29.8779 14.917C29.8779 14.978 29.9279 15.03 29.9879 15.031C30.0181 15.031 30.0471 15.019 30.0685 14.9976C30.0899 14.9762 30.1019 14.9472 30.1019 14.917V14.91C30.1003 14.8812 30.0877 14.8541 30.0667 14.8343C30.0456 14.8146 30.0178 14.8037 29.9889 14.804H29.9879ZM30.5509 14.804C30.5213 14.8045 30.493 14.8167 30.4723 14.8378C30.4515 14.8589 30.4399 14.8874 30.4399 14.917C30.4399 14.978 30.4899 15.03 30.5509 15.031C30.5813 15.031 30.6105 15.019 30.6322 14.9977C30.6539 14.9764 30.6664 14.9474 30.6669 14.917V14.91C30.6648 14.8808 30.6517 14.8535 30.6301 14.8338C30.6085 14.8141 30.5801 14.8034 30.5509 14.804ZM31.1139 14.804C31.0841 14.8043 31.0556 14.8163 31.0346 14.8374C31.0137 14.8586 31.0019 14.8872 31.0019 14.917C31.0019 14.978 31.0519 15.03 31.1139 15.031C31.1441 15.0307 31.1731 15.0187 31.1946 14.9974C31.2161 14.9761 31.2284 14.9472 31.2289 14.917V14.91C31.2269 14.881 31.2138 14.8539 31.1924 14.8342C31.1711 14.8145 31.143 14.8037 31.1139 14.804ZM32.8009 14.804C32.7709 14.804 32.7422 14.8159 32.721 14.8371C32.6998 14.8583 32.6879 14.887 32.6879 14.917C32.6879 14.979 32.7389 15.031 32.8009 15.031C32.8308 15.0302 32.8592 15.0179 32.8803 14.9967C32.9013 14.9755 32.9134 14.9469 32.9139 14.917V14.91C32.9119 14.8813 32.8991 14.8545 32.8782 14.8348C32.8572 14.8152 32.8296 14.8042 32.8009 14.804ZM33.3639 14.804C33.3339 14.804 33.3052 14.8159 33.284 14.8371C33.2628 14.8583 33.2509 14.887 33.2509 14.917C33.2509 14.979 33.3009 15.031 33.3639 15.031C33.3938 15.0302 33.4222 15.0179 33.4433 14.9967C33.4643 14.9755 33.4764 14.9469 33.4769 14.917V14.91C33.4749 14.8813 33.4621 14.8545 33.4412 14.8348C33.4202 14.8152 33.3926 14.8042 33.3639 14.804ZM33.9259 14.804C33.9111 14.804 33.8965 14.8069 33.8829 14.8126C33.8693 14.8183 33.857 14.8267 33.8467 14.8372C33.8363 14.8477 33.8282 14.8602 33.8228 14.8739C33.8173 14.8876 33.8146 14.9022 33.8149 14.917C33.8149 14.979 33.8649 15.031 33.9259 15.031C33.9558 15.0302 33.9842 15.0179 34.0053 14.9967C34.0263 14.9755 34.0384 14.9469 34.0389 14.917V14.91C34.0369 14.8813 34.0241 14.8545 34.0032 14.8348C33.9822 14.8152 33.9546 14.8042 33.9259 14.804ZM34.4859 14.804C34.4564 14.8045 34.4282 14.8167 34.4076 14.8379C34.387 14.859 34.3756 14.8875 34.3759 14.917C34.3759 14.978 34.4259 15.03 34.4859 15.031C34.5161 15.031 34.5451 15.019 34.5665 14.9976C34.5879 14.9762 34.5999 14.9472 34.5999 14.917V14.91C34.5983 14.8812 34.5857 14.8541 34.5647 14.8343C34.5436 14.8146 34.5158 14.8037 34.4869 14.804H34.4859ZM16.1019 17.966C15.8885 17.9607 15.6762 17.9981 15.4774 18.0761C15.2787 18.154 15.0976 18.271 14.9448 18.4201C14.7919 18.5691 14.6705 18.7473 14.5875 18.944C14.5046 19.1407 14.4619 19.352 14.4619 19.5655C14.4619 19.779 14.5046 19.9903 14.5875 20.187C14.6705 20.3837 14.7919 20.5619 14.9448 20.7109C15.0976 20.86 15.2787 20.9769 15.4774 21.0549C15.6762 21.1329 15.8885 21.1703 16.1019 21.165C16.5262 21.165 16.9332 20.9964 17.2333 20.6964C17.5333 20.3963 17.7019 19.9893 17.7019 19.565C17.7019 19.1406 17.5333 18.7337 17.2333 18.4336C16.9332 18.1336 16.5262 17.965 16.1019 17.965V17.966ZM20.1019 17.966C19.8885 17.9607 19.6762 17.9981 19.4774 18.0761C19.2787 18.154 19.0976 18.271 18.9448 18.4201C18.7919 18.5691 18.6705 18.7473 18.5875 18.944C18.5046 19.1407 18.4619 19.352 18.4619 19.5655C18.4619 19.779 18.5046 19.9903 18.5875 20.187C18.6705 20.3837 18.7919 20.5619 18.9448 20.7109C19.0976 20.86 19.2787 20.9769 19.4774 21.0549C19.6762 21.1329 19.8885 21.1703 20.1019 21.165C20.5262 21.165 20.9332 20.9964 21.2333 20.6964C21.5333 20.3963 21.7019 19.9893 21.7019 19.565C21.7019 19.1406 21.5333 18.7337 21.2333 18.4336C20.9332 18.1336 20.5262 17.965 20.1019 17.965V17.966ZM24.1019 17.966C23.8885 17.9607 23.6762 17.9981 23.4774 18.0761C23.2787 18.154 23.0976 18.271 22.9448 18.4201C22.7919 18.5691 22.6705 18.7473 22.5875 18.944C22.5046 19.1407 22.4619 19.352 22.4619 19.5655C22.4619 19.779 22.5046 19.9903 22.5875 20.187C22.6705 20.3837 22.7919 20.5619 22.9448 20.7109C23.0976 20.86 23.2787 20.9769 23.4774 21.0549C23.6762 21.1329 23.8885 21.1703 24.1019 21.165C24.5262 21.165 24.9332 20.9964 25.2333 20.6964C25.5333 20.3963 25.7019 19.9893 25.7019 19.565C25.7019 19.1406 25.5333 18.7337 25.2333 18.4336C24.9332 18.1336 24.5262 17.965 24.1019 17.965V17.966ZM28.1019 17.966C27.8885 17.9607 27.6762 17.9981 27.4774 18.0761C27.2787 18.154 27.0976 18.271 26.9448 18.4201C26.7919 18.5691 26.6705 18.7473 26.5875 18.944C26.5046 19.1407 26.4619 19.352 26.4619 19.5655C26.4619 19.779 26.5046 19.9903 26.5875 20.187C26.6705 20.3837 26.7919 20.5619 26.9448 20.7109C27.0976 20.86 27.2787 20.9769 27.4774 21.0549C27.6762 21.1329 27.8885 21.1703 28.1019 21.165C28.5262 21.165 28.9332 20.9964 29.2333 20.6964C29.5333 20.3963 29.7019 19.9893 29.7019 19.565C29.7019 19.1406 29.5333 18.7337 29.2333 18.4336C28.9332 18.1336 28.5262 17.965 28.1019 17.965V17.966ZM32.1019 17.966C31.8885 17.9607 31.6762 17.9981 31.4774 18.0761C31.2787 18.154 31.0976 18.271 30.9448 18.4201C30.7919 18.5691 30.6705 18.7473 30.5875 18.944C30.5046 19.1407 30.4619 19.352 30.4619 19.5655C30.4619 19.779 30.5046 19.9903 30.5875 20.187C30.6705 20.3837 30.7919 20.5619 30.9448 20.7109C31.0976 20.86 31.2787 20.9769 31.4774 21.0549C31.6762 21.1329 31.8885 21.1703 32.1019 21.165C32.5262 21.165 32.9332 20.9964 33.2333 20.6964C33.5333 20.3963 33.7019 19.9893 33.7019 19.565C33.7019 19.1406 33.5333 18.7337 33.2333 18.4336C32.9332 18.1336 32.5262 17.965 32.1019 17.965V17.966ZM14.2469 23.802C14.2168 23.8025 14.1882 23.8149 14.1672 23.8364C14.1462 23.858 14.1346 23.8869 14.1349 23.917C14.1349 23.978 14.1849 24.03 14.2469 24.03C14.2766 24.0292 14.3049 24.0171 14.326 23.9961C14.347 23.975 14.3591 23.9467 14.3599 23.917C14.3604 23.9107 14.3604 23.9043 14.3599 23.898C14.3554 23.8714 14.3415 23.8473 14.3208 23.8301C14.3 23.8129 14.2738 23.8036 14.2469 23.804V23.802ZM14.8089 23.802C14.7941 23.8023 14.7794 23.8054 14.7658 23.8114C14.7522 23.8173 14.7399 23.8258 14.7296 23.8365C14.7193 23.8472 14.7112 23.8598 14.7057 23.8736C14.7003 23.8874 14.6976 23.9022 14.6979 23.917C14.6979 23.979 14.7479 24.031 14.8089 24.03C14.8386 24.0292 14.8669 24.0171 14.888 23.9961C14.909 23.975 14.9211 23.9467 14.9219 23.917C14.9224 23.9107 14.9224 23.9043 14.9219 23.898C14.9174 23.8714 14.9035 23.8473 14.8828 23.8301C14.862 23.8129 14.8358 23.8036 14.8089 23.804V23.802ZM18.7449 23.802C18.7148 23.8025 18.6862 23.8149 18.6652 23.8364C18.6442 23.858 18.6326 23.8869 18.6329 23.917C18.6329 23.978 18.6829 24.03 18.7449 24.03C18.7746 24.0292 18.8029 24.0171 18.824 23.9961C18.845 23.975 18.8571 23.9467 18.8579 23.917C18.8585 23.9107 18.8585 23.9043 18.8579 23.898C18.8534 23.8714 18.8395 23.8473 18.8188 23.8301C18.798 23.8129 18.7718 23.8036 18.7449 23.804V23.802ZM23.2429 23.802C23.2128 23.8025 23.1842 23.8149 23.1632 23.8364C23.1422 23.858 23.1306 23.8869 23.1309 23.917C23.1309 23.978 23.1809 24.03 23.2429 24.03C23.2726 24.0292 23.3009 24.0171 23.322 23.9961C23.343 23.975 23.3551 23.9467 23.3559 23.917C23.3564 23.9107 23.3564 23.9043 23.3559 23.898C23.3514 23.8714 23.3375 23.8473 23.3168 23.8301C23.296 23.8129 23.2698 23.8036 23.2429 23.804V23.802ZM23.8049 23.802C23.7745 23.802 23.7454 23.8141 23.7239 23.8355C23.7025 23.857 23.6904 23.8861 23.6904 23.9165C23.6904 23.9469 23.7025 23.976 23.7239 23.9975C23.7454 24.0189 23.7745 24.031 23.8049 24.031C23.8659 24.031 23.9149 23.978 23.9159 23.917C23.9165 23.9107 23.9165 23.9043 23.9159 23.898C23.9118 23.8718 23.8985 23.8479 23.8783 23.8306C23.8581 23.8134 23.8324 23.8039 23.8059 23.804V23.802H23.8049ZM27.7409 23.802C27.7108 23.8025 27.6822 23.8149 27.6612 23.8364C27.6402 23.858 27.6286 23.8869 27.6289 23.917C27.6289 23.978 27.6789 24.03 27.7409 24.03C27.7706 24.0292 27.7989 24.0171 27.82 23.9961C27.841 23.975 27.8531 23.9467 27.8539 23.917C27.8545 23.9107 27.8545 23.9043 27.8539 23.898C27.8494 23.8714 27.8355 23.8473 27.8148 23.8301C27.794 23.8129 27.7678 23.8036 27.7409 23.804V23.802ZM31.6759 23.802C31.646 23.8028 31.6176 23.8153 31.5969 23.8368C31.5761 23.8583 31.5646 23.8871 31.5649 23.917C31.5649 23.978 31.6149 24.03 31.6759 24.03C31.7058 24.0295 31.7344 24.0174 31.7556 23.9964C31.7768 23.9753 31.7891 23.9469 31.7899 23.917C31.7904 23.9107 31.7904 23.9043 31.7899 23.898C31.7853 23.8713 31.7713 23.847 31.7504 23.8298C31.7295 23.8125 31.703 23.8034 31.6759 23.804V23.802ZM32.2389 23.802C32.224 23.8021 32.2092 23.8052 32.1955 23.8111C32.1818 23.8169 32.1693 23.8255 32.1589 23.8361C32.1485 23.8468 32.1403 23.8595 32.1348 23.8734C32.1293 23.8872 32.1266 23.9021 32.1269 23.917C32.1269 23.979 32.1769 24.031 32.2389 24.03C32.2686 24.0292 32.2969 24.0171 32.318 23.9961C32.339 23.975 32.3511 23.9467 32.3519 23.917C32.3525 23.9107 32.3525 23.9043 32.3519 23.898C32.3474 23.8714 32.3335 23.8473 32.3128 23.8301C32.292 23.8129 32.2658 23.8036 32.2389 23.804V23.802ZM13.6839 23.804C13.6692 23.8041 13.6546 23.8071 13.6411 23.8129C13.6276 23.8186 13.6153 23.827 13.605 23.8375C13.5947 23.848 13.5865 23.8604 13.581 23.8741C13.5755 23.8877 13.5728 23.9023 13.5729 23.917C13.5729 23.978 13.6229 24.03 13.6839 24.03C13.7138 24.0297 13.7424 24.0177 13.7635 23.9966C13.7846 23.9755 13.7966 23.9469 13.7969 23.917C13.7969 23.887 13.785 23.8583 13.7638 23.8371C13.7426 23.8159 13.7139 23.804 13.6839 23.804ZM15.3719 23.804C15.3571 23.8039 15.3424 23.8067 15.3286 23.8123C15.3149 23.818 15.3025 23.8263 15.292 23.8368C15.2816 23.8474 15.2734 23.8599 15.2678 23.8737C15.2623 23.8874 15.2596 23.9022 15.2599 23.917C15.2599 23.979 15.3099 24.031 15.3719 24.03C15.4016 24.0292 15.4299 24.0171 15.451 23.9961C15.472 23.975 15.4841 23.9467 15.4849 23.917V23.91C15.4829 23.8813 15.4701 23.8545 15.4492 23.8348C15.4282 23.8152 15.4006 23.8042 15.3719 23.804ZM15.9339 23.804C15.9191 23.804 15.9045 23.8069 15.8909 23.8126C15.8773 23.8183 15.865 23.8267 15.8547 23.8372C15.8444 23.8477 15.8362 23.8602 15.8308 23.8739C15.8253 23.8876 15.8226 23.9022 15.8229 23.917C15.8229 23.979 15.8729 24.031 15.9339 24.03C15.9636 24.0292 15.9919 24.0171 16.013 23.9961C16.034 23.975 16.0461 23.9467 16.0469 23.917V23.91C16.0449 23.8813 16.0321 23.8545 16.0112 23.8348C15.9902 23.8152 15.9626 23.8042 15.9339 23.804ZM16.4969 23.804C16.4821 23.8039 16.4674 23.8067 16.4536 23.8123C16.4399 23.818 16.4275 23.8263 16.417 23.8368C16.4066 23.8474 16.3984 23.8599 16.3929 23.8737C16.3873 23.8874 16.3846 23.9022 16.3849 23.917C16.3849 23.979 16.4349 24.031 16.4969 24.03C16.5266 24.0292 16.5549 24.0171 16.576 23.9961C16.597 23.975 16.6091 23.9467 16.6099 23.917V23.91C16.6079 23.8813 16.5951 23.8545 16.5742 23.8348C16.5532 23.8152 16.5256 23.8042 16.4969 23.804ZM17.0569 23.804C17.0422 23.8041 17.0276 23.8071 17.0141 23.8129C17.0006 23.8186 16.9883 23.827 16.978 23.8375C16.9677 23.848 16.9595 23.8604 16.954 23.8741C16.9485 23.8877 16.9458 23.9023 16.9459 23.917C16.9459 23.978 16.9959 24.03 17.0569 24.03C17.0868 24.0297 17.1154 24.0177 17.1365 23.9966C17.1576 23.9755 17.1696 23.9469 17.1699 23.917V23.91C17.1683 23.8812 17.1557 23.8541 17.1347 23.8343C17.1136 23.8146 17.0858 23.8037 17.0569 23.804ZM17.6199 23.804C17.6051 23.804 17.5905 23.8069 17.5768 23.8126C17.5631 23.8183 17.5508 23.8266 17.5403 23.8371C17.5299 23.8477 17.5217 23.8601 17.5161 23.8738C17.5106 23.8875 17.5078 23.9022 17.5079 23.917C17.5079 23.978 17.5579 24.03 17.6199 24.03C17.6498 24.0297 17.6784 24.0177 17.6995 23.9966C17.7206 23.9755 17.7326 23.9469 17.7329 23.917V23.91C17.7313 23.8812 17.7187 23.8541 17.6977 23.8343C17.6766 23.8146 17.6488 23.8037 17.6199 23.804ZM18.1819 23.804C18.1672 23.8041 18.1526 23.8071 18.1391 23.8129C18.1256 23.8186 18.1133 23.827 18.103 23.8375C18.0927 23.848 18.0845 23.8604 18.079 23.8741C18.0735 23.8877 18.0708 23.9023 18.0709 23.917C18.0709 23.978 18.1209 24.03 18.1819 24.03C18.2118 24.0297 18.2404 24.0177 18.2615 23.9966C18.2826 23.9755 18.2946 23.9469 18.2949 23.917V23.91C18.2933 23.8812 18.2807 23.8541 18.2597 23.8343C18.2386 23.8146 18.2108 23.8037 18.1819 23.804ZM19.3069 23.804C19.2921 23.804 19.2775 23.8069 19.2639 23.8126C19.2503 23.8183 19.238 23.8267 19.2277 23.8372C19.2174 23.8477 19.2092 23.8602 19.2038 23.8739C19.1983 23.8876 19.1956 23.9022 19.1959 23.917C19.1959 23.979 19.2459 24.031 19.3069 24.03C19.3366 24.0292 19.3649 24.0171 19.386 23.9961C19.407 23.975 19.4191 23.9467 19.4199 23.917V23.91C19.4179 23.8813 19.4051 23.8545 19.3842 23.8348C19.3632 23.8152 19.3356 23.8042 19.3069 23.804ZM19.8699 23.804C19.8551 23.8039 19.8404 23.8067 19.8266 23.8123C19.8129 23.818 19.8005 23.8263 19.79 23.8368C19.7796 23.8474 19.7714 23.8599 19.7659 23.8737C19.7603 23.8874 19.7576 23.9022 19.7579 23.917C19.7579 23.979 19.8079 24.031 19.8699 24.03C19.8996 24.0292 19.9279 24.0171 19.949 23.9961C19.97 23.975 19.9821 23.9467 19.9829 23.917V23.91C19.9809 23.8813 19.9681 23.8545 19.9472 23.8348C19.9262 23.8152 19.8986 23.8042 19.8699 23.804ZM20.4319 23.804C20.4171 23.804 20.4025 23.8069 20.3889 23.8126C20.3753 23.8183 20.363 23.8267 20.3527 23.8372C20.3424 23.8477 20.3342 23.8602 20.3288 23.8739C20.3233 23.8876 20.3206 23.9022 20.3209 23.917C20.3209 23.979 20.3709 24.031 20.4319 24.03C20.4616 24.0292 20.4899 24.0171 20.511 23.9961C20.532 23.975 20.5441 23.9467 20.5449 23.917V23.91C20.5429 23.8813 20.5301 23.8545 20.5092 23.8348C20.4882 23.8152 20.4606 23.8042 20.4319 23.804ZM20.9949 23.804C20.9801 23.8039 20.9654 23.8067 20.9516 23.8123C20.9379 23.818 20.9255 23.8263 20.915 23.8368C20.9046 23.8474 20.8964 23.8599 20.8909 23.8737C20.8853 23.8874 20.8826 23.9022 20.8829 23.917C20.8829 23.979 20.9329 24.031 20.9949 24.03C21.0246 24.0292 21.0529 24.0171 21.074 23.9961C21.095 23.975 21.1071 23.9467 21.1079 23.917V23.91C21.1059 23.8813 21.0931 23.8545 21.0722 23.8348C21.0512 23.8152 21.0236 23.8042 20.9949 23.804ZM21.5549 23.804C21.5253 23.8045 21.497 23.8167 21.4763 23.8378C21.4555 23.8589 21.4439 23.8874 21.4439 23.917C21.4439 23.978 21.4939 24.03 21.5549 24.03C21.585 24.03 21.6138 24.0181 21.6351 23.997C21.6565 23.9758 21.6686 23.9471 21.6689 23.917V23.91C21.6673 23.881 21.6546 23.8537 21.6333 23.834C21.612 23.8142 21.5839 23.8034 21.5549 23.804ZM22.1179 23.804C22.0881 23.8043 22.0596 23.8163 22.0386 23.8374C22.0177 23.8586 22.0059 23.8872 22.0059 23.917C22.0059 23.978 22.0559 24.03 22.1179 24.03C22.1478 24.0297 22.1764 24.0177 22.1975 23.9966C22.2186 23.9755 22.2306 23.9469 22.2309 23.917V23.91C22.2293 23.8812 22.2167 23.8541 22.1957 23.8343C22.1746 23.8146 22.1468 23.8037 22.1179 23.804ZM22.6799 23.804C22.6652 23.804 22.6506 23.8069 22.6371 23.8126C22.6235 23.8184 22.6113 23.8267 22.601 23.8373C22.5908 23.8478 22.5827 23.8603 22.5774 23.874C22.572 23.8877 22.5695 23.9023 22.5699 23.917C22.5709 23.978 22.6189 24.03 22.6799 24.03C22.71 24.03 22.7388 24.0181 22.7601 23.997C22.7815 23.9758 22.7936 23.9471 22.7939 23.917C22.7939 23.9021 22.7909 23.8873 22.7852 23.8735C22.7795 23.8597 22.771 23.8472 22.7604 23.8367C22.7498 23.8262 22.7373 23.8179 22.7234 23.8123C22.7096 23.8067 22.6948 23.8039 22.6799 23.804ZM24.3679 23.804C24.3531 23.8039 24.3384 23.8067 24.3246 23.8123C24.3109 23.818 24.2985 23.8263 24.288 23.8368C24.2776 23.8474 24.2694 23.8599 24.2639 23.8737C24.2583 23.8874 24.2556 23.9022 24.2559 23.917C24.2559 23.979 24.3059 24.031 24.3679 24.03C24.3976 24.0292 24.4259 24.0171 24.447 23.9961C24.468 23.975 24.4801 23.9467 24.4809 23.917V23.91C24.4789 23.8813 24.4661 23.8545 24.4452 23.8348C24.4242 23.8152 24.3966 23.8042 24.3679 23.804ZM24.9299 23.804C24.8999 23.804 24.8712 23.8159 24.85 23.8371C24.8288 23.8583 24.8169 23.887 24.8169 23.917C24.8169 23.979 24.8679 24.031 24.9299 24.03C24.9598 24.0295 24.9883 24.0174 25.0096 23.9964C25.0308 23.9753 25.0431 23.9469 25.0439 23.917V23.91C25.0419 23.8812 25.029 23.8542 25.0078 23.8345C24.9866 23.8148 24.9588 23.8039 24.9299 23.804ZM25.4899 23.804C25.4604 23.8045 25.4322 23.8167 25.4116 23.8379C25.391 23.859 25.3796 23.8875 25.3799 23.917C25.3799 23.978 25.4299 24.03 25.4899 24.03C25.52 24.03 25.5488 24.0181 25.5702 23.997C25.5915 23.9758 25.6036 23.9471 25.6039 23.917V23.91C25.6023 23.8812 25.5897 23.8541 25.5687 23.8343C25.5476 23.8146 25.5198 23.8037 25.4909 23.804H25.4899ZM26.0529 23.804C26.0382 23.8041 26.0236 23.8071 26.0101 23.8129C25.9966 23.8186 25.9843 23.827 25.974 23.8375C25.9637 23.848 25.9555 23.8604 25.95 23.8741C25.9445 23.8877 25.9418 23.9023 25.9419 23.917C25.9419 23.978 25.9919 24.03 26.0529 24.03C26.0828 24.0297 26.1114 24.0177 26.1325 23.9966C26.1536 23.9755 26.1656 23.9469 26.1659 23.917V23.91C26.1643 23.8812 26.1517 23.8541 26.1307 23.8343C26.1096 23.8146 26.0818 23.8037 26.0529 23.804ZM26.6159 23.804C26.6011 23.804 26.5865 23.8069 26.5728 23.8126C26.5591 23.8183 26.5468 23.8266 26.5363 23.8371C26.5259 23.8477 26.5177 23.8601 26.5121 23.8738C26.5066 23.8875 26.5038 23.9022 26.5039 23.917C26.5039 23.978 26.5539 24.03 26.6159 24.03C26.646 24.0297 26.6748 24.0178 26.6962 23.9967C26.7177 23.9757 26.7301 23.9471 26.7309 23.917V23.91C26.7289 23.881 26.7158 23.8539 26.6944 23.8342C26.6731 23.8145 26.645 23.8037 26.6159 23.804ZM27.1779 23.804C27.1632 23.8041 27.1486 23.8071 27.1351 23.8129C27.1216 23.8186 27.1093 23.827 27.099 23.8375C27.0887 23.848 27.0805 23.8604 27.075 23.8741C27.0695 23.8877 27.0668 23.9023 27.0669 23.917C27.0669 23.978 27.1169 24.03 27.1779 24.03C27.2081 24.03 27.2372 24.0182 27.2589 23.9971C27.2805 23.976 27.2931 23.9472 27.2939 23.917C27.2938 23.9019 27.2907 23.8871 27.2847 23.8732C27.2788 23.8594 27.2702 23.8468 27.2594 23.8363C27.2487 23.8258 27.2359 23.8175 27.2219 23.812C27.2079 23.8064 27.1929 23.8037 27.1779 23.804ZM28.3029 23.804C28.2881 23.804 28.2735 23.8069 28.2599 23.8126C28.2463 23.8183 28.234 23.8267 28.2237 23.8372C28.2134 23.8477 28.2052 23.8602 28.1998 23.8739C28.1943 23.8876 28.1916 23.9022 28.1919 23.917C28.1919 23.979 28.2419 24.031 28.3029 24.03C28.3326 24.0292 28.3609 24.0171 28.382 23.9961C28.403 23.975 28.4151 23.9467 28.4159 23.917V23.91C28.4139 23.8813 28.4011 23.8545 28.3802 23.8348C28.3592 23.8152 28.3316 23.8042 28.3029 23.804ZM28.8659 23.804C28.851 23.8039 28.8362 23.8067 28.8223 23.8123C28.8085 23.8179 28.7959 23.8262 28.7853 23.8367C28.7747 23.8472 28.7663 23.8597 28.7606 23.8735C28.7548 23.8873 28.7519 23.9021 28.7519 23.917C28.7519 23.979 28.8039 24.031 28.8659 24.03C28.8956 24.0292 28.9239 24.0171 28.945 23.9961C28.966 23.975 28.9781 23.9467 28.9789 23.917V23.91C28.9769 23.8813 28.9641 23.8545 28.9432 23.8348C28.9222 23.8152 28.8946 23.8042 28.8659 23.804ZM29.4279 23.804C29.3979 23.804 29.3692 23.8159 29.348 23.8371C29.3268 23.8583 29.3149 23.887 29.3149 23.917C29.3149 23.979 29.3659 24.031 29.4279 24.03C29.4576 24.0292 29.4859 24.0171 29.507 23.9961C29.528 23.975 29.5401 23.9467 29.5409 23.917V23.91C29.5389 23.8813 29.5261 23.8545 29.5052 23.8348C29.4842 23.8152 29.4566 23.8042 29.4279 23.804ZM29.9879 23.804C29.9584 23.8048 29.9305 23.817 29.9099 23.8381C29.8894 23.8592 29.8779 23.8875 29.8779 23.917C29.8779 23.978 29.9279 24.03 29.9879 24.03C30.018 24.03 30.0468 24.0181 30.0681 23.997C30.0895 23.9758 30.1016 23.9471 30.1019 23.917V23.91C30.1003 23.8812 30.0877 23.8541 30.0667 23.8343C30.0456 23.8146 30.0178 23.8037 29.9889 23.804H29.9879ZM30.5509 23.804C30.5213 23.8045 30.493 23.8167 30.4723 23.8378C30.4515 23.8589 30.4399 23.8874 30.4399 23.917C30.4399 23.978 30.4899 24.03 30.5509 24.03C30.5811 24.03 30.6102 24.0182 30.6319 23.9971C30.6535 23.976 30.6661 23.9472 30.6669 23.917V23.91C30.6648 23.8808 30.6517 23.8535 30.6301 23.8338C30.6085 23.8141 30.5801 23.8034 30.5509 23.804ZM31.1139 23.804C31.0841 23.8043 31.0556 23.8163 31.0346 23.8374C31.0137 23.8586 31.0019 23.8872 31.0019 23.917C31.0019 23.978 31.0519 24.03 31.1139 24.03C31.144 24.0297 31.1728 24.0178 31.1942 23.9967C31.2157 23.9757 31.2281 23.9471 31.2289 23.917V23.91C31.2269 23.881 31.2138 23.8539 31.1924 23.8342C31.1711 23.8145 31.143 23.8037 31.1139 23.804ZM32.8009 23.804C32.7709 23.804 32.7422 23.8159 32.721 23.8371C32.6998 23.8583 32.6879 23.887 32.6879 23.917C32.6879 23.979 32.7389 24.031 32.8009 24.03C32.8306 24.0292 32.8589 24.0171 32.88 23.9961C32.901 23.975 32.9131 23.9467 32.9139 23.917V23.91C32.9119 23.8813 32.8991 23.8545 32.8782 23.8348C32.8572 23.8152 32.8296 23.8042 32.8009 23.804ZM33.3639 23.804C33.3339 23.804 33.3052 23.8159 33.284 23.8371C33.2628 23.8583 33.2509 23.887 33.2509 23.917C33.2509 23.979 33.3009 24.031 33.3639 24.03C33.3936 24.0292 33.4219 24.0171 33.443 23.9961C33.464 23.975 33.4761 23.9467 33.4769 23.917V23.91C33.4749 23.8813 33.4621 23.8545 33.4412 23.8348C33.4202 23.8152 33.3926 23.8042 33.3639 23.804ZM33.9259 23.804C33.9111 23.804 33.8965 23.8069 33.8829 23.8126C33.8693 23.8183 33.857 23.8267 33.8467 23.8372C33.8363 23.8477 33.8282 23.8602 33.8228 23.8739C33.8173 23.8876 33.8146 23.9022 33.8149 23.917C33.8149 23.979 33.8649 24.031 33.9259 24.03C33.9556 24.0292 33.9839 24.0171 34.005 23.9961C34.026 23.975 34.0381 23.9467 34.0389 23.917V23.91C34.0369 23.8813 34.0241 23.8545 34.0032 23.8348C33.9822 23.8152 33.9546 23.8042 33.9259 23.804ZM34.4859 23.804C34.4564 23.8045 34.4282 23.8167 34.4076 23.8379C34.387 23.859 34.3756 23.8875 34.3759 23.917C34.3759 23.978 34.4259 24.03 34.4859 24.03C34.516 24.03 34.5448 24.0181 34.5661 23.997C34.5875 23.9758 34.5996 23.9471 34.5999 23.917V23.91C34.5983 23.8812 34.5857 23.8541 34.5647 23.8343C34.5436 23.8146 34.5158 23.8037 34.4869 23.804H34.4859ZM16.1019 26.634C15.8885 26.6287 15.6762 26.6661 15.4774 26.7441C15.2787 26.822 15.0976 26.939 14.9448 27.0881C14.7919 27.2371 14.6705 27.4153 14.5875 27.612C14.5046 27.8087 14.4619 28.02 14.4619 28.2335C14.4619 28.447 14.5046 28.6583 14.5875 28.855C14.6705 29.0517 14.7919 29.2299 14.9448 29.3789C15.0976 29.528 15.2787 29.6449 15.4774 29.7229C15.6762 29.8009 15.8885 29.8383 16.1019 29.833C16.5262 29.833 16.9332 29.6644 17.2333 29.3644C17.5333 29.0643 17.7019 28.6573 17.7019 28.233C17.7019 27.8086 17.5333 27.4017 17.2333 27.1016C16.9332 26.8016 16.5262 26.633 16.1019 26.633V26.634ZM20.1019 26.634C19.8885 26.6287 19.6762 26.6661 19.4774 26.7441C19.2787 26.822 19.0976 26.939 18.9448 27.0881C18.7919 27.2371 18.6705 27.4153 18.5875 27.612C18.5046 27.8087 18.4619 28.02 18.4619 28.2335C18.4619 28.447 18.5046 28.6583 18.5875 28.855C18.6705 29.0517 18.7919 29.2299 18.9448 29.3789C19.0976 29.528 19.2787 29.6449 19.4774 29.7229C19.6762 29.8009 19.8885 29.8383 20.1019 29.833C20.5262 29.833 20.9332 29.6644 21.2333 29.3644C21.5333 29.0643 21.7019 28.6573 21.7019 28.233C21.7019 27.8086 21.5333 27.4017 21.2333 27.1016C20.9332 26.8016 20.5262 26.633 20.1019 26.633V26.634ZM24.1019 26.634C23.8885 26.6287 23.6762 26.6661 23.4774 26.7441C23.2787 26.822 23.0976 26.939 22.9448 27.0881C22.7919 27.2371 22.6705 27.4153 22.5875 27.612C22.5046 27.8087 22.4619 28.02 22.4619 28.2335C22.4619 28.447 22.5046 28.6583 22.5875 28.855C22.6705 29.0517 22.7919 29.2299 22.9448 29.3789C23.0976 29.528 23.2787 29.6449 23.4774 29.7229C23.6762 29.8009 23.8885 29.8383 24.1019 29.833C24.5262 29.833 24.9332 29.6644 25.2333 29.3644C25.5333 29.0643 25.7019 28.6573 25.7019 28.233C25.7019 27.8086 25.5333 27.4017 25.2333 27.1016C24.9332 26.8016 24.5262 26.633 24.1019 26.633V26.634ZM28.1019 26.634C27.8885 26.6287 27.6762 26.6661 27.4774 26.7441C27.2787 26.822 27.0976 26.939 26.9448 27.0881C26.7919 27.2371 26.6705 27.4153 26.5875 27.612C26.5046 27.8087 26.4619 28.02 26.4619 28.2335C26.4619 28.447 26.5046 28.6583 26.5875 28.855C26.6705 29.0517 26.7919 29.2299 26.9448 29.3789C27.0976 29.528 27.2787 29.6449 27.4774 29.7229C27.6762 29.8009 27.8885 29.8383 28.1019 29.833C28.5262 29.833 28.9332 29.6644 29.2333 29.3644C29.5333 29.0643 29.7019 28.6573 29.7019 28.233C29.7019 27.8086 29.5333 27.4017 29.2333 27.1016C28.9332 26.8016 28.5262 26.633 28.1019 26.633V26.634ZM32.1019 26.634C31.8885 26.6287 31.6762 26.6661 31.4774 26.7441C31.2787 26.822 31.0976 26.939 30.9448 27.0881C30.7919 27.2371 30.6705 27.4153 30.5875 27.612C30.5046 27.8087 30.4619 28.02 30.4619 28.2335C30.4619 28.447 30.5046 28.6583 30.5875 28.855C30.6705 29.0517 30.7919 29.2299 30.9448 29.3789C31.0976 29.528 31.2787 29.6449 31.4774 29.7229C31.6762 29.8009 31.8885 29.8383 32.1019 29.833C32.5262 29.833 32.9332 29.6644 33.2333 29.3644C33.5333 29.0643 33.7019 28.6573 33.7019 28.233C33.7019 27.8086 33.5333 27.4017 33.2333 27.1016C32.9332 26.8016 32.5262 26.633 32.1019 26.633V26.634ZM14.2469 32.802C14.2168 32.8025 14.1882 32.8149 14.1672 32.8364C14.1462 32.858 14.1346 32.8869 14.1349 32.917C14.1349 32.978 14.1849 33.03 14.2469 33.03C14.2766 33.0292 14.3049 33.0171 14.326 32.9961C14.347 32.975 14.3591 32.9467 14.3599 32.917V32.898C14.3554 32.8714 14.3415 32.8473 14.3208 32.8301C14.3 32.8129 14.2738 32.8036 14.2469 32.804V32.802ZM14.8089 32.802C14.7941 32.8022 14.7794 32.8054 14.7658 32.8114C14.7522 32.8173 14.7399 32.8258 14.7296 32.8365C14.7193 32.8472 14.7112 32.8598 14.7057 32.8736C14.7003 32.8874 14.6976 32.9022 14.6979 32.917C14.6979 32.979 14.7479 33.031 14.8089 33.03C14.8386 33.0292 14.8669 33.0171 14.888 32.9961C14.909 32.975 14.9211 32.9467 14.9219 32.917V32.898C14.9174 32.8714 14.9035 32.8473 14.8828 32.8301C14.862 32.8129 14.8358 32.8036 14.8089 32.804V32.802ZM18.7449 32.802C18.7148 32.8025 18.6862 32.8149 18.6652 32.8364C18.6442 32.858 18.6326 32.8869 18.6329 32.917C18.6329 32.978 18.6829 33.03 18.7449 33.03C18.7746 33.0292 18.8029 33.0171 18.824 32.9961C18.845 32.975 18.8571 32.9467 18.8579 32.917V32.898C18.8534 32.8714 18.8395 32.8473 18.8188 32.8301C18.798 32.8129 18.7718 32.8036 18.7449 32.804V32.802ZM23.2429 32.802C23.2128 32.8025 23.1842 32.8149 23.1632 32.8364C23.1422 32.858 23.1306 32.8869 23.1309 32.917C23.1309 32.978 23.1809 33.03 23.2429 33.03C23.2726 33.0292 23.3009 33.0171 23.322 32.9961C23.343 32.975 23.3551 32.9467 23.3559 32.917V32.898C23.3514 32.8714 23.3375 32.8473 23.3168 32.8301C23.296 32.8129 23.2698 32.8036 23.2429 32.804V32.802ZM23.8049 32.802C23.7899 32.8021 23.7751 32.8052 23.7613 32.8111C23.7476 32.8169 23.7351 32.8254 23.7246 32.8361C23.7141 32.8468 23.7058 32.8594 23.7002 32.8733C23.6946 32.8872 23.6918 32.902 23.6919 32.917C23.6919 32.979 23.7429 33.031 23.8049 33.03C23.8659 33.03 23.9149 32.978 23.9159 32.917V32.898C23.912 32.8717 23.8987 32.8476 23.8785 32.8304C23.8583 32.8131 23.8325 32.8037 23.8059 32.804V32.802H23.8049ZM27.7409 32.802C27.7108 32.8025 27.6822 32.8149 27.6612 32.8364C27.6402 32.858 27.6286 32.8869 27.6289 32.917C27.6289 32.978 27.6789 33.03 27.7409 33.03C27.7706 33.0292 27.7989 33.0171 27.82 32.9961C27.841 32.975 27.8531 32.9467 27.8539 32.917V32.898C27.8494 32.8714 27.8355 32.8473 27.8148 32.8301C27.794 32.8129 27.7678 32.8036 27.7409 32.804V32.802ZM31.6759 32.802C31.646 32.8028 31.6176 32.8153 31.5969 32.8368C31.5761 32.8583 31.5646 32.8871 31.5649 32.917C31.5649 32.978 31.6149 33.03 31.6759 33.03C31.7058 33.0295 31.7344 33.0175 31.7556 32.9964C31.7768 32.9753 31.7891 32.9469 31.7899 32.917V32.898C31.7853 32.8712 31.7713 32.847 31.7504 32.8298C31.7295 32.8125 31.703 32.8034 31.6759 32.804V32.802ZM32.2389 32.802C32.224 32.8021 32.2092 32.8052 32.1955 32.8111C32.1818 32.8169 32.1693 32.8255 32.1589 32.8361C32.1485 32.8468 32.1403 32.8595 32.1348 32.8734C32.1293 32.8872 32.1266 32.9021 32.1269 32.917C32.1269 32.979 32.1769 33.031 32.2389 33.03C32.2686 33.0292 32.2969 33.0171 32.318 32.9961C32.339 32.975 32.3511 32.9467 32.3519 32.917V32.898C32.3474 32.8714 32.3335 32.8473 32.3128 32.8301C32.292 32.8129 32.2658 32.8036 32.2389 32.804V32.802ZM13.6839 32.804C13.6692 32.8041 13.6546 32.8072 13.6411 32.8129C13.6276 32.8186 13.6153 32.827 13.605 32.8375C13.5947 32.848 13.5865 32.8604 13.581 32.8741C13.5755 32.8877 13.5728 32.9023 13.5729 32.917C13.5729 32.978 13.6229 33.03 13.6839 33.031C13.714 33.0307 13.7427 33.0186 13.7639 32.9972C13.785 32.9759 13.7969 32.9471 13.7969 32.917C13.7969 32.887 13.785 32.8583 13.7638 32.8371C13.7426 32.8159 13.7139 32.804 13.6839 32.804ZM15.3719 32.804C15.357 32.8037 15.3423 32.8065 15.3285 32.8121C15.3147 32.8176 15.3022 32.826 15.2917 32.8365C15.2813 32.8471 15.273 32.8597 15.2676 32.8735C15.2621 32.8873 15.2595 32.9021 15.2599 32.917C15.2599 32.979 15.3099 33.031 15.3719 33.031C15.4018 33.0302 15.4302 33.0179 15.4513 32.9967C15.4723 32.9755 15.4844 32.9469 15.4849 32.917V32.91C15.4829 32.8813 15.4701 32.8545 15.4492 32.8348C15.4282 32.8152 15.4006 32.8042 15.3719 32.804ZM15.9339 32.804C15.9191 32.8039 15.9044 32.8067 15.8908 32.8124C15.8771 32.818 15.8647 32.8264 15.8544 32.8369C15.844 32.8475 15.8359 32.86 15.8305 32.8737C15.8251 32.8875 15.8225 32.9022 15.8229 32.917C15.8229 32.979 15.8729 33.031 15.9339 33.031C15.9638 33.0302 15.9922 33.0179 16.0133 32.9967C16.0343 32.9755 16.0464 32.9469 16.0469 32.917V32.91C16.0449 32.8813 16.0321 32.8545 16.0112 32.8348C15.9902 32.8152 15.9626 32.8042 15.9339 32.804ZM16.4969 32.804C16.482 32.8037 16.4673 32.8065 16.4535 32.8121C16.4397 32.8176 16.4272 32.826 16.4167 32.8365C16.4063 32.8471 16.398 32.8597 16.3926 32.8735C16.3871 32.8873 16.3845 32.9021 16.3849 32.917C16.3849 32.979 16.4349 33.031 16.4969 33.031C16.5268 33.0302 16.5552 33.0179 16.5763 32.9967C16.5973 32.9755 16.6094 32.9469 16.6099 32.917V32.91C16.6079 32.8813 16.5951 32.8545 16.5742 32.8348C16.5532 32.8152 16.5256 32.8042 16.4969 32.804ZM17.0569 32.804C17.0286 32.8066 17.0024 32.8198 16.9833 32.8407C16.9641 32.8617 16.9536 32.8891 16.9536 32.9175C16.9536 32.9459 16.9641 32.9732 16.9833 32.9942C17.0024 33.0152 17.0286 33.0283 17.0569 33.031C17.087 33.0307 17.1157 33.0186 17.1369 32.9972C17.158 32.9759 17.1699 32.9471 17.1699 32.917V32.91C17.1683 32.8812 17.1557 32.854 17.1347 32.8343C17.1136 32.8146 17.0858 32.8037 17.0569 32.804ZM17.6199 32.804C17.5916 32.8066 17.5654 32.8198 17.5463 32.8407C17.5271 32.8617 17.5166 32.8891 17.5166 32.9175C17.5166 32.9459 17.5271 32.9732 17.5463 32.9942C17.5654 33.0152 17.5916 33.0283 17.6199 33.031C17.65 33.0307 17.6787 33.0186 17.6999 32.9972C17.721 32.9759 17.7329 32.9471 17.7329 32.917V32.91C17.7313 32.8812 17.7187 32.854 17.6977 32.8343C17.6766 32.8146 17.6488 32.8037 17.6199 32.804ZM18.1819 32.804C18.1536 32.8066 18.1274 32.8198 18.1083 32.8407C18.0891 32.8617 18.0786 32.8891 18.0786 32.9175C18.0786 32.9459 18.0891 32.9732 18.1083 32.9942C18.1274 33.0152 18.1536 33.0283 18.1819 33.031C18.212 33.0307 18.2407 33.0186 18.2619 32.9972C18.283 32.9759 18.2949 32.9471 18.2949 32.917V32.91C18.2933 32.8812 18.2807 32.854 18.2597 32.8343C18.2386 32.8146 18.2108 32.8037 18.1819 32.804ZM19.3069 32.804C19.2921 32.804 19.2775 32.8069 19.2639 32.8126C19.2503 32.8183 19.238 32.8267 19.2277 32.8372C19.2174 32.8477 19.2092 32.8602 19.2038 32.8739C19.1983 32.8876 19.1956 32.9022 19.1959 32.917C19.1959 32.979 19.2459 33.031 19.3069 33.031C19.3368 33.0302 19.3652 33.0179 19.3863 32.9967C19.4073 32.9755 19.4194 32.9469 19.4199 32.917V32.91C19.4179 32.8813 19.4051 32.8545 19.3842 32.8348C19.3632 32.8152 19.3356 32.8042 19.3069 32.804ZM19.8699 32.804C19.8551 32.8039 19.8404 32.8067 19.8266 32.8123C19.8129 32.818 19.8005 32.8263 19.79 32.8368C19.7796 32.8474 19.7714 32.8599 19.7659 32.8737C19.7603 32.8874 19.7576 32.9022 19.7579 32.917C19.7579 32.979 19.8079 33.031 19.8699 33.031C19.8998 33.0302 19.9282 33.0179 19.9493 32.9967C19.9703 32.9755 19.9824 32.9469 19.9829 32.917V32.91C19.9809 32.8813 19.9681 32.8545 19.9472 32.8348C19.9262 32.8152 19.8986 32.8042 19.8699 32.804ZM20.4319 32.804C20.4171 32.804 20.4025 32.8069 20.3889 32.8126C20.3753 32.8183 20.363 32.8267 20.3527 32.8372C20.3424 32.8477 20.3342 32.8602 20.3288 32.8739C20.3233 32.8876 20.3206 32.9022 20.3209 32.917C20.3209 32.979 20.3709 33.031 20.4319 33.031C20.4618 33.0302 20.4902 33.0179 20.5113 32.9967C20.5323 32.9755 20.5444 32.9469 20.5449 32.917V32.91C20.5429 32.8813 20.5301 32.8545 20.5092 32.8348C20.4882 32.8152 20.4606 32.8042 20.4319 32.804ZM20.9949 32.804C20.9801 32.8039 20.9654 32.8067 20.9516 32.8123C20.9379 32.818 20.9255 32.8263 20.915 32.8368C20.9046 32.8474 20.8964 32.8599 20.8909 32.8737C20.8853 32.8874 20.8826 32.9022 20.8829 32.917C20.8829 32.979 20.9329 33.031 20.9949 33.031C21.0248 33.0302 21.0532 33.0179 21.0743 32.9967C21.0953 32.9755 21.1074 32.9469 21.1079 32.917V32.91C21.1059 32.8813 21.0931 32.8545 21.0722 32.8348C21.0512 32.8152 21.0236 32.8042 20.9949 32.804ZM21.5549 32.804C21.5253 32.8045 21.497 32.8167 21.4763 32.8378C21.4555 32.8589 21.4439 32.8874 21.4439 32.917C21.4439 32.978 21.4939 33.03 21.5549 33.031C21.5851 33.031 21.6141 33.019 21.6355 32.9976C21.6569 32.9762 21.6689 32.9472 21.6689 32.917V32.91C21.6673 32.881 21.6546 32.8537 21.6333 32.834C21.612 32.8142 21.5839 32.8034 21.5549 32.804ZM22.1179 32.804C22.0881 32.8043 22.0596 32.8163 22.0386 32.8374C22.0177 32.8586 22.0059 32.8872 22.0059 32.917C22.0059 32.978 22.0559 33.03 22.1179 33.031C22.148 33.0307 22.1767 33.0186 22.1979 32.9972C22.219 32.9759 22.2309 32.9471 22.2309 32.917V32.91C22.2293 32.8812 22.2167 32.854 22.1957 32.8343C22.1746 32.8146 22.1468 32.8037 22.1179 32.804ZM22.6799 32.804C22.6652 32.804 22.6506 32.8069 22.6371 32.8126C22.6235 32.8184 22.6113 32.8267 22.601 32.8373C22.5908 32.8478 22.5827 32.8603 22.5774 32.874C22.572 32.8877 22.5695 32.9023 22.5699 32.917C22.5709 32.978 22.6189 33.03 22.6799 33.031C22.7101 33.031 22.7391 33.019 22.7605 32.9976C22.7819 32.9762 22.7939 32.9472 22.7939 32.917C22.7939 32.9021 22.7909 32.8873 22.7852 32.8735C22.7795 32.8597 22.771 32.8472 22.7604 32.8367C22.7498 32.8262 22.7373 32.8179 22.7234 32.8123C22.7096 32.8067 22.6948 32.8039 22.6799 32.804ZM24.3679 32.804C24.3531 32.8039 24.3384 32.8067 24.3246 32.8123C24.3109 32.818 24.2985 32.8263 24.288 32.8368C24.2776 32.8474 24.2694 32.8599 24.2639 32.8737C24.2583 32.8874 24.2556 32.9022 24.2559 32.917C24.2559 32.979 24.3059 33.031 24.3679 33.031C24.3978 33.0302 24.4262 33.0179 24.4473 32.9967C24.4683 32.9755 24.4804 32.9469 24.4809 32.917V32.91C24.4789 32.8813 24.4661 32.8545 24.4452 32.8348C24.4242 32.8152 24.3966 32.8042 24.3679 32.804ZM24.9299 32.804C24.8999 32.804 24.8712 32.8159 24.85 32.8371C24.8288 32.8583 24.8169 32.887 24.8169 32.917C24.8169 32.979 24.8679 33.031 24.9299 33.031C24.96 33.0305 24.9887 33.0183 25.0099 32.997C25.0312 32.9758 25.0434 32.9471 25.0439 32.917V32.91C25.0419 32.8812 25.029 32.8542 25.0078 32.8345C24.9866 32.8148 24.9588 32.8039 24.9299 32.804ZM25.4899 32.804C25.4604 32.8045 25.4322 32.8167 25.4116 32.8379C25.391 32.859 25.3796 32.8875 25.3799 32.917C25.3799 32.978 25.4299 33.03 25.4899 33.031C25.5201 33.031 25.5491 33.019 25.5705 32.9976C25.5919 32.9762 25.6039 32.9472 25.6039 32.917V32.91C25.6023 32.8812 25.5897 32.854 25.5687 32.8343C25.5476 32.8146 25.5198 32.8037 25.4909 32.804H25.4899ZM26.0529 32.804C26.0246 32.8066 25.9984 32.8198 25.9793 32.8407C25.9601 32.8617 25.9496 32.8891 25.9496 32.9175C25.9496 32.9459 25.9601 32.9732 25.9793 32.9942C25.9984 33.0152 26.0246 33.0283 26.0529 33.031C26.083 33.0307 26.1117 33.0186 26.1329 32.9972C26.154 32.9759 26.1659 32.9471 26.1659 32.917V32.91C26.1643 32.8812 26.1517 32.854 26.1307 32.8343C26.1096 32.8146 26.0818 32.8037 26.0529 32.804ZM26.6159 32.804C26.5876 32.8066 26.5614 32.8198 26.5423 32.8407C26.5231 32.8617 26.5126 32.8891 26.5126 32.9175C26.5126 32.9459 26.5231 32.9732 26.5423 32.9942C26.5614 33.0152 26.5876 33.0283 26.6159 33.031C26.6461 33.0307 26.6751 33.0187 26.6966 32.9974C26.7181 32.9761 26.7304 32.9472 26.7309 32.917V32.91C26.7289 32.881 26.7158 32.8539 26.6944 32.8342C26.6731 32.8145 26.645 32.8037 26.6159 32.804ZM27.1779 32.804C27.1632 32.8041 27.1486 32.8072 27.1351 32.8129C27.1216 32.8186 27.1093 32.827 27.099 32.8375C27.0887 32.848 27.0805 32.8604 27.075 32.8741C27.0695 32.8877 27.0668 32.9023 27.0669 32.917C27.0669 32.978 27.1169 33.03 27.1779 33.031C27.2083 33.031 27.2375 33.0191 27.2592 32.9977C27.2809 32.9764 27.2934 32.9474 27.2939 32.917C27.2938 32.9019 27.2907 32.8871 27.2847 32.8732C27.2788 32.8594 27.2702 32.8468 27.2594 32.8363C27.2487 32.8258 27.2359 32.8175 27.2219 32.812C27.2079 32.8064 27.1929 32.8037 27.1779 32.804ZM28.3029 32.804C28.2881 32.804 28.2735 32.8069 28.2599 32.8126C28.2463 32.8183 28.234 32.8267 28.2237 32.8372C28.2134 32.8477 28.2052 32.8602 28.1998 32.8739C28.1943 32.8876 28.1916 32.9022 28.1919 32.917C28.1919 32.979 28.2419 33.031 28.3029 33.031C28.3328 33.0302 28.3612 33.0179 28.3823 32.9967C28.4033 32.9755 28.4154 32.9469 28.4159 32.917V32.91C28.4139 32.8813 28.4011 32.8545 28.3802 32.8348C28.3592 32.8152 28.3316 32.8042 28.3029 32.804ZM28.8659 32.804C28.851 32.8039 28.8362 32.8067 28.8223 32.8123C28.8085 32.8179 28.7959 32.8262 28.7853 32.8367C28.7747 32.8472 28.7663 32.8597 28.7606 32.8735C28.7548 32.8873 28.7519 32.9021 28.7519 32.917C28.7519 32.979 28.8039 33.031 28.8659 33.031C28.8958 33.0302 28.9242 33.0179 28.9453 32.9967C28.9663 32.9755 28.9784 32.9469 28.9789 32.917V32.91C28.9769 32.8813 28.9641 32.8545 28.9432 32.8348C28.9222 32.8152 28.8946 32.8042 28.8659 32.804ZM29.4279 32.804C29.3979 32.804 29.3692 32.8159 29.348 32.8371C29.3268 32.8583 29.3149 32.887 29.3149 32.917C29.3149 32.979 29.3659 33.031 29.4279 33.031C29.4578 33.0302 29.4862 33.0179 29.5073 32.9967C29.5283 32.9755 29.5404 32.9469 29.5409 32.917V32.91C29.5389 32.8813 29.5261 32.8545 29.5052 32.8348C29.4842 32.8152 29.4566 32.8042 29.4279 32.804ZM29.9879 32.804C29.9584 32.8048 29.9305 32.817 29.9099 32.8381C29.8894 32.8592 29.8779 32.8875 29.8779 32.917C29.8779 32.978 29.9279 33.03 29.9879 33.031C30.0181 33.031 30.0471 33.019 30.0685 32.9976C30.0899 32.9762 30.1019 32.9472 30.1019 32.917V32.91C30.1003 32.8812 30.0877 32.854 30.0667 32.8343C30.0456 32.8146 30.0178 32.8037 29.9889 32.804H29.9879ZM30.5509 32.804C30.5213 32.8045 30.493 32.8167 30.4723 32.8378C30.4515 32.8589 30.4399 32.8874 30.4399 32.917C30.4399 32.978 30.4899 33.03 30.5509 33.031C30.5813 33.031 30.6105 33.0191 30.6322 32.9977C30.6539 32.9764 30.6664 32.9474 30.6669 32.917V32.91C30.6648 32.8808 30.6517 32.8535 30.6301 32.8338C30.6085 32.8141 30.5801 32.8034 30.5509 32.804ZM31.1139 32.804C31.0841 32.8043 31.0556 32.8163 31.0346 32.8374C31.0137 32.8586 31.0019 32.8872 31.0019 32.917C31.0019 32.978 31.0519 33.03 31.1139 33.031C31.1441 33.0307 31.1731 33.0187 31.1946 32.9974C31.2161 32.9761 31.2284 32.9472 31.2289 32.917V32.91C31.2269 32.881 31.2138 32.8539 31.1924 32.8342C31.1711 32.8145 31.143 32.8037 31.1139 32.804ZM32.8009 32.804C32.7709 32.804 32.7422 32.8159 32.721 32.8371C32.6998 32.8583 32.6879 32.887 32.6879 32.917C32.6879 32.979 32.7389 33.031 32.8009 33.031C32.8308 33.0302 32.8592 33.0179 32.8803 32.9967C32.9013 32.9755 32.9134 32.9469 32.9139 32.917V32.91C32.9119 32.8813 32.8991 32.8545 32.8782 32.8348C32.8572 32.8152 32.8296 32.8042 32.8009 32.804ZM33.3639 32.804C33.3339 32.804 33.3052 32.8159 33.284 32.8371C33.2628 32.8583 33.2509 32.887 33.2509 32.917C33.2509 32.979 33.3009 33.031 33.3639 33.031C33.3939 33.0305 33.4225 33.0183 33.4436 32.997C33.4647 32.9757 33.4766 32.947 33.4769 32.917V32.91C33.4749 32.8813 33.4621 32.8545 33.4412 32.8348C33.4202 32.8152 33.3926 32.8042 33.3639 32.804ZM33.9259 32.804C33.9111 32.804 33.8965 32.8069 33.8829 32.8126C33.8693 32.8183 33.857 32.8267 33.8467 32.8372C33.8363 32.8477 33.8282 32.8602 33.8228 32.8739C33.8173 32.8876 33.8146 32.9022 33.8149 32.917C33.8149 32.979 33.8649 33.031 33.9259 33.031C33.9559 33.0305 33.9845 33.0183 34.0056 32.997C34.0267 32.9757 34.0386 32.947 34.0389 32.917V32.91C34.0369 32.8813 34.0241 32.8545 34.0032 32.8348C33.9822 32.8152 33.9546 32.8042 33.9259 32.804ZM34.4859 32.804C34.4576 32.8066 34.4314 32.8198 34.4123 32.8407C34.3931 32.8617 34.3826 32.8891 34.3826 32.9175C34.3826 32.9459 34.3931 32.9732 34.4123 32.9942C34.4314 33.0152 34.4576 33.0283 34.4859 33.031C34.5161 33.031 34.5451 33.019 34.5665 32.9976C34.5879 32.9762 34.5999 32.9472 34.5999 32.917V32.91C34.5983 32.8812 34.5857 32.854 34.5647 32.8343C34.5436 32.8146 34.5158 32.8037 34.4869 32.804H34.4859ZM16.1029 35.3C15.8895 35.2947 15.6772 35.3321 15.4784 35.4101C15.2797 35.488 15.0986 35.605 14.9458 35.7541C14.7929 35.9031 14.6715 36.0813 14.5885 36.278C14.5056 36.4747 14.4629 36.686 14.4629 36.8995C14.4629 37.113 14.5056 37.3243 14.5885 37.521C14.6715 37.7177 14.7929 37.8959 14.9458 38.0449C15.0986 38.194 15.2797 38.3109 15.4784 38.3889C15.6772 38.4669 15.8895 38.5043 16.1029 38.499C16.5272 38.499 16.9342 38.3304 17.2343 38.0304C17.5343 37.7303 17.7029 37.3233 17.7029 36.899C17.7029 36.4746 17.5343 36.0677 17.2343 35.7676C16.9342 35.4676 16.5272 35.299 16.1029 35.299V35.3ZM20.1029 35.3C19.8895 35.2947 19.6772 35.3321 19.4784 35.4101C19.2797 35.488 19.0986 35.605 18.9458 35.7541C18.7929 35.9031 18.6715 36.0813 18.5885 36.278C18.5056 36.4747 18.4629 36.686 18.4629 36.8995C18.4629 37.113 18.5056 37.3243 18.5885 37.521C18.6715 37.7177 18.7929 37.8959 18.9458 38.0449C19.0986 38.194 19.2797 38.3109 19.4784 38.3889C19.6772 38.4669 19.8895 38.5043 20.1029 38.499C20.5272 38.499 20.9342 38.3304 21.2343 38.0304C21.5343 37.7303 21.7029 37.3233 21.7029 36.899C21.7029 36.4746 21.5343 36.0677 21.2343 35.7676C20.9342 35.4676 20.5272 35.299 20.1029 35.299V35.3ZM24.1029 35.3C23.8895 35.2947 23.6772 35.3321 23.4784 35.4101C23.2797 35.488 23.0986 35.605 22.9458 35.7541C22.7929 35.9031 22.6715 36.0813 22.5885 36.278C22.5056 36.4747 22.4629 36.686 22.4629 36.8995C22.4629 37.113 22.5056 37.3243 22.5885 37.521C22.6715 37.7177 22.7929 37.8959 22.9458 38.0449C23.0986 38.194 23.2797 38.3109 23.4784 38.3889C23.6772 38.4669 23.8895 38.5043 24.1029 38.499C24.5272 38.499 24.9342 38.3304 25.2343 38.0304C25.5343 37.7303 25.7029 37.3233 25.7029 36.899C25.7029 36.4746 25.5343 36.0677 25.2343 35.7676C24.9342 35.4676 24.5272 35.299 24.1029 35.299V35.3ZM28.1029 35.3C27.8895 35.2947 27.6772 35.3321 27.4784 35.4101C27.2797 35.488 27.0986 35.605 26.9458 35.7541C26.7929 35.9031 26.6715 36.0813 26.5885 36.278C26.5056 36.4747 26.4629 36.686 26.4629 36.8995C26.4629 37.113 26.5056 37.3243 26.5885 37.521C26.6715 37.7177 26.7929 37.8959 26.9458 38.0449C27.0986 38.194 27.2797 38.3109 27.4784 38.3889C27.6772 38.4669 27.8895 38.5043 28.1029 38.499C28.5272 38.499 28.9342 38.3304 29.2343 38.0304C29.5343 37.7303 29.7029 37.3233 29.7029 36.899C29.7029 36.4746 29.5343 36.0677 29.2343 35.7676C28.9342 35.4676 28.5272 35.299 28.1029 35.299V35.3ZM32.1029 35.3C31.8895 35.2947 31.6772 35.3321 31.4784 35.4101C31.2797 35.488 31.0986 35.605 30.9458 35.7541C30.7929 35.9031 30.6715 36.0813 30.5885 36.278C30.5056 36.4747 30.4629 36.686 30.4629 36.8995C30.4629 37.113 30.5056 37.3243 30.5885 37.521C30.6715 37.7177 30.7929 37.8959 30.9458 38.0449C31.0986 38.194 31.2797 38.3109 31.4784 38.3889C31.6772 38.4669 31.8895 38.5043 32.1029 38.499C32.5272 38.499 32.9342 38.3304 33.2343 38.0304C33.5343 37.7303 33.7029 37.3233 33.7029 36.899C33.7029 36.4746 33.5343 36.0677 33.2343 35.7676C32.9342 35.4676 32.5272 35.299 32.1029 35.299V35.3Z" fill="#333333"/>
</g>
<defs>
<clipPath id="clip0">
<rect width="48" height="48" fill="white"/>
</clipPath>
</defs>
</svg>
