<svg width="48" height="48" viewBox="0 0 48 48" fill="none" xmlns="http://www.w3.org/2000/svg">
<path d="M14.3461 4.09377C13.4761 4.09377 12.7771 4.79277 12.7771 5.66177V42.5228C12.7771 43.3928 13.4771 44.0928 14.3461 44.0928H34.0501C34.9201 44.0928 35.6181 43.3928 35.6181 42.5228V5.66277C35.6181 4.79277 34.9191 4.09277 34.0501 4.09277H14.3461V4.09377ZM14.7761 4.59377H33.6161C34.4461 4.59377 35.1171 5.27677 35.1171 6.12477V42.0648C35.1171 42.9118 34.4471 43.5938 33.6151 43.5938H14.7751C13.9451 43.5938 13.2751 42.9118 13.2751 42.0638V6.12477C13.2751 5.27677 13.9451 4.59377 14.7751 4.59377H14.7761ZM15.1561 9.43877C14.946 9.43877 14.7379 9.48016 14.5438 9.56057C14.3497 9.64097 14.1733 9.75883 14.0247 9.9074C13.8762 10.056 13.7583 10.2324 13.6779 10.4265C13.5975 10.6206 13.5561 10.8287 13.5561 11.0388C13.5561 11.2489 13.5975 11.4569 13.6779 11.6511C13.7583 11.8452 13.8762 12.0216 14.0247 12.1701C14.1733 12.3187 14.3497 12.4366 14.5438 12.517C14.7379 12.5974 14.946 12.6388 15.1561 12.6388C15.5804 12.6388 15.9874 12.4702 16.2875 12.1701C16.5875 11.8701 16.7561 11.4631 16.7561 11.0388C16.7561 10.6144 16.5875 10.2075 16.2875 9.9074C15.9874 9.60734 15.5804 9.43877 15.1561 9.43877ZM18.7791 9.43877C18.569 9.43877 18.3609 9.48016 18.1668 9.56057C17.9727 9.64097 17.7963 9.75883 17.6477 9.9074C17.4992 10.056 17.3813 10.2324 17.3009 10.4265C17.2205 10.6206 17.1791 10.8287 17.1791 11.0388C17.1791 11.2489 17.2205 11.4569 17.3009 11.6511C17.3813 11.8452 17.4992 12.0216 17.6477 12.1701C17.7963 12.3187 17.9727 12.4366 18.1668 12.517C18.3609 12.5974 18.569 12.6388 18.7791 12.6388C19.2034 12.6388 19.6104 12.4702 19.9105 12.1701C20.2105 11.8701 20.3791 11.4631 20.3791 11.0388C20.3791 10.6144 20.2105 10.2075 19.9105 9.9074C19.6104 9.60734 19.2034 9.43877 18.7791 9.43877ZM22.4041 9.43877C22.194 9.43877 21.9859 9.48016 21.7918 9.56057C21.5977 9.64097 21.4213 9.75883 21.2727 9.9074C21.1242 10.056 21.0063 10.2324 20.9259 10.4265C20.8455 10.6206 20.8041 10.8287 20.8041 11.0388C20.8041 11.2489 20.8455 11.4569 20.9259 11.6511C21.0063 11.8452 21.1242 12.0216 21.2727 12.1701C21.4213 12.3187 21.5977 12.4366 21.7918 12.517C21.9859 12.5974 22.194 12.6388 22.4041 12.6388C22.8284 12.6388 23.2354 12.4702 23.5355 12.1701C23.8355 11.8701 24.0041 11.4631 24.0041 11.0388C24.0041 10.6144 23.8355 10.2075 23.5355 9.9074C23.2354 9.60734 22.8284 9.43877 22.4041 9.43877ZM26.0271 9.43877C25.817 9.43877 25.6089 9.48016 25.4148 9.56057C25.2207 9.64097 25.0443 9.75883 24.8957 9.9074C24.7472 10.056 24.6293 10.2324 24.5489 10.4265C24.4685 10.6206 24.4271 10.8287 24.4271 11.0388C24.4271 11.2489 24.4685 11.4569 24.5489 11.6511C24.6293 11.8452 24.7472 12.0216 24.8957 12.1701C25.0443 12.3187 25.2207 12.4366 25.4148 12.517C25.6089 12.5974 25.817 12.6388 26.0271 12.6388C26.4514 12.6388 26.8584 12.4702 27.1585 12.1701C27.4585 11.8701 27.6271 11.4631 27.6271 11.0388C27.6271 10.6144 27.4585 10.2075 27.1585 9.9074C26.8584 9.60734 26.4514 9.43877 26.0271 9.43877ZM29.6501 9.43877C29.44 9.43877 29.2319 9.48016 29.0378 9.56057C28.8437 9.64097 28.6673 9.75883 28.5187 9.9074C28.3702 10.056 28.2523 10.2324 28.1719 10.4265C28.0915 10.6206 28.0501 10.8287 28.0501 11.0388C28.0501 11.2489 28.0915 11.4569 28.1719 11.6511C28.2523 11.8452 28.3702 12.0216 28.5187 12.1701C28.6673 12.3187 28.8437 12.4366 29.0378 12.517C29.2319 12.5974 29.44 12.6388 29.6501 12.6388C30.0744 12.6388 30.4814 12.4702 30.7815 12.1701C31.0815 11.8701 31.2501 11.4631 31.2501 11.0388C31.2501 10.6144 31.0815 10.2075 30.7815 9.9074C30.4814 9.60734 30.0744 9.43877 29.6501 9.43877ZM33.2751 9.43877C33.065 9.43877 32.8569 9.48016 32.6628 9.56057C32.4687 9.64097 32.2923 9.75883 32.1437 9.9074C31.9952 10.056 31.8773 10.2324 31.7969 10.4265C31.7165 10.6206 31.6751 10.8287 31.6751 11.0388C31.6751 11.2489 31.7165 11.4569 31.7969 11.6511C31.8773 11.8452 31.9952 12.0216 32.1437 12.1701C32.2923 12.3187 32.4687 12.4366 32.6628 12.517C32.8569 12.5974 33.065 12.6388 33.2751 12.6388C33.6994 12.6388 34.1064 12.4702 34.4065 12.1701C34.7065 11.8701 34.8751 11.4631 34.8751 11.0388C34.8751 10.6144 34.7065 10.2075 34.4065 9.9074C34.1064 9.60734 33.6994 9.43877 33.2751 9.43877ZM15.1561 9.89977C15.3055 9.89958 15.4534 9.9288 15.5915 9.98579C15.7296 10.0428 15.8551 10.1264 15.9609 10.2319C16.0666 10.3374 16.1506 10.4627 16.2079 10.6006C16.2653 10.7385 16.2949 10.8864 16.2951 11.0358C16.2953 11.1852 16.2661 11.3331 16.2091 11.4712C16.1521 11.6093 16.0685 11.7348 15.963 11.8405C15.8575 11.9463 15.7322 12.0303 15.5943 12.0876C15.4564 12.145 15.3085 12.1746 15.1591 12.1748C14.8574 12.1752 14.5679 12.0557 14.3543 11.8427C14.1407 11.6296 14.0205 11.3405 14.0201 11.0388C14.0197 10.7371 14.1392 10.4476 14.3522 10.234C14.5652 10.0204 14.8544 9.90017 15.1561 9.89977ZM18.7791 9.89977C18.9285 9.89958 19.0764 9.9288 19.2145 9.98579C19.3526 10.0428 19.4781 10.1264 19.5839 10.2319C19.6896 10.3374 19.7736 10.4627 19.8309 10.6006C19.8883 10.7385 19.9179 10.8864 19.9181 11.0358C19.9183 11.1852 19.8891 11.3331 19.8321 11.4712C19.7751 11.6093 19.6915 11.7348 19.586 11.8405C19.4805 11.9463 19.3552 12.0303 19.2173 12.0876C19.0794 12.145 18.9315 12.1746 18.7821 12.1748C18.4804 12.1752 18.1909 12.0557 17.9773 11.8427C17.7637 11.6296 17.6435 11.3405 17.6431 11.0388C17.6427 10.7371 17.7622 10.4476 17.9752 10.234C18.1882 10.0204 18.4774 9.90017 18.7791 9.89977ZM22.4041 9.89977C22.5535 9.89958 22.7014 9.9288 22.8395 9.98579C22.9776 10.0428 23.1031 10.1264 23.2089 10.2319C23.3146 10.3374 23.3986 10.4627 23.4559 10.6006C23.5133 10.7385 23.5429 10.8864 23.5431 11.0358C23.5433 11.1852 23.5141 11.3331 23.4571 11.4712C23.4001 11.6093 23.3165 11.7348 23.211 11.8405C23.1055 11.9463 22.9802 12.0303 22.8423 12.0876C22.7044 12.145 22.5565 12.1746 22.4071 12.1748C22.1054 12.1752 21.8159 12.0557 21.6023 11.8427C21.3887 11.6296 21.2685 11.3405 21.2681 11.0388C21.2677 10.7371 21.3872 10.4476 21.6002 10.234C21.8132 10.0204 22.1024 9.90017 22.4041 9.89977ZM26.0271 9.89977C26.1765 9.89958 26.3244 9.9288 26.4625 9.98579C26.6006 10.0428 26.7261 10.1264 26.8319 10.2319C26.9376 10.3374 27.0216 10.4627 27.0789 10.6006C27.1363 10.7385 27.1659 10.8864 27.1661 11.0358C27.1663 11.1852 27.1371 11.3331 27.0801 11.4712C27.0231 11.6093 26.9395 11.7348 26.834 11.8405C26.7285 11.9463 26.6032 12.0303 26.4653 12.0876C26.3274 12.145 26.1795 12.1746 26.0301 12.1748C25.7284 12.1752 25.4389 12.0557 25.2253 11.8427C25.0117 11.6296 24.8915 11.3405 24.8911 11.0388C24.8907 10.7371 25.0102 10.4476 25.2232 10.234C25.4362 10.0204 25.7254 9.90017 26.0271 9.89977ZM29.6501 9.89977C29.7995 9.89958 29.9474 9.9288 30.0855 9.98579C30.2236 10.0428 30.3491 10.1264 30.4549 10.2319C30.5606 10.3374 30.6446 10.4627 30.7019 10.6006C30.7593 10.7385 30.7889 10.8864 30.7891 11.0358C30.7893 11.1852 30.7601 11.3331 30.7031 11.4712C30.6461 11.6093 30.5625 11.7348 30.457 11.8405C30.3515 11.9463 30.2262 12.0303 30.0883 12.0876C29.9504 12.145 29.8025 12.1746 29.6531 12.1748C29.3514 12.1752 29.0619 12.0557 28.8483 11.8427C28.6347 11.6296 28.5145 11.3405 28.5141 11.0388C28.5137 10.7371 28.6332 10.4476 28.8462 10.234C29.0592 10.0204 29.3484 9.90017 29.6501 9.89977ZM33.2751 9.89977C33.4245 9.89958 33.5724 9.9288 33.7105 9.98579C33.8486 10.0428 33.9741 10.1264 34.0799 10.2319C34.1856 10.3374 34.2696 10.4627 34.3269 10.6006C34.3843 10.7385 34.4139 10.8864 34.4141 11.0358C34.4143 11.1852 34.3851 11.3331 34.3281 11.4712C34.2711 11.6093 34.1875 11.7348 34.082 11.8405C33.9765 11.9463 33.8512 12.0303 33.7133 12.0876C33.5754 12.145 33.4275 12.1746 33.2781 12.1748C32.9764 12.1752 32.6869 12.0557 32.4733 11.8427C32.2597 11.6296 32.1395 11.3405 32.1391 11.0388C32.1387 10.7371 32.2582 10.4476 32.4712 10.234C32.6842 10.0204 32.9734 9.90017 33.2751 9.89977ZM13.7951 14.9798C13.7803 14.9799 13.7657 14.983 13.7521 14.9888C13.7385 14.9946 13.7262 15.003 13.7158 15.0136C13.7055 15.0242 13.6974 15.0368 13.6919 15.0505C13.6865 15.0643 13.6838 15.079 13.6841 15.0938C13.6841 15.1548 13.7341 15.2058 13.7941 15.2068C13.8571 15.2068 13.9071 15.1568 13.9081 15.0938C13.9084 15.0788 13.9056 15.064 13.9001 15.0501C13.8945 15.0362 13.8862 15.0235 13.8757 15.0129C13.8651 15.0023 13.8526 14.9939 13.8387 14.9882C13.8249 14.9825 13.8101 14.9796 13.7951 14.9798ZM14.3571 14.9798C14.327 14.98 14.2983 14.9922 14.2771 15.0135C14.256 15.0349 14.2441 15.0637 14.2441 15.0938C14.2441 15.1548 14.2961 15.2068 14.3571 15.2068C14.4191 15.2068 14.4681 15.1548 14.4691 15.0938V15.0738C14.4652 15.0471 14.4516 15.0228 14.431 15.0055C14.4103 14.9881 14.384 14.979 14.3571 14.9798ZM14.9201 14.9798C14.9051 14.9796 14.8903 14.9825 14.8765 14.9882C14.8626 14.9939 14.8501 15.0023 14.8395 15.0129C14.829 15.0235 14.8207 15.0362 14.8151 15.0501C14.8096 15.064 14.8068 15.0788 14.8071 15.0938C14.8071 15.1558 14.8571 15.2078 14.9201 15.2068C14.9811 15.2068 15.0301 15.1548 15.0311 15.0938V15.0738C15.0272 15.0473 15.0138 15.0231 14.9934 15.0058C14.9729 14.9885 14.9469 14.9792 14.9201 14.9798ZM15.4821 14.9798C15.4671 14.9796 15.4523 14.9825 15.4385 14.9882C15.4246 14.9939 15.4121 15.0023 15.4015 15.0129C15.391 15.0235 15.3827 15.0362 15.3771 15.0501C15.3716 15.064 15.3688 15.0788 15.3691 15.0938C15.3691 15.1558 15.4201 15.2078 15.4821 15.2068C15.5441 15.2068 15.5931 15.1548 15.5941 15.0938V15.0858C15.5926 15.0571 15.5801 15.0302 15.5592 15.0104C15.5384 14.9907 15.5108 14.9797 15.4821 14.9798ZM16.0451 14.9798C16.0301 14.9796 16.0153 14.9825 16.0015 14.9882C15.9876 14.9939 15.9751 15.0023 15.9645 15.0129C15.954 15.0235 15.9457 15.0362 15.9401 15.0501C15.9346 15.064 15.9318 15.0788 15.9321 15.0938C15.9321 15.1558 15.9821 15.2078 16.0451 15.2068C16.1061 15.2068 16.1551 15.1548 16.1561 15.0938V15.0858C16.1546 15.0573 16.1422 15.0305 16.1216 15.0108C16.101 14.9911 16.0736 14.98 16.0451 14.9798ZM16.6071 14.9798C16.5921 14.9796 16.5773 14.9825 16.5635 14.9882C16.5496 14.9939 16.5371 15.0023 16.5265 15.0129C16.516 15.0235 16.5077 15.0362 16.5021 15.0501C16.4966 15.064 16.4938 15.0788 16.4941 15.0938C16.4941 15.1558 16.5451 15.2078 16.6071 15.2068C16.6691 15.2068 16.7181 15.1548 16.7191 15.0938V15.0858C16.7176 15.0571 16.7051 15.0302 16.6842 15.0104C16.6634 14.9907 16.6358 14.9797 16.6071 14.9798ZM17.1681 14.9798C17.1533 14.9799 17.1387 14.983 17.1251 14.9888C17.1115 14.9946 17.0992 15.003 17.0888 15.0136C17.0785 15.0242 17.0704 15.0368 17.065 15.0505C17.0595 15.0643 17.0568 15.079 17.0571 15.0938C17.0571 15.1548 17.1071 15.2068 17.1681 15.2068C17.198 15.2065 17.2266 15.1945 17.2477 15.1734C17.2688 15.1523 17.2808 15.1237 17.2811 15.0938V15.0858C17.2796 15.0569 17.2669 15.0298 17.2459 15.0101C17.2248 14.9903 17.197 14.9795 17.1681 14.9798ZM17.7311 14.9798C17.7162 14.9798 17.7015 14.9827 17.6878 14.9885C17.6741 14.9942 17.6616 15.0027 17.6512 15.0133C17.6408 15.0239 17.6326 15.0365 17.627 15.0503C17.6215 15.0641 17.6188 15.0789 17.6191 15.0938C17.6191 15.1548 17.6691 15.2068 17.7301 15.2068C17.7602 15.2068 17.789 15.1949 17.8104 15.1737C17.8317 15.1526 17.8438 15.1238 17.8441 15.0938V15.0858C17.8425 15.0568 17.8298 15.0295 17.8085 15.0097C17.7873 14.99 17.7591 14.9792 17.7301 14.9798H17.7311ZM18.2931 14.9798C18.2783 14.9799 18.2637 14.983 18.2501 14.9888C18.2365 14.9946 18.2242 15.003 18.2138 15.0136C18.2035 15.0242 18.1954 15.0368 18.19 15.0505C18.1845 15.0643 18.1818 15.079 18.1821 15.0938C18.1821 15.1548 18.2321 15.2068 18.2931 15.2068C18.323 15.2065 18.3516 15.1945 18.3727 15.1734C18.3938 15.1523 18.4058 15.1237 18.4061 15.0938V15.0858C18.4046 15.0569 18.3919 15.0298 18.3709 15.0101C18.3498 14.9903 18.322 14.9795 18.2931 14.9798ZM18.8561 14.9798C18.8412 14.9798 18.8265 14.9827 18.8128 14.9885C18.7991 14.9942 18.7866 15.0027 18.7762 15.0133C18.7658 15.0239 18.7576 15.0365 18.752 15.0503C18.7465 15.0641 18.7438 15.0789 18.7441 15.0938C18.7441 15.1548 18.7941 15.2068 18.8551 15.2068C18.9171 15.2068 18.9661 15.1548 18.9671 15.0938V15.0738C18.9632 15.0473 18.9498 15.0231 18.9294 15.0058C18.9089 14.9885 18.8829 14.9792 18.8561 14.9798ZM19.4181 14.9798C19.4031 14.9796 19.3883 14.9825 19.3745 14.9882C19.3606 14.9939 19.3481 15.0023 19.3375 15.0129C19.327 15.0235 19.3187 15.0362 19.3131 15.0501C19.3076 15.064 19.3048 15.0788 19.3051 15.0938C19.3051 15.1558 19.3561 15.2078 19.4181 15.2068C19.4791 15.2068 19.5281 15.1548 19.5291 15.0938V15.0858C19.5276 15.0573 19.5152 15.0305 19.4946 15.0108C19.474 14.9911 19.4466 14.98 19.4181 14.9798ZM19.9811 14.9798C19.9661 14.9795 19.9511 14.9823 19.9372 14.9879C19.9232 14.9935 19.9105 15.0019 19.8999 15.0126C19.8892 15.0232 19.8809 15.0359 19.8752 15.0498C19.8696 15.0638 19.8668 15.0787 19.8671 15.0938C19.8671 15.1558 19.9191 15.2078 19.9801 15.2068C20.0421 15.2068 20.0911 15.1548 20.0921 15.0938V15.0858C20.0906 15.0573 20.0782 15.0305 20.0576 15.0108C20.037 14.9911 20.0096 14.98 19.9811 14.9798ZM20.5431 14.9798C20.5281 14.9796 20.5133 14.9825 20.4995 14.9882C20.4856 14.9939 20.4731 15.0023 20.4625 15.0129C20.452 15.0235 20.4437 15.0362 20.4381 15.0501C20.4326 15.064 20.4298 15.0788 20.4301 15.0938C20.4301 15.1558 20.4811 15.2078 20.5431 15.2068C20.6041 15.2068 20.6531 15.1548 20.6541 15.0938V15.0858C20.6526 15.0573 20.6402 15.0305 20.6196 15.0108C20.599 14.9911 20.5716 14.98 20.5431 14.9798ZM21.1061 14.9798C21.0911 14.9795 21.0761 14.9823 21.0622 14.9879C21.0482 14.9935 21.0355 15.0019 21.0249 15.0126C21.0142 15.0232 21.0059 15.0359 21.0002 15.0498C20.9946 15.0638 20.9918 15.0787 20.9921 15.0938C20.9921 15.1558 21.0441 15.2078 21.1051 15.2068C21.1671 15.2068 21.2161 15.1548 21.2171 15.0938V15.0858C21.2156 15.0573 21.2032 15.0305 21.1826 15.0108C21.162 14.9911 21.1346 14.98 21.1061 14.9798ZM21.6661 14.9798C21.6513 14.9799 21.6367 14.983 21.6231 14.9888C21.6095 14.9946 21.5972 15.003 21.5868 15.0136C21.5765 15.0242 21.5684 15.0368 21.563 15.0505C21.5575 15.0643 21.5548 15.079 21.5551 15.0938C21.5551 15.1548 21.6051 15.2068 21.6661 15.2068C21.696 15.2065 21.7246 15.1945 21.7457 15.1734C21.7668 15.1523 21.7788 15.1237 21.7791 15.0938V15.0858C21.7776 15.0569 21.7649 15.0298 21.7439 15.0101C21.7228 14.9903 21.695 14.9795 21.6661 14.9798ZM22.2291 14.9798C22.2142 14.9798 22.1995 14.9827 22.1858 14.9885C22.1721 14.9942 22.1596 15.0027 22.1492 15.0133C22.1388 15.0239 22.1306 15.0365 22.125 15.0503C22.1195 15.0641 22.1168 15.0789 22.1171 15.0938C22.1171 15.1548 22.1671 15.2068 22.2281 15.2068C22.2582 15.2068 22.287 15.1949 22.3084 15.1737C22.3297 15.1526 22.3418 15.1238 22.3421 15.0938V15.0858C22.3406 15.0569 22.3279 15.0298 22.3069 15.0101C22.2858 14.9903 22.258 14.9795 22.2291 14.9798ZM22.7911 14.9798C22.7763 14.9799 22.7617 14.983 22.7481 14.9888C22.7345 14.9946 22.7222 15.003 22.7118 15.0136C22.7015 15.0242 22.6934 15.0368 22.688 15.0505C22.6825 15.0643 22.6798 15.079 22.6801 15.0938C22.6801 15.1548 22.7301 15.2058 22.7911 15.2068C22.8531 15.2068 22.9041 15.1568 22.9041 15.0938C22.9044 15.0788 22.9016 15.064 22.8961 15.0501C22.8905 15.0362 22.8822 15.0235 22.8717 15.0129C22.8611 15.0023 22.8486 14.9939 22.8347 14.9882C22.8209 14.9825 22.8061 14.9796 22.7911 14.9798ZM23.3541 14.9798C23.3392 14.9798 23.3245 14.9827 23.3108 14.9885C23.2971 14.9942 23.2846 15.0027 23.2742 15.0133C23.2638 15.0239 23.2556 15.0365 23.25 15.0503C23.2445 15.0641 23.2418 15.0789 23.2421 15.0938C23.2421 15.1548 23.2921 15.2068 23.3531 15.2068C23.3828 15.2063 23.4112 15.1941 23.4321 15.173C23.453 15.1519 23.4648 15.1235 23.4651 15.0938V15.0738C23.461 15.0474 23.4475 15.0233 23.4271 15.0061C23.4068 14.9888 23.3808 14.9795 23.3541 14.9798ZM23.9161 14.9798C23.9011 14.9796 23.8863 14.9825 23.8725 14.9882C23.8586 14.9939 23.8461 15.0023 23.8355 15.0129C23.825 15.0235 23.8167 15.0362 23.8111 15.0501C23.8056 15.064 23.8028 15.0788 23.8031 15.0938C23.8031 15.1558 23.8541 15.2078 23.9161 15.2068C23.9771 15.2068 24.0261 15.1548 24.0271 15.0938V15.0738C24.0232 15.0473 24.0098 15.0231 23.9894 15.0058C23.9689 14.9885 23.9429 14.9792 23.9161 14.9798ZM24.4791 14.9798C24.4641 14.9795 24.4491 14.9823 24.4352 14.9879C24.4212 14.9935 24.4085 15.0019 24.3979 15.0126C24.3872 15.0232 24.3789 15.0359 24.3732 15.0498C24.3676 15.0638 24.3648 15.0787 24.3651 15.0938C24.3651 15.1558 24.4171 15.2078 24.4791 15.2068C24.5391 15.2068 24.5891 15.1548 24.5891 15.0938V15.0858C24.5876 15.0575 24.5754 15.0308 24.555 15.0111C24.5346 14.9914 24.5074 14.9802 24.4791 14.9798ZM25.0411 14.9798C25.0261 14.9796 25.0113 14.9825 24.9975 14.9882C24.9836 14.9939 24.9711 15.0023 24.9605 15.0129C24.95 15.0235 24.9417 15.0362 24.9361 15.0501C24.9306 15.064 24.9278 15.0788 24.9281 15.0938C24.9281 15.1558 24.9791 15.2078 25.0411 15.2068C25.1021 15.2068 25.1511 15.1548 25.1521 15.0938V15.0858C25.1506 15.0573 25.1382 15.0305 25.1176 15.0108C25.097 14.9911 25.0696 14.98 25.0411 14.9798ZM25.6011 14.9798C25.5864 14.98 25.5719 14.9832 25.5584 14.9891C25.5449 14.9949 25.5327 15.0034 25.5225 15.014C25.5123 15.0246 25.5042 15.0371 25.4989 15.0508C25.4935 15.0644 25.4908 15.0791 25.4911 15.0938C25.4911 15.1548 25.5411 15.2068 25.6011 15.2068C25.6312 15.2068 25.66 15.1949 25.6814 15.1737C25.7027 15.1526 25.7148 15.1238 25.7151 15.0938V15.0858C25.7136 15.0569 25.7009 15.0298 25.6799 15.0101C25.6588 14.9903 25.631 14.9795 25.6021 14.9798H25.6011ZM26.1641 14.9798C26.1493 14.9799 26.1347 14.983 26.1211 14.9888C26.1075 14.9946 26.0952 15.003 26.0848 15.0136C26.0745 15.0242 26.0664 15.0368 26.0609 15.0505C26.0555 15.0643 26.0528 15.079 26.0531 15.0938C26.0531 15.1548 26.1031 15.2068 26.1641 15.2068C26.194 15.2065 26.2226 15.1945 26.2437 15.1734C26.2648 15.1523 26.2768 15.1237 26.2771 15.0938V15.0858C26.2756 15.0569 26.2629 15.0298 26.2419 15.0101C26.2208 14.9903 26.193 14.9795 26.1641 14.9798ZM26.7271 14.9798C26.7122 14.9798 26.6975 14.9827 26.6838 14.9885C26.6701 14.9942 26.6576 15.0027 26.6472 15.0133C26.6368 15.0239 26.6286 15.0365 26.623 15.0503C26.6175 15.0641 26.6148 15.0789 26.6151 15.0938C26.6151 15.1548 26.6651 15.2068 26.7271 15.2068C26.757 15.2065 26.7856 15.1945 26.8067 15.1734C26.8278 15.1523 26.8398 15.1237 26.8401 15.0938V15.0858C26.8386 15.0569 26.8259 15.0298 26.8049 15.0101C26.7838 14.9903 26.756 14.9795 26.7271 14.9798ZM27.2891 14.9798C27.2743 14.9799 27.2597 14.983 27.2461 14.9888C27.2325 14.9946 27.2202 15.003 27.2098 15.0136C27.1995 15.0242 27.1914 15.0368 27.1859 15.0505C27.1805 15.0643 27.1778 15.079 27.1781 15.0938C27.1781 15.1548 27.2281 15.2058 27.2891 15.2068C27.3511 15.2068 27.4021 15.1568 27.4021 15.0938C27.4024 15.0788 27.3996 15.064 27.3941 15.0501C27.3885 15.0362 27.3802 15.0235 27.3697 15.0129C27.3591 15.0023 27.3466 14.9939 27.3327 14.9882C27.3189 14.9825 27.3041 14.9796 27.2891 14.9798ZM27.8521 14.9798C27.8372 14.9798 27.8225 14.9827 27.8088 14.9885C27.7951 14.9942 27.7826 15.0027 27.7722 15.0133C27.7618 15.0239 27.7536 15.0365 27.748 15.0503C27.7425 15.0641 27.7398 15.0789 27.7401 15.0938C27.7401 15.1548 27.7901 15.2068 27.8521 15.2068C27.9121 15.2068 27.9621 15.1548 27.9621 15.0938C27.9641 15.0858 27.9641 15.0818 27.9621 15.0738C27.9582 15.0475 27.945 15.0234 27.9247 15.0061C27.9045 14.9889 27.8787 14.9795 27.8521 14.9798ZM28.4141 14.9798C28.3991 14.9796 28.3843 14.9825 28.3705 14.9882C28.3566 14.9939 28.3441 15.0023 28.3335 15.0129C28.323 15.0235 28.3147 15.0362 28.3091 15.0501C28.3036 15.064 28.3008 15.0788 28.3011 15.0938C28.3011 15.1558 28.3521 15.2078 28.4141 15.2068C28.4751 15.2068 28.5241 15.1548 28.5251 15.0938V15.0858C28.5236 15.0575 28.5114 15.0308 28.491 15.0111C28.4706 14.9914 28.4434 14.9802 28.4151 14.9798H28.4141ZM28.9771 14.9798C28.9621 14.9795 28.9471 14.9823 28.9332 14.9879C28.9192 14.9935 28.9065 15.0019 28.8959 15.0126C28.8852 15.0232 28.8769 15.0359 28.8712 15.0498C28.8656 15.0638 28.8628 15.0787 28.8631 15.0938C28.8631 15.1558 28.9151 15.2078 28.9771 15.2068C29.0371 15.2068 29.0871 15.1548 29.0871 15.0938V15.0858C29.0856 15.0575 29.0734 15.0308 29.053 15.0111C29.0326 14.9914 29.0054 14.9802 28.9771 14.9798ZM29.5391 14.9798C29.5241 14.9796 29.5093 14.9825 29.4955 14.9882C29.4816 14.9939 29.4691 15.0023 29.4585 15.0129C29.448 15.0235 29.4397 15.0362 29.4341 15.0501C29.4286 15.064 29.4258 15.0788 29.4261 15.0938C29.4261 15.1558 29.4771 15.2078 29.5391 15.2068C29.6001 15.2068 29.6491 15.1548 29.6501 15.0938V15.0858C29.6486 15.0575 29.6364 15.0308 29.616 15.0111C29.5956 14.9914 29.5684 14.9802 29.5401 14.9798H29.5391ZM30.0991 14.9798C30.0844 14.98 30.0699 14.9832 30.0564 14.9891C30.0429 14.9949 30.0307 15.0034 30.0205 15.014C30.0103 15.0246 30.0022 15.0371 29.9969 15.0508C29.9915 15.0644 29.9888 15.0791 29.9891 15.0938C29.9891 15.1548 30.0381 15.2068 30.0991 15.2068C30.1292 15.2068 30.158 15.1949 30.1794 15.1737C30.2007 15.1526 30.2128 15.1238 30.2131 15.0938V15.0858C30.2116 15.0569 30.1989 15.0298 30.1779 15.0101C30.1568 14.9903 30.129 14.9795 30.1001 14.9798H30.0991ZM30.6621 14.9798C30.6473 14.9799 30.6327 14.983 30.6191 14.9888C30.6055 14.9946 30.5932 15.003 30.5828 15.0136C30.5725 15.0242 30.5644 15.0368 30.559 15.0505C30.5535 15.0643 30.5508 15.079 30.5511 15.0938C30.5511 15.1548 30.6011 15.2068 30.6621 15.2068C30.692 15.2065 30.7206 15.1945 30.7417 15.1734C30.7628 15.1523 30.7748 15.1237 30.7751 15.0938V15.0858C30.7736 15.0569 30.7609 15.0298 30.7399 15.0101C30.7188 14.9903 30.691 14.9795 30.6621 14.9798ZM31.2251 14.9798C31.2102 14.9798 31.1955 14.9827 31.1818 14.9885C31.1681 14.9942 31.1556 15.0027 31.1452 15.0133C31.1348 15.0239 31.1266 15.0365 31.121 15.0503C31.1155 15.0641 31.1128 15.0789 31.1131 15.0938C31.1131 15.1548 31.1631 15.2068 31.2251 15.2068C31.255 15.2065 31.2836 15.1945 31.3047 15.1734C31.3258 15.1523 31.3378 15.1237 31.3381 15.0938V15.0858C31.3366 15.0569 31.3239 15.0298 31.3029 15.0101C31.2818 14.9903 31.254 14.9795 31.2251 14.9798ZM31.7871 14.9798C31.7723 14.9799 31.7577 14.983 31.7441 14.9888C31.7305 14.9946 31.7182 15.003 31.7078 15.0136C31.6975 15.0242 31.6894 15.0368 31.684 15.0505C31.6785 15.0643 31.6758 15.079 31.6761 15.0938C31.6761 15.1548 31.7261 15.2068 31.7871 15.2068C31.8481 15.2068 31.8971 15.1548 31.8981 15.0938V15.0738C31.8942 15.0475 31.881 15.0234 31.8607 15.0061C31.8405 14.9889 31.8147 14.9795 31.7881 14.9798H31.7871ZM32.3501 14.9798C32.3351 14.9795 32.3201 14.9823 32.3062 14.9879C32.2922 14.9935 32.2795 15.0019 32.2689 15.0126C32.2582 15.0232 32.2499 15.0359 32.2442 15.0498C32.2386 15.0638 32.2358 15.0787 32.2361 15.0938C32.2361 15.1558 32.2881 15.2078 32.3501 15.2068C32.4101 15.2068 32.4601 15.1548 32.4601 15.0938C32.4621 15.0858 32.4621 15.0818 32.4601 15.0738C32.4562 15.0475 32.443 15.0234 32.4227 15.0061C32.4025 14.9889 32.3767 14.9795 32.3501 14.9798ZM32.9121 14.9798C32.8971 14.9796 32.8823 14.9825 32.8685 14.9882C32.8546 14.9939 32.8421 15.0023 32.8315 15.0129C32.821 15.0235 32.8127 15.0362 32.8071 15.0501C32.8016 15.064 32.7988 15.0788 32.7991 15.0938C32.7991 15.1558 32.8501 15.2078 32.9121 15.2068C32.9731 15.2068 33.0221 15.1548 33.0231 15.0938V15.0858C33.0216 15.0575 33.0094 15.0308 32.989 15.0111C32.9686 14.9914 32.9414 14.9802 32.9131 14.9798H32.9121ZM33.4751 14.9798C33.4601 14.9795 33.4451 14.9823 33.4312 14.9879C33.4172 14.9935 33.4045 15.0019 33.3939 15.0126C33.3832 15.0232 33.3749 15.0359 33.3692 15.0498C33.3636 15.0638 33.3608 15.0787 33.3611 15.0938C33.3611 15.1558 33.4131 15.2078 33.4751 15.2068C33.5045 15.2057 33.5323 15.1934 33.5528 15.1724C33.5733 15.1513 33.5849 15.1232 33.5851 15.0938V15.0858C33.5836 15.0575 33.5714 15.0308 33.551 15.0111C33.5306 14.9914 33.5034 14.9802 33.4751 14.9798ZM34.0371 14.9798C34.0221 14.9796 34.0073 14.9825 33.9935 14.9882C33.9796 14.9939 33.9671 15.0023 33.9565 15.0129C33.946 15.0235 33.9377 15.0362 33.9321 15.0501C33.9266 15.064 33.9238 15.0788 33.9241 15.0938C33.9241 15.1558 33.9751 15.2078 34.0371 15.2068C34.0666 15.206 34.0947 15.1938 34.1154 15.1727C34.1361 15.1516 34.1478 15.1233 34.1481 15.0938V15.0858C34.1466 15.0575 34.1344 15.0308 34.114 15.0111C34.0936 14.9914 34.0664 14.9802 34.0381 14.9798H34.0371ZM34.5971 14.9798C34.5824 14.98 34.5679 14.9832 34.5544 14.9891C34.5409 14.9949 34.5287 15.0034 34.5185 15.014C34.5083 15.0246 34.5002 15.0371 34.4949 15.0508C34.4895 15.0644 34.4868 15.0791 34.4871 15.0938C34.4871 15.1548 34.5361 15.2068 34.5971 15.2068C34.6272 15.2068 34.656 15.1949 34.6774 15.1737C34.6987 15.1526 34.7108 15.1238 34.7111 15.0938V15.0858C34.7096 15.0569 34.6969 15.0298 34.6759 15.0101C34.6548 14.9903 34.627 14.9795 34.5981 14.9798H34.5971ZM15.1401 18.1778C14.9254 18.1702 14.7113 18.2059 14.5107 18.2829C14.31 18.3598 14.1269 18.4763 13.9723 18.6256C13.8177 18.7748 13.6948 18.9537 13.6108 19.1514C13.5268 19.3492 13.4835 19.5619 13.4835 19.7768C13.4835 19.9916 13.5268 20.2043 13.6108 20.4021C13.6948 20.5999 13.8177 20.7787 13.9723 20.928C14.1269 21.0772 14.31 21.1938 14.5107 21.2707C14.7113 21.3476 14.9254 21.3834 15.1401 21.3758C15.5544 21.3611 15.9468 21.1862 16.2347 20.888C16.5226 20.5897 16.6835 20.1913 16.6835 19.7768C16.6835 19.3622 16.5226 18.9638 16.2347 18.6656C15.9468 18.3673 15.5544 18.1924 15.1401 18.1778ZM18.7631 18.1778C18.5497 18.1724 18.3374 18.2099 18.1386 18.2878C17.9399 18.3658 17.7588 18.4828 17.606 18.6318C17.4531 18.7809 17.3317 18.959 17.2488 19.1558C17.1658 19.3525 17.1231 19.5638 17.1231 19.7773C17.1231 19.9908 17.1658 20.2021 17.2488 20.3988C17.3317 20.5955 17.4531 20.7736 17.606 20.9227C17.7588 21.0718 17.9399 21.1887 18.1386 21.2667C18.3374 21.3447 18.5497 21.3821 18.7631 21.3768C19.1874 21.3768 19.5944 21.2082 19.8945 20.9081C20.1945 20.6081 20.3631 20.2011 20.3631 19.7768C20.3631 19.3524 20.1945 18.9455 19.8945 18.6454C19.5944 18.3453 19.1874 18.1768 18.7631 18.1768V18.1778ZM22.3861 18.1778C22.1714 18.1702 21.9573 18.2059 21.7567 18.2829C21.556 18.3598 21.3729 18.4763 21.2183 18.6256C21.0637 18.7748 20.9408 18.9537 20.8568 19.1514C20.7728 19.3492 20.7295 19.5619 20.7295 19.7768C20.7295 19.9916 20.7728 20.2043 20.8568 20.4021C20.9408 20.5999 21.0637 20.7787 21.2183 20.928C21.3729 21.0772 21.556 21.1938 21.7567 21.2707C21.9573 21.3476 22.1714 21.3834 22.3861 21.3758C22.8004 21.3611 23.1928 21.1862 23.4807 20.888C23.7686 20.5897 23.9295 20.1913 23.9295 19.7768C23.9295 19.3622 23.7686 18.9638 23.4807 18.6656C23.1928 18.3673 22.8004 18.1924 22.3861 18.1778ZM26.0111 18.1778C25.7964 18.1702 25.5823 18.2059 25.3817 18.2829C25.181 18.3598 24.9979 18.4763 24.8433 18.6256C24.6887 18.7748 24.5658 18.9537 24.4818 19.1514C24.3978 19.3492 24.3545 19.5619 24.3545 19.7768C24.3545 19.9916 24.3978 20.2043 24.4818 20.4021C24.5658 20.5999 24.6887 20.7787 24.8433 20.928C24.9979 21.0772 25.181 21.1938 25.3817 21.2707C25.5823 21.3476 25.7964 21.3834 26.0111 21.3758C26.4254 21.3611 26.8178 21.1862 27.1057 20.888C27.3936 20.5897 27.5545 20.1913 27.5545 19.7768C27.5545 19.3622 27.3936 18.9638 27.1057 18.6656C26.8178 18.3673 26.4254 18.1924 26.0111 18.1778ZM29.6341 18.1778C29.4207 18.1724 29.2084 18.2099 29.0096 18.2878C28.8109 18.3658 28.6298 18.4828 28.477 18.6318C28.3241 18.7809 28.2027 18.959 28.1198 19.1558C28.0368 19.3525 27.9941 19.5638 27.9941 19.7773C27.9941 19.9908 28.0368 20.2021 28.1198 20.3988C28.2027 20.5955 28.3241 20.7736 28.477 20.9227C28.6298 21.0718 28.8109 21.1887 29.0096 21.2667C29.2084 21.3447 29.4207 21.3821 29.6341 21.3768C30.0584 21.3768 30.4654 21.2082 30.7655 20.9081C31.0655 20.6081 31.2341 20.2011 31.2341 19.7768C31.2341 19.3524 31.0655 18.9455 30.7655 18.6454C30.4654 18.3453 30.0584 18.1768 29.6341 18.1768V18.1778ZM33.2591 18.1778C33.0457 18.1724 32.8334 18.2099 32.6346 18.2878C32.4359 18.3658 32.2548 18.4828 32.102 18.6318C31.9491 18.7809 31.8277 18.959 31.7448 19.1558C31.6618 19.3525 31.6191 19.5638 31.6191 19.7773C31.6191 19.9908 31.6618 20.2021 31.7448 20.3988C31.8277 20.5955 31.9491 20.7736 32.102 20.9227C32.2548 21.0718 32.4359 21.1887 32.6346 21.2667C32.8334 21.3447 33.0457 21.3821 33.2591 21.3768C33.6834 21.3768 34.0904 21.2082 34.3905 20.9081C34.6905 20.6081 34.8591 20.2011 34.8591 19.7768C34.8591 19.3524 34.6905 18.9455 34.3905 18.6454C34.0904 18.3453 33.6834 18.1768 33.2591 18.1768V18.1778ZM15.1391 18.6378C15.2885 18.6376 15.4364 18.6668 15.5745 18.7238C15.7126 18.7808 15.8381 18.8644 15.9439 18.9699C16.0496 19.0754 16.1336 19.2007 16.1909 19.3386C16.2483 19.4765 16.2779 19.6244 16.2781 19.7738C16.2783 19.9232 16.2491 20.0711 16.1921 20.2092C16.1351 20.3473 16.0515 20.4728 15.946 20.5785C15.8405 20.6843 15.7152 20.7683 15.5773 20.8256C15.4394 20.883 15.2915 20.9126 15.1421 20.9128C14.8405 20.913 14.5512 20.7935 14.3378 20.5805C14.1244 20.3674 14.0044 20.0783 14.0041 19.7768C14.0038 19.4752 14.1234 19.1859 14.3364 18.9725C14.5495 18.7591 14.8385 18.639 15.1401 18.6388L15.1391 18.6378ZM18.7631 18.6378C19.0648 18.6375 19.3542 18.7571 19.5677 18.9702C19.7812 19.1834 19.9013 19.4726 19.9016 19.7743C19.9019 20.076 19.7823 20.3654 19.5691 20.5789C19.356 20.7924 19.0668 20.9125 18.7651 20.9128C18.4635 20.913 18.1742 20.7935 17.9608 20.5805C17.7474 20.3674 17.6274 20.0783 17.6271 19.7768C17.6268 19.4752 17.7464 19.1859 17.9594 18.9725C18.1725 18.7591 18.4615 18.639 18.7631 18.6388V18.6378ZM22.3861 18.6378C22.6878 18.6375 22.9772 18.7571 23.1907 18.9702C23.4042 19.1834 23.5243 19.4726 23.5246 19.7743C23.5249 20.076 23.4053 20.3654 23.1921 20.5789C22.979 20.7924 22.6898 20.9125 22.3881 20.9128C22.0865 20.913 21.7972 20.7935 21.5838 20.5805C21.3704 20.3674 21.2504 20.0783 21.2501 19.7768C21.2498 19.4752 21.3694 19.1859 21.5824 18.9725C21.7955 18.7591 22.0845 18.639 22.3861 18.6388V18.6378ZM26.0111 18.6378C26.1605 18.6376 26.3084 18.6669 26.4465 18.724C26.5845 18.781 26.71 18.8647 26.8157 18.9702C26.9214 19.0758 27.0053 19.2011 27.0626 19.339C27.1199 19.477 27.1495 19.6249 27.1496 19.7743C27.1497 19.9237 27.1204 20.0716 27.0634 20.2097C27.0064 20.3477 26.9227 20.4732 26.8171 20.5789C26.7116 20.6846 26.5863 20.7685 26.4483 20.8258C26.3104 20.8831 26.1625 20.9126 26.0131 20.9128C25.7115 20.913 25.4222 20.7935 25.2088 20.5805C24.9954 20.3674 24.8754 20.0783 24.8751 19.7768C24.8748 19.4752 24.9944 19.1859 25.2074 18.9725C25.4205 18.7591 25.7095 18.639 26.0111 18.6388V18.6378ZM29.6341 18.6378C29.9358 18.6375 30.2252 18.7571 30.4387 18.9702C30.6522 19.1834 30.7723 19.4726 30.7726 19.7743C30.7729 20.076 30.6533 20.3654 30.4401 20.5789C30.227 20.7924 29.9378 20.9125 29.6361 20.9128C29.3345 20.913 29.0452 20.7935 28.8318 20.5805C28.6184 20.3674 28.4984 20.0783 28.4981 19.7768C28.4978 19.4752 28.6174 19.1859 28.8304 18.9725C29.0435 18.7591 29.3325 18.639 29.6341 18.6388V18.6378ZM33.2591 18.6378C33.4085 18.6376 33.5564 18.6669 33.6945 18.724C33.8325 18.781 33.958 18.8647 34.0637 18.9702C34.1694 19.0758 34.2533 19.2011 34.3106 19.339C34.3679 19.477 34.3975 19.6249 34.3976 19.7743C34.3977 19.9237 34.3684 20.0716 34.3114 20.2097C34.2544 20.3477 34.1707 20.4732 34.0651 20.5789C33.9596 20.6846 33.8343 20.7685 33.6963 20.8258C33.5584 20.8831 33.4105 20.9126 33.2611 20.9128C32.9595 20.913 32.6702 20.7935 32.4568 20.5805C32.2434 20.3674 32.1234 20.0783 32.1231 19.7768C32.1228 19.4752 32.2424 19.1859 32.4554 18.9725C32.6685 18.7591 32.9575 18.639 33.2591 18.6388V18.6378ZM13.7951 23.9798C13.7803 23.9799 13.7657 23.983 13.7521 23.9888C13.7385 23.9946 13.7262 24.003 13.7158 24.0136C13.7055 24.0242 13.6974 24.0368 13.6919 24.0505C13.6865 24.0643 13.6838 24.079 13.6841 24.0938C13.6841 24.1548 13.7341 24.2058 13.7941 24.2068C13.8571 24.2068 13.9071 24.1568 13.9081 24.0938C13.9084 24.0788 13.9056 24.064 13.9001 24.0501C13.8945 24.0362 13.8862 24.0235 13.8757 24.0129C13.8651 24.0023 13.8526 23.9939 13.8387 23.9882C13.8249 23.9825 13.8101 23.9796 13.7951 23.9798ZM14.3571 23.9798C14.327 23.98 14.2983 23.9922 14.2771 24.0135C14.256 24.0349 14.2441 24.0637 14.2441 24.0938C14.2441 24.1548 14.2961 24.2068 14.3571 24.2068C14.4191 24.2068 14.4681 24.1548 14.4691 24.0938V24.0738C14.4652 24.0471 14.4516 24.0228 14.431 24.0055C14.4103 23.9881 14.384 23.979 14.3571 23.9798ZM14.9201 23.9798C14.9051 23.9796 14.8903 23.9825 14.8765 23.9882C14.8626 23.9939 14.8501 24.0023 14.8395 24.0129C14.829 24.0235 14.8207 24.0362 14.8151 24.0501C14.8096 24.064 14.8068 24.0788 14.8071 24.0938C14.8071 24.1558 14.8571 24.2078 14.9201 24.2068C14.9811 24.2068 15.0301 24.1548 15.0311 24.0938V24.0738C15.0272 24.0473 15.0138 24.0231 14.9934 24.0058C14.9729 23.9885 14.9469 23.9792 14.9201 23.9798ZM15.4821 23.9798C15.4671 23.9796 15.4523 23.9825 15.4385 23.9882C15.4246 23.9939 15.4121 24.0023 15.4015 24.0129C15.391 24.0235 15.3827 24.0362 15.3771 24.0501C15.3716 24.064 15.3688 24.0788 15.3691 24.0938C15.3691 24.1558 15.4201 24.2078 15.4821 24.2068C15.5441 24.2068 15.5931 24.1548 15.5941 24.0938V24.0858C15.5923 24.0573 15.5797 24.0306 15.5589 24.0111C15.5381 23.9916 15.5106 23.9807 15.4821 23.9808V23.9798ZM16.0451 23.9798C16.0301 23.9796 16.0153 23.9825 16.0015 23.9882C15.9876 23.9939 15.9751 24.0023 15.9645 24.0129C15.954 24.0235 15.9457 24.0362 15.9401 24.0501C15.9346 24.064 15.9318 24.0788 15.9321 24.0938C15.9321 24.1558 15.9821 24.2078 16.0451 24.2068C16.1061 24.2068 16.1551 24.1548 16.1561 24.0938V24.0858C16.1543 24.0575 16.1419 24.0309 16.1213 24.0114C16.1007 23.9919 16.0735 23.981 16.0451 23.9808V23.9798ZM16.6071 23.9798C16.5921 23.9796 16.5773 23.9825 16.5635 23.9882C16.5496 23.9939 16.5371 24.0023 16.5265 24.0129C16.516 24.0235 16.5077 24.0362 16.5021 24.0501C16.4966 24.064 16.4938 24.0788 16.4941 24.0938C16.4941 24.1558 16.5451 24.2078 16.6071 24.2068C16.6691 24.2068 16.7181 24.1548 16.7191 24.0938V24.0858C16.7173 24.0573 16.7047 24.0306 16.6839 24.0111C16.6631 23.9916 16.6356 23.9807 16.6071 23.9808V23.9798ZM17.1681 23.9798C17.1533 23.9799 17.1387 23.983 17.1251 23.9888C17.1115 23.9946 17.0992 24.003 17.0888 24.0136C17.0785 24.0242 17.0704 24.0368 17.065 24.0505C17.0595 24.0643 17.0568 24.079 17.0571 24.0938C17.0571 24.1548 17.1071 24.2068 17.1681 24.2068C17.198 24.2065 17.2266 24.1945 17.2477 24.1734C17.2688 24.1523 17.2808 24.1237 17.2811 24.0938V24.0858C17.2793 24.0571 17.2666 24.0303 17.2456 24.0107C17.2245 23.9912 17.1968 23.9805 17.1681 23.9808V23.9798ZM17.7311 23.9798C17.7162 23.9798 17.7015 23.9827 17.6878 23.9885C17.6741 23.9942 17.6616 24.0027 17.6512 24.0133C17.6408 24.0239 17.6326 24.0365 17.627 24.0503C17.6215 24.0641 17.6188 24.0789 17.6191 24.0938C17.6191 24.1548 17.6691 24.2068 17.7301 24.2068C17.7602 24.2068 17.789 24.1949 17.8104 24.1737C17.8317 24.1526 17.8438 24.1238 17.8441 24.0938V24.0858C17.8423 24.0569 17.8294 24.0299 17.8082 24.0104C17.787 23.9908 17.759 23.9802 17.7301 23.9808L17.7311 23.9798ZM18.2931 23.9798C18.2783 23.9799 18.2637 23.983 18.2501 23.9888C18.2365 23.9946 18.2242 24.003 18.2138 24.0136C18.2035 24.0242 18.1954 24.0368 18.19 24.0505C18.1845 24.0643 18.1818 24.079 18.1821 24.0938C18.1821 24.1548 18.2321 24.2068 18.2931 24.2068C18.323 24.2065 18.3516 24.1945 18.3727 24.1734C18.3938 24.1523 18.4058 24.1237 18.4061 24.0938V24.0858C18.4043 24.0571 18.3916 24.0303 18.3706 24.0107C18.3495 23.9912 18.3218 23.9805 18.2931 23.9808V23.9798ZM18.8561 23.9798C18.8412 23.9798 18.8265 23.9827 18.8128 23.9885C18.7991 23.9942 18.7866 24.0027 18.7762 24.0133C18.7658 24.0239 18.7576 24.0365 18.752 24.0503C18.7465 24.0641 18.7438 24.0789 18.7441 24.0938C18.7441 24.1548 18.7941 24.2068 18.8551 24.2068C18.9171 24.2068 18.9661 24.1548 18.9671 24.0938V24.0738C18.9632 24.0473 18.9498 24.0231 18.9294 24.0058C18.9089 23.9885 18.8829 23.9792 18.8561 23.9798ZM19.4181 23.9798C19.4031 23.9796 19.3883 23.9825 19.3745 23.9882C19.3606 23.9939 19.3481 24.0023 19.3375 24.0129C19.327 24.0235 19.3187 24.0362 19.3131 24.0501C19.3076 24.064 19.3048 24.0788 19.3051 24.0938C19.3051 24.1558 19.3561 24.2078 19.4181 24.2068C19.4791 24.2068 19.5281 24.1548 19.5291 24.0938V24.0858C19.5273 24.0575 19.5149 24.0309 19.4943 24.0114C19.4737 23.9919 19.4465 23.981 19.4181 23.9808V23.9798ZM19.9811 23.9798C19.9661 23.9795 19.9511 23.9823 19.9372 23.9879C19.9232 23.9935 19.9105 24.0019 19.8999 24.0126C19.8892 24.0232 19.8809 24.0359 19.8752 24.0498C19.8696 24.0638 19.8668 24.0787 19.8671 24.0938C19.8671 24.1558 19.9191 24.2078 19.9801 24.2068C20.0421 24.2068 20.0911 24.1548 20.0921 24.0938V24.0858C20.0903 24.0575 20.0779 24.0309 20.0573 24.0114C20.0367 23.9919 20.0095 23.981 19.9811 23.9808V23.9798ZM20.5431 23.9798C20.5281 23.9796 20.5133 23.9825 20.4995 23.9882C20.4856 23.9939 20.4731 24.0023 20.4625 24.0129C20.452 24.0235 20.4437 24.0362 20.4381 24.0501C20.4326 24.064 20.4298 24.0788 20.4301 24.0938C20.4301 24.1558 20.4811 24.2078 20.5431 24.2068C20.6041 24.2068 20.6531 24.1548 20.6541 24.0938V24.0858C20.6523 24.0575 20.6399 24.0309 20.6193 24.0114C20.5987 23.9919 20.5715 23.981 20.5431 23.9808V23.9798ZM21.1061 23.9798C21.0911 23.9795 21.0761 23.9823 21.0622 23.9879C21.0482 23.9935 21.0355 24.0019 21.0249 24.0126C21.0142 24.0232 21.0059 24.0359 21.0002 24.0498C20.9946 24.0638 20.9918 24.0787 20.9921 24.0938C20.9921 24.1558 21.0441 24.2078 21.1051 24.2068C21.1671 24.2068 21.2161 24.1548 21.2171 24.0938V24.0858C21.2153 24.0575 21.2029 24.0309 21.1823 24.0114C21.1617 23.9919 21.1345 23.981 21.1061 23.9808V23.9798ZM21.6661 23.9798C21.6513 23.9799 21.6367 23.983 21.6231 23.9888C21.6095 23.9946 21.5972 24.003 21.5868 24.0136C21.5765 24.0242 21.5684 24.0368 21.563 24.0505C21.5575 24.0643 21.5548 24.079 21.5551 24.0938C21.5551 24.1548 21.6051 24.2068 21.6661 24.2068C21.696 24.2065 21.7246 24.1945 21.7457 24.1734C21.7668 24.1523 21.7788 24.1237 21.7791 24.0938V24.0858C21.7773 24.0571 21.7646 24.0303 21.7436 24.0107C21.7225 23.9912 21.6948 23.9805 21.6661 23.9808V23.9798ZM22.2291 23.9798C22.2142 23.9798 22.1995 23.9827 22.1858 23.9885C22.1721 23.9942 22.1596 24.0027 22.1492 24.0133C22.1388 24.0239 22.1306 24.0365 22.125 24.0503C22.1195 24.0641 22.1168 24.0789 22.1171 24.0938C22.1171 24.1548 22.1671 24.2068 22.2281 24.2068C22.2582 24.2068 22.287 24.1949 22.3084 24.1737C22.3297 24.1526 22.3418 24.1238 22.3421 24.0938V24.0858C22.3403 24.0571 22.3276 24.0303 22.3066 24.0107C22.2855 23.9912 22.2578 23.9805 22.2291 23.9808V23.9798ZM22.7911 23.9798C22.7763 23.9799 22.7617 23.983 22.7481 23.9888C22.7345 23.9946 22.7222 24.003 22.7118 24.0136C22.7015 24.0242 22.6934 24.0368 22.688 24.0505C22.6825 24.0643 22.6798 24.079 22.6801 24.0938C22.6801 24.1548 22.7301 24.2058 22.7911 24.2068C22.8531 24.2068 22.9041 24.1568 22.9041 24.0938C22.9044 24.0788 22.9016 24.064 22.8961 24.0501C22.8905 24.0362 22.8822 24.0235 22.8717 24.0129C22.8611 24.0023 22.8486 23.9939 22.8347 23.9882C22.8209 23.9825 22.8061 23.9796 22.7911 23.9798ZM23.3541 23.9798C23.3392 23.9798 23.3245 23.9827 23.3108 23.9885C23.2971 23.9942 23.2846 24.0027 23.2742 24.0133C23.2638 24.0239 23.2556 24.0365 23.25 24.0503C23.2445 24.0641 23.2418 24.0789 23.2421 24.0938C23.2421 24.1548 23.2921 24.2068 23.3531 24.2068C23.3828 24.2063 23.4112 24.1942 23.4321 24.173C23.453 24.1519 23.4648 24.1235 23.4651 24.0938V24.0738C23.461 24.0474 23.4475 24.0233 23.4271 24.0061C23.4068 23.9888 23.3808 23.9795 23.3541 23.9798ZM23.9161 23.9798C23.9011 23.9796 23.8863 23.9825 23.8725 23.9882C23.8586 23.9939 23.8461 24.0023 23.8355 24.0129C23.825 24.0235 23.8167 24.0362 23.8111 24.0501C23.8056 24.064 23.8028 24.0788 23.8031 24.0938C23.8031 24.1558 23.8541 24.2078 23.9161 24.2068C23.9771 24.2068 24.0261 24.1548 24.0271 24.0938V24.0738C24.0232 24.0473 24.0098 24.0231 23.9894 24.0058C23.9689 23.9885 23.9429 23.9792 23.9161 23.9798ZM24.4791 23.9798C24.4641 23.9795 24.4491 23.9823 24.4352 23.9879C24.4212 23.9935 24.4085 24.0019 24.3979 24.0126C24.3872 24.0232 24.3789 24.0359 24.3732 24.0498C24.3676 24.0638 24.3648 24.0787 24.3651 24.0938C24.3651 24.1558 24.4171 24.2078 24.4791 24.2068C24.5391 24.2068 24.5891 24.1548 24.5891 24.0938V24.0858C24.5873 24.0576 24.575 24.0312 24.5547 24.0117C24.5343 23.9923 24.5073 23.9812 24.4791 23.9808V23.9798ZM25.0411 23.9798C25.0261 23.9796 25.0113 23.9825 24.9975 23.9882C24.9836 23.9939 24.9711 24.0023 24.9605 24.0129C24.95 24.0235 24.9417 24.0362 24.9361 24.0501C24.9306 24.064 24.9278 24.0788 24.9281 24.0938C24.9281 24.1558 24.9791 24.2078 25.0411 24.2068C25.1021 24.2068 25.1511 24.1548 25.1521 24.0938V24.0858C25.1503 24.0575 25.1379 24.0309 25.1173 24.0114C25.0967 23.9919 25.0695 23.981 25.0411 23.9808V23.9798ZM25.6011 23.9798C25.5864 23.98 25.5719 23.9832 25.5584 23.9891C25.5449 23.9949 25.5327 24.0034 25.5225 24.014C25.5123 24.0246 25.5042 24.0371 25.4989 24.0508C25.4935 24.0644 25.4908 24.0791 25.4911 24.0938C25.4911 24.1548 25.5411 24.2068 25.6011 24.2068C25.6312 24.2068 25.66 24.1949 25.6814 24.1737C25.7027 24.1526 25.7148 24.1238 25.7151 24.0938V24.0858C25.7133 24.0571 25.7006 24.0303 25.6796 24.0107C25.6585 23.9912 25.6308 23.9805 25.6021 23.9808L25.6011 23.9798ZM26.1641 23.9798C26.1493 23.9799 26.1347 23.983 26.1211 23.9888C26.1075 23.9946 26.0952 24.003 26.0848 24.0136C26.0745 24.0242 26.0664 24.0368 26.0609 24.0505C26.0555 24.0643 26.0528 24.079 26.0531 24.0938C26.0531 24.1548 26.1031 24.2068 26.1641 24.2068C26.194 24.2065 26.2226 24.1945 26.2437 24.1734C26.2648 24.1523 26.2768 24.1237 26.2771 24.0938V24.0858C26.2753 24.0571 26.2626 24.0303 26.2416 24.0107C26.2205 23.9912 26.1928 23.9805 26.1641 23.9808V23.9798ZM26.7271 23.9798C26.7122 23.9798 26.6975 23.9827 26.6838 23.9885C26.6701 23.9942 26.6576 24.0027 26.6472 24.0133C26.6368 24.0239 26.6286 24.0365 26.623 24.0503C26.6175 24.0641 26.6148 24.0789 26.6151 24.0938C26.6151 24.1548 26.6651 24.2068 26.7271 24.2068C26.757 24.2065 26.7856 24.1945 26.8067 24.1734C26.8278 24.1523 26.8398 24.1237 26.8401 24.0938V24.0858C26.8383 24.0571 26.8256 24.0303 26.8046 24.0107C26.7835 23.9912 26.7558 23.9805 26.7271 23.9808V23.9798ZM27.2891 23.9798C27.2743 23.9799 27.2597 23.983 27.2461 23.9888C27.2325 23.9946 27.2202 24.003 27.2098 24.0136C27.1995 24.0242 27.1914 24.0368 27.1859 24.0505C27.1805 24.0643 27.1778 24.079 27.1781 24.0938C27.1781 24.1548 27.2281 24.2058 27.2891 24.2068C27.3511 24.2068 27.4021 24.1568 27.4021 24.0938C27.4024 24.0788 27.3996 24.064 27.3941 24.0501C27.3885 24.0362 27.3802 24.0235 27.3697 24.0129C27.3591 24.0023 27.3466 23.9939 27.3327 23.9882C27.3189 23.9825 27.3041 23.9796 27.2891 23.9798ZM27.8521 23.9798C27.8372 23.9798 27.8225 23.9827 27.8088 23.9885C27.7951 23.9942 27.7826 24.0027 27.7722 24.0133C27.7618 24.0239 27.7536 24.0365 27.748 24.0503C27.7425 24.0641 27.7398 24.0789 27.7401 24.0938C27.7401 24.1548 27.7901 24.2068 27.8521 24.2068C27.9121 24.2068 27.9621 24.1548 27.9621 24.0938C27.9641 24.0858 27.9641 24.0818 27.9621 24.0738C27.9582 24.0475 27.945 24.0234 27.9247 24.0061C27.9045 23.9889 27.8787 23.9795 27.8521 23.9798ZM28.4141 23.9798C28.3991 23.9796 28.3843 23.9825 28.3705 23.9882C28.3566 23.9939 28.3441 24.0023 28.3335 24.0129C28.323 24.0235 28.3147 24.0362 28.3091 24.0501C28.3036 24.064 28.3008 24.0788 28.3011 24.0938C28.3011 24.1558 28.3521 24.2078 28.4141 24.2068C28.4751 24.2068 28.5241 24.1548 28.5251 24.0938V24.0858C28.5233 24.0576 28.511 24.0312 28.4907 24.0117C28.4703 23.9923 28.4433 23.9812 28.4151 23.9808L28.4141 23.9798ZM28.9771 23.9798C28.9621 23.9795 28.9471 23.9823 28.9332 23.9879C28.9192 23.9935 28.9065 24.0019 28.8959 24.0126C28.8852 24.0232 28.8769 24.0359 28.8712 24.0498C28.8656 24.0638 28.8628 24.0787 28.8631 24.0938C28.8631 24.1558 28.9151 24.2078 28.9771 24.2068C29.0371 24.2068 29.0871 24.1548 29.0871 24.0938V24.0858C29.0853 24.0576 29.073 24.0312 29.0527 24.0117C29.0323 23.9923 29.0053 23.9812 28.9771 23.9808V23.9798ZM29.5391 23.9798C29.5241 23.9796 29.5093 23.9825 29.4955 23.9882C29.4816 23.9939 29.4691 24.0023 29.4585 24.0129C29.448 24.0235 29.4397 24.0362 29.4341 24.0501C29.4286 24.064 29.4258 24.0788 29.4261 24.0938C29.4261 24.1558 29.4771 24.2078 29.5391 24.2068C29.6001 24.2068 29.6491 24.1548 29.6501 24.0938V24.0858C29.6483 24.0576 29.636 24.0312 29.6157 24.0117C29.5953 23.9923 29.5683 23.9812 29.5401 23.9808L29.5391 23.9798ZM30.0991 23.9798C30.0844 23.98 30.0699 23.9832 30.0564 23.9891C30.0429 23.9949 30.0307 24.0034 30.0205 24.014C30.0103 24.0246 30.0022 24.0371 29.9969 24.0508C29.9915 24.0644 29.9888 24.0791 29.9891 24.0938C29.9891 24.1548 30.0381 24.2068 30.0991 24.2068C30.1292 24.2068 30.158 24.1949 30.1794 24.1737C30.2007 24.1526 30.2128 24.1238 30.2131 24.0938V24.0858C30.2113 24.0571 30.1986 24.0303 30.1776 24.0107C30.1565 23.9912 30.1288 23.9805 30.1001 23.9808L30.0991 23.9798ZM30.6621 23.9798C30.6473 23.9799 30.6327 23.983 30.6191 23.9888C30.6055 23.9946 30.5932 24.003 30.5828 24.0136C30.5725 24.0242 30.5644 24.0368 30.559 24.0505C30.5535 24.0643 30.5508 24.079 30.5511 24.0938C30.5511 24.1548 30.6011 24.2068 30.6621 24.2068C30.692 24.2065 30.7206 24.1945 30.7417 24.1734C30.7628 24.1523 30.7748 24.1237 30.7751 24.0938V24.0858C30.7733 24.0571 30.7606 24.0303 30.7396 24.0107C30.7185 23.9912 30.6908 23.9805 30.6621 23.9808V23.9798ZM31.2251 23.9798C31.2102 23.9798 31.1955 23.9827 31.1818 23.9885C31.1681 23.9942 31.1556 24.0027 31.1452 24.0133C31.1348 24.0239 31.1266 24.0365 31.121 24.0503C31.1155 24.0641 31.1128 24.0789 31.1131 24.0938C31.1131 24.1548 31.1631 24.2068 31.2251 24.2068C31.255 24.2065 31.2836 24.1945 31.3047 24.1734C31.3258 24.1523 31.3378 24.1237 31.3381 24.0938V24.0858C31.3363 24.0571 31.3236 24.0303 31.3026 24.0107C31.2815 23.9912 31.2538 23.9805 31.2251 23.9808V23.9798ZM31.7871 23.9798C31.7723 23.9799 31.7577 23.983 31.7441 23.9888C31.7305 23.9946 31.7182 24.003 31.7078 24.0136C31.6975 24.0242 31.6894 24.0368 31.684 24.0505C31.6785 24.0643 31.6758 24.079 31.6761 24.0938C31.6761 24.1548 31.7261 24.2068 31.7871 24.2068C31.8481 24.2068 31.8971 24.1548 31.8981 24.0938V24.0738C31.8942 24.0475 31.881 24.0234 31.8607 24.0061C31.8405 23.9889 31.8147 23.9795 31.7881 23.9798H31.7871ZM32.3501 23.9798C32.3351 23.9795 32.3201 23.9823 32.3062 23.9879C32.2922 23.9935 32.2795 24.0019 32.2689 24.0126C32.2582 24.0232 32.2499 24.0359 32.2442 24.0498C32.2386 24.0638 32.2358 24.0787 32.2361 24.0938C32.2361 24.1558 32.2881 24.2078 32.3501 24.2068C32.4101 24.2068 32.4601 24.1548 32.4601 24.0938C32.4621 24.0858 32.4621 24.0818 32.4601 24.0738C32.4562 24.0475 32.443 24.0234 32.4227 24.0061C32.4025 23.9889 32.3767 23.9795 32.3501 23.9798ZM32.9121 23.9798C32.8971 23.9796 32.8823 23.9825 32.8685 23.9882C32.8546 23.9939 32.8421 24.0023 32.8315 24.0129C32.821 24.0235 32.8127 24.0362 32.8071 24.0501C32.8016 24.064 32.7988 24.0788 32.7991 24.0938C32.7991 24.1558 32.8501 24.2078 32.9121 24.2068C32.9731 24.2068 33.0221 24.1548 33.0231 24.0938V24.0858C33.0213 24.0576 33.009 24.0312 32.9887 24.0117C32.9683 23.9923 32.9413 23.9812 32.9131 23.9808L32.9121 23.9798ZM33.4751 23.9798C33.4601 23.9795 33.4451 23.9823 33.4312 23.9879C33.4172 23.9935 33.4045 24.0019 33.3939 24.0126C33.3832 24.0232 33.3749 24.0359 33.3692 24.0498C33.3636 24.0638 33.3608 24.0787 33.3611 24.0938C33.3611 24.1558 33.4131 24.2078 33.4751 24.2068C33.5045 24.2057 33.5323 24.1934 33.5528 24.1724C33.5733 24.1513 33.5849 24.1232 33.5851 24.0938V24.0858C33.5833 24.0576 33.571 24.0312 33.5507 24.0117C33.5303 23.9923 33.5033 23.9812 33.4751 23.9808V23.9798ZM34.0371 23.9798C34.0221 23.9796 34.0073 23.9825 33.9935 23.9882C33.9796 23.9939 33.9671 24.0023 33.9565 24.0129C33.946 24.0235 33.9377 24.0362 33.9321 24.0501C33.9266 24.064 33.9238 24.0788 33.9241 24.0938C33.9241 24.1558 33.9751 24.2078 34.0371 24.2068C34.0666 24.206 34.0947 24.1938 34.1154 24.1727C34.1361 24.1516 34.1478 24.1233 34.1481 24.0938V24.0858C34.1463 24.0576 34.134 24.0312 34.1137 24.0117C34.0933 23.9923 34.0663 23.9812 34.0381 23.9808L34.0371 23.9798ZM34.5971 23.9798C34.5824 23.98 34.5679 23.9832 34.5544 23.9891C34.5409 23.9949 34.5287 24.0034 34.5185 24.014C34.5083 24.0246 34.5002 24.0371 34.4949 24.0508C34.4895 24.0644 34.4868 24.0791 34.4871 24.0938C34.4871 24.1548 34.5361 24.2068 34.5971 24.2068C34.6272 24.2068 34.656 24.1949 34.6774 24.1737C34.6987 24.1526 34.7108 24.1238 34.7111 24.0938V24.0858C34.7093 24.0571 34.6966 24.0303 34.6756 24.0107C34.6545 23.9912 34.6268 23.9805 34.5981 23.9808L34.5971 23.9798ZM15.1401 26.8098C14.7158 26.8098 14.3088 26.9783 14.0087 27.2784C13.7087 27.5785 13.5401 27.9854 13.5401 28.4098C13.5401 28.8341 13.7087 29.2411 14.0087 29.5411C14.3088 29.8412 14.7158 30.0098 15.1401 30.0098C15.5644 30.0098 15.9714 29.8412 16.2715 29.5411C16.5715 29.2411 16.7401 28.8341 16.7401 28.4098C16.7401 27.9854 16.5715 27.5785 16.2715 27.2784C15.9714 26.9783 15.5644 26.8098 15.1401 26.8098ZM18.7631 26.8098C18.3388 26.8098 17.9318 26.9783 17.6317 27.2784C17.3317 27.5785 17.1631 27.9854 17.1631 28.4098C17.1631 28.8341 17.3317 29.2411 17.6317 29.5411C17.9318 29.8412 18.3388 30.0098 18.7631 30.0098C19.1874 30.0098 19.5944 29.8412 19.8945 29.5411C20.1945 29.2411 20.3631 28.8341 20.3631 28.4098C20.3631 27.9854 20.1945 27.5785 19.8945 27.2784C19.5944 26.9783 19.1874 26.8098 18.7631 26.8098ZM22.3881 26.8098C21.9638 26.8098 21.5568 26.9783 21.2567 27.2784C20.9567 27.5785 20.7881 27.9854 20.7881 28.4098C20.7881 28.8341 20.9567 29.2411 21.2567 29.5411C21.5568 29.8412 21.9638 30.0098 22.3881 30.0098C22.8124 30.0098 23.2194 29.8412 23.5195 29.5411C23.8195 29.2411 23.9881 28.8341 23.9881 28.4098C23.9881 27.9854 23.8195 27.5785 23.5195 27.2784C23.2194 26.9783 22.8124 26.8098 22.3881 26.8098ZM26.0111 26.8098C25.5868 26.8098 25.1798 26.9783 24.8797 27.2784C24.5797 27.5785 24.4111 27.9854 24.4111 28.4098C24.4111 28.8341 24.5797 29.2411 24.8797 29.5411C25.1798 29.8412 25.5868 30.0098 26.0111 30.0098C26.4354 30.0098 26.8424 29.8412 27.1425 29.5411C27.4425 29.2411 27.6111 28.8341 27.6111 28.4098C27.6111 27.9854 27.4425 27.5785 27.1425 27.2784C26.8424 26.9783 26.4354 26.8098 26.0111 26.8098ZM29.6341 26.8098C29.2098 26.8098 28.8028 26.9783 28.5027 27.2784C28.2027 27.5785 28.0341 27.9854 28.0341 28.4098C28.0341 28.8341 28.2027 29.2411 28.5027 29.5411C28.8028 29.8412 29.2098 30.0098 29.6341 30.0098C30.0584 30.0098 30.4654 29.8412 30.7655 29.5411C31.0655 29.2411 31.2341 28.8341 31.2341 28.4098C31.2341 27.9854 31.0655 27.5785 30.7655 27.2784C30.4654 26.9783 30.0584 26.8098 29.6341 26.8098ZM33.2591 26.8098C32.8348 26.8098 32.4278 26.9783 32.1277 27.2784C31.8277 27.5785 31.6591 27.9854 31.6591 28.4098C31.6591 28.8341 31.8277 29.2411 32.1277 29.5411C32.4278 29.8412 32.8348 30.0098 33.2591 30.0098C33.6834 30.0098 34.0904 29.8412 34.3905 29.5411C34.6905 29.2411 34.8591 28.8341 34.8591 28.4098C34.8591 27.9854 34.6905 27.5785 34.3905 27.2784C34.0904 26.9783 33.6834 26.8098 33.2591 26.8098ZM15.1391 27.2718C15.2884 27.2716 15.4363 27.3008 15.5743 27.3577C15.7123 27.4147 15.8378 27.4983 15.9435 27.6037C16.0492 27.7092 16.1332 27.8344 16.1905 27.9723C16.2478 28.1101 16.2774 28.258 16.2776 28.4073C16.2778 28.5566 16.2486 28.7045 16.1916 28.8425C16.1347 28.9805 16.0511 29.106 15.9456 29.2117C15.8402 29.3174 15.715 29.4013 15.5771 29.4587C15.4392 29.516 15.2914 29.5456 15.1421 29.5458C14.8405 29.546 14.5512 29.4265 14.3378 29.2135C14.1244 29.0004 14.0044 28.7113 14.0041 28.4098C14.0038 28.1082 14.1234 27.8189 14.3364 27.6055C14.5495 27.3921 14.8385 27.272 15.1401 27.2718H15.1391ZM18.7631 27.2718C18.9124 27.2716 19.0603 27.3009 19.1983 27.3579C19.3363 27.415 19.4617 27.4986 19.5674 27.6041C19.673 27.7096 19.7569 27.8348 19.8142 27.9727C19.8714 28.1106 19.901 28.2585 19.9011 28.4078C19.9012 28.5571 19.872 28.705 19.8149 28.843C19.7579 28.981 19.6743 29.1064 19.5688 29.212C19.4633 29.3177 19.338 29.4016 19.2001 29.4588C19.0622 29.5161 18.9144 29.5456 18.7651 29.5458C18.4635 29.546 18.1742 29.4265 17.9608 29.2135C17.7474 29.0004 17.6274 28.7113 17.6271 28.4098C17.6268 28.1082 17.7464 27.8189 17.9594 27.6055C18.1725 27.3921 18.4615 27.272 18.7631 27.2718ZM22.3881 27.2718C22.6897 27.2715 22.979 27.391 23.1924 27.6041C23.4058 27.8171 23.5258 28.1062 23.5261 28.4078C23.5264 28.7093 23.4068 28.9986 23.1938 29.212C22.9807 29.4255 22.6916 29.5455 22.3901 29.5458C22.0885 29.546 21.7992 29.4265 21.5858 29.2135C21.3724 29.0004 21.2524 28.7113 21.2521 28.4098C21.2518 28.1082 21.3714 27.8189 21.5844 27.6055C21.7975 27.3921 22.0865 27.272 22.3881 27.2718ZM26.0111 27.2718C26.1604 27.2716 26.3083 27.3009 26.4463 27.3579C26.5843 27.415 26.7097 27.4986 26.8154 27.6041C26.921 27.7096 27.0049 27.8348 27.0622 27.9727C27.1194 28.1106 27.149 28.2585 27.1491 28.4078C27.1492 28.5571 27.12 28.705 27.0629 28.843C27.0059 28.981 26.9223 29.1064 26.8168 29.212C26.7113 29.3177 26.586 29.4016 26.4481 29.4588C26.3102 29.5161 26.1624 29.5456 26.0131 29.5458C25.7115 29.546 25.4222 29.4265 25.2088 29.2135C24.9954 29.0004 24.8754 28.7113 24.8751 28.4098C24.8748 28.1082 24.9944 27.8189 25.2074 27.6055C25.4205 27.3921 25.7095 27.272 26.0111 27.2718ZM29.6341 27.2718C29.9357 27.2715 30.225 27.391 30.4384 27.6041C30.6518 27.8171 30.7718 28.1062 30.7721 28.4078C30.7724 28.7093 30.6528 28.9986 30.4398 29.212C30.2267 29.4255 29.9377 29.5455 29.6361 29.5458C29.3345 29.546 29.0452 29.4265 28.8318 29.2135C28.6184 29.0004 28.4984 28.7113 28.4981 28.4098C28.4978 28.1082 28.6174 27.8189 28.8304 27.6055C29.0435 27.3921 29.3325 27.272 29.6341 27.2718ZM33.2591 27.2718C33.5606 27.2715 33.85 27.391 34.0634 27.6041C34.2768 27.8171 34.3968 28.1062 34.3971 28.4078C34.3974 28.7093 34.2778 28.9986 34.0648 29.212C33.8517 29.4255 33.5627 29.5455 33.2611 29.5458C32.9595 29.546 32.6702 29.4265 32.4568 29.2135C32.2434 29.0004 32.1234 28.7113 32.1231 28.4098C32.1228 28.1082 32.2424 27.8189 32.4554 27.6055C32.6685 27.3921 32.9575 27.272 33.2591 27.2718ZM13.7951 32.9798C13.7804 32.9799 13.7659 32.9829 13.7523 32.9887C13.7388 32.9944 13.7265 33.0028 13.7162 33.0133C13.7059 33.0238 13.6977 33.0362 13.6922 33.0498C13.6867 33.0635 13.684 33.0781 13.6841 33.0928C13.6841 33.1538 13.7341 33.2048 13.7941 33.2058C13.8571 33.2058 13.9071 33.1558 13.9081 33.0928C13.9084 33.0778 13.9056 33.063 13.9001 33.0491C13.8945 33.0352 13.8862 33.0225 13.8757 33.0119C13.8651 33.0013 13.8526 32.9929 13.8387 32.9872C13.8249 32.9815 13.8101 32.9786 13.7951 32.9788V32.9798ZM14.3571 32.9798C14.3272 32.98 14.2986 32.992 14.2775 33.0132C14.2563 33.0343 14.2444 33.0629 14.2441 33.0928C14.2441 33.1538 14.2961 33.2058 14.3571 33.2058C14.4191 33.2058 14.4681 33.1538 14.4691 33.0928V33.0728C14.465 33.0463 14.4513 33.0222 14.4307 33.0051C14.4101 32.988 14.3839 32.979 14.3571 32.9798ZM14.9201 32.9798C14.9052 32.9796 14.8905 32.9825 14.8767 32.9881C14.8629 32.9937 14.8504 33.0021 14.8399 33.0126C14.8294 33.0231 14.8211 33.0356 14.8154 33.0494C14.8098 33.0631 14.807 33.0779 14.8071 33.0928C14.8071 33.1548 14.8571 33.2068 14.9201 33.2058C14.9811 33.2058 15.0301 33.1538 15.0311 33.0928V33.0728C15.027 33.0465 15.0135 33.0225 14.9931 33.0054C14.9726 32.9883 14.9467 32.9792 14.9201 32.9798ZM15.4821 32.9798C15.4672 32.9796 15.4525 32.9825 15.4387 32.9881C15.4249 32.9937 15.4124 33.0021 15.4019 33.0126C15.3914 33.0231 15.3831 33.0356 15.3774 33.0494C15.3718 33.0631 15.369 33.0779 15.3691 33.0928C15.3691 33.1548 15.4201 33.2068 15.4821 33.2058C15.5441 33.2058 15.5931 33.1538 15.5941 33.0928V33.0848C15.5923 33.0563 15.5797 33.0296 15.5589 33.0101C15.5381 32.9906 15.5106 32.9797 15.4821 32.9798ZM16.0451 32.9798C16.0302 32.9796 16.0155 32.9825 16.0017 32.9881C15.9879 32.9937 15.9754 33.0021 15.9649 33.0126C15.9544 33.0231 15.9461 33.0356 15.9404 33.0494C15.9348 33.0631 15.932 33.0779 15.9321 33.0928C15.9321 33.1548 15.9821 33.2068 16.0451 33.2058C16.1061 33.2058 16.1551 33.1538 16.1561 33.0928V33.0848C16.1543 33.0565 16.1419 33.0299 16.1213 33.0104C16.1007 32.9909 16.0735 32.98 16.0451 32.9798ZM16.6071 32.9798C16.5922 32.9796 16.5775 32.9825 16.5637 32.9881C16.5499 32.9937 16.5374 33.0021 16.5269 33.0126C16.5164 33.0231 16.5081 33.0356 16.5024 33.0494C16.4968 33.0631 16.494 33.0779 16.4941 33.0928C16.4941 33.1548 16.5451 33.2068 16.6071 33.2058C16.6691 33.2058 16.7181 33.1538 16.7191 33.0928V33.0848C16.7173 33.0563 16.7047 33.0296 16.6839 33.0101C16.6631 32.9906 16.6356 32.9797 16.6071 32.9798ZM17.1681 32.9798C17.1534 32.9799 17.1389 32.9829 17.1253 32.9887C17.1118 32.9944 17.0995 33.0028 17.0892 33.0133C17.0789 33.0238 17.0707 33.0362 17.0652 33.0498C17.0597 33.0635 17.057 33.0781 17.0571 33.0928C17.0571 33.1538 17.1071 33.2058 17.1681 33.2058C17.198 33.2055 17.2266 33.1935 17.2477 33.1724C17.2688 33.1513 17.2808 33.1227 17.2811 33.0928V33.0848C17.2793 33.0561 17.2666 33.0293 17.2456 33.0097C17.2245 32.9902 17.1968 32.9795 17.1681 32.9798ZM17.7311 32.9798C17.7163 32.9798 17.7017 32.9827 17.688 32.9884C17.6744 32.9941 17.662 33.0024 17.6515 33.0129C17.6411 33.0234 17.6329 33.0359 17.6273 33.0496C17.6218 33.0633 17.619 33.078 17.6191 33.0928C17.6191 33.1538 17.6691 33.2058 17.7301 33.2058C17.7602 33.2058 17.789 33.1939 17.8104 33.1727C17.8317 33.1516 17.8438 33.1228 17.8441 33.0928V33.0848C17.8423 33.0559 17.8294 33.0289 17.8082 33.0094C17.787 32.9898 17.759 32.9792 17.7301 32.9798H17.7311ZM18.2931 32.9798C18.2784 32.9799 18.2639 32.9829 18.2503 32.9887C18.2368 32.9944 18.2245 33.0028 18.2142 33.0133C18.2039 33.0238 18.1957 33.0362 18.1902 33.0498C18.1847 33.0635 18.182 33.0781 18.1821 33.0928C18.1821 33.1538 18.2321 33.2058 18.2931 33.2058C18.323 33.2055 18.3516 33.1935 18.3727 33.1724C18.3938 33.1513 18.4058 33.1227 18.4061 33.0928V33.0848C18.4043 33.0561 18.3916 33.0293 18.3706 33.0097C18.3495 32.9902 18.3218 32.9795 18.2931 32.9798ZM18.8561 32.9798C18.8413 32.9798 18.8267 32.9827 18.813 32.9884C18.7994 32.9941 18.787 33.0024 18.7765 33.0129C18.7661 33.0234 18.7579 33.0359 18.7523 33.0496C18.7468 33.0633 18.744 33.078 18.7441 33.0928C18.7441 33.1538 18.7941 33.2058 18.8551 33.2058C18.9171 33.2058 18.9661 33.1538 18.9671 33.0928V33.0728C18.963 33.0465 18.9495 33.0225 18.9291 33.0054C18.9086 32.9883 18.8827 32.9792 18.8561 32.9798ZM19.4181 32.9798C19.4032 32.9796 19.3885 32.9825 19.3747 32.9881C19.3609 32.9937 19.3484 33.0021 19.3379 33.0126C19.3274 33.0231 19.3191 33.0356 19.3134 33.0494C19.3078 33.0631 19.305 33.0779 19.3051 33.0928C19.3051 33.1548 19.3561 33.2068 19.4181 33.2058C19.4791 33.2058 19.5281 33.1538 19.5291 33.0928V33.0848C19.5273 33.0565 19.5149 33.0299 19.4943 33.0104C19.4737 32.9909 19.4465 32.98 19.4181 32.9798ZM19.9811 32.9798C19.9661 32.9795 19.9513 32.9822 19.9374 32.9878C19.9235 32.9934 19.9109 33.0017 19.9002 33.0122C19.8896 33.0227 19.8812 33.0353 19.8755 33.0491C19.8698 33.063 19.867 33.0778 19.8671 33.0928C19.8671 33.1548 19.9191 33.2068 19.9801 33.2058C20.0421 33.2058 20.0911 33.1538 20.0921 33.0928V33.0848C20.0903 33.0565 20.0779 33.0299 20.0573 33.0104C20.0367 32.9909 20.0095 32.98 19.9811 32.9798ZM20.5431 32.9798C20.5282 32.9796 20.5135 32.9825 20.4997 32.9881C20.4859 32.9937 20.4734 33.0021 20.4629 33.0126C20.4524 33.0231 20.4441 33.0356 20.4384 33.0494C20.4328 33.0631 20.43 33.0779 20.4301 33.0928C20.4301 33.1548 20.4811 33.2068 20.5431 33.2058C20.6041 33.2058 20.6531 33.1538 20.6541 33.0928V33.0848C20.6523 33.0565 20.6399 33.0299 20.6193 33.0104C20.5987 32.9909 20.5715 32.98 20.5431 32.9798ZM21.1061 32.9798C21.0911 32.9795 21.0763 32.9822 21.0624 32.9878C21.0485 32.9934 21.0359 33.0017 21.0252 33.0122C21.0146 33.0227 21.0062 33.0353 21.0005 33.0491C20.9948 33.063 20.992 33.0778 20.9921 33.0928C20.9921 33.1548 21.0441 33.2068 21.1051 33.2058C21.1671 33.2058 21.2161 33.1538 21.2171 33.0928V33.0848C21.2153 33.0565 21.2029 33.0299 21.1823 33.0104C21.1617 32.9909 21.1345 32.98 21.1061 32.9798ZM21.6661 32.9798C21.6514 32.9799 21.6369 32.9829 21.6233 32.9887C21.6098 32.9944 21.5975 33.0028 21.5872 33.0133C21.5769 33.0238 21.5687 33.0362 21.5632 33.0498C21.5577 33.0635 21.555 33.0781 21.5551 33.0928C21.5551 33.1538 21.6051 33.2058 21.6661 33.2058C21.696 33.2055 21.7246 33.1935 21.7457 33.1724C21.7668 33.1513 21.7788 33.1227 21.7791 33.0928V33.0848C21.7773 33.0561 21.7646 33.0293 21.7436 33.0097C21.7225 32.9902 21.6948 32.9795 21.6661 32.9798ZM22.2291 32.9798C22.2143 32.9798 22.1997 32.9827 22.186 32.9884C22.1724 32.9941 22.16 33.0024 22.1495 33.0129C22.1391 33.0234 22.1309 33.0359 22.1253 33.0496C22.1198 33.0633 22.117 33.078 22.1171 33.0928C22.1171 33.1538 22.1671 33.2058 22.2281 33.2058C22.2582 33.2058 22.287 33.1939 22.3084 33.1727C22.3297 33.1516 22.3418 33.1228 22.3421 33.0928V33.0848C22.3403 33.0561 22.3276 33.0293 22.3066 33.0097C22.2855 32.9902 22.2578 32.9795 22.2291 32.9798ZM22.7911 32.9798C22.7764 32.9799 22.7619 32.9829 22.7483 32.9887C22.7348 32.9944 22.7225 33.0028 22.7122 33.0133C22.7019 33.0238 22.6937 33.0362 22.6882 33.0498C22.6827 33.0635 22.68 33.0781 22.6801 33.0928C22.6801 33.1538 22.7301 33.2048 22.7911 33.2058C22.8531 33.2058 22.9041 33.1558 22.9041 33.0928C22.9044 33.0778 22.9016 33.063 22.8961 33.0491C22.8905 33.0352 22.8822 33.0225 22.8717 33.0119C22.8611 33.0013 22.8486 32.9929 22.8347 32.9872C22.8209 32.9815 22.8061 32.9786 22.7911 32.9788V32.9798ZM23.3541 32.9798C23.3393 32.9798 23.3247 32.9827 23.311 32.9884C23.2974 32.9941 23.285 33.0024 23.2745 33.0129C23.2641 33.0234 23.2559 33.0359 23.2503 33.0496C23.2448 33.0633 23.242 33.078 23.2421 33.0928C23.2421 33.1538 23.2921 33.2058 23.3531 33.2058C23.3828 33.2053 23.4112 33.1931 23.4321 33.172C23.453 33.1509 23.4648 33.1225 23.4651 33.0928V33.0728C23.4608 33.0466 23.4472 33.0227 23.4269 33.0057C23.4065 32.9886 23.3807 32.9794 23.3541 32.9798ZM23.9161 32.9798C23.9012 32.9796 23.8865 32.9825 23.8727 32.9881C23.8589 32.9937 23.8464 33.0021 23.8359 33.0126C23.8254 33.0231 23.8171 33.0356 23.8114 33.0494C23.8058 33.0631 23.803 33.0779 23.8031 33.0928C23.8031 33.1548 23.8541 33.2068 23.9161 33.2058C23.9771 33.2058 24.0261 33.1538 24.0271 33.0928V33.0728C24.023 33.0465 24.0095 33.0225 23.9891 33.0054C23.9686 32.9883 23.9427 32.9792 23.9161 32.9798ZM24.4791 32.9798C24.4641 32.9795 24.4493 32.9822 24.4354 32.9878C24.4215 32.9934 24.4089 33.0017 24.3982 33.0122C24.3876 33.0227 24.3792 33.0353 24.3735 33.0491C24.3678 33.063 24.365 33.0778 24.3651 33.0928C24.3651 33.1548 24.4171 33.2068 24.4791 33.2058C24.5391 33.2058 24.5891 33.1538 24.5891 33.0928V33.0848C24.5873 33.0566 24.575 33.0302 24.5547 33.0107C24.5343 32.9913 24.5073 32.9802 24.4791 32.9798ZM25.0411 32.9798C25.0262 32.9796 25.0115 32.9825 24.9977 32.9881C24.9839 32.9937 24.9714 33.0021 24.9609 33.0126C24.9504 33.0231 24.9421 33.0356 24.9364 33.0494C24.9308 33.0631 24.928 33.0779 24.9281 33.0928C24.9281 33.1548 24.9791 33.2068 25.0411 33.2058C25.1021 33.2058 25.1511 33.1538 25.1521 33.0928V33.0848C25.1503 33.0565 25.1379 33.0299 25.1173 33.0104C25.0967 32.9909 25.0695 32.98 25.0411 32.9798ZM25.6011 32.9798C25.5716 32.9803 25.5434 32.9925 25.5228 33.0136C25.5022 33.0348 25.4908 33.0632 25.4911 33.0928C25.4911 33.1538 25.5411 33.2058 25.6011 33.2058C25.6312 33.2058 25.66 33.1939 25.6814 33.1727C25.7027 33.1516 25.7148 33.1228 25.7151 33.0928V33.0848C25.7133 33.0561 25.7006 33.0293 25.6796 33.0097C25.6585 32.9902 25.6308 32.9795 25.6021 32.9798H25.6011ZM26.1641 32.9798C26.1494 32.9799 26.1349 32.9829 26.1213 32.9887C26.1078 32.9944 26.0955 33.0028 26.0852 33.0133C26.0749 33.0238 26.0667 33.0362 26.0612 33.0498C26.0557 33.0635 26.053 33.0781 26.0531 33.0928C26.0531 33.1538 26.1031 33.2058 26.1641 33.2058C26.194 33.2055 26.2226 33.1935 26.2437 33.1724C26.2648 33.1513 26.2768 33.1227 26.2771 33.0928V33.0848C26.2753 33.0561 26.2626 33.0293 26.2416 33.0097C26.2205 32.9902 26.1928 32.9795 26.1641 32.9798ZM26.7271 32.9798C26.7123 32.9798 26.6977 32.9827 26.684 32.9884C26.6704 32.9941 26.658 33.0024 26.6475 33.0129C26.6371 33.0234 26.6289 33.0359 26.6233 33.0496C26.6178 33.0633 26.615 33.078 26.6151 33.0928C26.6151 33.1538 26.6651 33.2058 26.7271 33.2058C26.757 33.2055 26.7856 33.1935 26.8067 33.1724C26.8278 33.1513 26.8398 33.1227 26.8401 33.0928V33.0848C26.8383 33.0561 26.8256 33.0293 26.8046 33.0097C26.7835 32.9902 26.7558 32.9795 26.7271 32.9798ZM27.2891 32.9798C27.2744 32.9799 27.2599 32.9829 27.2463 32.9887C27.2328 32.9944 27.2205 33.0028 27.2102 33.0133C27.1999 33.0238 27.1917 33.0362 27.1862 33.0498C27.1807 33.0635 27.178 33.0781 27.1781 33.0928C27.1781 33.1538 27.2281 33.2048 27.2891 33.2058C27.3511 33.2058 27.4021 33.1558 27.4021 33.0928C27.4024 33.0778 27.3996 33.063 27.3941 33.0491C27.3885 33.0352 27.3802 33.0225 27.3697 33.0119C27.3591 33.0013 27.3466 32.9929 27.3327 32.9872C27.3189 32.9815 27.3041 32.9786 27.2891 32.9788V32.9798ZM27.8521 32.9798C27.8373 32.9798 27.8227 32.9827 27.809 32.9884C27.7954 32.9941 27.783 33.0024 27.7725 33.0129C27.7621 33.0234 27.7539 33.0359 27.7483 33.0496C27.7428 33.0633 27.74 33.078 27.7401 33.0928C27.7401 33.1538 27.7901 33.2058 27.8521 33.2058C27.9121 33.2058 27.9621 33.1538 27.9621 33.0928C27.9641 33.0848 27.9641 33.0808 27.9621 33.0728C27.958 33.0466 27.9446 33.0228 27.9244 33.0058C27.9042 32.9887 27.8786 32.9795 27.8521 32.9798ZM28.4141 32.9798C28.3992 32.9796 28.3845 32.9825 28.3707 32.9881C28.3569 32.9937 28.3444 33.0021 28.3339 33.0126C28.3234 33.0231 28.3151 33.0356 28.3094 33.0494C28.3038 33.0631 28.301 33.0779 28.3011 33.0928C28.3011 33.1548 28.3521 33.2068 28.4141 33.2058C28.4751 33.2058 28.5241 33.1538 28.5251 33.0928V33.0848C28.5233 33.0566 28.511 33.0302 28.4907 33.0107C28.4703 32.9913 28.4433 32.9802 28.4151 32.9798H28.4141ZM28.9771 32.9798C28.9621 32.9795 28.9473 32.9822 28.9334 32.9878C28.9195 32.9934 28.9069 33.0017 28.8962 33.0122C28.8856 33.0227 28.8772 33.0353 28.8715 33.0491C28.8658 33.063 28.863 33.0778 28.8631 33.0928C28.8631 33.1548 28.9151 33.2068 28.9771 33.2058C29.0371 33.2058 29.0871 33.1538 29.0871 33.0928V33.0848C29.0853 33.0566 29.073 33.0302 29.0527 33.0107C29.0323 32.9913 29.0053 32.9802 28.9771 32.9798ZM29.5391 32.9798C29.5242 32.9796 29.5095 32.9825 29.4957 32.9881C29.4819 32.9937 29.4694 33.0021 29.4589 33.0126C29.4484 33.0231 29.4401 33.0356 29.4344 33.0494C29.4288 33.0631 29.426 33.0779 29.4261 33.0928C29.4261 33.1548 29.4771 33.2068 29.5391 33.2058C29.6001 33.2058 29.6491 33.1538 29.6501 33.0928V33.0848C29.6483 33.0566 29.636 33.0302 29.6157 33.0107C29.5953 32.9913 29.5683 32.9802 29.5401 32.9798H29.5391ZM30.0991 32.9798C30.0696 32.9803 30.0414 32.9925 30.0208 33.0136C30.0002 33.0348 29.9888 33.0632 29.9891 33.0928C29.9891 33.1538 30.0381 33.2058 30.0991 33.2058C30.1292 33.2058 30.158 33.1939 30.1794 33.1727C30.2007 33.1516 30.2128 33.1228 30.2131 33.0928V33.0848C30.2113 33.0561 30.1986 33.0293 30.1776 33.0097C30.1565 32.9902 30.1288 32.9795 30.1001 32.9798H30.0991ZM30.6621 32.9798C30.6474 32.9799 30.6329 32.9829 30.6193 32.9887C30.6058 32.9944 30.5935 33.0028 30.5832 33.0133C30.5729 33.0238 30.5647 33.0362 30.5592 33.0498C30.5537 33.0635 30.551 33.0781 30.5511 33.0928C30.5511 33.1538 30.6011 33.2058 30.6621 33.2058C30.692 33.2055 30.7206 33.1935 30.7417 33.1724C30.7628 33.1513 30.7748 33.1227 30.7751 33.0928V33.0848C30.7733 33.0561 30.7606 33.0293 30.7396 33.0097C30.7185 32.9902 30.6908 32.9795 30.6621 32.9798ZM31.2251 32.9798C31.2103 32.9798 31.1957 32.9827 31.182 32.9884C31.1684 32.9941 31.156 33.0024 31.1455 33.0129C31.1351 33.0234 31.1269 33.0359 31.1213 33.0496C31.1158 33.0633 31.113 33.078 31.1131 33.0928C31.1131 33.1538 31.1631 33.2058 31.2251 33.2058C31.255 33.2055 31.2836 33.1935 31.3047 33.1724C31.3258 33.1513 31.3378 33.1227 31.3381 33.0928V33.0848C31.3363 33.0561 31.3236 33.0293 31.3026 33.0097C31.2815 32.9902 31.2538 32.9795 31.2251 32.9798ZM31.7871 32.9798C31.7724 32.9799 31.7579 32.9829 31.7443 32.9887C31.7308 32.9944 31.7185 33.0028 31.7082 33.0133C31.6979 33.0238 31.6897 33.0362 31.6842 33.0498C31.6787 33.0635 31.676 33.0781 31.6761 33.0928C31.6761 33.1538 31.7261 33.2058 31.7871 33.2058C31.8481 33.2058 31.8971 33.1538 31.8981 33.0928V33.0728C31.894 33.0466 31.8806 33.0228 31.8604 33.0058C31.8402 32.9887 31.8146 32.9795 31.7881 32.9798H31.7871ZM32.3501 32.9798C32.3351 32.9795 32.3203 32.9822 32.3064 32.9878C32.2925 32.9934 32.2799 33.0017 32.2692 33.0122C32.2586 33.0227 32.2502 33.0353 32.2445 33.0491C32.2388 33.063 32.236 33.0778 32.2361 33.0928C32.2361 33.1548 32.2881 33.2068 32.3501 33.2058C32.4101 33.2058 32.4601 33.1538 32.4601 33.0928C32.4621 33.0848 32.4621 33.0808 32.4601 33.0728C32.456 33.0466 32.4426 33.0228 32.4224 33.0058C32.4022 32.9887 32.3766 32.9795 32.3501 32.9798ZM32.9121 32.9798C32.8972 32.9796 32.8825 32.9825 32.8687 32.9881C32.8549 32.9937 32.8424 33.0021 32.8319 33.0126C32.8214 33.0231 32.8131 33.0356 32.8074 33.0494C32.8018 33.0631 32.799 33.0779 32.7991 33.0928C32.7991 33.1548 32.8501 33.2068 32.9121 33.2058C32.9731 33.2058 33.0221 33.1538 33.0231 33.0928V33.0848C33.0213 33.0566 33.009 33.0302 32.9887 33.0107C32.9683 32.9913 32.9413 32.9802 32.9131 32.9798H32.9121ZM33.4751 32.9798C33.4601 32.9795 33.4453 32.9822 33.4314 32.9878C33.4175 32.9934 33.4049 33.0017 33.3942 33.0122C33.3836 33.0227 33.3752 33.0353 33.3695 33.0491C33.3638 33.063 33.361 33.0778 33.3611 33.0928C33.3611 33.1548 33.4131 33.2068 33.4751 33.2058C33.5045 33.2047 33.5323 33.1924 33.5528 33.1714C33.5733 33.1503 33.5849 33.1222 33.5851 33.0928V33.0848C33.5833 33.0566 33.571 33.0302 33.5507 33.0107C33.5303 32.9913 33.5033 32.9802 33.4751 32.9798ZM34.0371 32.9798C34.0222 32.9796 34.0075 32.9825 33.9937 32.9881C33.9799 32.9937 33.9674 33.0021 33.9569 33.0126C33.9464 33.0231 33.9381 33.0356 33.9324 33.0494C33.9268 33.0631 33.924 33.0779 33.9241 33.0928C33.9241 33.1548 33.9751 33.2068 34.0371 33.2058C34.0666 33.205 34.0947 33.1928 34.1154 33.1717C34.1361 33.1506 34.1478 33.1223 34.1481 33.0928V33.0848C34.1463 33.0566 34.134 33.0302 34.1137 33.0107C34.0933 32.9913 34.0663 32.9802 34.0381 32.9798H34.0371ZM34.5971 32.9798C34.5676 32.9803 34.5394 32.9925 34.5188 33.0136C34.4982 33.0348 34.4868 33.0632 34.4871 33.0928C34.4871 33.1538 34.5361 33.2058 34.5971 33.2058C34.6272 33.2058 34.656 33.1939 34.6774 33.1727C34.6987 33.1516 34.7108 33.1228 34.7111 33.0928V33.0848C34.7093 33.0561 34.6966 33.0293 34.6756 33.0097C34.6545 32.9902 34.6268 32.9795 34.5981 32.9798H34.5971ZM15.1571 35.4378C14.7328 35.4378 14.3258 35.6063 14.0257 35.9064C13.7257 36.2065 13.5571 36.6134 13.5571 37.0378C13.5571 37.4621 13.7257 37.8691 14.0257 38.1691C14.3258 38.4692 14.7328 38.6378 15.1571 38.6378C15.5814 38.6378 15.9884 38.4692 16.2885 38.1691C16.5885 37.8691 16.7571 37.4621 16.7571 37.0378C16.7571 36.6134 16.5885 36.2065 16.2885 35.9064C15.9884 35.6063 15.5814 35.4378 15.1571 35.4378ZM18.7791 35.4378C18.3548 35.4378 17.9478 35.6063 17.6477 35.9064C17.3477 36.2065 17.1791 36.6134 17.1791 37.0378C17.1791 37.4621 17.3477 37.8691 17.6477 38.1691C17.9478 38.4692 18.3548 38.6378 18.7791 38.6378C19.2034 38.6378 19.6104 38.4692 19.9105 38.1691C20.2105 37.8691 20.3791 37.4621 20.3791 37.0378C20.3791 36.6134 20.2105 36.2065 19.9105 35.9064C19.6104 35.6063 19.2034 35.4378 18.7791 35.4378ZM22.4041 35.4378C21.9798 35.4378 21.5728 35.6063 21.2727 35.9064C20.9727 36.2065 20.8041 36.6134 20.8041 37.0378C20.8041 37.4621 20.9727 37.8691 21.2727 38.1691C21.5728 38.4692 21.9798 38.6378 22.4041 38.6378C22.8284 38.6378 23.2354 38.4692 23.5355 38.1691C23.8355 37.8691 24.0041 37.4621 24.0041 37.0378C24.0041 36.6134 23.8355 36.2065 23.5355 35.9064C23.2354 35.6063 22.8284 35.4378 22.4041 35.4378ZM26.0271 35.4378C25.6028 35.4378 25.1958 35.6063 24.8957 35.9064C24.5957 36.2065 24.4271 36.6134 24.4271 37.0378C24.4271 37.4621 24.5957 37.8691 24.8957 38.1691C25.1958 38.4692 25.6028 38.6378 26.0271 38.6378C26.4514 38.6378 26.8584 38.4692 27.1585 38.1691C27.4585 37.8691 27.6271 37.4621 27.6271 37.0378C27.6271 36.6134 27.4585 36.2065 27.1585 35.9064C26.8584 35.6063 26.4514 35.4378 26.0271 35.4378ZM29.6501 35.4378C29.2258 35.4378 28.8188 35.6063 28.5187 35.9064C28.2187 36.2065 28.0501 36.6134 28.0501 37.0378C28.0501 37.4621 28.2187 37.8691 28.5187 38.1691C28.8188 38.4692 29.2258 38.6378 29.6501 38.6378C30.0744 38.6378 30.4814 38.4692 30.7815 38.1691C31.0815 37.8691 31.2501 37.4621 31.2501 37.0378C31.2501 36.6134 31.0815 36.2065 30.7815 35.9064C30.4814 35.6063 30.0744 35.4378 29.6501 35.4378ZM33.2751 35.4378C32.8508 35.4378 32.4438 35.6063 32.1437 35.9064C31.8437 36.2065 31.6751 36.6134 31.6751 37.0378C31.6751 37.4621 31.8437 37.8691 32.1437 38.1691C32.4438 38.4692 32.8508 38.6378 33.2751 38.6378C33.6994 38.6378 34.1064 38.4692 34.4065 38.1691C34.7065 37.8691 34.8751 37.4621 34.8751 37.0378C34.8751 36.6134 34.7065 36.2065 34.4065 35.9064C34.1064 35.6063 33.6994 35.4378 33.2751 35.4378ZM15.1561 35.8988C15.3055 35.8986 15.4534 35.9278 15.5915 35.9848C15.7296 36.0418 15.8551 36.1254 15.9609 36.2309C16.0666 36.3364 16.1506 36.4617 16.2079 36.5996C16.2653 36.7375 16.2949 36.8854 16.2951 37.0348C16.2953 37.1842 16.2661 37.3321 16.2091 37.4702C16.1521 37.6083 16.0685 37.7338 15.963 37.8396C15.8575 37.9453 15.7322 38.0293 15.5943 38.0866C15.4564 38.144 15.3085 38.1736 15.1591 38.1738C14.8574 38.1742 14.5679 38.0547 14.3543 37.8417C14.1407 37.6286 14.0205 37.3395 14.0201 37.0378C14.0197 36.7361 14.1392 36.4466 14.3522 36.233C14.5652 36.0194 14.8544 35.8992 15.1561 35.8988ZM18.7791 35.8988C18.9285 35.8986 19.0764 35.9278 19.2145 35.9848C19.3526 36.0418 19.4781 36.1254 19.5839 36.2309C19.6896 36.3364 19.7736 36.4617 19.8309 36.5996C19.8883 36.7375 19.9179 36.8854 19.9181 37.0348C19.9183 37.1842 19.8891 37.3321 19.8321 37.4702C19.7751 37.6083 19.6915 37.7338 19.586 37.8396C19.4805 37.9453 19.3552 38.0293 19.2173 38.0866C19.0794 38.144 18.9315 38.1736 18.7821 38.1738C18.4804 38.1742 18.1909 38.0547 17.9773 37.8417C17.7637 37.6286 17.6435 37.3395 17.6431 37.0378C17.6427 36.7361 17.7622 36.4466 17.9752 36.233C18.1882 36.0194 18.4774 35.8992 18.7791 35.8988ZM22.4041 35.8988C22.5535 35.8986 22.7014 35.9278 22.8395 35.9848C22.9776 36.0418 23.1031 36.1254 23.2089 36.2309C23.3146 36.3364 23.3986 36.4617 23.4559 36.5996C23.5133 36.7375 23.5429 36.8854 23.5431 37.0348C23.5433 37.1842 23.5141 37.3321 23.4571 37.4702C23.4001 37.6083 23.3165 37.7338 23.211 37.8396C23.1055 37.9453 22.9802 38.0293 22.8423 38.0866C22.7044 38.144 22.5565 38.1736 22.4071 38.1738C22.1054 38.1742 21.8159 38.0547 21.6023 37.8417C21.3887 37.6286 21.2685 37.3395 21.2681 37.0378C21.2677 36.7361 21.3872 36.4466 21.6002 36.233C21.8132 36.0194 22.1024 35.8992 22.4041 35.8988ZM26.0271 35.8988C26.1765 35.8986 26.3244 35.9278 26.4625 35.9848C26.6006 36.0418 26.7261 36.1254 26.8319 36.2309C26.9376 36.3364 27.0216 36.4617 27.0789 36.5996C27.1363 36.7375 27.1659 36.8854 27.1661 37.0348C27.1663 37.1842 27.1371 37.3321 27.0801 37.4702C27.0231 37.6083 26.9395 37.7338 26.834 37.8396C26.7285 37.9453 26.6032 38.0293 26.4653 38.0866C26.3274 38.144 26.1795 38.1736 26.0301 38.1738C25.7284 38.1742 25.4389 38.0547 25.2253 37.8417C25.0117 37.6286 24.8915 37.3395 24.8911 37.0378C24.8907 36.7361 25.0102 36.4466 25.2232 36.233C25.4362 36.0194 25.7254 35.8992 26.0271 35.8988ZM29.6501 35.8988C29.7995 35.8986 29.9474 35.9278 30.0855 35.9848C30.2236 36.0418 30.3491 36.1254 30.4549 36.2309C30.5606 36.3364 30.6446 36.4617 30.7019 36.5996C30.7593 36.7375 30.7889 36.8854 30.7891 37.0348C30.7893 37.1842 30.7601 37.3321 30.7031 37.4702C30.6461 37.6083 30.5625 37.7338 30.457 37.8396C30.3515 37.9453 30.2262 38.0293 30.0883 38.0866C29.9504 38.144 29.8025 38.1736 29.6531 38.1738C29.3514 38.1742 29.0619 38.0547 28.8483 37.8417C28.6347 37.6286 28.5145 37.3395 28.5141 37.0378C28.5137 36.7361 28.6332 36.4466 28.8462 36.233C29.0592 36.0194 29.3484 35.8992 29.6501 35.8988ZM33.2751 35.8988C33.4245 35.8986 33.5724 35.9278 33.7105 35.9848C33.8486 36.0418 33.9741 36.1254 34.0799 36.2309C34.1856 36.3364 34.2696 36.4617 34.3269 36.5996C34.3843 36.7375 34.4139 36.8854 34.4141 37.0348C34.4143 37.1842 34.3851 37.3321 34.3281 37.4702C34.2711 37.6083 34.1875 37.7338 34.082 37.8396C33.9765 37.9453 33.8512 38.0293 33.7133 38.0866C33.5754 38.144 33.4275 38.1736 33.2781 38.1738C32.9764 38.1742 32.6869 38.0547 32.4733 37.8417C32.2597 37.6286 32.1395 37.3395 32.1391 37.0378C32.1387 36.7361 32.2582 36.4466 32.4712 36.233C32.6842 36.0194 32.9734 35.8992 33.2751 35.8988Z" fill="#333333"/>
</svg>
