<svg width="48" height="48" viewBox="0 0 48 48" fill="none" xmlns="http://www.w3.org/2000/svg">
<path d="M14.1465 4.04492C13.277 4.04492 12.5801 4.74384 12.5801 5.61328V42.4746C12.5801 43.344 13.277 44.0449 14.1465 44.0449H33.8516C34.721 44.0449 35.4199 43.344 35.4199 42.4746V5.61328C35.4199 4.74384 34.721 4.04492 33.8516 4.04492H14.1465ZM14.5801 4.54492H33.418C34.2493 4.54492 34.9199 5.22655 34.9199 6.07422V42.0137C34.9199 42.8614 34.2493 43.5449 33.418 43.5449H21.832H14.5801C13.7488 43.5449 13.0801 42.8614 13.0801 42.0137V6.07422C13.0801 5.22655 13.7488 4.54492 14.5801 4.54492ZM30.8437 4.7793C30.7857 4.78377 30.7406 4.83193 30.7402 4.89062C30.7396 4.95336 30.7888 5.00428 30.8516 5.00391C30.9135 5.00341 30.9636 4.95261 30.9629 4.89062C30.9624 4.8294 30.9128 4.78005 30.8516 4.7793C30.8497 4.77924 30.8479 4.77927 30.8457 4.7793H30.8437ZM30.8437 5.3418C30.7857 5.34626 30.7406 5.39443 30.7402 5.45312C30.7396 5.51586 30.7888 5.56678 30.8516 5.56641C30.9135 5.56591 30.9636 5.51511 30.9629 5.45312C30.9624 5.3919 30.9128 5.34255 30.8516 5.3418C30.8497 5.34174 30.8479 5.34177 30.8457 5.3418H30.8437ZM30.8437 5.9043C30.7857 5.90877 30.7406 5.9573 30.7402 6.01562C30.7396 6.07836 30.7888 6.12928 30.8516 6.12891C30.9135 6.12841 30.9636 6.07761 30.9629 6.01562C30.9624 5.9544 30.9128 5.90505 30.8516 5.9043C30.8497 5.90424 30.8479 5.90427 30.8457 5.9043H30.8437ZM30.834 6.4668C30.7796 6.47436 30.7399 6.52294 30.7402 6.57812C30.7407 6.64011 30.7892 6.68983 30.8516 6.68945C30.9128 6.68896 30.9625 6.63973 30.9629 6.57812C30.9624 6.5169 30.9128 6.46755 30.8516 6.4668C30.844 6.46623 30.8435 6.46623 30.8359 6.4668H30.834ZM30.8535 7.02734C30.7908 7.02674 30.7399 7.07788 30.7402 7.14062C30.7407 7.20261 30.7912 7.25271 30.8535 7.25195C30.9147 7.25146 30.9641 7.20223 30.9648 7.14062C30.9654 7.07864 30.9159 7.0281 30.8535 7.02734ZM30.8437 7.58984C30.7849 7.59435 30.7395 7.64367 30.7402 7.70312C30.7407 7.76511 30.7892 7.81483 30.8516 7.81445C30.9128 7.81396 30.9625 7.76435 30.9629 7.70312C30.9635 7.64114 30.9135 7.5906 30.8516 7.58984C30.8497 7.58976 30.8479 7.5898 30.8457 7.58984H30.8437ZM30.8437 8.15234C30.7849 8.15689 30.7395 8.20617 30.7402 8.26562C30.7407 8.32761 30.7892 8.37733 30.8516 8.37695C30.9128 8.3765 30.9625 8.32723 30.9629 8.26562C30.9635 8.20364 30.9135 8.1531 30.8516 8.15234C30.8497 8.15229 30.8479 8.15231 30.8457 8.15234H30.8437ZM24.4902 8.37891C23.6066 8.37894 22.8907 9.0949 22.8906 9.97851C22.8907 10.8622 23.6066 11.5781 24.4902 11.5781C25.3738 11.5781 26.0898 10.8622 26.0898 9.97851C26.0898 9.0949 25.3738 8.37894 24.4902 8.37891ZM30.8437 8.71484C30.7849 8.71935 30.7395 8.76867 30.7402 8.82812C30.7407 8.89011 30.7892 8.93983 30.8516 8.93945C30.9128 8.93896 30.9625 8.88973 30.9629 8.82812C30.9635 8.76614 30.9135 8.7156 30.8516 8.71484C30.8497 8.71479 30.8479 8.71481 30.8457 8.71484H30.8437ZM24.4902 8.83984C25.1195 8.83928 25.6315 9.34922 25.6309 9.97851C25.6305 10.6071 25.1188 11.1158 24.4902 11.1152C23.8623 11.1148 23.3539 10.6064 23.3535 9.97851C23.3529 9.34994 23.8616 8.84026 24.4902 8.83984ZM30.8437 9.27734C30.7857 9.28181 30.7406 9.33035 30.7402 9.38867C30.7396 9.45141 30.7888 9.50233 30.8516 9.50195C30.9135 9.50146 30.9636 9.45066 30.9629 9.38867C30.9624 9.32744 30.9128 9.2781 30.8516 9.27734C30.8497 9.27729 30.8479 9.27731 30.8457 9.27734H30.8437ZM30.8437 9.83984C30.7857 9.8443 30.7406 9.89247 30.7402 9.95117C30.7396 10.0139 30.7888 10.0648 30.8516 10.0645C30.9135 10.064 30.9636 10.0132 30.9629 9.95117C30.9624 9.88994 30.9128 9.8406 30.8516 9.83984C30.8497 9.83976 30.8479 9.8398 30.8457 9.83984H30.8437ZM30.834 10.4023C30.7796 10.4099 30.7399 10.4585 30.7402 10.5137C30.7396 10.5764 30.7888 10.6273 30.8516 10.627C30.9135 10.6265 30.9636 10.5757 30.9629 10.5137C30.9624 10.4524 30.9128 10.4031 30.8516 10.4023C30.844 10.4018 30.8435 10.4018 30.8359 10.4023H30.834ZM30.8535 10.9629C30.7908 10.9623 30.7399 11.0134 30.7402 11.0762C30.7407 11.1382 30.7912 11.1879 30.8535 11.1875C30.9147 11.187 30.9641 11.1378 30.9648 11.0762C30.9654 11.0142 30.9159 10.9636 30.8535 10.9629ZM18.9277 11.0664C18.0441 11.0664 17.3282 11.7824 17.3281 12.666C17.3282 13.5497 18.0441 14.2656 18.9277 14.2656C19.8113 14.2656 20.5273 13.5497 20.5273 12.666C20.5273 11.7824 19.8113 11.0664 18.9277 11.0664ZM30.8535 11.5254C30.7908 11.5248 30.7399 11.5759 30.7402 11.6387C30.7407 11.7007 30.7912 11.7511 30.8535 11.75C30.9147 11.7495 30.9641 11.6999 30.9648 11.6387C30.9654 11.5767 30.9159 11.5261 30.8535 11.5254ZM18.9277 11.5273C19.557 11.5268 20.069 12.0367 20.0684 12.666C20.068 13.2946 19.5563 13.8033 18.9277 13.8027C18.2998 13.8023 17.7914 13.2939 17.791 12.666C17.7904 12.0374 18.2991 11.5278 18.9277 11.5273ZM30.8437 12.0879C30.7849 12.0924 30.7395 12.1417 30.7402 12.2012C30.7407 12.2632 30.7892 12.3133 30.8516 12.3125C30.9128 12.312 30.9625 12.2624 30.9629 12.2012C30.9635 12.1392 30.9135 12.0886 30.8516 12.0879C30.8497 12.0878 30.8479 12.0878 30.8457 12.0879H30.8437ZM30.8437 12.6504C30.7849 12.6549 30.7395 12.7042 30.7402 12.7637C30.7407 12.8257 30.7892 12.8758 30.8516 12.875C30.9128 12.8745 30.9625 12.8249 30.9629 12.7637C30.9635 12.7017 30.9135 12.6508 30.8516 12.6504C30.8497 12.6503 30.8479 12.6504 30.8457 12.6504H30.8437ZM30.8437 13.2129C30.7857 13.2174 30.7406 13.2655 30.7402 13.3242C30.7396 13.387 30.7888 13.4379 30.8516 13.4375C30.9135 13.437 30.9636 13.3862 30.9629 13.3242C30.9624 13.263 30.9128 13.2136 30.8516 13.2129C30.8497 13.2128 30.8479 13.2129 30.8457 13.2129H30.8437ZM24.4902 13.6133C23.6066 13.6133 22.8907 14.3293 22.8906 15.2129C22.8907 16.0965 23.6066 16.8125 24.4902 16.8125C25.3738 16.8125 26.0898 16.0965 26.0898 15.2129C26.0898 14.3293 25.3738 13.6133 24.4902 13.6133ZM30.8437 13.7754C30.7857 13.7799 30.7406 13.8284 30.7402 13.8867C30.7396 13.9495 30.7888 14.0004 30.8516 14C30.9135 13.9995 30.9636 13.9487 30.9629 13.8867C30.9624 13.8255 30.9128 13.7761 30.8516 13.7754C30.8497 13.7753 30.8479 13.7754 30.8457 13.7754H30.8437ZM24.4902 14.0742C25.1195 14.0737 25.6315 14.5836 25.6309 15.2129C25.6305 15.8415 25.1188 16.3502 24.4902 16.3496C23.8623 16.3492 23.3539 15.8408 23.3535 15.2129C23.3529 14.5843 23.8616 14.0746 24.4902 14.0742ZM30.8437 14.3379C30.7857 14.3424 30.7406 14.3909 30.7402 14.4492C30.7396 14.512 30.7888 14.5629 30.8516 14.5625C30.9135 14.562 30.9636 14.5112 30.9629 14.4492C30.9624 14.388 30.9128 14.3383 30.8516 14.3379C30.8497 14.3378 30.8479 14.3378 30.8457 14.3379H30.8437ZM30.834 14.9004C30.7796 14.908 30.7399 14.9569 30.7402 15.0117C30.7396 15.0745 30.7888 15.1254 30.8516 15.125C30.9135 15.1245 30.9636 15.0737 30.9629 15.0117C30.9624 14.9505 30.9128 14.9008 30.8516 14.9004C30.844 14.8998 30.8435 14.8998 30.8359 14.9004H30.834ZM30.834 15.4629C30.7796 15.4705 30.7399 15.519 30.7402 15.5742C30.7407 15.6362 30.7892 15.6859 30.8516 15.6855C30.9128 15.6851 30.9625 15.6354 30.9629 15.5742C30.9624 15.513 30.9128 15.4636 30.8516 15.4629C30.844 15.4623 30.8435 15.4623 30.8359 15.4629H30.834ZM30.8535 16.0234C30.7908 16.0228 30.7399 16.074 30.7402 16.1367C30.7407 16.1987 30.7912 16.2488 30.8535 16.248C30.9147 16.2476 30.9641 16.1979 30.9648 16.1367C30.9654 16.0747 30.9159 16.0242 30.8535 16.0234ZM18.9277 16.3008C18.0441 16.3008 17.3282 17.0168 17.3281 17.9004C17.3282 18.784 18.0441 19.5 18.9277 19.5C19.8113 19.5 20.5273 18.784 20.5273 17.9004C20.5273 17.0168 19.8113 16.3008 18.9277 16.3008ZM30.8437 16.5859C30.7849 16.5904 30.7395 16.6398 30.7402 16.6992C30.7407 16.7612 30.7892 16.8113 30.8516 16.8105C30.9128 16.8101 30.9625 16.7604 30.9629 16.6992C30.9635 16.6372 30.9135 16.5867 30.8516 16.5859C30.8497 16.5859 30.8479 16.5859 30.8457 16.5859H30.8437ZM18.9277 16.7617C19.557 16.7611 20.069 17.2711 20.0684 17.9004C20.068 18.529 19.5563 19.0377 18.9277 19.0371C18.2998 19.0367 17.7914 18.5283 17.791 17.9004C17.7904 17.2718 18.2991 16.7621 18.9277 16.7617ZM30.8437 17.1484C30.7849 17.1529 30.7395 17.2023 30.7402 17.2617C30.7407 17.3237 30.7892 17.3734 30.8516 17.373C30.9128 17.3726 30.9625 17.3233 30.9629 17.2617C30.9635 17.1997 30.9135 17.1492 30.8516 17.1484C30.8497 17.1484 30.8479 17.1484 30.8457 17.1484H30.8437ZM30.8437 17.7109C30.7857 17.7154 30.7406 17.7639 30.7402 17.8223C30.7396 17.885 30.7888 17.9359 30.8516 17.9355C30.9135 17.9351 30.9636 17.8842 30.9629 17.8223C30.9624 17.761 30.9128 17.7109 30.8516 17.7109C30.8497 17.7109 30.8479 17.7109 30.8457 17.7109H30.8437ZM30.8437 18.2734C30.7857 18.2779 30.7406 18.3264 30.7402 18.3848C30.7396 18.4475 30.7888 18.4984 30.8516 18.498C30.9135 18.4976 30.9636 18.4467 30.9629 18.3848C30.9624 18.3235 30.9128 18.2738 30.8516 18.2734C30.8497 18.2733 30.8479 18.2734 30.8457 18.2734H30.8437ZM30.8437 18.8359C30.7857 18.8405 30.7406 18.8889 30.7402 18.9473C30.7396 19.01 30.7888 19.0609 30.8516 19.0605C30.9135 19.0601 30.9636 19.0092 30.9629 18.9473C30.9624 18.886 30.9128 18.8363 30.8516 18.8359C30.8497 18.8358 30.8479 18.8359 30.8457 18.8359H30.8437ZM24.4902 18.8477C23.6066 18.8477 22.8907 19.5636 22.8906 20.4473C22.8907 21.3309 23.6066 22.0469 24.4902 22.0469C25.3738 22.0469 26.0898 21.3309 26.0898 20.4473C26.0898 19.5636 25.3738 18.8477 24.4902 18.8477ZM24.4902 19.3086C25.1195 19.308 25.6315 19.818 25.6309 20.4473C25.6305 21.0759 25.1188 21.5845 24.4902 21.584C23.8623 21.5836 23.3539 21.0752 23.3535 20.4473C23.3529 19.8187 23.8616 19.309 24.4902 19.3086ZM30.834 19.3984C30.7796 19.406 30.7399 19.4546 30.7402 19.5098C30.7396 19.5725 30.7888 19.6234 30.8516 19.623C30.9135 19.6226 30.9636 19.5717 30.9629 19.5098C30.9624 19.4485 30.9128 19.3992 30.8516 19.3984C30.844 19.3979 30.8435 19.3979 30.8359 19.3984H30.834ZM30.8535 19.959C30.7908 19.9584 30.7399 20.0095 30.7402 20.0723C30.7407 20.1342 30.7912 20.1843 30.8535 20.1836C30.9147 20.1831 30.9641 20.1335 30.9648 20.0723C30.9654 20.0103 30.9159 19.9597 30.8535 19.959ZM30.8437 20.5215C30.7849 20.526 30.7395 20.5753 30.7402 20.6348C30.7407 20.6967 30.7892 20.7468 30.8516 20.7461C30.9128 20.7456 30.9625 20.696 30.9629 20.6348C30.9635 20.5728 30.9135 20.5219 30.8516 20.5215C30.8497 20.5214 30.8479 20.5215 30.8457 20.5215H30.8437ZM30.8437 21.084C30.784 21.0876 30.7395 21.1372 30.7402 21.1973C30.7407 21.2592 30.7892 21.309 30.8516 21.3086C30.9128 21.3081 30.9625 21.2589 30.9629 21.1973C30.9635 21.1353 30.9135 21.0847 30.8516 21.084C30.849 21.0839 30.8475 21.0839 30.8437 21.084ZM18.9277 21.5352C18.0441 21.5352 17.3282 22.2511 17.3281 23.1348C17.3282 24.0184 18.0441 24.7344 18.9277 24.7344C19.8113 24.7344 20.5273 24.0184 20.5273 23.1348C20.5273 22.2511 19.8113 21.5352 18.9277 21.5352ZM30.8437 21.6465C30.784 21.6501 30.7395 21.6997 30.7402 21.7598C30.7407 21.8217 30.7892 21.8718 30.8516 21.8711C30.9128 21.8706 30.9625 21.8214 30.9629 21.7598C30.9635 21.6978 30.9135 21.6472 30.8516 21.6465C30.849 21.6464 30.8475 21.6464 30.8437 21.6465ZM18.9277 21.9961C19.557 21.9955 20.069 22.5055 20.0684 23.1348C20.068 23.7634 19.5563 24.272 18.9277 24.2715C18.2998 24.2711 17.7914 23.7627 17.791 23.1348C17.7904 22.5062 18.2991 21.9965 18.9277 21.9961ZM30.8437 22.209C30.7848 22.2126 30.7406 22.2614 30.7402 22.3203C30.7396 22.383 30.7888 22.434 30.8516 22.4336C30.9135 22.4331 30.9636 22.3823 30.9629 22.3203C30.9624 22.2591 30.9128 22.2094 30.8516 22.209C30.849 22.2089 30.8475 22.2089 30.8437 22.209ZM30.8437 22.7715C30.7848 22.7751 30.7406 22.8239 30.7402 22.8828C30.7396 22.9455 30.7888 22.9965 30.8516 22.9961C30.9135 22.9956 30.9636 22.9448 30.9629 22.8828C30.9624 22.8216 30.9128 22.7719 30.8516 22.7715C30.849 22.7714 30.8475 22.7714 30.8437 22.7715ZM30.8437 23.334C30.7848 23.3376 30.7406 23.386 30.7402 23.4453C30.7396 23.508 30.7888 23.559 30.8516 23.5586C30.9135 23.5581 30.9636 23.5073 30.9629 23.4453C30.9624 23.3841 30.9128 23.3347 30.8516 23.334C30.849 23.3339 30.8475 23.3339 30.8437 23.334ZM30.834 23.8965C30.7796 23.9041 30.7399 23.953 30.7402 24.0078C30.7396 24.0705 30.7888 24.1215 30.8516 24.1211C30.9135 24.1206 30.9636 24.0698 30.9629 24.0078C30.9624 23.9466 30.9128 23.8972 30.8516 23.8965C30.844 23.8959 30.8435 23.8959 30.8359 23.8965H30.834ZM24.4902 24.082C23.6066 24.0821 22.8907 24.798 22.8906 25.6816C22.8907 26.5653 23.6066 27.2812 24.4902 27.2812C25.3738 27.2812 26.0898 26.5653 26.0898 25.6816C26.0898 24.798 25.3738 24.0821 24.4902 24.082ZM30.834 24.459C30.7796 24.4666 30.7399 24.5151 30.7402 24.5703C30.7407 24.6323 30.7892 24.6824 30.8516 24.6816C30.9128 24.6811 30.9625 24.6315 30.9629 24.5703C30.9624 24.5091 30.9128 24.4597 30.8516 24.459C30.844 24.4584 30.8435 24.4584 30.8359 24.459H30.834ZM24.4902 24.543C25.1195 24.5424 25.6315 25.0523 25.6309 25.6816C25.6305 26.3102 25.1188 26.8189 24.4902 26.8184C23.8623 26.8179 23.3539 26.3095 23.3535 25.6816C23.3529 25.0531 23.8616 24.5434 24.4902 24.543ZM30.8437 25.0195C30.784 25.0231 30.7395 25.0727 30.7402 25.1328C30.7407 25.1948 30.7892 25.2445 30.8516 25.2441C30.9128 25.2436 30.9625 25.1944 30.9629 25.1328C30.9635 25.0708 30.9135 25.0203 30.8516 25.0195C30.849 25.0195 30.8475 25.0195 30.8437 25.0195ZM30.8437 25.582C30.784 25.5856 30.7395 25.6352 30.7402 25.6953C30.7407 25.7573 30.7892 25.807 30.8516 25.8066C30.9128 25.8061 30.9625 25.7569 30.9629 25.6953C30.9635 25.6333 30.9135 25.5828 30.8516 25.582C30.849 25.582 30.8475 25.582 30.8437 25.582ZM30.8437 26.1445C30.784 26.1481 30.7395 26.1977 30.7402 26.2578C30.7407 26.3198 30.7892 26.3699 30.8516 26.3691C30.9128 26.3686 30.9625 26.3194 30.9629 26.2578C30.9635 26.1958 30.9135 26.1453 30.8516 26.1445C30.849 26.1444 30.8475 26.1444 30.8437 26.1445ZM30.8437 26.707C30.7848 26.7106 30.7406 26.759 30.7402 26.8184C30.7396 26.8811 30.7888 26.932 30.8516 26.9316C30.9135 26.9311 30.9636 26.8803 30.9629 26.8184C30.9624 26.7571 30.9128 26.7078 30.8516 26.707C30.849 26.7069 30.8475 26.7069 30.8437 26.707ZM18.9277 26.7695C18.0441 26.7696 17.3282 27.4855 17.3281 28.3691C17.3282 29.2528 18.0441 29.9687 18.9277 29.9687C19.8113 29.9687 20.5273 29.2528 20.5273 28.3691C20.5273 27.4855 19.8113 26.7696 18.9277 26.7695ZM18.9277 27.2305C19.557 27.2299 20.069 27.7398 20.0684 28.3691C20.068 28.9977 19.5563 29.5064 18.9277 29.5059C18.2998 29.5054 17.7914 28.997 17.791 28.3691C17.7904 27.7406 18.2991 27.2309 18.9277 27.2305ZM30.8437 27.2695C30.7848 27.2731 30.7406 27.3215 30.7402 27.3809C30.7396 27.4436 30.7888 27.4945 30.8516 27.4941C30.9135 27.4936 30.9636 27.4428 30.9629 27.3809C30.9624 27.3196 30.9128 27.2703 30.8516 27.2695C30.849 27.2695 30.8475 27.2695 30.8437 27.2695ZM30.8437 27.832C30.7848 27.8356 30.7406 27.8844 30.7402 27.9434C30.7396 28.0061 30.7888 28.057 30.8516 28.0566C30.9135 28.0561 30.9636 28.0053 30.9629 27.9434C30.9624 27.8821 30.9128 27.8328 30.8516 27.832C30.849 27.832 30.8475 27.832 30.8437 27.832ZM30.834 28.3945C30.7796 28.4021 30.7399 28.4511 30.7402 28.5059C30.7407 28.5678 30.7892 28.6179 30.8516 28.6172C30.9128 28.6167 30.9625 28.5671 30.9629 28.5059C30.9624 28.4446 30.9128 28.3953 30.8516 28.3945C30.844 28.394 30.8435 28.394 30.8359 28.3945H30.834ZM30.8535 28.9531C30.7908 28.9525 30.7399 29.0037 30.7402 29.0664C30.7407 29.1284 30.7912 29.1781 30.8535 29.1777C30.9147 29.1772 30.9641 29.128 30.9648 29.0664C30.9654 29.0044 30.9159 28.9539 30.8535 28.9531ZM24.4902 29.3164C23.6066 29.3164 22.8907 30.0324 22.8906 30.916C22.8907 31.7997 23.6066 32.5156 24.4902 32.5156C25.3738 32.5156 26.0898 31.7997 26.0898 30.916C26.0898 30.0324 25.3738 29.3164 24.4902 29.3164ZM30.8437 29.5156C30.784 29.5192 30.7395 29.5688 30.7402 29.6289C30.7407 29.6909 30.7892 29.741 30.8516 29.7402C30.9128 29.7397 30.9625 29.6905 30.9629 29.6289C30.9635 29.5669 30.9135 29.5164 30.8516 29.5156C30.849 29.5155 30.8475 29.5155 30.8437 29.5156ZM24.4902 29.7773C25.1195 29.7768 25.6315 30.2867 25.6309 30.916C25.6305 31.5446 25.1188 32.0533 24.4902 32.0527C23.8623 32.0523 23.3539 31.5439 23.3535 30.916C23.3529 30.2874 23.8616 29.7778 24.4902 29.7773ZM30.8437 30.0781C30.784 30.0817 30.7395 30.1313 30.7402 30.1914C30.7407 30.2534 30.7892 30.3031 30.8516 30.3027C30.9128 30.3022 30.9625 30.253 30.9629 30.1914C30.9635 30.1294 30.9135 30.0789 30.8516 30.0781C30.849 30.078 30.8475 30.078 30.8437 30.0781ZM30.8437 30.6406C30.784 30.6442 30.7395 30.6938 30.7402 30.7539C30.7407 30.8159 30.7892 30.8664 30.8516 30.8652C30.9128 30.8648 30.9625 30.8151 30.9629 30.7539C30.9635 30.6919 30.9135 30.6414 30.8516 30.6406C30.849 30.6405 30.8475 30.6405 30.8437 30.6406ZM30.8437 31.2031C30.7848 31.2067 30.7406 31.2551 30.7402 31.3144C30.7396 31.3772 30.7888 31.4281 30.8516 31.4277C30.9135 31.4272 30.9636 31.3764 30.9629 31.3144C30.9624 31.2532 30.9128 31.2039 30.8516 31.2031C30.849 31.203 30.8475 31.203 30.8437 31.2031ZM30.8437 31.7656C30.7848 31.7692 30.7406 31.818 30.7402 31.8769C30.7396 31.9397 30.7888 31.9906 30.8516 31.9902C30.9135 31.9897 30.9636 31.9389 30.9629 31.8769C30.9624 31.8157 30.9128 31.7664 30.8516 31.7656C30.849 31.7655 30.8475 31.7655 30.8437 31.7656ZM18.9277 32.0039C18.0441 32.0039 17.3282 32.7199 17.3281 33.6035C17.3282 34.4872 18.0441 35.2031 18.9277 35.2031C19.8113 35.2031 20.5273 34.4872 20.5273 33.6035C20.5273 32.7199 19.8113 32.0039 18.9277 32.0039ZM30.834 32.3281C30.7796 32.3357 30.7399 32.3843 30.7402 32.4394C30.7396 32.5022 30.7888 32.5531 30.8516 32.5527C30.9135 32.5522 30.9636 32.5014 30.9629 32.4394C30.9624 32.3782 30.9128 32.3289 30.8516 32.3281C30.844 32.3276 30.8435 32.3276 30.8359 32.3281H30.834ZM18.9277 32.4648C19.557 32.4643 20.069 32.9742 20.0684 33.6035C20.068 34.2321 19.5563 34.7408 18.9277 34.7402C18.2998 34.7398 17.7914 34.2314 17.791 33.6035C17.7904 32.9749 18.2991 32.4653 18.9277 32.4648ZM30.834 32.8906C30.7796 32.8982 30.7399 32.9472 30.7402 33.0019C30.7407 33.0639 30.7892 33.1137 30.8516 33.1133C30.9128 33.1128 30.9625 33.0636 30.9629 33.0019C30.9624 32.9407 30.9128 32.891 30.8516 32.8906C30.844 32.8901 30.8435 32.8901 30.8359 32.8906H30.834ZM30.8535 33.4512C30.7908 33.4506 30.7399 33.5017 30.7402 33.5644C30.7407 33.6264 30.7912 33.6762 30.8535 33.6758C30.9147 33.6753 30.9641 33.6261 30.9648 33.5644C30.9654 33.5025 30.9159 33.4519 30.8535 33.4512ZM30.8437 34.0137C30.784 34.0173 30.7395 34.0669 30.7402 34.1269C30.7407 34.1889 30.7892 34.239 30.8516 34.2383C30.9128 34.2378 30.9625 34.1886 30.9629 34.1269C30.9635 34.065 30.9135 34.0144 30.8516 34.0137C30.849 34.0136 30.8475 34.0136 30.8437 34.0137ZM24.4902 34.0898C23.6066 34.0899 22.8907 34.8058 22.8906 35.6894C22.8907 36.5731 23.6066 37.2891 24.4902 37.2891C25.3738 37.2891 26.0898 36.5731 26.0898 35.6894C26.0898 34.8058 25.3738 34.0899 24.4902 34.0898ZM24.4902 34.5508C25.1195 34.5502 25.6315 35.0602 25.6309 35.6894C25.6305 36.3181 25.1188 36.8267 24.4902 36.8262C23.8623 36.8258 23.3539 36.3173 23.3535 35.6894C23.3529 35.0609 23.8616 34.5512 24.4902 34.5508ZM30.8437 34.5762C30.784 34.5798 30.7395 34.6294 30.7402 34.6894C30.7407 34.7514 30.7892 34.8012 30.8516 34.8008C30.9128 34.8003 30.9625 34.7511 30.9629 34.6894C30.9635 34.6275 30.9135 34.5769 30.8516 34.5762C30.849 34.5761 30.8475 34.5761 30.8437 34.5762ZM30.8437 35.1387C30.7848 35.1423 30.7406 35.1907 30.7402 35.25C30.7396 35.3127 30.7888 35.3637 30.8516 35.3633C30.9135 35.3628 30.9636 35.312 30.9629 35.25C30.9624 35.1888 30.9128 35.1394 30.8516 35.1387C30.849 35.1386 30.8475 35.1386 30.8437 35.1387ZM30.8437 35.7012C30.7848 35.7048 30.7406 35.7535 30.7402 35.8125C30.7396 35.8752 30.7888 35.9262 30.8516 35.9258C30.9135 35.9253 30.9636 35.8745 30.9629 35.8125C30.9624 35.7513 30.9128 35.7019 30.8516 35.7012C30.849 35.7011 30.8475 35.7011 30.8437 35.7012ZM30.8437 36.2637C30.7848 36.2673 30.7406 36.316 30.7402 36.375C30.7396 36.4377 30.7888 36.4887 30.8516 36.4883C30.9135 36.4878 30.9636 36.437 30.9629 36.375C30.9624 36.3138 30.9128 36.2644 30.8516 36.2637C30.849 36.2636 30.8475 36.2636 30.8437 36.2637ZM18.9277 36.7773C18.0441 36.7774 17.3282 37.4933 17.3281 38.3769C17.3282 39.2606 18.0441 39.9766 18.9277 39.9766C19.8113 39.9766 20.5273 39.2606 20.5273 38.3769C20.5273 37.4933 19.8113 36.7774 18.9277 36.7773ZM30.8437 36.8262C30.7848 36.8298 30.7406 36.8782 30.7402 36.9375C30.7396 37.0002 30.7888 37.0512 30.8516 37.0508C30.9135 37.0503 30.9636 36.9995 30.9629 36.9375C30.9624 36.8763 30.9128 36.8269 30.8516 36.8262C30.849 36.8261 30.8475 36.8261 30.8437 36.8262ZM18.9277 37.2383C19.557 37.2377 20.069 37.7477 20.0684 38.3769C20.068 39.0056 19.5563 39.5142 18.9277 39.5137C18.2998 39.5132 17.7914 39.0048 17.791 38.3769C17.7904 37.7484 18.2991 37.2387 18.9277 37.2383ZM30.834 37.3887C30.7796 37.3963 30.7399 37.4448 30.7402 37.5C30.7407 37.562 30.7892 37.6125 30.8516 37.6113C30.9128 37.6108 30.9625 37.5612 30.9629 37.5C30.9624 37.4388 30.9128 37.3894 30.8516 37.3887C30.844 37.3881 30.8435 37.3881 30.8359 37.3887H30.834ZM30.8437 37.9492C30.784 37.9528 30.7395 38.0024 30.7402 38.0625C30.7407 38.1245 30.7892 38.1742 30.8516 38.1738C30.9128 38.1733 30.9625 38.1241 30.9629 38.0625C30.9635 38.0005 30.9135 37.95 30.8516 37.9492C30.849 37.9492 30.8475 37.9492 30.8437 37.9492ZM30.8437 38.5117C30.784 38.5153 30.7395 38.5649 30.7402 38.625C30.7407 38.687 30.7892 38.7371 30.8516 38.7363C30.9128 38.7358 30.9625 38.6866 30.9629 38.625C30.9635 38.563 30.9135 38.5125 30.8516 38.5117C30.849 38.5116 30.8475 38.5116 30.8437 38.5117ZM30.8437 39.0742C30.784 39.0778 30.7395 39.1274 30.7402 39.1875C30.7407 39.2495 30.7892 39.2992 30.8516 39.2988C30.9128 39.2983 30.9625 39.2491 30.9629 39.1875C30.9635 39.1255 30.9135 39.075 30.8516 39.0742C30.849 39.0741 30.8475 39.0741 30.8437 39.0742ZM30.8437 39.6367C30.7848 39.6403 30.7406 39.6887 30.7402 39.748C30.7396 39.8108 30.7888 39.8617 30.8516 39.8613C30.9135 39.8608 30.9636 39.81 30.9629 39.748C30.9624 39.6868 30.9128 39.6375 30.8516 39.6367C30.849 39.6366 30.8475 39.6366 30.8437 39.6367ZM30.8437 40.1992C30.7848 40.2028 30.7406 40.2516 30.7402 40.3105C30.7396 40.3733 30.7888 40.4242 30.8516 40.4238C30.9135 40.4233 30.9636 40.3725 30.9629 40.3105C30.9624 40.2493 30.9128 40.2 30.8516 40.1992C30.849 40.1991 30.8475 40.1991 30.8437 40.1992ZM30.8437 40.7617C30.7848 40.7653 30.7406 40.8141 30.7402 40.873C30.7396 40.9358 30.7888 40.9867 30.8516 40.9863C30.9135 40.9858 30.9636 40.935 30.9629 40.873C30.9624 40.8118 30.9128 40.7625 30.8516 40.7617C30.849 40.7616 30.8475 40.7616 30.8437 40.7617ZM30.834 41.3242C30.7796 41.3318 30.7399 41.3804 30.7402 41.4355C30.7396 41.4983 30.7888 41.5492 30.8516 41.5488C30.9135 41.5483 30.9636 41.4975 30.9629 41.4355C30.9624 41.3743 30.9128 41.325 30.8516 41.3242C30.844 41.3236 30.8435 41.3236 30.8359 41.3242H30.834ZM30.834 41.8867C30.7796 41.8943 30.7399 41.9429 30.7402 41.998C30.7407 42.06 30.7892 42.1101 30.8516 42.1094C30.9128 42.1089 30.9625 42.0596 30.9629 41.998C30.9624 41.9368 30.9128 41.8875 30.8516 41.8867C30.844 41.8861 30.8435 41.8861 30.8359 41.8867H30.834ZM30.8535 42.4473C30.7908 42.4467 30.7399 42.4978 30.7402 42.5605C30.7407 42.6225 30.7912 42.6722 30.8535 42.6719C30.9147 42.6714 30.9641 42.6221 30.9648 42.5605C30.9654 42.4986 30.9159 42.448 30.8535 42.4473ZM30.8437 43.0098C30.784 43.0134 30.7395 43.063 30.7402 43.123C30.7407 43.185 30.7892 43.2347 30.8516 43.2344C30.9128 43.2339 30.9625 43.1846 30.9629 43.123C30.9635 43.0611 30.9135 43.0105 30.8516 43.0098C30.849 43.0096 30.8475 43.0096 30.8437 43.0098Z" fill="#333333"/>
</svg>
