<svg width="48" height="48" viewBox="0 0 48 48" fill="none" xmlns="http://www.w3.org/2000/svg">
<g clip-path="url(#clip0)">
<path fill-rule="evenodd" clip-rule="evenodd" d="M0.00390625 0.0195312V48.0195H48.0039V0.0195312H0.00390625ZM14.1504 4.01953H33.8555C34.7249 4.01953 35.4238 4.71845 35.4238 5.58789V42.4492C35.4238 43.3187 34.7249 44.0195 33.8555 44.0195H14.1504C13.2809 44.0195 12.582 43.3187 12.582 42.4492V5.58789C12.582 4.71845 13.2809 4.01953 14.1504 4.01953ZM30.8477 4.75391C30.7887 4.75769 30.7426 4.8059 30.7422 4.86523C30.7416 4.92797 30.7927 4.97889 30.8555 4.97851C30.9175 4.97776 30.9676 4.92722 30.9668 4.86523C30.9663 4.80401 30.9167 4.75466 30.8555 4.75391C30.8529 4.75383 30.8515 4.75383 30.8477 4.75391ZM30.8477 5.31641C30.7887 5.31981 30.7426 5.3684 30.7422 5.42773C30.7416 5.49047 30.7927 5.54139 30.8555 5.54101C30.9175 5.54064 30.9676 5.48972 30.9668 5.42773C30.9663 5.36651 30.9167 5.31716 30.8555 5.31641C30.8529 5.31633 30.8515 5.31633 30.8477 5.31641ZM30.8477 5.87891C30.7887 5.88231 30.7426 5.9309 30.7422 5.99023C30.7416 6.05297 30.7927 6.10389 30.8555 6.10351C30.9175 6.10276 30.9676 6.05222 30.9668 5.99023C30.9663 5.92938 30.9167 5.87966 30.8555 5.87891C30.8529 5.87883 30.8515 5.87883 30.8477 5.87891ZM30.8359 6.44141C30.7815 6.44896 30.7418 6.49755 30.7422 6.55273C30.7427 6.61472 30.7931 6.66444 30.8555 6.66406C30.9167 6.66331 30.9664 6.61434 30.9668 6.55273C30.9663 6.49151 30.9167 6.44216 30.8555 6.44141C30.8479 6.44084 30.8455 6.44084 30.8379 6.44141H30.8359ZM30.8555 7.00195C30.7927 7.00157 30.7418 7.05249 30.7422 7.11523C30.7427 7.17722 30.7931 7.22694 30.8555 7.22656C30.9167 7.22618 30.966 7.17684 30.9668 7.11523C30.9674 7.05325 30.9178 7.00271 30.8555 7.00195ZM30.8477 7.56445C30.7879 7.56823 30.7414 7.61764 30.7422 7.67773C30.7427 7.73934 30.7931 7.78944 30.8555 7.78906C30.9167 7.78868 30.9664 7.73934 30.9668 7.67773C30.9674 7.61575 30.9174 7.56521 30.8555 7.56445C30.8529 7.56434 30.8515 7.56434 30.8477 7.56445ZM30.8477 8.12695C30.7879 8.13073 30.7414 8.18014 30.7422 8.24023C30.7427 8.30222 30.7931 8.35194 30.8555 8.35156C30.9167 8.35081 30.9664 8.30184 30.9668 8.24023C30.9674 8.17825 30.9174 8.12771 30.8555 8.12695C30.8529 8.12688 30.8515 8.12688 30.8477 8.12695ZM30.8477 8.68945C30.7879 8.69323 30.7414 8.74264 30.7422 8.80273C30.7427 8.86472 30.7931 8.91444 30.8555 8.91406C30.9167 8.91331 30.9664 8.86434 30.9668 8.80273C30.9674 8.74075 30.9174 8.69021 30.8555 8.68945C30.8529 8.68938 30.8515 8.68938 30.8477 8.68945ZM30.8477 9.25195C30.7887 9.25535 30.7426 9.30394 30.7422 9.36328C30.7416 9.42602 30.7927 9.47694 30.8555 9.47656C30.9175 9.47618 30.9676 9.42527 30.9668 9.36328C30.9663 9.30243 30.9167 9.25271 30.8555 9.25195C30.8529 9.25188 30.8515 9.25188 30.8477 9.25195ZM25.3242 9.25976V9.26172C25.082 9.26512 24.8413 9.36256 24.6582 9.55078L22.8496 11.4082C22.4835 11.7843 22.4907 12.3818 22.8672 12.748C23.2434 13.1142 23.8409 13.1061 24.207 12.7285L26.0156 10.8691C26.3818 10.4927 26.3745 9.89553 25.998 9.5293C25.8099 9.34637 25.5664 9.25636 25.3242 9.25976ZM30.8477 9.81641C30.7887 9.81981 30.7426 9.86839 30.7422 9.92773C30.7416 9.99047 30.7927 10.0414 30.8555 10.041C30.9175 10.0403 30.9676 9.98972 30.9668 9.92773C30.9663 9.86651 30.9167 9.81716 30.8555 9.81641C30.8529 9.81629 30.8515 9.81629 30.8477 9.81641ZM30.8359 10.3789C30.7815 10.3865 30.7418 10.4351 30.7422 10.4902C30.7416 10.553 30.7927 10.6039 30.8555 10.6035C30.9175 10.6028 30.9676 10.5522 30.9668 10.4902C30.9663 10.429 30.9167 10.3797 30.8555 10.3789C30.8479 10.3783 30.8455 10.3783 30.8379 10.3789H30.8359ZM30.8555 10.9395C30.7927 10.9391 30.7418 10.99 30.7422 11.0527C30.7427 11.1143 30.7931 11.1644 30.8555 11.1641C30.9167 11.1637 30.966 11.1143 30.9668 11.0527C30.9674 10.9907 30.9178 10.9402 30.8555 10.9395ZM19.7617 11.0723C19.5195 11.0757 19.2788 11.1751 19.0957 11.3633L17.2871 13.2207C16.921 13.5968 16.9282 14.1943 17.3047 14.5605C17.6809 14.9281 18.2784 14.9186 18.6445 14.541L20.4531 12.6816C20.8193 12.3052 20.812 11.708 20.4355 11.3418C20.2474 11.1589 20.0039 11.0689 19.7617 11.0723ZM30.8555 11.502C30.7927 11.5016 30.7418 11.5525 30.7422 11.6152C30.7427 11.6768 30.7931 11.7273 30.8555 11.7266C30.9167 11.7262 30.966 11.6765 30.9668 11.6152C30.9674 11.5532 30.9178 11.5027 30.8555 11.502ZM30.8477 12.0645C30.7879 12.0682 30.7414 12.1176 30.7422 12.1777C30.7427 12.2401 30.7931 12.2898 30.8555 12.2891C30.9167 12.2883 30.9664 12.239 30.9668 12.1777C30.9674 12.1157 30.9174 12.0652 30.8555 12.0645C30.8529 12.0643 30.8515 12.0643 30.8477 12.0645ZM30.8477 12.627C30.7879 12.6307 30.7414 12.6801 30.7422 12.7402C30.7427 12.8022 30.7931 12.8523 30.8555 12.8516C30.9167 12.8508 30.9664 12.8015 30.9668 12.7402C30.9674 12.6782 30.9174 12.6273 30.8555 12.627C30.8529 12.6269 30.8515 12.6269 30.8477 12.627ZM30.8477 13.1895C30.7887 13.1929 30.7426 13.2414 30.7422 13.3008C30.7416 13.3635 30.7927 13.4144 30.8555 13.4141C30.9175 13.4137 30.9676 13.3628 30.9668 13.3008C30.9663 13.2396 30.9167 13.1902 30.8555 13.1895C30.8529 13.1894 30.8515 13.1894 30.8477 13.1895ZM30.8477 13.752C30.7887 13.7554 30.7426 13.8039 30.7422 13.8633C30.7416 13.926 30.7927 13.9769 30.8555 13.9766C30.9175 13.9758 30.9676 13.9253 30.9668 13.8633C30.9663 13.8024 30.9167 13.7527 30.8555 13.752C30.8529 13.7519 30.8515 13.7519 30.8477 13.752ZM25.3301 13.7715C25.0879 13.7749 24.8471 13.8723 24.6641 14.0605L22.8555 15.918C22.4893 16.294 22.4966 16.8916 22.873 17.2578C23.2493 17.6234 23.8468 17.6178 24.2129 17.2402L26.0215 15.3809C26.3876 15.0045 26.3803 14.4073 26.0039 14.041C25.8158 13.8581 25.5723 13.7681 25.3301 13.7715ZM30.8477 14.3164C30.7887 14.3202 30.7426 14.3688 30.7422 14.4277C30.7416 14.4905 30.7927 14.5414 30.8555 14.541C30.9175 14.5403 30.9676 14.4897 30.9668 14.4277C30.9663 14.3665 30.9167 14.3168 30.8555 14.3164C30.8529 14.3163 30.8515 14.3163 30.8477 14.3164ZM30.8359 14.8789C30.7815 14.8865 30.7418 14.9354 30.7422 14.9902C30.7416 15.053 30.7927 15.1039 30.8555 15.1035C30.9175 15.1028 30.9676 15.0522 30.9668 14.9902C30.9663 14.929 30.9167 14.8793 30.8555 14.8789C30.8479 14.8783 30.8455 14.8783 30.8379 14.8789H30.8359ZM30.8359 15.4414C30.7815 15.449 30.7418 15.4976 30.7422 15.5527C30.7427 15.6147 30.7931 15.6644 30.8555 15.6641C30.9167 15.6633 30.9664 15.614 30.9668 15.5527C30.9663 15.4915 30.9167 15.4422 30.8555 15.4414C30.8479 15.4408 30.8455 15.4408 30.8379 15.4414H30.8359ZM30.8555 16.002C30.7927 16.0016 30.7418 16.0525 30.7422 16.1152C30.7427 16.1772 30.7931 16.2273 30.8555 16.2266C30.9167 16.2258 30.966 16.1765 30.9668 16.1152C30.9674 16.0532 30.9178 16.0027 30.8555 16.002ZM19.7617 16.334C19.5195 16.3374 19.2788 16.4348 19.0957 16.623L17.2871 18.4805C16.921 18.8565 16.9282 19.4541 17.3047 19.8203C17.6809 20.1878 18.2784 20.1803 18.6445 19.8027L20.4531 17.9434C20.8193 17.5669 20.812 16.9697 20.4355 16.6035C20.2474 16.4206 20.0039 16.3306 19.7617 16.334ZM30.8477 16.5645C30.7879 16.5682 30.7414 16.6176 30.7422 16.6777C30.7427 16.7397 30.7931 16.7898 30.8555 16.7891C30.9167 16.7883 30.9664 16.739 30.9668 16.6777C30.9674 16.6157 30.9174 16.5652 30.8555 16.5645C30.8529 16.5644 30.8515 16.5644 30.8477 16.5645ZM30.8477 17.127C30.7879 17.1307 30.7414 17.1801 30.7422 17.2402C30.7427 17.3022 30.7931 17.3519 30.8555 17.3516C30.9167 17.3508 30.9664 17.3018 30.9668 17.2402C30.9674 17.1782 30.9174 17.1277 30.8555 17.127C30.8529 17.1269 30.8515 17.1269 30.8477 17.127ZM30.8477 17.6895C30.7887 17.6929 30.7426 17.7418 30.7422 17.8008C30.7416 17.8635 30.7927 17.9144 30.8555 17.9141C30.9175 17.9133 30.9676 17.8628 30.9668 17.8008C30.9663 17.7396 30.9167 17.6898 30.8555 17.6895C30.8529 17.6894 30.8515 17.6894 30.8477 17.6895ZM30.8477 18.252C30.7887 18.2557 30.7426 18.3043 30.7422 18.3633C30.7416 18.426 30.7927 18.4769 30.8555 18.4766C30.9175 18.4762 30.9676 18.4253 30.9668 18.3633C30.9663 18.3021 30.9167 18.2523 30.8555 18.252C30.8529 18.2518 30.8515 18.2518 30.8477 18.252ZM30.8477 18.8145C30.7887 18.8182 30.7426 18.8668 30.7422 18.9258C30.7416 18.9885 30.7927 19.0394 30.8555 19.0391C30.9175 19.0383 30.9676 18.9878 30.9668 18.9258C30.9663 18.8646 30.9167 18.8148 30.8555 18.8145C30.8529 18.8143 30.8515 18.8143 30.8477 18.8145ZM25.3301 18.9863C25.0879 18.9897 24.8471 19.0872 24.6641 19.2754L22.8555 21.1328C22.4893 21.5089 22.4966 22.1064 22.873 22.4727C23.2493 22.8382 23.8468 22.8327 24.2129 22.4551L26.0215 20.5957C26.3876 20.2193 26.3803 19.6221 26.0039 19.2559C25.8158 19.0729 25.5723 18.9829 25.3301 18.9863ZM30.8359 19.377C30.7815 19.3845 30.7418 19.4331 30.7422 19.4883C30.7416 19.551 30.7927 19.6019 30.8555 19.6016C30.9175 19.6008 30.9676 19.5503 30.9668 19.4883C30.9663 19.4271 30.9167 19.3777 30.8555 19.377C30.8479 19.3764 30.8455 19.3764 30.8379 19.377H30.8359ZM30.8555 19.9375C30.7927 19.9371 30.7418 19.988 30.7422 20.0508C30.7427 20.1131 30.7931 20.1629 30.8555 20.1621C30.9167 20.1614 30.966 20.112 30.9668 20.0508C30.9674 19.9888 30.9178 19.9383 30.8555 19.9375ZM30.8477 20.5C30.7879 20.5038 30.7414 20.5532 30.7422 20.6133C30.7427 20.6753 30.7931 20.7254 30.8555 20.7246C30.9167 20.7239 30.9664 20.6745 30.9668 20.6133C30.9674 20.5513 30.9174 20.5004 30.8555 20.5C30.8529 20.4999 30.8515 20.4999 30.8477 20.5ZM30.8477 21.0625C30.7879 21.0663 30.7414 21.1157 30.7422 21.1758C30.7427 21.2378 30.7931 21.2875 30.8555 21.2871C30.9167 21.2864 30.9664 21.2374 30.9668 21.1758C30.9674 21.1138 30.9174 21.0633 30.8555 21.0625C30.8529 21.0624 30.8515 21.0624 30.8477 21.0625ZM19.7617 21.5937C19.5195 21.5971 19.2788 21.6946 19.0957 21.8828L17.2871 23.7402C16.921 24.1163 16.9282 24.7138 17.3047 25.0801C17.6809 25.4456 18.2784 25.4401 18.6445 25.0625L20.4531 23.2031C20.8193 22.8267 20.812 22.2295 20.4355 21.8633C20.2474 21.6804 20.0039 21.5903 19.7617 21.5937ZM30.8477 21.623C30.7879 21.6268 30.7414 21.6762 30.7422 21.7363C30.7427 21.7983 30.7931 21.848 30.8555 21.8477C30.9167 21.8473 30.9664 21.7979 30.9668 21.7363C30.9674 21.6743 30.9174 21.6238 30.8555 21.623C30.8529 21.623 30.8515 21.623 30.8477 21.623ZM30.8477 22.1855C30.7887 22.1893 30.7426 22.2379 30.7422 22.2969C30.7416 22.3596 30.7927 22.4105 30.8555 22.4102C30.9175 22.4094 30.9676 22.3589 30.9668 22.2969C30.9663 22.2356 30.9167 22.1859 30.8555 22.1855C30.8529 22.1854 30.8515 22.1854 30.8477 22.1855ZM30.8477 22.748C30.7887 22.7518 30.7426 22.8004 30.7422 22.8594C30.7416 22.9221 30.7927 22.973 30.8555 22.9727C30.9175 22.9719 30.9676 22.9214 30.9668 22.8594C30.9663 22.7981 30.9167 22.7484 30.8555 22.748C30.8529 22.7479 30.8515 22.7479 30.8477 22.748ZM30.8477 23.3105C30.7887 23.3143 30.7426 23.3625 30.7422 23.4219C30.7416 23.4846 30.7927 23.5355 30.8555 23.5352C30.9175 23.5344 30.9676 23.4839 30.9668 23.4219C30.9663 23.3606 30.9167 23.3113 30.8555 23.3105C30.8529 23.3105 30.8515 23.3105 30.8477 23.3105ZM30.8359 23.873C30.7815 23.8806 30.7418 23.9292 30.7422 23.9844C30.7416 24.0471 30.7927 24.098 30.8555 24.0977C30.9175 24.0973 30.9676 24.0464 30.9668 23.9844C30.9663 23.9235 30.9167 23.8738 30.8555 23.873C30.8479 23.8725 30.8455 23.8725 30.8379 23.873H30.8359ZM25.3301 24.1992V24.2012C25.0879 24.2046 24.8471 24.302 24.6641 24.4902L22.8555 26.3477C22.4893 26.7237 22.4966 27.3213 22.873 27.6875C23.2493 28.0531 23.8468 28.0455 24.2129 27.668L26.0215 25.8086C26.3876 25.4322 26.3803 24.835 26.0039 24.4687C25.8158 24.2858 25.5723 24.1958 25.3301 24.1992ZM30.8359 24.4355C30.7815 24.4431 30.7418 24.4917 30.7422 24.5469C30.7427 24.6089 30.7931 24.659 30.8555 24.6582C30.9167 24.6574 30.9664 24.6081 30.9668 24.5469C30.9663 24.4856 30.9167 24.4363 30.8555 24.4355C30.8479 24.435 30.8455 24.435 30.8379 24.4355H30.8359ZM30.8477 24.9961C30.7879 24.9999 30.7414 25.0493 30.7422 25.1094C30.7427 25.1714 30.7931 25.2211 30.8555 25.2207C30.9167 25.2199 30.9664 25.171 30.9668 25.1094C30.9674 25.0474 30.9174 24.9968 30.8555 24.9961C30.8529 24.996 30.8515 24.996 30.8477 24.9961ZM30.8477 25.5586C30.7879 25.5624 30.7414 25.6118 30.7422 25.6719C30.7427 25.7335 30.7931 25.7836 30.8555 25.7832C30.9167 25.7828 30.9664 25.7335 30.9668 25.6719C30.9674 25.6099 30.9174 25.5593 30.8555 25.5586C30.8529 25.5585 30.8515 25.5585 30.8477 25.5586ZM30.8477 26.1211C30.7879 26.1249 30.7414 26.1743 30.7422 26.2344C30.7427 26.2964 30.7931 26.3461 30.8555 26.3457C30.9167 26.3453 30.9664 26.296 30.9668 26.2344C30.9674 26.1724 30.9174 26.1218 30.8555 26.1211C30.8529 26.121 30.8515 26.121 30.8477 26.1211ZM30.8477 26.6836C30.7887 26.6874 30.7426 26.7356 30.7422 26.7949C30.7416 26.8577 30.7927 26.9086 30.8555 26.9082C30.9175 26.9074 30.9676 26.8569 30.9668 26.7949C30.9663 26.7337 30.9167 26.6843 30.8555 26.6836C30.8529 26.6835 30.8515 26.6835 30.8477 26.6836ZM19.7617 26.8496V26.8516C19.5195 26.855 19.2788 26.9524 19.0957 27.1406L17.2871 28.998C16.921 29.3741 16.9282 29.9717 17.3047 30.3379C17.6809 30.7054 18.2784 30.6959 18.6445 30.3184L20.4531 28.459C20.8193 28.0825 20.812 27.4854 20.4355 27.1191C20.2474 26.9362 20.0039 26.8462 19.7617 26.8496ZM30.8477 27.2461C30.7887 27.2499 30.7426 27.2981 30.7422 27.3574C30.7416 27.4202 30.7927 27.4711 30.8555 27.4707C30.9175 27.4699 30.9676 27.4194 30.9668 27.3574C30.9663 27.2962 30.9167 27.2468 30.8555 27.2461C30.8529 27.246 30.8515 27.246 30.8477 27.2461ZM30.8477 27.8086C30.7887 27.812 30.7426 27.8606 30.7422 27.9199C30.7416 27.9827 30.7927 28.0336 30.8555 28.0332C30.9175 28.0328 30.9676 27.9819 30.9668 27.9199C30.9663 27.8587 30.9167 27.8093 30.8555 27.8086C30.8529 27.8085 30.8515 27.8085 30.8477 27.8086ZM30.8359 28.3711C30.7815 28.3786 30.7418 28.4272 30.7422 28.4824C30.7427 28.5444 30.7931 28.5945 30.8555 28.5937C30.9167 28.593 30.9664 28.5436 30.9668 28.4824C30.9663 28.4216 30.9167 28.3718 30.8555 28.3711C30.8479 28.3705 30.8455 28.3705 30.8379 28.3711H30.8359ZM30.8555 28.9316C30.7927 28.9313 30.7418 28.9822 30.7422 29.0449C30.7427 29.1069 30.7931 29.1566 30.8555 29.1562C30.9167 29.1555 30.966 29.1065 30.9668 29.0449C30.9674 28.9829 30.9178 28.9324 30.8555 28.9316ZM25.3301 29.4141V29.416C25.0879 29.4194 24.8471 29.5169 24.6641 29.7051L22.8555 31.5625C22.4893 31.9386 22.4966 32.5361 22.873 32.9023C23.2493 33.2679 23.8468 33.2604 24.2129 32.8828L26.0215 31.0234C26.3876 30.647 26.3803 30.0498 26.0039 29.6836C25.8158 29.5007 25.5723 29.4107 25.3301 29.4141ZM30.8477 29.4941C30.7879 29.4979 30.7414 29.5473 30.7422 29.6074C30.7427 29.6694 30.7931 29.7191 30.8555 29.7187C30.9167 29.7184 30.9664 29.669 30.9668 29.6074C30.9674 29.5454 30.9174 29.4949 30.8555 29.4941C30.8529 29.4941 30.8515 29.4941 30.8477 29.4941ZM30.8477 30.0566C30.7879 30.0604 30.7414 30.1098 30.7422 30.1699C30.7427 30.2315 30.7931 30.2816 30.8555 30.2812C30.9167 30.2809 30.9664 30.2315 30.9668 30.1699C30.9674 30.1079 30.9174 30.0574 30.8555 30.0566C30.8529 30.0566 30.8515 30.0566 30.8477 30.0566ZM30.8477 30.6191C30.7879 30.6229 30.7414 30.6723 30.7422 30.7324C30.7427 30.7944 30.7931 30.8445 30.8555 30.8437C30.9167 30.8434 30.9664 30.7936 30.9668 30.7324C30.9674 30.6704 30.9174 30.6199 30.8555 30.6191C30.8529 30.619 30.8515 30.619 30.8477 30.6191ZM30.8477 31.1816C30.7887 31.1854 30.7426 31.2336 30.7422 31.293C30.7416 31.3557 30.7927 31.4066 30.8555 31.4062C30.9175 31.4055 30.9676 31.3549 30.9668 31.293C30.9663 31.2317 30.9167 31.1824 30.8555 31.1816C30.8529 31.1815 30.8515 31.1815 30.8477 31.1816ZM30.8477 31.7441C30.7887 31.7475 30.7426 31.7961 30.7422 31.8555C30.7416 31.9182 30.7927 31.9691 30.8555 31.9687C30.9175 31.9684 30.9676 31.9174 30.9668 31.8555C30.9663 31.7946 30.9167 31.7449 30.8555 31.7441C30.8529 31.7441 30.8515 31.7441 30.8477 31.7441ZM19.7617 32.1094V32.1113C19.5195 32.1147 19.2788 32.2122 19.0957 32.4004L17.2871 34.2578C16.921 34.6338 16.9282 35.2314 17.3047 35.5977C17.6809 35.9652 18.2784 35.9557 18.6445 35.5781L20.4531 33.7187C20.8193 33.3423 20.812 32.7451 20.4355 32.3789C20.2474 32.196 20.0039 32.106 19.7617 32.1094ZM30.8359 32.3066C30.7815 32.3142 30.7418 32.3628 30.7422 32.418C30.7416 32.4807 30.7927 32.5316 30.8555 32.5312C30.9175 32.5309 30.9676 32.4799 30.9668 32.418C30.9663 32.3567 30.9167 32.3074 30.8555 32.3066C30.8479 32.3061 30.8455 32.3061 30.8379 32.3066H30.8359ZM30.8359 32.8691C30.7815 32.8767 30.7418 32.9257 30.7422 32.9805C30.7427 33.0424 30.7931 33.0922 30.8555 33.0918C30.9167 33.091 30.9664 33.0421 30.9668 32.9805C30.9663 32.9196 30.9167 32.8695 30.8555 32.8691C30.8479 32.8686 30.8455 32.8686 30.8379 32.8691H30.8359ZM30.8555 33.4297C30.7927 33.4293 30.7418 33.4802 30.7422 33.543C30.7427 33.6046 30.7931 33.6547 30.8555 33.6543C30.9167 33.6539 30.966 33.6046 30.9668 33.543C30.9674 33.481 30.9178 33.4304 30.8555 33.4297ZM30.8477 33.9922C30.7879 33.996 30.7414 34.0454 30.7422 34.1055C30.7427 34.1674 30.7931 34.2172 30.8555 34.2168C30.9167 34.2164 30.9664 34.1671 30.9668 34.1055C30.9674 34.0435 30.9174 33.9929 30.8555 33.9922C30.8529 33.9921 30.8515 33.9921 30.8477 33.9922ZM30.8477 34.5547C30.7879 34.5585 30.7414 34.6079 30.7422 34.668C30.7427 34.7296 30.7931 34.7797 30.8555 34.7793C30.9167 34.7789 30.9664 34.7296 30.9668 34.668C30.9674 34.606 30.9174 34.5554 30.8555 34.5547C30.8529 34.5546 30.8515 34.5546 30.8477 34.5547ZM23.793 35.0254V35.0273C23.5508 35.0307 23.31 35.1282 23.127 35.3164L21.3184 37.1738C20.9522 37.5499 20.9595 38.1474 21.3359 38.5137C21.7122 38.8812 22.3097 38.8717 22.6758 38.4941L24.4844 36.6348C24.8505 36.2583 24.8432 35.6612 24.4668 35.2949C24.2787 35.112 24.0352 35.022 23.793 35.0254ZM30.8477 35.1172C30.7887 35.121 30.7426 35.1692 30.7422 35.2285C30.7416 35.2913 30.7927 35.3422 30.8555 35.3418C30.9175 35.341 30.9676 35.2905 30.9668 35.2285C30.9663 35.1673 30.9167 35.1179 30.8555 35.1172C30.8529 35.1171 30.8515 35.1171 30.8477 35.1172ZM30.8477 35.6797C30.7887 35.6831 30.7426 35.7317 30.7422 35.791C30.7416 35.8538 30.7927 35.9047 30.8555 35.9043C30.9175 35.9039 30.9676 35.853 30.9668 35.791C30.9663 35.7298 30.9167 35.6804 30.8555 35.6797C30.8529 35.6796 30.8515 35.6796 30.8477 35.6797ZM30.8477 36.2422C30.7887 36.2456 30.7426 36.2942 30.7422 36.3535C30.7416 36.4163 30.7927 36.4672 30.8555 36.4668C30.9175 36.4664 30.9676 36.4155 30.9668 36.3535C30.9663 36.2927 30.9167 36.2429 30.8555 36.2422C30.8529 36.2421 30.8515 36.2421 30.8477 36.2422ZM30.8477 36.8047C30.7887 36.8081 30.7426 36.8567 30.7422 36.916C30.7416 36.9788 30.7927 37.0297 30.8555 37.0293C30.9175 37.0285 30.9676 36.978 30.9668 36.916C30.9663 36.8548 30.9167 36.8054 30.8555 36.8047C30.8529 36.8046 30.8515 36.8046 30.8477 36.8047ZM30.8359 37.3672C30.7815 37.3747 30.7418 37.4233 30.7422 37.4785C30.7427 37.5405 30.7931 37.5906 30.8555 37.5898C30.9167 37.5895 30.9664 37.5397 30.9668 37.4785C30.9663 37.4173 30.9167 37.3679 30.8555 37.3672C30.8479 37.3666 30.8455 37.3666 30.8379 37.3672H30.8359ZM30.8477 37.9277C30.7879 37.9315 30.7414 37.9809 30.7422 38.041C30.7427 38.1026 30.7931 38.1527 30.8555 38.1523C30.9167 38.152 30.9664 38.1026 30.9668 38.041C30.9674 37.979 30.9174 37.9285 30.8555 37.9277C30.8529 37.9277 30.8515 37.9277 30.8477 37.9277ZM30.8477 38.4902C30.7879 38.494 30.7414 38.5434 30.7422 38.6035C30.7427 38.6655 30.7931 38.7152 30.8555 38.7148C30.9167 38.7145 30.9664 38.6651 30.9668 38.6035C30.9674 38.5415 30.9174 38.491 30.8555 38.4902C30.8529 38.4901 30.8515 38.4901 30.8477 38.4902ZM30.8477 39.0527C30.7879 39.0565 30.7414 39.1059 30.7422 39.166C30.7427 39.228 30.7931 39.2777 30.8555 39.2773C30.9167 39.2766 30.9664 39.2276 30.9668 39.166C30.9674 39.104 30.9174 39.0535 30.8555 39.0527C30.8529 39.0526 30.8515 39.0526 30.8477 39.0527ZM30.8477 39.6152C30.7887 39.619 30.7426 39.6672 30.7422 39.7266C30.7416 39.7893 30.7927 39.8402 30.8555 39.8398C30.9175 39.8391 30.9676 39.7885 30.9668 39.7266C30.9663 39.6653 30.9167 39.616 30.8555 39.6152C30.8529 39.6152 30.8515 39.6152 30.8477 39.6152ZM30.8477 40.1777C30.7887 40.1811 30.7426 40.2297 30.7422 40.2891C30.7416 40.3518 30.7927 40.4027 30.8555 40.4023C30.9175 40.402 30.9676 40.351 30.9668 40.2891C30.9663 40.2278 30.9167 40.1785 30.8555 40.1777C30.8529 40.1777 30.8515 40.1777 30.8477 40.1777ZM30.8477 40.7402C30.7887 40.7436 30.7426 40.7922 30.7422 40.8516C30.7416 40.9143 30.7927 40.9652 30.8555 40.9648C30.9175 40.9641 30.9676 40.9135 30.9668 40.8516C30.9663 40.7907 30.9167 40.741 30.8555 40.7402C30.8529 40.7402 30.8515 40.7402 30.8477 40.7402ZM30.8359 41.3027C30.7815 41.3103 30.7418 41.3589 30.7422 41.4141C30.7416 41.4768 30.7927 41.5277 30.8555 41.5273C30.9175 41.5266 30.9676 41.476 30.9668 41.4141C30.9663 41.3528 30.9167 41.3035 30.8555 41.3027C30.8479 41.3022 30.8455 41.3022 30.8379 41.3027H30.8359ZM30.8359 41.8652C30.7815 41.8728 30.7418 41.9214 30.7422 41.9766C30.7427 42.0385 30.7931 42.0883 30.8555 42.0879C30.9167 42.0875 30.9664 42.0382 30.9668 41.9766C30.9663 41.9153 30.9167 41.866 30.8555 41.8652C30.8479 41.8647 30.8455 41.8647 30.8379 41.8652H30.8359ZM30.8555 42.4258C30.7927 42.4254 30.7418 42.4763 30.7422 42.5391C30.7427 42.6007 30.7931 42.6508 30.8555 42.6504C30.9167 42.65 30.966 42.6007 30.9668 42.5391C30.9674 42.4771 30.9178 42.4265 30.8555 42.4258ZM30.8477 42.9883C30.7879 42.9921 30.7414 43.0415 30.7422 43.1016C30.7427 43.1635 30.7931 43.2133 30.8555 43.2129C30.9167 43.2121 30.9664 43.1632 30.9668 43.1016C30.9674 43.0396 30.9174 42.989 30.8555 42.9883C30.8529 42.9882 30.8515 42.9882 30.8477 42.9883Z" fill="#333333"/>
</g>
<defs>
<clipPath id="clip0">
<rect width="48" height="48" fill="white"/>
</clipPath>
</defs>
</svg>
