<svg width="48" height="48" viewBox="0 0 48 48" fill="none" xmlns="http://www.w3.org/2000/svg">
<g clip-path="url(#clip0)">
<path fill-rule="evenodd" clip-rule="evenodd" d="M0 0V48H48V0H0ZM23.997 3.986C27.265 3.976 30.533 3.976 33.851 4.019C34.721 4.019 35.419 4.719 35.419 5.588V42.449C35.419 43.319 34.72 44.019 33.851 44.019H14.146C13.276 44.019 12.579 43.319 12.579 42.449V5.588C12.579 4.718 13.276 4.019 14.146 4.019C17.462 4.019 20.73 3.997 23.997 3.986ZM19.991 5.054C19.9762 5.05492 19.9618 5.05874 19.9485 5.06524C19.9352 5.07175 19.9233 5.0808 19.9135 5.0919C19.9037 5.103 19.8962 5.11591 19.8914 5.12992C19.8866 5.14392 19.8846 5.15873 19.8855 5.1735C19.8864 5.18827 19.8902 5.20272 19.8967 5.21602C19.9032 5.22932 19.9123 5.2412 19.9234 5.251C19.9345 5.2608 19.9474 5.26831 19.9614 5.27312C19.9754 5.27792 19.9902 5.27992 20.005 5.279C20.0347 5.27714 20.0625 5.26356 20.0821 5.24125C20.1018 5.21893 20.1119 5.1897 20.11 5.16C20.1081 5.1303 20.0946 5.10255 20.0722 5.08285C20.0499 5.06316 20.0207 5.05314 19.991 5.055V5.054ZM27.991 5.054C27.9762 5.05492 27.9618 5.05874 27.9485 5.06524C27.9352 5.07175 27.9233 5.0808 27.9135 5.0919C27.9037 5.103 27.8962 5.11591 27.8914 5.12992C27.8866 5.14392 27.8846 5.15873 27.8855 5.1735C27.8864 5.18827 27.8902 5.20272 27.8967 5.21602C27.9032 5.22932 27.9123 5.2412 27.9234 5.251C27.9345 5.2608 27.9474 5.26831 27.9614 5.27312C27.9754 5.27792 27.9902 5.27992 28.005 5.279C28.0347 5.27714 28.0625 5.26356 28.0821 5.24125C28.1018 5.21893 28.1119 5.1897 28.11 5.16C28.1081 5.1303 28.0946 5.10255 28.0722 5.08285C28.0499 5.06316 28.0207 5.05314 27.991 5.055V5.054ZM19.991 5.617C19.9755 5.617 19.9602 5.62018 19.946 5.62634C19.9318 5.63249 19.9191 5.6415 19.9085 5.6528C19.8979 5.6641 19.8898 5.67745 19.8846 5.69202C19.8794 5.70659 19.8772 5.72208 19.8783 5.73752C19.8793 5.75295 19.8835 5.76802 19.8906 5.78177C19.8976 5.79552 19.9075 5.80767 19.9195 5.81747C19.9314 5.82727 19.9453 5.8345 19.9602 5.83872C19.9751 5.84294 19.9907 5.84405 20.006 5.842C20.0344 5.83819 20.0603 5.82373 20.0785 5.80154C20.0966 5.77935 20.1057 5.75109 20.1037 5.72248C20.1018 5.69388 20.0891 5.66707 20.0682 5.64748C20.0473 5.6279 20.0197 5.617 19.991 5.617ZM27.991 5.617C27.9755 5.617 27.9602 5.62018 27.946 5.62634C27.9318 5.63249 27.9191 5.6415 27.9085 5.6528C27.8979 5.6641 27.8898 5.67745 27.8846 5.69202C27.8794 5.70659 27.8772 5.72208 27.8783 5.73752C27.8793 5.75295 27.8835 5.76802 27.8906 5.78177C27.8976 5.79552 27.9075 5.80767 27.9195 5.81747C27.9314 5.82727 27.9453 5.8345 27.9602 5.83872C27.9751 5.84294 27.9907 5.84405 28.006 5.842C28.0344 5.83819 28.0603 5.82373 28.0785 5.80154C28.0966 5.77935 28.1057 5.75109 28.1037 5.72248C28.1018 5.69388 28.0891 5.66707 28.0682 5.64748C28.0473 5.6279 28.0197 5.617 27.991 5.617ZM17.577 6.121C17.4524 6.12294 17.3295 6.14947 17.2152 6.19907C17.1009 6.24866 16.9975 6.32035 16.911 6.41L15.103 8.267C15.016 8.35613 14.9475 8.46157 14.9014 8.57727C14.8553 8.69296 14.8325 8.81663 14.8344 8.94116C14.8362 9.06569 14.8627 9.18862 14.9122 9.30289C14.9618 9.41716 15.0334 9.52051 15.123 9.607C15.2121 9.69394 15.3174 9.76247 15.433 9.80868C15.5485 9.85488 15.6721 9.87785 15.7965 9.87627C15.921 9.87469 16.0439 9.8486 16.1583 9.79948C16.2726 9.75035 16.3762 9.67917 16.463 9.59L18.271 7.73C18.4025 7.59609 18.4912 7.42605 18.5257 7.24155C18.5602 7.05706 18.539 6.86647 18.4647 6.69408C18.3905 6.52169 18.2666 6.37531 18.1089 6.2736C17.9511 6.1719 17.7667 6.11947 17.579 6.123H17.577V6.121ZM24.859 6.121C24.7344 6.12294 24.6115 6.14947 24.4972 6.19907C24.3829 6.24866 24.2795 6.32035 24.193 6.41L22.384 8.267C22.297 8.35613 22.2285 8.46157 22.1824 8.57727C22.1363 8.69296 22.1135 8.81663 22.1154 8.94116C22.1172 9.06569 22.1437 9.18862 22.1932 9.30289C22.2428 9.41716 22.3144 9.52051 22.404 9.607C22.4931 9.69394 22.5984 9.76247 22.714 9.80868C22.8295 9.85488 22.9531 9.87785 23.0775 9.87627C23.202 9.87469 23.3249 9.8486 23.4393 9.79948C23.5536 9.75035 23.6572 9.67917 23.744 9.59L25.552 7.73C25.6835 7.59615 25.7721 7.4262 25.8066 7.2418C25.8412 7.05741 25.82 6.8669 25.7459 6.69455C25.6718 6.52221 25.5481 6.37582 25.3905 6.27403C25.2329 6.17225 25.0486 6.11967 24.861 6.123H24.859V6.121ZM32.139 6.121C32.0146 6.12307 31.8918 6.14967 31.7777 6.19926C31.6636 6.24885 31.5604 6.32046 31.474 6.41L29.665 8.267C29.578 8.35613 29.5095 8.46157 29.4634 8.57727C29.4173 8.69296 29.3945 8.81663 29.3964 8.94116C29.3982 9.06569 29.4247 9.18862 29.4742 9.30289C29.5238 9.41716 29.5954 9.52051 29.685 9.607C29.7741 9.69394 29.8794 9.76247 29.995 9.80868C30.1105 9.85488 30.2341 9.87785 30.3585 9.87627C30.483 9.87469 30.6059 9.8486 30.7203 9.79948C30.8346 9.75035 30.9382 9.67917 31.025 9.59L32.833 7.73C32.9645 7.59615 33.0531 7.4262 33.0876 7.2418C33.1222 7.05741 33.101 6.8669 33.0269 6.69455C32.9528 6.52221 32.8291 6.37582 32.6715 6.27403C32.5139 6.17225 32.3296 6.11967 32.142 6.123H32.14V6.121H32.139ZM19.982 6.18C19.9555 6.1834 19.9311 6.19634 19.9135 6.2164C19.8958 6.23646 19.886 6.26227 19.886 6.289C19.886 6.351 19.936 6.403 19.999 6.402C20.06 6.402 20.11 6.35 20.111 6.289C20.111 6.27438 20.1081 6.25992 20.1024 6.24644C20.0968 6.23296 20.0885 6.22074 20.0781 6.2105C20.0676 6.20026 20.0553 6.1922 20.0417 6.18679C20.0281 6.18138 20.0136 6.17873 19.999 6.179H19.982V6.18ZM27.982 6.18C27.9555 6.1834 27.9311 6.19634 27.9135 6.2164C27.8958 6.23646 27.886 6.26227 27.886 6.289C27.886 6.351 27.936 6.403 27.999 6.402C28.06 6.402 28.11 6.35 28.111 6.289C28.111 6.27438 28.1081 6.25992 28.1024 6.24644C28.0968 6.23296 28.0885 6.22074 28.0781 6.2105C28.0676 6.20026 28.0553 6.1922 28.0417 6.18679C28.0281 6.18138 28.0136 6.17873 27.999 6.179H27.982V6.18ZM20.002 6.74C19.9863 6.73852 19.9705 6.74033 19.9556 6.74531C19.9407 6.75029 19.927 6.75834 19.9153 6.76893C19.9037 6.77952 19.8944 6.79242 19.888 6.80681C19.8817 6.8212 19.8784 6.83677 19.8784 6.8525C19.8784 6.86823 19.8817 6.8838 19.888 6.89819C19.8944 6.91258 19.9037 6.92548 19.9153 6.93607C19.927 6.94666 19.9407 6.95471 19.9556 6.95969C19.9705 6.96467 19.9863 6.96648 20.002 6.965C20.0318 6.965 20.0605 6.95315 20.0815 6.93205C20.1026 6.91095 20.1145 6.88234 20.1145 6.8525C20.1145 6.82266 20.1026 6.79405 20.0815 6.77295C20.0605 6.75185 20.0318 6.74 20.002 6.74ZM28.002 6.74C27.9863 6.73852 27.9705 6.74033 27.9556 6.74531C27.9407 6.75029 27.927 6.75834 27.9153 6.76893C27.9037 6.77952 27.8944 6.79242 27.888 6.80681C27.8817 6.8212 27.8784 6.83677 27.8784 6.8525C27.8784 6.86823 27.8817 6.8838 27.888 6.89819C27.8944 6.91258 27.9037 6.92548 27.9153 6.93607C27.927 6.94666 27.9407 6.95471 27.9556 6.95969C27.9705 6.96467 27.9863 6.96648 28.002 6.965C28.0318 6.965 28.0605 6.95315 28.0815 6.93205C28.1026 6.91095 28.1145 6.88234 28.1145 6.8525C28.1145 6.82266 28.1026 6.79405 28.0815 6.77295C28.0605 6.75185 28.0318 6.74 28.002 6.74ZM19.992 7.303C19.9632 7.30454 19.9361 7.31716 19.9163 7.33821C19.8966 7.35927 19.8857 7.38713 19.886 7.416C19.886 7.477 19.936 7.526 19.999 7.526C20.0136 7.52627 20.0281 7.52362 20.0417 7.51821C20.0553 7.5128 20.0676 7.50474 20.0781 7.4945C20.0885 7.48426 20.0968 7.47204 20.1024 7.45856C20.1081 7.44508 20.111 7.43061 20.111 7.416C20.1112 7.40051 20.1081 7.38515 20.1021 7.3709C20.096 7.35664 20.0871 7.3438 20.0758 7.33318C20.0645 7.32256 20.0512 7.31439 20.0366 7.3092C20.022 7.304 20.0065 7.30189 19.991 7.303H19.992ZM27.992 7.303C27.9632 7.30454 27.9361 7.31716 27.9163 7.33821C27.8966 7.35927 27.8857 7.38713 27.886 7.416C27.886 7.477 27.936 7.526 27.999 7.526C28.0136 7.52627 28.0281 7.52362 28.0417 7.51821C28.0553 7.5128 28.0676 7.50474 28.0781 7.4945C28.0885 7.48426 28.0968 7.47204 28.1024 7.45856C28.1081 7.44508 28.111 7.43061 28.111 7.416C28.1112 7.40051 28.1081 7.38515 28.1021 7.3709C28.096 7.35664 28.0871 7.3438 28.0758 7.33318C28.0645 7.32256 28.0512 7.31439 28.0366 7.3092C28.022 7.304 28.0065 7.30189 27.991 7.303H27.992ZM19.992 7.863C19.9623 7.86472 19.9345 7.87818 19.9147 7.9004C19.8949 7.92262 19.8848 7.9518 19.8865 7.9815C19.8882 8.0112 19.9017 8.03901 19.9239 8.05879C19.9461 8.07858 19.9753 8.08872 20.005 8.087C20.0347 8.08514 20.0625 8.07156 20.0821 8.04925C20.1018 8.02693 20.1119 7.9977 20.11 7.968C20.1081 7.9383 20.0946 7.91055 20.0722 7.89085C20.0499 7.87116 20.0207 7.86114 19.991 7.863H19.992ZM27.992 7.863C27.9623 7.86472 27.9345 7.87818 27.9147 7.9004C27.8949 7.92262 27.8848 7.9518 27.8865 7.9815C27.8882 8.0112 27.9017 8.03901 27.9239 8.05879C27.9461 8.07858 27.9753 8.08872 28.005 8.087C28.0347 8.08514 28.0625 8.07156 28.0821 8.04925C28.1018 8.02693 28.1119 7.9977 28.11 7.968C28.1081 7.9383 28.0946 7.91055 28.0722 7.89085C28.0499 7.87116 28.0207 7.86114 27.991 7.863H27.992ZM19.992 8.426C19.9632 8.42754 19.9361 8.44016 19.9163 8.46121C19.8966 8.48227 19.8857 8.51013 19.886 8.539C19.886 8.6 19.936 8.649 19.999 8.649C20.0136 8.64927 20.0281 8.64662 20.0417 8.64121C20.0553 8.6358 20.0676 8.62774 20.0781 8.6175C20.0885 8.60726 20.0968 8.59504 20.1024 8.58156C20.1081 8.56808 20.111 8.55361 20.111 8.539C20.1112 8.52351 20.1081 8.50815 20.1021 8.49389C20.096 8.47964 20.0871 8.46679 20.0758 8.45617C20.0645 8.44555 20.0512 8.43739 20.0366 8.4322C20.022 8.427 20.0065 8.42489 19.991 8.426H19.992ZM27.992 8.426C27.9632 8.42754 27.9361 8.44016 27.9163 8.46121C27.8966 8.48227 27.8857 8.51013 27.886 8.539C27.886 8.6 27.936 8.649 27.999 8.649C28.0136 8.64927 28.0281 8.64662 28.0417 8.64121C28.0553 8.6358 28.0676 8.62774 28.0781 8.6175C28.0885 8.60726 28.0968 8.59504 28.1024 8.58156C28.1081 8.56808 28.111 8.55361 28.111 8.539C28.1112 8.52351 28.1081 8.50815 28.1021 8.49389C28.096 8.47964 28.0871 8.46679 28.0758 8.45617C28.0645 8.44555 28.0512 8.43739 28.0366 8.4322C28.022 8.427 28.0065 8.42489 27.991 8.426H27.992ZM19.992 8.988C19.9765 8.98787 19.9611 8.99093 19.9468 8.99699C19.9326 9.00306 19.9197 9.012 19.909 9.02326C19.8983 9.03452 19.8901 9.04785 19.8848 9.06244C19.8795 9.07702 19.8773 9.09253 19.8782 9.10801C19.8792 9.1235 19.8834 9.13861 19.8904 9.15243C19.8975 9.16624 19.9073 9.17845 19.9193 9.1883C19.9313 9.19815 19.9452 9.20542 19.9601 9.20967C19.975 9.21392 19.9906 9.21505 20.006 9.213C20.0344 9.20919 20.0603 9.19473 20.0785 9.17254C20.0966 9.15035 20.1057 9.12209 20.1037 9.09348C20.1018 9.06488 20.0891 9.03807 20.0682 9.01848C20.0473 8.9989 20.0197 8.988 19.991 8.988H19.992ZM27.992 8.988C27.9765 8.98787 27.9611 8.99093 27.9468 8.99699C27.9326 9.00306 27.9197 9.012 27.909 9.02326C27.8983 9.03452 27.8901 9.04785 27.8848 9.06244C27.8795 9.07702 27.8773 9.09253 27.8782 9.10801C27.8792 9.1235 27.8834 9.13861 27.8904 9.15243C27.8975 9.16624 27.9073 9.17845 27.9193 9.1883C27.9313 9.19815 27.9452 9.20542 27.9601 9.20967C27.975 9.21392 27.9906 9.21505 28.006 9.213C28.0344 9.20919 28.0603 9.19473 28.0785 9.17254C28.0966 9.15035 28.1057 9.12209 28.1037 9.09348C28.1018 9.06488 28.0891 9.03807 28.0682 9.01848C28.0473 8.9989 28.0197 8.988 27.991 8.988H27.992ZM19.992 9.551C19.9623 9.55272 19.9345 9.56618 19.9147 9.5884C19.8949 9.61062 19.8848 9.6398 19.8865 9.6695C19.8882 9.6992 19.9017 9.72701 19.9239 9.74679C19.9461 9.76658 19.9753 9.77672 20.005 9.775C20.0347 9.77314 20.0625 9.75956 20.0821 9.73725C20.1018 9.71493 20.1119 9.6857 20.11 9.656C20.1081 9.6263 20.0946 9.59855 20.0722 9.57885C20.0499 9.55916 20.0207 9.54914 19.991 9.551H19.992ZM27.992 9.551C27.9623 9.55272 27.9345 9.56618 27.9147 9.5884C27.8949 9.61062 27.8848 9.6398 27.8865 9.6695C27.8882 9.6992 27.9017 9.72701 27.9239 9.74679C27.9461 9.76658 27.9753 9.77672 28.005 9.775C28.0347 9.77314 28.0625 9.75956 28.0821 9.73725C28.1018 9.71493 28.1119 9.6857 28.11 9.656C28.1081 9.6263 28.0946 9.59855 28.0722 9.57885C28.0499 9.55916 28.0207 9.54914 27.991 9.551H27.992ZM19.98 10.113C19.9534 10.1175 19.9294 10.1314 19.9121 10.1521C19.8949 10.1728 19.8856 10.199 19.886 10.226C19.8845 10.2417 19.8863 10.2575 19.8913 10.2724C19.8963 10.2873 19.9043 10.301 19.9149 10.3127C19.9255 10.3243 19.9384 10.3336 19.9528 10.34C19.9672 10.3463 19.9828 10.3496 19.9985 10.3496C20.0142 10.3496 20.0298 10.3463 20.0442 10.34C20.0586 10.3336 20.0715 10.3243 20.0821 10.3127C20.0927 10.301 20.1007 10.2873 20.1057 10.2724C20.1107 10.2575 20.1125 10.2417 20.111 10.226C20.1107 10.1963 20.0989 10.1678 20.078 10.1467C20.057 10.1256 20.0287 10.1135 19.999 10.113H19.98ZM27.98 10.113C27.9534 10.1175 27.9294 10.1314 27.9121 10.1521C27.8949 10.1728 27.8856 10.199 27.886 10.226C27.8845 10.2417 27.8863 10.2575 27.8913 10.2724C27.8963 10.2873 27.9043 10.301 27.9149 10.3127C27.9255 10.3243 27.9384 10.3336 27.9528 10.34C27.9672 10.3463 27.9828 10.3496 27.9985 10.3496C28.0142 10.3496 28.0298 10.3463 28.0442 10.34C28.0586 10.3336 28.0715 10.3243 28.0821 10.3127C28.0927 10.301 28.1007 10.2873 28.1057 10.2724C28.1107 10.2575 28.1125 10.2417 28.111 10.226C28.1107 10.1963 28.0989 10.1678 28.078 10.1467C28.057 10.1256 28.0287 10.1135 27.999 10.113H27.98ZM17.577 10.123C17.4524 10.1249 17.3295 10.1515 17.2152 10.2011C17.1009 10.2507 16.9975 10.3223 16.911 10.412L15.103 12.269C15.0163 12.3583 14.9481 12.4638 14.9022 12.5795C14.8563 12.6951 14.8336 12.8187 14.8355 12.9431C14.8392 13.1944 14.9427 13.434 15.123 13.609C15.3033 13.784 15.5458 13.8803 15.7971 13.8765C16.0484 13.8728 16.288 13.7693 16.463 13.589L18.271 11.73C18.4027 11.596 18.4914 11.4257 18.5258 11.2411C18.5603 11.0564 18.5389 10.8656 18.4644 10.6931C18.3899 10.5207 18.2657 10.3743 18.1076 10.2727C17.9496 10.1712 17.7648 10.1191 17.577 10.123ZM24.859 10.123C24.7344 10.1249 24.6115 10.1515 24.4972 10.2011C24.3829 10.2507 24.2795 10.3223 24.193 10.412L22.384 12.269C22.2973 12.3583 22.2291 12.4638 22.1832 12.5795C22.1373 12.6951 22.1146 12.8187 22.1165 12.9431C22.1183 13.0676 22.1447 13.1904 22.194 13.3047C22.2433 13.4189 22.3147 13.5223 22.404 13.609C22.4933 13.6957 22.5988 13.7639 22.7145 13.8098C22.8301 13.8557 22.9537 13.8784 23.0781 13.8765C23.2026 13.8747 23.3254 13.8483 23.4397 13.799C23.5539 13.7497 23.6573 13.6783 23.744 13.589L25.552 11.73C25.6836 11.596 25.7723 11.4259 25.8067 11.2413C25.8412 11.0567 25.8199 10.866 25.7456 10.6936C25.6712 10.5212 25.5472 10.3748 25.3893 10.2732C25.2313 10.1715 25.0467 10.1193 24.859 10.123ZM32.139 10.123C32.0146 10.1251 31.8918 10.1517 31.7777 10.2013C31.6636 10.2508 31.5604 10.3225 31.474 10.412L29.665 12.269C29.5783 12.3583 29.5101 12.4638 29.4642 12.5795C29.4183 12.6951 29.3956 12.8187 29.3975 12.9431C29.3993 13.0676 29.4257 13.1904 29.475 13.3047C29.5243 13.4189 29.5957 13.5223 29.685 13.609C29.7743 13.6957 29.8798 13.7639 29.9955 13.8098C30.1111 13.8557 30.2347 13.8784 30.3591 13.8765C30.4836 13.8747 30.6064 13.8483 30.7207 13.799C30.8349 13.7497 30.9383 13.6783 31.025 13.589L32.833 11.73C32.9646 11.596 33.0533 11.4259 33.0877 11.2413C33.1222 11.0567 33.1009 10.866 33.0266 10.6936C32.9522 10.5212 32.8282 10.3748 32.6703 10.2732C32.5123 10.1715 32.3277 10.1193 32.14 10.123H32.139ZM20.001 10.673C19.9859 10.6731 19.9711 10.6762 19.9572 10.6822C19.9434 10.6881 19.9308 10.6967 19.9203 10.7074C19.9098 10.7182 19.9016 10.731 19.896 10.745C19.8905 10.759 19.8877 10.7739 19.888 10.789C19.888 10.851 19.938 10.899 20.001 10.899C20.0156 10.8993 20.0301 10.8966 20.0437 10.8912C20.0573 10.8858 20.0697 10.8777 20.0801 10.8675C20.0905 10.8573 20.0988 10.845 20.1044 10.8316C20.1101 10.8181 20.113 10.8036 20.113 10.789C20.1133 10.7589 20.1016 10.73 20.0807 10.7084C20.0597 10.6869 20.0311 10.6745 20.001 10.674V10.673ZM28.001 10.673C27.9859 10.6731 27.9711 10.6762 27.9572 10.6822C27.9434 10.6881 27.9308 10.6967 27.9203 10.7074C27.9098 10.7182 27.9016 10.731 27.896 10.745C27.8905 10.759 27.8877 10.7739 27.888 10.789C27.888 10.851 27.938 10.899 28.001 10.899C28.0156 10.8993 28.0301 10.8966 28.0437 10.8912C28.0573 10.8858 28.0697 10.8777 28.0801 10.8675C28.0905 10.8573 28.0988 10.845 28.1044 10.8316C28.1101 10.8181 28.113 10.8036 28.113 10.789C28.1133 10.7589 28.1016 10.73 28.0807 10.7084C28.0597 10.6869 28.0311 10.6745 28.001 10.674V10.673ZM20.001 11.236C19.971 11.236 19.9423 11.2479 19.9211 11.2691C19.8999 11.2903 19.888 11.319 19.888 11.349C19.888 11.411 19.938 11.462 20.001 11.461C20.063 11.46 20.111 11.411 20.113 11.349C20.1131 11.3342 20.1103 11.3195 20.1048 11.3058C20.0992 11.2921 20.091 11.2797 20.0806 11.2692C20.0701 11.2586 20.0577 11.2503 20.0441 11.2446C20.0304 11.2389 20.0158 11.236 20.001 11.236ZM28.001 11.236C27.971 11.236 27.9423 11.2479 27.9211 11.2691C27.8999 11.2903 27.888 11.319 27.888 11.349C27.888 11.411 27.938 11.462 28.001 11.461C28.063 11.46 28.111 11.411 28.113 11.349C28.1131 11.3342 28.1103 11.3195 28.1048 11.3058C28.0992 11.2921 28.091 11.2797 28.0806 11.2692C28.0701 11.2586 28.0577 11.2503 28.0441 11.2446C28.0304 11.2389 28.0158 11.236 28.001 11.236ZM19.991 11.799C19.9627 11.8025 19.9367 11.8164 19.9182 11.8381C19.8997 11.8598 19.8899 11.8877 19.891 11.9162C19.892 11.9447 19.9036 11.9718 19.9236 11.9921C19.9436 12.0124 19.9705 12.0245 19.999 12.026C20.06 12.024 20.11 11.973 20.111 11.912C20.1112 11.8965 20.1081 11.8812 20.1021 11.8669C20.096 11.8526 20.0871 11.8398 20.0758 11.8292C20.0645 11.8186 20.0512 11.8104 20.0366 11.8052C20.022 11.8 20.0065 11.7979 19.991 11.799ZM27.991 11.799C27.9627 11.8025 27.9367 11.8164 27.9182 11.8381C27.8997 11.8598 27.8899 11.8877 27.891 11.9162C27.892 11.9447 27.9036 11.9718 27.9236 11.9921C27.9436 12.0124 27.9705 12.0245 27.999 12.026C28.06 12.024 28.11 11.973 28.111 11.912C28.1112 11.8965 28.1081 11.8812 28.1021 11.8669C28.096 11.8526 28.0871 11.8398 28.0758 11.8292C28.0645 11.8186 28.0512 11.8104 28.0366 11.8052C28.022 11.8 28.0065 11.7979 27.991 11.799ZM19.991 12.361C19.9627 12.3645 19.9367 12.3784 19.9182 12.4001C19.8997 12.4218 19.8899 12.4497 19.891 12.4782C19.892 12.5067 19.9036 12.5338 19.9236 12.5541C19.9436 12.5744 19.9705 12.5865 19.999 12.588C20.06 12.587 20.11 12.536 20.111 12.474C20.1111 12.4592 20.1083 12.4445 20.1028 12.4308C20.0972 12.4171 20.089 12.4047 20.0786 12.3942C20.0681 12.3836 20.0557 12.3753 20.0421 12.3696C20.0284 12.3639 20.0138 12.361 19.999 12.361H19.991ZM27.991 12.361C27.9627 12.3645 27.9367 12.3784 27.9182 12.4001C27.8997 12.4218 27.8899 12.4497 27.891 12.4782C27.892 12.5067 27.9036 12.5338 27.9236 12.5541C27.9436 12.5744 27.9705 12.5865 27.999 12.588C28.06 12.587 28.11 12.536 28.111 12.474C28.1111 12.4592 28.1083 12.4445 28.1028 12.4308C28.0972 12.4171 28.089 12.4047 28.0786 12.3942C28.0681 12.3836 28.0557 12.3753 28.0421 12.3696C28.0284 12.3639 28.0138 12.361 27.999 12.361H27.991ZM19.991 12.924C19.9614 12.925 19.9334 12.9377 19.913 12.9592C19.8926 12.9807 19.8815 13.0093 19.882 13.0389C19.8825 13.0685 19.8947 13.0968 19.9158 13.1175C19.9369 13.1383 19.9654 13.1499 19.995 13.1499C20.0246 13.1499 20.0531 13.1383 20.0742 13.1175C20.0953 13.0968 20.1075 13.0685 20.108 13.0389C20.1085 13.0093 20.0974 12.9807 20.077 12.9592C20.0566 12.9377 20.0286 12.925 19.999 12.924H19.991ZM27.991 12.924C27.9614 12.925 27.9334 12.9377 27.913 12.9592C27.8926 12.9807 27.8815 13.0093 27.882 13.0389C27.8825 13.0685 27.8947 13.0968 27.9158 13.1175C27.9369 13.1383 27.9654 13.1499 27.995 13.1499C28.0246 13.1499 28.0531 13.1383 28.0742 13.1175C28.0953 13.0968 28.1075 13.0685 28.108 13.0389C28.1085 13.0093 28.0974 12.9807 28.077 12.9592C28.0566 12.9377 28.0286 12.925 27.999 12.924H27.991ZM19.991 13.486C19.9617 13.487 19.9339 13.4996 19.9137 13.5209C19.8935 13.5422 19.8825 13.5706 19.883 13.5999C19.8835 13.6293 19.8956 13.6573 19.9165 13.6778C19.9375 13.6984 19.9656 13.7099 19.995 13.7099C20.0244 13.7099 20.0525 13.6984 20.0735 13.6778C20.0944 13.6573 20.1065 13.6293 20.107 13.5999C20.1075 13.5706 20.0965 13.5422 20.0763 13.5209C20.0561 13.4996 20.0283 13.487 19.999 13.486H19.991ZM27.991 13.486C27.9617 13.487 27.9339 13.4996 27.9137 13.5209C27.8935 13.5422 27.8825 13.5706 27.883 13.5999C27.8835 13.6293 27.8956 13.6573 27.9165 13.6778C27.9375 13.6984 27.9656 13.7099 27.995 13.7099C28.0244 13.7099 28.0525 13.6984 28.0735 13.6778C28.0944 13.6573 28.1065 13.6293 28.107 13.5999C28.1075 13.5706 28.0965 13.5422 28.0763 13.5209C28.0561 13.4996 28.0283 13.487 27.999 13.486H27.991ZM19.991 14.049C19.9751 14.0482 19.9592 14.0508 19.9443 14.0566C19.9295 14.0625 19.9161 14.0713 19.9049 14.0827C19.8937 14.0941 19.8851 14.1077 19.8796 14.1226C19.874 14.1376 19.8717 14.1535 19.8728 14.1694C19.8739 14.1853 19.8783 14.2008 19.8857 14.2149C19.8932 14.229 19.9036 14.2413 19.9162 14.2511C19.9288 14.2609 19.9433 14.2679 19.9587 14.2716C19.9742 14.2754 19.9903 14.2759 20.006 14.273C20.0333 14.268 20.0577 14.2531 20.0747 14.2312C20.0918 14.2093 20.1001 14.182 20.0983 14.1543C20.0964 14.1267 20.0845 14.1006 20.0647 14.0812C20.0449 14.0618 20.0187 14.0503 19.991 14.049ZM27.991 14.049C27.9751 14.0482 27.9592 14.0508 27.9443 14.0566C27.9295 14.0625 27.9161 14.0713 27.9049 14.0827C27.8937 14.0941 27.8851 14.1077 27.8796 14.1226C27.874 14.1376 27.8717 14.1535 27.8728 14.1694C27.8739 14.1853 27.8783 14.2008 27.8857 14.2149C27.8932 14.229 27.9036 14.2413 27.9162 14.2511C27.9288 14.2609 27.9433 14.2679 27.9587 14.2716C27.9742 14.2754 27.9903 14.2759 28.006 14.273C28.0333 14.268 28.0577 14.2531 28.0747 14.2312C28.0918 14.2093 28.1001 14.182 28.0983 14.1543C28.0964 14.1267 28.0845 14.1006 28.0647 14.0812C28.0449 14.0618 28.0187 14.0503 27.991 14.049ZM17.577 14.123V14.125C17.4524 14.1269 17.3295 14.1535 17.2152 14.2031C17.1009 14.2527 16.9975 14.3243 16.911 14.414L15.103 16.271C15.0163 16.3603 14.9481 16.4658 14.9022 16.5815C14.8563 16.6971 14.8336 16.8207 14.8355 16.9451C14.8392 17.1964 14.9427 17.436 15.123 17.611C15.3033 17.786 15.5458 17.8823 15.7971 17.8785C16.0484 17.8748 16.288 17.7713 16.463 17.591L18.27 15.732C18.357 15.6429 18.4255 15.5374 18.4716 15.4217C18.5177 15.306 18.5405 15.1824 18.5386 15.0578C18.5368 14.9333 18.5103 14.8104 18.4608 14.6961C18.4112 14.5818 18.3396 14.4785 18.25 14.392C18.161 14.3048 18.0556 14.236 17.94 14.1897C17.8243 14.1433 17.7006 14.1203 17.576 14.122L17.577 14.123ZM24.859 14.123V14.125C24.7344 14.1269 24.6115 14.1535 24.4972 14.2031C24.3829 14.2527 24.2795 14.3243 24.193 14.414L22.384 16.271C22.2973 16.3603 22.2291 16.4658 22.1832 16.5815C22.1373 16.6971 22.1146 16.8207 22.1165 16.9451C22.1183 17.0696 22.1447 17.1924 22.194 17.3067C22.2433 17.4209 22.3147 17.5243 22.404 17.611C22.4933 17.6977 22.5988 17.7659 22.7145 17.8118C22.8301 17.8577 22.9537 17.8804 23.0781 17.8785C23.2026 17.8767 23.3254 17.8503 23.4397 17.801C23.5539 17.7517 23.6573 17.6803 23.744 17.591L25.552 15.732C25.639 15.6429 25.7075 15.5374 25.7536 15.4217C25.7997 15.306 25.8225 15.1824 25.8206 15.0578C25.8188 14.9333 25.7923 14.8104 25.7428 14.6961C25.6932 14.5818 25.6216 14.4785 25.532 14.392C25.4431 14.3049 25.3379 14.2362 25.2224 14.1899C25.1069 14.1435 24.9834 14.1205 24.859 14.122V14.123ZM32.139 14.123V14.125C32.0146 14.1271 31.8918 14.1537 31.7777 14.2033C31.6636 14.2528 31.5604 14.3245 31.474 14.414L29.665 16.271C29.5783 16.3603 29.5101 16.4658 29.4642 16.5815C29.4183 16.6971 29.3956 16.8207 29.3975 16.9451C29.3993 17.0696 29.4257 17.1924 29.475 17.3067C29.5243 17.4209 29.5957 17.5243 29.685 17.611C29.7743 17.6977 29.8798 17.7659 29.9955 17.8118C30.1111 17.8577 30.2347 17.8804 30.3591 17.8785C30.4836 17.8767 30.6064 17.8503 30.7207 17.801C30.8349 17.7517 30.9383 17.6803 31.025 17.591L32.833 15.732C32.92 15.6429 32.9885 15.5374 33.0346 15.4217C33.0807 15.306 33.1035 15.1824 33.1016 15.0578C33.0998 14.9333 33.0733 14.8104 33.0238 14.6961C32.9742 14.5818 32.9026 14.4785 32.813 14.392C32.7241 14.3049 32.6189 14.2362 32.5034 14.1899C32.3879 14.1435 32.2644 14.1205 32.14 14.122L32.139 14.123ZM19.979 14.611C19.9528 14.6153 19.929 14.6289 19.9119 14.6492C19.8948 14.6696 19.8856 14.6954 19.886 14.722C19.8856 14.7442 19.8918 14.766 19.9038 14.7847C19.9158 14.8033 19.9331 14.818 19.9535 14.8268C19.9739 14.8356 19.9964 14.8382 20.0182 14.8341C20.0401 14.8301 20.0602 14.8197 20.0761 14.8042C20.092 14.7888 20.103 14.7689 20.1076 14.7472C20.1122 14.7255 20.1102 14.7029 20.1019 14.6823C20.0937 14.6617 20.0795 14.644 20.0611 14.6315C20.0428 14.619 20.0212 14.6122 19.999 14.612H19.98L19.979 14.611ZM27.979 14.611C27.9528 14.6153 27.929 14.6289 27.9119 14.6492C27.8948 14.6696 27.8856 14.6954 27.886 14.722C27.8856 14.7442 27.8918 14.766 27.9038 14.7847C27.9158 14.8033 27.9331 14.818 27.9535 14.8268C27.9739 14.8356 27.9964 14.8382 28.0182 14.8341C28.0401 14.8301 28.0602 14.8197 28.0761 14.8042C28.092 14.7888 28.103 14.7689 28.1076 14.7472C28.1122 14.7255 28.1102 14.7029 28.1019 14.6823C28.0937 14.6617 28.0795 14.644 28.0611 14.6315C28.0428 14.619 28.0212 14.6122 27.999 14.612H27.98L27.979 14.611ZM19.979 15.176C19.953 15.1801 19.9294 15.1933 19.9123 15.2133C19.8953 15.2333 19.8859 15.2587 19.886 15.285C19.886 15.347 19.936 15.399 19.999 15.398C20.06 15.398 20.11 15.346 20.111 15.285C20.111 15.2704 20.1081 15.2559 20.1024 15.2424C20.0968 15.229 20.0885 15.2167 20.0781 15.2065C20.0676 15.1963 20.0553 15.1882 20.0417 15.1828C20.0281 15.1774 20.0136 15.1747 19.999 15.175H19.98L19.979 15.176ZM27.979 15.176C27.953 15.1801 27.9294 15.1933 27.9123 15.2133C27.8953 15.2333 27.8859 15.2587 27.886 15.285C27.886 15.347 27.936 15.399 27.999 15.398C28.06 15.398 28.11 15.346 28.111 15.285C28.111 15.2704 28.1081 15.2559 28.1024 15.2424C28.0968 15.229 28.0885 15.2167 28.0781 15.2065C28.0676 15.1963 28.0553 15.1882 28.0417 15.1828C28.0281 15.1774 28.0136 15.1747 27.999 15.175H27.98L27.979 15.176ZM20.001 15.736C19.971 15.736 19.9423 15.7479 19.9211 15.7691C19.8999 15.7903 19.888 15.819 19.888 15.849C19.8882 15.8711 19.8949 15.8926 19.9073 15.9108C19.9197 15.9291 19.9372 15.9433 19.9576 15.9517C19.978 15.96 20.0005 15.9621 20.0221 15.9578C20.0437 15.9534 20.0636 15.9428 20.0792 15.9272C20.0948 15.9116 20.1054 15.8917 20.1098 15.8701C20.1141 15.8485 20.112 15.826 20.1037 15.8056C20.0953 15.7852 20.0811 15.7677 20.0628 15.7553C20.0446 15.7429 20.0231 15.7362 20.001 15.736ZM28.001 15.736C27.971 15.736 27.9423 15.7479 27.9211 15.7691C27.8999 15.7903 27.888 15.819 27.888 15.849C27.8882 15.8711 27.8949 15.8926 27.9073 15.9108C27.9197 15.9291 27.9372 15.9433 27.9576 15.9517C27.978 15.96 28.0005 15.9621 28.0221 15.9578C28.0437 15.9534 28.0636 15.9428 28.0792 15.9272C28.0948 15.9116 28.1054 15.8917 28.1098 15.8701C28.1141 15.8485 28.112 15.826 28.1037 15.8056C28.0953 15.7852 28.0811 15.7677 28.0628 15.7553C28.0446 15.7429 28.0231 15.7362 28.001 15.736ZM19.991 16.299C19.9617 16.3 19.9339 16.3126 19.9137 16.3339C19.8935 16.3552 19.8825 16.3836 19.883 16.4129C19.8835 16.4423 19.8956 16.4703 19.9165 16.4908C19.9375 16.5114 19.9656 16.5229 19.995 16.5229C20.0244 16.5229 20.0525 16.5114 20.0735 16.4908C20.0944 16.4703 20.1065 16.4423 20.107 16.4129C20.1075 16.3836 20.0965 16.3552 20.0763 16.3339C20.0561 16.3126 20.0283 16.3 19.999 16.299H19.991ZM27.991 16.299C27.9617 16.3 27.9339 16.3126 27.9137 16.3339C27.8935 16.3552 27.8825 16.3836 27.883 16.4129C27.8835 16.4423 27.8956 16.4703 27.9165 16.4908C27.9375 16.5114 27.9656 16.5229 27.995 16.5229C28.0244 16.5229 28.0525 16.5114 28.0735 16.4908C28.0944 16.4703 28.1065 16.4423 28.107 16.4129C28.1075 16.3836 28.0965 16.3552 28.0763 16.3339C28.0561 16.3126 28.0283 16.3 27.999 16.299H27.991ZM19.991 16.861C19.9624 16.8628 19.9355 16.8755 19.9159 16.8965C19.8964 16.9176 19.8857 16.9453 19.886 16.974C19.886 17.036 19.936 17.084 19.999 17.084C20.0136 17.0843 20.0281 17.0816 20.0417 17.0762C20.0553 17.0708 20.0676 17.0627 20.0781 17.0525C20.0885 17.0423 20.0968 17.03 20.1024 17.0166C20.1081 17.0031 20.111 16.9886 20.111 16.974C20.1111 16.9592 20.1083 16.9445 20.1028 16.9308C20.0972 16.9171 20.089 16.9047 20.0786 16.8942C20.0681 16.8837 20.0557 16.8753 20.0421 16.8696C20.0284 16.8639 20.0138 16.861 19.999 16.861H19.991ZM27.991 16.861C27.9624 16.8628 27.9355 16.8755 27.9159 16.8965C27.8964 16.9176 27.8857 16.9453 27.886 16.974C27.886 17.036 27.936 17.084 27.999 17.084C28.0136 17.0843 28.0281 17.0816 28.0417 17.0762C28.0553 17.0708 28.0676 17.0627 28.0781 17.0525C28.0885 17.0423 28.0968 17.03 28.1024 17.0166C28.1081 17.0031 28.111 16.9886 28.111 16.974C28.1111 16.9592 28.1083 16.9445 28.1028 16.9308C28.0972 16.9171 28.089 16.9047 28.0786 16.8942C28.0681 16.8837 28.0557 16.8753 28.0421 16.8696C28.0284 16.8639 28.0138 16.861 27.999 16.861H27.991ZM19.991 17.424C19.9614 17.425 19.9334 17.4377 19.913 17.4592C19.8926 17.4807 19.8815 17.5093 19.882 17.5389C19.8825 17.5686 19.8947 17.5968 19.9158 17.6175C19.9369 17.6383 19.9654 17.6499 19.995 17.6499C20.0246 17.6499 20.0531 17.6383 20.0742 17.6175C20.0953 17.5968 20.1075 17.5686 20.108 17.5389C20.1085 17.5093 20.0974 17.4807 20.077 17.4592C20.0566 17.4377 20.0286 17.425 19.999 17.424H19.991ZM27.991 17.424C27.9614 17.425 27.9334 17.4377 27.913 17.4592C27.8926 17.4807 27.8815 17.5093 27.882 17.5389C27.8825 17.5686 27.8947 17.5968 27.9158 17.6175C27.9369 17.6383 27.9654 17.6499 27.995 17.6499C28.0246 17.6499 28.0531 17.6383 28.0742 17.6175C28.0953 17.5968 28.1075 17.5686 28.108 17.5389C28.1085 17.5093 28.0974 17.4807 28.077 17.4592C28.0566 17.4377 28.0286 17.425 27.999 17.424H27.991ZM19.991 17.986C19.9613 17.9879 19.9335 18.0014 19.9139 18.0238C19.8942 18.0461 19.8841 18.0753 19.886 18.105C19.8879 18.1347 19.9014 18.1625 19.9238 18.1821C19.9461 18.2018 19.9753 18.2119 20.005 18.21C20.0197 18.2091 20.0341 18.2053 20.0473 18.1988C20.0606 18.1923 20.0724 18.1833 20.0821 18.1722C20.0919 18.1612 20.0994 18.1483 20.1042 18.1344C20.1089 18.1205 20.1109 18.1057 20.11 18.091C20.1091 18.0763 20.1053 18.0619 20.0988 18.0487C20.0923 18.0354 20.0833 18.0236 20.0722 18.0139C20.0612 18.0041 20.0483 17.9966 20.0344 17.9918C20.0205 17.9871 20.0057 17.9851 19.991 17.986ZM27.991 17.986C27.9613 17.9879 27.9335 18.0014 27.9139 18.0238C27.8942 18.0461 27.8841 18.0753 27.886 18.105C27.8879 18.1347 27.9014 18.1625 27.9238 18.1821C27.9461 18.2018 27.9753 18.2119 28.005 18.21C28.0197 18.2091 28.0341 18.2053 28.0473 18.1988C28.0606 18.1923 28.0724 18.1833 28.0821 18.1722C28.0919 18.1612 28.0994 18.1483 28.1042 18.1344C28.1089 18.1205 28.1109 18.1057 28.11 18.091C28.1091 18.0763 28.1053 18.0619 28.0988 18.0487C28.0923 18.0354 28.0833 18.0236 28.0722 18.0139C28.0612 18.0041 28.0483 17.9966 28.0344 17.9918C28.0205 17.9871 28.0057 17.9851 27.991 17.986ZM17.577 18.123V18.125C17.4524 18.1269 17.3295 18.1535 17.2152 18.2031C17.1009 18.2527 16.9975 18.3243 16.911 18.414L15.103 20.271C15.0163 20.3603 14.9481 20.4658 14.9022 20.5815C14.8563 20.6971 14.8336 20.8207 14.8355 20.9451C14.8392 21.1964 14.9427 21.436 15.123 21.611C15.3033 21.786 15.5458 21.8823 15.7971 21.8785C16.0484 21.8748 16.288 21.7713 16.463 21.591L18.27 19.732C18.357 19.6429 18.4255 19.5374 18.4716 19.4217C18.5177 19.306 18.5405 19.1824 18.5386 19.0578C18.5368 18.9333 18.5103 18.8104 18.4608 18.6961C18.4112 18.5818 18.3396 18.4785 18.25 18.392C18.161 18.3048 18.0556 18.236 17.94 18.1897C17.8243 18.1433 17.7006 18.1203 17.576 18.122L17.577 18.123ZM24.859 18.123V18.125C24.7344 18.1269 24.6115 18.1535 24.4972 18.2031C24.3829 18.2527 24.2795 18.3243 24.193 18.414L22.384 20.271C22.2973 20.3603 22.2291 20.4658 22.1832 20.5815C22.1373 20.6971 22.1146 20.8207 22.1165 20.9451C22.1183 21.0696 22.1447 21.1924 22.194 21.3067C22.2433 21.4209 22.3147 21.5243 22.404 21.611C22.4933 21.6977 22.5988 21.7659 22.7145 21.8118C22.8301 21.8577 22.9537 21.8804 23.0781 21.8785C23.2026 21.8767 23.3254 21.8503 23.4397 21.801C23.5539 21.7517 23.6573 21.6803 23.744 21.591L25.552 19.732C25.639 19.6429 25.7075 19.5374 25.7536 19.4217C25.7997 19.306 25.8225 19.1824 25.8206 19.0578C25.8188 18.9333 25.7923 18.8104 25.7428 18.6961C25.6932 18.5818 25.6216 18.4785 25.532 18.392C25.4431 18.3049 25.3379 18.2362 25.2224 18.1899C25.1069 18.1435 24.9834 18.1205 24.859 18.122V18.123ZM32.139 18.123V18.125C32.0146 18.1271 31.8918 18.1537 31.7777 18.2033C31.6636 18.2528 31.5604 18.3245 31.474 18.414L29.665 20.271C29.5783 20.3603 29.5101 20.4658 29.4642 20.5815C29.4183 20.6971 29.3956 20.8207 29.3975 20.9451C29.3993 21.0696 29.4257 21.1924 29.475 21.3067C29.5243 21.4209 29.5957 21.5243 29.685 21.611C29.7743 21.6977 29.8798 21.7659 29.9955 21.8118C30.1111 21.8577 30.2347 21.8804 30.3591 21.8785C30.4836 21.8767 30.6064 21.8503 30.7207 21.801C30.8349 21.7517 30.9383 21.6803 31.025 21.591L32.833 19.732C32.92 19.6429 32.9885 19.5374 33.0346 19.4217C33.0807 19.306 33.1035 19.1824 33.1016 19.0578C33.0998 18.9333 33.0733 18.8104 33.0238 18.6961C32.9742 18.5818 32.9026 18.4785 32.813 18.392C32.7241 18.3049 32.6189 18.2362 32.5034 18.1899C32.3879 18.1435 32.2644 18.1205 32.14 18.122L32.139 18.123ZM19.992 18.549C19.9773 18.5499 19.9629 18.5536 19.9496 18.56C19.9364 18.5664 19.9245 18.5754 19.9147 18.5864C19.9049 18.5974 19.8974 18.6102 19.8925 18.6241C19.8877 18.6381 19.8856 18.6528 19.8865 18.6675C19.8874 18.6822 19.8911 18.6966 19.8975 18.7099C19.9039 18.7231 19.9129 18.735 19.9239 18.7448C19.9349 18.7546 19.9477 18.7621 19.9616 18.767C19.9756 18.7718 19.9903 18.7739 20.005 18.773C20.0347 18.7711 20.0625 18.7576 20.0821 18.7352C20.1018 18.7129 20.1119 18.6837 20.11 18.654C20.1081 18.6243 20.0946 18.5965 20.0722 18.5769C20.0499 18.5572 20.0207 18.5471 19.991 18.549H19.992ZM27.992 18.549C27.9773 18.5499 27.9629 18.5536 27.9496 18.56C27.9364 18.5664 27.9245 18.5754 27.9147 18.5864C27.9049 18.5974 27.8974 18.6102 27.8925 18.6241C27.8877 18.6381 27.8856 18.6528 27.8865 18.6675C27.8874 18.6822 27.8911 18.6966 27.8975 18.7099C27.9039 18.7231 27.9129 18.735 27.9239 18.7448C27.9349 18.7546 27.9477 18.7621 27.9616 18.767C27.9756 18.7718 27.9903 18.7739 28.005 18.773C28.0347 18.7711 28.0625 18.7576 28.0821 18.7352C28.1018 18.7129 28.1119 18.6837 28.11 18.654C28.1081 18.6243 28.0946 18.5965 28.0722 18.5769C28.0499 18.5572 28.0207 18.5471 27.991 18.549H27.992ZM19.98 19.109C19.9534 19.1135 19.9294 19.1274 19.9121 19.1481C19.8949 19.1688 19.8856 19.195 19.886 19.222C19.886 19.2518 19.8979 19.2805 19.9189 19.3015C19.94 19.3226 19.9687 19.3345 19.9985 19.3345C20.0283 19.3345 20.057 19.3226 20.078 19.3015C20.0991 19.2805 20.111 19.2518 20.111 19.222C20.1107 19.1923 20.0989 19.1638 20.078 19.1427C20.057 19.1216 20.0287 19.1095 19.999 19.109H19.98ZM27.98 19.109C27.9534 19.1135 27.9294 19.1274 27.9121 19.1481C27.8949 19.1688 27.8856 19.195 27.886 19.222C27.886 19.2518 27.8979 19.2805 27.9189 19.3015C27.94 19.3226 27.9687 19.3345 27.9985 19.3345C28.0283 19.3345 28.057 19.3226 28.078 19.3015C28.0991 19.2805 28.111 19.2518 28.111 19.222C28.1107 19.1923 28.0989 19.1638 28.078 19.1427C28.057 19.1216 28.0287 19.1095 27.999 19.109H27.98ZM20.001 19.669C19.9861 19.669 19.9713 19.672 19.9575 19.6777C19.9437 19.6834 19.9312 19.6919 19.9207 19.7024C19.9102 19.713 19.9019 19.7256 19.8963 19.7395C19.8907 19.7533 19.8879 19.7681 19.888 19.783C19.888 19.845 19.938 19.895 20.001 19.894C20.063 19.894 20.111 19.844 20.113 19.783C20.1131 19.7682 20.1103 19.7535 20.1048 19.7398C20.0992 19.7261 20.091 19.7137 20.0806 19.7032C20.0701 19.6927 20.0577 19.6843 20.0441 19.6786C20.0304 19.6729 20.0158 19.67 20.001 19.67V19.669ZM28.001 19.669C27.9861 19.669 27.9713 19.672 27.9575 19.6777C27.9437 19.6834 27.9312 19.6919 27.9207 19.7024C27.9102 19.713 27.9019 19.7256 27.8963 19.7395C27.8907 19.7533 27.8879 19.7681 27.888 19.783C27.888 19.845 27.938 19.895 28.001 19.894C28.063 19.894 28.111 19.844 28.113 19.783C28.1131 19.7682 28.1103 19.7535 28.1048 19.7398C28.0992 19.7261 28.091 19.7137 28.0806 19.7032C28.0701 19.6927 28.0577 19.6843 28.0441 19.6786C28.0304 19.6729 28.0158 19.67 28.001 19.67V19.669ZM19.991 20.232C19.9617 20.233 19.9339 20.2456 19.9137 20.2669C19.8935 20.2882 19.8825 20.3166 19.883 20.3459C19.8835 20.3753 19.8956 20.4033 19.9165 20.4238C19.9375 20.4444 19.9656 20.4559 19.995 20.4559C20.0244 20.4559 20.0525 20.4444 20.0735 20.4238C20.0944 20.4033 20.1065 20.3753 20.107 20.3459C20.1075 20.3166 20.0965 20.2882 20.0763 20.2669C20.0561 20.2456 20.0283 20.233 19.999 20.232H19.991ZM27.991 20.232C27.9617 20.233 27.9339 20.2456 27.9137 20.2669C27.8935 20.2882 27.8825 20.3166 27.883 20.3459C27.8835 20.3753 27.8956 20.4033 27.9165 20.4238C27.9375 20.4444 27.9656 20.4559 27.995 20.4559C28.0244 20.4559 28.0525 20.4444 28.0735 20.4238C28.0944 20.4033 28.1065 20.3753 28.107 20.3459C28.1075 20.3166 28.0965 20.2882 28.0763 20.2669C28.0561 20.2456 28.0283 20.233 27.999 20.232H27.991ZM19.991 20.795C19.9763 20.7959 19.9619 20.7997 19.9487 20.8062C19.9354 20.8127 19.9236 20.8217 19.9139 20.8328C19.9041 20.8438 19.8966 20.8567 19.8918 20.8706C19.8871 20.8845 19.8851 20.8993 19.886 20.914C19.8869 20.9287 19.8907 20.9431 19.8972 20.9563C19.9037 20.9696 19.9127 20.9814 19.9238 20.9911C19.9348 21.0009 19.9477 21.0084 19.9616 21.0132C19.9755 21.0179 19.9903 21.0199 20.005 21.019C20.0347 21.0171 20.0625 21.0036 20.0821 20.9812C20.1018 20.9589 20.1119 20.9297 20.11 20.9C20.1081 20.8703 20.0946 20.8425 20.0722 20.8229C20.0499 20.8032 20.0207 20.7931 19.991 20.795ZM27.991 20.795C27.9763 20.7959 27.9619 20.7997 27.9487 20.8062C27.9354 20.8127 27.9236 20.8217 27.9139 20.8328C27.9041 20.8438 27.8966 20.8567 27.8918 20.8706C27.8871 20.8845 27.8851 20.8993 27.886 20.914C27.8869 20.9287 27.8907 20.9431 27.8972 20.9563C27.9037 20.9696 27.9127 20.9814 27.9238 20.9911C27.9348 21.0009 27.9477 21.0084 27.9616 21.0132C27.9755 21.0179 27.9903 21.0199 28.005 21.019C28.0347 21.0171 28.0625 21.0036 28.0821 20.9812C28.1018 20.9589 28.1119 20.9297 28.11 20.9C28.1081 20.8703 28.0946 20.8425 28.0722 20.8229C28.0499 20.8032 28.0207 20.7931 27.991 20.795ZM19.991 21.357C19.9617 21.358 19.9339 21.3706 19.9137 21.3919C19.8935 21.4132 19.8825 21.4416 19.883 21.4709C19.8835 21.5003 19.8956 21.5283 19.9165 21.5488C19.9375 21.5694 19.9656 21.5809 19.995 21.5809C20.0244 21.5809 20.0525 21.5694 20.0735 21.5488C20.0944 21.5283 20.1065 21.5003 20.107 21.4709C20.1075 21.4416 20.0965 21.4132 20.0763 21.3919C20.0561 21.3706 20.0283 21.358 19.999 21.357H19.991ZM27.991 21.357C27.9617 21.358 27.9339 21.3706 27.9137 21.3919C27.8935 21.4132 27.8825 21.4416 27.883 21.4709C27.8835 21.5003 27.8956 21.5283 27.9165 21.5488C27.9375 21.5694 27.9656 21.5809 27.995 21.5809C28.0244 21.5809 28.0525 21.5694 28.0735 21.5488C28.0944 21.5283 28.1065 21.5003 28.107 21.4709C28.1075 21.4416 28.0965 21.4132 28.0763 21.3919C28.0561 21.3706 28.0283 21.358 27.999 21.357H27.991ZM19.991 21.92C19.9751 21.9192 19.9592 21.9218 19.9443 21.9276C19.9295 21.9335 19.9161 21.9423 19.9049 21.9537C19.8937 21.9651 19.8851 21.9787 19.8796 21.9936C19.874 22.0086 19.8717 22.0245 19.8728 22.0404C19.8739 22.0563 19.8783 22.0718 19.8857 22.0859C19.8932 22.1 19.9036 22.1123 19.9162 22.1221C19.9288 22.1319 19.9433 22.1389 19.9587 22.1426C19.9742 22.1464 19.9903 22.1469 20.006 22.144C20.0333 22.139 20.0577 22.1241 20.0747 22.1022C20.0918 22.0804 20.1001 22.053 20.0983 22.0253C20.0964 21.9977 20.0845 21.9716 20.0647 21.9522C20.0449 21.9328 20.0187 21.9213 19.991 21.92ZM27.991 21.92C27.9751 21.9192 27.9592 21.9218 27.9443 21.9276C27.9295 21.9335 27.9161 21.9423 27.9049 21.9537C27.8937 21.9651 27.8851 21.9787 27.8796 21.9936C27.874 22.0086 27.8717 22.0245 27.8728 22.0404C27.8739 22.0563 27.8783 22.0718 27.8857 22.0859C27.8932 22.1 27.9036 22.1123 27.9162 22.1221C27.9288 22.1319 27.9433 22.1389 27.9587 22.1426C27.9742 22.1464 27.9903 22.1469 28.006 22.144C28.0333 22.139 28.0577 22.1241 28.0747 22.1022C28.0918 22.0804 28.1001 22.053 28.0983 22.0253C28.0964 21.9977 28.0845 21.9716 28.0647 21.9522C28.0449 21.9328 28.0187 21.9213 27.991 21.92ZM17.577 22.123V22.125C17.4524 22.1269 17.3295 22.1535 17.2152 22.2031C17.1009 22.2527 16.9975 22.3243 16.911 22.414L15.103 24.271C15.0163 24.3603 14.9481 24.4658 14.9022 24.5815C14.8563 24.6971 14.8336 24.8207 14.8355 24.9451C14.8392 25.1964 14.9427 25.436 15.123 25.611C15.3033 25.786 15.5458 25.8823 15.7971 25.8785C16.0484 25.8748 16.288 25.7713 16.463 25.591L18.27 23.732C18.357 23.6429 18.4255 23.5374 18.4716 23.4217C18.5177 23.306 18.5405 23.1824 18.5386 23.0578C18.5368 22.9333 18.5103 22.8104 18.4608 22.6961C18.4112 22.5818 18.3396 22.4785 18.25 22.392C18.161 22.3048 18.0556 22.236 17.94 22.1897C17.8243 22.1433 17.7006 22.1203 17.576 22.122L17.577 22.123ZM24.859 22.123V22.125C24.7344 22.1269 24.6115 22.1535 24.4972 22.2031C24.3829 22.2527 24.2795 22.3243 24.193 22.414L22.384 24.271C22.2973 24.3603 22.2291 24.4658 22.1832 24.5815C22.1373 24.6971 22.1146 24.8207 22.1165 24.9451C22.1183 25.0696 22.1447 25.1924 22.194 25.3067C22.2433 25.4209 22.3147 25.5243 22.404 25.611C22.4933 25.6977 22.5988 25.7659 22.7145 25.8118C22.8301 25.8577 22.9537 25.8804 23.0781 25.8785C23.2026 25.8767 23.3254 25.8503 23.4397 25.801C23.5539 25.7517 23.6573 25.6803 23.744 25.591L25.552 23.732C25.639 23.6429 25.7075 23.5374 25.7536 23.4217C25.7997 23.306 25.8225 23.1824 25.8206 23.0578C25.8188 22.9333 25.7923 22.8104 25.7428 22.6961C25.6932 22.5818 25.6216 22.4785 25.532 22.392C25.4431 22.3049 25.3379 22.2362 25.2224 22.1899C25.1069 22.1435 24.9834 22.1205 24.859 22.122V22.123ZM32.139 22.123V22.125C32.0146 22.1271 31.8918 22.1537 31.7777 22.2033C31.6636 22.2528 31.5604 22.3245 31.474 22.414L29.665 24.271C29.5783 24.3603 29.5101 24.4658 29.4642 24.5815C29.4183 24.6971 29.3956 24.8207 29.3975 24.9451C29.3993 25.0696 29.4257 25.1924 29.475 25.3067C29.5243 25.4209 29.5957 25.5243 29.685 25.611C29.7743 25.6977 29.8798 25.7659 29.9955 25.8118C30.1111 25.8577 30.2347 25.8804 30.3591 25.8785C30.4836 25.8767 30.6064 25.8503 30.7207 25.801C30.8349 25.7517 30.9383 25.6803 31.025 25.591L32.833 23.732C32.92 23.6429 32.9885 23.5374 33.0346 23.4217C33.0807 23.306 33.1035 23.1824 33.1016 23.0578C33.0998 22.9333 33.0733 22.8104 33.0238 22.6961C32.9742 22.5818 32.9026 22.4785 32.813 22.392C32.7241 22.3049 32.6189 22.2362 32.5034 22.1899C32.3879 22.1435 32.2644 22.1205 32.14 22.122L32.139 22.123ZM19.992 22.483C19.9766 22.4827 19.9613 22.4857 19.9471 22.4916C19.9328 22.4975 19.92 22.5063 19.9093 22.5175C19.8987 22.5286 19.8904 22.5418 19.8851 22.5563C19.8798 22.5707 19.8775 22.5861 19.8784 22.6015C19.8793 22.6169 19.8833 22.6319 19.8903 22.6457C19.8973 22.6594 19.907 22.6716 19.9189 22.6814C19.9308 22.6912 19.9446 22.6984 19.9594 22.7027C19.9742 22.7069 19.9897 22.708 20.005 22.706C20.0197 22.7051 20.0341 22.7013 20.0473 22.6948C20.0606 22.6883 20.0724 22.6793 20.0821 22.6682C20.0919 22.6572 20.0994 22.6443 20.1042 22.6304C20.1089 22.6165 20.1109 22.6017 20.11 22.587C20.1091 22.5723 20.1053 22.5579 20.0988 22.5447C20.0923 22.5314 20.0833 22.5196 20.0722 22.5099C20.0612 22.5001 20.0483 22.4926 20.0344 22.4878C20.0205 22.4831 20.0057 22.4811 19.991 22.482L19.992 22.483ZM27.992 22.483C27.9766 22.4827 27.9613 22.4857 27.9471 22.4916C27.9328 22.4975 27.92 22.5063 27.9093 22.5175C27.8987 22.5286 27.8904 22.5418 27.8851 22.5563C27.8798 22.5707 27.8775 22.5861 27.8784 22.6015C27.8793 22.6169 27.8833 22.6319 27.8903 22.6457C27.8973 22.6594 27.907 22.6716 27.9189 22.6814C27.9308 22.6912 27.9446 22.6984 27.9594 22.7027C27.9742 22.7069 27.9897 22.708 28.005 22.706C28.0197 22.7051 28.0341 22.7013 28.0473 22.6948C28.0606 22.6883 28.0724 22.6793 28.0821 22.6682C28.0919 22.6572 28.0994 22.6443 28.1042 22.6304C28.1089 22.6165 28.1109 22.6017 28.11 22.587C28.1091 22.5723 28.1053 22.5579 28.0988 22.5447C28.0923 22.5314 28.0833 22.5196 28.0722 22.5099C28.0612 22.5001 28.0483 22.4926 28.0344 22.4878C28.0205 22.4831 28.0057 22.4811 27.991 22.482L27.992 22.483ZM19.992 23.045C19.9627 23.046 19.9349 23.0586 19.9147 23.0799C19.8945 23.1012 19.8835 23.1296 19.884 23.1589C19.8845 23.1883 19.8966 23.2163 19.9175 23.2368C19.9385 23.2574 19.9666 23.2689 19.996 23.2689C20.0254 23.2689 20.0535 23.2574 20.0745 23.2368C20.0954 23.2163 20.1075 23.1883 20.108 23.1589C20.1085 23.1296 20.0975 23.1012 20.0773 23.0799C20.0571 23.0586 20.0293 23.046 20 23.045H19.991H19.992ZM27.992 23.045C27.9627 23.046 27.9349 23.0586 27.9147 23.0799C27.8945 23.1012 27.8835 23.1296 27.884 23.1589C27.8845 23.1883 27.8966 23.2163 27.9175 23.2368C27.9385 23.2574 27.9666 23.2689 27.996 23.2689C28.0254 23.2689 28.0535 23.2574 28.0745 23.2368C28.0954 23.2163 28.1075 23.1883 28.108 23.1589C28.1085 23.1296 28.0975 23.1012 28.0773 23.0799C28.0571 23.0586 28.0293 23.046 28 23.045H27.991H27.992ZM19.98 23.607C19.9534 23.6111 19.9292 23.6247 19.912 23.6453C19.8947 23.6659 19.8854 23.6921 19.886 23.719C19.886 23.7411 19.8925 23.7627 19.9048 23.7811C19.9171 23.7995 19.9345 23.8139 19.9549 23.8224C19.9753 23.8309 19.9978 23.8332 20.0195 23.8289C20.0412 23.8247 20.0611 23.8141 20.0768 23.7985C20.0925 23.783 20.1033 23.7631 20.1077 23.7415C20.1122 23.7198 20.1101 23.6973 20.1018 23.6768C20.0934 23.6563 20.0792 23.6388 20.0609 23.6264C20.0427 23.6139 20.0211 23.6072 19.999 23.607H19.98ZM27.98 23.607C27.9534 23.6111 27.9292 23.6247 27.912 23.6453C27.8947 23.6659 27.8854 23.6921 27.886 23.719C27.886 23.7411 27.8925 23.7627 27.9048 23.7811C27.9171 23.7995 27.9345 23.8139 27.9549 23.8224C27.9753 23.8309 27.9978 23.8332 28.0195 23.8289C28.0412 23.8247 28.0611 23.8141 28.0768 23.7985C28.0925 23.783 28.1033 23.7631 28.1077 23.7415C28.1122 23.7198 28.1101 23.6973 28.1018 23.6768C28.0934 23.6563 28.0792 23.6388 28.0609 23.6264C28.0427 23.6139 28.0211 23.6072 27.999 23.607H27.98ZM19.98 24.17C19.9589 24.1734 19.9393 24.1828 19.9233 24.1971C19.9074 24.2113 19.8959 24.2298 19.8901 24.2504C19.8844 24.271 19.8846 24.2927 19.8909 24.3132C19.8971 24.3336 19.909 24.3518 19.9253 24.3657C19.9415 24.3796 19.9614 24.3885 19.9826 24.3915C20.0037 24.3944 20.0253 24.3913 20.0447 24.3823C20.0641 24.3734 20.0806 24.3592 20.0921 24.3412C20.1037 24.3233 20.1099 24.3024 20.11 24.281C20.11 24.22 20.06 24.171 20 24.17H19.98ZM27.98 24.17C27.9589 24.1734 27.9393 24.1828 27.9233 24.1971C27.9074 24.2113 27.8959 24.2298 27.8901 24.2504C27.8844 24.271 27.8846 24.2927 27.8909 24.3132C27.8971 24.3336 27.909 24.3518 27.9253 24.3657C27.9415 24.3796 27.9614 24.3885 27.9826 24.3915C28.0037 24.3944 28.0253 24.3913 28.0447 24.3823C28.0641 24.3734 28.0806 24.3592 28.0921 24.3412C28.1037 24.3233 28.1099 24.3024 28.11 24.281C28.11 24.22 28.06 24.171 28 24.17H27.98ZM19.991 24.73C19.9763 24.7309 19.9619 24.7347 19.9487 24.7412C19.9354 24.7477 19.9236 24.7567 19.9139 24.7678C19.9041 24.7788 19.8966 24.7917 19.8918 24.8056C19.8871 24.8195 19.8851 24.8343 19.886 24.849C19.8869 24.8637 19.8907 24.8781 19.8972 24.8913C19.9037 24.9046 19.9127 24.9164 19.9238 24.9261C19.9348 24.9359 19.9477 24.9434 19.9616 24.9482C19.9755 24.9529 19.9903 24.9549 20.005 24.954C20.0347 24.9521 20.0625 24.9386 20.0821 24.9162C20.1018 24.8939 20.1119 24.8647 20.11 24.835C20.1081 24.8053 20.0946 24.7775 20.0722 24.7579C20.0499 24.7382 20.0207 24.7281 19.991 24.73ZM27.991 24.73C27.9763 24.7309 27.9619 24.7347 27.9487 24.7412C27.9354 24.7477 27.9236 24.7567 27.9139 24.7678C27.9041 24.7788 27.8966 24.7917 27.8918 24.8056C27.8871 24.8195 27.8851 24.8343 27.886 24.849C27.8869 24.8637 27.8907 24.8781 27.8972 24.8913C27.9037 24.9046 27.9127 24.9164 27.9238 24.9261C27.9348 24.9359 27.9477 24.9434 27.9616 24.9482C27.9755 24.9529 27.9903 24.9549 28.005 24.954C28.0347 24.9521 28.0625 24.9386 28.0821 24.9162C28.1018 24.8939 28.1119 24.8647 28.11 24.835C28.1081 24.8053 28.0946 24.7775 28.0722 24.7579C28.0499 24.7382 28.0207 24.7281 27.991 24.73ZM19.991 25.293C19.9613 25.2949 19.9335 25.3084 19.9139 25.3308C19.8942 25.3531 19.8841 25.3823 19.886 25.412C19.8879 25.4417 19.9014 25.4695 19.9238 25.4891C19.9461 25.5088 19.9753 25.5189 20.005 25.517C20.0197 25.5161 20.0341 25.5123 20.0473 25.5058C20.0606 25.4993 20.0724 25.4903 20.0821 25.4792C20.0919 25.4682 20.0994 25.4553 20.1042 25.4414C20.1089 25.4275 20.1109 25.4127 20.11 25.398C20.1091 25.3833 20.1053 25.3689 20.0988 25.3557C20.0923 25.3424 20.0833 25.3306 20.0722 25.3209C20.0612 25.3111 20.0483 25.3036 20.0344 25.2988C20.0205 25.2941 20.0057 25.2921 19.991 25.293ZM27.991 25.293C27.9613 25.2949 27.9335 25.3084 27.9139 25.3308C27.8942 25.3531 27.8841 25.3823 27.886 25.412C27.8879 25.4417 27.9014 25.4695 27.9238 25.4891C27.9461 25.5088 27.9753 25.5189 28.005 25.517C28.0197 25.5161 28.0341 25.5123 28.0473 25.5058C28.0606 25.4993 28.0724 25.4903 28.0821 25.4792C28.0919 25.4682 28.0994 25.4553 28.1042 25.4414C28.1089 25.4275 28.1109 25.4127 28.11 25.398C28.1091 25.3833 28.1053 25.3689 28.0988 25.3557C28.0923 25.3424 28.0833 25.3306 28.0722 25.3209C28.0612 25.3111 28.0483 25.3036 28.0344 25.2988C28.0205 25.2941 28.0057 25.2921 27.991 25.293ZM19.991 25.855C19.9763 25.8559 19.9619 25.8597 19.9487 25.8662C19.9354 25.8727 19.9236 25.8817 19.9139 25.8928C19.9041 25.9038 19.8966 25.9167 19.8918 25.9306C19.8871 25.9445 19.8851 25.9593 19.886 25.974C19.8869 25.9887 19.8907 26.0031 19.8972 26.0163C19.9037 26.0296 19.9127 26.0414 19.9238 26.0511C19.9348 26.0609 19.9477 26.0684 19.9616 26.0732C19.9755 26.0779 19.9903 26.0799 20.005 26.079C20.0347 26.0771 20.0625 26.0636 20.0821 26.0412C20.1018 26.0189 20.1119 25.9897 20.11 25.96C20.1081 25.9303 20.0946 25.9025 20.0722 25.8829C20.0499 25.8632 20.0207 25.8531 19.991 25.855ZM27.991 25.855C27.9763 25.8559 27.9619 25.8597 27.9487 25.8662C27.9354 25.8727 27.9236 25.8817 27.9139 25.8928C27.9041 25.9038 27.8966 25.9167 27.8918 25.9306C27.8871 25.9445 27.8851 25.9593 27.886 25.974C27.8869 25.9887 27.8907 26.0031 27.8972 26.0163C27.9037 26.0296 27.9127 26.0414 27.9238 26.0511C27.9348 26.0609 27.9477 26.0684 27.9616 26.0732C27.9755 26.0779 27.9903 26.0799 28.005 26.079C28.0347 26.0771 28.0625 26.0636 28.0821 26.0412C28.1018 26.0189 28.1119 25.9897 28.11 25.96C28.1081 25.9303 28.0946 25.9025 28.0722 25.8829C28.0499 25.8632 28.0207 25.8531 27.991 25.855ZM17.577 26.123V26.125C17.4524 26.1269 17.3295 26.1535 17.2152 26.2031C17.1009 26.2527 16.9975 26.3243 16.911 26.414L15.103 28.271C15.0163 28.3603 14.9481 28.4658 14.9022 28.5815C14.8563 28.6971 14.8336 28.8207 14.8355 28.9451C14.8392 29.1964 14.9427 29.436 15.123 29.611C15.3033 29.786 15.5458 29.8823 15.7971 29.8785C16.0484 29.8748 16.288 29.7713 16.463 29.591L18.27 27.732C18.357 27.6429 18.4255 27.5374 18.4716 27.4217C18.5177 27.306 18.5405 27.1824 18.5386 27.0578C18.5368 26.9333 18.5103 26.8104 18.4608 26.6961C18.4112 26.5818 18.3396 26.4785 18.25 26.392C18.161 26.3048 18.0556 26.236 17.94 26.1897C17.8243 26.1433 17.7006 26.1203 17.576 26.122L17.577 26.123ZM24.859 26.123V26.125C24.7344 26.1269 24.6115 26.1535 24.4972 26.2031C24.3829 26.2527 24.2795 26.3243 24.193 26.414L22.384 28.271C22.2973 28.3603 22.2291 28.4658 22.1832 28.5815C22.1373 28.6971 22.1146 28.8207 22.1165 28.9451C22.1183 29.0696 22.1447 29.1924 22.194 29.3067C22.2433 29.4209 22.3147 29.5243 22.404 29.611C22.4933 29.6977 22.5988 29.7659 22.7145 29.8118C22.8301 29.8577 22.9537 29.8804 23.0781 29.8785C23.2026 29.8767 23.3254 29.8503 23.4397 29.801C23.5539 29.7517 23.6573 29.6803 23.744 29.591L25.552 27.732C25.639 27.6429 25.7075 27.5374 25.7536 27.4217C25.7997 27.306 25.8225 27.1824 25.8206 27.0578C25.8188 26.9333 25.7923 26.8104 25.7428 26.6961C25.6932 26.5818 25.6216 26.4785 25.532 26.392C25.4431 26.3049 25.3379 26.2362 25.2224 26.1899C25.1069 26.1435 24.9834 26.1205 24.859 26.122V26.123ZM32.139 26.123V26.125C32.0146 26.1271 31.8918 26.1537 31.7777 26.2033C31.6636 26.2528 31.5604 26.3245 31.474 26.414L29.665 28.271C29.5783 28.3603 29.5101 28.4658 29.4642 28.5815C29.4183 28.6971 29.3956 28.8207 29.3975 28.9451C29.3993 29.0696 29.4257 29.1924 29.475 29.3067C29.5243 29.4209 29.5957 29.5243 29.685 29.611C29.7743 29.6977 29.8798 29.7659 29.9955 29.8118C30.1111 29.8577 30.2347 29.8804 30.3591 29.8785C30.4836 29.8767 30.6064 29.8503 30.7207 29.801C30.8349 29.7517 30.9383 29.6803 31.025 29.591L32.833 27.732C32.92 27.6429 32.9885 27.5374 33.0346 27.4217C33.0807 27.306 33.1035 27.1824 33.1016 27.0578C33.0998 26.9333 33.0733 26.8104 33.0238 26.6961C32.9742 26.5818 32.9026 26.4785 32.813 26.392C32.7241 26.3049 32.6189 26.2362 32.5034 26.1899C32.3879 26.1435 32.2644 26.1205 32.14 26.122L32.139 26.123ZM19.992 26.418C19.9773 26.4189 19.9629 26.4226 19.9496 26.429C19.9364 26.4354 19.9245 26.4444 19.9147 26.4554C19.9049 26.4664 19.8974 26.4792 19.8925 26.4931C19.8877 26.5071 19.8856 26.5218 19.8865 26.5365C19.8874 26.5512 19.8911 26.5656 19.8975 26.5789C19.9039 26.5921 19.9129 26.604 19.9239 26.6138C19.9349 26.6236 19.9477 26.6311 19.9616 26.636C19.9756 26.6408 19.9903 26.6429 20.005 26.642C20.0197 26.6411 20.0341 26.6373 20.0473 26.6308C20.0606 26.6243 20.0724 26.6153 20.0821 26.6042C20.0919 26.5932 20.0994 26.5803 20.1042 26.5664C20.1089 26.5525 20.1109 26.5377 20.11 26.523C20.1091 26.5083 20.1053 26.4939 20.0988 26.4807C20.0923 26.4674 20.0833 26.4556 20.0722 26.4459C20.0612 26.4361 20.0483 26.4286 20.0344 26.4238C20.0205 26.4191 20.0057 26.4171 19.991 26.418H19.992ZM27.992 26.418C27.9773 26.4189 27.9629 26.4226 27.9496 26.429C27.9364 26.4354 27.9245 26.4444 27.9147 26.4554C27.9049 26.4664 27.8974 26.4792 27.8925 26.4931C27.8877 26.5071 27.8856 26.5218 27.8865 26.5365C27.8874 26.5512 27.8911 26.5656 27.8975 26.5789C27.9039 26.5921 27.9129 26.604 27.9239 26.6138C27.9349 26.6236 27.9477 26.6311 27.9616 26.636C27.9756 26.6408 27.9903 26.6429 28.005 26.642C28.0197 26.6411 28.0341 26.6373 28.0473 26.6308C28.0606 26.6243 28.0724 26.6153 28.0821 26.6042C28.0919 26.5932 28.0994 26.5803 28.1042 26.5664C28.1089 26.5525 28.1109 26.5377 28.11 26.523C28.1091 26.5083 28.1053 26.4939 28.0988 26.4807C28.0923 26.4674 28.0833 26.4556 28.0722 26.4459C28.0612 26.4361 28.0483 26.4286 28.0344 26.4238C28.0205 26.4191 28.0057 26.4171 27.991 26.418H27.992ZM19.992 26.98C19.9699 26.9814 19.9487 26.9892 19.931 27.0025C19.9134 27.0158 19.9 27.034 19.8926 27.0549C19.8851 27.0757 19.884 27.0983 19.8893 27.1198C19.8946 27.1412 19.906 27.1607 19.9223 27.1757C19.9385 27.1908 19.9588 27.2007 19.9807 27.2043C20.0025 27.2079 20.0249 27.205 20.0451 27.196C20.0653 27.1869 20.0824 27.1722 20.0943 27.1535C20.1062 27.1349 20.1123 27.1131 20.112 27.091C20.1116 27.0758 20.1082 27.0608 20.1019 27.047C20.0956 27.0332 20.0866 27.0208 20.0754 27.0105C20.0642 27.0002 20.051 26.9923 20.0367 26.9872C20.0224 26.9822 20.0072 26.9801 19.992 26.981V26.98ZM27.992 26.98C27.9699 26.9814 27.9487 26.9892 27.931 27.0025C27.9134 27.0158 27.9 27.034 27.8926 27.0549C27.8851 27.0757 27.884 27.0983 27.8893 27.1198C27.8946 27.1412 27.906 27.1607 27.9223 27.1757C27.9385 27.1908 27.9588 27.2007 27.9807 27.2043C28.0025 27.2079 28.0249 27.205 28.0451 27.196C28.0653 27.1869 28.0824 27.1722 28.0943 27.1535C28.1062 27.1349 28.1123 27.1131 28.112 27.091C28.1116 27.0758 28.1082 27.0608 28.1019 27.047C28.0956 27.0332 28.0866 27.0208 28.0754 27.0105C28.0642 27.0002 28.051 26.9923 28.0367 26.9872C28.0224 26.9822 28.0072 26.9801 27.992 26.981V26.98ZM19.992 27.543C19.9773 27.5439 19.9629 27.5476 19.9496 27.554C19.9364 27.5604 19.9245 27.5694 19.9147 27.5804C19.9049 27.5914 19.8974 27.6042 19.8925 27.6181C19.8877 27.6321 19.8856 27.6468 19.8865 27.6615C19.8874 27.6762 19.8911 27.6906 19.8975 27.7039C19.9039 27.7171 19.9129 27.729 19.9239 27.7388C19.9349 27.7486 19.9477 27.7561 19.9616 27.761C19.9756 27.7658 19.9903 27.7679 20.005 27.767C20.0347 27.7651 20.0625 27.7516 20.0821 27.7292C20.1018 27.7069 20.1119 27.6777 20.11 27.648C20.1081 27.6183 20.0946 27.5905 20.0722 27.5709C20.0499 27.5512 20.0207 27.5411 19.991 27.543H19.992ZM27.992 27.543C27.9773 27.5439 27.9629 27.5476 27.9496 27.554C27.9364 27.5604 27.9245 27.5694 27.9147 27.5804C27.9049 27.5914 27.8974 27.6042 27.8925 27.6181C27.8877 27.6321 27.8856 27.6468 27.8865 27.6615C27.8874 27.6762 27.8911 27.6906 27.8975 27.7039C27.9039 27.7171 27.9129 27.729 27.9239 27.7388C27.9349 27.7486 27.9477 27.7561 27.9616 27.761C27.9756 27.7658 27.9903 27.7679 28.005 27.767C28.0347 27.7651 28.0625 27.7516 28.0821 27.7292C28.1018 27.7069 28.1119 27.6777 28.11 27.648C28.1081 27.6183 28.0946 27.5905 28.0722 27.5709C28.0499 27.5512 28.0207 27.5411 27.991 27.543H27.992ZM19.98 28.105C19.9534 28.1091 19.9292 28.1227 19.912 28.1433C19.8947 28.1639 19.8854 28.1901 19.886 28.217C19.886 28.279 19.936 28.329 19.999 28.327C20.06 28.327 20.11 28.277 20.111 28.217C20.111 28.155 20.061 28.106 19.999 28.105H19.98ZM27.98 28.105C27.9534 28.1091 27.9292 28.1227 27.912 28.1433C27.8947 28.1639 27.8854 28.1901 27.886 28.217C27.886 28.279 27.936 28.329 27.999 28.327C28.06 28.327 28.11 28.277 28.111 28.217C28.111 28.155 28.061 28.106 27.999 28.105H27.98ZM20.001 28.665C19.9853 28.6635 19.9695 28.6653 19.9546 28.6703C19.9397 28.6753 19.926 28.6833 19.9143 28.6939C19.9027 28.7045 19.8934 28.7174 19.887 28.7318C19.8807 28.7462 19.8774 28.7618 19.8774 28.7775C19.8774 28.7932 19.8807 28.8088 19.887 28.8232C19.8934 28.8376 19.9027 28.8505 19.9143 28.8611C19.926 28.8717 19.9397 28.8797 19.9546 28.8847C19.9695 28.8897 19.9853 28.8915 20.001 28.89C20.0307 28.89 20.0592 28.8782 20.0802 28.8572C20.1012 28.8362 20.113 28.8077 20.113 28.778C20.113 28.7483 20.1012 28.7198 20.0802 28.6988C20.0592 28.6778 20.0307 28.666 20.001 28.666V28.665ZM28.001 28.665C27.9853 28.6635 27.9695 28.6653 27.9546 28.6703C27.9397 28.6753 27.926 28.6833 27.9143 28.6939C27.9027 28.7045 27.8934 28.7174 27.887 28.7318C27.8807 28.7462 27.8774 28.7618 27.8774 28.7775C27.8774 28.7932 27.8807 28.8088 27.887 28.8232C27.8934 28.8376 27.9027 28.8505 27.9143 28.8611C27.926 28.8717 27.9397 28.8797 27.9546 28.8847C27.9695 28.8897 27.9853 28.8915 28.001 28.89C28.0307 28.89 28.0592 28.8782 28.0802 28.8572C28.1012 28.8362 28.113 28.8077 28.113 28.778C28.113 28.7483 28.1012 28.7198 28.0802 28.6988C28.0592 28.6778 28.0307 28.666 28.001 28.666V28.665ZM19.991 29.228C19.9612 29.2291 19.933 29.2419 19.9126 29.2638C19.8923 29.2856 19.8814 29.3147 19.8825 29.3445C19.8836 29.3743 19.8964 29.4025 19.9183 29.4229C19.9401 29.4432 19.9692 29.4541 19.999 29.453C20.06 29.453 20.11 29.403 20.111 29.342C20.1113 29.3271 20.1086 29.3123 20.1031 29.2985C20.0975 29.2847 20.0893 29.2721 20.0789 29.2615C20.0685 29.2509 20.056 29.2425 20.0423 29.2367C20.0286 29.231 20.0139 29.228 19.999 29.228H19.991ZM27.991 29.228C27.9612 29.2291 27.933 29.2419 27.9126 29.2638C27.8923 29.2856 27.8814 29.3147 27.8825 29.3445C27.8836 29.3743 27.8964 29.4025 27.9183 29.4229C27.9401 29.4432 27.9692 29.4541 27.999 29.453C28.06 29.453 28.11 29.403 28.111 29.342C28.1113 29.3271 28.1086 29.3123 28.1031 29.2985C28.0975 29.2847 28.0893 29.2721 28.0789 29.2615C28.0685 29.2509 28.056 29.2425 28.0423 29.2367C28.0286 29.231 28.0139 29.228 27.999 29.228H27.991ZM19.991 29.791C19.9613 29.7921 19.9332 29.8049 19.913 29.8266C19.8927 29.8484 19.8819 29.8773 19.883 29.907C19.8841 29.9367 19.8969 29.9648 19.9186 29.985C19.9404 30.0053 19.9693 30.0161 19.999 30.015C20.06 30.015 20.11 29.966 20.111 29.905C20.1113 29.8901 20.1086 29.8753 20.1031 29.8615C20.0975 29.8477 20.0893 29.8351 20.0789 29.8245C20.0685 29.8139 20.056 29.8055 20.0423 29.7997C20.0286 29.794 20.0139 29.791 19.999 29.791H19.991ZM27.991 29.791C27.9613 29.7921 27.9332 29.8049 27.913 29.8266C27.8927 29.8484 27.8819 29.8773 27.883 29.907C27.8841 29.9367 27.8969 29.9648 27.9186 29.985C27.9404 30.0053 27.9693 30.0161 27.999 30.015C28.06 30.015 28.11 29.966 28.111 29.905C28.1113 29.8901 28.1086 29.8753 28.1031 29.8615C28.0975 29.8477 28.0893 29.8351 28.0789 29.8245C28.0685 29.8139 28.056 29.8055 28.0423 29.7997C28.0286 29.794 28.0139 29.791 27.999 29.791H27.991ZM17.577 30.123V30.125C17.4524 30.1269 17.3295 30.1535 17.2152 30.2031C17.1009 30.2527 16.9975 30.3243 16.911 30.414L15.103 32.271C15.0163 32.3603 14.9481 32.4658 14.9022 32.5815C14.8563 32.6971 14.8336 32.8207 14.8355 32.9451C14.8392 33.1964 14.9427 33.436 15.123 33.611C15.3033 33.786 15.5458 33.8823 15.7971 33.8785C16.0484 33.8748 16.288 33.7713 16.463 33.591L18.27 31.732C18.357 31.6429 18.4255 31.5374 18.4716 31.4217C18.5177 31.306 18.5405 31.1824 18.5386 31.0578C18.5368 30.9333 18.5103 30.8104 18.4608 30.6961C18.4112 30.5818 18.3396 30.4785 18.25 30.392C18.161 30.3048 18.0556 30.236 17.94 30.1897C17.8243 30.1433 17.7006 30.1203 17.576 30.122L17.577 30.123ZM24.859 30.123V30.125C24.7344 30.1269 24.6115 30.1535 24.4972 30.2031C24.3829 30.2527 24.2795 30.3243 24.193 30.414L22.384 32.271C22.2973 32.3603 22.2291 32.4658 22.1832 32.5815C22.1373 32.6971 22.1146 32.8207 22.1165 32.9451C22.1183 33.0696 22.1447 33.1924 22.194 33.3067C22.2433 33.4209 22.3147 33.5243 22.404 33.611C22.4933 33.6977 22.5988 33.7659 22.7145 33.8118C22.8301 33.8577 22.9537 33.8804 23.0781 33.8785C23.2026 33.8767 23.3254 33.8503 23.4397 33.801C23.5539 33.7517 23.6573 33.6803 23.744 33.591L25.552 31.732C25.639 31.6429 25.7075 31.5374 25.7536 31.4217C25.7997 31.306 25.8225 31.1824 25.8206 31.0578C25.8188 30.9333 25.7923 30.8104 25.7428 30.6961C25.6932 30.5818 25.6216 30.4785 25.532 30.392C25.4431 30.3049 25.3379 30.2362 25.2224 30.1899C25.1069 30.1435 24.9834 30.1205 24.859 30.122V30.123ZM32.139 30.123V30.125C32.0146 30.1271 31.8918 30.1537 31.7777 30.2033C31.6636 30.2528 31.5604 30.3245 31.474 30.414L29.665 32.271C29.5783 32.3603 29.5101 32.4658 29.4642 32.5815C29.4183 32.6971 29.3956 32.8207 29.3975 32.9451C29.3993 33.0696 29.4257 33.1924 29.475 33.3067C29.5243 33.4209 29.5957 33.5243 29.685 33.611C29.7743 33.6977 29.8798 33.7659 29.9955 33.8118C30.1111 33.8577 30.2347 33.8804 30.3591 33.8785C30.4836 33.8767 30.6064 33.8503 30.7207 33.801C30.8349 33.7517 30.9383 33.6803 31.025 33.591L32.833 31.732C32.92 31.6429 32.9885 31.5374 33.0346 31.4217C33.0807 31.306 33.1035 31.1824 33.1016 31.0578C33.0998 30.9333 33.0733 30.8104 33.0238 30.6961C32.9742 30.5818 32.9026 30.4785 32.813 30.392C32.7241 30.3049 32.6189 30.2362 32.5034 30.1899C32.3879 30.1435 32.2644 30.1205 32.14 30.122L32.139 30.123ZM19.992 30.353C19.963 30.3546 19.9357 30.3673 19.916 30.3886C19.8962 30.4098 19.8854 30.438 19.886 30.467C19.886 30.529 19.936 30.579 19.999 30.577C20.0137 30.5765 20.0282 30.5731 20.0416 30.5669C20.0549 30.5608 20.067 30.5521 20.077 30.5414C20.0871 30.5306 20.0949 30.518 20.1 30.5042C20.1051 30.4904 20.1075 30.4757 20.107 30.461C20.1065 30.4463 20.1031 30.4318 20.0969 30.4184C20.0908 30.4051 20.0821 30.393 20.0714 30.383C20.0606 30.3729 20.048 30.3651 20.0342 30.36C20.0204 30.3549 20.0057 30.3525 19.991 30.353H19.992ZM27.992 30.353C27.963 30.3546 27.9357 30.3673 27.916 30.3886C27.8962 30.4098 27.8854 30.438 27.886 30.467C27.886 30.529 27.936 30.579 27.999 30.577C28.0137 30.5765 28.0282 30.5731 28.0416 30.5669C28.0549 30.5608 28.067 30.5521 28.077 30.5414C28.0871 30.5306 28.0949 30.518 28.1 30.5042C28.1051 30.4904 28.1075 30.4757 28.107 30.461C28.1065 30.4463 28.1031 30.4318 28.0969 30.4184C28.0908 30.4051 28.0821 30.393 28.0714 30.383C28.0606 30.3729 28.048 30.3651 28.0342 30.36C28.0204 30.3549 28.0057 30.3525 27.991 30.353H27.992ZM19.992 30.913C19.9632 30.915 19.9362 30.9279 19.9165 30.9491C19.8968 30.9703 19.8859 30.9981 19.886 31.027C19.886 31.0568 19.8979 31.0855 19.9189 31.1066C19.94 31.1276 19.9687 31.1395 19.9985 31.1395C20.0283 31.1395 20.057 31.1276 20.078 31.1066C20.0991 31.0855 20.111 31.0568 20.111 31.027C20.1109 31.0116 20.1077 30.9964 20.1015 30.9823C20.0953 30.9681 20.0864 30.9554 20.0752 30.9448C20.0639 30.9343 20.0507 30.9261 20.0362 30.9208C20.0218 30.9155 20.0064 30.9132 19.991 30.914L19.992 30.913ZM27.992 30.913C27.9632 30.915 27.9362 30.9279 27.9165 30.9491C27.8968 30.9703 27.8859 30.9981 27.886 31.027C27.886 31.0568 27.8979 31.0855 27.9189 31.1066C27.94 31.1276 27.9687 31.1395 27.9985 31.1395C28.0283 31.1395 28.057 31.1276 28.078 31.1066C28.0991 31.0855 28.111 31.0568 28.111 31.027C28.1109 31.0116 28.1077 30.9964 28.1015 30.9823C28.0953 30.9681 28.0864 30.9554 28.0752 30.9448C28.0639 30.9343 28.0507 30.9261 28.0362 30.9208C28.0218 30.9155 28.0064 30.9132 27.991 30.914L27.992 30.913ZM19.992 31.476C19.9773 31.4769 19.9629 31.4806 19.9496 31.487C19.9364 31.4934 19.9245 31.5024 19.9147 31.5134C19.9049 31.5244 19.8974 31.5372 19.8925 31.5511C19.8877 31.5651 19.8856 31.5798 19.8865 31.5945C19.8874 31.6092 19.8911 31.6236 19.8975 31.6369C19.9039 31.6501 19.9129 31.662 19.9239 31.6718C19.9349 31.6816 19.9477 31.6891 19.9616 31.694C19.9756 31.6988 19.9903 31.7009 20.005 31.7C20.0347 31.6981 20.0625 31.6846 20.0821 31.6622C20.1018 31.6399 20.1119 31.6107 20.11 31.581C20.1081 31.5513 20.0946 31.5235 20.0722 31.5039C20.0499 31.4842 20.0207 31.4741 19.991 31.476H19.992ZM27.992 31.476C27.9773 31.4769 27.9629 31.4806 27.9496 31.487C27.9364 31.4934 27.9245 31.5024 27.9147 31.5134C27.9049 31.5244 27.8974 31.5372 27.8925 31.5511C27.8877 31.5651 27.8856 31.5798 27.8865 31.5945C27.8874 31.6092 27.8911 31.6236 27.8975 31.6369C27.9039 31.6501 27.9129 31.662 27.9239 31.6718C27.9349 31.6816 27.9477 31.6891 27.9616 31.694C27.9756 31.6988 27.9903 31.7009 28.005 31.7C28.0347 31.6981 28.0625 31.6846 28.0821 31.6622C28.1018 31.6399 28.1119 31.6107 28.11 31.581C28.1081 31.5513 28.0946 31.5235 28.0722 31.5039C28.0499 31.4842 28.0207 31.4741 27.991 31.476H27.992ZM19.98 32.039C19.9536 32.0431 19.9296 32.0566 19.9123 32.077C19.895 32.0973 19.8857 32.1233 19.886 32.15C19.8845 32.1657 19.8863 32.1815 19.8913 32.1964C19.8963 32.2113 19.9043 32.225 19.9149 32.2367C19.9255 32.2483 19.9384 32.2576 19.9528 32.264C19.9672 32.2703 19.9828 32.2736 19.9985 32.2736C20.0142 32.2736 20.0298 32.2703 20.0442 32.264C20.0586 32.2576 20.0715 32.2483 20.0821 32.2367C20.0927 32.225 20.1007 32.2113 20.1057 32.1964C20.1107 32.1815 20.1125 32.1657 20.111 32.15C20.111 32.09 20.061 32.04 19.999 32.039H19.98ZM27.98 32.039C27.9536 32.0431 27.9296 32.0566 27.9123 32.077C27.895 32.0973 27.8857 32.1233 27.886 32.15C27.8845 32.1657 27.8863 32.1815 27.8913 32.1964C27.8963 32.2113 27.9043 32.225 27.9149 32.2367C27.9255 32.2483 27.9384 32.2576 27.9528 32.264C27.9672 32.2703 27.9828 32.2736 27.9985 32.2736C28.0142 32.2736 28.0298 32.2703 28.0442 32.264C28.0586 32.2576 28.0715 32.2483 28.0821 32.2367C28.0927 32.225 28.1007 32.2113 28.1057 32.1964C28.1107 32.1815 28.1125 32.1657 28.111 32.15C28.111 32.09 28.061 32.04 27.999 32.039H27.98ZM19.98 32.601C19.9589 32.6044 19.9393 32.6138 19.9233 32.6281C19.9074 32.6423 19.8959 32.6608 19.8901 32.6814C19.8844 32.702 19.8846 32.7237 19.8909 32.7442C19.8971 32.7646 19.909 32.7828 19.9253 32.7967C19.9415 32.8106 19.9614 32.8195 19.9826 32.8225C20.0037 32.8254 20.0253 32.8223 20.0447 32.8133C20.0641 32.8044 20.0806 32.7902 20.0921 32.7722C20.1037 32.7543 20.1099 32.7334 20.11 32.712C20.11 32.652 20.06 32.602 20 32.602H19.98V32.601ZM27.98 32.601C27.9589 32.6044 27.9393 32.6138 27.9233 32.6281C27.9074 32.6423 27.8959 32.6608 27.8901 32.6814C27.8844 32.702 27.8846 32.7237 27.8909 32.7442C27.8971 32.7646 27.909 32.7828 27.9253 32.7967C27.9415 32.8106 27.9614 32.8195 27.9826 32.8225C28.0037 32.8254 28.0253 32.8223 28.0447 32.8133C28.0641 32.8044 28.0806 32.7902 28.0921 32.7722C28.1037 32.7543 28.1099 32.7334 28.11 32.712C28.11 32.652 28.06 32.602 28 32.602H27.98V32.601ZM20.001 33.161C19.9859 33.1611 19.9711 33.1642 19.9572 33.1702C19.9434 33.1761 19.9308 33.1847 19.9203 33.1954C19.9098 33.2062 19.9016 33.219 19.896 33.233C19.8905 33.247 19.8877 33.2619 19.888 33.277C19.888 33.339 19.938 33.387 20.001 33.387C20.0156 33.3873 20.0301 33.3846 20.0437 33.3792C20.0573 33.3738 20.0697 33.3657 20.0801 33.3555C20.0905 33.3453 20.0988 33.333 20.1044 33.3196C20.1101 33.3061 20.113 33.2916 20.113 33.277C20.1133 33.2469 20.1016 33.218 20.0807 33.1964C20.0597 33.1749 20.0311 33.1625 20.001 33.162V33.161ZM28.001 33.161C27.9859 33.1611 27.9711 33.1642 27.9572 33.1702C27.9434 33.1761 27.9308 33.1847 27.9203 33.1954C27.9098 33.2062 27.9016 33.219 27.896 33.233C27.8905 33.247 27.8877 33.2619 27.888 33.277C27.888 33.339 27.938 33.387 28.001 33.387C28.0156 33.3873 28.0301 33.3846 28.0437 33.3792C28.0573 33.3738 28.0697 33.3657 28.0801 33.3555C28.0905 33.3453 28.0988 33.333 28.1044 33.3196C28.1101 33.3061 28.113 33.2916 28.113 33.277C28.1133 33.2469 28.1016 33.218 28.0807 33.1964C28.0597 33.1749 28.0311 33.1625 28.001 33.162V33.161ZM19.991 33.724C19.9622 33.7258 19.9352 33.7387 19.9156 33.7599C19.896 33.7812 19.8854 33.8091 19.886 33.838C19.886 33.899 19.936 33.95 19.999 33.949C20.06 33.949 20.11 33.899 20.111 33.838C20.1113 33.8231 20.1086 33.8083 20.1031 33.7945C20.0975 33.7807 20.0893 33.7681 20.0789 33.7575C20.0685 33.7469 20.056 33.7385 20.0423 33.7327C20.0286 33.727 20.0139 33.724 19.999 33.724H19.991ZM27.991 33.724C27.9622 33.7258 27.9352 33.7387 27.9156 33.7599C27.896 33.7812 27.8854 33.8091 27.886 33.838C27.886 33.899 27.936 33.95 27.999 33.949C28.06 33.949 28.11 33.899 28.111 33.838C28.1113 33.8231 28.1086 33.8083 28.1031 33.7945C28.0975 33.7807 28.0893 33.7681 28.0789 33.7575C28.0685 33.7469 28.056 33.7385 28.0423 33.7327C28.0286 33.727 28.0139 33.724 27.999 33.724H27.991ZM17.577 34.123V34.125C17.4524 34.1269 17.3295 34.1535 17.2152 34.2031C17.1009 34.2527 16.9975 34.3243 16.911 34.414L15.103 36.271C15.0163 36.3603 14.9481 36.4658 14.9022 36.5815C14.8563 36.6971 14.8336 36.8207 14.8355 36.9451C14.8392 37.1964 14.9427 37.436 15.123 37.611C15.3033 37.786 15.5458 37.8823 15.7971 37.8785C16.0484 37.8748 16.288 37.7713 16.463 37.591L18.27 35.732C18.357 35.6429 18.4255 35.5374 18.4716 35.4217C18.5177 35.306 18.5405 35.1824 18.5386 35.0578C18.5368 34.9333 18.5103 34.8104 18.4608 34.6961C18.4112 34.5818 18.3396 34.4785 18.25 34.392C18.161 34.3048 18.0556 34.236 17.94 34.1897C17.8243 34.1433 17.7006 34.1203 17.576 34.122L17.577 34.123ZM24.859 34.123V34.125C24.7344 34.1269 24.6115 34.1535 24.4972 34.2031C24.3829 34.2527 24.2795 34.3243 24.193 34.414L22.384 36.271C22.2973 36.3603 22.2291 36.4658 22.1832 36.5815C22.1373 36.6971 22.1146 36.8207 22.1165 36.9451C22.1183 37.0696 22.1447 37.1924 22.194 37.3067C22.2433 37.4209 22.3147 37.5243 22.404 37.611C22.4933 37.6977 22.5988 37.7659 22.7145 37.8118C22.8301 37.8577 22.9537 37.8804 23.0781 37.8785C23.2026 37.8767 23.3254 37.8503 23.4397 37.801C23.5539 37.7517 23.6573 37.6803 23.744 37.591L25.552 35.732C25.639 35.6429 25.7075 35.5374 25.7536 35.4217C25.7997 35.306 25.8225 35.1824 25.8206 35.0578C25.8188 34.9333 25.7923 34.8104 25.7428 34.6961C25.6932 34.5818 25.6216 34.4785 25.532 34.392C25.4431 34.3049 25.3379 34.2362 25.2224 34.1899C25.1069 34.1435 24.9834 34.1205 24.859 34.122V34.123ZM32.139 34.123V34.125C32.0146 34.1271 31.8918 34.1537 31.7777 34.2033C31.6636 34.2528 31.5604 34.3245 31.474 34.414L29.665 36.271C29.5783 36.3603 29.5101 36.4658 29.4642 36.5815C29.4183 36.6971 29.3956 36.8207 29.3975 36.9451C29.3993 37.0696 29.4257 37.1924 29.475 37.3067C29.5243 37.4209 29.5957 37.5243 29.685 37.611C29.7743 37.6977 29.8798 37.7659 29.9955 37.8118C30.1111 37.8577 30.2347 37.8804 30.3591 37.8785C30.4836 37.8767 30.6064 37.8503 30.7207 37.801C30.8349 37.7517 30.9383 37.6803 31.025 37.591L32.833 35.732C32.92 35.6429 32.9885 35.5374 33.0346 35.4217C33.0807 35.306 33.1035 35.1824 33.1016 35.0578C33.0998 34.9333 33.0733 34.8104 33.0238 34.6961C32.9742 34.5818 32.9026 34.4785 32.813 34.392C32.7241 34.3049 32.6189 34.2362 32.5034 34.1899C32.3879 34.1435 32.2644 34.1205 32.14 34.122L32.139 34.123ZM19.992 34.287C19.9773 34.2879 19.9629 34.2916 19.9496 34.298C19.9364 34.3044 19.9245 34.3134 19.9147 34.3244C19.9049 34.3354 19.8974 34.3482 19.8925 34.3621C19.8877 34.3761 19.8856 34.3908 19.8865 34.4055C19.8874 34.4202 19.8911 34.4346 19.8975 34.4479C19.9039 34.4611 19.9129 34.473 19.9239 34.4828C19.9349 34.4926 19.9477 34.5001 19.9616 34.505C19.9756 34.5098 19.9903 34.5119 20.005 34.511C20.0197 34.5101 20.0341 34.5063 20.0473 34.4998C20.0606 34.4933 20.0724 34.4843 20.0821 34.4732C20.0919 34.4622 20.0994 34.4493 20.1042 34.4354C20.1089 34.4215 20.1109 34.4067 20.11 34.392C20.1091 34.3773 20.1053 34.3629 20.0988 34.3497C20.0923 34.3364 20.0833 34.3246 20.0722 34.3149C20.0612 34.3051 20.0483 34.2976 20.0344 34.2928C20.0205 34.2881 20.0057 34.2861 19.991 34.287H19.992ZM27.992 34.287C27.9773 34.2879 27.9629 34.2916 27.9496 34.298C27.9364 34.3044 27.9245 34.3134 27.9147 34.3244C27.9049 34.3354 27.8974 34.3482 27.8925 34.3621C27.8877 34.3761 27.8856 34.3908 27.8865 34.4055C27.8874 34.4202 27.8911 34.4346 27.8975 34.4479C27.9039 34.4611 27.9129 34.473 27.9239 34.4828C27.9349 34.4926 27.9477 34.5001 27.9616 34.505C27.9756 34.5098 27.9903 34.5119 28.005 34.511C28.0197 34.5101 28.0341 34.5063 28.0473 34.4998C28.0606 34.4933 28.0724 34.4843 28.0821 34.4732C28.0919 34.4622 28.0994 34.4493 28.1042 34.4354C28.1089 34.4215 28.1109 34.4067 28.11 34.392C28.1091 34.3773 28.1053 34.3629 28.0988 34.3497C28.0923 34.3364 28.0833 34.3246 28.0722 34.3149C28.0612 34.3051 28.0483 34.2976 28.0344 34.2928C28.0205 34.2881 28.0057 34.2861 27.991 34.287H27.992ZM19.992 34.849C19.9633 34.8505 19.9364 34.863 19.9167 34.8839C19.8969 34.9047 19.886 34.9323 19.886 34.961C19.886 35.024 19.936 35.076 19.999 35.076C20.0291 35.0755 20.0577 35.0631 20.0787 35.0416C20.0996 35.02 20.1113 34.9911 20.111 34.961C20.111 34.9456 20.1079 34.9303 20.1018 34.9162C20.0957 34.9021 20.0867 34.8894 20.0754 34.8788C20.0642 34.8683 20.0508 34.8602 20.0363 34.8551C20.0218 34.85 20.0064 34.8479 19.991 34.849H19.992ZM27.992 34.849C27.9633 34.8505 27.9364 34.863 27.9167 34.8839C27.8969 34.9047 27.886 34.9323 27.886 34.961C27.886 35.024 27.936 35.076 27.999 35.076C28.0291 35.0755 28.0577 35.0631 28.0787 35.0416C28.0996 35.02 28.1113 34.9911 28.111 34.961C28.111 34.9456 28.1079 34.9303 28.1018 34.9162C28.0957 34.9021 28.0867 34.8894 28.0754 34.8788C28.0642 34.8683 28.0508 34.8602 28.0363 34.8551C28.0218 34.85 28.0064 34.8479 27.991 34.849H27.992ZM19.992 35.412C19.9765 35.4119 19.9611 35.4149 19.9468 35.421C19.9326 35.4271 19.9197 35.436 19.909 35.4473C19.8983 35.4585 19.8901 35.4719 19.8848 35.4864C19.8795 35.501 19.8773 35.5165 19.8782 35.532C19.8792 35.5475 19.8834 35.5626 19.8904 35.5764C19.8975 35.5902 19.9073 35.6024 19.9193 35.6123C19.9313 35.6221 19.9452 35.6294 19.9601 35.6337C19.975 35.6379 19.9906 35.6391 20.006 35.637C20.0344 35.6332 20.0603 35.6187 20.0785 35.5965C20.0966 35.5743 20.1057 35.5461 20.1037 35.5175C20.1018 35.4889 20.0891 35.4621 20.0682 35.4425C20.0473 35.4229 20.0197 35.412 19.991 35.412H19.992ZM27.992 35.412C27.9765 35.4119 27.9611 35.4149 27.9468 35.421C27.9326 35.4271 27.9197 35.436 27.909 35.4473C27.8983 35.4585 27.8901 35.4719 27.8848 35.4864C27.8795 35.501 27.8773 35.5165 27.8782 35.532C27.8792 35.5475 27.8834 35.5626 27.8904 35.5764C27.8975 35.5902 27.9073 35.6024 27.9193 35.6123C27.9313 35.6221 27.9452 35.6294 27.9601 35.6337C27.975 35.6379 27.9906 35.6391 28.006 35.637C28.0344 35.6332 28.0603 35.6187 28.0785 35.5965C28.0966 35.5743 28.1057 35.5461 28.1037 35.5175C28.1018 35.4889 28.0891 35.4621 28.0682 35.4425C28.0473 35.4229 28.0197 35.412 27.991 35.412H27.992ZM19.992 35.974C19.9772 35.9749 19.9628 35.9786 19.9494 35.9851C19.9361 35.9915 19.9242 36.0005 19.9144 36.0115C19.9045 36.0226 19.8969 36.0355 19.8921 36.0495C19.8872 36.0634 19.8851 36.0782 19.886 36.093C19.8869 36.1078 19.8906 36.1222 19.8971 36.1356C19.9035 36.1489 19.9125 36.1608 19.9235 36.1706C19.9346 36.1805 19.9475 36.1881 19.9615 36.1929C19.9754 36.1978 19.9902 36.1999 20.005 36.199C20.0348 36.1971 20.0627 36.1835 20.0825 36.1611C20.1023 36.1387 20.1124 36.1093 20.1105 36.0795C20.1086 36.0497 20.095 36.0218 20.0726 36.002C20.0502 35.9822 20.0208 35.9721 19.991 35.974H19.992ZM27.992 35.974C27.9772 35.9749 27.9628 35.9786 27.9494 35.9851C27.9361 35.9915 27.9242 36.0005 27.9144 36.0115C27.9045 36.0226 27.8969 36.0355 27.8921 36.0495C27.8872 36.0634 27.8851 36.0782 27.886 36.093C27.8869 36.1078 27.8906 36.1222 27.8971 36.1356C27.9035 36.1489 27.9125 36.1608 27.9235 36.1706C27.9346 36.1805 27.9475 36.1881 27.9615 36.1929C27.9754 36.1978 27.9902 36.1999 28.005 36.199C28.0348 36.1971 28.0627 36.1835 28.0825 36.1611C28.1023 36.1387 28.1124 36.1093 28.1105 36.0795C28.1086 36.0497 28.095 36.0218 28.0726 36.002C28.0502 35.9822 28.0208 35.9721 27.991 35.974H27.992ZM19.992 36.537C19.9773 36.5379 19.9629 36.5416 19.9496 36.548C19.9364 36.5544 19.9245 36.5634 19.9147 36.5744C19.9049 36.5854 19.8974 36.5982 19.8925 36.6121C19.8877 36.6261 19.8856 36.6408 19.8865 36.6555C19.8874 36.6702 19.8911 36.6846 19.8975 36.6979C19.9039 36.7111 19.9129 36.723 19.9239 36.7328C19.9349 36.7426 19.9477 36.7501 19.9616 36.755C19.9756 36.7598 19.9903 36.7619 20.005 36.761C20.0347 36.7591 20.0625 36.7456 20.0821 36.7232C20.1018 36.7009 20.1119 36.6717 20.11 36.642C20.1081 36.6123 20.0946 36.5845 20.0722 36.5649C20.0499 36.5452 20.0207 36.5351 19.991 36.537H19.992ZM27.992 36.537C27.9773 36.5379 27.9629 36.5416 27.9496 36.548C27.9364 36.5544 27.9245 36.5634 27.9147 36.5744C27.9049 36.5854 27.8974 36.5982 27.8925 36.6121C27.8877 36.6261 27.8856 36.6408 27.8865 36.6555C27.8874 36.6702 27.8911 36.6846 27.8975 36.6979C27.9039 36.7111 27.9129 36.723 27.9239 36.7328C27.9349 36.7426 27.9477 36.7501 27.9616 36.755C27.9756 36.7598 27.9903 36.7619 28.005 36.761C28.0347 36.7591 28.0625 36.7456 28.0821 36.7232C28.1018 36.7009 28.1119 36.6717 28.11 36.642C28.1081 36.6123 28.0946 36.5845 28.0722 36.5649C28.0499 36.5452 28.0207 36.5351 27.991 36.537H27.992ZM19.98 37.099C19.9533 37.1029 19.929 37.1165 19.9117 37.1371C19.8944 37.1578 19.8852 37.1841 19.886 37.211C19.886 37.2408 19.8979 37.2695 19.9189 37.2906C19.94 37.3116 19.9687 37.3235 19.9985 37.3235C20.0283 37.3235 20.057 37.3116 20.078 37.2906C20.0991 37.2695 20.111 37.2408 20.111 37.211C20.111 37.149 20.061 37.101 19.999 37.099H19.98ZM27.98 37.099C27.9533 37.1029 27.929 37.1165 27.9117 37.1371C27.8944 37.1578 27.8852 37.1841 27.886 37.211C27.886 37.2408 27.8979 37.2695 27.9189 37.2906C27.94 37.3116 27.9687 37.3235 27.9985 37.3235C28.0283 37.3235 28.057 37.3116 28.078 37.2906C28.0991 37.2695 28.111 37.2408 28.111 37.211C28.111 37.149 28.061 37.101 27.999 37.099H27.98ZM19.991 37.66C19.9762 37.6605 19.9617 37.664 19.9483 37.6701C19.9348 37.6762 19.9227 37.685 19.9126 37.6958C19.9025 37.7066 19.8947 37.7193 19.8895 37.7331C19.8844 37.747 19.882 37.7617 19.8825 37.7765C19.883 37.7913 19.8865 37.8058 19.8926 37.8192C19.8987 37.8327 19.9075 37.8448 19.9183 37.8549C19.9291 37.865 19.9418 37.8728 19.9556 37.878C19.9695 37.8831 19.9842 37.8855 19.999 37.885C20.0288 37.8839 20.057 37.8711 20.0774 37.8492C20.0977 37.8274 20.1086 37.7983 20.1075 37.7685C20.1064 37.7387 20.0936 37.7105 20.0717 37.6901C20.0499 37.6698 20.0208 37.6589 19.991 37.66ZM27.991 37.66C27.9762 37.6605 27.9617 37.664 27.9483 37.6701C27.9348 37.6762 27.9227 37.685 27.9126 37.6958C27.9025 37.7066 27.8947 37.7193 27.8895 37.7331C27.8844 37.747 27.882 37.7617 27.8825 37.7765C27.883 37.7913 27.8865 37.8058 27.8926 37.8192C27.8987 37.8327 27.9075 37.8448 27.9183 37.8549C27.9291 37.865 27.9418 37.8728 27.9556 37.878C27.9695 37.8831 27.9842 37.8855 27.999 37.885C28.0288 37.8839 28.057 37.8711 28.0774 37.8492C28.0977 37.8274 28.1086 37.7983 28.1075 37.7685C28.1064 37.7387 28.0936 37.7105 28.0717 37.6901C28.0499 37.6698 28.0208 37.6589 27.991 37.66ZM17.577 38.123V38.125C17.4524 38.1269 17.3295 38.1535 17.2152 38.2031C17.1009 38.2527 16.9975 38.3243 16.911 38.414L15.103 40.271C15.0163 40.3603 14.9481 40.4658 14.9022 40.5815C14.8563 40.6971 14.8336 40.8207 14.8355 40.9451C14.8392 41.1964 14.9427 41.436 15.123 41.611C15.3033 41.786 15.5458 41.8823 15.7971 41.8785C16.0484 41.8748 16.288 41.7713 16.463 41.591L18.27 39.732C18.357 39.6429 18.4255 39.5374 18.4716 39.4217C18.5177 39.306 18.5405 39.1824 18.5386 39.0578C18.5368 38.9333 18.5103 38.8104 18.4608 38.6961C18.4112 38.5818 18.3396 38.4785 18.25 38.392C18.161 38.3048 18.0556 38.236 17.94 38.1897C17.8243 38.1433 17.7006 38.1203 17.576 38.122L17.577 38.123ZM24.859 38.123V38.125C24.7344 38.1269 24.6115 38.1535 24.4972 38.2031C24.3829 38.2527 24.2795 38.3243 24.193 38.414L22.384 40.271C22.2973 40.3603 22.2291 40.4658 22.1832 40.5815C22.1373 40.6971 22.1146 40.8207 22.1165 40.9451C22.1183 41.0696 22.1447 41.1924 22.194 41.3067C22.2433 41.4209 22.3147 41.5243 22.404 41.611C22.4933 41.6977 22.5988 41.7659 22.7145 41.8118C22.8301 41.8577 22.9537 41.8804 23.0781 41.8785C23.2026 41.8767 23.3254 41.8503 23.4397 41.801C23.5539 41.7517 23.6573 41.6803 23.744 41.591L25.552 39.732C25.639 39.6429 25.7075 39.5374 25.7536 39.4217C25.7997 39.306 25.8225 39.1824 25.8206 39.0578C25.8188 38.9333 25.7923 38.8104 25.7428 38.6961C25.6932 38.5818 25.6216 38.4785 25.532 38.392C25.4431 38.3049 25.3379 38.2362 25.2224 38.1899C25.1069 38.1435 24.9834 38.1205 24.859 38.122V38.123ZM32.139 38.123V38.125C32.0146 38.1271 31.8918 38.1537 31.7777 38.2033C31.6636 38.2528 31.5604 38.3245 31.474 38.414L29.665 40.271C29.5783 40.3603 29.5101 40.4658 29.4642 40.5815C29.4183 40.6971 29.3956 40.8207 29.3975 40.9451C29.3993 41.0696 29.4257 41.1924 29.475 41.3067C29.5243 41.4209 29.5957 41.5243 29.685 41.611C29.7743 41.6977 29.8798 41.7659 29.9955 41.8118C30.1111 41.8577 30.2347 41.8804 30.3591 41.8785C30.4836 41.8767 30.6064 41.8503 30.7207 41.801C30.8349 41.7517 30.9383 41.6803 31.025 41.591L32.833 39.732C32.92 39.6429 32.9885 39.5374 33.0346 39.4217C33.0807 39.306 33.1035 39.1824 33.1016 39.0578C33.0998 38.9333 33.0733 38.8104 33.0238 38.6961C32.9742 38.5818 32.9026 38.4785 32.813 38.392C32.7241 38.3049 32.6189 38.2362 32.5034 38.1899C32.3879 38.1435 32.2644 38.1205 32.14 38.122L32.139 38.123ZM19.992 38.223C19.9632 38.2245 19.9361 38.2372 19.9163 38.2582C19.8966 38.2793 19.8857 38.3071 19.886 38.336C19.886 38.397 19.936 38.448 19.999 38.447C20.06 38.447 20.11 38.397 20.111 38.336C20.1113 38.3204 20.1084 38.305 20.1024 38.2906C20.0964 38.2762 20.0875 38.2632 20.0762 38.2525C20.0649 38.2418 20.0515 38.2335 20.0368 38.2283C20.0221 38.223 20.0065 38.2209 19.991 38.222L19.992 38.223ZM27.992 38.223C27.9632 38.2245 27.9361 38.2372 27.9163 38.2582C27.8966 38.2793 27.8857 38.3071 27.886 38.336C27.886 38.397 27.936 38.448 27.999 38.447C28.06 38.447 28.11 38.397 28.111 38.336C28.1113 38.3204 28.1084 38.305 28.1024 38.2906C28.0964 38.2762 28.0875 38.2632 28.0762 38.2525C28.0649 38.2418 28.0515 38.2335 28.0368 38.2283C28.0221 38.223 28.0065 38.2209 27.991 38.222L27.992 38.223ZM19.992 38.785C19.9622 38.7859 19.9339 38.7987 19.9135 38.8204C19.893 38.8422 19.8821 38.8712 19.883 38.901C19.8839 38.9308 19.8967 38.9591 19.9184 38.9795C19.9402 39 19.9692 39.0109 19.999 39.01C20.0138 39.0095 20.0283 39.006 20.0417 38.9999C20.0552 38.9938 20.0673 38.985 20.0774 38.9742C20.0875 38.9634 20.0953 38.9507 20.1005 38.9369C20.1056 38.923 20.108 38.9083 20.1075 38.8935C20.107 38.8787 20.1035 38.8642 20.0974 38.8508C20.0913 38.8373 20.0825 38.8252 20.0717 38.8151C20.0609 38.805 20.0482 38.7972 20.0344 38.792C20.0205 38.7869 20.0058 38.7845 19.991 38.785H19.992ZM27.992 38.785C27.9622 38.7859 27.9339 38.7987 27.9135 38.8204C27.893 38.8422 27.8821 38.8712 27.883 38.901C27.8839 38.9308 27.8967 38.9591 27.9184 38.9795C27.9402 39 27.9692 39.0109 27.999 39.01C28.0138 39.0095 28.0283 39.006 28.0417 38.9999C28.0552 38.9938 28.0673 38.985 28.0774 38.9742C28.0875 38.9634 28.0953 38.9507 28.1005 38.9369C28.1056 38.923 28.108 38.9083 28.1075 38.8935C28.107 38.8787 28.1035 38.8642 28.0974 38.8508C28.0913 38.8373 28.0825 38.8252 28.0717 38.8151C28.0609 38.805 28.0482 38.7972 28.0344 38.792C28.0205 38.7869 28.0058 38.7845 27.991 38.785H27.992ZM19.992 39.348C19.9633 39.35 19.9365 39.3628 19.9169 39.3837C19.8972 39.4047 19.8862 39.4323 19.886 39.461C19.886 39.4908 19.8979 39.5195 19.9189 39.5406C19.94 39.5616 19.9687 39.5735 19.9985 39.5735C20.0283 39.5735 20.057 39.5616 20.078 39.5406C20.0991 39.5195 20.111 39.4908 20.111 39.461C20.111 39.4455 20.1079 39.4302 20.1018 39.4159C20.0957 39.4017 20.0867 39.3889 20.0755 39.3782C20.0643 39.3675 20.051 39.3593 20.0365 39.3539C20.0219 39.3485 20.0065 39.3462 19.991 39.347L19.992 39.348ZM27.992 39.348C27.9633 39.35 27.9365 39.3628 27.9169 39.3837C27.8972 39.4047 27.8862 39.4323 27.886 39.461C27.886 39.4908 27.8979 39.5195 27.9189 39.5406C27.94 39.5616 27.9687 39.5735 27.9985 39.5735C28.0283 39.5735 28.057 39.5616 28.078 39.5406C28.0991 39.5195 28.111 39.4908 28.111 39.461C28.111 39.4455 28.1079 39.4302 28.1018 39.4159C28.0957 39.4017 28.0867 39.3889 28.0755 39.3782C28.0643 39.3675 28.051 39.3593 28.0365 39.3539C28.0219 39.3485 28.0065 39.3462 27.991 39.347L27.992 39.348ZM19.992 39.91C19.9773 39.9109 19.9629 39.9146 19.9496 39.921C19.9364 39.9274 19.9245 39.9364 19.9147 39.9474C19.9049 39.9584 19.8974 39.9712 19.8925 39.9851C19.8877 39.9991 19.8856 40.0138 19.8865 40.0285C19.8874 40.0432 19.8911 40.0576 19.8975 40.0709C19.9039 40.0841 19.9129 40.096 19.9239 40.1058C19.9349 40.1156 19.9477 40.1231 19.9616 40.128C19.9756 40.1328 19.9903 40.1349 20.005 40.134C20.0347 40.1321 20.0625 40.1186 20.0821 40.0962C20.1018 40.0739 20.1119 40.0447 20.11 40.015C20.1081 39.9853 20.0946 39.9575 20.0722 39.9379C20.0499 39.9182 20.0207 39.9081 19.991 39.91H19.992ZM27.992 39.91C27.9773 39.9109 27.9629 39.9146 27.9496 39.921C27.9364 39.9274 27.9245 39.9364 27.9147 39.9474C27.9049 39.9584 27.8974 39.9712 27.8925 39.9851C27.8877 39.9991 27.8856 40.0138 27.8865 40.0285C27.8874 40.0432 27.8911 40.0576 27.8975 40.0709C27.9039 40.0841 27.9129 40.096 27.9239 40.1058C27.9349 40.1156 27.9477 40.1231 27.9616 40.128C27.9756 40.1328 27.9903 40.1349 28.005 40.134C28.0347 40.1321 28.0625 40.1186 28.0821 40.0962C28.1018 40.0739 28.1119 40.0447 28.11 40.015C28.1081 39.9853 28.0946 39.9575 28.0722 39.9379C28.0499 39.9182 28.0207 39.9081 27.991 39.91H27.992ZM19.992 40.473C19.9773 40.4739 19.9629 40.4776 19.9496 40.484C19.9364 40.4904 19.9245 40.4994 19.9147 40.5104C19.9049 40.5214 19.8974 40.5342 19.8925 40.5481C19.8877 40.5621 19.8856 40.5768 19.8865 40.5915C19.8874 40.6062 19.8911 40.6206 19.8975 40.6339C19.9039 40.6471 19.9129 40.659 19.9239 40.6688C19.9349 40.6786 19.9477 40.6861 19.9616 40.691C19.9756 40.6958 19.9903 40.6979 20.005 40.697C20.0347 40.6951 20.0625 40.6816 20.0821 40.6592C20.1018 40.6369 20.1119 40.6077 20.11 40.578C20.1081 40.5483 20.0946 40.5205 20.0722 40.5009C20.0499 40.4812 20.0207 40.4711 19.991 40.473H19.992ZM27.992 40.473C27.9773 40.4739 27.9629 40.4776 27.9496 40.484C27.9364 40.4904 27.9245 40.4994 27.9147 40.5104C27.9049 40.5214 27.8974 40.5342 27.8925 40.5481C27.8877 40.5621 27.8856 40.5768 27.8865 40.5915C27.8874 40.6062 27.8911 40.6206 27.8975 40.6339C27.9039 40.6471 27.9129 40.659 27.9239 40.6688C27.9349 40.6786 27.9477 40.6861 27.9616 40.691C27.9756 40.6958 27.9903 40.6979 28.005 40.697C28.0347 40.6951 28.0625 40.6816 28.0821 40.6592C28.1018 40.6369 28.1119 40.6077 28.11 40.578C28.1081 40.5483 28.0946 40.5205 28.0722 40.5009C28.0499 40.4812 28.0207 40.4711 27.991 40.473H27.992ZM19.98 41.035C19.9535 41.0389 19.9293 41.0523 19.912 41.0727C19.8947 41.0932 19.8855 41.1192 19.886 41.146C19.886 41.209 19.936 41.262 19.999 41.261C20.0291 41.2605 20.0577 41.2481 20.0787 41.2266C20.0996 41.205 20.1113 41.1761 20.111 41.146C20.111 41.086 20.061 41.036 19.999 41.035H19.98ZM27.98 41.035C27.9535 41.0389 27.9293 41.0523 27.912 41.0727C27.8947 41.0932 27.8855 41.1192 27.886 41.146C27.886 41.209 27.936 41.262 27.999 41.261C28.0291 41.2605 28.0577 41.2481 28.0787 41.2266C28.0996 41.205 28.1113 41.1761 28.111 41.146C28.111 41.086 28.061 41.036 27.999 41.035H27.98ZM19.98 41.598C19.9534 41.6025 19.9294 41.6164 19.9121 41.6371C19.8949 41.6578 19.8856 41.6841 19.886 41.711C19.886 41.773 19.936 41.821 19.999 41.821C20.0136 41.8213 20.0281 41.8186 20.0417 41.8132C20.0553 41.8078 20.0676 41.7997 20.0781 41.7895C20.0885 41.7793 20.0968 41.767 20.1024 41.7536C20.1081 41.7401 20.111 41.7256 20.111 41.711C20.111 41.6811 20.0993 41.6524 20.0783 41.6311C20.0574 41.6098 20.0289 41.5975 19.999 41.597H19.98V41.598ZM27.98 41.598C27.9534 41.6025 27.9294 41.6164 27.9121 41.6371C27.8949 41.6578 27.8856 41.6841 27.886 41.711C27.886 41.773 27.936 41.821 27.999 41.821C28.0136 41.8213 28.0281 41.8186 28.0417 41.8132C28.0553 41.8078 28.0676 41.7997 28.0781 41.7895C28.0885 41.7793 28.0968 41.767 28.1024 41.7536C28.1081 41.7401 28.111 41.7256 28.111 41.711C28.111 41.6811 28.0993 41.6524 28.0783 41.6311C28.0574 41.6098 28.0289 41.5975 27.999 41.597H27.98V41.598ZM20.001 42.158C19.9853 42.1565 19.9695 42.1583 19.9546 42.1633C19.9397 42.1683 19.926 42.1763 19.9143 42.1869C19.9027 42.1975 19.8934 42.2104 19.887 42.2248C19.8807 42.2392 19.8774 42.2548 19.8774 42.2705C19.8774 42.2862 19.8807 42.3018 19.887 42.3162C19.8934 42.3306 19.9027 42.3435 19.9143 42.3541C19.926 42.3647 19.9397 42.3727 19.9546 42.3777C19.9695 42.3827 19.9853 42.3845 20.001 42.383C20.0308 42.383 20.0595 42.3712 20.0805 42.3501C20.1016 42.329 20.1135 42.3003 20.1135 42.2705C20.1135 42.2407 20.1016 42.2121 20.0805 42.191C20.0595 42.1699 20.0308 42.158 20.001 42.158ZM28.001 42.158C27.9853 42.1565 27.9695 42.1583 27.9546 42.1633C27.9397 42.1683 27.926 42.1763 27.9143 42.1869C27.9027 42.1975 27.8934 42.2104 27.887 42.2248C27.8807 42.2392 27.8774 42.2548 27.8774 42.2705C27.8774 42.2862 27.8807 42.3018 27.887 42.3162C27.8934 42.3306 27.9027 42.3435 27.9143 42.3541C27.926 42.3647 27.9397 42.3727 27.9546 42.3777C27.9695 42.3827 27.9853 42.3845 28.001 42.383C28.0308 42.383 28.0595 42.3712 28.0805 42.3501C28.1016 42.329 28.1135 42.3003 28.1135 42.2705C28.1135 42.2407 28.1016 42.2121 28.0805 42.191C28.0595 42.1699 28.0308 42.158 28.001 42.158ZM19.991 42.721C19.9624 42.7228 19.9355 42.7355 19.9159 42.7565C19.8964 42.7776 19.8857 42.8053 19.886 42.834C19.886 42.896 19.936 42.948 19.999 42.947C20.06 42.947 20.11 42.895 20.111 42.834C20.1113 42.8184 20.1084 42.803 20.1024 42.7886C20.0964 42.7742 20.0875 42.7612 20.0762 42.7505C20.0649 42.7398 20.0515 42.7315 20.0368 42.7263C20.0221 42.721 20.0065 42.7189 19.991 42.72V42.721ZM27.991 42.721C27.9624 42.7228 27.9355 42.7355 27.9159 42.7565C27.8964 42.7776 27.8857 42.8053 27.886 42.834C27.886 42.896 27.936 42.948 27.999 42.947C28.06 42.947 28.11 42.895 28.111 42.834C28.1113 42.8184 28.1084 42.803 28.1024 42.7886C28.0964 42.7742 28.0875 42.7612 28.0762 42.7505C28.0649 42.7398 28.0515 42.7315 28.0368 42.7263C28.0221 42.721 28.0065 42.7189 27.991 42.72V42.721Z" fill="#333333"/>
</g>
<defs>
<clipPath id="clip0">
<rect width="48" height="48" fill="white"/>
</clipPath>
</defs>
</svg>
