<svg width="48" height="48" viewBox="0 0 48 48" fill="none" xmlns="http://www.w3.org/2000/svg">
<g clip-path="url(#clip0)">
<path fill-rule="evenodd" clip-rule="evenodd" d="M0 0V48H48V0H0ZM28.822 3.98C30.516 3.985 32.202 3.997 33.852 4.023C34.721 4.023 35.42 4.723 35.42 5.592V42.453C35.42 43.323 34.721 44.023 33.852 44.023H14.147C13.277 44.023 12.58 43.323 12.58 42.453V5.592C12.58 4.722 13.277 4.023 14.146 4.023C18.596 4.022 23.743 3.965 28.822 3.98ZM23.992 5.057C23.9773 5.05792 23.9629 5.06173 23.9497 5.0682C23.9364 5.07468 23.9246 5.0837 23.9149 5.09475C23.9051 5.1058 23.8976 5.11867 23.8928 5.13261C23.8881 5.14655 23.8861 5.16129 23.887 5.176C23.8879 5.19071 23.8917 5.20509 23.8982 5.21833C23.9047 5.23156 23.9137 5.2434 23.9248 5.25315C23.9358 5.2629 23.9487 5.27037 23.9626 5.27515C23.9765 5.27993 23.9913 5.28192 24.006 5.281C24.0357 5.27914 24.0635 5.26556 24.0831 5.24325C24.1028 5.22093 24.1129 5.1917 24.111 5.162C24.1091 5.1323 24.0956 5.10455 24.0732 5.08485C24.0509 5.06516 24.0217 5.05514 23.992 5.057ZM23.992 5.619C23.9765 5.61887 23.9611 5.62193 23.9468 5.628C23.9326 5.63406 23.9197 5.643 23.909 5.65426C23.8983 5.66552 23.8901 5.67885 23.8848 5.69344C23.8795 5.70802 23.8773 5.72353 23.8782 5.73901C23.8792 5.7545 23.8834 5.76961 23.8904 5.78343C23.8975 5.79724 23.9073 5.80945 23.9193 5.8193C23.9313 5.82915 23.9452 5.83642 23.9601 5.84067C23.975 5.84492 23.9906 5.84606 24.006 5.844C24.0343 5.84021 24.0602 5.82583 24.0783 5.80374C24.0965 5.78166 24.1056 5.75351 24.1038 5.72498C24.102 5.69645 24.0895 5.66965 24.0688 5.64998C24.048 5.63032 24.0206 5.61925 23.992 5.619ZM23.982 6.182C23.9556 6.18626 23.9315 6.19976 23.9141 6.22008C23.8968 6.24041 23.8871 6.26625 23.887 6.293C23.887 6.355 23.937 6.403 24 6.403C24.0145 6.40313 24.0289 6.40038 24.0424 6.39492C24.0559 6.38945 24.0681 6.38137 24.0784 6.37114C24.0887 6.36091 24.0969 6.34874 24.1025 6.33533C24.1081 6.32192 24.111 6.30753 24.111 6.293C24.111 6.232 24.061 6.183 24 6.182H23.982ZM19.391 6.4C18.9667 6.4 18.5597 6.56857 18.2596 6.86863C17.9596 7.16869 17.791 7.57565 17.791 8C17.791 8.42435 17.9596 8.83131 18.2596 9.13137C18.5597 9.43143 18.9667 9.6 19.391 9.6C19.8153 9.6 20.2223 9.43143 20.5224 9.13137C20.8224 8.83131 20.991 8.42435 20.991 8C20.991 7.57565 20.8224 7.16869 20.5224 6.86863C20.2223 6.56857 19.8153 6.4 19.391 6.4ZM28.609 6.4C28.1847 6.4 27.7777 6.56857 27.4776 6.86863C27.1776 7.16869 27.009 7.57565 27.009 8C27.009 8.42435 27.1776 8.83131 27.4776 9.13137C27.7777 9.43143 28.1847 9.6 28.609 9.6C29.0333 9.6 29.4403 9.43143 29.7404 9.13137C30.0404 8.83131 30.209 8.42435 30.209 8C30.209 7.57565 30.0404 7.16869 29.7404 6.86863C29.4403 6.56857 29.0333 6.4 28.609 6.4ZM24.002 6.742C23.9863 6.74052 23.9705 6.74233 23.9556 6.74731C23.9407 6.75229 23.927 6.76034 23.9153 6.77093C23.9037 6.78152 23.8944 6.79442 23.888 6.80881C23.8817 6.8232 23.8784 6.83877 23.8784 6.8545C23.8784 6.87023 23.8817 6.8858 23.888 6.90019C23.8944 6.91458 23.9037 6.92748 23.9153 6.93807C23.927 6.94866 23.9407 6.95671 23.9556 6.96169C23.9705 6.96667 23.9863 6.96848 24.002 6.967C24.0318 6.967 24.0605 6.95515 24.0815 6.93405C24.1026 6.91295 24.1145 6.88434 24.1145 6.8545C24.1145 6.82466 24.1026 6.79605 24.0815 6.77495C24.0605 6.75385 24.0318 6.742 24.002 6.742ZM23.992 7.305C23.9773 7.30592 23.9629 7.30973 23.9497 7.3162C23.9364 7.32268 23.9246 7.3317 23.9149 7.34275C23.9051 7.3538 23.8976 7.36667 23.8928 7.38061C23.8881 7.39455 23.8861 7.40929 23.887 7.424C23.8879 7.43871 23.8917 7.45309 23.8982 7.46633C23.9047 7.47956 23.9137 7.4914 23.9248 7.50115C23.9358 7.5109 23.9487 7.51837 23.9626 7.52315C23.9765 7.52793 23.9913 7.52992 24.006 7.529C24.0357 7.52714 24.0635 7.51356 24.0831 7.49125C24.1028 7.46893 24.1129 7.4397 24.111 7.41C24.1091 7.3803 24.0956 7.35255 24.0732 7.33285C24.0509 7.31316 24.0217 7.30314 23.992 7.305ZM23.992 7.865C23.9773 7.86592 23.9629 7.86973 23.9497 7.8762C23.9364 7.88268 23.9246 7.8917 23.9149 7.90275C23.9051 7.9138 23.8976 7.92667 23.8928 7.94061C23.8881 7.95455 23.8861 7.96929 23.887 7.984C23.8879 7.99871 23.8917 8.01309 23.8982 8.02633C23.9047 8.03956 23.9137 8.0514 23.9248 8.06115C23.9358 8.0709 23.9487 8.07837 23.9626 8.08315C23.9765 8.08793 23.9913 8.08992 24.006 8.089C24.0357 8.08714 24.0635 8.07356 24.0831 8.05125C24.1028 8.02893 24.1129 7.9997 24.111 7.97C24.1091 7.9403 24.0956 7.91255 24.0732 7.89285C24.0509 7.87316 24.0217 7.86314 23.992 7.865ZM23.992 8.428C23.9773 8.42892 23.9629 8.43273 23.9497 8.4392C23.9364 8.44568 23.9246 8.4547 23.9149 8.46575C23.9051 8.4768 23.8976 8.48967 23.8928 8.50361C23.8881 8.51755 23.8861 8.53229 23.887 8.547C23.8879 8.56171 23.8917 8.57609 23.8982 8.58933C23.9047 8.60256 23.9137 8.6144 23.9248 8.62415C23.9358 8.6339 23.9487 8.64137 23.9626 8.64615C23.9765 8.65093 23.9913 8.65292 24.006 8.652C24.0357 8.65014 24.0635 8.63656 24.0831 8.61425C24.1028 8.59193 24.1129 8.5627 24.111 8.533C24.1091 8.5033 24.0956 8.47554 24.0732 8.45585C24.0509 8.43616 24.0217 8.42614 23.992 8.428ZM23.992 8.99C23.9637 8.99129 23.937 9.00344 23.9174 9.02393C23.8979 9.04442 23.887 9.07167 23.887 9.1C23.8849 9.11596 23.8862 9.1322 23.8908 9.14762C23.8955 9.16304 23.9034 9.17729 23.914 9.18941C23.9246 9.20153 23.9376 9.21125 23.9523 9.2179C23.967 9.22456 23.9829 9.228 23.999 9.228C24.0151 9.228 24.031 9.22456 24.0457 9.2179C24.0604 9.21125 24.0734 9.20153 24.084 9.18941C24.0946 9.17729 24.1025 9.16304 24.1072 9.14762C24.1118 9.1322 24.1131 9.11596 24.111 9.1C24.1111 9.08476 24.1079 9.06968 24.1019 9.05572C24.0958 9.04175 24.0869 9.0292 24.0757 9.01885C24.0645 9.00851 24.0513 9.00061 24.0369 8.99564C24.0225 8.99067 24.0072 8.98875 23.992 8.99ZM23.992 9.553C23.9637 9.55429 23.937 9.56644 23.9174 9.58693C23.8979 9.60742 23.887 9.63467 23.887 9.663C23.8849 9.67896 23.8862 9.6952 23.8908 9.71062C23.8955 9.72604 23.9034 9.74029 23.914 9.75241C23.9246 9.76453 23.9376 9.77425 23.9523 9.7809C23.967 9.78756 23.9829 9.791 23.999 9.791C24.0151 9.791 24.031 9.78756 24.0457 9.7809C24.0604 9.77425 24.0734 9.76453 24.084 9.75241C24.0946 9.74029 24.1025 9.72604 24.1072 9.71062C24.1118 9.6952 24.1131 9.67896 24.111 9.663C24.1111 9.64777 24.1079 9.63269 24.1019 9.61872C24.0958 9.60475 24.0869 9.5922 24.0757 9.58185C24.0645 9.57151 24.0513 9.56361 24.0369 9.55864C24.0225 9.55367 24.0072 9.55175 23.992 9.553ZM23.98 10.115C23.9534 10.1198 23.9295 10.1339 23.9124 10.1548C23.8953 10.1757 23.8863 10.202 23.887 10.229C23.8849 10.245 23.8862 10.2612 23.8908 10.2766C23.8955 10.292 23.9034 10.3063 23.914 10.3184C23.9246 10.3305 23.9376 10.3402 23.9523 10.3469C23.967 10.3536 23.9829 10.357 23.999 10.357C24.0151 10.357 24.031 10.3536 24.0457 10.3469C24.0604 10.3402 24.0734 10.3305 24.084 10.3184C24.0946 10.3063 24.1025 10.292 24.1072 10.2766C24.1118 10.2612 24.1131 10.245 24.111 10.229C24.1113 10.1991 24.0998 10.1703 24.079 10.1488C24.0583 10.1273 24.0299 10.1148 24 10.114H23.98V10.115ZM19.39 10.4C19.1799 10.4 18.9718 10.4414 18.7777 10.5218C18.5836 10.6022 18.4072 10.7201 18.2586 10.8686C18.1101 11.0172 17.9922 11.1936 17.9118 11.3877C17.8314 11.5818 17.79 11.7899 17.79 12C17.79 12.2101 17.8314 12.4182 17.9118 12.6123C17.9922 12.8064 18.1101 12.9828 18.2586 13.1314C18.4072 13.2799 18.5836 13.3978 18.7777 13.4782C18.9718 13.5586 19.1799 13.6 19.39 13.6C19.8143 13.6 20.2213 13.4314 20.5214 13.1314C20.8214 12.8313 20.99 12.4243 20.99 12C20.99 11.5757 20.8214 11.1687 20.5214 10.8686C20.2213 10.5686 19.8143 10.4 19.39 10.4ZM28.61 10.4C28.3966 10.3946 28.1842 10.432 27.9855 10.5099C27.7867 10.5878 27.6056 10.7047 27.4527 10.8537C27.2998 11.0027 27.1783 11.1808 27.0953 11.3775C27.0124 11.5742 26.9696 11.7855 26.9695 11.999C26.9694 12.2125 27.0121 12.4238 27.095 12.6205C27.1778 12.8173 27.2992 12.9955 27.452 13.1446C27.6048 13.2937 27.7859 13.4107 27.9846 13.4887C28.1833 13.5668 28.3956 13.6043 28.609 13.599C29.0263 13.5886 29.423 13.4155 29.7144 13.1166C30.0059 12.8178 30.169 12.4169 30.169 11.9995C30.169 11.5821 30.0059 11.1812 29.7144 10.8824C29.423 10.5835 29.0263 10.4104 28.609 10.4H28.61ZM24.002 10.676C23.987 10.6761 23.9722 10.6792 23.9585 10.6851C23.9447 10.6909 23.9322 10.6994 23.9217 10.7101C23.9112 10.7208 23.9029 10.7334 23.8973 10.7473C23.8917 10.7612 23.8889 10.776 23.889 10.791C23.889 10.853 23.939 10.899 24.002 10.898C24.063 10.898 24.112 10.853 24.113 10.791C24.1133 10.7611 24.1018 10.7323 24.081 10.7108C24.0603 10.6893 24.0319 10.6768 24.002 10.676ZM24.002 11.238C23.9864 11.2364 23.9705 11.2381 23.9556 11.2429C23.9406 11.2478 23.9268 11.2557 23.9151 11.2662C23.9034 11.2767 23.894 11.2895 23.8875 11.3038C23.881 11.3181 23.8776 11.3337 23.8774 11.3494C23.8773 11.3651 23.8804 11.3807 23.8867 11.3952C23.8929 11.4096 23.9021 11.4226 23.9136 11.4333C23.9252 11.444 23.9388 11.4521 23.9537 11.4573C23.9685 11.4624 23.9843 11.4643 24 11.463C24.028 11.4606 24.0542 11.4479 24.0733 11.4272C24.0924 11.4066 24.1032 11.3795 24.1034 11.3514C24.1037 11.3233 24.0934 11.2961 24.0747 11.2751C24.0559 11.2541 24.03 11.2409 24.002 11.238ZM23.992 11.801C23.9637 11.8045 23.9377 11.8184 23.9192 11.8401C23.9007 11.8618 23.8909 11.8897 23.892 11.9182C23.893 11.9467 23.9046 11.9738 23.9246 11.9941C23.9446 12.0144 23.9715 12.0265 24 12.028C24.061 12.027 24.11 11.975 24.111 11.914C24.1112 11.8986 24.1082 11.8833 24.1022 11.8691C24.0962 11.855 24.0873 11.8422 24.0761 11.8316C24.065 11.821 24.0517 11.8128 24.0373 11.8075C24.0228 11.8023 24.0074 11.8 23.992 11.801ZM23.992 12.363C23.9637 12.3665 23.9377 12.3804 23.9192 12.4021C23.9007 12.4238 23.8909 12.4517 23.892 12.4802C23.893 12.5087 23.9046 12.5358 23.9246 12.5561C23.9446 12.5764 23.9715 12.5885 24 12.59C24.061 12.59 24.11 12.538 24.111 12.477C24.1113 12.4615 24.1084 12.4461 24.1025 12.4318C24.0965 12.4175 24.0877 12.4046 24.0765 12.3939C24.0653 12.3832 24.052 12.3749 24.0375 12.3696C24.0229 12.3643 24.0075 12.362 23.992 12.363ZM23.992 12.926C23.9637 12.9273 23.937 12.9394 23.9174 12.9599C23.8979 12.9804 23.887 13.0077 23.887 13.036C23.8849 13.052 23.8862 13.0682 23.8908 13.0836C23.8955 13.099 23.9034 13.1133 23.914 13.1254C23.9246 13.1375 23.9376 13.1472 23.9523 13.1539C23.967 13.1606 23.9829 13.164 23.999 13.164C24.0151 13.164 24.031 13.1606 24.0457 13.1539C24.0604 13.1472 24.0734 13.1375 24.084 13.1254C24.0946 13.1133 24.1025 13.099 24.1072 13.0836C24.1118 13.0682 24.1131 13.052 24.111 13.036C24.1111 13.0208 24.1079 13.0057 24.1019 12.9917C24.0958 12.9777 24.0869 12.9652 24.0757 12.9549C24.0645 12.9445 24.0513 12.9366 24.0369 12.9316C24.0225 12.9267 24.0072 12.9248 23.992 12.926ZM23.992 13.488C23.9637 13.4893 23.937 13.5014 23.9174 13.5219C23.8979 13.5424 23.887 13.5697 23.887 13.598C23.8849 13.614 23.8862 13.6302 23.8908 13.6456C23.8955 13.661 23.9034 13.6753 23.914 13.6874C23.9246 13.6995 23.9376 13.7092 23.9523 13.7159C23.967 13.7226 23.9829 13.726 23.999 13.726C24.0151 13.726 24.031 13.7226 24.0457 13.7159C24.0604 13.7092 24.0734 13.6995 24.084 13.6874C24.0946 13.6753 24.1025 13.661 24.1072 13.6456C24.1118 13.6302 24.1131 13.614 24.111 13.598C24.1111 13.5828 24.1079 13.5677 24.1019 13.5537C24.0958 13.5397 24.0869 13.5272 24.0757 13.5169C24.0645 13.5065 24.0513 13.4986 24.0369 13.4936C24.0225 13.4887 24.0072 13.4868 23.992 13.488ZM23.992 14.051C23.9761 14.0501 23.9601 14.0526 23.9452 14.0583C23.9303 14.0641 23.9168 14.0729 23.9056 14.0842C23.8943 14.0955 23.8856 14.1091 23.88 14.1241C23.8744 14.139 23.872 14.1549 23.873 14.1709C23.874 14.1868 23.8783 14.2023 23.8858 14.2165C23.8932 14.2306 23.9035 14.243 23.9161 14.2528C23.9287 14.2626 23.9432 14.2697 23.9587 14.2735C23.9742 14.2774 23.9903 14.2779 24.006 14.275C24.0332 14.27 24.0577 14.2553 24.0747 14.2335C24.0918 14.2117 24.1003 14.1844 24.0985 14.1568C24.0968 14.1292 24.085 14.1031 24.0654 14.0836C24.0457 14.0641 24.0196 14.0525 23.992 14.051ZM19.391 14.401C19.1763 14.3934 18.9622 14.4291 18.7616 14.5061C18.5609 14.583 18.3778 14.6996 18.2232 14.8488C18.0686 14.998 17.9457 15.1769 17.8617 15.3747C17.7777 15.5724 17.7344 15.7851 17.7344 16C17.7344 16.2149 17.7777 16.4276 17.8617 16.6253C17.9457 16.8231 18.0686 17.002 18.2232 17.1512C18.3778 17.3004 18.5609 17.417 18.7616 17.4939C18.9622 17.5709 19.1763 17.6066 19.391 17.599C19.8083 17.5886 20.205 17.4155 20.4964 17.1166C20.7879 16.8178 20.951 16.4169 20.951 15.9995C20.951 15.5821 20.7879 15.1812 20.4964 14.8824C20.205 14.5835 19.8083 14.4104 19.391 14.4V14.401ZM28.609 14.401C28.3943 14.3934 28.1802 14.4291 27.9796 14.5061C27.7789 14.583 27.5958 14.6996 27.4412 14.8488C27.2866 14.998 27.1637 15.1769 27.0797 15.3747C26.9957 15.5724 26.9524 15.7851 26.9524 16C26.9524 16.2149 26.9957 16.4276 27.0797 16.6253C27.1637 16.8231 27.2866 17.002 27.4412 17.1512C27.5958 17.3004 27.7789 17.417 27.9796 17.4939C28.1802 17.5709 28.3943 17.6066 28.609 17.599C29.0263 17.5886 29.423 17.4155 29.7144 17.1166C30.0059 16.8178 30.169 16.4169 30.169 15.9995C30.169 15.5821 30.0059 15.1812 29.7144 14.8824C29.423 14.5835 29.0263 14.4104 28.609 14.4V14.401ZM23.98 14.613C23.9536 14.6173 23.9297 14.631 23.9126 14.6516C23.8955 14.6722 23.8864 14.6983 23.887 14.725C23.887 14.7471 23.8935 14.7687 23.9058 14.7871C23.9181 14.8055 23.9355 14.8199 23.9559 14.8284C23.9763 14.8369 23.9988 14.8392 24.0205 14.8349C24.0422 14.8307 24.0621 14.8201 24.0778 14.8045C24.0935 14.789 24.1043 14.7691 24.1087 14.7475C24.1132 14.7258 24.1111 14.7033 24.1028 14.6828C24.0944 14.6623 24.0802 14.6448 24.0619 14.6324C24.0437 14.6199 24.0221 14.6132 24 14.613H23.98ZM23.98 15.176C23.953 15.1812 23.9288 15.1963 23.9123 15.2183C23.8957 15.2403 23.8879 15.2676 23.8904 15.2951C23.8929 15.3225 23.9055 15.348 23.9258 15.3666C23.946 15.3853 23.9725 15.3958 24 15.396C24.0144 15.3961 24.0288 15.3934 24.0422 15.388C24.0556 15.3826 24.0678 15.3746 24.0781 15.3645C24.0884 15.3544 24.0966 15.3423 24.1022 15.329C24.1079 15.3157 24.1109 15.3014 24.111 15.287C24.111 15.226 24.061 15.177 24 15.176H23.98ZM24.002 15.736C23.9863 15.7345 23.9705 15.7363 23.9556 15.7413C23.9407 15.7463 23.927 15.7543 23.9153 15.7649C23.9037 15.7755 23.8944 15.7884 23.888 15.8028C23.8817 15.8172 23.8784 15.8328 23.8784 15.8485C23.8784 15.8642 23.8817 15.8798 23.888 15.8942C23.8944 15.9086 23.9037 15.9215 23.9153 15.9321C23.927 15.9427 23.9407 15.9507 23.9556 15.9557C23.9705 15.9607 23.9863 15.9625 24.002 15.961C24.0318 15.961 24.0605 15.9491 24.0815 15.928C24.1026 15.907 24.1145 15.8783 24.1145 15.8485C24.1145 15.8187 24.1026 15.79 24.0815 15.769C24.0605 15.7479 24.0318 15.736 24.002 15.736ZM23.992 16.299C23.9627 16.3 23.9349 16.3126 23.9147 16.3339C23.8945 16.3552 23.8835 16.3836 23.884 16.4129C23.8845 16.4423 23.8966 16.4703 23.9175 16.4908C23.9385 16.5114 23.9666 16.5229 23.996 16.5229C24.0254 16.5229 24.0535 16.5114 24.0745 16.4908C24.0954 16.4703 24.1075 16.4423 24.108 16.4129C24.1085 16.3836 24.0975 16.3552 24.0773 16.3339C24.0571 16.3126 24.0293 16.3 24 16.299H23.992ZM23.992 16.861C23.9627 16.862 23.9349 16.8746 23.9147 16.8959C23.8945 16.9172 23.8835 16.9456 23.884 16.9749C23.8845 17.0043 23.8966 17.0323 23.9175 17.0528C23.9385 17.0734 23.9666 17.0849 23.996 17.0849C24.0254 17.0849 24.0535 17.0734 24.0745 17.0528C24.0954 17.0323 24.1075 17.0043 24.108 16.9749C24.1085 16.9456 24.0975 16.9172 24.0773 16.8959C24.0571 16.8746 24.0293 16.862 24 16.861H23.992ZM23.992 17.424C23.9637 17.4253 23.937 17.4374 23.9174 17.4579C23.8979 17.4784 23.887 17.5057 23.887 17.534C23.887 17.5637 23.8988 17.5922 23.9198 17.6132C23.9408 17.6342 23.9693 17.646 23.999 17.646C24.0287 17.646 24.0572 17.6342 24.0782 17.6132C24.0992 17.5922 24.111 17.5637 24.111 17.534C24.111 17.5195 24.1081 17.5051 24.1025 17.4917C24.0969 17.4783 24.0887 17.4661 24.0784 17.4559C24.0681 17.4456 24.0559 17.4376 24.0424 17.4321C24.0289 17.4266 24.0145 17.4239 24 17.424H23.992ZM23.992 17.986C23.9765 17.9859 23.9611 17.9889 23.9468 17.995C23.9326 18.0011 23.9197 18.01 23.909 18.0213C23.8983 18.0325 23.8901 18.0459 23.8848 18.0604C23.8795 18.075 23.8773 18.0905 23.8782 18.106C23.8792 18.1215 23.8834 18.1366 23.8904 18.1504C23.8975 18.1642 23.9073 18.1764 23.9193 18.1863C23.9313 18.1961 23.9452 18.2034 23.9601 18.2077C23.975 18.2119 23.9906 18.2131 24.006 18.211C24.0343 18.2072 24.0602 18.1928 24.0783 18.1707C24.0965 18.1487 24.1056 18.1205 24.1038 18.092C24.102 18.0634 24.0895 18.0366 24.0688 18.017C24.048 17.9973 24.0206 17.9862 23.992 17.986ZM19.391 18.4C18.9667 18.4 18.5597 18.5686 18.2596 18.8686C17.9596 19.1687 17.791 19.5757 17.791 20C17.791 20.4243 17.9596 20.8313 18.2596 21.1314C18.5597 21.4314 18.9667 21.6 19.391 21.6C19.8153 21.6 20.2223 21.4314 20.5224 21.1314C20.8224 20.8313 20.991 20.4243 20.991 20C20.991 19.5757 20.8224 19.1687 20.5224 18.8686C20.2223 18.5686 19.8153 18.4 19.391 18.4ZM28.609 18.4C28.3956 18.3947 28.1833 18.4321 27.9845 18.5101C27.7858 18.5881 27.6047 18.705 27.4519 18.8541C27.299 19.0031 27.1776 19.1813 27.0947 19.378C27.0117 19.5747 26.969 19.786 26.969 19.9995C26.969 20.213 27.0117 20.4243 27.0947 20.621C27.1776 20.8177 27.299 20.9959 27.4519 21.1449C27.6047 21.294 27.7858 21.4109 27.9845 21.4889C28.1833 21.5669 28.3956 21.6043 28.609 21.599C29.0263 21.5886 29.423 21.4155 29.7144 21.1166C30.0059 20.8178 30.169 20.4169 30.169 19.9995C30.169 19.5821 30.0059 19.1812 29.7144 18.8824C29.423 18.5835 29.0263 18.4104 28.609 18.4ZM23.992 18.549C23.9761 18.5481 23.9601 18.5506 23.9452 18.5563C23.9303 18.5621 23.9168 18.5709 23.9056 18.5822C23.8943 18.5935 23.8856 18.6071 23.88 18.6221C23.8744 18.637 23.872 18.6529 23.873 18.6689C23.874 18.6848 23.8783 18.7003 23.8858 18.7145C23.8932 18.7286 23.9035 18.741 23.9161 18.7508C23.9287 18.7606 23.9432 18.7677 23.9587 18.7715C23.9742 18.7754 23.9903 18.7759 24.006 18.773C24.0332 18.768 24.0577 18.7533 24.0747 18.7315C24.0918 18.7097 24.1003 18.6824 24.0985 18.6548C24.0968 18.6272 24.085 18.6011 24.0654 18.5816C24.0457 18.5621 24.0196 18.5505 23.992 18.549ZM23.98 19.111C23.9535 19.1151 23.9294 19.1288 23.9123 19.1494C23.8952 19.17 23.8862 19.1962 23.887 19.223C23.8849 19.239 23.8862 19.2552 23.8908 19.2706C23.8955 19.286 23.9034 19.3003 23.914 19.3124C23.9246 19.3245 23.9376 19.3342 23.9523 19.3409C23.967 19.3476 23.9829 19.351 23.999 19.351C24.0151 19.351 24.031 19.3476 24.0457 19.3409C24.0604 19.3342 24.0734 19.3245 24.084 19.3124C24.0946 19.3003 24.1025 19.286 24.1072 19.2706C24.1118 19.2552 24.1131 19.239 24.111 19.223C24.111 19.161 24.061 19.113 24 19.111H23.98ZM24.002 19.671C23.972 19.671 23.9433 19.6829 23.9221 19.7041C23.9009 19.7253 23.889 19.754 23.889 19.784C23.889 19.814 23.9009 19.8427 23.9221 19.8639C23.9433 19.8851 23.972 19.897 24.002 19.897C24.063 19.896 24.112 19.847 24.113 19.785C24.1131 19.7703 24.1104 19.7557 24.1049 19.7421C24.0994 19.7284 24.0912 19.716 24.0809 19.7055C24.0706 19.695 24.0583 19.6867 24.0448 19.6809C24.0312 19.6752 24.0167 19.6721 24.002 19.672V19.671ZM23.992 20.234C23.9623 20.2359 23.9345 20.2494 23.9149 20.2718C23.8952 20.2941 23.8851 20.3233 23.887 20.353C23.8889 20.3827 23.9024 20.4105 23.9248 20.4301C23.9471 20.4498 23.9763 20.4599 24.006 20.458C24.0207 20.4571 24.0351 20.4533 24.0483 20.4468C24.0616 20.4403 24.0734 20.4313 24.0831 20.4202C24.0929 20.4092 24.1004 20.3963 24.1052 20.3824C24.1099 20.3685 24.1119 20.3537 24.111 20.339C24.1101 20.3243 24.1063 20.3099 24.0998 20.2967C24.0933 20.2834 24.0843 20.2716 24.0732 20.2619C24.0622 20.2521 24.0493 20.2446 24.0354 20.2398C24.0215 20.2351 24.0067 20.2331 23.992 20.234ZM23.992 20.797C23.9773 20.7979 23.9629 20.8017 23.9497 20.8082C23.9364 20.8147 23.9246 20.8237 23.9149 20.8348C23.9051 20.8458 23.8976 20.8587 23.8928 20.8726C23.8881 20.8865 23.8861 20.9013 23.887 20.916C23.8879 20.9307 23.8917 20.9451 23.8982 20.9583C23.9047 20.9716 23.9137 20.9834 23.9248 20.9931C23.9358 21.0029 23.9487 21.0104 23.9626 21.0152C23.9765 21.0199 23.9913 21.0219 24.006 21.021C24.0357 21.0191 24.0635 21.0056 24.0831 20.9832C24.1028 20.9609 24.1129 20.9317 24.111 20.902C24.1091 20.8723 24.0956 20.8445 24.0732 20.8249C24.0509 20.8052 24.0217 20.7951 23.992 20.797ZM23.992 21.359C23.9632 21.3608 23.9362 21.3737 23.9166 21.3949C23.897 21.4161 23.8864 21.4441 23.887 21.473C23.887 21.535 23.937 21.583 24 21.582C24.0145 21.5821 24.0289 21.5794 24.0424 21.5739C24.0559 21.5684 24.0681 21.5604 24.0784 21.5501C24.0887 21.5399 24.0969 21.5277 24.1025 21.5143C24.1081 21.5009 24.111 21.4865 24.111 21.472C24.1112 21.4566 24.1082 21.4413 24.1022 21.4271C24.0962 21.413 24.0873 21.4002 24.0761 21.3896C24.065 21.379 24.0517 21.3708 24.0373 21.3655C24.0228 21.3603 24.0074 21.358 23.992 21.359ZM23.992 21.922C23.9765 21.9219 23.9611 21.9249 23.9468 21.931C23.9326 21.9371 23.9197 21.946 23.909 21.9573C23.8983 21.9685 23.8901 21.9819 23.8848 21.9964C23.8795 22.011 23.8773 22.0265 23.8782 22.042C23.8792 22.0575 23.8834 22.0726 23.8904 22.0864C23.8975 22.1002 23.9073 22.1124 23.9193 22.1223C23.9313 22.1321 23.9452 22.1394 23.9601 22.1437C23.975 22.1479 23.9906 22.1491 24.006 22.147C24.0343 22.1432 24.0602 22.1288 24.0783 22.1067C24.0965 22.0847 24.1056 22.0565 24.1038 22.028C24.102 21.9994 24.0895 21.9726 24.0688 21.953C24.048 21.9333 24.0206 21.9222 23.992 21.922ZM19.391 22.4C18.9667 22.4 18.5597 22.5686 18.2596 22.8686C17.9596 23.1687 17.791 23.5757 17.791 24C17.791 24.4243 17.9596 24.8313 18.2596 25.1314C18.5597 25.4314 18.9667 25.6 19.391 25.6C19.8153 25.6 20.2223 25.4314 20.5224 25.1314C20.8224 24.8313 20.991 24.4243 20.991 24C20.991 23.5757 20.8224 23.1687 20.5224 22.8686C20.2223 22.5686 19.8153 22.4 19.391 22.4ZM28.609 22.4C28.3956 22.3947 28.1833 22.4321 27.9845 22.5101C27.7858 22.5881 27.6047 22.705 27.4519 22.8541C27.299 23.0031 27.1776 23.1813 27.0947 23.378C27.0117 23.5747 26.969 23.786 26.969 23.9995C26.969 24.213 27.0117 24.4243 27.0947 24.621C27.1776 24.8177 27.299 24.9959 27.4519 25.1449C27.6047 25.294 27.7858 25.4109 27.9845 25.4889C28.1833 25.5669 28.3956 25.6043 28.609 25.599C29.0263 25.5886 29.423 25.4155 29.7144 25.1166C30.0059 24.8178 30.169 24.4169 30.169 23.9995C30.169 23.5821 30.0059 23.1812 29.7144 22.8824C29.423 22.5835 29.0263 22.4104 28.609 22.4ZM23.992 22.484C23.9765 22.4839 23.9611 22.4869 23.9468 22.493C23.9326 22.4991 23.9197 22.508 23.909 22.5193C23.8983 22.5305 23.8901 22.5439 23.8848 22.5584C23.8795 22.573 23.8773 22.5885 23.8782 22.604C23.8792 22.6195 23.8834 22.6346 23.8904 22.6484C23.8975 22.6622 23.9073 22.6744 23.9193 22.6843C23.9313 22.6941 23.9452 22.7014 23.9601 22.7057C23.975 22.7099 23.9906 22.7111 24.006 22.709C24.0343 22.7052 24.0602 22.6908 24.0783 22.6687C24.0965 22.6467 24.1056 22.6185 24.1038 22.59C24.102 22.5614 24.0895 22.5346 24.0688 22.515C24.048 22.4953 24.0206 22.4842 23.992 22.484ZM23.992 23.047C23.9773 23.0479 23.9629 23.0517 23.9497 23.0582C23.9364 23.0647 23.9246 23.0737 23.9149 23.0848C23.9051 23.0958 23.8976 23.1087 23.8928 23.1226C23.8881 23.1365 23.8861 23.1513 23.887 23.166C23.8879 23.1807 23.8917 23.1951 23.8982 23.2083C23.9047 23.2216 23.9137 23.2334 23.9248 23.2431C23.9358 23.2529 23.9487 23.2604 23.9626 23.2652C23.9765 23.2699 23.9913 23.2719 24.006 23.271C24.0357 23.2691 24.0635 23.2556 24.0831 23.2332C24.1028 23.2109 24.1129 23.1817 24.111 23.152C24.1091 23.1223 24.0956 23.0945 24.0732 23.0749C24.0509 23.0552 24.0217 23.0451 23.992 23.047ZM23.98 23.609C23.9539 23.6131 23.9301 23.6265 23.913 23.6467C23.8959 23.6669 23.8867 23.6925 23.887 23.719C23.887 23.7487 23.8988 23.7772 23.9198 23.7982C23.9408 23.8192 23.9693 23.831 23.999 23.831C24.0287 23.831 24.0572 23.8192 24.0782 23.7982C24.0992 23.7772 24.111 23.7487 24.111 23.719C24.111 23.7045 24.1081 23.6901 24.1025 23.6767C24.0969 23.6633 24.0887 23.6511 24.0784 23.6409C24.0681 23.6306 24.0559 23.6226 24.0424 23.6171C24.0289 23.6116 24.0145 23.6089 24 23.609H23.98ZM23.98 24.172C23.9539 24.1761 23.9301 24.1895 23.913 24.2097C23.8959 24.2299 23.8867 24.2555 23.887 24.282C23.887 24.3117 23.8988 24.3402 23.9198 24.3612C23.9408 24.3822 23.9693 24.394 23.999 24.394C24.0287 24.394 24.0572 24.3822 24.0782 24.3612C24.0992 24.3402 24.111 24.3117 24.111 24.282C24.111 24.2675 24.1081 24.2531 24.1025 24.2397C24.0969 24.2263 24.0887 24.2141 24.0784 24.2039C24.0681 24.1936 24.0559 24.1856 24.0424 24.1801C24.0289 24.1746 24.0145 24.1719 24 24.172H23.98ZM23.992 24.732C23.9627 24.733 23.9349 24.7456 23.9147 24.7669C23.8945 24.7882 23.8835 24.8166 23.884 24.8459C23.8845 24.8753 23.8966 24.9033 23.9175 24.9238C23.9385 24.9444 23.9666 24.9559 23.996 24.9559C24.0254 24.9559 24.0535 24.9444 24.0745 24.9238C24.0954 24.9033 24.1075 24.8753 24.108 24.8459C24.1085 24.8166 24.0975 24.7882 24.0773 24.7669C24.0571 24.7456 24.0293 24.733 24 24.732H23.992ZM23.992 25.295C23.9634 25.2968 23.9365 25.3095 23.9169 25.3305C23.8974 25.3516 23.8867 25.3793 23.887 25.408C23.887 25.47 23.937 25.518 24 25.518C24.0145 25.5181 24.0289 25.5154 24.0424 25.5099C24.0559 25.5044 24.0681 25.4964 24.0784 25.4861C24.0887 25.4759 24.0969 25.4637 24.1025 25.4503C24.1081 25.4369 24.111 25.4225 24.111 25.408C24.1111 25.3933 24.1084 25.3787 24.1029 25.3651C24.0974 25.3514 24.0892 25.339 24.0789 25.3285C24.0686 25.318 24.0563 25.3097 24.0428 25.3039C24.0292 25.2982 24.0147 25.2951 24 25.295H23.992ZM23.992 25.857C23.9632 25.8588 23.9362 25.8717 23.9166 25.8929C23.897 25.9141 23.8864 25.9421 23.887 25.971C23.887 26.033 23.937 26.081 24 26.081C24.0145 26.0811 24.0289 26.0784 24.0424 26.0729C24.0559 26.0674 24.0681 26.0594 24.0784 26.0491C24.0887 26.0389 24.0969 26.0267 24.1025 26.0133C24.1081 25.9999 24.111 25.9855 24.111 25.971C24.1113 25.9555 24.1084 25.9401 24.1025 25.9258C24.0965 25.9115 24.0877 25.8986 24.0765 25.8879C24.0653 25.8772 24.052 25.8689 24.0375 25.8636C24.0229 25.8583 24.0075 25.856 23.992 25.857ZM19.391 26.4C18.9667 26.4 18.5597 26.5686 18.2596 26.8686C17.9596 27.1687 17.791 27.5757 17.791 28C17.791 28.4243 17.9596 28.8313 18.2596 29.1314C18.5597 29.4314 18.9667 29.6 19.391 29.6C19.8153 29.6 20.2223 29.4314 20.5224 29.1314C20.8224 28.8313 20.991 28.4243 20.991 28C20.991 27.5757 20.8224 27.1687 20.5224 26.8686C20.2223 26.5686 19.8153 26.4 19.391 26.4ZM28.609 26.4C28.1847 26.4 27.7777 26.5686 27.4776 26.8686C27.1776 27.1687 27.009 27.5757 27.009 28C27.009 28.4243 27.1776 28.8313 27.4776 29.1314C27.7777 29.4314 28.1847 29.6 28.609 29.6C29.0333 29.6 29.4403 29.4314 29.7404 29.1314C30.0404 28.8313 30.209 28.4243 30.209 28C30.209 27.5757 30.0404 27.1687 29.7404 26.8686C29.4403 26.5686 29.0333 26.4 28.609 26.4ZM23.992 26.42C23.9623 26.4219 23.9345 26.4354 23.9149 26.4578C23.8952 26.4801 23.8851 26.5093 23.887 26.539C23.8889 26.5687 23.9024 26.5965 23.9248 26.6161C23.9471 26.6358 23.9763 26.6459 24.006 26.644C24.0207 26.6431 24.0351 26.6393 24.0483 26.6328C24.0616 26.6263 24.0734 26.6173 24.0831 26.6062C24.0929 26.5952 24.1004 26.5823 24.1052 26.5684C24.1099 26.5545 24.1119 26.5397 24.111 26.525C24.1101 26.5103 24.1063 26.4959 24.0998 26.4827C24.0933 26.4694 24.0843 26.4576 24.0732 26.4479C24.0622 26.4381 24.0493 26.4306 24.0354 26.4258C24.0215 26.4211 24.0067 26.4191 23.992 26.42ZM23.992 26.982C23.9627 26.983 23.9349 26.9956 23.9147 27.0169C23.8945 27.0382 23.8835 27.0666 23.884 27.0959C23.8845 27.1253 23.8966 27.1533 23.9175 27.1738C23.9385 27.1944 23.9666 27.2059 23.996 27.2059C24.0254 27.2059 24.0535 27.1944 24.0745 27.1738C24.0954 27.1533 24.1075 27.1253 24.108 27.0959C24.1085 27.0666 24.0975 27.0382 24.0773 27.0169C24.0571 26.9956 24.0293 26.983 24 26.982H23.992ZM23.992 27.545C23.9641 27.546 23.9377 27.5577 23.9182 27.5776C23.8987 27.5975 23.8875 27.6241 23.887 27.652C23.887 27.715 23.937 27.768 24 27.768C24.0301 27.7672 24.0586 27.7546 24.0794 27.7329C24.1002 27.7111 24.1115 27.6821 24.111 27.652C24.1102 27.6232 24.0981 27.5958 24.0774 27.5758C24.0566 27.5558 24.0288 27.5447 24 27.545H23.992ZM23.98 28.107C23.9539 28.1104 23.9301 28.1233 23.9129 28.1433C23.8957 28.1632 23.8865 28.1887 23.887 28.215C23.887 28.2447 23.8988 28.2732 23.9198 28.2942C23.9408 28.3152 23.9693 28.327 23.999 28.327C24.0287 28.327 24.0572 28.3152 24.0782 28.2942C24.0992 28.2732 24.111 28.2447 24.111 28.215C24.1105 28.186 24.0985 28.1584 24.0777 28.1382C24.0569 28.1179 24.029 28.1067 24 28.107H23.98ZM24.002 28.668C23.9864 28.6664 23.9705 28.6681 23.9556 28.6729C23.9406 28.6778 23.9268 28.6857 23.9151 28.6962C23.9034 28.7067 23.894 28.7195 23.8875 28.7338C23.881 28.7481 23.8776 28.7637 23.8774 28.7794C23.8773 28.7951 23.8804 28.8107 23.8867 28.8252C23.8929 28.8396 23.9021 28.8526 23.9136 28.8633C23.9252 28.874 23.9388 28.8821 23.9537 28.8873C23.9685 28.8924 23.9843 28.8943 24 28.893C24.028 28.8906 24.0542 28.8779 24.0733 28.8572C24.0924 28.8366 24.1032 28.8095 24.1034 28.7814C24.1037 28.7533 24.0934 28.7261 24.0747 28.7051C24.0559 28.6841 24.03 28.6709 24.002 28.668ZM23.992 29.231C23.9634 29.2328 23.9365 29.2455 23.9169 29.2665C23.8974 29.2876 23.8867 29.3153 23.887 29.344C23.887 29.406 23.937 29.454 24 29.454C24.0145 29.4541 24.0289 29.4514 24.0424 29.4459C24.0559 29.4404 24.0681 29.4324 24.0784 29.4221C24.0887 29.4119 24.0969 29.3997 24.1025 29.3863C24.1081 29.3729 24.111 29.3585 24.111 29.344C24.1113 29.3285 24.1084 29.3131 24.1025 29.2988C24.0965 29.2845 24.0877 29.2716 24.0765 29.2609C24.0653 29.2502 24.052 29.2419 24.0375 29.2366C24.0229 29.2313 24.0075 29.229 23.992 29.23V29.231ZM23.992 29.793C23.9634 29.7948 23.9365 29.8075 23.9169 29.8285C23.8974 29.8496 23.8867 29.8773 23.887 29.906C23.887 29.968 23.937 30.016 24 30.016C24.0145 30.0161 24.0289 30.0134 24.0424 30.0079C24.0559 30.0024 24.0681 29.9944 24.0784 29.9841C24.0887 29.9739 24.0969 29.9617 24.1025 29.9483C24.1081 29.9349 24.111 29.9205 24.111 29.906C24.1112 29.8906 24.1082 29.8753 24.1022 29.8611C24.0962 29.847 24.0873 29.8342 24.0761 29.8236C24.065 29.813 24.0517 29.8048 24.0373 29.7995C24.0228 29.7943 24.0074 29.792 23.992 29.793ZM23.992 30.356C23.9634 30.3578 23.9365 30.3705 23.9169 30.3915C23.8974 30.4126 23.8867 30.4403 23.887 30.469C23.887 30.531 23.937 30.579 24 30.579C24.0145 30.5791 24.0289 30.5764 24.0424 30.5709C24.0559 30.5654 24.0681 30.5574 24.0784 30.5471C24.0887 30.5369 24.0969 30.5247 24.1025 30.5113C24.1081 30.4979 24.111 30.4835 24.111 30.469C24.1113 30.4535 24.1084 30.4381 24.1025 30.4238C24.0965 30.4095 24.0877 30.3966 24.0765 30.3859C24.0653 30.3752 24.052 30.3669 24.0375 30.3616C24.0229 30.3563 24.0075 30.354 23.992 30.355V30.356ZM19.391 30.4C18.9667 30.4 18.5597 30.5686 18.2596 30.8686C17.9596 31.1687 17.791 31.5757 17.791 32C17.791 32.4243 17.9596 32.8313 18.2596 33.1314C18.5597 33.4314 18.9667 33.6 19.391 33.6C19.8153 33.6 20.2223 33.4314 20.5224 33.1314C20.8224 32.8313 20.991 32.4243 20.991 32C20.991 31.5757 20.8224 31.1687 20.5224 30.8686C20.2223 30.5686 19.8153 30.4 19.391 30.4ZM28.609 30.4C28.3956 30.3947 28.1833 30.4321 27.9845 30.5101C27.7858 30.5881 27.6047 30.705 27.4519 30.8541C27.299 31.0031 27.1776 31.1813 27.0947 31.378C27.0117 31.5747 26.969 31.786 26.969 31.9995C26.969 32.213 27.0117 32.4243 27.0947 32.621C27.1776 32.8177 27.299 32.9959 27.4519 33.1449C27.6047 33.294 27.7858 33.4109 27.9845 33.4889C28.1833 33.5669 28.3956 33.6043 28.609 33.599C29.0263 33.5886 29.423 33.4155 29.7144 33.1166C30.0059 32.8178 30.169 32.4169 30.169 31.9995C30.169 31.5821 30.0059 31.1812 29.7144 30.8824C29.423 30.5835 29.0263 30.4104 28.609 30.4ZM23.992 30.916C23.9635 30.9183 23.9369 30.9311 23.9175 30.952C23.898 30.973 23.8872 31.0004 23.887 31.029C23.887 31.0587 23.8988 31.0872 23.9198 31.1082C23.9408 31.1292 23.9693 31.141 23.999 31.141C24.0287 31.141 24.0572 31.1292 24.0782 31.1082C24.0992 31.0872 24.111 31.0587 24.111 31.029C24.1109 31.0137 24.1077 30.9985 24.1016 30.9845C24.0955 30.9704 24.0866 30.9578 24.0755 30.9472C24.0644 30.9367 24.0513 30.9285 24.0369 30.9231C24.0226 30.9177 24.0073 30.9153 23.992 30.916ZM23.992 31.479C23.9624 31.48 23.9344 31.4927 23.914 31.5142C23.8936 31.5357 23.8825 31.5643 23.883 31.5939C23.8835 31.6235 23.8957 31.6518 23.9168 31.6725C23.9379 31.6933 23.9664 31.7049 23.996 31.7049C24.0256 31.7049 24.0541 31.6933 24.0752 31.6725C24.0963 31.6518 24.1085 31.6235 24.109 31.5939C24.1095 31.5643 24.0984 31.5357 24.078 31.5142C24.0576 31.4927 24.0296 31.48 24 31.479H23.992ZM23.98 32.041C23.9538 32.0453 23.93 32.0589 23.9129 32.0792C23.8958 32.0996 23.8866 32.1254 23.887 32.152C23.8868 32.1742 23.8932 32.1959 23.9053 32.2144C23.9175 32.2329 23.9348 32.2474 23.9552 32.2561C23.9756 32.2647 23.9981 32.2672 24.0199 32.263C24.0416 32.2589 24.0617 32.2484 24.0775 32.2329C24.0933 32.2174 24.1041 32.1975 24.1086 32.1758C24.1132 32.1541 24.1111 32.1316 24.1028 32.1111C24.0946 32.0905 24.0804 32.0729 24.0621 32.0604C24.0437 32.048 24.0222 32.0412 24 32.041H23.98ZM23.98 32.604C23.954 32.6081 23.9304 32.6213 23.9133 32.6413C23.8963 32.6613 23.8869 32.6867 23.887 32.713C23.887 32.775 23.937 32.823 24 32.823C24.0145 32.8231 24.0289 32.8204 24.0424 32.8149C24.0559 32.8094 24.0681 32.8014 24.0784 32.7911C24.0887 32.7809 24.0969 32.7687 24.1025 32.7553C24.1081 32.7419 24.111 32.7275 24.111 32.713C24.111 32.6985 24.1081 32.6841 24.1025 32.6707C24.0969 32.6573 24.0887 32.6451 24.0784 32.6349C24.0681 32.6246 24.0559 32.6166 24.0424 32.6111C24.0289 32.6056 24.0145 32.6029 24 32.603H23.98V32.604ZM24.002 33.164C23.987 33.1641 23.9722 33.1672 23.9585 33.1731C23.9447 33.1789 23.9322 33.1874 23.9217 33.1981C23.9112 33.2088 23.9029 33.2214 23.8973 33.2353C23.8917 33.2492 23.8889 33.264 23.889 33.279C23.889 33.341 23.939 33.387 24.002 33.387C24.063 33.387 24.112 33.341 24.113 33.279C24.1133 33.2491 24.1018 33.2203 24.081 33.1988C24.0603 33.1773 24.0319 33.1648 24.002 33.164ZM23.992 33.727C23.9773 33.7279 23.9629 33.7317 23.9497 33.7382C23.9364 33.7447 23.9246 33.7537 23.9149 33.7648C23.9051 33.7758 23.8976 33.7887 23.8928 33.8026C23.8881 33.8165 23.8861 33.8313 23.887 33.846C23.8879 33.8607 23.8917 33.8751 23.8982 33.8883C23.9047 33.9016 23.9137 33.9134 23.9248 33.9231C23.9358 33.9329 23.9487 33.9404 23.9626 33.9452C23.9765 33.9499 23.9913 33.9519 24.006 33.951C24.0357 33.9491 24.0635 33.9356 24.0831 33.9132C24.1028 33.8909 24.1129 33.8617 24.111 33.832C24.1091 33.8023 24.0956 33.7745 24.0732 33.7549C24.0509 33.7352 24.0217 33.7251 23.992 33.727ZM23.992 34.289C23.9634 34.2908 23.9365 34.3035 23.9169 34.3245C23.8974 34.3456 23.8867 34.3733 23.887 34.402C23.887 34.464 23.937 34.512 24 34.512C24.0145 34.5121 24.0289 34.5094 24.0424 34.5039C24.0559 34.4984 24.0681 34.4904 24.0784 34.4801C24.0887 34.4699 24.0969 34.4577 24.1025 34.4443C24.1081 34.4309 24.111 34.4165 24.111 34.402C24.1112 34.3866 24.1082 34.3713 24.1022 34.3571C24.0962 34.343 24.0873 34.3302 24.0761 34.3196C24.065 34.309 24.0517 34.3008 24.0373 34.2955C24.0228 34.2903 24.0074 34.288 23.992 34.289ZM19.391 34.399C19.1763 34.3914 18.9622 34.4271 18.7616 34.5041C18.5609 34.581 18.3778 34.6976 18.2232 34.8468C18.0686 34.996 17.9457 35.1749 17.8617 35.3727C17.7777 35.5704 17.7344 35.7831 17.7344 35.998C17.7344 36.2129 17.7777 36.4256 17.8617 36.6233C17.9457 36.8211 18.0686 37 18.2232 37.1492C18.3778 37.2984 18.5609 37.415 18.7616 37.4919C18.9622 37.5689 19.1763 37.6046 19.391 37.597C19.8053 37.5823 20.1977 37.4075 20.4856 37.1092C20.7735 36.8109 20.9344 36.4126 20.9344 35.998C20.9344 35.5834 20.7735 35.1851 20.4856 34.8868C20.1977 34.5885 19.8053 34.4137 19.391 34.399ZM28.609 34.399C28.3943 34.3914 28.1802 34.4271 27.9796 34.5041C27.7789 34.581 27.5958 34.6976 27.4412 34.8468C27.2866 34.996 27.1637 35.1749 27.0797 35.3727C26.9957 35.5704 26.9524 35.7831 26.9524 35.998C26.9524 36.2129 26.9957 36.4256 27.0797 36.6233C27.1637 36.8211 27.2866 37 27.4412 37.1492C27.5958 37.2984 27.7789 37.415 27.9796 37.4919C28.1802 37.5689 28.3943 37.6046 28.609 37.597C29.0233 37.5823 29.4157 37.4075 29.7036 37.1092C29.9915 36.8109 30.1524 36.4126 30.1524 35.998C30.1524 35.5834 29.9915 35.1851 29.7036 34.8868C29.4157 34.5885 29.0233 34.4137 28.609 34.399ZM23.992 34.852C23.9773 34.8529 23.9629 34.8567 23.9497 34.8632C23.9364 34.8697 23.9246 34.8787 23.9149 34.8898C23.9051 34.9008 23.8976 34.9137 23.8928 34.9276C23.8881 34.9415 23.8861 34.9563 23.887 34.971C23.8879 34.9857 23.8917 35.0001 23.8982 35.0133C23.9047 35.0266 23.9137 35.0384 23.9248 35.0481C23.9358 35.0579 23.9487 35.0654 23.9626 35.0702C23.9765 35.0749 23.9913 35.0769 24.006 35.076C24.0357 35.0741 24.0635 35.0606 24.0831 35.0382C24.1028 35.0159 24.1129 34.9867 24.111 34.957C24.1091 34.9273 24.0956 34.8995 24.0732 34.8799C24.0509 34.8602 24.0217 34.8501 23.992 34.852ZM23.992 35.414C23.9622 35.4159 23.9343 35.4295 23.9145 35.4519C23.8947 35.4743 23.8846 35.5037 23.8865 35.5335C23.8884 35.5633 23.902 35.5912 23.9244 35.611C23.9468 35.6308 23.9762 35.6409 24.006 35.639C24.0208 35.6381 24.0352 35.6343 24.0485 35.6278C24.0618 35.6213 24.0737 35.6122 24.0835 35.6011C24.0933 35.59 24.1008 35.5771 24.1056 35.5631C24.1104 35.5491 24.1124 35.5343 24.1115 35.5195C24.1106 35.5047 24.1068 35.4903 24.1003 35.477C24.0938 35.4637 24.0847 35.4518 24.0736 35.442C24.0625 35.4322 24.0496 35.4247 24.0356 35.4199C24.0216 35.4151 24.0068 35.4131 23.992 35.414ZM23.992 35.977C23.9773 35.9779 23.9629 35.9817 23.9497 35.9882C23.9364 35.9947 23.9246 36.0037 23.9149 36.0148C23.9051 36.0258 23.8976 36.0387 23.8928 36.0526C23.8881 36.0665 23.8861 36.0813 23.887 36.096C23.8879 36.1107 23.8917 36.1251 23.8982 36.1383C23.9047 36.1516 23.9137 36.1634 23.9248 36.1731C23.9358 36.1829 23.9487 36.1904 23.9626 36.1952C23.9765 36.1999 23.9913 36.2019 24.006 36.201C24.0357 36.1991 24.0635 36.1856 24.0831 36.1632C24.1028 36.1409 24.1129 36.1117 24.111 36.082C24.1091 36.0523 24.0956 36.0245 24.0732 36.0049C24.0509 35.9852 24.0217 35.9751 23.992 35.977ZM23.992 36.539C23.9637 36.5403 23.937 36.5524 23.9174 36.5729C23.8979 36.5934 23.887 36.6207 23.887 36.649C23.887 36.6787 23.8988 36.7072 23.9198 36.7282C23.9408 36.7492 23.9693 36.761 23.999 36.761C24.0287 36.761 24.0572 36.7492 24.0782 36.7282C24.0992 36.7072 24.111 36.6787 24.111 36.649C24.1111 36.6338 24.1079 36.6187 24.1019 36.6047C24.0958 36.5907 24.0869 36.5782 24.0757 36.5679C24.0645 36.5575 24.0513 36.5496 24.0369 36.5446C24.0225 36.5397 24.0072 36.5378 23.992 36.539ZM23.98 37.102C23.9539 37.1059 23.9302 37.119 23.9131 37.1391C23.896 37.1591 23.8867 37.1847 23.887 37.211C23.887 37.273 23.937 37.323 24 37.322C24.061 37.322 24.11 37.272 24.111 37.211C24.111 37.1965 24.1081 37.1821 24.1025 37.1687C24.0969 37.1553 24.0887 37.1431 24.0784 37.1329C24.0681 37.1226 24.0559 37.1146 24.0424 37.1091C24.0289 37.1036 24.0145 37.1009 24 37.101H23.98V37.102ZM23.992 37.662C23.9627 37.663 23.9349 37.6756 23.9147 37.6969C23.8945 37.7182 23.8835 37.7466 23.884 37.7759C23.8845 37.8053 23.8966 37.8333 23.9175 37.8538C23.9385 37.8744 23.9666 37.8859 23.996 37.8859C24.0254 37.8859 24.0535 37.8744 24.0745 37.8538C24.0954 37.8333 24.1075 37.8053 24.108 37.7759C24.1085 37.7466 24.0975 37.7182 24.0773 37.6969C24.0571 37.6756 24.0293 37.663 24 37.662H23.992ZM23.992 38.225C23.9634 38.2268 23.9365 38.2395 23.9169 38.2605C23.8974 38.2816 23.8867 38.3093 23.887 38.338C23.887 38.4 23.937 38.448 24 38.448C24.0145 38.4481 24.0289 38.4454 24.0424 38.4399C24.0559 38.4344 24.0681 38.4264 24.0784 38.4161C24.0887 38.4059 24.0969 38.3937 24.1025 38.3803C24.1081 38.3669 24.111 38.3525 24.111 38.338C24.1112 38.3226 24.1082 38.3073 24.1022 38.2931C24.0962 38.279 24.0873 38.2662 24.0761 38.2556C24.065 38.245 24.0517 38.2368 24.0373 38.2315C24.0228 38.2262 24.0074 38.224 23.992 38.225ZM19.391 38.4C18.9667 38.4 18.5597 38.5686 18.2596 38.8686C17.9596 39.1687 17.791 39.5757 17.791 40C17.791 40.4243 17.9596 40.8313 18.2596 41.1314C18.5597 41.4314 18.9667 41.6 19.391 41.6C19.8153 41.6 20.2223 41.4314 20.5224 41.1314C20.8224 40.8313 20.991 40.4243 20.991 40C20.991 39.5757 20.8224 39.1687 20.5224 38.8686C20.2223 38.5686 19.8153 38.4 19.391 38.4ZM28.609 38.4C28.3956 38.3947 28.1833 38.4321 27.9845 38.5101C27.7858 38.5881 27.6047 38.705 27.4519 38.8541C27.299 39.0031 27.1776 39.1813 27.0947 39.378C27.0117 39.5747 26.969 39.786 26.969 39.9995C26.969 40.213 27.0117 40.4243 27.0947 40.621C27.1776 40.8177 27.299 40.9959 27.4519 41.1449C27.6047 41.294 27.7858 41.4109 27.9845 41.4889C28.1833 41.5669 28.3956 41.6043 28.609 41.599C29.0263 41.5886 29.423 41.4155 29.7144 41.1166C30.0059 40.8178 30.169 40.4169 30.169 39.9995C30.169 39.5821 30.0059 39.1812 29.7144 38.8824C29.423 38.5835 29.0263 38.4104 28.609 38.4ZM23.992 38.787C23.9634 38.7888 23.9365 38.8015 23.9169 38.8225C23.8974 38.8436 23.8867 38.8713 23.887 38.9C23.887 38.962 23.937 39.01 24 39.01C24.0145 39.0101 24.0289 39.0074 24.0424 39.0019C24.0559 38.9964 24.0681 38.9884 24.0784 38.9781C24.0887 38.9679 24.0969 38.9557 24.1025 38.9423C24.1081 38.9289 24.111 38.9145 24.111 38.9C24.1112 38.8846 24.1082 38.8693 24.1022 38.8551C24.0962 38.841 24.0873 38.8282 24.0761 38.8176C24.065 38.807 24.0517 38.7988 24.0373 38.7935C24.0228 38.7882 24.0074 38.786 23.992 38.787ZM23.992 39.35C23.9773 39.3509 23.9629 39.3547 23.9497 39.3612C23.9364 39.3677 23.9246 39.3767 23.9149 39.3878C23.9051 39.3988 23.8976 39.4117 23.8928 39.4256C23.8881 39.4395 23.8861 39.4543 23.887 39.469C23.8879 39.4837 23.8917 39.4981 23.8982 39.5113C23.9047 39.5246 23.9137 39.5364 23.9248 39.5461C23.9358 39.5559 23.9487 39.5634 23.9626 39.5682C23.9765 39.5729 23.9913 39.5749 24.006 39.574C24.0357 39.5721 24.0635 39.5586 24.0831 39.5362C24.1028 39.5139 24.1129 39.4847 24.111 39.455C24.1091 39.4253 24.0956 39.3975 24.0732 39.3779C24.0509 39.3582 24.0217 39.3481 23.992 39.35ZM23.992 39.912C23.9765 39.9119 23.9611 39.9149 23.9468 39.921C23.9326 39.9271 23.9197 39.936 23.909 39.9473C23.8983 39.9585 23.8901 39.9719 23.8848 39.9864C23.8795 40.001 23.8773 40.0165 23.8782 40.032C23.8792 40.0475 23.8834 40.0626 23.8904 40.0764C23.8975 40.0902 23.9073 40.1024 23.9193 40.1123C23.9313 40.1221 23.9452 40.1294 23.9601 40.1337C23.975 40.1379 23.9906 40.1391 24.006 40.137C24.0343 40.1332 24.0602 40.1188 24.0783 40.0967C24.0965 40.0747 24.1056 40.0465 24.1038 40.018C24.102 39.9894 24.0895 39.9626 24.0688 39.943C24.048 39.9233 24.0206 39.9122 23.992 39.912ZM23.992 40.475C23.9639 40.4763 23.9373 40.4883 23.9178 40.5086C23.8982 40.5289 23.8872 40.5558 23.887 40.584C23.8849 40.6 23.8862 40.6162 23.8908 40.6316C23.8955 40.647 23.9034 40.6613 23.914 40.6734C23.9246 40.6855 23.9376 40.6952 23.9523 40.7019C23.967 40.7086 23.9829 40.712 23.999 40.712C24.0151 40.712 24.031 40.7086 24.0457 40.7019C24.0604 40.6952 24.0734 40.6855 24.084 40.6734C24.0946 40.6613 24.1025 40.647 24.1072 40.6316C24.1118 40.6162 24.1131 40.6 24.111 40.584C24.1111 40.5688 24.1079 40.5537 24.1019 40.5397C24.0958 40.5257 24.0869 40.5132 24.0757 40.5029C24.0645 40.4925 24.0513 40.4846 24.0369 40.4796C24.0225 40.4747 24.0072 40.4728 23.992 40.474V40.475ZM23.98 41.037C23.9539 41.0411 23.9301 41.0545 23.913 41.0747C23.8959 41.0949 23.8867 41.1205 23.887 41.147C23.8849 41.163 23.8862 41.1792 23.8908 41.1946C23.8955 41.21 23.9034 41.2243 23.914 41.2364C23.9246 41.2485 23.9376 41.2582 23.9523 41.2649C23.967 41.2716 23.9829 41.275 23.999 41.275C24.0151 41.275 24.031 41.2716 24.0457 41.2649C24.0604 41.2582 24.0734 41.2485 24.084 41.2364C24.0946 41.2243 24.1025 41.21 24.1072 41.1946C24.1118 41.1792 24.1131 41.163 24.111 41.147C24.111 41.1325 24.1081 41.1181 24.1025 41.1047C24.0969 41.0913 24.0887 41.0791 24.0784 41.0689C24.0681 41.0586 24.0559 41.0506 24.0424 41.0451C24.0289 41.0396 24.0145 41.0369 24 41.037H23.98ZM23.98 41.6C23.9539 41.6039 23.9302 41.617 23.9131 41.6371C23.896 41.6571 23.8867 41.6827 23.887 41.709C23.887 41.771 23.937 41.821 24 41.82C24.061 41.82 24.11 41.77 24.111 41.709C24.111 41.6945 24.1081 41.6801 24.1025 41.6667C24.0969 41.6533 24.0887 41.6411 24.0784 41.6309C24.0681 41.6206 24.0559 41.6126 24.0424 41.6071C24.0289 41.6016 24.0145 41.5989 24 41.599H23.98V41.6ZM24.002 42.16C23.9871 42.1599 23.9724 42.1627 23.9586 42.1683C23.9448 42.174 23.9323 42.1823 23.9218 42.1928C23.9113 42.2033 23.903 42.2158 23.8973 42.2296C23.8917 42.2434 23.8889 42.2581 23.889 42.273C23.889 42.335 23.939 42.383 24.002 42.383C24.0165 42.3831 24.0309 42.3804 24.0444 42.3749C24.0579 42.3694 24.0701 42.3614 24.0804 42.3511C24.0907 42.3409 24.0989 42.3287 24.1045 42.3153C24.1101 42.3019 24.113 42.2875 24.113 42.273C24.1131 42.2583 24.1104 42.2437 24.1049 42.2301C24.0994 42.2164 24.0912 42.204 24.0809 42.1935C24.0706 42.183 24.0583 42.1747 24.0448 42.1689C24.0312 42.1632 24.0167 42.1601 24.002 42.16ZM23.992 42.723C23.9634 42.7248 23.9365 42.7375 23.9169 42.7585C23.8974 42.7796 23.8867 42.8073 23.887 42.836C23.887 42.898 23.937 42.946 24 42.946C24.0145 42.9461 24.0289 42.9434 24.0424 42.9379C24.0559 42.9324 24.0681 42.9244 24.0784 42.9141C24.0887 42.9039 24.0969 42.8917 24.1025 42.8783C24.1081 42.8649 24.111 42.8505 24.111 42.836C24.1112 42.8206 24.1082 42.8053 24.1022 42.7911C24.0962 42.777 24.0873 42.7642 24.0761 42.7536C24.065 42.743 24.0517 42.7348 24.0373 42.7295C24.0228 42.7243 24.0074 42.722 23.992 42.723Z" fill="#333333"/>
</g>
<defs>
<clipPath id="clip0">
<rect width="48" height="48" fill="white"/>
</clipPath>
</defs>
</svg>
