<svg width="48" height="48" viewBox="0 0 48 48" fill="none" xmlns="http://www.w3.org/2000/svg">
<path d="M14.3457 4.09375C13.4763 4.09375 12.7773 4.79267 12.7773 5.66211V42.5234C12.7773 43.3929 13.4763 44.0937 14.3457 44.0937H34.0508C34.9202 44.0937 35.6191 43.3929 35.6191 42.5234V5.66211C35.6191 4.79267 34.9202 4.09375 34.0508 4.09375H14.3457ZM21.9512 12.1484C22.1934 12.145 22.4369 12.235 22.625 12.418C23.0014 12.7841 23.0087 13.3814 22.6426 13.7578L20.834 15.6172C20.4679 15.9948 19.8704 16.003 19.4941 15.6367C19.1177 15.2706 19.1104 14.6729 19.4766 14.2969L21.2852 12.4395C21.4682 12.2512 21.709 12.1537 21.9512 12.1504V12.1484ZM28.2266 12.1484C28.4688 12.145 28.7122 12.235 28.9004 12.418C29.2768 12.7841 29.286 13.3814 28.9199 13.7578L27.1113 15.6172C26.7452 15.9948 26.1477 16.003 25.7715 15.6367C25.395 15.2706 25.3858 14.6729 25.752 14.2969L27.5605 12.4395C27.7436 12.2512 27.9844 12.1537 28.2266 12.1504V12.1484ZM13.2324 23.9824C13.2925 23.9817 13.3421 24.0282 13.3457 24.0879C13.3458 24.0917 13.3458 24.0931 13.3457 24.0957C13.3449 24.1577 13.2944 24.2076 13.2324 24.207C13.1708 24.2067 13.1216 24.1569 13.1211 24.0957C13.1207 24.0333 13.1704 23.9829 13.2324 23.9824ZM13.7949 23.9824C13.8577 23.982 13.9088 24.033 13.9082 24.0957C13.9074 24.1581 13.8569 24.2076 13.7949 24.207C13.7333 24.2063 13.6841 24.1569 13.6836 24.0957C13.6832 24.0333 13.7329 23.9829 13.7949 23.9824ZM14.3574 23.9824C14.4126 23.982 14.4612 24.0217 14.4687 24.0762C14.4693 24.0837 14.4693 24.0881 14.4687 24.0957C14.468 24.1569 14.4186 24.2066 14.3574 24.207C14.2958 24.2067 14.2446 24.1569 14.2441 24.0957C14.2438 24.0333 14.2954 23.9829 14.3574 23.9824ZM14.9199 23.9824C14.9751 23.982 15.0237 24.0217 15.0312 24.0762C15.0318 24.0837 15.0318 24.0881 15.0312 24.0957C15.0305 24.1569 14.9811 24.2066 14.9199 24.207C14.8579 24.2078 14.8071 24.1577 14.8066 24.0957C14.8063 24.033 14.8572 23.9818 14.9199 23.9824ZM15.4824 23.9824C15.5418 23.9828 15.5902 24.0289 15.5937 24.0879C15.5938 24.0917 15.5938 24.0931 15.5937 24.0957C15.593 24.1569 15.5436 24.2066 15.4824 24.207C15.4204 24.2078 15.3696 24.1577 15.3691 24.0957C15.3688 24.033 15.4197 23.9818 15.4824 23.9824ZM16.0449 23.9824C16.1043 23.9828 16.1527 24.0289 16.1562 24.0879C16.1563 24.0917 16.1563 24.0931 16.1562 24.0957C16.1555 24.1569 16.1061 24.2066 16.0449 24.207C15.9829 24.2078 15.9321 24.1577 15.9316 24.0957C15.9313 24.033 15.9822 23.9818 16.0449 23.9824ZM16.6074 23.9824C16.6668 23.9828 16.7152 24.0289 16.7187 24.0879C16.7188 24.0917 16.7188 24.0931 16.7187 24.0957C16.718 24.1569 16.6686 24.2066 16.6074 24.207C16.5454 24.2078 16.4946 24.1577 16.4941 24.0957C16.4938 24.033 16.5447 23.9818 16.6074 23.9824ZM17.168 23.9824C17.2281 23.9817 17.2777 24.0282 17.2812 24.0879C17.2814 24.0917 17.2814 24.0931 17.2812 24.0957C17.2805 24.1577 17.23 24.2076 17.168 24.207C17.1064 24.2067 17.0571 24.1569 17.0566 24.0957C17.0563 24.0333 17.106 23.9829 17.168 23.9824ZM17.7305 23.9824C17.7906 23.9817 17.8402 24.0282 17.8437 24.0879C17.8439 24.0917 17.8439 24.0931 17.8437 24.0957C17.843 24.1577 17.7925 24.2076 17.7305 24.207C17.6689 24.2067 17.6196 24.1569 17.6191 24.0957C17.6188 24.0333 17.6685 23.9829 17.7305 23.9824ZM18.293 23.9824C18.3531 23.9817 18.4027 24.0282 18.4062 24.0879C18.4063 24.0917 18.4063 24.0931 18.4062 24.0957C18.4055 24.1577 18.355 24.2076 18.293 24.207C18.2314 24.2067 18.1821 24.1569 18.1816 24.0957C18.1813 24.0333 18.231 23.9829 18.293 23.9824ZM18.8555 23.9824C18.9106 23.982 18.9592 24.0217 18.9668 24.0762C18.9674 24.0837 18.9674 24.0881 18.9668 24.0957C18.966 24.1569 18.9167 24.2066 18.8555 24.207C18.7942 24.2067 18.7446 24.1569 18.7441 24.0957C18.7434 24.0333 18.7935 23.9829 18.8555 23.9824ZM19.418 23.9824C19.4773 23.9828 19.5257 24.0289 19.5293 24.0879C19.5294 24.0917 19.5294 24.0931 19.5293 24.0957C19.5285 24.1569 19.4792 24.2066 19.418 24.207C19.356 24.2078 19.3052 24.1577 19.3047 24.0957C19.3043 24.033 19.3552 23.9818 19.418 23.9824ZM19.9805 23.9824C20.0398 23.9828 20.0882 24.0289 20.0918 24.0879C20.0919 24.0917 20.0919 24.0931 20.0918 24.0957C20.091 24.1569 20.0417 24.2066 19.9805 24.207C19.9185 24.2078 19.8677 24.1577 19.8672 24.0957C19.8668 24.033 19.9177 23.9818 19.9805 23.9824ZM20.543 23.9824C20.6023 23.9828 20.6507 24.0289 20.6543 24.0879C20.6544 24.0917 20.6544 24.0931 20.6543 24.0957C20.6535 24.1569 20.6042 24.2066 20.543 24.207C20.481 24.2078 20.4302 24.1577 20.4297 24.0957C20.4293 24.033 20.4802 23.9818 20.543 23.9824ZM21.1055 23.9824C21.1648 23.9828 21.2132 24.0289 21.2168 24.0879C21.2169 24.0917 21.2169 24.0931 21.2168 24.0957C21.216 24.1569 21.1667 24.2066 21.1055 24.207C21.0435 24.2078 20.9927 24.1577 20.9922 24.0957C20.9918 24.033 21.0427 23.9818 21.1055 23.9824ZM21.666 23.9824C21.7261 23.9817 21.7757 24.0282 21.7793 24.0879C21.7794 24.0917 21.7794 24.0931 21.7793 24.0957C21.7785 24.1577 21.728 24.2076 21.666 24.207C21.6044 24.2067 21.5552 24.1569 21.5547 24.0957C21.5543 24.0333 21.604 23.9829 21.666 23.9824ZM22.2285 23.9824C22.2886 23.9817 22.3382 24.0282 22.3418 24.0879C22.3419 24.0917 22.3419 24.0931 22.3418 24.0957C22.341 24.1577 22.2905 24.2076 22.2285 24.207C22.1669 24.2067 22.1177 24.1569 22.1172 24.0957C22.1168 24.0333 22.1665 23.9829 22.2285 23.9824ZM22.791 23.9824C22.8538 23.982 22.9049 24.033 22.9043 24.0957C22.9035 24.1581 22.853 24.2076 22.791 24.207C22.7294 24.2063 22.6802 24.1569 22.6797 24.0957C22.6793 24.0333 22.729 23.9829 22.791 23.9824ZM23.3535 23.9824C23.4083 23.982 23.4573 24.0217 23.4648 24.0762C23.4654 24.0837 23.4654 24.0881 23.4648 24.0957C23.4645 24.1569 23.4147 24.2066 23.3535 24.207C23.2919 24.2067 23.2427 24.1569 23.2422 24.0957C23.2418 24.0333 23.2915 23.9829 23.3535 23.9824ZM23.916 23.9824C23.9712 23.982 24.0198 24.0217 24.0273 24.0762C24.0279 24.0837 24.0279 24.0881 24.0273 24.0957C24.0266 24.1569 23.9772 24.2066 23.916 24.207C23.854 24.2078 23.8032 24.1577 23.8027 24.0957C23.8024 24.033 23.8533 23.9818 23.916 23.9824ZM24.4785 23.9824C24.5379 23.9828 24.5863 24.0289 24.5898 24.0879C24.5899 24.0917 24.5899 24.0931 24.5898 24.0957C24.5891 24.1569 24.5397 24.2066 24.4785 24.207C24.4165 24.2078 24.3657 24.1577 24.3652 24.0957C24.3649 24.033 24.4158 23.9818 24.4785 23.9824ZM25.041 23.9824C25.1004 23.9828 25.1488 24.0289 25.1523 24.0879C25.1525 24.0917 25.1525 24.0931 25.1523 24.0957C25.1516 24.1569 25.1022 24.2066 25.041 24.207C24.979 24.2078 24.9282 24.1577 24.9277 24.0957C24.9274 24.033 24.9783 23.9818 25.041 23.9824ZM25.6016 23.9824C25.6617 23.9817 25.7113 24.0282 25.7148 24.0879C25.715 24.0917 25.715 24.0931 25.7148 24.0957C25.7141 24.1577 25.6635 24.2076 25.6016 24.207C25.5403 24.2067 25.4907 24.1569 25.4902 24.0957C25.4895 24.0333 25.5396 23.9829 25.6016 23.9824ZM26.1641 23.9824C26.2242 23.9817 26.2738 24.0282 26.2773 24.0879C26.2774 24.0917 26.2774 24.0931 26.2773 24.0957C26.2766 24.1577 26.226 24.2076 26.1641 24.207C26.1025 24.2067 26.0532 24.1569 26.0527 24.0957C26.0524 24.0333 26.1021 23.9829 26.1641 23.9824ZM26.7266 23.9824C26.7867 23.9817 26.8363 24.0282 26.8398 24.0879C26.8399 24.0917 26.8399 24.0931 26.8398 24.0957C26.8391 24.1577 26.7885 24.2076 26.7266 24.207C26.665 24.2067 26.6157 24.1569 26.6152 24.0957C26.6149 24.0333 26.6646 23.9829 26.7266 23.9824ZM27.2891 23.9824C27.3518 23.982 27.4029 24.033 27.4023 24.0957C27.4016 24.1581 27.351 24.2076 27.2891 24.207C27.2275 24.2063 27.1782 24.1569 27.1777 24.0957C27.1774 24.0333 27.2271 23.9829 27.2891 23.9824ZM27.8516 23.9824C27.9067 23.982 27.9553 24.0217 27.9629 24.0762C27.9635 24.0837 27.9635 24.0881 27.9629 24.0957C27.9621 24.1569 27.9128 24.2066 27.8516 24.207C27.7903 24.2067 27.7407 24.1569 27.7402 24.0957C27.7395 24.0333 27.7896 23.9829 27.8516 23.9824ZM28.4141 23.9824C28.4734 23.9828 28.5218 24.0289 28.5254 24.0879C28.5255 24.0917 28.5255 24.0931 28.5254 24.0957C28.5246 24.1569 28.4753 24.2066 28.4141 24.207C28.3521 24.2078 28.3013 24.1577 28.3008 24.0957C28.3004 24.033 28.3513 23.9818 28.4141 23.9824ZM28.9766 23.9824C29.0359 23.9828 29.0843 24.0289 29.0879 24.0879C29.088 24.0917 29.088 24.0931 29.0879 24.0957C29.0871 24.1569 29.0378 24.2066 28.9766 24.207C28.9146 24.2078 28.8638 24.1577 28.8633 24.0957C28.8629 24.033 28.9138 23.9818 28.9766 23.9824ZM29.5391 23.9824C29.5984 23.9828 29.6468 24.0289 29.6504 24.0879C29.6505 24.0917 29.6505 24.0931 29.6504 24.0957C29.6496 24.1569 29.6003 24.2066 29.5391 24.207C29.4771 24.2078 29.4263 24.1577 29.4258 24.0957C29.4254 24.033 29.4763 23.9818 29.5391 23.9824ZM30.0996 23.9824C30.1597 23.9817 30.2093 24.0282 30.2129 24.0879C30.213 24.0917 30.213 24.0931 30.2129 24.0957C30.2121 24.1577 30.1616 24.2076 30.0996 24.207C30.038 24.2067 29.9888 24.1569 29.9883 24.0957C29.9879 24.0333 30.0376 23.9829 30.0996 23.9824ZM30.6621 23.9824C30.7222 23.9817 30.7718 24.0282 30.7754 24.0879C30.7755 24.0917 30.7755 24.0931 30.7754 24.0957C30.7746 24.1577 30.7241 24.2076 30.6621 24.207C30.6005 24.2067 30.5513 24.1569 30.5508 24.0957C30.5504 24.0333 30.6001 23.9829 30.6621 23.9824ZM31.2246 23.9824C31.2847 23.9817 31.3343 24.0282 31.3379 24.0879C31.338 24.0917 31.338 24.0931 31.3379 24.0957C31.3371 24.1577 31.2866 24.2076 31.2246 24.207C31.163 24.2067 31.1138 24.1569 31.1133 24.0957C31.1129 24.0333 31.1626 23.9829 31.2246 23.9824ZM31.7871 23.9824C31.8423 23.982 31.8909 24.0217 31.8984 24.0762C31.899 24.0837 31.899 24.0881 31.8984 24.0957C31.8977 24.1569 31.8483 24.2066 31.7871 24.207C31.7259 24.2067 31.6763 24.1569 31.6758 24.0957C31.675 24.0333 31.7251 23.9829 31.7871 23.9824ZM32.3496 23.9824C32.4048 23.982 32.4534 24.0217 32.4609 24.0762C32.4615 24.0837 32.4615 24.0881 32.4609 24.0957C32.4602 24.1569 32.4108 24.2066 32.3496 24.207C32.2876 24.2078 32.2368 24.1577 32.2363 24.0957C32.2359 24.033 32.2869 23.9818 32.3496 23.9824ZM32.9121 23.9824C32.9714 23.9828 33.0199 24.0289 33.0234 24.0879C33.0235 24.0917 33.0235 24.0931 33.0234 24.0957C33.0227 24.1569 32.9733 24.2066 32.9121 24.207C32.8501 24.2078 32.7993 24.1577 32.7988 24.0957C32.7984 24.033 32.8494 23.9818 32.9121 23.9824ZM33.4746 23.9824C33.5336 23.9828 33.5824 24.0289 33.5859 24.0879C33.586 24.0917 33.586 24.0931 33.5859 24.0957C33.5856 24.1569 33.5358 24.2066 33.4746 24.207C33.4126 24.2078 33.3618 24.1577 33.3613 24.0957C33.3609 24.033 33.4119 23.9818 33.4746 23.9824ZM34.0371 23.9824C34.0961 23.9828 34.1449 24.0289 34.1484 24.0879C34.1485 24.0917 34.1485 24.0931 34.1484 24.0957C34.1481 24.1569 34.0983 24.2066 34.0371 24.207C33.9751 24.2078 33.9243 24.1577 33.9238 24.0957C33.9234 24.033 33.9744 23.9818 34.0371 23.9824ZM34.5977 23.9824C34.6577 23.9817 34.7073 24.0282 34.7109 24.0879C34.711 24.0917 34.711 24.0931 34.7109 24.0957C34.7102 24.1577 34.6596 24.2076 34.5977 24.207C34.536 24.2067 34.4868 24.1569 34.4863 24.0957C34.4859 24.0333 34.5357 23.9829 34.5977 23.9824ZM35.1602 23.9824C35.2203 23.9817 35.2698 24.0282 35.2734 24.0879C35.2735 24.0917 35.2735 24.0931 35.2734 24.0957C35.2727 24.1577 35.2221 24.2076 35.1602 24.207C35.0986 24.2067 35.0493 24.1569 35.0488 24.0957C35.0484 24.0333 35.0982 23.9829 35.1602 23.9824ZM21.9512 32.2891C22.1934 32.2857 22.4369 32.3757 22.625 32.5586C23.0014 32.9247 23.0087 33.522 22.6426 33.8984L20.834 35.7578C20.4679 36.1354 19.8704 36.1416 19.4941 35.7754C19.1177 35.4093 19.1104 34.8116 19.4766 34.4355L21.2852 32.5781C21.4682 32.3899 21.709 32.2923 21.9512 32.2891ZM28.2266 32.2891C28.4688 32.2857 28.7122 32.3757 28.9004 32.5586C29.2768 32.9247 29.286 33.522 28.9199 33.8984L27.1113 35.7578C26.7452 36.1354 26.1477 36.1416 25.7715 35.7754C25.395 35.4093 25.3858 34.8116 25.752 34.4355L27.5605 32.5781C27.7436 32.3899 27.9844 32.2923 28.2266 32.2891Z" fill="#333333"/>
</svg>
