<svg width="48" height="48" viewBox="0 0 48 48" fill="none" xmlns="http://www.w3.org/2000/svg">
<path fill-rule="evenodd" clip-rule="evenodd" d="M0 0V48H48V0H0ZM14.146 4H33.852C34.721 4 35.42 4.699 35.42 5.568V42.43C35.42 43.3 34.721 44 33.852 44H14.147C13.277 44 12.578 43.3 12.578 42.43V5.568C12.578 4.698 13.277 4 14.147 4H14.146ZM17.031 9.115V9.117C16.9064 9.11907 16.7834 9.14576 16.6691 9.19553C16.5548 9.2453 16.4514 9.31716 16.365 9.407L14.557 11.264C14.4701 11.3532 14.4016 11.4587 14.3556 11.5744C14.3096 11.6902 14.2869 11.8138 14.2889 11.9384C14.2908 12.0629 14.3174 12.1858 14.367 12.3C14.4166 12.4143 14.4883 12.5176 14.578 12.604C14.6669 12.6914 14.7723 12.7602 14.888 12.8065C15.0038 12.8528 15.1275 12.8757 15.2522 12.8739C15.3768 12.872 15.4999 12.8454 15.6141 12.7957C15.7284 12.7459 15.8317 12.674 15.918 12.584L17.727 10.724C17.8139 10.6347 17.8822 10.5292 17.9282 10.4134C17.9741 10.2977 17.9967 10.174 17.9946 10.0494C17.9926 9.9249 17.9659 9.802 17.9162 9.6878C17.8665 9.5736 17.7947 9.47036 17.705 9.384C17.6159 9.29696 17.5105 9.22839 17.3949 9.18222C17.2792 9.13606 17.1555 9.11321 17.031 9.115ZM21.031 9.115V9.117C20.9064 9.11907 20.7834 9.14576 20.6691 9.19553C20.5548 9.2453 20.4514 9.31716 20.365 9.407L18.557 11.264C18.4701 11.3532 18.4016 11.4587 18.3556 11.5744C18.3096 11.6902 18.2869 11.8138 18.2889 11.9384C18.2908 12.0629 18.3174 12.1858 18.367 12.3C18.4166 12.4143 18.4883 12.5176 18.578 12.604C18.6669 12.6914 18.7723 12.7602 18.888 12.8065C19.0038 12.8528 19.1275 12.8757 19.2522 12.8739C19.3768 12.872 19.4999 12.8454 19.6141 12.7957C19.7284 12.7459 19.8317 12.674 19.918 12.584L21.727 10.724C21.8139 10.6347 21.8822 10.5292 21.9282 10.4134C21.9741 10.2977 21.9967 10.174 21.9946 10.0494C21.9926 9.9249 21.9659 9.802 21.9162 9.6878C21.8665 9.5736 21.7947 9.47036 21.705 9.384C21.6159 9.29696 21.5105 9.22839 21.3949 9.18222C21.2792 9.13606 21.1555 9.11321 21.031 9.115ZM25.031 9.115V9.117C24.9064 9.11907 24.7834 9.14576 24.6691 9.19553C24.5548 9.2453 24.4514 9.31716 24.365 9.407L22.557 11.264C22.4701 11.3532 22.4016 11.4587 22.3556 11.5744C22.3096 11.6902 22.2869 11.8138 22.2889 11.9384C22.2908 12.0629 22.3174 12.1858 22.367 12.3C22.4166 12.4143 22.4883 12.5176 22.578 12.604C22.6669 12.6914 22.7723 12.7602 22.888 12.8065C23.0038 12.8528 23.1275 12.8757 23.2522 12.8739C23.3768 12.872 23.4999 12.8454 23.6141 12.7957C23.7284 12.7459 23.8317 12.674 23.918 12.584L25.727 10.724C25.8139 10.6347 25.8822 10.5292 25.9282 10.4134C25.9741 10.2977 25.9967 10.174 25.9946 10.0494C25.9926 9.9249 25.9659 9.802 25.9162 9.6878C25.8665 9.5736 25.7947 9.47036 25.705 9.384C25.6159 9.29696 25.5105 9.22839 25.3949 9.18222C25.2792 9.13606 25.1555 9.11321 25.031 9.115ZM29.031 9.115V9.117C28.9064 9.11907 28.7834 9.14576 28.6691 9.19553C28.5548 9.2453 28.4514 9.31716 28.365 9.407L26.557 11.264C26.4701 11.3532 26.4016 11.4587 26.3556 11.5744C26.3096 11.6902 26.2869 11.8138 26.2889 11.9384C26.2908 12.0629 26.3174 12.1858 26.367 12.3C26.4166 12.4143 26.4883 12.5176 26.578 12.604C26.6669 12.6914 26.7723 12.7602 26.888 12.8065C27.0038 12.8528 27.1275 12.8757 27.2522 12.8739C27.3768 12.872 27.4999 12.8454 27.6141 12.7957C27.7284 12.7459 27.8317 12.674 27.918 12.584L29.727 10.724C29.8139 10.6347 29.8822 10.5292 29.9282 10.4134C29.9741 10.2977 29.9967 10.174 29.9946 10.0494C29.9926 9.9249 29.9659 9.802 29.9162 9.6878C29.8665 9.5736 29.7947 9.47036 29.705 9.384C29.6159 9.29696 29.5105 9.22839 29.3949 9.18222C29.2792 9.13606 29.1555 9.11321 29.031 9.115ZM32.75 9.131C32.6254 9.13294 32.5025 9.15947 32.3882 9.20907C32.2739 9.25866 32.1705 9.33035 32.084 9.42L30.275 11.277C30.1881 11.3663 30.1198 11.4718 30.0739 11.5876C30.0279 11.7033 30.0053 11.827 30.0074 11.9516C30.0094 12.0761 30.0361 12.199 30.0858 12.3132C30.1355 12.4274 30.2073 12.5306 30.297 12.617C30.3857 12.7045 30.491 12.7736 30.6066 12.8202C30.7222 12.8668 30.8459 12.8899 30.9706 12.8884C31.0952 12.8868 31.2183 12.8605 31.3327 12.811C31.4471 12.7615 31.5505 12.6898 31.637 12.6L33.445 10.74C33.532 10.6509 33.6005 10.5454 33.6466 10.4297C33.6927 10.314 33.7155 10.1904 33.7136 10.0658C33.7118 9.94131 33.6853 9.81838 33.6358 9.70411C33.5862 9.58984 33.5146 9.48649 33.425 9.4C33.336 9.31278 33.2306 9.24402 33.115 9.19769C32.9993 9.15135 32.8756 9.12834 32.751 9.13L32.75 9.131ZM14.16 13.941C14.1452 13.9411 14.1306 13.9442 14.117 13.95C14.1034 13.9558 14.0911 13.9643 14.0807 13.9749C14.0704 13.9855 14.0623 13.998 14.0569 14.0118C14.0514 14.0255 14.0487 14.0402 14.049 14.055C14.049 14.115 14.099 14.168 14.16 14.168C14.1897 14.1672 14.218 14.1551 14.2391 14.1341C14.2601 14.113 14.2722 14.0847 14.273 14.055V14.037C14.2685 14.0104 14.2546 13.9864 14.2339 13.9691C14.2132 13.9519 14.187 13.9426 14.16 13.943V13.941ZM14.723 13.941C14.708 13.9407 14.6932 13.9435 14.6793 13.9491C14.6655 13.9548 14.6529 13.9632 14.6425 13.9739C14.632 13.9846 14.6238 13.9973 14.6184 14.0112C14.613 14.0251 14.6105 14.0401 14.611 14.055C14.611 14.117 14.661 14.169 14.723 14.168C14.7527 14.1672 14.781 14.1551 14.8021 14.1341C14.8231 14.113 14.8352 14.0847 14.836 14.055V14.037C14.8315 14.0104 14.8176 13.9864 14.7969 13.9691C14.7762 13.9519 14.75 13.9426 14.723 13.943V13.941ZM18.658 13.941C18.6432 13.9411 18.6286 13.9442 18.615 13.95C18.6014 13.9558 18.5891 13.9643 18.5787 13.9749C18.5684 13.9855 18.5603 13.998 18.5549 14.0118C18.5494 14.0255 18.5467 14.0402 18.547 14.055C18.547 14.115 18.597 14.168 18.658 14.168C18.6877 14.1672 18.716 14.1551 18.7371 14.1341C18.7581 14.113 18.7702 14.0847 18.771 14.055V14.037C18.7665 14.0104 18.7526 13.9864 18.7319 13.9691C18.7112 13.9519 18.685 13.9426 18.658 13.943V13.941ZM23.156 13.941C23.1412 13.9411 23.1266 13.9442 23.113 13.95C23.0994 13.9558 23.0871 13.9643 23.0767 13.9749C23.0664 13.9855 23.0583 13.998 23.0529 14.0118C23.0474 14.0255 23.0447 14.0402 23.045 14.055C23.045 14.115 23.095 14.168 23.156 14.168C23.1859 14.1675 23.2145 14.1555 23.2357 14.1344C23.2569 14.1133 23.2692 14.0849 23.27 14.055V14.037C23.2654 14.0103 23.2514 13.986 23.2305 13.9688C23.2096 13.9515 23.1831 13.9424 23.156 13.943V13.941ZM23.719 13.941C23.704 13.9407 23.6892 13.9435 23.6753 13.9491C23.6615 13.9548 23.6489 13.9632 23.6385 13.9739C23.628 13.9846 23.6198 13.9973 23.6144 14.0112C23.609 14.0251 23.6065 14.0401 23.607 14.055C23.607 14.117 23.657 14.169 23.719 14.168C23.7487 14.1672 23.777 14.1551 23.7981 14.1341C23.8191 14.113 23.8312 14.0847 23.832 14.055V14.037C23.8275 14.0104 23.8136 13.9864 23.7929 13.9691C23.7722 13.9519 23.746 13.9426 23.719 13.943V13.941ZM27.654 13.941C27.6392 13.9411 27.6246 13.9442 27.611 13.95C27.5974 13.9558 27.5851 13.9643 27.5747 13.9749C27.5644 13.9855 27.5563 13.998 27.5509 14.0118C27.5454 14.0255 27.5427 14.0402 27.543 14.055C27.543 14.115 27.593 14.168 27.654 14.168C27.6839 14.1675 27.7125 14.1555 27.7337 14.1344C27.7549 14.1133 27.7672 14.0849 27.768 14.055V14.037C27.7634 14.0103 27.7494 13.986 27.7285 13.9688C27.7076 13.9515 27.6811 13.9424 27.654 13.943V13.941ZM31.59 13.941C31.5752 13.9411 31.5606 13.9442 31.547 13.95C31.5334 13.9558 31.5211 13.9643 31.5107 13.9749C31.5004 13.9855 31.4923 13.998 31.4869 14.0118C31.4814 14.0255 31.4787 14.0402 31.479 14.055C31.479 14.115 31.529 14.168 31.589 14.168C31.651 14.168 31.7 14.116 31.701 14.055V14.037C31.6971 14.0105 31.6837 13.9863 31.6633 13.969C31.6428 13.9517 31.6168 13.9425 31.59 13.943V13.941ZM32.152 13.941C32.1371 13.9409 32.1224 13.9437 32.1087 13.9494C32.0949 13.9552 32.0825 13.9636 32.0721 13.9743C32.0617 13.9849 32.0536 13.9976 32.0483 14.0114C32.0429 14.0253 32.0405 14.0401 32.041 14.055C32.041 14.117 32.091 14.169 32.152 14.168C32.1819 14.1675 32.2105 14.1555 32.2317 14.1344C32.2529 14.1133 32.2652 14.0849 32.266 14.055V14.037C32.2614 14.0103 32.2474 13.986 32.2265 13.9688C32.2056 13.9515 32.1791 13.9424 32.152 13.943V13.941ZM13.598 13.943C13.5831 13.943 13.5684 13.946 13.5547 13.9517C13.541 13.9575 13.5285 13.9659 13.5181 13.9765C13.5077 13.9871 13.4995 13.9997 13.4939 14.0135C13.4884 14.0273 13.4857 14.0421 13.486 14.057C13.486 14.117 13.536 14.169 13.598 14.17C13.66 14.17 13.71 14.119 13.711 14.057C13.7113 14.042 13.7085 14.0272 13.703 14.0133C13.6974 13.9994 13.6891 13.9868 13.6786 13.9761C13.668 13.9655 13.6555 13.9571 13.6416 13.9514C13.6278 13.9457 13.613 13.9429 13.598 13.943ZM15.285 13.943C15.2701 13.9429 15.2554 13.9457 15.2417 13.9514C15.2279 13.9572 15.2155 13.9656 15.2051 13.9763C15.1947 13.9869 15.1866 13.9996 15.1813 14.0134C15.1759 14.0273 15.1735 14.0421 15.174 14.057C15.174 14.119 15.224 14.171 15.285 14.17C15.3004 14.1696 15.3156 14.1662 15.3296 14.1598C15.3437 14.1535 15.3564 14.1445 15.3669 14.1332C15.3774 14.1219 15.3856 14.1087 15.3909 14.0942C15.3963 14.0798 15.3987 14.0644 15.398 14.049C15.396 14.0203 15.3832 13.9935 15.3623 13.9739C15.3413 13.9542 15.3137 13.9432 15.285 13.943ZM15.848 13.943C15.833 13.9427 15.8182 13.9455 15.8043 13.9511C15.7905 13.9568 15.7779 13.9652 15.7675 13.9759C15.757 13.9866 15.7488 13.9993 15.7434 14.0132C15.738 14.0271 15.7355 14.0421 15.736 14.057C15.736 14.119 15.786 14.171 15.848 14.17C15.8634 14.1696 15.8786 14.1662 15.8926 14.1598C15.9067 14.1535 15.9194 14.1445 15.9299 14.1332C15.9404 14.1219 15.9486 14.1087 15.9539 14.0942C15.9593 14.0798 15.9617 14.0644 15.961 14.049C15.959 14.0203 15.9462 13.9935 15.9253 13.9739C15.9043 13.9542 15.8767 13.9432 15.848 13.943ZM16.41 13.943C16.3951 13.9429 16.3804 13.9457 16.3666 13.9514C16.3529 13.9572 16.3405 13.9656 16.3301 13.9763C16.3197 13.9869 16.3116 13.9996 16.3063 14.0134C16.3009 14.0273 16.2985 14.0421 16.299 14.057C16.299 14.119 16.349 14.171 16.41 14.17C16.4254 14.1696 16.4406 14.1662 16.4546 14.1598C16.4687 14.1535 16.4814 14.1445 16.4919 14.1332C16.5024 14.1219 16.5106 14.1087 16.5159 14.0942C16.5213 14.0798 16.5237 14.0644 16.523 14.049C16.521 14.0203 16.5082 13.9935 16.4873 13.9739C16.4663 13.9542 16.4387 13.9432 16.41 13.943ZM16.97 13.943C16.9553 13.9433 16.9408 13.9464 16.9273 13.9523C16.9138 13.9582 16.9016 13.9666 16.8914 13.9772C16.8812 13.9878 16.8731 14.0003 16.8678 14.014C16.8624 14.0277 16.8597 14.0423 16.86 14.057C16.86 14.117 16.91 14.169 16.97 14.17C16.9856 14.17 17.001 14.1669 17.0153 14.1607C17.0296 14.1545 17.0425 14.1455 17.0532 14.1342C17.0639 14.1228 17.0721 14.1094 17.0774 14.0948C17.0827 14.0801 17.085 14.0645 17.084 14.049C17.0825 14.0202 17.0698 13.9931 17.0488 13.9733C17.0277 13.9536 16.9999 13.9427 16.971 13.943H16.97ZM17.533 13.943C17.5182 13.9431 17.5036 13.9462 17.49 13.952C17.4764 13.9578 17.4641 13.9663 17.4537 13.9769C17.4434 13.9875 17.4353 14 17.4299 14.0138C17.4244 14.0275 17.4217 14.0422 17.422 14.057C17.422 14.117 17.472 14.169 17.533 14.17C17.5485 14.1699 17.5638 14.1666 17.578 14.1604C17.5922 14.1542 17.605 14.1451 17.6155 14.1338C17.6261 14.1225 17.6343 14.1091 17.6395 14.0945C17.6447 14.08 17.647 14.0645 17.646 14.049C17.6445 14.0202 17.6318 13.9931 17.6108 13.9733C17.5897 13.9536 17.5619 13.9427 17.533 13.943ZM18.096 13.943C18.0811 13.943 18.0664 13.946 18.0527 13.9517C18.039 13.9575 18.0265 13.9659 18.0161 13.9765C18.0057 13.9871 17.9975 13.9997 17.9919 14.0135C17.9864 14.0273 17.9837 14.0421 17.984 14.057C17.984 14.117 18.034 14.169 18.096 14.17C18.1115 14.1699 18.1268 14.1666 18.141 14.1604C18.1552 14.1542 18.168 14.1451 18.1785 14.1338C18.1891 14.1225 18.1973 14.1091 18.2025 14.0945C18.2077 14.08 18.21 14.0645 18.209 14.049C18.2075 14.0202 18.1948 13.9931 18.1738 13.9733C18.1527 13.9536 18.1249 13.9427 18.096 13.943ZM19.221 13.943C19.206 13.9427 19.1912 13.9455 19.1773 13.9511C19.1635 13.9568 19.1509 13.9652 19.1405 13.9759C19.13 13.9866 19.1218 13.9993 19.1164 14.0132C19.111 14.0271 19.1085 14.0421 19.109 14.057C19.109 14.119 19.159 14.171 19.221 14.17C19.2364 14.1696 19.2516 14.1662 19.2656 14.1598C19.2797 14.1535 19.2924 14.1445 19.3029 14.1332C19.3134 14.1219 19.3216 14.1087 19.3269 14.0942C19.3323 14.0798 19.3347 14.0644 19.334 14.049C19.332 14.0203 19.3192 13.9935 19.2983 13.9739C19.2773 13.9542 19.2497 13.9432 19.221 13.943ZM19.783 13.943C19.7681 13.9429 19.7534 13.9457 19.7397 13.9514C19.7259 13.9572 19.7135 13.9656 19.7031 13.9763C19.6927 13.9869 19.6846 13.9996 19.6793 14.0134C19.6739 14.0273 19.6715 14.0421 19.672 14.057C19.672 14.119 19.722 14.171 19.783 14.17C19.7983 14.1696 19.8134 14.1662 19.8274 14.1598C19.8413 14.1535 19.8539 14.1444 19.8642 14.1331C19.8746 14.1218 19.8826 14.1085 19.8877 14.0941C19.8928 14.0796 19.8949 14.0643 19.894 14.049C19.8925 14.0207 19.8803 13.994 19.8599 13.9743C19.8395 13.9547 19.8123 13.9435 19.784 13.943H19.783ZM20.346 13.943C20.331 13.9427 20.3162 13.9455 20.3023 13.9511C20.2885 13.9568 20.2759 13.9652 20.2655 13.9759C20.255 13.9866 20.2468 13.9993 20.2414 14.0132C20.236 14.0271 20.2335 14.0421 20.234 14.057C20.234 14.119 20.284 14.171 20.346 14.17C20.3614 14.1696 20.3766 14.1662 20.3906 14.1598C20.4047 14.1535 20.4174 14.1445 20.4279 14.1332C20.4384 14.1219 20.4466 14.1087 20.4519 14.0942C20.4573 14.0798 20.4597 14.0644 20.459 14.049C20.457 14.0203 20.4442 13.9935 20.4233 13.9739C20.4023 13.9542 20.3747 13.9432 20.346 13.943ZM20.908 13.943C20.8931 13.9429 20.8784 13.9457 20.8647 13.9514C20.8509 13.9572 20.8385 13.9656 20.8281 13.9763C20.8177 13.9869 20.8096 13.9996 20.8043 14.0134C20.7989 14.0273 20.7965 14.0421 20.797 14.057C20.797 14.119 20.847 14.171 20.908 14.17C20.9234 14.1696 20.9386 14.1662 20.9526 14.1598C20.9667 14.1535 20.9794 14.1445 20.9899 14.1332C21.0004 14.1219 21.0086 14.1087 21.0139 14.0942C21.0193 14.0798 21.0217 14.0644 21.021 14.049C21.019 14.0203 21.0062 13.9935 20.9853 13.9739C20.9643 13.9542 20.9367 13.9432 20.908 13.943ZM21.468 13.943C21.4533 13.9433 21.4388 13.9464 21.4253 13.9523C21.4118 13.9582 21.3996 13.9666 21.3894 13.9772C21.3792 13.9878 21.3711 14.0003 21.3658 14.014C21.3604 14.0277 21.3577 14.0423 21.358 14.057C21.358 14.117 21.408 14.169 21.468 14.17C21.4836 14.17 21.499 14.1669 21.5133 14.1607C21.5276 14.1545 21.5405 14.1455 21.5512 14.1342C21.5619 14.1228 21.5701 14.1094 21.5754 14.0948C21.5807 14.0801 21.583 14.0645 21.582 14.049C21.5805 14.0202 21.5678 13.9931 21.5468 13.9733C21.5257 13.9536 21.4979 13.9427 21.469 13.943H21.468ZM22.031 13.943C22.0162 13.9431 22.0016 13.9462 21.988 13.952C21.9744 13.9578 21.9621 13.9663 21.9517 13.9769C21.9414 13.9875 21.9333 14 21.9279 14.0138C21.9224 14.0275 21.9197 14.0422 21.92 14.057C21.92 14.117 21.97 14.169 22.031 14.17C22.0466 14.17 22.062 14.1669 22.0763 14.1607C22.0906 14.1545 22.1035 14.1455 22.1142 14.1342C22.1249 14.1228 22.1331 14.1094 22.1384 14.0948C22.1437 14.0801 22.146 14.0645 22.145 14.049C22.1434 14.02 22.1307 13.9927 22.1094 13.973C22.0882 13.9532 22.06 13.9424 22.031 13.943ZM22.594 13.943C22.5791 13.943 22.5644 13.946 22.5507 13.9517C22.537 13.9575 22.5245 13.9659 22.5141 13.9765C22.5037 13.9871 22.4955 13.9997 22.4899 14.0135C22.4844 14.0273 22.4817 14.0421 22.482 14.057C22.482 14.117 22.532 14.169 22.594 14.17C22.656 14.17 22.706 14.119 22.707 14.057C22.7073 14.042 22.7045 14.0272 22.699 14.0133C22.6934 13.9994 22.6851 13.9868 22.6746 13.9761C22.664 13.9655 22.6515 13.9571 22.6376 13.9514C22.6238 13.9457 22.609 13.9429 22.594 13.943ZM24.281 13.943C24.2661 13.9429 24.2514 13.9457 24.2376 13.9514C24.2239 13.9572 24.2115 13.9656 24.2011 13.9763C24.1907 13.9869 24.1826 13.9996 24.1773 14.0134C24.1719 14.0273 24.1695 14.0421 24.17 14.057C24.17 14.119 24.22 14.171 24.281 14.17C24.2965 14.1697 24.3118 14.1664 24.326 14.1601C24.3401 14.1539 24.3529 14.1448 24.3635 14.1336C24.3742 14.1223 24.3824 14.109 24.3878 14.0945C24.3932 14.0799 24.3957 14.0645 24.395 14.049C24.393 14.0202 24.3801 13.9932 24.3589 13.9735C24.3377 13.9538 24.3099 13.9429 24.281 13.943ZM24.844 13.943C24.829 13.9427 24.8142 13.9455 24.8003 13.9511C24.7865 13.9568 24.7739 13.9652 24.7635 13.9759C24.753 13.9866 24.7448 13.9993 24.7394 14.0132C24.734 14.0271 24.7315 14.0421 24.732 14.057C24.732 14.119 24.782 14.171 24.844 14.17C24.8594 14.1696 24.8746 14.1662 24.8886 14.1598C24.9027 14.1535 24.9154 14.1445 24.9259 14.1332C24.9364 14.1219 24.9446 14.1087 24.9499 14.0942C24.9553 14.0798 24.9577 14.0644 24.957 14.049C24.955 14.0203 24.9422 13.9935 24.9213 13.9739C24.9003 13.9542 24.8727 13.9432 24.844 13.943ZM25.404 13.943C25.3892 13.9431 25.3746 13.9462 25.361 13.952C25.3474 13.9578 25.3351 13.9663 25.3247 13.9769C25.3144 13.9875 25.3063 14 25.3009 14.0138C25.2954 14.0275 25.2927 14.0422 25.293 14.057C25.293 14.117 25.343 14.169 25.404 14.17C25.4196 14.17 25.435 14.1669 25.4493 14.1607C25.4636 14.1545 25.4765 14.1455 25.4872 14.1342C25.4979 14.1228 25.5061 14.1094 25.5114 14.0948C25.5167 14.0801 25.519 14.0645 25.518 14.049C25.5164 14.02 25.5037 13.9927 25.4824 13.973C25.4612 13.9532 25.433 13.9424 25.404 13.943ZM25.967 13.943C25.9522 13.9431 25.9376 13.9462 25.924 13.952C25.9104 13.9578 25.8981 13.9663 25.8877 13.9769C25.8774 13.9875 25.8693 14 25.8639 14.0138C25.8584 14.0275 25.8557 14.0422 25.856 14.057C25.856 14.117 25.906 14.169 25.966 14.17C25.9816 14.17 25.997 14.1669 26.0113 14.1607C26.0256 14.1545 26.0385 14.1455 26.0492 14.1342C26.0599 14.1228 26.0681 14.1094 26.0734 14.0948C26.0787 14.0801 26.081 14.0645 26.08 14.049C26.0785 14.0202 26.0658 13.9931 26.0448 13.9733C26.0237 13.9536 25.9959 13.9427 25.967 13.943ZM26.529 13.943C26.5142 13.9431 26.4996 13.9462 26.486 13.952C26.4724 13.9578 26.4601 13.9663 26.4497 13.9769C26.4394 13.9875 26.4313 14 26.4259 14.0138C26.4204 14.0275 26.4177 14.0422 26.418 14.057C26.418 14.117 26.468 14.169 26.529 14.17C26.5446 14.17 26.56 14.1669 26.5743 14.1607C26.5886 14.1545 26.6015 14.1455 26.6122 14.1342C26.6229 14.1228 26.6311 14.1094 26.6364 14.0948C26.6417 14.0801 26.644 14.0645 26.643 14.049C26.6414 14.02 26.6287 13.9927 26.6074 13.973C26.5862 13.9532 26.558 13.9424 26.529 13.943ZM27.092 13.943C27.0772 13.9431 27.0626 13.9462 27.049 13.952C27.0354 13.9578 27.0231 13.9663 27.0127 13.9769C27.0024 13.9875 26.9943 14 26.9889 14.0138C26.9834 14.0275 26.9807 14.0422 26.981 14.057C26.981 14.117 27.031 14.169 27.091 14.17C27.154 14.17 27.204 14.119 27.205 14.057C27.2053 14.042 27.2025 14.0272 27.197 14.0133C27.1914 13.9994 27.1831 13.9868 27.1726 13.9761C27.162 13.9655 27.1495 13.9571 27.1356 13.9514C27.1218 13.9457 27.107 13.9429 27.092 13.943ZM28.217 13.943C28.2021 13.9429 28.1874 13.9457 28.1737 13.9514C28.1599 13.9572 28.1475 13.9656 28.1371 13.9763C28.1267 13.9869 28.1186 13.9996 28.1133 14.0134C28.1079 14.0273 28.1055 14.0421 28.106 14.057C28.106 14.119 28.155 14.171 28.216 14.17C28.2459 14.1695 28.2745 14.1575 28.2957 14.1364C28.3169 14.1153 28.3292 14.0869 28.33 14.057V14.049C28.328 14.0203 28.3152 13.9935 28.2943 13.9739C28.2733 13.9542 28.2457 13.9432 28.217 13.943ZM28.779 13.943C28.7641 13.9429 28.7494 13.9457 28.7357 13.9514C28.7219 13.9572 28.7095 13.9656 28.6991 13.9763C28.6887 13.9869 28.6806 13.9996 28.6753 14.0134C28.6699 14.0273 28.6675 14.0421 28.668 14.057C28.668 14.119 28.718 14.171 28.779 14.17C28.8089 14.1695 28.8375 14.1575 28.8587 14.1364C28.8799 14.1153 28.8922 14.0869 28.893 14.057V14.049C28.891 14.0202 28.8781 13.9932 28.8569 13.9735C28.8357 13.9538 28.8079 13.9429 28.779 13.943ZM29.342 13.943C29.3271 13.9429 29.3124 13.9457 29.2987 13.9514C29.2849 13.9572 29.2725 13.9656 29.2621 13.9763C29.2517 13.9869 29.2436 13.9996 29.2383 14.0134C29.2329 14.0273 29.2305 14.0421 29.231 14.057C29.231 14.119 29.28 14.171 29.341 14.17C29.3565 14.1697 29.3718 14.1664 29.386 14.1601C29.4001 14.1539 29.4129 14.1448 29.4235 14.1336C29.4342 14.1223 29.4424 14.109 29.4478 14.0945C29.4532 14.0799 29.4557 14.0645 29.455 14.049C29.453 14.0203 29.4402 13.9935 29.4193 13.9739C29.3983 13.9542 29.3707 13.9432 29.342 13.943ZM29.902 13.943C29.8872 13.9431 29.8726 13.9462 29.859 13.952C29.8454 13.9578 29.8331 13.9663 29.8227 13.9769C29.8124 13.9875 29.8043 14 29.7989 14.0138C29.7934 14.0275 29.7907 14.0422 29.791 14.057C29.791 14.117 29.841 14.169 29.902 14.17C29.9176 14.17 29.933 14.1669 29.9473 14.1607C29.9616 14.1545 29.9745 14.1455 29.9852 14.1342C29.9959 14.1228 30.0041 14.1094 30.0094 14.0948C30.0147 14.0801 30.017 14.0645 30.016 14.049C30.0145 14.02 30.0017 13.9927 29.9804 13.973C29.9592 13.9532 29.931 13.9424 29.902 13.943ZM30.465 13.943C30.4502 13.9431 30.4356 13.9462 30.422 13.952C30.4084 13.9578 30.3961 13.9663 30.3857 13.9769C30.3754 13.9875 30.3673 14 30.3619 14.0138C30.3564 14.0275 30.3537 14.0422 30.354 14.057C30.354 14.117 30.404 14.169 30.464 14.17C30.4796 14.17 30.495 14.1669 30.5093 14.1607C30.5236 14.1545 30.5365 14.1455 30.5472 14.1342C30.5579 14.1228 30.5661 14.1094 30.5714 14.0948C30.5767 14.0801 30.579 14.0645 30.578 14.049C30.5765 14.0202 30.5638 13.9931 30.5428 13.9733C30.5217 13.9536 30.4939 13.9427 30.465 13.943ZM31.027 13.943C31.0123 13.9431 30.9978 13.9462 30.9843 13.952C30.9708 13.9579 30.9586 13.9663 30.9484 13.977C30.9383 13.9876 30.9303 14.0002 30.9251 14.0139C30.9199 14.0277 30.9175 14.0423 30.918 14.057C30.918 14.117 30.966 14.169 31.028 14.17C31.0435 14.1699 31.0588 14.1666 31.073 14.1604C31.0872 14.1542 31.1 14.1451 31.1105 14.1338C31.1211 14.1225 31.1293 14.1091 31.1345 14.0945C31.1397 14.08 31.142 14.0645 31.141 14.049C31.1395 14.02 31.1267 13.9927 31.1054 13.973C31.0842 13.9532 31.056 13.9424 31.027 13.943ZM32.715 13.943C32.7 13.9427 32.6852 13.9455 32.6713 13.9511C32.6575 13.9568 32.6449 13.9652 32.6345 13.9759C32.624 13.9866 32.6158 13.9993 32.6104 14.0132C32.605 14.0271 32.6025 14.0421 32.603 14.057C32.604 14.119 32.653 14.171 32.715 14.17C32.776 14.17 32.825 14.118 32.826 14.057V14.049C32.8245 14.0205 32.8121 13.9937 32.7915 13.974C32.7709 13.9543 32.7435 13.9432 32.715 13.943ZM33.277 13.943C33.2621 13.9429 33.2474 13.9457 33.2337 13.9514C33.2199 13.9572 33.2075 13.9656 33.1971 13.9763C33.1867 13.9869 33.1786 13.9996 33.1733 14.0134C33.1679 14.0273 33.1655 14.0421 33.166 14.057C33.166 14.119 33.216 14.171 33.277 14.17C33.2925 14.1697 33.3078 14.1664 33.322 14.1601C33.3361 14.1539 33.3489 14.1448 33.3595 14.1336C33.3702 14.1223 33.3784 14.109 33.3838 14.0945C33.3892 14.0799 33.3917 14.0645 33.391 14.049C33.389 14.0202 33.3761 13.9932 33.3549 13.9735C33.3337 13.9538 33.3059 13.9429 33.277 13.943ZM33.84 13.943C33.825 13.9427 33.8102 13.9455 33.7963 13.9511C33.7825 13.9568 33.7699 13.9652 33.7595 13.9759C33.749 13.9866 33.7408 13.9993 33.7354 14.0132C33.73 14.0271 33.7275 14.0421 33.728 14.057C33.729 14.119 33.778 14.171 33.84 14.17C33.8554 14.1696 33.8706 14.1662 33.8846 14.1598C33.8987 14.1535 33.9114 14.1445 33.9219 14.1332C33.9324 14.1219 33.9406 14.1087 33.9459 14.0942C33.9513 14.0798 33.9537 14.0644 33.953 14.049C33.951 14.0203 33.9382 13.9935 33.9173 13.9739C33.8963 13.9542 33.8687 13.9432 33.84 13.943ZM34.4 13.943C34.3853 13.9433 34.3708 13.9464 34.3573 13.9523C34.3438 13.9582 34.3316 13.9666 34.3214 13.9772C34.3112 13.9878 34.3031 14.0003 34.2978 14.014C34.2924 14.0277 34.2897 14.0423 34.29 14.057C34.29 14.117 34.339 14.169 34.4 14.17C34.4301 14.17 34.4589 14.1581 34.4803 14.137C34.5016 14.1158 34.5137 14.0871 34.514 14.057V14.049C34.5125 14.02 34.4997 13.9927 34.4784 13.973C34.4572 13.9532 34.429 13.9424 34.4 13.943ZM17.031 15.647C16.9065 15.6488 16.7836 15.6752 16.6693 15.7246C16.555 15.774 16.4516 15.8455 16.365 15.935L14.557 17.793C14.4701 17.8822 14.4016 17.9877 14.3556 18.1034C14.3096 18.2192 14.2869 18.3428 14.2889 18.4674C14.2908 18.5919 14.3174 18.7148 14.367 18.829C14.4166 18.9433 14.4883 19.0466 14.578 19.133C14.6669 19.2204 14.7722 19.2892 14.8878 19.3357C15.0035 19.3821 15.1272 19.4051 15.2518 19.4034C15.3764 19.4018 15.4994 19.3754 15.6137 19.3259C15.7281 19.2764 15.8315 19.2047 15.918 19.115L17.727 17.255C17.8137 17.1658 17.8819 17.0603 17.9278 16.9446C17.9736 16.8289 17.9962 16.7053 17.9941 16.5809C17.9921 16.4565 17.9655 16.3337 17.9159 16.2196C17.8663 16.1055 17.7946 16.0023 17.705 15.916C17.616 15.8288 17.5106 15.7601 17.3949 15.7138C17.2793 15.6674 17.1556 15.6444 17.031 15.646V15.647ZM21.031 15.647C20.9065 15.6488 20.7836 15.6752 20.6693 15.7246C20.555 15.774 20.4516 15.8455 20.365 15.935L18.557 17.793C18.4701 17.8822 18.4016 17.9877 18.3556 18.1034C18.3096 18.2192 18.2869 18.3428 18.2889 18.4674C18.2908 18.5919 18.3174 18.7148 18.367 18.829C18.4166 18.9433 18.4883 19.0466 18.578 19.133C18.6669 19.2204 18.7722 19.2892 18.8878 19.3357C19.0035 19.3821 19.1271 19.4051 19.2518 19.4034C19.3764 19.4018 19.4994 19.3754 19.6137 19.3259C19.7281 19.2764 19.8315 19.2047 19.918 19.115L21.727 17.255C21.8137 17.1658 21.8819 17.0603 21.9278 16.9446C21.9736 16.8289 21.9962 16.7053 21.9941 16.5809C21.9921 16.4565 21.9655 16.3337 21.9159 16.2196C21.8663 16.1055 21.7946 16.0023 21.705 15.916C21.616 15.8288 21.5106 15.7601 21.3949 15.7138C21.2793 15.6674 21.1556 15.6444 21.031 15.646V15.647ZM25.031 15.647C24.9065 15.6488 24.7836 15.6752 24.6693 15.7246C24.555 15.774 24.4516 15.8455 24.365 15.935L22.557 17.793C22.4701 17.8822 22.4016 17.9877 22.3556 18.1034C22.3096 18.2192 22.2869 18.3428 22.2889 18.4674C22.2908 18.5919 22.3174 18.7148 22.367 18.829C22.4166 18.9433 22.4883 19.0466 22.578 19.133C22.6669 19.2204 22.7722 19.2892 22.8878 19.3357C23.0035 19.3821 23.1271 19.4051 23.2518 19.4034C23.3764 19.4018 23.4994 19.3754 23.6137 19.3259C23.7281 19.2764 23.8315 19.2047 23.918 19.115L25.727 17.255C25.8137 17.1658 25.8819 17.0603 25.9278 16.9446C25.9736 16.8289 25.9962 16.7053 25.9941 16.5809C25.9921 16.4565 25.9655 16.3337 25.9159 16.2196C25.8663 16.1055 25.7946 16.0023 25.705 15.916C25.616 15.8288 25.5106 15.7601 25.3949 15.7138C25.2793 15.6674 25.1556 15.6444 25.031 15.646V15.647ZM29.031 15.647C28.9065 15.6488 28.7836 15.6752 28.6693 15.7246C28.555 15.774 28.4516 15.8455 28.365 15.935L26.557 17.793C26.4701 17.8822 26.4016 17.9877 26.3556 18.1034C26.3096 18.2192 26.2869 18.3428 26.2889 18.4674C26.2908 18.5919 26.3174 18.7148 26.367 18.829C26.4166 18.9433 26.4883 19.0466 26.578 19.133C26.6669 19.2204 26.7722 19.2892 26.8878 19.3357C27.0035 19.3821 27.1271 19.4051 27.2518 19.4034C27.3764 19.4018 27.4994 19.3754 27.6137 19.3259C27.7281 19.2764 27.8315 19.2047 27.918 19.115L29.727 17.255C29.8137 17.1658 29.8819 17.0603 29.9278 16.9446C29.9736 16.8289 29.9962 16.7053 29.9941 16.5809C29.9921 16.4565 29.9655 16.3337 29.9159 16.2196C29.8663 16.1055 29.7946 16.0023 29.705 15.916C29.616 15.8288 29.5106 15.7601 29.3949 15.7138C29.2793 15.6674 29.1556 15.6444 29.031 15.646V15.647ZM32.75 15.66V15.662C32.6254 15.6641 32.5024 15.6908 32.3881 15.7405C32.2738 15.7903 32.1704 15.8622 32.084 15.952L30.275 17.809C30.1881 17.8983 30.1198 18.0038 30.0739 18.1196C30.0279 18.2353 30.0053 18.359 30.0074 18.4836C30.0094 18.6081 30.0361 18.731 30.0858 18.8452C30.1355 18.9594 30.2073 19.0626 30.297 19.149C30.386 19.2362 30.4914 19.305 30.6071 19.3512C30.7228 19.3975 30.8466 19.4203 30.9712 19.4185C31.0958 19.4166 31.2188 19.3901 31.3331 19.3404C31.4473 19.2907 31.5506 19.2188 31.637 19.129L33.445 17.269C33.5319 17.1798 33.6004 17.0743 33.6464 16.9586C33.6924 16.8428 33.7151 16.7192 33.7131 16.5946C33.7112 16.4701 33.6846 16.3472 33.635 16.233C33.5854 16.1187 33.5137 16.0154 33.424 15.929C33.3349 15.842 33.2295 15.7734 33.1138 15.7272C32.9982 15.6811 32.8745 15.6582 32.75 15.66ZM13.598 20.57C13.583 20.5703 13.5683 20.5735 13.5545 20.5794C13.5408 20.5854 13.5284 20.594 13.518 20.6048C13.5076 20.6156 13.4994 20.6283 13.4939 20.6422C13.4884 20.6562 13.4857 20.671 13.486 20.686C13.486 20.746 13.536 20.798 13.598 20.799C13.6284 20.799 13.6575 20.7869 13.679 20.7655C13.7004 20.744 13.7125 20.7149 13.7125 20.6845C13.7125 20.6541 13.7004 20.625 13.679 20.6035C13.6575 20.5821 13.6284 20.57 13.598 20.57ZM14.16 20.57C14.1452 20.5701 14.1306 20.5732 14.117 20.579C14.1034 20.5848 14.0911 20.5933 14.0807 20.6039C14.0704 20.6145 14.0623 20.627 14.0569 20.6408C14.0514 20.6545 14.0487 20.6692 14.049 20.684C14.049 20.744 14.099 20.797 14.16 20.797C14.1897 20.7962 14.218 20.7841 14.2391 20.7631C14.2601 20.742 14.2722 20.7137 14.273 20.684V20.664C14.2685 20.6374 14.2546 20.6134 14.2339 20.5961C14.2132 20.5789 14.187 20.5696 14.16 20.57ZM14.723 20.57C14.7081 20.5699 14.6933 20.5727 14.6795 20.5784C14.6657 20.5841 14.6532 20.5926 14.6428 20.6032C14.6323 20.6138 14.6241 20.6265 14.6187 20.6404C14.6132 20.6542 14.6106 20.6691 14.611 20.684C14.611 20.746 14.661 20.798 14.723 20.797C14.7527 20.7962 14.781 20.7841 14.8021 20.7631C14.8231 20.742 14.8352 20.7137 14.836 20.684V20.664C14.8315 20.6374 14.8176 20.6134 14.7969 20.5961C14.7762 20.5789 14.75 20.5696 14.723 20.57ZM15.285 20.57C15.2702 20.57 15.2555 20.573 15.2418 20.5787C15.2282 20.5845 15.2158 20.5929 15.2054 20.6036C15.1951 20.6142 15.187 20.6268 15.1816 20.6406C15.1762 20.6544 15.1736 20.6692 15.174 20.684C15.174 20.746 15.224 20.798 15.285 20.797C15.3004 20.7966 15.3156 20.7932 15.3296 20.7868C15.3437 20.7805 15.3564 20.7715 15.3669 20.7602C15.3774 20.7489 15.3856 20.7357 15.3909 20.7212C15.3963 20.7068 15.3987 20.6914 15.398 20.676C15.396 20.6473 15.3832 20.6205 15.3623 20.6009C15.3413 20.5812 15.3137 20.5702 15.285 20.57ZM15.848 20.57C15.8331 20.5699 15.8183 20.5727 15.8045 20.5784C15.7907 20.5841 15.7782 20.5926 15.7678 20.6032C15.7573 20.6138 15.7491 20.6265 15.7437 20.6404C15.7382 20.6542 15.7356 20.6691 15.736 20.684C15.736 20.746 15.786 20.798 15.848 20.797C15.8634 20.7966 15.8786 20.7932 15.8926 20.7868C15.9067 20.7805 15.9194 20.7715 15.9299 20.7602C15.9404 20.7489 15.9486 20.7357 15.9539 20.7212C15.9593 20.7068 15.9617 20.6914 15.961 20.676C15.959 20.6473 15.9462 20.6205 15.9253 20.6009C15.9043 20.5812 15.8767 20.5702 15.848 20.57ZM16.41 20.57C16.3952 20.57 16.3805 20.573 16.3668 20.5787C16.3532 20.5845 16.3408 20.5929 16.3304 20.6036C16.3201 20.6142 16.312 20.6268 16.3066 20.6406C16.3012 20.6544 16.2986 20.6692 16.299 20.684C16.299 20.746 16.349 20.798 16.41 20.797C16.4254 20.7966 16.4406 20.7932 16.4546 20.7868C16.4687 20.7805 16.4814 20.7715 16.4919 20.7602C16.5024 20.7489 16.5106 20.7357 16.5159 20.7212C16.5213 20.7068 16.5237 20.6914 16.523 20.676C16.521 20.6473 16.5082 20.6205 16.4873 20.6009C16.4663 20.5812 16.4387 20.5702 16.41 20.57ZM16.97 20.57C16.9553 20.5703 16.9408 20.5734 16.9273 20.5793C16.9138 20.5852 16.9016 20.5936 16.8914 20.6042C16.8812 20.6148 16.8731 20.6273 16.8678 20.641C16.8624 20.6547 16.8597 20.6693 16.86 20.684C16.86 20.744 16.91 20.797 16.97 20.797C16.9856 20.797 17.001 20.7939 17.0153 20.7877C17.0296 20.7815 17.0425 20.7725 17.0532 20.7612C17.0639 20.7498 17.0721 20.7364 17.0774 20.7218C17.0827 20.7071 17.085 20.6915 17.084 20.676C17.0825 20.6472 17.0698 20.6201 17.0488 20.6003C17.0277 20.5806 16.9999 20.5697 16.971 20.57H16.97ZM17.533 20.57C17.5182 20.5701 17.5036 20.5732 17.49 20.579C17.4764 20.5848 17.4641 20.5933 17.4537 20.6039C17.4434 20.6145 17.4353 20.627 17.4299 20.6408C17.4244 20.6545 17.4217 20.6692 17.422 20.684C17.422 20.744 17.472 20.797 17.533 20.797C17.5485 20.7969 17.5638 20.7936 17.578 20.7874C17.5922 20.7812 17.605 20.7721 17.6155 20.7608C17.6261 20.7495 17.6343 20.7361 17.6395 20.7215C17.6447 20.707 17.647 20.6915 17.646 20.676C17.6445 20.6472 17.6318 20.6201 17.6108 20.6003C17.5897 20.5806 17.5619 20.5697 17.533 20.57ZM18.096 20.57C18.0811 20.57 18.0664 20.573 18.0527 20.5787C18.039 20.5845 18.0265 20.5929 18.0161 20.6035C18.0057 20.6141 17.9975 20.6267 17.9919 20.6405C17.9864 20.6543 17.9837 20.6691 17.984 20.684C17.984 20.744 18.034 20.797 18.096 20.797C18.1115 20.7969 18.1268 20.7936 18.141 20.7874C18.1552 20.7812 18.168 20.7721 18.1785 20.7608C18.1891 20.7495 18.1973 20.7361 18.2025 20.7215C18.2077 20.707 18.21 20.6915 18.209 20.676C18.2075 20.6472 18.1948 20.6201 18.1738 20.6003C18.1527 20.5806 18.1249 20.5697 18.096 20.57ZM18.658 20.57C18.6432 20.5701 18.6286 20.5732 18.615 20.579C18.6014 20.5848 18.5891 20.5933 18.5787 20.6039C18.5684 20.6145 18.5603 20.627 18.5549 20.6408C18.5494 20.6545 18.5467 20.6692 18.547 20.684C18.547 20.744 18.597 20.797 18.658 20.797C18.6877 20.7962 18.716 20.7841 18.7371 20.7631C18.7581 20.742 18.7702 20.7137 18.771 20.684V20.664C18.7665 20.6374 18.7526 20.6134 18.7319 20.5961C18.7112 20.5789 18.685 20.5696 18.658 20.57ZM19.221 20.57C19.2061 20.5699 19.1913 20.5727 19.1775 20.5784C19.1637 20.5841 19.1512 20.5926 19.1408 20.6032C19.1303 20.6138 19.1221 20.6265 19.1167 20.6404C19.1112 20.6542 19.1086 20.6691 19.109 20.684C19.109 20.746 19.159 20.798 19.221 20.797C19.2364 20.7966 19.2516 20.7932 19.2656 20.7868C19.2797 20.7805 19.2924 20.7715 19.3029 20.7602C19.3134 20.7489 19.3216 20.7357 19.3269 20.7212C19.3323 20.7068 19.3347 20.6914 19.334 20.676C19.332 20.6473 19.3192 20.6205 19.2983 20.6009C19.2773 20.5812 19.2497 20.5702 19.221 20.57ZM19.783 20.57C19.7682 20.57 19.7535 20.573 19.7398 20.5787C19.7262 20.5845 19.7138 20.5929 19.7034 20.6036C19.6931 20.6142 19.685 20.6268 19.6796 20.6406C19.6742 20.6544 19.6716 20.6692 19.672 20.684C19.672 20.746 19.722 20.798 19.783 20.797C19.7983 20.7966 19.8134 20.7932 19.8274 20.7868C19.8413 20.7805 19.8539 20.7714 19.8642 20.7601C19.8746 20.7488 19.8826 20.7355 19.8877 20.7211C19.8928 20.7066 19.8949 20.6913 19.894 20.676C19.8925 20.6477 19.8803 20.621 19.8599 20.6013C19.8395 20.5817 19.8123 20.5705 19.784 20.57H19.783ZM20.346 20.57C20.3311 20.5699 20.3163 20.5727 20.3025 20.5784C20.2887 20.5841 20.2762 20.5926 20.2658 20.6032C20.2553 20.6138 20.2471 20.6265 20.2417 20.6404C20.2362 20.6542 20.2336 20.6691 20.234 20.684C20.234 20.746 20.284 20.798 20.346 20.797C20.3614 20.7966 20.3766 20.7932 20.3906 20.7868C20.4047 20.7805 20.4174 20.7715 20.4279 20.7602C20.4384 20.7489 20.4466 20.7357 20.4519 20.7212C20.4573 20.7068 20.4597 20.6914 20.459 20.676C20.457 20.6473 20.4442 20.6205 20.4233 20.6009C20.4023 20.5812 20.3747 20.5702 20.346 20.57ZM20.908 20.57C20.8932 20.57 20.8785 20.573 20.8648 20.5787C20.8512 20.5845 20.8388 20.5929 20.8284 20.6036C20.8181 20.6142 20.81 20.6268 20.8046 20.6406C20.7992 20.6544 20.7966 20.6692 20.797 20.684C20.797 20.746 20.847 20.798 20.908 20.797C20.9234 20.7966 20.9386 20.7932 20.9526 20.7868C20.9667 20.7805 20.9794 20.7715 20.9899 20.7602C21.0004 20.7489 21.0086 20.7357 21.0139 20.7212C21.0193 20.7068 21.0217 20.6914 21.021 20.676C21.019 20.6473 21.0062 20.6205 20.9853 20.6009C20.9643 20.5812 20.9367 20.5702 20.908 20.57ZM21.468 20.57C21.4533 20.5703 21.4388 20.5734 21.4253 20.5793C21.4118 20.5852 21.3996 20.5936 21.3894 20.6042C21.3792 20.6148 21.3711 20.6273 21.3658 20.641C21.3604 20.6547 21.3577 20.6693 21.358 20.684C21.358 20.744 21.408 20.797 21.468 20.797C21.4836 20.797 21.499 20.7939 21.5133 20.7877C21.5276 20.7815 21.5405 20.7725 21.5512 20.7612C21.5619 20.7498 21.5701 20.7364 21.5754 20.7218C21.5807 20.7071 21.583 20.6915 21.582 20.676C21.5805 20.6472 21.5678 20.6201 21.5468 20.6003C21.5257 20.5806 21.4979 20.5697 21.469 20.57H21.468ZM22.031 20.57C22.0162 20.5701 22.0016 20.5732 21.988 20.579C21.9744 20.5848 21.9621 20.5933 21.9517 20.6039C21.9414 20.6145 21.9333 20.627 21.9279 20.6408C21.9224 20.6545 21.9197 20.6692 21.92 20.684C21.92 20.744 21.97 20.797 22.031 20.797C22.0466 20.797 22.062 20.7939 22.0763 20.7877C22.0906 20.7815 22.1035 20.7725 22.1142 20.7612C22.1249 20.7498 22.1331 20.7364 22.1384 20.7218C22.1437 20.7071 22.146 20.6915 22.145 20.676C22.1434 20.647 22.1307 20.6197 22.1094 20.6C22.0882 20.5802 22.06 20.5694 22.031 20.57ZM22.594 20.57C22.579 20.5703 22.5643 20.5735 22.5505 20.5794C22.5368 20.5854 22.5244 20.594 22.514 20.6048C22.5036 20.6156 22.4954 20.6283 22.4899 20.6422C22.4844 20.6562 22.4817 20.671 22.482 20.686C22.482 20.746 22.532 20.798 22.594 20.799C22.6244 20.799 22.6535 20.7869 22.675 20.7655C22.6964 20.744 22.7085 20.7149 22.7085 20.6845C22.7085 20.6541 22.6964 20.625 22.675 20.6035C22.6535 20.5821 22.6244 20.57 22.594 20.57ZM23.156 20.57C23.1412 20.5701 23.1266 20.5732 23.113 20.579C23.0994 20.5848 23.0871 20.5933 23.0767 20.6039C23.0664 20.6145 23.0583 20.627 23.0529 20.6408C23.0474 20.6545 23.0447 20.6692 23.045 20.684C23.045 20.744 23.095 20.797 23.156 20.797C23.1859 20.7965 23.2145 20.7845 23.2357 20.7634C23.2569 20.7423 23.2692 20.7139 23.27 20.684V20.664C23.2654 20.6373 23.2514 20.613 23.2305 20.5958C23.2096 20.5785 23.1831 20.5694 23.156 20.57ZM23.719 20.57C23.7041 20.5699 23.6893 20.5727 23.6755 20.5784C23.6617 20.5841 23.6492 20.5926 23.6388 20.6032C23.6283 20.6138 23.6201 20.6265 23.6147 20.6404C23.6092 20.6542 23.6066 20.6691 23.607 20.684C23.607 20.746 23.657 20.798 23.719 20.797C23.7487 20.7962 23.777 20.7841 23.7981 20.7631C23.8191 20.742 23.8312 20.7137 23.832 20.684V20.664C23.8275 20.6374 23.8136 20.6134 23.7929 20.5961C23.7722 20.5789 23.746 20.5696 23.719 20.57ZM24.281 20.57C24.2662 20.57 24.2515 20.573 24.2378 20.5787C24.2242 20.5845 24.2118 20.5929 24.2014 20.6036C24.1911 20.6142 24.183 20.6268 24.1776 20.6406C24.1722 20.6544 24.1696 20.6692 24.17 20.684C24.17 20.746 24.22 20.798 24.281 20.797C24.2965 20.7967 24.3118 20.7934 24.326 20.7871C24.3401 20.7809 24.3529 20.7718 24.3635 20.7606C24.3742 20.7493 24.3824 20.736 24.3878 20.7215C24.3932 20.7069 24.3957 20.6915 24.395 20.676C24.393 20.6472 24.3801 20.6202 24.3589 20.6005C24.3377 20.5808 24.3099 20.5699 24.281 20.57ZM24.844 20.57C24.8291 20.5699 24.8143 20.5727 24.8005 20.5784C24.7867 20.5841 24.7742 20.5926 24.7638 20.6032C24.7533 20.6138 24.7451 20.6265 24.7397 20.6404C24.7342 20.6542 24.7316 20.6691 24.732 20.684C24.732 20.746 24.782 20.798 24.844 20.797C24.8594 20.7966 24.8746 20.7932 24.8886 20.7868C24.9027 20.7805 24.9154 20.7715 24.9259 20.7602C24.9364 20.7489 24.9446 20.7357 24.9499 20.7212C24.9553 20.7068 24.9577 20.6914 24.957 20.676C24.955 20.6473 24.9422 20.6205 24.9213 20.6009C24.9003 20.5812 24.8727 20.5702 24.844 20.57ZM25.404 20.57C25.3892 20.5701 25.3746 20.5732 25.361 20.579C25.3474 20.5848 25.3351 20.5933 25.3247 20.6039C25.3144 20.6145 25.3063 20.627 25.3009 20.6408C25.2954 20.6545 25.2927 20.6692 25.293 20.684C25.293 20.744 25.343 20.797 25.404 20.797C25.4196 20.797 25.435 20.7939 25.4493 20.7877C25.4636 20.7815 25.4765 20.7725 25.4872 20.7612C25.4979 20.7498 25.5061 20.7364 25.5114 20.7218C25.5167 20.7071 25.519 20.6915 25.518 20.676C25.5164 20.647 25.5037 20.6197 25.4824 20.6C25.4612 20.5802 25.433 20.5694 25.404 20.57ZM25.967 20.57C25.9522 20.5701 25.9376 20.5732 25.924 20.579C25.9104 20.5848 25.8981 20.5933 25.8877 20.6039C25.8774 20.6145 25.8693 20.627 25.8639 20.6408C25.8584 20.6545 25.8557 20.6692 25.856 20.684C25.856 20.744 25.906 20.797 25.966 20.797C25.9816 20.797 25.997 20.7939 26.0113 20.7877C26.0256 20.7815 26.0385 20.7725 26.0492 20.7612C26.0599 20.7498 26.0681 20.7364 26.0734 20.7218C26.0787 20.7071 26.081 20.6915 26.08 20.676C26.0785 20.6472 26.0658 20.6201 26.0448 20.6003C26.0237 20.5806 25.9959 20.5697 25.967 20.57ZM26.529 20.57C26.5142 20.5701 26.4996 20.5732 26.486 20.579C26.4724 20.5848 26.4601 20.5933 26.4497 20.6039C26.4394 20.6145 26.4313 20.627 26.4259 20.6408C26.4204 20.6545 26.4177 20.6692 26.418 20.684C26.418 20.744 26.468 20.797 26.529 20.797C26.5446 20.797 26.56 20.7939 26.5743 20.7877C26.5886 20.7815 26.6015 20.7725 26.6122 20.7612C26.6229 20.7498 26.6311 20.7364 26.6364 20.7218C26.6417 20.7071 26.644 20.6915 26.643 20.676C26.6414 20.647 26.6287 20.6197 26.6074 20.6C26.5862 20.5802 26.558 20.5694 26.529 20.57ZM27.092 20.57C27.0619 20.5708 27.0334 20.5834 27.0126 20.6051C26.9918 20.6269 26.9805 20.6559 26.981 20.686C26.981 20.746 27.031 20.798 27.091 20.799C27.1214 20.799 27.1505 20.7869 27.172 20.7655C27.1934 20.744 27.2055 20.7149 27.2055 20.6845C27.2055 20.6541 27.1934 20.625 27.172 20.6035C27.1505 20.5821 27.1214 20.57 27.091 20.57H27.092ZM27.654 20.57C27.6392 20.5701 27.6246 20.5732 27.611 20.579C27.5974 20.5848 27.5851 20.5933 27.5747 20.6039C27.5644 20.6145 27.5563 20.627 27.5509 20.6408C27.5454 20.6545 27.5427 20.6692 27.543 20.684C27.543 20.744 27.593 20.797 27.654 20.797C27.6839 20.7965 27.7125 20.7845 27.7337 20.7634C27.7549 20.7423 27.7672 20.7139 27.768 20.684V20.664C27.7634 20.6373 27.7494 20.613 27.7285 20.5958C27.7076 20.5785 27.6811 20.5694 27.654 20.57ZM28.217 20.57C28.2022 20.57 28.1875 20.573 28.1738 20.5787C28.1602 20.5845 28.1478 20.5929 28.1374 20.6036C28.1271 20.6142 28.119 20.6268 28.1136 20.6406C28.1082 20.6544 28.1056 20.6692 28.106 20.684C28.106 20.746 28.155 20.798 28.216 20.797C28.2459 20.7965 28.2745 20.7845 28.2957 20.7634C28.3169 20.7423 28.3292 20.7139 28.33 20.684V20.676C28.328 20.6473 28.3152 20.6205 28.2943 20.6009C28.2733 20.5812 28.2457 20.5702 28.217 20.57ZM28.779 20.57C28.7642 20.57 28.7495 20.573 28.7358 20.5787C28.7222 20.5845 28.7098 20.5929 28.6994 20.6036C28.6891 20.6142 28.681 20.6268 28.6756 20.6406C28.6702 20.6544 28.6676 20.6692 28.668 20.684C28.668 20.746 28.718 20.798 28.779 20.797C28.8089 20.7965 28.8375 20.7845 28.8587 20.7634C28.8799 20.7423 28.8922 20.7139 28.893 20.684V20.676C28.891 20.6472 28.8781 20.6202 28.8569 20.6005C28.8357 20.5808 28.8079 20.5699 28.779 20.57ZM29.342 20.57C29.3272 20.57 29.3125 20.573 29.2988 20.5787C29.2852 20.5845 29.2728 20.5929 29.2624 20.6036C29.2521 20.6142 29.244 20.6268 29.2386 20.6406C29.2332 20.6544 29.2306 20.6692 29.231 20.684C29.231 20.746 29.28 20.798 29.341 20.797C29.3565 20.7967 29.3718 20.7934 29.386 20.7871C29.4001 20.7809 29.4129 20.7718 29.4235 20.7606C29.4342 20.7493 29.4424 20.736 29.4478 20.7215C29.4532 20.7069 29.4557 20.6915 29.455 20.676C29.453 20.6473 29.4402 20.6205 29.4193 20.6009C29.3983 20.5812 29.3707 20.5702 29.342 20.57ZM29.902 20.57C29.8872 20.5701 29.8726 20.5732 29.859 20.579C29.8454 20.5848 29.8331 20.5933 29.8227 20.6039C29.8124 20.6145 29.8043 20.627 29.7989 20.6408C29.7934 20.6545 29.7907 20.6692 29.791 20.684C29.791 20.744 29.841 20.797 29.902 20.797C29.9176 20.797 29.933 20.7939 29.9473 20.7877C29.9616 20.7815 29.9745 20.7725 29.9852 20.7612C29.9959 20.7498 30.0041 20.7364 30.0094 20.7218C30.0147 20.7071 30.017 20.6915 30.016 20.676C30.0145 20.647 30.0017 20.6197 29.9804 20.6C29.9592 20.5802 29.931 20.5694 29.902 20.57ZM30.465 20.57C30.4502 20.5701 30.4356 20.5732 30.422 20.579C30.4084 20.5848 30.3961 20.5933 30.3857 20.6039C30.3754 20.6145 30.3673 20.627 30.3619 20.6408C30.3564 20.6545 30.3537 20.6692 30.354 20.684C30.354 20.744 30.404 20.797 30.464 20.797C30.4796 20.797 30.495 20.7939 30.5093 20.7877C30.5236 20.7815 30.5365 20.7725 30.5472 20.7612C30.5579 20.7498 30.5661 20.7364 30.5714 20.7218C30.5767 20.7071 30.579 20.6915 30.578 20.676C30.5765 20.6472 30.5638 20.6201 30.5428 20.6003C30.5217 20.5806 30.4939 20.5697 30.465 20.57ZM31.027 20.57C31.0123 20.5701 30.9978 20.5732 30.9843 20.579C30.9708 20.5849 30.9586 20.5933 30.9484 20.604C30.9383 20.6146 30.9303 20.6272 30.9251 20.6409C30.9199 20.6547 30.9175 20.6693 30.918 20.684C30.918 20.744 30.966 20.797 31.028 20.797C31.0435 20.7969 31.0588 20.7936 31.073 20.7874C31.0872 20.7812 31.1 20.7721 31.1105 20.7608C31.1211 20.7495 31.1293 20.7361 31.1345 20.7215C31.1397 20.707 31.142 20.6915 31.141 20.676C31.1395 20.647 31.1267 20.6197 31.1054 20.6C31.0842 20.5802 31.056 20.5694 31.027 20.57ZM31.59 20.57C31.5752 20.5701 31.5606 20.5732 31.547 20.579C31.5334 20.5848 31.5211 20.5933 31.5107 20.6039C31.5004 20.6145 31.4923 20.627 31.4869 20.6408C31.4814 20.6545 31.4787 20.6692 31.479 20.684C31.479 20.744 31.529 20.797 31.589 20.797C31.651 20.797 31.7 20.745 31.701 20.684V20.664C31.6971 20.6375 31.6837 20.6133 31.6633 20.596C31.6428 20.5787 31.6168 20.5695 31.59 20.57ZM32.152 20.57C32.1372 20.57 32.1225 20.573 32.1088 20.5787C32.0951 20.5845 32.0828 20.5929 32.0724 20.6036C32.0621 20.6142 32.054 20.6268 32.0486 20.6406C32.0432 20.6544 32.0406 20.6692 32.041 20.684C32.041 20.746 32.091 20.798 32.152 20.797C32.1819 20.7965 32.2105 20.7845 32.2317 20.7634C32.2529 20.7423 32.2652 20.7139 32.266 20.684V20.664C32.2614 20.6373 32.2474 20.613 32.2265 20.5958C32.2056 20.5785 32.1791 20.5694 32.152 20.57ZM32.715 20.57C32.7001 20.5699 32.6853 20.5727 32.6715 20.5784C32.6577 20.5841 32.6452 20.5926 32.6348 20.6032C32.6243 20.6138 32.6161 20.6265 32.6107 20.6404C32.6052 20.6542 32.6026 20.6691 32.603 20.684C32.604 20.746 32.653 20.798 32.715 20.797C32.776 20.797 32.825 20.745 32.826 20.684V20.676C32.8245 20.6475 32.8121 20.6207 32.7915 20.601C32.7709 20.5813 32.7435 20.5702 32.715 20.57ZM33.277 20.57C33.2622 20.57 33.2475 20.573 33.2338 20.5787C33.2201 20.5845 33.2078 20.5929 33.1974 20.6036C33.1871 20.6142 33.179 20.6268 33.1736 20.6406C33.1682 20.6544 33.1656 20.6692 33.166 20.684C33.166 20.746 33.216 20.798 33.277 20.797C33.2925 20.7967 33.3078 20.7934 33.322 20.7871C33.3361 20.7809 33.3489 20.7718 33.3595 20.7606C33.3702 20.7493 33.3784 20.736 33.3838 20.7215C33.3892 20.7069 33.3917 20.6915 33.391 20.676C33.389 20.6472 33.3761 20.6202 33.3549 20.6005C33.3337 20.5808 33.3059 20.5699 33.277 20.57ZM33.84 20.57C33.8251 20.5699 33.8103 20.5727 33.7965 20.5784C33.7827 20.5841 33.7702 20.5926 33.7598 20.6032C33.7493 20.6138 33.7411 20.6265 33.7357 20.6404C33.7302 20.6542 33.7276 20.6691 33.728 20.684C33.729 20.746 33.778 20.798 33.84 20.797C33.8554 20.7966 33.8706 20.7932 33.8846 20.7868C33.8987 20.7805 33.9114 20.7715 33.9219 20.7602C33.9324 20.7489 33.9406 20.7357 33.9459 20.7212C33.9513 20.7068 33.9537 20.6914 33.953 20.676C33.951 20.6473 33.9382 20.6205 33.9173 20.6009C33.8963 20.5812 33.8687 20.5702 33.84 20.57ZM34.4 20.57C34.3853 20.5703 34.3708 20.5734 34.3573 20.5793C34.3438 20.5852 34.3316 20.5936 34.3214 20.6042C34.3112 20.6148 34.3031 20.6273 34.2978 20.641C34.2924 20.6547 34.2897 20.6693 34.29 20.684C34.29 20.744 34.339 20.797 34.4 20.797C34.4301 20.797 34.4589 20.7851 34.4803 20.764C34.5016 20.7428 34.5137 20.7141 34.514 20.684V20.676C34.5125 20.647 34.4997 20.6197 34.4784 20.6C34.4572 20.5802 34.429 20.5694 34.4 20.57ZM17.031 22.113V22.115C16.9064 22.1171 16.7834 22.1438 16.6691 22.1935C16.5548 22.2433 16.4514 22.3152 16.365 22.405L14.557 24.262C14.4701 24.3512 14.4016 24.4567 14.3556 24.5724C14.3096 24.6882 14.2869 24.8118 14.2889 24.9364C14.2908 25.0609 14.3174 25.1838 14.367 25.298C14.4166 25.4123 14.4883 25.5156 14.578 25.602C14.667 25.6892 14.7724 25.758 14.8881 25.8042C15.0038 25.8505 15.1276 25.8733 15.2522 25.8715C15.3768 25.8696 15.4998 25.8431 15.6141 25.7934C15.7283 25.7437 15.8316 25.6719 15.918 25.582L17.727 23.722C17.8139 23.6327 17.8822 23.5272 17.9282 23.4114C17.9741 23.2957 17.9967 23.172 17.9946 23.0474C17.9926 22.9229 17.9659 22.8 17.9162 22.6858C17.8665 22.5716 17.7947 22.4684 17.705 22.382C17.6159 22.295 17.5105 22.2265 17.3948 22.1803C17.2792 22.1341 17.1555 22.1113 17.031 22.113ZM21.031 22.113V22.115C20.9064 22.1171 20.7834 22.1438 20.6691 22.1935C20.5548 22.2433 20.4514 22.3152 20.365 22.405L18.557 24.262C18.4701 24.3512 18.4016 24.4567 18.3556 24.5724C18.3096 24.6882 18.2869 24.8118 18.2889 24.9364C18.2908 25.0609 18.3174 25.1838 18.367 25.298C18.4166 25.4123 18.4883 25.5156 18.578 25.602C18.667 25.6892 18.7724 25.758 18.8881 25.8042C19.0038 25.8505 19.1276 25.8733 19.2522 25.8715C19.3768 25.8696 19.4998 25.8431 19.6141 25.7934C19.7283 25.7437 19.8316 25.6719 19.918 25.582L21.727 23.722C21.8139 23.6327 21.8822 23.5272 21.9282 23.4114C21.9741 23.2957 21.9967 23.172 21.9946 23.0474C21.9926 22.9229 21.9659 22.8 21.9162 22.6858C21.8665 22.5716 21.7947 22.4684 21.705 22.382C21.6159 22.295 21.5105 22.2265 21.3948 22.1803C21.2792 22.1341 21.1555 22.1113 21.031 22.113ZM25.031 22.113V22.115C24.9064 22.1171 24.7834 22.1438 24.6691 22.1935C24.5548 22.2433 24.4514 22.3152 24.365 22.405L22.557 24.262C22.4701 24.3512 22.4016 24.4567 22.3556 24.5724C22.3096 24.6882 22.2869 24.8118 22.2889 24.9364C22.2908 25.0609 22.3174 25.1838 22.367 25.298C22.4166 25.4123 22.4883 25.5156 22.578 25.602C22.667 25.6892 22.7724 25.758 22.8881 25.8042C23.0038 25.8505 23.1276 25.8733 23.2522 25.8715C23.3768 25.8696 23.4998 25.8431 23.6141 25.7934C23.7283 25.7437 23.8316 25.6719 23.918 25.582L25.727 23.722C25.8139 23.6327 25.8822 23.5272 25.9282 23.4114C25.9741 23.2957 25.9967 23.172 25.9946 23.0474C25.9926 22.9229 25.9659 22.8 25.9162 22.6858C25.8665 22.5716 25.7947 22.4684 25.705 22.382C25.6159 22.295 25.5105 22.2265 25.3948 22.1803C25.2792 22.1341 25.1555 22.1113 25.031 22.113ZM29.031 22.113V22.115C28.9064 22.1171 28.7834 22.1438 28.6691 22.1935C28.5548 22.2433 28.4514 22.3152 28.365 22.405L26.557 24.262C26.4701 24.3512 26.4016 24.4567 26.3556 24.5724C26.3096 24.6882 26.2869 24.8118 26.2889 24.9364C26.2908 25.0609 26.3174 25.1838 26.367 25.298C26.4166 25.4123 26.4883 25.5156 26.578 25.602C26.667 25.6892 26.7724 25.758 26.8881 25.8042C27.0038 25.8505 27.1276 25.8733 27.2522 25.8715C27.3768 25.8696 27.4998 25.8431 27.6141 25.7934C27.7283 25.7437 27.8316 25.6719 27.918 25.582L29.727 23.722C29.8139 23.6327 29.8822 23.5272 29.9282 23.4114C29.9741 23.2957 29.9967 23.172 29.9946 23.0474C29.9926 22.9229 29.9659 22.8 29.9162 22.6858C29.8665 22.5716 29.7947 22.4684 29.705 22.382C29.6159 22.295 29.5105 22.2265 29.3948 22.1803C29.2792 22.1341 29.1555 22.1113 29.031 22.113ZM32.75 22.129V22.131C32.6254 22.1329 32.5025 22.1595 32.3882 22.2091C32.2739 22.2587 32.1705 22.3303 32.084 22.42L30.275 24.277C30.1881 24.3663 30.1198 24.4718 30.0739 24.5876C30.0279 24.7033 30.0053 24.827 30.0074 24.9516C30.0094 25.0761 30.0361 25.199 30.0858 25.3132C30.1355 25.4274 30.2073 25.5306 30.297 25.617C30.386 25.7042 30.4914 25.773 30.6071 25.8192C30.7228 25.8655 30.8466 25.8883 30.9712 25.8865C31.0958 25.8846 31.2188 25.8581 31.3331 25.8084C31.4473 25.7587 31.5506 25.6868 31.637 25.597L33.445 23.738C33.5319 23.6488 33.6004 23.5433 33.6464 23.4276C33.6924 23.3118 33.7151 23.1882 33.7131 23.0636C33.7112 22.9391 33.6846 22.8162 33.635 22.702C33.5854 22.5877 33.5137 22.4844 33.424 22.398C33.335 22.3108 33.2296 22.242 33.114 22.1957C32.9983 22.1493 32.8746 22.1263 32.75 22.128V22.129ZM13.598 27.199C13.5832 27.199 13.5686 27.2019 13.5549 27.2076C13.5413 27.2133 13.5289 27.2217 13.5184 27.2322C13.508 27.2427 13.4998 27.2551 13.4942 27.2688C13.4887 27.2825 13.4859 27.2972 13.486 27.312C13.486 27.374 13.536 27.425 13.598 27.426C13.66 27.426 13.71 27.375 13.711 27.313C13.7113 27.298 13.7085 27.2832 13.703 27.2693C13.6974 27.2554 13.6891 27.2428 13.6786 27.2321C13.668 27.2215 13.6555 27.2131 13.6416 27.2074C13.6278 27.2017 13.613 27.1989 13.598 27.199ZM14.16 27.199C14.1453 27.1991 14.1308 27.2022 14.1172 27.2079C14.1037 27.2137 14.0914 27.222 14.0811 27.2325C14.0708 27.243 14.0626 27.2554 14.0571 27.2691C14.0516 27.2827 14.0489 27.2973 14.049 27.312C14.049 27.374 14.099 27.425 14.16 27.426C14.1897 27.4252 14.218 27.4131 14.2391 27.3921C14.2601 27.371 14.2722 27.3427 14.273 27.313V27.293C14.2685 27.2664 14.2546 27.2424 14.2339 27.2251C14.2132 27.2079 14.187 27.1986 14.16 27.199ZM14.723 27.199C14.7082 27.1989 14.6935 27.2017 14.6797 27.2073C14.666 27.213 14.6536 27.2213 14.6431 27.2319C14.6327 27.2424 14.6245 27.2549 14.619 27.2687C14.6134 27.2824 14.6107 27.2972 14.611 27.312C14.611 27.375 14.661 27.426 14.723 27.426C14.7527 27.4252 14.781 27.4131 14.8021 27.3921C14.8231 27.371 14.8352 27.3427 14.836 27.313V27.293C14.8315 27.2664 14.8176 27.2424 14.7969 27.2251C14.7762 27.2079 14.75 27.1986 14.723 27.199ZM15.285 27.199C15.2703 27.199 15.2557 27.2019 15.2421 27.2076C15.2285 27.2133 15.2161 27.2217 15.2058 27.2322C15.1955 27.2427 15.1873 27.2552 15.1819 27.2689C15.1764 27.2826 15.1737 27.2973 15.174 27.312C15.174 27.375 15.224 27.426 15.285 27.426C15.3004 27.4256 15.3156 27.4222 15.3296 27.4158C15.3437 27.4095 15.3564 27.4005 15.3669 27.3892C15.3774 27.3779 15.3856 27.3647 15.3909 27.3502C15.3963 27.3358 15.3987 27.3204 15.398 27.305C15.396 27.2763 15.3832 27.2495 15.3623 27.2299C15.3413 27.2102 15.3137 27.1992 15.285 27.199ZM15.848 27.199C15.8332 27.1989 15.8185 27.2017 15.8047 27.2073C15.791 27.213 15.7786 27.2213 15.7681 27.2319C15.7577 27.2424 15.7495 27.2549 15.744 27.2687C15.7384 27.2824 15.7357 27.2972 15.736 27.312C15.736 27.375 15.786 27.426 15.848 27.426C15.8634 27.4256 15.8786 27.4222 15.8926 27.4158C15.9067 27.4095 15.9194 27.4005 15.9299 27.3892C15.9404 27.3779 15.9486 27.3647 15.9539 27.3502C15.9593 27.3358 15.9617 27.3204 15.961 27.305C15.959 27.2763 15.9462 27.2495 15.9253 27.2299C15.9043 27.2102 15.8767 27.1992 15.848 27.199ZM16.41 27.199C16.3953 27.199 16.3807 27.2019 16.3671 27.2076C16.3535 27.2133 16.3411 27.2217 16.3308 27.2322C16.3205 27.2427 16.3123 27.2552 16.3069 27.2689C16.3014 27.2826 16.2987 27.2973 16.299 27.312C16.299 27.375 16.349 27.426 16.41 27.426C16.4254 27.4256 16.4406 27.4222 16.4546 27.4158C16.4687 27.4095 16.4814 27.4005 16.4919 27.3892C16.5024 27.3779 16.5106 27.3647 16.5159 27.3502C16.5213 27.3358 16.5237 27.3204 16.523 27.305C16.521 27.2763 16.5082 27.2495 16.4873 27.2299C16.4663 27.2102 16.4387 27.1992 16.41 27.199ZM16.97 27.199C16.9405 27.1995 16.9123 27.2117 16.8917 27.2329C16.8711 27.254 16.8597 27.2825 16.86 27.312C16.86 27.374 16.91 27.425 16.97 27.426C16.9856 27.426 17.001 27.4229 17.0153 27.4167C17.0296 27.4105 17.0425 27.4015 17.0532 27.3902C17.0639 27.3788 17.0721 27.3654 17.0774 27.3508C17.0827 27.3361 17.085 27.3205 17.084 27.305C17.0825 27.2762 17.0698 27.2491 17.0488 27.2293C17.0277 27.2096 16.9999 27.1987 16.971 27.199H16.97ZM17.533 27.199C17.5183 27.1991 17.5038 27.2022 17.4902 27.2079C17.4767 27.2137 17.4644 27.222 17.4541 27.2325C17.4438 27.243 17.4356 27.2554 17.4301 27.2691C17.4246 27.2827 17.4219 27.2973 17.422 27.312C17.422 27.374 17.472 27.425 17.533 27.426C17.5485 27.4259 17.5638 27.4226 17.578 27.4164C17.5922 27.4102 17.605 27.4011 17.6155 27.3898C17.6261 27.3785 17.6343 27.3651 17.6395 27.3505C17.6447 27.336 17.647 27.3205 17.646 27.305C17.6445 27.2762 17.6318 27.2491 17.6108 27.2293C17.5897 27.2096 17.5619 27.1987 17.533 27.199ZM18.096 27.199C18.0812 27.199 18.0666 27.2019 18.0529 27.2076C18.0393 27.2133 18.0269 27.2217 18.0164 27.2322C18.006 27.2427 17.9978 27.2551 17.9922 27.2688C17.9867 27.2825 17.9839 27.2972 17.984 27.312C17.984 27.374 18.034 27.425 18.096 27.426C18.1115 27.4259 18.1268 27.4226 18.141 27.4164C18.1552 27.4102 18.168 27.4011 18.1785 27.3898C18.1891 27.3785 18.1973 27.3651 18.2025 27.3505C18.2077 27.336 18.21 27.3205 18.209 27.305C18.2075 27.2762 18.1948 27.2491 18.1738 27.2293C18.1527 27.2096 18.1249 27.1987 18.096 27.199ZM18.658 27.199C18.6433 27.1991 18.6288 27.2022 18.6152 27.2079C18.6017 27.2137 18.5894 27.222 18.5791 27.2325C18.5688 27.243 18.5606 27.2554 18.5551 27.2691C18.5496 27.2827 18.5469 27.2973 18.547 27.312C18.547 27.374 18.597 27.425 18.658 27.426C18.6877 27.4252 18.716 27.4131 18.7371 27.3921C18.7581 27.371 18.7702 27.3427 18.771 27.313V27.293C18.7665 27.2664 18.7526 27.2424 18.7319 27.2251C18.7112 27.2079 18.685 27.1986 18.658 27.199ZM19.221 27.199C19.2062 27.1989 19.1915 27.2017 19.1777 27.2073C19.164 27.213 19.1516 27.2213 19.1411 27.2319C19.1307 27.2424 19.1225 27.2549 19.117 27.2687C19.1114 27.2824 19.1087 27.2972 19.109 27.312C19.109 27.375 19.159 27.426 19.221 27.426C19.2364 27.4256 19.2516 27.4222 19.2656 27.4158C19.2797 27.4095 19.2924 27.4005 19.3029 27.3892C19.3134 27.3779 19.3216 27.3647 19.3269 27.3502C19.3323 27.3358 19.3347 27.3204 19.334 27.305C19.332 27.2763 19.3192 27.2495 19.2983 27.2299C19.2773 27.2102 19.2497 27.1992 19.221 27.199ZM19.783 27.199C19.7683 27.199 19.7537 27.2019 19.7401 27.2076C19.7265 27.2133 19.7141 27.2217 19.7038 27.2322C19.6935 27.2427 19.6853 27.2552 19.6799 27.2689C19.6744 27.2826 19.6717 27.2973 19.672 27.312C19.672 27.375 19.722 27.426 19.783 27.426C19.7983 27.4256 19.8134 27.4222 19.8274 27.4158C19.8413 27.4095 19.8539 27.4004 19.8642 27.3891C19.8746 27.3778 19.8826 27.3645 19.8877 27.3501C19.8928 27.3356 19.8949 27.3203 19.894 27.305C19.8925 27.2767 19.8803 27.25 19.8599 27.2303C19.8395 27.2107 19.8123 27.1995 19.784 27.199H19.783ZM20.346 27.199C20.3312 27.1989 20.3165 27.2017 20.3027 27.2073C20.289 27.213 20.2766 27.2213 20.2661 27.2319C20.2557 27.2424 20.2475 27.2549 20.242 27.2687C20.2364 27.2824 20.2337 27.2972 20.234 27.312C20.234 27.375 20.284 27.426 20.346 27.426C20.3614 27.4256 20.3766 27.4222 20.3906 27.4158C20.4047 27.4095 20.4174 27.4005 20.4279 27.3892C20.4384 27.3779 20.4466 27.3647 20.4519 27.3502C20.4573 27.3358 20.4597 27.3204 20.459 27.305C20.457 27.2763 20.4442 27.2495 20.4233 27.2299C20.4023 27.2102 20.3747 27.1992 20.346 27.199ZM20.908 27.199C20.8933 27.199 20.8787 27.2019 20.8651 27.2076C20.8515 27.2133 20.8391 27.2217 20.8288 27.2322C20.8185 27.2427 20.8103 27.2552 20.8049 27.2689C20.7994 27.2826 20.7967 27.2973 20.797 27.312C20.797 27.375 20.847 27.426 20.908 27.426C20.9234 27.4256 20.9386 27.4222 20.9526 27.4158C20.9667 27.4095 20.9794 27.4005 20.9899 27.3892C21.0004 27.3779 21.0086 27.3647 21.0139 27.3502C21.0193 27.3358 21.0217 27.3204 21.021 27.305C21.019 27.2763 21.0062 27.2495 20.9853 27.2299C20.9643 27.2102 20.9367 27.1992 20.908 27.199ZM21.468 27.199C21.4385 27.1995 21.4103 27.2117 21.3897 27.2329C21.3691 27.254 21.3577 27.2825 21.358 27.312C21.358 27.374 21.408 27.425 21.468 27.426C21.4836 27.426 21.499 27.4229 21.5133 27.4167C21.5276 27.4105 21.5405 27.4015 21.5512 27.3902C21.5619 27.3788 21.5701 27.3654 21.5754 27.3508C21.5807 27.3361 21.583 27.3205 21.582 27.305C21.5805 27.2762 21.5678 27.2491 21.5468 27.2293C21.5257 27.2096 21.4979 27.1987 21.469 27.199H21.468ZM22.031 27.199C22.0163 27.1991 22.0018 27.2022 21.9882 27.2079C21.9747 27.2137 21.9624 27.222 21.9521 27.2325C21.9418 27.243 21.9336 27.2554 21.9281 27.2691C21.9226 27.2827 21.9199 27.2973 21.92 27.312C21.92 27.374 21.97 27.425 22.031 27.426C22.0466 27.426 22.062 27.4229 22.0763 27.4167C22.0906 27.4105 22.1035 27.4015 22.1142 27.3902C22.1249 27.3788 22.1331 27.3654 22.1384 27.3508C22.1437 27.3361 22.146 27.3205 22.145 27.305C22.1434 27.276 22.1307 27.2487 22.1094 27.229C22.0882 27.2092 22.06 27.1984 22.031 27.199ZM22.594 27.199C22.5792 27.199 22.5646 27.2019 22.5509 27.2076C22.5373 27.2133 22.5249 27.2217 22.5144 27.2322C22.504 27.2427 22.4958 27.2551 22.4902 27.2688C22.4847 27.2825 22.4819 27.2972 22.482 27.312C22.482 27.374 22.532 27.425 22.594 27.426C22.656 27.426 22.706 27.375 22.707 27.313C22.7073 27.298 22.7045 27.2832 22.699 27.2693C22.6934 27.2554 22.6851 27.2428 22.6746 27.2321C22.664 27.2215 22.6515 27.2131 22.6376 27.2074C22.6238 27.2017 22.609 27.1989 22.594 27.199ZM23.156 27.199C23.1413 27.1991 23.1268 27.2022 23.1132 27.2079C23.0997 27.2137 23.0874 27.222 23.0771 27.2325C23.0668 27.243 23.0586 27.2554 23.0531 27.2691C23.0476 27.2827 23.0449 27.2973 23.045 27.312C23.045 27.374 23.095 27.425 23.156 27.426C23.1859 27.4255 23.2145 27.4135 23.2357 27.3924C23.2569 27.3713 23.2692 27.3429 23.27 27.313V27.293C23.2654 27.2663 23.2514 27.242 23.2305 27.2248C23.2096 27.2075 23.1831 27.1984 23.156 27.199ZM23.719 27.199C23.7042 27.1989 23.6895 27.2017 23.6757 27.2073C23.662 27.213 23.6496 27.2213 23.6391 27.2319C23.6287 27.2424 23.6205 27.2549 23.615 27.2687C23.6094 27.2824 23.6067 27.2972 23.607 27.312C23.607 27.375 23.657 27.426 23.719 27.426C23.7487 27.4252 23.777 27.4131 23.7981 27.3921C23.8191 27.371 23.8312 27.3427 23.832 27.313V27.293C23.8275 27.2664 23.8136 27.2424 23.7929 27.2251C23.7722 27.2079 23.746 27.1986 23.719 27.199ZM24.281 27.199C24.2663 27.199 24.2517 27.2019 24.2381 27.2076C24.2245 27.2133 24.2121 27.2217 24.2018 27.2322C24.1915 27.2427 24.1833 27.2552 24.1779 27.2689C24.1724 27.2826 24.1697 27.2973 24.17 27.312C24.17 27.375 24.22 27.426 24.281 27.426C24.2965 27.4257 24.3118 27.4224 24.326 27.4161C24.3401 27.4099 24.3529 27.4008 24.3635 27.3896C24.3742 27.3783 24.3824 27.365 24.3878 27.3505C24.3932 27.3359 24.3957 27.3205 24.395 27.305C24.393 27.2762 24.3801 27.2492 24.3589 27.2295C24.3377 27.2098 24.3099 27.1989 24.281 27.199ZM24.844 27.199C24.8292 27.1989 24.8145 27.2017 24.8007 27.2073C24.787 27.213 24.7746 27.2213 24.7641 27.2319C24.7537 27.2424 24.7455 27.2549 24.74 27.2687C24.7344 27.2824 24.7317 27.2972 24.732 27.312C24.732 27.375 24.782 27.426 24.844 27.426C24.8594 27.4256 24.8746 27.4222 24.8886 27.4158C24.9027 27.4095 24.9154 27.4005 24.9259 27.3892C24.9364 27.3779 24.9446 27.3647 24.9499 27.3502C24.9553 27.3358 24.9577 27.3204 24.957 27.305C24.955 27.2763 24.9422 27.2495 24.9213 27.2299C24.9003 27.2102 24.8727 27.1992 24.844 27.199ZM25.404 27.199C25.3893 27.1991 25.3748 27.2022 25.3612 27.2079C25.3477 27.2137 25.3354 27.222 25.3251 27.2325C25.3148 27.243 25.3066 27.2554 25.3011 27.2691C25.2956 27.2827 25.2929 27.2973 25.293 27.312C25.293 27.374 25.343 27.425 25.404 27.426C25.4196 27.426 25.435 27.4229 25.4493 27.4167C25.4636 27.4105 25.4765 27.4015 25.4872 27.3902C25.4979 27.3788 25.5061 27.3654 25.5114 27.3508C25.5167 27.3361 25.519 27.3205 25.518 27.305C25.5164 27.276 25.5037 27.2487 25.4824 27.229C25.4612 27.2092 25.433 27.1984 25.404 27.199ZM25.967 27.199C25.9523 27.1991 25.9378 27.2022 25.9242 27.2079C25.9107 27.2137 25.8984 27.222 25.8881 27.2325C25.8778 27.243 25.8696 27.2554 25.8641 27.2691C25.8586 27.2827 25.8559 27.2973 25.856 27.312C25.856 27.374 25.906 27.425 25.966 27.426C25.9816 27.426 25.997 27.4229 26.0113 27.4167C26.0256 27.4105 26.0385 27.4015 26.0492 27.3902C26.0599 27.3788 26.0681 27.3654 26.0734 27.3508C26.0787 27.3361 26.081 27.3205 26.08 27.305C26.0785 27.2762 26.0658 27.2491 26.0448 27.2293C26.0237 27.2096 25.9959 27.1987 25.967 27.199ZM26.529 27.199C26.5143 27.1991 26.4998 27.2022 26.4862 27.2079C26.4727 27.2137 26.4604 27.222 26.4501 27.2325C26.4398 27.243 26.4316 27.2554 26.4261 27.2691C26.4206 27.2827 26.4179 27.2973 26.418 27.312C26.418 27.374 26.468 27.425 26.529 27.426C26.5446 27.426 26.56 27.4229 26.5743 27.4167C26.5886 27.4105 26.6015 27.4015 26.6122 27.3902C26.6229 27.3788 26.6311 27.3654 26.6364 27.3508C26.6417 27.3361 26.644 27.3205 26.643 27.305C26.6414 27.276 26.6287 27.2487 26.6074 27.229C26.5862 27.2092 26.558 27.1984 26.529 27.199ZM27.092 27.199C27.0773 27.1991 27.0628 27.2022 27.0492 27.2079C27.0357 27.2137 27.0234 27.222 27.0131 27.2325C27.0028 27.243 26.9946 27.2554 26.9891 27.2691C26.9836 27.2827 26.9809 27.2973 26.981 27.312C26.981 27.374 27.031 27.425 27.091 27.426C27.154 27.426 27.204 27.375 27.205 27.313C27.2051 27.2981 27.2023 27.2833 27.1967 27.2694C27.1911 27.2556 27.1828 27.243 27.1723 27.2325C27.1618 27.2219 27.1493 27.2134 27.1355 27.2077C27.1217 27.202 27.1069 27.199 27.092 27.199ZM27.654 27.199C27.6393 27.1991 27.6248 27.2022 27.6112 27.2079C27.5977 27.2137 27.5854 27.222 27.5751 27.2325C27.5648 27.243 27.5566 27.2554 27.5511 27.2691C27.5456 27.2827 27.5429 27.2973 27.543 27.312C27.543 27.374 27.593 27.425 27.654 27.426C27.6839 27.4255 27.7125 27.4135 27.7337 27.3924C27.7549 27.3713 27.7672 27.3429 27.768 27.313V27.293C27.7634 27.2663 27.7494 27.242 27.7285 27.2248C27.7076 27.2075 27.6811 27.1984 27.654 27.199ZM28.217 27.199C28.2023 27.199 28.1877 27.2019 28.1741 27.2076C28.1605 27.2133 28.1481 27.2217 28.1378 27.2322C28.1275 27.2427 28.1193 27.2552 28.1139 27.2689C28.1084 27.2826 28.1057 27.2973 28.106 27.312C28.106 27.375 28.155 27.426 28.216 27.426C28.2459 27.4255 28.2745 27.4135 28.2957 27.3924C28.3169 27.3713 28.3292 27.3429 28.33 27.313V27.305C28.328 27.2763 28.3152 27.2495 28.2943 27.2299C28.2733 27.2102 28.2457 27.1992 28.217 27.199ZM28.779 27.199C28.7643 27.199 28.7497 27.2019 28.7361 27.2076C28.7225 27.2133 28.7101 27.2217 28.6998 27.2322C28.6895 27.2427 28.6813 27.2552 28.6759 27.2689C28.6704 27.2826 28.6677 27.2973 28.668 27.312C28.668 27.375 28.718 27.426 28.779 27.426C28.8089 27.4255 28.8375 27.4135 28.8587 27.3924C28.8799 27.3713 28.8922 27.3429 28.893 27.313V27.305C28.891 27.2762 28.8781 27.2492 28.8569 27.2295C28.8357 27.2098 28.8079 27.1989 28.779 27.199ZM29.342 27.199C29.3273 27.199 29.3127 27.2019 29.2991 27.2076C29.2855 27.2133 29.2731 27.2217 29.2628 27.2322C29.2525 27.2427 29.2443 27.2552 29.2389 27.2689C29.2334 27.2826 29.2307 27.2973 29.231 27.312C29.231 27.375 29.28 27.426 29.341 27.426C29.3565 27.4257 29.3718 27.4224 29.386 27.4161C29.4001 27.4099 29.4129 27.4008 29.4235 27.3896C29.4342 27.3783 29.4424 27.365 29.4478 27.3505C29.4532 27.3359 29.4557 27.3205 29.455 27.305C29.453 27.2763 29.4402 27.2495 29.4193 27.2299C29.3983 27.2102 29.3707 27.1992 29.342 27.199ZM29.902 27.199C29.8873 27.1991 29.8728 27.2022 29.8592 27.2079C29.8457 27.2137 29.8334 27.222 29.8231 27.2325C29.8128 27.243 29.8046 27.2554 29.7991 27.2691C29.7936 27.2827 29.7909 27.2973 29.791 27.312C29.791 27.374 29.841 27.425 29.902 27.426C29.9176 27.426 29.933 27.4229 29.9473 27.4167C29.9616 27.4105 29.9745 27.4015 29.9852 27.3902C29.9959 27.3788 30.0041 27.3654 30.0094 27.3508C30.0147 27.3361 30.017 27.3205 30.016 27.305C30.0145 27.276 30.0017 27.2487 29.9804 27.229C29.9592 27.2092 29.931 27.1984 29.902 27.199ZM30.465 27.199C30.4503 27.1991 30.4358 27.2022 30.4222 27.2079C30.4087 27.2137 30.3964 27.222 30.3861 27.2325C30.3758 27.243 30.3676 27.2554 30.3621 27.2691C30.3566 27.2827 30.3539 27.2973 30.354 27.312C30.354 27.374 30.404 27.425 30.464 27.426C30.4796 27.426 30.495 27.4229 30.5093 27.4167C30.5236 27.4105 30.5365 27.4015 30.5472 27.3902C30.5579 27.3788 30.5661 27.3654 30.5714 27.3508C30.5767 27.3361 30.579 27.3205 30.578 27.305C30.5765 27.2762 30.5638 27.2491 30.5428 27.2293C30.5217 27.2096 30.4939 27.1987 30.465 27.199ZM31.027 27.199C31.0124 27.1991 30.9979 27.2022 30.9845 27.2079C30.9711 27.2137 30.9589 27.2221 30.9488 27.2326C30.9386 27.2431 30.9307 27.2556 30.9254 27.2692C30.9201 27.2828 30.9176 27.2974 30.918 27.312C30.918 27.374 30.966 27.425 31.028 27.426C31.0435 27.4259 31.0588 27.4226 31.073 27.4164C31.0872 27.4102 31.1 27.4011 31.1105 27.3898C31.1211 27.3785 31.1293 27.3651 31.1345 27.3505C31.1397 27.336 31.142 27.3205 31.141 27.305C31.1395 27.276 31.1267 27.2487 31.1054 27.229C31.0842 27.2092 31.056 27.1984 31.027 27.199ZM31.59 27.199C31.5753 27.1991 31.5608 27.2022 31.5472 27.2079C31.5337 27.2137 31.5214 27.222 31.5111 27.2325C31.5008 27.243 31.4926 27.2554 31.4871 27.2691C31.4816 27.2827 31.4789 27.2973 31.479 27.312C31.479 27.374 31.529 27.425 31.589 27.426C31.651 27.426 31.7 27.374 31.701 27.313V27.293C31.6971 27.2665 31.6837 27.2423 31.6633 27.225C31.6428 27.2077 31.6168 27.1985 31.59 27.199ZM32.152 27.199C32.1373 27.199 32.1227 27.2019 32.1091 27.2076C32.0955 27.2133 32.0831 27.2217 32.0728 27.2322C32.0625 27.2427 32.0543 27.2552 32.0489 27.2689C32.0434 27.2826 32.0407 27.2973 32.041 27.312C32.041 27.375 32.091 27.426 32.152 27.426C32.1819 27.4255 32.2105 27.4135 32.2317 27.3924C32.2529 27.3713 32.2652 27.3429 32.266 27.313V27.293C32.2614 27.2663 32.2474 27.242 32.2265 27.2248C32.2056 27.2075 32.1791 27.1984 32.152 27.199ZM32.715 27.199C32.7002 27.1989 32.6855 27.2017 32.6717 27.2073C32.658 27.213 32.6456 27.2213 32.6351 27.2319C32.6247 27.2424 32.6165 27.2549 32.611 27.2687C32.6054 27.2824 32.6027 27.2972 32.603 27.312C32.604 27.375 32.653 27.426 32.715 27.426C32.776 27.426 32.825 27.374 32.826 27.313V27.305C32.8245 27.2765 32.8121 27.2497 32.7915 27.23C32.7709 27.2103 32.7435 27.1992 32.715 27.199ZM33.277 27.199C33.2623 27.199 33.2477 27.2019 33.2341 27.2076C33.2205 27.2133 33.2081 27.2217 33.1978 27.2322C33.1875 27.2427 33.1793 27.2552 33.1739 27.2689C33.1684 27.2826 33.1657 27.2973 33.166 27.312C33.166 27.375 33.216 27.426 33.277 27.426C33.2925 27.4257 33.3078 27.4224 33.322 27.4161C33.3361 27.4099 33.3489 27.4008 33.3595 27.3896C33.3702 27.3783 33.3784 27.365 33.3838 27.3505C33.3892 27.3359 33.3917 27.3205 33.391 27.305C33.389 27.2762 33.3761 27.2492 33.3549 27.2295C33.3337 27.2098 33.3059 27.1989 33.277 27.199ZM33.84 27.199C33.8252 27.1989 33.8105 27.2017 33.7967 27.2073C33.783 27.213 33.7706 27.2213 33.7601 27.2319C33.7497 27.2424 33.7415 27.2549 33.736 27.2687C33.7304 27.2824 33.7277 27.2972 33.728 27.312C33.729 27.375 33.778 27.426 33.84 27.426C33.8554 27.4256 33.8706 27.4222 33.8846 27.4158C33.8987 27.4095 33.9114 27.4005 33.9219 27.3892C33.9324 27.3779 33.9406 27.3647 33.9459 27.3502C33.9513 27.3358 33.9537 27.3204 33.953 27.305C33.951 27.2763 33.9382 27.2495 33.9173 27.2299C33.8963 27.2102 33.8687 27.1992 33.84 27.199ZM34.4 27.199C34.3705 27.1995 34.3423 27.2117 34.3217 27.2329C34.3011 27.254 34.2897 27.2825 34.29 27.312C34.29 27.374 34.339 27.425 34.4 27.426C34.4301 27.426 34.4589 27.4141 34.4803 27.393C34.5016 27.3718 34.5137 27.3431 34.514 27.313V27.305C34.5125 27.276 34.4997 27.2487 34.4784 27.229C34.4572 27.2092 34.429 27.1984 34.4 27.199ZM17.095 28.582V28.586C16.9704 28.5879 16.8475 28.6145 16.7332 28.6641C16.6189 28.7137 16.5155 28.7853 16.429 28.875L14.62 30.73C14.5331 30.8193 14.4648 30.9248 14.4188 31.0406C14.3729 31.1563 14.3503 31.28 14.3524 31.4046C14.3544 31.5291 14.3811 31.652 14.4308 31.7662C14.4805 31.8804 14.5523 31.9836 14.642 32.07C14.731 32.1572 14.8364 32.226 14.9521 32.2722C15.0678 32.3185 15.1916 32.3413 15.3162 32.3395C15.4408 32.3376 15.5638 32.3111 15.6781 32.2614C15.7923 32.2117 15.8956 32.1398 15.982 32.05L17.79 30.191C17.8769 30.1018 17.9454 29.9963 17.9914 29.8806C18.0374 29.7648 18.0601 29.6412 18.0581 29.5166C18.0562 29.3921 18.0296 29.2692 17.98 29.155C17.9304 29.0407 17.8587 28.9374 17.769 28.851C17.6799 28.764 17.5745 28.6954 17.4589 28.6492C17.3432 28.6031 17.2195 28.5802 17.095 28.582ZM21.095 28.582V28.584C20.9704 28.5859 20.8475 28.6125 20.7332 28.6621C20.6189 28.7117 20.5155 28.7833 20.429 28.873L18.62 30.73C18.5331 30.8193 18.4648 30.9248 18.4188 31.0406C18.3729 31.1563 18.3503 31.28 18.3524 31.4046C18.3544 31.5291 18.3811 31.652 18.4308 31.7662C18.4805 31.8804 18.5523 31.9836 18.642 32.07C18.731 32.1572 18.8364 32.226 18.9521 32.2722C19.0678 32.3185 19.1916 32.3413 19.3162 32.3395C19.4408 32.3376 19.5638 32.3111 19.6781 32.2614C19.7923 32.2117 19.8956 32.1398 19.982 32.05L21.79 30.191C21.8769 30.1018 21.9454 29.9963 21.9914 29.8806C22.0374 29.7648 22.0601 29.6412 22.0581 29.5166C22.0562 29.3921 22.0296 29.2692 21.98 29.155C21.9304 29.0407 21.8587 28.9374 21.769 28.851C21.6799 28.764 21.5745 28.6954 21.4589 28.6492C21.3432 28.6031 21.2195 28.5802 21.095 28.582ZM25.095 28.582V28.584C24.9704 28.5859 24.8475 28.6125 24.7332 28.6621C24.6189 28.7117 24.5155 28.7833 24.429 28.873L22.62 30.73C22.5331 30.8193 22.4648 30.9248 22.4188 31.0406C22.3729 31.1563 22.3503 31.28 22.3524 31.4046C22.3544 31.5291 22.3811 31.652 22.4308 31.7662C22.4805 31.8804 22.5523 31.9836 22.642 32.07C22.731 32.1572 22.8364 32.226 22.9521 32.2722C23.0678 32.3185 23.1916 32.3413 23.3162 32.3395C23.4408 32.3376 23.5638 32.3111 23.6781 32.2614C23.7923 32.2117 23.8956 32.1398 23.982 32.05L25.79 30.191C25.8769 30.1018 25.9454 29.9963 25.9914 29.8806C26.0374 29.7648 26.0601 29.6412 26.0581 29.5166C26.0562 29.3921 26.0296 29.2692 25.98 29.155C25.9304 29.0407 25.8587 28.9374 25.769 28.851C25.6799 28.764 25.5745 28.6954 25.4589 28.6492C25.3432 28.6031 25.2195 28.5802 25.095 28.582ZM29.095 28.582V28.586C28.9704 28.5879 28.8475 28.6145 28.7332 28.6641C28.6189 28.7137 28.5155 28.7853 28.429 28.875L26.62 30.73C26.5331 30.8193 26.4648 30.9248 26.4188 31.0406C26.3729 31.1563 26.3503 31.28 26.3524 31.4046C26.3544 31.5291 26.3811 31.652 26.4308 31.7662C26.4805 31.8804 26.5523 31.9836 26.642 32.07C26.731 32.1572 26.8364 32.226 26.9521 32.2722C27.0678 32.3185 27.1916 32.3413 27.3162 32.3395C27.4408 32.3376 27.5638 32.3111 27.6781 32.2614C27.7923 32.2117 27.8956 32.1398 27.982 32.05L29.79 30.191C29.8769 30.1018 29.9454 29.9963 29.9914 29.8806C30.0374 29.7648 30.0601 29.6412 30.0581 29.5166C30.0562 29.3921 30.0296 29.2692 29.98 29.155C29.9304 29.0407 29.8587 28.9374 29.769 28.851C29.6799 28.764 29.5745 28.6954 29.4589 28.6492C29.3432 28.6031 29.2195 28.5802 29.095 28.582ZM32.813 28.598V28.6C32.6886 28.6021 32.5658 28.6287 32.4517 28.6783C32.3376 28.7278 32.2344 28.7995 32.148 28.889L30.338 30.746C30.2511 30.8353 30.1828 30.9408 30.1369 31.0566C30.0909 31.1723 30.0683 31.296 30.0704 31.4206C30.0724 31.5451 30.0991 31.668 30.1488 31.7822C30.1985 31.8964 30.2703 31.9996 30.36 32.086C30.449 32.1732 30.5544 32.242 30.6701 32.2882C30.7858 32.3345 30.9096 32.3573 31.0342 32.3555C31.1588 32.3536 31.2818 32.3271 31.3961 32.2774C31.5103 32.2277 31.6136 32.1558 31.7 32.066L33.509 30.207C33.5959 30.1177 33.6642 30.0122 33.7102 29.8964C33.7561 29.7807 33.7787 29.657 33.7766 29.5324C33.7746 29.4079 33.7479 29.285 33.6982 29.1708C33.6485 29.0566 33.5767 28.9534 33.487 28.867C33.3981 28.7799 33.2929 28.7112 33.1774 28.6649C33.0619 28.6185 32.9384 28.5955 32.814 28.597L32.813 28.598ZM13.599 33.828C13.5842 33.828 13.5696 33.8309 13.5559 33.8366C13.5423 33.8423 13.5299 33.8507 13.5194 33.8612C13.509 33.8717 13.5008 33.8841 13.4952 33.8978C13.4897 33.9115 13.4869 33.9262 13.487 33.941C13.487 34.003 13.537 34.054 13.599 34.055C13.661 34.055 13.711 34.004 13.712 33.941C13.7121 33.9261 13.7093 33.9114 13.7037 33.8976C13.698 33.8838 13.6897 33.8713 13.6792 33.8608C13.6687 33.8503 13.6562 33.842 13.6424 33.8363C13.6286 33.8307 13.6139 33.8279 13.599 33.828ZM14.161 33.828C14.1463 33.8281 14.1318 33.8312 14.1182 33.8369C14.1047 33.8427 14.0924 33.851 14.0821 33.8615C14.0718 33.872 14.0636 33.8844 14.0581 33.8981C14.0526 33.9117 14.0499 33.9263 14.05 33.941C14.05 34.003 14.1 34.054 14.161 34.055C14.1909 34.0542 14.2193 34.0419 14.2404 34.0207C14.2615 33.9995 14.2735 33.9709 14.274 33.941V33.921C14.2693 33.8946 14.2553 33.8708 14.2346 33.8537C14.2139 33.8367 14.1878 33.8276 14.161 33.828ZM14.724 33.828C14.7092 33.8279 14.6945 33.8307 14.6807 33.8363C14.667 33.842 14.6546 33.8503 14.6441 33.8609C14.6337 33.8714 14.6255 33.8839 14.62 33.8977C14.6144 33.9114 14.6117 33.9262 14.612 33.941C14.612 34.003 14.662 34.055 14.724 34.055C14.7539 34.0542 14.7823 34.0419 14.8034 34.0207C14.8245 33.9995 14.8365 33.9709 14.837 33.941V33.921C14.8323 33.8946 14.8183 33.8708 14.7976 33.8537C14.7769 33.8367 14.7508 33.8276 14.724 33.828ZM15.286 33.828C15.2713 33.828 15.2567 33.8309 15.2431 33.8366C15.2295 33.8423 15.2171 33.8507 15.2068 33.8612C15.1965 33.8717 15.1883 33.8842 15.1829 33.8979C15.1774 33.9116 15.1747 33.9263 15.175 33.941C15.175 34.003 15.225 34.055 15.286 34.055C15.3014 34.0546 15.3166 34.0512 15.3306 34.0448C15.3447 34.0385 15.3574 34.0295 15.3679 34.0182C15.3784 34.0069 15.3866 33.9937 15.3919 33.9792C15.3973 33.9648 15.3997 33.9494 15.399 33.934C15.397 33.9053 15.3842 33.8785 15.3633 33.8589C15.3423 33.8392 15.3147 33.8282 15.286 33.828ZM15.849 33.828C15.8342 33.8279 15.8195 33.8307 15.8057 33.8363C15.792 33.842 15.7796 33.8503 15.7691 33.8609C15.7587 33.8714 15.7505 33.8839 15.745 33.8977C15.7394 33.9114 15.7367 33.9262 15.737 33.941C15.737 34.003 15.787 34.055 15.849 34.055C15.8644 34.0546 15.8796 34.0512 15.8936 34.0448C15.9077 34.0385 15.9204 34.0295 15.9309 34.0182C15.9414 34.0069 15.9496 33.9937 15.9549 33.9792C15.9603 33.9648 15.9627 33.9494 15.962 33.934C15.96 33.9053 15.9472 33.8785 15.9263 33.8589C15.9053 33.8392 15.8777 33.8282 15.849 33.828ZM16.411 33.828C16.3963 33.828 16.3817 33.8309 16.3681 33.8366C16.3545 33.8423 16.3421 33.8507 16.3318 33.8612C16.3215 33.8717 16.3133 33.8842 16.3079 33.8979C16.3024 33.9116 16.2997 33.9263 16.3 33.941C16.3 34.003 16.35 34.055 16.411 34.055C16.4264 34.0546 16.4416 34.0512 16.4556 34.0448C16.4697 34.0385 16.4824 34.0295 16.4929 34.0182C16.5034 34.0069 16.5116 33.9937 16.5169 33.9792C16.5223 33.9648 16.5247 33.9494 16.524 33.934C16.522 33.9053 16.5092 33.8785 16.4883 33.8589C16.4673 33.8392 16.4397 33.8282 16.411 33.828ZM16.971 33.828C16.9415 33.8285 16.9133 33.8407 16.8927 33.8619C16.8721 33.883 16.8607 33.9115 16.861 33.941C16.861 34.003 16.911 34.054 16.971 34.055C16.9866 34.055 17.002 34.0519 17.0163 34.0457C17.0306 34.0395 17.0435 34.0305 17.0542 34.0192C17.0649 34.0078 17.0731 33.9944 17.0784 33.9798C17.0837 33.9651 17.086 33.9495 17.085 33.934C17.0835 33.9052 17.0708 33.8781 17.0498 33.8583C17.0287 33.8386 17.0009 33.8277 16.972 33.828H16.971ZM17.534 33.828C17.5193 33.8281 17.5048 33.8312 17.4912 33.8369C17.4777 33.8427 17.4654 33.851 17.4551 33.8615C17.4448 33.872 17.4366 33.8844 17.4311 33.8981C17.4256 33.9117 17.4229 33.9263 17.423 33.941C17.423 34.003 17.473 34.054 17.534 34.055C17.5495 34.0549 17.5648 34.0516 17.579 34.0454C17.5932 34.0392 17.606 34.0301 17.6165 34.0188C17.6271 34.0075 17.6353 33.9941 17.6405 33.9795C17.6457 33.965 17.648 33.9495 17.647 33.934C17.6455 33.9052 17.6328 33.8781 17.6118 33.8583C17.5907 33.8386 17.5629 33.8277 17.534 33.828ZM18.097 33.828C18.0822 33.828 18.0676 33.8309 18.0539 33.8366C18.0403 33.8423 18.0279 33.8507 18.0174 33.8612C18.007 33.8717 17.9988 33.8841 17.9932 33.8978C17.9877 33.9115 17.9849 33.9262 17.985 33.941C17.985 34.003 18.035 34.054 18.097 34.055C18.1125 34.0549 18.1278 34.0516 18.142 34.0454C18.1562 34.0392 18.169 34.0301 18.1795 34.0188C18.1901 34.0075 18.1983 33.9941 18.2035 33.9795C18.2087 33.965 18.211 33.9495 18.21 33.934C18.2085 33.9052 18.1958 33.8781 18.1748 33.8583C18.1537 33.8386 18.1259 33.8277 18.097 33.828ZM18.659 33.828C18.6443 33.8281 18.6298 33.8312 18.6162 33.8369C18.6027 33.8427 18.5904 33.851 18.5801 33.8615C18.5698 33.872 18.5616 33.8844 18.5561 33.8981C18.5506 33.9117 18.5479 33.9263 18.548 33.941C18.548 34.003 18.598 34.054 18.659 34.055C18.6889 34.0542 18.7173 34.0419 18.7384 34.0207C18.7595 33.9995 18.7715 33.9709 18.772 33.941V33.921C18.7673 33.8946 18.7533 33.8708 18.7326 33.8537C18.7119 33.8367 18.6858 33.8276 18.659 33.828ZM19.222 33.828C19.2072 33.8279 19.1925 33.8307 19.1787 33.8363C19.165 33.842 19.1526 33.8503 19.1421 33.8609C19.1317 33.8714 19.1235 33.8839 19.118 33.8977C19.1124 33.9114 19.1097 33.9262 19.11 33.941C19.11 34.003 19.16 34.055 19.222 34.055C19.2374 34.0546 19.2526 34.0512 19.2666 34.0448C19.2807 34.0385 19.2934 34.0295 19.3039 34.0182C19.3144 34.0069 19.3226 33.9937 19.3279 33.9792C19.3333 33.9648 19.3357 33.9494 19.335 33.934C19.333 33.9053 19.3202 33.8785 19.2993 33.8589C19.2783 33.8392 19.2507 33.8282 19.222 33.828ZM19.784 33.828C19.7693 33.828 19.7547 33.8309 19.7411 33.8366C19.7275 33.8423 19.7151 33.8507 19.7048 33.8612C19.6945 33.8717 19.6863 33.8842 19.6809 33.8979C19.6754 33.9116 19.6727 33.9263 19.673 33.941C19.673 34.003 19.723 34.055 19.784 34.055C19.7993 34.0546 19.8144 34.0512 19.8284 34.0448C19.8423 34.0385 19.8549 34.0294 19.8652 34.0181C19.8756 34.0068 19.8836 33.9935 19.8887 33.9791C19.8938 33.9646 19.8959 33.9493 19.895 33.934C19.8935 33.9057 19.8813 33.879 19.8609 33.8593C19.8405 33.8397 19.8133 33.8285 19.785 33.828H19.784ZM20.347 33.828C20.3322 33.8279 20.3175 33.8307 20.3037 33.8363C20.29 33.842 20.2776 33.8503 20.2671 33.8609C20.2567 33.8714 20.2485 33.8839 20.243 33.8977C20.2374 33.9114 20.2347 33.9262 20.235 33.941C20.235 34.003 20.285 34.055 20.347 34.055C20.3624 34.0546 20.3776 34.0512 20.3916 34.0448C20.4057 34.0385 20.4184 34.0295 20.4289 34.0182C20.4394 34.0069 20.4476 33.9937 20.4529 33.9792C20.4583 33.9648 20.4607 33.9494 20.46 33.934C20.458 33.9053 20.4452 33.8785 20.4243 33.8589C20.4033 33.8392 20.3757 33.8282 20.347 33.828ZM20.909 33.828C20.8943 33.828 20.8797 33.8309 20.8661 33.8366C20.8525 33.8423 20.8401 33.8507 20.8298 33.8612C20.8195 33.8717 20.8113 33.8842 20.8059 33.8979C20.8004 33.9116 20.7977 33.9263 20.798 33.941C20.798 34.003 20.848 34.055 20.909 34.055C20.9244 34.0546 20.9396 34.0512 20.9536 34.0448C20.9677 34.0385 20.9804 34.0295 20.9909 34.0182C21.0014 34.0069 21.0096 33.9937 21.0149 33.9792C21.0203 33.9648 21.0227 33.9494 21.022 33.934C21.02 33.9053 21.0072 33.8785 20.9863 33.8589C20.9653 33.8392 20.9377 33.8282 20.909 33.828ZM21.469 33.828C21.4395 33.8285 21.4113 33.8407 21.3907 33.8619C21.3701 33.883 21.3587 33.9115 21.359 33.941C21.359 34.003 21.409 34.054 21.469 34.055C21.4846 34.055 21.5 34.0519 21.5143 34.0457C21.5286 34.0395 21.5415 34.0305 21.5522 34.0192C21.5629 34.0078 21.5711 33.9944 21.5764 33.9798C21.5817 33.9651 21.584 33.9495 21.583 33.934C21.5815 33.9052 21.5688 33.8781 21.5478 33.8583C21.5267 33.8386 21.4989 33.8277 21.47 33.828H21.469ZM22.032 33.828C22.0173 33.8281 22.0028 33.8312 21.9892 33.8369C21.9757 33.8427 21.9634 33.851 21.9531 33.8615C21.9428 33.872 21.9346 33.8844 21.9291 33.8981C21.9236 33.9117 21.9209 33.9263 21.921 33.941C21.921 34.003 21.971 34.054 22.032 34.055C22.0476 34.055 22.063 34.0519 22.0773 34.0457C22.0916 34.0395 22.1045 34.0305 22.1152 34.0192C22.1259 34.0078 22.1341 33.9944 22.1394 33.9798C22.1447 33.9651 22.147 33.9495 22.146 33.934C22.1444 33.905 22.1317 33.8777 22.1104 33.858C22.0892 33.8382 22.061 33.8274 22.032 33.828ZM22.595 33.828C22.5802 33.828 22.5656 33.8309 22.5519 33.8366C22.5383 33.8423 22.5259 33.8507 22.5154 33.8612C22.505 33.8717 22.4968 33.8841 22.4912 33.8978C22.4857 33.9115 22.4829 33.9262 22.483 33.941C22.483 34.003 22.533 34.054 22.595 34.055C22.657 34.055 22.707 34.004 22.708 33.941C22.7081 33.9261 22.7053 33.9114 22.6997 33.8976C22.694 33.8838 22.6857 33.8713 22.6752 33.8608C22.6647 33.8503 22.6522 33.842 22.6384 33.8363C22.6246 33.8307 22.6099 33.8279 22.595 33.828ZM23.157 33.828C23.1423 33.8281 23.1278 33.8312 23.1142 33.8369C23.1007 33.8427 23.0884 33.851 23.0781 33.8615C23.0678 33.872 23.0596 33.8844 23.0541 33.8981C23.0486 33.9117 23.0459 33.9263 23.046 33.941C23.046 34.003 23.096 34.054 23.157 34.055C23.1871 34.0545 23.2158 34.0423 23.237 34.021C23.2583 33.9998 23.2705 33.9711 23.271 33.941V33.921C23.2662 33.8944 23.2521 33.8705 23.2312 33.8534C23.2103 33.8363 23.184 33.8273 23.157 33.828ZM23.72 33.828C23.7052 33.8279 23.6905 33.8307 23.6767 33.8363C23.663 33.842 23.6506 33.8503 23.6401 33.8609C23.6297 33.8714 23.6215 33.8839 23.616 33.8977C23.6104 33.9114 23.6077 33.9262 23.608 33.941C23.608 34.003 23.658 34.055 23.72 34.055C23.7499 34.0542 23.7783 34.0419 23.7994 34.0207C23.8205 33.9995 23.8325 33.9709 23.833 33.941V33.921C23.8283 33.8946 23.8143 33.8708 23.7936 33.8537C23.7729 33.8367 23.7468 33.8276 23.72 33.828ZM24.282 33.828C24.2673 33.828 24.2527 33.8309 24.2391 33.8366C24.2255 33.8423 24.2131 33.8507 24.2028 33.8612C24.1925 33.8717 24.1843 33.8842 24.1789 33.8979C24.1734 33.9116 24.1707 33.9263 24.171 33.941C24.171 34.003 24.221 34.055 24.282 34.055C24.2975 34.0547 24.3128 34.0514 24.327 34.0451C24.3411 34.0389 24.3539 34.0298 24.3645 34.0186C24.3752 34.0073 24.3834 33.994 24.3888 33.9795C24.3942 33.9649 24.3967 33.9495 24.396 33.934C24.394 33.9052 24.3811 33.8782 24.3599 33.8585C24.3387 33.8388 24.3109 33.8279 24.282 33.828ZM24.845 33.828C24.8302 33.8279 24.8155 33.8307 24.8017 33.8363C24.788 33.842 24.7756 33.8503 24.7651 33.8609C24.7547 33.8714 24.7465 33.8839 24.741 33.8977C24.7354 33.9114 24.7327 33.9262 24.733 33.941C24.733 34.003 24.783 34.055 24.845 34.055C24.8604 34.0546 24.8756 34.0512 24.8896 34.0448C24.9037 34.0385 24.9164 34.0295 24.9269 34.0182C24.9374 34.0069 24.9456 33.9937 24.9509 33.9792C24.9563 33.9648 24.9587 33.9494 24.958 33.934C24.956 33.9053 24.9432 33.8785 24.9223 33.8589C24.9013 33.8392 24.8737 33.8282 24.845 33.828ZM25.405 33.828C25.3903 33.8281 25.3758 33.8312 25.3622 33.8369C25.3487 33.8427 25.3364 33.851 25.3261 33.8615C25.3158 33.872 25.3076 33.8844 25.3021 33.8981C25.2966 33.9117 25.2939 33.9263 25.294 33.941C25.294 34.003 25.344 34.054 25.405 34.055C25.4206 34.055 25.436 34.0519 25.4503 34.0457C25.4646 34.0395 25.4775 34.0305 25.4882 34.0192C25.4989 34.0078 25.5071 33.9944 25.5124 33.9798C25.5177 33.9651 25.52 33.9495 25.519 33.934C25.5174 33.905 25.5047 33.8777 25.4834 33.858C25.4622 33.8382 25.434 33.8274 25.405 33.828ZM25.968 33.828C25.9533 33.8281 25.9388 33.8312 25.9252 33.8369C25.9117 33.8427 25.8994 33.851 25.8891 33.8615C25.8788 33.872 25.8706 33.8844 25.8651 33.8981C25.8596 33.9117 25.8569 33.9263 25.857 33.941C25.857 34.003 25.907 34.054 25.967 34.055C25.9826 34.055 25.998 34.0519 26.0123 34.0457C26.0266 34.0395 26.0395 34.0305 26.0502 34.0192C26.0609 34.0078 26.0691 33.9944 26.0744 33.9798C26.0797 33.9651 26.082 33.9495 26.081 33.934C26.0795 33.9052 26.0668 33.8781 26.0458 33.8583C26.0247 33.8386 25.9969 33.8277 25.968 33.828ZM26.53 33.828C26.5153 33.8281 26.5008 33.8312 26.4872 33.8369C26.4737 33.8427 26.4614 33.851 26.4511 33.8615C26.4408 33.872 26.4326 33.8844 26.4271 33.8981C26.4216 33.9117 26.4189 33.9263 26.419 33.941C26.419 34.003 26.469 34.054 26.53 34.055C26.5456 34.055 26.561 34.0519 26.5753 34.0457C26.5896 34.0395 26.6025 34.0305 26.6132 34.0192C26.6239 34.0078 26.6321 33.9944 26.6374 33.9798C26.6427 33.9651 26.645 33.9495 26.644 33.934C26.6424 33.905 26.6297 33.8777 26.6084 33.858C26.5872 33.8382 26.559 33.8274 26.53 33.828ZM27.093 33.828C27.0783 33.8281 27.0638 33.8312 27.0502 33.8369C27.0367 33.8427 27.0244 33.851 27.0141 33.8615C27.0038 33.872 26.9956 33.8844 26.9901 33.8981C26.9846 33.9117 26.9819 33.9263 26.982 33.941C26.982 34.003 27.032 34.054 27.092 34.055C27.155 34.055 27.205 34.004 27.206 33.941C27.206 33.911 27.1941 33.8823 27.1729 33.8611C27.1517 33.8399 27.123 33.828 27.093 33.828ZM27.655 33.828C27.6403 33.8281 27.6258 33.8312 27.6122 33.8369C27.5987 33.8427 27.5864 33.851 27.5761 33.8615C27.5658 33.872 27.5576 33.8844 27.5521 33.8981C27.5466 33.9117 27.5439 33.9263 27.544 33.941C27.544 34.003 27.594 34.054 27.655 34.055C27.6851 34.0545 27.7138 34.0423 27.735 34.021C27.7563 33.9998 27.7685 33.9711 27.769 33.941V33.921C27.7642 33.8944 27.7501 33.8705 27.7292 33.8534C27.7083 33.8363 27.682 33.8273 27.655 33.828ZM28.218 33.828C28.2033 33.828 28.1887 33.8309 28.1751 33.8366C28.1615 33.8423 28.1491 33.8507 28.1388 33.8612C28.1285 33.8717 28.1203 33.8842 28.1149 33.8979C28.1094 33.9116 28.1067 33.9263 28.107 33.941C28.107 34.003 28.156 34.055 28.217 34.055C28.2471 34.0545 28.2758 34.0423 28.297 34.021C28.3183 33.9998 28.3305 33.9711 28.331 33.941V33.934C28.329 33.9053 28.3162 33.8785 28.2953 33.8589C28.2743 33.8392 28.2467 33.8282 28.218 33.828ZM28.78 33.828C28.7653 33.828 28.7507 33.8309 28.7371 33.8366C28.7235 33.8423 28.7111 33.8507 28.7008 33.8612C28.6905 33.8717 28.6823 33.8842 28.6769 33.8979C28.6714 33.9116 28.6687 33.9263 28.669 33.941C28.669 34.003 28.719 34.055 28.78 34.055C28.8101 34.0545 28.8388 34.0423 28.86 34.021C28.8813 33.9998 28.8935 33.9711 28.894 33.941V33.934C28.892 33.9052 28.8791 33.8782 28.8579 33.8585C28.8367 33.8388 28.8089 33.8279 28.78 33.828ZM29.343 33.828C29.3283 33.828 29.3137 33.8309 29.3001 33.8366C29.2865 33.8423 29.2741 33.8507 29.2638 33.8612C29.2535 33.8717 29.2453 33.8842 29.2399 33.8979C29.2344 33.9116 29.2317 33.9263 29.232 33.941C29.232 34.003 29.281 34.055 29.342 34.055C29.3575 34.0547 29.3728 34.0514 29.387 34.0451C29.4011 34.0389 29.4139 34.0298 29.4245 34.0186C29.4352 34.0073 29.4434 33.994 29.4488 33.9795C29.4542 33.9649 29.4567 33.9495 29.456 33.934C29.454 33.9053 29.4412 33.8785 29.4203 33.8589C29.3993 33.8392 29.3717 33.8282 29.343 33.828ZM29.903 33.828C29.8883 33.8281 29.8738 33.8312 29.8602 33.8369C29.8467 33.8427 29.8344 33.851 29.8241 33.8615C29.8138 33.872 29.8056 33.8844 29.8001 33.8981C29.7946 33.9117 29.7919 33.9263 29.792 33.941C29.792 34.003 29.842 34.054 29.903 34.055C29.9186 34.055 29.934 34.0519 29.9483 34.0457C29.9626 34.0395 29.9755 34.0305 29.9862 34.0192C29.9969 34.0078 30.0051 33.9944 30.0104 33.9798C30.0157 33.9651 30.018 33.9495 30.017 33.934C30.0154 33.905 30.0027 33.8777 29.9814 33.858C29.9602 33.8382 29.932 33.8274 29.903 33.828ZM30.466 33.828C30.4513 33.8281 30.4368 33.8312 30.4232 33.8369C30.4097 33.8427 30.3974 33.851 30.3871 33.8615C30.3768 33.872 30.3686 33.8844 30.3631 33.8981C30.3576 33.9117 30.3549 33.9263 30.355 33.941C30.355 34.003 30.405 34.054 30.465 34.055C30.4806 34.055 30.496 34.0519 30.5103 34.0457C30.5246 34.0395 30.5375 34.0305 30.5482 34.0192C30.5589 34.0078 30.5671 33.9944 30.5724 33.9798C30.5777 33.9651 30.58 33.9495 30.579 33.934C30.5775 33.9052 30.5648 33.8781 30.5438 33.8583C30.5227 33.8386 30.4949 33.8277 30.466 33.828ZM31.028 33.828C31.0134 33.8281 30.9989 33.8312 30.9855 33.8369C30.9721 33.8427 30.9599 33.8511 30.9498 33.8616C30.9396 33.8722 30.9317 33.8846 30.9264 33.8982C30.9211 33.9118 30.9186 33.9264 30.919 33.941C30.919 34.003 30.967 34.054 31.029 34.055C31.0445 34.0549 31.0598 34.0516 31.074 34.0454C31.0882 34.0392 31.101 34.0301 31.1115 34.0188C31.1221 34.0075 31.1303 33.9941 31.1355 33.9795C31.1407 33.965 31.143 33.9495 31.142 33.934C31.1404 33.905 31.1277 33.8777 31.1064 33.858C31.0852 33.8382 31.057 33.8274 31.028 33.828ZM31.591 33.828C31.5763 33.8281 31.5618 33.8312 31.5482 33.8369C31.5347 33.8427 31.5224 33.851 31.5121 33.8615C31.5018 33.872 31.4936 33.8844 31.4881 33.8981C31.4826 33.9117 31.4799 33.9263 31.48 33.941C31.48 34.003 31.53 34.054 31.59 34.055C31.652 34.055 31.701 34.003 31.702 33.941V33.921C31.6979 33.8947 31.6844 33.8708 31.664 33.8537C31.6435 33.8366 31.6176 33.8274 31.591 33.828ZM32.153 33.828C32.1383 33.828 32.1237 33.8309 32.1101 33.8366C32.0965 33.8423 32.0841 33.8507 32.0738 33.8612C32.0635 33.8717 32.0553 33.8842 32.0499 33.8979C32.0444 33.9116 32.0417 33.9263 32.042 33.941C32.042 34.003 32.092 34.055 32.153 34.055C32.1831 34.0545 32.2118 34.0423 32.233 34.021C32.2543 33.9998 32.2665 33.9711 32.267 33.941V33.921C32.2622 33.8944 32.2481 33.8705 32.2272 33.8534C32.2063 33.8363 32.18 33.8273 32.153 33.828ZM32.716 33.828C32.7012 33.8279 32.6865 33.8307 32.6727 33.8363C32.659 33.842 32.6466 33.8503 32.6361 33.8609C32.6257 33.8714 32.6175 33.8839 32.612 33.8977C32.6064 33.9114 32.6037 33.9262 32.604 33.941C32.605 34.003 32.654 34.055 32.716 34.055C32.777 34.055 32.826 34.003 32.827 33.941V33.934C32.8255 33.9055 32.8131 33.8787 32.7925 33.859C32.7719 33.8393 32.7445 33.8282 32.716 33.828ZM33.278 33.828C33.2633 33.828 33.2487 33.8309 33.2351 33.8366C33.2215 33.8423 33.2091 33.8507 33.1988 33.8612C33.1885 33.8717 33.1803 33.8842 33.1749 33.8979C33.1694 33.9116 33.1667 33.9263 33.167 33.941C33.167 34.003 33.217 34.055 33.278 34.055C33.2935 34.0547 33.3088 34.0514 33.323 34.0451C33.3371 34.0389 33.3499 34.0298 33.3605 34.0186C33.3712 34.0073 33.3794 33.994 33.3848 33.9795C33.3902 33.9649 33.3927 33.9495 33.392 33.934C33.39 33.9052 33.3771 33.8782 33.3559 33.8585C33.3347 33.8388 33.3069 33.8279 33.278 33.828ZM33.841 33.828C33.8262 33.8279 33.8115 33.8307 33.7977 33.8363C33.784 33.842 33.7716 33.8503 33.7611 33.8609C33.7507 33.8714 33.7425 33.8839 33.737 33.8977C33.7314 33.9114 33.7287 33.9262 33.729 33.941C33.73 34.003 33.779 34.055 33.841 34.055C33.8564 34.0546 33.8716 34.0512 33.8856 34.0448C33.8997 34.0385 33.9124 34.0295 33.9229 34.0182C33.9334 34.0069 33.9416 33.9937 33.9469 33.9792C33.9523 33.9648 33.9547 33.9494 33.954 33.934C33.952 33.9053 33.9392 33.8785 33.9183 33.8589C33.8973 33.8392 33.8697 33.8282 33.841 33.828ZM34.401 33.828C34.3715 33.8285 34.3433 33.8407 34.3227 33.8619C34.3021 33.883 34.2907 33.9115 34.291 33.941C34.291 34.003 34.34 34.054 34.401 34.055C34.4312 34.055 34.4602 34.043 34.4816 34.0216C34.503 34.0002 34.515 33.9712 34.515 33.941V33.934C34.5135 33.905 34.5007 33.8777 34.4794 33.858C34.4582 33.8382 34.43 33.8274 34.401 33.828ZM17.032 35.051V35.053C16.9074 35.0549 16.7845 35.0815 16.6702 35.1311C16.5559 35.1807 16.4525 35.2523 16.366 35.342L14.558 37.199C14.4711 37.2882 14.4026 37.3937 14.3566 37.5094C14.3106 37.6251 14.2879 37.7488 14.2899 37.8734C14.2918 37.9979 14.3184 38.1208 14.368 38.235C14.4176 38.3493 14.4893 38.4526 14.579 38.539C14.668 38.6262 14.7734 38.695 14.8891 38.7412C15.0048 38.7875 15.1286 38.8103 15.2532 38.8085C15.3778 38.8066 15.5008 38.7801 15.6151 38.7304C15.7293 38.6807 15.8326 38.6088 15.919 38.519L17.728 36.66C17.8149 36.5707 17.8832 36.4652 17.9291 36.3494C17.9751 36.2337 17.9977 36.11 17.9956 35.9854C17.9936 35.8609 17.9669 35.738 17.9172 35.6238C17.8675 35.5096 17.7957 35.4064 17.706 35.32C17.617 35.2328 17.5116 35.1641 17.3959 35.1178C17.2803 35.0714 17.1566 35.0484 17.032 35.05V35.051ZM21.032 35.051V35.053C20.9074 35.0549 20.7845 35.0815 20.6702 35.1311C20.5559 35.1807 20.4525 35.2523 20.366 35.342L18.558 37.199C18.4711 37.2882 18.4026 37.3937 18.3566 37.5094C18.3106 37.6251 18.2879 37.7488 18.2899 37.8734C18.2918 37.9979 18.3184 38.1208 18.368 38.235C18.4176 38.3493 18.4893 38.4526 18.579 38.539C18.668 38.6262 18.7734 38.695 18.8891 38.7412C19.0048 38.7875 19.1286 38.8103 19.2532 38.8085C19.3778 38.8066 19.5008 38.7801 19.6151 38.7304C19.7293 38.6807 19.8326 38.6088 19.919 38.519L21.728 36.66C21.8149 36.5707 21.8832 36.4652 21.9291 36.3494C21.9751 36.2337 21.9977 36.11 21.9956 35.9854C21.9936 35.8609 21.9669 35.738 21.9172 35.6238C21.8675 35.5096 21.7957 35.4064 21.706 35.32C21.617 35.2328 21.5116 35.1641 21.3959 35.1178C21.2803 35.0714 21.1566 35.0484 21.032 35.05V35.051ZM25.032 35.051V35.053C24.9074 35.0549 24.7845 35.0815 24.6702 35.1311C24.5559 35.1807 24.4525 35.2523 24.366 35.342L22.558 37.199C22.4711 37.2882 22.4026 37.3937 22.3566 37.5094C22.3106 37.6251 22.2879 37.7488 22.2899 37.8734C22.2918 37.9979 22.3184 38.1208 22.368 38.235C22.4176 38.3493 22.4893 38.4526 22.579 38.539C22.668 38.6262 22.7734 38.695 22.8891 38.7412C23.0048 38.7875 23.1286 38.8103 23.2532 38.8085C23.3778 38.8066 23.5008 38.7801 23.6151 38.7304C23.7293 38.6807 23.8326 38.6088 23.919 38.519L25.728 36.66C25.8149 36.5707 25.8832 36.4652 25.9291 36.3494C25.9751 36.2337 25.9977 36.11 25.9956 35.9854C25.9936 35.8609 25.9669 35.738 25.9172 35.6238C25.8675 35.5096 25.7957 35.4064 25.706 35.32C25.617 35.2328 25.5116 35.1641 25.3959 35.1178C25.2803 35.0714 25.1566 35.0484 25.032 35.05V35.051ZM29.032 35.051V35.053C28.9074 35.0549 28.7845 35.0815 28.6702 35.1311C28.5559 35.1807 28.4525 35.2523 28.366 35.342L26.558 37.199C26.4711 37.2882 26.4026 37.3937 26.3566 37.5094C26.3106 37.6251 26.2879 37.7488 26.2899 37.8734C26.2918 37.9979 26.3184 38.1208 26.368 38.235C26.4176 38.3493 26.4893 38.4526 26.579 38.539C26.668 38.6262 26.7734 38.695 26.8891 38.7412C27.0048 38.7875 27.1286 38.8103 27.2532 38.8085C27.3778 38.8066 27.5008 38.7801 27.6151 38.7304C27.7293 38.6807 27.8326 38.6088 27.919 38.519L29.728 36.66C29.8149 36.5707 29.8832 36.4652 29.9291 36.3494C29.9751 36.2337 29.9977 36.11 29.9956 35.9854C29.9936 35.8609 29.9669 35.738 29.9172 35.6238C29.8675 35.5096 29.7957 35.4064 29.706 35.32C29.617 35.2328 29.5116 35.1641 29.3959 35.1178C29.2803 35.0714 29.1566 35.0484 29.032 35.05V35.051ZM32.751 35.066C32.6264 35.0681 32.5034 35.0948 32.3891 35.1445C32.2748 35.1943 32.1714 35.2662 32.085 35.356L30.276 37.213C30.1891 37.3023 30.1208 37.4078 30.0749 37.5236C30.0289 37.6393 30.0063 37.763 30.0084 37.8876C30.0104 38.0121 30.0371 38.135 30.0868 38.2492C30.1365 38.3634 30.2083 38.4666 30.298 38.553C30.3869 38.6404 30.4922 38.7092 30.6078 38.7557C30.7235 38.8021 30.8472 38.8251 30.9718 38.8234C31.0964 38.8218 31.2194 38.7954 31.3337 38.7459C31.4481 38.6964 31.5515 38.6247 31.638 38.535L33.446 36.675C33.5329 36.5858 33.6014 36.4803 33.6474 36.3646C33.6934 36.2489 33.7161 36.1252 33.7141 36.0006C33.7122 35.8761 33.6856 35.7532 33.636 35.639C33.5864 35.5247 33.5147 35.4214 33.425 35.335C33.3359 35.248 33.2305 35.1794 33.1148 35.1332C32.9992 35.0871 32.8755 35.0642 32.751 35.066Z" fill="#333333"/>
</svg>
