<svg width="48" height="48" viewBox="0 0 48 48" fill="none" xmlns="http://www.w3.org/2000/svg">
<g clip-path="url(#clip0)">
<path fill-rule="evenodd" clip-rule="evenodd" d="M-0.0878906 0.09375V48.0937H47.9121V0.09375H-0.0878906ZM14.0586 4.09375H33.7637C34.6331 4.09375 35.332 4.79267 35.332 5.66211V42.5234C35.332 43.3929 34.6331 44.0937 33.7637 44.0937H14.0586C13.1892 44.0937 12.4902 43.3929 12.4902 42.5234V5.66211C12.4902 4.79267 13.1892 4.09375 14.0586 4.09375ZM21.209 10.4043C20.3253 10.4043 19.6094 11.1203 19.6094 12.0039C19.6094 12.8876 20.3253 13.6035 21.209 13.6035C22.0926 13.6035 22.8085 12.8876 22.8086 12.0039C22.8085 11.1203 22.0926 10.4043 21.209 10.4043ZM26.6152 10.4043C25.7316 10.4043 25.0157 11.1203 25.0156 12.0039C25.0157 12.8876 25.7316 13.6035 26.6152 13.6035C27.4988 13.6035 28.2148 12.8876 28.2148 12.0039C28.2148 11.1203 27.4988 10.4043 26.6152 10.4043ZM21.209 14.459C20.3253 14.4591 19.6094 15.175 19.6094 16.0586C19.6094 16.9422 20.3253 17.6582 21.209 17.6582C22.0926 17.6582 22.8085 16.9422 22.8086 16.0586C22.8085 15.175 22.0926 14.4591 21.209 14.459ZM26.6152 14.459C25.7316 14.4591 25.0157 15.175 25.0156 16.0586C25.0157 16.9422 25.7316 17.6582 26.6152 17.6582C27.4988 17.6582 28.2148 16.9422 28.2148 16.0586C28.2148 15.175 27.4988 14.4591 26.6152 14.459ZM14.0703 23.9785C14.0083 23.9793 13.9586 24.0314 13.959 24.0937C13.9595 24.155 14.0087 24.2067 14.0703 24.207C14.1315 24.2067 14.1828 24.155 14.1836 24.0937C14.1842 24.0862 14.1842 24.0818 14.1836 24.0742C14.176 24.0198 14.1255 23.9801 14.0703 23.9805V23.9785ZM14.6328 23.9785C14.5701 23.9781 14.5211 24.031 14.5215 24.0937C14.522 24.1557 14.5708 24.2078 14.6328 24.207C14.694 24.2067 14.7453 24.155 14.7461 24.0937C14.7467 24.0862 14.7467 24.0818 14.7461 24.0742C14.7385 24.0198 14.688 23.9801 14.6328 23.9805V23.9785ZM18.5684 23.9785C18.5064 23.9793 18.4563 24.0314 18.457 24.0937C18.4575 24.155 18.5071 24.2067 18.5684 24.207C18.6296 24.2067 18.6809 24.155 18.6816 24.0937C18.6822 24.0862 18.6822 24.0818 18.6816 24.0742C18.674 24.0198 18.6235 23.9801 18.5684 23.9805V23.9785ZM23.0664 23.9785C23.0044 23.9793 22.9547 24.0314 22.9551 24.0937C22.9556 24.155 23.0048 24.2067 23.0664 24.207C23.1276 24.2067 23.1793 24.155 23.1797 24.0937C23.1803 24.0862 23.1803 24.0818 23.1797 24.0742C23.1721 24.0198 23.1212 23.9801 23.0664 23.9805V23.9785ZM23.6289 23.9785C23.5662 23.9781 23.5152 24.031 23.5156 24.0937C23.5161 24.1557 23.5669 24.2078 23.6289 24.207C23.6901 24.2067 23.7414 24.155 23.7422 24.0937C23.7428 24.0862 23.7428 24.0818 23.7422 24.0742C23.7346 24.0198 23.6841 23.9801 23.6289 23.9805V23.9785ZM27.5645 23.9785C27.5025 23.9793 27.4524 24.0314 27.4531 24.0937C27.4536 24.155 27.5032 24.2067 27.5645 24.207C27.6257 24.2067 27.677 24.155 27.6777 24.0937C27.6783 24.0862 27.6783 24.0818 27.6777 24.0742C27.6701 24.0198 27.6196 23.9801 27.5645 23.9805V23.9785ZM31.5 23.9785C31.438 23.9793 31.3899 24.0314 31.3906 24.0937C31.3911 24.155 31.4388 24.2067 31.5 24.207C31.5612 24.2067 31.6125 24.155 31.6133 24.0937C31.6138 24.0862 31.6138 24.0818 31.6133 24.0742C31.6057 24.0198 31.5552 23.9801 31.5 23.9805V23.9785ZM32.0625 23.9785C31.9998 23.9781 31.9508 24.031 31.9512 24.0937C31.9517 24.1557 32.0005 24.2078 32.0625 24.207C32.1237 24.2067 32.175 24.155 32.1758 24.0937C32.1763 24.0862 32.1763 24.0818 32.1758 24.0742C32.1682 24.0198 32.1177 23.9801 32.0625 23.9805V23.9785ZM13.5078 23.9805C13.4458 23.9812 13.3961 24.0314 13.3965 24.0937C13.397 24.155 13.4462 24.2063 13.5078 24.207C13.5698 24.2074 13.6203 24.1561 13.6211 24.0937C13.6217 24.031 13.5706 23.9801 13.5078 23.9805ZM15.1953 23.9805C15.1326 23.9801 15.0836 24.031 15.084 24.0937C15.0845 24.1557 15.1333 24.2078 15.1953 24.207C15.2565 24.2067 15.3078 24.155 15.3086 24.0937C15.3087 24.09 15.3087 24.0897 15.3086 24.0859C15.305 24.027 15.2547 23.9808 15.1953 23.9805ZM15.7578 23.9805C15.6951 23.9801 15.6461 24.031 15.6465 24.0937C15.647 24.1557 15.6958 24.2078 15.7578 24.207C15.819 24.2067 15.8684 24.155 15.8691 24.0937C15.8692 24.09 15.8692 24.0897 15.8691 24.0859C15.8655 24.027 15.8171 23.9808 15.7578 23.9805ZM16.3203 23.9805C16.2576 23.9801 16.2086 24.031 16.209 24.0937C16.2095 24.1557 16.2583 24.2078 16.3203 24.207C16.3815 24.2067 16.4328 24.155 16.4336 24.0937C16.4337 24.09 16.4337 24.0897 16.4336 24.0859C16.43 24.027 16.3797 23.9808 16.3203 23.9805ZM16.8809 23.9805C16.8189 23.9812 16.7692 24.0314 16.7695 24.0937C16.77 24.155 16.8193 24.2067 16.8809 24.207C16.9428 24.2074 16.9934 24.1557 16.9941 24.0937C16.9943 24.09 16.9943 24.0897 16.9941 24.0859C16.9905 24.0262 16.9409 23.9797 16.8809 23.9805ZM17.4434 23.9805C17.3814 23.9812 17.3317 24.0314 17.332 24.0937C17.3325 24.155 17.3818 24.2067 17.4434 24.207C17.5053 24.2074 17.5559 24.1557 17.5566 24.0937C17.5568 24.09 17.5568 24.0897 17.5566 24.0859C17.553 24.0262 17.5034 23.9797 17.4434 23.9805ZM18.0059 23.9805C17.9439 23.9812 17.8942 24.0314 17.8945 24.0937C17.895 24.155 17.9443 24.2067 18.0059 24.207C18.0678 24.2074 18.1184 24.1557 18.1191 24.0937C18.1192 24.09 18.1192 24.0897 18.1191 24.0859C18.1155 24.0262 18.0659 23.9797 18.0059 23.9805ZM19.1309 23.9805C19.0681 23.9801 19.0192 24.031 19.0195 24.0937C19.02 24.1557 19.0689 24.2078 19.1309 24.207C19.1921 24.2067 19.2434 24.155 19.2441 24.0937C19.2442 24.09 19.2442 24.0897 19.2441 24.0859C19.2405 24.027 19.1902 23.9808 19.1309 23.9805ZM19.6934 23.9805C19.6306 23.9801 19.5817 24.031 19.582 24.0937C19.5825 24.1557 19.6314 24.2078 19.6934 24.207C19.7546 24.2067 19.8059 24.155 19.8066 24.0937C19.8067 24.09 19.8067 24.0897 19.8066 24.0859C19.803 24.027 19.7527 23.9808 19.6934 23.9805ZM20.2559 23.9805C20.1931 23.9801 20.1442 24.031 20.1445 24.0937C20.145 24.1557 20.1939 24.2078 20.2559 24.207C20.3171 24.2067 20.3684 24.155 20.3691 24.0937C20.3692 24.09 20.3692 24.0897 20.3691 24.0859C20.3655 24.027 20.3152 23.9808 20.2559 23.9805ZM20.8184 23.9805C20.7556 23.9801 20.7067 24.031 20.707 24.0937C20.7075 24.1557 20.7564 24.2078 20.8184 24.207C20.8796 24.2067 20.9309 24.155 20.9316 24.0937C20.9318 24.09 20.9318 24.0897 20.9316 24.0859C20.928 24.027 20.8777 23.9808 20.8184 23.9805ZM21.3789 23.9805C21.3169 23.9812 21.2672 24.0314 21.2676 24.0937C21.2681 24.155 21.3173 24.2067 21.3789 24.207C21.4409 24.2074 21.4914 24.1557 21.4922 24.0937C21.4923 24.09 21.4923 24.0897 21.4922 24.0859C21.4886 24.0262 21.439 23.9797 21.3789 23.9805ZM21.9414 23.9805C21.8794 23.9812 21.8297 24.0314 21.8301 24.0937C21.8306 24.155 21.8798 24.2067 21.9414 24.207C22.0034 24.2074 22.0539 24.1557 22.0547 24.0937C22.0548 24.09 22.0548 24.0897 22.0547 24.0859C22.0511 24.0262 22.0015 23.9797 21.9414 23.9805ZM22.5039 23.9805C22.4419 23.9812 22.3942 24.0314 22.3945 24.0937C22.395 24.155 22.4423 24.2063 22.5039 24.207C22.5659 24.2074 22.6164 24.1561 22.6172 24.0937C22.6178 24.031 22.5666 23.9801 22.5039 23.9805ZM24.1914 23.9805C24.1287 23.9801 24.0777 24.031 24.0781 24.0937C24.0786 24.1557 24.1294 24.2078 24.1914 24.207C24.2526 24.2067 24.3039 24.155 24.3047 24.0937C24.3048 24.09 24.3048 24.0897 24.3047 24.0859C24.3011 24.027 24.2507 23.9808 24.1914 23.9805ZM24.7539 23.9805C24.6912 23.9801 24.6422 24.031 24.6426 24.0937C24.6431 24.1557 24.6919 24.2078 24.7539 24.207C24.8151 24.2067 24.8664 24.155 24.8672 24.0937C24.8673 24.09 24.8673 24.0897 24.8672 24.0859C24.8636 24.027 24.8132 23.9808 24.7539 23.9805ZM25.3145 23.9805C25.2525 23.9812 25.2024 24.0314 25.2031 24.0937C25.2036 24.155 25.2532 24.2067 25.3145 24.207C25.3764 24.2074 25.4289 24.1557 25.4297 24.0937C25.4298 24.09 25.4298 24.0897 25.4297 24.0859C25.4261 24.0262 25.3745 23.9797 25.3145 23.9805ZM25.877 23.9805C25.815 23.9812 25.7653 24.0314 25.7656 24.0937C25.7661 24.155 25.8153 24.2067 25.877 24.207C25.9389 24.2074 25.9914 24.1557 25.9922 24.0937C25.9923 24.09 25.9923 24.0897 25.9922 24.0859C25.9886 24.0262 25.937 23.9797 25.877 23.9805ZM26.4395 23.9805C26.3775 23.9812 26.3277 24.0314 26.3281 24.0937C26.3286 24.155 26.3778 24.2067 26.4395 24.207C26.5014 24.2074 26.5539 24.1557 26.5547 24.0937C26.5548 24.09 26.5548 24.0897 26.5547 24.0859C26.5511 24.0262 26.4995 23.9797 26.4395 23.9805ZM27.002 23.9805C26.94 23.9812 26.8903 24.0314 26.8906 24.0937C26.8911 24.155 26.9403 24.2063 27.002 24.207C27.0639 24.2074 27.1164 24.1561 27.1172 24.0937C27.1178 24.031 27.0647 23.9801 27.002 23.9805ZM28.127 23.9805C28.0642 23.9801 28.0133 24.031 28.0137 24.0937C28.0142 24.1557 28.065 24.2078 28.127 24.207C28.1882 24.2067 28.2395 24.155 28.2402 24.0937C28.2403 24.09 28.2403 24.0897 28.2402 24.0859C28.2366 24.027 28.1863 23.9808 28.127 23.9805ZM28.6895 23.9805C28.6267 23.9801 28.5758 24.031 28.5762 24.0937C28.5767 24.1557 28.6275 24.2078 28.6895 24.207C28.7507 24.2067 28.802 24.155 28.8027 24.0937C28.8028 24.09 28.8028 24.0897 28.8027 24.0859C28.7991 24.027 28.7488 23.9808 28.6895 23.9805ZM29.252 23.9805C29.1892 23.9801 29.1402 24.031 29.1406 24.0937C29.1411 24.1557 29.19 24.2078 29.252 24.207C29.3132 24.2067 29.3645 24.155 29.3652 24.0937C29.3653 24.09 29.3653 24.0897 29.3652 24.0859C29.3616 24.027 29.3113 23.9808 29.252 23.9805ZM29.8125 23.9805C29.7505 23.9812 29.7008 24.0314 29.7012 24.0937C29.7017 24.155 29.7509 24.2067 29.8125 24.207C29.8745 24.2074 29.925 24.1557 29.9258 24.0937C29.9259 24.09 29.9259 24.0897 29.9258 24.0859C29.9222 24.0262 29.8726 23.9797 29.8125 23.9805ZM30.375 23.9805C30.313 23.9812 30.2652 24.0314 30.2656 24.0937C30.2661 24.155 30.3134 24.2067 30.375 24.207C30.437 24.2074 30.4895 24.1557 30.4902 24.0937C30.4903 24.09 30.4903 24.0897 30.4902 24.0859C30.4866 24.0262 30.4351 23.9797 30.375 23.9805ZM30.9375 23.9805C30.8755 23.9812 30.8258 24.0314 30.8262 24.0937C30.8267 24.155 30.8759 24.2067 30.9375 24.207C30.9995 24.2074 31.05 24.1557 31.0508 24.0937C31.0509 24.09 31.0509 24.0897 31.0508 24.0859C31.0472 24.0262 30.9976 23.9797 30.9375 23.9805ZM32.625 23.9805C32.5623 23.9801 32.5133 24.031 32.5137 24.0937C32.5142 24.1557 32.563 24.2078 32.625 24.207C32.6862 24.2067 32.7375 24.155 32.7383 24.0937C32.7383 24.09 32.7383 24.0897 32.7383 24.0859C32.7347 24.027 32.6843 23.9808 32.625 23.9805ZM33.1875 23.9805C33.1248 23.9801 33.0738 24.031 33.0742 24.0937C33.0747 24.1557 33.1255 24.2078 33.1875 24.207C33.2487 24.2067 33.3004 24.155 33.3008 24.0937C33.3009 24.09 33.3009 24.0897 33.3008 24.0859C33.2972 24.027 33.2465 23.9808 33.1875 23.9805ZM33.75 23.9805C33.6873 23.9801 33.6363 24.031 33.6367 24.0937C33.6372 24.1557 33.688 24.2078 33.75 24.207C33.8112 24.2067 33.8629 24.155 33.8633 24.0937C33.8634 24.09 33.8634 24.0897 33.8633 24.0859C33.8597 24.027 33.809 23.9808 33.75 23.9805ZM34.3105 23.9805C34.2486 23.9812 34.2008 24.0314 34.2012 24.0937C34.2017 24.155 34.2489 24.2067 34.3105 24.207C34.3725 24.2074 34.425 24.1557 34.4258 24.0937C34.4258 24.09 34.4258 24.0897 34.4258 24.0859C34.4222 24.0262 34.3706 23.9797 34.3105 23.9805ZM21.209 30.5293C20.3253 30.5293 19.6094 31.2453 19.6094 32.1289C19.6094 33.0126 20.3253 33.7285 21.209 33.7285C22.0926 33.7285 22.8086 33.0126 22.8086 32.1289C22.8086 31.2453 22.0926 30.5293 21.209 30.5293ZM26.6152 30.5293C25.7316 30.5293 25.0157 31.2453 25.0156 32.1289C25.0157 33.0126 25.7316 33.7285 26.6152 33.7285C27.4988 33.7285 28.2148 33.0126 28.2148 32.1289C28.2148 31.2453 27.4988 30.5293 26.6152 30.5293ZM21.209 34.584C20.3253 34.584 19.6094 35.3 19.6094 36.1836C19.6094 37.0672 20.3253 37.7832 21.209 37.7832C22.0926 37.7832 22.8086 37.0672 22.8086 36.1836C22.8086 35.3 22.0926 34.584 21.209 34.584ZM26.6152 34.584C25.7316 34.584 25.0157 35.3 25.0156 36.1836C25.0157 37.0672 25.7316 37.7832 26.6152 37.7832C27.4988 37.7832 28.2148 37.0672 28.2148 36.1836C28.2148 35.3 27.4988 34.584 26.6152 34.584Z" fill="#333333"/>
<path d="M13.7949 23.9805C13.7329 23.981 13.6832 24.0314 13.6836 24.0938C13.6841 24.155 13.7333 24.2063 13.7949 24.207C13.8569 24.2076 13.9074 24.1561 13.9082 24.0938C13.9088 24.031 13.8577 23.9801 13.7949 23.9805ZM14.3574 23.9805C14.2954 23.981 14.2438 24.0314 14.2441 24.0938C14.2446 24.155 14.2958 24.2067 14.3574 24.207C14.4187 24.2066 14.468 24.155 14.4688 24.0938C14.4693 24.0862 14.4693 24.0837 14.4688 24.0762C14.4612 24.0218 14.4126 23.982 14.3574 23.9824V23.9805ZM14.9199 23.9805C14.8572 23.9799 14.8063 24.031 14.8066 24.0938C14.8071 24.1557 14.8579 24.2078 14.9199 24.207C14.9812 24.2066 15.0305 24.155 15.0313 24.0938C15.0318 24.0862 15.0318 24.0837 15.0313 24.0762C15.0237 24.0218 14.9751 23.982 14.9199 23.9824V23.9805ZM15.4824 23.9805C15.4197 23.9799 15.3688 24.031 15.3691 24.0938C15.3696 24.1557 15.4204 24.2078 15.4824 24.207C15.5437 24.2066 15.593 24.155 15.5938 24.0938C15.5938 24.0912 15.5938 24.0917 15.5938 24.0879C15.5902 24.0289 15.5418 23.9828 15.4824 23.9824V23.9805ZM16.0449 23.9805C15.9822 23.9799 15.9313 24.031 15.9316 24.0938C15.9321 24.1557 15.9829 24.2078 16.0449 24.207C16.1062 24.2066 16.1555 24.155 16.1563 24.0938C16.1563 24.0912 16.1563 24.0917 16.1563 24.0879C16.1527 24.0289 16.1043 23.9828 16.0449 23.9824V23.9805ZM16.6074 23.9805C16.5447 23.9799 16.4938 24.031 16.4941 24.0938C16.4946 24.1557 16.5454 24.2078 16.6074 24.207C16.6687 24.2066 16.718 24.155 16.7188 24.0938C16.7188 24.0912 16.7188 24.0917 16.7188 24.0879C16.7152 24.0289 16.6668 23.9828 16.6074 23.9824V23.9805ZM17.168 23.9805C17.106 23.981 17.0563 24.0314 17.0566 24.0938C17.0571 24.155 17.1064 24.2067 17.168 24.207C17.23 24.2076 17.2805 24.1557 17.2813 24.0938C17.2814 24.0912 17.2814 24.0917 17.2813 24.0879C17.2777 24.0281 17.2281 23.9816 17.168 23.9824V23.9805ZM17.7305 23.9805C17.6685 23.981 17.6188 24.0314 17.6191 24.0938C17.6196 24.155 17.6689 24.2067 17.7305 24.207C17.7925 24.2076 17.843 24.1557 17.8438 24.0938C17.8439 24.0912 17.8439 24.0917 17.8438 24.0879C17.8402 24.0281 17.7906 23.9816 17.7305 23.9824V23.9805ZM18.293 23.9805C18.231 23.981 18.1813 24.0314 18.1816 24.0938C18.1821 24.155 18.2314 24.2067 18.293 24.207C18.355 24.2076 18.4055 24.1557 18.4063 24.0938C18.4063 24.0912 18.4063 24.0917 18.4063 24.0879C18.4027 24.0281 18.3531 23.9816 18.293 23.9824V23.9805ZM18.8555 23.9805C18.7935 23.981 18.7434 24.0314 18.7441 24.0938C18.7446 24.155 18.7942 24.2067 18.8555 24.207C18.9167 24.2066 18.966 24.155 18.9668 24.0938C18.9674 24.0862 18.9674 24.0837 18.9668 24.0762C18.9592 24.0218 18.9106 23.982 18.8555 23.9824V23.9805ZM19.418 23.9805C19.3552 23.9799 19.3043 24.031 19.3047 24.0938C19.3052 24.1557 19.356 24.2078 19.418 24.207C19.4792 24.2066 19.5285 24.155 19.5293 24.0938C19.5294 24.0912 19.5294 24.0917 19.5293 24.0879C19.5257 24.0289 19.4773 23.9828 19.418 23.9824V23.9805ZM19.9805 23.9805C19.9177 23.9799 19.8668 24.031 19.8672 24.0938C19.8677 24.1557 19.9185 24.2078 19.9805 24.207C20.0417 24.2066 20.091 24.155 20.0918 24.0938C20.0919 24.0912 20.0919 24.0917 20.0918 24.0879C20.0882 24.0289 20.0398 23.9828 19.9805 23.9824V23.9805ZM20.543 23.9805C20.4802 23.9799 20.4293 24.031 20.4297 24.0938C20.4302 24.1557 20.481 24.2078 20.543 24.207C20.6042 24.2066 20.6535 24.155 20.6543 24.0938C20.6544 24.0912 20.6544 24.0917 20.6543 24.0879C20.6507 24.0289 20.6023 23.9828 20.543 23.9824V23.9805ZM21.1055 23.9805C21.0427 23.9799 20.9918 24.031 20.9922 24.0938C20.9927 24.1557 21.0435 24.2078 21.1055 24.207C21.1667 24.2066 21.216 24.155 21.2168 24.0938C21.2169 24.0912 21.2169 24.0917 21.2168 24.0879C21.2132 24.0289 21.1648 23.9828 21.1055 23.9824V23.9805ZM21.666 23.9805C21.604 23.981 21.5543 24.0314 21.5547 24.0938C21.5552 24.155 21.6044 24.2067 21.666 24.207C21.728 24.2076 21.7785 24.1557 21.7793 24.0938C21.7794 24.0912 21.7794 24.0917 21.7793 24.0879C21.7757 24.0281 21.7261 23.9816 21.666 23.9824V23.9805ZM22.2285 23.9805C22.1665 23.981 22.1168 24.0314 22.1172 24.0938C22.1177 24.155 22.1669 24.2067 22.2285 24.207C22.2905 24.2076 22.341 24.1557 22.3418 24.0938C22.3419 24.0912 22.3419 24.0917 22.3418 24.0879C22.3382 24.0281 22.2886 23.9816 22.2285 23.9824V23.9805ZM22.791 23.9805C22.729 23.981 22.6793 24.0314 22.6797 24.0938C22.6802 24.155 22.7294 24.2063 22.791 24.207C22.853 24.2076 22.9035 24.1561 22.9043 24.0938C22.9049 24.031 22.8538 23.9801 22.791 23.9805ZM23.3535 23.9805C23.2915 23.981 23.2418 24.0314 23.2422 24.0938C23.2427 24.155 23.2919 24.2067 23.3535 24.207C23.4147 24.2066 23.4645 24.155 23.4648 24.0938C23.4654 24.0862 23.4654 24.0837 23.4648 24.0762C23.4572 24.0218 23.4083 23.982 23.3535 23.9824V23.9805ZM23.916 23.9805C23.8533 23.9799 23.8024 24.031 23.8027 24.0938C23.8032 24.1557 23.854 24.2078 23.916 24.207C23.9772 24.2066 24.0266 24.155 24.0273 24.0938C24.0279 24.0862 24.0279 24.0837 24.0273 24.0762C24.0197 24.0218 23.9712 23.982 23.916 23.9824V23.9805ZM24.4785 23.9805C24.4158 23.9799 24.3649 24.031 24.3652 24.0938C24.3657 24.1557 24.4165 24.2078 24.4785 24.207C24.5397 24.2066 24.5891 24.155 24.5898 24.0938C24.5899 24.0912 24.5899 24.0917 24.5898 24.0879C24.5862 24.0289 24.5379 23.9828 24.4785 23.9824V23.9805ZM25.041 23.9805C24.9783 23.9799 24.9274 24.031 24.9277 24.0938C24.9282 24.1557 24.979 24.2078 25.041 24.207C25.1022 24.2066 25.1516 24.155 25.1523 24.0938C25.1525 24.0912 25.1525 24.0917 25.1523 24.0879C25.1487 24.0289 25.1004 23.9828 25.041 23.9824V23.9805ZM25.6016 23.9805C25.5396 23.981 25.4895 24.0314 25.4902 24.0938C25.4907 24.155 25.5403 24.2067 25.6016 24.207C25.6635 24.2076 25.7141 24.1557 25.7148 24.0938C25.715 24.0912 25.715 24.0917 25.7148 24.0879C25.7112 24.0281 25.6617 23.9816 25.6016 23.9824V23.9805ZM26.1641 23.9805C26.1021 23.981 26.0524 24.0314 26.0527 24.0938C26.0532 24.155 26.1025 24.2067 26.1641 24.207C26.226 24.2076 26.2766 24.1557 26.2773 24.0938C26.2774 24.0912 26.2774 24.0917 26.2773 24.0879C26.2737 24.0281 26.2242 23.9816 26.1641 23.9824V23.9805ZM26.7266 23.9805C26.6646 23.981 26.6149 24.0314 26.6152 24.0938C26.6157 24.155 26.665 24.2067 26.7266 24.207C26.7885 24.2076 26.8391 24.1557 26.8398 24.0938C26.8399 24.0912 26.8399 24.0917 26.8398 24.0879C26.8362 24.0281 26.7867 23.9816 26.7266 23.9824V23.9805ZM27.2891 23.9805C27.2271 23.981 27.1774 24.0314 27.1777 24.0938C27.1782 24.155 27.2275 24.2063 27.2891 24.207C27.351 24.2076 27.4016 24.1561 27.4023 24.0938C27.4029 24.031 27.3518 23.9801 27.2891 23.9805ZM27.8516 23.9805C27.7896 23.981 27.7395 24.0314 27.7402 24.0938C27.7407 24.155 27.7903 24.2067 27.8516 24.207C27.9128 24.2066 27.9621 24.155 27.9629 24.0938C27.9635 24.0862 27.9635 24.0837 27.9629 24.0762C27.9553 24.0218 27.9067 23.982 27.8516 23.9824V23.9805ZM28.4141 23.9805C28.3513 23.9799 28.3004 24.031 28.3008 24.0938C28.3013 24.1557 28.3521 24.2078 28.4141 24.207C28.4753 24.2066 28.5246 24.155 28.5254 24.0938C28.5255 24.0912 28.5255 24.0917 28.5254 24.0879C28.5218 24.0289 28.4734 23.9828 28.4141 23.9824V23.9805ZM28.9766 23.9805C28.9138 23.9799 28.8629 24.031 28.8633 24.0938C28.8638 24.1557 28.9146 24.2078 28.9766 24.207C29.0378 24.2066 29.0871 24.155 29.0879 24.0938C29.088 24.0912 29.088 24.0917 29.0879 24.0879C29.0843 24.0289 29.0359 23.9828 28.9766 23.9824V23.9805ZM29.5391 23.9805C29.4763 23.9799 29.4254 24.031 29.4258 24.0938C29.4263 24.1557 29.4771 24.2078 29.5391 24.207C29.6003 24.2066 29.6496 24.155 29.6504 24.0938C29.6505 24.0912 29.6505 24.0917 29.6504 24.0879C29.6468 24.0289 29.5984 23.9828 29.5391 23.9824V23.9805ZM30.0996 23.9805C30.0376 23.981 29.9879 24.0314 29.9883 24.0938C29.9888 24.155 30.038 24.2067 30.0996 24.207C30.1616 24.2076 30.2121 24.1557 30.2129 24.0938C30.213 24.0912 30.213 24.0917 30.2129 24.0879C30.2093 24.0281 30.1597 23.9816 30.0996 23.9824V23.9805ZM30.6621 23.9805C30.6001 23.981 30.5504 24.0314 30.5508 24.0938C30.5513 24.155 30.6005 24.2067 30.6621 24.207C30.7241 24.2076 30.7746 24.1557 30.7754 24.0938C30.7755 24.0912 30.7755 24.0917 30.7754 24.0879C30.7718 24.0281 30.7222 23.9816 30.6621 23.9824V23.9805ZM31.2246 23.9805C31.1626 23.981 31.1129 24.0314 31.1133 24.0938C31.1138 24.155 31.163 24.2067 31.2246 24.207C31.2866 24.2076 31.3371 24.1557 31.3379 24.0938C31.338 24.0912 31.338 24.0917 31.3379 24.0879C31.3343 24.0281 31.2847 23.9816 31.2246 23.9824V23.9805ZM31.7871 23.9805C31.7251 23.981 31.675 24.0314 31.6758 24.0938C31.6763 24.155 31.7259 24.2067 31.7871 24.207C31.8483 24.2066 31.8977 24.155 31.8984 24.0938C31.899 24.0862 31.899 24.0837 31.8984 24.0762C31.8908 24.0218 31.8423 23.982 31.7871 23.9824V23.9805ZM32.3496 23.9805C32.2869 23.9799 32.236 24.031 32.2363 24.0938C32.2368 24.1557 32.2876 24.2078 32.3496 24.207C32.4108 24.2066 32.4602 24.155 32.4609 24.0938C32.4615 24.0862 32.4615 24.0837 32.4609 24.0762C32.4533 24.0218 32.4048 23.982 32.3496 23.9824V23.9805ZM32.9121 23.9805C32.8494 23.9799 32.7985 24.031 32.7988 24.0938C32.7993 24.1557 32.8501 24.2078 32.9121 24.207C32.9733 24.2066 33.0227 24.155 33.0234 24.0938C33.0235 24.0912 33.0235 24.0917 33.0234 24.0879C33.0198 24.0289 32.9714 23.9828 32.9121 23.9824V23.9805ZM33.4746 23.9805C33.4119 23.9799 33.361 24.031 33.3613 24.0938C33.3618 24.1557 33.4126 24.2078 33.4746 24.207C33.5358 24.2066 33.5856 24.155 33.5859 24.0938C33.586 24.0912 33.586 24.0917 33.5859 24.0879C33.5823 24.0289 33.5336 23.9828 33.4746 23.9824V23.9805ZM34.0371 23.9805C33.9744 23.9799 33.9235 24.031 33.9238 24.0938C33.9243 24.1557 33.9751 24.2078 34.0371 24.207C34.0983 24.2066 34.1481 24.155 34.1484 24.0938C34.1485 24.0912 34.1485 24.0917 34.1484 24.0879C34.1448 24.0289 34.0961 23.9828 34.0371 23.9824V23.9805ZM34.5977 23.9805C34.5357 23.981 34.486 24.0314 34.4863 24.0938C34.4868 24.155 34.536 24.2067 34.5977 24.207C34.6596 24.2076 34.7102 24.1557 34.7109 24.0938C34.711 24.0912 34.711 24.0917 34.7109 24.0879C34.7073 24.0281 34.6577 23.9816 34.5977 23.9824V23.9805Z" fill="#333333"/>
</g>
<defs>
<clipPath id="clip0">
<rect width="48" height="48" fill="white"/>
</clipPath>
</defs>
</svg>
