<svg width="48" height="48" viewBox="0 0 48 48" fill="none" xmlns="http://www.w3.org/2000/svg">
<path d="M23.9922 4.06451C23.953 4.06687 23.9264 4.09293 23.9082 4.12506H14.1465C13.277 4.12506 12.5801 4.82397 12.5801 5.69342V42.5547C12.5801 43.4242 13.277 44.1251 14.1465 44.1251H33.8516C34.721 44.1251 35.4199 43.4242 35.4199 42.5547V5.69342C35.4199 4.82397 34.721 4.12506 33.8516 4.12506H24.0918C24.0726 4.09137 24.0414 4.06502 24 4.06451C23.9974 4.06443 23.996 4.06443 23.9922 4.06451ZM14.5801 4.62506H33.418C34.2493 4.62506 34.9199 5.30668 34.9199 6.15435V42.0938C34.9199 42.9415 34.2493 43.6251 33.418 43.6251H14.5801C13.7488 43.6251 13.0801 42.9415 13.0801 42.0938V6.15435C13.0801 5.30668 13.7488 4.62506 14.5801 4.62506ZM23.9922 4.62701C23.9332 4.63056 23.8871 4.679 23.8867 4.73834C23.8861 4.80108 23.9373 4.852 24 4.85162C24.062 4.85113 24.1121 4.80032 24.1113 4.73834C24.1109 4.67711 24.0612 4.62777 24 4.62701C23.9974 4.62693 23.996 4.62693 23.9922 4.62701ZM23.9922 5.18951C23.9332 5.19306 23.8871 5.24188 23.8867 5.30084C23.8861 5.36358 23.9373 5.4145 24 5.41412C24.062 5.41363 24.1121 5.36282 24.1113 5.30084C24.1109 5.23961 24.0612 5.19027 24 5.18951C23.9974 5.18943 23.996 5.18943 23.9922 5.18951ZM23.9824 5.75201C23.928 5.75957 23.8863 5.80816 23.8867 5.86334C23.8872 5.92532 23.9376 5.97504 24 5.97467C24.0612 5.97417 24.1109 5.92494 24.1113 5.86334C24.1109 5.80211 24.0612 5.75277 24 5.75201C23.9924 5.75144 23.9919 5.75144 23.9844 5.75201H23.9824ZM19.9102 6.2149V6.21685C19.668 6.22018 19.4272 6.3177 19.2441 6.50592L17.4355 8.36334C17.0694 8.7394 17.0767 9.33706 17.4531 9.70318C17.8294 10.0694 18.4268 10.059 18.793 9.68365L20.6016 7.82428C20.9677 7.44783 20.9604 6.85055 20.584 6.48443C20.3958 6.3015 20.1524 6.2115 19.9102 6.2149ZM24.002 6.31256C23.9392 6.31195 23.8883 6.3631 23.8887 6.42584C23.8892 6.48782 23.9396 6.53792 24.002 6.53717C24.0632 6.53667 24.1125 6.48744 24.1133 6.42584C24.1138 6.36385 24.0643 6.31331 24.002 6.31256ZM30.252 6.56256V6.56451C30.0098 6.5678 29.769 6.66535 29.5859 6.85357L27.7773 8.71099C27.4112 9.08706 27.4185 9.68472 27.7949 10.0508C28.1712 10.4171 28.7686 10.4059 29.1348 10.0313L30.9434 8.17193C31.3095 7.79549 31.3022 7.19821 30.9258 6.83209C30.7376 6.64916 30.4942 6.55915 30.252 6.56256ZM19.9746 6.69928H19.9766C20.0548 6.70343 20.1365 6.73762 20.2207 6.8067C20.6273 7.1684 20.1439 7.59214 19.9687 7.77545L19.1035 8.67974C18.4963 9.31111 18.2323 9.73795 17.8086 9.33013C17.4489 8.95672 17.7688 8.73416 18.457 8.03521L19.3223 7.13287C19.5271 6.93234 19.7391 6.68912 19.9746 6.69928ZM23.9922 6.87506C23.9325 6.87865 23.886 6.92824 23.8867 6.98834C23.8872 7.05032 23.9376 7.10004 24 7.09967C24.0612 7.09917 24.1109 7.04957 24.1113 6.98834C24.1119 6.92635 24.062 6.87581 24 6.87506C23.9974 6.87494 23.996 6.87494 23.9922 6.87506ZM30.3164 7.04693C30.3952 7.05071 30.4758 7.08481 30.5605 7.15435C30.9671 7.51605 30.4857 7.9398 30.3105 8.1231L29.4453 9.0274C28.8381 9.65877 28.574 10.0856 28.1504 9.67779C27.7907 9.30437 28.1086 9.08182 28.7969 8.38287L29.6621 7.48053C29.8675 7.27945 30.0801 7.03537 30.3164 7.04693ZM23.9922 7.4356C23.9325 7.43923 23.886 7.48879 23.8867 7.54888C23.8872 7.61087 23.9376 7.66059 24 7.66021C24.0612 7.65976 24.1109 7.61049 24.1113 7.54888C24.1119 7.4869 24.062 7.43636 24 7.4356C23.9974 7.43553 23.996 7.43553 23.9922 7.4356ZM23.9922 7.9981C23.9325 8.00169 23.886 8.05129 23.8867 8.11138C23.8872 8.17337 23.9376 8.22309 24 8.22271C24.0612 8.22222 24.1109 8.17299 24.1113 8.11138C24.1119 8.0494 24.062 7.99886 24 7.9981C23.9974 7.99803 23.996 7.99803 23.9922 7.9981ZM23.9922 8.5606C23.9332 8.56416 23.8871 8.61297 23.8867 8.67193C23.8861 8.73467 23.9373 8.78559 24 8.78521C24.062 8.78472 24.1121 8.73392 24.1113 8.67193C24.1109 8.6107 24.0612 8.56136 24 8.5606C23.9974 8.56053 23.996 8.56053 23.9922 8.5606ZM23.9922 9.1231C23.9332 9.12666 23.8871 9.17509 23.8867 9.23443C23.8861 9.29717 23.9373 9.34809 24 9.34771C24.062 9.34722 24.1121 9.29642 24.1113 9.23443C24.1109 9.1732 24.0612 9.12386 24 9.1231C23.9974 9.12299 23.996 9.12299 23.9922 9.1231ZM23.9805 9.6856C23.926 9.69316 23.8863 9.7437 23.8867 9.79888C23.8861 9.86162 23.9373 9.91254 24 9.91217C24.062 9.91167 24.1121 9.86087 24.1113 9.79888C24.1109 9.73766 24.0612 9.68636 24 9.6856C23.9924 9.68504 23.9919 9.68504 23.9844 9.6856H23.9805ZM24.002 10.2462C23.9392 10.2455 23.8883 10.2986 23.8887 10.3614C23.8892 10.4234 23.9396 10.4711 24.002 10.4708C24.0632 10.4703 24.1125 10.423 24.1133 10.3614C24.1138 10.2994 24.0643 10.2469 24.002 10.2462ZM24.002 10.8087C23.9392 10.808 23.8883 10.8592 23.8887 10.9219C23.8892 10.9839 23.9396 11.0344 24.002 11.0333C24.0632 11.0328 24.1125 10.9832 24.1133 10.9219C24.1138 10.8599 24.0643 10.8094 24.002 10.8087ZM30.252 11.2579V11.2598C30.0098 11.2631 29.769 11.3607 29.5859 11.5489L27.7773 13.4063C27.4112 13.7824 27.4185 14.38 27.7949 14.7461C28.1712 15.1124 28.7686 15.1042 29.1348 14.7266L30.9434 12.8672C31.3095 12.4908 31.3022 11.8935 30.9258 11.5274C30.7376 11.3445 30.4942 11.2545 30.252 11.2579ZM23.9922 11.3712C23.9325 11.3747 23.886 11.4243 23.8867 11.4844C23.8872 11.5464 23.9376 11.5985 24 11.5977C24.0612 11.5972 24.1109 11.5457 24.1113 11.4844C24.1119 11.4224 24.062 11.3719 24 11.3712C23.9974 11.371 23.996 11.371 23.9922 11.3712ZM19.9102 11.4747V11.4766C19.668 11.4799 19.4272 11.5775 19.2441 11.7657L17.4355 13.6231C17.0694 13.9992 17.0767 14.5968 17.4531 14.9629C17.8294 15.3292 18.4268 15.3187 18.793 14.9434L20.6016 13.084C20.9677 12.7076 20.9624 12.1103 20.5859 11.7442C20.3978 11.5613 20.1543 11.4713 19.9121 11.4747H19.9102ZM30.3164 11.7442C30.3952 11.748 30.4758 11.7821 30.5605 11.8516C30.9671 12.2133 30.4857 12.6351 30.3105 12.8184L29.4453 13.7227C28.8381 14.3541 28.574 14.7809 28.1504 14.3731C27.7907 13.9997 28.1086 13.7791 28.7969 13.0801L29.6621 12.1758C29.8675 11.9748 30.0801 11.7326 30.3164 11.7442ZM23.9922 11.9336C23.9325 11.9372 23.886 11.9868 23.8867 12.0469C23.8872 12.1089 23.9376 12.161 24 12.1602C24.0612 12.1597 24.1109 12.1082 24.1113 12.0469C24.1119 11.9849 24.062 11.934 24 11.9336C23.9974 11.9336 23.996 11.9336 23.9922 11.9336ZM19.9746 11.9571V11.959C20.0534 11.9628 20.1359 11.995 20.2207 12.0645C20.6273 12.4262 20.1439 12.85 19.9687 13.0333L19.1035 13.9376C18.4963 14.5689 18.2323 14.9958 17.8086 14.5879C17.4489 14.2145 17.7668 13.992 18.4551 13.293L19.3203 12.3887C19.5257 12.1877 19.7383 11.9455 19.9746 11.9571ZM23.9922 12.4961C23.9332 12.4997 23.8871 12.5481 23.8867 12.6075C23.8861 12.6702 23.9373 12.7211 24 12.7208C24.062 12.7203 24.1121 12.6695 24.1113 12.6075C24.1109 12.5462 24.0612 12.4969 24 12.4961C23.9974 12.4961 23.996 12.4961 23.9922 12.4961ZM23.9922 13.0586C23.9332 13.0622 23.8871 13.111 23.8867 13.17C23.8861 13.2327 23.9373 13.2836 24 13.2833C24.062 13.2828 24.1121 13.232 24.1113 13.17C24.1109 13.1087 24.0612 13.0594 24 13.0586C23.9974 13.0586 23.996 13.0586 23.9922 13.0586ZM23.9922 13.6211C23.9332 13.6248 23.8871 13.6735 23.8867 13.7325C23.8861 13.7952 23.9373 13.8461 24 13.8458C24.062 13.8453 24.1121 13.7945 24.1113 13.7325C24.1109 13.6712 24.0612 13.6215 24 13.6211C23.9974 13.621 23.996 13.621 23.9922 13.6211ZM23.9805 14.1836C23.926 14.1912 23.8863 14.2402 23.8867 14.295C23.8861 14.3577 23.9373 14.4086 24 14.4083C24.062 14.4078 24.1121 14.357 24.1113 14.295C24.1109 14.2337 24.0612 14.184 24 14.1836C23.9924 14.1831 23.9919 14.1831 23.9844 14.1836H23.9805ZM23.9805 14.7461C23.926 14.7537 23.8863 14.8023 23.8867 14.8575C23.8872 14.9195 23.9376 14.9692 24 14.9688C24.0612 14.9683 24.1109 14.9187 24.1113 14.8575C24.1109 14.7962 24.0612 14.7469 24 14.7461C23.9924 14.7456 23.99 14.7456 23.9824 14.7461H23.9805ZM24.002 15.3067C23.9392 15.3061 23.8883 15.3572 23.8887 15.42C23.8892 15.482 23.9396 15.5321 24.002 15.5313C24.0632 15.5308 24.1125 15.4812 24.1133 15.42C24.1138 15.358 24.0643 15.3075 24.002 15.3067ZM23.9922 15.8692C23.9325 15.8728 23.886 15.9224 23.8867 15.9825C23.8872 16.0445 23.9376 16.0946 24 16.0938C24.0612 16.0933 24.1109 16.0437 24.1113 15.9825C24.1119 15.9205 24.062 15.87 24 15.8692C23.9974 15.8691 23.996 15.8691 23.9922 15.8692ZM23.9922 16.4317C23.9325 16.4353 23.886 16.4849 23.8867 16.545C23.8872 16.607 23.9376 16.6567 24 16.6563C24.0612 16.6558 24.1109 16.6066 24.1113 16.545C24.1119 16.483 24.062 16.4325 24 16.4317C23.9974 16.4316 23.996 16.4316 23.9922 16.4317ZM30.252 16.4727C30.0098 16.476 29.769 16.5736 29.5859 16.7618L27.7773 18.6192C27.4112 18.9953 27.4185 19.5929 27.7949 19.959C28.1712 20.3253 28.7686 20.319 29.1348 19.9415L30.9434 18.0821C31.3095 17.7056 31.3022 17.1084 30.9258 16.7422C30.7376 16.5593 30.4942 16.4693 30.252 16.4727ZM19.9121 16.7325V16.7344C19.6699 16.7377 19.4292 16.8353 19.2461 17.0235L17.4375 18.8809C17.0714 19.257 17.0786 19.8546 17.4551 20.2208C17.8313 20.587 18.4288 20.5788 18.7949 20.2012L20.6035 18.3419C20.9696 17.9654 20.9624 17.3681 20.5859 17.002C20.3978 16.8191 20.1543 16.7291 19.9121 16.7325ZM30.3164 16.9571C30.3952 16.9609 30.4758 16.995 30.5605 17.0645C30.9671 17.4262 30.4857 17.848 30.3105 18.0313L29.4453 18.9376C28.8381 19.5689 28.574 19.9958 28.1504 19.5879C27.7907 19.2145 28.1086 18.9939 28.7969 18.295L29.6621 17.3907C29.8675 17.1896 30.0801 16.9475 30.3164 16.959V16.9571ZM23.9922 16.9942C23.9332 16.9978 23.8871 17.0466 23.8867 17.1055C23.8861 17.1683 23.9373 17.2192 24 17.2188C24.062 17.2183 24.1121 17.1675 24.1113 17.1055C24.1109 17.0443 24.0612 16.9942 24 16.9942C23.9974 16.9941 23.996 16.9941 23.9922 16.9942ZM19.9766 17.2169V17.2188C20.0553 17.2226 20.1359 17.2547 20.2207 17.3243C20.6273 17.686 20.1458 18.1078 19.9707 18.2911L19.1055 19.1954C18.4982 19.8267 18.2342 20.2536 17.8105 19.8458C17.4508 19.4723 17.7688 19.2517 18.457 18.5528L19.3223 17.6485C19.5277 17.4474 19.7403 17.2053 19.9766 17.2169ZM23.9922 17.5567C23.9332 17.5603 23.8871 17.6091 23.8867 17.668C23.8861 17.7308 23.9373 17.7817 24 17.7813C24.062 17.7809 24.1121 17.73 24.1113 17.668C24.1109 17.6068 24.0612 17.5571 24 17.5567C23.9974 17.5566 23.996 17.5566 23.9922 17.5567ZM23.9922 18.1192C23.9332 18.1228 23.8871 18.1716 23.8867 18.2305C23.8861 18.2933 23.9373 18.3442 24 18.3438C24.062 18.3433 24.1121 18.2925 24.1113 18.2305C24.1109 18.1693 24.0612 18.1196 24 18.1192C23.9974 18.1191 23.996 18.1191 23.9922 18.1192ZM23.9805 18.6817C23.926 18.6893 23.8863 18.7378 23.8867 18.793C23.8861 18.8558 23.9373 18.9067 24 18.9063C24.062 18.9058 24.1121 18.855 24.1113 18.793C24.1109 18.7318 24.0612 18.6825 24 18.6817C23.9924 18.6811 23.99 18.6811 23.9824 18.6817H23.9805ZM24.002 19.2422C23.9392 19.2416 23.8883 19.2928 23.8887 19.3555C23.8892 19.4175 23.9396 19.4676 24.002 19.4669C24.0632 19.4664 24.1125 19.4168 24.1133 19.3555C24.1138 19.2935 24.0643 19.243 24.002 19.2422ZM23.9922 19.8047C23.9325 19.8083 23.886 19.8579 23.8867 19.918C23.8872 19.98 23.9376 20.0301 24 20.0294C24.0612 20.0289 24.1109 19.9793 24.1113 19.918C24.1119 19.856 24.062 19.8051 24 19.8047C23.9974 19.8047 23.996 19.8047 23.9922 19.8047ZM23.9922 20.3672C23.9325 20.3708 23.886 20.4204 23.8867 20.4805C23.8872 20.5425 23.9376 20.5922 24 20.5919C24.0612 20.5914 24.1109 20.5421 24.1113 20.4805C24.1119 20.4185 24.062 20.368 24 20.3672C23.9974 20.3672 23.996 20.3672 23.9922 20.3672ZM23.9922 20.9297C23.9325 20.9333 23.886 20.9829 23.8867 21.043C23.8872 21.105 23.9376 21.1551 24 21.1544C24.0612 21.1539 24.1109 21.1046 24.1113 21.043C24.1119 20.981 24.062 20.9305 24 20.9297C23.9974 20.9297 23.996 20.9297 23.9922 20.9297ZM23.9922 21.4922C23.9332 21.4959 23.8871 21.5446 23.8867 21.6036C23.8861 21.6663 23.9373 21.7172 24 21.7169C24.062 21.7164 24.1121 21.6656 24.1113 21.6036C24.1109 21.5423 24.0612 21.4926 24 21.4922C23.9974 21.4921 23.996 21.4921 23.9922 21.4922ZM30.252 21.6876C30.0098 21.6908 29.769 21.7904 29.5859 21.9786L27.7773 23.836C27.4112 24.2121 27.4185 24.8097 27.7949 25.1758C28.1712 25.5421 28.7686 25.5335 29.1348 25.1563L30.9434 23.2969C31.3095 22.9205 31.3022 22.3232 30.9258 21.9571C30.7376 21.7742 30.4942 21.6842 30.252 21.6876ZM19.9121 21.9922C19.6699 21.9956 19.4292 22.095 19.2461 22.2833L17.4375 24.1407C17.0714 24.5167 17.0786 25.1144 17.4551 25.4805C17.8313 25.8468 18.4288 25.8363 18.7949 25.461L20.6035 23.6016C20.9696 23.2252 20.9624 22.6279 20.5859 22.2618C20.3978 22.0788 20.1543 21.9888 19.9121 21.9922ZM23.9922 22.0547C23.9332 22.0584 23.8871 22.1071 23.8867 22.1661C23.8861 22.2288 23.9373 22.2797 24 22.2794C24.062 22.2789 24.1121 22.2281 24.1113 22.1661C24.1109 22.1048 24.0612 22.0551 24 22.0547C23.9974 22.0546 23.996 22.0546 23.9922 22.0547ZM30.3164 22.1719C30.3952 22.1757 30.4758 22.2098 30.5605 22.2794C30.9671 22.6411 30.4857 23.0628 30.3105 23.2461L29.4453 24.1504C28.8381 24.7818 28.574 25.2086 28.1504 24.8008C27.7907 24.4274 28.1086 24.2068 28.7969 23.5079L29.6621 22.6036C29.8675 22.4025 30.0801 22.1604 30.3164 22.1719ZM19.9766 22.4747C20.0553 22.4784 20.1359 22.5125 20.2207 22.5821C20.6273 22.9438 20.1458 23.3675 19.9707 23.5508L19.1055 24.4551C18.4982 25.0865 18.2342 25.5133 17.8105 25.1055C17.4508 24.7321 17.7688 24.5096 18.457 23.8106L19.3223 22.9083C19.5277 22.7072 19.7403 22.4631 19.9766 22.4747ZM23.9922 22.6172C23.9332 22.6208 23.8871 22.6692 23.8867 22.7286C23.8861 22.7913 23.9373 22.8422 24 22.8419C24.062 22.8414 24.1121 22.7906 24.1113 22.7286C24.1109 22.6673 24.0612 22.618 24 22.6172C23.9974 22.6172 23.996 22.6172 23.9922 22.6172ZM23.9805 23.1797C23.926 23.1873 23.8863 23.2363 23.8867 23.2911C23.8861 23.3538 23.9373 23.4047 24 23.4044C24.062 23.4039 24.1121 23.3531 24.1113 23.2911C24.1109 23.2298 24.0612 23.1805 24 23.1797C23.9924 23.1792 23.99 23.1792 23.9824 23.1797H23.9805ZM23.9805 23.7422C23.926 23.7498 23.8863 23.7984 23.8867 23.8536C23.8872 23.9156 23.9376 23.9657 24 23.9649C24.0612 23.9644 24.1109 23.9148 24.1113 23.8536C24.1109 23.7923 24.0612 23.743 24 23.7422C23.9924 23.7417 23.99 23.7417 23.9824 23.7422H23.9805ZM23.9922 24.3028C23.9325 24.3064 23.886 24.356 23.8867 24.4161C23.8872 24.4781 23.9376 24.5278 24 24.5274C24.0612 24.5269 24.1109 24.4777 24.1113 24.4161C24.1119 24.3541 24.062 24.3035 24 24.3028C23.9974 24.3027 23.996 24.3027 23.9922 24.3028ZM23.9922 24.8653C23.9325 24.8689 23.886 24.9185 23.8867 24.9786C23.8872 25.0406 23.9376 25.0903 24 25.0899C24.0612 25.0894 24.1109 25.0402 24.1113 24.9786C24.1119 24.9166 24.062 24.866 24 24.8653C23.9974 24.8652 23.996 24.8652 23.9922 24.8653ZM23.9922 25.4278C23.9325 25.4314 23.886 25.481 23.8867 25.5411C23.8872 25.6031 23.9376 25.6532 24 25.6524C24.0612 25.6519 24.1109 25.6027 24.1113 25.5411C24.1119 25.4791 24.062 25.4285 24 25.4278C23.9974 25.4277 23.996 25.4277 23.9922 25.4278ZM23.9922 25.9903C23.9332 25.9939 23.8871 26.0423 23.8867 26.1016C23.8861 26.1644 23.9373 26.2153 24 26.2149C24.062 26.2144 24.1121 26.1636 24.1113 26.1016C24.1109 26.0404 24.0612 25.991 24 25.9903C23.9974 25.9902 23.996 25.9902 23.9922 25.9903ZM23.9922 26.5528C23.9332 26.5564 23.8871 26.6048 23.8867 26.6641C23.8861 26.7269 23.9373 26.7778 24 26.7774C24.062 26.7769 24.1121 26.7261 24.1113 26.6641C24.1109 26.6029 24.0612 26.5535 24 26.5528C23.9974 26.5527 23.996 26.5527 23.9922 26.5528ZM30.252 26.9024C30.0098 26.9057 29.769 27.0032 29.5859 27.1915L27.7773 29.0489C27.4112 29.4249 27.4185 30.0226 27.7949 30.3887C28.1712 30.755 28.7686 30.7487 29.1348 30.3711L30.9434 28.5118C31.3095 28.1353 31.3022 27.5381 30.9258 27.1719C30.7376 26.989 30.4942 26.899 30.252 26.9024ZM23.9922 27.1153C23.9332 27.1189 23.8871 27.1677 23.8867 27.2266C23.8861 27.2894 23.9373 27.3403 24 27.3399C24.062 27.3394 24.1121 27.2886 24.1113 27.2266C24.1109 27.1654 24.0612 27.116 24 27.1153C23.9974 27.1152 23.996 27.1152 23.9922 27.1153ZM19.9102 27.252C19.668 27.2553 19.4272 27.3528 19.2441 27.5411L17.4355 29.3985C17.0694 29.7746 17.0767 30.3722 17.4531 30.7383C17.8294 31.1046 18.4268 31.0961 18.793 30.7208L20.6016 28.8614C20.9677 28.4849 20.9604 27.8877 20.584 27.5215C20.3958 27.3386 20.1524 27.2486 19.9102 27.252ZM30.3164 27.3868C30.3952 27.3906 30.4758 27.4247 30.5605 27.4942C30.9671 27.8559 30.4857 28.2777 30.3105 28.461L29.4453 29.3653C28.8381 29.9967 28.574 30.4235 28.1504 30.0157C27.7907 29.6423 28.1086 29.4217 28.7969 28.7227L29.6621 27.8184C29.8675 27.6173 30.0801 27.3752 30.3164 27.3868ZM23.9805 27.6778C23.926 27.6853 23.8863 27.7343 23.8867 27.7891C23.8872 27.8511 23.9376 27.9012 24 27.9004C24.0612 27.9 24.1109 27.8503 24.1113 27.7891C24.1109 27.7279 24.0612 27.6785 24 27.6778C23.9924 27.6772 23.99 27.6772 23.9824 27.6778H23.9805ZM19.9746 27.7344C20.0534 27.7382 20.134 27.7723 20.2187 27.8419C20.6253 28.2036 20.1439 28.6273 19.9687 28.8106L19.1035 29.7149C18.4963 30.3463 18.2323 30.7731 17.8086 30.3653C17.4489 29.9919 17.7668 29.7693 18.4551 29.0704L19.3203 28.1661C19.5257 27.965 19.7383 27.7229 19.9746 27.7344ZM24.002 28.2383C23.9392 28.2377 23.8883 28.2889 23.8887 28.3516C23.8892 28.4136 23.9396 28.4633 24.002 28.4629C24.0632 28.4625 24.1125 28.4132 24.1133 28.3516C24.1138 28.2896 24.0643 28.2391 24.002 28.2383ZM23.9922 28.8008C23.9325 28.8044 23.886 28.854 23.8867 28.9141C23.8872 28.9761 23.9376 29.0262 24 29.0254C24.0612 29.025 24.1109 28.9757 24.1113 28.9141C24.1119 28.8521 24.062 28.8016 24 28.8008C23.9974 28.8008 23.996 28.8008 23.9922 28.8008ZM23.9922 29.3633C23.9325 29.367 23.886 29.4165 23.8867 29.4766C23.8872 29.5386 23.9376 29.5883 24 29.5879C24.0612 29.5875 24.1109 29.5382 24.1113 29.4766C24.1119 29.4146 24.062 29.3641 24 29.3633C23.9974 29.3633 23.996 29.3633 23.9922 29.3633ZM23.9922 29.9258C23.9325 29.9295 23.886 29.979 23.8867 30.0391C23.8872 30.1011 23.9376 30.1516 24 30.1504C24.0612 30.15 24.1109 30.1003 24.1113 30.0391C24.1119 29.9771 24.062 29.9266 24 29.9258C23.9974 29.9257 23.996 29.9257 23.9922 29.9258ZM23.9922 30.4864C23.9332 30.49 23.8871 30.5403 23.8867 30.5997C23.8861 30.6624 23.9373 30.7133 24 30.7129C24.062 30.7125 24.1121 30.6616 24.1113 30.5997C24.1109 30.5384 24.0612 30.4871 24 30.4864C23.9974 30.4863 23.996 30.4863 23.9922 30.4864ZM23.9922 31.0489C23.9332 31.0525 23.8871 31.1013 23.8867 31.1602C23.8861 31.223 23.9373 31.2739 24 31.2735C24.062 31.273 24.1121 31.2222 24.1113 31.1602C24.1109 31.099 24.0612 31.0496 24 31.0489C23.9974 31.0488 23.996 31.0488 23.9922 31.0489ZM23.9805 31.6114C23.926 31.6189 23.8863 31.6675 23.8867 31.7227C23.8861 31.7855 23.9373 31.8364 24 31.836C24.062 31.8355 24.1121 31.7847 24.1113 31.7227C24.1109 31.6615 24.0612 31.6121 24 31.6114C23.9924 31.6108 23.99 31.6108 23.9824 31.6114H23.9805ZM23.9805 32.1739C23.926 32.1814 23.8863 32.2304 23.8867 32.2852C23.8872 32.3472 23.9376 32.3969 24 32.3965C24.0612 32.396 24.1109 32.3468 24.1113 32.2852C24.1109 32.224 24.0612 32.1743 24 32.1739C23.9924 32.1733 23.99 32.1733 23.9824 32.1739H23.9805ZM24.002 32.7344C23.9392 32.7338 23.8883 32.7869 23.8887 32.8497C23.8892 32.9116 23.9396 32.9594 24.002 32.959C24.0632 32.9585 24.1125 32.9113 24.1133 32.8497C24.1138 32.7877 24.0643 32.7352 24.002 32.7344ZM30.252 32.9004V32.9024C30.0098 32.9057 29.769 33.0032 29.5859 33.1915L27.7773 35.0489C27.4112 35.4249 27.4185 36.0226 27.7949 36.3887C28.1712 36.755 28.7686 36.7468 29.1348 36.3692L30.9434 34.5098C31.3095 34.1334 31.3022 33.5361 30.9258 33.17C30.7376 32.987 30.4942 32.897 30.252 32.9004ZM19.9121 33.2501C19.6699 33.2533 19.4292 33.3509 19.2461 33.5391L17.4375 35.3965C17.0714 35.7726 17.0786 36.3703 17.4551 36.7364C17.8313 37.1026 18.4288 37.0941 18.7949 36.7188L20.6035 34.8594C20.9696 34.483 20.9624 33.8857 20.5859 33.5196C20.3978 33.3367 20.1543 33.2467 19.9121 33.2501ZM23.9922 33.2969C23.9325 33.3006 23.886 33.3501 23.8867 33.4102C23.8872 33.4722 23.9376 33.5223 24 33.5215C24.0612 33.521 24.1109 33.4718 24.1113 33.4102C24.1119 33.3482 24.062 33.2977 24 33.2969C23.9974 33.2969 23.996 33.2969 23.9922 33.2969ZM30.3164 33.3848C30.3952 33.3886 30.4758 33.4227 30.5605 33.4922C30.9671 33.8539 30.4857 34.2757 30.3105 34.459L29.4453 35.3633C28.8381 35.9947 28.574 36.4215 28.1504 36.0137C27.7907 35.6403 28.1086 35.4197 28.7969 34.7208L29.6621 33.8165C29.8675 33.6154 30.0801 33.3733 30.3164 33.3848ZM19.9766 33.7325C20.0553 33.7363 20.1359 33.7704 20.2207 33.8399C20.6273 34.2016 20.1458 34.6253 19.9707 34.8086L19.1055 35.7129C18.4982 36.3443 18.2342 36.7711 17.8105 36.3633C17.4508 35.9899 17.7688 35.7674 18.457 35.0684L19.3223 34.1641C19.5277 33.963 19.7403 33.7209 19.9766 33.7325ZM23.9922 33.8594C23.9325 33.8631 23.886 33.9126 23.8867 33.9727C23.8872 34.0347 23.9376 34.0844 24 34.084C24.0612 34.0835 24.1109 34.0343 24.1113 33.9727C24.1119 33.9107 24.062 33.8602 24 33.8594C23.9974 33.8593 23.996 33.8593 23.9922 33.8594ZM23.9922 34.4219C23.9332 34.4255 23.8871 34.4739 23.8867 34.5333C23.8861 34.596 23.9373 34.6469 24 34.6465C24.062 34.646 24.1121 34.5952 24.1113 34.5333C24.1109 34.472 24.0612 34.4227 24 34.4219C23.9974 34.4218 23.996 34.4218 23.9922 34.4219ZM23.9922 34.9844C23.9332 34.988 23.8871 35.0368 23.8867 35.0958C23.8861 35.1585 23.9373 35.2094 24 35.209C24.062 35.2085 24.1121 35.1577 24.1113 35.0958C24.1109 35.0345 24.0612 34.9852 24 34.9844C23.9974 34.9844 23.996 34.9844 23.9922 34.9844ZM23.9922 35.5469C23.9332 35.5505 23.8871 35.5993 23.8867 35.6583C23.8861 35.721 23.9373 35.7719 24 35.7715C24.062 35.771 24.1121 35.7202 24.1113 35.6583C24.1109 35.597 24.0612 35.5477 24 35.5469C23.9974 35.5469 23.996 35.5469 23.9922 35.5469ZM23.9922 36.1094C23.9332 36.113 23.8871 36.1614 23.8867 36.2208C23.8861 36.2835 23.9373 36.3344 24 36.334C24.062 36.3335 24.1121 36.2827 24.1113 36.2208C24.1109 36.1595 24.0612 36.1102 24 36.1094C23.9974 36.1094 23.996 36.1094 23.9922 36.1094ZM23.9805 36.6719C23.926 36.6795 23.8863 36.7281 23.8867 36.7833C23.8872 36.8452 23.9376 36.8957 24 36.8946C24.0612 36.8941 24.1109 36.8445 24.1113 36.7833C24.1109 36.722 24.0612 36.6727 24 36.6719C23.9924 36.6714 23.99 36.6714 23.9824 36.6719H23.9805ZM23.9922 37.2325C23.9325 37.2361 23.886 37.2857 23.8867 37.3458C23.8872 37.4077 23.9376 37.4575 24 37.4571C24.0612 37.4566 24.1109 37.4074 24.1113 37.3458C24.1119 37.2838 24.062 37.2332 24 37.2325C23.9974 37.2324 23.996 37.2324 23.9922 37.2325ZM23.9922 37.795C23.9325 37.7986 23.886 37.8482 23.8867 37.9083C23.8872 37.9702 23.9376 38.0203 24 38.0196C24.0612 38.0191 24.1109 37.9699 24.1113 37.9083C24.1119 37.8463 24.062 37.7957 24 37.795C23.9974 37.7949 23.996 37.7949 23.9922 37.795ZM30.252 38.3379V38.3399C30.0098 38.3432 29.769 38.4407 29.5859 38.629L27.7773 40.4864C27.4112 40.8624 27.4185 41.4601 27.7949 41.8262C28.1712 42.1925 28.7686 42.1843 29.1348 41.8067L30.9434 39.9473C31.3095 39.5709 31.3022 38.9736 30.9258 38.6075C30.7376 38.4245 30.4942 38.3345 30.252 38.3379ZM23.9922 38.3575C23.9325 38.3611 23.886 38.4107 23.8867 38.4708C23.8872 38.5327 23.9376 38.5825 24 38.5821C24.0612 38.5816 24.1109 38.5324 24.1113 38.4708C24.1119 38.4088 24.062 38.3582 24 38.3575C23.9974 38.3574 23.996 38.3574 23.9922 38.3575ZM19.9121 38.6876C19.6699 38.6908 19.4292 38.7884 19.2461 38.9766L17.4375 40.834C17.0714 41.2101 17.0786 41.8078 17.4551 42.1739C17.8313 42.5401 18.4288 42.5316 18.7949 42.1563L20.6035 40.2969C20.9696 39.9205 20.9624 39.3232 20.5859 38.9571C20.3978 38.7742 20.1543 38.6842 19.9121 38.6876ZM30.3164 38.8223C30.3952 38.8261 30.4758 38.8602 30.5605 38.9297C30.9671 39.2914 30.4857 39.7132 30.3105 39.8965L29.4453 40.8008C28.8381 41.4322 28.574 41.859 28.1504 41.4512C27.7907 41.0778 28.1086 40.8572 28.7969 40.1583L29.6621 39.254C29.8675 39.0529 30.0801 38.8108 30.3164 38.8223ZM23.9922 38.92C23.9332 38.9236 23.8871 38.972 23.8867 39.0313C23.8861 39.094 23.9373 39.145 24 39.1446C24.062 39.1441 24.1121 39.0933 24.1113 39.0313C24.1109 38.9701 24.0612 38.9207 24 38.92C23.9974 38.9199 23.996 38.9199 23.9922 38.92ZM19.9766 39.17C20.0553 39.1738 20.1359 39.2079 20.2207 39.2774C20.6273 39.6391 20.1458 40.0628 19.9707 40.2461L19.1055 41.1504C18.4982 41.7818 18.2342 42.2086 17.8105 41.8008C17.4508 41.4274 17.7688 41.2049 18.457 40.5059L19.3223 39.6016C19.5277 39.4005 19.7403 39.1584 19.9766 39.17ZM23.9922 39.4825C23.9332 39.4861 23.8871 39.5348 23.8867 39.5938C23.8861 39.6565 23.9373 39.7075 24 39.7071C24.062 39.7066 24.1121 39.6558 24.1113 39.5938C24.1109 39.5326 24.0612 39.4832 24 39.4825C23.9974 39.4824 23.996 39.4824 23.9922 39.4825ZM23.9922 40.045C23.9332 40.0486 23.8871 40.0973 23.8867 40.1563C23.8861 40.219 23.9373 40.27 24 40.2696C24.062 40.2691 24.1121 40.2183 24.1113 40.1563C24.1109 40.0951 24.0612 40.0457 24 40.045C23.9974 40.0449 23.996 40.0449 23.9922 40.045ZM23.9805 40.6075C23.926 40.615 23.8863 40.6636 23.8867 40.7188C23.8861 40.7815 23.9373 40.8325 24 40.8321C24.062 40.8316 24.1121 40.7808 24.1113 40.7188C24.1109 40.6576 24.0612 40.6082 24 40.6075C23.9924 40.6069 23.99 40.6069 23.9824 40.6075H23.9805ZM23.9805 41.17C23.926 41.1775 23.8863 41.2261 23.8867 41.2813C23.8872 41.3433 23.9376 41.3934 24 41.3926C24.0612 41.3921 24.1109 41.3429 24.1113 41.2813C24.1109 41.2201 24.0612 41.1707 24 41.17C23.9924 41.1694 23.99 41.1694 23.9824 41.17H23.9805ZM24.002 41.7305C23.9392 41.7299 23.8883 41.7811 23.8887 41.8438C23.8892 41.9058 23.9396 41.9555 24.002 41.9551C24.0632 41.9546 24.1125 41.9054 24.1133 41.8438C24.1138 41.7818 24.0643 41.7313 24.002 41.7305ZM23.9922 42.293C23.9325 42.2966 23.886 42.3462 23.8867 42.4063C23.8872 42.4683 23.9376 42.518 24 42.5176C24.0612 42.5171 24.1109 42.4679 24.1113 42.4063C24.1119 42.3443 24.062 42.2938 24 42.293C23.9974 42.2929 23.996 42.2929 23.9922 42.293Z" fill="#333333"/>
</svg>
