<svg width="48" height="48" viewBox="0 0 48 48" fill="none" xmlns="http://www.w3.org/2000/svg">
<path d="M14.346 4.09377C13.476 4.09377 12.777 4.79277 12.777 5.66177V42.5228C12.777 43.3928 13.477 44.0928 14.346 44.0928H34.05C34.2562 44.0933 34.4605 44.053 34.6511 43.9743C34.8417 43.8956 35.0149 43.7799 35.1606 43.634C35.3063 43.4881 35.4218 43.3148 35.5003 43.1241C35.5788 42.9334 35.6188 42.729 35.618 42.5228V5.66277C35.618 4.79277 34.919 4.09277 34.05 4.09277H14.346V4.09377ZM18.225 9.23577C18.408 9.21277 18.597 9.27177 18.91 9.46877C18.9997 9.55513 19.0715 9.65838 19.1212 9.77258C19.1709 9.88677 19.1976 10.0097 19.1996 10.1342C19.2016 10.2587 19.1791 10.3824 19.1331 10.4982C19.0872 10.614 19.0188 10.7195 18.932 10.8088L17.123 12.6678C17.0365 12.7575 16.9331 12.8292 16.8187 12.8787C16.7044 12.9282 16.5813 12.9545 16.4567 12.9562C16.3321 12.9579 16.2084 12.9349 16.0928 12.8884C15.9771 12.842 15.8718 12.7731 15.783 12.6858C15.6933 12.5993 15.6216 12.496 15.572 12.3818C15.5224 12.2676 15.4958 12.1447 15.4939 12.0201C15.4919 11.8956 15.5146 11.7719 15.5606 11.6562C15.6066 11.5405 15.6751 11.435 15.762 11.3458L17.57 9.48977C17.862 9.36277 18.04 9.25877 18.225 9.23577ZM21.787 9.23577C21.971 9.21277 22.16 9.27177 22.473 9.46877C22.5627 9.5552 22.6344 9.6585 22.684 9.77273C22.7336 9.88696 22.7601 10.0099 22.7621 10.1344C22.764 10.2589 22.7414 10.3826 22.6954 10.4984C22.6493 10.6141 22.5809 10.7196 22.494 10.8088L20.686 12.6678C20.5995 12.7575 20.4961 12.8292 20.3817 12.8787C20.2674 12.9282 20.1443 12.9545 20.0197 12.9562C19.8951 12.9579 19.7714 12.9349 19.6558 12.8884C19.5401 12.842 19.4348 12.7731 19.346 12.6858C19.2562 12.5994 19.1844 12.4962 19.1347 12.382C19.085 12.2678 19.0584 12.1449 19.0564 12.0203C19.0543 11.8958 19.0769 11.7721 19.1228 11.6563C19.1688 11.5406 19.2371 11.435 19.324 11.3458L21.133 9.48977C21.424 9.36277 21.603 9.25877 21.787 9.23577ZM25.164 9.23577C25.348 9.21277 25.536 9.27177 25.85 9.46877C25.9397 9.5552 26.0114 9.6585 26.061 9.77273C26.1106 9.88696 26.1371 10.0099 26.1391 10.1344C26.1411 10.2589 26.1184 10.3826 26.0724 10.4984C26.0263 10.6141 25.9579 10.7196 25.871 10.8088L24.063 12.6678C23.9765 12.7575 23.8731 12.8292 23.7587 12.8787C23.6444 12.9282 23.5213 12.9545 23.3967 12.9562C23.2721 12.9579 23.1484 12.9349 23.0328 12.8884C22.9171 12.842 22.8118 12.7731 22.723 12.6858C22.6332 12.5994 22.5614 12.4962 22.5117 12.382C22.462 12.2678 22.4354 12.1449 22.4334 12.0203C22.4313 11.8958 22.4539 11.7721 22.4998 11.6563C22.5458 11.5406 22.6141 11.435 22.701 11.3458L24.51 9.48977C24.801 9.36277 24.98 9.25877 25.164 9.23577ZM28.727 9.23577C28.91 9.21277 29.099 9.27177 29.412 9.46877C29.5017 9.55513 29.5735 9.65838 29.6232 9.77258C29.6729 9.88677 29.6996 10.0097 29.7016 10.1342C29.7036 10.2587 29.6811 10.3824 29.6351 10.4982C29.5892 10.614 29.5208 10.7195 29.434 10.8088L27.625 12.6678C27.5385 12.7575 27.4351 12.8292 27.3207 12.8787C27.2064 12.9282 27.0833 12.9545 26.9587 12.9562C26.8341 12.9579 26.7104 12.9349 26.5948 12.8884C26.4791 12.842 26.3738 12.7731 26.285 12.6858C26.1953 12.5993 26.1236 12.496 26.074 12.3818C26.0244 12.2676 25.9978 12.1447 25.9959 12.0201C25.9939 11.8956 26.0166 11.7719 26.0626 11.6562C26.1086 11.5405 26.1771 11.435 26.264 11.3458L28.072 9.48977C28.364 9.36277 28.542 9.25877 28.727 9.23577ZM31.926 9.23577C32.11 9.21277 32.3 9.27177 32.613 9.46877C32.7027 9.55513 32.7745 9.65838 32.8242 9.77258C32.8739 9.88677 32.9006 10.0097 32.9026 10.1342C32.9046 10.2587 32.8821 10.3824 32.8361 10.4982C32.7902 10.614 32.7218 10.7195 32.635 10.8088L30.826 12.6678C30.7395 12.7575 30.6361 12.8292 30.5217 12.8787C30.4074 12.9282 30.2843 12.9545 30.1597 12.9562C30.0351 12.9579 29.9114 12.9349 29.7958 12.8884C29.6801 12.842 29.5748 12.7731 29.486 12.6858C29.3963 12.5993 29.3246 12.496 29.275 12.3818C29.2254 12.2676 29.1988 12.1447 29.1969 12.0201C29.1949 11.8956 29.2176 11.7719 29.2636 11.6562C29.3096 11.5405 29.3781 11.435 29.465 11.3458L31.273 9.48977C31.565 9.36277 31.742 9.25877 31.926 9.23577ZM13.795 14.9798C13.8232 14.9824 13.8495 14.9955 13.8686 15.0165C13.8877 15.0375 13.8983 15.0649 13.8983 15.0933C13.8983 15.1217 13.8877 15.149 13.8686 15.17C13.8495 15.191 13.8232 15.2041 13.795 15.2068C13.7654 15.206 13.7374 15.1938 13.7166 15.1727C13.6959 15.1516 13.6842 15.1233 13.684 15.0938C13.684 15.0308 13.733 14.9808 13.794 14.9798H13.795ZM14.357 14.9798V14.9818C14.3839 14.981 14.4102 14.9901 14.4309 15.0075C14.4515 15.0248 14.4651 15.0491 14.469 15.0758V15.0938C14.468 15.1548 14.419 15.2068 14.357 15.2068C14.3272 15.2063 14.2987 15.1942 14.2776 15.1731C14.2566 15.152 14.2445 15.1236 14.244 15.0938C14.244 15.0308 14.295 14.9808 14.357 14.9798ZM14.92 14.9798V14.9818C14.9468 14.9812 14.9728 14.9905 14.9932 15.0078C15.0137 15.0251 15.0271 15.0493 15.031 15.0758V15.0938C15.031 15.1548 14.981 15.2068 14.92 15.2068C14.8901 15.2065 14.8615 15.1945 14.8404 15.1734C14.8192 15.1523 14.8072 15.1237 14.807 15.0938C14.807 15.0308 14.857 14.9798 14.92 14.9798ZM15.482 14.9798V14.9818C15.542 14.9818 15.59 15.0288 15.594 15.0878V15.0938C15.593 15.1548 15.544 15.2068 15.482 15.2068C15.4521 15.2065 15.4235 15.1945 15.4024 15.1734C15.3812 15.1523 15.3692 15.1237 15.369 15.0938C15.369 15.0308 15.419 14.9798 15.482 14.9798ZM16.045 14.9798V14.9818C16.105 14.9818 16.153 15.0288 16.156 15.0878V15.0938C16.156 15.1548 16.106 15.2068 16.045 15.2068C16.0151 15.2065 15.9865 15.1945 15.9654 15.1734C15.9442 15.1523 15.9322 15.1237 15.932 15.0938C15.932 15.0308 15.982 14.9798 16.045 14.9798ZM16.607 14.9798V14.9818C16.667 14.9818 16.715 15.0288 16.719 15.0878V15.0938C16.718 15.1548 16.669 15.2068 16.607 15.2068C16.5771 15.2065 16.5485 15.1945 16.5274 15.1734C16.5062 15.1523 16.4942 15.1237 16.494 15.0938C16.494 15.0308 16.544 14.9798 16.607 14.9798ZM17.168 14.9798V14.9818C17.228 14.9818 17.278 15.0278 17.281 15.0878V15.0938C17.2807 15.1237 17.2687 15.1523 17.2476 15.1734C17.2265 15.1945 17.1979 15.2065 17.168 15.2068C17.1384 15.206 17.1104 15.1938 17.0896 15.1727C17.0689 15.1516 17.0572 15.1233 17.057 15.0938C17.057 15.0308 17.106 14.9808 17.168 14.9798ZM17.731 14.9798V14.9818C17.791 14.9818 17.841 15.0278 17.844 15.0878V15.0938C17.8437 15.1238 17.8316 15.1526 17.8102 15.1737C17.7889 15.1949 17.76 15.2068 17.73 15.2068C17.7006 15.2057 17.6728 15.1934 17.6523 15.1724C17.6318 15.1513 17.6202 15.1232 17.62 15.0938C17.619 15.0308 17.669 14.9808 17.73 14.9798H17.731ZM18.293 14.9798V14.9818C18.353 14.9818 18.403 15.0278 18.406 15.0878V15.0938C18.4057 15.1237 18.3937 15.1523 18.3726 15.1734C18.3515 15.1945 18.3229 15.2065 18.293 15.2068C18.2634 15.206 18.2354 15.1938 18.2146 15.1727C18.1939 15.1516 18.1822 15.1233 18.182 15.0938C18.182 15.0308 18.231 14.9808 18.293 14.9798ZM18.856 14.9798V14.9818C18.8826 14.9815 18.9084 14.9909 18.9286 15.0081C18.9488 15.0254 18.9621 15.0495 18.966 15.0758V15.0938C18.966 15.1548 18.916 15.2068 18.856 15.2068C18.8263 15.2063 18.7979 15.1941 18.777 15.173C18.7561 15.1519 18.7442 15.1235 18.744 15.0938C18.744 15.0308 18.794 14.9808 18.855 14.9798H18.856ZM19.418 14.9798V14.9818C19.478 14.9818 19.526 15.0288 19.529 15.0878V15.0938C19.529 15.1548 19.479 15.2068 19.418 15.2068C19.3881 15.2065 19.3595 15.1945 19.3384 15.1734C19.3172 15.1523 19.3052 15.1237 19.305 15.0938C19.305 15.0308 19.355 14.9798 19.418 14.9798ZM19.981 14.9798V14.9818C20.04 14.9818 20.088 15.0288 20.091 15.0878V15.0938C20.091 15.1548 20.041 15.2068 19.981 15.2068C19.9509 15.2068 19.9221 15.1949 19.9007 15.1737C19.8794 15.1526 19.8672 15.1238 19.867 15.0938C19.867 15.0308 19.917 14.9798 19.98 14.9798H19.981ZM20.543 14.9798V14.9818C20.603 14.9818 20.651 15.0288 20.654 15.0878V15.0938C20.654 15.1548 20.604 15.2068 20.543 15.2068C20.5131 15.2065 20.4845 15.1945 20.4634 15.1734C20.4422 15.1523 20.4302 15.1237 20.43 15.0938C20.43 15.0308 20.48 14.9798 20.543 14.9798ZM21.106 14.9798V14.9818C21.165 14.9818 21.213 15.0288 21.216 15.0878V15.0938C21.216 15.1548 21.166 15.2068 21.106 15.2068C21.0759 15.2068 21.0471 15.1949 21.0257 15.1737C21.0044 15.1526 20.9922 15.1238 20.992 15.0938C20.992 15.0308 21.042 14.9798 21.105 14.9798H21.106ZM21.666 14.9798V14.9818C21.726 14.9818 21.776 15.0278 21.779 15.0878V15.0938C21.7787 15.1237 21.7667 15.1523 21.7456 15.1734C21.7245 15.1945 21.6959 15.2065 21.666 15.2068C21.6364 15.206 21.6084 15.1938 21.5876 15.1727C21.5669 15.1516 21.5552 15.1233 21.555 15.0938C21.555 15.0308 21.604 14.9808 21.666 14.9798ZM22.229 14.9798V14.9818C22.289 14.9818 22.339 15.0278 22.342 15.0878V15.0938C22.3417 15.1237 22.3297 15.1523 22.3086 15.1734C22.2875 15.1945 22.2589 15.2065 22.229 15.2068C22.1993 15.2063 22.1709 15.1941 22.15 15.173C22.1291 15.1519 22.1172 15.1235 22.117 15.0938C22.117 15.0308 22.167 14.9808 22.228 14.9798H22.229ZM22.791 14.9798C22.8192 14.9824 22.8455 14.9955 22.8646 15.0165C22.8837 15.0375 22.8943 15.0649 22.8943 15.0933C22.8943 15.1217 22.8837 15.149 22.8646 15.17C22.8455 15.191 22.8192 15.2041 22.791 15.2068C22.7614 15.206 22.7334 15.1938 22.7126 15.1727C22.6919 15.1516 22.6802 15.1233 22.68 15.0938C22.68 15.0308 22.729 14.9808 22.791 14.9798ZM23.354 14.9798V14.9818C23.408 14.9818 23.457 15.0218 23.464 15.0758V15.0938C23.464 15.1548 23.414 15.2068 23.354 15.2068C23.3243 15.2063 23.2959 15.1941 23.275 15.173C23.2541 15.1519 23.2422 15.1235 23.242 15.0938C23.242 15.0308 23.292 14.9808 23.353 14.9798H23.354ZM23.916 14.9798V14.9818C23.9428 14.9812 23.9688 14.9905 23.9892 15.0078C24.0097 15.0251 24.0231 15.0493 24.027 15.0758V15.0938C24.027 15.1548 23.977 15.2068 23.916 15.2068C23.8861 15.2065 23.8575 15.1945 23.8364 15.1734C23.8152 15.1523 23.8032 15.1237 23.803 15.0938C23.803 15.0308 23.853 14.9798 23.916 14.9798ZM24.479 14.9798V14.9818C24.538 14.9818 24.586 15.0288 24.589 15.0878V15.0938C24.589 15.1548 24.539 15.2068 24.479 15.2068C24.4489 15.2068 24.4201 15.1949 24.3987 15.1737C24.3774 15.1526 24.3652 15.1238 24.365 15.0938C24.365 15.0308 24.415 14.9798 24.479 14.9798ZM25.041 14.9798V14.9818C25.101 14.9818 25.149 15.0288 25.152 15.0878V15.0938C25.152 15.1548 25.102 15.2068 25.041 15.2068C25.0111 15.2065 24.9825 15.1945 24.9614 15.1734C24.9402 15.1523 24.9282 15.1237 24.928 15.0938C24.928 15.0308 24.978 14.9798 25.041 14.9798ZM25.601 14.9798V14.9818C25.661 14.9818 25.711 15.0278 25.715 15.0878V15.0938C25.7147 15.1237 25.7027 15.1523 25.6816 15.1734C25.6605 15.1945 25.6319 15.2065 25.602 15.2068C25.5723 15.2063 25.5439 15.1941 25.523 15.173C25.5021 15.1519 25.4902 15.1235 25.49 15.0938C25.49 15.0308 25.54 14.9808 25.602 14.9798H25.601ZM26.164 14.9798V14.9818C26.224 14.9818 26.274 15.0278 26.277 15.0878V15.0938C26.2767 15.1237 26.2647 15.1523 26.2436 15.1734C26.2225 15.1945 26.1939 15.2065 26.164 15.2068C26.1344 15.206 26.1064 15.1938 26.0856 15.1727C26.0649 15.1516 26.0532 15.1233 26.053 15.0938C26.053 15.0308 26.103 14.9808 26.164 14.9798ZM26.727 14.9798V14.9818C26.787 14.9818 26.837 15.0278 26.84 15.0878V15.0938C26.8397 15.1237 26.8277 15.1523 26.8066 15.1734C26.7855 15.1945 26.7569 15.2065 26.727 15.2068C26.6973 15.2063 26.6689 15.1941 26.648 15.173C26.6271 15.1519 26.6152 15.1235 26.615 15.0938C26.615 15.0308 26.665 14.9808 26.727 14.9798ZM27.289 14.9798C27.3172 14.9824 27.3435 14.9955 27.3626 15.0165C27.3817 15.0375 27.3923 15.0649 27.3923 15.0933C27.3923 15.1217 27.3817 15.149 27.3626 15.17C27.3435 15.191 27.3172 15.2041 27.289 15.2068C27.2594 15.206 27.2314 15.1938 27.2106 15.1727C27.1899 15.1516 27.1782 15.1233 27.178 15.0938C27.178 15.0308 27.228 14.9808 27.289 14.9798ZM27.852 14.9798V14.9818C27.8786 14.9815 27.9044 14.9909 27.9246 15.0081C27.9448 15.0254 27.9581 15.0495 27.962 15.0758C27.964 15.0838 27.964 15.0858 27.962 15.0938C27.962 15.1548 27.912 15.2068 27.852 15.2068C27.8223 15.2063 27.7939 15.1941 27.773 15.173C27.7521 15.1519 27.7402 15.1235 27.74 15.0938C27.74 15.0308 27.79 14.9808 27.852 14.9798ZM28.414 14.9798V14.9818C28.474 14.9818 28.522 15.0288 28.525 15.0878V15.0938C28.525 15.1548 28.475 15.2068 28.415 15.2068C28.3849 15.2068 28.3561 15.1949 28.3347 15.1737C28.3134 15.1526 28.3012 15.1238 28.301 15.0938C28.301 15.0308 28.351 14.9798 28.414 14.9798ZM28.977 14.9798V14.9818C29.036 14.9818 29.084 15.0288 29.087 15.0878V15.0938C29.087 15.1548 29.037 15.2068 28.977 15.2068C28.9469 15.2068 28.9181 15.1949 28.8967 15.1737C28.8754 15.1526 28.8632 15.1238 28.863 15.0938C28.863 15.0308 28.913 14.9798 28.977 14.9798ZM29.539 14.9798V14.9818C29.599 14.9818 29.647 15.0288 29.65 15.0878V15.0938C29.65 15.1548 29.6 15.2068 29.54 15.2068C29.5099 15.2068 29.4811 15.1949 29.4597 15.1737C29.4384 15.1526 29.4262 15.1238 29.426 15.0938C29.426 15.0308 29.476 14.9798 29.539 14.9798ZM30.099 14.9798V14.9818C30.159 14.9818 30.209 15.0278 30.213 15.0878V15.0938C30.2127 15.1237 30.2007 15.1523 30.1796 15.1734C30.1585 15.1945 30.1299 15.2065 30.1 15.2068C30.0703 15.2063 30.0419 15.1941 30.021 15.173C30.0001 15.1519 29.9882 15.1235 29.988 15.0938C29.988 15.0308 30.038 14.9808 30.1 14.9798H30.099ZM30.662 14.9798V14.9818C30.722 14.9818 30.772 15.0278 30.775 15.0878V15.0938C30.7747 15.1237 30.7627 15.1523 30.7416 15.1734C30.7205 15.1945 30.6919 15.2065 30.662 15.2068C30.6324 15.206 30.6044 15.1938 30.5836 15.1727C30.5629 15.1516 30.5512 15.1233 30.551 15.0938C30.551 15.0308 30.601 14.9808 30.662 14.9798ZM31.225 14.9798V14.9818C31.285 14.9818 31.335 15.0278 31.338 15.0878V15.0938C31.3377 15.1237 31.3257 15.1523 31.3046 15.1734C31.2835 15.1945 31.2549 15.2065 31.225 15.2068C31.1953 15.2063 31.1669 15.1941 31.146 15.173C31.1251 15.1519 31.1132 15.1235 31.113 15.0938C31.113 15.0308 31.163 14.9808 31.225 14.9798ZM31.787 14.9798V14.9818C31.8138 14.9812 31.8398 14.9905 31.8602 15.0078C31.8807 15.0251 31.8941 15.0493 31.898 15.0758V15.0938C31.898 15.1548 31.848 15.2068 31.788 15.2068C31.7583 15.2063 31.7299 15.1941 31.709 15.173C31.6881 15.1519 31.6762 15.1235 31.676 15.0938C31.675 15.0308 31.726 14.9808 31.787 14.9798ZM32.35 14.9798V14.9818C32.3766 14.9815 32.4024 14.9909 32.4226 15.0081C32.4428 15.0254 32.4561 15.0495 32.46 15.0758C32.462 15.0838 32.462 15.0858 32.46 15.0938C32.46 15.1548 32.41 15.2068 32.35 15.2068C32.3199 15.2068 32.2911 15.1949 32.2697 15.1737C32.2484 15.1526 32.2362 15.1238 32.236 15.0938C32.236 15.0308 32.286 14.9798 32.35 14.9798ZM32.912 14.9798V14.9818C32.972 14.9818 33.02 15.0288 33.023 15.0878V15.0938C33.023 15.1548 32.973 15.2068 32.913 15.2068C32.8829 15.2068 32.8541 15.1949 32.8327 15.1737C32.8114 15.1526 32.7992 15.1238 32.799 15.0938C32.799 15.0308 32.849 14.9798 32.912 14.9798ZM33.475 14.9798V14.9818C33.534 14.9818 33.582 15.0288 33.585 15.0878V15.0938C33.585 15.1548 33.535 15.2068 33.475 15.2068C33.4449 15.2068 33.4161 15.1949 33.3947 15.1737C33.3734 15.1526 33.3612 15.1238 33.361 15.0938C33.361 15.0308 33.411 14.9798 33.475 14.9798ZM34.037 14.9798V14.9818C34.097 14.9818 34.145 15.0288 34.148 15.0878V15.0938C34.148 15.1548 34.098 15.2068 34.038 15.2068C34.0079 15.2068 33.9791 15.1949 33.9577 15.1737C33.9364 15.1526 33.9242 15.1238 33.924 15.0938C33.924 15.0308 33.974 14.9798 34.037 14.9798ZM34.597 14.9798V14.9818C34.657 14.9818 34.707 15.0278 34.711 15.0878V15.0938C34.7107 15.1237 34.6987 15.1523 34.6776 15.1734C34.6565 15.1945 34.6279 15.2065 34.598 15.2068C34.5683 15.2063 34.5399 15.1941 34.519 15.173C34.4981 15.1519 34.4862 15.1235 34.486 15.0938C34.486 15.0308 34.536 14.9808 34.598 14.9798H34.597ZM16.455 17.8648C16.5796 17.8631 16.7033 17.8861 16.8189 17.9325C16.9346 17.9788 17.04 18.0476 17.129 18.1348C17.2187 18.2212 17.2904 18.3245 17.34 18.4387C17.3896 18.553 17.4161 18.6759 17.4181 18.8004C17.4201 18.9249 17.3974 19.0486 17.3514 19.1644C17.3053 19.2801 17.2369 19.3856 17.15 19.4748L15.342 21.3338C15.2557 21.4238 15.1524 21.4959 15.038 21.5456C14.9236 21.5953 14.8005 21.6218 14.6757 21.6235C14.551 21.6252 14.4272 21.602 14.3116 21.5554C14.1959 21.5087 14.0906 21.4395 14.002 21.3518C13.9122 21.2654 13.8404 21.1622 13.7907 21.048C13.741 20.9338 13.7144 20.8109 13.7124 20.6863C13.7103 20.5618 13.7329 20.4381 13.7788 20.3223C13.8248 20.2066 13.8931 20.101 13.98 20.0118L15.79 18.1538C15.8764 18.0642 15.9796 17.9926 16.0937 17.943C16.2078 17.8934 16.3306 17.8668 16.455 17.8648ZM20.018 17.8648V17.8668C20.1424 17.8653 20.2659 17.8883 20.3814 17.9347C20.4969 17.981 20.6021 18.0497 20.691 18.1368C20.7807 18.2231 20.8525 18.3264 20.9022 18.4406C20.9519 18.5548 20.9786 18.6777 20.9806 18.8022C20.9826 18.9267 20.9601 19.0504 20.9141 19.1662C20.8682 19.282 20.7998 19.3875 20.713 19.4768L18.904 21.3338C18.8177 21.4238 18.7144 21.4959 18.6 21.5456C18.4856 21.5953 18.3625 21.6218 18.2377 21.6235C18.113 21.6252 17.9892 21.602 17.8736 21.5554C17.7579 21.5087 17.6526 21.4395 17.564 21.3518C17.4743 21.2653 17.4026 21.162 17.353 21.0478C17.3034 20.9336 17.2768 20.8107 17.2749 20.6861C17.2729 20.5616 17.2956 20.4379 17.3416 20.3222C17.3876 20.2065 17.4561 20.101 17.543 20.0118L19.352 18.1538C19.4385 18.0641 19.5419 17.9924 19.6562 17.9428C19.7704 17.8932 19.8934 17.8667 20.018 17.8648ZM23.395 17.8648C23.5194 17.8632 23.6429 17.8863 23.7584 17.9327C23.8739 17.979 23.9791 18.0477 24.068 18.1348C24.1577 18.2211 24.2295 18.3244 24.2792 18.4386C24.3289 18.5528 24.3556 18.6757 24.3576 18.8002C24.3596 18.9247 24.3371 19.0484 24.2911 19.1642C24.2452 19.28 24.1768 19.3855 24.09 19.4748L22.281 21.3338C22.1947 21.4238 22.0914 21.4959 21.977 21.5456C21.8626 21.5953 21.7395 21.6218 21.6147 21.6235C21.49 21.6252 21.3662 21.602 21.2506 21.5554C21.1349 21.5087 21.0296 21.4395 20.941 21.3518C20.8513 21.2653 20.7796 21.162 20.73 21.0478C20.6804 20.9336 20.6538 20.8107 20.6519 20.6861C20.6499 20.5616 20.6726 20.4379 20.7186 20.3222C20.7646 20.2065 20.8331 20.101 20.92 20.0118L22.728 18.1538C22.8145 18.0641 22.9179 17.9924 23.0322 17.9428C23.1464 17.8932 23.2694 17.8667 23.394 17.8648H23.395ZM26.957 17.8648C27.0816 17.8631 27.2053 17.8861 27.3209 17.9325C27.4366 17.9788 27.542 18.0476 27.631 18.1348C27.7207 18.2212 27.7924 18.3245 27.842 18.4387C27.8916 18.553 27.9181 18.6759 27.9201 18.8004C27.9221 18.9249 27.8994 19.0486 27.8534 19.1644C27.8073 19.2801 27.7389 19.3856 27.652 19.4748L25.844 21.3338C25.7577 21.4238 25.6544 21.4959 25.54 21.5456C25.4256 21.5953 25.3025 21.6218 25.1777 21.6235C25.053 21.6252 24.9292 21.602 24.8136 21.5554C24.6979 21.5087 24.5926 21.4395 24.504 21.3518C24.4142 21.2654 24.3424 21.1622 24.2927 21.048C24.243 20.9338 24.2164 20.8109 24.2144 20.6863C24.2123 20.5618 24.2349 20.4381 24.2808 20.3223C24.3268 20.2066 24.3951 20.101 24.482 20.0118L26.291 18.1538C26.3775 18.0641 26.4809 17.9924 26.5951 17.9428C26.7094 17.8932 26.8324 17.8667 26.957 17.8648ZM30.158 17.8648C30.2826 17.8631 30.4063 17.8861 30.5219 17.9325C30.6376 17.9788 30.743 18.0476 30.832 18.1348C30.9217 18.2212 30.9934 18.3245 31.043 18.4387C31.0926 18.553 31.1191 18.6759 31.1211 18.8004C31.1231 18.9249 31.1004 19.0486 31.0544 19.1644C31.0083 19.2801 30.9399 19.3856 30.853 19.4748L29.045 21.3338C28.9587 21.4238 28.8554 21.4959 28.741 21.5456C28.6266 21.5953 28.5035 21.6218 28.3787 21.6235C28.254 21.6252 28.1302 21.602 28.0146 21.5554C27.8989 21.5087 27.7936 21.4395 27.705 21.3518C27.6153 21.2653 27.5436 21.162 27.494 21.0478C27.4444 20.9336 27.4178 20.8107 27.4159 20.6861C27.4139 20.5616 27.4366 20.4379 27.4826 20.3222C27.5286 20.2065 27.5971 20.101 27.684 20.0118L29.492 18.1538C29.5785 18.0641 29.6819 17.9924 29.7962 17.9428C29.9104 17.8932 30.0334 17.8667 30.158 17.8648ZM33.721 17.8648C33.8456 17.8631 33.9693 17.8861 34.0849 17.9325C34.2006 17.9788 34.306 18.0476 34.395 18.1348C34.4847 18.2212 34.5564 18.3245 34.606 18.4387C34.6556 18.553 34.6821 18.6759 34.6841 18.8004C34.686 18.9249 34.6634 19.0486 34.6174 19.1644C34.5713 19.2801 34.5029 19.3856 34.416 19.4748L32.607 21.3338C32.5207 21.4238 32.4174 21.4959 32.303 21.5456C32.1886 21.5953 32.0655 21.6218 31.9407 21.6235C31.816 21.6252 31.6922 21.602 31.5766 21.5554C31.4609 21.5087 31.3556 21.4395 31.267 21.3518C31.1774 21.2653 31.1057 21.1619 31.0562 21.0477C31.0067 20.9334 30.9802 20.8105 30.9784 20.6859C30.9765 20.5614 30.9993 20.4377 31.0454 20.322C31.0915 20.2063 31.16 20.1009 31.247 20.0118L33.055 18.1538C33.1415 18.0641 33.2449 17.9924 33.3591 17.9428C33.4734 17.8932 33.5964 17.8667 33.721 17.8648ZM13.795 23.9808C13.858 23.9808 13.909 24.0308 13.908 24.0938C13.9077 24.1237 13.8957 24.1523 13.8746 24.1734C13.8535 24.1945 13.8249 24.2065 13.795 24.2068C13.7654 24.206 13.7374 24.1938 13.7166 24.1727C13.6959 24.1516 13.6842 24.1233 13.684 24.0938C13.684 24.0308 13.733 23.9808 13.794 23.9798L13.795 23.9808ZM14.357 23.9808V23.9818C14.3839 23.981 14.4102 23.9901 14.4309 24.0075C14.4515 24.0248 14.4651 24.0491 14.469 24.0758V24.0938C14.468 24.1548 14.419 24.2068 14.357 24.2068C14.3272 24.2063 14.2987 24.1942 14.2776 24.1731C14.2566 24.152 14.2445 24.1236 14.244 24.0938C14.244 24.0308 14.295 23.9808 14.357 23.9798V23.9808ZM14.92 23.9808V23.9818C14.9468 23.9812 14.9728 23.9905 14.9932 24.0078C15.0137 24.0251 15.0271 24.0493 15.031 24.0758V24.0938C15.031 24.1548 14.981 24.2068 14.92 24.2068C14.8901 24.2065 14.8615 24.1945 14.8404 24.1734C14.8192 24.1523 14.8072 24.1237 14.807 24.0938C14.807 24.0308 14.857 23.9798 14.92 23.9798V23.9808ZM15.482 23.9808V23.9818C15.542 23.9818 15.59 24.0288 15.594 24.0878V24.0938C15.593 24.1548 15.544 24.2068 15.482 24.2068C15.4521 24.2065 15.4235 24.1945 15.4024 24.1734C15.3812 24.1523 15.3692 24.1237 15.369 24.0938C15.369 24.0308 15.419 23.9798 15.482 23.9798V23.9808ZM16.045 23.9808V23.9818C16.105 23.9818 16.153 24.0288 16.156 24.0878V24.0938C16.156 24.1548 16.106 24.2068 16.045 24.2068C16.0151 24.2065 15.9865 24.1945 15.9654 24.1734C15.9442 24.1523 15.9322 24.1237 15.932 24.0938C15.932 24.0308 15.982 23.9798 16.045 23.9798V23.9808ZM16.607 23.9808V23.9818C16.667 23.9818 16.715 24.0288 16.719 24.0878V24.0938C16.718 24.1548 16.669 24.2068 16.607 24.2068C16.5771 24.2065 16.5485 24.1945 16.5274 24.1734C16.5062 24.1523 16.4942 24.1237 16.494 24.0938C16.494 24.0308 16.544 23.9798 16.607 23.9798V23.9808ZM17.168 23.9808V23.9818C17.228 23.9818 17.278 24.0278 17.281 24.0878V24.0938C17.2807 24.1237 17.2687 24.1523 17.2476 24.1734C17.2265 24.1945 17.1979 24.2065 17.168 24.2068C17.1384 24.206 17.1104 24.1938 17.0896 24.1727C17.0689 24.1516 17.0572 24.1233 17.057 24.0938C17.057 24.0308 17.106 23.9808 17.168 23.9798V23.9808ZM17.731 23.9808V23.9818C17.791 23.9818 17.841 24.0278 17.844 24.0878V24.0938C17.8437 24.1238 17.8316 24.1526 17.8102 24.1737C17.7889 24.1949 17.76 24.2068 17.73 24.2068C17.7006 24.2057 17.6728 24.1934 17.6523 24.1724C17.6318 24.1513 17.6202 24.1232 17.62 24.0938C17.619 24.0308 17.669 23.9808 17.73 23.9798L17.731 23.9808ZM18.293 23.9808V23.9818C18.353 23.9818 18.403 24.0278 18.406 24.0878V24.0938C18.4057 24.1237 18.3937 24.1523 18.3726 24.1734C18.3515 24.1945 18.3229 24.2065 18.293 24.2068C18.2634 24.206 18.2354 24.1938 18.2146 24.1727C18.1939 24.1516 18.1822 24.1233 18.182 24.0938C18.182 24.0308 18.231 23.9808 18.293 23.9798V23.9808ZM18.856 23.9808V23.9818C18.8826 23.9815 18.9084 23.9909 18.9286 24.0081C18.9488 24.0254 18.9621 24.0495 18.966 24.0758V24.0938C18.966 24.1548 18.916 24.2068 18.856 24.2068C18.8263 24.2063 18.7979 24.1942 18.777 24.173C18.7561 24.1519 18.7442 24.1235 18.744 24.0938C18.744 24.0308 18.794 23.9808 18.855 23.9798L18.856 23.9808ZM19.418 23.9808V23.9818C19.478 23.9818 19.526 24.0288 19.529 24.0878V24.0938C19.529 24.1548 19.479 24.2068 19.418 24.2068C19.3881 24.2065 19.3595 24.1945 19.3384 24.1734C19.3172 24.1523 19.3052 24.1237 19.305 24.0938C19.305 24.0308 19.355 23.9798 19.418 23.9798V23.9808ZM19.981 23.9808V23.9818C20.04 23.9818 20.088 24.0288 20.091 24.0878V24.0938C20.091 24.1548 20.041 24.2068 19.981 24.2068C19.9509 24.2068 19.9221 24.1949 19.9007 24.1737C19.8794 24.1526 19.8672 24.1238 19.867 24.0938C19.867 24.0308 19.917 23.9798 19.98 23.9798L19.981 23.9808ZM20.543 23.9808V23.9818C20.603 23.9818 20.651 24.0288 20.654 24.0878V24.0938C20.654 24.1548 20.604 24.2068 20.543 24.2068C20.5131 24.2065 20.4845 24.1945 20.4634 24.1734C20.4422 24.1523 20.4302 24.1237 20.43 24.0938C20.43 24.0308 20.48 23.9798 20.543 23.9798V23.9808ZM21.106 23.9808V23.9818C21.165 23.9818 21.213 24.0288 21.216 24.0878V24.0938C21.216 24.1548 21.166 24.2068 21.106 24.2068C21.0759 24.2068 21.0471 24.1949 21.0257 24.1737C21.0044 24.1526 20.9922 24.1238 20.992 24.0938C20.992 24.0308 21.042 23.9798 21.105 23.9798L21.106 23.9808ZM21.666 23.9808V23.9818C21.726 23.9818 21.776 24.0278 21.779 24.0878V24.0938C21.7787 24.1237 21.7667 24.1523 21.7456 24.1734C21.7245 24.1945 21.6959 24.2065 21.666 24.2068C21.6364 24.206 21.6084 24.1938 21.5876 24.1727C21.5669 24.1516 21.5552 24.1233 21.555 24.0938C21.555 24.0308 21.604 23.9808 21.666 23.9798V23.9808ZM22.229 23.9808V23.9818C22.289 23.9818 22.339 24.0278 22.342 24.0878V24.0938C22.3417 24.1237 22.3297 24.1523 22.3086 24.1734C22.2875 24.1945 22.2589 24.2065 22.229 24.2068C22.1993 24.2063 22.1709 24.1942 22.15 24.173C22.1291 24.1519 22.1172 24.1235 22.117 24.0938C22.117 24.0308 22.167 23.9808 22.228 23.9798L22.229 23.9808ZM22.791 23.9808C22.854 23.9808 22.905 24.0308 22.904 24.0938C22.9037 24.1237 22.8917 24.1523 22.8706 24.1734C22.8495 24.1945 22.8209 24.2065 22.791 24.2068C22.7614 24.206 22.7334 24.1938 22.7126 24.1727C22.6919 24.1516 22.6802 24.1233 22.68 24.0938C22.68 24.0308 22.729 23.9808 22.791 23.9798V23.9808ZM23.354 23.9808V23.9818C23.408 23.9818 23.457 24.0218 23.464 24.0758V24.0938C23.464 24.1548 23.414 24.2068 23.354 24.2068C23.3243 24.2063 23.2959 24.1942 23.275 24.173C23.2541 24.1519 23.2422 24.1235 23.242 24.0938C23.242 24.0308 23.292 23.9808 23.353 23.9798L23.354 23.9808ZM23.916 23.9808V23.9818C23.9428 23.9812 23.9688 23.9905 23.9892 24.0078C24.0097 24.0251 24.0231 24.0493 24.027 24.0758V24.0938C24.027 24.1548 23.977 24.2068 23.916 24.2068C23.8861 24.2065 23.8575 24.1945 23.8364 24.1734C23.8152 24.1523 23.8032 24.1237 23.803 24.0938C23.803 24.0308 23.853 23.9798 23.916 23.9798V23.9808ZM24.479 23.9808V23.9818C24.538 23.9818 24.586 24.0288 24.589 24.0878V24.0938C24.589 24.1548 24.539 24.2068 24.479 24.2068C24.4489 24.2068 24.4201 24.1949 24.3987 24.1737C24.3774 24.1526 24.3652 24.1238 24.365 24.0938C24.365 24.0308 24.415 23.9798 24.479 23.9798V23.9808ZM25.041 23.9808V23.9818C25.101 23.9818 25.149 24.0288 25.152 24.0878V24.0938C25.152 24.1548 25.102 24.2068 25.041 24.2068C25.0111 24.2065 24.9825 24.1945 24.9614 24.1734C24.9402 24.1523 24.9282 24.1237 24.928 24.0938C24.928 24.0308 24.978 23.9798 25.041 23.9798V23.9808ZM25.601 23.9808V23.9818C25.661 23.9818 25.711 24.0278 25.715 24.0878V24.0938C25.7147 24.1237 25.7027 24.1523 25.6816 24.1734C25.6605 24.1945 25.6319 24.2065 25.602 24.2068C25.5723 24.2063 25.5439 24.1942 25.523 24.173C25.5021 24.1519 25.4902 24.1235 25.49 24.0938C25.49 24.0308 25.54 23.9808 25.602 23.9798L25.601 23.9808ZM26.164 23.9808V23.9818C26.224 23.9818 26.274 24.0278 26.277 24.0878V24.0938C26.2767 24.1237 26.2647 24.1523 26.2436 24.1734C26.2225 24.1945 26.1939 24.2065 26.164 24.2068C26.1344 24.206 26.1064 24.1938 26.0856 24.1727C26.0649 24.1516 26.0532 24.1233 26.053 24.0938C26.053 24.0308 26.103 23.9808 26.164 23.9798V23.9808ZM26.727 23.9808V23.9818C26.787 23.9818 26.837 24.0278 26.84 24.0878V24.0938C26.8397 24.1237 26.8277 24.1523 26.8066 24.1734C26.7855 24.1945 26.7569 24.2065 26.727 24.2068C26.6973 24.2063 26.6689 24.1942 26.648 24.173C26.6271 24.1519 26.6152 24.1235 26.615 24.0938C26.615 24.0308 26.665 23.9808 26.727 23.9798V23.9808ZM27.289 23.9808C27.352 23.9808 27.403 24.0308 27.402 24.0938C27.4017 24.1237 27.3897 24.1523 27.3686 24.1734C27.3475 24.1945 27.3189 24.2065 27.289 24.2068C27.2594 24.206 27.2314 24.1938 27.2106 24.1727C27.1899 24.1516 27.1782 24.1233 27.178 24.0938C27.178 24.0308 27.228 23.9808 27.289 23.9798V23.9808ZM27.852 23.9808V23.9818C27.8786 23.9815 27.9044 23.9909 27.9246 24.0081C27.9448 24.0254 27.9581 24.0495 27.962 24.0758C27.964 24.0838 27.964 24.0858 27.962 24.0938C27.962 24.1548 27.912 24.2068 27.852 24.2068C27.8223 24.2063 27.7939 24.1942 27.773 24.173C27.7521 24.1519 27.7402 24.1235 27.74 24.0938C27.74 24.0308 27.79 23.9808 27.852 23.9798V23.9808ZM28.414 23.9808V23.9818C28.474 23.9818 28.522 24.0288 28.525 24.0878V24.0938C28.525 24.1548 28.475 24.2068 28.415 24.2068C28.3849 24.2068 28.3561 24.1949 28.3347 24.1737C28.3134 24.1526 28.3012 24.1238 28.301 24.0938C28.301 24.0308 28.351 23.9798 28.414 23.9798V23.9808ZM28.977 23.9808V23.9818C29.036 23.9818 29.084 24.0288 29.087 24.0878V24.0938C29.087 24.1548 29.037 24.2068 28.977 24.2068C28.9469 24.2068 28.9181 24.1949 28.8967 24.1737C28.8754 24.1526 28.8632 24.1238 28.863 24.0938C28.863 24.0308 28.913 23.9798 28.977 23.9798V23.9808ZM29.539 23.9808V23.9818C29.599 23.9818 29.647 24.0288 29.65 24.0878V24.0938C29.65 24.1548 29.6 24.2068 29.54 24.2068C29.5099 24.2068 29.4811 24.1949 29.4597 24.1737C29.4384 24.1526 29.4262 24.1238 29.426 24.0938C29.426 24.0308 29.476 23.9798 29.539 23.9798V23.9808ZM30.099 23.9808V23.9818C30.159 23.9818 30.209 24.0278 30.213 24.0878V24.0938C30.2127 24.1237 30.2007 24.1523 30.1796 24.1734C30.1585 24.1945 30.1299 24.2065 30.1 24.2068C30.0703 24.2063 30.0419 24.1942 30.021 24.173C30.0001 24.1519 29.9882 24.1235 29.988 24.0938C29.988 24.0308 30.038 23.9808 30.1 23.9798L30.099 23.9808ZM30.662 23.9808V23.9818C30.722 23.9818 30.772 24.0278 30.775 24.0878V24.0938C30.7747 24.1237 30.7627 24.1523 30.7416 24.1734C30.7205 24.1945 30.6919 24.2065 30.662 24.2068C30.6324 24.206 30.6044 24.1938 30.5836 24.1727C30.5629 24.1516 30.5512 24.1233 30.551 24.0938C30.551 24.0308 30.601 23.9808 30.662 23.9798V23.9808ZM31.225 23.9808V23.9818C31.285 23.9818 31.335 24.0278 31.338 24.0878V24.0938C31.3377 24.1237 31.3257 24.1523 31.3046 24.1734C31.2835 24.1945 31.2549 24.2065 31.225 24.2068C31.1953 24.2063 31.1669 24.1942 31.146 24.173C31.1251 24.1519 31.1132 24.1235 31.113 24.0938C31.113 24.0308 31.163 23.9808 31.225 23.9798V23.9808ZM31.787 23.9808V23.9818C31.8138 23.9812 31.8398 23.9905 31.8602 24.0078C31.8807 24.0251 31.8941 24.0493 31.898 24.0758V24.0938C31.898 24.1548 31.848 24.2068 31.788 24.2068C31.7583 24.2063 31.7299 24.1942 31.709 24.173C31.6881 24.1519 31.6762 24.1235 31.676 24.0938C31.675 24.0308 31.726 23.9808 31.787 23.9798V23.9808ZM32.35 23.9808V23.9818C32.3766 23.9815 32.4024 23.9909 32.4226 24.0081C32.4428 24.0254 32.4561 24.0495 32.46 24.0758C32.462 24.0838 32.462 24.0858 32.46 24.0938C32.46 24.1548 32.41 24.2068 32.35 24.2068C32.3199 24.2068 32.2911 24.1949 32.2697 24.1737C32.2484 24.1526 32.2362 24.1238 32.236 24.0938C32.236 24.0308 32.286 23.9798 32.35 23.9798V23.9808ZM32.912 23.9808V23.9818C32.972 23.9818 33.02 24.0288 33.023 24.0878V24.0938C33.023 24.1548 32.973 24.2068 32.913 24.2068C32.8829 24.2068 32.8541 24.1949 32.8327 24.1737C32.8114 24.1526 32.7992 24.1238 32.799 24.0938C32.799 24.0308 32.849 23.9798 32.912 23.9798V23.9808ZM33.475 23.9808V23.9818C33.534 23.9818 33.582 24.0288 33.585 24.0878V24.0938C33.585 24.1548 33.535 24.2068 33.475 24.2068C33.4449 24.2068 33.4161 24.1949 33.3947 24.1737C33.3734 24.1526 33.3612 24.1238 33.361 24.0938C33.361 24.0308 33.411 23.9798 33.475 23.9798V23.9808ZM34.037 23.9808V23.9818C34.097 23.9818 34.145 24.0288 34.148 24.0878V24.0938C34.148 24.1548 34.098 24.2068 34.038 24.2068C34.0079 24.2068 33.9791 24.1949 33.9577 24.1737C33.9364 24.1526 33.9242 24.1238 33.924 24.0938C33.924 24.0308 33.974 23.9798 34.037 23.9798V23.9808ZM34.597 23.9808V23.9818C34.657 23.9818 34.707 24.0278 34.711 24.0878V24.0938C34.7107 24.1237 34.6987 24.1523 34.6776 24.1734C34.6565 24.1945 34.6279 24.2065 34.598 24.2068C34.5683 24.2063 34.5399 24.1942 34.519 24.173C34.4981 24.1519 34.4862 24.1235 34.486 24.0938C34.486 24.0308 34.536 23.9808 34.598 23.9798L34.597 23.9808ZM16.455 26.5328C16.5796 26.5311 16.7033 26.5541 16.8189 26.6005C16.9346 26.6468 17.04 26.7156 17.129 26.8028C17.2187 26.8892 17.2904 26.9925 17.34 27.1067C17.3896 27.221 17.4161 27.3439 17.4181 27.4684C17.4201 27.5929 17.3974 27.7166 17.3514 27.8324C17.3053 27.9481 17.2369 28.0536 17.15 28.1428L15.342 30.0018C15.2556 30.0916 15.1522 30.1634 15.0378 30.213C14.9234 30.2626 14.8004 30.289 14.6757 30.2906C14.5511 30.2923 14.4274 30.2692 14.3117 30.2227C14.1961 30.1762 14.0908 30.1073 14.002 30.0198C13.9122 29.9334 13.8404 29.8302 13.7907 29.716C13.741 29.6018 13.7144 29.4789 13.7124 29.3543C13.7103 29.2298 13.7329 29.1061 13.7788 28.9903C13.8248 28.8746 13.8931 28.769 13.98 28.6798L15.79 26.8218C15.8763 26.7322 15.9795 26.6606 16.0937 26.611C16.2078 26.5614 16.3306 26.5348 16.455 26.5328ZM20.018 26.5328V26.5348C20.1424 26.5333 20.2659 26.5563 20.3814 26.6027C20.4969 26.649 20.6021 26.7177 20.691 26.8048C20.7807 26.8911 20.8525 26.9944 20.9022 27.1086C20.9519 27.2228 20.9786 27.3457 20.9806 27.4702C20.9826 27.5947 20.9601 27.7184 20.9141 27.8342C20.8682 27.95 20.7998 28.0555 20.713 28.1448L18.904 30.0018C18.8176 30.0916 18.7142 30.1634 18.5998 30.213C18.4854 30.2626 18.3624 30.289 18.2377 30.2906C18.1131 30.2923 17.9894 30.2692 17.8737 30.2227C17.7581 30.1762 17.6528 30.1073 17.564 30.0198C17.4743 29.9333 17.4026 29.83 17.353 29.7158C17.3034 29.6016 17.2768 29.4787 17.2749 29.3541C17.2729 29.2296 17.2956 29.1059 17.3416 28.9902C17.3876 28.8745 17.4561 28.769 17.543 28.6798L19.352 26.8218C19.4385 26.7321 19.5418 26.6604 19.6561 26.6108C19.7704 26.5612 19.8934 26.5347 20.018 26.5328ZM23.395 26.5328C23.5194 26.5313 23.6429 26.5544 23.7584 26.6007C23.8739 26.6471 23.9791 26.7157 24.068 26.8028C24.1577 26.8891 24.2295 26.9924 24.2792 27.1066C24.3289 27.2208 24.3556 27.3437 24.3576 27.4682C24.3596 27.5927 24.3371 27.7164 24.2911 27.8322C24.2452 27.948 24.1768 28.0535 24.09 28.1428L22.281 30.0018C22.1946 30.0916 22.0912 30.1634 21.9768 30.213C21.8624 30.2626 21.7394 30.289 21.6147 30.2906C21.4901 30.2923 21.3664 30.2692 21.2507 30.2227C21.1351 30.1762 21.0298 30.1073 20.941 30.0198C20.8513 29.9333 20.7796 29.83 20.73 29.7158C20.6804 29.6016 20.6538 29.4787 20.6519 29.3541C20.6499 29.2296 20.6726 29.1059 20.7186 28.9902C20.7646 28.8745 20.8331 28.769 20.92 28.6798L22.728 26.8218C22.8145 26.7321 22.9178 26.6604 23.0321 26.6108C23.1464 26.5612 23.2694 26.5347 23.394 26.5328H23.395ZM26.957 26.5328C27.0816 26.5312 27.2052 26.5542 27.3209 26.6005C27.4366 26.6469 27.542 26.7156 27.631 26.8028C27.7207 26.8892 27.7924 26.9925 27.842 27.1067C27.8916 27.221 27.9181 27.3439 27.9201 27.4684C27.9221 27.5929 27.8994 27.7166 27.8534 27.8324C27.8073 27.9481 27.7389 28.0536 27.652 28.1428L25.844 30.0018C25.7576 30.0916 25.6542 30.1634 25.5398 30.213C25.4254 30.2626 25.3024 30.289 25.1777 30.2906C25.0531 30.2923 24.9294 30.2692 24.8137 30.2227C24.6981 30.1762 24.5928 30.1073 24.504 30.0198C24.4142 29.9334 24.3424 29.8302 24.2927 29.716C24.243 29.6018 24.2164 29.4789 24.2144 29.3543C24.2123 29.2298 24.2349 29.1061 24.2808 28.9903C24.3268 28.8746 24.3951 28.769 24.482 28.6798L26.291 26.8218C26.3775 26.7321 26.4808 26.6604 26.5951 26.6108C26.7094 26.5612 26.8324 26.5347 26.957 26.5328ZM30.158 26.5328C30.2826 26.5311 30.4063 26.5541 30.5219 26.6005C30.6376 26.6468 30.743 26.7156 30.832 26.8028C30.9217 26.8892 30.9934 26.9925 31.043 27.1067C31.0926 27.221 31.1191 27.3439 31.1211 27.4684C31.1231 27.5929 31.1004 27.7166 31.0544 27.8324C31.0083 27.9481 30.9399 28.0536 30.853 28.1428L29.045 30.0018C28.9586 30.0916 28.8552 30.1634 28.7408 30.213C28.6264 30.2626 28.5034 30.289 28.3787 30.2906C28.2541 30.2923 28.1304 30.2692 28.0147 30.2227C27.8991 30.1762 27.7938 30.1073 27.705 30.0198C27.6153 29.9333 27.5436 29.83 27.494 29.7158C27.4444 29.6016 27.4178 29.4787 27.4159 29.3541C27.4139 29.2296 27.4366 29.1059 27.4826 28.9902C27.5286 28.8745 27.5971 28.769 27.684 28.6798L29.492 26.8218C29.5785 26.7321 29.6818 26.6604 29.7961 26.6108C29.9104 26.5612 30.0334 26.5347 30.158 26.5328ZM33.721 26.5328C33.8456 26.5311 33.9693 26.5541 34.0849 26.6005C34.2006 26.6468 34.306 26.7156 34.395 26.8028C34.4847 26.8892 34.5564 26.9925 34.606 27.1067C34.6556 27.221 34.6821 27.3439 34.6841 27.4684C34.686 27.5929 34.6634 27.7166 34.6174 27.8324C34.5713 27.9481 34.5029 28.0536 34.416 28.1428L32.607 30.0018C32.5206 30.0916 32.4172 30.1634 32.3028 30.213C32.1884 30.2626 32.0654 30.289 31.9407 30.2906C31.8161 30.2923 31.6924 30.2692 31.5767 30.2227C31.4611 30.1762 31.3558 30.1073 31.267 30.0198C31.1774 29.9333 31.1057 29.8299 31.0562 29.7157C31.0067 29.6014 30.9802 29.4785 30.9784 29.3539C30.9765 29.2294 30.9993 29.1057 31.0454 28.99C31.0915 28.8743 31.16 28.7689 31.247 28.6798L33.055 26.8218C33.1415 26.7321 33.2448 26.6604 33.3591 26.6108C33.4734 26.5612 33.5964 26.5347 33.721 26.5328ZM13.795 32.9798C13.8232 32.9824 13.8495 32.9955 13.8686 33.0165C13.8877 33.0375 13.8983 33.0649 13.8983 33.0933C13.8983 33.1217 13.8877 33.149 13.8686 33.17C13.8495 33.191 13.8232 33.2041 13.795 33.2068C13.7654 33.206 13.7374 33.1938 13.7166 33.1727C13.6959 33.1516 13.6842 33.1233 13.684 33.0938C13.684 33.0308 13.733 32.9808 13.794 32.9798H13.795ZM14.357 32.9798V32.9818C14.3839 32.981 14.4102 32.9901 14.4309 33.0075C14.4515 33.0248 14.4651 33.0491 14.469 33.0758V33.0938C14.468 33.1548 14.419 33.2068 14.357 33.2068C14.3272 33.2063 14.2987 33.1942 14.2776 33.1731C14.2566 33.152 14.2445 33.1236 14.244 33.0938C14.244 33.0308 14.295 32.9808 14.357 32.9798ZM14.92 32.9798V32.9818C14.9468 32.9812 14.9728 32.9905 14.9932 33.0078C15.0137 33.0251 15.0271 33.0493 15.031 33.0758V33.0938C15.031 33.1548 14.981 33.2068 14.92 33.2068C14.8901 33.2065 14.8615 33.1945 14.8404 33.1734C14.8192 33.1523 14.8072 33.1237 14.807 33.0938C14.807 33.0308 14.857 32.9798 14.92 32.9798ZM15.482 32.9798V32.9818C15.542 32.9818 15.59 33.0288 15.594 33.0878V33.0938C15.593 33.1548 15.544 33.2068 15.482 33.2068C15.4521 33.2065 15.4235 33.1945 15.4024 33.1734C15.3812 33.1523 15.3692 33.1237 15.369 33.0938C15.369 33.0308 15.419 32.9798 15.482 32.9798ZM16.045 32.9798V32.9818C16.105 32.9818 16.153 33.0288 16.156 33.0878V33.0938C16.156 33.1548 16.106 33.2068 16.045 33.2068C16.0151 33.2065 15.9865 33.1945 15.9654 33.1734C15.9442 33.1523 15.9322 33.1237 15.932 33.0938C15.932 33.0308 15.982 32.9798 16.045 32.9798ZM16.607 32.9798V32.9818C16.667 32.9818 16.715 33.0288 16.719 33.0878V33.0938C16.718 33.1548 16.669 33.2068 16.607 33.2068C16.5771 33.2065 16.5485 33.1945 16.5274 33.1734C16.5062 33.1523 16.4942 33.1237 16.494 33.0938C16.494 33.0308 16.544 32.9798 16.607 32.9798ZM17.168 32.9798V32.9818C17.228 32.9818 17.278 33.0278 17.281 33.0878V33.0938C17.2807 33.1237 17.2687 33.1523 17.2476 33.1734C17.2265 33.1945 17.1979 33.2065 17.168 33.2068C17.1384 33.206 17.1104 33.1938 17.0896 33.1727C17.0689 33.1516 17.0572 33.1233 17.057 33.0938C17.057 33.0308 17.106 32.9808 17.168 32.9798ZM17.731 32.9798V32.9818C17.791 32.9818 17.841 33.0278 17.844 33.0878V33.0938C17.8437 33.1238 17.8316 33.1526 17.8102 33.1737C17.7889 33.1949 17.76 33.2068 17.73 33.2068C17.7006 33.2057 17.6728 33.1934 17.6523 33.1724C17.6318 33.1513 17.6202 33.1232 17.62 33.0938C17.619 33.0308 17.669 32.9808 17.73 32.9798H17.731ZM18.293 32.9798V32.9818C18.353 32.9818 18.403 33.0278 18.406 33.0878V33.0938C18.4057 33.1237 18.3937 33.1523 18.3726 33.1734C18.3515 33.1945 18.3229 33.2065 18.293 33.2068C18.2634 33.206 18.2354 33.1938 18.2146 33.1727C18.1939 33.1516 18.1822 33.1233 18.182 33.0938C18.182 33.0308 18.231 32.9808 18.293 32.9798ZM18.856 32.9798V32.9818C18.8826 32.9815 18.9084 32.9909 18.9286 33.0081C18.9488 33.0254 18.9621 33.0495 18.966 33.0758V33.0938C18.966 33.1548 18.916 33.2068 18.856 33.2068C18.8263 33.2063 18.7979 33.1941 18.777 33.173C18.7561 33.1519 18.7442 33.1235 18.744 33.0938C18.744 33.0308 18.794 32.9808 18.855 32.9798H18.856ZM19.418 32.9798V32.9818C19.478 32.9818 19.526 33.0288 19.529 33.0878V33.0938C19.529 33.1548 19.479 33.2068 19.418 33.2068C19.3881 33.2065 19.3595 33.1945 19.3384 33.1734C19.3172 33.1523 19.3052 33.1237 19.305 33.0938C19.305 33.0308 19.355 32.9798 19.418 32.9798ZM19.981 32.9798V32.9818C20.04 32.9818 20.088 33.0288 20.091 33.0878V33.0938C20.091 33.1548 20.041 33.2068 19.981 33.2068C19.9509 33.2068 19.9221 33.1949 19.9007 33.1737C19.8794 33.1526 19.8672 33.1238 19.867 33.0938C19.867 33.0308 19.917 32.9798 19.98 32.9798H19.981ZM20.543 32.9798V32.9818C20.603 32.9818 20.651 33.0288 20.654 33.0878V33.0938C20.654 33.1548 20.604 33.2068 20.543 33.2068C20.5131 33.2065 20.4845 33.1945 20.4634 33.1734C20.4422 33.1523 20.4302 33.1237 20.43 33.0938C20.43 33.0308 20.48 32.9798 20.543 32.9798ZM21.106 32.9798V32.9818C21.165 32.9818 21.213 33.0288 21.216 33.0878V33.0938C21.216 33.1548 21.166 33.2068 21.106 33.2068C21.0759 33.2068 21.0471 33.1949 21.0257 33.1737C21.0044 33.1526 20.9922 33.1238 20.992 33.0938C20.992 33.0308 21.042 32.9798 21.105 32.9798H21.106ZM21.666 32.9798V32.9818C21.726 32.9818 21.776 33.0278 21.779 33.0878V33.0938C21.7787 33.1237 21.7667 33.1523 21.7456 33.1734C21.7245 33.1945 21.6959 33.2065 21.666 33.2068C21.6364 33.206 21.6084 33.1938 21.5876 33.1727C21.5669 33.1516 21.5552 33.1233 21.555 33.0938C21.555 33.0308 21.604 32.9808 21.666 32.9798ZM22.229 32.9798V32.9818C22.289 32.9818 22.339 33.0278 22.342 33.0878V33.0938C22.3417 33.1237 22.3297 33.1523 22.3086 33.1734C22.2875 33.1945 22.2589 33.2065 22.229 33.2068C22.1993 33.2063 22.1709 33.1941 22.15 33.173C22.1291 33.1519 22.1172 33.1235 22.117 33.0938C22.117 33.0308 22.167 32.9808 22.228 32.9798H22.229ZM22.791 32.9798C22.8192 32.9824 22.8455 32.9955 22.8646 33.0165C22.8837 33.0375 22.8943 33.0649 22.8943 33.0933C22.8943 33.1217 22.8837 33.149 22.8646 33.17C22.8455 33.191 22.8192 33.2041 22.791 33.2068C22.7614 33.206 22.7334 33.1938 22.7126 33.1727C22.6919 33.1516 22.6802 33.1233 22.68 33.0938C22.68 33.0308 22.729 32.9808 22.791 32.9798ZM23.354 32.9798V32.9818C23.408 32.9818 23.457 33.0218 23.464 33.0758V33.0938C23.464 33.1548 23.414 33.2068 23.354 33.2068C23.3243 33.2063 23.2959 33.1941 23.275 33.173C23.2541 33.1519 23.2422 33.1235 23.242 33.0938C23.242 33.0308 23.292 32.9808 23.353 32.9798H23.354ZM23.916 32.9798V32.9818C23.9428 32.9812 23.9688 32.9905 23.9892 33.0078C24.0097 33.0251 24.0231 33.0493 24.027 33.0758V33.0938C24.027 33.1548 23.977 33.2068 23.916 33.2068C23.8861 33.2065 23.8575 33.1945 23.8364 33.1734C23.8152 33.1523 23.8032 33.1237 23.803 33.0938C23.803 33.0308 23.853 32.9798 23.916 32.9798ZM24.479 32.9798V32.9818C24.538 32.9818 24.586 33.0288 24.589 33.0878V33.0938C24.589 33.1548 24.539 33.2068 24.479 33.2068C24.4489 33.2068 24.4201 33.1949 24.3987 33.1737C24.3774 33.1526 24.3652 33.1238 24.365 33.0938C24.365 33.0308 24.415 32.9798 24.479 32.9798ZM25.041 32.9798V32.9818C25.101 32.9818 25.149 33.0288 25.152 33.0878V33.0938C25.152 33.1548 25.102 33.2068 25.041 33.2068C25.0111 33.2065 24.9825 33.1945 24.9614 33.1734C24.9402 33.1523 24.9282 33.1237 24.928 33.0938C24.928 33.0308 24.978 32.9798 25.041 32.9798ZM25.601 32.9798V32.9818C25.661 32.9818 25.711 33.0278 25.715 33.0878V33.0938C25.7147 33.1237 25.7027 33.1523 25.6816 33.1734C25.6605 33.1945 25.6319 33.2065 25.602 33.2068C25.5723 33.2063 25.5439 33.1941 25.523 33.173C25.5021 33.1519 25.4902 33.1235 25.49 33.0938C25.49 33.0308 25.54 32.9808 25.602 32.9798H25.601ZM26.164 32.9798V32.9818C26.224 32.9818 26.274 33.0278 26.277 33.0878V33.0938C26.2767 33.1237 26.2647 33.1523 26.2436 33.1734C26.2225 33.1945 26.1939 33.2065 26.164 33.2068C26.1344 33.206 26.1064 33.1938 26.0856 33.1727C26.0649 33.1516 26.0532 33.1233 26.053 33.0938C26.053 33.0308 26.103 32.9808 26.164 32.9798ZM26.727 32.9798V32.9818C26.787 32.9818 26.837 33.0278 26.84 33.0878V33.0938C26.8397 33.1237 26.8277 33.1523 26.8066 33.1734C26.7855 33.1945 26.7569 33.2065 26.727 33.2068C26.6973 33.2063 26.6689 33.1941 26.648 33.173C26.6271 33.1519 26.6152 33.1235 26.615 33.0938C26.615 33.0308 26.665 32.9808 26.727 32.9798ZM27.289 32.9798C27.3172 32.9824 27.3435 32.9955 27.3626 33.0165C27.3817 33.0375 27.3923 33.0649 27.3923 33.0933C27.3923 33.1217 27.3817 33.149 27.3626 33.17C27.3435 33.191 27.3172 33.2041 27.289 33.2068C27.2594 33.206 27.2314 33.1938 27.2106 33.1727C27.1899 33.1516 27.1782 33.1233 27.178 33.0938C27.178 33.0308 27.228 32.9808 27.289 32.9798ZM27.852 32.9798V32.9818C27.8786 32.9815 27.9044 32.9909 27.9246 33.0081C27.9448 33.0254 27.9581 33.0495 27.962 33.0758C27.964 33.0838 27.964 33.0858 27.962 33.0938C27.962 33.1548 27.912 33.2068 27.852 33.2068C27.8223 33.2063 27.7939 33.1941 27.773 33.173C27.7521 33.1519 27.7402 33.1235 27.74 33.0938C27.74 33.0308 27.79 32.9808 27.852 32.9798ZM28.414 32.9798V32.9818C28.474 32.9818 28.522 33.0288 28.525 33.0878V33.0938C28.525 33.1548 28.475 33.2068 28.415 33.2068C28.3849 33.2068 28.3561 33.1949 28.3347 33.1737C28.3134 33.1526 28.3012 33.1238 28.301 33.0938C28.301 33.0308 28.351 32.9798 28.414 32.9798ZM28.977 32.9798V32.9818C29.036 32.9818 29.084 33.0288 29.087 33.0878V33.0938C29.087 33.1548 29.037 33.2068 28.977 33.2068C28.9469 33.2068 28.9181 33.1949 28.8967 33.1737C28.8754 33.1526 28.8632 33.1238 28.863 33.0938C28.863 33.0308 28.913 32.9798 28.977 32.9798ZM29.539 32.9798V32.9818C29.599 32.9818 29.647 33.0288 29.65 33.0878V33.0938C29.65 33.1548 29.6 33.2068 29.54 33.2068C29.5099 33.2068 29.4811 33.1949 29.4597 33.1737C29.4384 33.1526 29.4262 33.1238 29.426 33.0938C29.426 33.0308 29.476 32.9798 29.539 32.9798ZM30.099 32.9798V32.9818C30.159 32.9818 30.209 33.0278 30.213 33.0878V33.0938C30.2127 33.1237 30.2007 33.1523 30.1796 33.1734C30.1585 33.1945 30.1299 33.2065 30.1 33.2068C30.0703 33.2063 30.0419 33.1941 30.021 33.173C30.0001 33.1519 29.9882 33.1235 29.988 33.0938C29.988 33.0308 30.038 32.9808 30.1 32.9798H30.099ZM30.662 32.9798V32.9818C30.722 32.9818 30.772 33.0278 30.775 33.0878V33.0938C30.7747 33.1237 30.7627 33.1523 30.7416 33.1734C30.7205 33.1945 30.6919 33.2065 30.662 33.2068C30.6324 33.206 30.6044 33.1938 30.5836 33.1727C30.5629 33.1516 30.5512 33.1233 30.551 33.0938C30.551 33.0308 30.601 32.9808 30.662 32.9798ZM31.225 32.9798V32.9818C31.285 32.9818 31.335 33.0278 31.338 33.0878V33.0938C31.3377 33.1237 31.3257 33.1523 31.3046 33.1734C31.2835 33.1945 31.2549 33.2065 31.225 33.2068C31.1953 33.2063 31.1669 33.1941 31.146 33.173C31.1251 33.1519 31.1132 33.1235 31.113 33.0938C31.113 33.0308 31.163 32.9808 31.225 32.9798ZM31.787 32.9798V32.9818C31.8138 32.9812 31.8398 32.9905 31.8602 33.0078C31.8807 33.0251 31.8941 33.0493 31.898 33.0758V33.0938C31.898 33.1548 31.848 33.2068 31.788 33.2068C31.7583 33.2063 31.7299 33.1941 31.709 33.173C31.6881 33.1519 31.6762 33.1235 31.676 33.0938C31.675 33.0308 31.726 32.9808 31.787 32.9798ZM32.35 32.9798V32.9818C32.3766 32.9815 32.4024 32.9909 32.4226 33.0081C32.4428 33.0254 32.4561 33.0495 32.46 33.0758C32.462 33.0838 32.462 33.0858 32.46 33.0938C32.46 33.1548 32.41 33.2068 32.35 33.2068C32.3199 33.2068 32.2911 33.1949 32.2697 33.1737C32.2484 33.1526 32.2362 33.1238 32.236 33.0938C32.236 33.0308 32.286 32.9798 32.35 32.9798ZM32.912 32.9798V32.9818C32.972 32.9818 33.02 33.0288 33.023 33.0878V33.0938C33.023 33.1548 32.973 33.2068 32.913 33.2068C32.8829 33.2068 32.8541 33.1949 32.8327 33.1737C32.8114 33.1526 32.7992 33.1238 32.799 33.0938C32.799 33.0308 32.849 32.9798 32.912 32.9798ZM33.475 32.9798V32.9818C33.534 32.9818 33.582 33.0288 33.585 33.0878V33.0938C33.585 33.1548 33.535 33.2068 33.475 33.2068C33.4449 33.2068 33.4161 33.1949 33.3947 33.1737C33.3734 33.1526 33.3612 33.1238 33.361 33.0938C33.361 33.0308 33.411 32.9798 33.475 32.9798ZM34.037 32.9798V32.9818C34.097 32.9818 34.145 33.0288 34.148 33.0878V33.0938C34.148 33.1548 34.098 33.2068 34.038 33.2068C34.0079 33.2068 33.9791 33.1949 33.9577 33.1737C33.9364 33.1526 33.9242 33.1238 33.924 33.0938C33.924 33.0308 33.974 32.9798 34.037 32.9798ZM34.597 32.9798V32.9818C34.657 32.9818 34.707 33.0278 34.711 33.0878V33.0938C34.7107 33.1237 34.6987 33.1523 34.6776 33.1734C34.6565 33.1945 34.6279 33.2065 34.598 33.2068C34.5683 33.2063 34.5399 33.1941 34.519 33.173C34.4981 33.1519 34.4862 33.1235 34.486 33.0938C34.486 33.0308 34.536 32.9808 34.598 32.9798H34.597ZM18.237 35.1998C18.3613 35.1982 18.4848 35.2211 18.6003 35.2673C18.7157 35.3134 18.821 35.3819 18.91 35.4688C18.9997 35.5551 19.0715 35.6584 19.1212 35.7726C19.1709 35.8868 19.1976 36.0097 19.1996 36.1342C19.2016 36.2587 19.1791 36.3824 19.1331 36.4982C19.0872 36.614 19.0188 36.7195 18.932 36.8088L17.123 38.6678C17.0365 38.7575 16.9331 38.8293 16.8187 38.8788C16.7043 38.9283 16.5812 38.9546 16.4565 38.9561C16.3319 38.9577 16.2082 38.9346 16.0926 38.888C15.9769 38.8414 15.8717 38.7723 15.783 38.6848C15.6933 38.5984 15.6216 38.4951 15.572 38.3808C15.5224 38.2666 15.4958 38.1437 15.4939 38.0191C15.4919 37.8946 15.5146 37.7709 15.5606 37.6552C15.6066 37.5395 15.6751 37.434 15.762 37.3448L17.57 35.4878C17.6565 35.3981 17.7599 35.3264 17.8741 35.2768C17.9884 35.2272 18.1114 35.2007 18.236 35.1988L18.237 35.1998ZM21.799 35.1998C21.9235 35.198 22.0471 35.2209 22.1628 35.2671C22.2785 35.3132 22.3839 35.3818 22.473 35.4688C22.5627 35.5552 22.6344 35.6585 22.684 35.7727C22.7336 35.887 22.7601 36.0099 22.7621 36.1344C22.764 36.2589 22.7414 36.3826 22.6954 36.4984C22.6493 36.6141 22.5809 36.7196 22.494 36.8088L20.686 38.6678C20.5995 38.7575 20.4961 38.8293 20.3817 38.8788C20.2673 38.9283 20.1442 38.9546 20.0195 38.9561C19.8949 38.9577 19.7712 38.9346 19.6556 38.888C19.5399 38.8414 19.4347 38.7723 19.346 38.6848C19.2562 38.5984 19.1844 38.4952 19.1347 38.381C19.085 38.2668 19.0584 38.1439 19.0564 38.0193C19.0543 37.8948 19.0769 37.7711 19.1228 37.6553C19.1688 37.5396 19.2371 37.434 19.324 37.3448L21.133 35.4878C21.2195 35.3981 21.3229 35.3264 21.4371 35.2768C21.5514 35.2272 21.6744 35.2007 21.799 35.1988V35.1998ZM25.176 35.1998C25.3005 35.198 25.4242 35.2208 25.5398 35.267C25.6555 35.3132 25.7609 35.3817 25.85 35.4688C25.9397 35.5552 26.0114 35.6585 26.061 35.7727C26.1106 35.887 26.1371 36.0099 26.1391 36.1344C26.1411 36.2589 26.1184 36.3826 26.0724 36.4984C26.0263 36.6141 25.9579 36.7196 25.871 36.8088L24.063 38.6678C23.9765 38.7575 23.8731 38.8293 23.7587 38.8788C23.6443 38.9283 23.5212 38.9546 23.3965 38.9561C23.2719 38.9577 23.1482 38.9346 23.0326 38.888C22.9169 38.8414 22.8117 38.7723 22.723 38.6848C22.6332 38.5984 22.5614 38.4952 22.5117 38.381C22.462 38.2668 22.4354 38.1439 22.4334 38.0193C22.4313 37.8948 22.4539 37.7711 22.4998 37.6553C22.5458 37.5396 22.6141 37.434 22.701 37.3448L24.51 35.4878C24.5965 35.3981 24.6998 35.3264 24.8141 35.2768C24.9284 35.2272 25.0514 35.2007 25.176 35.1988V35.1998ZM28.738 35.1998C28.8625 35.198 28.9862 35.2208 29.1018 35.267C29.2175 35.3132 29.3229 35.3817 29.412 35.4688C29.5017 35.5551 29.5735 35.6584 29.6232 35.7726C29.6729 35.8868 29.6996 36.0097 29.7016 36.1342C29.7036 36.2587 29.6811 36.3824 29.6351 36.4982C29.5892 36.614 29.5208 36.7195 29.434 36.8088L27.625 38.6678C27.5385 38.7575 27.4351 38.8293 27.3207 38.8788C27.2063 38.9283 27.0832 38.9546 26.9585 38.9561C26.8339 38.9577 26.7102 38.9346 26.5946 38.888C26.4789 38.8414 26.3737 38.7723 26.285 38.6848C26.1953 38.5984 26.1236 38.4951 26.074 38.3808C26.0244 38.2666 25.9978 38.1437 25.9959 38.0191C25.9939 37.8946 26.0166 37.7709 26.0626 37.6552C26.1086 37.5395 26.1771 37.434 26.264 37.3448L28.072 35.4878C28.1585 35.3981 28.2618 35.3264 28.3761 35.2768C28.4904 35.2272 28.6134 35.2007 28.738 35.1988V35.1998ZM31.939 35.1998C32.0635 35.198 32.1872 35.2208 32.3028 35.267C32.4185 35.3132 32.5239 35.3817 32.613 35.4688C32.7027 35.5551 32.7745 35.6584 32.8242 35.7726C32.8739 35.8868 32.9006 36.0097 32.9026 36.1342C32.9046 36.2587 32.8821 36.3824 32.8361 36.4982C32.7902 36.614 32.7218 36.7195 32.635 36.8088L30.826 38.6678C30.7395 38.7575 30.6361 38.8293 30.5217 38.8788C30.4073 38.9283 30.2842 38.9546 30.1595 38.9561C30.0349 38.9577 29.9112 38.9346 29.7956 38.888C29.6799 38.8414 29.5747 38.7723 29.486 38.6848C29.3963 38.5984 29.3246 38.4951 29.275 38.3808C29.2254 38.2666 29.1988 38.1437 29.1969 38.0191C29.1949 37.8946 29.2176 37.7709 29.2636 37.6552C29.3096 37.5395 29.3781 37.434 29.465 37.3448L31.273 35.4878C31.3595 35.3981 31.4629 35.3264 31.5772 35.2768C31.6914 35.2272 31.8144 35.2007 31.939 35.1988V35.1998Z" fill="#333333"/>
</svg>
