<svg width="48" height="48" viewBox="0 0 48 48" fill="none" xmlns="http://www.w3.org/2000/svg">
<path d="M14.412 4.09377C13.542 4.09377 12.844 4.79277 12.844 5.66177V42.5228C12.844 43.3928 13.543 44.0928 14.412 44.0928H34.117C34.987 44.0928 35.686 43.3928 35.686 42.5228V5.66277C35.686 4.79277 34.986 4.09277 34.117 4.09277H14.412V4.09377ZM14.842 4.59377H33.682C34.512 4.59377 35.184 5.27677 35.184 6.12477V42.0648C35.184 42.9118 34.513 43.5938 33.682 43.5938H14.842C14.01 43.5938 13.342 42.9118 13.342 42.0638V6.12477C13.342 5.27677 14.01 4.59377 14.842 4.59377ZM18.93 9.21877V9.22077C18.8054 9.22266 18.6824 9.24917 18.5681 9.29876C18.4538 9.34836 18.3505 9.42008 18.264 9.50977L16.455 11.3668C16.3681 11.456 16.2998 11.5616 16.2538 11.6773C16.2079 11.7931 16.1853 11.9168 16.1874 12.0413C16.1894 12.1659 16.2161 12.2888 16.2658 12.403C16.3155 12.5172 16.3872 12.6204 16.477 12.7068C16.5661 12.7938 16.6716 12.8623 16.7873 12.9084C16.903 12.9545 17.0266 12.9773 17.1512 12.9754C17.2757 12.9735 17.3986 12.9471 17.5129 12.8975C17.6272 12.848 17.7305 12.7764 17.817 12.6868L19.625 10.8278C19.7119 10.7386 19.7804 10.6331 19.8264 10.5174C19.8724 10.4016 19.8951 10.2779 19.8931 10.1534C19.8912 10.0289 19.8646 9.90596 19.815 9.79173C19.7654 9.6775 19.6937 9.5742 19.604 9.48777C19.515 9.40055 19.4096 9.3318 19.294 9.28546C19.1783 9.23912 19.0546 9.21612 18.93 9.21777V9.21877ZM22.043 9.21877V9.22077C21.9184 9.22266 21.7954 9.24917 21.6811 9.29876C21.5668 9.34836 21.4635 9.42008 21.377 9.50977L19.568 11.3668C19.4811 11.456 19.4128 11.5616 19.3668 11.6773C19.3209 11.7931 19.2983 11.9168 19.3004 12.0413C19.3024 12.1659 19.3291 12.2888 19.3788 12.403C19.4285 12.5172 19.5003 12.6204 19.59 12.7068C19.6791 12.7938 19.7846 12.8623 19.9003 12.9084C20.016 12.9545 20.1396 12.9773 20.2642 12.9754C20.3887 12.9735 20.5116 12.9471 20.6259 12.8975C20.7402 12.848 20.8435 12.7764 20.93 12.6868L22.738 10.8278C22.8249 10.7386 22.8934 10.6331 22.9394 10.5174C22.9854 10.4016 23.0081 10.2779 23.0061 10.1534C23.0042 10.0289 22.9776 9.90596 22.928 9.79173C22.8784 9.6775 22.8067 9.5742 22.717 9.48777C22.628 9.40055 22.5226 9.3318 22.407 9.28546C22.2913 9.23912 22.1676 9.21612 22.043 9.21777V9.21877ZM25.154 9.21877V9.22077C25.0294 9.22266 24.9064 9.24917 24.7921 9.29876C24.6778 9.34836 24.5745 9.42008 24.488 9.50977L22.68 11.3668C22.5931 11.456 22.5246 11.5615 22.4786 11.6772C22.4326 11.7929 22.4099 11.9166 22.4119 12.0411C22.4138 12.1657 22.4404 12.2886 22.49 12.4028C22.5396 12.517 22.6113 12.6203 22.701 12.7068C22.7901 12.7938 22.8956 12.8623 23.0113 12.9084C23.127 12.9545 23.2506 12.9773 23.3752 12.9754C23.4997 12.9735 23.6226 12.9471 23.7369 12.8975C23.8512 12.848 23.9545 12.7764 24.041 12.6868L25.85 10.8278C25.9369 10.7385 26.0052 10.633 26.0511 10.5172C26.0971 10.4014 26.1197 10.2777 26.1176 10.1532C26.1156 10.0287 26.0889 9.90577 26.0392 9.79157C25.9895 9.67738 25.9177 9.57413 25.828 9.48777C25.739 9.40055 25.6336 9.3318 25.518 9.28546C25.4023 9.23912 25.2786 9.21612 25.154 9.21777V9.21877ZM28.268 9.21877V9.22077C28.1434 9.22266 28.0204 9.24917 27.9061 9.29876C27.7918 9.34836 27.6885 9.42008 27.602 9.50977L25.793 11.3668C25.7061 11.456 25.6376 11.5615 25.5916 11.6772C25.5456 11.7929 25.5229 11.9166 25.5249 12.0411C25.5268 12.1657 25.5534 12.2886 25.603 12.4028C25.6526 12.517 25.7243 12.6203 25.814 12.7068C25.9031 12.7938 26.0086 12.8623 26.1243 12.9084C26.24 12.9545 26.3636 12.9773 26.4882 12.9754C26.6127 12.9735 26.7356 12.9471 26.8499 12.8975C26.9642 12.848 27.0675 12.7764 27.154 12.6868L28.963 10.8278C29.0499 10.7385 29.1182 10.633 29.1641 10.5172C29.2101 10.4014 29.2327 10.2777 29.2306 10.1532C29.2286 10.0287 29.2019 9.90577 29.1522 9.79157C29.1025 9.67738 29.0307 9.57413 28.941 9.48777C28.8521 9.40067 28.7469 9.33199 28.6314 9.28565C28.5159 9.23932 28.3924 9.21625 28.268 9.21777V9.21877ZM31.378 9.21877V9.22077C31.2536 9.22279 31.1308 9.24936 31.0167 9.29896C30.9026 9.34855 30.7994 9.42019 30.713 9.50977L28.904 11.3668C28.8171 11.456 28.7488 11.5616 28.7028 11.6773C28.6569 11.7931 28.6343 11.9168 28.6364 12.0413C28.6384 12.1659 28.6651 12.2888 28.7148 12.403C28.7645 12.5172 28.8363 12.6204 28.926 12.7068C29.0151 12.7938 29.1206 12.8623 29.2363 12.9084C29.352 12.9545 29.4756 12.9773 29.6002 12.9754C29.7247 12.9735 29.8476 12.9471 29.9619 12.8975C30.0762 12.848 30.1795 12.7764 30.266 12.6868L32.074 10.8278C32.1609 10.7386 32.2294 10.6331 32.2754 10.5174C32.3214 10.4016 32.3441 10.2779 32.3421 10.1534C32.3402 10.0289 32.3136 9.90596 32.264 9.79173C32.2144 9.6775 32.1427 9.5742 32.053 9.48777C31.964 9.40055 31.8586 9.3318 31.743 9.28546C31.6273 9.23912 31.5036 9.21612 31.379 9.21777L31.378 9.21877ZM18.995 9.69977V9.70177C19.0862 9.71008 19.1723 9.74721 19.241 9.80777C19.648 10.1688 19.166 10.5928 18.991 10.7758L18.126 11.6808C17.519 12.3118 17.255 12.7388 16.831 12.3308C16.471 11.9578 16.787 11.7348 17.476 11.0358L18.341 10.1338C18.546 9.93277 18.759 9.68877 18.995 9.69977ZM22.108 9.69977V9.70177C22.1995 9.70994 22.286 9.74707 22.355 9.80777C22.761 10.1688 22.28 10.5928 22.105 10.7758L21.239 11.6808C20.632 12.3118 20.368 12.7388 19.944 12.3308C19.584 11.9578 19.901 11.7348 20.589 11.0358L21.454 10.1338C21.66 9.93277 21.872 9.68877 22.108 9.69977ZM25.22 9.69977V9.70177C25.3112 9.71008 25.3973 9.74721 25.466 9.80777C25.872 10.1688 25.391 10.5928 25.216 10.7758L24.351 11.6808C23.743 12.3118 23.479 12.7388 23.056 12.3308C22.696 11.9578 23.012 11.7348 23.7 11.0358L24.565 10.1338C24.771 9.93277 24.984 9.68877 25.22 9.69977ZM28.333 9.69977V9.70177C28.4242 9.71015 28.5103 9.74727 28.579 9.80777C28.986 10.1688 28.504 10.5928 28.329 10.7758L27.464 11.6808C26.857 12.3118 26.593 12.7388 26.169 12.3308C25.809 11.9578 26.125 11.7348 26.814 11.0358L27.679 10.1338C27.884 9.93277 28.097 9.68877 28.333 9.69977ZM31.444 9.69977V9.70177C31.5352 9.71015 31.6213 9.74727 31.69 9.80777C32.097 10.1688 31.616 10.5928 31.44 10.7758L30.575 11.6808C29.968 12.3118 29.704 12.7388 29.28 12.3308C28.92 11.9578 29.237 11.7348 29.925 11.0358L30.79 10.1338C30.995 9.93277 31.208 9.68877 31.444 9.69977ZM13.864 14.0358C13.8493 14.0359 13.8347 14.0389 13.8212 14.0447C13.8077 14.0504 13.7954 14.0588 13.7851 14.0693C13.7748 14.0798 13.7666 14.0922 13.7611 14.1058C13.7556 14.1195 13.7529 14.1341 13.753 14.1488C13.753 14.2108 13.803 14.2618 13.864 14.2628C13.926 14.2628 13.977 14.2118 13.978 14.1488C13.9781 14.1338 13.9753 14.119 13.9696 14.1051C13.9639 14.0913 13.9555 14.0787 13.9448 14.0682C13.9342 14.0577 13.9216 14.0494 13.9077 14.0438C13.8938 14.0382 13.879 14.0355 13.864 14.0358ZM14.427 14.0358C14.3969 14.0358 14.3681 14.0476 14.3467 14.0688C14.3254 14.09 14.3133 14.1187 14.313 14.1488C14.314 14.2108 14.365 14.2618 14.427 14.2628C14.488 14.2628 14.537 14.2108 14.538 14.1488V14.1288C14.5339 14.1025 14.5204 14.0785 14.5 14.0614C14.4795 14.0443 14.4536 14.0352 14.427 14.0358ZM14.989 14.0358C14.9741 14.0356 14.9594 14.0385 14.9456 14.0441C14.9318 14.0497 14.9193 14.0581 14.9088 14.0686C14.8983 14.0791 14.89 14.0916 14.8843 14.1054C14.8787 14.1191 14.8759 14.1339 14.876 14.1488C14.876 14.2108 14.927 14.2628 14.989 14.2628C15.051 14.2628 15.099 14.2108 15.101 14.1488V14.1288C15.0969 14.1023 15.0832 14.0782 15.0626 14.0611C15.042 14.044 15.0158 14.035 14.989 14.0358ZM15.552 14.0358C15.537 14.0355 15.5222 14.0382 15.5083 14.0438C15.4944 14.0494 15.4818 14.0577 15.4711 14.0682C15.4605 14.0787 15.4521 14.0913 15.4464 14.1051C15.4407 14.119 15.4379 14.1338 15.438 14.1488C15.439 14.2108 15.49 14.2628 15.552 14.2628C15.613 14.2628 15.662 14.2108 15.663 14.1488V14.1418C15.6615 14.1133 15.6491 14.0865 15.6285 14.0668C15.6079 14.0471 15.5805 14.036 15.552 14.0358ZM16.114 14.0358C16.0991 14.0356 16.0844 14.0385 16.0706 14.0441C16.0568 14.0497 16.0443 14.0581 16.0338 14.0686C16.0233 14.0791 16.015 14.0916 16.0093 14.1054C16.0037 14.1191 16.0009 14.1339 16.001 14.1488C16.001 14.2108 16.052 14.2628 16.114 14.2628C16.175 14.2628 16.224 14.2108 16.226 14.1488V14.1418C16.2245 14.1131 16.212 14.0862 16.1911 14.0664C16.1703 14.0467 16.1427 14.0357 16.114 14.0358ZM16.677 14.0358C16.6621 14.0356 16.6474 14.0385 16.6336 14.0441C16.6198 14.0497 16.6073 14.0581 16.5968 14.0686C16.5863 14.0791 16.578 14.0916 16.5723 14.1054C16.5667 14.1191 16.5639 14.1339 16.564 14.1488C16.564 14.2108 16.614 14.2628 16.677 14.2628C16.738 14.2628 16.787 14.2108 16.788 14.1488V14.1418C16.7865 14.1133 16.7741 14.0865 16.7535 14.0668C16.7329 14.0471 16.7055 14.036 16.677 14.0358ZM17.237 14.0358C17.2223 14.0359 17.2077 14.0389 17.1942 14.0447C17.1807 14.0504 17.1684 14.0588 17.1581 14.0693C17.1478 14.0798 17.1396 14.0922 17.1341 14.1058C17.1286 14.1195 17.1259 14.1341 17.126 14.1488C17.126 14.2108 17.176 14.2618 17.237 14.2628C17.252 14.2628 17.2668 14.2598 17.2806 14.2541C17.2945 14.2484 17.307 14.24 17.3176 14.2294C17.3282 14.2188 17.3366 14.2062 17.3423 14.1924C17.348 14.1786 17.351 14.1637 17.351 14.1488V14.1418C17.3494 14.1128 17.3367 14.0855 17.3154 14.0657C17.2942 14.046 17.266 14.0352 17.237 14.0358ZM17.8 14.0358C17.7853 14.0359 17.7707 14.0389 17.7572 14.0447C17.7437 14.0504 17.7314 14.0588 17.7211 14.0693C17.7108 14.0798 17.7026 14.0922 17.6971 14.1058C17.6916 14.1195 17.6889 14.1341 17.689 14.1488C17.689 14.2108 17.739 14.2618 17.799 14.2628C17.814 14.2628 17.8288 14.2598 17.8426 14.2541C17.8565 14.2484 17.869 14.24 17.8796 14.2294C17.8902 14.2188 17.8986 14.2062 17.9043 14.1924C17.91 14.1786 17.913 14.1637 17.913 14.1488V14.1418C17.9114 14.1129 17.8988 14.0858 17.8778 14.0661C17.8567 14.0463 17.8289 14.0355 17.8 14.0358ZM18.362 14.0358C18.3473 14.0359 18.3327 14.0389 18.3192 14.0447C18.3057 14.0504 18.2934 14.0588 18.2831 14.0693C18.2728 14.0798 18.2646 14.0922 18.2591 14.1058C18.2536 14.1195 18.2509 14.1341 18.251 14.1488C18.251 14.2108 18.301 14.2618 18.362 14.2628C18.377 14.2628 18.3918 14.2598 18.4056 14.2541C18.4195 14.2484 18.432 14.24 18.4426 14.2294C18.4532 14.2188 18.4616 14.2062 18.4673 14.1924C18.473 14.1786 18.476 14.1637 18.476 14.1488V14.1418C18.4744 14.1128 18.4617 14.0855 18.4404 14.0657C18.4192 14.046 18.391 14.0352 18.362 14.0358ZM18.925 14.0358C18.9103 14.0359 18.8957 14.0389 18.8822 14.0447C18.8687 14.0504 18.8564 14.0588 18.8461 14.0693C18.8358 14.0798 18.8276 14.0922 18.8221 14.1058C18.8166 14.1195 18.8139 14.1341 18.814 14.1488C18.814 14.2108 18.864 14.2618 18.924 14.2628C18.986 14.2628 19.035 14.2108 19.036 14.1488V14.1288C19.0319 14.1025 19.0184 14.0785 18.998 14.0614C18.9775 14.0443 18.9516 14.0352 18.925 14.0358ZM19.487 14.0358C19.457 14.0358 19.4283 14.0477 19.4071 14.0689C19.3859 14.0901 19.374 14.1188 19.374 14.1488C19.374 14.2108 19.425 14.2628 19.487 14.2628C19.549 14.2628 19.597 14.2108 19.599 14.1488V14.1418C19.5975 14.1131 19.585 14.0862 19.5641 14.0664C19.5433 14.0467 19.5157 14.0357 19.487 14.0358ZM20.05 14.0358C20.02 14.0358 19.9913 14.0477 19.9701 14.0689C19.9489 14.0901 19.937 14.1188 19.937 14.1488C19.937 14.2108 19.987 14.2628 20.05 14.2628C20.111 14.2628 20.16 14.2108 20.161 14.1488V14.1418C20.1595 14.1133 20.1471 14.0865 20.1265 14.0668C20.1059 14.0471 20.0785 14.036 20.05 14.0358ZM20.612 14.0358C20.582 14.0358 20.5533 14.0477 20.5321 14.0689C20.5109 14.0901 20.499 14.1188 20.499 14.1488C20.499 14.2108 20.55 14.2628 20.612 14.2628C20.674 14.2628 20.722 14.2108 20.724 14.1488V14.1418C20.7225 14.1131 20.71 14.0862 20.6891 14.0664C20.6683 14.0467 20.6407 14.0357 20.612 14.0358ZM21.175 14.0358C21.145 14.0358 21.1163 14.0477 21.0951 14.0689C21.0739 14.0901 21.062 14.1188 21.062 14.1488C21.062 14.2108 21.112 14.2628 21.175 14.2628C21.236 14.2628 21.285 14.2108 21.286 14.1488V14.1418C21.2845 14.1133 21.2721 14.0865 21.2515 14.0668C21.2309 14.0471 21.2035 14.036 21.175 14.0358ZM21.735 14.0358C21.7203 14.0359 21.7057 14.0389 21.6922 14.0447C21.6787 14.0504 21.6664 14.0588 21.6561 14.0693C21.6458 14.0798 21.6376 14.0922 21.6321 14.1058C21.6266 14.1195 21.6239 14.1341 21.624 14.1488C21.624 14.2108 21.674 14.2618 21.735 14.2628C21.75 14.2628 21.7648 14.2598 21.7786 14.2541C21.7925 14.2484 21.805 14.24 21.8156 14.2294C21.8262 14.2188 21.8346 14.2062 21.8403 14.1924C21.846 14.1786 21.849 14.1637 21.849 14.1488V14.1418C21.8474 14.1128 21.8347 14.0855 21.8134 14.0657C21.7922 14.046 21.764 14.0352 21.735 14.0358ZM22.298 14.0358C22.2833 14.0359 22.2687 14.0389 22.2552 14.0447C22.2417 14.0504 22.2294 14.0588 22.2191 14.0693C22.2088 14.0798 22.2006 14.0922 22.1951 14.1058C22.1896 14.1195 22.1869 14.1341 22.187 14.1488C22.187 14.2108 22.237 14.2618 22.297 14.2628C22.312 14.2628 22.3268 14.2598 22.3406 14.2541C22.3545 14.2484 22.367 14.24 22.3776 14.2294C22.3882 14.2188 22.3966 14.2062 22.4023 14.1924C22.408 14.1786 22.411 14.1637 22.411 14.1488V14.1418C22.4094 14.1129 22.3968 14.0858 22.3758 14.0661C22.3547 14.0463 22.3269 14.0355 22.298 14.0358ZM22.86 14.0358C22.8453 14.0359 22.8307 14.0389 22.8172 14.0447C22.8037 14.0504 22.7914 14.0588 22.7811 14.0693C22.7708 14.0798 22.7626 14.0922 22.7571 14.1058C22.7516 14.1195 22.7489 14.1341 22.749 14.1488C22.749 14.2108 22.799 14.2618 22.86 14.2628C22.922 14.2628 22.973 14.2118 22.974 14.1488C22.9741 14.1338 22.9713 14.119 22.9656 14.1051C22.9599 14.0913 22.9515 14.0787 22.9408 14.0682C22.9302 14.0577 22.9176 14.0494 22.9037 14.0438C22.8898 14.0382 22.875 14.0355 22.86 14.0358ZM23.423 14.0358C23.4083 14.0359 23.3937 14.0389 23.3802 14.0447C23.3667 14.0504 23.3544 14.0588 23.3441 14.0693C23.3338 14.0798 23.3256 14.0922 23.3201 14.1058C23.3146 14.1195 23.3119 14.1341 23.312 14.1488C23.312 14.2108 23.362 14.2618 23.422 14.2628C23.484 14.2628 23.534 14.2108 23.534 14.1488V14.1288C23.5297 14.1026 23.5161 14.0787 23.4957 14.0617C23.4754 14.0446 23.4496 14.0354 23.423 14.0358ZM23.985 14.0358C23.9701 14.0356 23.9554 14.0385 23.9416 14.0441C23.9278 14.0497 23.9153 14.0581 23.9048 14.0686C23.8943 14.0791 23.886 14.0916 23.8803 14.1054C23.8747 14.1191 23.8719 14.1339 23.872 14.1488C23.872 14.2108 23.923 14.2628 23.985 14.2628C24.047 14.2628 24.095 14.2108 24.097 14.1488V14.1288C24.0929 14.1023 24.0792 14.0782 24.0586 14.0611C24.038 14.044 24.0118 14.035 23.985 14.0358ZM24.548 14.0358C24.5331 14.0356 24.5184 14.0385 24.5046 14.0441C24.4908 14.0497 24.4783 14.0581 24.4678 14.0686C24.4573 14.0791 24.449 14.0916 24.4433 14.1054C24.4377 14.1191 24.4349 14.1339 24.435 14.1488C24.435 14.2108 24.485 14.2628 24.548 14.2628C24.609 14.2628 24.658 14.2108 24.659 14.1488V14.1418C24.6575 14.1133 24.6451 14.0865 24.6245 14.0668C24.6039 14.0471 24.5765 14.036 24.548 14.0358ZM25.11 14.0358C25.0951 14.0356 25.0804 14.0385 25.0666 14.0441C25.0528 14.0497 25.0403 14.0581 25.0298 14.0686C25.0193 14.0791 25.011 14.0916 25.0053 14.1054C24.9997 14.1191 24.9969 14.1339 24.997 14.1488C24.997 14.2108 25.048 14.2628 25.11 14.2628C25.172 14.2628 25.22 14.2108 25.222 14.1488V14.1418C25.2205 14.1131 25.208 14.0862 25.1871 14.0664C25.1663 14.0467 25.1387 14.0357 25.11 14.0358ZM25.67 14.0358C25.6405 14.0363 25.6123 14.0485 25.5917 14.0696C25.5711 14.0908 25.5597 14.1192 25.56 14.1488C25.56 14.2108 25.61 14.2618 25.67 14.2628C25.685 14.2628 25.6998 14.2598 25.7136 14.2541C25.7275 14.2484 25.74 14.24 25.7506 14.2294C25.7612 14.2188 25.7696 14.2062 25.7753 14.1924C25.781 14.1786 25.784 14.1637 25.784 14.1488V14.1418C25.7824 14.1129 25.7698 14.0858 25.7488 14.0661C25.7277 14.0463 25.6999 14.0355 25.671 14.0358H25.67ZM26.233 14.0358C26.2035 14.0363 26.1753 14.0485 26.1547 14.0696C26.1341 14.0908 26.1227 14.1192 26.123 14.1488C26.123 14.2108 26.172 14.2618 26.233 14.2628C26.248 14.2628 26.2628 14.2598 26.2766 14.2541C26.2905 14.2484 26.303 14.24 26.3136 14.2294C26.3242 14.2188 26.3326 14.2062 26.3383 14.1924C26.344 14.1786 26.347 14.1637 26.347 14.1488V14.1418C26.3454 14.1128 26.3327 14.0855 26.3114 14.0657C26.2902 14.046 26.262 14.0352 26.233 14.0358ZM26.796 14.0358C26.7813 14.0359 26.7667 14.0389 26.7532 14.0447C26.7397 14.0504 26.7274 14.0588 26.7171 14.0693C26.7068 14.0798 26.6986 14.0922 26.6931 14.1058C26.6876 14.1195 26.6849 14.1341 26.685 14.1488C26.685 14.2108 26.735 14.2618 26.795 14.2628C26.81 14.2628 26.8248 14.2598 26.8386 14.2541C26.8525 14.2484 26.865 14.24 26.8756 14.2294C26.8862 14.2188 26.8946 14.2062 26.9003 14.1924C26.906 14.1786 26.909 14.1637 26.909 14.1488V14.1418C26.9074 14.1129 26.8948 14.0858 26.8738 14.0661C26.8527 14.0463 26.8249 14.0355 26.796 14.0358ZM27.358 14.0358C27.3285 14.0363 27.3003 14.0485 27.2797 14.0696C27.2591 14.0908 27.2477 14.1192 27.248 14.1488C27.248 14.2108 27.297 14.2618 27.358 14.2628C27.42 14.2628 27.471 14.2118 27.472 14.1488C27.4721 14.1338 27.4693 14.119 27.4636 14.1051C27.4579 14.0913 27.4495 14.0787 27.4388 14.0682C27.4282 14.0577 27.4156 14.0494 27.4017 14.0438C27.3878 14.0382 27.373 14.0355 27.358 14.0358ZM27.921 14.0358C27.9063 14.0359 27.8917 14.0389 27.8782 14.0447C27.8647 14.0504 27.8524 14.0588 27.8421 14.0693C27.8318 14.0798 27.8236 14.0922 27.8181 14.1058C27.8126 14.1195 27.8099 14.1341 27.81 14.1488C27.81 14.2108 27.86 14.2618 27.92 14.2628C27.982 14.2628 28.031 14.2108 28.032 14.1488V14.1288C28.0279 14.1025 28.0144 14.0785 27.994 14.0614C27.9735 14.0443 27.9476 14.0352 27.921 14.0358ZM28.483 14.0358C28.453 14.0358 28.4243 14.0477 28.4031 14.0689C28.3819 14.0901 28.37 14.1188 28.37 14.1488C28.37 14.2108 28.421 14.2628 28.483 14.2628C28.545 14.2628 28.594 14.2108 28.595 14.1488V14.1418C28.5935 14.1131 28.581 14.0862 28.5601 14.0664C28.5393 14.0467 28.5117 14.0357 28.483 14.0358ZM29.046 14.0358C29.016 14.0358 28.9873 14.0477 28.9661 14.0689C28.9449 14.0901 28.933 14.1188 28.933 14.1488C28.933 14.2108 28.983 14.2628 29.046 14.2628C29.107 14.2628 29.156 14.2108 29.157 14.1488V14.1418C29.1555 14.1133 29.1431 14.0865 29.1225 14.0668C29.1019 14.0471 29.0745 14.036 29.046 14.0358ZM29.608 14.0358C29.578 14.0358 29.5493 14.0477 29.5281 14.0689C29.5069 14.0901 29.495 14.1188 29.495 14.1488C29.495 14.2108 29.546 14.2628 29.608 14.2628C29.67 14.2628 29.719 14.2108 29.72 14.1488V14.1418C29.7185 14.1131 29.706 14.0862 29.6851 14.0664C29.6643 14.0467 29.6367 14.0357 29.608 14.0358ZM30.169 14.0358C30.1543 14.0359 30.1397 14.0389 30.1262 14.0447C30.1127 14.0504 30.1004 14.0588 30.0901 14.0693C30.0798 14.0798 30.0716 14.0922 30.0661 14.1058C30.0606 14.1195 30.0579 14.1341 30.058 14.1488C30.058 14.2108 30.108 14.2618 30.169 14.2628C30.1991 14.2625 30.2278 14.2504 30.249 14.229C30.2701 14.2077 30.282 14.1788 30.282 14.1488V14.1418C30.2804 14.1129 30.2678 14.0858 30.2468 14.0661C30.2257 14.0463 30.1979 14.0355 30.169 14.0358ZM30.732 14.0358C30.7172 14.0358 30.7026 14.0387 30.6889 14.0444C30.6752 14.0501 30.6629 14.0584 30.6524 14.0689C30.642 14.0794 30.6338 14.0919 30.6282 14.1056C30.6227 14.1193 30.6199 14.134 30.62 14.1488C30.62 14.2108 30.67 14.2618 30.731 14.2628C30.746 14.2628 30.7608 14.2598 30.7746 14.2541C30.7885 14.2484 30.801 14.24 30.8116 14.2294C30.8222 14.2188 30.8306 14.2062 30.8363 14.1924C30.842 14.1786 30.845 14.1637 30.845 14.1488V14.1418C30.8434 14.1128 30.8307 14.0855 30.8094 14.0657C30.7882 14.046 30.76 14.0352 30.731 14.0358H30.732ZM31.294 14.0358C31.2793 14.0359 31.2647 14.0389 31.2512 14.0447C31.2377 14.0504 31.2254 14.0588 31.2151 14.0693C31.2048 14.0798 31.1966 14.0922 31.1911 14.1058C31.1856 14.1195 31.1829 14.1341 31.183 14.1488C31.183 14.2108 31.233 14.2618 31.294 14.2628C31.3241 14.2625 31.3528 14.2504 31.374 14.229C31.3951 14.2077 31.407 14.1788 31.407 14.1488V14.1418C31.4054 14.1129 31.3928 14.0858 31.3718 14.0661C31.3507 14.0463 31.3229 14.0355 31.294 14.0358ZM31.857 14.0358C31.8422 14.0358 31.8276 14.0387 31.8139 14.0444C31.8002 14.0501 31.7879 14.0584 31.7774 14.0689C31.767 14.0794 31.7588 14.0919 31.7532 14.1056C31.7477 14.1193 31.7449 14.134 31.745 14.1488C31.745 14.2108 31.795 14.2618 31.856 14.2628C31.918 14.2628 31.967 14.2108 31.968 14.1488V14.1288C31.9639 14.1025 31.9504 14.0785 31.93 14.0614C31.9095 14.0443 31.8836 14.0352 31.857 14.0358ZM32.419 14.0358C32.4041 14.0356 32.3894 14.0385 32.3756 14.0441C32.3618 14.0497 32.3493 14.0581 32.3388 14.0686C32.3283 14.0791 32.32 14.0916 32.3143 14.1054C32.3087 14.1191 32.3059 14.1339 32.306 14.1488C32.306 14.2108 32.357 14.2628 32.419 14.2628C32.48 14.2628 32.529 14.2108 32.53 14.1488V14.1288C32.5259 14.1025 32.5124 14.0785 32.492 14.0614C32.4715 14.0443 32.4456 14.0352 32.419 14.0358ZM32.982 14.0358C32.967 14.0355 32.9522 14.0382 32.9383 14.0438C32.9244 14.0494 32.9118 14.0577 32.9011 14.0682C32.8905 14.0787 32.8821 14.0913 32.8764 14.1051C32.8707 14.119 32.8679 14.1338 32.868 14.1488C32.868 14.2108 32.92 14.2628 32.982 14.2628C33.042 14.2628 33.092 14.2108 33.092 14.1488V14.1418C33.0905 14.1135 33.0783 14.0868 33.0579 14.0671C33.0375 14.0474 33.0103 14.0362 32.982 14.0358ZM33.544 14.0358C33.5291 14.0356 33.5144 14.0385 33.5006 14.0441C33.4868 14.0497 33.4743 14.0581 33.4638 14.0686C33.4533 14.0791 33.445 14.0916 33.4393 14.1054C33.4337 14.1191 33.4309 14.1339 33.431 14.1488C33.431 14.2108 33.482 14.2628 33.544 14.2628C33.605 14.2628 33.654 14.2108 33.655 14.1488V14.1418C33.6535 14.1133 33.6411 14.0865 33.6205 14.0668C33.5999 14.0471 33.5725 14.036 33.544 14.0358ZM34.107 14.0358C34.092 14.0355 34.0772 14.0382 34.0633 14.0438C34.0494 14.0494 34.0368 14.0577 34.0261 14.0682C34.0155 14.0787 34.0071 14.0913 34.0014 14.1051C33.9957 14.119 33.9929 14.1338 33.993 14.1488C33.993 14.2108 34.045 14.2628 34.107 14.2628C34.167 14.2628 34.217 14.2108 34.217 14.1488V14.1418C34.2155 14.1135 34.2033 14.0868 34.1829 14.0671C34.1625 14.0474 34.1353 14.0362 34.107 14.0358ZM34.667 14.0358C34.6523 14.0359 34.6377 14.0389 34.6242 14.0447C34.6107 14.0504 34.5984 14.0588 34.5881 14.0693C34.5778 14.0798 34.5696 14.0922 34.5641 14.1058C34.5586 14.1195 34.5559 14.1341 34.556 14.1488C34.556 14.2108 34.606 14.2618 34.667 14.2628C34.6971 14.2625 34.7258 14.2504 34.747 14.229C34.7681 14.2077 34.78 14.1788 34.78 14.1488V14.1418C34.7784 14.1129 34.7658 14.0858 34.7448 14.0661C34.7237 14.0463 34.6959 14.0355 34.667 14.0358ZM18.931 15.7158V15.7178C18.8064 15.7197 18.6834 15.7462 18.5691 15.7958C18.4548 15.8454 18.3515 15.9171 18.265 16.0068L16.456 17.8638C16.3691 17.953 16.3008 18.0586 16.2548 18.1743C16.2089 18.2901 16.1863 18.4138 16.1884 18.5383C16.1904 18.6629 16.2171 18.7858 16.2668 18.9C16.3165 19.0142 16.3883 19.1174 16.478 19.2038C16.5671 19.2908 16.6726 19.3593 16.7883 19.4054C16.904 19.4515 17.0276 19.4742 17.1522 19.4724C17.2767 19.4705 17.3996 19.4441 17.5139 19.3945C17.6282 19.345 17.7315 19.2734 17.818 19.1838L19.626 17.3248C19.7129 17.2356 19.7814 17.1301 19.8274 17.0144C19.8734 16.8986 19.8961 16.7749 19.8941 16.6504C19.8922 16.5259 19.8656 16.403 19.816 16.2887C19.7664 16.1745 19.6947 16.0712 19.605 15.9848C19.516 15.8976 19.4106 15.8288 19.295 15.7825C19.1793 15.7361 19.0556 15.7131 18.931 15.7148V15.7158ZM22.044 15.7158V15.7178C21.9194 15.7197 21.7964 15.7462 21.6821 15.7958C21.5678 15.8454 21.4645 15.9171 21.378 16.0068L19.569 17.8638C19.4821 17.953 19.4138 18.0586 19.3678 18.1743C19.3219 18.2901 19.2993 18.4138 19.3014 18.5383C19.3034 18.6629 19.3301 18.7858 19.3798 18.9C19.4295 19.0142 19.5012 19.1174 19.591 19.2038C19.6801 19.2908 19.7856 19.3593 19.9013 19.4054C20.017 19.4515 20.1406 19.4742 20.2652 19.4724C20.3897 19.4705 20.5126 19.4441 20.6269 19.3945C20.7412 19.345 20.8445 19.2734 20.931 19.1838L22.739 17.3248C22.8259 17.2356 22.8944 17.1301 22.9404 17.0144C22.9864 16.8986 23.0091 16.7749 23.0071 16.6504C23.0052 16.5259 22.9786 16.403 22.929 16.2887C22.8794 16.1745 22.8077 16.0712 22.718 15.9848C22.629 15.8976 22.5236 15.8288 22.408 15.7825C22.2923 15.7361 22.1686 15.7131 22.044 15.7148V15.7158ZM25.155 15.7158V15.7178C25.0304 15.7197 24.9074 15.7462 24.7931 15.7958C24.6788 15.8454 24.5755 15.9171 24.489 16.0068L22.681 17.8638C22.5941 17.953 22.5256 18.0585 22.4796 18.1742C22.4336 18.2899 22.4109 18.4136 22.4129 18.5381C22.4148 18.6627 22.4414 18.7856 22.491 18.8998C22.5406 19.014 22.6123 19.1173 22.702 19.2038C22.7911 19.2908 22.8966 19.3593 23.0123 19.4054C23.128 19.4515 23.2516 19.4742 23.3762 19.4724C23.5007 19.4705 23.6236 19.4441 23.7379 19.3945C23.8522 19.345 23.9555 19.2734 24.042 19.1838L25.851 17.3248C25.9379 17.2355 26.0062 17.13 26.0521 17.0142C26.0981 16.8984 26.1207 16.7747 26.1186 16.6502C26.1166 16.5257 26.0899 16.4028 26.0402 16.2886C25.9905 16.1744 25.9187 16.0711 25.829 15.9848C25.74 15.8976 25.6346 15.8288 25.519 15.7825C25.4033 15.7361 25.2796 15.7131 25.155 15.7148V15.7158ZM28.269 15.7158V15.7178C28.1444 15.7197 28.0215 15.7462 27.9072 15.7958C27.7929 15.8454 27.6895 15.9171 27.603 16.0068L25.794 17.8638C25.7071 17.953 25.6386 18.0585 25.5926 18.1742C25.5466 18.2899 25.5239 18.4136 25.5259 18.5381C25.5278 18.6627 25.5544 18.7856 25.604 18.8998C25.6536 19.014 25.7253 19.1173 25.815 19.2038C25.9041 19.2908 26.0096 19.3593 26.1253 19.4054C26.241 19.4515 26.3646 19.4742 26.4892 19.4724C26.6137 19.4705 26.7366 19.4441 26.8509 19.3945C26.9652 19.345 27.0685 19.2734 27.155 19.1838L28.964 17.3248C29.0509 17.2355 29.1192 17.13 29.1651 17.0142C29.2111 16.8984 29.2337 16.7747 29.2316 16.6502C29.2296 16.5257 29.2029 16.4028 29.1532 16.2886C29.1035 16.1744 29.0317 16.0711 28.942 15.9848C28.8531 15.8977 28.7479 15.829 28.6324 15.7827C28.5169 15.7363 28.3934 15.7133 28.269 15.7148V15.7158ZM31.379 15.7158V15.7178C31.2546 15.7198 31.1318 15.7464 31.0177 15.796C30.9036 15.8455 30.8004 15.9172 30.714 16.0068L28.905 17.8638C28.8181 17.953 28.7498 18.0586 28.7038 18.1743C28.6579 18.2901 28.6353 18.4138 28.6374 18.5383C28.6394 18.6629 28.6661 18.7858 28.7158 18.9C28.7655 19.0142 28.8373 19.1174 28.927 19.2038C29.0161 19.2908 29.1216 19.3593 29.2373 19.4054C29.353 19.4515 29.4766 19.4742 29.6012 19.4724C29.7257 19.4705 29.8486 19.4441 29.9629 19.3945C30.0772 19.345 30.1805 19.2734 30.267 19.1838L32.075 17.3248C32.1619 17.2356 32.2304 17.1301 32.2764 17.0144C32.3224 16.8986 32.3451 16.7749 32.3431 16.6504C32.3412 16.5259 32.3146 16.403 32.265 16.2887C32.2154 16.1745 32.1437 16.0712 32.054 15.9848C31.965 15.8976 31.8596 15.8288 31.744 15.7825C31.6283 15.7361 31.5046 15.7131 31.38 15.7148L31.379 15.7158ZM18.995 16.1998C19.0864 16.2072 19.1728 16.2445 19.241 16.3058C19.648 16.6668 19.166 17.0928 18.991 17.2758L18.126 18.1808C17.519 18.8118 17.255 19.2388 16.831 18.8308C16.471 18.4578 16.787 18.2348 17.476 17.5358L18.341 16.6338C18.546 16.4328 18.759 16.1888 18.995 16.1998ZM22.108 16.1998C22.1997 16.207 22.2865 16.2443 22.355 16.3058C22.761 16.6668 22.28 17.0928 22.105 17.2758L21.239 18.1808C20.632 18.8118 20.368 19.2388 19.944 18.8308C19.584 18.4578 19.901 18.2348 20.589 17.5358L21.454 16.6338C21.66 16.4328 21.872 16.1888 22.108 16.1998ZM25.22 16.1998C25.3114 16.2072 25.3978 16.2445 25.466 16.3058C25.872 16.6668 25.391 17.0928 25.216 17.2758L24.351 18.1808C23.743 18.8118 23.479 19.2388 23.056 18.8308C22.696 18.4578 23.012 18.2348 23.7 17.5358L24.565 16.6338C24.771 16.4328 24.984 16.1888 25.22 16.1998ZM28.333 16.1998C28.4244 16.2072 28.5108 16.2445 28.579 16.3058C28.986 16.6668 28.504 17.0928 28.329 17.2758L27.464 18.1808C26.857 18.8118 26.593 19.2388 26.169 18.8308C25.809 18.4578 26.125 18.2348 26.814 17.5358L27.679 16.6338C27.884 16.4328 28.097 16.1888 28.333 16.1998ZM31.444 16.1998C31.5354 16.2073 31.6218 16.2445 31.69 16.3058C32.097 16.6668 31.616 17.0928 31.44 17.2758L30.575 18.1808C29.968 18.8118 29.704 19.2388 29.28 18.8308C28.92 18.4578 29.237 18.2348 29.925 17.5358L30.79 16.6338C30.995 16.4328 31.208 16.1888 31.444 16.1998ZM13.864 20.6648C13.8493 20.6649 13.8347 20.6679 13.8212 20.6737C13.8077 20.6794 13.7954 20.6878 13.7851 20.6983C13.7748 20.7088 13.7666 20.7212 13.7611 20.7348C13.7556 20.7485 13.7529 20.7631 13.753 20.7778C13.753 20.8388 13.803 20.8908 13.864 20.8918C13.926 20.8918 13.977 20.8408 13.978 20.7778C13.978 20.7628 13.975 20.7481 13.9693 20.7343C13.9636 20.7205 13.9551 20.708 13.9445 20.6975C13.9339 20.687 13.9214 20.6787 13.9075 20.6731C13.8937 20.6675 13.8789 20.6646 13.864 20.6648ZM14.427 20.6648C14.3969 20.6648 14.3681 20.6766 14.3467 20.6978C14.3254 20.719 14.3133 20.7477 14.313 20.7778C14.314 20.8388 14.365 20.8908 14.427 20.8918C14.488 20.8918 14.537 20.8388 14.538 20.7778V20.7578C14.5339 20.7315 14.5204 20.7075 14.5 20.6904C14.4795 20.6733 14.4536 20.6642 14.427 20.6648ZM14.989 20.6648C14.9741 20.6646 14.9594 20.6675 14.9456 20.6731C14.9318 20.6787 14.9193 20.6871 14.9088 20.6976C14.8983 20.7081 14.89 20.7206 14.8843 20.7344C14.8787 20.7481 14.8759 20.7629 14.876 20.7778C14.876 20.8398 14.927 20.8918 14.989 20.8918C15.051 20.8918 15.099 20.8388 15.101 20.7778V20.7578C15.0969 20.7313 15.0832 20.7072 15.0626 20.6901C15.042 20.673 15.0158 20.664 14.989 20.6648ZM15.552 20.6648C15.537 20.6645 15.5222 20.6672 15.5083 20.6728C15.4944 20.6784 15.4818 20.6867 15.4711 20.6972C15.4605 20.7077 15.4521 20.7203 15.4464 20.7341C15.4407 20.748 15.4379 20.7628 15.438 20.7778C15.439 20.8398 15.49 20.8918 15.552 20.8918C15.613 20.8918 15.662 20.8388 15.663 20.7778V20.7698C15.6612 20.7415 15.6488 20.7149 15.6282 20.6954C15.6076 20.6759 15.5804 20.665 15.552 20.6648ZM16.114 20.6648C16.0991 20.6646 16.0844 20.6675 16.0706 20.6731C16.0568 20.6787 16.0443 20.6871 16.0338 20.6976C16.0233 20.7081 16.015 20.7206 16.0093 20.7344C16.0037 20.7481 16.0009 20.7629 16.001 20.7778C16.001 20.8398 16.052 20.8918 16.114 20.8918C16.175 20.8918 16.224 20.8388 16.226 20.7778V20.7698C16.2242 20.7413 16.2116 20.7146 16.1908 20.6951C16.17 20.6756 16.1425 20.6647 16.114 20.6648ZM16.677 20.6648C16.6621 20.6646 16.6474 20.6675 16.6336 20.6731C16.6198 20.6787 16.6073 20.6871 16.5968 20.6976C16.5863 20.7081 16.578 20.7206 16.5723 20.7344C16.5667 20.7481 16.5639 20.7629 16.564 20.7778C16.564 20.8398 16.614 20.8918 16.677 20.8918C16.738 20.8918 16.787 20.8388 16.788 20.7778V20.7698C16.7862 20.7415 16.7738 20.7149 16.7532 20.6954C16.7326 20.6759 16.7054 20.665 16.677 20.6648ZM17.237 20.6648C17.2223 20.6649 17.2077 20.6679 17.1942 20.6737C17.1807 20.6794 17.1684 20.6878 17.1581 20.6983C17.1478 20.7088 17.1396 20.7212 17.1341 20.7348C17.1286 20.7485 17.1259 20.7631 17.126 20.7778C17.126 20.8388 17.176 20.8908 17.237 20.8918C17.252 20.8918 17.2668 20.8888 17.2806 20.8831C17.2945 20.8774 17.307 20.869 17.3176 20.8584C17.3282 20.8478 17.3366 20.8352 17.3423 20.8214C17.348 20.8076 17.351 20.7927 17.351 20.7778V20.7698C17.3492 20.7409 17.3363 20.7139 17.3151 20.6944C17.2938 20.6748 17.2659 20.6642 17.237 20.6648ZM17.8 20.6648C17.7853 20.6649 17.7707 20.6679 17.7572 20.6737C17.7437 20.6794 17.7314 20.6878 17.7211 20.6983C17.7108 20.7088 17.7026 20.7212 17.6971 20.7348C17.6916 20.7485 17.6889 20.7631 17.689 20.7778C17.689 20.8388 17.739 20.8908 17.799 20.8918C17.814 20.8918 17.8288 20.8888 17.8426 20.8831C17.8565 20.8774 17.869 20.869 17.8796 20.8584C17.8902 20.8478 17.8986 20.8352 17.9043 20.8214C17.91 20.8076 17.913 20.7927 17.913 20.7778V20.7698C17.9112 20.7411 17.8985 20.7143 17.8775 20.6947C17.8564 20.6752 17.8287 20.6645 17.8 20.6648ZM18.362 20.6648C18.3473 20.6649 18.3327 20.6679 18.3192 20.6737C18.3057 20.6794 18.2934 20.6878 18.2831 20.6983C18.2728 20.7088 18.2646 20.7212 18.2591 20.7348C18.2536 20.7485 18.2509 20.7631 18.251 20.7778C18.251 20.8388 18.301 20.8908 18.362 20.8918C18.377 20.8918 18.3918 20.8888 18.4056 20.8831C18.4195 20.8774 18.432 20.869 18.4426 20.8584C18.4532 20.8478 18.4616 20.8352 18.4673 20.8214C18.473 20.8076 18.476 20.7927 18.476 20.7778V20.7698C18.4742 20.7409 18.4613 20.7139 18.4401 20.6944C18.4188 20.6748 18.3909 20.6642 18.362 20.6648ZM18.925 20.6648C18.9103 20.6649 18.8957 20.6679 18.8822 20.6737C18.8687 20.6794 18.8564 20.6878 18.8461 20.6983C18.8358 20.7088 18.8276 20.7212 18.8221 20.7348C18.8166 20.7485 18.8139 20.7631 18.814 20.7778C18.814 20.8388 18.864 20.8908 18.924 20.8918C18.986 20.8918 19.035 20.8388 19.036 20.7778V20.7578C19.0319 20.7315 19.0184 20.7075 18.998 20.6904C18.9775 20.6733 18.9516 20.6642 18.925 20.6648ZM19.487 20.6648C19.457 20.6648 19.4283 20.6767 19.4071 20.6979C19.3859 20.7191 19.374 20.7478 19.374 20.7778C19.374 20.8398 19.425 20.8918 19.487 20.8918C19.549 20.8918 19.597 20.8388 19.599 20.7778V20.7698C19.5972 20.7413 19.5846 20.7146 19.5638 20.6951C19.543 20.6756 19.5155 20.6647 19.487 20.6648ZM20.05 20.6648C20.02 20.6648 19.9913 20.6767 19.9701 20.6979C19.9489 20.7191 19.937 20.7478 19.937 20.7778C19.937 20.8398 19.987 20.8918 20.05 20.8918C20.111 20.8918 20.16 20.8388 20.161 20.7778V20.7698C20.1592 20.7415 20.1468 20.7149 20.1262 20.6954C20.1056 20.6759 20.0784 20.665 20.05 20.6648ZM20.612 20.6648C20.582 20.6648 20.5533 20.6767 20.5321 20.6979C20.5109 20.7191 20.499 20.7478 20.499 20.7778C20.499 20.8398 20.55 20.8918 20.612 20.8918C20.674 20.8918 20.722 20.8388 20.724 20.7778V20.7698C20.7222 20.7413 20.7096 20.7146 20.6888 20.6951C20.668 20.6756 20.6405 20.6647 20.612 20.6648ZM21.175 20.6648C21.145 20.6648 21.1163 20.6767 21.0951 20.6979C21.0739 20.7191 21.062 20.7478 21.062 20.7778C21.062 20.8398 21.112 20.8918 21.175 20.8918C21.236 20.8918 21.285 20.8388 21.286 20.7778V20.7698C21.2842 20.7415 21.2718 20.7149 21.2512 20.6954C21.2306 20.6759 21.2034 20.665 21.175 20.6648ZM21.735 20.6648C21.7203 20.6649 21.7057 20.6679 21.6922 20.6737C21.6787 20.6794 21.6664 20.6878 21.6561 20.6983C21.6458 20.7088 21.6376 20.7212 21.6321 20.7348C21.6266 20.7485 21.6239 20.7631 21.624 20.7778C21.624 20.8388 21.674 20.8908 21.735 20.8918C21.75 20.8918 21.7648 20.8888 21.7786 20.8831C21.7925 20.8774 21.805 20.869 21.8156 20.8584C21.8262 20.8478 21.8346 20.8352 21.8403 20.8214C21.846 20.8076 21.849 20.7927 21.849 20.7778V20.7698C21.8472 20.7409 21.8343 20.7139 21.8131 20.6944C21.7918 20.6748 21.7639 20.6642 21.735 20.6648ZM22.298 20.6648C22.2833 20.6649 22.2687 20.6679 22.2552 20.6737C22.2417 20.6794 22.2294 20.6878 22.2191 20.6983C22.2088 20.7088 22.2006 20.7212 22.1951 20.7348C22.1896 20.7485 22.1869 20.7631 22.187 20.7778C22.187 20.8388 22.237 20.8908 22.297 20.8918C22.312 20.8918 22.3268 20.8888 22.3406 20.8831C22.3545 20.8774 22.367 20.869 22.3776 20.8584C22.3882 20.8478 22.3966 20.8352 22.4023 20.8214C22.408 20.8076 22.411 20.7927 22.411 20.7778V20.7698C22.4092 20.7411 22.3965 20.7143 22.3755 20.6947C22.3544 20.6752 22.3267 20.6645 22.298 20.6648ZM22.86 20.6648C22.8453 20.6649 22.8307 20.6679 22.8172 20.6737C22.8037 20.6794 22.7914 20.6878 22.7811 20.6983C22.7708 20.7088 22.7626 20.7212 22.7571 20.7348C22.7516 20.7485 22.7489 20.7631 22.749 20.7778C22.749 20.8388 22.799 20.8908 22.86 20.8918C22.922 20.8918 22.973 20.8408 22.974 20.7778C22.974 20.7628 22.971 20.7481 22.9653 20.7343C22.9596 20.7205 22.9511 20.708 22.9405 20.6975C22.9299 20.687 22.9174 20.6787 22.9035 20.6731C22.8897 20.6675 22.8749 20.6646 22.86 20.6648ZM23.423 20.6648C23.4083 20.6649 23.3937 20.6679 23.3802 20.6737C23.3667 20.6794 23.3544 20.6878 23.3441 20.6983C23.3338 20.7088 23.3256 20.7212 23.3201 20.7348C23.3146 20.7485 23.3119 20.7631 23.312 20.7778C23.312 20.8388 23.362 20.8908 23.422 20.8918C23.484 20.8918 23.534 20.8388 23.534 20.7778V20.7578C23.5297 20.7316 23.5161 20.7077 23.4957 20.6907C23.4754 20.6736 23.4496 20.6644 23.423 20.6648ZM23.985 20.6648C23.9701 20.6646 23.9554 20.6675 23.9416 20.6731C23.9278 20.6787 23.9153 20.6871 23.9048 20.6976C23.8943 20.7081 23.886 20.7206 23.8803 20.7344C23.8747 20.7481 23.8719 20.7629 23.872 20.7778C23.872 20.8398 23.923 20.8918 23.985 20.8918C24.047 20.8918 24.095 20.8388 24.097 20.7778V20.7578C24.0929 20.7313 24.0792 20.7072 24.0586 20.6901C24.038 20.673 24.0118 20.664 23.985 20.6648ZM24.548 20.6648C24.5331 20.6646 24.5184 20.6675 24.5046 20.6731C24.4908 20.6787 24.4783 20.6871 24.4678 20.6976C24.4573 20.7081 24.449 20.7206 24.4433 20.7344C24.4377 20.7481 24.4349 20.7629 24.435 20.7778C24.435 20.8398 24.485 20.8918 24.548 20.8918C24.609 20.8918 24.658 20.8388 24.659 20.7778V20.7698C24.6572 20.7415 24.6448 20.7149 24.6242 20.6954C24.6036 20.6759 24.5764 20.665 24.548 20.6648ZM25.11 20.6648C25.0951 20.6646 25.0804 20.6675 25.0666 20.6731C25.0528 20.6787 25.0403 20.6871 25.0298 20.6976C25.0193 20.7081 25.011 20.7206 25.0053 20.7344C24.9997 20.7481 24.9969 20.7629 24.997 20.7778C24.997 20.8398 25.048 20.8918 25.11 20.8918C25.172 20.8918 25.22 20.8388 25.222 20.7778V20.7698C25.2202 20.7413 25.2076 20.7146 25.1868 20.6951C25.166 20.6756 25.1385 20.6647 25.11 20.6648ZM25.67 20.6648C25.6405 20.6653 25.6123 20.6775 25.5917 20.6986C25.5711 20.7198 25.5597 20.7482 25.56 20.7778C25.56 20.8388 25.61 20.8908 25.67 20.8918C25.685 20.8918 25.6998 20.8888 25.7136 20.8831C25.7275 20.8774 25.74 20.869 25.7506 20.8584C25.7612 20.8478 25.7696 20.8352 25.7753 20.8214C25.781 20.8076 25.784 20.7927 25.784 20.7778V20.7698C25.7822 20.7411 25.7695 20.7143 25.7485 20.6947C25.7274 20.6752 25.6997 20.6645 25.671 20.6648H25.67ZM26.233 20.6648C26.2035 20.6653 26.1753 20.6775 26.1547 20.6986C26.1341 20.7198 26.1227 20.7482 26.123 20.7778C26.123 20.8388 26.172 20.8908 26.233 20.8918C26.248 20.8918 26.2628 20.8888 26.2766 20.8831C26.2905 20.8774 26.303 20.869 26.3136 20.8584C26.3242 20.8478 26.3326 20.8352 26.3383 20.8214C26.344 20.8076 26.347 20.7927 26.347 20.7778V20.7698C26.3452 20.7409 26.3323 20.7139 26.3111 20.6944C26.2898 20.6748 26.2619 20.6642 26.233 20.6648ZM26.796 20.6648C26.7813 20.6649 26.7667 20.6679 26.7532 20.6737C26.7397 20.6794 26.7274 20.6878 26.7171 20.6983C26.7068 20.7088 26.6986 20.7212 26.6931 20.7348C26.6876 20.7485 26.6849 20.7631 26.685 20.7778C26.685 20.8388 26.735 20.8908 26.795 20.8918C26.81 20.8918 26.8248 20.8888 26.8386 20.8831C26.8525 20.8774 26.865 20.869 26.8756 20.8584C26.8862 20.8478 26.8946 20.8352 26.9003 20.8214C26.906 20.8076 26.909 20.7927 26.909 20.7778V20.7698C26.9072 20.7411 26.8945 20.7143 26.8735 20.6947C26.8524 20.6752 26.8247 20.6645 26.796 20.6648ZM27.358 20.6648C27.3285 20.6653 27.3003 20.6775 27.2797 20.6986C27.2591 20.7198 27.2477 20.7482 27.248 20.7778C27.248 20.8388 27.297 20.8908 27.358 20.8918C27.42 20.8918 27.471 20.8408 27.472 20.7778C27.4721 20.7628 27.4693 20.748 27.4636 20.7341C27.4579 20.7203 27.4495 20.7077 27.4388 20.6972C27.4282 20.6867 27.4156 20.6784 27.4017 20.6728C27.3878 20.6672 27.373 20.6645 27.358 20.6648ZM27.921 20.6648C27.9063 20.6649 27.8917 20.6679 27.8782 20.6737C27.8647 20.6794 27.8524 20.6878 27.8421 20.6983C27.8318 20.7088 27.8236 20.7212 27.8181 20.7348C27.8126 20.7485 27.8099 20.7631 27.81 20.7778C27.81 20.8388 27.86 20.8908 27.92 20.8918C27.982 20.8918 28.031 20.8388 28.032 20.7778V20.7578C28.0279 20.7315 28.0144 20.7075 27.994 20.6904C27.9735 20.6733 27.9476 20.6642 27.921 20.6648ZM28.483 20.6648C28.453 20.6648 28.4243 20.6767 28.4031 20.6979C28.3819 20.7191 28.37 20.7478 28.37 20.7778C28.37 20.8398 28.421 20.8918 28.483 20.8918C28.545 20.8918 28.594 20.8388 28.595 20.7778V20.7698C28.5932 20.7413 28.5806 20.7146 28.5598 20.6951C28.539 20.6756 28.5115 20.6647 28.483 20.6648ZM29.046 20.6648C29.016 20.6648 28.9873 20.6767 28.9661 20.6979C28.9449 20.7191 28.933 20.7478 28.933 20.7778C28.933 20.8398 28.983 20.8918 29.046 20.8918C29.107 20.8918 29.156 20.8388 29.157 20.7778V20.7698C29.1552 20.7415 29.1428 20.7149 29.1222 20.6954C29.1016 20.6759 29.0744 20.665 29.046 20.6648ZM29.608 20.6648C29.578 20.6648 29.5493 20.6767 29.5281 20.6979C29.5069 20.7191 29.495 20.7478 29.495 20.7778C29.495 20.8398 29.546 20.8918 29.608 20.8918C29.67 20.8918 29.719 20.8388 29.72 20.7778V20.7698C29.7182 20.7413 29.7056 20.7146 29.6848 20.6951C29.664 20.6756 29.6365 20.6647 29.608 20.6648ZM30.169 20.6648C30.1543 20.6649 30.1397 20.6679 30.1262 20.6737C30.1127 20.6794 30.1004 20.6878 30.0901 20.6983C30.0798 20.7088 30.0716 20.7212 30.0661 20.7348C30.0606 20.7485 30.0579 20.7631 30.058 20.7778C30.058 20.8388 30.108 20.8908 30.169 20.8918C30.1991 20.8915 30.2278 20.8794 30.249 20.858C30.2701 20.8367 30.282 20.8078 30.282 20.7778V20.7698C30.2802 20.7411 30.2675 20.7143 30.2465 20.6947C30.2254 20.6752 30.1977 20.6645 30.169 20.6648ZM30.732 20.6648C30.7172 20.6648 30.7026 20.6677 30.6889 20.6734C30.6752 20.6791 30.6629 20.6874 30.6524 20.6979C30.642 20.7084 30.6338 20.7209 30.6282 20.7346C30.6227 20.7483 30.6199 20.763 30.62 20.7778C30.62 20.8388 30.67 20.8908 30.731 20.8918C30.746 20.8918 30.7608 20.8888 30.7746 20.8831C30.7885 20.8774 30.801 20.869 30.8116 20.8584C30.8222 20.8478 30.8306 20.8352 30.8363 20.8214C30.842 20.8076 30.845 20.7927 30.845 20.7778V20.7698C30.8432 20.7409 30.8303 20.7139 30.8091 20.6944C30.7878 20.6748 30.7599 20.6642 30.731 20.6648H30.732ZM31.294 20.6648C31.2793 20.6649 31.2647 20.6679 31.2512 20.6737C31.2377 20.6794 31.2254 20.6878 31.2151 20.6983C31.2048 20.7088 31.1966 20.7212 31.1911 20.7348C31.1856 20.7485 31.1829 20.7631 31.183 20.7778C31.183 20.8388 31.233 20.8908 31.294 20.8918C31.3241 20.8915 31.3528 20.8794 31.374 20.858C31.3951 20.8367 31.407 20.8078 31.407 20.7778V20.7698C31.4052 20.7411 31.3925 20.7143 31.3715 20.6947C31.3504 20.6752 31.3227 20.6645 31.294 20.6648ZM31.857 20.6648C31.8422 20.6648 31.8276 20.6677 31.8139 20.6734C31.8002 20.6791 31.7879 20.6874 31.7774 20.6979C31.767 20.7084 31.7588 20.7209 31.7532 20.7346C31.7477 20.7483 31.7449 20.763 31.745 20.7778C31.745 20.8388 31.795 20.8908 31.856 20.8918C31.918 20.8918 31.967 20.8388 31.968 20.7778V20.7578C31.9639 20.7315 31.9504 20.7075 31.93 20.6904C31.9095 20.6733 31.8836 20.6642 31.857 20.6648ZM32.419 20.6648C32.4041 20.6646 32.3894 20.6675 32.3756 20.6731C32.3618 20.6787 32.3493 20.6871 32.3388 20.6976C32.3283 20.7081 32.32 20.7206 32.3143 20.7344C32.3087 20.7481 32.3059 20.7629 32.306 20.7778C32.306 20.8398 32.357 20.8918 32.419 20.8918C32.48 20.8918 32.529 20.8388 32.53 20.7778V20.7578C32.5259 20.7315 32.5124 20.7075 32.492 20.6904C32.4715 20.6733 32.4456 20.6642 32.419 20.6648ZM32.982 20.6648C32.967 20.6645 32.9522 20.6672 32.9383 20.6728C32.9244 20.6784 32.9118 20.6867 32.9011 20.6972C32.8905 20.7077 32.8821 20.7203 32.8764 20.7341C32.8707 20.748 32.8679 20.7628 32.868 20.7778C32.868 20.8398 32.92 20.8918 32.982 20.8918C33.042 20.8918 33.092 20.8388 33.092 20.7778V20.7698C33.0902 20.7416 33.0779 20.7152 33.0575 20.6957C33.0372 20.6763 33.0102 20.6652 32.982 20.6648ZM33.544 20.6648C33.5291 20.6646 33.5144 20.6675 33.5006 20.6731C33.4868 20.6787 33.4743 20.6871 33.4638 20.6976C33.4533 20.7081 33.445 20.7206 33.4393 20.7344C33.4337 20.7481 33.4309 20.7629 33.431 20.7778C33.431 20.8398 33.482 20.8918 33.544 20.8918C33.605 20.8918 33.654 20.8388 33.655 20.7778V20.7698C33.6532 20.7415 33.6408 20.7149 33.6202 20.6954C33.5996 20.6759 33.5723 20.665 33.544 20.6648ZM34.107 20.6648C34.092 20.6645 34.0772 20.6672 34.0633 20.6728C34.0494 20.6784 34.0368 20.6867 34.0261 20.6972C34.0155 20.7077 34.0071 20.7203 34.0014 20.7341C33.9957 20.748 33.9929 20.7628 33.993 20.7778C33.993 20.8398 34.045 20.8918 34.107 20.8918C34.167 20.8918 34.217 20.8388 34.217 20.7778V20.7698C34.2152 20.7416 34.2029 20.7152 34.1825 20.6957C34.1622 20.6763 34.1352 20.6652 34.107 20.6648ZM34.667 20.6648C34.6523 20.6649 34.6377 20.6679 34.6242 20.6737C34.6107 20.6794 34.5984 20.6878 34.5881 20.6983C34.5778 20.7088 34.5696 20.7212 34.5641 20.7348C34.5586 20.7485 34.5559 20.7631 34.556 20.7778C34.556 20.8388 34.606 20.8908 34.667 20.8918C34.6971 20.8915 34.7258 20.8794 34.747 20.858C34.7681 20.8367 34.78 20.8078 34.78 20.7778V20.7698C34.7782 20.7411 34.7655 20.7143 34.7445 20.6947C34.7234 20.6752 34.6957 20.6645 34.667 20.6648ZM17.374 22.2138V22.2158C17.2494 22.2177 17.1264 22.2442 17.0121 22.2938C16.8978 22.3434 16.7945 22.4151 16.708 22.5048L14.899 24.3618C14.8121 24.451 14.7438 24.5566 14.6978 24.6723C14.6519 24.7881 14.6293 24.9118 14.6314 25.0363C14.6334 25.1609 14.6601 25.2838 14.7098 25.398C14.7595 25.5122 14.8312 25.6154 14.921 25.7018C15.01 25.789 15.1154 25.8577 15.2311 25.904C15.3468 25.9502 15.4706 25.9731 15.5952 25.9712C15.7198 25.9694 15.8428 25.9428 15.9571 25.8931C16.0713 25.8435 16.1746 25.7716 16.261 25.6818L18.069 23.8228C18.1559 23.7336 18.2244 23.6281 18.2704 23.5124C18.3164 23.3966 18.3391 23.2729 18.3371 23.1484C18.3352 23.0239 18.3086 22.901 18.259 22.7867C18.2094 22.6725 18.1377 22.5692 18.048 22.4828C17.959 22.3956 17.8536 22.3268 17.738 22.2805C17.6223 22.2341 17.4986 22.2111 17.374 22.2128V22.2138ZM20.487 22.2138V22.2158C20.3624 22.2177 20.2394 22.2442 20.1251 22.2938C20.0108 22.3434 19.9075 22.4151 19.821 22.5048L18.013 24.3618C17.9261 24.451 17.8576 24.5565 17.8116 24.6722C17.7656 24.7879 17.7429 24.9116 17.7449 25.0361C17.7468 25.1607 17.7734 25.2836 17.823 25.3978C17.8726 25.512 17.9443 25.6153 18.034 25.7018C18.123 25.789 18.2284 25.8577 18.3441 25.904C18.4598 25.9502 18.5836 25.9731 18.7082 25.9712C18.8328 25.9694 18.9558 25.9428 19.0701 25.8931C19.1843 25.8435 19.2876 25.7716 19.374 25.6818L21.183 23.8228C21.2699 23.7335 21.3382 23.628 21.3841 23.5122C21.4301 23.3964 21.4527 23.2727 21.4506 23.1482C21.4486 23.0237 21.4219 22.9008 21.3722 22.7866C21.3225 22.6724 21.2507 22.5691 21.161 22.4828C21.072 22.3956 20.9666 22.3268 20.851 22.2805C20.7353 22.2341 20.6116 22.2111 20.487 22.2128V22.2138ZM23.599 22.2138V22.2158C23.4744 22.2177 23.3514 22.2442 23.2371 22.2938C23.1228 22.3434 23.0195 22.4151 22.933 22.5048L21.124 24.3618C21.0371 24.451 20.9686 24.5565 20.9226 24.6722C20.8766 24.7879 20.8539 24.9116 20.8559 25.0361C20.8578 25.1607 20.8844 25.2836 20.934 25.3978C20.9836 25.512 21.0553 25.6153 21.145 25.7018C21.234 25.789 21.3394 25.8577 21.4551 25.904C21.5708 25.9502 21.6946 25.9731 21.8192 25.9712C21.9438 25.9694 22.0668 25.9428 22.1811 25.8931C22.2953 25.8435 22.3986 25.7716 22.485 25.6818L24.294 23.8228C24.3809 23.7336 24.4494 23.6281 24.4954 23.5124C24.5414 23.3966 24.5641 23.2729 24.5621 23.1484C24.5602 23.0239 24.5336 22.901 24.484 22.7867C24.4344 22.6725 24.3627 22.5692 24.273 22.4828C24.184 22.3956 24.0786 22.3268 23.963 22.2805C23.8473 22.2341 23.7236 22.2111 23.599 22.2128V22.2138ZM26.712 22.2138V22.2158C26.5874 22.2177 26.4644 22.2442 26.3501 22.2938C26.2358 22.3434 26.1325 22.4151 26.046 22.5048L24.237 24.3618C24.1501 24.451 24.0818 24.5566 24.0358 24.6723C23.9899 24.7881 23.9673 24.9118 23.9694 25.0363C23.9714 25.1609 23.9981 25.2838 24.0478 25.398C24.0975 25.5122 24.1693 25.6154 24.259 25.7018C24.348 25.789 24.4534 25.8577 24.5691 25.904C24.6848 25.9502 24.8086 25.9731 24.9332 25.9712C25.0578 25.9694 25.1808 25.9428 25.2951 25.8931C25.4093 25.8435 25.5126 25.7716 25.599 25.6818L27.407 23.8228C27.4939 23.7336 27.5624 23.6281 27.6084 23.5124C27.6544 23.3966 27.6771 23.2729 27.6751 23.1484C27.6732 23.0239 27.6466 22.901 27.597 22.7867C27.5474 22.6725 27.4757 22.5692 27.386 22.4828C27.297 22.3956 27.1916 22.3268 27.076 22.2805C26.9603 22.2341 26.8366 22.2111 26.712 22.2128V22.2138ZM29.823 22.2138V22.2158C29.6984 22.2177 29.5754 22.2442 29.4611 22.2938C29.3468 22.3434 29.2435 22.4151 29.157 22.5048L27.349 24.3618C27.2621 24.451 27.1936 24.5565 27.1476 24.6722C27.1016 24.7879 27.0789 24.9116 27.0809 25.0361C27.0828 25.1607 27.1094 25.2836 27.159 25.3978C27.2086 25.512 27.2803 25.6153 27.37 25.7018C27.459 25.789 27.5644 25.8577 27.6801 25.904C27.7958 25.9502 27.9196 25.9731 28.0442 25.9712C28.1688 25.9694 28.2918 25.9428 28.4061 25.8931C28.5203 25.8435 28.6236 25.7716 28.71 25.6818L30.519 23.8228C30.6059 23.7335 30.6742 23.628 30.7201 23.5122C30.7661 23.3964 30.7887 23.2727 30.7866 23.1482C30.7846 23.0237 30.7579 22.9008 30.7082 22.7866C30.6585 22.6724 30.5867 22.5691 30.497 22.4828C30.408 22.3956 30.3026 22.3268 30.187 22.2805C30.0713 22.2341 29.9476 22.2111 29.823 22.2128V22.2138ZM32.936 22.2138V22.2158C32.8114 22.2177 32.6884 22.2442 32.5741 22.2938C32.4598 22.3434 32.3565 22.4151 32.27 22.5048L30.462 24.3618C30.3751 24.451 30.3066 24.5565 30.2606 24.6722C30.2146 24.7879 30.1919 24.9116 30.1939 25.0361C30.1958 25.1607 30.2224 25.2836 30.272 25.3978C30.3216 25.512 30.3933 25.6153 30.483 25.7018C30.572 25.789 30.6774 25.8577 30.7931 25.904C30.9088 25.9502 31.0326 25.9731 31.1572 25.9712C31.2818 25.9694 31.4048 25.9428 31.5191 25.8931C31.6333 25.8435 31.7366 25.7716 31.823 25.6818L33.632 23.8228C33.7189 23.7335 33.7872 23.628 33.8331 23.5122C33.8791 23.3964 33.9017 23.2727 33.8996 23.1482C33.8976 23.0237 33.8709 22.9008 33.8212 22.7866C33.7715 22.6724 33.6997 22.5691 33.61 22.4828C33.521 22.3956 33.4156 22.3268 33.3 22.2805C33.1843 22.2341 33.0606 22.2111 32.936 22.2128V22.2138ZM17.438 22.6978C17.5297 22.7051 17.6165 22.7423 17.685 22.8038C18.091 23.1648 17.61 23.5888 17.435 23.7718L16.569 24.6768C15.962 25.3078 15.699 25.7348 15.274 25.3268C14.914 24.9538 15.231 24.7308 15.919 24.0318L16.784 23.1318C16.99 22.9308 17.202 22.6868 17.438 22.6978ZM20.552 22.6978C20.6434 22.7053 20.7298 22.7425 20.798 22.8038C21.204 23.1648 20.723 23.5888 20.548 23.7718L19.683 24.6768C19.075 25.3078 18.811 25.7348 18.388 25.3268C18.028 24.9538 18.344 24.7308 19.032 24.0318L19.898 23.1318C20.103 22.9308 20.316 22.6868 20.552 22.6978ZM23.663 22.6978C23.7544 22.7053 23.8408 22.7425 23.909 22.8038C24.316 23.1648 23.834 23.5888 23.659 23.7718L22.794 24.6768C22.187 25.3078 21.923 25.7348 21.499 25.3268C21.139 24.9538 21.455 24.7308 22.144 24.0318L23.009 23.1318C23.214 22.9308 23.427 22.6868 23.663 22.6978ZM26.776 22.6978C26.8677 22.7051 26.9545 22.7423 27.023 22.8038C27.429 23.1648 26.948 23.5888 26.773 23.7718L25.907 24.6768C25.3 25.3078 25.036 25.7348 24.612 25.3268C24.252 24.9538 24.569 24.7308 25.257 24.0318L26.122 23.1318C26.328 22.9308 26.54 22.6868 26.776 22.6978ZM29.888 22.6978C29.9794 22.7053 30.0658 22.7425 30.134 22.8038C30.54 23.1648 30.059 23.5888 29.884 23.7718L29.019 24.6768C28.411 25.3078 28.147 25.7348 27.724 25.3268C27.364 24.9538 27.68 24.7308 28.368 24.0318L29.233 23.1318C29.439 22.9308 29.651 22.6868 29.888 22.6978ZM33.001 22.6978C33.0924 22.7053 33.1788 22.7425 33.247 22.8038C33.654 23.1648 33.172 23.5888 32.997 23.7718L32.132 24.6768C31.525 25.3078 31.261 25.7348 30.837 25.3268C30.477 24.9538 30.793 24.7308 31.482 24.0318L32.347 23.1318C32.552 22.9308 32.765 22.6868 33.001 22.6978ZM13.864 27.2938C13.8493 27.2939 13.8347 27.2969 13.8212 27.3027C13.8077 27.3084 13.7954 27.3168 13.7851 27.3273C13.7748 27.3378 13.7666 27.3502 13.7611 27.3638C13.7556 27.3775 13.7529 27.3921 13.753 27.4068C13.753 27.4678 13.803 27.5198 13.864 27.5198C13.926 27.5208 13.977 27.4698 13.978 27.4068C13.978 27.3918 13.975 27.3771 13.9693 27.3633C13.9636 27.3495 13.9551 27.337 13.9445 27.3265C13.9339 27.316 13.9214 27.3077 13.9075 27.3021C13.8937 27.2965 13.8789 27.2936 13.864 27.2938ZM14.427 27.2938C14.3969 27.2938 14.3681 27.3056 14.3467 27.3268C14.3254 27.348 14.3133 27.3767 14.313 27.4068C14.314 27.4678 14.365 27.5198 14.427 27.5198C14.488 27.5198 14.537 27.4678 14.538 27.4068V27.3868C14.5339 27.3605 14.5204 27.3365 14.5 27.3194C14.4795 27.3023 14.4536 27.2932 14.427 27.2938ZM14.989 27.2938C14.9741 27.2936 14.9594 27.2965 14.9456 27.3021C14.9318 27.3077 14.9193 27.3161 14.9088 27.3266C14.8983 27.3371 14.89 27.3496 14.8843 27.3634C14.8787 27.3771 14.8759 27.3919 14.876 27.4068C14.876 27.4688 14.927 27.5208 14.989 27.5198C15.051 27.5198 15.099 27.4678 15.101 27.4068V27.3868C15.0969 27.3603 15.0832 27.3362 15.0626 27.3191C15.042 27.302 15.0158 27.293 14.989 27.2938ZM15.552 27.2938C15.537 27.2935 15.5222 27.2962 15.5083 27.3018C15.4944 27.3074 15.4818 27.3157 15.4711 27.3262C15.4605 27.3367 15.4521 27.3493 15.4464 27.3631C15.4407 27.377 15.4379 27.3918 15.438 27.4068C15.439 27.4688 15.49 27.5208 15.552 27.5198C15.613 27.5198 15.662 27.4678 15.663 27.4068V27.3998C15.6612 27.3715 15.6488 27.3449 15.6282 27.3254C15.6076 27.3059 15.5804 27.295 15.552 27.2948V27.2938ZM16.114 27.2938C16.0991 27.2936 16.0844 27.2965 16.0706 27.3021C16.0568 27.3077 16.0443 27.3161 16.0338 27.3266C16.0233 27.3371 16.015 27.3496 16.0093 27.3634C16.0037 27.3771 16.0009 27.3919 16.001 27.4068C16.001 27.4688 16.052 27.5208 16.114 27.5198C16.175 27.5198 16.224 27.4678 16.226 27.4068V27.3998C16.2242 27.3713 16.2116 27.3446 16.1908 27.3251C16.17 27.3056 16.1425 27.2947 16.114 27.2948V27.2938ZM16.677 27.2938C16.6621 27.2936 16.6474 27.2965 16.6336 27.3021C16.6198 27.3077 16.6073 27.3161 16.5968 27.3266C16.5863 27.3371 16.578 27.3496 16.5723 27.3634C16.5667 27.3771 16.5639 27.3919 16.564 27.4068C16.564 27.4688 16.614 27.5208 16.677 27.5198C16.738 27.5198 16.787 27.4678 16.788 27.4068V27.3998C16.7862 27.3715 16.7738 27.3449 16.7532 27.3254C16.7326 27.3059 16.7054 27.295 16.677 27.2948V27.2938ZM17.237 27.2938C17.2223 27.2939 17.2077 27.2969 17.1942 27.3027C17.1807 27.3084 17.1684 27.3168 17.1581 27.3273C17.1478 27.3378 17.1396 27.3502 17.1341 27.3638C17.1286 27.3775 17.1259 27.3921 17.126 27.4068C17.126 27.4678 17.176 27.5198 17.237 27.5198C17.2671 27.5198 17.2959 27.5079 17.3173 27.4867C17.3386 27.4656 17.3507 27.4368 17.351 27.4068V27.3998C17.3492 27.3709 17.3363 27.3439 17.3151 27.3244C17.2938 27.3048 17.2659 27.2942 17.237 27.2948V27.2938ZM17.8 27.2938C17.7853 27.2939 17.7707 27.2969 17.7572 27.3027C17.7437 27.3084 17.7314 27.3168 17.7211 27.3273C17.7108 27.3378 17.7026 27.3502 17.6971 27.3638C17.6916 27.3775 17.6889 27.3921 17.689 27.4068C17.689 27.4678 17.739 27.5198 17.799 27.5198C17.8291 27.5198 17.8579 27.5079 17.8793 27.4867C17.9006 27.4656 17.9127 27.4368 17.913 27.4068V27.3998C17.9112 27.3711 17.8985 27.3443 17.8775 27.3247C17.8564 27.3052 17.8287 27.2945 17.8 27.2948V27.2938ZM18.362 27.2938C18.3473 27.2939 18.3327 27.2969 18.3192 27.3027C18.3057 27.3084 18.2934 27.3168 18.2831 27.3273C18.2728 27.3378 18.2646 27.3502 18.2591 27.3638C18.2536 27.3775 18.2509 27.3921 18.251 27.4068C18.251 27.4678 18.301 27.5198 18.362 27.5198C18.3921 27.5198 18.4209 27.5079 18.4423 27.4867C18.4636 27.4656 18.4757 27.4368 18.476 27.4068V27.3998C18.4742 27.3709 18.4613 27.3439 18.4401 27.3244C18.4188 27.3048 18.3909 27.2942 18.362 27.2948V27.2938ZM18.925 27.2938C18.9103 27.2939 18.8957 27.2969 18.8822 27.3027C18.8687 27.3084 18.8564 27.3168 18.8461 27.3273C18.8358 27.3378 18.8276 27.3502 18.8221 27.3638C18.8166 27.3775 18.8139 27.3921 18.814 27.4068C18.814 27.4678 18.864 27.5198 18.924 27.5198C18.986 27.5198 19.035 27.4678 19.036 27.4068V27.3868C19.0319 27.3605 19.0184 27.3365 18.998 27.3194C18.9775 27.3023 18.9516 27.2932 18.925 27.2938ZM19.487 27.2938C19.457 27.2938 19.4283 27.3057 19.4071 27.3269C19.3859 27.3481 19.374 27.3768 19.374 27.4068C19.374 27.4688 19.425 27.5208 19.487 27.5198C19.549 27.5198 19.597 27.4678 19.599 27.4068V27.3998C19.5972 27.3713 19.5846 27.3446 19.5638 27.3251C19.543 27.3056 19.5155 27.2947 19.487 27.2948V27.2938ZM20.05 27.2938C20.02 27.2938 19.9913 27.3057 19.9701 27.3269C19.9489 27.3481 19.937 27.3768 19.937 27.4068C19.937 27.4688 19.987 27.5208 20.05 27.5198C20.111 27.5198 20.16 27.4678 20.161 27.4068V27.3998C20.1592 27.3715 20.1468 27.3449 20.1262 27.3254C20.1056 27.3059 20.0784 27.295 20.05 27.2948V27.2938ZM20.612 27.2938C20.582 27.2938 20.5533 27.3057 20.5321 27.3269C20.5109 27.3481 20.499 27.3768 20.499 27.4068C20.499 27.4688 20.55 27.5208 20.612 27.5198C20.674 27.5198 20.722 27.4678 20.724 27.4068V27.3998C20.7222 27.3713 20.7096 27.3446 20.6888 27.3251C20.668 27.3056 20.6405 27.2947 20.612 27.2948V27.2938ZM21.175 27.2938C21.145 27.2938 21.1163 27.3057 21.0951 27.3269C21.0739 27.3481 21.062 27.3768 21.062 27.4068C21.062 27.4688 21.112 27.5208 21.175 27.5198C21.236 27.5198 21.285 27.4678 21.286 27.4068V27.3998C21.2842 27.3715 21.2718 27.3449 21.2512 27.3254C21.2306 27.3059 21.2034 27.295 21.175 27.2948V27.2938ZM21.735 27.2938C21.7203 27.2939 21.7057 27.2969 21.6922 27.3027C21.6787 27.3084 21.6664 27.3168 21.6561 27.3273C21.6458 27.3378 21.6376 27.3502 21.6321 27.3638C21.6266 27.3775 21.6239 27.3921 21.624 27.4068C21.624 27.4678 21.674 27.5198 21.735 27.5198C21.7651 27.5198 21.7939 27.5079 21.8153 27.4867C21.8366 27.4656 21.8487 27.4368 21.849 27.4068V27.3998C21.8472 27.3709 21.8343 27.3439 21.8131 27.3244C21.7918 27.3048 21.7639 27.2942 21.735 27.2948V27.2938ZM22.298 27.2938C22.2833 27.2939 22.2687 27.2969 22.2552 27.3027C22.2417 27.3084 22.2294 27.3168 22.2191 27.3273C22.2088 27.3378 22.2006 27.3502 22.1951 27.3638C22.1896 27.3775 22.1869 27.3921 22.187 27.4068C22.187 27.4678 22.237 27.5198 22.297 27.5198C22.3271 27.5198 22.3559 27.5079 22.3773 27.4867C22.3986 27.4656 22.4107 27.4368 22.411 27.4068V27.3998C22.4092 27.3711 22.3965 27.3443 22.3755 27.3247C22.3544 27.3052 22.3267 27.2945 22.298 27.2948V27.2938ZM22.86 27.2938C22.8453 27.2939 22.8307 27.2969 22.8172 27.3027C22.8037 27.3084 22.7914 27.3168 22.7811 27.3273C22.7708 27.3378 22.7626 27.3502 22.7571 27.3638C22.7516 27.3775 22.7489 27.3921 22.749 27.4068C22.749 27.4678 22.799 27.5198 22.86 27.5198C22.922 27.5208 22.973 27.4698 22.974 27.4068C22.974 27.3918 22.971 27.3771 22.9653 27.3633C22.9596 27.3495 22.9511 27.337 22.9405 27.3265C22.9299 27.316 22.9174 27.3077 22.9035 27.3021C22.8897 27.2965 22.8749 27.2936 22.86 27.2938ZM23.423 27.2938C23.4083 27.2939 23.3937 27.2969 23.3802 27.3027C23.3667 27.3084 23.3544 27.3168 23.3441 27.3273C23.3338 27.3378 23.3256 27.3502 23.3201 27.3638C23.3146 27.3775 23.3119 27.3921 23.312 27.4068C23.312 27.4678 23.362 27.5198 23.422 27.5198C23.484 27.5198 23.534 27.4678 23.534 27.4068V27.3868C23.5297 27.3605 23.5161 27.3367 23.4957 27.3197C23.4754 27.3026 23.4496 27.2934 23.423 27.2938ZM23.985 27.2938C23.9701 27.2936 23.9554 27.2965 23.9416 27.3021C23.9278 27.3077 23.9153 27.3161 23.9048 27.3266C23.8943 27.3371 23.886 27.3496 23.8803 27.3634C23.8747 27.3771 23.8719 27.3919 23.872 27.4068C23.872 27.4688 23.923 27.5208 23.985 27.5198C24.047 27.5198 24.095 27.4678 24.097 27.4068V27.3868C24.0929 27.3603 24.0792 27.3362 24.0586 27.3191C24.038 27.302 24.0118 27.293 23.985 27.2938ZM24.548 27.2938C24.5331 27.2936 24.5184 27.2965 24.5046 27.3021C24.4908 27.3077 24.4783 27.3161 24.4678 27.3266C24.4573 27.3371 24.449 27.3496 24.4433 27.3634C24.4377 27.3771 24.4349 27.3919 24.435 27.4068C24.435 27.4688 24.485 27.5208 24.548 27.5198C24.609 27.5198 24.658 27.4678 24.659 27.4068V27.3998C24.6572 27.3715 24.6448 27.3449 24.6242 27.3254C24.6036 27.3059 24.5764 27.295 24.548 27.2948V27.2938ZM25.11 27.2938C25.0951 27.2936 25.0804 27.2965 25.0666 27.3021C25.0528 27.3077 25.0403 27.3161 25.0298 27.3266C25.0193 27.3371 25.011 27.3496 25.0053 27.3634C24.9997 27.3771 24.9969 27.3919 24.997 27.4068C24.997 27.4688 25.048 27.5208 25.11 27.5198C25.172 27.5198 25.22 27.4678 25.222 27.4068V27.3998C25.2202 27.3713 25.2076 27.3446 25.1868 27.3251C25.166 27.3056 25.1385 27.2947 25.11 27.2948V27.2938ZM25.67 27.2938C25.6405 27.2943 25.6123 27.3065 25.5917 27.3276C25.5711 27.3488 25.5597 27.3772 25.56 27.4068C25.56 27.4678 25.61 27.5198 25.67 27.5198C25.7001 27.5198 25.7289 27.5079 25.7503 27.4867C25.7716 27.4656 25.7837 27.4368 25.784 27.4068V27.3998C25.7822 27.3711 25.7695 27.3443 25.7485 27.3247C25.7274 27.3052 25.6997 27.2945 25.671 27.2948L25.67 27.2938ZM26.233 27.2938C26.2035 27.2943 26.1753 27.3065 26.1547 27.3276C26.1341 27.3488 26.1227 27.3772 26.123 27.4068C26.123 27.4678 26.172 27.5198 26.233 27.5198C26.2631 27.5198 26.2919 27.5079 26.3133 27.4867C26.3346 27.4656 26.3467 27.4368 26.347 27.4068V27.3998C26.3452 27.3709 26.3323 27.3439 26.3111 27.3244C26.2898 27.3048 26.2619 27.2942 26.233 27.2948V27.2938ZM26.796 27.2938C26.7813 27.2939 26.7667 27.2969 26.7532 27.3027C26.7397 27.3084 26.7274 27.3168 26.7171 27.3273C26.7068 27.3378 26.6986 27.3502 26.6931 27.3638C26.6876 27.3775 26.6849 27.3921 26.685 27.4068C26.685 27.4678 26.735 27.5198 26.795 27.5198C26.8251 27.5198 26.8539 27.5079 26.8753 27.4867C26.8966 27.4656 26.9087 27.4368 26.909 27.4068V27.3998C26.9072 27.3711 26.8945 27.3443 26.8735 27.3247C26.8524 27.3052 26.8247 27.2945 26.796 27.2948V27.2938ZM27.358 27.2938C27.3285 27.2943 27.3003 27.3065 27.2797 27.3276C27.2591 27.3488 27.2477 27.3772 27.248 27.4068C27.248 27.4678 27.297 27.5198 27.358 27.5198C27.42 27.5208 27.471 27.4698 27.472 27.4068C27.4721 27.3918 27.4693 27.377 27.4636 27.3631C27.4579 27.3493 27.4495 27.3367 27.4388 27.3262C27.4282 27.3157 27.4156 27.3074 27.4017 27.3018C27.3878 27.2962 27.373 27.2935 27.358 27.2938ZM27.921 27.2938C27.9063 27.2939 27.8917 27.2969 27.8782 27.3027C27.8647 27.3084 27.8524 27.3168 27.8421 27.3273C27.8318 27.3378 27.8236 27.3502 27.8181 27.3638C27.8126 27.3775 27.8099 27.3921 27.81 27.4068C27.81 27.4678 27.86 27.5198 27.92 27.5198C27.982 27.5198 28.031 27.4678 28.032 27.4068V27.3868C28.0279 27.3605 28.0144 27.3365 27.994 27.3194C27.9735 27.3023 27.9476 27.2932 27.921 27.2938ZM28.483 27.2938C28.453 27.2938 28.4243 27.3057 28.4031 27.3269C28.3819 27.3481 28.37 27.3768 28.37 27.4068C28.37 27.4688 28.421 27.5208 28.483 27.5198C28.545 27.5198 28.594 27.4678 28.595 27.4068V27.3998C28.5932 27.3713 28.5806 27.3446 28.5598 27.3251C28.539 27.3056 28.5115 27.2947 28.483 27.2948V27.2938ZM29.046 27.2938C29.016 27.2938 28.9873 27.3057 28.9661 27.3269C28.9449 27.3481 28.933 27.3768 28.933 27.4068C28.933 27.4688 28.983 27.5208 29.046 27.5198C29.107 27.5198 29.156 27.4678 29.157 27.4068V27.3998C29.1552 27.3715 29.1428 27.3449 29.1222 27.3254C29.1016 27.3059 29.0744 27.295 29.046 27.2948V27.2938ZM29.608 27.2938C29.578 27.2938 29.5493 27.3057 29.5281 27.3269C29.5069 27.3481 29.495 27.3768 29.495 27.4068C29.495 27.4688 29.546 27.5208 29.608 27.5198C29.67 27.5198 29.719 27.4678 29.72 27.4068V27.3998C29.7182 27.3713 29.7056 27.3446 29.6848 27.3251C29.664 27.3056 29.6365 27.2947 29.608 27.2948V27.2938ZM30.169 27.2938C30.1543 27.2939 30.1397 27.2969 30.1262 27.3027C30.1127 27.3084 30.1004 27.3168 30.0901 27.3273C30.0798 27.3378 30.0716 27.3502 30.0661 27.3638C30.0606 27.3775 30.0579 27.3921 30.058 27.4068C30.058 27.4678 30.108 27.5198 30.169 27.5198C30.1989 27.5195 30.2275 27.5075 30.2486 27.4864C30.2697 27.4653 30.2817 27.4367 30.282 27.4068V27.3998C30.2802 27.3711 30.2675 27.3443 30.2465 27.3247C30.2254 27.3052 30.1977 27.2945 30.169 27.2948V27.2938ZM30.732 27.2938C30.7172 27.2938 30.7026 27.2967 30.6889 27.3024C30.6752 27.3081 30.6629 27.3164 30.6524 27.3269C30.642 27.3374 30.6338 27.3499 30.6282 27.3636C30.6227 27.3773 30.6199 27.392 30.62 27.4068C30.62 27.4678 30.67 27.5198 30.731 27.5198C30.7611 27.5198 30.7899 27.5079 30.8113 27.4867C30.8326 27.4656 30.8447 27.4368 30.845 27.4068V27.3998C30.8432 27.3709 30.8303 27.3439 30.8091 27.3244C30.7878 27.3048 30.7599 27.2942 30.731 27.2948L30.732 27.2938ZM31.294 27.2938C31.2793 27.2939 31.2647 27.2969 31.2512 27.3027C31.2377 27.3084 31.2254 27.3168 31.2151 27.3273C31.2048 27.3378 31.1966 27.3502 31.1911 27.3638C31.1856 27.3775 31.1829 27.3921 31.183 27.4068C31.183 27.4678 31.233 27.5198 31.294 27.5198C31.3239 27.5195 31.3525 27.5075 31.3736 27.4864C31.3947 27.4653 31.4067 27.4367 31.407 27.4068V27.3998C31.4052 27.3711 31.3925 27.3443 31.3715 27.3247C31.3504 27.3052 31.3227 27.2945 31.294 27.2948V27.2938ZM31.857 27.2938C31.8422 27.2938 31.8276 27.2967 31.8139 27.3024C31.8002 27.3081 31.7879 27.3164 31.7774 27.3269C31.767 27.3374 31.7588 27.3499 31.7532 27.3636C31.7477 27.3773 31.7449 27.392 31.745 27.4068C31.745 27.4678 31.795 27.5198 31.856 27.5198C31.918 27.5198 31.967 27.4678 31.968 27.4068V27.3868C31.9639 27.3605 31.9504 27.3365 31.93 27.3194C31.9095 27.3023 31.8836 27.2932 31.857 27.2938ZM32.419 27.2938C32.4041 27.2936 32.3894 27.2965 32.3756 27.3021C32.3618 27.3077 32.3493 27.3161 32.3388 27.3266C32.3283 27.3371 32.32 27.3496 32.3143 27.3634C32.3087 27.3771 32.3059 27.3919 32.306 27.4068C32.306 27.4688 32.357 27.5208 32.419 27.5198C32.48 27.5198 32.529 27.4678 32.53 27.4068V27.3868C32.5259 27.3605 32.5124 27.3365 32.492 27.3194C32.4715 27.3023 32.4456 27.2932 32.419 27.2938ZM32.982 27.2938C32.967 27.2935 32.9522 27.2962 32.9383 27.3018C32.9244 27.3074 32.9118 27.3157 32.9011 27.3262C32.8905 27.3367 32.8821 27.3493 32.8764 27.3631C32.8707 27.377 32.8679 27.3918 32.868 27.4068C32.868 27.4688 32.92 27.5208 32.982 27.5198C33.042 27.5198 33.092 27.4678 33.092 27.4068V27.3998C33.0902 27.3716 33.0779 27.3452 33.0575 27.3257C33.0372 27.3063 33.0102 27.2952 32.982 27.2948V27.2938ZM33.544 27.2938C33.5291 27.2936 33.5144 27.2965 33.5006 27.3021C33.4868 27.3077 33.4743 27.3161 33.4638 27.3266C33.4533 27.3371 33.445 27.3496 33.4393 27.3634C33.4337 27.3771 33.4309 27.3919 33.431 27.4068C33.431 27.4688 33.482 27.5208 33.544 27.5198C33.605 27.5198 33.654 27.4678 33.655 27.4068V27.3998C33.6532 27.3715 33.6408 27.3449 33.6202 27.3254C33.5996 27.3059 33.5723 27.295 33.544 27.2948V27.2938ZM34.107 27.2938C34.092 27.2935 34.0772 27.2962 34.0633 27.3018C34.0494 27.3074 34.0368 27.3157 34.0261 27.3262C34.0155 27.3367 34.0071 27.3493 34.0014 27.3631C33.9957 27.377 33.9929 27.3918 33.993 27.4068C33.993 27.4688 34.045 27.5208 34.107 27.5198C34.167 27.5198 34.217 27.4678 34.217 27.4068V27.3998C34.2152 27.3716 34.2029 27.3452 34.1825 27.3257C34.1622 27.3063 34.1352 27.2952 34.107 27.2948V27.2938ZM34.667 27.2938C34.6523 27.2939 34.6377 27.2969 34.6242 27.3027C34.6107 27.3084 34.5984 27.3168 34.5881 27.3273C34.5778 27.3378 34.5696 27.3502 34.5641 27.3638C34.5586 27.3775 34.5559 27.3921 34.556 27.4068C34.556 27.4678 34.606 27.5198 34.667 27.5198C34.6969 27.5195 34.7255 27.5075 34.7466 27.4864C34.7677 27.4653 34.7797 27.4367 34.78 27.4068V27.3998C34.7782 27.3711 34.7655 27.3443 34.7445 27.3247C34.7234 27.3052 34.6957 27.2945 34.667 27.2948V27.2938ZM18.931 28.7138V28.7158C18.8064 28.7177 18.6834 28.7442 18.5691 28.7938C18.4548 28.8434 18.3515 28.9151 18.265 29.0048L16.456 30.8618C16.3691 30.951 16.3008 31.0566 16.2548 31.1723C16.2089 31.2881 16.1863 31.4118 16.1884 31.5363C16.1904 31.6609 16.2171 31.7838 16.2668 31.898C16.3165 32.0122 16.3883 32.1154 16.478 32.2018C16.5671 32.2888 16.6726 32.3573 16.7883 32.4034C16.904 32.4495 17.0276 32.4722 17.1522 32.4704C17.2767 32.4685 17.3996 32.4421 17.5139 32.3925C17.6282 32.343 17.7315 32.2714 17.818 32.1818L19.626 30.3228C19.7129 30.2336 19.7814 30.1281 19.8274 30.0124C19.8734 29.8966 19.8961 29.7729 19.8941 29.6484C19.8922 29.5239 19.8656 29.401 19.816 29.2867C19.7664 29.1725 19.6947 29.0692 19.605 28.9828C19.516 28.8956 19.4106 28.8268 19.295 28.7805C19.1793 28.7341 19.0556 28.7111 18.931 28.7128V28.7138ZM22.044 28.7138V28.7158C21.9194 28.7177 21.7964 28.7442 21.6821 28.7938C21.5678 28.8434 21.4645 28.9151 21.378 29.0048L19.569 30.8618C19.4821 30.951 19.4138 31.0566 19.3678 31.1723C19.3219 31.2881 19.2993 31.4118 19.3014 31.5363C19.3034 31.6609 19.3301 31.7838 19.3798 31.898C19.4295 32.0122 19.5012 32.1154 19.591 32.2018C19.6801 32.2888 19.7856 32.3573 19.9013 32.4034C20.017 32.4495 20.1406 32.4722 20.2652 32.4704C20.3897 32.4685 20.5126 32.4421 20.6269 32.3925C20.7412 32.343 20.8445 32.2714 20.931 32.1818L22.739 30.3228C22.8259 30.2336 22.8944 30.1281 22.9404 30.0124C22.9864 29.8966 23.0091 29.7729 23.0071 29.6484C23.0052 29.5239 22.9786 29.401 22.929 29.2867C22.8794 29.1725 22.8077 29.0692 22.718 28.9828C22.629 28.8956 22.5236 28.8268 22.408 28.7805C22.2923 28.7341 22.1686 28.7111 22.044 28.7128V28.7138ZM25.155 28.7138V28.7158C25.0304 28.7177 24.9074 28.7442 24.7931 28.7938C24.6788 28.8434 24.5755 28.9151 24.489 29.0048L22.681 30.8618C22.5941 30.951 22.5256 31.0565 22.4796 31.1722C22.4336 31.2879 22.4109 31.4116 22.4129 31.5361C22.4148 31.6607 22.4414 31.7836 22.491 31.8978C22.5406 32.012 22.6123 32.1153 22.702 32.2018C22.7911 32.2888 22.8966 32.3573 23.0123 32.4034C23.128 32.4495 23.2516 32.4722 23.3762 32.4704C23.5007 32.4685 23.6236 32.4421 23.7379 32.3925C23.8522 32.343 23.9555 32.2714 24.042 32.1818L25.851 30.3228C25.9379 30.2335 26.0062 30.128 26.0521 30.0122C26.0981 29.8964 26.1207 29.7727 26.1186 29.6482C26.1166 29.5237 26.0899 29.4008 26.0402 29.2866C25.9905 29.1724 25.9187 29.0691 25.829 28.9828C25.74 28.8956 25.6346 28.8268 25.519 28.7805C25.4033 28.7341 25.2796 28.7111 25.155 28.7128V28.7138ZM28.269 28.7138V28.7158C28.1444 28.7177 28.0214 28.7442 27.9071 28.7938C27.7928 28.8434 27.6895 28.9151 27.603 29.0048L25.794 30.8618C25.7071 30.951 25.6386 31.0565 25.5926 31.1722C25.5466 31.2879 25.5239 31.4116 25.5259 31.5361C25.5278 31.6607 25.5544 31.7836 25.604 31.8978C25.6536 32.012 25.7253 32.1153 25.815 32.2018C25.9041 32.2888 26.0096 32.3573 26.1253 32.4034C26.241 32.4495 26.3646 32.4722 26.4892 32.4704C26.6137 32.4685 26.7366 32.4421 26.8509 32.3925C26.9652 32.343 27.0685 32.2714 27.155 32.1818L28.964 30.3228C29.0509 30.2335 29.1192 30.128 29.1651 30.0122C29.2111 29.8964 29.2337 29.7727 29.2316 29.6482C29.2296 29.5237 29.2029 29.4008 29.1532 29.2866C29.1035 29.1724 29.0317 29.0691 28.942 28.9828C28.8531 28.8957 28.7479 28.827 28.6324 28.7807C28.5169 28.7343 28.3934 28.7113 28.269 28.7128V28.7138ZM31.379 28.7138V28.7158C31.2546 28.7178 31.1318 28.7444 31.0177 28.794C30.9036 28.8435 30.8004 28.9152 30.714 29.0048L28.905 30.8618C28.8181 30.951 28.7498 31.0566 28.7038 31.1723C28.6579 31.2881 28.6353 31.4118 28.6374 31.5363C28.6394 31.6609 28.6661 31.7838 28.7158 31.898C28.7655 32.0122 28.8373 32.1154 28.927 32.2018C29.0161 32.2888 29.1216 32.3573 29.2373 32.4034C29.353 32.4495 29.4766 32.4722 29.6012 32.4704C29.7257 32.4685 29.8486 32.4421 29.9629 32.3925C30.0772 32.343 30.1805 32.2714 30.267 32.1818L32.075 30.3228C32.1619 30.2336 32.2304 30.1281 32.2764 30.0124C32.3224 29.8966 32.3451 29.7729 32.3431 29.6484C32.3412 29.5239 32.3146 29.401 32.265 29.2867C32.2154 29.1725 32.1437 29.0692 32.054 28.9828C31.965 28.8956 31.8596 28.8268 31.744 28.7805C31.6283 28.7341 31.5046 28.7111 31.38 28.7128L31.379 28.7138ZM18.995 29.1978C19.0866 29.2061 19.1729 29.244 19.241 29.3058C19.648 29.6668 19.166 30.0888 18.991 30.2718L18.126 31.1788C17.519 31.8098 17.255 32.2368 16.831 31.8288C16.471 31.4558 16.787 31.2308 17.476 30.5318L18.341 29.6318C18.546 29.4308 18.759 29.1868 18.995 29.1978ZM22.108 29.1978C22.1999 29.2059 22.2866 29.2438 22.355 29.3058C22.761 29.6668 22.28 30.0888 22.105 30.2718L21.239 31.1788C20.632 31.8098 20.368 32.2368 19.944 31.8288C19.584 31.4558 19.901 31.2308 20.589 30.5318L21.454 29.6318C21.66 29.4308 21.872 29.1868 22.108 29.1978ZM25.22 29.1978C25.3116 29.2061 25.3979 29.244 25.466 29.3058C25.872 29.6668 25.391 30.0888 25.216 30.2718L24.351 31.1788C23.743 31.8098 23.479 32.2368 23.056 31.8288C22.696 31.4558 23.012 31.2308 23.7 30.5318L24.565 29.6318C24.771 29.4308 24.984 29.1868 25.22 29.1978ZM28.333 29.1978C28.4246 29.2061 28.5109 29.244 28.579 29.3058C28.986 29.6668 28.504 30.0888 28.329 30.2718L27.464 31.1788C26.857 31.8098 26.593 32.2368 26.169 31.8288C25.809 31.4558 26.125 31.2308 26.814 30.5318L27.679 29.6318C27.884 29.4308 28.097 29.1868 28.333 29.1978ZM31.444 29.1978C31.5355 29.2062 31.6219 29.2441 31.69 29.3058C32.097 29.6668 31.616 30.0888 31.44 30.2718L30.575 31.1788C29.968 31.8098 29.704 32.2368 29.28 31.8288C28.92 31.4558 29.237 31.2308 29.925 30.5318L30.79 29.6318C30.995 29.4308 31.208 29.1868 31.444 29.1978ZM13.864 33.9228C13.8493 33.9229 13.8347 33.9259 13.8212 33.9317C13.8077 33.9374 13.7954 33.9458 13.7851 33.9563C13.7748 33.9668 13.7666 33.9792 13.7611 33.9928C13.7556 34.0065 13.7529 34.0211 13.753 34.0358C13.753 34.0968 13.803 34.1488 13.864 34.1488C13.926 34.1498 13.977 34.0988 13.978 34.0358C13.978 34.0208 13.975 34.0061 13.9693 33.9923C13.9636 33.9785 13.9551 33.966 13.9445 33.9555C13.9339 33.945 13.9214 33.9367 13.9075 33.9311C13.8937 33.9255 13.8789 33.9226 13.864 33.9228ZM14.427 33.9228C14.3969 33.9228 14.3681 33.9346 14.3467 33.9558C14.3254 33.977 14.3133 34.0057 14.313 34.0358C14.314 34.0968 14.365 34.1488 14.427 34.1488C14.488 34.1488 14.537 34.0968 14.538 34.0358V34.0158C14.5339 33.9895 14.5204 33.9655 14.5 33.9484C14.4795 33.9313 14.4536 33.9222 14.427 33.9228ZM14.989 33.9228C14.9741 33.9226 14.9594 33.9255 14.9456 33.9311C14.9318 33.9367 14.9193 33.9451 14.9088 33.9556C14.8983 33.9661 14.89 33.9786 14.8843 33.9924C14.8787 34.0061 14.8759 34.0209 14.876 34.0358C14.876 34.0978 14.927 34.1498 14.989 34.1488C15.051 34.1488 15.099 34.0968 15.101 34.0358V34.0158C15.0969 33.9893 15.0832 33.9652 15.0626 33.9481C15.042 33.931 15.0158 33.922 14.989 33.9228ZM15.552 33.9228C15.537 33.9225 15.5222 33.9252 15.5083 33.9308C15.4944 33.9364 15.4818 33.9447 15.4711 33.9552C15.4605 33.9657 15.4521 33.9783 15.4464 33.9921C15.4407 34.006 15.4379 34.0208 15.438 34.0358C15.439 34.0978 15.49 34.1498 15.552 34.1488C15.613 34.1488 15.662 34.0968 15.663 34.0358V34.0278C15.6612 33.9995 15.6488 33.9729 15.6282 33.9534C15.6076 33.9339 15.5804 33.923 15.552 33.9228ZM16.114 33.9228C16.0991 33.9226 16.0844 33.9255 16.0706 33.9311C16.0568 33.9367 16.0443 33.9451 16.0338 33.9556C16.0233 33.9661 16.015 33.9786 16.0093 33.9924C16.0037 34.0061 16.0009 34.0209 16.001 34.0358C16.001 34.0978 16.052 34.1498 16.114 34.1488C16.175 34.1488 16.224 34.0968 16.226 34.0358V34.0278C16.2242 33.9993 16.2116 33.9726 16.1908 33.9531C16.17 33.9336 16.1425 33.9227 16.114 33.9228ZM16.677 33.9228C16.6621 33.9226 16.6474 33.9255 16.6336 33.9311C16.6198 33.9367 16.6073 33.9451 16.5968 33.9556C16.5863 33.9661 16.578 33.9786 16.5723 33.9924C16.5667 34.0061 16.5639 34.0209 16.564 34.0358C16.564 34.0978 16.614 34.1498 16.677 34.1488C16.738 34.1488 16.787 34.0968 16.788 34.0358V34.0278C16.7862 33.9995 16.7738 33.9729 16.7532 33.9534C16.7326 33.9339 16.7054 33.923 16.677 33.9228ZM17.237 33.9228C17.2223 33.9229 17.2077 33.9259 17.1942 33.9317C17.1807 33.9374 17.1684 33.9458 17.1581 33.9563C17.1478 33.9668 17.1396 33.9792 17.1341 33.9928C17.1286 34.0065 17.1259 34.0211 17.126 34.0358C17.126 34.0968 17.176 34.1488 17.237 34.1488C17.2671 34.1488 17.2959 34.1369 17.3173 34.1157C17.3386 34.0946 17.3507 34.0658 17.351 34.0358V34.0278C17.3492 33.9989 17.3363 33.9719 17.3151 33.9524C17.2938 33.9328 17.2659 33.9222 17.237 33.9228ZM17.8 33.9228C17.7853 33.9229 17.7707 33.9259 17.7572 33.9317C17.7437 33.9374 17.7314 33.9458 17.7211 33.9563C17.7108 33.9668 17.7026 33.9792 17.6971 33.9928C17.6916 34.0065 17.6889 34.0211 17.689 34.0358C17.689 34.0968 17.739 34.1488 17.799 34.1488C17.8291 34.1488 17.8579 34.1369 17.8793 34.1157C17.9006 34.0946 17.9127 34.0658 17.913 34.0358V34.0278C17.9112 33.9991 17.8985 33.9723 17.8775 33.9527C17.8564 33.9332 17.8287 33.9225 17.8 33.9228ZM18.362 33.9228C18.3473 33.9229 18.3327 33.9259 18.3192 33.9317C18.3057 33.9374 18.2934 33.9458 18.2831 33.9563C18.2728 33.9668 18.2646 33.9792 18.2591 33.9928C18.2536 34.0065 18.2509 34.0211 18.251 34.0358C18.251 34.0968 18.301 34.1488 18.362 34.1488C18.3921 34.1488 18.4209 34.1369 18.4423 34.1157C18.4636 34.0946 18.4757 34.0658 18.476 34.0358V34.0278C18.4742 33.9989 18.4613 33.9719 18.4401 33.9524C18.4188 33.9328 18.3909 33.9222 18.362 33.9228ZM18.925 33.9228C18.9103 33.9229 18.8957 33.9259 18.8822 33.9317C18.8687 33.9374 18.8564 33.9458 18.8461 33.9563C18.8358 33.9668 18.8276 33.9792 18.8221 33.9928C18.8166 34.0065 18.8139 34.0211 18.814 34.0358C18.814 34.0968 18.864 34.1488 18.924 34.1488C18.986 34.1488 19.035 34.0968 19.036 34.0358V34.0158C19.0319 33.9895 19.0184 33.9655 18.998 33.9484C18.9775 33.9313 18.9516 33.9222 18.925 33.9228ZM19.487 33.9228C19.457 33.9228 19.4283 33.9347 19.4071 33.9559C19.3859 33.9771 19.374 34.0058 19.374 34.0358C19.374 34.0978 19.425 34.1498 19.487 34.1488C19.549 34.1488 19.597 34.0968 19.599 34.0358V34.0278C19.5972 33.9993 19.5846 33.9726 19.5638 33.9531C19.543 33.9336 19.5155 33.9227 19.487 33.9228ZM20.05 33.9228C20.02 33.9228 19.9913 33.9347 19.9701 33.9559C19.9489 33.9771 19.937 34.0058 19.937 34.0358C19.937 34.0978 19.987 34.1498 20.05 34.1488C20.111 34.1488 20.16 34.0968 20.161 34.0358V34.0278C20.1592 33.9995 20.1468 33.9729 20.1262 33.9534C20.1056 33.9339 20.0784 33.923 20.05 33.9228ZM20.612 33.9228C20.582 33.9228 20.5533 33.9347 20.5321 33.9559C20.5109 33.9771 20.499 34.0058 20.499 34.0358C20.499 34.0978 20.55 34.1498 20.612 34.1488C20.674 34.1488 20.722 34.0968 20.724 34.0358V34.0278C20.7222 33.9993 20.7096 33.9726 20.6888 33.9531C20.668 33.9336 20.6405 33.9227 20.612 33.9228ZM21.175 33.9228C21.145 33.9228 21.1163 33.9347 21.0951 33.9559C21.0739 33.9771 21.062 34.0058 21.062 34.0358C21.062 34.0978 21.112 34.1498 21.175 34.1488C21.236 34.1488 21.285 34.0968 21.286 34.0358V34.0278C21.2842 33.9995 21.2718 33.9729 21.2512 33.9534C21.2306 33.9339 21.2034 33.923 21.175 33.9228ZM21.735 33.9228C21.7203 33.9229 21.7057 33.9259 21.6922 33.9317C21.6787 33.9374 21.6664 33.9458 21.6561 33.9563C21.6458 33.9668 21.6376 33.9792 21.6321 33.9928C21.6266 34.0065 21.6239 34.0211 21.624 34.0358C21.624 34.0968 21.674 34.1488 21.735 34.1488C21.7651 34.1488 21.7939 34.1369 21.8153 34.1157C21.8366 34.0946 21.8487 34.0658 21.849 34.0358V34.0278C21.8472 33.9989 21.8343 33.9719 21.8131 33.9524C21.7918 33.9328 21.7639 33.9222 21.735 33.9228ZM22.298 33.9228C22.2833 33.9229 22.2687 33.9259 22.2552 33.9317C22.2417 33.9374 22.2294 33.9458 22.2191 33.9563C22.2088 33.9668 22.2006 33.9792 22.1951 33.9928C22.1896 34.0065 22.1869 34.0211 22.187 34.0358C22.187 34.0968 22.237 34.1488 22.297 34.1488C22.3271 34.1488 22.3559 34.1369 22.3773 34.1157C22.3986 34.0946 22.4107 34.0658 22.411 34.0358V34.0278C22.4092 33.9991 22.3965 33.9723 22.3755 33.9527C22.3544 33.9332 22.3267 33.9225 22.298 33.9228ZM22.86 33.9228C22.8453 33.9229 22.8307 33.9259 22.8172 33.9317C22.8037 33.9374 22.7914 33.9458 22.7811 33.9563C22.7708 33.9668 22.7626 33.9792 22.7571 33.9928C22.7516 34.0065 22.7489 34.0211 22.749 34.0358C22.749 34.0968 22.799 34.1488 22.86 34.1488C22.922 34.1498 22.973 34.0988 22.974 34.0358C22.974 34.0208 22.971 34.0061 22.9653 33.9923C22.9596 33.9785 22.9511 33.966 22.9405 33.9555C22.9299 33.945 22.9174 33.9367 22.9035 33.9311C22.8897 33.9255 22.8749 33.9226 22.86 33.9228ZM23.423 33.9228C23.4083 33.9229 23.3937 33.9259 23.3802 33.9317C23.3667 33.9374 23.3544 33.9458 23.3441 33.9563C23.3338 33.9668 23.3256 33.9792 23.3201 33.9928C23.3146 34.0065 23.3119 34.0211 23.312 34.0358C23.312 34.0968 23.362 34.1488 23.422 34.1488C23.484 34.1488 23.534 34.0968 23.534 34.0358V34.0158C23.5297 33.9895 23.5161 33.9657 23.4957 33.9487C23.4754 33.9316 23.4496 33.9224 23.423 33.9228ZM23.985 33.9228C23.9701 33.9226 23.9554 33.9255 23.9416 33.9311C23.9278 33.9367 23.9153 33.9451 23.9048 33.9556C23.8943 33.9661 23.886 33.9786 23.8803 33.9924C23.8747 34.0061 23.8719 34.0209 23.872 34.0358C23.872 34.0978 23.923 34.1498 23.985 34.1488C24.047 34.1488 24.095 34.0968 24.097 34.0358V34.0158C24.0929 33.9893 24.0792 33.9652 24.0586 33.9481C24.038 33.931 24.0118 33.922 23.985 33.9228ZM24.548 33.9228C24.5331 33.9226 24.5184 33.9255 24.5046 33.9311C24.4908 33.9367 24.4783 33.9451 24.4678 33.9556C24.4573 33.9661 24.449 33.9786 24.4433 33.9924C24.4377 34.0061 24.4349 34.0209 24.435 34.0358C24.435 34.0978 24.485 34.1498 24.548 34.1488C24.609 34.1488 24.658 34.0968 24.659 34.0358V34.0278C24.6572 33.9995 24.6448 33.9729 24.6242 33.9534C24.6036 33.9339 24.5764 33.923 24.548 33.9228ZM25.11 33.9228C25.0951 33.9226 25.0804 33.9255 25.0666 33.9311C25.0528 33.9367 25.0403 33.9451 25.0298 33.9556C25.0193 33.9661 25.011 33.9786 25.0053 33.9924C24.9997 34.0061 24.9969 34.0209 24.997 34.0358C24.997 34.0978 25.048 34.1498 25.11 34.1488C25.172 34.1488 25.22 34.0968 25.222 34.0358V34.0278C25.2202 33.9993 25.2076 33.9726 25.1868 33.9531C25.166 33.9336 25.1385 33.9227 25.11 33.9228ZM25.67 33.9228C25.6405 33.9233 25.6123 33.9355 25.5917 33.9566C25.5711 33.9778 25.5597 34.0062 25.56 34.0358C25.56 34.0968 25.61 34.1488 25.67 34.1488C25.7001 34.1488 25.7289 34.1369 25.7503 34.1157C25.7716 34.0946 25.7837 34.0658 25.784 34.0358V34.0278C25.7822 33.9991 25.7695 33.9723 25.7485 33.9527C25.7274 33.9332 25.6997 33.9225 25.671 33.9228H25.67ZM26.233 33.9228C26.2035 33.9233 26.1753 33.9355 26.1547 33.9566C26.1341 33.9778 26.1227 34.0062 26.123 34.0358C26.123 34.0968 26.172 34.1488 26.233 34.1488C26.2631 34.1488 26.2919 34.1369 26.3133 34.1157C26.3346 34.0946 26.3467 34.0658 26.347 34.0358V34.0278C26.3452 33.9989 26.3323 33.9719 26.3111 33.9524C26.2898 33.9328 26.2619 33.9222 26.233 33.9228ZM26.796 33.9228C26.7813 33.9229 26.7667 33.9259 26.7532 33.9317C26.7397 33.9374 26.7274 33.9458 26.7171 33.9563C26.7068 33.9668 26.6986 33.9792 26.6931 33.9928C26.6876 34.0065 26.6849 34.0211 26.685 34.0358C26.685 34.0968 26.735 34.1488 26.795 34.1488C26.8251 34.1488 26.8539 34.1369 26.8753 34.1157C26.8966 34.0946 26.9087 34.0658 26.909 34.0358V34.0278C26.9072 33.9991 26.8945 33.9723 26.8735 33.9527C26.8524 33.9332 26.8247 33.9225 26.796 33.9228ZM27.358 33.9228C27.3285 33.9233 27.3003 33.9355 27.2797 33.9566C27.2591 33.9778 27.2477 34.0062 27.248 34.0358C27.248 34.0968 27.297 34.1488 27.358 34.1488C27.42 34.1498 27.471 34.0988 27.472 34.0358C27.4721 34.0208 27.4693 34.006 27.4636 33.9921C27.4579 33.9783 27.4495 33.9657 27.4388 33.9552C27.4282 33.9447 27.4156 33.9364 27.4017 33.9308C27.3878 33.9252 27.373 33.9225 27.358 33.9228ZM27.921 33.9228C27.9063 33.9229 27.8917 33.9259 27.8782 33.9317C27.8647 33.9374 27.8524 33.9458 27.8421 33.9563C27.8318 33.9668 27.8236 33.9792 27.8181 33.9928C27.8126 34.0065 27.8099 34.0211 27.81 34.0358C27.81 34.0968 27.86 34.1488 27.92 34.1488C27.982 34.1488 28.031 34.0968 28.032 34.0358V34.0158C28.0279 33.9895 28.0144 33.9655 27.994 33.9484C27.9735 33.9313 27.9476 33.9222 27.921 33.9228ZM28.483 33.9228C28.453 33.9228 28.4243 33.9347 28.4031 33.9559C28.3819 33.9771 28.37 34.0058 28.37 34.0358C28.37 34.0978 28.421 34.1498 28.483 34.1488C28.545 34.1488 28.594 34.0968 28.595 34.0358V34.0278C28.5932 33.9993 28.5806 33.9726 28.5598 33.9531C28.539 33.9336 28.5115 33.9227 28.483 33.9228ZM29.046 33.9228C29.016 33.9228 28.9873 33.9347 28.9661 33.9559C28.9449 33.9771 28.933 34.0058 28.933 34.0358C28.933 34.0978 28.983 34.1498 29.046 34.1488C29.107 34.1488 29.156 34.0968 29.157 34.0358V34.0278C29.1552 33.9995 29.1428 33.9729 29.1222 33.9534C29.1016 33.9339 29.0744 33.923 29.046 33.9228ZM29.608 33.9228C29.578 33.9228 29.5493 33.9347 29.5281 33.9559C29.5069 33.9771 29.495 34.0058 29.495 34.0358C29.495 34.0978 29.546 34.1498 29.608 34.1488C29.67 34.1488 29.719 34.0968 29.72 34.0358V34.0278C29.7182 33.9993 29.7056 33.9726 29.6848 33.9531C29.664 33.9336 29.6365 33.9227 29.608 33.9228ZM30.169 33.9228C30.1543 33.9229 30.1397 33.9259 30.1262 33.9317C30.1127 33.9374 30.1004 33.9458 30.0901 33.9563C30.0798 33.9668 30.0716 33.9792 30.0661 33.9928C30.0606 34.0065 30.0579 34.0211 30.058 34.0358C30.058 34.0968 30.108 34.1488 30.169 34.1488C30.1989 34.1485 30.2275 34.1365 30.2486 34.1154C30.2697 34.0943 30.2817 34.0657 30.282 34.0358V34.0278C30.2802 33.9991 30.2675 33.9723 30.2465 33.9527C30.2254 33.9332 30.1977 33.9225 30.169 33.9228ZM30.732 33.9228C30.7172 33.9228 30.7026 33.9257 30.6889 33.9314C30.6752 33.9371 30.6629 33.9454 30.6524 33.9559C30.642 33.9664 30.6338 33.9789 30.6282 33.9926C30.6227 34.0063 30.6199 34.021 30.62 34.0358C30.62 34.0968 30.67 34.1488 30.731 34.1488C30.7611 34.1488 30.7899 34.1369 30.8113 34.1157C30.8326 34.0946 30.8447 34.0658 30.845 34.0358V34.0278C30.8432 33.9989 30.8303 33.9719 30.8091 33.9524C30.7878 33.9328 30.7599 33.9222 30.731 33.9228H30.732ZM31.294 33.9228C31.2793 33.9229 31.2647 33.9259 31.2512 33.9317C31.2377 33.9374 31.2254 33.9458 31.2151 33.9563C31.2048 33.9668 31.1966 33.9792 31.1911 33.9928C31.1856 34.0065 31.1829 34.0211 31.183 34.0358C31.183 34.0968 31.233 34.1488 31.294 34.1488C31.3239 34.1485 31.3525 34.1365 31.3736 34.1154C31.3947 34.0943 31.4067 34.0657 31.407 34.0358V34.0278C31.4052 33.9991 31.3925 33.9723 31.3715 33.9527C31.3504 33.9332 31.3227 33.9225 31.294 33.9228ZM31.857 33.9228C31.8422 33.9228 31.8276 33.9257 31.8139 33.9314C31.8002 33.9371 31.7879 33.9454 31.7774 33.9559C31.767 33.9664 31.7588 33.9789 31.7532 33.9926C31.7477 34.0063 31.7449 34.021 31.745 34.0358C31.745 34.0968 31.795 34.1488 31.856 34.1488C31.918 34.1488 31.967 34.0968 31.968 34.0358V34.0158C31.9639 33.9895 31.9504 33.9655 31.93 33.9484C31.9095 33.9313 31.8836 33.9222 31.857 33.9228ZM32.419 33.9228C32.4041 33.9226 32.3894 33.9255 32.3756 33.9311C32.3618 33.9367 32.3493 33.9451 32.3388 33.9556C32.3283 33.9661 32.32 33.9786 32.3143 33.9924C32.3087 34.0061 32.3059 34.0209 32.306 34.0358C32.306 34.0978 32.357 34.1498 32.419 34.1488C32.48 34.1488 32.529 34.0968 32.53 34.0358V34.0158C32.5259 33.9895 32.5124 33.9655 32.492 33.9484C32.4715 33.9313 32.4456 33.9222 32.419 33.9228ZM32.982 33.9228C32.967 33.9225 32.9522 33.9252 32.9383 33.9308C32.9244 33.9364 32.9118 33.9447 32.9011 33.9552C32.8905 33.9657 32.8821 33.9783 32.8764 33.9921C32.8707 34.006 32.8679 34.0208 32.868 34.0358C32.868 34.0978 32.92 34.1498 32.982 34.1488C33.042 34.1488 33.092 34.0968 33.092 34.0358V34.0278C33.0902 33.9996 33.0779 33.9732 33.0575 33.9537C33.0372 33.9343 33.0102 33.9232 32.982 33.9228ZM33.544 33.9228C33.5291 33.9226 33.5144 33.9255 33.5006 33.9311C33.4868 33.9367 33.4743 33.9451 33.4638 33.9556C33.4533 33.9661 33.445 33.9786 33.4393 33.9924C33.4337 34.0061 33.4309 34.0209 33.431 34.0358C33.431 34.0978 33.482 34.1498 33.544 34.1488C33.605 34.1488 33.654 34.0968 33.655 34.0358V34.0278C33.6532 33.9995 33.6408 33.9729 33.6202 33.9534C33.5996 33.9339 33.5723 33.923 33.544 33.9228ZM34.107 33.9228C34.092 33.9225 34.0772 33.9252 34.0633 33.9308C34.0494 33.9364 34.0368 33.9447 34.0261 33.9552C34.0155 33.9657 34.0071 33.9783 34.0014 33.9921C33.9957 34.006 33.9929 34.0208 33.993 34.0358C33.993 34.0978 34.045 34.1498 34.107 34.1488C34.167 34.1488 34.217 34.0968 34.217 34.0358V34.0278C34.2152 33.9996 34.2029 33.9732 34.1825 33.9537C34.1622 33.9343 34.1352 33.9232 34.107 33.9228ZM34.667 33.9228C34.6523 33.9229 34.6377 33.9259 34.6242 33.9317C34.6107 33.9374 34.5984 33.9458 34.5881 33.9563C34.5778 33.9668 34.5696 33.9792 34.5641 33.9928C34.5586 34.0065 34.5559 34.0211 34.556 34.0358C34.556 34.0968 34.606 34.1488 34.667 34.1488C34.6969 34.1485 34.7255 34.1365 34.7466 34.1154C34.7677 34.0943 34.7797 34.0657 34.78 34.0358V34.0278C34.7782 33.9991 34.7655 33.9723 34.7445 33.9527C34.7234 33.9332 34.6957 33.9225 34.667 33.9228ZM18.93 35.2128V35.2148C18.8054 35.2167 18.6824 35.2432 18.5681 35.2928C18.4538 35.3424 18.3505 35.4141 18.264 35.5038L16.455 37.3608C16.3681 37.45 16.2998 37.5556 16.2538 37.6713C16.2079 37.7871 16.1853 37.9108 16.1874 38.0354C16.1894 38.1599 16.2161 38.2828 16.2658 38.397C16.3155 38.5112 16.3872 38.6144 16.477 38.7008C16.5661 38.7878 16.6716 38.8563 16.7873 38.9024C16.903 38.9485 17.0266 38.9712 17.1512 38.9694C17.2757 38.9675 17.3986 38.9411 17.5129 38.8915C17.6272 38.842 17.7305 38.7704 17.817 38.6808L19.625 36.8218C19.7119 36.7326 19.7804 36.6271 19.8264 36.5114C19.8724 36.3956 19.8951 36.2719 19.8931 36.1474C19.8912 36.0229 19.8646 35.9 19.815 35.7857C19.7654 35.6715 19.6937 35.5682 19.604 35.4818C19.515 35.3946 19.4096 35.3258 19.294 35.2795C19.1783 35.2331 19.0546 35.2101 18.93 35.2118V35.2128ZM22.043 35.2128V35.2148C21.9184 35.2167 21.7954 35.2432 21.6811 35.2928C21.5668 35.3424 21.4635 35.4141 21.377 35.5038L19.568 37.3608C19.4811 37.45 19.4128 37.5556 19.3668 37.6713C19.3209 37.7871 19.2983 37.9108 19.3004 38.0354C19.3024 38.1599 19.3291 38.2828 19.3788 38.397C19.4285 38.5112 19.5003 38.6144 19.59 38.7008C19.6791 38.7878 19.7846 38.8563 19.9003 38.9024C20.016 38.9485 20.1396 38.9712 20.2642 38.9694C20.3887 38.9675 20.5116 38.9411 20.6259 38.8915C20.7402 38.842 20.8435 38.7704 20.93 38.6808L22.738 36.8218C22.8249 36.7326 22.8934 36.6271 22.9394 36.5114C22.9854 36.3956 23.0081 36.2719 23.0061 36.1474C23.0042 36.0229 22.9776 35.9 22.928 35.7857C22.8784 35.6715 22.8067 35.5682 22.717 35.4818C22.628 35.3946 22.5226 35.3258 22.407 35.2795C22.2913 35.2331 22.1676 35.2101 22.043 35.2118V35.2128ZM25.154 35.2128V35.2148C25.0294 35.2167 24.9064 35.2432 24.7921 35.2928C24.6778 35.3424 24.5745 35.4141 24.488 35.5038L22.68 37.3598C22.5931 37.449 22.5246 37.5545 22.4786 37.6702C22.4326 37.7859 22.4099 37.9096 22.4119 38.0341C22.4138 38.1587 22.4404 38.2816 22.49 38.3958C22.5396 38.5101 22.6113 38.6133 22.701 38.6998C22.7901 38.7868 22.8956 38.8553 23.0113 38.9014C23.127 38.9475 23.2506 38.9702 23.3752 38.9684C23.4997 38.9665 23.6226 38.9401 23.7369 38.8905C23.8512 38.841 23.9545 38.7694 24.041 38.6798L25.85 36.8208C25.9369 36.7315 26.0052 36.626 26.0511 36.5102C26.0971 36.3944 26.1197 36.2707 26.1176 36.1462C26.1156 36.0217 26.0889 35.8988 26.0392 35.7846C25.9895 35.6704 25.9177 35.5671 25.828 35.4808C25.739 35.3936 25.6336 35.3248 25.518 35.2785C25.4023 35.2321 25.2786 35.2091 25.154 35.2108V35.2128ZM28.268 35.2128V35.2148C28.1434 35.2167 28.0205 35.2432 27.9062 35.2928C27.7919 35.3424 27.6885 35.4141 27.602 35.5038L25.793 37.3608C25.7061 37.45 25.6376 37.5555 25.5916 37.6712C25.5456 37.7869 25.5229 37.9106 25.5249 38.0351C25.5268 38.1597 25.5534 38.2826 25.603 38.3968C25.6526 38.5111 25.7243 38.6143 25.814 38.7008C25.9031 38.7878 26.0086 38.8563 26.1243 38.9024C26.24 38.9485 26.3636 38.9712 26.4882 38.9694C26.6127 38.9675 26.7356 38.9411 26.8499 38.8915C26.9642 38.842 27.0675 38.7704 27.154 38.6808L28.963 36.8218C29.0499 36.7325 29.1182 36.627 29.1641 36.5112C29.2101 36.3954 29.2327 36.2717 29.2306 36.1472C29.2286 36.0227 29.2019 35.8998 29.1522 35.7856C29.1025 35.6714 29.0307 35.5681 28.941 35.4818C28.8521 35.3947 28.7469 35.326 28.6314 35.2797C28.5159 35.2333 28.3924 35.2103 28.268 35.2118V35.2128ZM31.378 35.2128V35.2148C31.2536 35.2168 31.1308 35.2434 31.0167 35.293C30.9026 35.3426 30.7994 35.4142 30.713 35.5038L28.904 37.3608C28.8171 37.45 28.7488 37.5556 28.7028 37.6713C28.6569 37.7871 28.6343 37.9108 28.6364 38.0354C28.6384 38.1599 28.6651 38.2828 28.7148 38.397C28.7645 38.5112 28.8363 38.6144 28.926 38.7008C29.0151 38.7878 29.1206 38.8563 29.2363 38.9024C29.352 38.9485 29.4756 38.9712 29.6002 38.9694C29.7247 38.9675 29.8476 38.9411 29.9619 38.8915C30.0762 38.842 30.1795 38.7704 30.266 38.6808L32.074 36.8218C32.1609 36.7326 32.2294 36.6271 32.2754 36.5114C32.3214 36.3956 32.3441 36.2719 32.3421 36.1474C32.3402 36.0229 32.3136 35.9 32.264 35.7857C32.2144 35.6715 32.1427 35.5682 32.053 35.4818C31.964 35.3946 31.8586 35.3258 31.743 35.2795C31.6273 35.2331 31.5036 35.2101 31.379 35.2118L31.378 35.2128ZM18.994 35.6948V35.6968C19.0854 35.7042 19.1718 35.7415 19.24 35.8028C19.647 36.1638 19.165 36.5898 18.99 36.7728L18.125 37.6778C17.518 38.3088 17.254 38.7338 16.83 38.3258C16.47 37.9528 16.786 37.7318 17.475 37.0328L18.34 36.1288C18.545 35.9278 18.758 35.6838 18.994 35.6948ZM22.107 35.6948V35.6968C22.1987 35.704 22.2855 35.7413 22.354 35.8028C22.76 36.1638 22.279 36.5898 22.104 36.7728L21.238 37.6778C20.631 38.3088 20.367 38.7338 19.943 38.3258C19.583 37.9528 19.9 37.7318 20.588 37.0328L21.453 36.1288C21.659 35.9278 21.871 35.6838 22.107 35.6948ZM25.219 35.6948V35.6968C25.3104 35.7042 25.3968 35.7415 25.465 35.8028C25.871 36.1638 25.39 36.5898 25.215 36.7728L24.35 37.6778C23.742 38.3088 23.478 38.7338 23.055 38.3258C22.695 37.9528 23.011 37.7318 23.699 37.0328L24.564 36.1288C24.77 35.9278 24.983 35.6838 25.219 35.6948ZM28.332 35.6948V35.6968C28.4234 35.7042 28.5098 35.7415 28.578 35.8028C28.985 36.1638 28.503 36.5898 28.328 36.7728L27.463 37.6778C26.856 38.3088 26.592 38.7338 26.168 38.3258C25.808 37.9528 26.124 37.7318 26.813 37.0328L27.678 36.1288C27.883 35.9278 28.096 35.6838 28.332 35.6948ZM31.443 35.6948V35.6968C31.5344 35.7043 31.6208 35.7415 31.689 35.8028C32.096 36.1638 31.615 36.5898 31.439 36.7728L30.574 37.6778C29.967 38.3088 29.703 38.7338 29.279 38.3258C28.919 37.9528 29.236 37.7318 29.924 37.0328L30.789 36.1288C30.994 35.9278 31.207 35.6838 31.443 35.6948Z" fill="#333333"/>
</svg>
