<svg width="48" height="48" viewBox="0 0 48 48" fill="none" xmlns="http://www.w3.org/2000/svg">
<g clip-path="url(#clip0)">
<path fill-rule="evenodd" clip-rule="evenodd" d="M0.0732422 -0.125V47.875H48.0732V-0.125H0.0732422ZM14.2197 3.87506H33.9248C34.7942 3.87506 35.4932 4.57392 35.4932 5.44337V42.3047C35.4932 43.1742 34.7942 43.875 33.9248 43.875H14.2197C13.3503 43.875 12.6514 43.1742 12.6514 42.3047V5.44337C12.6514 4.57392 13.3503 3.87506 14.2197 3.87506ZM19.5713 11.9415V11.9434C19.3291 11.9468 19.0883 12.0443 18.9053 12.2325L17.0967 14.09C16.7306 14.466 16.7378 15.0636 17.1143 15.4298C17.4905 15.7968 18.088 15.7881 18.4541 15.4109L20.2627 13.5516C20.6288 13.1751 20.6215 12.5779 20.2451 12.2116C20.057 12.0287 19.8135 11.9388 19.5713 11.9422L19.5713 11.9415ZM24.9639 11.9415V11.9434C24.7217 11.9468 24.4809 12.0443 24.2978 12.2325L22.4893 14.09C22.1231 14.466 22.1304 15.0636 22.5068 15.4298C22.8831 15.7968 23.4806 15.7881 23.8467 15.4109L25.6553 13.5516C26.0214 13.1751 26.0141 12.5779 25.6377 12.2116C25.4495 12.0287 25.2061 11.9388 24.9639 11.9422V11.9415ZM30.3545 11.9415V11.9434C30.1123 11.9468 29.8715 12.0443 29.6885 12.2325L27.8799 14.09C27.5138 14.466 27.5249 15.0636 27.9013 15.4298C28.2776 15.7968 28.8751 15.7881 29.2412 15.4109L31.0498 13.5516C31.4159 13.1751 31.4048 12.5779 31.0283 12.2116C30.8402 12.0287 30.5967 11.9388 30.3545 11.9422V11.9415ZM13.6689 23.7618C13.607 23.7625 13.5572 23.8128 13.5576 23.8751C13.5581 23.9364 13.6073 23.9878 13.6689 23.9885C13.7309 23.9889 13.7815 23.9375 13.7822 23.8751C13.7828 23.8124 13.7317 23.7614 13.6689 23.7618ZM22.665 23.7618C22.6031 23.7625 22.5533 23.8128 22.5537 23.8751C22.5542 23.9364 22.6034 23.9878 22.665 23.9885C22.727 23.9889 22.7776 23.9375 22.7783 23.8751C22.7789 23.8124 22.7278 23.7614 22.665 23.7618ZM27.1631 23.7618C27.1011 23.7625 27.0514 23.8128 27.0518 23.8751C27.0522 23.9364 27.1015 23.9878 27.1631 23.9885C27.2251 23.9889 27.2756 23.9375 27.2764 23.8751C27.277 23.8124 27.2258 23.7614 27.1631 23.7618ZM14.2314 23.7637C14.1695 23.7645 14.1197 23.8147 14.1201 23.8771C14.1206 23.9383 14.1698 23.9901 14.2314 23.9905C14.2927 23.9901 14.344 23.9383 14.3447 23.8771C14.3453 23.8695 14.3453 23.8657 14.3447 23.8582C14.3371 23.8038 14.2866 23.764 14.2314 23.7644V23.7637ZM14.7939 23.7637C14.7312 23.7633 14.6822 23.8144 14.6826 23.8771C14.6831 23.9391 14.732 23.9912 14.7939 23.9905C14.8552 23.9901 14.9065 23.9383 14.9072 23.8771C14.9078 23.8695 14.9078 23.8657 14.9072 23.8582C14.8996 23.8038 14.8491 23.764 14.7939 23.7644V23.7637ZM15.3564 23.7637C15.2937 23.7633 15.2447 23.8144 15.2451 23.8771C15.2456 23.9391 15.2945 23.9912 15.3564 23.9905C15.4177 23.9901 15.469 23.9383 15.4697 23.8771C15.4698 23.8733 15.4698 23.8733 15.4697 23.8695C15.4661 23.8105 15.4158 23.7644 15.3564 23.7641V23.7637ZM15.9189 23.7637C15.8562 23.7633 15.8072 23.8144 15.8076 23.8771C15.8081 23.9391 15.857 23.9912 15.9189 23.9905C15.9802 23.9901 16.0315 23.9383 16.0322 23.8771C16.0323 23.8733 16.0323 23.8733 16.0322 23.8695C16.0286 23.8105 15.9783 23.7644 15.9189 23.7641V23.7637ZM16.4814 23.7637C16.4187 23.7633 16.3697 23.8144 16.3701 23.8771C16.3706 23.9391 16.4195 23.9912 16.4814 23.9905C16.5427 23.9901 16.594 23.9383 16.5947 23.8771C16.5948 23.8733 16.5948 23.8733 16.5947 23.8695C16.5911 23.8105 16.5408 23.7644 16.4814 23.7641V23.7637ZM17.042 23.7637C16.98 23.7645 16.9303 23.8147 16.9307 23.8771C16.9312 23.9383 16.9804 23.9901 17.042 23.9905C17.104 23.9909 17.1545 23.9391 17.1553 23.8771C17.1554 23.8733 17.1554 23.8733 17.1553 23.8695C17.1517 23.8098 17.1021 23.7633 17.042 23.7641V23.7637ZM17.6045 23.7637C17.5425 23.7645 17.4928 23.8147 17.4932 23.8771C17.4937 23.9383 17.5429 23.9901 17.6045 23.9905C17.6665 23.9909 17.717 23.9391 17.7178 23.8771C17.7179 23.8733 17.7179 23.8733 17.7178 23.8695C17.7142 23.8098 17.6646 23.7633 17.6045 23.7641V23.7637ZM18.167 23.7637C18.105 23.7645 18.0553 23.8147 18.0557 23.8771C18.0562 23.9383 18.1054 23.9901 18.167 23.9905C18.229 23.9909 18.2795 23.9391 18.2803 23.8771C18.2803 23.8733 18.2803 23.8733 18.2803 23.8695C18.2767 23.8098 18.2271 23.7633 18.167 23.7641V23.7637ZM18.7295 23.7637C18.6675 23.7645 18.6174 23.8147 18.6182 23.8771C18.6187 23.9383 18.6683 23.9901 18.7295 23.9905C18.7907 23.9901 18.842 23.9383 18.8428 23.8771C18.8433 23.8695 18.8433 23.8657 18.8428 23.8582C18.8352 23.8038 18.7847 23.764 18.7295 23.7644V23.7637ZM19.292 23.7637C19.2292 23.7633 19.1803 23.8144 19.1807 23.8771C19.1811 23.9391 19.23 23.9912 19.292 23.9905C19.3532 23.9901 19.4045 23.9383 19.4053 23.8771C19.4053 23.8733 19.4053 23.8733 19.4053 23.8695C19.4017 23.8105 19.3513 23.7644 19.292 23.7641V23.7637ZM19.8545 23.7637C19.7918 23.7633 19.7428 23.8144 19.7432 23.8771C19.7436 23.9391 19.7925 23.9912 19.8545 23.9905C19.9157 23.9901 19.967 23.9383 19.9678 23.8771C19.9678 23.8733 19.9678 23.8733 19.9678 23.8695C19.9642 23.8105 19.9138 23.7644 19.8545 23.7641V23.7637ZM20.417 23.7637C20.3542 23.7633 20.3053 23.8144 20.3057 23.8771C20.3061 23.9391 20.355 23.9912 20.417 23.9905C20.4782 23.9901 20.5295 23.9383 20.5303 23.8771C20.5303 23.8733 20.5303 23.8733 20.5303 23.8695C20.5267 23.8105 20.4763 23.7644 20.417 23.7641V23.7637ZM20.9795 23.7637C20.9167 23.7633 20.8678 23.8144 20.8682 23.8771C20.8686 23.9391 20.9175 23.9912 20.9795 23.9905C21.0407 23.9901 21.092 23.9383 21.0928 23.8771C21.0929 23.8733 21.0929 23.8733 21.0928 23.8695C21.0892 23.8105 21.0388 23.7644 20.9795 23.7641V23.7637ZM21.54 23.7637C21.4781 23.7645 21.4283 23.8147 21.4287 23.8771C21.4292 23.9383 21.4784 23.9901 21.54 23.9905C21.602 23.9909 21.6526 23.9391 21.6533 23.8771C21.6534 23.8733 21.6534 23.8733 21.6533 23.8695C21.6497 23.8098 21.6001 23.7633 21.54 23.7641V23.7637ZM22.1025 23.7637C22.0406 23.7645 21.9908 23.8147 21.9912 23.8771C21.9917 23.9383 22.0409 23.9901 22.1025 23.9905C22.1645 23.9909 22.2151 23.9391 22.2158 23.8771C22.2159 23.8733 22.2159 23.8733 22.2158 23.8695C22.2122 23.8098 22.1626 23.7633 22.1025 23.7641V23.7637ZM23.2275 23.7637C23.1656 23.7645 23.1158 23.8147 23.1162 23.8771C23.1167 23.9383 23.1659 23.9901 23.2275 23.9905C23.2888 23.9901 23.3404 23.9383 23.3408 23.8771C23.3414 23.8695 23.3414 23.8657 23.3408 23.8582C23.3332 23.8038 23.2823 23.764 23.2275 23.7644V23.7637ZM23.79 23.7637C23.7273 23.7633 23.6783 23.8144 23.6787 23.8771C23.6792 23.9391 23.7281 23.9912 23.79 23.9905C23.8513 23.9901 23.9026 23.9383 23.9033 23.8771C23.9039 23.8695 23.9039 23.8657 23.9033 23.8582C23.8957 23.8038 23.8452 23.764 23.79 23.7644V23.7637ZM24.3525 23.7637C24.2898 23.7633 24.2408 23.8144 24.2412 23.8771C24.2417 23.9391 24.2906 23.9912 24.3525 23.9905C24.4138 23.9901 24.4651 23.9383 24.4658 23.8771C24.4659 23.8733 24.4659 23.8733 24.4658 23.8695C24.4622 23.8105 24.4119 23.7644 24.3525 23.7641V23.7637ZM24.915 23.7637C24.8523 23.7633 24.8014 23.8144 24.8018 23.8771C24.8022 23.9391 24.8531 23.9912 24.915 23.9905C24.9763 23.9901 25.0256 23.9383 25.0264 23.8771C25.0265 23.8733 25.0265 23.8733 25.0264 23.8695C25.0228 23.8105 24.9744 23.7644 24.915 23.7641V23.7637ZM25.4756 23.7637C25.4136 23.7645 25.3635 23.8147 25.3643 23.8771C25.3647 23.9383 25.4144 23.9901 25.4756 23.9905C25.5376 23.9909 25.5881 23.9391 25.5889 23.8771C25.589 23.8733 25.589 23.8733 25.5889 23.8695C25.5853 23.8098 25.5357 23.7633 25.4756 23.7641V23.7637ZM26.0381 23.7637C25.9761 23.7645 25.9264 23.8147 25.9268 23.8771C25.9272 23.9383 25.9765 23.9901 26.0381 23.9905C26.1001 23.9909 26.1526 23.9391 26.1533 23.8771C26.1534 23.8733 26.1534 23.8733 26.1533 23.8695C26.1497 23.8098 26.0982 23.7633 26.0381 23.7641V23.7637ZM26.6006 23.7637C26.5386 23.7645 26.4889 23.8147 26.4893 23.8771C26.4897 23.9383 26.539 23.9901 26.6006 23.9905C26.6626 23.9909 26.7151 23.9391 26.7158 23.8771C26.7159 23.8733 26.7159 23.8733 26.7158 23.8695C26.7122 23.8098 26.6607 23.7633 26.6006 23.7641V23.7637ZM27.7256 23.7637C27.6636 23.7645 27.6135 23.8147 27.6143 23.8771C27.6147 23.9383 27.6644 23.9901 27.7256 23.9905C27.7868 23.9901 27.8381 23.9383 27.8389 23.8771C27.8394 23.8695 27.8394 23.8657 27.8389 23.8582C27.8313 23.8038 27.7808 23.764 27.7256 23.7644V23.7637ZM28.2881 23.7637C28.2253 23.7633 28.1744 23.8144 28.1748 23.8771C28.1753 23.9391 28.2261 23.9912 28.2881 23.9905C28.3493 23.9901 28.4006 23.9383 28.4014 23.8771C28.4014 23.8733 28.4014 23.8733 28.4014 23.8695C28.3978 23.8105 28.3474 23.7644 28.2881 23.7641V23.7637ZM28.8506 23.7637C28.7878 23.7633 28.7369 23.8144 28.7373 23.8771C28.7378 23.9391 28.7886 23.9912 28.8506 23.9905C28.9118 23.9901 28.9631 23.9383 28.9639 23.8771C28.9639 23.8733 28.9639 23.8733 28.9639 23.8695C28.9603 23.8105 28.9099 23.7644 28.8506 23.7641V23.7637ZM29.4131 23.7637C29.3503 23.7633 29.2994 23.8144 29.2998 23.8771C29.3003 23.9391 29.3511 23.9912 29.4131 23.9905C29.4743 23.9901 29.5256 23.9383 29.5264 23.8771C29.5265 23.8733 29.5265 23.8733 29.5264 23.8695C29.5228 23.8105 29.4724 23.7644 29.4131 23.7641V23.7637ZM29.9736 23.7637C29.9116 23.7645 29.8619 23.8147 29.8623 23.8771C29.8628 23.9383 29.912 23.9901 29.9736 23.9905C30.0356 23.9909 30.0881 23.9391 30.0889 23.8771C30.089 23.8733 30.089 23.8733 30.0889 23.8695C30.0853 23.8098 30.0337 23.7633 29.9736 23.7641V23.7637ZM30.5361 23.7637C30.4741 23.7645 30.4244 23.8147 30.4248 23.8771C30.4253 23.9383 30.4745 23.9901 30.5361 23.9905C30.5981 23.9909 30.6506 23.9391 30.6514 23.8771C30.6514 23.8733 30.6514 23.8733 30.6514 23.8695C30.6478 23.8098 30.5962 23.7633 30.5361 23.7641V23.7637ZM31.0986 23.7637C31.0367 23.7645 30.9869 23.8147 30.9873 23.8771C30.9878 23.9383 31.037 23.9901 31.0986 23.9905C31.1606 23.9909 31.2111 23.9391 31.2119 23.8771C31.212 23.8733 31.212 23.8733 31.2119 23.8695C31.2083 23.8098 31.1587 23.7633 31.0986 23.7641V23.7637ZM31.6611 23.7637C31.5992 23.7645 31.551 23.8147 31.5518 23.8771C31.5522 23.9383 31.5999 23.9901 31.6611 23.9905C31.7224 23.9901 31.7737 23.9383 31.7744 23.8771C31.775 23.8695 31.775 23.8657 31.7744 23.8582C31.7668 23.8038 31.7163 23.764 31.6611 23.7644V23.7637ZM32.2236 23.7637C32.1609 23.7633 32.11 23.8144 32.1103 23.8771C32.1108 23.9391 32.1616 23.9912 32.2236 23.9905C32.2849 23.9901 32.3362 23.9383 32.3369 23.8771C32.3375 23.8695 32.3375 23.8657 32.3369 23.8582C32.3293 23.8038 32.2788 23.764 32.2236 23.7644V23.7637ZM32.7861 23.7637C32.7234 23.7633 32.6744 23.8144 32.6748 23.8771C32.6753 23.9391 32.7242 23.9912 32.7861 23.9905C32.8474 23.9901 32.8987 23.9383 32.8994 23.8771C32.8995 23.8733 32.8995 23.8733 32.8994 23.8695C32.8958 23.8105 32.8455 23.7644 32.7861 23.7641V23.7637ZM33.3486 23.7637C33.2859 23.7633 33.2369 23.8144 33.2373 23.8771C33.2378 23.9391 33.2867 23.9912 33.3486 23.9905C33.4099 23.9901 33.4615 23.9383 33.4619 23.8771C33.462 23.8733 33.462 23.8733 33.4619 23.8695C33.4583 23.8105 33.4076 23.7644 33.3486 23.7641V23.7637ZM33.9111 23.7637C33.8484 23.7633 33.7975 23.8144 33.7978 23.8771C33.7983 23.9391 33.8491 23.9912 33.9111 23.9905C33.9724 23.9901 34.024 23.9383 34.0244 23.8771C34.0245 23.8733 34.0245 23.8733 34.0244 23.8695C34.0208 23.8105 33.9701 23.7644 33.9111 23.7641V23.7637ZM34.4717 23.7637C34.4097 23.7645 34.36 23.8147 34.3603 23.8771C34.3608 23.9383 34.4101 23.9901 34.4717 23.9905C34.5337 23.9909 34.5842 23.9391 34.585 23.8771C34.585 23.8733 34.585 23.8733 34.585 23.8695C34.5814 23.8098 34.5318 23.7633 34.4717 23.7641V23.7637ZM19.5713 32.0508V32.0528C19.3291 32.0562 19.0883 32.1537 18.9053 32.3419L17.0967 34.1993C16.7306 34.5753 16.7378 35.173 17.1143 35.5392C17.4905 35.9039 18.088 35.8975 18.4541 35.5203L20.2627 33.6609C20.6288 33.2844 20.6215 32.6873 20.2451 32.3211C20.057 32.1381 19.8135 32.0482 19.5713 32.0516L19.5713 32.0508ZM24.9639 32.0508V32.0528C24.7217 32.0562 24.4809 32.1537 24.2978 32.3419L22.4893 34.1993C22.1231 34.5753 22.1304 35.173 22.5068 35.5392C22.8831 35.9039 23.4806 35.8975 23.8467 35.5203L25.6553 33.6609C26.0214 33.2844 26.0141 32.6873 25.6377 32.3211C25.4495 32.1381 25.2061 32.0482 24.9639 32.0516V32.0508ZM30.3545 32.0508V32.0528C30.1123 32.0562 29.8715 32.1537 29.6885 32.3419L27.8799 34.1993C27.5138 34.5753 27.5249 35.173 27.9013 35.5392C28.2776 35.9039 28.8751 35.8975 29.2412 35.5203L31.0498 33.6609C31.4159 33.2844 31.4048 32.6873 31.0283 32.3211C30.8402 32.1381 30.5967 32.0482 30.3545 32.0516V32.0508Z" fill="#333333"/>
</g>
<defs>
<clipPath id="clip0">
<rect width="48" height="48" fill="white"/>
</clipPath>
</defs>
</svg>
