<svg width="48" height="48" viewBox="0 0 48 48" fill="none" xmlns="http://www.w3.org/2000/svg">
<path d="M23.8145 4.10353C20.5023 4.11198 17.2519 4.12719 14.1465 4.12501C13.277 4.12501 12.5801 4.82393 12.5801 5.69337V42.5547C12.5801 43.4241 13.277 44.125 14.1465 44.125H33.8516C34.721 44.125 35.4199 43.4241 35.4199 42.5547V5.69337C35.4199 4.82393 34.721 4.12501 33.8516 4.12501C30.5006 4.09338 27.1266 4.09508 23.8145 4.10353ZM14.5801 4.62501H33.418C34.2493 4.62501 34.9199 5.30664 34.9199 6.15431V42.0938C34.9199 42.9415 34.2493 43.625 33.418 43.625H14.5801C13.7488 43.625 13.0801 42.9415 13.0801 42.0938V6.15431C13.0801 5.30664 13.7488 4.62501 14.5801 4.62501ZM19.9922 5.16603C19.9332 5.16958 19.8871 5.21802 19.8867 5.27736C19.8861 5.3401 19.9373 5.39102 20 5.39064C20.062 5.39015 20.1121 5.33934 20.1113 5.27736C20.1109 5.21613 20.0612 5.16678 20 5.16603C19.9974 5.16595 19.996 5.16595 19.9922 5.16603ZM27.9922 5.16603C27.9332 5.16958 27.8871 5.21802 27.8867 5.27736C27.8861 5.3401 27.9373 5.39102 28 5.39064C28.062 5.39015 28.1121 5.33934 28.1113 5.27736C28.1109 5.21613 28.0612 5.16678 28 5.16603C27.9974 5.16595 27.996 5.16595 27.9922 5.16603ZM19.9922 5.72853C19.9332 5.73208 19.8871 5.78089 19.8867 5.83986C19.8861 5.9026 19.9373 5.95352 20 5.95314C20.062 5.95265 20.1121 5.90184 20.1113 5.83986C20.1109 5.77863 20.0612 5.72928 20 5.72853C19.9974 5.72845 19.996 5.72845 19.9922 5.72853ZM27.9922 5.72853C27.9332 5.73208 27.8871 5.78089 27.8867 5.83986C27.8861 5.9026 27.9373 5.95352 28 5.95314C28.062 5.95265 28.1121 5.90184 28.1113 5.83986C28.1109 5.77863 28.0612 5.72928 28 5.72853C27.9974 5.72845 27.996 5.72845 27.9922 5.72853ZM19.9824 6.29103C19.928 6.29859 19.8863 6.34755 19.8867 6.40236C19.8872 6.46434 19.9376 6.51406 20 6.51368C20.0612 6.51319 20.1109 6.46396 20.1113 6.40236C20.1109 6.34113 20.0612 6.29178 20 6.29103C19.9924 6.29046 19.9919 6.29046 19.9844 6.29103H19.9824ZM27.9824 6.29103C27.928 6.29859 27.8863 6.34755 27.8867 6.40236C27.8872 6.46434 27.9376 6.51406 28 6.51368C28.0612 6.51319 28.1109 6.46396 28.1113 6.40236C28.1109 6.34113 28.0612 6.29178 28 6.29103C27.9924 6.29046 27.9919 6.29046 27.9844 6.29103H27.9824ZM20.002 6.85157C19.9392 6.85097 19.8883 6.90212 19.8887 6.96486C19.8892 7.02684 19.9396 7.07694 20.002 7.07618C20.0632 7.07569 20.1125 7.02646 20.1133 6.96486C20.1138 6.90287 20.0643 6.85233 20.002 6.85157ZM28.002 6.85157C27.9392 6.85097 27.8883 6.90212 27.8887 6.96486C27.8892 7.02684 27.9396 7.07694 28.002 7.07618C28.0632 7.07569 28.1125 7.02646 28.1133 6.96486C28.1138 6.90287 28.0643 6.85233 28.002 6.85157ZM19.9922 7.41407C19.9325 7.41766 19.886 7.46726 19.8867 7.52736C19.8872 7.58934 19.9376 7.63944 20 7.63868C20.0612 7.63819 20.1109 7.58858 20.1113 7.52736C20.112 7.46537 20.062 7.41483 20 7.41407C19.9974 7.41396 19.996 7.41396 19.9922 7.41407ZM27.9922 7.41407C27.9325 7.41766 27.886 7.46726 27.8867 7.52736C27.8872 7.58934 27.9376 7.63944 28 7.63868C28.0612 7.63819 28.1109 7.58858 28.1113 7.52736C28.112 7.46537 28.062 7.41483 28 7.41407C27.9974 7.41396 27.996 7.41396 27.9922 7.41407ZM19.9922 7.97462C19.9325 7.97825 19.886 8.02781 19.8867 8.0879C19.8872 8.14989 19.9376 8.19961 20 8.19923C20.0612 8.19878 20.1109 8.14951 20.1113 8.0879C20.112 8.02592 20.062 7.97538 20 7.97462C19.9974 7.97455 19.996 7.97455 19.9922 7.97462ZM27.9922 7.97462C27.9325 7.97825 27.886 8.02781 27.8867 8.0879C27.8872 8.14989 27.9376 8.19961 28 8.19923C28.0612 8.19878 28.1109 8.14951 28.1113 8.0879C28.112 8.02592 28.062 7.97538 28 7.97462C27.9974 7.97455 27.996 7.97455 27.9922 7.97462ZM19.9922 8.53712C19.9325 8.54071 19.886 8.59031 19.8867 8.6504C19.8872 8.71239 19.9376 8.76211 20 8.76173C20.0612 8.76124 20.1109 8.71201 20.1113 8.6504C20.112 8.58842 20.062 8.53788 20 8.53712C19.9974 8.53705 19.996 8.53705 19.9922 8.53712ZM27.9922 8.53712C27.9325 8.54071 27.886 8.59031 27.8867 8.6504C27.8872 8.71239 27.9376 8.76211 28 8.76173C28.0612 8.76124 28.1109 8.71201 28.1113 8.6504C28.112 8.58842 28.062 8.53788 28 8.53712C27.9974 8.53705 27.996 8.53705 27.9922 8.53712ZM19.9922 9.09962C19.9332 9.10317 19.8871 9.15199 19.8867 9.21095C19.8861 9.27369 19.9373 9.32461 20 9.32423C20.062 9.32374 20.1121 9.27293 20.1113 9.21095C20.1109 9.14972 20.0612 9.10038 20 9.09962C19.9974 9.09955 19.996 9.09955 19.9922 9.09962ZM27.9922 9.09962C27.9332 9.10317 27.8871 9.15199 27.8867 9.21095C27.8861 9.27369 27.9373 9.32461 28 9.32423C28.062 9.32374 28.1121 9.27293 28.1113 9.21095C28.1109 9.14972 28.0612 9.10038 28 9.09962C27.9974 9.09955 27.996 9.09955 27.9922 9.09962ZM19.9922 9.66212C19.9332 9.66567 19.8871 9.71411 19.8867 9.77345C19.8861 9.83619 19.9373 9.88711 20 9.88673C20.062 9.88624 20.1121 9.83543 20.1113 9.77345C20.1109 9.71222 20.0612 9.66288 20 9.66212C19.9974 9.66201 19.996 9.66201 19.9922 9.66212ZM27.9922 9.66212C27.9332 9.66567 27.8871 9.71411 27.8867 9.77345C27.8861 9.83619 27.9373 9.88711 28 9.88673C28.062 9.88624 28.1121 9.83543 28.1113 9.77345C28.1109 9.71222 28.0612 9.66288 28 9.66212C27.9974 9.66201 27.996 9.66201 27.9922 9.66212ZM19.9805 10.2246C19.926 10.2322 19.8863 10.2827 19.8867 10.3379C19.8861 10.4006 19.9373 10.4516 20 10.4512C20.062 10.4507 20.1121 10.3999 20.1113 10.3379C20.1109 10.2767 20.0612 10.2254 20 10.2246C19.9924 10.2241 19.9919 10.2241 19.9844 10.2246H19.9805ZM27.9805 10.2246C27.926 10.2322 27.8863 10.2827 27.8867 10.3379C27.8861 10.4006 27.9373 10.4516 28 10.4512C28.062 10.4507 28.1121 10.3999 28.1113 10.3379C28.1109 10.2767 28.0612 10.2254 28 10.2246C27.9924 10.2241 27.9919 10.2241 27.9844 10.2246H27.9805ZM20.002 10.7852C19.9392 10.7846 19.8883 10.8377 19.8887 10.9004C19.8892 10.9624 19.9396 11.0102 20.002 11.0098C20.0632 11.0093 20.1125 10.962 20.1133 10.9004C20.1138 10.8384 20.0643 10.7859 20.002 10.7852ZM28.002 10.7852C27.9392 10.7846 27.8883 10.8377 27.8887 10.9004C27.8892 10.9624 27.9396 11.0102 28.002 11.0098C28.0632 11.0093 28.1125 10.962 28.1133 10.9004C28.1138 10.8384 28.0643 10.7859 28.002 10.7852ZM20.002 11.3477C19.9392 11.3471 19.8883 11.3982 19.8887 11.461C19.8892 11.5229 19.9396 11.5734 20.002 11.5723C20.0632 11.5718 20.1125 11.5222 20.1133 11.461C20.1138 11.399 20.0643 11.3484 20.002 11.3477ZM28.002 11.3477C27.9392 11.3471 27.8883 11.3982 27.8887 11.461C27.8892 11.5229 27.9396 11.5734 28.002 11.5723C28.0632 11.5718 28.1125 11.5222 28.1133 11.461C28.1138 11.399 28.0643 11.3484 28.002 11.3477ZM19.9922 11.9102C19.9325 11.9138 19.886 11.9634 19.8867 12.0235C19.8872 12.0854 19.9376 12.1375 20 12.1367C20.0612 12.1362 20.1109 12.0847 20.1113 12.0235C20.1119 11.9615 20.062 11.9109 20 11.9102C19.9974 11.9101 19.996 11.9101 19.9922 11.9102ZM27.9922 11.9102C27.9325 11.9138 27.886 11.9634 27.8867 12.0235C27.8872 12.0854 27.9376 12.1375 28 12.1367C28.0612 12.1362 28.1109 12.0847 28.1113 12.0235C28.1119 11.9615 28.062 11.9109 28 11.9102C27.9974 11.9101 27.996 11.9101 27.9922 11.9102ZM16.6191 12.043C15.7355 12.043 15.0196 12.759 15.0195 13.6426C15.0196 14.5262 15.7355 15.2422 16.6191 15.2422C17.5028 15.2422 18.2187 14.5262 18.2187 13.6426C18.2187 12.759 17.5028 12.043 16.6191 12.043ZM24 12.043C23.1163 12.043 22.4004 12.759 22.4004 13.6426C22.4004 14.5262 23.1163 15.2422 24 15.2422C24.8836 15.2422 25.5996 14.5262 25.5996 13.6426C25.5996 12.759 24.8836 12.043 24 12.043ZM31.3809 12.043C30.4972 12.043 29.7813 12.759 29.7812 13.6426C29.7813 14.5262 30.4972 15.2422 31.3809 15.2422C32.2645 15.2422 32.9804 14.5262 32.9805 13.6426C32.9804 12.759 32.2645 12.043 31.3809 12.043ZM19.9922 12.4727C19.9325 12.4763 19.886 12.5259 19.8867 12.586C19.8872 12.6479 19.9376 12.7 20 12.6992C20.0612 12.6987 20.1109 12.6472 20.1113 12.586C20.1119 12.524 20.062 12.473 20 12.4727C19.9974 12.4726 19.996 12.4726 19.9922 12.4727ZM27.9922 12.4727C27.9325 12.4763 27.886 12.5259 27.8867 12.586C27.8872 12.6479 27.9376 12.7 28 12.6992C28.0612 12.6987 28.1109 12.6472 28.1113 12.586C28.1119 12.524 28.062 12.473 28 12.4727C27.9974 12.4726 27.996 12.4726 27.9922 12.4727ZM16.6191 12.5039C17.2484 12.5034 17.7604 13.0133 17.7598 13.6426C17.7594 14.2712 17.2477 14.7799 16.6191 14.7793C15.9913 14.7789 15.4828 14.2705 15.4824 13.6426C15.4818 13.014 15.9905 12.5043 16.6191 12.5039ZM24 12.5039C24.6292 12.5034 25.1412 13.0133 25.1406 13.6426C25.1403 14.2712 24.6285 14.7799 24 14.7793C23.3721 14.7789 22.8637 14.2705 22.8633 13.6426C22.8627 13.014 23.3714 12.5043 24 12.5039ZM31.3809 12.5039C32.0101 12.5034 32.5221 13.0133 32.5215 13.6426C32.5211 14.2712 32.0094 14.7799 31.3809 14.7793C30.753 14.7789 30.2445 14.2705 30.2441 13.6426C30.2435 13.014 30.7523 12.5043 31.3809 12.5039ZM19.9922 13.0352C19.9332 13.0388 19.8871 13.0872 19.8867 13.1465C19.8861 13.2092 19.9373 13.2602 20 13.2598C20.062 13.2593 20.1121 13.2085 20.1113 13.1465C20.1109 13.0853 20.0612 13.0359 20 13.0352C19.9974 13.0351 19.996 13.0351 19.9922 13.0352ZM27.9922 13.0352C27.9332 13.0388 27.8871 13.0872 27.8867 13.1465C27.8861 13.2092 27.9373 13.2602 28 13.2598C28.062 13.2593 28.1121 13.2085 28.1113 13.1465C28.1109 13.0853 28.0612 13.0359 28 13.0352C27.9974 13.0351 27.996 13.0351 27.9922 13.0352ZM19.9922 13.5977C19.9332 13.6013 19.8871 13.65 19.8867 13.709C19.8861 13.7717 19.9373 13.8227 20 13.8223C20.062 13.8218 20.1121 13.771 20.1113 13.709C20.1109 13.6478 20.0612 13.5984 20 13.5977C19.9974 13.5976 19.996 13.5976 19.9922 13.5977ZM27.9922 13.5977C27.9332 13.6013 27.8871 13.65 27.8867 13.709C27.8861 13.7717 27.9373 13.8227 28 13.8223C28.062 13.8218 28.1121 13.771 28.1113 13.709C28.1109 13.6478 28.0612 13.5984 28 13.5977C27.9974 13.5976 27.996 13.5976 27.9922 13.5977ZM19.9922 14.1602C19.9332 14.1638 19.8871 14.2125 19.8867 14.2715C19.8861 14.3342 19.9373 14.3852 20 14.3848C20.062 14.3843 20.1121 14.3335 20.1113 14.2715C20.1109 14.2103 20.0612 14.1605 20 14.1602C19.9974 14.1601 19.996 14.1601 19.9922 14.1602ZM27.9922 14.1602C27.9332 14.1638 27.8871 14.2125 27.8867 14.2715C27.8861 14.3342 27.9373 14.3852 28 14.3848C28.062 14.3843 28.1121 14.3335 28.1113 14.2715C28.1109 14.2103 28.0612 14.1605 28 14.1602C27.9974 14.1601 27.996 14.1601 27.9922 14.1602ZM19.9805 14.7227C19.926 14.7303 19.8863 14.7796 19.8867 14.834C19.8861 14.8967 19.9373 14.9477 20 14.9473C20.062 14.9468 20.1121 14.896 20.1113 14.834C20.1109 14.7728 20.0612 14.7227 20 14.7227C19.9924 14.7221 19.9919 14.7221 19.9844 14.7227H19.9805ZM27.9805 14.7227C27.926 14.7303 27.8863 14.7796 27.8867 14.834C27.8861 14.8967 27.9373 14.9477 28 14.9473C28.062 14.9468 28.1121 14.896 28.1113 14.834C28.1109 14.7728 28.0612 14.7227 28 14.7227C27.9924 14.7221 27.9919 14.7221 27.9844 14.7227H27.9805ZM19.9805 15.2852C19.926 15.2928 19.8863 15.3417 19.8867 15.3965C19.8872 15.4585 19.9376 15.5082 20 15.5078C20.0612 15.5073 20.1109 15.4577 20.1113 15.3965C20.1109 15.3353 20.0612 15.2859 20 15.2852C19.9924 15.2846 19.99 15.2846 19.9824 15.2852H19.9805ZM27.9805 15.2852C27.926 15.2928 27.8863 15.3417 27.8867 15.3965C27.8872 15.4585 27.9376 15.5082 28 15.5078C28.0612 15.5073 28.1109 15.4577 28.1113 15.3965C28.1109 15.3353 28.0612 15.2859 28 15.2852C27.9924 15.2846 27.99 15.2846 27.9824 15.2852H27.9805ZM20.002 15.8457C19.9392 15.8451 19.8883 15.8963 19.8887 15.959C19.8892 16.021 19.9396 16.0711 20.002 16.0703C20.0632 16.0698 20.1125 16.0202 20.1133 15.959C20.1138 15.897 20.0643 15.8465 20.002 15.8457ZM28.002 15.8457C27.9392 15.8451 27.8883 15.8963 27.8887 15.959C27.8892 16.021 27.9396 16.0711 28.002 16.0703C28.0632 16.0698 28.1125 16.0202 28.1133 15.959C28.1138 15.897 28.0643 15.8465 28.002 15.8457ZM19.9922 16.4082C19.9325 16.4118 19.886 16.4614 19.8867 16.5215C19.8872 16.5835 19.9376 16.634 20 16.6328C20.0612 16.6323 20.1109 16.5823 20.1113 16.5215C20.1119 16.4595 20.062 16.409 20 16.4082C19.9974 16.4081 19.996 16.4081 19.9922 16.4082ZM27.9922 16.4082C27.9325 16.4118 27.886 16.4614 27.8867 16.5215C27.8872 16.5835 27.9376 16.634 28 16.6328C28.0612 16.6323 28.1109 16.5823 28.1113 16.5215C28.1119 16.4595 28.062 16.409 28 16.4082C27.9974 16.4081 27.996 16.4081 27.9922 16.4082ZM19.9922 16.9707C19.9325 16.9743 19.886 17.0239 19.8867 17.084C19.8872 17.146 19.9376 17.1961 20 17.1953C20.0612 17.1948 20.1109 17.1456 20.1113 17.084C20.1119 17.022 20.062 16.9715 20 16.9707C19.9974 16.9706 19.996 16.9706 19.9922 16.9707ZM27.9922 16.9707C27.9325 16.9743 27.886 17.0239 27.8867 17.084C27.8872 17.146 27.9376 17.1961 28 17.1953C28.0612 17.1948 28.1109 17.1456 28.1113 17.084C28.1119 17.022 28.062 16.9715 28 16.9707C27.9974 16.9706 27.996 16.9706 27.9922 16.9707ZM16.6191 17.2774C15.7355 17.2774 15.0196 17.9933 15.0195 18.877C15.0196 19.7606 15.7355 20.4766 16.6191 20.4766C17.5028 20.4766 18.2187 19.7606 18.2187 18.877C18.2187 17.9933 17.5028 17.2774 16.6191 17.2774ZM24 17.2774C23.1163 17.2774 22.4004 17.9933 22.4004 18.877C22.4004 19.7606 23.1163 20.4766 24 20.4766C24.8836 20.4766 25.5996 19.7606 25.5996 18.877C25.5996 17.9933 24.8836 17.2774 24 17.2774ZM31.3809 17.2774C30.4972 17.2774 29.7813 17.9933 29.7812 18.877C29.7813 19.7606 30.4972 20.4766 31.3809 20.4766C32.2645 20.4766 32.9804 19.7606 32.9805 18.877C32.9804 17.9933 32.2645 17.2774 31.3809 17.2774ZM19.9922 17.5332C19.9332 17.5368 19.8871 17.5856 19.8867 17.6445C19.8861 17.7073 19.9373 17.7582 20 17.7578C20.062 17.7573 20.1121 17.7065 20.1113 17.6445C20.1109 17.5833 20.0612 17.5332 20 17.5332C19.9974 17.5331 19.996 17.5331 19.9922 17.5332ZM27.9922 17.5332C27.9332 17.5368 27.8871 17.5856 27.8867 17.6445C27.8861 17.7073 27.9373 17.7582 28 17.7578C28.062 17.7573 28.1121 17.7065 28.1113 17.6445C28.1109 17.5833 28.0612 17.5332 28 17.5332C27.9974 17.5331 27.996 17.5331 27.9922 17.5332ZM16.6191 17.7383C17.2484 17.7377 17.7604 18.2477 17.7598 18.877C17.7594 19.5056 17.2477 20.0142 16.6191 20.0137C15.9913 20.0133 15.4828 19.5049 15.4824 18.877C15.4818 18.2484 15.9905 17.7387 16.6191 17.7383ZM24 17.7383C24.6292 17.7377 25.1412 18.2477 25.1406 18.877C25.1403 19.5056 24.6285 20.0142 24 20.0137C23.3721 20.0133 22.8637 19.5049 22.8633 18.877C22.8627 18.2484 23.3714 17.7387 24 17.7383ZM31.3809 17.7383C32.0101 17.7377 32.5221 18.2477 32.5215 18.877C32.5211 19.5056 32.0094 20.0142 31.3809 20.0137C30.753 20.0133 30.2445 19.5049 30.2441 18.877C30.2435 18.2484 30.7523 17.7387 31.3809 17.7383ZM19.9922 18.0957C19.9332 18.0993 19.8871 18.1481 19.8867 18.207C19.8861 18.2698 19.9373 18.3207 20 18.3203C20.062 18.3199 20.1121 18.269 20.1113 18.207C20.1109 18.1458 20.0612 18.0961 20 18.0957C19.9974 18.0956 19.996 18.0956 19.9922 18.0957ZM27.9922 18.0957C27.9332 18.0993 27.8871 18.1481 27.8867 18.207C27.8861 18.2698 27.9373 18.3207 28 18.3203C28.062 18.3199 28.1121 18.269 28.1113 18.207C28.1109 18.1458 28.0612 18.0961 28 18.0957C27.9974 18.0956 27.996 18.0956 27.9922 18.0957ZM19.9922 18.6582C19.9332 18.6618 19.8871 18.711 19.8867 18.7695C19.8861 18.8323 19.9373 18.8832 20 18.8828C20.062 18.8823 20.1121 18.8315 20.1113 18.7695C20.1109 18.7083 20.0612 18.6582 20 18.6582C19.9974 18.6581 19.996 18.6581 19.9922 18.6582ZM27.9922 18.6582C27.9332 18.6618 27.8871 18.711 27.8867 18.7695C27.8861 18.8323 27.9373 18.8832 28 18.8828C28.062 18.8823 28.1121 18.8315 28.1113 18.7695C28.1109 18.7083 28.0612 18.6582 28 18.6582C27.9974 18.6581 27.996 18.6581 27.9922 18.6582ZM19.9805 19.2207C19.926 19.2283 19.8863 19.2772 19.8867 19.332C19.8861 19.3948 19.9373 19.4457 20 19.4453C20.062 19.4448 20.1121 19.394 20.1113 19.332C20.1109 19.2708 20.0612 19.2215 20 19.2207C19.9924 19.2201 19.99 19.2201 19.9824 19.2207H19.9805ZM27.9805 19.2207C27.926 19.2283 27.8863 19.2772 27.8867 19.332C27.8861 19.3948 27.9373 19.4457 28 19.4453C28.062 19.4448 28.1121 19.394 28.1113 19.332C28.1109 19.2708 28.0612 19.2215 28 19.2207C27.9924 19.2201 27.99 19.2201 27.9824 19.2207H27.9805ZM20.002 19.7813C19.9392 19.7807 19.8883 19.8318 19.8887 19.8945C19.8892 19.9565 19.9396 20.0066 20.002 20.0059C20.0632 20.0054 20.1125 19.9558 20.1133 19.8945C20.1138 19.8326 20.0643 19.782 20.002 19.7813ZM28.002 19.7813C27.9392 19.7807 27.8883 19.8318 27.8887 19.8945C27.8892 19.9565 27.9396 20.0066 28.002 20.0059C28.0632 20.0054 28.1125 19.9558 28.1133 19.8945C28.1138 19.8326 28.0643 19.782 28.002 19.7813ZM19.9922 20.3438C19.9325 20.3474 19.886 20.3969 19.8867 20.457C19.8872 20.519 19.9376 20.5695 20 20.5684C20.0612 20.5679 20.1109 20.5183 20.1113 20.457C20.1119 20.3951 20.062 20.3441 20 20.3438C19.9974 20.3437 19.996 20.3437 19.9922 20.3438ZM27.9922 20.3438C27.9325 20.3474 27.886 20.3969 27.8867 20.457C27.8872 20.519 27.9376 20.5695 28 20.5684C28.0612 20.5679 28.1109 20.5183 28.1113 20.457C28.1119 20.3951 28.062 20.3441 28 20.3438C27.9974 20.3437 27.996 20.3437 27.9922 20.3438ZM19.9922 20.9063C19.9325 20.9099 19.886 20.9594 19.8867 21.0195C19.8872 21.0815 19.9376 21.1312 20 21.1309C20.0612 21.1304 20.1109 21.0811 20.1113 21.0195C20.1119 20.9576 20.062 20.907 20 20.9063C19.9974 20.9062 19.996 20.9062 19.9922 20.9063ZM27.9922 20.9063C27.9325 20.9099 27.886 20.9594 27.8867 21.0195C27.8872 21.0815 27.9376 21.1312 28 21.1309C28.0612 21.1304 28.1109 21.0811 28.1113 21.0195C28.1119 20.9576 28.062 20.907 28 20.9063C27.9974 20.9062 27.996 20.9062 27.9922 20.9063ZM19.9922 21.4688C19.9325 21.4724 19.886 21.5219 19.8867 21.582C19.8872 21.644 19.9376 21.6945 20 21.6934C20.0612 21.6929 20.1109 21.6436 20.1113 21.582C20.1119 21.5201 20.062 21.4695 20 21.4688C19.9974 21.4687 19.996 21.4687 19.9922 21.4688ZM27.9922 21.4688C27.9325 21.4724 27.886 21.5219 27.8867 21.582C27.8872 21.644 27.9376 21.6945 28 21.6934C28.0612 21.6929 28.1109 21.6436 28.1113 21.582C28.1119 21.5201 28.062 21.4695 28 21.4688C27.9974 21.4687 27.996 21.4687 27.9922 21.4688ZM19.9922 22.0313C19.9332 22.0349 19.8871 22.0836 19.8867 22.1426C19.8861 22.2053 19.9373 22.2562 20 22.2559C20.062 22.2554 20.1121 22.2046 20.1113 22.1426C20.1109 22.0814 20.0612 22.0316 20 22.0313C19.9974 22.0311 19.996 22.0311 19.9922 22.0313ZM27.9922 22.0313C27.9332 22.0349 27.8871 22.0836 27.8867 22.1426C27.8861 22.2053 27.9373 22.2562 28 22.2559C28.062 22.2554 28.1121 22.2046 28.1113 22.1426C28.1109 22.0814 28.0612 22.0316 28 22.0313C27.9974 22.0311 27.996 22.0311 27.9922 22.0313ZM16.6191 22.5117C15.7355 22.5118 15.0196 23.2277 15.0195 24.1113C15.0196 24.995 15.7355 25.7109 16.6191 25.7109C17.5028 25.7109 18.2187 24.995 18.2187 24.1113C18.2187 23.2277 17.5028 22.5118 16.6191 22.5117ZM24 22.5117C23.1163 22.5118 22.4004 23.2277 22.4004 24.1113C22.4004 24.995 23.1163 25.7109 24 25.7109C24.8836 25.7109 25.5996 24.995 25.5996 24.1113C25.5996 23.2277 24.8836 22.5118 24 22.5117ZM31.3809 22.5117C30.4972 22.5118 29.7813 23.2277 29.7812 24.1113C29.7813 24.995 30.4972 25.7109 31.3809 25.7109C32.2645 25.7109 32.9804 24.995 32.9805 24.1113C32.9804 23.2277 32.2645 22.5118 31.3809 22.5117ZM19.9922 22.5938C19.9332 22.5974 19.8871 22.6461 19.8867 22.7051C19.8861 22.7678 19.9373 22.8187 20 22.8184C20.062 22.8179 20.1121 22.7671 20.1113 22.7051C20.1109 22.6439 20.0612 22.5941 20 22.5938C19.9974 22.5936 19.996 22.5936 19.9922 22.5938ZM27.9922 22.5938C27.9332 22.5974 27.8871 22.6461 27.8867 22.7051C27.8861 22.7678 27.9373 22.8187 28 22.8184C28.062 22.8179 28.1121 22.7671 28.1113 22.7051C28.1109 22.6439 28.0612 22.5941 28 22.5938C27.9974 22.5936 27.996 22.5936 27.9922 22.5938ZM16.6191 22.9727C17.2484 22.9721 17.7604 23.482 17.7598 24.1113C17.7594 24.7399 17.2477 25.2486 16.6191 25.2481C15.9913 25.2476 15.4828 24.7392 15.4824 24.1113C15.4818 23.4828 15.9905 22.9731 16.6191 22.9727ZM24 22.9727C24.6292 22.9721 25.1412 23.482 25.1406 24.1113C25.1403 24.7399 24.6285 25.2486 24 25.2481C23.3721 25.2476 22.8637 24.7392 22.8633 24.1113C22.8627 23.4828 23.3714 22.9731 24 22.9727ZM31.3809 22.9727C32.0101 22.9721 32.5221 23.482 32.5215 24.1113C32.5211 24.7399 32.0094 25.2486 31.3809 25.2481C30.753 25.2476 30.2445 24.7392 30.2441 24.1113C30.2435 23.4828 30.7523 22.9731 31.3809 22.9727ZM19.9922 23.1563C19.9332 23.1599 19.8871 23.2086 19.8867 23.2676C19.8861 23.3303 19.9373 23.3812 20 23.3809C20.062 23.3804 20.1121 23.3296 20.1113 23.2676C20.1109 23.2064 20.0612 23.157 20 23.1563C19.9974 23.1562 19.996 23.1562 19.9922 23.1563ZM27.9922 23.1563C27.9332 23.1599 27.8871 23.2086 27.8867 23.2676C27.8861 23.3303 27.9373 23.3812 28 23.3809C28.062 23.3804 28.1121 23.3296 28.1113 23.2676C28.1109 23.2064 28.0612 23.157 28 23.1563C27.9974 23.1562 27.996 23.1562 27.9922 23.1563ZM19.9805 23.7188C19.926 23.7264 19.8863 23.7753 19.8867 23.8301C19.8861 23.8928 19.9373 23.9437 20 23.9434C20.062 23.9429 20.1121 23.8921 20.1113 23.8301C20.1109 23.7689 20.0612 23.7195 20 23.7188C19.9924 23.7182 19.99 23.7182 19.9824 23.7188H19.9805ZM27.9805 23.7188C27.926 23.7264 27.8863 23.7753 27.8867 23.8301C27.8861 23.8928 27.9373 23.9437 28 23.9434C28.062 23.9429 28.1121 23.8921 28.1113 23.8301C28.1109 23.7689 28.0612 23.7195 28 23.7188C27.9924 23.7182 27.99 23.7182 27.9824 23.7188H27.9805ZM19.9805 24.2813C19.926 24.2889 19.8863 24.3374 19.8867 24.3926C19.8872 24.4546 19.9376 24.5051 20 24.5039C20.0612 24.5034 20.1109 24.4534 20.1113 24.3926C20.1109 24.3314 20.0612 24.282 20 24.2813C19.9924 24.2807 19.99 24.2807 19.9824 24.2813H19.9805ZM27.9805 24.2813C27.926 24.2889 27.8863 24.3374 27.8867 24.3926C27.8872 24.4546 27.9376 24.5051 28 24.5039C28.0612 24.5034 28.1109 24.4534 28.1113 24.3926C28.1109 24.3314 28.0612 24.282 28 24.2813C27.9924 24.2807 27.99 24.2807 27.9824 24.2813H27.9805ZM19.9922 24.8418C19.9325 24.8454 19.886 24.895 19.8867 24.9551C19.8872 25.0171 19.9376 25.0672 20 25.0664C20.0612 25.0659 20.1109 25.0167 20.1113 24.9551C20.1119 24.8931 20.062 24.8426 20 24.8418C19.9974 24.8417 19.996 24.8417 19.9922 24.8418ZM27.9922 24.8418C27.9325 24.8454 27.886 24.895 27.8867 24.9551C27.8872 25.0171 27.9376 25.0672 28 25.0664C28.0612 25.0659 28.1109 25.0167 28.1113 24.9551C28.1119 24.8931 28.062 24.8426 28 24.8418C27.9974 24.8417 27.996 24.8417 27.9922 24.8418ZM19.9922 25.4043C19.9325 25.4079 19.886 25.4575 19.8867 25.5176C19.8872 25.5796 19.9376 25.6293 20 25.6289C20.0612 25.6284 20.1109 25.5792 20.1113 25.5176C20.1119 25.4556 20.062 25.4051 20 25.4043C19.9974 25.4042 19.996 25.4042 19.9922 25.4043ZM27.9922 25.4043C27.9325 25.4079 27.886 25.4575 27.8867 25.5176C27.8872 25.5796 27.9376 25.6293 28 25.6289C28.0612 25.6284 28.1109 25.5792 28.1113 25.5176C28.1119 25.4556 28.062 25.4051 28 25.4043C27.9974 25.4042 27.996 25.4042 27.9922 25.4043ZM19.9922 25.9668C19.9325 25.9704 19.886 26.02 19.8867 26.0801C19.8872 26.1421 19.9376 26.1922 20 26.1914C20.0612 26.1909 20.1109 26.1417 20.1113 26.0801C20.1119 26.0181 20.062 25.9676 20 25.9668C19.9974 25.9667 19.996 25.9667 19.9922 25.9668ZM27.9922 25.9668C27.9325 25.9704 27.886 26.02 27.8867 26.0801C27.8872 26.1421 27.9376 26.1922 28 26.1914C28.0612 26.1909 28.1109 26.1417 28.1113 26.0801C28.1119 26.0181 28.062 25.9676 28 25.9668C27.9974 25.9667 27.996 25.9667 27.9922 25.9668ZM19.9922 26.5293C19.9332 26.5329 19.8871 26.5817 19.8867 26.6406C19.8861 26.7034 19.9373 26.7543 20 26.7539C20.062 26.7534 20.1121 26.7026 20.1113 26.6406C20.1109 26.5794 20.0612 26.5301 20 26.5293C19.9974 26.5292 19.996 26.5292 19.9922 26.5293ZM27.9922 26.5293C27.9332 26.5329 27.8871 26.5817 27.8867 26.6406C27.8861 26.7034 27.9373 26.7543 28 26.7539C28.062 26.7534 28.1121 26.7026 28.1113 26.6406C28.1109 26.5794 28.0612 26.5301 28 26.5293C27.9974 26.5292 27.996 26.5292 27.9922 26.5293ZM19.9922 27.0918C19.9332 27.0954 19.8871 27.1442 19.8867 27.2031C19.8861 27.2659 19.9373 27.3168 20 27.3164C20.062 27.3159 20.1121 27.2651 20.1113 27.2031C20.1109 27.1419 20.0612 27.0926 20 27.0918C19.9974 27.0917 19.996 27.0917 19.9922 27.0918ZM27.9922 27.0918C27.9332 27.0954 27.8871 27.1442 27.8867 27.2031C27.8861 27.2659 27.9373 27.3168 28 27.3164C28.062 27.3159 28.1121 27.2651 28.1113 27.2031C28.1109 27.1419 28.0612 27.0926 28 27.0918C27.9974 27.0917 27.996 27.0917 27.9922 27.0918ZM19.9922 27.6543C19.9332 27.6579 19.8871 27.7067 19.8867 27.7656C19.8861 27.8284 19.9373 27.8793 20 27.8789C20.062 27.8784 20.1121 27.8276 20.1113 27.7656C20.1109 27.7044 20.0612 27.6551 20 27.6543C19.9974 27.6542 19.996 27.6542 19.9922 27.6543ZM27.9922 27.6543C27.9332 27.6579 27.8871 27.7067 27.8867 27.7656C27.8861 27.8284 27.9373 27.8793 28 27.8789C28.062 27.8784 28.1121 27.8276 28.1113 27.7656C28.1109 27.7044 28.0612 27.6551 28 27.6543C27.9974 27.6542 27.996 27.6542 27.9922 27.6543ZM16.6191 27.7461C15.7355 27.7461 15.0196 28.4621 15.0195 29.3457C15.0196 30.2294 15.7355 30.9453 16.6191 30.9453C17.5028 30.9453 18.2187 30.2294 18.2187 29.3457C18.2187 28.4621 17.5028 27.7461 16.6191 27.7461ZM24 27.7461C23.1163 27.7461 22.4004 28.4621 22.4004 29.3457C22.4004 30.2294 23.1163 30.9453 24 30.9453C24.8836 30.9453 25.5996 30.2294 25.5996 29.3457C25.5996 28.4621 24.8836 27.7461 24 27.7461ZM31.3809 27.7461C30.4972 27.7461 29.7813 28.4621 29.7812 29.3457C29.7813 30.2294 30.4972 30.9453 31.3809 30.9453C32.2645 30.9453 32.9804 30.2294 32.9805 29.3457C32.9804 28.4621 32.2645 27.7461 31.3809 27.7461ZM16.6191 28.207C17.2484 28.2065 17.7604 28.7164 17.7598 29.3457C17.7594 29.9743 17.2477 30.483 16.6191 30.4824C15.9913 30.482 15.4828 29.9736 15.4824 29.3457C15.4818 28.7171 15.9905 28.2075 16.6191 28.207ZM24 28.207C24.6292 28.2065 25.1412 28.7164 25.1406 29.3457C25.1403 29.9743 24.6285 30.483 24 30.4824C23.3721 30.482 22.8637 29.9736 22.8633 29.3457C22.8627 28.7171 23.3714 28.2075 24 28.207ZM31.3809 28.207C32.0101 28.2065 32.5221 28.7164 32.5215 29.3457C32.5211 29.9743 32.0094 30.483 31.3809 30.4824C30.753 30.482 30.2445 29.9736 30.2441 29.3457C30.2435 28.7171 30.7523 28.2075 31.3809 28.207ZM19.9805 28.2168C19.926 28.2244 19.8863 28.2733 19.8867 28.3281C19.8872 28.3901 19.9376 28.4406 20 28.4395C20.0612 28.439 20.1109 28.3894 20.1113 28.3281C20.1109 28.2669 20.0612 28.2176 20 28.2168C19.9924 28.2162 19.99 28.2162 19.9824 28.2168H19.9805ZM27.9805 28.2168C27.926 28.2244 27.8863 28.2733 27.8867 28.3281C27.8872 28.3901 27.9376 28.4406 28 28.4395C28.0612 28.439 28.1109 28.3894 28.1113 28.3281C28.1109 28.2669 28.0612 28.2176 28 28.2168C27.9924 28.2162 27.99 28.2162 27.9824 28.2168H27.9805ZM20.002 28.7774C19.9392 28.7768 19.8883 28.8279 19.8887 28.8906C19.8892 28.9526 19.9396 29.0023 20.002 29.002C20.0632 29.0015 20.1125 28.9522 20.1133 28.8906C20.1138 28.8287 20.0643 28.7781 20.002 28.7774ZM28.002 28.7774C27.9392 28.7768 27.8883 28.8279 27.8887 28.8906C27.8892 28.9526 27.9396 29.0023 28.002 29.002C28.0632 29.0015 28.1125 28.9522 28.1133 28.8906C28.1138 28.8287 28.0643 28.7781 28.002 28.7774ZM19.9922 29.3399C19.9325 29.3435 19.886 29.393 19.8867 29.4531C19.8872 29.5151 19.9376 29.5656 20 29.5645C20.0612 29.564 20.1109 29.5147 20.1113 29.4531C20.1119 29.3911 20.062 29.3406 20 29.3399C19.9974 29.3398 19.996 29.3398 19.9922 29.3399ZM27.9922 29.3399C27.9325 29.3435 27.886 29.393 27.8867 29.4531C27.8872 29.5151 27.9376 29.5656 28 29.5645C28.0612 29.564 28.1109 29.5147 28.1113 29.4531C28.1119 29.3911 28.062 29.3406 28 29.3399C27.9974 29.3398 27.996 29.3398 27.9922 29.3399ZM19.9922 29.9024C19.9325 29.906 19.886 29.9555 19.8867 30.0156C19.8872 30.0776 19.9376 30.1273 20 30.127C20.0612 30.1265 20.1109 30.0772 20.1113 30.0156C20.1119 29.9536 20.062 29.9031 20 29.9024C19.9974 29.9023 19.996 29.9023 19.9922 29.9024ZM27.9922 29.9024C27.9325 29.906 27.886 29.9555 27.8867 30.0156C27.8872 30.0776 27.9376 30.1273 28 30.127C28.0612 30.1265 28.1109 30.0772 28.1113 30.0156C28.1119 29.9536 28.062 29.9031 28 29.9024C27.9974 29.9023 27.996 29.9023 27.9922 29.9024ZM19.9922 30.4649C19.9325 30.4685 19.886 30.518 19.8867 30.5781C19.8872 30.6401 19.9376 30.6906 20 30.6895C20.0612 30.689 20.1109 30.6394 20.1113 30.5781C20.1119 30.5161 20.062 30.4656 20 30.4649C19.9974 30.4647 19.996 30.4647 19.9922 30.4649ZM27.9922 30.4649C27.9325 30.4685 27.886 30.518 27.8867 30.5781C27.8872 30.6401 27.9376 30.6906 28 30.6895C28.0612 30.689 28.1109 30.6394 28.1113 30.5781C28.1119 30.5161 28.062 30.4656 28 30.4649C27.9974 30.4647 27.996 30.4647 27.9922 30.4649ZM19.9922 31.0254C19.9332 31.029 19.8871 31.0793 19.8867 31.1387C19.8861 31.2014 19.9373 31.2523 20 31.252C20.062 31.2515 20.1121 31.2007 20.1113 31.1387C20.1109 31.0775 20.0612 31.0262 20 31.0254C19.9974 31.0253 19.996 31.0253 19.9922 31.0254ZM27.9922 31.0254C27.9332 31.029 27.8871 31.0793 27.8867 31.1387C27.8861 31.2014 27.9373 31.2523 28 31.252C28.062 31.2515 28.1121 31.2007 28.1113 31.1387C28.1109 31.0775 28.0612 31.0262 28 31.0254C27.9974 31.0253 27.996 31.0253 27.9922 31.0254ZM19.9922 31.5879C19.9332 31.5915 19.8871 31.6406 19.8867 31.6992C19.8861 31.762 19.9373 31.8129 20 31.8125C20.062 31.812 20.1121 31.7612 20.1113 31.6992C20.1109 31.638 20.0612 31.5887 20 31.5879C19.9974 31.5878 19.996 31.5878 19.9922 31.5879ZM27.9922 31.5879C27.9332 31.5915 27.8871 31.6406 27.8867 31.6992C27.8861 31.762 27.9373 31.8129 28 31.8125C28.062 31.812 28.1121 31.7612 28.1113 31.6992C28.1109 31.638 28.0612 31.5887 28 31.5879C27.9974 31.5878 27.996 31.5878 27.9922 31.5879ZM19.9805 32.1504C19.926 32.158 19.8863 32.2066 19.8867 32.2617C19.8861 32.3245 19.9373 32.3754 20 32.375C20.062 32.3745 20.1121 32.3237 20.1113 32.2617C20.1109 32.2005 20.0612 32.1512 20 32.1504C19.9924 32.1498 19.99 32.1498 19.9824 32.1504H19.9805ZM27.9805 32.1504C27.926 32.158 27.8863 32.2066 27.8867 32.2617C27.8861 32.3245 27.9373 32.3754 28 32.375C28.062 32.3745 28.1121 32.3237 28.1113 32.2617C28.1109 32.2005 28.0612 32.1512 28 32.1504C27.9924 32.1498 27.99 32.1498 27.9824 32.1504H27.9805ZM19.9805 32.7129C19.926 32.7205 19.8863 32.7694 19.8867 32.8242C19.8872 32.8862 19.9376 32.9359 20 32.9356C20.0612 32.9351 20.1109 32.8858 20.1113 32.8242C20.1109 32.763 20.0612 32.7133 20 32.7129C19.9924 32.7123 19.99 32.7123 19.9824 32.7129H19.9805ZM27.9805 32.7129C27.926 32.7205 27.8863 32.7694 27.8867 32.8242C27.8872 32.8862 27.9376 32.9359 28 32.9356C28.0612 32.9351 28.1109 32.8858 28.1113 32.8242C28.1109 32.763 28.0612 32.7133 28 32.7129C27.9924 32.7123 27.99 32.7123 27.9824 32.7129H27.9805ZM16.6191 32.9805C15.7355 32.9805 15.0196 33.6965 15.0195 34.5801C15.0196 35.4637 15.7355 36.1797 16.6191 36.1797C17.5028 36.1797 18.2187 35.4637 18.2187 34.5801C18.2187 33.6965 17.5028 32.9805 16.6191 32.9805ZM24 32.9805C23.1163 32.9805 22.4004 33.6965 22.4004 34.5801C22.4004 35.4637 23.1163 36.1797 24 36.1797C24.8836 36.1797 25.5996 35.4637 25.5996 34.5801C25.5996 33.6965 24.8836 32.9805 24 32.9805ZM31.3809 32.9805C30.4972 32.9805 29.7813 33.6965 29.7812 34.5801C29.7813 35.4637 30.4972 36.1797 31.3809 36.1797C32.2645 36.1797 32.9804 35.4637 32.9805 34.5801C32.9804 33.6965 32.2645 32.9805 31.3809 32.9805ZM20.002 33.2734C19.9392 33.2728 19.8883 33.3259 19.8887 33.3887C19.8892 33.4507 19.9396 33.4984 20.002 33.4981C20.0632 33.4976 20.1125 33.4503 20.1133 33.3887C20.1138 33.3267 20.0643 33.2742 20.002 33.2734ZM28.002 33.2734C27.9392 33.2728 27.8883 33.3259 27.8887 33.3887C27.8892 33.4507 27.9396 33.4984 28.002 33.4981C28.0632 33.4976 28.1125 33.4503 28.1133 33.3887C28.1138 33.3267 28.0643 33.2742 28.002 33.2734ZM16.6191 33.4414C17.2484 33.4408 17.7604 33.9508 17.7598 34.5801C17.7594 35.2087 17.2477 35.7174 16.6191 35.7168C15.9913 35.7164 15.4828 35.208 15.4824 34.5801C15.4818 33.9515 15.9905 33.4418 16.6191 33.4414ZM24 33.4414C24.6292 33.4408 25.1412 33.9508 25.1406 34.5801C25.1403 35.2087 24.6285 35.7174 24 35.7168C23.3721 35.7164 22.8637 35.208 22.8633 34.5801C22.8627 33.9515 23.3714 33.4418 24 33.4414ZM31.3809 33.4414C32.0101 33.4408 32.5221 33.9508 32.5215 34.5801C32.5211 35.2087 32.0094 35.7174 31.3809 35.7168C30.753 35.7164 30.2445 35.208 30.2441 34.5801C30.2435 33.9515 30.7523 33.4418 31.3809 33.4414ZM19.9922 33.8359C19.9325 33.8395 19.886 33.8891 19.8867 33.9492C19.8872 34.0112 19.9376 34.0617 20 34.0606C20.0612 34.0601 20.1109 34.0108 20.1113 33.9492C20.1119 33.8872 20.062 33.8367 20 33.8359C19.9974 33.8359 19.996 33.8359 19.9922 33.8359ZM27.9922 33.8359C27.9325 33.8395 27.886 33.8891 27.8867 33.9492C27.8872 34.0112 27.9376 34.0617 28 34.0606C28.0612 34.0601 28.1109 34.0108 28.1113 33.9492C28.1119 33.8872 28.062 33.8367 28 33.8359C27.9974 33.8359 27.996 33.8359 27.9922 33.8359ZM19.9922 34.3984C19.9325 34.402 19.886 34.4516 19.8867 34.5117C19.8872 34.5737 19.9376 34.6234 20 34.6231C20.0612 34.6226 20.1109 34.5733 20.1113 34.5117C20.1119 34.4497 20.062 34.3992 20 34.3984C19.9974 34.3983 19.996 34.3983 19.9922 34.3984ZM27.9922 34.3984C27.9325 34.402 27.886 34.4516 27.8867 34.5117C27.8872 34.5737 27.9376 34.6234 28 34.6231C28.0612 34.6226 28.1109 34.5733 28.1113 34.5117C28.1119 34.4497 28.062 34.3992 28 34.3984C27.9974 34.3983 27.996 34.3983 27.9922 34.3984ZM19.9922 34.9609C19.9332 34.9645 19.8871 35.0129 19.8867 35.0723C19.8861 35.135 19.9373 35.1859 20 35.1856C20.062 35.1851 20.1121 35.1343 20.1113 35.0723C20.1109 35.011 20.0612 34.9617 20 34.9609C19.9974 34.9608 19.996 34.9608 19.9922 34.9609ZM27.9922 34.9609C27.9332 34.9645 27.8871 35.0129 27.8867 35.0723C27.8861 35.135 27.9373 35.1859 28 35.1856C28.062 35.1851 28.1121 35.1343 28.1113 35.0723C28.1109 35.011 28.0612 34.9617 28 34.9609C27.9974 34.9608 27.996 34.9608 27.9922 34.9609ZM19.9922 35.5234C19.9332 35.527 19.8871 35.5762 19.8867 35.6348C19.8861 35.6975 19.9373 35.7484 20 35.7481C20.062 35.7476 20.1121 35.6968 20.1113 35.6348C20.1109 35.5735 20.0612 35.5242 20 35.5234C19.9974 35.5234 19.996 35.5234 19.9922 35.5234ZM27.9922 35.5234C27.9332 35.527 27.8871 35.5762 27.8867 35.6348C27.8861 35.6975 27.9373 35.7484 28 35.7481C28.062 35.7476 28.1121 35.6968 28.1113 35.6348C28.1109 35.5735 28.0612 35.5242 28 35.5234C27.9974 35.5234 27.996 35.5234 27.9922 35.5234ZM19.9922 36.0859C19.9332 36.0895 19.8871 36.1383 19.8867 36.1973C19.8861 36.26 19.9373 36.3109 20 36.3106C20.062 36.3101 20.1121 36.2593 20.1113 36.1973C20.1109 36.136 20.0612 36.0867 20 36.0859C19.9974 36.0859 19.996 36.0859 19.9922 36.0859ZM27.9922 36.0859C27.9332 36.0895 27.8871 36.1383 27.8867 36.1973C27.8861 36.26 27.9373 36.3109 28 36.3106C28.062 36.3101 28.1121 36.2593 28.1113 36.1973C28.1109 36.136 28.0612 36.0867 28 36.0859C27.9974 36.0859 27.996 36.0859 27.9922 36.0859ZM19.9922 36.6484C19.9332 36.652 19.8871 36.7004 19.8867 36.7598C19.8861 36.8225 19.9373 36.8734 20 36.8731C20.062 36.8726 20.1121 36.8218 20.1113 36.7598C20.1109 36.6985 20.0612 36.6488 20 36.6484C19.9974 36.6484 19.996 36.6484 19.9922 36.6484ZM27.9922 36.6484C27.9332 36.652 27.8871 36.7004 27.8867 36.7598C27.8861 36.8225 27.9373 36.8734 28 36.8731C28.062 36.8726 28.1121 36.8218 28.1113 36.7598C28.1109 36.6985 28.0612 36.6488 28 36.6484C27.9974 36.6484 27.996 36.6484 27.9922 36.6484ZM19.9805 37.2109C19.926 37.2185 19.8863 37.2671 19.8867 37.3223C19.8872 37.3843 19.9376 37.4347 20 37.4336C20.0612 37.4331 20.1109 37.3835 20.1113 37.3223C20.1109 37.261 20.0612 37.2117 20 37.2109C19.9924 37.2104 19.99 37.2104 19.9824 37.2109H19.9805ZM27.9805 37.2109C27.926 37.2185 27.8863 37.2671 27.8867 37.3223C27.8872 37.3843 27.9376 37.4347 28 37.4336C28.0612 37.4331 28.1109 37.3835 28.1113 37.3223C28.1109 37.261 28.0612 37.2117 28 37.2109C27.9924 37.2104 27.99 37.2104 27.9824 37.2109H27.9805ZM19.9922 37.7715C19.9325 37.7751 19.886 37.8247 19.8867 37.8848C19.8872 37.9468 19.9376 37.9965 20 37.9961C20.0612 37.9956 20.1109 37.9464 20.1113 37.8848C20.1119 37.8228 20.062 37.7722 20 37.7715C19.9974 37.7715 19.996 37.7715 19.9922 37.7715ZM27.9922 37.7715C27.9325 37.7751 27.886 37.8247 27.8867 37.8848C27.8872 37.9468 27.9376 37.9965 28 37.9961C28.0612 37.9956 28.1109 37.9464 28.1113 37.8848C28.1119 37.8228 28.062 37.7722 28 37.7715C27.9974 37.7715 27.996 37.7715 27.9922 37.7715ZM19.9922 38.334C19.9325 38.3376 19.886 38.3872 19.8867 38.4473C19.8872 38.5093 19.9376 38.5597 20 38.5586C20.0612 38.5581 20.1109 38.5089 20.1113 38.4473C20.1119 38.3853 20.062 38.3347 20 38.334C19.9974 38.3339 19.996 38.3339 19.9922 38.334ZM27.9922 38.334C27.9325 38.3376 27.886 38.3872 27.8867 38.4473C27.8872 38.5093 27.9376 38.5597 28 38.5586C28.0612 38.5581 28.1109 38.5089 28.1113 38.4473C28.1119 38.3853 28.062 38.3347 28 38.334C27.9974 38.3339 27.996 38.3339 27.9922 38.334ZM19.9922 38.8965C19.9325 38.9001 19.886 38.9497 19.8867 39.0098C19.8872 39.0718 19.9376 39.1215 20 39.1211C20.0612 39.1206 20.1109 39.0714 20.1113 39.0098C20.1119 38.9478 20.062 38.8972 20 38.8965C19.9974 38.8964 19.996 38.8964 19.9922 38.8965ZM27.9922 38.8965C27.9325 38.9001 27.886 38.9497 27.8867 39.0098C27.8872 39.0718 27.9376 39.1215 28 39.1211C28.0612 39.1206 28.1109 39.0714 28.1113 39.0098C28.1119 38.9478 28.062 38.8972 28 38.8965C27.9974 38.8964 27.996 38.8964 27.9922 38.8965ZM19.9922 39.459C19.9332 39.4626 19.8871 39.5114 19.8867 39.5703C19.8861 39.6331 19.9373 39.684 20 39.6836C20.062 39.6831 20.1121 39.6323 20.1113 39.5703C20.1109 39.5091 20.0612 39.4597 20 39.459C19.9974 39.4589 19.996 39.4589 19.9922 39.459ZM27.9922 39.459C27.9332 39.4626 27.8871 39.5114 27.8867 39.5703C27.8861 39.6331 27.9373 39.684 28 39.6836C28.062 39.6831 28.1121 39.6323 28.1113 39.5703C28.1109 39.5091 28.0612 39.4597 28 39.459C27.9974 39.4589 27.996 39.4589 27.9922 39.459ZM19.9922 40.0215C19.9332 40.0251 19.8871 40.0739 19.8867 40.1328C19.8861 40.1956 19.9373 40.2465 20 40.2461C20.062 40.2456 20.1121 40.1948 20.1113 40.1328C20.1109 40.0716 20.0612 40.0222 20 40.0215C19.9974 40.0214 19.996 40.0214 19.9922 40.0215ZM27.9922 40.0215C27.9332 40.0251 27.8871 40.0739 27.8867 40.1328C27.8861 40.1956 27.9373 40.2465 28 40.2461C28.062 40.2456 28.1121 40.1948 28.1113 40.1328C28.1109 40.0716 28.0612 40.0222 28 40.0215C27.9974 40.0214 27.996 40.0214 27.9922 40.0215ZM19.9922 40.584C19.9332 40.5876 19.8871 40.6364 19.8867 40.6953C19.8861 40.7581 19.9373 40.809 20 40.8086C20.062 40.8081 20.1121 40.7573 20.1113 40.6953C20.1109 40.6341 20.0612 40.5847 20 40.584C19.9974 40.5839 19.996 40.5839 19.9922 40.584ZM27.9922 40.584C27.9332 40.5876 27.8871 40.6364 27.8867 40.6953C27.8861 40.7581 27.9373 40.809 28 40.8086C28.062 40.8081 28.1121 40.7573 28.1113 40.6953C28.1109 40.6341 28.0612 40.5847 28 40.584C27.9974 40.5839 27.996 40.5839 27.9922 40.584ZM19.9805 41.1465C19.926 41.1541 19.8863 41.2026 19.8867 41.2578C19.8861 41.3206 19.9373 41.3715 20 41.3711C20.062 41.3706 20.1121 41.3198 20.1113 41.2578C20.1109 41.1966 20.0612 41.1472 20 41.1465C19.9924 41.1459 19.99 41.1459 19.9824 41.1465H19.9805ZM27.9805 41.1465C27.926 41.1541 27.8863 41.2026 27.8867 41.2578C27.8861 41.3206 27.9373 41.3715 28 41.3711C28.062 41.3706 28.1121 41.3198 28.1113 41.2578C28.1109 41.1966 28.0612 41.1472 28 41.1465C27.9924 41.1459 27.99 41.1459 27.9824 41.1465H27.9805ZM19.9805 41.709C19.926 41.7166 19.8863 41.7651 19.8867 41.8203C19.8872 41.8823 19.9376 41.9328 20 41.9317C20.0612 41.9312 20.1109 41.8819 20.1113 41.8203C20.1109 41.7591 20.0612 41.7097 20 41.709C19.9924 41.7084 19.99 41.7084 19.9824 41.709H19.9805ZM27.9805 41.709C27.926 41.7166 27.8863 41.7651 27.8867 41.8203C27.8872 41.8823 27.9376 41.9328 28 41.9317C28.0612 41.9312 28.1109 41.8819 28.1113 41.8203C28.1109 41.7591 28.0612 41.7097 28 41.709C27.9924 41.7084 27.99 41.7084 27.9824 41.709H27.9805ZM20.002 42.2695C19.9392 42.2689 19.8883 42.3201 19.8887 42.3828C19.8892 42.4448 19.9396 42.4945 20.002 42.4941C20.0632 42.4937 20.1125 42.4444 20.1133 42.3828C20.1138 42.3208 20.0643 42.2703 20.002 42.2695ZM28.002 42.2695C27.9392 42.2689 27.8883 42.3201 27.8887 42.3828C27.8892 42.4448 27.9396 42.4945 28.002 42.4941C28.0632 42.4937 28.1125 42.4444 28.1133 42.3828C28.1138 42.3208 28.0643 42.2703 28.002 42.2695ZM19.9922 42.832C19.9325 42.8356 19.886 42.8852 19.8867 42.9453C19.8872 43.0073 19.9376 43.057 20 43.0567C20.0612 43.0562 20.1109 43.0069 20.1113 42.9453C20.1119 42.8833 20.062 42.8328 20 42.832C19.9974 42.8319 19.996 42.8319 19.9922 42.832ZM27.9922 42.832C27.9325 42.8356 27.886 42.8852 27.8867 42.9453C27.8872 43.0073 27.9376 43.057 28 43.0567C28.0612 43.0562 28.1109 43.0069 28.1113 42.9453C28.1119 42.8833 28.062 42.8328 28 42.832C27.9974 42.8319 27.996 42.8319 27.9922 42.832Z" fill="#333333"/>
</svg>
