<svg width="48" height="48" viewBox="0 0 48 48" fill="none" xmlns="http://www.w3.org/2000/svg">
<g clip-path="url(#clip0)">
<path fill-rule="evenodd" clip-rule="evenodd" d="M0 0V48H48V0H0ZM28.89 4.076C30.53 4.081 32.177 4.094 33.836 4.119C34.705 4.119 35.404 4.818 35.404 5.687V42.549C35.404 43.419 34.705 44.119 33.836 44.119H14.131C13.261 44.119 12.564 43.419 12.564 42.549V5.687C12.564 4.817 13.261 4.119 14.13 4.119C19.106 4.119 23.97 4.062 28.89 4.076ZM20.351 5.058C20.3217 5.05905 20.2939 5.07157 20.2737 5.09288C20.2535 5.11419 20.2425 5.14258 20.243 5.17193C20.2435 5.20128 20.2556 5.22926 20.2765 5.24983C20.2975 5.2704 20.3256 5.28193 20.355 5.28193C20.3844 5.28193 20.4125 5.2704 20.4335 5.24983C20.4544 5.22926 20.4665 5.20128 20.467 5.17193C20.4675 5.14258 20.4565 5.11419 20.4363 5.09288C20.4161 5.07157 20.3883 5.05905 20.359 5.058H20.351ZM27.601 5.058C27.5717 5.05905 27.5439 5.07157 27.5237 5.09288C27.5035 5.11419 27.4925 5.14258 27.493 5.17193C27.4935 5.20128 27.5056 5.22926 27.5265 5.24983C27.5475 5.2704 27.5756 5.28193 27.605 5.28193C27.6344 5.28193 27.6625 5.2704 27.6835 5.24983C27.7044 5.22926 27.7165 5.20128 27.717 5.17193C27.7175 5.14258 27.7065 5.11419 27.6863 5.09288C27.6661 5.07157 27.6383 5.05905 27.609 5.058H27.601ZM17.877 5.15C17.7523 5.15202 17.6293 5.17868 17.515 5.22845C17.4007 5.27822 17.2974 5.35012 17.211 5.44L15.402 7.297C15.3152 7.3861 15.2468 7.49143 15.2007 7.60697C15.1546 7.7225 15.1317 7.84599 15.1333 7.97037C15.135 8.09476 15.1611 8.2176 15.2102 8.3319C15.2593 8.44619 15.3304 8.5497 15.4195 8.6365C15.5086 8.7233 15.6139 8.79171 15.7295 8.83781C15.845 8.88391 15.9685 8.9068 16.0929 8.90517C16.2173 8.90355 16.3401 8.87744 16.4544 8.82834C16.5687 8.77923 16.6722 8.7081 16.759 8.619L18.568 6.759C18.6551 6.67 18.7238 6.56466 18.7701 6.44904C18.8163 6.33342 18.8393 6.20978 18.8376 6.08526C18.8359 5.96073 18.8097 5.83776 18.7603 5.72342C18.7109 5.60908 18.6395 5.50562 18.55 5.419C18.461 5.33208 18.3558 5.26358 18.2403 5.21742C18.1248 5.17125 18.0014 5.14834 17.877 5.15ZM31.877 5.15C31.7523 5.15202 31.6293 5.17868 31.515 5.22845C31.4007 5.27822 31.2974 5.35012 31.211 5.44L29.402 7.297C29.3152 7.3861 29.2468 7.49143 29.2007 7.60697C29.1546 7.7225 29.1317 7.84599 29.1333 7.97037C29.135 8.09476 29.1611 8.2176 29.2102 8.3319C29.2593 8.44619 29.3304 8.5497 29.4195 8.6365C29.5086 8.7233 29.6139 8.79171 29.7295 8.83781C29.845 8.88391 29.9685 8.9068 30.0929 8.90517C30.2173 8.90355 30.3401 8.87744 30.4544 8.82834C30.5687 8.77923 30.6722 8.7081 30.759 8.619L32.568 6.759C32.6551 6.67 32.7238 6.56466 32.7701 6.44904C32.8163 6.33342 32.8393 6.20978 32.8376 6.08526C32.8359 5.96073 32.8097 5.83776 32.7603 5.72342C32.7109 5.60908 32.6395 5.50562 32.55 5.419C32.461 5.33208 32.3558 5.26358 32.2403 5.21742C32.1248 5.17125 32.0014 5.14834 31.877 5.15ZM20.351 5.621C20.3217 5.62205 20.2939 5.63457 20.2737 5.65588C20.2535 5.67719 20.2425 5.70558 20.243 5.73493C20.2435 5.76428 20.2556 5.79226 20.2765 5.81283C20.2975 5.8334 20.3256 5.84493 20.355 5.84493C20.3844 5.84493 20.4125 5.8334 20.4335 5.81283C20.4544 5.79226 20.4665 5.76428 20.467 5.73493C20.4675 5.70558 20.4565 5.67719 20.4363 5.65588C20.4161 5.63457 20.3883 5.62205 20.359 5.621H20.351ZM27.601 5.621C27.5717 5.62205 27.5439 5.63457 27.5237 5.65588C27.5035 5.67719 27.4925 5.70558 27.493 5.73493C27.4935 5.76428 27.5056 5.79226 27.5265 5.81283C27.5475 5.8334 27.5756 5.84493 27.605 5.84493C27.6344 5.84493 27.6625 5.8334 27.6835 5.81283C27.7044 5.79226 27.7165 5.76428 27.717 5.73493C27.7175 5.70558 27.7065 5.67719 27.6863 5.65588C27.6661 5.63457 27.6383 5.62205 27.609 5.621H27.601ZM20.341 6.183C20.3198 6.18625 20.3 6.1955 20.284 6.20965C20.2679 6.2238 20.2562 6.24227 20.2503 6.26285C20.2444 6.28343 20.2446 6.30528 20.2507 6.32579C20.2568 6.34631 20.2687 6.36463 20.2849 6.3786C20.3012 6.39257 20.3211 6.40159 20.3423 6.40459C20.3635 6.4076 20.3851 6.40447 20.4046 6.39556C20.424 6.38666 20.4406 6.37236 20.4522 6.35436C20.4637 6.33636 20.4699 6.31541 20.47 6.294C20.47 6.234 20.42 6.184 20.359 6.184H20.341V6.183ZM27.591 6.183C27.5698 6.18625 27.55 6.1955 27.534 6.20965C27.5179 6.2238 27.5062 6.24227 27.5003 6.26285C27.4944 6.28343 27.4946 6.30528 27.5007 6.32579C27.5068 6.34631 27.5187 6.36463 27.5349 6.3786C27.5512 6.39257 27.5711 6.40159 27.5923 6.40459C27.6135 6.4076 27.6351 6.40447 27.6546 6.39556C27.674 6.38666 27.6906 6.37236 27.7022 6.35436C27.7137 6.33636 27.7199 6.31541 27.72 6.294C27.72 6.234 27.67 6.184 27.609 6.184H27.591V6.183ZM24.877 6.219C24.7524 6.22089 24.6294 6.24739 24.5151 6.29699C24.4008 6.34659 24.2975 6.4183 24.211 6.508L22.402 8.364C22.2382 8.54607 22.1512 8.78447 22.1593 9.02923C22.1674 9.274 22.2699 9.50615 22.4453 9.67704C22.6207 9.84793 22.8554 9.94431 23.1003 9.94598C23.3452 9.94765 23.5813 9.85448 23.759 9.686L25.568 7.827C25.6551 7.738 25.7238 7.63266 25.7701 7.51704C25.8163 7.40141 25.8393 7.27778 25.8376 7.15326C25.8359 7.02873 25.8097 6.90576 25.7603 6.79142C25.7109 6.67708 25.6395 6.57362 25.55 6.487C25.4611 6.3999 25.3559 6.33121 25.2404 6.28488C25.1249 6.23854 25.0014 6.21548 24.877 6.217V6.219ZM20.361 6.744C20.3462 6.74387 20.3316 6.74665 20.3179 6.75218C20.3042 6.75771 20.2917 6.76589 20.2812 6.77624C20.2599 6.79715 20.2478 6.82566 20.2475 6.8555C20.2472 6.88534 20.2588 6.91406 20.2797 6.93534C20.3007 6.95663 20.3292 6.96873 20.359 6.969C20.3888 6.96926 20.4176 6.95767 20.4388 6.93676C20.4601 6.91585 20.4722 6.88734 20.4725 6.8575C20.4728 6.82766 20.4612 6.79894 20.4403 6.77766C20.4193 6.75637 20.3908 6.74427 20.361 6.744ZM27.611 6.744C27.5962 6.74387 27.5816 6.74665 27.5679 6.75218C27.5542 6.75771 27.5417 6.76589 27.5312 6.77624C27.5099 6.79715 27.4978 6.82566 27.4975 6.8555C27.4972 6.88534 27.5088 6.91406 27.5297 6.93534C27.5507 6.95663 27.5792 6.96873 27.609 6.969C27.6388 6.96926 27.6676 6.95767 27.6888 6.93676C27.7101 6.91585 27.7222 6.88734 27.7225 6.8575C27.7228 6.82766 27.7112 6.79894 27.6903 6.77766C27.6693 6.75637 27.6408 6.74427 27.611 6.744ZM20.351 7.307C20.3217 7.30805 20.2939 7.32057 20.2737 7.34188C20.2535 7.36319 20.2425 7.39158 20.243 7.42093C20.2435 7.45028 20.2556 7.47826 20.2765 7.49883C20.2975 7.5194 20.3256 7.53093 20.355 7.53093C20.3844 7.53093 20.4125 7.5194 20.4335 7.49883C20.4544 7.47826 20.4665 7.45028 20.467 7.42093C20.4675 7.39158 20.4565 7.36319 20.4363 7.34188C20.4161 7.32057 20.3883 7.30805 20.359 7.307H20.351ZM27.601 7.307C27.5717 7.30805 27.5439 7.32057 27.5237 7.34188C27.5035 7.36319 27.4925 7.39158 27.493 7.42093C27.4935 7.45028 27.5056 7.47826 27.5265 7.49883C27.5475 7.5194 27.5756 7.53093 27.605 7.53093C27.6344 7.53093 27.6625 7.5194 27.6835 7.49883C27.7044 7.47826 27.7165 7.45028 27.717 7.42093C27.7175 7.39158 27.7065 7.36319 27.6863 7.34188C27.6661 7.32057 27.6383 7.30805 27.609 7.307H27.601ZM20.351 7.867C20.3217 7.86805 20.2939 7.88057 20.2737 7.90188C20.2535 7.92319 20.2425 7.95158 20.243 7.98093C20.2435 8.01028 20.2556 8.03826 20.2765 8.05883C20.2975 8.0794 20.3256 8.09093 20.355 8.09093C20.3844 8.09093 20.4125 8.0794 20.4335 8.05883C20.4544 8.03826 20.4665 8.01028 20.467 7.98093C20.4675 7.95158 20.4565 7.92319 20.4363 7.90188C20.4161 7.88057 20.3883 7.86805 20.359 7.867H20.351ZM27.601 7.867C27.5717 7.86805 27.5439 7.88057 27.5237 7.90188C27.5035 7.92319 27.4925 7.95158 27.493 7.98093C27.4935 8.01028 27.5056 8.03826 27.5265 8.05883C27.5475 8.0794 27.5756 8.09093 27.605 8.09093C27.6344 8.09093 27.6625 8.0794 27.6835 8.05883C27.7044 8.03826 27.7165 8.01028 27.717 7.98093C27.7175 7.95158 27.7065 7.92319 27.6863 7.90188C27.6661 7.88057 27.6383 7.86805 27.609 7.867H27.601ZM20.351 8.43C20.3217 8.43105 20.2939 8.44357 20.2737 8.46488C20.2535 8.48619 20.2425 8.51458 20.243 8.54393C20.2435 8.57328 20.2556 8.60126 20.2765 8.62183C20.2975 8.6424 20.3256 8.65393 20.355 8.65393C20.3844 8.65393 20.4125 8.6424 20.4335 8.62183C20.4544 8.60126 20.4665 8.57328 20.467 8.54393C20.4675 8.51458 20.4565 8.48619 20.4363 8.46488C20.4161 8.44357 20.3883 8.43105 20.359 8.43H20.351ZM27.601 8.43C27.5717 8.43105 27.5439 8.44357 27.5237 8.46488C27.5035 8.48619 27.4925 8.51458 27.493 8.54393C27.4935 8.57328 27.5056 8.60126 27.5265 8.62183C27.5475 8.6424 27.5756 8.65393 27.605 8.65393C27.6344 8.65393 27.6625 8.6424 27.6835 8.62183C27.7044 8.60126 27.7165 8.57328 27.717 8.54393C27.7175 8.51458 27.7065 8.48619 27.6863 8.46488C27.6661 8.44357 27.6383 8.43105 27.609 8.43H27.601ZM17.877 8.943C17.7523 8.94502 17.6293 8.97168 17.515 9.02145C17.4007 9.07122 17.2974 9.14312 17.211 9.233L15.402 11.09C15.2267 11.2699 15.13 11.5122 15.1333 11.7634C15.1366 12.0146 15.2396 12.2542 15.4195 12.4295C15.5995 12.6048 15.8417 12.7015 16.0929 12.6982C16.3441 12.6949 16.5837 12.592 16.759 12.412L18.568 10.552C18.6551 10.463 18.7238 10.3577 18.7701 10.242C18.8163 10.1264 18.8393 10.0028 18.8376 9.87826C18.8359 9.75373 18.8097 9.63076 18.7603 9.51642C18.7109 9.40208 18.6395 9.29862 18.55 9.212C18.461 9.12508 18.3558 9.05658 18.2403 9.01042C18.1248 8.96426 18.0014 8.94135 17.877 8.943ZM31.877 8.943C31.7523 8.94502 31.6293 8.97168 31.515 9.02145C31.4007 9.07122 31.2974 9.14312 31.211 9.233L29.402 11.09C29.3152 11.1791 29.2468 11.2844 29.2007 11.4C29.1546 11.5155 29.1317 11.639 29.1333 11.7634C29.135 11.8878 29.1611 12.0106 29.2102 12.1249C29.2593 12.2392 29.3304 12.3427 29.4195 12.4295C29.5086 12.5163 29.6139 12.5847 29.7295 12.6308C29.845 12.6769 29.9685 12.6998 30.0929 12.6982C30.2173 12.6965 30.3401 12.6704 30.4544 12.6213C30.5687 12.5722 30.6722 12.5011 30.759 12.412L32.568 10.552C32.6551 10.463 32.7238 10.3577 32.7701 10.242C32.8163 10.1264 32.8393 10.0028 32.8376 9.87826C32.8359 9.75373 32.8097 9.63076 32.7603 9.51642C32.7109 9.40208 32.6395 9.29862 32.55 9.212C32.461 9.12508 32.3558 9.05658 32.2403 9.01042C32.1248 8.96426 32.0014 8.94135 31.877 8.943ZM20.351 8.992C20.3363 8.99292 20.3219 8.99673 20.3087 9.0032C20.2954 9.00968 20.2836 9.0187 20.2739 9.02975C20.2641 9.0408 20.2566 9.05367 20.2518 9.06761C20.2471 9.08155 20.2451 9.09629 20.246 9.111C20.2469 9.12571 20.2507 9.14009 20.2572 9.15333C20.2637 9.16656 20.2727 9.1784 20.2838 9.18815C20.2948 9.1979 20.3077 9.20537 20.3216 9.21015C20.3355 9.21493 20.3503 9.21692 20.365 9.216C20.3947 9.21414 20.4225 9.20056 20.4421 9.17825C20.4618 9.15593 20.4719 9.1267 20.47 9.097C20.4681 9.0673 20.4546 9.03955 20.4322 9.01985C20.4099 9.00016 20.3807 8.99014 20.351 8.992ZM27.601 8.992C27.5863 8.99292 27.5719 8.99673 27.5587 9.0032C27.5454 9.00968 27.5336 9.0187 27.5239 9.02975C27.5141 9.0408 27.5066 9.05367 27.5018 9.06761C27.4971 9.08155 27.4951 9.09629 27.496 9.111C27.4969 9.12571 27.5007 9.14009 27.5072 9.15333C27.5137 9.16656 27.5227 9.1784 27.5338 9.18815C27.5448 9.1979 27.5577 9.20537 27.5716 9.21015C27.5855 9.21493 27.6003 9.21692 27.615 9.216C27.6447 9.21414 27.6725 9.20056 27.6921 9.17825C27.7118 9.15593 27.7219 9.1267 27.72 9.097C27.7181 9.0673 27.7046 9.03955 27.6822 9.01985C27.6599 9.00016 27.6307 8.99014 27.601 8.992ZM20.351 9.555C20.3289 9.55637 20.3077 9.5642 20.29 9.57751C20.2724 9.59082 20.259 9.60902 20.2516 9.62987C20.2441 9.65071 20.243 9.67328 20.2483 9.69476C20.2536 9.71625 20.265 9.73571 20.2813 9.75074C20.2975 9.76576 20.3178 9.77569 20.3397 9.77928C20.3615 9.78288 20.3839 9.77998 20.4041 9.77096C20.4243 9.76194 20.4414 9.74718 20.4533 9.72852C20.4652 9.70986 20.4713 9.68812 20.471 9.666C20.4709 9.65068 20.4677 9.63554 20.4615 9.62152C20.4553 9.6075 20.4463 9.5949 20.4351 9.58449C20.4238 9.57409 20.4105 9.5661 20.3961 9.56103C20.3816 9.55596 20.3663 9.55391 20.351 9.555ZM27.601 9.555C27.5789 9.55637 27.5577 9.5642 27.54 9.57751C27.5224 9.59082 27.509 9.60902 27.5016 9.62987C27.4941 9.65071 27.493 9.67328 27.4983 9.69476C27.5036 9.71625 27.515 9.73571 27.5313 9.75074C27.5475 9.76576 27.5678 9.77569 27.5897 9.77928C27.6115 9.78288 27.6339 9.77998 27.6541 9.77096C27.6743 9.76194 27.6914 9.74718 27.7033 9.72852C27.7152 9.70986 27.7213 9.68812 27.721 9.666C27.7209 9.65068 27.7177 9.63554 27.7115 9.62152C27.7053 9.6075 27.6963 9.5949 27.6851 9.58449C27.6738 9.57409 27.6605 9.5661 27.6461 9.56103C27.6316 9.55596 27.6163 9.55391 27.601 9.555ZM20.339 10.117C20.3126 10.1217 20.2888 10.1357 20.2717 10.1564C20.2547 10.1771 20.2456 10.2032 20.246 10.23C20.2439 10.246 20.2452 10.2622 20.2498 10.2776C20.2545 10.293 20.2624 10.3073 20.273 10.3194C20.2836 10.3315 20.2966 10.3412 20.3113 10.3479C20.326 10.3546 20.3419 10.358 20.358 10.358C20.3741 10.358 20.39 10.3546 20.4047 10.3479C20.4194 10.3412 20.4324 10.3315 20.443 10.3194C20.4536 10.3073 20.4615 10.293 20.4662 10.2776C20.4708 10.2622 20.4721 10.246 20.47 10.23C20.4697 10.2005 20.458 10.1722 20.4373 10.1511C20.4166 10.13 20.3885 10.1178 20.359 10.117H20.339ZM27.589 10.117C27.5626 10.1217 27.5388 10.1357 27.5217 10.1564C27.5047 10.1771 27.4956 10.2032 27.496 10.23C27.4939 10.246 27.4952 10.2622 27.4998 10.2776C27.5045 10.293 27.5124 10.3073 27.523 10.3194C27.5336 10.3315 27.5466 10.3412 27.5613 10.3479C27.576 10.3546 27.5919 10.358 27.608 10.358C27.6241 10.358 27.64 10.3546 27.6547 10.3479C27.6694 10.3412 27.6824 10.3315 27.693 10.3194C27.7036 10.3073 27.7115 10.293 27.7162 10.2776C27.7208 10.2622 27.7221 10.246 27.72 10.23C27.7197 10.2005 27.708 10.1722 27.6873 10.1511C27.6666 10.13 27.6385 10.1178 27.609 10.117H27.589ZM24.877 10.219C24.7524 10.2209 24.6294 10.2474 24.5151 10.297C24.4008 10.3466 24.2975 10.4183 24.211 10.508L22.402 12.365C22.2382 12.5471 22.1512 12.7855 22.1593 13.0302C22.1674 13.275 22.2699 13.5071 22.4453 13.678C22.6207 13.8489 22.8554 13.9453 23.1003 13.947C23.3452 13.9487 23.5813 13.8555 23.759 13.687L25.568 11.828C25.6551 11.739 25.7238 11.6337 25.7701 11.518C25.8163 11.4024 25.8393 11.2788 25.8376 11.1543C25.8359 11.0297 25.8097 10.9068 25.7603 10.7924C25.7109 10.6781 25.6395 10.5746 25.55 10.488C25.4611 10.4009 25.3559 10.3322 25.2404 10.2859C25.1249 10.2395 25.0014 10.2165 24.877 10.218V10.219ZM20.361 10.678C20.346 10.6781 20.3312 10.6812 20.3174 10.6871C20.3037 10.6929 20.2912 10.7014 20.2807 10.7121C20.2702 10.7228 20.2619 10.7354 20.2563 10.7493C20.2507 10.7632 20.2479 10.778 20.248 10.793C20.248 10.855 20.298 10.903 20.361 10.903C20.3755 10.9031 20.3899 10.9004 20.4034 10.8949C20.4169 10.8894 20.4291 10.8814 20.4394 10.8711C20.4497 10.8609 20.4579 10.8487 20.4635 10.8353C20.4691 10.8219 20.472 10.8075 20.472 10.793C20.4723 10.7631 20.4608 10.7343 20.44 10.7128C20.4193 10.6913 20.3909 10.6788 20.361 10.678ZM27.611 10.678C27.596 10.6781 27.5812 10.6812 27.5674 10.6871C27.5537 10.6929 27.5412 10.7014 27.5307 10.7121C27.5202 10.7228 27.5119 10.7354 27.5063 10.7493C27.5007 10.7632 27.4979 10.778 27.498 10.793C27.498 10.855 27.548 10.903 27.611 10.903C27.6255 10.9031 27.6399 10.9004 27.6534 10.8949C27.6669 10.8894 27.6791 10.8814 27.6894 10.8711C27.6997 10.8609 27.7079 10.8487 27.7135 10.8353C27.7191 10.8219 27.722 10.8075 27.722 10.793C27.7223 10.7631 27.7108 10.7343 27.69 10.7128C27.6693 10.6913 27.6409 10.6788 27.611 10.678ZM20.361 11.24C20.3462 11.2399 20.3316 11.2426 20.3179 11.2482C20.3042 11.2537 20.2917 11.2619 20.2812 11.2722C20.2599 11.2932 20.2478 11.3217 20.2475 11.3515C20.2472 11.3813 20.2588 11.4101 20.2797 11.4313C20.3007 11.4526 20.3292 11.4647 20.359 11.465C20.3888 11.4653 20.4176 11.4537 20.4388 11.4328C20.4601 11.4118 20.4722 11.3833 20.4725 11.3535C20.4728 11.3237 20.4612 11.2949 20.4403 11.2737C20.4193 11.2524 20.3908 11.2403 20.361 11.24ZM27.611 11.24C27.5962 11.2399 27.5816 11.2426 27.5679 11.2482C27.5542 11.2537 27.5417 11.2619 27.5312 11.2722C27.5099 11.2932 27.4978 11.3217 27.4975 11.3515C27.4972 11.3813 27.5088 11.4101 27.5297 11.4313C27.5507 11.4526 27.5792 11.4647 27.609 11.465C27.6388 11.4653 27.6676 11.4537 27.6888 11.4328C27.7101 11.4118 27.7222 11.3833 27.7225 11.3535C27.7228 11.3237 27.7112 11.2949 27.6903 11.2737C27.6693 11.2524 27.6408 11.2403 27.611 11.24ZM20.351 11.803C20.3227 11.8065 20.2967 11.8204 20.2782 11.8421C20.2597 11.8638 20.2499 11.8917 20.2509 11.9202C20.252 11.9487 20.2636 11.9758 20.2836 11.9961C20.3036 12.0164 20.3305 12.0285 20.359 12.03C20.42 12.029 20.469 11.977 20.47 11.916C20.4702 11.9006 20.4672 11.8853 20.4612 11.8711C20.4552 11.857 20.4463 11.8442 20.4351 11.8336C20.424 11.823 20.4107 11.8148 20.3962 11.8095C20.3818 11.8043 20.3664 11.802 20.351 11.803ZM27.601 11.803C27.5727 11.8065 27.5467 11.8204 27.5282 11.8421C27.5097 11.8638 27.4999 11.8917 27.5009 11.9202C27.502 11.9487 27.5136 11.9758 27.5336 11.9961C27.5536 12.0164 27.5805 12.0285 27.609 12.03C27.67 12.029 27.719 11.977 27.72 11.916C27.7202 11.9006 27.7172 11.8853 27.7112 11.8711C27.7052 11.857 27.6963 11.8442 27.6851 11.8336C27.674 11.823 27.6607 11.8148 27.6462 11.8095C27.6318 11.8043 27.6164 11.802 27.601 11.803ZM20.351 12.365C20.3227 12.3685 20.2967 12.3824 20.2782 12.4041C20.2597 12.4258 20.2499 12.4537 20.2509 12.4822C20.252 12.5107 20.2636 12.5378 20.2836 12.5581C20.3036 12.5784 20.3305 12.5905 20.359 12.592C20.42 12.592 20.469 12.54 20.47 12.478C20.4702 12.4626 20.4672 12.4473 20.4612 12.4331C20.4552 12.419 20.4463 12.4062 20.4351 12.3956C20.424 12.385 20.4107 12.3768 20.3962 12.3715C20.3818 12.3663 20.3664 12.364 20.351 12.365ZM27.601 12.365C27.5727 12.3685 27.5467 12.3824 27.5282 12.4041C27.5097 12.4258 27.4999 12.4537 27.5009 12.4822C27.502 12.5107 27.5136 12.5378 27.5336 12.5581C27.5536 12.5784 27.5805 12.5905 27.609 12.592C27.67 12.592 27.719 12.54 27.72 12.478C27.7202 12.4626 27.7172 12.4473 27.7112 12.4331C27.7052 12.419 27.6963 12.4062 27.6851 12.3956C27.674 12.385 27.6607 12.3768 27.6462 12.3715C27.6318 12.3663 27.6164 12.364 27.601 12.365ZM17.877 12.736C17.7523 12.738 17.6293 12.7647 17.515 12.8145C17.4007 12.8642 17.2974 12.9361 17.211 13.026L15.402 14.883C15.2267 15.063 15.13 15.3052 15.1333 15.5564C15.1366 15.8076 15.2396 16.0472 15.4195 16.2225C15.5995 16.3978 15.8417 16.4945 16.0929 16.4912C16.3441 16.4879 16.5837 16.3849 16.759 16.205L18.568 14.345C18.6551 14.256 18.7238 14.1507 18.7701 14.035C18.8163 13.9194 18.8393 13.7958 18.8376 13.6713C18.8359 13.5467 18.8097 13.4238 18.7603 13.3094C18.7109 13.1951 18.6395 13.0916 18.55 13.005C18.461 12.9181 18.3558 12.8496 18.2403 12.8034C18.1248 12.7573 18.0014 12.7343 17.877 12.736ZM31.877 12.736C31.7523 12.738 31.6293 12.7647 31.515 12.8145C31.4007 12.8642 31.2974 12.9361 31.211 13.026L29.402 14.883C29.3152 14.9721 29.2468 15.0774 29.2007 15.193C29.1546 15.3085 29.1317 15.432 29.1333 15.5564C29.135 15.6808 29.1611 15.8036 29.2102 15.9179C29.2593 16.0322 29.3304 16.1357 29.4195 16.2225C29.5086 16.3093 29.6139 16.3777 29.7295 16.4238C29.845 16.4699 29.9685 16.4928 30.0929 16.4912C30.2173 16.4895 30.3401 16.4634 30.4544 16.4143C30.5687 16.3652 30.6722 16.2941 30.759 16.205L32.568 14.345C32.6551 14.256 32.7238 14.1507 32.7701 14.035C32.8163 13.9194 32.8393 13.7958 32.8376 13.6713C32.8359 13.5467 32.8097 13.4238 32.7603 13.3094C32.7109 13.1951 32.6395 13.0916 32.55 13.005C32.461 12.9181 32.3558 12.8496 32.2403 12.8034C32.1248 12.7573 32.0014 12.7343 31.877 12.736ZM20.351 12.928C20.3363 12.9289 20.3219 12.9327 20.3087 12.9392C20.2954 12.9457 20.2836 12.9547 20.2739 12.9658C20.2641 12.9768 20.2566 12.9897 20.2518 13.0036C20.2471 13.0175 20.2451 13.0323 20.246 13.047C20.2469 13.0617 20.2507 13.0761 20.2572 13.0893C20.2637 13.1026 20.2727 13.1144 20.2838 13.1241C20.2948 13.1339 20.3077 13.1414 20.3216 13.1462C20.3355 13.1509 20.3503 13.1529 20.365 13.152C20.3947 13.1501 20.4225 13.1366 20.4421 13.1142C20.4618 13.0919 20.4719 13.0627 20.47 13.033C20.4681 13.0033 20.4546 12.9755 20.4322 12.9559C20.4099 12.9362 20.3807 12.9261 20.351 12.928ZM27.601 12.928C27.5863 12.9289 27.5719 12.9327 27.5587 12.9392C27.5454 12.9457 27.5336 12.9547 27.5239 12.9658C27.5141 12.9768 27.5066 12.9897 27.5018 13.0036C27.4971 13.0175 27.4951 13.0323 27.496 13.047C27.4969 13.0617 27.5007 13.0761 27.5072 13.0893C27.5137 13.1026 27.5227 13.1144 27.5338 13.1241C27.5448 13.1339 27.5577 13.1414 27.5716 13.1462C27.5855 13.1509 27.6003 13.1529 27.615 13.152C27.6447 13.1501 27.6725 13.1366 27.6921 13.1142C27.7118 13.0919 27.7219 13.0627 27.72 13.033C27.7181 13.0033 27.7046 12.9755 27.6822 12.9559C27.6599 12.9362 27.6307 12.9261 27.601 12.928ZM20.351 13.49C20.3363 13.4909 20.3219 13.4947 20.3087 13.5012C20.2954 13.5077 20.2836 13.5167 20.2739 13.5278C20.2641 13.5388 20.2566 13.5517 20.2518 13.5656C20.2471 13.5795 20.2451 13.5943 20.246 13.609C20.2469 13.6237 20.2507 13.6381 20.2572 13.6513C20.2637 13.6646 20.2727 13.6764 20.2838 13.6861C20.2948 13.6959 20.3077 13.7034 20.3216 13.7082C20.3355 13.7129 20.3503 13.7149 20.365 13.714C20.3947 13.7121 20.4225 13.6986 20.4421 13.6762C20.4618 13.6539 20.4719 13.6247 20.47 13.595C20.4681 13.5653 20.4546 13.5375 20.4322 13.5179C20.4099 13.4982 20.3807 13.4881 20.351 13.49ZM27.601 13.49C27.5713 13.4919 27.5435 13.5054 27.5239 13.5278C27.5042 13.5501 27.4941 13.5793 27.496 13.609C27.4979 13.6387 27.5114 13.6665 27.5338 13.6861C27.5561 13.7058 27.5853 13.7159 27.615 13.714C27.6297 13.7131 27.6441 13.7093 27.6573 13.7028C27.6706 13.6963 27.6824 13.6873 27.6921 13.6762C27.7019 13.6652 27.7094 13.6523 27.7142 13.6384C27.7189 13.6245 27.7209 13.6097 27.72 13.595C27.7191 13.5803 27.7153 13.5659 27.7088 13.5527C27.7023 13.5394 27.6933 13.5276 27.6822 13.5179C27.6712 13.5081 27.6583 13.5006 27.6444 13.4958C27.6305 13.4911 27.6157 13.4891 27.601 13.49ZM20.351 14.053C20.3363 14.0539 20.3219 14.0577 20.3087 14.0642C20.2954 14.0707 20.2836 14.0797 20.2739 14.0908C20.2641 14.1018 20.2566 14.1147 20.2518 14.1286C20.2471 14.1425 20.2451 14.1573 20.246 14.172C20.2469 14.1867 20.2507 14.2011 20.2572 14.2143C20.2637 14.2276 20.2727 14.2394 20.2838 14.2491C20.2948 14.2589 20.3077 14.2664 20.3216 14.2712C20.3355 14.2759 20.3503 14.2779 20.365 14.277C20.3947 14.2751 20.4225 14.2616 20.4421 14.2392C20.4618 14.2169 20.4719 14.1877 20.47 14.158C20.4681 14.1283 20.4546 14.1005 20.4322 14.0809C20.4099 14.0612 20.3807 14.0511 20.351 14.053ZM27.601 14.053C27.5863 14.0539 27.5719 14.0577 27.5587 14.0642C27.5454 14.0707 27.5336 14.0797 27.5239 14.0908C27.5141 14.1018 27.5066 14.1147 27.5018 14.1286C27.4971 14.1425 27.4951 14.1573 27.496 14.172C27.4969 14.1867 27.5007 14.2011 27.5072 14.2143C27.5137 14.2276 27.5227 14.2394 27.5338 14.2491C27.5448 14.2589 27.5577 14.2664 27.5716 14.2712C27.5855 14.2759 27.6003 14.2779 27.615 14.277C27.6447 14.2751 27.6725 14.2616 27.6921 14.2392C27.7118 14.2169 27.7219 14.1877 27.72 14.158C27.7181 14.1283 27.7046 14.1005 27.6822 14.0809C27.6599 14.0612 27.6307 14.0511 27.601 14.053ZM24.877 14.221C24.7524 14.2229 24.6294 14.2494 24.5151 14.299C24.4008 14.3486 24.2975 14.4203 24.211 14.51L22.402 16.367C22.2382 16.5491 22.1512 16.7875 22.1593 17.0322C22.1674 17.277 22.2699 17.5091 22.4453 17.68C22.6207 17.8509 22.8554 17.9473 23.1003 17.949C23.3452 17.9506 23.5813 17.8575 23.759 17.689L25.568 15.829C25.655 15.74 25.7235 15.6347 25.7697 15.5192C25.8159 15.4037 25.8388 15.2802 25.8371 15.1558C25.8354 15.0314 25.8092 14.9085 25.7599 14.7943C25.7107 14.68 25.6393 14.5766 25.55 14.49C25.4611 14.4029 25.3559 14.3342 25.2404 14.2879C25.1249 14.2415 25.0014 14.2185 24.877 14.22V14.221ZM20.339 14.615C20.3128 14.6193 20.289 14.6329 20.2719 14.6532C20.2548 14.6736 20.2456 14.6994 20.246 14.726C20.2456 14.7482 20.2518 14.77 20.2638 14.7887C20.2758 14.8073 20.2931 14.822 20.3135 14.8308C20.3339 14.8396 20.3564 14.8422 20.3782 14.8382C20.4001 14.8341 20.4202 14.8237 20.4361 14.8082C20.452 14.7928 20.463 14.7729 20.4676 14.7512C20.4721 14.7295 20.4702 14.7069 20.4619 14.6863C20.4537 14.6657 20.4395 14.648 20.4212 14.6355C20.4028 14.623 20.3812 14.6162 20.359 14.616C20.351 14.614 20.351 14.614 20.343 14.616H20.339V14.615ZM27.589 14.615C27.5628 14.6193 27.539 14.6329 27.5219 14.6532C27.5048 14.6736 27.4956 14.6994 27.496 14.726C27.4956 14.7482 27.5018 14.77 27.5138 14.7887C27.5258 14.8073 27.5431 14.822 27.5635 14.8308C27.5839 14.8396 27.6064 14.8422 27.6282 14.8382C27.6501 14.8341 27.6702 14.8237 27.6861 14.8082C27.702 14.7928 27.713 14.7729 27.7176 14.7512C27.7221 14.7295 27.7202 14.7069 27.7119 14.6863C27.7037 14.6657 27.6895 14.648 27.6712 14.6355C27.6528 14.623 27.6312 14.6162 27.609 14.616C27.601 14.614 27.601 14.614 27.593 14.616H27.589V14.615ZM20.339 15.178C20.3179 15.1814 20.2983 15.1908 20.2823 15.2051C20.2664 15.2193 20.2549 15.2378 20.2491 15.2584C20.2434 15.279 20.2436 15.3007 20.2499 15.3212C20.2561 15.3416 20.268 15.3598 20.2843 15.3737C20.3005 15.3876 20.3204 15.3965 20.3416 15.3995C20.3627 15.4024 20.3843 15.3993 20.4037 15.3903C20.4231 15.3814 20.4396 15.3672 20.4511 15.3492C20.4627 15.3313 20.4689 15.3104 20.469 15.289C20.469 15.228 20.42 15.179 20.359 15.178H20.339ZM27.589 15.178C27.5679 15.1814 27.5483 15.1908 27.5323 15.2051C27.5164 15.2193 27.5049 15.2378 27.4991 15.2584C27.4934 15.279 27.4936 15.3007 27.4999 15.3212C27.5061 15.3416 27.518 15.3598 27.5343 15.3737C27.5505 15.3876 27.5704 15.3965 27.5916 15.3995C27.6127 15.4024 27.6343 15.3993 27.6537 15.3903C27.6731 15.3814 27.6896 15.3672 27.7011 15.3492C27.7127 15.3313 27.7189 15.3104 27.719 15.289C27.719 15.228 27.67 15.179 27.609 15.178H27.589ZM20.361 15.738C20.3462 15.7379 20.3316 15.7406 20.3179 15.7462C20.3042 15.7517 20.2917 15.7599 20.2812 15.7702C20.2599 15.7912 20.2478 15.8197 20.2475 15.8495C20.2472 15.8793 20.2588 15.9081 20.2797 15.9293C20.3007 15.9506 20.3292 15.9627 20.359 15.963C20.3888 15.9633 20.4176 15.9517 20.4388 15.9308C20.4601 15.9098 20.4722 15.8813 20.4725 15.8515C20.4728 15.8217 20.4612 15.7929 20.4403 15.7717C20.4193 15.7504 20.3908 15.7383 20.361 15.738ZM27.611 15.738C27.5962 15.7379 27.5816 15.7406 27.5679 15.7462C27.5542 15.7517 27.5417 15.7599 27.5312 15.7702C27.5099 15.7912 27.4978 15.8197 27.4975 15.8495C27.4972 15.8793 27.5088 15.9081 27.5297 15.9293C27.5507 15.9506 27.5792 15.9627 27.609 15.963C27.6388 15.9633 27.6676 15.9517 27.6888 15.9308C27.7101 15.9098 27.7222 15.8813 27.7225 15.8515C27.7228 15.8217 27.7112 15.7929 27.6903 15.7717C27.6693 15.7504 27.6408 15.7383 27.611 15.738ZM20.351 16.301C20.3224 16.3028 20.2955 16.3155 20.2759 16.3365C20.2564 16.3576 20.2457 16.3853 20.246 16.414C20.246 16.476 20.296 16.526 20.359 16.525C20.3887 16.525 20.4172 16.5132 20.4382 16.4922C20.4592 16.4712 20.471 16.4427 20.471 16.413C20.471 16.3833 20.4592 16.3548 20.4382 16.3338C20.4172 16.3128 20.3887 16.301 20.359 16.301H20.351ZM27.601 16.301C27.5724 16.3028 27.5455 16.3155 27.5259 16.3365C27.5064 16.3576 27.4957 16.3853 27.496 16.414C27.496 16.476 27.546 16.526 27.609 16.525C27.6387 16.525 27.6672 16.5132 27.6882 16.4922C27.7092 16.4712 27.721 16.4427 27.721 16.413C27.721 16.3833 27.7092 16.3548 27.6882 16.3338C27.6672 16.3128 27.6387 16.301 27.609 16.301H27.601ZM17.877 16.529C17.7523 16.531 17.6293 16.5577 17.515 16.6075C17.4007 16.6572 17.2974 16.7291 17.211 16.819L15.402 18.676C15.2267 18.8559 15.13 19.0982 15.1333 19.3494C15.1366 19.6006 15.2396 19.8402 15.4195 20.0155C15.5995 20.1908 15.8417 20.2875 16.0929 20.2842C16.3441 20.2809 16.5837 20.1779 16.759 19.998L18.568 18.138C18.6551 18.049 18.7238 17.9437 18.7701 17.828C18.8163 17.7124 18.8393 17.5888 18.8376 17.4643C18.8359 17.3397 18.8097 17.2168 18.7603 17.1024C18.7109 16.9881 18.6395 16.8846 18.55 16.798C18.461 16.7111 18.3558 16.6426 18.2403 16.5964C18.1248 16.5503 18.0014 16.5273 17.877 16.529ZM31.877 16.529C31.7523 16.531 31.6293 16.5577 31.515 16.6075C31.4007 16.6572 31.2974 16.7291 31.211 16.819L29.402 18.676C29.3152 18.7651 29.2468 18.8704 29.2007 18.986C29.1546 19.1015 29.1317 19.225 29.1333 19.3494C29.135 19.4738 29.1611 19.5966 29.2102 19.7109C29.2593 19.8252 29.3304 19.9287 29.4195 20.0155C29.5086 20.1023 29.6139 20.1707 29.7295 20.2168C29.845 20.2629 29.9685 20.2858 30.0929 20.2842C30.2173 20.2825 30.3401 20.2564 30.4544 20.2073C30.5687 20.1582 30.6722 20.0871 30.759 19.998L32.568 18.138C32.6551 18.049 32.7238 17.9437 32.7701 17.828C32.8163 17.7124 32.8393 17.5888 32.8376 17.4643C32.8359 17.3397 32.8097 17.2168 32.7603 17.1024C32.7109 16.9881 32.6395 16.8846 32.55 16.798C32.461 16.7111 32.3558 16.6426 32.2403 16.5964C32.1248 16.5503 32.0014 16.5273 31.877 16.529ZM20.351 16.863C20.3217 16.864 20.2939 16.8766 20.2737 16.8979C20.2535 16.9192 20.2425 16.9476 20.243 16.9769C20.2435 17.0063 20.2556 17.0343 20.2765 17.0548C20.2975 17.0754 20.3256 17.0869 20.355 17.0869C20.3844 17.0869 20.4125 17.0754 20.4335 17.0548C20.4544 17.0343 20.4665 17.0063 20.467 16.9769C20.4675 16.9476 20.4565 16.9192 20.4363 16.8979C20.4161 16.8766 20.3883 16.864 20.359 16.863H20.351ZM27.601 16.863C27.5717 16.864 27.5439 16.8766 27.5237 16.8979C27.5035 16.9192 27.4925 16.9476 27.493 16.9769C27.4935 17.0063 27.5056 17.0343 27.5265 17.0548C27.5475 17.0754 27.5756 17.0869 27.605 17.0869C27.6344 17.0869 27.6625 17.0754 27.6835 17.0548C27.7044 17.0343 27.7165 17.0063 27.717 16.9769C27.7175 16.9476 27.7065 16.9192 27.6863 16.8979C27.6661 16.8766 27.6383 16.864 27.609 16.863H27.601ZM20.351 17.426C20.3217 17.427 20.2939 17.4396 20.2737 17.4609C20.2535 17.4822 20.2425 17.5106 20.243 17.5399C20.2435 17.5693 20.2556 17.5973 20.2765 17.6178C20.2975 17.6384 20.3256 17.6499 20.355 17.6499C20.3844 17.6499 20.4125 17.6384 20.4335 17.6178C20.4544 17.5973 20.4665 17.5693 20.467 17.5399C20.4675 17.5106 20.4565 17.4822 20.4363 17.4609C20.4161 17.4396 20.3883 17.427 20.359 17.426H20.351ZM27.601 17.426C27.5717 17.427 27.5439 17.4396 27.5237 17.4609C27.5035 17.4822 27.4925 17.5106 27.493 17.5399C27.4935 17.5693 27.5056 17.5973 27.5265 17.6178C27.5475 17.6384 27.5756 17.6499 27.605 17.6499C27.6344 17.6499 27.6625 17.6384 27.6835 17.6178C27.7044 17.5973 27.7165 17.5693 27.717 17.5399C27.7175 17.5106 27.7065 17.4822 27.6863 17.4609C27.6661 17.4396 27.6383 17.427 27.609 17.426H27.601ZM20.351 17.988C20.3362 17.9889 20.3218 17.9927 20.3085 17.9992C20.2952 18.0057 20.2833 18.0148 20.2735 18.0259C20.2637 18.037 20.2562 18.0499 20.2514 18.0639C20.2466 18.0779 20.2446 18.0927 20.2455 18.1075C20.2464 18.1223 20.2502 18.1367 20.2567 18.15C20.2632 18.1633 20.2723 18.1752 20.2834 18.185C20.2945 18.1948 20.3074 18.2023 20.3214 18.2071C20.3354 18.2119 20.3502 18.2139 20.365 18.213C20.3948 18.2111 20.4227 18.1975 20.4425 18.1751C20.4623 18.1527 20.4724 18.1233 20.4705 18.0935C20.4686 18.0637 20.455 18.0358 20.4326 18.016C20.4102 17.9962 20.3808 17.9861 20.351 17.988ZM27.601 17.988C27.5862 17.9889 27.5718 17.9927 27.5585 17.9992C27.5452 18.0057 27.5333 18.0148 27.5235 18.0259C27.5137 18.037 27.5062 18.0499 27.5014 18.0639C27.4966 18.0779 27.4946 18.0927 27.4955 18.1075C27.4964 18.1223 27.5002 18.1367 27.5067 18.15C27.5132 18.1633 27.5223 18.1752 27.5334 18.185C27.5445 18.1948 27.5574 18.2023 27.5714 18.2071C27.5854 18.2119 27.6002 18.2139 27.615 18.213C27.6448 18.2111 27.6727 18.1975 27.6925 18.1751C27.7123 18.1527 27.7224 18.1233 27.7205 18.0935C27.7186 18.0637 27.705 18.0358 27.6826 18.016C27.6602 17.9962 27.6308 17.9861 27.601 17.988ZM24.877 18.221C24.7524 18.2229 24.6294 18.2494 24.5151 18.299C24.4008 18.3486 24.2975 18.4203 24.211 18.51L22.402 20.367C22.2382 20.5491 22.1512 20.7875 22.1593 21.0322C22.1674 21.277 22.2699 21.5091 22.4453 21.68C22.6207 21.8509 22.8554 21.9473 23.1003 21.949C23.3452 21.9506 23.5813 21.8575 23.759 21.689L25.568 19.829C25.655 19.74 25.7235 19.6347 25.7697 19.5192C25.8159 19.4037 25.8388 19.2802 25.8371 19.1558C25.8354 19.0314 25.8092 18.9085 25.7599 18.7943C25.7107 18.68 25.6393 18.5766 25.55 18.49C25.4611 18.4029 25.3559 18.3342 25.2404 18.2879C25.1249 18.2415 25.0014 18.2185 24.877 18.22V18.221ZM20.351 18.551C20.3363 18.5519 20.3219 18.5557 20.3087 18.5622C20.2954 18.5687 20.2836 18.5777 20.2739 18.5888C20.2641 18.5998 20.2566 18.6127 20.2518 18.6266C20.2471 18.6405 20.2451 18.6553 20.246 18.67C20.2469 18.6847 20.2507 18.6991 20.2572 18.7123C20.2637 18.7256 20.2727 18.7374 20.2838 18.7471C20.2948 18.7569 20.3077 18.7644 20.3216 18.7692C20.3355 18.7739 20.3503 18.7759 20.365 18.775C20.3947 18.7731 20.4225 18.7596 20.4421 18.7372C20.4618 18.7149 20.4719 18.6857 20.47 18.656C20.4681 18.6263 20.4546 18.5985 20.4322 18.5789C20.4099 18.5592 20.3807 18.5491 20.351 18.551ZM27.601 18.551C27.5863 18.5519 27.5719 18.5557 27.5587 18.5622C27.5454 18.5687 27.5336 18.5777 27.5239 18.5888C27.5141 18.5998 27.5066 18.6127 27.5018 18.6266C27.4971 18.6405 27.4951 18.6553 27.496 18.67C27.4969 18.6847 27.5007 18.6991 27.5072 18.7123C27.5137 18.7256 27.5227 18.7374 27.5338 18.7471C27.5448 18.7569 27.5577 18.7644 27.5716 18.7692C27.5855 18.7739 27.6003 18.7759 27.615 18.775C27.6447 18.7731 27.6725 18.7596 27.6921 18.7372C27.7118 18.7149 27.7219 18.6857 27.72 18.656C27.7181 18.6263 27.7046 18.5985 27.6822 18.5789C27.6599 18.5592 27.6307 18.5491 27.601 18.551ZM20.339 19.113C20.3127 19.1171 20.2888 19.1306 20.2717 19.151C20.2546 19.1714 20.2454 19.1974 20.246 19.224C20.2456 19.2462 20.2518 19.268 20.2638 19.2867C20.2758 19.3053 20.2931 19.32 20.3135 19.3288C20.3339 19.3376 20.3564 19.3402 20.3782 19.3361C20.4001 19.3321 20.4202 19.3217 20.4361 19.3062C20.452 19.2908 20.463 19.2709 20.4676 19.2492C20.4721 19.2275 20.4702 19.2049 20.4619 19.1843C20.4537 19.1637 20.4395 19.146 20.4212 19.1335C20.4028 19.121 20.3812 19.1142 20.359 19.114H20.339V19.113ZM27.589 19.113C27.5627 19.1171 27.5388 19.1306 27.5217 19.151C27.5046 19.1714 27.4954 19.1974 27.496 19.224C27.4956 19.2462 27.5018 19.268 27.5138 19.2867C27.5258 19.3053 27.5431 19.32 27.5635 19.3288C27.5839 19.3376 27.6064 19.3402 27.6282 19.3361C27.6501 19.3321 27.6702 19.3217 27.6861 19.3062C27.702 19.2908 27.713 19.2709 27.7176 19.2492C27.7221 19.2275 27.7202 19.2049 27.7119 19.1843C27.7037 19.1637 27.6895 19.146 27.6712 19.1335C27.6528 19.121 27.6312 19.1142 27.609 19.114H27.589V19.113ZM20.361 19.673C20.3462 19.6729 20.3316 19.6756 20.3179 19.6812C20.3042 19.6867 20.2917 19.6949 20.2812 19.7052C20.2706 19.7156 20.2622 19.7279 20.2564 19.7415C20.2507 19.7551 20.2476 19.7697 20.2475 19.7845C20.2474 19.7993 20.2501 19.8139 20.2557 19.8276C20.2612 19.8413 20.2694 19.8538 20.2797 19.8643C20.2901 19.8749 20.3024 19.8833 20.316 19.8891C20.3296 19.8948 20.3442 19.8979 20.359 19.898C20.3737 19.8981 20.3883 19.8954 20.4019 19.8899C20.4156 19.8843 20.428 19.8762 20.4385 19.8659C20.449 19.8556 20.4573 19.8433 20.4631 19.8298C20.4688 19.8162 20.4719 19.8017 20.472 19.787C20.4721 19.7723 20.4694 19.7577 20.4639 19.7441C20.4583 19.7304 20.4502 19.718 20.4399 19.7075C20.4296 19.697 20.4173 19.6887 20.4038 19.6829C20.3902 19.6772 20.3757 19.6741 20.361 19.674V19.673ZM27.611 19.673C27.5962 19.6729 27.5816 19.6756 27.5679 19.6812C27.5542 19.6867 27.5417 19.6949 27.5312 19.7052C27.5206 19.7156 27.5122 19.7279 27.5064 19.7415C27.5007 19.7551 27.4976 19.7697 27.4975 19.7845C27.4974 19.7993 27.5001 19.8139 27.5057 19.8276C27.5112 19.8413 27.5194 19.8538 27.5297 19.8643C27.5401 19.8749 27.5524 19.8833 27.566 19.8891C27.5796 19.8948 27.5942 19.8979 27.609 19.898C27.6237 19.8981 27.6383 19.8954 27.6519 19.8899C27.6656 19.8843 27.678 19.8762 27.6885 19.8659C27.699 19.8556 27.7073 19.8433 27.7131 19.8298C27.7188 19.8162 27.7219 19.8017 27.722 19.787C27.7221 19.7723 27.7194 19.7577 27.7139 19.7441C27.7083 19.7304 27.7002 19.718 27.6899 19.7075C27.6796 19.697 27.6673 19.6887 27.6538 19.6829C27.6402 19.6772 27.6257 19.6741 27.611 19.674V19.673ZM20.351 20.236C20.3224 20.2378 20.2955 20.2505 20.2759 20.2715C20.2564 20.2926 20.2457 20.3203 20.246 20.349C20.2462 20.3714 20.2532 20.3932 20.266 20.4116C20.2787 20.43 20.2967 20.4442 20.3176 20.4522C20.3385 20.4603 20.3613 20.462 20.3832 20.4569C20.405 20.4519 20.4248 20.4404 20.44 20.424C20.4553 20.4076 20.4653 20.387 20.4687 20.3649C20.4721 20.3427 20.4688 20.3201 20.4592 20.2998C20.4496 20.2796 20.4342 20.2627 20.4149 20.2513C20.3956 20.2399 20.3734 20.2346 20.351 20.236ZM27.601 20.236C27.5724 20.2378 27.5455 20.2505 27.5259 20.2715C27.5064 20.2926 27.4957 20.3203 27.496 20.349C27.4962 20.3714 27.5032 20.3932 27.516 20.4116C27.5287 20.43 27.5467 20.4442 27.5676 20.4522C27.5885 20.4603 27.6113 20.462 27.6332 20.4569C27.655 20.4519 27.6748 20.4404 27.69 20.424C27.7053 20.4076 27.7153 20.387 27.7187 20.3649C27.7221 20.3427 27.7188 20.3201 27.7092 20.2998C27.6996 20.2796 27.6842 20.2627 27.6649 20.2513C27.6456 20.2399 27.6234 20.2346 27.601 20.236ZM17.877 20.322C17.7523 20.3243 17.6293 20.3512 17.515 20.4011C17.4007 20.4511 17.2974 20.5231 17.211 20.613L15.402 22.471C15.3149 22.56 15.2462 22.6653 15.1999 22.781C15.1537 22.8966 15.1307 23.0202 15.1324 23.1447C15.1341 23.2693 15.1603 23.3922 15.2097 23.5066C15.2591 23.6209 15.3305 23.7244 15.42 23.811C15.6003 23.986 15.8425 24.0823 16.0937 24.0789C16.3449 24.0756 16.5845 23.9727 16.76 23.793L18.568 21.933C18.6551 21.844 18.7238 21.7387 18.7701 21.623C18.8163 21.5074 18.8393 21.3838 18.8376 21.2593C18.8359 21.1347 18.8097 21.0118 18.7603 20.8974C18.7109 20.7831 18.6395 20.6796 18.55 20.593C18.461 20.5061 18.3558 20.4376 18.2403 20.3914C18.1248 20.3453 18.0014 20.3223 17.877 20.324V20.322ZM31.877 20.322C31.7523 20.3243 31.6293 20.3512 31.515 20.4011C31.4007 20.4511 31.2974 20.5231 31.211 20.613L29.402 22.471C29.3149 22.56 29.2462 22.6653 29.1999 22.781C29.1537 22.8966 29.1307 23.0202 29.1324 23.1447C29.1341 23.2693 29.1603 23.3922 29.2097 23.5066C29.2591 23.6209 29.3305 23.7244 29.42 23.811C29.6003 23.986 29.8425 24.0823 30.0937 24.0789C30.3449 24.0756 30.5845 23.9727 30.76 23.793L32.568 21.933C32.6551 21.844 32.7238 21.7387 32.7701 21.623C32.8163 21.5074 32.8393 21.3838 32.8376 21.2593C32.8359 21.1347 32.8097 21.0118 32.7603 20.8974C32.7109 20.7831 32.6395 20.6796 32.55 20.593C32.461 20.5061 32.3558 20.4376 32.2403 20.3914C32.1248 20.3453 32.0014 20.3223 31.877 20.324V20.322ZM20.351 20.799C20.3224 20.8008 20.2955 20.8135 20.2759 20.8345C20.2564 20.8556 20.2457 20.8833 20.246 20.912C20.246 20.974 20.296 21.024 20.359 21.023C20.3888 21.0219 20.417 21.0091 20.4374 20.9872C20.4577 20.9654 20.4686 20.9363 20.4675 20.9065C20.4664 20.8767 20.4536 20.8485 20.4317 20.8281C20.4099 20.8078 20.3808 20.7969 20.351 20.798V20.799ZM27.601 20.799C27.5724 20.8008 27.5455 20.8135 27.5259 20.8345C27.5064 20.8556 27.4957 20.8833 27.496 20.912C27.496 20.974 27.546 21.024 27.609 21.023C27.6388 21.0219 27.667 21.0091 27.6874 20.9872C27.7077 20.9654 27.7186 20.9363 27.7175 20.9065C27.7164 20.8767 27.7036 20.8485 27.6817 20.8281C27.6599 20.8078 27.6308 20.7969 27.601 20.798V20.799ZM20.351 21.361C20.3224 21.3628 20.2955 21.3755 20.2759 21.3965C20.2564 21.4176 20.2457 21.4453 20.246 21.474C20.246 21.537 20.296 21.587 20.359 21.586C20.3888 21.5849 20.417 21.5721 20.4374 21.5502C20.4577 21.5284 20.4686 21.4993 20.4675 21.4695C20.4664 21.4397 20.4536 21.4115 20.4317 21.3911C20.4099 21.3708 20.3808 21.3599 20.351 21.361ZM27.601 21.361C27.5724 21.3628 27.5455 21.3755 27.5259 21.3965C27.5064 21.4176 27.4957 21.4453 27.496 21.474C27.496 21.537 27.546 21.587 27.609 21.586C27.6388 21.5849 27.667 21.5721 27.6874 21.5502C27.7077 21.5284 27.7186 21.4993 27.7175 21.4695C27.7164 21.4397 27.7036 21.4115 27.6817 21.3911C27.6599 21.3708 27.6308 21.3599 27.601 21.361ZM20.351 21.924C20.3363 21.9249 20.3219 21.9287 20.3087 21.9352C20.2954 21.9417 20.2836 21.9507 20.2739 21.9618C20.2641 21.9728 20.2566 21.9857 20.2518 21.9996C20.2471 22.0135 20.2451 22.0283 20.246 22.043C20.2469 22.0577 20.2507 22.0721 20.2572 22.0853C20.2637 22.0986 20.2727 22.1104 20.2838 22.1201C20.2948 22.1299 20.3077 22.1374 20.3216 22.1422C20.3355 22.1469 20.3503 22.1489 20.365 22.148C20.3947 22.1461 20.4225 22.1326 20.4421 22.1102C20.4618 22.0879 20.4719 22.0587 20.47 22.029C20.4681 21.9993 20.4546 21.9715 20.4322 21.9519C20.4099 21.9322 20.3807 21.9221 20.351 21.924ZM27.601 21.924C27.5713 21.9259 27.5435 21.9394 27.5239 21.9618C27.5042 21.9841 27.4941 22.0133 27.496 22.043C27.4979 22.0727 27.5114 22.1005 27.5338 22.1201C27.5561 22.1398 27.5853 22.1499 27.615 22.148C27.6297 22.1471 27.6441 22.1433 27.6573 22.1368C27.6706 22.1303 27.6824 22.1213 27.6921 22.1102C27.7019 22.0992 27.7094 22.0863 27.7142 22.0724C27.7189 22.0585 27.7209 22.0437 27.72 22.029C27.7191 22.0143 27.7153 21.9999 27.7088 21.9867C27.7023 21.9734 27.6933 21.9616 27.6822 21.9519C27.6712 21.9421 27.6583 21.9346 27.6444 21.9298C27.6305 21.9251 27.6157 21.9231 27.601 21.924ZM24.877 22.219C24.7524 22.2209 24.6294 22.2474 24.5151 22.297C24.4008 22.3466 24.2975 22.4183 24.211 22.508L22.402 24.367C22.2382 24.5491 22.1512 24.7875 22.1593 25.0322C22.1674 25.277 22.2699 25.5091 22.4453 25.68C22.6207 25.8509 22.8554 25.9473 23.1003 25.949C23.3452 25.9506 23.5813 25.8575 23.759 25.689L25.568 23.829C25.655 23.74 25.7235 23.6347 25.7697 23.5192C25.8159 23.4037 25.8388 23.2802 25.8371 23.1558C25.8354 23.0314 25.8092 22.9085 25.7599 22.7943C25.7107 22.68 25.6393 22.5766 25.55 22.49C25.4611 22.4029 25.3559 22.3342 25.2404 22.2879C25.1249 22.2415 25.0014 22.2185 24.877 22.22V22.219ZM20.351 22.486C20.3362 22.4869 20.3218 22.4907 20.3085 22.4972C20.2952 22.5037 20.2833 22.5128 20.2735 22.5239C20.2637 22.535 20.2562 22.5479 20.2514 22.5619C20.2466 22.5759 20.2446 22.5907 20.2455 22.6055C20.2464 22.6203 20.2502 22.6347 20.2567 22.648C20.2632 22.6613 20.2723 22.6732 20.2834 22.683C20.2945 22.6928 20.3074 22.7003 20.3214 22.7051C20.3354 22.7099 20.3502 22.7119 20.365 22.711C20.3948 22.7091 20.4227 22.6955 20.4425 22.6731C20.4623 22.6507 20.4724 22.6213 20.4705 22.5915C20.4686 22.5617 20.455 22.5338 20.4326 22.514C20.4102 22.4942 20.3808 22.4841 20.351 22.486ZM27.601 22.486C27.5862 22.4869 27.5718 22.4907 27.5585 22.4972C27.5452 22.5037 27.5333 22.5128 27.5235 22.5239C27.5137 22.535 27.5062 22.5479 27.5014 22.5619C27.4966 22.5759 27.4946 22.5907 27.4955 22.6055C27.4964 22.6203 27.5002 22.6347 27.5067 22.648C27.5132 22.6613 27.5223 22.6732 27.5334 22.683C27.5445 22.6928 27.5574 22.7003 27.5714 22.7051C27.5854 22.7099 27.6002 22.7119 27.615 22.711C27.6448 22.7091 27.6727 22.6955 27.6925 22.6731C27.7123 22.6507 27.7224 22.6213 27.7205 22.5915C27.7186 22.5617 27.705 22.5338 27.6826 22.514C27.6602 22.4942 27.6308 22.4841 27.601 22.486ZM20.351 23.049C20.3363 23.0499 20.3219 23.0537 20.3087 23.0602C20.2954 23.0667 20.2836 23.0757 20.2739 23.0868C20.2641 23.0978 20.2566 23.1107 20.2518 23.1246C20.2471 23.1385 20.2451 23.1533 20.246 23.168C20.2469 23.1827 20.2507 23.1971 20.2572 23.2103C20.2637 23.2236 20.2727 23.2354 20.2838 23.2451C20.2948 23.2549 20.3077 23.2624 20.3216 23.2672C20.3355 23.2719 20.3503 23.2739 20.365 23.273C20.3947 23.2711 20.4225 23.2576 20.4421 23.2352C20.4618 23.2129 20.4719 23.1837 20.47 23.154C20.4681 23.1243 20.4546 23.0965 20.4322 23.0769C20.4099 23.0572 20.3807 23.0471 20.351 23.049ZM27.601 23.049C27.5713 23.0509 27.5435 23.0644 27.5239 23.0868C27.5042 23.1091 27.4941 23.1383 27.496 23.168C27.4979 23.1977 27.5114 23.2255 27.5338 23.2451C27.5561 23.2648 27.5853 23.2749 27.615 23.273C27.6297 23.2721 27.6441 23.2683 27.6573 23.2618C27.6706 23.2553 27.6824 23.2463 27.6921 23.2352C27.7019 23.2242 27.7094 23.2113 27.7142 23.1974C27.7189 23.1835 27.7209 23.1687 27.72 23.154C27.7191 23.1393 27.7153 23.1249 27.7088 23.1117C27.7023 23.0984 27.6933 23.0866 27.6822 23.0769C27.6712 23.0671 27.6583 23.0596 27.6444 23.0548C27.6305 23.0501 27.6157 23.0481 27.601 23.049ZM20.339 23.611C20.3128 23.6153 20.289 23.6289 20.2719 23.6492C20.2548 23.6696 20.2456 23.6954 20.246 23.722C20.2456 23.7442 20.2518 23.766 20.2638 23.7847C20.2758 23.8033 20.2931 23.818 20.3135 23.8268C20.3339 23.8356 20.3564 23.8382 20.3782 23.8341C20.4001 23.8301 20.4202 23.8197 20.4361 23.8042C20.452 23.7888 20.463 23.7689 20.4676 23.7472C20.4721 23.7255 20.4702 23.7029 20.4619 23.6823C20.4537 23.6617 20.4395 23.644 20.4212 23.6315C20.4028 23.619 20.3812 23.6122 20.359 23.612H20.339V23.611ZM27.589 23.611C27.5628 23.6153 27.539 23.6289 27.5219 23.6492C27.5048 23.6696 27.4956 23.6954 27.496 23.722C27.4956 23.7442 27.5018 23.766 27.5138 23.7847C27.5258 23.8033 27.5431 23.818 27.5635 23.8268C27.5839 23.8356 27.6064 23.8382 27.6282 23.8341C27.6501 23.8301 27.6702 23.8197 27.6861 23.8042C27.702 23.7888 27.713 23.7689 27.7176 23.7472C27.7221 23.7255 27.7202 23.7029 27.7119 23.6823C27.7037 23.6617 27.6895 23.644 27.6712 23.6315C27.6528 23.619 27.6312 23.6122 27.609 23.612H27.589V23.611ZM17.877 24.117C17.7524 24.1191 17.6294 24.1458 17.5151 24.1955C17.4008 24.2453 17.2974 24.3172 17.211 24.407L15.402 26.264C15.3149 26.353 15.2462 26.4583 15.1999 26.574C15.1537 26.6896 15.1307 26.8132 15.1324 26.9377C15.1341 27.0623 15.1603 27.1852 15.2097 27.2996C15.2591 27.4139 15.3305 27.5174 15.42 27.604C15.6003 27.779 15.8425 27.8753 16.0937 27.8719C16.3449 27.8686 16.5845 27.7657 16.76 27.586L18.568 25.726C18.6551 25.637 18.7238 25.5317 18.7701 25.416C18.8163 25.3004 18.8393 25.1768 18.8376 25.0523C18.8359 24.9277 18.8097 24.8048 18.7603 24.6904C18.7109 24.5761 18.6395 24.4726 18.55 24.386C18.461 24.2991 18.3558 24.2306 18.2403 24.1844C18.1248 24.1383 18.0014 24.1153 17.877 24.117ZM31.877 24.117C31.7524 24.1191 31.6294 24.1458 31.5151 24.1955C31.4008 24.2453 31.2974 24.3172 31.211 24.407L29.402 26.264C29.3149 26.353 29.2462 26.4583 29.1999 26.574C29.1537 26.6896 29.1307 26.8132 29.1324 26.9377C29.1341 27.0623 29.1603 27.1852 29.2097 27.2996C29.2591 27.4139 29.3305 27.5174 29.42 27.604C29.6003 27.779 29.8425 27.8753 30.0937 27.8719C30.3449 27.8686 30.5845 27.7657 30.76 27.586L32.568 25.726C32.6551 25.637 32.7238 25.5317 32.7701 25.416C32.8163 25.3004 32.8393 25.1768 32.8376 25.0523C32.8359 24.9277 32.8097 24.8048 32.7603 24.6904C32.7109 24.5761 32.6395 24.4726 32.55 24.386C32.461 24.2991 32.3558 24.2306 32.2403 24.1844C32.1248 24.1383 32.0014 24.1153 31.877 24.117ZM20.339 24.174C20.3127 24.1781 20.2888 24.1916 20.2717 24.212C20.2546 24.2325 20.2454 24.2584 20.246 24.285C20.246 24.347 20.296 24.397 20.359 24.396C20.42 24.396 20.469 24.346 20.47 24.285C20.47 24.224 20.42 24.175 20.359 24.174H20.339ZM27.589 24.174C27.5627 24.1781 27.5388 24.1916 27.5217 24.212C27.5046 24.2325 27.4954 24.2584 27.496 24.285C27.496 24.347 27.546 24.397 27.609 24.396C27.67 24.396 27.719 24.346 27.72 24.285C27.72 24.224 27.67 24.175 27.609 24.174H27.589ZM20.351 24.734C20.3217 24.735 20.2939 24.7476 20.2737 24.7689C20.2535 24.7902 20.2425 24.8186 20.243 24.8479C20.2435 24.8773 20.2556 24.9053 20.2765 24.9258C20.2975 24.9464 20.3256 24.9579 20.355 24.9579C20.3844 24.9579 20.4125 24.9464 20.4335 24.9258C20.4544 24.9053 20.4665 24.8773 20.467 24.8479C20.4675 24.8186 20.4565 24.7902 20.4363 24.7689C20.4161 24.7476 20.3883 24.735 20.359 24.734H20.351ZM27.601 24.734C27.5717 24.735 27.5439 24.7476 27.5237 24.7689C27.5035 24.7902 27.4925 24.8186 27.493 24.8479C27.4935 24.8773 27.5056 24.9053 27.5265 24.9258C27.5475 24.9464 27.5756 24.9579 27.605 24.9579C27.6344 24.9579 27.6625 24.9464 27.6835 24.9258C27.7044 24.9053 27.7165 24.8773 27.717 24.8479C27.7175 24.8186 27.7065 24.7902 27.6863 24.7689C27.6661 24.7476 27.6383 24.735 27.609 24.734H27.601ZM20.351 25.297C20.3224 25.2988 20.2955 25.3115 20.2759 25.3325C20.2564 25.3536 20.2457 25.3813 20.246 25.41C20.246 25.472 20.296 25.522 20.359 25.521C20.42 25.521 20.469 25.471 20.47 25.41C20.4701 25.3953 20.4674 25.3807 20.4619 25.3671C20.4564 25.3534 20.4482 25.341 20.4379 25.3305C20.4276 25.32 20.4153 25.3117 20.4018 25.3059C20.3882 25.3002 20.3737 25.2971 20.359 25.297H20.351ZM27.601 25.297C27.5724 25.2988 27.5455 25.3115 27.5259 25.3325C27.5064 25.3536 27.4957 25.3813 27.496 25.41C27.496 25.472 27.546 25.522 27.609 25.521C27.67 25.521 27.719 25.471 27.72 25.41C27.7201 25.3953 27.7174 25.3807 27.7119 25.3671C27.7064 25.3534 27.6982 25.341 27.6879 25.3305C27.6776 25.32 27.6653 25.3117 27.6518 25.3059C27.6382 25.3002 27.6237 25.2971 27.609 25.297H27.601ZM20.351 25.859C20.3222 25.8608 20.2952 25.8737 20.2756 25.8949C20.256 25.9161 20.2454 25.9441 20.246 25.973C20.246 26.035 20.296 26.085 20.359 26.083C20.42 26.083 20.469 26.035 20.47 25.973C20.4703 25.9575 20.4674 25.9421 20.4615 25.9278C20.4555 25.9135 20.4467 25.9006 20.4355 25.8899C20.4243 25.8792 20.411 25.8709 20.3965 25.8656C20.3819 25.8603 20.3665 25.858 20.351 25.859ZM27.601 25.859C27.5722 25.8608 27.5452 25.8737 27.5256 25.8949C27.506 25.9161 27.4954 25.9441 27.496 25.973C27.496 26.035 27.546 26.085 27.609 26.083C27.67 26.083 27.719 26.035 27.72 25.973C27.7203 25.9575 27.7174 25.9421 27.7115 25.9278C27.7055 25.9135 27.6967 25.9006 27.6855 25.8899C27.6743 25.8792 27.661 25.8709 27.6465 25.8656C27.6319 25.8603 27.6165 25.858 27.601 25.859ZM24.877 26.221C24.7524 26.2229 24.6294 26.2494 24.5151 26.299C24.4008 26.3486 24.2975 26.4203 24.211 26.51L22.402 28.367C22.2382 28.5491 22.1512 28.7875 22.1593 29.0322C22.1674 29.277 22.2699 29.5091 22.4453 29.68C22.6207 29.8509 22.8554 29.9473 23.1003 29.949C23.3452 29.9506 23.5813 29.8575 23.759 29.689L25.568 27.829C25.655 27.74 25.7235 27.6347 25.7697 27.5192C25.8159 27.4037 25.8388 27.2802 25.8371 27.1558C25.8354 27.0314 25.8092 26.9085 25.7599 26.7943C25.7107 26.68 25.6393 26.5766 25.55 26.49C25.4611 26.4029 25.3559 26.3342 25.2404 26.2879C25.1249 26.2415 25.0014 26.2185 24.877 26.22V26.221ZM20.351 26.421C20.3362 26.4215 20.3217 26.425 20.3083 26.4311C20.2948 26.4372 20.2827 26.446 20.2726 26.4568C20.2523 26.4786 20.2414 26.5077 20.2425 26.5375C20.2436 26.5673 20.2564 26.5955 20.2783 26.6159C20.3001 26.6362 20.3292 26.6471 20.359 26.646C20.3887 26.646 20.4172 26.6342 20.4382 26.6132C20.4592 26.5922 20.471 26.5637 20.471 26.534C20.471 26.5043 20.4592 26.4758 20.4382 26.4548C20.4172 26.4338 20.3887 26.422 20.359 26.422C20.3563 26.4219 20.3537 26.4219 20.351 26.422V26.421ZM27.601 26.421C27.5862 26.4215 27.5717 26.425 27.5583 26.4311C27.5448 26.4372 27.5327 26.446 27.5226 26.4568C27.5023 26.4786 27.4914 26.5077 27.4925 26.5375C27.4936 26.5673 27.5064 26.5955 27.5283 26.6159C27.5501 26.6362 27.5792 26.6471 27.609 26.646C27.6387 26.646 27.6672 26.6342 27.6882 26.6132C27.7092 26.5922 27.721 26.5637 27.721 26.534C27.721 26.5043 27.7092 26.4758 27.6882 26.4548C27.6672 26.4338 27.6387 26.422 27.609 26.422C27.6063 26.4219 27.6037 26.4219 27.601 26.422V26.421ZM20.351 26.984C20.3217 26.985 20.2939 26.9976 20.2737 27.0189C20.2535 27.0402 20.2425 27.0686 20.243 27.0979C20.2435 27.1273 20.2556 27.1553 20.2765 27.1758C20.2975 27.1964 20.3256 27.2079 20.355 27.2079C20.3844 27.2079 20.4125 27.1964 20.4335 27.1758C20.4544 27.1553 20.4665 27.1273 20.467 27.0979C20.4675 27.0686 20.4565 27.0402 20.4363 27.0189C20.4161 26.9976 20.3883 26.985 20.359 26.984H20.351ZM27.601 26.984C27.5717 26.985 27.5439 26.9976 27.5237 27.0189C27.5035 27.0402 27.4925 27.0686 27.493 27.0979C27.4935 27.1273 27.5056 27.1553 27.5265 27.1758C27.5475 27.1964 27.5756 27.2079 27.605 27.2079C27.6344 27.2079 27.6625 27.1964 27.6835 27.1758C27.7044 27.1553 27.7165 27.1273 27.717 27.0979C27.7175 27.0686 27.7065 27.0402 27.6863 27.0189C27.6661 26.9976 27.6383 26.985 27.609 26.984H27.601ZM20.351 27.547C20.3217 27.548 20.2939 27.5606 20.2737 27.5819C20.2535 27.6032 20.2425 27.6316 20.243 27.6609C20.2435 27.6903 20.2556 27.7183 20.2765 27.7388C20.2975 27.7594 20.3256 27.7709 20.355 27.7709C20.3844 27.7709 20.4125 27.7594 20.4335 27.7388C20.4544 27.7183 20.4665 27.6903 20.467 27.6609C20.4675 27.6316 20.4565 27.6032 20.4363 27.5819C20.4161 27.5606 20.3883 27.548 20.359 27.547H20.351ZM27.601 27.547C27.5717 27.548 27.5439 27.5606 27.5237 27.5819C27.5035 27.6032 27.4925 27.6316 27.493 27.6609C27.4935 27.6903 27.5056 27.7183 27.5265 27.7388C27.5475 27.7594 27.5756 27.7709 27.605 27.7709C27.6344 27.7709 27.6625 27.7594 27.6835 27.7388C27.7044 27.7183 27.7165 27.6903 27.717 27.6609C27.7175 27.6316 27.7065 27.6032 27.6863 27.5819C27.6661 27.5606 27.6383 27.548 27.609 27.547H27.601ZM17.877 27.91C17.7523 27.912 17.6293 27.9387 17.515 27.9885C17.4007 28.0382 17.2974 28.1101 17.211 28.2L15.402 30.057C15.3149 30.146 15.2462 30.2513 15.1999 30.367C15.1537 30.4826 15.1307 30.6062 15.1324 30.7307C15.1341 30.8553 15.1603 30.9782 15.2097 31.0926C15.2591 31.2069 15.3305 31.3104 15.42 31.397C15.6003 31.572 15.8425 31.6683 16.0937 31.6649C16.3449 31.6616 16.5845 31.5587 16.76 31.379L18.568 29.519C18.6551 29.43 18.7238 29.3247 18.7701 29.209C18.8163 29.0934 18.8393 28.9698 18.8376 28.8453C18.8359 28.7207 18.8097 28.5978 18.7603 28.4834C18.7109 28.3691 18.6395 28.2656 18.55 28.179C18.461 28.0921 18.3558 28.0236 18.2403 27.9774C18.1248 27.9313 18.0014 27.9083 17.877 27.91ZM31.877 27.91C31.7523 27.912 31.6293 27.9387 31.515 27.9885C31.4007 28.0382 31.2974 28.1101 31.211 28.2L29.402 30.057C29.3149 30.146 29.2462 30.2513 29.1999 30.367C29.1537 30.4826 29.1307 30.6062 29.1324 30.7307C29.1341 30.8553 29.1603 30.9782 29.2097 31.0926C29.2591 31.2069 29.3305 31.3104 29.42 31.397C29.6003 31.572 29.8425 31.6683 30.0937 31.6649C30.3449 31.6616 30.5845 31.5587 30.76 31.379L32.568 29.519C32.6551 29.43 32.7238 29.3247 32.7701 29.209C32.8163 29.0934 32.8393 28.9698 32.8376 28.8453C32.8359 28.7207 32.8097 28.5978 32.7603 28.4834C32.7109 28.3691 32.6395 28.2656 32.55 28.179C32.461 28.0921 32.3558 28.0236 32.2403 27.9774C32.1248 27.9313 32.0014 27.9083 31.877 27.91ZM20.339 28.11C20.3129 28.1143 20.2893 28.1277 20.2722 28.1479C20.2552 28.168 20.2459 28.1936 20.246 28.22C20.246 28.2498 20.2579 28.2785 20.2789 28.2995C20.3 28.3206 20.3287 28.3325 20.3585 28.3325C20.3883 28.3325 20.417 28.3206 20.438 28.2995C20.4591 28.2785 20.471 28.2498 20.471 28.22C20.47 28.16 20.421 28.11 20.359 28.11H20.339ZM27.589 28.11C27.5629 28.1143 27.5393 28.1277 27.5222 28.1479C27.5052 28.168 27.4959 28.1936 27.496 28.22C27.496 28.2498 27.5079 28.2785 27.5289 28.2995C27.55 28.3206 27.5787 28.3325 27.6085 28.3325C27.6383 28.3325 27.667 28.3206 27.688 28.2995C27.7091 28.2785 27.721 28.2498 27.721 28.22C27.72 28.16 27.671 28.11 27.609 28.11H27.589ZM20.361 28.67C20.3462 28.6699 20.3316 28.6726 20.3179 28.6782C20.3042 28.6837 20.2917 28.6919 20.2812 28.7022C20.2706 28.7126 20.2622 28.7249 20.2564 28.7385C20.2507 28.7521 20.2476 28.7667 20.2475 28.7815C20.2474 28.7963 20.2501 28.8109 20.2557 28.8246C20.2612 28.8383 20.2694 28.8508 20.2797 28.8613C20.2901 28.8719 20.3024 28.8803 20.316 28.8861C20.3296 28.8918 20.3442 28.8949 20.359 28.895C20.3888 28.8953 20.4176 28.8837 20.4388 28.8628C20.4601 28.8418 20.4722 28.8133 20.4725 28.7835C20.4728 28.7537 20.4612 28.7249 20.4403 28.7037C20.4193 28.6824 20.3908 28.6703 20.361 28.67ZM27.611 28.67C27.5962 28.6699 27.5816 28.6726 27.5679 28.6782C27.5542 28.6837 27.5417 28.6919 27.5312 28.7022C27.5206 28.7126 27.5122 28.7249 27.5064 28.7385C27.5007 28.7521 27.4976 28.7667 27.4975 28.7815C27.4974 28.7963 27.5001 28.8109 27.5057 28.8246C27.5112 28.8383 27.5194 28.8508 27.5297 28.8613C27.5401 28.8719 27.5524 28.8803 27.566 28.8861C27.5796 28.8918 27.5942 28.8949 27.609 28.895C27.6388 28.8953 27.6676 28.8837 27.6888 28.8628C27.7101 28.8418 27.7222 28.8133 27.7225 28.7835C27.7228 28.7537 27.7112 28.7249 27.6903 28.7037C27.6693 28.6824 27.6408 28.6703 27.611 28.67ZM20.351 29.232C20.3222 29.2338 20.2952 29.2467 20.2756 29.2679C20.256 29.2891 20.2454 29.3171 20.246 29.346C20.246 29.407 20.296 29.458 20.359 29.456C20.42 29.456 20.469 29.407 20.47 29.346C20.4703 29.3305 20.4674 29.3151 20.4615 29.3008C20.4555 29.2865 20.4467 29.2736 20.4355 29.2629C20.4243 29.2522 20.411 29.2439 20.3965 29.2386C20.3819 29.2333 20.3665 29.231 20.351 29.232ZM27.601 29.232C27.5722 29.2338 27.5452 29.2467 27.5256 29.2679C27.506 29.2891 27.4954 29.3171 27.496 29.346C27.496 29.407 27.546 29.458 27.609 29.456C27.67 29.456 27.719 29.407 27.72 29.346C27.7203 29.3305 27.7174 29.3151 27.7115 29.3008C27.7055 29.2865 27.6967 29.2736 27.6855 29.2629C27.6743 29.2522 27.661 29.2439 27.6465 29.2386C27.6319 29.2333 27.6165 29.231 27.601 29.232ZM20.351 29.795C20.3217 29.796 20.2939 29.8086 20.2737 29.8299C20.2535 29.8512 20.2425 29.8796 20.243 29.9089C20.2435 29.9383 20.2556 29.9663 20.2765 29.9868C20.2975 30.0074 20.3256 30.0189 20.355 30.0189C20.3844 30.0189 20.4125 30.0074 20.4335 29.9868C20.4544 29.9663 20.4665 29.9383 20.467 29.9089C20.4675 29.8796 20.4565 29.8512 20.4363 29.8299C20.4161 29.8086 20.3883 29.796 20.359 29.795C20.3563 29.7949 20.3537 29.7949 20.351 29.795ZM27.601 29.795C27.5717 29.796 27.5439 29.8086 27.5237 29.8299C27.5035 29.8512 27.4925 29.8796 27.493 29.9089C27.4935 29.9383 27.5056 29.9663 27.5265 29.9868C27.5475 30.0074 27.5756 30.0189 27.605 30.0189C27.6344 30.0189 27.6625 30.0074 27.6835 29.9868C27.7044 29.9663 27.7165 29.9383 27.717 29.9089C27.7175 29.8796 27.7065 29.8512 27.6863 29.8299C27.6661 29.8086 27.6383 29.796 27.609 29.795C27.6063 29.7949 27.6037 29.7949 27.601 29.795ZM24.877 30.221C24.7524 30.2229 24.6294 30.2494 24.5151 30.299C24.4008 30.3486 24.2975 30.4203 24.211 30.51L22.402 32.367C22.2382 32.5491 22.1512 32.7875 22.1593 33.0322C22.1674 33.277 22.2699 33.5091 22.4453 33.68C22.6207 33.8509 22.8554 33.9473 23.1003 33.949C23.3452 33.9506 23.5813 33.8575 23.759 33.689L25.568 31.829C25.655 31.74 25.7235 31.6347 25.7697 31.5192C25.8159 31.4037 25.8388 31.2802 25.8371 31.1558C25.8354 31.0314 25.8092 30.9085 25.7599 30.7943C25.7107 30.68 25.6393 30.5766 25.55 30.49C25.4611 30.4029 25.3559 30.3342 25.2404 30.2879C25.1249 30.2415 25.0014 30.2185 24.877 30.22V30.221ZM20.351 30.357C20.3222 30.3588 20.2952 30.3717 20.2756 30.3929C20.256 30.4141 20.2454 30.4421 20.246 30.471C20.246 30.532 20.296 30.583 20.359 30.581C20.3737 30.5805 20.3882 30.5771 20.4016 30.5709C20.4149 30.5648 20.427 30.5561 20.437 30.5454C20.4471 30.5346 20.4549 30.522 20.46 30.5082C20.4651 30.4944 20.4675 30.4797 20.467 30.465C20.4665 30.4503 20.4631 30.4358 20.4569 30.4224C20.4508 30.4091 20.4421 30.397 20.4314 30.387C20.4206 30.3769 20.408 30.3691 20.3942 30.364C20.3804 30.3589 20.3657 30.3565 20.351 30.357ZM27.601 30.357C27.5722 30.3588 27.5452 30.3717 27.5256 30.3929C27.506 30.4141 27.4954 30.4421 27.496 30.471C27.496 30.532 27.546 30.583 27.609 30.581C27.6237 30.5805 27.6382 30.5771 27.6516 30.5709C27.6649 30.5648 27.677 30.5561 27.687 30.5454C27.6971 30.5346 27.7049 30.522 27.71 30.5082C27.7151 30.4944 27.7175 30.4797 27.717 30.465C27.7165 30.4503 27.7131 30.4358 27.7069 30.4224C27.7008 30.4091 27.6921 30.397 27.6814 30.387C27.6706 30.3769 27.658 30.3691 27.6442 30.364C27.6304 30.3589 27.6157 30.3565 27.601 30.357ZM20.351 30.917C20.3224 30.9193 20.2956 30.9323 20.2761 30.9534C20.2567 30.9746 20.2459 31.0023 20.246 31.031C20.2439 31.047 20.2452 31.0632 20.2498 31.0786C20.2545 31.094 20.2624 31.1083 20.273 31.1204C20.2836 31.1325 20.2966 31.1422 20.3113 31.1489C20.326 31.1556 20.3419 31.159 20.358 31.159C20.3741 31.159 20.39 31.1556 20.4047 31.1489C20.4194 31.1422 20.4324 31.1325 20.443 31.1204C20.4536 31.1083 20.4615 31.094 20.4662 31.0786C20.4708 31.0632 20.4721 31.047 20.47 31.031C20.4699 31.0157 20.4667 31.0005 20.4606 30.9865C20.4545 30.9724 20.4456 30.9598 20.4345 30.9492C20.4234 30.9387 20.4103 30.9305 20.3959 30.9251C20.3816 30.9197 20.3663 30.9173 20.351 30.918V30.917ZM27.601 30.917C27.5724 30.9193 27.5456 30.9323 27.5261 30.9534C27.5067 30.9746 27.4959 31.0023 27.496 31.031C27.4939 31.047 27.4952 31.0632 27.4998 31.0786C27.5045 31.094 27.5124 31.1083 27.523 31.1204C27.5336 31.1325 27.5466 31.1422 27.5613 31.1489C27.576 31.1556 27.5919 31.159 27.608 31.159C27.6241 31.159 27.64 31.1556 27.6547 31.1489C27.6694 31.1422 27.6824 31.1325 27.693 31.1204C27.7036 31.1083 27.7115 31.094 27.7162 31.0786C27.7208 31.0632 27.7221 31.047 27.72 31.031C27.7199 31.0157 27.7167 31.0005 27.7106 30.9865C27.7045 30.9724 27.6956 30.9598 27.6845 30.9492C27.6734 30.9387 27.6603 30.9305 27.6459 30.9251C27.6316 30.9197 27.6163 30.9173 27.601 30.918V30.917ZM20.351 31.48C20.3217 31.481 20.2939 31.4936 20.2737 31.5149C20.2535 31.5362 20.2425 31.5646 20.243 31.5939C20.2435 31.6233 20.2556 31.6513 20.2765 31.6718C20.2975 31.6924 20.3256 31.7039 20.355 31.7039C20.3844 31.7039 20.4125 31.6924 20.4335 31.6718C20.4544 31.6513 20.4665 31.6233 20.467 31.5939C20.4675 31.5646 20.4565 31.5362 20.4363 31.5149C20.4161 31.4936 20.3883 31.481 20.359 31.48H20.351ZM27.601 31.48C27.5717 31.481 27.5439 31.4936 27.5237 31.5149C27.5035 31.5362 27.4925 31.5646 27.493 31.5939C27.4935 31.6233 27.5056 31.6513 27.5265 31.6718C27.5475 31.6924 27.5756 31.7039 27.605 31.7039C27.6344 31.7039 27.6625 31.6924 27.6835 31.6718C27.7044 31.6513 27.7165 31.6233 27.717 31.5939C27.7175 31.5646 27.7065 31.5362 27.6863 31.5149C27.6661 31.4936 27.6383 31.481 27.609 31.48H27.601ZM17.877 31.703C17.7524 31.7049 17.6294 31.7314 17.5151 31.781C17.4008 31.8306 17.2975 31.9023 17.211 31.992L15.402 33.849C15.3149 33.938 15.2462 34.0433 15.1999 34.159C15.1537 34.2746 15.1307 34.3982 15.1324 34.5227C15.1341 34.6473 15.1603 34.7702 15.2097 34.8846C15.2591 34.9989 15.3305 35.1024 15.42 35.189C15.6001 35.3641 15.8423 35.4606 16.0935 35.4574C16.3447 35.4543 16.5844 35.3516 16.76 35.172L18.568 33.312C18.6551 33.223 18.7238 33.1177 18.7701 33.002C18.8163 32.8864 18.8393 32.7628 18.8376 32.6383C18.8359 32.5137 18.8097 32.3908 18.7603 32.2764C18.7109 32.1621 18.6395 32.0586 18.55 31.972C18.461 31.8851 18.3558 31.8166 18.2403 31.7704C18.1248 31.7243 18.0014 31.7013 17.877 31.703ZM31.877 31.703C31.7524 31.7049 31.6294 31.7314 31.5151 31.781C31.4008 31.8306 31.2975 31.9023 31.211 31.992L29.402 33.849C29.3149 33.938 29.2462 34.0433 29.1999 34.159C29.1537 34.2746 29.1307 34.3982 29.1324 34.5227C29.1341 34.6473 29.1603 34.7702 29.2097 34.8846C29.2591 34.9989 29.3305 35.1024 29.42 35.189C29.6001 35.3641 29.8423 35.4606 30.0935 35.4574C30.3447 35.4543 30.5844 35.3516 30.76 35.172L32.568 33.312C32.6551 33.223 32.7238 33.1177 32.7701 33.002C32.8163 32.8864 32.8393 32.7628 32.8376 32.6383C32.8359 32.5137 32.8097 32.3908 32.7603 32.2764C32.7109 32.1621 32.6395 32.0586 32.55 31.972C32.461 31.8851 32.3558 31.8166 32.2403 31.7704C32.1248 31.7243 32.0014 31.7013 31.877 31.703ZM20.339 32.043C20.3128 32.0473 20.289 32.0609 20.2719 32.0812C20.2548 32.1016 20.2456 32.1274 20.246 32.154C20.2458 32.1762 20.2522 32.1979 20.2643 32.2164C20.2765 32.2349 20.2938 32.2494 20.3142 32.2581C20.3346 32.2667 20.3571 32.2692 20.3789 32.265C20.4006 32.2609 20.4207 32.2504 20.4365 32.2349C20.4523 32.2194 20.4631 32.1995 20.4676 32.1778C20.4722 32.1561 20.4701 32.1336 20.4618 32.1131C20.4536 32.0925 20.4394 32.0749 20.4211 32.0624C20.4027 32.05 20.3811 32.0432 20.359 32.043H20.339ZM27.589 32.043C27.5628 32.0473 27.539 32.0609 27.5219 32.0812C27.5048 32.1016 27.4956 32.1274 27.496 32.154C27.4958 32.1762 27.5022 32.1979 27.5143 32.2164C27.5265 32.2349 27.5438 32.2494 27.5642 32.2581C27.5846 32.2667 27.6071 32.2692 27.6289 32.265C27.6506 32.2609 27.6707 32.2504 27.6865 32.2349C27.7023 32.2194 27.7131 32.1995 27.7176 32.1778C27.7222 32.1561 27.7201 32.1336 27.7118 32.1131C27.7036 32.0925 27.6894 32.0749 27.6711 32.0624C27.6527 32.05 27.6311 32.0432 27.609 32.043H27.589ZM20.339 32.605C20.3179 32.6084 20.2983 32.6178 20.2823 32.6321C20.2664 32.6463 20.2549 32.6648 20.2491 32.6854C20.2434 32.706 20.2436 32.7277 20.2499 32.7482C20.2561 32.7686 20.268 32.7868 20.2843 32.8007C20.3005 32.8146 20.3204 32.8235 20.3416 32.8265C20.3627 32.8294 20.3843 32.8263 20.4037 32.8173C20.4231 32.8084 20.4396 32.7942 20.4511 32.7762C20.4627 32.7583 20.4689 32.7374 20.469 32.716C20.4685 32.687 20.4567 32.6593 20.4362 32.6388C20.4157 32.6183 20.388 32.6065 20.359 32.606H20.339V32.605ZM27.589 32.605C27.5679 32.6084 27.5483 32.6178 27.5323 32.6321C27.5164 32.6463 27.5049 32.6648 27.4991 32.6854C27.4934 32.706 27.4936 32.7277 27.4999 32.7482C27.5061 32.7686 27.518 32.7868 27.5343 32.8007C27.5505 32.8146 27.5704 32.8235 27.5916 32.8265C27.6127 32.8294 27.6343 32.8263 27.6537 32.8173C27.6731 32.8084 27.6896 32.7942 27.7011 32.7762C27.7127 32.7583 27.7189 32.7374 27.719 32.716C27.7185 32.687 27.7067 32.6593 27.6862 32.6388C27.6657 32.6183 27.638 32.6065 27.609 32.606H27.589V32.605ZM20.361 33.165C20.3459 33.1651 20.3311 33.1682 20.3172 33.1742C20.3034 33.1801 20.2908 33.1887 20.2803 33.1994C20.2698 33.2102 20.2616 33.223 20.256 33.237C20.2505 33.251 20.2477 33.2659 20.248 33.281C20.248 33.343 20.298 33.391 20.361 33.391C20.3755 33.3911 20.3899 33.3884 20.4034 33.3829C20.4169 33.3774 20.4291 33.3694 20.4394 33.3591C20.4497 33.3489 20.4579 33.3367 20.4635 33.3233C20.4691 33.3099 20.472 33.2955 20.472 33.281C20.4723 33.2511 20.4608 33.2223 20.44 33.2008C20.4193 33.1793 20.3909 33.1668 20.361 33.166V33.165ZM27.611 33.165C27.5959 33.1651 27.5811 33.1682 27.5672 33.1742C27.5534 33.1801 27.5408 33.1887 27.5303 33.1994C27.5198 33.2102 27.5116 33.223 27.506 33.237C27.5005 33.251 27.4977 33.2659 27.498 33.281C27.498 33.343 27.548 33.391 27.611 33.391C27.6255 33.3911 27.6399 33.3884 27.6534 33.3829C27.6669 33.3774 27.6791 33.3694 27.6894 33.3591C27.6997 33.3489 27.7079 33.3367 27.7135 33.3233C27.7191 33.3099 27.722 33.2955 27.722 33.281C27.7223 33.2511 27.7108 33.2223 27.69 33.2008C27.6693 33.1793 27.6409 33.1668 27.611 33.166V33.165ZM20.351 33.728C20.3222 33.7298 20.2952 33.7427 20.2756 33.7639C20.256 33.7851 20.2454 33.8131 20.246 33.842C20.246 33.904 20.296 33.954 20.359 33.953C20.3888 33.9519 20.417 33.9391 20.4374 33.9172C20.4577 33.8954 20.4686 33.8663 20.4675 33.8365C20.4664 33.8067 20.4536 33.7785 20.4317 33.7581C20.4099 33.7378 20.3808 33.7269 20.351 33.728ZM27.601 33.728C27.5722 33.7298 27.5452 33.7427 27.5256 33.7639C27.506 33.7851 27.4954 33.8131 27.496 33.842C27.496 33.904 27.546 33.954 27.609 33.953C27.6388 33.9519 27.667 33.9391 27.6874 33.9172C27.7077 33.8954 27.7186 33.8663 27.7175 33.8365C27.7164 33.8067 27.7036 33.7785 27.6817 33.7581C27.6599 33.7378 27.6308 33.7269 27.601 33.728ZM24.877 34.221C24.7524 34.2229 24.6294 34.2494 24.5151 34.299C24.4008 34.3486 24.2975 34.4203 24.211 34.51L22.402 36.367C22.2382 36.5491 22.1512 36.7875 22.1593 37.0322C22.1674 37.277 22.2699 37.5091 22.4453 37.68C22.6207 37.8509 22.8554 37.9473 23.1003 37.949C23.3452 37.9506 23.5813 37.8575 23.759 37.689L25.568 35.829C25.655 35.74 25.7235 35.6347 25.7697 35.5192C25.8159 35.4037 25.8388 35.2802 25.8371 35.1558C25.8354 35.0314 25.8092 34.9085 25.7599 34.7943C25.7107 34.68 25.6393 34.5766 25.55 34.49C25.4611 34.4029 25.3559 34.3342 25.2404 34.2879C25.1249 34.2415 25.0014 34.2185 24.877 34.22V34.221ZM20.351 34.291C20.3217 34.292 20.2939 34.3046 20.2737 34.3259C20.2535 34.3472 20.2425 34.3756 20.243 34.4049C20.2435 34.4343 20.2556 34.4623 20.2765 34.4828C20.2975 34.5034 20.3256 34.5149 20.355 34.5149C20.3844 34.5149 20.4125 34.5034 20.4335 34.4828C20.4544 34.4623 20.4665 34.4343 20.467 34.4049C20.4675 34.3756 20.4565 34.3472 20.4363 34.3259C20.4161 34.3046 20.3883 34.292 20.359 34.291C20.3563 34.2909 20.3537 34.2909 20.351 34.291ZM27.601 34.291C27.5717 34.292 27.5439 34.3046 27.5237 34.3259C27.5035 34.3472 27.4925 34.3756 27.493 34.4049C27.4935 34.4343 27.5056 34.4623 27.5265 34.4828C27.5475 34.5034 27.5756 34.5149 27.605 34.5149C27.6344 34.5149 27.6625 34.5034 27.6835 34.4828C27.7044 34.4623 27.7165 34.4343 27.717 34.4049C27.7175 34.3756 27.7065 34.3472 27.6863 34.3259C27.6661 34.3046 27.6383 34.292 27.609 34.291C27.6063 34.2909 27.6037 34.2909 27.601 34.291ZM20.351 34.853C20.3212 34.8541 20.293 34.8669 20.2726 34.8888C20.2523 34.9106 20.2414 34.9397 20.2425 34.9695C20.2436 34.9993 20.2564 35.0275 20.2783 35.0479C20.3001 35.0682 20.3292 35.0791 20.359 35.078C20.3738 35.0775 20.3883 35.074 20.4017 35.0679C20.4152 35.0618 20.4273 35.053 20.4374 35.0422C20.4475 35.0314 20.4553 35.0187 20.4605 35.0049C20.4656 34.991 20.468 34.9763 20.4675 34.9615C20.467 34.9467 20.4635 34.9322 20.4574 34.9188C20.4513 34.9053 20.4425 34.8932 20.4317 34.8831C20.4209 34.873 20.4082 34.8652 20.3944 34.86C20.3805 34.8549 20.3658 34.8525 20.351 34.853ZM27.601 34.853C27.5712 34.8541 27.543 34.8669 27.5226 34.8888C27.5023 34.9106 27.4914 34.9397 27.4925 34.9695C27.4936 34.9993 27.5064 35.0275 27.5283 35.0479C27.5501 35.0682 27.5792 35.0791 27.609 35.078C27.6238 35.0775 27.6383 35.074 27.6517 35.0679C27.6652 35.0618 27.6773 35.053 27.6874 35.0422C27.6975 35.0314 27.7053 35.0187 27.7105 35.0049C27.7156 34.991 27.718 34.9763 27.7175 34.9615C27.717 34.9467 27.7135 34.9322 27.7074 34.9188C27.7013 34.9053 27.6925 34.8932 27.6817 34.8831C27.6709 34.873 27.6582 34.8652 27.6444 34.86C27.6305 34.8549 27.6158 34.8525 27.601 34.853ZM20.351 35.416C20.3363 35.4169 20.3219 35.4207 20.3087 35.4272C20.2954 35.4337 20.2836 35.4427 20.2739 35.4538C20.2641 35.4648 20.2566 35.4777 20.2518 35.4916C20.2471 35.5055 20.2451 35.5203 20.246 35.535C20.2469 35.5497 20.2507 35.5641 20.2572 35.5773C20.2637 35.5906 20.2727 35.6024 20.2838 35.6121C20.2948 35.6219 20.3077 35.6294 20.3216 35.6342C20.3355 35.6389 20.3503 35.6409 20.365 35.64C20.3947 35.6381 20.4225 35.6246 20.4421 35.6022C20.4618 35.5799 20.4719 35.5507 20.47 35.521C20.4681 35.4913 20.4546 35.4635 20.4322 35.4439C20.4099 35.4242 20.3807 35.4141 20.351 35.416ZM27.601 35.416C27.5863 35.4169 27.5719 35.4207 27.5587 35.4272C27.5454 35.4337 27.5336 35.4427 27.5239 35.4538C27.5141 35.4648 27.5066 35.4777 27.5018 35.4916C27.4971 35.5055 27.4951 35.5203 27.496 35.535C27.4969 35.5497 27.5007 35.5641 27.5072 35.5773C27.5137 35.5906 27.5227 35.6024 27.5338 35.6121C27.5448 35.6219 27.5577 35.6294 27.5716 35.6342C27.5855 35.6389 27.6003 35.6409 27.615 35.64C27.6447 35.6381 27.6725 35.6246 27.6921 35.6022C27.7118 35.5799 27.7219 35.5507 27.72 35.521C27.7181 35.4913 27.7046 35.4635 27.6822 35.4439C27.6599 35.4242 27.6307 35.4141 27.601 35.416ZM31.877 35.494V35.496C31.7524 35.4979 31.6294 35.5244 31.5151 35.574C31.4008 35.6236 31.2975 35.6953 31.211 35.785L29.402 37.642C29.3149 37.731 29.2462 37.8363 29.1999 37.952C29.1537 38.0676 29.1307 38.1912 29.1324 38.3157C29.1341 38.4403 29.1603 38.5632 29.2097 38.6776C29.2591 38.7919 29.3305 38.8954 29.42 38.982C29.6001 39.1571 29.8423 39.2536 30.0935 39.2504C30.3447 39.2473 30.5844 39.1446 30.76 38.965L32.568 37.103C32.6551 37.014 32.7238 36.9087 32.7701 36.793C32.8163 36.6774 32.8393 36.5538 32.8376 36.4293C32.8359 36.3047 32.8097 36.1818 32.7603 36.0674C32.7109 35.9531 32.6395 35.8496 32.55 35.763C32.461 35.6761 32.3558 35.6076 32.2403 35.5614C32.1248 35.5153 32.0014 35.4923 31.877 35.494ZM17.877 35.496C17.7524 35.4979 17.6294 35.5244 17.5151 35.574C17.4008 35.6236 17.2975 35.6953 17.211 35.785L15.402 37.642C15.3149 37.731 15.2462 37.8363 15.1999 37.952C15.1537 38.0676 15.1307 38.1912 15.1324 38.3157C15.1341 38.4403 15.1603 38.5632 15.2097 38.6776C15.2591 38.7919 15.3305 38.8954 15.42 38.982C15.6001 39.1571 15.8423 39.2536 16.0935 39.2504C16.3447 39.2473 16.5844 39.1446 16.76 38.965L18.568 37.105C18.6551 37.016 18.7238 36.9107 18.7701 36.795C18.8163 36.6794 18.8393 36.5558 18.8376 36.4313C18.8359 36.3067 18.8097 36.1838 18.7603 36.0694C18.7109 35.9551 18.6395 35.8516 18.55 35.765C18.461 35.6781 18.3558 35.6096 18.2403 35.5634C18.1248 35.5173 18.0014 35.4943 17.877 35.496ZM20.351 35.978C20.3212 35.9799 20.2933 35.9935 20.2735 36.0159C20.2537 36.0383 20.2436 36.0677 20.2455 36.0975C20.2474 36.1273 20.261 36.1552 20.2834 36.175C20.3058 36.1948 20.3352 36.2049 20.365 36.203C20.3948 36.2011 20.4227 36.1875 20.4425 36.1651C20.4623 36.1427 20.4724 36.1133 20.4705 36.0835C20.4686 36.0537 20.455 36.0258 20.4326 36.006C20.4102 35.9862 20.3808 35.9761 20.351 35.978ZM27.601 35.978C27.5712 35.9799 27.5433 35.9935 27.5235 36.0159C27.5037 36.0383 27.4936 36.0677 27.4955 36.0975C27.4974 36.1273 27.511 36.1552 27.5334 36.175C27.5558 36.1948 27.5852 36.2049 27.615 36.203C27.6448 36.2011 27.6727 36.1875 27.6925 36.1651C27.7123 36.1427 27.7224 36.1133 27.7205 36.0835C27.7186 36.0537 27.705 36.0258 27.6826 36.006C27.6602 35.9862 27.6308 35.9761 27.601 35.978ZM20.351 36.541C20.3363 36.5419 20.3219 36.5457 20.3087 36.5522C20.2954 36.5587 20.2836 36.5677 20.2739 36.5788C20.2641 36.5898 20.2566 36.6027 20.2518 36.6166C20.2471 36.6305 20.2451 36.6453 20.246 36.66C20.2469 36.6747 20.2507 36.6891 20.2572 36.7023C20.2637 36.7156 20.2727 36.7274 20.2838 36.7371C20.2948 36.7469 20.3077 36.7544 20.3216 36.7592C20.3355 36.7639 20.3503 36.7659 20.365 36.765C20.3947 36.7631 20.4225 36.7496 20.4421 36.7272C20.4618 36.7049 20.4719 36.6757 20.47 36.646C20.4681 36.6163 20.4546 36.5885 20.4322 36.5689C20.4099 36.5492 20.3807 36.5391 20.351 36.541ZM27.601 36.541C27.5863 36.5419 27.5719 36.5457 27.5587 36.5522C27.5454 36.5587 27.5336 36.5677 27.5239 36.5788C27.5141 36.5898 27.5066 36.6027 27.5018 36.6166C27.4971 36.6305 27.4951 36.6453 27.496 36.66C27.4969 36.6747 27.5007 36.6891 27.5072 36.7023C27.5137 36.7156 27.5227 36.7274 27.5338 36.7371C27.5448 36.7469 27.5577 36.7544 27.5716 36.7592C27.5855 36.7639 27.6003 36.7659 27.615 36.765C27.6447 36.7631 27.6725 36.7496 27.6921 36.7272C27.7118 36.7049 27.7219 36.6757 27.72 36.646C27.7181 36.6163 27.7046 36.5885 27.6822 36.5689C27.6599 36.5492 27.6307 36.5391 27.601 36.541ZM20.339 37.103C20.3125 37.1071 20.2884 37.1208 20.2713 37.1414C20.2542 37.162 20.2452 37.1882 20.246 37.215C20.246 37.277 20.296 37.327 20.359 37.326C20.42 37.326 20.469 37.276 20.47 37.215C20.47 37.154 20.42 37.105 20.359 37.103H20.339ZM27.589 37.103C27.5625 37.1071 27.5384 37.1208 27.5213 37.1414C27.5042 37.162 27.4952 37.1882 27.496 37.215C27.496 37.277 27.546 37.327 27.609 37.326C27.67 37.326 27.719 37.276 27.72 37.215C27.72 37.154 27.67 37.105 27.609 37.103H27.589ZM20.351 37.663C20.3217 37.664 20.2939 37.6766 20.2737 37.6979C20.2535 37.7192 20.2425 37.7476 20.243 37.7769C20.2435 37.8063 20.2556 37.8343 20.2765 37.8548C20.2975 37.8754 20.3256 37.8869 20.355 37.8869C20.3844 37.8869 20.4125 37.8754 20.4335 37.8548C20.4544 37.8343 20.4665 37.8063 20.467 37.7769C20.4675 37.7476 20.4565 37.7192 20.4363 37.6979C20.4161 37.6766 20.3883 37.664 20.359 37.663H20.351ZM27.601 37.663C27.5717 37.664 27.5439 37.6766 27.5237 37.6979C27.5035 37.7192 27.4925 37.7476 27.493 37.7769C27.4935 37.8063 27.5056 37.8343 27.5265 37.8548C27.5475 37.8754 27.5756 37.8869 27.605 37.8869C27.6344 37.8869 27.6625 37.8754 27.6835 37.8548C27.7044 37.8343 27.7165 37.8063 27.717 37.7769C27.7175 37.7476 27.7065 37.7192 27.6863 37.6979C27.6661 37.6766 27.6383 37.664 27.609 37.663H27.601ZM24.877 38.221C24.7524 38.2229 24.6294 38.2494 24.5151 38.299C24.4008 38.3486 24.2975 38.4203 24.211 38.51L22.402 40.367C22.2382 40.5491 22.1512 40.7875 22.1593 41.0322C22.1674 41.277 22.2699 41.5091 22.4453 41.68C22.6207 41.8509 22.8554 41.9473 23.1003 41.949C23.3452 41.9506 23.5813 41.8575 23.759 41.689L25.568 39.829C25.655 39.74 25.7235 39.6347 25.7697 39.5192C25.8159 39.4037 25.8388 39.2802 25.8371 39.1558C25.8354 39.0314 25.8092 38.9085 25.7599 38.7943C25.7107 38.68 25.6393 38.5766 25.55 38.49C25.4611 38.4029 25.3559 38.3342 25.2404 38.2879C25.1249 38.2415 25.0014 38.2185 24.877 38.22V38.221ZM20.351 38.226C20.3222 38.2278 20.2952 38.2407 20.2756 38.2619C20.256 38.2831 20.2454 38.3111 20.246 38.34C20.246 38.402 20.296 38.452 20.359 38.451C20.42 38.451 20.469 38.401 20.47 38.34C20.4703 38.3245 20.4674 38.3091 20.4615 38.2948C20.4555 38.2805 20.4467 38.2676 20.4355 38.2569C20.4243 38.2462 20.411 38.2379 20.3965 38.2326C20.3819 38.2273 20.3665 38.225 20.351 38.226ZM27.601 38.226C27.5722 38.2278 27.5452 38.2407 27.5256 38.2619C27.506 38.2831 27.4954 38.3111 27.496 38.34C27.496 38.402 27.546 38.452 27.609 38.451C27.67 38.451 27.719 38.401 27.72 38.34C27.7203 38.3245 27.7174 38.3091 27.7115 38.2948C27.7055 38.2805 27.6967 38.2676 27.6855 38.2569C27.6743 38.2462 27.661 38.2379 27.6465 38.2326C27.6319 38.2273 27.6165 38.225 27.601 38.226ZM20.351 38.789C20.3217 38.79 20.2939 38.8026 20.2737 38.8239C20.2535 38.8452 20.2425 38.8736 20.243 38.9029C20.2435 38.9323 20.2556 38.9603 20.2765 38.9808C20.2975 39.0014 20.3256 39.0129 20.355 39.0129C20.3844 39.0129 20.4125 39.0014 20.4335 38.9808C20.4544 38.9603 20.4665 38.9323 20.467 38.9029C20.4675 38.8736 20.4565 38.8452 20.4363 38.8239C20.4161 38.8026 20.3883 38.79 20.359 38.789C20.3563 38.7889 20.3537 38.7889 20.351 38.789ZM27.601 38.789C27.5717 38.79 27.5439 38.8026 27.5237 38.8239C27.5035 38.8452 27.4925 38.8736 27.493 38.9029C27.4935 38.9323 27.5056 38.9603 27.5265 38.9808C27.5475 39.0014 27.5756 39.0129 27.605 39.0129C27.6344 39.0129 27.6625 39.0014 27.6835 38.9808C27.7044 38.9603 27.7165 38.9323 27.717 38.9029C27.7175 38.8736 27.7065 38.8452 27.6863 38.8239C27.6661 38.8026 27.6383 38.79 27.609 38.789C27.6063 38.7889 27.6037 38.7889 27.601 38.789ZM17.877 39.289C17.7524 39.2909 17.6294 39.3174 17.5151 39.367C17.4008 39.4166 17.2975 39.4883 17.211 39.578L15.402 41.435C15.3149 41.524 15.2462 41.6293 15.1999 41.745C15.1537 41.8606 15.1307 41.9842 15.1324 42.1087C15.1341 42.2333 15.1603 42.3562 15.2097 42.4706C15.2591 42.5849 15.3305 42.6884 15.42 42.775C15.6001 42.9501 15.8423 43.0466 16.0935 43.0434C16.3447 43.0403 16.5844 42.9376 16.76 42.758L18.568 40.898C18.6551 40.809 18.7238 40.7037 18.7701 40.588C18.8163 40.4724 18.8393 40.3488 18.8376 40.2243C18.8359 40.0997 18.8097 39.9768 18.7603 39.8624C18.7109 39.7481 18.6395 39.6446 18.55 39.558C18.4611 39.4709 18.3559 39.4022 18.2404 39.3559C18.1249 39.3095 18.0014 39.2865 17.877 39.288V39.289ZM31.877 39.289C31.7524 39.2909 31.6294 39.3174 31.5151 39.367C31.4008 39.4166 31.2975 39.4883 31.211 39.578L29.402 41.435C29.3149 41.524 29.2462 41.6293 29.1999 41.745C29.1537 41.8606 29.1307 41.9842 29.1324 42.1087C29.1341 42.2333 29.1603 42.3562 29.2097 42.4706C29.2591 42.5849 29.3305 42.6884 29.42 42.775C29.6001 42.9501 29.8423 43.0466 30.0935 43.0434C30.3447 43.0403 30.5844 42.9376 30.76 42.758L32.568 40.898C32.6551 40.809 32.7238 40.7037 32.7701 40.588C32.8163 40.4724 32.8393 40.3488 32.8376 40.2243C32.8359 40.0997 32.8097 39.9768 32.7603 39.8624C32.7109 39.7481 32.6395 39.6446 32.55 39.558C32.4611 39.4709 32.3559 39.4022 32.2404 39.3559C32.1249 39.3095 32.0014 39.2865 31.877 39.288V39.289ZM20.351 39.351C20.3212 39.3521 20.293 39.3649 20.2726 39.3868C20.2523 39.4086 20.2414 39.4377 20.2425 39.4675C20.2436 39.4973 20.2564 39.5255 20.2783 39.5459C20.3001 39.5662 20.3292 39.5771 20.359 39.576C20.3738 39.5755 20.3883 39.572 20.4017 39.5659C20.4152 39.5598 20.4273 39.551 20.4374 39.5402C20.4475 39.5294 20.4553 39.5167 20.4605 39.5029C20.4656 39.489 20.468 39.4743 20.4675 39.4595C20.467 39.4447 20.4635 39.4302 20.4574 39.4168C20.4513 39.4033 20.4425 39.3912 20.4317 39.3811C20.4209 39.371 20.4082 39.3632 20.3944 39.358C20.3805 39.3529 20.3658 39.3505 20.351 39.351ZM27.601 39.351C27.5712 39.3521 27.543 39.3649 27.5226 39.3868C27.5023 39.4086 27.4914 39.4377 27.4925 39.4675C27.4936 39.4973 27.5064 39.5255 27.5283 39.5459C27.5501 39.5662 27.5792 39.5771 27.609 39.576C27.6238 39.5755 27.6383 39.572 27.6517 39.5659C27.6652 39.5598 27.6773 39.551 27.6874 39.5402C27.6975 39.5294 27.7053 39.5167 27.7105 39.5029C27.7156 39.489 27.718 39.4743 27.7175 39.4595C27.717 39.4447 27.7135 39.4302 27.7074 39.4168C27.7013 39.4033 27.6925 39.3912 27.6817 39.3811C27.6709 39.371 27.6582 39.3632 27.6444 39.358C27.6305 39.3529 27.6158 39.3505 27.601 39.351ZM20.351 39.914C20.3363 39.9149 20.3219 39.9187 20.3087 39.9252C20.2954 39.9317 20.2836 39.9407 20.2739 39.9518C20.2641 39.9628 20.2566 39.9757 20.2518 39.9896C20.2471 40.0035 20.2451 40.0183 20.246 40.033C20.2469 40.0477 20.2507 40.0621 20.2572 40.0753C20.2637 40.0886 20.2727 40.1004 20.2838 40.1101C20.2948 40.1199 20.3077 40.1274 20.3216 40.1322C20.3355 40.1369 20.3503 40.1389 20.365 40.138C20.3947 40.1361 20.4225 40.1226 20.4421 40.1002C20.4618 40.0779 20.4719 40.0487 20.47 40.019C20.4681 39.9893 20.4546 39.9615 20.4322 39.9419C20.4099 39.9222 20.3807 39.9121 20.351 39.914ZM27.601 39.914C27.5863 39.9149 27.5719 39.9187 27.5587 39.9252C27.5454 39.9317 27.5336 39.9407 27.5239 39.9518C27.5141 39.9628 27.5066 39.9757 27.5018 39.9896C27.4971 40.0035 27.4951 40.0183 27.496 40.033C27.4969 40.0477 27.5007 40.0621 27.5072 40.0753C27.5137 40.0886 27.5227 40.1004 27.5338 40.1101C27.5448 40.1199 27.5577 40.1274 27.5716 40.1322C27.5855 40.1369 27.6003 40.1389 27.615 40.138C27.6447 40.1361 27.6725 40.1226 27.6921 40.1002C27.7118 40.0779 27.7219 40.0487 27.72 40.019C27.7181 39.9893 27.7046 39.9615 27.6822 39.9419C27.6599 39.9222 27.6307 39.9121 27.601 39.914ZM20.351 40.476C20.3212 40.4779 20.2933 40.4915 20.2735 40.5139C20.2537 40.5363 20.2436 40.5657 20.2455 40.5955C20.2474 40.6253 20.261 40.6532 20.2834 40.673C20.3058 40.6928 20.3352 40.7029 20.365 40.701C20.3948 40.6991 20.4227 40.6855 20.4425 40.6631C20.4623 40.6407 20.4724 40.6113 20.4705 40.5815C20.4686 40.5517 20.455 40.5238 20.4326 40.504C20.4102 40.4842 20.3808 40.4741 20.351 40.476ZM27.601 40.476C27.5712 40.4779 27.5433 40.4915 27.5235 40.5139C27.5037 40.5363 27.4936 40.5657 27.4955 40.5955C27.4974 40.6253 27.511 40.6532 27.5334 40.673C27.5558 40.6928 27.5852 40.7029 27.615 40.701C27.6448 40.6991 27.6727 40.6855 27.6925 40.6631C27.7123 40.6407 27.7224 40.6113 27.7205 40.5815C27.7186 40.5517 27.705 40.5238 27.6826 40.504C27.6602 40.4842 27.6308 40.4741 27.601 40.476ZM20.339 41.039C20.3127 41.0431 20.2888 41.0566 20.2717 41.077C20.2546 41.0975 20.2454 41.1234 20.246 41.15C20.2458 41.1721 20.2522 41.1939 20.2643 41.2124C20.2765 41.2309 20.2938 41.2454 20.3142 41.2541C20.3346 41.2627 20.3571 41.2652 20.3789 41.261C20.4006 41.2569 20.4207 41.2464 20.4365 41.2309C20.4523 41.2154 20.4631 41.1955 20.4676 41.1738C20.4722 41.1521 20.4701 41.1296 20.4618 41.1091C20.4536 41.0885 20.4394 41.0709 20.4211 41.0584C20.4027 41.046 20.3811 41.0392 20.359 41.039H20.339ZM27.589 41.039C27.5627 41.0431 27.5388 41.0566 27.5217 41.077C27.5046 41.0975 27.4954 41.1234 27.496 41.15C27.4958 41.1721 27.5022 41.1939 27.5143 41.2124C27.5265 41.2309 27.5438 41.2454 27.5642 41.2541C27.5846 41.2627 27.6071 41.2652 27.6289 41.261C27.6506 41.2569 27.6707 41.2464 27.6865 41.2309C27.7023 41.2154 27.7131 41.1955 27.7176 41.1738C27.7222 41.1521 27.7201 41.1296 27.7118 41.1091C27.7036 41.0885 27.6894 41.0709 27.6711 41.0584C27.6527 41.046 27.6311 41.0392 27.609 41.039H27.589ZM20.339 41.601C20.3125 41.6051 20.2884 41.6188 20.2713 41.6394C20.2542 41.66 20.2452 41.6862 20.246 41.713C20.246 41.7427 20.2578 41.7712 20.2788 41.7922C20.2998 41.8132 20.3283 41.825 20.358 41.825C20.3877 41.825 20.4162 41.8132 20.4372 41.7922C20.4582 41.7712 20.47 41.7427 20.47 41.713C20.47 41.651 20.42 41.603 20.359 41.601H20.339ZM27.589 41.601C27.5625 41.6051 27.5384 41.6188 27.5213 41.6394C27.5042 41.66 27.4952 41.6862 27.496 41.713C27.496 41.7427 27.5078 41.7712 27.5288 41.7922C27.5498 41.8132 27.5783 41.825 27.608 41.825C27.6377 41.825 27.6662 41.8132 27.6872 41.7922C27.7082 41.7712 27.72 41.7427 27.72 41.713C27.72 41.651 27.67 41.603 27.609 41.601H27.589ZM20.361 42.162C20.3462 42.1619 20.3316 42.1646 20.3179 42.1702C20.3042 42.1757 20.2917 42.1839 20.2812 42.1942C20.2706 42.2046 20.2622 42.2169 20.2564 42.2305C20.2507 42.2441 20.2476 42.2587 20.2475 42.2735C20.2474 42.2883 20.2501 42.3029 20.2557 42.3166C20.2612 42.3303 20.2694 42.3428 20.2797 42.3533C20.2901 42.3639 20.3024 42.3723 20.316 42.3781C20.3296 42.3838 20.3442 42.3869 20.359 42.387C20.3888 42.3873 20.4176 42.3757 20.4388 42.3548C20.4601 42.3338 20.4722 42.3053 20.4725 42.2755C20.4728 42.2457 20.4612 42.2169 20.4403 42.1957C20.4193 42.1744 20.3908 42.1623 20.361 42.162ZM27.611 42.162C27.5962 42.1619 27.5816 42.1646 27.5679 42.1702C27.5542 42.1757 27.5417 42.1839 27.5312 42.1942C27.5206 42.2046 27.5122 42.2169 27.5064 42.2305C27.5007 42.2441 27.4976 42.2587 27.4975 42.2735C27.4974 42.2883 27.5001 42.3029 27.5057 42.3166C27.5112 42.3303 27.5194 42.3428 27.5297 42.3533C27.5401 42.3639 27.5524 42.3723 27.566 42.3781C27.5796 42.3838 27.5942 42.3869 27.609 42.387C27.6388 42.3873 27.6676 42.3757 27.6888 42.3548C27.7101 42.3338 27.7222 42.3053 27.7225 42.2755C27.7228 42.2457 27.7112 42.2169 27.6903 42.1957C27.6693 42.1744 27.6408 42.1623 27.611 42.162ZM20.351 42.725C20.3217 42.726 20.2939 42.7386 20.2737 42.7599C20.2535 42.7812 20.2425 42.8096 20.243 42.8389C20.2435 42.8683 20.2556 42.8963 20.2765 42.9168C20.2975 42.9374 20.3256 42.9489 20.355 42.9489C20.3844 42.9489 20.4125 42.9374 20.4335 42.9168C20.4544 42.8963 20.4665 42.8683 20.467 42.8389C20.4675 42.8096 20.4565 42.7812 20.4363 42.7599C20.4161 42.7386 20.3883 42.726 20.359 42.725C20.3563 42.7249 20.3537 42.7249 20.351 42.725ZM27.601 42.725C27.5717 42.726 27.5439 42.7386 27.5237 42.7599C27.5035 42.7812 27.4925 42.8096 27.493 42.8389C27.4935 42.8683 27.5056 42.8963 27.5265 42.9168C27.5475 42.9374 27.5756 42.9489 27.605 42.9489C27.6344 42.9489 27.6625 42.9374 27.6835 42.9168C27.7044 42.8963 27.7165 42.8683 27.717 42.8389C27.7175 42.8096 27.7065 42.7812 27.6863 42.7599C27.6661 42.7386 27.6383 42.726 27.609 42.725C27.6063 42.7249 27.6037 42.7249 27.601 42.725Z" fill="#333333"/>
</g>
<defs>
<clipPath id="clip0">
<rect width="48" height="48" fill="white"/>
</clipPath>
</defs>
</svg>
