<svg width="48" height="48" viewBox="0 0 48 48" fill="none" xmlns="http://www.w3.org/2000/svg">
<path d="M14.1465 4.125C13.277 4.125 12.5781 4.82392 12.5781 5.69336V42.5547C12.5781 43.4241 13.277 44.125 14.1465 44.125H33.8516C34.721 44.125 35.4199 43.4241 35.4199 42.5547V5.69336C35.4199 4.82392 34.721 4.125 33.8516 4.125H14.1465ZM30.8437 4.85937C30.8476 4.8593 30.849 4.8593 30.8516 4.85937C30.9128 4.86013 30.9644 4.90947 30.9648 4.9707C30.9656 5.03269 30.9135 5.08349 30.8516 5.08398C30.7888 5.08436 30.7396 5.03344 30.7402 4.9707C30.7406 4.91136 30.7848 4.86293 30.8437 4.85937ZM30.8437 5.42187C30.8476 5.4218 30.849 5.4218 30.8516 5.42187C30.9128 5.42263 30.9644 5.47197 30.9648 5.5332C30.9656 5.59519 30.9135 5.64599 30.8516 5.64648C30.7888 5.64686 30.7396 5.59594 30.7402 5.5332C30.7406 5.47386 30.7848 5.42543 30.8437 5.42187ZM30.8437 5.98437C30.8476 5.9843 30.849 5.9843 30.8516 5.98437C30.9128 5.98513 30.9644 6.03447 30.9648 6.0957C30.9656 6.15769 30.9135 6.20849 30.8516 6.20898C30.7888 6.20936 30.7396 6.15844 30.7402 6.0957C30.7406 6.03674 30.7848 5.98793 30.8437 5.98437ZM25.2617 6.46289C25.5039 6.45949 25.7474 6.54949 25.9355 6.73242C26.312 7.09854 26.3192 7.69582 25.9531 8.07226L24.1445 9.93164C23.9615 10.1195 23.7207 10.215 23.4785 10.2187C23.2363 10.2225 22.9928 10.1345 22.8047 9.95117C22.4283 9.58501 22.421 8.98739 22.7871 8.61133L24.5957 6.75391C24.7788 6.56569 25.0195 6.46813 25.2617 6.46484V6.46289ZM30.834 6.54687H30.8359C30.8435 6.54631 30.844 6.54631 30.8516 6.54687C30.9128 6.54763 30.9644 6.59697 30.9648 6.6582C30.9645 6.71981 30.9128 6.76904 30.8516 6.76953C30.7892 6.76991 30.7407 6.72019 30.7402 6.6582C30.7399 6.60302 30.7796 6.55443 30.834 6.54687ZM30.8535 7.10742C30.9159 7.10818 30.9654 7.15872 30.9648 7.2207C30.9641 7.28231 30.9147 7.33154 30.8535 7.33203C30.7912 7.33241 30.7407 7.28269 30.7402 7.2207C30.7399 7.15796 30.7908 7.10682 30.8535 7.10742ZM30.8437 7.66992C30.8476 7.66981 30.849 7.66981 30.8516 7.66992C30.9136 7.67068 30.9654 7.72122 30.9648 7.7832C30.9645 7.84481 30.9128 7.89404 30.8516 7.89453C30.7892 7.89529 30.7407 7.84519 30.7402 7.7832C30.7395 7.72311 30.784 7.67351 30.8437 7.66992ZM30.8437 8.23242C30.8476 8.23235 30.849 8.23235 30.8516 8.23242C30.9136 8.23318 30.9654 8.28372 30.9648 8.3457C30.9645 8.40731 30.9128 8.45658 30.8516 8.45703C30.7892 8.45741 30.7407 8.40769 30.7402 8.3457C30.7395 8.28561 30.784 8.23605 30.8437 8.23242ZM19.6934 8.46289C19.9356 8.45949 20.179 8.54949 20.3672 8.73242C20.7436 9.09854 20.7509 9.69582 20.3848 10.0723L18.5762 11.9316C18.4846 12.0254 18.379 12.0965 18.2656 12.1445C17.9255 12.2885 17.5185 12.2259 17.2363 11.9512C16.8599 11.585 16.8526 10.9874 17.2187 10.6113L19.0273 8.75391C19.2104 8.56569 19.4512 8.46813 19.6934 8.46484V8.46289ZM30.8437 8.79492C30.8476 8.79485 30.849 8.79485 30.8516 8.79492C30.9136 8.79568 30.9654 8.84622 30.9648 8.9082C30.9645 8.96981 30.9128 9.01904 30.8516 9.01953C30.7892 9.01991 30.7407 8.97019 30.7402 8.9082C30.7395 8.84811 30.784 8.79851 30.8437 8.79492ZM30.8437 9.35742C30.8476 9.35735 30.849 9.35735 30.8516 9.35742C30.9128 9.35818 30.9644 9.40752 30.9648 9.46875C30.9656 9.53073 30.9135 9.58154 30.8516 9.58203C30.7888 9.58241 30.7396 9.53149 30.7402 9.46875C30.7406 9.40941 30.7848 9.36097 30.8437 9.35742ZM30.8437 9.91992C30.8476 9.91981 30.849 9.91981 30.8516 9.91992C30.9128 9.9203 30.9644 9.97002 30.9648 10.0312C30.9656 10.0932 30.9135 10.144 30.8516 10.1445C30.7888 10.1449 30.7396 10.094 30.7402 10.0312C30.7406 9.97191 30.7848 9.92351 30.8437 9.91992ZM30.834 10.4824H30.8359C30.8435 10.4819 30.844 10.4819 30.8516 10.4824C30.9128 10.4832 30.9644 10.5325 30.9648 10.5937C30.9656 10.6557 30.9135 10.7065 30.8516 10.707C30.7888 10.7074 30.7396 10.6565 30.7402 10.5937C30.7399 10.5389 30.7796 10.49 30.834 10.4824ZM30.8535 11.043C30.9159 11.0437 30.9654 11.0943 30.9648 11.1562C30.9641 11.2179 30.9147 11.2671 30.8535 11.2676C30.7912 11.268 30.7407 11.2182 30.7402 11.1562C30.7399 11.0935 30.7908 11.0424 30.8535 11.043ZM30.8535 11.6055C30.9159 11.6062 30.9654 11.6568 30.9648 11.7187C30.9641 11.7796 30.9147 11.8296 30.8535 11.8301C30.7912 11.8312 30.7407 11.7807 30.7402 11.7187C30.7399 11.656 30.7908 11.6049 30.8535 11.6055ZM30.8437 12.168C30.8476 12.1679 30.849 12.1679 30.8516 12.168C30.9136 12.1687 30.9654 12.2193 30.9648 12.2812C30.9645 12.3425 30.9128 12.3921 30.8516 12.3926C30.7892 12.3937 30.7407 12.3432 30.7402 12.2812C30.7395 12.2212 30.784 12.1716 30.8437 12.168ZM25.2617 12.1758C25.5039 12.1724 25.7474 12.2624 25.9355 12.4453C26.312 12.8114 26.3192 13.4087 25.9531 13.7852L24.1445 15.6445C23.7784 16.0191 23.1809 16.0303 22.8047 15.6641C22.4283 15.2979 22.421 14.7003 22.7871 14.3242L24.5957 12.4668C24.7788 12.2786 25.0195 12.181 25.2617 12.1777V12.1758ZM30.8437 12.7305C30.8476 12.7304 30.849 12.7304 30.8516 12.7305C30.9136 12.7308 30.9654 12.7818 30.9648 12.8437C30.9645 12.905 30.9128 12.9546 30.8516 12.9551C30.7892 12.9558 30.7407 12.9057 30.7402 12.8437C30.7395 12.7837 30.784 12.7341 30.8437 12.7305ZM30.8437 13.293C30.8476 13.2929 30.849 13.2929 30.8516 13.293C30.9128 13.2937 30.9644 13.3431 30.9648 13.4043C30.9656 13.4663 30.9135 13.5171 30.8516 13.5176C30.7888 13.518 30.7396 13.467 30.7402 13.4043C30.7406 13.345 30.7848 13.2966 30.8437 13.293ZM30.8437 13.8555C30.8476 13.8554 30.849 13.8554 30.8516 13.8555C30.9128 13.8562 30.9644 13.9056 30.9648 13.9668C30.9656 14.0288 30.9135 14.0796 30.8516 14.0801C30.7888 14.0805 30.7396 14.0295 30.7402 13.9668C30.7406 13.9078 30.7848 13.8591 30.8437 13.8555ZM19.6934 14.1758C19.9356 14.1724 20.179 14.2624 20.3672 14.4453C20.7436 14.8114 20.7509 15.4087 20.3848 15.7852L18.5762 17.6445C18.2101 18.0198 17.6126 18.0303 17.2363 17.6641C16.8599 17.2979 16.8526 16.7003 17.2187 16.3242L19.0273 14.4668C19.2104 14.2786 19.4512 14.181 19.6934 14.1777V14.1758ZM30.8437 14.418C30.8476 14.4179 30.849 14.4179 30.8516 14.418C30.9128 14.4183 30.9644 14.4681 30.9648 14.5293C30.9656 14.5913 30.9135 14.6421 30.8516 14.6426C30.7888 14.643 30.7396 14.592 30.7402 14.5293C30.7406 14.4707 30.7848 14.4216 30.8437 14.418ZM30.834 14.9805H30.8359C30.8435 14.9799 30.844 14.9799 30.8516 14.9805C30.9128 14.9808 30.9644 15.0306 30.9648 15.0918C30.9656 15.1538 30.9135 15.2046 30.8516 15.2051C30.7888 15.2055 30.7396 15.1545 30.7402 15.0918C30.7399 15.037 30.7796 14.988 30.834 14.9805ZM30.834 15.543H30.8359C30.8435 15.5424 30.844 15.5424 30.8516 15.543C30.9128 15.5437 30.9644 15.5931 30.9648 15.6543C30.9645 15.7155 30.9128 15.7651 30.8516 15.7656C30.7892 15.7664 30.7407 15.7163 30.7402 15.6543C30.7399 15.5991 30.7796 15.5505 30.834 15.543ZM30.8535 16.1035C30.9159 16.1043 30.9654 16.1548 30.9648 16.2168C30.9641 16.2776 30.9147 16.3276 30.8535 16.3281C30.7912 16.3293 30.7407 16.2788 30.7402 16.2168C30.7399 16.1541 30.7908 16.1029 30.8535 16.1035ZM30.8437 16.666C30.8476 16.6659 30.849 16.6659 30.8516 16.666C30.9136 16.6668 30.9654 16.7173 30.9648 16.7793C30.9645 16.8405 30.9128 16.8901 30.8516 16.8906C30.7892 16.8914 30.7407 16.8413 30.7402 16.7793C30.7395 16.7192 30.784 16.6696 30.8437 16.666ZM25.2617 16.8711C25.5039 16.8677 25.7474 16.9577 25.9355 17.1406C26.312 17.5067 26.3192 18.104 25.9531 18.4805L24.1445 20.3398C23.7784 20.7174 23.1809 20.7256 22.8047 20.3594C22.4283 19.9932 22.421 19.3956 22.7871 19.0195L24.5957 17.1621C24.7788 16.9739 25.0195 16.8764 25.2617 16.873V16.8711ZM30.8437 17.2285C30.8476 17.2284 30.849 17.2284 30.8516 17.2285C30.9136 17.2293 30.9654 17.2798 30.9648 17.3418C30.9645 17.4034 30.9128 17.4526 30.8516 17.4531C30.7892 17.4535 30.7407 17.4038 30.7402 17.3418C30.7395 17.2817 30.784 17.2321 30.8437 17.2285ZM30.8437 17.791C30.8476 17.7909 30.849 17.7909 30.8516 17.791C30.9128 17.791 30.9644 17.8411 30.9648 17.9023C30.9656 17.9643 30.9135 18.0151 30.8516 18.0156C30.7888 18.016 30.7396 17.9651 30.7402 17.9023C30.7406 17.8438 30.7848 17.7946 30.8437 17.791ZM30.8437 18.3535C30.8476 18.3534 30.849 18.3534 30.8516 18.3535C30.9128 18.3535 30.9644 18.4036 30.9648 18.4648C30.9656 18.5268 30.9135 18.5777 30.8516 18.5781C30.7888 18.5785 30.7396 18.5276 30.7402 18.4648C30.7406 18.4059 30.7848 18.3571 30.8437 18.3535ZM30.8437 18.916C30.8476 18.9159 30.849 18.9159 30.8516 18.916C30.9128 18.9164 30.9644 18.9661 30.9648 19.0273C30.9656 19.0893 30.9135 19.1401 30.8516 19.1406C30.7888 19.141 30.7396 19.0901 30.7402 19.0273C30.7406 18.9688 30.7848 18.9196 30.8437 18.916ZM19.6934 19.4355C19.9356 19.4321 20.179 19.5221 20.3672 19.7051C20.7436 20.0712 20.7509 20.6685 20.3848 21.0449L18.5762 22.9043C18.2101 23.2796 17.6126 23.2901 17.2363 22.9238C16.8599 22.5577 16.8526 21.96 17.2187 21.584L19.0273 19.7266C19.2104 19.5383 19.4512 19.4408 19.6934 19.4375V19.4355ZM30.834 19.4785H30.8359C30.8435 19.4779 30.844 19.4779 30.8516 19.4785C30.9128 19.4793 30.9644 19.5286 30.9648 19.5898C30.9656 19.6518 30.9135 19.7026 30.8516 19.7031C30.7888 19.7035 30.7396 19.6526 30.7402 19.5898C30.7399 19.5347 30.7796 19.4861 30.834 19.4785ZM30.8535 20.0391C30.9159 20.0398 30.9654 20.0904 30.9648 20.1523C30.9641 20.2136 30.9147 20.2632 30.8535 20.2637C30.7912 20.2648 30.7407 20.2143 30.7402 20.1523C30.7399 20.0896 30.7908 20.0385 30.8535 20.0391ZM30.8437 20.6016C30.8476 20.6015 30.849 20.6015 30.8516 20.6016C30.9136 20.6019 30.9654 20.6529 30.9648 20.7148C30.9645 20.7761 30.9128 20.8257 30.8516 20.8262C30.7892 20.8269 30.7407 20.7768 30.7402 20.7148C30.7395 20.6547 30.784 20.6052 30.8437 20.6016ZM30.8437 21.1641C30.8476 21.164 30.849 21.164 30.8516 21.1641C30.9136 21.1648 30.9654 21.2154 30.9648 21.2773C30.9645 21.3389 30.9128 21.3882 30.8516 21.3887C30.7892 21.389 30.7407 21.3393 30.7402 21.2773C30.7395 21.2172 30.784 21.1677 30.8437 21.1641ZM30.8437 21.7266C30.8476 21.7265 30.849 21.7265 30.8516 21.7266C30.9136 21.7273 30.9654 21.7779 30.9648 21.8398C30.9645 21.9014 30.9128 21.9507 30.8516 21.9512C30.7892 21.9515 30.7407 21.9018 30.7402 21.8398C30.7395 21.7797 30.784 21.7302 30.8437 21.7266ZM25.2617 22.0859C25.5039 22.0825 25.7474 22.1725 25.9355 22.3555C26.312 22.7216 26.3192 23.3189 25.9531 23.6953L24.1445 25.5547C23.7784 25.9323 23.1809 25.9405 22.8047 25.5742C22.4283 25.2081 22.421 24.6104 22.7871 24.2344L24.5957 22.3769C24.7788 22.1887 25.0195 22.0912 25.2617 22.0879V22.0859ZM30.8437 22.2891C30.8476 22.2889 30.849 22.2889 30.8516 22.2891C30.9128 22.2894 30.9644 22.3392 30.9648 22.4004C30.9656 22.4624 30.9135 22.5132 30.8516 22.5137C30.7888 22.514 30.7396 22.4631 30.7402 22.4004C30.7406 22.3418 30.7848 22.2927 30.8437 22.2891ZM30.8437 22.8516C30.8476 22.8514 30.849 22.8514 30.8516 22.8516C30.9128 22.8516 30.9644 22.9017 30.9648 22.9629C30.9656 23.0249 30.9135 23.0757 30.8516 23.0762C30.7888 23.0765 30.7396 23.0256 30.7402 22.9629C30.7406 22.9039 30.7848 22.8552 30.8437 22.8516ZM30.8437 23.4141C30.8476 23.414 30.849 23.414 30.8516 23.4141C30.9128 23.4148 30.9644 23.4642 30.9648 23.5254C30.9656 23.5874 30.9135 23.6382 30.8516 23.6387C30.7888 23.639 30.7396 23.5881 30.7402 23.5254C30.7406 23.466 30.7848 23.4177 30.8437 23.4141ZM30.834 23.9766H30.8359C30.8435 23.976 30.844 23.976 30.8516 23.9766C30.9128 23.9773 30.9644 24.0267 30.9648 24.0879C30.9656 24.1499 30.9135 24.2007 30.8516 24.2012C30.7888 24.2015 30.7396 24.1506 30.7402 24.0879C30.7399 24.0327 30.7796 23.9841 30.834 23.9766ZM30.834 24.5391H30.8359C30.8435 24.5385 30.844 24.5385 30.8516 24.5391C30.9128 24.5398 30.9644 24.5892 30.9648 24.6504C30.9645 24.7116 30.9128 24.7612 30.8516 24.7617C30.7892 24.7629 30.7407 24.7124 30.7402 24.6504C30.7399 24.5952 30.7796 24.5466 30.834 24.5391ZM19.6934 24.6934C19.9356 24.69 20.179 24.78 20.3672 24.9629C20.7436 25.329 20.7509 25.9263 20.3848 26.3027L18.5762 28.1621C18.2101 28.5397 17.6126 28.5479 17.2363 28.1816C16.8599 27.8155 16.8526 27.2179 17.2187 26.8418L19.0273 24.9844C19.2104 24.7962 19.4512 24.6986 19.6934 24.6953V24.6934ZM30.8437 25.0996C30.8476 25.0995 30.849 25.0995 30.8516 25.0996C30.9136 25.1004 30.9654 25.1509 30.9648 25.2129C30.9645 25.2745 30.9128 25.3237 30.8516 25.3242C30.7892 25.3246 30.7407 25.2749 30.7402 25.2129C30.7395 25.1528 30.784 25.1032 30.8437 25.0996ZM30.8437 25.6621C30.8476 25.662 30.849 25.662 30.8516 25.6621C30.9136 25.6629 30.9654 25.7134 30.9648 25.7754C30.9645 25.837 30.9128 25.8862 30.8516 25.8867C30.7892 25.8871 30.7407 25.8374 30.7402 25.7754C30.7395 25.7153 30.784 25.6657 30.8437 25.6621ZM30.8437 26.2246C30.8476 26.2245 30.849 26.2245 30.8516 26.2246C30.9136 26.2254 30.9654 26.2759 30.9648 26.3379C30.9645 26.3995 30.9128 26.4487 30.8516 26.4492C30.7892 26.4496 30.7407 26.3999 30.7402 26.3379C30.7395 26.2778 30.784 26.2282 30.8437 26.2246ZM30.8437 26.7871C30.8476 26.787 30.849 26.787 30.8516 26.7871C30.9128 26.7879 30.9644 26.8372 30.9648 26.8984C30.9656 26.9604 30.9135 27.0112 30.8516 27.0117C30.7888 27.0121 30.7396 26.9612 30.7402 26.8984C30.7406 26.8395 30.7848 26.7907 30.8437 26.7871ZM25.2617 27.3008C25.5039 27.2974 25.7474 27.3874 25.9355 27.5703C26.312 27.9364 26.3192 28.5337 25.9531 28.9102L24.1445 30.7695C23.7784 31.1467 23.1809 31.1553 22.8047 30.7891C22.4283 30.4229 22.421 29.8253 22.7871 29.4492L24.5957 27.5918C24.7788 27.4036 25.0195 27.3061 25.2617 27.3027V27.3008ZM30.8437 27.3496C30.8476 27.3495 30.849 27.3495 30.8516 27.3496C30.9128 27.3504 30.9624 27.3997 30.9629 27.4609C30.9636 27.5229 30.9135 27.5737 30.8516 27.5742C30.7888 27.5746 30.7377 27.5237 30.7383 27.4609C30.7387 27.4016 30.7848 27.3532 30.8437 27.3496ZM30.8437 27.9121C30.8476 27.912 30.849 27.912 30.8516 27.9121C30.9128 27.9129 30.9624 27.9622 30.9629 28.0234C30.9636 28.0854 30.9135 28.1362 30.8516 28.1367C30.7888 28.1371 30.7377 28.0862 30.7383 28.0234C30.7387 27.9641 30.7848 27.9157 30.8437 27.9121ZM30.832 28.4746H30.834C30.8415 28.474 30.844 28.474 30.8516 28.4746C30.9128 28.4754 30.9624 28.5247 30.9629 28.5859C30.9625 28.6468 30.9128 28.6968 30.8516 28.6973C30.7892 28.6984 30.7388 28.6479 30.7383 28.5859C30.7379 28.5308 30.7776 28.4822 30.832 28.4746ZM30.8516 29.0352C30.9139 29.0359 30.9635 29.0864 30.9629 29.1484C30.9621 29.21 30.9128 29.2593 30.8516 29.2598C30.7892 29.2601 30.7388 29.2104 30.7383 29.1484C30.7379 29.0857 30.7888 29.0345 30.8516 29.0352ZM30.8437 29.5977C30.8476 29.5976 30.849 29.5976 30.8516 29.5977C30.9136 29.5984 30.9635 29.6489 30.9629 29.7109C30.9625 29.7725 30.9128 29.8218 30.8516 29.8223C30.7892 29.8226 30.7388 29.7729 30.7383 29.7109C30.7375 29.6508 30.784 29.6012 30.8437 29.5977ZM19.6934 29.9531C19.9356 29.9497 20.179 30.0397 20.3672 30.2227C20.7436 30.5888 20.7509 31.1861 20.3848 31.5625L18.5762 33.4219C18.2101 33.7972 17.6126 33.8076 17.2363 33.4414C16.8599 33.0753 16.8526 32.4776 17.2187 32.1016L19.0273 30.2441C19.2104 30.0559 19.4512 29.9584 19.6934 29.9551V29.9531ZM30.8437 30.1602C30.8476 30.1601 30.849 30.1601 30.8516 30.1602C30.9136 30.1609 30.9635 30.2114 30.9629 30.2734C30.9625 30.335 30.9128 30.3843 30.8516 30.3848C30.7892 30.3851 30.7388 30.3354 30.7383 30.2734C30.7375 30.2133 30.784 30.1637 30.8437 30.1602ZM30.8437 30.7227C30.8476 30.7225 30.849 30.7225 30.8516 30.7227C30.9136 30.7234 30.9635 30.7739 30.9629 30.8359C30.9625 30.8972 30.9128 30.9468 30.8516 30.9473C30.7892 30.9484 30.7388 30.8979 30.7383 30.8359C30.7375 30.7758 30.784 30.7262 30.8437 30.7227ZM30.8437 31.2852C30.8476 31.285 30.849 31.285 30.8516 31.2852C30.9128 31.2859 30.9624 31.3353 30.9629 31.3965C30.9636 31.4585 30.9135 31.5093 30.8516 31.5098C30.7888 31.5101 30.7377 31.4592 30.7383 31.3965C30.7387 31.3371 30.7848 31.2888 30.8437 31.2852ZM30.8437 31.8477C30.8476 31.8476 30.849 31.8476 30.8516 31.8477C30.9128 31.8484 30.9624 31.8978 30.9629 31.959C30.9636 32.021 30.9135 32.0718 30.8516 32.0723C30.7888 32.0726 30.7377 32.0217 30.7383 31.959C30.7387 31.8996 30.7848 31.8512 30.8437 31.8477ZM30.832 32.4102H30.834C30.8415 32.4096 30.844 32.4096 30.8516 32.4102C30.9128 32.4109 30.9624 32.4603 30.9629 32.5215C30.9636 32.5835 30.9135 32.6343 30.8516 32.6348C30.7888 32.6351 30.7377 32.5842 30.7383 32.5215C30.7379 32.4663 30.7776 32.4177 30.832 32.4102ZM25.2617 32.5156C25.5039 32.5122 25.7474 32.6022 25.9355 32.7852C26.312 33.1513 26.3192 33.7486 25.9531 34.125L24.1445 35.9844C23.7784 36.3619 23.1809 36.3701 22.8047 36.0039C22.4283 35.6378 22.421 35.0401 22.7871 34.6641L24.5957 32.8066C24.7788 32.6184 25.0195 32.5209 25.2617 32.5176V32.5156ZM30.832 32.9727H30.834C30.8415 32.9721 30.844 32.9721 30.8516 32.9727C30.9128 32.973 30.9624 33.0228 30.9629 33.084C30.9625 33.1456 30.9128 33.1948 30.8516 33.1953C30.7892 33.1957 30.7388 33.146 30.7383 33.084C30.7379 33.0292 30.7776 32.9802 30.832 32.9727ZM30.8516 33.5332C30.9139 33.534 30.9635 33.5845 30.9629 33.6465C30.9621 33.7081 30.9128 33.7573 30.8516 33.7578C30.7892 33.7582 30.7388 33.7085 30.7383 33.6465C30.7379 33.5837 30.7888 33.5326 30.8516 33.5332ZM30.8437 34.0957C30.8476 34.0956 30.849 34.0956 30.8516 34.0957C30.9136 34.0965 30.9635 34.147 30.9629 34.209C30.9625 34.2706 30.9128 34.3198 30.8516 34.3203C30.7892 34.3207 30.7388 34.271 30.7383 34.209C30.7375 34.1489 30.784 34.0993 30.8437 34.0957ZM30.8437 34.6582C30.8476 34.6581 30.849 34.6581 30.8516 34.6582C30.9136 34.659 30.9635 34.7095 30.9629 34.7715C30.9625 34.8331 30.9128 34.8823 30.8516 34.8828C30.7892 34.8832 30.7388 34.8335 30.7383 34.7715C30.7375 34.7114 30.784 34.6618 30.8437 34.6582ZM19.6934 35.2148C19.9356 35.2114 20.179 35.3014 20.3672 35.4844C20.7436 35.8505 20.7509 36.4478 20.3848 36.8242L18.5762 38.6836C18.2101 39.0589 17.6126 39.0674 17.2363 38.7012C16.8599 38.335 16.8526 37.7374 17.2187 37.3613L19.0273 35.5039C19.2104 35.3157 19.4512 35.2181 19.6934 35.2148ZM30.8437 35.2207C30.8476 35.2206 30.849 35.2206 30.8516 35.2207C30.9128 35.2215 30.9624 35.2708 30.9629 35.332C30.9636 35.394 30.9135 35.4448 30.8516 35.4453C30.7888 35.4457 30.7377 35.3948 30.7383 35.332C30.7387 35.2727 30.7848 35.2243 30.8437 35.2207ZM30.8437 35.7832C30.8476 35.7831 30.849 35.7831 30.8516 35.7832C30.9128 35.784 30.9624 35.8333 30.9629 35.8945C30.9636 35.9565 30.9135 36.0073 30.8516 36.0078C30.7888 36.0082 30.7377 35.9573 30.7383 35.8945C30.7387 35.8352 30.7848 35.7868 30.8437 35.7832ZM30.8437 36.3457C30.8476 36.3456 30.849 36.3456 30.8516 36.3457C30.9128 36.3465 30.9624 36.3958 30.9629 36.457C30.9636 36.519 30.9135 36.5698 30.8516 36.5703C30.7888 36.5707 30.7377 36.5198 30.7383 36.457C30.7387 36.3977 30.7848 36.3493 30.8437 36.3457ZM30.8437 36.9082C30.8476 36.9081 30.849 36.9081 30.8516 36.9082C30.9128 36.909 30.9624 36.9583 30.9629 37.0195C30.9636 37.0815 30.9135 37.1323 30.8516 37.1328C30.7888 37.1332 30.7377 37.0823 30.7383 37.0195C30.7387 36.9602 30.7848 36.9118 30.8437 36.9082ZM30.832 37.4707H30.834C30.8415 37.4701 30.844 37.4701 30.8516 37.4707C30.9128 37.4715 30.9624 37.5208 30.9629 37.582C30.9625 37.6433 30.9128 37.6929 30.8516 37.6934C30.7892 37.6941 30.7388 37.644 30.7383 37.582C30.7379 37.5272 30.7776 37.4783 30.832 37.4707ZM30.8437 38.0312C30.8476 38.0312 30.849 38.0312 30.8516 38.0312C30.9136 38.032 30.9635 38.0825 30.9629 38.1445C30.9625 38.2061 30.9128 38.2554 30.8516 38.2559C30.7892 38.2562 30.7388 38.2065 30.7383 38.1445C30.7375 38.0844 30.784 38.0348 30.8437 38.0312ZM23.7266 38.125C23.9688 38.1216 24.2122 38.2116 24.4004 38.3945C24.7768 38.7607 24.7841 39.3579 24.418 39.7344L22.6094 41.5937C22.2433 41.9706 21.6458 41.9795 21.2695 41.6133C20.8931 41.2472 20.8858 40.6495 21.252 40.2734L23.0605 38.416C23.2436 38.2278 23.4844 38.1302 23.7266 38.1269V38.125ZM30.8437 38.5937C30.8476 38.5936 30.849 38.5936 30.8516 38.5937C30.9136 38.5945 30.9635 38.645 30.9629 38.707C30.9625 38.7686 30.9128 38.8179 30.8516 38.8184C30.7892 38.8187 30.7388 38.769 30.7383 38.707C30.7375 38.6469 30.784 38.5973 30.8437 38.5937ZM30.8437 39.1562C30.8476 39.1561 30.849 39.1561 30.8516 39.1562C30.9136 39.157 30.9635 39.2075 30.9629 39.2695C30.9625 39.3311 30.9128 39.3804 30.8516 39.3809C30.7892 39.3816 30.7388 39.3315 30.7383 39.2695C30.7375 39.2094 30.784 39.1599 30.8437 39.1562ZM30.8437 39.7187C30.8476 39.7187 30.849 39.7187 30.8516 39.7187C30.9128 39.7195 30.9624 39.7688 30.9629 39.8301C30.9636 39.8921 30.9135 39.9429 30.8516 39.9434C30.7888 39.9437 30.7377 39.8928 30.7383 39.8301C30.7387 39.7707 30.7848 39.7223 30.8437 39.7187ZM30.8437 40.2812C30.8476 40.2812 30.849 40.2812 30.8516 40.2812C30.9128 40.282 30.9624 40.3313 30.9629 40.3926C30.9636 40.4546 30.9135 40.5054 30.8516 40.5059C30.7888 40.5062 30.7377 40.4553 30.7383 40.3926C30.7387 40.3332 30.7848 40.2848 30.8437 40.2812ZM30.8437 40.8437C30.8476 40.8437 30.849 40.8437 30.8516 40.8437C30.9128 40.8445 30.9624 40.8938 30.9629 40.9551C30.9636 41.0171 30.9135 41.0679 30.8516 41.0684C30.7888 41.0687 30.7377 41.0178 30.7383 40.9551C30.7387 40.8961 30.7848 40.8473 30.8437 40.8437ZM30.832 41.4062H30.834C30.8415 41.4057 30.844 41.4057 30.8516 41.4062C30.9128 41.4066 30.9624 41.4563 30.9629 41.5176C30.9636 41.5796 30.9135 41.6304 30.8516 41.6309C30.7888 41.6312 30.7377 41.5803 30.7383 41.5176C30.7379 41.4624 30.7776 41.4138 30.832 41.4062ZM30.832 41.9687H30.834C30.8415 41.9682 30.844 41.9682 30.8516 41.9687C30.9128 41.9695 30.9624 42.0188 30.9629 42.0801C30.9625 42.1417 30.9128 42.1909 30.8516 42.1914C30.7892 42.1918 30.7388 42.1421 30.7383 42.0801C30.7379 42.0249 30.7776 41.9763 30.832 41.9687ZM30.8516 42.5293C30.9139 42.53 30.9635 42.5806 30.9629 42.6426C30.9621 42.7042 30.9128 42.7534 30.8516 42.7539C30.7892 42.7543 30.7388 42.7046 30.7383 42.6426C30.7379 42.5798 30.7888 42.5287 30.8516 42.5293ZM30.8437 43.0918C30.8476 43.0917 30.849 43.0917 30.8516 43.0918C30.9136 43.0925 30.9635 43.1431 30.9629 43.2051C30.9625 43.2667 30.9128 43.3159 30.8516 43.3164C30.7892 43.3168 30.7388 43.2671 30.7383 43.2051C30.7375 43.145 30.784 43.0954 30.8437 43.0918Z" fill="#333333"/>
</svg>
