<svg width="48" height="48" viewBox="0 0 48 48" fill="none" xmlns="http://www.w3.org/2000/svg">
<path d="M14.2402 3.82227C13.3708 3.82227 12.6719 4.52118 12.6719 5.39062V42.2519C12.6719 43.1214 13.3708 43.8223 14.2402 43.8223H33.9453C34.8148 43.8223 35.5137 43.1214 35.5137 42.2519V5.39062C35.5137 4.52118 34.8148 3.82227 33.9453 3.82227H14.2402ZM14.6719 4.32227H33.5117C34.343 4.32227 35.0137 5.00389 35.0137 5.85156V41.791C35.0137 42.6387 34.343 43.3223 33.5117 43.3223H14.6719C13.8406 43.3223 13.1719 42.6387 13.1719 41.791V5.85156C13.1719 5.00389 13.8406 4.32227 14.6719 4.32227ZM30.9375 4.55664C30.8785 4.56019 30.8324 4.60863 30.832 4.66797C30.8314 4.73071 30.8826 4.78163 30.9453 4.78125C31.0073 4.78076 31.0574 4.72995 31.0566 4.66797C31.0562 4.60674 31.0065 4.5574 30.9453 4.55664C30.9427 4.55656 30.9413 4.55656 30.9375 4.55664ZM30.9375 5.11914C30.8785 5.12269 30.8324 5.17113 30.832 5.23047C30.8314 5.29321 30.8826 5.34413 30.9453 5.34375C31.0073 5.34326 31.0574 5.29245 31.0566 5.23047C31.0562 5.16924 31.0065 5.1199 30.9453 5.11914C30.9427 5.11906 30.9413 5.11906 30.9375 5.11914ZM30.9375 5.68164C30.8785 5.68519 30.8324 5.73363 30.832 5.79297C30.8314 5.85571 30.8826 5.90663 30.9453 5.90625C31.0073 5.90576 31.0574 5.85495 31.0566 5.79297C31.0562 5.73174 31.0065 5.6824 30.9453 5.68164C30.9427 5.68156 30.9413 5.68156 30.9375 5.68164ZM30.9258 6.24414C30.8714 6.2517 30.8317 6.30029 30.832 6.35547C30.8325 6.41745 30.883 6.46717 30.9453 6.4668C31.0065 6.46631 31.0563 6.41707 31.0566 6.35547C31.0562 6.29424 31.0065 6.2449 30.9453 6.24414C30.9377 6.24357 30.9353 6.24357 30.9277 6.24414H30.9258ZM30.9453 6.80469C30.8826 6.80408 30.8317 6.85523 30.832 6.91797C30.8325 6.97995 30.883 7.02967 30.9453 7.0293C31.0065 7.0288 31.0559 6.97957 31.0566 6.91797C31.0572 6.85598 31.0077 6.80544 30.9453 6.80469ZM24.8867 6.83008C24.0031 6.83012 23.2871 7.54607 23.2871 8.42969C23.2871 9.31338 24.0031 10.0293 24.8867 10.0293C25.7703 10.0293 26.4863 9.31338 26.4863 8.42969C26.4863 7.54607 25.7703 6.83012 24.8867 6.83008ZM24.8867 7.29102C25.516 7.29045 26.0279 7.8004 26.0273 8.42969C26.027 9.0583 25.5152 9.56697 24.8867 9.56641C24.2588 9.56599 23.7504 9.05758 23.75 8.42969C23.7494 7.80111 24.2581 7.29143 24.8867 7.29102ZM30.9375 7.36719C30.8778 7.37078 30.8313 7.42037 30.832 7.48047C30.8325 7.54245 30.883 7.59217 30.9453 7.5918C31.0065 7.5913 31.0563 7.54207 31.0566 7.48047C31.0572 7.41848 31.0073 7.36794 30.9453 7.36719C30.9427 7.36707 30.9413 7.36707 30.9375 7.36719ZM30.9375 7.92969C30.8778 7.93332 30.8313 7.98287 30.832 8.04297C30.8325 8.10495 30.883 8.15467 30.9453 8.1543C31.0065 8.15384 31.0563 8.10457 31.0566 8.04297C31.0572 7.98098 31.0073 7.93044 30.9453 7.92969C30.9427 7.92961 30.9413 7.92961 30.9375 7.92969ZM30.9375 8.49219C30.8778 8.49578 30.8313 8.54537 30.832 8.60547C30.8325 8.66745 30.883 8.71717 30.9453 8.7168C31.0065 8.7163 31.0563 8.66707 31.0566 8.60547C31.0572 8.54348 31.0073 8.49294 30.9453 8.49219C30.9427 8.49211 30.9413 8.49211 30.9375 8.49219ZM30.9375 9.05469C30.8785 9.05824 30.8324 9.10668 30.832 9.16601C30.8314 9.22875 30.8826 9.27967 30.9453 9.2793C31.0073 9.2788 31.0574 9.228 31.0566 9.16601C31.0562 9.10479 31.0065 9.05544 30.9453 9.05469C30.9427 9.05461 30.9413 9.05461 30.9375 9.05469ZM19.3242 9.51758C18.4406 9.51762 17.7246 10.2336 17.7246 11.1172C17.7246 12.0008 18.4406 12.7168 19.3242 12.7168C20.2078 12.7168 20.9238 12.0008 20.9238 11.1172C20.9238 10.2336 20.2078 9.51762 19.3242 9.51758ZM30.9375 9.61719C30.8785 9.62079 30.8324 9.66918 30.832 9.72851C30.8314 9.79125 30.8826 9.84217 30.9453 9.8418C31.0073 9.8413 31.0574 9.7905 31.0566 9.72851C31.0562 9.66728 31.0065 9.61794 30.9453 9.61719C30.9427 9.61707 30.9413 9.61707 30.9375 9.61719ZM19.3242 9.97851C19.9535 9.97795 20.4654 10.4879 20.4648 11.1172C20.4645 11.7458 19.9527 12.2545 19.3242 12.2539C18.6963 12.2535 18.1879 11.7451 18.1875 11.1172C18.1869 10.4886 18.6956 9.97893 19.3242 9.97851ZM30.9258 10.1797C30.8714 10.1873 30.8317 10.2358 30.832 10.291C30.8314 10.3538 30.8826 10.4047 30.9453 10.4043C31.0073 10.4038 31.0574 10.353 31.0566 10.291C31.0562 10.2298 31.0065 10.1804 30.9453 10.1797C30.9377 10.1791 30.9353 10.1791 30.9277 10.1797H30.9258ZM30.9453 10.7402C30.8826 10.7396 30.8317 10.7908 30.832 10.8535C30.8325 10.9155 30.883 10.9652 30.9453 10.9648C31.0065 10.9644 31.0559 10.9151 31.0566 10.8535C31.0572 10.7915 31.0077 10.741 30.9453 10.7402ZM30.9453 11.3027C30.8826 11.3021 30.8317 11.3533 30.832 11.416C30.8325 11.478 30.883 11.5281 30.9453 11.5273C31.0065 11.5269 31.0559 11.4772 31.0566 11.416C31.0572 11.354 31.0077 11.3035 30.9453 11.3027ZM24.8867 11.6035C24.0031 11.6036 23.2871 12.3195 23.2871 13.2031C23.2871 14.0868 24.0031 14.8027 24.8867 14.8027C25.7703 14.8027 26.4863 14.0868 26.4863 13.2031C26.4863 12.3195 25.7703 11.6036 24.8867 11.6035ZM30.9375 11.8652C30.8778 11.8688 30.8313 11.9184 30.832 11.9785C30.8325 12.0405 30.883 12.0906 30.9453 12.0898C31.0065 12.0894 31.0563 12.0397 31.0566 11.9785C31.0572 11.9165 31.0073 11.866 30.9453 11.8652C30.9427 11.8651 30.9413 11.8651 30.9375 11.8652ZM24.8867 12.0645C25.516 12.0639 26.0279 12.5738 26.0273 13.2031C26.027 13.8317 25.5152 14.3404 24.8867 14.3398C24.2588 14.3394 23.7504 13.831 23.75 13.2031C23.7494 12.5746 24.2581 12.0649 24.8867 12.0645ZM30.9375 12.4277C30.8778 12.4313 30.8313 12.4809 30.832 12.541C30.8325 12.603 30.883 12.6531 30.9453 12.6523C31.0065 12.6519 31.0563 12.6022 31.0566 12.541C31.0572 12.479 31.0073 12.4281 30.9453 12.4277C30.9427 12.4277 30.9413 12.4277 30.9375 12.4277ZM30.9375 12.9902C30.8785 12.9938 30.8324 13.0422 30.832 13.1016C30.8314 13.1643 30.8826 13.2152 30.9453 13.2148C31.0073 13.2144 31.0574 13.1635 31.0566 13.1016C31.0562 13.0403 31.0065 12.991 30.9453 12.9902C30.9427 12.9902 30.9413 12.9902 30.9375 12.9902ZM30.9375 13.5527C30.8785 13.5563 30.8324 13.6047 30.832 13.6641C30.8314 13.7268 30.8826 13.7777 30.9453 13.7773C31.0073 13.7769 31.0574 13.726 31.0566 13.6641C31.0562 13.6028 31.0065 13.5535 30.9453 13.5527C30.9427 13.5527 30.9413 13.5527 30.9375 13.5527ZM30.9375 14.1152C30.8785 14.1188 30.8324 14.1676 30.832 14.2266C30.8314 14.2893 30.8826 14.3402 30.9453 14.3398C31.0073 14.3394 31.0574 14.2885 31.0566 14.2266C31.0562 14.1653 31.0065 14.1156 30.9453 14.1152C30.9427 14.1151 30.9413 14.1151 30.9375 14.1152ZM19.3242 14.291C18.4406 14.2911 17.7246 15.007 17.7246 15.8906C17.7246 16.7743 18.4406 17.4902 19.3242 17.4902C20.2078 17.4902 20.9238 16.7743 20.9238 15.8906C20.9238 15.007 20.2078 14.2911 19.3242 14.291ZM30.9258 14.6777C30.8714 14.6853 30.8317 14.7343 30.832 14.7891C30.8314 14.8518 30.8826 14.9027 30.9453 14.9023C31.0073 14.9018 31.0574 14.851 31.0566 14.7891C31.0562 14.7278 31.0065 14.6781 30.9453 14.6777C30.9377 14.6772 30.9353 14.6772 30.9277 14.6777H30.9258ZM19.3242 14.752C19.9535 14.7514 20.4654 15.2613 20.4648 15.8906C20.4645 16.5192 19.9527 17.0279 19.3242 17.0273C18.6963 17.0269 18.1879 16.5185 18.1875 15.8906C18.1869 15.2621 18.6956 14.7524 19.3242 14.752ZM30.9258 15.2402C30.8714 15.2478 30.8317 15.2964 30.832 15.3516C30.8325 15.4135 30.883 15.4633 30.9453 15.4629C31.0065 15.4624 31.0563 15.4128 31.0566 15.3516C31.0562 15.2903 31.0065 15.241 30.9453 15.2402C30.9377 15.2397 30.9353 15.2397 30.9277 15.2402H30.9258ZM30.9453 15.8008C30.8826 15.8002 30.8317 15.8513 30.832 15.9141C30.8325 15.976 30.883 16.0261 30.9453 16.0254C31.0065 16.0249 31.0559 15.9753 31.0566 15.9141C31.0572 15.8521 31.0077 15.8015 30.9453 15.8008ZM30.9375 16.3633C30.8778 16.3669 30.8313 16.4165 30.832 16.4766C30.8325 16.5385 30.883 16.5886 30.9453 16.5879C31.0065 16.5874 31.0563 16.5378 31.0566 16.4766C31.0572 16.4146 31.0073 16.364 30.9453 16.3633C30.9427 16.3632 30.9413 16.3632 30.9375 16.3633ZM24.8867 16.8379C24.0031 16.8379 23.2871 17.5539 23.2871 18.4375C23.2871 19.3212 24.0031 20.0371 24.8867 20.0371C25.7703 20.0371 26.4863 19.3212 26.4863 18.4375C26.4863 17.5539 25.7703 16.8379 24.8867 16.8379ZM30.9375 16.9258C30.8778 16.9294 30.8313 16.979 30.832 17.0391C30.8325 17.101 30.883 17.1508 30.9453 17.1504C31.0065 17.1499 31.0563 17.1007 31.0566 17.0391C31.0572 16.9771 31.0073 16.9265 30.9453 16.9258C30.9427 16.9257 30.9413 16.9257 30.9375 16.9258ZM24.8867 17.2988C25.516 17.2983 26.0279 17.8082 26.0273 18.4375C26.027 19.0661 25.5153 19.5748 24.8867 19.5742C24.2588 19.5738 23.7504 19.0654 23.75 18.4375C23.7494 17.8089 24.2581 17.2992 24.8867 17.2988ZM30.9375 17.4883C30.8785 17.4919 30.8324 17.5406 30.832 17.5996C30.8314 17.6623 30.8826 17.7133 30.9453 17.7129C31.0073 17.7124 31.0574 17.6616 31.0566 17.5996C31.0562 17.5384 31.0065 17.4887 30.9453 17.4883C30.9427 17.4882 30.9413 17.4882 30.9375 17.4883ZM30.9375 18.0508C30.8785 18.0544 30.8324 18.1031 30.832 18.1621C30.8314 18.2248 30.8826 18.2758 30.9453 18.2754C31.0073 18.2749 31.0574 18.2241 31.0566 18.1621C31.0562 18.1009 31.0065 18.0512 30.9453 18.0508C30.9427 18.0507 30.9413 18.0507 30.9375 18.0508ZM30.9375 18.6133C30.8785 18.6169 30.8324 18.6656 30.832 18.7246C30.8314 18.7873 30.8826 18.8383 30.9453 18.8379C31.0073 18.8374 31.0574 18.7866 31.0566 18.7246C31.0562 18.6634 31.0065 18.6137 30.9453 18.6133C30.9427 18.6132 30.9413 18.6132 30.9375 18.6133ZM30.9258 19.1758C30.8714 19.1834 30.8317 19.2319 30.832 19.2871C30.8314 19.3498 30.8826 19.4008 30.9453 19.4004C31.0073 19.3999 31.0574 19.3491 31.0566 19.2871C31.0562 19.2259 31.0065 19.1765 30.9453 19.1758C30.9377 19.1752 30.9353 19.1752 30.9277 19.1758H30.9258ZM19.3242 19.5254C18.4406 19.5254 17.7246 20.2414 17.7246 21.125C17.7246 22.0087 18.4406 22.7246 19.3242 22.7246C20.2078 22.7246 20.9238 22.0087 20.9238 21.125C20.9238 20.2414 20.2078 19.5254 19.3242 19.5254ZM30.9453 19.7363C30.8826 19.7357 30.8317 19.7869 30.832 19.8496C30.8325 19.9116 30.883 19.9617 30.9453 19.9609C31.0065 19.9605 31.0559 19.9108 31.0566 19.8496C31.0572 19.7876 31.0077 19.7371 30.9453 19.7363ZM19.3242 19.9863C19.9535 19.9858 20.4654 20.4957 20.4648 21.125C20.4645 21.7536 19.9528 22.2623 19.3242 22.2617C18.6963 22.2613 18.1879 21.7529 18.1875 21.125C18.1869 20.4964 18.6956 19.9867 19.3242 19.9863ZM30.9375 20.2988C30.8778 20.3024 30.8313 20.352 30.832 20.4121C30.8325 20.4741 30.883 20.5242 30.9453 20.5234C31.0065 20.5229 31.0563 20.4733 31.0566 20.4121C31.0572 20.3501 31.0073 20.2992 30.9453 20.2988C30.9427 20.2987 30.9413 20.2987 30.9375 20.2988ZM30.9375 20.8613C30.8778 20.8649 30.8313 20.9145 30.832 20.9746C30.8325 21.0366 30.883 21.0863 30.9453 21.0859C31.0065 21.0854 31.0563 21.0362 31.0566 20.9746C31.0572 20.9126 31.0073 20.8621 30.9453 20.8613C30.9427 20.8613 30.9413 20.8613 30.9375 20.8613ZM30.9375 21.4238C30.8778 21.4274 30.8313 21.477 30.832 21.5371C30.8325 21.5991 30.883 21.6488 30.9453 21.6484C31.0065 21.6479 31.0563 21.5987 31.0566 21.5371C31.0572 21.4751 31.0073 21.4246 30.9453 21.4238C30.9427 21.4238 30.9413 21.4238 30.9375 21.4238ZM30.9375 21.9863C30.8785 21.9899 30.8324 22.0387 30.832 22.0977C30.8314 22.1604 30.8826 22.2113 30.9453 22.2109C31.0073 22.2104 31.0574 22.1596 31.0566 22.0977C31.0562 22.0364 31.0065 21.9867 30.9453 21.9863C30.9427 21.9862 30.9413 21.9862 30.9375 21.9863ZM24.8867 22.0723C24.0031 22.0723 23.2871 22.7883 23.2871 23.6719C23.2871 24.5555 24.0031 25.2715 24.8867 25.2715C25.7703 25.2715 26.4863 24.5555 26.4863 23.6719C26.4863 22.7883 25.7703 22.0723 24.8867 22.0723ZM24.8867 22.5332C25.516 22.5326 26.0279 23.0426 26.0273 23.6719C26.027 24.3005 25.5152 24.8092 24.8867 24.8086C24.2588 24.8082 23.7504 24.2998 23.75 23.6719C23.7494 23.0433 24.2581 22.5336 24.8867 22.5332ZM30.9375 22.5488C30.8785 22.5524 30.8324 22.6012 30.832 22.6602C30.8314 22.7229 30.8826 22.7738 30.9453 22.7734C31.0073 22.7729 31.0574 22.7221 31.0566 22.6602C31.0562 22.5989 31.0065 22.5492 30.9453 22.5488C30.9427 22.5487 30.9413 22.5487 30.9375 22.5488ZM30.9375 23.1113C30.8785 23.1149 30.8324 23.1633 30.832 23.2227C30.8314 23.2854 30.8826 23.3363 30.9453 23.3359C31.0073 23.3354 31.0574 23.2846 31.0566 23.2227C31.0562 23.1614 31.0065 23.1121 30.9453 23.1113C30.9427 23.1112 30.9413 23.1112 30.9375 23.1113ZM30.9258 23.6738C30.8714 23.6814 30.8317 23.73 30.832 23.7852C30.8314 23.8479 30.8826 23.8988 30.9453 23.8984C31.0073 23.8979 31.0574 23.8471 31.0566 23.7852C31.0562 23.7239 31.0065 23.6746 30.9453 23.6738C30.9377 23.6733 30.9353 23.6733 30.9277 23.6738H30.9258ZM30.9258 24.2363C30.8714 24.2439 30.8317 24.2925 30.832 24.3477C30.8325 24.4096 30.883 24.4597 30.9453 24.459C31.0065 24.4585 31.0563 24.4089 31.0566 24.3477C31.0562 24.2864 31.0065 24.2371 30.9453 24.2363C30.9377 24.2358 30.9353 24.2358 30.9277 24.2363H30.9258ZM19.3242 24.7598C18.4406 24.7598 17.7246 25.4758 17.7246 26.3594C17.7246 27.243 18.4406 27.959 19.3242 27.959C20.2078 27.959 20.9238 27.243 20.9238 26.3594C20.9238 25.4758 20.2078 24.7598 19.3242 24.7598ZM30.9375 24.7969C30.8778 24.8005 30.8313 24.8501 30.832 24.9102C30.8325 24.9721 30.883 25.0219 30.9453 25.0215C31.0065 25.021 31.0563 24.9718 31.0566 24.9102C31.0572 24.8482 31.0073 24.7976 30.9453 24.7969C30.9427 24.7968 30.9413 24.7968 30.9375 24.7969ZM19.3242 25.2207C19.9535 25.2201 20.4654 25.7301 20.4648 26.3594C20.4645 26.988 19.9527 27.4967 19.3242 27.4961C18.6963 27.4957 18.1879 26.9873 18.1875 26.3594C18.1869 25.7308 18.6956 25.2211 19.3242 25.2207ZM30.9375 25.3594C30.8778 25.363 30.8313 25.4126 30.832 25.4727C30.8325 25.5346 30.883 25.5844 30.9453 25.584C31.0065 25.5835 31.0563 25.5343 31.0566 25.4727C31.0572 25.4107 31.0073 25.3601 30.9453 25.3594C30.9427 25.3593 30.9413 25.3593 30.9375 25.3594ZM30.9375 25.9219C30.8778 25.9255 30.8313 25.9751 30.832 26.0352C30.8325 26.0971 30.883 26.1469 30.9453 26.1465C31.0065 26.146 31.0563 26.0968 31.0566 26.0352C31.0572 25.9732 31.0073 25.9226 30.9453 25.9219C30.9427 25.9218 30.9413 25.9218 30.9375 25.9219ZM30.9375 26.4844C30.8785 26.488 30.8324 26.5364 30.832 26.5957C30.8314 26.6584 30.8826 26.7094 30.9453 26.709C31.0073 26.7085 31.0574 26.6577 31.0566 26.5957C31.0562 26.5345 31.0065 26.4851 30.9453 26.4844C30.9427 26.4843 30.9413 26.4843 30.9375 26.4844ZM30.9375 27.0469C30.8785 27.0505 30.8324 27.0989 30.832 27.1582C30.8314 27.2209 30.8826 27.2719 30.9453 27.2715C31.0073 27.271 31.0574 27.2202 31.0566 27.1582C31.0562 27.097 31.0065 27.0476 30.9453 27.0469C30.9427 27.0468 30.9413 27.0468 30.9375 27.0469ZM24.8867 27.3066C24.0031 27.3067 23.2871 28.0226 23.2871 28.9062C23.2871 29.7899 24.0031 30.5059 24.8867 30.5059C25.7703 30.5059 26.4863 29.7899 26.4863 28.9062C26.4863 28.0226 25.7703 27.3067 24.8867 27.3066ZM30.9375 27.6094C30.8785 27.613 30.8324 27.6614 30.832 27.7207C30.8314 27.7834 30.8826 27.8344 30.9453 27.834C31.0073 27.8335 31.0574 27.7827 31.0566 27.7207C31.0562 27.6595 31.0065 27.6101 30.9453 27.6094C30.9427 27.6093 30.9413 27.6093 30.9375 27.6094ZM24.8867 27.7676C25.516 27.767 26.0279 28.277 26.0273 28.9062C26.027 29.5349 25.5152 30.0435 24.8867 30.043C24.2588 30.0425 23.7504 29.5341 23.75 28.9062C23.7494 28.2777 24.2581 27.768 24.8867 27.7676ZM30.9258 28.1719C30.8714 28.1795 30.8317 28.228 30.832 28.2832C30.8325 28.3452 30.883 28.3953 30.9453 28.3945C31.0065 28.394 31.0563 28.3444 31.0566 28.2832C31.0562 28.222 31.0065 28.1726 30.9453 28.1719C30.9377 28.1713 30.9353 28.1713 30.9277 28.1719H30.9258ZM30.9453 28.7324C30.8826 28.7318 30.8317 28.783 30.832 28.8457C30.8325 28.9077 30.883 28.9574 30.9453 28.957C31.0065 28.9565 31.0559 28.9073 31.0566 28.8457C31.0572 28.7837 31.0077 28.7332 30.9453 28.7324ZM30.9375 29.2949C30.8778 29.2985 30.8313 29.3481 30.832 29.4082C30.8325 29.4702 30.883 29.5199 30.9453 29.5195C31.0065 29.519 31.0563 29.4698 31.0566 29.4082C31.0572 29.3462 31.0073 29.2957 30.9453 29.2949C30.9427 29.2948 30.9413 29.2948 30.9375 29.2949ZM30.9375 29.8574C30.8778 29.861 30.8313 29.9106 30.832 29.9707C30.8325 30.0327 30.883 30.0824 30.9453 30.082C31.0065 30.0815 31.0563 30.0323 31.0566 29.9707C31.0572 29.9087 31.0073 29.8582 30.9453 29.8574C30.9427 29.8573 30.9413 29.8573 30.9375 29.8574ZM19.3242 29.9941C18.4406 29.9942 17.7246 30.7101 17.7246 31.5937C17.7246 32.4774 18.4406 33.1934 19.3242 33.1934C20.2078 33.1934 20.9238 32.4774 20.9238 31.5937C20.9238 30.7101 20.2078 29.9942 19.3242 29.9941ZM30.9375 30.4199C30.8778 30.4235 30.8313 30.4731 30.832 30.5332C30.8325 30.5952 30.883 30.6453 30.9453 30.6445C31.0065 30.6441 31.0563 30.5944 31.0566 30.5332C31.0572 30.4712 31.0073 30.4207 30.9453 30.4199C30.9427 30.4198 30.9413 30.4198 30.9375 30.4199ZM19.3242 30.4551C19.9535 30.4545 20.4654 30.9645 20.4648 31.5937C20.4645 32.2224 19.9527 32.731 19.3242 32.7305C18.6963 32.73 18.1879 32.2216 18.1875 31.5937C18.1869 30.9652 18.6956 30.4555 19.3242 30.4551ZM30.9375 30.9824C30.8785 30.986 30.8324 31.0344 30.832 31.0937C30.8314 31.1565 30.8826 31.2074 30.9453 31.207C31.0073 31.2065 31.0574 31.1557 31.0566 31.0937C31.0562 31.0325 31.0065 30.9832 30.9453 30.9824C30.9427 30.9823 30.9413 30.9823 30.9375 30.9824ZM30.9375 31.5449C30.8785 31.5485 30.8324 31.5969 30.832 31.6562C30.8314 31.719 30.8826 31.7699 30.9453 31.7695C31.0073 31.769 31.0574 31.7182 31.0566 31.6562C31.0562 31.595 31.0065 31.5457 30.9453 31.5449C30.9427 31.5448 30.9413 31.5448 30.9375 31.5449ZM30.9258 32.1074C30.8714 32.115 30.8317 32.1636 30.832 32.2187C30.8314 32.2815 30.8826 32.3324 30.9453 32.332C31.0073 32.3315 31.0574 32.2807 31.0566 32.2187C31.0562 32.1575 31.0065 32.1082 30.9453 32.1074C30.9377 32.1069 30.9353 32.1069 30.9277 32.1074H30.9258ZM24.8867 32.541C24.0031 32.541 23.2871 33.257 23.2871 34.1406C23.2871 35.0243 24.0031 35.7402 24.8867 35.7402C25.7703 35.7402 26.4863 35.0243 26.4863 34.1406C26.4863 33.257 25.7703 32.541 24.8867 32.541ZM30.9258 32.6699C30.8714 32.6775 30.8317 32.7264 30.832 32.7812C30.8325 32.8432 30.883 32.893 30.9453 32.8926C31.0065 32.8921 31.0563 32.8429 31.0566 32.7812C31.0562 32.72 31.0065 32.6703 30.9453 32.6699C30.9377 32.6694 30.9353 32.6694 30.9277 32.6699H30.9258ZM24.8867 33.0019C25.516 33.0014 26.0279 33.5113 26.0273 34.1406C26.027 34.7692 25.5152 35.2779 24.8867 35.2773C24.2588 35.2769 23.7504 34.7685 23.75 34.1406C23.7494 33.512 24.2581 33.0024 24.8867 33.0019ZM30.9453 33.2305C30.8826 33.2299 30.8317 33.281 30.832 33.3437C30.8325 33.4057 30.883 33.4555 30.9453 33.4551C31.0065 33.4546 31.0559 33.4054 31.0566 33.3437C31.0572 33.2818 31.0077 33.2312 30.9453 33.2305ZM30.9375 33.793C30.8778 33.7966 30.8313 33.8462 30.832 33.9062C30.8325 33.9682 30.883 34.018 30.9453 34.0176C31.0065 34.0171 31.0563 33.9679 31.0566 33.9062C31.0572 33.8443 31.0073 33.7937 30.9453 33.793C30.9427 33.7929 30.9413 33.7929 30.9375 33.793ZM30.9375 34.3555C30.8778 34.3591 30.8313 34.4087 30.832 34.4687C30.8325 34.5307 30.883 34.5805 30.9453 34.5801C31.0065 34.5796 31.0563 34.5304 31.0566 34.4687C31.0572 34.4068 31.0073 34.3562 30.9453 34.3555C30.9427 34.3554 30.9413 34.3554 30.9375 34.3555ZM30.9375 34.918C30.8785 34.9216 30.8324 34.97 30.832 35.0293C30.8314 35.092 30.8826 35.143 30.9453 35.1426C31.0073 35.1421 31.0574 35.0913 31.0566 35.0293C31.0562 34.9681 31.0065 34.9187 30.9453 34.918C30.9427 34.9179 30.9413 34.9179 30.9375 34.918ZM19.3242 35.2285C18.4406 35.2285 17.7246 35.9445 17.7246 36.8281C17.7246 37.7118 18.4406 38.4277 19.3242 38.4277C20.2078 38.4277 20.9238 37.7118 20.9238 36.8281C20.9238 35.9445 20.2078 35.2285 19.3242 35.2285ZM30.9375 35.4805C30.8785 35.4841 30.8324 35.5325 30.832 35.5918C30.8314 35.6545 30.8826 35.7055 30.9453 35.7051C31.0073 35.7046 31.0574 35.6538 31.0566 35.5918C31.0562 35.5306 31.0065 35.4812 30.9453 35.4805C30.9427 35.4804 30.9413 35.4804 30.9375 35.4805ZM19.3242 35.6894C19.9535 35.6889 20.4654 36.1988 20.4648 36.8281C20.4645 37.4567 19.9527 37.9654 19.3242 37.9648C18.6963 37.9644 18.1879 37.456 18.1875 36.8281C18.1869 36.1995 18.6956 35.6899 19.3242 35.6894ZM30.9375 36.043C30.8785 36.0466 30.8324 36.095 30.832 36.1543C30.8314 36.217 30.8826 36.268 30.9453 36.2676C31.0073 36.2671 31.0574 36.2163 31.0566 36.1543C31.0562 36.0931 31.0065 36.0437 30.9453 36.043C30.9427 36.0429 30.9413 36.0429 30.9375 36.043ZM30.9375 36.6055C30.8785 36.6091 30.8324 36.6575 30.832 36.7168C30.8314 36.7795 30.8826 36.8305 30.9453 36.8301C31.0073 36.8296 31.0574 36.7788 31.0566 36.7168C31.0562 36.6556 31.0065 36.6062 30.9453 36.6055C30.9427 36.6054 30.9413 36.6054 30.9375 36.6055ZM30.9258 37.168C30.8714 37.1756 30.8317 37.2241 30.832 37.2793C30.8325 37.3413 30.883 37.3914 30.9453 37.3906C31.0065 37.3901 31.0563 37.3405 31.0566 37.2793C31.0562 37.2181 31.0065 37.1687 30.9453 37.168C30.9377 37.1674 30.9353 37.1674 30.9277 37.168H30.9258ZM24.9746 37.6152C24.091 37.6153 23.375 38.3312 23.375 39.2148C23.375 40.0985 24.091 40.8144 24.9746 40.8144C25.8583 40.8144 26.5742 40.0985 26.5742 39.2148C26.5742 38.3312 25.8583 37.6153 24.9746 37.6152ZM30.9375 37.7285C30.8778 37.7321 30.8313 37.7817 30.832 37.8418C30.8325 37.9038 30.883 37.9535 30.9453 37.9531C31.0065 37.9526 31.0563 37.9034 31.0566 37.8418C31.0572 37.7798 31.0073 37.7293 30.9453 37.7285C30.9427 37.7284 30.9413 37.7284 30.9375 37.7285ZM24.9746 38.0762C25.6032 38.0766 26.1119 38.5863 26.1113 39.2148C26.1109 39.8427 25.6025 40.3511 24.9746 40.3516C24.3461 40.3521 23.8344 39.8435 23.834 39.2148C23.8334 38.5855 24.3454 38.0756 24.9746 38.0762ZM30.9375 38.291C30.8778 38.2946 30.8313 38.3442 30.832 38.4043C30.8325 38.4663 30.883 38.516 30.9453 38.5156C31.0065 38.5151 31.0563 38.4659 31.0566 38.4043C31.0572 38.3423 31.0073 38.2918 30.9453 38.291C30.9427 38.2909 30.9413 38.2909 30.9375 38.291ZM30.9375 38.8535C30.8778 38.8571 30.8313 38.9067 30.832 38.9668C30.8325 39.0288 30.883 39.0785 30.9453 39.0781C31.0065 39.0776 31.0563 39.0284 31.0566 38.9668C31.0572 38.9048 31.0073 38.8543 30.9453 38.8535C30.9427 38.8534 30.9413 38.8534 30.9375 38.8535ZM30.9375 39.416C30.8785 39.4196 30.8324 39.468 30.832 39.5273C30.8314 39.5901 30.8826 39.641 30.9453 39.6406C31.0073 39.6401 31.0574 39.5893 31.0566 39.5273C31.0562 39.4661 31.0065 39.4168 30.9453 39.416C30.9427 39.4159 30.9413 39.4159 30.9375 39.416ZM30.9375 39.9785C30.8785 39.9821 30.8324 40.0305 30.832 40.0898C30.8314 40.1526 30.8826 40.2035 30.9453 40.2031C31.0073 40.2026 31.0574 40.1518 31.0566 40.0898C31.0562 40.0286 31.0065 39.9793 30.9453 39.9785C30.9427 39.9784 30.9413 39.9784 30.9375 39.9785ZM30.9375 40.541C30.8785 40.5446 30.8324 40.593 30.832 40.6523C30.8314 40.7151 30.8826 40.766 30.9453 40.7656C31.0073 40.7651 31.0574 40.7143 31.0566 40.6523C31.0562 40.5911 31.0065 40.5418 30.9453 40.541C30.9427 40.5409 30.9413 40.5409 30.9375 40.541ZM30.9258 41.1035C30.8714 41.1111 30.8317 41.1597 30.832 41.2148C30.8314 41.2776 30.8826 41.3285 30.9453 41.3281C31.0073 41.3276 31.0574 41.2768 31.0566 41.2148C31.0562 41.1536 31.0065 41.1043 30.9453 41.1035C30.9377 41.1029 30.9353 41.1029 30.9277 41.1035H30.9258ZM30.9258 41.666C30.8714 41.6736 30.8317 41.7222 30.832 41.7773C30.8325 41.8393 30.883 41.889 30.9453 41.8887C31.0065 41.8882 31.0563 41.8389 31.0566 41.7773C31.0562 41.7161 31.0065 41.6668 30.9453 41.666C30.9377 41.6654 30.9353 41.6654 30.9277 41.666H30.9258ZM30.9453 42.2266C30.8826 42.226 30.8317 42.2771 30.832 42.3398C30.8325 42.4018 30.883 42.4515 30.9453 42.4512C31.0065 42.4507 31.0559 42.4014 31.0566 42.3398C31.0572 42.2779 31.0077 42.2273 30.9453 42.2266ZM30.9375 42.7891C30.8778 42.7927 30.8313 42.8422 30.832 42.9023C30.8325 42.9643 30.883 43.014 30.9453 43.0137C31.0065 43.0132 31.0563 42.9639 31.0566 42.9023C31.0572 42.8404 31.0073 42.7898 30.9453 42.7891C30.9427 42.7889 30.9413 42.7889 30.9375 42.7891Z" fill="#333333"/>
</svg>
