<svg width="48" height="48" viewBox="0 0 48 48" fill="none" xmlns="http://www.w3.org/2000/svg">
<path d="M14.2402 3.82227C13.3708 3.82227 12.6719 4.52118 12.6719 5.39062V42.2519C12.6719 43.1214 13.3708 43.8223 14.2402 43.8223H33.9453C34.8148 43.8223 35.5137 43.1214 35.5137 42.2519V5.39062C35.5137 4.52118 34.8148 3.82227 33.9453 3.82227H14.2402ZM14.6719 4.32227H33.5117C34.343 4.32227 35.0137 5.00389 35.0137 5.85156V41.791C35.0137 42.6387 34.343 43.3223 33.5117 43.3223H14.6719C13.8406 43.3223 13.1719 42.6387 13.1719 41.791V5.85156C13.1719 5.00389 13.8406 4.32227 14.6719 4.32227ZM30.9375 4.55664C30.8785 4.56019 30.8324 4.60863 30.832 4.66797C30.8314 4.73071 30.8826 4.78163 30.9453 4.78125C31.0073 4.78076 31.0574 4.72995 31.0566 4.66797C31.0562 4.60674 31.0065 4.5574 30.9453 4.55664C30.9427 4.55656 30.9413 4.55656 30.9375 4.55664ZM30.9375 5.11914C30.8785 5.12269 30.8324 5.17113 30.832 5.23047C30.8314 5.29321 30.8826 5.34413 30.9453 5.34375C31.0073 5.34326 31.0574 5.29245 31.0566 5.23047C31.0562 5.16924 31.0065 5.1199 30.9453 5.11914C30.9427 5.11906 30.9413 5.11906 30.9375 5.11914ZM30.9375 5.68164C30.8785 5.68519 30.8324 5.73363 30.832 5.79297C30.8314 5.85571 30.8826 5.90663 30.9453 5.90625C31.0073 5.90576 31.0574 5.85495 31.0566 5.79297C31.0562 5.73174 31.0065 5.6824 30.9453 5.68164C30.9427 5.68156 30.9413 5.68156 30.9375 5.68164ZM30.9258 6.24414C30.8714 6.2517 30.8317 6.30029 30.832 6.35547C30.8325 6.41745 30.8829 6.46717 30.9453 6.4668C31.0065 6.46631 31.0563 6.41707 31.0566 6.35547C31.0562 6.29424 31.0065 6.2449 30.9453 6.24414C30.9377 6.24357 30.9353 6.24357 30.9277 6.24414H30.9258ZM30.9453 6.80469C30.8826 6.80408 30.8317 6.85523 30.832 6.91797C30.8325 6.97995 30.8829 7.02967 30.9453 7.0293C31.0065 7.0288 31.0559 6.97957 31.0566 6.91797C31.0572 6.85598 31.0077 6.80544 30.9453 6.80469ZM30.9375 7.36719C30.8778 7.37078 30.8313 7.42037 30.832 7.48047C30.8325 7.54245 30.8829 7.59217 30.9453 7.5918C31.0065 7.5913 31.0563 7.54207 31.0566 7.48047C31.0572 7.41848 31.0073 7.36794 30.9453 7.36719C30.9427 7.36707 30.9413 7.36707 30.9375 7.36719ZM30.9375 7.92969C30.8778 7.93332 30.8313 7.98287 30.832 8.04297C30.8325 8.10495 30.8829 8.15467 30.9453 8.1543C31.0065 8.15384 31.0563 8.10457 31.0566 8.04297C31.0572 7.98098 31.0073 7.93044 30.9453 7.92969C30.9427 7.92961 30.9413 7.92961 30.9375 7.92969ZM30.9375 8.49219C30.8778 8.49578 30.8313 8.54537 30.832 8.60547C30.8325 8.66745 30.8829 8.71717 30.9453 8.7168C31.0065 8.7163 31.0563 8.66707 31.0566 8.60547C31.0572 8.54348 31.0073 8.49294 30.9453 8.49219C30.9427 8.49211 30.9413 8.49211 30.9375 8.49219ZM30.9375 9.05469C30.8785 9.05824 30.8324 9.10668 30.832 9.16601C30.8314 9.22875 30.8826 9.27967 30.9453 9.2793C31.0073 9.2788 31.0574 9.228 31.0566 9.16601C31.0562 9.10479 31.0065 9.05544 30.9453 9.05469C30.9427 9.05461 30.9413 9.05461 30.9375 9.05469ZM24.4004 9.46289C23.5167 9.46293 22.8008 10.1789 22.8008 11.0625C22.8008 11.9462 23.5167 12.6621 24.4004 12.6621C25.284 12.6621 26 11.9462 26 11.0625C26 10.1789 25.284 9.46293 24.4004 9.46289ZM30.9375 9.61719C30.8785 9.62079 30.8324 9.66918 30.832 9.72851C30.8314 9.79125 30.8826 9.84217 30.9453 9.8418C31.0073 9.8413 31.0574 9.7905 31.0566 9.72851C31.0562 9.66728 31.0065 9.61794 30.9453 9.61719C30.9427 9.61707 30.9413 9.61707 30.9375 9.61719ZM24.4004 9.92383C25.0296 9.92326 25.5416 10.4332 25.541 11.0625C25.5406 11.6911 25.0289 12.1998 24.4004 12.1992C23.7725 12.1988 23.264 11.6904 23.2637 11.0625C23.2631 10.4339 23.7718 9.92424 24.4004 9.92383ZM30.9258 10.1797C30.8714 10.1873 30.8317 10.2358 30.832 10.291C30.8314 10.3538 30.8826 10.4047 30.9453 10.4043C31.0073 10.4038 31.0574 10.353 31.0566 10.291C31.0562 10.2298 31.0065 10.1804 30.9453 10.1797C30.9377 10.1791 30.9353 10.1791 30.9277 10.1797H30.9258ZM30.9453 10.7402C30.8826 10.7396 30.8317 10.7908 30.832 10.8535C30.8325 10.9155 30.8829 10.9652 30.9453 10.9648C31.0065 10.9644 31.0559 10.9151 31.0566 10.8535C31.0572 10.7915 31.0077 10.741 30.9453 10.7402ZM30.9453 11.3027C30.8826 11.3021 30.8317 11.3533 30.832 11.416C30.8325 11.478 30.8829 11.5281 30.9453 11.5273C31.0065 11.5269 31.0559 11.4772 31.0566 11.416C31.0572 11.354 31.0077 11.3035 30.9453 11.3027ZM30.9375 11.8652C30.8778 11.8688 30.8313 11.9184 30.832 11.9785C30.8325 12.0405 30.8829 12.0906 30.9453 12.0898C31.0065 12.0894 31.0563 12.0397 31.0566 11.9785C31.0572 11.9165 31.0073 11.866 30.9453 11.8652C30.9427 11.8651 30.9413 11.8651 30.9375 11.8652ZM18.8379 12.1504C17.9542 12.1504 17.2383 12.8664 17.2383 13.75C17.2383 14.6337 17.9542 15.3496 18.8379 15.3496C19.7215 15.3496 20.4375 14.6337 20.4375 13.75C20.4375 12.8664 19.7215 12.1504 18.8379 12.1504ZM30.9375 12.4277C30.8778 12.4313 30.8313 12.4809 30.832 12.541C30.8325 12.603 30.8829 12.6531 30.9453 12.6523C31.0065 12.6519 31.0563 12.6022 31.0566 12.541C31.0572 12.479 31.0073 12.4281 30.9453 12.4277C30.9427 12.4277 30.9413 12.4277 30.9375 12.4277ZM18.8379 12.6113C19.4671 12.6108 19.9791 13.1207 19.9785 13.75C19.9781 14.3786 19.4664 14.8873 18.8379 14.8867C18.21 14.8863 17.7015 14.3779 17.7012 13.75C17.7006 13.1214 18.2093 12.6117 18.8379 12.6113ZM30.9375 12.9902C30.8785 12.9938 30.8324 13.0422 30.832 13.1016C30.8314 13.1643 30.8826 13.2152 30.9453 13.2148C31.0073 13.2144 31.0574 13.1635 31.0566 13.1016C31.0562 13.0403 31.0065 12.991 30.9453 12.9902C30.9427 12.9902 30.9413 12.9902 30.9375 12.9902ZM30.9375 13.5527C30.8785 13.5563 30.8324 13.6047 30.832 13.6641C30.8314 13.7268 30.8826 13.7777 30.9453 13.7773C31.0073 13.7769 31.0574 13.726 31.0566 13.6641C31.0562 13.6028 31.0065 13.5535 30.9453 13.5527C30.9427 13.5527 30.9413 13.5527 30.9375 13.5527ZM30.9375 14.1152C30.8785 14.1188 30.8324 14.1676 30.832 14.2266C30.8314 14.2893 30.8826 14.3402 30.9453 14.3398C31.0073 14.3394 31.0574 14.2885 31.0566 14.2266C31.0562 14.1653 31.0065 14.1156 30.9453 14.1152C30.9427 14.1151 30.9413 14.1151 30.9375 14.1152ZM30.9258 14.6777C30.8714 14.6853 30.8317 14.7343 30.832 14.7891C30.8314 14.8518 30.8826 14.9027 30.9453 14.9023C31.0073 14.9018 31.0574 14.851 31.0566 14.7891C31.0562 14.7278 31.0065 14.6781 30.9453 14.6777C30.9377 14.6772 30.9353 14.6772 30.9277 14.6777H30.9258ZM24.4004 14.6973C23.5167 14.6973 22.8008 15.4133 22.8008 16.2969C22.8008 17.1805 23.5167 17.8965 24.4004 17.8965C25.284 17.8965 26 17.1805 26 16.2969C26 15.4133 25.284 14.6973 24.4004 14.6973ZM24.4004 15.1582C25.0296 15.1576 25.5416 15.6676 25.541 16.2969C25.5406 16.9255 25.0289 17.4342 24.4004 17.4336C23.7725 17.4332 23.264 16.9248 23.2637 16.2969C23.2631 15.6683 23.7718 15.1586 24.4004 15.1582ZM30.9258 15.2402C30.8714 15.2478 30.8317 15.2964 30.832 15.3516C30.8325 15.4135 30.8829 15.4633 30.9453 15.4629C31.0065 15.4624 31.0563 15.4128 31.0566 15.3516C31.0562 15.2903 31.0065 15.241 30.9453 15.2402C30.9377 15.2397 30.9353 15.2397 30.9277 15.2402H30.9258ZM30.9453 15.8008C30.8826 15.8002 30.8317 15.8513 30.832 15.9141C30.8325 15.976 30.8829 16.0261 30.9453 16.0254C31.0065 16.0249 31.0559 15.9753 31.0566 15.9141C31.0572 15.8521 31.0077 15.8015 30.9453 15.8008ZM30.9375 16.3633C30.8778 16.3669 30.8313 16.4165 30.832 16.4766C30.8325 16.5385 30.8829 16.5886 30.9453 16.5879C31.0065 16.5874 31.0563 16.5378 31.0566 16.4766C31.0572 16.4146 31.0073 16.364 30.9453 16.3633C30.9427 16.3632 30.9413 16.3632 30.9375 16.3633ZM30.9375 16.9258C30.8778 16.9294 30.8313 16.979 30.832 17.0391C30.8325 17.101 30.8829 17.1508 30.9453 17.1504C31.0065 17.1499 31.0563 17.1007 31.0566 17.0391C31.0572 16.9771 31.0073 16.9265 30.9453 16.9258C30.9427 16.9257 30.9413 16.9257 30.9375 16.9258ZM18.8379 17.3848C17.9542 17.3848 17.2383 18.1008 17.2383 18.9844C17.2383 19.868 17.9542 20.584 18.8379 20.584C19.7215 20.584 20.4375 19.868 20.4375 18.9844C20.4375 18.1008 19.7215 17.3848 18.8379 17.3848ZM30.9375 17.4883C30.8785 17.4919 30.8324 17.5406 30.832 17.5996C30.8314 17.6623 30.8826 17.7133 30.9453 17.7129C31.0073 17.7124 31.0574 17.6616 31.0566 17.5996C31.0562 17.5384 31.0065 17.4887 30.9453 17.4883C30.9427 17.4882 30.9413 17.4882 30.9375 17.4883ZM18.8379 17.8457C19.4671 17.8451 19.9791 18.3551 19.9785 18.9844C19.9781 19.613 19.4664 20.1217 18.8379 20.1211C18.21 20.1207 17.7015 19.6123 17.7012 18.9844C17.7006 18.3558 18.2093 17.8461 18.8379 17.8457ZM30.9375 18.0508C30.8785 18.0544 30.8324 18.1031 30.832 18.1621C30.8314 18.2248 30.8826 18.2758 30.9453 18.2754C31.0073 18.2749 31.0574 18.2241 31.0566 18.1621C31.0562 18.1009 31.0065 18.0512 30.9453 18.0508C30.9427 18.0507 30.9413 18.0507 30.9375 18.0508ZM30.9375 18.6133C30.8785 18.6169 30.8324 18.6656 30.832 18.7246C30.8314 18.7873 30.8826 18.8383 30.9453 18.8379C31.0073 18.8374 31.0574 18.7866 31.0566 18.7246C31.0562 18.6634 31.0065 18.6137 30.9453 18.6133C30.9427 18.6132 30.9413 18.6132 30.9375 18.6133ZM30.9258 19.1758C30.8714 19.1834 30.8317 19.2319 30.832 19.2871C30.8314 19.3498 30.8826 19.4008 30.9453 19.4004C31.0073 19.3999 31.0574 19.3491 31.0566 19.2871C31.0562 19.2259 31.0065 19.1765 30.9453 19.1758C30.9377 19.1752 30.9353 19.1752 30.9277 19.1758H30.9258ZM30.9453 19.7363C30.8826 19.7357 30.8317 19.7869 30.832 19.8496C30.8325 19.9116 30.8829 19.9617 30.9453 19.9609C31.0065 19.9605 31.0559 19.9108 31.0566 19.8496C31.0572 19.7876 31.0077 19.7371 30.9453 19.7363ZM24.4004 19.9316C23.5167 19.9317 22.8008 20.6476 22.8008 21.5312C22.8008 22.4149 23.5167 23.1309 24.4004 23.1309C25.284 23.1309 26 22.4149 26 21.5312C26 20.6476 25.284 19.9317 24.4004 19.9316ZM30.9375 20.2988C30.8778 20.3024 30.8313 20.352 30.832 20.4121C30.8325 20.4741 30.8829 20.5242 30.9453 20.5234C31.0065 20.5229 31.0563 20.4733 31.0566 20.4121C31.0572 20.3501 31.0073 20.2992 30.9453 20.2988C30.9427 20.2987 30.9413 20.2987 30.9375 20.2988ZM24.4004 20.3926C25.0296 20.392 25.5416 20.902 25.541 21.5312C25.5406 22.1599 25.0289 22.6685 24.4004 22.668C23.7725 22.6675 23.264 22.1591 23.2637 21.5312C23.2631 20.9027 23.7718 20.393 24.4004 20.3926ZM30.9375 20.8613C30.8778 20.8649 30.8313 20.9145 30.832 20.9746C30.8325 21.0366 30.8829 21.0863 30.9453 21.0859C31.0065 21.0854 31.0563 21.0362 31.0566 20.9746C31.0572 20.9126 31.0073 20.8621 30.9453 20.8613C30.9427 20.8613 30.9413 20.8613 30.9375 20.8613ZM30.9375 21.4238C30.8778 21.4274 30.8313 21.477 30.832 21.5371C30.8325 21.5991 30.8829 21.6488 30.9453 21.6484C31.0065 21.6479 31.0563 21.5987 31.0566 21.5371C31.0572 21.4751 31.0073 21.4246 30.9453 21.4238C30.9427 21.4238 30.9413 21.4238 30.9375 21.4238ZM30.9375 21.9863C30.8785 21.9899 30.8324 22.0387 30.832 22.0977C30.8314 22.1604 30.8826 22.2113 30.9453 22.2109C31.0073 22.2104 31.0574 22.1596 31.0566 22.0977C31.0562 22.0364 31.0065 21.9867 30.9453 21.9863C30.9427 21.9862 30.9413 21.9862 30.9375 21.9863ZM30.9375 22.5488C30.8785 22.5524 30.8324 22.6012 30.832 22.6602C30.8314 22.7229 30.8826 22.7738 30.9453 22.7734C31.0073 22.7729 31.0574 22.7221 31.0566 22.6602C31.0562 22.5989 31.0065 22.5492 30.9453 22.5488C30.9427 22.5487 30.9413 22.5487 30.9375 22.5488ZM18.8379 22.6191C17.9542 22.6192 17.2383 23.3351 17.2383 24.2187C17.2383 25.1024 17.9542 25.8184 18.8379 25.8184C19.7215 25.8184 20.4375 25.1024 20.4375 24.2187C20.4375 23.3351 19.7215 22.6192 18.8379 22.6191ZM18.8379 23.0801C19.4671 23.0795 19.9791 23.5895 19.9785 24.2187C19.9781 24.8474 19.4664 25.356 18.8379 25.3555C18.21 25.355 17.7015 24.8466 17.7012 24.2187C17.7006 23.5902 18.2093 23.0805 18.8379 23.0801ZM30.9375 23.1113C30.8785 23.1149 30.8324 23.1633 30.832 23.2227C30.8314 23.2854 30.8826 23.3363 30.9453 23.3359C31.0073 23.3354 31.0574 23.2846 31.0566 23.2227C31.0562 23.1614 31.0065 23.1121 30.9453 23.1113C30.9427 23.1112 30.9413 23.1112 30.9375 23.1113ZM30.9258 23.6738C30.8714 23.6814 30.8317 23.73 30.832 23.7852C30.8314 23.8479 30.8826 23.8988 30.9453 23.8984C31.0073 23.8979 31.0574 23.8471 31.0566 23.7852C31.0562 23.7239 31.0065 23.6746 30.9453 23.6738C30.9377 23.6733 30.9353 23.6733 30.9277 23.6738H30.9258ZM30.9258 24.2363C30.8714 24.2439 30.8317 24.2925 30.832 24.3477C30.8325 24.4096 30.8829 24.4597 30.9453 24.459C31.0065 24.4585 31.0563 24.4089 31.0566 24.3477C31.0562 24.2864 31.0065 24.2371 30.9453 24.2363C30.9377 24.2358 30.9353 24.2358 30.9277 24.2363H30.9258ZM30.9375 24.7969C30.8778 24.8005 30.8313 24.8501 30.832 24.9102C30.8325 24.9721 30.8829 25.0219 30.9453 25.0215C31.0065 25.021 31.0563 24.9718 31.0566 24.9102C31.0572 24.8482 31.0073 24.7976 30.9453 24.7969C30.9427 24.7968 30.9413 24.7968 30.9375 24.7969ZM24.4004 25.166C23.5167 25.1661 22.8008 25.882 22.8008 26.7656C22.8008 27.6493 23.5167 28.3652 24.4004 28.3652C25.284 28.3652 26 27.6493 26 26.7656C26 25.882 25.284 25.1661 24.4004 25.166ZM30.9375 25.3594C30.8778 25.363 30.8313 25.4126 30.832 25.4727C30.8325 25.5346 30.8829 25.5844 30.9453 25.584C31.0065 25.5835 31.0563 25.5343 31.0566 25.4727C31.0572 25.4107 31.0073 25.3601 30.9453 25.3594C30.9427 25.3593 30.9413 25.3593 30.9375 25.3594ZM24.4004 25.6269C25.0296 25.6264 25.5416 26.1363 25.541 26.7656C25.5406 27.3942 25.0289 27.9029 24.4004 27.9023C23.7725 27.9019 23.264 27.3935 23.2637 26.7656C23.2631 26.137 23.7718 25.6274 24.4004 25.6269ZM30.9375 25.9219C30.8778 25.9255 30.8313 25.9751 30.832 26.0352C30.8325 26.0971 30.8829 26.1469 30.9453 26.1465C31.0065 26.146 31.0563 26.0968 31.0566 26.0352C31.0572 25.9732 31.0073 25.9226 30.9453 25.9219C30.9427 25.9218 30.9413 25.9218 30.9375 25.9219ZM30.9375 26.4844C30.8785 26.488 30.8324 26.5364 30.832 26.5957C30.8314 26.6584 30.8826 26.7094 30.9453 26.709C31.0073 26.7085 31.0574 26.6577 31.0566 26.5957C31.0562 26.5345 31.0065 26.4851 30.9453 26.4844C30.9427 26.4843 30.9413 26.4843 30.9375 26.4844ZM30.9375 27.0469C30.8785 27.0505 30.8324 27.0989 30.832 27.1582C30.8314 27.2209 30.8826 27.2719 30.9453 27.2715C31.0073 27.271 31.0574 27.2202 31.0566 27.1582C31.0562 27.097 31.0065 27.0476 30.9453 27.0469C30.9427 27.0468 30.9413 27.0468 30.9375 27.0469ZM30.9375 27.6094C30.8785 27.613 30.8324 27.6614 30.832 27.7207C30.8314 27.7834 30.8826 27.8344 30.9453 27.834C31.0073 27.8335 31.0574 27.7827 31.0566 27.7207C31.0562 27.6595 31.0065 27.6101 30.9453 27.6094C30.9427 27.6093 30.9413 27.6093 30.9375 27.6094ZM18.8379 27.8535C17.9542 27.8535 17.2383 28.5695 17.2383 29.4531C17.2383 30.3368 17.9542 31.0527 18.8379 31.0527C19.7215 31.0527 20.4375 30.3368 20.4375 29.4531C20.4375 28.5695 19.7215 27.8535 18.8379 27.8535ZM30.9258 28.1719C30.8714 28.1795 30.8317 28.228 30.832 28.2832C30.8325 28.3452 30.8829 28.3953 30.9453 28.3945C31.0065 28.394 31.0563 28.3444 31.0566 28.2832C31.0562 28.222 31.0065 28.1726 30.9453 28.1719C30.9377 28.1713 30.9353 28.1713 30.9277 28.1719H30.9258ZM18.8379 28.3144C19.4671 28.3139 19.9791 28.8238 19.9785 29.4531C19.9781 30.0817 19.4664 30.5904 18.8379 30.5898C18.21 30.5894 17.7015 30.081 17.7012 29.4531C17.7006 28.8245 18.2093 28.3149 18.8379 28.3144ZM30.9453 28.7324C30.8826 28.7318 30.8317 28.783 30.832 28.8457C30.8325 28.9077 30.8829 28.9574 30.9453 28.957C31.0065 28.9565 31.0559 28.9073 31.0566 28.8457C31.0572 28.7837 31.0077 28.7332 30.9453 28.7324ZM30.9375 29.2949C30.8778 29.2985 30.8313 29.3481 30.832 29.4082C30.8325 29.4702 30.8829 29.5199 30.9453 29.5195C31.0065 29.519 31.0563 29.4698 31.0566 29.4082C31.0572 29.3462 31.0073 29.2957 30.9453 29.2949C30.9427 29.2948 30.9413 29.2948 30.9375 29.2949ZM30.9375 29.8574C30.8778 29.861 30.8313 29.9106 30.832 29.9707C30.8325 30.0327 30.8829 30.0824 30.9453 30.082C31.0065 30.0815 31.0563 30.0323 31.0566 29.9707C31.0572 29.9087 31.0073 29.8582 30.9453 29.8574C30.9427 29.8573 30.9413 29.8573 30.9375 29.8574ZM24.4004 30.4004C23.5167 30.4004 22.8008 31.1164 22.8008 32C22.8008 32.8837 23.5167 33.5996 24.4004 33.5996C25.284 33.5996 26 32.8837 26 32C26 31.1164 25.284 30.4004 24.4004 30.4004ZM30.9375 30.4199C30.8778 30.4235 30.8313 30.4731 30.832 30.5332C30.8325 30.5952 30.8829 30.6453 30.9453 30.6445C31.0065 30.6441 31.0563 30.5944 31.0566 30.5332C31.0572 30.4712 31.0073 30.4207 30.9453 30.4199C30.9427 30.4198 30.9413 30.4198 30.9375 30.4199ZM24.4004 30.8613C25.0296 30.8608 25.5416 31.3707 25.541 32C25.5406 32.6286 25.0289 33.1373 24.4004 33.1367C23.7725 33.1363 23.264 32.6279 23.2637 32C23.2631 31.3714 23.7718 30.8617 24.4004 30.8613ZM30.9375 30.9824C30.8785 30.986 30.8324 31.0344 30.832 31.0937C30.8314 31.1565 30.8826 31.2074 30.9453 31.207C31.0073 31.2065 31.0574 31.1557 31.0566 31.0937C31.0562 31.0325 31.0065 30.9832 30.9453 30.9824C30.9427 30.9823 30.9413 30.9823 30.9375 30.9824ZM30.9375 31.5449C30.8785 31.5485 30.8324 31.5969 30.832 31.6562C30.8314 31.719 30.8826 31.7699 30.9453 31.7695C31.0073 31.769 31.0574 31.7182 31.0566 31.6562C31.0562 31.595 31.0065 31.5457 30.9453 31.5449C30.9427 31.5448 30.9413 31.5448 30.9375 31.5449ZM30.9258 32.1074C30.8714 32.115 30.8317 32.1636 30.832 32.2187C30.8314 32.2815 30.8826 32.3324 30.9453 32.332C31.0073 32.3315 31.0574 32.2807 31.0566 32.2187C31.0562 32.1575 31.0065 32.1082 30.9453 32.1074C30.9377 32.1069 30.9353 32.1069 30.9277 32.1074H30.9258ZM30.9258 32.6699C30.8714 32.6775 30.8317 32.7264 30.832 32.7812C30.8325 32.8432 30.8829 32.893 30.9453 32.8926C31.0065 32.8921 31.0563 32.8429 31.0566 32.7812C31.0562 32.72 31.0065 32.6703 30.9453 32.6699C30.9377 32.6694 30.9353 32.6694 30.9277 32.6699H30.9258ZM18.8379 33.0879C17.9542 33.0879 17.2383 33.8039 17.2383 34.6875C17.2383 35.5711 17.9542 36.2871 18.8379 36.2871C19.7215 36.2871 20.4375 35.5711 20.4375 34.6875C20.4375 33.8039 19.7215 33.0879 18.8379 33.0879ZM30.9453 33.2305C30.8826 33.2299 30.8317 33.281 30.832 33.3437C30.8325 33.4057 30.8829 33.4555 30.9453 33.4551C31.0065 33.4546 31.0559 33.4054 31.0566 33.3437C31.0572 33.2818 31.0077 33.2312 30.9453 33.2305ZM18.8379 33.5488C19.4671 33.5483 19.9791 34.0582 19.9785 34.6875C19.9781 35.3161 19.4664 35.8248 18.8379 35.8242C18.21 35.8238 17.7015 35.3154 17.7012 34.6875C17.7006 34.0589 18.2093 33.5492 18.8379 33.5488ZM30.9375 33.793C30.8778 33.7966 30.8313 33.8462 30.832 33.9062C30.8325 33.9682 30.8829 34.018 30.9453 34.0176C31.0065 34.0171 31.0563 33.9679 31.0566 33.9062C31.0572 33.8443 31.0073 33.7937 30.9453 33.793C30.9427 33.7929 30.9413 33.7929 30.9375 33.793ZM30.9375 34.3555C30.8778 34.3591 30.8313 34.4087 30.832 34.4687C30.8325 34.5307 30.8829 34.5805 30.9453 34.5801C31.0065 34.5796 31.0563 34.5304 31.0566 34.4687C31.0572 34.4068 31.0073 34.3562 30.9453 34.3555C30.9427 34.3554 30.9413 34.3554 30.9375 34.3555ZM30.9375 34.918C30.8785 34.9216 30.8324 34.97 30.832 35.0293C30.8314 35.092 30.8826 35.143 30.9453 35.1426C31.0073 35.1421 31.0574 35.0913 31.0566 35.0293C31.0562 34.9681 31.0065 34.9187 30.9453 34.918C30.9427 34.9179 30.9413 34.9179 30.9375 34.918ZM23.4492 34.9473C22.5656 34.9473 21.8496 35.6633 21.8496 36.5469C21.8496 37.4305 22.5656 38.1465 23.4492 38.1465C24.3328 38.1465 25.0488 37.4305 25.0488 36.5469C25.0488 35.6633 24.3328 34.9473 23.4492 34.9473ZM23.4492 35.4082C24.0785 35.4076 24.5885 35.9176 24.5879 36.5469C24.5875 37.1755 24.0778 37.6842 23.4492 37.6836C22.8213 37.6832 22.3129 37.1748 22.3125 36.5469C22.3119 35.9183 22.8206 35.4086 23.4492 35.4082ZM30.9375 35.4805C30.8785 35.4841 30.8324 35.5325 30.832 35.5918C30.8314 35.6545 30.8826 35.7055 30.9453 35.7051C31.0073 35.7046 31.0574 35.6538 31.0566 35.5918C31.0562 35.5306 31.0065 35.4812 30.9453 35.4805C30.9427 35.4804 30.9413 35.4804 30.9375 35.4805ZM30.9375 36.043C30.8785 36.0466 30.8324 36.095 30.832 36.1543C30.8314 36.217 30.8826 36.268 30.9453 36.2676C31.0073 36.2671 31.0574 36.2163 31.0566 36.1543C31.0562 36.0931 31.0065 36.0437 30.9453 36.043C30.9427 36.0429 30.9413 36.0429 30.9375 36.043ZM30.9375 36.6055C30.8785 36.6091 30.8324 36.6575 30.832 36.7168C30.8314 36.7795 30.8826 36.8305 30.9453 36.8301C31.0073 36.8296 31.0574 36.7788 31.0566 36.7168C31.0562 36.6556 31.0065 36.6062 30.9453 36.6055C30.9427 36.6054 30.9413 36.6054 30.9375 36.6055ZM30.9258 37.168C30.8714 37.1756 30.8317 37.2241 30.832 37.2793C30.8325 37.3413 30.8829 37.3914 30.9453 37.3906C31.0065 37.3901 31.0563 37.3405 31.0566 37.2793C31.0562 37.2181 31.0065 37.1687 30.9453 37.168C30.9377 37.1674 30.9353 37.1674 30.9277 37.168H30.9258ZM30.9375 37.7285C30.8778 37.7321 30.8313 37.7817 30.832 37.8418C30.8325 37.9038 30.8829 37.9535 30.9453 37.9531C31.0065 37.9526 31.0563 37.9034 31.0566 37.8418C31.0572 37.7798 31.0073 37.7293 30.9453 37.7285C30.9427 37.7284 30.9413 37.7284 30.9375 37.7285ZM30.9375 38.291C30.8778 38.2946 30.8313 38.3442 30.832 38.4043C30.8325 38.4663 30.8829 38.516 30.9453 38.5156C31.0065 38.5151 31.0563 38.4659 31.0566 38.4043C31.0572 38.3423 31.0073 38.2918 30.9453 38.291C30.9427 38.2909 30.9413 38.2909 30.9375 38.291ZM30.9375 38.8535C30.8778 38.8571 30.8313 38.9067 30.832 38.9668C30.8325 39.0288 30.8829 39.0785 30.9453 39.0781C31.0065 39.0776 31.0563 39.0284 31.0566 38.9668C31.0572 38.9048 31.0073 38.8543 30.9453 38.8535C30.9427 38.8534 30.9413 38.8534 30.9375 38.8535ZM30.9375 39.416C30.8785 39.4196 30.8324 39.468 30.832 39.5273C30.8314 39.5901 30.8826 39.641 30.9453 39.6406C31.0073 39.6401 31.0574 39.5893 31.0566 39.5273C31.0562 39.4661 31.0065 39.4168 30.9453 39.416C30.9427 39.4159 30.9413 39.4159 30.9375 39.416ZM30.9375 39.9785C30.8785 39.9821 30.8324 40.0305 30.832 40.0898C30.8314 40.1526 30.8826 40.2035 30.9453 40.2031C31.0073 40.2026 31.0574 40.1518 31.0566 40.0898C31.0562 40.0286 31.0065 39.9793 30.9453 39.9785C30.9427 39.9784 30.9413 39.9784 30.9375 39.9785ZM30.9375 40.541C30.8785 40.5446 30.8324 40.593 30.832 40.6523C30.8314 40.7151 30.8826 40.766 30.9453 40.7656C31.0073 40.7651 31.0574 40.7143 31.0566 40.6523C31.0562 40.5911 31.0065 40.5418 30.9453 40.541C30.9427 40.5409 30.9413 40.5409 30.9375 40.541ZM30.9258 41.1035C30.8714 41.1111 30.8317 41.1597 30.832 41.2148C30.8314 41.2776 30.8826 41.3285 30.9453 41.3281C31.0073 41.3276 31.0574 41.2768 31.0566 41.2148C31.0562 41.1536 31.0065 41.1043 30.9453 41.1035C30.9377 41.1029 30.9353 41.1029 30.9277 41.1035H30.9258ZM30.9258 41.666C30.8714 41.6736 30.8317 41.7222 30.832 41.7773C30.8325 41.8393 30.8829 41.889 30.9453 41.8887C31.0065 41.8882 31.0563 41.8389 31.0566 41.7773C31.0562 41.7161 31.0065 41.6668 30.9453 41.666C30.9377 41.6654 30.9353 41.6654 30.9277 41.666H30.9258ZM30.9453 42.2266C30.8826 42.226 30.8317 42.2771 30.832 42.3398C30.8325 42.4018 30.8829 42.4515 30.9453 42.4512C31.0065 42.4507 31.0559 42.4014 31.0566 42.3398C31.0572 42.2779 31.0077 42.2273 30.9453 42.2266ZM30.9375 42.7891C30.8778 42.7927 30.8313 42.8422 30.832 42.9023C30.8325 42.9643 30.8829 43.014 30.9453 43.0137C31.0065 43.0132 31.0563 42.9639 31.0566 42.9023C31.0572 42.8404 31.0073 42.7898 30.9453 42.7891C30.9427 42.7889 30.9413 42.7889 30.9375 42.7891Z" fill="#333333"/>
</svg>
