<svg width="48" height="48" viewBox="0 0 48 48" fill="none" xmlns="http://www.w3.org/2000/svg">
<path d="M23.828 4.10422C20.537 4.11122 17.302 4.12622 14.147 4.12522C13.277 4.12522 12.58 4.82521 12.58 5.69421V42.5542C12.58 43.4242 13.277 44.1252 14.146 44.1252H33.852C34.721 44.1252 35.42 43.4252 35.42 42.5552V5.69421C35.42 4.82421 34.721 4.12522 33.852 4.12522C30.5107 4.10013 27.1693 4.09313 23.828 4.10422ZM19.992 5.16622H20C20.0293 5.16726 20.0571 5.17979 20.0772 5.2011C20.0974 5.22241 20.1085 5.25079 20.1079 5.28014C20.1074 5.3095 20.0954 5.33747 20.0744 5.35804C20.0535 5.37862 20.0253 5.39014 19.996 5.39014C19.9666 5.39014 19.9384 5.37862 19.9175 5.35804C19.8965 5.33747 19.8845 5.3095 19.884 5.28014C19.8834 5.25079 19.8945 5.22241 19.9147 5.2011C19.9349 5.17979 19.9626 5.16726 19.992 5.16622ZM27.992 5.16622H28C28.0293 5.16726 28.057 5.17979 28.0772 5.2011C28.0974 5.22241 28.1085 5.25079 28.1079 5.28014C28.1074 5.3095 28.0954 5.33747 28.0744 5.35804C28.0535 5.37862 28.0253 5.39014 27.996 5.39014C27.9666 5.39014 27.9384 5.37862 27.9175 5.35804C27.8965 5.33747 27.8845 5.3095 27.884 5.28014C27.8834 5.25079 27.8945 5.22241 27.9147 5.2011C27.9349 5.17979 27.9626 5.16726 27.992 5.16622ZM19.992 5.72922H20C20.0293 5.73026 20.0571 5.74279 20.0772 5.7641C20.0974 5.78541 20.1085 5.81379 20.1079 5.84314C20.1074 5.8725 20.0954 5.90047 20.0744 5.92104C20.0535 5.94162 20.0253 5.95314 19.996 5.95314C19.9666 5.95314 19.9384 5.94162 19.9175 5.92104C19.8965 5.90047 19.8845 5.8725 19.884 5.84314C19.8834 5.81379 19.8945 5.78541 19.9147 5.7641C19.9349 5.74279 19.9626 5.73026 19.992 5.72922ZM27.992 5.72922H28C28.0293 5.73026 28.057 5.74279 28.0772 5.7641C28.0974 5.78541 28.1085 5.81379 28.1079 5.84314C28.1074 5.8725 28.0954 5.90047 28.0744 5.92104C28.0535 5.94162 28.0253 5.95314 27.996 5.95314C27.9666 5.95314 27.9384 5.94162 27.9175 5.92104C27.8965 5.90047 27.8845 5.8725 27.884 5.84314C27.8834 5.81379 27.8945 5.78541 27.9147 5.7641C27.9349 5.74279 27.9626 5.73026 27.992 5.72922ZM24.978 6.06522C25.1026 6.06356 25.2262 6.08656 25.3419 6.1329C25.4576 6.17924 25.563 6.248 25.652 6.33522C25.7414 6.42184 25.8129 6.5253 25.8623 6.63964C25.9116 6.75398 25.9379 6.87695 25.9396 7.00147C25.9412 7.126 25.9183 7.24963 25.872 7.36526C25.8257 7.48088 25.7571 7.58622 25.67 7.67522L23.86 9.53221C23.6849 9.71247 23.4454 9.81583 23.1941 9.81958C22.9428 9.82333 22.7004 9.72717 22.52 9.55222C22.4305 9.46552 22.3592 9.36201 22.3099 9.24764C22.2606 9.13326 22.2344 9.01028 22.2329 8.88575C22.2313 8.76122 22.2543 8.63761 22.3007 8.52202C22.347 8.40643 22.4158 8.30115 22.503 8.21221L24.311 6.35522C24.3974 6.26538 24.5007 6.19351 24.615 6.14374C24.7293 6.09397 24.8523 6.06729 24.977 6.06522V6.06422L24.978 6.06522ZM19.982 6.29122H20C20.061 6.29222 20.11 6.34122 20.111 6.40322C20.111 6.46422 20.061 6.51322 20 6.51322C19.9723 6.51251 19.9459 6.5016 19.9259 6.4826C19.9058 6.46361 19.8934 6.43785 19.8912 6.4103C19.889 6.38275 19.897 6.35535 19.9138 6.33336C19.9305 6.31138 19.9548 6.29637 19.982 6.29122ZM27.982 6.29122H28C28.061 6.29222 28.11 6.34122 28.111 6.40322C28.111 6.46422 28.061 6.51322 28 6.51322C27.9723 6.51251 27.9459 6.5016 27.9259 6.4826C27.9058 6.46361 27.8934 6.43785 27.8912 6.4103C27.889 6.38275 27.897 6.35535 27.9138 6.33336C27.9305 6.31138 27.9548 6.29637 27.982 6.29122ZM20.002 6.85122C20.0167 6.85135 20.0313 6.85439 20.0449 6.86016C20.0585 6.86594 20.0709 6.87433 20.0812 6.88487C20.0916 6.89541 20.0997 6.90789 20.1053 6.92159C20.1108 6.93529 20.1136 6.94994 20.1135 6.96472C20.1133 6.97949 20.1103 6.99409 20.1045 7.00769C20.0987 7.02129 20.0903 7.03362 20.0798 7.04397C20.0693 7.05433 20.0568 7.0625 20.0431 7.06803C20.0294 7.07357 20.0147 7.07635 20 7.07622C19.9703 7.07595 19.9419 7.0639 19.9211 7.0427C19.9002 7.02151 19.8887 6.99292 19.889 6.96322C19.8892 6.93351 19.9013 6.90513 19.9225 6.88431C19.9437 6.8635 19.9723 6.85195 20.002 6.85222V6.85122ZM28.002 6.85122C28.0167 6.85135 28.0313 6.85439 28.0449 6.86016C28.0585 6.86594 28.0709 6.87433 28.0812 6.88487C28.0916 6.89541 28.0997 6.90789 28.1053 6.92159C28.1108 6.93529 28.1136 6.94994 28.1135 6.96472C28.1133 6.97949 28.1103 6.99409 28.1045 7.00769C28.0987 7.02129 28.0903 7.03362 28.0798 7.04397C28.0693 7.05433 28.0568 7.0625 28.0431 7.06803C28.0294 7.07357 28.0147 7.07635 28 7.07622C27.9703 7.07595 27.9419 7.0639 27.9211 7.0427C27.9002 7.02151 27.8887 6.99292 27.889 6.96322C27.8892 6.93351 27.9013 6.90513 27.9225 6.88431C27.9437 6.8635 27.9723 6.85195 28.002 6.85222V6.85122ZM19.992 7.41422H20C20.0293 7.41526 20.0571 7.42779 20.0772 7.4491C20.0974 7.47041 20.1085 7.49879 20.1079 7.52814C20.1074 7.5575 20.0954 7.58547 20.0744 7.60604C20.0535 7.62662 20.0253 7.63814 19.996 7.63814C19.9666 7.63814 19.9384 7.62662 19.9175 7.60604C19.8965 7.58547 19.8845 7.5575 19.884 7.52814C19.8834 7.49879 19.8945 7.47041 19.9147 7.4491C19.9349 7.42779 19.9626 7.41526 19.992 7.41422ZM27.992 7.41422H28C28.0293 7.41526 28.057 7.42779 28.0772 7.4491C28.0974 7.47041 28.1085 7.49879 28.1079 7.52814C28.1074 7.5575 28.0954 7.58547 28.0744 7.60604C28.0535 7.62662 28.0253 7.63814 27.996 7.63814C27.9666 7.63814 27.9384 7.62662 27.9175 7.60604C27.8965 7.58547 27.8845 7.5575 27.884 7.52814C27.8834 7.49879 27.8945 7.47041 27.9147 7.4491C27.9349 7.42779 27.9626 7.41526 27.992 7.41422ZM19.992 7.97422H20C20.0293 7.97526 20.0571 7.98779 20.0772 8.0091C20.0974 8.03041 20.1085 8.05879 20.1079 8.08814C20.1074 8.1175 20.0954 8.14547 20.0744 8.16604C20.0535 8.18662 20.0253 8.19814 19.996 8.19814C19.9666 8.19814 19.9384 8.18662 19.9175 8.16604C19.8965 8.14547 19.8845 8.1175 19.884 8.08814C19.8834 8.05879 19.8945 8.03041 19.9147 8.0091C19.9349 7.98779 19.9626 7.97526 19.992 7.97422ZM27.992 7.97422H28C28.0293 7.97526 28.057 7.98779 28.0772 8.0091C28.0974 8.03041 28.1085 8.05879 28.1079 8.08814C28.1074 8.1175 28.0954 8.14547 28.0744 8.16604C28.0535 8.18662 28.0253 8.19814 27.996 8.19814C27.9666 8.19814 27.9384 8.18662 27.9175 8.16604C27.8965 8.14547 27.8845 8.1175 27.884 8.08814C27.8834 8.05879 27.8945 8.03041 27.9147 8.0091C27.9349 7.98779 27.9626 7.97526 27.992 7.97422ZM19.992 8.53721H20C20.0293 8.53826 20.0571 8.55079 20.0772 8.5721C20.0974 8.59341 20.1085 8.62179 20.1079 8.65114C20.1074 8.6805 20.0954 8.70847 20.0744 8.72904C20.0535 8.74962 20.0253 8.76114 19.996 8.76114C19.9666 8.76114 19.9384 8.74962 19.9175 8.72904C19.8965 8.70847 19.8845 8.6805 19.884 8.65114C19.8834 8.62179 19.8945 8.59341 19.9147 8.5721C19.9349 8.55079 19.9626 8.53826 19.992 8.53721ZM27.992 8.53721H28C28.0293 8.53826 28.057 8.55079 28.0772 8.5721C28.0974 8.59341 28.1085 8.62179 28.1079 8.65114C28.1074 8.6805 28.0954 8.70847 28.0744 8.72904C28.0535 8.74962 28.0253 8.76114 27.996 8.76114C27.9666 8.76114 27.9384 8.74962 27.9175 8.72904C27.8965 8.70847 27.8845 8.6805 27.884 8.65114C27.8834 8.62179 27.8945 8.59341 27.9147 8.5721C27.9349 8.55079 27.9626 8.53826 27.992 8.53721ZM19.992 9.10022H20C20.0293 9.10126 20.0571 9.11379 20.0772 9.1351C20.0974 9.15641 20.1085 9.18479 20.1079 9.21414C20.1074 9.2435 20.0954 9.27147 20.0744 9.29204C20.0535 9.31262 20.0253 9.32414 19.996 9.32414C19.9666 9.32414 19.9384 9.31262 19.9175 9.29204C19.8965 9.27147 19.8845 9.2435 19.884 9.21414C19.8834 9.18479 19.8945 9.15641 19.9147 9.1351C19.9349 9.11379 19.9626 9.10126 19.992 9.10022ZM27.992 9.10022H28C28.0293 9.10126 28.057 9.11379 28.0772 9.1351C28.0974 9.15641 28.1085 9.18479 28.1079 9.21414C28.1074 9.2435 28.0954 9.27147 28.0744 9.29204C28.0535 9.31262 28.0253 9.32414 27.996 9.32414C27.9666 9.32414 27.9384 9.31262 27.9175 9.29204C27.8965 9.27147 27.8845 9.2435 27.884 9.21414C27.8834 9.18479 27.8945 9.15641 27.9147 9.1351C27.9349 9.11379 27.9626 9.10126 27.992 9.10022ZM19.992 9.66221H20C20.0293 9.66326 20.0571 9.67579 20.0772 9.6971C20.0974 9.71841 20.1085 9.74679 20.1079 9.77614C20.1074 9.8055 20.0954 9.83347 20.0744 9.85404C20.0535 9.87462 20.0253 9.88614 19.996 9.88614C19.9666 9.88614 19.9384 9.87462 19.9175 9.85404C19.8965 9.83347 19.8845 9.8055 19.884 9.77614C19.8834 9.74679 19.8945 9.71841 19.9147 9.6971C19.9349 9.67579 19.9626 9.66326 19.992 9.66221ZM27.992 9.66221H28C28.0293 9.66326 28.057 9.67579 28.0772 9.6971C28.0974 9.71841 28.1085 9.74679 28.1079 9.77614C28.1074 9.8055 28.0954 9.83347 28.0744 9.85404C28.0535 9.87462 28.0253 9.88614 27.996 9.88614C27.9666 9.88614 27.9384 9.87462 27.9175 9.85404C27.8965 9.83347 27.8845 9.8055 27.884 9.77614C27.8834 9.74679 27.8945 9.71841 27.9147 9.6971C27.9349 9.67579 27.9626 9.66326 27.992 9.66221ZM19.98 10.2252H20C20.061 10.2252 20.11 10.2772 20.111 10.3382C20.111 10.3679 20.0992 10.3964 20.0782 10.4174C20.0571 10.4384 20.0287 10.4502 19.999 10.4502C19.9693 10.4502 19.9408 10.4384 19.9198 10.4174C19.8988 10.3964 19.887 10.3679 19.887 10.3382C19.887 10.2832 19.926 10.2332 19.98 10.2252ZM27.98 10.2252H28C28.061 10.2252 28.11 10.2772 28.111 10.3382C28.111 10.3679 28.0992 10.3964 28.0782 10.4174C28.0571 10.4384 28.0287 10.4502 27.999 10.4502C27.9693 10.4502 27.9408 10.4384 27.9198 10.4174C27.8988 10.3964 27.887 10.3679 27.887 10.3382C27.887 10.2832 27.926 10.2332 27.98 10.2252ZM20.002 10.7852C20.064 10.7862 20.114 10.8392 20.113 10.9012C20.1128 10.9157 20.1099 10.9299 20.1042 10.9432C20.0986 10.9565 20.0903 10.9686 20.08 10.9787C20.0697 10.9888 20.0575 10.9968 20.0441 11.0022C20.0307 11.0076 20.0164 11.0103 20.002 11.0102C19.9873 11.0106 19.9726 11.0081 19.9589 11.0027C19.9452 10.9974 19.9328 10.9893 19.9222 10.9791C19.9117 10.9688 19.9033 10.9566 19.8976 10.943C19.8919 10.9295 19.889 10.9149 19.889 10.9002C19.889 10.8382 19.939 10.7852 20.002 10.7852ZM28.002 10.7852C28.064 10.7862 28.114 10.8392 28.113 10.9012C28.1128 10.9157 28.1099 10.9299 28.1042 10.9432C28.0986 10.9565 28.0903 10.9686 28.08 10.9787C28.0697 10.9888 28.0575 10.9968 28.0441 11.0022C28.0307 11.0076 28.0164 11.0103 28.002 11.0102C27.9873 11.0106 27.9726 11.0081 27.9589 11.0027C27.9452 10.9974 27.9328 10.9893 27.9222 10.9791C27.9117 10.9688 27.9033 10.9566 27.8976 10.943C27.8919 10.9295 27.889 10.9149 27.889 10.9002C27.889 10.8382 27.939 10.7852 28.002 10.7852ZM24.979 11.3252H24.981C25.1691 11.3215 25.354 11.374 25.5121 11.476C25.6702 11.578 25.7942 11.7248 25.8683 11.8978C25.9424 12.0707 25.9632 12.2618 25.9281 12.4466C25.8929 12.6315 25.8034 12.8016 25.671 12.9352L23.861 14.7932C23.6859 14.9735 23.4464 15.0768 23.1951 15.0806C22.9438 15.0843 22.7014 14.9882 22.521 14.8132C22.4315 14.7265 22.3602 14.623 22.3109 14.5086C22.2616 14.3943 22.2354 14.2713 22.2339 14.1468C22.2323 14.0222 22.2553 13.8986 22.3017 13.783C22.348 13.6674 22.4168 13.5621 22.504 13.4732L24.312 11.6162C24.3984 11.5264 24.5017 11.4545 24.616 11.4047C24.7303 11.355 24.8533 11.3283 24.978 11.3262V11.3242L24.979 11.3252ZM20.002 11.3482C20.0318 11.3485 20.0603 11.3606 20.0812 11.3819C20.1021 11.4032 20.1137 11.4319 20.1135 11.4617C20.1132 11.4916 20.1011 11.5201 20.0798 11.541C20.0585 11.5619 20.0298 11.5735 20 11.5732C19.9852 11.5731 19.9706 11.57 19.957 11.5643C19.9434 11.5585 19.9311 11.5501 19.9207 11.5396C19.8998 11.5183 19.8882 11.4896 19.8885 11.4597C19.8887 11.4299 19.9008 11.4014 19.9221 11.3805C19.9434 11.3595 19.9721 11.3479 20.002 11.3482ZM28.002 11.3482C28.0318 11.3485 28.0603 11.3606 28.0812 11.3819C28.1021 11.4032 28.1137 11.4319 28.1135 11.4617C28.1132 11.4916 28.1011 11.5201 28.0798 11.541C28.0585 11.5619 28.0298 11.5735 28 11.5732C27.9852 11.5731 27.9706 11.57 27.957 11.5643C27.9434 11.5585 27.9311 11.5501 27.9207 11.5396C27.9103 11.529 27.9022 11.5165 27.8966 11.5028C27.8911 11.4891 27.8883 11.4745 27.8885 11.4597C27.8886 11.4449 27.8916 11.4303 27.8974 11.4167C27.9032 11.4031 27.9116 11.3908 27.9221 11.3805C27.9327 11.3701 27.9451 11.3619 27.9588 11.3564C27.9725 11.3509 27.9872 11.3481 28.002 11.3482ZM17.532 11.5632C17.6564 11.5617 17.7799 11.5848 17.8954 11.6311C18.0109 11.6774 18.1161 11.7461 18.205 11.8332C18.2944 11.9198 18.3659 12.0233 18.4153 12.1376C18.4646 12.252 18.4909 12.3749 18.4926 12.4995C18.4942 12.624 18.4713 12.7476 18.425 12.8633C18.3787 12.9789 18.3101 13.0842 18.223 13.1732L16.414 15.0312C16.3284 15.1248 16.2249 15.2002 16.1096 15.253C15.9943 15.3058 15.8696 15.335 15.7428 15.3387C15.616 15.3424 15.4898 15.3206 15.3717 15.2746C15.2535 15.2286 15.1458 15.1593 15.0549 15.0709C14.964 14.9825 14.8917 14.8767 14.8425 14.7598C14.7932 14.643 14.768 14.5174 14.7682 14.3906C14.7684 14.2638 14.794 14.1383 14.8436 14.0216C14.8932 13.9049 14.9658 13.7994 15.057 13.7112L16.865 11.8542C16.9514 11.7644 17.0547 11.6925 17.169 11.6427C17.2833 11.593 17.4063 11.5663 17.531 11.5642V11.5632H17.532ZM32.25 11.5632C32.3746 11.5616 32.4982 11.5846 32.6139 11.6309C32.7296 11.6772 32.835 11.746 32.924 11.8332C33.0134 11.9199 33.0848 12.0234 33.134 12.1378C33.1833 12.2522 33.2095 12.3752 33.2111 12.4997C33.2126 12.6242 33.1896 12.7478 33.1432 12.8634C33.0969 12.979 33.0281 13.0843 32.941 13.1732L31.133 15.0312C31.0468 15.1224 30.9433 15.1955 30.8286 15.2463C30.7139 15.2971 30.5903 15.3247 30.4648 15.3273C30.3394 15.3299 30.2147 15.3076 30.098 15.2617C29.9813 15.2157 29.8748 15.147 29.7849 15.0596C29.6949 14.9721 29.6232 14.8677 29.574 14.7523C29.5247 14.6369 29.4989 14.5129 29.4979 14.3875C29.497 14.262 29.521 14.1376 29.5686 14.0215C29.6161 13.9055 29.6863 13.8 29.775 13.7112L31.584 11.8542C31.6704 11.7643 31.7737 11.6924 31.888 11.6427C32.0023 11.5929 32.1253 11.5662 32.25 11.5642V11.5632ZM19.992 11.9102C20.0074 11.9091 20.0229 11.9112 20.0375 11.9164C20.0521 11.9216 20.0655 11.9298 20.0767 11.9404C20.088 11.951 20.097 11.9639 20.103 11.9781C20.1091 11.9924 20.1121 12.0077 20.112 12.0232C20.111 12.0852 20.062 12.1372 20 12.1372C19.9715 12.1357 19.9446 12.1236 19.9246 12.1033C19.9046 12.083 19.8929 12.0559 19.8919 12.0274C19.8909 11.9989 19.9006 11.971 19.9191 11.9493C19.9377 11.9276 19.9636 11.9137 19.992 11.9102ZM27.992 11.9102C28.0074 11.9091 28.0229 11.9112 28.0375 11.9164C28.0521 11.9216 28.0655 11.9298 28.0767 11.9404C28.088 11.951 28.097 11.9639 28.103 11.9781C28.1091 11.9924 28.1121 12.0077 28.112 12.0232C28.111 12.0852 28.062 12.1372 28 12.1372C27.9715 12.1357 27.9446 12.1236 27.9246 12.1033C27.9046 12.083 27.8929 12.0559 27.8919 12.0274C27.8909 11.9989 27.9006 11.971 27.9191 11.9493C27.9377 11.9276 27.9636 11.9137 27.992 11.9102ZM19.992 12.4732C20.0074 12.4721 20.0229 12.4742 20.0375 12.4794C20.0521 12.4846 20.0655 12.4928 20.0767 12.5034C20.088 12.514 20.097 12.5269 20.103 12.5411C20.1091 12.5554 20.1121 12.5707 20.112 12.5862C20.111 12.6472 20.062 12.6992 20 12.7002C19.9715 12.6987 19.9446 12.6866 19.9246 12.6663C19.9046 12.646 19.8929 12.6189 19.8919 12.5904C19.8909 12.5619 19.9006 12.534 19.9191 12.5123C19.9377 12.4906 19.9636 12.4767 19.992 12.4732ZM27.992 12.4732C28.0074 12.4721 28.0229 12.4742 28.0375 12.4794C28.0521 12.4846 28.0655 12.4928 28.0767 12.5034C28.088 12.514 28.097 12.5269 28.103 12.5411C28.1091 12.5554 28.1121 12.5707 28.112 12.5862C28.111 12.6472 28.062 12.6992 28 12.7002C27.9715 12.6987 27.9446 12.6866 27.9246 12.6663C27.9046 12.646 27.8929 12.6189 27.8919 12.5904C27.8909 12.5619 27.9006 12.534 27.9191 12.5123C27.9377 12.4906 27.9636 12.4767 27.992 12.4732ZM19.98 14.7232H20C20.0221 14.7234 20.0437 14.7302 20.062 14.7426C20.0803 14.7551 20.0945 14.7727 20.1028 14.7933C20.1111 14.8138 20.1131 14.8364 20.1086 14.858C20.1041 14.8797 20.0932 14.8996 20.0774 14.9151C20.0616 14.9306 20.0416 14.9411 20.0198 14.9452C19.9981 14.9494 19.9756 14.947 19.9552 14.9383C19.9348 14.9296 19.9174 14.9151 19.9053 14.8966C19.8931 14.8781 19.8868 14.8564 19.887 14.8342C19.887 14.7802 19.926 14.7302 19.98 14.7232ZM27.98 14.7232H28C28.0221 14.7234 28.0437 14.7302 28.062 14.7426C28.0803 14.7551 28.0945 14.7727 28.1028 14.7933C28.1111 14.8138 28.1131 14.8364 28.1086 14.858C28.1041 14.8797 28.0932 14.8996 28.0774 14.9151C28.0616 14.9306 28.0416 14.9411 28.0198 14.9452C27.9981 14.9494 27.9756 14.947 27.9552 14.9383C27.9348 14.9296 27.9174 14.9151 27.9053 14.8966C27.8931 14.8781 27.8868 14.8564 27.887 14.8342C27.887 14.7802 27.926 14.7302 27.98 14.7232ZM19.98 15.2852H20C20.061 15.2862 20.11 15.3352 20.111 15.3972C20.1107 15.4185 20.1043 15.4393 20.0926 15.4572C20.0809 15.475 20.0644 15.4891 20.045 15.4979C20.0255 15.5066 20.004 15.5097 19.9829 15.5066C19.9618 15.5035 19.942 15.4945 19.9259 15.4806C19.9097 15.4667 19.8979 15.4485 19.8917 15.428C19.8856 15.4076 19.8854 15.3859 19.8912 15.3654C19.897 15.3448 19.9085 15.3264 19.9244 15.3122C19.9403 15.298 19.9599 15.2886 19.981 15.2852H19.98ZM27.98 15.2852H28C28.061 15.2862 28.11 15.3352 28.111 15.3972C28.1107 15.4185 28.1043 15.4393 28.0926 15.4572C28.0809 15.475 28.0644 15.4891 28.045 15.4979C28.0255 15.5066 28.004 15.5097 27.9829 15.5066C27.9618 15.5035 27.942 15.4945 27.9259 15.4806C27.9097 15.4667 27.8979 15.4485 27.8917 15.428C27.8856 15.4076 27.8854 15.3859 27.8912 15.3654C27.897 15.3448 27.9085 15.3264 27.9244 15.3122C27.9403 15.298 27.9599 15.2886 27.981 15.2852H27.98ZM20.002 15.8462C20.0317 15.8465 20.06 15.8585 20.0809 15.8797C20.1017 15.9009 20.1132 15.9295 20.113 15.9592C20.1127 15.9889 20.1006 16.0173 20.0794 16.0381C20.0583 16.0589 20.0297 16.0705 20 16.0702C19.9703 16.07 19.9419 16.0579 19.9211 16.0367C19.9002 16.0155 19.8887 15.9869 19.889 15.9572C19.8892 15.9275 19.9013 15.8991 19.9225 15.8783C19.9437 15.8575 19.9723 15.846 20.002 15.8462ZM28.002 15.8462C28.0167 15.8463 28.0312 15.8494 28.0447 15.8551C28.0583 15.8609 28.0706 15.8692 28.0809 15.8797C28.0912 15.8902 28.0993 15.9026 28.1048 15.9163C28.1103 15.9299 28.1131 15.9445 28.113 15.9592C28.1128 15.9739 28.1098 15.9885 28.104 16.002C28.0983 16.0155 28.0899 16.0278 28.0794 16.0381C28.069 16.0484 28.0565 16.0566 28.0429 16.0621C28.0293 16.0676 28.0147 16.0703 28 16.0702C27.9703 16.07 27.9419 16.0579 27.9211 16.0367C27.9002 16.0155 27.8887 15.9869 27.889 15.9572C27.8892 15.9275 27.9013 15.8991 27.9225 15.8783C27.9437 15.8575 27.9723 15.846 28.002 15.8462ZM24.98 16.5822C25.1046 16.5806 25.2282 16.6036 25.3439 16.6499C25.4596 16.6962 25.565 16.765 25.654 16.8522C25.7434 16.9388 25.8149 17.0423 25.8643 17.1566C25.9136 17.271 25.9399 17.3939 25.9416 17.5185C25.9432 17.643 25.9203 17.7666 25.874 17.8823C25.8277 17.9979 25.7591 18.1032 25.672 18.1922L23.863 20.0512C23.7763 20.1403 23.6729 20.2115 23.5587 20.2606C23.4446 20.3098 23.3218 20.336 23.1975 20.3377C23.0732 20.3394 22.9498 20.3166 22.8343 20.2706C22.7189 20.2247 22.6136 20.1564 22.5245 20.0697C22.4354 19.983 22.3642 19.8797 22.315 19.7655C22.2659 19.6513 22.2397 19.5286 22.238 19.4043C22.2363 19.28 22.2591 19.1566 22.305 19.0411C22.351 18.9256 22.4193 18.8203 22.506 18.7312L24.314 16.8732C24.4004 16.7835 24.5038 16.7118 24.6181 16.6622C24.7324 16.6126 24.8554 16.5861 24.98 16.5842V16.5822ZM17.531 16.8222H17.533C17.7211 16.8185 17.906 16.871 18.0641 16.973C18.2222 17.075 18.3462 17.2218 18.4203 17.3948C18.4944 17.5677 18.5152 17.7588 18.4801 17.9436C18.4449 18.1285 18.3554 18.2986 18.223 18.4322L16.414 20.2922C16.3277 20.3834 16.2242 20.4565 16.1094 20.5074C15.9947 20.5582 15.871 20.5857 15.7455 20.5883C15.62 20.5909 15.4953 20.5685 15.3785 20.5225C15.2617 20.4764 15.1553 20.4076 15.0654 20.3201C14.9754 20.2325 14.9038 20.128 14.8546 20.0125C14.8055 19.897 14.7797 19.7729 14.7789 19.6474C14.7782 19.5219 14.8023 19.3975 14.8501 19.2814C14.8978 19.1653 14.9681 19.0599 15.057 18.9712L16.865 17.1132C16.9516 17.0237 17.055 16.9522 17.1692 16.9028C17.2835 16.8534 17.4065 16.827 17.531 16.8252V16.8232V16.8222ZM32.25 16.8222H32.252C32.4401 16.8185 32.625 16.871 32.7831 16.973C32.9412 17.075 33.0652 17.2218 33.1393 17.3948C33.2134 17.5677 33.2342 17.7588 33.1991 17.9436C33.1639 18.1285 33.0744 18.2986 32.942 18.4322L31.132 20.2922C31.0457 20.3834 30.9422 20.4565 30.8274 20.5074C30.7127 20.5582 30.589 20.5857 30.4635 20.5883C30.338 20.5909 30.2133 20.5685 30.0965 20.5225C29.9797 20.4764 29.8733 20.4076 29.7834 20.3201C29.6934 20.2325 29.6218 20.128 29.5726 20.0125C29.5235 19.897 29.4977 19.7729 29.4969 19.6474C29.4962 19.5219 29.5203 19.3975 29.5681 19.2814C29.6158 19.1653 29.6861 19.0599 29.775 18.9712L31.584 17.1132C31.6705 17.0237 31.7739 16.9522 31.8882 16.9027C32.0025 16.8533 32.1254 16.827 32.25 16.8252V16.8232V16.8222ZM19.992 17.5342C20.0072 17.5331 20.0226 17.5352 20.037 17.5402C20.0515 17.5453 20.0648 17.5533 20.076 17.5637C20.0873 17.5741 20.0963 17.5867 20.1024 17.6007C20.1086 17.6148 20.1119 17.6299 20.112 17.6452C20.112 17.6751 20.1001 17.7037 20.079 17.7248C20.0579 17.7459 20.0293 17.7577 19.9995 17.7577C19.9696 17.7577 19.941 17.7459 19.9199 17.7248C19.8988 17.7037 19.887 17.6751 19.887 17.6452C19.887 17.5852 19.933 17.5372 19.992 17.5342ZM27.992 17.5342C28.0072 17.5331 28.0226 17.5352 28.037 17.5402C28.0515 17.5453 28.0648 17.5533 28.076 17.5637C28.0873 17.5741 28.0963 17.5867 28.1024 17.6007C28.1086 17.6148 28.1119 17.6299 28.112 17.6452C28.112 17.6751 28.1001 17.7037 28.079 17.7248C28.0579 17.7459 28.0293 17.7577 27.9995 17.7577C27.9696 17.7577 27.941 17.7459 27.9199 17.7248C27.8988 17.7037 27.887 17.6751 27.887 17.6452C27.887 17.5852 27.933 17.5372 27.992 17.5342ZM19.992 18.6592C20.0072 18.6581 20.0226 18.6602 20.037 18.6652C20.0515 18.6703 20.0648 18.6783 20.076 18.6887C20.0873 18.6991 20.0963 18.7117 20.1024 18.7257C20.1086 18.7398 20.1119 18.7549 20.112 18.7702C20.1121 18.7921 20.1058 18.8135 20.094 18.8318C20.0821 18.8501 20.0651 18.8646 20.0452 18.8734C20.0252 18.8822 20.003 18.885 19.9815 18.8814C19.96 18.8778 19.9399 18.868 19.9239 18.8531C19.9079 18.8383 19.8965 18.8191 19.8913 18.7979C19.886 18.7767 19.887 18.7545 19.8943 18.7338C19.9015 18.7132 19.9146 18.6952 19.932 18.6819C19.9493 18.6687 19.9702 18.6608 19.992 18.6592ZM27.992 18.6592C28.0072 18.6581 28.0226 18.6602 28.037 18.6652C28.0515 18.6703 28.0648 18.6783 28.076 18.6887C28.0873 18.6991 28.0963 18.7117 28.1024 18.7257C28.1086 18.7398 28.1119 18.7549 28.112 18.7702C28.1121 18.7921 28.1058 18.8135 28.094 18.8318C28.0821 18.8501 28.0651 18.8646 28.0452 18.8734C28.0252 18.8822 28.003 18.885 27.9815 18.8814C27.96 18.8778 27.9399 18.868 27.9239 18.8531C27.9079 18.8383 27.8965 18.8191 27.8913 18.7979C27.886 18.7767 27.887 18.7545 27.8943 18.7338C27.9015 18.7132 27.9146 18.6952 27.932 18.6819C27.9493 18.6687 27.9702 18.6608 27.992 18.6592ZM19.98 19.2212H20C20.0221 19.2214 20.0437 19.2282 20.062 19.2406C20.0803 19.2531 20.0945 19.2707 20.1028 19.2913C20.1111 19.3118 20.1131 19.3344 20.1086 19.356C20.1041 19.3777 20.0932 19.3976 20.0774 19.4131C20.0616 19.4286 20.0416 19.4391 20.0198 19.4432C19.9981 19.4474 19.9756 19.445 19.9552 19.4363C19.9348 19.4276 19.9174 19.4131 19.9053 19.3946C19.8931 19.3761 19.8868 19.3544 19.887 19.3322C19.887 19.2772 19.926 19.2292 19.98 19.2212ZM27.98 19.2212H28C28.0221 19.2214 28.0437 19.2282 28.062 19.2406C28.0803 19.2531 28.0945 19.2707 28.1028 19.2913C28.1111 19.3118 28.1131 19.3344 28.1086 19.356C28.1041 19.3777 28.0932 19.3976 28.0774 19.4131C28.0616 19.4286 28.0416 19.4391 28.0198 19.4432C27.9981 19.4474 27.9756 19.445 27.9552 19.4363C27.9348 19.4276 27.9174 19.4131 27.9053 19.3946C27.8931 19.3761 27.8868 19.3544 27.887 19.3322C27.887 19.2772 27.926 19.2292 27.98 19.2212ZM20.002 19.7812C20.0318 19.7815 20.0603 19.7936 20.0812 19.8149C20.1021 19.8362 20.1137 19.8649 20.1135 19.8947C20.1132 19.9246 20.1011 19.9531 20.0798 19.974C20.0585 19.9949 20.0298 20.0065 20 20.0062C19.9703 20.006 19.9419 19.9939 19.9211 19.9727C19.9002 19.9515 19.8887 19.9229 19.889 19.8932C19.8892 19.8635 19.9013 19.8351 19.9225 19.8143C19.9437 19.7935 19.9723 19.7819 20.002 19.7822V19.7812ZM28.002 19.7812C28.0318 19.7815 28.0603 19.7936 28.0812 19.8149C28.1021 19.8362 28.1137 19.8649 28.1135 19.8947C28.1132 19.9246 28.1011 19.9531 28.0798 19.974C28.0585 19.9949 28.0298 20.0065 28 20.0062C27.9703 20.006 27.9419 19.9939 27.9211 19.9727C27.9002 19.9515 27.8887 19.9229 27.889 19.8932C27.8892 19.8635 27.9013 19.8351 27.9225 19.8143C27.9437 19.7935 27.9723 19.7819 28.002 19.7822V19.7812ZM19.992 20.3442C19.9923 20.3729 19.9815 20.4006 19.962 20.4217C19.9425 20.4427 19.9156 20.4554 19.887 20.4572C19.886 20.3972 19.933 20.3472 19.992 20.3442ZM27.992 20.3442C27.9923 20.3729 27.9815 20.4006 27.962 20.4217C27.9425 20.4427 27.9156 20.4554 27.887 20.4572C27.886 20.3972 27.933 20.3472 27.992 20.3442ZM24.98 21.8422C25.1046 21.8406 25.2282 21.8636 25.3439 21.9099C25.4596 21.9562 25.565 22.025 25.654 22.1122C25.7434 22.1988 25.8149 22.3023 25.8643 22.4166C25.9136 22.531 25.9399 22.6539 25.9416 22.7785C25.9432 22.903 25.9203 23.0266 25.874 23.1423C25.8277 23.2579 25.7591 23.3632 25.672 23.4522L23.863 25.3112C23.6879 25.4915 23.4484 25.5948 23.1971 25.5986C22.9458 25.6023 22.7034 25.5062 22.523 25.3312C22.4335 25.2445 22.3622 25.141 22.3129 25.0266C22.2636 24.9123 22.2374 24.7893 22.2359 24.6647C22.2343 24.5402 22.2573 24.4166 22.3037 24.301C22.35 24.1854 22.4188 24.0801 22.506 23.9912L24.314 22.1332C24.4005 22.0435 24.5038 21.9717 24.6181 21.9219C24.7324 21.8721 24.8553 21.8454 24.98 21.8432V21.8422ZM17.533 22.0802C17.6576 22.0786 17.7812 22.1016 17.8969 22.1479C18.0126 22.1942 18.118 22.263 18.207 22.3502C18.2964 22.4368 18.3679 22.5403 18.4173 22.6546C18.4666 22.769 18.4929 22.8919 18.4946 23.0165C18.4962 23.141 18.4733 23.2646 18.427 23.3803C18.3807 23.4959 18.3121 23.6012 18.225 23.6902L16.416 25.5502C16.3294 25.6398 16.226 25.7113 16.1117 25.7608C15.9974 25.8102 15.8744 25.8366 15.7499 25.8383C15.6254 25.8401 15.5017 25.8172 15.3861 25.771C15.2704 25.7249 15.165 25.6563 15.076 25.5692C14.9865 25.4825 14.9152 25.379 14.8659 25.2646C14.8166 25.1503 14.7904 25.0273 14.7889 24.9028C14.7873 24.7782 14.8103 24.6546 14.8567 24.539C14.903 24.4234 14.9718 24.3181 15.059 24.2292L16.867 22.3712C16.9534 22.2815 17.0568 22.2098 17.1711 22.1602C17.2854 22.1106 17.4084 22.0841 17.533 22.0822V22.0802ZM32.252 22.0802C32.3766 22.0786 32.5002 22.1016 32.6159 22.1479C32.7316 22.1942 32.837 22.263 32.926 22.3502C33.0154 22.4369 33.0868 22.5404 33.136 22.6548C33.1853 22.7692 33.2115 22.8922 33.2131 23.0167C33.2146 23.1412 33.1916 23.2648 33.1452 23.3804C33.0989 23.496 33.0301 23.6013 32.943 23.6902L31.135 25.5502C31.0484 25.6398 30.945 25.7113 30.8307 25.7608C30.7164 25.8102 30.5934 25.8366 30.4689 25.8383C30.3444 25.8401 30.2207 25.8172 30.1051 25.771C29.9894 25.7249 29.884 25.6563 29.795 25.5692C29.7055 25.4826 29.634 25.3791 29.5846 25.2648C29.5353 25.1505 29.509 25.0275 29.5073 24.903C29.5057 24.7784 29.5286 24.6548 29.5749 24.5392C29.6212 24.4235 29.6898 24.3182 29.777 24.2292L31.586 22.3712C31.6724 22.2815 31.7758 22.2098 31.8901 22.1602C32.0044 22.1106 32.1274 22.0841 32.252 22.0822V22.0802ZM19.98 23.7192H20C20.0221 23.7194 20.0437 23.7262 20.062 23.7386C20.0803 23.7511 20.0945 23.7687 20.1028 23.7893C20.1111 23.8098 20.1131 23.8324 20.1086 23.854C20.1041 23.8757 20.0932 23.8956 20.0774 23.9111C20.0616 23.9266 20.0416 23.9371 20.0198 23.9412C19.9981 23.9454 19.9756 23.943 19.9552 23.9343C19.9348 23.9256 19.9174 23.9111 19.9053 23.8926C19.8931 23.8741 19.8868 23.8524 19.887 23.8302C19.887 23.7762 19.926 23.7272 19.98 23.7192ZM27.98 23.7192H28C28.0221 23.7194 28.0437 23.7262 28.062 23.7386C28.0803 23.7511 28.0945 23.7687 28.1028 23.7893C28.1111 23.8098 28.1131 23.8324 28.1086 23.854C28.1041 23.8757 28.0932 23.8956 28.0774 23.9111C28.0616 23.9266 28.0416 23.9371 28.0198 23.9412C27.9981 23.9454 27.9756 23.943 27.9552 23.9343C27.9348 23.9256 27.9174 23.9111 27.9053 23.8926C27.8931 23.8741 27.8868 23.8524 27.887 23.8302C27.887 23.7762 27.926 23.7272 27.98 23.7192ZM19.98 24.2822H20C20.061 24.2822 20.11 24.3322 20.111 24.3922C20.1073 24.4193 20.094 24.4442 20.0734 24.4623C20.0528 24.4803 20.0263 24.4902 19.999 24.4902C19.9716 24.4902 19.9451 24.4803 19.9245 24.4623C19.9039 24.4442 19.8906 24.4193 19.887 24.3922C19.8866 24.3658 19.8959 24.3401 19.9129 24.3199C19.93 24.2997 19.9538 24.2863 19.98 24.2822ZM27.98 24.2822H28C28.061 24.2822 28.11 24.3322 28.111 24.3922C28.1073 24.4193 28.094 24.4442 28.0734 24.4623C28.0528 24.4803 28.0263 24.4902 27.999 24.4902C27.9716 24.4902 27.9451 24.4803 27.9245 24.4623C27.9039 24.4442 27.8906 24.4193 27.887 24.3922C27.8866 24.3658 27.8959 24.3401 27.9129 24.3199C27.93 24.2997 27.9538 24.2863 27.98 24.2822ZM24.978 27.1002C25.1026 27.0986 25.2262 27.1216 25.3419 27.1679C25.4576 27.2142 25.563 27.283 25.652 27.3702C25.7414 27.4568 25.8129 27.5603 25.8623 27.6746C25.9116 27.789 25.9379 27.9119 25.9396 28.0365C25.9412 28.161 25.9183 28.2846 25.872 28.4003C25.8257 28.5159 25.7571 28.6212 25.67 28.7102L23.861 30.5692C23.7743 30.6583 23.6709 30.7295 23.5567 30.7786C23.4426 30.8278 23.3198 30.854 23.1955 30.8557C23.0712 30.8574 22.9478 30.8346 22.8323 30.7886C22.7169 30.7427 22.6116 30.6744 22.5225 30.5877C22.4334 30.501 22.3622 30.3977 22.313 30.2835C22.2639 30.1693 22.2377 30.0466 22.236 29.9223C22.2343 29.798 22.2571 29.6746 22.303 29.5591C22.349 29.4436 22.4173 29.3383 22.504 29.2492L24.312 27.3912C24.3984 27.3014 24.5017 27.2295 24.616 27.1797C24.7303 27.13 24.8533 27.1033 24.978 27.1012V27.1002ZM17.533 27.3402C17.6576 27.3386 17.7812 27.3616 17.8969 27.4079C18.0126 27.4542 18.118 27.523 18.207 27.6102C18.2964 27.6968 18.3679 27.8003 18.4173 27.9146C18.4666 28.029 18.4929 28.1519 18.4946 28.2765C18.4962 28.401 18.4733 28.5246 18.427 28.6403C18.3807 28.7559 18.3121 28.8612 18.225 28.9502L16.416 30.8092C16.3304 30.9028 16.2269 30.9782 16.1116 31.031C15.9963 31.0838 15.8716 31.113 15.7448 31.1167C15.618 31.1204 15.4918 31.0986 15.3737 31.0526C15.2555 31.0066 15.1478 30.9373 15.0569 30.8489C14.966 30.7605 14.8937 30.6547 14.8445 30.5378C14.7952 30.421 14.77 30.2954 14.7702 30.1686C14.7704 30.0418 14.796 29.9163 14.8456 29.7996C14.8952 29.6829 14.9678 29.5774 15.059 29.4892L16.867 27.6312C16.9535 27.5415 17.0568 27.4697 17.1711 27.4199C17.2854 27.3701 17.4083 27.3434 17.533 27.3412V27.3402ZM32.252 27.3402C32.3766 27.3386 32.5002 27.3616 32.6159 27.4079C32.7316 27.4542 32.837 27.523 32.926 27.6102C33.0154 27.6969 33.0868 27.8004 33.136 27.9148C33.1853 28.0292 33.2115 28.1522 33.2131 28.2767C33.2146 28.4012 33.1916 28.5248 33.1452 28.6404C33.0989 28.756 33.0301 28.8613 32.943 28.9502L31.135 30.8092C31.0488 30.9004 30.9453 30.9735 30.8306 31.0243C30.7159 31.0751 30.5923 31.1027 30.4668 31.1053C30.3414 31.1079 30.2167 31.0856 30.1 31.0397C29.9833 30.9937 29.8768 30.925 29.7869 30.8376C29.6969 30.7501 29.6252 30.6457 29.576 30.5303C29.5267 30.4149 29.5009 30.2909 29.4999 30.1655C29.499 30.04 29.523 29.9156 29.5706 29.7995C29.6181 29.6835 29.6883 29.578 29.777 29.4892L31.586 27.6312C31.6725 27.5415 31.7758 27.4697 31.8901 27.4199C32.0044 27.3701 32.1273 27.3434 32.252 27.3412V27.3402ZM19.98 28.2172H20C20.061 28.2172 20.11 28.2672 20.111 28.3282C20.1111 28.3496 20.105 28.3706 20.0936 28.3887C20.0821 28.4068 20.0657 28.4212 20.0463 28.4302C20.0269 28.4393 20.0053 28.4426 19.9841 28.4398C19.9629 28.4369 19.943 28.4281 19.9266 28.4143C19.9103 28.4004 19.8982 28.3822 19.8919 28.3618C19.8856 28.3413 19.8853 28.3195 19.891 28.2988C19.8967 28.2782 19.9083 28.2597 19.9242 28.2454C19.9401 28.2311 19.9598 28.2217 19.981 28.2182L19.98 28.2172ZM27.98 28.2172H28C28.061 28.2172 28.11 28.2672 28.111 28.3282C28.1111 28.3496 28.105 28.3706 28.0936 28.3887C28.0821 28.4068 28.0657 28.4212 28.0463 28.4302C28.0269 28.4393 28.0053 28.4426 27.9841 28.4398C27.9629 28.4369 27.943 28.4281 27.9266 28.4143C27.9103 28.4004 27.8982 28.3822 27.8919 28.3618C27.8856 28.3413 27.8853 28.3195 27.891 28.2988C27.8967 28.2782 27.9083 28.2597 27.9242 28.2454C27.9401 28.2311 27.9598 28.2217 27.981 28.2182L27.98 28.2172ZM20.002 28.7772C20.0318 28.7775 20.0603 28.7896 20.0812 28.8109C20.1021 28.8322 20.1137 28.8609 20.1135 28.8907C20.1132 28.9206 20.1011 28.9491 20.0798 28.97C20.0585 28.9909 20.0298 29.0025 20 29.0022C19.9703 29.002 19.9419 28.9899 19.9211 28.9687C19.9002 28.9475 19.8887 28.9189 19.889 28.8892C19.8892 28.8595 19.9013 28.8311 19.9225 28.8103C19.9437 28.7895 19.9723 28.778 20.002 28.7782V28.7772ZM28.002 28.7772C28.0318 28.7775 28.0603 28.7896 28.0812 28.8109C28.1021 28.8322 28.1137 28.8609 28.1135 28.8907C28.1132 28.9206 28.1011 28.9491 28.0798 28.97C28.0585 28.9909 28.0298 29.0025 28 29.0022C27.9703 29.002 27.9419 28.9899 27.9211 28.9687C27.9002 28.9475 27.8887 28.9189 27.889 28.8892C27.8892 28.8595 27.9013 28.8311 27.9225 28.8103C27.9437 28.7895 27.9723 28.778 28.002 28.7782V28.7772ZM19.992 31.0252C20.0073 31.0244 20.0227 31.0267 20.0372 31.032C20.0517 31.0373 20.0649 31.0455 20.0761 31.0561C20.0873 31.0666 20.0963 31.0793 20.1024 31.0935C20.1086 31.1076 20.1118 31.1228 20.112 31.1382C20.112 31.1681 20.1001 31.1967 20.079 31.2178C20.0579 31.2389 20.0293 31.2507 19.9995 31.2507C19.9696 31.2507 19.941 31.2389 19.9199 31.2178C19.8988 31.1967 19.887 31.1681 19.887 31.1382C19.887 31.0802 19.933 31.0292 19.992 31.0262V31.0252ZM27.992 31.0252C28.0073 31.0244 28.0227 31.0267 28.0372 31.032C28.0517 31.0373 28.0649 31.0455 28.0761 31.0561C28.0873 31.0666 28.0963 31.0793 28.1024 31.0935C28.1086 31.1076 28.1118 31.1228 28.112 31.1382C28.112 31.1681 28.1001 31.1967 28.079 31.2178C28.0579 31.2389 28.0293 31.2507 27.9995 31.2507C27.9696 31.2507 27.941 31.2389 27.9199 31.2178C27.8988 31.1967 27.887 31.1681 27.887 31.1382C27.887 31.0802 27.933 31.0292 27.992 31.0262V31.0252ZM19.992 31.5882H20C20.0293 31.5893 20.0571 31.6018 20.0772 31.6231C20.0974 31.6444 20.1085 31.6728 20.1079 31.7021C20.1074 31.7315 20.0954 31.7595 20.0744 31.78C20.0535 31.8006 20.0253 31.8121 19.996 31.8121C19.9666 31.8121 19.9384 31.8006 19.9175 31.78C19.8965 31.7595 19.8845 31.7315 19.884 31.7021C19.8834 31.6728 19.8945 31.6444 19.9147 31.6231C19.9349 31.6018 19.9626 31.5893 19.992 31.5882ZM27.992 31.5882H28C28.0293 31.5893 28.057 31.6018 28.0772 31.6231C28.0974 31.6444 28.1085 31.6728 28.1079 31.7021C28.1074 31.7315 28.0954 31.7595 28.0744 31.78C28.0535 31.8006 28.0253 31.8121 27.996 31.8121C27.9666 31.8121 27.9384 31.8006 27.9175 31.78C27.8965 31.7595 27.8845 31.7315 27.884 31.7021C27.8834 31.6728 27.8945 31.6444 27.9147 31.6231C27.9349 31.6018 27.9626 31.5893 27.992 31.5882ZM19.98 32.1512H20C20.0221 32.1514 20.0437 32.1582 20.062 32.1706C20.0803 32.1831 20.0945 32.2007 20.1028 32.2213C20.1111 32.2418 20.1131 32.2644 20.1086 32.286C20.1041 32.3077 20.0932 32.3276 20.0774 32.3431C20.0616 32.3586 20.0416 32.3691 20.0198 32.3733C19.9981 32.3774 19.9756 32.375 19.9552 32.3663C19.9348 32.3576 19.9174 32.3431 19.9053 32.3246C19.8931 32.3061 19.8868 32.2844 19.887 32.2622C19.8864 32.2356 19.8955 32.2097 19.9126 32.1893C19.9297 32.1688 19.9536 32.1553 19.98 32.1512ZM27.98 32.1512H28C28.0221 32.1514 28.0437 32.1582 28.062 32.1706C28.0803 32.1831 28.0945 32.2007 28.1028 32.2213C28.1111 32.2418 28.1131 32.2644 28.1086 32.286C28.1041 32.3077 28.0932 32.3276 28.0774 32.3431C28.0616 32.3586 28.0416 32.3691 28.0198 32.3733C27.9981 32.3774 27.9756 32.375 27.9552 32.3663C27.9348 32.3576 27.9174 32.3431 27.9053 32.3246C27.8931 32.3061 27.8868 32.2844 27.887 32.2622C27.8864 32.2356 27.8955 32.2097 27.9126 32.1893C27.9297 32.1688 27.9536 32.1553 27.98 32.1512ZM24.98 32.3052C25.1681 32.3015 25.353 32.354 25.5111 32.456C25.6692 32.558 25.7932 32.7048 25.8673 32.8778C25.9414 33.0507 25.9622 33.2418 25.9271 33.4266C25.8919 33.6115 25.8024 33.7816 25.67 33.9152L23.861 35.7742C23.7749 35.8659 23.6715 35.9395 23.5567 35.9907C23.4419 36.0419 23.318 36.0698 23.1924 36.0726C23.0667 36.0754 22.9417 36.0531 22.8247 36.0071C22.7077 35.9611 22.6011 35.8922 22.5111 35.8044C22.421 35.7167 22.3494 35.6119 22.3003 35.4962C22.2512 35.3805 22.2257 35.2561 22.2252 35.1304C22.2247 35.0047 22.2493 34.8801 22.2975 34.764C22.3457 34.6479 22.4166 34.5426 22.506 34.4542L24.314 32.5962C24.4003 32.5063 24.5037 32.4344 24.618 32.3847C24.7323 32.3349 24.8553 32.3082 24.98 32.3062V32.3052ZM17.531 32.5982C17.6556 32.5966 17.7792 32.6196 17.8949 32.6659C18.0106 32.7122 18.116 32.781 18.205 32.8682C18.2944 32.9548 18.3659 33.0583 18.4153 33.1726C18.4646 33.287 18.4909 33.4099 18.4926 33.5345C18.4942 33.659 18.4713 33.7826 18.425 33.8983C18.3787 34.0139 18.3101 34.1192 18.223 34.2082L16.414 36.0672C16.3275 36.1568 16.2241 36.2285 16.1098 36.278C15.9956 36.3275 15.8726 36.354 15.7481 36.3558C15.6236 36.3577 15.4999 36.3349 15.3842 36.2888C15.2685 36.2427 15.1631 36.1742 15.074 36.0872C14.9845 36.0005 14.9132 35.897 14.8639 35.7826C14.8146 35.6683 14.7884 35.5453 14.7869 35.4208C14.7853 35.2962 14.8083 35.1726 14.8547 35.057C14.901 34.9414 14.9698 34.8361 15.057 34.7472L16.865 32.8892C16.9514 32.7994 17.0547 32.7275 17.169 32.6777C17.2833 32.628 17.4063 32.6013 17.531 32.5992V32.5982ZM32.25 32.5982C32.3746 32.5966 32.4982 32.6196 32.6139 32.6659C32.7296 32.7122 32.835 32.781 32.924 32.8682C33.0134 32.9549 33.0848 33.0584 33.134 33.1728C33.1833 33.2872 33.2095 33.4102 33.2111 33.5347C33.2126 33.6592 33.1896 33.7828 33.1432 33.8984C33.0969 34.014 33.0281 34.1193 32.941 34.2082L31.133 36.0672C31.0465 36.1568 30.9431 36.2285 30.8288 36.278C30.7146 36.3275 30.5916 36.354 30.4671 36.3558C30.3426 36.3577 30.2189 36.3349 30.1032 36.2888C29.9875 36.2427 29.8821 36.1742 29.793 36.0872C29.7035 36.0006 29.632 35.8971 29.5826 35.7828C29.5333 35.6685 29.507 35.5455 29.5053 35.421C29.5037 35.2964 29.5266 35.1728 29.5729 35.0572C29.6192 34.9416 29.6878 34.8362 29.775 34.7472L31.584 32.8892C31.6704 32.7993 31.7737 32.7274 31.888 32.6777C32.0023 32.6279 32.1253 32.6012 32.25 32.5992V32.5982ZM19.98 32.7132H20C20.061 32.7132 20.11 32.7632 20.111 32.8242C20.1109 32.8456 20.1047 32.8665 20.0931 32.8844C20.0815 32.9024 20.0651 32.9167 20.0456 32.9256C20.0262 32.9345 20.0047 32.9376 19.9835 32.9347C19.9624 32.9317 19.9425 32.9228 19.9262 32.9089C19.91 32.8951 19.898 32.8768 19.8918 32.8564C19.8856 32.836 19.8853 32.8142 19.8911 32.7936C19.8968 32.773 19.9084 32.7545 19.9243 32.7403C19.9402 32.726 19.9599 32.7167 19.981 32.7132H19.98ZM27.98 32.7132H28C28.061 32.7132 28.11 32.7632 28.111 32.8242C28.1109 32.8456 28.1047 32.8665 28.0931 32.8844C28.0815 32.9024 28.0651 32.9167 28.0456 32.9256C28.0262 32.9345 28.0047 32.9376 27.9835 32.9347C27.9624 32.9317 27.9425 32.9228 27.9262 32.9089C27.91 32.8951 27.898 32.8768 27.8918 32.8564C27.8856 32.836 27.8853 32.8142 27.8911 32.7936C27.8968 32.773 27.9084 32.7545 27.9243 32.7403C27.9402 32.726 27.9599 32.7167 27.981 32.7132H27.98ZM20.002 33.2732C20.064 33.2742 20.114 33.3272 20.113 33.3892C20.113 33.4037 20.1101 33.4181 20.1045 33.4315C20.0989 33.445 20.0907 33.4571 20.0804 33.4674C20.0701 33.4776 20.0578 33.4857 20.0444 33.4911C20.0309 33.4966 20.0165 33.4993 20.002 33.4992C19.9873 33.4996 19.9726 33.4971 19.9589 33.4917C19.9452 33.4864 19.9328 33.4783 19.9222 33.4681C19.9117 33.4578 19.9033 33.4456 19.8976 33.432C19.8919 33.4185 19.889 33.4039 19.889 33.3892C19.889 33.3262 19.939 33.2732 20.002 33.2742V33.2732ZM28.002 33.2732C28.064 33.2742 28.114 33.3272 28.113 33.3892C28.113 33.4037 28.1101 33.4181 28.1045 33.4315C28.0989 33.445 28.0907 33.4571 28.0804 33.4674C28.0701 33.4776 28.0578 33.4857 28.0444 33.4911C28.0309 33.4966 28.0165 33.4993 28.002 33.4992C27.9873 33.4996 27.9726 33.4971 27.9589 33.4917C27.9452 33.4864 27.9328 33.4783 27.9222 33.4681C27.9117 33.4578 27.9033 33.4456 27.8976 33.432C27.8919 33.4185 27.889 33.4039 27.889 33.3892C27.889 33.3262 27.939 33.2732 28.002 33.2742V33.2732ZM19.992 33.8362H20C20.0293 33.8373 20.0571 33.8498 20.0772 33.8711C20.0974 33.8924 20.1085 33.9208 20.1079 33.9501C20.1074 33.9795 20.0954 34.0075 20.0744 34.028C20.0535 34.0486 20.0253 34.0601 19.996 34.0601C19.9666 34.0601 19.9384 34.0486 19.9175 34.028C19.8965 34.0075 19.8845 33.9795 19.884 33.9501C19.8834 33.9208 19.8945 33.8924 19.9147 33.8711C19.9349 33.8498 19.9626 33.8373 19.992 33.8362ZM27.992 33.8362H28C28.0293 33.8373 28.057 33.8498 28.0772 33.8711C28.0974 33.8924 28.1085 33.9208 28.1079 33.9501C28.1074 33.9795 28.0954 34.0075 28.0744 34.028C28.0535 34.0486 28.0253 34.0601 27.996 34.0601C27.9666 34.0601 27.9384 34.0486 27.9175 34.028C27.8965 34.0075 27.8845 33.9795 27.884 33.9501C27.8834 33.9208 27.8945 33.8924 27.9147 33.8711C27.9349 33.8498 27.9626 33.8373 27.992 33.8362ZM19.98 37.2112H20C20.061 37.2112 20.11 37.2612 20.111 37.3222C20.1111 37.3436 20.105 37.3646 20.0936 37.3827C20.0821 37.4008 20.0657 37.4152 20.0463 37.4242C20.0269 37.4333 20.0053 37.4366 19.9841 37.4338C19.9629 37.4309 19.943 37.4221 19.9266 37.4083C19.9103 37.3944 19.8982 37.3762 19.8919 37.3558C19.8856 37.3353 19.8853 37.3135 19.891 37.2928C19.8967 37.2722 19.9083 37.2537 19.9242 37.2394C19.9401 37.2251 19.9598 37.2157 19.981 37.2122L19.98 37.2112ZM27.98 37.2112H28C28.061 37.2112 28.11 37.2612 28.111 37.3222C28.1111 37.3436 28.105 37.3646 28.0936 37.3827C28.0821 37.4008 28.0657 37.4152 28.0463 37.4242C28.0269 37.4333 28.0053 37.4366 27.9841 37.4338C27.9629 37.4309 27.943 37.4221 27.9266 37.4083C27.9103 37.3944 27.8982 37.3762 27.8919 37.3558C27.8856 37.3353 27.8853 37.3135 27.891 37.2928C27.8967 37.2722 27.9083 37.2537 27.9242 37.2394C27.9401 37.2251 27.9598 37.2157 27.981 37.2122L27.98 37.2112ZM24.98 37.5672C25.1681 37.5635 25.353 37.616 25.5111 37.718C25.6692 37.82 25.7932 37.9668 25.8673 38.1398C25.9414 38.3127 25.9622 38.5038 25.9271 38.6886C25.8919 38.8735 25.8024 39.0436 25.67 39.1772L23.861 41.0352C23.7749 41.1269 23.6715 41.2005 23.5567 41.2517C23.4419 41.3029 23.318 41.3308 23.1924 41.3336C23.0667 41.3364 22.9417 41.3141 22.8247 41.2681C22.7077 41.2221 22.6011 41.1532 22.5111 41.0654C22.421 40.9777 22.3494 40.8729 22.3003 40.7572C22.2512 40.6415 22.2257 40.5171 22.2252 40.3914C22.2247 40.2657 22.2493 40.1411 22.2975 40.025C22.3457 39.9089 22.4166 39.8036 22.506 39.7152L24.314 37.8582C24.4003 37.7683 24.5037 37.6964 24.618 37.6467C24.7323 37.5969 24.8553 37.5702 24.98 37.5682V37.5672ZM19.992 37.7722H20C20.0293 37.7733 20.0571 37.7858 20.0772 37.8071C20.0974 37.8284 20.1085 37.8568 20.1079 37.8861C20.1074 37.9155 20.0954 37.9435 20.0744 37.964C20.0535 37.9846 20.0253 37.9961 19.996 37.9961C19.9666 37.9961 19.9384 37.9846 19.9175 37.964C19.8965 37.9435 19.8845 37.9155 19.884 37.8861C19.8834 37.8568 19.8945 37.8284 19.9147 37.8071C19.9349 37.7858 19.9626 37.7733 19.992 37.7722ZM27.992 37.7722H28C28.0293 37.7733 28.057 37.7858 28.0772 37.8071C28.0974 37.8284 28.1085 37.8568 28.1079 37.8861C28.1074 37.9155 28.0954 37.9435 28.0744 37.964C28.0535 37.9846 28.0253 37.9961 27.996 37.9961C27.9666 37.9961 27.9384 37.9846 27.9175 37.964C27.8965 37.9435 27.8845 37.9155 27.884 37.8861C27.8834 37.8568 27.8945 37.8284 27.9147 37.8071C27.9349 37.7858 27.9626 37.7733 27.992 37.7722ZM19.992 39.4592H20C20.0293 39.4603 20.0571 39.4728 20.0772 39.4941C20.0974 39.5154 20.1085 39.5438 20.1079 39.5731C20.1074 39.6025 20.0954 39.6305 20.0744 39.651C20.0535 39.6716 20.0253 39.6831 19.996 39.6831C19.9666 39.6831 19.9384 39.6716 19.9175 39.651C19.8965 39.6305 19.8845 39.6025 19.884 39.5731C19.8834 39.5438 19.8945 39.5154 19.9147 39.4941C19.9349 39.4728 19.9626 39.4603 19.992 39.4592ZM27.992 39.4592H28C28.0293 39.4603 28.057 39.4728 28.0772 39.4941C28.0974 39.5154 28.1085 39.5438 28.1079 39.5731C28.1074 39.6025 28.0954 39.6305 28.0744 39.651C28.0535 39.6716 28.0253 39.6831 27.996 39.6831C27.9666 39.6831 27.9384 39.6716 27.9175 39.651C27.8965 39.6305 27.8845 39.6025 27.884 39.5731C27.8834 39.5438 27.8945 39.5154 27.9147 39.4941C27.9349 39.4728 27.9626 39.4603 27.992 39.4592ZM19.992 40.0222H20C20.0293 40.0233 20.0571 40.0358 20.0772 40.0571C20.0974 40.0784 20.1085 40.1068 20.1079 40.1361C20.1074 40.1655 20.0954 40.1935 20.0744 40.214C20.0535 40.2346 20.0253 40.2461 19.996 40.2461C19.9666 40.2461 19.9384 40.2346 19.9175 40.214C19.8965 40.1935 19.8845 40.1655 19.884 40.1361C19.8834 40.1068 19.8945 40.0784 19.9147 40.0571C19.9349 40.0358 19.9626 40.0233 19.992 40.0222ZM27.992 40.0222H28C28.0293 40.0233 28.057 40.0358 28.0772 40.0571C28.0974 40.0784 28.1085 40.1068 28.1079 40.1361C28.1074 40.1655 28.0954 40.1935 28.0744 40.214C28.0535 40.2346 28.0253 40.2461 27.996 40.2461C27.9666 40.2461 27.9384 40.2346 27.9175 40.214C27.8965 40.1935 27.8845 40.1655 27.884 40.1361C27.8834 40.1068 27.8945 40.0784 27.9147 40.0571C27.9349 40.0358 27.9626 40.0233 27.992 40.0222ZM19.992 40.5842H20C20.0293 40.5853 20.0571 40.5978 20.0772 40.6191C20.0974 40.6404 20.1085 40.6688 20.1079 40.6981C20.1074 40.7275 20.0954 40.7555 20.0744 40.776C20.0535 40.7966 20.0253 40.8081 19.996 40.8081C19.9666 40.8081 19.9384 40.7966 19.9175 40.776C19.8965 40.7555 19.8845 40.7275 19.884 40.6981C19.8834 40.6688 19.8945 40.6404 19.9147 40.6191C19.9349 40.5978 19.9626 40.5853 19.992 40.5842ZM27.992 40.5842H28C28.0293 40.5853 28.057 40.5978 28.0772 40.6191C28.0974 40.6404 28.1085 40.6688 28.1079 40.6981C28.1074 40.7275 28.0954 40.7555 28.0744 40.776C28.0535 40.7966 28.0253 40.8081 27.996 40.8081C27.9666 40.8081 27.9384 40.7966 27.9175 40.776C27.8965 40.7555 27.8845 40.7275 27.884 40.6981C27.8834 40.6688 27.8945 40.6404 27.9147 40.6191C27.9349 40.5978 27.9626 40.5853 27.992 40.5842ZM19.98 41.1472H20C20.0221 41.1474 20.0437 41.1542 20.062 41.1666C20.0803 41.1791 20.0945 41.1967 20.1028 41.2173C20.1111 41.2378 20.1131 41.2604 20.1086 41.282C20.1041 41.3037 20.0932 41.3236 20.0774 41.3391C20.0616 41.3546 20.0416 41.3651 20.0198 41.3692C19.9981 41.3734 19.9756 41.371 19.9552 41.3623C19.9348 41.3536 19.9174 41.3391 19.9053 41.3206C19.8931 41.3021 19.8868 41.2804 19.887 41.2582C19.8864 41.2316 19.8955 41.2057 19.9126 41.1853C19.9297 41.1648 19.9536 41.1513 19.98 41.1472ZM27.98 41.1472H28C28.0221 41.1474 28.0437 41.1542 28.062 41.1666C28.0803 41.1791 28.0945 41.1967 28.1028 41.2173C28.1111 41.2378 28.1131 41.2604 28.1086 41.282C28.1041 41.3037 28.0932 41.3236 28.0774 41.3391C28.0616 41.3546 28.0416 41.3651 28.0198 41.3692C27.9981 41.3734 27.9756 41.371 27.9552 41.3623C27.9348 41.3536 27.9174 41.3391 27.9053 41.3206C27.8931 41.3021 27.8868 41.2804 27.887 41.2582C27.8864 41.2316 27.8955 41.2057 27.9126 41.1853C27.9297 41.1648 27.9536 41.1513 27.98 41.1472ZM19.98 41.7092H20C20.061 41.7102 20.11 41.7592 20.111 41.8212C20.111 41.8822 20.061 41.9312 20 41.9312C19.9704 41.9315 19.942 41.9201 19.9208 41.8995C19.8997 41.8789 19.8875 41.8507 19.887 41.8212C19.8861 41.7944 19.8952 41.7682 19.9123 41.7476C19.9294 41.727 19.9535 41.7133 19.98 41.7092ZM27.98 41.7092H28C28.061 41.7102 28.11 41.7592 28.111 41.8212C28.111 41.8822 28.061 41.9312 28 41.9312C27.9704 41.9315 27.942 41.9201 27.9208 41.8995C27.8997 41.8789 27.8875 41.8507 27.887 41.8212C27.8861 41.7944 27.8952 41.7682 27.9123 41.7476C27.9294 41.727 27.9535 41.7133 27.98 41.7092ZM20.002 42.2692C20.0318 42.2695 20.0603 42.2816 20.0812 42.3029C20.1021 42.3242 20.1137 42.3529 20.1135 42.3827C20.1132 42.4126 20.1011 42.4411 20.0798 42.462C20.0585 42.4829 20.0298 42.4945 20 42.4942C19.9703 42.4939 19.9419 42.4819 19.9211 42.4607C19.9002 42.4395 19.8887 42.4109 19.889 42.3812C19.8892 42.3515 19.9013 42.3231 19.9225 42.3023C19.9437 42.2815 19.9723 42.2699 20.002 42.2702V42.2692ZM28.002 42.2692C28.0318 42.2695 28.0603 42.2816 28.0812 42.3029C28.1021 42.3242 28.1137 42.3529 28.1135 42.3827C28.1132 42.4126 28.1011 42.4411 28.0798 42.462C28.0585 42.4829 28.0298 42.4945 28 42.4942C27.9703 42.4939 27.9419 42.4819 27.9211 42.4607C27.9002 42.4395 27.8887 42.4109 27.889 42.3812C27.8892 42.3515 27.9013 42.3231 27.9225 42.3023C27.9437 42.2815 27.9723 42.2699 28.002 42.2702V42.2692Z" fill="#333333"/>
</svg>
