<svg width="48" height="48" viewBox="0 0 48 48" fill="none" xmlns="http://www.w3.org/2000/svg">
<path d="M28.9381 4.05521C24.0181 4.04021 19.1531 4.09821 14.1781 4.09821C13.3081 4.09821 12.6111 4.79721 12.6111 5.66621V42.5272C12.6111 43.3972 13.3081 44.0972 14.1781 44.0972H33.8831C34.7531 44.0972 35.4511 43.3972 35.4511 42.5272V5.66721C35.4511 4.79721 34.7521 4.09721 33.8831 4.09721C32.2345 4.07252 30.5858 4.05852 28.9371 4.05521H28.9381ZM18.8351 5.12921H18.8431C18.8724 5.13026 18.9002 5.14279 18.9204 5.1641C18.9406 5.1854 18.9516 5.21379 18.9511 5.24314C18.9505 5.27249 18.9385 5.30047 18.9176 5.32104C18.8966 5.34161 18.8684 5.35314 18.8391 5.35314C18.8097 5.35314 18.7815 5.34161 18.7606 5.32104C18.7397 5.30047 18.7276 5.27249 18.7271 5.24314C18.7266 5.21379 18.7376 5.1854 18.7578 5.1641C18.778 5.14279 18.8057 5.13026 18.8351 5.12921ZM24.0221 5.12921H24.0301C24.0594 5.13026 24.0872 5.14279 24.1074 5.1641C24.1276 5.1854 24.1386 5.21379 24.1381 5.24314C24.1375 5.27249 24.1255 5.30047 24.1046 5.32104C24.0836 5.34161 24.0554 5.35314 24.0261 5.35314C23.9967 5.35314 23.9685 5.34161 23.9476 5.32104C23.9267 5.30047 23.9146 5.27249 23.9141 5.24314C23.9136 5.21379 23.9246 5.1854 23.9448 5.1641C23.965 5.14279 23.9927 5.13026 24.0221 5.12921ZM29.2101 5.12921H29.2181C29.2474 5.13026 29.2752 5.14279 29.2954 5.1641C29.3156 5.1854 29.3266 5.21379 29.3261 5.24314C29.3255 5.27249 29.3135 5.30047 29.2926 5.32104C29.2716 5.34161 29.2434 5.35314 29.2141 5.35314C29.1847 5.35314 29.1565 5.34161 29.1356 5.32104C29.1147 5.30047 29.1026 5.27249 29.1021 5.24314C29.1016 5.21379 29.1126 5.1854 29.1328 5.1641C29.153 5.14279 29.1807 5.13026 29.2101 5.12921ZM18.8351 5.69121H18.8431C18.8724 5.69226 18.9002 5.70479 18.9204 5.7261C18.9406 5.7474 18.9516 5.77579 18.9511 5.80514C18.9505 5.83449 18.9385 5.86247 18.9176 5.88304C18.8966 5.90361 18.8684 5.91514 18.8391 5.91514C18.8097 5.91514 18.7815 5.90361 18.7606 5.88304C18.7397 5.86247 18.7276 5.83449 18.7271 5.80514C18.7266 5.77579 18.7376 5.7474 18.7578 5.7261C18.778 5.70479 18.8057 5.69226 18.8351 5.69121ZM24.0221 5.69121H24.0301C24.0594 5.69226 24.0872 5.70479 24.1074 5.7261C24.1276 5.7474 24.1386 5.77579 24.1381 5.80514C24.1375 5.83449 24.1255 5.86247 24.1046 5.88304C24.0836 5.90361 24.0554 5.91514 24.0261 5.91514C23.9967 5.91514 23.9685 5.90361 23.9476 5.88304C23.9267 5.86247 23.9146 5.83449 23.9141 5.80514C23.9136 5.77579 23.9246 5.7474 23.9448 5.7261C23.965 5.70479 23.9927 5.69226 24.0221 5.69121ZM29.2101 5.69121H29.2181C29.2474 5.69226 29.2752 5.70479 29.2954 5.7261C29.3156 5.7474 29.3266 5.77579 29.3261 5.80514C29.3255 5.83449 29.3135 5.86247 29.2926 5.88304C29.2716 5.90361 29.2434 5.91514 29.2141 5.91514C29.1847 5.91514 29.1565 5.90361 29.1356 5.88304C29.1147 5.86247 29.1026 5.83449 29.1021 5.80514C29.1016 5.77579 29.1126 5.7474 29.1328 5.7261C29.153 5.70479 29.1807 5.69226 29.2101 5.69121ZM18.8251 6.25421H18.8441C18.9051 6.25421 18.9541 6.30421 18.9551 6.36521C18.955 6.38662 18.9488 6.40757 18.9372 6.42557C18.9256 6.44357 18.9091 6.45787 18.8897 6.46677C18.8702 6.47568 18.8486 6.47881 18.8274 6.47581C18.8062 6.4728 18.7863 6.46378 18.77 6.44981C18.7538 6.43585 18.7419 6.41752 18.7358 6.397C18.7296 6.37649 18.7295 6.35465 18.7354 6.33406C18.7413 6.31348 18.753 6.29502 18.7691 6.28086C18.7851 6.26671 18.8049 6.25746 18.8261 6.25421H18.8251ZM24.0131 6.25421H24.0301C24.0921 6.25421 24.1411 6.30421 24.1421 6.36521C24.1421 6.42721 24.0921 6.47621 24.0301 6.47721C24.0015 6.47778 23.9737 6.46738 23.9525 6.44814C23.9314 6.4289 23.9183 6.40228 23.9162 6.37375C23.914 6.34521 23.9228 6.31693 23.9408 6.2947C23.9589 6.27247 23.9847 6.25799 24.0131 6.25421ZM29.2001 6.25421H29.2201C29.2811 6.25421 29.3301 6.30421 29.3311 6.36521C29.331 6.38662 29.3248 6.40757 29.3132 6.42557C29.3016 6.44357 29.2851 6.45787 29.2657 6.46677C29.2462 6.47568 29.2246 6.47881 29.2034 6.47581C29.1822 6.4728 29.1623 6.46378 29.146 6.44981C29.1298 6.43585 29.1179 6.41752 29.1118 6.397C29.1056 6.37649 29.1055 6.35465 29.1114 6.33406C29.1173 6.31348 29.129 6.29502 29.1451 6.28086C29.1611 6.26671 29.1809 6.25746 29.2021 6.25421H29.2001ZM18.8451 6.81421C18.8599 6.81434 18.8745 6.81738 18.8881 6.82316C18.9017 6.82893 18.914 6.83733 18.9243 6.84787C18.9347 6.85841 18.9429 6.87088 18.9484 6.88458C18.9539 6.89828 18.9567 6.91294 18.9566 6.92771C18.9565 6.94249 18.9534 6.95709 18.9476 6.97069C18.9419 6.98429 18.9335 6.99662 18.9229 7.00697C18.9124 7.01732 18.8999 7.0255 18.8862 7.03103C18.8725 7.03656 18.8579 7.03934 18.8431 7.03921C18.8134 7.03895 18.785 7.02689 18.7642 7.0057C18.7434 6.98451 18.7318 6.95592 18.7321 6.92621C18.7323 6.89651 18.7444 6.86813 18.7656 6.84731C18.7868 6.82649 18.8154 6.81495 18.8451 6.81521V6.81421ZM24.0321 6.81421C24.0619 6.81448 24.0904 6.82658 24.1113 6.84787C24.1323 6.86916 24.1438 6.89788 24.1436 6.92771C24.1433 6.95755 24.1312 6.98606 24.1099 7.00697C24.0886 7.02788 24.0599 7.03948 24.0301 7.03921C24.0004 7.03895 23.972 7.02689 23.9512 7.0057C23.9304 6.98451 23.9188 6.95592 23.9191 6.92621C23.9193 6.89651 23.9314 6.86813 23.9526 6.84731C23.9738 6.82649 24.0024 6.81495 24.0321 6.81521V6.81421ZM29.2201 6.81421C29.2499 6.81448 29.2784 6.82658 29.2993 6.84787C29.3203 6.86916 29.3318 6.89788 29.3316 6.92771C29.3313 6.95755 29.3192 6.98606 29.2979 7.00697C29.2766 7.02788 29.2479 7.03948 29.2181 7.03921C29.1884 7.03895 29.16 7.02689 29.1392 7.0057C29.1184 6.98451 29.1068 6.95592 29.1071 6.92621C29.1073 6.89651 29.1194 6.86813 29.1406 6.84731C29.1618 6.82649 29.1904 6.81495 29.2201 6.81521V6.81421ZM16.0301 7.02021C16.4341 7.02021 16.8216 7.18072 17.1074 7.46644C17.3931 7.75215 17.5536 8.13966 17.5536 8.54371C17.5536 8.94777 17.3931 9.33528 17.1074 9.62099C16.8216 9.9067 16.4341 10.0672 16.0301 10.0672C15.626 10.0672 15.2385 9.9067 14.9528 9.62099C14.6671 9.33528 14.5066 8.94777 14.5066 8.54371C14.5066 8.13966 14.6671 7.75215 14.9528 7.46644C15.2385 7.18072 15.626 7.02021 16.0301 7.02021ZM21.3641 7.02021C21.5674 7.015 21.7698 7.05055 21.9592 7.12478C22.1486 7.199 22.3212 7.31038 22.4669 7.45237C22.6125 7.59435 22.7283 7.76406 22.8073 7.9515C22.8864 8.13893 22.9271 8.34029 22.9271 8.54371C22.9271 8.74713 22.8864 8.94849 22.8073 9.13593C22.7283 9.32336 22.6125 9.49307 22.4669 9.63506C22.3212 9.77704 22.1486 9.88843 21.9592 9.96265C21.7698 10.0369 21.5674 10.0724 21.3641 10.0672C20.9668 10.057 20.5892 9.89205 20.3118 9.60745C20.0344 9.32285 19.8791 8.94114 19.8791 8.54371C19.8791 8.14628 20.0344 7.76457 20.3118 7.47997C20.5892 7.19537 20.9668 7.03039 21.3641 7.02021ZM26.6961 7.02021C27.1 7.02021 27.4874 7.18067 27.773 7.46629C28.0586 7.75191 28.2191 8.13929 28.2191 8.54321C28.2191 8.94714 28.0586 9.33452 27.773 9.62014C27.4874 9.90575 27.1 10.0662 26.6961 10.0662C26.2922 10.0662 25.9048 9.90575 25.6192 9.62014C25.3335 9.33452 25.1731 8.94714 25.1731 8.54321C25.1731 8.13929 25.3335 7.75191 25.6192 7.46629C25.9048 7.18067 26.2922 7.02021 26.6961 7.02021ZM32.0301 7.02021C32.4341 7.02021 32.8216 7.18072 33.1074 7.46644C33.3931 7.75215 33.5536 8.13966 33.5536 8.54371C33.5536 8.94777 33.3931 9.33528 33.1074 9.62099C32.8216 9.9067 32.4341 10.0672 32.0301 10.0672C31.626 10.0672 31.2385 9.9067 30.9528 9.62099C30.6671 9.33528 30.5066 8.94777 30.5066 8.54371C30.5066 8.13966 30.6671 7.75215 30.9528 7.46644C31.2385 7.18072 31.626 7.02021 32.0301 7.02021ZM18.8351 7.37721H18.8431C18.8727 7.37826 18.9007 7.39089 18.9211 7.41239C18.9415 7.43388 18.9526 7.46252 18.9521 7.49214C18.9515 7.52176 18.9394 7.54999 18.9183 7.57075C18.8971 7.59151 18.8687 7.60314 18.8391 7.60314C18.8095 7.60314 18.781 7.59151 18.7599 7.57075C18.7388 7.54999 18.7266 7.52176 18.7261 7.49214C18.7256 7.46252 18.7367 7.43388 18.7571 7.41239C18.7775 7.39089 18.8055 7.37826 18.8351 7.37721ZM24.0221 7.37721H24.0301C24.0597 7.37826 24.0877 7.39089 24.1081 7.41239C24.1285 7.43388 24.1396 7.46252 24.1391 7.49214C24.1385 7.52176 24.1264 7.54999 24.1053 7.57075C24.0841 7.59151 24.0557 7.60314 24.0261 7.60314C23.9965 7.60314 23.968 7.59151 23.9469 7.57075C23.9258 7.54999 23.9136 7.52176 23.9131 7.49214C23.9126 7.46252 23.9237 7.43388 23.9441 7.41239C23.9645 7.39089 23.9925 7.37826 24.0221 7.37721ZM29.2101 7.37721H29.2181C29.2477 7.37826 29.2757 7.39089 29.2961 7.41239C29.3165 7.43388 29.3276 7.46252 29.3271 7.49214C29.3265 7.52176 29.3144 7.54999 29.2933 7.57075C29.2721 7.59151 29.2437 7.60314 29.2141 7.60314C29.1845 7.60314 29.156 7.59151 29.1349 7.57075C29.1138 7.54999 29.1016 7.52176 29.1011 7.49214C29.1006 7.46252 29.1117 7.43388 29.1321 7.41239C29.1525 7.39089 29.1805 7.37826 29.2101 7.37721ZM18.8351 7.93721H18.8431C18.8727 7.93826 18.9007 7.95089 18.9211 7.97239C18.9415 7.99388 18.9526 8.02252 18.9521 8.05214C18.9515 8.08176 18.9394 8.10999 18.9183 8.13075C18.8971 8.15151 18.8687 8.16314 18.8391 8.16314C18.8095 8.16314 18.781 8.15151 18.7599 8.13075C18.7388 8.10999 18.7266 8.08176 18.7261 8.05214C18.7256 8.02252 18.7367 7.99388 18.7571 7.97239C18.7775 7.95089 18.8055 7.93826 18.8351 7.93721ZM24.0221 7.93721H24.0301C24.0597 7.93826 24.0877 7.95089 24.1081 7.97239C24.1285 7.99388 24.1396 8.02252 24.1391 8.05214C24.1385 8.08176 24.1264 8.10999 24.1053 8.13075C24.0841 8.15151 24.0557 8.16314 24.0261 8.16314C23.9965 8.16314 23.968 8.15151 23.9469 8.13075C23.9258 8.10999 23.9136 8.08176 23.9131 8.05214C23.9126 8.02252 23.9237 7.99388 23.9441 7.97239C23.9645 7.95089 23.9925 7.93826 24.0221 7.93721ZM29.2101 7.93721H29.2181C29.2477 7.93826 29.2757 7.95089 29.2961 7.97239C29.3165 7.99388 29.3276 8.02252 29.3271 8.05214C29.3265 8.08176 29.3144 8.10999 29.2933 8.13075C29.2721 8.15151 29.2437 8.16314 29.2141 8.16314C29.1845 8.16314 29.156 8.15151 29.1349 8.13075C29.1138 8.10999 29.1016 8.08176 29.1011 8.05214C29.1006 8.02252 29.1117 7.99388 29.1321 7.97239C29.1525 7.95089 29.1805 7.93826 29.2101 7.93721ZM18.8361 8.50021H18.8441C18.8737 8.50126 18.9017 8.51389 18.9221 8.53539C18.9425 8.55688 18.9536 8.58552 18.9531 8.61514C18.9525 8.64476 18.9404 8.67299 18.9193 8.69375C18.8981 8.71451 18.8697 8.72614 18.8401 8.72614C18.8105 8.72614 18.782 8.71451 18.7609 8.69375C18.7398 8.67299 18.7276 8.64476 18.7271 8.61514C18.7266 8.58552 18.7377 8.55688 18.7581 8.53539C18.7785 8.51389 18.8065 8.50126 18.8361 8.50021ZM24.0231 8.50021H24.0311C24.0607 8.50126 24.0887 8.51389 24.1091 8.53539C24.1295 8.55688 24.1406 8.58552 24.1401 8.61514C24.1395 8.64476 24.1274 8.67299 24.1063 8.69375C24.0851 8.71451 24.0567 8.72614 24.0271 8.72614C23.9975 8.72614 23.969 8.71451 23.9479 8.69375C23.9268 8.67299 23.9146 8.64476 23.9141 8.61514C23.9136 8.58552 23.9247 8.55688 23.9451 8.53539C23.9655 8.51389 23.9935 8.50126 24.0231 8.50021ZM29.2111 8.50021H29.2191C29.2487 8.50126 29.2767 8.51389 29.2971 8.53539C29.3175 8.55688 29.3286 8.58552 29.3281 8.61514C29.3275 8.64476 29.3154 8.67299 29.2943 8.69375C29.2731 8.71451 29.2447 8.72614 29.2151 8.72614C29.1855 8.72614 29.157 8.71451 29.1359 8.69375C29.1148 8.67299 29.1026 8.64476 29.1021 8.61514C29.1016 8.58552 29.1127 8.55688 29.1331 8.53539C29.1535 8.51389 29.1815 8.50126 29.2111 8.50021ZM18.8361 9.06321H18.8441C18.8734 9.06426 18.9012 9.07679 18.9214 9.09809C18.9416 9.1194 18.9526 9.14779 18.9521 9.17714C18.9515 9.20649 18.9395 9.23447 18.9186 9.25504C18.8976 9.27561 18.8694 9.28714 18.8401 9.28714C18.8107 9.28714 18.7825 9.27561 18.7616 9.25504C18.7407 9.23447 18.7286 9.20649 18.7281 9.17714C18.7276 9.14779 18.7386 9.1194 18.7588 9.09809C18.779 9.07679 18.8067 9.06426 18.8361 9.06321ZM24.0231 9.06321H24.0311C24.0604 9.06426 24.0882 9.07679 24.1084 9.09809C24.1286 9.1194 24.1396 9.14779 24.1391 9.17714C24.1385 9.20649 24.1265 9.23447 24.1056 9.25504C24.0846 9.27561 24.0564 9.28714 24.0271 9.28714C23.9977 9.28714 23.9695 9.27561 23.9486 9.25504C23.9277 9.23447 23.9156 9.20649 23.9151 9.17714C23.9146 9.14779 23.9256 9.1194 23.9458 9.09809C23.966 9.07679 23.9937 9.06426 24.0231 9.06321ZM29.2111 9.06321H29.2191C29.2484 9.06426 29.2762 9.07679 29.2964 9.09809C29.3166 9.1194 29.3276 9.14779 29.3271 9.17714C29.3265 9.20649 29.3145 9.23447 29.2936 9.25504C29.2726 9.27561 29.2444 9.28714 29.2151 9.28714C29.1857 9.28714 29.1575 9.27561 29.1366 9.25504C29.1157 9.23447 29.1036 9.20649 29.1031 9.17714C29.1026 9.14779 29.1136 9.1194 29.1338 9.09809C29.154 9.07679 29.1817 9.06426 29.2111 9.06321ZM18.8361 9.62521H18.8441C18.8734 9.62626 18.9012 9.63879 18.9214 9.6601C18.9416 9.6814 18.9526 9.70979 18.9521 9.73914C18.9515 9.76849 18.9395 9.79647 18.9186 9.81704C18.8976 9.83761 18.8694 9.84914 18.8401 9.84914C18.8107 9.84914 18.7825 9.83761 18.7616 9.81704C18.7407 9.79647 18.7286 9.76849 18.7281 9.73914C18.7276 9.70979 18.7386 9.6814 18.7588 9.6601C18.779 9.63879 18.8067 9.62626 18.8361 9.62521ZM24.0231 9.62521H24.0311C24.0604 9.62626 24.0882 9.63879 24.1084 9.6601C24.1286 9.6814 24.1396 9.70979 24.1391 9.73914C24.1385 9.76849 24.1265 9.79647 24.1056 9.81704C24.0846 9.83761 24.0564 9.84914 24.0271 9.84914C23.9977 9.84914 23.9695 9.83761 23.9486 9.81704C23.9277 9.79647 23.9156 9.76849 23.9151 9.73914C23.9146 9.70979 23.9256 9.6814 23.9458 9.6601C23.966 9.63879 23.9937 9.62626 24.0231 9.62521ZM29.2111 9.62521H29.2191C29.2484 9.62626 29.2762 9.63879 29.2964 9.6601C29.3166 9.6814 29.3276 9.70979 29.3271 9.73914C29.3265 9.76849 29.3145 9.79647 29.2936 9.81704C29.2726 9.83761 29.2444 9.84914 29.2151 9.84914C29.1857 9.84914 29.1575 9.83761 29.1366 9.81704C29.1157 9.79647 29.1036 9.76849 29.1031 9.73914C29.1026 9.70979 29.1136 9.6814 29.1338 9.6601C29.154 9.63879 29.1817 9.62626 29.2111 9.62521ZM18.8241 10.1882H18.8441C18.9051 10.1882 18.9541 10.2402 18.9551 10.3012C18.9551 10.3309 18.9433 10.3594 18.9223 10.3804C18.9013 10.4014 18.8728 10.4132 18.8431 10.4132C18.8134 10.4132 18.7849 10.4014 18.7639 10.3804C18.7429 10.3594 18.7311 10.3309 18.7311 10.3012C18.7311 10.2462 18.7701 10.1952 18.8241 10.1882ZM24.0121 10.1882H24.0311C24.0931 10.1882 24.1421 10.2402 24.1431 10.3012C24.1431 10.331 24.1312 10.3597 24.1101 10.3808C24.089 10.4019 24.0604 10.4137 24.0306 10.4137C24.0007 10.4137 23.9721 10.4019 23.951 10.3808C23.9299 10.3597 23.9181 10.331 23.9181 10.3012C23.9181 10.2462 23.9581 10.1952 24.0121 10.1882ZM29.1991 10.1882H29.2191C29.2801 10.1882 29.3291 10.2402 29.3301 10.3012C29.3301 10.3309 29.3183 10.3594 29.2973 10.3804C29.2763 10.4014 29.2478 10.4132 29.2181 10.4132C29.1884 10.4132 29.1599 10.4014 29.1389 10.3804C29.1179 10.3594 29.1061 10.3309 29.1061 10.3012C29.1061 10.2462 29.1451 10.1952 29.1991 10.1882ZM18.8461 10.7482C18.9081 10.7482 18.9581 10.8012 18.9571 10.8632C18.9571 10.8777 18.9542 10.8921 18.9486 10.9055C18.943 10.919 18.9348 10.9311 18.9245 10.9413C18.9142 10.9516 18.9019 10.9597 18.8885 10.9651C18.875 10.9706 18.8606 10.9733 18.8461 10.9732C18.8313 10.9738 18.8166 10.9713 18.8028 10.966C18.7889 10.9607 18.7763 10.9527 18.7657 10.9424C18.7551 10.9322 18.7466 10.9199 18.7408 10.9063C18.735 10.8926 18.7321 10.878 18.7321 10.8632C18.7321 10.8012 18.7831 10.7482 18.8461 10.7482ZM24.0331 10.7482C24.0961 10.7482 24.1451 10.8012 24.1441 10.8632C24.1441 10.8924 24.1325 10.9204 24.1119 10.941C24.0912 10.9616 24.0633 10.9732 24.0341 10.9732C24.0193 10.9738 24.0046 10.9713 23.9908 10.966C23.9769 10.9607 23.9643 10.9527 23.9537 10.9424C23.9431 10.9322 23.9346 10.9199 23.9288 10.9063C23.923 10.8926 23.9201 10.878 23.9201 10.8632C23.9201 10.8012 23.9701 10.7482 24.0331 10.7482ZM29.2211 10.7482C29.2831 10.7482 29.3331 10.8012 29.3321 10.8632C29.3321 10.8777 29.3292 10.8921 29.3236 10.9055C29.318 10.919 29.3098 10.9311 29.2995 10.9413C29.2892 10.9516 29.2769 10.9597 29.2635 10.9651C29.25 10.9706 29.2356 10.9733 29.2211 10.9732C29.2063 10.9738 29.1916 10.9713 29.1778 10.966C29.1639 10.9607 29.1513 10.9527 29.1407 10.9424C29.1301 10.9322 29.1216 10.9199 29.1158 10.9063C29.11 10.8926 29.1071 10.878 29.1071 10.8632C29.1071 10.8012 29.1581 10.7482 29.2211 10.7482ZM18.8461 11.3112C18.8758 11.3112 18.9043 11.323 18.9253 11.344C18.9463 11.365 18.9581 11.3935 18.9581 11.4232C18.9581 11.4529 18.9463 11.4814 18.9253 11.5024C18.9043 11.5234 18.8758 11.5352 18.8461 11.5352C18.8181 11.5326 18.7921 11.5196 18.7731 11.4988C18.7542 11.478 18.7437 11.4508 18.7437 11.4227C18.7437 11.3946 18.7542 11.3675 18.7731 11.3467C18.7921 11.3259 18.8181 11.3129 18.8461 11.3102V11.3112ZM24.0331 11.3112C24.0628 11.3112 24.0913 11.323 24.1123 11.344C24.1333 11.365 24.1451 11.3935 24.1451 11.4232C24.1451 11.4529 24.1333 11.4814 24.1123 11.5024C24.0913 11.5234 24.0628 11.5352 24.0331 11.5352C24.0051 11.5326 23.9791 11.5196 23.9601 11.4988C23.9412 11.478 23.9307 11.4508 23.9307 11.4227C23.9307 11.3946 23.9412 11.3675 23.9601 11.3467C23.9791 11.3259 24.0051 11.3129 24.0331 11.3102V11.3112ZM29.2211 11.3112C29.2508 11.3112 29.2793 11.323 29.3003 11.344C29.3213 11.365 29.3331 11.3935 29.3331 11.4232C29.3331 11.4529 29.3213 11.4814 29.3003 11.5024C29.2793 11.5234 29.2508 11.5352 29.2211 11.5352C29.1931 11.5326 29.1671 11.5196 29.1481 11.4988C29.1292 11.478 29.1187 11.4508 29.1187 11.4227C29.1187 11.3946 29.1292 11.3675 29.1481 11.3467C29.1671 11.3259 29.1931 11.3129 29.2211 11.3102V11.3112ZM18.8361 11.8732C18.8515 11.8723 18.867 11.8745 18.8815 11.8797C18.896 11.885 18.9093 11.8931 18.9206 11.9037C18.9318 11.9143 18.9408 11.9271 18.9469 11.9413C18.953 11.9555 18.9561 11.9708 18.9561 11.9862C18.9551 12.0482 18.9051 12.0992 18.8441 12.1002C18.8156 12.0987 18.7887 12.0866 18.7687 12.0663C18.7487 12.046 18.737 12.0189 18.736 11.9904C18.735 11.9619 18.7447 11.934 18.7633 11.9123C18.7818 11.8906 18.8078 11.8767 18.8361 11.8732ZM24.0231 11.8732C24.0385 11.8723 24.054 11.8745 24.0685 11.8797C24.083 11.885 24.0963 11.8931 24.1076 11.9037C24.1188 11.9143 24.1278 11.9271 24.1339 11.9413C24.14 11.9555 24.1431 11.9708 24.1431 11.9862C24.1431 12.0482 24.0931 12.0992 24.0311 12.1002C24.0026 12.0987 23.9757 12.0866 23.9557 12.0663C23.9357 12.046 23.924 12.0189 23.923 11.9904C23.922 11.9619 23.9317 11.934 23.9503 11.9123C23.9688 11.8906 23.9948 11.8767 24.0231 11.8732ZM29.2111 11.8732C29.2265 11.8723 29.242 11.8745 29.2565 11.8797C29.271 11.885 29.2843 11.8931 29.2956 11.9037C29.3068 11.9143 29.3158 11.9271 29.3219 11.9413C29.328 11.9555 29.3311 11.9708 29.3311 11.9862C29.3301 12.0482 29.2801 12.0992 29.2191 12.1002C29.1906 12.0987 29.1637 12.0866 29.1437 12.0663C29.1237 12.046 29.112 12.0189 29.111 11.9904C29.11 11.9619 29.1197 11.934 29.1383 11.9123C29.1568 11.8906 29.1828 11.8767 29.2111 11.8732ZM16.0311 12.1952C16.4351 12.1952 16.8226 12.3557 17.1084 12.6414C17.3941 12.9271 17.5546 13.3147 17.5546 13.7187C17.5546 14.1228 17.3941 14.5103 17.1084 14.796C16.8226 15.0817 16.4351 15.2422 16.0311 15.2422C15.627 15.2422 15.2395 15.0817 14.9538 14.796C14.6681 14.5103 14.5076 14.1228 14.5076 13.7187C14.5076 13.3147 14.6681 12.9271 14.9538 12.6414C15.2395 12.3557 15.627 12.1952 16.0311 12.1952ZM21.3651 12.1952C21.7691 12.1952 22.1567 12.3557 22.4424 12.6414C22.7281 12.9271 22.8886 13.3147 22.8886 13.7187C22.8886 14.1228 22.7281 14.5103 22.4424 14.796C22.1567 15.0817 21.7691 15.2422 21.3651 15.2422C20.961 15.2422 20.5735 15.0817 20.2878 14.796C20.0021 14.5103 19.8416 14.1228 19.8416 13.7187C19.8416 13.3147 20.0021 12.9271 20.2878 12.6414C20.5735 12.3557 20.961 12.1952 21.3651 12.1952ZM26.6971 12.1952C27.1011 12.1952 27.4886 12.3557 27.7744 12.6414C28.0601 12.9271 28.2206 13.3147 28.2206 13.7187C28.2206 14.1228 28.0601 14.5103 27.7744 14.796C27.4886 15.0817 27.1011 15.2422 26.6971 15.2422C26.293 15.2422 25.9055 15.0817 25.6198 14.796C25.3341 14.5103 25.1736 14.1228 25.1736 13.7187C25.1736 13.3147 25.3341 12.9271 25.6198 12.6414C25.9055 12.3557 26.293 12.1952 26.6971 12.1952ZM32.0311 12.1952C32.4351 12.1952 32.8226 12.3557 33.1084 12.6414C33.3941 12.9271 33.5546 13.3147 33.5546 13.7187C33.5546 14.1228 33.3941 14.5103 33.1084 14.796C32.8226 15.0817 32.4351 15.2422 32.0311 15.2422C31.627 15.2422 31.2395 15.0817 30.9538 14.796C30.6681 14.5103 30.5076 14.1228 30.5076 13.7187C30.5076 13.3147 30.6681 12.9271 30.9538 12.6414C31.2395 12.3557 31.627 12.1952 32.0311 12.1952ZM18.8361 12.4352C18.8515 12.4341 18.867 12.4362 18.8816 12.4414C18.8962 12.4466 18.9096 12.4548 18.9209 12.4654C18.9322 12.476 18.9411 12.4889 18.9472 12.5031C18.9532 12.5174 18.9563 12.5327 18.9561 12.5482C18.9551 12.6102 18.9051 12.6622 18.8441 12.6622C18.8165 12.6597 18.7908 12.6471 18.7717 12.627C18.7527 12.6068 18.7417 12.5804 18.7407 12.5527C18.7397 12.525 18.7488 12.4979 18.7664 12.4765C18.784 12.455 18.8087 12.4407 18.8361 12.4362V12.4352ZM24.0231 12.4352C24.0385 12.4341 24.054 12.4362 24.0686 12.4414C24.0832 12.4466 24.0966 12.4548 24.1079 12.4654C24.1192 12.476 24.1281 12.4889 24.1342 12.5031C24.1402 12.5174 24.1433 12.5327 24.1431 12.5482C24.1431 12.6102 24.0931 12.6622 24.0311 12.6622C24.0035 12.6597 23.9778 12.6471 23.9587 12.627C23.9397 12.6068 23.9287 12.5804 23.9277 12.5527C23.9267 12.525 23.9358 12.4979 23.9534 12.4765C23.971 12.455 23.9957 12.4407 24.0231 12.4362V12.4352ZM29.2111 12.4352C29.2265 12.4341 29.242 12.4362 29.2566 12.4414C29.2712 12.4466 29.2846 12.4548 29.2959 12.4654C29.3072 12.476 29.3161 12.4889 29.3222 12.5031C29.3282 12.5174 29.3313 12.5327 29.3311 12.5482C29.3301 12.6102 29.2801 12.6622 29.2191 12.6622C29.1915 12.6597 29.1658 12.6471 29.1467 12.627C29.1277 12.6068 29.1167 12.5804 29.1157 12.5527C29.1147 12.525 29.1238 12.4979 29.1414 12.4765C29.159 12.455 29.1837 12.4407 29.2111 12.4362V12.4352ZM18.8241 14.6862H18.8441C18.8662 14.6866 18.8878 14.6936 18.906 14.7062C18.9241 14.7188 18.9382 14.7366 18.9463 14.7572C18.9544 14.7778 18.9562 14.8004 18.9515 14.822C18.9468 14.8437 18.9358 14.8634 18.9198 14.8788C18.9039 14.8942 18.8838 14.9045 18.862 14.9084C18.8402 14.9123 18.8177 14.9097 18.7974 14.9009C18.7771 14.8921 18.7598 14.8774 18.7479 14.8588C18.7359 14.8401 18.7297 14.8184 18.7301 14.7962C18.7301 14.7422 18.7701 14.6932 18.8241 14.6862ZM24.0121 14.6862H24.0311C24.0533 14.6864 24.0749 14.6932 24.0932 14.7057C24.1116 14.7182 24.1258 14.7359 24.134 14.7565C24.1423 14.7771 24.1442 14.7997 24.1396 14.8214C24.135 14.8431 24.1241 14.863 24.1082 14.8785C24.0923 14.8939 24.0721 14.9043 24.0503 14.9084C24.0285 14.9124 24.006 14.9098 23.9856 14.901C23.9652 14.8922 23.9479 14.8775 23.9359 14.8589C23.9239 14.8402 23.9177 14.8184 23.9181 14.7962C23.9181 14.7422 23.9581 14.6932 24.0121 14.6862ZM29.1991 14.6862H29.2191C29.2412 14.6866 29.2628 14.6936 29.281 14.7062C29.2991 14.7188 29.3132 14.7366 29.3213 14.7572C29.3294 14.7778 29.3312 14.8004 29.3265 14.822C29.3218 14.8437 29.3108 14.8634 29.2948 14.8788C29.2789 14.8942 29.2588 14.9045 29.237 14.9084C29.2152 14.9123 29.1927 14.9097 29.1724 14.9009C29.1521 14.8921 29.1348 14.8774 29.1229 14.8588C29.1109 14.8401 29.1047 14.8184 29.1051 14.7962C29.1051 14.7422 29.1451 14.6932 29.1991 14.6862ZM18.8241 15.2482H18.8441C18.9051 15.2482 18.9541 15.2982 18.9551 15.3592C18.9552 15.3806 18.9492 15.4016 18.9377 15.4197C18.9262 15.4378 18.9099 15.4522 18.8905 15.4612C18.8711 15.4703 18.8495 15.4736 18.8283 15.4708C18.807 15.4679 18.7871 15.4591 18.7707 15.4453C18.7544 15.4314 18.7424 15.4132 18.7361 15.3928C18.7298 15.3723 18.7294 15.3505 18.7352 15.3298C18.7409 15.3092 18.7524 15.2907 18.7683 15.2764C18.7843 15.2621 18.804 15.2527 18.8251 15.2492L18.8241 15.2482ZM24.0121 15.2482H24.0301C24.0921 15.2482 24.1411 15.2982 24.1421 15.3592C24.1422 15.3806 24.1361 15.4015 24.1247 15.4195C24.1133 15.4376 24.0969 15.452 24.0776 15.461C24.0582 15.4701 24.0367 15.4734 24.0155 15.4706C23.9944 15.4679 23.9744 15.4591 23.9581 15.4454C23.9417 15.4316 23.9296 15.4135 23.9232 15.3931C23.9168 15.3728 23.9164 15.351 23.922 15.3304C23.9275 15.3097 23.9389 15.2912 23.9547 15.2768C23.9705 15.2624 23.99 15.2528 24.0111 15.2492L24.0121 15.2482ZM29.1991 15.2482H29.2201C29.2811 15.2482 29.3301 15.2982 29.3311 15.3592C29.3312 15.3806 29.3252 15.4016 29.3137 15.4197C29.3022 15.4378 29.2859 15.4522 29.2665 15.4612C29.2471 15.4703 29.2255 15.4736 29.2043 15.4708C29.183 15.4679 29.1631 15.4591 29.1467 15.4453C29.1304 15.4314 29.1184 15.4132 29.1121 15.3928C29.1058 15.3723 29.1054 15.3505 29.1112 15.3298C29.1169 15.3092 29.1284 15.2907 29.1443 15.2764C29.1603 15.2621 29.18 15.2527 29.2011 15.2492L29.1991 15.2482ZM18.8461 15.8082C18.8759 15.8082 18.9045 15.8201 18.9256 15.8412C18.9467 15.8623 18.9586 15.8909 18.9586 15.9207C18.9586 15.9505 18.9467 15.9792 18.9256 16.0003C18.9045 16.0214 18.8759 16.0332 18.8461 16.0332C18.8164 16.0332 18.7879 16.0214 18.7669 16.0004C18.7459 15.9794 18.7341 15.9509 18.7341 15.9212C18.7341 15.8915 18.7459 15.863 18.7669 15.842C18.7879 15.821 18.8164 15.8092 18.8461 15.8092V15.8082ZM24.0331 15.8082C24.0629 15.8082 24.0915 15.8201 24.1126 15.8412C24.1337 15.8623 24.1456 15.8909 24.1456 15.9207C24.1456 15.9505 24.1337 15.9792 24.1126 16.0003C24.0915 16.0214 24.0629 16.0332 24.0331 16.0332C24.0034 16.0332 23.9749 16.0214 23.9539 16.0004C23.9329 15.9794 23.9211 15.9509 23.9211 15.9212C23.9211 15.8915 23.9329 15.863 23.9539 15.842C23.9749 15.821 24.0034 15.8092 24.0331 15.8092V15.8082ZM29.2211 15.8082C29.2509 15.8082 29.2795 15.8201 29.3006 15.8412C29.3217 15.8623 29.3336 15.8909 29.3336 15.9207C29.3336 15.9505 29.3217 15.9792 29.3006 16.0003C29.2795 16.0214 29.2509 16.0332 29.2211 16.0332C29.1914 16.0332 29.1629 16.0214 29.1419 16.0004C29.1209 15.9794 29.1091 15.9509 29.1091 15.9212C29.1091 15.8915 29.1209 15.863 29.1419 15.842C29.1629 15.821 29.1914 15.8092 29.2211 15.8092V15.8082ZM16.0311 17.3742C16.2357 17.3668 16.4398 17.4007 16.631 17.4739C16.8223 17.5471 16.9968 17.6581 17.1442 17.8002C17.2916 17.9424 17.4089 18.1128 17.4889 18.3013C17.569 18.4897 17.6103 18.6924 17.6103 18.8972C17.6103 19.102 17.569 19.3047 17.4889 19.4931C17.4089 19.6816 17.2916 19.852 17.1442 19.9942C16.9968 20.1363 16.8223 20.2473 16.631 20.3205C16.4398 20.3937 16.2357 20.4276 16.0311 20.4202C15.6338 20.41 15.2562 20.2451 14.9788 19.9605C14.7014 19.6758 14.5461 19.2941 14.5461 18.8967C14.5461 18.4993 14.7014 18.1176 14.9788 17.833C15.2562 17.5484 15.6338 17.3834 16.0311 17.3732V17.3742ZM21.3651 17.3742C21.5697 17.3668 21.7738 17.4007 21.965 17.4739C22.1563 17.5471 22.3308 17.6581 22.4782 17.8002C22.6256 17.9424 22.7429 18.1128 22.8229 18.3013C22.903 18.4897 22.9443 18.6924 22.9443 18.8972C22.9443 19.102 22.903 19.3047 22.8229 19.4931C22.7429 19.6816 22.6256 19.852 22.4782 19.9942C22.3308 20.1363 22.1563 20.2473 21.965 20.3205C21.7738 20.3937 21.5697 20.4276 21.3651 20.4202C20.9678 20.41 20.5902 20.2451 20.3128 19.9605C20.0354 19.6758 19.8801 19.2941 19.8801 18.8967C19.8801 18.4993 20.0354 18.1176 20.3128 17.833C20.5902 17.5484 20.9678 17.3834 21.3651 17.3732V17.3742ZM26.6971 17.3742C27.101 17.3742 27.4884 17.5347 27.774 17.8203C28.0596 18.1059 28.2201 18.4933 28.2201 18.8972C28.2201 19.3011 28.0596 19.6885 27.774 19.9741C27.4884 20.2598 27.101 20.4202 26.6971 20.4202C26.293 20.4202 25.9055 20.2597 25.6198 19.974C25.3341 19.6883 25.1736 19.3008 25.1736 18.8967C25.1736 18.4927 25.3341 18.1051 25.6198 17.8194C25.9055 17.5337 26.293 17.3732 26.6971 17.3732V17.3742ZM32.0311 17.3742C32.2357 17.3668 32.4398 17.4007 32.631 17.4739C32.8223 17.5471 32.9968 17.6581 33.1442 17.8002C33.2916 17.9424 33.4089 18.1128 33.4889 18.3013C33.569 18.4897 33.6103 18.6924 33.6103 18.8972C33.6103 19.102 33.569 19.3047 33.4889 19.4931C33.4089 19.6816 33.2916 19.852 33.1442 19.9942C32.9968 20.1363 32.8223 20.2473 32.631 20.3205C32.4398 20.3937 32.2357 20.4276 32.0311 20.4202C31.6338 20.41 31.2562 20.2451 30.9788 19.9605C30.7014 19.6758 30.5461 19.2941 30.5461 18.8967C30.5461 18.4993 30.7014 18.1176 30.9788 17.833C31.2562 17.5484 31.6338 17.3834 32.0311 17.3732V17.3742ZM18.8361 17.4962C18.8514 17.4951 18.8667 17.4972 18.8812 17.5022C18.8956 17.5073 18.9089 17.5153 18.9201 17.5257C18.9314 17.5361 18.9404 17.5487 18.9466 17.5627C18.9527 17.5768 18.956 17.5919 18.9561 17.6072C18.9564 17.6291 18.9503 17.6506 18.9386 17.6691C18.9268 17.6875 18.9099 17.7021 18.89 17.7111C18.87 17.7201 18.8479 17.723 18.8263 17.7195C18.8047 17.716 18.7845 17.7063 18.7684 17.6915C18.7523 17.6767 18.7408 17.6575 18.7355 17.6363C18.7301 17.6151 18.7311 17.5928 18.7383 17.5721C18.7455 17.5514 18.7586 17.5333 18.776 17.52C18.7934 17.5067 18.8143 17.4988 18.8361 17.4972V17.4962ZM24.0231 17.4962C24.0384 17.4951 24.0537 17.4972 24.0682 17.5022C24.0826 17.5073 24.0959 17.5153 24.1071 17.5257C24.1184 17.5361 24.1274 17.5487 24.1336 17.5627C24.1397 17.5768 24.143 17.5919 24.1431 17.6072C24.1434 17.6291 24.1373 17.6506 24.1256 17.6691C24.1138 17.6875 24.0969 17.7021 24.077 17.7111C24.057 17.7201 24.0349 17.723 24.0133 17.7195C23.9917 17.716 23.9715 17.7063 23.9554 17.6915C23.9393 17.6767 23.9278 17.6575 23.9225 17.6363C23.9171 17.6151 23.9181 17.5928 23.9253 17.5721C23.9325 17.5514 23.9456 17.5333 23.963 17.52C23.9804 17.5067 24.0013 17.4988 24.0231 17.4972V17.4962ZM29.2111 17.4962C29.2264 17.4951 29.2417 17.4972 29.2562 17.5022C29.2706 17.5073 29.2839 17.5153 29.2951 17.5257C29.3064 17.5361 29.3154 17.5487 29.3216 17.5627C29.3277 17.5768 29.331 17.5919 29.3311 17.6072C29.3314 17.6291 29.3253 17.6506 29.3136 17.6691C29.3018 17.6875 29.2849 17.7021 29.265 17.7111C29.245 17.7201 29.2229 17.723 29.2013 17.7195C29.1797 17.716 29.1595 17.7063 29.1434 17.6915C29.1273 17.6767 29.1158 17.6575 29.1105 17.6363C29.1051 17.6151 29.1061 17.5928 29.1133 17.5721C29.1205 17.5514 29.1336 17.5333 29.151 17.52C29.1684 17.5067 29.1893 17.4988 29.2111 17.4972V17.4962ZM18.8361 18.6212C18.8514 18.6201 18.8667 18.6222 18.8812 18.6272C18.8956 18.6323 18.9089 18.6403 18.9201 18.6507C18.9314 18.6611 18.9404 18.6737 18.9466 18.6877C18.9527 18.7018 18.956 18.7169 18.9561 18.7322C18.9564 18.7541 18.9503 18.7756 18.9386 18.7941C18.9268 18.8125 18.9099 18.8271 18.89 18.8361C18.87 18.8451 18.8479 18.848 18.8263 18.8445C18.8047 18.841 18.7845 18.8313 18.7684 18.8165C18.7523 18.8017 18.7408 18.7825 18.7355 18.7613C18.7301 18.7401 18.7311 18.7178 18.7383 18.6971C18.7455 18.6764 18.7586 18.6583 18.776 18.645C18.7934 18.6317 18.8143 18.6238 18.8361 18.6222V18.6212ZM24.0231 18.6212C24.0384 18.6201 24.0537 18.6222 24.0682 18.6272C24.0826 18.6323 24.0959 18.6403 24.1071 18.6507C24.1184 18.6611 24.1274 18.6737 24.1336 18.6877C24.1397 18.7018 24.143 18.7169 24.1431 18.7322C24.1434 18.7541 24.1373 18.7756 24.1256 18.7941C24.1138 18.8125 24.0969 18.8271 24.077 18.8361C24.057 18.8451 24.0349 18.848 24.0133 18.8445C23.9917 18.841 23.9715 18.8313 23.9554 18.8165C23.9393 18.8017 23.9278 18.7825 23.9225 18.7613C23.9171 18.7401 23.9181 18.7178 23.9253 18.6971C23.9325 18.6764 23.9456 18.6583 23.963 18.645C23.9804 18.6317 24.0013 18.6238 24.0231 18.6222V18.6212ZM29.2111 18.6212C29.2264 18.6201 29.2417 18.6222 29.2562 18.6272C29.2706 18.6323 29.2839 18.6403 29.2951 18.6507C29.3064 18.6611 29.3154 18.6737 29.3216 18.6877C29.3277 18.7018 29.331 18.7169 29.3311 18.7322C29.3314 18.7541 29.3253 18.7756 29.3136 18.7941C29.3018 18.8125 29.2849 18.8271 29.265 18.8361C29.245 18.8451 29.2229 18.848 29.2013 18.8445C29.1797 18.841 29.1595 18.8313 29.1434 18.8165C29.1273 18.8017 29.1158 18.7825 29.1105 18.7613C29.1051 18.7401 29.1061 18.7178 29.1133 18.6971C29.1205 18.6764 29.1336 18.6583 29.151 18.645C29.1684 18.6317 29.1893 18.6238 29.2111 18.6222V18.6212ZM18.8241 19.1842H18.8441C18.8662 19.1846 18.8877 19.1915 18.9059 19.2041C18.924 19.2167 18.9381 19.2344 18.9462 19.255C18.9544 19.2755 18.9562 19.298 18.9516 19.3196C18.947 19.3413 18.9361 19.361 18.9202 19.3764C18.9044 19.3919 18.8843 19.4023 18.8626 19.4063C18.8409 19.4103 18.8184 19.4079 18.7981 19.3992C18.7777 19.3905 18.7604 19.376 18.7483 19.3575C18.7362 19.339 18.7299 19.3173 18.7301 19.2952C18.7301 19.2402 18.7701 19.1912 18.8241 19.1842ZM24.0121 19.1842H24.0301C24.0522 19.1844 24.0738 19.1912 24.0921 19.2036C24.1104 19.2161 24.1246 19.2337 24.1329 19.2543C24.1412 19.2748 24.1432 19.2974 24.1387 19.319C24.1342 19.3407 24.1234 19.3606 24.1076 19.3761C24.0918 19.3916 24.0717 19.4021 24.0499 19.4062C24.0282 19.4104 24.0057 19.408 23.9853 19.3993C23.9649 19.3906 23.9475 19.3761 23.9354 19.3576C23.9233 19.3391 23.9169 19.3174 23.9171 19.2952C23.9171 19.2402 23.9571 19.1912 24.0111 19.1842H24.0121ZM29.1991 19.1842H29.2201C29.2422 19.1846 29.2637 19.1915 29.2819 19.2041C29.3 19.2167 29.3141 19.2344 29.3222 19.255C29.3304 19.2755 29.3322 19.298 29.3276 19.3196C29.323 19.3413 29.3121 19.361 29.2962 19.3764C29.2804 19.3919 29.2603 19.4023 29.2386 19.4063C29.2169 19.4103 29.1944 19.4079 29.1741 19.3992C29.1537 19.3905 29.1364 19.376 29.1243 19.3575C29.1122 19.339 29.1059 19.3173 29.1061 19.2952C29.1061 19.2402 29.1461 19.1912 29.2001 19.1842H29.1991ZM18.8461 19.7442C18.8759 19.7445 18.9044 19.7566 18.9253 19.7779C18.9463 19.7992 18.9578 19.8279 18.9576 19.8577C18.9573 19.8875 18.9452 19.9161 18.9239 19.937C18.9026 19.9579 18.8739 19.9695 18.8441 19.9692C18.8293 19.9691 18.8147 19.966 18.8011 19.9603C18.7875 19.9545 18.7752 19.9461 18.7648 19.9356C18.7545 19.925 18.7463 19.9125 18.7408 19.8988C18.7352 19.8851 18.7325 19.8705 18.7326 19.8557C18.7327 19.8409 18.7358 19.8263 18.7415 19.8127C18.7473 19.7991 18.7557 19.7868 18.7662 19.7765C18.7768 19.7661 18.7893 19.7579 18.803 19.7524C18.8167 19.7469 18.8313 19.7441 18.8461 19.7442ZM24.0331 19.7442C24.0629 19.7445 24.0914 19.7566 24.1123 19.7779C24.1333 19.7992 24.1448 19.8279 24.1446 19.8577C24.1443 19.8875 24.1322 19.9161 24.1109 19.937C24.0896 19.9579 24.0609 19.9695 24.0311 19.9692C24.0163 19.9691 24.0017 19.966 23.9881 19.9603C23.9745 19.9545 23.9622 19.9461 23.9518 19.9356C23.9309 19.9143 23.9193 19.8855 23.9196 19.8557C23.9198 19.8259 23.932 19.7974 23.9532 19.7765C23.9745 19.7555 24.0032 19.7439 24.0331 19.7442ZM29.2211 19.7442C29.2509 19.7445 29.2794 19.7566 29.3003 19.7779C29.3213 19.7992 29.3328 19.8279 29.3326 19.8577C29.3323 19.8875 29.3202 19.9161 29.2989 19.937C29.2776 19.9579 29.2489 19.9695 29.2191 19.9692C29.2043 19.9691 29.1897 19.966 29.1761 19.9603C29.1625 19.9545 29.1502 19.9461 29.1398 19.9356C29.1189 19.9143 29.1073 19.8855 29.1076 19.8557C29.1078 19.8259 29.12 19.7974 29.1412 19.7765C29.1625 19.7555 29.1912 19.7439 29.2211 19.7442ZM18.8361 21.9942C18.8514 21.9931 18.8667 21.9952 18.8812 22.0002C18.8956 22.0053 18.9089 22.0133 18.9201 22.0237C18.9314 22.0341 18.9404 22.0467 18.9466 22.0607C18.9527 22.0748 18.956 22.0899 18.9561 22.1052C18.9564 22.1271 18.9503 22.1486 18.9386 22.1671C18.9268 22.1855 18.9099 22.2001 18.89 22.2091C18.87 22.2181 18.8479 22.221 18.8263 22.2175C18.8047 22.214 18.7845 22.2043 18.7684 22.1895C18.7523 22.1747 18.7408 22.1555 18.7355 22.1343C18.7301 22.1131 18.7311 22.0907 18.7383 22.0701C18.7455 22.0494 18.7586 22.0313 18.776 22.018C18.7934 22.0047 18.8143 21.9968 18.8361 21.9952V21.9942ZM24.0231 21.9942C24.0384 21.9931 24.0537 21.9952 24.0682 22.0002C24.0826 22.0053 24.0959 22.0133 24.1071 22.0237C24.1184 22.0341 24.1274 22.0467 24.1336 22.0607C24.1397 22.0748 24.143 22.0899 24.1431 22.1052C24.1434 22.1271 24.1373 22.1486 24.1256 22.1671C24.1138 22.1855 24.0969 22.2001 24.077 22.2091C24.057 22.2181 24.0349 22.221 24.0133 22.2175C23.9917 22.214 23.9715 22.2043 23.9554 22.1895C23.9393 22.1747 23.9278 22.1555 23.9225 22.1343C23.9171 22.1131 23.9181 22.0907 23.9253 22.0701C23.9325 22.0494 23.9456 22.0313 23.963 22.018C23.9804 22.0047 24.0013 21.9968 24.0231 21.9952V21.9942ZM29.2111 21.9942C29.2264 21.9931 29.2417 21.9952 29.2562 22.0002C29.2706 22.0053 29.2839 22.0133 29.2951 22.0237C29.3064 22.0341 29.3154 22.0467 29.3216 22.0607C29.3277 22.0748 29.331 22.0899 29.3311 22.1052C29.3314 22.1271 29.3253 22.1486 29.3136 22.1671C29.3018 22.1855 29.2849 22.2001 29.265 22.2091C29.245 22.2181 29.2229 22.221 29.2013 22.2175C29.1797 22.214 29.1595 22.2043 29.1434 22.1895C29.1273 22.1747 29.1158 22.1555 29.1105 22.1343C29.1051 22.1131 29.1061 22.0907 29.1133 22.0701C29.1205 22.0494 29.1336 22.0313 29.151 22.018C29.1684 22.0047 29.1893 21.9968 29.2111 21.9952V21.9942ZM16.0311 22.5512C16.2344 22.546 16.4368 22.5816 16.6262 22.6558C16.8156 22.73 16.9882 22.8414 17.1339 22.9834C17.2795 23.1254 17.3953 23.2951 17.4743 23.4825C17.5534 23.6699 17.5941 23.8713 17.5941 24.0747C17.5941 24.2781 17.5534 24.4795 17.4743 24.6669C17.3953 24.8544 17.2795 25.0241 17.1339 25.1661C16.9882 25.308 16.8156 25.4194 16.6262 25.4936C16.4368 25.5679 16.2344 25.6034 16.0311 25.5982C15.6338 25.588 15.2562 25.4231 14.9788 25.1385C14.7014 24.8539 14.5461 24.4721 14.5461 24.0747C14.5461 23.6773 14.7014 23.2956 14.9788 23.011C15.2562 22.7264 15.6338 22.5614 16.0311 22.5512ZM21.3651 22.5512C21.5684 22.546 21.7708 22.5816 21.9602 22.6558C22.1496 22.73 22.3222 22.8414 22.4679 22.9834C22.6135 23.1254 22.7293 23.2951 22.8083 23.4825C22.8874 23.6699 22.9281 23.8713 22.9281 24.0747C22.9281 24.2781 22.8874 24.4795 22.8083 24.6669C22.7293 24.8544 22.6135 25.0241 22.4679 25.1661C22.3222 25.308 22.1496 25.4194 21.9602 25.4936C21.7708 25.5679 21.5684 25.6034 21.3651 25.5982C20.9678 25.588 20.5902 25.4231 20.3128 25.1385C20.0354 24.8539 19.8801 24.4721 19.8801 24.0747C19.8801 23.6773 20.0354 23.2956 20.3128 23.011C20.5902 22.7264 20.9678 22.5614 21.3651 22.5512ZM26.6971 22.5512C27.1011 22.5512 27.4886 22.7117 27.7744 22.9974C28.0601 23.2831 28.2206 23.6707 28.2206 24.0747C28.2206 24.4788 28.0601 24.8663 27.7744 25.152C27.4886 25.4377 27.1011 25.5982 26.6971 25.5982C26.293 25.5982 25.9055 25.4377 25.6198 25.152C25.3341 24.8663 25.1736 24.4788 25.1736 24.0747C25.1736 23.6707 25.3341 23.2831 25.6198 22.9974C25.9055 22.7117 26.293 22.5512 26.6971 22.5512ZM32.0311 22.5512C32.2344 22.546 32.4368 22.5816 32.6262 22.6558C32.8156 22.73 32.9882 22.8414 33.1339 22.9834C33.2795 23.1254 33.3953 23.2951 33.4743 23.4825C33.5534 23.6699 33.5941 23.8713 33.5941 24.0747C33.5941 24.2781 33.5534 24.4795 33.4743 24.6669C33.3953 24.8544 33.2795 25.0241 33.1339 25.1661C32.9882 25.308 32.8156 25.4194 32.6262 25.4936C32.4368 25.5679 32.2344 25.6034 32.0311 25.5982C31.6338 25.588 31.2562 25.4231 30.9788 25.1385C30.7014 24.8539 30.5461 24.4721 30.5461 24.0747C30.5461 23.6773 30.7014 23.2956 30.9788 23.011C31.2562 22.7264 31.6338 22.5614 32.0311 22.5512ZM18.8241 23.6822H18.8441C18.8665 23.6824 18.8883 23.6893 18.9068 23.7019C18.9253 23.7145 18.9396 23.7324 18.9479 23.7531C18.9563 23.7739 18.9583 23.7967 18.9536 23.8186C18.949 23.8405 18.9379 23.8605 18.9219 23.8762C18.9059 23.8918 18.8855 23.9023 18.8635 23.9063C18.8415 23.9104 18.8188 23.9078 18.7982 23.8989C18.7777 23.89 18.7602 23.8752 18.7481 23.8564C18.736 23.8376 18.7297 23.8156 18.7301 23.7932C18.7301 23.7382 18.7701 23.6892 18.8241 23.6822ZM24.0121 23.6822H24.0301C24.0525 23.6822 24.0744 23.6889 24.0931 23.7014C24.1117 23.7139 24.1262 23.7317 24.1347 23.7524C24.1432 23.7732 24.1453 23.796 24.1407 23.818C24.1362 23.84 24.1253 23.8601 24.1093 23.8758C24.0932 23.8915 24.0729 23.9021 24.0509 23.9063C24.0288 23.9104 24.006 23.9079 23.9854 23.899C23.9648 23.8902 23.9473 23.8754 23.9351 23.8565C23.923 23.8377 23.9167 23.8156 23.9171 23.7932C23.9171 23.7382 23.9571 23.6892 24.0111 23.6822H24.0121ZM29.1991 23.6822H29.2201C29.2425 23.6824 29.2643 23.6893 29.2828 23.7019C29.3013 23.7145 29.3156 23.7324 29.3239 23.7531C29.3323 23.7739 29.3343 23.7967 29.3296 23.8186C29.325 23.8405 29.3139 23.8605 29.2979 23.8762C29.2819 23.8918 29.2615 23.9023 29.2395 23.9063C29.2175 23.9104 29.1948 23.9078 29.1742 23.8989C29.1537 23.89 29.1362 23.8752 29.1241 23.8564C29.112 23.8376 29.1057 23.8156 29.1061 23.7932C29.1061 23.7382 29.1461 23.6892 29.2001 23.6822H29.1991ZM18.8241 24.2442H18.8441C18.9051 24.2452 18.9541 24.2942 18.9551 24.3552C18.9552 24.3766 18.9492 24.3976 18.9377 24.4157C18.9262 24.4338 18.9099 24.4482 18.8905 24.4572C18.8711 24.4663 18.8495 24.4696 18.8283 24.4668C18.807 24.4639 18.7871 24.4551 18.7707 24.4413C18.7544 24.4274 18.7424 24.4092 18.7361 24.3888C18.7298 24.3683 18.7294 24.3465 18.7352 24.3258C18.7409 24.3052 18.7524 24.2867 18.7683 24.2724C18.7843 24.2581 18.804 24.2487 18.8251 24.2452L18.8241 24.2442ZM24.0121 24.2442H24.0301C24.0921 24.2452 24.1411 24.2942 24.1421 24.3552C24.1422 24.3766 24.1361 24.3975 24.1247 24.4155C24.1133 24.4336 24.0969 24.448 24.0776 24.457C24.0582 24.4661 24.0367 24.4694 24.0155 24.4666C23.9944 24.4639 23.9744 24.4551 23.9581 24.4414C23.9417 24.4276 23.9296 24.4095 23.9232 24.3891C23.9168 24.3688 23.9164 24.347 23.922 24.3264C23.9275 24.3057 23.9389 24.2872 23.9547 24.2728C23.9705 24.2584 23.99 24.2488 24.0111 24.2452L24.0121 24.2442ZM29.1991 24.2442H29.2201C29.2811 24.2452 29.3301 24.2942 29.3311 24.3552C29.3312 24.3766 29.3252 24.3976 29.3137 24.4157C29.3022 24.4338 29.2859 24.4482 29.2665 24.4572C29.2471 24.4663 29.2255 24.4696 29.2043 24.4668C29.183 24.4639 29.1631 24.4551 29.1467 24.4413C29.1304 24.4274 29.1184 24.4092 29.1121 24.3888C29.1058 24.3683 29.1054 24.3465 29.1112 24.3258C29.1169 24.3052 29.1284 24.2867 29.1443 24.2724C29.1603 24.2581 29.18 24.2487 29.2011 24.2452L29.1991 24.2442ZM16.0311 27.7292C16.435 27.7292 16.8224 27.8897 17.108 28.1753C17.3936 28.4609 17.5541 28.8483 17.5541 29.2522C17.5541 29.6561 17.3936 30.0435 17.108 30.3291C16.8224 30.6148 16.435 30.7752 16.0311 30.7752C15.6272 30.7752 15.2398 30.6148 14.9542 30.3291C14.6685 30.0435 14.5081 29.6561 14.5081 29.2522C14.5081 28.8483 14.6685 28.4609 14.9542 28.1753C15.2398 27.8897 15.6272 27.7292 16.0311 27.7292ZM21.3651 27.7292C21.7691 27.7292 22.1567 27.8897 22.4424 28.1754C22.7281 28.4611 22.8886 28.8487 22.8886 29.2527C22.8886 29.6568 22.7281 30.0443 22.4424 30.33C22.1567 30.6157 21.7691 30.7762 21.3651 30.7762C20.961 30.7762 20.5735 30.6157 20.2878 30.33C20.0021 30.0443 19.8416 29.6568 19.8416 29.2527C19.8416 28.8487 20.0021 28.4611 20.2878 28.1754C20.5735 27.8897 20.961 27.7292 21.3651 27.7292ZM26.6971 27.7292C27.101 27.7292 27.4884 27.8897 27.774 28.1753C28.0596 28.4609 28.2201 28.8483 28.2201 29.2522C28.2201 29.6561 28.0596 30.0435 27.774 30.3291C27.4884 30.6148 27.101 30.7752 26.6971 30.7752C26.2932 30.7752 25.9058 30.6148 25.6202 30.3291C25.3345 30.0435 25.1741 29.6561 25.1741 29.2522C25.1741 28.8483 25.3345 28.4609 25.6202 28.1753C25.9058 27.8897 26.2932 27.7292 26.6971 27.7292ZM32.0311 27.7292C32.435 27.7292 32.8224 27.8897 33.108 28.1753C33.3936 28.4609 33.5541 28.8483 33.5541 29.2522C33.5541 29.6561 33.3936 30.0435 33.108 30.3291C32.8224 30.6148 32.435 30.7752 32.0311 30.7752C31.6272 30.7752 31.2398 30.6148 30.9542 30.3291C30.6685 30.0435 30.5081 29.6561 30.5081 29.2522C30.5081 28.8483 30.6685 28.4609 30.9542 28.1753C31.2398 27.8897 31.6272 27.7292 32.0311 27.7292ZM18.8241 28.1792H18.8441C18.9051 28.1812 18.9541 28.2292 18.9551 28.2912C18.9515 28.3183 18.9381 28.3432 18.9175 28.3613C18.8969 28.3793 18.8705 28.3892 18.8431 28.3892C18.8157 28.3892 18.7893 28.3793 18.7687 28.3613C18.7481 28.3432 18.7347 28.3183 18.7311 28.2912C18.7311 28.2362 18.7701 28.1872 18.8241 28.1802V28.1792ZM24.0121 28.1792H24.0301C24.0921 28.1812 24.1411 28.2292 24.1421 28.2912C24.1394 28.3192 24.1264 28.3452 24.1056 28.3642C24.0848 28.3831 24.0577 28.3936 24.0296 28.3936C24.0015 28.3936 23.9743 28.3831 23.9535 28.3642C23.9327 28.3452 23.9197 28.3192 23.9171 28.2912C23.9171 28.2362 23.9571 28.1872 24.0111 28.1802L24.0121 28.1792ZM29.1991 28.1792H29.2201C29.2811 28.1812 29.3301 28.2292 29.3311 28.2912C29.3274 28.3183 29.3141 28.3432 29.2935 28.3613C29.2729 28.3793 29.2465 28.3892 29.2191 28.3892C29.1917 28.3892 29.1653 28.3793 29.1447 28.3613C29.1241 28.3432 29.1107 28.3183 29.1071 28.2912C29.1071 28.2362 29.1461 28.1872 29.2001 28.1802L29.1991 28.1792ZM18.8461 28.7402C18.8759 28.7405 18.9044 28.7526 18.9253 28.7739C18.9463 28.7952 18.9578 28.8239 18.9576 28.8537C18.9573 28.8835 18.9452 28.9121 18.9239 28.933C18.9026 28.9539 18.8739 28.9655 18.8441 28.9652C18.8293 28.9651 18.8147 28.962 18.8011 28.9563C18.7875 28.9505 18.7752 28.9421 18.7648 28.9316C18.7545 28.921 18.7463 28.9085 18.7408 28.8948C18.7352 28.8811 18.7325 28.8665 18.7326 28.8517C18.7327 28.8369 18.7358 28.8223 18.7415 28.8087C18.7473 28.7951 18.7557 28.7828 18.7662 28.7725C18.7768 28.7621 18.7893 28.7539 18.803 28.7484C18.8167 28.7429 18.8313 28.7401 18.8461 28.7402ZM24.0331 28.7402C24.0479 28.7403 24.0625 28.7434 24.0761 28.7492C24.0897 28.7549 24.102 28.7633 24.1123 28.7739C24.1227 28.7844 24.1309 28.7969 24.1364 28.8106C24.1419 28.8243 24.1447 28.8389 24.1446 28.8537C24.1445 28.8685 24.1414 28.8831 24.1356 28.8967C24.1299 28.9103 24.1215 28.9226 24.1109 28.933C24.1004 28.9433 24.0879 28.9515 24.0742 28.957C24.0605 28.9626 24.0459 28.9653 24.0311 28.9652C24.0012 28.9649 23.9727 28.9528 23.9518 28.9316C23.9309 28.9103 23.9193 28.8815 23.9196 28.8517C23.9198 28.8219 23.932 28.7934 23.9532 28.7725C23.9745 28.7515 24.0032 28.7399 24.0331 28.7402ZM29.2211 28.7402C29.2359 28.7403 29.2505 28.7434 29.2641 28.7492C29.2777 28.7549 29.29 28.7633 29.3003 28.7739C29.3107 28.7844 29.3189 28.7969 29.3244 28.8106C29.3299 28.8243 29.3327 28.8389 29.3326 28.8537C29.3325 28.8685 29.3294 28.8831 29.3236 28.8967C29.3179 28.9103 29.3095 28.9226 29.2989 28.933C29.2884 28.9433 29.2759 28.9515 29.2622 28.957C29.2485 28.9626 29.2339 28.9653 29.2191 28.9652C29.1892 28.9649 29.1607 28.9528 29.1398 28.9316C29.1189 28.9103 29.1073 28.8815 29.1076 28.8517C29.1078 28.8219 29.12 28.7934 29.1412 28.7725C29.1625 28.7515 29.1912 28.7399 29.2211 28.7402ZM18.8361 30.9882C18.8515 30.9874 18.8669 30.9897 18.8813 30.995C18.8958 31.0003 18.909 31.0085 18.9202 31.0191C18.9315 31.0296 18.9404 31.0423 18.9466 31.0565C18.9527 31.0706 18.956 31.0858 18.9561 31.1012C18.9561 31.1312 18.9442 31.1599 18.923 31.1811C18.9018 31.2023 18.8731 31.2142 18.8431 31.2142C18.8131 31.2142 18.7844 31.2023 18.7632 31.1811C18.742 31.1599 18.7301 31.1312 18.7301 31.1012C18.7301 31.0422 18.7771 30.9912 18.8361 30.9882ZM24.0231 30.9882C24.0385 30.9874 24.0539 30.9897 24.0683 30.995C24.0828 31.0003 24.096 31.0085 24.1072 31.0191C24.1185 31.0296 24.1274 31.0423 24.1336 31.0565C24.1397 31.0706 24.143 31.0858 24.1431 31.1012C24.1431 31.131 24.1312 31.1597 24.1101 31.1808C24.089 31.2019 24.0604 31.2137 24.0306 31.2137C24.0007 31.2137 23.9721 31.2019 23.951 31.1808C23.9299 31.1597 23.9181 31.131 23.9181 31.1012C23.9181 31.0422 23.9651 30.9912 24.0231 30.9882ZM29.2111 30.9882C29.2265 30.9874 29.2419 30.9897 29.2563 30.995C29.2708 31.0003 29.284 31.0085 29.2952 31.0191C29.3065 31.0296 29.3154 31.0423 29.3216 31.0565C29.3277 31.0706 29.331 31.0858 29.3311 31.1012C29.3311 31.1312 29.3192 31.1599 29.298 31.1811C29.2768 31.2023 29.2481 31.2142 29.2181 31.2142C29.1881 31.2142 29.1594 31.2023 29.1382 31.1811C29.117 31.1599 29.1051 31.1312 29.1051 31.1012C29.1051 31.0422 29.1521 30.9912 29.2111 30.9882ZM18.8361 31.5512H18.8441C18.8721 31.5539 18.8981 31.5669 18.917 31.5877C18.936 31.6085 18.9465 31.6356 18.9465 31.6637C18.9465 31.6918 18.936 31.719 18.917 31.7398C18.8981 31.7606 18.8721 31.7736 18.8441 31.7762C18.8142 31.7773 18.7852 31.7664 18.7634 31.7461C18.7415 31.7257 18.7286 31.6975 18.7276 31.6677C18.7265 31.6379 18.7374 31.6088 18.7577 31.587C18.7781 31.5651 18.8062 31.5523 18.8361 31.5512ZM24.0231 31.5512H24.0311C24.0591 31.5539 24.0851 31.5669 24.104 31.5877C24.123 31.6085 24.1335 31.6356 24.1335 31.6637C24.1335 31.6918 24.123 31.719 24.104 31.7398C24.0851 31.7606 24.0591 31.7736 24.0311 31.7762C24.0012 31.7773 23.9722 31.7664 23.9504 31.7461C23.9285 31.7257 23.9156 31.6975 23.9146 31.6677C23.9135 31.6379 23.9244 31.6088 23.9447 31.587C23.9651 31.5651 23.9932 31.5523 24.0231 31.5512ZM29.2111 31.5512H29.2191C29.2471 31.5539 29.2731 31.5669 29.292 31.5877C29.311 31.6085 29.3215 31.6356 29.3215 31.6637C29.3215 31.6918 29.311 31.719 29.292 31.7398C29.2731 31.7606 29.2471 31.7736 29.2191 31.7762C29.1892 31.7773 29.1602 31.7664 29.1384 31.7461C29.1165 31.7257 29.1036 31.6975 29.1026 31.6677C29.1015 31.6379 29.1124 31.6088 29.1327 31.587C29.1531 31.5651 29.1812 31.5523 29.2111 31.5512ZM18.8241 32.1132H18.8441C18.8721 32.1159 18.8981 32.1289 18.917 32.1497C18.936 32.1705 18.9465 32.1976 18.9465 32.2257C18.9465 32.2538 18.936 32.281 18.917 32.3018C18.8981 32.3226 18.8721 32.3356 18.8441 32.3382C18.8291 32.3385 18.8143 32.3357 18.8004 32.3302C18.7865 32.3246 18.7739 32.3163 18.7632 32.3058C18.7526 32.2952 18.7442 32.2827 18.7385 32.2688C18.7328 32.255 18.7299 32.2402 18.7301 32.2252C18.7301 32.1702 18.7701 32.1212 18.8241 32.1132ZM24.0121 32.1132H24.0301C24.0581 32.1159 24.0841 32.1289 24.103 32.1497C24.122 32.1705 24.1325 32.1976 24.1325 32.2257C24.1325 32.2538 24.122 32.281 24.103 32.3018C24.0841 32.3226 24.0581 32.3356 24.0301 32.3382C24.0152 32.3383 24.0005 32.3355 23.9867 32.3299C23.9729 32.3242 23.9604 32.3159 23.9499 32.3054C23.9394 32.2949 23.931 32.2824 23.9254 32.2686C23.9198 32.2548 23.917 32.2401 23.9171 32.2252C23.9171 32.1702 23.9571 32.1212 24.0111 32.1132H24.0121ZM29.1991 32.1132H29.2201C29.2481 32.1159 29.2741 32.1289 29.293 32.1497C29.312 32.1705 29.3225 32.1976 29.3225 32.2257C29.3225 32.2538 29.312 32.281 29.293 32.3018C29.2741 32.3226 29.2481 32.3356 29.2201 32.3382C29.2051 32.3385 29.1903 32.3357 29.1764 32.3302C29.1625 32.3246 29.1499 32.3163 29.1392 32.3058C29.1286 32.2952 29.1202 32.2827 29.1145 32.2688C29.1088 32.255 29.1059 32.2402 29.1061 32.2252C29.1061 32.1702 29.1461 32.1212 29.2001 32.1132H29.1991ZM18.8241 32.6762H18.8441C18.9051 32.6762 18.9541 32.7262 18.9551 32.7872C18.955 32.8086 18.9488 32.8295 18.9372 32.8474C18.9257 32.8654 18.9092 32.8797 18.8898 32.8886C18.8704 32.8975 18.8488 32.9006 18.8276 32.8977C18.8065 32.8947 18.7866 32.8858 18.7704 32.8719C18.7541 32.8581 18.7422 32.8398 18.7359 32.8194C18.7297 32.799 18.7295 32.7772 18.7352 32.7566C18.741 32.736 18.7525 32.7175 18.7684 32.7033C18.7843 32.689 18.804 32.6796 18.8251 32.6762H18.8241ZM24.0121 32.6762H24.0301C24.0921 32.6762 24.1411 32.7262 24.1421 32.7872C24.1421 32.8492 24.0921 32.8982 24.0301 32.8982C24.0023 32.898 23.9756 32.8874 23.9552 32.8685C23.9348 32.8497 23.9221 32.8239 23.9196 32.7963C23.9171 32.7686 23.925 32.741 23.9417 32.7188C23.9584 32.6966 23.9828 32.6814 24.0101 32.6762H24.0121ZM29.1991 32.6762H29.2201C29.2811 32.6762 29.3301 32.7262 29.3311 32.7872C29.331 32.8086 29.3248 32.8295 29.3132 32.8474C29.3017 32.8654 29.2852 32.8797 29.2658 32.8886C29.2464 32.8975 29.2248 32.9006 29.2036 32.8977C29.1825 32.8947 29.1626 32.8858 29.1464 32.8719C29.1301 32.8581 29.1182 32.8398 29.1119 32.8194C29.1057 32.799 29.1055 32.7772 29.1112 32.7566C29.117 32.736 29.1285 32.7175 29.1444 32.7033C29.1603 32.689 29.18 32.6796 29.2011 32.6762H29.1991ZM16.0311 32.9042C16.4351 32.9042 16.8226 33.0647 17.1084 33.3504C17.3941 33.6361 17.5546 34.0237 17.5546 34.4277C17.5546 34.8318 17.3941 35.2193 17.1084 35.505C16.8226 35.7907 16.4351 35.9512 16.0311 35.9512C15.627 35.9512 15.2395 35.7907 14.9538 35.505C14.6681 35.2193 14.5076 34.8318 14.5076 34.4277C14.5076 34.0237 14.6681 33.6361 14.9538 33.3504C15.2395 33.0647 15.627 32.9042 16.0311 32.9042ZM21.3651 32.9042C21.7691 32.9042 22.1567 33.0647 22.4424 33.3504C22.7281 33.6361 22.8886 34.0237 22.8886 34.4277C22.8886 34.8318 22.7281 35.2193 22.4424 35.505C22.1567 35.7907 21.7691 35.9512 21.3651 35.9512C20.961 35.9512 20.5735 35.7907 20.2878 35.505C20.0021 35.2193 19.8416 34.8318 19.8416 34.4277C19.8416 34.0237 20.0021 33.6361 20.2878 33.3504C20.5735 33.0647 20.961 32.9042 21.3651 32.9042ZM26.6971 32.9042C27.1011 32.9042 27.4886 33.0647 27.7744 33.3504C28.0601 33.6361 28.2206 34.0237 28.2206 34.4277C28.2206 34.8318 28.0601 35.2193 27.7744 35.505C27.4886 35.7907 27.1011 35.9512 26.6971 35.9512C26.293 35.9512 25.9055 35.7907 25.6198 35.505C25.3341 35.2193 25.1736 34.8318 25.1736 34.4277C25.1736 34.0237 25.3341 33.6361 25.6198 33.3504C25.9055 33.0647 26.293 32.9042 26.6971 32.9042ZM32.0311 32.9042C32.4351 32.9042 32.8226 33.0647 33.1084 33.3504C33.3941 33.6361 33.5546 34.0237 33.5546 34.4277C33.5546 34.8318 33.3941 35.2193 33.1084 35.505C32.8226 35.7907 32.4351 35.9512 32.0311 35.9512C31.627 35.9512 31.2395 35.7907 30.9538 35.505C30.6681 35.2193 30.5076 34.8318 30.5076 34.4277C30.5076 34.0237 30.6681 33.6361 30.9538 33.3504C31.2395 33.0647 31.627 32.9042 32.0311 32.9042ZM18.8461 33.2362C18.9081 33.2372 18.9581 33.2902 18.9571 33.3522C18.957 33.3667 18.954 33.3809 18.9483 33.3942C18.9427 33.4075 18.9345 33.4196 18.9242 33.4297C18.9139 33.4398 18.9017 33.4478 18.8883 33.4532C18.8749 33.4586 18.8605 33.4613 18.8461 33.4612C18.8313 33.4617 18.8166 33.4593 18.8028 33.454C18.7889 33.4487 18.7763 33.4407 18.7657 33.4304C18.7551 33.4202 18.7466 33.4079 18.7408 33.3943C18.735 33.3806 18.7321 33.366 18.7321 33.3512C18.7321 33.2892 18.7831 33.2362 18.8461 33.2362ZM24.0331 33.2362C24.0961 33.2372 24.1451 33.2902 24.1441 33.3522C24.1438 33.3812 24.1321 33.4089 24.1115 33.4293C24.0909 33.4498 24.0631 33.4612 24.0341 33.4612C24.0193 33.4617 24.0046 33.4593 23.9908 33.454C23.9769 33.4487 23.9643 33.4407 23.9537 33.4304C23.9431 33.4202 23.9346 33.4079 23.9288 33.3943C23.923 33.3806 23.9201 33.366 23.9201 33.3512C23.9201 33.2892 23.9701 33.2362 24.0331 33.2362ZM29.2211 33.2362C29.2831 33.2372 29.3331 33.2902 29.3321 33.3522C29.332 33.3667 29.329 33.3809 29.3233 33.3942C29.3177 33.4075 29.3095 33.4196 29.2992 33.4297C29.2889 33.4398 29.2767 33.4478 29.2633 33.4532C29.2499 33.4586 29.2355 33.4613 29.2211 33.4612C29.2063 33.4617 29.1916 33.4593 29.1778 33.454C29.1639 33.4487 29.1513 33.4407 29.1407 33.4304C29.1301 33.4202 29.1216 33.4079 29.1158 33.3943C29.11 33.3806 29.1071 33.366 29.1071 33.3512C29.1071 33.2892 29.1581 33.2362 29.2211 33.2362ZM18.8361 33.7992H18.8441C18.8737 33.8003 18.9017 33.8129 18.9221 33.8344C18.9425 33.8559 18.9536 33.8845 18.9531 33.9141C18.9525 33.9438 18.9404 33.972 18.9193 33.9927C18.8981 34.0135 18.8697 34.0251 18.8401 34.0251C18.8105 34.0251 18.782 34.0135 18.7609 33.9927C18.7398 33.972 18.7276 33.9438 18.7271 33.9141C18.7266 33.8845 18.7377 33.8559 18.7581 33.8344C18.7785 33.8129 18.8065 33.8003 18.8361 33.7992ZM24.0231 33.7992H24.0311C24.0607 33.8003 24.0887 33.8129 24.1091 33.8344C24.1295 33.8559 24.1406 33.8845 24.1401 33.9141C24.1395 33.9438 24.1274 33.972 24.1063 33.9927C24.0851 34.0135 24.0567 34.0251 24.0271 34.0251C23.9975 34.0251 23.969 34.0135 23.9479 33.9927C23.9268 33.972 23.9146 33.9438 23.9141 33.9141C23.9136 33.8845 23.9247 33.8559 23.9451 33.8344C23.9655 33.8129 23.9935 33.8003 24.0231 33.7992ZM29.2111 33.7992H29.2191C29.2487 33.8003 29.2767 33.8129 29.2971 33.8344C29.3175 33.8559 29.3286 33.8845 29.3281 33.9141C29.3275 33.9438 29.3154 33.972 29.2943 33.9927C29.2731 34.0135 29.2447 34.0251 29.2151 34.0251C29.1855 34.0251 29.157 34.0135 29.1359 33.9927C29.1148 33.972 29.1026 33.9438 29.1021 33.9141C29.1016 33.8845 29.1127 33.8559 29.1331 33.8344C29.1535 33.8129 29.1815 33.8003 29.2111 33.7992ZM18.8361 35.4862C18.8513 35.4853 18.8666 35.4874 18.881 35.4925C18.8954 35.4977 18.9086 35.5057 18.9198 35.516C18.931 35.5264 18.94 35.539 18.9463 35.5529C18.9525 35.5669 18.9558 35.5819 18.9561 35.5972C18.9564 35.6191 18.9503 35.6406 18.9386 35.6591C18.9268 35.6775 18.9099 35.6921 18.89 35.7011C18.87 35.7101 18.8479 35.713 18.8263 35.7095C18.8047 35.706 18.7845 35.6963 18.7684 35.6815C18.7523 35.6667 18.7408 35.6475 18.7355 35.6263C18.7301 35.6051 18.7311 35.5828 18.7383 35.5621C18.7455 35.5414 18.7586 35.5233 18.776 35.51C18.7934 35.4967 18.8143 35.4888 18.8361 35.4872V35.4862ZM24.0231 35.4862C24.0383 35.4853 24.0536 35.4874 24.068 35.4925C24.0824 35.4977 24.0956 35.5057 24.1068 35.516C24.118 35.5264 24.127 35.539 24.1333 35.5529C24.1395 35.5669 24.1428 35.5819 24.1431 35.5972C24.1434 35.6191 24.1373 35.6406 24.1256 35.6591C24.1138 35.6775 24.0969 35.6921 24.077 35.7011C24.057 35.7101 24.0349 35.713 24.0133 35.7095C23.9917 35.706 23.9715 35.6963 23.9554 35.6815C23.9393 35.6667 23.9278 35.6475 23.9225 35.6263C23.9171 35.6051 23.9181 35.5828 23.9253 35.5621C23.9325 35.5414 23.9456 35.5233 23.963 35.51C23.9804 35.4967 24.0013 35.4888 24.0231 35.4872V35.4862ZM29.2111 35.4862C29.2263 35.4853 29.2416 35.4874 29.256 35.4925C29.2704 35.4977 29.2836 35.5057 29.2948 35.516C29.306 35.5264 29.315 35.539 29.3213 35.5529C29.3275 35.5669 29.3308 35.5819 29.3311 35.5972C29.3314 35.6191 29.3253 35.6406 29.3136 35.6591C29.3018 35.6775 29.2849 35.6921 29.265 35.7011C29.245 35.7101 29.2229 35.713 29.2013 35.7095C29.1797 35.706 29.1595 35.6963 29.1434 35.6815C29.1273 35.6667 29.1158 35.6475 29.1105 35.6263C29.1051 35.6051 29.1061 35.5828 29.1133 35.5621C29.1205 35.5414 29.1336 35.5233 29.151 35.51C29.1684 35.4967 29.1893 35.4888 29.2111 35.4872V35.4862ZM18.8241 37.1742H18.8441C18.9051 37.1742 18.9541 37.2242 18.9551 37.2852C18.955 37.3066 18.9488 37.3275 18.9372 37.3454C18.9257 37.3634 18.9092 37.3777 18.8898 37.3866C18.8704 37.3955 18.8488 37.3986 18.8276 37.3957C18.8065 37.3927 18.7866 37.3838 18.7704 37.3699C18.7541 37.3561 18.7422 37.3378 18.7359 37.3174C18.7297 37.297 18.7295 37.2752 18.7352 37.2546C18.741 37.234 18.7525 37.2155 18.7684 37.2013C18.7843 37.187 18.804 37.1776 18.8251 37.1742H18.8241ZM24.0121 37.1742H24.0301C24.0921 37.1742 24.1411 37.2242 24.1421 37.2852C24.142 37.3065 24.1358 37.3274 24.1242 37.3453C24.1127 37.3632 24.0963 37.3774 24.0769 37.3863C24.0575 37.3952 24.036 37.3984 24.0149 37.3956C23.9938 37.3927 23.9739 37.3838 23.9577 37.37C23.9414 37.3563 23.9294 37.3381 23.9231 37.3178C23.9168 37.2974 23.9164 37.2757 23.922 37.2551C23.9276 37.2346 23.939 37.216 23.9548 37.2017C23.9705 37.1874 23.9901 37.1778 24.0111 37.1742H24.0121ZM29.1991 37.1742H29.2201C29.2811 37.1742 29.3301 37.2242 29.3311 37.2852C29.331 37.3066 29.3248 37.3275 29.3132 37.3454C29.3017 37.3634 29.2852 37.3777 29.2658 37.3866C29.2464 37.3955 29.2248 37.3986 29.2036 37.3957C29.1825 37.3927 29.1626 37.3838 29.1464 37.3699C29.1301 37.3561 29.1182 37.3378 29.1119 37.3174C29.1057 37.297 29.1055 37.2752 29.1112 37.2546C29.117 37.234 29.1285 37.2155 29.1444 37.2013C29.1603 37.187 29.18 37.1776 29.2011 37.1742H29.1991ZM18.8361 37.7342H18.8441C18.8737 37.7353 18.9017 37.7479 18.9221 37.7694C18.9425 37.7909 18.9536 37.8195 18.9531 37.8491C18.9525 37.8788 18.9404 37.907 18.9193 37.9277C18.8981 37.9485 18.8697 37.9601 18.8401 37.9601C18.8105 37.9601 18.782 37.9485 18.7609 37.9277C18.7398 37.907 18.7276 37.8788 18.7271 37.8491C18.7266 37.8195 18.7377 37.7909 18.7581 37.7694C18.7785 37.7479 18.8065 37.7353 18.8361 37.7342ZM24.0231 37.7342H24.0311C24.0607 37.7353 24.0887 37.7479 24.1091 37.7694C24.1295 37.7909 24.1406 37.8195 24.1401 37.8491C24.1395 37.8788 24.1274 37.907 24.1063 37.9277C24.0851 37.9485 24.0567 37.9601 24.0271 37.9601C23.9975 37.9601 23.969 37.9485 23.9479 37.9277C23.9268 37.907 23.9146 37.8788 23.9141 37.8491C23.9136 37.8195 23.9247 37.7909 23.9451 37.7694C23.9655 37.7479 23.9935 37.7353 24.0231 37.7342ZM29.2111 37.7342H29.2191C29.2487 37.7353 29.2767 37.7479 29.2971 37.7694C29.3175 37.7909 29.3286 37.8195 29.3281 37.8491C29.3275 37.8788 29.3154 37.907 29.2943 37.9277C29.2731 37.9485 29.2447 37.9601 29.2151 37.9601C29.1855 37.9601 29.157 37.9485 29.1359 37.9277C29.1148 37.907 29.1026 37.8788 29.1021 37.8491C29.1016 37.8195 29.1127 37.7909 29.1331 37.7694C29.1535 37.7479 29.1815 37.7353 29.2111 37.7342ZM16.0311 38.0822C16.4351 38.0822 16.8226 38.2427 17.1084 38.5284C17.3941 38.8141 17.5546 39.2017 17.5546 39.6057C17.5546 40.0098 17.3941 40.3973 17.1084 40.683C16.8226 40.9687 16.4351 41.1292 16.0311 41.1292C15.627 41.1292 15.2395 40.9687 14.9538 40.683C14.6681 40.3973 14.5076 40.0098 14.5076 39.6057C14.5076 39.2017 14.6681 38.8141 14.9538 38.5284C15.2395 38.2427 15.627 38.0822 16.0311 38.0822ZM21.3651 38.0822C21.7691 38.0822 22.1567 38.2427 22.4424 38.5284C22.7281 38.8141 22.8886 39.2017 22.8886 39.6057C22.8886 40.0098 22.7281 40.3973 22.4424 40.683C22.1567 40.9687 21.7691 41.1292 21.3651 41.1292C20.961 41.1292 20.5735 40.9687 20.2878 40.683C20.0021 40.3973 19.8416 40.0098 19.8416 39.6057C19.8416 39.2017 20.0021 38.8141 20.2878 38.5284C20.5735 38.2427 20.961 38.0822 21.3651 38.0822ZM26.6971 38.0822C27.1011 38.0822 27.4886 38.2427 27.7744 38.5284C28.0601 38.8141 28.2206 39.2017 28.2206 39.6057C28.2206 40.0098 28.0601 40.3973 27.7744 40.683C27.4886 40.9687 27.1011 41.1292 26.6971 41.1292C26.293 41.1292 25.9055 40.9687 25.6198 40.683C25.3341 40.3973 25.1736 40.0098 25.1736 39.6057C25.1736 39.2017 25.3341 38.8141 25.6198 38.5284C25.9055 38.2427 26.293 38.0822 26.6971 38.0822ZM32.0311 38.0822C32.4351 38.0822 32.8226 38.2427 33.1084 38.5284C33.3941 38.8141 33.5546 39.2017 33.5546 39.6057C33.5546 40.0098 33.3941 40.3973 33.1084 40.683C32.8226 40.9687 32.4351 41.1292 32.0311 41.1292C31.627 41.1292 31.2395 40.9687 30.9538 40.683C30.6681 40.3973 30.5076 40.0098 30.5076 39.6057C30.5076 39.2017 30.6681 38.8141 30.9538 38.5284C31.2395 38.2427 31.627 38.0822 32.0311 38.0822ZM18.8361 39.4222H18.8441C18.8721 39.4249 18.8981 39.4379 18.917 39.4587C18.936 39.4795 18.9465 39.5066 18.9465 39.5347C18.9465 39.5628 18.936 39.59 18.917 39.6108C18.8981 39.6316 18.8721 39.6446 18.8441 39.6472C18.8293 39.6477 18.8146 39.6454 18.8007 39.6402C18.7869 39.635 18.7742 39.6272 18.7634 39.6171C18.7525 39.607 18.7438 39.5949 18.7377 39.5815C18.7315 39.568 18.7281 39.5535 18.7276 39.5387C18.7271 39.5239 18.7294 39.5092 18.7346 39.4954C18.7398 39.4815 18.7476 39.4688 18.7577 39.458C18.7678 39.4472 18.7799 39.4384 18.7933 39.4323C18.8068 39.4262 18.8213 39.4227 18.8361 39.4222ZM24.0231 39.4222H24.0311C24.0591 39.4249 24.0851 39.4379 24.104 39.4587C24.123 39.4795 24.1335 39.5066 24.1335 39.5347C24.1335 39.5628 24.123 39.59 24.104 39.6108C24.0851 39.6316 24.0591 39.6446 24.0311 39.6472C24.0012 39.6483 23.9722 39.6374 23.9504 39.6171C23.9285 39.5967 23.9156 39.5686 23.9146 39.5387C23.9135 39.5089 23.9244 39.4798 23.9447 39.458C23.9651 39.4361 23.9932 39.4233 24.0231 39.4222ZM29.2111 39.4222H29.2191C29.2471 39.4249 29.2731 39.4379 29.292 39.4587C29.311 39.4795 29.3215 39.5066 29.3215 39.5347C29.3215 39.5628 29.311 39.59 29.292 39.6108C29.2731 39.6316 29.2471 39.6446 29.2191 39.6472C29.2043 39.6477 29.1896 39.6454 29.1757 39.6402C29.1619 39.635 29.1492 39.6272 29.1384 39.6171C29.1275 39.607 29.1188 39.5949 29.1127 39.5815C29.1065 39.568 29.1031 39.5535 29.1026 39.5387C29.1021 39.5239 29.1044 39.5092 29.1096 39.4954C29.1148 39.4815 29.1226 39.4688 29.1327 39.458C29.1428 39.4472 29.1549 39.4384 29.1683 39.4323C29.1818 39.4262 29.1963 39.4227 29.2111 39.4222ZM18.8361 39.9842H18.8441C18.8721 39.9869 18.8981 39.9999 18.917 40.0207C18.936 40.0415 18.9465 40.0686 18.9465 40.0967C18.9465 40.1248 18.936 40.152 18.917 40.1728C18.8981 40.1936 18.8721 40.2066 18.8441 40.2092C18.8293 40.2097 18.8146 40.2073 18.8007 40.2022C18.7869 40.197 18.7742 40.1892 18.7634 40.1791C18.7525 40.169 18.7438 40.1569 18.7377 40.1435C18.7315 40.13 18.7281 40.1155 18.7276 40.1007C18.7271 40.0859 18.7294 40.0712 18.7346 40.0574C18.7398 40.0435 18.7476 40.0308 18.7577 40.02C18.7678 40.0092 18.7799 40.0004 18.7933 39.9943C18.8068 39.9882 18.8213 39.9847 18.8361 39.9842ZM24.0231 39.9842H24.0311C24.0591 39.9869 24.0851 39.9999 24.104 40.0207C24.123 40.0415 24.1335 40.0686 24.1335 40.0967C24.1335 40.1248 24.123 40.152 24.104 40.1728C24.0851 40.1936 24.0591 40.2066 24.0311 40.2092C24.0012 40.2103 23.9722 40.1994 23.9504 40.1791C23.9285 40.1587 23.9156 40.1306 23.9146 40.1007C23.9135 40.0709 23.9244 40.0418 23.9447 40.02C23.9651 39.9981 23.9932 39.9853 24.0231 39.9842ZM29.2111 39.9842H29.2191C29.2471 39.9869 29.2731 39.9999 29.292 40.0207C29.311 40.0415 29.3215 40.0686 29.3215 40.0967C29.3215 40.1248 29.311 40.152 29.292 40.1728C29.2731 40.1936 29.2471 40.2066 29.2191 40.2092C29.2043 40.2097 29.1896 40.2073 29.1757 40.2022C29.1619 40.197 29.1492 40.1892 29.1384 40.1791C29.1275 40.169 29.1188 40.1569 29.1127 40.1435C29.1065 40.13 29.1031 40.1155 29.1026 40.1007C29.1021 40.0859 29.1044 40.0712 29.1096 40.0574C29.1148 40.0435 29.1226 40.0308 29.1327 40.02C29.1428 40.0092 29.1549 40.0004 29.1683 39.9943C29.1818 39.9882 29.1963 39.9847 29.2111 39.9842ZM18.8361 40.5472H18.8441C18.8734 40.5483 18.9012 40.5608 18.9214 40.5821C18.9416 40.6034 18.9526 40.6318 18.9521 40.6611C18.9515 40.6905 18.9395 40.7185 18.9186 40.739C18.8976 40.7596 18.8694 40.7711 18.8401 40.7711C18.8107 40.7711 18.7825 40.7596 18.7616 40.739C18.7407 40.7185 18.7286 40.6905 18.7281 40.6611C18.7276 40.6318 18.7386 40.6034 18.7588 40.5821C18.779 40.5608 18.8067 40.5483 18.8361 40.5472ZM24.0231 40.5472H24.0311C24.0604 40.5483 24.0882 40.5608 24.1084 40.5821C24.1286 40.6034 24.1396 40.6318 24.1391 40.6611C24.1385 40.6905 24.1265 40.7185 24.1056 40.739C24.0846 40.7596 24.0564 40.7711 24.0271 40.7711C23.9977 40.7711 23.9695 40.7596 23.9486 40.739C23.9277 40.7185 23.9156 40.6905 23.9151 40.6611C23.9146 40.6318 23.9256 40.6034 23.9458 40.5821C23.966 40.5608 23.9937 40.5483 24.0231 40.5472ZM29.2111 40.5472H29.2191C29.2484 40.5483 29.2762 40.5608 29.2964 40.5821C29.3166 40.6034 29.3276 40.6318 29.3271 40.6611C29.3265 40.6905 29.3145 40.7185 29.2936 40.739C29.2726 40.7596 29.2444 40.7711 29.2151 40.7711C29.1857 40.7711 29.1575 40.7596 29.1366 40.739C29.1157 40.7185 29.1036 40.6905 29.1031 40.6611C29.1026 40.6318 29.1136 40.6034 29.1338 40.5821C29.154 40.5608 29.1817 40.5483 29.2111 40.5472ZM18.8241 41.1092H18.8441C18.8721 41.1119 18.8981 41.1249 18.917 41.1457C18.936 41.1665 18.9465 41.1936 18.9465 41.2217C18.9465 41.2498 18.936 41.277 18.917 41.2978C18.8981 41.3186 18.8721 41.3316 18.8441 41.3342C18.8291 41.3345 18.8143 41.3317 18.8004 41.3262C18.7865 41.3206 18.7739 41.3123 18.7632 41.3018C18.7526 41.2912 18.7442 41.2787 18.7385 41.2649C18.7328 41.251 18.7299 41.2362 18.7301 41.2212C18.7293 41.1943 18.7385 41.168 18.7558 41.1473C18.7731 41.1267 18.7974 41.1131 18.8241 41.1092ZM24.0121 41.1092H24.0301C24.0581 41.1119 24.0841 41.1249 24.103 41.1457C24.122 41.1665 24.1325 41.1936 24.1325 41.2217C24.1325 41.2498 24.122 41.277 24.103 41.2978C24.0841 41.3186 24.0581 41.3316 24.0301 41.3342C24.0152 41.3343 24.0005 41.3315 23.9867 41.3259C23.9729 41.3203 23.9604 41.3119 23.9499 41.3014C23.9394 41.2909 23.931 41.2784 23.9254 41.2646C23.9198 41.2508 23.917 41.2361 23.9171 41.2212C23.9163 41.1943 23.9255 41.168 23.9428 41.1473C23.9601 41.1267 23.9844 41.1131 24.0111 41.1092H24.0121ZM29.1991 41.1092H29.2201C29.2481 41.1119 29.2741 41.1249 29.293 41.1457C29.312 41.1665 29.3225 41.1936 29.3225 41.2217C29.3225 41.2498 29.312 41.277 29.293 41.2978C29.2741 41.3186 29.2481 41.3316 29.2201 41.3342C29.2051 41.3345 29.1903 41.3317 29.1764 41.3262C29.1625 41.3206 29.1499 41.3123 29.1392 41.3018C29.1286 41.2912 29.1202 41.2787 29.1145 41.2649C29.1088 41.251 29.1059 41.2362 29.1061 41.2212C29.1053 41.1943 29.1145 41.168 29.1318 41.1473C29.1491 41.1267 29.1734 41.1131 29.2001 41.1092H29.1991ZM18.8241 41.6722H18.8441C18.9051 41.6722 18.9541 41.7222 18.9551 41.7832C18.9551 41.8452 18.9051 41.8942 18.8441 41.8952C18.8292 41.8955 18.8144 41.8928 18.8006 41.8873C18.7868 41.8818 18.7742 41.8736 18.7636 41.8631C18.753 41.8527 18.7445 41.8403 18.7388 41.8265C18.733 41.8128 18.7301 41.7981 18.7301 41.7832C18.7296 41.7564 18.7388 41.7304 18.7561 41.71C18.7734 41.6895 18.7976 41.6761 18.8241 41.6722ZM24.0121 41.6722H24.0301C24.0921 41.6722 24.1411 41.7222 24.1421 41.7832C24.1421 41.8452 24.0921 41.8942 24.0301 41.8952C24.0153 41.8953 24.0006 41.8925 23.9869 41.887C23.9732 41.8814 23.9607 41.8732 23.9502 41.8628C23.9397 41.8524 23.9314 41.84 23.9257 41.8263C23.92 41.8127 23.9171 41.798 23.9171 41.7832C23.9166 41.7564 23.9258 41.7304 23.9431 41.71C23.9604 41.6895 23.9846 41.6761 24.0111 41.6722H24.0121ZM29.1991 41.6722H29.2201C29.2811 41.6722 29.3301 41.7222 29.3311 41.7832C29.3311 41.8452 29.2811 41.8942 29.2201 41.8952C29.2052 41.8955 29.1904 41.8928 29.1766 41.8873C29.1628 41.8818 29.1502 41.8736 29.1396 41.8631C29.129 41.8527 29.1205 41.8403 29.1148 41.8265C29.109 41.8128 29.1061 41.7981 29.1061 41.7832C29.1056 41.7564 29.1148 41.7304 29.1321 41.71C29.1494 41.6895 29.1736 41.6761 29.2001 41.6722H29.1991ZM18.8461 42.2322C18.8759 42.2325 18.9044 42.2446 18.9253 42.2659C18.9463 42.2872 18.9578 42.3159 18.9576 42.3457C18.9573 42.3756 18.9452 42.4041 18.9239 42.425C18.9026 42.4459 18.8739 42.4575 18.8441 42.4572C18.8144 42.4569 18.786 42.4449 18.7652 42.4237C18.7444 42.4025 18.7328 42.3739 18.7331 42.3442C18.7333 42.3145 18.7454 42.2861 18.7666 42.2653C18.7878 42.2445 18.8164 42.2329 18.8461 42.2332V42.2322ZM24.0331 42.2322C24.0479 42.2323 24.0625 42.2353 24.0761 42.241C24.0897 42.2467 24.1021 42.255 24.1125 42.2655C24.1229 42.276 24.1311 42.2884 24.1367 42.3021C24.1423 42.3158 24.1452 42.3304 24.1451 42.3452C24.145 42.36 24.142 42.3746 24.1363 42.3882C24.1306 42.4018 24.1223 42.4142 24.1118 42.4246C24.1013 42.435 24.0888 42.4432 24.0752 42.4488C24.0615 42.4544 24.0469 42.4573 24.0321 42.4572C24.0024 42.4571 23.9739 42.4452 23.953 42.4241C23.9321 42.403 23.9205 42.3744 23.9206 42.3447C23.9207 42.315 23.9326 42.2866 23.9537 42.2657C23.9748 42.2448 24.0034 42.2331 24.0331 42.2332V42.2322ZM29.2211 42.2322C29.2509 42.2325 29.2794 42.2446 29.3003 42.2659C29.3213 42.2872 29.3328 42.3159 29.3326 42.3457C29.3323 42.3756 29.3202 42.4041 29.2989 42.425C29.2776 42.4459 29.2489 42.4575 29.2191 42.4572C29.1894 42.4569 29.161 42.4449 29.1402 42.4237C29.1194 42.4025 29.1078 42.3739 29.1081 42.3442C29.1083 42.3145 29.1204 42.2861 29.1416 42.2653C29.1628 42.2445 29.1914 42.2329 29.2211 42.2332V42.2322Z" fill="#333333"/>
</svg>
