<svg width="48" height="48" viewBox="0 0 48 48" fill="none" xmlns="http://www.w3.org/2000/svg">
<path d="M23.8141 4.10315C20.5021 4.11215 17.2521 4.12715 14.1461 4.12515C13.2771 4.12515 12.5801 4.82415 12.5801 5.69315V42.5551C12.5801 43.4241 13.2771 44.1251 14.1461 44.1251H33.8521C34.7211 44.1251 35.4201 43.4241 35.4201 42.5551V5.69315C35.4201 4.82315 34.7211 4.12515 33.8521 4.12515C30.5011 4.09315 27.1271 4.09515 23.8151 4.10315H23.8141ZM19.9921 5.16615H20.0001C20.0294 5.16719 20.0572 5.17972 20.0774 5.20103C20.0976 5.22234 20.1086 5.25072 20.1081 5.28007C20.1075 5.30943 20.0955 5.3374 20.0746 5.35797C20.0536 5.37855 20.0254 5.39007 19.9961 5.39007C19.9667 5.39007 19.9385 5.37855 19.9176 5.35797C19.8966 5.3374 19.8846 5.30943 19.8841 5.28007C19.8836 5.25072 19.8946 5.22234 19.9148 5.20103C19.935 5.17972 19.9627 5.16719 19.9921 5.16615ZM27.9921 5.16615H28.0001C28.0294 5.16719 28.0572 5.17972 28.0774 5.20103C28.0976 5.22234 28.1086 5.25072 28.1081 5.28007C28.1075 5.30943 28.0955 5.3374 28.0746 5.35797C28.0536 5.37855 28.0254 5.39007 27.9961 5.39007C27.9667 5.39007 27.9385 5.37855 27.9176 5.35797C27.8966 5.3374 27.8846 5.30943 27.8841 5.28007C27.8836 5.25072 27.8946 5.22234 27.9148 5.20103C27.935 5.17972 27.9627 5.16719 27.9921 5.16615ZM19.9921 5.72815H20.0001C20.0294 5.72919 20.0572 5.74172 20.0774 5.76303C20.0976 5.78434 20.1086 5.81272 20.1081 5.84207C20.1075 5.87143 20.0955 5.8994 20.0746 5.91997C20.0536 5.94055 20.0254 5.95207 19.9961 5.95207C19.9667 5.95207 19.9385 5.94055 19.9176 5.91997C19.8966 5.8994 19.8846 5.87143 19.8841 5.84207C19.8836 5.81272 19.8946 5.78434 19.9148 5.76303C19.935 5.74172 19.9627 5.72919 19.9921 5.72815ZM27.9921 5.72815H28.0001C28.0294 5.72919 28.0572 5.74172 28.0774 5.76303C28.0976 5.78434 28.1086 5.81272 28.1081 5.84207C28.1075 5.87143 28.0955 5.8994 28.0746 5.91997C28.0536 5.94055 28.0254 5.95207 27.9961 5.95207C27.9667 5.95207 27.9385 5.94055 27.9176 5.91997C27.8966 5.8994 27.8846 5.87143 27.8841 5.84207C27.8836 5.81272 27.8946 5.78434 27.9148 5.76303C27.935 5.74172 27.9627 5.72919 27.9921 5.72815ZM19.9821 6.29115H20.0001C20.0611 6.29115 20.1101 6.34115 20.1111 6.40215C20.111 6.42356 20.1048 6.44451 20.0932 6.46251C20.0816 6.48051 20.0651 6.4948 20.0456 6.50371C20.0262 6.51261 20.0046 6.51574 19.9834 6.51274C19.9622 6.50973 19.9423 6.50071 19.926 6.48674C19.9098 6.47278 19.8979 6.45445 19.8918 6.43394C19.8856 6.41342 19.8855 6.39158 19.8914 6.371C19.8973 6.35041 19.909 6.33195 19.9251 6.3178C19.9411 6.30364 19.9609 6.2944 19.9821 6.29115ZM27.9821 6.29115H28.0001C28.0611 6.29115 28.1101 6.34115 28.1111 6.40215C28.111 6.42356 28.1048 6.44451 28.0932 6.46251C28.0816 6.48051 28.0651 6.4948 28.0456 6.50371C28.0262 6.51261 28.0046 6.51574 27.9834 6.51274C27.9622 6.50973 27.9423 6.50071 27.926 6.48674C27.9098 6.47278 27.8979 6.45445 27.8918 6.43394C27.8856 6.41342 27.8855 6.39158 27.8914 6.371C27.8973 6.35041 27.909 6.33195 27.9251 6.3178C27.9411 6.30364 27.9609 6.2944 27.9821 6.29115ZM20.0021 6.85115C20.0169 6.85128 20.0315 6.85432 20.0451 6.86009C20.0587 6.86587 20.071 6.87426 20.0813 6.8848C20.0917 6.89534 20.0999 6.90782 20.1054 6.92152C20.1109 6.93522 20.1137 6.94987 20.1136 6.96465C20.1134 6.97942 20.1104 6.99402 20.1046 7.00762C20.0989 7.02122 20.0905 7.03355 20.0799 7.0439C20.0694 7.05426 20.0569 7.06243 20.0432 7.06796C20.0295 7.0735 20.0149 7.07628 20.0001 7.07615C19.9702 7.07588 19.9417 7.06377 19.9208 7.04249C19.8999 7.0212 19.8883 6.99248 19.8886 6.96265C19.8888 6.93281 19.9009 6.9043 19.9222 6.88339C19.9435 6.86248 19.9722 6.85088 20.0021 6.85115ZM28.0021 6.85115C28.0169 6.85128 28.0315 6.85432 28.0451 6.86009C28.0587 6.86587 28.071 6.87426 28.0813 6.8848C28.0917 6.89534 28.0999 6.90782 28.1054 6.92152C28.1109 6.93522 28.1137 6.94987 28.1136 6.96465C28.1134 6.97942 28.1104 6.99402 28.1046 7.00762C28.0989 7.02122 28.0905 7.03355 28.0799 7.0439C28.0694 7.05426 28.0569 7.06243 28.0432 7.06796C28.0295 7.0735 28.0149 7.07628 28.0001 7.07615C27.9702 7.07588 27.9417 7.06377 27.9208 7.04249C27.8999 7.0212 27.8883 6.99248 27.8886 6.96265C27.8888 6.93281 27.901 6.9043 27.9222 6.88339C27.9435 6.86248 27.9722 6.85088 28.0021 6.85115ZM19.9921 7.41415H20.0001C20.0294 7.41519 20.0572 7.42772 20.0774 7.44903C20.0976 7.47034 20.1086 7.49872 20.1081 7.52807C20.1075 7.55743 20.0955 7.5854 20.0746 7.60597C20.0536 7.62655 20.0254 7.63807 19.9961 7.63807C19.9667 7.63807 19.9385 7.62655 19.9176 7.60597C19.8966 7.5854 19.8846 7.55743 19.8841 7.52807C19.8836 7.49872 19.8946 7.47034 19.9148 7.44903C19.935 7.42772 19.9627 7.41519 19.9921 7.41415ZM27.9921 7.41415H28.0001C28.0294 7.41519 28.0572 7.42772 28.0774 7.44903C28.0976 7.47034 28.1086 7.49872 28.1081 7.52807C28.1075 7.55743 28.0955 7.5854 28.0746 7.60597C28.0536 7.62655 28.0254 7.63807 27.9961 7.63807C27.9667 7.63807 27.9385 7.62655 27.9176 7.60597C27.8966 7.5854 27.8846 7.55743 27.8841 7.52807C27.8836 7.49872 27.8946 7.47034 27.9148 7.44903C27.935 7.42772 27.9627 7.41519 27.9921 7.41415ZM19.9921 7.97415H20.0001C20.0294 7.97519 20.0572 7.98772 20.0774 8.00903C20.0976 8.03034 20.1086 8.05872 20.1081 8.08807C20.1075 8.11743 20.0955 8.1454 20.0746 8.16597C20.0536 8.18655 20.0254 8.19807 19.9961 8.19807C19.9667 8.19807 19.9385 8.18655 19.9176 8.16597C19.8966 8.1454 19.8846 8.11743 19.8841 8.08807C19.8836 8.05872 19.8946 8.03034 19.9148 8.00903C19.935 7.98772 19.9627 7.97519 19.9921 7.97415ZM27.9921 7.97415H28.0001C28.0294 7.97519 28.0572 7.98772 28.0774 8.00903C28.0976 8.03034 28.1086 8.05872 28.1081 8.08807C28.1075 8.11743 28.0955 8.1454 28.0746 8.16597C28.0536 8.18655 28.0254 8.19807 27.9961 8.19807C27.9667 8.19807 27.9385 8.18655 27.9176 8.16597C27.8966 8.1454 27.8846 8.11743 27.8841 8.08807C27.8836 8.05872 27.8946 8.03034 27.9148 8.00903C27.935 7.98772 27.9627 7.97519 27.9921 7.97415ZM19.9921 8.53715H20.0001C20.0294 8.53819 20.0572 8.55072 20.0774 8.57203C20.0976 8.59334 20.1086 8.62172 20.1081 8.65107C20.1075 8.68043 20.0955 8.7084 20.0746 8.72897C20.0536 8.74955 20.0254 8.76107 19.9961 8.76107C19.9667 8.76107 19.9385 8.74955 19.9176 8.72897C19.8966 8.7084 19.8846 8.68043 19.8841 8.65107C19.8836 8.62172 19.8946 8.59334 19.9148 8.57203C19.935 8.55072 19.9627 8.53819 19.9921 8.53715ZM27.9921 8.53715H28.0001C28.0294 8.53819 28.0572 8.55072 28.0774 8.57203C28.0976 8.59334 28.1086 8.62172 28.1081 8.65107C28.1075 8.68043 28.0955 8.7084 28.0746 8.72897C28.0536 8.74955 28.0254 8.76107 27.9961 8.76107C27.9667 8.76107 27.9385 8.74955 27.9176 8.72897C27.8966 8.7084 27.8846 8.68043 27.8841 8.65107C27.8836 8.62172 27.8946 8.59334 27.9148 8.57203C27.935 8.55072 27.9627 8.53819 27.9921 8.53715ZM19.9921 9.10015H20.0001C20.0294 9.10119 20.0572 9.11372 20.0774 9.13503C20.0976 9.15634 20.1086 9.18472 20.1081 9.21407C20.1075 9.24343 20.0955 9.2714 20.0746 9.29197C20.0536 9.31255 20.0254 9.32407 19.9961 9.32407C19.9667 9.32407 19.9385 9.31255 19.9176 9.29197C19.8966 9.2714 19.8846 9.24343 19.8841 9.21407C19.8836 9.18472 19.8946 9.15634 19.9148 9.13503C19.935 9.11372 19.9627 9.10119 19.9921 9.10015ZM27.9921 9.10015H28.0001C28.0294 9.10119 28.0572 9.11372 28.0774 9.13503C28.0976 9.15634 28.1086 9.18472 28.1081 9.21407C28.1075 9.24343 28.0955 9.2714 28.0746 9.29197C28.0536 9.31255 28.0254 9.32407 27.9961 9.32407C27.9667 9.32407 27.9385 9.31255 27.9176 9.29197C27.8966 9.2714 27.8846 9.24343 27.8841 9.21407C27.8836 9.18472 27.8946 9.15634 27.9148 9.13503C27.935 9.11372 27.9627 9.10119 27.9921 9.10015ZM19.9921 9.66215H20.0001C20.0294 9.66319 20.0572 9.67572 20.0774 9.69703C20.0976 9.71834 20.1086 9.74672 20.1081 9.77607C20.1075 9.80543 20.0955 9.8334 20.0746 9.85397C20.0536 9.87455 20.0254 9.88607 19.9961 9.88607C19.9667 9.88607 19.9385 9.87455 19.9176 9.85397C19.8966 9.8334 19.8846 9.80543 19.8841 9.77607C19.8836 9.74672 19.8946 9.71834 19.9148 9.69703C19.935 9.67572 19.9627 9.66319 19.9921 9.66215ZM27.9921 9.66215H28.0001C28.0294 9.66319 28.0572 9.67572 28.0774 9.69703C28.0976 9.71834 28.1086 9.74672 28.1081 9.77607C28.1075 9.80543 28.0955 9.8334 28.0746 9.85397C28.0536 9.87455 28.0254 9.88607 27.9961 9.88607C27.9667 9.88607 27.9385 9.87455 27.9176 9.85397C27.8966 9.8334 27.8846 9.80543 27.8841 9.77607C27.8836 9.74672 27.8946 9.71834 27.9148 9.69703C27.935 9.67572 27.9627 9.66319 27.9921 9.66215ZM19.9801 10.2251H20.0001C20.0611 10.2251 20.1101 10.2771 20.1111 10.3381C20.1111 10.3678 20.0993 10.3963 20.0783 10.4173C20.0573 10.4383 20.0288 10.4501 19.9991 10.4501C19.9694 10.4501 19.9409 10.4383 19.9199 10.4173C19.8989 10.3963 19.8871 10.3678 19.8871 10.3381C19.8871 10.2831 19.9261 10.2321 19.9801 10.2251ZM27.9801 10.2251H28.0001C28.0611 10.2251 28.1101 10.2771 28.1111 10.3381C28.1111 10.3678 28.0993 10.3963 28.0783 10.4173C28.0573 10.4383 28.0288 10.4501 27.9991 10.4501C27.9694 10.4501 27.9409 10.4383 27.9199 10.4173C27.8989 10.3963 27.8871 10.3678 27.8871 10.3381C27.8871 10.2831 27.9261 10.2321 27.9801 10.2251ZM20.0021 10.7851C20.0641 10.7851 20.1141 10.8381 20.1131 10.9001C20.1131 10.9147 20.1102 10.9291 20.1046 10.9425C20.099 10.9559 20.0908 10.9681 20.0805 10.9783C20.0702 10.9885 20.0579 10.9966 20.0445 11.0021C20.031 11.0075 20.0166 11.0103 20.0021 11.0101C19.9874 11.0105 19.9728 11.008 19.9591 11.0026C19.9454 10.9973 19.9329 10.9893 19.9223 10.979C19.9118 10.9688 19.9034 10.9565 19.8977 10.9429C19.892 10.9294 19.8891 10.9148 19.8891 10.9001C19.8891 10.8371 19.9391 10.7841 20.0021 10.7851ZM28.0021 10.7851C28.0641 10.7851 28.1141 10.8381 28.1131 10.9001C28.1131 10.9147 28.1102 10.9291 28.1046 10.9425C28.099 10.9559 28.0908 10.9681 28.0805 10.9783C28.0702 10.9885 28.0579 10.9966 28.0445 11.0021C28.031 11.0075 28.0166 11.0103 28.0021 11.0101C27.9874 11.0105 27.9728 11.008 27.9591 11.0026C27.9454 10.9973 27.9329 10.9893 27.9223 10.979C27.9118 10.9688 27.9034 10.9565 27.8977 10.9429C27.892 10.9294 27.8891 10.9148 27.8891 10.9001C27.8891 10.8371 27.9391 10.7841 28.0021 10.7851ZM20.0021 11.3481C20.0168 11.3483 20.0313 11.3513 20.0449 11.3571C20.0584 11.3628 20.0707 11.3712 20.081 11.3817C20.0913 11.3921 20.0994 11.4046 20.1049 11.4182C20.1104 11.4318 20.1132 11.4464 20.1131 11.4611C20.1129 11.4759 20.1099 11.4904 20.1042 11.5039C20.0984 11.5175 20.0901 11.5297 20.0796 11.54C20.0691 11.5504 20.0567 11.5585 20.043 11.564C20.0294 11.5695 20.0148 11.5723 20.0001 11.5721C19.9704 11.5719 19.942 11.5598 19.9212 11.5386C19.9004 11.5174 19.8888 11.4888 19.8891 11.4591C19.8893 11.4294 19.9014 11.4011 19.9226 11.3802C19.9438 11.3594 19.9724 11.3479 20.0021 11.3481ZM28.0021 11.3481C28.0168 11.3483 28.0313 11.3513 28.0449 11.3571C28.0584 11.3628 28.0707 11.3712 28.081 11.3817C28.0913 11.3921 28.0994 11.4046 28.1049 11.4182C28.1104 11.4318 28.1132 11.4464 28.1131 11.4611C28.1129 11.4759 28.1099 11.4904 28.1042 11.5039C28.0984 11.5175 28.0901 11.5297 28.0796 11.54C28.0691 11.5504 28.0567 11.5585 28.043 11.564C28.0294 11.5695 28.0148 11.5723 28.0001 11.5721C27.9704 11.5719 27.942 11.5598 27.9212 11.5386C27.9004 11.5174 27.8888 11.4888 27.8891 11.4591C27.8893 11.4294 27.9014 11.4011 27.9226 11.3802C27.9438 11.3594 27.9724 11.3479 28.0021 11.3481ZM19.9921 11.9101C20.0075 11.909 20.023 11.9111 20.0376 11.9163C20.0522 11.9215 20.0656 11.9297 20.0769 11.9403C20.0881 11.9509 20.0971 11.9638 20.1032 11.978C20.1092 11.9923 20.1123 12.0077 20.1121 12.0231C20.1111 12.0851 20.0621 12.1361 20.0001 12.1371C19.9716 12.1357 19.9447 12.1236 19.9247 12.1032C19.9047 12.0829 19.893 12.0558 19.892 12.0273C19.891 11.9988 19.9007 11.971 19.9193 11.9493C19.9378 11.9276 19.9638 11.9136 19.9921 11.9101ZM27.9921 11.9101C28.0075 11.909 28.023 11.9111 28.0376 11.9163C28.0522 11.9215 28.0656 11.9297 28.0769 11.9403C28.0881 11.9509 28.0971 11.9638 28.1032 11.978C28.1092 11.9923 28.1123 12.0077 28.1121 12.0231C28.1111 12.0851 28.0621 12.1361 28.0001 12.1371C27.9716 12.1357 27.9447 12.1236 27.9247 12.1032C27.9047 12.0829 27.893 12.0558 27.892 12.0273C27.891 11.9988 27.9007 11.971 27.9193 11.9493C27.9378 11.9276 27.9638 11.9136 27.9921 11.9101ZM16.6191 12.0431C16.8325 12.0378 17.0448 12.0752 17.2435 12.1532C17.4423 12.2312 17.6234 12.3482 17.7762 12.4972C17.929 12.6463 18.0505 12.8244 18.1334 13.0211C18.2164 13.2178 18.2591 13.4292 18.2591 13.6426C18.2591 13.8561 18.2164 14.0674 18.1334 14.2642C18.0505 14.4609 17.929 14.639 17.7762 14.7881C17.6234 14.9371 17.4423 15.0541 17.2435 15.1321C17.0448 15.2101 16.8325 15.2475 16.6191 15.2421C16.1947 15.2421 15.7878 15.0736 15.4877 14.7735C15.1876 14.4735 15.0191 14.0665 15.0191 13.6421C15.0191 13.2178 15.1876 12.8108 15.4877 12.5108C15.7878 12.2107 16.1947 12.0421 16.6191 12.0421V12.0431ZM24.0001 12.0431C24.2135 12.0378 24.4258 12.0752 24.6245 12.1532C24.8233 12.2312 25.0044 12.3482 25.1572 12.4972C25.31 12.6463 25.4315 12.8244 25.5144 13.0211C25.5974 13.2178 25.6401 13.4292 25.6401 13.6426C25.6401 13.8561 25.5974 14.0674 25.5144 14.2642C25.4315 14.4609 25.31 14.639 25.1572 14.7881C25.0044 14.9371 24.8233 15.0541 24.6245 15.1321C24.4258 15.2101 24.2135 15.2475 24.0001 15.2421C23.5757 15.2421 23.1688 15.0736 22.8687 14.7735C22.5686 14.4735 22.4001 14.0665 22.4001 13.6421C22.4001 13.2178 22.5686 12.8108 22.8687 12.5108C23.1688 12.2107 23.5757 12.0421 24.0001 12.0421V12.0431ZM31.3801 12.0431C31.5935 12.0377 31.8058 12.0751 32.0046 12.153C32.2033 12.2309 32.3845 12.3479 32.5374 12.4969C32.6902 12.6459 32.8117 12.824 32.8947 13.0207C32.9777 13.2173 33.0205 13.4287 33.0206 13.6421C33.0206 13.8556 32.978 14.0669 32.8951 14.2637C32.8123 14.4604 32.6909 14.6386 32.5381 14.7877C32.3853 14.9368 32.2042 15.0538 32.0055 15.1319C31.8068 15.2099 31.5945 15.2474 31.3811 15.2421C30.9567 15.2421 30.5498 15.0736 30.2497 14.7735C29.9496 14.4735 29.7811 14.0665 29.7811 13.6421C29.7811 13.2178 29.9496 12.8108 30.2497 12.5108C30.5498 12.2107 30.9567 12.0421 31.3811 12.0421L31.3801 12.0431ZM19.9921 12.4731H20.0001C20.0621 12.4731 20.1121 12.5231 20.1111 12.5861C20.1111 12.6471 20.0611 12.6991 20.0001 12.6991C19.9725 12.6966 19.9468 12.6841 19.9277 12.6639C19.9087 12.6438 19.8976 12.6174 19.8967 12.5897C19.8957 12.562 19.9048 12.5349 19.9224 12.5134C19.94 12.492 19.9647 12.4776 19.9921 12.4731ZM27.9921 12.4731H28.0001C28.0621 12.4731 28.1121 12.5231 28.1111 12.5861C28.1111 12.6471 28.0611 12.6991 28.0001 12.6991C27.9725 12.6966 27.9468 12.6841 27.9277 12.6639C27.9087 12.6438 27.8976 12.6174 27.8967 12.5897C27.8957 12.562 27.9048 12.5349 27.9224 12.5134C27.94 12.492 27.9647 12.4776 27.9921 12.4731ZM19.9921 13.0351H20.0001C20.0294 13.0362 20.0572 13.0487 20.0774 13.07C20.0976 13.0913 20.1086 13.1197 20.1081 13.1491C20.1075 13.1784 20.0955 13.2064 20.0746 13.227C20.0536 13.2475 20.0254 13.2591 19.9961 13.2591C19.9667 13.2591 19.9385 13.2475 19.9176 13.227C19.8966 13.2064 19.8846 13.1784 19.8841 13.1491C19.8836 13.1197 19.8946 13.0913 19.9148 13.07C19.935 13.0487 19.9627 13.0362 19.9921 13.0351ZM27.9921 13.0351H28.0001C28.0294 13.0362 28.0572 13.0487 28.0774 13.07C28.0976 13.0913 28.1086 13.1197 28.1081 13.1491C28.1075 13.1784 28.0955 13.2064 28.0746 13.227C28.0536 13.2475 28.0254 13.2591 27.9961 13.2591C27.9667 13.2591 27.9385 13.2475 27.9176 13.227C27.8966 13.2064 27.8846 13.1784 27.8841 13.1491C27.8836 13.1197 27.8946 13.0913 27.9148 13.07C27.935 13.0487 27.9627 13.0362 27.9921 13.0351ZM19.9921 13.5981H20.0001C20.0294 13.5992 20.0572 13.6117 20.0774 13.633C20.0976 13.6543 20.1086 13.6827 20.1081 13.7121C20.1075 13.7414 20.0955 13.7694 20.0746 13.79C20.0536 13.8105 20.0254 13.8221 19.9961 13.8221C19.9667 13.8221 19.9385 13.8105 19.9176 13.79C19.8966 13.7694 19.8846 13.7414 19.8841 13.7121C19.8836 13.6827 19.8946 13.6543 19.9148 13.633C19.935 13.6117 19.9627 13.5992 19.9921 13.5981ZM27.9921 13.5981H28.0001C28.0294 13.5992 28.0572 13.6117 28.0774 13.633C28.0976 13.6543 28.1086 13.6827 28.1081 13.7121C28.1075 13.7414 28.0955 13.7694 28.0746 13.79C28.0536 13.8105 28.0254 13.8221 27.9961 13.8221C27.9667 13.8221 27.9385 13.8105 27.9176 13.79C27.8966 13.7694 27.8846 13.7414 27.8841 13.7121C27.8836 13.6827 27.8946 13.6543 27.9148 13.633C27.935 13.6117 27.9627 13.5992 27.9921 13.5981ZM19.9801 14.7231H20.0001C20.0611 14.7231 20.1101 14.7731 20.1111 14.8331C20.1111 14.8628 20.0993 14.8913 20.0783 14.9123C20.0573 14.9333 20.0288 14.9451 19.9991 14.9451C19.9694 14.9451 19.9409 14.9333 19.9199 14.9123C19.8989 14.8913 19.8871 14.8628 19.8871 14.8331C19.8871 14.7791 19.9261 14.7301 19.9801 14.7231ZM27.9801 14.7231H28.0001C28.0611 14.7231 28.1101 14.7731 28.1111 14.8331C28.1111 14.8628 28.0993 14.8913 28.0783 14.9123C28.0573 14.9333 28.0288 14.9451 27.9991 14.9451C27.9694 14.9451 27.9409 14.9333 27.9199 14.9123C27.8989 14.8913 27.8871 14.8628 27.8871 14.8331C27.8871 14.7791 27.9261 14.7301 27.9801 14.7231ZM19.9801 15.2851H20.0001C20.0611 15.2851 20.1101 15.3351 20.1111 15.3961C20.111 15.4175 20.1048 15.4384 20.0932 15.4564C20.0817 15.4743 20.0652 15.4886 20.0458 15.4975C20.0264 15.5064 20.0048 15.5096 19.9836 15.5066C19.9625 15.5037 19.9426 15.4947 19.9264 15.4809C19.9101 15.467 19.8982 15.4488 19.8919 15.4283C19.8857 15.4079 19.8855 15.3861 19.8912 15.3655C19.897 15.345 19.9085 15.3265 19.9244 15.3122C19.9403 15.298 19.96 15.2886 19.9811 15.2851H19.9801ZM27.9801 15.2851H28.0001C28.0611 15.2851 28.1101 15.3351 28.1111 15.3961C28.111 15.4175 28.1048 15.4384 28.0932 15.4564C28.0817 15.4743 28.0652 15.4886 28.0458 15.4975C28.0264 15.5064 28.0048 15.5096 27.9836 15.5066C27.9625 15.5037 27.9426 15.4947 27.9264 15.4809C27.9101 15.467 27.8982 15.4488 27.8919 15.4283C27.8857 15.4079 27.8855 15.3861 27.8912 15.3655C27.897 15.345 27.9085 15.3265 27.9244 15.3122C27.9403 15.298 27.96 15.2886 27.9811 15.2851H27.9801ZM20.0021 15.8451C20.0319 15.8454 20.0604 15.8575 20.0813 15.8788C20.1022 15.9001 20.1138 15.9288 20.1136 15.9586C20.1133 15.9885 20.1012 16.017 20.0799 16.0379C20.0586 16.0588 20.0299 16.0704 20.0001 16.0701C19.9704 16.0699 19.942 16.0578 19.9212 16.0366C19.9004 16.0154 19.8888 15.9868 19.8891 15.9571C19.8893 15.9274 19.9014 15.8991 19.9226 15.8782C19.9438 15.8574 19.9724 15.8459 20.0021 15.8461V15.8451ZM28.0021 15.8451C28.0319 15.8454 28.0604 15.8575 28.0813 15.8788C28.1022 15.9001 28.1138 15.9288 28.1136 15.9586C28.1133 15.9885 28.1012 16.017 28.0799 16.0379C28.0586 16.0588 28.0299 16.0704 28.0001 16.0701C27.9704 16.0699 27.942 16.0578 27.9212 16.0366C27.9004 16.0154 27.8888 15.9868 27.8891 15.9571C27.8893 15.9274 27.9014 15.8991 27.9226 15.8782C27.9438 15.8574 27.9724 15.8459 28.0021 15.8461V15.8451ZM16.6191 17.2771C16.8325 17.2718 17.0448 17.3092 17.2435 17.3872C17.4423 17.4652 17.6234 17.5822 17.7762 17.7312C17.929 17.8803 18.0505 18.0584 18.1334 18.2551C18.2164 18.4518 18.2591 18.6632 18.2591 18.8766C18.2591 19.0901 18.2164 19.3014 18.1334 19.4982C18.0505 19.6949 17.929 19.873 17.7762 20.0221C17.6234 20.1711 17.4423 20.2881 17.2435 20.3661C17.0448 20.4441 16.8325 20.4815 16.6191 20.4761C16.2018 20.4657 15.8051 20.2926 15.5137 19.9938C15.2222 19.695 15.0591 19.2941 15.0591 18.8766C15.0591 18.4592 15.2222 18.0583 15.5137 17.7595C15.8051 17.4607 16.2018 17.2876 16.6191 17.2771ZM24.0001 17.2771C24.2135 17.2718 24.4258 17.3092 24.6245 17.3872C24.8233 17.4652 25.0044 17.5822 25.1572 17.7312C25.31 17.8803 25.4315 18.0584 25.5144 18.2551C25.5974 18.4518 25.6401 18.6632 25.6401 18.8766C25.6401 19.0901 25.5974 19.3014 25.5144 19.4982C25.4315 19.6949 25.31 19.873 25.1572 20.0221C25.0044 20.1711 24.8233 20.2881 24.6245 20.3661C24.4258 20.4441 24.2135 20.4815 24.0001 20.4761C23.5828 20.4657 23.1861 20.2926 22.8947 19.9938C22.6032 19.695 22.4401 19.2941 22.4401 18.8766C22.4401 18.4592 22.6032 18.0583 22.8947 17.7595C23.1861 17.4607 23.5828 17.2876 24.0001 17.2771ZM31.3801 17.2771C31.5902 17.2771 31.7983 17.3184 31.9924 17.3987C32.1866 17.4791 32.363 17.5969 32.5116 17.7454C32.6602 17.8939 32.7781 18.0703 32.8586 18.2644C32.9391 18.4585 32.9805 18.6665 32.9806 18.8766C32.9806 19.0868 32.9393 19.2948 32.859 19.489C32.7786 19.6831 32.6608 19.8595 32.5123 20.0082C32.3638 20.1568 32.1874 20.2747 31.9933 20.3552C31.7992 20.4356 31.5912 20.4771 31.3811 20.4771C30.9567 20.4771 30.5498 20.3086 30.2497 20.0085C29.9496 19.7085 29.7811 19.3015 29.7811 18.8771C29.7811 18.4528 29.9496 18.0458 30.2497 17.7458C30.5498 17.4457 30.9567 17.2771 31.3811 17.2771H31.3801ZM19.9921 17.5331C20.0074 17.5321 20.0227 17.5341 20.0372 17.5392C20.0516 17.5443 20.0649 17.5522 20.0761 17.5626C20.0874 17.573 20.0964 17.5856 20.1026 17.5997C20.1087 17.6137 20.112 17.6288 20.1121 17.6441C20.1121 17.674 20.1002 17.7026 20.0791 17.7237C20.058 17.7448 20.0294 17.7566 19.9996 17.7566C19.9697 17.7566 19.9411 17.7448 19.92 17.7237C19.8989 17.7026 19.8871 17.674 19.8871 17.6441C19.8871 17.5861 19.9331 17.5371 19.9921 17.5341V17.5331ZM27.9921 17.5331C28.0074 17.5321 28.0227 17.5341 28.0372 17.5392C28.0516 17.5443 28.0649 17.5522 28.0761 17.5626C28.0874 17.573 28.0964 17.5856 28.1026 17.5997C28.1087 17.6137 28.112 17.6288 28.1121 17.6441C28.1121 17.674 28.1002 17.7026 28.0791 17.7237C28.058 17.7448 28.0294 17.7566 27.9996 17.7566C27.9697 17.7566 27.9411 17.7448 27.92 17.7237C27.8989 17.7026 27.8871 17.674 27.8871 17.6441C27.8871 17.5861 27.9331 17.5371 27.9921 17.5341V17.5331ZM19.9921 18.6581C20.0074 18.6571 20.0227 18.6591 20.0372 18.6642C20.0516 18.6693 20.0649 18.6772 20.0761 18.6876C20.0874 18.698 20.0964 18.7106 20.1026 18.7247C20.1087 18.7387 20.112 18.7538 20.1121 18.7691C20.1124 18.791 20.1063 18.8125 20.0946 18.831C20.0828 18.8494 20.0659 18.8641 20.046 18.873C20.026 18.882 20.0039 18.8849 19.9823 18.8814C19.9607 18.8779 19.9405 18.8682 19.9244 18.8534C19.9083 18.8386 19.8968 18.8194 19.8915 18.7982C19.8861 18.777 19.8871 18.7547 19.8943 18.734C19.9015 18.7134 19.9146 18.6952 19.932 18.6819C19.9494 18.6686 19.9703 18.6607 19.9921 18.6591V18.6581ZM27.9921 18.6581C28.0074 18.6571 28.0227 18.6591 28.0372 18.6642C28.0516 18.6693 28.0649 18.6772 28.0761 18.6876C28.0874 18.698 28.0964 18.7106 28.1026 18.7247C28.1087 18.7387 28.112 18.7538 28.1121 18.7691C28.1124 18.791 28.1063 18.8125 28.0946 18.831C28.0828 18.8494 28.0659 18.8641 28.046 18.873C28.026 18.882 28.0039 18.8849 27.9823 18.8814C27.9607 18.8779 27.9405 18.8682 27.9244 18.8534C27.9083 18.8386 27.8968 18.8194 27.8915 18.7982C27.8861 18.777 27.8871 18.7547 27.8943 18.734C27.9015 18.7134 27.9146 18.6952 27.932 18.6819C27.9494 18.6686 27.9703 18.6607 27.9921 18.6591V18.6581ZM19.9801 19.2211H20.0001C20.0223 19.2213 20.0439 19.2281 20.0622 19.2407C20.0806 19.2532 20.0948 19.2709 20.103 19.2914C20.1113 19.312 20.1132 19.3346 20.1086 19.3563C20.104 19.3781 20.0931 19.3979 20.0772 19.4134C20.0613 19.4289 20.0411 19.4393 20.0193 19.4433C19.9975 19.4473 19.975 19.4447 19.9546 19.4359C19.9342 19.4271 19.9169 19.4125 19.9049 19.3938C19.8929 19.3751 19.8867 19.3533 19.8871 19.3311C19.8871 19.2771 19.9261 19.2281 19.9801 19.2211ZM27.9801 19.2211H28.0001C28.0223 19.2213 28.0439 19.2281 28.0622 19.2407C28.0806 19.2532 28.0948 19.2709 28.103 19.2914C28.1113 19.312 28.1132 19.3346 28.1086 19.3563C28.104 19.3781 28.0931 19.3979 28.0772 19.4134C28.0613 19.4289 28.0411 19.4393 28.0193 19.4433C27.9975 19.4473 27.975 19.4447 27.9546 19.4359C27.9342 19.4271 27.9169 19.4125 27.9049 19.3938C27.8929 19.3751 27.8867 19.3533 27.8871 19.3311C27.8871 19.2771 27.9261 19.2281 27.9801 19.2211ZM20.0021 19.7811C20.0319 19.7814 20.0604 19.7935 20.0813 19.8148C20.1022 19.8361 20.1138 19.8648 20.1136 19.8946C20.1133 19.9245 20.1012 19.953 20.0799 19.9739C20.0586 19.9948 20.0299 20.0064 20.0001 20.0061C19.9853 20.006 19.9707 20.003 19.9571 19.9972C19.9435 19.9914 19.9312 19.983 19.9208 19.9725C19.9105 19.9619 19.9023 19.9495 19.8968 19.9358C19.8912 19.9221 19.8884 19.9074 19.8886 19.8926C19.8887 19.8779 19.8917 19.8633 19.8975 19.8497C19.9033 19.8361 19.9117 19.8237 19.9222 19.8134C19.9328 19.803 19.9453 19.7949 19.959 19.7893C19.9726 19.7838 19.9873 19.781 20.0021 19.7811ZM28.0021 19.7811C28.0319 19.7814 28.0604 19.7935 28.0813 19.8148C28.1022 19.8361 28.1138 19.8648 28.1136 19.8946C28.1133 19.9245 28.1012 19.953 28.0799 19.9739C28.0586 19.9948 28.0299 20.0064 28.0001 20.0061C27.9853 20.006 27.9707 20.003 27.9571 19.9972C27.9435 19.9914 27.9312 19.983 27.9208 19.9725C27.9105 19.9619 27.9023 19.9495 27.8968 19.9358C27.8912 19.9221 27.8884 19.9074 27.8886 19.8926C27.8887 19.8779 27.8917 19.8633 27.8975 19.8497C27.9033 19.8361 27.9117 19.8237 27.9222 19.8134C27.9328 19.803 27.9453 19.7949 27.959 19.7893C27.9726 19.7838 27.9873 19.781 28.0021 19.7811ZM19.9921 20.3441H20.0001C20.0298 20.3441 20.0583 20.3559 20.0793 20.3769C20.1003 20.398 20.1121 20.4264 20.1121 20.4561C20.1121 20.4858 20.1003 20.5143 20.0793 20.5353C20.0583 20.5563 20.0298 20.5681 20.0001 20.5681C19.9854 20.5683 19.9708 20.5655 19.9571 20.56C19.9435 20.5545 19.9311 20.5464 19.9206 20.536C19.9101 20.5257 19.9017 20.5135 19.896 20.4999C19.8902 20.4864 19.8872 20.4719 19.8871 20.4571C19.8861 20.3971 19.9331 20.3471 19.9921 20.3441ZM27.9921 20.3441H28.0001C28.0298 20.3441 28.0583 20.3559 28.0793 20.3769C28.1003 20.398 28.1121 20.4264 28.1121 20.4561C28.1121 20.4858 28.1003 20.5143 28.0793 20.5353C28.0583 20.5563 28.0298 20.5681 28.0001 20.5681C27.9854 20.5683 27.9708 20.5655 27.9571 20.56C27.9435 20.5545 27.9311 20.5464 27.9206 20.536C27.9101 20.5257 27.9017 20.5135 27.896 20.4999C27.8902 20.4864 27.8872 20.4719 27.8871 20.4571C27.8861 20.3971 27.9331 20.3471 27.9921 20.3441ZM19.9921 20.9061H20.0001C20.0294 20.9072 20.0572 20.9197 20.0774 20.941C20.0976 20.9623 20.1086 20.9907 20.1081 21.0201C20.1075 21.0494 20.0955 21.0774 20.0746 21.098C20.0536 21.1185 20.0254 21.1301 19.9961 21.1301C19.9667 21.1301 19.9385 21.1185 19.9176 21.098C19.8966 21.0774 19.8846 21.0494 19.8841 21.0201C19.8836 20.9907 19.8946 20.9623 19.9148 20.941C19.935 20.9197 19.9627 20.9072 19.9921 20.9061ZM27.9921 20.9061H28.0001C28.0294 20.9072 28.0572 20.9197 28.0774 20.941C28.0976 20.9623 28.1086 20.9907 28.1081 21.0201C28.1075 21.0494 28.0955 21.0774 28.0746 21.098C28.0536 21.1185 28.0254 21.1301 27.9961 21.1301C27.9667 21.1301 27.9385 21.1185 27.9176 21.098C27.8966 21.0774 27.8846 21.0494 27.8841 21.0201C27.8836 20.9907 27.8946 20.9623 27.9148 20.941C27.935 20.9197 27.9627 20.9072 27.9921 20.9061ZM19.9921 21.4691H20.0001C20.0294 21.4702 20.0572 21.4827 20.0774 21.504C20.0976 21.5253 20.1086 21.5537 20.1081 21.5831C20.1075 21.6124 20.0955 21.6404 20.0746 21.661C20.0536 21.6815 20.0254 21.6931 19.9961 21.6931C19.9667 21.6931 19.9385 21.6815 19.9176 21.661C19.8966 21.6404 19.8846 21.6124 19.8841 21.5831C19.8836 21.5537 19.8946 21.5253 19.9148 21.504C19.935 21.4827 19.9627 21.4702 19.9921 21.4691ZM27.9921 21.4691H28.0001C28.0294 21.4702 28.0572 21.4827 28.0774 21.504C28.0976 21.5253 28.1086 21.5537 28.1081 21.5831C28.1075 21.6124 28.0955 21.6404 28.0746 21.661C28.0536 21.6815 28.0254 21.6931 27.9961 21.6931C27.9667 21.6931 27.9385 21.6815 27.9176 21.661C27.8966 21.6404 27.8846 21.6124 27.8841 21.5831C27.8836 21.5537 27.8946 21.5253 27.9148 21.504C27.935 21.4827 27.9627 21.4702 27.9921 21.4691ZM16.6191 22.5111C17.0434 22.5111 17.4504 22.6797 17.7504 22.9798C18.0505 23.2798 18.2191 23.6868 18.2191 24.1111C18.2191 24.5355 18.0505 24.9425 17.7504 25.2425C17.4504 25.5426 17.0434 25.7111 16.6191 25.7111C16.1947 25.7111 15.7878 25.5426 15.4877 25.2425C15.1876 24.9425 15.0191 24.5355 15.0191 24.1111C15.0191 23.6868 15.1876 23.2798 15.4877 22.9798C15.7878 22.6797 16.1947 22.5111 16.6191 22.5111ZM24.0001 22.5111C24.4244 22.5111 24.8314 22.6797 25.1314 22.9798C25.4315 23.2798 25.6001 23.6868 25.6001 24.1111C25.6001 24.5355 25.4315 24.9425 25.1314 25.2425C24.8314 25.5426 24.4244 25.7111 24.0001 25.7111C23.5757 25.7111 23.1688 25.5426 22.8687 25.2425C22.5686 24.9425 22.4001 24.5355 22.4001 24.1111C22.4001 23.6868 22.5686 23.2798 22.8687 22.9798C23.1688 22.6797 23.5757 22.5111 24.0001 22.5111ZM31.3801 22.5111C31.5902 22.5111 31.7983 22.5524 31.9924 22.6327C32.1866 22.7131 32.363 22.8309 32.5116 22.9794C32.6602 23.1279 32.7781 23.3043 32.8586 23.4984C32.9391 23.6925 32.9805 23.9005 32.9806 24.1106C32.9806 24.3208 32.9393 24.5288 32.859 24.723C32.7786 24.9171 32.6608 25.0935 32.5123 25.2422C32.3638 25.3908 32.1874 25.5087 31.9933 25.5892C31.7992 25.6696 31.5912 25.7111 31.3811 25.7111C30.9567 25.7111 30.5498 25.5426 30.2497 25.2425C29.9496 24.9425 29.7811 24.5355 29.7811 24.1111C29.7811 23.6868 29.9496 23.2798 30.2497 22.9798C30.5498 22.6797 30.9567 22.5111 31.3811 22.5111H31.3801ZM19.9921 23.1561H20.0001C20.0294 23.1572 20.0572 23.1697 20.0774 23.191C20.0976 23.2123 20.1086 23.2407 20.1081 23.2701C20.1075 23.2994 20.0955 23.3274 20.0746 23.348C20.0536 23.3685 20.0254 23.3801 19.9961 23.3801C19.9667 23.3801 19.9385 23.3685 19.9176 23.348C19.8966 23.3274 19.8846 23.2994 19.8841 23.2701C19.8836 23.2407 19.8946 23.2123 19.9148 23.191C19.935 23.1697 19.9627 23.1572 19.9921 23.1561ZM27.9921 23.1561H28.0001C28.0294 23.1572 28.0572 23.1697 28.0774 23.191C28.0976 23.2123 28.1086 23.2407 28.1081 23.2701C28.1075 23.2994 28.0955 23.3274 28.0746 23.348C28.0536 23.3685 28.0254 23.3801 27.9961 23.3801C27.9667 23.3801 27.9385 23.3685 27.9176 23.348C27.8966 23.3274 27.8846 23.2994 27.8841 23.2701C27.8836 23.2407 27.8946 23.2123 27.9148 23.191C27.935 23.1697 27.9627 23.1572 27.9921 23.1561ZM19.9801 23.7191H20.0001C20.0222 23.7193 20.0438 23.7261 20.0621 23.7386C20.0804 23.751 20.0946 23.7687 20.1029 23.7892C20.1112 23.8097 20.1132 23.8323 20.1087 23.854C20.1042 23.8757 20.0934 23.8955 20.0776 23.911C20.0618 23.9266 20.0417 23.9371 20.0199 23.9412C19.9982 23.9453 19.9757 23.9429 19.9553 23.9342C19.9349 23.9256 19.9175 23.9111 19.9054 23.8925C19.8933 23.874 19.8869 23.8523 19.8871 23.8301C19.8871 23.7751 19.9261 23.7261 19.9801 23.7191ZM27.9801 23.7191H28.0001C28.0222 23.7193 28.0438 23.7261 28.0621 23.7386C28.0804 23.751 28.0946 23.7687 28.1029 23.7892C28.1112 23.8097 28.1132 23.8323 28.1087 23.854C28.1042 23.8757 28.0934 23.8955 28.0776 23.911C28.0618 23.9266 28.0417 23.9371 28.0199 23.9412C27.9982 23.9453 27.9757 23.9429 27.9553 23.9342C27.9349 23.9256 27.9175 23.9111 27.9054 23.8925C27.8933 23.874 27.8869 23.8523 27.8871 23.8301C27.8871 23.7751 27.9261 23.7261 27.9801 23.7191ZM19.9801 24.2811H20.0001C20.0611 24.2811 20.1101 24.3311 20.1111 24.3921C20.1111 24.4219 20.0993 24.4503 20.0783 24.4713C20.0573 24.4923 20.0288 24.5041 19.9991 24.5041C19.9694 24.5041 19.9409 24.4923 19.9199 24.4713C19.8989 24.4503 19.8871 24.4219 19.8871 24.3921C19.8868 24.3657 19.896 24.34 19.9131 24.3198C19.9301 24.2996 19.9539 24.2862 19.9801 24.2821V24.2811ZM27.9801 24.2811H28.0001C28.0611 24.2811 28.1101 24.3311 28.1111 24.3921C28.1111 24.4219 28.0993 24.4503 28.0783 24.4713C28.0573 24.4923 28.0288 24.5041 27.9991 24.5041C27.9694 24.5041 27.9409 24.4923 27.9199 24.4713C27.8989 24.4503 27.8871 24.4219 27.8871 24.3921C27.8868 24.3657 27.896 24.34 27.9131 24.3198C27.9302 24.2996 27.9539 24.2862 27.9801 24.2821V24.2811ZM16.6191 27.7461C16.8325 27.7408 17.0448 27.7782 17.2435 27.8562C17.4423 27.9342 17.6234 28.0512 17.7762 28.2002C17.929 28.3493 18.0505 28.5274 18.1334 28.7241C18.2164 28.9208 18.2591 29.1322 18.2591 29.3456C18.2591 29.5591 18.2164 29.7704 18.1334 29.9672C18.0505 30.1639 17.929 30.342 17.7762 30.4911C17.6234 30.6401 17.4423 30.7571 17.2435 30.8351C17.0448 30.9131 16.8325 30.9505 16.6191 30.9451C16.2018 30.9347 15.8051 30.7616 15.5137 30.4628C15.2222 30.164 15.0591 29.7631 15.0591 29.3456C15.0591 28.9282 15.2222 28.5273 15.5137 28.2285C15.8051 27.9297 16.2018 27.7566 16.6191 27.7461ZM24.0001 27.7461C24.2135 27.7408 24.4258 27.7782 24.6245 27.8562C24.8233 27.9342 25.0044 28.0512 25.1572 28.2002C25.31 28.3493 25.4315 28.5274 25.5144 28.7241C25.5974 28.9208 25.6401 29.1322 25.6401 29.3456C25.6401 29.5591 25.5974 29.7704 25.5144 29.9672C25.4315 30.1639 25.31 30.342 25.1572 30.4911C25.0044 30.6401 24.8233 30.7571 24.6245 30.8351C24.4258 30.9131 24.2135 30.9505 24.0001 30.9451C23.5828 30.9347 23.1861 30.7616 22.8947 30.4628C22.6032 30.164 22.4401 29.7631 22.4401 29.3456C22.4401 28.9282 22.6032 28.5273 22.8947 28.2285C23.1861 27.9297 23.5828 27.7566 24.0001 27.7461ZM31.3801 27.7461C31.5935 27.7407 31.8058 27.7781 32.0046 27.856C32.2033 27.9339 32.3845 28.0509 32.5374 28.1999C32.6902 28.3489 32.8117 28.527 32.8947 28.7237C32.9777 28.9203 33.0205 29.1317 33.0206 29.3451C33.0206 29.5586 32.978 29.7699 32.8951 29.9667C32.8123 30.1634 32.6909 30.3416 32.5381 30.4907C32.3853 30.6398 32.2042 30.7568 32.0055 30.8349C31.8068 30.9129 31.5945 30.9504 31.3811 30.9451C30.9638 30.9347 30.5671 30.7616 30.2757 30.4628C29.9842 30.164 29.8211 29.7631 29.8211 29.3456C29.8211 28.9282 29.9842 28.5273 30.2757 28.2285C30.5671 27.9297 30.9638 27.7566 31.3811 27.7461H31.3801ZM19.9801 28.2161H20.0001C20.0611 28.2171 20.1101 28.2661 20.1111 28.3281C20.111 28.3495 20.1048 28.3704 20.0932 28.3884C20.0817 28.4063 20.0652 28.4206 20.0458 28.4295C20.0264 28.4384 20.0048 28.4416 19.9836 28.4386C19.9625 28.4357 19.9426 28.4267 19.9264 28.4129C19.9101 28.399 19.8982 28.3808 19.8919 28.3603C19.8857 28.3399 19.8855 28.3181 19.8912 28.2975C19.897 28.277 19.9085 28.2585 19.9244 28.2442C19.9403 28.23 19.96 28.2206 19.9811 28.2171L19.9801 28.2161ZM27.9801 28.2161H28.0001C28.0611 28.2171 28.1101 28.2661 28.1111 28.3281C28.111 28.3495 28.1048 28.3704 28.0932 28.3884C28.0817 28.4063 28.0652 28.4206 28.0458 28.4295C28.0264 28.4384 28.0048 28.4416 27.9836 28.4386C27.9625 28.4357 27.9426 28.4267 27.9264 28.4129C27.9101 28.399 27.8982 28.3808 27.8919 28.3603C27.8857 28.3399 27.8855 28.3181 27.8912 28.2975C27.897 28.277 27.9085 28.2585 27.9244 28.2442C27.9403 28.23 27.96 28.2206 27.9811 28.2171L27.9801 28.2161ZM20.0021 28.7771C20.0319 28.7774 20.0604 28.7895 20.0813 28.8108C20.1022 28.8321 20.1138 28.8608 20.1136 28.8906C20.1133 28.9205 20.1012 28.949 20.0799 28.9699C20.0586 28.9908 20.0299 29.0024 20.0001 29.0021C19.9853 29.002 19.9707 28.999 19.9571 28.9932C19.9435 28.9874 19.9312 28.979 19.9208 28.9685C19.9105 28.9579 19.9023 28.9455 19.8968 28.9318C19.8912 28.9181 19.8884 28.9034 19.8886 28.8886C19.8887 28.8739 19.8917 28.8593 19.8975 28.8457C19.9033 28.8321 19.9117 28.8197 19.9222 28.8094C19.9328 28.799 19.9453 28.7909 19.959 28.7853C19.9726 28.7798 19.9873 28.777 20.0021 28.7771ZM28.0021 28.7771C28.0319 28.7774 28.0604 28.7895 28.0813 28.8108C28.1022 28.8321 28.1138 28.8608 28.1136 28.8906C28.1133 28.9205 28.1012 28.949 28.0799 28.9699C28.0586 28.9908 28.0299 29.0024 28.0001 29.0021C27.9853 29.002 27.9707 28.999 27.9571 28.9932C27.9435 28.9874 27.9312 28.979 27.9208 28.9685C27.9105 28.9579 27.9023 28.9455 27.8968 28.9318C27.8912 28.9181 27.8884 28.9034 27.8886 28.8886C27.8887 28.8739 27.8917 28.8593 27.8975 28.8457C27.9033 28.8321 27.9117 28.8197 27.9222 28.8094C27.9328 28.799 27.9453 28.7909 27.959 28.7853C27.9726 28.7798 27.9873 28.777 28.0021 28.7771ZM19.9921 29.3401H20.0001C20.0294 29.3412 20.0572 29.3537 20.0774 29.375C20.0976 29.3963 20.1086 29.4247 20.1081 29.4541C20.1075 29.4834 20.0955 29.5114 20.0746 29.532C20.0536 29.5525 20.0254 29.5641 19.9961 29.5641C19.9667 29.5641 19.9385 29.5525 19.9176 29.532C19.8966 29.5114 19.8846 29.4834 19.8841 29.4541C19.8836 29.4247 19.8946 29.3963 19.9148 29.375C19.935 29.3537 19.9627 29.3412 19.9921 29.3401ZM27.9921 29.3401H28.0001C28.0294 29.3412 28.0572 29.3537 28.0774 29.375C28.0976 29.3963 28.1086 29.4247 28.1081 29.4541C28.1075 29.4834 28.0955 29.5114 28.0746 29.532C28.0536 29.5525 28.0254 29.5641 27.9961 29.5641C27.9667 29.5641 27.9385 29.5525 27.9176 29.532C27.8966 29.5114 27.8846 29.4834 27.8841 29.4541C27.8836 29.4247 27.8946 29.3963 27.9148 29.375C27.935 29.3537 27.9627 29.3412 27.9921 29.3401ZM19.9921 29.9021H20.0001C20.0294 29.9032 20.0572 29.9157 20.0774 29.937C20.0976 29.9583 20.1086 29.9867 20.1081 30.0161C20.1075 30.0454 20.0955 30.0734 20.0746 30.094C20.0536 30.1145 20.0254 30.1261 19.9961 30.1261C19.9667 30.1261 19.9385 30.1145 19.9176 30.094C19.8966 30.0734 19.8846 30.0454 19.8841 30.0161C19.8836 29.9867 19.8946 29.9583 19.9148 29.937C19.935 29.9157 19.9627 29.9032 19.9921 29.9021ZM27.9921 29.9021H28.0001C28.0294 29.9032 28.0572 29.9157 28.0774 29.937C28.0976 29.9583 28.1086 29.9867 28.1081 30.0161C28.1075 30.0454 28.0955 30.0734 28.0746 30.094C28.0536 30.1145 28.0254 30.1261 27.9961 30.1261C27.9667 30.1261 27.9385 30.1145 27.9176 30.094C27.8966 30.0734 27.8846 30.0454 27.8841 30.0161C27.8836 29.9867 27.8946 29.9583 27.9148 29.937C27.935 29.9157 27.9627 29.9032 27.9921 29.9021ZM19.9921 31.0251C20.0075 31.0243 20.0229 31.0266 20.0373 31.0319C20.0518 31.0373 20.065 31.0454 20.0762 31.056C20.0875 31.0666 20.0964 31.0793 20.1026 31.0934C20.1087 31.1075 20.112 31.1227 20.1121 31.1381C20.1121 31.168 20.1002 31.1966 20.0791 31.2177C20.058 31.2388 20.0294 31.2506 19.9996 31.2506C19.9697 31.2506 19.9411 31.2388 19.92 31.2177C19.8989 31.1966 19.8871 31.168 19.8871 31.1381C19.8871 31.0791 19.9331 31.0281 19.9921 31.0251ZM27.9921 31.0251C28.0075 31.0243 28.0229 31.0266 28.0373 31.0319C28.0518 31.0373 28.065 31.0454 28.0762 31.056C28.0875 31.0666 28.0964 31.0793 28.1026 31.0934C28.1087 31.1075 28.112 31.1227 28.1121 31.1381C28.1121 31.168 28.1002 31.1966 28.0791 31.2177C28.058 31.2388 28.0294 31.2506 27.9996 31.2506C27.9697 31.2506 27.9411 31.2388 27.92 31.2177C27.8989 31.1966 27.8871 31.168 27.8871 31.1381C27.8871 31.0791 27.9331 31.0281 27.9921 31.0251ZM19.9801 32.1501H20.0001C20.0222 32.1503 20.0437 32.1571 20.062 32.1695C20.0803 32.1819 20.0945 32.1995 20.1028 32.22C20.1112 32.2405 20.1132 32.2629 20.1088 32.2846C20.1044 32.3063 20.0936 32.3261 20.0779 32.3417C20.0622 32.3573 20.0423 32.3678 20.0206 32.3721C19.9989 32.3763 19.9764 32.374 19.956 32.3655C19.9356 32.357 19.9181 32.3427 19.9059 32.3243C19.8936 32.3059 19.8871 32.2843 19.8871 32.2621C19.8863 32.2354 19.8953 32.2092 19.9124 32.1886C19.9295 32.1679 19.9536 32.1543 19.9801 32.1501ZM27.9801 32.1501H28.0001C28.0222 32.1503 28.0437 32.1571 28.062 32.1695C28.0803 32.1819 28.0945 32.1995 28.1028 32.22C28.1112 32.2405 28.1132 32.2629 28.1088 32.2846C28.1044 32.3063 28.0936 32.3261 28.0779 32.3417C28.0622 32.3573 28.0423 32.3678 28.0206 32.3721C27.9989 32.3763 27.9764 32.374 27.956 32.3655C27.9356 32.357 27.9181 32.3427 27.9059 32.3243C27.8936 32.3059 27.8871 32.2843 27.8871 32.2621C27.8863 32.2354 27.8953 32.2092 27.9124 32.1886C27.9295 32.1679 27.9536 32.1543 27.9801 32.1501ZM19.9801 32.7131H20.0001C20.0611 32.7131 20.1101 32.7631 20.1111 32.8241C20.111 32.8455 20.1048 32.8664 20.0932 32.8844C20.0817 32.9023 20.0652 32.9166 20.0458 32.9255C20.0264 32.9344 20.0048 32.9376 19.9836 32.9346C19.9625 32.9317 19.9426 32.9227 19.9264 32.9089C19.9101 32.895 19.8982 32.8768 19.8919 32.8563C19.8857 32.8359 19.8855 32.8141 19.8912 32.7935C19.897 32.773 19.9085 32.7545 19.9244 32.7402C19.9403 32.726 19.96 32.7166 19.9811 32.7131H19.9801ZM27.9801 32.7131H28.0001C28.0611 32.7131 28.1101 32.7631 28.1111 32.8241C28.111 32.8455 28.1048 32.8664 28.0932 32.8844C28.0817 32.9023 28.0652 32.9166 28.0458 32.9255C28.0264 32.9344 28.0048 32.9376 27.9836 32.9346C27.9625 32.9317 27.9426 32.9227 27.9264 32.9089C27.9101 32.895 27.8982 32.8768 27.8919 32.8563C27.8857 32.8359 27.8855 32.8141 27.8912 32.7935C27.897 32.773 27.9085 32.7545 27.9244 32.7402C27.9403 32.726 27.96 32.7166 27.9811 32.7131H27.9801ZM16.6201 32.9801C16.8335 32.9748 17.0458 33.0122 17.2445 33.0902C17.4433 33.1682 17.6244 33.2852 17.7772 33.4342C17.93 33.5833 18.0515 33.7614 18.1344 33.9581C18.2174 34.1548 18.2601 34.3662 18.2601 34.5796C18.2601 34.7931 18.2174 35.0044 18.1344 35.2012C18.0515 35.3979 17.93 35.576 17.7772 35.7251C17.6244 35.8741 17.4433 35.9911 17.2445 36.0691C17.0458 36.1471 16.8335 36.1845 16.6201 36.1791C16.2028 36.1687 15.8061 35.9956 15.5147 35.6968C15.2232 35.398 15.0601 34.9971 15.0601 34.5796C15.0601 34.1622 15.2232 33.7613 15.5147 33.4625C15.8061 33.1637 16.2028 32.9906 16.6201 32.9801ZM24.0001 32.9801C24.2135 32.9748 24.4258 33.0122 24.6245 33.0902C24.8233 33.1682 25.0044 33.2852 25.1572 33.4342C25.31 33.5833 25.4315 33.7614 25.5144 33.9581C25.5974 34.1548 25.6401 34.3662 25.6401 34.5796C25.6401 34.7931 25.5974 35.0044 25.5144 35.2012C25.4315 35.3979 25.31 35.576 25.1572 35.7251C25.0044 35.8741 24.8233 35.9911 24.6245 36.0691C24.4258 36.1471 24.2135 36.1845 24.0001 36.1791C23.5828 36.1687 23.1861 35.9956 22.8947 35.6968C22.6032 35.398 22.4401 34.9971 22.4401 34.5796C22.4401 34.1622 22.6032 33.7613 22.8947 33.4625C23.1861 33.1637 23.5828 32.9906 24.0001 32.9801ZM31.3801 32.9801C31.5902 32.9801 31.7983 33.0214 31.9924 33.1017C32.1866 33.1821 32.363 33.2999 32.5116 33.4484C32.6602 33.5969 32.7781 33.7733 32.8586 33.9674C32.9391 34.1615 32.9805 34.3695 32.9806 34.5796C32.9806 34.7898 32.9393 34.9978 32.859 35.192C32.7786 35.3861 32.6608 35.5625 32.5123 35.7112C32.3638 35.8598 32.1874 35.9777 31.9933 36.0582C31.7992 36.1386 31.5912 36.1801 31.3811 36.1801C30.9567 36.1801 30.5498 36.0116 30.2497 35.7115C29.9496 35.4115 29.7811 35.0045 29.7811 34.5801C29.7811 34.1558 29.9496 33.7488 30.2497 33.4488C30.5498 33.1487 30.9567 32.9801 31.3811 32.9801H31.3801ZM20.0021 33.2731C20.0641 33.2741 20.1141 33.3271 20.1131 33.3891C20.1129 33.4036 20.11 33.4179 20.1043 33.4312C20.0987 33.4445 20.0905 33.4565 20.0802 33.4666C20.0698 33.4768 20.0576 33.4847 20.0443 33.4902C20.0309 33.4956 20.0165 33.4983 20.0021 33.4981C19.9874 33.4985 19.9728 33.496 19.9591 33.4907C19.9454 33.4853 19.9329 33.4773 19.9223 33.467C19.9118 33.4568 19.9034 33.4445 19.8977 33.4309C19.892 33.4174 19.8891 33.4028 19.8891 33.3881C19.8891 33.3261 19.9391 33.2731 20.0021 33.2731ZM28.0021 33.2731C28.0641 33.2741 28.1141 33.3271 28.1131 33.3891C28.1129 33.4036 28.11 33.4179 28.1043 33.4312C28.0987 33.4445 28.0905 33.4565 28.0802 33.4666C28.0698 33.4768 28.0576 33.4847 28.0443 33.4902C28.0309 33.4956 28.0165 33.4983 28.0021 33.4981C27.9874 33.4985 27.9728 33.496 27.9591 33.4907C27.9454 33.4853 27.9329 33.4773 27.9223 33.467C27.9118 33.4568 27.9034 33.4445 27.8977 33.4309C27.892 33.4174 27.8891 33.4028 27.8891 33.3881C27.8891 33.3261 27.9391 33.2731 28.0021 33.2731ZM19.9921 33.8361H20.0001C20.0294 33.8372 20.0572 33.8497 20.0774 33.871C20.0976 33.8923 20.1086 33.9207 20.1081 33.9501C20.1075 33.9794 20.0955 34.0074 20.0746 34.028C20.0536 34.0485 20.0254 34.0601 19.9961 34.0601C19.9667 34.0601 19.9385 34.0485 19.9176 34.028C19.8966 34.0074 19.8846 33.9794 19.8841 33.9501C19.8836 33.9207 19.8946 33.8923 19.9148 33.871C19.935 33.8497 19.9627 33.8372 19.9921 33.8361ZM27.9921 33.8361H28.0001C28.0294 33.8372 28.0572 33.8497 28.0774 33.871C28.0976 33.8923 28.1086 33.9207 28.1081 33.9501C28.1075 33.9794 28.0955 34.0074 28.0746 34.028C28.0536 34.0485 28.0254 34.0601 27.9961 34.0601C27.9667 34.0601 27.9385 34.0485 27.9176 34.028C27.8966 34.0074 27.8846 33.9794 27.8841 33.9501C27.8836 33.9207 27.8946 33.8923 27.9148 33.871C27.935 33.8497 27.9627 33.8372 27.9921 33.8361ZM19.9801 37.2111H20.0001C20.0611 37.2111 20.1101 37.2611 20.1111 37.3221C20.111 37.3435 20.1048 37.3644 20.0932 37.3824C20.0817 37.4003 20.0652 37.4146 20.0458 37.4235C20.0264 37.4324 20.0048 37.4356 19.9836 37.4326C19.9625 37.4297 19.9426 37.4207 19.9264 37.4069C19.9101 37.393 19.8982 37.3748 19.8919 37.3543C19.8857 37.3339 19.8855 37.3121 19.8912 37.2915C19.897 37.271 19.9085 37.2525 19.9244 37.2382C19.9403 37.224 19.96 37.2146 19.9811 37.2111H19.9801ZM27.9801 37.2111H28.0001C28.0611 37.2111 28.1101 37.2611 28.1111 37.3221C28.111 37.3435 28.1048 37.3644 28.0932 37.3824C28.0817 37.4003 28.0652 37.4146 28.0458 37.4235C28.0264 37.4324 28.0048 37.4356 27.9836 37.4326C27.9625 37.4297 27.9426 37.4207 27.9264 37.4069C27.9101 37.393 27.8982 37.3748 27.8919 37.3543C27.8857 37.3339 27.8855 37.3121 27.8912 37.2915C27.897 37.271 27.9085 37.2525 27.9244 37.2382C27.9403 37.224 27.96 37.2146 27.9811 37.2111H27.9801ZM19.9801 41.1461H20.0001C20.0222 41.1463 20.0437 41.1531 20.062 41.1655C20.0803 41.1779 20.0945 41.1955 20.1028 41.216C20.1112 41.2365 20.1132 41.2589 20.1088 41.2806C20.1044 41.3023 20.0936 41.3221 20.0779 41.3377C20.0622 41.3533 20.0423 41.3638 20.0206 41.3681C19.9989 41.3723 19.9764 41.37 19.956 41.3615C19.9356 41.353 19.9181 41.3387 19.9059 41.3203C19.8936 41.3019 19.8871 41.2803 19.8871 41.2581C19.8863 41.2313 19.8953 41.2052 19.9124 41.1846C19.9295 41.1639 19.9536 41.1503 19.9801 41.1461ZM27.9801 41.1461H28.0001C28.0222 41.1463 28.0437 41.1531 28.062 41.1655C28.0803 41.1779 28.0945 41.1955 28.1028 41.216C28.1112 41.2365 28.1132 41.2589 28.1088 41.2806C28.1044 41.3023 28.0936 41.3221 28.0779 41.3377C28.0622 41.3533 28.0423 41.3638 28.0206 41.3681C27.9989 41.3723 27.9764 41.37 27.956 41.3615C27.9356 41.353 27.9181 41.3387 27.9059 41.3203C27.8936 41.3019 27.8871 41.2803 27.8871 41.2581C27.8863 41.2313 27.8953 41.2052 27.9124 41.1846C27.9295 41.1639 27.9536 41.1503 27.9801 41.1461ZM19.9801 41.7091H20.0001C20.0611 41.7091 20.1101 41.7591 20.1111 41.8201C20.1111 41.8821 20.0611 41.9311 20.0001 41.9311C19.9705 41.9314 19.9421 41.92 19.9209 41.8994C19.8998 41.8788 19.8876 41.8507 19.8871 41.8211C19.8863 41.7943 19.8953 41.7682 19.9124 41.7476C19.9295 41.7269 19.9536 41.7133 19.9801 41.7091ZM27.9801 41.7091H28.0001C28.0611 41.7091 28.1101 41.7591 28.1111 41.8201C28.1111 41.8821 28.0611 41.9311 28.0001 41.9311C27.9705 41.9314 27.9421 41.92 27.9209 41.8994C27.8998 41.8788 27.8876 41.8507 27.8871 41.8211C27.8863 41.7943 27.8953 41.7682 27.9124 41.7476C27.9295 41.7269 27.9536 41.7133 27.9801 41.7091ZM20.0021 42.2691C20.0319 42.2694 20.0604 42.2815 20.0813 42.3028C20.1022 42.3241 20.1138 42.3528 20.1136 42.3826C20.1133 42.4125 20.1012 42.441 20.0799 42.4619C20.0586 42.4828 20.0299 42.4944 20.0001 42.4941C19.9853 42.494 19.9707 42.491 19.9571 42.4852C19.9435 42.4794 19.9312 42.471 19.9208 42.4605C19.9105 42.4499 19.9023 42.4375 19.8968 42.4238C19.8912 42.4101 19.8884 42.3954 19.8886 42.3806C19.8887 42.3659 19.8917 42.3513 19.8975 42.3377C19.9033 42.3241 19.9117 42.3117 19.9222 42.3014C19.9328 42.291 19.9453 42.2829 19.959 42.2773C19.9726 42.2718 19.9873 42.269 20.0021 42.2691ZM28.0021 42.2691C28.0319 42.2694 28.0604 42.2815 28.0813 42.3028C28.1022 42.3241 28.1138 42.3528 28.1136 42.3826C28.1133 42.4125 28.1012 42.441 28.0799 42.4619C28.0586 42.4828 28.0299 42.4944 28.0001 42.4941C27.9853 42.494 27.9707 42.491 27.9571 42.4852C27.9435 42.4794 27.9312 42.471 27.9208 42.4605C27.9105 42.4499 27.9023 42.4375 27.8968 42.4238C27.8912 42.4101 27.8884 42.3954 27.8886 42.3806C27.8887 42.3659 27.8917 42.3513 27.8975 42.3377C27.9033 42.3241 27.9117 42.3117 27.9222 42.3014C27.9328 42.291 27.9453 42.2829 27.959 42.2773C27.9726 42.2718 27.9873 42.269 28.0021 42.2691Z" fill="#333333"/>
</svg>
