<svg width="48" height="48" viewBox="0 0 48 48" fill="none" xmlns="http://www.w3.org/2000/svg">
<path fill-rule="evenodd" clip-rule="evenodd" d="M0 0V48H48V0H0ZM23.998 3.986C27.266 3.976 30.534 3.976 33.852 4.02C34.721 4.02 35.42 4.718 35.42 5.588V42.449C35.42 43.319 34.72 44.019 33.851 44.019H14.147C13.277 44.019 12.581 43.319 12.581 42.449V5.588C12.581 4.718 13.278 4.02 14.147 4.02C17.464 4.02 20.731 3.998 23.999 3.986H23.998ZM19.732 5.055C19.7161 5.05412 19.7001 5.05662 19.6852 5.06235C19.6703 5.06807 19.6568 5.07689 19.6456 5.08821C19.6343 5.09954 19.6256 5.11311 19.62 5.12805C19.6144 5.14299 19.612 5.15895 19.613 5.17488C19.614 5.1908 19.6183 5.20634 19.6258 5.22046C19.6332 5.23458 19.6435 5.24697 19.6561 5.25681C19.6687 5.26665 19.6832 5.27371 19.6987 5.27753C19.7142 5.28136 19.7303 5.28186 19.746 5.279C19.7732 5.27404 19.7977 5.25927 19.8147 5.23748C19.8318 5.21569 19.8403 5.1884 19.8385 5.16078C19.8368 5.13316 19.825 5.10714 19.8054 5.08764C19.7857 5.06814 19.7596 5.05653 19.732 5.055ZM28.252 5.055C28.2361 5.05412 28.2201 5.05662 28.2052 5.06235C28.1903 5.06807 28.1768 5.07689 28.1656 5.08821C28.1543 5.09954 28.1456 5.11311 28.14 5.12805C28.1344 5.14299 28.132 5.15895 28.133 5.17488C28.134 5.1908 28.1383 5.20634 28.1458 5.22046C28.1532 5.23458 28.1635 5.24697 28.1761 5.25681C28.1887 5.26665 28.2032 5.27371 28.2187 5.27753C28.2342 5.28136 28.2503 5.28186 28.266 5.279C28.2932 5.27404 28.3177 5.25927 28.3347 5.23748C28.3518 5.21569 28.3603 5.1884 28.3585 5.16078C28.3568 5.13316 28.345 5.10714 28.3254 5.08764C28.3057 5.06814 28.2796 5.05653 28.252 5.055ZM19.732 5.617C19.7165 5.61687 19.7011 5.61993 19.6868 5.626C19.6726 5.63206 19.6597 5.641 19.649 5.65226C19.6383 5.66352 19.6301 5.67686 19.6248 5.69144C19.6195 5.70602 19.6173 5.72153 19.6182 5.73701C19.6192 5.7525 19.6234 5.76761 19.6304 5.78143C19.6375 5.79524 19.6473 5.80745 19.6593 5.8173C19.6713 5.82715 19.6852 5.83442 19.7001 5.83867C19.715 5.84292 19.7306 5.84405 19.746 5.842C19.7743 5.83821 19.8002 5.82383 19.8183 5.80174C19.8365 5.77965 19.8456 5.75151 19.8438 5.72298C19.842 5.69445 19.8295 5.66765 19.8088 5.64798C19.788 5.62832 19.7606 5.61725 19.732 5.617ZM28.252 5.617C28.2365 5.61687 28.2211 5.61993 28.2068 5.626C28.1926 5.63206 28.1797 5.641 28.169 5.65226C28.1583 5.66352 28.1501 5.67686 28.1448 5.69144C28.1395 5.70602 28.1373 5.72153 28.1383 5.73701C28.1392 5.7525 28.1434 5.76761 28.1504 5.78143C28.1575 5.79524 28.1673 5.80745 28.1793 5.8173C28.1913 5.82715 28.2052 5.83442 28.2201 5.83867C28.235 5.84292 28.2506 5.84405 28.266 5.842C28.2943 5.83821 28.3202 5.82383 28.3383 5.80174C28.3565 5.77965 28.3656 5.75151 28.3638 5.72298C28.362 5.69445 28.3495 5.66765 28.3288 5.64798C28.308 5.62832 28.2806 5.61725 28.252 5.617ZM17.203 5.887V5.889C17.0784 5.89094 16.9555 5.91747 16.8412 5.96707C16.7269 6.01666 16.6235 6.08835 16.537 6.178L14.728 8.034C14.6409 8.123 14.5722 8.22834 14.5259 8.34396C14.4797 8.45958 14.4567 8.58321 14.4584 8.70774C14.4601 8.83227 14.4863 8.95524 14.5357 9.06958C14.5851 9.18392 14.6565 9.28738 14.746 9.374C14.9265 9.5487 15.1689 9.6447 15.4201 9.64096C15.6713 9.63721 15.9108 9.53401 16.086 9.354L17.894 7.495C17.9812 7.40607 18.0499 7.30078 18.0963 7.18519C18.1426 7.0696 18.1657 6.94599 18.1641 6.82147C18.1625 6.69694 18.1363 6.57395 18.0871 6.45958C18.0378 6.3452 17.9664 6.24169 17.877 6.155C17.788 6.06778 17.6826 5.99902 17.567 5.95269C17.4513 5.90635 17.3276 5.88335 17.203 5.885V5.887ZM24.891 5.887V5.889C24.7664 5.89094 24.6435 5.91747 24.5292 5.96707C24.4149 6.01666 24.3115 6.08835 24.225 6.178L22.415 8.035C22.3279 8.124 22.2592 8.22934 22.2129 8.34496C22.1667 8.46058 22.1437 8.58421 22.1454 8.70874C22.1471 8.83327 22.1733 8.95624 22.2227 9.07058C22.2721 9.18492 22.3435 9.28838 22.433 9.375C22.6135 9.5497 22.8559 9.64571 23.1071 9.64196C23.3583 9.63821 23.5978 9.53501 23.773 9.355L25.582 7.496C25.6691 7.407 25.7378 7.30166 25.7841 7.18604C25.8303 7.07042 25.8533 6.94678 25.8516 6.82226C25.8499 6.69773 25.8237 6.57476 25.7743 6.46042C25.7249 6.34608 25.6535 6.24262 25.564 6.156C25.475 6.06878 25.3696 6.00002 25.254 5.95369C25.1383 5.90735 25.0146 5.88435 24.89 5.886L24.891 5.887ZM32.578 5.887V5.889C32.4534 5.89094 32.3305 5.91747 32.2162 5.96707C32.1019 6.01666 31.9985 6.08835 31.912 6.178L30.103 8.034C30.0159 8.123 29.9472 8.22834 29.9009 8.34396C29.8547 8.45958 29.8317 8.58321 29.8334 8.70774C29.8351 8.83227 29.8613 8.95524 29.9107 9.06958C29.9601 9.18392 30.0315 9.28738 30.121 9.374C30.3015 9.5487 30.5439 9.6447 30.7951 9.64096C31.0463 9.63721 31.2858 9.53401 31.461 9.354L33.269 7.495C33.3562 7.40607 33.4249 7.30078 33.4713 7.18519C33.5176 7.0696 33.5407 6.94599 33.5391 6.82147C33.5375 6.69694 33.5113 6.57395 33.4621 6.45958C33.4128 6.3452 33.3414 6.24169 33.252 6.155C33.163 6.06778 33.0576 5.99902 32.942 5.95269C32.8263 5.90635 32.7026 5.88335 32.578 5.885V5.887ZM19.723 6.18C19.6938 6.18225 19.6667 6.19601 19.6477 6.21823C19.6287 6.24045 19.6192 6.26933 19.6215 6.2985C19.6238 6.32767 19.6375 6.35476 19.6597 6.37379C19.682 6.39283 19.7108 6.40225 19.74 6.4C19.801 6.4 19.851 6.35 19.851 6.29C19.851 6.27555 19.8482 6.26125 19.8426 6.2479C19.8371 6.23456 19.829 6.22243 19.8188 6.21222C19.8086 6.202 19.7964 6.1939 19.7831 6.18837C19.7698 6.18285 19.7554 6.18 19.741 6.18H19.722H19.723ZM28.243 6.18C28.2161 6.1832 28.1914 6.19618 28.1735 6.21648C28.1556 6.23677 28.1458 6.26294 28.146 6.29C28.146 6.31984 28.1579 6.34845 28.179 6.36955C28.2 6.39065 28.2287 6.4025 28.2585 6.4025C28.2883 6.4025 28.317 6.39065 28.3381 6.36955C28.3591 6.34845 28.371 6.31984 28.371 6.29C28.371 6.27547 28.3681 6.26108 28.3625 6.24767C28.3569 6.23426 28.3488 6.22209 28.3384 6.21186C28.3281 6.20163 28.3159 6.19355 28.3024 6.18808C28.2889 6.18262 28.2745 6.17987 28.26 6.18H28.242H28.243ZM19.743 6.738C19.728 6.73787 19.7131 6.74072 19.6992 6.74641C19.6853 6.75209 19.6727 6.76048 19.6621 6.77109C19.6515 6.7817 19.6431 6.79433 19.6374 6.80822C19.6317 6.82211 19.6289 6.83699 19.629 6.852C19.629 6.914 19.679 6.966 19.742 6.965C19.803 6.965 19.852 6.913 19.853 6.852C19.8533 6.83729 19.8506 6.82267 19.8452 6.80898C19.8399 6.79529 19.8318 6.7828 19.8216 6.77221C19.8114 6.76163 19.7992 6.75316 19.7857 6.74729C19.7722 6.74142 19.7577 6.73826 19.743 6.738ZM28.262 6.738C28.247 6.73787 28.2321 6.74072 28.2182 6.74641C28.2043 6.75209 28.1917 6.76048 28.1811 6.77109C28.1705 6.7817 28.1621 6.79433 28.1564 6.80822C28.1507 6.82211 28.1479 6.83699 28.148 6.852C28.148 6.914 28.199 6.966 28.262 6.965C28.322 6.965 28.372 6.913 28.372 6.852C28.3723 6.83729 28.3696 6.82267 28.3642 6.80898C28.3589 6.79529 28.3508 6.7828 28.3406 6.77221C28.3304 6.76163 28.3182 6.75316 28.3047 6.74729C28.2912 6.74142 28.2767 6.73826 28.262 6.738ZM19.732 7.301C19.7034 7.30279 19.6765 7.31552 19.6569 7.33654C19.6374 7.35757 19.6267 7.3853 19.627 7.414C19.627 7.476 19.677 7.528 19.74 7.527C19.7695 7.52622 19.7976 7.51401 19.8183 7.49293C19.839 7.47185 19.8507 7.44355 19.851 7.414C19.851 7.39864 19.8479 7.38344 19.8419 7.36932C19.8358 7.35521 19.8269 7.34247 19.8158 7.3319C19.8047 7.32132 19.7915 7.31313 19.7771 7.30782C19.7627 7.3025 19.7473 7.30018 19.732 7.301ZM28.252 7.301C28.2232 7.30255 28.1961 7.31516 28.1763 7.33621C28.1566 7.35727 28.1457 7.38513 28.146 7.414C28.146 7.476 28.197 7.528 28.26 7.527C28.32 7.527 28.37 7.475 28.371 7.414C28.3712 7.39851 28.3681 7.38315 28.3621 7.3689C28.356 7.35464 28.3471 7.34179 28.3358 7.33117C28.3245 7.32055 28.3112 7.31239 28.2966 7.3072C28.282 7.302 28.2665 7.29989 28.251 7.301H28.252ZM19.732 7.861C19.7032 7.8628 19.6762 7.87566 19.6566 7.89691C19.637 7.91815 19.6264 7.94613 19.627 7.975C19.627 8.037 19.677 8.088 19.74 8.088C19.7695 8.08722 19.7976 8.07501 19.8183 8.05393C19.839 8.03285 19.8507 8.00455 19.851 7.975C19.8512 7.95956 19.8482 7.94425 19.8422 7.93001C19.8362 7.91578 19.8273 7.90292 19.8162 7.89224C19.805 7.88156 19.7918 7.87327 19.7773 7.8679C19.7628 7.86253 19.7474 7.86018 19.732 7.861ZM28.252 7.861C28.223 7.86255 28.1957 7.87531 28.176 7.89657C28.1562 7.91784 28.1454 7.94596 28.146 7.975C28.146 8.037 28.197 8.088 28.26 8.088C28.32 8.088 28.37 8.036 28.371 7.975C28.3713 7.95943 28.3684 7.94396 28.3624 7.92958C28.3564 7.91521 28.3475 7.90224 28.3362 7.89151C28.3249 7.88078 28.3115 7.87253 28.2968 7.86728C28.2821 7.86202 28.2665 7.85988 28.251 7.861H28.252ZM19.732 8.424C19.7034 8.42579 19.6765 8.43851 19.6569 8.45954C19.6374 8.48057 19.6267 8.5083 19.627 8.537C19.627 8.599 19.677 8.651 19.74 8.65C19.7695 8.64922 19.7976 8.63701 19.8183 8.61593C19.839 8.59484 19.8507 8.56655 19.851 8.537C19.851 8.52164 19.8479 8.50644 19.8419 8.49232C19.8358 8.47821 19.8269 8.46547 19.8158 8.4549C19.8047 8.44432 19.7915 8.43613 19.7771 8.43082C19.7627 8.4255 19.7473 8.42318 19.732 8.424ZM28.252 8.424C28.2232 8.42554 28.1961 8.43816 28.1763 8.45921C28.1566 8.48027 28.1457 8.50813 28.146 8.537C28.146 8.599 28.197 8.651 28.26 8.65C28.32 8.65 28.37 8.599 28.371 8.537C28.3712 8.52151 28.3681 8.50615 28.3621 8.49189C28.356 8.47764 28.3471 8.4648 28.3358 8.45417C28.3245 8.44355 28.3112 8.43539 28.2966 8.4302C28.282 8.425 28.2665 8.42289 28.251 8.424H28.252ZM19.732 8.986C19.7022 8.98786 19.6743 9.00149 19.6545 9.0239C19.6347 9.04631 19.6246 9.07566 19.6265 9.1055C19.6284 9.13534 19.642 9.16321 19.6644 9.183C19.6868 9.20278 19.7162 9.21286 19.746 9.211C19.7608 9.21008 19.7752 9.20626 19.7885 9.19976C19.8018 9.19325 19.8137 9.1842 19.8235 9.1731C19.8333 9.162 19.8408 9.14909 19.8456 9.13508C19.8504 9.12108 19.8524 9.10627 19.8515 9.0915C19.8506 9.07673 19.8468 9.06228 19.8403 9.04898C19.8338 9.03568 19.8247 9.0238 19.8136 9.014C19.8025 9.0042 19.7896 8.99669 19.7756 8.99188C19.7616 8.98708 19.7468 8.98508 19.732 8.986ZM28.252 8.986C28.2373 8.98685 28.2229 8.99059 28.2096 8.99701C28.1964 9.00343 28.1845 9.0124 28.1747 9.0234C28.1649 9.0344 28.1574 9.04723 28.1525 9.06114C28.1477 9.07506 28.1456 9.08979 28.1465 9.1045C28.1474 9.11921 28.1511 9.1336 28.1575 9.14687C28.1639 9.16013 28.1729 9.172 28.1839 9.18179C28.1949 9.19159 28.2077 9.19912 28.2216 9.20396C28.2356 9.2088 28.2503 9.21085 28.265 9.21C28.2947 9.20828 28.3225 9.19482 28.3423 9.1726C28.3621 9.15038 28.3722 9.1212 28.3705 9.0915C28.3688 9.0618 28.3553 9.03399 28.3331 9.01421C28.3109 8.99442 28.2817 8.98428 28.252 8.986ZM19.732 9.549C19.7035 9.55125 19.6769 9.56412 19.6575 9.58504C19.638 9.60597 19.6272 9.63343 19.627 9.662C19.627 9.6917 19.6388 9.72019 19.6598 9.7412C19.6808 9.7622 19.7093 9.774 19.739 9.774C19.7687 9.774 19.7972 9.7622 19.8182 9.7412C19.8392 9.72019 19.851 9.6917 19.851 9.662C19.8509 9.64668 19.8477 9.63155 19.8416 9.6175C19.8355 9.60345 19.8266 9.59077 19.8155 9.58022C19.8044 9.56968 19.7913 9.56147 19.7769 9.55611C19.7626 9.55075 19.7473 9.54833 19.732 9.549ZM28.252 9.549C28.2233 9.55101 28.1965 9.56377 28.1769 9.58473C28.1572 9.60568 28.1462 9.63327 28.146 9.662C28.146 9.69184 28.1579 9.72045 28.179 9.74155C28.2 9.76265 28.2287 9.7745 28.2585 9.7745C28.2883 9.7745 28.317 9.76265 28.3381 9.74155C28.3591 9.72045 28.371 9.69184 28.371 9.662C28.3709 9.6466 28.3677 9.63137 28.3615 9.61725C28.3553 9.60313 28.3464 9.59041 28.3352 9.57985C28.3239 9.56929 28.3107 9.56111 28.2962 9.55581C28.2818 9.5505 28.2664 9.54819 28.251 9.549H28.252ZM19.721 10.111C19.6943 10.1156 19.67 10.1296 19.6528 10.1505C19.6355 10.1714 19.6264 10.1979 19.627 10.225C19.627 10.287 19.677 10.34 19.74 10.34C19.7704 10.34 19.7995 10.3279 19.821 10.3065C19.8424 10.285 19.8545 10.2559 19.8545 10.2255C19.8545 10.1951 19.8424 10.166 19.821 10.1445C19.7995 10.1231 19.7704 10.111 19.74 10.111H19.721ZM28.241 10.111C28.2141 10.1153 28.1896 10.1293 28.1722 10.1502C28.1547 10.1712 28.1454 10.1977 28.146 10.225C28.146 10.287 28.196 10.34 28.26 10.34C28.2904 10.34 28.3195 10.3279 28.341 10.3065C28.3624 10.285 28.3745 10.2559 28.3745 10.2255C28.3745 10.1951 28.3624 10.166 28.341 10.1445C28.3195 10.1231 28.2904 10.111 28.26 10.111H28.24H28.241ZM19.742 10.671C19.7269 10.6711 19.7121 10.6742 19.6982 10.6802C19.6844 10.6861 19.6718 10.6947 19.6613 10.7054C19.6508 10.7162 19.6426 10.729 19.637 10.743C19.6315 10.757 19.6287 10.7719 19.629 10.787C19.629 10.849 19.679 10.897 19.742 10.897C19.7565 10.8971 19.7709 10.8944 19.7844 10.8889C19.7979 10.8834 19.8101 10.8754 19.8204 10.8651C19.8307 10.8549 19.8389 10.8427 19.8445 10.8293C19.8501 10.8159 19.853 10.8015 19.853 10.787C19.8533 10.7573 19.8419 10.7286 19.8214 10.7071C19.8008 10.6856 19.7727 10.673 19.743 10.672L19.742 10.671ZM28.262 10.671C28.2469 10.671 28.2319 10.674 28.2179 10.6799C28.2039 10.6857 28.1913 10.6943 28.1807 10.7051C28.1701 10.7159 28.1617 10.7287 28.1561 10.7428C28.1505 10.7568 28.1477 10.7719 28.148 10.787C28.148 10.849 28.199 10.897 28.262 10.897C28.2912 10.897 28.3192 10.8854 28.3398 10.8648C28.3604 10.8442 28.372 10.8162 28.372 10.787C28.3723 10.7573 28.3609 10.7286 28.3404 10.7071C28.3198 10.6856 28.2917 10.673 28.262 10.672V10.671ZM17.203 11.147V11.149C17.0784 11.1509 16.9555 11.1775 16.8412 11.2271C16.7269 11.2767 16.6235 11.3483 16.537 11.438L14.728 13.295C14.6409 13.384 14.5722 13.4893 14.5259 13.605C14.4797 13.7206 14.4567 13.8442 14.4584 13.9687C14.4601 14.0933 14.4863 14.2162 14.5357 14.3306C14.5851 14.4449 14.6565 14.5484 14.746 14.635C14.9265 14.8097 15.1689 14.9057 15.4201 14.902C15.6713 14.8982 15.9108 14.795 16.086 14.615L17.894 12.755C18.0257 12.6213 18.1146 12.4515 18.1494 12.2671C18.1841 12.0827 18.1633 11.8921 18.0894 11.7197C18.0155 11.5472 17.8919 11.4006 17.7344 11.2987C17.5769 11.1967 17.3926 11.1439 17.205 11.147H17.203ZM24.891 11.147V11.149C24.7664 11.1509 24.6435 11.1775 24.5292 11.2271C24.4149 11.2767 24.3115 11.3483 24.225 11.438L22.415 13.295C22.3279 13.384 22.2592 13.4893 22.2129 13.605C22.1667 13.7206 22.1437 13.8442 22.1454 13.9687C22.1471 14.0933 22.1733 14.2162 22.2227 14.3306C22.2721 14.4449 22.3435 14.5484 22.433 14.635C22.6135 14.8097 22.8559 14.9057 23.1071 14.902C23.3583 14.8982 23.5978 14.795 23.773 14.615L25.582 12.755C25.7137 12.6213 25.8027 12.4513 25.8374 12.2668C25.8722 12.0824 25.8512 11.8917 25.7772 11.7192C25.7032 11.5467 25.5794 11.4001 25.4218 11.2982C25.2641 11.1963 25.0797 11.1437 24.892 11.147H24.89H24.891ZM32.578 11.147V11.149C32.4534 11.1509 32.3305 11.1775 32.2162 11.2271C32.1019 11.2767 31.9985 11.3483 31.912 11.438L30.103 13.295C30.0159 13.384 29.9472 13.4893 29.9009 13.605C29.8547 13.7206 29.8317 13.8442 29.8334 13.9687C29.8351 14.0933 29.8613 14.2162 29.9107 14.3306C29.9601 14.4449 30.0315 14.5484 30.121 14.635C30.3015 14.8097 30.5439 14.9057 30.7951 14.902C31.0463 14.8982 31.2858 14.795 31.461 14.615L33.269 12.755C33.4007 12.6213 33.4896 12.4515 33.5243 12.2671C33.5591 12.0827 33.5383 11.8921 33.4644 11.7197C33.3905 11.5472 33.2669 11.4006 33.1094 11.2987C32.9519 11.1967 32.7676 11.1439 32.58 11.147H32.578ZM19.742 11.234C19.7269 11.2341 19.7121 11.2372 19.6982 11.2432C19.6844 11.2491 19.6718 11.2577 19.6613 11.2684C19.6508 11.2792 19.6426 11.292 19.637 11.306C19.6315 11.32 19.6287 11.3349 19.629 11.35C19.629 11.412 19.679 11.464 19.742 11.463C19.803 11.463 19.852 11.411 19.853 11.35C19.8535 11.3201 19.8423 11.2912 19.8217 11.2695C19.8012 11.2478 19.7729 11.235 19.743 11.234H19.742ZM28.262 11.234C28.2469 11.234 28.2319 11.237 28.2179 11.2429C28.2039 11.2487 28.1913 11.2573 28.1807 11.2681C28.1701 11.2789 28.1617 11.2917 28.1561 11.3058C28.1505 11.3198 28.1477 11.3349 28.148 11.35C28.148 11.412 28.199 11.464 28.262 11.463C28.322 11.463 28.372 11.411 28.372 11.35C28.3725 11.3201 28.3613 11.2912 28.3407 11.2695C28.3202 11.2478 28.2919 11.235 28.262 11.234ZM19.732 11.797C19.7032 11.7993 19.6763 11.8124 19.6568 11.8338C19.6373 11.8551 19.6267 11.8831 19.627 11.912C19.627 11.974 19.677 12.028 19.74 12.027C19.7697 12.0257 19.7978 12.0131 19.8185 11.9917C19.8391 11.9703 19.8508 11.9417 19.851 11.912C19.8512 11.8965 19.8481 11.8812 19.8422 11.8669C19.8362 11.8526 19.8274 11.8397 19.8162 11.8289C19.8051 11.8182 19.7919 11.8098 19.7774 11.8043C19.7629 11.7988 19.7475 11.7963 19.732 11.797ZM28.252 11.797C28.223 11.799 28.1959 11.8121 28.1762 11.8335C28.1565 11.8548 28.1457 11.8829 28.146 11.912C28.146 11.974 28.197 12.028 28.26 12.027C28.32 12.027 28.37 11.973 28.371 11.912C28.3712 11.8964 28.3681 11.881 28.3621 11.8666C28.356 11.8523 28.3471 11.8393 28.3359 11.8285C28.3246 11.8178 28.3113 11.8094 28.2967 11.804C28.2821 11.7986 28.2666 11.7962 28.251 11.797H28.252ZM19.732 12.359C19.703 12.3613 19.676 12.3746 19.6565 12.3961C19.6369 12.4177 19.6264 12.4459 19.627 12.475C19.627 12.537 19.677 12.591 19.74 12.59C19.7697 12.5887 19.7978 12.5761 19.8185 12.5547C19.8391 12.5333 19.8508 12.5047 19.851 12.475C19.8513 12.4594 19.8484 12.444 19.8425 12.4296C19.8366 12.4152 19.8277 12.4021 19.8166 12.3913C19.8054 12.3804 19.7922 12.3719 19.7776 12.3664C19.7631 12.3608 19.7476 12.3583 19.732 12.359ZM28.252 12.359C28.2228 12.361 28.1956 12.3742 28.1758 12.3958C28.1561 12.4174 28.1454 12.4458 28.146 12.475C28.146 12.537 28.197 12.591 28.26 12.59C28.32 12.59 28.37 12.536 28.371 12.475C28.3713 12.4593 28.3684 12.4438 28.3624 12.4293C28.3564 12.4148 28.3475 12.4018 28.3363 12.3909C28.325 12.38 28.3116 12.3715 28.2969 12.3661C28.2823 12.3606 28.2666 12.3582 28.251 12.359H28.252ZM19.732 12.922C19.7035 12.9243 19.6769 12.9371 19.6575 12.958C19.638 12.979 19.6272 13.0064 19.627 13.035C19.6249 13.051 19.6262 13.0672 19.6308 13.0826C19.6355 13.098 19.6434 13.1123 19.654 13.1244C19.6646 13.1365 19.6776 13.1462 19.6923 13.1529C19.707 13.1596 19.7229 13.163 19.739 13.163C19.7551 13.163 19.771 13.1596 19.7857 13.1529C19.8004 13.1462 19.8134 13.1365 19.824 13.1244C19.8346 13.1123 19.8425 13.098 19.8472 13.0826C19.8518 13.0672 19.8531 13.051 19.851 13.035C19.8509 13.0197 19.8477 13.0045 19.8416 12.9905C19.8355 12.9764 19.8266 12.9638 19.8155 12.9532C19.8044 12.9427 19.7913 12.9345 19.7769 12.9291C19.7626 12.9237 19.7473 12.9213 19.732 12.922ZM28.252 12.922C28.2233 12.924 28.1965 12.9368 28.1769 12.9577C28.1572 12.9787 28.1462 13.0063 28.146 13.035C28.1445 13.0507 28.1463 13.0665 28.1513 13.0814C28.1563 13.0963 28.1643 13.11 28.1749 13.1217C28.1855 13.1333 28.1984 13.1426 28.2128 13.149C28.2272 13.1553 28.2428 13.1586 28.2585 13.1586C28.2742 13.1586 28.2898 13.1553 28.3042 13.149C28.3186 13.1426 28.3315 13.1333 28.3421 13.1217C28.3527 13.11 28.3607 13.0963 28.3657 13.0814C28.3707 13.0665 28.3725 13.0507 28.371 13.035C28.3709 13.0196 28.3677 13.0044 28.3615 12.9903C28.3553 12.9761 28.3464 12.9634 28.3352 12.9528C28.3239 12.9423 28.3107 12.9341 28.2962 12.9288C28.2818 12.9235 28.2664 12.9212 28.251 12.922H28.252ZM19.732 13.484C19.7034 13.4863 19.6766 13.4993 19.6571 13.5204C19.6377 13.5415 19.6269 13.5693 19.627 13.598C19.6249 13.614 19.6262 13.6302 19.6308 13.6456C19.6355 13.661 19.6434 13.6753 19.654 13.6874C19.6646 13.6995 19.6776 13.7092 19.6923 13.7159C19.707 13.7226 19.7229 13.726 19.739 13.726C19.7551 13.726 19.771 13.7226 19.7857 13.7159C19.8004 13.7092 19.8134 13.6995 19.824 13.6874C19.8346 13.6753 19.8425 13.661 19.8472 13.6456C19.8518 13.6302 19.8531 13.614 19.851 13.598C19.851 13.5826 19.8479 13.5674 19.8419 13.5532C19.8358 13.539 19.827 13.5262 19.8159 13.5156C19.8047 13.5049 19.7916 13.4966 19.7772 13.4912C19.7628 13.4858 19.7474 13.4833 19.732 13.484ZM28.252 13.484C28.2232 13.486 28.1962 13.4989 28.1765 13.5201C28.1568 13.5413 28.1459 13.5691 28.146 13.598C28.1445 13.6137 28.1463 13.6295 28.1513 13.6444C28.1563 13.6593 28.1643 13.673 28.1749 13.6847C28.1855 13.6963 28.1984 13.7056 28.2128 13.712C28.2272 13.7183 28.2428 13.7216 28.2585 13.7216C28.2742 13.7216 28.2898 13.7183 28.3042 13.712C28.3186 13.7056 28.3315 13.6963 28.3421 13.6847C28.3527 13.673 28.3607 13.6593 28.3657 13.6444C28.3707 13.6295 28.3725 13.6137 28.371 13.598C28.371 13.5825 28.3679 13.5672 28.3618 13.5529C28.3557 13.5387 28.3467 13.5259 28.3355 13.5152C28.3243 13.5045 28.311 13.4963 28.2965 13.4909C28.2819 13.4855 28.2665 13.4832 28.251 13.484H28.252ZM19.732 14.047C19.7035 14.0493 19.6769 14.0621 19.6575 14.083C19.638 14.104 19.6272 14.1314 19.627 14.16C19.6249 14.176 19.6262 14.1922 19.6308 14.2076C19.6355 14.223 19.6434 14.2373 19.654 14.2494C19.6646 14.2615 19.6776 14.2712 19.6923 14.2779C19.707 14.2846 19.7229 14.288 19.739 14.288C19.7551 14.288 19.771 14.2846 19.7857 14.2779C19.8004 14.2712 19.8134 14.2615 19.824 14.2494C19.8346 14.2373 19.8425 14.223 19.8472 14.2076C19.8518 14.1922 19.8531 14.176 19.851 14.16C19.8509 14.1447 19.8477 14.1295 19.8416 14.1155C19.8355 14.1014 19.8266 14.0888 19.8155 14.0782C19.8044 14.0677 19.7913 14.0595 19.7769 14.0541C19.7626 14.0487 19.7473 14.0463 19.732 14.047ZM28.252 14.047C28.2233 14.049 28.1965 14.0618 28.1769 14.0827C28.1572 14.1037 28.1462 14.1313 28.146 14.16C28.1445 14.1757 28.1463 14.1915 28.1513 14.2064C28.1563 14.2213 28.1643 14.235 28.1749 14.2467C28.1855 14.2583 28.1984 14.2676 28.2128 14.274C28.2272 14.2803 28.2428 14.2836 28.2585 14.2836C28.2742 14.2836 28.2898 14.2803 28.3042 14.274C28.3186 14.2676 28.3315 14.2583 28.3421 14.2467C28.3527 14.235 28.3607 14.2213 28.3657 14.2064C28.3707 14.1915 28.3725 14.1757 28.371 14.16C28.3709 14.1446 28.3677 14.1294 28.3615 14.1153C28.3553 14.1011 28.3464 14.0884 28.3352 14.0778C28.3239 14.0673 28.3107 14.0591 28.2962 14.0538C28.2818 14.0485 28.2664 14.0462 28.251 14.047H28.252ZM19.721 14.609C19.6944 14.6131 19.6702 14.6267 19.653 14.6473C19.6357 14.6679 19.6264 14.6941 19.627 14.721C19.627 14.7431 19.6335 14.7647 19.6458 14.7831C19.6581 14.8015 19.6755 14.8159 19.6959 14.8244C19.7163 14.8329 19.7388 14.8352 19.7605 14.8309C19.7822 14.8267 19.8021 14.8161 19.8178 14.8005C19.8335 14.785 19.8443 14.7651 19.8487 14.7435C19.8532 14.7218 19.8511 14.6993 19.8428 14.6788C19.8344 14.6583 19.8202 14.6408 19.802 14.6284C19.7837 14.6159 19.7621 14.6092 19.74 14.609H19.721ZM28.241 14.609C28.2142 14.6129 28.1898 14.6264 28.1723 14.647C28.1548 14.6677 28.1455 14.694 28.146 14.721C28.146 14.7431 28.1525 14.7646 28.1647 14.783C28.177 14.8014 28.1943 14.8157 28.2147 14.8243C28.235 14.8328 28.2575 14.8351 28.2791 14.831C28.3008 14.8268 28.3208 14.8163 28.3365 14.8009C28.3522 14.7854 28.3631 14.7656 28.3676 14.7441C28.3721 14.7225 28.3702 14.7 28.362 14.6795C28.3539 14.659 28.3398 14.6414 28.3217 14.6288C28.3035 14.6163 28.2821 14.6094 28.26 14.609H28.24H28.241ZM19.721 15.172C19.6999 15.1754 19.6803 15.1848 19.6643 15.1991C19.6484 15.2133 19.6369 15.2318 19.6311 15.2524C19.6254 15.273 19.6256 15.2947 19.6319 15.3152C19.6381 15.3356 19.65 15.3538 19.6663 15.3677C19.6825 15.3816 19.7024 15.3905 19.7236 15.3935C19.7447 15.3964 19.7663 15.3933 19.7857 15.3843C19.8051 15.3754 19.8216 15.3612 19.8331 15.3432C19.8447 15.3253 19.8509 15.3044 19.851 15.283C19.851 15.222 19.801 15.173 19.741 15.172H19.72H19.721ZM28.241 15.172C28.2199 15.1754 28.2003 15.1848 28.1843 15.1991C28.1684 15.2133 28.1569 15.2318 28.1511 15.2524C28.1454 15.273 28.1456 15.2947 28.1519 15.3152C28.1581 15.3356 28.17 15.3538 28.1863 15.3677C28.2025 15.3816 28.2224 15.3905 28.2436 15.3935C28.2647 15.3964 28.2863 15.3933 28.3057 15.3843C28.3251 15.3754 28.3416 15.3612 28.3531 15.3432C28.3647 15.3253 28.3709 15.3044 28.371 15.283C28.371 15.222 28.321 15.173 28.26 15.172H28.24H28.241ZM19.742 15.732C19.7269 15.7321 19.7121 15.7352 19.6982 15.7412C19.6844 15.7471 19.6718 15.7557 19.6613 15.7664C19.6508 15.7772 19.6426 15.79 19.637 15.804C19.6315 15.818 19.6287 15.8329 19.629 15.848C19.629 15.91 19.679 15.96 19.742 15.959C19.803 15.959 19.852 15.909 19.853 15.848C19.8535 15.8181 19.8423 15.7892 19.8217 15.7675C19.8012 15.7458 19.7729 15.733 19.743 15.732H19.742ZM28.262 15.732C28.2469 15.732 28.2319 15.735 28.2179 15.7409C28.2039 15.7467 28.1913 15.7553 28.1807 15.7661C28.1701 15.7769 28.1617 15.7897 28.1561 15.8038C28.1505 15.8178 28.1477 15.8329 28.148 15.848C28.1465 15.8637 28.1483 15.8795 28.1533 15.8944C28.1583 15.9093 28.1663 15.923 28.1769 15.9347C28.1875 15.9463 28.2004 15.9556 28.2148 15.962C28.2292 15.9683 28.2448 15.9716 28.2605 15.9716C28.2762 15.9716 28.2918 15.9683 28.3062 15.962C28.3206 15.9556 28.3335 15.9463 28.3441 15.9347C28.3547 15.923 28.3627 15.9093 28.3677 15.8944C28.3727 15.8795 28.3745 15.8637 28.373 15.848C28.3735 15.8179 28.3622 15.7889 28.3414 15.7671C28.3206 15.7454 28.2921 15.7328 28.262 15.732ZM19.732 16.295C19.7032 16.2973 19.6763 16.3104 19.6568 16.3318C19.6373 16.3531 19.6267 16.3811 19.627 16.41C19.627 16.472 19.677 16.52 19.74 16.52C19.7545 16.5201 19.7689 16.5174 19.7824 16.5119C19.7959 16.5064 19.8081 16.4984 19.8184 16.4881C19.8288 16.4779 19.8369 16.4657 19.8425 16.4523C19.8481 16.4389 19.851 16.4245 19.851 16.41C19.8513 16.3803 19.8399 16.3516 19.8194 16.3301C19.7988 16.3086 19.7707 16.296 19.741 16.295H19.732ZM28.252 16.295C28.223 16.297 28.1959 16.3101 28.1762 16.3315C28.1565 16.3528 28.1457 16.3809 28.146 16.41C28.146 16.472 28.197 16.52 28.26 16.52C28.2745 16.5201 28.2889 16.5174 28.3024 16.5119C28.3159 16.5064 28.3281 16.4984 28.3384 16.4881C28.3488 16.4779 28.3569 16.4657 28.3625 16.4523C28.3681 16.4389 28.371 16.4245 28.371 16.41C28.3713 16.3801 28.3598 16.3513 28.339 16.3298C28.3183 16.3083 28.2899 16.2958 28.26 16.295H28.252ZM17.205 16.405V16.406C17.0804 16.4081 16.9574 16.4348 16.8431 16.4845C16.7288 16.5343 16.6254 16.6062 16.539 16.696L14.73 18.553C14.6388 18.6411 14.5663 18.7467 14.5167 18.8634C14.4671 18.9801 14.4414 19.1056 14.4412 19.2324C14.441 19.3592 14.4663 19.4848 14.5155 19.6016C14.5648 19.7185 14.637 19.8243 14.7279 19.9127C14.8188 20.0011 14.9265 20.0704 15.0447 20.1164C15.1629 20.1624 15.2891 20.1842 15.4158 20.1805C15.5426 20.1768 15.6673 20.1476 15.7826 20.0948C15.8979 20.042 16.0014 19.9666 16.087 19.873L17.897 18.013C17.9841 17.924 18.0528 17.8187 18.0991 17.703C18.1453 17.5874 18.1683 17.4638 18.1666 17.3393C18.1649 17.2147 18.1387 17.0918 18.0893 16.9774C18.0399 16.8631 17.9685 16.7596 17.879 16.673C17.7899 16.586 17.6845 16.5174 17.5689 16.4712C17.4532 16.4251 17.3295 16.4022 17.205 16.404V16.405ZM24.893 16.405V16.406C24.7682 16.4079 24.645 16.4346 24.5305 16.4843C24.416 16.5341 24.3125 16.606 24.226 16.696L22.418 18.553C22.3268 18.6411 22.2543 18.7467 22.2047 18.8634C22.1551 18.9801 22.1294 19.1056 22.1292 19.2324C22.129 19.3592 22.1543 19.4848 22.2035 19.6016C22.2528 19.7185 22.325 19.8243 22.4159 19.9127C22.5068 20.0011 22.6145 20.0704 22.7327 20.1164C22.8509 20.1624 22.9771 20.1842 23.1038 20.1805C23.2306 20.1768 23.3553 20.1476 23.4706 20.0948C23.5859 20.042 23.6894 19.9666 23.775 19.873L25.584 18.013C25.6711 17.924 25.7398 17.8187 25.7861 17.703C25.8323 17.5874 25.8553 17.4638 25.8536 17.3393C25.8519 17.2147 25.8257 17.0918 25.7763 16.9774C25.7269 16.8631 25.6555 16.7596 25.566 16.673C25.4769 16.586 25.3715 16.5174 25.2559 16.4712C25.1402 16.4251 25.0165 16.4022 24.892 16.404L24.893 16.405ZM32.58 16.405V16.406C32.4554 16.4081 32.3324 16.4348 32.2181 16.4845C32.1038 16.5343 32.0004 16.6062 31.914 16.696L30.105 18.553C30.0138 18.6411 29.9413 18.7467 29.8917 18.8634C29.8421 18.9801 29.8164 19.1056 29.8162 19.2324C29.816 19.3592 29.8413 19.4848 29.8905 19.6016C29.9398 19.7185 30.012 19.8243 30.1029 19.9127C30.1938 20.0011 30.3015 20.0704 30.4197 20.1164C30.5379 20.1624 30.6641 20.1842 30.7908 20.1805C30.9176 20.1768 31.0423 20.1476 31.1576 20.0948C31.2729 20.042 31.3764 19.9666 31.462 19.873L33.272 18.013C33.3591 17.924 33.4278 17.8187 33.4741 17.703C33.5203 17.5874 33.5433 17.4638 33.5416 17.3393C33.5399 17.2147 33.5137 17.0918 33.4643 16.9774C33.4149 16.8631 33.3435 16.7596 33.254 16.673C33.1649 16.586 33.0595 16.5174 32.9439 16.4712C32.8282 16.4251 32.7045 16.4022 32.58 16.404V16.405ZM19.732 16.857C19.7032 16.8588 19.6762 16.8717 19.6566 16.8929C19.637 16.9141 19.6264 16.9421 19.627 16.971C19.627 17.033 19.677 17.083 19.74 17.082C19.7698 17.082 19.7985 17.0701 19.8195 17.049C19.8406 17.028 19.8525 16.9993 19.8525 16.9695C19.8525 16.9397 19.8406 16.911 19.8195 16.8899C19.7985 16.8689 19.7698 16.857 19.74 16.857H19.732ZM28.252 16.857C28.223 16.8586 28.1957 16.8713 28.176 16.8926C28.1562 16.9138 28.1454 16.942 28.146 16.971C28.146 17.033 28.197 17.083 28.26 17.082C28.2898 17.082 28.3185 17.0701 28.3396 17.049C28.3606 17.028 28.3725 16.9993 28.3725 16.9695C28.3725 16.9397 28.3606 16.911 28.3396 16.8899C28.3185 16.8689 28.2898 16.857 28.26 16.857H28.252ZM19.732 17.42C19.7037 17.4218 19.6771 17.4342 19.6576 17.4548C19.6381 17.4754 19.6272 17.5026 19.627 17.531C19.627 17.594 19.677 17.649 19.74 17.648C19.7701 17.6467 19.7984 17.6338 19.8192 17.6119C19.8399 17.5901 19.8513 17.5611 19.851 17.531C19.851 17.471 19.801 17.42 19.741 17.42H19.732ZM28.252 17.42C28.2235 17.4215 28.1967 17.4339 28.177 17.4545C28.1573 17.4751 28.1462 17.5025 28.146 17.531C28.146 17.594 28.196 17.649 28.26 17.648C28.2901 17.6467 28.3184 17.6338 28.3392 17.6119C28.3599 17.5901 28.3713 17.5611 28.371 17.531C28.371 17.471 28.321 17.42 28.26 17.42H28.252ZM19.732 17.982C19.7036 17.984 19.677 17.9967 19.6576 18.0174C19.6381 18.0382 19.6272 18.0655 19.627 18.094C19.627 18.157 19.677 18.209 19.74 18.209C19.7699 18.2082 19.7983 18.1957 19.819 18.1742C19.8398 18.1527 19.8513 18.1239 19.851 18.094C19.851 18.0787 19.8479 18.0635 19.8419 18.0495C19.8358 18.0354 19.8269 18.0227 19.8158 18.0122C19.8046 18.0017 19.7914 17.9936 19.777 17.9884C19.7626 17.9832 19.7473 17.981 19.732 17.982ZM28.252 17.982C28.2234 17.9838 28.1966 17.9963 28.1769 18.0171C28.1573 18.0379 28.1462 18.0654 28.146 18.094C28.146 18.157 28.196 18.209 28.26 18.209C28.2899 18.2082 28.3183 18.1957 28.339 18.1742C28.3598 18.1527 28.3713 18.1239 28.371 18.094C28.371 18.0786 28.3679 18.0633 28.3618 18.0492C28.3557 18.0351 28.3467 18.0223 28.3354 18.0118C28.3242 18.0013 28.3108 17.9932 28.2963 17.9881C28.2818 17.983 28.2664 17.9809 28.251 17.982H28.252ZM19.732 18.545C19.7027 18.546 19.6749 18.5586 19.6547 18.5799C19.6345 18.6012 19.6235 18.6296 19.624 18.6589C19.6245 18.6883 19.6366 18.7163 19.6575 18.7368C19.6785 18.7574 19.7066 18.7689 19.736 18.7689C19.7654 18.7689 19.7935 18.7574 19.8145 18.7368C19.8354 18.7163 19.8475 18.6883 19.848 18.6589C19.8485 18.6296 19.8375 18.6012 19.8173 18.5799C19.7971 18.5586 19.7693 18.546 19.74 18.545C19.7373 18.5449 19.7347 18.5449 19.732 18.545ZM28.252 18.545C28.2227 18.546 28.1949 18.5586 28.1747 18.5799C28.1545 18.6012 28.1435 18.6296 28.144 18.6589C28.1445 18.6883 28.1566 18.7163 28.1775 18.7368C28.1985 18.7574 28.2266 18.7689 28.256 18.7689C28.2854 18.7689 28.3135 18.7574 28.3345 18.7368C28.3554 18.7163 28.3675 18.6883 28.368 18.6589C28.3685 18.6296 28.3575 18.6012 28.3373 18.5799C28.3171 18.5586 28.2893 18.546 28.26 18.545H28.252ZM19.721 19.107C19.6944 19.1111 19.6702 19.1247 19.653 19.1453C19.6357 19.1659 19.6264 19.1921 19.627 19.219C19.627 19.2411 19.6335 19.2627 19.6458 19.2811C19.6581 19.2995 19.6755 19.3139 19.6959 19.3224C19.7163 19.3309 19.7388 19.3332 19.7605 19.3289C19.7822 19.3247 19.8021 19.3141 19.8178 19.2985C19.8335 19.283 19.8443 19.2631 19.8487 19.2415C19.8532 19.2198 19.8511 19.1973 19.8428 19.1768C19.8344 19.1563 19.8202 19.1388 19.802 19.1264C19.7837 19.1139 19.7621 19.1072 19.74 19.107H19.722H19.721ZM28.241 19.107C28.2142 19.1109 28.1898 19.1244 28.1723 19.145C28.1548 19.1657 28.1455 19.192 28.146 19.219C28.146 19.2411 28.1525 19.2626 28.1647 19.281C28.177 19.2994 28.1943 19.3137 28.2147 19.3223C28.235 19.3308 28.2575 19.3331 28.2791 19.329C28.3008 19.3248 28.3208 19.3143 28.3365 19.2989C28.3522 19.2834 28.3631 19.2636 28.3676 19.2421C28.3721 19.2205 28.3702 19.198 28.362 19.1775C28.3539 19.157 28.3398 19.1394 28.3217 19.1268C28.3035 19.1143 28.2821 19.1074 28.26 19.107H28.24H28.241ZM19.742 19.668C19.712 19.668 19.6833 19.6799 19.6621 19.7011C19.6409 19.7223 19.629 19.751 19.629 19.781C19.629 19.843 19.679 19.895 19.742 19.895C19.803 19.895 19.852 19.843 19.853 19.781C19.8533 19.7515 19.8419 19.723 19.8213 19.7019C19.8007 19.6807 19.7725 19.6685 19.743 19.668H19.742ZM28.262 19.668C28.2471 19.6679 28.2323 19.6707 28.2185 19.6763C28.2046 19.6819 28.192 19.6902 28.1814 19.7007C28.1709 19.7112 28.1624 19.7237 28.1567 19.7375C28.151 19.7513 28.148 19.7661 28.148 19.781C28.148 19.843 28.199 19.895 28.262 19.895C28.322 19.895 28.372 19.843 28.372 19.781C28.3723 19.7515 28.3609 19.723 28.3403 19.7019C28.3197 19.6807 28.2915 19.6685 28.262 19.668ZM19.732 20.231C19.7023 20.2329 19.6745 20.2464 19.6549 20.2688C19.6352 20.2911 19.6251 20.3203 19.627 20.35C19.6289 20.3797 19.6424 20.4075 19.6648 20.4271C19.6871 20.4468 19.7163 20.4569 19.746 20.455C19.7607 20.4541 19.7751 20.4503 19.7883 20.4438C19.8016 20.4373 19.8134 20.4283 19.8231 20.4172C19.8329 20.4062 19.8404 20.3933 19.8452 20.3794C19.8499 20.3655 19.8519 20.3507 19.851 20.336C19.8501 20.3213 19.8463 20.3069 19.8398 20.2937C19.8333 20.2804 19.8243 20.2686 19.8132 20.2589C19.8022 20.2491 19.7893 20.2416 19.7754 20.2368C19.7615 20.2321 19.7467 20.2301 19.732 20.231ZM28.252 20.231C28.2232 20.2325 28.1961 20.2452 28.1763 20.2662C28.1566 20.2873 28.1457 20.3151 28.146 20.344C28.146 20.406 28.197 20.456 28.26 20.455C28.2897 20.4539 28.3178 20.4411 28.338 20.4194C28.3583 20.3976 28.3691 20.3687 28.368 20.339C28.3669 20.3093 28.3541 20.2812 28.3324 20.261C28.3106 20.2407 28.2817 20.2299 28.252 20.231ZM19.732 20.793C19.7173 20.7939 19.7029 20.7977 19.6897 20.8042C19.6764 20.8107 19.6646 20.8197 19.6549 20.8308C19.6451 20.8418 19.6376 20.8547 19.6328 20.8686C19.6281 20.8825 19.6261 20.8973 19.627 20.912C19.6279 20.9267 19.6317 20.9411 19.6382 20.9543C19.6447 20.9676 19.6537 20.9794 19.6648 20.9891C19.6758 20.9989 19.6887 21.0064 19.7026 21.0112C19.7165 21.0159 19.7313 21.0179 19.746 21.017C19.7757 21.0151 19.8035 21.0016 19.8231 20.9792C19.8428 20.9569 19.8529 20.9277 19.851 20.898C19.8491 20.8683 19.8356 20.8405 19.8132 20.8209C19.7909 20.8012 19.7617 20.7911 19.732 20.793ZM28.252 20.793C28.2227 20.794 28.1949 20.8066 28.1747 20.8279C28.1545 20.8492 28.1435 20.8776 28.144 20.9069C28.1445 20.9363 28.1566 20.9643 28.1775 20.9848C28.1985 21.0054 28.2266 21.0169 28.256 21.0169C28.2854 21.0169 28.3135 21.0054 28.3345 20.9848C28.3554 20.9643 28.3675 20.9363 28.368 20.9069C28.3685 20.8776 28.3575 20.8492 28.3373 20.8279C28.3171 20.8066 28.2893 20.794 28.26 20.793H28.252ZM19.732 21.356C19.7023 21.3579 19.6745 21.3714 19.6549 21.3938C19.6352 21.4161 19.6251 21.4453 19.627 21.475C19.6289 21.5047 19.6424 21.5325 19.6648 21.5521C19.6871 21.5718 19.7163 21.5819 19.746 21.58C19.7607 21.5791 19.7751 21.5753 19.7883 21.5688C19.8016 21.5623 19.8134 21.5533 19.8231 21.5422C19.8329 21.5312 19.8404 21.5183 19.8452 21.5044C19.8499 21.4905 19.8519 21.4757 19.851 21.461C19.8501 21.4463 19.8463 21.4319 19.8398 21.4187C19.8333 21.4054 19.8243 21.3936 19.8132 21.3839C19.8022 21.3741 19.7893 21.3666 19.7754 21.3618C19.7615 21.3571 19.7467 21.3551 19.732 21.356ZM28.252 21.356C28.2232 21.3575 28.1961 21.3702 28.1763 21.3912C28.1566 21.4123 28.1457 21.4401 28.146 21.469C28.146 21.53 28.197 21.581 28.26 21.58C28.32 21.58 28.37 21.53 28.371 21.469C28.3713 21.4534 28.3684 21.438 28.3624 21.4236C28.3564 21.4092 28.3475 21.3962 28.3362 21.3855C28.3249 21.3748 28.3115 21.3665 28.2968 21.3613C28.2821 21.356 28.2665 21.3539 28.251 21.355L28.252 21.356ZM17.205 21.664C17.0803 21.6663 16.9573 21.6932 16.843 21.7431C16.7287 21.7931 16.6254 21.8651 16.539 21.955L14.73 23.813C14.6429 23.902 14.5742 24.0073 14.5279 24.123C14.4817 24.2386 14.4587 24.3622 14.4604 24.4867C14.4621 24.6113 14.4883 24.7342 14.5377 24.8486C14.5871 24.9629 14.6585 25.0664 14.748 25.153C14.9285 25.3277 15.1709 25.4237 15.4221 25.42C15.6733 25.4162 15.9128 25.313 16.088 25.133L17.896 23.273C17.9832 23.1841 18.0519 23.0788 18.0983 22.9632C18.1446 22.8476 18.1677 22.724 18.1661 22.5995C18.1645 22.4749 18.1383 22.352 18.0891 22.2376C18.0398 22.1232 17.9684 22.0197 17.879 21.933C17.7899 21.846 17.6845 21.7774 17.5689 21.7312C17.4532 21.6851 17.3295 21.6622 17.205 21.664ZM24.893 21.664C24.7681 21.6662 24.6449 21.693 24.5305 21.743C24.416 21.7929 24.3125 21.865 24.226 21.955L22.418 23.813C22.3308 23.9019 22.2621 24.0072 22.2157 24.1228C22.1694 24.2384 22.1463 24.362 22.1479 24.4865C22.1495 24.6111 22.1757 24.734 22.2249 24.8484C22.2742 24.9628 22.3456 25.0663 22.435 25.153C22.6155 25.3277 22.8579 25.4237 23.1091 25.42C23.3603 25.4162 23.5998 25.313 23.775 25.133L25.584 23.273C25.6711 23.184 25.7398 23.0787 25.7861 22.963C25.8323 22.8474 25.8553 22.7238 25.8536 22.5993C25.8519 22.4747 25.8257 22.3518 25.7763 22.2374C25.7269 22.1231 25.6555 22.0196 25.566 21.933C25.4769 21.846 25.3715 21.7774 25.2559 21.7312C25.1402 21.6851 25.0165 21.6622 24.892 21.664H24.893ZM32.58 21.664C32.4553 21.6663 32.3323 21.6932 32.218 21.7431C32.1037 21.7931 32.0004 21.8651 31.914 21.955L30.105 23.813C30.0179 23.902 29.9492 24.0073 29.9029 24.123C29.8567 24.2386 29.8337 24.3622 29.8354 24.4867C29.8371 24.6113 29.8633 24.7342 29.9127 24.8486C29.9621 24.9629 30.0335 25.0664 30.123 25.153C30.3035 25.3277 30.5459 25.4237 30.7971 25.42C31.0483 25.4162 31.2878 25.313 31.463 25.133L33.271 23.273C33.3582 23.1841 33.4269 23.0788 33.4733 22.9632C33.5196 22.8476 33.5427 22.724 33.5411 22.5995C33.5395 22.4749 33.5133 22.352 33.4641 22.2376C33.4148 22.1232 33.3434 22.0197 33.254 21.933C33.1649 21.846 33.0595 21.7774 32.9439 21.7312C32.8282 21.6851 32.7045 21.6622 32.58 21.664ZM19.732 21.918C19.7039 21.9215 19.6782 21.9353 19.6599 21.9568C19.6415 21.9783 19.6319 22.0059 19.6329 22.0342C19.6339 22.0624 19.6455 22.0893 19.6653 22.1094C19.6851 22.1296 19.7118 22.1415 19.74 22.143C19.7698 22.1419 19.798 22.1291 19.8184 22.1072C19.8387 22.0854 19.8496 22.0563 19.8485 22.0265C19.8474 21.9967 19.8346 21.9685 19.8127 21.9481C19.7909 21.9278 19.7618 21.9169 19.732 21.918ZM28.252 21.918C28.2365 21.9179 28.2211 21.9209 28.2068 21.927C28.1926 21.9331 28.1797 21.942 28.169 21.9533C28.1583 21.9645 28.1501 21.9779 28.1448 21.9924C28.1395 22.007 28.1373 22.0225 28.1383 22.038C28.1392 22.0535 28.1434 22.0686 28.1504 22.0824C28.1575 22.0962 28.1673 22.1084 28.1793 22.1183C28.1913 22.1281 28.2052 22.1354 28.2201 22.1397C28.235 22.1439 28.2506 22.1451 28.266 22.143C28.2943 22.1392 28.3202 22.1248 28.3383 22.1027C28.3565 22.0807 28.3656 22.0525 28.3638 22.024C28.362 21.9954 28.3495 21.9686 28.3288 21.949C28.308 21.9293 28.2806 21.9182 28.252 21.918ZM19.732 22.481C19.7027 22.482 19.6749 22.4946 19.6547 22.5159C19.6345 22.5372 19.6235 22.5656 19.624 22.5949C19.6245 22.6243 19.6366 22.6523 19.6575 22.6728C19.6785 22.6934 19.7066 22.7049 19.736 22.7049C19.7654 22.7049 19.7935 22.6934 19.8145 22.6728C19.8354 22.6523 19.8475 22.6243 19.848 22.5949C19.8485 22.5656 19.8375 22.5372 19.8173 22.5159C19.7971 22.4946 19.7693 22.482 19.74 22.481C19.7373 22.4809 19.7347 22.4809 19.732 22.481ZM28.252 22.481C28.2227 22.482 28.1949 22.4946 28.1747 22.5159C28.1545 22.5372 28.1435 22.5656 28.144 22.5949C28.1445 22.6243 28.1566 22.6523 28.1775 22.6728C28.1985 22.6934 28.2266 22.7049 28.256 22.7049C28.2854 22.7049 28.3135 22.6934 28.3345 22.6728C28.3554 22.6523 28.3675 22.6243 28.368 22.5949C28.3685 22.5656 28.3575 22.5372 28.3373 22.5159C28.3171 22.4946 28.2893 22.482 28.26 22.481H28.252ZM19.732 23.043C19.7173 23.0439 19.7029 23.0477 19.6897 23.0542C19.6764 23.0607 19.6646 23.0697 19.6549 23.0808C19.6451 23.0918 19.6376 23.1047 19.6328 23.1186C19.6281 23.1325 19.6261 23.1473 19.627 23.162C19.6279 23.1767 19.6317 23.1911 19.6382 23.2043C19.6447 23.2176 19.6537 23.2294 19.6648 23.2391C19.6758 23.2489 19.6887 23.2564 19.7026 23.2612C19.7165 23.2659 19.7313 23.2679 19.746 23.267C19.7757 23.2651 19.8035 23.2516 19.8231 23.2292C19.8428 23.2069 19.8529 23.1777 19.851 23.148C19.8491 23.1183 19.8356 23.0905 19.8132 23.0709C19.7909 23.0512 19.7617 23.0411 19.732 23.043ZM28.252 23.043C28.2373 23.0439 28.2229 23.0476 28.2096 23.054C28.1964 23.0604 28.1845 23.0694 28.1747 23.0804C28.1649 23.0914 28.1574 23.1042 28.1525 23.1181C28.1477 23.1321 28.1456 23.1468 28.1465 23.1615C28.1474 23.1762 28.1511 23.1906 28.1575 23.2039C28.1639 23.2171 28.1729 23.229 28.1839 23.2388C28.1949 23.2486 28.2077 23.2561 28.2216 23.261C28.2356 23.2658 28.2503 23.2679 28.265 23.267C28.2947 23.2653 28.3225 23.2518 28.3423 23.2296C28.3621 23.2074 28.3722 23.1782 28.3705 23.1485C28.3688 23.1188 28.3553 23.091 28.3331 23.0712C28.3109 23.0514 28.2817 23.0413 28.252 23.043ZM19.721 23.606C19.6948 23.6101 19.6709 23.6234 19.6536 23.6436C19.6364 23.6638 19.6269 23.6895 19.627 23.716C19.6266 23.7382 19.6328 23.76 19.6448 23.7787C19.6569 23.7973 19.6741 23.812 19.6945 23.8208C19.7149 23.8296 19.7374 23.8322 19.7592 23.8281C19.7811 23.8241 19.8012 23.8137 19.8171 23.7982C19.833 23.7828 19.844 23.7629 19.8486 23.7412C19.8532 23.7195 19.8512 23.6969 19.8429 23.6763C19.8347 23.6557 19.8205 23.638 19.8022 23.6255C19.7838 23.613 19.7622 23.6062 19.74 23.606H19.722H19.721ZM28.241 23.606C28.2146 23.6098 28.1904 23.6231 28.173 23.6433C28.1555 23.6635 28.146 23.6893 28.146 23.716C28.1456 23.7381 28.1518 23.7599 28.1638 23.7785C28.1757 23.7972 28.193 23.8118 28.2133 23.8207C28.2336 23.8295 28.2561 23.8321 28.2779 23.8282C28.2997 23.8243 28.3198 23.814 28.3358 23.7986C28.3517 23.7832 28.3627 23.7634 28.3674 23.7418C28.3721 23.7202 28.3703 23.6976 28.3622 23.677C28.3541 23.6564 28.3401 23.6386 28.3219 23.626C28.3037 23.6134 28.2821 23.6064 28.26 23.606H28.24H28.241ZM19.721 24.168C19.6945 24.1719 19.6703 24.1853 19.653 24.2057C19.6357 24.2262 19.6265 24.2522 19.627 24.279C19.627 24.341 19.677 24.392 19.74 24.391C19.801 24.39 19.851 24.341 19.851 24.279C19.851 24.219 19.801 24.169 19.741 24.168H19.72H19.721ZM28.241 24.168C28.2143 24.1717 28.1899 24.185 28.1724 24.2055C28.1549 24.2259 28.1455 24.2521 28.146 24.279C28.1445 24.2947 28.1463 24.3105 28.1513 24.3254C28.1563 24.3403 28.1643 24.354 28.1749 24.3657C28.1855 24.3773 28.1984 24.3866 28.2128 24.393C28.2272 24.3993 28.2428 24.4026 28.2585 24.4026C28.2742 24.4026 28.2898 24.3993 28.3042 24.393C28.3186 24.3866 28.3315 24.3773 28.3421 24.3657C28.3527 24.354 28.3607 24.3403 28.3657 24.3254C28.3707 24.3105 28.3725 24.2947 28.371 24.279C28.371 24.219 28.321 24.169 28.26 24.168H28.24H28.241ZM19.732 24.728C19.7032 24.7298 19.6762 24.7427 19.6566 24.7639C19.637 24.7851 19.6264 24.8131 19.627 24.842C19.627 24.904 19.677 24.954 19.74 24.953C19.7697 24.953 19.7982 24.9412 19.8192 24.9202C19.8402 24.8992 19.852 24.8707 19.852 24.841C19.852 24.8113 19.8402 24.7828 19.8192 24.7618C19.7982 24.7408 19.7697 24.729 19.74 24.729H19.732V24.728ZM28.252 24.728C28.223 24.7295 28.1957 24.7423 28.176 24.7636C28.1562 24.7848 28.1454 24.813 28.146 24.842C28.146 24.904 28.197 24.954 28.26 24.953C28.2897 24.953 28.3182 24.9412 28.3392 24.9202C28.3602 24.8992 28.372 24.8707 28.372 24.841C28.372 24.8113 28.3602 24.7828 28.3392 24.7618C28.3182 24.7408 28.2897 24.729 28.26 24.729H28.252V24.728ZM19.732 25.291C19.7027 25.292 19.6749 25.3046 19.6547 25.3259C19.6345 25.3472 19.6235 25.3756 19.624 25.4049C19.6245 25.4343 19.6366 25.4623 19.6575 25.4828C19.6785 25.5034 19.7066 25.5149 19.736 25.5149C19.7654 25.5149 19.7935 25.5034 19.8145 25.4828C19.8354 25.4623 19.8475 25.4343 19.848 25.4049C19.8485 25.3756 19.8375 25.3472 19.8173 25.3259C19.7971 25.3046 19.7693 25.292 19.74 25.291H19.732ZM28.252 25.291C28.2232 25.2925 28.1961 25.3052 28.1763 25.3262C28.1566 25.3473 28.1457 25.3751 28.146 25.404C28.146 25.466 28.197 25.516 28.26 25.516C28.2757 25.5175 28.2915 25.5157 28.3064 25.5107C28.3213 25.5057 28.335 25.4977 28.3467 25.4871C28.3583 25.4765 28.3676 25.4636 28.374 25.4492C28.3803 25.4348 28.3836 25.4192 28.3836 25.4035C28.3836 25.3878 28.3803 25.3722 28.374 25.3578C28.3676 25.3434 28.3583 25.3305 28.3467 25.3199C28.335 25.3093 28.3213 25.3013 28.3064 25.2963C28.2915 25.2913 28.2757 25.2895 28.26 25.291H28.252ZM19.732 25.854C19.7173 25.8549 19.7029 25.8587 19.6897 25.8652C19.6764 25.8717 19.6646 25.8807 19.6549 25.8918C19.6451 25.9028 19.6376 25.9157 19.6328 25.9296C19.6281 25.9435 19.6261 25.9583 19.627 25.973C19.6279 25.9877 19.6317 26.0021 19.6382 26.0153C19.6447 26.0286 19.6537 26.0404 19.6648 26.0501C19.6758 26.0599 19.6887 26.0674 19.7026 26.0722C19.7165 26.0769 19.7313 26.0789 19.746 26.078C19.7757 26.0761 19.8035 26.0626 19.8231 26.0402C19.8428 26.0179 19.8529 25.9887 19.851 25.959C19.8491 25.9293 19.8356 25.9015 19.8132 25.8819C19.7909 25.8622 19.7617 25.8521 19.732 25.854ZM28.252 25.854C28.2227 25.855 28.1949 25.8676 28.1747 25.8889C28.1545 25.9102 28.1435 25.9386 28.144 25.9679C28.1445 25.9973 28.1566 26.0253 28.1775 26.0458C28.1985 26.0664 28.2266 26.0779 28.256 26.0779C28.2854 26.0779 28.3135 26.0664 28.3345 26.0458C28.3554 26.0253 28.3675 25.9973 28.368 25.9679C28.3685 25.9386 28.3575 25.9102 28.3373 25.8889C28.3171 25.8676 28.2893 25.855 28.26 25.854H28.252ZM19.732 26.416C19.7173 26.4169 19.7029 26.4207 19.6897 26.4272C19.6764 26.4337 19.6646 26.4427 19.6549 26.4538C19.6451 26.4648 19.6376 26.4777 19.6328 26.4916C19.6281 26.5055 19.6261 26.5203 19.627 26.535C19.6279 26.5497 19.6317 26.5641 19.6382 26.5773C19.6447 26.5906 19.6537 26.6024 19.6648 26.6121C19.6758 26.6219 19.6887 26.6294 19.7026 26.6342C19.7165 26.6389 19.7313 26.6409 19.746 26.64C19.7757 26.6381 19.8035 26.6246 19.8231 26.6022C19.8428 26.5799 19.8529 26.5507 19.851 26.521C19.8491 26.4913 19.8356 26.4635 19.8132 26.4439C19.7909 26.4242 19.7617 26.4141 19.732 26.416ZM28.252 26.416C28.2373 26.4169 28.2229 26.4207 28.2097 26.4272C28.1964 26.4337 28.1846 26.4427 28.1749 26.4538C28.1651 26.4648 28.1576 26.4777 28.1528 26.4916C28.1481 26.5055 28.1461 26.5203 28.147 26.535C28.1479 26.5497 28.1517 26.5641 28.1582 26.5773C28.1647 26.5906 28.1737 26.6024 28.1848 26.6121C28.1958 26.6219 28.2087 26.6294 28.2226 26.6342C28.2365 26.6389 28.2513 26.6409 28.266 26.64C28.2957 26.6381 28.3235 26.6246 28.3431 26.6022C28.3628 26.5799 28.3729 26.5507 28.371 26.521C28.3691 26.4913 28.3556 26.4635 28.3332 26.4439C28.3109 26.4242 28.2817 26.4141 28.252 26.416ZM17.203 26.922V26.924C17.0784 26.9259 16.9555 26.9525 16.8412 27.0021C16.7269 27.0517 16.6235 27.1233 16.537 27.213L14.728 29.07C14.6368 29.1581 14.5643 29.2637 14.5147 29.3804C14.4651 29.4971 14.4394 29.6226 14.4392 29.7494C14.439 29.8762 14.4643 30.0018 14.5135 30.1186C14.5628 30.2355 14.635 30.3413 14.7259 30.4297C14.8168 30.5181 14.9245 30.5874 15.0427 30.6334C15.1609 30.6794 15.2871 30.7012 15.4138 30.6975C15.5406 30.6938 15.6653 30.6646 15.7806 30.6118C15.8959 30.559 15.9994 30.4836 16.085 30.39L17.895 28.531C17.9821 28.442 18.0508 28.3367 18.0971 28.221C18.1433 28.1054 18.1663 27.9818 18.1646 27.8573C18.1629 27.7327 18.1367 27.6098 18.0873 27.4954C18.0379 27.3811 17.9665 27.2776 17.877 27.191C17.788 27.1038 17.6826 27.035 17.567 26.9887C17.4513 26.9423 17.3276 26.9193 17.203 26.921V26.922ZM24.891 26.922V26.924C24.7664 26.9259 24.6435 26.9525 24.5292 27.0021C24.4149 27.0517 24.3115 27.1233 24.225 27.213L22.415 29.07C22.3238 29.1581 22.2513 29.2637 22.2017 29.3804C22.1521 29.4971 22.1264 29.6226 22.1262 29.7494C22.126 29.8762 22.1513 30.0018 22.2005 30.1186C22.2498 30.2355 22.322 30.3413 22.4129 30.4297C22.5038 30.5181 22.6115 30.5874 22.7297 30.6334C22.8479 30.6794 22.9741 30.7012 23.1008 30.6975C23.2276 30.6938 23.3523 30.6646 23.4676 30.6118C23.5829 30.559 23.6864 30.4836 23.772 30.39L25.582 28.531C25.6691 28.442 25.7378 28.3367 25.7841 28.221C25.8303 28.1054 25.8533 27.9818 25.8516 27.8573C25.8499 27.7327 25.8237 27.6098 25.7743 27.4954C25.7249 27.3811 25.6535 27.2776 25.564 27.191C25.475 27.1038 25.3696 27.035 25.254 26.9887C25.1383 26.9423 25.0146 26.9193 24.89 26.921L24.891 26.922ZM32.578 26.922V26.924C32.4534 26.9259 32.3305 26.9525 32.2162 27.0021C32.1019 27.0517 31.9985 27.1233 31.912 27.213L30.103 29.07C30.0118 29.1581 29.9393 29.2637 29.8897 29.3804C29.8401 29.4971 29.8144 29.6226 29.8142 29.7494C29.814 29.8762 29.8393 30.0018 29.8885 30.1186C29.9378 30.2355 30.01 30.3413 30.1009 30.4297C30.1918 30.5181 30.2995 30.5874 30.4177 30.6334C30.5359 30.6794 30.6621 30.7012 30.7888 30.6975C30.9156 30.6938 31.0403 30.6646 31.1556 30.6118C31.2709 30.559 31.3744 30.4836 31.46 30.39L33.27 28.531C33.3571 28.442 33.4258 28.3367 33.4721 28.221C33.5183 28.1054 33.5413 27.9818 33.5396 27.8573C33.5379 27.7327 33.5117 27.6098 33.4623 27.4954C33.4129 27.3811 33.3415 27.2776 33.252 27.191C33.163 27.1038 33.0576 27.035 32.942 26.9887C32.8263 26.9423 32.7026 26.9193 32.578 26.921V26.922ZM19.732 26.978C19.7039 26.9815 19.6782 26.9953 19.6599 27.0168C19.6415 27.0383 19.6319 27.0659 19.6329 27.0942C19.6339 27.1224 19.6455 27.1493 19.6653 27.1694C19.6851 27.1896 19.7118 27.2015 19.74 27.203C19.7697 27.203 19.7982 27.1912 19.8192 27.1702C19.8402 27.1492 19.852 27.1207 19.852 27.091C19.852 27.0613 19.8402 27.0328 19.8192 27.0118C19.7982 26.9908 19.7697 26.979 19.74 26.979H19.732V26.978ZM28.252 26.978C28.2224 26.979 28.1944 26.9917 28.174 27.0132C28.1536 27.0347 28.1425 27.0633 28.143 27.0929C28.1435 27.1225 28.1557 27.1508 28.1768 27.1715C28.1979 27.1923 28.2264 27.2039 28.256 27.2039C28.2856 27.2039 28.3141 27.1923 28.3352 27.1715C28.3563 27.1508 28.3685 27.1225 28.369 27.0929C28.3695 27.0633 28.3584 27.0347 28.338 27.0132C28.3176 26.9917 28.2896 26.979 28.26 26.978H28.252ZM19.732 27.541C19.7027 27.542 19.6749 27.5546 19.6547 27.5759C19.6345 27.5972 19.6235 27.6256 19.624 27.6549C19.6245 27.6843 19.6366 27.7123 19.6575 27.7328C19.6785 27.7534 19.7066 27.7649 19.736 27.7649C19.7654 27.7649 19.7935 27.7534 19.8145 27.7328C19.8354 27.7123 19.8475 27.6843 19.848 27.6549C19.8485 27.6256 19.8375 27.5972 19.8173 27.5759C19.7971 27.5546 19.7693 27.542 19.74 27.541H19.732ZM28.252 27.541C28.2227 27.542 28.1949 27.5546 28.1747 27.5759C28.1545 27.5972 28.1435 27.6256 28.144 27.6549C28.1445 27.6843 28.1566 27.7123 28.1775 27.7328C28.1985 27.7534 28.2266 27.7649 28.256 27.7649C28.2854 27.7649 28.3135 27.7534 28.3345 27.7328C28.3554 27.7123 28.3675 27.6843 28.368 27.6549C28.3685 27.6256 28.3575 27.5972 28.3373 27.5759C28.3171 27.5546 28.2893 27.542 28.26 27.541H28.252ZM19.721 28.104C19.6948 28.1081 19.6709 28.1214 19.6536 28.1416C19.6364 28.1618 19.6269 28.1875 19.627 28.214C19.627 28.2438 19.6389 28.2725 19.66 28.2935C19.681 28.3146 19.7097 28.3265 19.7395 28.3265C19.7693 28.3265 19.798 28.3146 19.819 28.2935C19.8401 28.2725 19.852 28.2438 19.852 28.214C19.851 28.154 19.802 28.104 19.74 28.104H19.722H19.721ZM28.241 28.104C28.2146 28.1078 28.1904 28.1211 28.173 28.1413C28.1555 28.1615 28.146 28.1873 28.146 28.214C28.146 28.277 28.197 28.327 28.26 28.326C28.32 28.326 28.37 28.276 28.371 28.215C28.371 28.154 28.321 28.105 28.26 28.104H28.24H28.241ZM19.742 28.664C19.7263 28.6625 19.7105 28.6643 19.6956 28.6693C19.6807 28.6743 19.667 28.6823 19.6553 28.6929C19.6437 28.7035 19.6344 28.7164 19.628 28.7308C19.6217 28.7452 19.6184 28.7608 19.6184 28.7765C19.6184 28.7922 19.6217 28.8078 19.628 28.8222C19.6344 28.8366 19.6437 28.8495 19.6553 28.8601C19.667 28.8707 19.6807 28.8787 19.6956 28.8837C19.7105 28.8887 19.7263 28.8905 19.742 28.889C19.803 28.888 19.852 28.839 19.853 28.777C19.8533 28.7475 19.8419 28.719 19.8213 28.6979C19.8007 28.6767 19.7725 28.6645 19.743 28.664H19.742ZM28.262 28.664C28.2463 28.6625 28.2305 28.6643 28.2156 28.6693C28.2007 28.6743 28.187 28.6823 28.1753 28.6929C28.1637 28.7035 28.1544 28.7164 28.148 28.7308C28.1417 28.7452 28.1384 28.7608 28.1384 28.7765C28.1384 28.7922 28.1417 28.8078 28.148 28.8222C28.1544 28.8366 28.1637 28.8495 28.1753 28.8601C28.187 28.8707 28.2007 28.8787 28.2156 28.8837C28.2305 28.8887 28.2463 28.8905 28.262 28.889C28.322 28.888 28.372 28.839 28.372 28.777C28.3723 28.7475 28.3609 28.719 28.3403 28.6979C28.3197 28.6767 28.2915 28.6645 28.262 28.664ZM19.732 29.227C19.7173 29.2279 19.7029 29.2317 19.6897 29.2382C19.6764 29.2447 19.6646 29.2537 19.6549 29.2648C19.6451 29.2758 19.6376 29.2887 19.6328 29.3026C19.6281 29.3165 19.6261 29.3313 19.627 29.346C19.6279 29.3607 19.6317 29.3751 19.6382 29.3883C19.6447 29.4016 19.6537 29.4134 19.6648 29.4231C19.6758 29.4329 19.6887 29.4404 19.7026 29.4452C19.7165 29.4499 19.7313 29.4519 19.746 29.451C19.7757 29.4491 19.8035 29.4356 19.8231 29.4132C19.8428 29.3909 19.8529 29.3617 19.851 29.332C19.8491 29.3023 19.8356 29.2745 19.8132 29.2549C19.7909 29.2352 19.7617 29.2251 19.732 29.227ZM28.252 29.227C28.2232 29.2285 28.1961 29.2412 28.1763 29.2622C28.1566 29.2833 28.1457 29.3111 28.146 29.34C28.146 29.401 28.197 29.452 28.26 29.451C28.32 29.451 28.37 29.401 28.371 29.34C28.3712 29.3245 28.3681 29.3092 28.3621 29.2949C28.356 29.2806 28.3471 29.2678 28.3358 29.2572C28.3245 29.2466 28.3112 29.2384 28.2966 29.2332C28.282 29.228 28.2665 29.2259 28.251 29.227H28.252ZM19.732 29.789C19.7172 29.7895 19.7027 29.793 19.6893 29.7991C19.6758 29.8052 19.6637 29.814 19.6536 29.8248C19.6435 29.8356 19.6357 29.8483 19.6305 29.8621C19.6254 29.876 19.623 29.8907 19.6235 29.9055C19.624 29.9203 19.6275 29.9348 19.6336 29.9482C19.6397 29.9617 19.6485 29.9738 19.6593 29.9839C19.6701 29.994 19.6828 30.0018 19.6966 30.007C19.7105 30.0121 19.7252 30.0145 19.74 30.014C19.801 30.014 19.851 29.964 19.851 29.902C19.8512 29.8866 19.8482 29.8713 19.8422 29.8571C19.8362 29.843 19.8273 29.8302 19.8161 29.8196C19.805 29.809 19.7917 29.8008 19.7773 29.7955C19.7628 29.7903 19.7474 29.788 19.732 29.789ZM28.252 29.789C28.2227 29.79 28.1949 29.8026 28.1747 29.8239C28.1545 29.8452 28.1435 29.8736 28.144 29.9029C28.1445 29.9323 28.1566 29.9603 28.1775 29.9808C28.1985 30.0014 28.2266 30.0129 28.256 30.0129C28.2854 30.0129 28.3135 30.0014 28.3345 29.9808C28.3554 29.9603 28.3675 29.9323 28.368 29.9029C28.3685 29.8736 28.3575 29.8452 28.3373 29.8239C28.3171 29.8026 28.2893 29.79 28.26 29.789H28.252ZM19.732 30.352C19.7173 30.3529 19.7029 30.3567 19.6897 30.3632C19.6764 30.3697 19.6646 30.3787 19.6549 30.3898C19.6451 30.4008 19.6376 30.4137 19.6328 30.4276C19.6281 30.4415 19.6261 30.4563 19.627 30.471C19.6279 30.4857 19.6317 30.5001 19.6382 30.5133C19.6447 30.5266 19.6537 30.5384 19.6648 30.5481C19.6758 30.5579 19.6887 30.5654 19.7026 30.5702C19.7165 30.5749 19.7313 30.5769 19.746 30.576C19.7757 30.5741 19.8035 30.5606 19.8231 30.5382C19.8428 30.5159 19.8529 30.4867 19.851 30.457C19.8491 30.4273 19.8356 30.3995 19.8132 30.3799C19.7909 30.3602 19.7617 30.3501 19.732 30.352ZM28.252 30.352C28.2232 30.3535 28.1961 30.3662 28.1763 30.3872C28.1566 30.4083 28.1457 30.4361 28.146 30.465C28.146 30.527 28.197 30.577 28.26 30.576C28.2897 30.5749 28.3178 30.5621 28.338 30.5404C28.3583 30.5186 28.3691 30.4897 28.368 30.46C28.3669 30.4303 28.3541 30.4022 28.3324 30.382C28.3106 30.3617 28.2817 30.3509 28.252 30.352ZM19.732 30.912C19.7035 30.9143 19.6769 30.9271 19.6575 30.948C19.638 30.969 19.6272 30.9964 19.627 31.025C19.6249 31.041 19.6262 31.0572 19.6308 31.0726C19.6355 31.088 19.6434 31.1023 19.654 31.1144C19.6646 31.1265 19.6776 31.1362 19.6923 31.1429C19.707 31.1496 19.7229 31.153 19.739 31.153C19.7551 31.153 19.771 31.1496 19.7857 31.1429C19.8004 31.1362 19.8134 31.1265 19.824 31.1144C19.8346 31.1023 19.8425 31.088 19.8472 31.0726C19.8518 31.0572 19.8531 31.041 19.851 31.025C19.8509 31.0097 19.8477 30.9945 19.8416 30.9805C19.8355 30.9664 19.8266 30.9538 19.8155 30.9432C19.8044 30.9327 19.7913 30.9245 19.7769 30.9191C19.7626 30.9137 19.7473 30.9113 19.732 30.912ZM28.252 30.912C28.2233 30.914 28.1965 30.9268 28.1769 30.9477C28.1572 30.9687 28.1462 30.9963 28.146 31.025C28.146 31.0548 28.1579 31.0835 28.179 31.1045C28.2 31.1256 28.2287 31.1375 28.2585 31.1375C28.2883 31.1375 28.317 31.1256 28.3381 31.1045C28.3591 31.0835 28.371 31.0548 28.371 31.025C28.3709 31.0096 28.3677 30.9944 28.3615 30.9803C28.3553 30.9661 28.3464 30.9534 28.3352 30.9428C28.3239 30.9323 28.3107 30.9241 28.2962 30.9188C28.2818 30.9135 28.2664 30.9112 28.251 30.912H28.252ZM19.732 31.475C19.7049 31.4795 19.6804 31.4937 19.663 31.5149C19.6456 31.5362 19.6365 31.5631 19.6375 31.5905C19.6385 31.618 19.6494 31.6441 19.6683 31.6641C19.6872 31.684 19.7127 31.6965 19.74 31.699C19.7547 31.6985 19.7692 31.6951 19.7826 31.6889C19.7959 31.6828 19.808 31.6741 19.818 31.6634C19.8281 31.6526 19.8359 31.64 19.841 31.6262C19.8461 31.6124 19.8485 31.5977 19.848 31.583C19.8475 31.5683 19.8441 31.5538 19.8379 31.5404C19.8318 31.5271 19.8231 31.515 19.8124 31.505C19.8016 31.4949 19.789 31.4871 19.7752 31.482C19.7614 31.4769 19.7467 31.4745 19.732 31.475ZM28.252 31.475C28.2361 31.4741 28.2201 31.4766 28.2052 31.4823C28.1903 31.4881 28.1768 31.4969 28.1656 31.5082C28.1543 31.5195 28.1456 31.5331 28.14 31.5481C28.1344 31.563 28.132 31.5789 28.133 31.5949C28.134 31.6108 28.1383 31.6263 28.1458 31.6405C28.1532 31.6546 28.1635 31.667 28.1761 31.6768C28.1887 31.6866 28.2032 31.6937 28.2187 31.6975C28.2342 31.7014 28.2503 31.7019 28.266 31.699C28.2932 31.694 28.3177 31.6793 28.3347 31.6575C28.3518 31.6357 28.3603 31.6084 28.3585 31.5808C28.3568 31.5532 28.345 31.5271 28.3254 31.5076C28.3057 31.4881 28.2796 31.4765 28.252 31.475ZM19.721 32.037C19.6944 32.0411 19.6702 32.0547 19.653 32.0753C19.6357 32.0959 19.6264 32.1221 19.627 32.149C19.627 32.1711 19.6335 32.1927 19.6458 32.2111C19.6581 32.2295 19.6755 32.2439 19.6959 32.2524C19.7163 32.2609 19.7388 32.2632 19.7605 32.2589C19.7822 32.2547 19.8021 32.2441 19.8178 32.2285C19.8335 32.213 19.8443 32.1931 19.8487 32.1715C19.8532 32.1498 19.8511 32.1273 19.8428 32.1068C19.8344 32.0863 19.8202 32.0688 19.802 32.0564C19.7837 32.0439 19.7621 32.0372 19.74 32.037H19.722H19.721ZM28.241 32.037C28.2142 32.0409 28.1898 32.0544 28.1723 32.075C28.1548 32.0957 28.1455 32.122 28.146 32.149C28.146 32.1711 28.1525 32.1926 28.1647 32.211C28.177 32.2294 28.1943 32.2437 28.2147 32.2523C28.235 32.2608 28.2575 32.2631 28.2791 32.259C28.3008 32.2548 28.3208 32.2443 28.3365 32.2289C28.3522 32.2134 28.3631 32.1936 28.3676 32.1721C28.3721 32.1505 28.3702 32.128 28.362 32.1075C28.3539 32.087 28.3398 32.0694 28.3217 32.0568C28.3035 32.0443 28.2821 32.0374 28.26 32.037H28.24H28.241ZM19.721 32.6C19.6946 32.6041 19.6706 32.6176 19.6533 32.638C19.636 32.6583 19.6267 32.6843 19.627 32.711C19.627 32.773 19.677 32.824 19.74 32.824C19.7695 32.8232 19.7976 32.811 19.8183 32.7899C19.839 32.7688 19.8507 32.7405 19.851 32.711C19.8507 32.6818 19.8391 32.6539 19.8186 32.6331C19.798 32.6124 19.7702 32.6005 19.741 32.6H19.72H19.721ZM28.241 32.6C28.2144 32.6039 28.1901 32.6173 28.1727 32.6377C28.1552 32.6581 28.1457 32.6841 28.146 32.711C28.146 32.773 28.197 32.824 28.26 32.824C28.32 32.824 28.37 32.773 28.371 32.711C28.3707 32.6816 28.359 32.6536 28.3382 32.6328C28.3174 32.612 28.2894 32.6003 28.26 32.6H28.24H28.241ZM17.205 32.92V32.922C17.0804 32.9239 16.9574 32.9504 16.8431 33C16.7288 33.0496 16.6255 33.1213 16.539 33.211L14.73 35.068C14.6388 35.1561 14.5663 35.2617 14.5167 35.3784C14.4671 35.4951 14.4414 35.6206 14.4412 35.7474C14.441 35.8742 14.4663 35.9998 14.5155 36.1166C14.5648 36.2335 14.637 36.3393 14.7279 36.4277C14.8188 36.5161 14.9265 36.5854 15.0447 36.6314C15.1629 36.6774 15.2891 36.6992 15.4158 36.6955C15.5426 36.6918 15.6673 36.6626 15.7826 36.6098C15.8979 36.557 16.0014 36.4816 16.087 36.388L17.897 34.529C17.9841 34.44 18.0528 34.3347 18.0991 34.219C18.1453 34.1034 18.1683 33.9798 18.1666 33.8553C18.1649 33.7307 18.1387 33.6078 18.0893 33.4934C18.0399 33.3791 17.9685 33.2756 17.879 33.189C17.79 33.1018 17.6846 33.033 17.569 32.9867C17.4533 32.9403 17.3296 32.9173 17.205 32.919V32.92ZM24.893 32.92V32.922C24.7682 32.9238 24.6451 32.9502 24.5306 32.9998C24.4161 33.0494 24.3126 33.1212 24.226 33.211L22.418 35.068C22.3268 35.1561 22.2543 35.2617 22.2047 35.3784C22.1551 35.4951 22.1294 35.6206 22.1292 35.7474C22.129 35.8742 22.1543 35.9998 22.2035 36.1166C22.2528 36.2335 22.325 36.3393 22.4159 36.4277C22.5068 36.5161 22.6145 36.5854 22.7327 36.6314C22.8509 36.6774 22.9771 36.6992 23.1038 36.6955C23.2306 36.6918 23.3553 36.6626 23.4706 36.6098C23.5859 36.557 23.6894 36.4816 23.775 36.388L25.584 34.529C25.6711 34.44 25.7398 34.3347 25.7861 34.219C25.8323 34.1034 25.8553 33.9798 25.8536 33.8553C25.8519 33.7307 25.8257 33.6078 25.7763 33.4934C25.7269 33.3791 25.6555 33.2756 25.566 33.189C25.477 33.1018 25.3716 33.033 25.256 32.9867C25.1403 32.9403 25.0166 32.9173 24.892 32.919L24.893 32.92ZM32.58 32.92V32.922C32.4554 32.9239 32.3324 32.9504 32.2181 33C32.1038 33.0496 32.0005 33.1213 31.914 33.211L30.105 35.068C30.0138 35.1561 29.9413 35.2617 29.8917 35.3784C29.8421 35.4951 29.8164 35.6206 29.8162 35.7474C29.816 35.8742 29.8413 35.9998 29.8905 36.1166C29.9398 36.2335 30.012 36.3393 30.1029 36.4277C30.1938 36.5161 30.3015 36.5854 30.4197 36.6314C30.5379 36.6774 30.6641 36.6992 30.7908 36.6955C30.9176 36.6918 31.0423 36.6626 31.1576 36.6098C31.2729 36.557 31.3764 36.4816 31.462 36.388L33.272 34.529C33.3591 34.44 33.4278 34.3347 33.4741 34.219C33.5203 34.1034 33.5433 33.9798 33.5416 33.8553C33.5399 33.7307 33.5137 33.6078 33.4643 33.4934C33.4149 33.3791 33.3435 33.2756 33.254 33.189C33.165 33.1018 33.0596 33.033 32.944 32.9867C32.8283 32.9403 32.7046 32.9173 32.58 32.919V32.92ZM19.742 33.16C19.727 33.1601 19.7122 33.1632 19.6985 33.1691C19.6847 33.1749 19.6722 33.1834 19.6617 33.1941C19.6512 33.2048 19.6429 33.2174 19.6373 33.2313C19.6317 33.2452 19.6289 33.26 19.629 33.275C19.629 33.337 19.679 33.385 19.742 33.385C19.7565 33.3851 19.7709 33.3824 19.7844 33.3769C19.7979 33.3714 19.8101 33.3634 19.8204 33.3531C19.8307 33.3429 19.8389 33.3307 19.8445 33.3173C19.8501 33.3039 19.853 33.2895 19.853 33.275C19.8533 33.2453 19.8419 33.2166 19.8214 33.1951C19.8008 33.1736 19.7727 33.161 19.743 33.16H19.742ZM28.262 33.16C28.2469 33.16 28.232 33.163 28.2181 33.1688C28.2042 33.1746 28.1916 33.183 28.181 33.1937C28.1704 33.2044 28.1621 33.2171 28.1564 33.2311C28.1507 33.245 28.1479 33.2599 28.148 33.275C28.148 33.337 28.199 33.385 28.262 33.385C28.2912 33.385 28.3192 33.3734 28.3398 33.3528C28.3604 33.3322 28.372 33.3042 28.372 33.275C28.3723 33.2453 28.3609 33.2166 28.3404 33.1951C28.3198 33.1736 28.2917 33.161 28.262 33.16ZM19.732 33.723C19.7034 33.7248 19.6765 33.7375 19.6569 33.7585C19.6374 33.7796 19.6267 33.8073 19.627 33.836C19.627 33.898 19.677 33.948 19.74 33.947C19.7547 33.9465 19.7692 33.9431 19.7826 33.9369C19.7959 33.9308 19.808 33.9221 19.818 33.9114C19.8281 33.9006 19.8359 33.888 19.841 33.8742C19.8461 33.8604 19.8485 33.8457 19.848 33.831C19.8475 33.8163 19.8441 33.8018 19.8379 33.7884C19.8318 33.7751 19.8231 33.763 19.8124 33.753C19.8016 33.7429 19.789 33.7351 19.7752 33.73C19.7614 33.7249 19.7467 33.7225 19.732 33.723ZM28.252 33.723C28.2232 33.7245 28.1961 33.7372 28.1763 33.7582C28.1566 33.7793 28.1457 33.8071 28.146 33.836C28.146 33.898 28.197 33.948 28.26 33.947C28.2747 33.9465 28.2892 33.9431 28.3026 33.9369C28.3159 33.9308 28.328 33.9221 28.338 33.9114C28.3481 33.9006 28.3559 33.888 28.361 33.8742C28.3661 33.8604 28.3685 33.8457 28.368 33.831C28.3675 33.8163 28.3641 33.8018 28.3579 33.7884C28.3518 33.7751 28.3431 33.763 28.3324 33.753C28.3216 33.7429 28.309 33.7351 28.2952 33.73C28.2814 33.7249 28.2667 33.7225 28.252 33.723ZM19.732 34.285C19.7172 34.2855 19.7027 34.289 19.6893 34.2951C19.6758 34.3012 19.6637 34.31 19.6536 34.3208C19.6435 34.3316 19.6357 34.3443 19.6305 34.3581C19.6254 34.372 19.623 34.3867 19.6235 34.4015C19.624 34.4163 19.6275 34.4308 19.6336 34.4442C19.6397 34.4577 19.6485 34.4698 19.6593 34.4799C19.6701 34.49 19.6828 34.4978 19.6966 34.503C19.7105 34.5081 19.7252 34.5105 19.74 34.51C19.801 34.51 19.851 34.46 19.851 34.399C19.8513 34.3835 19.8484 34.3681 19.8425 34.3538C19.8365 34.3395 19.8277 34.3266 19.8165 34.3159C19.8053 34.3052 19.792 34.2969 19.7775 34.2916C19.7629 34.2863 19.7475 34.284 19.732 34.285ZM28.252 34.285C28.223 34.2865 28.1957 34.2993 28.176 34.3206C28.1562 34.3418 28.1454 34.37 28.146 34.399C28.146 34.46 28.197 34.51 28.26 34.509C28.32 34.509 28.37 34.46 28.371 34.399C28.3713 34.3834 28.3684 34.368 28.3624 34.3536C28.3564 34.3392 28.3475 34.3262 28.3362 34.3155C28.3249 34.3048 28.3115 34.2965 28.2968 34.2913C28.2821 34.286 28.2665 34.2839 28.251 34.285H28.252ZM19.732 34.848C19.7173 34.8489 19.7029 34.8527 19.6897 34.8592C19.6764 34.8657 19.6646 34.8747 19.6549 34.8858C19.6451 34.8968 19.6376 34.9097 19.6328 34.9236C19.6281 34.9375 19.6261 34.9523 19.627 34.967C19.6279 34.9817 19.6317 34.9961 19.6382 35.0093C19.6447 35.0226 19.6537 35.0344 19.6648 35.0441C19.6758 35.0539 19.6887 35.0614 19.7026 35.0662C19.7165 35.0709 19.7313 35.0729 19.746 35.072C19.7757 35.0701 19.8035 35.0566 19.8231 35.0342C19.8428 35.0119 19.8529 34.9827 19.851 34.953C19.8491 34.9233 19.8356 34.8955 19.8132 34.8759C19.7909 34.8562 19.7617 34.8461 19.732 34.848ZM28.252 34.848C28.2373 34.8489 28.2229 34.8526 28.2096 34.859C28.1964 34.8654 28.1845 34.8744 28.1747 34.8854C28.1649 34.8964 28.1574 34.9092 28.1525 34.9231C28.1477 34.9371 28.1456 34.9518 28.1465 34.9665C28.1474 34.9812 28.1511 34.9956 28.1575 35.0089C28.1639 35.0221 28.1729 35.034 28.1839 35.0438C28.1949 35.0536 28.2077 35.0611 28.2216 35.066C28.2356 35.0708 28.2503 35.0729 28.265 35.072C28.2947 35.0703 28.3225 35.0568 28.3423 35.0346C28.3621 35.0124 28.3722 34.9832 28.3705 34.9535C28.3688 34.9238 28.3553 34.896 28.3331 34.8762C28.3109 34.8564 28.2817 34.8463 28.252 34.848ZM19.732 35.41C19.7172 35.4109 19.7028 35.4147 19.6895 35.4212C19.6762 35.4277 19.6643 35.4368 19.6545 35.4479C19.6447 35.459 19.6372 35.4719 19.6324 35.4859C19.6276 35.4999 19.6256 35.5147 19.6265 35.5295C19.6274 35.5443 19.6312 35.5587 19.6377 35.572C19.6442 35.5853 19.6533 35.5972 19.6644 35.607C19.6755 35.6168 19.6884 35.6243 19.7024 35.6291C19.7164 35.6339 19.7312 35.6359 19.746 35.635C19.7758 35.6331 19.8037 35.6195 19.8235 35.5971C19.8433 35.5747 19.8534 35.5453 19.8515 35.5155C19.8496 35.4857 19.836 35.4578 19.8136 35.438C19.7912 35.4182 19.7618 35.4081 19.732 35.41ZM28.252 35.41C28.2372 35.4109 28.2228 35.4147 28.2095 35.4212C28.1962 35.4277 28.1843 35.4368 28.1745 35.4479C28.1647 35.459 28.1572 35.4719 28.1524 35.4859C28.1476 35.4999 28.1456 35.5147 28.1465 35.5295C28.1474 35.5443 28.1512 35.5587 28.1577 35.572C28.1642 35.5853 28.1733 35.5972 28.1844 35.607C28.1955 35.6168 28.2084 35.6243 28.2224 35.6291C28.2364 35.6339 28.2512 35.6359 28.266 35.635C28.2958 35.6331 28.3237 35.6195 28.3435 35.5971C28.3633 35.5747 28.3734 35.5453 28.3715 35.5155C28.3696 35.4857 28.356 35.4578 28.3336 35.438C28.3112 35.4182 28.2818 35.4081 28.252 35.41ZM19.732 35.973C19.7173 35.9739 19.7029 35.9777 19.6897 35.9842C19.6764 35.9907 19.6646 35.9997 19.6549 36.0108C19.6451 36.0218 19.6376 36.0347 19.6328 36.0486C19.6281 36.0625 19.6261 36.0773 19.627 36.092C19.6279 36.1067 19.6317 36.1211 19.6382 36.1343C19.6447 36.1476 19.6537 36.1594 19.6648 36.1691C19.6758 36.1789 19.6887 36.1864 19.7026 36.1912C19.7165 36.1959 19.7313 36.1979 19.746 36.197C19.7757 36.1951 19.8035 36.1816 19.8231 36.1592C19.8428 36.1369 19.8529 36.1077 19.851 36.078C19.8491 36.0483 19.8356 36.0205 19.8132 36.0009C19.7909 35.9812 19.7617 35.9711 19.732 35.973ZM28.252 35.973C28.2373 35.9739 28.2229 35.9777 28.2097 35.9842C28.1964 35.9907 28.1846 35.9997 28.1749 36.0108C28.1651 36.0218 28.1576 36.0347 28.1528 36.0486C28.1481 36.0625 28.1461 36.0773 28.147 36.092C28.1479 36.1067 28.1517 36.1211 28.1582 36.1343C28.1647 36.1476 28.1737 36.1594 28.1848 36.1691C28.1958 36.1789 28.2087 36.1864 28.2226 36.1912C28.2365 36.1959 28.2513 36.1979 28.266 36.197C28.2957 36.1951 28.3235 36.1816 28.3431 36.1592C28.3628 36.1369 28.3729 36.1077 28.371 36.078C28.3691 36.0483 28.3556 36.0205 28.3332 36.0009C28.3109 35.9812 28.2817 35.9711 28.252 35.973ZM19.732 36.535C19.7037 36.5368 19.6771 36.5492 19.6576 36.5698C19.6381 36.5904 19.6272 36.6176 19.627 36.646C19.627 36.709 19.677 36.762 19.74 36.762C19.7699 36.7612 19.7983 36.7487 19.819 36.7272C19.8398 36.7057 19.8513 36.6769 19.851 36.647C19.8509 36.6317 19.8477 36.6166 19.8416 36.6026C19.8355 36.5886 19.8266 36.576 19.8155 36.5656C19.8043 36.5551 19.7912 36.547 19.7769 36.5417C19.7625 36.5365 19.7473 36.5342 19.732 36.535ZM28.252 36.535C28.2235 36.5365 28.1967 36.5489 28.177 36.5695C28.1573 36.5901 28.1462 36.6175 28.146 36.646C28.146 36.709 28.196 36.762 28.26 36.762C28.2899 36.7612 28.3183 36.7487 28.339 36.7272C28.3598 36.7057 28.3713 36.6769 28.371 36.647C28.3709 36.6316 28.3677 36.6165 28.3615 36.6024C28.3553 36.5883 28.3463 36.5757 28.3351 36.5652C28.3239 36.5547 28.3106 36.5466 28.2962 36.5414C28.2817 36.5362 28.2663 36.534 28.251 36.535H28.252ZM19.721 37.098C19.6945 37.1019 19.6703 37.1153 19.653 37.1357C19.6357 37.1562 19.6265 37.1822 19.627 37.209C19.627 37.271 19.677 37.321 19.74 37.32C19.801 37.32 19.851 37.27 19.851 37.209C19.851 37.148 19.801 37.099 19.741 37.098H19.72H19.721ZM28.241 37.098C28.2143 37.1017 28.1899 37.115 28.1724 37.1354C28.1549 37.1559 28.1455 37.1821 28.146 37.209C28.1445 37.2247 28.1463 37.2405 28.1513 37.2554C28.1563 37.2703 28.1643 37.284 28.1749 37.2957C28.1855 37.3073 28.1984 37.3166 28.2128 37.323C28.2272 37.3293 28.2428 37.3326 28.2585 37.3326C28.2742 37.3326 28.2898 37.3293 28.3042 37.323C28.3186 37.3166 28.3315 37.3073 28.3421 37.2957C28.3527 37.284 28.3607 37.2703 28.3657 37.2554C28.3707 37.2405 28.3725 37.2247 28.371 37.209C28.371 37.148 28.321 37.099 28.26 37.098H28.24H28.241ZM19.732 37.658C19.7032 37.6598 19.6762 37.6727 19.6566 37.6939C19.637 37.7151 19.6264 37.7431 19.627 37.772C19.627 37.833 19.677 37.884 19.74 37.882C19.7697 37.882 19.7982 37.8702 19.8192 37.8492C19.8402 37.8282 19.852 37.7997 19.852 37.77C19.852 37.7403 19.8402 37.7118 19.8192 37.6908C19.7982 37.6698 19.7697 37.658 19.74 37.658H19.732ZM28.252 37.658C28.223 37.6595 28.1957 37.6723 28.176 37.6936C28.1562 37.7148 28.1454 37.743 28.146 37.772C28.146 37.833 28.197 37.884 28.26 37.882C28.2897 37.882 28.3182 37.8702 28.3392 37.8492C28.3602 37.8282 28.372 37.7997 28.372 37.77C28.372 37.7403 28.3602 37.7118 28.3392 37.6908C28.3182 37.6698 28.2897 37.658 28.26 37.658H28.252ZM19.732 38.221C19.7019 38.2221 19.6735 38.235 19.6529 38.2571C19.6324 38.2791 19.6214 38.3084 19.6225 38.3385C19.6236 38.3686 19.6365 38.397 19.6586 38.4176C19.6806 38.4381 19.7099 38.4491 19.74 38.448C19.7697 38.4472 19.7979 38.4349 19.8187 38.4136C19.8394 38.3923 19.851 38.3637 19.851 38.334C19.851 38.3186 19.8479 38.3034 19.8419 38.2893C19.8358 38.2752 19.8269 38.2625 19.8158 38.2519C19.8047 38.2413 19.7915 38.2331 19.7771 38.2278C19.7627 38.2225 19.7473 38.2202 19.732 38.221ZM28.252 38.221C28.2219 38.2221 28.1935 38.235 28.1729 38.2571C28.1524 38.2791 28.1414 38.3084 28.1425 38.3385C28.1436 38.3686 28.1565 38.397 28.1786 38.4176C28.2006 38.4381 28.2299 38.4491 28.26 38.448C28.32 38.446 28.37 38.396 28.371 38.334C28.371 38.3186 28.3679 38.3033 28.3618 38.2891C28.3557 38.2749 28.3467 38.2621 28.3355 38.2515C28.3242 38.2409 28.3109 38.2328 28.2964 38.2275C28.2819 38.2223 28.2664 38.22 28.251 38.221H28.252ZM17.205 38.356C17.0804 38.3582 16.9574 38.3849 16.8431 38.4347C16.7288 38.4844 16.6255 38.5563 16.539 38.646L14.73 40.504C14.6429 40.593 14.5742 40.6983 14.5279 40.814C14.4817 40.9296 14.4587 41.0532 14.4604 41.1777C14.4621 41.3023 14.4883 41.4252 14.5377 41.5396C14.5871 41.6539 14.6585 41.7574 14.748 41.844C14.837 41.9312 14.9424 42 15.0581 42.0462C15.1738 42.0925 15.2976 42.1153 15.4222 42.1135C15.5468 42.1116 15.6698 42.0851 15.7841 42.0354C15.8983 41.9857 16.0016 41.9138 16.088 41.824L17.896 39.964C17.983 39.8751 18.0516 39.7699 18.0979 39.6544C18.1442 39.5389 18.1672 39.4154 18.1656 39.291C18.164 39.1666 18.1379 39.0437 18.0887 38.9294C18.0395 38.8151 17.9683 38.7117 17.879 38.625C17.79 38.5378 17.6846 38.469 17.569 38.4227C17.4533 38.3763 17.3296 38.3533 17.205 38.355V38.356ZM24.893 38.356C24.7682 38.3581 24.645 38.3847 24.5306 38.4345C24.4161 38.4843 24.3126 38.5561 24.226 38.646L22.418 40.504C22.3308 40.5929 22.2621 40.6982 22.2157 40.8138C22.1694 40.9294 22.1463 41.053 22.1479 41.1775C22.1495 41.3021 22.1757 41.425 22.2249 41.5394C22.2742 41.6538 22.3456 41.7573 22.435 41.844C22.524 41.9312 22.6294 42 22.7451 42.0462C22.8608 42.0925 22.9846 42.1153 23.1092 42.1135C23.2338 42.1116 23.3568 42.0851 23.4711 42.0354C23.5853 41.9857 23.6887 41.9138 23.775 41.824L25.584 39.964C25.671 39.875 25.7395 39.7697 25.7857 39.6542C25.8319 39.5387 25.8548 39.4152 25.8531 39.2908C25.8514 39.1664 25.8252 39.0435 25.7759 38.9292C25.7267 38.815 25.6553 38.7116 25.566 38.625C25.477 38.5378 25.3716 38.469 25.256 38.4227C25.1403 38.3763 25.0166 38.3533 24.892 38.355L24.893 38.356ZM32.58 38.356C32.4554 38.3582 32.3324 38.3849 32.2181 38.4347C32.1038 38.4844 32.0005 38.5563 31.914 38.646L30.105 40.504C30.0179 40.593 29.9492 40.6983 29.9029 40.814C29.8567 40.9296 29.8337 41.0532 29.8354 41.1777C29.8371 41.3023 29.8633 41.4252 29.9127 41.5396C29.9621 41.6539 30.0335 41.7574 30.123 41.844C30.212 41.9312 30.3174 42 30.4331 42.0462C30.5488 42.0925 30.6726 42.1153 30.7972 42.1135C30.9218 42.1116 31.0448 42.0851 31.1591 42.0354C31.2733 41.9857 31.3766 41.9138 31.463 41.824L33.271 39.964C33.358 39.8751 33.4266 39.7699 33.4729 39.6544C33.5192 39.5389 33.5422 39.4154 33.5406 39.291C33.539 39.1666 33.5129 39.0437 33.4637 38.9294C33.4145 38.8151 33.3433 38.7117 33.254 38.625C33.165 38.5378 33.0596 38.469 32.944 38.4227C32.8283 38.3763 32.7046 38.3533 32.58 38.355V38.356ZM19.732 38.783C19.7032 38.7853 19.6763 38.7984 19.6568 38.8198C19.6373 38.8411 19.6267 38.8691 19.627 38.898C19.627 38.9277 19.6388 38.9562 19.6598 38.9772C19.6808 38.9982 19.7093 39.01 19.739 39.01C19.7687 39.01 19.7972 38.9982 19.8182 38.9772C19.8392 38.9562 19.851 38.9277 19.851 38.898C19.8512 38.8825 19.8481 38.8672 19.8422 38.8529C19.8362 38.8386 19.8274 38.8257 19.8162 38.8149C19.8051 38.8042 19.7919 38.7958 19.7774 38.7903C19.7629 38.7848 19.7475 38.7823 19.732 38.783ZM28.252 38.783C28.223 38.785 28.1959 38.7981 28.1762 38.8195C28.1565 38.8408 28.1457 38.8689 28.146 38.898C28.146 38.9278 28.1579 38.9565 28.179 38.9776C28.2 38.9986 28.2287 39.0105 28.2585 39.0105C28.2883 39.0105 28.317 38.9986 28.3381 38.9776C28.3591 38.9565 28.371 38.9278 28.371 38.898C28.3712 38.8824 28.3681 38.867 28.3621 38.8526C28.356 38.8383 28.3471 38.8253 28.3359 38.8145C28.3246 38.8038 28.3113 38.7954 28.2967 38.79C28.2821 38.7846 28.2666 38.7822 28.251 38.783H28.252ZM19.732 39.346C19.7049 39.3505 19.6804 39.3647 19.663 39.3859C19.6456 39.4072 19.6365 39.4341 19.6375 39.4615C19.6385 39.489 19.6494 39.5151 19.6683 39.5351C19.6872 39.555 19.7127 39.5675 19.74 39.57C19.7547 39.5695 19.7692 39.5661 19.7826 39.5599C19.7959 39.5538 19.808 39.5451 19.818 39.5344C19.8281 39.5236 19.8359 39.511 19.841 39.4972C19.8461 39.4834 19.8485 39.4687 19.848 39.454C19.8475 39.4393 19.8441 39.4248 19.8379 39.4114C19.8318 39.3981 19.8231 39.386 19.8124 39.376C19.8016 39.3659 19.789 39.3581 19.7752 39.353C19.7614 39.3479 19.7467 39.3455 19.732 39.346ZM28.252 39.346C28.2361 39.3451 28.2201 39.3476 28.2052 39.3533C28.1903 39.3591 28.1768 39.3679 28.1656 39.3792C28.1543 39.3905 28.1456 39.4041 28.14 39.4191C28.1344 39.434 28.132 39.45 28.133 39.4659C28.134 39.4818 28.1383 39.4973 28.1458 39.5115C28.1532 39.5256 28.1635 39.538 28.1761 39.5478C28.1887 39.5576 28.2032 39.5647 28.2187 39.5685C28.2342 39.5724 28.2503 39.5729 28.266 39.57C28.2932 39.565 28.3177 39.5503 28.3347 39.5285C28.3518 39.5067 28.3603 39.4794 28.3585 39.4518C28.3568 39.4242 28.345 39.3981 28.3254 39.3786C28.3057 39.3591 28.2796 39.3475 28.252 39.346ZM19.732 39.908C19.7037 39.9093 19.677 39.9214 19.6574 39.9419C19.6379 39.9624 19.627 39.9897 19.627 40.018C19.627 40.08 19.677 40.133 19.74 40.133C19.7699 40.1322 19.7983 40.1197 19.819 40.0982C19.8398 40.0767 19.8513 40.0479 19.851 40.018C19.8511 40.0028 19.8479 39.9877 19.8419 39.9737C19.8358 39.9597 19.8269 39.9472 19.8157 39.9369C19.8045 39.9265 19.7913 39.9186 19.7769 39.9136C19.7625 39.9087 19.7472 39.9068 19.732 39.908ZM28.252 39.908C28.2235 39.909 28.1966 39.9211 28.1768 39.9416C28.157 39.9621 28.146 39.9895 28.146 40.018C28.146 40.08 28.196 40.133 28.26 40.133C28.2899 40.1322 28.3183 40.1197 28.339 40.0982C28.3598 40.0767 28.3713 40.0479 28.371 40.018C28.3711 40.0027 28.3679 39.9875 28.3618 39.9735C28.3556 39.9594 28.3466 39.9468 28.3353 39.9365C28.324 39.9261 28.3107 39.9182 28.2962 39.9133C28.2817 39.9084 28.2663 39.9066 28.251 39.908H28.252ZM19.732 40.471C19.7035 40.4733 19.6769 40.4861 19.6575 40.507C19.638 40.528 19.6272 40.5554 19.627 40.584C19.6249 40.6 19.6262 40.6162 19.6308 40.6316C19.6355 40.647 19.6434 40.6613 19.654 40.6734C19.6646 40.6855 19.6776 40.6952 19.6923 40.7019C19.707 40.7086 19.7229 40.712 19.739 40.712C19.7551 40.712 19.771 40.7086 19.7857 40.7019C19.8004 40.6952 19.8134 40.6855 19.824 40.6734C19.8346 40.6613 19.8425 40.647 19.8472 40.6316C19.8518 40.6162 19.8531 40.6 19.851 40.584C19.8509 40.5687 19.8477 40.5535 19.8416 40.5395C19.8355 40.5254 19.8266 40.5128 19.8155 40.5022C19.8044 40.4917 19.7913 40.4835 19.7769 40.4781C19.7626 40.4727 19.7473 40.4703 19.732 40.471ZM28.252 40.471C28.2233 40.473 28.1965 40.4858 28.1769 40.5067C28.1572 40.5277 28.1462 40.5553 28.146 40.584C28.146 40.6138 28.1579 40.6424 28.179 40.6635C28.2 40.6846 28.2287 40.6965 28.2585 40.6965C28.2883 40.6965 28.317 40.6846 28.3381 40.6635C28.3591 40.6424 28.371 40.6138 28.371 40.584C28.3709 40.5686 28.3677 40.5534 28.3615 40.5393C28.3553 40.5251 28.3464 40.5124 28.3352 40.5018C28.3239 40.4913 28.3107 40.4831 28.2962 40.4778C28.2818 40.4725 28.2664 40.4702 28.251 40.471H28.252ZM19.721 41.033C19.6943 41.0376 19.67 41.0516 19.6528 41.0725C19.6355 41.0934 19.6264 41.1199 19.627 41.147C19.6249 41.163 19.6262 41.1792 19.6308 41.1946C19.6355 41.21 19.6434 41.2243 19.654 41.2364C19.6646 41.2485 19.6776 41.2582 19.6923 41.2649C19.707 41.2716 19.7229 41.275 19.739 41.275C19.7551 41.275 19.771 41.2716 19.7857 41.2649C19.8004 41.2582 19.8134 41.2485 19.824 41.2364C19.8346 41.2243 19.8425 41.21 19.8472 41.1946C19.8518 41.1792 19.8531 41.163 19.851 41.147C19.851 41.1174 19.8396 41.089 19.819 41.0678C19.7985 41.0465 19.7705 41.034 19.741 41.033H19.72H19.721ZM28.241 41.033C28.2141 41.0373 28.1896 41.0513 28.1722 41.0722C28.1547 41.0932 28.1454 41.1197 28.146 41.147C28.146 41.1768 28.1579 41.2054 28.179 41.2265C28.2 41.2476 28.2287 41.2595 28.2585 41.2595C28.2883 41.2595 28.317 41.2476 28.3381 41.2265C28.3591 41.2054 28.371 41.1768 28.371 41.147C28.371 41.1173 28.3594 41.0887 28.3387 41.0674C28.3179 41.0461 28.2897 41.0338 28.26 41.033H28.24H28.241ZM19.721 41.596C19.6944 41.6005 19.6704 41.6144 19.6531 41.6351C19.6359 41.6558 19.6266 41.682 19.627 41.709C19.627 41.771 19.677 41.819 19.74 41.819C19.7545 41.8191 19.7689 41.8164 19.7824 41.8109C19.7959 41.8054 19.8081 41.7974 19.8184 41.7871C19.8288 41.7769 19.8369 41.7647 19.8425 41.7513C19.8481 41.7379 19.851 41.7235 19.851 41.709C19.8508 41.6796 19.8392 41.6515 19.8187 41.6304C19.7982 41.6094 19.7704 41.597 19.741 41.596H19.72H19.721ZM28.241 41.596C28.2142 41.6003 28.1899 41.6141 28.1725 41.6348C28.1551 41.6556 28.1457 41.6819 28.146 41.709C28.146 41.771 28.197 41.819 28.26 41.819C28.2745 41.8191 28.2889 41.8164 28.3024 41.8109C28.3159 41.8054 28.3281 41.7974 28.3384 41.7871C28.3488 41.7769 28.3569 41.7647 28.3625 41.7513C28.3681 41.7379 28.371 41.7235 28.371 41.709C28.3708 41.6795 28.359 41.6512 28.3383 41.6301C28.3176 41.609 28.2895 41.5968 28.26 41.596H28.24H28.241ZM19.742 42.156C19.727 42.1561 19.7122 42.1592 19.6985 42.1651C19.6847 42.1709 19.6722 42.1794 19.6617 42.1901C19.6512 42.2008 19.6429 42.2134 19.6373 42.2273C19.6317 42.2412 19.6289 42.256 19.629 42.271C19.629 42.334 19.679 42.384 19.742 42.383C19.803 42.383 19.852 42.333 19.853 42.272C19.8535 42.2421 19.8423 42.2132 19.8217 42.1915C19.8012 42.1698 19.7729 42.157 19.743 42.156H19.742ZM28.262 42.156C28.2469 42.156 28.232 42.159 28.2181 42.1648C28.2042 42.1706 28.1916 42.1791 28.181 42.1897C28.1704 42.2004 28.1621 42.2131 28.1564 42.2271C28.1507 42.241 28.1479 42.2559 28.148 42.271C28.148 42.334 28.199 42.384 28.262 42.383C28.322 42.383 28.372 42.333 28.372 42.272C28.3725 42.2421 28.3613 42.2132 28.3407 42.1915C28.3202 42.1698 28.2919 42.157 28.262 42.156ZM19.732 42.719C19.7032 42.7213 19.6763 42.7344 19.6568 42.7558C19.6373 42.7771 19.6267 42.8051 19.627 42.834C19.627 42.8637 19.6388 42.8922 19.6598 42.9132C19.6808 42.9342 19.7093 42.946 19.739 42.946C19.7687 42.946 19.7972 42.9342 19.8182 42.9132C19.8392 42.8922 19.851 42.8637 19.851 42.834C19.8512 42.8185 19.8481 42.8032 19.8422 42.7889C19.8362 42.7746 19.8274 42.7617 19.8162 42.7509C19.8051 42.7402 19.7919 42.7318 19.7774 42.7263C19.7629 42.7208 19.7475 42.7183 19.732 42.719ZM28.252 42.719C28.223 42.721 28.1959 42.7341 28.1762 42.7555C28.1565 42.7768 28.1457 42.8049 28.146 42.834C28.146 42.8638 28.1579 42.8924 28.179 42.9135C28.2 42.9346 28.2287 42.9465 28.2585 42.9465C28.2883 42.9465 28.317 42.9346 28.3381 42.9135C28.3591 42.8924 28.371 42.8638 28.371 42.834C28.3712 42.8184 28.3681 42.803 28.3621 42.7886C28.356 42.7743 28.3471 42.7613 28.3359 42.7505C28.3246 42.7398 28.3113 42.7314 28.2967 42.726C28.2821 42.7206 28.2666 42.7182 28.251 42.719H28.252Z" fill="#333333"/>
</svg>
