<svg width="48" height="48" viewBox="0 0 48 48" fill="none" xmlns="http://www.w3.org/2000/svg">
<path d="M23.998 4.09211C20.73 4.10211 17.463 4.12511 14.146 4.12511C13.277 4.12511 12.58 4.82411 12.58 5.69311V42.5551C12.58 43.4251 13.277 44.1251 14.146 44.1251H33.852C34.721 44.1251 35.42 43.4251 35.42 42.5551V5.69311C35.42 4.82311 34.721 4.12511 33.852 4.12511C30.5674 4.08705 27.2827 4.07605 23.998 4.09211ZM19.732 5.16011H19.74C19.7693 5.16116 19.797 5.17369 19.8172 5.19499C19.8374 5.2163 19.8485 5.24469 19.8479 5.27404C19.8474 5.30339 19.8354 5.33137 19.8144 5.35194C19.7935 5.37251 19.7653 5.38404 19.736 5.38404C19.7066 5.38404 19.6784 5.37251 19.6575 5.35194C19.6365 5.33137 19.6245 5.30339 19.624 5.27404C19.6234 5.24469 19.6345 5.2163 19.6547 5.19499C19.6749 5.17369 19.7026 5.16116 19.732 5.16011ZM28.252 5.16011H28.26C28.2893 5.16116 28.317 5.17369 28.3372 5.19499C28.3574 5.2163 28.3685 5.24469 28.3679 5.27404C28.3674 5.30339 28.3554 5.33137 28.3344 5.35194C28.3135 5.37251 28.2853 5.38404 28.256 5.38404C28.2266 5.38404 28.1984 5.37251 28.1775 5.35194C28.1565 5.33137 28.1445 5.30339 28.144 5.27404C28.1434 5.24469 28.1545 5.2163 28.1747 5.19499C28.1949 5.17369 28.2226 5.16116 28.252 5.16011ZM19.732 5.72311H19.74C19.7693 5.72416 19.797 5.73669 19.8172 5.75799C19.8374 5.7793 19.8485 5.80769 19.8479 5.83704C19.8474 5.86639 19.8354 5.89437 19.8144 5.91494C19.7935 5.93551 19.7653 5.94704 19.736 5.94704C19.7066 5.94704 19.6784 5.93551 19.6575 5.91494C19.6365 5.89437 19.6245 5.86639 19.624 5.83704C19.6234 5.80769 19.6345 5.7793 19.6547 5.75799C19.6749 5.73669 19.7026 5.72416 19.732 5.72311ZM28.252 5.72311H28.26C28.2893 5.72416 28.317 5.73669 28.3372 5.75799C28.3574 5.7793 28.3685 5.80769 28.3679 5.83704C28.3674 5.86639 28.3554 5.89437 28.3344 5.91494C28.3135 5.93551 28.2853 5.94704 28.256 5.94704C28.2266 5.94704 28.1984 5.93551 28.1775 5.91494C28.1565 5.89437 28.1445 5.86639 28.144 5.83704C28.1434 5.80769 28.1545 5.7793 28.1747 5.75799C28.1949 5.73669 28.2226 5.72416 28.252 5.72311ZM17.203 5.99311C17.3275 5.99132 17.4511 6.01417 17.5668 6.06033C17.6825 6.1065 17.7879 6.17507 17.877 6.26211C17.9664 6.34874 18.0379 6.45219 18.0873 6.56653C18.1366 6.68087 18.1629 6.80384 18.1646 6.92837C18.1662 7.0529 18.1433 7.17653 18.097 7.29215C18.0507 7.40778 17.9821 7.51312 17.895 7.60211L16.085 9.46111C15.9982 9.55021 15.8946 9.62135 15.7804 9.67045C15.6661 9.71955 15.5432 9.74566 15.4188 9.74728C15.2944 9.74891 15.171 9.72602 15.0554 9.67992C14.9399 9.63382 14.8346 9.56542 14.7455 9.47861C14.6564 9.39181 14.5852 9.2883 14.5361 9.17401C14.487 9.05972 14.4609 8.93687 14.4593 8.81249C14.4577 8.6881 14.4806 8.56462 14.5267 8.44908C14.5727 8.33354 14.6412 8.22821 14.728 8.13911L16.538 6.28111C16.6243 6.19158 16.7276 6.11996 16.8417 6.07037C16.9558 6.02078 17.0786 5.99419 17.203 5.99211V5.99311ZM24.891 5.99311C25.0155 5.99132 25.1391 6.01417 25.2548 6.06033C25.3705 6.1065 25.4759 6.17507 25.565 6.26211C25.6544 6.3488 25.7258 6.45231 25.775 6.56669C25.8243 6.68106 25.8505 6.80405 25.8521 6.92858C25.8536 7.0531 25.8306 7.17672 25.7842 7.2923C25.7379 7.40789 25.6691 7.51318 25.582 7.60211L23.773 9.46011C23.6862 9.54921 23.5826 9.62035 23.4684 9.66945C23.3541 9.71855 23.2312 9.74466 23.1068 9.74628C22.9824 9.74791 22.859 9.72502 22.7434 9.67892C22.6279 9.63282 22.5226 9.56442 22.4335 9.47761C22.3444 9.39081 22.2732 9.2873 22.2241 9.17301C22.175 9.05872 22.1489 8.93587 22.1473 8.81149C22.1457 8.6871 22.1686 8.56362 22.2146 8.44808C22.2607 8.33254 22.3292 8.22721 22.416 8.13811L24.225 6.28011C24.3115 6.19046 24.4148 6.11877 24.5291 6.06918C24.6434 6.01958 24.7664 5.99305 24.891 5.99111V5.99311ZM32.578 5.99311C32.7025 5.99132 32.8261 6.01417 32.9418 6.06033C33.0575 6.1065 33.1629 6.17507 33.252 6.26211C33.3414 6.3488 33.4128 6.45231 33.462 6.56669C33.5113 6.68106 33.5375 6.80405 33.5391 6.92858C33.5406 7.0531 33.5176 7.17672 33.4712 7.2923C33.4249 7.40789 33.3561 7.51318 33.269 7.60211L31.462 9.46011C31.3752 9.54921 31.2716 9.62035 31.1574 9.66945C31.0431 9.71855 30.9202 9.74466 30.7958 9.74628C30.6714 9.74791 30.548 9.72502 30.4324 9.67892C30.3169 9.63282 30.2116 9.56442 30.1225 9.47761C30.0334 9.39081 29.9622 9.2873 29.9131 9.17301C29.864 9.05872 29.8379 8.93587 29.8363 8.81149C29.8347 8.6871 29.8576 8.56362 29.9037 8.44808C29.9497 8.33254 30.0182 8.22721 30.105 8.13811L31.913 6.28011C31.9995 6.19046 32.1028 6.11877 32.2171 6.06918C32.3314 6.01958 32.4544 5.99305 32.579 5.99111L32.578 5.99311ZM19.723 6.28511H19.74C19.7546 6.28485 19.7691 6.28749 19.7827 6.2929C19.7962 6.29831 19.8086 6.30637 19.819 6.31661C19.8295 6.32686 19.8377 6.33907 19.8434 6.35255C19.849 6.36603 19.852 6.3805 19.852 6.39511C19.852 6.45611 19.802 6.50511 19.74 6.50511C19.7104 6.50538 19.682 6.49397 19.6608 6.47337C19.6397 6.45277 19.6275 6.42464 19.627 6.39511C19.6267 6.36821 19.6364 6.34216 19.6541 6.32189C19.6718 6.30162 19.6963 6.28853 19.723 6.28511ZM28.243 6.28511H28.26C28.2745 6.28498 28.2889 6.28773 28.3024 6.2932C28.3158 6.29867 28.3281 6.30675 28.3384 6.31697C28.3487 6.3272 28.3569 6.33937 28.3625 6.35278C28.3681 6.3662 28.371 6.38058 28.371 6.39511C28.371 6.45611 28.321 6.50511 28.26 6.50511C28.2452 6.50538 28.2306 6.50274 28.2169 6.49736C28.2032 6.49197 28.1908 6.48394 28.1802 6.47373C28.1696 6.46351 28.1611 6.45131 28.1552 6.43782C28.1494 6.42433 28.1462 6.40982 28.146 6.39511C28.1457 6.36821 28.1554 6.34216 28.1731 6.32189C28.1908 6.30162 28.2153 6.28853 28.242 6.28511H28.243ZM19.743 6.84411C19.805 6.84411 19.854 6.89511 19.853 6.95711C19.853 7.01911 19.803 7.07011 19.743 7.07011C19.7129 7.07011 19.684 7.05824 19.6627 7.03708C19.6413 7.01591 19.6292 6.98717 19.629 6.95711C19.629 6.89411 19.679 6.84311 19.742 6.84411H19.743ZM28.262 6.84411C28.324 6.84411 28.374 6.89511 28.373 6.95711C28.373 7.01911 28.323 7.07011 28.262 7.07011C28.2319 7.07011 28.203 7.05824 28.1817 7.03708C28.1603 7.01591 28.1482 6.98717 28.148 6.95711C28.148 6.89411 28.199 6.84311 28.262 6.84411ZM19.732 7.40611H19.74C19.802 7.40711 19.852 7.45811 19.852 7.52011C19.852 7.58011 19.802 7.63211 19.74 7.63311C19.7101 7.63285 19.6815 7.62086 19.6603 7.59973C19.6392 7.57859 19.6272 7.55 19.627 7.52011C19.627 7.46011 19.673 7.41011 19.732 7.40611ZM28.252 7.40611H28.26C28.2882 7.40877 28.3145 7.42187 28.3336 7.44286C28.3527 7.46386 28.3633 7.49122 28.3633 7.51961C28.3633 7.548 28.3527 7.57537 28.3336 7.59636C28.3145 7.61735 28.2882 7.63046 28.26 7.63311C28.2301 7.63285 28.2015 7.62086 28.1803 7.59973C28.1592 7.57859 28.1472 7.55 28.147 7.52011C28.146 7.46011 28.192 7.41011 28.252 7.40611ZM19.732 7.96611H19.74C19.7682 7.96877 19.7945 7.98187 19.8136 8.00286C19.8327 8.02386 19.8433 8.05122 19.8433 8.07961C19.8433 8.108 19.8327 8.13537 19.8136 8.15636C19.7945 8.17735 19.7682 8.19046 19.74 8.19311C19.7101 8.19285 19.6815 8.18086 19.6603 8.15973C19.6392 8.13859 19.6272 8.11 19.627 8.08011C19.627 8.02011 19.673 7.97011 19.732 7.96711V7.96611ZM28.252 7.96611H28.26C28.2758 7.96463 28.2917 7.96646 28.3067 7.97149C28.3218 7.97651 28.3356 7.98463 28.3474 7.99532C28.3591 8.006 28.3685 8.01902 28.3749 8.03353C28.3813 8.04805 28.3846 8.06374 28.3846 8.07961C28.3846 8.09548 28.3813 8.11118 28.3749 8.12569C28.3685 8.14021 28.3591 8.15322 28.3474 8.16391C28.3356 8.17459 28.3218 8.18271 28.3067 8.18774C28.2917 8.19277 28.2758 8.1946 28.26 8.19311C28.2301 8.19285 28.2015 8.18086 28.1803 8.15973C28.1592 8.13859 28.1472 8.11 28.147 8.08011C28.146 8.02011 28.192 7.97011 28.252 7.96711V7.96611ZM19.732 8.52911H19.74C19.7682 8.53177 19.7945 8.54487 19.8136 8.56586C19.8327 8.58686 19.8433 8.61422 19.8433 8.64261C19.8433 8.671 19.8327 8.69837 19.8136 8.71936C19.7945 8.74035 19.7682 8.75346 19.74 8.75611C19.7101 8.75585 19.6815 8.74386 19.6603 8.72273C19.6392 8.70159 19.6272 8.673 19.627 8.64311C19.627 8.58311 19.673 8.53311 19.732 8.52911ZM28.252 8.52911H28.26C28.2882 8.53177 28.3145 8.54487 28.3336 8.56586C28.3527 8.58686 28.3633 8.61422 28.3633 8.64261C28.3633 8.671 28.3527 8.69837 28.3336 8.71936C28.3145 8.74035 28.2882 8.75346 28.26 8.75611C28.2301 8.75585 28.2015 8.74386 28.1803 8.72273C28.1592 8.70159 28.1472 8.673 28.147 8.64311C28.146 8.58311 28.192 8.53311 28.252 8.52911ZM19.732 9.09211H19.74C19.7693 9.09316 19.797 9.10569 19.8172 9.12699C19.8374 9.1483 19.8485 9.17669 19.8479 9.20604C19.8474 9.23539 19.8354 9.26337 19.8144 9.28394C19.7935 9.30451 19.7653 9.31604 19.736 9.31604C19.7066 9.31604 19.6784 9.30451 19.6575 9.28394C19.6365 9.26337 19.6245 9.23539 19.624 9.20604C19.6234 9.17669 19.6345 9.1483 19.6547 9.12699C19.6749 9.10569 19.7026 9.09316 19.732 9.09211ZM28.252 9.09211H28.26C28.2893 9.09316 28.317 9.10569 28.3372 9.12699C28.3574 9.1483 28.3685 9.17669 28.3679 9.20604C28.3674 9.23539 28.3554 9.26337 28.3344 9.28394C28.3135 9.30451 28.2853 9.31604 28.256 9.31604C28.2266 9.31604 28.1984 9.30451 28.1775 9.28394C28.1565 9.26337 28.1445 9.23539 28.144 9.20604C28.1434 9.17669 28.1545 9.1483 28.1747 9.12699C28.1949 9.10569 28.2226 9.09316 28.252 9.09211ZM19.732 9.65411H19.74C19.802 9.65511 19.851 9.70611 19.852 9.76811C19.852 9.79795 19.8401 9.82656 19.819 9.84766C19.7979 9.86876 19.7693 9.88061 19.7395 9.88061C19.7096 9.88061 19.681 9.86876 19.6599 9.84766C19.6388 9.82656 19.627 9.79795 19.627 9.76811C19.627 9.70811 19.674 9.65811 19.732 9.65411ZM28.252 9.65411H28.26C28.321 9.65511 28.37 9.70611 28.371 9.76811C28.371 9.79782 28.3592 9.8263 28.3382 9.84731C28.3171 9.86831 28.2887 9.88011 28.259 9.88011C28.2293 9.88011 28.2008 9.86831 28.1798 9.84731C28.1588 9.8263 28.147 9.79782 28.147 9.76811C28.147 9.70811 28.193 9.65811 28.252 9.65411ZM19.721 10.2171H19.74C19.7702 10.2171 19.7992 10.2291 19.8206 10.2505C19.8419 10.2719 19.854 10.3009 19.854 10.3311C19.854 10.3613 19.8419 10.3903 19.8206 10.4117C19.7992 10.4331 19.7702 10.4451 19.74 10.4451C19.725 10.445 19.7102 10.4419 19.6964 10.4361C19.6826 10.4302 19.6701 10.4217 19.6596 10.411C19.6491 10.4003 19.6409 10.3877 19.6353 10.3738C19.6296 10.3599 19.6268 10.3451 19.627 10.3301C19.627 10.2751 19.667 10.2241 19.721 10.2171ZM28.241 10.2171H28.26C28.2902 10.2171 28.3192 10.2291 28.3406 10.2505C28.3619 10.2719 28.374 10.3009 28.374 10.3311C28.374 10.3613 28.3619 10.3903 28.3406 10.4117C28.3192 10.4331 28.2902 10.4451 28.26 10.4451C28.2449 10.4451 28.23 10.4421 28.2161 10.4363C28.2022 10.4305 28.1896 10.4221 28.179 10.4114C28.1684 10.4007 28.16 10.388 28.1543 10.374C28.1487 10.3601 28.1458 10.3452 28.146 10.3301C28.146 10.2751 28.186 10.2241 28.24 10.2171H28.241ZM19.742 10.7771C19.805 10.7781 19.854 10.8311 19.853 10.8931C19.8527 10.9221 19.841 10.9498 19.8204 10.9702C19.7998 10.9907 19.772 11.0021 19.743 11.0021C19.7282 11.0026 19.7134 11.0002 19.6996 10.9949C19.6858 10.9896 19.6732 10.9816 19.6626 10.9713C19.6519 10.9611 19.6435 10.9488 19.6377 10.9352C19.6319 10.9215 19.6289 10.9069 19.629 10.8921C19.629 10.8301 19.679 10.7771 19.742 10.7771ZM28.262 10.7771C28.324 10.7781 28.374 10.8311 28.373 10.8931C28.3728 10.9076 28.3699 10.9218 28.3642 10.9351C28.3586 10.9484 28.3503 10.9605 28.34 10.9706C28.3297 10.9807 28.3175 10.9887 28.3041 10.9941C28.2907 10.9995 28.2764 11.0022 28.262 11.0021C28.2472 11.0026 28.2324 11.0002 28.2186 10.9949C28.2048 10.9896 28.1922 10.9816 28.1816 10.9713C28.1709 10.9611 28.1625 10.9488 28.1567 10.9352C28.1509 10.9215 28.1479 10.9069 28.148 10.8921C28.148 10.8301 28.199 10.7771 28.262 10.7771ZM17.203 11.2521H17.205C17.3931 11.2484 17.578 11.3009 17.7361 11.4029C17.8942 11.5049 18.0182 11.6517 18.0923 11.8247C18.1664 11.9976 18.1872 12.1887 18.1521 12.3735C18.1169 12.5584 18.0274 12.7285 17.895 12.8621L16.085 14.7211C15.9096 14.9011 15.67 15.004 15.4188 15.0073C15.1676 15.0106 14.9254 14.9139 14.7455 14.7386C14.5655 14.5633 14.4626 14.3237 14.4593 14.0725C14.456 13.8213 14.5526 13.5791 14.728 13.3991L16.538 11.5411C16.6243 11.4516 16.7276 11.38 16.8417 11.3304C16.9558 11.2808 17.0786 11.2542 17.203 11.2521ZM24.891 11.2521H24.893C25.0811 11.2484 25.266 11.3009 25.4241 11.4029C25.5822 11.5049 25.7062 11.6517 25.7803 11.8247C25.8544 11.9976 25.8752 12.1887 25.8401 12.3735C25.8049 12.5584 25.7154 12.7285 25.583 12.8621L23.773 14.7211C23.6862 14.8102 23.5826 14.8813 23.4684 14.9304C23.3541 14.9795 23.2312 15.0057 23.1068 15.0073C22.9824 15.0089 22.859 14.986 22.7434 14.9399C22.6279 14.8938 22.5226 14.8254 22.4335 14.7386C22.3444 14.6518 22.2732 14.5483 22.2241 14.434C22.175 14.3197 22.1489 14.1969 22.1473 14.0725C22.1457 13.9481 22.1686 13.8246 22.2146 13.7091C22.2607 13.5935 22.3292 13.4882 22.416 13.3991L24.225 11.5411C24.3115 11.4515 24.4148 11.3798 24.5291 11.3302C24.6434 11.2806 24.7664 11.2541 24.891 11.2521ZM32.578 11.2521H32.58C32.7681 11.2484 32.953 11.3009 33.1111 11.4029C33.2692 11.5049 33.3932 11.6517 33.4673 11.8247C33.5414 11.9976 33.5622 12.1887 33.5271 12.3735C33.4919 12.5584 33.4024 12.7285 33.27 12.8621L31.46 14.7211C31.3732 14.8102 31.2696 14.8813 31.1554 14.9304C31.0411 14.9795 30.9182 15.0057 30.7938 15.0073C30.5426 15.0106 30.3004 14.9139 30.1205 14.7386C30.0314 14.6518 29.9602 14.5483 29.9111 14.434C29.862 14.3197 29.8359 14.1969 29.8343 14.0725C29.831 13.8213 29.9276 13.5791 30.103 13.3991L31.913 11.5411C31.9993 11.4516 32.1026 11.38 32.2167 11.3304C32.3308 11.2808 32.4536 11.2542 32.578 11.2521ZM19.742 11.3401C19.805 11.3401 19.854 11.3931 19.853 11.4551C19.853 11.5161 19.803 11.5681 19.743 11.5681C19.728 11.5682 19.7132 11.5654 19.6994 11.5598C19.6856 11.5542 19.673 11.5459 19.6624 11.5354C19.6518 11.5249 19.6434 11.5124 19.6377 11.4986C19.6319 11.4848 19.629 11.47 19.629 11.4551C19.629 11.3921 19.679 11.3391 19.742 11.3401ZM28.262 11.3401C28.324 11.3401 28.374 11.3931 28.373 11.4551C28.373 11.5161 28.323 11.5681 28.262 11.5681C28.247 11.5682 28.2322 11.5654 28.2184 11.5598C28.2046 11.5542 28.192 11.5459 28.1814 11.5354C28.1708 11.5249 28.1624 11.5124 28.1567 11.4986C28.1509 11.4848 28.148 11.47 28.148 11.4551C28.148 11.3921 28.199 11.3391 28.262 11.3401ZM19.732 11.9021C19.7475 11.9013 19.7631 11.9037 19.7777 11.9091C19.7923 11.9145 19.8056 11.9229 19.8168 11.9336C19.8281 11.9444 19.837 11.9574 19.843 11.9717C19.8491 11.9861 19.8521 12.0015 19.852 12.0171C19.852 12.0791 19.802 12.1321 19.74 12.1331C19.7098 12.1326 19.6811 12.1202 19.6599 12.0987C19.6388 12.0772 19.627 12.0483 19.627 12.0181C19.627 11.9581 19.673 11.9061 19.732 11.9021ZM28.252 11.9021C28.2675 11.9013 28.2831 11.9037 28.2977 11.9091C28.3123 11.9145 28.3256 11.9229 28.3368 11.9336C28.3481 11.9444 28.357 11.9574 28.363 11.9717C28.3691 11.9861 28.3721 12.0015 28.372 12.0171C28.371 12.0791 28.321 12.1321 28.26 12.1331C28.2296 12.1328 28.2006 12.1206 28.1793 12.0991C28.1579 12.0775 28.146 12.0484 28.146 12.0181C28.146 11.9581 28.192 11.9061 28.252 11.9021ZM19.732 12.4651C19.7475 12.4643 19.7631 12.4667 19.7777 12.4721C19.7923 12.4775 19.8056 12.4859 19.8168 12.4966C19.8281 12.5074 19.837 12.5204 19.843 12.5347C19.8491 12.5491 19.8521 12.5645 19.852 12.5801C19.852 12.6411 19.802 12.6951 19.74 12.6951C19.7098 12.6946 19.6811 12.6822 19.6599 12.6607C19.6388 12.6392 19.627 12.6103 19.627 12.5801C19.627 12.5201 19.673 12.4681 19.732 12.4651ZM28.252 12.4651C28.2675 12.4643 28.2831 12.4667 28.2977 12.4721C28.3123 12.4775 28.3256 12.4859 28.3368 12.4966C28.3481 12.5074 28.357 12.5204 28.363 12.5347C28.3691 12.5491 28.3721 12.5645 28.372 12.5801C28.371 12.6411 28.321 12.6951 28.26 12.6951C28.2296 12.6948 28.2006 12.6826 28.1793 12.6611C28.1579 12.6395 28.146 12.6104 28.146 12.5801C28.146 12.5201 28.192 12.4681 28.252 12.4651ZM19.732 13.0271C19.7473 13.0263 19.7627 13.0286 19.7772 13.0339C19.7917 13.0392 19.8049 13.0474 19.8161 13.058C19.8273 13.0685 19.8363 13.0812 19.8424 13.0954C19.8486 13.1095 19.8518 13.1247 19.852 13.1401C19.852 13.1699 19.8401 13.1986 19.819 13.2197C19.7979 13.2408 19.7693 13.2526 19.7395 13.2526C19.7096 13.2526 19.681 13.2408 19.6599 13.2197C19.6388 13.1986 19.627 13.1699 19.627 13.1401C19.627 13.0821 19.674 13.0311 19.732 13.0271ZM28.252 13.0271C28.2673 13.0263 28.2827 13.0286 28.2972 13.0339C28.3117 13.0392 28.3249 13.0474 28.3361 13.058C28.3473 13.0685 28.3563 13.0812 28.3624 13.0954C28.3686 13.1095 28.3718 13.1247 28.372 13.1401C28.372 13.1701 28.3601 13.1988 28.3389 13.22C28.3177 13.2412 28.2889 13.2531 28.259 13.2531C28.229 13.2531 28.2002 13.2412 28.1791 13.22C28.1579 13.1988 28.146 13.1701 28.146 13.1401C28.146 13.0821 28.193 13.0311 28.252 13.0271ZM19.732 13.5901C19.7473 13.5893 19.7627 13.5916 19.7772 13.5969C19.7917 13.6022 19.8049 13.6104 19.8161 13.621C19.8273 13.6315 19.8363 13.6442 19.8424 13.6584C19.8486 13.6725 19.8518 13.6877 19.852 13.7031C19.852 13.7329 19.8401 13.7616 19.819 13.7827C19.7979 13.8038 19.7693 13.8156 19.7395 13.8156C19.7096 13.8156 19.681 13.8038 19.6599 13.7827C19.6388 13.7616 19.627 13.7329 19.627 13.7031C19.627 13.6441 19.674 13.5931 19.732 13.5901ZM28.252 13.5901C28.2673 13.5893 28.2827 13.5916 28.2972 13.5969C28.3117 13.6022 28.3249 13.6104 28.3361 13.621C28.3473 13.6315 28.3563 13.6442 28.3624 13.6584C28.3686 13.6725 28.3718 13.6877 28.372 13.7031C28.372 13.7331 28.3601 13.7618 28.3389 13.783C28.3177 13.8042 28.2889 13.8161 28.259 13.8161C28.229 13.8161 28.2002 13.8042 28.1791 13.783C28.1579 13.7618 28.146 13.7331 28.146 13.7031C28.146 13.6441 28.193 13.5931 28.252 13.5901ZM19.732 14.1521C19.7473 14.1513 19.7627 14.1536 19.7772 14.1589C19.7917 14.1642 19.8049 14.1724 19.8161 14.183C19.8273 14.1935 19.8363 14.2062 19.8424 14.2204C19.8486 14.2345 19.8518 14.2497 19.852 14.2651C19.852 14.2949 19.8401 14.3236 19.819 14.3447C19.7979 14.3658 19.7693 14.3776 19.7395 14.3776C19.7096 14.3776 19.681 14.3658 19.6599 14.3447C19.6388 14.3236 19.627 14.2949 19.627 14.2651C19.627 14.2071 19.674 14.1551 19.732 14.1521ZM28.252 14.1521C28.2673 14.1513 28.2827 14.1536 28.2972 14.1589C28.3117 14.1642 28.3249 14.1724 28.3361 14.183C28.3473 14.1935 28.3563 14.2062 28.3624 14.2204C28.3686 14.2345 28.3718 14.2497 28.372 14.2651C28.372 14.2951 28.3601 14.3238 28.3389 14.345C28.3177 14.3662 28.2889 14.3781 28.259 14.3781C28.229 14.3781 28.2002 14.3662 28.1791 14.345C28.1579 14.3238 28.146 14.2951 28.146 14.2651C28.146 14.2071 28.193 14.1551 28.252 14.1521ZM19.721 14.7151H19.74C19.7621 14.7153 19.7837 14.7221 19.802 14.7345C19.8203 14.747 19.8345 14.7646 19.8428 14.7852C19.8511 14.8057 19.8531 14.8283 19.8486 14.8499C19.8441 14.8716 19.8332 14.8915 19.8174 14.907C19.8016 14.9225 19.7816 14.933 19.7598 14.9371C19.7381 14.9413 19.7156 14.9389 19.6952 14.9302C19.6748 14.9215 19.6574 14.907 19.6453 14.8885C19.6331 14.87 19.6268 14.8483 19.627 14.8261C19.627 14.7711 19.667 14.7221 19.721 14.7151ZM28.241 14.7151H28.26C28.2821 14.7155 28.3036 14.7224 28.3217 14.735C28.3399 14.7476 28.3539 14.7653 28.3621 14.7859C28.3702 14.8064 28.3721 14.8289 28.3675 14.8505C28.3628 14.8722 28.3519 14.8919 28.3361 14.9073C28.3202 14.9228 28.3002 14.9332 28.2785 14.9372C28.2567 14.9412 28.2343 14.9388 28.214 14.9301C28.1936 14.9214 28.1763 14.9069 28.1642 14.8884C28.1521 14.8699 28.1458 14.8482 28.146 14.8261C28.146 14.7711 28.186 14.7221 28.24 14.7151H28.241ZM19.721 15.2771H19.74C19.802 15.2781 19.851 15.3271 19.852 15.3891C19.8516 15.4104 19.8453 15.4311 19.8336 15.4489C19.822 15.4667 19.8055 15.4808 19.7861 15.4895C19.7667 15.4983 19.7452 15.5014 19.7242 15.4984C19.7031 15.4954 19.6834 15.4864 19.6672 15.4726C19.651 15.4588 19.6391 15.4407 19.6329 15.4203C19.6267 15.4 19.6263 15.3783 19.632 15.3578C19.6376 15.3373 19.649 15.3188 19.6647 15.3045C19.6805 15.2902 19.7 15.2807 19.721 15.2771ZM28.241 15.2771H28.26C28.321 15.2781 28.37 15.3271 28.371 15.3891C28.3707 15.4104 28.3643 15.4312 28.3526 15.4491C28.3409 15.4669 28.3244 15.481 28.305 15.4898C28.2855 15.4985 28.264 15.5016 28.2429 15.4985C28.2218 15.4954 28.202 15.4864 28.1859 15.4725C28.1697 15.4586 28.1579 15.4404 28.1517 15.4199C28.1456 15.3995 28.1454 15.3778 28.1512 15.3573C28.157 15.3367 28.1685 15.3183 28.1844 15.3041C28.2003 15.2899 28.2199 15.2805 28.241 15.2771ZM19.742 15.8371C19.805 15.8391 19.854 15.8911 19.853 15.9531C19.853 15.9828 19.8412 16.0113 19.8202 16.0323C19.7991 16.0533 19.7707 16.0651 19.741 16.0651C19.7113 16.0651 19.6828 16.0533 19.6618 16.0323C19.6408 16.0113 19.629 15.9828 19.629 15.9531C19.629 15.8901 19.679 15.8371 19.742 15.8381V15.8371ZM28.262 15.8371C28.324 15.8391 28.374 15.8911 28.373 15.9531C28.373 15.9829 28.3611 16.0116 28.34 16.0327C28.3189 16.0538 28.2903 16.0656 28.2605 16.0656C28.2306 16.0656 28.202 16.0538 28.1809 16.0327C28.1598 16.0116 28.148 15.9829 28.148 15.9531C28.148 15.8901 28.199 15.8371 28.262 15.8381V15.8371ZM19.732 16.4001C19.7475 16.3993 19.7631 16.4017 19.7777 16.4071C19.7923 16.4125 19.8056 16.4209 19.8168 16.4316C19.8281 16.4424 19.837 16.4554 19.843 16.4697C19.8491 16.4841 19.8521 16.4995 19.852 16.5151C19.852 16.5297 19.849 16.5442 19.8434 16.5577C19.8377 16.5712 19.8295 16.5834 19.819 16.5936C19.8086 16.6039 19.7962 16.6119 19.7827 16.6173C19.7691 16.6227 19.7546 16.6254 19.74 16.6251C19.7253 16.6255 19.7106 16.623 19.6969 16.6176C19.6832 16.6123 19.6708 16.6042 19.6602 16.594C19.6497 16.5837 19.6413 16.5715 19.6356 16.5579C19.6299 16.5444 19.627 16.5298 19.627 16.5151C19.627 16.4551 19.673 16.4041 19.732 16.4001ZM28.252 16.4001C28.2675 16.3993 28.2831 16.4017 28.2977 16.4071C28.3123 16.4125 28.3256 16.4209 28.3368 16.4316C28.3481 16.4424 28.357 16.4554 28.363 16.4697C28.3691 16.4841 28.3721 16.4995 28.372 16.5151C28.372 16.5297 28.369 16.5442 28.3634 16.5577C28.3577 16.5712 28.3495 16.5834 28.339 16.5936C28.3286 16.6039 28.3162 16.6119 28.3027 16.6173C28.2891 16.6227 28.2746 16.6254 28.26 16.6251C28.2452 16.6256 28.2304 16.6232 28.2166 16.6179C28.2028 16.6126 28.1902 16.6046 28.1796 16.5943C28.1689 16.5841 28.1605 16.5718 28.1547 16.5582C28.1489 16.5445 28.1459 16.5299 28.146 16.5151C28.146 16.4551 28.192 16.4041 28.252 16.4001ZM17.205 16.5101C17.3296 16.5085 17.4532 16.5315 17.5689 16.5778C17.6846 16.6241 17.79 16.6929 17.879 16.7801C17.9684 16.8668 18.0398 16.9703 18.089 17.0847C18.1383 17.1991 18.1645 17.322 18.1661 17.4466C18.1676 17.5711 18.1446 17.6947 18.0982 17.8103C18.0519 17.9259 17.9831 18.0312 17.896 18.1201L16.088 19.9781C16.0013 20.0676 15.8979 20.1391 15.7835 20.1884C15.6692 20.2378 15.5462 20.264 15.4217 20.2657C15.2972 20.2674 15.1735 20.2444 15.0579 20.1982C14.9423 20.1519 14.837 20.0832 14.748 19.9961C14.6585 19.9095 14.587 19.806 14.5376 19.6917C14.4883 19.5774 14.462 19.4544 14.4603 19.3299C14.4587 19.2053 14.4816 19.0817 14.5279 18.9661C14.5742 18.8504 14.6428 18.7451 14.73 18.6561L16.54 16.7991C16.6262 16.7093 16.7294 16.6375 16.8435 16.5878C16.9576 16.538 17.0805 16.5113 17.205 16.5091V16.5101ZM24.893 16.5101C25.0174 16.5086 25.1409 16.5317 25.2564 16.578C25.3719 16.6243 25.4771 16.693 25.566 16.7801C25.6554 16.8667 25.7269 16.9702 25.7763 17.0845C25.8256 17.1989 25.8519 17.3218 25.8536 17.4464C25.8552 17.5709 25.8323 17.6945 25.786 17.8102C25.7397 17.9258 25.6711 18.0311 25.584 18.1201L23.775 19.9781C23.6883 20.0676 23.5849 20.1391 23.4705 20.1884C23.3562 20.2378 23.2332 20.264 23.1087 20.2657C22.9842 20.2674 22.8605 20.2444 22.7449 20.1982C22.6293 20.1519 22.524 20.0832 22.435 19.9961C22.3455 19.9094 22.2742 19.8059 22.2249 19.6915C22.1756 19.5772 22.1494 19.4542 22.1479 19.3296C22.1463 19.2051 22.1693 19.0815 22.2157 18.9659C22.262 18.8503 22.3308 18.745 22.418 18.6561L24.227 16.7991C24.3133 16.7092 24.4167 16.6373 24.531 16.5876C24.6453 16.5378 24.7683 16.5111 24.893 16.5091V16.5101ZM32.58 16.5101C32.7046 16.5085 32.8282 16.5315 32.9439 16.5778C33.0596 16.6241 33.165 16.6929 33.254 16.7801C33.3434 16.8667 33.4149 16.9702 33.4643 17.0845C33.5136 17.1989 33.5399 17.3218 33.5416 17.4464C33.5432 17.5709 33.5203 17.6945 33.474 17.8102C33.4277 17.9258 33.3591 18.0311 33.272 18.1201L31.462 19.9781C31.3753 20.0674 31.272 20.1388 31.1577 20.1881C31.0435 20.2373 30.9206 20.2635 30.7962 20.2652C30.6718 20.2669 30.5483 20.244 30.4327 20.1978C30.3172 20.1516 30.2119 20.0831 30.123 19.9961C30.0335 19.9095 29.962 19.806 29.9126 19.6917C29.8633 19.5774 29.837 19.4544 29.8353 19.3299C29.8337 19.2053 29.8566 19.0817 29.9029 18.9661C29.9492 18.8504 30.0178 18.7451 30.105 18.6561L31.915 16.7991C32.0012 16.7093 32.1044 16.6375 32.2185 16.5878C32.3326 16.538 32.4555 16.5113 32.58 16.5091V16.5101ZM19.732 17.5251C19.7472 17.524 19.7626 17.5261 19.777 17.5311C19.7915 17.5362 19.8048 17.5442 19.816 17.5546C19.8273 17.565 19.8363 17.5776 19.8424 17.5916C19.8486 17.6057 19.8519 17.6208 19.852 17.6361C19.852 17.6991 19.802 17.7531 19.74 17.7541C19.7095 17.7533 19.6807 17.7406 19.6595 17.7187C19.6384 17.6968 19.6267 17.6675 19.627 17.6371C19.627 17.5771 19.674 17.5291 19.732 17.5251ZM28.252 17.5251C28.2672 17.524 28.2826 17.5261 28.297 17.5311C28.3115 17.5362 28.3248 17.5442 28.336 17.5546C28.3473 17.565 28.3563 17.5776 28.3624 17.5916C28.3686 17.6057 28.3719 17.6208 28.372 17.6361C28.372 17.6991 28.322 17.7531 28.26 17.7541C28.2294 17.7536 28.2002 17.741 28.1789 17.7191C28.1575 17.6972 28.1457 17.6677 28.146 17.6371C28.146 17.5771 28.193 17.5291 28.252 17.5251ZM19.732 18.0881C19.7472 18.087 19.7626 18.0891 19.777 18.0941C19.7915 18.0992 19.8048 18.1072 19.816 18.1176C19.8273 18.128 19.8363 18.1406 19.8424 18.1546C19.8486 18.1687 19.8519 18.1838 19.852 18.1991C19.852 18.2611 19.802 18.3141 19.74 18.3141C19.725 18.314 19.7102 18.3109 19.6964 18.3051C19.6826 18.2992 19.6701 18.2907 19.6596 18.28C19.6491 18.2693 19.6409 18.2567 19.6353 18.2428C19.6296 18.2289 19.6268 18.2141 19.627 18.1991C19.627 18.1401 19.674 18.0911 19.732 18.0881ZM28.252 18.0881C28.2672 18.087 28.2826 18.0891 28.297 18.0941C28.3115 18.0992 28.3248 18.1072 28.336 18.1176C28.3473 18.128 28.3563 18.1406 28.3624 18.1546C28.3686 18.1687 28.3719 18.1838 28.372 18.1991C28.372 18.2611 28.322 18.3141 28.26 18.3141C28.2449 18.3141 28.23 18.3111 28.2161 18.3053C28.2022 18.2995 28.1896 18.2911 28.179 18.2804C28.1684 18.2697 28.16 18.257 28.1543 18.243C28.1487 18.2291 28.1458 18.2142 28.146 18.1991C28.146 18.1401 28.193 18.0911 28.252 18.0881ZM19.732 18.6501C19.7472 18.649 19.7626 18.6511 19.777 18.6561C19.7915 18.6612 19.8048 18.6692 19.816 18.6796C19.8273 18.69 19.8363 18.7026 19.8424 18.7166C19.8486 18.7307 19.8519 18.7458 19.852 18.7611C19.8523 18.783 19.8462 18.8045 19.8345 18.823C19.8227 18.8414 19.8058 18.856 19.7859 18.865C19.7659 18.874 19.7437 18.8769 19.7221 18.8734C19.7005 18.8699 19.6804 18.8602 19.6643 18.8454C19.6482 18.8306 19.6367 18.8114 19.6314 18.7902C19.626 18.769 19.627 18.7466 19.6342 18.726C19.6414 18.7053 19.6545 18.6872 19.6719 18.6739C19.6892 18.6606 19.7101 18.6527 19.732 18.6511V18.6501ZM28.252 18.6501C28.2672 18.649 28.2826 18.6511 28.297 18.6561C28.3115 18.6612 28.3248 18.6692 28.336 18.6796C28.3473 18.69 28.3563 18.7026 28.3624 18.7166C28.3686 18.7307 28.3719 18.7458 28.372 18.7611C28.3723 18.783 28.3662 18.8045 28.3545 18.823C28.3427 18.8414 28.3258 18.856 28.3059 18.865C28.2859 18.874 28.2637 18.8769 28.2421 18.8734C28.2205 18.8699 28.2004 18.8602 28.1843 18.8454C28.1682 18.8306 28.1567 18.8114 28.1514 18.7902C28.146 18.769 28.147 18.7466 28.1542 18.726C28.1614 18.7053 28.1745 18.6872 28.1919 18.6739C28.2092 18.6606 28.2301 18.6527 28.252 18.6511V18.6501ZM19.721 19.2131H19.74C19.7624 19.2131 19.7843 19.2198 19.8029 19.2323C19.8216 19.2448 19.836 19.2626 19.8445 19.2833C19.853 19.3041 19.8551 19.3269 19.8506 19.3489C19.8461 19.3709 19.8351 19.391 19.8191 19.4067C19.8031 19.4224 19.7828 19.433 19.7607 19.4372C19.7387 19.4413 19.7159 19.4388 19.6953 19.4299C19.6747 19.4211 19.6572 19.4063 19.645 19.3874C19.6328 19.3686 19.6266 19.3465 19.627 19.3241C19.627 19.2691 19.667 19.2201 19.721 19.2131ZM28.241 19.2131H28.26C28.2821 19.2135 28.3036 19.2204 28.3217 19.233C28.3399 19.2456 28.3539 19.2633 28.3621 19.2839C28.3702 19.3044 28.3721 19.3269 28.3675 19.3485C28.3628 19.3701 28.3519 19.3899 28.3361 19.4053C28.3202 19.4208 28.3002 19.4312 28.2785 19.4352C28.2567 19.4392 28.2343 19.4368 28.214 19.4281C28.1936 19.4194 28.1763 19.4049 28.1642 19.3864C28.1521 19.3679 28.1458 19.3462 28.146 19.3241C28.146 19.2691 28.186 19.2201 28.24 19.2131H28.241ZM19.742 19.7731C19.805 19.7741 19.854 19.8251 19.853 19.8871C19.853 19.9481 19.803 20.0001 19.743 20.0001C19.7129 20.0001 19.684 19.9882 19.6627 19.9671C19.6413 19.9459 19.6292 19.9172 19.629 19.8871C19.629 19.8241 19.679 19.7731 19.742 19.7731ZM28.262 19.7731C28.324 19.7741 28.374 19.8251 28.373 19.8871C28.373 19.9481 28.323 20.0001 28.262 20.0001C28.2319 20.0001 28.203 19.9882 28.1817 19.9671C28.1603 19.9459 28.1482 19.9172 28.148 19.8871C28.148 19.8241 28.199 19.7731 28.262 19.7731ZM19.732 20.3361C19.7323 20.3648 19.7215 20.3925 19.702 20.4136C19.6825 20.4346 19.6556 20.4473 19.627 20.4491C19.627 20.3891 19.673 20.3391 19.732 20.3361ZM28.252 20.3361C28.2523 20.3648 28.2415 20.3925 28.222 20.4136C28.2025 20.4346 28.1756 20.4473 28.147 20.4491C28.146 20.3891 28.192 20.3391 28.252 20.3361ZM17.205 21.7681V21.7701C17.3296 21.7685 17.4532 21.7915 17.5689 21.8378C17.6846 21.8841 17.79 21.9529 17.879 22.0401C17.9682 22.1268 18.0395 22.2302 18.0887 22.3445C18.1378 22.4588 18.164 22.5817 18.1656 22.7061C18.1671 22.8305 18.1441 22.954 18.0979 23.0695C18.0516 23.185 17.983 23.2902 17.896 23.3791L16.088 25.2391C16.0014 25.3297 15.8978 25.4021 15.7831 25.4524C15.6683 25.5026 15.5448 25.5297 15.4196 25.5319C15.2943 25.5341 15.1699 25.5115 15.0535 25.4654C14.937 25.4192 14.8309 25.3505 14.7412 25.2631C14.6514 25.1757 14.5799 25.0714 14.5308 24.9562C14.4816 24.841 14.4558 24.7172 14.4547 24.5919C14.4537 24.4667 14.4775 24.3425 14.5247 24.2265C14.5719 24.1105 14.6417 24.005 14.73 23.9161L16.54 22.0591C16.6263 21.9693 16.7294 21.8974 16.8435 21.8474C16.9576 21.7975 17.0804 21.7706 17.205 21.7681ZM24.893 21.7681V21.7701C25.0174 21.7686 25.1409 21.7917 25.2564 21.838C25.3719 21.8843 25.4771 21.953 25.566 22.0401C25.6553 22.1267 25.7266 22.2301 25.7759 22.3444C25.8252 22.4586 25.8514 22.5815 25.8531 22.7059C25.8547 22.8303 25.8318 22.9538 25.7856 23.0693C25.7395 23.1849 25.6709 23.2901 25.584 23.3791L23.775 25.2391C23.6891 25.3324 23.5854 25.4076 23.47 25.4602C23.3546 25.5127 23.2298 25.5415 23.103 25.545C22.9763 25.5484 22.8501 25.5264 22.732 25.4802C22.6139 25.4341 22.5062 25.3647 22.4154 25.2761C22.3246 25.1876 22.2525 25.0818 22.2034 24.9649C22.1542 24.848 22.129 24.7224 22.1292 24.5956C22.1295 24.4688 22.1551 24.3433 22.2047 24.2266C22.2543 24.1099 22.3268 24.0043 22.418 23.9161L24.227 22.0591C24.3134 21.9692 24.4167 21.8972 24.531 21.8473C24.6452 21.7973 24.7683 21.7704 24.893 21.7681ZM32.58 21.7681V21.7701C32.7046 21.7685 32.8282 21.7915 32.9439 21.8378C33.0596 21.8841 33.165 21.9529 33.254 22.0401C33.3433 22.1267 33.4146 22.2301 33.4639 22.3444C33.5132 22.4586 33.5394 22.5815 33.5411 22.7059C33.5427 22.8303 33.5198 22.9538 33.4736 23.0693C33.4275 23.1849 33.3589 23.2901 33.272 23.3791L31.462 25.2391C31.3761 25.3324 31.2724 25.4076 31.157 25.4602C31.0416 25.5127 30.9168 25.5415 30.79 25.545C30.6633 25.5484 30.5371 25.5264 30.419 25.4802C30.3009 25.4341 30.1932 25.3647 30.1024 25.2761C30.0116 25.1876 29.9395 25.0818 29.8904 24.9649C29.8412 24.848 29.816 24.7224 29.8162 24.5956C29.8165 24.4688 29.8421 24.3433 29.8917 24.2266C29.9413 24.1099 30.0138 24.0043 30.105 23.9161L31.915 22.0591C32.0013 21.9693 32.1044 21.8974 32.2185 21.8474C32.3326 21.7975 32.4554 21.7706 32.58 21.7681ZM19.721 23.7111H19.74C19.7621 23.7113 19.7837 23.7181 19.802 23.7305C19.8203 23.743 19.8345 23.7606 19.8428 23.7812C19.8511 23.8017 19.8531 23.8243 19.8486 23.8459C19.8441 23.8676 19.8332 23.8875 19.8174 23.903C19.8016 23.9185 19.7816 23.929 19.7598 23.9331C19.7381 23.9373 19.7156 23.9349 19.6952 23.9262C19.6748 23.9175 19.6574 23.903 19.6453 23.8845C19.6331 23.866 19.6268 23.8443 19.627 23.8221C19.627 23.7671 19.667 23.7181 19.721 23.7111ZM28.241 23.7111H28.26C28.2821 23.7115 28.3036 23.7184 28.3217 23.731C28.3399 23.7436 28.3539 23.7613 28.3621 23.7819C28.3702 23.8024 28.3721 23.8249 28.3675 23.8465C28.3628 23.8682 28.3519 23.8879 28.3361 23.9033C28.3202 23.9188 28.3002 23.9292 28.2785 23.9332C28.2567 23.9373 28.2343 23.9348 28.214 23.9261C28.1936 23.9174 28.1763 23.9029 28.1642 23.8844C28.1521 23.8659 28.1458 23.8442 28.146 23.8221C28.146 23.7671 28.186 23.7181 28.24 23.7111H28.241ZM19.721 24.2741H19.74C19.802 24.2741 19.851 24.3241 19.852 24.3841C19.8493 24.4121 19.8363 24.4381 19.8155 24.4571C19.7947 24.476 19.7676 24.4865 19.7395 24.4865C19.7113 24.4865 19.6842 24.476 19.6634 24.4571C19.6426 24.4381 19.6296 24.4121 19.627 24.3841C19.6267 24.3575 19.636 24.3317 19.6533 24.3115C19.6706 24.2913 19.6946 24.278 19.721 24.2741ZM28.241 24.2741H28.26C28.321 24.2741 28.37 24.3241 28.371 24.3841C28.371 24.4138 28.3592 24.4423 28.3382 24.4633C28.3171 24.4843 28.2887 24.4961 28.259 24.4961C28.2293 24.4961 28.2008 24.4843 28.1798 24.4633C28.1588 24.4423 28.147 24.4138 28.147 24.3841C28.1466 24.3577 28.1559 24.332 28.1729 24.3118C28.19 24.2916 28.2138 24.2782 28.24 24.2741H28.241ZM17.203 27.0271C17.3275 27.0255 17.4512 27.0485 17.5669 27.0949C17.6826 27.1412 17.7879 27.2099 17.877 27.2971C17.9664 27.3837 18.0379 27.4872 18.0873 27.6015C18.1366 27.7159 18.1629 27.8388 18.1646 27.9634C18.1662 28.0879 18.1433 28.2115 18.097 28.3272C18.0507 28.4428 17.9821 28.5481 17.895 28.6371L16.085 30.4971C15.9983 30.5864 15.8948 30.6576 15.7806 30.7068C15.6663 30.756 15.5434 30.7821 15.419 30.7837C15.2946 30.7853 15.1711 30.7623 15.0556 30.716C14.9401 30.6698 14.8349 30.6011 14.746 30.5141C14.6565 30.4275 14.585 30.324 14.5356 30.2097C14.4863 30.0954 14.46 29.9724 14.4583 29.8479C14.4567 29.7233 14.4796 29.5997 14.5259 29.4841C14.5722 29.3684 14.6408 29.2631 14.728 29.1741L16.538 27.3161C16.6243 27.2266 16.7276 27.155 16.8417 27.1054C16.9558 27.0558 17.0786 27.0292 17.203 27.0271ZM24.891 27.0271C25.0155 27.0255 25.1392 27.0485 25.2549 27.0949C25.3706 27.1412 25.4759 27.2099 25.565 27.2971C25.6544 27.3838 25.7258 27.4873 25.775 27.6017C25.8243 27.7161 25.8505 27.8391 25.8521 27.9636C25.8536 28.0881 25.8306 28.2117 25.7842 28.3273C25.7379 28.4429 25.6691 28.5482 25.582 28.6371L23.773 30.4971C23.6863 30.5865 23.5828 30.6579 23.4684 30.7072C23.354 30.7565 23.231 30.7826 23.1065 30.7842C22.982 30.7858 22.8584 30.7627 22.7428 30.7164C22.6272 30.67 22.5219 30.6013 22.433 30.5141C22.3435 30.4274 22.2722 30.3239 22.2229 30.2095C22.1736 30.0952 22.1474 29.9722 22.1459 29.8476C22.1443 29.7231 22.1673 29.5995 22.2137 29.4839C22.26 29.3683 22.3288 29.263 22.416 29.1741L24.225 27.3161C24.3115 27.2265 24.4148 27.1548 24.5291 27.1052C24.6434 27.0556 24.7664 27.0291 24.891 27.0271ZM32.578 27.0271C32.7025 27.0255 32.8262 27.0485 32.9419 27.0949C33.0576 27.1412 33.1629 27.2099 33.252 27.2971C33.3414 27.3838 33.4128 27.4873 33.462 27.6017C33.5113 27.7161 33.5375 27.8391 33.5391 27.9636C33.5406 28.0881 33.5176 28.2117 33.4712 28.3273C33.4249 28.4429 33.3561 28.5482 33.269 28.6371L31.461 30.4971C31.3743 30.5865 31.2708 30.6579 31.1564 30.7072C31.042 30.7565 30.919 30.7826 30.7945 30.7842C30.67 30.7858 30.5464 30.7627 30.4308 30.7164C30.3152 30.67 30.2099 30.6013 30.121 30.5141C30.0315 30.4274 29.9602 30.3239 29.9109 30.2095C29.8616 30.0952 29.8354 29.9722 29.8339 29.8476C29.8323 29.7231 29.8553 29.5995 29.9017 29.4839C29.948 29.3683 30.0168 29.263 30.104 29.1741L31.912 27.3161C31.9985 27.2265 32.1018 27.1548 32.2161 27.1052C32.3304 27.0556 32.4534 27.0291 32.578 27.0271ZM19.721 28.2091H19.74C19.802 28.2091 19.851 28.2591 19.852 28.3201C19.8518 28.3414 19.8456 28.3623 19.8341 28.3802C19.8225 28.3981 19.8061 28.4123 19.7868 28.4212C19.7674 28.4301 19.7459 28.4333 19.7248 28.4305C19.7037 28.4276 19.6838 28.4187 19.6676 28.4049C19.6513 28.3912 19.6393 28.373 19.633 28.3527C19.6267 28.3323 19.6263 28.3106 19.6319 28.29C19.6375 28.2695 19.6489 28.2509 19.6646 28.2366C19.6804 28.2223 19.7 28.2127 19.721 28.2091ZM28.241 28.2091H28.26C28.321 28.2091 28.37 28.2591 28.371 28.3201C28.3709 28.3415 28.3647 28.3624 28.3531 28.3803C28.3415 28.3983 28.3251 28.4126 28.3056 28.4215C28.2862 28.4304 28.2647 28.4335 28.2435 28.4306C28.2224 28.4276 28.2025 28.4187 28.1862 28.4048C28.17 28.391 28.158 28.3727 28.1518 28.3523C28.1456 28.3319 28.1453 28.3101 28.1511 28.2895C28.1568 28.2689 28.1684 28.2504 28.1843 28.2362C28.2002 28.2219 28.2199 28.2125 28.241 28.2091ZM19.742 28.7691C19.7567 28.7692 19.7713 28.7723 19.7849 28.7781C19.7985 28.7838 19.8109 28.7922 19.8212 28.8028C19.8316 28.8133 19.8397 28.8258 19.8453 28.8395C19.8508 28.8532 19.8536 28.8678 19.8535 28.8826C19.8533 28.8974 19.8503 28.912 19.8445 28.9256C19.8387 28.9392 19.8303 28.9515 19.8198 28.9619C19.8093 28.9722 19.7968 28.9804 19.7831 28.9859C19.7694 28.9915 19.7547 28.9942 19.74 28.9941C19.7103 28.9938 19.6819 28.9818 19.6611 28.9606C19.6402 28.9394 19.6287 28.9108 19.629 28.8811C19.6292 28.8514 19.6413 28.823 19.6625 28.8022C19.6837 28.7814 19.7123 28.7698 19.742 28.7701V28.7691ZM28.262 28.7691C28.2767 28.7692 28.2913 28.7723 28.3049 28.7781C28.3185 28.7838 28.3309 28.7922 28.3412 28.8028C28.3516 28.8133 28.3597 28.8258 28.3653 28.8395C28.3708 28.8532 28.3736 28.8678 28.3735 28.8826C28.3733 28.8974 28.3703 28.912 28.3645 28.9256C28.3587 28.9392 28.3503 28.9515 28.3398 28.9619C28.3293 28.9722 28.3168 28.9804 28.3031 28.9859C28.2894 28.9915 28.2747 28.9942 28.26 28.9941C28.2303 28.9938 28.2019 28.9818 28.1811 28.9606C28.1602 28.9394 28.1487 28.9108 28.149 28.8811C28.1492 28.8514 28.1613 28.823 28.1825 28.8022C28.2037 28.7814 28.2323 28.7698 28.262 28.7701V28.7691ZM19.732 29.3321H19.74C19.7696 29.3332 19.7976 29.3458 19.818 29.3673C19.8383 29.3888 19.8495 29.4174 19.8489 29.447C19.8484 29.4767 19.8363 29.5049 19.8151 29.5256C19.794 29.5464 19.7656 29.558 19.736 29.558C19.7063 29.558 19.6779 29.5464 19.6568 29.5256C19.6356 29.5049 19.6235 29.4767 19.623 29.447C19.6224 29.4174 19.6336 29.3888 19.654 29.3673C19.6743 29.3458 19.7024 29.3332 19.732 29.3321ZM28.252 29.3321H28.26C28.2893 29.3332 28.317 29.3457 28.3372 29.367C28.3574 29.3883 28.3685 29.4167 28.3679 29.446C28.3674 29.4754 28.3554 29.5034 28.3344 29.5239C28.3135 29.5445 28.2853 29.556 28.256 29.556C28.2266 29.556 28.1984 29.5445 28.1775 29.5239C28.1565 29.5034 28.1445 29.4754 28.144 29.446C28.1434 29.4167 28.1545 29.3883 28.1747 29.367C28.1949 29.3457 28.2226 29.3332 28.252 29.3321ZM19.732 29.8951H19.74C19.7696 29.8962 19.7976 29.9088 19.818 29.9303C19.8383 29.9518 19.8495 29.9804 19.8489 30.01C19.8484 30.0397 19.8363 30.0679 19.8151 30.0886C19.794 30.1094 19.7656 30.121 19.736 30.121C19.7063 30.121 19.6779 30.1094 19.6568 30.0886C19.6356 30.0679 19.6235 30.0397 19.623 30.01C19.6224 29.9804 19.6336 29.9518 19.654 29.9303C19.6743 29.9088 19.7024 29.8962 19.732 29.8951ZM28.252 29.8951H28.26C28.2893 29.8962 28.317 29.9087 28.3372 29.93C28.3574 29.9513 28.3685 29.9797 28.3679 30.009C28.3674 30.0384 28.3554 30.0664 28.3344 30.0869C28.3135 30.1075 28.2853 30.119 28.256 30.119C28.2266 30.119 28.1984 30.1075 28.1775 30.0869C28.1565 30.0664 28.1445 30.0384 28.144 30.009C28.1434 29.9797 28.1545 29.9513 28.1747 29.93C28.1949 29.9087 28.2226 29.8962 28.252 29.8951ZM19.732 31.0171C19.7473 31.0163 19.7627 31.0186 19.7772 31.0239C19.7917 31.0292 19.8049 31.0374 19.8161 31.048C19.8273 31.0585 19.8363 31.0712 19.8424 31.0854C19.8486 31.0995 19.8518 31.1147 19.852 31.1301C19.852 31.1599 19.8401 31.1886 19.819 31.2097C19.7979 31.2308 19.7693 31.2426 19.7395 31.2426C19.7096 31.2426 19.681 31.2308 19.6599 31.2097C19.6388 31.1886 19.627 31.1599 19.627 31.1301C19.627 31.0721 19.674 31.0211 19.732 31.0181V31.0171ZM28.252 31.0171C28.2673 31.0163 28.2827 31.0186 28.2972 31.0239C28.3117 31.0292 28.3249 31.0374 28.3361 31.048C28.3473 31.0585 28.3563 31.0712 28.3624 31.0854C28.3686 31.0995 28.3718 31.1147 28.372 31.1301C28.372 31.1601 28.3601 31.1888 28.3389 31.21C28.3177 31.2312 28.2889 31.2431 28.259 31.2431C28.229 31.2431 28.2002 31.2312 28.1791 31.21C28.1579 31.1888 28.146 31.1601 28.146 31.1301C28.146 31.0721 28.193 31.0211 28.252 31.0181V31.0171ZM19.721 32.1431H19.74C19.7621 32.1433 19.7838 32.1501 19.8021 32.1626C19.8204 32.1751 19.8346 32.1928 19.8429 32.2134C19.8512 32.234 19.8531 32.2566 19.8485 32.2783C19.8439 32.3 19.833 32.3199 19.8171 32.3354C19.8012 32.3508 19.781 32.3612 19.7592 32.3653C19.7374 32.3693 19.7148 32.3667 19.6945 32.3579C19.6741 32.3491 19.6568 32.3344 19.6448 32.3158C19.6328 32.2971 19.6266 32.2753 19.627 32.2531C19.627 32.1991 19.667 32.1501 19.721 32.1431ZM28.241 32.1431H28.26C28.2821 32.1435 28.3036 32.1505 28.3218 32.1631C28.34 32.1757 28.3541 32.1935 28.3622 32.2141C28.3703 32.2347 28.3721 32.2573 28.3674 32.2789C28.3627 32.3005 28.3516 32.3203 28.3357 32.3357C28.3198 32.3511 28.2996 32.3614 28.2778 32.3653C28.256 32.3692 28.2336 32.3666 28.2132 32.3578C28.1929 32.349 28.1757 32.3343 28.1637 32.3157C28.1517 32.297 28.1456 32.2753 28.146 32.2531C28.146 32.1991 28.186 32.1501 28.24 32.1431H28.241ZM19.721 32.7051H19.74C19.802 32.7051 19.851 32.7551 19.852 32.8161C19.852 32.8781 19.802 32.9291 19.74 32.9301C19.7099 32.9298 19.6812 32.9177 19.66 32.8964C19.6388 32.875 19.627 32.8462 19.627 32.8161C19.627 32.7621 19.667 32.7131 19.721 32.7061V32.7051ZM28.241 32.7051H28.26C28.321 32.7051 28.37 32.7551 28.371 32.8161C28.371 32.8781 28.321 32.9291 28.26 32.9301C28.2297 32.9301 28.2007 32.9181 28.1793 32.8967C28.158 32.8753 28.146 32.8463 28.146 32.8161C28.146 32.7621 28.186 32.7131 28.24 32.7061L28.241 32.7051ZM17.205 33.0251C17.3296 33.0235 17.4532 33.0465 17.5689 33.0928C17.6846 33.1391 17.79 33.2079 17.879 33.2951C17.9684 33.3818 18.0398 33.4853 18.089 33.5997C18.1383 33.7141 18.1645 33.837 18.1661 33.9616C18.1676 34.0861 18.1446 34.2097 18.0982 34.3253C18.0519 34.4409 17.9831 34.5462 17.896 34.6351L16.088 36.4951C16.0013 36.5845 15.8978 36.6559 15.7834 36.7052C15.669 36.7545 15.546 36.7806 15.4215 36.7822C15.297 36.7838 15.1734 36.7607 15.0578 36.7144C14.9422 36.668 14.8369 36.5993 14.748 36.5121C14.6585 36.4255 14.587 36.322 14.5376 36.2077C14.4883 36.0933 14.462 35.9704 14.4603 35.8459C14.4587 35.7213 14.4816 35.5977 14.5279 35.4821C14.5742 35.3664 14.6428 35.2611 14.73 35.1721L16.54 33.3151C16.6262 33.2253 16.7294 33.1535 16.8435 33.1038C16.9576 33.054 17.0805 33.0273 17.205 33.0251ZM24.893 33.0251C25.0174 33.0236 25.1409 33.0467 25.2564 33.093C25.3719 33.1393 25.4771 33.208 25.566 33.2951C25.6554 33.3817 25.7269 33.4852 25.7763 33.5995C25.8256 33.7139 25.8519 33.8368 25.8536 33.9614C25.8552 34.0859 25.8323 34.2095 25.786 34.3252C25.7397 34.4408 25.6711 34.5461 25.584 34.6351L23.775 36.4951C23.6883 36.5845 23.5848 36.6559 23.4704 36.7052C23.356 36.7545 23.233 36.7806 23.1085 36.7822C22.984 36.7838 22.8604 36.7607 22.7448 36.7144C22.6292 36.668 22.5239 36.5993 22.435 36.5121C22.3455 36.4254 22.2742 36.3219 22.2249 36.2075C22.1756 36.0932 22.1494 35.9702 22.1479 35.8456C22.1463 35.7211 22.1693 35.5975 22.2157 35.4819C22.262 35.3663 22.3308 35.261 22.418 35.1721L24.227 33.3151C24.3133 33.2252 24.4167 33.1533 24.531 33.1036C24.6453 33.0538 24.7683 33.0271 24.893 33.0251ZM32.58 33.0251C32.7046 33.0235 32.8282 33.0465 32.9439 33.0928C33.0596 33.1391 33.165 33.2079 33.254 33.2951C33.3434 33.3817 33.4149 33.4852 33.4643 33.5995C33.5136 33.7139 33.5399 33.8368 33.5416 33.9614C33.5432 34.0859 33.5203 34.2095 33.474 34.3252C33.4277 34.4408 33.3591 34.5461 33.272 34.6351L31.462 36.4951C31.3753 36.5844 31.2718 36.6556 31.1576 36.7048C31.0433 36.754 30.9204 36.7801 30.796 36.7817C30.6716 36.7833 30.5481 36.7603 30.4326 36.714C30.3171 36.6678 30.2119 36.5991 30.123 36.5121C30.0335 36.4255 29.962 36.322 29.9126 36.2077C29.8633 36.0933 29.837 35.9704 29.8353 35.8459C29.8337 35.7213 29.8566 35.5977 29.9029 35.4821C29.9492 35.3664 30.0178 35.2611 30.105 35.1721L31.915 33.3151C32.0012 33.2253 32.1044 33.1535 32.2185 33.1038C32.3326 33.054 32.4555 33.0273 32.58 33.0251ZM19.742 33.2651C19.805 33.2661 19.854 33.3191 19.853 33.3811C19.853 33.4103 19.8414 33.4383 19.8207 33.4589C19.8001 33.4795 19.7721 33.4911 19.743 33.4911C19.7282 33.4917 19.7134 33.4892 19.6996 33.4839C19.6858 33.4786 19.6732 33.4706 19.6626 33.4603C19.6519 33.4501 19.6435 33.4378 19.6377 33.4242C19.6319 33.4105 19.6289 33.3959 19.629 33.3811C19.629 33.3181 19.679 33.2651 19.742 33.2661V33.2651ZM28.262 33.2651C28.324 33.2661 28.374 33.3191 28.373 33.3811C28.373 33.3956 28.3701 33.41 28.3645 33.4234C28.3589 33.4369 28.3507 33.449 28.3404 33.4592C28.3301 33.4695 28.3178 33.4776 28.3044 33.483C28.2909 33.4885 28.2765 33.4912 28.262 33.4911C28.2472 33.4917 28.2324 33.4892 28.2186 33.4839C28.2048 33.4786 28.1922 33.4706 28.1816 33.4603C28.1709 33.4501 28.1625 33.4378 28.1567 33.4242C28.1509 33.4105 28.1479 33.3959 28.148 33.3811C28.148 33.3181 28.199 33.2651 28.262 33.2661V33.2651ZM19.732 33.8281H19.74C19.7696 33.8292 19.7976 33.8418 19.818 33.8633C19.8383 33.8848 19.8495 33.9134 19.8489 33.943C19.8484 33.9727 19.8363 34.0009 19.8151 34.0217C19.794 34.0424 19.7656 34.054 19.736 34.054C19.7063 34.054 19.6779 34.0424 19.6568 34.0217C19.6356 34.0009 19.6235 33.9727 19.623 33.943C19.6224 33.9134 19.6336 33.8848 19.654 33.8633C19.6743 33.8418 19.7024 33.8292 19.732 33.8281ZM28.252 33.8281H28.26C28.2893 33.8292 28.317 33.8417 28.3372 33.863C28.3574 33.8843 28.3685 33.9127 28.3679 33.942C28.3674 33.9714 28.3554 33.9994 28.3344 34.0199C28.3135 34.0405 28.2853 34.052 28.256 34.052C28.2266 34.052 28.1984 34.0405 28.1775 34.0199C28.1565 33.9994 28.1445 33.9714 28.144 33.942C28.1434 33.9127 28.1545 33.8843 28.1747 33.863C28.1949 33.8417 28.2226 33.8292 28.252 33.8281ZM19.732 35.5161H19.74C19.7696 35.5172 19.7976 35.5298 19.818 35.5513C19.8383 35.5728 19.8495 35.6014 19.8489 35.631C19.8484 35.6607 19.8363 35.6889 19.8151 35.7097C19.794 35.7304 19.7656 35.742 19.736 35.742C19.7063 35.742 19.6779 35.7304 19.6568 35.7097C19.6356 35.6889 19.6235 35.6607 19.623 35.631C19.6224 35.6014 19.6336 35.5728 19.654 35.5513C19.6743 35.5298 19.7024 35.5172 19.732 35.5161ZM28.252 35.5161H28.26C28.2896 35.5172 28.3176 35.5298 28.338 35.5513C28.3583 35.5728 28.3695 35.6014 28.3689 35.631C28.3684 35.6607 28.3563 35.6889 28.3351 35.7097C28.314 35.7304 28.2856 35.742 28.256 35.742C28.2263 35.742 28.1979 35.7304 28.1768 35.7097C28.1556 35.6889 28.1435 35.6607 28.143 35.631C28.1424 35.6014 28.1536 35.5728 28.174 35.5513C28.1943 35.5298 28.2224 35.5172 28.252 35.5161ZM19.732 36.0781H19.74C19.7696 36.0792 19.7976 36.0918 19.818 36.1133C19.8383 36.1348 19.8495 36.1634 19.8489 36.193C19.8484 36.2227 19.8363 36.2509 19.8151 36.2716C19.794 36.2924 19.7656 36.304 19.736 36.304C19.7063 36.304 19.6779 36.2924 19.6568 36.2716C19.6356 36.2509 19.6235 36.2227 19.623 36.193C19.6224 36.1634 19.6336 36.1348 19.654 36.1133C19.6743 36.0918 19.7024 36.0792 19.732 36.0781ZM28.252 36.0781H28.26C28.2896 36.0792 28.3176 36.0918 28.338 36.1133C28.3583 36.1348 28.3695 36.1634 28.3689 36.193C28.3684 36.2227 28.3563 36.2509 28.3351 36.2716C28.314 36.2924 28.2856 36.304 28.256 36.304C28.2263 36.304 28.1979 36.2924 28.1768 36.2716C28.1556 36.2509 28.1435 36.2227 28.143 36.193C28.1424 36.1634 28.1536 36.1348 28.174 36.1133C28.1943 36.0918 28.2224 36.0792 28.252 36.0781ZM19.732 36.6411H19.74C19.802 36.6411 19.851 36.6911 19.852 36.7521C19.852 36.8141 19.802 36.8671 19.74 36.8671C19.725 36.867 19.7102 36.8639 19.6964 36.8581C19.6826 36.8522 19.6701 36.8437 19.6596 36.833C19.6491 36.8223 19.6409 36.8097 19.6353 36.7958C19.6296 36.7819 19.6268 36.7671 19.627 36.7521C19.627 36.6931 19.674 36.6441 19.732 36.6411ZM28.252 36.6411H28.26C28.321 36.6411 28.37 36.6911 28.371 36.7521C28.371 36.8141 28.321 36.8671 28.26 36.8671C28.2449 36.8671 28.23 36.8641 28.2161 36.8583C28.2022 36.8525 28.1896 36.8441 28.179 36.8334C28.1684 36.8227 28.16 36.81 28.1543 36.796C28.1487 36.7821 28.1458 36.7672 28.146 36.7521C28.146 36.6931 28.193 36.6441 28.252 36.6411ZM19.721 37.2031H19.74C19.802 37.2031 19.851 37.2531 19.852 37.3141C19.8493 37.3421 19.8363 37.3681 19.8155 37.3871C19.7947 37.406 19.7676 37.4165 19.7395 37.4165C19.7113 37.4165 19.6842 37.406 19.6634 37.3871C19.6426 37.3681 19.6296 37.3421 19.627 37.3141C19.6267 37.2875 19.636 37.2617 19.6533 37.2415C19.6706 37.2213 19.6946 37.208 19.721 37.2041V37.2031ZM28.241 37.2031H28.26C28.321 37.2031 28.37 37.2531 28.371 37.3141C28.371 37.3438 28.3592 37.3723 28.3382 37.3933C28.3171 37.4143 28.2887 37.4261 28.259 37.4261C28.2293 37.4261 28.2008 37.4143 28.1798 37.3933C28.1588 37.3723 28.147 37.3438 28.147 37.3141C28.1466 37.2877 28.1559 37.262 28.1729 37.2418C28.19 37.2216 28.2138 37.2082 28.24 37.2041L28.241 37.2031ZM19.732 38.3261C19.7474 38.325 19.7629 38.3271 19.7775 38.3323C19.7921 38.3375 19.8055 38.3457 19.8167 38.3563C19.828 38.3669 19.837 38.3797 19.843 38.394C19.8491 38.4083 19.8521 38.4236 19.852 38.4391C19.852 38.5011 19.802 38.5521 19.74 38.5531C19.71 38.5531 19.6812 38.5412 19.6601 38.52C19.6389 38.4988 19.627 38.4701 19.627 38.4401C19.627 38.3801 19.673 38.3301 19.732 38.3261ZM28.252 38.3261C28.2674 38.325 28.2829 38.3271 28.2975 38.3323C28.3121 38.3375 28.3255 38.3457 28.3367 38.3563C28.348 38.3669 28.357 38.3797 28.363 38.394C28.3691 38.4083 28.3721 38.4236 28.372 38.4391C28.371 38.5011 28.321 38.5521 28.26 38.5531C28.245 38.5532 28.2302 38.5504 28.2164 38.5448C28.2026 38.5392 28.19 38.5309 28.1794 38.5204C28.1688 38.5099 28.1604 38.4974 28.1547 38.4836C28.1489 38.4698 28.146 38.455 28.146 38.4401C28.146 38.3801 28.192 38.3301 28.252 38.3261ZM17.205 38.4611C17.3296 38.4595 17.4532 38.4825 17.5689 38.5288C17.6846 38.5751 17.79 38.6439 17.879 38.7311C17.9684 38.8178 18.0398 38.9213 18.089 39.0357C18.1383 39.1501 18.1645 39.273 18.1661 39.3976C18.1676 39.5221 18.1446 39.6457 18.0982 39.7613C18.0519 39.8769 17.9831 39.9822 17.896 40.0711L16.088 41.9301C16.0016 42.02 15.8983 42.0918 15.784 42.1415C15.6697 42.1912 15.5467 42.2177 15.4221 42.2196C15.2975 42.2214 15.1738 42.1986 15.0581 42.1523C14.9424 42.1061 14.837 42.0373 14.748 41.9501C14.6585 41.8635 14.587 41.76 14.5376 41.6457C14.4883 41.5313 14.462 41.4084 14.4603 41.2839C14.4587 41.1593 14.4816 41.0357 14.5279 40.9201C14.5742 40.8044 14.6428 40.6991 14.73 40.6101L16.54 38.7521C16.6262 38.6623 16.7294 38.5903 16.8435 38.5404C16.9576 38.4904 17.0804 38.4635 17.205 38.4611ZM24.893 38.4611C25.0174 38.4596 25.1409 38.4827 25.2564 38.529C25.3719 38.5753 25.4771 38.644 25.566 38.7311C25.6554 38.8177 25.7269 38.9212 25.7763 39.0355C25.8256 39.1499 25.8519 39.2728 25.8536 39.3974C25.8552 39.5219 25.8323 39.6455 25.786 39.7612C25.7397 39.8768 25.6711 39.9821 25.584 40.0711L23.775 41.9301C23.6886 42.02 23.5853 42.0918 23.471 42.1415C23.3567 42.1912 23.2337 42.2177 23.1091 42.2196C22.9845 42.2214 22.8608 42.1986 22.7451 42.1523C22.6294 42.1061 22.524 42.0373 22.435 41.9501C22.3455 41.8634 22.2742 41.7599 22.2249 41.6455C22.1756 41.5312 22.1494 41.4082 22.1479 41.2836C22.1463 41.1591 22.1693 41.0355 22.2157 40.9199C22.262 40.8043 22.3308 40.699 22.418 40.6101L24.227 38.7521C24.3133 38.6621 24.4166 38.5901 24.5309 38.5402C24.6452 38.4902 24.7683 38.4634 24.893 38.4611ZM32.58 38.4611C32.7046 38.4595 32.8282 38.4825 32.9439 38.5288C33.0596 38.5751 33.165 38.6439 33.254 38.7311C33.3434 38.8177 33.4149 38.9212 33.4643 39.0355C33.5136 39.1499 33.5399 39.2728 33.5416 39.3974C33.5432 39.5219 33.5203 39.6455 33.474 39.7612C33.4277 39.8768 33.3591 39.9821 33.272 40.0711L31.462 41.9301C31.3756 42.0198 31.2724 42.0915 31.1582 42.1411C31.044 42.1907 30.9211 42.2172 30.7966 42.2191C30.6721 42.2209 30.5485 42.1981 30.4329 42.152C30.3173 42.1058 30.2119 42.0372 30.123 41.9501C30.0335 41.8635 29.962 41.76 29.9126 41.6457C29.8633 41.5313 29.837 41.4084 29.8353 41.2839C29.8337 41.1593 29.8566 41.0357 29.9029 40.9201C29.9492 40.8044 30.0178 40.6991 30.105 40.6101L31.915 38.7521C32.0012 38.6623 32.1044 38.5903 32.2185 38.5404C32.3326 38.4904 32.4554 38.4635 32.58 38.4611ZM19.732 38.8891C19.7475 38.8883 19.7631 38.8907 19.7777 38.8961C19.7923 38.9015 19.8056 38.9099 19.8168 38.9206C19.8281 38.9314 19.837 38.9444 19.843 38.9587C19.8491 38.9731 19.8521 38.9885 19.852 39.0041C19.852 39.0651 19.802 39.1141 19.74 39.1151C19.7252 39.1152 19.7107 39.1125 19.697 39.107C19.6834 39.1015 19.671 39.0933 19.6605 39.083C19.65 39.0727 19.6416 39.0604 19.6359 39.0469C19.6301 39.0334 19.6271 39.0188 19.627 39.0041C19.627 38.9441 19.673 38.8921 19.732 38.8891ZM28.252 38.8891C28.2675 38.8883 28.2831 38.8907 28.2977 38.8961C28.3123 38.9015 28.3256 38.9099 28.3368 38.9206C28.3481 38.9314 28.357 38.9444 28.363 38.9587C28.3691 38.9731 28.3721 38.9885 28.372 39.0041C28.371 39.0651 28.321 39.1141 28.26 39.1151C28.2452 39.1154 28.2305 39.1127 28.2167 39.1073C28.203 39.1018 28.1904 39.0937 28.1798 39.0834C28.1692 39.0731 28.1608 39.0607 28.155 39.0471C28.1491 39.0335 28.1461 39.0189 28.146 39.0041C28.146 38.9441 28.192 38.8921 28.252 38.8891ZM19.732 40.0141C19.7472 40.0127 19.7626 40.0145 19.7771 40.0194C19.7917 40.0243 19.805 40.0322 19.8163 40.0426C19.8276 40.0529 19.8366 40.0655 19.8427 40.0796C19.8489 40.0936 19.852 40.1088 19.852 40.1241C19.852 40.1851 19.802 40.2381 19.74 40.2381C19.725 40.238 19.7102 40.2349 19.6964 40.229C19.6826 40.2232 19.6701 40.2147 19.6596 40.204C19.6491 40.1933 19.6409 40.1807 19.6353 40.1668C19.6296 40.1529 19.6268 40.1381 19.627 40.1231C19.6269 40.0948 19.6378 40.0675 19.6574 40.047C19.6769 40.0266 19.7037 40.0144 19.732 40.0131V40.0141ZM28.252 40.0141C28.2672 40.0127 28.2826 40.0145 28.2971 40.0194C28.3117 40.0243 28.325 40.0322 28.3363 40.0426C28.3476 40.0529 28.3566 40.0655 28.3627 40.0796C28.3689 40.0936 28.372 40.1088 28.372 40.1241C28.372 40.1851 28.322 40.2381 28.26 40.2381C28.2449 40.2381 28.23 40.2351 28.2161 40.2293C28.2022 40.2235 28.1896 40.2151 28.179 40.2044C28.1684 40.1937 28.16 40.181 28.1543 40.167C28.1487 40.1531 28.1458 40.1382 28.146 40.1231C28.1459 40.0946 28.157 40.0672 28.1767 40.0467C28.1965 40.0262 28.2235 40.0141 28.252 40.0131V40.0141ZM19.732 40.5761C19.7473 40.5753 19.7627 40.5776 19.7772 40.5829C19.7917 40.5882 19.8049 40.5964 19.8161 40.607C19.8273 40.6175 19.8363 40.6302 19.8424 40.6444C19.8486 40.6585 19.8518 40.6737 19.852 40.6891C19.852 40.7189 19.8401 40.7476 19.819 40.7687C19.7979 40.7898 19.7693 40.8016 19.7395 40.8016C19.7096 40.8016 19.681 40.7898 19.6599 40.7687C19.6388 40.7476 19.627 40.7189 19.627 40.6891C19.627 40.6301 19.674 40.5791 19.732 40.5761ZM28.252 40.5761C28.2673 40.5753 28.2827 40.5776 28.2972 40.5829C28.3117 40.5882 28.3249 40.5964 28.3361 40.607C28.3473 40.6175 28.3563 40.6302 28.3624 40.6444C28.3686 40.6585 28.3718 40.6737 28.372 40.6891C28.372 40.7191 28.3601 40.7478 28.3389 40.769C28.3177 40.7902 28.2889 40.8021 28.259 40.8021C28.229 40.8021 28.2002 40.7902 28.1791 40.769C28.1579 40.7478 28.146 40.7191 28.146 40.6891C28.146 40.6301 28.193 40.5791 28.252 40.5761ZM19.721 41.1391H19.74C19.802 41.1391 19.851 41.1911 19.852 41.2521C19.852 41.2819 19.8401 41.3106 19.819 41.3317C19.7979 41.3528 19.7693 41.3646 19.7395 41.3646C19.7096 41.3646 19.681 41.3528 19.6599 41.3317C19.6388 41.3106 19.627 41.2819 19.627 41.2521C19.627 41.1971 19.667 41.1461 19.721 41.1391ZM28.241 41.1391H28.26C28.321 41.1391 28.37 41.1911 28.371 41.2521C28.371 41.2818 28.3592 41.3103 28.3382 41.3313C28.3171 41.3523 28.2887 41.3641 28.259 41.3641C28.2293 41.3641 28.2008 41.3523 28.1798 41.3313C28.1588 41.3103 28.147 41.2818 28.147 41.2521C28.147 41.1971 28.186 41.1461 28.24 41.1391H28.241ZM19.721 41.7011H19.74C19.802 41.7011 19.851 41.7531 19.852 41.8151C19.8518 41.8296 19.8488 41.844 19.8431 41.8574C19.8374 41.8707 19.8291 41.8828 19.8187 41.893C19.8083 41.9031 19.7959 41.9111 19.7824 41.9164C19.7689 41.9218 19.7545 41.9244 19.74 41.9241C19.7253 41.9245 19.7106 41.922 19.6969 41.9166C19.6832 41.9113 19.6708 41.9032 19.6602 41.893C19.6497 41.8827 19.6413 41.8705 19.6356 41.8569C19.6299 41.8434 19.627 41.8288 19.627 41.8141C19.627 41.7591 19.667 41.7091 19.721 41.7011ZM28.241 41.7011H28.26C28.321 41.7011 28.37 41.7531 28.371 41.8151C28.3708 41.8296 28.3679 41.8438 28.3622 41.8571C28.3566 41.8704 28.3483 41.8825 28.338 41.8926C28.3277 41.9027 28.3155 41.9107 28.3021 41.9161C28.2887 41.9215 28.2744 41.9242 28.26 41.9241C28.2452 41.9246 28.2304 41.9222 28.2166 41.9169C28.2028 41.9116 28.1902 41.9036 28.1796 41.8933C28.1689 41.8831 28.1605 41.8708 28.1547 41.8572C28.1489 41.8435 28.1459 41.8289 28.146 41.8141C28.146 41.7591 28.186 41.7091 28.24 41.7011H28.241ZM19.742 42.2611C19.805 42.2631 19.854 42.3151 19.853 42.3771C19.853 42.4391 19.803 42.4871 19.743 42.4881C19.7282 42.4884 19.7135 42.4857 19.6997 42.4803C19.686 42.4748 19.6734 42.4667 19.6628 42.4564C19.6522 42.4461 19.6438 42.4337 19.638 42.4201C19.6321 42.4065 19.6291 42.3919 19.629 42.3771C19.629 42.3141 19.679 42.2611 19.742 42.2621V42.2611ZM28.262 42.2611C28.324 42.2631 28.374 42.3151 28.373 42.3771C28.373 42.4069 28.3611 42.4356 28.34 42.4567C28.3189 42.4778 28.2903 42.4896 28.2605 42.4896C28.2306 42.4896 28.202 42.4778 28.1809 42.4567C28.1598 42.4356 28.148 42.4069 28.148 42.3771C28.148 42.3141 28.199 42.2611 28.262 42.2621V42.2611ZM19.732 42.8241C19.7475 42.8233 19.7631 42.8257 19.7777 42.8311C19.7923 42.8365 19.8056 42.8449 19.8168 42.8556C19.8281 42.8664 19.837 42.8794 19.843 42.8937C19.8491 42.9081 19.8521 42.9235 19.852 42.9391C19.852 43.0011 19.802 43.0501 19.74 43.0511C19.7252 43.0512 19.7107 43.0485 19.697 43.043C19.6834 43.0375 19.671 43.0293 19.6605 43.019C19.65 43.0087 19.6416 42.9964 19.6359 42.9829C19.6301 42.9694 19.6271 42.9548 19.627 42.9401C19.627 42.8801 19.673 42.8281 19.732 42.8241ZM28.252 42.8241C28.2675 42.8233 28.2831 42.8257 28.2977 42.8311C28.3123 42.8365 28.3256 42.8449 28.3368 42.8556C28.3481 42.8664 28.357 42.8794 28.363 42.8937C28.3691 42.9081 28.3721 42.9235 28.372 42.9391C28.371 43.0011 28.321 43.0501 28.26 43.0511C28.2452 43.0514 28.2305 43.0487 28.2167 43.0433C28.203 43.0378 28.1904 43.0297 28.1798 43.0194C28.1692 43.0091 28.1608 42.9967 28.155 42.9831C28.1491 42.9695 28.1461 42.9549 28.146 42.9401C28.146 42.8801 28.192 42.8281 28.252 42.8241Z" fill="#333333"/>
</svg>
