<svg width="48" height="48" viewBox="0 0 48 48" fill="none" xmlns="http://www.w3.org/2000/svg">
<path d="M19.1789 9.83578C18.7173 9.37419 17.9689 9.37419 17.5074 9.83578L15.8358 11.5074C15.3742 11.9689 15.3742 12.7173 15.8358 13.1789C16.2974 13.6405 17.0458 13.6405 17.5074 13.1789L19.1789 11.5074C19.6405 11.0458 19.6405 10.2974 19.1789 9.83578Z" fill="#333333"/>
<path d="M21.8407 9.83578C22.3023 9.37419 23.0507 9.37419 23.5123 9.83578C23.9739 10.2974 23.9739 11.0458 23.5123 11.5074L21.8407 13.1789C21.3791 13.6405 20.6308 13.6405 20.1692 13.1789C19.7076 12.7173 19.7076 11.9689 20.1692 11.5074L21.8407 9.83578Z" fill="#333333"/>
<path d="M27.8456 9.83578C27.384 9.37419 26.6356 9.37419 26.174 9.83578L24.5024 11.5074C24.0408 11.9689 24.0408 12.7173 24.5024 13.1789C24.964 13.6405 25.7124 13.6405 26.174 13.1789L27.8456 11.5074C28.3071 11.0458 28.3071 10.2974 27.8456 9.83578Z" fill="#333333"/>
<path d="M30.5074 9.83578C30.9689 9.37419 31.7173 9.37419 32.1789 9.83578C32.6405 10.2974 32.6405 11.0458 32.1789 11.5074L30.5074 13.1789C30.0458 13.6405 29.2974 13.6405 28.8358 13.1789C28.3742 12.7173 28.3742 11.9689 28.8358 11.5074L30.5074 9.83578Z" fill="#333333"/>
<path d="M19.1789 15.8358C18.7173 15.3742 17.9689 15.3742 17.5074 15.8358L15.8358 17.5074C15.3742 17.9689 15.3742 18.7173 15.8358 19.1789C16.2974 19.6405 17.0458 19.6405 17.5074 19.1789L19.1789 17.5074C19.6405 17.0458 19.6405 16.2974 19.1789 15.8358Z" fill="#333333"/>
<path d="M21.8407 15.8358C22.3023 15.3742 23.0507 15.3742 23.5123 15.8358C23.9739 16.2974 23.9739 17.0458 23.5123 17.5074L21.8407 19.1789C21.3791 19.6405 20.6308 19.6405 20.1692 19.1789C19.7076 18.7173 19.7076 17.9689 20.1692 17.5074L21.8407 15.8358Z" fill="#333333"/>
<path d="M27.8456 15.8358C27.384 15.3742 26.6356 15.3742 26.174 15.8358L24.5024 17.5074C24.0408 17.9689 24.0408 18.7173 24.5024 19.1789C24.964 19.6405 25.7124 19.6405 26.174 19.1789L27.8456 17.5074C28.3071 17.0458 28.3071 16.2974 27.8456 15.8358Z" fill="#333333"/>
<path d="M30.5074 15.8358C30.9689 15.3742 31.7173 15.3742 32.1789 15.8358C32.6405 16.2974 32.6405 17.0458 32.1789 17.5074L30.5074 19.1789C30.0458 19.6405 29.2974 19.6405 28.8358 19.1789C28.3742 18.7173 28.3742 17.9689 28.8358 17.5074L30.5074 15.8358Z" fill="#333333"/>
<path d="M19.1789 28.8358C18.7173 28.3742 17.9689 28.3742 17.5074 28.8358L15.8358 30.5074C15.3742 30.9689 15.3742 31.7173 15.8358 32.1789C16.2974 32.6405 17.0458 32.6405 17.5074 32.1789L19.1789 30.5074C19.6405 30.0458 19.6405 29.2974 19.1789 28.8358Z" fill="#333333"/>
<path d="M21.8407 28.8358C22.3023 28.3742 23.0507 28.3742 23.5123 28.8358C23.9739 29.2974 23.9739 30.0458 23.5123 30.5074L21.8407 32.1789C21.3791 32.6405 20.6308 32.6405 20.1692 32.1789C19.7076 31.7173 19.7076 30.9689 20.1692 30.5074L21.8407 28.8358Z" fill="#333333"/>
<path d="M27.8456 28.8358C27.384 28.3742 26.6356 28.3742 26.174 28.8358L24.5024 30.5074C24.0408 30.9689 24.0408 31.7173 24.5024 32.1789C24.964 32.6405 25.7124 32.6405 26.174 32.1789L27.8456 30.5074C28.3071 30.0458 28.3071 29.2974 27.8456 28.8358Z" fill="#333333"/>
<path d="M30.5074 28.8358C30.9689 28.3742 31.7173 28.3742 32.1789 28.8358C32.6405 29.2974 32.6405 30.0458 32.1789 30.5074L30.5074 32.1789C30.0458 32.6405 29.2974 32.6405 28.8358 32.1789C28.3742 31.7173 28.3742 30.9689 28.8358 30.5074L30.5074 28.8358Z" fill="#333333"/>
<path d="M19.1789 34.8358C18.7173 34.3742 17.9689 34.3742 17.5074 34.8358L15.8358 36.5074C15.3742 36.9689 15.3742 37.7173 15.8358 38.1789C16.2974 38.6405 17.0458 38.6405 17.5074 38.1789L19.1789 36.5074C19.6405 36.0458 19.6405 35.2974 19.1789 34.8358Z" fill="#333333"/>
<path d="M21.8407 34.8358C22.3023 34.3742 23.0507 34.3742 23.5123 34.8358C23.9739 35.2974 23.9739 36.0458 23.5123 36.5074L21.8407 38.1789C21.3791 38.6405 20.6308 38.6405 20.1692 38.1789C19.7076 37.7173 19.7076 36.9689 20.1692 36.5074L21.8407 34.8358Z" fill="#333333"/>
<path d="M27.8456 34.8358C27.384 34.3742 26.6356 34.3742 26.174 34.8358L24.5024 36.5074C24.0408 36.9689 24.0408 37.7173 24.5024 38.1789C24.964 38.6405 25.7124 38.6405 26.174 38.1789L27.8456 36.5074C28.3071 36.0458 28.3071 35.2974 27.8456 34.8358Z" fill="#333333"/>
<path d="M30.5074 34.8358C30.9689 34.3742 31.7173 34.3742 32.1789 34.8358C32.6405 35.2974 32.6405 36.0458 32.1789 36.5074L30.5074 38.1789C30.0458 38.6405 29.2974 38.6405 28.8358 38.1789C28.3742 37.7173 28.3742 36.9689 28.8358 36.5074L30.5074 34.8358Z" fill="#333333"/>
<path d="M19 24C19 24.5523 18.5523 25 18 25C17.4477 25 17 24.5523 17 24C17 23.4477 17.4477 23 18 23C18.5523 23 19 23.4477 19 24Z" fill="#333333"/>
<path d="M22 25C22.5523 25 23 24.5523 23 24C23 23.4477 22.5523 23 22 23C21.4477 23 21 23.4477 21 24C21 24.5523 21.4477 25 22 25Z" fill="#333333"/>
<path d="M27 24C27 24.5523 26.5523 25 26 25C25.4477 25 25 24.5523 25 24C25 23.4477 25.4477 23 26 23C26.5523 23 27 23.4477 27 24Z" fill="#333333"/>
<path d="M30 25C30.5523 25 31 24.5523 31 24C31 23.4477 30.5523 23 30 23C29.4477 23 29 23.4477 29 24C29 24.5523 29.4477 25 30 25Z" fill="#333333"/>
<path fill-rule="evenodd" clip-rule="evenodd" d="M12 8C12 5.79086 13.7909 4 16 4H32C34.2091 4 36 5.79086 36 8V40C36 42.2091 34.2091 44 32 44H16C13.7909 44 12 42.2091 12 40V8ZM14 8C14 6.89543 14.8954 6 16 6H32C33.1046 6 34 6.89543 34 8V23C33.4477 23 33 23.4477 33 24C33 24.5523 33.4477 25 34 25V40C34 41.1046 33.1046 42 32 42H16C14.8954 42 14 41.1046 14 40V25C14.5523 25 15 24.5523 15 24C15 23.4477 14.5523 23 14 23V8Z" fill="#333333"/>
</svg>
