<svg width="48" height="48" viewBox="0 0 48 48" fill="none" xmlns="http://www.w3.org/2000/svg">
<path d="M14.1541 3.99878C13.2846 3.99878 12.5857 4.69764 12.5857 5.56708V42.4284C12.5857 43.2979 13.2846 43.9987 14.1541 43.9987H33.8591C34.7286 43.9987 35.4275 43.2979 35.4275 42.4284V5.56708C35.4275 4.69764 34.7286 3.99878 33.8591 3.99878H14.1541ZM22.2029 10.067C22.4451 10.0636 22.6886 10.1537 22.8767 10.3366C23.2531 10.7028 23.2604 11.3 22.8943 11.6764L21.0857 13.5357C20.7196 13.9129 20.1221 13.9195 19.7458 13.5546C19.3694 13.1884 19.3621 12.5909 19.7283 12.2148L21.5369 10.3574C21.7199 10.1691 21.9607 10.0717 22.2029 10.0683V10.067ZM27.5935 10.067C27.8357 10.0636 28.0792 10.1537 28.2673 10.3366C28.6438 10.7028 28.653 11.3 28.2869 11.6764L26.4783 13.5357C26.1122 13.9129 25.5147 13.9195 25.1384 13.5546C24.762 13.1884 24.7528 12.5909 25.1189 12.2148L26.9275 10.3574C27.1106 10.1691 27.3513 10.0717 27.5935 10.0683V10.067ZM22.2029 14.0671C22.4451 14.0637 22.6886 14.1536 22.8767 14.3365C23.2531 14.7028 23.2604 15.3 22.8943 15.6765L21.0857 17.5358C20.7196 17.913 20.1221 17.9196 19.7458 17.5547C19.3694 17.1885 19.3621 16.5909 19.7283 16.2149L21.5369 14.3574C21.7199 14.1692 21.9607 14.0717 22.2029 14.0683V14.0671ZM27.5935 14.0671C27.8357 14.0637 28.0792 14.1536 28.2673 14.3365C28.6438 14.7028 28.653 15.3 28.2869 15.6765L26.4783 17.5358C26.1122 17.913 25.5147 17.9196 25.1384 17.5547C24.762 17.1885 24.7528 16.5909 25.1189 16.2149L26.9275 14.3574C27.1106 14.1692 27.3513 14.0717 27.5935 14.0683V14.0671ZM13.6033 23.8855C13.666 23.8851 13.7172 23.9361 13.7166 23.9989C13.7158 24.0612 13.6653 24.1126 13.6033 24.1122C13.5417 24.1115 13.4924 24.0601 13.4919 23.9989C13.4916 23.9365 13.5413 23.8862 13.6033 23.8855ZM14.1658 23.8855V23.8874C14.2209 23.8871 14.2695 23.9267 14.2771 23.9811C14.2777 23.9887 14.2777 23.9924 14.2771 24C14.2763 24.0612 14.227 24.113 14.1658 24.1134C14.1042 24.113 14.053 24.0612 14.0525 24C14.0521 23.9376 14.1038 23.8874 14.1658 23.8866V23.8855ZM14.7283 23.8855V23.8874C14.7834 23.8871 14.832 23.9267 14.8396 23.9811C14.8402 23.9887 14.8402 23.9924 14.8396 24C14.8388 24.0612 14.7895 24.113 14.7283 24.1134C14.6663 24.1141 14.6155 24.062 14.615 24C14.6146 23.9373 14.6655 23.8862 14.7283 23.8866V23.8855ZM15.2908 23.8855V23.8874C15.3501 23.8878 15.3985 23.9339 15.4021 23.9929C15.4022 23.9966 15.4022 23.9961 15.4021 24.0004C15.4013 24.0616 15.352 24.1135 15.2908 24.1138C15.2288 24.1146 15.178 24.0623 15.1775 24.0004C15.1771 23.9376 15.228 23.8866 15.2908 23.887V23.8855ZM15.8533 23.8855V23.8874C15.9126 23.8878 15.961 23.9339 15.9646 23.9929C15.9647 23.9966 15.9647 23.9961 15.9646 24.0004C15.9638 24.0616 15.9145 24.1135 15.8533 24.1138C15.7913 24.1146 15.7405 24.0623 15.74 24.0004C15.7396 23.9376 15.7905 23.8866 15.8533 23.887V23.8855ZM16.4158 23.8855V23.8874C16.4751 23.8878 16.5235 23.9339 16.5271 23.9929C16.5272 23.9966 16.5272 23.9961 16.5271 24.0004C16.5263 24.0616 16.477 24.1135 16.4158 24.1138C16.3538 24.1146 16.303 24.0623 16.3025 24.0004C16.3021 23.9376 16.353 23.8866 16.4158 23.887V23.8855ZM16.9763 23.8855V23.8874C17.0364 23.8867 17.086 23.9331 17.0896 23.9929C17.0897 23.9966 17.0897 23.9961 17.0896 24.0004C17.0888 24.0623 17.0383 24.1142 16.9763 24.1138C16.9147 24.1135 16.8655 24.0616 16.865 24.0004C16.8646 23.938 16.9143 23.8877 16.9763 23.887V23.8855ZM17.5388 23.8855V23.8874C17.5989 23.8867 17.6485 23.9331 17.6521 23.9929C17.6522 23.9966 17.6522 23.9961 17.6521 24.0004C17.6513 24.0623 17.6008 24.1142 17.5388 24.1138C17.4772 24.1135 17.428 24.0616 17.4275 24.0004C17.4271 23.938 17.4768 23.8877 17.5388 23.887V23.8855ZM18.1013 23.8855V23.8874C18.1614 23.8867 18.211 23.9331 18.2146 23.9929C18.2147 23.9966 18.2147 23.9961 18.2146 24.0004C18.2138 24.0623 18.1633 24.1142 18.1013 24.1138C18.0397 24.1135 17.9905 24.0616 17.99 24.0004C17.9896 23.938 18.0393 23.8877 18.1013 23.887V23.8855ZM18.6638 23.8855V23.8874C18.719 23.8871 18.7675 23.9267 18.7751 23.9811C18.7757 23.9887 18.7757 23.9924 18.7751 24C18.7744 24.0612 18.725 24.113 18.6638 24.1134C18.6026 24.113 18.553 24.0612 18.5525 24C18.5517 23.9376 18.6018 23.8874 18.6638 23.8866V23.8855ZM19.2263 23.8855V23.8874C19.2857 23.8878 19.334 23.9339 19.3376 23.9929C19.3377 23.9966 19.3377 23.9961 19.3376 24.0004C19.3369 24.0616 19.2876 24.1135 19.2263 24.1138C19.1643 24.1146 19.1135 24.0623 19.113 24.0004C19.1127 23.9376 19.1636 23.8866 19.2263 23.887V23.8855ZM19.7888 23.8855V23.8874C19.8482 23.8878 19.8965 23.9339 19.9001 23.9929C19.9002 23.9966 19.9002 23.9961 19.9001 24.0004C19.8994 24.0616 19.85 24.1135 19.7888 24.1138C19.7268 24.1146 19.676 24.0623 19.6755 24.0004C19.6752 23.9376 19.7261 23.8866 19.7888 23.887V23.8855ZM20.3513 23.8855V23.8874C20.4107 23.8878 20.459 23.9339 20.4626 23.9929C20.4627 23.9966 20.4627 23.9961 20.4626 24.0004C20.4619 24.0616 20.4125 24.1135 20.3513 24.1138C20.2893 24.1146 20.2385 24.0623 20.238 24.0004C20.2377 23.9376 20.2886 23.8866 20.3513 23.887V23.8855ZM20.9138 23.8855V23.8874C20.9732 23.8878 21.0215 23.9339 21.0251 23.9929C21.0253 23.9966 21.0253 23.9961 21.0251 24.0004C21.0244 24.0616 20.975 24.1135 20.9138 24.1138C20.8518 24.1146 20.801 24.0623 20.8005 24.0004C20.8002 23.9376 20.8511 23.8866 20.9138 23.887V23.8855ZM21.4744 23.8855V23.8874C21.5345 23.8867 21.584 23.9331 21.5876 23.9929C21.5878 23.9966 21.5878 23.9961 21.5876 24.0004C21.5869 24.0623 21.5363 24.1142 21.4744 24.1138C21.4128 24.1135 21.3635 24.0616 21.363 24.0004C21.3627 23.938 21.4124 23.8877 21.4744 23.887V23.8855ZM22.0369 23.8855V23.8874C22.097 23.8867 22.1465 23.9331 22.1501 23.9929C22.1502 23.9966 22.1502 23.9961 22.1501 24.0004C22.1494 24.0623 22.0988 24.1142 22.0369 24.1138C21.9753 24.1135 21.926 24.0616 21.9255 24.0004C21.9252 23.938 21.9749 23.8877 22.0369 23.887V23.8855ZM22.5994 23.8855C22.6621 23.8851 22.7132 23.9361 22.7126 23.9989C22.7119 24.0612 22.6613 24.1126 22.5994 24.1122C22.5378 24.1115 22.4885 24.0601 22.488 23.9989C22.4877 23.9365 22.5374 23.8862 22.5994 23.8855ZM23.1619 23.8855V23.8874C23.2167 23.8871 23.2656 23.9267 23.2732 23.9811C23.2738 23.9887 23.2738 23.9924 23.2732 24C23.2728 24.0612 23.2231 24.113 23.1619 24.1134C23.1003 24.113 23.051 24.0612 23.0505 24C23.0502 23.9376 23.0999 23.8874 23.1619 23.8866V23.8855ZM23.7244 23.8855V23.8874C23.7796 23.8871 23.8281 23.9267 23.8357 23.9811C23.8363 23.9887 23.8363 23.9924 23.8357 24C23.8349 24.0612 23.7856 24.113 23.7244 24.1134C23.6624 24.1141 23.6116 24.062 23.6111 24C23.6107 23.9373 23.6616 23.8862 23.7244 23.8866V23.8855ZM24.2869 23.8855V23.8874C24.3462 23.8878 24.3946 23.9339 24.3982 23.9929C24.3983 23.9966 24.3983 23.9961 24.3982 24.0004C24.3974 24.0616 24.3481 24.1135 24.2869 24.1138C24.2249 24.1146 24.1741 24.0623 24.1736 24.0004C24.1732 23.9376 24.2241 23.8866 24.2869 23.887V23.8855ZM24.8494 23.8855V23.8874C24.9087 23.8878 24.9571 23.9339 24.9607 23.9929C24.9608 23.9966 24.9608 23.9961 24.9607 24.0004C24.9599 24.0616 24.9106 24.1135 24.8494 24.1138C24.7874 24.1146 24.7366 24.0623 24.7361 24.0004C24.7357 23.9376 24.7866 23.8866 24.8494 23.887V23.8855ZM25.4099 23.8855V23.8874C25.47 23.8867 25.5196 23.9331 25.5232 23.9929C25.5233 23.9966 25.5233 23.9961 25.5232 24.0004C25.5224 24.0623 25.4719 24.1142 25.4099 24.1138C25.3487 24.1135 25.299 24.0616 25.2986 24.0004C25.2978 23.938 25.3479 23.8877 25.4099 23.887V23.8855ZM25.9724 23.8855V23.8874C26.0325 23.8867 26.0821 23.9331 26.0857 23.9929C26.0858 23.9966 26.0858 23.9961 26.0857 24.0004C26.0849 24.0623 26.0344 24.1142 25.9724 24.1138C25.9108 24.1135 25.8616 24.0616 25.8611 24.0004C25.8607 23.938 25.9104 23.8877 25.9724 23.887V23.8855ZM26.5349 23.8855V23.8874C26.595 23.8867 26.6446 23.9331 26.6482 23.9929C26.6483 23.9966 26.6483 23.9961 26.6482 24.0004C26.6474 24.0623 26.5969 24.1142 26.5349 24.1138C26.4733 24.1135 26.4241 24.0616 26.4236 24.0004C26.4232 23.938 26.4729 23.8877 26.5349 23.887V23.8855ZM27.0974 23.8855C27.1602 23.8851 27.2113 23.9361 27.2107 23.9989C27.2099 24.0612 27.1594 24.1126 27.0974 24.1122C27.0358 24.1115 26.9866 24.0601 26.9861 23.9989C26.9857 23.9365 27.0354 23.8862 27.0974 23.8855ZM27.6599 23.8855V23.8874C27.7151 23.8871 27.7636 23.9267 27.7712 23.9811C27.7718 23.9887 27.7718 23.9924 27.7712 24C27.7705 24.0612 27.7211 24.113 27.6599 24.1134C27.5987 24.113 27.5491 24.0612 27.5486 24C27.5478 23.9376 27.5979 23.8874 27.6599 23.8866V23.8855ZM28.2224 23.8855V23.8874C28.2817 23.8878 28.3301 23.9339 28.3337 23.9929C28.3338 23.9966 28.3338 23.9961 28.3337 24.0004C28.333 24.0616 28.2836 24.1135 28.2224 24.1138C28.1604 24.1146 28.1096 24.0623 28.1091 24.0004C28.1088 23.9376 28.1597 23.8866 28.2224 23.887V23.8855ZM28.7849 23.8855V23.8874C28.8442 23.8878 28.8926 23.9339 28.8962 23.9929C28.8963 23.9966 28.8963 23.9961 28.8962 24.0004C28.8955 24.0616 28.8461 24.1135 28.7849 24.1138C28.7229 24.1146 28.6721 24.0623 28.6716 24.0004C28.6713 23.9376 28.7222 23.8866 28.7849 23.887V23.8855ZM29.3474 23.8855V23.8874C29.4067 23.8878 29.4551 23.9339 29.4587 23.9929C29.4589 23.9966 29.4589 23.9961 29.4587 24.0004C29.458 24.0616 29.4086 24.1135 29.3474 24.1138C29.2854 24.1146 29.2346 24.0623 29.2341 24.0004C29.2338 23.9376 29.2847 23.8866 29.3474 23.887V23.8855ZM29.908 23.8855V23.8874C29.968 23.8867 30.0176 23.9331 30.0212 23.9929C30.0214 23.9966 30.0214 23.9961 30.0212 24.0004C30.0205 24.0623 29.9699 24.1142 29.908 24.1138C29.8463 24.1135 29.7971 24.0616 29.7966 24.0004C29.7962 23.938 29.846 23.8877 29.908 23.887V23.8855ZM30.4705 23.8855V23.8874C30.5306 23.8867 30.5801 23.9331 30.5837 23.9929C30.5838 23.9966 30.5838 23.9961 30.5837 24.0004C30.583 24.0623 30.5324 24.1142 30.4705 24.1138C30.4089 24.1135 30.3596 24.0616 30.3591 24.0004C30.3588 23.938 30.4085 23.8877 30.4705 23.887V23.8855ZM31.033 23.8855V23.8874C31.0931 23.8867 31.1426 23.9331 31.1462 23.9929C31.1463 23.9966 31.1463 23.9961 31.1462 24.0004C31.1455 24.0623 31.0949 24.1142 31.033 24.1138C30.9713 24.1135 30.9221 24.0616 30.9216 24.0004C30.9212 23.938 30.971 23.8877 31.033 23.887V23.8855ZM31.5955 23.8855V23.8874C31.6506 23.8871 31.6992 23.9267 31.7068 23.9811C31.7073 23.9887 31.7073 23.9924 31.7068 24C31.706 24.0612 31.6567 24.113 31.5955 24.1134C31.5342 24.113 31.4846 24.0612 31.4841 24C31.4834 23.9376 31.5335 23.8874 31.5955 23.8866V23.8855ZM32.158 23.8855V23.8874C32.2131 23.8871 32.2617 23.9267 32.2693 23.9811C32.2698 23.9887 32.2698 23.9924 32.2693 24C32.2685 24.0612 32.2192 24.113 32.158 24.1134C32.096 24.1141 32.0452 24.062 32.0447 24C32.0443 23.9373 32.0952 23.8862 32.158 23.8866V23.8855ZM32.7205 23.8855V23.8874C32.7798 23.8878 32.8282 23.9339 32.8318 23.9929C32.8319 23.9966 32.8319 23.9961 32.8318 24.0004C32.831 24.0616 32.7817 24.1135 32.7205 24.1138C32.6585 24.1146 32.6077 24.0623 32.6072 24.0004C32.6068 23.9376 32.6577 23.8866 32.7205 23.887V23.8855ZM33.283 23.8855V23.8874C33.3419 23.8878 33.3907 23.9339 33.3943 23.9929C33.3944 23.9966 33.3944 23.9961 33.3943 24.0004C33.3939 24.0616 33.3442 24.1135 33.283 24.1138C33.221 24.1146 33.1702 24.0623 33.1697 24.0004C33.1693 23.9376 33.2202 23.8866 33.283 23.887V23.8855ZM33.8455 23.8855V23.8874C33.9044 23.8878 33.9532 23.9339 33.9568 23.9929C33.9569 23.9966 33.9569 23.9961 33.9568 24.0004C33.9564 24.0616 33.9067 24.1135 33.8455 24.1138C33.7835 24.1146 33.7327 24.0623 33.7322 24.0004C33.7318 23.9376 33.7827 23.8866 33.8455 23.887V23.8855ZM34.406 23.8855V23.8874C34.4661 23.8867 34.5157 23.9331 34.5193 23.9929C34.5194 23.9966 34.5194 23.9961 34.5193 24.0004C34.5185 24.0623 34.468 24.1142 34.406 24.1138C34.3444 24.1135 34.2952 24.0616 34.2947 24.0004C34.2943 23.938 34.344 23.8877 34.406 23.887V23.8855ZM22.2029 30.1745C22.4451 30.1711 22.6886 30.261 22.8767 30.4439C23.2531 30.8102 23.2604 31.4074 22.8943 31.7839L21.0857 33.6432C20.7196 34.0223 20.1221 34.027 19.7458 33.6621C19.3694 33.2959 19.3621 32.6983 19.7283 32.3223L21.5369 30.4648C21.7199 30.2766 21.9607 30.1791 22.2029 30.1756V30.1745ZM27.5935 30.1745C27.8357 30.1711 28.0792 30.261 28.2673 30.4439C28.6438 30.8102 28.653 31.4074 28.2869 31.7839L26.4783 33.6432C26.1122 34.0223 25.5147 34.027 25.1384 33.6621C24.762 33.2959 24.7528 32.6983 25.1189 32.3223L26.9275 30.4648C27.1106 30.2766 27.3513 30.1791 27.5935 30.1756V30.1745ZM22.2029 34.1746C22.4451 34.1712 22.6886 34.2611 22.8767 34.444C23.2531 34.8102 23.2604 35.4074 22.8943 35.7838L21.0857 37.6432C20.7196 38.0223 20.1221 38.0271 19.7458 37.6622C19.3694 37.2959 19.3621 36.6983 19.7283 36.3222L21.5369 34.4649C21.7199 34.2767 21.9607 34.1791 22.2029 34.1757V34.1746ZM27.5935 34.1746C27.8357 34.1712 28.0792 34.2611 28.2673 34.444C28.6438 34.8102 28.653 35.4074 28.2869 35.7838L26.4783 37.6432C26.1122 38.0223 25.5147 38.0271 25.1384 37.6622C24.762 37.2959 24.7528 36.6983 25.1189 36.3222L26.9275 34.4649C27.1106 34.2767 27.3513 34.1791 27.5935 34.1757V34.1746Z" fill="#333333"/>
</svg>
