<svg width="48" height="48" viewBox="0 0 48 48" fill="none" xmlns="http://www.w3.org/2000/svg">
<path d="M14.1475 4C13.278 4 12.5791 4.69898 12.5791 5.56842V42.4298C12.5791 43.2992 13.278 44 14.1475 44H33.8525C34.722 44 35.4209 43.2992 35.4209 42.4298V5.56842C35.4209 4.69898 34.722 4 33.8525 4H14.1475ZM30.8447 4.73438C30.8485 4.73431 30.8499 4.73431 30.8526 4.73438C30.9138 4.73514 30.9634 4.78469 30.9639 4.84592C30.9646 4.9079 30.9145 4.95854 30.8526 4.9593C30.7898 4.95968 30.7387 4.90866 30.7393 4.84592C30.7396 4.78658 30.7858 4.73816 30.8447 4.73438H30.8447ZM30.8447 5.29691C30.8485 5.29683 30.8499 5.29683 30.8526 5.29691C30.9138 5.29766 30.9634 5.34675 30.9639 5.40798C30.9646 5.46996 30.9145 5.5211 30.8526 5.52148C30.7898 5.52185 30.7387 5.47072 30.7393 5.40798C30.7396 5.34864 30.7858 5.30031 30.8447 5.29691H30.8447ZM30.8447 5.85943C30.8485 5.85935 30.8499 5.85935 30.8526 5.85943C30.9138 5.86018 30.9634 5.90965 30.9639 5.9705C30.9646 6.03249 30.9145 6.08313 30.8526 6.08388C30.7898 6.08426 30.7387 6.03324 30.7393 5.9705C30.7396 5.91116 30.7858 5.86283 30.8447 5.85943H30.8447ZM30.833 6.42195H30.835C30.8426 6.42138 30.845 6.42138 30.8525 6.42195C30.9138 6.42271 30.9634 6.47214 30.9639 6.53337C30.9635 6.59498 30.9138 6.64415 30.8525 6.64491C30.7902 6.64529 30.7398 6.59536 30.7393 6.53337C30.7389 6.47819 30.7786 6.42951 30.833 6.42195H30.833ZM30.8526 6.98251C30.9149 6.98327 30.9644 7.03391 30.9639 7.0959C30.9631 7.1575 30.9138 7.20659 30.8526 7.20697C30.7902 7.20735 30.7398 7.15788 30.7393 7.0959C30.7389 7.03316 30.7898 6.98214 30.8526 6.98251ZM30.8447 7.54492C30.8485 7.54481 30.8499 7.54481 30.8526 7.54492C30.9145 7.54568 30.9645 7.59632 30.9639 7.6583C30.9635 7.71991 30.9138 7.76911 30.8526 7.76949C30.7902 7.76987 30.7398 7.71991 30.7393 7.6583C30.7385 7.59821 30.785 7.5487 30.8447 7.54492H30.8447ZM30.8447 8.10744C30.8485 8.10737 30.8499 8.10737 30.8526 8.10744C30.9145 8.1082 30.9645 8.15884 30.9639 8.22083C30.9635 8.28243 30.9138 8.33161 30.8526 8.33236C30.7902 8.33274 30.7398 8.28281 30.7393 8.22083C30.7385 8.16073 30.785 8.11122 30.8447 8.10744H30.8447ZM30.8447 8.66997C30.8485 8.66989 30.8499 8.66989 30.8526 8.66997C30.9145 8.67072 30.9645 8.72136 30.9639 8.78335C30.9635 8.84496 30.9138 8.89413 30.8526 8.89488C30.7902 8.89526 30.7398 8.84533 30.7393 8.78335C30.7385 8.72325 30.785 8.67375 30.8447 8.66997H30.8447ZM30.8447 9.23249C30.8485 9.23242 30.8499 9.23242 30.8526 9.23249C30.9138 9.23325 30.9634 9.28271 30.9639 9.34357C30.9646 9.40555 30.9145 9.45657 30.8526 9.45695C30.7898 9.45732 30.7387 9.40631 30.7393 9.34357C30.7396 9.28423 30.7858 9.23589 30.8447 9.23249H30.8447ZM30.8447 9.79501C30.8485 9.7949 30.8499 9.7949 30.8526 9.79501C30.9138 9.79577 30.9634 9.84486 30.9639 9.90609C30.9646 9.96807 30.9145 10.0187 30.8526 10.0195C30.7898 10.0198 30.7387 9.96883 30.7393 9.90609C30.7396 9.84675 30.7858 9.79842 30.8447 9.79501H30.8447ZM30.833 10.3574H30.835C30.8426 10.3569 30.845 10.3569 30.8525 10.3574C30.9138 10.3582 30.9634 10.4077 30.9639 10.469C30.9646 10.5309 30.9145 10.5816 30.8525 10.5823C30.7898 10.5827 30.7387 10.5317 30.7393 10.469C30.7389 10.4138 30.7786 10.365 30.833 10.3574H30.833ZM25.2861 10.6972C25.5283 10.6938 25.7718 10.7837 25.96 10.9667C26.3364 11.3329 26.3437 11.9301 25.9775 12.3066L24.1689 14.1659C23.8028 14.5435 23.2054 14.5504 22.8291 14.1848C22.4527 13.8186 22.4454 13.2211 22.8115 12.845L24.6201 10.9875C24.8032 10.7993 25.0439 10.7018 25.2861 10.6984V10.6972ZM30.8525 10.918C30.9149 10.9187 30.9644 10.9694 30.9639 11.0314C30.9631 11.093 30.9138 11.1421 30.8525 11.1424C30.7902 11.1428 30.7398 11.093 30.7393 11.0314C30.7389 10.9686 30.7898 10.9176 30.8525 10.918ZM30.8525 11.4804C30.9149 11.4811 30.9644 11.5318 30.9639 11.5938C30.9631 11.655 30.9138 11.7046 30.8525 11.705C30.7902 11.7057 30.7398 11.6554 30.7393 11.5938C30.7389 11.531 30.7898 11.48 30.8525 11.4804ZM30.8447 12.0429C30.8485 12.0428 30.8499 12.0428 30.8525 12.0429C30.9145 12.0437 30.9645 12.0943 30.9639 12.1563C30.9635 12.2175 30.9138 12.2671 30.8525 12.2678C30.7902 12.2686 30.7398 12.2187 30.7393 12.1563C30.7385 12.0962 30.785 12.0467 30.8447 12.0429H30.8447ZM19.7236 12.5097C19.9658 12.5063 20.2093 12.5963 20.3975 12.7793C20.7739 13.1455 20.7812 13.7426 20.415 14.1191L18.6064 15.9784C18.2403 16.356 17.6428 16.3642 17.2666 15.9973C16.8901 15.6311 16.8829 15.0336 17.249 14.6575L19.0576 12.8C19.2407 12.6118 19.4814 12.5144 19.7236 12.511V12.5097ZM30.8447 12.6053C30.8485 12.6052 30.8499 12.6052 30.8525 12.6053C30.9145 12.6057 30.9645 12.6567 30.9639 12.7187C30.9635 12.7799 30.9138 12.8295 30.8525 12.8302C30.7902 12.831 30.7398 12.7807 30.7393 12.7187C30.7385 12.6586 30.785 12.6091 30.8447 12.6053H30.8447ZM30.8447 13.1678C30.8485 13.1678 30.8499 13.1678 30.8525 13.1678C30.9138 13.1686 30.9634 13.2178 30.9639 13.279C30.9646 13.341 30.9145 13.392 30.8525 13.3924C30.7898 13.3928 30.7387 13.3418 30.7393 13.279C30.7396 13.2197 30.7858 13.1712 30.8447 13.1678H30.8447ZM30.8447 13.7304C30.8485 13.7303 30.8499 13.7303 30.8525 13.7304C30.9138 13.7311 30.9634 13.7806 30.9639 13.8414C30.9646 13.9034 30.9145 13.9541 30.8525 13.9548C30.7898 13.9552 30.7387 13.9042 30.7393 13.8414C30.7396 13.7821 30.7858 13.7338 30.8447 13.7304H30.8447ZM30.8447 14.2929C30.8485 14.2928 30.8499 14.2928 30.8525 14.2929C30.9138 14.2933 30.9634 14.3431 30.9639 14.4043C30.9646 14.4663 30.9145 14.5169 30.8525 14.5177C30.7898 14.5181 30.7387 14.4671 30.7393 14.4043C30.7396 14.3454 30.7858 14.2967 30.8447 14.2929H30.8447ZM30.833 14.8553H30.835C30.8426 14.8547 30.845 14.8547 30.8525 14.8553C30.9138 14.8557 30.9634 14.9056 30.9639 14.9668C30.9646 15.0288 30.9145 15.0795 30.8525 15.0802C30.7898 15.0806 30.7386 15.0296 30.7392 14.9668C30.7389 14.912 30.7786 14.8629 30.833 14.8553ZM25.292 15.2069C25.5342 15.2035 25.7777 15.2934 25.9658 15.4763C26.3423 15.8425 26.3495 16.4397 25.9834 16.8161L24.1748 18.6755C23.8087 19.0531 23.2112 19.0594 22.835 18.6945C22.4585 18.3282 22.4513 17.7307 22.8174 17.3546L24.626 15.4972C24.809 15.309 25.0498 15.2114 25.292 15.208V15.2069ZM30.833 15.4177H30.835C30.8426 15.4171 30.845 15.4171 30.8525 15.4177C30.9138 15.4185 30.9634 15.468 30.9639 15.5292C30.9635 15.5905 30.9138 15.64 30.8525 15.6408C30.7902 15.6412 30.7397 15.5912 30.7392 15.5292C30.7389 15.4741 30.7786 15.4253 30.833 15.4177ZM30.8525 15.9783C30.9149 15.979 30.9644 16.0297 30.9639 16.0917C30.9631 16.1529 30.9138 16.2024 30.8525 16.2032C30.7902 16.2039 30.7398 16.1536 30.7393 16.0917C30.7389 16.0289 30.7898 15.9779 30.8525 15.9783ZM30.8447 16.5408C30.8485 16.5407 30.8499 16.5407 30.8525 16.5408C30.9145 16.5415 30.9645 16.5922 30.9639 16.6542C30.9635 16.7154 30.9138 16.765 30.8525 16.7657C30.7902 16.7665 30.7398 16.7162 30.7393 16.6542C30.7385 16.5941 30.785 16.5446 30.8447 16.5408H30.8447ZM30.8447 17.1033C30.8485 17.1032 30.8499 17.1032 30.8525 17.1033C30.9145 17.1041 30.9645 17.1547 30.9639 17.2167C30.9635 17.2783 30.9138 17.3275 30.8525 17.3282C30.7902 17.3286 30.7398 17.2787 30.7393 17.2167C30.7385 17.1566 30.785 17.1071 30.8447 17.1033H30.8447ZM30.8447 17.6658C30.8485 17.6658 30.8499 17.6658 30.8525 17.6658C30.9138 17.6662 30.9634 17.7157 30.9639 17.7769C30.9646 17.8389 30.9145 17.8895 30.8525 17.8903C30.7898 17.8907 30.7387 17.8397 30.7393 17.7769C30.7396 17.718 30.7858 17.6692 30.8447 17.6658H30.8447ZM19.7236 17.7694C19.9658 17.766 20.2093 17.8559 20.3975 18.0389C20.7739 18.4051 20.7812 19.0022 20.415 19.3787L18.6064 21.2381C18.2403 21.6157 17.6428 21.6239 17.2666 21.257C16.8901 20.8908 16.8829 20.2931 17.249 19.9171L19.0576 18.0596C19.2407 17.8714 19.4814 17.774 19.7236 17.7706V17.7694ZM30.8447 18.2284C30.8485 18.2282 30.8499 18.2282 30.8525 18.2284C30.9138 18.2287 30.9634 18.2786 30.9639 18.3398C30.9646 18.4018 30.9145 18.4528 30.8525 18.4532C30.7898 18.4535 30.7387 18.4025 30.7393 18.3398C30.7396 18.2808 30.7858 18.2321 30.8447 18.2284H30.8447ZM30.8447 18.7908C30.8485 18.7907 30.8499 18.7907 30.8525 18.7908C30.9138 18.7911 30.9634 18.8411 30.9639 18.9023C30.9646 18.9643 30.9145 19.0149 30.8525 19.0157C30.7898 19.0161 30.7387 18.965 30.7393 18.9023C30.7396 18.8433 30.7858 18.7945 30.8447 18.7908H30.8447ZM30.833 19.3533H30.835C30.8426 19.3527 30.845 19.3527 30.8525 19.3533C30.9138 19.354 30.9634 19.4036 30.9639 19.4648C30.9646 19.5268 30.9145 19.5775 30.8525 19.5782C30.7898 19.5786 30.7386 19.5276 30.7392 19.4648C30.7389 19.4096 30.7786 19.3609 30.833 19.3533ZM30.8525 19.9139C30.9149 19.9146 30.9644 19.9653 30.9639 20.0272C30.9631 20.0885 30.9138 20.138 30.8525 20.1388C30.7902 20.1395 30.7398 20.0896 30.7393 20.0272C30.7389 19.9645 30.7898 19.9135 30.8525 19.9139ZM25.292 20.4217C25.5342 20.4183 25.7777 20.5082 25.9658 20.6911C26.3423 21.0574 26.3495 21.6545 25.9834 22.031L24.1748 23.8904C23.8087 24.268 23.2112 24.2742 22.835 23.9093C22.4585 23.5431 22.4513 22.9454 22.8174 22.5694L24.626 20.712C24.809 20.5238 25.0498 20.4263 25.292 20.4229V20.4217ZM30.8447 20.4765C30.8485 20.4764 30.8499 20.4764 30.8526 20.4765C30.9145 20.4769 30.9645 20.5279 30.9639 20.5899C30.9635 20.6511 30.9138 20.7007 30.8526 20.7014C30.7902 20.7022 30.7398 20.6519 30.7393 20.5899C30.7385 20.5298 30.785 20.4803 30.8447 20.4765H30.8447ZM30.8447 21.039C30.8485 21.0389 30.8499 21.0389 30.8526 21.039C30.9145 21.0398 30.9645 21.0904 30.9639 21.1524C30.9635 21.214 30.9138 21.2631 30.8526 21.2638C30.7902 21.2642 30.7398 21.2144 30.7393 21.1524C30.7385 21.0923 30.785 21.0428 30.8447 21.039H30.8447ZM30.8447 21.6015C30.8485 21.6015 30.8499 21.6015 30.8526 21.6015C30.9145 21.6023 30.9645 21.6529 30.9639 21.7149C30.9635 21.7765 30.9138 21.8256 30.8526 21.826C30.7902 21.8264 30.7398 21.7769 30.7393 21.7149C30.7385 21.6548 30.785 21.6053 30.8447 21.6015H30.8447ZM30.8447 22.1639C30.8485 22.1638 30.8499 22.1638 30.8526 22.1639C30.9138 22.1643 30.9634 22.2143 30.9639 22.2755C30.9646 22.3375 30.9145 22.3881 30.8526 22.3889C30.7898 22.3892 30.7387 22.3382 30.7393 22.2755C30.7397 22.2165 30.7858 22.1677 30.8447 22.1639H30.8447ZM30.8447 22.7265C30.8485 22.7264 30.8499 22.7264 30.8526 22.7265C30.9138 22.7268 30.9634 22.7768 30.9639 22.838C30.9646 22.9 30.9145 22.9506 30.8526 22.9514C30.7898 22.9518 30.7387 22.9007 30.7393 22.838C30.7397 22.779 30.7858 22.7302 30.8447 22.7265H30.8447ZM19.7236 23.0292C19.9658 23.0258 20.2093 23.1158 20.3975 23.2987C20.7739 23.6649 20.7812 24.2621 20.415 24.6385L18.6064 26.4979C18.2403 26.8755 17.6429 26.8818 17.2666 26.5168C16.8902 26.1506 16.8829 25.5529 17.249 25.1769L19.0576 23.3196C19.2407 23.1313 19.4814 23.0338 19.7236 23.0304L19.7236 23.0292ZM30.8447 23.2889C30.8485 23.2888 30.8499 23.2888 30.8526 23.2889C30.9138 23.2896 30.9634 23.3392 30.9639 23.4004C30.9646 23.4624 30.9145 23.513 30.8526 23.5138C30.7898 23.5142 30.7387 23.4632 30.7393 23.4004C30.7397 23.3411 30.7858 23.2927 30.8447 23.2889H30.8447ZM30.833 23.8514H30.835C30.8426 23.8508 30.845 23.8508 30.8525 23.8514C30.9138 23.8522 30.9634 23.9016 30.9639 23.9625C30.9646 24.0245 30.9145 24.0755 30.8525 24.0759C30.7898 24.0762 30.7387 24.0252 30.7393 23.9625C30.7389 23.9073 30.7786 23.859 30.833 23.8514H30.833ZM30.833 24.4139H30.835C30.8426 24.4134 30.845 24.4134 30.8525 24.4139C30.9138 24.4147 30.9634 24.4638 30.9639 24.525C30.9635 24.5862 30.9138 24.6358 30.8525 24.6365C30.7902 24.6373 30.7398 24.587 30.7393 24.525C30.7389 24.4698 30.7786 24.4215 30.833 24.4139H30.833ZM30.8447 24.9744C30.8485 24.9743 30.8499 24.9743 30.8526 24.9744C30.9145 24.9751 30.9645 25.0259 30.9639 25.0879C30.9635 25.1495 30.9138 25.1985 30.8526 25.1993C30.7902 25.1997 30.7398 25.1499 30.7393 25.0879C30.7385 25.0278 30.785 24.9781 30.8447 24.9744H30.8447ZM30.8447 25.5369C30.8485 25.5368 30.8499 25.5368 30.8526 25.5369C30.9145 25.5376 30.9645 25.5883 30.9639 25.6503C30.9635 25.7119 30.9138 25.7611 30.8526 25.7615C30.7902 25.7618 30.7398 25.7119 30.7393 25.6503C30.7385 25.5902 30.785 25.5407 30.8447 25.5369H30.8447ZM25.292 25.6363C25.5342 25.6329 25.7777 25.7228 25.9658 25.9058C26.3423 26.272 26.3495 26.8692 25.9834 27.2457L24.1748 29.105C23.8087 29.4826 23.2112 29.4888 22.835 29.1239C22.4585 28.7577 22.4513 28.1602 22.8174 27.7841L24.626 25.9266C24.809 25.7384 25.0498 25.6409 25.292 25.6375V25.6363ZM30.8447 26.0992C30.8485 26.0991 30.8499 26.0991 30.8526 26.0992C30.9145 26.0999 30.9645 26.1506 30.9639 26.2126C30.9635 26.2742 30.9138 26.3234 30.8526 26.3238C30.7902 26.3241 30.7398 26.2746 30.7393 26.2126C30.7385 26.1525 30.785 26.103 30.8447 26.0992H30.8447ZM30.8447 26.6617C30.8485 26.6616 30.8499 26.6616 30.8526 26.6617C30.9138 26.6625 30.9634 26.712 30.9639 26.7732C30.9646 26.8352 30.9145 26.8859 30.8526 26.8866C30.7898 26.887 30.7387 26.836 30.7393 26.7732C30.7397 26.7139 30.7858 26.6655 30.8447 26.6617H30.8447ZM30.8447 27.2242C30.8485 27.2242 30.8499 27.2242 30.8526 27.2242C30.9138 27.225 30.9634 27.2745 30.9639 27.3358C30.9646 27.3978 30.9145 27.4484 30.8526 27.4491C30.7898 27.4495 30.7387 27.3985 30.7393 27.3358C30.7397 27.2764 30.7858 27.228 30.8447 27.2242H30.8447ZM30.8447 27.7868C30.8485 27.7867 30.8499 27.7867 30.8526 27.7868C30.9138 27.7875 30.9634 27.8366 30.9639 27.8978C30.9646 27.9598 30.9145 28.0108 30.8526 28.0112C30.7898 28.0116 30.7387 27.9606 30.7393 27.8978C30.7397 27.8385 30.7858 27.7902 30.8447 27.7868H30.8447ZM19.7236 28.2868C19.9658 28.2834 20.2093 28.3733 20.3975 28.5562C20.7739 28.9224 20.7812 29.5196 20.415 29.896L18.6064 31.7554C18.2403 32.133 17.6429 32.1412 17.2666 31.7744C16.8902 31.4081 16.8829 30.8105 17.249 30.4344L19.0576 28.5771C19.2407 28.3889 19.4814 28.2913 19.7236 28.2879L19.7236 28.2868ZM30.833 28.349H30.835C30.8426 28.3485 30.845 28.3485 30.8525 28.349C30.9138 28.3498 30.9634 28.3994 30.9639 28.4602C30.9635 28.5215 30.9138 28.5709 30.8525 28.5717C30.7902 28.5724 30.7398 28.5222 30.7393 28.4602C30.7389 28.4051 30.7786 28.3566 30.833 28.349H30.833ZM30.8526 28.9096C30.9149 28.9104 30.9644 28.961 30.9639 29.023C30.9631 29.0846 30.9138 29.1338 30.8526 29.1345C30.7902 29.1349 30.7398 29.085 30.7393 29.023C30.7389 28.9603 30.7898 28.9092 30.8526 28.9096ZM30.8447 29.4721C30.8485 29.4721 30.8499 29.4721 30.8526 29.4721C30.9145 29.4729 30.9645 29.5235 30.9639 29.5855C30.9635 29.6471 30.9138 29.6962 30.8526 29.6966C30.7902 29.697 30.7398 29.6475 30.7393 29.5855C30.7385 29.5254 30.785 29.4759 30.8447 29.4721H30.8447ZM30.8447 30.0347C30.8485 30.0346 30.8499 30.0346 30.8526 30.0347C30.9145 30.0354 30.9645 30.0861 30.9639 30.148C30.9635 30.2096 30.9138 30.2587 30.8526 30.2591C30.7902 30.2595 30.7398 30.2096 30.7393 30.148C30.7385 30.0879 30.785 30.0384 30.8447 30.0347H30.8447ZM30.8447 30.5971C30.8485 30.597 30.8499 30.597 30.8526 30.5971C30.9145 30.5978 30.9645 30.6485 30.9639 30.7104C30.9635 30.7717 30.9138 30.8213 30.8526 30.8216C30.7902 30.8224 30.7398 30.7724 30.7393 30.7104C30.7385 30.6504 30.785 30.6008 30.8447 30.5971H30.8447ZM25.292 30.851C25.5342 30.8476 25.7777 30.9377 25.9658 31.1206C26.3423 31.4868 26.3495 32.084 25.9834 32.4604L24.1748 34.3198C23.8087 34.6974 23.2112 34.7036 22.835 34.3386C22.4585 33.9724 22.4513 33.3749 22.8174 32.9988L24.626 31.1407C24.809 30.9524 25.0498 30.8549 25.292 30.8515V30.851ZM30.8447 31.1599C30.8485 31.1598 30.8499 31.1598 30.8526 31.1599C30.9138 31.1607 30.9634 31.2101 30.9639 31.2714C30.9646 31.3333 30.9145 31.384 30.8526 31.3847C30.7898 31.3851 30.7387 31.3341 30.7393 31.2714C30.7396 31.212 30.7858 31.1637 30.8447 31.1599H30.8447ZM30.8447 31.7223C30.8485 31.7223 30.8499 31.7223 30.8526 31.7223C30.9138 31.7231 30.9634 31.7727 30.9639 31.8335C30.9646 31.8955 30.9145 31.9465 30.8526 31.9469C30.7898 31.9473 30.7387 31.8963 30.7393 31.8335C30.7396 31.7742 30.7858 31.7257 30.8447 31.7223H30.8447ZM30.833 32.2849H30.835C30.8426 32.2843 30.845 32.2843 30.8525 32.2849C30.9138 32.2856 30.9634 32.3348 30.9639 32.3961C30.9646 32.458 30.9145 32.5091 30.8525 32.5094C30.7898 32.5098 30.7387 32.4588 30.7393 32.3961C30.7389 32.3409 30.7786 32.2924 30.833 32.2849H30.833ZM30.833 32.8474H30.835C30.8426 32.8468 30.845 32.8468 30.8525 32.8474C30.9138 32.8478 30.9634 32.8977 30.9639 32.9586C30.9635 33.0202 30.9138 33.0692 30.8525 33.07C30.7902 33.0704 30.7398 33.0206 30.7393 32.9586C30.7389 32.9038 30.7786 32.8549 30.833 32.8474H30.833ZM30.8526 33.4079C30.9149 33.4087 30.9644 33.4593 30.9639 33.5213C30.9631 33.5829 30.9138 33.632 30.8526 33.6324C30.7902 33.6328 30.7398 33.5829 30.7393 33.5213C30.7389 33.4586 30.7898 33.4076 30.8526 33.4079ZM19.7236 33.5467C19.9659 33.5433 20.2093 33.6332 20.3975 33.8161C20.7739 34.1824 20.7812 34.7795 20.415 35.156L18.6065 37.0154C18.2403 37.393 17.6429 37.4012 17.2666 37.0343C16.8902 36.6681 16.8829 36.0704 17.249 35.6944L19.0576 33.8369C19.2407 33.6487 19.4815 33.5513 19.7236 33.5479L19.7236 33.5467ZM30.8447 33.9705C30.8486 33.9704 30.85 33.9704 30.8526 33.9705C30.9145 33.9712 30.9645 34.0219 30.9639 34.0839C30.9635 34.1455 30.9138 34.1945 30.8526 34.1949C30.7902 34.1953 30.7398 34.1458 30.7393 34.0839C30.7385 34.0238 30.785 33.9743 30.8448 33.9705H30.8447ZM30.8447 34.533C30.8486 34.5329 30.85 34.5329 30.8526 34.533C30.9145 34.5338 30.9645 34.5844 30.9639 34.6464C30.9635 34.708 30.9138 34.7571 30.8526 34.7575C30.7902 34.7578 30.7398 34.708 30.7393 34.6464C30.7385 34.5863 30.785 34.5368 30.8448 34.533H30.8447ZM30.8447 35.0955C30.8486 35.0954 30.85 35.0954 30.8526 35.0955C30.9138 35.0963 30.9634 35.1457 30.9639 35.2069C30.9646 35.2689 30.9145 35.3196 30.8526 35.3203C30.7898 35.3207 30.7387 35.2697 30.7393 35.2069C30.7397 35.1476 30.7858 35.0993 30.8448 35.0955H30.8447ZM30.8447 35.6579C30.8486 35.6579 30.85 35.6579 30.8526 35.6579C30.9138 35.6587 30.9634 35.7079 30.9639 35.7691C30.9646 35.8311 30.9145 35.8821 30.8526 35.8825C30.7898 35.8829 30.7387 35.8319 30.7393 35.7691C30.7397 35.7098 30.7858 35.6613 30.8448 35.6579H30.8447ZM30.8447 36.2204C30.8486 36.2204 30.85 36.2204 30.8526 36.2204C30.9138 36.2212 30.9634 36.2708 30.9639 36.3316C30.9646 36.3936 30.9145 36.4446 30.8526 36.445C30.7898 36.4454 30.7387 36.3944 30.7393 36.3316C30.7397 36.2723 30.7858 36.2239 30.8448 36.2204H30.8447ZM30.8447 36.783C30.8486 36.7829 30.85 36.7829 30.8526 36.783C30.9138 36.7837 30.9634 36.8329 30.9639 36.8942C30.9646 36.9561 30.9145 37.0068 30.8526 37.0075C30.7898 37.0079 30.7387 36.9569 30.7393 36.8942C30.7397 36.8348 30.7858 36.7864 30.8448 36.783H30.8447ZM30.833 37.3455H30.835C30.8426 37.3449 30.845 37.3449 30.8526 37.3455C30.9138 37.3462 30.9634 37.3957 30.9639 37.4569C30.9635 37.5181 30.9138 37.5677 30.8526 37.5681C30.7902 37.5689 30.7398 37.5189 30.7393 37.4569C30.7389 37.4017 30.7786 37.3531 30.833 37.3455ZM30.8447 37.9061C30.8486 37.906 30.85 37.906 30.8526 37.9061C30.9145 37.9068 30.9645 37.9575 30.9639 38.0194C30.9635 38.081 30.9138 38.1301 30.8526 38.1305C30.7902 38.1309 30.7398 38.081 30.7393 38.0194C30.7385 37.9593 30.785 37.9098 30.8448 37.9061H30.8447ZM30.8447 38.4685C30.8486 38.4683 30.85 38.4683 30.8526 38.4685C30.9145 38.4692 30.9645 38.5199 30.9639 38.5818C30.9635 38.6435 30.9138 38.6927 30.8526 38.693C30.7902 38.6934 30.7398 38.6438 30.7393 38.5818C30.7385 38.5218 30.785 38.4722 30.8448 38.4685H30.8447ZM30.8447 39.031C30.8486 39.0309 30.85 39.0309 30.8526 39.031C30.9145 39.0317 30.9645 39.0824 30.9639 39.1444C30.9635 39.206 30.9138 39.2551 30.8526 39.2559C30.7902 39.2563 30.7398 39.2064 30.7393 39.1444C30.7385 39.0843 30.785 39.0348 30.8448 39.031H30.8447ZM30.8447 39.5935C30.8486 39.5934 30.85 39.5934 30.8526 39.5935C30.9138 39.5943 30.9634 39.6438 30.9639 39.705C30.9646 39.767 30.9145 39.8177 30.8526 39.8184C30.7898 39.8188 30.7387 39.7678 30.7393 39.705C30.7397 39.6457 30.7858 39.5973 30.8448 39.5935H30.8447ZM30.8447 40.156C30.8486 40.156 30.85 40.156 30.8526 40.156C30.9138 40.1568 30.9634 40.2059 30.9639 40.2671C30.9646 40.3291 30.9145 40.3801 30.8526 40.3805C30.7898 40.3809 30.7387 40.3298 30.7393 40.2671C30.7397 40.2078 30.7858 40.1594 30.8448 40.156H30.8447ZM30.8447 40.7186C30.8486 40.7185 30.85 40.7185 30.8526 40.7186C30.9138 40.7193 30.9634 40.7688 30.9639 40.8296C30.9646 40.8916 30.9145 40.9423 30.8526 40.943C30.7898 40.9434 30.7387 40.8924 30.7393 40.8296C30.7397 40.7703 30.7858 40.722 30.8448 40.7186H30.8447ZM30.833 41.281H30.835C30.8426 41.2804 30.845 41.2804 30.8526 41.281C30.9138 41.2817 30.9634 41.3313 30.9639 41.3925C30.9646 41.4545 30.9145 41.5051 30.8526 41.5059C30.7898 41.5063 30.7387 41.4552 30.7393 41.3925C30.7389 41.3373 30.7786 41.2885 30.833 41.281ZM30.833 41.8435H30.835C30.8426 41.8429 30.845 41.8429 30.8526 41.8435C30.9138 41.8442 30.9634 41.8938 30.9639 41.955C30.9635 42.0166 30.9138 42.0657 30.8526 42.0661C30.7902 42.0665 30.7398 42.017 30.7393 41.955C30.7389 41.8998 30.7786 41.851 30.833 41.8435ZM30.8526 42.404C30.9149 42.4048 30.9645 42.4554 30.9639 42.5174C30.9631 42.579 30.9138 42.6281 30.8526 42.6285C30.7902 42.6289 30.7398 42.579 30.7393 42.5174C30.7389 42.4547 30.7898 42.4037 30.8526 42.404ZM30.8447 42.9666C30.8486 42.9665 30.85 42.9665 30.8526 42.9666C30.9145 42.9673 30.9645 43.018 30.9639 43.08C30.9635 43.1416 30.9138 43.1907 30.8526 43.1915C30.7902 43.1919 30.7398 43.1419 30.7393 43.08C30.7385 43.0199 30.785 42.9704 30.8448 42.9666H30.8447Z" fill="#333333"/>
</svg>
