<svg width="48" height="48" viewBox="0 0 48 48" fill="none" xmlns="http://www.w3.org/2000/svg">
<g clip-path="url(#clip0)">
<path fill-rule="evenodd" clip-rule="evenodd" d="M0.0209961 0.0078125V48.0078H48.021V0.0078125H0.0209961ZM28.844 3.98581C30.537 3.99081 32.223 4.00281 33.873 4.02881C34.743 4.02881 35.441 4.72881 35.441 5.59781V42.4588C35.441 43.3288 34.742 44.0288 33.873 44.0288H14.168C13.298 44.0288 12.602 43.3288 12.602 42.4588V5.59781C12.602 4.72781 13.299 4.02881 14.168 4.02881C18.618 4.02681 23.764 3.97081 28.844 3.98581ZM20.389 4.96881C20.3593 4.97054 20.3315 4.98399 20.3117 5.00621C20.2919 5.02844 20.2818 5.05761 20.2835 5.08731C20.2852 5.11702 20.2987 5.14482 20.3209 5.1646C20.3431 5.18439 20.3723 5.19454 20.402 5.19281C20.4317 5.19109 20.4595 5.17764 20.4793 5.15541C20.4991 5.13319 20.5092 5.10402 20.5075 5.07431C20.5058 5.04461 20.4923 5.01681 20.4701 4.99702C20.4479 4.97724 20.4187 4.96709 20.389 4.96881ZM27.639 4.96881C27.6093 4.97054 27.5815 4.98399 27.5617 5.00621C27.5419 5.02844 27.5318 5.05761 27.5335 5.08731C27.5352 5.11702 27.5487 5.14482 27.5709 5.1646C27.5931 5.18439 27.6223 5.19454 27.652 5.19281C27.6817 5.19109 27.7095 5.17764 27.7293 5.15541C27.7491 5.13319 27.7592 5.10402 27.7575 5.07431C27.7558 5.04461 27.7423 5.01681 27.7201 4.99702C27.6979 4.97724 27.6687 4.96709 27.639 4.96881ZM20.389 5.53081C20.3597 5.53186 20.3319 5.54439 20.3117 5.5657C20.2915 5.587 20.2805 5.61539 20.281 5.64474C20.2815 5.67409 20.2936 5.70207 20.3145 5.72264C20.3355 5.74321 20.3636 5.75474 20.393 5.75474C20.4224 5.75474 20.4505 5.74321 20.4715 5.72264C20.4924 5.70207 20.5045 5.67409 20.505 5.64474C20.5055 5.61539 20.4945 5.587 20.4743 5.5657C20.4541 5.54439 20.4263 5.53186 20.397 5.53081H20.389ZM27.639 5.53081C27.6097 5.53186 27.5819 5.54439 27.5617 5.5657C27.5415 5.587 27.5305 5.61539 27.531 5.64474C27.5315 5.67409 27.5436 5.70207 27.5645 5.72264C27.5855 5.74321 27.6136 5.75474 27.643 5.75474C27.6724 5.75474 27.7005 5.74321 27.7215 5.72264C27.7424 5.70207 27.7545 5.67409 27.755 5.64474C27.7555 5.61539 27.7445 5.587 27.7243 5.5657C27.7041 5.54439 27.6763 5.53186 27.647 5.53081H27.639ZM20.379 6.09381C20.3578 6.09706 20.338 6.10631 20.322 6.12046C20.3059 6.13462 20.2942 6.15308 20.2883 6.17366C20.2824 6.19425 20.2826 6.21609 20.2887 6.2366C20.2948 6.25712 20.3067 6.27545 20.3229 6.28941C20.3392 6.30338 20.3591 6.3124 20.3803 6.31541C20.4015 6.31841 20.4231 6.31528 20.4426 6.30638C20.462 6.29747 20.4786 6.28317 20.4901 6.26517C20.5017 6.24717 20.5079 6.22622 20.508 6.20481C20.508 6.14481 20.458 6.09481 20.396 6.09381H20.379ZM27.629 6.09381C27.6078 6.09706 27.588 6.10631 27.572 6.12046C27.5559 6.13462 27.5442 6.15308 27.5383 6.17366C27.5324 6.19425 27.5326 6.21609 27.5387 6.2366C27.5448 6.25712 27.5567 6.27545 27.5729 6.28941C27.5892 6.30338 27.6091 6.3124 27.6303 6.31541C27.6515 6.31841 27.6731 6.31528 27.6926 6.30638C27.712 6.29747 27.7286 6.28317 27.7401 6.26517C27.7517 6.24717 27.7579 6.22622 27.758 6.20481C27.758 6.14481 27.708 6.09481 27.646 6.09381H27.629ZM20.399 6.65381C20.3833 6.65233 20.3675 6.65414 20.3526 6.65912C20.3377 6.66411 20.324 6.67215 20.3123 6.68274C20.3007 6.69333 20.2914 6.70623 20.285 6.72063C20.2787 6.73502 20.2754 6.75058 20.2754 6.76631C20.2754 6.78205 20.2787 6.79761 20.285 6.812C20.2914 6.82639 20.3007 6.83929 20.3123 6.84989C20.324 6.86048 20.3377 6.86852 20.3526 6.8735C20.3675 6.87848 20.3833 6.88029 20.399 6.87881C20.4288 6.87881 20.4574 6.86696 20.4785 6.84586C20.4996 6.82476 20.5115 6.79615 20.5115 6.76631C20.5115 6.73648 20.4996 6.70786 20.4785 6.68676C20.4574 6.66567 20.4288 6.65381 20.399 6.65381ZM27.649 6.65381C27.6333 6.65233 27.6175 6.65414 27.6026 6.65912C27.5877 6.66411 27.574 6.67215 27.5623 6.68274C27.5507 6.69333 27.5414 6.70623 27.535 6.72063C27.5287 6.73502 27.5254 6.75058 27.5254 6.76631C27.5254 6.78205 27.5287 6.79761 27.535 6.812C27.5414 6.82639 27.5507 6.83929 27.5623 6.84989C27.574 6.86048 27.5877 6.86852 27.6026 6.8735C27.6175 6.87848 27.6333 6.88029 27.649 6.87881C27.6788 6.87881 27.7074 6.86696 27.7285 6.84586C27.7496 6.82476 27.7615 6.79615 27.7615 6.76631C27.7615 6.73648 27.7496 6.70786 27.7285 6.68676C27.7074 6.66567 27.6788 6.65381 27.649 6.65381ZM20.389 7.21681C20.3593 7.21787 20.3312 7.23069 20.311 7.25245C20.2907 7.2742 20.2799 7.30311 20.281 7.33281C20.2821 7.36252 20.2949 7.39058 20.3166 7.41084C20.3384 7.43109 20.3673 7.44187 20.397 7.44081C20.4117 7.44029 20.4262 7.43687 20.4396 7.43076C20.4529 7.42464 20.465 7.41595 20.475 7.40518C20.4851 7.39441 20.4929 7.38177 20.498 7.36798C20.5031 7.35419 20.5055 7.33952 20.505 7.32481C20.5045 7.3101 20.5011 7.29564 20.4949 7.28226C20.4888 7.26887 20.4801 7.25682 20.4694 7.24679C20.4586 7.23676 20.446 7.22895 20.4322 7.22381C20.4184 7.21866 20.4037 7.21629 20.389 7.21681ZM27.639 7.21681C27.6097 7.21786 27.5819 7.23039 27.5617 7.2517C27.5415 7.273 27.5305 7.30139 27.531 7.33074C27.5315 7.36009 27.5436 7.38807 27.5645 7.40864C27.5855 7.42921 27.6136 7.44074 27.643 7.44074C27.6724 7.44074 27.7005 7.42921 27.7215 7.40864C27.7424 7.38807 27.7545 7.36009 27.755 7.33074C27.7555 7.30139 27.7445 7.273 27.7243 7.2517C27.7041 7.23039 27.6763 7.21786 27.647 7.21681H27.639ZM17.154 7.39781C16.7296 7.39781 16.3227 7.56638 16.0226 7.86644C15.7226 8.1665 15.554 8.57347 15.554 8.99781C15.554 9.42216 15.7226 9.82912 16.0226 10.1292C16.3227 10.4292 16.7296 10.5978 17.154 10.5978C17.5783 10.5978 17.9853 10.4292 18.2854 10.1292C18.5854 9.82912 18.754 9.42216 18.754 8.99781C18.754 8.57347 18.5854 8.1665 18.2854 7.86644C17.9853 7.56638 17.5783 7.39781 17.154 7.39781ZM24.258 7.39781C23.8336 7.39781 23.4267 7.56638 23.1266 7.86644C22.8266 8.1665 22.658 8.57347 22.658 8.99781C22.658 9.42216 22.8266 9.82912 23.1266 10.1292C23.4267 10.4292 23.8336 10.5978 24.258 10.5978C24.6823 10.5978 25.0893 10.4292 25.3894 10.1292C25.6894 9.82912 25.858 9.42216 25.858 8.99781C25.858 8.57347 25.6894 8.1665 25.3894 7.86644C25.0893 7.56638 24.6823 7.39781 24.258 7.39781ZM31.154 7.39781C30.7296 7.39781 30.3227 7.56638 30.0226 7.86644C29.7226 8.1665 29.554 8.57347 29.554 8.99781C29.554 9.42216 29.7226 9.82912 30.0226 10.1292C30.3227 10.4292 30.7296 10.5978 31.154 10.5978C31.5783 10.5978 31.9853 10.4292 32.2854 10.1292C32.5854 9.82912 32.754 9.42216 32.754 8.99781C32.754 8.57347 32.5854 8.1665 32.2854 7.86644C31.9853 7.56638 31.5783 7.39781 31.154 7.39781ZM20.389 7.77781C20.3593 7.77887 20.3312 7.79169 20.311 7.81345C20.2907 7.8352 20.2799 7.86411 20.281 7.89381C20.2821 7.92352 20.2949 7.95158 20.3166 7.97184C20.3384 7.99209 20.3673 8.00287 20.397 8.00181C20.4118 8.00129 20.4263 7.99786 20.4397 7.99172C20.4532 7.98558 20.4653 7.97685 20.4754 7.96603C20.4854 7.95522 20.4933 7.94252 20.4985 7.92867C20.5036 7.91482 20.506 7.90009 20.5055 7.88531C20.505 7.87054 20.5015 7.85601 20.4954 7.84257C20.4893 7.82912 20.4805 7.81701 20.4697 7.80693C20.4589 7.79686 20.4462 7.78901 20.4324 7.78385C20.4185 7.77868 20.4038 7.77629 20.389 7.77681V7.77781ZM27.639 7.77781C27.6097 7.77886 27.5819 7.79139 27.5617 7.8127C27.5415 7.834 27.5305 7.86239 27.531 7.89174C27.5315 7.92109 27.5436 7.94907 27.5645 7.96964C27.5855 7.99021 27.6136 8.00174 27.643 8.00174C27.6724 8.00174 27.7005 7.99021 27.7215 7.96964C27.7424 7.94907 27.7545 7.92109 27.755 7.89174C27.7555 7.86239 27.7445 7.834 27.7243 7.8127C27.7041 7.79139 27.6763 7.77886 27.647 7.77781H27.639ZM20.389 8.33981C20.3743 8.34034 20.3598 8.34375 20.3464 8.34987C20.3331 8.35598 20.321 8.36467 20.311 8.37544C20.3009 8.38622 20.2931 8.39886 20.288 8.41265C20.2828 8.42644 20.2805 8.4411 20.281 8.45581C20.2815 8.47052 20.2849 8.48498 20.2911 8.49837C20.2972 8.51176 20.3059 8.52381 20.3166 8.53384C20.3274 8.54387 20.34 8.55167 20.3538 8.55682C20.3676 8.56196 20.3823 8.56434 20.397 8.56381C20.457 8.56381 20.507 8.51381 20.507 8.45381C20.5073 8.43842 20.5044 8.42313 20.4985 8.4089C20.4927 8.39467 20.4839 8.3818 20.4728 8.3711C20.4618 8.3604 20.4486 8.3521 20.4342 8.34672C20.4198 8.34134 20.4044 8.33898 20.389 8.33981ZM27.639 8.33981C27.6097 8.34086 27.5819 8.35339 27.5617 8.37469C27.5415 8.396 27.5305 8.42439 27.531 8.45374C27.5315 8.48309 27.5436 8.51107 27.5645 8.53164C27.5855 8.55221 27.6136 8.56374 27.643 8.56374C27.6724 8.56374 27.7005 8.55221 27.7215 8.53164C27.7424 8.51107 27.7545 8.48309 27.755 8.45374C27.7555 8.42439 27.7445 8.396 27.7243 8.37469C27.7041 8.35339 27.6763 8.34086 27.647 8.33981H27.639ZM20.389 8.90181C20.3735 8.90168 20.3581 8.90474 20.3438 8.91081C20.3296 8.91687 20.3167 8.92582 20.306 8.93707C20.2953 8.94833 20.2871 8.96167 20.2818 8.97625C20.2765 8.99083 20.2743 9.00634 20.2752 9.02183C20.2762 9.03731 20.2803 9.05243 20.2874 9.06624C20.2945 9.08005 20.3043 9.09226 20.3163 9.10211C20.3283 9.11196 20.3421 9.11924 20.3571 9.12348C20.372 9.12773 20.3876 9.12887 20.403 9.12681C20.4313 9.12302 20.4572 9.10864 20.4753 9.08655C20.4935 9.06447 20.5026 9.03632 20.5008 9.00779C20.499 8.97926 20.4865 8.95246 20.4658 8.93279C20.445 8.91313 20.4176 8.90206 20.389 8.90181ZM27.639 8.90181C27.6235 8.90168 27.6081 8.90474 27.5938 8.91081C27.5796 8.91687 27.5667 8.92582 27.556 8.93707C27.5453 8.94833 27.5371 8.96167 27.5318 8.97625C27.5265 8.99083 27.5243 9.00634 27.5252 9.02183C27.5262 9.03731 27.5303 9.05243 27.5374 9.06624C27.5445 9.08005 27.5543 9.09226 27.5663 9.10211C27.5783 9.11196 27.5921 9.11924 27.6071 9.12348C27.622 9.12773 27.6376 9.12887 27.653 9.12681C27.6813 9.12302 27.7072 9.10864 27.7253 9.08655C27.7435 9.06447 27.7526 9.03632 27.7508 9.00779C27.749 8.97926 27.7365 8.95246 27.7158 8.93279C27.695 8.91313 27.6676 8.90206 27.639 8.90181ZM20.389 9.46481C20.3743 9.46567 20.3599 9.46941 20.3466 9.47583C20.3334 9.48224 20.3215 9.49121 20.3117 9.50221C20.3019 9.51322 20.2944 9.52604 20.2895 9.53996C20.2847 9.55387 20.2826 9.5686 20.2835 9.58331C20.2844 9.59802 20.2881 9.61242 20.2945 9.62568C20.3009 9.63894 20.3099 9.65081 20.3209 9.6606C20.3319 9.6704 20.3447 9.67793 20.3586 9.68277C20.3726 9.68761 20.3873 9.68967 20.402 9.68881C20.4317 9.68709 20.4595 9.67364 20.4793 9.65141C20.4991 9.62919 20.5092 9.60002 20.5075 9.57031C20.5058 9.54061 20.4923 9.5128 20.4701 9.49302C20.4479 9.47324 20.4187 9.46309 20.389 9.46481ZM27.639 9.46481C27.6243 9.46567 27.6099 9.46941 27.5966 9.47583C27.5834 9.48224 27.5715 9.49121 27.5617 9.50221C27.5519 9.51322 27.5444 9.52604 27.5395 9.53996C27.5347 9.55387 27.5326 9.5686 27.5335 9.58331C27.5344 9.59802 27.5381 9.61242 27.5445 9.62568C27.5509 9.63894 27.5599 9.65081 27.5709 9.6606C27.5819 9.6704 27.5947 9.67793 27.6086 9.68277C27.6226 9.68761 27.6373 9.68967 27.652 9.68881C27.6817 9.68709 27.7095 9.67364 27.7293 9.65141C27.7491 9.62919 27.7592 9.60002 27.7575 9.57031C27.7558 9.54061 27.7423 9.5128 27.7201 9.49302C27.6979 9.47324 27.6687 9.46309 27.639 9.46481ZM20.377 10.0268C20.3503 10.0314 20.326 10.0454 20.3088 10.0663C20.2915 10.0872 20.2824 10.1137 20.283 10.1408C20.283 10.1706 20.2948 10.1993 20.3159 10.2204C20.337 10.2415 20.3657 10.2533 20.3955 10.2533C20.4253 10.2533 20.4539 10.2415 20.475 10.2204C20.4961 10.1993 20.508 10.1706 20.508 10.1408C20.508 10.1111 20.4964 10.0825 20.4757 10.0612C20.4549 10.0399 20.4267 10.0276 20.397 10.0268H20.377ZM27.627 10.0268C27.6003 10.0314 27.576 10.0454 27.5588 10.0663C27.5415 10.0872 27.5324 10.1137 27.533 10.1408C27.533 10.1706 27.5448 10.1993 27.5659 10.2204C27.587 10.2415 27.6157 10.2533 27.6455 10.2533C27.6753 10.2533 27.7039 10.2415 27.725 10.2204C27.7461 10.1993 27.758 10.1706 27.758 10.1408C27.758 10.1111 27.7464 10.0825 27.7257 10.0612C27.7049 10.0399 27.6767 10.0276 27.647 10.0268H27.627ZM20.398 10.5868C20.3829 10.5869 20.3681 10.5901 20.3542 10.596C20.3404 10.6019 20.3278 10.6105 20.3173 10.6213C20.3068 10.632 20.2985 10.6448 20.293 10.6588C20.2875 10.6728 20.2847 10.6878 20.285 10.7028C20.285 10.7648 20.336 10.8128 20.398 10.8128C20.4126 10.8131 20.4271 10.8104 20.4407 10.805C20.4543 10.7996 20.4666 10.7916 20.4771 10.7813C20.4875 10.7711 20.4958 10.7589 20.5014 10.7454C20.5071 10.7319 20.51 10.7174 20.51 10.7028C20.5103 10.6727 20.4986 10.6438 20.4777 10.6223C20.4567 10.6007 20.4281 10.5883 20.398 10.5878V10.5868ZM27.648 10.5868C27.6329 10.5869 27.6181 10.5901 27.6042 10.596C27.5904 10.6019 27.5778 10.6105 27.5673 10.6213C27.5568 10.632 27.5485 10.6448 27.543 10.6588C27.5375 10.6728 27.5347 10.6878 27.535 10.7028C27.535 10.7648 27.586 10.8128 27.648 10.8128C27.6626 10.8131 27.6771 10.8104 27.6907 10.805C27.7043 10.7996 27.7166 10.7916 27.7271 10.7813C27.7375 10.7711 27.7458 10.7589 27.7514 10.7454C27.7571 10.7319 27.76 10.7174 27.76 10.7028C27.7603 10.6727 27.7486 10.6438 27.7277 10.6223C27.7067 10.6007 27.6781 10.5883 27.648 10.5878V10.5868ZM20.398 11.1498C20.3682 11.1498 20.3395 11.1617 20.3184 11.1828C20.2973 11.2039 20.2855 11.2325 20.2855 11.2623C20.2855 11.2921 20.2973 11.3208 20.3184 11.3419C20.3395 11.363 20.3682 11.3748 20.398 11.3748C20.4278 11.3748 20.4564 11.363 20.4775 11.3419C20.4986 11.3208 20.5105 11.2921 20.5105 11.2623C20.5105 11.2325 20.4986 11.2039 20.4775 11.1828C20.4564 11.1617 20.4278 11.1498 20.398 11.1498ZM27.648 11.1498C27.6182 11.1498 27.5895 11.1617 27.5684 11.1828C27.5473 11.2039 27.5355 11.2325 27.5355 11.2623C27.5355 11.2921 27.5473 11.3208 27.5684 11.3419C27.5895 11.363 27.6182 11.3748 27.648 11.3748C27.6778 11.3748 27.7064 11.363 27.7275 11.3419C27.7486 11.3208 27.7605 11.2921 27.7605 11.2623C27.7605 11.2325 27.7486 11.2039 27.7275 11.1828C27.7064 11.1617 27.6778 11.1498 27.648 11.1498ZM17.154 11.2338C16.9439 11.2338 16.7358 11.2752 16.5417 11.3556C16.3476 11.436 16.1712 11.5539 16.0226 11.7024C15.8741 11.851 15.7562 12.0274 15.6758 12.2215C15.5954 12.4156 15.554 12.6237 15.554 12.8338C15.554 13.0439 15.5954 13.252 15.6758 13.4461C15.7562 13.6402 15.8741 13.8166 16.0226 13.9652C16.1712 14.1138 16.3476 14.2316 16.5417 14.312C16.7358 14.3924 16.9439 14.4338 17.154 14.4338C17.5783 14.4338 17.9853 14.2652 18.2854 13.9652C18.5854 13.6651 18.754 13.2582 18.754 12.8338C18.754 12.4095 18.5854 12.0025 18.2854 11.7024C17.9853 11.4024 17.5783 11.2338 17.154 11.2338ZM24.258 11.2338C24.0479 11.2338 23.8398 11.2752 23.6457 11.3556C23.4516 11.436 23.2752 11.5539 23.1266 11.7024C22.9781 11.851 22.8602 12.0274 22.7798 12.2215C22.6994 12.4156 22.658 12.6237 22.658 12.8338C22.658 13.0439 22.6994 13.252 22.7798 13.4461C22.8602 13.6402 22.9781 13.8166 23.1266 13.9652C23.2752 14.1138 23.4516 14.2316 23.6457 14.312C23.8398 14.3924 24.0479 14.4338 24.258 14.4338C24.6823 14.4338 25.0893 14.2652 25.3894 13.9652C25.6894 13.6651 25.858 13.2582 25.858 12.8338C25.858 12.4095 25.6894 12.0025 25.3894 11.7024C25.0893 11.4024 24.6823 11.2338 24.258 11.2338ZM31.154 11.2338C30.9439 11.2338 30.7358 11.2752 30.5417 11.3556C30.3476 11.436 30.1712 11.5539 30.0226 11.7024C29.8741 11.851 29.7562 12.0274 29.6758 12.2215C29.5954 12.4156 29.554 12.6237 29.554 12.8338C29.554 13.0439 29.5954 13.252 29.6758 13.4461C29.7562 13.6402 29.8741 13.8166 30.0226 13.9652C30.1712 14.1138 30.3476 14.2316 30.5417 14.312C30.7358 14.3924 30.9439 14.4338 31.154 14.4338C31.5783 14.4338 31.9853 14.2652 32.2854 13.9652C32.5854 13.6651 32.754 13.2582 32.754 12.8338C32.754 12.4095 32.5854 12.0025 32.2854 11.7024C31.9853 11.4024 31.5783 11.2338 31.154 11.2338ZM20.389 11.7128C20.3607 11.7163 20.3347 11.7302 20.3162 11.7519C20.2977 11.7736 20.2879 11.8015 20.2889 11.83C20.29 11.8585 20.3016 11.8856 20.3216 11.9059C20.3416 11.9262 20.3685 11.9383 20.397 11.9398C20.457 11.9388 20.507 11.8868 20.507 11.8258C20.5072 11.8105 20.5042 11.7953 20.4982 11.7812C20.4923 11.7671 20.4835 11.7544 20.4725 11.7438C20.4614 11.7332 20.4483 11.725 20.4339 11.7196C20.4196 11.7143 20.4043 11.712 20.389 11.7128ZM27.639 11.7128C27.6107 11.7163 27.5847 11.7302 27.5662 11.7519C27.5477 11.7736 27.5379 11.8015 27.5389 11.83C27.54 11.8585 27.5516 11.8856 27.5716 11.9059C27.5916 11.9262 27.6185 11.9383 27.647 11.9398C27.707 11.9388 27.757 11.8868 27.757 11.8258C27.7572 11.8105 27.7542 11.7953 27.7482 11.7812C27.7423 11.7671 27.7335 11.7544 27.7225 11.7438C27.7114 11.7332 27.6983 11.725 27.6839 11.7196C27.6696 11.7143 27.6543 11.712 27.639 11.7128ZM20.389 12.2748C20.3607 12.2783 20.3347 12.2922 20.3162 12.3139C20.2977 12.3356 20.2879 12.3635 20.2889 12.392C20.29 12.4205 20.3016 12.4476 20.3216 12.4679C20.3416 12.4882 20.3685 12.5003 20.397 12.5018C20.457 12.5018 20.507 12.4498 20.507 12.3888C20.5073 12.3734 20.5044 12.3581 20.4985 12.3439C20.4927 12.3297 20.4839 12.3168 20.4728 12.3061C20.4618 12.2954 20.4486 12.2871 20.4342 12.2817C20.4198 12.2763 20.4044 12.274 20.389 12.2748ZM27.639 12.2748C27.6107 12.2783 27.5847 12.2922 27.5662 12.3139C27.5477 12.3356 27.5379 12.3635 27.5389 12.392C27.54 12.4205 27.5516 12.4476 27.5716 12.4679C27.5916 12.4882 27.6185 12.5003 27.647 12.5018C27.707 12.5018 27.757 12.4498 27.757 12.3888C27.7573 12.3734 27.7544 12.3581 27.7485 12.3439C27.7427 12.3297 27.7339 12.3168 27.7228 12.3061C27.7118 12.2954 27.6986 12.2871 27.6842 12.2817C27.6698 12.2763 27.6544 12.274 27.639 12.2748ZM20.389 12.8378C20.3735 12.8377 20.3581 12.8407 20.3438 12.8468C20.3296 12.8529 20.3167 12.8618 20.306 12.8731C20.2953 12.8843 20.2871 12.8977 20.2818 12.9122C20.2765 12.9268 20.2743 12.9423 20.2752 12.9578C20.2762 12.9733 20.2803 12.9884 20.2874 13.0022C20.2945 13.0161 20.3043 13.0283 20.3163 13.0381C20.3283 13.048 20.3421 13.0552 20.3571 13.0595C20.372 13.0637 20.3876 13.0649 20.403 13.0628C20.4313 13.059 20.4572 13.0446 20.4753 13.0226C20.4935 13.0005 20.5026 12.9723 20.5008 12.9438C20.499 12.9153 20.4865 12.8885 20.4658 12.8688C20.445 12.8491 20.4176 12.8381 20.389 12.8378ZM27.639 12.8378C27.6235 12.8377 27.6081 12.8407 27.5938 12.8468C27.5796 12.8529 27.5667 12.8618 27.556 12.8731C27.5453 12.8843 27.5371 12.8977 27.5318 12.9122C27.5265 12.9268 27.5243 12.9423 27.5252 12.9578C27.5262 12.9733 27.5303 12.9884 27.5374 13.0022C27.5445 13.0161 27.5543 13.0283 27.5663 13.0381C27.5783 13.048 27.5921 13.0552 27.6071 13.0595C27.622 13.0637 27.6376 13.0649 27.653 13.0628C27.6813 13.059 27.7072 13.0446 27.7253 13.0226C27.7435 13.0005 27.7526 12.9723 27.7508 12.9438C27.749 12.9153 27.7365 12.8885 27.7158 12.8688C27.695 12.8491 27.6676 12.8381 27.639 12.8378ZM20.389 13.3998C20.3735 13.3997 20.3581 13.4027 20.3438 13.4088C20.3296 13.4149 20.3167 13.4238 20.306 13.4351C20.2953 13.4463 20.2871 13.4597 20.2818 13.4742C20.2765 13.4888 20.2743 13.5043 20.2752 13.5198C20.2762 13.5353 20.2803 13.5504 20.2874 13.5642C20.2945 13.578 20.3043 13.5903 20.3163 13.6001C20.3283 13.61 20.3421 13.6172 20.3571 13.6215C20.372 13.6257 20.3876 13.6269 20.403 13.6248C20.4313 13.621 20.4572 13.6066 20.4753 13.5846C20.4935 13.5625 20.5026 13.5343 20.5008 13.5058C20.499 13.4773 20.4865 13.4505 20.4658 13.4308C20.445 13.4111 20.4176 13.4001 20.389 13.3998ZM27.639 13.3998C27.6235 13.3997 27.6081 13.4027 27.5938 13.4088C27.5796 13.4149 27.5667 13.4238 27.556 13.4351C27.5453 13.4463 27.5371 13.4597 27.5318 13.4742C27.5265 13.4888 27.5243 13.5043 27.5252 13.5198C27.5262 13.5353 27.5303 13.5504 27.5374 13.5642C27.5445 13.578 27.5543 13.5903 27.5663 13.6001C27.5783 13.61 27.5921 13.6172 27.6071 13.6215C27.622 13.6257 27.6376 13.6269 27.653 13.6248C27.6813 13.621 27.7072 13.6066 27.7253 13.5846C27.7435 13.5625 27.7526 13.5343 27.7508 13.5058C27.749 13.4773 27.7365 13.4505 27.7158 13.4308C27.695 13.4111 27.6676 13.4001 27.639 13.3998ZM20.389 13.9628C20.3735 13.9627 20.3581 13.9657 20.3438 13.9718C20.3296 13.9779 20.3167 13.9868 20.306 13.9981C20.2953 14.0093 20.2871 14.0227 20.2818 14.0372C20.2765 14.0518 20.2743 14.0673 20.2752 14.0828C20.2762 14.0983 20.2803 14.1134 20.2874 14.1272C20.2945 14.1411 20.3043 14.1533 20.3163 14.1631C20.3283 14.173 20.3421 14.1802 20.3571 14.1845C20.372 14.1887 20.3876 14.1899 20.403 14.1878C20.4313 14.184 20.4572 14.1696 20.4753 14.1476C20.4935 14.1255 20.5026 14.0973 20.5008 14.0688C20.499 14.0403 20.4865 14.0135 20.4658 13.9938C20.445 13.9741 20.4176 13.9631 20.389 13.9628ZM27.639 13.9628C27.6235 13.9627 27.6081 13.9657 27.5938 13.9718C27.5796 13.9779 27.5667 13.9868 27.556 13.9981C27.5453 14.0093 27.5371 14.0227 27.5318 14.0372C27.5265 14.0518 27.5243 14.0673 27.5252 14.0828C27.5262 14.0983 27.5303 14.1134 27.5374 14.1272C27.5445 14.1411 27.5543 14.1533 27.5663 14.1631C27.5783 14.173 27.5921 14.1802 27.6071 14.1845C27.622 14.1887 27.6376 14.1899 27.653 14.1878C27.6813 14.184 27.7072 14.1696 27.7253 14.1476C27.7435 14.1255 27.7526 14.0973 27.7508 14.0688C27.749 14.0403 27.7365 14.0135 27.7158 13.9938C27.695 13.9741 27.6676 13.9631 27.639 13.9628ZM20.377 14.5248C20.3504 14.5289 20.3262 14.5425 20.3089 14.5631C20.2917 14.5837 20.2824 14.6099 20.283 14.6368C20.283 14.6589 20.2895 14.6805 20.3018 14.6989C20.3141 14.7173 20.3315 14.7317 20.3519 14.7402C20.3723 14.7487 20.3948 14.751 20.4165 14.7467C20.4382 14.7425 20.4581 14.7319 20.4738 14.7164C20.4895 14.7008 20.5003 14.6809 20.5047 14.6593C20.5092 14.6376 20.5071 14.6151 20.4988 14.5946C20.4904 14.5742 20.4762 14.5566 20.4579 14.5442C20.4397 14.5317 20.4181 14.525 20.396 14.5248H20.377ZM27.627 14.5248C27.6004 14.5289 27.5762 14.5425 27.5589 14.5631C27.5417 14.5837 27.5324 14.6099 27.533 14.6368C27.533 14.6589 27.5395 14.6805 27.5518 14.6989C27.5641 14.7173 27.5815 14.7317 27.6019 14.7402C27.6223 14.7487 27.6448 14.751 27.6665 14.7467C27.6882 14.7425 27.7081 14.7319 27.7238 14.7164C27.7395 14.7008 27.7503 14.6809 27.7547 14.6593C27.7592 14.6376 27.7571 14.6151 27.7488 14.5946C27.7404 14.5742 27.7262 14.5566 27.7079 14.5442C27.6897 14.5317 27.6681 14.525 27.646 14.5248H27.627ZM17.154 15.0698C16.7296 15.0698 16.3227 15.2384 16.0226 15.5384C15.7226 15.8385 15.554 16.2455 15.554 16.6698C15.554 17.0942 15.7226 17.5011 16.0226 17.8012C16.3227 18.1012 16.7296 18.2698 17.154 18.2698C17.5783 18.2698 17.9853 18.1012 18.2854 17.8012C18.5854 17.5011 18.754 17.0942 18.754 16.6698C18.754 16.2455 18.5854 15.8385 18.2854 15.5384C17.9853 15.2384 17.5783 15.0698 17.154 15.0698ZM24.258 15.0698C23.8336 15.0698 23.4267 15.2384 23.1266 15.5384C22.8266 15.8385 22.658 16.2455 22.658 16.6698C22.658 17.0942 22.8266 17.5011 23.1266 17.8012C23.4267 18.1012 23.8336 18.2698 24.258 18.2698C24.6823 18.2698 25.0893 18.1012 25.3894 17.8012C25.6894 17.5011 25.858 17.0942 25.858 16.6698C25.858 16.2455 25.6894 15.8385 25.3894 15.5384C25.0893 15.2384 24.6823 15.0698 24.258 15.0698ZM31.154 15.0698C30.7296 15.0698 30.3227 15.2384 30.0226 15.5384C29.7226 15.8385 29.554 16.2455 29.554 16.6698C29.554 17.0942 29.7226 17.5011 30.0226 17.8012C30.3227 18.1012 30.7296 18.2698 31.154 18.2698C31.5783 18.2698 31.9853 18.1012 32.2854 17.8012C32.5854 17.5011 32.754 17.0942 32.754 16.6698C32.754 16.2455 32.5854 15.8385 32.2854 15.5384C31.9853 15.2384 31.5783 15.0698 31.154 15.0698ZM20.377 15.0898C20.3559 15.0932 20.3362 15.1026 20.3203 15.1169C20.3044 15.1311 20.2929 15.1496 20.2871 15.1702C20.2814 15.1908 20.2816 15.2126 20.2879 15.233C20.2941 15.2534 20.306 15.2717 20.3223 15.2855C20.3385 15.2994 20.3584 15.3083 20.3796 15.3113C20.4007 15.3142 20.4223 15.3111 20.4417 15.3022C20.4611 15.2933 20.4776 15.279 20.4891 15.261C20.5007 15.2431 20.5069 15.2222 20.507 15.2008C20.507 15.1408 20.457 15.0908 20.397 15.0898H20.377ZM27.627 15.0898C27.6059 15.0932 27.5862 15.1026 27.5703 15.1169C27.5544 15.1311 27.5429 15.1496 27.5371 15.1702C27.5314 15.1908 27.5316 15.2126 27.5379 15.233C27.5441 15.2534 27.556 15.2717 27.5723 15.2855C27.5885 15.2994 27.6084 15.3083 27.6296 15.3113C27.6507 15.3142 27.6723 15.3111 27.6917 15.3022C27.7111 15.2933 27.7276 15.279 27.7391 15.261C27.7507 15.2431 27.7569 15.2222 27.757 15.2008C27.757 15.1408 27.707 15.0908 27.647 15.0898H27.627ZM20.398 15.6498C20.3682 15.6498 20.3395 15.6617 20.3184 15.6828C20.2973 15.7039 20.2855 15.7325 20.2855 15.7623C20.2855 15.7921 20.2973 15.8208 20.3184 15.8419C20.3395 15.863 20.3682 15.8748 20.398 15.8748C20.4278 15.8748 20.4564 15.863 20.4775 15.8419C20.4986 15.8208 20.5105 15.7921 20.5105 15.7623C20.5105 15.7325 20.4986 15.7039 20.4775 15.6828C20.4564 15.6617 20.4278 15.6498 20.398 15.6498ZM27.648 15.6498C27.6182 15.6498 27.5895 15.6617 27.5684 15.6828C27.5473 15.7039 27.5355 15.7325 27.5355 15.7623C27.5355 15.7921 27.5473 15.8208 27.5684 15.8419C27.5895 15.863 27.6182 15.8748 27.648 15.8748C27.6778 15.8748 27.7064 15.863 27.7275 15.8419C27.7486 15.8208 27.7605 15.7921 27.7605 15.7623C27.7605 15.7325 27.7486 15.7039 27.7275 15.6828C27.7064 15.6617 27.6778 15.6498 27.648 15.6498ZM20.388 16.2128C20.3733 16.2133 20.3588 16.2168 20.3454 16.2229C20.3321 16.229 20.32 16.2377 20.31 16.2484C20.2999 16.2592 20.2921 16.2719 20.287 16.2856C20.2818 16.2994 20.2795 16.3141 20.28 16.3288C20.2805 16.3435 20.2839 16.358 20.2901 16.3714C20.2962 16.3848 20.3049 16.3968 20.3156 16.4068C20.3264 16.4169 20.339 16.4247 20.3528 16.4298C20.3666 16.435 20.3813 16.4373 20.396 16.4368C20.4107 16.4364 20.4252 16.433 20.4386 16.4269C20.452 16.4209 20.4641 16.4123 20.4742 16.4015C20.4842 16.3908 20.4921 16.3782 20.4973 16.3644C20.5025 16.3507 20.505 16.336 20.5045 16.3213C20.504 16.3066 20.5007 16.2921 20.4946 16.2787C20.4886 16.2653 20.4799 16.2532 20.4692 16.2431C20.4585 16.2331 20.4459 16.2252 20.4321 16.22C20.4184 16.2148 20.4037 16.2124 20.389 16.2128H20.388ZM27.638 16.2128C27.6087 16.2139 27.5809 16.2264 27.5607 16.2477C27.5405 16.269 27.5295 16.2974 27.53 16.3267C27.5305 16.3561 27.5426 16.3841 27.5635 16.4046C27.5845 16.4252 27.6126 16.4367 27.642 16.4367C27.6714 16.4367 27.6995 16.4252 27.7205 16.4046C27.7414 16.3841 27.7535 16.3561 27.754 16.3267C27.7545 16.2974 27.7435 16.269 27.7233 16.2477C27.7031 16.2264 27.6753 16.2139 27.646 16.2128C27.6437 16.2127 27.6413 16.2127 27.639 16.2128H27.638ZM20.388 16.7748C20.3732 16.7753 20.3587 16.7788 20.3452 16.7849C20.3318 16.791 20.3197 16.7998 20.3096 16.8106C20.2893 16.8324 20.2784 16.8615 20.2795 16.8913C20.2806 16.9212 20.2934 16.9493 20.3153 16.9697C20.3371 16.99 20.3662 17.0009 20.396 16.9998C20.4258 16.9988 20.454 16.9859 20.4744 16.964C20.4947 16.9422 20.5056 16.9131 20.5045 16.8833C20.5034 16.8535 20.4906 16.8253 20.4687 16.8049C20.4469 16.7846 20.4178 16.7738 20.388 16.7748ZM27.638 16.7748C27.6087 16.7759 27.5809 16.7884 27.5607 16.8097C27.5405 16.831 27.5295 16.8594 27.53 16.8887C27.5305 16.9181 27.5426 16.9461 27.5635 16.9666C27.5845 16.9872 27.6126 16.9987 27.642 16.9987C27.6714 16.9987 27.6995 16.9872 27.7205 16.9666C27.7414 16.9461 27.7535 16.9181 27.754 16.8887C27.7545 16.8594 27.7435 16.831 27.7233 16.8097C27.7031 16.7884 27.6753 16.7759 27.646 16.7748C27.6437 16.7747 27.6413 16.7747 27.639 16.7748H27.638ZM20.388 17.3378C20.3725 17.3378 20.3572 17.341 20.343 17.3471C20.3288 17.3533 20.316 17.3623 20.3055 17.3736C20.2949 17.3849 20.2868 17.3983 20.2816 17.4128C20.2764 17.4274 20.2742 17.4429 20.2752 17.4583C20.2763 17.4738 20.2805 17.4888 20.2876 17.5026C20.2946 17.5163 20.3045 17.5285 20.3165 17.5383C20.3284 17.5481 20.3423 17.5553 20.3572 17.5595C20.3721 17.5637 20.3877 17.5649 20.403 17.5628C20.4313 17.559 20.4572 17.5446 20.4753 17.5226C20.4935 17.5005 20.5026 17.4723 20.5008 17.4438C20.499 17.4153 20.4865 17.3885 20.4658 17.3688C20.445 17.3491 20.4176 17.3381 20.389 17.3378H20.388ZM27.638 17.3378C27.6225 17.3378 27.6072 17.341 27.593 17.3471C27.5788 17.3533 27.566 17.3623 27.5555 17.3736C27.5449 17.3849 27.5368 17.3983 27.5316 17.4128C27.5264 17.4274 27.5242 17.4429 27.5252 17.4583C27.5263 17.4738 27.5305 17.4888 27.5376 17.5026C27.5446 17.5163 27.5545 17.5285 27.5665 17.5383C27.5784 17.5481 27.5923 17.5553 27.6072 17.5595C27.6221 17.5637 27.6377 17.5649 27.653 17.5628C27.6813 17.559 27.7072 17.5446 27.7253 17.5226C27.7435 17.5005 27.7526 17.4723 27.7508 17.4438C27.749 17.4153 27.7365 17.3885 27.7158 17.3688C27.695 17.3491 27.6676 17.3381 27.639 17.3378H27.638ZM20.388 17.8998C20.3725 17.8998 20.3572 17.903 20.343 17.9091C20.3288 17.9153 20.316 17.9243 20.3055 17.9356C20.2949 17.9469 20.2868 17.9603 20.2816 17.9748C20.2764 17.9894 20.2742 18.0049 20.2752 18.0203C20.2763 18.0358 20.2805 18.0508 20.2876 18.0646C20.2946 18.0783 20.3045 18.0905 20.3165 18.1003C20.3284 18.1101 20.3423 18.1173 20.3572 18.1215C20.3721 18.1257 20.3877 18.1269 20.403 18.1248C20.4313 18.121 20.4572 18.1066 20.4753 18.0846C20.4935 18.0625 20.5026 18.0343 20.5008 18.0058C20.499 17.9773 20.4865 17.9505 20.4658 17.9308C20.445 17.9111 20.4176 17.9001 20.389 17.8998H20.388ZM27.638 17.8998C27.6225 17.8998 27.6072 17.903 27.593 17.9091C27.5788 17.9153 27.566 17.9243 27.5555 17.9356C27.5449 17.9469 27.5368 17.9603 27.5316 17.9748C27.5264 17.9894 27.5242 18.0049 27.5252 18.0203C27.5263 18.0358 27.5305 18.0508 27.5376 18.0646C27.5446 18.0783 27.5545 18.0905 27.5665 18.1003C27.5784 18.1101 27.5923 18.1173 27.6072 18.1215C27.6221 18.1257 27.6377 18.1269 27.653 18.1248C27.6813 18.121 27.7072 18.1066 27.7253 18.0846C27.7435 18.0625 27.7526 18.0343 27.7508 18.0058C27.749 17.9773 27.7365 17.9505 27.7158 17.9308C27.695 17.9111 27.6676 17.9001 27.639 17.8998H27.638ZM20.388 18.4628C20.3733 18.4637 20.3589 18.4675 20.3457 18.474C20.3324 18.4805 20.3206 18.4895 20.3109 18.5006C20.3011 18.5116 20.2936 18.5245 20.2888 18.5384C20.2841 18.5524 20.2821 18.5671 20.283 18.5818C20.2839 18.5965 20.2877 18.6109 20.2942 18.6241C20.3007 18.6374 20.3097 18.6492 20.3207 18.659C20.3318 18.6687 20.3447 18.6762 20.3586 18.681C20.3725 18.6857 20.3873 18.6877 20.402 18.6868C20.4317 18.6851 20.4595 18.6716 20.4793 18.6494C20.4991 18.6272 20.5092 18.598 20.5075 18.5683C20.5058 18.5386 20.4923 18.5108 20.4701 18.491C20.4479 18.4712 20.4187 18.4611 20.389 18.4628H20.388ZM27.638 18.4628C27.6233 18.4637 27.6089 18.4675 27.5957 18.474C27.5824 18.4805 27.5706 18.4895 27.5609 18.5006C27.5511 18.5116 27.5436 18.5245 27.5388 18.5384C27.5341 18.5524 27.5321 18.5671 27.533 18.5818C27.5339 18.5965 27.5377 18.6109 27.5442 18.6241C27.5507 18.6374 27.5597 18.6492 27.5707 18.659C27.5818 18.6687 27.5947 18.6762 27.6086 18.681C27.6225 18.6857 27.6373 18.6877 27.652 18.6868C27.6817 18.6851 27.7095 18.6716 27.7293 18.6494C27.7491 18.6272 27.7592 18.598 27.7575 18.5683C27.7558 18.5386 27.7423 18.5108 27.7201 18.491C27.6979 18.4712 27.6687 18.4611 27.639 18.4628H27.638ZM17.154 18.9078C16.7296 18.9078 16.3227 19.0764 16.0226 19.3764C15.7226 19.6765 15.554 20.0835 15.554 20.5078C15.554 20.9322 15.7226 21.3391 16.0226 21.6392C16.3227 21.9392 16.7296 22.1078 17.154 22.1078C17.5783 22.1078 17.9853 21.9392 18.2854 21.6392C18.5854 21.3391 18.754 20.9322 18.754 20.5078C18.754 20.0835 18.5854 19.6765 18.2854 19.3764C17.9853 19.0764 17.5783 18.9078 17.154 18.9078ZM24.258 18.9078C23.8336 18.9078 23.4267 19.0764 23.1266 19.3764C22.8266 19.6765 22.658 20.0835 22.658 20.5078C22.658 20.9322 22.8266 21.3391 23.1266 21.6392C23.4267 21.9392 23.8336 22.1078 24.258 22.1078C24.6823 22.1078 25.0893 21.9392 25.3894 21.6392C25.6894 21.3391 25.858 20.9322 25.858 20.5078C25.858 20.0835 25.6894 19.6765 25.3894 19.3764C25.0893 19.0764 24.6823 18.9078 24.258 18.9078ZM31.154 18.9078C30.7296 18.9078 30.3227 19.0764 30.0226 19.3764C29.7226 19.6765 29.554 20.0835 29.554 20.5078C29.554 20.9322 29.7226 21.3391 30.0226 21.6392C30.3227 21.9392 30.7296 22.1078 31.154 22.1078C31.5783 22.1078 31.9853 21.9392 32.2854 21.6392C32.5854 21.3391 32.754 20.9322 32.754 20.5078C32.754 20.0835 32.5854 19.6765 32.2854 19.3764C31.9853 19.0764 31.5783 18.9078 31.154 18.9078ZM20.377 19.0248C20.3503 19.0287 20.326 19.0423 20.3087 19.0629C20.2914 19.0836 20.2822 19.1099 20.283 19.1368C20.283 19.1589 20.2895 19.1805 20.3018 19.1989C20.3141 19.2173 20.3315 19.2317 20.3519 19.2402C20.3723 19.2487 20.3948 19.251 20.4165 19.2467C20.4382 19.2425 20.4581 19.2319 20.4738 19.2164C20.4895 19.2008 20.5003 19.1809 20.5047 19.1593C20.5092 19.1376 20.5071 19.1151 20.4988 19.0946C20.4904 19.0742 20.4762 19.0566 20.4579 19.0442C20.4397 19.0317 20.4181 19.025 20.396 19.0248H20.378H20.377ZM27.627 19.0248C27.6003 19.0287 27.576 19.0423 27.5587 19.0629C27.5414 19.0836 27.5322 19.1099 27.533 19.1368C27.533 19.1589 27.5395 19.1805 27.5518 19.1989C27.5641 19.2173 27.5815 19.2317 27.6019 19.2402C27.6223 19.2487 27.6448 19.251 27.6665 19.2467C27.6882 19.2425 27.7081 19.2319 27.7238 19.2164C27.7395 19.2008 27.7503 19.1809 27.7547 19.1593C27.7592 19.1376 27.7571 19.1151 27.7488 19.0946C27.7404 19.0742 27.7262 19.0566 27.7079 19.0442C27.6897 19.0317 27.6681 19.025 27.646 19.0248H27.628H27.627ZM20.398 19.5848C20.3831 19.5848 20.3683 19.5878 20.3545 19.5935C20.3407 19.5993 20.3282 19.6077 20.3177 19.6183C20.3072 19.6289 20.2989 19.6414 20.2933 19.6553C20.2877 19.6691 20.2849 19.6839 20.285 19.6988C20.285 19.7608 20.336 19.8108 20.398 19.8098C20.46 19.8098 20.509 19.7598 20.51 19.6998C20.5103 19.6849 20.5076 19.6702 20.5021 19.6563C20.4965 19.6425 20.4883 19.6299 20.4779 19.6193C20.4675 19.6087 20.455 19.6003 20.4413 19.5945C20.4276 19.5888 20.4129 19.5858 20.398 19.5858V19.5848ZM27.648 19.5848C27.6331 19.5848 27.6183 19.5878 27.6045 19.5935C27.5907 19.5993 27.5782 19.6077 27.5677 19.6183C27.5572 19.6289 27.5489 19.6414 27.5433 19.6553C27.5377 19.6691 27.5349 19.6839 27.535 19.6988C27.535 19.7608 27.586 19.8108 27.648 19.8098C27.71 19.8098 27.759 19.7598 27.76 19.6998C27.7603 19.6849 27.7576 19.6702 27.7521 19.6563C27.7465 19.6425 27.7383 19.6299 27.7279 19.6193C27.7175 19.6087 27.705 19.6003 27.6913 19.5945C27.6776 19.5888 27.6629 19.5858 27.648 19.5858V19.5848ZM20.388 20.1478C20.3592 20.1496 20.3322 20.1625 20.3126 20.1837C20.293 20.205 20.2824 20.2329 20.283 20.2618C20.2832 20.2839 20.2899 20.3054 20.3023 20.3237C20.3147 20.3419 20.3322 20.3561 20.3526 20.3645C20.373 20.3728 20.3955 20.375 20.4171 20.3706C20.4387 20.3663 20.4586 20.3556 20.4742 20.34C20.4898 20.3244 20.5004 20.3045 20.5048 20.2829C20.5091 20.2613 20.507 20.2388 20.4987 20.2184C20.4903 20.198 20.4761 20.1805 20.4578 20.1681C20.4396 20.1557 20.4181 20.149 20.396 20.1488H20.389L20.388 20.1478ZM27.638 20.1478C27.6092 20.1496 27.5822 20.1625 27.5626 20.1837C27.543 20.205 27.5324 20.2329 27.533 20.2618C27.5332 20.2839 27.5399 20.3054 27.5523 20.3237C27.5647 20.3419 27.5822 20.3561 27.6026 20.3645C27.623 20.3728 27.6455 20.375 27.6671 20.3706C27.6887 20.3663 27.7086 20.3556 27.7242 20.34C27.7398 20.3244 27.7504 20.3045 27.7548 20.2829C27.7591 20.2613 27.757 20.2388 27.7487 20.2184C27.7403 20.198 27.7261 20.1805 27.7078 20.1681C27.6896 20.1557 27.6681 20.149 27.646 20.1488H27.639L27.638 20.1478ZM20.388 20.7108C20.3732 20.7113 20.3587 20.7148 20.3452 20.7209C20.3318 20.727 20.3197 20.7358 20.3096 20.7466C20.2893 20.7684 20.2784 20.7975 20.2795 20.8273C20.2806 20.8571 20.2934 20.8853 20.3153 20.9057C20.3371 20.926 20.3662 20.9369 20.396 20.9358C20.4258 20.9358 20.4544 20.924 20.4755 20.9029C20.4966 20.8818 20.5085 20.8531 20.5085 20.8233C20.5085 20.7935 20.4966 20.7649 20.4755 20.7438C20.4544 20.7227 20.4258 20.7108 20.396 20.7108H20.389H20.388ZM27.638 20.7108C27.6087 20.7119 27.5809 20.7244 27.5607 20.7457C27.5405 20.767 27.5295 20.7954 27.53 20.8247C27.5305 20.8541 27.5426 20.8821 27.5635 20.9026C27.5845 20.9232 27.6126 20.9347 27.642 20.9347C27.6714 20.9347 27.6995 20.9232 27.7205 20.9026C27.7414 20.8821 27.7535 20.8541 27.754 20.8247C27.7545 20.7954 27.7435 20.767 27.7233 20.7457C27.7031 20.7244 27.6753 20.7119 27.646 20.7108H27.639H27.638ZM20.388 21.2728C20.3592 21.2746 20.3322 21.2875 20.3126 21.3087C20.293 21.33 20.2824 21.3579 20.283 21.3868C20.2832 21.4089 20.2899 21.4304 20.3023 21.4487C20.3147 21.4669 20.3322 21.4811 20.3526 21.4895C20.373 21.4978 20.3955 21.5 20.4171 21.4956C20.4387 21.4913 20.4586 21.4806 20.4742 21.465C20.4898 21.4494 20.5004 21.4295 20.5048 21.4079C20.5091 21.3863 20.507 21.3638 20.4987 21.3434C20.4903 21.323 20.4761 21.3055 20.4578 21.2931C20.4396 21.2807 20.4181 21.274 20.396 21.2738H20.389L20.388 21.2728ZM27.638 21.2728C27.6092 21.2746 27.5822 21.2875 27.5626 21.3087C27.543 21.33 27.5324 21.3579 27.533 21.3868C27.5332 21.4089 27.5399 21.4304 27.5523 21.4487C27.5647 21.4669 27.5822 21.4811 27.6026 21.4895C27.623 21.4978 27.6455 21.5 27.6671 21.4956C27.6887 21.4913 27.7086 21.4806 27.7242 21.465C27.7398 21.4494 27.7504 21.4295 27.7548 21.4079C27.7591 21.3863 27.757 21.3638 27.7487 21.3434C27.7403 21.323 27.7261 21.3055 27.7078 21.2931C27.6896 21.2807 27.6681 21.274 27.646 21.2738H27.639L27.638 21.2728ZM20.388 21.8358C20.3725 21.8358 20.3572 21.839 20.343 21.8451C20.3288 21.8513 20.316 21.8603 20.3055 21.8716C20.2949 21.8829 20.2868 21.8963 20.2816 21.9108C20.2764 21.9254 20.2742 21.9409 20.2752 21.9563C20.2763 21.9718 20.2805 21.9868 20.2876 22.0006C20.2946 22.0143 20.3045 22.0265 20.3165 22.0363C20.3284 22.0461 20.3423 22.0533 20.3572 22.0575C20.3721 22.0617 20.3877 22.0629 20.403 22.0608C20.4313 22.057 20.4572 22.0426 20.4753 22.0206C20.4935 21.9985 20.5026 21.9703 20.5008 21.9418C20.499 21.9133 20.4865 21.8865 20.4658 21.8668C20.445 21.8471 20.4176 21.8361 20.389 21.8358H20.388ZM27.638 21.8358C27.6225 21.8358 27.6072 21.839 27.593 21.8451C27.5788 21.8513 27.566 21.8603 27.5555 21.8716C27.5449 21.8829 27.5368 21.8963 27.5316 21.9108C27.5264 21.9254 27.5242 21.9409 27.5252 21.9563C27.5263 21.9718 27.5305 21.9868 27.5376 22.0006C27.5446 22.0143 27.5545 22.0265 27.5665 22.0363C27.5784 22.0461 27.5923 22.0533 27.6072 22.0575C27.6221 22.0617 27.6377 22.0629 27.653 22.0608C27.6813 22.057 27.7072 22.0426 27.7253 22.0206C27.7435 21.9985 27.7526 21.9703 27.7508 21.9418C27.749 21.9133 27.7365 21.8865 27.7158 21.8668C27.695 21.8471 27.6676 21.8361 27.639 21.8358H27.638ZM20.388 22.3978C20.3732 22.3987 20.3588 22.4026 20.3455 22.4091C20.3322 22.4156 20.3203 22.4246 20.3105 22.4357C20.3007 22.4468 20.2932 22.4597 20.2884 22.4737C20.2836 22.4877 20.2816 22.5025 20.2825 22.5173C20.2834 22.5321 20.2872 22.5465 20.2937 22.5598C20.3002 22.5731 20.3093 22.585 20.3204 22.5948C20.3315 22.6046 20.3444 22.6121 20.3584 22.6169C20.3724 22.6217 20.3872 22.6237 20.402 22.6228C20.4318 22.6211 20.4598 22.6076 20.4796 22.5853C20.4995 22.563 20.5097 22.5336 20.508 22.5038C20.5063 22.474 20.4928 22.446 20.4704 22.4262C20.4481 22.4063 20.4188 22.3961 20.389 22.3978H20.388ZM27.638 22.3978C27.6232 22.3987 27.6088 22.4026 27.5955 22.4091C27.5822 22.4156 27.5703 22.4246 27.5605 22.4357C27.5507 22.4468 27.5432 22.4597 27.5384 22.4737C27.5336 22.4877 27.5316 22.5025 27.5325 22.5173C27.5334 22.5321 27.5372 22.5465 27.5437 22.5598C27.5502 22.5731 27.5593 22.585 27.5704 22.5948C27.5815 22.6046 27.5944 22.6121 27.6084 22.6169C27.6224 22.6217 27.6372 22.6237 27.652 22.6228C27.6668 22.622 27.6812 22.6182 27.6946 22.6118C27.7079 22.6053 27.7198 22.5963 27.7296 22.5853C27.7395 22.5742 27.7471 22.5613 27.7519 22.5474C27.7568 22.5334 27.7589 22.5186 27.758 22.5038C27.7571 22.489 27.7534 22.4746 27.7469 22.4613C27.7405 22.4479 27.7315 22.436 27.7204 22.4262C27.7094 22.4163 27.6965 22.4088 27.6825 22.4039C27.6686 22.399 27.6538 22.397 27.639 22.3978H27.638ZM17.154 22.7438C16.9406 22.7385 16.7283 22.7759 16.5295 22.8539C16.3308 22.9319 16.1497 23.0488 15.9969 23.1979C15.844 23.3469 15.7226 23.5251 15.6396 23.7218C15.5567 23.9185 15.514 24.1298 15.514 24.3433C15.514 24.5568 15.5567 24.7681 15.6396 24.9648C15.7226 25.1616 15.844 25.3397 15.9969 25.4887C16.1497 25.6378 16.3308 25.7548 16.5295 25.8327C16.7283 25.9107 16.9406 25.9482 17.154 25.9428C17.5713 25.9324 17.968 25.7593 18.2594 25.4605C18.5509 25.1616 18.714 24.7607 18.714 24.3433C18.714 23.9259 18.5509 23.525 18.2594 23.2262C17.968 22.9273 17.5713 22.7542 17.154 22.7438ZM24.258 22.7438C24.0446 22.7385 23.8323 22.7759 23.6335 22.8539C23.4348 22.9319 23.2537 23.0488 23.1009 23.1979C22.948 23.3469 22.8266 23.5251 22.7436 23.7218C22.6607 23.9185 22.618 24.1298 22.618 24.3433C22.618 24.5568 22.6607 24.7681 22.7436 24.9648C22.8266 25.1616 22.948 25.3397 23.1009 25.4887C23.2537 25.6378 23.4348 25.7548 23.6335 25.8327C23.8323 25.9107 24.0446 25.9482 24.258 25.9428C24.6753 25.9324 25.072 25.7593 25.3634 25.4605C25.6549 25.1616 25.818 24.7607 25.818 24.3433C25.818 23.9259 25.6549 23.525 25.3634 23.2262C25.072 22.9273 24.6753 22.7542 24.258 22.7438ZM31.154 22.7438C30.9406 22.7385 30.7283 22.7759 30.5295 22.8539C30.3308 22.9319 30.1497 23.0488 29.9969 23.1979C29.844 23.3469 29.7226 23.5251 29.6396 23.7218C29.5567 23.9185 29.514 24.1298 29.514 24.3433C29.514 24.5568 29.5567 24.7681 29.6396 24.9648C29.7226 25.1616 29.844 25.3397 29.9969 25.4887C30.1497 25.6378 30.3308 25.7548 30.5295 25.8327C30.7283 25.9107 30.9406 25.9482 31.154 25.9428C31.5713 25.9324 31.968 25.7593 32.2594 25.4605C32.5509 25.1616 32.714 24.7607 32.714 24.3433C32.714 23.9259 32.5509 23.525 32.2594 23.2262C31.968 22.9273 31.5713 22.7542 31.154 22.7438ZM20.389 22.9608C20.3597 22.9619 20.3319 22.9744 20.3117 22.9957C20.2915 23.017 20.2805 23.0454 20.281 23.0747C20.2815 23.1041 20.2936 23.1321 20.3145 23.1526C20.3355 23.1732 20.3636 23.1847 20.393 23.1847C20.4224 23.1847 20.4505 23.1732 20.4715 23.1526C20.4924 23.1321 20.5045 23.1041 20.505 23.0747C20.5055 23.0454 20.4945 23.017 20.4743 22.9957C20.4541 22.9744 20.4263 22.9619 20.397 22.9608H20.389ZM27.639 22.9608C27.6097 22.9619 27.5819 22.9744 27.5617 22.9957C27.5415 23.017 27.5305 23.0454 27.531 23.0747C27.5315 23.1041 27.5436 23.1321 27.5645 23.1526C27.5855 23.1732 27.6136 23.1847 27.643 23.1847C27.6724 23.1847 27.7005 23.1732 27.7215 23.1526C27.7424 23.1321 27.7545 23.1041 27.755 23.0747C27.7555 23.0454 27.7445 23.017 27.7243 22.9957C27.7041 22.9744 27.6763 22.9619 27.647 22.9608H27.639ZM20.377 23.5228C20.3504 23.5269 20.3262 23.5405 20.3089 23.5611C20.2917 23.5817 20.2824 23.6079 20.283 23.6348C20.283 23.6569 20.2895 23.6785 20.3018 23.6969C20.3141 23.7153 20.3315 23.7297 20.3519 23.7382C20.3723 23.7467 20.3948 23.749 20.4165 23.7447C20.4382 23.7405 20.4581 23.7299 20.4738 23.7144C20.4895 23.6988 20.5003 23.6789 20.5047 23.6573C20.5092 23.6356 20.5071 23.6131 20.4988 23.5926C20.4904 23.5722 20.4762 23.5546 20.4579 23.5422C20.4397 23.5297 20.4181 23.523 20.396 23.5228H20.378H20.377ZM27.627 23.5228C27.6004 23.5269 27.5762 23.5405 27.5589 23.5611C27.5417 23.5817 27.5324 23.6079 27.533 23.6348C27.533 23.6569 27.5395 23.6785 27.5518 23.6969C27.5641 23.7153 27.5815 23.7297 27.6019 23.7382C27.6223 23.7467 27.6448 23.749 27.6665 23.7447C27.6882 23.7405 27.7081 23.7299 27.7238 23.7144C27.7395 23.6988 27.7503 23.6789 27.7547 23.6573C27.7592 23.6356 27.7571 23.6131 27.7488 23.5926C27.7404 23.5722 27.7262 23.5546 27.7079 23.5422C27.6897 23.5297 27.6681 23.523 27.646 23.5228H27.628H27.627ZM20.377 24.0858C20.3559 24.0892 20.3362 24.0986 20.3203 24.1129C20.3044 24.1271 20.2929 24.1456 20.2871 24.1662C20.2814 24.1868 20.2816 24.2086 20.2879 24.229C20.2941 24.2494 20.306 24.2677 20.3223 24.2815C20.3385 24.2954 20.3584 24.3043 20.3796 24.3073C20.4007 24.3102 20.4223 24.3071 20.4417 24.2982C20.4611 24.2893 20.4776 24.275 20.4891 24.257C20.5007 24.2391 20.5069 24.2182 20.507 24.1968C20.507 24.1358 20.457 24.0868 20.397 24.0858H20.377ZM27.627 24.0858C27.6059 24.0892 27.5862 24.0986 27.5703 24.1129C27.5544 24.1271 27.5429 24.1456 27.5371 24.1662C27.5314 24.1868 27.5316 24.2086 27.5379 24.229C27.5441 24.2494 27.556 24.2677 27.5723 24.2815C27.5885 24.2954 27.6084 24.3043 27.6296 24.3073C27.6507 24.3102 27.6723 24.3071 27.6917 24.2982C27.7111 24.2893 27.7276 24.275 27.7391 24.257C27.7507 24.2391 27.7569 24.2182 27.757 24.1968C27.757 24.1358 27.707 24.0868 27.647 24.0858H27.627ZM20.389 24.6458C20.3742 24.6463 20.3597 24.6498 20.3462 24.6559C20.3328 24.662 20.3207 24.6708 20.3106 24.6816C20.2903 24.7034 20.2794 24.7325 20.2805 24.7623C20.2816 24.7922 20.2944 24.8203 20.3163 24.8407C20.3381 24.861 20.3672 24.8719 20.397 24.8708C20.4268 24.8698 20.455 24.8569 20.4754 24.835C20.4957 24.8132 20.5066 24.7841 20.5055 24.7543C20.5044 24.7245 20.4916 24.6963 20.4697 24.6759C20.4479 24.6556 20.4188 24.6448 20.389 24.6458ZM27.639 24.6458C27.6097 24.6469 27.5819 24.6594 27.5617 24.6807C27.5415 24.702 27.5305 24.7304 27.531 24.7597C27.5315 24.7891 27.5436 24.8171 27.5645 24.8376C27.5855 24.8582 27.6136 24.8697 27.643 24.8697C27.6724 24.8697 27.7005 24.8582 27.7215 24.8376C27.7424 24.8171 27.7545 24.7891 27.755 24.7597C27.7555 24.7304 27.7445 24.702 27.7243 24.6807C27.7041 24.6594 27.6763 24.6469 27.647 24.6458C27.6443 24.6457 27.6417 24.6457 27.639 24.6458ZM20.389 25.2088C20.3743 25.2097 20.3599 25.2134 20.3466 25.2198C20.3334 25.2262 20.3215 25.2352 20.3117 25.2462C20.3019 25.2572 20.2944 25.27 20.2895 25.284C20.2847 25.2979 20.2826 25.3126 20.2835 25.3273C20.2844 25.342 20.2881 25.3564 20.2945 25.3697C20.3009 25.3829 20.3099 25.3948 20.3209 25.4046C20.3319 25.4144 20.3447 25.4219 20.3586 25.4268C20.3726 25.4316 20.3873 25.4337 20.402 25.4328C20.4317 25.4311 20.4595 25.4176 20.4793 25.3954C20.4991 25.3732 20.5092 25.344 20.5075 25.3143C20.5058 25.2846 20.4923 25.2568 20.4701 25.237C20.4479 25.2172 20.4187 25.2071 20.389 25.2088ZM27.639 25.2088C27.6102 25.2104 27.5831 25.223 27.5633 25.244C27.5436 25.2651 27.5327 25.2929 27.533 25.3218C27.5332 25.3442 27.5402 25.366 27.553 25.3844C27.5657 25.4028 27.5837 25.417 27.6046 25.4251C27.6255 25.4331 27.6483 25.4348 27.6702 25.4297C27.692 25.4247 27.7118 25.4132 27.727 25.3968C27.7423 25.3804 27.7523 25.3598 27.7557 25.3377C27.7591 25.3156 27.7558 25.2929 27.7462 25.2727C27.7366 25.2524 27.7212 25.2355 27.7019 25.2241C27.6826 25.2127 27.6604 25.2074 27.638 25.2088H27.639ZM20.389 25.7718C20.3743 25.7723 20.3598 25.7758 20.3464 25.7819C20.3331 25.788 20.321 25.7967 20.311 25.8074C20.3009 25.8182 20.2931 25.8309 20.288 25.8446C20.2828 25.8584 20.2805 25.8731 20.281 25.8878C20.2815 25.9025 20.2849 25.917 20.2911 25.9304C20.2972 25.9438 20.3059 25.9558 20.3166 25.9658C20.3274 25.9759 20.34 25.9837 20.3538 25.9888C20.3676 25.994 20.3823 25.9963 20.397 25.9958C20.4268 25.9948 20.455 25.9819 20.4754 25.96C20.4957 25.9382 20.5066 25.9091 20.5055 25.8793C20.5044 25.8495 20.4916 25.8213 20.4697 25.8009C20.4479 25.7806 20.4188 25.7698 20.389 25.7708V25.7718ZM27.639 25.7718C27.6102 25.7734 27.5831 25.786 27.5633 25.807C27.5436 25.8281 27.5327 25.8559 27.533 25.8848C27.533 25.9468 27.584 25.9968 27.646 25.9958C27.6758 25.9948 27.704 25.9819 27.7244 25.96C27.7447 25.9382 27.7556 25.9091 27.7545 25.8793C27.7534 25.8495 27.7406 25.8213 27.7187 25.8009C27.6969 25.7806 27.6678 25.7698 27.638 25.7708L27.639 25.7718ZM20.389 26.3338C20.3597 26.3349 20.3319 26.3474 20.3117 26.3687C20.2915 26.39 20.2805 26.4184 20.281 26.4477C20.2815 26.4771 20.2936 26.5051 20.3145 26.5256C20.3355 26.5462 20.3636 26.5577 20.393 26.5577C20.4224 26.5577 20.4505 26.5462 20.4715 26.5256C20.4924 26.5051 20.5045 26.4771 20.505 26.4477C20.5055 26.4184 20.4945 26.39 20.4743 26.3687C20.4541 26.3474 20.4263 26.3349 20.397 26.3338C20.3943 26.3337 20.3917 26.3337 20.389 26.3338ZM27.639 26.3338C27.6097 26.3349 27.5819 26.3474 27.5617 26.3687C27.5415 26.39 27.5305 26.4184 27.531 26.4477C27.5315 26.4771 27.5436 26.5051 27.5645 26.5256C27.5855 26.5462 27.6136 26.5577 27.643 26.5577C27.6724 26.5577 27.7005 26.5462 27.7215 26.5256C27.7424 26.5051 27.7545 26.4771 27.755 26.4477C27.7555 26.4184 27.7445 26.39 27.7243 26.3687C27.7041 26.3474 27.6763 26.3349 27.647 26.3338C27.6443 26.3337 27.6417 26.3337 27.639 26.3338ZM17.154 26.5798C16.9406 26.5745 16.7283 26.6119 16.5295 26.6899C16.3308 26.7679 16.1497 26.8848 15.9969 27.0339C15.844 27.1829 15.7226 27.3611 15.6396 27.5578C15.5567 27.7545 15.514 27.9658 15.514 28.1793C15.514 28.3928 15.5567 28.6041 15.6396 28.8008C15.7226 28.9975 15.844 29.1757 15.9969 29.3247C16.1497 29.4738 16.3308 29.5908 16.5295 29.6687C16.7283 29.7467 16.9406 29.7841 17.154 29.7788C17.5713 29.7684 17.968 29.5953 18.2594 29.2965C18.5509 28.9976 18.714 28.5967 18.714 28.1793C18.714 27.7619 18.5509 27.361 18.2594 27.0622C17.968 26.7633 17.5713 26.5902 17.154 26.5798ZM24.258 26.5798C24.0446 26.5745 23.8323 26.6119 23.6335 26.6899C23.4348 26.7679 23.2537 26.8848 23.1009 27.0339C22.948 27.1829 22.8266 27.3611 22.7436 27.5578C22.6607 27.7545 22.618 27.9658 22.618 28.1793C22.618 28.3928 22.6607 28.6041 22.7436 28.8008C22.8266 28.9975 22.948 29.1757 23.1009 29.3247C23.2537 29.4738 23.4348 29.5908 23.6335 29.6687C23.8323 29.7467 24.0446 29.7841 24.258 29.7788C24.6753 29.7684 25.072 29.5953 25.3634 29.2965C25.6549 28.9976 25.818 28.5967 25.818 28.1793C25.818 27.7619 25.6549 27.361 25.3634 27.0622C25.072 26.7633 24.6753 26.5902 24.258 26.5798ZM31.154 26.5798C30.9406 26.5745 30.7283 26.6119 30.5295 26.6899C30.3308 26.7679 30.1497 26.8848 29.9969 27.0339C29.844 27.1829 29.7226 27.3611 29.6396 27.5578C29.5567 27.7545 29.514 27.9658 29.514 28.1793C29.514 28.3928 29.5567 28.6041 29.6396 28.8008C29.7226 28.9975 29.844 29.1757 29.9969 29.3247C30.1497 29.4738 30.3308 29.5908 30.5295 29.6687C30.7283 29.7467 30.9406 29.7841 31.154 29.7788C31.5713 29.7684 31.968 29.5953 32.2594 29.2965C32.5509 28.9976 32.714 28.5967 32.714 28.1793C32.714 27.7619 32.5509 27.361 32.2594 27.0622C31.968 26.7633 31.5713 26.5902 31.154 26.5798ZM20.389 26.8968C20.3743 26.8977 20.3599 26.9014 20.3466 26.9078C20.3334 26.9142 20.3215 26.9232 20.3117 26.9342C20.3019 26.9452 20.2944 26.958 20.2895 26.972C20.2847 26.9859 20.2826 27.0006 20.2835 27.0153C20.2844 27.03 20.2881 27.0444 20.2945 27.0577C20.3009 27.0709 20.3099 27.0828 20.3209 27.0926C20.3319 27.1024 20.3447 27.1099 20.3586 27.1148C20.3726 27.1196 20.3873 27.1217 20.402 27.1208C20.4317 27.1191 20.4595 27.1056 20.4793 27.0834C20.4991 27.0612 20.5092 27.032 20.5075 27.0023C20.5058 26.9726 20.4923 26.9448 20.4701 26.925C20.4479 26.9052 20.4187 26.8951 20.389 26.8968ZM27.639 26.8968C27.6243 26.8977 27.6099 26.9014 27.5966 26.9078C27.5834 26.9142 27.5715 26.9232 27.5617 26.9342C27.5519 26.9452 27.5444 26.958 27.5395 26.972C27.5347 26.9859 27.5326 27.0006 27.5335 27.0153C27.5344 27.03 27.5381 27.0444 27.5445 27.0577C27.5509 27.0709 27.5599 27.0828 27.5709 27.0926C27.5819 27.1024 27.5947 27.1099 27.6086 27.1148C27.6226 27.1196 27.6373 27.1217 27.652 27.1208C27.6817 27.1191 27.7095 27.1056 27.7293 27.0834C27.7491 27.0612 27.7592 27.032 27.7575 27.0023C27.7558 26.9726 27.7423 26.9448 27.7201 26.925C27.6979 26.9052 27.6687 26.8951 27.639 26.8968ZM20.389 27.4588C20.3735 27.4587 20.3581 27.4617 20.3438 27.4678C20.3296 27.4739 20.3167 27.4828 20.306 27.4941C20.2953 27.5053 20.2871 27.5187 20.2818 27.5332C20.2765 27.5478 20.2743 27.5633 20.2752 27.5788C20.2762 27.5943 20.2803 27.6094 20.2874 27.6232C20.2945 27.6371 20.3043 27.6493 20.3163 27.6591C20.3283 27.669 20.3421 27.6762 20.3571 27.6805C20.372 27.6847 20.3876 27.6859 20.403 27.6838C20.4313 27.68 20.4572 27.6656 20.4753 27.6436C20.4935 27.6215 20.5026 27.5933 20.5008 27.5648C20.499 27.5363 20.4865 27.5095 20.4658 27.4898C20.445 27.4701 20.4176 27.4591 20.389 27.4588ZM27.639 27.4588C27.6235 27.4587 27.6081 27.4617 27.5938 27.4678C27.5796 27.4739 27.5667 27.4828 27.556 27.4941C27.5453 27.5053 27.5371 27.5187 27.5318 27.5332C27.5265 27.5478 27.5243 27.5633 27.5252 27.5788C27.5262 27.5943 27.5303 27.6094 27.5374 27.6232C27.5445 27.6371 27.5543 27.6493 27.5663 27.6591C27.5783 27.669 27.5921 27.6762 27.6071 27.6805C27.622 27.6847 27.6376 27.6859 27.653 27.6838C27.6813 27.68 27.7072 27.6656 27.7253 27.6436C27.7435 27.6215 27.7526 27.5933 27.7508 27.5648C27.749 27.5363 27.7365 27.5095 27.7158 27.4898C27.695 27.4701 27.6676 27.4591 27.639 27.4588ZM20.377 28.0218C20.3508 28.0259 20.3269 28.0392 20.3096 28.0594C20.2924 28.0796 20.2829 28.1053 20.283 28.1318C20.283 28.1616 20.2948 28.1903 20.3159 28.2114C20.337 28.2325 20.3657 28.2443 20.3955 28.2443C20.4253 28.2443 20.4539 28.2325 20.475 28.2114C20.4961 28.1903 20.508 28.1616 20.508 28.1318C20.508 28.0718 20.458 28.0218 20.397 28.0218H20.377ZM27.627 28.0218C27.6008 28.0259 27.5769 28.0392 27.5596 28.0594C27.5424 28.0796 27.5329 28.1053 27.533 28.1318C27.533 28.1616 27.5448 28.1903 27.5659 28.2114C27.587 28.2325 27.6157 28.2443 27.6455 28.2443C27.6753 28.2443 27.7039 28.2325 27.725 28.2114C27.7461 28.1903 27.758 28.1616 27.758 28.1318C27.758 28.0718 27.708 28.0218 27.647 28.0218H27.627ZM20.398 28.5818C20.3758 28.5816 20.3541 28.588 20.3356 28.6001C20.3171 28.6123 20.3026 28.6296 20.2939 28.65C20.2853 28.6704 20.2828 28.6929 20.287 28.7147C20.2911 28.7364 20.3016 28.7565 20.3171 28.7723C20.3326 28.7881 20.3525 28.7989 20.3742 28.8035C20.3959 28.808 20.4184 28.806 20.4389 28.7977C20.4595 28.7894 20.4771 28.7752 20.4896 28.7569C20.502 28.7386 20.5088 28.717 20.509 28.6948C20.5093 28.6653 20.4979 28.6368 20.4773 28.6157C20.4567 28.5945 20.4285 28.5823 20.399 28.5818H20.398ZM27.648 28.5818C27.6258 28.5816 27.6041 28.588 27.5856 28.6001C27.5671 28.6123 27.5526 28.6296 27.5439 28.65C27.5353 28.6704 27.5328 28.6929 27.537 28.7147C27.5411 28.7364 27.5516 28.7565 27.5671 28.7723C27.5826 28.7881 27.6025 28.7989 27.6242 28.8035C27.6459 28.808 27.6684 28.806 27.6889 28.7977C27.7095 28.7894 27.7271 28.7752 27.7396 28.7569C27.752 28.7386 27.7588 28.717 27.759 28.6948C27.7593 28.6653 27.7479 28.6368 27.7273 28.6157C27.7067 28.5945 27.6785 28.5823 27.649 28.5818H27.648ZM20.388 29.1448C20.3593 29.1466 20.3325 29.1593 20.3129 29.1804C20.2934 29.2014 20.2827 29.2291 20.283 29.2578C20.2832 29.2799 20.2899 29.3014 20.3023 29.3197C20.3147 29.3379 20.3322 29.3521 20.3526 29.3605C20.373 29.3688 20.3955 29.371 20.4171 29.3666C20.4387 29.3623 20.4586 29.3516 20.4742 29.336C20.4898 29.3204 20.5004 29.3005 20.5048 29.2789C20.5091 29.2573 20.507 29.2348 20.4987 29.2144C20.4903 29.194 20.4761 29.1765 20.4578 29.1641C20.4396 29.1517 20.4181 29.145 20.396 29.1448H20.389H20.388ZM27.638 29.1448C27.6093 29.1466 27.5825 29.1593 27.5629 29.1804C27.5434 29.2014 27.5327 29.2291 27.533 29.2578C27.5332 29.2799 27.5399 29.3014 27.5523 29.3197C27.5647 29.3379 27.5822 29.3521 27.6026 29.3605C27.623 29.3688 27.6455 29.371 27.6671 29.3666C27.6887 29.3623 27.7086 29.3516 27.7242 29.336C27.7398 29.3204 27.7504 29.3005 27.7548 29.2789C27.7591 29.2573 27.757 29.2348 27.7487 29.2144C27.7403 29.194 27.7261 29.1765 27.7078 29.1641C27.6896 29.1517 27.6681 29.145 27.646 29.1448H27.639H27.638ZM20.388 29.7068C20.3582 29.7079 20.33 29.7207 20.3096 29.7426C20.2893 29.7644 20.2784 29.7935 20.2795 29.8233C20.2806 29.8531 20.2934 29.8813 20.3153 29.9017C20.3371 29.922 20.3662 29.9329 20.396 29.9318C20.4258 29.9318 20.4544 29.92 20.4755 29.8989C20.4966 29.8778 20.5085 29.8491 20.5085 29.8193C20.5085 29.7895 20.4966 29.7609 20.4755 29.7398C20.4544 29.7187 20.4258 29.7068 20.396 29.7068H20.389H20.388ZM27.638 29.7068C27.6087 29.7079 27.5809 29.7204 27.5607 29.7417C27.5405 29.763 27.5295 29.7914 27.53 29.8207C27.5305 29.8501 27.5426 29.8781 27.5635 29.8986C27.5845 29.9192 27.6126 29.9307 27.642 29.9307C27.6714 29.9307 27.6995 29.9192 27.7205 29.8986C27.7414 29.8781 27.7535 29.8501 27.754 29.8207C27.7545 29.7914 27.7435 29.763 27.7233 29.7417C27.7031 29.7204 27.6753 29.7079 27.646 29.7068H27.639H27.638ZM20.388 30.2698C20.3593 30.2716 20.3325 30.2843 20.3129 30.3054C20.2934 30.3264 20.2827 30.3541 20.283 30.3828C20.2832 30.4052 20.2902 30.427 20.303 30.4454C20.3157 30.4638 20.3337 30.478 20.3546 30.4861C20.3755 30.4941 20.3983 30.4958 20.4202 30.4907C20.442 30.4857 20.4618 30.4742 20.477 30.4578C20.4923 30.4414 20.5023 30.4208 20.5057 30.3987C20.5091 30.3766 20.5058 30.3539 20.4962 30.3337C20.4866 30.3134 20.4712 30.2965 20.4519 30.2851C20.4326 30.2738 20.4104 30.2684 20.388 30.2698ZM27.638 30.2698C27.6093 30.2716 27.5825 30.2843 27.5629 30.3054C27.5434 30.3264 27.5327 30.3541 27.533 30.3828C27.5332 30.4052 27.5402 30.427 27.553 30.4454C27.5657 30.4638 27.5837 30.478 27.6046 30.4861C27.6255 30.4941 27.6483 30.4958 27.6702 30.4907C27.692 30.4857 27.7118 30.4742 27.727 30.4578C27.7423 30.4414 27.7523 30.4208 27.7557 30.3987C27.7591 30.3766 27.7558 30.3539 27.7462 30.3337C27.7366 30.3134 27.7212 30.2965 27.7019 30.2851C27.6826 30.2738 27.6604 30.2684 27.638 30.2698ZM17.154 30.4138C16.7364 30.4243 16.3395 30.5975 16.0479 30.8965C15.7562 31.1955 15.593 31.5966 15.593 32.0143C15.593 32.432 15.7562 32.8331 16.0479 33.1322C16.3395 33.4312 16.7364 33.6044 17.154 33.6148C17.5783 33.6148 17.9853 33.4462 18.2854 33.1462C18.5854 32.8461 18.754 32.4392 18.754 32.0148C18.754 31.5905 18.5854 31.1835 18.2854 30.8834C17.9853 30.5834 17.5783 30.4148 17.154 30.4148V30.4138ZM24.258 30.4138C23.8404 30.4243 23.4435 30.5975 23.1519 30.8965C22.8602 31.1955 22.697 31.5966 22.697 32.0143C22.697 32.432 22.8602 32.8331 23.1519 33.1322C23.4435 33.4312 23.8404 33.6044 24.258 33.6148C24.6823 33.6148 25.0893 33.4462 25.3894 33.1462C25.6894 32.8461 25.858 32.4392 25.858 32.0148C25.858 31.5905 25.6894 31.1835 25.3894 30.8834C25.0893 30.5834 24.6823 30.4148 24.258 30.4148V30.4138ZM31.154 30.4138C30.7364 30.4243 30.3395 30.5975 30.0479 30.8965C29.7562 31.1955 29.593 31.5966 29.593 32.0143C29.593 32.432 29.7562 32.8331 30.0479 33.1322C30.3395 33.4312 30.7364 33.6044 31.154 33.6148C31.5783 33.6148 31.9853 33.4462 32.2854 33.1462C32.5854 32.8461 32.754 32.4392 32.754 32.0148C32.754 31.5905 32.5854 31.1835 32.2854 30.8834C31.9853 30.5834 31.5783 30.4148 31.154 30.4148V30.4138ZM20.389 30.8298C20.3603 30.8318 20.3335 30.8446 20.3139 30.8655C20.2942 30.8865 20.2832 30.9141 20.283 30.9428C20.283 30.9727 20.2948 31.0013 20.3159 31.0224C20.337 31.0435 20.3657 31.0553 20.3955 31.0553C20.4253 31.0553 20.4539 31.0435 20.475 31.0224C20.4961 31.0013 20.508 30.9727 20.508 30.9428C20.5079 30.9274 20.5046 30.9122 20.4985 30.8981C20.4923 30.8839 20.4834 30.8712 20.4722 30.8607C20.4609 30.8501 20.4477 30.8419 20.4332 30.8366C20.4188 30.8313 20.4034 30.829 20.388 30.8298H20.389ZM27.639 30.8298C27.6103 30.8318 27.5835 30.8446 27.5639 30.8655C27.5442 30.8865 27.5332 30.9141 27.533 30.9428C27.533 30.9727 27.5448 31.0013 27.5659 31.0224C27.587 31.0435 27.6157 31.0553 27.6455 31.0553C27.6753 31.0553 27.7039 31.0435 27.725 31.0224C27.7461 31.0013 27.758 30.9727 27.758 30.9428C27.7579 30.9274 27.7546 30.9122 27.7485 30.8981C27.7423 30.8839 27.7334 30.8712 27.7222 30.8607C27.7109 30.8501 27.6977 30.8419 27.6832 30.8366C27.6688 30.8313 27.6534 30.829 27.638 30.8298H27.639ZM20.389 31.3928C20.3743 31.3937 20.3599 31.3974 20.3466 31.4038C20.3334 31.4102 20.3215 31.4192 20.3117 31.4302C20.3019 31.4412 20.2944 31.454 20.2895 31.468C20.2847 31.4819 20.2826 31.4966 20.2835 31.5113C20.2844 31.526 20.2881 31.5404 20.2945 31.5537C20.3009 31.5669 20.3099 31.5788 20.3209 31.5886C20.3319 31.5984 20.3447 31.6059 20.3586 31.6108C20.3726 31.6156 20.3873 31.6177 20.402 31.6168C20.4317 31.6151 20.4595 31.6016 20.4793 31.5794C20.4991 31.5572 20.5092 31.528 20.5075 31.4983C20.5058 31.4686 20.4923 31.4408 20.4701 31.421C20.4479 31.4012 20.4187 31.3911 20.389 31.3928ZM27.639 31.3928C27.6243 31.3937 27.6099 31.3974 27.5966 31.4038C27.5834 31.4102 27.5715 31.4192 27.5617 31.4302C27.5519 31.4412 27.5444 31.454 27.5395 31.468C27.5347 31.4819 27.5326 31.4966 27.5335 31.5113C27.5344 31.526 27.5381 31.5404 27.5445 31.5537C27.5509 31.5669 27.5599 31.5788 27.5709 31.5886C27.5819 31.5984 27.5947 31.6059 27.6086 31.6108C27.6226 31.6156 27.6373 31.6177 27.652 31.6168C27.6817 31.6151 27.7095 31.6016 27.7293 31.5794C27.7491 31.5572 27.7592 31.528 27.7575 31.4983C27.7558 31.4686 27.7423 31.4408 27.7201 31.421C27.6979 31.4012 27.6687 31.3911 27.639 31.3928ZM20.377 31.9548C20.3506 31.9589 20.3265 31.9724 20.3093 31.9928C20.292 32.0132 20.2827 32.0391 20.283 32.0658C20.2826 32.088 20.2888 32.1098 20.3008 32.1285C20.3128 32.1471 20.3301 32.1618 20.3505 32.1706C20.3709 32.1794 20.3934 32.182 20.4152 32.178C20.4371 32.174 20.4572 32.1635 20.4731 32.1481C20.489 32.1326 20.4999 32.1127 20.5045 32.091C20.5091 32.0693 20.5072 32.0467 20.4989 32.0261C20.4907 32.0055 20.4765 31.9878 20.4581 31.9753C20.4398 31.9628 20.4182 31.956 20.396 31.9558C20.389 31.9538 20.386 31.9538 20.379 31.9558H20.377V31.9548ZM27.627 31.9548C27.6006 31.9589 27.5765 31.9724 27.5593 31.9928C27.542 32.0132 27.5327 32.0391 27.533 32.0658C27.5326 32.088 27.5388 32.1098 27.5508 32.1285C27.5628 32.1471 27.5801 32.1618 27.6005 32.1706C27.6209 32.1794 27.6434 32.182 27.6652 32.178C27.6871 32.174 27.7072 32.1635 27.7231 32.1481C27.739 32.1326 27.7499 32.1127 27.7545 32.091C27.7591 32.0693 27.7572 32.0467 27.7489 32.0261C27.7407 32.0055 27.7265 31.9878 27.7081 31.9753C27.6898 31.9628 27.6682 31.956 27.646 31.9558C27.639 31.9538 27.636 31.9538 27.629 31.9558H27.627V31.9548ZM20.377 32.5178C20.3559 32.5212 20.3362 32.5306 20.3203 32.5449C20.3044 32.5591 20.2929 32.5776 20.2871 32.5982C20.2814 32.6188 20.2816 32.6406 20.2879 32.661C20.2941 32.6814 20.306 32.6997 20.3223 32.7135C20.3385 32.7274 20.3584 32.7363 20.3796 32.7393C20.4007 32.7422 20.4223 32.7391 20.4417 32.7302C20.4611 32.7213 20.4776 32.707 20.4891 32.689C20.5007 32.6711 20.5069 32.6502 20.507 32.6288C20.5067 32.5996 20.4951 32.5717 20.4746 32.551C20.454 32.5302 20.4262 32.5183 20.397 32.5178H20.377ZM27.627 32.5178C27.6059 32.5212 27.5862 32.5306 27.5703 32.5449C27.5544 32.5591 27.5429 32.5776 27.5371 32.5982C27.5314 32.6188 27.5316 32.6406 27.5379 32.661C27.5441 32.6814 27.556 32.6997 27.5723 32.7135C27.5885 32.7274 27.6084 32.7363 27.6296 32.7393C27.6507 32.7422 27.6723 32.7391 27.6917 32.7302C27.7111 32.7213 27.7276 32.707 27.7391 32.689C27.7507 32.6711 27.7569 32.6502 27.757 32.6288C27.7567 32.5996 27.7451 32.5717 27.7246 32.551C27.704 32.5302 27.6762 32.5183 27.647 32.5178H27.627ZM20.398 33.0778C20.383 33.0779 20.3682 33.081 20.3544 33.0869C20.3407 33.0927 20.3282 33.1012 20.3177 33.1119C20.3072 33.1226 20.2989 33.1352 20.2933 33.1491C20.2877 33.163 20.2849 33.1778 20.285 33.1928C20.285 33.2548 20.336 33.3028 20.398 33.3028C20.4126 33.3031 20.4271 33.3004 20.4407 33.295C20.4543 33.2896 20.4666 33.2816 20.4771 33.2713C20.4875 33.2611 20.4958 33.2489 20.5014 33.2354C20.5071 33.2219 20.51 33.2074 20.51 33.1928C20.5103 33.1628 20.4986 33.1338 20.4777 33.1123C20.4567 33.0907 20.4281 33.0783 20.398 33.0778ZM27.648 33.0778C27.633 33.0779 27.6182 33.081 27.6044 33.0869C27.5907 33.0927 27.5782 33.1012 27.5677 33.1119C27.5572 33.1226 27.5489 33.1352 27.5433 33.1491C27.5377 33.163 27.5349 33.1778 27.535 33.1928C27.535 33.2548 27.586 33.3028 27.648 33.3028C27.6626 33.3031 27.6771 33.3004 27.6907 33.295C27.7043 33.2896 27.7166 33.2816 27.7271 33.2713C27.7375 33.2611 27.7458 33.2489 27.7514 33.2354C27.7571 33.2219 27.76 33.2074 27.76 33.1928C27.7603 33.1628 27.7486 33.1338 27.7277 33.1123C27.7067 33.0907 27.6781 33.0783 27.648 33.0778ZM20.388 33.6408C20.3583 33.6419 20.3302 33.6547 20.31 33.6764C20.2897 33.6982 20.2789 33.7271 20.28 33.7568C20.2811 33.7865 20.2939 33.8146 20.3156 33.8348C20.3374 33.8551 20.3663 33.8659 20.396 33.8648C20.458 33.8648 20.507 33.8148 20.508 33.7538C20.5081 33.7391 20.5054 33.7245 20.4999 33.7109C20.4943 33.6972 20.4862 33.6848 20.4759 33.6743C20.4656 33.6638 20.4533 33.6555 20.4398 33.6497C20.4262 33.644 20.4117 33.6409 20.397 33.6408H20.389H20.388ZM27.638 33.6408C27.6087 33.6419 27.5809 33.6544 27.5607 33.6757C27.5405 33.697 27.5295 33.7254 27.53 33.7547C27.5305 33.7841 27.5426 33.8121 27.5635 33.8326C27.5845 33.8532 27.6126 33.8647 27.642 33.8647C27.6714 33.8647 27.6995 33.8532 27.7205 33.8326C27.7414 33.8121 27.7535 33.7841 27.754 33.7547C27.7545 33.7254 27.7435 33.697 27.7233 33.6757C27.7031 33.6544 27.6753 33.6419 27.646 33.6408H27.639H27.638ZM20.388 34.2028C20.3733 34.2037 20.3589 34.2075 20.3457 34.214C20.3324 34.2205 20.3206 34.2295 20.3109 34.2406C20.3011 34.2516 20.2936 34.2645 20.2888 34.2784C20.2841 34.2924 20.2821 34.3071 20.283 34.3218C20.2839 34.3365 20.2877 34.3509 20.2942 34.3641C20.3007 34.3774 20.3097 34.3892 20.3207 34.399C20.3318 34.4087 20.3447 34.4162 20.3586 34.421C20.3725 34.4257 20.3873 34.4277 20.402 34.4268C20.4317 34.4251 20.4595 34.4116 20.4793 34.3894C20.4991 34.3672 20.5092 34.338 20.5075 34.3083C20.5058 34.2786 20.4923 34.2508 20.4701 34.231C20.4479 34.2112 20.4187 34.2011 20.389 34.2028H20.388ZM27.638 34.2028C27.6087 34.2039 27.5809 34.2164 27.5607 34.2377C27.5405 34.259 27.5295 34.2874 27.53 34.3167C27.5305 34.3461 27.5426 34.3741 27.5635 34.3946C27.5845 34.4152 27.6126 34.4267 27.642 34.4267C27.6714 34.4267 27.6995 34.4152 27.7205 34.3946C27.7414 34.3741 27.7535 34.3461 27.754 34.3167C27.7545 34.2874 27.7435 34.259 27.7233 34.2377C27.7031 34.2164 27.6753 34.2039 27.646 34.2028C27.6437 34.2027 27.6413 34.2027 27.639 34.2028H27.638ZM17.154 34.2518C16.9406 34.2465 16.7283 34.2839 16.5295 34.3619C16.3308 34.4399 16.1497 34.5568 15.9969 34.7059C15.844 34.8549 15.7226 35.0331 15.6396 35.2298C15.5567 35.4265 15.514 35.6378 15.514 35.8513C15.514 36.0648 15.5567 36.2761 15.6396 36.4728C15.7226 36.6695 15.844 36.8477 15.9969 36.9967C16.1497 37.1458 16.3308 37.2628 16.5295 37.3407C16.7283 37.4187 16.9406 37.4562 17.154 37.4508C17.5713 37.4404 17.968 37.2673 18.2594 36.9685C18.5509 36.6696 18.714 36.2687 18.714 35.8513C18.714 35.4339 18.5509 35.033 18.2594 34.7342C17.968 34.4353 17.5713 34.2622 17.154 34.2518ZM24.258 34.2518C24.0446 34.2465 23.8323 34.2839 23.6335 34.3619C23.4348 34.4399 23.2537 34.5568 23.1009 34.7059C22.948 34.8549 22.8266 35.0331 22.7436 35.2298C22.6607 35.4265 22.618 35.6378 22.618 35.8513C22.618 36.0648 22.6607 36.2761 22.7436 36.4728C22.8266 36.6695 22.948 36.8477 23.1009 36.9967C23.2537 37.1458 23.4348 37.2628 23.6335 37.3407C23.8323 37.4187 24.0446 37.4562 24.258 37.4508C24.6753 37.4404 25.072 37.2673 25.3634 36.9685C25.6549 36.6696 25.818 36.2687 25.818 35.8513C25.818 35.4339 25.6549 35.033 25.3634 34.7342C25.072 34.4353 24.6753 34.2622 24.258 34.2518ZM31.154 34.2518C30.9406 34.2465 30.7283 34.2839 30.5295 34.3619C30.3308 34.4399 30.1497 34.5568 29.9969 34.7059C29.844 34.8549 29.7226 35.0331 29.6396 35.2298C29.5567 35.4265 29.514 35.6378 29.514 35.8513C29.514 36.0648 29.5567 36.2761 29.6396 36.4728C29.7226 36.6695 29.844 36.8477 29.9969 36.9967C30.1497 37.1458 30.3308 37.2628 30.5295 37.3407C30.7283 37.4187 30.9406 37.4562 31.154 37.4508C31.5713 37.4404 31.968 37.2673 32.2594 36.9685C32.5509 36.6696 32.714 36.2687 32.714 35.8513C32.714 35.4339 32.5509 35.033 32.2594 34.7342C31.968 34.4353 31.5713 34.2622 31.154 34.2518ZM20.389 34.7658C20.3743 34.7667 20.3599 34.7704 20.3466 34.7768C20.3334 34.7832 20.3215 34.7922 20.3117 34.8032C20.3019 34.8142 20.2944 34.827 20.2895 34.841C20.2847 34.8549 20.2826 34.8696 20.2835 34.8843C20.2844 34.899 20.2881 34.9134 20.2945 34.9267C20.3009 34.9399 20.3099 34.9518 20.3209 34.9616C20.3319 34.9714 20.3447 34.9789 20.3586 34.9838C20.3726 34.9886 20.3873 34.9907 20.402 34.9898C20.4317 34.9881 20.4595 34.9746 20.4793 34.9524C20.4991 34.9302 20.5092 34.901 20.5075 34.8713C20.5058 34.8416 20.4923 34.8138 20.4701 34.794C20.4479 34.7742 20.4187 34.7641 20.389 34.7658ZM27.639 34.7658C27.6243 34.7667 27.6099 34.7704 27.5966 34.7768C27.5834 34.7832 27.5715 34.7922 27.5617 34.8032C27.5519 34.8142 27.5444 34.827 27.5395 34.841C27.5347 34.8549 27.5326 34.8696 27.5335 34.8843C27.5344 34.899 27.5381 34.9134 27.5445 34.9267C27.5509 34.9399 27.5599 34.9518 27.5709 34.9616C27.5819 34.9714 27.5947 34.9789 27.6086 34.9838C27.6226 34.9886 27.6373 34.9907 27.652 34.9898C27.6817 34.9881 27.7095 34.9746 27.7293 34.9524C27.7491 34.9302 27.7592 34.901 27.7575 34.8713C27.7558 34.8416 27.7423 34.8138 27.7201 34.794C27.6979 34.7742 27.6687 34.7641 27.639 34.7658ZM20.389 35.3278C20.3743 35.3287 20.3599 35.3324 20.3466 35.3388C20.3334 35.3452 20.3215 35.3542 20.3117 35.3652C20.3019 35.3762 20.2944 35.389 20.2895 35.403C20.2847 35.4169 20.2826 35.4316 20.2835 35.4463C20.2844 35.461 20.2881 35.4754 20.2945 35.4887C20.3009 35.5019 20.3099 35.5138 20.3209 35.5236C20.3319 35.5334 20.3447 35.5409 20.3586 35.5458C20.3726 35.5506 20.3873 35.5527 20.402 35.5518C20.4317 35.5501 20.4595 35.5366 20.4793 35.5144C20.4991 35.4922 20.5092 35.463 20.5075 35.4333C20.5058 35.4036 20.4923 35.3758 20.4701 35.356C20.4479 35.3362 20.4187 35.3261 20.389 35.3278ZM27.639 35.3278C27.6243 35.3287 27.6099 35.3324 27.5966 35.3388C27.5834 35.3452 27.5715 35.3542 27.5617 35.3652C27.5519 35.3762 27.5444 35.389 27.5395 35.403C27.5347 35.4169 27.5326 35.4316 27.5335 35.4463C27.5344 35.461 27.5381 35.4754 27.5445 35.4887C27.5509 35.5019 27.5599 35.5138 27.5709 35.5236C27.5819 35.5334 27.5947 35.5409 27.6086 35.5458C27.6226 35.5506 27.6373 35.5527 27.652 35.5518C27.6817 35.5501 27.7095 35.5366 27.7293 35.5144C27.7491 35.4922 27.7592 35.463 27.7575 35.4333C27.7558 35.4036 27.7423 35.3758 27.7201 35.356C27.6979 35.3362 27.6687 35.3261 27.639 35.3278ZM20.389 35.8908C20.3743 35.8917 20.3599 35.8954 20.3466 35.9018C20.3334 35.9082 20.3215 35.9172 20.3117 35.9282C20.3019 35.9392 20.2944 35.952 20.2895 35.966C20.2847 35.9799 20.2826 35.9946 20.2835 36.0093C20.2844 36.024 20.2881 36.0384 20.2945 36.0517C20.3009 36.0649 20.3099 36.0768 20.3209 36.0866C20.3319 36.0964 20.3447 36.1039 20.3586 36.1088C20.3726 36.1136 20.3873 36.1157 20.402 36.1148C20.4317 36.1131 20.4595 36.0996 20.4793 36.0774C20.4991 36.0552 20.5092 36.026 20.5075 35.9963C20.5058 35.9666 20.4923 35.9388 20.4701 35.919C20.4479 35.8992 20.4187 35.8891 20.389 35.8908ZM27.639 35.8908C27.6243 35.8917 27.6099 35.8954 27.5966 35.9018C27.5834 35.9082 27.5715 35.9172 27.5617 35.9282C27.5519 35.9392 27.5444 35.952 27.5395 35.966C27.5347 35.9799 27.5326 35.9946 27.5335 36.0093C27.5344 36.024 27.5381 36.0384 27.5445 36.0517C27.5509 36.0649 27.5599 36.0768 27.5709 36.0866C27.5819 36.0964 27.5947 36.1039 27.6086 36.1088C27.6226 36.1136 27.6373 36.1157 27.652 36.1148C27.6817 36.1131 27.7095 36.0996 27.7293 36.0774C27.7491 36.0552 27.7592 36.026 27.7575 35.9963C27.7558 35.9666 27.7423 35.9388 27.7201 35.919C27.6979 35.8992 27.6687 35.8891 27.639 35.8908ZM20.389 36.4528C20.3735 36.4527 20.3581 36.4557 20.3438 36.4618C20.3296 36.4679 20.3167 36.4768 20.306 36.4881C20.2953 36.4993 20.2871 36.5127 20.2818 36.5272C20.2765 36.5418 20.2743 36.5573 20.2752 36.5728C20.2762 36.5883 20.2803 36.6034 20.2874 36.6172C20.2945 36.6311 20.3043 36.6433 20.3163 36.6531C20.3283 36.663 20.3421 36.6702 20.3571 36.6745C20.372 36.6787 20.3876 36.6799 20.403 36.6778C20.4313 36.674 20.4572 36.6596 20.4753 36.6376C20.4935 36.6155 20.5026 36.5873 20.5008 36.5588C20.499 36.5303 20.4865 36.5035 20.4658 36.4838C20.445 36.4641 20.4176 36.4531 20.389 36.4528ZM27.639 36.4528C27.6235 36.4527 27.6081 36.4557 27.5938 36.4618C27.5796 36.4679 27.5667 36.4768 27.556 36.4881C27.5453 36.4993 27.5371 36.5127 27.5318 36.5272C27.5265 36.5418 27.5243 36.5573 27.5252 36.5728C27.5262 36.5883 27.5303 36.6034 27.5374 36.6172C27.5445 36.6311 27.5543 36.6433 27.5663 36.6531C27.5783 36.663 27.5921 36.6702 27.6071 36.6745C27.622 36.6787 27.6376 36.6799 27.653 36.6778C27.6813 36.674 27.7072 36.6596 27.7253 36.6376C27.7435 36.6155 27.7526 36.5873 27.7508 36.5588C27.749 36.5303 27.7365 36.5035 27.7158 36.4838C27.695 36.4641 27.6676 36.4531 27.639 36.4528ZM20.377 37.0158C20.3508 37.0199 20.3269 37.0332 20.3096 37.0534C20.2924 37.0736 20.2829 37.0993 20.283 37.1258C20.283 37.1557 20.2948 37.1843 20.3159 37.2054C20.337 37.2265 20.3657 37.2383 20.3955 37.2383C20.4253 37.2383 20.4539 37.2265 20.475 37.2054C20.4961 37.1843 20.508 37.1557 20.508 37.1258C20.508 37.0658 20.458 37.0158 20.397 37.0158H20.377ZM27.627 37.0158C27.6008 37.0199 27.5769 37.0332 27.5596 37.0534C27.5424 37.0736 27.5329 37.0993 27.533 37.1258C27.533 37.1557 27.5448 37.1843 27.5659 37.2054C27.587 37.2265 27.6157 37.2383 27.6455 37.2383C27.6753 37.2383 27.7039 37.2265 27.725 37.2054C27.7461 37.1843 27.758 37.1557 27.758 37.1258C27.758 37.0658 27.708 37.0158 27.647 37.0158H27.627ZM20.389 37.5758C20.3597 37.5769 20.3319 37.5894 20.3117 37.6107C20.2915 37.632 20.2805 37.6604 20.281 37.6897C20.2815 37.7191 20.2936 37.7471 20.3145 37.7676C20.3355 37.7882 20.3636 37.7997 20.393 37.7997C20.4224 37.7997 20.4505 37.7882 20.4715 37.7676C20.4924 37.7471 20.5045 37.7191 20.505 37.6897C20.5055 37.6604 20.4945 37.632 20.4743 37.6107C20.4541 37.5894 20.4263 37.5769 20.397 37.5758C20.3943 37.5757 20.3917 37.5757 20.389 37.5758ZM27.639 37.5758C27.6097 37.5769 27.5819 37.5894 27.5617 37.6107C27.5415 37.632 27.5305 37.6604 27.531 37.6897C27.5315 37.7191 27.5436 37.7471 27.5645 37.7676C27.5855 37.7882 27.6136 37.7997 27.643 37.7997C27.6724 37.7997 27.7005 37.7882 27.7215 37.7676C27.7424 37.7471 27.7545 37.7191 27.755 37.6897C27.7555 37.6604 27.7445 37.632 27.7243 37.6107C27.7041 37.5894 27.6763 37.5769 27.647 37.5758C27.6443 37.5757 27.6417 37.5757 27.639 37.5758ZM17.154 38.0558C16.7498 38.0558 16.3622 38.2164 16.0764 38.5022C15.7906 38.788 15.63 39.1756 15.63 39.5798C15.63 39.984 15.7906 40.3716 16.0764 40.6574C16.3622 40.9432 16.7498 41.1038 17.154 41.1038C17.5581 41.1038 17.9456 40.9433 18.2313 40.6576C18.517 40.3719 18.6775 39.9844 18.6775 39.5803C18.6775 39.1763 18.517 38.7887 18.2313 38.503C17.9456 38.2173 17.5581 38.0568 17.154 38.0568V38.0558ZM24.258 38.0558C24.0579 38.0558 23.8597 38.0952 23.6748 38.1718C23.4899 38.2484 23.3219 38.3607 23.1804 38.5022C23.0388 38.6437 22.9266 38.8117 22.85 38.9966C22.7734 39.1815 22.734 39.3797 22.734 39.5798C22.734 39.7799 22.7734 39.9781 22.85 40.163C22.9266 40.3479 23.0388 40.5159 23.1804 40.6574C23.3219 40.799 23.4899 40.9112 23.6748 40.9878C23.8597 41.0644 24.0579 41.1038 24.258 41.1038C24.6553 41.0936 25.0329 40.9287 25.3103 40.6441C25.5877 40.3595 25.743 39.9777 25.743 39.5803C25.743 39.1829 25.5877 38.8012 25.3103 38.5166C25.0329 38.232 24.6553 38.067 24.258 38.0568V38.0558ZM31.154 38.0558C30.7498 38.0558 30.3622 38.2164 30.0764 38.5022C29.7906 38.788 29.63 39.1756 29.63 39.5798C29.63 39.984 29.7906 40.3716 30.0764 40.6574C30.3622 40.9432 30.7498 41.1038 31.154 41.1038C31.5581 41.1038 31.9456 40.9433 32.2313 40.6576C32.517 40.3719 32.6775 39.9844 32.6775 39.5803C32.6775 39.1763 32.517 38.7887 32.2313 38.503C31.9456 38.2173 31.5581 38.0568 31.154 38.0568V38.0558ZM20.389 38.1388C20.3602 38.1404 20.3331 38.153 20.3133 38.174C20.2936 38.1951 20.2827 38.2229 20.283 38.2518C20.2832 38.2742 20.2902 38.296 20.303 38.3144C20.3157 38.3328 20.3337 38.347 20.3546 38.3551C20.3755 38.3631 20.3983 38.3648 20.4202 38.3597C20.442 38.3547 20.4618 38.3432 20.477 38.3268C20.4923 38.3104 20.5023 38.2898 20.5057 38.2677C20.5091 38.2456 20.5058 38.2229 20.4962 38.2027C20.4866 38.1824 20.4712 38.1655 20.4519 38.1541C20.4326 38.1428 20.4104 38.1374 20.388 38.1388H20.389ZM27.639 38.1388C27.6102 38.1404 27.5831 38.153 27.5633 38.174C27.5436 38.1951 27.5327 38.2229 27.533 38.2518C27.5332 38.2742 27.5402 38.296 27.553 38.3144C27.5657 38.3328 27.5837 38.347 27.6046 38.3551C27.6255 38.3631 27.6483 38.3648 27.6702 38.3597C27.692 38.3547 27.7118 38.3432 27.727 38.3268C27.7423 38.3104 27.7523 38.2898 27.7557 38.2677C27.7591 38.2456 27.7558 38.2229 27.7462 38.2027C27.7366 38.1824 27.7212 38.1655 27.7019 38.1541C27.6826 38.1428 27.6604 38.1374 27.638 38.1388H27.639ZM20.389 38.7008C20.3597 38.7019 20.3319 38.7144 20.3117 38.7357C20.2915 38.757 20.2805 38.7854 20.281 38.8147C20.2815 38.8441 20.2936 38.8721 20.3145 38.8926C20.3355 38.9132 20.3636 38.9247 20.393 38.9247C20.4224 38.9247 20.4505 38.9132 20.4715 38.8926C20.4924 38.8721 20.5045 38.8441 20.505 38.8147C20.5055 38.7854 20.4945 38.757 20.4743 38.7357C20.4541 38.7144 20.4263 38.7019 20.397 38.7008C20.3943 38.7007 20.3917 38.7007 20.389 38.7008ZM27.639 38.7008C27.6097 38.7019 27.5819 38.7144 27.5617 38.7357C27.5415 38.757 27.5305 38.7854 27.531 38.8147C27.5315 38.8441 27.5436 38.8721 27.5645 38.8926C27.5855 38.9132 27.6136 38.9247 27.643 38.9247C27.6724 38.9247 27.7005 38.9132 27.7215 38.8926C27.7424 38.8721 27.7545 38.8441 27.755 38.8147C27.7555 38.7854 27.7445 38.757 27.7243 38.7357C27.7041 38.7144 27.6763 38.7019 27.647 38.7008C27.6443 38.7007 27.6417 38.7007 27.639 38.7008ZM20.389 39.2638C20.3597 39.2649 20.3319 39.2774 20.3117 39.2987C20.2915 39.32 20.2805 39.3484 20.281 39.3777C20.2815 39.4071 20.2936 39.4351 20.3145 39.4556C20.3355 39.4762 20.3636 39.4877 20.393 39.4877C20.4224 39.4877 20.4505 39.4762 20.4715 39.4556C20.4924 39.4351 20.5045 39.4071 20.505 39.3777C20.5055 39.3484 20.4945 39.32 20.4743 39.2987C20.4541 39.2774 20.4263 39.2649 20.397 39.2638C20.3943 39.2637 20.3917 39.2637 20.389 39.2638ZM27.639 39.2638C27.6097 39.2649 27.5819 39.2774 27.5617 39.2987C27.5415 39.32 27.5305 39.3484 27.531 39.3777C27.5315 39.4071 27.5436 39.4351 27.5645 39.4556C27.5855 39.4762 27.6136 39.4877 27.643 39.4877C27.6724 39.4877 27.7005 39.4762 27.7215 39.4556C27.7424 39.4351 27.7545 39.4071 27.755 39.3777C27.7555 39.3484 27.7445 39.32 27.7243 39.2987C27.7041 39.2774 27.6763 39.2649 27.647 39.2638C27.6443 39.2637 27.6417 39.2637 27.639 39.2638ZM20.389 39.8258C20.3743 39.8267 20.3599 39.8304 20.3466 39.8368C20.3334 39.8432 20.3215 39.8522 20.3117 39.8632C20.3019 39.8742 20.2944 39.887 20.2895 39.901C20.2847 39.9149 20.2826 39.9296 20.2835 39.9443C20.2844 39.959 20.2881 39.9734 20.2945 39.9867C20.3009 39.9999 20.3099 40.0118 20.3209 40.0216C20.3319 40.0314 20.3447 40.0389 20.3586 40.0438C20.3726 40.0486 20.3873 40.0507 20.402 40.0498C20.4317 40.0481 20.4595 40.0346 20.4793 40.0124C20.4991 39.9902 20.5092 39.961 20.5075 39.9313C20.5058 39.9016 20.4923 39.8738 20.4701 39.854C20.4479 39.8342 20.4187 39.8241 20.389 39.8258ZM27.639 39.8258C27.6243 39.8267 27.6099 39.8304 27.5966 39.8368C27.5834 39.8432 27.5715 39.8522 27.5617 39.8632C27.5519 39.8742 27.5444 39.887 27.5395 39.901C27.5347 39.9149 27.5326 39.9296 27.5335 39.9443C27.5344 39.959 27.5381 39.9734 27.5445 39.9867C27.5509 39.9999 27.5599 40.0118 27.5709 40.0216C27.5819 40.0314 27.5947 40.0389 27.6086 40.0438C27.6226 40.0486 27.6373 40.0507 27.652 40.0498C27.6817 40.0481 27.7095 40.0346 27.7293 40.0124C27.7491 39.9902 27.7592 39.961 27.7575 39.9313C27.7558 39.9016 27.7423 39.8738 27.7201 39.854C27.6979 39.8342 27.6687 39.8241 27.639 39.8258ZM20.389 40.3888C20.3743 40.3897 20.3599 40.3934 20.3466 40.3998C20.3334 40.4062 20.3215 40.4152 20.3117 40.4262C20.3019 40.4372 20.2944 40.45 20.2895 40.464C20.2847 40.4779 20.2826 40.4926 20.2835 40.5073C20.2844 40.522 20.2881 40.5364 20.2945 40.5497C20.3009 40.5629 20.3099 40.5748 20.3209 40.5846C20.3319 40.5944 20.3447 40.6019 20.3586 40.6068C20.3726 40.6116 20.3873 40.6137 20.402 40.6128C20.4317 40.6111 20.4595 40.5976 20.4793 40.5754C20.4991 40.5532 20.5092 40.524 20.5075 40.4943C20.5058 40.4646 20.4923 40.4368 20.4701 40.417C20.4479 40.3972 20.4187 40.3871 20.389 40.3888ZM27.639 40.3888C27.6243 40.3897 27.6099 40.3934 27.5966 40.3998C27.5834 40.4062 27.5715 40.4152 27.5617 40.4262C27.5519 40.4372 27.5444 40.45 27.5395 40.464C27.5347 40.4779 27.5326 40.4926 27.5335 40.5073C27.5344 40.522 27.5381 40.5364 27.5445 40.5497C27.5509 40.5629 27.5599 40.5748 27.5709 40.5846C27.5819 40.5944 27.5947 40.6019 27.6086 40.6068C27.6226 40.6116 27.6373 40.6137 27.652 40.6128C27.6817 40.6111 27.7095 40.5976 27.7293 40.5754C27.7491 40.5532 27.7592 40.524 27.7575 40.4943C27.7558 40.4646 27.7423 40.4368 27.7201 40.417C27.6979 40.3972 27.6687 40.3871 27.639 40.3888ZM20.377 40.9508C20.3506 40.9549 20.3265 40.9684 20.3093 40.9888C20.292 41.0092 20.2827 41.0351 20.283 41.0618C20.2826 41.084 20.2888 41.1058 20.3008 41.1245C20.3128 41.1431 20.3301 41.1578 20.3505 41.1666C20.3709 41.1754 20.3934 41.178 20.4152 41.174C20.4371 41.1699 20.4572 41.1595 20.4731 41.1441C20.489 41.1286 20.4999 41.1087 20.5045 41.087C20.5091 41.0653 20.5072 41.0427 20.4989 41.0221C20.4907 41.0015 20.4765 40.9838 20.4581 40.9713C20.4398 40.9588 20.4182 40.952 20.396 40.9518H20.378L20.377 40.9508ZM27.627 40.9508C27.6006 40.9549 27.5765 40.9684 27.5593 40.9888C27.542 41.0092 27.5327 41.0351 27.533 41.0618C27.5326 41.084 27.5388 41.1058 27.5508 41.1245C27.5628 41.1431 27.5801 41.1578 27.6005 41.1666C27.6209 41.1754 27.6434 41.178 27.6652 41.174C27.6871 41.1699 27.7072 41.1595 27.7231 41.1441C27.739 41.1286 27.7499 41.1087 27.7545 41.087C27.7591 41.0653 27.7572 41.0427 27.7489 41.0221C27.7407 41.0015 27.7265 40.9838 27.7081 40.9713C27.6898 40.9588 27.6682 40.952 27.646 40.9518H27.628L27.627 40.9508ZM20.377 41.5138C20.3559 41.5172 20.3362 41.5266 20.3203 41.5409C20.3044 41.5551 20.2929 41.5736 20.2871 41.5942C20.2814 41.6148 20.2816 41.6366 20.2879 41.657C20.2941 41.6774 20.306 41.6957 20.3223 41.7095C20.3385 41.7234 20.3584 41.7323 20.3796 41.7353C20.4007 41.7382 20.4223 41.7351 20.4417 41.7262C20.4611 41.7173 20.4776 41.703 20.4891 41.685C20.5007 41.6671 20.5069 41.6462 20.507 41.6248C20.507 41.5638 20.457 41.5148 20.397 41.5138H20.377ZM27.627 41.5138C27.6059 41.5172 27.5862 41.5266 27.5703 41.5409C27.5544 41.5551 27.5429 41.5736 27.5371 41.5942C27.5314 41.6148 27.5316 41.6366 27.5379 41.657C27.5441 41.6774 27.556 41.6957 27.5723 41.7095C27.5885 41.7234 27.6084 41.7323 27.6296 41.7353C27.6507 41.7382 27.6723 41.7351 27.6917 41.7262C27.7111 41.7173 27.7276 41.703 27.7391 41.685C27.7507 41.6671 27.7569 41.6462 27.757 41.6248C27.757 41.5638 27.707 41.5148 27.647 41.5138H27.627ZM20.398 42.0738C20.3823 42.0723 20.3665 42.0741 20.3516 42.0791C20.3367 42.0841 20.323 42.0922 20.3113 42.1027C20.2997 42.1133 20.2904 42.1262 20.284 42.1406C20.2777 42.155 20.2744 42.1706 20.2744 42.1863C20.2744 42.202 20.2777 42.2176 20.284 42.232C20.2904 42.2464 20.2997 42.2593 20.3113 42.2699C20.323 42.2805 20.3367 42.2885 20.3516 42.2935C20.3665 42.2985 20.3823 42.3003 20.398 42.2988C20.4278 42.2988 20.4564 42.287 20.4775 42.2659C20.4986 42.2448 20.5105 42.2162 20.5105 42.1863C20.5105 42.1565 20.4986 42.1279 20.4775 42.1068C20.4564 42.0857 20.4278 42.0738 20.398 42.0738ZM27.648 42.0738C27.6323 42.0723 27.6165 42.0741 27.6016 42.0791C27.5867 42.0841 27.573 42.0922 27.5613 42.1027C27.5497 42.1133 27.5404 42.1262 27.534 42.1406C27.5277 42.155 27.5244 42.1706 27.5244 42.1863C27.5244 42.202 27.5277 42.2176 27.534 42.232C27.5404 42.2464 27.5497 42.2593 27.5613 42.2699C27.573 42.2805 27.5867 42.2885 27.6016 42.2935C27.6165 42.2985 27.6323 42.3003 27.648 42.2988C27.6778 42.2988 27.7064 42.287 27.7275 42.2659C27.7486 42.2448 27.7605 42.2162 27.7605 42.1863C27.7605 42.1565 27.7486 42.1279 27.7275 42.1068C27.7064 42.0857 27.6778 42.0738 27.648 42.0738ZM20.388 42.6368C20.3583 42.6387 20.3305 42.6523 20.3109 42.6746C20.2912 42.6969 20.2811 42.7261 20.283 42.7558C20.2849 42.7855 20.2984 42.8133 20.3207 42.833C20.3431 42.8526 20.3723 42.8627 20.402 42.8608C20.4317 42.8591 20.4595 42.8456 20.4793 42.8234C20.4991 42.8012 20.5092 42.772 20.5075 42.7423C20.5058 42.7126 20.4923 42.6848 20.4701 42.665C20.4479 42.6452 20.4187 42.6351 20.389 42.6368H20.388ZM27.638 42.6368C27.6087 42.6379 27.5809 42.6504 27.5607 42.6717C27.5405 42.693 27.5295 42.7214 27.53 42.7507C27.5305 42.7801 27.5426 42.8081 27.5635 42.8286C27.5845 42.8492 27.6126 42.8607 27.642 42.8607C27.6714 42.8607 27.6995 42.8492 27.7205 42.8286C27.7414 42.8081 27.7535 42.7801 27.754 42.7507C27.7545 42.7214 27.7435 42.693 27.7233 42.6717C27.7031 42.6504 27.6753 42.6379 27.646 42.6368C27.6437 42.6367 27.6413 42.6367 27.639 42.6368H27.638Z" fill="#333333"/>
</g>
<defs>
<clipPath id="clip0">
<rect width="48" height="48" fill="white"/>
</clipPath>
</defs>
</svg>
