<svg width="48" height="48" viewBox="0 0 48 48" fill="none" xmlns="http://www.w3.org/2000/svg">
<g clip-path="url(#clip0)">
<path fill-rule="evenodd" clip-rule="evenodd" d="M0.144531 0.109375V48.1094H48.1445V0.109375H0.144531ZM14.291 4.10938H33.9961C34.8655 4.10938 35.5645 4.80829 35.5645 5.67773V42.5391C35.5645 43.4086 34.8655 44.1094 33.9961 44.1094H14.291C13.4216 44.1094 12.7227 43.4086 12.7227 42.5391V5.67773C12.7227 4.80829 13.4216 4.10938 14.291 4.10938ZM18.7109 12.4863C17.8273 12.4864 17.1114 13.2023 17.1113 14.0859C17.1114 14.9696 17.8273 15.6855 18.7109 15.6855C19.5946 15.6855 20.3105 14.9696 20.3105 14.0859C20.3105 13.2023 19.5946 12.4864 18.7109 12.4863ZM24.1328 12.4863C23.2492 12.4864 22.5332 13.2023 22.5332 14.0859C22.5332 14.9696 23.2492 15.6855 24.1328 15.6855C25.0164 15.6855 25.7324 14.9696 25.7324 14.0859C25.7324 13.2023 25.0164 12.4864 24.1328 12.4863ZM29.5547 12.4863C28.671 12.4864 27.9551 13.2023 27.9551 14.0859C27.9551 14.9696 28.671 15.6855 29.5547 15.6855C30.4383 15.6855 31.1543 14.9696 31.1543 14.0859C31.1543 13.2023 30.4383 12.4864 29.5547 12.4863ZM13.7402 23.9961C13.6782 23.9966 13.6285 24.0471 13.6289 24.1094C13.6294 24.1707 13.6786 24.222 13.7402 24.2227C13.8022 24.2233 13.8527 24.1718 13.8535 24.1094C13.8541 24.0467 13.803 23.9957 13.7402 23.9961ZM14.3027 23.9961C14.2407 23.9966 14.1892 24.0471 14.1895 24.1094C14.19 24.1707 14.2411 24.2224 14.3027 24.2227C14.364 24.2223 14.4134 24.1707 14.4141 24.1094C14.4147 24.1019 14.4147 24.0993 14.4141 24.0918C14.4066 24.0373 14.3579 23.9976 14.3027 23.998V23.9961ZM14.8652 23.9961C14.8025 23.9955 14.7517 24.0467 14.752 24.1094C14.7525 24.1714 14.8032 24.2235 14.8652 24.2227C14.9264 24.2223 14.9759 24.1707 14.9766 24.1094C14.9772 24.1019 14.9772 24.0993 14.9766 24.0918C14.9691 24.0373 14.9204 23.9976 14.8652 23.998V23.9961ZM15.4277 23.9961C15.365 23.9955 15.3142 24.0467 15.3145 24.1094C15.315 24.1714 15.3657 24.2235 15.4277 24.2227C15.4889 24.2223 15.5384 24.1707 15.5391 24.1094C15.5392 24.1068 15.5392 24.1073 15.5391 24.1035C15.5355 24.0445 15.4871 23.9984 15.4277 23.998V23.9961ZM15.9902 23.9961C15.9275 23.9955 15.8767 24.0467 15.877 24.1094C15.8775 24.1714 15.9282 24.2235 15.9902 24.2227C16.0514 24.2223 16.1009 24.1707 16.1016 24.1094C16.1017 24.1068 16.1017 24.1073 16.1016 24.1035C16.098 24.0445 16.0496 23.9984 15.9902 23.998V23.9961ZM16.5527 23.9961C16.49 23.9955 16.4392 24.0467 16.4395 24.1094C16.44 24.1714 16.4907 24.2235 16.5527 24.2227C16.614 24.2223 16.6634 24.1707 16.6641 24.1094C16.6642 24.1068 16.6642 24.1073 16.6641 24.1035C16.6605 24.0445 16.6121 23.9984 16.5527 23.998V23.9961ZM17.1133 23.9961C17.0513 23.9966 17.0017 24.0471 17.002 24.1094C17.0025 24.1707 17.0517 24.2224 17.1133 24.2227C17.1752 24.2233 17.2259 24.1714 17.2266 24.1094C17.2268 24.1068 17.2268 24.1073 17.2266 24.1035C17.223 24.0438 17.1734 23.9973 17.1133 23.998V23.9961ZM17.6758 23.9961C17.6138 23.9966 17.5642 24.0471 17.5645 24.1094C17.565 24.1707 17.6142 24.2224 17.6758 24.2227C17.7377 24.2233 17.7884 24.1714 17.7891 24.1094C17.7893 24.1068 17.7893 24.1073 17.7891 24.1035C17.7855 24.0438 17.7359 23.9973 17.6758 23.998V23.9961ZM18.2383 23.9961C18.1763 23.9966 18.1267 24.0471 18.127 24.1094C18.1275 24.1707 18.1767 24.2224 18.2383 24.2227C18.3002 24.2233 18.3509 24.1714 18.3516 24.1094C18.3517 24.1068 18.3517 24.1073 18.3516 24.1035C18.348 24.0438 18.2984 23.9973 18.2383 23.998V23.9961ZM18.8008 23.9961C18.7388 23.9966 18.6888 24.0471 18.6895 24.1094C18.69 24.1707 18.7395 24.2224 18.8008 24.2227C18.862 24.2223 18.9113 24.1707 18.9121 24.1094C18.9127 24.1019 18.9127 24.0993 18.9121 24.0918C18.9045 24.0373 18.8559 23.9976 18.8008 23.998V23.9961ZM19.3633 23.9961C19.3005 23.9955 19.2496 24.0467 19.25 24.1094C19.2505 24.1714 19.3013 24.2235 19.3633 24.2227C19.4245 24.2223 19.4738 24.1707 19.4746 24.1094C19.4747 24.1068 19.4747 24.1073 19.4746 24.1035C19.471 24.0445 19.4226 23.9984 19.3633 23.998V23.9961ZM19.9258 23.9961C19.863 23.9955 19.8121 24.0467 19.8125 24.1094C19.813 24.1714 19.8638 24.2235 19.9258 24.2227C19.987 24.2223 20.0363 24.1707 20.0371 24.1094C20.0372 24.1068 20.0372 24.1073 20.0371 24.1035C20.0335 24.0445 19.9851 23.9984 19.9258 23.998V23.9961ZM20.4883 23.9961C20.4255 23.9955 20.3746 24.0467 20.375 24.1094C20.3755 24.1714 20.4263 24.2235 20.4883 24.2227C20.5495 24.2223 20.5988 24.1707 20.5996 24.1094C20.5997 24.1068 20.5997 24.1073 20.5996 24.1035C20.596 24.0445 20.5476 23.9984 20.4883 23.998V23.9961ZM21.0508 23.9961C20.988 23.9955 20.9371 24.0467 20.9375 24.1094C20.938 24.1714 20.9888 24.2235 21.0508 24.2227C21.112 24.2223 21.1613 24.1707 21.1621 24.1094C21.1622 24.1068 21.1622 24.1073 21.1621 24.1035C21.1585 24.0445 21.1101 23.9984 21.0508 23.998V23.9961ZM21.6113 23.9961C21.5493 23.9966 21.4996 24.0471 21.5 24.1094C21.5005 24.1707 21.5497 24.2224 21.6113 24.2227C21.6733 24.2233 21.7238 24.1714 21.7246 24.1094C21.7247 24.1068 21.7247 24.1073 21.7246 24.1035C21.721 24.0438 21.6714 23.9973 21.6113 23.998V23.9961ZM22.1738 23.9961C22.1118 23.9966 22.0621 24.0471 22.0625 24.1094C22.063 24.1707 22.1122 24.2224 22.1738 24.2227C22.2358 24.2233 22.2863 24.1714 22.2871 24.1094C22.2872 24.1068 22.2872 24.1073 22.2871 24.1035C22.2835 24.0438 22.2339 23.9973 22.1738 23.998V23.9961ZM22.7363 23.9961C22.6743 23.9966 22.6246 24.0471 22.625 24.1094C22.6255 24.1707 22.6747 24.222 22.7363 24.2227C22.7983 24.2233 22.8488 24.1718 22.8496 24.1094C22.8502 24.0467 22.7991 23.9957 22.7363 23.9961ZM23.2988 23.9961C23.2368 23.9966 23.1871 24.0471 23.1875 24.1094C23.188 24.1707 23.2372 24.2224 23.2988 24.2227C23.36 24.2223 23.4099 24.1707 23.4102 24.1094C23.4108 24.1019 23.4108 24.0993 23.4102 24.0918C23.4026 24.0373 23.3536 23.9976 23.2988 23.998V23.9961ZM23.8613 23.9961C23.7986 23.9955 23.7477 24.0467 23.748 24.1094C23.7485 24.1714 23.7993 24.2235 23.8613 24.2227C23.9225 24.2223 23.972 24.1707 23.9727 24.1094C23.9733 24.1019 23.9733 24.0993 23.9727 24.0918C23.9651 24.0373 23.9165 23.9976 23.8613 23.998V23.9961ZM24.4238 23.9961C24.3611 23.9955 24.3102 24.0467 24.3105 24.1094C24.311 24.1714 24.3618 24.2235 24.4238 24.2227C24.485 24.2223 24.5345 24.1707 24.5352 24.1094C24.5353 24.1068 24.5353 24.1073 24.5352 24.1035C24.5316 24.0445 24.4832 23.9984 24.4238 23.998V23.9961ZM24.9863 23.9961C24.9236 23.9955 24.8727 24.0467 24.873 24.1094C24.8735 24.1714 24.9243 24.2235 24.9863 24.2227C25.0475 24.2223 25.097 24.1707 25.0977 24.1094C25.0979 24.1068 25.0979 24.1073 25.0977 24.1035C25.0941 24.0445 25.0457 23.9984 24.9863 23.998V23.9961ZM25.5469 23.9961C25.4849 23.9966 25.4348 24.0471 25.4355 24.1094C25.436 24.1707 25.4856 24.2224 25.5469 24.2227C25.6088 24.2233 25.6595 24.1714 25.6602 24.1094C25.6604 24.1068 25.6604 24.1073 25.6602 24.1035C25.6566 24.0438 25.607 23.9973 25.5469 23.998V23.9961ZM26.1094 23.9961C26.0474 23.9966 25.9977 24.0471 25.998 24.1094C25.9985 24.1707 26.0478 24.2224 26.1094 24.2227C26.1713 24.2233 26.222 24.1714 26.2227 24.1094C26.2228 24.1068 26.2228 24.1073 26.2227 24.1035C26.2191 24.0438 26.1695 23.9973 26.1094 23.998V23.9961ZM26.6719 23.9961C26.6099 23.9966 26.5602 24.0471 26.5605 24.1094C26.561 24.1707 26.6103 24.2224 26.6719 24.2227C26.7338 24.2233 26.7845 24.1714 26.7852 24.1094C26.7853 24.1068 26.7853 24.1073 26.7852 24.1035C26.7816 24.0438 26.732 23.9973 26.6719 23.998V23.9961ZM27.2344 23.9961C27.1724 23.9966 27.1227 24.0471 27.123 24.1094C27.1235 24.1707 27.1728 24.222 27.2344 24.2227C27.2963 24.2233 27.347 24.1718 27.3477 24.1094C27.3483 24.0467 27.2971 23.9957 27.2344 23.9961ZM27.7969 23.9961C27.7349 23.9966 27.6848 24.0471 27.6855 24.1094C27.686 24.1707 27.7356 24.2224 27.7969 24.2227C27.8581 24.2223 27.9074 24.1707 27.9082 24.1094C27.9088 24.1019 27.9088 24.0993 27.9082 24.0918C27.9006 24.0373 27.852 23.9976 27.7969 23.998V23.9961ZM28.3594 23.9961C28.2966 23.9955 28.2457 24.0467 28.2461 24.1094C28.2466 24.1714 28.2974 24.2235 28.3594 24.2227C28.4206 24.2223 28.4699 24.1707 28.4707 24.1094C28.4708 24.1068 28.4708 24.1073 28.4707 24.1035C28.4671 24.0445 28.4187 23.9984 28.3594 23.998V23.9961ZM28.9219 23.9961C28.8591 23.9955 28.8082 24.0467 28.8086 24.1094C28.8091 24.1714 28.8599 24.2235 28.9219 24.2227C28.9831 24.2223 29.0324 24.1707 29.0332 24.1094C29.0333 24.1068 29.0333 24.1073 29.0332 24.1035C29.0296 24.0445 28.9812 23.9984 28.9219 23.998V23.9961ZM29.4844 23.9961C29.4216 23.9955 29.3707 24.0467 29.3711 24.1094C29.3716 24.1714 29.4224 24.2235 29.4844 24.2227C29.5456 24.2223 29.5949 24.1707 29.5957 24.1094C29.5958 24.1068 29.5958 24.1073 29.5957 24.1035C29.5921 24.0445 29.5437 23.9984 29.4844 23.998V23.9961ZM30.0449 23.9961C29.9829 23.9966 29.9332 24.0471 29.9336 24.1094C29.9341 24.1707 29.9833 24.2224 30.0449 24.2227C30.1069 24.2233 30.1574 24.1714 30.1582 24.1094C30.1583 24.1068 30.1583 24.1073 30.1582 24.1035C30.1546 24.0438 30.105 23.9973 30.0449 23.998V23.9961ZM30.6074 23.9961C30.5454 23.9966 30.4957 24.0471 30.4961 24.1094C30.4966 24.1707 30.5458 24.2224 30.6074 24.2227C30.6694 24.2233 30.7199 24.1714 30.7207 24.1094C30.7208 24.1068 30.7208 24.1073 30.7207 24.1035C30.7171 24.0438 30.6675 23.9973 30.6074 23.998V23.9961ZM31.1699 23.9961C31.1079 23.9966 31.0582 24.0471 31.0586 24.1094C31.0591 24.1707 31.1083 24.2224 31.1699 24.2227C31.2319 24.2233 31.2824 24.1714 31.2832 24.1094C31.2833 24.1068 31.2833 24.1073 31.2832 24.1035C31.2796 24.0438 31.23 23.9973 31.1699 23.998V23.9961ZM31.7324 23.9961C31.6704 23.9966 31.6203 24.0471 31.6211 24.1094C31.6216 24.1707 31.6712 24.2224 31.7324 24.2227C31.7936 24.2223 31.8431 24.1707 31.8438 24.1094C31.8443 24.1019 31.8443 24.0993 31.8438 24.0918C31.8361 24.0373 31.7876 23.9976 31.7324 23.998V23.9961ZM32.2949 23.9961C32.2322 23.9955 32.1812 24.0467 32.1816 24.1094C32.1821 24.1714 32.2329 24.2235 32.2949 24.2227C32.3561 24.2223 32.4055 24.1707 32.4062 24.1094C32.4068 24.1019 32.4068 24.0993 32.4062 24.0918C32.3987 24.0373 32.3501 23.9976 32.2949 23.998V23.9961ZM32.8574 23.9961C32.7947 23.9955 32.7437 24.0467 32.7441 24.1094C32.7446 24.1714 32.7954 24.2235 32.8574 24.2227C32.9186 24.2223 32.968 24.1707 32.9688 24.1094C32.9688 24.1068 32.9688 24.1073 32.9688 24.1035C32.9651 24.0445 32.9167 23.9984 32.8574 23.998V23.9961ZM33.4199 23.9961C33.3572 23.9955 33.3062 24.0467 33.3066 24.1094C33.3071 24.1714 33.3579 24.2235 33.4199 24.2227C33.4811 24.2223 33.5309 24.1707 33.5312 24.1094C33.5313 24.1068 33.5313 24.1073 33.5312 24.1035C33.5276 24.0445 33.4789 23.9984 33.4199 23.998V23.9961ZM33.9824 23.9961C33.9197 23.9955 33.8687 24.0467 33.8691 24.1094C33.8696 24.1714 33.9204 24.2235 33.9824 24.2227C34.0436 24.2223 34.0934 24.1707 34.0938 24.1094C34.0938 24.1068 34.0938 24.1073 34.0938 24.1035C34.0901 24.0445 34.0414 23.9984 33.9824 23.998V23.9961ZM34.543 23.9961C34.481 23.9966 34.4312 24.0471 34.4316 24.1094C34.4321 24.1707 34.4813 24.2224 34.543 24.2227C34.6049 24.2233 34.6555 24.1714 34.6562 24.1094C34.6563 24.1068 34.6563 24.1073 34.6562 24.1035C34.6526 24.0438 34.603 23.9973 34.543 23.998V23.9961ZM18.7109 32.4863C17.8273 32.4864 17.1114 33.2023 17.1113 34.0859C17.1114 34.9696 17.8273 35.6855 18.7109 35.6855C19.5946 35.6855 20.3105 34.9696 20.3105 34.0859C20.3105 33.2023 19.5946 32.4864 18.7109 32.4863ZM24.1328 32.4863C23.2492 32.4864 22.5332 33.2023 22.5332 34.0859C22.5332 34.9696 23.2492 35.6855 24.1328 35.6855C25.0164 35.6855 25.7324 34.9696 25.7324 34.0859C25.7324 33.2023 25.0164 32.4864 24.1328 32.4863ZM29.5547 32.4863C28.671 32.4864 27.9551 33.2023 27.9551 34.0859C27.9551 34.9696 28.671 35.6855 29.5547 35.6855C30.4383 35.6855 31.1543 34.9696 31.1543 34.0859C31.1543 33.2023 30.4383 32.4864 29.5547 32.4863Z" fill="#333333"/>
</g>
<defs>
<clipPath id="clip0">
<rect width="48" height="48" fill="white"/>
</clipPath>
</defs>
</svg>
