<svg width="48" height="48" viewBox="0 0 48 48" fill="none" xmlns="http://www.w3.org/2000/svg">
<path d="M23.6 39.8C23.9314 39.8 24.2 40.0686 24.2 40.4C24.2 40.7314 23.9314 41 23.6 41C23.2686 41 23 40.7314 23 40.4C23 40.0686 23.2686 39.8 23.6 39.8Z" fill="#333333"/>
<path d="M24.2 37.4C24.2 37.0686 23.9314 36.8 23.6 36.8C23.2686 36.8 23 37.0686 23 37.4C23 37.7314 23.2686 38 23.6 38C23.9314 38 24.2 37.7314 24.2 37.4Z" fill="#333333"/>
<path d="M23.6 33.8C23.9314 33.8 24.2 34.0686 24.2 34.4C24.2 34.7314 23.9314 35 23.6 35C23.2686 35 23 34.7314 23 34.4C23 34.0686 23.2686 33.8 23.6 33.8Z" fill="#333333"/>
<path d="M24.2 31.4C24.2 31.0686 23.9314 30.8 23.6 30.8C23.2686 30.8 23 31.0686 23 31.4C23 31.7314 23.2686 32 23.6 32C23.9314 32 24.2 31.7314 24.2 31.4Z" fill="#333333"/>
<path d="M23.6 27.8C23.9314 27.8 24.2 28.0686 24.2 28.4C24.2 28.7314 23.9314 29 23.6 29C23.2686 29 23 28.7314 23 28.4C23 28.0686 23.2686 27.8 23.6 27.8Z" fill="#333333"/>
<path d="M24.2 25.4C24.2 25.0686 23.9314 24.8 23.6 24.8C23.2686 24.8 23 25.0686 23 25.4C23 25.7314 23.2686 26 23.6 26C23.9314 26 24.2 25.7314 24.2 25.4Z" fill="#333333"/>
<path d="M23.6 21.8C23.9314 21.8 24.2 22.0686 24.2 22.4C24.2 22.7314 23.9314 23 23.6 23C23.2686 23 23 22.7314 23 22.4C23 22.0686 23.2686 21.8 23.6 21.8Z" fill="#333333"/>
<path d="M24.2 19.4C24.2 19.0686 23.9314 18.8 23.6 18.8C23.2686 18.8 23 19.0686 23 19.4C23 19.7314 23.2686 20 23.6 20C23.9314 20 24.2 19.7314 24.2 19.4Z" fill="#333333"/>
<path d="M23.6 15.8C23.9314 15.8 24.2 16.0686 24.2 16.4C24.2 16.7314 23.9314 17 23.6 17C23.2686 17 23 16.7314 23 16.4C23 16.0686 23.2686 15.8 23.6 15.8Z" fill="#333333"/>
<path d="M24.2 13.4C24.2 13.0686 23.9314 12.8 23.6 12.8C23.2686 12.8 23 13.0686 23 13.4C23 13.7314 23.2686 14 23.6 14C23.9314 14 24.2 13.7314 24.2 13.4Z" fill="#333333"/>
<path d="M23.6 9.8C23.9314 9.8 24.2 10.0686 24.2 10.4C24.2 10.7314 23.9314 11 23.6 11C23.2686 11 23 10.7314 23 10.4C23 10.0686 23.2686 9.8 23.6 9.8Z" fill="#333333"/>
<path d="M24.2 7.4C24.2 7.06863 23.9314 6.8 23.6 6.8C23.2686 6.8 23 7.06863 23 7.4C23 7.73137 23.2686 8 23.6 8C23.9314 8 24.2 7.73137 24.2 7.4Z" fill="#333333"/>
<path fill-rule="evenodd" clip-rule="evenodd" d="M48 0H0V48H48V0ZM16 4H23.1528C23.0578 4.10615 23 4.24633 23 4.4C23 4.73137 23.2686 5 23.6 5C23.9314 5 24.2 4.73137 24.2 4.4C24.2 4.24633 24.1422 4.10615 24.0472 4H32C34.2091 4 36 5.79086 36 8V40C36 42.2091 34.2091 44 32 44H23.6C23.9314 44 24.2 43.7314 24.2 43.4C24.2 43.0686 23.9314 42.8 23.6 42.8C23.2686 42.8 23 43.0686 23 43.4C23 43.7314 23.2686 44 23.6 44H16C13.7909 44 12 42.2091 12 40V8C12 5.79086 13.7909 4 16 4Z" fill="#333333"/>
<path d="M17.8407 6.83578C18.3023 6.37419 19.0506 6.37419 19.5122 6.83578C19.9738 7.29738 19.9738 8.04576 19.5122 8.50735L17.8407 10.1789C17.3791 10.6405 16.6307 10.6405 16.1691 10.1789C15.7075 9.71733 15.7075 8.96895 16.1691 8.50735L17.8407 6.83578Z" fill="#333333"/>
<path d="M17.8407 11.8358C18.3023 11.3742 19.0506 11.3742 19.5122 11.8358C19.9738 12.2974 19.9738 13.0458 19.5122 13.5074L17.8407 15.1789C17.3791 15.6405 16.6307 15.6405 16.1691 15.1789C15.7075 14.7173 15.7075 13.9689 16.1691 13.5074L17.8407 11.8358Z" fill="#333333"/>
<path d="M17.8407 16.8358C18.3023 16.3742 19.0506 16.3742 19.5122 16.8358C19.9738 17.2974 19.9738 18.0458 19.5122 18.5074L17.8407 20.1789C17.3791 20.6405 16.6307 20.6405 16.1691 20.1789C15.7075 19.7173 15.7075 18.9689 16.1691 18.5074L17.8407 16.8358Z" fill="#333333"/>
<path d="M17.8407 21.8358C18.3023 21.3742 19.0506 21.3742 19.5122 21.8358C19.9738 22.2974 19.9738 23.0458 19.5122 23.5074L17.8407 25.1789C17.3791 25.6405 16.6307 25.6405 16.1691 25.1789C15.7075 24.7173 15.7075 23.9689 16.1691 23.5074L17.8407 21.8358Z" fill="#333333"/>
<path d="M17.8407 26.8358C18.3023 26.3742 19.0506 26.3742 19.5122 26.8358C19.9738 27.2974 19.9738 28.0458 19.5122 28.5074L17.8407 30.1789C17.3791 30.6405 16.6307 30.6405 16.1691 30.1789C15.7075 29.7173 15.7075 28.9689 16.1691 28.5074L17.8407 26.8358Z" fill="#333333"/>
<path d="M17.8407 31.8358C18.3023 31.3742 19.0506 31.3742 19.5122 31.8358C19.9738 32.2974 19.9738 33.0458 19.5122 33.5074L17.8407 35.1789C17.3791 35.6405 16.6307 35.6405 16.1691 35.1789C15.7075 34.7173 15.7075 33.9689 16.1691 33.5074L17.8407 31.8358Z" fill="#333333"/>
<path d="M17.8407 36.8358C18.3023 36.3742 19.0506 36.3742 19.5122 36.8358C19.9738 37.2974 19.9738 38.0458 19.5122 38.5074L17.8407 40.1789C17.3791 40.6405 16.6307 40.6405 16.1691 40.1789C15.7075 39.7173 15.7075 38.9689 16.1691 38.5074L17.8407 36.8358Z" fill="#333333"/>
<path d="M29.8407 6.83578C30.3023 6.37419 31.0506 6.37419 31.5122 6.83578C31.9738 7.29738 31.9738 8.04576 31.5122 8.50735L29.8407 10.1789C29.3791 10.6405 28.6307 10.6405 28.1691 10.1789C27.7075 9.71733 27.7075 8.96895 28.1691 8.50735L29.8407 6.83578Z" fill="#333333"/>
<path d="M29.8407 11.8358C30.3023 11.3742 31.0506 11.3742 31.5122 11.8358C31.9738 12.2974 31.9738 13.0458 31.5122 13.5074L29.8407 15.1789C29.3791 15.6405 28.6307 15.6405 28.1691 15.1789C27.7075 14.7173 27.7075 13.9689 28.1691 13.5074L29.8407 11.8358Z" fill="#333333"/>
<path d="M29.8407 16.8358C30.3023 16.3742 31.0506 16.3742 31.5122 16.8358C31.9738 17.2974 31.9738 18.0458 31.5122 18.5074L29.8407 20.1789C29.3791 20.6405 28.6307 20.6405 28.1691 20.1789C27.7075 19.7173 27.7075 18.9689 28.1691 18.5074L29.8407 16.8358Z" fill="#333333"/>
<path d="M29.8407 21.8358C30.3023 21.3742 31.0506 21.3742 31.5122 21.8358C31.9738 22.2974 31.9738 23.0458 31.5122 23.5074L29.8407 25.1789C29.3791 25.6405 28.6307 25.6405 28.1691 25.1789C27.7075 24.7173 27.7075 23.9689 28.1691 23.5074L29.8407 21.8358Z" fill="#333333"/>
<path d="M29.8407 26.8358C30.3023 26.3742 31.0506 26.3742 31.5122 26.8358C31.9738 27.2974 31.9738 28.0458 31.5122 28.5074L29.8407 30.1789C29.3791 30.6405 28.6307 30.6405 28.1691 30.1789C27.7075 29.7173 27.7075 28.9689 28.1691 28.5074L29.8407 26.8358Z" fill="#333333"/>
<path d="M29.8407 31.8358C30.3023 31.3742 31.0506 31.3742 31.5122 31.8358C31.9738 32.2974 31.9738 33.0458 31.5122 33.5074L29.8407 35.1789C29.3791 35.6405 28.6307 35.6405 28.1691 35.1789C27.7075 34.7173 27.7075 33.9689 28.1691 33.5074L29.8407 31.8358Z" fill="#333333"/>
<path d="M29.8407 36.8358C30.3023 36.3742 31.0506 36.3742 31.5122 36.8358C31.9738 37.2974 31.9738 38.0458 31.5122 38.5074L29.8407 40.1789C29.3791 40.6405 28.6307 40.6405 28.1691 40.1789C27.7075 39.7173 27.7075 38.9689 28.1691 38.5074L29.8407 36.8358Z" fill="#333333"/>
</svg>
