<svg width="48" height="48" viewBox="0 0 48 48" fill="none" xmlns="http://www.w3.org/2000/svg">
<g clip-path="url(#clip0)">
<path fill-rule="evenodd" clip-rule="evenodd" d="M0 0.00585938V48.0879H48.1719V0.00585938H0ZM14.2324 4.04687H33.9375C34.8069 4.04687 35.5059 4.74579 35.5059 5.61523V42.4766C35.5059 43.346 34.8069 44.0469 33.9375 44.0469H14.2324C13.363 44.0469 12.6641 43.346 12.6641 42.4766V5.61523C12.6641 4.74579 13.363 4.04687 14.2324 4.04687ZM30.9297 4.78125C30.8707 4.7848 30.8246 4.83324 30.8242 4.89258C30.8236 4.95532 30.8748 5.00624 30.9375 5.00586C30.9995 5.00537 31.0496 4.95456 31.0488 4.89258C31.0484 4.83135 30.9987 4.78201 30.9375 4.78125C30.9349 4.78117 30.9335 4.78117 30.9297 4.78125ZM30.9297 5.34375C30.8707 5.3473 30.8246 5.39574 30.8242 5.45508C30.8236 5.51782 30.8748 5.56874 30.9375 5.56836C30.9995 5.56787 31.0496 5.51706 31.0488 5.45508C31.0484 5.39385 30.9987 5.34451 30.9375 5.34375C30.9349 5.34367 30.9335 5.34367 30.9297 5.34375ZM30.9297 5.90625C30.8707 5.9098 30.8246 5.95824 30.8242 6.01758C30.8236 6.08032 30.8748 6.13124 30.9375 6.13086C30.9995 6.13037 31.0496 6.07956 31.0488 6.01758C31.0484 5.95635 30.9987 5.90701 30.9375 5.90625C30.9349 5.90617 30.9335 5.90617 30.9297 5.90625ZM30.918 6.46875C30.8635 6.47631 30.8238 6.5249 30.8242 6.58008C30.8247 6.64206 30.8751 6.69178 30.9375 6.69141C30.9987 6.69091 31.0484 6.64168 31.0488 6.58008C31.0484 6.51885 30.9987 6.46951 30.9375 6.46875C30.9299 6.46818 30.9275 6.46818 30.9199 6.46875H30.918ZM30.9375 7.0293C30.8748 7.02869 30.8238 7.07984 30.8242 7.14258C30.8247 7.20456 30.8751 7.25428 30.9375 7.25391C30.9987 7.25341 31.0481 7.20418 31.0488 7.14258C31.0494 7.08059 30.9999 7.03005 30.9375 7.0293ZM30.9297 7.5918C30.87 7.59539 30.8235 7.64498 30.8242 7.70508C30.8247 7.76706 30.8751 7.81678 30.9375 7.81641C30.9987 7.81591 31.0484 7.76668 31.0488 7.70508C31.0494 7.64309 30.9995 7.59255 30.9375 7.5918C30.9349 7.59168 30.9335 7.59168 30.9297 7.5918ZM30.9297 8.1543C30.87 8.15793 30.8235 8.20748 30.8242 8.26758C30.8247 8.32956 30.8751 8.37928 30.9375 8.37891C30.9987 8.37845 31.0484 8.32918 31.0488 8.26758C31.0494 8.20559 30.9995 8.15505 30.9375 8.1543C30.9349 8.15422 30.9335 8.15422 30.9297 8.1543ZM30.9297 8.7168C30.87 8.72039 30.8235 8.76998 30.8242 8.83008C30.8247 8.89206 30.8751 8.94178 30.9375 8.94141C30.9987 8.94091 31.0484 8.89168 31.0488 8.83008C31.0494 8.76809 30.9995 8.71755 30.9375 8.7168C30.9349 8.71672 30.9335 8.71672 30.9297 8.7168ZM30.9297 9.2793C30.8707 9.28285 30.8246 9.33129 30.8242 9.39062C30.8236 9.45336 30.8748 9.50428 30.9375 9.50391C30.9995 9.50341 31.0496 9.45261 31.0488 9.39062C31.0484 9.3294 30.9987 9.28005 30.9375 9.2793C30.9349 9.27922 30.9335 9.27922 30.9297 9.2793ZM24.3926 9.6875C23.5089 9.68754 22.793 10.4035 22.793 11.2871C22.793 12.1708 23.5089 12.8867 24.3926 12.8867C25.2762 12.8867 25.9921 12.1708 25.9922 11.2871C25.9921 10.4035 25.2762 9.68754 24.3926 9.6875ZM30.9297 9.8418C30.8707 9.8454 30.8246 9.89379 30.8242 9.95312C30.8236 10.0159 30.8748 10.0668 30.9375 10.0664C30.9995 10.0659 31.0496 10.0151 31.0488 9.95312C31.0484 9.89189 30.9987 9.84255 30.9375 9.8418C30.9349 9.84168 30.9335 9.84168 30.9297 9.8418ZM30.918 10.4043C30.8635 10.4119 30.8238 10.4604 30.8242 10.5156C30.8236 10.5784 30.8748 10.6293 30.9375 10.6289C30.9995 10.6284 31.0496 10.5776 31.0488 10.5156C31.0484 10.4544 30.9987 10.405 30.9375 10.4043C30.9299 10.4037 30.9275 10.4037 30.9199 10.4043H30.918ZM30.9375 10.9648C30.8748 10.9642 30.8238 11.0154 30.8242 11.0781C30.8247 11.1401 30.8751 11.1898 30.9375 11.1895C30.9987 11.189 31.0481 11.1397 31.0488 11.0781C31.0494 11.0161 30.9999 10.9656 30.9375 10.9648ZM30.9375 11.5273C30.8748 11.5267 30.8238 11.5779 30.8242 11.6406C30.8247 11.7026 30.8751 11.7527 30.9375 11.752C30.9987 11.7515 31.0481 11.7019 31.0488 11.6406C31.0494 11.5786 30.9999 11.5281 30.9375 11.5273ZM30.9297 12.0898C30.87 12.0934 30.8235 12.143 30.8242 12.2031C30.8247 12.2651 30.8751 12.3152 30.9375 12.3145C30.9987 12.314 31.0484 12.2644 31.0488 12.2031C31.0494 12.1411 30.9995 12.0906 30.9375 12.0898C30.9349 12.0897 30.9335 12.0897 30.9297 12.0898ZM18.8301 12.375C17.9464 12.375 17.2305 13.091 17.2305 13.9746C17.2305 14.8583 17.9464 15.5742 18.8301 15.5742C19.7137 15.5742 20.4296 14.8583 20.4297 13.9746C20.4296 13.091 19.7137 12.375 18.8301 12.375ZM30.9297 12.6523C30.87 12.6559 30.8235 12.7055 30.8242 12.7656C30.8247 12.8276 30.8751 12.8777 30.9375 12.877C30.9987 12.8765 31.0484 12.8269 31.0488 12.7656C31.0494 12.7036 30.9995 12.6527 30.9375 12.6523C30.9349 12.6523 30.9335 12.6523 30.9297 12.6523ZM30.9297 13.2148C30.8707 13.2184 30.8246 13.2668 30.8242 13.3262C30.8236 13.3889 30.8748 13.4398 30.9375 13.4395C30.9995 13.439 31.0496 13.3882 31.0488 13.3262C31.0484 13.2649 30.9987 13.2156 30.9375 13.2148C30.9349 13.2148 30.9335 13.2148 30.9297 13.2148ZM30.9297 13.7773C30.8707 13.7809 30.8246 13.8293 30.8242 13.8887C30.8236 13.9514 30.8748 14.0023 30.9375 14.002C30.9995 14.0015 31.0496 13.9507 31.0488 13.8887C31.0484 13.8274 30.9987 13.7781 30.9375 13.7773C30.9349 13.7773 30.9335 13.7773 30.9297 13.7773ZM30.9297 14.3398C30.8707 14.3434 30.8246 14.3922 30.8242 14.4512C30.8236 14.5139 30.8748 14.5648 30.9375 14.5645C30.9995 14.564 31.0496 14.5132 31.0488 14.4512C31.0484 14.3899 30.9987 14.3402 30.9375 14.3398C30.9349 14.3397 30.9335 14.3397 30.9297 14.3398ZM30.918 14.9023C30.8635 14.9099 30.8238 14.9589 30.8242 15.0137C30.8236 15.0764 30.8748 15.1273 30.9375 15.127C30.9995 15.1265 31.0496 15.0757 31.0488 15.0137C31.0484 14.9524 30.9987 14.9027 30.9375 14.9023C30.9299 14.9018 30.9275 14.9018 30.9199 14.9023H30.918ZM24.3926 14.9219C23.5089 14.9219 22.793 15.6379 22.793 16.5215C22.793 17.4051 23.5089 18.1211 24.3926 18.1211C25.2762 18.1211 25.9921 17.4051 25.9922 16.5215C25.9921 15.6379 25.2762 14.9219 24.3926 14.9219ZM30.918 15.4648C30.8635 15.4724 30.8238 15.521 30.8242 15.5762C30.8247 15.6381 30.8751 15.6879 30.9375 15.6875C30.9987 15.687 31.0484 15.6374 31.0488 15.5762C31.0484 15.5149 30.9987 15.4656 30.9375 15.4648C30.9299 15.4643 30.9275 15.4643 30.9199 15.4648H30.918ZM30.9375 16.0254C30.8748 16.0248 30.8238 16.0759 30.8242 16.1387C30.8247 16.2006 30.8751 16.2508 30.9375 16.25C30.9987 16.2495 31.0481 16.1999 31.0488 16.1387C31.0494 16.0767 30.9999 16.0261 30.9375 16.0254ZM30.9297 16.5879C30.87 16.5915 30.8235 16.6411 30.8242 16.7012C30.8247 16.7631 30.8751 16.8133 30.9375 16.8125C30.9987 16.812 31.0484 16.7624 31.0488 16.7012C31.0494 16.6392 30.9995 16.5886 30.9375 16.5879C30.9349 16.5878 30.9335 16.5878 30.9297 16.5879ZM30.9297 17.1504C30.87 17.154 30.8235 17.2036 30.8242 17.2637C30.8247 17.3256 30.8751 17.3754 30.9375 17.375C30.9987 17.3745 31.0484 17.3253 31.0488 17.2637C31.0494 17.2017 30.9995 17.1511 30.9375 17.1504C30.9349 17.1503 30.9335 17.1503 30.9297 17.1504ZM18.8301 17.6094C17.9464 17.6094 17.2305 18.3254 17.2305 19.209C17.2305 20.0926 17.9464 20.8086 18.8301 20.8086C19.7137 20.8086 20.4296 20.0926 20.4297 19.209C20.4296 18.3254 19.7137 17.6094 18.8301 17.6094ZM30.9297 17.7129C30.8707 17.7165 30.8246 17.7653 30.8242 17.8242C30.8236 17.887 30.8748 17.9379 30.9375 17.9375C30.9995 17.937 31.0496 17.8862 31.0488 17.8242C31.0484 17.763 30.9987 17.7133 30.9375 17.7129C30.9349 17.7128 30.9335 17.7128 30.9297 17.7129ZM30.9297 18.2754C30.8707 18.279 30.8246 18.3278 30.8242 18.3867C30.8236 18.4495 30.8748 18.5004 30.9375 18.5C30.9995 18.4995 31.0496 18.4487 31.0488 18.3867C31.0484 18.3255 30.9987 18.2758 30.9375 18.2754C30.9349 18.2753 30.9335 18.2753 30.9297 18.2754ZM30.9297 18.8379C30.8707 18.8415 30.8246 18.8903 30.8242 18.9492C30.8236 19.012 30.8748 19.0629 30.9375 19.0625C30.9995 19.062 31.0496 19.0112 31.0488 18.9492C31.0484 18.888 30.9987 18.8383 30.9375 18.8379C30.9349 18.8378 30.9335 18.8378 30.9297 18.8379ZM30.918 19.4004C30.8635 19.408 30.8238 19.4565 30.8242 19.5117C30.8236 19.5745 30.8748 19.6254 30.9375 19.625C30.9995 19.6245 31.0496 19.5737 31.0488 19.5117C31.0484 19.4505 30.9987 19.4011 30.9375 19.4004C30.9299 19.3998 30.9275 19.3998 30.9199 19.4004H30.918ZM30.9375 19.9609C30.8748 19.9603 30.8238 20.0115 30.8242 20.0742C30.8247 20.1362 30.8751 20.1863 30.9375 20.1855C30.9987 20.1851 31.0481 20.1354 31.0488 20.0742C31.0494 20.0122 30.9999 19.9617 30.9375 19.9609ZM24.3926 20.1562C23.5089 20.1563 22.793 20.8722 22.793 21.7559C22.793 22.6395 23.5089 23.3555 24.3926 23.3555C25.2762 23.3555 25.9921 22.6395 25.9922 21.7559C25.9921 20.8722 25.2762 20.1563 24.3926 20.1562ZM30.9297 20.5234C30.87 20.527 30.8235 20.5766 30.8242 20.6367C30.8247 20.6987 30.8751 20.7488 30.9375 20.748C30.9987 20.7476 31.0484 20.6979 31.0488 20.6367C31.0494 20.5747 30.9995 20.5238 30.9375 20.5234C30.9349 20.5234 30.9335 20.5234 30.9297 20.5234ZM30.9297 21.0859C30.87 21.0895 30.8235 21.1391 30.8242 21.1992C30.8247 21.2612 30.8751 21.3109 30.9375 21.3105C30.9987 21.3101 31.0484 21.2608 31.0488 21.1992C31.0494 21.1372 30.9995 21.0867 30.9375 21.0859C30.9349 21.0859 30.9335 21.0859 30.9297 21.0859ZM30.9297 21.6484C30.87 21.652 30.8235 21.7016 30.8242 21.7617C30.8247 21.8237 30.8751 21.8734 30.9375 21.873C30.9987 21.8726 31.0484 21.8233 31.0488 21.7617C31.0494 21.6997 30.9995 21.6492 30.9375 21.6484C30.9349 21.6484 30.9335 21.6484 30.9297 21.6484ZM30.9297 22.2109C30.8707 22.2145 30.8246 22.2633 30.8242 22.3223C30.8236 22.385 30.8748 22.4359 30.9375 22.4355C30.9995 22.4351 31.0496 22.3842 31.0488 22.3223C31.0484 22.261 30.9987 22.2113 30.9375 22.2109C30.9349 22.2108 30.9335 22.2108 30.9297 22.2109ZM30.9297 22.7734C30.8707 22.777 30.8246 22.8258 30.8242 22.8848C30.8236 22.9475 30.8748 22.9984 30.9375 22.998C30.9995 22.9976 31.0496 22.9467 31.0488 22.8848C31.0484 22.8235 30.9987 22.7738 30.9375 22.7734C30.9349 22.7733 30.9335 22.7733 30.9297 22.7734ZM18.8301 22.8437C17.9464 22.8438 17.2305 23.5597 17.2305 24.4434C17.2305 25.327 17.9464 26.043 18.8301 26.043C19.7137 26.043 20.4296 25.327 20.4297 24.4434C20.4296 23.5597 19.7137 22.8438 18.8301 22.8437ZM30.9297 23.3359C30.8707 23.3395 30.8246 23.3879 30.8242 23.4473C30.8236 23.51 30.8748 23.5609 30.9375 23.5605C30.9995 23.5601 31.0496 23.5092 31.0488 23.4473C31.0484 23.386 30.9987 23.3367 30.9375 23.3359C30.9349 23.3359 30.9335 23.3359 30.9297 23.3359ZM30.918 23.8984C30.8635 23.906 30.8238 23.9546 30.8242 24.0098C30.8236 24.0725 30.8748 24.1234 30.9375 24.123C30.9995 24.1226 31.0496 24.0717 31.0488 24.0098C31.0484 23.9485 30.9987 23.8992 30.9375 23.8984C30.9299 23.8979 30.9275 23.8979 30.9199 23.8984H30.918ZM30.918 24.4609C30.8635 24.4685 30.8238 24.5171 30.8242 24.5723C30.8247 24.6342 30.8751 24.6843 30.9375 24.6836C30.9987 24.6831 31.0484 24.6335 31.0488 24.5723C31.0484 24.511 30.9987 24.4617 30.9375 24.4609C30.9299 24.4604 30.9275 24.4604 30.9199 24.4609H30.918ZM30.9297 25.0215C30.87 25.0251 30.8235 25.0747 30.8242 25.1348C30.8247 25.1967 30.8751 25.2465 30.9375 25.2461C30.9987 25.2456 31.0484 25.1964 31.0488 25.1348C31.0494 25.0728 30.9995 25.0222 30.9375 25.0215C30.9349 25.0214 30.9335 25.0214 30.9297 25.0215ZM24.3926 25.3906C23.5089 25.3907 22.793 26.1066 22.793 26.9902C22.793 27.8739 23.5089 28.5898 24.3926 28.5898C25.2762 28.5898 25.9921 27.8739 25.9922 26.9902C25.9921 26.1066 25.2762 25.3907 24.3926 25.3906ZM30.9297 25.584C30.87 25.5876 30.8235 25.6372 30.8242 25.6973C30.8247 25.7592 30.8751 25.809 30.9375 25.8086C30.9987 25.8081 31.0484 25.7589 31.0488 25.6973C31.0494 25.6353 30.9995 25.5847 30.9375 25.584C30.9349 25.5839 30.9335 25.5839 30.9297 25.584ZM30.9297 26.1465C30.87 26.1501 30.8235 26.1997 30.8242 26.2598C30.8247 26.3217 30.8751 26.3715 30.9375 26.3711C30.9987 26.3706 31.0484 26.3214 31.0488 26.2598C31.0494 26.1978 30.9995 26.1472 30.9375 26.1465C30.9349 26.1464 30.9335 26.1464 30.9297 26.1465ZM30.9297 26.709C30.8707 26.7126 30.8246 26.761 30.8242 26.8203C30.8236 26.8831 30.8748 26.934 30.9375 26.9336C30.9995 26.9331 31.0496 26.8823 31.0488 26.8203C31.0484 26.7591 30.9987 26.7097 30.9375 26.709C30.9349 26.7089 30.9335 26.7089 30.9297 26.709ZM30.9297 27.2715C30.8707 27.2751 30.8246 27.3235 30.8242 27.3828C30.8236 27.4456 30.8748 27.4965 30.9375 27.4961C30.9995 27.4956 31.0496 27.4448 31.0488 27.3828C31.0484 27.3216 30.9987 27.2722 30.9375 27.2715C30.9349 27.2714 30.9335 27.2714 30.9297 27.2715ZM30.9297 27.834C30.8707 27.8376 30.8246 27.886 30.8242 27.9453C30.8236 28.0081 30.8748 28.059 30.9375 28.0586C30.9995 28.0581 31.0496 28.0073 31.0488 27.9453C31.0484 27.8841 30.9987 27.8347 30.9375 27.834C30.9349 27.8339 30.9335 27.8339 30.9297 27.834ZM18.8301 28.0781C17.9464 28.0782 17.2305 28.7941 17.2305 29.6777C17.2305 30.5614 17.9464 31.2773 18.8301 31.2773C19.7137 31.2773 20.4296 30.5614 20.4297 29.6777C20.4296 28.7941 19.7137 28.0782 18.8301 28.0781ZM30.918 28.3965C30.8635 28.4041 30.8238 28.4526 30.8242 28.5078C30.8247 28.5698 30.8751 28.6199 30.9375 28.6191C30.9987 28.6186 31.0484 28.569 31.0488 28.5078C31.0484 28.4466 30.9987 28.3972 30.9375 28.3965C30.9299 28.3959 30.9275 28.3959 30.9199 28.3965H30.918ZM30.9375 28.957C30.8748 28.9564 30.8238 29.0076 30.8242 29.0703C30.8247 29.1323 30.8751 29.182 30.9375 29.1816C30.9987 29.1811 31.0481 29.1319 31.0488 29.0703C31.0494 29.0083 30.9999 28.9578 30.9375 28.957ZM30.9297 29.5195C30.87 29.5231 30.8235 29.5727 30.8242 29.6328C30.8247 29.6948 30.8751 29.7445 30.9375 29.7441C30.9987 29.7436 31.0484 29.6944 31.0488 29.6328C31.0494 29.5708 30.9995 29.5203 30.9375 29.5195C30.9349 29.5195 30.9335 29.5195 30.9297 29.5195ZM30.9297 30.082C30.87 30.0856 30.8235 30.1352 30.8242 30.1953C30.8247 30.2573 30.8751 30.307 30.9375 30.3066C30.9987 30.3061 31.0484 30.2569 31.0488 30.1953C31.0494 30.1333 30.9995 30.0828 30.9375 30.082C30.9349 30.082 30.9335 30.082 30.9297 30.082ZM24.3926 30.625C23.5089 30.625 22.793 31.341 22.793 32.2246C22.793 33.1083 23.5089 33.8242 24.3926 33.8242C25.2762 33.8242 25.9921 33.1083 25.9922 32.2246C25.9921 31.341 25.2762 30.625 24.3926 30.625ZM30.9297 30.6445C30.87 30.6481 30.8235 30.6977 30.8242 30.7578C30.8247 30.8198 30.8751 30.8699 30.9375 30.8691C30.9987 30.8687 31.0484 30.819 31.0488 30.7578C31.0494 30.6958 30.9995 30.6453 30.9375 30.6445C30.9349 30.6444 30.9335 30.6444 30.9297 30.6445ZM30.9297 31.207C30.8707 31.2106 30.8246 31.259 30.8242 31.3184C30.8236 31.3811 30.8748 31.432 30.9375 31.4316C30.9995 31.4311 31.0496 31.3803 31.0488 31.3184C31.0484 31.2571 30.9987 31.2078 30.9375 31.207C30.9349 31.2069 30.9335 31.2069 30.9297 31.207ZM30.9297 31.7695C30.8707 31.7731 30.8246 31.8215 30.8242 31.8809C30.8236 31.9436 30.8748 31.9945 30.9375 31.9941C30.9995 31.9936 31.0496 31.9428 31.0488 31.8809C31.0484 31.8196 30.9987 31.7703 30.9375 31.7695C30.9349 31.7695 30.9335 31.7695 30.9297 31.7695ZM30.918 32.332C30.8635 32.3396 30.8238 32.3882 30.8242 32.4434C30.8236 32.5061 30.8748 32.557 30.9375 32.5566C30.9995 32.5561 31.0496 32.5053 31.0488 32.4434C31.0484 32.3821 30.9987 32.3328 30.9375 32.332C30.9299 32.3315 30.9275 32.3315 30.9199 32.332H30.918ZM30.918 32.8945C30.8635 32.9021 30.8238 32.9511 30.8242 33.0059C30.8247 33.0678 30.8751 33.1176 30.9375 33.1172C30.9987 33.1167 31.0484 33.0675 31.0488 33.0059C31.0484 32.9446 30.9987 32.8949 30.9375 32.8945C30.9299 32.894 30.9275 32.894 30.9199 32.8945H30.918ZM18.8301 33.3125C17.9464 33.3125 17.2305 34.0285 17.2305 34.9121C17.2305 35.7958 17.9464 36.5117 18.8301 36.5117C19.7137 36.5117 20.4296 35.7958 20.4297 34.9121C20.4296 34.0285 19.7137 33.3125 18.8301 33.3125ZM30.9375 33.4551C30.8748 33.4545 30.8238 33.5056 30.8242 33.5684C30.8247 33.6303 30.8751 33.6801 30.9375 33.6797C30.9987 33.6792 31.0481 33.63 31.0488 33.5684C31.0494 33.5064 30.9999 33.4558 30.9375 33.4551ZM30.9297 34.0176C30.87 34.0212 30.8235 34.0708 30.8242 34.1309C30.8247 34.1928 30.8751 34.2426 30.9375 34.2422C30.9987 34.2417 31.0484 34.1925 31.0488 34.1309C31.0494 34.0689 30.9995 34.0183 30.9375 34.0176C30.9349 34.0175 30.9335 34.0175 30.9297 34.0176ZM30.9297 34.5801C30.87 34.5837 30.8235 34.6333 30.8242 34.6934C30.8247 34.7553 30.8751 34.8051 30.9375 34.8047C30.9987 34.8042 31.0484 34.755 31.0488 34.6934C31.0494 34.6314 30.9995 34.5808 30.9375 34.5801C30.9349 34.58 30.9335 34.58 30.9297 34.5801ZM30.9297 35.1426C30.8707 35.1462 30.8246 35.1946 30.8242 35.2539C30.8236 35.3166 30.8748 35.3676 30.9375 35.3672C30.9995 35.3667 31.0496 35.3159 31.0488 35.2539C31.0484 35.1927 30.9987 35.1433 30.9375 35.1426C30.9349 35.1425 30.9335 35.1425 30.9297 35.1426ZM30.9297 35.7051C30.8707 35.7087 30.8246 35.7571 30.8242 35.8164C30.8236 35.8791 30.8748 35.9301 30.9375 35.9297C30.9995 35.9292 31.0496 35.8784 31.0488 35.8164C31.0484 35.7552 30.9987 35.7058 30.9375 35.7051C30.9349 35.705 30.9335 35.705 30.9297 35.7051ZM23.25 36.2285C22.3664 36.2285 21.6504 36.9445 21.6504 37.8281C21.6504 38.7118 22.3664 39.4277 23.25 39.4277C24.1336 39.4277 24.8496 38.7118 24.8496 37.8281C24.8496 36.9445 24.1336 36.2285 23.25 36.2285ZM30.9297 36.2676C30.8707 36.2712 30.8246 36.3196 30.8242 36.3789C30.8236 36.4416 30.8748 36.4926 30.9375 36.4922C30.9995 36.4917 31.0496 36.4409 31.0488 36.3789C31.0484 36.3177 30.9987 36.2683 30.9375 36.2676C30.9349 36.2675 30.9335 36.2675 30.9297 36.2676ZM30.9297 36.8301C30.8707 36.8337 30.8246 36.8821 30.8242 36.9414C30.8236 37.0041 30.8748 37.0551 30.9375 37.0547C30.9995 37.0542 31.0496 37.0034 31.0488 36.9414C31.0484 36.8802 30.9987 36.8308 30.9375 36.8301C30.9349 36.83 30.9335 36.83 30.9297 36.8301ZM30.918 37.3926C30.8635 37.4002 30.8238 37.4487 30.8242 37.5039C30.8247 37.5659 30.8751 37.616 30.9375 37.6152C30.9987 37.6147 31.0484 37.5651 31.0488 37.5039C31.0484 37.4427 30.9987 37.3933 30.9375 37.3926C30.9299 37.392 30.9275 37.392 30.9199 37.3926H30.918ZM30.9297 37.9531C30.87 37.9567 30.8235 38.0063 30.8242 38.0664C30.8247 38.1284 30.8751 38.1781 30.9375 38.1777C30.9987 38.1772 31.0484 38.128 31.0488 38.0664C31.0494 38.0044 30.9995 37.9539 30.9375 37.9531C30.9349 37.953 30.9335 37.953 30.9297 37.9531ZM30.9297 38.5156C30.87 38.5192 30.8235 38.5688 30.8242 38.6289C30.8247 38.6909 30.8751 38.7406 30.9375 38.7402C30.9987 38.7397 31.0484 38.6905 31.0488 38.6289C31.0494 38.5669 30.9995 38.5164 30.9375 38.5156C30.9349 38.5155 30.9335 38.5155 30.9297 38.5156ZM30.9297 39.0781C30.87 39.0817 30.8235 39.1313 30.8242 39.1914C30.8247 39.2534 30.8751 39.3031 30.9375 39.3027C30.9987 39.3022 31.0484 39.253 31.0488 39.1914C31.0494 39.1294 30.9995 39.0789 30.9375 39.0781C30.9349 39.078 30.9335 39.078 30.9297 39.0781ZM30.9297 39.6406C30.8707 39.6442 30.8246 39.6926 30.8242 39.7519C30.8236 39.8147 30.8748 39.8656 30.9375 39.8652C30.9995 39.8647 31.0496 39.8139 31.0488 39.7519C31.0484 39.6907 30.9987 39.6414 30.9375 39.6406C30.9349 39.6405 30.9335 39.6405 30.9297 39.6406ZM30.9297 40.2031C30.8707 40.2067 30.8246 40.2551 30.8242 40.3145C30.8236 40.3772 30.8748 40.4281 30.9375 40.4277C30.9995 40.4272 31.0496 40.3764 31.0488 40.3145C31.0484 40.2532 30.9987 40.2039 30.9375 40.2031C30.9349 40.203 30.9335 40.203 30.9297 40.2031ZM30.9297 40.7656C30.8707 40.7692 30.8246 40.8176 30.8242 40.8769C30.8236 40.9397 30.8748 40.9906 30.9375 40.9902C30.9995 40.9897 31.0496 40.9389 31.0488 40.8769C31.0484 40.8157 30.9987 40.7664 30.9375 40.7656C30.9349 40.7655 30.9335 40.7655 30.9297 40.7656ZM30.918 41.3281C30.8635 41.3357 30.8238 41.3843 30.8242 41.4395C30.8236 41.5022 30.8748 41.5531 30.9375 41.5527C30.9995 41.5522 31.0496 41.5014 31.0488 41.4395C31.0484 41.3782 30.9987 41.3289 30.9375 41.3281C30.9299 41.3276 30.9275 41.3276 30.9199 41.3281H30.918ZM30.918 41.8906C30.8635 41.8982 30.8238 41.9468 30.8242 42.0019C30.8247 42.0639 30.8751 42.1137 30.9375 42.1133C30.9987 42.1128 31.0484 42.0636 31.0488 42.0019C31.0484 41.9407 30.9987 41.8914 30.9375 41.8906C30.9299 41.8901 30.9275 41.8901 30.9199 41.8906H30.918ZM30.9375 42.4512C30.8748 42.4506 30.8238 42.5017 30.8242 42.5645C30.8247 42.6264 30.8751 42.6762 30.9375 42.6758C30.9987 42.6753 31.0481 42.6261 31.0488 42.5645C31.0494 42.5025 30.9999 42.4519 30.9375 42.4512ZM30.9297 43.0137C30.87 43.0173 30.8235 43.0669 30.8242 43.1269C30.8247 43.1889 30.8751 43.2387 30.9375 43.2383C30.9987 43.2378 31.0484 43.1886 31.0488 43.1269C31.0494 43.065 30.9995 43.0144 30.9375 43.0137C30.9349 43.0136 30.9335 43.0136 30.9297 43.0137Z" fill="#333333"/>
</g>
<defs>
<clipPath id="clip0">
<rect width="48" height="48" fill="white"/>
</clipPath>
</defs>
</svg>
