<svg width="48" height="48" viewBox="0 0 48 48" fill="none" xmlns="http://www.w3.org/2000/svg">
<path d="M28.9061 4.08207C23.9861 4.06707 19.1221 4.12507 14.1461 4.12507C13.2771 4.12507 12.5801 4.82507 12.5801 5.69307V42.5551C12.5801 43.4251 13.2771 44.1251 14.1461 44.1251H33.8521C34.7211 44.1251 35.4201 43.4251 35.4201 42.5551V5.69307C35.4201 4.82407 34.7201 4.12507 33.8521 4.12507C32.2031 4.10007 30.5551 4.08507 28.9061 4.08207ZM14.5801 4.62507H33.4181C34.2491 4.62507 34.9201 5.30607 34.9201 6.15507V42.0941C34.9201 42.9411 34.2501 43.6251 33.4181 43.6251H14.5801C13.7501 43.6251 13.0801 42.9411 13.0801 42.0941V6.15407C13.0801 5.30707 13.7501 4.62507 14.5801 4.62507ZM20.3671 5.06507C20.3375 5.06617 20.3096 5.07872 20.2891 5.10007C20.269 5.12178 20.2582 5.1505 20.2591 5.18007C20.2601 5.20907 20.2721 5.23707 20.2931 5.25807C20.314 5.2783 20.342 5.28945 20.3711 5.28907C20.3856 5.2892 20.4 5.28645 20.4135 5.28098C20.4269 5.27551 20.4392 5.26743 20.4495 5.25721C20.4598 5.24698 20.468 5.23481 20.4736 5.2214C20.4792 5.20798 20.4821 5.1936 20.4821 5.17907C20.4821 5.15007 20.4731 5.12107 20.4531 5.09907C20.4326 5.07772 20.4046 5.06517 20.3751 5.06407H20.3671V5.06507ZM27.6171 5.06507C27.5875 5.06617 27.5596 5.07872 27.5391 5.10007C27.519 5.12178 27.5082 5.1505 27.5091 5.18007C27.5101 5.20907 27.5221 5.23707 27.5431 5.25807C27.564 5.2783 27.592 5.28945 27.6211 5.28907C27.6356 5.2892 27.65 5.28645 27.6635 5.28098C27.6769 5.27551 27.6892 5.26743 27.6995 5.25721C27.7098 5.24698 27.718 5.23481 27.7236 5.2214C27.7292 5.20798 27.7321 5.1936 27.7321 5.17907C27.7321 5.15007 27.7231 5.12107 27.7031 5.09907C27.6826 5.07772 27.6546 5.06517 27.6251 5.06407H27.6171V5.06507ZM20.3671 5.62707C20.3521 5.62825 20.3375 5.63232 20.3241 5.63907C20.3109 5.64502 20.299 5.65351 20.2891 5.66407C20.2741 5.68082 20.2645 5.70166 20.2614 5.72391C20.2584 5.74616 20.262 5.76882 20.2719 5.789C20.2817 5.80918 20.2974 5.82595 20.3169 5.83719C20.3363 5.84842 20.3587 5.8536 20.3811 5.85207C20.4113 5.84945 20.4393 5.83509 20.4591 5.81207C20.4782 5.78956 20.4878 5.76052 20.486 5.73105C20.4841 5.70158 20.4709 5.67398 20.4491 5.65407C20.4263 5.63467 20.3969 5.62497 20.3671 5.62707ZM27.6171 5.62707C27.5872 5.6287 27.5592 5.64199 27.5391 5.66407C27.5241 5.68082 27.5145 5.70166 27.5114 5.72391C27.5084 5.74616 27.512 5.76882 27.5219 5.789C27.5317 5.80918 27.5474 5.82595 27.5669 5.83719C27.5863 5.84842 27.6087 5.8536 27.6311 5.85207C27.6613 5.84945 27.6893 5.83509 27.7091 5.81207C27.7238 5.79555 27.7332 5.77498 27.7361 5.75304C27.7389 5.73109 27.7351 5.7088 27.7251 5.68907C27.7188 5.67578 27.71 5.66388 27.6991 5.65407C27.6762 5.63485 27.6469 5.62518 27.6171 5.62707ZM20.3571 6.18907C20.3361 6.19283 20.3167 6.20255 20.3011 6.21707C20.2846 6.23103 20.2724 6.24942 20.2661 6.27007C20.2608 6.2905 20.2615 6.31202 20.2681 6.33207C20.2737 6.35255 20.2852 6.37096 20.3011 6.38507C20.3168 6.39999 20.3368 6.40972 20.3582 6.41294C20.3797 6.41616 20.4016 6.41271 20.4211 6.40307C20.4407 6.39387 20.4574 6.37931 20.4691 6.36107C20.4803 6.34306 20.4862 6.32227 20.4861 6.30107C20.4861 6.24007 20.4361 6.19107 20.3751 6.18907H20.3571ZM27.6071 6.18907C27.5861 6.19283 27.5667 6.20255 27.5511 6.21707C27.5346 6.23103 27.5224 6.24942 27.5161 6.27007C27.5108 6.2905 27.5115 6.31202 27.5181 6.33207C27.5237 6.35255 27.5352 6.37096 27.5511 6.38507C27.5668 6.39999 27.5868 6.40972 27.6082 6.41294C27.6297 6.41616 27.6516 6.41271 27.6711 6.40307C27.6907 6.39387 27.7074 6.37931 27.7191 6.36107C27.7303 6.34306 27.7362 6.32227 27.7361 6.30107C27.7361 6.24007 27.6861 6.19107 27.6251 6.18907H27.6071ZM20.3771 6.75007C20.3624 6.74986 20.3477 6.75258 20.3341 6.75807C20.3074 6.77002 20.286 6.79137 20.2741 6.81807C20.2649 6.83825 20.2618 6.86071 20.2654 6.88261C20.269 6.9045 20.2789 6.92485 20.2941 6.94107C20.3051 6.95107 20.3181 6.96107 20.3321 6.96707C20.3457 6.97256 20.3604 6.97528 20.3751 6.97507C20.4051 6.97507 20.4341 6.96507 20.4551 6.94307C20.4762 6.92178 20.488 6.89304 20.4881 6.86307C20.4881 6.83307 20.4781 6.80407 20.4571 6.78307C20.4358 6.76198 20.407 6.75013 20.3771 6.75007ZM27.6271 6.75007C27.6124 6.74986 27.5977 6.75258 27.5841 6.75807C27.5703 6.76399 27.5577 6.77247 27.5471 6.78307C27.5367 6.79324 27.5284 6.80538 27.5228 6.81876C27.5171 6.83215 27.5142 6.84653 27.5141 6.86107C27.5141 6.89107 27.5241 6.92107 27.5441 6.94107C27.5661 6.96307 27.5951 6.97407 27.6251 6.97507C27.6551 6.97507 27.6841 6.96507 27.7051 6.94307C27.7262 6.92178 27.738 6.89304 27.7381 6.86307C27.7381 6.83307 27.7281 6.80407 27.7071 6.78307C27.6858 6.76198 27.657 6.75013 27.6271 6.75007ZM16.7231 7.25007C16.5095 7.24469 16.297 7.28209 16.0981 7.36007C15.7287 7.50496 15.4264 7.78191 15.2498 8.13715C15.0731 8.4924 15.0347 8.9006 15.1421 9.28254C15.2495 9.66448 15.4949 9.9929 15.8308 10.2041C16.1667 10.4152 16.569 10.4941 16.9597 10.4253C17.3505 10.3566 17.7017 10.1451 17.9453 9.83192C18.1889 9.51876 18.3075 9.12627 18.278 8.73063C18.2485 8.33498 18.0731 7.9644 17.7857 7.69082C17.4984 7.41723 17.1197 7.26015 16.7231 7.25007ZM31.2751 7.25007C30.9534 7.24226 30.6369 7.33146 30.3667 7.50608C30.0965 7.6807 29.8851 7.93263 29.7601 8.22907C29.6353 8.52506 29.6026 8.85179 29.6663 9.16664C29.73 9.48149 29.8871 9.76984 30.1171 9.99407C30.3426 10.2135 30.6278 10.3616 30.937 10.4199C31.2463 10.4783 31.5658 10.4443 31.8558 10.3221C32.1458 10.2 32.3934 9.99519 32.5678 9.73322C32.7421 9.47125 32.8354 9.16374 32.8361 8.84907C32.8359 8.43174 32.6728 8.03097 32.3813 7.73225C32.0899 7.43353 31.6933 7.2605 31.2761 7.25007H31.2751ZM20.3671 7.31307C20.3388 7.31478 20.3123 7.32732 20.2931 7.34807C20.2733 7.36923 20.2622 7.39709 20.2621 7.42607C20.2622 7.44451 20.2668 7.46265 20.2757 7.47884C20.2845 7.49502 20.2973 7.50875 20.3128 7.51878C20.3282 7.5288 20.346 7.53481 20.3644 7.53626C20.3828 7.5377 20.4012 7.53455 20.4181 7.52707C20.4452 7.51461 20.4664 7.49199 20.4771 7.46407C20.4814 7.45051 20.4831 7.43626 20.4821 7.42207C20.4817 7.40739 20.4785 7.39292 20.4725 7.37953C20.4665 7.36613 20.4578 7.35408 20.4471 7.34407C20.4364 7.3339 20.4239 7.32592 20.4102 7.3206C20.3964 7.31528 20.3818 7.31272 20.3671 7.31307ZM27.6171 7.31307C27.5888 7.31478 27.5623 7.32732 27.5431 7.34807C27.5233 7.36923 27.5122 7.39709 27.5121 7.42607C27.5122 7.44451 27.5168 7.46265 27.5257 7.47884C27.5345 7.49502 27.5473 7.50875 27.5628 7.51878C27.5782 7.5288 27.596 7.53481 27.6144 7.53626C27.6328 7.5377 27.6512 7.53455 27.6681 7.52707C27.6952 7.51461 27.7164 7.49199 27.7271 7.46407C27.7314 7.45051 27.7331 7.43626 27.7321 7.42207C27.7317 7.40739 27.7285 7.39292 27.7225 7.37953C27.7165 7.36613 27.7078 7.35408 27.6971 7.34407C27.6864 7.3339 27.6739 7.32592 27.6602 7.3206C27.6464 7.31528 27.6318 7.31272 27.6171 7.31307ZM16.7231 7.71307C16.9477 7.71361 17.1672 7.78057 17.3538 7.90551C17.5405 8.03045 17.6861 8.2078 17.7722 8.41526C17.8584 8.62271 17.8812 8.85101 17.838 9.07143C17.7947 9.29185 17.6872 9.49457 17.5291 9.65407C17.3969 9.78622 17.2342 9.88375 17.0554 9.93804C16.8766 9.99233 16.6871 10.0017 16.5038 9.96531C16.3205 9.92893 16.1489 9.84792 16.0044 9.72945C15.8598 9.61098 15.7467 9.45871 15.6751 9.28611C15.6034 9.1135 15.5754 8.92589 15.5935 8.73988C15.6116 8.55387 15.6753 8.37518 15.7789 8.21965C15.8825 8.06411 16.0229 7.93652 16.1876 7.84816C16.3523 7.7598 16.5362 7.7134 16.7231 7.71307ZM31.2751 7.71307C31.4245 7.71281 31.5726 7.74198 31.7107 7.79893C31.8489 7.85587 31.9745 7.93948 32.0804 8.04497C32.1862 8.15045 32.2703 8.27576 32.3277 8.41373C32.3851 8.55169 32.4148 8.69962 32.4151 8.84907C32.4153 8.99851 32.3862 9.14655 32.3292 9.28471C32.2723 9.42288 32.1887 9.54848 32.0832 9.65434C31.9777 9.7602 31.8524 9.84424 31.7144 9.90168C31.5765 9.95911 31.4285 9.98881 31.2791 9.98907C30.9773 9.9896 30.6876 9.87021 30.4738 9.65717C30.26 9.44413 30.1396 9.15488 30.1391 8.85307C30.1385 8.55125 30.2579 8.26159 30.471 8.04779C30.684 7.834 30.9733 7.7136 31.2751 7.71307ZM20.3671 7.87307C20.3375 7.87417 20.3096 7.88672 20.2891 7.90807C20.2792 7.91846 20.2715 7.93069 20.2663 7.94408C20.2612 7.95746 20.2587 7.97173 20.2591 7.98607C20.2601 8.01607 20.2721 8.04407 20.2931 8.06407C20.3131 8.08507 20.3421 8.09807 20.3711 8.09807C20.4006 8.0978 20.4288 8.08589 20.4496 8.06491C20.4704 8.04394 20.4821 8.0156 20.4821 7.98607C20.4821 7.95707 20.4731 7.93007 20.4531 7.90807C20.4326 7.88672 20.4046 7.87417 20.3751 7.87307H20.3671ZM27.6171 7.87307C27.5875 7.87417 27.5596 7.88672 27.5391 7.90807C27.5292 7.91846 27.5215 7.93069 27.5163 7.94408C27.5112 7.95746 27.5087 7.97173 27.5091 7.98607C27.5101 8.01607 27.5221 8.04407 27.5431 8.06407C27.5631 8.08507 27.5921 8.09807 27.6211 8.09807C27.6506 8.0978 27.6788 8.08589 27.6996 8.06491C27.7204 8.04394 27.7321 8.0156 27.7321 7.98607C27.7321 7.95707 27.7231 7.93007 27.7031 7.90807C27.6826 7.88672 27.6546 7.87417 27.6251 7.87307H27.6171ZM20.3671 8.43607C20.3388 8.43778 20.3123 8.45032 20.2931 8.47107C20.2733 8.49223 20.2622 8.52009 20.2621 8.54907C20.2621 8.61107 20.3121 8.66107 20.3751 8.66007C20.4047 8.65917 20.4327 8.64659 20.4531 8.62507C20.4736 8.60279 20.4848 8.57339 20.4841 8.54307C20.4823 8.51354 20.4691 8.48586 20.4472 8.4659C20.4254 8.44593 20.3967 8.43523 20.3671 8.43607ZM27.6171 8.43607C27.5888 8.43778 27.5623 8.45032 27.5431 8.47107C27.5233 8.49223 27.5122 8.52009 27.5121 8.54907C27.5121 8.61107 27.5621 8.66107 27.6251 8.66007C27.6547 8.65917 27.6827 8.64659 27.7031 8.62507C27.7236 8.60279 27.7348 8.57339 27.7341 8.54307C27.7323 8.51354 27.7191 8.48586 27.6972 8.4659C27.6754 8.44593 27.6467 8.43523 27.6171 8.43607ZM20.3671 8.99807C20.3521 8.99925 20.3375 9.00332 20.3241 9.01007C20.3109 9.01602 20.299 9.02451 20.2891 9.03507C20.2749 9.05226 20.2658 9.07313 20.263 9.09525C20.2602 9.11738 20.2637 9.13985 20.2731 9.16007C20.2794 9.17274 20.2882 9.18397 20.2991 9.19307C20.31 9.2034 20.3229 9.21139 20.337 9.21655C20.3511 9.22171 20.3661 9.22393 20.3811 9.22307C20.4113 9.22045 20.4393 9.20609 20.4591 9.18307C20.4782 9.16056 20.4878 9.13152 20.486 9.10205C20.4841 9.07258 20.4709 9.04498 20.4491 9.02507C20.4263 9.00567 20.3969 8.99597 20.3671 8.99807ZM27.6171 8.99807C27.6021 8.99925 27.5875 9.00332 27.5741 9.01007C27.5609 9.01602 27.549 9.02451 27.5391 9.03507C27.5249 9.05226 27.5158 9.07313 27.513 9.09525C27.5102 9.11738 27.5137 9.13985 27.5231 9.16007C27.5294 9.17274 27.5382 9.18397 27.5491 9.19307C27.56 9.2034 27.5729 9.21139 27.587 9.21655C27.6011 9.22171 27.6161 9.22393 27.6311 9.22307C27.6613 9.22045 27.6893 9.20609 27.7091 9.18307C27.7282 9.16056 27.7378 9.13152 27.736 9.10205C27.7341 9.07258 27.7209 9.04498 27.6991 9.02507C27.6763 9.00567 27.6469 8.99597 27.6171 8.99807ZM24.0001 9.07607C23.7869 9.07086 23.5749 9.10824 23.3764 9.18602C23.1779 9.26381 22.9969 9.38044 22.8441 9.52907C22.6911 9.67844 22.5694 9.8568 22.4861 10.0537C22.4028 10.2507 22.3597 10.4622 22.3591 10.6761C22.3594 10.9974 22.4565 11.3113 22.6377 11.5767C22.8189 11.8421 23.0759 12.0468 23.3751 12.1641C23.5926 12.2498 23.8263 12.2869 24.0597 12.2726C24.2931 12.2584 24.5205 12.1931 24.7259 12.0815C24.9314 11.9698 25.1099 11.8145 25.2488 11.6265C25.3878 11.4384 25.4838 11.2222 25.5302 10.993C25.5766 10.7638 25.5722 10.5273 25.5173 10.3C25.4624 10.0727 25.3584 9.8602 25.2125 9.67746C25.0666 9.49471 24.8825 9.34616 24.673 9.24226C24.4635 9.13836 24.2338 9.08163 24.0001 9.07607ZM24.0001 9.53907C24.3018 9.53867 24.5912 9.65813 24.8049 9.87117C25.0185 10.0842 25.1387 10.3734 25.1391 10.6751C25.1395 10.9768 25.02 11.2662 24.807 11.4798C24.5939 11.6934 24.3048 11.8137 24.0031 11.8141C23.7014 11.8145 23.4119 11.695 23.1983 11.482C22.9847 11.2689 22.8645 10.9798 22.8641 10.6781C22.8637 10.3764 22.9831 10.0869 23.1962 9.8733C23.4092 9.65969 23.6984 9.53947 24.0001 9.53907ZM20.3671 9.56107C20.3453 9.56277 20.3244 9.57076 20.3071 9.58407C20.2895 9.59746 20.2761 9.61558 20.2685 9.6363C20.2609 9.65703 20.2594 9.6795 20.2641 9.70107C20.2691 9.72307 20.2811 9.74107 20.2971 9.75607C20.3134 9.77103 20.3337 9.78098 20.3555 9.7847C20.3773 9.78843 20.3997 9.78578 20.4201 9.77707C20.4401 9.76791 20.457 9.75309 20.4688 9.73443C20.4805 9.71578 20.4865 9.6941 20.4861 9.67207C20.4868 9.65675 20.4844 9.64144 20.4791 9.62707C20.4692 9.60605 20.4533 9.5885 20.4333 9.57672C20.4133 9.56494 20.3902 9.55949 20.3671 9.56107ZM27.6171 9.56107C27.5953 9.56277 27.5744 9.57076 27.5571 9.58407C27.5395 9.59746 27.5261 9.61558 27.5185 9.6363C27.5109 9.65703 27.5094 9.6795 27.5141 9.70107C27.5191 9.72307 27.5311 9.74107 27.5471 9.75607C27.5634 9.77103 27.5837 9.78098 27.6055 9.7847C27.6273 9.78843 27.6497 9.78578 27.6701 9.77707C27.6901 9.76791 27.707 9.75309 27.7188 9.73443C27.7305 9.71578 27.7365 9.6941 27.7361 9.67207C27.7368 9.65675 27.7344 9.64144 27.7291 9.62707C27.7192 9.60605 27.7033 9.5885 27.6833 9.57672C27.6633 9.56494 27.6402 9.55949 27.6171 9.56107ZM20.3551 10.1231C20.3284 10.128 20.3043 10.1421 20.2871 10.1631C20.2706 10.1838 20.2618 10.2096 20.2621 10.2361C20.2602 10.2521 20.2616 10.2684 20.2662 10.2839C20.2709 10.2994 20.2787 10.3137 20.2891 10.3261C20.2991 10.3381 20.3131 10.3461 20.3291 10.3541C20.351 10.3634 20.3752 10.3658 20.3985 10.3608C20.4218 10.3557 20.443 10.3436 20.4591 10.3261C20.4694 10.3137 20.4771 10.2993 20.4818 10.2838C20.4864 10.2684 20.4879 10.2521 20.4861 10.2361C20.4861 10.2064 20.4745 10.178 20.4537 10.1569C20.4329 10.1357 20.4047 10.1236 20.3751 10.1231H20.3551ZM27.6051 10.1231C27.5784 10.128 27.5543 10.1421 27.5371 10.1631C27.5206 10.1838 27.5118 10.2096 27.5121 10.2361C27.5102 10.2521 27.5116 10.2684 27.5162 10.2839C27.5209 10.2994 27.5287 10.3137 27.5391 10.3261C27.5491 10.3381 27.5631 10.3461 27.5791 10.3541C27.601 10.3634 27.6252 10.3658 27.6485 10.3608C27.6718 10.3557 27.693 10.3436 27.7091 10.3261C27.7194 10.3137 27.7271 10.2993 27.7318 10.2838C27.7364 10.2684 27.7379 10.2521 27.7361 10.2361C27.7361 10.2064 27.7245 10.178 27.7037 10.1569C27.6829 10.1357 27.6547 10.1236 27.6251 10.1231H27.6051ZM20.3771 10.6831C20.3621 10.6829 20.3473 10.6858 20.3335 10.6917C20.3197 10.6975 20.3073 10.7062 20.2971 10.7171C20.286 10.7283 20.2772 10.7415 20.2711 10.7561C20.2658 10.7698 20.2634 10.7844 20.2641 10.7991C20.2641 10.8611 20.3141 10.9091 20.3771 10.9091C20.3911 10.9091 20.4071 10.9061 20.4201 10.9001C20.4331 10.8948 20.445 10.887 20.4551 10.8771C20.4651 10.8671 20.4751 10.8551 20.4801 10.8421C20.4855 10.8284 20.4883 10.8138 20.4881 10.7991C20.4883 10.7842 20.4857 10.7695 20.4802 10.7557C20.4748 10.7419 20.4667 10.7293 20.4564 10.7186C20.4461 10.7079 20.4338 10.6994 20.4202 10.6934C20.4066 10.6875 20.3919 10.6843 20.3771 10.6841V10.6831ZM27.6271 10.6831C27.6121 10.6829 27.5973 10.6858 27.5835 10.6917C27.5697 10.6975 27.5573 10.7062 27.5471 10.7171C27.536 10.7283 27.5272 10.7415 27.5211 10.7561C27.5158 10.7698 27.5134 10.7844 27.5141 10.7991C27.5141 10.8611 27.5641 10.9091 27.6271 10.9091C27.6411 10.9091 27.6571 10.9061 27.6701 10.9001C27.6831 10.8948 27.695 10.887 27.7051 10.8771C27.7151 10.8671 27.7251 10.8551 27.7301 10.8421C27.7355 10.8284 27.7383 10.8138 27.7381 10.7991C27.7383 10.7842 27.7357 10.7695 27.7302 10.7557C27.7248 10.7419 27.7167 10.7293 27.7064 10.7186C27.6961 10.7079 27.6838 10.6994 27.6702 10.6934C27.6566 10.6875 27.6419 10.6843 27.6271 10.6841V10.6831ZM16.7231 11.0861C16.5095 11.0807 16.297 11.1181 16.0981 11.1961C15.8995 11.2742 15.7186 11.3912 15.5659 11.5403C15.4132 11.6893 15.2919 11.8674 15.2091 12.0641C15.0841 12.3602 15.0513 12.6871 15.115 13.0022C15.1786 13.3172 15.3359 13.6058 15.5661 13.8301C15.7185 13.9798 15.8994 14.0974 16.0981 14.1761C16.3407 14.2709 16.6029 14.3051 16.8617 14.2757C17.1206 14.2463 17.3684 14.1542 17.5836 14.0075C17.7989 13.8607 17.9751 13.6636 18.097 13.4334C18.2188 13.2031 18.2827 12.9466 18.2831 12.6861C18.2832 12.2686 18.1201 11.8675 17.8287 11.5686C17.5372 11.2697 17.1405 11.0965 16.7231 11.0861ZM31.2751 11.0861C30.9536 11.0782 30.6371 11.1672 30.3669 11.3417C30.0967 11.5161 29.8853 11.7678 29.7601 12.0641C29.6351 12.3602 29.6023 12.6871 29.666 13.0022C29.7296 13.3172 29.8869 13.6058 30.1171 13.8301C30.3426 14.0495 30.6278 14.1976 30.937 14.2559C31.2463 14.3143 31.5658 14.2803 31.8558 14.1581C32.1458 14.036 32.3934 13.8312 32.5678 13.5692C32.7421 13.3073 32.8354 12.9997 32.8361 12.6851C32.8362 12.2676 32.6731 11.8665 32.3817 11.5676C32.0902 11.2687 31.6935 11.0955 31.2761 11.0851L31.2751 11.0861ZM20.3771 11.2461C20.3474 11.2457 20.3187 11.2568 20.2971 11.2771C20.2867 11.2877 20.2786 11.3003 20.2731 11.3141C20.2641 11.3344 20.2614 11.357 20.2653 11.3789C20.2692 11.4008 20.2796 11.4211 20.2951 11.4371C20.3051 11.4481 20.3181 11.4571 20.3321 11.4631C20.3457 11.4685 20.3604 11.4713 20.3751 11.4711C20.4051 11.4711 20.4341 11.4611 20.4551 11.4391C20.4762 11.4178 20.488 11.389 20.4881 11.3591C20.4881 11.3291 20.4781 11.3011 20.4571 11.2791C20.4358 11.258 20.407 11.2461 20.3771 11.2461ZM27.6271 11.2461C27.5974 11.2457 27.5687 11.2568 27.5471 11.2771C27.5367 11.2877 27.5286 11.3003 27.5231 11.3141C27.5141 11.3344 27.5114 11.357 27.5153 11.3789C27.5192 11.4008 27.5296 11.4211 27.5451 11.4371C27.5551 11.4481 27.5681 11.4571 27.5821 11.4631C27.5957 11.4685 27.6104 11.4713 27.6251 11.4711C27.6551 11.4711 27.6841 11.4611 27.7051 11.4391C27.7262 11.4178 27.738 11.389 27.7381 11.3591C27.7381 11.3291 27.7281 11.3011 27.7071 11.2791C27.6858 11.258 27.657 11.2461 27.6271 11.2461ZM16.7231 11.5461C16.8755 11.5418 17.0273 11.568 17.1694 11.6231C17.3116 11.6782 17.4414 11.7612 17.5511 11.8671C17.7167 12.0267 17.83 12.2327 17.876 12.4581C17.9221 12.6834 17.8987 12.9174 17.809 13.1292C17.7193 13.3409 17.5675 13.5205 17.3736 13.6442C17.1798 13.7679 16.9529 13.83 16.7231 13.8221C16.0951 13.8221 15.5881 13.3121 15.5881 12.6861C15.5881 12.0561 16.0941 11.5481 16.7231 11.5461ZM31.2751 11.5461C31.5769 11.5458 31.8665 11.6654 32.0801 11.8787C32.2937 12.0919 32.4138 12.3813 32.4141 12.6831C32.4143 12.9849 32.2947 13.2744 32.0815 13.488C31.8682 13.7017 31.5789 13.8218 31.2771 13.8221C30.9812 13.8136 30.7003 13.6901 30.494 13.4779C30.2876 13.2657 30.1721 12.9815 30.1718 12.6855C30.1715 12.3896 30.2866 12.1051 30.4926 11.8926C30.6986 11.68 30.9792 11.5561 31.2751 11.5471V11.5461ZM20.3671 11.8091C20.3397 11.8137 20.3149 11.8279 20.2971 11.8491C20.2793 11.8705 20.27 11.8978 20.2711 11.9257C20.2722 11.9536 20.2836 11.9801 20.3031 12.0001C20.3221 12.0201 20.3471 12.0331 20.3751 12.0351C20.4361 12.0351 20.4851 11.9831 20.4861 11.9221C20.4858 11.9065 20.4824 11.8912 20.4761 11.8771C20.4702 11.8631 20.4615 11.8506 20.4504 11.8403C20.4394 11.8299 20.4264 11.822 20.4121 11.8171C20.3978 11.8113 20.3825 11.8086 20.3671 11.8091ZM27.6171 11.8091C27.5897 11.8137 27.5649 11.8279 27.5471 11.8491C27.5293 11.8705 27.52 11.8978 27.5211 11.9257C27.5222 11.9536 27.5336 11.9801 27.5531 12.0001C27.5721 12.0201 27.5971 12.0331 27.6251 12.0351C27.6861 12.0351 27.7351 11.9831 27.7361 11.9221C27.7358 11.9065 27.7324 11.8912 27.7261 11.8771C27.7202 11.8631 27.7115 11.8506 27.7004 11.8403C27.6894 11.8299 27.6764 11.822 27.6621 11.8171C27.6478 11.8113 27.6325 11.8086 27.6171 11.8091ZM20.3671 12.3711C20.3396 12.3759 20.3148 12.3905 20.2971 12.4121C20.2795 12.4335 20.2705 12.4606 20.2716 12.4882C20.2727 12.5159 20.2839 12.5421 20.3031 12.5621C20.3221 12.5821 20.3471 12.5951 20.3751 12.5981C20.4361 12.5981 20.4851 12.5461 20.4861 12.4841C20.4858 12.4685 20.4824 12.4532 20.4761 12.4391C20.4701 12.4248 20.4614 12.4119 20.4504 12.4011C20.4394 12.3903 20.4264 12.3818 20.4121 12.3761C20.3976 12.3713 20.3823 12.3696 20.3671 12.3711ZM27.6171 12.3711C27.5896 12.3759 27.5648 12.3905 27.5471 12.4121C27.5295 12.4335 27.5205 12.4606 27.5216 12.4882C27.5227 12.5159 27.5339 12.5421 27.5531 12.5621C27.5721 12.5821 27.5971 12.5951 27.6251 12.5981C27.6861 12.5981 27.7351 12.5461 27.7361 12.4841C27.7358 12.4685 27.7324 12.4532 27.7261 12.4391C27.7201 12.4248 27.7114 12.4119 27.7004 12.4011C27.6894 12.3903 27.6764 12.3818 27.6621 12.3761C27.6476 12.3713 27.6323 12.3696 27.6171 12.3711ZM24.0001 12.9121C23.7869 12.9069 23.5749 12.9442 23.3764 13.022C23.1779 13.0998 22.9969 13.2164 22.8441 13.3651C22.6911 13.5144 22.5694 13.6928 22.4861 13.8897C22.4028 14.0867 22.3597 14.2982 22.3591 14.5121C22.3595 14.7255 22.4027 14.9366 22.486 15.1331C22.5693 15.3295 22.691 15.5074 22.8441 15.6561C22.9962 15.8057 23.1768 15.9233 23.3751 16.0021C23.6178 16.0971 23.88 16.1314 24.139 16.1022C24.398 16.0729 24.646 15.9809 24.8614 15.8341C25.0767 15.6872 25.253 15.4901 25.375 15.2597C25.4969 15.0294 25.5608 14.7727 25.5611 14.5121C25.5612 14.0944 25.398 13.6932 25.1063 13.3943C24.8146 13.0953 24.4176 12.9222 24.0001 12.9121ZM20.3671 12.9341C20.3448 12.9357 20.3235 12.9437 20.3058 12.9572C20.288 12.9707 20.2746 12.9891 20.2671 13.0101C20.2622 13.0241 20.2603 13.0389 20.2613 13.0537C20.2623 13.0685 20.2663 13.0829 20.2731 13.0961C20.2793 13.1093 20.2882 13.1212 20.2991 13.1311C20.3091 13.1411 20.3241 13.1481 20.3381 13.1521C20.3591 13.1592 20.3817 13.1601 20.4032 13.1546C20.4247 13.1491 20.4441 13.1374 20.4591 13.1211C20.4785 13.0983 20.4882 13.0689 20.4861 13.0391C20.4844 13.0092 20.4712 12.9812 20.4491 12.9611C20.4264 12.9416 20.3969 12.9319 20.3671 12.9341ZM27.6171 12.9341C27.5948 12.9357 27.5735 12.9437 27.5558 12.9572C27.538 12.9707 27.5246 12.9891 27.5171 13.0101C27.5122 13.0241 27.5103 13.0389 27.5113 13.0537C27.5123 13.0685 27.5163 13.0829 27.5231 13.0961C27.5293 13.1093 27.5382 13.1212 27.5491 13.1311C27.5591 13.1411 27.5741 13.1481 27.5881 13.1521C27.6091 13.1592 27.6317 13.1601 27.6532 13.1546C27.6747 13.1491 27.6941 13.1374 27.7091 13.1211C27.7285 13.0983 27.7382 13.0689 27.7361 13.0391C27.7344 13.0092 27.7212 12.9812 27.6991 12.9611C27.6764 12.9416 27.6469 12.9319 27.6171 12.9341ZM24.0001 13.3731V13.3751C24.3018 13.3751 24.5911 13.4949 24.8044 13.7082C25.0177 13.9216 25.1376 14.2109 25.1376 14.5126C25.1376 14.8143 25.0177 15.1036 24.8044 15.3169C24.5911 15.5302 24.3018 15.6501 24.0001 15.6501C23.704 15.6413 23.4229 15.5175 23.2166 15.3049C23.0102 15.0924 22.8948 14.8078 22.8948 14.5116C22.8948 14.2153 23.0102 13.9307 23.2166 13.7182C23.4229 13.5056 23.704 13.3818 24.0001 13.3731ZM20.3671 13.4961C20.3372 13.4977 20.3092 13.511 20.2891 13.5331C20.2741 13.5498 20.2645 13.5707 20.2614 13.5929C20.2584 13.6152 20.262 13.6378 20.2719 13.658C20.2817 13.6782 20.2974 13.695 20.3169 13.7062C20.3363 13.7174 20.3587 13.7226 20.3811 13.7211C20.4033 13.7195 20.4246 13.7114 20.4424 13.6979C20.4601 13.6844 20.4736 13.6661 20.4811 13.6451C20.4859 13.6311 20.4879 13.6162 20.4869 13.6015C20.4858 13.5867 20.4818 13.5723 20.4751 13.5591C20.4689 13.5454 20.4601 13.5332 20.4491 13.5231C20.4262 13.5039 20.3969 13.4943 20.3671 13.4961ZM27.6171 13.4961C27.6021 13.4972 27.5875 13.5013 27.5741 13.5081C27.5609 13.514 27.549 13.5225 27.5391 13.5331C27.5248 13.5502 27.5156 13.5711 27.5128 13.5932C27.51 13.6154 27.5135 13.6379 27.5231 13.6581C27.5367 13.6843 27.5595 13.7046 27.5871 13.7151C27.6012 13.72 27.6162 13.7221 27.6311 13.7211C27.6613 13.7184 27.6893 13.7041 27.7091 13.6811C27.7282 13.6586 27.7378 13.6295 27.736 13.6C27.7341 13.5706 27.7209 13.543 27.6991 13.5231C27.6764 13.5036 27.6469 13.4939 27.6171 13.4961ZM20.3671 14.0591C20.337 14.0614 20.309 14.0754 20.2891 14.0981C20.27 14.1206 20.2603 14.1496 20.2622 14.1791C20.264 14.2086 20.2773 14.2362 20.2991 14.2561C20.3161 14.2706 20.3371 14.2797 20.3593 14.2824C20.3815 14.2851 20.4041 14.2811 20.4241 14.2711C20.4373 14.2651 20.4492 14.2566 20.4591 14.2461C20.4686 14.2346 20.4757 14.2213 20.4801 14.2071C20.4851 14.1931 20.4872 14.1783 20.4863 14.1636C20.4855 14.1488 20.4817 14.1343 20.4751 14.1211C20.4688 14.1078 20.46 14.0959 20.4491 14.0861C20.4262 14.0669 20.3969 14.0573 20.3671 14.0591ZM27.6171 14.0591C27.5948 14.0607 27.5735 14.0687 27.5558 14.0822C27.538 14.0957 27.5246 14.1141 27.5171 14.1351C27.5122 14.1491 27.5103 14.1639 27.5113 14.1787C27.5123 14.1935 27.5163 14.2079 27.5231 14.2211C27.5293 14.2343 27.5382 14.2462 27.5491 14.2561C27.5591 14.2661 27.5741 14.2731 27.5881 14.2771C27.6091 14.2842 27.6317 14.2851 27.6532 14.2796C27.6747 14.2741 27.6941 14.2624 27.7091 14.2461C27.7285 14.2233 27.7382 14.1939 27.7361 14.1641C27.7344 14.1342 27.7212 14.1062 27.6991 14.0861C27.6764 14.0666 27.6469 14.0569 27.6171 14.0591ZM20.3551 14.6211C20.3284 14.626 20.3043 14.6401 20.2871 14.6611C20.2706 14.681 20.2617 14.7062 20.2621 14.7321C20.2621 14.7561 20.2681 14.7781 20.2821 14.7971C20.2941 14.8171 20.3121 14.8321 20.3341 14.8401C20.3561 14.8481 20.3801 14.8501 20.4021 14.8441C20.4243 14.838 20.4441 14.8254 20.4591 14.808C20.4741 14.7905 20.4835 14.7689 20.4861 14.7461C20.4893 14.7235 20.4854 14.7004 20.4751 14.6801C20.4643 14.6597 20.4474 14.6433 20.4268 14.6331C20.4061 14.6228 20.3828 14.6193 20.3601 14.6231H20.3551V14.6211ZM27.6051 14.6211C27.5784 14.626 27.5543 14.6401 27.5371 14.6611C27.5206 14.681 27.5117 14.7062 27.5121 14.7321C27.5121 14.7561 27.5181 14.7781 27.5321 14.7971C27.5441 14.8171 27.5621 14.8321 27.5841 14.8401C27.6061 14.8481 27.6301 14.8501 27.6521 14.8441C27.6743 14.838 27.6941 14.8254 27.7091 14.808C27.7241 14.7905 27.7335 14.7689 27.7361 14.7461C27.7393 14.7235 27.7354 14.7004 27.7251 14.6801C27.7143 14.6597 27.6974 14.6433 27.6768 14.6331C27.6561 14.6228 27.6328 14.6193 27.6101 14.6231H27.6051V14.6211ZM16.7231 14.9211C16.299 14.9211 15.8923 15.0895 15.5924 15.3894C15.2925 15.6893 15.1241 16.096 15.1241 16.5201C15.1241 16.9441 15.2925 17.3509 15.5924 17.6507C15.8923 17.9506 16.299 18.1191 16.7231 18.1191C17.1401 18.1086 17.5365 17.9356 17.8278 17.637C18.1191 17.3384 18.2821 16.9377 18.2821 16.5206C18.2821 16.1034 18.1191 15.7028 17.8278 15.4041C17.5365 15.1055 17.1401 14.9325 16.7231 14.9221V14.9211ZM31.2751 14.9211C30.851 14.9211 30.4443 15.0895 30.1444 15.3894C29.8445 15.6893 29.6761 16.096 29.6761 16.5201C29.6761 16.9441 29.8445 17.3509 30.1444 17.6507C30.4443 17.9506 30.851 18.1191 31.2751 18.1191C31.6921 18.1086 32.0885 17.9356 32.3798 17.637C32.6711 17.3384 32.8341 16.9377 32.8341 16.5206C32.8341 16.1034 32.6711 15.7028 32.3798 15.4041C32.0885 15.1055 31.6921 14.9325 31.2751 14.9221V14.9211ZM20.3551 15.1841C20.334 15.1874 20.3144 15.1968 20.2984 15.2109C20.2825 15.2251 20.2709 15.2435 20.2651 15.2641C20.2592 15.285 20.2592 15.3071 20.2651 15.3281C20.2721 15.3481 20.2851 15.3651 20.3011 15.3781C20.3167 15.3925 20.3361 15.4022 20.3571 15.4061C20.3783 15.409 20.3999 15.4059 20.4193 15.397C20.4388 15.3882 20.4554 15.374 20.4671 15.3561C20.4784 15.3378 20.4843 15.3166 20.4841 15.2951C20.4842 15.2806 20.4815 15.2663 20.4761 15.2529C20.4707 15.2395 20.4627 15.2273 20.4526 15.217C20.4424 15.2067 20.4304 15.1985 20.4171 15.1928C20.4038 15.1872 20.3895 15.1842 20.3751 15.1841H20.3551ZM27.6051 15.1841C27.584 15.1874 27.5644 15.1968 27.5484 15.2109C27.5325 15.2251 27.5209 15.2435 27.5151 15.2641C27.5092 15.285 27.5092 15.3071 27.5151 15.3281C27.5221 15.3481 27.5351 15.3651 27.5511 15.3781C27.5667 15.3925 27.5861 15.4022 27.6071 15.4061C27.6283 15.409 27.6499 15.4059 27.6693 15.397C27.6888 15.3882 27.7054 15.374 27.7171 15.3561C27.7284 15.3378 27.7343 15.3166 27.7341 15.2951C27.7342 15.2806 27.7315 15.2663 27.7261 15.2529C27.7207 15.2395 27.7127 15.2273 27.7026 15.217C27.6924 15.2067 27.6804 15.1985 27.6671 15.1928C27.6538 15.1872 27.6395 15.1842 27.6251 15.1841H27.6051ZM16.7231 15.3841C16.9101 15.3836 17.0944 15.4294 17.2595 15.5173C17.4246 15.6052 17.5655 15.7326 17.6696 15.888C17.7737 16.0434 17.8377 16.2221 17.8562 16.4083C17.8746 16.5944 17.8467 16.7823 17.7751 16.9551C17.6893 17.163 17.5438 17.3409 17.3568 17.466C17.1699 17.5912 16.95 17.658 16.7251 17.6581C16.5758 17.6586 16.4279 17.6296 16.2898 17.5728C16.1518 17.516 16.0263 17.4324 15.9206 17.3269C15.815 17.2215 15.7312 17.0961 15.6741 16.9582C15.6171 16.8202 15.5878 16.6724 15.5881 16.5231C15.5878 16.2217 15.7072 15.9325 15.92 15.7191C16.1329 15.5058 16.4217 15.3856 16.7231 15.3851V15.3841ZM31.2751 15.3841C31.4245 15.3838 31.5726 15.413 31.7107 15.4699C31.8489 15.5269 31.9745 15.6105 32.0804 15.716C32.1862 15.8215 32.2703 15.9468 32.3277 16.0847C32.3851 16.2227 32.4148 16.3706 32.4151 16.5201C32.4153 16.6695 32.3862 16.8175 32.3292 16.9557C32.2723 17.0939 32.1887 17.2195 32.0832 17.3253C31.9777 17.4312 31.8524 17.5152 31.7144 17.5727C31.5765 17.6301 31.4285 17.6598 31.2791 17.6601C30.9832 17.6518 30.7022 17.5286 30.4956 17.3166C30.2891 17.1046 30.1733 16.8205 30.1728 16.5245C30.1722 16.2285 30.2871 15.944 30.4929 15.7313C30.6987 15.5185 30.9792 15.3943 31.2751 15.3851V15.3841ZM20.3771 15.7441C20.3474 15.7437 20.3187 15.7548 20.2971 15.7751C20.2867 15.7857 20.2786 15.7983 20.2731 15.8121C20.2639 15.8326 20.2611 15.8553 20.265 15.8775C20.2689 15.8996 20.2794 15.92 20.2951 15.9361C20.3051 15.9461 20.3181 15.9561 20.3321 15.9611C20.3457 15.9665 20.3604 15.9693 20.3751 15.9691C20.4051 15.9691 20.4341 15.9591 20.4551 15.9381C20.4762 15.9168 20.488 15.888 20.4881 15.8581C20.4881 15.8281 20.4781 15.7981 20.4571 15.7781C20.4359 15.7566 20.4072 15.7444 20.3771 15.7441ZM27.6271 15.7441C27.5974 15.7437 27.5687 15.7548 27.5471 15.7751C27.526 15.7964 27.5141 15.8251 27.5141 15.8551C27.5141 15.8851 27.5241 15.9151 27.5441 15.9351C27.5661 15.9571 27.5951 15.9681 27.6251 15.9691C27.6551 15.9691 27.6841 15.9591 27.7051 15.9381C27.7262 15.9168 27.738 15.888 27.7381 15.8581C27.7381 15.8281 27.7281 15.7981 27.7071 15.7781C27.6859 15.7566 27.6572 15.7444 27.6271 15.7441ZM20.3671 16.3071C20.3388 16.3088 20.3123 16.3213 20.2931 16.3421C20.2733 16.3632 20.2622 16.3911 20.2621 16.4201C20.2622 16.4385 20.2668 16.4566 20.2757 16.4728C20.2845 16.489 20.2973 16.5027 20.3128 16.5128C20.3282 16.5228 20.346 16.5288 20.3644 16.5303C20.3828 16.5317 20.4012 16.5285 20.4181 16.5211C20.4453 16.5087 20.4665 16.486 20.4771 16.4581C20.4814 16.4445 20.4831 16.4303 20.4821 16.4161C20.4817 16.4014 20.4785 16.3869 20.4725 16.3735C20.4665 16.3601 20.4578 16.3481 20.4471 16.3381C20.4364 16.3279 20.4239 16.3199 20.4102 16.3146C20.3964 16.3093 20.3818 16.3067 20.3671 16.3071ZM27.6171 16.3071C27.5888 16.3088 27.5623 16.3213 27.5431 16.3421C27.5233 16.3632 27.5122 16.3911 27.5121 16.4201C27.5122 16.4385 27.5168 16.4566 27.5257 16.4728C27.5345 16.489 27.5473 16.5027 27.5628 16.5128C27.5782 16.5228 27.596 16.5288 27.6144 16.5303C27.6328 16.5317 27.6512 16.5285 27.6681 16.5211C27.6953 16.5087 27.7165 16.486 27.7271 16.4581C27.7314 16.4445 27.7331 16.4303 27.7321 16.4161C27.7317 16.4014 27.7285 16.3869 27.7225 16.3735C27.7165 16.3601 27.7078 16.3481 27.6971 16.3381C27.6864 16.3279 27.6739 16.3199 27.6602 16.3146C27.6464 16.3093 27.6318 16.3067 27.6171 16.3071ZM24.0001 16.7481C23.7869 16.7429 23.5749 16.7802 23.3764 16.858C23.1779 16.9358 22.9969 17.0524 22.8441 17.2011C22.6911 17.3504 22.5694 17.5288 22.4861 17.7257C22.4028 17.9227 22.3597 18.1342 22.3591 18.3481C22.3595 18.5615 22.4027 18.7726 22.486 18.9691C22.5693 19.1655 22.691 19.3434 22.8441 19.4921C22.9962 19.6417 23.1768 19.7593 23.3751 19.8381C23.6178 19.9331 23.88 19.9674 24.139 19.9382C24.398 19.9089 24.646 19.8169 24.8614 19.6701C25.0767 19.5232 25.253 19.3261 25.375 19.0957C25.4969 18.8654 25.5608 18.6087 25.5611 18.3481C25.5612 17.9304 25.398 17.5292 25.1063 17.2303C24.8146 16.9313 24.4176 16.7582 24.0001 16.7481ZM20.3671 16.8691C20.3382 16.8706 20.311 16.8831 20.2911 16.9041C20.2713 16.9252 20.2605 16.9532 20.2611 16.9821C20.2596 16.9977 20.2614 17.0135 20.2664 17.0285C20.2714 17.0434 20.2794 17.0571 20.29 17.0687C20.3006 17.0804 20.3135 17.0897 20.3279 17.096C20.3423 17.1024 20.3578 17.1057 20.3736 17.1057C20.3893 17.1057 20.4049 17.1024 20.4193 17.096C20.4337 17.0897 20.4466 17.0804 20.4572 17.0687C20.4677 17.0571 20.4758 17.0434 20.4808 17.0285C20.4857 17.0135 20.4876 16.9977 20.4861 16.9821C20.4859 16.9665 20.4825 16.9512 20.4761 16.9371C20.4701 16.9228 20.4614 16.9099 20.4504 16.8991C20.4394 16.8883 20.4264 16.8798 20.4121 16.8741C20.3976 16.8692 20.3823 16.8675 20.3671 16.8691ZM27.6171 16.8691C27.5882 16.8706 27.561 16.8831 27.5411 16.9041C27.5213 16.9252 27.5105 16.9532 27.5111 16.9821C27.5096 16.9977 27.5114 17.0135 27.5164 17.0285C27.5214 17.0434 27.5294 17.0571 27.54 17.0687C27.5506 17.0804 27.5635 17.0897 27.5779 17.096C27.5923 17.1024 27.6078 17.1057 27.6236 17.1057C27.6393 17.1057 27.6549 17.1024 27.6693 17.096C27.6837 17.0897 27.6966 17.0804 27.7072 17.0687C27.7177 17.0571 27.7258 17.0434 27.7308 17.0285C27.7357 17.0135 27.7376 16.9977 27.7361 16.9821C27.7359 16.9665 27.7325 16.9512 27.7261 16.9371C27.7201 16.9228 27.7114 16.9099 27.7004 16.8991C27.6894 16.8883 27.6764 16.8798 27.6621 16.8741C27.6476 16.8692 27.6323 16.8675 27.6171 16.8691ZM24.0001 17.2131C24.3014 17.2133 24.5903 17.3329 24.8038 17.5455C25.0172 17.7582 25.1378 18.0468 25.1391 18.3481C25.1397 18.5732 25.0735 18.7935 24.9488 18.981C24.8242 19.1685 24.6467 19.3149 24.4389 19.4015C24.2311 19.4881 24.0022 19.5111 23.7813 19.4676C23.5604 19.4241 23.3573 19.3161 23.1978 19.1572C23.0383 18.9982 22.9296 18.7956 22.8853 18.5748C22.841 18.354 22.8632 18.1251 22.9491 17.917C23.035 17.7088 23.1807 17.5308 23.3678 17.4056C23.5549 17.2803 23.7749 17.2133 24.0001 17.2131ZM20.3671 17.4321C20.3448 17.4337 20.3235 17.4417 20.3058 17.4552C20.288 17.4687 20.2746 17.4871 20.2671 17.5081C20.2622 17.5221 20.2603 17.5369 20.2613 17.5517C20.2623 17.5665 20.2663 17.5809 20.2731 17.5941C20.2793 17.6073 20.2882 17.6192 20.2991 17.6291C20.3091 17.6391 20.3241 17.6461 20.3381 17.6501C20.3591 17.6572 20.3817 17.6581 20.4032 17.6526C20.4247 17.6471 20.4441 17.6354 20.4591 17.6191C20.4785 17.5963 20.4882 17.5669 20.4861 17.5371C20.4844 17.5072 20.4712 17.4792 20.4491 17.4591C20.4264 17.4396 20.3969 17.4299 20.3671 17.4321ZM27.6171 17.4321C27.5948 17.4337 27.5735 17.4417 27.5558 17.4552C27.538 17.4687 27.5246 17.4871 27.5171 17.5081C27.5122 17.5221 27.5103 17.5369 27.5113 17.5517C27.5123 17.5665 27.5163 17.5809 27.5231 17.5941C27.5293 17.6073 27.5382 17.6192 27.5491 17.6291C27.5591 17.6391 27.5741 17.6461 27.5881 17.6501C27.6091 17.6572 27.6317 17.6581 27.6532 17.6526C27.6747 17.6471 27.6941 17.6354 27.7091 17.6191C27.7285 17.5963 27.7382 17.5669 27.7361 17.5371C27.7344 17.5072 27.7212 17.4792 27.6991 17.4591C27.6764 17.4396 27.6469 17.4299 27.6171 17.4321ZM20.3671 17.9941C20.3521 17.9952 20.3375 17.9993 20.3241 18.0061C20.3109 18.012 20.299 18.0205 20.2891 18.0311C20.2795 18.0429 20.2724 18.0565 20.2681 18.0711C20.2632 18.0849 20.2612 18.0995 20.262 18.1141C20.2629 18.1287 20.2666 18.1429 20.2731 18.1561C20.2793 18.1694 20.2882 18.1813 20.2991 18.1911C20.3091 18.2011 20.3241 18.2081 20.3381 18.2131C20.3591 18.2202 20.3817 18.2211 20.4032 18.2156C20.4247 18.2101 20.4441 18.1984 20.4591 18.1821C20.4786 18.1594 20.4883 18.1299 20.4861 18.1001C20.4855 18.0851 20.4819 18.0704 20.4755 18.0569C20.4692 18.0433 20.4602 18.0311 20.4491 18.0211C20.4264 18.0016 20.3969 17.9919 20.3671 17.9941ZM27.6171 17.9941C27.6021 17.9952 27.5875 17.9993 27.5741 18.0061C27.5609 18.012 27.549 18.0205 27.5391 18.0311C27.5295 18.0429 27.5224 18.0565 27.5181 18.0711C27.5132 18.0849 27.5112 18.0995 27.512 18.1141C27.5129 18.1287 27.5166 18.1429 27.5231 18.1561C27.5293 18.1694 27.5382 18.1813 27.5491 18.1911C27.5591 18.2011 27.5741 18.2081 27.5881 18.2131C27.6091 18.2202 27.6317 18.2211 27.6532 18.2156C27.6747 18.2101 27.6941 18.1984 27.7091 18.1821C27.7286 18.1594 27.7383 18.1299 27.7361 18.1001C27.7355 18.0851 27.7319 18.0704 27.7255 18.0569C27.7192 18.0433 27.7102 18.0311 27.6991 18.0211C27.6764 18.0016 27.6469 17.9919 27.6171 17.9941ZM20.3671 18.5571C20.3448 18.5587 20.3235 18.5667 20.3058 18.5802C20.288 18.5937 20.2746 18.6121 20.2671 18.6331C20.2622 18.6471 20.2603 18.6619 20.2613 18.6767C20.2623 18.6915 20.2663 18.7059 20.2731 18.7191C20.2793 18.7323 20.2882 18.7442 20.2991 18.7541C20.3091 18.7641 20.3241 18.7711 20.3381 18.7751C20.3591 18.7822 20.3817 18.7831 20.4032 18.7776C20.4247 18.7721 20.4441 18.7604 20.4591 18.7441C20.4785 18.7213 20.4882 18.6919 20.4861 18.6621C20.4844 18.6322 20.4712 18.6042 20.4491 18.5841C20.4264 18.5646 20.3969 18.5549 20.3671 18.5571ZM27.6171 18.5571C27.5948 18.5587 27.5735 18.5667 27.5558 18.5802C27.538 18.5937 27.5246 18.6121 27.5171 18.6331C27.5122 18.6471 27.5103 18.6619 27.5113 18.6767C27.5123 18.6915 27.5163 18.7059 27.5231 18.7191C27.5293 18.7323 27.5382 18.7442 27.5491 18.7541C27.5591 18.7641 27.5741 18.7711 27.5881 18.7751C27.6091 18.7822 27.6317 18.7831 27.6532 18.7776C27.6747 18.7721 27.6941 18.7604 27.7091 18.7441C27.7285 18.7213 27.7382 18.6919 27.7361 18.6621C27.7344 18.6322 27.7212 18.6042 27.6991 18.5841C27.6764 18.5646 27.6469 18.5549 27.6171 18.5571ZM16.7231 18.7571C16.4064 18.7562 16.0967 18.8496 15.8333 19.0254C15.5699 19.2011 15.3648 19.4513 15.2441 19.7441C15.0824 20.1365 15.0828 20.5771 15.2454 20.9692C15.4079 21.3613 15.7192 21.673 16.1111 21.8361C16.4034 21.9576 16.7252 21.9893 17.0355 21.9274C17.3459 21.8654 17.6309 21.7125 17.8541 21.4881C18.0778 21.2644 18.2302 20.9795 18.292 20.6692C18.3537 20.3589 18.3221 20.0373 18.201 19.7451C18.0799 19.4528 17.8749 19.203 17.6118 19.0273C17.3487 18.8516 17.0394 18.7579 16.7231 18.7581V18.7571ZM31.2751 18.7571C31.0651 18.7571 30.8573 18.7985 30.6634 18.879C30.4694 18.9595 30.2933 19.0774 30.1451 19.2261C29.9579 19.4115 29.8196 19.6404 29.7424 19.8924C29.6653 20.1443 29.6517 20.4114 29.7029 20.6699C29.7541 20.9283 29.8685 21.1701 30.0358 21.3736C30.2032 21.5771 30.4184 21.736 30.6621 21.8361C30.9547 21.9566 31.2764 21.9878 31.5867 21.9259C31.897 21.864 32.1821 21.7116 32.4061 21.4881C32.6293 21.2643 32.7812 20.9795 32.8427 20.6695C32.9043 20.3594 32.8726 20.0382 32.7517 19.7461C32.6308 19.4541 32.4262 19.2044 32.1636 19.0286C31.9009 18.8527 31.5921 18.7586 31.2761 18.7581L31.2751 18.7571ZM20.3551 19.1191C20.3287 19.1228 20.3046 19.136 20.2871 19.1561C20.2702 19.177 20.2613 19.2032 20.2621 19.2301C20.2621 19.2531 20.2671 19.2741 20.2791 19.2931C20.2911 19.3121 20.3091 19.3251 20.3301 19.3341C20.3504 19.343 20.3729 19.3458 20.3947 19.3421C20.4166 19.3383 20.4369 19.3283 20.4531 19.3131C20.4689 19.2976 20.4797 19.2778 20.4841 19.2561C20.489 19.2337 20.4873 19.2104 20.4791 19.1891C20.4708 19.1683 20.4565 19.1505 20.4379 19.138C20.4193 19.1255 20.3974 19.1189 20.3751 19.1191H20.3551ZM27.6051 19.1191C27.5787 19.1228 27.5546 19.136 27.5371 19.1561C27.5202 19.177 27.5113 19.2032 27.5121 19.2301C27.5121 19.2531 27.5171 19.2741 27.5291 19.2931C27.5411 19.3121 27.5591 19.3251 27.5801 19.3341C27.6004 19.343 27.6229 19.3458 27.6447 19.3421C27.6666 19.3383 27.6869 19.3283 27.7031 19.3131C27.7189 19.2976 27.7297 19.2778 27.7341 19.2561C27.739 19.2337 27.7373 19.2104 27.7291 19.1891C27.7208 19.1683 27.7065 19.1505 27.6879 19.138C27.6693 19.1255 27.6474 19.1189 27.6251 19.1191H27.6051ZM16.7231 19.2191C17.025 19.2191 17.3146 19.339 17.5281 19.5525C17.7416 19.766 17.8616 20.0556 17.8616 20.3576C17.8616 20.6595 17.7416 20.9491 17.5281 21.1626C17.3146 21.3761 17.025 21.4961 16.7231 21.4961C16.0951 21.4961 15.5881 20.9861 15.5881 20.3571C15.5881 19.7291 16.0941 19.2191 16.7231 19.2191ZM31.2751 19.2191C31.5043 19.2117 31.7304 19.274 31.9236 19.3977C32.1167 19.5214 32.2679 19.7008 32.3571 19.9121C32.4167 20.0523 32.4475 20.203 32.4479 20.3554C32.4482 20.5077 32.418 20.6586 32.3591 20.7991C32.3 20.9391 32.2134 21.0658 32.1045 21.1718C31.9957 21.2777 31.8666 21.3608 31.7251 21.4161C31.5706 21.4766 31.4048 21.5026 31.2393 21.4923C31.0737 21.4821 30.9124 21.4357 30.7666 21.3565C30.6208 21.2773 30.4942 21.1672 30.3954 21.034C30.2967 20.9007 30.2283 20.7474 30.195 20.5849C30.1617 20.4224 30.1643 20.2546 30.2027 20.0932C30.2411 19.9318 30.3143 19.7808 30.4172 19.6506C30.5201 19.5205 30.6502 19.4145 30.7984 19.3399C30.9466 19.2654 31.1093 19.2241 31.2751 19.2191ZM20.3771 19.6791C20.3471 19.6791 20.3181 19.6891 20.2971 19.7111C20.2866 19.7216 20.2783 19.7341 20.2726 19.7478C20.267 19.7615 20.2641 19.7762 20.2641 19.7911C20.2641 19.8211 20.2741 19.8501 20.2941 19.8711C20.31 19.887 20.3302 19.8979 20.3523 19.9023C20.3744 19.9068 20.3972 19.9046 20.4181 19.8961C20.4319 19.8908 20.4446 19.8827 20.4552 19.8724C20.4659 19.8621 20.4743 19.8497 20.4801 19.8361C20.4855 19.8224 20.4883 19.8078 20.4881 19.7931C20.4884 19.7783 20.4859 19.7637 20.4805 19.75C20.4752 19.7363 20.4673 19.7237 20.4571 19.7131C20.4464 19.7027 20.4339 19.6946 20.4201 19.6891C20.4066 19.6829 20.3919 19.6795 20.3771 19.6791ZM27.6271 19.6791C27.6123 19.6791 27.5976 19.6822 27.5841 19.6881C27.57 19.6933 27.5572 19.7013 27.5464 19.7116C27.5356 19.7219 27.5269 19.7343 27.5211 19.7481C27.5159 19.7618 27.5135 19.7764 27.5141 19.7911C27.5141 19.8061 27.5161 19.8211 27.5211 19.8341C27.5266 19.8479 27.5347 19.8604 27.5451 19.8711C27.5551 19.8811 27.5681 19.8911 27.5821 19.8961C27.5957 19.9015 27.6104 19.9043 27.6251 19.9041C27.6474 19.9045 27.6693 19.8982 27.688 19.8861C27.7067 19.874 27.7213 19.8566 27.7301 19.8361C27.7355 19.8224 27.7383 19.8078 27.7381 19.7931C27.7384 19.7783 27.7359 19.7637 27.7305 19.75C27.7252 19.7363 27.7172 19.7237 27.7071 19.7131C27.6964 19.7027 27.6839 19.6946 27.6701 19.6891C27.6566 19.6829 27.6419 19.6795 27.6271 19.6791ZM20.3671 20.2421C20.3388 20.2438 20.3123 20.2563 20.2931 20.2771C20.2829 20.2874 20.2749 20.2997 20.2695 20.3131C20.2641 20.3266 20.2615 20.341 20.2616 20.3555C20.2618 20.37 20.2649 20.3843 20.2706 20.3976C20.2764 20.4109 20.2847 20.423 20.2951 20.4331C20.3053 20.4437 20.3176 20.4521 20.3312 20.4578C20.3448 20.4636 20.3593 20.4665 20.3741 20.4665C20.3888 20.4665 20.4034 20.4636 20.417 20.4578C20.4305 20.4521 20.4428 20.4437 20.4531 20.4331C20.4689 20.4175 20.4797 20.3976 20.484 20.3758C20.4883 20.354 20.4858 20.3315 20.4771 20.3111C20.4711 20.2968 20.4624 20.2839 20.4514 20.2731C20.4404 20.2623 20.4274 20.2538 20.4131 20.2481C20.3984 20.2428 20.3827 20.2407 20.3671 20.2421ZM27.6171 20.2421C27.5888 20.2438 27.5623 20.2563 27.5431 20.2771C27.5329 20.2874 27.5249 20.2997 27.5195 20.3131C27.5141 20.3266 27.5115 20.341 27.5116 20.3555C27.5118 20.37 27.5149 20.3843 27.5206 20.3976C27.5264 20.4109 27.5347 20.423 27.5451 20.4331C27.5553 20.4437 27.5676 20.4521 27.5812 20.4578C27.5948 20.4636 27.6093 20.4665 27.6241 20.4665C27.6388 20.4665 27.6534 20.4636 27.667 20.4578C27.6805 20.4521 27.6928 20.4437 27.7031 20.4331C27.7189 20.4175 27.7297 20.3976 27.734 20.3758C27.7383 20.354 27.7358 20.3315 27.7271 20.3111C27.7211 20.2968 27.7124 20.2839 27.7014 20.2731C27.6904 20.2623 27.6774 20.2538 27.6631 20.2481C27.6484 20.2428 27.6327 20.2407 27.6171 20.2421ZM24.0001 20.5841C23.7898 20.5839 23.5815 20.6253 23.3872 20.7058C23.1929 20.7863 23.0163 20.9043 22.8677 21.0531C22.7191 21.2019 22.6013 21.3786 22.521 21.573C22.4408 21.7674 22.3997 21.9757 22.4001 22.1861C22.3998 22.3963 22.441 22.6044 22.5213 22.7987C22.6017 22.9929 22.7195 23.1694 22.8681 23.318C23.0167 23.4667 23.1932 23.5845 23.3875 23.6648C23.5817 23.7451 23.7899 23.7863 24.0001 23.7861C24.3094 23.7748 24.6088 23.6742 24.8622 23.4964C25.1155 23.3187 25.312 23.0714 25.4279 22.7844C25.5438 22.4974 25.5742 22.183 25.5153 21.8791C25.4564 21.5753 25.3108 21.295 25.0961 21.0721C24.8075 20.7741 24.4146 20.5999 24.0001 20.5861V20.5841ZM20.3671 20.8041C20.3381 20.8058 20.3108 20.8187 20.2911 20.8401C20.2713 20.8612 20.2605 20.8892 20.2611 20.9181C20.2611 20.9801 20.3121 21.0311 20.3751 21.0291C20.4051 21.0291 20.4351 21.0171 20.4551 20.9961C20.4652 20.9858 20.4731 20.9736 20.4785 20.9602C20.4838 20.9468 20.4864 20.9325 20.4861 20.9181C20.4861 20.8881 20.4761 20.8581 20.4561 20.8381C20.4445 20.8265 20.4305 20.8176 20.4152 20.8119C20.3998 20.8062 20.3834 20.8039 20.3671 20.8051V20.8041ZM27.6171 20.8041C27.5881 20.8058 27.5608 20.8187 27.5411 20.8401C27.5213 20.8612 27.5105 20.8892 27.5111 20.9181C27.5111 20.9801 27.5621 21.0311 27.6251 21.0291C27.6551 21.0291 27.6851 21.0171 27.7051 20.9961C27.7152 20.9858 27.7231 20.9736 27.7285 20.9602C27.7338 20.9468 27.7364 20.9325 27.7361 20.9181C27.7361 20.8881 27.7261 20.8581 27.7061 20.8381C27.6945 20.8265 27.6805 20.8176 27.6652 20.8119C27.6498 20.8062 27.6334 20.8039 27.6171 20.8051V20.8041ZM24.0001 21.0481C24.2257 21.047 24.4465 21.1131 24.6344 21.238C24.8223 21.3628 24.9687 21.5408 25.0551 21.7492C25.1414 21.9577 25.1637 22.1871 25.1192 22.4082C25.0747 22.6294 24.9653 22.8323 24.8051 22.9911C24.6993 23.0966 24.5738 23.1803 24.4357 23.2373C24.2975 23.2942 24.1495 23.3234 24.0001 23.3231C23.779 23.3171 23.5645 23.2469 23.3827 23.1209C23.201 22.9949 23.0599 22.8187 22.9768 22.6137C22.8937 22.4088 22.8722 22.1841 22.9149 21.9671C22.9576 21.7501 23.0626 21.5503 23.2171 21.3921C23.4231 21.1791 23.7041 21.0571 24.0001 21.0481ZM20.3671 21.3681C20.3386 21.3705 20.3121 21.3837 20.2931 21.4051C20.2776 21.421 20.2673 21.4411 20.2633 21.4629C20.2593 21.4846 20.2618 21.5071 20.2706 21.5275C20.2794 21.5478 20.294 21.5651 20.3126 21.5771C20.3312 21.5891 20.3529 21.5954 20.3751 21.5951C20.4051 21.5948 20.4339 21.5827 20.455 21.5613C20.4762 21.54 20.4881 21.5111 20.4881 21.4811C20.488 21.4657 20.4847 21.4504 20.4786 21.4363C20.4724 21.4222 20.4634 21.4095 20.4522 21.3989C20.441 21.3884 20.4278 21.3802 20.4133 21.3749C20.3989 21.3696 20.3835 21.3673 20.3681 21.3681H20.3671ZM27.6171 21.3681C27.5886 21.3705 27.5621 21.3837 27.5431 21.4051C27.5276 21.421 27.5173 21.4411 27.5133 21.4629C27.5093 21.4846 27.5118 21.5071 27.5206 21.5275C27.5294 21.5478 27.544 21.5651 27.5626 21.5771C27.5812 21.5891 27.6029 21.5954 27.6251 21.5951C27.6551 21.5948 27.6839 21.5827 27.705 21.5613C27.7262 21.54 27.7381 21.5111 27.7381 21.4811C27.738 21.4657 27.7347 21.4504 27.7286 21.4363C27.7224 21.4222 27.7134 21.4095 27.7022 21.3989C27.691 21.3884 27.6778 21.3802 27.6633 21.3749C27.6489 21.3696 27.6335 21.3673 27.6181 21.3681H27.6171ZM20.3671 21.9331C20.3522 21.9335 20.3376 21.9369 20.3241 21.9431C20.2979 21.9565 20.2779 21.9794 20.2681 22.0071C20.263 22.021 20.2609 22.0359 20.2619 22.0507C20.263 22.0655 20.2671 22.08 20.2741 22.0931C20.28 22.1063 20.2885 22.1181 20.2991 22.1281C20.3091 22.1381 20.3241 22.1451 20.3381 22.1491C20.3591 22.1562 20.3817 22.1571 20.4032 22.1516C20.4247 22.1461 20.4441 22.1345 20.4591 22.1181C20.4782 22.0956 20.4878 22.0665 20.486 22.0371C20.4841 22.0076 20.4709 21.98 20.4491 21.9601C20.4264 21.9406 20.3969 21.9309 20.3671 21.9331ZM27.6171 21.9331C27.6022 21.9335 27.5876 21.9369 27.5741 21.9431C27.5479 21.9565 27.5279 21.9794 27.5181 22.0071C27.513 22.021 27.5109 22.0359 27.5119 22.0507C27.513 22.0655 27.5171 22.08 27.5241 22.0931C27.5301 22.1063 27.5385 22.1181 27.5491 22.1281C27.5591 22.1381 27.5741 22.1451 27.5881 22.1491C27.6091 22.1562 27.6317 22.1571 27.6532 22.1516C27.6747 22.1461 27.6941 22.1345 27.7091 22.1181C27.7282 22.0956 27.7378 22.0665 27.736 22.0371C27.7341 22.0076 27.7209 21.98 27.6991 21.9601C27.6764 21.9406 27.6469 21.9309 27.6171 21.9331ZM20.3671 22.4931C20.3448 22.4947 20.3235 22.5027 20.3058 22.5162C20.288 22.5297 20.2746 22.5481 20.2671 22.5691C20.2622 22.5831 20.2603 22.5979 20.2613 22.6127C20.2623 22.6275 20.2663 22.6419 20.2731 22.6551C20.2793 22.6683 20.2882 22.6802 20.2991 22.6901C20.3091 22.7001 20.3241 22.7071 20.3381 22.7121C20.3591 22.7192 20.3817 22.7201 20.4032 22.7146C20.4247 22.7091 20.4441 22.6975 20.4591 22.6811C20.4785 22.6585 20.4883 22.6292 20.4865 22.5995C20.4846 22.5698 20.4712 22.542 20.4491 22.5221C20.4266 22.502 20.3972 22.4916 20.3671 22.4931ZM27.6171 22.4931C27.5948 22.4947 27.5735 22.5027 27.5558 22.5162C27.538 22.5297 27.5246 22.5481 27.5171 22.5691C27.5122 22.5831 27.5103 22.5979 27.5113 22.6127C27.5123 22.6275 27.5163 22.6419 27.5231 22.6551C27.5293 22.6683 27.5382 22.6802 27.5491 22.6901C27.5591 22.7001 27.5741 22.7071 27.5881 22.7121C27.6091 22.7192 27.6317 22.7201 27.6532 22.7146C27.6747 22.7091 27.6941 22.6975 27.7091 22.6811C27.7285 22.6585 27.7383 22.6292 27.7365 22.5995C27.7346 22.5698 27.7212 22.542 27.6991 22.5221C27.6766 22.502 27.6472 22.4916 27.6171 22.4931ZM16.7231 22.5951V22.5971C16.5098 22.5917 16.2976 22.629 16.0989 22.7068C15.9002 22.7846 15.719 22.9013 15.5661 23.0501C15.3355 23.2745 15.1779 23.5633 15.114 23.8786C15.0501 24.194 15.0827 24.5213 15.2076 24.8178C15.3326 25.1144 15.544 25.3664 15.8144 25.5409C16.0847 25.7154 16.4014 25.8043 16.7231 25.7961C16.9334 25.7962 17.1417 25.7548 17.336 25.6744C17.5303 25.5939 17.7068 25.4758 17.8555 25.327C18.0041 25.1782 18.1219 25.0015 18.2021 24.8071C18.2824 24.6127 18.3235 24.4044 18.3231 24.1941C18.3232 23.9839 18.2819 23.7758 18.2016 23.5816C18.1212 23.3874 18.0033 23.211 17.8547 23.0624C17.7061 22.9138 17.5297 22.796 17.3355 22.7156C17.1413 22.6352 16.9332 22.5939 16.7231 22.5941V22.5951ZM31.2751 22.5951V22.5971C30.9538 22.589 30.6375 22.6778 30.3673 22.8518C30.0971 23.0259 29.8856 23.2772 29.7601 23.5731C29.636 23.8697 29.6037 24.1967 29.6673 24.5118C29.731 24.827 29.8876 25.1158 30.1171 25.3411C30.2701 25.4902 30.4513 25.6073 30.6502 25.6854C30.849 25.7636 31.0615 25.8012 31.2751 25.7961C31.592 25.7968 31.9021 25.7033 32.1658 25.5275C32.4295 25.3516 32.635 25.1014 32.7562 24.8085C32.8774 24.5156 32.9089 24.1933 32.8465 23.8825C32.7842 23.5718 32.6309 23.2865 32.4061 23.0631C32.1061 22.7631 31.7001 22.5951 31.2761 22.5951H31.2751ZM20.3671 23.0551C20.3447 23.0568 20.3233 23.0649 20.3056 23.0786C20.2878 23.0923 20.2744 23.1109 20.2671 23.1321C20.2622 23.1461 20.2603 23.1609 20.2613 23.1757C20.2623 23.1905 20.2663 23.2049 20.2731 23.2181C20.2793 23.2314 20.2882 23.2433 20.2991 23.2531C20.3091 23.2631 20.3241 23.2701 20.3381 23.2741C20.3591 23.2812 20.3817 23.2821 20.4032 23.2766C20.4247 23.2711 20.4441 23.2595 20.4591 23.2431C20.4782 23.2206 20.4878 23.1915 20.486 23.1621C20.4841 23.1326 20.4709 23.105 20.4491 23.0851C20.4264 23.0656 20.3969 23.0559 20.3671 23.0581V23.0561V23.0551ZM27.6171 23.0551C27.5868 23.0576 27.5588 23.072 27.5391 23.0951C27.5197 23.1175 27.5099 23.1466 27.5118 23.1761C27.5137 23.2057 27.527 23.2333 27.5491 23.2531C27.5711 23.2731 27.6011 23.2831 27.6311 23.2801C27.6609 23.2784 27.6889 23.2652 27.7091 23.2431C27.7282 23.2206 27.7378 23.1915 27.736 23.1621C27.7341 23.1326 27.7209 23.105 27.6991 23.0851C27.6764 23.0656 27.6469 23.0559 27.6171 23.0581V23.0561V23.0551ZM16.7231 23.0601C16.8753 23.0554 17.0269 23.0812 17.1689 23.1362C17.3109 23.1911 17.4405 23.274 17.5499 23.38C17.6593 23.4859 17.7463 23.6127 17.8058 23.7529C17.8653 23.8931 17.8961 24.0437 17.8963 24.196C17.8965 24.3483 17.8661 24.4991 17.807 24.6394C17.7478 24.7797 17.6612 24.9068 17.552 25.013C17.4429 25.1192 17.3136 25.2024 17.1717 25.2578C17.0298 25.3131 16.8783 25.3394 16.7261 25.3351C16.4302 25.3267 16.1493 25.2034 15.9428 24.9913C15.7364 24.7792 15.6207 24.495 15.6203 24.199C15.6199 23.903 15.7348 23.6186 15.9407 23.4059C16.1466 23.1933 16.4272 23.0692 16.7231 23.0601ZM31.2751 23.0601C31.5764 23.0601 31.8654 23.1793 32.0791 23.3918C32.2927 23.6043 32.4135 23.8928 32.4151 24.1941C32.4159 24.4192 32.3498 24.6396 32.2254 24.8272C32.1009 25.0148 31.9236 25.1613 31.7158 25.2481C31.5081 25.3349 31.2792 25.3581 31.0583 25.3148C30.8373 25.2715 30.6342 25.1637 30.4745 25.0049C30.3149 24.8461 30.206 24.6435 30.1615 24.4228C30.117 24.2021 30.139 23.9731 30.2248 23.7649C30.3105 23.5567 30.456 23.3786 30.643 23.2531C30.8299 23.1276 31.0499 23.0605 31.2751 23.0601ZM20.3551 23.6181C20.3283 23.6228 20.3042 23.637 20.2871 23.6581C20.2704 23.6787 20.2616 23.7046 20.2621 23.7311C20.2602 23.7471 20.2616 23.7634 20.2662 23.7789C20.2709 23.7944 20.2787 23.8087 20.2891 23.8211C20.2991 23.8331 20.3131 23.8421 20.3291 23.8491C20.351 23.8584 20.3752 23.8608 20.3985 23.8558C20.4218 23.8507 20.443 23.8386 20.4591 23.8211C20.4694 23.8087 20.4771 23.7943 20.4818 23.7788C20.4864 23.7634 20.4879 23.7471 20.4861 23.7311C20.4858 23.7015 20.4741 23.6732 20.4534 23.6521C20.4327 23.6311 20.4046 23.6188 20.3751 23.6181H20.3551ZM27.6051 23.6181C27.5783 23.6228 27.5542 23.637 27.5371 23.6581C27.5204 23.6787 27.5116 23.7046 27.5121 23.7311C27.5102 23.7471 27.5116 23.7634 27.5162 23.7789C27.5209 23.7944 27.5287 23.8087 27.5391 23.8211C27.5491 23.8331 27.5631 23.8421 27.5791 23.8491C27.601 23.8584 27.6252 23.8608 27.6485 23.8558C27.6718 23.8507 27.693 23.8386 27.7091 23.8211C27.7194 23.8087 27.7271 23.7943 27.7318 23.7788C27.7364 23.7634 27.7379 23.7471 27.7361 23.7311C27.7358 23.7015 27.7241 23.6732 27.7034 23.6521C27.6827 23.6311 27.6546 23.6188 27.6251 23.6181H27.6051ZM20.3551 24.1831C20.3287 24.1868 20.3046 24.2 20.2871 24.2201C20.2702 24.241 20.2613 24.2672 20.2621 24.2941C20.2621 24.3561 20.3121 24.4041 20.3751 24.4041C20.4361 24.4041 20.4851 24.3541 20.4861 24.2941C20.4861 24.2646 20.4744 24.2364 20.4536 24.2156C20.4328 24.1948 20.4045 24.1831 20.3751 24.1831H20.3551ZM27.6051 24.1831C27.5787 24.1868 27.5546 24.2 27.5371 24.2201C27.5202 24.241 27.5113 24.2672 27.5121 24.2941C27.5121 24.3561 27.5621 24.4041 27.6251 24.4041C27.6861 24.4041 27.7351 24.3541 27.7361 24.2941C27.7361 24.2646 27.7244 24.2364 27.7036 24.2156C27.6828 24.1948 27.6545 24.1831 27.6251 24.1831H27.6051ZM24.0001 24.4201C23.7865 24.4147 23.574 24.4521 23.3751 24.5301C23.1765 24.6082 22.9956 24.7252 22.8429 24.8743C22.6902 25.0233 22.5689 25.2014 22.4861 25.3981C22.4026 25.5948 22.3594 25.8063 22.3591 26.0201C22.3595 26.2335 22.4027 26.4446 22.486 26.6411C22.5693 26.8375 22.691 27.0154 22.8441 27.1641C22.9962 27.3137 23.1768 27.4313 23.3751 27.5101C23.6178 27.6051 23.88 27.6394 24.139 27.6102C24.398 27.5809 24.646 27.4889 24.8614 27.3421C25.0767 27.1952 25.253 26.9981 25.375 26.7677C25.4969 26.5374 25.5608 26.2807 25.5611 26.0201C25.5612 25.6024 25.398 25.2012 25.1063 24.9023C24.8146 24.6033 24.4176 24.4303 24.0001 24.4201ZM20.3671 24.7401C20.3375 24.7412 20.3096 24.7537 20.2891 24.7751C20.2791 24.7856 20.2713 24.798 20.2661 24.8115C20.261 24.8251 20.2586 24.8396 20.2591 24.8541C20.2601 24.8831 20.2721 24.9111 20.2931 24.9321C20.3131 24.9521 20.3421 24.9651 20.3711 24.9651C20.4004 24.9646 20.4283 24.9527 20.449 24.932C20.4697 24.9113 20.4816 24.8833 20.4821 24.8541C20.4821 24.8241 20.4731 24.7971 20.4531 24.7751C20.442 24.7635 20.4286 24.7544 20.4138 24.7484C20.399 24.7424 20.3831 24.7395 20.3671 24.7401ZM27.6171 24.7401C27.5875 24.7412 27.5596 24.7537 27.5391 24.7751C27.5291 24.7856 27.5213 24.798 27.5161 24.8115C27.511 24.8251 27.5086 24.8396 27.5091 24.8541C27.5101 24.8831 27.5221 24.9111 27.5431 24.9321C27.5631 24.9521 27.5921 24.9651 27.6211 24.9651C27.6504 24.9646 27.6783 24.9527 27.699 24.932C27.7197 24.9113 27.7316 24.8833 27.7321 24.8541C27.7321 24.8241 27.7231 24.7971 27.7031 24.7751C27.692 24.7635 27.6786 24.7544 27.6638 24.7484C27.649 24.7424 27.6331 24.7395 27.6171 24.7401ZM24.0001 24.8831C24.3017 24.8833 24.591 25.0031 24.8045 25.2163C25.018 25.4294 25.1383 25.7184 25.1391 26.0201C25.1394 26.1691 25.1103 26.3166 25.0533 26.4543C24.9963 26.5919 24.9126 26.7169 24.8071 26.8221C24.5939 27.0349 24.3053 27.1549 24.0041 27.1561C23.7085 27.1478 23.4277 27.0248 23.2213 26.8129C23.015 26.6011 22.8993 26.3172 22.8987 26.0215C22.8982 25.7258 23.0129 25.4415 23.2185 25.229C23.4242 25.0164 23.7045 24.8923 24.0001 24.8831ZM20.3671 25.3031C20.3388 25.3048 20.3123 25.3173 20.2931 25.3381C20.2733 25.3592 20.2622 25.3871 20.2621 25.4161C20.2621 25.4781 20.3121 25.5291 20.3751 25.5271C20.4007 25.5261 20.4253 25.5163 20.4446 25.4994C20.4639 25.4824 20.4768 25.4594 20.4811 25.4341C20.4854 25.4088 20.481 25.3827 20.4684 25.3603C20.4558 25.3379 20.4359 25.3206 20.4121 25.3111C20.3978 25.3053 20.3825 25.3025 20.3671 25.3031ZM27.6171 25.3031C27.5888 25.3048 27.5623 25.3173 27.5431 25.3381C27.5233 25.3592 27.5122 25.3871 27.5121 25.4161C27.5121 25.4781 27.5621 25.5291 27.6251 25.5271C27.6507 25.5261 27.6753 25.5163 27.6946 25.4994C27.7139 25.4824 27.7268 25.4594 27.7311 25.4341C27.7354 25.4088 27.731 25.3827 27.7184 25.3603C27.7058 25.3379 27.6859 25.3206 27.6621 25.3111C27.6478 25.3053 27.6325 25.3025 27.6171 25.3031ZM20.3671 25.8651C20.3382 25.8666 20.311 25.8791 20.2911 25.9001C20.2711 25.9214 20.2603 25.9498 20.2611 25.9791C20.2611 26.0411 20.3121 26.0921 20.3751 26.0891C20.4361 26.0891 20.4851 26.0411 20.4861 25.9791C20.4859 25.9635 20.4825 25.9482 20.4761 25.9341C20.4701 25.9198 20.4614 25.9069 20.4504 25.8961C20.4394 25.8853 20.4264 25.8768 20.4121 25.8711C20.3977 25.8659 20.3823 25.8638 20.3671 25.8651ZM27.6171 25.8651C27.5882 25.8666 27.561 25.8791 27.5411 25.9001C27.5211 25.9214 27.5103 25.9498 27.5111 25.9791C27.5111 26.0411 27.5621 26.0921 27.6251 26.0891C27.6861 26.0891 27.7351 26.0411 27.7361 25.9791C27.7359 25.9635 27.7325 25.9482 27.7261 25.9341C27.7201 25.9198 27.7114 25.9069 27.7004 25.8961C27.6894 25.8853 27.6764 25.8768 27.6621 25.8711C27.6477 25.8659 27.6323 25.8638 27.6171 25.8651ZM20.3671 26.4281C20.3524 26.4284 20.3379 26.4317 20.3245 26.4377C20.3111 26.4437 20.2991 26.4523 20.2891 26.4631C20.279 26.4738 20.2712 26.4863 20.2661 26.5001C20.259 26.5212 20.258 26.544 20.2631 26.5657C20.2682 26.5874 20.2793 26.6073 20.2951 26.6231C20.3058 26.6328 20.3184 26.6402 20.3321 26.6451C20.3458 26.6502 20.3604 26.6525 20.3751 26.6521C20.4047 26.6512 20.4327 26.6386 20.4531 26.6171C20.4731 26.5948 20.4836 26.5657 20.4825 26.5359C20.4814 26.506 20.4687 26.4777 20.4471 26.4571C20.4364 26.447 20.4238 26.4391 20.4101 26.434C20.3964 26.4288 20.3817 26.4265 20.3671 26.4271V26.4281ZM27.6171 26.4281C27.6024 26.4284 27.5879 26.4317 27.5745 26.4377C27.5611 26.4437 27.5491 26.4523 27.5391 26.4631C27.529 26.4738 27.5212 26.4863 27.5161 26.5001C27.509 26.5212 27.508 26.544 27.5131 26.5657C27.5182 26.5874 27.5293 26.6073 27.5451 26.6231C27.5558 26.6328 27.5684 26.6402 27.5821 26.6451C27.5958 26.6502 27.6104 26.6525 27.6251 26.6521C27.6547 26.6512 27.6827 26.6386 27.7031 26.6171C27.7231 26.5948 27.7336 26.5657 27.7325 26.5359C27.7314 26.506 27.7187 26.4777 27.6971 26.4571C27.6864 26.447 27.6738 26.4391 27.6601 26.434C27.6464 26.4288 27.6317 26.4265 27.6171 26.4271V26.4281ZM16.7231 26.4301C16.5098 26.4254 16.2978 26.4633 16.0994 26.5416C15.901 26.6199 15.7202 26.7369 15.5676 26.8859C15.415 27.0349 15.2936 27.2128 15.2106 27.4093C15.1276 27.6057 15.0846 27.8168 15.0841 28.0301C15.0839 28.2435 15.1264 28.4548 15.2092 28.6515C15.292 28.8482 15.4134 29.0264 15.5662 29.1754C15.7189 29.3245 15.9 29.4414 16.0987 29.5193C16.2974 29.5972 16.5097 29.6345 16.7231 29.6291C17.1474 29.6291 17.5544 29.4605 17.8544 29.1604C18.1545 28.8604 18.3231 28.4534 18.3231 28.0291C18.3231 27.6047 18.1545 27.1978 17.8544 26.8977C17.5544 26.5976 17.1474 26.4291 16.7231 26.4291V26.4301ZM31.2751 26.4301C30.9516 26.4184 30.6321 26.5053 30.3591 26.6793C30.0861 26.8532 29.8723 27.1059 29.7461 27.4041C29.6617 27.6019 29.6181 27.8147 29.6179 28.0297C29.6177 28.2448 29.6609 28.4576 29.745 28.6556C29.829 28.8535 29.9521 29.0325 30.107 29.1817C30.2618 29.3309 30.4452 29.4474 30.6461 29.5241C30.9864 29.6567 31.3619 29.6688 31.7101 29.5582C32.0582 29.4477 32.3579 29.2212 32.5594 28.9165C32.7609 28.6118 32.8518 28.2473 32.8172 27.8837C32.7826 27.52 32.6244 27.1793 32.3691 26.9181C32.0815 26.6197 31.6892 26.4447 31.2751 26.4301ZM16.7231 26.8901C16.91 26.8897 17.0941 26.9355 17.2591 27.0233C17.4241 27.1112 17.5649 27.2384 17.669 27.3937C17.773 27.549 17.8372 27.7276 17.8557 27.9136C17.8742 28.0996 17.8465 28.2873 17.7751 28.4601C17.6896 28.6684 17.5442 28.8467 17.3573 28.9722C17.1703 29.0977 16.9503 29.1649 16.7251 29.1651C16.4239 29.1643 16.1354 29.0444 15.9223 28.8315C15.7093 28.6187 15.5891 28.3302 15.5881 28.0291C15.5878 27.7277 15.7072 27.4385 15.92 27.2251C16.1329 27.0118 16.4217 26.8916 16.7231 26.8911V26.8901ZM31.2751 26.8901C31.4246 26.8898 31.5727 26.919 31.7109 26.976C31.8491 27.0329 31.9748 27.1166 32.0807 27.2221C32.1866 27.3276 32.2707 27.453 32.3281 27.591C32.3856 27.7291 32.4153 27.8771 32.4156 28.0266C32.4158 28.1761 32.3867 28.3242 32.3297 28.4624C32.2727 28.6006 32.1891 28.7263 32.0835 28.8322C31.978 28.9381 31.8526 29.0222 31.7146 29.0796C31.5766 29.1371 31.4286 29.1668 31.2791 29.1671C30.9773 29.1676 30.6876 29.0482 30.4738 28.8352C30.26 28.6221 30.1396 28.3329 30.1391 28.0311C30.1385 27.7293 30.2579 27.4396 30.471 27.2258C30.684 27.012 30.9733 26.8916 31.2751 26.8911V26.8901ZM20.3671 26.9901C20.3521 26.9912 20.3375 26.9953 20.3241 27.0021C20.3109 27.008 20.299 27.0165 20.2891 27.0271C20.2795 27.0389 20.2724 27.0525 20.2681 27.0671C20.2632 27.0809 20.2612 27.0955 20.262 27.1101C20.2629 27.1247 20.2666 27.1389 20.2731 27.1521C20.2793 27.1654 20.2882 27.1773 20.2991 27.1871C20.3091 27.1971 20.3241 27.2041 20.3381 27.2091C20.3591 27.2162 20.3817 27.2171 20.4032 27.2116C20.4247 27.2061 20.4441 27.1945 20.4591 27.1781C20.4786 27.1554 20.4883 27.1259 20.4861 27.0961C20.4846 27.0662 20.4712 27.0381 20.4491 27.0181C20.4379 27.0082 20.4249 27.0007 20.4109 26.9959C20.3968 26.9911 20.3819 26.9891 20.3671 26.9901ZM27.6171 26.9901C27.6021 26.9912 27.5875 26.9953 27.5741 27.0021C27.5609 27.008 27.549 27.0165 27.5391 27.0271C27.5295 27.0389 27.5224 27.0525 27.5181 27.0671C27.5132 27.0809 27.5112 27.0955 27.512 27.1101C27.5129 27.1247 27.5166 27.1389 27.5231 27.1521C27.5293 27.1654 27.5382 27.1773 27.5491 27.1871C27.5591 27.1971 27.5741 27.2041 27.5881 27.2091C27.6091 27.2162 27.6317 27.2171 27.6532 27.2116C27.6747 27.2061 27.6941 27.1945 27.7091 27.1781C27.7286 27.1554 27.7383 27.1259 27.7361 27.0961C27.7346 27.0662 27.7212 27.0381 27.6991 27.0181C27.6879 27.0082 27.6749 27.0007 27.6609 26.9959C27.6468 26.9911 27.6319 26.9891 27.6171 26.9901ZM20.3671 27.5531C20.3403 27.5578 20.3162 27.572 20.2991 27.5931C20.2814 27.614 20.2721 27.6407 20.2731 27.6681C20.2741 27.6951 20.2831 27.7221 20.3031 27.7421C20.3221 27.7621 20.3481 27.7751 20.3751 27.7771C20.3901 27.7771 20.4051 27.7741 20.4181 27.7671C20.4453 27.7547 20.4665 27.732 20.4771 27.7041C20.4836 27.6829 20.4843 27.6604 20.479 27.6389C20.4737 27.6174 20.4627 27.5978 20.4471 27.5821C20.4363 27.5727 20.4237 27.5655 20.4101 27.5611C20.3964 27.5556 20.3818 27.5528 20.3671 27.5531ZM27.6171 27.5531C27.5903 27.5578 27.5662 27.572 27.5491 27.5931C27.5314 27.614 27.5221 27.6407 27.5231 27.6681C27.5241 27.6951 27.5331 27.7221 27.5531 27.7421C27.5721 27.7621 27.5981 27.7751 27.6251 27.7771C27.6401 27.7771 27.6551 27.7741 27.6681 27.7671C27.6953 27.7547 27.7165 27.732 27.7271 27.7041C27.7336 27.6829 27.7343 27.6604 27.729 27.6389C27.7237 27.6174 27.7127 27.5978 27.6971 27.5821C27.6863 27.5727 27.6737 27.5655 27.6601 27.5611C27.6464 27.5556 27.6318 27.5528 27.6171 27.5531ZM20.3551 28.1151C20.3283 28.1198 20.3042 28.134 20.2871 28.1551C20.2695 28.1769 20.2605 28.2045 20.262 28.2326C20.2635 28.2607 20.2753 28.2872 20.2951 28.3071C20.3151 28.3271 20.3451 28.3401 20.3751 28.3401C20.3896 28.34 20.404 28.337 20.4174 28.3314C20.4308 28.3257 20.4429 28.3174 20.4531 28.3071C20.4742 28.2858 20.486 28.257 20.4861 28.2271C20.4861 28.1651 20.4361 28.1171 20.3751 28.1151H20.3551ZM27.6051 28.1151C27.5783 28.1198 27.5542 28.134 27.5371 28.1551C27.5195 28.1769 27.5105 28.2045 27.512 28.2326C27.5135 28.2607 27.5253 28.2872 27.5451 28.3071C27.5651 28.3271 27.5951 28.3401 27.6251 28.3401C27.6396 28.34 27.654 28.337 27.6674 28.3314C27.6808 28.3257 27.6929 28.3174 27.7031 28.3071C27.7242 28.2858 27.736 28.257 27.7361 28.2271C27.7361 28.1651 27.6861 28.1171 27.6251 28.1151H27.6051ZM24.0001 28.2551C23.576 28.2551 23.1693 28.4235 22.8694 28.7234C22.5695 29.0233 22.4011 29.43 22.4011 29.8541C22.4011 30.2782 22.5695 30.6849 22.8694 30.9847C23.1693 31.2846 23.576 31.4531 24.0001 31.4531C24.4171 31.4426 24.8135 31.2696 25.1048 30.971C25.3961 30.6724 25.5591 30.2717 25.5591 29.8546C25.5591 29.4374 25.3961 29.0368 25.1048 28.7381C24.8135 28.4395 24.4171 28.2665 24.0001 28.2561V28.2551ZM20.3771 28.6751C20.3623 28.6751 20.3476 28.6782 20.3341 28.6841C20.32 28.6893 20.3072 28.6973 20.2964 28.7076C20.2856 28.7179 20.2769 28.7303 20.2711 28.7441C20.2659 28.7578 20.2635 28.7724 20.2641 28.7871C20.2641 28.8021 20.2661 28.8171 20.2711 28.8301C20.2766 28.8439 20.2847 28.8564 20.2951 28.8671C20.3051 28.8771 20.3181 28.8871 20.3321 28.8931C20.3458 28.8982 20.3604 28.9006 20.3751 28.9001C20.4051 28.9001 20.4341 28.8901 20.4551 28.8701C20.4762 28.8488 20.488 28.82 20.4881 28.7901C20.4881 28.7601 20.4781 28.7301 20.4571 28.7091C20.4358 28.688 20.407 28.6761 20.3771 28.6761V28.6751ZM27.6271 28.6751C27.5971 28.6751 27.5681 28.6861 27.5471 28.7071C27.5366 28.7176 27.5283 28.7301 27.5226 28.7438C27.517 28.7575 27.5141 28.7722 27.5141 28.7871C27.5141 28.8171 27.5241 28.8461 27.5441 28.8671C27.5661 28.8881 27.5951 28.9001 27.6251 28.9001C27.6551 28.9001 27.6841 28.8901 27.7051 28.8701C27.7262 28.8488 27.738 28.82 27.7381 28.7901C27.7381 28.7601 27.7281 28.7301 27.7071 28.7091C27.6858 28.688 27.657 28.6761 27.6271 28.6761V28.6751ZM24.0001 28.7181V28.7201C24.1497 28.7198 24.2979 28.749 24.4363 28.806C24.5746 28.8631 24.7004 28.9468 24.8064 29.0524C24.9124 29.158 24.9966 29.2835 25.0541 29.4217C25.1116 29.5598 25.1413 29.7079 25.1416 29.8576C25.1418 30.0072 25.1126 30.1554 25.0556 30.2938C24.9986 30.4321 24.9149 30.5579 24.8092 30.6639C24.7036 30.7699 24.5781 30.8541 24.44 30.9116C24.3018 30.9691 24.1537 30.9988 24.0041 30.9991C23.7015 30.9996 23.411 30.8799 23.1967 30.6663C22.9823 30.4527 22.8616 30.1627 22.8611 29.8601C22.8605 29.5575 22.9803 29.267 23.1939 29.0527C23.4075 28.8383 23.6975 28.7176 24.0001 28.7171V28.7181ZM20.3671 29.2391C20.338 29.2413 20.3108 29.2545 20.2911 29.2761C20.2711 29.2974 20.2603 29.3258 20.2611 29.3551C20.2611 29.4171 20.3121 29.4681 20.3751 29.4651C20.3932 29.4648 20.411 29.4602 20.427 29.4516C20.443 29.4429 20.4567 29.4306 20.4669 29.4156C20.4771 29.4006 20.4835 29.3834 20.4856 29.3653C20.4877 29.3473 20.4855 29.329 20.4791 29.3121C20.4738 29.2979 20.4656 29.2851 20.4551 29.2742C20.4446 29.2634 20.432 29.2548 20.4181 29.2491C20.4045 29.2429 20.3899 29.2395 20.3751 29.2391H20.3671ZM27.6171 29.2391C27.588 29.2413 27.5608 29.2545 27.5411 29.2761C27.5211 29.2974 27.5103 29.3258 27.5111 29.3551C27.5111 29.4171 27.5621 29.4681 27.6251 29.4651C27.6432 29.4648 27.661 29.4602 27.677 29.4516C27.693 29.4429 27.7067 29.4306 27.7169 29.4156C27.7271 29.4006 27.7335 29.3834 27.7356 29.3653C27.7377 29.3473 27.7355 29.329 27.7291 29.3121C27.7238 29.2979 27.7156 29.2851 27.7051 29.2742C27.6946 29.2634 27.682 29.2548 27.6681 29.2491C27.6545 29.2429 27.6399 29.2395 27.6251 29.2391H27.6171ZM20.3671 29.8041C20.3375 29.8052 20.3096 29.8177 20.2891 29.8391C20.2792 29.8495 20.2715 29.8617 20.2663 29.8751C20.2612 29.8885 20.2587 29.9027 20.2591 29.9171C20.2601 29.9471 20.2721 29.9751 20.2931 29.9951C20.314 30.0153 20.342 30.0264 20.3711 30.0261C20.3855 30.0262 20.3999 30.0235 20.4132 30.0181C20.4266 30.0127 20.4388 30.0047 20.4492 29.9946C20.4595 29.9844 20.4677 29.9724 20.4733 29.9591C20.479 29.9458 20.4819 29.9315 20.4821 29.9171C20.4821 29.8871 20.4731 29.8601 20.4531 29.8391C20.4326 29.8177 20.4046 29.8052 20.3751 29.8041H20.3671ZM27.6171 29.8041C27.5875 29.8052 27.5596 29.8177 27.5391 29.8391C27.5292 29.8495 27.5215 29.8617 27.5163 29.8751C27.5112 29.8885 27.5087 29.9027 27.5091 29.9171C27.5101 29.9471 27.5221 29.9751 27.5431 29.9951C27.564 30.0153 27.592 30.0264 27.6211 30.0261C27.6355 30.0262 27.6499 30.0235 27.6632 30.0181C27.6766 30.0127 27.6888 30.0047 27.6992 29.9946C27.7095 29.9844 27.7177 29.9724 27.7233 29.9591C27.729 29.9458 27.7319 29.9315 27.7321 29.9171C27.7321 29.8871 27.7231 29.8601 27.7031 29.8391C27.6826 29.8177 27.6546 29.8052 27.6251 29.8041H27.6171ZM16.7231 30.2671C16.3143 30.2899 15.9298 30.4684 15.6486 30.7659C15.3673 31.0633 15.2105 31.4572 15.2105 31.8666C15.2105 32.276 15.3673 32.6698 15.6486 32.9673C15.9298 33.2647 16.3143 33.4432 16.7231 33.4661C17.1474 33.4661 17.5544 33.2975 17.8544 32.9974C18.1545 32.6974 18.3231 32.2904 18.3231 31.8661C18.3231 31.4417 18.1545 31.0348 17.8544 30.7347C17.5544 30.4346 17.1474 30.2661 16.7231 30.2661V30.2671ZM31.2751 30.2671C30.8663 30.2899 30.4818 30.4684 30.2006 30.7659C29.9193 31.0633 29.7625 31.4572 29.7625 31.8666C29.7625 32.276 29.9193 32.6698 30.2006 32.9673C30.4818 33.2647 30.8663 33.4432 31.2751 33.4661C31.6994 33.4661 32.1064 33.2975 32.4065 32.9974C32.7065 32.6974 32.8751 32.2904 32.8751 31.8661C32.8751 31.4417 32.7065 31.0348 32.4065 30.7347C32.1064 30.4346 31.6994 30.2661 31.2751 30.2661V30.2671ZM20.3671 30.3641V30.3661C20.3388 30.3678 20.3123 30.3803 20.2931 30.4011C20.2731 30.4225 20.262 30.4507 20.2621 30.4801C20.2621 30.5421 20.3121 30.5921 20.3751 30.5901C20.3899 30.5895 20.4045 30.5859 20.4179 30.5795C20.4313 30.5732 20.4432 30.5642 20.4531 30.5531C20.4632 30.5424 20.4712 30.5299 20.4765 30.5162C20.4819 30.5024 20.4844 30.4878 20.4841 30.4731C20.4831 30.4585 20.4794 30.4443 20.4731 30.4311C20.467 30.4176 20.4583 30.4054 20.4475 30.3953C20.4367 30.3851 20.424 30.3772 20.4101 30.3721C20.3964 30.3666 20.3818 30.3638 20.3671 30.3641ZM27.6171 30.3641V30.3661C27.5888 30.3678 27.5623 30.3803 27.5431 30.4011C27.5231 30.4225 27.512 30.4507 27.5121 30.4801C27.5121 30.5421 27.5621 30.5921 27.6251 30.5901C27.6399 30.5895 27.6545 30.5859 27.6679 30.5795C27.6813 30.5732 27.6932 30.5642 27.7031 30.5531C27.7132 30.5424 27.7212 30.5299 27.7265 30.5162C27.7319 30.5024 27.7344 30.4878 27.7341 30.4731C27.7331 30.4585 27.7294 30.4443 27.7231 30.4311C27.717 30.4176 27.7083 30.4054 27.6975 30.3953C27.6867 30.3851 27.674 30.3772 27.6601 30.3721C27.6464 30.3666 27.6318 30.3638 27.6171 30.3641ZM16.7231 30.7301C16.9443 30.7355 17.1592 30.8055 17.3412 30.9315C17.5233 31.0574 17.6645 31.2337 17.7477 31.4388C17.8309 31.644 17.8523 31.8689 17.8094 32.086C17.7665 32.3032 17.661 32.503 17.5061 32.6611C17.3 32.8738 17.0191 32.9979 16.7231 33.0071C16.5736 33.0069 16.4257 32.9773 16.2877 32.9199C16.1498 32.8625 16.0245 32.7785 15.919 32.6726C15.8136 32.5667 15.7301 32.441 15.6733 32.3028C15.6165 32.1646 15.5876 32.0165 15.5881 31.8671C15.5881 31.2381 16.0951 30.7301 16.7231 30.7301ZM31.2751 30.7301C31.5712 30.7388 31.8522 30.8626 32.0586 31.0752C32.2649 31.2877 32.3803 31.5723 32.3803 31.8686C32.3803 32.1648 32.2649 32.4494 32.0586 32.6619C31.8522 32.8745 31.5712 32.9983 31.2751 33.0071C31.1229 33.0107 30.9716 32.9839 30.8298 32.9284C30.6881 32.8728 30.5589 32.7896 30.4497 32.6836C30.3405 32.5775 30.2535 32.4508 30.1939 32.3108C30.1342 32.1708 30.103 32.0203 30.1021 31.8681C30.1019 31.7156 30.1323 31.5646 30.1916 31.4242C30.251 31.2837 30.3379 31.1566 30.4474 31.0504C30.5568 30.9443 30.6865 30.8612 30.8287 30.8062C30.9709 30.7511 31.1227 30.7252 31.2751 30.7301ZM20.3671 30.9271C20.3389 30.929 20.3124 30.9415 20.2931 30.9621C20.2735 30.9833 20.2624 31.0111 20.2621 31.0401C20.2598 31.0558 20.2611 31.0719 20.2657 31.0871C20.2704 31.1023 20.2784 31.1163 20.2891 31.1281C20.3049 31.146 20.326 31.1585 20.3493 31.1638C20.3726 31.1692 20.397 31.1672 20.4191 31.1581C20.4339 31.1511 20.4471 31.1413 20.4579 31.1291C20.4687 31.1169 20.477 31.1026 20.4821 31.0871C20.4868 31.0719 20.4881 31.0558 20.4861 31.0401C20.4859 31.0248 20.4828 31.0096 20.4768 30.9956C20.4708 30.9815 20.462 30.9688 20.4511 30.9581C20.4399 30.9472 20.4266 30.9387 20.4121 30.9331C20.3976 30.928 20.3823 30.926 20.3671 30.9271ZM27.6171 30.9271C27.5889 30.929 27.5624 30.9415 27.5431 30.9621C27.5235 30.9833 27.5124 31.0111 27.5121 31.0401C27.5098 31.0558 27.5111 31.0719 27.5157 31.0871C27.5204 31.1023 27.5284 31.1163 27.5391 31.1281C27.5549 31.146 27.576 31.1585 27.5993 31.1638C27.6226 31.1692 27.647 31.1672 27.6691 31.1581C27.6839 31.1511 27.6971 31.1413 27.7079 31.1291C27.7187 31.1169 27.727 31.1026 27.7321 31.0871C27.7368 31.0719 27.7381 31.0558 27.7361 31.0401C27.7359 31.0248 27.7328 31.0096 27.7268 30.9956C27.7208 30.9815 27.712 30.9688 27.7011 30.9581C27.6899 30.9472 27.6766 30.9387 27.6621 30.9331C27.6476 30.928 27.6323 30.926 27.6171 30.9271ZM20.3671 31.4871C20.3448 31.4887 20.3235 31.4967 20.3058 31.5102C20.288 31.5237 20.2746 31.5421 20.2671 31.5631C20.262 31.577 20.2599 31.5919 20.2609 31.6067C20.262 31.6215 20.2661 31.636 20.2731 31.6491C20.2822 31.6697 20.2975 31.6869 20.3168 31.6986C20.3362 31.7102 20.3586 31.7156 20.3811 31.7141C20.396 31.7132 20.4106 31.7093 20.424 31.7028C20.4374 31.6962 20.4494 31.6871 20.4593 31.6759C20.4692 31.6647 20.4768 31.6517 20.4816 31.6375C20.4865 31.6234 20.4885 31.6085 20.4876 31.5936C20.4867 31.5787 20.4828 31.5641 20.4763 31.5507C20.4697 31.5372 20.4606 31.5253 20.4494 31.5154C20.4382 31.5055 20.4252 31.4979 20.411 31.493C20.3969 31.4882 20.382 31.4861 20.3671 31.4871ZM27.6171 31.4871C27.5949 31.4885 27.5736 31.4965 27.5559 31.51C27.5382 31.5235 27.5248 31.5419 27.5176 31.563C27.5103 31.584 27.5094 31.6067 27.515 31.6283C27.5206 31.6498 27.5325 31.6692 27.5491 31.6841C27.5711 31.7041 27.6011 31.7161 27.6311 31.7141C27.6613 31.7113 27.6892 31.697 27.7091 31.6741C27.7184 31.6636 27.7255 31.6513 27.7301 31.6381C27.7352 31.6241 27.7372 31.6092 27.7362 31.5944C27.7352 31.5796 27.731 31.5652 27.7241 31.5521C27.715 31.5316 27.6998 31.5145 27.6807 31.5029C27.6616 31.4912 27.6394 31.4857 27.6171 31.4871ZM20.3551 32.0521C20.3288 32.056 20.3047 32.0691 20.2871 32.0891C20.2704 32.1093 20.2615 32.1348 20.2621 32.1611C20.2621 32.1831 20.2691 32.2051 20.2821 32.2241C20.2935 32.2428 20.3102 32.2577 20.3301 32.2671C20.3501 32.2751 20.3731 32.2771 20.3951 32.2721C20.4168 32.2683 20.437 32.2582 20.4531 32.2431C20.4693 32.2276 20.4805 32.2076 20.4852 32.1856C20.4898 32.1636 20.4877 32.1408 20.4791 32.1201C20.4707 32.1 20.4564 32.0829 20.4381 32.0711C20.4195 32.0583 20.3976 32.0513 20.3751 32.0511H20.3551V32.0521ZM27.6051 32.0521C27.5788 32.056 27.5547 32.0691 27.5371 32.0891C27.5204 32.1093 27.5115 32.1348 27.5121 32.1611C27.5121 32.1831 27.5191 32.2051 27.5321 32.2241C27.5435 32.2428 27.5602 32.2577 27.5801 32.2671C27.6001 32.2751 27.6231 32.2771 27.6451 32.2721C27.6668 32.2683 27.687 32.2582 27.7031 32.2431C27.7193 32.2276 27.7305 32.2076 27.7352 32.1856C27.7398 32.1636 27.7377 32.1408 27.7291 32.1201C27.7207 32.1 27.7064 32.0829 27.6881 32.0711C27.6695 32.0583 27.6476 32.0513 27.6251 32.0511H27.6051V32.0521ZM24.0001 32.0901C23.7832 32.0792 23.5664 32.1126 23.3629 32.1881C23.1593 32.2636 22.9732 32.3797 22.8159 32.5293C22.6586 32.679 22.5334 32.859 22.4478 33.0586C22.3622 33.2581 22.3181 33.473 22.3181 33.6901C22.3181 33.9072 22.3622 34.122 22.4478 34.3216C22.5334 34.5211 22.6586 34.7012 22.8159 34.8508C22.9732 35.0004 23.1593 35.1165 23.3629 35.1921C23.5664 35.2676 23.7832 35.3009 24.0001 35.2901C24.4072 35.2651 24.7895 35.0858 25.069 34.7887C25.3485 34.4915 25.5041 34.099 25.5041 33.6911C25.5041 33.2832 25.3485 32.8906 25.069 32.5935C24.7895 32.2963 24.4072 32.117 24.0001 32.0921V32.0901ZM24.0001 32.5551C24.1497 32.5545 24.298 32.5836 24.4363 32.6406C24.5747 32.6976 24.7004 32.7814 24.8063 32.8871C24.9122 32.9929 24.9961 33.1186 25.0532 33.2569C25.1103 33.3952 25.1395 33.5434 25.1391 33.6931C25.1399 33.9187 25.0736 34.1394 24.9486 34.3272C24.8236 34.515 24.6455 34.6613 24.4371 34.7476C24.2287 34.8339 23.9993 34.8563 23.7781 34.8118C23.5569 34.7674 23.354 34.6582 23.1951 34.4981C23.0358 34.3389 22.9273 34.1361 22.8834 33.9153C22.8394 33.6944 22.8619 33.4655 22.9481 33.2575C23.0343 33.0495 23.1803 32.8717 23.3675 32.7467C23.5548 32.6216 23.7749 32.5549 24.0001 32.5551ZM20.3551 32.6111C20.3338 32.6146 20.3139 32.6242 20.298 32.6388C20.282 32.6533 20.2706 32.6722 20.2651 32.6931C20.259 32.7136 20.259 32.7355 20.2651 32.7561C20.2717 32.7763 20.2838 32.7943 20.3 32.8081C20.3163 32.8219 20.336 32.8309 20.3571 32.8341C20.3783 32.837 20.3999 32.8339 20.4193 32.825C20.4388 32.8162 20.4554 32.802 20.4671 32.7841C20.4784 32.7658 20.4843 32.7446 20.4841 32.7231C20.4847 32.6944 20.4739 32.6667 20.4541 32.6461C20.433 32.6252 20.4047 32.6134 20.3751 32.6131H20.3551V32.6111ZM27.6051 32.6111C27.5838 32.6146 27.5639 32.6242 27.548 32.6388C27.532 32.6533 27.5206 32.6722 27.5151 32.6931C27.509 32.7136 27.509 32.7355 27.5151 32.7561C27.5217 32.7763 27.5338 32.7943 27.55 32.8081C27.5663 32.8219 27.586 32.8309 27.6071 32.8341C27.6283 32.837 27.6499 32.8339 27.6693 32.825C27.6888 32.8162 27.7054 32.802 27.7171 32.7841C27.7284 32.7658 27.7343 32.7446 27.7341 32.7231C27.7347 32.6944 27.7239 32.6667 27.7041 32.6461C27.683 32.6252 27.6547 32.6134 27.6251 32.6131H27.6051V32.6111ZM20.3771 33.1711C20.3622 33.1715 20.3476 33.1749 20.3341 33.1811C20.3201 33.1872 20.3076 33.196 20.2971 33.2071C20.286 33.2176 20.2772 33.2301 20.2711 33.2441C20.2658 33.2585 20.2634 33.2738 20.2641 33.2891C20.2641 33.3511 20.3141 33.3991 20.3771 33.3991C20.3911 33.3991 20.4071 33.3961 20.4201 33.3911C20.4333 33.3848 20.4452 33.3759 20.4551 33.3651C20.4651 33.3551 20.4751 33.3431 20.4801 33.3301C20.4883 33.3095 20.4905 33.287 20.4864 33.2652C20.4823 33.2435 20.4722 33.2233 20.4571 33.2071C20.4357 33.1861 20.407 33.1742 20.3771 33.1741V33.1721V33.1711ZM27.6271 33.1711C27.6122 33.1715 27.5976 33.1749 27.5841 33.1811C27.5701 33.1872 27.5576 33.196 27.5471 33.2071C27.536 33.2176 27.5272 33.2301 27.5211 33.2441C27.5158 33.2585 27.5134 33.2738 27.5141 33.2891C27.5141 33.3511 27.5641 33.3991 27.6271 33.3991C27.6411 33.3991 27.6571 33.3961 27.6701 33.3911C27.6833 33.3848 27.6952 33.3759 27.7051 33.3651C27.7151 33.3551 27.7251 33.3431 27.7301 33.3301C27.7383 33.3095 27.7405 33.287 27.7364 33.2652C27.7323 33.2435 27.7222 33.2233 27.7071 33.2071C27.6857 33.1861 27.657 33.1742 27.6271 33.1741V33.1721V33.1711ZM20.3671 33.7341C20.338 33.7363 20.3108 33.7495 20.2911 33.7711C20.2711 33.7924 20.2603 33.8208 20.2611 33.8501C20.2611 33.8801 20.2741 33.9071 20.2951 33.9281C20.3151 33.9481 20.3451 33.9611 20.3751 33.9611C20.3896 33.961 20.404 33.958 20.4174 33.9524C20.4308 33.9467 20.4429 33.9385 20.4531 33.9281C20.4635 33.9179 20.4717 33.9058 20.4774 33.8924C20.4831 33.879 20.486 33.8646 20.4861 33.8501C20.4866 33.8354 20.4842 33.8208 20.4791 33.8071C20.4738 33.7929 20.4656 33.7801 20.4551 33.7692C20.4446 33.7584 20.432 33.7498 20.4181 33.7441C20.4045 33.7379 20.3899 33.7345 20.3751 33.7341H20.3671ZM27.6171 33.7341C27.588 33.7363 27.5608 33.7495 27.5411 33.7711C27.5211 33.7924 27.5103 33.8208 27.5111 33.8501C27.5111 33.8801 27.5241 33.9071 27.5451 33.9281C27.5651 33.9481 27.5951 33.9611 27.6251 33.9611C27.6396 33.961 27.654 33.958 27.6674 33.9524C27.6808 33.9467 27.6929 33.9385 27.7031 33.9281C27.7135 33.9179 27.7217 33.9058 27.7274 33.8924C27.7331 33.879 27.736 33.8646 27.7361 33.8501C27.7366 33.8354 27.7343 33.8208 27.7291 33.8071C27.7238 33.7929 27.7156 33.7801 27.7051 33.7692C27.6946 33.7584 27.682 33.7498 27.6681 33.7441C27.6545 33.7379 27.6399 33.7345 27.6251 33.7341H27.6171ZM16.7231 34.1021V34.1041C16.5098 34.0987 16.2976 34.136 16.0989 34.2138C15.9002 34.2916 15.719 34.4083 15.5661 34.5571C15.3355 34.7815 15.1779 35.0703 15.114 35.3856C15.0501 35.701 15.0827 36.0283 15.2076 36.3248C15.3326 36.6214 15.544 36.8734 15.8144 37.0479C16.0847 37.2224 16.4014 37.3113 16.7231 37.3031C16.9334 37.3032 17.1417 37.2618 17.336 37.1814C17.5303 37.1009 17.7068 36.9828 17.8555 36.834C18.0041 36.6852 18.1219 36.5085 18.2021 36.3141C18.2824 36.1197 18.3235 35.9114 18.3231 35.7011C18.3232 35.4909 18.2819 35.2828 18.2016 35.0886C18.1212 34.8944 18.0033 34.718 17.8547 34.5694C17.7061 34.4208 17.5297 34.303 17.3355 34.2226C17.1413 34.1422 16.9332 34.1009 16.7231 34.1011V34.1021ZM31.2751 34.1021V34.1041C30.9538 34.096 30.6375 34.1848 30.3673 34.3588C30.0971 34.5329 29.8856 34.7842 29.7601 35.0801C29.636 35.3767 29.6037 35.7037 29.6673 36.0188C29.731 36.334 29.8876 36.6228 30.1171 36.8481C30.2701 36.9972 30.4513 37.1143 30.6502 37.1924C30.849 37.2706 31.0615 37.3082 31.2751 37.3031C31.592 37.3038 31.9021 37.2103 32.1658 37.0345C32.4295 36.8586 32.635 36.6084 32.7562 36.3155C32.8774 36.0226 32.9089 35.7003 32.8465 35.3895C32.7842 35.0788 32.6309 34.7935 32.4061 34.5701C32.1061 34.2701 31.7001 34.1021 31.2761 34.1021H31.2751ZM20.3671 34.2991C20.3378 34.2994 20.3098 34.3113 20.2891 34.3321C20.269 34.3538 20.2582 34.3825 20.2591 34.4121C20.2601 34.4421 20.2721 34.4701 20.2931 34.4901C20.314 34.5103 20.342 34.5215 20.3711 34.5211C20.3855 34.5212 20.3999 34.5185 20.4132 34.5131C20.4266 34.5077 20.4388 34.4997 20.4492 34.4896C20.4595 34.4794 20.4677 34.4674 20.4733 34.4541C20.479 34.4408 20.4819 34.4265 20.4821 34.4121C20.4821 34.3821 20.4731 34.3531 20.4531 34.3321C20.4419 34.3208 20.4285 34.312 20.4136 34.3063C20.3988 34.3006 20.3829 34.2982 20.3671 34.2991ZM27.6171 34.2991C27.5878 34.2994 27.5598 34.3113 27.5391 34.3321C27.519 34.3538 27.5082 34.3825 27.5091 34.4121C27.5101 34.4421 27.5221 34.4701 27.5431 34.4901C27.564 34.5103 27.592 34.5215 27.6211 34.5211C27.6355 34.5212 27.6499 34.5185 27.6632 34.5131C27.6766 34.5077 27.6888 34.4997 27.6992 34.4896C27.7095 34.4794 27.7177 34.4674 27.7233 34.4541C27.729 34.4408 27.7319 34.4265 27.7321 34.4121C27.7321 34.3821 27.7231 34.3531 27.7031 34.3321C27.6919 34.3208 27.6785 34.312 27.6636 34.3063C27.6488 34.3006 27.6329 34.2982 27.6171 34.2991ZM16.7231 34.5661C16.8753 34.5614 17.0269 34.5872 17.1689 34.6422C17.3109 34.6971 17.4405 34.78 17.5499 34.886C17.6593 34.9919 17.7463 35.1187 17.8058 35.2589C17.8653 35.3991 17.8961 35.5497 17.8963 35.702C17.8965 35.8543 17.8661 36.0051 17.807 36.1454C17.7478 36.2857 17.6612 36.4128 17.552 36.519C17.4429 36.6252 17.3136 36.7084 17.1717 36.7638C17.0298 36.8191 16.8783 36.8454 16.7261 36.8411C16.4302 36.8327 16.1493 36.7094 15.9428 36.4973C15.7364 36.2852 15.6207 36.001 15.6203 35.705C15.6199 35.409 15.7348 35.1246 15.9407 34.9119C16.1466 34.6993 16.4272 34.5752 16.7231 34.5661ZM31.2751 34.5661C31.5766 34.5661 31.8658 34.6855 32.0794 34.8982C32.2931 35.1109 32.4138 35.3996 32.4151 35.7011C32.4157 35.9262 32.3495 36.1464 32.2249 36.3339C32.1003 36.5214 31.9229 36.6677 31.7151 36.7544C31.5073 36.841 31.2785 36.8641 31.0576 36.8207C30.8368 36.7773 30.6337 36.6694 30.4742 36.5105C30.3146 36.3517 30.2058 36.1491 30.1614 35.9284C30.117 35.7077 30.1391 35.4788 30.2248 35.2707C30.3106 35.0625 30.4561 34.8845 30.6431 34.759C30.83 34.6336 31.05 34.5665 31.2751 34.5661ZM20.3671 34.8591C20.3368 34.8617 20.3088 34.876 20.2891 34.8991C20.27 34.9216 20.2603 34.9506 20.2622 34.9801C20.264 35.0096 20.2773 35.0372 20.2991 35.0571C20.3161 35.0716 20.3371 35.0807 20.3593 35.0834C20.3815 35.0861 20.4041 35.0821 20.4241 35.0721C20.4373 35.0661 20.4492 35.0576 20.4591 35.0471C20.4687 35.0353 20.4758 35.0217 20.4801 35.0071C20.4872 34.9866 20.4882 34.9645 20.4829 34.9435C20.4776 34.9225 20.4661 34.9036 20.4501 34.8891C20.4393 34.8786 20.4264 34.8706 20.4122 34.8654C20.3981 34.8602 20.3831 34.8581 20.3681 34.8591H20.3671ZM27.6171 34.8591C27.5868 34.8617 27.5588 34.876 27.5391 34.8991C27.52 34.9216 27.5103 34.9506 27.5122 34.9801C27.514 35.0096 27.5273 35.0372 27.5491 35.0571C27.5661 35.0716 27.5871 35.0807 27.6093 35.0834C27.6315 35.0861 27.6541 35.0821 27.6741 35.0721C27.6873 35.0661 27.6992 35.0576 27.7091 35.0471C27.7187 35.0353 27.7258 35.0217 27.7301 35.0071C27.7373 34.9866 27.7382 34.9645 27.7329 34.9435C27.7276 34.9225 27.7161 34.9036 27.7001 34.8891C27.6893 34.8786 27.6764 34.8706 27.6622 34.8654C27.6481 34.8602 27.6331 34.8581 27.6181 34.8591H27.6171ZM20.3671 35.4241C20.3378 35.4244 20.3098 35.4363 20.2891 35.4571C20.269 35.4788 20.2582 35.5075 20.2591 35.5371C20.2601 35.5671 20.2721 35.5951 20.2931 35.6151C20.314 35.6353 20.342 35.6465 20.3711 35.6461C20.3855 35.6462 20.3999 35.6435 20.4132 35.6381C20.4266 35.6327 20.4388 35.6247 20.4492 35.6146C20.4595 35.6044 20.4677 35.5924 20.4733 35.5791C20.479 35.5658 20.4819 35.5515 20.4821 35.5371C20.4821 35.5071 20.4731 35.4781 20.4531 35.4571C20.4324 35.4363 20.4044 35.4244 20.3751 35.4241H20.3671ZM27.6171 35.4241C27.5878 35.4244 27.5598 35.4363 27.5391 35.4571C27.519 35.4788 27.5082 35.5075 27.5091 35.5371C27.5101 35.5671 27.5221 35.5951 27.5431 35.6151C27.564 35.6353 27.592 35.6465 27.6211 35.6461C27.6355 35.6462 27.6499 35.6435 27.6632 35.6381C27.6766 35.6327 27.6888 35.6247 27.6992 35.6146C27.7095 35.6044 27.7177 35.5924 27.7233 35.5791C27.729 35.5658 27.7319 35.5515 27.7321 35.5371C27.7321 35.5071 27.7231 35.4781 27.7031 35.4571C27.6824 35.4363 27.6544 35.4244 27.6251 35.4241H27.6171ZM24.0001 35.9281C23.7868 35.9233 23.5746 35.9611 23.3761 36.0393C23.1776 36.1175 22.9967 36.2346 22.844 36.3835C22.6912 36.5325 22.5698 36.7105 22.4867 36.907C22.4036 37.1036 22.3606 37.3147 22.3601 37.5281C22.3602 37.7417 22.403 37.9532 22.4861 38.15C22.5693 38.3469 22.691 38.525 22.8441 38.6741C22.9967 38.823 23.1776 38.9399 23.3762 39.0177C23.5747 39.0955 23.7869 39.1327 24.0001 39.1271C24.4244 39.1271 24.8314 38.9585 25.1314 38.6584C25.4315 38.3584 25.6001 37.9514 25.6001 37.5271C25.6001 37.1027 25.4315 36.6958 25.1314 36.3957C24.8314 36.0956 24.4244 35.9271 24.0001 35.9271V35.9281ZM20.3671 35.9841C20.3374 35.9854 20.3094 35.9984 20.2891 36.0201C20.2792 36.0305 20.2715 36.0427 20.2663 36.0561C20.2612 36.0695 20.2587 36.0837 20.2591 36.0981C20.2601 36.1271 20.2721 36.1551 20.2931 36.1761C20.314 36.1963 20.342 36.2075 20.3711 36.2071C20.3856 36.2072 20.4 36.2045 20.4135 36.199C20.4269 36.1935 20.4392 36.1854 20.4495 36.1752C20.4598 36.165 20.468 36.1528 20.4736 36.1394C20.4792 36.126 20.4821 36.1116 20.4821 36.0971C20.4821 36.0681 20.4731 36.0411 20.4531 36.0201C20.4328 35.9984 20.4048 35.9854 20.3751 35.9841H20.3671ZM27.6171 35.9841C27.5874 35.9854 27.5594 35.9984 27.5391 36.0201C27.5292 36.0305 27.5215 36.0427 27.5163 36.0561C27.5112 36.0695 27.5087 36.0837 27.5091 36.0981C27.5101 36.1271 27.5221 36.1551 27.5431 36.1761C27.564 36.1963 27.592 36.2075 27.6211 36.2071C27.6356 36.2072 27.65 36.2045 27.6635 36.199C27.6769 36.1935 27.6892 36.1854 27.6995 36.1752C27.7098 36.165 27.718 36.1528 27.7236 36.1394C27.7292 36.126 27.7321 36.1116 27.7321 36.0971C27.7321 36.0681 27.7231 36.0411 27.7031 36.0201C27.6828 35.9984 27.6548 35.9854 27.6251 35.9841H27.6171ZM24.0001 36.3911C24.3016 36.3913 24.5907 36.511 24.8041 36.7239C25.0176 36.9368 25.138 37.2256 25.1391 37.5271C25.1396 37.6762 25.1105 37.824 25.0535 37.9618C24.9965 38.0997 24.9128 38.2248 24.8071 38.3301C24.5942 38.5436 24.3056 38.6644 24.0041 38.6661C23.7024 38.6666 23.4129 38.5473 23.1992 38.3343C22.9855 38.1214 22.8651 37.8323 22.8646 37.5306C22.864 37.2289 22.9834 36.9394 23.1963 36.7257C23.4093 36.512 23.6984 36.3916 24.0001 36.3911ZM20.3671 36.5471C20.3387 36.5503 20.3126 36.5642 20.2941 36.5859C20.2755 36.6076 20.2659 36.6355 20.2671 36.6641C20.2686 36.6922 20.2808 36.7186 20.3011 36.7381C20.3211 36.7581 20.3471 36.7701 20.3751 36.7711C20.4045 36.7708 20.4326 36.7593 20.4537 36.7388C20.4747 36.7183 20.487 36.6904 20.4881 36.6611C20.4881 36.631 20.4762 36.6022 20.455 36.5808C20.4339 36.5595 20.4051 36.5473 20.3751 36.5471H20.3671ZM27.6171 36.5471C27.5887 36.5503 27.5626 36.5642 27.5441 36.5859C27.5255 36.6076 27.5159 36.6355 27.5171 36.6641C27.5186 36.6922 27.5308 36.7186 27.5511 36.7381C27.5711 36.7581 27.5971 36.7701 27.6251 36.7711C27.6545 36.7708 27.6826 36.7593 27.7037 36.7388C27.7247 36.7183 27.737 36.6904 27.7381 36.6611C27.7381 36.631 27.7262 36.6022 27.705 36.5808C27.6839 36.5595 27.6551 36.5473 27.6251 36.5471H27.6171ZM20.3551 37.1091C20.3283 37.1138 20.3042 37.128 20.2871 37.1491C20.2703 37.1692 20.2614 37.1948 20.2621 37.2211C20.2621 37.2831 20.3121 37.3331 20.3751 37.3321C20.4361 37.3321 20.4851 37.2821 20.4861 37.2211C20.4861 37.1601 20.4361 37.1111 20.3751 37.1091H20.3551ZM27.6051 37.1091C27.5783 37.1138 27.5542 37.128 27.5371 37.1491C27.5203 37.1692 27.5114 37.1948 27.5121 37.2211C27.5121 37.2831 27.5621 37.3331 27.6251 37.3321C27.6861 37.3321 27.7351 37.2821 27.7361 37.2211C27.7361 37.1601 27.6861 37.1111 27.6251 37.1091H27.6051ZM20.3671 37.6691C20.3374 37.6704 20.3094 37.6834 20.2891 37.7051C20.2792 37.7155 20.2715 37.7277 20.2663 37.7411C20.2612 37.7545 20.2587 37.7687 20.2591 37.7831C20.2601 37.8131 20.2721 37.8411 20.2931 37.8611C20.3131 37.8811 20.3421 37.8951 20.3711 37.8951C20.4011 37.8951 20.4281 37.8821 20.4491 37.8611C20.4698 37.8403 20.4816 37.8124 20.4821 37.7831C20.4821 37.7531 20.4731 37.7261 20.4531 37.7051C20.442 37.6935 20.4286 37.6844 20.4138 37.6784C20.399 37.6724 20.3831 37.6695 20.3671 37.6701V37.6691ZM27.6171 37.6691C27.5874 37.6704 27.5594 37.6834 27.5391 37.7051C27.5292 37.7155 27.5215 37.7277 27.5163 37.7411C27.5112 37.7545 27.5087 37.7687 27.5091 37.7831C27.5101 37.8131 27.5221 37.8411 27.5431 37.8611C27.5631 37.8811 27.5921 37.8951 27.6211 37.8951C27.6511 37.8951 27.6781 37.8821 27.6991 37.8611C27.7198 37.8403 27.7316 37.8124 27.7321 37.7831C27.7321 37.7531 27.7231 37.7261 27.7031 37.7051C27.692 37.6935 27.6786 37.6844 27.6638 37.6784C27.649 37.6724 27.6331 37.6695 27.6171 37.6701V37.6691ZM16.7231 37.9061C16.4214 37.9051 16.1263 37.9938 15.8751 38.161C15.624 38.3282 15.4283 38.5663 15.3129 38.845C15.1974 39.1237 15.1675 39.4304 15.2268 39.7262C15.2861 40.022 15.4321 40.2934 15.6461 40.5061C15.8232 40.6826 16.0411 40.8128 16.2805 40.8851C16.5199 40.9574 16.7734 40.9696 17.0187 40.9206C17.2639 40.8716 17.4933 40.7629 17.6865 40.6042C17.8798 40.4455 18.0309 40.2416 18.1266 40.0105C18.2223 39.7795 18.2596 39.5284 18.2352 39.2795C18.2108 39.0307 18.1255 38.7916 17.9867 38.5836C17.848 38.3755 17.6601 38.2049 17.4397 38.0867C17.2193 37.9685 16.9732 37.9065 16.7231 37.9061ZM31.2751 37.9061C30.8711 37.9066 30.4839 38.0674 30.1984 38.3531C29.9129 38.6388 29.7523 39.0261 29.7521 39.4301C29.7517 39.6302 29.7908 39.8284 29.8672 40.0134C29.9436 40.1983 30.0558 40.3664 30.1973 40.5079C30.3388 40.6494 30.5068 40.7615 30.6918 40.8379C30.8767 40.9143 31.075 40.9535 31.2751 40.9531C31.6791 40.9531 32.0651 40.7921 32.3521 40.5061C32.5656 40.2933 32.7111 40.0218 32.7702 39.7262C32.8292 39.4306 32.7992 39.1241 32.6838 38.8456C32.5684 38.5671 32.3729 38.3291 32.1221 38.1618C31.8714 37.9946 31.5765 37.9056 31.2751 37.9061ZM20.3671 38.2321C20.3384 38.2348 20.312 38.2484 20.2931 38.2701C20.2831 38.2806 20.2753 38.2929 20.2701 38.3065C20.2649 38.32 20.2624 38.3344 20.2628 38.3489C20.2631 38.3634 20.2664 38.3777 20.2722 38.3909C20.2781 38.4041 20.2866 38.4161 20.2971 38.4261C20.3076 38.436 20.32 38.4439 20.3335 38.4491C20.347 38.4543 20.3614 38.4567 20.3759 38.4564C20.3904 38.456 20.4047 38.4528 20.4179 38.4469C20.4311 38.441 20.4431 38.4326 20.4531 38.4221C20.4736 38.3998 20.4848 38.3704 20.4841 38.3401C20.4825 38.3104 20.4694 38.2824 20.4476 38.2623C20.4257 38.2421 20.3968 38.2312 20.3671 38.2321ZM27.6171 38.2321C27.5884 38.2348 27.562 38.2484 27.5431 38.2701C27.5331 38.2806 27.5253 38.2929 27.5201 38.3065C27.5149 38.32 27.5124 38.3344 27.5128 38.3489C27.5131 38.3634 27.5164 38.3777 27.5222 38.3909C27.5281 38.4041 27.5366 38.4161 27.5471 38.4261C27.5576 38.436 27.57 38.4439 27.5835 38.4491C27.597 38.4543 27.6114 38.4567 27.6259 38.4564C27.6404 38.456 27.6547 38.4528 27.6679 38.4469C27.6811 38.441 27.6931 38.4326 27.7031 38.4221C27.7236 38.3998 27.7348 38.3704 27.7341 38.3401C27.7325 38.3104 27.7194 38.2824 27.6976 38.2623C27.6757 38.2421 27.6468 38.2312 27.6171 38.2321ZM16.7291 38.3181C17.0294 38.3183 17.3173 38.4378 17.5296 38.6503C17.7418 38.8627 17.8611 39.1508 17.8611 39.4511C17.8611 39.7514 17.7418 40.0394 17.5296 40.2519C17.3173 40.4643 17.0294 40.5838 16.7291 40.5841C16.4286 40.5841 16.1404 40.4647 15.9279 40.2522C15.7154 40.0397 15.5961 39.7516 15.5961 39.4511C15.5961 39.3023 15.6254 39.1549 15.6823 39.0175C15.7393 38.88 15.8227 38.7551 15.9279 38.6499C16.0331 38.5447 16.158 38.4613 16.2955 38.4043C16.433 38.3474 16.5803 38.3181 16.7291 38.3181ZM31.2751 38.3461C31.4175 38.3459 31.5585 38.3739 31.6901 38.4283C31.8216 38.4827 31.9412 38.5626 32.0419 38.6633C32.1426 38.764 32.2224 38.8835 32.2768 39.0151C32.3313 39.1467 32.3592 39.2877 32.3591 39.4301C32.3583 39.7173 32.2438 39.9926 32.0407 40.1957C31.8376 40.3988 31.5623 40.5133 31.2751 40.5141C30.9956 40.5021 30.7316 40.3826 30.5381 40.1806C30.3447 39.9787 30.2367 39.7098 30.2367 39.4301C30.2367 39.1504 30.3447 38.8815 30.5381 38.6795C30.7316 38.4775 30.9956 38.3581 31.2751 38.3461ZM20.3671 38.7951C20.3375 38.7962 20.3096 38.8087 20.2891 38.8301C20.2792 38.8405 20.2715 38.8527 20.2663 38.8661C20.2612 38.8795 20.2587 38.8937 20.2591 38.9081C20.2601 38.9381 20.2721 38.9661 20.2931 38.9861C20.3131 39.0061 20.3421 39.0201 20.3711 39.0201C20.4011 39.0201 20.4281 39.0071 20.4491 38.9861C20.4698 38.9653 20.4816 38.9374 20.4821 38.9081C20.4821 38.8781 20.4731 38.8511 20.4531 38.8301C20.442 38.8185 20.4286 38.8094 20.4138 38.8034C20.399 38.7974 20.3831 38.7945 20.3671 38.7951ZM27.6171 38.7951C27.5875 38.7962 27.5596 38.8087 27.5391 38.8301C27.5292 38.8405 27.5215 38.8527 27.5163 38.8661C27.5112 38.8795 27.5087 38.8937 27.5091 38.9081C27.5101 38.9381 27.5221 38.9661 27.5431 38.9861C27.5631 39.0061 27.5921 39.0201 27.6211 39.0201C27.6511 39.0201 27.6781 39.0071 27.6991 38.9861C27.7198 38.9653 27.7316 38.9374 27.7321 38.9081C27.7321 38.8781 27.7231 38.8511 27.7031 38.8301C27.692 38.8185 27.6786 38.8094 27.6638 38.8034C27.649 38.7974 27.6331 38.7945 27.6171 38.7951ZM20.3671 39.3571C20.3447 39.3588 20.3233 39.3669 20.3056 39.3806C20.2878 39.3943 20.2744 39.4129 20.2671 39.4341C20.2622 39.4481 20.2603 39.4629 20.2613 39.4777C20.2623 39.4925 20.2663 39.5069 20.2731 39.5201C20.2793 39.5333 20.2882 39.5452 20.2991 39.5551C20.3091 39.5651 20.3241 39.5711 20.3381 39.5761C20.3591 39.5832 20.3817 39.5841 20.4032 39.5786C20.4247 39.5731 20.4441 39.5614 20.4591 39.5451C20.4782 39.5226 20.4878 39.4935 20.486 39.4641C20.4841 39.4346 20.4709 39.407 20.4491 39.3871C20.4268 39.3667 20.3973 39.3559 20.3671 39.3571ZM27.6171 39.3571C27.5947 39.3588 27.5733 39.3669 27.5556 39.3806C27.5378 39.3943 27.5244 39.4129 27.5171 39.4341C27.5122 39.4481 27.5103 39.4629 27.5113 39.4777C27.5123 39.4925 27.5163 39.5069 27.5231 39.5201C27.5293 39.5333 27.5382 39.5452 27.5491 39.5551C27.5591 39.5651 27.5741 39.5711 27.5881 39.5761C27.6091 39.5832 27.6317 39.5841 27.6532 39.5786C27.6747 39.5731 27.6941 39.5614 27.7091 39.5451C27.7282 39.5226 27.7378 39.4935 27.736 39.4641C27.7341 39.4346 27.7209 39.407 27.6991 39.3871C27.6768 39.3667 27.6473 39.3559 27.6171 39.3571ZM20.3671 39.9201C20.3521 39.9212 20.3375 39.9253 20.3241 39.9321C20.3109 39.938 20.299 39.9465 20.2891 39.9571C20.2748 39.9742 20.2656 39.9951 20.2628 40.0172C20.26 40.0394 20.2635 40.0619 20.2731 40.0821C20.2867 40.1083 20.3095 40.1286 20.3371 40.1391C20.3512 40.144 20.3662 40.1461 20.3811 40.1451C20.4113 40.1425 20.4393 40.1281 20.4591 40.1051C20.4782 40.0826 20.4878 40.0535 20.486 40.024C20.4841 39.9946 20.4709 39.967 20.4491 39.9471C20.4264 39.9276 20.3969 39.9179 20.3671 39.9201ZM27.6171 39.9201C27.6021 39.9212 27.5875 39.9253 27.5741 39.9321C27.5609 39.938 27.549 39.9465 27.5391 39.9571C27.5248 39.9742 27.5156 39.9951 27.5128 40.0172C27.51 40.0394 27.5135 40.0619 27.5231 40.0821C27.5367 40.1083 27.5595 40.1286 27.5871 40.1391C27.6012 40.144 27.6162 40.1461 27.6311 40.1451C27.6613 40.1425 27.6893 40.1281 27.7091 40.1051C27.7282 40.0826 27.7378 40.0535 27.736 40.024C27.7341 39.9946 27.7209 39.967 27.6991 39.9471C27.6764 39.9276 27.6469 39.9179 27.6171 39.9201ZM20.3671 40.4821C20.3447 40.4838 20.3233 40.4919 20.3056 40.5056C20.2878 40.5193 20.2744 40.5379 20.2671 40.5591C20.2622 40.5731 20.2603 40.5879 20.2613 40.6027C20.2623 40.6175 20.2663 40.6319 20.2731 40.6451C20.2793 40.6583 20.2882 40.6702 20.2991 40.6801C20.3091 40.6901 20.3241 40.6961 20.3381 40.7011C20.3591 40.7082 20.3817 40.7091 20.4032 40.7036C20.4247 40.6981 20.4441 40.6864 20.4591 40.6701C20.4782 40.6476 20.4878 40.6185 20.486 40.5891C20.4841 40.5596 20.4709 40.532 20.4491 40.5121C20.4268 40.4917 20.3973 40.4809 20.3671 40.4821ZM27.6171 40.4821C27.5947 40.4838 27.5733 40.4919 27.5556 40.5056C27.5378 40.5193 27.5244 40.5379 27.5171 40.5591C27.5122 40.5731 27.5103 40.5879 27.5113 40.6027C27.5123 40.6175 27.5163 40.6319 27.5231 40.6451C27.5293 40.6583 27.5382 40.6702 27.5491 40.6801C27.5591 40.6901 27.5741 40.6961 27.5881 40.7011C27.6091 40.7082 27.6317 40.7091 27.6532 40.7036C27.6747 40.6981 27.6941 40.6864 27.7091 40.6701C27.7282 40.6476 27.7378 40.6185 27.736 40.5891C27.7341 40.5596 27.7209 40.532 27.6991 40.5121C27.6768 40.4917 27.6473 40.4809 27.6171 40.4821ZM20.3551 41.0451C20.3285 41.0496 20.3044 41.0634 20.2871 41.0841C20.2703 41.1042 20.2614 41.1298 20.2621 41.1561C20.2621 41.1726 20.2658 41.1889 20.2728 41.2039C20.2798 41.2189 20.29 41.2322 20.3026 41.2429C20.3153 41.2535 20.3301 41.2613 20.3461 41.2656C20.362 41.27 20.3788 41.2708 20.3951 41.2681C20.4169 41.2635 20.437 41.2528 20.4529 41.2372C20.4689 41.2216 20.48 41.2018 20.4851 41.1801C20.4898 41.1582 20.4879 41.1355 20.4795 41.1148C20.4711 41.0941 20.4567 41.0764 20.4381 41.0641C20.4195 41.0513 20.3976 41.0443 20.3751 41.0441H20.3551V41.0451ZM27.6051 41.0451C27.5785 41.0496 27.5544 41.0634 27.5371 41.0841C27.5203 41.1042 27.5114 41.1298 27.5121 41.1561C27.5121 41.1726 27.5158 41.1889 27.5228 41.2039C27.5298 41.2189 27.54 41.2322 27.5526 41.2429C27.5653 41.2535 27.5801 41.2613 27.5961 41.2656C27.612 41.27 27.6288 41.2708 27.6451 41.2681C27.6669 41.2635 27.687 41.2528 27.7029 41.2372C27.7189 41.2216 27.73 41.2018 27.7351 41.1801C27.7398 41.1582 27.7379 41.1355 27.7295 41.1148C27.7211 41.0941 27.7067 41.0764 27.6881 41.0641C27.6695 41.0513 27.6476 41.0443 27.6251 41.0441H27.6051V41.0451ZM20.3551 41.6071C20.329 41.612 20.3055 41.6262 20.2891 41.6471C20.2752 41.6633 20.2664 41.6832 20.2635 41.7043C20.2607 41.7255 20.264 41.747 20.2731 41.7663C20.2822 41.7856 20.2966 41.8019 20.3147 41.8132C20.3328 41.8245 20.3537 41.8304 20.3751 41.8301C20.4361 41.8301 20.4851 41.7801 20.4861 41.7191C20.4861 41.6581 20.4361 41.6091 20.3751 41.6071H20.3551ZM27.6051 41.6071C27.579 41.612 27.5555 41.6262 27.5391 41.6471C27.5252 41.6633 27.5164 41.6832 27.5135 41.7043C27.5107 41.7255 27.514 41.747 27.5231 41.7663C27.5322 41.7856 27.5466 41.8019 27.5647 41.8132C27.5828 41.8245 27.6037 41.8304 27.6251 41.8301C27.6861 41.8301 27.7351 41.7801 27.7361 41.7191C27.7361 41.6581 27.6861 41.6091 27.6251 41.6071H27.6051ZM20.3771 42.1681C20.3623 42.1678 20.3477 42.1705 20.3341 42.1761C20.3203 42.182 20.3077 42.1905 20.2971 42.2011C20.2867 42.2112 20.2784 42.2233 20.2727 42.2367C20.267 42.2501 20.2641 42.2645 20.2641 42.2791C20.2641 42.3091 20.2741 42.3391 20.2941 42.3591C20.3161 42.3811 20.3451 42.3921 20.3751 42.3931C20.4051 42.3931 20.4341 42.3831 20.4551 42.3611C20.4762 42.3398 20.488 42.311 20.4881 42.2811C20.4881 42.2511 20.4781 42.2221 20.4571 42.2011C20.4358 42.18 20.407 42.1681 20.3771 42.1681ZM27.6271 42.1681C27.6124 42.1678 27.5977 42.1705 27.5841 42.1761C27.5703 42.182 27.5577 42.1905 27.5471 42.2011C27.5368 42.211 27.5286 42.2229 27.5231 42.2361C27.5141 42.2564 27.5114 42.279 27.5153 42.3009C27.5192 42.3228 27.5296 42.3431 27.5451 42.3591C27.5551 42.3691 27.5681 42.3791 27.5821 42.3851C27.5957 42.3905 27.6104 42.3933 27.6251 42.3931C27.6551 42.3931 27.6841 42.3831 27.7051 42.3611C27.7262 42.3398 27.738 42.311 27.7381 42.2811C27.7381 42.2511 27.7281 42.2221 27.7071 42.2011C27.6858 42.18 27.657 42.1681 27.6271 42.1681ZM20.3671 42.7301C20.3374 42.7314 20.3094 42.7444 20.2891 42.7661C20.269 42.7878 20.2582 42.8165 20.2591 42.8461C20.2601 42.8761 20.2721 42.9031 20.2931 42.9241C20.314 42.9443 20.342 42.9555 20.3711 42.9551C20.3856 42.9552 20.4 42.9525 20.4135 42.947C20.4269 42.9415 20.4392 42.9334 20.4495 42.9232C20.4598 42.913 20.468 42.9008 20.4736 42.8874C20.4792 42.874 20.4821 42.8596 20.4821 42.8451C20.4821 42.8161 20.4731 42.7871 20.4531 42.7651C20.442 42.7535 20.4286 42.7444 20.4138 42.7384C20.399 42.7324 20.3831 42.7295 20.3671 42.7301ZM27.6171 42.7301C27.5874 42.7314 27.5594 42.7444 27.5391 42.7661C27.519 42.7878 27.5082 42.8165 27.5091 42.8461C27.5101 42.8761 27.5221 42.9031 27.5431 42.9241C27.564 42.9443 27.592 42.9555 27.6211 42.9551C27.6356 42.9552 27.65 42.9525 27.6635 42.947C27.6769 42.9415 27.6892 42.9334 27.6995 42.9232C27.7098 42.913 27.718 42.9008 27.7236 42.8874C27.7292 42.874 27.7321 42.8596 27.7321 42.8451C27.7321 42.8161 27.7231 42.7871 27.7031 42.7651C27.692 42.7535 27.6786 42.7444 27.6638 42.7384C27.649 42.7324 27.6331 42.7295 27.6171 42.7301Z" fill="#1A1A1A"/>
</svg>
