<svg width="48" height="48" viewBox="0 0 48 48" fill="none" xmlns="http://www.w3.org/2000/svg">
<path d="M14.21 4C13.3405 4 12.6416 4.69898 12.6416 5.56842V42.4298C12.6416 43.2992 13.3405 44 14.21 44H33.915C34.7845 44 35.4834 43.2992 35.4834 42.4298V5.56842C35.4834 4.69898 34.7845 4 33.915 4H14.21ZM30.9072 4.73438C30.911 4.73431 30.9124 4.73431 30.9151 4.73438C30.9763 4.73514 31.0259 4.78469 31.0264 4.84592C31.0271 4.9079 30.977 4.95854 30.9151 4.9593C30.8523 4.95968 30.8012 4.90866 30.8018 4.84592C30.8021 4.78658 30.8483 4.73816 30.9072 4.73438H30.9072ZM30.9072 5.29691C30.911 5.29683 30.9124 5.29683 30.9151 5.29691C30.9763 5.29766 31.0259 5.34675 31.0264 5.40798C31.0271 5.46996 30.977 5.5211 30.9151 5.52148C30.8523 5.52185 30.8012 5.47072 30.8018 5.40798C30.8021 5.34864 30.8483 5.30031 30.9072 5.29691H30.9072ZM30.9072 5.85943C30.911 5.85935 30.9124 5.85935 30.9151 5.85943C30.9763 5.86018 31.0259 5.90965 31.0264 5.9705C31.0271 6.03249 30.977 6.08313 30.9151 6.08388C30.8523 6.08426 30.8012 6.03324 30.8018 5.9705C30.8021 5.91116 30.8483 5.86283 30.9072 5.85943H30.9072ZM30.8955 6.42195H30.8975C30.905 6.42138 30.9074 6.42138 30.915 6.42195C30.9763 6.42271 31.0259 6.47214 31.0264 6.53337C31.026 6.59498 30.9763 6.64415 30.915 6.64491C30.8527 6.64529 30.8022 6.59536 30.8018 6.53337C30.8014 6.47819 30.8411 6.42951 30.8955 6.42195ZM30.9151 6.98251C30.9774 6.98327 31.0269 7.03391 31.0264 7.0959C31.0256 7.1575 30.9763 7.20659 30.9151 7.20697C30.8527 7.20735 30.8023 7.15788 30.8018 7.0959C30.8014 7.03316 30.8523 6.98214 30.9151 6.98251ZM30.9072 7.54492C30.911 7.54481 30.9124 7.54481 30.9151 7.54492C30.977 7.54568 31.027 7.59632 31.0264 7.6583C31.026 7.71991 30.9763 7.76911 30.9151 7.76949C30.8527 7.76987 30.8023 7.71991 30.8018 7.6583C30.801 7.59821 30.8475 7.5487 30.9072 7.54492H30.9072ZM25.3545 7.60352C25.5967 7.60011 25.8402 7.69003 26.0283 7.87295C26.4048 8.23919 26.412 8.83644 26.0459 9.21288L24.2373 11.0722C23.8712 11.4483 23.2737 11.458 22.8975 11.0911C22.521 10.7249 22.5138 10.1274 22.8799 9.7513L24.6885 7.89383C24.8715 7.70561 25.1123 7.60807 25.3545 7.60467V7.60352ZM30.9072 8.10744C30.911 8.10737 30.9124 8.10737 30.9151 8.10744C30.977 8.1082 31.027 8.15884 31.0264 8.22083C31.026 8.28243 30.9763 8.33149 30.9151 8.33225C30.8527 8.33262 30.8023 8.28281 30.8018 8.22083C30.801 8.16073 30.8475 8.11122 30.9072 8.10744H30.9072ZM30.9072 8.66997C30.911 8.66989 30.9124 8.66989 30.9151 8.66997C30.977 8.67072 31.027 8.72136 31.0264 8.78335C31.026 8.84496 30.9763 8.89401 30.9151 8.89477C30.8527 8.89515 30.8023 8.84533 30.8018 8.78335C30.801 8.72325 30.8475 8.67375 30.9072 8.66997H30.9072ZM30.9072 9.23238C30.911 9.2323 30.9124 9.2323 30.9151 9.23238C30.9763 9.23313 31.0259 9.28271 31.0264 9.34357C31.0271 9.40555 30.977 9.45657 30.9151 9.45695C30.8523 9.45732 30.8012 9.40631 30.8018 9.34357C30.8021 9.28423 30.8483 9.23578 30.9072 9.23238H30.9072ZM19.7861 9.60355C20.0283 9.60014 20.2718 9.69017 20.46 9.8731C20.8364 10.2393 20.8437 10.8365 20.4775 11.2129L18.6689 13.0722C18.3028 13.449 17.7053 13.458 17.3291 13.0911C16.9527 12.7249 16.9454 12.1274 17.3115 11.7513L19.1201 9.89398C19.3032 9.70576 19.5439 9.60822 19.7861 9.60482L19.7861 9.60355ZM30.9072 9.79524C30.911 9.79513 30.9124 9.79513 30.9151 9.79524C30.9763 9.796 31.0259 9.84509 31.0264 9.90632C31.0271 9.9683 30.977 10.0189 30.9151 10.0197C30.8523 10.0201 30.8012 9.96906 30.8018 9.90632C30.8021 9.84698 30.8483 9.79865 30.9072 9.79524H30.9072ZM30.8955 10.3577H30.8975C30.905 10.3571 30.9074 10.3571 30.915 10.3577C30.9763 10.3584 31.0259 10.408 31.0264 10.4692C31.0271 10.5312 30.977 10.5818 30.915 10.5826C30.8523 10.5829 30.8012 10.5319 30.8018 10.4692C30.8014 10.414 30.8411 10.3656 30.8955 10.3577ZM30.9151 10.9182C30.9774 10.919 31.0269 10.9696 31.0264 11.0316C31.0256 11.0932 30.9763 11.1424 30.9151 11.1428C30.8527 11.1432 30.8023 11.0932 30.8018 11.0316C30.8014 10.9689 30.8523 10.9178 30.9151 10.9182ZM30.9151 11.4807C30.9774 11.4815 31.0269 11.5321 31.0264 11.5941C31.0256 11.6553 30.9763 11.7048 30.9151 11.7052C30.8527 11.7059 30.8023 11.6557 30.8018 11.5941C30.8014 11.5314 30.8523 11.4804 30.9151 11.4807ZM30.9072 12.0433C30.911 12.0431 30.9124 12.0431 30.9151 12.0433C30.977 12.044 31.027 12.0947 31.0264 12.1566C31.026 12.2179 30.9763 12.2673 30.9151 12.2681C30.8527 12.2688 30.8023 12.2186 30.8018 12.1566C30.801 12.0965 30.8475 12.047 30.9072 12.0433H30.9072ZM25.3545 12.2991C25.5967 12.2957 25.8402 12.3856 26.0283 12.5685C26.4048 12.9348 26.412 13.532 26.0459 13.9085L24.2373 15.7678C23.8712 16.1469 23.2737 16.1536 22.8975 15.7867C22.521 15.4205 22.5138 14.8229 22.8799 14.4469L24.6885 12.5894C24.8715 12.4012 25.1123 12.3038 25.3545 12.3004V12.2991ZM30.9072 12.6057C30.911 12.6056 30.9124 12.6056 30.9151 12.6057C30.977 12.606 31.027 12.6571 31.0264 12.719C31.026 12.7803 30.9763 12.8297 30.9151 12.8305C30.8527 12.8312 30.8023 12.781 30.8018 12.719C30.801 12.659 30.8475 12.6094 30.9072 12.6057H30.9072ZM30.9072 13.1681C30.911 13.168 30.9124 13.168 30.9151 13.1681C30.9763 13.1688 31.0259 13.218 31.0264 13.2793C31.0271 13.3413 30.977 13.3923 30.9151 13.3926C30.8523 13.393 30.8012 13.342 30.8018 13.2793C30.8021 13.2199 30.8483 13.1715 30.9072 13.1681H30.9072ZM30.9072 13.7306C30.911 13.7305 30.9124 13.7305 30.9151 13.7306C30.9763 13.7314 31.0259 13.7809 31.0264 13.8418C31.0271 13.9038 30.977 13.9544 30.9151 13.9552C30.8523 13.9555 30.8012 13.9045 30.8018 13.8418C30.8021 13.7825 30.8483 13.734 30.9072 13.7306H30.9072ZM30.9072 14.2931C30.911 14.293 30.9124 14.293 30.9151 14.2931C30.9763 14.2935 31.0259 14.3433 31.0264 14.4045C31.0271 14.4665 30.977 14.5173 30.9151 14.518C30.8523 14.5184 30.8012 14.4673 30.8018 14.4045C30.8021 14.3456 30.8483 14.2969 30.9072 14.2931H30.9072ZM30.8955 14.8556H30.8975C30.905 14.8551 30.9074 14.8551 30.915 14.8556C30.9763 14.856 31.0259 14.9058 31.0264 14.9671C31.0271 15.029 30.977 15.0797 30.915 15.0804C30.8523 15.0808 30.8012 15.0298 30.8018 14.9671C30.8014 14.9123 30.8411 14.8636 30.8955 14.8556ZM19.7861 14.8631C20.0283 14.8597 20.2718 14.9498 20.46 15.1327C20.8364 15.4989 20.8437 16.0961 20.4775 16.4725L18.6689 18.3318C18.3028 18.7086 17.7054 18.7176 17.3291 18.3507C16.9527 17.9845 16.9454 17.387 17.3115 17.0109L19.1201 15.1535C19.3032 14.9652 19.5439 14.8678 19.7861 14.8644V14.8631ZM30.8955 15.4178H30.8975C30.905 15.4173 30.9074 15.4173 30.915 15.4178C30.9763 15.4186 31.0259 15.4681 31.0264 15.5294C31.026 15.5906 30.9763 15.6401 30.915 15.6409C30.8527 15.6413 30.8022 15.5913 30.8018 15.5294C30.8014 15.4742 30.8411 15.4258 30.8955 15.4178ZM30.9151 15.9784C30.9774 15.9791 31.0269 16.0298 31.0264 16.0918C31.0256 16.153 30.9763 16.2025 30.9151 16.2033C30.8527 16.2041 30.8023 16.1537 30.8018 16.0918C30.8014 16.029 30.8523 15.978 30.9151 15.9784ZM30.9072 16.5409C30.911 16.5408 30.9124 16.5408 30.9151 16.5409C30.977 16.5417 31.027 16.5923 31.0264 16.6543C31.026 16.7155 30.9763 16.7651 30.9151 16.7658C30.8527 16.7666 30.8023 16.7163 30.8018 16.6543C30.801 16.5942 30.8475 16.5447 30.9072 16.5409H30.9072ZM30.9072 17.1034C30.911 17.1034 30.9124 17.1034 30.9151 17.1034C30.977 17.1042 31.027 17.1548 31.0264 17.2168C31.026 17.2784 30.9763 17.3275 30.9151 17.3282C30.8527 17.3286 30.8023 17.2788 30.8018 17.2168C30.801 17.1567 30.8475 17.1072 30.9072 17.1034H30.9072ZM25.3545 17.5136C25.5967 17.5102 25.8402 17.6001 26.0283 17.783C26.4048 18.1493 26.412 18.7464 26.0459 19.1228L24.2373 20.9823C23.8712 21.3614 23.2737 21.3681 22.8975 21.0012C22.521 20.6349 22.5138 20.0374 22.8799 19.6614L24.6885 17.8039C24.8715 17.6157 25.1123 17.5181 25.3545 17.5147V17.5136ZM30.9072 17.6658C30.911 17.6658 30.9124 17.6658 30.9151 17.6658C30.9763 17.6662 31.0259 17.7158 31.0264 17.777C31.0271 17.839 30.977 17.8897 30.9151 17.8904C30.8523 17.8908 30.8012 17.8398 30.8018 17.777C30.8021 17.7181 30.8483 17.6692 30.9072 17.6658H30.9072ZM30.9072 18.2284C30.911 18.2282 30.9124 18.2282 30.9151 18.2284C30.9763 18.2287 31.0259 18.2787 31.0264 18.3399C31.0271 18.4019 30.977 18.4529 30.9151 18.4533C30.8523 18.4537 30.8012 18.4026 30.8018 18.3399C30.8021 18.2809 30.8483 18.2321 30.9072 18.2284H30.9072ZM30.9072 18.7909C30.911 18.7908 30.9124 18.7908 30.9151 18.7909C30.9763 18.7913 31.0259 18.8411 31.0264 18.9023C31.0271 18.9643 30.977 19.0149 30.9151 19.0157C30.8523 19.0161 30.8012 18.965 30.8018 18.9023C30.8021 18.8433 30.8483 18.7947 30.9072 18.7909H30.9072ZM30.8955 19.3534H30.8975C30.905 19.3528 30.9074 19.3528 30.915 19.3534C30.9763 19.3542 31.0259 19.4036 31.0264 19.4648C31.0271 19.5268 30.977 19.5775 30.915 19.5782C30.8523 19.5786 30.8012 19.5276 30.8018 19.4648C30.8014 19.4096 30.8411 19.3613 30.8955 19.3534ZM30.9151 19.9139C30.9774 19.9146 31.0269 19.9653 31.0264 20.0272C31.0256 20.0885 30.9763 20.138 30.9151 20.1388C30.8527 20.1395 30.8023 20.0892 30.8018 20.0272C30.8014 19.9645 30.8523 19.9135 30.9151 19.9139ZM19.7861 20.121C20.0284 20.1176 20.2718 20.2075 20.46 20.3904C20.8364 20.7567 20.8437 21.3539 20.4775 21.7304L18.669 23.5897C18.3028 23.9688 17.7054 23.9755 17.3291 23.6086C16.9527 23.2424 16.9454 22.6449 17.3115 22.2688L19.1201 20.4113C19.3032 20.2231 19.544 20.1257 19.7861 20.1223V20.121ZM30.9072 20.4763C30.9111 20.4762 30.9125 20.4762 30.9151 20.4763C30.977 20.4766 31.027 20.5277 31.0264 20.5896C31.026 20.6509 30.9763 20.7004 30.9151 20.7012C30.8527 20.7019 30.8023 20.6516 30.8018 20.5896C30.801 20.5295 30.8475 20.48 30.9072 20.4763H30.9072ZM30.9072 21.0388C30.9111 21.0387 30.9125 21.0387 30.9151 21.0388C30.977 21.0395 31.027 21.0902 31.0264 21.1522C31.026 21.2138 30.9763 21.2629 30.9151 21.2637C30.8527 21.2641 30.8023 21.2142 30.8018 21.1522C30.801 21.0921 30.8475 21.0426 30.9072 21.0388H30.9072ZM30.9072 21.6013C30.9111 21.6012 30.9125 21.6012 30.9151 21.6013C30.977 21.6021 31.027 21.6527 31.0264 21.7147C31.026 21.7763 30.9763 21.8254 30.9151 21.8258C30.8527 21.8261 30.8023 21.7767 30.8018 21.7147C30.801 21.6546 30.8475 21.6051 30.9072 21.6013H30.9072ZM30.9072 22.1638C30.9111 22.1637 30.9125 22.1637 30.9151 22.1638C30.9763 22.1642 31.0259 22.214 31.0264 22.2753C31.0271 22.3372 30.977 22.3879 30.9151 22.3886C30.8523 22.389 30.8012 22.338 30.8018 22.2753C30.8022 22.2163 30.8483 22.1676 30.9072 22.1638H30.9072ZM30.9072 22.7262C30.9111 22.7261 30.9125 22.7261 30.9151 22.7262C30.9763 22.7266 31.0259 22.7765 31.0264 22.8378C31.0271 22.8998 30.977 22.9504 30.9151 22.9512C30.8523 22.9515 30.8012 22.9005 30.8018 22.8378C30.8022 22.7788 30.8483 22.73 30.9072 22.7262H30.9072ZM25.3545 22.7282C25.5967 22.7248 25.8402 22.8148 26.0283 22.9978C26.4048 23.364 26.412 23.9611 26.0459 24.3376L24.2373 26.197C23.8712 26.5757 23.2737 26.5827 22.8975 26.2158C22.521 25.8496 22.5138 25.252 22.8799 24.876L24.6885 23.0186C24.8715 22.8304 25.1123 22.7329 25.3545 22.7295V22.7282ZM30.9072 23.2888C30.9111 23.2887 30.9125 23.2887 30.9151 23.2888C30.9763 23.2895 31.0259 23.3391 31.0264 23.4003C31.0271 23.4623 30.977 23.5129 30.9151 23.5137C30.8523 23.5141 30.8012 23.463 30.8018 23.4003C30.8022 23.341 30.8483 23.2925 30.9072 23.2888H30.9072ZM30.8955 23.8513H30.8975C30.905 23.8507 30.9074 23.8507 30.915 23.8513C30.9763 23.852 31.0259 23.9016 31.0264 23.9625C31.0271 24.0245 30.977 24.0755 30.915 24.0759C30.8523 24.0762 30.8012 24.0252 30.8018 23.9625C30.8014 23.9073 30.8411 23.8588 30.8955 23.8513H30.8955ZM30.8955 24.4138H30.8975C30.905 24.4132 30.9074 24.4132 30.915 24.4138C30.9763 24.4146 31.0259 24.4637 31.0264 24.5249C31.026 24.5861 30.9763 24.6357 30.915 24.6364C30.8527 24.6372 30.8023 24.5869 30.8018 24.5249C30.8014 24.4697 30.8411 24.4214 30.8955 24.4138H30.8955ZM30.9072 24.9744C30.9111 24.9743 30.9125 24.9743 30.9151 24.9744C30.977 24.9751 31.027 25.0258 31.0264 25.0878C31.026 25.1494 30.9763 25.1985 30.9151 25.1993C30.8527 25.1997 30.8023 25.1497 30.8018 25.0878C30.801 25.0277 30.8475 24.9781 30.9072 24.9744H30.9072ZM19.7861 25.3806C20.0284 25.3772 20.2718 25.4671 20.46 25.65C20.8364 26.0163 20.8437 26.6135 20.4775 26.99L18.669 28.8493C18.3028 29.2261 17.7054 29.2351 17.3291 28.8682C16.9527 28.502 16.9454 27.9045 17.3115 27.5284L19.1201 25.6709C19.3032 25.4827 19.544 25.3852 19.7861 25.3818V25.3806ZM30.9072 25.5367C30.9111 25.5366 30.9125 25.5366 30.9151 25.5367C30.977 25.5374 31.027 25.5881 31.0264 25.65C31.026 25.7117 30.9763 25.7609 30.9151 25.7612C30.8527 25.7616 30.8023 25.7117 30.8018 25.65C30.801 25.5899 30.8475 25.5404 30.9072 25.5367H30.9072ZM30.9072 26.0992C30.9111 26.0991 30.9125 26.0991 30.9151 26.0992C30.977 26.0999 31.027 26.1506 31.0264 26.2126C31.026 26.2742 30.9763 26.3233 30.9151 26.3236C30.8527 26.324 30.8023 26.2746 30.8018 26.2126C30.801 26.1525 30.8475 26.103 30.9072 26.0992H30.9072ZM30.9072 26.6617C30.9111 26.6616 30.9125 26.6616 30.9151 26.6617C30.9763 26.6625 31.0259 26.7119 31.0264 26.7731C31.0271 26.8351 30.977 26.8858 30.9151 26.8865C30.8523 26.8869 30.8012 26.8359 30.8018 26.7731C30.8022 26.7138 30.8483 26.6655 30.9072 26.6617H30.9072ZM30.9072 27.2242C30.9111 27.2242 30.9125 27.2242 30.9151 27.2242C30.9763 27.225 31.0259 27.2744 31.0264 27.3357C31.0271 27.3976 30.977 27.4483 30.9151 27.449C30.8523 27.4494 30.8012 27.3984 30.8018 27.3357C30.8022 27.2763 30.8483 27.228 30.9072 27.2242H30.9072ZM30.9072 27.7866C30.9111 27.7866 30.9125 27.7866 30.9151 27.7866C30.9763 27.7874 31.0259 27.8366 31.0264 27.8978C31.0271 27.9598 30.977 28.0108 30.9151 28.0112C30.8523 28.0116 30.8012 27.9606 30.8018 27.8978C30.8022 27.8385 30.8483 27.79 30.9072 27.7866H30.9072ZM25.3545 27.9428C25.5967 27.9394 25.8402 28.0293 26.0283 28.2123C26.4048 28.5785 26.412 29.1756 26.0459 29.5521L24.2373 31.4115C23.8712 31.7906 23.2737 31.7973 22.8975 31.4304C22.521 31.0642 22.5138 30.4667 22.8799 30.0906L24.6885 28.2331C24.8715 28.0449 25.1123 27.9474 25.3545 27.944V27.9428ZM30.8955 28.349H30.8975C30.905 28.3485 30.9074 28.3485 30.915 28.349C30.9763 28.3498 31.0259 28.3993 31.0264 28.4601C31.026 28.5213 30.9763 28.5709 30.915 28.5717C30.8527 28.5724 30.8023 28.5221 30.8018 28.4601C30.8014 28.4049 30.8411 28.3566 30.8955 28.349ZM30.9151 28.9096C30.9774 28.9104 31.027 28.961 31.0264 29.023C31.0256 29.0846 30.9763 29.1338 30.9151 29.1345C30.8527 29.1349 30.8023 29.085 30.8018 29.023C30.8014 28.9603 30.8523 28.9092 30.9151 28.9096ZM30.9072 29.4721C30.9111 29.4721 30.9125 29.4721 30.9151 29.4721C30.977 29.4729 31.027 29.5235 31.0264 29.5855C31.026 29.6471 30.9763 29.6962 30.9151 29.6966C30.8527 29.697 30.8023 29.6475 30.8018 29.5855C30.801 29.5254 30.8475 29.4759 30.9072 29.4721H30.9072ZM30.9072 30.0345C30.9111 30.0345 30.9125 30.0345 30.9151 30.0345C30.977 30.0353 31.027 30.0859 31.0264 30.1479C31.026 30.2095 30.9763 30.2587 30.9151 30.2591C30.8527 30.2595 30.8023 30.2095 30.8018 30.1479C30.801 30.0878 30.8475 30.0383 30.9072 30.0345H30.9072ZM30.9072 30.5971C30.9111 30.597 30.9125 30.597 30.9151 30.5971C30.977 30.5978 31.027 30.6485 31.0264 30.7104C31.026 30.7717 30.9763 30.8213 30.9151 30.8216C30.8527 30.8224 30.8023 30.7721 30.8018 30.7104C30.801 30.6504 30.8475 30.6008 30.9072 30.5971H30.9072ZM19.7861 30.6402C20.0283 30.6368 20.2718 30.7267 20.46 30.9096C20.8364 31.2759 20.8437 31.873 20.4775 32.2495L18.6689 34.1089C18.3028 34.4857 17.7054 34.4946 17.3291 34.1278C16.9527 33.7616 16.9454 33.1639 17.3115 32.7879L19.1201 30.9305C19.3032 30.7423 19.5439 30.6448 19.7861 30.6414L19.7861 30.6402ZM30.9072 31.1597C30.9111 31.1596 30.9125 31.1596 30.9151 31.1597C30.9763 31.1605 31.0259 31.21 31.0264 31.2712C31.0271 31.3332 30.977 31.3839 30.9151 31.3846C30.8523 31.385 30.8012 31.334 30.8018 31.2712C30.8022 31.2119 30.8483 31.1635 30.9072 31.1597H30.9072ZM30.9072 31.7222C30.9111 31.7221 30.9125 31.7221 30.9151 31.7222C30.9763 31.723 31.0259 31.7724 31.0264 31.8333C31.0271 31.8953 30.977 31.9463 30.9151 31.9467C30.8523 31.9471 30.8012 31.896 30.8018 31.8333C30.8022 31.774 30.8483 31.7256 30.9072 31.7222H30.9072ZM30.8955 32.2847H30.8975C30.905 32.2842 30.9074 32.2842 30.915 32.2847C30.9763 32.2855 31.0259 32.3346 31.0264 32.3958C31.0271 32.4578 30.977 32.5088 30.915 32.5092C30.8523 32.5096 30.8012 32.4586 30.8018 32.3958C30.8014 32.3406 30.8411 32.2923 30.8955 32.2847ZM30.8955 32.8473H30.8975C30.905 32.8467 30.9074 32.8467 30.915 32.8473C30.9763 32.8476 31.0259 32.8975 31.0264 32.9583C31.026 33.02 30.9763 33.0691 30.915 33.0699C30.8527 33.0703 30.8023 33.0203 30.8018 32.9583C30.8014 32.9035 30.8411 32.8548 30.8955 32.8473ZM30.9151 33.4077C30.9774 33.4085 31.027 33.4591 31.0264 33.5211C31.0256 33.5827 30.9763 33.6319 30.9151 33.6323C30.8527 33.6327 30.8023 33.5827 30.8018 33.5211C30.8014 33.4584 30.8523 33.4073 30.9151 33.4077ZM25.3545 33.9429C25.5967 33.9395 25.8402 34.0294 26.0283 34.2123C26.4048 34.5786 26.412 35.1758 26.0459 35.5523L24.2373 37.4116C23.8712 37.7899 23.2737 37.7974 22.8975 37.4305C22.521 37.0643 22.5138 36.4668 22.8799 36.0907L24.6885 34.2332C24.8716 34.045 25.1123 33.9475 25.3545 33.9441V33.9429ZM30.9072 33.9693C30.9111 33.9693 30.9125 33.9693 30.9151 33.9693C30.9771 33.9701 31.027 34.0207 31.0264 34.0827C31.026 34.1443 30.9763 34.1935 30.9151 34.1939C30.8527 34.1943 30.8023 34.1447 30.8018 34.0827C30.801 34.0226 30.8475 33.9731 30.9073 33.9693H30.9072ZM30.9072 34.5318C30.9111 34.5317 30.9125 34.5317 30.9151 34.5318C30.9771 34.5326 31.027 34.5832 31.0264 34.6452C31.026 34.7068 30.9763 34.756 30.9151 34.7564C30.8527 34.7568 30.8023 34.7068 30.8018 34.6452C30.801 34.5851 30.8475 34.5356 30.9073 34.5318H30.9072ZM30.9072 35.0944C30.9111 35.0942 30.9125 35.0942 30.9151 35.0944C30.9763 35.0951 31.0259 35.1447 31.0264 35.2059C31.0272 35.2679 30.977 35.3185 30.9151 35.3193C30.8523 35.3197 30.8012 35.2686 30.8018 35.2059C30.8022 35.1466 30.8483 35.0981 30.9073 35.0944H30.9072ZM30.9072 35.6569C30.9111 35.6568 30.9125 35.6568 30.9151 35.6569C30.9763 35.6576 31.0259 35.7067 31.0264 35.768C31.0272 35.8299 30.977 35.881 30.9151 35.8813C30.8523 35.8817 30.8012 35.8307 30.8018 35.768C30.8022 35.7086 30.8483 35.6603 30.9073 35.6569H30.9072ZM30.9072 36.2194C30.9111 36.2193 30.9125 36.2193 30.9151 36.2194C30.9763 36.2202 31.0259 36.2696 31.0264 36.3305C31.0272 36.3925 30.977 36.4435 30.9151 36.4439C30.8523 36.4442 30.8012 36.3932 30.8018 36.3305C30.8022 36.2711 30.8483 36.2228 30.9073 36.2194H30.9072ZM19.7862 36.6393C20.0284 36.6359 20.2718 36.7259 20.46 36.9088C20.8364 37.275 20.8437 37.8722 20.4776 38.2486L18.669 40.1079C18.3028 40.484 17.7054 40.4937 17.3291 40.1269C16.9527 39.7606 16.9454 39.1631 17.3115 38.787L19.1201 36.9297C19.3032 36.7415 19.544 36.6439 19.7862 36.6405V36.6393ZM30.9072 36.7818C30.9111 36.7817 30.9125 36.7817 30.9151 36.7818C30.9763 36.7826 31.0259 36.8317 31.0264 36.8929C31.0272 36.9549 30.977 37.0055 30.9151 37.0063C30.8523 37.0067 30.8012 36.9556 30.8018 36.8929C30.8022 36.8336 30.8483 36.7852 30.9073 36.7818H30.9072ZM30.8955 37.3442H30.8975C30.905 37.3437 30.9075 37.3437 30.9151 37.3442C30.9763 37.345 31.0259 37.3945 31.0264 37.4558C31.026 37.517 30.9763 37.5665 30.9151 37.5668C30.8527 37.5676 30.8023 37.5177 30.8018 37.4558C30.8014 37.4006 30.8411 37.3522 30.8955 37.3442ZM30.9072 37.9048C30.9111 37.9048 30.9125 37.9048 30.9151 37.9048C30.9771 37.9055 31.027 37.9562 31.0264 38.0182C31.026 38.0798 30.9763 38.1289 30.9151 38.1292C30.8527 38.1296 30.8023 38.0798 30.8018 38.0182C30.801 37.9581 30.8475 37.9086 30.9073 37.9048H30.9072ZM30.9072 38.4673C30.9111 38.4672 30.9125 38.4672 30.9151 38.4673C30.9771 38.4681 31.027 38.5187 31.0264 38.5807C31.026 38.6423 30.9763 38.6914 30.9151 38.6918C30.8527 38.6921 30.8023 38.6423 30.8018 38.5807C30.801 38.5206 30.8475 38.4711 30.9073 38.4673H30.9072ZM30.9072 39.0298C30.9111 39.0297 30.9125 39.0297 30.9151 39.0298C30.9771 39.0306 31.027 39.0812 31.0264 39.1432C31.026 39.2048 30.9763 39.2539 30.9151 39.2546C30.8527 39.255 30.8023 39.2052 30.8018 39.1432C30.801 39.0831 30.8475 39.0336 30.9073 39.0298H30.9072ZM30.9072 39.5924C30.9111 39.5923 30.9125 39.5923 30.9151 39.5924C30.9763 39.5931 31.0259 39.6425 31.0264 39.7038C31.0272 39.7658 30.977 39.8164 30.9151 39.8172C30.8523 39.8175 30.8012 39.7665 30.8018 39.7038C30.8022 39.6444 30.8483 39.5961 30.9073 39.5924H30.9072ZM30.9072 40.1548C30.9111 40.1547 30.9125 40.1547 30.9151 40.1548C30.9763 40.1555 31.0259 40.2047 31.0264 40.266C31.0272 40.3279 30.977 40.379 30.9151 40.3793C30.8523 40.3797 30.8012 40.3287 30.8018 40.266C30.8022 40.2066 30.8483 40.1582 30.9073 40.1548H30.9072ZM30.9072 40.7173C30.9111 40.7172 30.9125 40.7172 30.9151 40.7173C30.9763 40.718 31.0259 40.7676 31.0264 40.8285C31.0272 40.8905 30.977 40.9411 30.9151 40.9419C30.8523 40.9422 30.8012 40.8912 30.8018 40.8285C30.8022 40.7691 30.8483 40.7207 30.9073 40.7173H30.9072ZM30.8955 41.2798H30.8975C30.905 41.2792 30.9075 41.2792 30.9151 41.2798C30.9763 41.2806 31.0259 41.3301 31.0264 41.3913C31.0271 41.4533 30.977 41.504 30.9151 41.5047C30.8523 41.5051 30.8012 41.4541 30.8018 41.3913C30.8014 41.3362 30.8411 41.2877 30.8955 41.2798ZM30.8955 41.8423H30.8975C30.905 41.8418 30.9075 41.8418 30.9151 41.8423C30.9763 41.8431 31.0259 41.8925 31.0264 41.9538C31.026 42.0154 30.9763 42.0646 30.9151 42.0649C30.8527 42.0653 30.8023 42.0157 30.8018 41.9538C30.8014 41.8986 30.8411 41.8503 30.8955 41.8423ZM30.9151 42.4029C30.9774 42.4037 31.027 42.4543 31.0264 42.5163C31.0256 42.5779 30.9763 42.627 30.9151 42.6273C30.8527 42.6277 30.8023 42.5779 30.8018 42.5163C30.8014 42.4535 30.8523 42.4025 30.9151 42.4029ZM30.9072 42.9653C30.9111 42.9652 30.9125 42.9652 30.9151 42.9653C30.9771 42.9661 31.027 43.0167 31.0264 43.0787C31.026 43.1403 30.9763 43.1895 30.9151 43.1902C30.8527 43.1906 30.8023 43.1407 30.8018 43.0787C30.801 43.0186 30.8475 42.9691 30.9073 42.9653H30.9072Z" fill="#333333"/>
</svg>
