<svg width="48" height="48" viewBox="0 0 48 48" fill="none" xmlns="http://www.w3.org/2000/svg">
<g clip-path="url(#clip0)">
<path fill-rule="evenodd" clip-rule="evenodd" d="M0.0878906 0.09375V48.0937H48.0879V0.09375H0.0878906ZM14.2363 4.09375H33.9414C34.8108 4.09375 35.5098 4.79267 35.5098 5.66211V42.5234C35.5098 43.3929 34.8108 44.0937 33.9414 44.0937H14.2363C13.3669 44.0937 12.668 43.3929 12.668 42.5234V41.0684V5.66211C12.668 4.79267 13.3669 4.09375 14.2363 4.09375ZM30.9336 4.82812C30.8746 4.8319 30.8285 4.88011 30.8281 4.93945C30.8275 5.00219 30.8787 5.05311 30.9414 5.05273C31.0034 5.05198 31.0535 5.00144 31.0527 4.93945C31.0523 4.87822 31.0026 4.82888 30.9414 4.82812C30.9388 4.82805 30.9374 4.82805 30.9336 4.82812ZM30.9336 5.39062C30.8746 5.39403 30.8285 5.44261 30.8281 5.50195C30.8275 5.56469 30.8787 5.61561 30.9414 5.61523C31.0034 5.61486 31.0535 5.56394 31.0527 5.50195C31.0523 5.44072 31.0026 5.39138 30.9414 5.39062C30.9388 5.39055 30.9374 5.39055 30.9336 5.39062ZM30.9336 5.95312C30.8746 5.95653 30.8285 6.00511 30.8281 6.06445C30.8275 6.12719 30.8787 6.17811 30.9414 6.17773C31.0034 6.17698 31.0535 6.12644 31.0527 6.06445C31.0523 6.0036 31.0026 5.95388 30.9414 5.95312C30.9388 5.95305 30.9374 5.95305 30.9336 5.95312ZM30.9219 6.51562C30.8674 6.52318 30.8277 6.57177 30.8281 6.62695C30.8286 6.68894 30.879 6.73866 30.9414 6.73828C31.0026 6.73752 31.0524 6.68856 31.0527 6.62695C31.0523 6.56572 31.0026 6.51638 30.9414 6.51562C30.9338 6.51506 30.9314 6.51506 30.9238 6.51562H30.9219ZM30.9414 7.07617C30.8787 7.07579 30.8277 7.12671 30.8281 7.18945C30.8286 7.25144 30.879 7.30116 30.9414 7.30078C31.0026 7.3004 31.052 7.25106 31.0527 7.18945C31.0533 7.12747 31.0038 7.07693 30.9414 7.07617ZM30.9336 7.63867C30.8739 7.64245 30.8274 7.69186 30.8281 7.75195C30.8286 7.81356 30.879 7.86366 30.9414 7.86328C31.0026 7.8629 31.0524 7.81356 31.0527 7.75195C31.0533 7.68997 31.0034 7.63943 30.9414 7.63867C30.9388 7.63856 30.9374 7.63856 30.9336 7.63867ZM30.9336 8.20117C30.8739 8.20495 30.8274 8.25436 30.8281 8.31445C30.8286 8.37644 30.879 8.42616 30.9414 8.42578C31.0026 8.42502 31.0524 8.37606 31.0527 8.31445C31.0533 8.25247 31.0034 8.20193 30.9414 8.20117C30.9388 8.2011 30.9374 8.2011 30.9336 8.20117ZM30.9336 8.76367C30.8739 8.76745 30.8274 8.81686 30.8281 8.87695C30.8286 8.93894 30.879 8.98866 30.9414 8.98828C31.0026 8.98752 31.0524 8.93856 31.0527 8.87695C31.0533 8.81497 31.0034 8.76443 30.9414 8.76367C30.9388 8.7636 30.9374 8.7636 30.9336 8.76367ZM30.9336 9.32617C30.8746 9.32957 30.8285 9.37816 30.8281 9.4375C30.8275 9.50024 30.8787 9.55116 30.9414 9.55078C31.0034 9.5504 31.0535 9.49948 31.0527 9.4375C31.0523 9.37665 31.0026 9.32693 30.9414 9.32617C30.9388 9.3261 30.9374 9.3261 30.9336 9.32617ZM30.9336 9.88867C30.8746 9.89207 30.8285 9.94066 30.8281 10C30.8275 10.0627 30.8787 10.1137 30.9414 10.1133C31.0034 10.1125 31.0535 10.062 31.0527 10C31.0523 9.93877 31.0026 9.88943 30.9414 9.88867C30.9388 9.88856 30.9374 9.88856 30.9336 9.88867ZM30.9219 10.4512C30.8674 10.4591 30.8277 10.5073 30.8281 10.5625C30.8275 10.6252 30.8787 10.6762 30.9414 10.6758C31.0034 10.675 31.0535 10.6245 31.0527 10.5625C31.0523 10.5013 31.0026 10.4519 30.9414 10.4512C30.9338 10.4506 30.9314 10.4506 30.9238 10.4512H30.9219ZM30.9414 11.0117C30.8787 11.0113 30.8277 11.0623 30.8281 11.125C30.8286 11.1866 30.879 11.2367 30.9414 11.2363C31.0026 11.2359 31.052 11.1866 31.0527 11.125C31.0533 11.063 31.0038 11.0125 30.9414 11.0117ZM30.9414 11.5742C30.8787 11.5738 30.8277 11.6248 30.8281 11.6875C30.8286 11.7491 30.879 11.7996 30.9414 11.7988C31.0026 11.7984 31.052 11.7487 31.0527 11.6875C31.0533 11.6255 31.0038 11.575 30.9414 11.5742ZM21.748 11.9141C20.8644 11.9141 20.1485 12.6301 20.1484 13.5137C20.1485 14.3973 20.8644 15.1133 21.748 15.1133C22.6317 15.1133 23.3476 14.3973 23.3477 13.5137C23.3476 12.6301 22.6317 11.9141 21.748 11.9141ZM30.9336 12.1367C30.8739 12.1405 30.8274 12.1899 30.8281 12.25C30.8286 12.312 30.879 12.3621 30.9414 12.3613C31.0026 12.3606 31.0524 12.3112 31.0527 12.25C31.0533 12.188 31.0034 12.1375 30.9414 12.1367C30.9388 12.1366 30.9374 12.1366 30.9336 12.1367ZM30.9336 12.6992C30.8739 12.703 30.8274 12.7524 30.8281 12.8125C30.8286 12.8745 30.879 12.9246 30.9414 12.9238C31.0026 12.9231 31.0524 12.8737 31.0527 12.8125C31.0533 12.7505 31.0034 12.6996 30.9414 12.6992C30.9388 12.6991 30.9374 12.6991 30.9336 12.6992ZM30.9336 13.2617C30.8746 13.2651 30.8285 13.3137 30.8281 13.373C30.8275 13.4358 30.8787 13.4867 30.9414 13.4863C31.0034 13.4859 31.0535 13.435 31.0527 13.373C31.0523 13.3118 31.0026 13.2625 30.9414 13.2617C30.9388 13.2616 30.9374 13.2616 30.9336 13.2617ZM30.9336 13.8242C30.8746 13.8276 30.8285 13.8762 30.8281 13.9355C30.8275 13.9983 30.8787 14.0492 30.9414 14.0488C31.0034 14.0481 31.0535 13.9975 31.0527 13.9355C31.0523 13.8747 31.0026 13.825 30.9414 13.8242C30.9388 13.8241 30.9374 13.8241 30.9336 13.8242ZM30.9336 14.3867C30.8746 14.3905 30.8285 14.4391 30.8281 14.498C30.8275 14.5608 30.8787 14.6117 30.9414 14.6113C31.0034 14.6106 31.0535 14.56 31.0527 14.498C31.0523 14.4368 31.0026 14.3871 30.9414 14.3867C30.9388 14.3866 30.9374 14.3866 30.9336 14.3867ZM30.9219 14.9492C30.8674 14.9572 30.8277 15.0057 30.8281 15.0605C30.8275 15.1233 30.8787 15.1742 30.9414 15.1738C31.0034 15.1731 31.0535 15.1225 31.0527 15.0605C31.0523 14.9993 31.0026 14.9496 30.9414 14.9492C30.9338 14.9487 30.9314 14.9487 30.9238 14.9492H30.9219ZM30.9219 15.5117C30.8674 15.5197 30.8277 15.5679 30.8281 15.623C30.8286 15.685 30.879 15.7348 30.9414 15.7344C31.0026 15.7336 31.0524 15.6843 31.0527 15.623C31.0523 15.5618 31.0026 15.5125 30.9414 15.5117C30.9338 15.5112 30.9314 15.5112 30.9238 15.5117H30.9219ZM30.9414 16.0723C30.8787 16.0719 30.8277 16.1228 30.8281 16.1855C30.8286 16.2475 30.879 16.2976 30.9414 16.2969C31.0026 16.2961 31.052 16.2468 31.0527 16.1855C31.0533 16.1236 31.0038 16.073 30.9414 16.0723ZM30.9336 16.6348C30.8739 16.6385 30.8274 16.688 30.8281 16.748C30.8286 16.81 30.879 16.8601 30.9414 16.8594C31.0026 16.8586 31.0524 16.8093 31.0527 16.748C31.0533 16.6861 31.0034 16.6355 30.9414 16.6348C30.9388 16.6347 30.9374 16.6347 30.9336 16.6348ZM30.9336 17.1973C30.8739 17.201 30.8274 17.2504 30.8281 17.3105C30.8286 17.3725 30.879 17.4223 30.9414 17.4219C31.0026 17.4211 31.0524 17.3722 31.0527 17.3105C31.0533 17.2486 31.0034 17.198 30.9414 17.1973C30.9388 17.1972 30.9374 17.1972 30.9336 17.1973ZM21.748 17.2051C20.8644 17.2051 20.1485 17.9211 20.1484 18.8047C20.1485 19.6883 20.8644 20.4043 21.748 20.4043C22.6317 20.4043 23.3476 19.6883 23.3477 18.8047C23.3476 17.9211 22.6317 17.2051 21.748 17.2051ZM30.9336 17.7617C30.8746 17.7651 30.8285 17.8141 30.8281 17.873C30.8275 17.9358 30.8787 17.9867 30.9414 17.9863C31.0034 17.9856 31.0535 17.935 31.0527 17.873C31.0523 17.8118 31.0026 17.7621 30.9414 17.7617C30.9388 17.7616 30.9374 17.7616 30.9336 17.7617ZM30.9336 18.3242C30.8746 18.328 30.8285 18.3766 30.8281 18.4355C30.8275 18.4983 30.8787 18.5492 30.9414 18.5488C31.0034 18.5484 31.0535 18.4975 31.0527 18.4355C31.0523 18.3743 31.0026 18.3246 30.9414 18.3242C30.9388 18.3241 30.9374 18.3241 30.9336 18.3242ZM30.9336 18.8867C30.8746 18.8905 30.8285 18.9391 30.8281 18.998C30.8275 19.0608 30.8787 19.1117 30.9414 19.1113C31.0034 19.1106 31.0535 19.06 31.0527 18.998C31.0523 18.9368 31.0026 18.8871 30.9414 18.8867C30.9388 18.8866 30.9374 18.8866 30.9336 18.8867ZM30.9219 19.4492C30.8674 19.4572 30.8277 19.5054 30.8281 19.5605C30.8275 19.6233 30.8787 19.6742 30.9414 19.6738C31.0034 19.6731 31.0535 19.6225 31.0527 19.5605C31.0523 19.4993 31.0026 19.45 30.9414 19.4492C30.9338 19.4487 30.9314 19.4487 30.9238 19.4492H30.9219ZM30.9414 20.0098C30.8787 20.0094 30.8277 20.0603 30.8281 20.123C30.8286 20.185 30.879 20.2351 30.9414 20.2344C31.0026 20.2336 31.052 20.1843 31.0527 20.123C31.0533 20.0611 31.0038 20.0105 30.9414 20.0098ZM30.9336 20.5723C30.8739 20.576 30.8274 20.6254 30.8281 20.6855C30.8286 20.7475 30.879 20.7976 30.9414 20.7969C31.0026 20.7961 31.0524 20.7468 31.0527 20.6855C31.0533 20.6236 31.0034 20.5726 30.9414 20.5723C30.9388 20.5722 30.9374 20.5722 30.9336 20.5723ZM30.9336 21.1348C30.8739 21.1385 30.8274 21.1879 30.8281 21.248C30.8286 21.31 30.879 21.3598 30.9414 21.3594C31.0026 21.3586 31.0524 21.3097 31.0527 21.248C31.0533 21.1861 31.0034 21.1355 30.9414 21.1348C30.9388 21.1347 30.9374 21.1347 30.9336 21.1348ZM30.9336 21.6973C30.8739 21.701 30.8274 21.7504 30.8281 21.8105C30.8286 21.8725 30.879 21.9223 30.9414 21.9219C31.0026 21.9215 31.0524 21.8722 31.0527 21.8105C31.0533 21.7486 31.0034 21.698 30.9414 21.6973C30.9388 21.6972 30.9374 21.6972 30.9336 21.6973ZM30.9336 22.2598C30.8746 22.2635 30.8285 22.3121 30.8281 22.3711C30.8275 22.4338 30.8787 22.4848 30.9414 22.4844C31.0034 22.4836 31.0535 22.4331 31.0527 22.3711C31.0523 22.3099 31.0026 22.2601 30.9414 22.2598C30.9388 22.2596 30.9374 22.2596 30.9336 22.2598ZM21.748 22.4941C20.8644 22.4942 20.1485 23.2101 20.1484 24.0937C20.1485 24.9774 20.8644 25.6934 21.748 25.6934C22.6317 25.6934 23.3476 24.9774 23.3477 24.0937C23.3476 23.2101 22.6317 22.4942 21.748 22.4941ZM30.9336 22.8223C30.8746 22.826 30.8285 22.8746 30.8281 22.9336C30.8275 22.9963 30.8787 23.0473 30.9414 23.0469C31.0034 23.0461 31.0535 22.9956 31.0527 22.9336C31.0523 22.8724 31.0026 22.8226 30.9414 22.8223C30.9388 22.8221 30.9374 22.8221 30.9336 22.8223ZM30.9336 23.3848C30.8746 23.3885 30.8285 23.4368 30.8281 23.4961C30.8275 23.5588 30.8787 23.6098 30.9414 23.6094C31.0034 23.6086 31.0535 23.5581 31.0527 23.4961C31.0523 23.4349 31.0026 23.3855 30.9414 23.3848C30.9388 23.3847 30.9374 23.3847 30.9336 23.3848ZM30.9219 23.9473C30.8674 23.9548 30.8277 24.0015 30.8281 24.0566C30.8275 24.1194 30.8787 24.1723 30.9414 24.1719C31.0034 24.1715 31.0535 24.1186 31.0527 24.0566C31.0523 23.9958 31.0026 23.948 30.9414 23.9473C30.9338 23.9467 30.9314 23.9467 30.9238 23.9473H30.9219ZM30.9219 24.5098C30.8674 24.5173 30.8277 24.564 30.8281 24.6191C30.8286 24.6811 30.879 24.7332 30.9414 24.7324C31.0026 24.7317 31.0524 24.6804 31.0527 24.6191C31.0523 24.5579 31.0026 24.5105 30.9414 24.5098C30.9338 24.5092 30.9314 24.5092 30.9238 24.5098H30.9219ZM30.9336 25.0703C30.8739 25.0741 30.8274 25.1235 30.8281 25.1836C30.8286 25.2456 30.879 25.2953 30.9414 25.2949C31.0026 25.2942 31.0524 25.2452 31.0527 25.1836C31.0533 25.1216 31.0034 25.0711 30.9414 25.0703C30.9388 25.0702 30.9374 25.0702 30.9336 25.0703ZM30.9336 25.6328C30.8739 25.6366 30.8274 25.686 30.8281 25.7461C30.8286 25.8077 30.879 25.8578 30.9414 25.8574C31.0026 25.857 31.0524 25.8077 31.0527 25.7461C31.0533 25.6841 31.0034 25.6336 30.9414 25.6328C30.9388 25.6327 30.9374 25.6327 30.9336 25.6328ZM30.9336 26.1953C30.8739 26.1991 30.8274 26.2485 30.8281 26.3086C30.8286 26.3706 30.879 26.4203 30.9414 26.4199C31.0026 26.4195 31.0524 26.3702 31.0527 26.3086C31.0533 26.2466 31.0034 26.1961 30.9414 26.1953C30.9388 26.1952 30.9374 26.1952 30.9336 26.1953ZM30.9336 26.7578C30.8746 26.7616 30.8285 26.8098 30.8281 26.8691C30.8275 26.9319 30.8787 26.9828 30.9414 26.9824C31.0034 26.9817 31.0535 26.9311 31.0527 26.8691C31.0523 26.8079 31.0026 26.7586 30.9414 26.7578C30.9388 26.7577 30.9374 26.7577 30.9336 26.7578ZM30.9336 27.3203C30.8746 27.3241 30.8285 27.3723 30.8281 27.4316C30.8275 27.4944 30.8787 27.5453 30.9414 27.5449C31.0034 27.5442 31.0535 27.4936 31.0527 27.4316C31.0523 27.3704 31.0026 27.3211 30.9414 27.3203C30.9388 27.3202 30.9374 27.3202 30.9336 27.3203ZM21.748 27.7832C20.8644 27.7832 20.1485 28.4992 20.1484 29.3828C20.1485 30.2665 20.8644 30.9824 21.748 30.9824C22.6317 30.9824 23.3476 30.2665 23.3477 29.3828C23.3476 28.4992 22.6317 27.7832 21.748 27.7832ZM30.9336 27.8828C30.8746 27.8862 30.8285 27.9348 30.8281 27.9941C30.8275 28.0569 30.8787 28.1078 30.9414 28.1074C31.0034 28.107 31.0535 28.0561 31.0527 27.9941C31.0523 27.9329 31.0026 27.8836 30.9414 27.8828C30.9388 27.8827 30.9374 27.8827 30.9336 27.8828ZM30.9219 28.4453C30.8674 28.4529 30.8277 28.5015 30.8281 28.5566C30.8286 28.6186 30.879 28.6687 30.9414 28.668C31.0026 28.6672 31.0524 28.6179 31.0527 28.5566C31.0523 28.4958 31.0026 28.4461 30.9414 28.4453C30.9338 28.4447 30.9314 28.4447 30.9238 28.4453H30.9219ZM30.9414 29.0059C30.8787 29.0055 30.8277 29.0564 30.8281 29.1191C30.8286 29.1811 30.879 29.2308 30.9414 29.2305C31.0026 29.2297 31.052 29.1807 31.0527 29.1191C31.0533 29.0572 31.0038 29.0066 30.9414 29.0059ZM30.9336 29.5684C30.8739 29.5721 30.8274 29.6215 30.8281 29.6816C30.8286 29.7436 30.879 29.7933 30.9414 29.793C31.0026 29.7926 31.0524 29.7432 31.0527 29.6816C31.0533 29.6197 31.0034 29.5691 30.9414 29.5684C30.9388 29.5683 30.9374 29.5683 30.9336 29.5684ZM30.9336 30.1309C30.8739 30.1346 30.8274 30.184 30.8281 30.2441C30.8286 30.3057 30.879 30.3558 30.9414 30.3555C31.0026 30.3551 31.0524 30.3057 31.0527 30.2441C31.0533 30.1822 31.0034 30.1316 30.9414 30.1309C30.9388 30.1308 30.9374 30.1308 30.9336 30.1309ZM30.9336 30.6934C30.8739 30.6971 30.8274 30.7465 30.8281 30.8066C30.8286 30.8682 30.879 30.9187 30.9414 30.918C31.0026 30.9176 31.0524 30.8679 31.0527 30.8066C31.0533 30.7447 31.0034 30.6941 30.9414 30.6934C30.9388 30.6932 30.9374 30.6932 30.9336 30.6934ZM30.9336 31.2559C30.8746 31.2596 30.8285 31.3078 30.8281 31.3672C30.8275 31.4299 30.8787 31.4808 30.9414 31.4805C31.0034 31.4797 31.0535 31.4292 31.0527 31.3672C31.0523 31.306 31.0026 31.2566 30.9414 31.2559C30.9388 31.2557 30.9374 31.2557 30.9336 31.2559ZM30.9336 31.8184C30.8746 31.8218 30.8285 31.8703 30.8281 31.9297C30.8275 31.9924 30.8787 32.0433 30.9414 32.043C31.0034 32.0426 31.0535 31.9917 31.0527 31.9297C31.0523 31.8688 31.0026 31.8191 30.9414 31.8184C30.9388 31.8183 30.9374 31.8183 30.9336 31.8184ZM30.9219 32.3809C30.8674 32.3884 30.8277 32.437 30.8281 32.4922C30.8275 32.5549 30.8787 32.6058 30.9414 32.6055C31.0034 32.6051 31.0535 32.5542 31.0527 32.4922C31.0523 32.431 31.0026 32.3816 30.9414 32.3809C30.9338 32.3803 30.9314 32.3803 30.9238 32.3809H30.9219ZM30.9219 32.9434C30.8674 32.9509 30.8277 32.9999 30.8281 33.0547C30.8286 33.1167 30.879 33.1664 30.9414 33.166C31.0026 33.1653 31.0524 33.1163 31.0527 33.0547C31.0523 32.9938 31.0026 32.9437 30.9414 32.9434C30.9338 32.9428 30.9314 32.9428 30.9238 32.9434H30.9219ZM21.748 33.0742C20.8644 33.0743 20.1485 33.7902 20.1484 34.6738C20.1485 35.5575 20.8644 36.2734 21.748 36.2734C22.6317 36.2734 23.3476 35.5575 23.3477 34.6738C23.3476 33.7902 22.6317 33.0743 21.748 33.0742ZM30.9414 33.5039C30.8787 33.5035 30.8277 33.5544 30.8281 33.6172C30.8286 33.6788 30.879 33.7289 30.9414 33.7285C31.0026 33.7281 31.052 33.6788 31.0527 33.6172C31.0533 33.5552 31.0038 33.5047 30.9414 33.5039ZM30.9336 34.0664C30.8739 34.0702 30.8274 34.1196 30.8281 34.1797C30.8286 34.2417 30.879 34.2914 30.9414 34.291C31.0026 34.2906 31.0524 34.2413 31.0527 34.1797C31.0533 34.1177 31.0034 34.0672 30.9414 34.0664C30.9388 34.0664 30.9374 34.0664 30.9336 34.0664ZM30.9336 34.6289C30.8739 34.6327 30.8274 34.6821 30.8281 34.7422C30.8286 34.8038 30.879 34.8539 30.9414 34.8535C31.0026 34.8531 31.0524 34.8038 31.0527 34.7422C31.0533 34.6802 31.0034 34.6297 30.9414 34.6289C30.9388 34.6288 30.9374 34.6288 30.9336 34.6289ZM30.9336 35.1914C30.8746 35.1952 30.8285 35.2434 30.8281 35.3027C30.8275 35.3655 30.8787 35.4164 30.9414 35.416C31.0034 35.4153 31.0535 35.3647 31.0527 35.3027C31.0523 35.2415 31.0026 35.1922 30.9414 35.1914C30.9388 35.1913 30.9374 35.1913 30.9336 35.1914ZM30.9336 35.7539C30.8746 35.7573 30.8285 35.8059 30.8281 35.8652C30.8275 35.928 30.8787 35.9789 30.9414 35.9785C31.0034 35.9781 31.0535 35.9272 31.0527 35.8652C31.0523 35.804 31.0026 35.7547 30.9414 35.7539C30.9388 35.7538 30.9374 35.7538 30.9336 35.7539ZM30.9336 36.3164C30.8746 36.3198 30.8285 36.3684 30.8281 36.4277C30.8275 36.4905 30.8787 36.5414 30.9414 36.541C31.0034 36.5406 31.0535 36.4897 31.0527 36.4277C31.0523 36.3669 31.0026 36.3172 30.9414 36.3164C30.9388 36.3163 30.9374 36.3163 30.9336 36.3164ZM30.9336 36.8789C30.8746 36.8823 30.8285 36.9309 30.8281 36.9902C30.8275 37.053 30.8787 37.1039 30.9414 37.1035C31.0034 37.1028 31.0535 37.0522 31.0527 36.9902C31.0523 36.929 31.0026 36.8797 30.9414 36.8789C30.9388 36.8788 30.9374 36.8788 30.9336 36.8789ZM30.9219 37.4414C30.8674 37.4493 30.8277 37.4975 30.8281 37.5527C30.8286 37.6147 30.879 37.6648 30.9414 37.6641C31.0026 37.6637 31.0524 37.614 31.0527 37.5527C31.0523 37.4915 31.0026 37.4422 30.9414 37.4414C30.9338 37.4408 30.9314 37.4408 30.9238 37.4414H30.9219ZM30.9336 38.002C30.8739 38.0057 30.8274 38.0551 30.8281 38.1152C30.8286 38.1768 30.879 38.2269 30.9414 38.2266C31.0026 38.2262 31.0524 38.1768 31.0527 38.1152C31.0533 38.0532 31.0034 38.0027 30.9414 38.002C30.9388 38.0019 30.9374 38.0019 30.9336 38.002ZM30.9336 38.5644C30.8739 38.5682 30.8274 38.6176 30.8281 38.6777C30.8286 38.7393 30.879 38.7894 30.9414 38.7891C31.0026 38.7887 31.0524 38.7393 31.0527 38.6777C31.0533 38.6157 31.0034 38.5652 30.9414 38.5644C30.9388 38.5643 30.9374 38.5643 30.9336 38.5644ZM30.9336 39.127C30.8739 39.1307 30.8274 39.1801 30.8281 39.2402C30.8286 39.3022 30.879 39.3519 30.9414 39.3516C31.0026 39.3508 31.0524 39.3018 31.0527 39.2402C31.0533 39.1782 31.0034 39.1277 30.9414 39.127C30.9388 39.1268 30.9374 39.1268 30.9336 39.127ZM30.9336 39.6894C30.8746 39.6932 30.8285 39.7414 30.8281 39.8008C30.8275 39.8635 30.8787 39.9144 30.9414 39.9141C31.0034 39.9133 31.0535 39.8628 31.0527 39.8008C31.0523 39.7396 31.0026 39.6902 30.9414 39.6894C30.9388 39.6894 30.9374 39.6894 30.9336 39.6894ZM30.9336 40.252C30.8746 40.2554 30.8285 40.3039 30.8281 40.3633C30.8275 40.426 30.8787 40.4769 30.9414 40.4766C31.0034 40.4762 31.0535 40.4253 31.0527 40.3633C31.0523 40.302 31.0026 40.2527 30.9414 40.252C30.9388 40.2519 30.9374 40.2519 30.9336 40.252ZM30.9336 40.8144C30.8746 40.8179 30.8285 40.8664 30.8281 40.9258C30.8275 40.9885 30.8787 41.0394 30.9414 41.0391C31.0034 41.0383 31.0535 40.9878 31.0527 40.9258C31.0523 40.8649 31.0026 40.8152 30.9414 40.8144C30.9388 40.8144 30.9374 40.8144 30.9336 40.8144ZM30.9219 41.377C30.8674 41.3849 30.8277 41.4331 30.8281 41.4883C30.8275 41.551 30.8787 41.6019 30.9414 41.6016C31.0034 41.6008 31.0535 41.5503 31.0527 41.4883C31.0523 41.427 31.0026 41.3777 30.9414 41.377C30.9338 41.3764 30.9314 41.3764 30.9238 41.377H30.9219ZM30.9219 41.9394C30.8674 41.9474 30.8277 41.9956 30.8281 42.0508C30.8286 42.1128 30.879 42.1625 30.9414 42.1621C31.0026 42.1617 31.0524 42.1124 31.0527 42.0508C31.0523 41.9896 31.0026 41.9402 30.9414 41.9394C30.9338 41.9389 30.9314 41.9389 30.9238 41.9394H30.9219ZM30.9414 42.5C30.8787 42.4996 30.8277 42.5505 30.8281 42.6133C30.8286 42.6749 30.879 42.725 30.9414 42.7246C31.0026 42.7242 31.052 42.6749 31.0527 42.6133C31.0533 42.5513 31.0038 42.5008 30.9414 42.5ZM30.9336 43.0625C30.8739 43.0663 30.8274 43.1157 30.8281 43.1758C30.8286 43.2378 30.879 43.2875 30.9414 43.2871C31.0026 43.2864 31.0524 43.2374 31.0527 43.1758C31.0533 43.1138 31.0034 43.0633 30.9414 43.0625C30.9388 43.0624 30.9374 43.0624 30.9336 43.0625Z" fill="#333333"/>
</g>
<defs>
<clipPath id="clip0">
<rect width="48" height="48" fill="white"/>
</clipPath>
</defs>
</svg>
