<svg width="48" height="48" viewBox="0 0 48 48" fill="none" xmlns="http://www.w3.org/2000/svg">
<g clip-path="url(#clip0)">
<path fill-rule="evenodd" clip-rule="evenodd" d="M-0.00390625 -0.00390625V47.9961H47.9961V-0.00390625H-0.00390625ZM28.9023 3.97656C30.5424 3.98148 32.189 3.99307 33.8477 4.01953C34.7171 4.01953 35.416 4.71845 35.416 5.58789V42.4492C35.416 43.3187 34.7171 44.0195 33.8477 44.0195H14.1426C13.2731 44.0195 12.5762 43.3187 12.5762 42.4492V5.58789C12.5762 4.71845 13.2731 4.01953 14.1426 4.01953C19.1179 4.01953 23.9821 3.96144 28.9023 3.97656ZM23.9883 5.05078C23.9293 5.05418 23.8832 5.10315 23.8828 5.16211C23.8822 5.22485 23.9334 5.27577 23.9961 5.27539C24.0581 5.27501 24.1082 5.22409 24.1074 5.16211C24.107 5.10126 24.0573 5.05154 23.9961 5.05078C23.9935 5.05071 23.9921 5.05071 23.9883 5.05078ZM23.9883 5.61328C23.9293 5.61706 23.8832 5.6676 23.8828 5.72656C23.8822 5.7893 23.9334 5.84022 23.9961 5.83984C24.0581 5.83909 24.1082 5.78855 24.1074 5.72656C24.107 5.66533 24.0573 5.61404 23.9961 5.61328C23.9935 5.61321 23.9921 5.61321 23.9883 5.61328ZM19.9062 6.10937C19.6641 6.11278 19.4233 6.21022 19.2402 6.39844L17.4316 8.25586C17.0655 8.63192 17.0728 9.22947 17.4492 9.5957C17.8255 9.96258 18.4229 9.95343 18.7891 9.57812L20.5977 7.71875C20.9638 7.34231 20.9565 6.74514 20.5801 6.37891C20.3919 6.19598 20.1485 6.10597 19.9062 6.10937ZM23.9785 6.17578C23.9241 6.18334 23.8824 6.23388 23.8828 6.28906C23.8833 6.35105 23.9337 6.39919 23.9961 6.39844C24.0573 6.39806 24.107 6.35067 24.1074 6.28906C24.107 6.22783 24.0573 6.17654 23.9961 6.17578C23.9885 6.17521 23.988 6.17521 23.9805 6.17578H23.9785ZM30.248 6.45703C30.0059 6.46043 29.7651 6.55787 29.582 6.74609L27.7734 8.60351C27.4073 8.97958 27.4146 9.57712 27.791 9.94336C28.1673 10.3102 28.7647 10.3003 29.1309 9.92578L30.9395 8.06641C31.3056 7.68996 31.2983 7.0928 30.9219 6.72656C30.7337 6.54363 30.4903 6.45363 30.248 6.45703ZM23.998 6.73633C23.9353 6.73595 23.8844 6.78882 23.8848 6.85156C23.8853 6.91355 23.9357 6.96207 23.998 6.96094C24.0593 6.96056 24.1086 6.91317 24.1094 6.85156C24.1099 6.78958 24.0604 6.73708 23.998 6.73633ZM23.9883 7.29883C23.9286 7.30261 23.8821 7.35397 23.8828 7.41406C23.8833 7.47605 23.9337 7.52577 23.9961 7.52539C24.0573 7.52463 24.107 7.47529 24.1074 7.41406C24.1081 7.35208 24.0581 7.29958 23.9961 7.29883C23.9935 7.29871 23.9921 7.29871 23.9883 7.29883ZM23.9883 7.85937C23.9286 7.86315 23.8821 7.91451 23.8828 7.97461C23.8833 8.03659 23.9337 8.08436 23.9961 8.08398C24.0573 8.08361 24.107 8.03621 24.1074 7.97461C24.1081 7.91262 24.0581 7.86013 23.9961 7.85937C23.9935 7.8593 23.9921 7.8593 23.9883 7.85937ZM23.9883 8.42187C23.9286 8.42565 23.8821 8.47701 23.8828 8.53711C23.8833 8.59909 23.9337 8.64881 23.9961 8.64844C24.0573 8.64768 24.107 8.59872 24.1074 8.53711C24.1081 8.47512 24.0581 8.42263 23.9961 8.42187C23.9935 8.4218 23.9921 8.4218 23.9883 8.42187ZM23.9883 8.98437C23.9293 8.98815 23.8832 9.03869 23.8828 9.09766C23.8822 9.1604 23.9334 9.21131 23.9961 9.21094C24.0581 9.21056 24.1082 9.15964 24.1074 9.09766C24.107 9.03643 24.0573 8.98513 23.9961 8.98437C23.9935 8.9843 23.9921 8.9843 23.9883 8.98437ZM23.9883 9.54687C23.9293 9.55028 23.8832 9.59924 23.8828 9.6582C23.8822 9.72094 23.9334 9.77186 23.9961 9.77148C24.0581 9.77111 24.1082 9.72019 24.1074 9.6582C24.107 9.59735 24.0573 9.54763 23.9961 9.54687C23.9935 9.54676 23.9921 9.54676 23.9883 9.54687ZM23.9766 10.1094C23.9221 10.1169 23.8824 10.1694 23.8828 10.2246C23.8822 10.2873 23.9334 10.3383 23.9961 10.3379C24.0581 10.3371 24.1082 10.2866 24.1074 10.2246C24.107 10.1634 24.0573 10.1101 23.9961 10.1094C23.9885 10.1088 23.988 10.1088 23.9805 10.1094H23.9766ZM23.998 10.6699C23.9353 10.6692 23.8844 10.7244 23.8848 10.7871C23.8853 10.8491 23.9357 10.8949 23.998 10.8945C24.0593 10.8942 24.1086 10.8487 24.1094 10.7871C24.1099 10.7251 24.0604 10.6707 23.998 10.6699ZM30.248 11.1523C30.0059 11.1557 29.7651 11.2532 29.582 11.4414L27.7734 13.2988C27.4073 13.6749 27.4146 14.2724 27.791 14.6387C28.1673 15.0055 28.7647 14.9987 29.1309 14.6211L30.9395 12.7617C31.3056 12.3853 31.2983 11.7881 30.9219 11.4219C30.7337 11.2389 30.4903 11.1489 30.248 11.1523ZM23.998 11.2324C23.9353 11.2317 23.8844 11.2849 23.8848 11.3477C23.8853 11.4096 23.9357 11.4582 23.998 11.457C24.0593 11.4567 24.1086 11.4085 24.1094 11.3477C24.1099 11.2857 24.0604 11.2332 23.998 11.2324ZM19.9062 11.3691C19.6641 11.3725 19.4233 11.47 19.2402 11.6582L17.4316 13.5156C17.0655 13.8917 17.0728 14.4892 17.4492 14.8555C17.8255 15.2223 18.4229 15.2132 18.7891 14.8379L20.5977 12.9785C20.9638 12.6021 20.9585 12.0049 20.582 11.6387C20.3939 11.4557 20.1504 11.3657 19.9082 11.3691H19.9062ZM23.9883 11.7949C23.9286 11.7987 23.8821 11.8501 23.8828 11.9102C23.8833 11.9721 23.9337 12.0242 23.9961 12.0234C24.0573 12.0227 24.107 11.9714 24.1074 11.9102C24.108 11.8482 24.0581 11.7957 23.9961 11.7949C23.9935 11.7948 23.9921 11.7948 23.9883 11.7949ZM23.9883 12.3574C23.9286 12.3612 23.8821 12.4126 23.8828 12.4727C23.8833 12.5346 23.9337 12.5867 23.9961 12.5859C24.0573 12.5852 24.107 12.5339 24.1074 12.4727C24.108 12.4107 24.0581 12.3578 23.9961 12.3574C23.9935 12.3573 23.9921 12.3573 23.9883 12.3574ZM23.9883 12.9199C23.9293 12.9237 23.8832 12.9739 23.8828 13.0332C23.8822 13.0959 23.9334 13.1469 23.9961 13.1465C24.0581 13.1461 24.1082 13.0952 24.1074 13.0332C24.107 12.972 24.0573 12.9207 23.9961 12.9199C23.9935 12.9198 23.9921 12.9198 23.9883 12.9199ZM23.9883 13.4824C23.9293 13.4858 23.8832 13.5348 23.8828 13.5937C23.8822 13.6565 23.9334 13.7074 23.9961 13.707C24.0581 13.7067 24.1082 13.6557 24.1074 13.5937C24.107 13.5325 24.0573 13.4832 23.9961 13.4824C23.9935 13.4823 23.9921 13.4823 23.9883 13.4824ZM23.9883 14.0449C23.9293 14.0483 23.8832 14.0973 23.8828 14.1562C23.8822 14.219 23.9334 14.2699 23.9961 14.2695C24.0581 14.2692 24.1082 14.2182 24.1074 14.1562C24.107 14.0954 24.0573 14.0453 23.9961 14.0449C23.9935 14.0448 23.9921 14.0448 23.9883 14.0449ZM23.9766 14.6074C23.9221 14.615 23.8824 14.6659 23.8828 14.7207C23.8822 14.7834 23.9334 14.8344 23.9961 14.834C24.0581 14.8332 24.1082 14.7827 24.1074 14.7207C24.107 14.6595 24.0573 14.6078 23.9961 14.6074C23.9885 14.6069 23.988 14.6069 23.9805 14.6074H23.9766ZM23.9766 15.1699C23.9221 15.1775 23.8824 15.228 23.8828 15.2832C23.8833 15.3452 23.9337 15.3933 23.9961 15.3926C24.0573 15.3922 24.107 15.3444 24.1074 15.2832C24.107 15.222 24.0573 15.1707 23.9961 15.1699C23.9885 15.1694 23.9861 15.1694 23.9785 15.1699H23.9766ZM23.998 15.7305C23.9353 15.7301 23.8844 15.783 23.8848 15.8457C23.8853 15.9077 23.9357 15.9558 23.998 15.9551C24.0593 15.9547 24.1086 15.9066 24.1094 15.8457C24.1099 15.7837 24.0604 15.7312 23.998 15.7305ZM23.9883 16.293C23.9286 16.2967 23.8821 16.3481 23.8828 16.4082C23.8833 16.4702 23.9337 16.5203 23.9961 16.5195C24.0573 16.5188 24.107 16.4694 24.1074 16.4082C24.108 16.3462 24.0581 16.2937 23.9961 16.293C23.9935 16.2929 23.9921 16.2929 23.9883 16.293ZM30.248 16.3672C30.0059 16.3706 29.7651 16.468 29.582 16.6562L27.7734 18.5137C27.4073 18.8897 27.4146 19.4873 27.791 19.8535C28.1673 20.2184 28.7647 20.2135 29.1309 19.8359L30.9395 17.9766C31.3056 17.6001 31.2983 17.003 30.9219 16.6367C30.7337 16.4538 30.4903 16.3638 30.248 16.3672ZM19.9082 16.627C19.666 16.6304 19.4252 16.7278 19.2422 16.916L17.4336 18.7734C17.0675 19.1495 17.0747 19.747 17.4512 20.1133C17.8274 20.4802 18.4249 20.4733 18.791 20.0957L20.5996 18.2363C20.9657 17.8599 20.9585 17.2627 20.582 16.8965C20.3939 16.7136 20.1504 16.6236 19.9082 16.627ZM23.9883 16.8555C23.9286 16.8592 23.8821 16.9106 23.8828 16.9707C23.8833 17.0327 23.9337 17.0824 23.9961 17.082C24.0573 17.0813 24.107 17.0323 24.1074 16.9707C24.108 16.9087 24.0581 16.8562 23.9961 16.8555C23.9935 16.8554 23.9921 16.8554 23.9883 16.8555ZM23.9883 17.418C23.9293 17.4217 23.8832 17.4703 23.8828 17.5293C23.8822 17.592 23.9334 17.643 23.9961 17.6426C24.0581 17.6418 24.1082 17.5913 24.1074 17.5293C24.107 17.4681 24.0573 17.418 23.9961 17.418C23.9935 17.4179 23.9921 17.4179 23.9883 17.418ZM23.9883 17.9805C23.9293 17.9839 23.8832 18.0328 23.8828 18.0918C23.8822 18.1545 23.9334 18.2055 23.9961 18.2051C24.0581 18.2047 24.1082 18.1538 24.1074 18.0918C24.107 18.0306 24.0573 17.9805 23.9961 17.9805C23.9935 17.9804 23.9921 17.9804 23.9883 17.9805ZM23.9883 18.543C23.9293 18.5467 23.8832 18.5973 23.8828 18.6562C23.8822 18.719 23.9334 18.7699 23.9961 18.7695C24.0581 18.7688 24.1082 18.7182 24.1074 18.6562C24.107 18.595 24.0573 18.5433 23.9961 18.543C23.9935 18.5429 23.9921 18.5429 23.9883 18.543ZM23.9766 19.1055C23.9221 19.113 23.8824 19.1636 23.8828 19.2187C23.8822 19.2815 23.9334 19.3324 23.9961 19.332C24.0581 19.3313 24.1082 19.2807 24.1074 19.2187C24.107 19.1575 24.0573 19.1062 23.9961 19.1055C23.9885 19.1049 23.9861 19.1049 23.9785 19.1055H23.9766ZM23.998 19.666C23.9353 19.6656 23.8844 19.7185 23.8848 19.7812C23.8853 19.8432 23.9357 19.8918 23.998 19.8906C24.0593 19.8902 24.1086 19.8425 24.1094 19.7812C24.1099 19.7193 24.0604 19.6668 23.998 19.666ZM23.9883 20.2285C23.9286 20.2323 23.8821 20.2837 23.8828 20.3437C23.8833 20.4057 23.9337 20.4558 23.9961 20.4551C24.0573 20.4543 24.107 20.405 24.1074 20.3437C24.108 20.2818 24.0581 20.2289 23.9961 20.2285C23.9935 20.2284 23.9921 20.2284 23.9883 20.2285ZM23.9883 20.791C23.9286 20.7948 23.8821 20.8462 23.8828 20.9062C23.8833 20.9682 23.9337 21.018 23.9961 21.0176C24.0573 21.0168 24.107 20.9679 24.1074 20.9062C24.108 20.8443 24.0581 20.7918 23.9961 20.791C23.9935 20.7909 23.9921 20.7909 23.9883 20.791ZM23.9883 21.3535C23.9286 21.3573 23.8821 21.4087 23.8828 21.4687C23.8833 21.5304 23.9337 21.5808 23.9961 21.5801C24.0573 21.5797 24.107 21.5304 24.1074 21.4687C24.108 21.4068 24.0581 21.3543 23.9961 21.3535C23.9935 21.3534 23.9921 21.3534 23.9883 21.3535ZM30.248 21.5801C30.0059 21.5835 29.7651 21.6829 29.582 21.8711L27.7734 23.7285C27.4073 24.1046 27.4146 24.7021 27.791 25.0684C28.1673 25.4352 28.7647 25.428 29.1309 25.0508L30.9395 23.1914C31.3056 22.815 31.2983 22.2178 30.9219 21.8516C30.7338 21.6686 30.4903 21.5786 30.248 21.582V21.5801ZM19.9082 21.8848C19.666 21.8882 19.4252 21.9876 19.2422 22.1758L17.4336 24.0332C17.0675 24.4093 17.0747 25.0068 17.4512 25.373C17.8274 25.7399 18.4249 25.7308 18.791 25.3555L20.5996 23.4961C20.9657 23.1197 20.9585 22.5225 20.582 22.1562C20.3939 21.9733 20.1504 21.8833 19.9082 21.8867V21.8848ZM23.9883 21.916C23.9293 21.9194 23.8832 21.9684 23.8828 22.0273C23.8822 22.0901 23.9334 22.141 23.9961 22.1406C24.0581 22.1402 24.1082 22.0893 24.1074 22.0273C24.107 21.9665 24.0573 21.9164 23.9961 21.916C23.9935 21.9159 23.9921 21.9159 23.9883 21.916ZM23.9883 22.4785C23.9293 22.4823 23.8832 22.5328 23.8828 22.5918C23.8822 22.6545 23.9334 22.7055 23.9961 22.7051C24.0581 22.7043 24.1082 22.6538 24.1074 22.5918C24.107 22.5306 24.0573 22.4789 23.9961 22.4785C23.9935 22.4784 23.9921 22.4784 23.9883 22.4785ZM23.9883 23.041C23.9293 23.0448 23.8832 23.095 23.8828 23.1543C23.8822 23.217 23.9334 23.268 23.9961 23.2676C24.0581 23.2668 24.1082 23.2163 24.1074 23.1543C24.107 23.0931 24.0573 23.0418 23.9961 23.041C23.9935 23.0409 23.9921 23.0409 23.9883 23.041ZM23.9766 23.6035C23.9221 23.6111 23.8824 23.662 23.8828 23.7168C23.8822 23.7795 23.9334 23.8305 23.9961 23.8301C24.0581 23.8297 24.1082 23.7788 24.1074 23.7168C24.107 23.6556 24.0573 23.6043 23.9961 23.6035C23.9885 23.6029 23.9861 23.6029 23.9785 23.6035H23.9766ZM23.9766 24.166C23.9221 24.1736 23.8824 24.2241 23.8828 24.2793C23.8833 24.3413 23.9337 24.3914 23.9961 24.3906C24.0573 24.3899 24.107 24.3405 24.1074 24.2793C24.107 24.2181 24.0573 24.1668 23.9961 24.166C23.9885 24.1654 23.9861 24.1654 23.9785 24.166H23.9766ZM23.9883 24.7266C23.9286 24.7303 23.8821 24.7817 23.8828 24.8418C23.8833 24.9038 23.9337 24.9535 23.9961 24.9531C24.0573 24.9524 24.107 24.9034 24.1074 24.8418C24.108 24.7798 24.0581 24.7273 23.9961 24.7266C23.9935 24.7265 23.9921 24.7265 23.9883 24.7266ZM23.9883 25.2891C23.9286 25.2928 23.8821 25.3442 23.8828 25.4043C23.8833 25.4663 23.9337 25.516 23.9961 25.5156C24.0573 25.5152 24.107 25.4659 24.1074 25.4043C24.108 25.3423 24.0581 25.2898 23.9961 25.2891C23.9935 25.289 23.9921 25.289 23.9883 25.2891ZM23.9883 25.8516C23.9286 25.8553 23.8821 25.9067 23.8828 25.9668C23.8833 26.0288 23.9337 26.0773 23.9961 26.0762C24.0573 26.0758 24.107 26.0284 24.1074 25.9668C24.108 25.9048 24.0581 25.8523 23.9961 25.8516C23.9935 25.8514 23.9921 25.8514 23.9883 25.8516ZM23.9883 26.4141C23.9293 26.4178 23.8832 26.468 23.8828 26.5273C23.8822 26.5901 23.9334 26.641 23.9961 26.6406C24.0581 26.6399 24.1082 26.5893 24.1074 26.5273C24.107 26.4661 24.0573 26.4148 23.9961 26.4141C23.9935 26.4139 23.9921 26.4139 23.9883 26.4141ZM30.248 26.7969V26.7988C30.0059 26.8022 29.7651 26.8997 29.582 27.0879L27.7734 28.9453C27.4073 29.3214 27.4146 29.9189 27.791 30.2852C28.1673 30.6501 28.7647 30.6432 29.1309 30.2656L30.9395 28.4062C31.3056 28.0298 31.2983 27.4326 30.9219 27.0664C30.7337 26.8835 30.4903 26.7935 30.248 26.7969ZM23.9883 26.9766C23.9293 26.9803 23.8832 27.0305 23.8828 27.0898C23.8822 27.1526 23.9334 27.2035 23.9961 27.2031C24.0581 27.2024 24.1082 27.1518 24.1074 27.0898C24.107 27.0286 24.0573 26.9773 23.9961 26.9766C23.9935 26.9765 23.9921 26.9765 23.9883 26.9766ZM19.9062 27.1465V27.1484C19.6641 27.1518 19.4233 27.2493 19.2402 27.4375L17.4316 29.2949C17.0655 29.671 17.0728 30.2685 17.4492 30.6348C17.8255 30.9997 18.4229 30.9905 18.7891 30.6152L20.5977 28.7559C20.9638 28.3794 20.9565 27.7822 20.5801 27.416C20.3919 27.2331 20.1485 27.1431 19.9062 27.1465ZM23.9883 27.5391C23.9293 27.5428 23.8832 27.5934 23.8828 27.6523C23.8822 27.7151 23.9334 27.766 23.9961 27.7656C24.0581 27.7649 24.1082 27.7143 24.1074 27.6523C24.107 27.5911 24.0573 27.5398 23.9961 27.5391C23.9935 27.539 23.9921 27.539 23.9883 27.5391ZM23.9766 28.1016C23.9221 28.1091 23.8824 28.1585 23.8828 28.2129C23.8833 28.2749 23.9337 28.325 23.9961 28.3242C24.0573 28.3238 24.107 28.2741 24.1074 28.2129C24.107 28.1517 24.0573 28.1023 23.9961 28.1016C23.9885 28.101 23.9861 28.101 23.9785 28.1016H23.9766ZM23.998 28.6621C23.9353 28.6617 23.8844 28.7146 23.8848 28.7773C23.8853 28.8393 23.9357 28.889 23.998 28.8887C24.0593 28.8879 24.1086 28.8389 24.1094 28.7773C24.1099 28.7154 24.0604 28.6629 23.998 28.6621ZM23.9883 29.2246C23.9286 29.2284 23.8821 29.2797 23.8828 29.3398C23.8833 29.4014 23.9337 29.4519 23.9961 29.4512C24.0573 29.4508 24.107 29.4014 24.1074 29.3398C24.108 29.2779 24.0581 29.2254 23.9961 29.2246C23.9935 29.2245 23.9921 29.2245 23.9883 29.2246ZM23.9883 29.7871C23.9286 29.7909 23.8821 29.8422 23.8828 29.9023C23.8833 29.9643 23.9337 30.0125 23.9961 30.0117C24.0573 30.0113 24.107 29.9639 24.1074 29.9023C24.108 29.8404 24.0581 29.7879 23.9961 29.7871C23.9935 29.787 23.9921 29.787 23.9883 29.7871ZM23.9883 30.3496C23.9286 30.3534 23.8821 30.4047 23.8828 30.4648C23.8833 30.5268 23.9337 30.5754 23.9961 30.5742C24.0573 30.5738 24.107 30.5257 24.1074 30.4648C24.108 30.4029 24.0581 30.3504 23.9961 30.3496C23.9935 30.3495 23.9921 30.3495 23.9883 30.3496ZM23.9883 30.9102C23.9293 30.9139 23.8832 30.966 23.8828 31.0254C23.8822 31.0881 23.9334 31.139 23.9961 31.1387C24.0581 31.1379 24.1082 31.0874 24.1074 31.0254C24.107 30.9642 24.0573 30.9109 23.9961 30.9102C23.9935 30.91 23.9921 30.91 23.9883 30.9102ZM23.9883 31.4727C23.9293 31.4764 23.8832 31.527 23.8828 31.5859C23.8822 31.6487 23.9334 31.6996 23.9961 31.6992C24.0581 31.6985 24.1082 31.6479 24.1074 31.5859C24.107 31.5247 24.0573 31.4734 23.9961 31.4727C23.9935 31.4726 23.9921 31.4726 23.9883 31.4727ZM23.9766 32.0352C23.9221 32.0427 23.8824 32.0933 23.8828 32.1484C23.8822 32.2112 23.9334 32.2621 23.9961 32.2617C24.0581 32.261 24.1082 32.2104 24.1074 32.1484C24.107 32.0872 24.0573 32.0359 23.9961 32.0352C23.9885 32.0346 23.9861 32.0346 23.9785 32.0352H23.9766ZM23.9766 32.5977C23.9221 32.6052 23.8824 32.6561 23.8828 32.7109C23.8833 32.7729 23.9337 32.8211 23.9961 32.8203C24.0573 32.8199 24.107 32.7725 24.1074 32.7109C24.107 32.6497 24.0573 32.598 23.9961 32.5977C23.9885 32.5971 23.9861 32.5971 23.9785 32.5977H23.9766ZM30.248 32.7949V32.7969C30.0059 32.8003 29.7651 32.8977 29.582 33.0859L27.7734 34.9434C27.4073 35.3194 27.4146 35.917 27.791 36.2832C28.1673 36.6501 28.7647 36.6412 29.1309 36.2637L30.9395 34.4043C31.3056 34.0279 31.2983 33.4307 30.9219 33.0645C30.7337 32.8815 30.4903 32.7915 30.248 32.7949ZM19.9082 33.1445V33.1465C19.666 33.1499 19.4252 33.2473 19.2422 33.4355L17.4336 35.293C17.0675 35.669 17.0747 36.2666 17.4512 36.6328C17.8274 36.9977 18.4249 36.9886 18.791 36.6133L20.5996 34.7539C20.9657 34.3775 20.9585 33.7803 20.582 33.4141C20.3939 33.2311 20.1504 33.1411 19.9082 33.1445ZM23.998 33.1602C23.9353 33.1598 23.8844 33.2126 23.8848 33.2754C23.8853 33.3374 23.9357 33.3851 23.998 33.3848C24.0593 33.3844 24.1086 33.337 24.1094 33.2754C24.1099 33.2134 24.0604 33.1609 23.998 33.1602ZM23.9883 33.7227C23.9286 33.7264 23.8821 33.7778 23.8828 33.8379C23.8833 33.8999 23.9337 33.95 23.9961 33.9492C24.0573 33.9485 24.107 33.8995 24.1074 33.8379C24.108 33.7759 24.0581 33.7234 23.9961 33.7227C23.9935 33.7226 23.9921 33.7226 23.9883 33.7227ZM23.9883 34.2852C23.9286 34.2889 23.8821 34.3403 23.8828 34.4004C23.8833 34.4624 23.9337 34.5121 23.9961 34.5117C24.0573 34.5113 24.107 34.462 24.1074 34.4004C24.108 34.3384 24.0581 34.2859 23.9961 34.2852C23.9935 34.285 23.9921 34.285 23.9883 34.2852ZM23.9883 34.8477C23.9293 34.8511 23.8832 34.9 23.8828 34.959C23.8822 35.0217 23.9334 35.0726 23.9961 35.0723C24.0581 35.0719 24.1082 35.021 24.1074 34.959C24.107 34.8981 24.0573 34.8484 23.9961 34.8477C23.9935 34.8475 23.9921 34.8475 23.9883 34.8477ZM23.9883 35.4102C23.9293 35.4139 23.8832 35.4645 23.8828 35.5234C23.8822 35.5862 23.9334 35.6371 23.9961 35.6367C24.0581 35.636 24.1082 35.5854 24.1074 35.5234C24.107 35.4622 24.0573 35.4109 23.9961 35.4102C23.9935 35.4101 23.9921 35.4101 23.9883 35.4102ZM23.9883 35.9727C23.9293 35.9764 23.8832 36.027 23.8828 36.0859C23.8822 36.1487 23.9334 36.1996 23.9961 36.1992C24.0581 36.1985 24.1082 36.1479 24.1074 36.0859C24.107 36.0247 24.0573 35.9734 23.9961 35.9727C23.9935 35.9726 23.9921 35.9726 23.9883 35.9727ZM23.9883 36.5352C23.9293 36.5389 23.8832 36.5891 23.8828 36.6484C23.8822 36.7112 23.9334 36.7621 23.9961 36.7617C24.0581 36.7613 24.1082 36.7104 24.1074 36.6484C24.107 36.5872 24.0573 36.5359 23.9961 36.5352C23.9935 36.5351 23.9921 36.5351 23.9883 36.5352ZM23.9766 37.0977C23.9221 37.1052 23.8824 37.1538 23.8828 37.209C23.8833 37.271 23.9337 37.3214 23.9961 37.3203C24.0573 37.3199 24.107 37.2702 24.1074 37.209C24.107 37.1478 24.0573 37.0984 23.9961 37.0977C23.9885 37.0971 23.9861 37.0971 23.9785 37.0977H23.9766ZM23.9883 37.6582C23.9286 37.662 23.8821 37.7133 23.8828 37.7734C23.8833 37.8354 23.9337 37.8851 23.9961 37.8848C24.0573 37.884 24.107 37.835 24.1074 37.7734C24.108 37.7114 24.0581 37.659 23.9961 37.6582C23.9935 37.6582 23.9921 37.6582 23.9883 37.6582ZM23.9883 38.2207C23.9286 38.2245 23.8821 38.2758 23.8828 38.3359C23.8833 38.3975 23.9337 38.448 23.9961 38.4473C24.0573 38.4469 24.107 38.3975 24.1074 38.3359C24.108 38.2739 24.0581 38.2215 23.9961 38.2207C23.9935 38.2206 23.9921 38.2206 23.9883 38.2207ZM30.248 38.2363C30.0059 38.2397 29.7651 38.3372 29.582 38.5254L27.7734 40.3828C27.4073 40.7589 27.4146 41.3564 27.791 41.7227C28.1673 42.0895 28.7647 42.0826 29.1309 41.7051L30.9395 39.8457C31.3056 39.4693 31.2983 38.8721 30.9219 38.5059C30.7337 38.3229 30.4903 38.2329 30.248 38.2363ZM19.9082 38.5859C19.666 38.5893 19.4252 38.6868 19.2422 38.875L17.4336 40.7324C17.0675 41.1085 17.0747 41.706 17.4512 42.0723C17.8274 42.4372 18.4249 42.43 18.791 42.0547L20.5996 40.1953C20.9657 39.8189 20.9585 39.2217 20.582 38.8555C20.3939 38.6725 20.1504 38.5825 19.9082 38.5859ZM23.9883 38.7852C23.9286 38.7889 23.8821 38.8403 23.8828 38.9004C23.8833 38.9624 23.9337 39.0105 23.9961 39.0098C24.0573 39.0094 24.107 38.962 24.1074 38.9004C24.108 38.8384 24.0581 38.7859 23.9961 38.7852C23.9935 38.785 23.9921 38.785 23.9883 38.7852ZM23.9883 39.3477C23.9293 39.3514 23.8832 39.4016 23.8828 39.4609C23.8822 39.5237 23.9334 39.5746 23.9961 39.5742C24.0581 39.5735 24.1082 39.5229 24.1074 39.4609C24.107 39.3997 24.0573 39.3484 23.9961 39.3477C23.9935 39.3476 23.9921 39.3476 23.9883 39.3477ZM23.9883 39.9102C23.9293 39.9139 23.8832 39.9645 23.8828 40.0234C23.8822 40.0862 23.9334 40.1371 23.9961 40.1367C24.0581 40.136 24.1082 40.0854 24.1074 40.0234C24.107 39.9622 24.0573 39.9109 23.9961 39.9102C23.9935 39.9101 23.9921 39.9101 23.9883 39.9102ZM23.9883 40.4727C23.9293 40.4764 23.8832 40.527 23.8828 40.5859C23.8822 40.6487 23.9334 40.6996 23.9961 40.6992C24.0581 40.6988 24.1082 40.6479 24.1074 40.5859C24.107 40.5247 24.0573 40.4734 23.9961 40.4727C23.9935 40.4726 23.9921 40.4726 23.9883 40.4727ZM23.9766 41.0352C23.9221 41.0427 23.8824 41.0917 23.8828 41.1465C23.8822 41.2092 23.9334 41.2601 23.9961 41.2598C24.0581 41.259 24.1082 41.2085 24.1074 41.1465C24.107 41.0853 24.0573 41.0359 23.9961 41.0352C23.9885 41.0346 23.9861 41.0346 23.9785 41.0352H23.9766ZM23.9766 41.5977C23.9221 41.6048 23.8824 41.6538 23.8828 41.709C23.8833 41.771 23.9337 41.8211 23.9961 41.8203C24.0573 41.8196 24.107 41.7706 24.1074 41.709C24.107 41.6478 24.0573 41.5984 23.9961 41.5977C23.9885 41.5971 23.9861 41.5971 23.9785 41.5977H23.9766ZM23.998 42.1582C23.9353 42.1578 23.8844 42.2107 23.8848 42.2734C23.8853 42.3354 23.9357 42.3851 23.998 42.3848C24.0593 42.3844 24.1086 42.335 24.1094 42.2734C24.1099 42.2114 24.0604 42.159 23.998 42.1582ZM23.9883 42.7207C23.9286 42.7245 23.8821 42.7758 23.8828 42.8359C23.8833 42.8979 23.9337 42.9457 23.9961 42.9453C24.0573 42.9449 24.107 42.8975 24.1074 42.8359C24.108 42.7739 24.0581 42.7215 23.9961 42.7207C23.9935 42.7206 23.9921 42.7206 23.9883 42.7207Z" fill="#333333"/>
</g>
<defs>
<clipPath id="clip0">
<rect width="48" height="48" fill="white"/>
</clipPath>
</defs>
</svg>
