<svg width="48" height="48" viewBox="0 0 48 48" fill="none" xmlns="http://www.w3.org/2000/svg">
<path d="M23.8281 4.10422C20.5371 4.11122 17.3021 4.12622 14.1471 4.12522C13.9412 4.12508 13.7373 4.16557 13.5472 4.24434C13.357 4.32312 13.1842 4.43864 13.0387 4.5843C12.8933 4.72995 12.778 4.90288 12.6994 5.09316C12.6209 5.28345 12.5807 5.48736 12.5811 5.69322V42.5552C12.5811 43.4252 13.2771 44.1252 14.1471 44.1252H33.8521C34.7211 44.1252 35.4201 43.4252 35.4201 42.5552V5.69421C35.4201 4.82421 34.7211 4.12522 33.8521 4.12522C30.5108 4.10013 27.1694 4.09313 23.8281 4.10422ZM19.9921 5.16622H20.0001C20.0294 5.16726 20.0572 5.17979 20.0773 5.2011C20.0975 5.22241 20.1086 5.25079 20.108 5.28014C20.1075 5.3095 20.0955 5.33747 20.0745 5.35804C20.0536 5.37862 20.0254 5.39014 19.9961 5.39014C19.9667 5.39014 19.9385 5.37862 19.9176 5.35804C19.8966 5.33747 19.8846 5.3095 19.8841 5.28014C19.8836 5.25079 19.8946 5.22241 19.9148 5.2011C19.935 5.17979 19.9627 5.16726 19.9921 5.16622ZM27.9921 5.16622H28.0001C28.0294 5.16726 28.0572 5.17979 28.0773 5.2011C28.0975 5.22241 28.1086 5.25079 28.108 5.28014C28.1075 5.3095 28.0955 5.33747 28.0745 5.35804C28.0536 5.37862 28.0254 5.39014 27.9961 5.39014C27.9667 5.39014 27.9385 5.37862 27.9176 5.35804C27.8966 5.33747 27.8846 5.3095 27.8841 5.28014C27.8836 5.25079 27.8946 5.22241 27.9148 5.2011C27.935 5.17979 27.9627 5.16726 27.9921 5.16622ZM19.9921 5.72922H20.0001C20.0294 5.73026 20.0572 5.74279 20.0773 5.7641C20.0975 5.78541 20.1086 5.81379 20.108 5.84314C20.1075 5.8725 20.0955 5.90047 20.0745 5.92104C20.0536 5.94162 20.0254 5.95314 19.9961 5.95314C19.9667 5.95314 19.9385 5.94162 19.9176 5.92104C19.8966 5.90047 19.8846 5.8725 19.8841 5.84314C19.8836 5.81379 19.8946 5.78541 19.9148 5.7641C19.935 5.74279 19.9627 5.73026 19.9921 5.72922ZM27.9921 5.72922H28.0001C28.0294 5.73026 28.0572 5.74279 28.0773 5.7641C28.0975 5.78541 28.1086 5.81379 28.108 5.84314C28.1075 5.8725 28.0955 5.90047 28.0745 5.92104C28.0536 5.94162 28.0254 5.95314 27.9961 5.95314C27.9667 5.95314 27.9385 5.94162 27.9176 5.92104C27.8966 5.90047 27.8846 5.8725 27.8841 5.84314C27.8836 5.81379 27.8946 5.78541 27.9148 5.7641C27.935 5.74279 27.9627 5.73026 27.9921 5.72922ZM19.9821 6.29122H20.0001C20.0611 6.29222 20.1101 6.34122 20.1111 6.40322C20.1111 6.46422 20.0611 6.51322 20.0001 6.51322C19.9724 6.51251 19.946 6.5016 19.926 6.4826C19.9059 6.46361 19.8935 6.43785 19.8913 6.4103C19.8891 6.38275 19.8971 6.35535 19.9139 6.33336C19.9306 6.31138 19.9549 6.29637 19.9821 6.29122ZM27.9821 6.29122H28.0001C28.0611 6.29222 28.1101 6.34122 28.1111 6.40322C28.1111 6.46422 28.0611 6.51322 28.0001 6.51322C27.9724 6.51251 27.946 6.5016 27.926 6.4826C27.9059 6.46361 27.8935 6.43785 27.8913 6.4103C27.8891 6.38275 27.8971 6.35535 27.9139 6.33336C27.9306 6.31138 27.9549 6.29637 27.9821 6.29122ZM24.2191 6.58622C24.6434 6.58622 25.0504 6.75479 25.3504 7.05484C25.6505 7.3549 25.8191 7.76187 25.8191 8.18621C25.8191 8.61056 25.6505 9.01753 25.3504 9.31759C25.0504 9.61764 24.6434 9.78622 24.2191 9.78622C23.7947 9.78622 23.3877 9.61764 23.0877 9.31759C22.7876 9.01753 22.6191 8.61056 22.6191 8.18621C22.6191 7.76187 22.7876 7.3549 23.0877 7.05484C23.3877 6.75479 23.7947 6.58622 24.2191 6.58622ZM20.0021 6.85222C20.0168 6.85235 20.0313 6.85537 20.0448 6.86112C20.0584 6.86687 20.0707 6.87523 20.081 6.88573C20.0913 6.89622 20.0994 6.90864 20.1049 6.92228C20.1104 6.93592 20.1132 6.95051 20.1131 6.96522C20.1129 6.97992 20.1099 6.99446 20.1041 7.008C20.0984 7.02154 20.09 7.03381 20.0795 7.04412C20.0691 7.05443 20.0566 7.06257 20.043 7.06807C20.0294 7.07358 20.0148 7.07635 20.0001 7.07622C19.9704 7.07595 19.942 7.0639 19.9212 7.0427C19.9003 7.02151 19.8888 6.99292 19.8891 6.96322C19.8893 6.93351 19.9014 6.90513 19.9226 6.88431C19.9438 6.8635 19.9724 6.85195 20.0021 6.85222ZM28.0021 6.85222C28.0168 6.85235 28.0313 6.85537 28.0448 6.86112C28.0584 6.86687 28.0707 6.87523 28.081 6.88573C28.0913 6.89622 28.0994 6.90864 28.1049 6.92228C28.1104 6.93592 28.1132 6.95051 28.1131 6.96522C28.1129 6.97992 28.1099 6.99446 28.1041 7.008C28.0984 7.02154 28.09 7.03381 28.0795 7.04412C28.0691 7.05443 28.0566 7.06257 28.043 7.06807C28.0294 7.07358 28.0148 7.07635 28.0001 7.07622C27.9704 7.07595 27.942 7.0639 27.9212 7.0427C27.9003 7.02151 27.8888 6.99292 27.8891 6.96322C27.8893 6.93351 27.9014 6.90513 27.9226 6.88431C27.9438 6.8635 27.9724 6.85195 28.0021 6.85222ZM19.9921 7.41422H20.0001C20.0294 7.41526 20.0572 7.42779 20.0773 7.4491C20.0975 7.47041 20.1086 7.49879 20.108 7.52814C20.1075 7.5575 20.0955 7.58547 20.0745 7.60604C20.0536 7.62662 20.0254 7.63814 19.9961 7.63814C19.9667 7.63814 19.9385 7.62662 19.9176 7.60604C19.8966 7.58547 19.8846 7.5575 19.8841 7.52814C19.8836 7.49879 19.8946 7.47041 19.9148 7.4491C19.935 7.42779 19.9627 7.41526 19.9921 7.41422ZM27.9921 7.41422H28.0001C28.0294 7.41526 28.0572 7.42779 28.0773 7.4491C28.0975 7.47041 28.1086 7.49879 28.108 7.52814C28.1075 7.5575 28.0955 7.58547 28.0745 7.60604C28.0536 7.62662 28.0254 7.63814 27.9961 7.63814C27.9667 7.63814 27.9385 7.62662 27.9176 7.60604C27.8966 7.58547 27.8846 7.5575 27.8841 7.52814C27.8836 7.49879 27.8946 7.47041 27.9148 7.4491C27.935 7.42779 27.9627 7.41526 27.9921 7.41422ZM19.9921 7.97422H20.0001C20.0294 7.97526 20.0572 7.98779 20.0773 8.0091C20.0975 8.03041 20.1086 8.05879 20.108 8.08814C20.1075 8.1175 20.0955 8.14547 20.0745 8.16604C20.0536 8.18662 20.0254 8.19814 19.9961 8.19814C19.9667 8.19814 19.9385 8.18662 19.9176 8.16604C19.8966 8.14547 19.8846 8.1175 19.8841 8.08814C19.8836 8.05879 19.8946 8.03041 19.9148 8.0091C19.935 7.98779 19.9627 7.97526 19.9921 7.97422ZM27.9921 7.97422H28.0001C28.0294 7.97526 28.0572 7.98779 28.0773 8.0091C28.0975 8.03041 28.1086 8.05879 28.108 8.08814C28.1075 8.1175 28.0955 8.14547 28.0745 8.16604C28.0536 8.18662 28.0254 8.19814 27.9961 8.19814C27.9667 8.19814 27.9385 8.18662 27.9176 8.16604C27.8966 8.14547 27.8846 8.1175 27.8841 8.08814C27.8836 8.05879 27.8946 8.03041 27.9148 8.0091C27.935 7.98779 27.9627 7.97526 27.9921 7.97422ZM19.9921 8.53721H20.0001C20.0294 8.53826 20.0572 8.55079 20.0773 8.5721C20.0975 8.59341 20.1086 8.62179 20.108 8.65114C20.1075 8.6805 20.0955 8.70847 20.0745 8.72904C20.0536 8.74962 20.0254 8.76114 19.9961 8.76114C19.9667 8.76114 19.9385 8.74962 19.9176 8.72904C19.8966 8.70847 19.8846 8.6805 19.8841 8.65114C19.8836 8.62179 19.8946 8.59341 19.9148 8.5721C19.935 8.55079 19.9627 8.53826 19.9921 8.53721ZM27.9921 8.53721H28.0001C28.0294 8.53826 28.0572 8.55079 28.0773 8.5721C28.0975 8.59341 28.1086 8.62179 28.108 8.65114C28.1075 8.6805 28.0955 8.70847 28.0745 8.72904C28.0536 8.74962 28.0254 8.76114 27.9961 8.76114C27.9667 8.76114 27.9385 8.74962 27.9176 8.72904C27.8966 8.70847 27.8846 8.6805 27.8841 8.65114C27.8836 8.62179 27.8946 8.59341 27.9148 8.5721C27.935 8.55079 27.9627 8.53826 27.9921 8.53721ZM19.9921 9.10022H20.0001C20.0294 9.10126 20.0572 9.11379 20.0773 9.1351C20.0975 9.15641 20.1086 9.18479 20.108 9.21414C20.1075 9.2435 20.0955 9.27147 20.0745 9.29204C20.0536 9.31262 20.0254 9.32414 19.9961 9.32414C19.9667 9.32414 19.9385 9.31262 19.9176 9.29204C19.8966 9.27147 19.8846 9.2435 19.8841 9.21414C19.8836 9.18479 19.8946 9.15641 19.9148 9.1351C19.935 9.11379 19.9627 9.10126 19.9921 9.10022ZM27.9921 9.10022H28.0001C28.0294 9.10126 28.0572 9.11379 28.0773 9.1351C28.0975 9.15641 28.1086 9.18479 28.108 9.21414C28.1075 9.2435 28.0955 9.27147 28.0745 9.29204C28.0536 9.31262 28.0254 9.32414 27.9961 9.32414C27.9667 9.32414 27.9385 9.31262 27.9176 9.29204C27.8966 9.27147 27.8846 9.2435 27.8841 9.21414C27.8836 9.18479 27.8946 9.15641 27.9148 9.1351C27.935 9.11379 27.9627 9.10126 27.9921 9.10022ZM19.9921 9.66221H20.0001C20.0294 9.66326 20.0572 9.67579 20.0773 9.6971C20.0975 9.71841 20.1086 9.74679 20.108 9.77614C20.1075 9.8055 20.0955 9.83347 20.0745 9.85404C20.0536 9.87462 20.0254 9.88614 19.9961 9.88614C19.9667 9.88614 19.9385 9.87462 19.9176 9.85404C19.8966 9.83347 19.8846 9.8055 19.8841 9.77614C19.8836 9.74679 19.8946 9.71841 19.9148 9.6971C19.935 9.67579 19.9627 9.66326 19.9921 9.66221ZM27.9921 9.66221H28.0001C28.0294 9.66326 28.0572 9.67579 28.0773 9.6971C28.0975 9.71841 28.1086 9.74679 28.108 9.77614C28.1075 9.8055 28.0955 9.83347 28.0745 9.85404C28.0536 9.87462 28.0254 9.88614 27.9961 9.88614C27.9667 9.88614 27.9385 9.87462 27.9176 9.85404C27.8966 9.83347 27.8846 9.8055 27.8841 9.77614C27.8836 9.74679 27.8946 9.71841 27.9148 9.6971C27.935 9.67579 27.9627 9.66326 27.9921 9.66221ZM19.9801 10.2252H20.0001C20.0611 10.2252 20.1101 10.2772 20.1111 10.3382C20.1111 10.3679 20.0993 10.3964 20.0783 10.4174C20.0572 10.4384 20.0288 10.4502 19.9991 10.4502C19.9694 10.4502 19.9409 10.4384 19.9199 10.4174C19.8989 10.3964 19.8871 10.3679 19.8871 10.3382C19.8871 10.2832 19.9261 10.2332 19.9801 10.2252ZM27.9801 10.2252H28.0001C28.0611 10.2252 28.1101 10.2772 28.1111 10.3382C28.1111 10.3679 28.0993 10.3964 28.0783 10.4174C28.0572 10.4384 28.0288 10.4502 27.9991 10.4502C27.9694 10.4502 27.9409 10.4384 27.9199 10.4174C27.8989 10.3964 27.8871 10.3679 27.8871 10.3382C27.8871 10.2832 27.9261 10.2332 27.9801 10.2252ZM20.0021 10.7852C20.0641 10.7862 20.1141 10.8392 20.1131 10.9012C20.1129 10.9157 20.11 10.9299 20.1043 10.9432C20.0987 10.9565 20.0904 10.9686 20.0801 10.9787C20.0698 10.9888 20.0576 10.9968 20.0442 11.0022C20.0308 11.0076 20.0165 11.0103 20.0021 11.0102C19.9874 11.0106 19.9727 11.0081 19.959 11.0027C19.9453 10.9974 19.9329 10.9893 19.9223 10.9791C19.9118 10.9688 19.9034 10.9566 19.8977 10.943C19.892 10.9295 19.8891 10.9149 19.8891 10.9002C19.8891 10.8382 19.9391 10.7852 20.0021 10.7852ZM28.0021 10.7852C28.0641 10.7862 28.1141 10.8392 28.1131 10.9012C28.1129 10.9157 28.11 10.9299 28.1043 10.9432C28.0987 10.9565 28.0904 10.9686 28.0801 10.9787C28.0698 10.9888 28.0576 10.9968 28.0442 11.0022C28.0308 11.0076 28.0165 11.0103 28.0021 11.0102C27.9874 11.0106 27.9727 11.0081 27.959 11.0027C27.9453 10.9974 27.9329 10.9893 27.9223 10.9791C27.9118 10.9688 27.9034 10.9566 27.8977 10.943C27.892 10.9295 27.8891 10.9149 27.8891 10.9002C27.8891 10.8382 27.9391 10.7852 28.0021 10.7852ZM20.0021 11.3482C20.0168 11.3483 20.0314 11.3514 20.045 11.3572C20.0586 11.3629 20.071 11.3713 20.0813 11.3819C20.0917 11.3924 20.0998 11.4049 20.1054 11.4186C20.1109 11.4323 20.1137 11.4469 20.1136 11.4617C20.1134 11.4765 20.1104 11.4911 20.1046 11.5047C20.0988 11.5183 20.0904 11.5306 20.0799 11.541C20.0694 11.5513 20.0569 11.5595 20.0432 11.565C20.0295 11.5706 20.0148 11.5733 20.0001 11.5732C19.9702 11.5729 19.9417 11.5608 19.9208 11.5396C19.8999 11.5183 19.8883 11.4896 19.8886 11.4597C19.8888 11.4299 19.9009 11.4014 19.9222 11.3805C19.9435 11.3595 19.9722 11.3479 20.0021 11.3482ZM28.0021 11.3482C28.0319 11.3485 28.0604 11.3606 28.0813 11.3819C28.1022 11.4032 28.1138 11.4319 28.1136 11.4617C28.1133 11.4916 28.1012 11.5201 28.0799 11.541C28.0586 11.5619 28.0299 11.5735 28.0001 11.5732C27.9853 11.5731 27.9707 11.57 27.9571 11.5643C27.9435 11.5585 27.9312 11.5501 27.9208 11.5396C27.9104 11.529 27.9023 11.5165 27.8967 11.5028C27.8912 11.4891 27.8884 11.4745 27.8886 11.4597C27.8887 11.4449 27.8917 11.4303 27.8975 11.4167C27.9033 11.4031 27.9117 11.3908 27.9222 11.3805C27.9328 11.3701 27.9452 11.3619 27.9589 11.3564C27.9726 11.3509 27.9873 11.3481 28.0021 11.3482ZM16.7501 11.7582C16.9635 11.7529 17.1758 11.7903 17.3745 11.8683C17.5733 11.9463 17.7544 12.0632 17.9072 12.2123C18.06 12.3613 18.1815 12.5395 18.2644 12.7362C18.3473 12.9329 18.3901 13.1442 18.3901 13.3577C18.3901 13.5712 18.3473 13.7825 18.2644 13.9792C18.1815 14.176 18.06 14.3541 17.9072 14.5031C17.7544 14.6522 17.5733 14.7692 17.3745 14.8471C17.1758 14.9251 16.9635 14.9626 16.7501 14.9572C16.3328 14.9468 15.9361 14.7737 15.6446 14.4749C15.3532 14.176 15.1901 13.7751 15.1901 13.3577C15.1901 12.9403 15.3532 12.5394 15.6446 12.2406C15.9361 11.9417 16.3328 11.7687 16.7501 11.7582ZM24.2191 11.7582C24.4325 11.7529 24.6448 11.7903 24.8435 11.8683C25.0423 11.9463 25.2234 12.0632 25.3762 12.2123C25.529 12.3613 25.6505 12.5395 25.7334 12.7362C25.8163 12.9329 25.8591 13.1442 25.8591 13.3577C25.8591 13.5712 25.8163 13.7825 25.7334 13.9792C25.6505 14.176 25.529 14.3541 25.3762 14.5031C25.2234 14.6522 25.0423 14.7692 24.8435 14.8471C24.6448 14.9251 24.4325 14.9626 24.2191 14.9572C23.8018 14.9468 23.4051 14.7737 23.1136 14.4749C22.8222 14.176 22.6591 13.7751 22.6591 13.3577C22.6591 12.9403 22.8222 12.5394 23.1136 12.2406C23.4051 11.9417 23.8018 11.7687 24.2191 11.7582ZM31.5981 11.7582C31.8115 11.7529 32.0238 11.7903 32.2225 11.8683C32.4213 11.9463 32.6024 12.0632 32.7552 12.2123C32.908 12.3613 33.0295 12.5395 33.1124 12.7362C33.1953 12.9329 33.2381 13.1442 33.2381 13.3577C33.2381 13.5712 33.1953 13.7825 33.1124 13.9792C33.0295 14.176 32.908 14.3541 32.7552 14.5031C32.6024 14.6522 32.4213 14.7692 32.2225 14.8471C32.0238 14.9251 31.8115 14.9626 31.5981 14.9572C31.1808 14.9468 30.7841 14.7737 30.4926 14.4749C30.2012 14.176 30.0381 13.7751 30.0381 13.3577C30.0381 12.9403 30.2012 12.5394 30.4926 12.2406C30.7841 11.9417 31.1808 11.7687 31.5981 11.7582ZM19.9921 11.9102C20.0075 11.9091 20.023 11.9112 20.0376 11.9164C20.0522 11.9216 20.0656 11.9298 20.0768 11.9404C20.0881 11.951 20.0971 11.9639 20.1031 11.9781C20.1092 11.9924 20.1122 12.0077 20.1121 12.0232C20.1111 12.0852 20.0621 12.1372 20.0001 12.1372C19.9716 12.1357 19.9447 12.1236 19.9247 12.1033C19.9047 12.083 19.893 12.0559 19.892 12.0274C19.891 11.9989 19.9007 11.971 19.9192 11.9493C19.9378 11.9276 19.9637 11.9137 19.9921 11.9102ZM27.9921 11.9102C28.0075 11.9091 28.023 11.9112 28.0376 11.9164C28.0522 11.9216 28.0656 11.9298 28.0768 11.9404C28.0881 11.951 28.0971 11.9639 28.1031 11.9781C28.1092 11.9924 28.1122 12.0077 28.1121 12.0232C28.1111 12.0852 28.0621 12.1372 28.0001 12.1372C27.9716 12.1357 27.9447 12.1236 27.9247 12.1033C27.9047 12.083 27.893 12.0559 27.892 12.0274C27.891 11.9989 27.9007 11.971 27.9192 11.9493C27.9378 11.9276 27.9637 11.9137 27.9921 11.9102ZM19.9921 12.4732C20.0075 12.4721 20.023 12.4742 20.0376 12.4794C20.0522 12.4846 20.0656 12.4928 20.0768 12.5034C20.0881 12.514 20.0971 12.5269 20.1031 12.5411C20.1092 12.5554 20.1122 12.5707 20.1121 12.5862C20.1111 12.6472 20.0621 12.6992 20.0001 12.7002C19.9716 12.6987 19.9447 12.6866 19.9247 12.6663C19.9047 12.646 19.893 12.6189 19.892 12.5904C19.891 12.5619 19.9007 12.534 19.9192 12.5123C19.9378 12.4906 19.9637 12.4767 19.9921 12.4732ZM27.9921 12.4732C28.0075 12.4721 28.023 12.4742 28.0376 12.4794C28.0522 12.4846 28.0656 12.4928 28.0768 12.5034C28.0881 12.514 28.0971 12.5269 28.1031 12.5411C28.1092 12.5554 28.1122 12.5707 28.1121 12.5862C28.1111 12.6472 28.0621 12.6992 28.0001 12.7002C27.9716 12.6987 27.9447 12.6866 27.9247 12.6663C27.9047 12.646 27.893 12.6189 27.892 12.5904C27.891 12.5619 27.9007 12.534 27.9192 12.5123C27.9378 12.4906 27.9637 12.4767 27.9921 12.4732ZM19.9801 14.7232H20.0001C20.0222 14.7234 20.0438 14.7302 20.0621 14.7426C20.0804 14.7551 20.0946 14.7727 20.1029 14.7933C20.1112 14.8138 20.1132 14.8364 20.1087 14.858C20.1042 14.8797 20.0933 14.8996 20.0775 14.9151C20.0617 14.9306 20.0417 14.9411 20.0199 14.9452C19.9982 14.9494 19.9757 14.947 19.9553 14.9383C19.9349 14.9296 19.9175 14.9151 19.9054 14.8966C19.8932 14.8781 19.8869 14.8564 19.8871 14.8342C19.8871 14.7802 19.9261 14.7302 19.9801 14.7232ZM27.9801 14.7232H28.0001C28.0222 14.7234 28.0438 14.7302 28.0621 14.7426C28.0804 14.7551 28.0946 14.7727 28.1029 14.7933C28.1112 14.8138 28.1132 14.8364 28.1087 14.858C28.1042 14.8797 28.0933 14.8996 28.0775 14.9151C28.0617 14.9306 28.0417 14.9411 28.0199 14.9452C27.9982 14.9494 27.9757 14.947 27.9553 14.9383C27.9349 14.9296 27.9175 14.9151 27.9054 14.8966C27.8932 14.8781 27.8869 14.8564 27.8871 14.8342C27.8871 14.7802 27.9261 14.7302 27.9801 14.7232ZM19.9801 15.2852H20.0001C20.0611 15.2862 20.1101 15.3352 20.1111 15.3972C20.1108 15.4185 20.1044 15.4393 20.0927 15.4572C20.081 15.475 20.0645 15.4891 20.0451 15.4979C20.0256 15.5066 20.0041 15.5097 19.983 15.5066C19.9619 15.5035 19.9421 15.4945 19.926 15.4806C19.9098 15.4667 19.898 15.4485 19.8918 15.428C19.8857 15.4076 19.8855 15.3859 19.8913 15.3654C19.8971 15.3448 19.9086 15.3264 19.9245 15.3122C19.9404 15.298 19.96 15.2886 19.9811 15.2852H19.9801ZM27.9801 15.2852H28.0001C28.0611 15.2862 28.1101 15.3352 28.1111 15.3972C28.1108 15.4185 28.1044 15.4393 28.0927 15.4572C28.081 15.475 28.0645 15.4891 28.0451 15.4979C28.0256 15.5066 28.0041 15.5097 27.983 15.5066C27.9619 15.5035 27.9421 15.4945 27.926 15.4806C27.9098 15.4667 27.898 15.4485 27.8918 15.428C27.8857 15.4076 27.8855 15.3859 27.8913 15.3654C27.8971 15.3448 27.9086 15.3264 27.9245 15.3122C27.9404 15.298 27.96 15.2886 27.9811 15.2852H27.9801ZM20.0021 15.8462C20.0318 15.8465 20.0601 15.8585 20.081 15.8797C20.1018 15.9009 20.1133 15.9295 20.1131 15.9592C20.1128 15.9889 20.1007 16.0173 20.0795 16.0381C20.0584 16.0589 20.0298 16.0705 20.0001 16.0702C19.9704 16.07 19.942 16.0579 19.9212 16.0367C19.9003 16.0155 19.8888 15.9869 19.8891 15.9572C19.8893 15.9275 19.9014 15.8991 19.9226 15.8783C19.9438 15.8575 19.9724 15.846 20.0021 15.8462ZM28.0021 15.8462C28.0168 15.8463 28.0313 15.8494 28.0448 15.8551C28.0584 15.8609 28.0707 15.8692 28.081 15.8797C28.0913 15.8902 28.0994 15.9026 28.1049 15.9163C28.1104 15.9299 28.1132 15.9445 28.1131 15.9592C28.1129 15.9739 28.1099 15.9885 28.1041 16.002C28.0984 16.0155 28.09 16.0278 28.0795 16.0381C28.0691 16.0484 28.0566 16.0566 28.043 16.0621C28.0294 16.0676 28.0148 16.0703 28.0001 16.0702C27.9704 16.07 27.942 16.0579 27.9212 16.0367C27.9003 16.0155 27.8888 15.9869 27.8891 15.9572C27.8893 15.9275 27.9014 15.8991 27.9226 15.8783C27.9438 15.8575 27.9724 15.846 28.0021 15.8462ZM16.7501 16.9922C17.1744 16.9922 17.5814 17.1608 17.8814 17.4608C18.1815 17.7609 18.3501 18.1679 18.3501 18.5922C18.3501 19.0166 18.1815 19.4235 17.8814 19.7236C17.5814 20.0236 17.1744 20.1922 16.7501 20.1922C16.3257 20.1922 15.9187 20.0236 15.6187 19.7236C15.3186 19.4235 15.1501 19.0166 15.1501 18.5922C15.1501 18.1679 15.3186 17.7609 15.6187 17.4608C15.9187 17.1608 16.3257 16.9922 16.7501 16.9922ZM24.2191 16.9922C24.6434 16.9922 25.0504 17.1608 25.3504 17.4608C25.6505 17.7609 25.8191 18.1679 25.8191 18.5922C25.8191 19.0166 25.6505 19.4235 25.3504 19.7236C25.0504 20.0236 24.6434 20.1922 24.2191 20.1922C23.7947 20.1922 23.3877 20.0236 23.0877 19.7236C22.7876 19.4235 22.6191 19.0166 22.6191 18.5922C22.6191 18.1679 22.7876 17.7609 23.0877 17.4608C23.3877 17.1608 23.7947 16.9922 24.2191 16.9922ZM31.5981 16.9922C32.0224 16.9922 32.4294 17.1608 32.7294 17.4608C33.0295 17.7609 33.1981 18.1679 33.1981 18.5922C33.1981 19.0166 33.0295 19.4235 32.7294 19.7236C32.4294 20.0236 32.0224 20.1922 31.5981 20.1922C31.1737 20.1922 30.7667 20.0236 30.4667 19.7236C30.1666 19.4235 29.9981 19.0166 29.9981 18.5922C29.9981 18.1679 30.1666 17.7609 30.4667 17.4608C30.7667 17.1608 31.1737 16.9922 31.5981 16.9922ZM19.9921 17.5332C20.0073 17.5321 20.0227 17.5342 20.0371 17.5392C20.0516 17.5443 20.0649 17.5523 20.0761 17.5627C20.0874 17.5731 20.0964 17.5857 20.1025 17.5997C20.1087 17.6138 20.112 17.6289 20.1121 17.6442C20.1121 17.6741 20.1002 17.7027 20.0791 17.7238C20.058 17.7449 20.0294 17.7567 19.9996 17.7567C19.9697 17.7567 19.9411 17.7449 19.92 17.7238C19.8989 17.7027 19.8871 17.6741 19.8871 17.6442C19.8871 17.5862 19.9331 17.5372 19.9921 17.5342V17.5332ZM27.9921 17.5332C28.0073 17.5321 28.0227 17.5342 28.0371 17.5392C28.0516 17.5443 28.0649 17.5523 28.0761 17.5627C28.0874 17.5731 28.0964 17.5857 28.1025 17.5997C28.1087 17.6138 28.112 17.6289 28.1121 17.6442C28.1121 17.6741 28.1002 17.7027 28.0791 17.7238C28.058 17.7449 28.0294 17.7567 27.9996 17.7567C27.9697 17.7567 27.9411 17.7449 27.92 17.7238C27.8989 17.7027 27.8871 17.6741 27.8871 17.6442C27.8871 17.5862 27.9331 17.5372 27.9921 17.5342V17.5332ZM19.9921 18.6592C20.0073 18.6581 20.0227 18.6602 20.0371 18.6652C20.0516 18.6703 20.0649 18.6783 20.0761 18.6887C20.0874 18.6991 20.0964 18.7117 20.1025 18.7257C20.1087 18.7398 20.112 18.7549 20.1121 18.7702C20.1122 18.7921 20.1059 18.8135 20.0941 18.8318C20.0822 18.8501 20.0652 18.8646 20.0453 18.8734C20.0253 18.8822 20.0031 18.885 19.9816 18.8814C19.9601 18.8778 19.94 18.868 19.924 18.8531C19.908 18.8383 19.8966 18.8191 19.8914 18.7979C19.8861 18.7767 19.8871 18.7545 19.8944 18.7338C19.9016 18.7132 19.9147 18.6952 19.9321 18.6819C19.9494 18.6687 19.9703 18.6608 19.9921 18.6592ZM27.9921 18.6592C28.0073 18.6581 28.0227 18.6602 28.0371 18.6652C28.0516 18.6703 28.0649 18.6783 28.0761 18.6887C28.0874 18.6991 28.0964 18.7117 28.1025 18.7257C28.1087 18.7398 28.112 18.7549 28.1121 18.7702C28.1122 18.7921 28.1059 18.8135 28.0941 18.8318C28.0822 18.8501 28.0652 18.8646 28.0453 18.8734C28.0253 18.8822 28.0031 18.885 27.9816 18.8814C27.9601 18.8778 27.94 18.868 27.924 18.8531C27.908 18.8383 27.8966 18.8191 27.8914 18.7979C27.8861 18.7767 27.8871 18.7545 27.8944 18.7338C27.9016 18.7132 27.9147 18.6952 27.9321 18.6819C27.9494 18.6687 27.9703 18.6608 27.9921 18.6592ZM19.9801 19.2212H20.0001C20.0222 19.2214 20.0438 19.2282 20.0621 19.2406C20.0804 19.2531 20.0946 19.2707 20.1029 19.2913C20.1112 19.3118 20.1132 19.3344 20.1087 19.356C20.1042 19.3777 20.0933 19.3976 20.0775 19.4131C20.0617 19.4286 20.0417 19.4391 20.0199 19.4432C19.9982 19.4474 19.9757 19.445 19.9553 19.4363C19.9349 19.4276 19.9175 19.4131 19.9054 19.3946C19.8932 19.3761 19.8869 19.3544 19.8871 19.3322C19.8871 19.2772 19.9261 19.2292 19.9801 19.2212ZM27.9801 19.2212H28.0001C28.0222 19.2214 28.0438 19.2282 28.0621 19.2406C28.0804 19.2531 28.0946 19.2707 28.1029 19.2913C28.1112 19.3118 28.1132 19.3344 28.1087 19.356C28.1042 19.3777 28.0933 19.3976 28.0775 19.4131C28.0617 19.4286 28.0417 19.4391 28.0199 19.4432C27.9982 19.4474 27.9757 19.445 27.9553 19.4363C27.9349 19.4276 27.9175 19.4131 27.9054 19.3946C27.8932 19.3761 27.8869 19.3544 27.8871 19.3322C27.8871 19.2772 27.9261 19.2292 27.9801 19.2212ZM20.0021 19.7812C20.0168 19.7813 20.0314 19.7844 20.045 19.7902C20.0586 19.7959 20.071 19.8043 20.0813 19.8149C20.0917 19.8254 20.0998 19.8379 20.1054 19.8516C20.1109 19.8653 20.1137 19.8799 20.1136 19.8947C20.1134 19.9095 20.1104 19.9241 20.1046 19.9377C20.0988 19.9513 20.0904 19.9636 20.0799 19.974C20.0694 19.9843 20.0569 19.9925 20.0432 19.998C20.0295 20.0036 20.0148 20.0063 20.0001 20.0062C19.9704 20.006 19.942 19.9939 19.9212 19.9727C19.9003 19.9515 19.8888 19.9229 19.8891 19.8932C19.8893 19.8635 19.9014 19.8351 19.9226 19.8143C19.9438 19.7935 19.9724 19.7819 20.0021 19.7822V19.7812ZM28.0021 19.7812C28.0168 19.7813 28.0314 19.7844 28.045 19.7902C28.0586 19.7959 28.071 19.8043 28.0813 19.8149C28.0917 19.8254 28.0998 19.8379 28.1054 19.8516C28.1109 19.8653 28.1137 19.8799 28.1136 19.8947C28.1134 19.9095 28.1104 19.9241 28.1046 19.9377C28.0988 19.9513 28.0904 19.9636 28.0799 19.974C28.0694 19.9843 28.0569 19.9925 28.0432 19.998C28.0295 20.0036 28.0148 20.0063 28.0001 20.0062C27.9704 20.006 27.942 19.9939 27.9212 19.9727C27.9003 19.9515 27.8888 19.9229 27.8891 19.8932C27.8893 19.8635 27.9014 19.8351 27.9226 19.8143C27.9438 19.7935 27.9724 19.7819 28.0021 19.7822V19.7812ZM19.9921 20.3442C19.9924 20.3729 19.9816 20.4006 19.9621 20.4217C19.9426 20.4427 19.9157 20.4554 19.8871 20.4572C19.8861 20.3972 19.9331 20.3472 19.9921 20.3442ZM27.9921 20.3442C27.9924 20.3729 27.9816 20.4006 27.9621 20.4217C27.9426 20.4427 27.9157 20.4554 27.8871 20.4572C27.8861 20.3972 27.9331 20.3472 27.9921 20.3442ZM16.7501 22.2272C16.9635 22.2219 17.1758 22.2593 17.3745 22.3373C17.5733 22.4153 17.7544 22.5322 17.9072 22.6813C18.06 22.8303 18.1815 23.0085 18.2644 23.2052C18.3473 23.4019 18.3901 23.6132 18.3901 23.8267C18.3901 24.0402 18.3473 24.2515 18.2644 24.4482C18.1815 24.645 18.06 24.8231 17.9072 24.9721C17.7544 25.1212 17.5733 25.2382 17.3745 25.3161C17.1758 25.3941 16.9635 25.4316 16.7501 25.4262C16.3257 25.4262 15.9187 25.2576 15.6187 24.9576C15.3186 24.6575 15.1501 24.2506 15.1501 23.8262C15.1501 23.4019 15.3186 22.9949 15.6187 22.6948C15.9187 22.3948 16.3257 22.2262 16.7501 22.2262V22.2272ZM24.2191 22.2272C24.4325 22.2219 24.6448 22.2593 24.8435 22.3373C25.0423 22.4153 25.2234 22.5322 25.3762 22.6813C25.529 22.8303 25.6505 23.0085 25.7334 23.2052C25.8163 23.4019 25.8591 23.6132 25.8591 23.8267C25.8591 24.0402 25.8163 24.2515 25.7334 24.4482C25.6505 24.645 25.529 24.8231 25.3762 24.9721C25.2234 25.1212 25.0423 25.2382 24.8435 25.3161C24.6448 25.3941 24.4325 25.4316 24.2191 25.4262C23.7947 25.4262 23.3877 25.2576 23.0877 24.9576C22.7876 24.6575 22.6191 24.2506 22.6191 23.8262C22.6191 23.4019 22.7876 22.9949 23.0877 22.6948C23.3877 22.3948 23.7947 22.2262 24.2191 22.2262V22.2272ZM31.5981 22.2272C31.8115 22.2219 32.0238 22.2593 32.2225 22.3373C32.4213 22.4153 32.6024 22.5322 32.7552 22.6813C32.908 22.8303 33.0295 23.0085 33.1124 23.2052C33.1953 23.4019 33.2381 23.6132 33.2381 23.8267C33.2381 24.0402 33.1953 24.2515 33.1124 24.4482C33.0295 24.645 32.908 24.8231 32.7552 24.9721C32.6024 25.1212 32.4213 25.2382 32.2225 25.3161C32.0238 25.3941 31.8115 25.4316 31.5981 25.4262C31.1737 25.4262 30.7667 25.2576 30.4667 24.9576C30.1666 24.6575 29.9981 24.2506 29.9981 23.8262C29.9981 23.4019 30.1666 22.9949 30.4667 22.6948C30.7667 22.3948 31.1737 22.2262 31.5981 22.2262V22.2272ZM19.9801 23.7192H20.0001C20.0222 23.7194 20.0438 23.7262 20.0621 23.7386C20.0804 23.7511 20.0946 23.7687 20.1029 23.7893C20.1112 23.8098 20.1132 23.8324 20.1087 23.854C20.1042 23.8757 20.0933 23.8956 20.0775 23.9111C20.0617 23.9266 20.0417 23.9371 20.0199 23.9412C19.9982 23.9454 19.9757 23.943 19.9553 23.9343C19.9349 23.9256 19.9175 23.9111 19.9054 23.8926C19.8932 23.8741 19.8869 23.8524 19.8871 23.8302C19.8871 23.7762 19.9261 23.7272 19.9801 23.7192ZM27.9801 23.7192H28.0001C28.0222 23.7194 28.0438 23.7262 28.0621 23.7386C28.0804 23.7511 28.0946 23.7687 28.1029 23.7893C28.1112 23.8098 28.1132 23.8324 28.1087 23.854C28.1042 23.8757 28.0933 23.8956 28.0775 23.9111C28.0617 23.9266 28.0417 23.9371 28.0199 23.9412C27.9982 23.9454 27.9757 23.943 27.9553 23.9343C27.9349 23.9256 27.9175 23.9111 27.9054 23.8926C27.8932 23.8741 27.8869 23.8524 27.8871 23.8302C27.8871 23.7762 27.9261 23.7272 27.9801 23.7192ZM19.9801 24.2822H20.0001C20.0611 24.2822 20.1101 24.3322 20.1111 24.3922C20.1074 24.4193 20.0941 24.4442 20.0735 24.4623C20.0529 24.4803 20.0264 24.4902 19.9991 24.4902C19.9717 24.4902 19.9452 24.4803 19.9246 24.4623C19.904 24.4442 19.8907 24.4193 19.8871 24.3922C19.8867 24.3658 19.896 24.3401 19.913 24.3199C19.9301 24.2997 19.9539 24.2863 19.9801 24.2822ZM27.9801 24.2822H28.0001C28.0611 24.2822 28.1101 24.3322 28.1111 24.3922C28.1074 24.4193 28.0941 24.4442 28.0735 24.4623C28.0529 24.4803 28.0264 24.4902 27.9991 24.4902C27.9717 24.4902 27.9452 24.4803 27.9246 24.4623C27.904 24.4442 27.8907 24.4193 27.8871 24.3922C27.8867 24.3658 27.896 24.3401 27.913 24.3199C27.9301 24.2997 27.9539 24.2863 27.9801 24.2822ZM16.7501 27.4622C16.9648 27.4546 17.1789 27.4904 17.3795 27.5673C17.5801 27.6442 17.7632 27.7608 17.9178 27.91C18.0724 28.0593 18.1954 28.2381 18.2794 28.4359C18.3633 28.6337 18.4066 28.8463 18.4066 29.0612C18.4066 29.2761 18.3633 29.4888 18.2794 29.6866C18.1954 29.8843 18.0724 30.0632 17.9178 30.2124C17.7632 30.3616 17.5801 30.4782 17.3795 30.5551C17.1789 30.6321 16.9648 30.6678 16.7501 30.6602C16.3328 30.6498 15.9361 30.4767 15.6446 30.1779C15.3532 29.879 15.1901 29.4781 15.1901 29.0607C15.1901 28.6433 15.3532 28.2424 15.6446 27.9436C15.9361 27.6447 16.3328 27.4717 16.7501 27.4612V27.4622ZM24.2191 27.4622C24.4338 27.4546 24.6479 27.4904 24.8485 27.5673C25.0491 27.6442 25.2322 27.7608 25.3868 27.91C25.5414 28.0593 25.6644 28.2381 25.7484 28.4359C25.8323 28.6337 25.8756 28.8463 25.8756 29.0612C25.8756 29.2761 25.8323 29.4888 25.7484 29.6866C25.6644 29.8843 25.5414 30.0632 25.3868 30.2124C25.2322 30.3616 25.0491 30.4782 24.8485 30.5551C24.6479 30.6321 24.4338 30.6678 24.2191 30.6602C23.8018 30.6498 23.4051 30.4767 23.1136 30.1779C22.8222 29.879 22.6591 29.4781 22.6591 29.0607C22.6591 28.6433 22.8222 28.2424 23.1136 27.9436C23.4051 27.6447 23.8018 27.4717 24.2191 27.4612V27.4622ZM31.5981 27.4622C31.8128 27.4546 32.0269 27.4904 32.2275 27.5673C32.4281 27.6442 32.6112 27.7608 32.7658 27.91C32.9204 28.0593 33.0434 28.2381 33.1274 28.4359C33.2113 28.6337 33.2546 28.8463 33.2546 29.0612C33.2546 29.2761 33.2113 29.4888 33.1274 29.6866C33.0434 29.8843 32.9204 30.0632 32.7658 30.2124C32.6112 30.3616 32.4281 30.4782 32.2275 30.5551C32.0269 30.6321 31.8128 30.6678 31.5981 30.6602C31.1808 30.6498 30.7841 30.4767 30.4926 30.1779C30.2012 29.879 30.0381 29.4781 30.0381 29.0607C30.0381 28.6433 30.2012 28.2424 30.4926 27.9436C30.7841 27.6447 31.1808 27.4717 31.5981 27.4612V27.4622ZM19.9801 28.2172H20.0001C20.0611 28.2172 20.1101 28.2672 20.1111 28.3282C20.1112 28.3496 20.1051 28.3706 20.0937 28.3887C20.0822 28.4068 20.0658 28.4212 20.0464 28.4302C20.027 28.4393 20.0054 28.4426 19.9842 28.4398C19.963 28.4369 19.9431 28.4281 19.9267 28.4143C19.9104 28.4004 19.8983 28.3822 19.892 28.3618C19.8857 28.3413 19.8854 28.3195 19.8911 28.2988C19.8968 28.2782 19.9084 28.2597 19.9243 28.2454C19.9402 28.2311 19.9599 28.2217 19.9811 28.2182L19.9801 28.2172ZM27.9801 28.2172H28.0001C28.0611 28.2172 28.1101 28.2672 28.1111 28.3282C28.1112 28.3496 28.1051 28.3706 28.0937 28.3887C28.0822 28.4068 28.0658 28.4212 28.0464 28.4302C28.027 28.4393 28.0054 28.4426 27.9842 28.4398C27.963 28.4369 27.9431 28.4281 27.9267 28.4143C27.9104 28.4004 27.8983 28.3822 27.892 28.3618C27.8857 28.3413 27.8854 28.3195 27.8911 28.2988C27.8968 28.2782 27.9084 28.2597 27.9243 28.2454C27.9402 28.2311 27.9599 28.2217 27.9811 28.2182L27.9801 28.2172ZM20.0021 28.7772C20.0319 28.7775 20.0604 28.7896 20.0813 28.8109C20.1022 28.8322 20.1138 28.8609 20.1136 28.8907C20.1133 28.9206 20.1012 28.9491 20.0799 28.97C20.0586 28.9909 20.0299 29.0025 20.0001 29.0022C19.9704 29.002 19.942 28.9899 19.9212 28.9687C19.9003 28.9475 19.8888 28.9189 19.8891 28.8892C19.8893 28.8595 19.9014 28.8311 19.9226 28.8103C19.9438 28.7895 19.9724 28.778 20.0021 28.7782V28.7772ZM28.0021 28.7772C28.0319 28.7775 28.0604 28.7896 28.0813 28.8109C28.1022 28.8322 28.1138 28.8609 28.1136 28.8907C28.1133 28.9206 28.1012 28.9491 28.0799 28.97C28.0586 28.9909 28.0299 29.0025 28.0001 29.0022C27.9704 29.002 27.942 28.9899 27.9212 28.9687C27.9003 28.9475 27.8888 28.9189 27.8891 28.8892C27.8893 28.8595 27.9014 28.8311 27.9226 28.8103C27.9438 28.7895 27.9724 28.778 28.0021 28.7782V28.7772ZM19.9921 31.0252C20.0074 31.0244 20.0228 31.0267 20.0373 31.032C20.0518 31.0373 20.065 31.0455 20.0762 31.0561C20.0874 31.0666 20.0964 31.0793 20.1025 31.0935C20.1087 31.1076 20.1119 31.1228 20.1121 31.1382C20.1121 31.1681 20.1002 31.1967 20.0791 31.2178C20.058 31.2389 20.0294 31.2507 19.9996 31.2507C19.9697 31.2507 19.9411 31.2389 19.92 31.2178C19.8989 31.1967 19.8871 31.1681 19.8871 31.1382C19.8871 31.0802 19.9331 31.0292 19.9921 31.0262V31.0252ZM27.9921 31.0252C28.0074 31.0244 28.0228 31.0267 28.0373 31.032C28.0518 31.0373 28.065 31.0455 28.0762 31.0561C28.0874 31.0666 28.0964 31.0793 28.1025 31.0935C28.1087 31.1076 28.1119 31.1228 28.1121 31.1382C28.1121 31.1681 28.1002 31.1967 28.0791 31.2178C28.058 31.2389 28.0294 31.2507 27.9996 31.2507C27.9697 31.2507 27.9411 31.2389 27.92 31.2178C27.8989 31.1967 27.8871 31.1681 27.8871 31.1382C27.8871 31.0802 27.9331 31.0292 27.9921 31.0262V31.0252ZM19.9921 31.5882H20.0001C20.0294 31.5893 20.0572 31.6018 20.0773 31.6231C20.0975 31.6444 20.1086 31.6728 20.108 31.7021C20.1075 31.7315 20.0955 31.7595 20.0745 31.78C20.0536 31.8006 20.0254 31.8121 19.9961 31.8121C19.9667 31.8121 19.9385 31.8006 19.9176 31.78C19.8966 31.7595 19.8846 31.7315 19.8841 31.7021C19.8836 31.6728 19.8946 31.6444 19.9148 31.6231C19.935 31.6018 19.9627 31.5893 19.9921 31.5882ZM27.9921 31.5882H28.0001C28.0294 31.5893 28.0572 31.6018 28.0773 31.6231C28.0975 31.6444 28.1086 31.6728 28.108 31.7021C28.1075 31.7315 28.0955 31.7595 28.0745 31.78C28.0536 31.8006 28.0254 31.8121 27.9961 31.8121C27.9667 31.8121 27.9385 31.8006 27.9176 31.78C27.8966 31.7595 27.8846 31.7315 27.8841 31.7021C27.8836 31.6728 27.8946 31.6444 27.9148 31.6231C27.935 31.6018 27.9627 31.5893 27.9921 31.5882ZM19.9801 32.1512H20.0001C20.0222 32.1514 20.0438 32.1582 20.0621 32.1706C20.0804 32.1831 20.0946 32.2007 20.1029 32.2213C20.1112 32.2418 20.1132 32.2644 20.1087 32.286C20.1042 32.3077 20.0933 32.3276 20.0775 32.3431C20.0617 32.3586 20.0417 32.3691 20.0199 32.3733C19.9982 32.3774 19.9757 32.375 19.9553 32.3663C19.9349 32.3576 19.9175 32.3431 19.9054 32.3246C19.8932 32.3061 19.8869 32.2844 19.8871 32.2622C19.8865 32.2356 19.8956 32.2097 19.9127 32.1893C19.9298 32.1688 19.9537 32.1553 19.9801 32.1512ZM27.9801 32.1512H28.0001C28.0222 32.1514 28.0438 32.1582 28.0621 32.1706C28.0804 32.1831 28.0946 32.2007 28.1029 32.2213C28.1112 32.2418 28.1132 32.2644 28.1087 32.286C28.1042 32.3077 28.0933 32.3276 28.0775 32.3431C28.0617 32.3586 28.0417 32.3691 28.0199 32.3733C27.9982 32.3774 27.9757 32.375 27.9553 32.3663C27.9349 32.3576 27.9175 32.3431 27.9054 32.3246C27.8932 32.3061 27.8869 32.2844 27.8871 32.2622C27.8865 32.2356 27.8956 32.2097 27.9127 32.1893C27.9298 32.1688 27.9537 32.1553 27.9801 32.1512ZM16.7501 32.6962C16.9648 32.6886 17.1789 32.7244 17.3795 32.8013C17.5801 32.8782 17.7632 32.9948 17.9178 33.144C18.0724 33.2933 18.1954 33.4721 18.2794 33.6699C18.3633 33.8677 18.4066 34.0803 18.4066 34.2952C18.4066 34.5101 18.3633 34.7228 18.2794 34.9205C18.1954 35.1183 18.0724 35.2972 17.9178 35.4464C17.7632 35.5956 17.5801 35.7122 17.3795 35.7891C17.1789 35.8661 16.9648 35.9018 16.7501 35.8942C16.3358 35.8796 15.9433 35.7047 15.6554 35.4064C15.3675 35.1081 15.2066 34.7098 15.2066 34.2952C15.2066 33.8807 15.3675 33.4823 15.6554 33.184C15.9433 32.8858 16.3358 32.7109 16.7501 32.6962ZM24.2191 32.6962C24.4325 32.6909 24.6448 32.7283 24.8435 32.8063C25.0423 32.8843 25.2234 33.0012 25.3762 33.1503C25.529 33.2993 25.6505 33.4775 25.7334 33.6742C25.8163 33.8709 25.8591 34.0822 25.8591 34.2957C25.8591 34.5092 25.8163 34.7205 25.7334 34.9172C25.6505 35.114 25.529 35.2921 25.3762 35.4411C25.2234 35.5902 25.0423 35.7072 24.8435 35.7851C24.6448 35.8631 24.4325 35.9006 24.2191 35.8952C23.7947 35.8952 23.3877 35.7266 23.0877 35.4266C22.7876 35.1265 22.6191 34.7196 22.6191 34.2952C22.6191 33.8709 22.7876 33.4639 23.0877 33.1638C23.3877 32.8638 23.7947 32.6952 24.2191 32.6952V32.6962ZM31.5981 32.6962C31.8115 32.6909 32.0238 32.7283 32.2225 32.8063C32.4213 32.8843 32.6024 33.0012 32.7552 33.1503C32.908 33.2993 33.0295 33.4775 33.1124 33.6742C33.1953 33.8709 33.2381 34.0822 33.2381 34.2957C33.2381 34.5092 33.1953 34.7205 33.1124 34.9172C33.0295 35.114 32.908 35.2921 32.7552 35.4411C32.6024 35.5902 32.4213 35.7072 32.2225 35.7851C32.0238 35.8631 31.8115 35.9006 31.5981 35.8952C31.1737 35.8952 30.7667 35.7266 30.4667 35.4266C30.1666 35.1265 29.9981 34.7196 29.9981 34.2952C29.9981 33.8709 30.1666 33.4639 30.4667 33.1638C30.7667 32.8638 31.1737 32.6952 31.5981 32.6952V32.6962ZM19.9811 32.7132H20.0001C20.0611 32.7132 20.1101 32.7632 20.1111 32.8242C20.111 32.8456 20.1048 32.8665 20.0932 32.8844C20.0816 32.9024 20.0652 32.9167 20.0457 32.9256C20.0263 32.9345 20.0048 32.9376 19.9836 32.9347C19.9625 32.9317 19.9426 32.9228 19.9263 32.9089C19.9101 32.8951 19.8981 32.8768 19.8919 32.8564C19.8857 32.836 19.8854 32.8142 19.8912 32.7936C19.8969 32.773 19.9085 32.7545 19.9244 32.7403C19.9403 32.726 19.96 32.7167 19.9811 32.7132ZM27.9811 32.7132H28.0001C28.0611 32.7132 28.1101 32.7632 28.1111 32.8242C28.111 32.8456 28.1048 32.8665 28.0932 32.8844C28.0816 32.9024 28.0652 32.9167 28.0457 32.9256C28.0263 32.9345 28.0048 32.9376 27.9836 32.9347C27.9625 32.9317 27.9426 32.9228 27.9263 32.9089C27.9101 32.8951 27.8981 32.8768 27.8919 32.8564C27.8857 32.836 27.8854 32.8142 27.8912 32.7936C27.8969 32.773 27.9085 32.7545 27.9244 32.7403C27.9403 32.726 27.96 32.7167 27.9811 32.7132ZM20.0021 33.2732C20.0641 33.2742 20.1141 33.3272 20.1131 33.3892C20.1131 33.4037 20.1102 33.4181 20.1046 33.4315C20.099 33.445 20.0908 33.4571 20.0805 33.4674C20.0702 33.4776 20.0579 33.4857 20.0445 33.4911C20.031 33.4966 20.0166 33.4993 20.0021 33.4992C19.9874 33.4996 19.9727 33.4971 19.959 33.4917C19.9453 33.4864 19.9329 33.4783 19.9223 33.4681C19.9118 33.4578 19.9034 33.4456 19.8977 33.432C19.892 33.4185 19.8891 33.4039 19.8891 33.3892C19.8891 33.3262 19.9391 33.2732 20.0021 33.2742V33.2732ZM28.0021 33.2732C28.0641 33.2742 28.1141 33.3272 28.1131 33.3892C28.1131 33.4037 28.1102 33.4181 28.1046 33.4315C28.099 33.445 28.0908 33.4571 28.0805 33.4674C28.0702 33.4776 28.0579 33.4857 28.0445 33.4911C28.031 33.4966 28.0166 33.4993 28.0021 33.4992C27.9874 33.4996 27.9727 33.4971 27.959 33.4917C27.9453 33.4864 27.9329 33.4783 27.9223 33.4681C27.9118 33.4578 27.9034 33.4456 27.8977 33.432C27.892 33.4185 27.8891 33.4039 27.8891 33.3892C27.8891 33.3262 27.9391 33.2732 28.0021 33.2742V33.2732ZM19.9921 33.8362H20.0001C20.0294 33.8373 20.0572 33.8498 20.0773 33.8711C20.0975 33.8924 20.1086 33.9208 20.108 33.9501C20.1075 33.9795 20.0955 34.0075 20.0745 34.028C20.0536 34.0486 20.0254 34.0601 19.9961 34.0601C19.9667 34.0601 19.9385 34.0486 19.9176 34.028C19.8966 34.0075 19.8846 33.9795 19.8841 33.9501C19.8836 33.9208 19.8946 33.8924 19.9148 33.8711C19.935 33.8498 19.9627 33.8373 19.9921 33.8362ZM27.9921 33.8362H28.0001C28.0294 33.8373 28.0572 33.8498 28.0773 33.8711C28.0975 33.8924 28.1086 33.9208 28.108 33.9501C28.1075 33.9795 28.0955 34.0075 28.0745 34.028C28.0536 34.0486 28.0254 34.0601 27.9961 34.0601C27.9667 34.0601 27.9385 34.0486 27.9176 34.028C27.8966 34.0075 27.8846 33.9795 27.8841 33.9501C27.8836 33.9208 27.8946 33.8924 27.9148 33.8711C27.935 33.8498 27.9627 33.8373 27.9921 33.8362ZM19.9801 37.2112H20.0001C20.0611 37.2112 20.1101 37.2612 20.1111 37.3222C20.1112 37.3436 20.1051 37.3646 20.0937 37.3827C20.0822 37.4008 20.0658 37.4152 20.0464 37.4242C20.027 37.4333 20.0054 37.4366 19.9842 37.4338C19.963 37.4309 19.9431 37.4221 19.9267 37.4083C19.9104 37.3944 19.8983 37.3762 19.892 37.3558C19.8857 37.3353 19.8854 37.3135 19.8911 37.2928C19.8968 37.2722 19.9084 37.2537 19.9243 37.2394C19.9402 37.2251 19.9599 37.2157 19.9811 37.2122L19.9801 37.2112ZM27.9801 37.2112H28.0001C28.0611 37.2112 28.1101 37.2612 28.1111 37.3222C28.1112 37.3436 28.1051 37.3646 28.0937 37.3827C28.0822 37.4008 28.0658 37.4152 28.0464 37.4242C28.027 37.4333 28.0054 37.4366 27.9842 37.4338C27.963 37.4309 27.9431 37.4221 27.9267 37.4083C27.9104 37.3944 27.8983 37.3762 27.892 37.3558C27.8857 37.3353 27.8854 37.3135 27.8911 37.2928C27.8968 37.2722 27.9084 37.2537 27.9243 37.2394C27.9402 37.2251 27.9599 37.2157 27.9811 37.2122L27.9801 37.2112ZM19.9921 37.7712H20.0001C20.0294 37.7723 20.0572 37.7848 20.0773 37.8061C20.0975 37.8274 20.1086 37.8558 20.108 37.8851C20.1075 37.9145 20.0955 37.9425 20.0745 37.963C20.0536 37.9836 20.0254 37.9951 19.9961 37.9951C19.9667 37.9951 19.9385 37.9836 19.9176 37.963C19.8966 37.9425 19.8846 37.9145 19.8841 37.8851C19.8836 37.8558 19.8946 37.8274 19.9148 37.8061C19.935 37.7848 19.9627 37.7723 19.9921 37.7712ZM27.9921 37.7712H28.0001C28.0294 37.7723 28.0572 37.7848 28.0773 37.8061C28.0975 37.8274 28.1086 37.8558 28.108 37.8851C28.1075 37.9145 28.0955 37.9425 28.0745 37.963C28.0536 37.9836 28.0254 37.9951 27.9961 37.9951C27.9667 37.9951 27.9385 37.9836 27.9176 37.963C27.8966 37.9425 27.8846 37.9145 27.8841 37.8851C27.8836 37.8558 27.8946 37.8274 27.9148 37.8061C27.935 37.7848 27.9627 37.7723 27.9921 37.7712ZM24.2191 37.9652C24.4325 37.9599 24.6448 37.9973 24.8435 38.0753C25.0423 38.1533 25.2234 38.2702 25.3762 38.4193C25.529 38.5683 25.6505 38.7465 25.7334 38.9432C25.8163 39.1399 25.8591 39.3512 25.8591 39.5647C25.8591 39.7782 25.8163 39.9895 25.7334 40.1862C25.6505 40.3829 25.529 40.5611 25.3762 40.7101C25.2234 40.8592 25.0423 40.9762 24.8435 41.0541C24.6448 41.1321 24.4325 41.1696 24.2191 41.1642C23.8018 41.1538 23.4051 40.9807 23.1136 40.6819C22.8222 40.383 22.6591 39.9821 22.6591 39.5647C22.6591 39.1473 22.8222 38.7464 23.1136 38.4476C23.4051 38.1487 23.8018 37.9756 24.2191 37.9652ZM19.9921 39.4592H20.0001C20.0294 39.4603 20.0572 39.4728 20.0773 39.4941C20.0975 39.5154 20.1086 39.5438 20.108 39.5731C20.1075 39.6025 20.0955 39.6305 20.0745 39.651C20.0536 39.6716 20.0254 39.6831 19.9961 39.6831C19.9667 39.6831 19.9385 39.6716 19.9176 39.651C19.8966 39.6305 19.8846 39.6025 19.8841 39.5731C19.8836 39.5438 19.8946 39.5154 19.9148 39.4941C19.935 39.4728 19.9627 39.4603 19.9921 39.4592ZM27.9921 39.4592H28.0001C28.0294 39.4603 28.0572 39.4728 28.0773 39.4941C28.0975 39.5154 28.1086 39.5438 28.108 39.5731C28.1075 39.6025 28.0955 39.6305 28.0745 39.651C28.0536 39.6716 28.0254 39.6831 27.9961 39.6831C27.9667 39.6831 27.9385 39.6716 27.9176 39.651C27.8966 39.6305 27.8846 39.6025 27.8841 39.5731C27.8836 39.5438 27.8946 39.5154 27.9148 39.4941C27.935 39.4728 27.9627 39.4603 27.9921 39.4592ZM19.9921 40.0222H20.0001C20.0294 40.0233 20.0572 40.0358 20.0773 40.0571C20.0975 40.0784 20.1086 40.1068 20.108 40.1361C20.1075 40.1655 20.0955 40.1935 20.0745 40.214C20.0536 40.2346 20.0254 40.2461 19.9961 40.2461C19.9667 40.2461 19.9385 40.2346 19.9176 40.214C19.8966 40.1935 19.8846 40.1655 19.8841 40.1361C19.8836 40.1068 19.8946 40.0784 19.9148 40.0571C19.935 40.0358 19.9627 40.0233 19.9921 40.0222ZM27.9921 40.0222H28.0001C28.0294 40.0233 28.0572 40.0358 28.0773 40.0571C28.0975 40.0784 28.1086 40.1068 28.108 40.1361C28.1075 40.1655 28.0955 40.1935 28.0745 40.214C28.0536 40.2346 28.0254 40.2461 27.9961 40.2461C27.9667 40.2461 27.9385 40.2346 27.9176 40.214C27.8966 40.1935 27.8846 40.1655 27.8841 40.1361C27.8836 40.1068 27.8946 40.0784 27.9148 40.0571C27.935 40.0358 27.9627 40.0233 27.9921 40.0222ZM19.9921 40.5842H20.0001C20.0294 40.5853 20.0572 40.5978 20.0773 40.6191C20.0975 40.6404 20.1086 40.6688 20.108 40.6981C20.1075 40.7275 20.0955 40.7555 20.0745 40.776C20.0536 40.7966 20.0254 40.8081 19.9961 40.8081C19.9667 40.8081 19.9385 40.7966 19.9176 40.776C19.8966 40.7555 19.8846 40.7275 19.8841 40.6981C19.8836 40.6688 19.8946 40.6404 19.9148 40.6191C19.935 40.5978 19.9627 40.5853 19.9921 40.5842ZM27.9921 40.5842H28.0001C28.0294 40.5853 28.0572 40.5978 28.0773 40.6191C28.0975 40.6404 28.1086 40.6688 28.108 40.6981C28.1075 40.7275 28.0955 40.7555 28.0745 40.776C28.0536 40.7966 28.0254 40.8081 27.9961 40.8081C27.9667 40.8081 27.9385 40.7966 27.9176 40.776C27.8966 40.7555 27.8846 40.7275 27.8841 40.6981C27.8836 40.6688 27.8946 40.6404 27.9148 40.6191C27.935 40.5978 27.9627 40.5853 27.9921 40.5842ZM19.9801 41.1472H20.0001C20.0222 41.1474 20.0438 41.1542 20.0621 41.1666C20.0804 41.1791 20.0946 41.1967 20.1029 41.2173C20.1112 41.2378 20.1132 41.2604 20.1087 41.282C20.1042 41.3037 20.0933 41.3236 20.0775 41.3391C20.0617 41.3546 20.0417 41.3651 20.0199 41.3692C19.9982 41.3734 19.9757 41.371 19.9553 41.3623C19.9349 41.3536 19.9175 41.3391 19.9054 41.3206C19.8932 41.3021 19.8869 41.2804 19.8871 41.2582C19.8865 41.2316 19.8956 41.2057 19.9127 41.1853C19.9298 41.1648 19.9537 41.1513 19.9801 41.1472ZM27.9801 41.1472H28.0001C28.0222 41.1474 28.0438 41.1542 28.0621 41.1666C28.0804 41.1791 28.0946 41.1967 28.1029 41.2173C28.1112 41.2378 28.1132 41.2604 28.1087 41.282C28.1042 41.3037 28.0933 41.3236 28.0775 41.3391C28.0617 41.3546 28.0417 41.3651 28.0199 41.3692C27.9982 41.3734 27.9757 41.371 27.9553 41.3623C27.9349 41.3536 27.9175 41.3391 27.9054 41.3206C27.8932 41.3021 27.8869 41.2804 27.8871 41.2582C27.8865 41.2316 27.8956 41.2057 27.9127 41.1853C27.9298 41.1648 27.9537 41.1513 27.9801 41.1472ZM19.9801 41.7092H20.0001C20.0611 41.7102 20.1101 41.7592 20.1111 41.8212C20.1111 41.8822 20.0611 41.9312 20.0001 41.9312C19.9705 41.9315 19.9421 41.9201 19.9209 41.8995C19.8998 41.8789 19.8876 41.8507 19.8871 41.8212C19.8862 41.7944 19.8953 41.7682 19.9124 41.7476C19.9295 41.727 19.9536 41.7133 19.9801 41.7092ZM27.9801 41.7092H28.0001C28.0611 41.7102 28.1101 41.7592 28.1111 41.8212C28.1111 41.8822 28.0611 41.9312 28.0001 41.9312C27.9705 41.9315 27.9421 41.9201 27.9209 41.8995C27.8998 41.8789 27.8876 41.8507 27.8871 41.8212C27.8862 41.7944 27.8953 41.7682 27.9124 41.7476C27.9295 41.727 27.9536 41.7133 27.9801 41.7092ZM20.0021 42.2692C20.0319 42.2695 20.0604 42.2816 20.0813 42.3029C20.1022 42.3242 20.1138 42.3529 20.1136 42.3827C20.1133 42.4126 20.1012 42.4411 20.0799 42.462C20.0586 42.4829 20.0299 42.4945 20.0001 42.4942C19.9853 42.4941 19.9708 42.4911 19.9573 42.4853C19.9437 42.4796 19.9315 42.4712 19.9212 42.4607C19.9108 42.4502 19.9027 42.4378 19.8972 42.4241C19.8917 42.4105 19.8889 42.3959 19.8891 42.3812C19.8892 42.3665 19.8922 42.352 19.898 42.3384C19.9037 42.3249 19.9121 42.3126 19.9226 42.3023C19.9331 42.292 19.9455 42.2839 19.9591 42.2784C19.9728 42.2728 19.9873 42.2701 20.0021 42.2702V42.2692ZM28.0021 42.2692C28.0319 42.2695 28.0604 42.2816 28.0813 42.3029C28.1022 42.3242 28.1138 42.3529 28.1136 42.3827C28.1133 42.4126 28.1012 42.4411 28.0799 42.462C28.0586 42.4829 28.0299 42.4945 28.0001 42.4942C27.9704 42.4939 27.942 42.4819 27.9212 42.4607C27.9003 42.4395 27.8888 42.4109 27.8891 42.3812C27.8893 42.3515 27.9014 42.3231 27.9226 42.3023C27.9438 42.2815 27.9724 42.2699 28.0021 42.2702V42.2692Z" fill="#333333"/>
</svg>
