<svg width="48" height="48" viewBox="0 0 48 48" fill="none" xmlns="http://www.w3.org/2000/svg">
<path d="M23.8181 4.13708C20.5321 4.14508 17.2981 4.15908 14.1251 4.15808C13.9191 4.15768 13.715 4.19802 13.5246 4.27676C13.3343 4.35551 13.1614 4.47111 13.0158 4.61693C12.8703 4.76274 12.755 4.93589 12.6766 5.12641C12.5982 5.31693 12.5583 5.52107 12.5591 5.72708V42.5871C12.5591 43.4571 13.2561 44.1581 14.1251 44.1581H33.8301C34.7001 44.1581 35.3981 43.4571 35.3981 42.5881V5.72708C35.3981 4.85708 34.6991 4.15808 33.8301 4.15808C30.4441 4.12808 27.1051 4.12808 23.8181 4.13708ZM14.5611 4.65708L14.5591 4.65808H33.3961C34.2261 4.65808 34.8981 5.33808 34.8981 6.18808V42.1271C34.8981 42.9741 34.2281 43.6571 33.3961 43.6571H14.5611C13.7291 43.6571 13.0611 42.9741 13.0611 42.1271V6.18708C13.0611 5.34008 13.7291 4.65708 14.5611 4.65708ZM19.9611 5.19708C19.9357 5.20069 19.9123 5.21307 19.8951 5.23208C19.8847 5.24256 19.8764 5.25499 19.8708 5.26867C19.8652 5.28235 19.8624 5.29701 19.8625 5.31179C19.8626 5.32657 19.8656 5.34118 19.8714 5.35479C19.8771 5.3684 19.8855 5.38073 19.8961 5.39108C19.9066 5.40104 19.919 5.40882 19.9326 5.41397C19.9462 5.41912 19.9606 5.42153 19.9751 5.42108C20.004 5.42173 20.0321 5.41095 20.0531 5.39108C20.0746 5.3703 20.0871 5.34196 20.0881 5.31208C20.0884 5.28235 20.077 5.25369 20.0565 5.23221C20.0359 5.21073 20.0078 5.19812 19.9781 5.19708H19.9711C19.9678 5.19693 19.9644 5.19693 19.9611 5.19708ZM27.9611 5.19708C27.9357 5.20069 27.9123 5.21307 27.8951 5.23208C27.8847 5.24256 27.8764 5.25499 27.8708 5.26867C27.8652 5.28235 27.8624 5.29701 27.8625 5.31179C27.8626 5.32657 27.8656 5.34118 27.8714 5.35479C27.8771 5.3684 27.8855 5.38073 27.8961 5.39108C27.9066 5.40104 27.919 5.40882 27.9326 5.41397C27.9462 5.41912 27.9606 5.42153 27.9751 5.42108C28.004 5.42173 28.0321 5.41095 28.0531 5.39108C28.0746 5.3703 28.0871 5.34196 28.0881 5.31208C28.0884 5.28235 28.077 5.25369 28.0565 5.23221C28.0359 5.21073 28.0078 5.19812 27.9781 5.19708H27.9711C27.9678 5.19693 27.9644 5.19693 27.9611 5.19708ZM19.9711 5.76208C19.9562 5.76255 19.9416 5.76595 19.9281 5.77208C19.9017 5.78543 19.8813 5.8083 19.8711 5.83608C19.8661 5.85006 19.8641 5.86491 19.8651 5.8797C19.8662 5.8945 19.8702 5.90892 19.8771 5.92208C19.8865 5.94223 19.9017 5.95911 19.9208 5.97052C19.9398 5.98193 19.9619 5.98735 19.9841 5.98608C20.014 5.98455 20.042 5.97125 20.0621 5.94908C20.0719 5.93792 20.0795 5.92494 20.0843 5.91087C20.0891 5.8968 20.0911 5.88192 20.0901 5.86708C20.0886 5.83721 20.0753 5.80916 20.0531 5.78908C20.0304 5.76958 20.0009 5.75987 19.9711 5.76208ZM27.9711 5.76208C27.9562 5.76255 27.9416 5.76595 27.9281 5.77208C27.9148 5.77877 27.9029 5.78794 27.8931 5.79908C27.8832 5.81024 27.8757 5.82323 27.8709 5.83732C27.866 5.8514 27.864 5.86629 27.865 5.88115C27.8659 5.89601 27.8697 5.91054 27.8763 5.92391C27.8828 5.93728 27.8919 5.94923 27.9031 5.95908C27.9143 5.96893 27.9272 5.97648 27.9413 5.98131C27.9554 5.98614 27.9703 5.98814 27.9852 5.98722C28 5.98629 28.0146 5.98244 28.0279 5.9759C28.0413 5.96935 28.0532 5.96024 28.0631 5.94908C28.0826 5.9264 28.0923 5.89691 28.0901 5.86708C28.0886 5.83721 28.0753 5.80916 28.0531 5.78908C28.0304 5.76958 28.0009 5.75987 27.9711 5.76208ZM19.9611 6.32408C19.9342 6.32795 19.9097 6.34144 19.8921 6.36204C19.8744 6.38264 19.8648 6.40895 19.8651 6.43608C19.8661 6.46561 19.8786 6.49359 19.8999 6.51412C19.9211 6.53464 19.9495 6.5461 19.9791 6.54608C19.9936 6.54614 20.0079 6.54334 20.0213 6.53785C20.0347 6.53236 20.0468 6.52428 20.0571 6.51408C20.0675 6.5039 20.0757 6.49177 20.0814 6.47838C20.0871 6.46499 20.09 6.45062 20.0901 6.43608C20.0901 6.37508 20.0401 6.32608 19.9791 6.32408H19.9611ZM27.9611 6.32408C27.9342 6.32795 27.9097 6.34144 27.8921 6.36204C27.8744 6.38264 27.8648 6.40895 27.8651 6.43608C27.8661 6.46561 27.8786 6.49359 27.8999 6.51412C27.9211 6.53464 27.9495 6.5461 27.9791 6.54608C27.9936 6.54614 28.0079 6.54334 28.0213 6.53785C28.0347 6.53236 28.0468 6.52428 28.0571 6.51408C28.0675 6.5039 28.0757 6.49177 28.0814 6.47838C28.0871 6.46499 28.09 6.45062 28.0901 6.43608C28.0901 6.37508 28.0401 6.32608 27.9791 6.32408H27.9611ZM24.1971 6.61708V6.61908C23.9836 6.6136 23.7712 6.65085 23.5723 6.72864C23.3735 6.80644 23.1922 6.9232 23.0391 7.07208C22.8861 7.22208 22.7671 7.40108 22.6841 7.59808C22.6009 7.79423 22.5577 8.00502 22.5571 8.21808C22.5571 8.53951 22.654 8.85347 22.835 9.11906C23.0161 9.38465 23.2729 9.58956 23.5721 9.70708C23.7721 9.78508 23.9841 9.82408 24.1971 9.81808C24.5136 9.81813 24.8231 9.72428 25.0863 9.54841C25.3495 9.37255 25.5546 9.12256 25.6757 8.83008C25.7968 8.5376 25.8284 8.21579 25.7665 7.90534C25.7046 7.5949 25.5521 7.30979 25.3281 7.08608C25.0284 6.78622 24.622 6.61754 24.1981 6.61708H24.1971ZM19.9691 6.88508C19.9432 6.88701 19.9188 6.89799 19.9001 6.91608C19.8901 6.92682 19.8823 6.93938 19.8771 6.95308C19.871 6.96654 19.8677 6.9811 19.8673 6.99587C19.867 7.01065 19.8696 7.02534 19.8751 7.03908C19.887 7.06583 19.9083 7.08721 19.9351 7.09908C19.9501 7.10608 19.9641 7.10908 19.9791 7.10908C20.0086 7.10883 20.0369 7.09712 20.058 7.07641C20.0791 7.0557 20.0913 7.02762 20.0921 6.99808C20.0921 6.96808 20.0821 6.93908 20.0611 6.91808C20.0398 6.89699 20.0111 6.88514 19.9811 6.88508C19.9771 6.88486 19.9731 6.88486 19.9691 6.88508ZM27.9691 6.88508C27.9432 6.88701 27.9188 6.89799 27.9001 6.91608C27.8901 6.92682 27.8823 6.93938 27.8771 6.95308C27.871 6.96654 27.8677 6.9811 27.8673 6.99587C27.867 7.01065 27.8696 7.02534 27.8751 7.03908C27.887 7.06583 27.9083 7.08721 27.9351 7.09908C27.9501 7.10608 27.9641 7.10908 27.9791 7.10908C28.0086 7.10883 28.0369 7.09712 28.058 7.07641C28.0791 7.0557 28.0913 7.02762 28.0921 6.99808C28.0921 6.96808 28.0821 6.93908 28.0611 6.91808C28.0398 6.89699 28.0111 6.88514 27.9811 6.88508C27.9771 6.88486 27.9731 6.88486 27.9691 6.88508ZM24.1971 7.08008C24.3494 7.0753 24.5012 7.10115 24.6433 7.15609C24.7855 7.21103 24.9152 7.29394 25.0247 7.39991C25.1343 7.50588 25.2214 7.63276 25.281 7.77303C25.3407 7.9133 25.3715 8.06411 25.3718 8.21652C25.372 8.36893 25.3417 8.51984 25.2826 8.66032C25.2235 8.8008 25.1368 8.92799 25.0276 9.03434C24.9184 9.1407 24.789 9.22407 24.6471 9.2795C24.5051 9.33494 24.3534 9.36132 24.2011 9.35708C23.905 9.34884 23.6237 9.22554 23.417 9.01335C23.2102 8.80116 23.0943 8.51677 23.0938 8.22052C23.0933 7.92427 23.2082 7.63948 23.4142 7.42656C23.6202 7.21364 23.901 7.08936 24.1971 7.08008ZM19.9711 7.44508V7.44708C19.9422 7.44859 19.915 7.46112 19.8951 7.48208C19.8752 7.50348 19.8644 7.53184 19.8651 7.56108C19.8654 7.57943 19.8703 7.59742 19.8792 7.61347C19.8881 7.62952 19.9008 7.64313 19.9162 7.65311C19.9316 7.66308 19.9492 7.66912 19.9675 7.67068C19.9858 7.67225 20.0042 7.66929 20.0211 7.66208C20.0379 7.65434 20.0525 7.64265 20.0638 7.628C20.075 7.61335 20.0825 7.59619 20.0857 7.57798C20.0888 7.55978 20.0875 7.54109 20.0818 7.52351C20.0762 7.50593 20.0663 7.49 20.0531 7.47708C20.0424 7.46639 20.0295 7.45803 20.0154 7.45252C20.0013 7.44701 19.9862 7.44448 19.9711 7.44508ZM27.9711 7.44508V7.44708C27.9422 7.44859 27.915 7.46112 27.8951 7.48208C27.8752 7.50348 27.8644 7.53184 27.8651 7.56108C27.8654 7.57943 27.8703 7.59742 27.8792 7.61347C27.8881 7.62952 27.9008 7.64313 27.9162 7.65311C27.9316 7.66308 27.9492 7.66912 27.9675 7.67068C27.9858 7.67225 28.0042 7.66929 28.0211 7.66208C28.0379 7.65434 28.0525 7.64265 28.0638 7.628C28.075 7.61335 28.0825 7.59619 28.0857 7.57798C28.0888 7.55978 28.0875 7.54109 28.0818 7.52351C28.0762 7.50593 28.0663 7.49 28.0531 7.47708C28.0424 7.46639 28.0295 7.45803 28.0154 7.45252C28.0013 7.44701 27.9862 7.44448 27.9711 7.44508ZM19.9611 8.00808C19.9359 8.01099 19.9125 8.02267 19.8951 8.04108C19.8743 8.0622 19.8628 8.09068 19.863 8.12029C19.8632 8.14989 19.8751 8.17822 19.8961 8.19908C19.9066 8.20922 19.9189 8.21718 19.9325 8.2225C19.946 8.22783 19.9605 8.2304 19.9751 8.23008C20.004 8.23073 20.0321 8.21995 20.0531 8.20008C20.0746 8.1793 20.0871 8.15096 20.0881 8.12108C20.0885 8.09141 20.0774 8.06275 20.0571 8.04108C20.0364 8.02029 20.0084 8.00845 19.9791 8.00808H19.9711C19.9678 8.00792 19.9644 8.00792 19.9611 8.00808ZM27.9611 8.00808C27.9359 8.01099 27.9125 8.02267 27.8951 8.04108C27.8743 8.0622 27.8628 8.09068 27.863 8.12029C27.8632 8.14989 27.8751 8.17822 27.8961 8.19908C27.9066 8.20922 27.9189 8.21718 27.9325 8.2225C27.946 8.22783 27.9605 8.2304 27.9751 8.23008C28.004 8.23073 28.0321 8.21995 28.0531 8.20008C28.0746 8.1793 28.0871 8.15096 28.0881 8.12108C28.0885 8.09141 28.0774 8.06275 28.0571 8.04108C28.0364 8.02029 28.0084 8.00845 27.9791 8.00808H27.9711C27.9678 8.00792 27.9644 8.00792 27.9611 8.00808ZM19.9611 8.57008C19.9357 8.57369 19.9123 8.58607 19.8951 8.60508C19.8795 8.62058 19.8689 8.64041 19.8647 8.66199C19.8605 8.68358 19.8628 8.70594 19.8714 8.72618C19.88 8.74642 19.8945 8.76361 19.913 8.77554C19.9315 8.78746 19.9531 8.79357 19.9751 8.79308C20.0042 8.79346 20.0322 8.78232 20.0531 8.76208C20.0743 8.74154 20.0869 8.71361 20.0881 8.68408C20.0881 8.65452 20.0767 8.62612 20.0561 8.60485C20.0356 8.58358 20.0076 8.57112 19.9781 8.57008H19.9711C19.9678 8.56993 19.9644 8.56993 19.9611 8.57008ZM27.9611 8.57008C27.9357 8.57369 27.9123 8.58607 27.8951 8.60508C27.8795 8.62058 27.8689 8.64041 27.8647 8.66199C27.8605 8.68358 27.8628 8.70594 27.8714 8.72618C27.88 8.74642 27.8945 8.76361 27.913 8.77554C27.9315 8.78746 27.9531 8.79357 27.9751 8.79308C28.0042 8.79346 28.0322 8.78232 28.0531 8.76208C28.0743 8.74154 28.0869 8.71361 28.0881 8.68408C28.0881 8.65452 28.0767 8.62612 28.0561 8.60485C28.0356 8.58358 28.0076 8.57112 27.9781 8.57008H27.9711C27.9678 8.56993 27.9644 8.56993 27.9611 8.57008ZM19.9711 9.13308C19.942 9.13541 19.9149 9.14863 19.8951 9.17008C19.8848 9.18098 19.8768 9.19387 19.8716 9.20797C19.8664 9.22208 19.8642 9.23709 19.8651 9.25208C19.8665 9.26638 19.8705 9.28029 19.8771 9.29308C19.8864 9.31332 19.9015 9.33028 19.9207 9.3417C19.9398 9.35313 19.9619 9.35849 19.9841 9.35708C19.9987 9.35636 20.0131 9.35271 20.0263 9.34636C20.0396 9.34 20.0514 9.33107 20.0611 9.32008C20.0811 9.29772 20.0914 9.26838 20.0899 9.23844C20.0884 9.20849 20.0752 9.18034 20.0531 9.16008C20.0304 9.14068 20.0009 9.13098 19.9711 9.13308ZM27.9711 9.13308C27.942 9.13541 27.9149 9.14863 27.8951 9.17008C27.8848 9.18098 27.8768 9.19387 27.8716 9.20797C27.8664 9.22208 27.8642 9.23709 27.8651 9.25208C27.8665 9.26638 27.8705 9.28029 27.8771 9.29308C27.8864 9.31332 27.9015 9.33028 27.9207 9.3417C27.9398 9.35313 27.9619 9.35849 27.9841 9.35708C27.9987 9.35636 28.0131 9.35271 28.0263 9.34636C28.0396 9.34 28.0514 9.33107 28.0611 9.32008C28.0811 9.29772 28.0914 9.26838 28.0899 9.23844C28.0884 9.20849 28.0752 9.18034 28.0531 9.16008C28.0304 9.14068 28.0009 9.13098 27.9711 9.13308ZM16.6041 9.43208C16.3942 9.43146 16.1862 9.4723 15.9921 9.55227C15.798 9.63224 15.6216 9.74976 15.4731 9.89808C15.2491 10.122 15.0965 10.4072 15.0345 10.7178C14.9726 11.0284 15.0041 11.3504 15.1251 11.6431C15.2262 11.8858 15.3855 12.0999 15.589 12.2665C15.7924 12.4331 16.0337 12.5472 16.2915 12.5986C16.5494 12.6499 16.816 12.6371 17.0677 12.5611C17.3195 12.4852 17.5486 12.3485 17.7351 12.1631C17.9587 11.9393 18.111 11.6543 18.1726 11.344C18.2343 11.0337 18.2026 10.7122 18.0816 10.4199C17.9606 10.1276 17.7556 9.87778 17.4926 9.70196C17.2296 9.52614 16.9204 9.43223 16.6041 9.43208ZM31.3541 9.43208C31.1442 9.43146 30.9362 9.4723 30.7421 9.55227C30.548 9.63224 30.3716 9.74976 30.2231 9.89808C29.9991 10.122 29.8465 10.4072 29.7845 10.7178C29.7226 11.0284 29.7541 11.3504 29.8751 11.6431C29.9762 11.8858 30.1355 12.0999 30.339 12.2665C30.5424 12.4331 30.7837 12.5472 31.0415 12.5986C31.2994 12.6499 31.566 12.6371 31.8177 12.5611C32.0695 12.4852 32.2986 12.3485 32.4851 12.1631C32.7087 11.9393 32.861 11.6543 32.9226 11.344C32.9843 11.0337 32.9526 10.7122 32.8316 10.4199C32.7106 10.1276 32.5056 9.87778 32.2426 9.70196C31.9796 9.52614 31.6704 9.43223 31.3541 9.43208ZM19.9611 9.69508C19.9454 9.69707 19.9303 9.70243 19.9169 9.71078C19.9034 9.71914 19.892 9.7303 19.8832 9.74349C19.8745 9.75668 19.8687 9.77161 19.8663 9.78724C19.8638 9.80287 19.8648 9.81885 19.8691 9.83408C19.8743 9.85589 19.8858 9.8757 19.9021 9.89108C19.9178 9.90623 19.9376 9.91633 19.9591 9.92008C19.9811 9.92408 20.0031 9.92008 20.0231 9.91008C20.0436 9.90196 20.0613 9.88807 20.0741 9.87008C20.0858 9.85243 20.0923 9.83185 20.0928 9.8107C20.0934 9.78955 20.088 9.76866 20.0772 9.75042C20.0665 9.73218 20.0509 9.71733 20.0321 9.70754C20.0133 9.69776 19.9922 9.69344 19.9711 9.69508C19.9678 9.69493 19.9644 9.69493 19.9611 9.69508ZM27.9611 9.69508C27.9454 9.69707 27.9303 9.70243 27.9169 9.71078C27.9034 9.71914 27.892 9.7303 27.8832 9.74349C27.8745 9.75668 27.8687 9.77161 27.8663 9.78724C27.8638 9.80287 27.8648 9.81885 27.8691 9.83408C27.8742 9.85591 27.8857 9.87574 27.9021 9.89108C27.9178 9.90623 27.9376 9.91633 27.9591 9.92008C27.9811 9.92408 28.0031 9.92008 28.0231 9.91008C28.0436 9.90196 28.0613 9.88807 28.0741 9.87008C28.0858 9.85243 28.0923 9.83185 28.0928 9.8107C28.0934 9.78955 28.088 9.76866 28.0772 9.75042C28.0665 9.73218 28.0509 9.71733 28.0321 9.70754C28.0133 9.69776 27.9922 9.69344 27.9711 9.69508C27.9678 9.69493 27.9644 9.69493 27.9611 9.69508ZM16.6231 9.89308C16.9266 9.89308 17.2177 10.0137 17.4324 10.2283C17.647 10.4429 17.7676 10.734 17.7676 11.0376C17.7676 11.3411 17.647 11.6322 17.4324 11.8469C17.2177 12.0615 16.9266 12.1821 16.6231 12.1821C16.3194 12.1821 16.0282 12.0614 15.8135 11.8467C15.5987 11.632 15.4781 11.3408 15.4781 11.0371C15.4781 10.7334 15.5987 10.4422 15.8135 10.2274C16.0282 10.0127 16.3194 9.89208 16.6231 9.89208V9.89308ZM31.3981 9.92008C31.5511 9.91555 31.7035 9.94178 31.8462 9.99721C31.9888 10.0526 32.119 10.1361 32.2288 10.2428C32.3386 10.3494 32.4259 10.477 32.4856 10.618C32.5452 10.759 32.5759 10.9105 32.5759 11.0636C32.5759 11.2167 32.5452 11.3682 32.4856 11.5092C32.4259 11.6502 32.3386 11.7777 32.2288 11.8844C32.119 11.991 31.9888 12.0745 31.8462 12.1299C31.7035 12.1854 31.5511 12.2116 31.3981 12.2071C31.1007 12.1983 30.8184 12.0739 30.6111 11.8605C30.4038 11.647 30.2879 11.3611 30.2879 11.0636C30.2879 10.766 30.4038 10.4802 30.6111 10.2667C30.8184 10.0532 31.1007 9.92887 31.3981 9.92008ZM19.9591 10.2581C19.9325 10.2626 19.9084 10.2764 19.8911 10.2971C19.8739 10.3178 19.8646 10.3441 19.8651 10.3711C19.8651 10.4341 19.9151 10.4841 19.9791 10.4841C20.0087 10.4831 20.0367 10.4705 20.0571 10.4491C20.078 10.4285 20.0898 10.4004 20.0901 10.3711C20.0901 10.3415 20.0785 10.313 20.0577 10.2919C20.0369 10.2707 20.0087 10.2586 19.9791 10.2581H19.9591ZM27.9591 10.2581C27.9325 10.2626 27.9084 10.2764 27.8911 10.2971C27.8739 10.3178 27.8646 10.3441 27.8651 10.3711C27.8651 10.4341 27.9151 10.4841 27.9791 10.4841C28.0087 10.4831 28.0367 10.4705 28.0571 10.4491C28.078 10.4285 28.0898 10.4004 28.0901 10.3711C28.0901 10.3415 28.0785 10.313 28.0577 10.2919C28.0369 10.2707 28.0087 10.2586 27.9791 10.2581H27.9591ZM19.9691 10.8181C19.9578 10.8192 19.9467 10.8219 19.9361 10.8261C19.9225 10.8322 19.9102 10.8411 19.9001 10.8521C19.8894 10.8627 19.8809 10.8752 19.8751 10.8891C19.8696 10.9034 19.8669 10.9187 19.8671 10.9341C19.8671 10.9961 19.9181 11.0431 19.9801 11.0431C19.9947 11.0437 20.0093 11.0413 20.0229 11.0359C20.0365 11.0306 20.0488 11.0225 20.0591 11.0121C20.07 11.0023 20.0786 10.9902 20.0843 10.9767C20.09 10.9633 20.0926 10.9487 20.0921 10.9341C20.0925 10.9191 20.0899 10.9041 20.0845 10.8901C20.079 10.8762 20.0709 10.8634 20.0604 10.8526C20.05 10.8418 20.0375 10.8332 20.0237 10.8272C20.0099 10.8213 19.9951 10.8182 19.9801 10.8181C19.9764 10.8179 19.9728 10.8179 19.9691 10.8181ZM27.9691 10.8181C27.9578 10.8192 27.9467 10.8219 27.9361 10.8261C27.9225 10.8322 27.9102 10.8411 27.9001 10.8521C27.8894 10.8627 27.8809 10.8752 27.8751 10.8891C27.8696 10.9034 27.8669 10.9187 27.8671 10.9341C27.8671 10.9961 27.9181 11.0431 27.9801 11.0431C27.9947 11.0437 28.0093 11.0413 28.0229 11.0359C28.0365 11.0306 28.0488 11.0225 28.0591 11.0121C28.07 11.0023 28.0786 10.9902 28.0843 10.9767C28.09 10.9633 28.0926 10.9487 28.0921 10.9341C28.0925 10.9191 28.0899 10.9041 28.0845 10.8901C28.079 10.8762 28.0709 10.8634 28.0604 10.8526C28.05 10.8418 28.0375 10.8332 28.0237 10.8272C28.0099 10.8213 27.9951 10.8182 27.9801 10.8181C27.9764 10.8179 27.9728 10.8179 27.9691 10.8181ZM19.9691 11.3811C19.9581 11.3821 19.9473 11.3848 19.9371 11.3891C19.9233 11.395 19.9108 11.4035 19.9001 11.4141C19.8902 11.4241 19.8824 11.436 19.8771 11.4491C19.8711 11.4626 19.8679 11.4771 19.8675 11.4919C19.8672 11.5066 19.8697 11.5213 19.8751 11.5351C19.881 11.5489 19.8895 11.5614 19.9001 11.5721C19.9214 11.592 19.949 11.6037 19.9781 11.6051C20.0081 11.6051 20.0371 11.5931 20.0581 11.5721C20.0791 11.5514 20.0912 11.5232 20.0918 11.4937C20.0924 11.4642 20.0813 11.4356 20.0611 11.4141C20.0398 11.393 20.0111 11.3811 19.9811 11.3811C19.9771 11.3809 19.9731 11.3809 19.9691 11.3811ZM27.9691 11.3811C27.9581 11.3821 27.9473 11.3848 27.9371 11.3891C27.9233 11.395 27.9108 11.4035 27.9001 11.4141C27.8902 11.4241 27.8824 11.436 27.8771 11.4491C27.8711 11.4626 27.8679 11.4771 27.8675 11.4919C27.8672 11.5066 27.8697 11.5213 27.8751 11.5351C27.881 11.5489 27.8895 11.5614 27.9001 11.5721C27.9214 11.592 27.949 11.6037 27.9781 11.6051C28.0081 11.6051 28.0371 11.5931 28.0581 11.5721C28.0791 11.5514 28.0912 11.5232 28.0918 11.4937C28.0924 11.4642 28.0813 11.4356 28.0611 11.4141C28.0398 11.393 28.0111 11.3811 27.9811 11.3811C27.9771 11.3809 27.9731 11.3809 27.9691 11.3811ZM24.1971 11.7911C23.8737 11.7794 23.5543 11.8661 23.2813 12.0399C23.0083 12.2136 22.7945 12.4661 22.6681 12.7641C22.5424 13.0622 22.5096 13.3913 22.574 13.7084C22.6384 14.0254 22.797 14.3156 23.0291 14.5411C23.1837 14.6903 23.3668 14.8069 23.5675 14.8837C23.7682 14.9605 23.9823 14.996 24.1971 14.9881C24.5064 14.9781 24.8062 14.8785 25.06 14.7013C25.3138 14.524 25.5106 14.2769 25.6265 13.9899C25.7424 13.7029 25.7724 13.3884 25.7128 13.0847C25.6533 12.781 25.5068 12.5011 25.2911 12.2791C25.0035 11.9807 24.6112 11.8057 24.1971 11.7911ZM19.9711 11.9431C19.9428 11.9466 19.9168 11.9605 19.8983 11.9822C19.8798 12.0039 19.87 12.0317 19.871 12.0602C19.872 12.0888 19.8837 12.1158 19.9037 12.1362C19.9237 12.1565 19.9506 12.1686 19.9791 12.1701C20.0086 12.1689 20.0366 12.1563 20.0571 12.1351C20.0778 12.1143 20.0896 12.0864 20.0901 12.0571C20.0899 12.0416 20.0865 12.0262 20.0801 12.0121C20.0741 11.9979 20.0654 11.985 20.0544 11.9742C20.0434 11.9634 20.0304 11.9548 20.0161 11.9491C20.0017 11.944 19.9863 11.9419 19.9711 11.9431ZM27.9711 11.9431C27.9428 11.9466 27.9168 11.9605 27.8983 11.9822C27.8798 12.0039 27.87 12.0317 27.871 12.0602C27.872 12.0888 27.8837 12.1158 27.9037 12.1362C27.9237 12.1565 27.9506 12.1686 27.9791 12.1701C28.0086 12.1689 28.0366 12.1563 28.0571 12.1351C28.0778 12.1143 28.0896 12.0864 28.0901 12.0571C28.0899 12.0416 28.0865 12.0262 28.0801 12.0121C28.0741 11.9979 28.0654 11.985 28.0544 11.9742C28.0434 11.9634 28.0304 11.9548 28.0161 11.9491C28.0017 11.944 27.9863 11.9419 27.9711 11.9431ZM24.1971 12.2521C24.3552 12.2532 24.5113 12.2872 24.6556 12.3519C24.7998 12.4167 24.929 12.5108 25.0348 12.6283C25.1406 12.7457 25.2208 12.884 25.2703 13.0341C25.3197 13.1843 25.3373 13.3431 25.322 13.5005C25.3067 13.6579 25.2587 13.8103 25.1812 13.9481C25.1036 14.0859 24.9982 14.206 24.8717 14.3008C24.7452 14.3956 24.6003 14.463 24.4462 14.4987C24.2922 14.5344 24.1324 14.5376 23.9771 14.5081C23.7561 14.4647 23.5529 14.3568 23.3931 14.1981C23.2338 14.0382 23.1256 13.8346 23.0821 13.6131C23.0378 13.3925 23.0599 13.1638 23.1457 12.9559C23.2315 12.7479 23.3771 12.5702 23.5641 12.4451C23.7514 12.3196 23.9717 12.2524 24.1971 12.2521ZM19.9711 12.5061C19.9437 12.5106 19.919 12.5249 19.9014 12.5463C19.8838 12.5678 19.8747 12.5949 19.8757 12.6226C19.8767 12.6503 19.8877 12.6767 19.9067 12.6968C19.9258 12.717 19.9515 12.7295 19.9791 12.7321C20.0086 12.7309 20.0366 12.7183 20.0571 12.6971C20.0778 12.6763 20.0896 12.6484 20.0901 12.6191C20.0899 12.6036 20.0865 12.5882 20.0801 12.5741C20.0744 12.5602 20.0659 12.5476 20.0551 12.5371C20.0435 12.5267 20.0299 12.5189 20.0151 12.5141C20.0011 12.5085 19.9861 12.5058 19.9711 12.5061ZM27.9711 12.5061C27.9437 12.5106 27.919 12.5249 27.9014 12.5463C27.8838 12.5678 27.8747 12.5949 27.8757 12.6226C27.8767 12.6503 27.8877 12.6767 27.9067 12.6968C27.9258 12.717 27.9515 12.7295 27.9791 12.7321C28.0086 12.7309 28.0366 12.7183 28.0571 12.6971C28.0778 12.6763 28.0896 12.6484 28.0901 12.6191C28.0899 12.6036 28.0865 12.5882 28.0801 12.5741C28.0744 12.5602 28.0659 12.5476 28.0551 12.5371C28.0435 12.5267 28.0299 12.5189 28.0151 12.5141C28.0011 12.5085 27.9861 12.5058 27.9711 12.5061ZM19.9611 13.0681C19.9454 13.0701 19.9303 13.0754 19.9169 13.0838C19.9034 13.0921 19.892 13.1033 19.8832 13.1165C19.8745 13.1297 19.8687 13.1446 19.8663 13.1602C19.8638 13.1759 19.8648 13.1919 19.8691 13.2071C19.8743 13.2289 19.8858 13.2487 19.9021 13.2641C19.9177 13.2793 19.9376 13.2894 19.9591 13.2931C19.9811 13.2971 20.0031 13.2931 20.0231 13.2831C20.0436 13.275 20.0613 13.2611 20.0741 13.2431C20.0858 13.2254 20.0923 13.2049 20.0928 13.1837C20.0934 13.1625 20.088 13.1417 20.0772 13.1234C20.0665 13.1052 20.0509 13.0903 20.0321 13.0805C20.0133 13.0708 19.9922 13.0664 19.9711 13.0681C19.9678 13.0679 19.9644 13.0679 19.9611 13.0681ZM27.9611 13.0681C27.9454 13.0701 27.9303 13.0754 27.9169 13.0838C27.9034 13.0921 27.892 13.1033 27.8832 13.1165C27.8745 13.1297 27.8687 13.1446 27.8663 13.1602C27.8638 13.1759 27.8648 13.1919 27.8691 13.2071C27.8742 13.2289 27.8857 13.2487 27.9021 13.2641C27.9177 13.2793 27.9376 13.2894 27.9591 13.2931C27.9811 13.2971 28.0031 13.2931 28.0231 13.2831C28.0436 13.275 28.0613 13.2611 28.0741 13.2431C28.0858 13.2254 28.0923 13.2049 28.0928 13.1837C28.0934 13.1625 28.088 13.1417 28.0772 13.1234C28.0665 13.1052 28.0509 13.0903 28.0321 13.0805C28.0133 13.0708 27.9922 13.0664 27.9711 13.0681C27.9678 13.0679 27.9644 13.0679 27.9611 13.0681ZM19.9711 13.6311C19.9491 13.6326 19.928 13.6404 19.9103 13.6535C19.8926 13.6666 19.879 13.6845 19.8711 13.7051C19.866 13.719 19.8639 13.7339 19.865 13.7487C19.866 13.7635 19.8701 13.778 19.8771 13.7911C19.8864 13.8113 19.9015 13.8283 19.9207 13.8397C19.9398 13.8511 19.9619 13.8565 19.9841 13.8551C19.9987 13.8544 20.0131 13.8507 20.0263 13.8444C20.0396 13.838 20.0514 13.8291 20.0611 13.8181C20.0811 13.7957 20.0914 13.7664 20.0899 13.7364C20.0884 13.7065 20.0752 13.6783 20.0531 13.6581C20.0304 13.6386 20.0009 13.6289 19.9711 13.6311ZM27.9711 13.6311C27.9491 13.6326 27.928 13.6404 27.9103 13.6535C27.8926 13.6666 27.879 13.6845 27.8711 13.7051C27.866 13.719 27.8639 13.7339 27.865 13.7487C27.866 13.7635 27.8701 13.778 27.8771 13.7911C27.8864 13.8113 27.9015 13.8283 27.9207 13.8397C27.9398 13.8511 27.9619 13.8565 27.9841 13.8551C27.9987 13.8544 28.0131 13.8507 28.0263 13.8444C28.0396 13.838 28.0514 13.8291 28.0611 13.8181C28.0811 13.7957 28.0914 13.7664 28.0899 13.7364C28.0884 13.7065 28.0752 13.6783 28.0531 13.6581C28.0304 13.6386 28.0009 13.6289 27.9711 13.6311ZM19.9591 14.1931C19.9483 14.1949 19.9379 14.1983 19.9281 14.2031C19.9154 14.2098 19.9042 14.219 19.8951 14.2301C19.8847 14.241 19.8765 14.2539 19.8711 14.2681C19.8663 14.2821 19.8643 14.2969 19.8653 14.3117C19.8663 14.3265 19.8704 14.3409 19.8771 14.3541C19.883 14.3673 19.8915 14.3792 19.9021 14.3891C19.9131 14.3991 19.9271 14.4051 19.9421 14.4101C19.9628 14.4173 19.9851 14.4183 20.0063 14.4128C20.0275 14.4072 20.0466 14.3955 20.0611 14.3791C20.0768 14.3629 20.0871 14.3423 20.0907 14.32C20.0943 14.2977 20.0909 14.2749 20.0811 14.2546C20.0713 14.2343 20.0555 14.2175 20.0358 14.2065C20.0161 14.1955 19.9935 14.1908 19.9711 14.1931C19.9671 14.1929 19.9631 14.1929 19.9591 14.1931ZM27.9591 14.1931C27.9483 14.1949 27.9379 14.1983 27.9281 14.2031C27.9154 14.2098 27.9042 14.219 27.8951 14.2301C27.8847 14.241 27.8765 14.2539 27.8711 14.2681C27.8663 14.2821 27.8643 14.2969 27.8653 14.3117C27.8663 14.3265 27.8704 14.3409 27.8771 14.3541C27.883 14.3673 27.8915 14.3792 27.9021 14.3891C27.9131 14.3991 27.9271 14.4051 27.9421 14.4101C27.9628 14.4173 27.9851 14.4183 28.0063 14.4128C28.0275 14.4072 28.0466 14.3955 28.0611 14.3791C28.0768 14.3629 28.0871 14.3423 28.0907 14.32C28.0943 14.2977 28.0909 14.2749 28.0811 14.2546C28.0713 14.2343 28.0555 14.2175 28.0358 14.2065C28.0161 14.1955 27.9935 14.1908 27.9711 14.1931C27.9671 14.1929 27.9631 14.1929 27.9591 14.1931ZM16.6041 14.7251C16.3908 14.7197 16.1786 14.7571 15.98 14.8351C15.7814 14.913 15.6004 15.0299 15.4477 15.1789C15.2949 15.3278 15.1736 15.5058 15.0907 15.7024C15.0078 15.899 14.9651 16.1102 14.9651 16.3236C14.9651 16.5369 15.0078 16.7481 15.0907 16.9447C15.1736 17.1413 15.2949 17.3193 15.4477 17.4683C15.6004 17.6173 15.7814 17.7341 15.98 17.8121C16.1786 17.89 16.3908 17.9274 16.6041 17.9221C17.0211 17.9116 17.4176 17.7387 17.7088 17.44C18.0001 17.1414 18.1631 16.7407 18.1631 16.3236C18.1631 15.9064 18.0001 15.5058 17.7088 15.2071C17.4176 14.9085 17.0211 14.7355 16.6041 14.7251ZM31.3541 14.7251C31.1408 14.7197 30.9286 14.7571 30.73 14.8351C30.5314 14.913 30.3504 15.0299 30.1977 15.1789C30.0449 15.3278 29.9236 15.5058 29.8407 15.7024C29.7578 15.899 29.7151 16.1102 29.7151 16.3236C29.7151 16.5369 29.7578 16.7481 29.8407 16.9447C29.9236 17.1413 30.0449 17.3193 30.1977 17.4683C30.3504 17.6173 30.5314 17.7341 30.73 17.8121C30.9286 17.89 31.1408 17.9274 31.3541 17.9221C31.7711 17.9116 32.1676 17.7387 32.4588 17.44C32.7501 17.1414 32.9131 16.7407 32.9131 16.3236C32.9131 15.9064 32.7501 15.5058 32.4588 15.2071C32.1676 14.9085 31.7711 14.7355 31.3541 14.7251ZM19.9591 14.7551C19.9329 14.7593 19.9092 14.7727 19.8919 14.7929C19.8747 14.813 19.8652 14.8386 19.8651 14.8651C19.8651 14.8881 19.8721 14.9121 19.8851 14.9321C19.898 14.9504 19.9161 14.9643 19.9371 14.9721C19.953 14.9789 19.9704 14.9819 19.9877 14.9808C20.005 14.9797 20.0219 14.9744 20.0368 14.9656C20.0517 14.9567 20.0643 14.9444 20.0736 14.9297C20.0828 14.915 20.0885 14.8984 20.0901 14.8811C20.0931 14.858 20.0889 14.8346 20.0781 14.8141C20.0669 14.7941 20.0497 14.778 20.0291 14.7681C20.0088 14.7574 19.9858 14.7532 19.9631 14.7561H19.9591V14.7551ZM27.9591 14.7551C27.9329 14.7593 27.9092 14.7727 27.8919 14.7929C27.8747 14.813 27.8652 14.8386 27.8651 14.8651C27.8651 14.8881 27.8721 14.9121 27.8851 14.9321C27.898 14.9504 27.9161 14.9643 27.9371 14.9721C27.953 14.9789 27.9704 14.9819 27.9877 14.9808C28.005 14.9797 28.0219 14.9744 28.0368 14.9656C28.0517 14.9567 28.0643 14.9444 28.0736 14.9297C28.0828 14.915 28.0885 14.8984 28.0901 14.8811C28.0931 14.858 28.0889 14.8346 28.0781 14.8141C28.0669 14.7941 28.0498 14.778 28.0291 14.7681C28.0088 14.7574 27.9858 14.7532 27.9631 14.7561H27.9591V14.7551ZM16.6041 15.1851C16.7641 15.1835 16.9227 15.2156 17.0695 15.2793C17.2163 15.3431 17.348 15.437 17.4561 15.555C17.5642 15.673 17.6463 15.8125 17.6969 15.9643C17.7476 16.1161 17.7657 16.2769 17.7501 16.4362C17.7345 16.5954 17.6855 16.7497 17.6064 16.8888C17.5272 17.0279 17.4197 17.1487 17.2907 17.2435C17.1618 17.3383 17.0143 17.4049 16.8579 17.4389C16.7016 17.473 16.5398 17.4737 16.3831 17.4411C16.1622 17.3973 15.9592 17.289 15.7999 17.1299C15.6406 16.9708 15.5321 16.7679 15.4881 16.5471C15.4553 16.382 15.4595 16.2117 15.5004 16.0485C15.5412 15.8852 15.6178 15.733 15.7245 15.6029C15.8312 15.4727 15.9654 15.3679 16.1175 15.2958C16.2696 15.2237 16.4358 15.1862 16.6041 15.1861V15.1851ZM31.3541 15.1851C31.5141 15.1835 31.6727 15.2156 31.8195 15.2793C31.9663 15.3431 32.098 15.437 32.2061 15.555C32.3142 15.673 32.3963 15.8125 32.4469 15.9643C32.4976 16.1161 32.5157 16.2769 32.5001 16.4362C32.4845 16.5954 32.4355 16.7497 32.3564 16.8888C32.2772 17.0279 32.1697 17.1487 32.0407 17.2435C31.9118 17.3383 31.7643 17.4049 31.6079 17.4389C31.4516 17.473 31.2898 17.4737 31.1331 17.4411C30.9122 17.3973 30.7092 17.289 30.5499 17.1299C30.3906 16.9708 30.2821 16.7679 30.2381 16.5471C30.2053 16.382 30.2095 16.2117 30.2504 16.0485C30.2912 15.8852 30.3678 15.733 30.4745 15.6029C30.5812 15.4727 30.7154 15.3679 30.8675 15.2958C31.0196 15.2237 31.1858 15.1862 31.3541 15.1861V15.1851ZM19.9591 15.3181C19.938 15.3215 19.9184 15.3308 19.9024 15.345C19.8865 15.3591 19.8749 15.3776 19.8691 15.3981C19.8631 15.4186 19.8631 15.4405 19.8691 15.4611C19.8757 15.4813 19.8878 15.4993 19.904 15.5131C19.9203 15.5269 19.94 15.5359 19.9611 15.5391C19.9823 15.542 20.0039 15.5389 20.0233 15.53C20.0428 15.5212 20.0594 15.507 20.0711 15.4891C20.0832 15.4714 20.0898 15.4505 20.0901 15.4291C20.0893 15.4 20.0774 15.3723 20.0567 15.3518C20.036 15.3313 20.0082 15.3196 19.9791 15.3191C19.9784 15.3191 19.9778 15.3191 19.9771 15.3191C19.9764 15.3191 19.9758 15.3191 19.9751 15.3191C19.9731 15.3188 19.9711 15.3188 19.9691 15.3191C19.9684 15.3191 19.9678 15.3191 19.9671 15.3191C19.9651 15.3188 19.9631 15.3188 19.9611 15.3191H19.9591V15.3181ZM27.9591 15.3181C27.938 15.3215 27.9184 15.3308 27.9024 15.345C27.8865 15.3591 27.8749 15.3776 27.8691 15.3981C27.8631 15.4186 27.8631 15.4405 27.8691 15.4611C27.8757 15.4813 27.8878 15.4993 27.904 15.5131C27.9203 15.5269 27.94 15.5359 27.9611 15.5391C27.9823 15.542 28.0039 15.5389 28.0233 15.53C28.0428 15.5212 28.0594 15.507 28.0711 15.4891C28.0832 15.4714 28.0898 15.4505 28.0901 15.4291C28.0893 15.4 28.0774 15.3723 28.0567 15.3518C28.036 15.3313 28.0082 15.3196 27.9791 15.3191C27.9784 15.3191 27.9778 15.3191 27.9771 15.3191C27.9764 15.3191 27.9758 15.3191 27.9751 15.3191C27.9731 15.3188 27.9711 15.3188 27.9691 15.3191C27.9684 15.3191 27.9678 15.3191 27.9671 15.3191C27.9651 15.3188 27.9631 15.3188 27.9611 15.3191H27.9591V15.3181ZM19.9691 15.8771C19.958 15.8788 19.9472 15.8822 19.9371 15.8871C19.9233 15.8925 19.9107 15.9006 19.9001 15.9109C19.8894 15.9212 19.8809 15.9335 19.8751 15.9471C19.8696 15.9607 19.8669 15.9754 19.8671 15.9901C19.8671 16.0051 19.8691 16.0201 19.8751 16.0331C19.884 16.0534 19.8985 16.0708 19.9169 16.0832C19.9353 16.0956 19.9569 16.1025 19.9791 16.1031C20.0091 16.1031 20.0371 16.0911 20.0591 16.0701C20.08 16.0492 20.0919 16.021 20.0923 15.9915C20.0927 15.962 20.0815 15.9335 20.0611 15.9121C20.0398 15.891 20.0111 15.8791 19.9811 15.8791V15.8771C19.9771 15.8769 19.9731 15.8769 19.9691 15.8771ZM27.9691 15.8771C27.958 15.8788 27.9472 15.8822 27.9371 15.8871C27.9233 15.8925 27.9107 15.9006 27.9001 15.9109C27.8894 15.9212 27.8809 15.9335 27.8751 15.9471C27.8696 15.9607 27.8669 15.9754 27.8671 15.9901C27.8671 16.0051 27.8691 16.0201 27.8751 16.0331C27.881 16.0469 27.8895 16.0594 27.9001 16.0701C27.9214 16.09 27.949 16.1017 27.9781 16.1031C28.0081 16.1031 28.0371 16.0911 28.0581 16.0701C28.0791 16.0494 28.0912 16.0212 28.0918 15.9917C28.0924 15.9622 28.0813 15.9336 28.0611 15.9121C28.0398 15.891 28.0111 15.8791 27.9811 15.8791V15.8771C27.9771 15.8769 27.9731 15.8769 27.9691 15.8771ZM19.9711 16.4411C19.9421 16.443 19.9149 16.4558 19.8951 16.4771C19.8755 16.4983 19.8648 16.5262 19.8651 16.5551C19.8651 16.5771 19.8721 16.5991 19.8851 16.6171C19.898 16.6353 19.9162 16.6492 19.9371 16.6571C19.9581 16.6631 19.9801 16.6671 20.0021 16.6621C20.024 16.6571 20.0439 16.6456 20.0591 16.6291C20.0748 16.6128 20.0851 16.592 20.0887 16.5697C20.0922 16.5474 20.0889 16.5245 20.0791 16.5041C20.0689 16.4841 20.0529 16.4677 20.0331 16.4571C20.0145 16.4456 19.9929 16.44 19.9711 16.4411ZM27.9711 16.4411C27.9421 16.443 27.9149 16.4558 27.8951 16.4771C27.8755 16.4983 27.8648 16.5262 27.8651 16.5551C27.8651 16.5771 27.8721 16.5991 27.8851 16.6171C27.898 16.6353 27.9162 16.6492 27.9371 16.6571C27.9581 16.6631 27.9801 16.6671 28.0021 16.6621C28.024 16.6571 28.0439 16.6456 28.0591 16.6291C28.0748 16.6128 28.0851 16.592 28.0887 16.5697C28.0922 16.5474 28.0889 16.5245 28.0791 16.5041C28.0689 16.4841 28.0529 16.4677 28.0331 16.4571C28.0145 16.4456 27.9929 16.44 27.9711 16.4411ZM19.9711 17.0041C19.9422 17.0057 19.9151 17.0182 19.8951 17.0391C19.8755 17.0603 19.8648 17.0882 19.8651 17.1171C19.8636 17.1327 19.8654 17.1485 19.8704 17.1635C19.8754 17.1784 19.8834 17.1921 19.894 17.2038C19.9046 17.2154 19.9175 17.2247 19.9319 17.231C19.9463 17.2374 19.9619 17.2407 19.9776 17.2407C19.9933 17.2407 20.0089 17.2374 20.0233 17.231C20.0377 17.2247 20.0506 17.2154 20.0612 17.2038C20.0718 17.1921 20.0798 17.1784 20.0848 17.1635C20.0898 17.1485 20.0916 17.1327 20.0901 17.1171C20.0899 17.1016 20.0865 17.0862 20.0801 17.0721C20.0678 17.0438 20.0448 17.0215 20.0161 17.0101C20.0017 17.005 19.9863 17.0029 19.9711 17.0041ZM27.9711 17.0041C27.9422 17.0057 27.9151 17.0182 27.8951 17.0391C27.8755 17.0603 27.8648 17.0882 27.8651 17.1171C27.8636 17.1327 27.8654 17.1485 27.8704 17.1635C27.8754 17.1784 27.8834 17.1921 27.894 17.2038C27.9046 17.2154 27.9175 17.2247 27.9319 17.231C27.9463 17.2374 27.9619 17.2407 27.9776 17.2407C27.9933 17.2407 28.0089 17.2374 28.0233 17.231C28.0377 17.2247 28.0506 17.2154 28.0612 17.2038C28.0718 17.1921 28.0798 17.1784 28.0848 17.1635C28.0898 17.1485 28.0916 17.1327 28.0901 17.1171C28.0899 17.1016 28.0865 17.0862 28.0801 17.0721C28.0678 17.0438 28.0448 17.0215 28.0161 17.0101C28.0017 17.005 27.9863 17.0029 27.9711 17.0041ZM24.1971 17.0251C23.9836 17.0197 23.7711 17.0571 23.5722 17.1351C23.3734 17.2131 23.1921 17.33 23.0391 17.4791C22.8868 17.6286 22.7658 17.8069 22.683 18.0037C22.6003 18.2004 22.5575 18.4116 22.5571 18.6251C22.5573 18.9463 22.6543 19.2601 22.8353 19.5255C23.0163 19.7909 23.2731 19.9956 23.5721 20.1131C23.7896 20.1989 24.0233 20.2359 24.2567 20.2216C24.4901 20.2074 24.7175 20.1421 24.923 20.0305C25.1284 19.9188 25.3069 19.7635 25.4459 19.5755C25.5848 19.3874 25.6809 19.1712 25.7272 18.942C25.7736 18.7128 25.7692 18.4763 25.7143 18.249C25.6594 18.0217 25.5554 17.8092 25.4095 17.6265C25.2636 17.4437 25.0795 17.2952 24.87 17.1913C24.6606 17.0874 24.4309 17.0306 24.1971 17.0251ZM24.1971 17.4711C24.5006 17.4711 24.7917 17.5917 25.0064 17.8063C25.221 18.0209 25.3416 18.312 25.3416 18.6156C25.3416 18.9191 25.221 19.2102 25.0064 19.4249C24.7917 19.6395 24.5006 19.7601 24.1971 19.7601C23.8934 19.7601 23.6022 19.6394 23.3875 19.4247C23.1727 19.21 23.0521 18.9188 23.0521 18.6151C23.0521 18.3114 23.1727 18.0202 23.3875 17.8054C23.6022 17.5907 23.8934 17.4701 24.1971 17.4701V17.4711ZM19.9611 17.5661C19.9352 17.5704 19.9118 17.5839 19.8951 17.6041C19.8798 17.6203 19.8698 17.6409 19.8664 17.6629C19.863 17.685 19.8665 17.7076 19.8762 17.7277C19.886 17.7477 19.9016 17.7644 19.9211 17.7753C19.9405 17.7863 19.9629 17.7911 19.9851 17.7891C19.9981 17.7891 20.0151 17.7861 20.0271 17.7791C20.0401 17.7724 20.0517 17.7632 20.0611 17.7521C20.0711 17.7414 20.0789 17.7288 20.0841 17.7151C20.0889 17.7011 20.0909 17.6862 20.0899 17.6715C20.0888 17.6567 20.0848 17.6423 20.0781 17.6291C20.0721 17.6159 20.0636 17.604 20.0531 17.5941C20.0414 17.5841 20.0278 17.5767 20.0131 17.5721C19.9996 17.5674 19.9854 17.5653 19.9711 17.5661C19.9678 17.5659 19.9644 17.5659 19.9611 17.5661ZM27.9611 17.5661C27.9352 17.5704 27.9118 17.5839 27.8951 17.6041C27.8798 17.6203 27.8698 17.6409 27.8664 17.6629C27.863 17.685 27.8665 17.7076 27.8762 17.7277C27.886 17.7477 27.9016 17.7644 27.9211 17.7753C27.9405 17.7863 27.9629 17.7911 27.9851 17.7891C27.9981 17.7891 28.0151 17.7861 28.0271 17.7791C28.0401 17.7724 28.0517 17.7632 28.0611 17.7521C28.0711 17.7414 28.0789 17.7288 28.0841 17.7151C28.0889 17.7011 28.0909 17.6862 28.0899 17.6715C28.0888 17.6567 28.0848 17.6423 28.0781 17.6291C28.0721 17.6159 28.0636 17.604 28.0531 17.5941C28.0414 17.5841 28.0278 17.5767 28.0131 17.5721C27.9996 17.5674 27.9854 17.5653 27.9711 17.5661C27.9678 17.5659 27.9644 17.5659 27.9611 17.5661ZM19.9711 18.1291C19.9491 18.1306 19.928 18.1384 19.9103 18.1515C19.8926 18.1646 19.879 18.1825 19.8711 18.2031C19.866 18.217 19.8639 18.2319 19.865 18.2467C19.866 18.2615 19.8701 18.276 19.8771 18.2891C19.8862 18.3095 19.9013 18.3267 19.9204 18.3383C19.9396 18.3499 19.9618 18.3554 19.9841 18.3541C19.9988 18.3532 20.0132 18.3494 20.0265 18.3429C20.0397 18.3364 20.0515 18.3273 20.0611 18.3161C20.0811 18.2937 20.0914 18.2644 20.0899 18.2344C20.0884 18.2045 20.0752 18.1763 20.0531 18.1561C20.0304 18.1366 20.0009 18.1269 19.9711 18.1291ZM27.9711 18.1291C27.9491 18.1306 27.928 18.1384 27.9103 18.1515C27.8926 18.1646 27.879 18.1825 27.8711 18.2031C27.866 18.217 27.8639 18.2319 27.865 18.2467C27.866 18.2615 27.8701 18.276 27.8771 18.2891C27.8862 18.3095 27.9013 18.3267 27.9204 18.3383C27.9396 18.3499 27.9618 18.3554 27.9841 18.3541C27.9988 18.3532 28.0132 18.3494 28.0265 18.3429C28.0397 18.3364 28.0515 18.3273 28.0611 18.3161C28.0811 18.2937 28.0914 18.2644 28.0899 18.2344C28.0884 18.2045 28.0752 18.1763 28.0531 18.1561C28.0304 18.1366 28.0009 18.1269 27.9711 18.1291ZM19.9711 18.6911C19.9429 18.6943 19.917 18.7081 19.8984 18.7296C19.8799 18.751 19.8702 18.7787 19.8711 18.8071C19.8724 18.8356 19.8841 18.8627 19.9041 18.8831C19.9241 18.9031 19.9501 18.9151 19.9791 18.9161C20.0087 18.9152 20.0367 18.9026 20.0571 18.8811C20.0773 18.8586 20.088 18.8293 20.0871 18.7991C20.0868 18.7845 20.0837 18.7701 20.0779 18.7567C20.072 18.7433 20.0636 18.7312 20.0531 18.7211C20.0308 18.7007 20.0013 18.6899 19.9711 18.6911ZM27.9711 18.6911C27.9429 18.6943 27.917 18.7081 27.8984 18.7296C27.8799 18.751 27.8702 18.7787 27.8711 18.8071C27.8724 18.8356 27.8841 18.8627 27.9041 18.8831C27.9241 18.9031 27.9501 18.9151 27.9791 18.9161C28.0087 18.9152 28.0367 18.9026 28.0571 18.8811C28.0773 18.8586 28.088 18.8293 28.0871 18.7991C28.0868 18.7845 28.0837 18.7701 28.0779 18.7567C28.072 18.7433 28.0636 18.7312 28.0531 18.7211C28.0308 18.7007 28.0013 18.6899 27.9711 18.6911ZM19.9591 19.2541C19.9329 19.2581 19.909 19.2715 19.8917 19.2917C19.8745 19.3118 19.865 19.3375 19.8651 19.3641C19.8651 19.3841 19.8711 19.4071 19.8831 19.4261C19.8948 19.445 19.9119 19.4599 19.9321 19.4691C19.9525 19.4778 19.975 19.4803 19.9969 19.4764C20.0187 19.4725 20.039 19.4623 20.0551 19.4471C20.0709 19.4313 20.0818 19.4113 20.0866 19.3895C20.0913 19.3677 20.0898 19.345 20.0821 19.3241C20.0737 19.3036 20.0594 19.2861 20.0411 19.2736C20.0228 19.2612 20.0012 19.2544 19.9791 19.2541H19.9591ZM27.9591 19.2541C27.9329 19.2581 27.909 19.2715 27.8917 19.2917C27.8745 19.3118 27.865 19.3375 27.8651 19.3641C27.8651 19.3841 27.8711 19.4071 27.8831 19.4261C27.8948 19.445 27.9119 19.4599 27.9321 19.4691C27.9525 19.4778 27.975 19.4803 27.9969 19.4764C28.0187 19.4725 28.039 19.4623 28.0551 19.4471C28.0709 19.4313 28.0818 19.4113 28.0866 19.3895C28.0913 19.3677 28.0898 19.345 28.0821 19.3241C28.0737 19.3036 28.0594 19.2861 28.0411 19.2736C28.0228 19.2612 28.0012 19.2544 27.9791 19.2541H27.9591ZM19.9801 19.8141C19.9653 19.8138 19.9506 19.8164 19.9368 19.8219C19.9231 19.8274 19.9106 19.8356 19.9001 19.8461C19.8791 19.8674 19.8673 19.8961 19.8673 19.9261C19.8673 19.956 19.8791 19.9848 19.9001 20.0061C19.9156 20.0217 19.9353 20.0323 19.9568 20.0368C19.9783 20.0412 20.0007 20.0392 20.0211 20.0311C20.0353 20.0253 20.0482 20.0168 20.0591 20.0061C20.0691 19.9961 20.0791 19.9841 20.0841 19.9711C20.0896 19.9574 20.0923 19.9428 20.0921 19.9281C20.0926 19.9055 20.0863 19.8833 20.074 19.8644C20.0617 19.8455 20.0439 19.8307 20.0231 19.8221C20.0094 19.8166 19.9948 19.8138 19.9801 19.8141ZM27.9801 19.8141C27.9653 19.8138 27.9506 19.8164 27.9368 19.8219C27.9231 19.8274 27.9106 19.8356 27.9001 19.8461C27.8791 19.8674 27.8673 19.8961 27.8673 19.9261C27.8673 19.956 27.8791 19.9848 27.9001 20.0061C27.9156 20.0217 27.9353 20.0323 27.9568 20.0368C27.9783 20.0412 28.0007 20.0392 28.0211 20.0311C28.0353 20.0253 28.0482 20.0168 28.0591 20.0061C28.0691 19.9961 28.0791 19.9841 28.0841 19.9711C28.0896 19.9574 28.0923 19.9428 28.0921 19.9281C28.0926 19.9055 28.0863 19.8833 28.074 19.8644C28.0617 19.8455 28.0439 19.8307 28.0231 19.8221C28.0094 19.8166 27.9948 19.8138 27.9801 19.8141ZM16.6041 19.9591C16.3894 19.9518 16.1755 19.9876 15.9749 20.0644C15.7742 20.1411 15.5911 20.2573 15.4361 20.4061C15.2025 20.6307 15.0427 20.9211 14.9781 21.2387C14.9134 21.5563 14.9469 21.886 15.0741 22.1841C15.1771 22.4276 15.3388 22.6417 15.5449 22.8073C15.7509 22.9729 15.9949 23.0848 16.2548 23.133C16.5147 23.1812 16.7826 23.1641 17.0343 23.0833C17.286 23.0025 17.5137 22.8605 17.6971 22.6701C17.912 22.4477 18.0579 22.1679 18.1171 21.8643C18.1763 21.5608 18.1463 21.2466 18.0306 20.9598C17.915 20.6729 17.7187 20.4258 17.4655 20.2482C17.2124 20.0706 16.9131 19.9702 16.6041 19.9591ZM31.3541 19.9591C31.1394 19.9518 30.9255 19.9876 30.7249 20.0644C30.5243 20.1411 30.3411 20.2573 30.1861 20.4061C29.9525 20.6307 29.7927 20.9211 29.7281 21.2387C29.6634 21.5563 29.6969 21.886 29.8241 22.1841C29.927 22.4276 30.0888 22.6417 30.2949 22.8073C30.5009 22.9729 30.7449 23.0848 31.0048 23.133C31.2647 23.1812 31.5326 23.1641 31.7843 23.0833C32.036 23.0025 32.2637 22.8605 32.4471 22.6701C32.662 22.4477 32.8079 22.1679 32.8671 21.8643C32.9263 21.5608 32.8963 21.2466 32.7806 20.9598C32.665 20.6729 32.4687 20.4258 32.2155 20.2482C31.9624 20.0706 31.6631 19.9702 31.3541 19.9591ZM19.9711 20.3771C19.9422 20.3786 19.915 20.3911 19.8951 20.4121C19.8754 20.4332 19.8647 20.4612 19.8651 20.4901C19.8651 20.5521 19.9151 20.6031 19.9791 20.6021C20.0092 20.6018 20.0379 20.5897 20.0591 20.5683C20.0802 20.547 20.0921 20.5181 20.0921 20.4881C20.092 20.4735 20.0891 20.4592 20.0834 20.4458C20.0777 20.4324 20.0695 20.4203 20.0591 20.4101C20.0378 20.389 20.0091 20.3771 19.9791 20.3771H19.9711ZM27.9711 20.3771C27.9422 20.3786 27.915 20.3911 27.8951 20.4121C27.8754 20.4332 27.8647 20.4612 27.8651 20.4901C27.8651 20.5521 27.9151 20.6031 27.9791 20.6021C28.0092 20.6018 28.0379 20.5897 28.0591 20.5683C28.0802 20.547 28.0921 20.5181 28.0921 20.4881C28.092 20.4735 28.0891 20.4592 28.0834 20.4458C28.0777 20.4324 28.0695 20.4203 28.0591 20.4101C28.0378 20.389 28.0091 20.3771 27.9791 20.3771H27.9711ZM16.5571 20.4201C16.5728 20.4198 16.5884 20.4198 16.6041 20.4201C16.7538 20.42 16.9021 20.4494 17.0404 20.5067C17.1787 20.5639 17.3044 20.6478 17.4103 20.7536C17.5162 20.8594 17.6003 20.9851 17.6576 21.1234C17.715 21.2616 17.7445 21.4099 17.7446 21.5596C17.7447 21.7093 17.7152 21.8575 17.658 21.9959C17.6008 22.1342 17.5169 22.2599 17.411 22.3658C17.3052 22.4717 17.1796 22.5558 17.0413 22.6131C16.903 22.6705 16.7548 22.7 16.6051 22.7001C16.3027 22.7064 16.0103 22.5924 15.792 22.3832C15.5737 22.1739 15.4475 21.8864 15.4411 21.5841C15.4347 21.2817 15.5487 20.9892 15.758 20.7709C15.9673 20.5527 16.2547 20.4264 16.5571 20.4201ZM31.3071 20.4201C31.3228 20.4198 31.3384 20.4198 31.3541 20.4201C31.5038 20.42 31.6521 20.4494 31.7904 20.5067C31.9287 20.5639 32.0544 20.6478 32.1603 20.7536C32.2662 20.8594 32.3503 20.9851 32.4076 21.1234C32.465 21.2616 32.4945 21.4099 32.4946 21.5596C32.4947 21.7093 32.4652 21.8575 32.408 21.9959C32.3508 22.1342 32.2669 22.2599 32.161 22.3658C32.0552 22.4717 31.9296 22.5558 31.7913 22.6131C31.653 22.6705 31.5048 22.7 31.3551 22.7001C31.2054 22.7032 31.0565 22.6769 30.917 22.6225C30.7775 22.5681 30.65 22.4868 30.542 22.3832C30.4339 22.2795 30.3473 22.1556 30.2871 22.0185C30.2269 21.8814 30.1942 21.7338 30.1911 21.5841C30.1879 21.4344 30.2143 21.2855 30.2687 21.146C30.3231 21.0065 30.4044 20.879 30.508 20.7709C30.6117 20.6629 30.7356 20.5762 30.8727 20.516C31.0098 20.4558 31.1574 20.4232 31.3071 20.4201ZM19.9711 20.9401C19.9567 20.9406 19.9426 20.944 19.9296 20.95C19.9166 20.956 19.9048 20.9645 19.8951 20.9751C19.8745 20.9966 19.863 21.0253 19.8631 21.0551C19.8638 21.0837 19.8756 21.111 19.8961 21.1311C19.9171 21.1511 19.9461 21.1641 19.9751 21.1641C20.0043 21.1633 20.0322 21.1515 20.0531 21.1311C20.0743 21.1113 20.0869 21.084 20.0881 21.0551C20.0886 21.0252 20.0774 20.9963 20.0568 20.9746C20.0363 20.9529 20.008 20.9401 19.9781 20.9391H19.9711V20.9401ZM27.9711 20.9401C27.9567 20.9406 27.9426 20.944 27.9296 20.95C27.9166 20.956 27.9048 20.9645 27.8951 20.9751C27.8745 20.9966 27.863 21.0253 27.8631 21.0551C27.8638 21.0837 27.8756 21.111 27.8961 21.1311C27.9171 21.1511 27.9461 21.1641 27.9751 21.1641C28.0043 21.1633 28.0322 21.1515 28.0531 21.1311C28.0743 21.1113 28.0869 21.084 28.0881 21.0551C28.0886 21.0252 28.0774 20.9963 28.0568 20.9746C28.0363 20.9529 28.008 20.9401 27.9781 20.9391H27.9711V20.9401ZM19.9711 21.5021C19.9422 21.5036 19.915 21.5161 19.8951 21.5371C19.8754 21.5582 19.8647 21.5862 19.8651 21.6151C19.8636 21.6307 19.8654 21.6465 19.8704 21.6615C19.8754 21.6764 19.8834 21.6901 19.894 21.7018C19.9046 21.7134 19.9175 21.7227 19.9319 21.729C19.9463 21.7354 19.9619 21.7387 19.9776 21.7387C19.9933 21.7387 20.0089 21.7354 20.0233 21.729C20.0377 21.7227 20.0506 21.7134 20.0612 21.7018C20.0718 21.6901 20.0798 21.6764 20.0848 21.6615C20.0898 21.6465 20.0916 21.6307 20.0901 21.6151C20.0899 21.5851 20.0781 21.5564 20.0571 21.5351C20.0365 21.5142 20.0084 21.5023 19.9791 21.5021H19.9711ZM27.9711 21.5021C27.9422 21.5036 27.915 21.5161 27.8951 21.5371C27.8754 21.5582 27.8647 21.5862 27.8651 21.6151C27.8636 21.6307 27.8654 21.6465 27.8704 21.6615C27.8754 21.6764 27.8834 21.6901 27.894 21.7018C27.9046 21.7134 27.9175 21.7227 27.9319 21.729C27.9463 21.7354 27.9619 21.7387 27.9776 21.7387C27.9933 21.7387 28.0089 21.7354 28.0233 21.729C28.0377 21.7227 28.0506 21.7134 28.0612 21.7018C28.0718 21.6901 28.0798 21.6764 28.0848 21.6615C28.0898 21.6465 28.0916 21.6307 28.0901 21.6151C28.0899 21.5851 28.0781 21.5564 28.0571 21.5351C28.0365 21.5142 28.0084 21.5023 27.9791 21.5021H27.9711ZM19.9591 22.0641C19.9483 22.0659 19.9379 22.0693 19.9281 22.0741C19.9153 22.0811 19.9041 22.0906 19.8951 22.1021C19.8796 22.1185 19.8696 22.1394 19.8664 22.1617C19.8631 22.1841 19.8669 22.2069 19.8771 22.2271C19.8905 22.2532 19.9134 22.2733 19.9411 22.2831C19.9622 22.2905 19.9851 22.2915 20.0068 22.2859C20.0285 22.2804 20.048 22.2687 20.0631 22.2521C20.0826 22.2294 20.0923 22.1999 20.0901 22.1701C20.0886 22.1402 20.0753 22.1122 20.0531 22.0921C20.0419 22.0822 20.029 22.0747 20.0149 22.0699C20.0008 22.0651 19.9859 22.0631 19.9711 22.0641C19.9671 22.0639 19.9631 22.0639 19.9591 22.0641ZM27.9591 22.0641C27.9483 22.0659 27.9379 22.0693 27.9281 22.0741C27.9153 22.0811 27.9041 22.0906 27.8951 22.1021C27.8796 22.1185 27.8696 22.1394 27.8664 22.1617C27.8631 22.1841 27.8669 22.2069 27.8771 22.2271C27.8905 22.2532 27.9134 22.2733 27.9411 22.2831C27.9622 22.2905 27.9851 22.2915 28.0068 22.2859C28.0285 22.2804 28.048 22.2687 28.0631 22.2521C28.0826 22.2294 28.0923 22.1999 28.0901 22.1701C28.0886 22.1402 28.0753 22.1122 28.0531 22.0921C28.0419 22.0822 28.029 22.0747 28.0149 22.0699C28.0008 22.0651 27.9859 22.0631 27.9711 22.0641C27.9671 22.0639 27.9631 22.0639 27.9591 22.0641ZM24.1971 22.2601C23.9869 22.2597 23.7786 22.3008 23.5843 22.3811C23.39 22.4613 23.2135 22.5792 23.0648 22.7278C22.9162 22.8765 22.7983 23.053 22.7181 23.2473C22.6378 23.4416 22.5967 23.6499 22.5971 23.8601C22.5971 24.1765 22.6909 24.4859 22.8667 24.749C23.0426 25.0121 23.2924 25.2172 23.5848 25.3383C23.8772 25.4594 24.1989 25.4911 24.5092 25.4293C24.8196 25.3676 25.1047 25.2152 25.3285 24.9914C25.5522 24.7677 25.7046 24.4826 25.7663 24.1722C25.8281 23.8619 25.7964 23.5401 25.6753 23.2478C25.5542 22.9554 25.3491 22.7055 25.086 22.5297C24.8229 22.3539 24.5135 22.2601 24.1971 22.2601ZM19.9711 22.6271C19.9568 22.6283 19.9428 22.6323 19.9301 22.6391C19.9166 22.6453 19.9045 22.6541 19.8946 22.6651C19.8846 22.6761 19.8769 22.6889 19.8719 22.7029C19.867 22.7169 19.8649 22.7317 19.8658 22.7465C19.8667 22.7613 19.8705 22.7758 19.8771 22.7891C19.8839 22.8017 19.893 22.8129 19.9041 22.8221C19.9151 22.8321 19.9281 22.8411 19.9411 22.8461C19.9549 22.8509 19.9695 22.853 19.9841 22.8521C20.0143 22.8495 20.0423 22.8351 20.0621 22.8121C20.0812 22.7896 20.0909 22.7605 20.089 22.7311C20.0871 22.7016 20.0739 22.674 20.0521 22.6541C20.0297 22.6348 20.0006 22.6251 19.9711 22.6271ZM27.9711 22.6271C27.9568 22.6283 27.9428 22.6323 27.9301 22.6391C27.9166 22.6453 27.9045 22.6541 27.8946 22.6651C27.8846 22.6761 27.8769 22.6889 27.8719 22.7029C27.867 22.7169 27.8649 22.7317 27.8658 22.7465C27.8667 22.7613 27.8705 22.7758 27.8771 22.7891C27.8839 22.8017 27.893 22.8129 27.9041 22.8221C27.9151 22.8321 27.9281 22.8411 27.9411 22.8461C27.9549 22.8509 27.9695 22.853 27.9841 22.8521C28.0143 22.8495 28.0423 22.8351 28.0621 22.8121C28.0812 22.7896 28.0909 22.7605 28.089 22.7311C28.0871 22.7016 28.0739 22.674 28.0521 22.6541C28.0297 22.6348 28.0006 22.6251 27.9711 22.6271ZM24.2091 22.7171C24.5126 22.7171 24.8037 22.8377 25.0184 23.0523C25.233 23.2669 25.3536 23.558 25.3536 23.8616C25.3536 24.1651 25.233 24.4562 25.0184 24.6709C24.8037 24.8855 24.5126 25.0061 24.2091 25.0061C23.9054 25.0061 23.6142 24.8854 23.3995 24.6707C23.1847 24.456 23.0641 24.1648 23.0641 23.8611C23.0641 23.5574 23.1847 23.2662 23.3995 23.0514C23.6142 22.8367 23.9054 22.7161 24.2091 22.7161V22.7171ZM19.9611 23.1891C19.9355 23.1929 19.9121 23.2056 19.8951 23.2251C19.8745 23.2466 19.863 23.2753 19.8631 23.3051C19.8638 23.3337 19.8756 23.361 19.8961 23.3811C19.9171 23.4011 19.9461 23.4141 19.9751 23.4141C20.0043 23.4133 20.0322 23.4015 20.0531 23.3811C20.0743 23.3613 20.0869 23.334 20.0881 23.3051C20.0886 23.2752 20.0774 23.2463 20.0568 23.2246C20.0363 23.2029 20.008 23.1901 19.9781 23.1891H19.9711C19.9678 23.1889 19.9644 23.1889 19.9611 23.1891ZM27.9611 23.1891C27.9355 23.1929 27.9121 23.2056 27.8951 23.2251C27.8745 23.2466 27.863 23.2753 27.8631 23.3051C27.8638 23.3337 27.8756 23.361 27.8961 23.3811C27.9171 23.4011 27.9461 23.4141 27.9751 23.4141C28.0043 23.4133 28.0322 23.4015 28.0531 23.3811C28.0743 23.3613 28.0869 23.334 28.0881 23.3051C28.0886 23.2752 28.0774 23.2463 28.0568 23.2246C28.0363 23.2029 28.008 23.1901 27.9781 23.1891H27.9711C27.9678 23.1889 27.9644 23.1889 27.9611 23.1891ZM19.9591 23.7521C19.9327 23.7559 19.9086 23.769 19.8911 23.7891C19.8739 23.8098 19.8646 23.8361 19.8651 23.8631C19.864 23.8787 19.8661 23.8944 19.8712 23.9092C19.8764 23.924 19.8845 23.9375 19.8951 23.9491C19.9056 23.961 19.9185 23.9705 19.933 23.9769C19.9475 23.9832 19.9632 23.9864 19.9791 23.9861C19.9946 23.986 20.0099 23.9827 20.024 23.9763C20.0382 23.97 20.0508 23.9607 20.0611 23.9491C20.0717 23.9375 20.0798 23.924 20.085 23.9092C20.0901 23.8944 20.0922 23.8787 20.0911 23.8631C20.0898 23.8339 20.0776 23.8062 20.0569 23.7856C20.0361 23.765 20.0083 23.7531 19.9791 23.7521H19.9591ZM27.9591 23.7521C27.9327 23.7559 27.9086 23.769 27.8911 23.7891C27.8739 23.8098 27.8646 23.8361 27.8651 23.8631C27.864 23.8787 27.8661 23.8944 27.8712 23.9092C27.8764 23.924 27.8845 23.9375 27.8951 23.9491C27.9056 23.961 27.9185 23.9705 27.933 23.9769C27.9475 23.9832 27.9632 23.9864 27.9791 23.9861C27.9946 23.986 28.0099 23.9827 28.024 23.9763C28.0382 23.97 28.0508 23.9607 28.0611 23.9491C28.0717 23.9375 28.0798 23.924 28.085 23.9092C28.0901 23.8944 28.0922 23.8787 28.0911 23.8631C28.0898 23.8339 28.0776 23.8062 28.0569 23.7856C28.0361 23.765 28.0083 23.7531 27.9791 23.7521H27.9591ZM19.9591 24.3141C19.9326 24.3181 19.9084 24.3316 19.8911 24.3521C19.8739 24.3728 19.8646 24.3991 19.8651 24.4261C19.8651 24.4891 19.9151 24.5381 19.9791 24.5371C20.0391 24.5371 20.0891 24.4871 20.0891 24.4261C20.0888 24.3968 20.0772 24.3688 20.0567 24.3479C20.0362 24.327 20.0084 24.3149 19.9791 24.3141H19.9591ZM27.9591 24.3141C27.9326 24.3181 27.9084 24.3316 27.8911 24.3521C27.8739 24.3728 27.8646 24.3991 27.8651 24.4261C27.8651 24.4891 27.9151 24.5381 27.9791 24.5371C28.0391 24.5371 28.0891 24.4871 28.0891 24.4261C28.0888 24.3968 28.0772 24.3688 28.0567 24.3479C28.0362 24.327 28.0084 24.3149 27.9791 24.3141H27.9591ZM19.9711 24.8731C19.9421 24.8751 19.915 24.8882 19.8953 24.9095C19.8756 24.9309 19.8648 24.959 19.8651 24.9881C19.8651 25.0501 19.9151 25.1011 19.9791 25.1001C20.0091 25.0982 20.0371 25.0845 20.0571 25.0621C20.0673 25.0515 20.0753 25.039 20.0806 25.0253C20.086 25.0116 20.0885 24.9969 20.0881 24.9822C20.0878 24.9675 20.0845 24.9531 20.0785 24.9396C20.0724 24.9262 20.0638 24.9141 20.0531 24.9041C20.0309 24.8834 20.0014 24.8723 19.9711 24.8731ZM27.9711 24.8731C27.9421 24.8751 27.915 24.8882 27.8953 24.9095C27.8756 24.9309 27.8648 24.959 27.8651 24.9881C27.8651 25.0501 27.9151 25.1011 27.9791 25.1001C28.0091 25.0982 28.0371 25.0845 28.0571 25.0621C28.0673 25.0515 28.0753 25.039 28.0806 25.0253C28.086 25.0116 28.0885 24.9969 28.0881 24.9822C28.0878 24.9675 28.0845 24.9531 28.0785 24.9396C28.0724 24.9262 28.0638 24.9141 28.0531 24.9041C28.0309 24.8834 28.0014 24.8723 27.9711 24.8731ZM16.6041 25.1931C16.2803 25.1813 15.9606 25.2683 15.6873 25.4424C15.4141 25.6165 15.2002 25.8696 15.0741 26.1681C14.9476 26.4658 14.9144 26.7949 14.9791 27.1119C15.0437 27.4288 15.2031 27.7187 15.4361 27.9431C15.5907 28.0925 15.7738 28.2093 15.9744 28.2866C16.1751 28.3639 16.3892 28.4001 16.6041 28.3931C17.0284 28.3931 17.4354 28.2245 17.7355 27.9244C18.0355 27.6244 18.2041 27.2174 18.2041 26.7931C18.2041 26.3687 18.0355 25.9618 17.7355 25.6617C17.4354 25.3616 17.0284 25.1931 16.6041 25.1931ZM31.3541 25.1931C31.0303 25.1813 30.7106 25.2683 30.4373 25.4424C30.1641 25.6165 29.9502 25.8696 29.8241 26.1681C29.6976 26.4658 29.6644 26.7949 29.7291 27.1119C29.7937 27.4288 29.9531 27.7187 30.1861 27.9431C30.3407 28.0925 30.5238 28.2093 30.7244 28.2866C30.9251 28.3639 31.1392 28.4001 31.3541 28.3931C31.7784 28.3931 32.1854 28.2245 32.4855 27.9244C32.7855 27.6244 32.9541 27.2174 32.9541 26.7931C32.9541 26.3687 32.7855 25.9618 32.4855 25.6617C32.1854 25.3616 31.7784 25.1931 31.3541 25.1931ZM19.9611 25.4371C19.9355 25.4409 19.9121 25.4536 19.8951 25.4731C19.8798 25.4886 19.8696 25.5084 19.8655 25.5298C19.8615 25.5512 19.8639 25.5733 19.8725 25.5934C19.8811 25.6134 19.8954 25.6304 19.9137 25.6423C19.9319 25.6542 19.9533 25.6604 19.9751 25.6601C20.0042 25.6605 20.0322 25.6493 20.0531 25.6291C20.0743 25.6085 20.0869 25.5806 20.0881 25.5511C20.088 25.5359 20.0848 25.521 20.0788 25.5071C20.0729 25.4931 20.0642 25.4806 20.0533 25.47C20.0424 25.4595 20.0295 25.4513 20.0154 25.4458C20.0013 25.4403 19.9862 25.4377 19.9711 25.4381C19.9678 25.4379 19.9644 25.4379 19.9611 25.4381V25.4371ZM27.9611 25.4371C27.9355 25.4409 27.9121 25.4536 27.8951 25.4731C27.8798 25.4886 27.8696 25.5084 27.8655 25.5298C27.8615 25.5512 27.8639 25.5733 27.8725 25.5934C27.8811 25.6134 27.8954 25.6304 27.9137 25.6423C27.9319 25.6542 27.9533 25.6604 27.9751 25.6601C28.0042 25.6605 28.0322 25.6493 28.0531 25.6291C28.0743 25.6085 28.0869 25.5806 28.0881 25.5511C28.088 25.5359 28.0848 25.521 28.0788 25.5071C28.0729 25.4931 28.0642 25.4806 28.0533 25.47C28.0424 25.4595 28.0295 25.4513 28.0154 25.4458C28.0013 25.4403 27.9862 25.4377 27.9711 25.4381C27.9678 25.4379 27.9644 25.4379 27.9611 25.4381V25.4371ZM31.3381 25.6761C31.6416 25.6761 31.9327 25.7967 32.1474 26.0113C32.362 26.2259 32.4826 26.517 32.4826 26.8206C32.4826 27.1241 32.362 27.4152 32.1474 27.6299C31.9327 27.8445 31.6416 27.9651 31.3381 27.9651C31.0344 27.9651 30.7432 27.8444 30.5285 27.6297C30.3137 27.415 30.1931 27.1238 30.1931 26.8201C30.1931 26.5164 30.3137 26.2252 30.5285 26.0104C30.7432 25.7957 31.0344 25.6751 31.3381 25.6751V25.6761ZM16.5431 25.6781C16.8466 25.6781 17.1377 25.7987 17.3524 26.0133C17.567 26.2279 17.6876 26.519 17.6876 26.8226C17.6876 27.1261 17.567 27.4172 17.3524 27.6319C17.1377 27.8465 16.8466 27.9671 16.5431 27.9671C16.2394 27.9671 15.9482 27.8464 15.7335 27.6317C15.5187 27.417 15.3981 27.1258 15.3981 26.8221C15.3981 26.5184 15.5187 26.2272 15.7335 26.0124C15.9482 25.7977 16.2394 25.6771 16.5431 25.6771V25.6781ZM19.9711 26.0001C19.943 26.0035 19.9173 26.0174 19.899 26.0389C19.8806 26.0604 19.871 26.088 19.872 26.1162C19.873 26.1445 19.8846 26.1713 19.9044 26.1915C19.9242 26.2116 19.9509 26.2236 19.9791 26.2251C19.9937 26.2236 20.0079 26.2195 20.0211 26.2131C20.0347 26.2069 20.047 26.1981 20.0571 26.1871C20.0665 26.1763 20.0736 26.1637 20.0781 26.1501C20.0835 26.1364 20.0863 26.1218 20.0861 26.1071C20.0852 26.0775 20.0726 26.0494 20.0511 26.0291C20.0403 26.0197 20.0277 26.0126 20.0141 26.0081C20.0004 26.0026 19.9858 25.9998 19.9711 26.0001ZM27.9711 26.0001C27.943 26.0035 27.9173 26.0174 27.899 26.0389C27.8806 26.0604 27.871 26.088 27.872 26.1162C27.873 26.1445 27.8846 26.1713 27.9044 26.1915C27.9242 26.2116 27.9509 26.2236 27.9791 26.2251C28.0012 26.2237 28.0224 26.216 28.0402 26.2027C28.058 26.1895 28.0715 26.1714 28.0791 26.1506C28.0868 26.1298 28.0882 26.1072 28.0832 26.0857C28.0782 26.0641 28.0671 26.0444 28.0511 26.0291C28.0404 26.0192 28.0277 26.0115 28.014 26.0065C28.0003 26.0015 27.9857 25.9994 27.9711 26.0001ZM19.9711 26.5631C19.9562 26.5636 19.9416 26.5669 19.9281 26.5731C19.908 26.5832 19.8912 26.5988 19.8797 26.6181C19.8682 26.6374 19.8624 26.6596 19.8631 26.6821C19.8663 26.7116 19.8806 26.7387 19.9031 26.7581C19.9131 26.7681 19.9261 26.7761 19.9391 26.7811C19.9566 26.7869 19.9753 26.7884 19.9935 26.7855C20.0118 26.7825 20.029 26.7751 20.0438 26.764C20.0586 26.7529 20.0704 26.7383 20.0783 26.7216C20.0862 26.7049 20.0899 26.6865 20.0891 26.6681C20.0871 26.6381 20.0735 26.6101 20.0511 26.5901C20.0403 26.5804 20.0276 26.5731 20.0138 26.5684C20.0001 26.5638 19.9856 26.562 19.9711 26.5631ZM27.9711 26.5631C27.9562 26.5636 27.9416 26.5669 27.9281 26.5731C27.908 26.5832 27.8912 26.5988 27.8797 26.6181C27.8682 26.6374 27.8624 26.6596 27.8631 26.6821C27.8663 26.7116 27.8806 26.7387 27.9031 26.7581C27.9131 26.7681 27.9261 26.7761 27.9391 26.7811C27.9566 26.7869 27.9753 26.7884 27.9935 26.7855C28.0118 26.7825 28.029 26.7751 28.0438 26.764C28.0586 26.7529 28.0704 26.7383 28.0783 26.7216C28.0862 26.7049 28.0899 26.6865 28.0891 26.6681C28.0871 26.6381 28.0735 26.6101 28.0511 26.5901C28.0403 26.5804 28.0276 26.5731 28.0138 26.5684C28.0001 26.5638 27.9856 26.562 27.9711 26.5631ZM19.9711 27.1251C19.9561 27.1263 19.9415 27.1303 19.9281 27.1371C19.9149 27.143 19.903 27.1515 19.8931 27.1621C19.8834 27.1728 19.8759 27.1854 19.8711 27.1991C19.8617 27.2273 19.8632 27.2579 19.8751 27.2851C19.8817 27.2984 19.8909 27.3103 19.9021 27.3201C19.9131 27.3301 19.9261 27.3391 19.9391 27.3441C19.9529 27.3489 19.9675 27.351 19.9821 27.3501C20.0127 27.3477 20.0411 27.3333 20.0611 27.3101C20.0802 27.2876 20.0899 27.2585 20.088 27.2291C20.0861 27.1996 20.0729 27.172 20.0511 27.1521C20.0402 27.1425 20.0275 27.1352 20.0138 27.1305C20.0001 27.1259 19.9856 27.124 19.9711 27.1251ZM27.9711 27.1251C27.9561 27.1263 27.9415 27.1303 27.9281 27.1371C27.9149 27.143 27.903 27.1515 27.8931 27.1621C27.8834 27.1728 27.8759 27.1854 27.8711 27.1991C27.8617 27.2273 27.8632 27.2579 27.8751 27.2851C27.8817 27.2984 27.8909 27.3103 27.9021 27.3201C27.9131 27.3301 27.9261 27.3391 27.9391 27.3441C27.9529 27.3489 27.9675 27.351 27.9821 27.3501C28.0127 27.3477 28.0411 27.3333 28.0611 27.3101C28.0802 27.2876 28.0899 27.2585 28.088 27.2291C28.0861 27.1996 28.0729 27.172 28.0511 27.1521C28.0402 27.1425 28.0275 27.1352 28.0138 27.1305C28.0001 27.1259 27.9856 27.124 27.9711 27.1251ZM24.1951 27.4921V27.4941C23.8735 27.4854 23.5569 27.5743 23.2868 27.7491C23.0168 27.9238 22.806 28.1762 22.6821 28.4731C22.5992 28.6697 22.5565 28.8809 22.5565 29.0942C22.5566 29.3076 22.5993 29.5187 22.6823 29.7153C22.7652 29.9119 22.8867 30.0898 23.0395 30.2387C23.1923 30.3876 23.3734 30.5043 23.5721 30.5821C23.7721 30.6601 23.9821 30.6991 24.1951 30.6931C24.6195 30.6928 25.0266 30.5242 25.3269 30.2243C25.6272 29.9243 25.7963 29.5175 25.7971 29.0931C25.796 28.6687 25.6269 28.2621 25.3266 27.9622C25.0263 27.6623 24.6195 27.4936 24.1951 27.4931V27.4921ZM19.9591 27.6871C19.9483 27.6889 19.9379 27.6923 19.9281 27.6971C19.9078 27.7072 19.8909 27.723 19.8794 27.7425C19.8679 27.762 19.8622 27.7844 19.8631 27.8071C19.8663 27.8366 19.8806 27.8637 19.9031 27.8831C19.9131 27.8931 19.9261 27.9011 19.9391 27.9061C19.9566 27.9119 19.9753 27.9134 19.9935 27.9105C20.0118 27.9075 20.029 27.9001 20.0438 27.889C20.0586 27.8779 20.0704 27.8633 20.0783 27.8466C20.0862 27.8299 20.0899 27.8115 20.0891 27.7931C20.0871 27.7631 20.0735 27.7351 20.0511 27.7151C20.0403 27.7054 20.0276 27.6981 20.0138 27.6934C20.0001 27.6888 19.9856 27.687 19.9711 27.6881C19.9671 27.6879 19.9631 27.6879 19.9591 27.6881V27.6871ZM27.9591 27.6871C27.9483 27.6889 27.9379 27.6923 27.9281 27.6971C27.9078 27.7072 27.8909 27.723 27.8794 27.7425C27.8679 27.762 27.8622 27.7844 27.8631 27.8071C27.8663 27.8366 27.8806 27.8637 27.9031 27.8831C27.9131 27.8931 27.9261 27.9011 27.9391 27.9061C27.9566 27.9119 27.9753 27.9134 27.9935 27.9105C28.0118 27.9075 28.029 27.9001 28.0438 27.889C28.0586 27.8779 28.0704 27.8633 28.0783 27.8466C28.0862 27.8299 28.0899 27.8115 28.0891 27.7931C28.0871 27.7631 28.0735 27.7351 28.0511 27.7151C28.0403 27.7054 28.0276 27.6981 28.0138 27.6934C28.0001 27.6888 27.9856 27.687 27.9711 27.6881C27.9671 27.6879 27.9631 27.6879 27.9591 27.6881V27.6871ZM24.1951 27.9551C24.8251 27.9551 25.3391 28.4651 25.3351 29.0941C25.323 29.3876 25.1977 29.665 24.9855 29.8682C24.7734 30.0714 24.4908 30.1846 24.1971 30.1841C23.9035 30.1846 23.6212 30.0713 23.4094 29.8681C23.1976 29.6648 23.0727 29.3874 23.0611 29.0941C23.0607 28.9448 23.0897 28.7969 23.1465 28.6589C23.2033 28.5208 23.2867 28.3954 23.3921 28.2896C23.4974 28.1838 23.6225 28.0998 23.7603 28.0424C23.8981 27.985 24.0458 27.9553 24.1951 27.9551ZM19.9591 28.2501C19.9323 28.2537 19.9078 28.267 19.8901 28.2874C19.8725 28.3079 19.8628 28.3341 19.8631 28.3611C19.8631 28.4231 19.9161 28.4751 19.9791 28.4731C20.0391 28.4731 20.0881 28.4231 20.0881 28.3611C20.0881 28.3011 20.0381 28.2511 19.9781 28.2501H19.9591ZM27.9591 28.2501C27.9323 28.2537 27.9078 28.267 27.8901 28.2874C27.8725 28.3079 27.8628 28.3341 27.8631 28.3611C27.8631 28.4231 27.9161 28.4751 27.9791 28.4731C28.0391 28.4731 28.0881 28.4231 28.0881 28.3611C28.0881 28.3011 28.0381 28.2511 27.9781 28.2501H27.9591ZM19.9591 28.8091C19.9506 28.8097 19.9422 28.8114 19.9341 28.8141C19.9189 28.8192 19.905 28.8273 19.8931 28.8381C19.8815 28.8488 19.8722 28.8618 19.8656 28.8762C19.8591 28.8907 19.8555 28.9063 19.8551 28.9221C19.8551 28.9381 19.8591 28.9521 19.8651 28.9671C19.871 28.9817 19.8798 28.995 19.8911 29.0061C19.9029 29.0169 19.9168 29.0252 19.9319 29.0304C19.9471 29.0355 19.9631 29.0375 19.9791 29.0361C20.0066 29.0332 20.0322 29.0205 20.0511 29.0003C20.07 28.9801 20.081 28.9537 20.0821 28.9261C20.0824 28.8972 20.0717 28.8693 20.0521 28.8481C20.0335 28.8272 20.0079 28.814 19.9801 28.8111H19.9791C19.9725 28.8098 19.9658 28.8091 19.9591 28.8091ZM27.9591 28.8091C27.9506 28.8097 27.9422 28.8114 27.9341 28.8141C27.9189 28.8192 27.905 28.8273 27.8931 28.8381C27.8815 28.8488 27.8722 28.8618 27.8656 28.8762C27.8591 28.8907 27.8555 28.9063 27.8551 28.9221C27.8551 28.9381 27.8591 28.9521 27.8651 28.9671C27.871 28.9817 27.8798 28.995 27.8911 29.0061C27.9029 29.0169 27.9168 29.0252 27.9319 29.0304C27.9471 29.0355 27.9631 29.0375 27.9791 29.0361C28.0066 29.0332 28.0322 29.0205 28.0511 29.0003C28.07 28.9801 28.081 28.9537 28.0821 28.9261C28.0824 28.8972 28.0717 28.8693 28.0521 28.8481C28.0335 28.8272 28.0079 28.814 27.9801 28.8111H27.9791C27.9725 28.8098 27.9658 28.8091 27.9591 28.8091ZM19.9691 29.3731C19.9408 29.3748 19.9143 29.3873 19.8951 29.4081C19.8795 29.4241 19.8691 29.4444 19.8652 29.4664C19.8612 29.4883 19.8639 29.511 19.873 29.5314C19.882 29.5518 19.8969 29.5691 19.9158 29.581C19.9347 29.5929 19.9568 29.5988 19.9791 29.5981C20.0391 29.5981 20.0881 29.5481 20.0881 29.4861C20.0881 29.4561 20.0781 29.4271 20.0571 29.4061C20.0365 29.3852 20.0084 29.3733 19.9791 29.3731H19.9691ZM27.9691 29.3731C27.9408 29.3748 27.9143 29.3873 27.8951 29.4081C27.8795 29.4241 27.8691 29.4444 27.8652 29.4664C27.8612 29.4883 27.8639 29.511 27.873 29.5314C27.882 29.5518 27.8969 29.5691 27.9158 29.581C27.9347 29.5929 27.9568 29.5988 27.9791 29.5981C28.0391 29.5981 28.0881 29.5481 28.0881 29.4861C28.0881 29.4561 28.0781 29.4271 28.0571 29.4061C28.0365 29.3852 28.0084 29.3733 27.9791 29.3731H27.9691ZM19.9691 29.9361C19.9547 29.9366 19.9406 29.94 19.9276 29.946C19.9146 29.952 19.9028 29.9605 19.8931 29.9711C19.8778 29.9866 19.8676 30.0064 19.8635 30.0278C19.8595 30.0492 19.8619 30.0713 19.8705 30.0914C19.8791 30.1114 19.8934 30.1284 19.9117 30.1403C19.9299 30.1522 19.9513 30.1584 19.9731 30.1581C20.0022 30.1585 20.0302 30.1473 20.0511 30.1271C20.0724 30.1065 20.0849 30.0786 20.0861 30.0491C20.0859 30.0197 20.0743 29.9915 20.0538 29.9705C20.0333 29.9494 20.0055 29.9371 19.9761 29.9361H19.9691ZM27.9691 29.9361C27.9547 29.9366 27.9406 29.94 27.9276 29.946C27.9146 29.952 27.9028 29.9605 27.8931 29.9711C27.8778 29.9866 27.8676 30.0064 27.8635 30.0278C27.8595 30.0492 27.8619 30.0713 27.8705 30.0914C27.8791 30.1114 27.8934 30.1284 27.9117 30.1403C27.9299 30.1522 27.9513 30.1584 27.9731 30.1581C28.0022 30.1585 28.0302 30.1473 28.0511 30.1271C28.0724 30.1065 28.0849 30.0786 28.0861 30.0491C28.0859 30.0197 28.0743 29.9915 28.0538 29.9705C28.0333 29.9494 28.0055 29.9371 27.9761 29.9361H27.9691ZM16.6041 30.4281C16.3939 30.4277 16.1856 30.4688 15.9913 30.5491C15.797 30.6293 15.6205 30.7472 15.4718 30.8958C15.3232 31.0445 15.2053 31.221 15.1251 31.4153C15.0448 31.6096 15.0037 31.8179 15.0041 32.0281C15.0041 32.3445 15.0979 32.6539 15.2737 32.917C15.4496 33.1801 15.6994 33.3852 15.9918 33.5063C16.2842 33.6274 16.6059 33.6591 16.9162 33.5973C17.2266 33.5356 17.5117 33.3832 17.7355 33.1594C17.9592 32.9357 18.1116 32.6506 18.1733 32.3402C18.2351 32.0299 18.2034 31.7081 18.0823 31.4158C17.9612 31.1234 17.7561 30.8735 17.493 30.6977C17.2299 30.5219 16.9205 30.4281 16.6041 30.4281ZM31.3541 30.4281C31.1439 30.4277 30.9356 30.4688 30.7413 30.5491C30.547 30.6293 30.3705 30.7472 30.2218 30.8958C30.0732 31.0445 29.9553 31.221 29.8751 31.4153C29.7948 31.6096 29.7537 31.8179 29.7541 32.0281C29.7541 32.3445 29.8479 32.6539 30.0237 32.917C30.1996 33.1801 30.4494 33.3852 30.7418 33.5063C31.0342 33.6274 31.3559 33.6591 31.6662 33.5973C31.9766 33.5356 32.2617 33.3832 32.4855 33.1594C32.7092 32.9357 32.8616 32.6506 32.9233 32.3402C32.9851 32.0299 32.9534 31.7081 32.8323 31.4158C32.7112 31.1234 32.5061 30.8735 32.243 30.6977C31.9799 30.5219 31.6705 30.4281 31.3541 30.4281ZM19.9711 30.4961C19.942 30.4982 19.9148 30.5115 19.8951 30.5331C19.8795 30.5491 19.8691 30.5694 19.8652 30.5914C19.8612 30.6133 19.8639 30.636 19.873 30.6564C19.882 30.6768 19.8969 30.6941 19.9158 30.706C19.9347 30.7179 19.9568 30.7238 19.9791 30.7231C19.9937 30.7229 20.0081 30.7198 20.0215 30.7139C20.0349 30.7081 20.047 30.6996 20.0571 30.6891C20.0677 30.6788 20.0761 30.6665 20.0818 30.653C20.0876 30.6394 20.0905 30.6248 20.0905 30.6101C20.0905 30.5953 20.0876 30.5808 20.0818 30.5672C20.0761 30.5536 20.0677 30.5413 20.0571 30.5311C20.046 30.5197 20.0326 30.5108 20.0177 30.5051C20.0029 30.4994 19.987 30.497 19.9711 30.4981V30.4961ZM27.9711 30.4961C27.942 30.4982 27.9148 30.5115 27.8951 30.5331C27.8795 30.5491 27.8691 30.5694 27.8652 30.5914C27.8612 30.6133 27.8639 30.636 27.873 30.6564C27.882 30.6768 27.8969 30.6941 27.9158 30.706C27.9347 30.7179 27.9568 30.7238 27.9791 30.7231C27.9937 30.7229 28.0081 30.7198 28.0215 30.7139C28.0349 30.7081 28.047 30.6996 28.0571 30.6891C28.0677 30.6788 28.0761 30.6665 28.0818 30.653C28.0876 30.6394 28.0905 30.6248 28.0905 30.6101C28.0905 30.5953 28.0876 30.5808 28.0818 30.5672C28.0761 30.5536 28.0677 30.5413 28.0571 30.5311C28.046 30.5197 28.0326 30.5108 28.0177 30.5051C28.0029 30.4994 27.987 30.497 27.9711 30.4981V30.4961ZM16.5961 30.8891C16.5988 30.8891 16.6014 30.8891 16.6041 30.8891C16.829 30.8885 17.0491 30.9547 17.2364 31.0793C17.4237 31.2039 17.5698 31.3813 17.6561 31.5891C17.7502 31.8143 17.7694 32.0639 17.7109 32.3009C17.6524 32.5379 17.5194 32.7498 17.3313 32.9055C17.1433 33.0611 16.9102 33.1522 16.6664 33.1654C16.4227 33.1785 16.1811 33.113 15.9774 32.9785C15.7737 32.844 15.6186 32.6476 15.535 32.4182C15.4514 32.1889 15.4436 31.9387 15.5129 31.7047C15.5823 31.4706 15.7249 31.265 15.9199 31.1181C16.115 30.9713 16.352 30.891 16.5961 30.8891ZM31.3481 30.8911C31.6512 30.8911 31.9418 31.0113 32.1563 31.2254C32.3708 31.4396 32.4916 31.73 32.4921 32.0331C32.4922 32.1834 32.4627 32.3323 32.4053 32.4712C32.3479 32.6101 32.2636 32.7363 32.1574 32.8427C32.0511 32.949 31.925 33.0333 31.7861 33.0909C31.6473 33.1485 31.4984 33.1781 31.3481 33.1781C31.1977 33.1782 31.0487 33.1487 30.9098 33.0912C30.7708 33.0337 30.6445 32.9494 30.5382 32.843C30.4318 32.7367 30.3475 32.6104 30.29 32.4714C30.2325 32.3324 30.203 32.1835 30.2031 32.0331C30.2036 31.7298 30.3245 31.4392 30.5392 31.2251C30.7539 31.011 31.0449 30.8908 31.3481 30.8911ZM19.9681 31.0591C19.9396 31.0613 19.913 31.0742 19.8936 31.0951C19.8741 31.116 19.8633 31.1435 19.8631 31.1721C19.8634 31.2021 19.8755 31.2309 19.8968 31.252C19.9182 31.2732 19.947 31.2851 19.9771 31.2851C20.007 31.2848 20.0356 31.2728 20.0567 31.2517C20.0778 31.2306 20.0898 31.202 20.0901 31.1721C20.0899 31.1566 20.0865 31.1412 20.0801 31.1271C20.0737 31.1131 20.0645 31.1005 20.0531 31.0901C20.0417 31.0787 20.0281 31.0699 20.0131 31.0641C19.9995 31.0597 19.9853 31.058 19.9711 31.0591H19.9691H19.9681ZM19.9711 31.6211C19.9437 31.6255 19.9188 31.6397 19.9011 31.6611C19.8882 31.6771 19.8798 31.6963 19.877 31.7167C19.8741 31.7371 19.8768 31.7579 19.8848 31.7769C19.8928 31.7959 19.9058 31.8123 19.9224 31.8245C19.939 31.8367 19.9586 31.8441 19.9791 31.8461C19.9938 31.845 20.0081 31.841 20.0211 31.8341C20.0346 31.8282 20.0469 31.8197 20.0571 31.8091C20.0666 31.798 20.0737 31.785 20.0781 31.7711C20.0834 31.7577 20.0861 31.7435 20.0861 31.7291C20.0856 31.7069 20.0784 31.6853 20.0656 31.6671C20.0528 31.6489 20.0349 31.635 20.0141 31.6271C20.0003 31.6222 19.9857 31.6201 19.9711 31.6211ZM27.9711 31.6211C27.9437 31.6255 27.9188 31.6397 27.9011 31.6611C27.8882 31.6771 27.8798 31.6963 27.877 31.7167C27.8741 31.7371 27.8768 31.7579 27.8848 31.7769C27.8928 31.7959 27.9058 31.8123 27.9224 31.8245C27.939 31.8367 27.9586 31.8441 27.9791 31.8461C27.9938 31.845 28.0081 31.841 28.0211 31.8341C28.0346 31.8282 28.0469 31.8197 28.0571 31.8091C28.0666 31.798 28.0737 31.785 28.0781 31.7711C28.0834 31.7577 28.0861 31.7435 28.0861 31.7291C28.0856 31.7069 28.0784 31.6853 28.0656 31.6671C28.0528 31.6489 28.0349 31.635 28.0141 31.6271C28.0003 31.6222 27.9857 31.6201 27.9711 31.6211ZM19.9591 32.1841C19.9327 32.1878 19.9085 32.2009 19.8911 32.2211C19.8751 32.2398 19.8657 32.2632 19.8643 32.2877C19.8629 32.3123 19.8694 32.3366 19.8831 32.3571C19.8953 32.3756 19.9128 32.39 19.9333 32.3984C19.9538 32.4068 19.9764 32.4087 19.9981 32.4041C20.0196 32.3999 20.0393 32.3895 20.055 32.3742C20.0706 32.359 20.0814 32.3394 20.0861 32.3181C20.0893 32.3021 20.089 32.2855 20.0851 32.2696C20.0813 32.2538 20.074 32.2389 20.0638 32.2262C20.0536 32.2134 20.0407 32.203 20.0261 32.1957C20.0115 32.1885 19.9954 32.1845 19.9791 32.1841H19.9591ZM27.9591 32.1841C27.9327 32.1878 27.9085 32.2009 27.8911 32.2211C27.8751 32.2398 27.8657 32.2632 27.8643 32.2877C27.8629 32.3123 27.8694 32.3366 27.8831 32.3571C27.8953 32.3756 27.9128 32.39 27.9333 32.3984C27.9538 32.4068 27.9764 32.4087 27.9981 32.4041C28.0196 32.3999 28.0393 32.3895 28.055 32.3742C28.0706 32.359 28.0814 32.3394 28.0861 32.3181C28.0893 32.3021 28.089 32.2855 28.0851 32.2696C28.0813 32.2538 28.074 32.2389 28.0638 32.2262C28.0536 32.2134 28.0407 32.203 28.0261 32.1957C28.0115 32.1885 27.9954 32.1845 27.9791 32.1841H27.9591ZM24.1951 32.7291C23.9819 32.7234 23.7697 32.7605 23.5711 32.8383C23.3726 32.9161 23.1916 33.033 23.0391 33.1821C22.7744 33.4397 22.607 33.781 22.5653 34.148C22.5237 34.5151 22.6103 34.8852 22.8104 35.1956C23.0106 35.5061 23.312 35.7377 23.6635 35.8512C24.015 35.9647 24.395 35.9531 24.7389 35.8183C25.0828 35.6835 25.3695 35.4339 25.5503 35.1118C25.7311 34.7897 25.7949 34.415 25.7309 34.0512C25.6669 33.6874 25.4789 33.357 25.199 33.116C24.9191 32.875 24.5644 32.7383 24.1951 32.7291ZM19.9591 32.7461C19.938 32.7495 19.9184 32.7588 19.9024 32.773C19.8865 32.7871 19.8749 32.8056 19.8691 32.8261C19.8631 32.8466 19.8631 32.8685 19.8691 32.8891C19.8741 32.9042 19.8821 32.9181 19.8927 32.9299C19.9033 32.9418 19.9163 32.9513 19.9307 32.9578C19.9452 32.9644 19.9609 32.9679 19.9768 32.9681C19.9927 32.9683 20.0085 32.9653 20.0231 32.9591C20.0427 32.9503 20.0593 32.9359 20.0709 32.9178C20.0824 32.8997 20.0884 32.8786 20.0881 32.8571C20.0881 32.7971 20.0381 32.7471 19.9781 32.7471H19.9591V32.7461ZM27.9591 32.7461C27.938 32.7495 27.9184 32.7588 27.9024 32.773C27.8865 32.7871 27.8749 32.8056 27.8691 32.8261C27.8631 32.8466 27.8631 32.8685 27.8691 32.8891C27.8741 32.9042 27.8821 32.9181 27.8927 32.9299C27.9033 32.9418 27.9163 32.9513 27.9307 32.9578C27.9452 32.9644 27.9609 32.9679 27.9768 32.9681C27.9927 32.9683 28.0085 32.9653 28.0231 32.9591C28.0427 32.9503 28.0593 32.9359 28.0709 32.9178C28.0824 32.8997 28.0884 32.8786 28.0881 32.8571C28.0881 32.7971 28.0381 32.7471 27.9781 32.7471H27.9591V32.7461ZM24.1411 33.2011C24.1568 33.2008 24.1724 33.2008 24.1881 33.2011C24.3411 33.1966 24.4935 33.2228 24.6362 33.2782C24.7789 33.3336 24.909 33.4171 25.0188 33.5238C25.1286 33.6304 25.2159 33.758 25.2756 33.899C25.3352 34.04 25.3659 34.1915 25.3659 34.3446C25.3659 34.4977 25.3352 34.6492 25.2756 34.7902C25.2159 34.9312 25.1286 35.0587 25.0188 35.1654C24.909 35.272 24.7789 35.3555 24.6362 35.4109C24.4935 35.4664 24.3411 35.4926 24.1881 35.4881C23.8889 35.4879 23.6017 35.3704 23.388 35.161C23.1744 34.9515 23.0513 34.6667 23.0452 34.3676C23.039 34.0684 23.1503 33.7788 23.3552 33.5608C23.56 33.3427 23.8422 33.2136 24.1411 33.2011ZM19.9691 33.3071C19.9578 33.3078 19.9467 33.3102 19.9361 33.3141C19.9225 33.32 19.9102 33.3286 19.9 33.3394C19.8899 33.3503 19.8821 33.3631 19.8771 33.3771C19.8702 33.3911 19.8661 33.4064 19.8651 33.4221C19.8651 33.4841 19.9151 33.5321 19.9791 33.5321C20.0089 33.5324 20.0377 33.5209 20.0591 33.5001C20.0691 33.4894 20.0769 33.4768 20.0821 33.4631C20.0882 33.4502 20.0916 33.4363 20.0921 33.4221C20.0919 33.3915 20.0801 33.3622 20.0591 33.3401C20.0488 33.3296 20.0365 33.3212 20.0229 33.3156C20.0094 33.3099 19.9948 33.307 19.9801 33.3071C19.9764 33.3069 19.9728 33.3069 19.9691 33.3071ZM27.9691 33.3071C27.9578 33.3078 27.9467 33.3102 27.9361 33.3141C27.9225 33.32 27.9102 33.3286 27.9 33.3394C27.8899 33.3503 27.8821 33.3631 27.8771 33.3771C27.8702 33.3911 27.8661 33.4064 27.8651 33.4221C27.8651 33.4841 27.9151 33.5321 27.9791 33.5321C28.0089 33.5324 28.0377 33.5209 28.0591 33.5001C28.0691 33.4894 28.0769 33.4768 28.0821 33.4631C28.0882 33.4502 28.0916 33.4363 28.0921 33.4221C28.0919 33.3915 28.0801 33.3622 28.0591 33.3401C28.0488 33.3296 28.0365 33.3212 28.0229 33.3156C28.0094 33.3099 27.9948 33.307 27.9801 33.3071C27.9764 33.3069 27.9728 33.3069 27.9691 33.3071ZM19.9711 33.8691C19.943 33.8725 19.9173 33.8864 19.899 33.9079C19.8806 33.9294 19.871 33.957 19.872 33.9852C19.873 34.0135 19.8846 34.0403 19.9044 34.0605C19.9242 34.0806 19.9509 34.0926 19.9791 34.0941C20.0391 34.0941 20.0881 34.0421 20.0881 33.9821C20.0884 33.9674 20.0859 33.9527 20.0806 33.939C20.0752 33.9253 20.0673 33.9127 20.0571 33.9021C20.0468 33.892 20.0346 33.8841 20.0211 33.8791C20.0079 33.8731 19.9936 33.8697 19.9791 33.8691H19.9711ZM27.9711 33.8691C27.943 33.8725 27.9173 33.8864 27.899 33.9079C27.8806 33.9294 27.871 33.957 27.872 33.9852C27.873 34.0135 27.8846 34.0403 27.9044 34.0605C27.9242 34.0806 27.9509 34.0926 27.9791 34.0941C28.0391 34.0941 28.0881 34.0421 28.0881 33.9821C28.0884 33.9674 28.0859 33.9527 28.0806 33.939C28.0752 33.9253 28.0673 33.9127 28.0571 33.9021C28.0468 33.892 28.0346 33.8841 28.0211 33.8791C28.0079 33.8731 27.9936 33.8697 27.9791 33.8691H27.9711ZM19.9711 34.4321C19.9418 34.4324 19.9138 34.4443 19.8931 34.4651C19.8725 34.4866 19.861 34.5153 19.8611 34.5451C19.8621 34.5746 19.8746 34.6026 19.8959 34.6231C19.9171 34.6436 19.9455 34.6551 19.9751 34.6551C20.0043 34.6551 20.0322 34.6435 20.0529 34.6229C20.0735 34.6022 20.0851 34.5742 20.0851 34.5451C20.0857 34.5155 20.075 34.4869 20.0551 34.4651C20.0443 34.4538 20.0312 34.4451 20.0167 34.4394C20.0022 34.4337 19.9866 34.4312 19.9711 34.4321ZM27.9711 34.4321C27.9418 34.4324 27.9138 34.4443 27.8931 34.4651C27.8725 34.4866 27.861 34.5153 27.8611 34.5451C27.8621 34.5746 27.8746 34.6026 27.8959 34.6231C27.9171 34.6436 27.9455 34.6551 27.9751 34.6551C28.0043 34.6551 28.0322 34.6435 28.0529 34.6229C28.0735 34.6022 28.0851 34.5742 28.0851 34.5451C28.0857 34.5155 28.075 34.4869 28.0551 34.4651C28.0443 34.4538 28.0312 34.4451 28.0167 34.4394C28.0022 34.4337 27.9866 34.4312 27.9711 34.4321ZM19.9591 34.9941C19.9337 34.9978 19.9104 35.0101 19.8931 35.0291C19.8827 35.0396 19.8746 35.0521 19.8691 35.0659C19.8636 35.0796 19.8609 35.0943 19.8611 35.1091C19.8621 35.1391 19.8771 35.1671 19.8981 35.1871C19.9141 35.2027 19.9343 35.2132 19.9563 35.2174C19.9782 35.2215 20.0009 35.219 20.0215 35.2102C20.042 35.2014 20.0595 35.1868 20.0717 35.168C20.0839 35.1493 20.0903 35.1274 20.0901 35.1051C20.09 35.0905 20.0871 35.0762 20.0814 35.0628C20.0757 35.0494 20.0675 35.0373 20.0571 35.0271C20.046 35.0157 20.0326 35.0068 20.0177 35.0011C20.0029 34.9954 19.987 34.993 19.9711 34.9941C19.9671 34.9939 19.9631 34.9939 19.9591 34.9941ZM27.9591 34.9941C27.9337 34.9978 27.9104 35.0101 27.8931 35.0291C27.8827 35.0396 27.8746 35.0521 27.8691 35.0659C27.8636 35.0796 27.8609 35.0943 27.8611 35.1091C27.8621 35.1391 27.8771 35.1671 27.8981 35.1871C27.9141 35.2027 27.9343 35.2132 27.9563 35.2174C27.9782 35.2215 28.0009 35.219 28.0215 35.2102C28.042 35.2014 28.0595 35.1868 28.0717 35.168C28.0839 35.1493 28.0903 35.1274 28.0901 35.1051C28.09 35.0905 28.0871 35.0762 28.0814 35.0628C28.0757 35.0494 28.0675 35.0373 28.0571 35.0271C28.046 35.0157 28.0326 35.0068 28.0177 35.0011C28.0029 34.9954 27.987 34.993 27.9711 34.9941C27.9671 34.9939 27.9631 34.9939 27.9591 34.9941ZM19.9711 35.5571C19.9418 35.5574 19.9138 35.5693 19.8931 35.5901C19.8725 35.6116 19.861 35.6403 19.8611 35.6701C19.8621 35.6996 19.8746 35.7276 19.8959 35.7481C19.9171 35.7686 19.9455 35.7801 19.9751 35.7801C20.0043 35.7801 20.0322 35.7685 20.0529 35.7479C20.0735 35.7272 20.0851 35.6992 20.0851 35.6701C20.0857 35.6405 20.075 35.6119 20.0551 35.5901C20.0452 35.5798 20.0334 35.5717 20.0204 35.566C20.0073 35.5603 19.9933 35.5573 19.9791 35.5571H19.9711ZM27.9711 35.5571C27.9418 35.5574 27.9138 35.5693 27.8931 35.5901C27.8725 35.6116 27.861 35.6403 27.8611 35.6701C27.8621 35.6996 27.8746 35.7276 27.8959 35.7481C27.9171 35.7686 27.9455 35.7801 27.9751 35.7801C28.0043 35.7801 28.0322 35.7685 28.0529 35.7479C28.0735 35.7272 28.0851 35.6992 28.0851 35.6701C28.0857 35.6405 28.075 35.6119 28.0551 35.5901C28.0452 35.5798 28.0334 35.5717 28.0204 35.566C28.0073 35.5603 27.9933 35.5573 27.9791 35.5571H27.9711ZM16.6041 35.6601V35.6621C16.2823 35.6541 15.9655 35.7432 15.6951 35.9178C15.4247 36.0924 15.2132 36.3445 15.0881 36.6411C15.0052 36.8377 14.9625 37.0489 14.9625 37.2622C14.9626 37.4756 15.0053 37.6867 15.0883 37.8833C15.1712 38.0799 15.2927 38.2578 15.4455 38.4067C15.5983 38.5556 15.7794 38.6723 15.9781 38.7501C16.1781 38.8281 16.3901 38.8671 16.6041 38.8611C16.9208 38.8614 17.2304 38.7677 17.4938 38.5918C17.7571 38.416 17.9623 38.1659 18.0834 37.8732C18.2044 37.5806 18.2358 37.2586 18.1736 36.9481C18.1115 36.6376 17.9585 36.3525 17.7341 36.1291C17.4344 35.8292 17.028 35.6605 16.6041 35.6601ZM31.3541 35.6601V35.6621C31.0323 35.6541 30.7155 35.7432 30.4451 35.9178C30.1747 36.0924 29.9632 36.3445 29.8381 36.6411C29.7552 36.8377 29.7125 37.0489 29.7125 37.2622C29.7126 37.4756 29.7553 37.6867 29.8383 37.8833C29.9212 38.0799 30.0427 38.2578 30.1955 38.4067C30.3483 38.5556 30.5294 38.6723 30.7281 38.7501C30.9281 38.8281 31.1401 38.8671 31.3541 38.8611C31.6708 38.8614 31.9804 38.7677 32.2438 38.5918C32.5071 38.416 32.7123 38.1659 32.8334 37.8732C32.9544 37.5806 32.9858 37.2586 32.9236 36.9481C32.8615 36.6376 32.7085 36.3525 32.4841 36.1291C32.1844 35.8292 31.778 35.6605 31.3541 35.6601ZM19.9711 36.1201C19.9419 36.1211 19.9142 36.1333 19.8937 36.1541C19.8733 36.175 19.8616 36.2029 19.8611 36.2321C19.8611 36.2621 19.8761 36.2901 19.8961 36.3111C19.9171 36.3311 19.9461 36.3441 19.9751 36.3441C20.0044 36.3433 20.0322 36.3312 20.0527 36.3103C20.0732 36.2894 20.0848 36.2614 20.0851 36.2321C20.0857 36.2031 20.075 36.1751 20.0551 36.1541C20.0354 36.1329 20.008 36.1203 19.9791 36.1191H19.9711V36.1201ZM27.9711 36.1201C27.9419 36.1211 27.9142 36.1333 27.8937 36.1541C27.8733 36.175 27.8616 36.2029 27.8611 36.2321C27.8611 36.2621 27.8761 36.2901 27.8961 36.3111C27.9171 36.3311 27.9461 36.3441 27.9751 36.3441C28.0044 36.3433 28.0322 36.3312 28.0527 36.3103C28.0732 36.2894 28.0848 36.2614 28.0851 36.2321C28.0857 36.2031 28.075 36.1751 28.0551 36.1541C28.0354 36.1329 28.008 36.1203 27.9791 36.1191H27.9711V36.1201ZM16.6041 36.1231C16.7585 36.1152 16.9129 36.1387 17.058 36.1924C17.203 36.246 17.3356 36.3286 17.4477 36.4351C17.5598 36.5416 17.6491 36.6698 17.7101 36.8118C17.7711 36.9539 17.8026 37.107 17.8026 37.2616C17.8026 37.4162 17.7711 37.5692 17.7101 37.7113C17.6491 37.8534 17.5598 37.9816 17.4477 38.0881C17.3356 38.1946 17.203 38.2772 17.058 38.3308C16.9129 38.3844 16.7585 38.408 16.6041 38.4001C16.3123 38.3851 16.0373 38.2586 15.836 38.0467C15.6348 37.8349 15.5226 37.5538 15.5226 37.2616C15.5226 36.9694 15.6348 36.6883 15.836 36.4764C16.0373 36.2646 16.3123 36.1381 16.6041 36.1231ZM31.3541 36.1231C31.5085 36.1152 31.6629 36.1387 31.808 36.1924C31.953 36.246 32.0856 36.3286 32.1977 36.4351C32.3098 36.5416 32.3991 36.6698 32.4601 36.8118C32.5211 36.9539 32.5526 37.107 32.5526 37.2616C32.5526 37.4162 32.5211 37.5692 32.4601 37.7113C32.3991 37.8534 32.3098 37.9816 32.1977 38.0881C32.0856 38.1946 31.953 38.2772 31.808 38.3308C31.6629 38.3844 31.5085 38.408 31.3541 38.4001C31.0623 38.3851 30.7873 38.2586 30.586 38.0467C30.3848 37.8349 30.2726 37.5538 30.2726 37.2616C30.2726 36.9694 30.3848 36.6883 30.586 36.4764C30.7873 36.2646 31.0623 36.1381 31.3541 36.1231ZM19.9711 36.6821C19.9564 36.6825 19.942 36.6858 19.9286 36.6918C19.9152 36.6978 19.9031 36.7064 19.8931 36.7171C19.8827 36.7275 19.8745 36.74 19.869 36.7537C19.8635 36.7673 19.8608 36.782 19.8611 36.7967C19.8614 36.8115 19.8646 36.826 19.8707 36.8394C19.8767 36.8529 19.8853 36.865 19.8961 36.8751C19.918 36.8951 19.9468 36.9061 19.9765 36.9057C20.0062 36.9053 20.0347 36.8937 20.0561 36.8731C20.0771 36.8518 20.0889 36.823 20.0889 36.7931C20.0889 36.7631 20.0771 36.7344 20.0561 36.7131C20.0459 36.7031 20.0339 36.6952 20.0207 36.6899C20.0075 36.6846 19.9933 36.6819 19.9791 36.6821H19.9711ZM27.9711 36.6821C27.9564 36.6825 27.942 36.6858 27.9286 36.6918C27.9152 36.6978 27.9031 36.7064 27.8931 36.7171C27.8827 36.7275 27.8745 36.74 27.869 36.7537C27.8635 36.7673 27.8609 36.782 27.8611 36.7967C27.8614 36.8115 27.8646 36.826 27.8707 36.8394C27.8767 36.8529 27.8853 36.865 27.8961 36.8751C27.918 36.8951 27.9468 36.9061 27.9765 36.9057C28.0062 36.9053 28.0347 36.8937 28.0561 36.8731C28.0771 36.8518 28.0889 36.823 28.0889 36.7931C28.0889 36.7631 28.0771 36.7344 28.0561 36.7131C28.0459 36.7031 28.0339 36.6952 28.0207 36.6899C28.0075 36.6846 27.9933 36.6819 27.9791 36.6821H27.9711ZM19.9591 37.2441C19.9323 37.2477 19.9078 37.261 19.8901 37.2815C19.8725 37.3019 19.8628 37.3281 19.8631 37.3551C19.8631 37.4171 19.9161 37.4681 19.9791 37.4671C20.0068 37.4644 20.0326 37.4516 20.0514 37.4309C20.0701 37.4103 20.0805 37.3835 20.0805 37.3556C20.0805 37.3277 20.0701 37.3008 20.0514 37.2802C20.0326 37.2596 20.0068 37.2467 19.9791 37.2441H19.9591ZM27.9591 37.2441C27.9323 37.2477 27.9078 37.261 27.8901 37.2815C27.8725 37.3019 27.8628 37.3281 27.8631 37.3551C27.8631 37.4171 27.9161 37.4681 27.9791 37.4671C28.0068 37.4644 28.0326 37.4516 28.0514 37.4309C28.0701 37.4103 28.0805 37.3835 28.0805 37.3556C28.0805 37.3277 28.0701 37.3008 28.0514 37.2802C28.0326 37.2596 28.0068 37.2467 27.9791 37.2441H27.9591ZM19.9591 37.8041C19.9339 37.8076 19.9106 37.8196 19.8931 37.8381C19.8725 37.8596 19.861 37.8883 19.8611 37.9181C19.8621 37.9476 19.8746 37.9756 19.8959 37.9961C19.9171 38.0166 19.9455 38.0281 19.9751 38.0281C20.0043 38.0281 20.0322 38.0165 20.0529 37.9959C20.0735 37.9752 20.0851 37.9473 20.0851 37.9181C20.0857 37.8885 20.075 37.8599 20.0551 37.8381C20.0443 37.8268 20.0313 37.818 20.0167 37.8123C20.0022 37.8066 19.9867 37.8041 19.9711 37.8051C19.9671 37.8049 19.9631 37.8049 19.9591 37.8051V37.8041ZM27.9591 37.8041C27.9339 37.8076 27.9106 37.8196 27.8931 37.8381C27.8725 37.8596 27.861 37.8883 27.8611 37.9181C27.8621 37.9476 27.8746 37.9756 27.8959 37.9961C27.9171 38.0166 27.9455 38.0281 27.9751 38.0281C28.0043 38.0281 28.0322 38.0165 28.0529 37.9959C28.0735 37.9752 28.0851 37.9473 28.0851 37.9181C28.0857 37.8885 28.075 37.8599 28.0551 37.8381C28.0443 37.8268 28.0313 37.818 28.0167 37.8123C28.0022 37.8066 27.9867 37.8041 27.9711 37.8051C27.9671 37.8049 27.9631 37.8049 27.9591 37.8051V37.8041ZM24.1951 37.9981C23.8717 37.9864 23.5523 38.0731 23.2793 38.2469C23.0063 38.4206 22.7925 38.6731 22.6661 38.9711C22.5404 39.2692 22.5076 39.5983 22.572 39.9154C22.6364 40.2324 22.795 40.5226 23.0271 40.7481C23.1818 40.8972 23.3649 41.0136 23.5656 41.0904C23.7663 41.1672 23.9804 41.2028 24.1951 41.1951C24.6092 41.1806 25.0016 41.0061 25.2898 40.7082C25.5779 40.4104 25.7393 40.0125 25.7401 39.5981C25.7403 39.1831 25.5793 38.7842 25.2911 38.4857C25.0028 38.1872 24.6098 38.0123 24.1951 37.9981ZM19.9711 38.3681C19.944 38.3726 19.9195 38.3868 19.9021 38.408C19.8847 38.4293 19.8756 38.4562 19.8766 38.4836C19.8776 38.511 19.8885 38.5372 19.9074 38.5572C19.9263 38.5771 19.9517 38.5895 19.9791 38.5921C19.9936 38.5919 20.008 38.5889 20.0213 38.5832C20.0347 38.5775 20.0468 38.5692 20.0569 38.5588C20.0671 38.5484 20.075 38.5361 20.0804 38.5226C20.0857 38.509 20.0884 38.4946 20.0881 38.4801C20.0884 38.465 20.0857 38.4501 20.0801 38.4361C20.0738 38.4217 20.0646 38.4088 20.0531 38.3981C20.0426 38.3873 20.03 38.3788 20.0161 38.3731C20.0017 38.368 19.9863 38.366 19.9711 38.3671V38.3681ZM27.9711 38.3681C27.944 38.3726 27.9195 38.3868 27.9021 38.408C27.8847 38.4293 27.8756 38.4562 27.8766 38.4836C27.8776 38.511 27.8885 38.5372 27.9074 38.5572C27.9263 38.5771 27.9517 38.5895 27.9791 38.5921C27.9936 38.5919 28.008 38.5889 28.0213 38.5832C28.0347 38.5775 28.0468 38.5692 28.0569 38.5588C28.0671 38.5484 28.075 38.5361 28.0804 38.5226C28.0857 38.509 28.0884 38.4946 28.0881 38.4801C28.0884 38.465 28.0857 38.4501 28.0801 38.4361C28.0738 38.4217 28.0646 38.4088 28.0531 38.3981C28.0426 38.3873 28.03 38.3788 28.0161 38.3731C28.0017 38.368 27.9863 38.366 27.9711 38.3671V38.3681ZM24.1951 38.4591C24.8251 38.4591 25.3391 38.9691 25.3351 39.5981C25.323 39.8916 25.1977 40.169 24.9855 40.3722C24.7734 40.5754 24.4908 40.6886 24.1971 40.6881C23.9035 40.6886 23.6212 40.5753 23.4094 40.3721C23.1976 40.1688 23.0727 39.8914 23.0611 39.5981C23.0607 39.4488 23.0897 39.3009 23.1465 39.1629C23.2033 39.0248 23.2867 38.8994 23.3921 38.7936C23.4974 38.6878 23.6225 38.6038 23.7603 38.5464C23.8981 38.489 24.0458 38.4593 24.1951 38.4591ZM19.9591 38.9291C19.9339 38.9326 19.9106 38.9446 19.8931 38.9631C19.8725 38.9846 19.861 39.0133 19.8611 39.0431C19.8621 39.0726 19.8746 39.1006 19.8959 39.1211C19.9171 39.1416 19.9455 39.1531 19.9751 39.1531C20.0043 39.1531 20.0322 39.1415 20.0529 39.1209C20.0735 39.1002 20.0851 39.0723 20.0851 39.0431C20.0857 39.0135 20.075 38.9849 20.0551 38.9631C20.0443 38.9518 20.0313 38.943 20.0167 38.9373C20.0022 38.9316 19.9867 38.9291 19.9711 38.9301C19.9671 38.9299 19.9631 38.9299 19.9591 38.9301V38.9291ZM27.9591 38.9291C27.9339 38.9326 27.9106 38.9446 27.8931 38.9631C27.8725 38.9846 27.861 39.0133 27.8611 39.0431C27.8621 39.0726 27.8746 39.1006 27.8959 39.1211C27.9171 39.1416 27.9455 39.1531 27.9751 39.1531C28.0043 39.1531 28.0322 39.1415 28.0529 39.1209C28.0735 39.1002 28.0851 39.0723 28.0851 39.0431C28.0857 39.0135 28.075 38.9849 28.0551 38.9631C28.0443 38.9518 28.0313 38.943 28.0167 38.9373C28.0022 38.9316 27.9867 38.9291 27.9711 38.9301C27.9671 38.9299 27.9631 38.9299 27.9591 38.9301V38.9291ZM19.9591 39.4921C19.9483 39.4939 19.9379 39.4973 19.9281 39.5021C19.9017 39.5154 19.8813 39.5383 19.8711 39.5661C19.8617 39.5943 19.8632 39.6249 19.8751 39.6521C19.8883 39.6786 19.9112 39.699 19.9391 39.7091C19.9528 39.7145 19.9674 39.7173 19.9821 39.7171C20.0127 39.7147 20.0411 39.7003 20.0611 39.6771C20.0799 39.6546 20.0894 39.6258 20.0875 39.5966C20.0857 39.5673 20.0726 39.54 20.0511 39.5201C20.0403 39.5103 20.0277 39.5028 20.0139 39.498C20.0002 39.4932 19.9856 39.4912 19.9711 39.4921C19.9671 39.4919 19.9631 39.4919 19.9591 39.4921ZM27.9591 39.4921C27.9483 39.4939 27.9379 39.4973 27.9281 39.5021C27.9017 39.5154 27.8813 39.5383 27.8711 39.5661C27.8617 39.5943 27.8632 39.6249 27.8751 39.6521C27.8883 39.6786 27.9112 39.699 27.9391 39.7091C27.9528 39.7145 27.9674 39.7173 27.9821 39.7171C28.0127 39.7147 28.0411 39.7003 28.0611 39.6771C28.0799 39.6546 28.0894 39.6258 28.0875 39.5966C28.0857 39.5673 28.0726 39.54 28.0511 39.5201C28.0403 39.5103 28.0277 39.5028 28.0139 39.498C28.0002 39.4932 27.9856 39.4912 27.9711 39.4921C27.9671 39.4919 27.9631 39.4919 27.9591 39.4921ZM19.9711 40.0551C19.9562 40.0557 19.9415 40.0593 19.928 40.0657C19.9144 40.072 19.9023 40.081 19.8923 40.092C19.8822 40.1031 19.8745 40.1161 19.8695 40.1301C19.8644 40.1442 19.8623 40.1592 19.8631 40.1741C19.8643 40.1888 19.8685 40.2031 19.8754 40.2161C19.8822 40.2292 19.8917 40.2407 19.9031 40.2501C19.9138 40.2602 19.9263 40.268 19.9401 40.2732C19.9538 40.2783 19.9684 40.2807 19.9831 40.2801C19.9976 40.2781 20.0117 40.2741 20.0251 40.2681C20.0388 40.262 20.051 40.2532 20.0611 40.2421C20.0706 40.2306 20.0777 40.2173 20.0821 40.2031C20.0876 40.1894 20.0903 40.1748 20.0901 40.1601C20.0885 40.1378 20.0804 40.1165 20.067 40.0988C20.0535 40.081 20.0351 40.0676 20.0141 40.0601C20.0002 40.0556 19.9856 40.0539 19.9711 40.0551ZM27.9711 40.0551C27.9562 40.0556 27.9416 40.059 27.9281 40.0651C27.908 40.0752 27.8912 40.0908 27.8797 40.1101C27.8682 40.1294 27.8624 40.1516 27.8631 40.1741C27.8663 40.2036 27.8806 40.2307 27.9031 40.2501C27.9131 40.2601 27.9261 40.2701 27.9391 40.2731C27.9566 40.2789 27.9753 40.2804 27.9935 40.2775C28.0118 40.2745 28.029 40.2671 28.0438 40.256C28.0586 40.2449 28.0704 40.2303 28.0783 40.2136C28.0862 40.1969 28.0899 40.1785 28.0891 40.1601C28.0871 40.1301 28.0735 40.1021 28.0511 40.0821C28.0403 40.0724 28.0276 40.0651 28.0138 40.0604C28.0001 40.0558 27.9856 40.054 27.9711 40.0551ZM19.9591 40.6171C19.9483 40.6189 19.9379 40.6223 19.9281 40.6271C19.9017 40.6404 19.8813 40.6633 19.8711 40.6911C19.8617 40.7193 19.8632 40.7499 19.8751 40.7771C19.8883 40.8036 19.9112 40.824 19.9391 40.8341C19.9528 40.8395 19.9674 40.8423 19.9821 40.8421C20.0127 40.8397 20.0411 40.8253 20.0611 40.8021C20.0799 40.7796 20.0894 40.7508 20.0875 40.7216C20.0857 40.6923 20.0726 40.665 20.0511 40.6451C20.0403 40.6353 20.0277 40.6278 20.0139 40.623C20.0002 40.6182 19.9856 40.6162 19.9711 40.6171C19.9671 40.6169 19.9631 40.6169 19.9591 40.6171ZM27.9591 40.6171C27.9483 40.6189 27.9379 40.6223 27.9281 40.6271C27.9017 40.6404 27.8813 40.6633 27.8711 40.6911C27.8617 40.7193 27.8632 40.7499 27.8751 40.7771C27.8883 40.8036 27.9112 40.824 27.9391 40.8341C27.9528 40.8395 27.9674 40.8423 27.9821 40.8421C28.0127 40.8397 28.0411 40.8253 28.0611 40.8021C28.0799 40.7796 28.0894 40.7508 28.0875 40.7216C28.0857 40.6923 28.0726 40.665 28.0511 40.6451C28.0403 40.6353 28.0277 40.6278 28.0139 40.623C28.0002 40.6182 27.9856 40.6162 27.9711 40.6171C27.9671 40.6169 27.9631 40.6169 27.9591 40.6171ZM19.9591 41.1801C19.9327 41.1838 19.9085 41.1969 19.8911 41.2171C19.8749 41.2359 19.8654 41.2595 19.8639 41.2842C19.8625 41.309 19.8692 41.3335 19.8831 41.3541C19.8951 41.3721 19.9131 41.3881 19.9331 41.3961C19.9537 41.4046 19.9763 41.4067 19.9981 41.4021C20.0202 41.3985 20.0407 41.3884 20.0571 41.3731C20.0726 41.3571 20.0832 41.3371 20.0877 41.3153C20.0921 41.2934 20.0902 41.2708 20.0821 41.2501C20.0738 41.2295 20.0596 41.2119 20.0412 41.1994C20.0229 41.187 20.0013 41.1802 19.9791 41.1801H19.9591ZM27.9591 41.1801C27.9327 41.1838 27.9085 41.1969 27.8911 41.2171C27.8749 41.2359 27.8654 41.2595 27.8639 41.2842C27.8625 41.309 27.8692 41.3335 27.8831 41.3541C27.8951 41.3721 27.9131 41.3881 27.9331 41.3961C27.9537 41.4046 27.9763 41.4067 27.9981 41.4021C28.0202 41.3985 28.0407 41.3884 28.0571 41.3731C28.0726 41.3571 28.0832 41.3371 28.0877 41.3153C28.0921 41.2934 28.0902 41.2708 28.0821 41.2501C28.0738 41.2295 28.0596 41.2119 28.0412 41.1994C28.0229 41.187 28.0013 41.1802 27.9791 41.1801H27.9591ZM19.9591 41.7421C19.9322 41.7458 19.9075 41.7592 19.8898 41.7798C19.8721 41.8005 19.8626 41.8269 19.8631 41.8541C19.8631 41.9161 19.9161 41.9681 19.9791 41.9641C20.006 41.9605 20.0306 41.9472 20.0485 41.9268C20.0663 41.9064 20.0762 41.8802 20.0762 41.8531C20.0762 41.826 20.0663 41.7998 20.0485 41.7794C20.0306 41.7589 20.006 41.7457 19.9791 41.7421H19.9591ZM27.9591 41.7421C27.9322 41.7458 27.9075 41.7592 27.8898 41.7798C27.8721 41.8005 27.8626 41.8269 27.8631 41.8541C27.8631 41.9161 27.9161 41.9681 27.9791 41.9641C28.006 41.9605 28.0306 41.9472 28.0485 41.9268C28.0663 41.9064 28.0762 41.8802 28.0762 41.8531C28.0762 41.826 28.0663 41.7998 28.0485 41.7794C28.0306 41.7589 28.006 41.7457 27.9791 41.7421H27.9591ZM19.9691 42.3021C19.943 42.3036 19.9182 42.3142 19.8991 42.3321C19.8884 42.3436 19.8802 42.3572 19.8751 42.3721C19.8691 42.3853 19.8657 42.3996 19.8651 42.4141C19.8651 42.4291 19.8691 42.4441 19.8751 42.4571C19.8803 42.4708 19.8881 42.4834 19.8981 42.4941C19.9081 42.5041 19.9221 42.5121 19.9361 42.5181C19.9491 42.5231 19.9641 42.5281 19.9791 42.5281C20.0088 42.5278 20.0373 42.516 20.0584 42.4951C20.0795 42.4741 20.0916 42.4458 20.0921 42.4161C20.0918 42.3864 20.08 42.3579 20.0591 42.3368C20.0381 42.3157 20.0098 42.3036 19.9801 42.3031H19.9791C19.9758 42.3029 19.9724 42.3029 19.9691 42.3031V42.3021ZM27.9791 42.3021C27.9643 42.3018 27.9496 42.3044 27.9358 42.3099C27.9221 42.3154 27.9096 42.3236 27.8991 42.3341C27.8781 42.3554 27.8663 42.3841 27.8663 42.4141C27.8663 42.444 27.8781 42.4728 27.8991 42.4941C27.9204 42.5151 27.9492 42.5269 27.9791 42.5269C28.009 42.5269 28.0378 42.5151 28.0591 42.4941C28.0695 42.4839 28.0777 42.4718 28.0834 42.4584C28.0891 42.445 28.092 42.4306 28.0921 42.4161C28.0918 42.3864 28.08 42.3579 28.0591 42.3368C28.0381 42.3157 28.0098 42.3036 27.9801 42.3031H27.9791V42.3021ZM19.9591 42.8651C19.9337 42.8686 19.9103 42.881 19.8931 42.9001C19.8775 42.9156 19.8669 42.9354 19.8627 42.957C19.8585 42.9786 19.8608 43.0009 19.8694 43.0212C19.878 43.0414 19.8925 43.0586 19.911 43.0705C19.9295 43.0825 19.9511 43.0886 19.9731 43.0881C20.0022 43.0885 20.0302 43.0773 20.0511 43.0571C20.0724 43.0365 20.0849 43.0086 20.0861 42.9791C20.0861 42.964 20.0831 42.9491 20.0773 42.9352C20.0715 42.9213 20.063 42.9087 20.0524 42.8981C20.0417 42.8875 20.029 42.8791 20.015 42.8735C20.0011 42.8678 19.9861 42.8649 19.9711 42.8651H19.9691C19.9658 42.8649 19.9624 42.8649 19.9591 42.8651ZM27.9591 42.8651C27.9337 42.8686 27.9103 42.881 27.8931 42.9001C27.8775 42.9156 27.8669 42.9354 27.8627 42.957C27.8585 42.9786 27.8608 43.0009 27.8694 43.0212C27.878 43.0414 27.8925 43.0586 27.911 43.0705C27.9295 43.0825 27.9511 43.0886 27.9731 43.0881C28.0022 43.0885 28.0302 43.0773 28.0511 43.0571C28.0724 43.0365 28.0849 43.0086 28.0861 42.9791C28.0861 42.964 28.0831 42.9491 28.0773 42.9352C28.0715 42.9213 28.063 42.9087 28.0524 42.8981C28.0417 42.8875 28.029 42.8791 28.015 42.8735C28.0011 42.8678 27.9861 42.8649 27.9711 42.8651H27.9691C27.9658 42.8649 27.9624 42.8649 27.9591 42.8651Z" fill="#1A1A1A"/>
</svg>
