<svg width="48" height="48" viewBox="0 0 48 48" fill="none" xmlns="http://www.w3.org/2000/svg">
<path fill-rule="evenodd" clip-rule="evenodd" d="M12 8C12 5.79086 13.7909 4 16 4H32C34.2091 4 36 5.79086 36 8V23C35.4477 23 35 23.4477 35 24C35 24.5523 35.4477 25 36 25V40C36 42.2091 34.2091 44 32 44H16C13.7909 44 12 42.2091 12 40V25C12.5523 25 13 24.5523 13 24C13 23.4477 12.5523 23 12 23V8ZM15 25C15.5523 25 16 24.5523 16 24C16 23.4477 15.5523 23 15 23C14.4477 23 14 23.4477 14 24C14 24.5523 14.4477 25 15 25ZM19 24C19 24.5523 18.5523 25 18 25C17.4477 25 17 24.5523 17 24C17 23.4477 17.4477 23 18 23C18.5523 23 19 23.4477 19 24ZM21 25C21.5523 25 22 24.5523 22 24C22 23.4477 21.5523 23 21 23C20.4477 23 20 23.4477 20 24C20 24.5523 20.4477 25 21 25ZM25 24C25 24.5523 24.5523 25 24 25C23.4477 25 23 24.5523 23 24C23 23.4477 23.4477 23 24 23C24.5523 23 25 23.4477 25 24ZM27 25C27.5523 25 28 24.5523 28 24C28 23.4477 27.5523 23 27 23C26.4477 23 26 23.4477 26 24C26 24.5523 26.4477 25 27 25ZM31 24C31 24.5523 30.5523 25 30 25C29.4477 25 29 24.5523 29 24C29 23.4477 29.4477 23 30 23C30.5523 23 31 23.4477 31 24ZM33 25C33.5523 25 34 24.5523 34 24C34 23.4477 33.5523 23 33 23C32.4477 23 32 23.4477 32 24C32 24.5523 32.4477 25 33 25ZM19.1789 8.83578C18.7173 8.37419 17.9689 8.37419 17.5074 8.83578L15.8358 10.5074C15.3742 10.9689 15.3742 11.7173 15.8358 12.1789C16.2974 12.6405 17.0458 12.6405 17.5074 12.1789L19.1789 10.5074C19.6405 10.0458 19.6405 9.29738 19.1789 8.83578ZM21.8407 8.83578C22.3023 8.37419 23.0507 8.37419 23.5123 8.83578C23.9738 9.29738 23.9738 10.0458 23.5123 10.5074L21.8407 12.1789C21.3791 12.6405 20.6307 12.6405 20.1691 12.1789C19.7075 11.7173 19.7075 10.9689 20.1691 10.5074L21.8407 8.83578ZM27.8456 8.83578C27.384 8.37419 26.6356 8.37419 26.174 8.83578L24.5025 10.5074C24.0409 10.9689 24.0409 11.7173 24.5025 12.1789C24.964 12.6405 25.7124 12.6405 26.174 12.1789L27.8456 10.5074C28.3072 10.0458 28.3072 9.29738 27.8456 8.83578ZM30.5074 8.83578C30.9689 8.37419 31.7173 8.37419 32.1789 8.83578C32.6405 9.29738 32.6405 10.0458 32.1789 10.5074L30.5074 12.1789C30.0458 12.6405 29.2974 12.6405 28.8358 12.1789C28.3742 11.7173 28.3742 10.9689 28.8358 10.5074L30.5074 8.83578ZM19.1789 14.8358C18.7173 14.3742 17.9689 14.3742 17.5074 14.8358L15.8358 16.5074C15.3742 16.9689 15.3742 17.7173 15.8358 18.1789C16.2974 18.6405 17.0458 18.6405 17.5074 18.1789L19.1789 16.5074C19.6405 16.0458 19.6405 15.2974 19.1789 14.8358ZM21.8407 14.8358C22.3023 14.3742 23.0507 14.3742 23.5123 14.8358C23.9738 15.2974 23.9738 16.0458 23.5123 16.5074L21.8407 18.1789C21.3791 18.6405 20.6307 18.6405 20.1691 18.1789C19.7075 17.7173 19.7075 16.9689 20.1691 16.5074L21.8407 14.8358ZM27.8456 14.8358C27.384 14.3742 26.6356 14.3742 26.174 14.8358L24.5025 16.5074C24.0409 16.9689 24.0409 17.7173 24.5025 18.1789C24.964 18.6405 25.7124 18.6405 26.174 18.1789L27.8456 16.5074C28.3072 16.0458 28.3072 15.2974 27.8456 14.8358ZM30.5074 14.8358C30.9689 14.3742 31.7173 14.3742 32.1789 14.8358C32.6405 15.2974 32.6405 16.0458 32.1789 16.5074L30.5074 18.1789C30.0458 18.6405 29.2974 18.6405 28.8358 18.1789C28.3742 17.7173 28.3742 16.9689 28.8358 16.5074L30.5074 14.8358ZM19.1789 29.8358C18.7173 29.3742 17.9689 29.3742 17.5074 29.8358L15.8358 31.5074C15.3742 31.9689 15.3742 32.7173 15.8358 33.1789C16.2974 33.6405 17.0458 33.6405 17.5074 33.1789L19.1789 31.5074C19.6405 31.0458 19.6405 30.2974 19.1789 29.8358ZM21.8407 29.8358C22.3023 29.3742 23.0507 29.3742 23.5123 29.8358C23.9738 30.2974 23.9738 31.0458 23.5123 31.5074L21.8407 33.1789C21.3791 33.6405 20.6307 33.6405 20.1691 33.1789C19.7075 32.7173 19.7075 31.9689 20.1691 31.5074L21.8407 29.8358ZM27.8456 29.8358C27.384 29.3742 26.6356 29.3742 26.174 29.8358L24.5025 31.5074C24.0409 31.9689 24.0409 32.7173 24.5025 33.1789C24.964 33.6405 25.7124 33.6405 26.174 33.1789L27.8456 31.5074C28.3072 31.0458 28.3072 30.2974 27.8456 29.8358ZM30.5074 29.8358C30.9689 29.3742 31.7173 29.3742 32.1789 29.8358C32.6405 30.2974 32.6405 31.0458 32.1789 31.5074L30.5074 33.1789C30.0458 33.6405 29.2974 33.6405 28.8358 33.1789C28.3742 32.7173 28.3742 31.9689 28.8358 31.5074L30.5074 29.8358ZM19.1789 35.8358C18.7173 35.3742 17.9689 35.3742 17.5074 35.8358L15.8358 37.5074C15.3742 37.9689 15.3742 38.7173 15.8358 39.1789C16.2974 39.6405 17.0458 39.6405 17.5074 39.1789L19.1789 37.5074C19.6405 37.0458 19.6405 36.2974 19.1789 35.8358ZM21.8407 35.8358C22.3023 35.3742 23.0507 35.3742 23.5123 35.8358C23.9738 36.2974 23.9738 37.0458 23.5123 37.5074L21.8407 39.1789C21.3791 39.6405 20.6307 39.6405 20.1691 39.1789C19.7075 38.7173 19.7075 37.9689 20.1691 37.5074L21.8407 35.8358ZM27.8456 35.8358C27.384 35.3742 26.6356 35.3742 26.174 35.8358L24.5025 37.5074C24.0409 37.9689 24.0409 38.7173 24.5025 39.1789C24.964 39.6405 25.7124 39.6405 26.174 39.1789L27.8456 37.5074C28.3072 37.0458 28.3072 36.2974 27.8456 35.8358ZM30.5074 35.8358C30.9689 35.3742 31.7173 35.3742 32.1789 35.8358C32.6405 36.2974 32.6405 37.0458 32.1789 37.5074L30.5074 39.1789C30.0458 39.6405 29.2974 39.6405 28.8358 39.1789C28.3742 38.7173 28.3742 37.9689 28.8358 37.5074L30.5074 35.8358Z" fill="#333333"/>
</svg>
