<svg width="48" height="48" viewBox="0 0 48 48" fill="none" xmlns="http://www.w3.org/2000/svg">
<path d="M14.1541 4.00879C13.2846 4.00879 12.5857 4.70777 12.5857 5.57721V42.4386C12.5857 43.308 13.2846 44.0088 14.1541 44.0088H33.8591C34.7286 44.0088 35.4275 43.308 35.4275 42.4386V5.57721C35.4275 4.70777 34.7286 4.00879 33.8591 4.00879H14.1541ZM14.5857 4.5088H33.4255C34.2568 4.5088 34.9275 5.19044 34.9275 6.03812V41.9775C34.9275 42.8252 34.2568 43.5088 33.4255 43.5088H14.5857C13.7544 43.5088 13.0857 42.8252 13.0857 41.9775V6.03812C13.0857 5.19044 13.7544 4.5088 14.5857 4.5088ZM30.8513 4.74317C30.7924 4.74672 30.7462 4.79537 30.7458 4.85471C30.7452 4.91745 30.7964 4.96847 30.8591 4.96809C30.9211 4.9676 30.9712 4.91669 30.9705 4.85471C30.97 4.79348 30.9204 4.74393 30.8591 4.74317C30.8565 4.7431 30.8551 4.7431 30.8513 4.74317H30.8513ZM30.8513 5.30569C30.7924 5.30925 30.7462 5.35743 30.7458 5.41677C30.7452 5.47951 30.7964 5.53053 30.8591 5.53015C30.9211 5.52966 30.9712 5.47875 30.9705 5.41677C30.97 5.35554 30.9204 5.30645 30.8591 5.30569C30.8565 5.30562 30.8551 5.30562 30.8513 5.30569H30.8513ZM30.8513 5.86822C30.7924 5.87177 30.7462 5.92033 30.7458 5.97929C30.7452 6.04203 30.7964 6.09305 30.8591 6.09267C30.9211 6.09218 30.9712 6.04128 30.9705 5.97929C30.97 5.91806 30.9204 5.86897 30.8591 5.86822C30.8565 5.86814 30.8551 5.86814 30.8513 5.86822H30.8513ZM30.8396 6.43063C30.7852 6.43818 30.7455 6.48698 30.7458 6.54216C30.7463 6.60415 30.7968 6.65396 30.8591 6.65358C30.9204 6.65309 30.9701 6.60377 30.9705 6.54216C30.97 6.48093 30.9204 6.43138 30.8591 6.43063C30.8516 6.43006 30.8491 6.43006 30.8416 6.43063H30.8396ZM30.8591 6.99119C30.7964 6.99058 30.7455 7.04183 30.7459 7.10457C30.7463 7.16655 30.7968 7.21651 30.8591 7.21576C30.9204 7.21527 30.9697 7.16618 30.9705 7.10457C30.971 7.04258 30.9215 6.99194 30.8591 6.99119ZM30.8513 7.55371C30.7916 7.5573 30.7451 7.607 30.7458 7.66709C30.7463 7.72908 30.7968 7.77854 30.8591 7.77817C30.9204 7.77768 30.9701 7.72832 30.9705 7.66709C30.9711 7.60511 30.9211 7.55447 30.8591 7.55371C30.8565 7.5536 30.8551 7.5536 30.8513 7.55371H30.8513ZM30.8513 8.11623C30.7916 8.11986 30.7451 8.16952 30.7458 8.22962C30.7463 8.2916 30.7968 8.34141 30.8591 8.34104C30.9204 8.34058 30.9701 8.29122 30.9705 8.22962C30.9711 8.16763 30.9211 8.11699 30.8591 8.11623C30.8565 8.11616 30.8551 8.11616 30.8513 8.11623H30.8513ZM30.8513 8.67876C30.7916 8.68235 30.7451 8.73204 30.7458 8.79214C30.7463 8.85412 30.7968 8.90394 30.8591 8.90356C30.9204 8.90307 30.9701 8.85374 30.9705 8.79214C30.9711 8.73015 30.9211 8.67951 30.8591 8.67876C30.8565 8.67868 30.8551 8.67868 30.8513 8.67876H30.8513ZM30.8513 9.24116C30.7924 9.24472 30.7462 9.29339 30.7458 9.35235C30.7452 9.41509 30.7964 9.46611 30.8591 9.46574C30.9211 9.46524 30.9712 9.41434 30.9705 9.35235C30.97 9.29113 30.9204 9.24192 30.8591 9.24116C30.8565 9.24109 30.8551 9.24109 30.8513 9.24116H30.8513ZM30.8513 9.80369C30.7924 9.80724 30.7462 9.85554 30.7458 9.91488C30.7452 9.97762 30.7964 10.0286 30.8591 10.0283C30.9211 10.0278 30.9712 9.97686 30.9705 9.91488C30.97 9.85365 30.9204 9.80444 30.8591 9.80369C30.8565 9.80357 30.8551 9.80357 30.8513 9.80369H30.8513ZM30.8396 10.3662C30.7852 10.3738 30.7455 10.4226 30.7458 10.4777C30.7452 10.5405 30.7964 10.5915 30.8591 10.5911C30.9211 10.5906 30.9712 10.5397 30.9705 10.4777C30.97 10.4165 30.9204 10.367 30.8591 10.3662C30.8516 10.3656 30.8491 10.3656 30.8416 10.3662H30.8396ZM30.8591 10.9268C30.7964 10.9262 30.7455 10.9774 30.7459 11.0402C30.7463 11.1021 30.7968 11.1516 30.8591 11.1512C30.9204 11.1507 30.9697 11.1018 30.9705 11.0402C30.971 10.9782 30.9215 10.9275 30.8591 10.9268ZM30.8591 11.4893C30.7964 11.4887 30.7455 11.5399 30.7459 11.6027C30.7463 11.6647 30.7968 11.7149 30.8591 11.7138C30.9204 11.7133 30.9697 11.6639 30.9705 11.6027C30.971 11.5407 30.9215 11.4901 30.8591 11.4893ZM19.7302 11.6102V11.6121C19.488 11.6154 19.2473 11.7131 19.0642 11.9013L17.2556 13.7587C16.8895 14.1347 16.8968 14.7325 17.2732 15.0986C17.6495 15.4648 18.2469 15.4565 18.613 15.0797L20.4216 13.2202C20.7878 12.8438 20.7805 12.2465 20.4041 11.8804C20.2159 11.6975 19.9724 11.6076 19.7302 11.611V11.6102ZM30.8513 12.0516C30.7916 12.0552 30.7451 12.1049 30.7459 12.165C30.7463 12.227 30.7968 12.2773 30.8591 12.2765C30.9204 12.276 30.9701 12.2262 30.9705 12.165C30.9711 12.103 30.9211 12.0523 30.8591 12.0516C30.8565 12.0515 30.8551 12.0515 30.8513 12.0516H30.8513ZM19.7947 12.0947C19.8734 12.0985 19.9541 12.1325 20.0388 12.202C20.4454 12.5637 19.964 12.9874 19.7888 13.1708L18.9236 14.075C18.3164 14.7064 18.0523 15.1333 17.6287 14.7254C17.269 14.352 17.5869 14.1294 18.2752 13.4305L19.1404 12.5282C19.3458 12.3271 19.5584 12.083 19.7947 12.0946L19.7947 12.0947ZM30.8513 12.6142C30.7916 12.6178 30.7451 12.6675 30.7459 12.7276C30.7463 12.7896 30.7968 12.8399 30.8591 12.8391C30.9204 12.8387 30.9701 12.7888 30.9705 12.7276C30.9711 12.6656 30.9211 12.6146 30.8591 12.6142C30.8565 12.6142 30.8551 12.6142 30.8513 12.6142H30.8513ZM30.8513 13.1768C30.7924 13.1803 30.7462 13.2285 30.7459 13.2878C30.7453 13.3506 30.7964 13.4016 30.8591 13.4012C30.9211 13.4007 30.9712 13.3498 30.9705 13.2878C30.97 13.2266 30.9204 13.1775 30.8591 13.1768C30.8565 13.1767 30.8551 13.1767 30.8513 13.1768H30.8513ZM30.8513 13.7393C30.7924 13.7428 30.7462 13.7914 30.7459 13.8503C30.7453 13.9131 30.7964 13.9641 30.8591 13.9637C30.9211 13.9632 30.9712 13.9123 30.9705 13.8503C30.97 13.7891 30.9204 13.74 30.8591 13.7393C30.8565 13.7392 30.8551 13.7392 30.8513 13.7393H30.8513ZM30.8513 14.3017C30.7924 14.3052 30.7462 14.3543 30.7459 14.4132C30.7453 14.476 30.7964 14.527 30.8591 14.5266C30.9211 14.5261 30.9712 14.4752 30.9705 14.4132C30.97 14.352 30.9204 14.3021 30.8591 14.3017C30.8565 14.3016 30.8551 14.3016 30.8513 14.3017H30.8513ZM25.2986 14.3093C25.0564 14.3126 24.8156 14.4101 24.6326 14.5983L22.824 16.4558C22.4579 16.8319 22.4651 17.4295 22.8416 17.7956C23.2178 18.1619 23.8153 18.1554 24.1814 17.7767L25.99 15.9174C26.3561 15.541 26.3489 14.9437 25.9724 14.5776C25.7843 14.3946 25.5408 14.3046 25.2986 14.308V14.3093ZM25.363 14.7936C25.4418 14.7974 25.5224 14.8315 25.6072 14.901C26.0138 15.2627 25.5323 15.6845 25.3572 15.8678L24.492 16.7721C23.8847 17.4034 23.6207 17.8303 23.197 17.4225C22.8373 17.0491 23.1553 16.8285 23.8435 16.1295L24.7087 15.2252C24.9142 15.0242 25.1268 14.782 25.363 14.7936H25.363ZM30.8396 14.8658C30.7852 14.8734 30.7455 14.9226 30.7459 14.9774C30.7453 15.0401 30.7964 15.0911 30.8591 15.0907C30.9211 15.0902 30.9712 15.0393 30.9705 14.9774C30.97 14.9161 30.9204 14.8662 30.8591 14.8658C30.8516 14.8653 30.8491 14.8653 30.8416 14.8658H30.8396ZM30.8396 15.4283C30.7852 15.4359 30.7455 15.4847 30.7459 15.5399C30.7463 15.6019 30.7968 15.6517 30.8591 15.6513C30.9204 15.6508 30.9701 15.6011 30.9705 15.5399C30.97 15.4786 30.9204 15.4291 30.8591 15.4283C30.8516 15.4278 30.8491 15.4278 30.8416 15.4283H30.8396ZM30.8591 15.9889C30.7964 15.9883 30.7455 16.0395 30.7459 16.1023C30.7464 16.1643 30.7968 16.2146 30.8591 16.2138C30.9204 16.2133 30.9697 16.1635 30.9705 16.1023C30.971 16.0403 30.9215 15.9897 30.8591 15.9889ZM30.8513 16.5514C30.7916 16.555 30.7451 16.6047 30.7459 16.6648C30.7463 16.7268 30.7968 16.777 30.8591 16.7762C30.9204 16.7757 30.9701 16.726 30.9705 16.6648C30.9711 16.6028 30.9211 16.5522 30.8591 16.5514C30.8565 16.5514 30.8551 16.5514 30.8513 16.5514H30.8513ZM19.7302 16.8715V16.8735C19.488 16.8767 19.2473 16.9744 19.0642 17.1626L17.2556 19.02C16.8895 19.396 16.8968 19.9938 17.2732 20.3599C17.6494 20.7261 18.2469 20.7178 18.613 20.341L20.4216 18.4816C20.7878 18.1051 20.7805 17.5079 20.4041 17.1417C20.2159 16.9588 19.9724 16.8689 19.7302 16.8723L19.7302 16.8715ZM30.8513 17.1138C30.7916 17.1174 30.7451 17.1671 30.7459 17.2272C30.7463 17.2892 30.7968 17.339 30.8591 17.3386C30.9204 17.3381 30.9701 17.2888 30.9705 17.2272C30.9711 17.1652 30.9211 17.1146 30.8591 17.1138C30.8565 17.1138 30.8551 17.1138 30.8513 17.1138H30.8513ZM19.7947 17.3561C19.8734 17.3598 19.9541 17.3939 20.0388 17.4634C20.4454 17.8251 19.964 18.2488 19.7888 18.4321L18.9236 19.335C18.3163 19.9663 18.0523 20.3932 17.6287 19.9854C17.269 19.612 17.5869 19.3894 18.2751 18.6904L19.1404 17.7862C19.3458 17.5851 19.5584 17.343 19.7947 17.3546L19.7947 17.3561ZM30.8513 17.6766C30.7924 17.6801 30.7462 17.7287 30.7459 17.7877C30.7453 17.8504 30.7964 17.9014 30.8591 17.901C30.9211 17.9006 30.9712 17.8496 30.9705 17.7877C30.97 17.7264 30.9204 17.6766 30.8591 17.6766C30.8565 17.6765 30.8551 17.6765 30.8513 17.6766H30.8513ZM30.8513 18.239C30.7924 18.2425 30.7462 18.2916 30.7459 18.3505C30.7453 18.4133 30.7964 18.4643 30.8591 18.4639C30.9211 18.4635 30.9712 18.4125 30.9705 18.3505C30.97 18.2893 30.9204 18.2394 30.8591 18.239C30.8565 18.2389 30.8551 18.2389 30.8513 18.239H30.8513ZM30.8513 18.8015C30.7924 18.8051 30.7462 18.8541 30.7459 18.9131C30.7453 18.9758 30.7964 19.0268 30.8591 19.0264C30.9211 19.0259 30.9712 18.975 30.9705 18.9131C30.97 18.8518 30.9204 18.8019 30.8591 18.8015C30.8565 18.8014 30.8551 18.8014 30.8513 18.8015H30.8513ZM30.8396 19.364C30.7852 19.3716 30.7455 19.4204 30.7459 19.4756C30.7453 19.5383 30.7964 19.5893 30.8591 19.589C30.9211 19.5885 30.9712 19.5376 30.9705 19.4756C30.97 19.4143 30.9204 19.3648 30.8591 19.364C30.8516 19.3635 30.8491 19.3635 30.8416 19.364H30.8396ZM25.2986 19.5243C25.0564 19.5275 24.8156 19.6252 24.6326 19.8134L22.824 21.6709C22.4579 22.0469 22.4651 22.6446 22.8416 23.0107C23.2178 23.3769 23.8153 23.3709 24.1814 22.9918L25.99 21.1324C26.3561 20.7559 26.3489 20.1587 25.9724 19.7925C25.7843 19.6096 25.5408 19.5197 25.2986 19.5231V19.5243ZM30.8591 19.9246C30.7964 19.924 30.7455 19.9752 30.7459 20.038C30.7463 20.1 30.7968 20.1503 30.8591 20.1495C30.9204 20.1491 30.9697 20.0992 30.9705 20.038C30.971 19.976 30.9215 19.9254 30.8591 19.9246ZM25.363 20.0086C25.4418 20.0124 25.5224 20.0464 25.6072 20.116C26.0138 20.4777 25.5323 20.8993 25.3572 21.0826L24.492 21.987C23.8847 22.6184 23.6207 23.0451 23.197 22.6373C22.8373 22.2639 23.1553 22.0433 23.8435 21.3443L24.7087 20.4401C24.9142 20.239 25.1268 19.9969 25.363 20.0085L25.363 20.0086ZM30.8513 20.4871C30.7916 20.4908 30.7451 20.5404 30.7459 20.6005C30.7463 20.6625 30.7968 20.7127 30.8591 20.7119C30.9204 20.7114 30.9701 20.6617 30.9705 20.6005C30.9711 20.5385 30.9211 20.4875 30.8591 20.4871C30.8565 20.4871 30.8551 20.4871 30.8513 20.4871H30.8513ZM30.8513 21.0497C30.7916 21.0532 30.7451 21.1029 30.7459 21.163C30.7463 21.225 30.7968 21.2748 30.8591 21.2745C30.9204 21.274 30.9701 21.2246 30.9705 21.163C30.9711 21.101 30.9211 21.0504 30.8591 21.0497C30.8565 21.0496 30.8551 21.0496 30.8513 21.0497H30.8513ZM30.8513 21.6121C30.7916 21.6156 30.7451 21.6653 30.7459 21.7254C30.7463 21.7874 30.7968 21.8374 30.8591 21.8366C30.9204 21.8361 30.9701 21.787 30.9705 21.7254C30.9711 21.6635 30.9211 21.6128 30.8591 21.6121C30.8565 21.612 30.8551 21.612 30.8513 21.6121H30.8513ZM19.7302 22.1317C19.488 22.135 19.2473 22.2325 19.0642 22.4207L17.2556 24.2782C16.8895 24.6543 16.8968 25.2519 17.2732 25.618C17.6495 25.9842 18.2469 25.9778 18.613 25.5991L20.4216 23.7398C20.7878 23.3633 20.7805 22.7661 20.4041 22.4C20.2159 22.217 19.9724 22.127 19.7302 22.1304V22.1317ZM30.8513 22.1747C30.7924 22.1782 30.7462 22.2273 30.7459 22.2862C30.7453 22.349 30.7964 22.4 30.8591 22.3996C30.9211 22.3991 30.9712 22.3482 30.9705 22.2862C30.97 22.225 30.9204 22.1751 30.8591 22.1747C30.8565 22.1746 30.8551 22.1746 30.8513 22.1747H30.8513ZM19.7947 22.6161C19.8734 22.6199 19.9541 22.6539 20.0388 22.7235C20.4454 23.0852 19.964 23.507 19.7888 23.6903L18.9236 24.5946C18.3163 25.2259 18.0523 25.6528 17.6287 25.245C17.269 24.8716 17.5869 24.6509 18.2752 23.952L19.1404 23.0477C19.3458 22.8466 19.5584 22.6044 19.7947 22.616V22.6161ZM30.8513 22.7371C30.7924 22.7407 30.7462 22.7896 30.7459 22.8485C30.7453 22.9113 30.7964 22.9623 30.8591 22.9619C30.9211 22.9614 30.9712 22.9105 30.9705 22.8485C30.97 22.7873 30.9204 22.7375 30.8591 22.7371C30.8565 22.737 30.8551 22.737 30.8513 22.7371H30.8513ZM30.8513 23.2996C30.7924 23.3032 30.7462 23.3517 30.7459 23.411C30.7453 23.4738 30.7964 23.5248 30.8591 23.5244C30.9211 23.5239 30.9712 23.473 30.9705 23.411C30.97 23.3498 30.9204 23.3004 30.8591 23.2996C30.8565 23.2996 30.8551 23.2996 30.8513 23.2996H30.8513ZM30.8396 23.862C30.7852 23.8696 30.7455 23.9184 30.7459 23.9732C30.7453 24.036 30.7964 24.087 30.8591 24.0866C30.9211 24.0861 30.9712 24.0352 30.9705 23.9732C30.97 23.912 30.9204 23.8628 30.8591 23.862C30.8516 23.8615 30.8491 23.8615 30.8416 23.862H30.8396ZM30.8396 24.4246C30.7852 24.4321 30.7455 24.4806 30.7459 24.5357C30.7463 24.5977 30.7968 24.6479 30.8591 24.6472C30.9204 24.6467 30.9701 24.597 30.9705 24.5357C30.97 24.4745 30.9204 24.4253 30.8591 24.4246C30.8516 24.424 30.8491 24.424 30.8416 24.4246H30.8396ZM25.2986 24.7391C25.0564 24.7424 24.8156 24.8399 24.6326 25.0281L22.824 26.8856C22.4579 27.2617 22.4651 27.8593 22.8416 28.2254C23.2178 28.5917 23.8153 28.5856 24.1814 28.2065L25.99 26.3472C26.3561 25.9708 26.3489 25.3735 25.9724 25.0074C25.7843 24.8245 25.5408 24.7344 25.2986 24.7378L25.2986 24.7391ZM30.8513 24.9851C30.7916 24.9887 30.7451 25.0384 30.7459 25.0985C30.7464 25.1605 30.7968 25.2104 30.8591 25.21C30.9204 25.2095 30.9701 25.1601 30.9705 25.0985C30.9711 25.0365 30.9211 24.9859 30.8591 24.9851C30.8565 24.985 30.8551 24.985 30.8513 24.9851H30.8513ZM25.363 25.2232C25.4418 25.227 25.5224 25.261 25.6072 25.3306C26.0138 25.6923 25.5323 26.1141 25.3572 26.2974L24.492 27.2016C23.8847 27.833 23.6207 28.2599 23.197 27.8521C22.8373 27.4786 23.1553 27.258 23.8435 26.5591L24.7088 25.6548C24.9142 25.4537 25.1268 25.2115 25.363 25.2231V25.2232ZM30.8513 25.5475C30.7916 25.5511 30.7451 25.6008 30.7459 25.6609C30.7464 25.7229 30.7968 25.7724 30.8591 25.772C30.9204 25.7715 30.9701 25.7225 30.9705 25.6609C30.9711 25.5989 30.9211 25.5483 30.8591 25.5475C30.8565 25.5475 30.8551 25.5475 30.8513 25.5475H30.8513ZM30.8513 26.1099C30.7916 26.1135 30.7451 26.1632 30.7459 26.2233C30.7464 26.2853 30.7968 26.3353 30.8591 26.3345C30.9204 26.334 30.9701 26.2849 30.9705 26.2233C30.9711 26.1613 30.9211 26.1107 30.8591 26.1099C30.8565 26.1098 30.8551 26.1098 30.8513 26.1099H30.8513ZM30.8513 26.6725C30.7924 26.676 30.7462 26.7247 30.7459 26.784C30.7453 26.8467 30.7964 26.8978 30.8591 26.8974C30.9211 26.8969 30.9712 26.846 30.9705 26.784C30.97 26.7228 30.9204 26.6732 30.8591 26.6725C30.8565 26.6723 30.8551 26.6723 30.8513 26.6725H30.8513ZM30.8513 27.235C30.7924 27.2385 30.7462 27.2872 30.7459 27.3465C30.7453 27.4093 30.7964 27.4603 30.8591 27.4599C30.9211 27.4594 30.9712 27.4085 30.9705 27.3465C30.97 27.2853 30.9204 27.2357 30.8591 27.235C30.8565 27.2349 30.8551 27.2349 30.8513 27.235H30.8513ZM19.7302 27.3892V27.3912C19.488 27.3944 19.2473 27.492 19.0642 27.6802L17.2556 29.5377C16.8895 29.9137 16.8968 30.5114 17.2732 30.8775C17.6495 31.2437 18.2469 31.2355 18.613 30.8587L20.4216 28.9993C20.7878 28.6228 20.7805 28.0256 20.4041 27.6594C20.2159 27.4765 19.9724 27.3865 19.7302 27.3899V27.3892ZM30.8513 27.7974C30.7924 27.8009 30.7462 27.8495 30.7459 27.9085C30.7453 27.9712 30.7964 28.0222 30.8591 28.0218C30.9211 28.0214 30.9712 27.9704 30.9705 27.9085C30.97 27.8472 30.9204 27.7981 30.8591 27.7974C30.8565 27.7973 30.8551 27.7973 30.8513 27.7974H30.8513ZM19.7947 27.8737C19.8734 27.8775 19.9541 27.9115 20.0388 27.981C20.4454 28.3427 19.964 28.7665 19.7888 28.9498L18.9236 29.8542C18.3164 30.4855 18.0523 30.9123 17.6287 30.5045C17.269 30.1311 17.5869 29.9086 18.2752 29.2096L19.1404 28.3072C19.3458 28.1061 19.5584 27.8621 19.7947 27.8736L19.7947 27.8737ZM30.8396 28.36C30.7852 28.3676 30.7455 28.4164 30.7459 28.4712C30.7463 28.5332 30.7968 28.5834 30.8591 28.5826C30.9204 28.5821 30.9701 28.5324 30.9705 28.4712C30.97 28.41 30.9204 28.3608 30.8591 28.36C30.8516 28.3595 30.8491 28.3595 30.8416 28.36H30.8396ZM30.8591 28.9206C30.7964 28.92 30.7455 28.9712 30.7459 29.034C30.7464 29.096 30.7968 29.1459 30.8591 29.1455C30.9204 29.145 30.9697 29.0956 30.9705 29.034C30.971 28.972 30.9215 28.9213 30.8591 28.9206ZM30.8513 29.4831C30.7916 29.4867 30.7451 29.5364 30.7459 29.5965C30.7463 29.6585 30.7968 29.7083 30.8591 29.7076C30.9204 29.7071 30.9701 29.6581 30.9705 29.5965C30.9711 29.5345 30.9211 29.4839 30.8591 29.4831C30.8565 29.483 30.8551 29.483 30.8513 29.4831H30.8513ZM25.2986 29.9538C25.0564 29.9571 24.8156 30.0548 24.6326 30.243L22.824 32.1003C22.4579 32.4764 22.4651 33.074 22.8416 33.4402C23.2178 33.8064 23.8153 33.8004 24.1814 33.4214L25.99 31.5619C26.3561 31.1855 26.3489 30.5882 25.9724 30.2221C25.7843 30.0392 25.5408 29.9492 25.2986 29.9526V29.9538ZM30.8513 30.0456C30.7916 30.0492 30.7451 30.0989 30.7459 30.159C30.7463 30.221 30.7968 30.2706 30.8591 30.2702C30.9204 30.2697 30.9701 30.2206 30.9705 30.159C30.9711 30.097 30.9211 30.0464 30.8591 30.0456C30.8565 30.0456 30.8551 30.0456 30.8513 30.0456H30.8513ZM25.363 30.4383C25.4418 30.442 25.5224 30.476 25.6072 30.5455C26.0138 30.9072 25.5323 31.3291 25.3572 31.5123L24.492 32.4167C23.8847 33.0481 23.6207 33.4748 23.197 33.067C22.8373 32.6936 23.1553 32.473 23.8435 31.774L24.7087 30.8698C24.9142 30.6687 25.1268 30.4266 25.363 30.4381L25.363 30.4383ZM30.8513 30.6083C30.7916 30.6119 30.7451 30.6616 30.7459 30.7217C30.7463 30.7836 30.7968 30.834 30.8591 30.8328C30.9204 30.8324 30.9701 30.7829 30.9705 30.7217C30.9711 30.6597 30.9211 30.609 30.8591 30.6083C30.8565 30.6082 30.8551 30.6082 30.8513 30.6083H30.8513ZM30.8513 31.1708C30.7924 31.1744 30.7462 31.223 30.7459 31.2823C30.7453 31.3451 30.7964 31.3961 30.8591 31.3957C30.9211 31.3952 30.9712 31.3443 30.9705 31.2823C30.97 31.2211 30.9204 31.1716 30.8591 31.1708C30.8565 31.1707 30.8551 31.1707 30.8513 31.1708H30.8513ZM30.8513 31.7333C30.7924 31.7369 30.7462 31.7855 30.7459 31.8445C30.7453 31.9073 30.7964 31.9583 30.8591 31.9579C30.9211 31.9574 30.9712 31.9065 30.9705 31.8445C30.97 31.7833 30.9204 31.7341 30.8591 31.7333C30.8565 31.7332 30.8551 31.7332 30.8513 31.7333H30.8513ZM30.8396 32.2958C30.7852 32.3034 30.7455 32.3517 30.7459 32.4069C30.7453 32.4697 30.7964 32.5207 30.8591 32.5203C30.9211 32.5198 30.9712 32.4689 30.9705 32.4069C30.97 32.3457 30.9204 32.2966 30.8591 32.2958C30.8516 32.2953 30.8491 32.2953 30.8416 32.2958H30.8396ZM19.7302 32.6493V32.6512C19.488 32.6545 19.2473 32.7522 19.0642 32.9404L17.2556 34.7977C16.8895 35.1738 16.8968 35.7714 17.2732 36.1375C17.6495 36.5038 18.2469 36.4956 18.613 36.1187L20.4216 34.2593C20.7878 33.8829 20.7805 33.2856 20.4041 32.9195C20.2159 32.7366 19.9724 32.6465 19.7302 32.6499V32.6493ZM30.8396 32.8583C30.7852 32.8658 30.7455 32.9145 30.7459 32.9693C30.7463 33.0313 30.7968 33.0812 30.8591 33.0809C30.9204 33.0804 30.9701 33.0309 30.9705 32.9693C30.97 32.9081 30.9204 32.8586 30.8591 32.8583C30.8516 32.8577 30.8491 32.8577 30.8416 32.8583H30.8396ZM19.7947 33.1338C19.8734 33.1376 19.9541 33.1715 20.0388 33.2411C20.4454 33.6028 19.964 34.0265 19.7888 34.2098L18.9236 35.1141C18.3164 35.7455 18.0523 36.1723 17.6287 35.7645C17.269 35.3911 17.5869 35.1686 18.2752 34.4697L19.1404 33.5653C19.3458 33.3642 19.5584 33.1221 19.7947 33.1337L19.7947 33.1338ZM30.8591 33.4192C30.7964 33.4186 30.7455 33.4698 30.7459 33.5325C30.7464 33.5945 30.7968 33.644 30.8591 33.6436C30.9204 33.6431 30.9697 33.5941 30.9705 33.5325C30.971 33.4706 30.9215 33.4199 30.8591 33.4192ZM30.8513 33.9816C30.7916 33.9852 30.7451 34.0349 30.7459 34.0949C30.7463 34.1569 30.7968 34.2069 30.8591 34.2061C30.9204 34.2056 30.9701 34.1566 30.9705 34.0949C30.9711 34.033 30.9211 33.9823 30.8591 33.9816C30.8565 33.9815 30.8551 33.9815 30.8513 33.9816H30.8513ZM30.8513 34.5441C30.7916 34.5477 30.7451 34.5974 30.7459 34.6575C30.7463 34.7195 30.7968 34.7689 30.8591 34.7685C30.9204 34.7681 30.9701 34.7191 30.9705 34.6575C30.9711 34.5955 30.9211 34.5448 30.8591 34.5441C30.8565 34.544 30.8551 34.544 30.8513 34.5441H30.8513ZM30.8513 35.1066C30.7924 35.1102 30.7462 35.1588 30.7459 35.2181C30.7452 35.2809 30.7964 35.3319 30.8591 35.3315C30.9211 35.331 30.9712 35.2801 30.9705 35.2181C30.97 35.1569 30.9204 35.1074 30.8591 35.1066C30.8565 35.1065 30.8551 35.1065 30.8513 35.1066H30.8513ZM30.8513 35.6691C30.7924 35.6727 30.7462 35.7213 30.7459 35.7802C30.7452 35.843 30.7964 35.894 30.8591 35.8936C30.9211 35.8931 30.9712 35.8422 30.9705 35.7802C30.97 35.719 30.9204 35.6699 30.8591 35.6691C30.8565 35.6691 30.8551 35.6691 30.8513 35.6691H30.8513ZM30.8513 36.2317C30.7924 36.2352 30.7462 36.2838 30.7459 36.3427C30.7452 36.4055 30.7964 36.4565 30.8591 36.4561C30.9211 36.4556 30.9712 36.4047 30.9705 36.3427C30.97 36.2815 30.9204 36.2324 30.8591 36.2317C30.8565 36.2316 30.8551 36.2316 30.8513 36.2317H30.8513ZM30.8513 36.7941C30.7924 36.7976 30.7462 36.8459 30.7459 36.9053C30.7452 36.968 30.7964 37.019 30.8591 37.0186C30.9211 37.0181 30.9712 36.9672 30.9705 36.9053C30.97 36.844 30.9204 36.7948 30.8591 36.7941C30.8565 36.794 30.8551 36.794 30.8513 36.7941H30.8513ZM30.8396 37.3566C30.7852 37.3642 30.7455 37.4129 30.7459 37.4681C30.7463 37.5301 30.7968 37.5803 30.8591 37.5792C30.9204 37.5787 30.9701 37.5294 30.9705 37.4681C30.97 37.4069 30.9204 37.3573 30.8591 37.3566C30.8516 37.356 30.8491 37.356 30.8416 37.3566H30.8396ZM30.8513 37.9172C30.7916 37.9208 30.7451 37.9704 30.7459 38.0305C30.7463 38.0925 30.7968 38.142 30.8591 38.1416C30.9204 38.1411 30.9701 38.0921 30.9705 38.0305C30.9711 37.9685 30.9211 37.9179 30.8591 37.9172C30.8565 37.9171 30.8551 37.9171 30.8513 37.9172H30.8513ZM30.8513 38.4797C30.7916 38.4833 30.7451 38.533 30.7459 38.5931C30.7463 38.655 30.7968 38.7049 30.8591 38.7041C30.9204 38.7036 30.9701 38.6547 30.9705 38.5931C30.9711 38.5311 30.9211 38.4804 30.8591 38.4797C30.8565 38.4796 30.8551 38.4796 30.8513 38.4797H30.8513ZM30.8513 39.0422C30.7916 39.0458 30.7451 39.0955 30.7459 39.1556C30.7463 39.2176 30.7968 39.2674 30.8591 39.267C30.9204 39.2665 30.9701 39.2172 30.9705 39.1556C30.9711 39.0936 30.9211 39.043 30.8591 39.0422C30.8565 39.0421 30.8551 39.0421 30.8513 39.0422H30.8513ZM30.8513 39.6046C30.7924 39.6082 30.7462 39.6568 30.7459 39.7161C30.7452 39.7789 30.7964 39.8299 30.8591 39.8295C30.9211 39.829 30.9712 39.7781 30.9705 39.7161C30.97 39.6549 30.9204 39.6054 30.8591 39.6046C30.8565 39.6045 30.8551 39.6045 30.8513 39.6046H30.8513ZM30.8513 40.1671C30.7924 40.1707 30.7462 40.2194 30.7459 40.2783C30.7452 40.3411 30.7964 40.3921 30.8591 40.3917C30.9211 40.3912 30.9712 40.3403 30.9705 40.2783C30.97 40.2171 30.9204 40.1679 30.8591 40.1671C30.8565 40.1671 30.8551 40.1671 30.8513 40.1671H30.8513ZM30.8513 40.7297C30.7924 40.7332 30.7462 40.7819 30.7459 40.8408C30.7452 40.9036 30.7964 40.9546 30.8591 40.9542C30.9211 40.9537 30.9712 40.9028 30.9705 40.8408C30.97 40.7796 30.9204 40.7304 30.8591 40.7297C30.8565 40.7296 30.8551 40.7296 30.8513 40.7297H30.8513ZM30.8396 41.2922C30.7852 41.2997 30.7455 41.3484 30.7459 41.4036C30.7452 41.4663 30.7964 41.5174 30.8591 41.517C30.9211 41.5165 30.9712 41.4656 30.9705 41.4036C30.97 41.3424 30.9204 41.2929 30.8591 41.2922C30.8516 41.2916 30.8491 41.2916 30.8416 41.2922H30.8396ZM30.8396 41.8547C30.7852 41.8623 30.7455 41.9109 30.7459 41.9661C30.7463 42.0281 30.7968 42.0781 30.8591 42.0773C30.9204 42.0768 30.9701 42.0277 30.9705 41.9661C30.97 41.9049 30.9204 41.8555 30.8591 41.8547C30.8516 41.8541 30.8491 41.8541 30.8416 41.8547H30.8396ZM30.8591 42.4151C30.7964 42.4145 30.7455 42.4658 30.7459 42.5285C30.7464 42.5905 30.7968 42.6401 30.8591 42.6397C30.9204 42.6392 30.9697 42.5901 30.9705 42.5285C30.971 42.4665 30.9215 42.4159 30.8591 42.4151ZM30.8513 42.9777C30.7916 42.9813 30.7451 43.031 30.7459 43.091C30.7463 43.153 30.7968 43.203 30.8591 43.2026C30.9204 43.2021 30.9701 43.1527 30.9705 43.091C30.9711 43.0291 30.9211 42.9784 30.8591 42.9777C30.8565 42.9776 30.8551 42.9776 30.8513 42.9777H30.8513Z" fill="#333333"/>
</svg>
