<svg width="48" height="48" viewBox="0 0 48 48" fill="none" xmlns="http://www.w3.org/2000/svg">
<g clip-path="url(#clip0)">
<path fill-rule="evenodd" clip-rule="evenodd" d="M0 -0.125V47.875H48V-0.125H0ZM23.828 3.865C27.119 3.858 30.467 3.858 33.852 3.889C34.721 3.889 35.42 4.588 35.42 5.457V42.318C35.42 43.188 34.721 43.888 33.852 43.888H14.147C13.277 43.888 12.58 43.188 12.58 42.318V5.457C12.5796 5.25114 12.6198 5.04723 12.6984 4.85695C12.7769 4.66666 12.8922 4.49374 13.0377 4.34808C13.1831 4.20243 13.3559 4.0869 13.5461 4.00813C13.7363 3.92935 13.9401 3.88887 14.146 3.889C17.302 3.889 20.537 3.873 23.828 3.865ZM19.992 4.928C19.9773 4.92892 19.9629 4.93273 19.9497 4.9392C19.9364 4.94568 19.9246 4.9547 19.9149 4.96575C19.9051 4.9768 19.8976 4.98967 19.8928 5.00361C19.8881 5.01755 19.8861 5.03229 19.887 5.047C19.8879 5.06171 19.8917 5.07609 19.8982 5.08933C19.9047 5.10256 19.9137 5.1144 19.9248 5.12415C19.9358 5.1339 19.9487 5.14137 19.9626 5.14615C19.9765 5.15093 19.9913 5.15292 20.006 5.152C20.0357 5.15014 20.0635 5.13656 20.0831 5.11425C20.1028 5.09193 20.1129 5.0627 20.111 5.033C20.1091 5.0033 20.0956 4.97555 20.0732 4.95585C20.0509 4.93616 20.0217 4.92614 19.992 4.928ZM27.992 4.928C27.9773 4.92892 27.9629 4.93273 27.9497 4.9392C27.9364 4.94568 27.9246 4.9547 27.9149 4.96575C27.9051 4.9768 27.8976 4.98967 27.8928 5.00361C27.8881 5.01755 27.8861 5.03229 27.887 5.047C27.8879 5.06171 27.8917 5.07609 27.8982 5.08933C27.9047 5.10256 27.9137 5.1144 27.9248 5.12415C27.9358 5.1339 27.9487 5.14137 27.9626 5.14615C27.9765 5.15093 27.9913 5.15292 28.006 5.152C28.0357 5.15014 28.0635 5.13656 28.0831 5.11425C28.1028 5.09193 28.1129 5.0627 28.111 5.033C28.1091 5.0033 28.0956 4.97555 28.0732 4.95585C28.0509 4.93616 28.0217 4.92614 27.992 4.928ZM19.992 5.49C19.9765 5.48987 19.9611 5.49293 19.9468 5.499C19.9326 5.50506 19.9197 5.514 19.909 5.52526C19.8983 5.53652 19.8901 5.54985 19.8848 5.56444C19.8795 5.57902 19.8773 5.59453 19.8782 5.61001C19.8792 5.6255 19.8834 5.64061 19.8904 5.65443C19.8975 5.66824 19.9073 5.68045 19.9193 5.6903C19.9313 5.70015 19.9452 5.70742 19.9601 5.71167C19.975 5.71592 19.9906 5.71705 20.006 5.715C20.0343 5.71121 20.0602 5.69683 20.0783 5.67474C20.0965 5.65266 20.1056 5.62451 20.1038 5.59598C20.102 5.56745 20.0895 5.54065 20.0688 5.52098C20.048 5.50132 20.0206 5.49024 19.992 5.49ZM27.992 5.49C27.9765 5.48987 27.9611 5.49293 27.9468 5.499C27.9326 5.50506 27.9197 5.514 27.909 5.52526C27.8983 5.53652 27.8901 5.54985 27.8848 5.56444C27.8795 5.57902 27.8773 5.59453 27.8782 5.61001C27.8792 5.6255 27.8834 5.64061 27.8904 5.65443C27.8975 5.66824 27.9073 5.68045 27.9193 5.6903C27.9313 5.70015 27.9452 5.70742 27.9601 5.71167C27.975 5.71592 27.9906 5.71705 28.006 5.715C28.0343 5.71121 28.0602 5.69683 28.0783 5.67474C28.0965 5.65266 28.1056 5.62451 28.1038 5.59598C28.102 5.56745 28.0895 5.54065 28.0688 5.52098C28.048 5.50132 28.0206 5.49024 27.992 5.49ZM19.982 6.053C19.9608 6.05625 19.941 6.0655 19.925 6.07965C19.9089 6.0938 19.8972 6.11227 19.8913 6.13285C19.8854 6.15343 19.8856 6.17528 19.8917 6.19579C19.8978 6.21631 19.9097 6.23463 19.9259 6.2486C19.9422 6.26257 19.9621 6.27159 19.9833 6.27459C20.0045 6.2776 20.0261 6.27447 20.0456 6.26556C20.065 6.25666 20.0816 6.24236 20.0932 6.22436C20.1047 6.20636 20.1109 6.18541 20.111 6.164C20.111 6.103 20.061 6.054 20 6.053H19.982ZM27.982 6.053C27.9608 6.05625 27.941 6.0655 27.925 6.07965C27.9089 6.0938 27.8972 6.11227 27.8913 6.13285C27.8854 6.15343 27.8856 6.17528 27.8917 6.19579C27.8978 6.21631 27.9097 6.23463 27.9259 6.2486C27.9422 6.26257 27.9621 6.27159 27.9833 6.27459C28.0045 6.2776 28.0261 6.27447 28.0456 6.26556C28.065 6.25666 28.0816 6.24236 28.0932 6.22436C28.1047 6.20636 28.1109 6.18541 28.111 6.164C28.111 6.103 28.061 6.054 28 6.053H27.982ZM24.219 6.348C24.0056 6.34266 23.7933 6.38009 23.5945 6.45807C23.3958 6.53606 23.2147 6.65302 23.0619 6.80208C22.909 6.95113 22.7876 7.12926 22.7047 7.32598C22.6217 7.5227 22.579 7.73402 22.579 7.9475C22.579 8.16098 22.6217 8.3723 22.7047 8.56902C22.7876 8.76574 22.909 8.94387 23.0619 9.09292C23.2147 9.24198 23.3958 9.35894 23.5945 9.43693C23.7933 9.51491 24.0056 9.55234 24.219 9.547C24.6433 9.547 25.0503 9.37843 25.3504 9.07837C25.6504 8.77831 25.819 8.37135 25.819 7.947C25.819 7.52265 25.6504 7.11569 25.3504 6.81563C25.0503 6.51557 24.6433 6.347 24.219 6.347V6.348ZM20.002 6.613C19.9863 6.61152 19.9705 6.61333 19.9556 6.61831C19.9407 6.62329 19.927 6.63134 19.9153 6.64193C19.9037 6.65252 19.8944 6.66542 19.888 6.67981C19.8817 6.6942 19.8784 6.70977 19.8784 6.7255C19.8784 6.74123 19.8817 6.7568 19.888 6.77119C19.8944 6.78558 19.9037 6.79848 19.9153 6.80907C19.927 6.81966 19.9407 6.82771 19.9556 6.83269C19.9705 6.83767 19.9863 6.83948 20.002 6.838C20.0318 6.838 20.0605 6.82615 20.0815 6.80505C20.1026 6.78395 20.1145 6.75534 20.1145 6.7255C20.1145 6.69566 20.1026 6.66705 20.0815 6.64595C20.0605 6.62485 20.0318 6.613 20.002 6.613ZM28.002 6.613C27.9863 6.61152 27.9705 6.61333 27.9556 6.61831C27.9407 6.62329 27.927 6.63134 27.9153 6.64193C27.9037 6.65252 27.8944 6.66542 27.888 6.67981C27.8817 6.6942 27.8784 6.70977 27.8784 6.7255C27.8784 6.74123 27.8817 6.7568 27.888 6.77119C27.8944 6.78558 27.9037 6.79848 27.9153 6.80907C27.927 6.81966 27.9407 6.82771 27.9556 6.83269C27.9705 6.83767 27.9863 6.83948 28.002 6.838C28.0318 6.838 28.0605 6.82615 28.0815 6.80505C28.1026 6.78395 28.1145 6.75534 28.1145 6.7255C28.1145 6.69566 28.1026 6.66705 28.0815 6.64595C28.0605 6.62485 28.0318 6.613 28.002 6.613ZM19.992 7.176C19.9773 7.17692 19.9629 7.18073 19.9497 7.1872C19.9364 7.19368 19.9246 7.2027 19.9149 7.21375C19.9051 7.2248 19.8976 7.23767 19.8928 7.25161C19.8881 7.26555 19.8861 7.28029 19.887 7.295C19.8879 7.30971 19.8917 7.32409 19.8982 7.33733C19.9047 7.35056 19.9137 7.3624 19.9248 7.37215C19.9358 7.3819 19.9487 7.38937 19.9626 7.39415C19.9765 7.39893 19.9913 7.40092 20.006 7.4C20.0357 7.39814 20.0635 7.38456 20.0831 7.36225C20.1028 7.33993 20.1129 7.3107 20.111 7.281C20.1091 7.2513 20.0956 7.22355 20.0732 7.20385C20.0509 7.18416 20.0217 7.17414 19.992 7.176ZM27.992 7.176C27.9773 7.17692 27.9629 7.18073 27.9497 7.1872C27.9364 7.19368 27.9246 7.2027 27.9149 7.21375C27.9051 7.2248 27.8976 7.23767 27.8928 7.25161C27.8881 7.26555 27.8861 7.28029 27.887 7.295C27.8879 7.30971 27.8917 7.32409 27.8982 7.33733C27.9047 7.35056 27.9137 7.3624 27.9248 7.37215C27.9358 7.3819 27.9487 7.38937 27.9626 7.39415C27.9765 7.39893 27.9913 7.40092 28.006 7.4C28.0357 7.39814 28.0635 7.38456 28.0831 7.36225C28.1028 7.33993 28.1129 7.3107 28.111 7.281C28.1091 7.2513 28.0956 7.22355 28.0732 7.20385C28.0509 7.18416 28.0217 7.17414 27.992 7.176ZM19.992 7.736C19.9773 7.73692 19.9629 7.74073 19.9497 7.7472C19.9364 7.75368 19.9246 7.7627 19.9149 7.77375C19.9051 7.7848 19.8976 7.79767 19.8928 7.81161C19.8881 7.82555 19.8861 7.84029 19.887 7.855C19.8879 7.86971 19.8917 7.88409 19.8982 7.89733C19.9047 7.91056 19.9137 7.9224 19.9248 7.93215C19.9358 7.9419 19.9487 7.94937 19.9626 7.95415C19.9765 7.95893 19.9913 7.96092 20.006 7.96C20.0357 7.95814 20.0635 7.94456 20.0831 7.92225C20.1028 7.89993 20.1129 7.8707 20.111 7.841C20.1091 7.8113 20.0956 7.78355 20.0732 7.76385C20.0509 7.74416 20.0217 7.73414 19.992 7.736ZM27.992 7.736C27.9773 7.73692 27.9629 7.74073 27.9497 7.7472C27.9364 7.75368 27.9246 7.7627 27.9149 7.77375C27.9051 7.7848 27.8976 7.79767 27.8928 7.81161C27.8881 7.82555 27.8861 7.84029 27.887 7.855C27.8879 7.86971 27.8917 7.88409 27.8982 7.89733C27.9047 7.91056 27.9137 7.9224 27.9248 7.93215C27.9358 7.9419 27.9487 7.94937 27.9626 7.95415C27.9765 7.95893 27.9913 7.96092 28.006 7.96C28.0357 7.95814 28.0635 7.94456 28.0831 7.92225C28.1028 7.89993 28.1129 7.8707 28.111 7.841C28.1091 7.8113 28.0956 7.78355 28.0732 7.76385C28.0509 7.74416 28.0217 7.73414 27.992 7.736ZM19.992 8.299C19.9773 8.29992 19.9629 8.30373 19.9497 8.3102C19.9364 8.31668 19.9246 8.3257 19.9149 8.33675C19.9051 8.3478 19.8976 8.36067 19.8928 8.37461C19.8881 8.38855 19.8861 8.40329 19.887 8.418C19.8879 8.43271 19.8917 8.44709 19.8982 8.46033C19.9047 8.47357 19.9137 8.4854 19.9248 8.49515C19.9358 8.5049 19.9487 8.51237 19.9626 8.51715C19.9765 8.52193 19.9913 8.52392 20.006 8.523C20.0357 8.52114 20.0635 8.50756 20.0831 8.48525C20.1028 8.46293 20.1129 8.4337 20.111 8.404C20.1091 8.3743 20.0956 8.34655 20.0732 8.32685C20.0509 8.30716 20.0217 8.29714 19.992 8.299ZM27.992 8.299C27.9773 8.29992 27.9629 8.30373 27.9497 8.3102C27.9364 8.31668 27.9246 8.3257 27.9149 8.33675C27.9051 8.3478 27.8976 8.36067 27.8928 8.37461C27.8881 8.38855 27.8861 8.40329 27.887 8.418C27.8879 8.43271 27.8917 8.44709 27.8982 8.46033C27.9047 8.47357 27.9137 8.4854 27.9248 8.49515C27.9358 8.5049 27.9487 8.51237 27.9626 8.51715C27.9765 8.52193 27.9913 8.52392 28.006 8.523C28.0357 8.52114 28.0635 8.50756 28.0831 8.48525C28.1028 8.46293 28.1129 8.4337 28.111 8.404C28.1091 8.3743 28.0956 8.34655 28.0732 8.32685C28.0509 8.30716 28.0217 8.29714 27.992 8.299ZM19.992 8.861C19.9765 8.86087 19.9611 8.86393 19.9468 8.87C19.9326 8.87606 19.9197 8.885 19.909 8.89626C19.8983 8.90752 19.8901 8.92085 19.8848 8.93544C19.8795 8.95002 19.8773 8.96553 19.8782 8.98101C19.8792 8.9965 19.8834 9.01161 19.8904 9.02543C19.8975 9.03924 19.9073 9.05145 19.9193 9.0613C19.9313 9.07115 19.9452 9.07842 19.9601 9.08267C19.975 9.08692 19.9906 9.08806 20.006 9.086C20.0343 9.08221 20.0602 9.06783 20.0783 9.04574C20.0965 9.02365 20.1056 8.99551 20.1038 8.96698C20.102 8.93845 20.0895 8.91165 20.0688 8.89198C20.048 8.87232 20.0206 8.86125 19.992 8.861ZM27.992 8.861C27.9765 8.86087 27.9611 8.86393 27.9468 8.87C27.9326 8.87606 27.9197 8.885 27.909 8.89626C27.8983 8.90752 27.8901 8.92085 27.8848 8.93544C27.8795 8.95002 27.8773 8.96553 27.8782 8.98101C27.8792 8.9965 27.8834 9.01161 27.8904 9.02543C27.8975 9.03924 27.9073 9.05145 27.9193 9.0613C27.9313 9.07115 27.9452 9.07842 27.9601 9.08267C27.975 9.08692 27.9906 9.08806 28.006 9.086C28.0343 9.08221 28.0602 9.06783 28.0783 9.04574C28.0965 9.02365 28.1056 8.99551 28.1038 8.96698C28.102 8.93845 28.0895 8.91165 28.0688 8.89198C28.048 8.87232 28.0206 8.86125 27.992 8.861ZM19.992 9.424C19.9773 9.42492 19.9629 9.42873 19.9497 9.4352C19.9364 9.44168 19.9246 9.4507 19.9149 9.46175C19.9051 9.4728 19.8976 9.48567 19.8928 9.49961C19.8881 9.51355 19.8861 9.52829 19.887 9.543C19.8879 9.55771 19.8917 9.57209 19.8982 9.58533C19.9047 9.59857 19.9137 9.6104 19.9248 9.62015C19.9358 9.6299 19.9487 9.63737 19.9626 9.64215C19.9765 9.64693 19.9913 9.64892 20.006 9.648C20.0357 9.64614 20.0635 9.63256 20.0831 9.61025C20.1028 9.58793 20.1129 9.5587 20.111 9.529C20.1091 9.4993 20.0956 9.47155 20.0732 9.45185C20.0509 9.43216 20.0217 9.42214 19.992 9.424ZM27.992 9.424C27.9773 9.42492 27.9629 9.42873 27.9497 9.4352C27.9364 9.44168 27.9246 9.4507 27.9149 9.46175C27.9051 9.4728 27.8976 9.48567 27.8928 9.49961C27.8881 9.51355 27.8861 9.52829 27.887 9.543C27.8879 9.55771 27.8917 9.57209 27.8982 9.58533C27.9047 9.59857 27.9137 9.6104 27.9248 9.62015C27.9358 9.6299 27.9487 9.63737 27.9626 9.64215C27.9765 9.64693 27.9913 9.64892 28.006 9.648C28.0357 9.64614 28.0635 9.63256 28.0831 9.61025C28.1028 9.58793 28.1129 9.5587 28.111 9.529C28.1091 9.4993 28.0956 9.47155 28.0732 9.45185C28.0509 9.43216 28.0217 9.42214 27.992 9.424ZM19.98 9.986C19.9534 9.99077 19.9295 10.0049 19.9124 10.0258C19.8953 10.0467 19.8863 10.073 19.887 10.1C19.8849 10.116 19.8862 10.1322 19.8908 10.1476C19.8955 10.163 19.9034 10.1773 19.914 10.1894C19.9246 10.2015 19.9376 10.2112 19.9523 10.2179C19.967 10.2246 19.9829 10.228 19.999 10.228C20.0151 10.228 20.031 10.2246 20.0457 10.2179C20.0604 10.2112 20.0734 10.2015 20.084 10.1894C20.0946 10.1773 20.1025 10.163 20.1072 10.1476C20.1118 10.1322 20.1131 10.116 20.111 10.1C20.111 10.0703 20.0994 10.0417 20.0787 10.0204C20.0579 9.99914 20.0297 9.98678 20 9.986H19.98ZM27.98 9.986C27.9534 9.99077 27.9295 10.0049 27.9124 10.0258C27.8953 10.0467 27.8863 10.073 27.887 10.1C27.8849 10.116 27.8862 10.1322 27.8908 10.1476C27.8955 10.163 27.9034 10.1773 27.914 10.1894C27.9246 10.2015 27.9376 10.2112 27.9523 10.2179C27.967 10.2246 27.9829 10.228 27.999 10.228C28.0151 10.228 28.031 10.2246 28.0457 10.2179C28.0604 10.2112 28.0734 10.2015 28.084 10.1894C28.0946 10.1773 28.1025 10.163 28.1072 10.1476C28.1118 10.1322 28.1131 10.116 28.111 10.1C28.111 10.0703 28.0994 10.0417 28.0787 10.0204C28.0579 9.99914 28.0297 9.98678 28 9.986H27.98ZM20.002 10.546C19.9869 10.5461 19.9721 10.5492 19.9582 10.5552C19.9444 10.5611 19.9318 10.5697 19.9213 10.5804C19.9108 10.5912 19.9026 10.604 19.897 10.618C19.8915 10.632 19.8887 10.6469 19.889 10.662C19.889 10.724 19.939 10.772 20.002 10.772C20.0165 10.7721 20.0309 10.7694 20.0444 10.7639C20.0579 10.7584 20.0701 10.7504 20.0804 10.7401C20.0907 10.7299 20.0989 10.7177 20.1045 10.7043C20.1101 10.6909 20.113 10.6765 20.113 10.662C20.1133 10.6321 20.1018 10.6033 20.081 10.5818C20.0603 10.5603 20.0319 10.5478 20.002 10.547V10.546ZM28.002 10.546C27.9869 10.5461 27.9721 10.5492 27.9582 10.5552C27.9444 10.5611 27.9318 10.5697 27.9213 10.5804C27.9108 10.5912 27.9026 10.604 27.897 10.618C27.8915 10.632 27.8887 10.6469 27.889 10.662C27.889 10.724 27.939 10.772 28.002 10.772C28.0165 10.7721 28.0309 10.7694 28.0444 10.7639C28.0579 10.7584 28.0701 10.7504 28.0804 10.7401C28.0907 10.7299 28.0989 10.7177 28.1045 10.7043C28.1101 10.6909 28.113 10.6765 28.113 10.662C28.1133 10.6321 28.1018 10.6033 28.081 10.5818C28.0603 10.5603 28.0319 10.5478 28.002 10.547V10.546ZM20.002 11.109C19.9863 11.1075 19.9705 11.1093 19.9556 11.1143C19.9407 11.1193 19.927 11.1273 19.9153 11.1379C19.9037 11.1485 19.8944 11.1614 19.888 11.1758C19.8817 11.1902 19.8784 11.2058 19.8784 11.2215C19.8784 11.2372 19.8817 11.2528 19.888 11.2672C19.8944 11.2816 19.9037 11.2945 19.9153 11.3051C19.927 11.3157 19.9407 11.3237 19.9556 11.3287C19.9705 11.3337 19.9863 11.3355 20.002 11.334C20.0318 11.334 20.0605 11.3221 20.0815 11.301C20.1026 11.28 20.1145 11.2513 20.1145 11.2215C20.1145 11.1917 20.1026 11.163 20.0815 11.142C20.0605 11.1209 20.0318 11.109 20.002 11.109ZM28.002 11.109C27.9863 11.1075 27.9705 11.1093 27.9556 11.1143C27.9407 11.1193 27.927 11.1273 27.9153 11.1379C27.9037 11.1485 27.8944 11.1614 27.888 11.1758C27.8817 11.1902 27.8784 11.2058 27.8784 11.2215C27.8784 11.2372 27.8817 11.2528 27.888 11.2672C27.8944 11.2816 27.9037 11.2945 27.9153 11.3051C27.927 11.3157 27.9407 11.3237 27.9556 11.3287C27.9705 11.3337 27.9863 11.3355 28.002 11.334C28.0318 11.334 28.0605 11.3221 28.0815 11.301C28.1026 11.28 28.1145 11.2513 28.1145 11.2215C28.1145 11.1917 28.1026 11.163 28.0815 11.142C28.0605 11.1209 28.0318 11.109 28.002 11.109ZM16.75 11.519C16.3257 11.519 15.9187 11.6876 15.6186 11.9876C15.3186 12.2877 15.15 12.6947 15.15 13.119C15.15 13.5433 15.3186 13.9503 15.6186 14.2504C15.9187 14.5504 16.3257 14.719 16.75 14.719C17.1743 14.719 17.5813 14.5504 17.8814 14.2504C18.1814 13.9503 18.35 13.5433 18.35 13.119C18.35 12.6947 18.1814 12.2877 17.8814 11.9876C17.5813 11.6876 17.1743 11.519 16.75 11.519ZM24.219 11.519C23.7947 11.519 23.3877 11.6876 23.0876 11.9876C22.7876 12.2877 22.619 12.6947 22.619 13.119C22.619 13.5433 22.7876 13.9503 23.0876 14.2504C23.3877 14.5504 23.7947 14.719 24.219 14.719C24.6433 14.719 25.0503 14.5504 25.3504 14.2504C25.6504 13.9503 25.819 13.5433 25.819 13.119C25.819 12.6947 25.6504 12.2877 25.3504 11.9876C25.0503 11.6876 24.6433 11.519 24.219 11.519ZM31.598 11.519C31.1737 11.519 30.7667 11.6876 30.4666 11.9876C30.1666 12.2877 29.998 12.6947 29.998 13.119C29.998 13.5433 30.1666 13.9503 30.4666 14.2504C30.7667 14.5504 31.1737 14.719 31.598 14.719C32.0223 14.719 32.4293 14.5504 32.7294 14.2504C33.0294 13.9503 33.198 13.5433 33.198 13.119C33.198 12.6947 33.0294 12.2877 32.7294 11.9876C32.4293 11.6876 32.0223 11.519 31.598 11.519ZM19.992 11.672C19.9646 11.6765 19.9399 11.6908 19.9223 11.7123C19.9048 11.7337 19.8956 11.7608 19.8966 11.7885C19.8976 11.8162 19.9086 11.8426 19.9276 11.8628C19.9467 11.8829 19.9724 11.8954 20 11.898C20.061 11.898 20.11 11.846 20.111 11.785C20.1112 11.7696 20.1082 11.7543 20.1022 11.7401C20.0962 11.726 20.0873 11.7132 20.0761 11.7026C20.065 11.692 20.0517 11.6838 20.0373 11.6785C20.0228 11.6733 20.0074 11.671 19.992 11.672ZM27.992 11.672C27.9646 11.6765 27.9399 11.6908 27.9223 11.7123C27.9048 11.7337 27.8956 11.7608 27.8966 11.7885C27.8976 11.8162 27.9086 11.8426 27.9276 11.8628C27.9467 11.8829 27.9724 11.8954 28 11.898C28.061 11.898 28.11 11.846 28.111 11.785C28.1112 11.7696 28.1082 11.7543 28.1022 11.7401C28.0962 11.726 28.0873 11.7132 28.0761 11.7026C28.065 11.692 28.0517 11.6838 28.0373 11.6785C28.0228 11.6733 28.0074 11.671 27.992 11.672ZM19.992 12.234C19.9646 12.2385 19.9399 12.2528 19.9223 12.2743C19.9048 12.2957 19.8956 12.3228 19.8966 12.3505C19.8976 12.3782 19.9086 12.4046 19.9276 12.4248C19.9467 12.4449 19.9724 12.4574 20 12.46C20.061 12.46 20.11 12.409 20.111 12.348C20.1113 12.3325 20.1084 12.3171 20.1025 12.3028C20.0965 12.2885 20.0877 12.2756 20.0765 12.2649C20.0653 12.2542 20.052 12.2459 20.0375 12.2406C20.0229 12.2353 20.0075 12.233 19.992 12.234ZM27.992 12.234C27.9646 12.2385 27.9399 12.2528 27.9223 12.2743C27.9048 12.2957 27.8956 12.3228 27.8966 12.3505C27.8976 12.3782 27.9086 12.4046 27.9276 12.4248C27.9467 12.4449 27.9724 12.4574 28 12.46C28.061 12.46 28.11 12.409 28.111 12.348C28.1113 12.3325 28.1084 12.3171 28.1025 12.3028C28.0965 12.2885 28.0877 12.2756 28.0765 12.2649C28.0653 12.2542 28.052 12.2459 28.0375 12.2406C28.0229 12.2353 28.0075 12.233 27.992 12.234ZM19.992 12.797C19.9773 12.7979 19.9629 12.8017 19.9497 12.8082C19.9364 12.8147 19.9246 12.8237 19.9149 12.8348C19.9051 12.8458 19.8976 12.8587 19.8928 12.8726C19.8881 12.8865 19.8861 12.9013 19.887 12.916C19.8879 12.9307 19.8917 12.9451 19.8982 12.9583C19.9047 12.9716 19.9137 12.9834 19.9248 12.9931C19.9358 13.0029 19.9487 13.0104 19.9626 13.0152C19.9765 13.0199 19.9913 13.0219 20.006 13.021C20.0357 13.0191 20.0635 13.0056 20.0831 12.9832C20.1028 12.9609 20.1129 12.9317 20.111 12.902C20.1091 12.8723 20.0956 12.8445 20.0732 12.8249C20.0509 12.8052 20.0217 12.7951 19.992 12.797ZM27.992 12.797C27.9773 12.7979 27.9629 12.8017 27.9497 12.8082C27.9364 12.8147 27.9246 12.8237 27.9149 12.8348C27.9051 12.8458 27.8976 12.8587 27.8928 12.8726C27.8881 12.8865 27.8861 12.9013 27.887 12.916C27.8879 12.9307 27.8917 12.9451 27.8982 12.9583C27.9047 12.9716 27.9137 12.9834 27.9248 12.9931C27.9358 13.0029 27.9487 13.0104 27.9626 13.0152C27.9765 13.0199 27.9913 13.0219 28.006 13.021C28.0357 13.0191 28.0635 13.0056 28.0831 12.9832C28.1028 12.9609 28.1129 12.9317 28.111 12.902C28.1091 12.8723 28.0956 12.8445 28.0732 12.8249C28.0509 12.8052 28.0217 12.7951 27.992 12.797ZM19.992 13.359C19.9772 13.3599 19.9628 13.3637 19.9495 13.3702C19.9362 13.3767 19.9243 13.3858 19.9145 13.3969C19.9047 13.408 19.8972 13.4209 19.8924 13.4349C19.8876 13.4489 19.8856 13.4637 19.8865 13.4785C19.8874 13.4933 19.8912 13.5077 19.8977 13.521C19.9042 13.5343 19.9133 13.5462 19.9244 13.556C19.9355 13.5658 19.9484 13.5733 19.9624 13.5781C19.9764 13.5829 19.9912 13.5849 20.006 13.584C20.0358 13.5821 20.0637 13.5685 20.0835 13.5461C20.1033 13.5237 20.1134 13.4943 20.1115 13.4645C20.1096 13.4347 20.096 13.4068 20.0736 13.387C20.0512 13.3672 20.0218 13.3571 19.992 13.359ZM27.992 13.359C27.9772 13.3599 27.9628 13.3637 27.9495 13.3702C27.9362 13.3767 27.9243 13.3858 27.9145 13.3969C27.9047 13.408 27.8972 13.4209 27.8924 13.4349C27.8876 13.4489 27.8856 13.4637 27.8865 13.4785C27.8874 13.4933 27.8912 13.5077 27.8977 13.521C27.9042 13.5343 27.9133 13.5462 27.9244 13.556C27.9355 13.5658 27.9484 13.5733 27.9624 13.5781C27.9764 13.5829 27.9912 13.5849 28.006 13.584C28.0358 13.5821 28.0637 13.5685 28.0835 13.5461C28.1033 13.5237 28.1134 13.4943 28.1115 13.4645C28.1096 13.4347 28.096 13.4068 28.0736 13.387C28.0512 13.3672 28.0218 13.3571 27.992 13.359ZM19.992 13.922C19.9773 13.9229 19.9629 13.9267 19.9497 13.9332C19.9364 13.9397 19.9246 13.9487 19.9149 13.9598C19.9051 13.9708 19.8976 13.9837 19.8928 13.9976C19.8881 14.0115 19.8861 14.0263 19.887 14.041C19.8879 14.0557 19.8917 14.0701 19.8982 14.0833C19.9047 14.0966 19.9137 14.1084 19.9248 14.1181C19.9358 14.1279 19.9487 14.1354 19.9626 14.1402C19.9765 14.1449 19.9913 14.1469 20.006 14.146C20.0357 14.1441 20.0635 14.1306 20.0831 14.1082C20.1028 14.0859 20.1129 14.0567 20.111 14.027C20.1091 13.9973 20.0956 13.9695 20.0732 13.9499C20.0509 13.9302 20.0217 13.9201 19.992 13.922ZM27.992 13.922C27.9773 13.9229 27.9629 13.9267 27.9497 13.9332C27.9364 13.9397 27.9246 13.9487 27.9149 13.9598C27.9051 13.9708 27.8976 13.9837 27.8928 13.9976C27.8881 14.0115 27.8861 14.0263 27.887 14.041C27.8879 14.0557 27.8917 14.0701 27.8982 14.0833C27.9047 14.0966 27.9137 14.1084 27.9248 14.1181C27.9358 14.1279 27.9487 14.1354 27.9626 14.1402C27.9765 14.1449 27.9913 14.1469 28.006 14.146C28.0357 14.1441 28.0635 14.1306 28.0831 14.1082C28.1028 14.0859 28.1129 14.0567 28.111 14.027C28.1091 13.9973 28.0956 13.9695 28.0732 13.9499C28.0509 13.9302 28.0217 13.9201 27.992 13.922ZM19.98 14.484C19.9536 14.4883 19.9297 14.502 19.9126 14.5226C19.8955 14.5432 19.8864 14.5693 19.887 14.596C19.887 14.619 19.8941 14.6415 19.9072 14.6604C19.9204 14.6793 19.939 14.6937 19.9606 14.7018C19.9822 14.7098 20.0057 14.711 20.028 14.7053C20.0503 14.6996 20.0703 14.6872 20.0854 14.6698C20.1005 14.6524 20.1099 14.6308 20.1124 14.6079C20.1148 14.585 20.1102 14.5619 20.0992 14.5417C20.0882 14.5215 20.0712 14.5052 20.0506 14.4948C20.03 14.4845 20.0068 14.4807 19.984 14.484H19.98ZM27.98 14.484C27.9536 14.4883 27.9297 14.502 27.9126 14.5226C27.8955 14.5432 27.8864 14.5693 27.887 14.596C27.887 14.619 27.8941 14.6415 27.9072 14.6604C27.9204 14.6793 27.939 14.6937 27.9606 14.7018C27.9822 14.7098 28.0057 14.711 28.028 14.7053C28.0503 14.6996 28.0703 14.6872 28.0854 14.6698C28.1005 14.6524 28.1099 14.6308 28.1124 14.6079C28.1148 14.585 28.1102 14.5619 28.0992 14.5417C28.0882 14.5215 28.0712 14.5052 28.0506 14.4948C28.03 14.4845 28.0068 14.4807 27.984 14.484H27.98ZM19.98 15.047C19.9589 15.0504 19.9393 15.0598 19.9233 15.0741C19.9074 15.0883 19.8959 15.1068 19.8901 15.1274C19.8844 15.148 19.8846 15.1697 19.8909 15.1902C19.8971 15.2106 19.909 15.2288 19.9253 15.2427C19.9415 15.2566 19.9614 15.2655 19.9826 15.2685C20.0037 15.2714 20.0253 15.2683 20.0447 15.2593C20.0641 15.2504 20.0806 15.2362 20.0921 15.2182C20.1037 15.2003 20.1099 15.1794 20.11 15.158C20.11 15.097 20.061 15.048 20 15.047H19.98ZM27.98 15.047C27.9589 15.0504 27.9393 15.0598 27.9233 15.0741C27.9074 15.0883 27.8959 15.1068 27.8901 15.1274C27.8844 15.148 27.8846 15.1697 27.8909 15.1902C27.8971 15.2106 27.909 15.2288 27.9253 15.2427C27.9415 15.2566 27.9614 15.2655 27.9826 15.2685C28.0037 15.2714 28.0253 15.2683 28.0447 15.2593C28.0641 15.2504 28.0806 15.2362 28.0921 15.2182C28.1037 15.2003 28.1099 15.1794 28.11 15.158C28.11 15.097 28.061 15.048 28 15.047H27.98ZM20.002 15.607C19.9863 15.6055 19.9705 15.6073 19.9556 15.6123C19.9407 15.6173 19.927 15.6253 19.9153 15.6359C19.9037 15.6465 19.8944 15.6594 19.888 15.6738C19.8817 15.6882 19.8784 15.7038 19.8784 15.7195C19.8784 15.7352 19.8817 15.7508 19.888 15.7652C19.8944 15.7796 19.9037 15.7925 19.9153 15.8031C19.927 15.8137 19.9407 15.8217 19.9556 15.8267C19.9705 15.8317 19.9863 15.8335 20.002 15.832C20.0318 15.832 20.0605 15.8201 20.0815 15.799C20.1026 15.778 20.1145 15.7493 20.1145 15.7195C20.1145 15.6897 20.1026 15.661 20.0815 15.64C20.0605 15.6189 20.0318 15.607 20.002 15.607ZM28.002 15.607C27.9863 15.6055 27.9705 15.6073 27.9556 15.6123C27.9407 15.6173 27.927 15.6253 27.9153 15.6359C27.9037 15.6465 27.8944 15.6594 27.888 15.6738C27.8817 15.6882 27.8784 15.7038 27.8784 15.7195C27.8784 15.7352 27.8817 15.7508 27.888 15.7652C27.8944 15.7796 27.9037 15.7925 27.9153 15.8031C27.927 15.8137 27.9407 15.8217 27.9556 15.8267C27.9705 15.8317 27.9863 15.8335 28.002 15.832C28.0318 15.832 28.0605 15.8201 28.0815 15.799C28.1026 15.778 28.1145 15.7493 28.1145 15.7195C28.1145 15.6897 28.1026 15.661 28.0815 15.64C28.0605 15.6189 28.0318 15.607 28.002 15.607ZM19.992 16.17C19.9634 16.1718 19.9365 16.1845 19.9169 16.2055C19.8974 16.2266 19.8867 16.2543 19.887 16.283C19.887 16.345 19.937 16.396 20 16.394C20.016 16.3955 20.0321 16.3935 20.0473 16.3883C20.0625 16.3831 20.0764 16.3747 20.088 16.3636C20.0997 16.3526 20.1089 16.3392 20.115 16.3243C20.1211 16.3095 20.1239 16.2935 20.1234 16.2775C20.1228 16.2614 20.1188 16.2457 20.1117 16.2313C20.1045 16.2169 20.0944 16.2042 20.082 16.194C20.0696 16.1838 20.0551 16.1764 20.0396 16.1723C20.0241 16.1682 20.0078 16.1674 19.992 16.17ZM27.992 16.17C27.9634 16.1718 27.9365 16.1845 27.9169 16.2055C27.8974 16.2266 27.8867 16.2543 27.887 16.283C27.887 16.345 27.937 16.396 28 16.394C28.016 16.3955 28.0321 16.3935 28.0473 16.3883C28.0625 16.3831 28.0764 16.3747 28.088 16.3636C28.0997 16.3526 28.1089 16.3392 28.115 16.3243C28.1211 16.3095 28.1239 16.2935 28.1234 16.2775C28.1228 16.2614 28.1188 16.2457 28.1117 16.2313C28.1045 16.2169 28.0944 16.2042 28.082 16.194C28.0696 16.1838 28.0551 16.1764 28.0396 16.1723C28.0241 16.1682 28.0078 16.1674 27.992 16.17ZM19.992 16.732C19.9773 16.7329 19.9629 16.7367 19.9497 16.7432C19.9364 16.7497 19.9246 16.7587 19.9149 16.7698C19.9051 16.7808 19.8976 16.7937 19.8928 16.8076C19.8881 16.8215 19.8861 16.8363 19.887 16.851C19.8879 16.8657 19.8917 16.8801 19.8982 16.8933C19.9047 16.9066 19.9137 16.9184 19.9248 16.9281C19.9358 16.9379 19.9487 16.9454 19.9626 16.9502C19.9765 16.9549 19.9913 16.9569 20.006 16.956C20.0357 16.9541 20.0635 16.9406 20.0831 16.9182C20.1028 16.8959 20.1129 16.8667 20.111 16.837C20.1091 16.8073 20.0956 16.7795 20.0732 16.7599C20.0509 16.7402 20.0217 16.7301 19.992 16.732ZM27.992 16.732C27.9773 16.7329 27.9629 16.7367 27.9497 16.7432C27.9364 16.7497 27.9246 16.7587 27.9149 16.7698C27.9051 16.7808 27.8976 16.7937 27.8928 16.8076C27.8881 16.8215 27.8861 16.8363 27.887 16.851C27.8879 16.8657 27.8917 16.8801 27.8982 16.8933C27.9047 16.9066 27.9137 16.9184 27.9248 16.9281C27.9358 16.9379 27.9487 16.9454 27.9626 16.9502C27.9765 16.9549 27.9913 16.9569 28.006 16.956C28.0357 16.9541 28.0635 16.9406 28.0831 16.9182C28.1028 16.8959 28.1129 16.8667 28.111 16.837C28.1091 16.8073 28.0956 16.7795 28.0732 16.7599C28.0509 16.7402 28.0217 16.7301 27.992 16.732ZM16.75 16.756C16.5366 16.7507 16.3243 16.7881 16.1255 16.8661C15.9268 16.9441 15.7457 17.061 15.5929 17.2101C15.44 17.3591 15.3186 17.5373 15.2357 17.734C15.1527 17.9307 15.11 18.142 15.11 18.3555C15.11 18.569 15.1527 18.7803 15.2357 18.977C15.3186 19.1737 15.44 19.3519 15.5929 19.5009C15.7457 19.65 15.9268 19.7669 16.1255 19.8449C16.3243 19.9229 16.5366 19.9603 16.75 19.955C17.1743 19.955 17.5813 19.7864 17.8814 19.4864C18.1814 19.1863 18.35 18.7793 18.35 18.355C18.35 17.9307 18.1814 17.5237 17.8814 17.2236C17.5813 16.9236 17.1743 16.755 16.75 16.755V16.756ZM24.219 16.756C24.0056 16.7507 23.7933 16.7881 23.5945 16.8661C23.3958 16.9441 23.2147 17.061 23.0619 17.2101C22.909 17.3591 22.7876 17.5373 22.7047 17.734C22.6217 17.9307 22.579 18.142 22.579 18.3555C22.579 18.569 22.6217 18.7803 22.7047 18.977C22.7876 19.1737 22.909 19.3519 23.0619 19.5009C23.2147 19.65 23.3958 19.7669 23.5945 19.8449C23.7933 19.9229 24.0056 19.9603 24.219 19.955C24.6433 19.955 25.0503 19.7864 25.3504 19.4864C25.6504 19.1863 25.819 18.7793 25.819 18.355C25.819 17.9307 25.6504 17.5237 25.3504 17.2236C25.0503 16.9236 24.6433 16.755 24.219 16.755V16.756ZM31.598 16.756C31.3846 16.7507 31.1723 16.7881 30.9735 16.8661C30.7748 16.9441 30.5937 17.061 30.4409 17.2101C30.288 17.3591 30.1666 17.5373 30.0837 17.734C30.0007 17.9307 29.958 18.142 29.958 18.3555C29.958 18.569 30.0007 18.7803 30.0837 18.977C30.1666 19.1737 30.288 19.3519 30.4409 19.5009C30.5937 19.65 30.7748 19.7669 30.9735 19.8449C31.1723 19.9229 31.3846 19.9603 31.598 19.955C32.0223 19.955 32.4293 19.7864 32.7294 19.4864C33.0294 19.1863 33.198 18.7793 33.198 18.355C33.198 17.9307 33.0294 17.5237 32.7294 17.2236C32.4293 16.9236 32.0223 16.755 31.598 16.755V16.756ZM19.992 17.296C19.9772 17.2969 19.9628 17.3007 19.9495 17.3072C19.9362 17.3137 19.9243 17.3228 19.9145 17.3339C19.9047 17.345 19.8972 17.3579 19.8924 17.3719C19.8876 17.3859 19.8856 17.4007 19.8865 17.4155C19.8874 17.4303 19.8912 17.4447 19.8977 17.458C19.9042 17.4713 19.9133 17.4832 19.9244 17.493C19.9355 17.5028 19.9484 17.5103 19.9624 17.5151C19.9764 17.5199 19.9912 17.5219 20.006 17.521C20.0357 17.5191 20.0635 17.5056 20.0831 17.4832C20.1028 17.4609 20.1129 17.4317 20.111 17.402C20.1091 17.3723 20.0956 17.3445 20.0732 17.3249C20.0509 17.3052 20.0217 17.2951 19.992 17.297V17.296ZM27.992 17.296C27.9772 17.2969 27.9628 17.3007 27.9495 17.3072C27.9362 17.3137 27.9243 17.3228 27.9145 17.3339C27.9047 17.345 27.8972 17.3579 27.8924 17.3719C27.8876 17.3859 27.8856 17.4007 27.8865 17.4155C27.8874 17.4303 27.8912 17.4447 27.8977 17.458C27.9042 17.4713 27.9133 17.4832 27.9244 17.493C27.9355 17.5028 27.9484 17.5103 27.9624 17.5151C27.9764 17.5199 27.9912 17.5219 28.006 17.521C28.0357 17.5191 28.0635 17.5056 28.0831 17.4832C28.1028 17.4609 28.1129 17.4317 28.111 17.402C28.1091 17.3723 28.0956 17.3445 28.0732 17.3249C28.0509 17.3052 28.0217 17.2951 27.992 17.297V17.296ZM19.992 17.859C19.9772 17.8599 19.9628 17.8637 19.9495 17.8702C19.9362 17.8767 19.9243 17.8858 19.9145 17.8969C19.9047 17.908 19.8972 17.9209 19.8924 17.9349C19.8876 17.9489 19.8856 17.9637 19.8865 17.9785C19.8874 17.9933 19.8912 18.0077 19.8977 18.021C19.9042 18.0343 19.9133 18.0462 19.9244 18.056C19.9355 18.0658 19.9484 18.0733 19.9624 18.0781C19.9764 18.0829 19.9912 18.0849 20.006 18.084C20.0358 18.0821 20.0637 18.0685 20.0835 18.0461C20.1033 18.0237 20.1134 17.9943 20.1115 17.9645C20.1096 17.9347 20.096 17.9068 20.0736 17.887C20.0512 17.8672 20.0218 17.8571 19.992 17.859ZM27.992 17.859C27.9772 17.8599 27.9628 17.8637 27.9495 17.8702C27.9362 17.8767 27.9243 17.8858 27.9145 17.8969C27.9047 17.908 27.8972 17.9209 27.8924 17.9349C27.8876 17.9489 27.8856 17.9637 27.8865 17.9785C27.8874 17.9933 27.8912 18.0077 27.8977 18.021C27.9042 18.0343 27.9133 18.0462 27.9244 18.056C27.9355 18.0658 27.9484 18.0733 27.9624 18.0781C27.9764 18.0829 27.9912 18.0849 28.006 18.084C28.0358 18.0821 28.0637 18.0685 28.0835 18.0461C28.1033 18.0237 28.1134 17.9943 28.1115 17.9645C28.1096 17.9347 28.096 17.9068 28.0736 17.887C28.0512 17.8672 28.0218 17.8571 27.992 17.859ZM19.992 18.422C19.9624 18.423 19.9344 18.4357 19.914 18.4572C19.8936 18.4787 19.8825 18.5073 19.883 18.5369C19.8835 18.5665 19.8957 18.5948 19.9168 18.6155C19.9379 18.6363 19.9664 18.6479 19.996 18.6479C20.0256 18.6479 20.0541 18.6363 20.0752 18.6155C20.0963 18.5948 20.1085 18.5665 20.109 18.5369C20.1095 18.5073 20.0984 18.4787 20.078 18.4572C20.0576 18.4357 20.0296 18.423 20 18.422C19.9973 18.4219 19.9947 18.4219 19.992 18.422ZM27.992 18.422C27.9624 18.423 27.9344 18.4357 27.914 18.4572C27.8936 18.4787 27.8825 18.5073 27.883 18.5369C27.8835 18.5665 27.8957 18.5948 27.9168 18.6155C27.9379 18.6363 27.9664 18.6479 27.996 18.6479C28.0256 18.6479 28.0541 18.6363 28.0752 18.6155C28.0963 18.5948 28.1085 18.5665 28.109 18.5369C28.1095 18.5073 28.0984 18.4787 28.078 18.4572C28.0576 18.4357 28.0296 18.423 28 18.422C27.9973 18.4219 27.9947 18.4219 27.992 18.422ZM19.98 18.984C19.9536 18.9883 19.9297 19.002 19.9126 19.0226C19.8955 19.0432 19.8864 19.0693 19.887 19.096C19.8849 19.112 19.8862 19.1282 19.8908 19.1436C19.8955 19.159 19.9034 19.1733 19.914 19.1854C19.9246 19.1975 19.9376 19.2072 19.9523 19.2139C19.967 19.2206 19.9829 19.224 19.999 19.224C20.0151 19.224 20.031 19.2206 20.0457 19.2139C20.0604 19.2072 20.0734 19.1975 20.084 19.1854C20.0946 19.1733 20.1025 19.159 20.1072 19.1436C20.1118 19.1282 20.1131 19.112 20.111 19.096C20.111 19.035 20.061 18.986 20 18.984H19.98ZM27.98 18.984C27.9536 18.9883 27.9297 19.002 27.9126 19.0226C27.8955 19.0432 27.8864 19.0693 27.887 19.096C27.8849 19.112 27.8862 19.1282 27.8908 19.1436C27.8955 19.159 27.9034 19.1733 27.914 19.1854C27.9246 19.1975 27.9376 19.2072 27.9523 19.2139C27.967 19.2206 27.9829 19.224 27.999 19.224C28.0151 19.224 28.031 19.2206 28.0457 19.2139C28.0604 19.2072 28.0734 19.1975 28.084 19.1854C28.0946 19.1733 28.1025 19.159 28.1072 19.1436C28.1118 19.1282 28.1131 19.112 28.111 19.096C28.111 19.035 28.061 18.986 28 18.984H27.98ZM20.002 19.544C19.972 19.544 19.9433 19.5559 19.9221 19.5771C19.9009 19.5983 19.889 19.627 19.889 19.657C19.889 19.687 19.9009 19.7157 19.9221 19.7369C19.9433 19.7581 19.972 19.77 20.002 19.77C20.063 19.769 20.112 19.72 20.113 19.658C20.1131 19.6433 20.1104 19.6287 20.1049 19.6151C20.0994 19.6014 20.0912 19.589 20.0809 19.5785C20.0706 19.568 20.0583 19.5597 20.0448 19.5539C20.0312 19.5482 20.0167 19.5451 20.002 19.545V19.544ZM28.002 19.544C27.972 19.544 27.9433 19.5559 27.9221 19.5771C27.9009 19.5983 27.889 19.627 27.889 19.657C27.889 19.687 27.9009 19.7157 27.9221 19.7369C27.9433 19.7581 27.972 19.77 28.002 19.77C28.063 19.769 28.112 19.72 28.113 19.658C28.1131 19.6433 28.1104 19.6287 28.1049 19.6151C28.0994 19.6014 28.0912 19.589 28.0809 19.5785C28.0706 19.568 28.0583 19.5597 28.0448 19.5539C28.0312 19.5482 28.0167 19.5451 28.002 19.545V19.544ZM19.992 20.107C19.9632 20.1088 19.9362 20.1217 19.9166 20.1429C19.897 20.1641 19.8864 20.1921 19.887 20.221C19.8872 20.2431 19.8939 20.2646 19.9063 20.2828C19.9187 20.3011 19.9362 20.3153 19.9566 20.3237C19.977 20.332 19.9995 20.3341 20.0211 20.3298C20.0427 20.3254 20.0626 20.3148 20.0782 20.2992C20.0938 20.2836 20.1044 20.2637 20.1088 20.2421C20.1131 20.2205 20.111 20.198 20.1027 20.1776C20.0943 20.1572 20.0801 20.1397 20.0618 20.1273C20.0436 20.1149 20.0221 20.1082 20 20.108C19.9973 20.1079 19.9947 20.1079 19.992 20.108V20.107ZM27.992 20.107C27.9632 20.1088 27.9362 20.1217 27.9166 20.1429C27.897 20.1641 27.8864 20.1921 27.887 20.221C27.8872 20.2431 27.8939 20.2646 27.9063 20.2828C27.9187 20.3011 27.9362 20.3153 27.9566 20.3237C27.977 20.332 27.9995 20.3341 28.0211 20.3298C28.0427 20.3254 28.0626 20.3148 28.0782 20.2992C28.0938 20.2836 28.1044 20.2637 28.1088 20.2421C28.1131 20.2205 28.111 20.198 28.1027 20.1776C28.0943 20.1572 28.0801 20.1397 28.0618 20.1273C28.0436 20.1149 28.0221 20.1082 28 20.108C27.9973 20.1079 27.9947 20.1079 27.992 20.108V20.107ZM19.992 20.67C19.9773 20.6709 19.9629 20.6747 19.9497 20.6812C19.9364 20.6877 19.9246 20.6967 19.9149 20.7078C19.9051 20.7188 19.8976 20.7317 19.8928 20.7456C19.8881 20.7595 19.8861 20.7743 19.887 20.789C19.8879 20.8037 19.8917 20.8181 19.8982 20.8313C19.9047 20.8446 19.9137 20.8564 19.9248 20.8661C19.9358 20.8759 19.9487 20.8834 19.9626 20.8882C19.9765 20.8929 19.9913 20.8949 20.006 20.894C20.0357 20.8921 20.0635 20.8786 20.0831 20.8562C20.1028 20.8339 20.1129 20.8047 20.111 20.775C20.1091 20.7453 20.0956 20.7175 20.0732 20.6979C20.0509 20.6782 20.0217 20.6681 19.992 20.67ZM27.992 20.67C27.9773 20.6709 27.9629 20.6747 27.9497 20.6812C27.9364 20.6877 27.9246 20.6967 27.9149 20.7078C27.9051 20.7188 27.8976 20.7317 27.8928 20.7456C27.8881 20.7595 27.8861 20.7743 27.887 20.789C27.8879 20.8037 27.8917 20.8181 27.8982 20.8313C27.9047 20.8446 27.9137 20.8564 27.9248 20.8661C27.9358 20.8759 27.9487 20.8834 27.9626 20.8882C27.9765 20.8929 27.9913 20.8949 28.006 20.894C28.0357 20.8921 28.0635 20.8786 28.0831 20.8562C28.1028 20.8339 28.1129 20.8047 28.111 20.775C28.1091 20.7453 28.0956 20.7175 28.0732 20.6979C28.0509 20.6782 28.0217 20.6681 27.992 20.67ZM19.992 21.232C19.9632 21.2338 19.9362 21.2467 19.9166 21.2679C19.897 21.2891 19.8864 21.3171 19.887 21.346C19.887 21.407 19.937 21.458 20 21.457C20.061 21.457 20.11 21.407 20.111 21.346C20.1113 21.3305 20.1084 21.3151 20.1025 21.3008C20.0965 21.2865 20.0877 21.2736 20.0765 21.2629C20.0653 21.2522 20.052 21.2439 20.0375 21.2386C20.0229 21.2333 20.0075 21.231 19.992 21.232ZM27.992 21.232C27.9632 21.2338 27.9362 21.2467 27.9166 21.2679C27.897 21.2891 27.8864 21.3171 27.887 21.346C27.887 21.407 27.937 21.458 28 21.457C28.061 21.457 28.11 21.407 28.111 21.346C28.1113 21.3305 28.1084 21.3151 28.1025 21.3008C28.0965 21.2865 28.0877 21.2736 28.0765 21.2629C28.0653 21.2522 28.052 21.2439 28.0375 21.2386C28.0229 21.2333 28.0075 21.231 27.992 21.232ZM19.992 21.795C19.9765 21.7949 19.9611 21.7979 19.9468 21.804C19.9326 21.8101 19.9197 21.819 19.909 21.8303C19.8983 21.8415 19.8901 21.8549 19.8848 21.8694C19.8795 21.884 19.8773 21.8995 19.8782 21.915C19.8792 21.9305 19.8834 21.9456 19.8904 21.9594C19.8975 21.9732 19.9073 21.9854 19.9193 21.9953C19.9313 22.0051 19.9452 22.0124 19.9601 22.0167C19.975 22.0209 19.9906 22.0221 20.006 22.02C20.0343 22.0162 20.0602 22.0018 20.0783 21.9797C20.0965 21.9577 20.1056 21.9295 20.1038 21.901C20.102 21.8724 20.0895 21.8456 20.0688 21.826C20.048 21.8063 20.0206 21.7952 19.992 21.795ZM27.992 21.795C27.9765 21.7949 27.9611 21.7979 27.9468 21.804C27.9326 21.8101 27.9197 21.819 27.909 21.8303C27.8983 21.8415 27.8901 21.8549 27.8848 21.8694C27.8795 21.884 27.8773 21.8995 27.8782 21.915C27.8792 21.9305 27.8834 21.9456 27.8904 21.9594C27.8975 21.9732 27.9073 21.9854 27.9193 21.9953C27.9313 22.0051 27.9452 22.0124 27.9601 22.0167C27.975 22.0209 27.9906 22.0221 28.006 22.02C28.0343 22.0162 28.0602 22.0018 28.0783 21.9797C28.0965 21.9577 28.1056 21.9295 28.1038 21.901C28.102 21.8724 28.0895 21.8456 28.0688 21.826C28.048 21.8063 28.0206 21.7952 27.992 21.795ZM16.75 21.99C16.5366 21.9847 16.3243 22.0221 16.1255 22.1001C15.9268 22.1781 15.7457 22.295 15.5929 22.4441C15.44 22.5931 15.3186 22.7713 15.2357 22.968C15.1527 23.1647 15.11 23.376 15.11 23.5895C15.11 23.803 15.1527 24.0143 15.2357 24.211C15.3186 24.4077 15.44 24.5859 15.5929 24.7349C15.7457 24.884 15.9268 25.0009 16.1255 25.0789C16.3243 25.1569 16.5366 25.1943 16.75 25.189C17.1673 25.1786 17.564 25.0055 17.8554 24.7066C18.1469 24.4078 18.31 24.0069 18.31 23.5895C18.31 23.1721 18.1469 22.7712 17.8554 22.4724C17.564 22.1735 17.1673 22.0004 16.75 21.99ZM24.219 21.99C23.7947 21.99 23.3877 22.1586 23.0876 22.4586C22.7876 22.7587 22.619 23.1657 22.619 23.59C22.619 24.0143 22.7876 24.4213 23.0876 24.7214C23.3877 25.0214 23.7947 25.19 24.219 25.19C24.6433 25.19 25.0503 25.0214 25.3504 24.7214C25.6504 24.4213 25.819 24.0143 25.819 23.59C25.819 23.1657 25.6504 22.7587 25.3504 22.4586C25.0503 22.1586 24.6433 21.99 24.219 21.99ZM31.598 21.99C31.1737 21.99 30.7667 22.1586 30.4666 22.4586C30.1666 22.7587 29.998 23.1657 29.998 23.59C29.998 24.0143 30.1666 24.4213 30.4666 24.7214C30.7667 25.0214 31.1737 25.19 31.598 25.19C32.0223 25.19 32.4293 25.0214 32.7294 24.7214C33.0294 24.4213 33.198 24.0143 33.198 23.59C33.198 23.1657 33.0294 22.7587 32.7294 22.4586C32.4293 22.1586 32.0223 21.99 31.598 21.99ZM19.992 22.357C19.9765 22.3569 19.9611 22.3599 19.9468 22.366C19.9326 22.3721 19.9197 22.381 19.909 22.3923C19.8983 22.4035 19.8901 22.4169 19.8848 22.4314C19.8795 22.446 19.8773 22.4615 19.8782 22.477C19.8792 22.4925 19.8834 22.5076 19.8904 22.5214C19.8975 22.5352 19.9073 22.5474 19.9193 22.5573C19.9313 22.5671 19.9452 22.5744 19.9601 22.5787C19.975 22.5829 19.9906 22.5841 20.006 22.582C20.0343 22.5782 20.0602 22.5638 20.0783 22.5417C20.0965 22.5197 20.1056 22.4915 20.1038 22.463C20.102 22.4344 20.0895 22.4076 20.0688 22.388C20.048 22.3683 20.0206 22.3572 19.992 22.357ZM27.992 22.357C27.9765 22.3569 27.9611 22.3599 27.9468 22.366C27.9326 22.3721 27.9197 22.381 27.909 22.3923C27.8983 22.4035 27.8901 22.4169 27.8848 22.4314C27.8795 22.446 27.8773 22.4615 27.8782 22.477C27.8792 22.4925 27.8834 22.5076 27.8904 22.5214C27.8975 22.5352 27.9073 22.5474 27.9193 22.5573C27.9313 22.5671 27.9452 22.5744 27.9601 22.5787C27.975 22.5829 27.9906 22.5841 28.006 22.582C28.0343 22.5782 28.0602 22.5638 28.0783 22.5417C28.0965 22.5197 28.1056 22.4915 28.1038 22.463C28.102 22.4344 28.0895 22.4076 28.0688 22.388C28.048 22.3683 28.0206 22.3572 27.992 22.357ZM19.992 22.92C19.9773 22.9209 19.9629 22.9247 19.9497 22.9312C19.9364 22.9377 19.9246 22.9467 19.9149 22.9578C19.9051 22.9688 19.8976 22.9817 19.8928 22.9956C19.8881 23.0095 19.8861 23.0243 19.887 23.039C19.8879 23.0537 19.8917 23.0681 19.8982 23.0813C19.9047 23.0946 19.9137 23.1064 19.9248 23.1161C19.9358 23.1259 19.9487 23.1334 19.9626 23.1382C19.9765 23.1429 19.9913 23.1449 20.006 23.144C20.0357 23.1421 20.0635 23.1286 20.0831 23.1062C20.1028 23.0839 20.1129 23.0547 20.111 23.025C20.1091 22.9953 20.0956 22.9675 20.0732 22.9479C20.0509 22.9282 20.0217 22.9181 19.992 22.92ZM27.992 22.92C27.9773 22.9209 27.9629 22.9247 27.9497 22.9312C27.9364 22.9377 27.9246 22.9467 27.9149 22.9578C27.9051 22.9688 27.8976 22.9817 27.8928 22.9956C27.8881 23.0095 27.8861 23.0243 27.887 23.039C27.8879 23.0537 27.8917 23.0681 27.8982 23.0813C27.9047 23.0946 27.9137 23.1064 27.9248 23.1161C27.9358 23.1259 27.9487 23.1334 27.9626 23.1382C27.9765 23.1429 27.9913 23.1449 28.006 23.144C28.0357 23.1421 28.0635 23.1286 28.0831 23.1062C28.1028 23.0839 28.1129 23.0547 28.111 23.025C28.1091 22.9953 28.0956 22.9675 28.0732 22.9479C28.0509 22.9282 28.0217 22.9181 27.992 22.92ZM19.98 23.482C19.9536 23.4863 19.9297 23.5 19.9126 23.5206C19.8955 23.5412 19.8864 23.5673 19.887 23.594C19.887 23.6161 19.8935 23.6377 19.9058 23.6561C19.9181 23.6745 19.9355 23.6889 19.9559 23.6974C19.9763 23.7059 19.9988 23.7082 20.0205 23.7039C20.0422 23.6997 20.0621 23.6891 20.0778 23.6735C20.0935 23.658 20.1043 23.6381 20.1087 23.6165C20.1132 23.5948 20.1111 23.5723 20.1028 23.5518C20.0944 23.5313 20.0802 23.5138 20.0619 23.5014C20.0437 23.4889 20.0221 23.4822 20 23.482H19.98ZM27.98 23.482C27.9536 23.4863 27.9297 23.5 27.9126 23.5206C27.8955 23.5412 27.8864 23.5673 27.887 23.594C27.887 23.6161 27.8935 23.6377 27.9058 23.6561C27.9181 23.6745 27.9355 23.6889 27.9559 23.6974C27.9763 23.7059 27.9988 23.7082 28.0205 23.7039C28.0422 23.6997 28.0621 23.6891 28.0778 23.6735C28.0935 23.658 28.1043 23.6381 28.1087 23.6165C28.1132 23.5948 28.1111 23.5723 28.1028 23.5518C28.0944 23.5313 28.0802 23.5138 28.0619 23.5014C28.0437 23.4889 28.0221 23.4822 28 23.482H27.98ZM19.98 24.045C19.9538 24.0493 19.93 24.0629 19.9129 24.0832C19.8958 24.1036 19.8866 24.1294 19.887 24.156C19.887 24.218 19.937 24.269 20 24.268C20.061 24.267 20.11 24.218 20.111 24.156C20.111 24.095 20.061 24.046 20 24.045H19.98ZM27.98 24.045C27.9538 24.0493 27.93 24.0629 27.9129 24.0832C27.8958 24.1036 27.8866 24.1294 27.887 24.156C27.887 24.218 27.937 24.269 28 24.268C28.061 24.267 28.11 24.218 28.111 24.156C28.111 24.095 28.061 24.046 28 24.045H27.98ZM19.992 24.605C19.9772 24.6055 19.9627 24.609 19.9493 24.6151C19.9358 24.6212 19.9237 24.63 19.9136 24.6408C19.8933 24.6626 19.8824 24.6917 19.8835 24.7215C19.8846 24.7513 19.8974 24.7795 19.9193 24.7999C19.9411 24.8202 19.9702 24.8311 20 24.83C20.0298 24.8289 20.058 24.8161 20.0784 24.7942C20.0987 24.7724 20.1096 24.7433 20.1085 24.7135C20.1074 24.6837 20.0946 24.6555 20.0727 24.6351C20.0509 24.6148 20.0218 24.6039 19.992 24.605ZM27.992 24.605C27.9772 24.6055 27.9627 24.609 27.9493 24.6151C27.9358 24.6212 27.9237 24.63 27.9136 24.6408C27.8933 24.6626 27.8824 24.6917 27.8835 24.7215C27.8846 24.7513 27.8974 24.7795 27.9193 24.7999C27.9411 24.8202 27.9702 24.8311 28 24.83C28.0298 24.8289 28.058 24.8161 28.0784 24.7942C28.0987 24.7724 28.1096 24.7433 28.1085 24.7135C28.1074 24.6837 28.0946 24.6555 28.0727 24.6351C28.0509 24.6148 28.0218 24.6039 27.992 24.605ZM19.992 25.168C19.9772 25.1685 19.9627 25.172 19.9493 25.1781C19.9358 25.1842 19.9237 25.193 19.9136 25.2038C19.8933 25.2256 19.8824 25.2547 19.8835 25.2845C19.8846 25.3143 19.8974 25.3425 19.9193 25.3629C19.9411 25.3832 19.9702 25.3941 20 25.393C20.061 25.393 20.11 25.343 20.111 25.281C20.1112 25.2656 20.1082 25.2503 20.1022 25.2361C20.0962 25.222 20.0873 25.2092 20.0761 25.1986C20.065 25.188 20.0517 25.1798 20.0373 25.1745C20.0228 25.1693 20.0074 25.167 19.992 25.168ZM27.992 25.168C27.9772 25.1685 27.9627 25.172 27.9493 25.1781C27.9358 25.1842 27.9237 25.193 27.9136 25.2038C27.8933 25.2256 27.8824 25.2547 27.8835 25.2845C27.8846 25.3143 27.8974 25.3425 27.9193 25.3629C27.9411 25.3832 27.9702 25.3941 28 25.393C28.061 25.393 28.11 25.343 28.111 25.281C28.1112 25.2656 28.1082 25.2503 28.1022 25.2361C28.0962 25.222 28.0873 25.2092 28.0761 25.1986C28.065 25.188 28.0517 25.1798 28.0373 25.1745C28.0228 25.1693 28.0074 25.167 27.992 25.168ZM19.992 25.731C19.9773 25.7315 19.9628 25.7349 19.9494 25.7411C19.9361 25.7472 19.924 25.7559 19.914 25.7666C19.9039 25.7774 19.8961 25.79 19.891 25.8038C19.8859 25.8176 19.8835 25.8323 19.884 25.847C19.8845 25.8617 19.8879 25.8762 19.8941 25.8896C19.9002 25.9029 19.9089 25.915 19.9196 25.925C19.9304 25.9351 19.943 25.9429 19.9568 25.948C19.9706 25.9531 19.9853 25.9555 20 25.955C20.0297 25.9539 20.0578 25.9411 20.078 25.9194C20.0983 25.8976 20.1091 25.8687 20.108 25.839C20.1069 25.8093 20.0941 25.7812 20.0724 25.761C20.0506 25.7407 20.0217 25.7299 19.992 25.731ZM27.992 25.731C27.9623 25.7321 27.9342 25.7449 27.914 25.7666C27.8937 25.7884 27.8829 25.8173 27.884 25.847C27.8851 25.8767 27.8979 25.9048 27.9196 25.925C27.9414 25.9453 27.9703 25.9561 28 25.955C28.0147 25.9545 28.0292 25.9511 28.0426 25.9449C28.0559 25.9388 28.068 25.9301 28.078 25.9194C28.0881 25.9086 28.0959 25.896 28.101 25.8822C28.1061 25.8684 28.1085 25.8537 28.108 25.839C28.1075 25.8243 28.1041 25.8098 28.0979 25.7964C28.0918 25.7831 28.0831 25.771 28.0724 25.761C28.0616 25.7509 28.049 25.7431 28.0352 25.738C28.0214 25.7329 28.0067 25.7305 27.992 25.731ZM19.992 26.293C19.9773 26.2939 19.9629 26.2977 19.9497 26.3042C19.9364 26.3107 19.9246 26.3197 19.9149 26.3308C19.9051 26.3418 19.8976 26.3547 19.8928 26.3686C19.8881 26.3825 19.8861 26.3973 19.887 26.412C19.8879 26.4267 19.8917 26.4411 19.8982 26.4543C19.9047 26.4676 19.9137 26.4794 19.9248 26.4891C19.9358 26.4989 19.9487 26.5064 19.9626 26.5112C19.9765 26.5159 19.9913 26.5179 20.006 26.517C20.0357 26.5151 20.0635 26.5016 20.0831 26.4792C20.1028 26.4569 20.1129 26.4277 20.111 26.398C20.1091 26.3683 20.0956 26.3405 20.0732 26.3209C20.0509 26.3012 20.0217 26.2911 19.992 26.293ZM27.992 26.293C27.9773 26.2939 27.9629 26.2977 27.9497 26.3042C27.9364 26.3107 27.9246 26.3197 27.9149 26.3308C27.9051 26.3418 27.8976 26.3547 27.8928 26.3686C27.8881 26.3825 27.8861 26.3973 27.887 26.412C27.8879 26.4267 27.8917 26.4411 27.8982 26.4543C27.9047 26.4676 27.9137 26.4794 27.9248 26.4891C27.9358 26.4989 27.9487 26.5064 27.9626 26.5112C27.9765 26.5159 27.9913 26.5179 28.006 26.517C28.0357 26.5151 28.0635 26.5016 28.0831 26.4792C28.1028 26.4569 28.1129 26.4277 28.111 26.398C28.1091 26.3683 28.0956 26.3405 28.0732 26.3209C28.0509 26.3012 28.0217 26.2911 27.992 26.293ZM19.992 26.856C19.9766 26.8559 19.9614 26.8589 19.9472 26.8649C19.9331 26.871 19.9203 26.8798 19.9098 26.891C19.8992 26.9022 19.891 26.9154 19.8858 26.9298C19.8806 26.9443 19.8784 26.9597 19.8793 26.975C19.8803 26.9904 19.8844 27.0053 19.8914 27.019C19.8984 27.0327 19.9081 27.0448 19.92 27.0546C19.9319 27.0643 19.9457 27.0715 19.9605 27.0757C19.9753 27.0799 19.9908 27.081 20.006 27.079C20.0357 27.0771 20.0635 27.0636 20.0831 27.0412C20.1028 27.0189 20.1129 26.9897 20.111 26.96C20.1091 26.9303 20.0956 26.9025 20.0732 26.8829C20.0509 26.8632 20.0217 26.8531 19.992 26.855V26.856ZM27.992 26.856C27.9766 26.8559 27.9614 26.8589 27.9472 26.8649C27.9331 26.871 27.9203 26.8798 27.9098 26.891C27.8992 26.9022 27.891 26.9154 27.8858 26.9298C27.8806 26.9443 27.8784 26.9597 27.8793 26.975C27.8803 26.9904 27.8844 27.0053 27.8914 27.019C27.8984 27.0327 27.9081 27.0448 27.92 27.0546C27.9319 27.0643 27.9457 27.0715 27.9605 27.0757C27.9753 27.0799 27.9908 27.081 28.006 27.079C28.0357 27.0771 28.0635 27.0636 28.0831 27.0412C28.1028 27.0189 28.1129 26.9897 28.111 26.96C28.1091 26.9303 28.0956 26.9025 28.0732 26.8829C28.0509 26.8632 28.0217 26.8531 27.992 26.855V26.856ZM16.75 27.225C16.5353 27.2174 16.3212 27.2531 16.1206 27.3301C15.9199 27.407 15.7368 27.5236 15.5822 27.6728C15.4276 27.822 15.3047 28.0009 15.2207 28.1987C15.1367 28.3964 15.0934 28.6091 15.0934 28.824C15.0934 29.0389 15.1367 29.2516 15.2207 29.4493C15.3047 29.6471 15.4276 29.826 15.5822 29.9752C15.7368 30.1244 15.9199 30.241 16.1206 30.3179C16.3212 30.3949 16.5353 30.4306 16.75 30.423C17.1643 30.4083 17.5567 30.2335 17.8446 29.9352C18.1325 29.6369 18.2934 29.2386 18.2934 28.824C18.2934 28.4094 18.1325 28.0111 17.8446 27.7128C17.5567 27.4145 17.1643 27.2397 16.75 27.225ZM24.219 27.225C24.0056 27.2197 23.7933 27.2571 23.5945 27.3351C23.3958 27.4131 23.2147 27.53 23.0619 27.6791C22.909 27.8281 22.7876 28.0063 22.7047 28.203C22.6217 28.3997 22.579 28.611 22.579 28.8245C22.579 29.038 22.6217 29.2493 22.7047 29.446C22.7876 29.6427 22.909 29.8209 23.0619 29.9699C23.2147 30.119 23.3958 30.2359 23.5945 30.3139C23.7933 30.3919 24.0056 30.4293 24.219 30.424C24.6433 30.424 25.0503 30.2554 25.3504 29.9554C25.6504 29.6553 25.819 29.2483 25.819 28.824C25.819 28.3997 25.6504 27.9927 25.3504 27.6926C25.0503 27.3926 24.6433 27.224 24.219 27.224V27.225ZM31.598 27.225C31.3846 27.2197 31.1723 27.2571 30.9735 27.3351C30.7748 27.4131 30.5937 27.53 30.4409 27.6791C30.288 27.8281 30.1666 28.0063 30.0837 28.203C30.0007 28.3997 29.958 28.611 29.958 28.8245C29.958 29.038 30.0007 29.2493 30.0837 29.446C30.1666 29.6427 30.288 29.8209 30.4409 29.9699C30.5937 30.119 30.7748 30.2359 30.9735 30.3139C31.1723 30.3919 31.3846 30.4293 31.598 30.424C32.0223 30.424 32.4293 30.2554 32.7294 29.9554C33.0294 29.6553 33.198 29.2483 33.198 28.824C33.198 28.3997 33.0294 27.9927 32.7294 27.6926C32.4293 27.3926 32.0223 27.224 31.598 27.224V27.225ZM19.992 27.418C19.9773 27.4189 19.9629 27.4227 19.9497 27.4292C19.9364 27.4357 19.9246 27.4447 19.9149 27.4558C19.9051 27.4668 19.8976 27.4797 19.8928 27.4936C19.8881 27.5075 19.8861 27.5223 19.887 27.537C19.8879 27.5517 19.8917 27.5661 19.8982 27.5793C19.9047 27.5926 19.9137 27.6044 19.9248 27.6141C19.9358 27.6239 19.9487 27.6314 19.9626 27.6362C19.9765 27.6409 19.9913 27.6429 20.006 27.642C20.0357 27.6401 20.0635 27.6266 20.0831 27.6042C20.1028 27.5819 20.1129 27.5527 20.111 27.523C20.1091 27.4933 20.0956 27.4655 20.0732 27.4459C20.0509 27.4262 20.0217 27.4161 19.992 27.418ZM27.992 27.418C27.9773 27.4189 27.9629 27.4227 27.9497 27.4292C27.9364 27.4357 27.9246 27.4447 27.9149 27.4558C27.9051 27.4668 27.8976 27.4797 27.8928 27.4936C27.8881 27.5075 27.8861 27.5223 27.887 27.537C27.8879 27.5517 27.8917 27.5661 27.8982 27.5793C27.9047 27.5926 27.9137 27.6044 27.9248 27.6141C27.9358 27.6239 27.9487 27.6314 27.9626 27.6362C27.9765 27.6409 27.9913 27.6429 28.006 27.642C28.0357 27.6401 28.0635 27.6266 28.0831 27.6042C28.1028 27.5819 28.1129 27.5527 28.111 27.523C28.1091 27.4933 28.0956 27.4655 28.0732 27.4459C28.0509 27.4262 28.0217 27.4161 27.992 27.418ZM19.98 27.981C19.9539 27.9853 19.9303 27.9987 19.9132 28.0189C19.8962 28.039 19.8869 28.0646 19.887 28.091C19.887 28.1208 19.8989 28.1495 19.92 28.1705C19.941 28.1916 19.9697 28.2035 19.9995 28.2035C20.0293 28.2035 20.058 28.1916 20.0791 28.1705C20.1001 28.1495 20.112 28.1208 20.112 28.091C20.111 28.031 20.062 27.981 20 27.981H19.98ZM27.98 27.981C27.9539 27.9853 27.9303 27.9987 27.9132 28.0189C27.8962 28.039 27.8869 28.0646 27.887 28.091C27.887 28.1208 27.8989 28.1495 27.92 28.1705C27.941 28.1916 27.9697 28.2035 27.9995 28.2035C28.0293 28.2035 28.058 28.1916 28.0791 28.1705C28.1001 28.1495 28.112 28.1208 28.112 28.091C28.111 28.031 28.062 27.981 28 27.981H27.98ZM20.002 28.539C19.9872 28.5389 19.9726 28.5416 19.9589 28.5472C19.9452 28.5527 19.9327 28.5609 19.9222 28.5712C19.9116 28.5816 19.9032 28.5939 19.8974 28.6075C19.8917 28.6211 19.8886 28.6357 19.8885 28.6505C19.8884 28.6653 19.8911 28.6799 19.8967 28.6936C19.9022 28.7073 19.9104 28.7198 19.9207 28.7303C19.9311 28.7409 19.9434 28.7493 19.957 28.7551C19.9706 28.7608 19.9852 28.7639 20 28.764C20.0298 28.7643 20.0586 28.7527 20.0798 28.7318C20.1011 28.7108 20.1132 28.6823 20.1135 28.6525C20.1138 28.6227 20.1022 28.5939 20.0813 28.5727C20.0603 28.5514 20.0318 28.5393 20.002 28.539ZM28.002 28.539C27.9872 28.5389 27.9726 28.5416 27.9589 28.5472C27.9452 28.5527 27.9327 28.5609 27.9222 28.5712C27.9116 28.5816 27.9032 28.5939 27.8974 28.6075C27.8917 28.6211 27.8886 28.6357 27.8885 28.6505C27.8884 28.6653 27.8911 28.6799 27.8967 28.6936C27.9022 28.7073 27.9104 28.7198 27.9207 28.7303C27.9311 28.7409 27.9434 28.7493 27.957 28.7551C27.9706 28.7608 27.9852 28.7639 28 28.764C28.0298 28.7643 28.0586 28.7527 28.0798 28.7318C28.1011 28.7108 28.1132 28.6823 28.1135 28.6525C28.1138 28.6227 28.1022 28.5939 28.0813 28.5727C28.0603 28.5514 28.0318 28.5393 28.002 28.539ZM19.992 29.102C19.9634 29.1038 19.9365 29.1165 19.9169 29.1375C19.8974 29.1586 19.8867 29.1863 19.887 29.215C19.887 29.2447 19.8988 29.2732 19.9198 29.2942C19.9408 29.3152 19.9693 29.327 19.999 29.327C20.0287 29.327 20.0572 29.3152 20.0782 29.2942C20.0992 29.2732 20.111 29.2447 20.111 29.215C20.1112 29.1996 20.1082 29.1843 20.1022 29.1701C20.0962 29.156 20.0873 29.1432 20.0761 29.1326C20.065 29.122 20.0517 29.1138 20.0373 29.1085C20.0228 29.1033 20.0074 29.101 19.992 29.102ZM27.992 29.102C27.9634 29.1038 27.9365 29.1165 27.9169 29.1375C27.8974 29.1586 27.8867 29.1863 27.887 29.215C27.887 29.2447 27.8988 29.2732 27.9198 29.2942C27.9408 29.3152 27.9693 29.327 27.999 29.327C28.0287 29.327 28.0572 29.3152 28.0782 29.2942C28.0992 29.2732 28.111 29.2447 28.111 29.215C28.1112 29.1996 28.1082 29.1843 28.1022 29.1701C28.0962 29.156 28.0873 29.1432 28.0761 29.1326C28.065 29.122 28.0517 29.1138 28.0373 29.1085C28.0228 29.1033 28.0074 29.101 27.992 29.102ZM19.992 29.664C19.9627 29.665 19.9349 29.6776 19.9147 29.6989C19.8945 29.7202 19.8835 29.7486 19.884 29.7779C19.8845 29.8073 19.8966 29.8353 19.9175 29.8558C19.9385 29.8764 19.9666 29.8879 19.996 29.8879C20.0254 29.8879 20.0535 29.8764 20.0745 29.8558C20.0954 29.8353 20.1075 29.8073 20.108 29.7779C20.1085 29.7486 20.0975 29.7202 20.0773 29.6989C20.0571 29.6776 20.0293 29.665 20 29.664C19.9973 29.6639 19.9947 29.6639 19.992 29.664ZM27.992 29.664C27.9627 29.665 27.9349 29.6776 27.9147 29.6989C27.8945 29.7202 27.8835 29.7486 27.884 29.7779C27.8845 29.8073 27.8966 29.8353 27.9175 29.8558C27.9385 29.8764 27.9666 29.8879 27.996 29.8879C28.0254 29.8879 28.0535 29.8764 28.0745 29.8558C28.0954 29.8353 28.1075 29.8073 28.108 29.7779C28.1085 29.7486 28.0975 29.7202 28.0773 29.6989C28.0571 29.6776 28.0293 29.665 28 29.664C27.9973 29.6639 27.9947 29.6639 27.992 29.664ZM19.992 30.227C19.9634 30.2288 19.9365 30.2415 19.9169 30.2625C19.8974 30.2836 19.8867 30.3113 19.887 30.34C19.887 30.402 19.937 30.452 20 30.451C20.0297 30.4499 20.0578 30.4371 20.078 30.4154C20.0983 30.3936 20.1091 30.3647 20.108 30.335C20.1069 30.3053 20.0941 30.2772 20.0724 30.257C20.0506 30.2367 20.0217 30.2259 19.992 30.227ZM27.992 30.227C27.9634 30.2288 27.9365 30.2415 27.9169 30.2625C27.8974 30.2836 27.8867 30.3113 27.887 30.34C27.887 30.402 27.937 30.452 28 30.451C28.0147 30.4505 28.0292 30.4471 28.0426 30.4409C28.0559 30.4348 28.068 30.4261 28.078 30.4154C28.0881 30.4046 28.0959 30.392 28.101 30.3782C28.1061 30.3644 28.1085 30.3497 28.108 30.335C28.1075 30.3203 28.1041 30.3058 28.0979 30.2924C28.0918 30.2791 28.0831 30.267 28.0724 30.257C28.0616 30.2469 28.049 30.2391 28.0352 30.234C28.0214 30.2289 28.0067 30.2265 27.992 30.227ZM19.992 30.787C19.9635 30.7893 19.9369 30.8021 19.9175 30.823C19.898 30.844 19.8872 30.8714 19.887 30.9C19.8849 30.916 19.8862 30.9322 19.8908 30.9476C19.8955 30.963 19.9034 30.9773 19.914 30.9894C19.9246 31.0015 19.9376 31.0112 19.9523 31.0179C19.967 31.0246 19.9829 31.028 19.999 31.028C20.0151 31.028 20.031 31.0246 20.0457 31.0179C20.0604 31.0112 20.0734 31.0015 20.084 30.9894C20.0946 30.9773 20.1025 30.963 20.1072 30.9476C20.1118 30.9322 20.1131 30.916 20.111 30.9C20.1109 30.8847 20.1077 30.8695 20.1016 30.8555C20.0955 30.8414 20.0866 30.8288 20.0755 30.8182C20.0644 30.8077 20.0513 30.7995 20.0369 30.7941C20.0226 30.7887 20.0073 30.7863 19.992 30.787ZM27.992 30.787C27.9635 30.7893 27.9369 30.8021 27.9175 30.823C27.898 30.844 27.8872 30.8714 27.887 30.9C27.8849 30.916 27.8862 30.9322 27.8908 30.9476C27.8955 30.963 27.9034 30.9773 27.914 30.9894C27.9246 31.0015 27.9376 31.0112 27.9523 31.0179C27.967 31.0246 27.9829 31.028 27.999 31.028C28.0151 31.028 28.031 31.0246 28.0457 31.0179C28.0604 31.0112 28.0734 31.0015 28.084 30.9894C28.0946 30.9773 28.1025 30.963 28.1072 30.9476C28.1118 30.9322 28.1131 30.916 28.111 30.9C28.1109 30.8847 28.1077 30.8695 28.1016 30.8555C28.0955 30.8414 28.0866 30.8288 28.0755 30.8182C28.0644 30.8077 28.0513 30.7995 28.0369 30.7941C28.0226 30.7887 28.0073 30.7863 27.992 30.787ZM19.992 31.35C19.9761 31.3491 19.9601 31.3516 19.9452 31.3573C19.9303 31.3631 19.9168 31.3719 19.9056 31.3832C19.8943 31.3945 19.8856 31.4081 19.88 31.4231C19.8744 31.438 19.872 31.4539 19.873 31.4699C19.874 31.4858 19.8783 31.5013 19.8858 31.5155C19.8932 31.5296 19.9035 31.542 19.9161 31.5518C19.9287 31.5616 19.9432 31.5687 19.9587 31.5725C19.9742 31.5764 19.9903 31.5769 20.006 31.574C20.0332 31.569 20.0577 31.5543 20.0747 31.5325C20.0918 31.5107 20.1003 31.4834 20.0985 31.4558C20.0968 31.4282 20.085 31.4021 20.0654 31.3826C20.0457 31.3631 20.0196 31.3515 19.992 31.35ZM27.992 31.35C27.9761 31.3491 27.9601 31.3516 27.9452 31.3573C27.9303 31.3631 27.9168 31.3719 27.9056 31.3832C27.8943 31.3945 27.8856 31.4081 27.88 31.4231C27.8744 31.438 27.872 31.4539 27.873 31.4699C27.874 31.4858 27.8783 31.5013 27.8858 31.5155C27.8932 31.5296 27.9035 31.542 27.9161 31.5518C27.9287 31.5616 27.9432 31.5687 27.9587 31.5725C27.9742 31.5764 27.9903 31.5769 28.006 31.574C28.0332 31.569 28.0577 31.5543 28.0747 31.5325C28.0918 31.5107 28.1003 31.4834 28.0985 31.4558C28.0968 31.4282 28.085 31.4021 28.0654 31.3826C28.0457 31.3631 28.0196 31.3515 27.992 31.35ZM19.98 31.912C19.9537 31.9161 19.9298 31.9296 19.9127 31.95C19.8956 31.9705 19.8864 31.9964 19.887 32.023C19.8866 32.0452 19.8928 32.067 19.9048 32.0857C19.9168 32.1043 19.9341 32.119 19.9545 32.1278C19.9749 32.1366 19.9974 32.1392 20.0192 32.1352C20.0411 32.1311 20.0612 32.1207 20.0771 32.1053C20.093 32.0898 20.104 32.0699 20.1086 32.0482C20.1131 32.0265 20.1112 32.0039 20.1029 31.9833C20.0947 31.9627 20.0805 31.945 20.0622 31.9325C20.0438 31.92 20.0222 31.9132 20 31.913C19.992 31.911 19.99 31.911 19.982 31.913H19.98V31.912ZM27.98 31.912C27.9537 31.9161 27.9298 31.9296 27.9127 31.95C27.8956 31.9705 27.8864 31.9964 27.887 32.023C27.8866 32.0452 27.8928 32.067 27.9048 32.0857C27.9168 32.1043 27.9341 32.119 27.9545 32.1278C27.9749 32.1366 27.9974 32.1392 28.0192 32.1352C28.0411 32.1311 28.0612 32.1207 28.0771 32.1053C28.093 32.0898 28.104 32.0699 28.1086 32.0482C28.1131 32.0265 28.1112 32.0039 28.1029 31.9833C28.0947 31.9627 28.0805 31.945 28.0622 31.9325C28.0438 31.92 28.0222 31.9132 28 31.913C27.992 31.911 27.99 31.911 27.982 31.913H27.98V31.912ZM16.75 32.457C16.5366 32.4517 16.3243 32.4891 16.1255 32.5671C15.9268 32.6451 15.7457 32.762 15.5929 32.9111C15.44 33.0601 15.3186 33.2383 15.2357 33.435C15.1527 33.6317 15.11 33.843 15.11 34.0565C15.11 34.27 15.1527 34.4813 15.2357 34.678C15.3186 34.8747 15.44 35.0529 15.5929 35.2019C15.7457 35.351 15.9268 35.4679 16.1255 35.5459C16.3243 35.6239 16.5366 35.6613 16.75 35.656C17.1673 35.6456 17.564 35.4725 17.8554 35.1736C18.1469 34.8748 18.31 34.4739 18.31 34.0565C18.31 33.6391 18.1469 33.2382 17.8554 32.9394C17.564 32.6405 17.1673 32.4674 16.75 32.457ZM24.219 32.457C24.0056 32.4517 23.7933 32.4891 23.5945 32.5671C23.3958 32.6451 23.2147 32.762 23.0619 32.9111C22.909 33.0601 22.7876 33.2383 22.7047 33.435C22.6217 33.6317 22.579 33.843 22.579 34.0565C22.579 34.27 22.6217 34.4813 22.7047 34.678C22.7876 34.8747 22.909 35.0529 23.0619 35.2019C23.2147 35.351 23.3958 35.4679 23.5945 35.5459C23.7933 35.6239 24.0056 35.6613 24.219 35.656C24.6363 35.6456 25.033 35.4725 25.3244 35.1736C25.6159 34.8748 25.779 34.4739 25.779 34.0565C25.779 33.6391 25.6159 33.2382 25.3244 32.9394C25.033 32.6405 24.6363 32.4674 24.219 32.457ZM31.598 32.457C31.1737 32.457 30.7667 32.6256 30.4666 32.9256C30.1666 33.2257 29.998 33.6327 29.998 34.057C29.998 34.4813 30.1666 34.8883 30.4666 35.1884C30.7667 35.4884 31.1737 35.657 31.598 35.657C32.0223 35.657 32.4293 35.4884 32.7294 35.1884C33.0294 34.8883 33.198 34.4813 33.198 34.057C33.198 33.6327 33.0294 33.2257 32.7294 32.9256C32.4293 32.6256 32.0223 32.457 31.598 32.457ZM19.981 32.477C19.9599 32.4804 19.9403 32.4898 19.9243 32.5041C19.9084 32.5183 19.8969 32.5368 19.8911 32.5574C19.8854 32.578 19.8856 32.5997 19.8919 32.6202C19.8981 32.6406 19.91 32.6588 19.9263 32.6727C19.9425 32.6866 19.9624 32.6955 19.9836 32.6985C20.0047 32.7014 20.0263 32.6983 20.0457 32.6893C20.0651 32.6804 20.0816 32.6662 20.0931 32.6482C20.1047 32.6303 20.1109 32.6094 20.111 32.588C20.1107 32.5586 20.099 32.5306 20.0782 32.5098C20.0574 32.489 20.0294 32.4773 20 32.477H19.98H19.981ZM27.981 32.477C27.9599 32.4804 27.9403 32.4898 27.9243 32.5041C27.9084 32.5183 27.8969 32.5368 27.8911 32.5574C27.8854 32.578 27.8856 32.5997 27.8919 32.6202C27.8981 32.6406 27.91 32.6588 27.9263 32.6727C27.9425 32.6866 27.9624 32.6955 27.9836 32.6985C28.0047 32.7014 28.0263 32.6983 28.0457 32.6893C28.0651 32.6804 28.0816 32.6662 28.0931 32.6482C28.1047 32.6303 28.1109 32.6094 28.111 32.588C28.1107 32.5586 28.099 32.5306 28.0782 32.5098C28.0574 32.489 28.0294 32.4773 28 32.477H27.98H27.981ZM20.002 33.037C19.987 33.0371 19.9722 33.0402 19.9585 33.0461C19.9447 33.0519 19.9322 33.0604 19.9217 33.0711C19.9112 33.0818 19.9029 33.0944 19.8973 33.1083C19.8917 33.1222 19.8889 33.137 19.889 33.152C19.889 33.214 19.939 33.262 20.002 33.262C20.0165 33.2621 20.0309 33.2594 20.0444 33.2539C20.0579 33.2484 20.0701 33.2404 20.0804 33.2301C20.0907 33.2199 20.0989 33.2077 20.1045 33.1943C20.1101 33.1809 20.113 33.1665 20.113 33.152C20.1133 33.1221 20.1018 33.0933 20.081 33.0718C20.0603 33.0503 20.0319 33.0378 20.002 33.037ZM28.002 33.037C27.987 33.0371 27.9722 33.0402 27.9585 33.0461C27.9447 33.0519 27.9322 33.0604 27.9217 33.0711C27.9112 33.0818 27.9029 33.0944 27.8973 33.1083C27.8917 33.1222 27.8889 33.137 27.889 33.152C27.889 33.214 27.939 33.262 28.002 33.262C28.0165 33.2621 28.0309 33.2594 28.0444 33.2539C28.0579 33.2484 28.0701 33.2404 28.0804 33.2301C28.0907 33.2199 28.0989 33.2077 28.1045 33.1943C28.1101 33.1809 28.113 33.1665 28.113 33.152C28.1133 33.1221 28.1018 33.0933 28.081 33.0718C28.0603 33.0503 28.0319 33.0378 28.002 33.037ZM19.992 33.6C19.9627 33.601 19.9349 33.6136 19.9147 33.6349C19.8945 33.6562 19.8835 33.6846 19.884 33.7139C19.8845 33.7433 19.8966 33.7713 19.9175 33.7918C19.9385 33.8124 19.9666 33.8239 19.996 33.8239C20.0254 33.8239 20.0535 33.8124 20.0745 33.7918C20.0954 33.7713 20.1075 33.7433 20.108 33.7139C20.1085 33.6846 20.0975 33.6562 20.0773 33.6349C20.0571 33.6136 20.0293 33.601 20 33.6H19.992ZM27.992 33.6C27.9627 33.601 27.9349 33.6136 27.9147 33.6349C27.8945 33.6562 27.8835 33.6846 27.884 33.7139C27.8845 33.7433 27.8966 33.7713 27.9175 33.7918C27.9385 33.8124 27.9666 33.8239 27.996 33.8239C28.0254 33.8239 28.0535 33.8124 28.0745 33.7918C28.0954 33.7713 28.1075 33.7433 28.108 33.7139C28.1085 33.6846 28.0975 33.6562 28.0773 33.6349C28.0571 33.6136 28.0293 33.601 28 33.6H27.992ZM19.992 34.162C19.9773 34.1629 19.9629 34.1667 19.9497 34.1732C19.9364 34.1797 19.9246 34.1887 19.9149 34.1998C19.9051 34.2108 19.8976 34.2237 19.8928 34.2376C19.8881 34.2515 19.8861 34.2663 19.887 34.281C19.8879 34.2957 19.8917 34.3101 19.8982 34.3233C19.9047 34.3366 19.9137 34.3484 19.9248 34.3581C19.9358 34.3679 19.9487 34.3754 19.9626 34.3802C19.9765 34.3849 19.9913 34.3869 20.006 34.386C20.0357 34.3841 20.0635 34.3706 20.0831 34.3482C20.1028 34.3259 20.1129 34.2967 20.111 34.267C20.1091 34.2373 20.0956 34.2095 20.0732 34.1899C20.0509 34.1702 20.0217 34.1601 19.992 34.162ZM27.992 34.162C27.9773 34.1629 27.9629 34.1667 27.9497 34.1732C27.9364 34.1797 27.9246 34.1887 27.9149 34.1998C27.9051 34.2108 27.8976 34.2237 27.8928 34.2376C27.8881 34.2515 27.8861 34.2663 27.887 34.281C27.8879 34.2957 27.8917 34.3101 27.8982 34.3233C27.9047 34.3366 27.9137 34.3484 27.9248 34.3581C27.9358 34.3679 27.9487 34.3754 27.9626 34.3802C27.9765 34.3849 27.9913 34.3869 28.006 34.386C28.0357 34.3841 28.0635 34.3706 28.0831 34.3482C28.1028 34.3259 28.1129 34.2967 28.111 34.267C28.1091 34.2373 28.0956 34.2095 28.0732 34.1899C28.0509 34.1702 28.0217 34.1601 27.992 34.162ZM19.992 34.725C19.9773 34.7259 19.9629 34.7297 19.9497 34.7362C19.9364 34.7427 19.9246 34.7517 19.9149 34.7628C19.9051 34.7738 19.8976 34.7867 19.8928 34.8006C19.8881 34.8145 19.8861 34.8293 19.887 34.844C19.8879 34.8587 19.8917 34.8731 19.8982 34.8863C19.9047 34.8996 19.9137 34.9114 19.9248 34.9211C19.9358 34.9309 19.9487 34.9384 19.9626 34.9432C19.9765 34.9479 19.9913 34.9499 20.006 34.949C20.0357 34.9471 20.0635 34.9336 20.0831 34.9112C20.1028 34.8889 20.1129 34.8597 20.111 34.83C20.1091 34.8003 20.0956 34.7725 20.0732 34.7529C20.0509 34.7332 20.0217 34.7231 19.992 34.725ZM27.992 34.725C27.9773 34.7259 27.9629 34.7297 27.9497 34.7362C27.9364 34.7427 27.9246 34.7517 27.9149 34.7628C27.9051 34.7738 27.8976 34.7867 27.8928 34.8006C27.8881 34.8145 27.8861 34.8293 27.887 34.844C27.8879 34.8587 27.8917 34.8731 27.8982 34.8863C27.9047 34.8996 27.9137 34.9114 27.9248 34.9211C27.9358 34.9309 27.9487 34.9384 27.9626 34.9432C27.9765 34.9479 27.9913 34.9499 28.006 34.949C28.0357 34.9471 28.0635 34.9336 28.0831 34.9112C28.1028 34.8889 28.1129 34.8597 28.111 34.83C28.1091 34.8003 28.0956 34.7725 28.0732 34.7529C28.0509 34.7332 28.0217 34.7231 27.992 34.725ZM19.992 35.287C19.9627 35.288 19.9349 35.3006 19.9147 35.3219C19.8945 35.3432 19.8835 35.3716 19.884 35.4009C19.8845 35.4303 19.8966 35.4583 19.9175 35.4788C19.9385 35.4994 19.9666 35.5109 19.996 35.5109C20.0254 35.5109 20.0535 35.4994 20.0745 35.4788C20.0954 35.4583 20.1075 35.4303 20.108 35.4009C20.1085 35.3716 20.0975 35.3432 20.0773 35.3219C20.0571 35.3006 20.0293 35.288 20 35.287C19.9973 35.2869 19.9947 35.2869 19.992 35.287ZM27.992 35.287C27.9627 35.288 27.9349 35.3006 27.9147 35.3219C27.8945 35.3432 27.8835 35.3716 27.884 35.4009C27.8845 35.4303 27.8966 35.4583 27.9175 35.4788C27.9385 35.4994 27.9666 35.5109 27.996 35.5109C28.0254 35.5109 28.0535 35.4994 28.0745 35.4788C28.0954 35.4583 28.1075 35.4303 28.108 35.4009C28.1085 35.3716 28.0975 35.3432 28.0773 35.3219C28.0571 35.3006 28.0293 35.288 28 35.287C27.9973 35.2869 27.9947 35.2869 27.992 35.287ZM19.992 35.85C19.9623 35.8519 19.9345 35.8654 19.9149 35.8878C19.8952 35.9101 19.8851 35.9393 19.887 35.969C19.8889 35.9987 19.9024 36.0265 19.9248 36.0461C19.9471 36.0658 19.9763 36.0759 20.006 36.074C20.0207 36.0731 20.0351 36.0693 20.0483 36.0628C20.0616 36.0563 20.0734 36.0473 20.0831 36.0362C20.0929 36.0252 20.1004 36.0123 20.1052 35.9984C20.1099 35.9845 20.1119 35.9697 20.111 35.955C20.1101 35.9403 20.1063 35.9259 20.0998 35.9127C20.0933 35.8994 20.0843 35.8876 20.0732 35.8779C20.0622 35.8681 20.0493 35.8606 20.0354 35.8558C20.0215 35.8511 20.0067 35.8491 19.992 35.85ZM27.992 35.85C27.9623 35.8519 27.9345 35.8654 27.9149 35.8878C27.8952 35.9101 27.8851 35.9393 27.887 35.969C27.8889 35.9987 27.9024 36.0265 27.9248 36.0461C27.9471 36.0658 27.9763 36.0759 28.006 36.074C28.0207 36.0731 28.0351 36.0693 28.0483 36.0628C28.0616 36.0563 28.0734 36.0473 28.0831 36.0362C28.0929 36.0252 28.1004 36.0123 28.1052 35.9984C28.1099 35.9845 28.1119 35.9697 28.111 35.955C28.1101 35.9403 28.1063 35.9259 28.0998 35.9127C28.0933 35.8994 28.0843 35.8876 28.0732 35.8779C28.0622 35.8681 28.0493 35.8606 28.0354 35.8558C28.0215 35.8511 28.0067 35.8491 27.992 35.85ZM19.992 36.412C19.9627 36.413 19.9349 36.4256 19.9147 36.4469C19.8945 36.4682 19.8835 36.4966 19.884 36.5259C19.8845 36.5553 19.8966 36.5833 19.9175 36.6038C19.9385 36.6244 19.9666 36.6359 19.996 36.6359C20.0254 36.6359 20.0535 36.6244 20.0745 36.6038C20.0954 36.5833 20.1075 36.5553 20.108 36.5259C20.1085 36.4966 20.0975 36.4682 20.0773 36.4469C20.0571 36.4256 20.0293 36.413 20 36.412C19.9973 36.4119 19.9947 36.4119 19.992 36.412ZM27.992 36.412C27.9627 36.413 27.9349 36.4256 27.9147 36.4469C27.8945 36.4682 27.8835 36.4966 27.884 36.5259C27.8845 36.5553 27.8966 36.5833 27.9175 36.6038C27.9385 36.6244 27.9666 36.6359 27.996 36.6359C28.0254 36.6359 28.0535 36.6244 28.0745 36.6038C28.0954 36.5833 28.1075 36.5553 28.108 36.5259C28.1085 36.4966 28.0975 36.4682 28.0773 36.4469C28.0571 36.4256 28.0293 36.413 28 36.412C27.9973 36.4119 27.9947 36.4119 27.992 36.412ZM19.98 36.975C19.9539 36.9791 19.9301 36.9925 19.913 37.0127C19.8959 37.0329 19.8867 37.0585 19.887 37.085C19.887 37.1147 19.8988 37.1432 19.9198 37.1642C19.9408 37.1852 19.9693 37.197 19.999 37.197C20.0287 37.197 20.0572 37.1852 20.0782 37.1642C20.0992 37.1432 20.111 37.1147 20.111 37.085C20.111 37.025 20.061 36.975 20 36.975H19.98ZM27.98 36.975C27.9539 36.9791 27.9301 36.9925 27.913 37.0127C27.8959 37.0329 27.8867 37.0585 27.887 37.085C27.887 37.1147 27.8988 37.1432 27.9198 37.1642C27.9408 37.1852 27.9693 37.197 27.999 37.197C28.0287 37.197 28.0572 37.1852 28.0782 37.1642C28.0992 37.1432 28.111 37.1147 28.111 37.085C28.111 37.025 28.061 36.975 28 36.975H27.98ZM19.992 37.535C19.9627 37.536 19.9349 37.5486 19.9147 37.5699C19.8945 37.5912 19.8835 37.6196 19.884 37.6489C19.8845 37.6783 19.8966 37.7063 19.9175 37.7268C19.9385 37.7474 19.9666 37.7589 19.996 37.7589C20.0254 37.7589 20.0535 37.7474 20.0745 37.7268C20.0954 37.7063 20.1075 37.6783 20.108 37.6489C20.1085 37.6196 20.0975 37.5912 20.0773 37.5699C20.0571 37.5486 20.0293 37.536 20 37.535C19.9973 37.5349 19.9947 37.5349 19.992 37.535ZM27.992 37.535C27.9627 37.536 27.9349 37.5486 27.9147 37.5699C27.8945 37.5912 27.8835 37.6196 27.884 37.6489C27.8845 37.6783 27.8966 37.7063 27.9175 37.7268C27.9385 37.7474 27.9666 37.7589 27.996 37.7589C28.0254 37.7589 28.0535 37.7474 28.0745 37.7268C28.0954 37.7063 28.1075 37.6783 28.108 37.6489C28.1085 37.6196 28.0975 37.5912 28.0773 37.5699C28.0571 37.5486 28.0293 37.536 28 37.535C27.9973 37.5349 27.9947 37.5349 27.992 37.535ZM24.219 37.729C24.0043 37.7214 23.7902 37.7571 23.5896 37.8341C23.3889 37.911 23.2058 38.0276 23.0512 38.1768C22.8966 38.326 22.7737 38.5049 22.6897 38.7027C22.6057 38.9004 22.5624 39.1131 22.5624 39.328C22.5624 39.5429 22.6057 39.7556 22.6897 39.9533C22.7737 40.1511 22.8966 40.33 23.0512 40.4792C23.2058 40.6284 23.3889 40.745 23.5896 40.8219C23.7902 40.8989 24.0043 40.9346 24.219 40.927C24.6363 40.9166 25.033 40.7435 25.3244 40.4446C25.6159 40.1458 25.779 39.7449 25.779 39.3275C25.779 38.9101 25.6159 38.5092 25.3244 38.2104C25.033 37.9115 24.6363 37.7384 24.219 37.728V37.729ZM19.992 38.098C19.9634 38.0998 19.9365 38.1125 19.9169 38.1335C19.8974 38.1546 19.8867 38.1823 19.887 38.211C19.887 38.2407 19.8988 38.2692 19.9198 38.2902C19.9408 38.3112 19.9693 38.323 19.999 38.323C20.0287 38.323 20.0572 38.3112 20.0782 38.2902C20.0992 38.2692 20.111 38.2407 20.111 38.211C20.1112 38.1956 20.1082 38.1803 20.1022 38.1661C20.0962 38.152 20.0873 38.1392 20.0761 38.1286C20.065 38.118 20.0517 38.1098 20.0373 38.1045C20.0228 38.0993 20.0074 38.097 19.992 38.098ZM27.992 38.098C27.9634 38.0998 27.9365 38.1125 27.9169 38.1335C27.8974 38.1546 27.8867 38.1823 27.887 38.211C27.887 38.2407 27.8988 38.2692 27.9198 38.2902C27.9408 38.3112 27.9693 38.323 27.999 38.323C28.0287 38.323 28.0572 38.3112 28.0782 38.2902C28.0992 38.2692 28.111 38.2407 28.111 38.211C28.1112 38.1956 28.1082 38.1803 28.1022 38.1661C28.0962 38.152 28.0873 38.1392 28.0761 38.1286C28.065 38.118 28.0517 38.1098 28.0373 38.1045C28.0228 38.0993 28.0074 38.097 27.992 38.098ZM19.992 38.66C19.9627 38.661 19.9349 38.6736 19.9147 38.6949C19.8945 38.7162 19.8835 38.7446 19.884 38.7739C19.8845 38.8033 19.8966 38.8313 19.9175 38.8518C19.9385 38.8724 19.9666 38.8839 19.996 38.8839C20.0254 38.8839 20.0535 38.8724 20.0745 38.8518C20.0954 38.8313 20.1075 38.8033 20.108 38.7739C20.1085 38.7446 20.0975 38.7162 20.0773 38.6949C20.0571 38.6736 20.0293 38.661 20 38.66C19.9973 38.6598 19.9947 38.6598 19.992 38.66ZM27.992 38.66C27.9627 38.661 27.9349 38.6736 27.9147 38.6949C27.8945 38.7162 27.8835 38.7446 27.884 38.7739C27.8845 38.8033 27.8966 38.8313 27.9175 38.8518C27.9385 38.8724 27.9666 38.8839 27.996 38.8839C28.0254 38.8839 28.0535 38.8724 28.0745 38.8518C28.0954 38.8313 28.1075 38.8033 28.108 38.7739C28.1085 38.7446 28.0975 38.7162 28.0773 38.6949C28.0571 38.6736 28.0293 38.661 28 38.66C27.9973 38.6598 27.9947 38.6598 27.992 38.66ZM19.992 39.223C19.9773 39.2239 19.9629 39.2277 19.9497 39.2342C19.9364 39.2407 19.9246 39.2497 19.9149 39.2608C19.9051 39.2718 19.8976 39.2847 19.8928 39.2986C19.8881 39.3125 19.8861 39.3273 19.887 39.342C19.8879 39.3567 19.8917 39.3711 19.8982 39.3843C19.9047 39.3976 19.9137 39.4094 19.9248 39.4191C19.9358 39.4289 19.9487 39.4364 19.9626 39.4412C19.9765 39.4459 19.9913 39.4479 20.006 39.447C20.0357 39.4451 20.0635 39.4316 20.0831 39.4092C20.1028 39.3869 20.1129 39.3577 20.111 39.328C20.1091 39.2983 20.0956 39.2705 20.0732 39.2509C20.0509 39.2312 20.0217 39.2211 19.992 39.223ZM27.992 39.223C27.9773 39.2239 27.9629 39.2277 27.9497 39.2342C27.9364 39.2407 27.9246 39.2497 27.9149 39.2608C27.9051 39.2718 27.8976 39.2847 27.8928 39.2986C27.8881 39.3125 27.8861 39.3273 27.887 39.342C27.8879 39.3567 27.8917 39.3711 27.8982 39.3843C27.9047 39.3976 27.9137 39.4094 27.9248 39.4191C27.9358 39.4289 27.9487 39.4364 27.9626 39.4412C27.9765 39.4459 27.9913 39.4479 28.006 39.447C28.0357 39.4451 28.0635 39.4316 28.0831 39.4092C28.1028 39.3869 28.1129 39.3577 28.111 39.328C28.1091 39.2983 28.0956 39.2705 28.0732 39.2509C28.0509 39.2312 28.0217 39.2211 27.992 39.223ZM19.992 39.785C19.9773 39.7859 19.9629 39.7897 19.9497 39.7962C19.9364 39.8027 19.9246 39.8117 19.9149 39.8228C19.9051 39.8338 19.8976 39.8467 19.8928 39.8606C19.8881 39.8745 19.8861 39.8893 19.887 39.904C19.8879 39.9187 19.8917 39.9331 19.8982 39.9463C19.9047 39.9596 19.9137 39.9714 19.9248 39.9811C19.9358 39.9909 19.9487 39.9984 19.9626 40.0032C19.9765 40.0079 19.9913 40.0099 20.006 40.009C20.0357 40.0071 20.0635 39.9936 20.0831 39.9712C20.1028 39.9489 20.1129 39.9197 20.111 39.89C20.1091 39.8603 20.0956 39.8325 20.0732 39.8129C20.0509 39.7932 20.0217 39.7831 19.992 39.785ZM27.992 39.785C27.9773 39.7859 27.9629 39.7897 27.9497 39.7962C27.9364 39.8027 27.9246 39.8117 27.9149 39.8228C27.9051 39.8338 27.8976 39.8467 27.8928 39.8606C27.8881 39.8745 27.8861 39.8893 27.887 39.904C27.8879 39.9187 27.8917 39.9331 27.8982 39.9463C27.9047 39.9596 27.9137 39.9714 27.9248 39.9811C27.9358 39.9909 27.9487 39.9984 27.9626 40.0032C27.9765 40.0079 27.9913 40.0099 28.006 40.009C28.0357 40.0071 28.0635 39.9936 28.0831 39.9712C28.1028 39.9489 28.1129 39.9197 28.111 39.89C28.1091 39.8603 28.0956 39.8325 28.0732 39.8129C28.0509 39.7932 28.0217 39.7831 27.992 39.785ZM19.992 40.348C19.9773 40.3489 19.9629 40.3527 19.9497 40.3592C19.9364 40.3657 19.9246 40.3747 19.9149 40.3858C19.9051 40.3968 19.8976 40.4097 19.8928 40.4236C19.8881 40.4375 19.8861 40.4523 19.887 40.467C19.8879 40.4817 19.8917 40.4961 19.8982 40.5093C19.9047 40.5226 19.9137 40.5344 19.9248 40.5441C19.9358 40.5539 19.9487 40.5614 19.9626 40.5662C19.9765 40.5709 19.9913 40.5729 20.006 40.572C20.0357 40.5701 20.0635 40.5566 20.0831 40.5342C20.1028 40.5119 20.1129 40.4827 20.111 40.453C20.1091 40.4233 20.0956 40.3955 20.0732 40.3759C20.0509 40.3562 20.0217 40.3461 19.992 40.348ZM27.992 40.348C27.9773 40.3489 27.9629 40.3527 27.9497 40.3592C27.9364 40.3657 27.9246 40.3747 27.9149 40.3858C27.9051 40.3968 27.8976 40.4097 27.8928 40.4236C27.8881 40.4375 27.8861 40.4523 27.887 40.467C27.8879 40.4817 27.8917 40.4961 27.8982 40.5093C27.9047 40.5226 27.9137 40.5344 27.9248 40.5441C27.9358 40.5539 27.9487 40.5614 27.9626 40.5662C27.9765 40.5709 27.9913 40.5729 28.006 40.572C28.0357 40.5701 28.0635 40.5566 28.0831 40.5342C28.1028 40.5119 28.1129 40.4827 28.111 40.453C28.1091 40.4233 28.0956 40.3955 28.0732 40.3759C28.0509 40.3562 28.0217 40.3461 27.992 40.348ZM19.98 40.91C19.9536 40.9143 19.9297 40.928 19.9126 40.9486C19.8955 40.9692 19.8864 40.9953 19.887 41.022C19.8849 41.038 19.8862 41.0542 19.8908 41.0696C19.8955 41.085 19.9034 41.0993 19.914 41.1114C19.9246 41.1235 19.9376 41.1332 19.9523 41.1399C19.967 41.1466 19.9829 41.15 19.999 41.15C20.0151 41.15 20.031 41.1466 20.0457 41.1399C20.0604 41.1332 20.0734 41.1235 20.084 41.1114C20.0946 41.0993 20.1025 41.085 20.1072 41.0696C20.1118 41.0542 20.1131 41.038 20.111 41.022C20.111 40.96 20.061 40.911 20 40.91H19.98ZM27.98 40.91C27.9536 40.9143 27.9297 40.928 27.9126 40.9486C27.8955 40.9692 27.8864 40.9953 27.887 41.022C27.8849 41.038 27.8862 41.0542 27.8908 41.0696C27.8955 41.085 27.9034 41.0993 27.914 41.1114C27.9246 41.1235 27.9376 41.1332 27.9523 41.1399C27.967 41.1466 27.9829 41.15 27.999 41.15C28.0151 41.15 28.031 41.1466 28.0457 41.1399C28.0604 41.1332 28.0734 41.1235 28.084 41.1114C28.0946 41.0993 28.1025 41.085 28.1072 41.0696C28.1118 41.0542 28.1131 41.038 28.111 41.022C28.111 40.96 28.061 40.911 28 40.91H27.98ZM19.98 41.473C19.9537 41.4771 19.9298 41.4906 19.9127 41.511C19.8956 41.5315 19.8864 41.5574 19.887 41.584C19.887 41.646 19.937 41.696 20 41.695C20.061 41.695 20.11 41.645 20.111 41.584C20.111 41.523 20.061 41.474 20 41.473H19.98ZM27.98 41.473C27.9537 41.4771 27.9298 41.4906 27.9127 41.511C27.8956 41.5315 27.8864 41.5574 27.887 41.584C27.887 41.646 27.937 41.696 28 41.695C28.061 41.695 28.11 41.645 28.111 41.584C28.111 41.523 28.061 41.474 28 41.473H27.98ZM20.002 42.033C19.9864 42.0314 19.9705 42.0331 19.9556 42.0379C19.9406 42.0428 19.9268 42.0507 19.9151 42.0612C19.9034 42.0717 19.894 42.0845 19.8875 42.0988C19.881 42.1131 19.8776 42.1287 19.8774 42.1444C19.8773 42.1601 19.8804 42.1757 19.8867 42.1902C19.8929 42.2046 19.9021 42.2176 19.9136 42.2283C19.9252 42.239 19.9388 42.2471 19.9537 42.2523C19.9685 42.2574 19.9843 42.2593 20 42.258C20.028 42.2556 20.0542 42.2429 20.0733 42.2222C20.0924 42.2016 20.1032 42.1745 20.1034 42.1464C20.1037 42.1183 20.0934 42.0911 20.0747 42.0701C20.0559 42.0491 20.03 42.0359 20.002 42.033ZM28.002 42.033C27.9864 42.0314 27.9705 42.0331 27.9556 42.0379C27.9406 42.0428 27.9268 42.0507 27.9151 42.0612C27.9034 42.0717 27.894 42.0845 27.8875 42.0988C27.881 42.1131 27.8776 42.1287 27.8774 42.1444C27.8773 42.1601 27.8804 42.1757 27.8867 42.1902C27.8929 42.2046 27.9021 42.2176 27.9136 42.2283C27.9252 42.239 27.9388 42.2471 27.9537 42.2523C27.9685 42.2574 27.9843 42.2593 28 42.258C28.028 42.2556 28.0542 42.2429 28.0733 42.2222C28.0924 42.2016 28.1032 42.1745 28.1034 42.1464C28.1037 42.1183 28.0934 42.0911 28.0747 42.0701C28.0559 42.0491 28.03 42.0359 28.002 42.033ZM19.992 42.596C19.9773 42.5969 19.9629 42.6007 19.9497 42.6072C19.9364 42.6137 19.9246 42.6227 19.9149 42.6338C19.9051 42.6448 19.8976 42.6577 19.8928 42.6716C19.8881 42.6855 19.8861 42.7003 19.887 42.715C19.8879 42.7297 19.8917 42.7441 19.8982 42.7573C19.9047 42.7706 19.9137 42.7824 19.9248 42.7921C19.9358 42.8019 19.9487 42.8094 19.9626 42.8142C19.9765 42.8189 19.9913 42.8209 20.006 42.82C20.0357 42.8181 20.0635 42.8046 20.0831 42.7822C20.1028 42.7599 20.1129 42.7307 20.111 42.701C20.1091 42.6713 20.0956 42.6435 20.0732 42.6239C20.0509 42.6042 20.0217 42.5941 19.992 42.596ZM27.992 42.596C27.9773 42.5969 27.9629 42.6007 27.9497 42.6072C27.9364 42.6137 27.9246 42.6227 27.9149 42.6338C27.9051 42.6448 27.8976 42.6577 27.8928 42.6716C27.8881 42.6855 27.8861 42.7003 27.887 42.715C27.8879 42.7297 27.8917 42.7441 27.8982 42.7573C27.9047 42.7706 27.9137 42.7824 27.9248 42.7921C27.9358 42.8019 27.9487 42.8094 27.9626 42.8142C27.9765 42.8189 27.9913 42.8209 28.006 42.82C28.0357 42.8181 28.0635 42.8046 28.0831 42.7822C28.1028 42.7599 28.1129 42.7307 28.111 42.701C28.1091 42.6713 28.0956 42.6435 28.0732 42.6239C28.0509 42.6042 28.0217 42.5941 27.992 42.596Z" fill="#333333"/>
</g>
<defs>
<clipPath id="clip0">
<rect width="48" height="48" fill="white"/>
</clipPath>
</defs>
</svg>
