<svg width="48" height="48" viewBox="0 0 48 48" fill="none" xmlns="http://www.w3.org/2000/svg">
<path d="M14.1475 4.04419C13.278 4.04419 12.5791 4.74317 12.5791 5.61261V42.474C12.5791 43.3434 13.278 44.0442 14.1475 44.0442H33.8525C34.722 44.0442 35.4209 43.3434 35.4209 42.474V5.61261C35.4209 4.74317 34.722 4.04419 33.8525 4.04419H14.1475ZM14.5791 4.5442H33.4189C34.2502 4.5442 34.9209 5.22584 34.9209 6.07352V42.0129C34.9209 42.8606 34.2502 43.5442 33.4189 43.5442H14.5791C13.7478 43.5442 13.0791 42.8606 13.0791 42.0129V6.07352C13.0791 5.22584 13.7478 4.5442 14.5791 4.5442ZM30.8447 4.77857C30.7858 4.78212 30.7396 4.83077 30.7393 4.89011C30.7387 4.95285 30.7898 5.00387 30.8525 5.00349C30.9145 5.003 30.9646 4.95209 30.9639 4.89011C30.9634 4.82888 30.9138 4.77933 30.8525 4.77857C30.8499 4.7785 30.8485 4.7785 30.8447 4.77857H30.8447ZM30.8447 5.3411C30.7858 5.34465 30.7396 5.39283 30.7393 5.45217C30.7387 5.51491 30.7898 5.56593 30.8525 5.56555C30.9145 5.56506 30.9646 5.51415 30.9639 5.45217C30.9634 5.39094 30.9138 5.34185 30.8525 5.3411C30.8499 5.34102 30.8485 5.34102 30.8447 5.3411H30.8447ZM30.8447 5.90362C30.7858 5.90717 30.7396 5.95573 30.7393 6.01469C30.7387 6.07743 30.7898 6.12845 30.8525 6.12807C30.9145 6.12758 30.9646 6.07668 30.9639 6.01469C30.9634 5.95346 30.9138 5.90437 30.8525 5.90362C30.8499 5.90354 30.8485 5.90354 30.8447 5.90362H30.8447ZM30.833 6.46603C30.7786 6.47358 30.7389 6.52238 30.7393 6.57756C30.7397 6.63955 30.7902 6.68948 30.8525 6.6891C30.9138 6.68861 30.9635 6.63917 30.9639 6.57756C30.9634 6.51633 30.9138 6.46678 30.8525 6.46603C30.8449 6.46546 30.8425 6.46546 30.835 6.46603H30.833ZM30.8526 7.02659C30.7898 7.02598 30.7389 7.07723 30.7393 7.13997C30.7398 7.20195 30.7902 7.25191 30.8526 7.25116C30.9138 7.25067 30.9631 7.20158 30.9639 7.13997C30.9644 7.07799 30.9149 7.02734 30.8526 7.02659ZM30.8447 7.58911C30.785 7.5927 30.7385 7.6424 30.7393 7.70249C30.7397 7.76448 30.7902 7.81394 30.8525 7.81357C30.9138 7.81308 30.9635 7.76372 30.9639 7.70249C30.9645 7.64051 30.9145 7.58987 30.8525 7.58911C30.8499 7.589 30.8485 7.589 30.8447 7.58911H30.8447ZM30.8447 8.15163C30.785 8.15526 30.7385 8.20492 30.7393 8.26502C30.7397 8.327 30.7902 8.37681 30.8525 8.37644C30.9138 8.37598 30.9635 8.32662 30.9639 8.26502C30.9645 8.20303 30.9145 8.15239 30.8525 8.15163C30.8499 8.15156 30.8485 8.15156 30.8447 8.15163H30.8447ZM30.8447 8.71416C30.785 8.71775 30.7385 8.76744 30.7393 8.82754C30.7397 8.88952 30.7902 8.93934 30.8525 8.93896C30.9138 8.93847 30.9635 8.88914 30.9639 8.82754C30.9645 8.76555 30.9145 8.71491 30.8525 8.71416C30.8499 8.71408 30.8485 8.71408 30.8447 8.71416H30.8447ZM30.8447 9.27657C30.7858 9.28012 30.7396 9.32879 30.7393 9.38775C30.7387 9.45049 30.7898 9.50151 30.8525 9.50114C30.9145 9.50064 30.9646 9.44974 30.9639 9.38775C30.9634 9.32653 30.9138 9.27732 30.8525 9.27657C30.8499 9.27649 30.8485 9.27649 30.8447 9.27657H30.8447ZM30.8447 9.83909C30.7858 9.84264 30.7396 9.89094 30.7393 9.95028C30.7387 10.013 30.7898 10.064 30.8525 10.0637C30.9145 10.0632 30.9646 10.0123 30.9639 9.95028C30.9634 9.88905 30.9138 9.83984 30.8525 9.83909C30.8499 9.83897 30.8485 9.83897 30.8447 9.83909H30.8447ZM30.833 10.4016C30.7786 10.4092 30.7389 10.458 30.7393 10.5131C30.7387 10.5759 30.7898 10.6269 30.8525 10.6265C30.9145 10.626 30.9646 10.5751 30.9639 10.5131C30.9634 10.4519 30.9138 10.4024 30.8525 10.4016C30.8449 10.401 30.8425 10.401 30.835 10.4016H30.833ZM25.292 10.6476V10.6496C25.0498 10.6529 24.809 10.7505 24.626 10.9388L22.8174 12.7961C22.4513 13.1722 22.4585 13.7699 22.835 14.136C23.2112 14.5023 23.8087 14.4924 24.1748 14.1171L25.9834 12.2577C26.3495 11.8813 26.3423 11.284 25.9658 10.9179C25.7777 10.735 25.5342 10.645 25.292 10.6484V10.6476ZM30.8525 10.9621C30.7898 10.9615 30.7389 11.0127 30.7393 11.0754C30.7397 11.1374 30.7902 11.187 30.8525 11.1866C30.9138 11.1861 30.9631 11.137 30.9639 11.0754C30.9644 11.0135 30.9149 10.9628 30.8525 10.9621ZM25.3564 11.1322C25.4352 11.136 25.5158 11.17 25.6006 11.2396C26.0072 11.6013 25.5257 12.0249 25.3506 12.2082L24.4854 13.1125C23.8781 13.7439 23.6141 14.1707 23.1904 13.7629C22.8307 13.3895 23.1487 13.1669 23.8369 12.468L24.7022 11.5656C24.9076 11.3646 25.1202 11.1205 25.3564 11.1321V11.1322ZM30.8525 11.5248C30.7898 11.5242 30.7389 11.5755 30.7393 11.6382C30.7397 11.7002 30.7902 11.7504 30.8525 11.7493C30.9138 11.7488 30.9631 11.6994 30.9639 11.6382C30.9644 11.5762 30.9149 11.5256 30.8525 11.5248ZM30.8447 12.0872C30.785 12.0908 30.7385 12.1405 30.7392 12.2006C30.7397 12.2626 30.7902 12.3129 30.8525 12.3121C30.9138 12.3116 30.9635 12.2618 30.9639 12.2006C30.9645 12.1386 30.9145 12.088 30.8525 12.0872C30.8499 12.0871 30.8485 12.0871 30.8447 12.0872H30.8447ZM19.7236 12.6478V12.6497C19.4814 12.653 19.2407 12.7507 19.0576 12.9389L17.249 14.7964C16.8829 15.1724 16.8902 15.7701 17.2666 16.1362C17.6428 16.5024 18.2403 16.4933 18.6064 16.1173L20.415 14.2578C20.7811 13.8814 20.7739 13.2842 20.3975 12.918C20.2093 12.7351 19.9658 12.6452 19.7236 12.6486V12.6478ZM30.8447 12.6497C30.785 12.6533 30.7385 12.703 30.7392 12.7631C30.7397 12.8251 30.7902 12.8754 30.8525 12.8747C30.9138 12.8742 30.9635 12.8244 30.9639 12.7631C30.9645 12.7011 30.9145 12.6501 30.8525 12.6497C30.8499 12.6497 30.8485 12.6497 30.8447 12.6497H30.8447ZM19.7881 13.1322C19.8668 13.136 19.9474 13.1699 20.0322 13.2395C20.4388 13.6012 19.9574 14.0249 19.7822 14.2082L18.917 15.1126C18.3097 15.744 18.0457 16.1707 17.6221 15.7629C17.2624 15.3895 17.5803 15.1671 18.2685 14.4681L19.1338 13.5657C19.3392 13.3646 19.5518 13.1205 19.7881 13.1321L19.7881 13.1322ZM30.8447 13.2123C30.7858 13.2159 30.7396 13.2641 30.7392 13.3235C30.7386 13.3862 30.7898 13.4372 30.8525 13.4368C30.9145 13.4363 30.9646 13.3854 30.9639 13.3235C30.9634 13.2622 30.9138 13.213 30.8525 13.2123C30.8499 13.2122 30.8485 13.2122 30.8447 13.2123H30.8447ZM30.8447 13.7748C30.7858 13.7784 30.7396 13.827 30.7392 13.886C30.7386 13.9487 30.7898 13.9997 30.8525 13.9994C30.9145 13.9989 30.9646 13.948 30.9639 13.886C30.9634 13.8247 30.9138 13.7755 30.8525 13.7748C30.8499 13.7747 30.8485 13.7747 30.8447 13.7748H30.8447ZM30.8447 14.3373C30.7858 14.3409 30.7396 14.3899 30.7392 14.4488C30.7386 14.5116 30.7898 14.5626 30.8525 14.5622C30.9145 14.5618 30.9646 14.5108 30.9639 14.4488C30.9634 14.3876 30.9138 14.3377 30.8525 14.3373C30.8499 14.3372 30.8485 14.3372 30.8447 14.3373H30.8447ZM30.833 14.8998C30.7786 14.9074 30.7389 14.9565 30.7392 15.0113C30.7386 15.074 30.7898 15.125 30.8525 15.1246C30.9145 15.1241 30.9646 15.0732 30.9639 15.0113C30.9634 14.95 30.9138 14.9002 30.8525 14.8998C30.8449 14.8993 30.8425 14.8993 30.835 14.8998H30.833ZM25.292 15.3432V15.3451C25.0498 15.3484 24.809 15.446 24.626 15.6342L22.8174 17.4917C22.4513 17.8677 22.4585 18.4654 22.835 18.8315C23.2112 19.1977 23.8087 19.1909 24.1748 18.8126L25.9834 16.9533C26.3495 16.5768 26.3422 15.9795 25.9658 15.6133C25.7777 15.4304 25.5342 15.3405 25.292 15.3439V15.3432ZM30.833 15.4622C30.7786 15.4698 30.7389 15.5186 30.7392 15.5738C30.7397 15.6358 30.7902 15.6856 30.8525 15.6852C30.9138 15.6847 30.9635 15.635 30.9639 15.5738C30.9634 15.5125 30.9138 15.463 30.8525 15.4622C30.8449 15.4617 30.8425 15.4617 30.835 15.4622H30.833ZM25.3564 15.8293C25.4352 15.833 25.5158 15.867 25.6006 15.9365C26.0072 16.2982 25.5257 16.72 25.3506 16.9033L24.4853 17.8076C23.8781 18.439 23.6141 18.8658 23.1904 18.458C22.8307 18.0846 23.1487 17.8641 23.8369 17.1652L24.7021 16.2608C24.9075 16.0597 25.1202 15.8176 25.3564 15.8291V15.8293ZM30.8525 16.0227C30.7898 16.0221 30.7389 16.0733 30.7393 16.1361C30.7397 16.1981 30.7902 16.2484 30.8525 16.2476C30.9138 16.2471 30.9631 16.1973 30.9639 16.1361C30.9644 16.0741 30.9149 16.0234 30.8525 16.0227ZM30.8447 16.5852C30.785 16.5888 30.7385 16.6385 30.7392 16.6986C30.7397 16.7606 30.7902 16.8109 30.8525 16.8101C30.9137 16.8096 30.9635 16.7598 30.9638 16.6986C30.9645 16.6366 30.9145 16.586 30.8525 16.5852C30.8499 16.5851 30.8485 16.5851 30.8447 16.5852H30.8447ZM30.8447 17.1477C30.785 17.1513 30.7385 17.201 30.7392 17.2611C30.7397 17.3231 30.7902 17.373 30.8525 17.3727C30.9137 17.3722 30.9635 17.3227 30.9638 17.2611C30.9645 17.1991 30.9145 17.1485 30.8525 17.1477C30.8499 17.1477 30.8485 17.1477 30.8447 17.1477H30.8447ZM30.8447 17.7103C30.7857 17.7138 30.7396 17.7624 30.7392 17.8213C30.7386 17.8841 30.7898 17.9351 30.8525 17.9347C30.9145 17.9342 30.9646 17.8833 30.9638 17.8213C30.9634 17.7601 30.9137 17.7103 30.8525 17.7103C30.8499 17.7102 30.8485 17.7102 30.8447 17.7103H30.8447ZM19.7236 17.9075V17.9096C19.4814 17.9129 19.2407 18.0104 19.0576 18.1986L17.249 20.0561C16.8829 20.4321 16.8901 21.0298 17.2666 21.3959C17.6428 21.7621 18.2403 21.753 18.6064 21.377L20.415 19.5177C20.7811 19.1412 20.7739 18.5439 20.3974 18.1777C20.2093 17.9948 19.9658 17.9049 19.7236 17.9083V17.9075ZM30.8447 18.2727C30.7857 18.2763 30.7396 18.3252 30.7392 18.3842C30.7386 18.4469 30.7898 18.498 30.8525 18.4976C30.9145 18.4971 30.9646 18.4462 30.9638 18.3842C30.9634 18.323 30.9137 18.273 30.8525 18.2727C30.8499 18.2726 30.8485 18.2726 30.8447 18.2727H30.8447ZM19.7881 18.3917C19.8668 18.3955 19.9474 18.4295 20.0322 18.4991C20.4388 18.8608 19.9573 19.2844 19.7822 19.4677L18.917 20.3721C18.3097 21.0035 18.0457 21.4303 17.6221 21.0225C17.2624 20.6491 17.5803 20.4265 18.2685 19.7276L19.1338 18.8233C19.3392 18.6222 19.5518 18.38 19.7881 18.3916L19.7881 18.3917ZM30.8447 18.8351C30.7857 18.8387 30.7396 18.8875 30.7392 18.9465C30.7386 19.0092 30.7898 19.0603 30.8525 19.0599C30.9145 19.0594 30.9646 19.0085 30.9638 18.9465C30.9634 18.8853 30.9137 18.8355 30.8525 18.8351C30.8499 18.835 30.8485 18.835 30.8447 18.8351H30.8447ZM30.833 19.3976C30.7786 19.4052 30.7389 19.4538 30.7392 19.509C30.7386 19.5718 30.7898 19.6228 30.8525 19.6224C30.9145 19.6219 30.9646 19.571 30.9638 19.509C30.9634 19.4478 30.9137 19.3984 30.8525 19.3976C30.8449 19.397 30.8425 19.397 30.8349 19.3976H30.833ZM30.8525 19.958C30.7898 19.9574 30.7389 20.0087 30.7393 20.0714C30.7397 20.1334 30.7902 20.1837 30.8525 20.183C30.9138 20.1825 30.9631 20.1327 30.9639 20.0714C30.9644 20.0094 30.9149 19.9588 30.8525 19.958ZM30.8447 20.5206C30.785 20.5242 30.7385 20.5739 30.7392 20.6339C30.7397 20.6959 30.7902 20.7462 30.8525 20.7455C30.9137 20.745 30.9635 20.6952 30.9638 20.6339C30.9645 20.572 30.9145 20.5209 30.8525 20.5206C30.8499 20.5205 30.8485 20.5205 30.8447 20.5206H30.8447ZM25.292 20.5584V20.5604C25.0498 20.5636 24.809 20.6613 24.626 20.8495L22.8174 22.7069C22.4512 23.0829 22.4585 23.6807 22.8349 24.0468C23.2112 24.413 23.8087 24.4062 24.1748 24.0279L25.9834 22.1673C26.3495 21.7909 26.3423 21.1935 25.9658 20.8274C25.7777 20.6444 25.5342 20.5545 25.292 20.5579L25.292 20.5584ZM25.3564 21.0447C25.4352 21.0485 25.5158 21.0825 25.6006 21.1521C26.0072 21.5138 25.5257 21.9356 25.3506 22.1189L24.4853 23.0231C23.8781 23.6545 23.6141 24.0814 23.1904 23.6736C22.8307 23.3001 23.1487 23.0795 23.8369 22.3806L24.7021 21.4763C24.9075 21.2752 25.1201 21.033 25.3564 21.0446V21.0447ZM30.8447 21.0837C30.785 21.0873 30.7385 21.137 30.7392 21.197C30.7397 21.259 30.7902 21.3088 30.8525 21.3085C30.9137 21.308 30.9635 21.2587 30.9638 21.197C30.9645 21.1351 30.9145 21.0844 30.8525 21.0837C30.8499 21.0836 30.8485 21.0836 30.8447 21.0837H30.8447ZM30.8447 21.6462C30.785 21.6498 30.7385 21.6995 30.7392 21.7596C30.7397 21.8216 30.7902 21.8714 30.8525 21.8706C30.9137 21.8702 30.9635 21.8212 30.9638 21.7596C30.9645 21.6976 30.9145 21.6469 30.8525 21.6462C30.8499 21.6461 30.8485 21.6461 30.8447 21.6462H30.8447ZM30.8447 22.2086C30.7857 22.2122 30.7396 22.2612 30.7392 22.3201C30.7386 22.3829 30.7898 22.4339 30.8525 22.4335C30.9145 22.433 30.9646 22.3821 30.9638 22.3201C30.9634 22.2589 30.9137 22.209 30.8525 22.2086C30.8499 22.2085 30.8485 22.2085 30.8447 22.2086H30.8447ZM30.8447 22.7711C30.7857 22.7747 30.7396 22.8237 30.7392 22.8827C30.7386 22.9454 30.7898 22.9964 30.8525 22.996C30.9145 22.9955 30.9646 22.9446 30.9638 22.8827C30.9634 22.8214 30.9137 22.7715 30.8525 22.7711C30.8499 22.771 30.8485 22.771 30.8447 22.7711H30.8447ZM19.7236 23.1657V23.1677C19.4814 23.171 19.2407 23.2685 19.0576 23.4567L17.249 25.3142C16.8829 25.6902 16.8901 26.2879 17.2666 26.654C17.6428 27.0202 18.2403 27.0134 18.6064 26.6351L20.415 24.7758C20.7811 24.3993 20.7739 23.8021 20.3974 23.436C20.2093 23.253 19.9658 23.163 19.7236 23.1664V23.1657ZM30.8447 23.3335C30.7857 23.3371 30.7396 23.3856 30.7392 23.4449C30.7386 23.5077 30.7898 23.5587 30.8525 23.5583C30.9145 23.5578 30.9646 23.5069 30.9638 23.4449C30.9634 23.3837 30.9137 23.3343 30.8525 23.3335C30.8499 23.3335 30.8485 23.3335 30.8447 23.3335H30.8447ZM19.7881 23.6518C19.8668 23.6555 19.9474 23.6895 20.0322 23.759C20.4388 24.1207 19.9573 24.5425 19.7822 24.7258L18.917 25.6301C18.3097 26.2615 18.0457 26.6883 17.6221 26.2805C17.2624 25.9071 17.5803 25.6865 18.2685 24.9875L19.1338 24.0833C19.3392 23.8822 19.5518 23.6401 19.7881 23.6516V23.6518ZM30.833 23.8958C30.7786 23.9034 30.7389 23.9522 30.7392 24.007C30.7386 24.0697 30.7898 24.1208 30.8525 24.1204C30.9145 24.1199 30.9646 24.069 30.9638 24.007C30.9634 23.9458 30.9137 23.8966 30.8525 23.8958C30.8449 23.8953 30.8425 23.8953 30.8349 23.8958H30.833ZM30.833 24.4583C30.7786 24.4659 30.7389 24.5144 30.7392 24.5695C30.7397 24.6315 30.7902 24.6817 30.8525 24.681C30.9137 24.6805 30.9635 24.6308 30.9638 24.5695C30.9634 24.5083 30.9137 24.4591 30.8525 24.4583C30.8449 24.4578 30.8425 24.4578 30.8349 24.4583H30.833ZM30.8447 25.0189C30.785 25.0225 30.7385 25.0722 30.7392 25.1323C30.7397 25.1943 30.7902 25.2442 30.8525 25.2438C30.9137 25.2433 30.9635 25.1939 30.9638 25.1323C30.9645 25.0703 30.9145 25.0197 30.8525 25.0189C30.8499 25.0188 30.8485 25.0188 30.8447 25.0189H30.8447ZM30.8447 25.5814C30.785 25.585 30.7385 25.6347 30.7392 25.6948C30.7397 25.7568 30.7902 25.8063 30.8525 25.8059C30.9137 25.8054 30.9635 25.7564 30.9638 25.6948C30.9645 25.6328 30.9145 25.5822 30.8525 25.5814C30.8499 25.5814 30.8485 25.5814 30.8447 25.5814H30.8447ZM25.292 25.7727V25.7746C25.0498 25.7779 24.809 25.8756 24.626 26.0638L22.8174 27.9211C22.4512 28.2972 22.4585 28.8949 22.8349 29.2611C23.2112 29.6273 23.8087 29.6201 24.1748 29.2422L25.9834 27.3827C26.3495 27.0063 26.3422 26.409 25.9658 26.0429C25.7777 25.86 25.5342 25.7701 25.292 25.7735L25.292 25.7727ZM30.8447 26.1438C30.785 26.1475 30.7385 26.1971 30.7392 26.2572C30.7397 26.3192 30.7902 26.369 30.8525 26.3683C30.9137 26.3678 30.9635 26.3188 30.9638 26.2572C30.9645 26.1952 30.9145 26.1446 30.8525 26.1438C30.8499 26.1437 30.8485 26.1437 30.8447 26.1438H30.8447ZM25.3564 26.2591C25.4352 26.2628 25.5158 26.2969 25.6006 26.3664C26.0071 26.7281 25.5257 27.1499 25.3506 27.3332L24.4853 28.2375C23.8781 28.8689 23.6141 29.2957 23.1904 28.8879C22.8307 28.5145 23.1487 28.2939 23.8369 27.595L24.7021 26.6907C24.9075 26.4896 25.1201 26.2474 25.3564 26.2589V26.2591ZM30.8447 26.7064C30.7857 26.71 30.7396 26.7586 30.7392 26.8179C30.7386 26.8806 30.7898 26.9317 30.8525 26.9313C30.9145 26.9308 30.9646 26.8799 30.9638 26.8179C30.9634 26.7567 30.9137 26.7071 30.8525 26.7064C30.8499 26.7062 30.8485 26.7062 30.8447 26.7064H30.8447ZM30.8447 27.2689C30.7857 27.2725 30.7396 27.3211 30.7392 27.3804C30.7386 27.4432 30.7898 27.4942 30.8525 27.4938C30.9145 27.4933 30.9646 27.4424 30.9638 27.3804C30.9634 27.3192 30.9137 27.2696 30.8525 27.2689C30.8499 27.2688 30.8485 27.2688 30.8447 27.2689H30.8447ZM30.8447 27.8314C30.7857 27.835 30.7396 27.8835 30.7392 27.9425C30.7386 28.0052 30.7898 28.0562 30.8525 28.0559C30.9145 28.0554 30.9646 28.0045 30.9638 27.9425C30.9634 27.8813 30.9137 27.8322 30.8525 27.8314C30.8499 27.8313 30.8485 27.8313 30.8447 27.8314H30.8447ZM30.833 28.3939C30.7786 28.4015 30.7389 28.4502 30.7392 28.505C30.7397 28.567 30.7902 28.6173 30.8525 28.6165C30.9137 28.616 30.9635 28.5662 30.9638 28.505C30.9634 28.4438 30.9137 28.3947 30.8525 28.3939C30.8449 28.3934 30.8425 28.3934 30.8349 28.3939H30.833ZM19.7236 28.4241V28.426C19.4814 28.4293 19.2407 28.5269 19.0576 28.7152L17.249 30.5726C16.8829 30.9487 16.8901 31.5463 17.2666 31.9124C17.6428 32.2787 18.2403 32.2696 18.6064 31.8935L20.415 30.0342C20.7811 29.6578 20.7739 29.0605 20.3974 28.6944C20.2093 28.5115 19.9658 28.4214 19.7236 28.4248V28.4241ZM19.7881 28.9085C19.8668 28.9122 19.9474 28.9463 20.0322 29.0159C20.4388 29.3776 19.9573 29.8012 19.7822 29.9845L18.917 30.8888C18.3097 31.5201 18.0457 31.947 17.6221 31.5392C17.2624 31.1658 17.5803 30.9433 18.2685 30.2444L19.1338 29.3419C19.3392 29.1409 19.5518 28.8968 19.7881 28.9084L19.7881 28.9085ZM30.8525 28.9535C30.7898 28.9528 30.7389 29.0041 30.7392 29.0668C30.7397 29.1288 30.7902 29.1787 30.8525 29.1784C30.9137 29.1779 30.9631 29.1284 30.9638 29.0668C30.9644 29.0049 30.9149 28.9542 30.8525 28.9535ZM30.8447 29.516C30.785 29.5196 30.7385 29.5693 30.7392 29.6294C30.7397 29.6913 30.7901 29.7412 30.8525 29.7404C30.9137 29.7399 30.9635 29.691 30.9638 29.6294C30.9644 29.5674 30.9145 29.5167 30.8525 29.516C30.8499 29.5159 30.8485 29.5159 30.8447 29.516H30.8447ZM30.8447 30.0784C30.785 30.082 30.7385 30.1317 30.7392 30.1918C30.7397 30.2537 30.7901 30.3033 30.8525 30.303C30.9137 30.3025 30.9635 30.2534 30.9638 30.1918C30.9644 30.1298 30.9145 30.0791 30.8525 30.0784C30.8499 30.0783 30.8485 30.0783 30.8447 30.0784H30.8447ZM30.8447 30.6409C30.785 30.6445 30.7385 30.6942 30.7392 30.7543C30.7397 30.8163 30.7901 30.8666 30.8525 30.8655C30.9137 30.865 30.9635 30.8155 30.9638 30.7543C30.9644 30.6923 30.9145 30.6417 30.8525 30.6409C30.8499 30.6408 30.8485 30.6408 30.8447 30.6409H30.8447ZM25.292 30.9867V30.9888C25.0498 30.9921 24.809 31.0896 24.6259 31.2778L22.8174 33.1353C22.4512 33.5114 22.4585 34.109 22.8349 34.4751C23.2112 34.8413 23.8087 34.8345 24.1748 34.4562L25.9834 32.5969C26.3495 32.2204 26.3422 31.6231 25.9658 31.2569C25.7776 31.074 25.5342 30.9841 25.292 30.9875V30.9867ZM30.8447 31.2037C30.7857 31.2073 30.7396 31.2559 30.7392 31.3152C30.7386 31.3779 30.7898 31.429 30.8525 31.4286C30.9145 31.4281 30.9646 31.3772 30.9638 31.3152C30.9634 31.254 30.9137 31.2044 30.8525 31.2037C30.8499 31.2035 30.8485 31.2035 30.8447 31.2037H30.8447ZM25.3564 31.4732C25.4352 31.477 25.5158 31.5109 25.6006 31.5805C26.0071 31.9422 25.5257 32.364 25.3506 32.5473L24.4853 33.4516C23.8781 34.0829 23.6141 34.5098 23.1904 34.102C22.8307 33.7286 23.1486 33.5079 23.8369 32.809L24.7021 31.9047C24.9075 31.7036 25.1201 31.4615 25.3564 31.4731L25.3564 31.4732ZM30.8447 31.7661C30.7857 31.7697 30.7396 31.8183 30.7392 31.8773C30.7386 31.94 30.7898 31.991 30.8525 31.9906C30.9145 31.9901 30.9646 31.9392 30.9638 31.8773C30.9634 31.816 30.9137 31.7668 30.8525 31.7661C30.8499 31.766 30.8485 31.766 30.8447 31.7661H30.8447ZM30.833 32.3286C30.7785 32.3362 30.7388 32.3845 30.7392 32.4397C30.7386 32.5024 30.7898 32.5535 30.8525 32.5532C30.9145 32.5527 30.9646 32.5016 30.9638 32.4397C30.9634 32.3784 30.9137 32.3293 30.8525 32.3286C30.8449 32.328 30.8425 32.328 30.8349 32.3286H30.833ZM30.833 32.8911C30.7785 32.8987 30.7388 32.9474 30.7392 33.0022C30.7397 33.0642 30.7901 33.1141 30.8525 33.1137C30.9137 33.1132 30.9635 33.0638 30.9638 33.0022C30.9634 32.941 30.9137 32.8915 30.8525 32.8911C30.8449 32.8905 30.8425 32.8905 30.8349 32.8911H30.833ZM30.8525 33.4517C30.7898 33.4511 30.7389 33.5023 30.7392 33.5651C30.7397 33.627 30.7902 33.6765 30.8525 33.6761C30.9137 33.6756 30.9631 33.6267 30.9638 33.5651C30.9644 33.5031 30.9149 33.4524 30.8525 33.4517ZM19.7236 33.6841V33.6861C19.4814 33.6893 19.2407 33.787 19.0576 33.9752L17.249 35.8326C16.8829 36.2086 16.8901 36.8064 17.2666 37.1725C17.6428 37.5387 18.2403 37.5296 18.6064 37.1536L20.415 35.2941C20.7811 34.9177 20.7739 34.3205 20.3974 33.9543C20.2093 33.7714 19.9658 33.6815 19.7236 33.6849V33.6841ZM30.8447 34.0141C30.785 34.0177 30.7385 34.0674 30.7392 34.1275C30.7397 34.1894 30.7902 34.2393 30.8525 34.2385C30.9137 34.238 30.9635 34.1891 30.9638 34.1275C30.9645 34.0655 30.9145 34.0148 30.8525 34.0141C30.8499 34.014 30.8485 34.014 30.8447 34.0141H30.8447ZM19.7881 34.1683C19.8668 34.1721 19.9474 34.206 20.0322 34.2756C20.4388 34.6373 19.9573 35.061 19.7822 35.2443L18.917 36.1486C18.3097 36.78 18.0457 37.2068 17.6221 36.799C17.2624 36.4256 17.5803 36.203 18.2685 35.5041L19.1338 34.5998C19.3392 34.3987 19.5518 34.1566 19.7881 34.1682L19.7881 34.1683ZM30.8447 34.5765C30.785 34.5801 30.7385 34.6298 30.7392 34.6899C30.7397 34.7519 30.7902 34.8013 30.8525 34.8009C30.9137 34.8005 30.9635 34.7515 30.9638 34.6899C30.9645 34.6279 30.9145 34.5772 30.8525 34.5765C30.8499 34.5764 30.8485 34.5764 30.8447 34.5765H30.8447ZM30.8447 35.1389C30.7857 35.1425 30.7396 35.1911 30.7392 35.2504C30.7386 35.3132 30.7898 35.3642 30.8525 35.3638C30.9145 35.3633 30.9646 35.3124 30.9638 35.2504C30.9634 35.1892 30.9137 35.1397 30.8525 35.1389C30.8499 35.1388 30.8485 35.1388 30.8447 35.1389H30.8447ZM30.8447 35.7014C30.7857 35.705 30.7396 35.7537 30.7392 35.8126C30.7386 35.8754 30.7898 35.9264 30.8525 35.926C30.9145 35.9255 30.9646 35.8746 30.9638 35.8126C30.9634 35.7514 30.9137 35.7022 30.8525 35.7014C30.8499 35.7013 30.8485 35.7013 30.8447 35.7014H30.8447ZM30.8447 36.2639C30.7857 36.2675 30.7396 36.3161 30.7392 36.375C30.7386 36.4378 30.7898 36.4889 30.8525 36.4885C30.9145 36.488 30.9646 36.437 30.9638 36.375C30.9634 36.3138 30.9137 36.2647 30.8525 36.2639C30.8499 36.2639 30.8485 36.2639 30.8447 36.2639H30.8447ZM30.8447 36.8265C30.7857 36.8301 30.7396 36.8782 30.7392 36.9375C30.7386 37.0003 30.7898 37.0513 30.8525 37.0509C30.9145 37.0504 30.9646 36.9995 30.9638 36.9375C30.9634 36.8763 30.9137 36.8272 30.8525 36.8265C30.8499 36.8264 30.8485 36.8264 30.8447 36.8265H30.8447ZM30.833 37.389C30.7786 37.3965 30.7389 37.4452 30.7392 37.5004C30.7397 37.5624 30.7902 37.6127 30.8525 37.6116C30.9137 37.6111 30.9635 37.5616 30.9638 37.5004C30.9634 37.4392 30.9137 37.3897 30.8525 37.389C30.8449 37.3884 30.8425 37.3884 30.8349 37.389H30.833ZM30.8447 37.9494C30.785 37.9531 30.7385 38.0027 30.7392 38.0628C30.7397 38.1248 30.7902 38.1744 30.8525 38.174C30.9137 38.1735 30.9635 38.1244 30.9638 38.0628C30.9645 38.0008 30.9145 37.9502 30.8525 37.9494C30.8499 37.9494 30.8485 37.9494 30.8447 37.9494H30.8447ZM30.8447 38.512C30.785 38.5156 30.7385 38.5652 30.7392 38.6253C30.7397 38.6873 30.7902 38.7373 30.8525 38.7365C30.9137 38.736 30.9635 38.687 30.9638 38.6253C30.9645 38.5634 30.9145 38.5127 30.8525 38.512C30.8499 38.5118 30.8485 38.5118 30.8447 38.512H30.8447ZM30.8447 39.0745C30.785 39.0781 30.7385 39.1278 30.7392 39.1879C30.7397 39.2499 30.7902 39.2998 30.8525 39.2994C30.9137 39.2989 30.9635 39.2495 30.9638 39.1879C30.9645 39.1259 30.9145 39.0752 30.8525 39.0745C30.8499 39.0744 30.8485 39.0744 30.8447 39.0745H30.8447ZM30.8447 39.637C30.7857 39.6406 30.7396 39.6892 30.7392 39.7485C30.7386 39.8113 30.7898 39.8623 30.8525 39.8619C30.9145 39.8614 30.9646 39.8105 30.9638 39.7485C30.9634 39.6873 30.9137 39.6378 30.8525 39.637C30.8499 39.6369 30.8485 39.6369 30.8447 39.637H30.8447ZM30.8447 40.1995C30.7857 40.2031 30.7396 40.2516 30.7392 40.3106C30.7386 40.3733 30.7898 40.4244 30.8525 40.424C30.9145 40.4235 30.9646 40.3726 30.9638 40.3106C30.9634 40.2494 30.9137 40.2003 30.8525 40.1995C30.8499 40.1995 30.8485 40.1995 30.8447 40.1995H30.8447ZM30.8447 40.7621C30.7857 40.7656 30.7396 40.8142 30.7392 40.8731C30.7386 40.9359 30.7898 40.9869 30.8525 40.9865C30.9145 40.986 30.9646 40.9351 30.9638 40.8731C30.9634 40.8119 30.9137 40.7628 30.8525 40.7621C30.8499 40.762 30.8485 40.762 30.8447 40.7621H30.8447ZM30.833 41.3245C30.7786 41.332 30.7389 41.3808 30.7392 41.436C30.7386 41.4987 30.7898 41.5498 30.8525 41.5494C30.9145 41.5489 30.9646 41.498 30.9638 41.436C30.9634 41.3748 30.9137 41.3252 30.8525 41.3245C30.8449 41.3239 30.8425 41.3239 30.8349 41.3245H30.833ZM30.833 41.887C30.7786 41.8945 30.7389 41.9433 30.7392 41.9985C30.7397 42.0605 30.7902 42.1104 30.8525 42.1096C30.9137 42.1091 30.9635 42.0601 30.9638 41.9985C30.9634 41.9373 30.9137 41.8877 30.8525 41.887C30.8449 41.8864 30.8425 41.8864 30.8349 41.887H30.833ZM30.8525 42.4475C30.7898 42.4469 30.7389 42.4982 30.7393 42.5609C30.7397 42.6229 30.7902 42.6724 30.8525 42.672C30.9138 42.6715 30.9631 42.6225 30.9639 42.5609C30.9644 42.4989 30.9149 42.4483 30.8525 42.4475ZM30.8447 43.0101C30.785 43.0137 30.7385 43.0634 30.7392 43.1235C30.7397 43.1854 30.7902 43.2352 30.8525 43.2349C30.9137 43.2344 30.9635 43.1851 30.9638 43.1235C30.9645 43.0615 30.9145 43.0108 30.8525 43.0101C30.8499 43.01 30.8485 43.01 30.8447 43.0101H30.8447Z" fill="#333333"/>
</svg>
