<svg width="48" height="48" viewBox="0 0 48 48" fill="none" xmlns="http://www.w3.org/2000/svg">
<path d="M14.3457 4.07227C13.4763 4.07227 12.7773 4.77118 12.7773 5.64062V42.5C12.7773 43.3694 13.4763 44.0703 14.3457 44.0703H34.0508C34.9202 44.0703 35.6191 43.3694 35.6191 42.5V5.64062C35.6191 4.77118 34.9202 4.07227 34.0508 4.07227H14.3457ZM21.5156 9.16992C22.3992 9.16996 23.1152 9.88592 23.1152 10.7695C23.1152 11.6532 22.3992 12.3691 21.5156 12.3691C20.632 12.3691 19.9161 11.6532 19.916 10.7695C19.9161 9.88592 20.632 9.16996 21.5156 9.16992ZM26.9375 9.16992C27.8211 9.16996 28.5371 9.88592 28.5371 10.7695C28.5371 11.6532 27.8211 12.3691 26.9375 12.3691C26.0538 12.3691 25.3379 11.6532 25.3379 10.7695C25.3379 9.88592 26.0538 9.16996 26.9375 9.16992ZM13.832 17.2988C13.8948 17.2985 13.9459 17.3494 13.9453 17.4121C13.9446 17.4745 13.894 17.524 13.832 17.5234C13.7704 17.5227 13.7212 17.4733 13.7207 17.4121C13.7203 17.3497 13.7701 17.2993 13.832 17.2988ZM14.3945 17.2988C14.4497 17.2984 14.4983 17.3382 14.5059 17.3926C14.5064 17.4001 14.5064 17.4045 14.5059 17.4121C14.5051 17.4733 14.4558 17.523 14.3945 17.5234C14.3329 17.5231 14.2817 17.4733 14.2812 17.4121C14.2809 17.3497 14.3326 17.2993 14.3945 17.2988ZM14.957 17.2988C15.0122 17.2984 15.0608 17.3382 15.0684 17.3926C15.0689 17.4001 15.0689 17.4045 15.0684 17.4121C15.0676 17.4733 15.0183 17.523 14.957 17.5234C14.8951 17.5242 14.8442 17.4741 14.8437 17.4121C14.8434 17.3494 14.8943 17.2982 14.957 17.2988ZM15.5195 17.2988C15.5789 17.2992 15.6273 17.3453 15.6309 17.4043C15.6309 17.4081 15.6309 17.4095 15.6309 17.4121C15.6301 17.4733 15.5808 17.523 15.5195 17.5234C15.4576 17.5242 15.4067 17.4741 15.4062 17.4121C15.4059 17.3494 15.4568 17.2982 15.5195 17.2988ZM16.082 17.2988C16.1414 17.2992 16.1898 17.3453 16.1934 17.4043C16.1934 17.4081 16.1934 17.4095 16.1934 17.4121C16.1926 17.4733 16.1433 17.523 16.082 17.5234C16.0201 17.5242 15.9692 17.4741 15.9687 17.4121C15.9684 17.3494 16.0193 17.2982 16.082 17.2988ZM16.6445 17.2988C16.7039 17.2992 16.7523 17.3453 16.7559 17.4043C16.7559 17.4081 16.7559 17.4095 16.7559 17.4121C16.7551 17.4733 16.7058 17.523 16.6445 17.5234C16.5826 17.5242 16.5317 17.4741 16.5312 17.4121C16.5309 17.3494 16.5818 17.2982 16.6445 17.2988ZM17.2051 17.2988C17.2652 17.2981 17.3148 17.3446 17.3184 17.4043C17.3185 17.4081 17.3185 17.4095 17.3184 17.4121C17.3176 17.4741 17.2671 17.524 17.2051 17.5234C17.1435 17.5231 17.0942 17.4733 17.0937 17.4121C17.0934 17.3497 17.1431 17.2993 17.2051 17.2988ZM17.7676 17.2988C17.8277 17.2981 17.8773 17.3446 17.8809 17.4043C17.881 17.4081 17.881 17.4095 17.8809 17.4121C17.8801 17.4741 17.8296 17.524 17.7676 17.5234C17.706 17.5231 17.6567 17.4733 17.6562 17.4121C17.6559 17.3497 17.7056 17.2993 17.7676 17.2988ZM18.3301 17.2988C18.3902 17.2981 18.4398 17.3446 18.4434 17.4043C18.4434 17.4081 18.4434 17.4095 18.4434 17.4121C18.4426 17.4741 18.3921 17.524 18.3301 17.5234C18.2685 17.5231 18.2192 17.4733 18.2187 17.4121C18.2184 17.3497 18.2681 17.2993 18.3301 17.2988ZM18.8926 17.2988C18.9478 17.2984 18.9963 17.3382 19.0039 17.3926C19.0045 17.4001 19.0045 17.4045 19.0039 17.4121C19.0031 17.4733 18.9538 17.523 18.8926 17.5234C18.8313 17.5231 18.7817 17.4733 18.7812 17.4121C18.7805 17.3497 18.8306 17.2993 18.8926 17.2988ZM19.4551 17.2988C19.5144 17.2992 19.5628 17.3453 19.5664 17.4043C19.5665 17.4081 19.5665 17.4095 19.5664 17.4121C19.5656 17.4733 19.5163 17.523 19.4551 17.5234C19.3931 17.5242 19.3423 17.4741 19.3418 17.4121C19.3414 17.3494 19.3923 17.2982 19.4551 17.2988ZM20.0176 17.2988C20.0769 17.2992 20.1253 17.3453 20.1289 17.4043C20.129 17.4081 20.129 17.4095 20.1289 17.4121C20.1281 17.4733 20.0788 17.523 20.0176 17.5234C19.9556 17.5242 19.9048 17.4741 19.9043 17.4121C19.9039 17.3494 19.9548 17.2982 20.0176 17.2988ZM20.5801 17.2988C20.6394 17.2992 20.6878 17.3453 20.6914 17.4043C20.6915 17.4081 20.6915 17.4095 20.6914 17.4121C20.6906 17.4733 20.6413 17.523 20.5801 17.5234C20.5181 17.5242 20.4673 17.4741 20.4668 17.4121C20.4664 17.3494 20.5173 17.2982 20.5801 17.2988ZM21.1426 17.2988C21.2019 17.2992 21.2503 17.3453 21.2539 17.4043C21.254 17.4081 21.254 17.4095 21.2539 17.4121C21.2531 17.4733 21.2038 17.523 21.1426 17.5234C21.0806 17.5242 21.0298 17.4741 21.0293 17.4121C21.0289 17.3494 21.0798 17.2982 21.1426 17.2988ZM21.7031 17.2988C21.7632 17.2981 21.8128 17.3446 21.8164 17.4043C21.8165 17.4081 21.8165 17.4095 21.8164 17.4121C21.8156 17.4741 21.7651 17.524 21.7031 17.5234C21.6415 17.5231 21.5923 17.4733 21.5918 17.4121C21.5914 17.3497 21.6411 17.2993 21.7031 17.2988ZM22.2656 17.2988C22.3257 17.2981 22.3753 17.3446 22.3789 17.4043C22.379 17.4081 22.379 17.4095 22.3789 17.4121C22.3781 17.4741 22.3276 17.524 22.2656 17.5234C22.204 17.5231 22.1548 17.4733 22.1543 17.4121C22.1539 17.3497 22.2036 17.2993 22.2656 17.2988ZM22.8281 17.2988C22.8909 17.2985 22.942 17.3494 22.9414 17.4121C22.9406 17.4745 22.8901 17.524 22.8281 17.5234C22.7665 17.5227 22.7173 17.4733 22.7168 17.4121C22.7164 17.3497 22.7661 17.2993 22.8281 17.2988ZM23.3906 17.2988C23.4454 17.2984 23.4944 17.3382 23.502 17.3926C23.5025 17.4001 23.5025 17.4045 23.502 17.4121C23.5016 17.4733 23.4519 17.523 23.3906 17.5234C23.329 17.5231 23.2798 17.4733 23.2793 17.4121C23.2789 17.3497 23.3286 17.2993 23.3906 17.2988ZM23.9531 17.2988C24.0083 17.2984 24.0569 17.3382 24.0645 17.3926C24.065 17.4001 24.065 17.4045 24.0645 17.4121C24.0637 17.4733 24.0144 17.523 23.9531 17.5234C23.8911 17.5242 23.8403 17.4741 23.8398 17.4121C23.8395 17.3494 23.8904 17.2982 23.9531 17.2988ZM24.5156 17.2988C24.575 17.2992 24.6234 17.3453 24.627 17.4043C24.627 17.4081 24.627 17.4095 24.627 17.4121C24.6262 17.4733 24.5769 17.523 24.5156 17.5234C24.4536 17.5242 24.4028 17.4741 24.4023 17.4121C24.402 17.3494 24.4529 17.2982 24.5156 17.2988ZM25.0781 17.2988C25.1375 17.2992 25.1859 17.3453 25.1895 17.4043C25.1896 17.4081 25.1896 17.4095 25.1895 17.4121C25.1887 17.4733 25.1394 17.523 25.0781 17.5234C25.0161 17.5242 24.9653 17.4741 24.9648 17.4121C24.9645 17.3494 25.0154 17.2982 25.0781 17.2988ZM25.6387 17.2988C25.6988 17.2981 25.7484 17.3446 25.752 17.4043C25.7521 17.4081 25.7521 17.4095 25.752 17.4121C25.7512 17.4741 25.7007 17.524 25.6387 17.5234C25.5774 17.5231 25.5278 17.4733 25.5273 17.4121C25.5266 17.3497 25.5767 17.2993 25.6387 17.2988ZM26.2012 17.2988C26.2613 17.2981 26.3109 17.3446 26.3145 17.4043C26.3145 17.4081 26.3145 17.4095 26.3145 17.4121C26.3137 17.4741 26.2632 17.524 26.2012 17.5234C26.1396 17.5231 26.0903 17.4733 26.0898 17.4121C26.0895 17.3497 26.1392 17.2993 26.2012 17.2988ZM26.7637 17.2988C26.8238 17.2981 26.8734 17.3446 26.877 17.4043C26.877 17.4081 26.877 17.4095 26.877 17.4121C26.8762 17.4741 26.8257 17.524 26.7637 17.5234C26.7021 17.5231 26.6528 17.4733 26.6523 17.4121C26.652 17.3497 26.7017 17.2993 26.7637 17.2988ZM27.3262 17.2988C27.3889 17.2985 27.4401 17.3494 27.4395 17.4121C27.4387 17.4745 27.3882 17.524 27.3262 17.5234C27.2646 17.5227 27.2153 17.4733 27.2148 17.4121C27.2145 17.3497 27.2642 17.2993 27.3262 17.2988ZM27.8887 17.2988C27.9438 17.2984 27.9924 17.3382 28 17.3926C28.0006 17.4001 28.0006 17.4045 28 17.4121C27.9992 17.4733 27.9499 17.523 27.8887 17.5234C27.8274 17.5231 27.7778 17.4733 27.7773 17.4121C27.7766 17.3497 27.8267 17.2993 27.8887 17.2988ZM28.4512 17.2988C28.5105 17.2992 28.5589 17.3453 28.5625 17.4043C28.5626 17.4081 28.5626 17.4095 28.5625 17.4121C28.5617 17.4733 28.5124 17.523 28.4512 17.5234C28.3892 17.5242 28.3384 17.4741 28.3379 17.4121C28.3375 17.3494 28.3884 17.2982 28.4512 17.2988ZM29.0137 17.2988C29.073 17.2992 29.1214 17.3453 29.125 17.4043C29.1251 17.4081 29.1251 17.4095 29.125 17.4121C29.1242 17.4733 29.0749 17.523 29.0137 17.5234C28.9517 17.5242 28.9009 17.4741 28.9004 17.4121C28.9 17.3494 28.9509 17.2982 29.0137 17.2988ZM29.5762 17.2988C29.6355 17.2992 29.6839 17.3453 29.6875 17.4043C29.6876 17.4081 29.6876 17.4095 29.6875 17.4121C29.6867 17.4733 29.6374 17.523 29.5762 17.5234C29.5142 17.5242 29.4634 17.4741 29.4629 17.4121C29.4625 17.3494 29.5134 17.2982 29.5762 17.2988ZM30.1367 17.2988C30.1968 17.2981 30.2464 17.3446 30.25 17.4043C30.2501 17.4081 30.2501 17.4095 30.25 17.4121C30.2492 17.4741 30.1987 17.524 30.1367 17.5234C30.0751 17.5231 30.0259 17.4733 30.0254 17.4121C30.025 17.3497 30.0747 17.2993 30.1367 17.2988ZM30.6992 17.2988C30.7593 17.2981 30.8089 17.3446 30.8125 17.4043C30.8126 17.4081 30.8126 17.4095 30.8125 17.4121C30.8117 17.4741 30.7612 17.524 30.6992 17.5234C30.6376 17.5231 30.5884 17.4733 30.5879 17.4121C30.5875 17.3497 30.6372 17.2993 30.6992 17.2988ZM31.2617 17.2988C31.3218 17.2981 31.3714 17.3446 31.375 17.4043C31.3751 17.4081 31.3751 17.4095 31.375 17.4121C31.3742 17.4741 31.3237 17.524 31.2617 17.5234C31.2001 17.5231 31.1509 17.4733 31.1504 17.4121C31.15 17.3497 31.1997 17.2993 31.2617 17.2988ZM31.8242 17.2988C31.8794 17.2984 31.9279 17.3382 31.9355 17.3926C31.9361 17.4001 31.9361 17.4045 31.9355 17.4121C31.9348 17.4733 31.8854 17.523 31.8242 17.5234C31.763 17.5231 31.7134 17.4733 31.7129 17.4121C31.7121 17.3497 31.7622 17.2993 31.8242 17.2988ZM32.3867 17.2988C32.4419 17.2984 32.4904 17.3382 32.498 17.3926C32.4986 17.4001 32.4986 17.4045 32.498 17.4121C32.4973 17.4733 32.4479 17.523 32.3867 17.5234C32.3247 17.5242 32.2739 17.4741 32.2734 17.4121C32.2731 17.3494 32.324 17.2982 32.3867 17.2988ZM32.9492 17.2988C33.0086 17.2992 33.0569 17.3453 33.0605 17.4043C33.0606 17.4081 33.0606 17.4095 33.0605 17.4121C33.0598 17.4733 33.0104 17.523 32.9492 17.5234C32.8872 17.5242 32.8364 17.4741 32.8359 17.4121C32.8356 17.3494 32.8865 17.2982 32.9492 17.2988ZM33.5117 17.2988C33.5707 17.2992 33.6194 17.3453 33.623 17.4043C33.6232 17.4081 33.6232 17.4095 33.623 17.4121C33.6227 17.4733 33.5729 17.523 33.5117 17.5234C33.4497 17.5242 33.3989 17.4741 33.3984 17.4121C33.3981 17.3494 33.449 17.2982 33.5117 17.2988ZM34.0742 17.2988C34.1332 17.2992 34.1819 17.3453 34.1855 17.4043C34.1857 17.4081 34.1857 17.4095 34.1855 17.4121C34.1852 17.4733 34.1354 17.523 34.0742 17.5234C34.0122 17.5242 33.9614 17.4741 33.9609 17.4121C33.9606 17.3494 34.0115 17.2982 34.0742 17.2988ZM34.6348 17.2988C34.6949 17.2981 34.7444 17.3446 34.748 17.4043C34.7481 17.4081 34.7481 17.4095 34.748 17.4121C34.7473 17.4741 34.6967 17.524 34.6348 17.5234C34.5732 17.5231 34.5239 17.4733 34.5234 17.4121C34.5231 17.3497 34.5728 17.2993 34.6348 17.2988ZM18.7773 22.4277C19.661 22.4278 20.3769 23.1437 20.377 24.0273C20.3769 24.911 19.661 25.627 18.7773 25.627C17.8937 25.627 17.1778 24.911 17.1777 24.0273C17.1778 23.1437 17.8937 22.4278 18.7773 22.4277ZM24.1992 22.4277C25.0828 22.4278 25.7988 23.1437 25.7988 24.0273C25.7988 24.911 25.0828 25.627 24.1992 25.627C23.3156 25.627 22.5996 24.911 22.5996 24.0273C22.5996 23.1437 23.3156 22.4278 24.1992 22.4277ZM29.6211 22.4277C30.5047 22.4278 31.2207 23.1437 31.2207 24.0273C31.2207 24.911 30.5047 25.627 29.6211 25.627C28.7374 25.627 28.0215 24.911 28.0215 24.0273C28.0215 23.1437 28.7374 22.4278 29.6211 22.4277ZM13.832 30.5371C13.8948 30.5367 13.9459 30.5876 13.9453 30.6504C13.9446 30.7127 13.894 30.7623 13.832 30.7617C13.7704 30.761 13.7212 30.7116 13.7207 30.6504C13.7203 30.588 13.7701 30.5376 13.832 30.5371ZM14.3945 30.5371C14.4497 30.5367 14.4983 30.5764 14.5059 30.6309C14.5064 30.6384 14.5064 30.6428 14.5059 30.6504C14.5051 30.7116 14.4558 30.7613 14.3945 30.7617C14.3329 30.7613 14.2817 30.7116 14.2812 30.6504C14.2809 30.588 14.3326 30.5376 14.3945 30.5371ZM14.957 30.5371C15.0122 30.5367 15.0608 30.5764 15.0684 30.6309C15.0689 30.6384 15.0689 30.6428 15.0684 30.6504C15.0676 30.7116 15.0183 30.7613 14.957 30.7617C14.8951 30.7625 14.8442 30.7124 14.8437 30.6504C14.8434 30.5876 14.8943 30.5365 14.957 30.5371ZM15.5195 30.5371C15.5789 30.5375 15.6273 30.5836 15.6309 30.6426C15.6309 30.6464 15.6309 30.6478 15.6309 30.6504C15.6301 30.7116 15.5808 30.7613 15.5195 30.7617C15.4576 30.7625 15.4067 30.7124 15.4062 30.6504C15.4059 30.5876 15.4568 30.5365 15.5195 30.5371ZM16.082 30.5371C16.1414 30.5375 16.1898 30.5836 16.1934 30.6426C16.1934 30.6464 16.1934 30.6478 16.1934 30.6504C16.1926 30.7116 16.1433 30.7613 16.082 30.7617C16.0201 30.7625 15.9692 30.7124 15.9687 30.6504C15.9684 30.5876 16.0193 30.5365 16.082 30.5371ZM16.6445 30.5371C16.7039 30.5375 16.7523 30.5836 16.7559 30.6426C16.7559 30.6464 16.7559 30.6478 16.7559 30.6504C16.7551 30.7116 16.7058 30.7613 16.6445 30.7617C16.5826 30.7625 16.5317 30.7124 16.5312 30.6504C16.5309 30.5876 16.5818 30.5365 16.6445 30.5371ZM17.2051 30.5371C17.2652 30.5364 17.3148 30.5829 17.3184 30.6426C17.3185 30.6464 17.3185 30.6478 17.3184 30.6504C17.3176 30.7124 17.2671 30.7623 17.2051 30.7617C17.1435 30.7613 17.0942 30.7116 17.0937 30.6504C17.0934 30.588 17.1431 30.5376 17.2051 30.5371ZM17.7676 30.5371C17.8277 30.5364 17.8773 30.5829 17.8809 30.6426C17.881 30.6464 17.881 30.6478 17.8809 30.6504C17.8801 30.7124 17.8296 30.7623 17.7676 30.7617C17.706 30.7613 17.6567 30.7116 17.6562 30.6504C17.6559 30.588 17.7056 30.5376 17.7676 30.5371ZM18.3301 30.5371C18.3902 30.5364 18.4398 30.5829 18.4434 30.6426C18.4434 30.6464 18.4434 30.6478 18.4434 30.6504C18.4426 30.7124 18.3921 30.7623 18.3301 30.7617C18.2685 30.7613 18.2192 30.7116 18.2187 30.6504C18.2184 30.588 18.2681 30.5376 18.3301 30.5371ZM18.8926 30.5371C18.9478 30.5367 18.9963 30.5764 19.0039 30.6309C19.0045 30.6384 19.0045 30.6428 19.0039 30.6504C19.0031 30.7116 18.9538 30.7613 18.8926 30.7617C18.8313 30.7613 18.7817 30.7116 18.7812 30.6504C18.7805 30.588 18.8306 30.5376 18.8926 30.5371ZM19.4551 30.5371C19.5144 30.5375 19.5628 30.5836 19.5664 30.6426C19.5665 30.6464 19.5665 30.6478 19.5664 30.6504C19.5656 30.7116 19.5163 30.7613 19.4551 30.7617C19.3931 30.7625 19.3423 30.7124 19.3418 30.6504C19.3414 30.5876 19.3923 30.5365 19.4551 30.5371ZM20.0176 30.5371C20.0769 30.5375 20.1253 30.5836 20.1289 30.6426C20.129 30.6464 20.129 30.6478 20.1289 30.6504C20.1281 30.7116 20.0788 30.7613 20.0176 30.7617C19.9556 30.7625 19.9048 30.7124 19.9043 30.6504C19.9039 30.5876 19.9548 30.5365 20.0176 30.5371ZM20.5801 30.5371C20.6394 30.5375 20.6878 30.5836 20.6914 30.6426C20.6915 30.6464 20.6915 30.6478 20.6914 30.6504C20.6906 30.7116 20.6413 30.7613 20.5801 30.7617C20.5181 30.7625 20.4673 30.7124 20.4668 30.6504C20.4664 30.5876 20.5173 30.5365 20.5801 30.5371ZM21.1426 30.5371C21.2019 30.5375 21.2503 30.5836 21.2539 30.6426C21.254 30.6464 21.254 30.6478 21.2539 30.6504C21.2531 30.7116 21.2038 30.7613 21.1426 30.7617C21.0806 30.7625 21.0298 30.7124 21.0293 30.6504C21.0289 30.5876 21.0798 30.5365 21.1426 30.5371ZM21.7031 30.5371C21.7632 30.5364 21.8128 30.5829 21.8164 30.6426C21.8165 30.6464 21.8165 30.6478 21.8164 30.6504C21.8156 30.7124 21.7651 30.7623 21.7031 30.7617C21.6415 30.7613 21.5923 30.7116 21.5918 30.6504C21.5914 30.588 21.6411 30.5376 21.7031 30.5371ZM22.2656 30.5371C22.3257 30.5364 22.3753 30.5829 22.3789 30.6426C22.379 30.6464 22.379 30.6478 22.3789 30.6504C22.3781 30.7124 22.3276 30.7623 22.2656 30.7617C22.204 30.7613 22.1548 30.7116 22.1543 30.6504C22.1539 30.588 22.2036 30.5376 22.2656 30.5371ZM22.8281 30.5371C22.8909 30.5367 22.942 30.5876 22.9414 30.6504C22.9406 30.7127 22.8901 30.7623 22.8281 30.7617C22.7665 30.761 22.7173 30.7116 22.7168 30.6504C22.7164 30.588 22.7661 30.5376 22.8281 30.5371ZM23.3906 30.5371C23.4454 30.5367 23.4944 30.5764 23.502 30.6309C23.5025 30.6384 23.5025 30.6428 23.502 30.6504C23.5016 30.7116 23.4519 30.7613 23.3906 30.7617C23.329 30.7613 23.2798 30.7116 23.2793 30.6504C23.2789 30.588 23.3286 30.5376 23.3906 30.5371ZM23.9531 30.5371C24.0083 30.5367 24.0569 30.5764 24.0645 30.6309C24.065 30.6384 24.065 30.6428 24.0645 30.6504C24.0637 30.7116 24.0144 30.7613 23.9531 30.7617C23.8911 30.7625 23.8403 30.7124 23.8398 30.6504C23.8395 30.5876 23.8904 30.5365 23.9531 30.5371ZM24.5156 30.5371C24.575 30.5375 24.6234 30.5836 24.627 30.6426C24.627 30.6464 24.627 30.6478 24.627 30.6504C24.6262 30.7116 24.5769 30.7613 24.5156 30.7617C24.4536 30.7625 24.4028 30.7124 24.4023 30.6504C24.402 30.5876 24.4529 30.5365 24.5156 30.5371ZM25.0781 30.5371C25.1375 30.5375 25.1859 30.5836 25.1895 30.6426C25.1896 30.6464 25.1896 30.6478 25.1895 30.6504C25.1887 30.7116 25.1394 30.7613 25.0781 30.7617C25.0161 30.7625 24.9653 30.7124 24.9648 30.6504C24.9645 30.5876 25.0154 30.5365 25.0781 30.5371ZM25.6387 30.5371C25.6988 30.5364 25.7484 30.5829 25.752 30.6426C25.7521 30.6464 25.7521 30.6478 25.752 30.6504C25.7512 30.7124 25.7007 30.7623 25.6387 30.7617C25.5774 30.7613 25.5278 30.7116 25.5273 30.6504C25.5266 30.588 25.5767 30.5376 25.6387 30.5371ZM26.2012 30.5371C26.2613 30.5364 26.3109 30.5829 26.3145 30.6426C26.3145 30.6464 26.3145 30.6478 26.3145 30.6504C26.3137 30.7124 26.2632 30.7623 26.2012 30.7617C26.1396 30.7613 26.0903 30.7116 26.0898 30.6504C26.0895 30.588 26.1392 30.5376 26.2012 30.5371ZM26.7637 30.5371C26.8238 30.5364 26.8734 30.5829 26.877 30.6426C26.877 30.6464 26.877 30.6478 26.877 30.6504C26.8762 30.7124 26.8257 30.7623 26.7637 30.7617C26.7021 30.7613 26.6528 30.7116 26.6523 30.6504C26.652 30.588 26.7017 30.5376 26.7637 30.5371ZM27.3262 30.5371C27.3889 30.5367 27.4401 30.5876 27.4395 30.6504C27.4387 30.7127 27.3882 30.7623 27.3262 30.7617C27.2646 30.761 27.2153 30.7116 27.2148 30.6504C27.2145 30.588 27.2642 30.5376 27.3262 30.5371ZM27.8887 30.5371C27.9438 30.5367 27.9924 30.5764 28 30.6309C28.0006 30.6384 28.0006 30.6428 28 30.6504C27.9992 30.7116 27.9499 30.7613 27.8887 30.7617C27.8274 30.7613 27.7778 30.7116 27.7773 30.6504C27.7766 30.588 27.8267 30.5376 27.8887 30.5371ZM28.4512 30.5371C28.5105 30.5375 28.5589 30.5836 28.5625 30.6426C28.5626 30.6464 28.5626 30.6478 28.5625 30.6504C28.5617 30.7116 28.5124 30.7613 28.4512 30.7617C28.3892 30.7625 28.3384 30.7124 28.3379 30.6504C28.3375 30.5876 28.3884 30.5365 28.4512 30.5371ZM29.0137 30.5371C29.073 30.5375 29.1214 30.5836 29.125 30.6426C29.1251 30.6464 29.1251 30.6478 29.125 30.6504C29.1242 30.7116 29.0749 30.7613 29.0137 30.7617C28.9517 30.7625 28.9009 30.7124 28.9004 30.6504C28.9 30.5876 28.9509 30.5365 29.0137 30.5371ZM29.5762 30.5371C29.6355 30.5375 29.6839 30.5836 29.6875 30.6426C29.6876 30.6464 29.6876 30.6478 29.6875 30.6504C29.6867 30.7116 29.6374 30.7613 29.5762 30.7617C29.5142 30.7625 29.4634 30.7124 29.4629 30.6504C29.4625 30.5876 29.5134 30.5365 29.5762 30.5371ZM30.1367 30.5371C30.1968 30.5364 30.2464 30.5829 30.25 30.6426C30.2501 30.6464 30.2501 30.6478 30.25 30.6504C30.2492 30.7124 30.1987 30.7623 30.1367 30.7617C30.0751 30.7613 30.0259 30.7116 30.0254 30.6504C30.025 30.588 30.0747 30.5376 30.1367 30.5371ZM30.6992 30.5371C30.7593 30.5364 30.8089 30.5829 30.8125 30.6426C30.8126 30.6464 30.8126 30.6478 30.8125 30.6504C30.8117 30.7124 30.7612 30.7623 30.6992 30.7617C30.6376 30.7613 30.5884 30.7116 30.5879 30.6504C30.5875 30.588 30.6372 30.5376 30.6992 30.5371ZM31.2617 30.5371C31.3218 30.5364 31.3714 30.5829 31.375 30.6426C31.3751 30.6464 31.3751 30.6478 31.375 30.6504C31.3742 30.7124 31.3237 30.7623 31.2617 30.7617C31.2001 30.7613 31.1509 30.7116 31.1504 30.6504C31.15 30.588 31.1997 30.5376 31.2617 30.5371ZM31.8242 30.5371C31.8794 30.5367 31.9279 30.5764 31.9355 30.6309C31.9361 30.6384 31.9361 30.6428 31.9355 30.6504C31.9348 30.7116 31.8854 30.7613 31.8242 30.7617C31.763 30.7613 31.7134 30.7116 31.7129 30.6504C31.7121 30.588 31.7622 30.5376 31.8242 30.5371ZM32.3867 30.5371C32.4419 30.5367 32.4904 30.5764 32.498 30.6309C32.4986 30.6384 32.4986 30.6428 32.498 30.6504C32.4973 30.7116 32.4479 30.7613 32.3867 30.7617C32.3247 30.7625 32.2739 30.7124 32.2734 30.6504C32.2731 30.5876 32.324 30.5365 32.3867 30.5371ZM32.9492 30.5371C33.0086 30.5375 33.0569 30.5836 33.0605 30.6426C33.0606 30.6464 33.0606 30.6478 33.0605 30.6504C33.0598 30.7116 33.0104 30.7613 32.9492 30.7617C32.8872 30.7625 32.8364 30.7124 32.8359 30.6504C32.8356 30.5876 32.8865 30.5365 32.9492 30.5371ZM33.5117 30.5371C33.5707 30.5375 33.6194 30.5836 33.623 30.6426C33.6232 30.6464 33.6232 30.6478 33.623 30.6504C33.6227 30.7116 33.5729 30.7613 33.5117 30.7617C33.4497 30.7625 33.3989 30.7124 33.3984 30.6504C33.3981 30.5876 33.449 30.5365 33.5117 30.5371ZM34.0742 30.5371C34.1332 30.5375 34.1819 30.5836 34.1855 30.6426C34.1857 30.6464 34.1857 30.6478 34.1855 30.6504C34.1852 30.7116 34.1354 30.7613 34.0742 30.7617C34.0122 30.7625 33.9614 30.7124 33.9609 30.6504C33.9606 30.5876 34.0115 30.5365 34.0742 30.5371ZM34.6348 30.5371C34.6949 30.5364 34.7444 30.5829 34.748 30.6426C34.7481 30.6464 34.7481 30.6478 34.748 30.6504C34.7473 30.7124 34.6967 30.7623 34.6348 30.7617C34.5732 30.7613 34.5239 30.7116 34.5234 30.6504C34.5231 30.588 34.5728 30.5376 34.6348 30.5371ZM21.5156 35.7734C22.3992 35.7735 23.1152 36.4894 23.1152 37.373C23.1152 38.2567 22.3992 38.9727 21.5156 38.9727C20.632 38.9727 19.9161 38.2567 19.916 37.373C19.9161 36.4894 20.632 35.7735 21.5156 35.7734ZM26.9375 35.7734C27.8211 35.7735 28.5371 36.4894 28.5371 37.373C28.5371 38.2567 27.8211 38.9727 26.9375 38.9727C26.0538 38.9727 25.3379 38.2567 25.3379 37.373C25.3379 36.4894 26.0538 35.7735 26.9375 35.7734Z" fill="#333333"/>
</svg>
