<svg width="48" height="48" viewBox="0 0 48 48" fill="none" xmlns="http://www.w3.org/2000/svg">
<g clip-path="url(#clip0)">
<path fill-rule="evenodd" clip-rule="evenodd" d="M0.0117188 -0.0078125V47.9922H48.0117V-0.0078125H0.0117188ZM14.1582 3.99219H33.8633C34.7327 3.99219 35.4316 4.6911 35.4316 5.56055V42.4219C35.4316 43.2913 34.7327 43.9922 33.8633 43.9922H14.1582C13.2888 43.9922 12.5898 43.2913 12.5898 42.4219V5.56055C12.5898 4.6911 13.2888 3.99219 14.1582 3.99219ZM21.7637 12.0469V12.0488C21.5215 12.0522 21.2807 12.1497 21.0977 12.3379L19.2891 14.1953C18.9229 14.5714 18.9302 15.1689 19.3066 15.5352C19.6829 15.902 20.2804 15.8932 20.6465 15.5156L22.4551 13.6562C22.8212 13.2798 22.8139 12.6826 22.4375 12.3164C22.2494 12.1335 22.0059 12.0435 21.7637 12.0469ZM28.0391 12.0469V12.0488C27.7969 12.0522 27.5561 12.1497 27.373 12.3379L25.5645 14.1953C25.1983 14.5714 25.2075 15.1689 25.584 15.5352C25.9602 15.902 26.5577 15.8932 26.9238 15.5156L28.7324 13.6562C29.0985 13.2798 29.0893 12.6826 28.7129 12.3164C28.5247 12.1335 28.2813 12.0435 28.0391 12.0469ZM13.0449 23.8809C12.9829 23.8816 12.9332 23.9318 12.9336 23.9941C12.9341 24.0554 12.9833 24.1051 13.0449 24.1055C13.1069 24.1058 13.1574 24.0561 13.1582 23.9941C13.1583 23.9904 13.1583 23.9901 13.1582 23.9863C13.1546 23.9266 13.105 23.8801 13.0449 23.8809ZM13.6074 23.8809C13.5454 23.8816 13.4957 23.9318 13.4961 23.9941C13.4966 24.0554 13.5458 24.1047 13.6074 24.1055C13.6694 24.1058 13.7199 24.0565 13.7207 23.9941C13.7213 23.9314 13.6702 23.8805 13.6074 23.8809ZM14.1699 23.8809C14.1079 23.8816 14.0563 23.9318 14.0566 23.9941C14.0571 24.0554 14.1083 24.1051 14.1699 24.1055C14.2311 24.1047 14.2805 24.0554 14.2812 23.9941C14.2818 23.9866 14.2818 23.9822 14.2812 23.9746C14.2737 23.9202 14.2251 23.8805 14.1699 23.8809ZM14.7324 23.8809C14.6697 23.8805 14.6188 23.9314 14.6191 23.9941C14.6196 24.0561 14.6704 24.1062 14.7324 24.1055C14.7936 24.1047 14.843 24.0554 14.8437 23.9941C14.8443 23.9866 14.8443 23.9822 14.8437 23.9746C14.8362 23.9202 14.7876 23.8805 14.7324 23.8809ZM15.2949 23.8809C15.2322 23.8805 15.1813 23.9314 15.1816 23.9941C15.1821 24.0561 15.2329 24.1062 15.2949 24.1055C15.3561 24.1047 15.4055 24.0554 15.4062 23.9941C15.4063 23.9904 15.4063 23.9901 15.4062 23.9863C15.4027 23.9274 15.3543 23.8812 15.2949 23.8809ZM15.8574 23.8809C15.7947 23.8805 15.7438 23.9314 15.7441 23.9941C15.7446 24.0561 15.7954 24.1062 15.8574 24.1055C15.9186 24.1047 15.968 24.0554 15.9687 23.9941C15.9688 23.9904 15.9688 23.9901 15.9687 23.9863C15.9652 23.9274 15.9168 23.8812 15.8574 23.8809ZM16.4199 23.8809C16.3572 23.8805 16.3063 23.9314 16.3066 23.9941C16.3071 24.0561 16.3579 24.1062 16.4199 24.1055C16.4811 24.1047 16.5305 24.0554 16.5312 23.9941C16.5313 23.9904 16.5313 23.9901 16.5312 23.9863C16.5277 23.9274 16.4793 23.8812 16.4199 23.8809ZM16.9805 23.8809C16.9185 23.8816 16.8688 23.9318 16.8691 23.9941C16.8696 24.0554 16.9189 24.1051 16.9805 24.1055C17.0425 24.1058 17.093 24.0561 17.0937 23.9941C17.0939 23.9904 17.0939 23.9901 17.0937 23.9863C17.0902 23.9266 17.0406 23.8801 16.9805 23.8809ZM17.543 23.8809C17.481 23.8816 17.4313 23.9318 17.4316 23.9941C17.4321 24.0554 17.4814 24.1051 17.543 24.1055C17.605 24.1058 17.6555 24.0561 17.6562 23.9941C17.6564 23.9904 17.6564 23.9901 17.6562 23.9863C17.6527 23.9266 17.6031 23.8801 17.543 23.8809ZM18.1055 23.8809C18.0435 23.8816 17.9938 23.9318 17.9941 23.9941C17.9946 24.0554 18.0439 24.1051 18.1055 24.1055C18.1675 24.1058 18.218 24.0561 18.2187 23.9941C18.2188 23.9904 18.2188 23.9901 18.2187 23.9863C18.2152 23.9266 18.1656 23.8801 18.1055 23.8809ZM18.668 23.8809C18.606 23.8816 18.5559 23.9318 18.5566 23.9941C18.5571 24.0554 18.6067 24.1051 18.668 24.1055C18.7292 24.1047 18.7785 24.0554 18.7793 23.9941C18.7799 23.9866 18.7799 23.9822 18.7793 23.9746C18.7717 23.9202 18.7231 23.8805 18.668 23.8809ZM19.2305 23.8809C19.1677 23.8805 19.1168 23.9314 19.1172 23.9941C19.1177 24.0561 19.1685 24.1062 19.2305 24.1055C19.2917 24.1047 19.341 24.0554 19.3418 23.9941C19.3419 23.9904 19.3419 23.9901 19.3418 23.9863C19.3382 23.9274 19.2898 23.8812 19.2305 23.8809ZM19.793 23.8809C19.7302 23.8805 19.6793 23.9314 19.6797 23.9941C19.6802 24.0561 19.731 24.1062 19.793 24.1055C19.8542 24.1047 19.9035 24.0554 19.9043 23.9941C19.9044 23.9904 19.9044 23.9901 19.9043 23.9863C19.9007 23.9274 19.8523 23.8812 19.793 23.8809ZM20.3555 23.8809C20.2927 23.8805 20.2418 23.9314 20.2422 23.9941C20.2427 24.0561 20.2935 24.1062 20.3555 24.1055C20.4167 24.1047 20.466 24.0554 20.4668 23.9941C20.4669 23.9904 20.4669 23.9901 20.4668 23.9863C20.4632 23.9274 20.4148 23.8812 20.3555 23.8809ZM20.918 23.8809C20.8552 23.8805 20.8043 23.9314 20.8047 23.9941C20.8052 24.0561 20.856 24.1062 20.918 24.1055C20.9792 24.1047 21.0285 24.0554 21.0293 23.9941C21.0294 23.9904 21.0294 23.9901 21.0293 23.9863C21.0257 23.9274 20.9773 23.8812 20.918 23.8809ZM21.4785 23.8809C21.4165 23.8816 21.3668 23.9318 21.3672 23.9941C21.3677 24.0554 21.4169 24.1051 21.4785 24.1055C21.5405 24.1058 21.591 24.0561 21.5918 23.9941C21.5919 23.9904 21.5919 23.9901 21.5918 23.9863C21.5882 23.9266 21.5386 23.8801 21.4785 23.8809ZM22.041 23.8809C21.979 23.8816 21.9293 23.9318 21.9297 23.9941C21.9302 24.0554 21.9794 24.1051 22.041 24.1055C22.103 24.1058 22.1535 24.0561 22.1543 23.9941C22.1544 23.9904 22.1544 23.9901 22.1543 23.9863C22.1507 23.9266 22.1011 23.8801 22.041 23.8809ZM22.6035 23.8809C22.5415 23.8816 22.4918 23.9318 22.4922 23.9941C22.4927 24.0554 22.5419 24.1047 22.6035 24.1055C22.6655 24.1058 22.716 24.0565 22.7168 23.9941C22.7174 23.9314 22.6663 23.8805 22.6035 23.8809ZM23.166 23.8809C23.104 23.8816 23.0543 23.9318 23.0547 23.9941C23.0552 24.0554 23.1044 24.1051 23.166 24.1055C23.2272 24.1047 23.277 24.0554 23.2773 23.9941C23.2779 23.9866 23.2779 23.9822 23.2773 23.9746C23.2698 23.9202 23.2208 23.8805 23.166 23.8809ZM23.7285 23.8809C23.6658 23.8805 23.6149 23.9314 23.6152 23.9941C23.6157 24.0561 23.6665 24.1062 23.7285 24.1055C23.7897 24.1047 23.8391 24.0554 23.8398 23.9941C23.8404 23.9866 23.8404 23.9822 23.8398 23.9746C23.8323 23.9202 23.7837 23.8805 23.7285 23.8809ZM24.291 23.8809C24.2283 23.8805 24.1774 23.9314 24.1777 23.9941C24.1782 24.0561 24.229 24.1062 24.291 24.1055C24.3522 24.1047 24.4016 24.0554 24.4023 23.9941C24.4024 23.9904 24.4024 23.9901 24.4023 23.9863C24.3988 23.9274 24.3504 23.8812 24.291 23.8809ZM24.8535 23.8809C24.7908 23.8805 24.7399 23.9314 24.7402 23.9941C24.7407 24.0561 24.7915 24.1062 24.8535 24.1055C24.9147 24.1047 24.9641 24.0554 24.9648 23.9941C24.965 23.9904 24.965 23.9901 24.9648 23.9863C24.9613 23.9274 24.9129 23.8812 24.8535 23.8809ZM25.4141 23.8809C25.3521 23.8816 25.302 23.9318 25.3027 23.9941C25.3032 24.0554 25.3528 24.1051 25.4141 24.1055C25.476 24.1058 25.5266 24.0561 25.5273 23.9941C25.5275 23.9904 25.5275 23.9901 25.5273 23.9863C25.5237 23.9266 25.4742 23.8801 25.4141 23.8809ZM25.9766 23.8809C25.9146 23.8816 25.8649 23.9318 25.8652 23.9941C25.8657 24.0554 25.915 24.1051 25.9766 24.1055C26.0385 24.1058 26.0891 24.0561 26.0898 23.9941C26.0899 23.9904 26.0899 23.9901 26.0898 23.9863C26.0862 23.9266 26.0367 23.8801 25.9766 23.8809ZM26.5391 23.8809C26.4771 23.8816 26.4274 23.9318 26.4277 23.9941C26.4282 24.0554 26.4775 24.1051 26.5391 24.1055C26.601 24.1058 26.6516 24.0561 26.6523 23.9941C26.6524 23.9904 26.6524 23.9901 26.6523 23.9863C26.6487 23.9266 26.5992 23.8801 26.5391 23.8809ZM27.1016 23.8809C27.0396 23.8816 26.9899 23.9318 26.9902 23.9941C26.9907 24.0554 27.04 24.1047 27.1016 24.1055C27.1635 24.1058 27.2141 24.0565 27.2148 23.9941C27.2154 23.9314 27.1643 23.8805 27.1016 23.8809ZM27.6641 23.8809C27.6021 23.8816 27.552 23.9318 27.5527 23.9941C27.5532 24.0554 27.6028 24.1051 27.6641 24.1055C27.7253 24.1047 27.7746 24.0554 27.7754 23.9941C27.776 23.9866 27.776 23.9822 27.7754 23.9746C27.7678 23.9202 27.7192 23.8805 27.6641 23.8809ZM28.2266 23.8809C28.1638 23.8805 28.1129 23.9314 28.1133 23.9941C28.1138 24.0561 28.1646 24.1062 28.2266 24.1055C28.2878 24.1047 28.3371 24.0554 28.3379 23.9941C28.338 23.9904 28.338 23.9901 28.3379 23.9863C28.3343 23.9274 28.2859 23.8812 28.2266 23.8809ZM28.7891 23.8809C28.7263 23.8805 28.6754 23.9314 28.6758 23.9941C28.6763 24.0561 28.7271 24.1062 28.7891 24.1055C28.8503 24.1047 28.8996 24.0554 28.9004 23.9941C28.9005 23.9904 28.9005 23.9901 28.9004 23.9863C28.8968 23.9274 28.8484 23.8812 28.7891 23.8809ZM29.3516 23.8809C29.2888 23.8805 29.2379 23.9314 29.2383 23.9941C29.2388 24.0561 29.2896 24.1062 29.3516 24.1055C29.4128 24.1047 29.4621 24.0554 29.4629 23.9941C29.463 23.9904 29.463 23.9901 29.4629 23.9863C29.4593 23.9274 29.4109 23.8812 29.3516 23.8809ZM29.9121 23.8809C29.8501 23.8816 29.8004 23.9318 29.8008 23.9941C29.8013 24.0554 29.8505 24.1051 29.9121 24.1055C29.9741 24.1058 30.0246 24.0561 30.0254 23.9941C30.0255 23.9904 30.0255 23.9901 30.0254 23.9863C30.0218 23.9266 29.9722 23.8801 29.9121 23.8809ZM30.4746 23.8809C30.4126 23.8816 30.3629 23.9318 30.3633 23.9941C30.3638 24.0554 30.413 24.1051 30.4746 24.1055C30.5366 24.1058 30.5871 24.0561 30.5879 23.9941C30.588 23.9904 30.588 23.9901 30.5879 23.9863C30.5843 23.9266 30.5347 23.8801 30.4746 23.8809ZM31.0371 23.8809C30.9751 23.8816 30.9254 23.9318 30.9258 23.9941C30.9263 24.0554 30.9755 24.1051 31.0371 24.1055C31.0991 24.1058 31.1496 24.0561 31.1504 23.9941C31.1505 23.9904 31.1505 23.9901 31.1504 23.9863C31.1468 23.9266 31.0972 23.8801 31.0371 23.8809ZM31.5996 23.8809C31.5376 23.8816 31.4875 23.9318 31.4883 23.9941C31.4888 24.0554 31.5384 24.1051 31.5996 24.1055C31.6608 24.1047 31.7102 24.0554 31.7109 23.9941C31.7115 23.9866 31.7115 23.9822 31.7109 23.9746C31.7034 23.9202 31.6548 23.8805 31.5996 23.8809ZM32.1621 23.8809C32.0994 23.8805 32.0484 23.9314 32.0488 23.9941C32.0493 24.0561 32.1001 24.1062 32.1621 24.1055C32.2233 24.1047 32.2727 24.0554 32.2734 23.9941C32.274 23.9866 32.274 23.9822 32.2734 23.9746C32.2659 23.9202 32.2173 23.8805 32.1621 23.8809ZM32.7246 23.8809C32.6619 23.8805 32.6109 23.9314 32.6113 23.9941C32.6118 24.0561 32.6626 24.1062 32.7246 24.1055C32.7858 24.1047 32.8352 24.0554 32.8359 23.9941C32.836 23.9904 32.836 23.9901 32.8359 23.9863C32.8324 23.9274 32.7839 23.8812 32.7246 23.8809ZM33.2871 23.8809C33.2244 23.8805 33.1734 23.9314 33.1738 23.9941C33.1743 24.0561 33.2251 24.1062 33.2871 24.1055C33.3483 24.1047 33.3981 24.0554 33.3984 23.9941C33.3985 23.9904 33.3985 23.9901 33.3984 23.9863C33.3949 23.9274 33.3461 23.8812 33.2871 23.8809ZM33.8496 23.8809C33.7869 23.8805 33.7359 23.9314 33.7363 23.9941C33.7368 24.0561 33.7876 24.1062 33.8496 24.1055C33.9108 24.1047 33.9606 24.0554 33.9609 23.9941C33.961 23.9904 33.961 23.9901 33.9609 23.9863C33.9574 23.9274 33.9086 23.8812 33.8496 23.8809ZM34.4102 23.8809C34.3482 23.8816 34.2984 23.9318 34.2988 23.9941C34.2993 24.0554 34.3485 24.1051 34.4102 24.1055C34.4721 24.1058 34.5227 24.0561 34.5234 23.9941C34.5235 23.9904 34.5235 23.9901 34.5234 23.9863C34.5198 23.9266 34.4702 23.8801 34.4102 23.8809ZM34.9727 23.8809C34.9107 23.8816 34.8609 23.9318 34.8613 23.9941C34.8618 24.0554 34.9111 24.1051 34.9727 24.1055C35.0346 24.1058 35.0852 24.0561 35.0859 23.9941C35.086 23.9904 35.086 23.9901 35.0859 23.9863C35.0823 23.9266 35.0328 23.8801 34.9727 23.8809ZM21.7637 32.1875V32.1894C21.5215 32.1929 21.2807 32.2903 21.0977 32.4785L19.2891 34.3359C18.9229 34.712 18.9302 35.3095 19.3066 35.6758C19.6829 36.0407 20.2804 36.0338 20.6465 35.6562L22.4551 33.7969C22.8212 33.4204 22.8139 32.8233 22.4375 32.457C22.2494 32.2741 22.0059 32.1841 21.7637 32.1875ZM28.0391 32.1875V32.1894C27.7969 32.1929 27.5561 32.2903 27.373 32.4785L25.5645 34.3359C25.1983 34.712 25.2075 35.3095 25.584 35.6758C25.9602 36.0407 26.5577 36.0338 26.9238 35.6562L28.7324 33.7969C29.0985 33.4204 29.0893 32.8233 28.7129 32.457C28.5247 32.2741 28.2813 32.1841 28.0391 32.1875Z" fill="#333333"/>
</g>
<defs>
<clipPath id="clip0">
<rect width="48" height="48" fill="white"/>
</clipPath>
</defs>
</svg>
