<svg width="48" height="48" viewBox="0 0 48 48" fill="none" xmlns="http://www.w3.org/2000/svg">
<path d="M14.3457 4.09375C13.4763 4.09375 12.7773 4.79267 12.7773 5.66211V42.5234C12.7773 43.3929 13.4763 44.0938 14.3457 44.0938H34.0508C34.9202 44.0938 35.6191 43.3929 35.6191 42.5234V5.66211C35.6191 4.79267 34.9202 4.09375 34.0508 4.09375H14.3457ZM14.7754 4.59375H33.6152C34.4465 4.59375 35.1172 5.27733 35.1172 6.125V42.0645C35.1172 42.9123 34.4465 43.5938 33.6152 43.5938H14.7754C13.9441 43.5938 13.2754 42.9123 13.2754 42.0645V6.125C13.2754 5.27733 13.9441 4.59375 14.7754 4.59375ZM18.7656 12.4707C17.882 12.4707 17.1661 13.1867 17.166 14.0703C17.1661 14.954 17.882 15.6699 18.7656 15.6699C19.6492 15.6699 20.3652 14.954 20.3652 14.0703C20.3652 13.1867 19.6492 12.4707 18.7656 12.4707ZM24.1875 12.4707C23.3039 12.4707 22.5879 13.1867 22.5879 14.0703C22.5879 14.954 23.3039 15.6699 24.1875 15.6699C25.0711 15.6699 25.7871 14.954 25.7871 14.0703C25.7871 13.1867 25.0711 12.4707 24.1875 12.4707ZM29.6094 12.4707C28.7257 12.4707 28.0098 13.1867 28.0098 14.0703C28.0098 14.954 28.7257 15.6699 29.6094 15.6699C30.493 15.6699 31.2089 14.954 31.209 14.0703C31.2089 13.1867 30.493 12.4707 29.6094 12.4707ZM18.7656 12.9316C19.3949 12.9311 19.9049 13.441 19.9043 14.0703C19.9039 14.6989 19.3942 15.2076 18.7656 15.207C18.1377 15.2066 17.6293 14.6982 17.6289 14.0703C17.6283 13.4417 18.137 12.9321 18.7656 12.9316ZM24.1875 12.9316C24.8167 12.9311 25.3268 13.441 25.3262 14.0703C25.3258 14.6989 24.816 15.2076 24.1875 15.207C23.5596 15.2066 23.0512 14.6982 23.0508 14.0703C23.0502 13.4417 23.5589 12.9321 24.1875 12.9316ZM29.6094 12.9316C30.2386 12.9311 30.7487 13.441 30.748 14.0703C30.7477 14.6989 30.2379 15.2076 29.6094 15.207C28.9815 15.2066 28.473 14.6982 28.4727 14.0703C28.4721 13.4417 28.9808 12.9321 29.6094 12.9316ZM13.7949 23.9805C13.7329 23.981 13.6832 24.0315 13.6836 24.0938C13.6841 24.1551 13.7333 24.2063 13.7949 24.207C13.8569 24.2076 13.9074 24.1562 13.9082 24.0938C13.9088 24.031 13.8577 23.9801 13.7949 23.9805ZM14.3574 23.9805C14.2954 23.981 14.2438 24.0315 14.2441 24.0938C14.2446 24.1551 14.2958 24.2067 14.3574 24.207C14.4187 24.2066 14.4681 24.1551 14.4688 24.0938C14.4693 24.0863 14.4693 24.0837 14.4688 24.0762C14.4612 24.0217 14.4126 23.982 14.3574 23.9824V23.9805ZM14.9199 23.9805C14.8572 23.9799 14.8063 24.031 14.8066 24.0938C14.8071 24.1558 14.8579 24.2078 14.9199 24.207C14.9811 24.2066 15.0306 24.1551 15.0312 24.0938C15.0319 24.0863 15.0319 24.0837 15.0312 24.0762C15.0238 24.0217 14.9751 23.982 14.9199 23.9824V23.9805ZM15.4824 23.9805C15.4197 23.9799 15.3688 24.031 15.3691 24.0938C15.3696 24.1558 15.4204 24.2078 15.4824 24.207C15.5436 24.2066 15.5931 24.1551 15.5938 24.0938C15.5938 24.0912 15.5938 24.0917 15.5938 24.0879C15.5902 24.0289 15.5418 23.9828 15.4824 23.9824V23.9805ZM16.0449 23.9805C15.9822 23.9799 15.9313 24.031 15.9316 24.0938C15.9321 24.1558 15.9829 24.2078 16.0449 24.207C16.1061 24.2066 16.1556 24.1551 16.1562 24.0938C16.1563 24.0912 16.1563 24.0917 16.1562 24.0879C16.1527 24.0289 16.1043 23.9828 16.0449 23.9824V23.9805ZM16.6074 23.9805C16.5447 23.9799 16.4938 24.031 16.4941 24.0938C16.4946 24.1558 16.5454 24.2078 16.6074 24.207C16.6687 24.2066 16.7181 24.1551 16.7188 24.0938C16.7188 24.0912 16.7188 24.0917 16.7188 24.0879C16.7152 24.0289 16.6668 23.9828 16.6074 23.9824V23.9805ZM17.168 23.9805C17.106 23.981 17.0563 24.0315 17.0566 24.0938C17.0571 24.1551 17.1064 24.2067 17.168 24.207C17.2299 24.2076 17.2806 24.1558 17.2812 24.0938C17.2814 24.0912 17.2814 24.0917 17.2812 24.0879C17.2776 24.0282 17.2281 23.9817 17.168 23.9824V23.9805ZM17.7305 23.9805C17.6685 23.981 17.6188 24.0315 17.6191 24.0938C17.6196 24.1551 17.6689 24.2067 17.7305 24.207C17.7924 24.2076 17.8431 24.1558 17.8438 24.0938C17.8439 24.0912 17.8439 24.0917 17.8438 24.0879C17.8401 24.0282 17.7906 23.9817 17.7305 23.9824V23.9805ZM18.293 23.9805C18.231 23.981 18.1813 24.0315 18.1816 24.0938C18.1821 24.1551 18.2314 24.2067 18.293 24.207C18.3549 24.2076 18.4056 24.1558 18.4062 24.0938C18.4064 24.0912 18.4064 24.0917 18.4062 24.0879C18.4026 24.0282 18.3531 23.9817 18.293 23.9824V23.9805ZM18.8555 23.9805C18.7935 23.981 18.7434 24.0315 18.7441 24.0938C18.7446 24.1551 18.7942 24.2067 18.8555 24.207C18.9167 24.2066 18.966 24.1551 18.9668 24.0938C18.9674 24.0863 18.9674 24.0837 18.9668 24.0762C18.9592 24.0217 18.9106 23.982 18.8555 23.9824V23.9805ZM19.418 23.9805C19.3552 23.9799 19.3043 24.031 19.3047 24.0938C19.3052 24.1558 19.356 24.2078 19.418 24.207C19.4792 24.2066 19.5285 24.1551 19.5293 24.0938C19.5294 24.0912 19.5294 24.0917 19.5293 24.0879C19.5257 24.0289 19.4773 23.9828 19.418 23.9824V23.9805ZM19.9805 23.9805C19.9177 23.9799 19.8668 24.031 19.8672 24.0938C19.8677 24.1558 19.9185 24.2078 19.9805 24.207C20.0417 24.2066 20.091 24.1551 20.0918 24.0938C20.0919 24.0912 20.0919 24.0917 20.0918 24.0879C20.0882 24.0289 20.0398 23.9828 19.9805 23.9824V23.9805ZM20.543 23.9805C20.4802 23.9799 20.4293 24.031 20.4297 24.0938C20.4302 24.1558 20.481 24.2078 20.543 24.207C20.6042 24.2066 20.6535 24.1551 20.6543 24.0938C20.6544 24.0912 20.6544 24.0917 20.6543 24.0879C20.6507 24.0289 20.6023 23.9828 20.543 23.9824V23.9805ZM21.1055 23.9805C21.0427 23.9799 20.9918 24.031 20.9922 24.0938C20.9927 24.1558 21.0435 24.2078 21.1055 24.207C21.1667 24.2066 21.216 24.1551 21.2168 24.0938C21.2169 24.0912 21.2169 24.0917 21.2168 24.0879C21.2132 24.0289 21.1648 23.9828 21.1055 23.9824V23.9805ZM21.666 23.9805C21.604 23.981 21.5543 24.0315 21.5547 24.0938C21.5552 24.1551 21.6044 24.2067 21.666 24.207C21.728 24.2076 21.7785 24.1558 21.7793 24.0938C21.7794 24.0912 21.7794 24.0917 21.7793 24.0879C21.7757 24.0282 21.7261 23.9817 21.666 23.9824V23.9805ZM22.2285 23.9805C22.1665 23.981 22.1168 24.0315 22.1172 24.0938C22.1177 24.1551 22.1669 24.2067 22.2285 24.207C22.2905 24.2076 22.341 24.1558 22.3418 24.0938C22.3419 24.0912 22.3419 24.0917 22.3418 24.0879C22.3382 24.0282 22.2886 23.9817 22.2285 23.9824V23.9805ZM22.791 23.9805C22.729 23.981 22.6793 24.0315 22.6797 24.0938C22.6802 24.1551 22.7294 24.2063 22.791 24.207C22.853 24.2076 22.9035 24.1562 22.9043 24.0938C22.9049 24.031 22.8538 23.9801 22.791 23.9805ZM23.3535 23.9805C23.2915 23.981 23.2418 24.0315 23.2422 24.0938C23.2427 24.1551 23.2919 24.2067 23.3535 24.207C23.4147 24.2066 23.4645 24.1551 23.4648 24.0938C23.4654 24.0863 23.4654 24.0837 23.4648 24.0762C23.4572 24.0217 23.4083 23.982 23.3535 23.9824V23.9805ZM23.916 23.9805C23.8533 23.9799 23.8024 24.031 23.8027 24.0938C23.8032 24.1558 23.854 24.2078 23.916 24.207C23.9772 24.2066 24.0266 24.1551 24.0273 24.0938C24.0279 24.0863 24.0279 24.0837 24.0273 24.0762C24.0197 24.0217 23.9712 23.982 23.916 23.9824V23.9805ZM24.4785 23.9805C24.4158 23.9799 24.3649 24.031 24.3652 24.0938C24.3657 24.1558 24.4165 24.2078 24.4785 24.207C24.5397 24.2066 24.5891 24.1551 24.5898 24.0938C24.5899 24.0912 24.5899 24.0917 24.5898 24.0879C24.5862 24.0289 24.5379 23.9828 24.4785 23.9824V23.9805ZM25.041 23.9805C24.9783 23.9799 24.9274 24.031 24.9277 24.0938C24.9282 24.1558 24.979 24.2078 25.041 24.207C25.1022 24.2066 25.1516 24.1551 25.1523 24.0938C25.1525 24.0912 25.1525 24.0917 25.1523 24.0879C25.1487 24.0289 25.1004 23.9828 25.041 23.9824V23.9805ZM25.6016 23.9805C25.5396 23.981 25.4895 24.0315 25.4902 24.0938C25.4907 24.1551 25.5403 24.2067 25.6016 24.207C25.6635 24.2076 25.7141 24.1558 25.7148 24.0938C25.715 24.0912 25.715 24.0917 25.7148 24.0879C25.7112 24.0282 25.6617 23.9817 25.6016 23.9824V23.9805ZM26.1641 23.9805C26.1021 23.981 26.0524 24.0315 26.0527 24.0938C26.0532 24.1551 26.1025 24.2067 26.1641 24.207C26.226 24.2076 26.2766 24.1558 26.2773 24.0938C26.2774 24.0912 26.2774 24.0917 26.2773 24.0879C26.2737 24.0282 26.2242 23.9817 26.1641 23.9824V23.9805ZM26.7266 23.9805C26.6646 23.981 26.6149 24.0315 26.6152 24.0938C26.6157 24.1551 26.665 24.2067 26.7266 24.207C26.7885 24.2076 26.8391 24.1558 26.8398 24.0938C26.8399 24.0912 26.8399 24.0917 26.8398 24.0879C26.8362 24.0282 26.7867 23.9817 26.7266 23.9824V23.9805ZM27.2891 23.9805C27.2271 23.981 27.1774 24.0315 27.1777 24.0938C27.1782 24.1551 27.2275 24.2063 27.2891 24.207C27.351 24.2076 27.4016 24.1562 27.4023 24.0938C27.4029 24.031 27.3518 23.9801 27.2891 23.9805ZM27.8516 23.9805C27.7896 23.981 27.7395 24.0315 27.7402 24.0938C27.7407 24.1551 27.7903 24.2067 27.8516 24.207C27.9128 24.2066 27.9621 24.1551 27.9629 24.0938C27.9635 24.0863 27.9635 24.0837 27.9629 24.0762C27.9553 24.0217 27.9067 23.982 27.8516 23.9824V23.9805ZM28.4141 23.9805C28.3513 23.9799 28.3004 24.031 28.3008 24.0938C28.3013 24.1558 28.3521 24.2078 28.4141 24.207C28.4753 24.2066 28.5246 24.1551 28.5254 24.0938C28.5255 24.0912 28.5255 24.0917 28.5254 24.0879C28.5218 24.0289 28.4734 23.9828 28.4141 23.9824V23.9805ZM28.9766 23.9805C28.9138 23.9799 28.8629 24.031 28.8633 24.0938C28.8638 24.1558 28.9146 24.2078 28.9766 24.207C29.0378 24.2066 29.0871 24.1551 29.0879 24.0938C29.088 24.0912 29.088 24.0917 29.0879 24.0879C29.0843 24.0289 29.0359 23.9828 28.9766 23.9824V23.9805ZM29.5391 23.9805C29.4763 23.9799 29.4254 24.031 29.4258 24.0938C29.4263 24.1558 29.4771 24.2078 29.5391 24.207C29.6003 24.2066 29.6496 24.1551 29.6504 24.0938C29.6505 24.0912 29.6505 24.0917 29.6504 24.0879C29.6468 24.0289 29.5984 23.9828 29.5391 23.9824V23.9805ZM30.0996 23.9805C30.0376 23.981 29.9879 24.0315 29.9883 24.0938C29.9888 24.1551 30.038 24.2067 30.0996 24.207C30.1616 24.2076 30.2121 24.1558 30.2129 24.0938C30.213 24.0912 30.213 24.0917 30.2129 24.0879C30.2093 24.0282 30.1597 23.9817 30.0996 23.9824V23.9805ZM30.6621 23.9805C30.6001 23.981 30.5504 24.0315 30.5508 24.0938C30.5513 24.1551 30.6005 24.2067 30.6621 24.207C30.7241 24.2076 30.7746 24.1558 30.7754 24.0938C30.7755 24.0912 30.7755 24.0917 30.7754 24.0879C30.7718 24.0282 30.7222 23.9817 30.6621 23.9824V23.9805ZM31.2246 23.9805C31.1626 23.981 31.1129 24.0315 31.1133 24.0938C31.1138 24.1551 31.163 24.2067 31.2246 24.207C31.2866 24.2076 31.3371 24.1558 31.3379 24.0938C31.338 24.0912 31.338 24.0917 31.3379 24.0879C31.3343 24.0282 31.2847 23.9817 31.2246 23.9824V23.9805ZM31.7871 23.9805C31.7251 23.981 31.675 24.0315 31.6758 24.0938C31.6763 24.1551 31.7259 24.2067 31.7871 24.207C31.8483 24.2066 31.8977 24.1551 31.8984 24.0938C31.899 24.0863 31.899 24.0837 31.8984 24.0762C31.8908 24.0217 31.8423 23.982 31.7871 23.9824V23.9805ZM32.3496 23.9805C32.2869 23.9799 32.2359 24.031 32.2363 24.0938C32.2368 24.1558 32.2876 24.2078 32.3496 24.207C32.4108 24.2066 32.4602 24.1551 32.4609 24.0938C32.4615 24.0863 32.4615 24.0837 32.4609 24.0762C32.4533 24.0217 32.4048 23.982 32.3496 23.9824V23.9805ZM32.9121 23.9805C32.8494 23.9799 32.7984 24.031 32.7988 24.0938C32.7993 24.1558 32.8501 24.2078 32.9121 24.207C32.9733 24.2066 33.0227 24.1551 33.0234 24.0938C33.0235 24.0912 33.0235 24.0917 33.0234 24.0879C33.0198 24.0289 32.9714 23.9828 32.9121 23.9824V23.9805ZM33.4746 23.9805C33.4119 23.9799 33.3609 24.031 33.3613 24.0938C33.3618 24.1558 33.4126 24.2078 33.4746 24.207C33.5358 24.2066 33.5856 24.1551 33.5859 24.0938C33.586 24.0912 33.586 24.0917 33.5859 24.0879C33.5823 24.0289 33.5336 23.9828 33.4746 23.9824V23.9805ZM34.0371 23.9805C33.9744 23.9799 33.9234 24.031 33.9238 24.0938C33.9243 24.1558 33.9751 24.2078 34.0371 24.207C34.0983 24.2066 34.1481 24.1551 34.1484 24.0938C34.1485 24.0912 34.1485 24.0917 34.1484 24.0879C34.1448 24.0289 34.0961 23.9828 34.0371 23.9824V23.9805ZM34.5977 23.9805C34.5357 23.981 34.4859 24.0315 34.4863 24.0938C34.4868 24.1551 34.536 24.2067 34.5977 24.207C34.6596 24.2076 34.7102 24.1558 34.7109 24.0938C34.711 24.0912 34.711 24.0917 34.7109 24.0879C34.7073 24.0282 34.6577 23.9817 34.5977 23.9824V23.9805ZM18.7656 32.4707C17.882 32.4707 17.1661 33.1867 17.166 34.0703C17.1661 34.954 17.882 35.6699 18.7656 35.6699C19.6492 35.6699 20.3652 34.954 20.3652 34.0703C20.3652 33.1867 19.6492 32.4707 18.7656 32.4707ZM24.1875 32.4707C23.3039 32.4707 22.5879 33.1867 22.5879 34.0703C22.5879 34.954 23.3039 35.6699 24.1875 35.6699C25.0711 35.6699 25.7871 34.954 25.7871 34.0703C25.7871 33.1867 25.0711 32.4707 24.1875 32.4707ZM29.6094 32.4707C28.7257 32.4707 28.0098 33.1867 28.0098 34.0703C28.0098 34.954 28.7257 35.6699 29.6094 35.6699C30.493 35.6699 31.2089 34.954 31.209 34.0703C31.2089 33.1867 30.493 32.4707 29.6094 32.4707ZM18.7656 32.9316C19.3949 32.9311 19.9049 33.441 19.9043 34.0703C19.9039 34.6989 19.3942 35.2076 18.7656 35.207C18.1377 35.2066 17.6293 34.6982 17.6289 34.0703C17.6283 33.4417 18.137 32.9321 18.7656 32.9316ZM24.1875 32.9316C24.8167 32.9311 25.3268 33.441 25.3262 34.0703C25.3258 34.6989 24.816 35.2076 24.1875 35.207C23.5596 35.2066 23.0512 34.6982 23.0508 34.0703C23.0502 33.4417 23.5589 32.9321 24.1875 32.9316ZM29.6094 32.9316C30.2386 32.9311 30.7487 33.441 30.748 34.0703C30.7477 34.6989 30.2379 35.2076 29.6094 35.207C28.9815 35.2066 28.473 34.6982 28.4727 34.0703C28.4721 33.4417 28.9808 32.9321 29.6094 32.9316Z" fill="#333333"/>
</svg>
