<svg width="48" height="48" viewBox="0 0 48 48" fill="none" xmlns="http://www.w3.org/2000/svg">
<path d="M28.906 4.0818C23.986 4.0678 19.122 4.1248 14.146 4.1248C13.277 4.1248 12.58 4.8238 12.58 5.6928V42.5538C12.58 43.4238 13.277 44.1238 14.146 44.1238H33.852C34.721 44.1238 35.42 43.4238 35.42 42.5538V5.6938C35.42 4.8238 34.721 4.1238 33.852 4.1238C32.2034 4.09959 30.5547 4.08559 28.906 4.0818ZM20.367 5.0638H20.375C20.4043 5.06485 20.4321 5.07738 20.4522 5.09869C20.4724 5.11999 20.4835 5.14838 20.4829 5.17773C20.4824 5.20709 20.4704 5.23506 20.4494 5.25563C20.4285 5.2762 20.4003 5.28773 20.371 5.28773C20.3416 5.28773 20.3134 5.2762 20.2925 5.25563C20.2715 5.23506 20.2595 5.20709 20.259 5.17773C20.2584 5.14838 20.2695 5.11999 20.2897 5.09869C20.3099 5.07738 20.3376 5.06485 20.367 5.0638ZM27.617 5.0638H27.625C27.6543 5.06485 27.682 5.07738 27.7022 5.09869C27.7224 5.11999 27.7335 5.14838 27.7329 5.17773C27.7324 5.20709 27.7204 5.23506 27.6994 5.25563C27.6785 5.2762 27.6503 5.28773 27.621 5.28773C27.5916 5.28773 27.5634 5.2762 27.5425 5.25563C27.5215 5.23506 27.5095 5.20709 27.509 5.17773C27.5084 5.14838 27.5195 5.11999 27.5397 5.09869C27.5599 5.07738 27.5876 5.06485 27.617 5.0638ZM17.893 5.1558C18.0174 5.15428 18.1409 5.17735 18.2564 5.22368C18.3719 5.27002 18.4771 5.3387 18.566 5.4258C18.6554 5.51243 18.7269 5.61588 18.7763 5.73022C18.8256 5.84456 18.8519 5.96753 18.8536 6.09206C18.8552 6.21659 18.8323 6.34022 18.786 6.45584C18.7397 6.57147 18.6711 6.67681 18.584 6.7658L16.775 8.6248C16.6882 8.7139 16.5846 8.78504 16.4704 8.83414C16.3561 8.88324 16.2332 8.90935 16.1088 8.91097C15.9844 8.9126 15.861 8.88971 15.7454 8.84361C15.6299 8.79751 15.5246 8.72911 15.4355 8.6423C15.3464 8.5555 15.2752 8.452 15.2261 8.3377C15.177 8.22341 15.1509 8.10056 15.1493 7.97618C15.1477 7.85179 15.1706 7.72831 15.2167 7.61277C15.2627 7.49723 15.3312 7.39191 15.418 7.3028L17.227 5.4448C17.3134 5.3551 17.4168 5.28339 17.5311 5.23379C17.6454 5.1842 17.7684 5.15769 17.893 5.1558ZM31.893 5.1558C32.0174 5.15428 32.1409 5.17735 32.2564 5.22368C32.3719 5.27002 32.4771 5.3387 32.566 5.4258C32.6554 5.51243 32.7269 5.61588 32.7763 5.73022C32.8256 5.84456 32.8519 5.96753 32.8536 6.09206C32.8552 6.21659 32.8323 6.34022 32.786 6.45584C32.7397 6.57147 32.6711 6.67681 32.584 6.7658L30.775 8.6248C30.6882 8.7139 30.5846 8.78504 30.4704 8.83414C30.3561 8.88324 30.2332 8.90935 30.1088 8.91097C29.9844 8.9126 29.861 8.88971 29.7454 8.84361C29.6299 8.79751 29.5246 8.72911 29.4355 8.6423C29.3464 8.5555 29.2752 8.452 29.2261 8.3377C29.177 8.22341 29.1509 8.10056 29.1493 7.97618C29.1477 7.85179 29.1706 7.72831 29.2167 7.61277C29.2627 7.49723 29.3312 7.39191 29.418 7.3028L31.227 5.4448C31.3134 5.3551 31.4168 5.28339 31.5311 5.23379C31.6454 5.1842 31.7684 5.15769 31.893 5.1558ZM20.367 5.6258H20.375C20.4043 5.62685 20.4321 5.63938 20.4522 5.66069C20.4724 5.68199 20.4835 5.71038 20.4829 5.73973C20.4824 5.76909 20.4704 5.79706 20.4494 5.81763C20.4285 5.8382 20.4003 5.84973 20.371 5.84973C20.3416 5.84973 20.3134 5.8382 20.2925 5.81763C20.2715 5.79706 20.2595 5.76909 20.259 5.73973C20.2584 5.71038 20.2695 5.68199 20.2897 5.66069C20.3099 5.63938 20.3376 5.62685 20.367 5.6258ZM27.617 5.6258H27.625C27.6543 5.62685 27.682 5.63938 27.7022 5.66069C27.7224 5.68199 27.7335 5.71038 27.7329 5.73973C27.7324 5.76909 27.7204 5.79706 27.6994 5.81763C27.6785 5.8382 27.6503 5.84973 27.621 5.84973C27.5916 5.84973 27.5634 5.8382 27.5425 5.81763C27.5215 5.79706 27.5095 5.76909 27.509 5.73973C27.5084 5.71038 27.5195 5.68199 27.5397 5.66069C27.5599 5.63938 27.5876 5.62685 27.617 5.6258ZM20.357 6.1888H20.375C20.436 6.1898 20.485 6.2388 20.486 6.3008C20.486 6.3618 20.436 6.4108 20.375 6.4108C20.3473 6.41009 20.3209 6.39919 20.3009 6.38019C20.2808 6.36119 20.2684 6.33544 20.2662 6.30789C20.264 6.28034 20.272 6.25294 20.2888 6.23095C20.3055 6.20897 20.3298 6.19396 20.357 6.1888ZM27.607 6.1888H27.625C27.686 6.1898 27.735 6.2388 27.736 6.3008C27.736 6.3618 27.686 6.4108 27.625 6.4108C27.5973 6.41009 27.5709 6.39919 27.5509 6.38019C27.5308 6.36119 27.5184 6.33544 27.5162 6.30789C27.514 6.28034 27.522 6.25294 27.5388 6.23095C27.5555 6.20897 27.5798 6.19396 27.607 6.1888ZM24.893 6.2238C25.0174 6.22228 25.1409 6.24535 25.2564 6.29168C25.3719 6.33802 25.4771 6.4067 25.566 6.4938C25.6554 6.58043 25.7269 6.68388 25.7763 6.79822C25.8256 6.91256 25.8519 7.03553 25.8536 7.16006C25.8552 7.28459 25.8323 7.40822 25.786 7.52384C25.7397 7.63947 25.6711 7.74481 25.584 7.8338L23.775 9.6938C23.5977 9.86533 23.3606 9.96103 23.1139 9.96057C22.8673 9.96011 22.6305 9.86354 22.4539 9.69136C22.2773 9.51917 22.1748 9.28494 22.168 9.03837C22.1613 8.79181 22.251 8.55234 22.418 8.3708L24.227 6.5138C24.3133 6.42392 24.4167 6.35203 24.531 6.30226C24.6453 6.25248 24.7683 6.22582 24.893 6.2238ZM20.377 6.7498C20.3917 6.74993 20.4062 6.75296 20.4197 6.75871C20.4333 6.76446 20.4456 6.77282 20.4559 6.78331C20.4662 6.79381 20.4743 6.80623 20.4798 6.81987C20.4853 6.83351 20.4881 6.8481 20.488 6.8628C20.4878 6.87751 20.4848 6.89205 20.479 6.90559C20.4733 6.91913 20.4649 6.9314 20.4544 6.94171C20.444 6.95201 20.4315 6.96015 20.4179 6.96566C20.4043 6.97117 20.3897 6.97393 20.375 6.9738C20.3453 6.97354 20.3169 6.96148 20.2961 6.94029C20.2752 6.9191 20.2637 6.89051 20.264 6.8608C20.2642 6.8311 20.2763 6.80272 20.2975 6.7819C20.3187 6.76108 20.3473 6.74954 20.377 6.7498ZM27.627 6.7498C27.6417 6.74993 27.6562 6.75296 27.6697 6.75871C27.6833 6.76446 27.6956 6.77282 27.7059 6.78331C27.7162 6.79381 27.7243 6.80623 27.7298 6.81987C27.7353 6.83351 27.7381 6.8481 27.738 6.8628C27.7378 6.87751 27.7348 6.89205 27.729 6.90559C27.7233 6.91913 27.7149 6.9314 27.7044 6.94171C27.694 6.95201 27.6815 6.96015 27.6679 6.96566C27.6543 6.97117 27.6397 6.97393 27.625 6.9738C27.5953 6.97354 27.5669 6.96148 27.5461 6.94029C27.5252 6.9191 27.5137 6.89051 27.514 6.8608C27.5142 6.8311 27.5263 6.80272 27.5475 6.7819C27.5687 6.76108 27.5973 6.74954 27.627 6.7498ZM20.367 7.3118H20.375C20.4043 7.31285 20.4321 7.32538 20.4522 7.34669C20.4724 7.36799 20.4835 7.39638 20.4829 7.42573C20.4824 7.45509 20.4704 7.48306 20.4494 7.50363C20.4285 7.5242 20.4003 7.53573 20.371 7.53573C20.3416 7.53573 20.3134 7.5242 20.2925 7.50363C20.2715 7.48306 20.2595 7.45509 20.259 7.42573C20.2584 7.39638 20.2695 7.36799 20.2897 7.34669C20.3099 7.32538 20.3376 7.31285 20.367 7.3118ZM27.617 7.3118H27.625C27.6543 7.31285 27.682 7.32538 27.7022 7.34669C27.7224 7.36799 27.7335 7.39638 27.7329 7.42573C27.7324 7.45509 27.7204 7.48306 27.6994 7.50363C27.6785 7.5242 27.6503 7.53573 27.621 7.53573C27.5916 7.53573 27.5634 7.5242 27.5425 7.50363C27.5215 7.48306 27.5095 7.45509 27.509 7.42573C27.5084 7.39638 27.5195 7.36799 27.5397 7.34669C27.5599 7.32538 27.5876 7.31285 27.617 7.3118ZM20.367 7.8718H20.375C20.4043 7.87285 20.4321 7.88538 20.4522 7.90669C20.4724 7.92799 20.4835 7.95638 20.4829 7.98573C20.4824 8.01509 20.4704 8.04306 20.4494 8.06363C20.4285 8.0842 20.4003 8.09573 20.371 8.09573C20.3416 8.09573 20.3134 8.0842 20.2925 8.06363C20.2715 8.04306 20.2595 8.01509 20.259 7.98573C20.2584 7.95638 20.2695 7.92799 20.2897 7.90669C20.3099 7.88538 20.3376 7.87285 20.367 7.8718ZM27.617 7.8718H27.625C27.6543 7.87285 27.682 7.88538 27.7022 7.90669C27.7224 7.92799 27.7335 7.95638 27.7329 7.98573C27.7324 8.01509 27.7204 8.04306 27.6994 8.06363C27.6785 8.0842 27.6503 8.09573 27.621 8.09573C27.5916 8.09573 27.5634 8.0842 27.5425 8.06363C27.5215 8.04306 27.5095 8.01509 27.509 7.98573C27.5084 7.95638 27.5195 7.92799 27.5397 7.90669C27.5599 7.88538 27.5876 7.87285 27.617 7.8718ZM20.367 8.4348H20.375C20.4043 8.43585 20.4321 8.44838 20.4522 8.46969C20.4724 8.49099 20.4835 8.51938 20.4829 8.54873C20.4824 8.57809 20.4704 8.60606 20.4494 8.62663C20.4285 8.6472 20.4003 8.65873 20.371 8.65873C20.3416 8.65873 20.3134 8.6472 20.2925 8.62663C20.2715 8.60606 20.2595 8.57809 20.259 8.54873C20.2584 8.51938 20.2695 8.49099 20.2897 8.46969C20.3099 8.44838 20.3376 8.43585 20.367 8.4348ZM27.617 8.4348H27.625C27.6543 8.43585 27.682 8.44838 27.7022 8.46969C27.7224 8.49099 27.7335 8.51938 27.7329 8.54873C27.7324 8.57809 27.7204 8.60606 27.6994 8.62663C27.6785 8.6472 27.6503 8.65873 27.621 8.65873C27.5916 8.65873 27.5634 8.6472 27.5425 8.62663C27.5215 8.60606 27.5095 8.57809 27.509 8.54873C27.5084 8.51938 27.5195 8.49099 27.5397 8.46969C27.5599 8.44838 27.5876 8.43585 27.617 8.4348ZM17.893 8.9488C18.0174 8.94728 18.1409 8.97035 18.2564 9.01668C18.3719 9.06302 18.4771 9.1317 18.566 9.2188C18.6554 9.30543 18.7269 9.40888 18.7763 9.52322C18.8256 9.63756 18.8519 9.76053 18.8536 9.88506C18.8552 10.0096 18.8323 10.1332 18.786 10.2488C18.7397 10.3645 18.6711 10.4698 18.584 10.5588L16.775 12.4178C16.6882 12.5069 16.5846 12.578 16.4704 12.6271C16.3561 12.6762 16.2332 12.7023 16.1088 12.704C15.9844 12.7056 15.861 12.6827 15.7454 12.6366C15.6299 12.5905 15.5246 12.5221 15.4355 12.4353C15.3464 12.3485 15.2752 12.245 15.2261 12.1307C15.177 12.0164 15.1509 11.8936 15.1493 11.7692C15.1477 11.6448 15.1706 11.5213 15.2167 11.4058C15.2627 11.2902 15.3312 11.1849 15.418 11.0958L17.227 9.2378C17.3134 9.1481 17.4168 9.07639 17.5311 9.02679C17.6454 8.9772 17.7684 8.95069 17.893 8.9488ZM31.893 8.9488C32.0174 8.94728 32.1409 8.97035 32.2564 9.01668C32.3719 9.06302 32.4771 9.1317 32.566 9.2188C32.6554 9.30543 32.7269 9.40888 32.7763 9.52322C32.8256 9.63756 32.8519 9.76053 32.8536 9.88506C32.8552 10.0096 32.8323 10.1332 32.786 10.2488C32.7397 10.3645 32.6711 10.4698 32.584 10.5588L30.775 12.4178C30.6882 12.5069 30.5846 12.578 30.4704 12.6271C30.3561 12.6762 30.2332 12.7023 30.1088 12.704C29.9844 12.7056 29.861 12.6827 29.7454 12.6366C29.6299 12.5905 29.5246 12.5221 29.4355 12.4353C29.3464 12.3485 29.2752 12.245 29.2261 12.1307C29.177 12.0164 29.1509 11.8936 29.1493 11.7692C29.1477 11.6448 29.1706 11.5213 29.2167 11.4058C29.2627 11.2902 29.3312 11.1849 29.418 11.0958L31.227 9.2378C31.3134 9.1481 31.4168 9.07639 31.5311 9.02679C31.6454 8.9772 31.7684 8.95069 31.893 8.9488ZM20.367 8.9978H20.375C20.4043 8.99885 20.4321 9.01138 20.4522 9.03269C20.4724 9.05399 20.4835 9.08238 20.4829 9.11173C20.4824 9.14109 20.4704 9.16906 20.4494 9.18963C20.4285 9.2102 20.4003 9.22173 20.371 9.22173C20.3416 9.22173 20.3134 9.2102 20.2925 9.18963C20.2715 9.16906 20.2595 9.14109 20.259 9.11173C20.2584 9.08238 20.2695 9.05399 20.2897 9.03269C20.3099 9.01138 20.3376 8.99885 20.367 8.9978ZM27.617 8.9978H27.625C27.6543 8.99885 27.682 9.01138 27.7022 9.03269C27.7224 9.05399 27.7335 9.08238 27.7329 9.11173C27.7324 9.14109 27.7204 9.16906 27.6994 9.18963C27.6785 9.2102 27.6503 9.22173 27.621 9.22173C27.5916 9.22173 27.5634 9.2102 27.5425 9.18963C27.5215 9.16906 27.5095 9.14109 27.509 9.11173C27.5084 9.08238 27.5195 9.05399 27.5397 9.03269C27.5599 9.01138 27.5876 8.99885 27.617 8.9978ZM20.367 9.5598H20.375C20.4043 9.56085 20.4321 9.57338 20.4522 9.59469C20.4724 9.61599 20.4835 9.64438 20.4829 9.67373C20.4824 9.70309 20.4704 9.73106 20.4494 9.75163C20.4285 9.7722 20.4003 9.78373 20.371 9.78373C20.3416 9.78373 20.3134 9.7722 20.2925 9.75163C20.2715 9.73106 20.2595 9.70309 20.259 9.67373C20.2584 9.64438 20.2695 9.61599 20.2897 9.59469C20.3099 9.57338 20.3376 9.56085 20.367 9.5598ZM27.617 9.5598H27.625C27.6543 9.56085 27.682 9.57338 27.7022 9.59469C27.7224 9.61599 27.7335 9.64438 27.7329 9.67373C27.7324 9.70309 27.7204 9.73106 27.6994 9.75163C27.6785 9.7722 27.6503 9.78373 27.621 9.78373C27.5916 9.78373 27.5634 9.7722 27.5425 9.75163C27.5215 9.73106 27.5095 9.70309 27.509 9.67373C27.5084 9.64438 27.5195 9.61599 27.5397 9.59469C27.5599 9.57338 27.5876 9.56085 27.617 9.5598ZM20.355 10.1228H20.375C20.436 10.1228 20.485 10.1748 20.486 10.2358C20.487 10.2978 20.437 10.3488 20.375 10.3488C20.3601 10.3489 20.3453 10.3461 20.3316 10.3405C20.3178 10.3348 20.3053 10.3265 20.2948 10.316C20.2842 10.3055 20.2759 10.293 20.2703 10.2792C20.2647 10.2654 20.2618 10.2507 20.262 10.2358C20.262 10.1808 20.301 10.1298 20.355 10.1228ZM27.605 10.1228H27.625C27.686 10.1228 27.735 10.1748 27.736 10.2358C27.737 10.2978 27.687 10.3488 27.625 10.3488C27.6101 10.3489 27.5953 10.3461 27.5816 10.3405C27.5678 10.3348 27.5553 10.3265 27.5448 10.316C27.5342 10.3055 27.5259 10.293 27.5203 10.2792C27.5147 10.2654 27.5118 10.2507 27.512 10.2358C27.512 10.1808 27.551 10.1298 27.605 10.1228ZM24.893 10.2238C25.0174 10.2223 25.1409 10.2453 25.2564 10.2917C25.3719 10.338 25.4771 10.4067 25.566 10.4938C25.6554 10.5804 25.7269 10.6839 25.7763 10.7982C25.8256 10.9126 25.8519 11.0355 25.8536 11.1601C25.8552 11.2846 25.8323 11.4082 25.786 11.5238C25.7397 11.6395 25.6711 11.7448 25.584 11.8338L23.775 13.6938C23.5977 13.8653 23.3606 13.961 23.1139 13.9606C22.8673 13.9601 22.6305 13.8635 22.4539 13.6914C22.2773 13.5192 22.1748 13.2849 22.168 13.0384C22.1613 12.7918 22.251 12.5523 22.418 12.3708L24.227 10.5138C24.3134 10.424 24.4167 10.3521 24.531 10.3023C24.6453 10.2526 24.7683 10.2259 24.893 10.2238ZM20.377 10.6838C20.439 10.6838 20.489 10.7368 20.488 10.7988C20.4878 10.8132 20.4849 10.8275 20.4792 10.8408C20.4736 10.8541 20.4653 10.8662 20.455 10.8763C20.4447 10.8864 20.4325 10.8944 20.4191 10.8998C20.4057 10.9052 20.3914 10.9079 20.377 10.9078C20.3623 10.9082 20.3476 10.9057 20.3339 10.9003C20.3202 10.895 20.3078 10.8869 20.2972 10.8767C20.2867 10.8664 20.2783 10.8541 20.2726 10.8406C20.2669 10.8271 20.264 10.8125 20.264 10.7978C20.264 10.7358 20.314 10.6828 20.377 10.6828V10.6838ZM27.627 10.6838C27.689 10.6838 27.739 10.7368 27.738 10.7988C27.7378 10.8132 27.7349 10.8275 27.7292 10.8408C27.7236 10.8541 27.7153 10.8662 27.705 10.8763C27.6947 10.8864 27.6825 10.8944 27.6691 10.8998C27.6557 10.9052 27.6414 10.9079 27.627 10.9078C27.6123 10.9082 27.5976 10.9057 27.5839 10.9003C27.5702 10.895 27.5578 10.8869 27.5472 10.8767C27.5367 10.8664 27.5283 10.8541 27.5226 10.8406C27.5169 10.8271 27.514 10.8125 27.514 10.7978C27.514 10.7358 27.564 10.6828 27.627 10.6828V10.6838ZM20.377 11.2458C20.3917 11.2459 20.4063 11.249 20.4199 11.2547C20.4335 11.2605 20.4459 11.2689 20.4562 11.2795C20.4666 11.29 20.4747 11.3025 20.4803 11.3162C20.4858 11.3299 20.4886 11.3445 20.4885 11.3593C20.4883 11.3741 20.4853 11.3887 20.4795 11.4023C20.4737 11.4159 20.4653 11.4282 20.4548 11.4386C20.4443 11.4489 20.4318 11.4571 20.4181 11.4626C20.4044 11.4682 20.3897 11.4709 20.375 11.4708C20.3451 11.4705 20.3166 11.4584 20.2957 11.4371C20.2748 11.4159 20.2632 11.3871 20.2635 11.3573C20.2637 11.3275 20.2758 11.299 20.2971 11.278C20.3184 11.2571 20.3471 11.2455 20.377 11.2458ZM27.627 11.2458C27.6417 11.2459 27.6563 11.249 27.6699 11.2547C27.6835 11.2605 27.6959 11.2689 27.7062 11.2795C27.7166 11.29 27.7247 11.3025 27.7303 11.3162C27.7358 11.3299 27.7386 11.3445 27.7385 11.3593C27.7383 11.3741 27.7353 11.3887 27.7295 11.4023C27.7237 11.4159 27.7153 11.4282 27.7048 11.4386C27.6943 11.4489 27.6818 11.4571 27.6681 11.4626C27.6544 11.4682 27.6397 11.4709 27.625 11.4708C27.5951 11.4705 27.5666 11.4584 27.5457 11.4371C27.5248 11.4159 27.5132 11.3871 27.5135 11.3573C27.5137 11.3275 27.5258 11.299 27.5471 11.278C27.5684 11.2571 27.5971 11.2455 27.627 11.2458ZM20.367 11.8078C20.3824 11.8067 20.3979 11.8088 20.4125 11.814C20.4271 11.8192 20.4405 11.8274 20.4517 11.838C20.463 11.8486 20.472 11.8614 20.478 11.8757C20.4841 11.89 20.4871 11.9053 20.487 11.9208C20.486 11.9828 20.437 12.0348 20.375 12.0348C20.3465 12.0333 20.3196 12.0212 20.2996 12.0009C20.2796 11.9806 20.2679 11.9535 20.2669 11.925C20.2659 11.8965 20.2756 11.8686 20.2941 11.8469C20.3127 11.8252 20.3386 11.8113 20.367 11.8078ZM27.617 11.8078C27.6324 11.8067 27.6479 11.8088 27.6625 11.814C27.6771 11.8192 27.6905 11.8274 27.7017 11.838C27.713 11.8486 27.722 11.8614 27.728 11.8757C27.7341 11.89 27.7371 11.9053 27.737 11.9208C27.736 11.9828 27.687 12.0348 27.625 12.0348C27.5965 12.0333 27.5696 12.0212 27.5496 12.0009C27.5296 11.9806 27.5179 11.9535 27.5169 11.925C27.5159 11.8965 27.5256 11.8686 27.5441 11.8469C27.5627 11.8252 27.5886 11.8113 27.617 11.8078ZM20.367 12.3708H20.375C20.437 12.3708 20.487 12.4218 20.486 12.4838C20.486 12.5448 20.436 12.5968 20.375 12.5978C20.3465 12.5963 20.3196 12.5842 20.2996 12.5639C20.2796 12.5436 20.2679 12.5165 20.2669 12.488C20.2659 12.4595 20.2756 12.4316 20.2941 12.4099C20.3127 12.3882 20.3386 12.3743 20.367 12.3708ZM27.617 12.3708H27.625C27.687 12.3708 27.737 12.4218 27.736 12.4838C27.736 12.5448 27.686 12.5968 27.625 12.5978C27.5965 12.5963 27.5696 12.5842 27.5496 12.5639C27.5296 12.5436 27.5179 12.5165 27.5169 12.488C27.5159 12.4595 27.5256 12.4316 27.5441 12.4099C27.5627 12.3882 27.5886 12.3743 27.617 12.3708ZM17.893 12.7418C18.0174 12.7403 18.1409 12.7633 18.2564 12.8097C18.3719 12.856 18.4771 12.9247 18.566 13.0118C18.6554 13.0984 18.7269 13.2019 18.7763 13.3162C18.8256 13.4306 18.8519 13.5535 18.8536 13.6781C18.8552 13.8026 18.8323 13.9262 18.786 14.0418C18.7397 14.1575 18.6711 14.2628 18.584 14.3518L16.775 16.2108C16.6882 16.2999 16.5846 16.371 16.4704 16.4201C16.3561 16.4692 16.2332 16.4953 16.1088 16.497C15.9844 16.4986 15.861 16.4757 15.7454 16.4296C15.6299 16.3835 15.5246 16.3151 15.4355 16.2283C15.3464 16.1415 15.2752 16.038 15.2261 15.9237C15.177 15.8094 15.1509 15.6866 15.1493 15.5622C15.1477 15.4378 15.1706 15.3143 15.2167 15.1988C15.2627 15.0832 15.3312 14.9779 15.418 14.8888L17.227 13.0308C17.3135 12.9411 17.4168 12.8695 17.5311 12.8199C17.6454 12.7703 17.7684 12.7437 17.893 12.7418ZM31.893 12.7418C32.0174 12.7403 32.1409 12.7633 32.2564 12.8097C32.3719 12.856 32.4771 12.9247 32.566 13.0118C32.6554 13.0984 32.7269 13.2019 32.7763 13.3162C32.8256 13.4306 32.8519 13.5535 32.8536 13.6781C32.8552 13.8026 32.8323 13.9262 32.786 14.0418C32.7397 14.1575 32.6711 14.2628 32.584 14.3518L30.775 16.2108C30.6882 16.2999 30.5846 16.371 30.4704 16.4201C30.3561 16.4692 30.2332 16.4953 30.1088 16.497C29.8576 16.5003 29.6154 16.4036 29.4355 16.2283C29.3464 16.1415 29.2752 16.038 29.2261 15.9237C29.177 15.8094 29.1509 15.6866 29.1493 15.5622C29.146 15.311 29.2426 15.0688 29.418 14.8888L31.227 13.0308C31.3135 12.9411 31.4168 12.8695 31.5311 12.8199C31.6454 12.7703 31.7684 12.7437 31.893 12.7418ZM20.367 12.9328H20.375C20.4043 12.9339 20.4321 12.9464 20.4522 12.9677C20.4724 12.989 20.4835 13.0174 20.4829 13.0467C20.4824 13.0761 20.4704 13.1041 20.4494 13.1246C20.4285 13.1452 20.4003 13.1567 20.371 13.1567C20.3416 13.1567 20.3134 13.1452 20.2925 13.1246C20.2715 13.1041 20.2595 13.0761 20.259 13.0467C20.2584 13.0174 20.2695 12.989 20.2897 12.9677C20.3099 12.9464 20.3376 12.9339 20.367 12.9328ZM27.617 12.9328H27.625C27.6543 12.9339 27.682 12.9464 27.7022 12.9677C27.7224 12.989 27.7335 13.0174 27.7329 13.0467C27.7324 13.0761 27.7204 13.1041 27.6994 13.1246C27.6785 13.1452 27.6503 13.1567 27.621 13.1567C27.5916 13.1567 27.5634 13.1452 27.5425 13.1246C27.5215 13.1041 27.5095 13.0761 27.509 13.0467C27.5084 13.0174 27.5195 12.989 27.5397 12.9677C27.5599 12.9464 27.5876 12.9339 27.617 12.9328ZM20.367 13.4958H20.375C20.4043 13.4969 20.4321 13.5094 20.4522 13.5307C20.4724 13.552 20.4835 13.5804 20.4829 13.6097C20.4824 13.6391 20.4704 13.6671 20.4494 13.6876C20.4285 13.7082 20.4003 13.7197 20.371 13.7197C20.3416 13.7197 20.3134 13.7082 20.2925 13.6876C20.2715 13.6671 20.2595 13.6391 20.259 13.6097C20.2584 13.5804 20.2695 13.552 20.2897 13.5307C20.3099 13.5094 20.3376 13.4969 20.367 13.4958ZM27.617 13.4958H27.625C27.6543 13.4969 27.682 13.5094 27.7022 13.5307C27.7224 13.552 27.7335 13.5804 27.7329 13.6097C27.7324 13.6391 27.7204 13.6671 27.6994 13.6876C27.6785 13.7082 27.6503 13.7197 27.621 13.7197C27.5916 13.7197 27.5634 13.7082 27.5425 13.6876C27.5215 13.6671 27.5095 13.6391 27.509 13.6097C27.5084 13.5804 27.5195 13.552 27.5397 13.5307C27.5599 13.5094 27.5876 13.4969 27.617 13.4958ZM24.893 14.2258C25.0174 14.2243 25.1409 14.2473 25.2564 14.2937C25.3719 14.34 25.4771 14.4087 25.566 14.4958C25.6554 14.5824 25.7269 14.6859 25.7763 14.8002C25.8256 14.9146 25.8519 15.0375 25.8536 15.1621C25.8552 15.2866 25.8323 15.4102 25.786 15.5258C25.7397 15.6415 25.6711 15.7468 25.584 15.8358L23.775 17.6958C23.5977 17.8673 23.3606 17.963 23.1139 17.9626C22.8673 17.9621 22.6305 17.8655 22.4539 17.6934C22.2773 17.5212 22.1748 17.2869 22.168 17.0404C22.1613 16.7938 22.251 16.5543 22.418 16.3728L24.227 14.5148C24.3134 14.4251 24.4168 14.3534 24.5311 14.3038C24.6454 14.2542 24.7684 14.2277 24.893 14.2258ZM20.355 14.6208H20.375C20.3971 14.621 20.4187 14.6278 20.437 14.6402C20.4553 14.6527 20.4695 14.6703 20.4778 14.6909C20.4861 14.7114 20.4881 14.7339 20.4836 14.7556C20.4791 14.7773 20.4682 14.7972 20.4524 14.8127C20.4366 14.8282 20.4166 14.8387 20.3948 14.8428C20.3731 14.847 20.3506 14.8445 20.3302 14.8359C20.3098 14.8272 20.2924 14.8127 20.2803 14.7942C20.2681 14.7757 20.2618 14.754 20.262 14.7318C20.262 14.6778 20.301 14.6288 20.355 14.6208ZM27.605 14.6208H27.625C27.6471 14.621 27.6687 14.6278 27.687 14.6402C27.7053 14.6527 27.7195 14.6703 27.7278 14.6909C27.7361 14.7114 27.7381 14.7339 27.7336 14.7556C27.7291 14.7773 27.7182 14.7972 27.7024 14.8127C27.6866 14.8282 27.6666 14.8387 27.6448 14.8428C27.6231 14.847 27.6006 14.8445 27.5802 14.8359C27.5598 14.8272 27.5424 14.8127 27.5303 14.7942C27.5181 14.7757 27.5118 14.754 27.512 14.7318C27.512 14.6778 27.551 14.6288 27.605 14.6208ZM20.355 15.1828H20.375C20.436 15.1838 20.485 15.2328 20.486 15.2948C20.4857 15.3161 20.4793 15.3369 20.4676 15.3547C20.4559 15.3726 20.4394 15.3867 20.42 15.3955C20.4005 15.4042 20.379 15.4072 20.3579 15.4042C20.3368 15.4011 20.317 15.3921 20.3009 15.3782C20.2847 15.3643 20.2729 15.346 20.2667 15.3256C20.2606 15.3052 20.2604 15.2835 20.2662 15.263C20.272 15.2424 20.2835 15.224 20.2994 15.2098C20.3153 15.1956 20.3349 15.1862 20.356 15.1828H20.355ZM27.605 15.1828H27.625C27.686 15.1838 27.735 15.2328 27.736 15.2948C27.7357 15.3161 27.7293 15.3369 27.7176 15.3547C27.7059 15.3726 27.6894 15.3867 27.67 15.3955C27.6505 15.4042 27.629 15.4072 27.6079 15.4042C27.5868 15.4011 27.567 15.3921 27.5509 15.3782C27.5347 15.3643 27.5229 15.346 27.5167 15.3256C27.5106 15.3052 27.5104 15.2835 27.5162 15.263C27.522 15.2424 27.5335 15.224 27.5494 15.2098C27.5653 15.1956 27.5849 15.1862 27.606 15.1828H27.605ZM20.377 15.7438C20.4068 15.7441 20.4353 15.7562 20.4562 15.7775C20.4771 15.7987 20.4887 15.8275 20.4885 15.8573C20.4882 15.8871 20.4761 15.9157 20.4548 15.9366C20.4335 15.9575 20.4048 15.9691 20.375 15.9688C20.3602 15.9687 20.3456 15.9656 20.332 15.9599C20.3184 15.9541 20.3061 15.9457 20.2957 15.9351C20.2748 15.9139 20.2632 15.8851 20.2635 15.8553C20.2637 15.8255 20.2758 15.797 20.2971 15.776C20.3184 15.7551 20.3471 15.7435 20.377 15.7438ZM27.627 15.7438C27.6568 15.7441 27.6853 15.7562 27.7062 15.7775C27.7271 15.7987 27.7387 15.8275 27.7385 15.8573C27.7382 15.8871 27.7261 15.9157 27.7048 15.9366C27.6835 15.9575 27.6548 15.9691 27.625 15.9688C27.6102 15.9687 27.5956 15.9656 27.582 15.9599C27.5684 15.9541 27.5561 15.9457 27.5457 15.9351C27.5248 15.9139 27.5132 15.8851 27.5135 15.8553C27.5137 15.8255 27.5258 15.797 27.5471 15.776C27.5684 15.7551 27.5971 15.7435 27.627 15.7438ZM17.893 16.5348C18.0174 16.5333 18.1409 16.5563 18.2564 16.6027C18.3719 16.649 18.4771 16.7177 18.566 16.8048C18.6554 16.8914 18.7269 16.9949 18.7763 17.1092C18.8256 17.2236 18.8519 17.3465 18.8536 17.4711C18.8552 17.5956 18.8323 17.7192 18.786 17.8348C18.7397 17.9505 18.6711 18.0558 18.584 18.1448L16.775 20.0038C16.6881 20.0929 16.5845 20.164 16.4702 20.2131C16.3558 20.2622 16.2329 20.2882 16.1085 20.2898C15.984 20.2914 15.8605 20.2685 15.745 20.2223C15.6294 20.1761 15.5241 20.1077 15.435 20.0208C15.3459 19.9339 15.2747 19.8304 15.2257 19.716C15.1766 19.6017 15.1505 19.4788 15.1489 19.3543C15.1474 19.2299 15.1703 19.1064 15.2165 18.9908C15.2626 18.8752 15.3311 18.7699 15.418 18.6808L17.227 16.8238C17.3134 16.7341 17.4168 16.6624 17.5311 16.6128C17.6454 16.5632 17.7684 16.5367 17.893 16.5348ZM31.893 16.5348C32.0174 16.5333 32.1409 16.5563 32.2564 16.6027C32.3719 16.649 32.4771 16.7177 32.566 16.8048C32.6554 16.8914 32.7269 16.9949 32.7763 17.1092C32.8256 17.2236 32.8519 17.3465 32.8536 17.4711C32.8552 17.5956 32.8323 17.7192 32.786 17.8348C32.7397 17.9505 32.6711 18.0558 32.584 18.1448L30.775 20.0038C30.6881 20.0929 30.5845 20.164 30.4702 20.2131C30.3558 20.2622 30.2329 20.2882 30.1085 20.2898C29.984 20.2914 29.8605 20.2685 29.745 20.2223C29.6294 20.1761 29.5241 20.1077 29.435 20.0208C29.3459 19.9339 29.2747 19.8304 29.2257 19.716C29.1766 19.6017 29.1505 19.4788 29.1489 19.3543C29.1474 19.2299 29.1703 19.1064 29.2165 18.9908C29.2626 18.8752 29.3311 18.7699 29.418 18.6808L31.227 16.8238C31.3134 16.7341 31.4168 16.6624 31.5311 16.6128C31.6454 16.5632 31.7684 16.5367 31.893 16.5348ZM20.367 17.4318C20.3822 17.4307 20.3976 17.4328 20.412 17.4378C20.4265 17.4429 20.4398 17.4509 20.451 17.4613C20.4623 17.4717 20.4713 17.4843 20.4774 17.4983C20.4836 17.5123 20.4869 17.5275 20.487 17.5428C20.487 17.5726 20.4751 17.6013 20.454 17.6224C20.4329 17.6435 20.4043 17.6553 20.3745 17.6553C20.3446 17.6553 20.316 17.6435 20.2949 17.6224C20.2738 17.6013 20.262 17.5726 20.262 17.5428C20.262 17.4828 20.308 17.4348 20.367 17.4318ZM27.617 17.4318C27.6322 17.4307 27.6476 17.4328 27.662 17.4378C27.6765 17.4429 27.6898 17.4509 27.701 17.4613C27.7123 17.4717 27.7213 17.4843 27.7274 17.4983C27.7336 17.5123 27.7369 17.5275 27.737 17.5428C27.737 17.5726 27.7251 17.6013 27.704 17.6224C27.6829 17.6435 27.6543 17.6553 27.6245 17.6553C27.5946 17.6553 27.566 17.6435 27.5449 17.6224C27.5238 17.6013 27.512 17.5726 27.512 17.5428C27.512 17.4828 27.558 17.4348 27.617 17.4318ZM24.893 18.2258C25.0174 18.2243 25.1409 18.2473 25.2564 18.2937C25.3719 18.34 25.4771 18.4087 25.566 18.4958C25.6554 18.5824 25.7269 18.6859 25.7763 18.8002C25.8256 18.9146 25.8519 19.0375 25.8536 19.1621C25.8552 19.2866 25.8323 19.4102 25.786 19.5258C25.7397 19.6415 25.6711 19.7468 25.584 19.8358L23.775 21.6958C23.5977 21.8673 23.3606 21.963 23.1139 21.9626C22.8673 21.9621 22.6305 21.8655 22.4539 21.6934C22.2773 21.5212 22.1748 21.2869 22.168 21.0404C22.1613 20.7938 22.251 20.5543 22.418 20.3728L24.227 18.5148C24.3134 18.4251 24.4168 18.3534 24.5311 18.3038C24.6454 18.2542 24.7684 18.2277 24.893 18.2258ZM20.355 19.1188H20.375C20.3971 19.119 20.4187 19.1258 20.437 19.1382C20.4553 19.1507 20.4695 19.1683 20.4778 19.1889C20.4861 19.2094 20.4881 19.2319 20.4836 19.2536C20.4791 19.2753 20.4682 19.2952 20.4524 19.3107C20.4366 19.3262 20.4166 19.3367 20.3948 19.3408C20.3731 19.345 20.3506 19.3425 20.3302 19.3339C20.3098 19.3252 20.2924 19.3107 20.2803 19.2922C20.2681 19.2737 20.2618 19.252 20.262 19.2298C20.2614 19.2032 20.2705 19.1773 20.2876 19.1568C20.3047 19.1364 20.3286 19.1229 20.355 19.1188ZM27.605 19.1188H27.625C27.6471 19.119 27.6687 19.1258 27.687 19.1382C27.7053 19.1507 27.7195 19.1683 27.7278 19.1889C27.7361 19.2094 27.7381 19.2319 27.7336 19.2536C27.7291 19.2753 27.7182 19.2952 27.7024 19.3107C27.6866 19.3262 27.6666 19.3367 27.6448 19.3408C27.6231 19.345 27.6006 19.3425 27.5802 19.3339C27.5598 19.3252 27.5424 19.3107 27.5303 19.2922C27.5181 19.2737 27.5118 19.252 27.512 19.2298C27.5114 19.2032 27.5205 19.1773 27.5376 19.1568C27.5547 19.1364 27.5786 19.1229 27.605 19.1188ZM20.377 19.6788C20.4068 19.6791 20.4353 19.6912 20.4562 19.7125C20.4771 19.7337 20.4887 19.7625 20.4885 19.7923C20.4882 19.8221 20.4761 19.8507 20.4548 19.8716C20.4335 19.8925 20.4048 19.9041 20.375 19.9038C20.3453 19.9035 20.3169 19.8915 20.2961 19.8703C20.2752 19.8491 20.2637 19.8205 20.264 19.7908C20.2642 19.7611 20.2763 19.7327 20.2975 19.7119C20.3187 19.6911 20.3473 19.6795 20.377 19.6798V19.6788ZM27.627 19.6788C27.6568 19.6791 27.6853 19.6912 27.7062 19.7125C27.7271 19.7337 27.7387 19.7625 27.7385 19.7923C27.7382 19.8221 27.7261 19.8507 27.7048 19.8716C27.6835 19.8925 27.6548 19.9041 27.625 19.9038C27.5953 19.9035 27.5669 19.8915 27.5461 19.8703C27.5252 19.8491 27.5137 19.8205 27.514 19.7908C27.5142 19.7611 27.5263 19.7327 27.5475 19.7119C27.5687 19.6911 27.5973 19.6795 27.627 19.6798V19.6788ZM20.367 20.2418H20.375C20.4043 20.2429 20.4321 20.2554 20.4522 20.2767C20.4724 20.298 20.4835 20.3264 20.4829 20.3557C20.4824 20.3851 20.4704 20.4131 20.4494 20.4336C20.4285 20.4542 20.4003 20.4657 20.371 20.4657C20.3416 20.4657 20.3134 20.4542 20.2925 20.4336C20.2715 20.4131 20.2595 20.3851 20.259 20.3557C20.2584 20.3264 20.2695 20.298 20.2897 20.2767C20.3099 20.2554 20.3376 20.2429 20.367 20.2418ZM27.617 20.2418H27.625C27.6543 20.2429 27.682 20.2554 27.7022 20.2767C27.7224 20.298 27.7335 20.3264 27.7329 20.3557C27.7324 20.3851 27.7204 20.4131 27.6994 20.4336C27.6785 20.4542 27.6503 20.4657 27.621 20.4657C27.5916 20.4657 27.5634 20.4542 27.5425 20.4336C27.5215 20.4131 27.5095 20.3851 27.509 20.3557C27.5084 20.3264 27.5195 20.298 27.5397 20.2767C27.5599 20.2554 27.5876 20.2429 27.617 20.2418ZM17.893 20.3278V20.3298C18.0174 20.3283 18.1409 20.3513 18.2564 20.3977C18.3719 20.444 18.4771 20.5127 18.566 20.5998C18.6554 20.6864 18.7269 20.7899 18.7763 20.9042C18.8256 21.0186 18.8519 21.1415 18.8536 21.2661C18.8552 21.3906 18.8323 21.5142 18.786 21.6298C18.7397 21.7455 18.6711 21.8508 18.584 21.9398L16.775 23.7988C16.5993 23.9784 16.3597 24.0811 16.1085 24.0842C15.8573 24.0874 15.6151 23.9909 15.435 23.8158C15.3455 23.7291 15.2742 23.6256 15.2249 23.5112C15.1756 23.3969 15.1494 23.2739 15.1479 23.1493C15.1463 23.0248 15.1693 22.9012 15.2157 22.7856C15.262 22.67 15.3308 22.5647 15.418 22.4758L17.227 20.6188C17.3134 20.5289 17.4167 20.4569 17.531 20.4069C17.6452 20.357 17.7683 20.3301 17.893 20.3278ZM31.893 20.3278V20.3298C32.0174 20.3283 32.1409 20.3513 32.2564 20.3977C32.3719 20.444 32.4771 20.5127 32.566 20.5998C32.6554 20.6864 32.7269 20.7899 32.7763 20.9042C32.8256 21.0186 32.8519 21.1415 32.8536 21.2661C32.8552 21.3906 32.8323 21.5142 32.786 21.6298C32.7397 21.7455 32.6711 21.8508 32.584 21.9398L30.775 23.7988C30.5993 23.9784 30.3597 24.0811 30.1085 24.0842C29.8573 24.0874 29.6151 23.9909 29.435 23.8158C29.3455 23.7291 29.2742 23.6256 29.2249 23.5112C29.1756 23.3969 29.1494 23.2739 29.1479 23.1493C29.1463 23.0248 29.1693 22.9012 29.2157 22.7856C29.262 22.67 29.3308 22.5647 29.418 22.4758L31.227 20.6188C31.3134 20.5289 31.4167 20.4569 31.531 20.4069C31.6452 20.357 31.7683 20.3301 31.893 20.3278ZM20.367 20.8048H20.375C20.4043 20.8059 20.4321 20.8184 20.4522 20.8397C20.4724 20.861 20.4835 20.8894 20.4829 20.9187C20.4824 20.9481 20.4704 20.9761 20.4494 20.9966C20.4285 21.0172 20.4003 21.0287 20.371 21.0287C20.3416 21.0287 20.3134 21.0172 20.2925 20.9966C20.2715 20.9761 20.2595 20.9481 20.259 20.9187C20.2584 20.8894 20.2695 20.861 20.2897 20.8397C20.3099 20.8184 20.3376 20.8059 20.367 20.8048ZM27.617 20.8048H27.625C27.6543 20.8059 27.682 20.8184 27.7022 20.8397C27.7224 20.861 27.7335 20.8894 27.7329 20.9187C27.7324 20.9481 27.7204 20.9761 27.6994 20.9966C27.6785 21.0172 27.6503 21.0287 27.621 21.0287C27.5916 21.0287 27.5634 21.0172 27.5425 20.9966C27.5215 20.9761 27.5095 20.9481 27.509 20.9187C27.5084 20.8894 27.5195 20.861 27.5397 20.8397C27.5599 20.8184 27.5876 20.8059 27.617 20.8048ZM20.367 21.3668H20.375C20.4043 21.3679 20.4321 21.3804 20.4522 21.4017C20.4724 21.423 20.4835 21.4514 20.4829 21.4807C20.4824 21.5101 20.4704 21.5381 20.4494 21.5586C20.4285 21.5792 20.4003 21.5907 20.371 21.5907C20.3416 21.5907 20.3134 21.5792 20.2925 21.5586C20.2715 21.5381 20.2595 21.5101 20.259 21.4807C20.2584 21.4514 20.2695 21.423 20.2897 21.4017C20.3099 21.3804 20.3376 21.3679 20.367 21.3668ZM27.617 21.3668H27.625C27.6543 21.3679 27.682 21.3804 27.7022 21.4017C27.7224 21.423 27.7335 21.4514 27.7329 21.4807C27.7324 21.5101 27.7204 21.5381 27.6994 21.5586C27.6785 21.5792 27.6503 21.5907 27.621 21.5907C27.5916 21.5907 27.5634 21.5792 27.5425 21.5586C27.5215 21.5381 27.5095 21.5101 27.509 21.4807C27.5084 21.4514 27.5195 21.423 27.5397 21.4017C27.5599 21.3804 27.5876 21.3679 27.617 21.3668ZM24.893 22.2238V22.2258C25.0174 22.2243 25.1409 22.2473 25.2564 22.2937C25.3719 22.34 25.4771 22.4087 25.566 22.4958C25.6554 22.5824 25.7269 22.6859 25.7763 22.8002C25.8256 22.9146 25.8519 23.0375 25.8536 23.1621C25.8552 23.2866 25.8323 23.4102 25.786 23.5258C25.7397 23.6415 25.6711 23.7468 25.584 23.8358L23.775 25.6958C23.5977 25.8673 23.3606 25.963 23.1139 25.9626C22.8673 25.9621 22.6305 25.8655 22.4539 25.6934C22.2773 25.5212 22.1748 25.2869 22.168 25.0404C22.1613 24.7938 22.251 24.5543 22.418 24.3728L24.227 22.5128C24.3135 22.4231 24.4168 22.3515 24.5311 22.3019C24.6454 22.2523 24.7684 22.2257 24.893 22.2238ZM20.367 23.0548H20.375C20.4043 23.0559 20.4321 23.0684 20.4522 23.0897C20.4724 23.111 20.4835 23.1394 20.4829 23.1687C20.4824 23.1981 20.4704 23.2261 20.4494 23.2466C20.4285 23.2672 20.4003 23.2787 20.371 23.2787C20.3416 23.2787 20.3134 23.2672 20.2925 23.2466C20.2715 23.2261 20.2595 23.1981 20.259 23.1687C20.2584 23.1394 20.2695 23.111 20.2897 23.0897C20.3099 23.0684 20.3376 23.0559 20.367 23.0548ZM27.617 23.0548H27.625C27.6543 23.0559 27.682 23.0684 27.7022 23.0897C27.7224 23.111 27.7335 23.1394 27.7329 23.1687C27.7324 23.1981 27.7204 23.2261 27.6994 23.2466C27.6785 23.2672 27.6503 23.2787 27.621 23.2787C27.5916 23.2787 27.5634 23.2672 27.5425 23.2466C27.5215 23.2261 27.5095 23.1981 27.509 23.1687C27.5084 23.1394 27.5195 23.111 27.5397 23.0897C27.5599 23.0684 27.5876 23.0559 27.617 23.0548ZM20.355 23.6168H20.375C20.3971 23.617 20.4187 23.6238 20.437 23.6362C20.4553 23.6487 20.4695 23.6663 20.4778 23.6869C20.4861 23.7074 20.4881 23.7299 20.4836 23.7516C20.4791 23.7733 20.4682 23.7932 20.4524 23.8087C20.4366 23.8242 20.4166 23.8347 20.3948 23.8388C20.3731 23.843 20.3506 23.8405 20.3302 23.8319C20.3098 23.8232 20.2924 23.8087 20.2803 23.7902C20.2681 23.7717 20.2618 23.75 20.262 23.7278C20.262 23.6738 20.301 23.6248 20.355 23.6168ZM27.605 23.6168H27.625C27.6471 23.617 27.6687 23.6238 27.687 23.6362C27.7053 23.6487 27.7195 23.6663 27.7278 23.6869C27.7361 23.7074 27.7381 23.7299 27.7336 23.7516C27.7291 23.7733 27.7182 23.7932 27.7024 23.8087C27.6866 23.8242 27.6666 23.8347 27.6448 23.8388C27.6231 23.843 27.6006 23.8405 27.5802 23.8319C27.5598 23.8232 27.5424 23.8087 27.5303 23.7902C27.5181 23.7717 27.5118 23.75 27.512 23.7278C27.512 23.6738 27.551 23.6248 27.605 23.6168ZM17.893 24.1228C18.0174 24.1213 18.1409 24.1443 18.2564 24.1907C18.3719 24.237 18.4771 24.3057 18.566 24.3928C18.6554 24.4794 18.7269 24.5829 18.7763 24.6972C18.8256 24.8116 18.8519 24.9345 18.8536 25.0591C18.8552 25.1836 18.8323 25.3072 18.786 25.4228C18.7397 25.5385 18.6711 25.6438 18.584 25.7328L16.775 27.5918C16.5993 27.7714 16.3597 27.8741 16.1085 27.8772C15.8573 27.8804 15.6151 27.7839 15.435 27.6088C15.3455 27.5221 15.2742 27.4186 15.2249 27.3042C15.1756 27.1899 15.1494 27.0669 15.1479 26.9423C15.1463 26.8178 15.1693 26.6942 15.2157 26.5786C15.262 26.463 15.3308 26.3577 15.418 26.2688L17.227 24.4118C17.3133 24.3219 17.4167 24.25 17.531 24.2003C17.6453 24.1505 17.7683 24.1238 17.893 24.1218V24.1228ZM31.893 24.1228C32.0174 24.1213 32.1409 24.1443 32.2564 24.1907C32.3719 24.237 32.4771 24.3057 32.566 24.3928C32.6554 24.4794 32.7269 24.5829 32.7763 24.6972C32.8256 24.8116 32.8519 24.9345 32.8536 25.0591C32.8552 25.1836 32.8323 25.3072 32.786 25.4228C32.7397 25.5385 32.6711 25.6438 32.584 25.7328L30.775 27.5918C30.5993 27.7714 30.3597 27.8741 30.1085 27.8772C29.8573 27.8804 29.6151 27.7839 29.435 27.6088C29.3455 27.5221 29.2742 27.4186 29.2249 27.3042C29.1756 27.1899 29.1494 27.0669 29.1479 26.9423C29.1463 26.8178 29.1693 26.6942 29.2157 26.5786C29.262 26.463 29.3308 26.3577 29.418 26.2688L31.227 24.4118C31.3134 24.3219 31.4167 24.25 31.531 24.2003C31.6453 24.1505 31.7683 24.1238 31.893 24.1218V24.1228ZM20.355 24.1788H20.375C20.436 24.1798 20.485 24.2288 20.486 24.2908C20.4859 24.3122 20.4797 24.3331 20.4681 24.351C20.4565 24.369 20.4401 24.3832 20.4206 24.3922C20.4012 24.4011 20.3797 24.4042 20.3585 24.4013C20.3374 24.3983 20.3175 24.3894 20.3012 24.3755C20.285 24.3617 20.273 24.3434 20.2668 24.323C20.2606 24.3026 20.2603 24.2808 20.2661 24.2602C20.2718 24.2396 20.2834 24.2211 20.2993 24.2069C20.3152 24.1926 20.3349 24.1832 20.356 24.1798L20.355 24.1788ZM27.605 24.1788H27.625C27.686 24.1798 27.735 24.2288 27.736 24.2908C27.7359 24.3122 27.7297 24.3331 27.7181 24.351C27.7065 24.369 27.6901 24.3832 27.6706 24.3922C27.6512 24.4011 27.6297 24.4042 27.6085 24.4013C27.5874 24.3983 27.5675 24.3894 27.5512 24.3755C27.535 24.3617 27.523 24.3434 27.5168 24.323C27.5106 24.3026 27.5103 24.2808 27.5161 24.2602C27.5218 24.2396 27.5334 24.2211 27.5493 24.2069C27.5652 24.1926 27.5849 24.1832 27.606 24.1798L27.605 24.1788ZM24.893 26.2258C25.0174 26.2243 25.1409 26.2473 25.2564 26.2937C25.3719 26.34 25.4771 26.4087 25.566 26.4958C25.6554 26.5824 25.7269 26.6859 25.7763 26.8002C25.8256 26.9146 25.8519 27.0375 25.8536 27.1621C25.8552 27.2866 25.8323 27.4102 25.786 27.5258C25.7397 27.6415 25.6711 27.7468 25.584 27.8358L23.775 29.6958C23.5977 29.8673 23.3606 29.963 23.1139 29.9626C22.8673 29.9621 22.6305 29.8655 22.4539 29.6934C22.2773 29.5212 22.1748 29.2869 22.168 29.0404C22.1613 28.7938 22.251 28.5543 22.418 28.3728L24.227 26.5148C24.3134 26.4251 24.4168 26.3534 24.5311 26.3038C24.6454 26.2542 24.7684 26.2277 24.893 26.2258ZM17.893 27.9158C18.0174 27.9143 18.1409 27.9373 18.2564 27.9837C18.3719 28.03 18.4771 28.0987 18.566 28.1858C18.6554 28.2724 18.7269 28.3759 18.7763 28.4902C18.8256 28.6046 18.8519 28.7275 18.8536 28.8521C18.8552 28.9766 18.8323 29.1002 18.786 29.2158C18.7397 29.3315 18.6711 29.4368 18.584 29.5258L16.775 31.3848C16.5993 31.5644 16.3597 31.6671 16.1085 31.6702C15.8573 31.6734 15.6151 31.5769 15.435 31.4018C15.3455 31.3151 15.2742 31.2116 15.2249 31.0972C15.1756 30.9829 15.1494 30.8599 15.1479 30.7353C15.1463 30.6108 15.1693 30.4872 15.2157 30.3716C15.262 30.256 15.3308 30.1507 15.418 30.0618L17.227 28.2048C17.3133 28.1149 17.4167 28.043 17.531 27.9933C17.6453 27.9435 17.7683 27.9168 17.893 27.9148V27.9158ZM31.893 27.9158C32.0174 27.9143 32.1409 27.9373 32.2564 27.9837C32.3719 28.03 32.4771 28.0987 32.566 28.1858C32.6554 28.2724 32.7269 28.3759 32.7763 28.4902C32.8256 28.6046 32.8519 28.7275 32.8536 28.8521C32.8552 28.9766 32.8323 29.1002 32.786 29.2158C32.7397 29.3315 32.6711 29.4368 32.584 29.5258L30.775 31.3848C30.5993 31.5644 30.3597 31.6671 30.1085 31.6702C29.8573 31.6734 29.6151 31.5769 29.435 31.4018C29.3455 31.3151 29.2742 31.2116 29.2249 31.0972C29.1756 30.9829 29.1494 30.8599 29.1479 30.7353C29.1463 30.6108 29.1693 30.4872 29.2157 30.3716C29.262 30.256 29.3308 30.1507 29.418 30.0618L31.227 28.2048C31.3134 28.1149 31.4167 28.043 31.531 27.9933C31.6453 27.9435 31.7683 27.9168 31.893 27.9148V27.9158ZM20.355 28.1158H20.357C20.365 28.1138 20.367 28.1138 20.375 28.1158C20.436 28.1158 20.485 28.1658 20.486 28.2258C20.4861 28.2472 20.48 28.2682 20.4686 28.2863C20.4571 28.3044 20.4407 28.3188 20.4213 28.3278C20.4019 28.3369 20.3803 28.3402 20.3591 28.3374C20.3379 28.3345 20.318 28.3257 20.3016 28.3118C20.2853 28.298 20.2732 28.2798 20.2669 28.2593C20.2606 28.2389 20.2603 28.2171 20.266 28.1964C20.2717 28.1758 20.2833 28.1572 20.2992 28.143C20.3151 28.1287 20.3348 28.1192 20.356 28.1158H20.355ZM27.605 28.1158H27.607C27.615 28.1138 27.617 28.1138 27.625 28.1158C27.686 28.1158 27.735 28.1658 27.736 28.2258C27.7361 28.2472 27.73 28.2682 27.7186 28.2863C27.7071 28.3044 27.6907 28.3188 27.6713 28.3278C27.6519 28.3369 27.6303 28.3402 27.6091 28.3374C27.5879 28.3345 27.568 28.3257 27.5516 28.3118C27.5353 28.298 27.5232 28.2798 27.5169 28.2593C27.5106 28.2389 27.5103 28.2171 27.516 28.1964C27.5217 28.1758 27.5333 28.1572 27.5492 28.143C27.5651 28.1287 27.5848 28.1192 27.606 28.1158H27.605ZM20.377 28.6758C20.3917 28.6759 20.4062 28.679 20.4197 28.6847C20.4333 28.6905 20.4456 28.6988 20.4559 28.7093C20.4662 28.7198 20.4743 28.7322 20.4798 28.7459C20.4853 28.7595 20.4881 28.7741 20.488 28.7888C20.4878 28.8035 20.4848 28.8181 20.479 28.8316C20.4733 28.8451 20.4649 28.8574 20.4544 28.8677C20.444 28.878 20.4315 28.8862 20.4179 28.8917C20.4043 28.8972 20.3897 28.8999 20.375 28.8998C20.3453 28.8995 20.3169 28.8875 20.2961 28.8663C20.2752 28.8451 20.2637 28.8165 20.264 28.7868C20.2642 28.7571 20.2763 28.7287 20.2975 28.7079C20.3187 28.6871 20.3473 28.6755 20.377 28.6758ZM27.627 28.6758C27.6417 28.6759 27.6562 28.679 27.6697 28.6847C27.6833 28.6905 27.6956 28.6988 27.7059 28.7093C27.7162 28.7198 27.7243 28.7322 27.7298 28.7459C27.7353 28.7595 27.7381 28.7741 27.738 28.7888C27.7378 28.8035 27.7348 28.8181 27.729 28.8316C27.7233 28.8451 27.7149 28.8574 27.7044 28.8677C27.694 28.878 27.6815 28.8862 27.6679 28.8917C27.6543 28.8972 27.6397 28.8999 27.625 28.8998C27.5953 28.8995 27.5669 28.8875 27.5461 28.8663C27.5252 28.8451 27.5137 28.8165 27.514 28.7868C27.5142 28.7571 27.5263 28.7287 27.5475 28.7079C27.5687 28.6871 27.5973 28.6755 27.627 28.6758ZM24.893 30.2258C25.0174 30.2243 25.1409 30.2473 25.2564 30.2937C25.3719 30.34 25.4771 30.4087 25.566 30.4958C25.6554 30.5824 25.7269 30.6859 25.7763 30.8002C25.8256 30.9146 25.8519 31.0375 25.8536 31.1621C25.8552 31.2866 25.8323 31.4102 25.786 31.5258C25.7397 31.6415 25.6711 31.7468 25.584 31.8358L23.775 33.6958C23.5977 33.8673 23.3606 33.963 23.1139 33.9626C22.8673 33.9621 22.6305 33.8655 22.4539 33.6934C22.2773 33.5212 22.1748 33.2869 22.168 33.0404C22.1613 32.7938 22.251 32.5543 22.418 32.3728L24.227 30.5158C24.3133 30.4259 24.4167 30.354 24.531 30.3043C24.6453 30.2545 24.7683 30.2278 24.893 30.2258ZM20.367 30.9228C20.3823 30.922 20.3977 30.9243 20.4122 30.9296C20.4267 30.9349 20.4399 30.9431 20.4511 30.9537C20.4623 30.9642 20.4713 30.9769 20.4774 30.9911C20.4836 31.0052 20.4868 31.0204 20.487 31.0358C20.487 31.0656 20.4751 31.0943 20.454 31.1154C20.4329 31.1364 20.4043 31.1483 20.3745 31.1483C20.3446 31.1483 20.316 31.1364 20.2949 31.1154C20.2738 31.0943 20.262 31.0656 20.262 31.0358C20.262 30.9778 20.308 30.9268 20.367 30.9238V30.9228ZM27.617 30.9228C27.6323 30.922 27.6477 30.9243 27.6622 30.9296C27.6767 30.9349 27.6899 30.9431 27.7011 30.9537C27.7123 30.9642 27.7213 30.9769 27.7274 30.9911C27.7336 31.0052 27.7368 31.0204 27.737 31.0358C27.737 31.0656 27.7251 31.0943 27.704 31.1154C27.6829 31.1364 27.6543 31.1483 27.6245 31.1483C27.5946 31.1483 27.566 31.1364 27.5449 31.1154C27.5238 31.0943 27.512 31.0656 27.512 31.0358C27.512 30.9778 27.558 30.9268 27.617 30.9238V30.9228ZM17.893 31.7088C18.0174 31.7073 18.1409 31.7303 18.2564 31.7767C18.3719 31.823 18.4771 31.8917 18.566 31.9788C18.6554 32.0654 18.7269 32.1689 18.7763 32.2832C18.8256 32.3976 18.8519 32.5205 18.8536 32.6451C18.8552 32.7696 18.8323 32.8932 18.786 33.0088C18.7397 33.1245 18.6711 33.2298 18.584 33.3188L16.775 35.1778C16.5993 35.3574 16.3597 35.4601 16.1085 35.4632C15.8573 35.4664 15.6151 35.3699 15.435 35.1948C15.3455 35.1081 15.2742 35.0046 15.2249 34.8902C15.1756 34.7759 15.1494 34.6529 15.1479 34.5283C15.1463 34.4038 15.1693 34.2802 15.2157 34.1646C15.262 34.049 15.3308 33.9437 15.418 33.8548L17.227 31.9978C17.3133 31.9079 17.4167 31.836 17.531 31.7863C17.6453 31.7365 17.7683 31.7098 17.893 31.7078V31.7088ZM31.893 31.7088C32.0174 31.7073 32.1409 31.7303 32.2564 31.7767C32.3719 31.823 32.4771 31.8917 32.566 31.9788C32.6554 32.0654 32.7269 32.1689 32.7763 32.2832C32.8256 32.3976 32.8519 32.5205 32.8536 32.6451C32.8552 32.7696 32.8323 32.8932 32.786 33.0088C32.7397 33.1245 32.6711 33.2298 32.584 33.3188L30.775 35.1778C30.5993 35.3574 30.3597 35.4601 30.1085 35.4632C29.8573 35.4664 29.6151 35.3699 29.435 35.1948C29.3455 35.1081 29.2742 35.0046 29.2249 34.8902C29.1756 34.7759 29.1494 34.6529 29.1479 34.5283C29.1463 34.4038 29.1693 34.2802 29.2157 34.1646C29.262 34.049 29.3308 33.9437 29.418 33.8548L31.227 31.9978C31.3134 31.9079 31.4167 31.836 31.531 31.7863C31.6453 31.7365 31.7683 31.7098 31.893 31.7078V31.7088ZM20.355 32.0488H20.375C20.3971 32.049 20.4187 32.0558 20.437 32.0682C20.4553 32.0807 20.4695 32.0983 20.4778 32.1189C20.4861 32.1394 20.4881 32.1619 20.4836 32.1836C20.4791 32.2053 20.4682 32.2252 20.4524 32.2407C20.4366 32.2562 20.4166 32.2667 20.3948 32.2708C20.3731 32.275 20.3506 32.2725 20.3302 32.2639C20.3098 32.2552 20.2924 32.2407 20.2803 32.2222C20.2681 32.2037 20.2618 32.182 20.262 32.1598C20.262 32.1048 20.301 32.0558 20.355 32.0488ZM27.605 32.0488H27.625C27.6471 32.049 27.6687 32.0558 27.687 32.0682C27.7053 32.0807 27.7195 32.0983 27.7278 32.1189C27.7361 32.1394 27.7381 32.1619 27.7336 32.1836C27.7291 32.2053 27.7182 32.2252 27.7024 32.2407C27.6866 32.2562 27.6666 32.2667 27.6448 32.2708C27.6231 32.275 27.6006 32.2725 27.5802 32.2639C27.5598 32.2552 27.5424 32.2407 27.5303 32.2222C27.5181 32.2037 27.5118 32.182 27.512 32.1598C27.512 32.1048 27.551 32.0558 27.605 32.0488ZM20.355 32.6108H20.375C20.436 32.6108 20.485 32.6608 20.486 32.7218C20.4859 32.7432 20.4797 32.7641 20.4681 32.782C20.4565 32.8 20.4401 32.8142 20.4206 32.8232C20.4012 32.8321 20.3797 32.8352 20.3585 32.8323C20.3374 32.8293 20.3175 32.8204 20.3012 32.8065C20.285 32.7927 20.273 32.7744 20.2668 32.754C20.2606 32.7336 20.2603 32.7118 20.2661 32.6912C20.2718 32.6706 20.2834 32.6521 20.2993 32.6379C20.3152 32.6236 20.3349 32.6142 20.356 32.6108H20.355ZM27.605 32.6108H27.625C27.686 32.6108 27.735 32.6608 27.736 32.7218C27.7359 32.7432 27.7297 32.7641 27.7181 32.782C27.7065 32.8 27.6901 32.8142 27.6706 32.8232C27.6512 32.8321 27.6297 32.8352 27.6085 32.8323C27.5874 32.8293 27.5675 32.8204 27.5512 32.8065C27.535 32.7927 27.523 32.7744 27.5168 32.754C27.5106 32.7336 27.5103 32.7118 27.5161 32.6912C27.5218 32.6706 27.5334 32.6521 27.5493 32.6379C27.5652 32.6236 27.5849 32.6142 27.606 32.6108H27.605ZM20.377 33.1708C20.439 33.1728 20.489 33.2248 20.488 33.2868C20.488 33.3013 20.4851 33.3157 20.4795 33.3291C20.4739 33.3425 20.4657 33.3547 20.4554 33.3649C20.4451 33.3752 20.4328 33.3833 20.4194 33.3887C20.4059 33.3942 20.3915 33.3969 20.377 33.3968C20.3623 33.3972 20.3476 33.3947 20.3339 33.3893C20.3202 33.384 20.3078 33.3759 20.2972 33.3657C20.2867 33.3554 20.2783 33.3431 20.2726 33.3296C20.2669 33.3161 20.264 33.3015 20.264 33.2868C20.264 33.2238 20.314 33.1708 20.377 33.1718V33.1708ZM27.627 33.1708C27.689 33.1728 27.739 33.2248 27.738 33.2868C27.738 33.3013 27.7351 33.3157 27.7295 33.3291C27.7239 33.3425 27.7157 33.3547 27.7054 33.3649C27.6951 33.3752 27.6828 33.3833 27.6694 33.3887C27.6559 33.3942 27.6415 33.3969 27.627 33.3968C27.6123 33.3972 27.5976 33.3947 27.5839 33.3893C27.5702 33.384 27.5578 33.3759 27.5472 33.3657C27.5367 33.3554 27.5283 33.3431 27.5226 33.3296C27.5169 33.3161 27.514 33.3015 27.514 33.2868C27.514 33.2238 27.564 33.1708 27.627 33.1718V33.1708ZM20.367 33.7338H20.375C20.4043 33.7349 20.4321 33.7474 20.4522 33.7687C20.4724 33.79 20.4835 33.8184 20.4829 33.8477C20.4824 33.8771 20.4704 33.9051 20.4494 33.9256C20.4285 33.9462 20.4003 33.9577 20.371 33.9577C20.3416 33.9577 20.3134 33.9462 20.2925 33.9256C20.2715 33.9051 20.2595 33.8771 20.259 33.8477C20.2584 33.8184 20.2695 33.79 20.2897 33.7687C20.3099 33.7474 20.3376 33.7349 20.367 33.7338ZM27.617 33.7338H27.625C27.6543 33.7349 27.682 33.7474 27.7022 33.7687C27.7224 33.79 27.7335 33.8184 27.7329 33.8477C27.7324 33.8771 27.7204 33.9051 27.6994 33.9256C27.6785 33.9462 27.6503 33.9577 27.621 33.9577C27.5916 33.9577 27.5634 33.9462 27.5425 33.9256C27.5215 33.9051 27.5095 33.8771 27.509 33.8477C27.5084 33.8184 27.5195 33.79 27.5397 33.7687C27.5599 33.7474 27.5876 33.7349 27.617 33.7338ZM24.893 34.2258C25.0174 34.2243 25.1409 34.2474 25.2564 34.2937C25.3719 34.34 25.4771 34.4087 25.566 34.4958C25.6554 34.5824 25.7269 34.6859 25.7763 34.8002C25.8256 34.9146 25.8519 35.0375 25.8536 35.1621C25.8552 35.2866 25.8323 35.4102 25.786 35.5258C25.7397 35.6415 25.6711 35.7468 25.584 35.8358L23.775 37.6958C23.5977 37.8673 23.3606 37.963 23.1139 37.9626C22.8673 37.9621 22.6305 37.8655 22.4539 37.6934C22.2773 37.5212 22.1748 37.2869 22.168 37.0404C22.1613 36.7938 22.251 36.5543 22.418 36.3728L24.227 34.5158C24.3133 34.4259 24.4167 34.354 24.531 34.3043C24.6453 34.2545 24.7683 34.2278 24.893 34.2258ZM31.893 35.4998C32.0174 35.4983 32.1409 35.5213 32.2564 35.5677C32.3719 35.614 32.4771 35.6827 32.566 35.7698C32.6554 35.8564 32.7269 35.9599 32.7763 36.0742C32.8256 36.1886 32.8519 36.3115 32.8536 36.4361C32.8552 36.5606 32.8323 36.6842 32.786 36.7998C32.7397 36.9155 32.6711 37.0208 32.584 37.1098L30.775 38.9698C30.5995 39.1495 30.3599 39.2524 30.1087 39.2557C29.8575 39.2591 29.6152 39.1628 29.435 38.9878C29.3455 38.9011 29.2742 38.7976 29.2249 38.6832C29.1756 38.5689 29.1494 38.4459 29.1479 38.3213C29.1463 38.1968 29.1693 38.0732 29.2157 37.9576C29.262 37.842 29.3308 37.7367 29.418 37.6478L31.227 35.7908C31.3134 35.7009 31.4167 35.629 31.531 35.5793C31.6453 35.5295 31.7683 35.5028 31.893 35.5008V35.4998ZM17.893 35.5018C18.0174 35.5003 18.1409 35.5233 18.2564 35.5697C18.3719 35.616 18.4771 35.6847 18.566 35.7718C18.6554 35.8584 18.7269 35.9619 18.7763 36.0762C18.8256 36.1906 18.8519 36.3135 18.8536 36.4381C18.8552 36.5626 18.8323 36.6862 18.786 36.8018C18.7397 36.9175 18.6711 37.0228 18.584 37.1118L16.775 38.9698C16.5995 39.1495 16.3599 39.2524 16.1087 39.2557C15.8575 39.2591 15.6152 39.1628 15.435 38.9878C15.3455 38.9011 15.2742 38.7976 15.2249 38.6832C15.1756 38.5689 15.1494 38.4459 15.1479 38.3213C15.1463 38.1968 15.1693 38.0732 15.2157 37.9576C15.262 37.842 15.3308 37.7367 15.418 37.6478L17.227 35.7908C17.3133 35.7009 17.4167 35.629 17.531 35.5793C17.6453 35.5295 17.7683 35.5028 17.893 35.5008V35.5018ZM20.355 37.1088H20.375C20.436 37.1098 20.485 37.1588 20.486 37.2198C20.4861 37.2412 20.48 37.2622 20.4686 37.2803C20.4571 37.2984 20.4407 37.3128 20.4213 37.3218C20.4019 37.3309 20.3803 37.3342 20.3591 37.3314C20.3379 37.3285 20.318 37.3197 20.3016 37.3058C20.2853 37.292 20.2732 37.2738 20.2669 37.2533C20.2606 37.2329 20.2603 37.2111 20.266 37.1904C20.2717 37.1698 20.2833 37.1512 20.2992 37.137C20.3151 37.1227 20.3348 37.1132 20.356 37.1098L20.355 37.1088ZM27.605 37.1088H27.625C27.686 37.1098 27.735 37.1588 27.736 37.2198C27.7361 37.2412 27.73 37.2622 27.7186 37.2803C27.7071 37.2984 27.6907 37.3128 27.6713 37.3218C27.6519 37.3309 27.6303 37.3342 27.6091 37.3314C27.5879 37.3285 27.568 37.3197 27.5516 37.3058C27.5353 37.292 27.5232 37.2738 27.5169 37.2533C27.5106 37.2329 27.5103 37.2111 27.516 37.1904C27.5217 37.1698 27.5333 37.1512 27.5492 37.137C27.5651 37.1227 27.5848 37.1132 27.606 37.1098L27.605 37.1088ZM24.893 38.2258C25.0174 38.2243 25.1409 38.2473 25.2564 38.2937C25.3719 38.34 25.4771 38.4087 25.566 38.4958C25.6554 38.5824 25.7269 38.6859 25.7763 38.8002C25.8256 38.9146 25.8519 39.0375 25.8536 39.1621C25.8552 39.2866 25.8323 39.4102 25.786 39.5258C25.7397 39.6415 25.6711 39.7468 25.584 39.8358L23.775 41.6958C23.5977 41.8673 23.3606 41.963 23.1139 41.9626C22.8673 41.9621 22.6305 41.8655 22.4539 41.6934C22.2773 41.5212 22.1748 41.2869 22.168 41.0404C22.1613 40.7938 22.251 40.5543 22.418 40.3728L24.227 38.5158C24.3133 38.4259 24.4167 38.354 24.531 38.3043C24.6453 38.2545 24.7683 38.2278 24.893 38.2258ZM17.893 39.2948C18.0174 39.2933 18.1409 39.3163 18.2564 39.3627C18.3719 39.409 18.4771 39.4777 18.566 39.5648C18.6554 39.6514 18.7269 39.7549 18.7763 39.8692C18.8256 39.9836 18.8519 40.1065 18.8536 40.2311C18.8552 40.3556 18.8323 40.4792 18.786 40.5948C18.7397 40.7105 18.6711 40.8158 18.584 40.9048L16.775 42.7628C16.5995 42.9425 16.3599 43.0454 16.1087 43.0487C15.8575 43.0521 15.6152 42.9558 15.435 42.7808C15.3455 42.6941 15.2742 42.5906 15.2249 42.4762C15.1756 42.3619 15.1494 42.2389 15.1479 42.1143C15.1463 41.9898 15.1693 41.8662 15.2157 41.7506C15.262 41.635 15.3308 41.5297 15.418 41.4408L17.227 39.5838C17.3133 39.4939 17.4167 39.422 17.531 39.3723C17.6453 39.3225 17.7683 39.2958 17.893 39.2938V39.2948ZM31.893 39.2948C32.0174 39.2933 32.1409 39.3163 32.2564 39.3627C32.3719 39.409 32.4771 39.4777 32.566 39.5648C32.6554 39.6514 32.7269 39.7549 32.7763 39.8692C32.8256 39.9836 32.8519 40.1065 32.8536 40.2311C32.8552 40.3556 32.8323 40.4792 32.786 40.5948C32.7397 40.7105 32.6711 40.8158 32.584 40.9048L30.775 42.7628C30.5995 42.9425 30.3599 43.0454 30.1087 43.0487C29.8575 43.0521 29.6152 42.9558 29.435 42.7808C29.3455 42.6941 29.2742 42.5906 29.2249 42.4762C29.1756 42.3619 29.1494 42.2389 29.1479 42.1143C29.1463 41.9898 29.1693 41.8662 29.2157 41.7506C29.262 41.635 29.3308 41.5297 29.418 41.4408L31.227 39.5838C31.3134 39.4939 31.4167 39.422 31.531 39.3723C31.6453 39.3225 31.7683 39.2958 31.893 39.2938V39.2948ZM20.355 41.0448H20.375C20.3971 41.045 20.4187 41.0518 20.437 41.0642C20.4553 41.0767 20.4695 41.0943 20.4778 41.1149C20.4861 41.1354 20.4881 41.1579 20.4836 41.1796C20.4791 41.2013 20.4682 41.2212 20.4524 41.2367C20.4366 41.2522 20.4166 41.2627 20.3948 41.2668C20.3731 41.271 20.3506 41.2685 20.3302 41.2599C20.3098 41.2512 20.2924 41.2367 20.2803 41.2182C20.2681 41.1997 20.2618 41.178 20.262 41.1558C20.2614 41.1292 20.2705 41.1033 20.2876 41.0828C20.3047 41.0624 20.3286 41.0489 20.355 41.0448ZM27.605 41.0448H27.625C27.6471 41.045 27.6687 41.0518 27.687 41.0642C27.7053 41.0767 27.7195 41.0943 27.7278 41.1149C27.7361 41.1354 27.7381 41.1579 27.7336 41.1796C27.7291 41.2013 27.7182 41.2212 27.7024 41.2367C27.6866 41.2522 27.6666 41.2627 27.6448 41.2668C27.6231 41.271 27.6006 41.2685 27.5802 41.2599C27.5598 41.2512 27.5424 41.2367 27.5303 41.2182C27.5181 41.1997 27.5118 41.178 27.512 41.1558C27.5114 41.1292 27.5205 41.1033 27.5376 41.0828C27.5547 41.0624 27.5786 41.0489 27.605 41.0448ZM20.355 41.6068H20.375C20.436 41.6078 20.485 41.6568 20.486 41.7188C20.486 41.7798 20.436 41.8288 20.375 41.8288C20.3454 41.8291 20.317 41.8177 20.2958 41.7971C20.2747 41.7765 20.2625 41.7483 20.262 41.7188C20.2611 41.692 20.2702 41.6658 20.2873 41.6452C20.3044 41.6246 20.3285 41.6109 20.355 41.6068ZM27.605 41.6068H27.625C27.686 41.6078 27.735 41.6568 27.736 41.7188C27.736 41.7798 27.686 41.8288 27.625 41.8288C27.5954 41.8291 27.567 41.8177 27.5458 41.7971C27.5247 41.7765 27.5125 41.7483 27.512 41.7188C27.5111 41.692 27.5202 41.6658 27.5373 41.6452C27.5544 41.6246 27.5785 41.6109 27.605 41.6068ZM20.377 42.1668C20.4068 42.1671 20.4353 42.1792 20.4562 42.2005C20.4771 42.2217 20.4887 42.2505 20.4885 42.2803C20.4882 42.3101 20.4761 42.3386 20.4548 42.3596C20.4335 42.3805 20.4048 42.3921 20.375 42.3918C20.3602 42.3917 20.3457 42.3886 20.3322 42.3829C20.3186 42.3771 20.3064 42.3688 20.2961 42.3583C20.2857 42.3478 20.2776 42.3354 20.2721 42.3217C20.2666 42.3081 20.2638 42.2935 20.264 42.2788C20.2641 42.2641 20.2671 42.2496 20.2729 42.236C20.2786 42.2225 20.287 42.2102 20.2975 42.1999C20.308 42.1896 20.3204 42.1815 20.334 42.1759C20.3477 42.1704 20.3622 42.1677 20.377 42.1678V42.1668ZM27.627 42.1668C27.6568 42.1671 27.6853 42.1792 27.7062 42.2005C27.7271 42.2217 27.7387 42.2505 27.7385 42.2803C27.7382 42.3101 27.7261 42.3386 27.7048 42.3596C27.6835 42.3805 27.6548 42.3921 27.625 42.3918C27.5953 42.3915 27.5669 42.3795 27.5461 42.3583C27.5252 42.3371 27.5137 42.3085 27.514 42.2788C27.5142 42.2491 27.5263 42.2207 27.5475 42.1999C27.5687 42.1791 27.5973 42.1675 27.627 42.1678V42.1668Z" fill="#333333"/>
</svg>
