<svg width="48" height="48" viewBox="0 0 48 48" fill="none" xmlns="http://www.w3.org/2000/svg">
<path d="M14.346 4.09402C13.476 4.09402 12.777 4.79302 12.777 5.66202V42.523C12.777 43.393 13.477 44.093 14.346 44.093H34.05C34.92 44.093 35.618 43.393 35.618 42.523V5.66302C35.618 4.79302 34.919 4.09302 34.05 4.09302H14.346V4.09402ZM14.776 4.59402H33.616C34.446 4.59402 35.117 5.27702 35.117 6.12502V42.065C35.117 42.912 34.447 43.594 33.615 43.594H14.775C13.945 43.594 13.275 42.912 13.275 42.064V6.12502C13.275 5.27702 13.945 4.59402 14.775 4.59402H14.776ZM19.088 9.21402V9.21702C18.9634 9.21891 18.8404 9.24541 18.7261 9.29501C18.6118 9.34461 18.5085 9.41632 18.422 9.50602L16.613 11.363C16.5261 11.4523 16.4578 11.5578 16.4118 11.6736C16.3659 11.7894 16.3433 11.9131 16.3454 12.0376C16.3474 12.1621 16.374 12.285 16.4237 12.3992C16.4734 12.5134 16.5452 12.6167 16.635 12.703C16.724 12.7902 16.8294 12.859 16.9451 12.9052C17.0608 12.9515 17.1845 12.9743 17.3091 12.9725C17.4338 12.9706 17.5568 12.9441 17.671 12.8944C17.7853 12.8447 17.8886 12.7729 17.975 12.683L19.783 10.824C19.8699 10.7348 19.9383 10.6293 19.9844 10.5136C20.0304 10.3979 20.053 10.2742 20.0511 10.1497C20.0491 10.0251 20.0226 9.90221 19.973 9.78797C19.9234 9.67374 19.8517 9.57044 19.762 9.48402C19.673 9.3968 19.5676 9.32804 19.4519 9.2817C19.3363 9.23537 19.2126 9.21236 19.088 9.21402ZM23.088 9.21402V9.21702C22.9634 9.21891 22.8404 9.24541 22.7261 9.29501C22.6118 9.34461 22.5085 9.41632 22.422 9.50602L20.613 11.363C20.5261 11.4523 20.4578 11.5578 20.4118 11.6736C20.3659 11.7894 20.3433 11.9131 20.3454 12.0376C20.3474 12.1621 20.374 12.285 20.4237 12.3992C20.4734 12.5134 20.5452 12.6167 20.635 12.703C20.724 12.7902 20.8294 12.859 20.9451 12.9052C21.0608 12.9515 21.1845 12.9743 21.3091 12.9725C21.4338 12.9706 21.5568 12.9441 21.671 12.8944C21.7853 12.8447 21.8886 12.7729 21.975 12.683L23.783 10.824C23.8699 10.7348 23.9383 10.6293 23.9844 10.5136C24.0304 10.3979 24.053 10.2742 24.0511 10.1497C24.0491 10.0251 24.0226 9.90221 23.973 9.78797C23.9234 9.67374 23.8517 9.57044 23.762 9.48402C23.673 9.3968 23.5676 9.32804 23.4519 9.2817C23.3363 9.23537 23.2126 9.21236 23.088 9.21402ZM27.088 9.21402V9.21702C26.9634 9.21891 26.8404 9.24541 26.7261 9.29501C26.6118 9.34461 26.5085 9.41632 26.422 9.50602L24.613 11.363C24.5261 11.4523 24.4578 11.5578 24.4118 11.6736C24.3659 11.7894 24.3433 11.9131 24.3454 12.0376C24.3474 12.1621 24.374 12.285 24.4237 12.3992C24.4734 12.5134 24.5452 12.6167 24.635 12.703C24.724 12.7902 24.8294 12.859 24.9451 12.9052C25.0608 12.9515 25.1845 12.9743 25.3091 12.9725C25.4338 12.9706 25.5568 12.9441 25.671 12.8944C25.7853 12.8447 25.8886 12.7729 25.975 12.683L27.783 10.824C27.8699 10.7348 27.9383 10.6293 27.9844 10.5136C28.0304 10.3979 28.053 10.2742 28.0511 10.1497C28.0491 10.0251 28.0226 9.90221 27.973 9.78797C27.9234 9.67374 27.8517 9.57044 27.762 9.48402C27.673 9.3968 27.5676 9.32804 27.4519 9.2817C27.3363 9.23537 27.2126 9.21236 27.088 9.21402ZM31.088 9.21402V9.21702C30.9634 9.21891 30.8404 9.24541 30.7261 9.29501C30.6118 9.34461 30.5085 9.41632 30.422 9.50602L28.613 11.363C28.5261 11.4523 28.4578 11.5578 28.4118 11.6736C28.3659 11.7894 28.3433 11.9131 28.3454 12.0376C28.3474 12.1621 28.374 12.285 28.4237 12.3992C28.4734 12.5134 28.5452 12.6167 28.635 12.703C28.724 12.7902 28.8294 12.859 28.9451 12.9052C29.0608 12.9515 29.1845 12.9743 29.3091 12.9725C29.4338 12.9706 29.5568 12.9441 29.671 12.8944C29.7853 12.8447 29.8886 12.7729 29.975 12.683L31.783 10.824C31.8699 10.7348 31.9383 10.6293 31.9844 10.5136C32.0304 10.3979 32.053 10.2742 32.0511 10.1497C32.0491 10.0251 32.0226 9.90221 31.973 9.78797C31.9234 9.67374 31.8517 9.57044 31.762 9.48402C31.673 9.3968 31.5676 9.32804 31.4519 9.2817C31.3363 9.23537 31.2126 9.21236 31.088 9.21402ZM19.152 9.70002C19.2435 9.70833 19.3299 9.74624 19.398 9.80802C19.805 10.169 19.324 10.593 19.148 10.776L18.283 11.681C17.676 12.312 17.412 12.739 16.988 12.331C16.628 11.958 16.945 11.735 17.633 11.036L18.498 10.134C18.703 9.93302 18.916 9.68902 19.152 9.70002ZM23.152 9.70002C23.2435 9.70833 23.3299 9.74624 23.398 9.80802C23.805 10.169 23.324 10.593 23.148 10.776L22.283 11.681C21.676 12.312 21.412 12.739 20.988 12.331C20.628 11.958 20.945 11.735 21.633 11.036L22.498 10.134C22.703 9.93302 22.916 9.68902 23.152 9.70002ZM27.152 9.70002C27.2435 9.70833 27.3299 9.74624 27.398 9.80802C27.805 10.169 27.324 10.593 27.148 10.776L26.283 11.681C25.676 12.312 25.412 12.739 24.988 12.331C24.628 11.958 24.945 11.735 25.633 11.036L26.498 10.134C26.703 9.93302 26.916 9.68902 27.152 9.70002ZM31.152 9.70002C31.2435 9.70833 31.3299 9.74624 31.398 9.80802C31.805 10.169 31.324 10.593 31.148 10.776L30.283 11.681C29.676 12.312 29.412 12.739 28.988 12.331C28.628 11.958 28.945 11.735 29.633 11.036L30.498 10.134C30.703 9.93302 30.916 9.68902 31.152 9.70002ZM13.795 14.98C13.7802 14.9801 13.7656 14.9832 13.752 14.989C13.7384 14.9948 13.726 15.0033 13.7157 15.0139C13.7054 15.0245 13.6973 15.037 13.6918 15.0508C13.6864 15.0645 13.6837 15.0792 13.684 15.094C13.684 15.155 13.734 15.206 13.794 15.207C13.857 15.207 13.907 15.157 13.908 15.094C13.9082 15.0791 13.9055 15.0642 13.8999 15.0503C13.8944 15.0364 13.8861 15.0238 13.8755 15.0132C13.865 15.0025 13.8525 14.9941 13.8386 14.9884C13.8248 14.9827 13.8099 14.9799 13.795 14.98ZM14.357 14.98C14.3269 14.9803 14.2982 14.9924 14.277 15.0138C14.2558 15.0351 14.244 15.064 14.244 15.094C14.244 15.155 14.296 15.207 14.357 15.207C14.419 15.207 14.468 15.155 14.469 15.094V15.074C14.4651 15.0473 14.4515 15.023 14.4309 15.0057C14.4102 14.9884 14.3839 14.9792 14.357 14.98ZM14.92 14.98C14.905 14.9799 14.8902 14.9827 14.8763 14.9884C14.8625 14.9941 14.8499 15.0025 14.8394 15.0132C14.8289 15.0238 14.8206 15.0364 14.815 15.0503C14.8094 15.0642 14.8067 15.0791 14.807 15.094C14.807 15.156 14.857 15.208 14.92 15.207C14.981 15.207 15.03 15.155 15.031 15.094V15.074C15.0271 15.0475 15.0137 15.0234 14.9932 15.0061C14.9728 14.9887 14.9468 14.9795 14.92 14.98ZM15.482 14.98C15.467 14.9799 15.4522 14.9827 15.4383 14.9884C15.4245 14.9941 15.4119 15.0025 15.4014 15.0132C15.3909 15.0238 15.3826 15.0364 15.377 15.0503C15.3714 15.0642 15.3687 15.0791 15.369 15.094C15.369 15.156 15.42 15.208 15.482 15.207C15.544 15.207 15.593 15.155 15.594 15.094V15.086C15.5924 15.0574 15.58 15.0304 15.5591 15.0107C15.5383 14.991 15.5107 14.98 15.482 14.98ZM16.045 14.98C16.03 14.9799 16.0152 14.9827 16.0013 14.9884C15.9875 14.9941 15.9749 15.0025 15.9644 15.0132C15.9539 15.0238 15.9456 15.0364 15.94 15.0503C15.9344 15.0642 15.9317 15.0791 15.932 15.094C15.932 15.156 15.982 15.208 16.045 15.207C16.106 15.207 16.155 15.155 16.156 15.094V15.086C16.1545 15.0575 16.1421 15.0307 16.1215 15.011C16.1009 14.9913 16.0735 14.9802 16.045 14.98ZM16.607 14.98C16.592 14.9799 16.5772 14.9827 16.5633 14.9884C16.5495 14.9941 16.5369 15.0025 16.5264 15.0132C16.5159 15.0238 16.5076 15.0364 16.502 15.0503C16.4964 15.0642 16.4937 15.0791 16.494 15.094C16.494 15.156 16.545 15.208 16.607 15.207C16.669 15.207 16.718 15.155 16.719 15.094V15.086C16.7174 15.0574 16.705 15.0304 16.6841 15.0107C16.6633 14.991 16.6357 14.98 16.607 14.98ZM17.168 14.98C17.1532 14.9801 17.1386 14.9832 17.125 14.989C17.1114 14.9948 17.099 15.0033 17.0887 15.0139C17.0784 15.0245 17.0703 15.037 17.0648 15.0508C17.0594 15.0645 17.0567 15.0792 17.057 15.094C17.057 15.155 17.107 15.207 17.168 15.207C17.1979 15.2068 17.2265 15.1948 17.2476 15.1736C17.2687 15.1525 17.2807 15.1239 17.281 15.094V15.086C17.2794 15.0572 17.2668 15.0301 17.2458 15.0103C17.2247 14.9906 17.1968 14.9797 17.168 14.98ZM17.731 14.98C17.7161 14.98 17.7014 14.983 17.6876 14.9887C17.6739 14.9945 17.6615 15.0029 17.6511 15.0135C17.6406 15.0241 17.6324 15.0367 17.6269 15.0505C17.6214 15.0644 17.6187 15.0791 17.619 15.094C17.619 15.155 17.669 15.207 17.73 15.207C17.76 15.207 17.7889 15.1951 17.8102 15.174C17.8316 15.1528 17.8437 15.1241 17.844 15.094V15.086C17.8424 15.057 17.8297 15.0298 17.8084 15.01C17.7871 14.9902 17.759 14.9795 17.73 14.98H17.731ZM18.293 14.98C18.2782 14.9801 18.2636 14.9832 18.25 14.989C18.2364 14.9948 18.224 15.0033 18.2137 15.0139C18.2034 15.0245 18.1953 15.037 18.1898 15.0508C18.1844 15.0645 18.1817 15.0792 18.182 15.094C18.182 15.155 18.232 15.207 18.293 15.207C18.3229 15.2068 18.3515 15.1948 18.3726 15.1736C18.3937 15.1525 18.4057 15.1239 18.406 15.094V15.086C18.4044 15.0572 18.3918 15.0301 18.3708 15.0103C18.3497 14.9906 18.3218 14.9797 18.293 14.98ZM18.856 14.98C18.8411 14.98 18.8264 14.983 18.8126 14.9887C18.7989 14.9945 18.7865 15.0029 18.7761 15.0135C18.7656 15.0241 18.7574 15.0367 18.7519 15.0505C18.7464 15.0644 18.7437 15.0791 18.744 15.094C18.744 15.155 18.794 15.207 18.855 15.207C18.917 15.207 18.966 15.155 18.967 15.094V15.074C18.9631 15.0475 18.9497 15.0234 18.9292 15.0061C18.9088 14.9887 18.8828 14.9795 18.856 14.98ZM19.418 14.98C19.403 14.9799 19.3882 14.9827 19.3743 14.9884C19.3605 14.9941 19.3479 15.0025 19.3374 15.0132C19.3269 15.0238 19.3186 15.0364 19.313 15.0503C19.3074 15.0642 19.3047 15.0791 19.305 15.094C19.305 15.156 19.356 15.208 19.418 15.207C19.479 15.207 19.528 15.155 19.529 15.094V15.086C19.5274 15.0575 19.5151 15.0307 19.4945 15.011C19.4739 14.9913 19.4465 14.9802 19.418 14.98ZM19.981 14.98C19.9659 14.9797 19.951 14.9825 19.937 14.9881C19.9231 14.9938 19.9104 15.0022 19.8998 15.0128C19.8891 15.0234 19.8807 15.0361 19.8751 15.0501C19.8695 15.064 19.8667 15.079 19.867 15.094C19.867 15.156 19.919 15.208 19.98 15.207C20.042 15.207 20.091 15.155 20.092 15.094V15.086C20.0904 15.0575 20.0781 15.0307 20.0575 15.011C20.0369 14.9913 20.0095 14.9802 19.981 14.98ZM20.543 14.98C20.528 14.9799 20.5132 14.9827 20.4993 14.9884C20.4855 14.9941 20.4729 15.0025 20.4624 15.0132C20.4519 15.0238 20.4436 15.0364 20.438 15.0503C20.4324 15.0642 20.4297 15.0791 20.43 15.094C20.43 15.156 20.481 15.208 20.543 15.207C20.604 15.207 20.653 15.155 20.654 15.094V15.086C20.6524 15.0575 20.6401 15.0307 20.6195 15.011C20.5989 14.9913 20.5715 14.9802 20.543 14.98ZM21.106 14.98C21.0909 14.9797 21.076 14.9825 21.062 14.9881C21.0481 14.9938 21.0354 15.0022 21.0248 15.0128C21.0141 15.0234 21.0057 15.0361 21.0001 15.0501C20.9945 15.064 20.9917 15.079 20.992 15.094C20.992 15.156 21.044 15.208 21.105 15.207C21.167 15.207 21.216 15.155 21.217 15.094V15.086C21.2154 15.0575 21.2031 15.0307 21.1825 15.011C21.1619 14.9913 21.1345 14.9802 21.106 14.98ZM21.666 14.98C21.6512 14.9801 21.6366 14.9832 21.623 14.989C21.6094 14.9948 21.597 15.0033 21.5867 15.0139C21.5764 15.0245 21.5683 15.037 21.5628 15.0508C21.5574 15.0645 21.5547 15.0792 21.555 15.094C21.555 15.155 21.605 15.207 21.666 15.207C21.6959 15.2068 21.7245 15.1948 21.7456 15.1736C21.7667 15.1525 21.7787 15.1239 21.779 15.094V15.086C21.7774 15.0572 21.7648 15.0301 21.7438 15.0103C21.7227 14.9906 21.6948 14.9797 21.666 14.98ZM22.229 14.98C22.2141 14.98 22.1994 14.983 22.1856 14.9887C22.1719 14.9945 22.1595 15.0029 22.1491 15.0135C22.1386 15.0241 22.1304 15.0367 22.1249 15.0505C22.1194 15.0644 22.1167 15.0791 22.117 15.094C22.117 15.155 22.167 15.207 22.228 15.207C22.258 15.207 22.2869 15.1951 22.3082 15.174C22.3296 15.1528 22.3417 15.1241 22.342 15.094V15.086C22.3404 15.0572 22.3278 15.0301 22.3068 15.0103C22.2857 14.9906 22.2578 14.9797 22.229 14.98ZM22.791 14.98C22.7762 14.9801 22.7616 14.9832 22.748 14.989C22.7344 14.9948 22.722 15.0033 22.7117 15.0139C22.7014 15.0245 22.6933 15.037 22.6878 15.0508C22.6824 15.0645 22.6797 15.0792 22.68 15.094C22.68 15.155 22.73 15.206 22.791 15.207C22.853 15.207 22.904 15.157 22.904 15.094C22.9042 15.0791 22.9015 15.0642 22.8959 15.0503C22.8904 15.0364 22.8821 15.0238 22.8715 15.0132C22.861 15.0025 22.8485 14.9941 22.8346 14.9884C22.8208 14.9827 22.8059 14.9799 22.791 14.98ZM23.354 14.98C23.3391 14.98 23.3244 14.983 23.3106 14.9887C23.2969 14.9945 23.2845 15.0029 23.2741 15.0135C23.2636 15.0241 23.2554 15.0367 23.2499 15.0505C23.2444 15.0644 23.2417 15.0791 23.242 15.094C23.242 15.155 23.292 15.207 23.353 15.207C23.3827 15.2065 23.411 15.1944 23.4319 15.1733C23.4529 15.1522 23.4647 15.1237 23.465 15.094V15.074C23.4609 15.0476 23.4474 15.0236 23.427 15.0063C23.4066 14.989 23.3807 14.9797 23.354 14.98ZM23.916 14.98C23.901 14.9799 23.8862 14.9827 23.8723 14.9884C23.8585 14.9941 23.8459 15.0025 23.8354 15.0132C23.8249 15.0238 23.8166 15.0364 23.811 15.0503C23.8054 15.0642 23.8027 15.0791 23.803 15.094C23.803 15.156 23.854 15.208 23.916 15.207C23.977 15.207 24.026 15.155 24.027 15.094V15.074C24.0231 15.0475 24.0097 15.0234 23.9892 15.0061C23.9688 14.9887 23.9428 14.9795 23.916 14.98ZM24.479 14.98C24.4639 14.9797 24.449 14.9825 24.435 14.9881C24.4211 14.9938 24.4084 15.0022 24.3978 15.0128C24.3871 15.0234 24.3787 15.0361 24.3731 15.0501C24.3675 15.064 24.3647 15.079 24.365 15.094C24.365 15.156 24.417 15.208 24.479 15.207C24.539 15.207 24.589 15.155 24.589 15.094V15.086C24.5875 15.0577 24.5753 15.031 24.5549 15.0114C24.5344 14.9917 24.5073 14.9805 24.479 14.98ZM25.041 14.98C25.026 14.9799 25.0112 14.9827 24.9973 14.9884C24.9835 14.9941 24.9709 15.0025 24.9604 15.0132C24.9499 15.0238 24.9416 15.0364 24.936 15.0503C24.9304 15.0642 24.9277 15.0791 24.928 15.094C24.928 15.156 24.979 15.208 25.041 15.207C25.102 15.207 25.151 15.155 25.152 15.094V15.086C25.1505 15.0575 25.1381 15.0307 25.1175 15.011C25.0969 14.9913 25.0695 14.9802 25.041 14.98ZM25.601 14.98C25.5863 14.9803 25.5718 14.9834 25.5583 14.9893C25.5448 14.9952 25.5326 15.0036 25.5224 15.0142C25.5121 15.0248 25.5041 15.0373 25.4987 15.051C25.4933 15.0647 25.4907 15.0793 25.491 15.094C25.491 15.155 25.541 15.207 25.601 15.207C25.631 15.207 25.6599 15.1951 25.6812 15.174C25.7026 15.1528 25.7147 15.1241 25.715 15.094V15.086C25.7134 15.0572 25.7008 15.0301 25.6798 15.0103C25.6587 14.9906 25.6308 14.9797 25.602 14.98H25.601ZM26.164 14.98C26.1492 14.9801 26.1346 14.9832 26.121 14.989C26.1074 14.9948 26.095 15.0033 26.0847 15.0139C26.0744 15.0245 26.0663 15.037 26.0608 15.0508C26.0554 15.0645 26.0527 15.0792 26.053 15.094C26.053 15.155 26.103 15.207 26.164 15.207C26.1939 15.2068 26.2225 15.1948 26.2436 15.1736C26.2647 15.1525 26.2767 15.1239 26.277 15.094V15.086C26.2754 15.0572 26.2628 15.0301 26.2418 15.0103C26.2207 14.9906 26.1928 14.9797 26.164 14.98ZM26.727 14.98C26.7121 14.98 26.6974 14.983 26.6836 14.9887C26.6699 14.9945 26.6575 15.0029 26.6471 15.0135C26.6366 15.0241 26.6284 15.0367 26.6229 15.0505C26.6174 15.0644 26.6147 15.0791 26.615 15.094C26.615 15.155 26.665 15.207 26.727 15.207C26.7569 15.2068 26.7855 15.1948 26.8066 15.1736C26.8277 15.1525 26.8397 15.1239 26.84 15.094V15.086C26.8384 15.0572 26.8258 15.0301 26.8048 15.0103C26.7837 14.9906 26.7558 14.9797 26.727 14.98ZM27.289 14.98C27.2742 14.9801 27.2596 14.9832 27.246 14.989C27.2324 14.9948 27.22 15.0033 27.2097 15.0139C27.1994 15.0245 27.1913 15.037 27.1858 15.0508C27.1804 15.0645 27.1777 15.0792 27.178 15.094C27.178 15.155 27.228 15.206 27.289 15.207C27.351 15.207 27.402 15.157 27.402 15.094C27.4022 15.0791 27.3995 15.0642 27.3939 15.0503C27.3884 15.0364 27.3801 15.0238 27.3695 15.0132C27.359 15.0025 27.3464 14.9941 27.3326 14.9884C27.3188 14.9827 27.3039 14.9799 27.289 14.98ZM27.852 14.98C27.8371 14.98 27.8224 14.983 27.8086 14.9887C27.7949 14.9945 27.7825 15.0029 27.7721 15.0135C27.7616 15.0241 27.7534 15.0367 27.7479 15.0505C27.7424 15.0644 27.7397 15.0791 27.74 15.094C27.74 15.155 27.79 15.207 27.852 15.207C27.912 15.207 27.962 15.155 27.962 15.094C27.964 15.086 27.964 15.082 27.962 15.074C27.9581 15.0477 27.9448 15.0237 27.9246 15.0064C27.9044 14.9891 27.8786 14.9797 27.852 14.98ZM28.414 14.98C28.399 14.9799 28.3842 14.9827 28.3703 14.9884C28.3565 14.9941 28.3439 15.0025 28.3334 15.0132C28.3229 15.0238 28.3146 15.0364 28.309 15.0503C28.3034 15.0642 28.3007 15.0791 28.301 15.094C28.301 15.156 28.352 15.208 28.414 15.207C28.475 15.207 28.524 15.155 28.525 15.094V15.086C28.5235 15.0577 28.5113 15.031 28.4909 15.0114C28.4704 14.9917 28.4433 14.9805 28.415 14.98H28.414ZM28.977 14.98C28.9619 14.9797 28.947 14.9825 28.933 14.9881C28.9191 14.9938 28.9064 15.0022 28.8958 15.0128C28.8851 15.0234 28.8767 15.0361 28.8711 15.0501C28.8655 15.064 28.8627 15.079 28.863 15.094C28.863 15.156 28.915 15.208 28.977 15.207C29.037 15.207 29.087 15.155 29.087 15.094V15.086C29.0855 15.0577 29.0733 15.031 29.0529 15.0114C29.0324 14.9917 29.0053 14.9805 28.977 14.98ZM29.539 14.98C29.524 14.9799 29.5092 14.9827 29.4953 14.9884C29.4815 14.9941 29.4689 15.0025 29.4584 15.0132C29.4479 15.0238 29.4396 15.0364 29.434 15.0503C29.4284 15.0642 29.4257 15.0791 29.426 15.094C29.426 15.156 29.477 15.208 29.539 15.207C29.6 15.207 29.649 15.155 29.65 15.094V15.086C29.6485 15.0577 29.6363 15.031 29.6159 15.0114C29.5954 14.9917 29.5683 14.9805 29.54 14.98H29.539ZM30.099 14.98C30.0843 14.9803 30.0698 14.9834 30.0563 14.9893C30.0428 14.9952 30.0306 15.0036 30.0204 15.0142C30.0101 15.0248 30.0021 15.0373 29.9967 15.051C29.9913 15.0647 29.9887 15.0793 29.989 15.094C29.989 15.155 30.038 15.207 30.099 15.207C30.129 15.207 30.1579 15.1951 30.1792 15.174C30.2006 15.1528 30.2127 15.1241 30.213 15.094V15.086C30.2114 15.0572 30.1988 15.0301 30.1778 15.0103C30.1567 14.9906 30.1288 14.9797 30.1 14.98H30.099ZM30.662 14.98C30.6472 14.9801 30.6326 14.9832 30.619 14.989C30.6054 14.9948 30.593 15.0033 30.5827 15.0139C30.5724 15.0245 30.5643 15.037 30.5588 15.0508C30.5534 15.0645 30.5507 15.0792 30.551 15.094C30.551 15.155 30.601 15.207 30.662 15.207C30.6919 15.2068 30.7205 15.1948 30.7416 15.1736C30.7627 15.1525 30.7747 15.1239 30.775 15.094V15.086C30.7734 15.0572 30.7608 15.0301 30.7398 15.0103C30.7187 14.9906 30.6908 14.9797 30.662 14.98ZM31.225 14.98C31.2101 14.98 31.1954 14.983 31.1817 14.9887C31.1679 14.9945 31.1555 15.0029 31.1451 15.0135C31.1346 15.0241 31.1264 15.0367 31.1209 15.0505C31.1154 15.0644 31.1127 15.0791 31.113 15.094C31.113 15.155 31.163 15.207 31.225 15.207C31.2549 15.2068 31.2835 15.1948 31.3046 15.1736C31.3257 15.1525 31.3377 15.1239 31.338 15.094V15.086C31.3364 15.0572 31.3238 15.0301 31.3028 15.0103C31.2817 14.9906 31.2538 14.9797 31.225 14.98ZM31.787 14.98C31.7722 14.9801 31.7576 14.9832 31.744 14.989C31.7304 14.9948 31.718 15.0033 31.7077 15.0139C31.6974 15.0245 31.6893 15.037 31.6838 15.0508C31.6784 15.0645 31.6757 15.0792 31.676 15.094C31.676 15.155 31.726 15.207 31.787 15.207C31.848 15.207 31.897 15.155 31.898 15.094V15.074C31.8941 15.0477 31.8808 15.0237 31.8606 15.0064C31.8404 14.9891 31.8146 14.9797 31.788 14.98H31.787ZM32.35 14.98C32.3349 14.9797 32.32 14.9825 32.306 14.9881C32.2921 14.9938 32.2794 15.0022 32.2688 15.0128C32.2581 15.0234 32.2497 15.0361 32.2441 15.0501C32.2385 15.064 32.2357 15.079 32.236 15.094C32.236 15.156 32.288 15.208 32.35 15.207C32.41 15.207 32.46 15.155 32.46 15.094C32.462 15.086 32.462 15.082 32.46 15.074C32.4561 15.0477 32.4428 15.0237 32.4226 15.0064C32.4024 14.9891 32.3766 14.9797 32.35 14.98ZM32.912 14.98C32.897 14.9799 32.8822 14.9827 32.8683 14.9884C32.8545 14.9941 32.8419 15.0025 32.8314 15.0132C32.8209 15.0238 32.8126 15.0364 32.807 15.0503C32.8014 15.0642 32.7987 15.0791 32.799 15.094C32.799 15.156 32.85 15.208 32.912 15.207C32.973 15.207 33.022 15.155 33.023 15.094V15.086C33.0215 15.0577 33.0093 15.031 32.9889 15.0114C32.9684 14.9917 32.9413 14.9805 32.913 14.98H32.912ZM33.475 14.98C33.4599 14.9797 33.445 14.9825 33.431 14.9881C33.4171 14.9938 33.4044 15.0022 33.3938 15.0128C33.3831 15.0234 33.3747 15.0361 33.3691 15.0501C33.3635 15.064 33.3607 15.079 33.361 15.094C33.361 15.156 33.413 15.208 33.475 15.207C33.5043 15.206 33.5322 15.1937 33.5527 15.1726C33.5732 15.1516 33.5847 15.1234 33.585 15.094V15.086C33.5835 15.0577 33.5713 15.031 33.5509 15.0114C33.5304 14.9917 33.5033 14.9805 33.475 14.98ZM34.037 14.98C34.022 14.9799 34.0072 14.9827 33.9933 14.9884C33.9795 14.9941 33.9669 15.0025 33.9564 15.0132C33.9459 15.0238 33.9376 15.0364 33.932 15.0503C33.9264 15.0642 33.9237 15.0791 33.924 15.094C33.924 15.156 33.975 15.208 34.037 15.207C34.0665 15.2062 34.0946 15.194 34.1153 15.1729C34.136 15.1519 34.1477 15.1236 34.148 15.094V15.086C34.1465 15.0577 34.1343 15.031 34.1139 15.0114C34.0934 14.9917 34.0663 14.9805 34.038 14.98H34.037ZM34.597 14.98C34.5823 14.9803 34.5678 14.9834 34.5543 14.9893C34.5408 14.9952 34.5286 15.0036 34.5184 15.0142C34.5081 15.0248 34.5001 15.0373 34.4947 15.051C34.4893 15.0647 34.4867 15.0793 34.487 15.094C34.487 15.155 34.536 15.207 34.597 15.207C34.627 15.207 34.6559 15.1951 34.6772 15.174C34.6986 15.1528 34.7107 15.1241 34.711 15.094V15.086C34.7094 15.0572 34.6968 15.0301 34.6758 15.0103C34.6547 14.9906 34.6268 14.9797 34.598 14.98H34.597ZM19.087 17.883C18.9626 17.885 18.8398 17.9116 18.7257 17.9612C18.6115 18.0108 18.5083 18.0824 18.422 18.172L16.613 20.029C16.5261 20.1183 16.4578 20.2238 16.4118 20.3396C16.3659 20.4554 16.3433 20.5791 16.3454 20.7036C16.3474 20.8281 16.374 20.951 16.4237 21.0652C16.4734 21.1794 16.5452 21.2827 16.635 21.369C16.7238 21.4564 16.829 21.5254 16.9446 21.5719C17.0602 21.6184 17.1839 21.6415 17.3085 21.64C17.4331 21.6384 17.5562 21.6121 17.6706 21.5627C17.785 21.5133 17.8884 21.4417 17.975 21.352L19.783 19.492C19.8699 19.4028 19.9383 19.2973 19.9844 19.1816C20.0304 19.0659 20.053 18.9422 20.0511 18.8176C20.0491 18.6931 20.0226 18.5702 19.973 18.456C19.9234 18.3417 19.8517 18.2384 19.762 18.152C19.673 18.0648 19.5676 17.996 19.4519 17.9497C19.3363 17.9034 19.2126 17.8804 19.088 17.882L19.087 17.883ZM23.087 17.883C22.9626 17.885 22.8398 17.9116 22.7257 17.9612C22.6115 18.0108 22.5083 18.0824 22.422 18.172L20.613 20.029C20.5261 20.1183 20.4578 20.2238 20.4118 20.3396C20.3659 20.4554 20.3433 20.5791 20.3454 20.7036C20.3474 20.8281 20.374 20.951 20.4237 21.0652C20.4734 21.1794 20.5452 21.2827 20.635 21.369C20.7238 21.4564 20.829 21.5254 20.9446 21.5719C21.0602 21.6184 21.1839 21.6415 21.3085 21.64C21.4331 21.6384 21.5562 21.6121 21.6706 21.5627C21.785 21.5133 21.8884 21.4417 21.975 21.352L23.783 19.492C23.8699 19.4028 23.9383 19.2973 23.9844 19.1816C24.0304 19.0659 24.053 18.9422 24.0511 18.8176C24.0491 18.6931 24.0226 18.5702 23.973 18.456C23.9234 18.3417 23.8517 18.2384 23.762 18.152C23.673 18.0648 23.5676 17.996 23.4519 17.9497C23.3363 17.9034 23.2126 17.8804 23.088 17.882L23.087 17.883ZM27.087 17.883C26.9626 17.885 26.8398 17.9116 26.7257 17.9612C26.6115 18.0108 26.5083 18.0824 26.422 18.172L24.613 20.029C24.5261 20.1183 24.4578 20.2238 24.4118 20.3396C24.3659 20.4554 24.3433 20.5791 24.3454 20.7036C24.3474 20.8281 24.374 20.951 24.4237 21.0652C24.4734 21.1794 24.5452 21.2827 24.635 21.369C24.7238 21.4564 24.829 21.5254 24.9446 21.5719C25.0602 21.6184 25.1839 21.6415 25.3085 21.64C25.4331 21.6384 25.5562 21.6121 25.6706 21.5627C25.785 21.5133 25.8884 21.4417 25.975 21.352L27.783 19.492C27.8699 19.4028 27.9383 19.2973 27.9844 19.1816C28.0304 19.0659 28.053 18.9422 28.0511 18.8176C28.0491 18.6931 28.0226 18.5702 27.973 18.456C27.9234 18.3417 27.8517 18.2384 27.762 18.152C27.673 18.0648 27.5676 17.996 27.4519 17.9497C27.3363 17.9034 27.2126 17.8804 27.088 17.882L27.087 17.883ZM31.087 17.883C30.9626 17.885 30.8398 17.9116 30.7257 17.9612C30.6115 18.0108 30.5083 18.0824 30.422 18.172L28.613 20.029C28.5261 20.1183 28.4578 20.2238 28.4118 20.3396C28.3659 20.4554 28.3433 20.5791 28.3454 20.7036C28.3474 20.8281 28.374 20.951 28.4237 21.0652C28.4734 21.1794 28.5452 21.2827 28.635 21.369C28.7238 21.4564 28.829 21.5254 28.9446 21.5719C29.0602 21.6184 29.1839 21.6415 29.3085 21.64C29.4331 21.6384 29.5562 21.6121 29.6706 21.5627C29.785 21.5133 29.8884 21.4417 29.975 21.352L31.783 19.492C31.8699 19.4028 31.9383 19.2973 31.9844 19.1816C32.0304 19.0659 32.053 18.9422 32.0511 18.8176C32.0491 18.6931 32.0226 18.5702 31.973 18.456C31.9234 18.3417 31.8517 18.2384 31.762 18.152C31.673 18.0648 31.5676 17.996 31.4519 17.9497C31.3363 17.9034 31.2126 17.8804 31.088 17.882L31.087 17.883ZM19.152 18.365C19.2435 18.3733 19.3299 18.4112 19.398 18.473C19.805 18.834 19.324 19.258 19.148 19.441L18.283 20.346C17.676 20.977 17.412 21.404 16.988 20.996C16.628 20.623 16.945 20.4 17.633 19.701L18.498 18.799C18.703 18.598 18.916 18.354 19.152 18.365ZM23.152 18.365C23.2435 18.3733 23.3299 18.4112 23.398 18.473C23.805 18.834 23.324 19.258 23.148 19.441L22.283 20.346C21.676 20.977 21.412 21.404 20.988 20.996C20.628 20.623 20.945 20.4 21.633 19.701L22.498 18.799C22.703 18.598 22.916 18.354 23.152 18.365ZM27.152 18.365C27.2435 18.3733 27.3299 18.4112 27.398 18.473C27.805 18.834 27.324 19.258 27.148 19.441L26.283 20.346C25.676 20.977 25.412 21.404 24.988 20.996C24.628 20.623 24.945 20.4 25.633 19.701L26.498 18.799C26.703 18.598 26.916 18.354 27.152 18.365ZM31.152 18.365C31.2435 18.3733 31.3299 18.4112 31.398 18.473C31.805 18.834 31.324 19.258 31.148 19.441L30.283 20.346C29.676 20.977 29.412 21.404 28.988 20.996C28.628 20.623 28.945 20.4 29.633 19.701L30.498 18.799C30.703 18.598 30.916 18.354 31.152 18.365ZM13.795 23.981C13.7803 23.9811 13.7657 23.9842 13.7522 23.9899C13.7387 23.9957 13.7264 24.004 13.7161 24.0145C13.7058 24.025 13.6976 24.0374 13.6921 24.0511C13.6866 24.0647 13.6838 24.0793 13.684 24.094C13.684 24.155 13.734 24.206 13.794 24.207C13.857 24.207 13.907 24.157 13.908 24.094C13.9082 24.0791 13.9055 24.0642 13.8999 24.0503C13.8944 24.0364 13.8861 24.0238 13.8755 24.0132C13.865 24.0025 13.8525 23.9941 13.8386 23.9884C13.8248 23.9827 13.8099 23.9799 13.795 23.98V23.981ZM14.357 23.981C14.3271 23.9813 14.2985 23.9933 14.2774 24.0144C14.2562 24.0355 14.2442 24.0641 14.244 24.094C14.244 24.155 14.296 24.207 14.357 24.207C14.419 24.207 14.468 24.155 14.469 24.094V24.074C14.4651 24.0473 14.4515 24.023 14.4309 24.0057C14.4102 23.9884 14.3839 23.9792 14.357 23.98V23.981ZM14.92 23.981C14.9051 23.9809 14.8903 23.9837 14.8766 23.9893C14.8628 23.995 14.8503 24.0033 14.8398 24.0138C14.8293 24.0243 14.8209 24.0368 14.8153 24.0506C14.8097 24.0644 14.8068 24.0791 14.807 24.094C14.807 24.156 14.857 24.208 14.92 24.207C14.981 24.207 15.03 24.155 15.031 24.094V24.074C15.0271 24.0475 15.0137 24.0234 14.9932 24.0061C14.9728 23.9887 14.9468 23.9795 14.92 23.98V23.981ZM15.482 23.981C15.4671 23.9809 15.4523 23.9837 15.4386 23.9893C15.4248 23.995 15.4123 24.0033 15.4018 24.0138C15.3913 24.0243 15.3829 24.0368 15.3773 24.0506C15.3717 24.0644 15.3688 24.0791 15.369 24.094C15.369 24.156 15.42 24.208 15.482 24.207C15.544 24.207 15.593 24.155 15.594 24.094V24.086C15.5922 24.0575 15.5796 24.0308 15.5588 24.0113C15.538 23.9918 15.5105 23.981 15.482 23.981ZM16.045 23.981C16.0301 23.9809 16.0153 23.9837 16.0016 23.9893C15.9878 23.995 15.9753 24.0033 15.9648 24.0138C15.9543 24.0243 15.9459 24.0368 15.9403 24.0506C15.9347 24.0644 15.9318 24.0791 15.932 24.094C15.932 24.156 15.982 24.208 16.045 24.207C16.106 24.207 16.155 24.155 16.156 24.094V24.086C16.1542 24.0577 16.1418 24.0311 16.1212 24.0117C16.1006 23.9922 16.0733 23.9812 16.045 23.981ZM16.607 23.981C16.5921 23.9809 16.5773 23.9837 16.5636 23.9893C16.5498 23.995 16.5373 24.0033 16.5268 24.0138C16.5163 24.0243 16.5079 24.0368 16.5023 24.0506C16.4967 24.0644 16.4938 24.0791 16.494 24.094C16.494 24.156 16.545 24.208 16.607 24.207C16.669 24.207 16.718 24.155 16.719 24.094V24.086C16.7172 24.0575 16.7046 24.0308 16.6838 24.0113C16.663 23.9918 16.6355 23.981 16.607 23.981ZM17.168 23.981C17.1533 23.9811 17.1387 23.9842 17.1252 23.9899C17.1117 23.9957 17.0994 24.004 17.0891 24.0145C17.0788 24.025 17.0706 24.0374 17.0651 24.0511C17.0596 24.0647 17.0568 24.0793 17.057 24.094C17.057 24.155 17.107 24.207 17.168 24.207C17.1979 24.2068 17.2265 24.1948 17.2476 24.1736C17.2687 24.1525 17.2807 24.1239 17.281 24.094V24.086C17.2792 24.0574 17.2665 24.0305 17.2454 24.011C17.2244 23.9914 17.1967 23.9807 17.168 23.981ZM17.731 23.981C17.7162 23.981 17.7015 23.9839 17.6879 23.9896C17.6742 23.9953 17.6618 24.0037 17.6514 24.0142C17.641 24.0247 17.6328 24.0371 17.6272 24.0508C17.6216 24.0646 17.6188 24.0792 17.619 24.094C17.619 24.155 17.669 24.207 17.73 24.207C17.76 24.207 17.7889 24.1951 17.8102 24.174C17.8316 24.1528 17.8437 24.1241 17.844 24.094V24.086C17.8422 24.0572 17.8293 24.0302 17.8081 24.0106C17.7868 23.991 17.7589 23.9804 17.73 23.981H17.731ZM18.293 23.981C18.2783 23.9811 18.2637 23.9842 18.2502 23.9899C18.2367 23.9957 18.2244 24.004 18.2141 24.0145C18.2038 24.025 18.1956 24.0374 18.1901 24.0511C18.1846 24.0647 18.1818 24.0793 18.182 24.094C18.182 24.155 18.232 24.207 18.293 24.207C18.3229 24.2068 18.3515 24.1948 18.3726 24.1736C18.3937 24.1525 18.4057 24.1239 18.406 24.094V24.086C18.4042 24.0574 18.3915 24.0305 18.3704 24.011C18.3494 23.9914 18.3217 23.9807 18.293 23.981ZM18.856 23.981C18.8412 23.981 18.8265 23.9839 18.8129 23.9896C18.7992 23.9953 18.7868 24.0037 18.7764 24.0142C18.766 24.0247 18.7578 24.0371 18.7522 24.0508C18.7466 24.0646 18.7438 24.0792 18.744 24.094C18.744 24.155 18.794 24.207 18.855 24.207C18.917 24.207 18.966 24.155 18.967 24.094V24.074C18.9631 24.0475 18.9497 24.0234 18.9292 24.0061C18.9088 23.9887 18.8828 23.9795 18.856 23.98V23.981ZM19.418 23.981C19.4031 23.9809 19.3883 23.9837 19.3746 23.9893C19.3608 23.995 19.3483 24.0033 19.3378 24.0138C19.3273 24.0243 19.3189 24.0368 19.3133 24.0506C19.3077 24.0644 19.3048 24.0791 19.305 24.094C19.305 24.156 19.356 24.208 19.418 24.207C19.479 24.207 19.528 24.155 19.529 24.094V24.086C19.5272 24.0577 19.5148 24.0311 19.4942 24.0117C19.4736 23.9922 19.4463 23.9812 19.418 23.981ZM19.981 23.981C19.966 23.9808 19.9512 23.9835 19.9373 23.9891C19.9234 23.9946 19.9108 24.0029 19.9001 24.0135C19.8895 24.024 19.8811 24.0365 19.8754 24.0504C19.8697 24.0642 19.8668 24.0791 19.867 24.094C19.867 24.156 19.919 24.208 19.98 24.207C20.042 24.207 20.091 24.155 20.092 24.094V24.086C20.0902 24.0577 20.0778 24.0311 20.0572 24.0117C20.0366 23.9922 20.0093 23.9812 19.981 23.981ZM20.543 23.981C20.5281 23.9809 20.5133 23.9837 20.4996 23.9893C20.4858 23.995 20.4733 24.0033 20.4628 24.0138C20.4523 24.0243 20.4439 24.0368 20.4383 24.0506C20.4327 24.0644 20.4298 24.0791 20.43 24.094C20.43 24.156 20.481 24.208 20.543 24.207C20.604 24.207 20.653 24.155 20.654 24.094V24.086C20.6522 24.0577 20.6398 24.0311 20.6192 24.0117C20.5986 23.9922 20.5713 23.9812 20.543 23.981ZM21.106 23.981C21.091 23.9808 21.0762 23.9835 21.0623 23.9891C21.0484 23.9946 21.0358 24.0029 21.0251 24.0135C21.0145 24.024 21.0061 24.0365 21.0004 24.0504C20.9947 24.0642 20.9918 24.0791 20.992 24.094C20.992 24.156 21.044 24.208 21.105 24.207C21.167 24.207 21.216 24.155 21.217 24.094V24.086C21.2152 24.0577 21.2028 24.0311 21.1822 24.0117C21.1616 23.9922 21.1343 23.9812 21.106 23.981ZM21.666 23.981C21.6513 23.9811 21.6367 23.9842 21.6232 23.9899C21.6097 23.9957 21.5974 24.004 21.5871 24.0145C21.5768 24.025 21.5686 24.0374 21.5631 24.0511C21.5576 24.0647 21.5548 24.0793 21.555 24.094C21.555 24.155 21.605 24.207 21.666 24.207C21.6959 24.2068 21.7245 24.1948 21.7456 24.1736C21.7667 24.1525 21.7787 24.1239 21.779 24.094V24.086C21.7772 24.0574 21.7645 24.0305 21.7434 24.011C21.7224 23.9914 21.6947 23.9807 21.666 23.981ZM22.229 23.981C22.2142 23.981 22.1995 23.9839 22.1859 23.9896C22.1722 23.9953 22.1598 24.0037 22.1494 24.0142C22.139 24.0247 22.1308 24.0371 22.1252 24.0508C22.1196 24.0646 22.1168 24.0792 22.117 24.094C22.117 24.155 22.167 24.207 22.228 24.207C22.258 24.207 22.2869 24.1951 22.3082 24.174C22.3296 24.1528 22.3417 24.1241 22.342 24.094V24.086C22.3402 24.0574 22.3275 24.0305 22.3064 24.011C22.2854 23.9914 22.2577 23.9807 22.229 23.981ZM22.791 23.981C22.7763 23.9811 22.7617 23.9842 22.7482 23.9899C22.7347 23.9957 22.7224 24.004 22.7121 24.0145C22.7018 24.025 22.6936 24.0374 22.6881 24.0511C22.6826 24.0647 22.6798 24.0793 22.68 24.094C22.68 24.155 22.73 24.206 22.791 24.207C22.853 24.207 22.904 24.157 22.904 24.094C22.9042 24.0791 22.9015 24.0642 22.8959 24.0503C22.8904 24.0364 22.8821 24.0238 22.8715 24.0132C22.861 24.0025 22.8485 23.9941 22.8346 23.9884C22.8208 23.9827 22.8059 23.9799 22.791 23.98V23.981ZM23.354 23.981C23.3392 23.981 23.3245 23.9839 23.3109 23.9896C23.2972 23.9953 23.2848 24.0037 23.2744 24.0142C23.264 24.0247 23.2558 24.0371 23.2502 24.0508C23.2446 24.0646 23.2418 24.0792 23.242 24.094C23.242 24.155 23.292 24.207 23.353 24.207C23.3827 24.2065 23.411 24.1944 23.4319 24.1733C23.4529 24.1522 23.4647 24.1237 23.465 24.094V24.074C23.4609 24.0476 23.4474 24.0236 23.427 24.0063C23.4066 23.989 23.3807 23.9797 23.354 23.98V23.981ZM23.916 23.981C23.9011 23.9809 23.8863 23.9837 23.8726 23.9893C23.8588 23.995 23.8463 24.0033 23.8358 24.0138C23.8253 24.0243 23.8169 24.0368 23.8113 24.0506C23.8057 24.0644 23.8028 24.0791 23.803 24.094C23.803 24.156 23.854 24.208 23.916 24.207C23.977 24.207 24.026 24.155 24.027 24.094V24.074C24.0231 24.0475 24.0097 24.0234 23.9892 24.0061C23.9688 23.9887 23.9428 23.9795 23.916 23.98V23.981ZM24.479 23.981C24.464 23.9808 24.4492 23.9835 24.4353 23.9891C24.4214 23.9946 24.4088 24.0029 24.3981 24.0135C24.3875 24.024 24.3791 24.0365 24.3734 24.0504C24.3677 24.0642 24.3648 24.0791 24.365 24.094C24.365 24.156 24.417 24.208 24.479 24.207C24.539 24.207 24.589 24.155 24.589 24.094V24.086C24.5872 24.0579 24.5749 24.0315 24.5545 24.012C24.5341 23.9925 24.5072 23.9815 24.479 23.981ZM25.041 23.981C25.0261 23.9809 25.0113 23.9837 24.9976 23.9893C24.9838 23.995 24.9713 24.0033 24.9608 24.0138C24.9503 24.0243 24.9419 24.0368 24.9363 24.0506C24.9307 24.0644 24.9278 24.0791 24.928 24.094C24.928 24.156 24.979 24.208 25.041 24.207C25.102 24.207 25.151 24.155 25.152 24.094V24.086C25.1502 24.0577 25.1378 24.0311 25.1172 24.0117C25.0966 23.9922 25.0693 23.9812 25.041 23.981ZM25.601 23.981C25.5714 23.9815 25.5433 23.9937 25.5227 24.0149C25.5021 24.036 25.4907 24.0645 25.491 24.094C25.491 24.155 25.541 24.207 25.601 24.207C25.631 24.207 25.6599 24.1951 25.6812 24.174C25.7026 24.1528 25.7147 24.1241 25.715 24.094V24.086C25.7132 24.0574 25.7005 24.0305 25.6794 24.011C25.6584 23.9914 25.6307 23.9807 25.602 23.981H25.601ZM26.164 23.981C26.1493 23.9811 26.1347 23.9842 26.1212 23.9899C26.1077 23.9957 26.0954 24.004 26.0851 24.0145C26.0748 24.025 26.0666 24.0374 26.0611 24.0511C26.0556 24.0647 26.0528 24.0793 26.053 24.094C26.053 24.155 26.103 24.207 26.164 24.207C26.1939 24.2068 26.2225 24.1948 26.2436 24.1736C26.2647 24.1525 26.2767 24.1239 26.277 24.094V24.086C26.2752 24.0574 26.2625 24.0305 26.2414 24.011C26.2204 23.9914 26.1927 23.9807 26.164 23.981ZM26.727 23.981C26.7122 23.981 26.6975 23.9839 26.6839 23.9896C26.6702 23.9953 26.6578 24.0037 26.6474 24.0142C26.637 24.0247 26.6288 24.0371 26.6232 24.0508C26.6176 24.0646 26.6148 24.0792 26.615 24.094C26.615 24.155 26.665 24.207 26.727 24.207C26.7569 24.2068 26.7855 24.1948 26.8066 24.1736C26.8277 24.1525 26.8397 24.1239 26.84 24.094V24.086C26.8382 24.0574 26.8255 24.0305 26.8044 24.011C26.7834 23.9914 26.7557 23.9807 26.727 23.981ZM27.289 23.981C27.2743 23.9811 27.2597 23.9842 27.2462 23.9899C27.2327 23.9957 27.2204 24.004 27.2101 24.0145C27.1998 24.025 27.1916 24.0374 27.1861 24.0511C27.1806 24.0647 27.1778 24.0793 27.178 24.094C27.178 24.155 27.228 24.206 27.289 24.207C27.351 24.207 27.402 24.157 27.402 24.094C27.4022 24.0791 27.3995 24.0642 27.3939 24.0503C27.3884 24.0364 27.3801 24.0238 27.3695 24.0132C27.359 24.0025 27.3464 23.9941 27.3326 23.9884C27.3188 23.9827 27.3039 23.9799 27.289 23.98V23.981ZM27.852 23.981C27.8372 23.981 27.8225 23.9839 27.8089 23.9896C27.7952 23.9953 27.7828 24.0037 27.7724 24.0142C27.762 24.0247 27.7538 24.0371 27.7482 24.0508C27.7426 24.0646 27.7398 24.0792 27.74 24.094C27.74 24.155 27.79 24.207 27.852 24.207C27.912 24.207 27.962 24.155 27.962 24.094C27.964 24.086 27.964 24.082 27.962 24.074C27.9581 24.0477 27.9448 24.0237 27.9246 24.0064C27.9044 23.9891 27.8786 23.9797 27.852 23.98V23.981ZM28.414 23.981C28.3991 23.9809 28.3843 23.9837 28.3706 23.9893C28.3568 23.995 28.3443 24.0033 28.3338 24.0138C28.3233 24.0243 28.3149 24.0368 28.3093 24.0506C28.3037 24.0644 28.3008 24.0791 28.301 24.094C28.301 24.156 28.352 24.208 28.414 24.207C28.475 24.207 28.524 24.155 28.525 24.094V24.086C28.5232 24.0579 28.5109 24.0315 28.4905 24.012C28.4701 23.9925 28.4432 23.9815 28.415 23.981H28.414ZM28.977 23.981C28.962 23.9808 28.9472 23.9835 28.9333 23.9891C28.9194 23.9946 28.9068 24.0029 28.8961 24.0135C28.8855 24.024 28.8771 24.0365 28.8714 24.0504C28.8657 24.0642 28.8628 24.0791 28.863 24.094C28.863 24.156 28.915 24.208 28.977 24.207C29.037 24.207 29.087 24.155 29.087 24.094V24.086C29.0852 24.0579 29.0729 24.0315 29.0525 24.012C29.0321 23.9925 29.0052 23.9815 28.977 23.981ZM29.539 23.981C29.5241 23.9809 29.5093 23.9837 29.4956 23.9893C29.4818 23.995 29.4693 24.0033 29.4588 24.0138C29.4483 24.0243 29.4399 24.0368 29.4343 24.0506C29.4287 24.0644 29.4258 24.0791 29.426 24.094C29.426 24.156 29.477 24.208 29.539 24.207C29.6 24.207 29.649 24.155 29.65 24.094V24.086C29.6482 24.0579 29.6359 24.0315 29.6155 24.012C29.5951 23.9925 29.5682 23.9815 29.54 23.981H29.539ZM30.099 23.981C30.0694 23.9815 30.0413 23.9937 30.0207 24.0149C30.0001 24.036 29.9887 24.0645 29.989 24.094C29.989 24.155 30.038 24.207 30.099 24.207C30.129 24.207 30.1579 24.1951 30.1792 24.174C30.2006 24.1528 30.2127 24.1241 30.213 24.094V24.086C30.2112 24.0574 30.1985 24.0305 30.1774 24.011C30.1564 23.9914 30.1287 23.9807 30.1 23.981H30.099ZM30.662 23.981C30.6473 23.9811 30.6327 23.9842 30.6192 23.9899C30.6057 23.9957 30.5934 24.004 30.5831 24.0145C30.5728 24.025 30.5646 24.0374 30.5591 24.0511C30.5536 24.0647 30.5508 24.0793 30.551 24.094C30.551 24.155 30.601 24.207 30.662 24.207C30.6919 24.2068 30.7205 24.1948 30.7416 24.1736C30.7627 24.1525 30.7747 24.1239 30.775 24.094V24.086C30.7732 24.0574 30.7605 24.0305 30.7394 24.011C30.7184 23.9914 30.6907 23.9807 30.662 23.981ZM31.225 23.981C31.2102 23.981 31.1955 23.9839 31.1819 23.9896C31.1682 23.9953 31.1558 24.0037 31.1454 24.0142C31.135 24.0247 31.1268 24.0371 31.1212 24.0508C31.1156 24.0646 31.1128 24.0792 31.113 24.094C31.113 24.155 31.163 24.207 31.225 24.207C31.2549 24.2068 31.2835 24.1948 31.3046 24.1736C31.3257 24.1525 31.3377 24.1239 31.338 24.094V24.086C31.3362 24.0574 31.3235 24.0305 31.3024 24.011C31.2814 23.9914 31.2537 23.9807 31.225 23.981ZM31.787 23.981C31.7723 23.9811 31.7577 23.9842 31.7442 23.9899C31.7307 23.9957 31.7184 24.004 31.7081 24.0145C31.6978 24.025 31.6896 24.0374 31.6841 24.0511C31.6786 24.0647 31.6758 24.0793 31.676 24.094C31.676 24.155 31.726 24.207 31.787 24.207C31.848 24.207 31.897 24.155 31.898 24.094V24.074C31.8941 24.0477 31.8808 24.0237 31.8606 24.0064C31.8404 23.9891 31.8146 23.9797 31.788 23.98L31.787 23.981ZM32.35 23.981C32.335 23.9808 32.3202 23.9835 32.3063 23.9891C32.2924 23.9946 32.2798 24.0029 32.2691 24.0135C32.2585 24.024 32.2501 24.0365 32.2444 24.0504C32.2387 24.0642 32.2358 24.0791 32.236 24.094C32.236 24.156 32.288 24.208 32.35 24.207C32.41 24.207 32.46 24.155 32.46 24.094C32.462 24.086 32.462 24.082 32.46 24.074C32.4561 24.0477 32.4428 24.0237 32.4226 24.0064C32.4024 23.9891 32.3766 23.9797 32.35 23.98V23.981ZM32.912 23.981C32.8971 23.9809 32.8823 23.9837 32.8686 23.9893C32.8548 23.995 32.8423 24.0033 32.8318 24.0138C32.8213 24.0243 32.8129 24.0368 32.8073 24.0506C32.8017 24.0644 32.7988 24.0791 32.799 24.094C32.799 24.156 32.85 24.208 32.912 24.207C32.973 24.207 33.022 24.155 33.023 24.094V24.086C33.0212 24.0579 33.0089 24.0315 32.9885 24.012C32.9681 23.9925 32.9412 23.9815 32.913 23.981H32.912ZM33.475 23.981C33.46 23.9808 33.4452 23.9835 33.4313 23.9891C33.4174 23.9946 33.4048 24.0029 33.3941 24.0135C33.3835 24.024 33.3751 24.0365 33.3694 24.0504C33.3637 24.0642 33.3608 24.0791 33.361 24.094C33.361 24.156 33.413 24.208 33.475 24.207C33.5043 24.206 33.5322 24.1937 33.5527 24.1726C33.5732 24.1516 33.5847 24.1234 33.585 24.094V24.086C33.5832 24.0579 33.5709 24.0315 33.5505 24.012C33.5301 23.9925 33.5032 23.9815 33.475 23.981ZM34.037 23.981C34.0221 23.9809 34.0073 23.9837 33.9936 23.9893C33.9798 23.995 33.9673 24.0033 33.9568 24.0138C33.9463 24.0243 33.9379 24.0368 33.9323 24.0506C33.9267 24.0644 33.9238 24.0791 33.924 24.094C33.924 24.156 33.975 24.208 34.037 24.207C34.0665 24.2062 34.0946 24.194 34.1153 24.1729C34.136 24.1519 34.1477 24.1236 34.148 24.094V24.086C34.1462 24.0579 34.1339 24.0315 34.1135 24.012C34.0931 23.9925 34.0662 23.9815 34.038 23.981H34.037ZM34.597 23.981C34.5674 23.9815 34.5393 23.9937 34.5187 24.0149C34.4981 24.036 34.4867 24.0645 34.487 24.094C34.487 24.155 34.536 24.207 34.597 24.207C34.627 24.207 34.6559 24.1951 34.6772 24.174C34.6986 24.1528 34.7107 24.1241 34.711 24.094V24.086C34.7092 24.0574 34.6965 24.0305 34.6754 24.011C34.6544 23.9914 34.6267 23.9807 34.598 23.981H34.597ZM19.087 26.549V26.551C18.9626 26.553 18.8398 26.5796 18.7257 26.6292C18.6115 26.6788 18.5083 26.7504 18.422 26.84L16.613 28.697C16.5261 28.7863 16.4578 28.8918 16.4118 29.0076C16.3659 29.1234 16.3433 29.2471 16.3454 29.3716C16.3474 29.4961 16.374 29.619 16.4237 29.7332C16.4734 29.8474 16.5452 29.9507 16.635 30.037C16.724 30.1243 16.8294 30.193 16.9451 30.2392C17.0608 30.2855 17.1845 30.3083 17.3091 30.3065C17.4338 30.3046 17.5568 30.2781 17.671 30.2284C17.7853 30.1787 17.8886 30.1069 17.975 30.017L19.783 28.158C19.8699 28.0688 19.9383 27.9633 19.9844 27.8476C20.0304 27.7319 20.053 27.6082 20.0511 27.4837C20.0491 27.3591 20.0226 27.2362 19.973 27.122C19.9234 27.0077 19.8517 26.9044 19.762 26.818C19.673 26.7308 19.5676 26.662 19.4519 26.6157C19.3363 26.5694 19.2126 26.5464 19.088 26.548L19.087 26.549ZM23.087 26.549V26.551C22.9626 26.553 22.8398 26.5796 22.7257 26.6292C22.6115 26.6788 22.5083 26.7504 22.422 26.84L20.613 28.697C20.5261 28.7863 20.4578 28.8918 20.4118 29.0076C20.3659 29.1234 20.3433 29.2471 20.3454 29.3716C20.3474 29.4961 20.374 29.619 20.4237 29.7332C20.4734 29.8474 20.5452 29.9507 20.635 30.037C20.724 30.1243 20.8294 30.193 20.9451 30.2392C21.0608 30.2855 21.1845 30.3083 21.3091 30.3065C21.4338 30.3046 21.5568 30.2781 21.671 30.2284C21.7853 30.1787 21.8886 30.1069 21.975 30.017L23.783 28.158C23.8699 28.0688 23.9383 27.9633 23.9844 27.8476C24.0304 27.7319 24.053 27.6082 24.0511 27.4837C24.0491 27.3591 24.0226 27.2362 23.973 27.122C23.9234 27.0077 23.8517 26.9044 23.762 26.818C23.673 26.7308 23.5676 26.662 23.4519 26.6157C23.3363 26.5694 23.2126 26.5464 23.088 26.548L23.087 26.549ZM27.087 26.549V26.551C26.9626 26.553 26.8398 26.5796 26.7257 26.6292C26.6115 26.6788 26.5083 26.7504 26.422 26.84L24.613 28.697C24.5261 28.7863 24.4578 28.8918 24.4118 29.0076C24.3659 29.1234 24.3433 29.2471 24.3454 29.3716C24.3474 29.4961 24.374 29.619 24.4237 29.7332C24.4734 29.8474 24.5452 29.9507 24.635 30.037C24.724 30.1243 24.8294 30.193 24.9451 30.2392C25.0608 30.2855 25.1845 30.3083 25.3091 30.3065C25.4338 30.3046 25.5568 30.2781 25.671 30.2284C25.7853 30.1787 25.8886 30.1069 25.975 30.017L27.783 28.158C27.8699 28.0688 27.9383 27.9633 27.9844 27.8476C28.0304 27.7319 28.053 27.6082 28.0511 27.4837C28.0491 27.3591 28.0226 27.2362 27.973 27.122C27.9234 27.0077 27.8517 26.9044 27.762 26.818C27.673 26.7308 27.5676 26.662 27.4519 26.6157C27.3363 26.5694 27.2126 26.5464 27.088 26.548L27.087 26.549ZM31.087 26.549V26.551C30.9626 26.553 30.8398 26.5796 30.7257 26.6292C30.6115 26.6788 30.5083 26.7504 30.422 26.84L28.613 28.697C28.5261 28.7863 28.4578 28.8918 28.4118 29.0076C28.3659 29.1234 28.3433 29.2471 28.3454 29.3716C28.3474 29.4961 28.374 29.619 28.4237 29.7332C28.4734 29.8474 28.5452 29.9507 28.635 30.037C28.724 30.1243 28.8294 30.193 28.9451 30.2392C29.0608 30.2855 29.1845 30.3083 29.3091 30.3065C29.4338 30.3046 29.5568 30.2781 29.671 30.2284C29.7853 30.1787 29.8886 30.1069 29.975 30.017L31.783 28.158C31.8699 28.0688 31.9383 27.9633 31.9844 27.8476C32.0304 27.7319 32.053 27.6082 32.0511 27.4837C32.0491 27.3591 32.0226 27.2362 31.973 27.122C31.9234 27.0077 31.8517 26.9044 31.762 26.818C31.673 26.7308 31.5676 26.662 31.4519 26.6157C31.3363 26.5694 31.2126 26.5464 31.088 26.548L31.087 26.549ZM19.152 27.033C19.2435 27.0413 19.3299 27.0792 19.398 27.141C19.805 27.502 19.324 27.926 19.148 28.109L18.283 29.014C17.676 29.645 17.412 30.072 16.988 29.664C16.628 29.291 16.945 29.068 17.633 28.369L18.498 27.467C18.703 27.266 18.916 27.022 19.152 27.033ZM23.152 27.033C23.2435 27.0413 23.3299 27.0792 23.398 27.141C23.805 27.502 23.324 27.926 23.148 28.109L22.283 29.014C21.676 29.645 21.412 30.072 20.988 29.664C20.628 29.291 20.945 29.068 21.633 28.369L22.498 27.467C22.703 27.266 22.916 27.022 23.152 27.033ZM27.152 27.033C27.2435 27.0413 27.3299 27.0792 27.398 27.141C27.805 27.502 27.324 27.926 27.148 28.109L26.283 29.014C25.676 29.645 25.412 30.072 24.988 29.664C24.628 29.291 24.945 29.068 25.633 28.369L26.498 27.467C26.703 27.266 26.916 27.022 27.152 27.033ZM31.152 27.033C31.2435 27.0413 31.3299 27.0792 31.398 27.141C31.805 27.502 31.324 27.926 31.148 28.109L30.283 29.014C29.676 29.645 29.412 30.072 28.988 29.664C28.628 29.291 28.945 29.068 29.633 28.369L30.498 27.467C30.703 27.266 30.916 27.022 31.152 27.033ZM13.795 32.98C13.7802 32.9801 13.7656 32.9832 13.752 32.989C13.7384 32.9948 13.726 33.0033 13.7157 33.0139C13.7054 33.0245 13.6973 33.037 13.6918 33.0508C13.6864 33.0645 13.6837 33.0792 13.684 33.094C13.684 33.155 13.734 33.206 13.794 33.207C13.857 33.207 13.907 33.157 13.908 33.094C13.9082 33.0791 13.9055 33.0642 13.8999 33.0503C13.8944 33.0364 13.8861 33.0238 13.8755 33.0132C13.865 33.0025 13.8525 32.9941 13.8386 32.9884C13.8248 32.9827 13.8099 32.9799 13.795 32.98ZM14.357 32.98C14.3269 32.9803 14.2982 32.9924 14.277 33.0138C14.2558 33.0351 14.244 33.064 14.244 33.094C14.244 33.155 14.296 33.207 14.357 33.207C14.419 33.207 14.468 33.155 14.469 33.094V33.074C14.4648 33.0475 14.4512 33.0235 14.4306 33.0063C14.4099 32.9892 14.3838 32.9802 14.357 32.981V32.98ZM14.92 32.98C14.905 32.9799 14.8902 32.9827 14.8763 32.9884C14.8625 32.9941 14.8499 33.0025 14.8394 33.0132C14.8289 33.0238 14.8206 33.0364 14.815 33.0503C14.8094 33.0642 14.8067 33.0791 14.807 33.094C14.807 33.156 14.857 33.208 14.92 33.207C14.981 33.207 15.03 33.155 15.031 33.094V33.074C15.0269 33.0477 15.0134 33.0238 14.9929 33.0067C14.9725 32.9896 14.9466 32.9805 14.92 32.981V32.98ZM15.482 32.98C15.467 32.9799 15.4522 32.9827 15.4383 32.9884C15.4245 32.9941 15.4119 33.0025 15.4014 33.0132C15.3909 33.0238 15.3826 33.0364 15.377 33.0503C15.3714 33.0642 15.3687 33.0791 15.369 33.094C15.369 33.156 15.42 33.208 15.482 33.207C15.544 33.207 15.593 33.155 15.594 33.094V33.086C15.5922 33.0575 15.5796 33.0308 15.5588 33.0113C15.538 32.9918 15.5105 32.981 15.482 32.981V32.98ZM16.045 32.98C16.03 32.9799 16.0152 32.9827 16.0013 32.9884C15.9875 32.9941 15.9749 33.0025 15.9644 33.0132C15.9539 33.0238 15.9456 33.0364 15.94 33.0503C15.9344 33.0642 15.9317 33.0791 15.932 33.094C15.932 33.156 15.982 33.208 16.045 33.207C16.106 33.207 16.155 33.155 16.156 33.094V33.086C16.1542 33.0577 16.1418 33.0311 16.1212 33.0116C16.1006 32.9922 16.0733 32.9812 16.045 32.981V32.98ZM16.607 32.98C16.592 32.9799 16.5772 32.9827 16.5633 32.9884C16.5495 32.9941 16.5369 33.0025 16.5264 33.0132C16.5159 33.0238 16.5076 33.0364 16.502 33.0503C16.4964 33.0642 16.4937 33.0791 16.494 33.094C16.494 33.156 16.545 33.208 16.607 33.207C16.669 33.207 16.718 33.155 16.719 33.094V33.086C16.7172 33.0575 16.7046 33.0308 16.6838 33.0113C16.663 32.9918 16.6355 32.981 16.607 32.981V32.98ZM17.168 32.98C17.1532 32.9801 17.1386 32.9832 17.125 32.989C17.1114 32.9948 17.099 33.0033 17.0887 33.0139C17.0784 33.0245 17.0703 33.037 17.0648 33.0508C17.0594 33.0645 17.0567 33.0792 17.057 33.094C17.057 33.155 17.107 33.207 17.168 33.207C17.1979 33.2068 17.2265 33.1948 17.2476 33.1736C17.2687 33.1525 17.2807 33.1239 17.281 33.094V33.086C17.2792 33.0574 17.2665 33.0305 17.2454 33.011C17.2244 32.9914 17.1967 32.9807 17.168 32.981V32.98ZM17.731 32.98C17.7161 32.98 17.7014 32.983 17.6876 32.9887C17.6739 32.9945 17.6615 33.0029 17.6511 33.0135C17.6406 33.0241 17.6324 33.0367 17.6269 33.0505C17.6214 33.0644 17.6187 33.0791 17.619 33.094C17.619 33.155 17.669 33.207 17.73 33.207C17.76 33.207 17.7889 33.1951 17.8102 33.174C17.8316 33.1528 17.8437 33.1241 17.844 33.094V33.086C17.8422 33.0572 17.8293 33.0302 17.8081 33.0106C17.7868 32.991 17.7589 32.9804 17.73 32.981L17.731 32.98ZM18.293 32.98C18.2782 32.9801 18.2636 32.9832 18.25 32.989C18.2364 32.9948 18.224 33.0033 18.2137 33.0139C18.2034 33.0245 18.1953 33.037 18.1898 33.0508C18.1844 33.0645 18.1817 33.0792 18.182 33.094C18.182 33.155 18.232 33.207 18.293 33.207C18.3229 33.2068 18.3515 33.1948 18.3726 33.1736C18.3937 33.1525 18.4057 33.1239 18.406 33.094V33.086C18.4042 33.0574 18.3915 33.0305 18.3704 33.011C18.3494 32.9914 18.3217 32.9807 18.293 32.981V32.98ZM18.856 32.98C18.8411 32.98 18.8264 32.983 18.8126 32.9887C18.7989 32.9945 18.7865 33.0029 18.7761 33.0135C18.7656 33.0241 18.7574 33.0367 18.7519 33.0505C18.7464 33.0644 18.7437 33.0791 18.744 33.094C18.744 33.155 18.794 33.207 18.855 33.207C18.917 33.207 18.966 33.155 18.967 33.094V33.074C18.9629 33.0477 18.9494 33.0238 18.9289 33.0067C18.9085 32.9896 18.8826 32.9805 18.856 32.981V32.98ZM19.418 32.98C19.403 32.9799 19.3882 32.9827 19.3743 32.9884C19.3605 32.9941 19.3479 33.0025 19.3374 33.0132C19.3269 33.0238 19.3186 33.0364 19.313 33.0503C19.3074 33.0642 19.3047 33.0791 19.305 33.094C19.305 33.156 19.356 33.208 19.418 33.207C19.479 33.207 19.528 33.155 19.529 33.094V33.086C19.5272 33.0577 19.5148 33.0311 19.4942 33.0116C19.4736 32.9922 19.4463 32.9812 19.418 32.981V32.98ZM19.981 32.98C19.9659 32.9797 19.951 32.9825 19.937 32.9881C19.9231 32.9938 19.9104 33.0022 19.8998 33.0128C19.8891 33.0234 19.8807 33.0361 19.8751 33.0501C19.8695 33.064 19.8667 33.079 19.867 33.094C19.867 33.156 19.919 33.208 19.98 33.207C20.042 33.207 20.091 33.155 20.092 33.094V33.086C20.0902 33.0577 20.0778 33.0311 20.0572 33.0116C20.0366 32.9922 20.0093 32.9812 19.981 32.981V32.98ZM20.543 32.98C20.528 32.9799 20.5132 32.9827 20.4993 32.9884C20.4855 32.9941 20.4729 33.0025 20.4624 33.0132C20.4519 33.0238 20.4436 33.0364 20.438 33.0503C20.4324 33.0642 20.4297 33.0791 20.43 33.094C20.43 33.156 20.481 33.208 20.543 33.207C20.604 33.207 20.653 33.155 20.654 33.094V33.086C20.6522 33.0577 20.6398 33.0311 20.6192 33.0116C20.5986 32.9922 20.5713 32.9812 20.543 32.981V32.98ZM21.106 32.98C21.0909 32.9797 21.076 32.9825 21.062 32.9881C21.0481 32.9938 21.0354 33.0022 21.0248 33.0128C21.0141 33.0234 21.0057 33.0361 21.0001 33.0501C20.9945 33.064 20.9917 33.079 20.992 33.094C20.992 33.156 21.044 33.208 21.105 33.207C21.167 33.207 21.216 33.155 21.217 33.094V33.086C21.2152 33.0577 21.2028 33.0311 21.1822 33.0116C21.1616 32.9922 21.1343 32.9812 21.106 32.981V32.98ZM21.666 32.98C21.6512 32.9801 21.6366 32.9832 21.623 32.989C21.6094 32.9948 21.597 33.0033 21.5867 33.0139C21.5764 33.0245 21.5683 33.037 21.5628 33.0508C21.5574 33.0645 21.5547 33.0792 21.555 33.094C21.555 33.155 21.605 33.207 21.666 33.207C21.6959 33.2068 21.7245 33.1948 21.7456 33.1736C21.7667 33.1525 21.7787 33.1239 21.779 33.094V33.086C21.7772 33.0574 21.7645 33.0305 21.7434 33.011C21.7224 32.9914 21.6947 32.9807 21.666 32.981V32.98ZM22.229 32.98C22.2141 32.98 22.1994 32.983 22.1856 32.9887C22.1719 32.9945 22.1595 33.0029 22.1491 33.0135C22.1386 33.0241 22.1304 33.0367 22.1249 33.0505C22.1194 33.0644 22.1167 33.0791 22.117 33.094C22.117 33.155 22.167 33.207 22.228 33.207C22.258 33.207 22.2869 33.1951 22.3082 33.174C22.3296 33.1528 22.3417 33.1241 22.342 33.094V33.086C22.3402 33.0574 22.3275 33.0305 22.3064 33.011C22.2854 32.9914 22.2577 32.9807 22.229 32.981V32.98ZM22.791 32.98C22.7762 32.9801 22.7616 32.9832 22.748 32.989C22.7344 32.9948 22.722 33.0033 22.7117 33.0139C22.7014 33.0245 22.6933 33.037 22.6878 33.0508C22.6824 33.0645 22.6797 33.0792 22.68 33.094C22.68 33.155 22.73 33.206 22.791 33.207C22.853 33.207 22.904 33.157 22.904 33.094C22.9042 33.0791 22.9015 33.0642 22.8959 33.0503C22.8904 33.0364 22.8821 33.0238 22.8715 33.0132C22.861 33.0025 22.8485 32.9941 22.8346 32.9884C22.8208 32.9827 22.8059 32.9799 22.791 32.98ZM23.354 32.98C23.3391 32.98 23.3244 32.983 23.3106 32.9887C23.2969 32.9945 23.2845 33.0029 23.2741 33.0135C23.2636 33.0241 23.2554 33.0367 23.2499 33.0505C23.2444 33.0644 23.2417 33.0791 23.242 33.094C23.242 33.155 23.292 33.207 23.353 33.207C23.3827 33.2065 23.411 33.1944 23.4319 33.1733C23.4529 33.1522 23.4647 33.1237 23.465 33.094V33.074C23.4607 33.0478 23.4471 33.024 23.4267 33.0069C23.4064 32.9899 23.3805 32.9807 23.354 32.981V32.98ZM23.916 32.98C23.901 32.9799 23.8862 32.9827 23.8723 32.9884C23.8585 32.9941 23.8459 33.0025 23.8354 33.0132C23.8249 33.0238 23.8166 33.0364 23.811 33.0503C23.8054 33.0642 23.8027 33.0791 23.803 33.094C23.803 33.156 23.854 33.208 23.916 33.207C23.977 33.207 24.026 33.155 24.027 33.094V33.074C24.0229 33.0477 24.0094 33.0238 23.9889 33.0067C23.9685 32.9896 23.9426 32.9805 23.916 32.981V32.98ZM24.479 32.98C24.4639 32.9797 24.449 32.9825 24.435 32.9881C24.4211 32.9938 24.4084 33.0022 24.3978 33.0128C24.3871 33.0234 24.3787 33.0361 24.3731 33.0501C24.3675 33.064 24.3647 33.079 24.365 33.094C24.365 33.156 24.417 33.208 24.479 33.207C24.539 33.207 24.589 33.155 24.589 33.094V33.086C24.5872 33.0579 24.5749 33.0315 24.5545 33.012C24.5341 32.9925 24.5072 32.9815 24.479 32.981V32.98ZM25.041 32.98C25.026 32.9799 25.0112 32.9827 24.9973 32.9884C24.9835 32.9941 24.9709 33.0025 24.9604 33.0132C24.9499 33.0238 24.9416 33.0364 24.936 33.0503C24.9304 33.0642 24.9277 33.0791 24.928 33.094C24.928 33.156 24.979 33.208 25.041 33.207C25.102 33.207 25.151 33.155 25.152 33.094V33.086C25.1502 33.0577 25.1378 33.0311 25.1172 33.0116C25.0966 32.9922 25.0693 32.9812 25.041 32.981V32.98ZM25.601 32.98C25.5863 32.9803 25.5718 32.9834 25.5583 32.9893C25.5448 32.9952 25.5326 33.0036 25.5224 33.0142C25.5121 33.0248 25.5041 33.0373 25.4987 33.051C25.4933 33.0647 25.4907 33.0793 25.491 33.094C25.491 33.155 25.541 33.207 25.601 33.207C25.631 33.207 25.6599 33.1951 25.6812 33.174C25.7026 33.1528 25.7147 33.1241 25.715 33.094V33.086C25.7132 33.0574 25.7005 33.0305 25.6794 33.011C25.6584 32.9914 25.6307 32.9807 25.602 32.981L25.601 32.98ZM26.164 32.98C26.1492 32.9801 26.1346 32.9832 26.121 32.989C26.1074 32.9948 26.095 33.0033 26.0847 33.0139C26.0744 33.0245 26.0663 33.037 26.0608 33.0508C26.0554 33.0645 26.0527 33.0792 26.053 33.094C26.053 33.155 26.103 33.207 26.164 33.207C26.1939 33.2068 26.2225 33.1948 26.2436 33.1736C26.2647 33.1525 26.2767 33.1239 26.277 33.094V33.086C26.2752 33.0574 26.2625 33.0305 26.2414 33.011C26.2204 32.9914 26.1927 32.9807 26.164 32.981V32.98ZM26.727 32.98C26.7121 32.98 26.6974 32.983 26.6836 32.9887C26.6699 32.9945 26.6575 33.0029 26.6471 33.0135C26.6366 33.0241 26.6284 33.0367 26.6229 33.0505C26.6174 33.0644 26.6147 33.0791 26.615 33.094C26.615 33.155 26.665 33.207 26.727 33.207C26.7569 33.2068 26.7855 33.1948 26.8066 33.1736C26.8277 33.1525 26.8397 33.1239 26.84 33.094V33.086C26.8382 33.0574 26.8255 33.0305 26.8044 33.011C26.7834 32.9914 26.7557 32.9807 26.727 32.981V32.98ZM27.289 32.98C27.2742 32.9801 27.2596 32.9832 27.246 32.989C27.2324 32.9948 27.22 33.0033 27.2097 33.0139C27.1994 33.0245 27.1913 33.037 27.1858 33.0508C27.1804 33.0645 27.1777 33.0792 27.178 33.094C27.178 33.155 27.228 33.206 27.289 33.207C27.351 33.207 27.402 33.157 27.402 33.094C27.4022 33.0791 27.3995 33.0642 27.3939 33.0503C27.3884 33.0364 27.3801 33.0238 27.3695 33.0132C27.359 33.0025 27.3464 32.9941 27.3326 32.9884C27.3188 32.9827 27.3039 32.9799 27.289 32.98ZM27.852 32.98C27.8371 32.98 27.8224 32.983 27.8086 32.9887C27.7949 32.9945 27.7825 33.0029 27.7721 33.0135C27.7616 33.0241 27.7534 33.0367 27.7479 33.0505C27.7424 33.0644 27.7397 33.0791 27.74 33.094C27.74 33.155 27.79 33.207 27.852 33.207C27.912 33.207 27.962 33.155 27.962 33.094C27.964 33.086 27.964 33.082 27.962 33.074C27.9579 33.0479 27.9445 33.0241 27.9243 33.007C27.9041 32.9899 27.8784 32.9807 27.852 32.981V32.98ZM28.414 32.98C28.399 32.9799 28.3842 32.9827 28.3703 32.9884C28.3565 32.9941 28.3439 33.0025 28.3334 33.0132C28.3229 33.0238 28.3146 33.0364 28.309 33.0503C28.3034 33.0642 28.3007 33.0791 28.301 33.094C28.301 33.156 28.352 33.208 28.414 33.207C28.475 33.207 28.524 33.155 28.525 33.094V33.086C28.5232 33.0579 28.5109 33.0315 28.4905 33.012C28.4701 32.9925 28.4432 32.9815 28.415 32.981L28.414 32.98ZM28.977 32.98C28.9619 32.9797 28.947 32.9825 28.933 32.9881C28.9191 32.9938 28.9064 33.0022 28.8958 33.0128C28.8851 33.0234 28.8767 33.0361 28.8711 33.0501C28.8655 33.064 28.8627 33.079 28.863 33.094C28.863 33.156 28.915 33.208 28.977 33.207C29.037 33.207 29.087 33.155 29.087 33.094V33.086C29.0852 33.0579 29.0729 33.0315 29.0525 33.012C29.0321 32.9925 29.0052 32.9815 28.977 32.981V32.98ZM29.539 32.98C29.524 32.9799 29.5092 32.9827 29.4953 32.9884C29.4815 32.9941 29.4689 33.0025 29.4584 33.0132C29.4479 33.0238 29.4396 33.0364 29.434 33.0503C29.4284 33.0642 29.4257 33.0791 29.426 33.094C29.426 33.156 29.477 33.208 29.539 33.207C29.6 33.207 29.649 33.155 29.65 33.094V33.086C29.6482 33.0579 29.6359 33.0315 29.6155 33.012C29.5951 32.9925 29.5682 32.9815 29.54 32.981L29.539 32.98ZM30.099 32.98C30.0843 32.9803 30.0698 32.9834 30.0563 32.9893C30.0428 32.9952 30.0306 33.0036 30.0204 33.0142C30.0101 33.0248 30.0021 33.0373 29.9967 33.051C29.9913 33.0647 29.9887 33.0793 29.989 33.094C29.989 33.155 30.038 33.207 30.099 33.207C30.129 33.207 30.1579 33.1951 30.1792 33.174C30.2006 33.1528 30.2127 33.1241 30.213 33.094V33.086C30.2112 33.0574 30.1985 33.0305 30.1774 33.011C30.1564 32.9914 30.1287 32.9807 30.1 32.981L30.099 32.98ZM30.662 32.98C30.6472 32.9801 30.6326 32.9832 30.619 32.989C30.6054 32.9948 30.593 33.0033 30.5827 33.0139C30.5724 33.0245 30.5643 33.037 30.5588 33.0508C30.5534 33.0645 30.5507 33.0792 30.551 33.094C30.551 33.155 30.601 33.207 30.662 33.207C30.6919 33.2068 30.7205 33.1948 30.7416 33.1736C30.7627 33.1525 30.7747 33.1239 30.775 33.094V33.086C30.7732 33.0574 30.7605 33.0305 30.7394 33.011C30.7184 32.9914 30.6907 32.9807 30.662 32.981V32.98ZM31.225 32.98C31.2101 32.98 31.1954 32.983 31.1817 32.9887C31.1679 32.9945 31.1555 33.0029 31.1451 33.0135C31.1346 33.0241 31.1264 33.0367 31.1209 33.0505C31.1154 33.0644 31.1127 33.0791 31.113 33.094C31.113 33.155 31.163 33.207 31.225 33.207C31.2549 33.2068 31.2835 33.1948 31.3046 33.1736C31.3257 33.1525 31.3377 33.1239 31.338 33.094V33.086C31.3362 33.0574 31.3235 33.0305 31.3024 33.011C31.2814 32.9914 31.2537 32.9807 31.225 32.981V32.98ZM31.787 32.98C31.7722 32.9801 31.7576 32.9832 31.744 32.989C31.7304 32.9948 31.718 33.0033 31.7077 33.0139C31.6974 33.0245 31.6893 33.037 31.6838 33.0508C31.6784 33.0645 31.6757 33.0792 31.676 33.094C31.676 33.155 31.726 33.207 31.787 33.207C31.848 33.207 31.897 33.155 31.898 33.094V33.074C31.8939 33.0479 31.8805 33.0241 31.8603 33.007C31.8401 32.9899 31.8144 32.9807 31.788 32.981L31.787 32.98ZM32.35 32.98C32.3349 32.9797 32.32 32.9825 32.306 32.9881C32.2921 32.9938 32.2794 33.0022 32.2688 33.0128C32.2581 33.0234 32.2497 33.0361 32.2441 33.0501C32.2385 33.064 32.2357 33.079 32.236 33.094C32.236 33.156 32.288 33.208 32.35 33.207C32.41 33.207 32.46 33.155 32.46 33.094C32.462 33.086 32.462 33.082 32.46 33.074C32.4559 33.0479 32.4425 33.0241 32.4223 33.007C32.4021 32.9899 32.3764 32.9807 32.35 32.981V32.98ZM32.912 32.98C32.897 32.9799 32.8822 32.9827 32.8683 32.9884C32.8545 32.9941 32.8419 33.0025 32.8314 33.0132C32.8209 33.0238 32.8126 33.0364 32.807 33.0503C32.8014 33.0642 32.7987 33.0791 32.799 33.094C32.799 33.156 32.85 33.208 32.912 33.207C32.973 33.207 33.022 33.155 33.023 33.094V33.086C33.0212 33.0579 33.0089 33.0315 32.9885 33.012C32.9681 32.9925 32.9412 32.9815 32.913 32.981L32.912 32.98ZM33.475 32.98C33.4599 32.9797 33.445 32.9825 33.431 32.9881C33.4171 32.9938 33.4044 33.0022 33.3938 33.0128C33.3831 33.0234 33.3747 33.0361 33.3691 33.0501C33.3635 33.064 33.3607 33.079 33.361 33.094C33.361 33.156 33.413 33.208 33.475 33.207C33.5043 33.206 33.5322 33.1937 33.5527 33.1726C33.5732 33.1516 33.5847 33.1234 33.585 33.094V33.086C33.5832 33.0579 33.5709 33.0315 33.5505 33.012C33.5301 32.9925 33.5032 32.9815 33.475 32.981V32.98ZM34.037 32.98C34.022 32.9799 34.0072 32.9827 33.9933 32.9884C33.9795 32.9941 33.9669 33.0025 33.9564 33.0132C33.9459 33.0238 33.9376 33.0364 33.932 33.0503C33.9264 33.0642 33.9237 33.0791 33.924 33.094C33.924 33.156 33.975 33.208 34.037 33.207C34.0665 33.2062 34.0946 33.194 34.1153 33.1729C34.136 33.1519 34.1477 33.1236 34.148 33.094V33.086C34.1462 33.0579 34.1339 33.0315 34.1135 33.012C34.0931 32.9925 34.0662 32.9815 34.038 32.981L34.037 32.98ZM34.597 32.98C34.5823 32.9803 34.5678 32.9834 34.5543 32.9893C34.5408 32.9952 34.5286 33.0036 34.5184 33.0142C34.5081 33.0248 34.5001 33.0373 34.4947 33.051C34.4893 33.0647 34.4867 33.0793 34.487 33.094C34.487 33.155 34.536 33.207 34.597 33.207C34.627 33.207 34.6559 33.1951 34.6772 33.174C34.6986 33.1528 34.7107 33.1241 34.711 33.094V33.086C34.7092 33.0574 34.6965 33.0305 34.6754 33.011C34.6544 32.9914 34.6267 32.9807 34.598 32.981L34.597 32.98ZM19.087 35.215V35.217C18.9626 35.219 18.8398 35.2456 18.7257 35.2952C18.6115 35.3448 18.5083 35.4164 18.422 35.506L16.613 37.363C16.5261 37.4523 16.4578 37.5578 16.4118 37.6736C16.3659 37.7894 16.3433 37.9131 16.3454 38.0376C16.3474 38.1621 16.374 38.285 16.4237 38.3992C16.4734 38.5134 16.5452 38.6167 16.635 38.703C16.724 38.7902 16.8294 38.859 16.9451 38.9052C17.0608 38.9515 17.1845 38.9743 17.3091 38.9725C17.4338 38.9706 17.5568 38.9441 17.671 38.8944C17.7853 38.8447 17.8886 38.7729 17.975 38.683L19.783 36.824C19.8699 36.7348 19.9383 36.6293 19.9844 36.5136C20.0304 36.3979 20.053 36.2742 20.0511 36.1497C20.0491 36.0251 20.0226 35.9022 19.973 35.788C19.9234 35.6737 19.8517 35.5704 19.762 35.484C19.673 35.3968 19.5676 35.328 19.4519 35.2817C19.3363 35.2354 19.2126 35.2124 19.088 35.214L19.087 35.215ZM23.087 35.215V35.217C22.9626 35.219 22.8398 35.2456 22.7257 35.2952C22.6115 35.3448 22.5083 35.4164 22.422 35.506L20.613 37.363C20.5261 37.4523 20.4578 37.5578 20.4118 37.6736C20.3659 37.7894 20.3433 37.9131 20.3454 38.0376C20.3474 38.1621 20.374 38.285 20.4237 38.3992C20.4734 38.5134 20.5452 38.6167 20.635 38.703C20.724 38.7902 20.8294 38.859 20.9451 38.9052C21.0608 38.9515 21.1845 38.9743 21.3091 38.9725C21.4338 38.9706 21.5568 38.9441 21.671 38.8944C21.7853 38.8447 21.8886 38.7729 21.975 38.683L23.783 36.824C23.8699 36.7348 23.9383 36.6293 23.9844 36.5136C24.0304 36.3979 24.053 36.2742 24.0511 36.1497C24.0491 36.0251 24.0226 35.9022 23.973 35.788C23.9234 35.6737 23.8517 35.5704 23.762 35.484C23.673 35.3968 23.5676 35.328 23.4519 35.2817C23.3363 35.2354 23.2126 35.2124 23.088 35.214L23.087 35.215ZM27.087 35.215V35.217C26.9626 35.219 26.8398 35.2456 26.7257 35.2952C26.6115 35.3448 26.5083 35.4164 26.422 35.506L24.613 37.363C24.5261 37.4523 24.4578 37.5578 24.4118 37.6736C24.3659 37.7894 24.3433 37.9131 24.3454 38.0376C24.3474 38.1621 24.374 38.285 24.4237 38.3992C24.4734 38.5134 24.5452 38.6167 24.635 38.703C24.724 38.7902 24.8294 38.859 24.9451 38.9052C25.0608 38.9515 25.1845 38.9743 25.3091 38.9725C25.4338 38.9706 25.5568 38.9441 25.671 38.8944C25.7853 38.8447 25.8886 38.7729 25.975 38.683L27.783 36.824C27.8699 36.7348 27.9383 36.6293 27.9844 36.5136C28.0304 36.3979 28.053 36.2742 28.0511 36.1497C28.0491 36.0251 28.0226 35.9022 27.973 35.788C27.9234 35.6737 27.8517 35.5704 27.762 35.484C27.673 35.3968 27.5676 35.328 27.4519 35.2817C27.3363 35.2354 27.2126 35.2124 27.088 35.214L27.087 35.215ZM31.087 35.215V35.217C30.9626 35.219 30.8398 35.2456 30.7257 35.2952C30.6115 35.3448 30.5083 35.4164 30.422 35.506L28.613 37.363C28.5261 37.4523 28.4578 37.5578 28.4118 37.6736C28.3659 37.7894 28.3433 37.9131 28.3454 38.0376C28.3474 38.1621 28.374 38.285 28.4237 38.3992C28.4734 38.5134 28.5452 38.6167 28.635 38.703C28.724 38.7902 28.8294 38.859 28.9451 38.9052C29.0608 38.9515 29.1845 38.9743 29.3091 38.9725C29.4338 38.9706 29.5568 38.9441 29.671 38.8944C29.7853 38.8447 29.8886 38.7729 29.975 38.683L31.783 36.824C31.8699 36.7348 31.9383 36.6293 31.9844 36.5136C32.0304 36.3979 32.053 36.2742 32.0511 36.1497C32.0491 36.0251 32.0226 35.9022 31.973 35.788C31.9234 35.6737 31.8517 35.5704 31.762 35.484C31.673 35.3968 31.5676 35.328 31.4519 35.2817C31.3363 35.2354 31.2126 35.2124 31.088 35.214L31.087 35.215ZM19.152 35.699C19.2435 35.7073 19.3299 35.7452 19.398 35.807C19.805 36.168 19.324 36.592 19.148 36.775L18.283 37.68C17.676 38.311 17.412 38.738 16.988 38.33C16.628 37.957 16.945 37.734 17.633 37.035L18.498 36.133C18.703 35.932 18.916 35.688 19.152 35.699ZM23.152 35.699C23.2435 35.7073 23.3299 35.7452 23.398 35.807C23.805 36.168 23.324 36.592 23.148 36.775L22.283 37.68C21.676 38.311 21.412 38.738 20.988 38.33C20.628 37.957 20.945 37.734 21.633 37.035L22.498 36.133C22.703 35.932 22.916 35.688 23.152 35.699ZM27.152 35.699C27.2435 35.7073 27.3299 35.7452 27.398 35.807C27.805 36.168 27.324 36.592 27.148 36.775L26.283 37.68C25.676 38.311 25.412 38.738 24.988 38.33C24.628 37.957 24.945 37.734 25.633 37.035L26.498 36.133C26.703 35.932 26.916 35.688 27.152 35.699ZM31.152 35.699C31.2435 35.7073 31.3299 35.7452 31.398 35.807C31.805 36.168 31.324 36.592 31.148 36.775L30.283 37.68C29.676 38.311 29.412 38.738 28.988 38.33C28.628 37.957 28.945 37.734 29.633 37.035L30.498 36.133C30.703 35.932 30.916 35.688 31.152 35.699Z" fill="#333333"/>
</svg>
