<svg width="48" height="48" viewBox="0 0 48 48" fill="none" xmlns="http://www.w3.org/2000/svg">
<path fill-rule="evenodd" clip-rule="evenodd" d="M0 0V48H48V0H0ZM23.828 3.99C27.119 3.983 30.467 3.981 33.852 4.012C34.721 4.012 35.42 4.71 35.42 5.58V42.441C35.42 43.311 34.721 44.011 33.852 44.011H14.147C13.277 44.011 12.58 43.311 12.58 42.441V5.58C12.58 4.71 13.277 4.012 14.146 4.014C17.302 4.014 20.537 3.998 23.828 3.99ZM19.992 5.054C19.9635 5.05625 19.9369 5.06912 19.9175 5.09004C19.898 5.11097 19.8872 5.13843 19.887 5.167C19.887 5.1967 19.8988 5.22519 19.9198 5.2462C19.9408 5.2672 19.9693 5.279 19.999 5.279C20.0287 5.279 20.0572 5.2672 20.0782 5.2462C20.0992 5.22519 20.111 5.1967 20.111 5.167C20.1109 5.15168 20.1077 5.13655 20.1016 5.1225C20.0955 5.10845 20.0866 5.09577 20.0755 5.08522C20.0644 5.07468 20.0513 5.06647 20.0369 5.06111C20.0226 5.05575 20.0073 5.05333 19.992 5.054ZM27.992 5.054C27.9635 5.05625 27.9369 5.06912 27.9175 5.09004C27.898 5.11097 27.8872 5.13843 27.887 5.167C27.887 5.1967 27.8988 5.22519 27.9198 5.2462C27.9408 5.2672 27.9693 5.279 27.999 5.279C28.0287 5.279 28.0572 5.2672 28.0782 5.2462C28.0992 5.22519 28.111 5.1967 28.111 5.167C28.1109 5.15168 28.1077 5.13655 28.1016 5.1225C28.0955 5.10845 28.0866 5.09577 28.0755 5.08522C28.0644 5.07468 28.0513 5.06647 28.0369 5.06111C28.0226 5.05575 28.0073 5.05333 27.992 5.054ZM19.992 5.616C19.9635 5.61826 19.9369 5.63112 19.9175 5.65204C19.898 5.67297 19.8872 5.70043 19.887 5.729C19.887 5.7587 19.8988 5.78719 19.9198 5.8082C19.9408 5.8292 19.9693 5.841 19.999 5.841C20.0287 5.841 20.0572 5.8292 20.0782 5.8082C20.0992 5.78719 20.111 5.7587 20.111 5.729C20.1109 5.71368 20.1077 5.69855 20.1016 5.6845C20.0955 5.67045 20.0866 5.65777 20.0755 5.64722C20.0644 5.63668 20.0513 5.62847 20.0369 5.62311C20.0226 5.61775 20.0073 5.61533 19.992 5.616ZM27.992 5.616C27.9635 5.61826 27.9369 5.63112 27.9175 5.65204C27.898 5.67297 27.8872 5.70043 27.887 5.729C27.887 5.7587 27.8988 5.78719 27.9198 5.8082C27.9408 5.8292 27.9693 5.841 27.999 5.841C28.0287 5.841 28.0572 5.8292 28.0782 5.8082C28.0992 5.78719 28.111 5.7587 28.111 5.729C28.1109 5.71368 28.1077 5.69855 28.1016 5.6845C28.0955 5.67045 28.0866 5.65777 28.0755 5.64722C28.0644 5.63668 28.0513 5.62847 28.0369 5.62311C28.0226 5.61775 28.0073 5.61533 27.992 5.616ZM24.978 5.952V5.954C24.8534 5.95607 24.7304 5.98276 24.6161 6.03253C24.5018 6.0823 24.3984 6.15416 24.312 6.244L22.504 8.1C22.3449 8.2828 22.2618 8.5196 22.2718 8.76175C22.2819 9.0039 22.3843 9.23301 22.558 9.402C22.7317 9.57099 22.9636 9.66703 23.2059 9.67038C23.4483 9.67372 23.6827 9.58413 23.861 9.42L25.67 7.561C25.7571 7.472 25.8258 7.36666 25.8721 7.25104C25.9183 7.13542 25.9413 7.01179 25.9396 6.88726C25.9379 6.76273 25.9117 6.63976 25.8623 6.52542C25.8129 6.41108 25.7415 6.30762 25.652 6.221C25.5629 6.13396 25.4575 6.06539 25.3419 6.01922C25.2262 5.97306 25.1025 5.95021 24.978 5.952ZM19.982 6.181C19.9557 6.18462 19.9315 6.19766 19.9141 6.2177C19.8966 6.23774 19.887 6.26342 19.887 6.29C19.887 6.352 19.937 6.404 20 6.403C20.061 6.403 20.11 6.352 20.111 6.29C20.111 6.27547 20.1081 6.26108 20.1025 6.24767C20.0969 6.23426 20.0887 6.22209 20.0784 6.21186C20.0681 6.20163 20.0559 6.19355 20.0424 6.18808C20.0289 6.18262 20.0145 6.17987 20 6.18H19.982V6.181ZM27.982 6.181C27.9557 6.18462 27.9315 6.19766 27.9141 6.2177C27.8966 6.23774 27.887 6.26342 27.887 6.29C27.887 6.352 27.937 6.404 28 6.403C28.061 6.403 28.11 6.352 28.111 6.29C28.111 6.27547 28.1081 6.26108 28.1025 6.24767C28.0969 6.23426 28.0887 6.22209 28.0784 6.21186C28.0681 6.20163 28.0559 6.19355 28.0424 6.18808C28.0289 6.18262 28.0145 6.17987 28 6.18H27.982V6.181ZM20.002 6.741C19.9863 6.73952 19.9705 6.74133 19.9556 6.74631C19.9407 6.75129 19.927 6.75934 19.9153 6.76993C19.9037 6.78052 19.8944 6.79342 19.888 6.80781C19.8817 6.8222 19.8784 6.83777 19.8784 6.8535C19.8784 6.86923 19.8817 6.8848 19.888 6.89919C19.8944 6.91358 19.9037 6.92648 19.9153 6.93707C19.927 6.94766 19.9407 6.95571 19.9556 6.96069C19.9705 6.96567 19.9863 6.96748 20.002 6.966C20.0318 6.966 20.0605 6.95415 20.0815 6.93305C20.1026 6.91195 20.1145 6.88334 20.1145 6.8535C20.1145 6.82366 20.1026 6.79505 20.0815 6.77395C20.0605 6.75285 20.0318 6.741 20.002 6.741ZM28.002 6.741C27.9863 6.73952 27.9705 6.74133 27.9556 6.74631C27.9407 6.75129 27.927 6.75934 27.9153 6.76993C27.9037 6.78052 27.8944 6.79342 27.888 6.80781C27.8817 6.8222 27.8784 6.83777 27.8784 6.8535C27.8784 6.86923 27.8817 6.8848 27.888 6.89919C27.8944 6.91358 27.9037 6.92648 27.9153 6.93707C27.927 6.94766 27.9407 6.95571 27.9556 6.96069C27.9705 6.96567 27.9863 6.96748 28.002 6.966C28.0318 6.966 28.0605 6.95415 28.0815 6.93305C28.1026 6.91195 28.1145 6.88334 28.1145 6.8535C28.1145 6.82366 28.1026 6.79505 28.0815 6.77395C28.0605 6.75285 28.0318 6.741 28.002 6.741ZM19.992 7.304C19.9773 7.30492 19.9629 7.30873 19.9497 7.3152C19.9364 7.32168 19.9246 7.3307 19.9149 7.34175C19.9051 7.3528 19.8976 7.36567 19.8928 7.37961C19.8881 7.39355 19.8861 7.40829 19.887 7.423C19.8879 7.43771 19.8917 7.45209 19.8982 7.46533C19.9047 7.47856 19.9137 7.4904 19.9248 7.50015C19.9358 7.5099 19.9487 7.51737 19.9626 7.52215C19.9765 7.52693 19.9913 7.52892 20.006 7.528C20.0357 7.52614 20.0635 7.51256 20.0831 7.49025C20.1028 7.46793 20.1129 7.4387 20.111 7.409C20.1091 7.3793 20.0956 7.35155 20.0732 7.33185C20.0509 7.31216 20.0217 7.30214 19.992 7.304ZM27.992 7.304C27.9773 7.30492 27.9629 7.30873 27.9497 7.3152C27.9364 7.32168 27.9246 7.3307 27.9149 7.34175C27.9051 7.3528 27.8976 7.36567 27.8928 7.37961C27.8881 7.39355 27.8861 7.40829 27.887 7.423C27.8879 7.43771 27.8917 7.45209 27.8982 7.46533C27.9047 7.47856 27.9137 7.4904 27.9248 7.50015C27.9358 7.5099 27.9487 7.51737 27.9626 7.52215C27.9765 7.52693 27.9913 7.52892 28.006 7.528C28.0357 7.52614 28.0635 7.51256 28.0831 7.49025C28.1028 7.46793 28.1129 7.4387 28.111 7.409C28.1091 7.3793 28.0956 7.35155 28.0732 7.33185C28.0509 7.31216 28.0217 7.30214 27.992 7.304ZM19.992 7.864C19.9773 7.86492 19.9629 7.86873 19.9497 7.8752C19.9364 7.88168 19.9246 7.8907 19.9149 7.90175C19.9051 7.9128 19.8976 7.92567 19.8928 7.93961C19.8881 7.95355 19.8861 7.96829 19.887 7.983C19.8879 7.99771 19.8917 8.01209 19.8982 8.02533C19.9047 8.03856 19.9137 8.0504 19.9248 8.06015C19.9358 8.0699 19.9487 8.07737 19.9626 8.08215C19.9765 8.08693 19.9913 8.08892 20.006 8.088C20.0357 8.08614 20.0635 8.07256 20.0831 8.05025C20.1028 8.02793 20.1129 7.9987 20.111 7.969C20.1091 7.9393 20.0956 7.91155 20.0732 7.89185C20.0509 7.87216 20.0217 7.86214 19.992 7.864ZM27.992 7.864C27.9773 7.86492 27.9629 7.86873 27.9497 7.8752C27.9364 7.88168 27.9246 7.8907 27.9149 7.90175C27.9051 7.9128 27.8976 7.92567 27.8928 7.93961C27.8881 7.95355 27.8861 7.96829 27.887 7.983C27.8879 7.99771 27.8917 8.01209 27.8982 8.02533C27.9047 8.03856 27.9137 8.0504 27.9248 8.06015C27.9358 8.0699 27.9487 8.07737 27.9626 8.08215C27.9765 8.08693 27.9913 8.08892 28.006 8.088C28.0357 8.08614 28.0635 8.07256 28.0831 8.05025C28.1028 8.02793 28.1129 7.9987 28.111 7.969C28.1091 7.9393 28.0956 7.91155 28.0732 7.89185C28.0509 7.87216 28.0217 7.86214 27.992 7.864ZM19.992 8.427C19.9773 8.42792 19.9629 8.43173 19.9497 8.4382C19.9364 8.44468 19.9246 8.4537 19.9149 8.46475C19.9051 8.4758 19.8976 8.48867 19.8928 8.50261C19.8881 8.51655 19.8861 8.53129 19.887 8.546C19.8879 8.56071 19.8917 8.57509 19.8982 8.58833C19.9047 8.60157 19.9137 8.6134 19.9248 8.62315C19.9358 8.6329 19.9487 8.64038 19.9626 8.64515C19.9765 8.64993 19.9913 8.65192 20.006 8.651C20.0357 8.64914 20.0635 8.63556 20.0831 8.61325C20.1028 8.59093 20.1129 8.5617 20.111 8.532C20.1091 8.5023 20.0956 8.47455 20.0732 8.45485C20.0509 8.43516 20.0217 8.42514 19.992 8.427ZM27.992 8.427C27.9773 8.42792 27.9629 8.43173 27.9497 8.4382C27.9364 8.44468 27.9246 8.4537 27.9149 8.46475C27.9051 8.4758 27.8976 8.48867 27.8928 8.50261C27.8881 8.51655 27.8861 8.53129 27.887 8.546C27.8879 8.56071 27.8917 8.57509 27.8982 8.58833C27.9047 8.60157 27.9137 8.6134 27.9248 8.62315C27.9358 8.6329 27.9487 8.64038 27.9626 8.64515C27.9765 8.64993 27.9913 8.65192 28.006 8.651C28.0357 8.64914 28.0635 8.63556 28.0831 8.61325C28.1028 8.59093 28.1129 8.5617 28.111 8.532C28.1091 8.5023 28.0956 8.47455 28.0732 8.45485C28.0509 8.43516 28.0217 8.42514 27.992 8.427ZM19.992 8.989C19.9765 8.98887 19.9611 8.99193 19.9468 8.998C19.9326 9.00406 19.9197 9.013 19.909 9.02426C19.8983 9.03552 19.8901 9.04886 19.8848 9.06344C19.8795 9.07802 19.8773 9.09353 19.8782 9.10901C19.8792 9.1245 19.8834 9.13961 19.8904 9.15343C19.8975 9.16724 19.9073 9.17945 19.9193 9.1893C19.9313 9.19915 19.9452 9.20642 19.9601 9.21067C19.975 9.21492 19.9906 9.21606 20.006 9.214C20.0343 9.21021 20.0602 9.19583 20.0783 9.17374C20.0965 9.15166 20.1056 9.12351 20.1038 9.09498C20.102 9.06645 20.0895 9.03965 20.0688 9.01998C20.048 9.00032 20.0206 8.98925 19.992 8.989ZM27.992 8.989C27.9765 8.98887 27.9611 8.99193 27.9468 8.998C27.9326 9.00406 27.9197 9.013 27.909 9.02426C27.8983 9.03552 27.8901 9.04886 27.8848 9.06344C27.8795 9.07802 27.8773 9.09353 27.8782 9.10901C27.8792 9.1245 27.8834 9.13961 27.8904 9.15343C27.8975 9.16724 27.9073 9.17945 27.9193 9.1893C27.9313 9.19915 27.9452 9.20642 27.9601 9.21067C27.975 9.21492 27.9906 9.21606 28.006 9.214C28.0343 9.21021 28.0602 9.19583 28.0783 9.17374C28.0965 9.15166 28.1056 9.12351 28.1038 9.09498C28.102 9.06645 28.0895 9.03965 28.0688 9.01998C28.048 9.00032 28.0206 8.98925 27.992 8.989ZM19.992 9.552C19.9773 9.55292 19.9629 9.55673 19.9497 9.5632C19.9364 9.56968 19.9246 9.5787 19.9149 9.58975C19.9051 9.6008 19.8976 9.61367 19.8928 9.62761C19.8881 9.64155 19.8861 9.65629 19.887 9.671C19.8879 9.68571 19.8917 9.70009 19.8982 9.71333C19.9047 9.72657 19.9137 9.7384 19.9248 9.74815C19.9358 9.7579 19.9487 9.76538 19.9626 9.77015C19.9765 9.77493 19.9913 9.77692 20.006 9.776C20.0357 9.77414 20.0635 9.76056 20.0831 9.73825C20.1028 9.71593 20.1129 9.6867 20.111 9.657C20.1091 9.6273 20.0956 9.59955 20.0732 9.57985C20.0509 9.56016 20.0217 9.55014 19.992 9.552ZM27.992 9.552C27.9773 9.55292 27.9629 9.55673 27.9497 9.5632C27.9364 9.56968 27.9246 9.5787 27.9149 9.58975C27.9051 9.6008 27.8976 9.61367 27.8928 9.62761C27.8881 9.64155 27.8861 9.65629 27.887 9.671C27.8879 9.68571 27.8917 9.70009 27.8982 9.71333C27.9047 9.72657 27.9137 9.7384 27.9248 9.74815C27.9358 9.7579 27.9487 9.76538 27.9626 9.77015C27.9765 9.77493 27.9913 9.77692 28.006 9.776C28.0357 9.77414 28.0635 9.76056 28.0831 9.73825C28.1028 9.71593 28.1129 9.6867 28.111 9.657C28.1091 9.6273 28.0956 9.59955 28.0732 9.57985C28.0509 9.56016 28.0217 9.55014 27.992 9.552ZM19.98 10.114C19.9536 10.1187 19.9298 10.1327 19.9127 10.1534C19.8957 10.1741 19.8866 10.2002 19.887 10.227C19.887 10.2567 19.8988 10.2852 19.9198 10.3062C19.9408 10.3272 19.9693 10.339 19.999 10.339C20.0287 10.339 20.0572 10.3272 20.0782 10.3062C20.0992 10.2852 20.111 10.2567 20.111 10.227C20.1108 10.1975 20.099 10.1692 20.0783 10.1481C20.0576 10.127 20.0295 10.1148 20 10.114H19.98ZM27.98 10.114C27.9536 10.1187 27.9298 10.1327 27.9127 10.1534C27.8957 10.1741 27.8866 10.2002 27.887 10.227C27.887 10.2567 27.8988 10.2852 27.9198 10.3062C27.9408 10.3272 27.9693 10.339 27.999 10.339C28.0287 10.339 28.0572 10.3272 28.0782 10.3062C28.0992 10.2852 28.111 10.2567 28.111 10.227C28.1108 10.1975 28.099 10.1692 28.0783 10.1481C28.0576 10.127 28.0295 10.1148 28 10.114H27.98ZM20.002 10.674C19.9869 10.6741 19.9721 10.6772 19.9582 10.6832C19.9444 10.6891 19.9318 10.6977 19.9213 10.7084C19.9108 10.7192 19.9026 10.732 19.897 10.746C19.8915 10.76 19.8887 10.7749 19.889 10.79C19.889 10.852 19.939 10.9 20.002 10.9C20.0165 10.9001 20.0309 10.8974 20.0444 10.8919C20.0579 10.8864 20.0701 10.8784 20.0804 10.8681C20.0907 10.8579 20.0989 10.8457 20.1045 10.8323C20.1101 10.8189 20.113 10.8045 20.113 10.79C20.1133 10.7601 20.1018 10.7313 20.081 10.7098C20.0603 10.6883 20.0319 10.6758 20.002 10.675V10.674ZM28.002 10.674C27.9869 10.6741 27.9721 10.6772 27.9582 10.6832C27.9444 10.6891 27.9318 10.6977 27.9213 10.7084C27.9108 10.7192 27.9026 10.732 27.897 10.746C27.8915 10.76 27.8887 10.7749 27.889 10.79C27.889 10.852 27.939 10.9 28.002 10.9C28.0165 10.9001 28.0309 10.8974 28.0444 10.8919C28.0579 10.8864 28.0701 10.8784 28.0804 10.8681C28.0907 10.8579 28.0989 10.8457 28.1045 10.8323C28.1101 10.8189 28.113 10.8045 28.113 10.79C28.1133 10.7601 28.1018 10.7313 28.081 10.7098C28.0603 10.6883 28.0319 10.6758 28.002 10.675V10.674ZM24.979 11.214C24.8544 11.2159 24.7315 11.2425 24.6172 11.2921C24.5029 11.3417 24.3995 11.4133 24.313 11.503L22.503 13.36C22.3392 13.5421 22.2522 13.7805 22.2603 14.0252C22.2684 14.27 22.3709 14.5021 22.5463 14.673C22.7217 14.8439 22.9564 14.9403 23.2013 14.942C23.4462 14.9437 23.6823 14.8505 23.86 14.682L25.67 12.823C25.8024 12.6894 25.892 12.5192 25.9271 12.3344C25.9623 12.1496 25.9415 11.9585 25.8674 11.7856C25.7932 11.6126 25.6692 11.4658 25.5111 11.3638C25.353 11.2618 25.1681 11.2093 24.98 11.213H24.978L24.979 11.214ZM20.002 11.235C19.9871 11.235 19.9723 11.238 19.9585 11.2437C19.9447 11.2494 19.9322 11.2579 19.9217 11.2684C19.9112 11.279 19.9029 11.2916 19.8973 11.3055C19.8917 11.3193 19.8889 11.3341 19.889 11.349C19.889 11.411 19.939 11.461 20.002 11.459C20.063 11.459 20.112 11.409 20.113 11.349C20.1133 11.3342 20.1106 11.3195 20.1051 11.3058C20.0997 11.292 20.0916 11.2795 20.0813 11.2689C20.0709 11.2583 20.0586 11.2498 20.045 11.244C20.0314 11.2382 20.0168 11.2351 20.002 11.235ZM28.002 11.235C27.9871 11.235 27.9723 11.238 27.9585 11.2437C27.9447 11.2494 27.9322 11.2579 27.9217 11.2684C27.9112 11.279 27.9029 11.2916 27.8973 11.3055C27.8917 11.3193 27.8889 11.3341 27.889 11.349C27.889 11.411 27.939 11.461 28.002 11.459C28.063 11.459 28.112 11.409 28.113 11.349C28.1133 11.3342 28.1106 11.3195 28.1051 11.3058C28.0997 11.292 28.0916 11.2795 28.0813 11.2689C28.0709 11.2583 28.0586 11.2498 28.045 11.244C28.0314 11.2382 28.0168 11.2351 28.002 11.235ZM17.532 11.45V11.452C17.4072 11.4539 17.284 11.4806 17.1695 11.5303C17.055 11.5801 16.9515 11.652 16.865 11.742L15.057 13.599C14.9703 13.6882 14.9021 13.7935 14.8561 13.9091C14.8102 14.0246 14.7874 14.1481 14.7892 14.2724C14.7909 14.3968 14.8172 14.5195 14.8664 14.6337C14.9156 14.7479 14.9868 14.8513 15.076 14.938C15.1652 15.0247 15.2705 15.0929 15.3861 15.1389C15.5016 15.1848 15.6251 15.2076 15.7494 15.2058C15.8738 15.2041 15.9965 15.1778 16.1107 15.1286C16.2249 15.0794 16.3283 15.0082 16.415 14.919L18.223 13.059C18.3101 12.97 18.3788 12.8647 18.4251 12.749C18.4713 12.6334 18.4943 12.5098 18.4926 12.3853C18.4909 12.2607 18.4647 12.1378 18.4153 12.0234C18.3659 11.9091 18.2945 11.8056 18.205 11.719C18.1159 11.632 18.0105 11.5634 17.8949 11.5172C17.7792 11.4711 17.6555 11.4482 17.531 11.45H17.532ZM32.25 11.45V11.452C32.1254 11.4541 32.0023 11.4808 31.8881 11.5305C31.7738 11.5803 31.6704 11.6522 31.584 11.742L29.775 13.599C29.6 13.7789 29.5036 14.0211 29.507 14.2721C29.5105 14.5231 29.6136 14.7625 29.7935 14.9375C29.9734 15.1125 30.2156 15.2089 30.4666 15.2055C30.7176 15.202 30.957 15.099 31.132 14.919L32.942 13.059C33.0291 12.97 33.0978 12.8647 33.1441 12.749C33.1903 12.6334 33.2133 12.5098 33.2116 12.3853C33.2099 12.2607 33.1837 12.1378 33.1343 12.0234C33.0849 11.9091 33.0135 11.8056 32.924 11.719C32.8349 11.632 32.7295 11.5634 32.6138 11.5172C32.4982 11.4711 32.3745 11.4482 32.25 11.45ZM19.992 11.798C19.9637 11.8015 19.9377 11.8154 19.9192 11.8371C19.9007 11.8588 19.8909 11.8867 19.892 11.9152C19.893 11.9437 19.9046 11.9708 19.9246 11.9911C19.9446 12.0114 19.9715 12.0235 20 12.025C20.061 12.023 20.11 11.972 20.111 11.911C20.1112 11.8956 20.1082 11.8803 20.1022 11.8661C20.0962 11.852 20.0873 11.8392 20.0761 11.8286C20.065 11.818 20.0517 11.8098 20.0373 11.8045C20.0228 11.7993 20.0074 11.797 19.992 11.798ZM27.992 11.798C27.9637 11.8015 27.9377 11.8154 27.9192 11.8371C27.9007 11.8588 27.8909 11.8867 27.892 11.9152C27.893 11.9437 27.9046 11.9708 27.9246 11.9911C27.9446 12.0114 27.9715 12.0235 28 12.025C28.061 12.023 28.11 11.972 28.111 11.911C28.1112 11.8956 28.1082 11.8803 28.1022 11.8661C28.0962 11.852 28.0873 11.8392 28.0761 11.8286C28.065 11.818 28.0517 11.8098 28.0373 11.8045C28.0228 11.7993 28.0074 11.797 27.992 11.798ZM19.992 12.36C19.9637 12.3635 19.9377 12.3774 19.9192 12.3991C19.9007 12.4208 19.8909 12.4487 19.892 12.4772C19.893 12.5057 19.9046 12.5328 19.9246 12.5531C19.9446 12.5734 19.9715 12.5855 20 12.587C20.061 12.586 20.11 12.535 20.111 12.474C20.1113 12.4592 20.1086 12.4445 20.1031 12.4308C20.0977 12.417 20.0896 12.4045 20.0793 12.3939C20.0689 12.3833 20.0566 12.3748 20.043 12.369C20.0294 12.3632 20.0148 12.3601 20 12.36H19.992ZM27.992 12.36C27.9637 12.3635 27.9377 12.3774 27.9192 12.3991C27.9007 12.4208 27.8909 12.4487 27.892 12.4772C27.893 12.5057 27.9046 12.5328 27.9246 12.5531C27.9446 12.5734 27.9715 12.5855 28 12.587C28.061 12.586 28.11 12.535 28.111 12.474C28.1113 12.4592 28.1086 12.4445 28.1031 12.4308C28.0977 12.417 28.0896 12.4045 28.0793 12.3939C28.0689 12.3833 28.0566 12.3748 28.043 12.369C28.0294 12.3632 28.0148 12.3601 28 12.36H27.992ZM19.992 12.923C19.9627 12.924 19.9349 12.9366 19.9147 12.9579C19.8945 12.9792 19.8835 13.0076 19.884 13.0369C19.8845 13.0663 19.8966 13.0943 19.9175 13.1148C19.9385 13.1354 19.9666 13.1469 19.996 13.1469C20.0254 13.1469 20.0535 13.1354 20.0745 13.1148C20.0954 13.0943 20.1075 13.0663 20.108 13.0369C20.1085 13.0076 20.0975 12.9792 20.0773 12.9579C20.0571 12.9366 20.0293 12.924 20 12.923H19.992ZM27.992 12.923C27.9627 12.924 27.9349 12.9366 27.9147 12.9579C27.8945 12.9792 27.8835 13.0076 27.884 13.0369C27.8845 13.0663 27.8966 13.0943 27.9175 13.1148C27.9385 13.1354 27.9666 13.1469 27.996 13.1469C28.0254 13.1469 28.0535 13.1354 28.0745 13.1148C28.0954 13.0943 28.1075 13.0663 28.108 13.0369C28.1085 13.0076 28.0975 12.9792 28.0773 12.9579C28.0571 12.9366 28.0293 12.924 28 12.923H27.992ZM19.992 13.485C19.9624 13.486 19.9344 13.4987 19.914 13.5202C19.8936 13.5417 19.8825 13.5703 19.883 13.5999C19.8835 13.6295 19.8957 13.6578 19.9168 13.6785C19.9379 13.6993 19.9664 13.7109 19.996 13.7109C20.0256 13.7109 20.0541 13.6993 20.0752 13.6785C20.0963 13.6578 20.1085 13.6295 20.109 13.5999C20.1095 13.5703 20.0984 13.5417 20.078 13.5202C20.0576 13.4987 20.0296 13.486 20 13.485H19.992ZM27.992 13.485C27.9624 13.486 27.9344 13.4987 27.914 13.5202C27.8936 13.5417 27.8825 13.5703 27.883 13.5999C27.8835 13.6295 27.8957 13.6578 27.9168 13.6785C27.9379 13.6993 27.9664 13.7109 27.996 13.7109C28.0256 13.7109 28.0541 13.6993 28.0752 13.6785C28.0963 13.6578 28.1085 13.6295 28.109 13.5999C28.1095 13.5703 28.0984 13.5417 28.078 13.5202C28.0576 13.4987 28.0296 13.486 28 13.485H27.992ZM19.992 14.048C19.9761 14.0471 19.9601 14.0496 19.9452 14.0553C19.9303 14.0611 19.9168 14.0699 19.9056 14.0812C19.8943 14.0925 19.8856 14.1061 19.88 14.1211C19.8744 14.136 19.872 14.1519 19.873 14.1679C19.874 14.1838 19.8783 14.1993 19.8858 14.2135C19.8932 14.2276 19.9035 14.24 19.9161 14.2498C19.9287 14.2596 19.9432 14.2667 19.9587 14.2705C19.9742 14.2744 19.9903 14.2749 20.006 14.272C20.0332 14.267 20.0577 14.2523 20.0747 14.2305C20.0918 14.2087 20.1003 14.1814 20.0985 14.1538C20.0968 14.1262 20.085 14.1001 20.0654 14.0806C20.0457 14.0611 20.0196 14.0495 19.992 14.048ZM27.992 14.048C27.9761 14.0471 27.9601 14.0496 27.9452 14.0553C27.9303 14.0611 27.9168 14.0699 27.9056 14.0812C27.8943 14.0925 27.8856 14.1061 27.88 14.1211C27.8744 14.136 27.872 14.1519 27.873 14.1679C27.874 14.1838 27.8783 14.1993 27.8858 14.2135C27.8932 14.2276 27.9035 14.24 27.9161 14.2498C27.9287 14.2596 27.9432 14.2667 27.9587 14.2705C27.9742 14.2744 27.9903 14.2749 28.006 14.272C28.0332 14.267 28.0577 14.2523 28.0747 14.2305C28.0918 14.2087 28.1003 14.1814 28.0985 14.1538C28.0968 14.1262 28.085 14.1001 28.0654 14.0806C28.0457 14.0611 28.0196 14.0495 27.992 14.048ZM19.98 14.61C19.9536 14.6143 19.9297 14.628 19.9126 14.6486C19.8955 14.6692 19.8864 14.6953 19.887 14.722C19.887 14.7441 19.8935 14.7657 19.9058 14.7841C19.9181 14.8025 19.9355 14.8169 19.9559 14.8254C19.9763 14.8339 19.9988 14.8362 20.0205 14.8319C20.0422 14.8277 20.0621 14.8171 20.0778 14.8015C20.0935 14.786 20.1043 14.7661 20.1087 14.7445C20.1132 14.7228 20.1111 14.7003 20.1028 14.6798C20.0944 14.6593 20.0802 14.6418 20.0619 14.6294C20.0437 14.6169 20.0221 14.6102 20 14.61H19.98ZM27.98 14.61C27.9536 14.6143 27.9297 14.628 27.9126 14.6486C27.8955 14.6692 27.8864 14.6953 27.887 14.722C27.887 14.7441 27.8935 14.7657 27.9058 14.7841C27.9181 14.8025 27.9355 14.8169 27.9559 14.8254C27.9763 14.8339 27.9988 14.8362 28.0205 14.8319C28.0422 14.8277 28.0621 14.8171 28.0778 14.8015C28.0935 14.786 28.1043 14.7661 28.1087 14.7445C28.1132 14.7228 28.1111 14.7003 28.1028 14.6798C28.0944 14.6593 28.0802 14.6418 28.0619 14.6294C28.0437 14.6169 28.0221 14.6102 28 14.61H27.98ZM19.98 15.173C19.9589 15.1764 19.9393 15.1858 19.9233 15.2001C19.9074 15.2143 19.8959 15.2328 19.8901 15.2534C19.8844 15.274 19.8846 15.2957 19.8909 15.3162C19.8971 15.3366 19.909 15.3548 19.9253 15.3687C19.9415 15.3826 19.9614 15.3915 19.9826 15.3945C20.0037 15.3974 20.0253 15.3943 20.0447 15.3853C20.0641 15.3764 20.0806 15.3622 20.0921 15.3442C20.1037 15.3263 20.1099 15.3054 20.11 15.284C20.11 15.223 20.061 15.174 20 15.173H19.98ZM27.98 15.173C27.9589 15.1764 27.9393 15.1858 27.9233 15.2001C27.9074 15.2143 27.8959 15.2328 27.8901 15.2534C27.8844 15.274 27.8846 15.2957 27.8909 15.3162C27.8971 15.3366 27.909 15.3548 27.9253 15.3687C27.9415 15.3826 27.9614 15.3915 27.9826 15.3945C28.0037 15.3974 28.0253 15.3943 28.0447 15.3853C28.0641 15.3764 28.0806 15.3622 28.0921 15.3442C28.1037 15.3263 28.1099 15.3054 28.11 15.284C28.11 15.223 28.061 15.174 28 15.173H27.98ZM20.002 15.733C19.9863 15.7315 19.9705 15.7333 19.9556 15.7383C19.9407 15.7433 19.927 15.7513 19.9153 15.7619C19.9037 15.7725 19.8944 15.7854 19.888 15.7998C19.8817 15.8142 19.8784 15.8298 19.8784 15.8455C19.8784 15.8612 19.8817 15.8768 19.888 15.8912C19.8944 15.9056 19.9037 15.9185 19.9153 15.9291C19.927 15.9397 19.9407 15.9477 19.9556 15.9527C19.9705 15.9577 19.9863 15.9595 20.002 15.958C20.0318 15.958 20.0605 15.9461 20.0815 15.925C20.1026 15.904 20.1145 15.8753 20.1145 15.8455C20.1145 15.8157 20.1026 15.787 20.0815 15.766C20.0605 15.7449 20.0318 15.733 20.002 15.733ZM28.002 15.733C27.9863 15.7315 27.9705 15.7333 27.9556 15.7383C27.9407 15.7433 27.927 15.7513 27.9153 15.7619C27.9037 15.7725 27.8944 15.7854 27.888 15.7998C27.8817 15.8142 27.8784 15.8298 27.8784 15.8455C27.8784 15.8612 27.8817 15.8768 27.888 15.8912C27.8944 15.9056 27.9037 15.9185 27.9153 15.9291C27.927 15.9397 27.9407 15.9477 27.9556 15.9527C27.9705 15.9577 27.9863 15.9595 28.002 15.958C28.0318 15.958 28.0605 15.9461 28.0815 15.925C28.1026 15.904 28.1145 15.8753 28.1145 15.8455C28.1145 15.8157 28.1026 15.787 28.0815 15.766C28.0605 15.7449 28.0318 15.733 28.002 15.733ZM19.992 16.296C19.9634 16.2978 19.9365 16.3105 19.9169 16.3315C19.8974 16.3526 19.8867 16.3803 19.887 16.409C19.887 16.471 19.937 16.521 20 16.52C20.061 16.52 20.11 16.47 20.111 16.41C20.1113 16.3945 20.1084 16.3791 20.1025 16.3648C20.0965 16.3505 20.0877 16.3376 20.0765 16.3269C20.0653 16.3162 20.052 16.3079 20.0375 16.3026C20.0229 16.2973 20.0075 16.295 19.992 16.296ZM27.992 16.296C27.9634 16.2978 27.9365 16.3105 27.9169 16.3315C27.8974 16.3526 27.8867 16.3803 27.887 16.409C27.887 16.471 27.937 16.521 28 16.52C28.061 16.52 28.11 16.47 28.111 16.41C28.1113 16.3945 28.1084 16.3791 28.1025 16.3648C28.0965 16.3505 28.0877 16.3376 28.0765 16.3269C28.0653 16.3162 28.052 16.3079 28.0375 16.3026C28.0229 16.2973 28.0075 16.295 27.992 16.296ZM24.98 16.47V16.472C24.8554 16.4739 24.7325 16.5005 24.6182 16.5501C24.5039 16.5997 24.4005 16.6713 24.314 16.761L22.506 18.618C22.4188 18.7069 22.3501 18.8122 22.3037 18.9278C22.2574 19.0434 22.2343 19.167 22.2359 19.2915C22.2375 19.4161 22.2637 19.539 22.3129 19.6534C22.3622 19.7678 22.4336 19.8713 22.523 19.958C22.6122 20.0449 22.7177 20.1133 22.8333 20.1593C22.949 20.2053 23.0727 20.2281 23.1972 20.2262C23.3216 20.2243 23.4445 20.1979 23.5588 20.1485C23.6731 20.099 23.7764 20.0275 23.863 19.938L25.672 18.079C25.7591 17.99 25.8278 17.8847 25.8741 17.769C25.9203 17.6534 25.9433 17.5298 25.9416 17.4053C25.9399 17.2807 25.9137 17.1578 25.8643 17.0434C25.8149 16.9291 25.7435 16.8256 25.654 16.739C25.565 16.6518 25.4596 16.583 25.344 16.5367C25.2283 16.4903 25.1046 16.4673 24.98 16.469V16.47ZM17.531 16.71V16.712C17.4064 16.7139 17.2835 16.7405 17.1692 16.7901C17.0549 16.8397 16.9515 16.9113 16.865 17.001L15.057 18.858C14.9703 18.9472 14.9021 19.0525 14.8561 19.1681C14.8102 19.2836 14.7874 19.4071 14.7892 19.5314C14.7909 19.6558 14.8172 19.7785 14.8664 19.8927C14.9156 20.0069 14.9868 20.1103 15.076 20.197C15.1652 20.2837 15.2705 20.3519 15.3861 20.3979C15.5016 20.4438 15.6251 20.4666 15.7494 20.4648C15.8738 20.4631 15.9965 20.4368 16.1107 20.3876C16.2249 20.3384 16.3283 20.2672 16.415 20.178L18.223 18.319C18.3554 18.1854 18.445 18.0152 18.4801 17.8304C18.5153 17.6456 18.4945 17.4545 18.4204 17.2816C18.3462 17.1086 18.2222 16.9618 18.0641 16.8598C17.906 16.7578 17.7211 16.7053 17.533 16.709H17.531V16.71ZM32.25 16.71V16.712C32.1254 16.7139 32.0024 16.7404 31.8881 16.79C31.7738 16.8396 31.6705 16.9113 31.584 17.001L29.775 18.858C29.6883 18.9471 29.6201 19.0524 29.5741 19.1679C29.5281 19.2834 29.5053 19.4068 29.507 19.5311C29.5088 19.6554 29.5349 19.7781 29.5841 19.8923C29.6332 20.0065 29.7044 20.1098 29.7935 20.1965C29.9734 20.3715 30.2156 20.4679 30.4666 20.4645C30.5909 20.4627 30.7136 20.4366 30.8278 20.3874C30.942 20.3383 31.0453 20.2671 31.132 20.178L32.942 18.319C33.0744 18.1854 33.164 18.0152 33.1991 17.8304C33.2343 17.6456 33.2135 17.4545 33.1394 17.2816C33.0652 17.1086 32.9412 16.9618 32.7831 16.8598C32.625 16.7578 32.4401 16.7053 32.252 16.709H32.25V16.71ZM19.992 16.858C19.9773 16.8589 19.9629 16.8627 19.9497 16.8692C19.9364 16.8757 19.9246 16.8847 19.9149 16.8958C19.9051 16.9068 19.8976 16.9197 19.8928 16.9336C19.8881 16.9475 19.8861 16.9623 19.887 16.977C19.8879 16.9917 19.8917 17.0061 19.8982 17.0193C19.9047 17.0326 19.9137 17.0444 19.9248 17.0541C19.9358 17.0639 19.9487 17.0714 19.9626 17.0762C19.9765 17.0809 19.9913 17.0829 20.006 17.082C20.0357 17.0801 20.0635 17.0666 20.0831 17.0442C20.1028 17.0219 20.1129 16.9927 20.111 16.963C20.1091 16.9333 20.0956 16.9055 20.0732 16.8859C20.0509 16.8662 20.0217 16.8561 19.992 16.858ZM27.992 16.858C27.9773 16.8589 27.9629 16.8627 27.9497 16.8692C27.9364 16.8757 27.9246 16.8847 27.9149 16.8958C27.9051 16.9068 27.8976 16.9197 27.8928 16.9336C27.8881 16.9475 27.8861 16.9623 27.887 16.977C27.8879 16.9917 27.8917 17.0061 27.8982 17.0193C27.9047 17.0326 27.9137 17.0444 27.9248 17.0541C27.9358 17.0639 27.9487 17.0714 27.9626 17.0762C27.9765 17.0809 27.9913 17.0829 28.006 17.082C28.0357 17.0801 28.0635 17.0666 28.0831 17.0442C28.1028 17.0219 28.1129 16.9927 28.111 16.963C28.1091 16.9333 28.0956 16.9055 28.0732 16.8859C28.0509 16.8662 28.0217 16.8561 27.992 16.858ZM19.992 17.421C19.9773 17.4219 19.9629 17.4257 19.9497 17.4322C19.9364 17.4387 19.9246 17.4477 19.9149 17.4588C19.9051 17.4698 19.8976 17.4827 19.8928 17.4966C19.8881 17.5105 19.8861 17.5253 19.887 17.54C19.8879 17.5547 19.8917 17.5691 19.8982 17.5823C19.9047 17.5956 19.9137 17.6074 19.9248 17.6171C19.9358 17.6269 19.9487 17.6344 19.9626 17.6392C19.9765 17.6439 19.9913 17.6459 20.006 17.645C20.0357 17.6431 20.0635 17.6296 20.0831 17.6072C20.1028 17.5849 20.1129 17.5557 20.111 17.526C20.1091 17.4963 20.0956 17.4685 20.0732 17.4489C20.0509 17.4292 20.0217 17.4191 19.992 17.421ZM27.992 17.421C27.9773 17.4219 27.9629 17.4257 27.9497 17.4322C27.9364 17.4387 27.9246 17.4477 27.9149 17.4588C27.9051 17.4698 27.8976 17.4827 27.8928 17.4966C27.8881 17.5105 27.8861 17.5253 27.887 17.54C27.8879 17.5547 27.8917 17.5691 27.8982 17.5823C27.9047 17.5956 27.9137 17.6074 27.9248 17.6171C27.9358 17.6269 27.9487 17.6344 27.9626 17.6392C27.9765 17.6439 27.9913 17.6459 28.006 17.645C28.0357 17.6431 28.0635 17.6296 28.0831 17.6072C28.1028 17.5849 28.1129 17.5557 28.111 17.526C28.1091 17.4963 28.0956 17.4685 28.0732 17.4489C28.0509 17.4292 28.0217 17.4191 27.992 17.421ZM19.992 17.983C19.9772 17.9839 19.9628 17.9877 19.9495 17.9942C19.9362 18.0007 19.9243 18.0098 19.9145 18.0209C19.9047 18.032 19.8972 18.0449 19.8924 18.0589C19.8876 18.0729 19.8856 18.0877 19.8865 18.1025C19.8874 18.1173 19.8912 18.1317 19.8977 18.145C19.9042 18.1583 19.9133 18.1702 19.9244 18.18C19.9355 18.1898 19.9484 18.1973 19.9624 18.2021C19.9764 18.2069 19.9912 18.2089 20.006 18.208C20.0358 18.2061 20.0637 18.1925 20.0835 18.1701C20.1033 18.1477 20.1134 18.1183 20.1115 18.0885C20.1096 18.0587 20.096 18.0308 20.0736 18.011C20.0512 17.9912 20.0218 17.9811 19.992 17.983ZM27.992 17.983C27.9772 17.9839 27.9628 17.9877 27.9495 17.9942C27.9362 18.0007 27.9243 18.0098 27.9145 18.0209C27.9047 18.032 27.8972 18.0449 27.8924 18.0589C27.8876 18.0729 27.8856 18.0877 27.8865 18.1025C27.8874 18.1173 27.8912 18.1317 27.8977 18.145C27.9042 18.1583 27.9133 18.1702 27.9244 18.18C27.9355 18.1898 27.9484 18.1973 27.9624 18.2021C27.9764 18.2069 27.9912 18.2089 28.006 18.208C28.0358 18.2061 28.0637 18.1925 28.0835 18.1701C28.1033 18.1477 28.1134 18.1183 28.1115 18.0885C28.1096 18.0587 28.096 18.0308 28.0736 18.011C28.0512 17.9912 28.0218 17.9811 27.992 17.983ZM19.992 18.546C19.9624 18.547 19.9344 18.5597 19.914 18.5812C19.8936 18.6027 19.8825 18.6313 19.883 18.6609C19.8835 18.6905 19.8957 18.7188 19.9168 18.7395C19.9379 18.7603 19.9664 18.7719 19.996 18.7719C20.0256 18.7719 20.0541 18.7603 20.0752 18.7395C20.0963 18.7188 20.1085 18.6905 20.109 18.6609C20.1095 18.6313 20.0984 18.6027 20.078 18.5812C20.0576 18.5597 20.0296 18.547 20 18.546C19.9973 18.5459 19.9947 18.5459 19.992 18.546ZM27.992 18.546C27.9624 18.547 27.9344 18.5597 27.914 18.5812C27.8936 18.6027 27.8825 18.6313 27.883 18.6609C27.8835 18.6905 27.8957 18.7188 27.9168 18.7395C27.9379 18.7603 27.9664 18.7719 27.996 18.7719C28.0256 18.7719 28.0541 18.7603 28.0752 18.7395C28.0963 18.7188 28.1085 18.6905 28.109 18.6609C28.1095 18.6313 28.0984 18.6027 28.078 18.5812C28.0576 18.5597 28.0296 18.547 28 18.546C27.9973 18.5459 27.9947 18.5459 27.992 18.546ZM19.98 19.108C19.9536 19.1123 19.9297 19.126 19.9126 19.1466C19.8955 19.1672 19.8864 19.1933 19.887 19.22C19.8849 19.236 19.8862 19.2522 19.8908 19.2676C19.8955 19.283 19.9034 19.2973 19.914 19.3094C19.9246 19.3215 19.9376 19.3312 19.9523 19.3379C19.967 19.3446 19.9829 19.348 19.999 19.348C20.0151 19.348 20.031 19.3446 20.0457 19.3379C20.0604 19.3312 20.0734 19.3215 20.084 19.3094C20.0946 19.2973 20.1025 19.283 20.1072 19.2676C20.1118 19.2522 20.1131 19.236 20.111 19.22C20.111 19.159 20.061 19.109 20 19.108H19.98ZM27.98 19.108C27.9536 19.1123 27.9297 19.126 27.9126 19.1466C27.8955 19.1672 27.8864 19.1933 27.887 19.22C27.8849 19.236 27.8862 19.2522 27.8908 19.2676C27.8955 19.283 27.9034 19.2973 27.914 19.3094C27.9246 19.3215 27.9376 19.3312 27.9523 19.3379C27.967 19.3446 27.9829 19.348 27.999 19.348C28.0151 19.348 28.031 19.3446 28.0457 19.3379C28.0604 19.3312 28.0734 19.3215 28.084 19.3094C28.0946 19.2973 28.1025 19.283 28.1072 19.2676C28.1118 19.2522 28.1131 19.236 28.111 19.22C28.111 19.159 28.061 19.109 28 19.108H27.98ZM20.002 19.668C19.9863 19.6665 19.9705 19.6683 19.9556 19.6733C19.9407 19.6783 19.927 19.6863 19.9153 19.6969C19.9037 19.7075 19.8944 19.7204 19.888 19.7348C19.8817 19.7492 19.8784 19.7648 19.8784 19.7805C19.8784 19.7962 19.8817 19.8118 19.888 19.8262C19.8944 19.8406 19.9037 19.8535 19.9153 19.8641C19.927 19.8747 19.9407 19.8827 19.9556 19.8877C19.9705 19.8927 19.9863 19.8945 20.002 19.893C20.063 19.893 20.112 19.843 20.113 19.783C20.1133 19.7682 20.1106 19.7535 20.1051 19.7398C20.0997 19.726 20.0916 19.7135 20.0813 19.7029C20.0709 19.6923 20.0586 19.6838 20.045 19.678C20.0314 19.6722 20.0168 19.6691 20.002 19.669V19.668ZM28.002 19.668C27.9863 19.6665 27.9705 19.6683 27.9556 19.6733C27.9407 19.6783 27.927 19.6863 27.9153 19.6969C27.9037 19.7075 27.8944 19.7204 27.888 19.7348C27.8817 19.7492 27.8784 19.7648 27.8784 19.7805C27.8784 19.7962 27.8817 19.8118 27.888 19.8262C27.8944 19.8406 27.9037 19.8535 27.9153 19.8641C27.927 19.8747 27.9407 19.8827 27.9556 19.8877C27.9705 19.8927 27.9863 19.8945 28.002 19.893C28.063 19.893 28.112 19.843 28.113 19.783C28.1133 19.7682 28.1106 19.7535 28.1051 19.7398C28.0997 19.726 28.0916 19.7135 28.0813 19.7029C28.0709 19.6923 28.0586 19.6838 28.045 19.678C28.0314 19.6722 28.0168 19.6691 28.002 19.669V19.668ZM19.992 20.231C19.9632 20.2328 19.9362 20.2457 19.9166 20.2669C19.897 20.2881 19.8864 20.3161 19.887 20.345C19.887 20.406 19.937 20.457 20 20.455C20.0297 20.455 20.0582 20.4432 20.0792 20.4222C20.1002 20.4012 20.112 20.3727 20.112 20.343C20.112 20.3133 20.1002 20.2848 20.0792 20.2638C20.0582 20.2428 20.0297 20.231 20 20.231H19.992ZM27.992 20.231C27.9632 20.2328 27.9362 20.2457 27.9166 20.2669C27.897 20.2881 27.8864 20.3161 27.887 20.345C27.887 20.406 27.937 20.457 28 20.455C28.0297 20.455 28.0582 20.4432 28.0792 20.4222C28.1002 20.4012 28.112 20.3727 28.112 20.343C28.112 20.3133 28.1002 20.2848 28.0792 20.2638C28.0582 20.2428 28.0297 20.231 28 20.231H27.992ZM19.992 20.794C19.9627 20.795 19.9349 20.8076 19.9147 20.8289C19.8945 20.8502 19.8835 20.8786 19.884 20.9079C19.8845 20.9373 19.8966 20.9653 19.9175 20.9858C19.9385 21.0064 19.9666 21.0179 19.996 21.0179C20.0254 21.0179 20.0535 21.0064 20.0745 20.9858C20.0954 20.9653 20.1075 20.9373 20.108 20.9079C20.1085 20.8786 20.0975 20.8502 20.0773 20.8289C20.0571 20.8076 20.0293 20.795 20 20.794H19.992ZM27.992 20.794C27.9627 20.795 27.9349 20.8076 27.9147 20.8289C27.8945 20.8502 27.8835 20.8786 27.884 20.9079C27.8845 20.9373 27.8966 20.9653 27.9175 20.9858C27.9385 21.0064 27.9666 21.0179 27.996 21.0179C28.0254 21.0179 28.0535 21.0064 28.0745 20.9858C28.0954 20.9653 28.1075 20.9373 28.108 20.9079C28.1085 20.8786 28.0975 20.8502 28.0773 20.8289C28.0571 20.8076 28.0293 20.795 28 20.794H27.992ZM19.992 21.356C19.9632 21.3578 19.9362 21.3707 19.9166 21.3919C19.897 21.4131 19.8864 21.4411 19.887 21.47C19.887 21.531 19.937 21.582 20 21.58C20.061 21.58 20.11 21.531 20.111 21.47C20.1115 21.455 20.1091 21.4401 20.1037 21.4261C20.0984 21.4122 20.0903 21.3994 20.08 21.3886C20.0696 21.3778 20.0572 21.3691 20.0435 21.3632C20.0298 21.3572 20.015 21.3541 20 21.354H19.992V21.356ZM27.992 21.356C27.9632 21.3578 27.9362 21.3707 27.9166 21.3919C27.897 21.4131 27.8864 21.4411 27.887 21.47C27.887 21.531 27.937 21.582 28 21.58C28.061 21.58 28.11 21.531 28.111 21.47C28.1115 21.455 28.1091 21.4401 28.1037 21.4261C28.0984 21.4122 28.0903 21.3994 28.08 21.3886C28.0696 21.3778 28.0572 21.3691 28.0435 21.3632C28.0298 21.3572 28.015 21.3541 28 21.354H27.992V21.356ZM24.98 21.729C24.8553 21.7313 24.7323 21.7582 24.618 21.8081C24.5037 21.8581 24.4004 21.9301 24.314 22.02L22.506 23.878C22.3469 24.0608 22.2638 24.2976 22.2738 24.5398C22.2839 24.7819 22.3863 25.011 22.56 25.18C22.7337 25.349 22.9656 25.445 23.2079 25.4484C23.4503 25.4517 23.6847 25.3621 23.863 25.198L25.672 23.338C25.7591 23.249 25.8278 23.1437 25.8741 23.028C25.9203 22.9124 25.9433 22.7888 25.9416 22.6643C25.9399 22.5397 25.9137 22.4168 25.8643 22.3024C25.8149 22.1881 25.7435 22.0846 25.654 21.998C25.5649 21.911 25.4595 21.8424 25.3439 21.7962C25.2282 21.7501 25.1045 21.7272 24.98 21.729ZM19.992 21.919C19.9761 21.9181 19.9601 21.9206 19.9452 21.9263C19.9303 21.9321 19.9168 21.9409 19.9056 21.9522C19.8943 21.9635 19.8856 21.9771 19.88 21.9921C19.8744 22.007 19.872 22.0229 19.873 22.0389C19.874 22.0548 19.8783 22.0703 19.8858 22.0845C19.8932 22.0986 19.9035 22.111 19.9161 22.1208C19.9287 22.1306 19.9432 22.1377 19.9587 22.1415C19.9742 22.1454 19.9903 22.1459 20.006 22.143C20.0332 22.138 20.0577 22.1233 20.0747 22.1015C20.0918 22.0797 20.1003 22.0524 20.0985 22.0248C20.0968 21.9972 20.085 21.9711 20.0654 21.9516C20.0457 21.9321 20.0196 21.9205 19.992 21.919ZM27.992 21.919C27.9761 21.9181 27.9601 21.9206 27.9452 21.9263C27.9303 21.9321 27.9168 21.9409 27.9056 21.9522C27.8943 21.9635 27.8856 21.9771 27.88 21.9921C27.8744 22.007 27.872 22.0229 27.873 22.0389C27.874 22.0548 27.8783 22.0703 27.8858 22.0845C27.8932 22.0986 27.9035 22.111 27.9161 22.1208C27.9287 22.1306 27.9432 22.1377 27.9587 22.1415C27.9742 22.1454 27.9903 22.1459 28.006 22.143C28.0332 22.138 28.0577 22.1233 28.0747 22.1015C28.0918 22.0797 28.1003 22.0524 28.0985 22.0248C28.0968 21.9972 28.085 21.9711 28.0654 21.9516C28.0457 21.9321 28.0196 21.9205 27.992 21.919ZM17.533 21.968V21.97C17.4084 21.9719 17.2854 21.9984 17.1711 22.048C17.0568 22.0976 16.9535 22.1693 16.867 22.259L15.06 24.114C14.9728 24.2029 14.9041 24.3082 14.8577 24.4238C14.8114 24.5394 14.7883 24.663 14.7899 24.7875C14.7915 24.9121 14.8177 25.035 14.8669 25.1494C14.9162 25.2638 14.9876 25.3673 15.077 25.454C15.1661 25.5411 15.2715 25.6097 15.3872 25.6559C15.5029 25.7021 15.6266 25.7249 15.7512 25.723C15.8757 25.7212 15.9987 25.6947 16.113 25.6451C16.2273 25.5955 16.3306 25.5237 16.417 25.434L18.226 23.575C18.3131 23.486 18.3818 23.3807 18.4281 23.265C18.4743 23.1494 18.4973 23.0258 18.4956 22.9013C18.4939 22.7767 18.4677 22.6538 18.4183 22.5394C18.3689 22.4251 18.2975 22.3216 18.208 22.235C18.119 22.1478 18.0136 22.079 17.898 22.0327C17.7823 21.9863 17.6586 21.9633 17.534 21.965L17.533 21.968ZM32.252 21.968V21.97C32.1274 21.9719 32.0045 21.9985 31.8902 22.0481C31.7759 22.0977 31.6725 22.1693 31.586 22.259L29.777 24.116C29.6899 24.205 29.6212 24.3103 29.5749 24.426C29.5287 24.5416 29.5057 24.6652 29.5074 24.7897C29.5091 24.9143 29.5353 25.0372 29.5847 25.1516C29.6341 25.2659 29.7055 25.3694 29.795 25.456C29.8841 25.5431 29.9895 25.6117 30.1052 25.6579C30.2209 25.7041 30.3446 25.7269 30.4692 25.725C30.5937 25.7232 30.7167 25.6967 30.831 25.6471C30.9452 25.5975 31.0486 25.5257 31.135 25.436L32.943 23.577C33.0302 23.4881 33.0989 23.3828 33.1453 23.2672C33.1916 23.1516 33.2147 23.028 33.2131 22.9035C33.2115 22.7789 33.1853 22.656 33.1361 22.5416C33.0868 22.4272 33.0154 22.3237 32.926 22.237C32.837 22.1498 32.7316 22.081 32.616 22.0347C32.5003 21.9883 32.3766 21.9653 32.252 21.967V21.968ZM19.992 22.481C19.9765 22.4809 19.9611 22.4839 19.9468 22.49C19.9326 22.4961 19.9197 22.505 19.909 22.5163C19.8983 22.5275 19.8901 22.5409 19.8848 22.5554C19.8795 22.57 19.8773 22.5855 19.8782 22.601C19.8792 22.6165 19.8834 22.6316 19.8904 22.6454C19.8975 22.6592 19.9073 22.6714 19.9193 22.6813C19.9313 22.6911 19.9452 22.6984 19.9601 22.7027C19.975 22.7069 19.9906 22.7081 20.006 22.706C20.0343 22.7022 20.0602 22.6878 20.0783 22.6657C20.0965 22.6437 20.1056 22.6155 20.1038 22.587C20.102 22.5584 20.0895 22.5316 20.0688 22.512C20.048 22.4923 20.0206 22.4812 19.992 22.481ZM27.992 22.481C27.9765 22.4809 27.9611 22.4839 27.9468 22.49C27.9326 22.4961 27.9197 22.505 27.909 22.5163C27.8983 22.5275 27.8901 22.5409 27.8848 22.5554C27.8795 22.57 27.8773 22.5855 27.8782 22.601C27.8792 22.6165 27.8834 22.6316 27.8904 22.6454C27.8975 22.6592 27.9073 22.6714 27.9193 22.6813C27.9313 22.6911 27.9452 22.6984 27.9601 22.7027C27.975 22.7069 27.9906 22.7081 28.006 22.706C28.0343 22.7022 28.0602 22.6878 28.0783 22.6657C28.0965 22.6437 28.1056 22.6155 28.1038 22.587C28.102 22.5584 28.0895 22.5316 28.0688 22.512C28.048 22.4923 28.0206 22.4812 27.992 22.481ZM19.992 23.044C19.9627 23.045 19.9349 23.0576 19.9147 23.0789C19.8945 23.1002 19.8835 23.1286 19.884 23.1579C19.8845 23.1873 19.8966 23.2153 19.9175 23.2358C19.9385 23.2564 19.9666 23.2679 19.996 23.2679C20.0254 23.2679 20.0535 23.2564 20.0745 23.2358C20.0954 23.2153 20.1075 23.1873 20.108 23.1579C20.1085 23.1286 20.0975 23.1002 20.0773 23.0789C20.0571 23.0576 20.0293 23.045 20 23.044H19.992ZM27.992 23.044C27.9627 23.045 27.9349 23.0576 27.9147 23.0789C27.8945 23.1002 27.8835 23.1286 27.884 23.1579C27.8845 23.1873 27.8966 23.2153 27.9175 23.2358C27.9385 23.2564 27.9666 23.2679 27.996 23.2679C28.0254 23.2679 28.0535 23.2564 28.0745 23.2358C28.0954 23.2153 28.1075 23.1873 28.108 23.1579C28.1085 23.1286 28.0975 23.1002 28.0773 23.0789C28.0571 23.0576 28.0293 23.045 28 23.044H27.992ZM19.98 23.606C19.9536 23.6103 19.9297 23.624 19.9126 23.6446C19.8955 23.6652 19.8864 23.6913 19.887 23.718C19.887 23.7401 19.8935 23.7617 19.9058 23.7801C19.9181 23.7985 19.9355 23.8129 19.9559 23.8214C19.9763 23.8299 19.9988 23.8322 20.0205 23.8279C20.0422 23.8237 20.0621 23.8131 20.0778 23.7975C20.0935 23.782 20.1043 23.7621 20.1087 23.7405C20.1132 23.7188 20.1111 23.6963 20.1028 23.6758C20.0944 23.6553 20.0802 23.6378 20.0619 23.6254C20.0437 23.6129 20.0221 23.6062 20 23.606H19.98ZM27.98 23.606C27.9536 23.6103 27.9297 23.624 27.9126 23.6446C27.8955 23.6652 27.8864 23.6913 27.887 23.718C27.887 23.7401 27.8935 23.7617 27.9058 23.7801C27.9181 23.7985 27.9355 23.8129 27.9559 23.8214C27.9763 23.8299 27.9988 23.8322 28.0205 23.8279C28.0422 23.8237 28.0621 23.8131 28.0778 23.7975C28.0935 23.782 28.1043 23.7621 28.1087 23.7405C28.1132 23.7188 28.1111 23.6963 28.1028 23.6758C28.0944 23.6553 28.0802 23.6378 28.0619 23.6254C28.0437 23.6129 28.0221 23.6062 28 23.606H27.98ZM19.98 24.169C19.9538 24.1733 19.93 24.1869 19.9129 24.2072C19.8958 24.2276 19.8866 24.2534 19.887 24.28C19.887 24.342 19.937 24.393 20 24.391C20.061 24.391 20.11 24.341 20.111 24.281C20.111 24.219 20.061 24.17 20 24.169H19.98ZM27.98 24.169C27.9538 24.1733 27.93 24.1869 27.9129 24.2072C27.8958 24.2276 27.8866 24.2534 27.887 24.28C27.887 24.342 27.937 24.393 28 24.391C28.061 24.391 28.11 24.341 28.111 24.281C28.111 24.219 28.061 24.17 28 24.169H27.98ZM19.992 24.729C19.9773 24.7299 19.9629 24.7337 19.9497 24.7402C19.9364 24.7467 19.9246 24.7557 19.9149 24.7668C19.9051 24.7778 19.8976 24.7907 19.8928 24.8046C19.8881 24.8185 19.8861 24.8333 19.887 24.848C19.8879 24.8627 19.8917 24.8771 19.8982 24.8903C19.9047 24.9036 19.9137 24.9154 19.9248 24.9251C19.9358 24.9349 19.9487 24.9424 19.9626 24.9472C19.9765 24.9519 19.9913 24.9539 20.006 24.953C20.0357 24.9511 20.0635 24.9376 20.0831 24.9152C20.1028 24.8929 20.1129 24.8637 20.111 24.834C20.1091 24.8043 20.0956 24.7765 20.0732 24.7569C20.0509 24.7372 20.0217 24.7271 19.992 24.729ZM27.992 24.729C27.9773 24.7299 27.9629 24.7337 27.9497 24.7402C27.9364 24.7467 27.9246 24.7557 27.9149 24.7668C27.9051 24.7778 27.8976 24.7907 27.8928 24.8046C27.8881 24.8185 27.8861 24.8333 27.887 24.848C27.8879 24.8627 27.8917 24.8771 27.8982 24.8903C27.9047 24.9036 27.9137 24.9154 27.9248 24.9251C27.9358 24.9349 27.9487 24.9424 27.9626 24.9472C27.9765 24.9519 27.9913 24.9539 28.006 24.953C28.0357 24.9511 28.0635 24.9376 28.0831 24.9152C28.1028 24.8929 28.1129 24.8637 28.111 24.834C28.1091 24.8043 28.0956 24.7765 28.0732 24.7569C28.0509 24.7372 28.0217 24.7271 27.992 24.729ZM19.992 25.292C19.9623 25.2939 19.9345 25.3074 19.9149 25.3298C19.8952 25.3521 19.8851 25.3813 19.887 25.411C19.8889 25.4407 19.9024 25.4685 19.9248 25.4881C19.9471 25.5078 19.9763 25.5179 20.006 25.516C20.0207 25.5151 20.0351 25.5113 20.0483 25.5048C20.0616 25.4983 20.0734 25.4893 20.0831 25.4782C20.0929 25.4672 20.1004 25.4543 20.1052 25.4404C20.1099 25.4265 20.1119 25.4117 20.111 25.397C20.1101 25.3823 20.1063 25.3679 20.0998 25.3547C20.0933 25.3414 20.0843 25.3296 20.0732 25.3199C20.0622 25.3101 20.0493 25.3026 20.0354 25.2978C20.0215 25.2931 20.0067 25.2911 19.992 25.292ZM27.992 25.292C27.9623 25.2939 27.9345 25.3074 27.9149 25.3298C27.8952 25.3521 27.8851 25.3813 27.887 25.411C27.8889 25.4407 27.9024 25.4685 27.9248 25.4881C27.9471 25.5078 27.9763 25.5179 28.006 25.516C28.0207 25.5151 28.0351 25.5113 28.0483 25.5048C28.0616 25.4983 28.0734 25.4893 28.0831 25.4782C28.0929 25.4672 28.1004 25.4543 28.1052 25.4404C28.1099 25.4265 28.1119 25.4117 28.111 25.397C28.1101 25.3823 28.1063 25.3679 28.0998 25.3547C28.0933 25.3414 28.0843 25.3296 28.0732 25.3199C28.0622 25.3101 28.0493 25.3026 28.0354 25.2978C28.0215 25.2931 28.0067 25.2911 27.992 25.292ZM19.992 25.854C19.9773 25.8549 19.9629 25.8587 19.9497 25.8652C19.9364 25.8717 19.9246 25.8807 19.9149 25.8918C19.9051 25.9028 19.8976 25.9157 19.8928 25.9296C19.8881 25.9435 19.8861 25.9583 19.887 25.973C19.8879 25.9877 19.8917 26.0021 19.8982 26.0153C19.9047 26.0286 19.9137 26.0404 19.9248 26.0501C19.9358 26.0599 19.9487 26.0674 19.9626 26.0722C19.9765 26.0769 19.9913 26.0789 20.006 26.078C20.0357 26.0761 20.0635 26.0626 20.0831 26.0402C20.1028 26.0179 20.1129 25.9887 20.111 25.959C20.1091 25.9293 20.0956 25.9015 20.0732 25.8819C20.0509 25.8622 20.0217 25.8521 19.992 25.854ZM27.992 25.854C27.9773 25.8549 27.9629 25.8587 27.9497 25.8652C27.9364 25.8717 27.9246 25.8807 27.9149 25.8918C27.9051 25.9028 27.8976 25.9157 27.8928 25.9296C27.8881 25.9435 27.8861 25.9583 27.887 25.973C27.8879 25.9877 27.8917 26.0021 27.8982 26.0153C27.9047 26.0286 27.9137 26.0404 27.9248 26.0501C27.9358 26.0599 27.9487 26.0674 27.9626 26.0722C27.9765 26.0769 27.9913 26.0789 28.006 26.078C28.0357 26.0761 28.0635 26.0626 28.0831 26.0402C28.1028 26.0179 28.1129 25.9887 28.111 25.959C28.1091 25.9293 28.0956 25.9015 28.0732 25.8819C28.0509 25.8622 28.0217 25.8521 27.992 25.854ZM19.992 26.417C19.9623 26.4189 19.9345 26.4324 19.9149 26.4548C19.8952 26.4771 19.8851 26.5063 19.887 26.536C19.8889 26.5657 19.9024 26.5935 19.9248 26.6131C19.9471 26.6328 19.9763 26.6429 20.006 26.641C20.0207 26.6401 20.0351 26.6363 20.0483 26.6298C20.0616 26.6233 20.0734 26.6143 20.0831 26.6032C20.0929 26.5922 20.1004 26.5793 20.1052 26.5654C20.1099 26.5515 20.1119 26.5367 20.111 26.522C20.1101 26.5073 20.1063 26.4929 20.0998 26.4797C20.0933 26.4664 20.0843 26.4546 20.0732 26.4449C20.0622 26.4351 20.0493 26.4276 20.0354 26.4228C20.0215 26.4181 20.0067 26.4161 19.992 26.417ZM27.992 26.417C27.9623 26.4189 27.9345 26.4324 27.9149 26.4548C27.8952 26.4771 27.8851 26.5063 27.887 26.536C27.8889 26.5657 27.9024 26.5935 27.9248 26.6131C27.9471 26.6328 27.9763 26.6429 28.006 26.641C28.0207 26.6401 28.0351 26.6363 28.0483 26.6298C28.0616 26.6233 28.0734 26.6143 28.0831 26.6032C28.0929 26.5922 28.1004 26.5793 28.1052 26.5654C28.1099 26.5515 28.1119 26.5367 28.111 26.522C28.1101 26.5073 28.1063 26.4929 28.0998 26.4797C28.0933 26.4664 28.0843 26.4546 28.0732 26.4449C28.0622 26.4351 28.0493 26.4276 28.0354 26.4228C28.0215 26.4181 28.0067 26.4161 27.992 26.417ZM19.992 26.979C19.9773 26.9799 19.9629 26.9837 19.9497 26.9902C19.9364 26.9967 19.9246 27.0057 19.9149 27.0168C19.9051 27.0278 19.8976 27.0407 19.8928 27.0546C19.8881 27.0685 19.8861 27.0833 19.887 27.098C19.8879 27.1127 19.8917 27.1271 19.8982 27.1403C19.9047 27.1536 19.9137 27.1654 19.9248 27.1751C19.9358 27.1849 19.9487 27.1924 19.9626 27.1972C19.9765 27.2019 19.9913 27.2039 20.006 27.203C20.0357 27.2011 20.0635 27.1876 20.0831 27.1652C20.1028 27.1429 20.1129 27.1137 20.111 27.084C20.1091 27.0543 20.0956 27.0265 20.0732 27.0069C20.0509 26.9872 20.0217 26.9771 19.992 26.979ZM27.992 26.979C27.9773 26.9799 27.9629 26.9837 27.9497 26.9902C27.9364 26.9967 27.9246 27.0057 27.9149 27.0168C27.9051 27.0278 27.8976 27.0407 27.8928 27.0546C27.8881 27.0685 27.8861 27.0833 27.887 27.098C27.8879 27.1127 27.8917 27.1271 27.8982 27.1403C27.9047 27.1536 27.9137 27.1654 27.9248 27.1751C27.9358 27.1849 27.9487 27.1924 27.9626 27.1972C27.9765 27.2019 27.9913 27.2039 28.006 27.203C28.0357 27.2011 28.0635 27.1876 28.0831 27.1652C28.1028 27.1429 28.1129 27.1137 28.111 27.084C28.1091 27.0543 28.0956 27.0265 28.0732 27.0069C28.0509 26.9872 28.0217 26.9771 27.992 26.979ZM24.978 26.987V26.989C24.8534 26.9911 24.7304 27.0178 24.6161 27.0675C24.5018 27.1173 24.3984 27.1892 24.312 27.279L22.504 29.136C22.4173 29.2251 22.3491 29.3304 22.3031 29.4459C22.2571 29.5614 22.2343 29.6848 22.236 29.8091C22.2378 29.9334 22.2639 30.0561 22.3131 30.1703C22.3622 30.2845 22.4334 30.3878 22.5225 30.4745C22.6116 30.5612 22.7169 30.6294 22.8324 30.6754C22.9479 30.7214 23.0713 30.7442 23.1956 30.7425C23.3199 30.7407 23.4426 30.7146 23.5568 30.6654C23.671 30.6163 23.7743 30.5451 23.861 30.456L25.67 28.596C25.7571 28.507 25.8258 28.4017 25.8721 28.286C25.9183 28.1704 25.9413 28.0468 25.9396 27.9223C25.9379 27.7977 25.9117 27.6748 25.8623 27.5604C25.8129 27.4461 25.7415 27.3426 25.652 27.256C25.5629 27.169 25.4575 27.1004 25.3419 27.0542C25.2262 27.0081 25.1025 26.9852 24.978 26.987ZM17.533 27.227C17.4083 27.2293 17.2853 27.2562 17.171 27.3061C17.0567 27.3561 16.9534 27.4281 16.867 27.518L15.059 29.376C14.9723 29.4651 14.9041 29.5704 14.8581 29.6859C14.8121 29.8014 14.7893 29.9248 14.791 30.0491C14.7928 30.1734 14.8189 30.2961 14.8681 30.4103C14.9172 30.5245 14.9884 30.6278 15.0775 30.7145C15.1666 30.8012 15.2719 30.8694 15.3874 30.9154C15.5029 30.9614 15.6263 30.9842 15.7506 30.9825C15.8749 30.9807 15.9976 30.9546 16.1118 30.9054C16.226 30.8563 16.3293 30.7851 16.416 30.696L18.225 28.836C18.312 28.747 18.3805 28.6417 18.4267 28.5262C18.4729 28.4107 18.4958 28.2872 18.4941 28.1628C18.4924 28.0384 18.4662 27.9155 18.4169 27.8013C18.3677 27.687 18.2963 27.5836 18.207 27.497C18.118 27.4098 18.0126 27.341 17.897 27.2947C17.7813 27.2483 17.6576 27.2253 17.533 27.227ZM32.252 27.227C32.1273 27.2293 32.0043 27.2562 31.89 27.3061C31.7757 27.3561 31.6724 27.4281 31.586 27.518L29.777 29.376C29.6903 29.4651 29.6221 29.5704 29.5761 29.6859C29.5301 29.8014 29.5073 29.9248 29.509 30.0491C29.5108 30.1734 29.5369 30.2961 29.5861 30.4103C29.6352 30.5245 29.7064 30.6278 29.7955 30.7145C29.8846 30.8012 29.9899 30.8694 30.1054 30.9154C30.2209 30.9614 30.3443 30.9842 30.4686 30.9825C30.5929 30.9807 30.7156 30.9546 30.8298 30.9054C30.944 30.8563 31.0473 30.7851 31.134 30.696L32.944 28.836C33.031 28.747 33.0995 28.6417 33.1457 28.5262C33.1919 28.4107 33.2148 28.2872 33.2131 28.1628C33.2114 28.0384 33.1852 27.9155 33.1359 27.8013C33.0867 27.687 33.0153 27.5836 32.926 27.497C32.837 27.4098 32.7316 27.341 32.616 27.2947C32.5003 27.2483 32.3766 27.2253 32.252 27.227ZM19.992 27.542C19.9623 27.5439 19.9345 27.5574 19.9149 27.5798C19.8952 27.6021 19.8851 27.6313 19.887 27.661C19.8889 27.6907 19.9024 27.7185 19.9248 27.7381C19.9471 27.7578 19.9763 27.7679 20.006 27.766C20.0207 27.7651 20.0351 27.7613 20.0483 27.7548C20.0616 27.7483 20.0734 27.7393 20.0831 27.7282C20.0929 27.7172 20.1004 27.7043 20.1052 27.6904C20.1099 27.6765 20.1119 27.6617 20.111 27.647C20.1101 27.6323 20.1063 27.6179 20.0998 27.6047C20.0933 27.5914 20.0843 27.5796 20.0732 27.5699C20.0622 27.5601 20.0493 27.5526 20.0354 27.5478C20.0215 27.5431 20.0067 27.5411 19.992 27.542ZM27.992 27.542C27.9623 27.5439 27.9345 27.5574 27.9149 27.5798C27.8952 27.6021 27.8851 27.6313 27.887 27.661C27.8889 27.6907 27.9024 27.7185 27.9248 27.7381C27.9471 27.7578 27.9763 27.7679 28.006 27.766C28.0207 27.7651 28.0351 27.7613 28.0483 27.7548C28.0616 27.7483 28.0734 27.7393 28.0831 27.7282C28.0929 27.7172 28.1004 27.7043 28.1052 27.6904C28.1099 27.6765 28.1119 27.6617 28.111 27.647C28.1101 27.6323 28.1063 27.6179 28.0998 27.6047C28.0933 27.5914 28.0843 27.5796 28.0732 27.5699C28.0622 27.5601 28.0493 27.5526 28.0354 27.5478C28.0215 27.5431 28.0067 27.5411 27.992 27.542ZM19.98 28.104C19.9536 28.1083 19.9297 28.122 19.9126 28.1426C19.8955 28.1632 19.8864 28.1893 19.887 28.216C19.887 28.2458 19.8989 28.2745 19.92 28.2955C19.941 28.3166 19.9697 28.3285 19.9995 28.3285C20.0293 28.3285 20.058 28.3166 20.0791 28.2955C20.1001 28.2745 20.112 28.2458 20.112 28.216C20.111 28.155 20.062 28.106 20 28.104H19.98ZM27.98 28.104C27.9536 28.1083 27.9297 28.122 27.9126 28.1426C27.8955 28.1632 27.8864 28.1893 27.887 28.216C27.887 28.2458 27.8989 28.2745 27.92 28.2955C27.941 28.3166 27.9697 28.3285 27.9995 28.3285C28.0293 28.3285 28.058 28.3166 28.0791 28.2955C28.1001 28.2745 28.112 28.2458 28.112 28.216C28.111 28.155 28.062 28.106 28 28.104H27.98ZM20.002 28.664C19.9869 28.6641 19.9721 28.6672 19.9582 28.6732C19.9444 28.6791 19.9318 28.6877 19.9213 28.6984C19.9108 28.7092 19.9026 28.722 19.897 28.736C19.8915 28.75 19.8887 28.7649 19.889 28.78C19.889 28.842 19.939 28.89 20.002 28.89C20.0165 28.8901 20.0309 28.8874 20.0444 28.8819C20.0579 28.8764 20.0701 28.8684 20.0804 28.8581C20.0907 28.8479 20.0989 28.8357 20.1045 28.8223C20.1101 28.8089 20.113 28.7945 20.113 28.78C20.1133 28.7501 20.1018 28.7213 20.081 28.6998C20.0603 28.6783 20.0319 28.6658 20.002 28.665V28.664ZM28.002 28.664C27.9869 28.6641 27.9721 28.6672 27.9582 28.6732C27.9444 28.6791 27.9318 28.6877 27.9213 28.6984C27.9108 28.7092 27.9026 28.722 27.897 28.736C27.8915 28.75 27.8887 28.7649 27.889 28.78C27.889 28.842 27.939 28.89 28.002 28.89C28.0165 28.8901 28.0309 28.8874 28.0444 28.8819C28.0579 28.8764 28.0701 28.8684 28.0804 28.8581C28.0907 28.8479 28.0989 28.8357 28.1045 28.8223C28.1101 28.8089 28.113 28.7945 28.113 28.78C28.1133 28.7501 28.1018 28.7213 28.081 28.6998C28.0603 28.6783 28.0319 28.6658 28.002 28.665V28.664ZM19.992 29.227C19.963 29.2293 19.936 29.2426 19.9165 29.2641C19.8969 29.2857 19.8864 29.3139 19.887 29.343C19.887 29.404 19.937 29.453 20 29.452C20.0145 29.4521 20.0289 29.4494 20.0424 29.4439C20.0559 29.4384 20.0681 29.4304 20.0784 29.4201C20.0887 29.4099 20.0969 29.3977 20.1025 29.3843C20.1081 29.3709 20.111 29.3565 20.111 29.342C20.1112 29.3265 20.1081 29.3112 20.1022 29.2969C20.0962 29.2826 20.0874 29.2697 20.0762 29.2589C20.0651 29.2482 20.0519 29.2398 20.0374 29.2343C20.0229 29.2288 20.0075 29.2263 19.992 29.227ZM27.992 29.227C27.963 29.2293 27.936 29.2426 27.9165 29.2641C27.8969 29.2857 27.8864 29.3139 27.887 29.343C27.887 29.404 27.937 29.453 28 29.452C28.0145 29.4521 28.0289 29.4494 28.0424 29.4439C28.0559 29.4384 28.0681 29.4304 28.0784 29.4201C28.0887 29.4099 28.0969 29.3977 28.1025 29.3843C28.1081 29.3709 28.111 29.3565 28.111 29.342C28.1112 29.3265 28.1081 29.3112 28.1022 29.2969C28.0962 29.2826 28.0874 29.2697 28.0762 29.2589C28.0651 29.2482 28.0519 29.2398 28.0374 29.2343C28.0229 29.2288 28.0075 29.2263 27.992 29.227ZM19.992 29.79C19.9632 29.7923 19.9363 29.8054 19.9168 29.8268C19.8973 29.8481 19.8867 29.8761 19.887 29.905C19.887 29.9347 19.8988 29.9632 19.9198 29.9842C19.9408 30.0052 19.9693 30.017 19.999 30.017C20.0287 30.017 20.0572 30.0052 20.0782 29.9842C20.0992 29.9632 20.111 29.9347 20.111 29.905C20.1112 29.8895 20.1081 29.8742 20.1022 29.8599C20.0962 29.8456 20.0874 29.8327 20.0762 29.8219C20.0651 29.8112 20.0519 29.8028 20.0374 29.7973C20.0229 29.7918 20.0075 29.7893 19.992 29.79ZM27.992 29.79C27.9632 29.7923 27.9363 29.8054 27.9168 29.8268C27.8973 29.8481 27.8867 29.8761 27.887 29.905C27.887 29.9347 27.8988 29.9632 27.9198 29.9842C27.9408 30.0052 27.9693 30.017 27.999 30.017C28.0287 30.017 28.0572 30.0052 28.0782 29.9842C28.0992 29.9632 28.111 29.9347 28.111 29.905C28.1112 29.8895 28.1081 29.8742 28.1022 29.8599C28.0962 29.8456 28.0874 29.8327 28.0762 29.8219C28.0651 29.8112 28.0519 29.8028 28.0374 29.7973C28.0229 29.7918 28.0075 29.7893 27.992 29.79ZM19.992 30.352C19.963 30.3543 19.936 30.3676 19.9165 30.3891C19.8969 30.4107 19.8864 30.4389 19.887 30.468C19.887 30.4978 19.8989 30.5265 19.92 30.5475C19.941 30.5686 19.9697 30.5805 19.9995 30.5805C20.0293 30.5805 20.058 30.5686 20.0791 30.5475C20.1001 30.5265 20.112 30.4978 20.112 30.468C20.1123 30.4523 20.1094 30.4368 20.1034 30.4223C20.0974 30.4078 20.0885 30.3948 20.0773 30.3839C20.066 30.373 20.0526 30.3645 20.0379 30.3591C20.0233 30.3536 20.0076 30.3512 19.992 30.352ZM27.992 30.352C27.963 30.3543 27.936 30.3676 27.9165 30.3891C27.8969 30.4107 27.8864 30.4389 27.887 30.468C27.887 30.4978 27.8989 30.5265 27.92 30.5475C27.941 30.5686 27.9697 30.5805 27.9995 30.5805C28.0293 30.5805 28.058 30.5686 28.0791 30.5475C28.1001 30.5265 28.112 30.4978 28.112 30.468C28.1123 30.4523 28.1094 30.4368 28.1034 30.4223C28.0974 30.4078 28.0885 30.3948 28.0773 30.3839C28.066 30.373 28.0526 30.3645 28.0379 30.3591C28.0233 30.3536 28.0076 30.3512 27.992 30.352ZM19.992 30.913C19.9634 30.9157 19.9367 30.929 19.9173 30.9503C19.8979 30.9715 19.8871 30.9992 19.887 31.028C19.8849 31.044 19.8862 31.0602 19.8908 31.0756C19.8955 31.091 19.9034 31.1053 19.914 31.1174C19.9246 31.1295 19.9376 31.1392 19.9523 31.1459C19.967 31.1526 19.9829 31.156 19.999 31.156C20.0151 31.156 20.031 31.1526 20.0457 31.1459C20.0604 31.1392 20.0734 31.1295 20.084 31.1174C20.0946 31.1053 20.1025 31.091 20.1072 31.0756C20.1118 31.0602 20.1131 31.044 20.111 31.028C20.1109 31.0126 20.1077 30.9974 20.1016 30.9832C20.0955 30.9691 20.0867 30.9563 20.0756 30.9455C20.0645 30.9348 20.0514 30.9264 20.0371 30.9209C20.0227 30.9153 20.0074 30.9126 19.992 30.913ZM27.992 30.913C27.9634 30.9157 27.9367 30.929 27.9173 30.9503C27.8979 30.9715 27.8871 30.9992 27.887 31.028C27.8849 31.044 27.8862 31.0602 27.8908 31.0756C27.8955 31.091 27.9034 31.1053 27.914 31.1174C27.9246 31.1295 27.9376 31.1392 27.9523 31.1459C27.967 31.1526 27.9829 31.156 27.999 31.156C28.0151 31.156 28.031 31.1526 28.0457 31.1459C28.0604 31.1392 28.0734 31.1295 28.084 31.1174C28.0946 31.1053 28.1025 31.091 28.1072 31.0756C28.1118 31.0602 28.1131 31.044 28.111 31.028C28.1109 31.0126 28.1077 30.9974 28.1016 30.9832C28.0955 30.9691 28.0867 30.9563 28.0756 30.9455C28.0645 30.9348 28.0514 30.9264 28.0371 30.9209C28.0227 30.9153 28.0074 30.9126 27.992 30.913ZM19.992 31.476C19.9773 31.4769 19.9629 31.4807 19.9497 31.4872C19.9364 31.4937 19.9246 31.5027 19.9149 31.5138C19.9051 31.5248 19.8976 31.5377 19.8928 31.5516C19.8881 31.5655 19.8861 31.5803 19.887 31.595C19.8879 31.6097 19.8917 31.6241 19.8982 31.6373C19.9047 31.6506 19.9137 31.6624 19.9248 31.6721C19.9358 31.6819 19.9487 31.6894 19.9626 31.6942C19.9765 31.6989 19.9913 31.7009 20.006 31.7C20.0357 31.6981 20.0635 31.6846 20.0831 31.6622C20.1028 31.6399 20.1129 31.6107 20.111 31.581C20.1091 31.5513 20.0956 31.5235 20.0732 31.5039C20.0509 31.4842 20.0217 31.4741 19.992 31.476ZM27.992 31.476C27.9773 31.4769 27.9629 31.4807 27.9497 31.4872C27.9364 31.4937 27.9246 31.5027 27.9149 31.5138C27.9051 31.5248 27.8976 31.5377 27.8928 31.5516C27.8881 31.5655 27.8861 31.5803 27.887 31.595C27.8879 31.6097 27.8917 31.6241 27.8982 31.6373C27.9047 31.6506 27.9137 31.6624 27.9248 31.6721C27.9358 31.6819 27.9487 31.6894 27.9626 31.6942C27.9765 31.6989 27.9913 31.7009 28.006 31.7C28.0357 31.6981 28.0635 31.6846 28.0831 31.6622C28.1028 31.6399 28.1129 31.6107 28.111 31.581C28.1091 31.5513 28.0956 31.5235 28.0732 31.5039C28.0509 31.4842 28.0217 31.4741 27.992 31.476ZM19.98 32.038C19.9537 32.0421 19.9298 32.0556 19.9127 32.076C19.8956 32.0965 19.8864 32.1224 19.887 32.149C19.8849 32.165 19.8862 32.1812 19.8908 32.1966C19.8955 32.212 19.9034 32.2263 19.914 32.2384C19.9246 32.2505 19.9376 32.2602 19.9523 32.2669C19.967 32.2736 19.9829 32.277 19.999 32.277C20.0151 32.277 20.031 32.2736 20.0457 32.2669C20.0604 32.2602 20.0734 32.2505 20.084 32.2384C20.0946 32.2263 20.1025 32.212 20.1072 32.1966C20.1118 32.1812 20.1131 32.165 20.111 32.149C20.111 32.089 20.061 32.039 20 32.038H19.98ZM27.98 32.038C27.9537 32.0421 27.9298 32.0556 27.9127 32.076C27.8956 32.0965 27.8864 32.1224 27.887 32.149C27.8849 32.165 27.8862 32.1812 27.8908 32.1966C27.8955 32.212 27.9034 32.2263 27.914 32.2384C27.9246 32.2505 27.9376 32.2602 27.9523 32.2669C27.967 32.2736 27.9829 32.277 27.999 32.277C28.0151 32.277 28.031 32.2736 28.0457 32.2669C28.0604 32.2602 28.0734 32.2505 28.084 32.2384C28.0946 32.2263 28.1025 32.212 28.1072 32.1966C28.1118 32.1812 28.1131 32.165 28.111 32.149C28.111 32.089 28.061 32.039 28 32.038H27.98ZM24.98 32.192V32.194C24.8554 32.1961 24.7324 32.2228 24.6181 32.2725C24.5038 32.3223 24.4004 32.3942 24.314 32.484L22.506 34.341C22.331 34.5207 22.2345 34.7625 22.2377 35.0134C22.241 35.2642 22.3438 35.5035 22.5235 35.6785C22.7032 35.8535 22.945 35.95 23.1959 35.9468C23.4467 35.9435 23.686 35.8407 23.861 35.661L25.67 33.801C25.8021 33.6673 25.8913 33.4973 25.9263 33.3126C25.9612 33.128 25.9403 32.9371 25.8663 32.7644C25.7922 32.5917 25.6683 32.445 25.5104 32.343C25.3526 32.241 25.1679 32.1885 24.98 32.192ZM17.531 32.485V32.487C17.4064 32.4891 17.2834 32.5158 17.1691 32.5655C17.0548 32.6153 16.9514 32.6872 16.865 32.777L15.057 34.634C14.9698 34.7229 14.9011 34.8282 14.8547 34.9438C14.8084 35.0594 14.7853 35.183 14.7869 35.3075C14.7885 35.4321 14.8147 35.555 14.8639 35.6694C14.9132 35.7838 14.9846 35.8873 15.074 35.974C15.1631 36.061 15.2686 36.1295 15.3843 36.1756C15.5 36.2217 15.6236 36.2445 15.7482 36.2426C15.8727 36.2408 15.9956 36.2143 16.1099 36.1648C16.2242 36.1152 16.3275 36.0436 16.414 35.954L18.223 34.094C18.3101 34.005 18.3788 33.8997 18.4251 33.784C18.4713 33.6684 18.4943 33.5448 18.4926 33.4203C18.4909 33.2957 18.4647 33.1728 18.4153 33.0584C18.3659 32.9441 18.2945 32.8406 18.205 32.754C18.1159 32.667 18.0105 32.5984 17.8949 32.5522C17.7792 32.5061 17.6555 32.4832 17.531 32.485ZM32.25 32.485V32.487C32.1254 32.4891 32.0023 32.5158 31.8881 32.5655C31.7738 32.6153 31.6704 32.6872 31.584 32.777L29.775 34.634C29.6879 34.723 29.6192 34.8283 29.5729 34.944C29.5267 35.0596 29.5037 35.1832 29.5054 35.3077C29.5071 35.4323 29.5333 35.5552 29.5827 35.6696C29.6321 35.7839 29.7035 35.8874 29.793 35.974C29.8821 36.0611 29.9875 36.1297 30.1032 36.1759C30.2189 36.2221 30.3426 36.2449 30.4672 36.243C30.5917 36.2412 30.7147 36.2147 30.829 36.1651C30.9433 36.1155 31.0466 36.0437 31.133 35.954L32.941 34.094C33.0282 34.0051 33.0969 33.8998 33.1433 33.7842C33.1896 33.6686 33.2127 33.545 33.2111 33.4205C33.2095 33.2959 33.1833 33.173 33.1341 33.0586C33.0848 32.9442 33.0134 32.8407 32.924 32.754C32.8349 32.667 32.7295 32.5984 32.6138 32.5522C32.4982 32.5061 32.3745 32.4832 32.25 32.485ZM19.98 32.6C19.9589 32.6034 19.9393 32.6128 19.9233 32.6271C19.9074 32.6413 19.8959 32.6598 19.8901 32.6804C19.8844 32.701 19.8846 32.7227 19.8909 32.7432C19.8971 32.7636 19.909 32.7818 19.9253 32.7957C19.9415 32.8096 19.9614 32.8185 19.9826 32.8215C20.0037 32.8244 20.0253 32.8213 20.0447 32.8123C20.0641 32.8034 20.0806 32.7892 20.0921 32.7712C20.1037 32.7533 20.1099 32.7324 20.11 32.711C20.1095 32.682 20.0977 32.6543 20.0772 32.6338C20.0567 32.6133 20.029 32.6015 20 32.601H19.98V32.6ZM27.98 32.6C27.9589 32.6034 27.9393 32.6128 27.9233 32.6271C27.9074 32.6413 27.8959 32.6598 27.8901 32.6804C27.8844 32.701 27.8846 32.7227 27.8909 32.7432C27.8971 32.7636 27.909 32.7818 27.9253 32.7957C27.9415 32.8096 27.9614 32.8185 27.9826 32.8215C28.0037 32.8244 28.0253 32.8213 28.0447 32.8123C28.0641 32.8034 28.0806 32.7892 28.0921 32.7712C28.1037 32.7533 28.1099 32.7324 28.11 32.711C28.1095 32.682 28.0977 32.6543 28.0772 32.6338C28.0567 32.6133 28.029 32.6015 28 32.601H27.98V32.6ZM20.002 33.161C19.987 33.1611 19.9722 33.1642 19.9585 33.1701C19.9447 33.1759 19.9322 33.1844 19.9217 33.1951C19.9112 33.2058 19.9029 33.2184 19.8973 33.2323C19.8917 33.2462 19.8889 33.261 19.889 33.276C19.889 33.338 19.939 33.386 20.002 33.386C20.0165 33.3861 20.0309 33.3834 20.0444 33.3779C20.0579 33.3724 20.0701 33.3644 20.0804 33.3541C20.0907 33.3439 20.0989 33.3317 20.1045 33.3183C20.1101 33.3049 20.113 33.2905 20.113 33.276C20.1133 33.2461 20.1018 33.2173 20.081 33.1958C20.0603 33.1743 20.0319 33.1618 20.002 33.161ZM28.002 33.161C27.987 33.1611 27.9722 33.1642 27.9585 33.1701C27.9447 33.1759 27.9322 33.1844 27.9217 33.1951C27.9112 33.2058 27.9029 33.2184 27.8973 33.2323C27.8917 33.2462 27.8889 33.261 27.889 33.276C27.889 33.338 27.939 33.386 28.002 33.386C28.0165 33.3861 28.0309 33.3834 28.0444 33.3779C28.0579 33.3724 28.0701 33.3644 28.0804 33.3541C28.0907 33.3439 28.0989 33.3317 28.1045 33.3183C28.1101 33.3049 28.113 33.2905 28.113 33.276C28.1133 33.2461 28.1018 33.2173 28.081 33.1958C28.0603 33.1743 28.0319 33.1618 28.002 33.161ZM19.992 33.724C19.9634 33.7258 19.9365 33.7385 19.9169 33.7595C19.8974 33.7806 19.8867 33.8083 19.887 33.837C19.887 33.898 19.937 33.949 20 33.948C20.0298 33.948 20.0585 33.9361 20.0795 33.9151C20.1006 33.894 20.1125 33.8653 20.1125 33.8355C20.1125 33.8057 20.1006 33.7771 20.0795 33.756C20.0585 33.7349 20.0298 33.723 20 33.723H19.992V33.724ZM27.992 33.724C27.9634 33.7258 27.9365 33.7385 27.9169 33.7595C27.8974 33.7806 27.8867 33.8083 27.887 33.837C27.887 33.898 27.937 33.949 28 33.948C28.0298 33.948 28.0585 33.9361 28.0795 33.9151C28.1006 33.894 28.1125 33.8653 28.1125 33.8355C28.1125 33.8057 28.1006 33.7771 28.0795 33.756C28.0585 33.7349 28.0298 33.723 28 33.723H27.992V33.724ZM19.992 34.286C19.9623 34.2879 19.9345 34.3014 19.9149 34.3238C19.8952 34.3461 19.8851 34.3753 19.887 34.405C19.8889 34.4347 19.9024 34.4625 19.9248 34.4821C19.9471 34.5018 19.9763 34.5119 20.006 34.51C20.0207 34.5091 20.0351 34.5053 20.0483 34.4988C20.0616 34.4923 20.0734 34.4833 20.0831 34.4722C20.0929 34.4612 20.1004 34.4483 20.1052 34.4344C20.1099 34.4205 20.1119 34.4057 20.111 34.391C20.1101 34.3763 20.1063 34.3619 20.0998 34.3487C20.0933 34.3354 20.0843 34.3236 20.0732 34.3139C20.0622 34.3041 20.0493 34.2966 20.0354 34.2918C20.0215 34.2871 20.0067 34.2851 19.992 34.286ZM27.992 34.286C27.9623 34.2879 27.9345 34.3014 27.9149 34.3238C27.8952 34.3461 27.8851 34.3753 27.887 34.405C27.8889 34.4347 27.9024 34.4625 27.9248 34.4821C27.9471 34.5018 27.9763 34.5119 28.006 34.51C28.0207 34.5091 28.0351 34.5053 28.0483 34.4988C28.0616 34.4923 28.0734 34.4833 28.0831 34.4722C28.0929 34.4612 28.1004 34.4483 28.1052 34.4344C28.1099 34.4205 28.1119 34.4057 28.111 34.391C28.1101 34.3763 28.1063 34.3619 28.0998 34.3487C28.0933 34.3354 28.0843 34.3236 28.0732 34.3139C28.0622 34.3041 28.0493 34.2966 28.0354 34.2918C28.0215 34.2871 28.0067 34.2851 27.992 34.286ZM19.992 34.849C19.9639 34.8508 19.9374 34.8631 19.918 34.8834C19.8985 34.9038 19.8874 34.9308 19.887 34.959C19.887 35.023 19.937 35.076 20 35.075C20.0299 35.0742 20.0583 35.0617 20.079 35.0402C20.0998 35.0187 20.1113 34.9899 20.111 34.96C20.111 34.9447 20.1079 34.9295 20.1019 34.9155C20.0958 34.9014 20.0869 34.8887 20.0758 34.8782C20.0646 34.8677 20.0514 34.8596 20.037 34.8544C20.0226 34.8492 20.0073 34.847 19.992 34.848V34.849ZM27.992 34.849C27.9639 34.8508 27.9374 34.8631 27.918 34.8834C27.8985 34.9038 27.8874 34.9308 27.887 34.959C27.887 35.023 27.937 35.076 28 35.075C28.0299 35.0742 28.0583 35.0617 28.079 35.0402C28.0998 35.0187 28.1113 34.9899 28.111 34.96C28.111 34.9447 28.1079 34.9295 28.1019 34.9155C28.0958 34.9014 28.0869 34.8887 28.0758 34.8782C28.0646 34.8677 28.0514 34.8596 28.037 34.8544C28.0226 34.8492 28.0073 34.847 27.992 34.848V34.849ZM19.992 35.411C19.9638 35.413 19.9373 35.4255 19.9179 35.4461C19.8985 35.4666 19.8874 35.4937 19.887 35.522C19.887 35.585 19.937 35.638 20 35.638C20.0301 35.6372 20.0586 35.6246 20.0794 35.6029C20.1002 35.5811 20.1115 35.5521 20.111 35.522C20.1109 35.5068 20.1077 35.4917 20.1016 35.4778C20.0954 35.4638 20.0865 35.4513 20.0754 35.4409C20.0643 35.4305 20.0511 35.4225 20.0368 35.4173C20.0224 35.4122 20.0072 35.41 19.992 35.411ZM27.992 35.411C27.9638 35.413 27.9373 35.4255 27.9179 35.4461C27.8985 35.4666 27.8874 35.4937 27.887 35.522C27.887 35.585 27.937 35.638 28 35.638C28.0301 35.6372 28.0586 35.6246 28.0794 35.6029C28.1002 35.5811 28.1115 35.5521 28.111 35.522C28.1109 35.5068 28.1077 35.4917 28.1016 35.4778C28.0954 35.4638 28.0865 35.4513 28.0754 35.4409C28.0643 35.4305 28.0511 35.4225 28.0368 35.4173C28.0224 35.4122 28.0072 35.41 27.992 35.411ZM19.992 35.974C19.9623 35.9759 19.9345 35.9894 19.9149 36.0118C19.8952 36.0341 19.8851 36.0633 19.887 36.093C19.8889 36.1227 19.9024 36.1505 19.9248 36.1701C19.9471 36.1898 19.9763 36.1999 20.006 36.198C20.0358 36.1961 20.0637 36.1825 20.0835 36.1601C20.1033 36.1377 20.1134 36.1083 20.1115 36.0785C20.1096 36.0487 20.096 36.0208 20.0736 36.001C20.0512 35.9812 20.0218 35.9711 19.992 35.973V35.974ZM27.992 35.974C27.9623 35.9759 27.9345 35.9894 27.9149 36.0118C27.8952 36.0341 27.8851 36.0633 27.887 36.093C27.8889 36.1227 27.9024 36.1505 27.9248 36.1701C27.9471 36.1898 27.9763 36.1999 28.006 36.198C28.0358 36.1961 28.0637 36.1825 28.0835 36.1601C28.1033 36.1377 28.1134 36.1083 28.1115 36.0785C28.1096 36.0487 28.096 36.0208 28.0736 36.001C28.0512 35.9812 28.0218 35.9711 27.992 35.973V35.974ZM19.992 36.536C19.9627 36.537 19.9349 36.5496 19.9147 36.5709C19.8945 36.5922 19.8835 36.6206 19.884 36.6499C19.8845 36.6793 19.8966 36.7073 19.9175 36.7278C19.9385 36.7484 19.9666 36.7599 19.996 36.7599C20.0254 36.7599 20.0535 36.7484 20.0745 36.7278C20.0954 36.7073 20.1075 36.6793 20.108 36.6499C20.1085 36.6206 20.0975 36.5922 20.0773 36.5709C20.0571 36.5496 20.0293 36.537 20 36.536C19.9973 36.5359 19.9947 36.5359 19.992 36.536ZM27.992 36.536C27.9627 36.537 27.9349 36.5496 27.9147 36.5709C27.8945 36.5922 27.8835 36.6206 27.884 36.6499C27.8845 36.6793 27.8966 36.7073 27.9175 36.7278C27.9385 36.7484 27.9666 36.7599 27.996 36.7599C28.0254 36.7599 28.0535 36.7484 28.0745 36.7278C28.0954 36.7073 28.1075 36.6793 28.108 36.6499C28.1085 36.6206 28.0975 36.5922 28.0773 36.5709C28.0571 36.5496 28.0293 36.537 28 36.536C27.9973 36.5359 27.9947 36.5359 27.992 36.536ZM19.98 37.099C19.9539 37.1031 19.9301 37.1165 19.913 37.1367C19.8959 37.1569 19.8867 37.1825 19.887 37.209C19.887 37.2387 19.8988 37.2672 19.9198 37.2882C19.9408 37.3092 19.9693 37.321 19.999 37.321C20.0287 37.321 20.0572 37.3092 20.0782 37.2882C20.0992 37.2672 20.111 37.2387 20.111 37.209C20.111 37.149 20.061 37.099 20 37.099H19.98ZM27.98 37.099C27.9539 37.1031 27.9301 37.1165 27.913 37.1367C27.8959 37.1569 27.8867 37.1825 27.887 37.209C27.887 37.2387 27.8988 37.2672 27.9198 37.2882C27.9408 37.3092 27.9693 37.321 27.999 37.321C28.0287 37.321 28.0572 37.3092 28.0782 37.2882C28.0992 37.2672 28.111 37.2387 28.111 37.209C28.111 37.149 28.061 37.099 28 37.099H27.98ZM24.98 37.454V37.456C24.8554 37.4579 24.7325 37.4845 24.6182 37.5341C24.5039 37.5837 24.4005 37.6553 24.314 37.745L22.506 39.602C22.4193 39.691 22.351 39.7961 22.305 39.9115C22.259 40.0269 22.2361 40.1502 22.2377 40.2744C22.2394 40.3986 22.2654 40.5212 22.3145 40.6354C22.3635 40.7495 22.4345 40.8528 22.5235 40.9395C22.6125 41.0262 22.7176 41.0945 22.833 41.1405C22.9484 41.1865 23.0717 41.2094 23.1959 41.2078C23.3201 41.2061 23.4427 41.1801 23.5569 41.131C23.671 41.082 23.7743 41.011 23.861 40.922L25.67 39.063C25.8021 38.9293 25.8913 38.7593 25.9263 38.5746C25.9612 38.39 25.9403 38.1991 25.8663 38.0264C25.7922 37.8537 25.6683 37.707 25.5104 37.605C25.3526 37.503 25.1679 37.4505 24.98 37.454ZM19.992 37.661C19.9627 37.662 19.9349 37.6746 19.9147 37.6959C19.8945 37.7172 19.8835 37.7456 19.884 37.7749C19.8845 37.8043 19.8966 37.8323 19.9175 37.8528C19.9385 37.8734 19.9666 37.8849 19.996 37.8849C20.0254 37.8849 20.0535 37.8734 20.0745 37.8528C20.0954 37.8323 20.1075 37.8043 20.108 37.7749C20.1085 37.7456 20.0975 37.7172 20.0773 37.6959C20.0571 37.6746 20.0293 37.662 20 37.661H19.992ZM27.992 37.661C27.9627 37.662 27.9349 37.6746 27.9147 37.6959C27.8945 37.7172 27.8835 37.7456 27.884 37.7749C27.8845 37.8043 27.8966 37.8323 27.9175 37.8528C27.9385 37.8734 27.9666 37.8849 27.996 37.8849C28.0254 37.8849 28.0535 37.8734 28.0745 37.8528C28.0954 37.8323 28.1075 37.8043 28.108 37.7749C28.1085 37.7456 28.0975 37.7172 28.0773 37.6959C28.0571 37.6746 28.0293 37.662 28 37.661H27.992ZM19.992 38.224C19.9634 38.2258 19.9365 38.2385 19.9169 38.2595C19.8974 38.2806 19.8867 38.3083 19.887 38.337C19.887 38.398 19.937 38.447 20 38.447C20.0145 38.4471 20.0289 38.4444 20.0424 38.4389C20.0559 38.4334 20.0681 38.4254 20.0784 38.4151C20.0887 38.4049 20.0969 38.3927 20.1025 38.3793C20.1081 38.3659 20.111 38.3515 20.111 38.337C20.1113 38.3215 20.1084 38.3061 20.1025 38.2918C20.0965 38.2775 20.0877 38.2646 20.0765 38.2539C20.0653 38.2432 20.052 38.2349 20.0375 38.2296C20.0229 38.2243 20.0075 38.222 19.992 38.223V38.224ZM27.992 38.224C27.9634 38.2258 27.9365 38.2385 27.9169 38.2595C27.8974 38.2806 27.8867 38.3083 27.887 38.337C27.887 38.398 27.937 38.447 28 38.447C28.0145 38.4471 28.0289 38.4444 28.0424 38.4389C28.0559 38.4334 28.0681 38.4254 28.0784 38.4151C28.0887 38.4049 28.0969 38.3927 28.1025 38.3793C28.1081 38.3659 28.111 38.3515 28.111 38.337C28.1113 38.3215 28.1084 38.3061 28.1025 38.2918C28.0965 38.2775 28.0877 38.2646 28.0765 38.2539C28.0653 38.2432 28.052 38.2349 28.0375 38.2296C28.0229 38.2243 28.0075 38.222 27.992 38.223V38.224ZM19.992 38.786C19.9773 38.7869 19.9629 38.7907 19.9497 38.7972C19.9364 38.8037 19.9246 38.8127 19.9149 38.8238C19.9051 38.8348 19.8976 38.8477 19.8928 38.8616C19.8881 38.8755 19.8861 38.8903 19.887 38.905C19.8879 38.9197 19.8917 38.9341 19.8982 38.9473C19.9047 38.9606 19.9137 38.9724 19.9248 38.9821C19.9358 38.9919 19.9487 38.9994 19.9626 39.0042C19.9765 39.0089 19.9913 39.0109 20.006 39.01C20.0357 39.0081 20.0635 38.9946 20.0831 38.9722C20.1028 38.9499 20.1129 38.9207 20.111 38.891C20.1091 38.8613 20.0956 38.8335 20.0732 38.8139C20.0509 38.7942 20.0217 38.7841 19.992 38.786ZM27.992 38.786C27.9773 38.7869 27.9629 38.7907 27.9497 38.7972C27.9364 38.8037 27.9246 38.8127 27.9149 38.8238C27.9051 38.8348 27.8976 38.8477 27.8928 38.8616C27.8881 38.8755 27.8861 38.8903 27.887 38.905C27.8879 38.9197 27.8917 38.9341 27.8982 38.9473C27.9047 38.9606 27.9137 38.9724 27.9248 38.9821C27.9358 38.9919 27.9487 38.9994 27.9626 39.0042C27.9765 39.0089 27.9913 39.0109 28.006 39.01C28.0357 39.0081 28.0635 38.9946 28.0831 38.9722C28.1028 38.9499 28.1129 38.9207 28.111 38.891C28.1091 38.8613 28.0956 38.8335 28.0732 38.8139C28.0509 38.7942 28.0217 38.7841 27.992 38.786ZM19.992 39.349C19.9639 39.3503 19.9373 39.3623 19.9178 39.3826C19.8982 39.4029 19.8872 39.4298 19.887 39.458C19.887 39.521 19.937 39.573 20 39.573C20.0299 39.5722 20.0583 39.5597 20.079 39.5382C20.0998 39.5167 20.1113 39.4879 20.111 39.458C20.1111 39.4428 20.1079 39.4277 20.1019 39.4137C20.0958 39.3997 20.0869 39.3872 20.0757 39.3769C20.0645 39.3665 20.0513 39.3586 20.0369 39.3536C20.0225 39.3487 20.0072 39.3468 19.992 39.348V39.349ZM27.992 39.349C27.9639 39.3503 27.9373 39.3623 27.9178 39.3826C27.8982 39.4029 27.8872 39.4298 27.887 39.458C27.887 39.521 27.937 39.573 28 39.573C28.0299 39.5722 28.0583 39.5597 28.079 39.5382C28.0998 39.5167 28.1113 39.4879 28.111 39.458C28.1111 39.4428 28.1079 39.4277 28.1019 39.4137C28.0958 39.3997 28.0869 39.3872 28.0757 39.3769C28.0645 39.3665 28.0513 39.3586 28.0369 39.3536C28.0225 39.3487 28.0072 39.3468 27.992 39.348V39.349ZM19.992 39.911C19.9637 39.9123 19.937 39.9244 19.9174 39.9449C19.8979 39.9654 19.887 39.9927 19.887 40.021C19.887 40.083 19.937 40.136 20 40.136C20.0301 40.1352 20.0586 40.1226 20.0794 40.1009C20.1002 40.0791 20.1115 40.0501 20.111 40.02C20.1108 40.0049 20.1075 39.99 20.1013 39.9762C20.0951 39.9624 20.0861 39.9501 20.075 39.9399C20.0638 39.9297 20.0507 39.9218 20.0365 39.9169C20.0222 39.9119 20.0071 39.9099 19.992 39.911ZM27.992 39.911C27.9637 39.9123 27.937 39.9244 27.9174 39.9449C27.8979 39.9654 27.887 39.9927 27.887 40.021C27.887 40.083 27.937 40.136 28 40.136C28.0301 40.1352 28.0586 40.1226 28.0794 40.1009C28.1002 40.0791 28.1115 40.0501 28.111 40.02C28.1108 40.0049 28.1075 39.99 28.1013 39.9762C28.0951 39.9624 28.0861 39.9501 28.075 39.9399C28.0638 39.9297 28.0507 39.9218 28.0365 39.9169C28.0222 39.9119 28.0071 39.9099 27.992 39.911ZM19.992 40.474C19.9639 40.4753 19.9373 40.4873 19.9178 40.5076C19.8982 40.5279 19.8872 40.5548 19.887 40.583C19.887 40.646 19.937 40.698 20 40.698C20.0299 40.6972 20.0583 40.6847 20.079 40.6632C20.0998 40.6417 20.1113 40.6129 20.111 40.583C20.1111 40.5678 20.1079 40.5527 20.1019 40.5387C20.0958 40.5247 20.0869 40.5122 20.0757 40.5019C20.0645 40.4915 20.0513 40.4836 20.0369 40.4786C20.0225 40.4737 20.0072 40.4718 19.992 40.473V40.474ZM27.992 40.474C27.9639 40.4753 27.9373 40.4873 27.9178 40.5076C27.8982 40.5279 27.8872 40.5548 27.887 40.583C27.887 40.646 27.937 40.698 28 40.698C28.0299 40.6972 28.0583 40.6847 28.079 40.6632C28.0998 40.6417 28.1113 40.6129 28.111 40.583C28.1111 40.5678 28.1079 40.5527 28.1019 40.5387C28.0958 40.5247 28.0869 40.5122 28.0757 40.5019C28.0645 40.4915 28.0513 40.4836 28.0369 40.4786C28.0225 40.4737 28.0072 40.4718 27.992 40.473V40.474ZM19.98 41.036C19.9538 41.0403 19.93 41.0539 19.9129 41.0742C19.8958 41.0946 19.8866 41.1204 19.887 41.147C19.8868 41.1692 19.8932 41.1909 19.9053 41.2094C19.9175 41.2279 19.9348 41.2424 19.9552 41.2511C19.9756 41.2597 19.9981 41.2622 20.0199 41.258C20.0416 41.2539 20.0617 41.2434 20.0775 41.2279C20.0933 41.2124 20.1041 41.1925 20.1086 41.1708C20.1132 41.1491 20.1111 41.1266 20.1028 41.1061C20.0946 41.0855 20.0804 41.0679 20.0621 41.0554C20.0437 41.043 20.0222 41.0362 20 41.036H19.98ZM27.98 41.036C27.9538 41.0403 27.93 41.0539 27.9129 41.0742C27.8958 41.0946 27.8866 41.1204 27.887 41.147C27.8868 41.1692 27.8932 41.1909 27.9053 41.2094C27.9175 41.2279 27.9348 41.2424 27.9552 41.2511C27.9756 41.2597 27.9981 41.2622 28.0199 41.258C28.0416 41.2539 28.0617 41.2434 28.0775 41.2279C28.0933 41.2124 28.1041 41.1925 28.1086 41.1708C28.1132 41.1491 28.1111 41.1266 28.1028 41.1061C28.0946 41.0855 28.0804 41.0679 28.0621 41.0554C28.0437 41.043 28.0222 41.0362 28 41.036H27.98ZM19.98 41.599C19.9539 41.6031 19.9301 41.6165 19.913 41.6367C19.8959 41.6569 19.8867 41.6825 19.887 41.709C19.887 41.7387 19.8988 41.7672 19.9198 41.7882C19.9408 41.8092 19.9693 41.821 19.999 41.821C20.0287 41.821 20.0572 41.8092 20.0782 41.7882C20.0992 41.7672 20.111 41.7387 20.111 41.709C20.111 41.649 20.061 41.599 20 41.599H19.98ZM27.98 41.599C27.9539 41.6031 27.9301 41.6165 27.913 41.6367C27.8959 41.6569 27.8867 41.6825 27.887 41.709C27.887 41.7387 27.8988 41.7672 27.9198 41.7882C27.9408 41.8092 27.9693 41.821 27.999 41.821C28.0287 41.821 28.0572 41.8092 28.0782 41.7882C28.0992 41.7672 28.111 41.7387 28.111 41.709C28.111 41.649 28.061 41.599 28 41.599H27.98ZM20.002 42.159C19.9871 42.1589 19.9724 42.1617 19.9586 42.1673C19.9448 42.173 19.9323 42.1813 19.9218 42.1918C19.9113 42.2023 19.903 42.2148 19.8973 42.2286C19.8917 42.2424 19.8889 42.2571 19.889 42.272C19.889 42.334 19.939 42.382 20.002 42.382C20.0165 42.3821 20.0309 42.3794 20.0444 42.3739C20.0579 42.3684 20.0701 42.3604 20.0804 42.3501C20.0907 42.3399 20.0989 42.3277 20.1045 42.3143C20.1101 42.3009 20.113 42.2865 20.113 42.272C20.1131 42.2573 20.1104 42.2427 20.1049 42.2291C20.0994 42.2154 20.0912 42.203 20.0809 42.1925C20.0706 42.182 20.0583 42.1737 20.0448 42.1679C20.0312 42.1622 20.0167 42.1591 20.002 42.159ZM28.002 42.159C27.9871 42.1589 27.9724 42.1617 27.9586 42.1673C27.9448 42.173 27.9323 42.1813 27.9218 42.1918C27.9113 42.2023 27.903 42.2148 27.8973 42.2286C27.8917 42.2424 27.8889 42.2571 27.889 42.272C27.889 42.334 27.939 42.382 28.002 42.382C28.0165 42.3821 28.0309 42.3794 28.0444 42.3739C28.0579 42.3684 28.0701 42.3604 28.0804 42.3501C28.0907 42.3399 28.0989 42.3277 28.1045 42.3143C28.1101 42.3009 28.113 42.2865 28.113 42.272C28.1131 42.2573 28.1104 42.2427 28.1049 42.2291C28.0994 42.2154 28.0912 42.203 28.0809 42.1925C28.0706 42.182 28.0583 42.1737 28.0448 42.1679C28.0312 42.1622 28.0167 42.1591 28.002 42.159ZM19.992 42.722C19.9627 42.723 19.9349 42.7356 19.9147 42.7569C19.8945 42.7782 19.8835 42.8066 19.884 42.8359C19.8845 42.8653 19.8966 42.8933 19.9175 42.9138C19.9385 42.9344 19.9666 42.9459 19.996 42.9459C20.0254 42.9459 20.0535 42.9344 20.0745 42.9138C20.0954 42.8933 20.1075 42.8653 20.108 42.8359C20.1085 42.8066 20.0975 42.7782 20.0773 42.7569C20.0571 42.7356 20.0293 42.723 20 42.722C19.9973 42.7218 19.9947 42.7218 19.992 42.722ZM27.992 42.722C27.9627 42.723 27.9349 42.7356 27.9147 42.7569C27.8945 42.7782 27.8835 42.8066 27.884 42.8359C27.8845 42.8653 27.8966 42.8933 27.9175 42.9138C27.9385 42.9344 27.9666 42.9459 27.996 42.9459C28.0254 42.9459 28.0535 42.9344 28.0745 42.9138C28.0954 42.8933 28.1075 42.8653 28.108 42.8359C28.1085 42.8066 28.0975 42.7782 28.0773 42.7569C28.0571 42.7356 28.0293 42.723 28 42.722C27.9973 42.7218 27.9947 42.7218 27.992 42.722Z" fill="#333333"/>
</svg>
