<svg width="48" height="48" viewBox="0 0 48 48" fill="none" xmlns="http://www.w3.org/2000/svg">
<path d="M23.998 4.09169C20.7303 4.10255 17.4631 4.12489 14.1465 4.12489C13.277 4.12489 12.5801 4.82381 12.5801 5.69325V42.5546C12.5801 43.424 13.277 44.1249 14.1465 44.1249H33.8516C34.721 44.1249 35.4199 43.424 35.4199 42.5546V5.69325C35.4199 4.82381 34.721 4.12489 33.8516 4.12489C30.5339 4.08145 27.2658 4.08083 23.998 4.09169ZM23.9922 4.62685C23.996 4.62677 23.9974 4.62677 24 4.62685C24.0612 4.6276 24.1109 4.67695 24.1113 4.73817C24.1121 4.80016 24.062 4.85096 24 4.85146C23.9373 4.85183 23.8861 4.80092 23.8867 4.73817C23.8871 4.67884 23.9332 4.6304 23.9922 4.62685ZM23.9922 5.18935C23.996 5.18927 23.9974 5.18927 24 5.18935C24.0612 5.1901 24.1109 5.23945 24.1113 5.30067C24.1121 5.36266 24.062 5.41346 24 5.41396C23.9373 5.41433 23.8861 5.36342 23.8867 5.30067C23.8871 5.24171 23.9332 5.1929 23.9922 5.18935ZM23.9824 5.75185H23.9844C23.9919 5.75128 23.9924 5.75128 24 5.75185C24.0612 5.7526 24.1109 5.80195 24.1113 5.86317C24.1109 5.92478 24.0612 5.97401 24 5.9745C23.9376 5.97488 23.8872 5.92516 23.8867 5.86317C23.8863 5.80799 23.928 5.75941 23.9824 5.75185ZM29.2148 6.21278C30.0985 6.21282 30.8144 6.92878 30.8145 7.81239C30.8144 8.69605 30.0985 9.412 29.2148 9.412C28.3312 9.412 27.6153 8.69605 27.6152 7.81239C27.6153 6.92878 28.3312 6.21282 29.2148 6.21278ZM18.7852 6.30263C19.6688 6.30266 20.3847 7.01862 20.3848 7.90224C20.3847 8.78589 19.6688 9.50185 18.7852 9.50185C17.9015 9.50185 17.1856 8.78589 17.1855 7.90224C17.1856 7.01862 17.9015 6.30266 18.7852 6.30263ZM24.002 6.31239C24.0643 6.31315 24.1138 6.36369 24.1133 6.42567C24.1125 6.48728 24.0632 6.53651 24.002 6.537C23.9396 6.53776 23.8892 6.48766 23.8887 6.42567C23.8883 6.36293 23.9392 6.31179 24.002 6.31239ZM23.9922 6.87489C23.996 6.87478 23.9974 6.87478 24 6.87489C24.062 6.87565 24.112 6.92619 24.1113 6.98817C24.1109 7.0494 24.0612 7.09901 24 7.0995C23.9376 7.09988 23.8872 7.05016 23.8867 6.98817C23.886 6.92808 23.9325 6.87848 23.9922 6.87489ZM23.9922 7.43544C23.996 7.43536 23.9974 7.43536 24 7.43544C24.062 7.4362 24.112 7.48674 24.1113 7.54872C24.1109 7.61033 24.0612 7.6596 24 7.66005C23.9376 7.66043 23.8873 7.6107 23.8867 7.54872C23.886 7.48863 23.9325 7.43907 23.9922 7.43544ZM23.9922 7.99794C23.996 7.99786 23.9974 7.99786 24 7.99794C24.062 7.9987 24.112 8.04924 24.1113 8.11122C24.1109 8.17283 24.0612 8.22206 24 8.22255C23.9376 8.22293 23.8873 8.1732 23.8867 8.11122C23.886 8.05113 23.9325 8.00153 23.9922 7.99794ZM23.9922 8.56044C23.996 8.56036 23.9974 8.56036 24 8.56044C24.0612 8.5612 24.1109 8.61054 24.1113 8.67177C24.1121 8.73375 24.062 8.78456 24 8.78505C23.9373 8.78543 23.8862 8.73451 23.8867 8.67177C23.8871 8.61281 23.9332 8.56399 23.9922 8.56044ZM23.9922 9.12294C23.996 9.12283 23.9974 9.12283 24 9.12294C24.0612 9.1237 24.1109 9.17304 24.1113 9.23427C24.1121 9.29625 24.062 9.34706 24 9.34755C23.9373 9.34793 23.8862 9.29701 23.8867 9.23427C23.8871 9.17493 23.9332 9.12649 23.9922 9.12294ZM23.9805 9.68544H23.9844C23.9919 9.68487 23.9924 9.68487 24 9.68544C24.0612 9.6862 24.1109 9.73749 24.1113 9.79872C24.1121 9.8607 24.062 9.91151 24 9.912C23.9373 9.91238 23.8862 9.86146 23.8867 9.79872C23.8863 9.74354 23.926 9.693 23.9805 9.68544ZM24.002 10.246C24.0643 10.2467 24.1138 10.2992 24.1133 10.3612C24.1125 10.4228 24.0632 10.4701 24.002 10.4706C23.9396 10.471 23.8892 10.4232 23.8887 10.3612C23.8883 10.2985 23.9392 10.2454 24.002 10.246ZM24.002 10.8085C24.0643 10.8092 24.1138 10.8598 24.1133 10.9218C24.1125 10.983 24.0632 11.0326 24.002 11.0331C23.9396 11.0342 23.8892 10.9837 23.8887 10.9218C23.8883 10.859 23.9392 10.8079 24.002 10.8085ZM23.9922 11.371C23.996 11.3709 23.9974 11.3709 24 11.371C24.062 11.3717 24.1119 11.4223 24.1113 11.4843C24.1109 11.5455 24.0612 11.5971 24 11.5975C23.9376 11.5983 23.8872 11.5462 23.8867 11.4843C23.886 11.4242 23.9325 11.3746 23.9922 11.371ZM29.2148 11.6268C30.0985 11.6269 30.8144 12.3428 30.8145 13.2265C30.8144 14.1101 30.0985 14.8261 29.2148 14.8261C28.3312 14.8261 27.6153 14.1101 27.6152 13.2265C27.6153 12.3428 28.3312 11.6269 29.2148 11.6268ZM18.7852 11.7167C19.6688 11.7167 20.3847 12.4327 20.3848 13.3163C20.3847 14.2 19.6688 14.9159 18.7852 14.9159C17.9015 14.9159 17.1856 14.2 17.1855 13.3163C17.1856 12.4327 17.9015 11.7167 18.7852 11.7167ZM23.9922 11.9335C23.996 11.9334 23.9974 11.9334 24 11.9335C24.062 11.9339 24.1119 11.9848 24.1113 12.0468C24.1109 12.108 24.0612 12.1596 24 12.16C23.9376 12.1608 23.8872 12.1087 23.8867 12.0468C23.886 11.9867 23.9325 11.9371 23.9922 11.9335ZM23.9922 12.496C23.996 12.4959 23.9974 12.4959 24 12.496C24.0612 12.4967 24.1109 12.5461 24.1113 12.6073C24.1121 12.6693 24.062 12.7201 24 12.7206C23.9373 12.721 23.8861 12.6701 23.8867 12.6073C23.8871 12.548 23.9332 12.4996 23.9922 12.496ZM23.9922 13.0585C23.996 13.0584 23.9974 13.0584 24 13.0585C24.0612 13.0592 24.1109 13.1086 24.1113 13.1698C24.1121 13.2318 24.062 13.2826 24 13.2831C23.9373 13.2835 23.8861 13.2326 23.8867 13.1698C23.8871 13.1109 23.9332 13.0621 23.9922 13.0585ZM23.9922 13.621C23.996 13.6209 23.9974 13.6209 24 13.621C24.0612 13.6214 24.1109 13.6711 24.1113 13.7323C24.1121 13.7943 24.062 13.8451 24 13.8456C23.9373 13.846 23.8861 13.7951 23.8867 13.7323C23.8871 13.6734 23.9332 13.6246 23.9922 13.621ZM23.9805 14.1835H23.9844C23.9919 14.1829 23.9924 14.1829 24 14.1835C24.0612 14.1839 24.1109 14.2336 24.1113 14.2948C24.1121 14.3568 24.062 14.4076 24 14.4081C23.9373 14.4085 23.8861 14.3576 23.8867 14.2948C23.8863 14.24 23.926 14.1911 23.9805 14.1835ZM23.9805 14.746H23.9824C23.99 14.7454 23.9924 14.7454 24 14.746C24.0612 14.7467 24.1109 14.7961 24.1113 14.8573C24.1109 14.9185 24.0612 14.9682 24 14.9686C23.9376 14.969 23.8872 14.9193 23.8867 14.8573C23.8863 14.8021 23.926 14.7536 23.9805 14.746ZM24.002 15.3065C24.0643 15.3073 24.1138 15.3578 24.1133 15.4198C24.1125 15.481 24.0632 15.5307 24.002 15.5311C23.9396 15.5319 23.8892 15.4818 23.8887 15.4198C23.8883 15.3571 23.9392 15.3059 24.002 15.3065ZM23.9922 15.869C23.996 15.869 23.9974 15.869 24 15.869C24.062 15.8698 24.1119 15.9203 24.1113 15.9823C24.1109 16.0435 24.0612 16.0932 24 16.0936C23.9376 16.0944 23.8872 16.0443 23.8867 15.9823C23.886 15.9222 23.9325 15.8726 23.9922 15.869ZM23.9922 16.4315C23.996 16.4315 23.9974 16.4315 24 16.4315C24.062 16.4323 24.1119 16.4828 24.1113 16.5448C24.1109 16.6064 24.0612 16.6557 24 16.6561C23.9376 16.6565 23.8872 16.6068 23.8867 16.5448C23.886 16.4847 23.9325 16.4351 23.9922 16.4315ZM23.9922 16.994C23.996 16.994 23.9974 16.994 24 16.994C24.0612 16.994 24.1109 17.0441 24.1113 17.1054C24.1121 17.1673 24.062 17.2182 24 17.2186C23.9373 17.219 23.8861 17.1681 23.8867 17.1054C23.8871 17.0464 23.9332 16.9976 23.9922 16.994ZM29.2148 17.039C30.0985 17.039 30.8144 17.7549 30.8145 18.6386C30.8144 19.5222 30.0985 20.2382 29.2148 20.2382C28.3312 20.2382 27.6153 19.5222 27.6152 18.6386C27.6153 17.7549 28.3312 17.039 29.2148 17.039ZM18.7852 17.1288C19.6688 17.1288 20.3847 17.8448 20.3848 18.7284C20.3847 19.6121 19.6688 20.328 18.7852 20.328C17.9015 20.328 17.1856 19.6121 17.1855 18.7284C17.1856 17.8448 17.9015 17.1288 18.7852 17.1288ZM23.9922 17.5565C23.996 17.5564 23.9974 17.5564 24 17.5565C24.0612 17.5569 24.1109 17.6066 24.1113 17.6679C24.1121 17.7298 24.062 17.7807 24 17.7811C23.9373 17.7815 23.8861 17.7306 23.8867 17.6679C23.8871 17.6089 23.9332 17.5601 23.9922 17.5565ZM23.9922 18.119C23.996 18.1189 23.9974 18.1189 24 18.119C24.0612 18.1194 24.1109 18.1691 24.1113 18.2304C24.1121 18.2923 24.062 18.3432 24 18.3436C23.9373 18.344 23.8861 18.2931 23.8867 18.2304C23.8871 18.1714 23.9332 18.1226 23.9922 18.119ZM23.9805 18.6815H23.9824C23.99 18.681 23.9924 18.681 24 18.6815C24.0612 18.6823 24.1109 18.7316 24.1113 18.7929C24.1121 18.8548 24.062 18.9057 24 18.9061C23.9373 18.9065 23.8861 18.8556 23.8867 18.7929C23.8863 18.7377 23.926 18.6891 23.9805 18.6815ZM24.002 19.2421C24.0643 19.2428 24.1138 19.2934 24.1133 19.3554C24.1125 19.4166 24.0632 19.4662 24.002 19.4667C23.9396 19.4674 23.8892 19.4173 23.8887 19.3554C23.8883 19.2926 23.9392 19.2415 24.002 19.2421ZM23.9922 19.8046C23.996 19.8045 23.9974 19.8045 24 19.8046C24.062 19.805 24.1119 19.8559 24.1113 19.9179C24.1109 19.9791 24.0612 20.0287 24 20.0292C23.9376 20.0299 23.8872 19.9798 23.8867 19.9179C23.886 19.8578 23.9325 19.8082 23.9922 19.8046ZM23.9922 20.3671C23.996 20.367 23.9974 20.367 24 20.3671C24.062 20.3678 24.1119 20.4184 24.1113 20.4804C24.1109 20.542 24.0612 20.5912 24 20.5917C23.9376 20.5921 23.8872 20.5423 23.8867 20.4804C23.886 20.4203 23.9325 20.3707 23.9922 20.3671ZM23.9922 20.9296C23.996 20.9295 23.9974 20.9295 24 20.9296C24.062 20.9303 24.1119 20.9809 24.1113 21.0429C24.1109 21.1045 24.0612 21.1537 24 21.1542C23.9376 21.1549 23.8872 21.1048 23.8867 21.0429C23.886 20.9828 23.9325 20.9332 23.9922 20.9296ZM23.9922 21.4921C23.996 21.492 23.9974 21.492 24 21.4921C24.0612 21.4925 24.1109 21.5422 24.1113 21.6034C24.1121 21.6654 24.062 21.7162 24 21.7167C23.9373 21.7171 23.8861 21.6661 23.8867 21.6034C23.8871 21.5444 23.9332 21.4957 23.9922 21.4921ZM23.9922 22.0546C23.996 22.0545 23.9974 22.0545 24 22.0546C24.0612 22.055 24.1109 22.1047 24.1113 22.1659C24.1121 22.2279 24.062 22.2787 24 22.2792C23.9373 22.2796 23.8861 22.2286 23.8867 22.1659C23.8871 22.1069 23.9332 22.0582 23.9922 22.0546ZM29.2148 22.4511C30.0985 22.4511 30.8144 23.1671 30.8145 24.0507C30.8144 24.9343 30.0985 25.6503 29.2148 25.6503C28.3312 25.6503 27.6153 24.9343 27.6152 24.0507C27.6153 23.1671 28.3312 22.4511 29.2148 22.4511ZM18.7852 22.5409C19.6688 22.5409 20.3847 23.2569 20.3848 24.1405C20.3847 25.0242 19.6688 25.7401 18.7852 25.7401C17.9015 25.7401 17.1856 25.0242 17.1855 24.1405C17.1856 23.2569 17.9015 22.5409 18.7852 22.5409ZM23.9922 22.6171C23.996 22.617 23.9974 22.617 24 22.6171C24.0612 22.6178 24.1109 22.6672 24.1113 22.7284C24.1121 22.7904 24.062 22.8412 24 22.8417C23.9373 22.8421 23.8861 22.7911 23.8867 22.7284C23.8871 22.6691 23.9332 22.6207 23.9922 22.6171ZM23.9805 23.1796H23.9824C23.99 23.179 23.9924 23.179 24 23.1796C24.0612 23.1803 24.1109 23.2297 24.1113 23.2909C24.1121 23.3529 24.062 23.4037 24 23.4042C23.9373 23.4046 23.8861 23.3536 23.8867 23.2909C23.8863 23.2361 23.926 23.1872 23.9805 23.1796ZM23.9805 23.7421H23.9824C23.99 23.7415 23.9924 23.7415 24 23.7421C24.0612 23.7428 24.1109 23.7922 24.1113 23.8534C24.1109 23.9146 24.0612 23.9642 24 23.9647C23.9376 23.9655 23.8872 23.9154 23.8867 23.8534C23.8863 23.7982 23.926 23.7497 23.9805 23.7421ZM23.9922 24.3026C23.996 24.3026 23.9974 24.3026 24 24.3026C24.062 24.3034 24.1119 24.3539 24.1113 24.4159C24.1109 24.4775 24.0612 24.5267 24 24.5272C23.9376 24.5276 23.8872 24.4779 23.8867 24.4159C23.886 24.3558 23.9325 24.3062 23.9922 24.3026ZM23.9922 24.8651C23.996 24.8651 23.9974 24.8651 24 24.8651C24.062 24.8659 24.1119 24.9164 24.1113 24.9784C24.1109 25.04 24.0612 25.0892 24 25.0897C23.9376 25.0901 23.8872 25.0404 23.8867 24.9784C23.886 24.9183 23.9325 24.8687 23.9922 24.8651ZM23.9922 25.4276C23.996 25.4275 23.9974 25.4275 24 25.4276C24.062 25.4284 24.1119 25.4789 24.1113 25.5409C24.1109 25.6025 24.0612 25.6517 24 25.6522C23.9376 25.653 23.8872 25.6029 23.8867 25.5409C23.886 25.4808 23.9325 25.4312 23.9922 25.4276ZM23.9922 25.9901C23.996 25.99 23.9974 25.99 24 25.9901C24.0612 25.9909 24.1109 26.0402 24.1113 26.1015C24.1121 26.1634 24.062 26.2142 24 26.2147C23.9373 26.2151 23.8861 26.1642 23.8867 26.1015C23.8871 26.0421 23.9332 25.9937 23.9922 25.9901ZM23.9922 26.5526C23.996 26.5526 23.9974 26.5526 24 26.5526C24.0612 26.5534 24.1109 26.6027 24.1113 26.664C24.1121 26.7259 24.062 26.7767 24 26.7772C23.9373 26.7776 23.8861 26.7267 23.8867 26.664C23.8871 26.6046 23.9332 26.5562 23.9922 26.5526ZM23.9922 27.1151C23.996 27.1151 23.9974 27.1151 24 27.1151C24.0612 27.1159 24.1109 27.1652 24.1113 27.2265C24.1121 27.2884 24.062 27.3392 24 27.3397C23.9373 27.3401 23.8861 27.2892 23.8867 27.2265C23.8871 27.1675 23.9332 27.1187 23.9922 27.1151ZM23.9805 27.6776H23.9824C23.99 27.6771 23.9924 27.6771 24 27.6776C24.0612 27.6784 24.1109 27.7277 24.1113 27.789C24.1109 27.8502 24.0612 27.8998 24 27.9003C23.9376 27.901 23.8872 27.8509 23.8867 27.789C23.8863 27.7342 23.926 27.6852 23.9805 27.6776ZM29.2148 27.8632C30.0985 27.8632 30.8144 28.5792 30.8145 29.4628C30.8144 30.3464 30.0985 31.0624 29.2148 31.0624C28.3312 31.0624 27.6153 30.3464 27.6152 29.4628C27.6153 28.5792 28.3312 27.8632 29.2148 27.8632ZM18.7852 27.953C19.6688 27.9531 20.3847 28.669 20.3848 29.5526C20.3847 30.4363 19.6688 31.1522 18.7852 31.1522C17.9015 31.1522 17.1856 30.4363 17.1855 29.5526C17.1856 28.669 17.9015 27.9531 18.7852 27.953ZM24.002 28.2382C24.0643 28.2389 24.1138 28.2895 24.1133 28.3515C24.1125 28.4131 24.0632 28.4623 24.002 28.4628C23.9396 28.4632 23.8892 28.4134 23.8887 28.3515C23.8883 28.2887 23.9392 28.2376 24.002 28.2382ZM23.9922 28.8007C23.996 28.8006 23.9974 28.8006 24 28.8007C24.062 28.8014 24.1119 28.852 24.1113 28.914C24.1109 28.9756 24.0612 29.0248 24 29.0253C23.9376 29.026 23.8872 28.9759 23.8867 28.914C23.886 28.8539 23.9325 28.8043 23.9922 28.8007ZM23.9922 29.3632C23.996 29.3631 23.9974 29.3631 24 29.3632C24.062 29.3639 24.1119 29.4145 24.1113 29.4765C24.1109 29.5381 24.0612 29.5873 24 29.5878C23.9376 29.5882 23.8872 29.5384 23.8867 29.4765C23.886 29.4164 23.9325 29.3668 23.9922 29.3632ZM23.9922 29.9257C23.996 29.9256 23.9974 29.9256 24 29.9257C24.062 29.9264 24.1119 29.977 24.1113 30.039C24.1109 30.1002 24.0612 30.1498 24 30.1503C23.9376 30.1514 23.8872 30.1009 23.8867 30.039C23.886 29.9789 23.9325 29.9293 23.9922 29.9257ZM23.9922 30.4862C23.996 30.4861 23.9974 30.4861 24 30.4862C24.0612 30.487 24.1109 30.5383 24.1113 30.5995C24.1121 30.6615 24.062 30.7123 24 30.7128C23.9373 30.7132 23.8861 30.6622 23.8867 30.5995C23.8871 30.5402 23.9332 30.4898 23.9922 30.4862ZM23.9922 31.0487C23.996 31.0486 23.9974 31.0486 24 31.0487C24.0612 31.0495 24.1109 31.0988 24.1113 31.16C24.1121 31.222 24.062 31.2728 24 31.2733C23.9373 31.2737 23.8861 31.2228 23.8867 31.16C23.8871 31.1011 23.9332 31.0523 23.9922 31.0487ZM23.9805 31.6112H23.9824C23.99 31.6107 23.9924 31.6107 24 31.6112C24.0612 31.612 24.1109 31.6613 24.1113 31.7225C24.1121 31.7845 24.062 31.8353 24 31.8358C23.9373 31.8362 23.8861 31.7853 23.8867 31.7225C23.8863 31.6674 23.926 31.6188 23.9805 31.6112ZM23.9805 32.1737H23.9824C23.99 32.1732 23.9924 32.1732 24 32.1737C24.0612 32.1741 24.1109 32.2238 24.1113 32.285C24.1109 32.3467 24.0612 32.3959 24 32.3964C23.9376 32.3968 23.8872 32.347 23.8867 32.285C23.8863 32.2302 23.926 32.1813 23.9805 32.1737ZM24.002 32.7343C24.0643 32.735 24.1138 32.7875 24.1133 32.8495C24.1125 32.9111 24.0632 32.9584 24.002 32.9589C23.9396 32.9593 23.8892 32.9115 23.8887 32.8495C23.8883 32.7868 23.9392 32.7337 24.002 32.7343ZM29.2148 33.2753C30.0985 33.2753 30.8144 33.9913 30.8145 34.8749C30.8144 35.7585 30.0985 36.4745 29.2148 36.4745C28.3312 36.4745 27.6153 35.7585 27.6152 34.8749C27.6153 33.9913 28.3312 33.2753 29.2148 33.2753ZM23.9922 33.2968C23.996 33.2967 23.9974 33.2967 24 33.2968C24.062 33.2975 24.1119 33.3481 24.1113 33.41C24.1109 33.4717 24.0612 33.5209 24 33.5214C23.9376 33.5221 23.8872 33.472 23.8867 33.41C23.886 33.35 23.9325 33.3004 23.9922 33.2968ZM18.7852 33.3651C19.6688 33.3652 20.3847 34.0811 20.3848 34.9647C20.3847 35.8484 19.6688 36.5643 18.7852 36.5643C17.9015 36.5643 17.1856 35.8484 17.1855 34.9647C17.1856 34.0811 17.9015 33.3652 18.7852 33.3651ZM23.9922 33.8593C23.996 33.8592 23.9974 33.8592 24 33.8593C24.062 33.86 24.1119 33.9106 24.1113 33.9725C24.1109 34.0342 24.0612 34.0834 24 34.0839C23.9376 34.0843 23.8872 34.0345 23.8867 33.9725C23.886 33.9125 23.9325 33.8629 23.9922 33.8593ZM23.9922 34.4218C23.996 34.4217 23.9974 34.4217 24 34.4218C24.0612 34.4225 24.1109 34.4719 24.1113 34.5331C24.1121 34.5951 24.062 34.6459 24 34.6464C23.9373 34.6468 23.8861 34.5958 23.8867 34.5331C23.8871 34.4738 23.9332 34.4254 23.9922 34.4218ZM23.9922 34.9843C23.996 34.9842 23.9974 34.9842 24 34.9843C24.0612 34.985 24.1109 35.0344 24.1113 35.0956C24.1121 35.1576 24.062 35.2084 24 35.2089C23.9373 35.2093 23.8861 35.1583 23.8867 35.0956C23.8871 35.0366 23.9332 34.9879 23.9922 34.9843ZM23.9922 35.5468C23.996 35.5467 23.9974 35.5467 24 35.5468C24.0612 35.5475 24.1109 35.5969 24.1113 35.6581C24.1121 35.7201 24.062 35.7709 24 35.7714C23.9373 35.7718 23.8861 35.7208 23.8867 35.6581C23.8871 35.5991 23.9332 35.5504 23.9922 35.5468ZM23.9922 36.1093C23.996 36.1092 23.9974 36.1092 24 36.1093C24.0612 36.11 24.1109 36.1594 24.1113 36.2206C24.1121 36.2826 24.062 36.3334 24 36.3339C23.9373 36.3343 23.8861 36.2833 23.8867 36.2206C23.8871 36.1613 23.9332 36.1129 23.9922 36.1093ZM23.9805 36.6718H23.9824C23.99 36.6712 23.9924 36.6712 24 36.6718C24.0612 36.6725 24.1109 36.7219 24.1113 36.7831C24.1109 36.8443 24.0612 36.8939 24 36.8944C23.9376 36.8956 23.8872 36.8451 23.8867 36.7831C23.8863 36.7279 23.926 36.6794 23.9805 36.6718ZM23.9922 37.2323C23.996 37.2323 23.9974 37.2323 24 37.2323C24.062 37.2331 24.1119 37.2836 24.1113 37.3456C24.1109 37.4072 24.0612 37.4564 24 37.4569C23.9376 37.4573 23.8872 37.4076 23.8867 37.3456C23.886 37.2855 23.9325 37.2359 23.9922 37.2323ZM23.9922 37.7948C23.996 37.7947 23.9974 37.7947 24 37.7948C24.062 37.7956 24.1119 37.8461 24.1113 37.9081C24.1109 37.9697 24.0612 38.0189 24 38.0194C23.9376 38.0202 23.8872 37.9701 23.8867 37.9081C23.886 37.848 23.9325 37.7984 23.9922 37.7948ZM23.9922 38.3573C23.996 38.3572 23.9974 38.3572 24 38.3573C24.062 38.3581 24.1119 38.4086 24.1113 38.4706C24.1109 38.5322 24.0612 38.5814 24 38.5819C23.9376 38.5823 23.8872 38.5326 23.8867 38.4706C23.886 38.4105 23.9325 38.3609 23.9922 38.3573ZM29.2148 38.6874C30.0985 38.6874 30.8144 39.4034 30.8145 40.287C30.8144 41.1707 30.0985 41.8866 29.2148 41.8866C28.3312 41.8866 27.6153 41.1707 27.6152 40.287C27.6153 39.4034 28.3312 38.6874 29.2148 38.6874ZM18.7852 38.7772C19.6688 38.7773 20.3847 39.4932 20.3848 40.3768C20.3847 41.2605 19.6688 41.9765 18.7852 41.9765C17.9015 41.9765 17.1856 41.2605 17.1855 40.3768C17.1856 39.4932 17.9015 38.7773 18.7852 38.7772ZM23.9922 38.9198C23.996 38.9197 23.9974 38.9197 24 38.9198C24.0612 38.9206 24.1109 38.9699 24.1113 39.0311C24.1121 39.0931 24.062 39.1439 24 39.1444C23.9373 39.1448 23.8861 39.0939 23.8867 39.0311C23.8871 38.9718 23.9332 38.9234 23.9922 38.9198ZM23.9922 39.4823C23.996 39.4822 23.9974 39.4822 24 39.4823C24.0612 39.4831 24.1109 39.5324 24.1113 39.5936C24.1121 39.6556 24.062 39.7064 24 39.7069C23.9373 39.7073 23.8861 39.6564 23.8867 39.5936C23.8871 39.5347 23.9332 39.4859 23.9922 39.4823ZM23.9922 40.0448C23.996 40.0447 23.9974 40.0447 24 40.0448C24.0612 40.0456 24.1109 40.0949 24.1113 40.1561C24.1121 40.2181 24.062 40.2689 24 40.2694C23.9373 40.2698 23.8861 40.2189 23.8867 40.1561C23.8871 40.0972 23.9332 40.0484 23.9922 40.0448ZM23.9805 40.6073H23.9824C23.99 40.6067 23.9924 40.6067 24 40.6073C24.0612 40.6081 24.1109 40.6574 24.1113 40.7186C24.1121 40.7806 24.062 40.8314 24 40.8319C23.9373 40.8323 23.8861 40.7814 23.8867 40.7186C23.8863 40.6635 23.926 40.6149 23.9805 40.6073ZM23.9805 41.1698H23.9824C23.99 41.1692 23.9924 41.1692 24 41.1698C24.0612 41.1706 24.1109 41.2199 24.1113 41.2811C24.1109 41.3427 24.0612 41.392 24 41.3925C23.9376 41.3932 23.8872 41.3431 23.8867 41.2811C23.8863 41.226 23.926 41.1774 23.9805 41.1698ZM24.002 41.7304C24.0643 41.7311 24.1138 41.7817 24.1133 41.8436C24.1125 41.9052 24.0632 41.9545 24.002 41.955C23.9396 41.9553 23.8892 41.9056 23.8887 41.8436C23.8883 41.7809 23.9392 41.7298 24.002 41.7304ZM23.9922 42.2929C23.996 42.2927 23.9974 42.2927 24 42.2929C24.062 42.2936 24.1119 42.3442 24.1113 42.4061C24.1109 42.4677 24.0612 42.517 24 42.5175C23.9376 42.5178 23.8872 42.4681 23.8867 42.4061C23.886 42.3461 23.9325 42.2965 23.9922 42.2929Z" fill="#333333"/>
</svg>
