<svg width="48" height="48" viewBox="0 0 48 48" fill="none" xmlns="http://www.w3.org/2000/svg">
<path d="M24.26 4.10388C20.973 4.11188 17.74 4.12588 14.566 4.12488C14.3601 4.12448 14.1561 4.16478 13.9658 4.24346C13.7755 4.32215 13.6026 4.43766 13.4571 4.58337C13.3116 4.72908 13.1963 4.90211 13.1178 5.09251C13.0394 5.28292 12.9993 5.48695 13 5.69288V42.5549C13 43.4249 13.697 44.1249 14.566 44.1249H34.271C35.141 44.1249 35.84 43.4249 35.84 42.5549V5.69288C35.84 4.82288 35.14 4.12488 34.271 4.12488C30.885 4.09488 27.546 4.09488 24.26 4.10388ZM15 4.62288V4.62488H33.838C34.668 4.62488 35.34 5.30588 35.34 6.15488V42.0939C35.34 42.9409 34.67 43.6249 33.838 43.6249H15C14.169 43.6249 13.5 42.9409 13.5 42.0939V6.15188C13.5 5.30388 14.169 4.62288 15 4.62288ZM20.412 5.16588C20.3827 5.16624 20.3547 5.17809 20.334 5.19888C20.3139 5.22059 20.3032 5.24931 20.304 5.27888C20.305 5.30888 20.317 5.33688 20.338 5.35688C20.3483 5.36708 20.3604 5.37515 20.3738 5.38064C20.3872 5.38614 20.4015 5.38893 20.416 5.38888C20.4305 5.38901 20.4449 5.38626 20.4584 5.38079C20.4719 5.37532 20.4841 5.36724 20.4944 5.35701C20.5048 5.34679 20.5129 5.33461 20.5185 5.3212C20.5241 5.30779 20.527 5.29341 20.527 5.27888C20.527 5.24888 20.518 5.22088 20.498 5.19888C20.4773 5.17809 20.4493 5.16624 20.42 5.16588H20.412ZM28.412 5.16588C28.3827 5.16624 28.3547 5.17809 28.334 5.19888C28.3139 5.22059 28.3032 5.24931 28.304 5.27888C28.305 5.30888 28.317 5.33688 28.338 5.35688C28.3483 5.36708 28.3604 5.37515 28.3738 5.38064C28.3872 5.38614 28.4015 5.38893 28.416 5.38888C28.4305 5.38901 28.4449 5.38626 28.4584 5.38079C28.4719 5.37532 28.4841 5.36724 28.4944 5.35701C28.5048 5.34679 28.5129 5.33461 28.5185 5.3212C28.5241 5.30779 28.527 5.29341 28.527 5.27888C28.527 5.24888 28.518 5.22088 28.498 5.19888C28.4773 5.17809 28.4493 5.16624 28.42 5.16588H28.412ZM20.412 5.72888C20.3971 5.72974 20.3825 5.73348 20.369 5.73988C20.3557 5.7461 20.3438 5.75494 20.334 5.76588C20.3246 5.77741 20.3174 5.79065 20.313 5.80488C20.3082 5.81854 20.3063 5.83305 20.3073 5.8475C20.3083 5.86194 20.3123 5.87603 20.319 5.88888C20.3257 5.90217 20.3348 5.91405 20.346 5.92388C20.356 5.93388 20.369 5.94188 20.383 5.94688C20.3968 5.95171 20.4114 5.95375 20.426 5.95288C20.4561 5.95052 20.4841 5.93653 20.504 5.91388C20.524 5.89188 20.534 5.86388 20.531 5.83388C20.5294 5.80403 20.5161 5.77602 20.494 5.75588C20.4713 5.73647 20.4418 5.72678 20.412 5.72888ZM28.412 5.72888C28.3971 5.72974 28.3825 5.73348 28.369 5.73988C28.3557 5.7461 28.3438 5.75494 28.334 5.76588C28.3246 5.77741 28.3174 5.79065 28.313 5.80488C28.3082 5.81854 28.3063 5.83305 28.3073 5.8475C28.3083 5.86194 28.3123 5.87603 28.319 5.88888C28.3257 5.90217 28.3348 5.91405 28.346 5.92388C28.356 5.93388 28.369 5.94188 28.383 5.94688C28.3968 5.95171 28.4114 5.95375 28.426 5.95288C28.4561 5.95052 28.4841 5.93653 28.504 5.91388C28.524 5.89188 28.534 5.86388 28.531 5.83388C28.5294 5.80403 28.5161 5.77602 28.494 5.75588C28.4713 5.73647 28.4418 5.72678 28.412 5.72888ZM20.402 6.29088C20.3812 6.29436 20.3617 6.30373 20.346 6.31788C20.3295 6.33183 20.3174 6.35023 20.311 6.37088C20.3055 6.39162 20.3062 6.41352 20.313 6.43388C20.3188 6.4544 20.3304 6.47283 20.3463 6.487C20.3623 6.50117 20.3819 6.5105 20.403 6.51388C20.423 6.51688 20.445 6.51288 20.465 6.50388C20.4849 6.49511 20.5019 6.4809 20.514 6.46288C20.5252 6.44487 20.5311 6.42407 20.531 6.40288C20.531 6.34088 20.481 6.29188 20.42 6.29088H20.402ZM28.402 6.29088C28.3812 6.29436 28.3617 6.30373 28.346 6.31788C28.3295 6.33183 28.3174 6.35023 28.311 6.37088C28.3055 6.39162 28.3062 6.41352 28.313 6.43388C28.3188 6.4544 28.3304 6.47283 28.3463 6.487C28.3623 6.50117 28.3819 6.5105 28.403 6.51388C28.423 6.51688 28.445 6.51288 28.465 6.50388C28.4849 6.49511 28.5019 6.4809 28.514 6.46288C28.5252 6.44487 28.5311 6.42407 28.531 6.40288C28.531 6.34088 28.481 6.29188 28.42 6.29088H28.402ZM24.639 6.58588C24.4254 6.5805 24.2129 6.6179 24.014 6.69588C23.8154 6.77421 23.6345 6.89152 23.482 7.04088C23.3288 7.18972 23.207 7.36779 23.1238 7.56455C23.0406 7.76131 22.9978 7.97276 22.9978 8.18638C22.9978 8.39999 23.0406 8.61144 23.1238 8.8082C23.207 9.00496 23.3288 9.18303 23.482 9.33188C23.6347 9.48105 23.8158 9.59801 24.0145 9.67583C24.2133 9.75365 24.4256 9.79073 24.639 9.78488C25.0634 9.78488 25.4703 9.6163 25.7704 9.31625C26.0704 9.01619 26.239 8.60922 26.239 8.18488C26.239 7.76053 26.0704 7.35356 25.7704 7.0535C25.4703 6.75345 25.0634 6.58488 24.639 6.58488V6.58588ZM20.422 6.85188C20.4074 6.85134 20.3927 6.85372 20.379 6.85887C20.3653 6.86402 20.3527 6.87184 20.342 6.88188C20.3315 6.89279 20.3234 6.90572 20.318 6.91988C20.309 6.94017 20.3063 6.96266 20.31 6.98454C20.3137 7.00641 20.3238 7.0267 20.339 7.04288C20.35 7.05288 20.363 7.06088 20.377 7.06588C20.391 7.07188 20.405 7.07588 20.42 7.07588C20.4496 7.07563 20.4779 7.06391 20.4989 7.04321C20.52 7.0225 20.5322 6.99442 20.533 6.96488C20.533 6.93488 20.523 6.90588 20.502 6.88488C20.4807 6.86379 20.452 6.85193 20.422 6.85188ZM28.422 6.85188C28.4074 6.85134 28.3927 6.85372 28.379 6.85887C28.3653 6.86402 28.3527 6.87184 28.342 6.88188C28.3315 6.89279 28.3234 6.90572 28.318 6.91988C28.309 6.94017 28.3063 6.96266 28.31 6.98454C28.3137 7.00641 28.3238 7.0267 28.339 7.04288C28.35 7.05288 28.363 7.06088 28.377 7.06588C28.391 7.07188 28.405 7.07588 28.42 7.07588C28.4496 7.07563 28.4779 7.06391 28.4989 7.04321C28.52 7.0225 28.5322 6.99442 28.533 6.96488C28.533 6.93488 28.523 6.90588 28.502 6.88488C28.4807 6.86379 28.452 6.85193 28.422 6.85188ZM24.629 7.02288C24.8574 7.02338 25.0804 7.09222 25.2693 7.22054C25.4582 7.34885 25.6044 7.53077 25.689 7.74288C25.742 7.87321 25.7705 8.01221 25.773 8.15288C25.773 8.16388 25.779 8.17288 25.779 8.18588C25.779 8.19588 25.772 8.20587 25.771 8.21588C25.7657 8.34985 25.737 8.48186 25.686 8.60588C25.684 8.60888 25.681 8.61287 25.68 8.61688C25.5919 8.8227 25.4454 8.99817 25.2586 9.12153C25.0718 9.24489 24.8529 9.31072 24.629 9.31088C24.4788 9.31101 24.33 9.28155 24.1911 9.22418C24.0523 9.16681 23.9261 9.08265 23.8198 8.97651C23.7135 8.87038 23.6291 8.74434 23.5715 8.60559C23.5139 8.46684 23.4841 8.31811 23.484 8.16788C23.4839 8.01748 23.5134 7.86852 23.5709 7.72955C23.6284 7.59057 23.7127 7.46429 23.8191 7.35794C23.9254 7.2516 24.0517 7.16726 24.1907 7.10977C24.3297 7.05227 24.4786 7.02274 24.629 7.02288ZM20.412 7.41388C20.3832 7.41549 20.356 7.428 20.336 7.44888C20.3164 7.47009 20.3057 7.498 20.306 7.52688C20.306 7.58888 20.356 7.63988 20.42 7.63888C20.4421 7.63752 20.4633 7.62976 20.4811 7.61653C20.4989 7.6033 20.5124 7.58519 20.52 7.5644C20.5277 7.54361 20.5291 7.52104 20.5241 7.49946C20.5191 7.47788 20.508 7.45822 20.492 7.44288C20.4813 7.43297 20.4687 7.42531 20.4549 7.42033C20.4412 7.41535 20.4266 7.41315 20.412 7.41388ZM28.412 7.41388C28.3832 7.41549 28.356 7.428 28.336 7.44888C28.3164 7.47009 28.3057 7.498 28.306 7.52688C28.3058 7.54554 28.3104 7.56394 28.3192 7.58038C28.328 7.59682 28.3409 7.61077 28.3565 7.62094C28.3722 7.63111 28.3901 7.63716 28.4088 7.63855C28.4274 7.63994 28.446 7.63661 28.463 7.62888C28.4763 7.62218 28.4882 7.61302 28.498 7.60188C28.5082 7.59089 28.516 7.57796 28.521 7.56388C28.5258 7.55008 28.5279 7.53547 28.527 7.52088C28.5253 7.49146 28.5129 7.4637 28.492 7.44288C28.4812 7.43349 28.4686 7.42635 28.455 7.42188C28.4413 7.41641 28.4267 7.41369 28.412 7.41388ZM20.412 7.97388C20.3823 7.97525 20.3543 7.98816 20.334 8.00988C20.3241 8.02026 20.3164 8.0325 20.3112 8.04589C20.3061 8.05927 20.3036 8.07354 20.304 8.08788C20.305 8.11788 20.317 8.14488 20.338 8.16588C20.3589 8.18611 20.3869 8.19726 20.416 8.19688C20.4305 8.19701 20.4449 8.19426 20.4584 8.18879C20.4719 8.18332 20.4841 8.17524 20.4944 8.16501C20.5048 8.15479 20.5129 8.14261 20.5185 8.1292C20.5241 8.11579 20.527 8.10141 20.527 8.08688C20.527 8.05888 20.518 8.03088 20.498 8.00988C20.4775 7.98853 20.4496 7.97598 20.42 7.97488H20.412V7.97388ZM28.412 7.97388C28.3823 7.97525 28.3543 7.98816 28.334 8.00988C28.3241 8.02026 28.3164 8.0325 28.3112 8.04589C28.3061 8.05927 28.3036 8.07354 28.304 8.08788C28.305 8.11788 28.317 8.14488 28.338 8.16588C28.3589 8.18611 28.3869 8.19726 28.416 8.19688C28.4305 8.19701 28.4449 8.19426 28.4584 8.18879C28.4719 8.18332 28.4841 8.17524 28.4944 8.16501C28.5048 8.15479 28.5129 8.14261 28.5185 8.1292C28.5241 8.11579 28.527 8.10141 28.527 8.08688C28.527 8.05888 28.518 8.03088 28.498 8.00988C28.4775 7.98853 28.4496 7.97598 28.42 7.97488H28.412V7.97388ZM20.412 8.53688C20.3825 8.53798 20.3545 8.55053 20.334 8.57188C20.3241 8.58226 20.3164 8.5945 20.3112 8.60789C20.3061 8.62127 20.3036 8.63554 20.304 8.64988C20.305 8.67988 20.317 8.70788 20.338 8.72888C20.358 8.74888 20.387 8.76188 20.416 8.76188C20.4454 8.76161 20.4734 8.74984 20.4942 8.72908C20.515 8.70832 20.5267 8.68023 20.527 8.65088C20.527 8.62088 20.518 8.59387 20.498 8.57188C20.4775 8.55053 20.4496 8.53798 20.42 8.53688H20.412ZM28.412 8.53688C28.3825 8.53798 28.3545 8.55053 28.334 8.57188C28.3241 8.58226 28.3164 8.5945 28.3112 8.60789C28.3061 8.62127 28.3036 8.63554 28.304 8.64988C28.305 8.67988 28.317 8.70788 28.338 8.72888C28.358 8.74888 28.387 8.76188 28.416 8.76188C28.4454 8.76161 28.4734 8.74984 28.4942 8.72908C28.515 8.70832 28.5267 8.68023 28.527 8.65088C28.527 8.62088 28.518 8.59387 28.498 8.57188C28.4775 8.55053 28.4496 8.53798 28.42 8.53688H28.412ZM20.412 9.09988C20.3971 9.10072 20.3825 9.10445 20.369 9.11088C20.3557 9.11712 20.3438 9.12596 20.334 9.13688C20.3246 9.14841 20.3174 9.16165 20.313 9.17588C20.308 9.18981 20.3059 9.20461 20.3067 9.21939C20.3076 9.23416 20.3114 9.24861 20.318 9.26188C20.3243 9.27516 20.3331 9.28706 20.344 9.29688C20.354 9.30688 20.369 9.31388 20.383 9.31788C20.404 9.32517 20.4267 9.32613 20.4482 9.32061C20.4697 9.3151 20.4891 9.30336 20.504 9.28688C20.5235 9.26419 20.5332 9.2347 20.531 9.20488C20.5294 9.17503 20.5161 9.14702 20.494 9.12688C20.4713 9.10738 20.4418 9.09767 20.412 9.09988ZM28.412 9.09988C28.3971 9.10072 28.3825 9.10445 28.369 9.11088C28.3557 9.11712 28.3438 9.12596 28.334 9.13688C28.3246 9.14841 28.3174 9.16165 28.313 9.17588C28.308 9.18981 28.3059 9.20461 28.3067 9.21939C28.3076 9.23416 28.3114 9.24861 28.318 9.26188C28.3243 9.27516 28.3331 9.28706 28.344 9.29688C28.354 9.30688 28.369 9.31388 28.383 9.31788C28.404 9.32517 28.4267 9.32613 28.4482 9.32061C28.4697 9.3151 28.4891 9.30336 28.504 9.28688C28.5235 9.26419 28.5332 9.2347 28.531 9.20488C28.5294 9.17503 28.5161 9.14702 28.494 9.12688C28.4713 9.10738 28.4418 9.09767 28.412 9.09988ZM20.412 9.66188C20.3825 9.66298 20.3545 9.67553 20.334 9.69688C20.3241 9.70726 20.3164 9.7195 20.3112 9.73289C20.3061 9.74627 20.3036 9.76054 20.304 9.77488C20.305 9.80488 20.317 9.83288 20.338 9.85388C20.358 9.87388 20.387 9.88688 20.416 9.88688C20.4454 9.88661 20.4734 9.87484 20.4942 9.85408C20.515 9.83332 20.5267 9.80523 20.527 9.77588C20.527 9.74588 20.518 9.71887 20.498 9.69688C20.4775 9.67553 20.4496 9.66298 20.42 9.66188H20.412ZM28.412 9.66188C28.3825 9.66298 28.3545 9.67553 28.334 9.69688C28.3241 9.70726 28.3164 9.7195 28.3112 9.73289C28.3061 9.74627 28.3036 9.76054 28.304 9.77488C28.305 9.80488 28.317 9.83288 28.338 9.85388C28.358 9.87388 28.387 9.88688 28.416 9.88688C28.4454 9.88661 28.4734 9.87484 28.4942 9.85408C28.515 9.83332 28.5267 9.80523 28.527 9.77588C28.527 9.74588 28.518 9.71887 28.498 9.69688C28.4775 9.67553 28.4496 9.66298 28.42 9.66188H28.412ZM20.4 10.2249C20.3734 10.2294 20.3494 10.2432 20.332 10.2639C20.3151 10.2848 20.3063 10.311 20.307 10.3379C20.3047 10.3539 20.306 10.3703 20.3106 10.3858C20.3153 10.4014 20.3233 10.4157 20.334 10.4279C20.3499 10.4458 20.3709 10.4583 20.3942 10.4637C20.4175 10.469 20.4419 10.467 20.464 10.4579C20.4789 10.451 20.4921 10.4412 20.503 10.429C20.5138 10.4168 20.522 10.4024 20.527 10.3869C20.5318 10.3707 20.5332 10.3536 20.531 10.3369C20.5307 10.307 20.5189 10.2783 20.498 10.2569C20.4772 10.2364 20.4492 10.2249 20.42 10.2249H20.4ZM28.4 10.2249C28.3734 10.2294 28.3494 10.2432 28.332 10.2639C28.3151 10.2848 28.3063 10.311 28.307 10.3379C28.3047 10.3539 28.306 10.3703 28.3106 10.3858C28.3153 10.4014 28.3233 10.4157 28.334 10.4279C28.3499 10.4458 28.3709 10.4583 28.3942 10.4637C28.4175 10.469 28.4419 10.467 28.464 10.4579C28.4789 10.451 28.4921 10.4412 28.503 10.429C28.5138 10.4168 28.522 10.4024 28.527 10.3869C28.5318 10.3707 28.5332 10.3536 28.531 10.3369C28.5307 10.307 28.5189 10.2783 28.498 10.2569C28.4772 10.2364 28.4492 10.2249 28.42 10.2249H28.4ZM20.422 10.7849C20.4071 10.7846 20.3923 10.7873 20.3786 10.793C20.3648 10.7987 20.3523 10.8072 20.342 10.8179C20.331 10.8284 20.3222 10.841 20.316 10.8549C20.3108 10.8693 20.3084 10.8846 20.309 10.8999C20.309 10.9619 20.359 11.0099 20.422 11.0099C20.4364 11.0103 20.4508 11.0078 20.4642 11.0024C20.4776 10.9971 20.4898 10.9891 20.5 10.9789C20.5107 10.9687 20.5192 10.9564 20.525 10.9429C20.5305 10.9292 20.5332 10.9146 20.533 10.8999C20.5333 10.885 20.5306 10.8703 20.5252 10.8565C20.5197 10.8427 20.5116 10.8301 20.5013 10.8194C20.491 10.8087 20.4787 10.8002 20.4651 10.7942C20.4515 10.7883 20.4368 10.7851 20.422 10.7849ZM28.422 10.7849C28.4071 10.7846 28.3923 10.7873 28.3786 10.793C28.3648 10.7987 28.3523 10.8072 28.342 10.8179C28.331 10.8284 28.3222 10.841 28.316 10.8549C28.3108 10.8693 28.3084 10.8846 28.309 10.8999C28.309 10.9619 28.359 11.0099 28.422 11.0099C28.4364 11.0103 28.4508 11.0078 28.4642 11.0024C28.4776 10.9971 28.4898 10.9891 28.5 10.9789C28.5107 10.9687 28.5192 10.9564 28.525 10.9429C28.5305 10.9292 28.5332 10.9146 28.533 10.8999C28.5333 10.885 28.5306 10.8703 28.5252 10.8565C28.5197 10.8427 28.5116 10.8301 28.5013 10.8194C28.491 10.8087 28.4787 10.8002 28.4651 10.7942C28.4515 10.7883 28.4368 10.7851 28.422 10.7849ZM20.422 11.3479C20.392 11.3479 20.363 11.3579 20.342 11.3779C20.3314 11.3885 20.3231 11.4012 20.3174 11.4151C20.3118 11.429 20.3089 11.4439 20.309 11.4589C20.309 11.4889 20.319 11.5179 20.339 11.5389C20.3549 11.5548 20.3752 11.5657 20.3972 11.5702C20.4193 11.5746 20.4422 11.5724 20.463 11.5639C20.4768 11.558 20.4894 11.5495 20.5 11.5389C20.51 11.5289 20.52 11.5179 20.525 11.5039C20.5305 11.4902 20.5332 11.4756 20.533 11.4609C20.5336 11.4312 20.5225 11.4024 20.502 11.3809C20.4914 11.3699 20.4789 11.3611 20.465 11.3549C20.4513 11.3497 20.4367 11.3473 20.422 11.3479ZM28.422 11.3479C28.4073 11.3475 28.3926 11.3501 28.3789 11.3554C28.3652 11.3607 28.3526 11.3687 28.342 11.3789C28.3316 11.3895 28.3235 11.4021 28.318 11.4159C28.309 11.4362 28.3063 11.4587 28.31 11.4805C28.3137 11.5024 28.3238 11.5227 28.339 11.5389C28.35 11.5489 28.363 11.5569 28.377 11.5629C28.391 11.5679 28.405 11.5729 28.42 11.5729C28.4497 11.5726 28.4782 11.5608 28.4993 11.5398C28.5204 11.5189 28.5325 11.4906 28.533 11.4609C28.533 11.4309 28.523 11.4019 28.502 11.3809C28.4807 11.3598 28.452 11.3479 28.422 11.3479ZM17.17 11.7579C16.96 11.7579 16.7521 11.7992 16.5581 11.8796C16.3641 11.9599 16.1878 12.0777 16.0393 12.2262C15.8909 12.3747 15.7731 12.551 15.6927 12.745C15.6124 12.939 15.571 13.1469 15.571 13.3569C15.571 13.5669 15.6124 13.7748 15.6927 13.9688C15.7731 14.1628 15.8909 14.3391 16.0393 14.4875C16.1878 14.636 16.3641 14.7538 16.5581 14.8342C16.7521 14.9145 16.96 14.9559 17.17 14.9559C17.5941 14.9559 18.0008 14.7874 18.3007 14.4875C18.6005 14.1877 18.769 13.781 18.769 13.3569C18.769 12.9328 18.6005 12.5261 18.3007 12.2262C18.0008 11.9263 17.5941 11.7579 17.17 11.7579ZM24.639 11.7579C24.429 11.7579 24.2211 11.7992 24.0271 11.8796C23.8331 11.9599 23.6568 12.0777 23.5083 12.2262C23.3599 12.3747 23.2421 12.551 23.1617 12.745C23.0814 12.939 23.04 13.1469 23.04 13.3569C23.04 13.5669 23.0814 13.7748 23.1617 13.9688C23.2421 14.1628 23.3599 14.3391 23.5083 14.4875C23.6568 14.636 23.8331 14.7538 24.0271 14.8342C24.2211 14.9145 24.429 14.9559 24.639 14.9559C25.0631 14.9559 25.4698 14.7874 25.7697 14.4875C26.0695 14.1877 26.238 13.781 26.238 13.3569C26.238 12.9328 26.0695 12.5261 25.7697 12.2262C25.4698 11.9263 25.0631 11.7579 24.639 11.7579ZM32.018 11.7579C31.808 11.7579 31.6001 11.7992 31.4061 11.8796C31.2121 11.9599 31.0358 12.0777 30.8873 12.2262C30.7389 12.3747 30.6211 12.551 30.5407 12.745C30.4604 12.939 30.419 13.1469 30.419 13.3569C30.419 13.5669 30.4604 13.7748 30.5407 13.9688C30.6211 14.1628 30.7389 14.3391 30.8873 14.4875C31.0358 14.636 31.2121 14.7538 31.4061 14.8342C31.6001 14.9145 31.808 14.9559 32.018 14.9559C32.4421 14.9559 32.8488 14.7874 33.1487 14.4875C33.4485 14.1877 33.617 13.781 33.617 13.3569C33.617 12.9328 33.4485 12.5261 33.1487 12.2262C32.8488 11.9263 32.4421 11.7579 32.018 11.7579ZM20.412 11.9099C20.3837 11.9133 20.3577 11.9273 20.3392 11.949C20.3207 11.9707 20.311 11.9985 20.312 12.027C20.313 12.0555 20.3246 12.0826 20.3446 12.103C20.3646 12.1233 20.3915 12.1354 20.42 12.1369C20.48 12.1369 20.53 12.0839 20.531 12.0229C20.5307 12.0077 20.5273 11.9927 20.521 11.9789C20.5151 11.9646 20.5063 11.9517 20.4954 11.9409C20.4844 11.9301 20.4713 11.9216 20.457 11.9159C20.4426 11.9107 20.4273 11.9087 20.412 11.9099ZM28.412 11.9099C28.3837 11.9133 28.3577 11.9273 28.3392 11.949C28.3207 11.9707 28.311 11.9985 28.312 12.027C28.313 12.0555 28.3246 12.0826 28.3446 12.103C28.3646 12.1233 28.3915 12.1354 28.42 12.1369C28.48 12.1369 28.53 12.0839 28.531 12.0229C28.5307 12.0077 28.5273 11.9927 28.521 11.9789C28.5151 11.9646 28.5063 11.9517 28.4954 11.9409C28.4844 11.9301 28.4713 11.9216 28.457 11.9159C28.4426 11.9107 28.4273 11.9087 28.412 11.9099ZM17.174 12.2199C17.3243 12.2199 17.4732 12.2495 17.612 12.3071C17.7509 12.3646 17.877 12.449 17.9833 12.5553C18.0895 12.6616 18.1738 12.7879 18.2312 12.9268C18.2886 13.0657 18.3181 13.2146 18.318 13.3649C18.3177 13.6681 18.1971 13.9588 17.9826 14.1732C17.7681 14.3875 17.4772 14.5079 17.174 14.5079C17.0238 14.508 16.875 14.4785 16.7361 14.4212C16.5973 14.3638 16.4711 14.2797 16.3648 14.1735C16.2585 14.0674 16.1741 13.9413 16.1165 13.8026C16.0589 13.6638 16.0291 13.5151 16.029 13.3649C16.029 13.2146 16.0586 13.0657 16.1162 12.9269C16.1737 12.788 16.2581 12.6618 16.3644 12.5556C16.4708 12.4493 16.597 12.3651 16.7359 12.3077C16.8748 12.2502 17.0237 12.2207 17.174 12.2209V12.2199ZM24.648 12.2199C24.7984 12.2197 24.9474 12.2493 25.0863 12.3068C25.2253 12.3643 25.3516 12.4486 25.4579 12.5549C25.5643 12.6613 25.6486 12.7876 25.7061 12.9265C25.7636 13.0655 25.7931 13.2145 25.793 13.3649C25.7929 13.5151 25.7632 13.6638 25.7055 13.8026C25.6479 13.9413 25.5636 14.0674 25.4572 14.1735C25.3509 14.2797 25.2247 14.3638 25.0859 14.4212C24.947 14.4785 24.7982 14.508 24.648 14.5079C24.3448 14.5079 24.0539 14.3875 23.8394 14.1732C23.6249 13.9588 23.5043 13.6681 23.504 13.3649C23.504 13.0615 23.6245 12.7705 23.8391 12.5559C24.0536 12.3414 24.3446 12.2209 24.648 12.2209V12.2199ZM32.01 12.2199C32.1603 12.2199 32.3092 12.2495 32.448 12.3071C32.5869 12.3646 32.713 12.449 32.8193 12.5553C32.9255 12.6616 33.0098 12.7879 33.0672 12.9268C33.1246 13.0657 33.1541 13.2146 33.154 13.3649C33.1537 13.6681 33.0331 13.9588 32.8186 14.1732C32.6041 14.3875 32.3132 14.5079 32.01 14.5079C31.8598 14.508 31.711 14.4785 31.5721 14.4212C31.4333 14.3638 31.3071 14.2797 31.2008 14.1735C31.0945 14.0674 31.0101 13.9413 30.9525 13.8026C30.8949 13.6638 30.8651 13.5151 30.865 13.3649C30.865 13.2146 30.8946 13.0657 30.9522 12.9269C31.0097 12.788 31.0941 12.6618 31.2004 12.5556C31.3068 12.4493 31.433 12.3651 31.5719 12.3077C31.7108 12.2502 31.8597 12.2207 32.01 12.2209V12.2199ZM20.412 12.4729C20.3847 12.477 20.3599 12.4908 20.342 12.5119C20.3291 12.5279 20.3208 12.5471 20.3179 12.5675C20.315 12.5879 20.3177 12.6087 20.3257 12.6277C20.3337 12.6466 20.3467 12.6631 20.3633 12.6753C20.3799 12.6875 20.3995 12.6949 20.42 12.6969C20.48 12.6969 20.53 12.6469 20.531 12.5859C20.5315 12.5705 20.5288 12.5552 20.523 12.5409C20.5166 12.5268 20.5074 12.5142 20.496 12.5039C20.4848 12.493 20.4716 12.4845 20.457 12.4789C20.4426 12.4737 20.4273 12.4717 20.412 12.4729ZM28.412 12.4729C28.3847 12.477 28.3599 12.4908 28.342 12.5119C28.3291 12.5279 28.3208 12.5471 28.3179 12.5675C28.315 12.5879 28.3177 12.6087 28.3257 12.6277C28.3337 12.6466 28.3467 12.6631 28.3633 12.6753C28.3799 12.6875 28.3995 12.6949 28.42 12.6969C28.48 12.6969 28.53 12.6469 28.531 12.5859C28.5315 12.5705 28.5288 12.5552 28.523 12.5409C28.5166 12.5268 28.5074 12.5142 28.496 12.5039C28.4848 12.493 28.4716 12.4845 28.457 12.4789C28.4426 12.4737 28.4273 12.4717 28.412 12.4729ZM20.412 13.0349C20.3901 13.0368 20.3692 13.0452 20.352 13.0589C20.3386 13.0684 20.3276 13.0808 20.3196 13.0952C20.3117 13.1096 20.3071 13.1256 20.3061 13.142C20.3051 13.1584 20.3079 13.1748 20.3141 13.19C20.3203 13.2052 20.3298 13.2188 20.342 13.2299C20.3582 13.245 20.3784 13.2551 20.4003 13.259C20.4221 13.2629 20.4446 13.2605 20.465 13.2519C20.4851 13.2425 20.5021 13.2275 20.5138 13.2087C20.5255 13.1899 20.5315 13.168 20.531 13.1459C20.5313 13.1308 20.5286 13.1159 20.523 13.1019C20.5166 13.0879 20.5074 13.0753 20.4961 13.0648C20.4848 13.0543 20.4715 13.0462 20.457 13.0409C20.4426 13.0358 20.4273 13.0337 20.412 13.0349ZM28.412 13.0349C28.3901 13.0368 28.3692 13.0452 28.352 13.0589C28.3386 13.0684 28.3276 13.0808 28.3196 13.0952C28.3117 13.1096 28.3071 13.1256 28.3061 13.142C28.3051 13.1584 28.3079 13.1748 28.3141 13.19C28.3203 13.2052 28.3298 13.2188 28.342 13.2299C28.3582 13.245 28.3784 13.2551 28.4003 13.259C28.4221 13.2629 28.4446 13.2605 28.465 13.2519C28.4851 13.2425 28.5021 13.2275 28.5138 13.2087C28.5255 13.1899 28.5315 13.168 28.531 13.1459C28.5313 13.1308 28.5286 13.1159 28.523 13.1019C28.5166 13.0879 28.5074 13.0753 28.4961 13.0648C28.4848 13.0543 28.4715 13.0462 28.457 13.0409C28.4426 13.0358 28.4273 13.0337 28.412 13.0349ZM20.412 13.5979C20.3821 13.5994 20.3541 13.6127 20.334 13.6349C20.3145 13.6576 20.3048 13.687 20.307 13.7169C20.309 13.7469 20.321 13.7749 20.344 13.7949C20.361 13.8095 20.3819 13.8189 20.4041 13.8217C20.4263 13.8246 20.4489 13.8208 20.469 13.8109C20.4823 13.8046 20.4942 13.7958 20.504 13.7849C20.5134 13.7733 20.5206 13.7601 20.525 13.7459C20.53 13.7319 20.5321 13.7171 20.5313 13.7024C20.5304 13.6876 20.5266 13.6731 20.52 13.6599C20.5138 13.6466 20.5049 13.6347 20.494 13.6249C20.4825 13.6154 20.4692 13.6083 20.455 13.6039C20.4412 13.599 20.4266 13.5969 20.412 13.5979ZM28.412 13.5979C28.3821 13.5994 28.3541 13.6127 28.334 13.6349C28.3145 13.6576 28.3048 13.687 28.307 13.7169C28.309 13.7469 28.321 13.7749 28.344 13.7949C28.361 13.8095 28.3819 13.8189 28.4041 13.8217C28.4263 13.8246 28.4489 13.8208 28.469 13.8109C28.4823 13.8046 28.4942 13.7958 28.504 13.7849C28.5134 13.7733 28.5206 13.7601 28.525 13.7459C28.53 13.7319 28.5321 13.7171 28.5313 13.7024C28.5304 13.6876 28.5266 13.6731 28.52 13.6599C28.5138 13.6466 28.5049 13.6347 28.494 13.6249C28.4825 13.6154 28.4692 13.6083 28.455 13.6039C28.4412 13.599 28.4266 13.5969 28.412 13.5979ZM20.412 14.1599C20.397 14.161 20.3824 14.1651 20.369 14.1719C20.3558 14.1778 20.3439 14.1863 20.334 14.1969C20.3245 14.2087 20.3173 14.2223 20.313 14.2369C20.3034 14.2648 20.3052 14.2953 20.318 14.3219C20.325 14.3346 20.3346 14.3459 20.346 14.3549C20.356 14.3649 20.369 14.3749 20.383 14.3789C20.3968 14.3837 20.4114 14.3858 20.426 14.3849C20.4562 14.3823 20.4842 14.3679 20.504 14.3449C20.524 14.3229 20.534 14.2949 20.531 14.2649C20.5295 14.235 20.5162 14.207 20.494 14.1869C20.4713 14.1674 20.4418 14.1577 20.412 14.1599ZM28.412 14.1599C28.397 14.161 28.3824 14.1651 28.369 14.1719C28.3558 14.1778 28.3439 14.1863 28.334 14.1969C28.3245 14.2087 28.3173 14.2223 28.313 14.2369C28.3034 14.2648 28.3052 14.2953 28.318 14.3219C28.325 14.3346 28.3346 14.3459 28.346 14.3549C28.356 14.3649 28.369 14.3749 28.383 14.3789C28.3968 14.3837 28.4114 14.3858 28.426 14.3849C28.4562 14.3823 28.4842 14.3679 28.504 14.3449C28.524 14.3229 28.534 14.2949 28.531 14.2649C28.5295 14.235 28.5162 14.207 28.494 14.1869C28.4713 14.1674 28.4418 14.1577 28.412 14.1599ZM20.4 14.7229C20.3734 14.7274 20.3494 14.7412 20.332 14.7619C20.3152 14.782 20.3063 14.8076 20.307 14.8339C20.3079 14.8566 20.3155 14.8785 20.3288 14.8969C20.3421 14.9153 20.3606 14.9293 20.3818 14.9372C20.4031 14.9451 20.4263 14.9466 20.4484 14.9413C20.4705 14.9361 20.4905 14.9245 20.506 14.9079C20.521 14.8904 20.5304 14.8688 20.533 14.8459C20.5354 14.8228 20.5307 14.7996 20.5196 14.7793C20.5086 14.759 20.4916 14.7424 20.471 14.7319C20.4502 14.7217 20.4268 14.7182 20.404 14.7219H20.4V14.7229ZM28.4 14.7229C28.3734 14.7274 28.3494 14.7412 28.332 14.7619C28.3152 14.782 28.3063 14.8076 28.307 14.8339C28.3079 14.8566 28.3155 14.8785 28.3288 14.8969C28.3421 14.9153 28.3606 14.9293 28.3818 14.9372C28.4031 14.9451 28.4263 14.9466 28.4484 14.9413C28.4705 14.9361 28.4905 14.9245 28.506 14.9079C28.521 14.8904 28.5304 14.8688 28.533 14.8459C28.5354 14.8228 28.5307 14.7996 28.5196 14.7793C28.5086 14.759 28.4916 14.7424 28.471 14.7319C28.4502 14.7217 28.4268 14.7182 28.404 14.7219H28.4V14.7229ZM20.4 15.2849C20.3843 15.2875 20.3692 15.2934 20.356 15.3023C20.3427 15.3111 20.3314 15.3226 20.3229 15.3362C20.3144 15.3497 20.3088 15.3648 20.3066 15.3806C20.3044 15.3964 20.3056 15.4125 20.31 15.4279C20.3164 15.4482 20.3284 15.4664 20.3447 15.4802C20.361 15.494 20.3809 15.5029 20.402 15.5059C20.4233 15.5093 20.4452 15.5066 20.465 15.4979C20.4844 15.4889 20.5008 15.4745 20.5122 15.4564C20.5236 15.4383 20.5294 15.4173 20.529 15.3959C20.529 15.3667 20.5174 15.3387 20.4968 15.3181C20.4762 15.2975 20.4482 15.2859 20.419 15.2859H20.4V15.2849ZM28.4 15.2849C28.3843 15.2875 28.3692 15.2934 28.356 15.3023C28.3427 15.3111 28.3314 15.3226 28.3229 15.3362C28.3144 15.3497 28.3088 15.3648 28.3066 15.3806C28.3044 15.3964 28.3056 15.4125 28.31 15.4279C28.3164 15.4482 28.3284 15.4664 28.3447 15.4802C28.361 15.494 28.3809 15.5029 28.402 15.5059C28.4233 15.5093 28.4452 15.5066 28.465 15.4979C28.4844 15.4889 28.5008 15.4745 28.5122 15.4564C28.5236 15.4383 28.5294 15.4173 28.529 15.3959C28.529 15.3667 28.5174 15.3387 28.4968 15.3181C28.4762 15.2975 28.4482 15.2859 28.419 15.2859H28.4V15.2849ZM20.422 15.8449C20.4073 15.8445 20.3926 15.8471 20.3789 15.8524C20.3652 15.8577 20.3527 15.8657 20.342 15.8759C20.3314 15.8865 20.3231 15.8992 20.3174 15.9131C20.3118 15.927 20.3089 15.9419 20.309 15.9569C20.309 15.9869 20.319 16.0159 20.339 16.0369C20.361 16.0579 20.39 16.0699 20.419 16.0699C20.4487 16.0699 20.4773 16.0583 20.4986 16.0376C20.5199 16.0168 20.5322 15.9886 20.533 15.9589C20.533 15.9289 20.523 15.8999 20.502 15.8789C20.4807 15.8578 20.452 15.8459 20.422 15.8459V15.8449ZM28.422 15.8449C28.4073 15.8445 28.3926 15.8471 28.3789 15.8524C28.3652 15.8577 28.3526 15.8657 28.342 15.8759C28.3315 15.8868 28.3234 15.8997 28.318 15.9139C28.309 15.9342 28.3063 15.9567 28.31 15.9785C28.3137 16.0004 28.3238 16.0207 28.339 16.0369C28.35 16.0469 28.363 16.0549 28.377 16.0609C28.391 16.0659 28.405 16.0709 28.42 16.0709C28.4497 16.0706 28.4782 16.0588 28.4993 16.0378C28.5204 16.0169 28.5325 15.9886 28.533 15.9589C28.533 15.9289 28.523 15.8999 28.502 15.8789C28.4807 15.8578 28.452 15.8459 28.422 15.8459V15.8449ZM20.412 16.4079C20.3832 16.4095 20.356 16.422 20.336 16.4429C20.3164 16.4641 20.3057 16.492 20.306 16.5209C20.3056 16.5396 20.3099 16.5582 20.3187 16.5748C20.3275 16.5914 20.3403 16.6055 20.3561 16.6157C20.3718 16.6259 20.3899 16.6319 20.4086 16.6332C20.4273 16.6344 20.446 16.6309 20.463 16.6229C20.4763 16.6162 20.4882 16.607 20.498 16.5959C20.508 16.5852 20.5159 16.5726 20.521 16.5589C20.5258 16.5451 20.5279 16.5305 20.527 16.5159C20.5266 16.5012 20.5233 16.4868 20.5173 16.4734C20.5113 16.46 20.5027 16.4479 20.492 16.4379C20.4812 16.4282 20.4687 16.4207 20.455 16.4159C20.4413 16.4104 20.4267 16.4077 20.412 16.4079ZM28.412 16.4079C28.3832 16.4095 28.356 16.422 28.336 16.4429C28.3164 16.4641 28.3057 16.492 28.306 16.5209C28.3056 16.5396 28.3099 16.5582 28.3187 16.5748C28.3275 16.5914 28.3403 16.6055 28.3561 16.6157C28.3718 16.6259 28.3899 16.6319 28.4086 16.6332C28.4273 16.6344 28.446 16.6309 28.463 16.6229C28.4763 16.6162 28.4882 16.607 28.498 16.5959C28.508 16.5852 28.5159 16.5726 28.521 16.5589C28.5258 16.5451 28.5279 16.5305 28.527 16.5159C28.5266 16.5012 28.5233 16.4868 28.5173 16.4734C28.5113 16.46 28.5027 16.4479 28.492 16.4379C28.4812 16.4282 28.4687 16.4207 28.455 16.4159C28.4413 16.4104 28.4267 16.4077 28.412 16.4079ZM20.412 16.9709C20.3831 16.9724 20.3559 16.9849 20.336 17.0059C20.3162 17.027 20.3055 17.055 20.306 17.0839C20.306 17.1459 20.356 17.1959 20.42 17.1949C20.48 17.1949 20.53 17.1449 20.531 17.0839C20.5315 17.0685 20.5288 17.0532 20.523 17.0389C20.5166 17.0248 20.5074 17.0122 20.496 17.0019C20.4848 16.991 20.4716 16.9825 20.457 16.9769C20.4426 16.9717 20.4273 16.9697 20.412 16.9709ZM28.412 16.9709C28.3831 16.9724 28.3559 16.9849 28.336 17.0059C28.3162 17.027 28.3055 17.055 28.306 17.0839C28.306 17.1459 28.356 17.1959 28.42 17.1949C28.48 17.1949 28.53 17.1449 28.531 17.0839C28.5315 17.0685 28.5288 17.0532 28.523 17.0389C28.5166 17.0248 28.5074 17.0122 28.496 17.0019C28.4848 16.991 28.4716 16.9825 28.457 16.9769C28.4426 16.9717 28.4273 16.9697 28.412 16.9709ZM17.17 16.9909V16.9919C16.9569 16.9866 16.7448 17.0239 16.5463 17.1017C16.3478 17.1795 16.1668 17.2962 16.014 17.4449C15.7842 17.6698 15.6272 17.9586 15.5633 18.2739C15.4995 18.5891 15.5318 18.9162 15.656 19.2129C15.739 19.4099 15.861 19.5869 16.014 19.7359C16.1659 19.8854 16.3461 20.003 16.544 20.0819C16.744 20.1599 16.957 20.1969 17.17 20.1919C17.4869 20.1924 17.7968 20.0988 18.0604 19.9229C18.3239 19.7469 18.5293 19.4967 18.6504 19.2038C18.7714 18.911 18.8028 18.5888 18.7404 18.2781C18.678 17.9674 18.5247 17.6823 18.3 17.4589C18 17.1589 17.594 16.9899 17.17 16.9899V16.9909ZM24.639 16.9909V16.9919C24.4257 16.9864 24.2134 17.0237 24.0147 17.1015C23.816 17.1793 23.6349 17.296 23.482 17.4449C23.2523 17.67 23.0955 17.9588 23.0319 18.274C22.9682 18.5892 23.0007 18.9163 23.125 19.2129C23.2076 19.4099 23.3288 19.5884 23.4815 19.7378C23.6342 19.8872 23.8152 20.0046 24.014 20.0829C24.212 20.1599 24.425 20.1969 24.639 20.1909C24.9557 20.1912 25.2653 20.0975 25.5287 19.9216C25.792 19.7458 25.9972 19.4957 26.1183 19.203C26.2393 18.9104 26.2707 18.5884 26.2086 18.2779C26.1464 17.9674 25.9934 17.6823 25.769 17.4589C25.469 17.1589 25.063 16.9899 24.639 16.9899V16.9909ZM32.018 16.9909V16.9919C31.8047 16.9864 31.5924 17.0237 31.3937 17.1015C31.195 17.1793 31.0139 17.296 30.861 17.4449C30.6313 17.67 30.4745 17.9588 30.4109 18.274C30.3472 18.5892 30.3797 18.9163 30.504 19.2129C30.5866 19.4099 30.7078 19.5884 30.8605 19.7378C31.0132 19.8872 31.1942 20.0046 31.393 20.0829C31.591 20.1599 31.804 20.1969 32.018 20.1909C32.2282 20.191 32.4363 20.1497 32.6305 20.0694C32.8246 19.989 33.0011 19.8711 33.1497 19.7225C33.2983 19.5739 33.4161 19.3975 33.4965 19.2033C33.5768 19.0091 33.6181 18.801 33.618 18.5909C33.617 18.1669 33.448 17.7605 33.1482 17.4607C32.8484 17.1608 32.442 16.9919 32.018 16.9909ZM17.128 17.4859C17.2784 17.4857 17.4274 17.5153 17.5663 17.5728C17.7053 17.6303 17.8316 17.7146 17.9379 17.8209C18.0443 17.9273 18.1286 18.0536 18.1861 18.1925C18.2436 18.3315 18.2731 18.4805 18.273 18.6309C18.273 18.9343 18.1525 19.2253 17.9379 19.4398C17.7234 19.6543 17.4324 19.7749 17.129 19.7749C16.9787 19.775 16.8298 19.7455 16.6909 19.6881C16.552 19.6306 16.4258 19.5464 16.3194 19.4402C16.2131 19.3339 16.1287 19.2078 16.0712 19.0689C16.0136 18.93 15.984 18.7812 15.984 18.6309C15.9839 18.4805 16.0134 18.3315 16.0709 18.1925C16.1284 18.0536 16.2127 17.9273 16.3191 17.8209C16.4254 17.7146 16.5517 17.6303 16.6907 17.5728C16.8297 17.5153 16.9786 17.4857 17.129 17.4859H17.128ZM24.627 17.4859C24.7773 17.4859 24.9262 17.5155 25.065 17.5731C25.2039 17.6306 25.33 17.715 25.4363 17.8213C25.5425 17.9276 25.6268 18.0539 25.6842 18.1928C25.7416 18.3317 25.7711 18.4806 25.771 18.6309C25.771 18.9343 25.6505 19.2253 25.4359 19.4398C25.2214 19.6543 24.9304 19.7749 24.627 19.7749C24.4767 19.775 24.3278 19.7455 24.1889 19.6881C24.05 19.6306 23.9238 19.5464 23.8174 19.4402C23.7111 19.3339 23.6267 19.2078 23.5692 19.0689C23.5116 18.93 23.482 18.7812 23.482 18.6309C23.4819 18.4805 23.5114 18.3315 23.5689 18.1925C23.6264 18.0536 23.7107 17.9273 23.8171 17.8209C23.9234 17.7146 24.0497 17.6303 24.1887 17.5728C24.3277 17.5153 24.4766 17.4857 24.627 17.4859ZM31.987 17.4859C32.1373 17.4859 32.2862 17.5155 32.425 17.5731C32.5639 17.6306 32.69 17.715 32.7963 17.8213C32.9025 17.9276 32.9868 18.0539 33.0442 18.1928C33.1016 18.3317 33.1311 18.4806 33.131 18.6309C33.131 18.7812 33.1014 18.93 33.0438 19.0689C32.9863 19.2078 32.9019 19.3339 32.7956 19.4402C32.6892 19.5464 32.563 19.6306 32.4241 19.6881C32.2852 19.7455 32.1363 19.775 31.986 19.7749C31.6829 19.7743 31.3925 19.6536 31.1784 19.4391C30.9643 19.2246 30.844 18.9339 30.844 18.6309C30.8437 18.3276 30.9639 18.0367 31.178 17.822C31.3922 17.6073 31.6828 17.4864 31.986 17.4859H31.987ZM20.412 17.5309C20.3898 17.5325 20.3685 17.5405 20.3507 17.554C20.333 17.5675 20.3195 17.5859 20.312 17.6069C20.3069 17.6208 20.3048 17.6357 20.3059 17.6505C20.3069 17.6653 20.311 17.6798 20.318 17.6929C20.3272 17.7135 20.3425 17.7308 20.3618 17.7424C20.3811 17.754 20.4035 17.7594 20.426 17.7579C20.4562 17.7553 20.4842 17.7409 20.504 17.7179C20.524 17.6959 20.534 17.6679 20.531 17.6379C20.5292 17.6084 20.5159 17.5807 20.494 17.5609C20.4829 17.551 20.4699 17.5435 20.4558 17.5387C20.4417 17.5339 20.4268 17.5319 20.412 17.5329V17.5309ZM28.412 17.5309C28.3898 17.5325 28.3685 17.5405 28.3507 17.554C28.333 17.5675 28.3195 17.5859 28.312 17.6069C28.3069 17.6208 28.3048 17.6357 28.3059 17.6505C28.3069 17.6653 28.311 17.6798 28.318 17.6929C28.3272 17.7135 28.3425 17.7308 28.3618 17.7424C28.3811 17.754 28.4035 17.7594 28.426 17.7579C28.4562 17.7553 28.4842 17.7409 28.504 17.7179C28.524 17.6959 28.534 17.6679 28.531 17.6379C28.5292 17.6084 28.5159 17.5807 28.494 17.5609C28.4829 17.551 28.4699 17.5435 28.4558 17.5387C28.4417 17.5339 28.4268 17.5319 28.412 17.5329V17.5309ZM20.412 18.0959C20.3972 18.0964 20.3825 18.0997 20.369 18.1059C20.3557 18.1125 20.3438 18.1217 20.334 18.1329C20.3246 18.1444 20.3174 18.1576 20.313 18.1719C20.308 18.1858 20.3059 18.2006 20.3067 18.2154C20.3076 18.2302 20.3114 18.2446 20.318 18.2579C20.3243 18.2712 20.3331 18.2831 20.344 18.2929C20.3669 18.3119 20.3963 18.3214 20.426 18.3196C20.4557 18.3177 20.4836 18.3046 20.504 18.2829C20.5235 18.2602 20.5332 18.2307 20.531 18.2009C20.5295 18.171 20.5162 18.143 20.494 18.1229C20.4713 18.1034 20.4418 18.0937 20.412 18.0959ZM28.412 18.0959C28.3972 18.0964 28.3825 18.0997 28.369 18.1059C28.3557 18.1125 28.3438 18.1217 28.334 18.1329C28.3246 18.1444 28.3174 18.1576 28.313 18.1719C28.308 18.1858 28.3059 18.2006 28.3067 18.2154C28.3076 18.2302 28.3114 18.2446 28.318 18.2579C28.3243 18.2712 28.3331 18.2831 28.344 18.2929C28.3669 18.3119 28.3963 18.3214 28.426 18.3196C28.4557 18.3177 28.4836 18.3046 28.504 18.2829C28.5235 18.2602 28.5332 18.2307 28.531 18.2009C28.5295 18.171 28.5162 18.143 28.494 18.1229C28.4713 18.1034 28.4418 18.0937 28.412 18.0959ZM20.412 18.6579C20.3852 18.6623 20.3609 18.6766 20.344 18.6979C20.3266 18.719 20.3174 18.7456 20.318 18.7729C20.319 18.8009 20.328 18.8279 20.348 18.8479C20.367 18.8679 20.393 18.8799 20.42 18.8829C20.435 18.8829 20.45 18.8789 20.463 18.8729C20.4763 18.8662 20.4882 18.857 20.498 18.8459C20.508 18.8352 20.5159 18.8226 20.521 18.8089C20.5258 18.7951 20.5279 18.7805 20.527 18.7659C20.5266 18.7512 20.5233 18.7368 20.5173 18.7234C20.5113 18.71 20.5027 18.6979 20.492 18.6879C20.4812 18.6782 20.4687 18.6707 20.455 18.6659C20.4413 18.6604 20.4267 18.6577 20.412 18.6579ZM28.412 18.6579C28.3852 18.6623 28.3609 18.6766 28.344 18.6979C28.3266 18.719 28.3174 18.7456 28.318 18.7729C28.319 18.8009 28.328 18.8279 28.348 18.8479C28.367 18.8679 28.393 18.8799 28.42 18.8829C28.435 18.8829 28.45 18.8789 28.463 18.8729C28.4763 18.8662 28.4882 18.857 28.498 18.8459C28.508 18.8352 28.5159 18.8226 28.521 18.8089C28.5258 18.7951 28.5279 18.7805 28.527 18.7659C28.5266 18.7512 28.5233 18.7368 28.5173 18.7234C28.5113 18.71 28.5027 18.6979 28.492 18.6879C28.4812 18.6782 28.4687 18.6707 28.455 18.6659C28.4413 18.6604 28.4267 18.6577 28.412 18.6579ZM20.4 19.2209C20.3734 19.2254 20.3494 19.2392 20.332 19.2599C20.321 19.2735 20.3133 19.2895 20.3095 19.3066C20.3057 19.3237 20.3058 19.3415 20.31 19.3585C20.3142 19.3755 20.3222 19.3914 20.3335 19.4048C20.3447 19.4182 20.359 19.4288 20.375 19.4359C20.3957 19.4438 20.4182 19.4458 20.44 19.4416C20.4617 19.4373 20.4818 19.427 20.498 19.4119C20.5141 19.3963 20.5251 19.3762 20.5296 19.3542C20.534 19.3323 20.5317 19.3095 20.523 19.2889C20.5141 19.2687 20.4995 19.2515 20.4811 19.2395C20.4626 19.2274 20.4411 19.2209 20.419 19.2209H20.4ZM28.4 19.2209C28.3734 19.2254 28.3494 19.2392 28.332 19.2599C28.321 19.2735 28.3133 19.2895 28.3095 19.3066C28.3057 19.3237 28.3058 19.3415 28.31 19.3585C28.3142 19.3755 28.3222 19.3914 28.3335 19.4048C28.3447 19.4182 28.359 19.4288 28.375 19.4359C28.3957 19.4438 28.4182 19.4458 28.44 19.4416C28.4617 19.4373 28.4818 19.427 28.498 19.4119C28.5141 19.3963 28.5251 19.3762 28.5296 19.3542C28.534 19.3323 28.5317 19.3095 28.523 19.2889C28.5141 19.2687 28.4995 19.2515 28.4811 19.2395C28.4626 19.2274 28.4411 19.2209 28.419 19.2209H28.4ZM20.422 19.7789C20.4071 19.7789 20.3923 19.7818 20.3785 19.7876C20.3648 19.7933 20.3523 19.8017 20.3417 19.8123C20.3312 19.8229 20.3229 19.8355 20.3173 19.8493C20.3117 19.8632 20.3089 19.878 20.309 19.8929C20.309 19.9229 20.319 19.9509 20.339 19.9729C20.361 19.9939 20.389 20.0059 20.419 20.0059C20.449 20.0059 20.479 19.9959 20.5 19.9749C20.5211 19.9536 20.533 19.9248 20.533 19.8949C20.533 19.8649 20.523 19.8349 20.502 19.8149C20.4809 19.7934 20.4521 19.7812 20.422 19.7809V19.7789ZM28.422 19.7789C28.4071 19.7793 28.3925 19.7827 28.379 19.7889C28.365 19.7941 28.3522 19.8021 28.3413 19.8124C28.3305 19.8227 28.3219 19.8351 28.316 19.8489C28.3107 19.8629 28.3083 19.8779 28.309 19.8929C28.3087 19.9151 28.3151 19.937 28.3272 19.9556C28.3392 19.9743 28.3566 19.989 28.377 19.9979C28.3907 20.0033 28.4053 20.0061 28.42 20.0059C28.45 20.0059 28.479 19.9959 28.5 19.9749C28.5211 19.9536 28.533 19.9248 28.533 19.8949C28.533 19.8649 28.523 19.8349 28.502 19.8149C28.4809 19.7934 28.4521 19.7812 28.422 19.7809V19.7789ZM20.412 20.3439C20.3831 20.3454 20.3559 20.3579 20.336 20.3789C20.3162 20.4 20.3055 20.428 20.306 20.4569C20.306 20.5189 20.356 20.5689 20.42 20.5679C20.4499 20.5676 20.4785 20.5556 20.4996 20.5345C20.5208 20.5134 20.5327 20.4848 20.533 20.4549C20.5322 20.4253 20.52 20.3973 20.4989 20.3765C20.4779 20.3558 20.4496 20.3441 20.42 20.3439H20.412ZM28.412 20.3439C28.3831 20.3454 28.3559 20.3579 28.336 20.3789C28.3162 20.4 28.3055 20.428 28.306 20.4569C28.306 20.5189 28.356 20.5689 28.42 20.5679C28.4499 20.5676 28.4785 20.5556 28.4996 20.5345C28.5208 20.5134 28.5327 20.4848 28.533 20.4549C28.5322 20.4253 28.52 20.3973 28.4989 20.3765C28.4779 20.3558 28.4496 20.3441 28.42 20.3439H28.412ZM20.412 20.9059C20.3825 20.907 20.3545 20.9195 20.334 20.9409C20.324 20.9514 20.3162 20.9638 20.311 20.9774C20.3059 20.9909 20.3035 21.0054 20.304 21.0199C20.305 21.0489 20.317 21.0769 20.338 21.0979C20.358 21.1179 20.387 21.1309 20.416 21.1309C20.4454 21.1306 20.4734 21.1188 20.4942 21.0981C20.515 21.0773 20.5267 21.0492 20.527 21.0199C20.527 20.9899 20.518 20.9629 20.498 20.9409C20.4775 20.9195 20.4496 20.907 20.42 20.9059H20.412ZM28.412 20.9059C28.3825 20.907 28.3545 20.9195 28.334 20.9409C28.324 20.9514 28.3162 20.9638 28.311 20.9774C28.3059 20.9909 28.3035 21.0054 28.304 21.0199C28.305 21.0489 28.317 21.0769 28.338 21.0979C28.358 21.1179 28.387 21.1309 28.416 21.1309C28.4454 21.1306 28.4734 21.1188 28.4942 21.0981C28.515 21.0773 28.5267 21.0492 28.527 21.0199C28.527 20.9899 28.518 20.9629 28.498 20.9409C28.4775 20.9195 28.4496 20.907 28.42 20.9059H28.412ZM20.412 21.4689C20.3831 21.4704 20.3559 21.4829 20.336 21.5039C20.3162 21.525 20.3055 21.553 20.306 21.5819C20.306 21.6439 20.356 21.6939 20.42 21.6929C20.4382 21.6925 20.456 21.6878 20.472 21.679C20.4879 21.6703 20.5015 21.6578 20.5116 21.6427C20.5218 21.6276 20.5281 21.6103 20.53 21.5922C20.532 21.5741 20.5296 21.5558 20.523 21.5389C20.5178 21.5252 20.51 21.5126 20.5 21.5019C20.4897 21.4912 20.4772 21.4827 20.4635 21.477C20.4497 21.4713 20.4349 21.4686 20.42 21.4689H20.412ZM28.412 21.4689C28.3831 21.4704 28.3559 21.4829 28.336 21.5039C28.3162 21.525 28.3055 21.553 28.306 21.5819C28.306 21.6439 28.356 21.6939 28.42 21.6929C28.4382 21.6925 28.456 21.6878 28.472 21.679C28.4879 21.6703 28.5015 21.6578 28.5116 21.6427C28.5218 21.6276 28.5281 21.6103 28.53 21.5922C28.532 21.5741 28.5296 21.5558 28.523 21.5389C28.5178 21.5252 28.51 21.5126 28.5 21.5019C28.4897 21.4912 28.4772 21.4827 28.4635 21.477C28.4497 21.4713 28.4349 21.4686 28.42 21.4689H28.412ZM20.412 22.0309C20.397 22.032 20.3824 22.0361 20.369 22.0429C20.3558 22.0488 20.3439 22.0573 20.334 22.0679C20.3245 22.0797 20.3173 22.0933 20.313 22.1079C20.3034 22.1358 20.3052 22.1663 20.318 22.1929C20.3249 22.206 20.3344 22.2176 20.346 22.2269C20.356 22.2369 20.369 22.2449 20.383 22.2499C20.3968 22.2547 20.4114 22.2568 20.426 22.2559C20.4562 22.2533 20.4842 22.2389 20.504 22.2159C20.524 22.1939 20.534 22.1659 20.531 22.1359C20.5292 22.1064 20.5159 22.0787 20.494 22.0589C20.4829 22.049 20.4699 22.0415 20.4558 22.0367C20.4417 22.0319 20.4268 22.0299 20.412 22.0309ZM28.412 22.0309C28.397 22.032 28.3824 22.0361 28.369 22.0429C28.3558 22.0488 28.3439 22.0573 28.334 22.0679C28.3245 22.0797 28.3173 22.0933 28.313 22.1079C28.3034 22.1358 28.3052 22.1663 28.318 22.1929C28.3249 22.206 28.3344 22.2176 28.346 22.2269C28.356 22.2369 28.369 22.2449 28.383 22.2499C28.3968 22.2547 28.4114 22.2568 28.426 22.2559C28.4562 22.2533 28.4842 22.2389 28.504 22.2159C28.524 22.1939 28.534 22.1659 28.531 22.1359C28.5292 22.1064 28.5159 22.0787 28.494 22.0589C28.4829 22.049 28.4699 22.0415 28.4558 22.0367C28.4417 22.0319 28.4268 22.0299 28.412 22.0309ZM17.17 22.2269C16.8488 22.2187 16.5326 22.3075 16.2626 22.4816C15.9926 22.6557 15.7812 22.907 15.656 23.2029C15.5306 23.4992 15.4975 23.8266 15.5612 24.1421C15.6249 24.4575 15.7824 24.7464 16.013 24.9709C16.1655 25.1204 16.3466 25.2377 16.5453 25.3158C16.7441 25.394 16.9565 25.4314 17.17 25.4259C17.5944 25.4259 18.0013 25.2573 18.3014 24.9572C18.6014 24.6572 18.77 24.2502 18.77 23.8259C18.77 23.4015 18.6014 22.9946 18.3014 22.6945C18.0013 22.3944 17.5944 22.2259 17.17 22.2259V22.2269ZM24.639 22.2269C24.3222 22.2261 24.0124 22.3196 23.749 22.4956C23.4856 22.6715 23.2806 22.9219 23.16 23.2149C23.0795 23.4087 23.038 23.6165 23.038 23.8264C23.038 24.0363 23.0795 24.2441 23.16 24.4379C23.2816 24.7301 23.4868 24.9798 23.75 25.1557C24.0132 25.3315 24.3225 25.4255 24.639 25.4259C25.0634 25.4259 25.4703 25.2573 25.7704 24.9572C26.0704 24.6572 26.239 24.2502 26.239 23.8259C26.239 23.4015 26.0704 22.9946 25.7704 22.6945C25.4703 22.3944 25.0634 22.2259 24.639 22.2259V22.2269ZM32.018 22.2269C31.7012 22.2261 31.3914 22.3196 31.128 22.4956C30.8646 22.6715 30.6596 22.9219 30.539 23.2149C30.4585 23.4087 30.417 23.6165 30.417 23.8264C30.417 24.0363 30.4585 24.2441 30.539 24.4379C30.6606 24.7301 30.8658 24.9798 31.129 25.1557C31.3922 25.3315 31.7015 25.4255 32.018 25.4259C32.4424 25.4259 32.8493 25.2573 33.1494 24.9572C33.4494 24.6572 33.618 24.2502 33.618 23.8259C33.618 23.4015 33.4494 22.9946 33.1494 22.6945C32.8493 22.3944 32.4424 22.2259 32.018 22.2259V22.2269ZM20.412 22.5939C20.3821 22.5954 20.3541 22.6087 20.334 22.6309C20.3145 22.6536 20.3048 22.683 20.307 22.7129C20.309 22.7429 20.321 22.7709 20.344 22.7909C20.361 22.8055 20.3819 22.8149 20.4041 22.8177C20.4263 22.8206 20.4489 22.8168 20.469 22.8069C20.4823 22.8006 20.4942 22.7918 20.504 22.7809C20.5134 22.7693 20.5206 22.7561 20.525 22.7419C20.53 22.7279 20.5321 22.7131 20.5313 22.6984C20.5304 22.6836 20.5266 22.6691 20.52 22.6559C20.5138 22.6426 20.5049 22.6307 20.494 22.6209C20.4825 22.6114 20.4692 22.6043 20.455 22.5999C20.4412 22.595 20.4266 22.5929 20.412 22.5939ZM28.412 22.5939C28.3821 22.5954 28.3541 22.6087 28.334 22.6309C28.3145 22.6536 28.3048 22.683 28.307 22.7129C28.309 22.7429 28.321 22.7709 28.344 22.7909C28.361 22.8055 28.3819 22.8149 28.4041 22.8177C28.4263 22.8206 28.4489 22.8168 28.469 22.8069C28.4823 22.8006 28.4942 22.7918 28.504 22.7809C28.5134 22.7693 28.5206 22.7561 28.525 22.7419C28.53 22.7279 28.5321 22.7131 28.5313 22.6984C28.5304 22.6836 28.5266 22.6691 28.52 22.6559C28.5138 22.6426 28.5049 22.6307 28.494 22.6209C28.4825 22.6114 28.4692 22.6043 28.455 22.5999C28.4412 22.595 28.4266 22.5929 28.412 22.5939ZM17.137 22.6819C17.4404 22.6819 17.7314 22.8024 17.9459 23.0169C18.1605 23.2315 18.281 23.5225 18.281 23.8259C18.2811 23.9762 18.2516 24.1251 18.1942 24.264C18.1368 24.4029 18.0525 24.5291 17.9463 24.6355C17.84 24.7418 17.7139 24.8261 17.575 24.8837C17.4362 24.9413 17.2873 24.9709 17.137 24.9709C16.9866 24.971 16.8377 24.9415 16.6987 24.884C16.5597 24.8265 16.4334 24.7422 16.3271 24.6358C16.2207 24.5295 16.1364 24.4032 16.0789 24.2642C16.0214 24.1252 15.9919 23.9763 15.992 23.8259C15.992 23.6756 16.0216 23.5267 16.0792 23.3879C16.1367 23.249 16.2211 23.1228 16.3274 23.0166C16.4338 22.9103 16.56 22.8261 16.6989 22.7687C16.8378 22.7112 16.9867 22.6817 17.137 22.6819ZM24.633 22.6819C24.9364 22.6819 25.2274 22.8024 25.4419 23.0169C25.6565 23.2315 25.777 23.5225 25.777 23.8259C25.7771 23.9762 25.7476 24.1251 25.6902 24.264C25.6328 24.4029 25.5485 24.5291 25.4423 24.6355C25.336 24.7418 25.2099 24.8261 25.071 24.8837C24.9322 24.9413 24.7833 24.9709 24.633 24.9709C24.4828 24.9707 24.334 24.941 24.1953 24.8834C24.0565 24.8258 23.9305 24.7414 23.8244 24.6351C23.7182 24.5288 23.6341 24.4026 23.5767 24.2637C23.5193 24.1249 23.4899 23.9761 23.49 23.8259C23.49 23.5226 23.6104 23.2318 23.8247 23.0173C24.039 22.8028 24.3298 22.6821 24.633 22.6819ZM31.994 22.6819C32.1443 22.6817 32.2932 22.7112 32.4321 22.7687C32.571 22.8261 32.6972 22.9103 32.8036 23.0166C32.9099 23.1228 32.9943 23.249 33.0518 23.3879C33.1094 23.5267 33.139 23.6756 33.139 23.8259C33.1391 23.9763 33.1096 24.1252 33.0521 24.2642C32.9946 24.4032 32.9103 24.5295 32.8039 24.6358C32.6976 24.7422 32.5713 24.8265 32.4323 24.884C32.2934 24.9415 32.1444 24.971 31.994 24.9709C31.8437 24.9709 31.6948 24.9413 31.556 24.8837C31.4171 24.8261 31.291 24.7418 31.1847 24.6355C31.0785 24.5291 30.9942 24.4029 30.9368 24.264C30.8794 24.1251 30.8499 23.9762 30.85 23.8259C30.85 23.5225 30.9705 23.2315 31.1851 23.0169C31.3996 22.8024 31.6906 22.6819 31.994 22.6819ZM20.412 23.1559C20.3825 23.157 20.3545 23.1695 20.334 23.1909C20.324 23.2014 20.3162 23.2138 20.311 23.2274C20.3059 23.2409 20.3035 23.2554 20.304 23.2699C20.305 23.2989 20.317 23.3269 20.338 23.3479C20.358 23.3679 20.387 23.3809 20.416 23.3809C20.4454 23.3806 20.4734 23.3688 20.4942 23.3481C20.515 23.3273 20.5267 23.2992 20.527 23.2699C20.527 23.2399 20.518 23.2129 20.498 23.1909C20.4775 23.1695 20.4496 23.157 20.42 23.1559H20.412ZM28.412 23.1559C28.3825 23.157 28.3545 23.1695 28.334 23.1909C28.324 23.2014 28.3162 23.2138 28.311 23.2274C28.3059 23.2409 28.3035 23.2554 28.304 23.2699C28.305 23.2989 28.317 23.3269 28.338 23.3479C28.358 23.3679 28.387 23.3809 28.416 23.3809C28.4454 23.3806 28.4734 23.3688 28.4942 23.3481C28.515 23.3273 28.5267 23.2992 28.527 23.2699C28.527 23.2399 28.518 23.2129 28.498 23.1909C28.4775 23.1695 28.4496 23.157 28.42 23.1559H28.412ZM20.4 23.7189C20.3736 23.7226 20.3495 23.7358 20.332 23.7559C20.3151 23.7768 20.3063 23.803 20.307 23.8299C20.305 23.8456 20.3063 23.8617 20.311 23.8769C20.3157 23.8926 20.3235 23.9073 20.334 23.9199C20.344 23.9319 20.358 23.9399 20.373 23.9469C20.388 23.9539 20.403 23.9589 20.42 23.9589C20.436 23.9589 20.45 23.9539 20.465 23.9469C20.4798 23.9407 20.4931 23.9315 20.504 23.9199C20.5144 23.9075 20.5221 23.8931 20.5268 23.8777C20.5314 23.8622 20.5329 23.8459 20.531 23.8299C20.531 23.7699 20.481 23.7199 20.42 23.7189H20.4ZM28.4 23.7189C28.3736 23.7226 28.3495 23.7358 28.332 23.7559C28.3151 23.7768 28.3063 23.803 28.307 23.8299C28.305 23.8456 28.3063 23.8617 28.311 23.8769C28.3157 23.8926 28.3235 23.9073 28.334 23.9199C28.344 23.9319 28.358 23.9399 28.373 23.9469C28.388 23.9539 28.403 23.9589 28.42 23.9589C28.436 23.9589 28.45 23.9539 28.465 23.9469C28.4798 23.9407 28.4931 23.9315 28.504 23.9199C28.5144 23.9075 28.5221 23.8931 28.5268 23.8777C28.5314 23.8622 28.5329 23.8459 28.531 23.8299C28.531 23.7699 28.481 23.7199 28.42 23.7189H28.4ZM20.4 24.2809C20.3736 24.2846 20.3495 24.2978 20.332 24.3179C20.3149 24.3391 20.306 24.3657 20.307 24.3929C20.307 24.4549 20.357 24.5049 20.42 24.5029C20.48 24.5029 20.53 24.4549 20.531 24.3929C20.531 24.3319 20.481 24.2829 20.42 24.2809H20.4ZM28.4 24.2809C28.3736 24.2846 28.3495 24.2978 28.332 24.3179C28.3149 24.3391 28.306 24.3657 28.307 24.3929C28.307 24.4549 28.357 24.5049 28.42 24.5029C28.48 24.5029 28.53 24.4549 28.531 24.3929C28.531 24.3319 28.481 24.2829 28.42 24.2809H28.4ZM20.412 24.8409C20.383 24.8427 20.3558 24.8555 20.336 24.8769C20.3162 24.898 20.3055 24.926 20.306 24.9549C20.306 25.0169 20.356 25.0669 20.42 25.0659C20.4496 25.065 20.4777 25.0524 20.498 25.0309C20.5186 25.0086 20.5297 24.9792 20.529 24.9489C20.5275 24.9193 20.5143 24.8914 20.4924 24.8714C20.4705 24.8514 20.4417 24.8408 20.412 24.8419V24.8409ZM28.412 24.8409C28.383 24.8427 28.3558 24.8555 28.336 24.8769C28.3162 24.898 28.3055 24.926 28.306 24.9549C28.3058 24.9735 28.3104 24.9919 28.3192 25.0084C28.328 25.0248 28.3409 25.0388 28.3565 25.0489C28.3722 25.0591 28.3901 25.0652 28.4088 25.0666C28.4274 25.0679 28.446 25.0646 28.463 25.0569C28.4765 25.0505 28.4886 25.0414 28.4986 25.0302C28.5085 25.0191 28.5162 25.006 28.521 24.9919C28.5264 24.9782 28.5292 24.9636 28.529 24.9489C28.5281 24.934 28.5244 24.9194 28.518 24.9059C28.5056 24.8786 28.483 24.8574 28.455 24.8469C28.4412 24.8423 28.4265 24.8406 28.412 24.8419V24.8409ZM20.412 25.4039C20.3825 25.405 20.3545 25.4175 20.334 25.4389C20.324 25.4494 20.3162 25.4618 20.311 25.4754C20.3059 25.4889 20.3035 25.5034 20.304 25.5179C20.305 25.5469 20.317 25.5749 20.338 25.5959C20.358 25.6159 20.387 25.6289 20.416 25.6289C20.4454 25.6286 20.4734 25.6168 20.4942 25.5961C20.515 25.5753 20.5267 25.5472 20.527 25.5179C20.527 25.4879 20.518 25.4609 20.498 25.4389C20.4869 25.4273 20.4735 25.4183 20.4587 25.4122C20.4439 25.4062 20.428 25.4033 20.412 25.4039ZM28.412 25.4039C28.3825 25.405 28.3545 25.4175 28.334 25.4389C28.324 25.4494 28.3162 25.4618 28.311 25.4754C28.3059 25.4889 28.3035 25.5034 28.304 25.5179C28.305 25.5469 28.317 25.5749 28.338 25.5959C28.358 25.6159 28.387 25.6289 28.416 25.6289C28.4454 25.6286 28.4734 25.6168 28.4942 25.5961C28.515 25.5753 28.5267 25.5472 28.527 25.5179C28.527 25.4879 28.518 25.4609 28.498 25.4389C28.4869 25.4273 28.4735 25.4183 28.4587 25.4122C28.4439 25.4062 28.428 25.4033 28.412 25.4039ZM20.412 25.9669C20.3832 25.9685 20.356 25.981 20.336 26.0019C20.3164 26.0231 20.3057 26.051 20.306 26.0799C20.3058 26.0985 20.3104 26.1169 20.3192 26.1334C20.328 26.1498 20.3409 26.1638 20.3565 26.1739C20.3722 26.1841 20.3901 26.1902 20.4088 26.1916C20.4274 26.1929 20.446 26.1896 20.463 26.1819C20.4765 26.1755 20.4886 26.1664 20.4986 26.1552C20.5085 26.1441 20.5162 26.131 20.521 26.1169C20.5264 26.1032 20.5292 26.0886 20.529 26.0739C20.5281 26.059 20.5244 26.0444 20.518 26.0309C20.5056 26.0036 20.483 25.9824 20.455 25.9719C20.4412 25.9673 20.4265 25.9656 20.412 25.9669ZM28.412 25.9669C28.3832 25.9685 28.356 25.981 28.336 26.0019C28.3164 26.0231 28.3057 26.051 28.306 26.0799C28.3058 26.0985 28.3104 26.1169 28.3192 26.1334C28.328 26.1498 28.3409 26.1638 28.3565 26.1739C28.3722 26.1841 28.3901 26.1902 28.4088 26.1916C28.4274 26.1929 28.446 26.1896 28.463 26.1819C28.4765 26.1755 28.4886 26.1664 28.4986 26.1552C28.5085 26.1441 28.5162 26.131 28.521 26.1169C28.5264 26.1032 28.5292 26.0886 28.529 26.0739C28.5281 26.059 28.5244 26.0444 28.518 26.0309C28.5056 26.0036 28.483 25.9824 28.455 25.9719C28.4412 25.9673 28.4265 25.9656 28.412 25.9669ZM20.412 26.5289C20.397 26.53 20.3824 26.5341 20.369 26.5409C20.3558 26.5468 20.3439 26.5553 20.334 26.5659C20.3245 26.5777 20.3173 26.5913 20.313 26.6059C20.3034 26.6338 20.3052 26.6643 20.318 26.6909C20.3249 26.704 20.3345 26.7156 20.346 26.7249C20.356 26.7349 20.369 26.7429 20.383 26.7479C20.3968 26.7527 20.4114 26.7548 20.426 26.7539C20.4562 26.7513 20.4842 26.7369 20.504 26.7139C20.524 26.6929 20.534 26.6639 20.531 26.6339C20.5291 26.6044 20.5159 26.5768 20.494 26.5569C20.4829 26.547 20.4699 26.5395 20.4558 26.5347C20.4417 26.5299 20.4268 26.5279 20.412 26.5289ZM28.412 26.5289C28.397 26.53 28.3824 26.5341 28.369 26.5409C28.3558 26.5468 28.3439 26.5553 28.334 26.5659C28.3245 26.5777 28.3173 26.5913 28.313 26.6059C28.3034 26.6338 28.3052 26.6643 28.318 26.6909C28.3249 26.704 28.3345 26.7156 28.346 26.7249C28.356 26.7349 28.369 26.7429 28.383 26.7479C28.3968 26.7527 28.4114 26.7548 28.426 26.7539C28.4562 26.7513 28.4842 26.7369 28.504 26.7139C28.524 26.6929 28.534 26.6639 28.531 26.6339C28.5291 26.6044 28.5159 26.5768 28.494 26.5569C28.4829 26.547 28.4699 26.5395 28.4558 26.5347C28.4417 26.5299 28.4268 26.5279 28.412 26.5289ZM20.412 27.0919C20.3898 27.0935 20.3685 27.1015 20.3507 27.115C20.333 27.1285 20.3195 27.1469 20.312 27.1679C20.3071 27.1819 20.3051 27.1967 20.306 27.2114C20.3069 27.2262 20.3107 27.2407 20.3172 27.254C20.3237 27.2673 20.3328 27.2792 20.3439 27.2889C20.355 27.2987 20.368 27.3061 20.382 27.3109C20.403 27.318 20.4256 27.3189 20.4471 27.3134C20.4686 27.3079 20.488 27.2963 20.503 27.2799C20.513 27.2686 20.5206 27.2555 20.5254 27.2412C20.5302 27.2269 20.5321 27.2119 20.531 27.1969C20.5295 27.167 20.5162 27.139 20.494 27.1189C20.4713 27.0994 20.4418 27.0897 20.412 27.0919ZM28.412 27.0919C28.3898 27.0935 28.3685 27.1015 28.3507 27.115C28.333 27.1285 28.3195 27.1469 28.312 27.1679C28.3071 27.1819 28.3051 27.1967 28.306 27.2114C28.3069 27.2262 28.3107 27.2407 28.3172 27.254C28.3237 27.2673 28.3328 27.2792 28.3439 27.2889C28.355 27.2987 28.368 27.3061 28.382 27.3109C28.403 27.318 28.4256 27.3189 28.4471 27.3134C28.4686 27.3079 28.488 27.2963 28.503 27.2799C28.513 27.2686 28.5206 27.2555 28.5254 27.2412C28.5302 27.2269 28.5321 27.2119 28.531 27.1969C28.5295 27.167 28.5162 27.139 28.494 27.1189C28.4713 27.0994 28.4418 27.0897 28.412 27.0919ZM17.17 27.4609C16.8462 27.4491 16.5265 27.5361 16.2532 27.7102C15.98 27.8843 15.7661 28.1374 15.64 28.4359C15.5558 28.6337 15.5124 28.8464 15.5123 29.0614C15.5123 29.2764 15.5556 29.4892 15.6398 29.687C15.7239 29.8849 15.8471 30.0637 16.0019 30.2128C16.1568 30.3619 16.3401 30.4783 16.541 30.5549C16.7579 30.6376 16.9903 30.672 17.2219 30.6559C17.4535 30.6398 17.6788 30.5735 17.8822 30.4616C18.0856 30.3496 18.2622 30.1948 18.3997 30.0078C18.5373 29.8208 18.6325 29.606 18.6788 29.3785C18.725 29.151 18.7212 28.9162 18.6676 28.6903C18.614 28.4644 18.5118 28.2529 18.3683 28.0705C18.2247 27.888 18.0432 27.739 17.8363 27.6337C17.6294 27.5284 17.402 27.4695 17.17 27.4609ZM24.639 27.4609C24.4254 27.4554 24.2129 27.4928 24.014 27.5709C23.8154 27.6492 23.6346 27.7665 23.482 27.9159C23.2511 28.14 23.0932 28.4287 23.0291 28.7441C22.965 29.0594 22.9976 29.3868 23.1226 29.6833C23.2476 29.9799 23.4593 30.2318 23.7299 30.406C24.0004 30.5802 24.3173 30.6687 24.639 30.6599C25.0634 30.6599 25.4703 30.4913 25.7704 30.1912C26.0704 29.8912 26.239 29.4842 26.239 29.0599C26.239 28.6355 26.0704 28.2286 25.7704 27.9285C25.4703 27.6284 25.0634 27.4599 24.639 27.4599V27.4609ZM32.018 27.4609C31.8044 27.4554 31.5919 27.4928 31.393 27.5709C31.1944 27.6492 31.0135 27.7665 30.861 27.9159C30.6301 28.14 30.4722 28.4287 30.4081 28.7441C30.344 29.0594 30.3766 29.3868 30.5016 29.6833C30.6266 29.9799 30.8383 30.2318 31.1089 30.406C31.3794 30.5802 31.6963 30.6687 32.018 30.6599C32.4424 30.6599 32.8493 30.4913 33.1494 30.1912C33.4494 29.8912 33.618 29.4842 33.618 29.0599C33.618 28.6355 33.4494 28.2286 33.1494 27.9285C32.8493 27.6284 32.4424 27.4599 32.018 27.4599V27.4609ZM20.412 27.6539C20.397 27.655 20.3824 27.6591 20.369 27.6659C20.3558 27.6718 20.3439 27.6803 20.334 27.6909C20.3245 27.7027 20.3173 27.7163 20.313 27.7309C20.3034 27.7588 20.3052 27.7893 20.318 27.8159C20.3249 27.829 20.3345 27.8406 20.346 27.8499C20.356 27.8599 20.369 27.8679 20.383 27.8729C20.3968 27.8777 20.4114 27.8798 20.426 27.8789C20.4562 27.8763 20.4842 27.8619 20.504 27.8389C20.524 27.8179 20.534 27.7889 20.531 27.7589C20.5291 27.7294 20.5159 27.7018 20.494 27.6819C20.4829 27.672 20.4699 27.6645 20.4558 27.6597C20.4417 27.6549 20.4268 27.6529 20.412 27.6539ZM28.412 27.6539C28.397 27.655 28.3824 27.6591 28.369 27.6659C28.3558 27.6718 28.3439 27.6803 28.334 27.6909C28.3245 27.7027 28.3173 27.7163 28.313 27.7309C28.3034 27.7588 28.3052 27.7893 28.318 27.8159C28.3249 27.829 28.3345 27.8406 28.346 27.8499C28.356 27.8599 28.369 27.8679 28.383 27.8729C28.3968 27.8777 28.4114 27.8798 28.426 27.8789C28.4562 27.8763 28.4842 27.8619 28.504 27.8389C28.524 27.8179 28.534 27.7889 28.531 27.7589C28.5291 27.7294 28.5159 27.7018 28.494 27.6819C28.4829 27.672 28.4699 27.6645 28.4558 27.6597C28.4417 27.6549 28.4268 27.6529 28.412 27.6539ZM17.17 27.9219C17.8 27.9209 18.312 28.4319 18.31 29.0609C18.295 29.3527 18.1685 29.6277 17.9567 29.8289C17.7448 30.0302 17.4637 30.1424 17.1715 30.1424C16.8793 30.1424 16.5982 30.0302 16.3863 29.8289C16.1745 29.6277 16.048 29.3527 16.033 29.0609C16.033 28.4329 16.541 27.9209 17.17 27.9209V27.9219ZM24.639 27.9219C24.7887 27.9217 24.9369 27.9511 25.0752 28.0083C25.2135 28.0655 25.3392 28.1493 25.445 28.2551C25.5509 28.3609 25.6349 28.4865 25.6922 28.6248C25.7495 28.763 25.779 28.9112 25.779 29.0609C25.764 29.3527 25.6375 29.6277 25.4257 29.8289C25.2138 30.0302 24.9327 30.1424 24.6405 30.1424C24.3483 30.1424 24.0672 30.0302 23.8553 29.8289C23.6435 29.6277 23.517 29.3527 23.502 29.0609C23.502 28.4329 24.01 27.9209 24.639 27.9209V27.9219ZM32.018 27.9219C32.3202 27.9219 32.61 28.0418 32.8238 28.2554C33.0375 28.469 33.1577 28.7587 33.158 29.0609C33.143 29.3527 33.0165 29.6277 32.8047 29.8289C32.5928 30.0302 32.3117 30.1424 32.0195 30.1424C31.7273 30.1424 31.4462 30.0302 31.2343 29.8289C31.0225 29.6277 30.896 29.3527 30.881 29.0609C30.881 28.4329 31.389 27.9209 32.018 27.9209V27.9219ZM20.4 28.2169C20.3736 28.2206 20.3494 28.2337 20.332 28.2539C20.3151 28.2747 20.3062 28.301 20.307 28.3279C20.307 28.3899 20.357 28.4399 20.42 28.4389C20.48 28.4389 20.53 28.3889 20.531 28.3289C20.531 28.2669 20.481 28.2179 20.42 28.2169H20.4ZM28.4 28.2169C28.3736 28.2206 28.3494 28.2337 28.332 28.2539C28.3151 28.2747 28.3062 28.301 28.307 28.3279C28.307 28.3899 28.357 28.4399 28.42 28.4389C28.48 28.4389 28.53 28.3889 28.531 28.3289C28.531 28.2669 28.481 28.2179 28.42 28.2169H28.4ZM20.422 28.7769C20.4062 28.7749 20.3902 28.7762 20.375 28.7809C20.345 28.7922 20.3206 28.8148 20.307 28.8439C20.3007 28.858 20.2974 28.8734 20.2974 28.8889C20.2974 28.9044 20.3007 28.9197 20.307 28.9339C20.3133 28.9486 20.3224 28.9619 20.334 28.9729C20.3563 28.9926 20.3854 29.003 20.4152 29.0019C20.445 29.0008 20.4732 28.9882 20.494 28.9669C20.5132 28.946 20.5238 28.9187 20.5238 28.8904C20.5238 28.862 20.5132 28.8347 20.494 28.8139C20.4755 28.793 20.4498 28.7798 20.422 28.7769ZM28.422 28.7769C28.4062 28.7749 28.3902 28.7762 28.375 28.7809C28.345 28.7922 28.3206 28.8148 28.307 28.8439C28.3007 28.858 28.2974 28.8734 28.2974 28.8889C28.2974 28.9044 28.3007 28.9197 28.307 28.9339C28.3132 28.9486 28.3224 28.9619 28.334 28.9729C28.3563 28.9926 28.3854 29.003 28.4152 29.0019C28.445 29.0008 28.4732 28.9882 28.494 28.9669C28.5132 28.946 28.5238 28.9187 28.5238 28.8904C28.5238 28.862 28.5132 28.8347 28.494 28.8139C28.4755 28.793 28.4498 28.7798 28.422 28.7769ZM20.412 29.3399C20.3832 29.3415 20.356 29.354 20.336 29.3749C20.3164 29.3961 20.3057 29.424 20.306 29.4529C20.306 29.5149 20.356 29.5649 20.42 29.5639C20.4382 29.5635 20.456 29.5588 20.472 29.55C20.4879 29.5413 20.5015 29.5288 20.5116 29.5137C20.5218 29.4986 20.5281 29.4813 20.53 29.4632C20.532 29.4451 20.5296 29.4268 20.523 29.4099C20.5171 29.3961 20.5086 29.3835 20.498 29.3729C20.488 29.3629 20.4761 29.3551 20.463 29.3499C20.4495 29.3437 20.4349 29.3403 20.42 29.3399H20.412ZM28.412 29.3399C28.3832 29.3415 28.356 29.354 28.336 29.3749C28.3164 29.3961 28.3057 29.424 28.306 29.4529C28.306 29.5149 28.356 29.5649 28.42 29.5639C28.4382 29.5635 28.456 29.5588 28.472 29.55C28.4879 29.5413 28.5015 29.5288 28.5116 29.5137C28.5218 29.4986 28.5281 29.4813 28.53 29.4632C28.532 29.4451 28.5296 29.4268 28.523 29.4099C28.5171 29.3961 28.5086 29.3835 28.498 29.3729C28.488 29.3629 28.4761 29.3551 28.463 29.3499C28.4495 29.3437 28.4349 29.3403 28.42 29.3399H28.412ZM20.412 29.9019C20.3825 29.903 20.3545 29.9155 20.334 29.9369C20.324 29.9474 20.3162 29.9598 20.311 29.9734C20.3059 29.9869 20.3035 30.0014 20.304 30.0159C20.305 30.0449 20.317 30.0729 20.338 30.0939C20.358 30.1139 20.387 30.1269 20.416 30.1269C20.4454 30.1266 20.4734 30.1148 20.4942 30.0941C20.515 30.0733 20.5267 30.0452 20.527 30.0159C20.527 29.9859 20.518 29.9589 20.498 29.9369C20.4775 29.9155 20.4496 29.903 20.42 29.9019H20.412ZM28.412 29.9019C28.3825 29.903 28.3545 29.9155 28.334 29.9369C28.324 29.9474 28.3162 29.9598 28.311 29.9734C28.3059 29.9869 28.3035 30.0014 28.304 30.0159C28.305 30.0449 28.317 30.0729 28.338 30.0939C28.358 30.1139 28.387 30.1269 28.416 30.1269C28.4454 30.1266 28.4734 30.1148 28.4942 30.0941C28.515 30.0733 28.5267 30.0452 28.527 30.0159C28.527 29.9859 28.518 29.9589 28.498 29.9369C28.4775 29.9155 28.4496 29.903 28.42 29.9019H28.412ZM20.412 30.4649C20.3832 30.4665 20.356 30.479 20.336 30.4999C20.3164 30.5211 20.3057 30.549 20.306 30.5779C20.306 30.6399 20.356 30.6899 20.42 30.6889C20.4496 30.688 20.4777 30.6754 20.498 30.6539C20.518 30.6317 20.5285 30.6025 20.5274 30.5727C20.5263 30.5428 20.5136 30.5145 20.492 30.4939C20.4813 30.4838 20.4688 30.4759 20.455 30.4708C20.4413 30.4656 20.4267 30.4633 20.412 30.4639V30.4649ZM28.412 30.4649C28.3832 30.4665 28.356 30.479 28.336 30.4999C28.3164 30.5211 28.3057 30.549 28.306 30.5779C28.3058 30.5965 28.3104 30.6149 28.3192 30.6314C28.328 30.6478 28.3409 30.6618 28.3565 30.6719C28.3722 30.6821 28.3901 30.6882 28.4088 30.6896C28.4274 30.6909 28.446 30.6876 28.463 30.6799C28.4763 30.6736 28.4882 30.6648 28.498 30.6539C28.5081 30.6432 28.5159 30.6306 28.521 30.6169C28.5281 30.5957 28.5291 30.573 28.524 30.5512C28.5189 30.5295 28.5078 30.5097 28.492 30.4939C28.4812 30.4845 28.4686 30.4774 28.455 30.4729C28.4413 30.4674 28.4267 30.4647 28.412 30.4649ZM20.412 31.0249C20.3837 31.0271 20.3572 31.0399 20.338 31.0609C20.3279 31.0712 20.3199 31.0835 20.3145 31.0969C20.3091 31.1104 20.3064 31.1248 20.3066 31.1393C20.3068 31.1538 20.3098 31.1681 20.3155 31.1814C20.3213 31.1947 20.3296 31.2068 20.34 31.2169C20.36 31.2369 20.39 31.2499 20.42 31.2499C20.4345 31.2498 20.4489 31.2468 20.4623 31.2412C20.4757 31.2355 20.4878 31.2273 20.498 31.2169C20.5088 31.2065 20.5173 31.1939 20.5231 31.1801C20.5288 31.1663 20.5317 31.1514 20.5315 31.1364C20.5313 31.1215 20.5281 31.1067 20.522 31.093C20.5159 31.0793 20.507 31.067 20.496 31.0569C20.4848 31.0463 20.4715 31.0381 20.457 31.0329C20.4427 31.0272 20.4274 31.0244 20.412 31.0249ZM28.412 31.0249C28.3837 31.0271 28.3572 31.0399 28.338 31.0609C28.3279 31.0712 28.3199 31.0835 28.3145 31.0969C28.3091 31.1104 28.3064 31.1248 28.3066 31.1393C28.3068 31.1538 28.3098 31.1681 28.3155 31.1814C28.3213 31.1947 28.3296 31.2068 28.34 31.2169C28.36 31.2369 28.39 31.2499 28.42 31.2499C28.4345 31.2498 28.4489 31.2468 28.4623 31.2412C28.4757 31.2355 28.4878 31.2273 28.498 31.2169C28.5088 31.2065 28.5173 31.1939 28.5231 31.1801C28.5288 31.1663 28.5317 31.1514 28.5315 31.1364C28.5313 31.1215 28.5281 31.1067 28.522 31.093C28.5159 31.0793 28.507 31.067 28.496 31.0569C28.4848 31.0463 28.4715 31.0381 28.457 31.0329C28.4427 31.0272 28.4274 31.0244 28.412 31.0249ZM20.412 31.5879C20.3852 31.5925 20.3611 31.6067 20.344 31.6279C20.3263 31.6488 20.317 31.6755 20.318 31.7029C20.319 31.7309 20.328 31.7569 20.348 31.7769C20.367 31.7969 20.393 31.8099 20.42 31.8119C20.4347 31.8115 20.4492 31.8083 20.4625 31.8023C20.4759 31.7963 20.488 31.7876 20.498 31.7769C20.5081 31.7662 20.5159 31.7536 20.521 31.7399C20.5281 31.7187 20.5291 31.696 20.524 31.6742C20.5189 31.6525 20.5078 31.6327 20.492 31.6169C20.4812 31.6075 20.4686 31.6004 20.455 31.5959C20.4413 31.5904 20.4267 31.5877 20.412 31.5879ZM28.412 31.5879C28.3852 31.5925 28.3611 31.6067 28.344 31.6279C28.3263 31.6488 28.317 31.6755 28.318 31.7029C28.319 31.7309 28.328 31.7569 28.348 31.7769C28.367 31.7969 28.393 31.8099 28.42 31.8119C28.4347 31.8115 28.4492 31.8083 28.4625 31.8023C28.4759 31.7963 28.488 31.7876 28.498 31.7769C28.5081 31.7662 28.5159 31.7536 28.521 31.7399C28.5281 31.7187 28.5291 31.696 28.524 31.6742C28.5189 31.6525 28.5078 31.6327 28.492 31.6169C28.4812 31.6075 28.4686 31.6004 28.455 31.5959C28.4413 31.5904 28.4267 31.5877 28.412 31.5879ZM20.4 32.1499C20.3735 32.1539 20.3493 32.1674 20.332 32.1879C20.3151 32.2088 20.3063 32.235 20.307 32.2619C20.307 32.2839 20.312 32.3059 20.324 32.3239C20.336 32.3429 20.354 32.3559 20.375 32.3649C20.3953 32.3738 20.4178 32.3766 20.4397 32.3729C20.4615 32.3692 20.4818 32.3591 20.498 32.3439C20.5138 32.3284 20.5246 32.3086 20.529 32.2869C20.5328 32.2704 20.5328 32.2533 20.529 32.2368C20.5252 32.2203 20.5178 32.2049 20.5072 32.1918C20.4966 32.1786 20.4832 32.168 20.4679 32.1607C20.4526 32.1535 20.4359 32.1498 20.419 32.1499C20.4135 32.148 20.4075 32.148 20.402 32.1499H20.4ZM28.4 32.1499C28.3735 32.1539 28.3493 32.1674 28.332 32.1879C28.3151 32.2088 28.3063 32.235 28.307 32.2619C28.307 32.2839 28.312 32.3059 28.324 32.3239C28.336 32.3429 28.354 32.3559 28.375 32.3649C28.3953 32.3738 28.4178 32.3766 28.4397 32.3729C28.4615 32.3692 28.4818 32.3591 28.498 32.3439C28.5138 32.3284 28.5246 32.3086 28.529 32.2869C28.5328 32.2704 28.5328 32.2533 28.529 32.2368C28.5252 32.2203 28.5177 32.2049 28.5072 32.1918C28.4966 32.1786 28.4832 32.168 28.4679 32.1607C28.4526 32.1535 28.4359 32.1498 28.419 32.1499C28.4135 32.148 28.4075 32.148 28.402 32.1499H28.4ZM17.17 32.6949C16.9569 32.6896 16.7448 32.7269 16.5463 32.8047C16.3478 32.8825 16.1668 32.9992 16.014 33.1479C15.7842 33.3728 15.6272 33.6616 15.5633 33.9769C15.4995 34.2921 15.5318 34.6192 15.656 34.9159C15.7388 35.1124 15.8602 35.2904 16.0128 35.4393C16.1655 35.5882 16.3465 35.705 16.545 35.7829C16.7625 35.8687 16.9962 35.9057 17.2296 35.8914C17.463 35.8772 17.6904 35.8119 17.8959 35.7003C18.1013 35.5886 18.2798 35.4333 18.4188 35.2453C18.5577 35.0572 18.6538 34.841 18.7002 34.6118C18.7465 34.3826 18.7421 34.1461 18.6872 33.9188C18.6323 33.6915 18.5283 33.479 18.3824 33.2963C18.2366 33.1135 18.0524 32.965 17.8429 32.8611C17.6335 32.7572 17.4038 32.7004 17.17 32.6949ZM24.639 32.6949C24.4257 32.6894 24.2134 32.7267 24.0147 32.8045C23.816 32.8823 23.6349 32.999 23.482 33.1479C23.2523 33.373 23.0955 33.6618 23.0319 33.977C22.9682 34.2922 23.0007 34.6193 23.125 34.9159C23.2078 35.1124 23.3292 35.2904 23.4818 35.4393C23.6345 35.5882 23.8155 35.705 24.014 35.7829C24.2315 35.8687 24.4652 35.9057 24.6986 35.8914C24.932 35.8772 25.1594 35.8119 25.3649 35.7003C25.5703 35.5886 25.7488 35.4333 25.8878 35.2453C26.0267 35.0572 26.1228 34.841 26.1692 34.6118C26.2155 34.3826 26.2111 34.1461 26.1562 33.9188C26.1013 33.6915 25.9973 33.479 25.8514 33.2963C25.7056 33.1135 25.5214 32.965 25.3119 32.8611C25.1025 32.7572 24.8728 32.7004 24.639 32.6949ZM32.018 32.6949C31.8047 32.6894 31.5924 32.7267 31.3937 32.8045C31.195 32.8823 31.0139 32.999 30.861 33.1479C30.6313 33.373 30.4745 33.6618 30.4109 33.977C30.3472 34.2922 30.3797 34.6193 30.504 34.9159C30.5868 35.1124 30.7082 35.2904 30.8608 35.4393C31.0135 35.5882 31.1945 35.705 31.393 35.7829C31.6105 35.8687 31.8442 35.9057 32.0776 35.8914C32.311 35.8772 32.5384 35.8119 32.7439 35.7003C32.9493 35.5886 33.1278 35.4333 33.2668 35.2453C33.4057 35.0572 33.5018 34.841 33.5482 34.6118C33.5945 34.3826 33.5901 34.1461 33.5352 33.9188C33.4803 33.6915 33.3763 33.479 33.2304 33.2963C33.0846 33.1135 32.9004 32.965 32.6909 32.8611C32.4815 32.7572 32.2518 32.7004 32.018 32.6949ZM20.4 32.7129C20.379 32.7164 20.3594 32.7257 20.3435 32.7399C20.3275 32.754 20.3159 32.7724 20.31 32.7929C20.305 32.8134 20.3061 32.8349 20.313 32.8549C20.3187 32.8754 20.3301 32.8938 20.346 32.9079C20.3618 32.9227 20.3818 32.9323 20.4032 32.9355C20.4246 32.9387 20.4465 32.9354 20.466 32.9259C20.4855 32.9169 20.5021 32.9027 20.514 32.8849C20.5247 32.868 20.5307 32.8485 20.5314 32.8285C20.532 32.8085 20.5273 32.7887 20.5177 32.7712C20.5081 32.7536 20.494 32.7389 20.4768 32.7287C20.4596 32.7184 20.44 32.713 20.42 32.7129H20.4ZM28.4 32.7129C28.379 32.7164 28.3594 32.7257 28.3435 32.7399C28.3275 32.754 28.3159 32.7724 28.31 32.7929C28.305 32.8134 28.3061 32.8349 28.313 32.8549C28.3187 32.8754 28.3301 32.8938 28.346 32.9079C28.3618 32.9227 28.3818 32.9323 28.4032 32.9355C28.4246 32.9387 28.4465 32.9354 28.466 32.9259C28.4855 32.9169 28.5021 32.9027 28.514 32.8849C28.5247 32.868 28.5307 32.8485 28.5314 32.8285C28.532 32.8085 28.5273 32.7887 28.5177 32.7712C28.5081 32.7536 28.494 32.7389 28.4768 32.7287C28.4596 32.7184 28.44 32.713 28.42 32.7129H28.4ZM17.137 33.1699C17.4404 33.1699 17.7314 33.2904 17.9459 33.5049C18.1605 33.7195 18.281 34.0105 18.281 34.3139C18.2811 34.4642 18.2516 34.6131 18.1942 34.752C18.1368 34.8909 18.0525 35.0171 17.9463 35.1235C17.84 35.2298 17.7139 35.3141 17.575 35.3717C17.4362 35.4293 17.2873 35.4589 17.137 35.4589C16.9866 35.459 16.8377 35.4295 16.6987 35.372C16.5597 35.3145 16.4334 35.2302 16.3271 35.1238C16.2207 35.0175 16.1364 34.8912 16.0789 34.7522C16.0214 34.6132 15.9919 34.4643 15.992 34.3139C15.992 34.1636 16.0216 34.0147 16.0792 33.8759C16.1367 33.737 16.2211 33.6108 16.3274 33.5046C16.4338 33.3983 16.56 33.3141 16.6989 33.2567C16.8378 33.1992 16.9867 33.1697 17.137 33.1699ZM24.633 33.1699C24.9364 33.1699 25.2274 33.2904 25.4419 33.5049C25.6565 33.7195 25.777 34.0105 25.777 34.3139C25.7771 34.4642 25.7476 34.6131 25.6902 34.752C25.6328 34.8909 25.5485 35.0171 25.4423 35.1235C25.336 35.2298 25.2099 35.3141 25.071 35.3717C24.9322 35.4293 24.7833 35.4589 24.633 35.4589C24.4828 35.4587 24.334 35.429 24.1953 35.3714C24.0565 35.3138 23.9305 35.2294 23.8244 35.1231C23.7182 35.0168 23.6341 34.8906 23.5767 34.7517C23.5193 34.6129 23.4899 34.4641 23.49 34.3139C23.49 34.0106 23.6104 33.7198 23.8247 33.5053C24.039 33.2908 24.3298 33.1701 24.633 33.1699ZM31.994 33.1699C32.1443 33.1697 32.2932 33.1992 32.4321 33.2567C32.571 33.3141 32.6972 33.3983 32.8036 33.5046C32.9099 33.6108 32.9943 33.737 33.0518 33.8759C33.1094 34.0147 33.139 34.1636 33.139 34.3139C33.1391 34.4643 33.1096 34.6132 33.0521 34.7522C32.9946 34.8912 32.9103 35.0175 32.8039 35.1238C32.6976 35.2302 32.5713 35.3145 32.4323 35.372C32.2934 35.4295 32.1444 35.459 31.994 35.4589C31.8437 35.4589 31.6948 35.4293 31.556 35.3717C31.4171 35.3141 31.291 35.2298 31.1847 35.1235C31.0785 35.0171 30.9942 34.8909 30.9368 34.752C30.8794 34.6131 30.8499 34.4642 30.85 34.3139C30.85 34.0105 30.9705 33.7195 31.1851 33.5049C31.3996 33.2904 31.6906 33.1699 31.994 33.1699ZM20.422 33.2729C20.4073 33.2726 20.3927 33.2754 20.379 33.2809C20.3506 33.2928 20.328 33.3155 20.316 33.3439C20.3108 33.3583 20.3084 33.3736 20.309 33.3889C20.309 33.4509 20.359 33.4979 20.422 33.4979C20.4364 33.4983 20.4508 33.4958 20.4642 33.4904C20.4776 33.4851 20.4898 33.4771 20.5 33.4669C20.51 33.4569 20.52 33.4429 20.525 33.4299C20.5304 33.4169 20.5332 33.4029 20.533 33.3889C20.5334 33.374 20.5308 33.3591 20.5255 33.3452C20.5201 33.3312 20.512 33.3185 20.5017 33.3077C20.4914 33.2969 20.479 33.2883 20.4653 33.2823C20.4517 33.2763 20.4369 33.2731 20.422 33.2729ZM28.422 33.2729C28.4073 33.2726 28.3927 33.2754 28.379 33.2809C28.3506 33.2928 28.328 33.3155 28.316 33.3439C28.3108 33.3583 28.3084 33.3736 28.309 33.3889C28.309 33.4509 28.359 33.4979 28.422 33.4979C28.4364 33.4983 28.4508 33.4958 28.4642 33.4904C28.4776 33.4851 28.4898 33.4771 28.5 33.4669C28.51 33.4569 28.52 33.4429 28.525 33.4299C28.5304 33.4169 28.5332 33.4029 28.533 33.3889C28.5334 33.374 28.5308 33.3591 28.5255 33.3452C28.5201 33.3312 28.512 33.3185 28.5017 33.3077C28.4914 33.2969 28.479 33.2883 28.4653 33.2823C28.4517 33.2763 28.4369 33.2731 28.422 33.2729ZM20.412 33.8359C20.3832 33.8375 20.356 33.85 20.336 33.8709C20.3164 33.8921 20.3057 33.92 20.306 33.9489C20.3058 33.9657 20.3094 33.9823 20.3165 33.9975C20.3235 34.0128 20.3339 34.0263 20.3468 34.037C20.3598 34.0477 20.3749 34.0554 20.3912 34.0596C20.4075 34.0637 20.4245 34.0642 20.441 34.0609C20.4574 34.0576 20.473 34.0507 20.4865 34.0407C20.4999 34.0307 20.511 34.0178 20.5189 34.0029C20.5267 33.9881 20.5312 33.9716 20.5319 33.9549C20.5326 33.9381 20.5296 33.9213 20.523 33.9059C20.5171 33.8921 20.5086 33.8795 20.498 33.8689C20.488 33.8589 20.4761 33.8511 20.463 33.8459C20.4495 33.8397 20.4349 33.8363 20.42 33.8359H20.412ZM28.412 33.8359C28.3832 33.8375 28.356 33.85 28.336 33.8709C28.3164 33.8921 28.3057 33.92 28.306 33.9489C28.3058 33.9657 28.3094 33.9823 28.3165 33.9975C28.3235 34.0128 28.3339 34.0263 28.3468 34.037C28.3598 34.0477 28.3749 34.0554 28.3912 34.0596C28.4075 34.0637 28.4245 34.0642 28.441 34.0609C28.4574 34.0576 28.473 34.0507 28.4865 34.0407C28.4999 34.0307 28.511 34.0178 28.5189 34.0029C28.5267 33.9881 28.5312 33.9716 28.5319 33.9549C28.5326 33.9381 28.5296 33.9213 28.523 33.9059C28.5171 33.8921 28.5086 33.8795 28.498 33.8689C28.488 33.8589 28.4761 33.8511 28.463 33.8459C28.4495 33.8397 28.4349 33.8363 28.42 33.8359H28.412ZM20.412 34.3979C20.3823 34.3992 20.3543 34.4122 20.334 34.4339C20.3241 34.4443 20.3164 34.4565 20.3112 34.4699C20.3061 34.4833 20.3036 34.4975 20.304 34.5119C20.305 34.5409 20.317 34.5689 20.338 34.5899C20.358 34.6099 20.387 34.6229 20.416 34.6229C20.4454 34.6226 20.4734 34.6108 20.4942 34.5901C20.515 34.5693 20.5267 34.5412 20.527 34.5119C20.527 34.4819 20.518 34.4549 20.498 34.4339C20.487 34.4222 20.4737 34.4129 20.4589 34.4067C20.444 34.4005 20.4281 34.3975 20.412 34.3979ZM28.412 34.3979C28.3823 34.3992 28.3543 34.4122 28.334 34.4339C28.3241 34.4443 28.3164 34.4565 28.3112 34.4699C28.3061 34.4833 28.3036 34.4975 28.304 34.5119C28.305 34.5409 28.317 34.5689 28.338 34.5899C28.358 34.6099 28.387 34.6229 28.416 34.6229C28.4454 34.6226 28.4734 34.6108 28.4942 34.5901C28.515 34.5693 28.5267 34.5412 28.527 34.5119C28.527 34.4819 28.518 34.4549 28.498 34.4339C28.487 34.4222 28.4737 34.4129 28.4589 34.4067C28.444 34.4005 28.4281 34.3975 28.412 34.3979ZM20.412 34.9609C20.3973 34.9613 20.3829 34.9646 20.3695 34.9706C20.3561 34.9766 20.344 34.9852 20.334 34.9959C20.3136 35.0182 20.3028 35.0477 20.304 35.0779C20.306 35.1079 20.318 35.1339 20.34 35.1539C20.3616 35.1746 20.3905 35.186 20.4204 35.1857C20.4504 35.1853 20.4789 35.1732 20.5 35.1519C20.5205 35.1303 20.5316 35.1016 20.531 35.0719C20.531 35.0419 20.521 35.0149 20.5 34.9939C20.4885 34.9824 20.4747 34.9736 20.4596 34.9679C20.4444 34.9622 20.4282 34.9598 20.412 34.9609ZM28.412 34.9609C28.3973 34.9613 28.3829 34.9646 28.3695 34.9706C28.3561 34.9766 28.344 34.9852 28.334 34.9959C28.3136 35.0182 28.3028 35.0477 28.304 35.0779C28.306 35.1079 28.318 35.1339 28.34 35.1539C28.3616 35.1746 28.3905 35.186 28.4204 35.1857C28.4504 35.1853 28.4789 35.1732 28.5 35.1519C28.5205 35.1303 28.5316 35.1016 28.531 35.0719C28.531 35.0419 28.521 35.0149 28.5 34.9939C28.4885 34.9824 28.4747 34.9736 28.4596 34.9679C28.4444 34.9622 28.4282 34.9598 28.412 34.9609ZM20.412 35.5229C20.3823 35.5242 20.3543 35.5372 20.334 35.5589C20.3241 35.5693 20.3164 35.5815 20.3112 35.5949C20.3061 35.6083 20.3036 35.6225 20.304 35.6369C20.305 35.6659 20.317 35.6939 20.338 35.7149C20.358 35.7349 20.387 35.7479 20.416 35.7479C20.4454 35.7476 20.4734 35.7358 20.4942 35.7151C20.515 35.6943 20.5267 35.6662 20.527 35.6369C20.527 35.6069 20.518 35.5799 20.498 35.5589C20.4777 35.5372 20.4497 35.5242 20.42 35.5229H20.412ZM28.412 35.5229C28.3823 35.5242 28.3543 35.5372 28.334 35.5589C28.3241 35.5693 28.3164 35.5815 28.3112 35.5949C28.3061 35.6083 28.3036 35.6225 28.304 35.6369C28.305 35.6659 28.317 35.6939 28.338 35.7149C28.358 35.7349 28.387 35.7479 28.416 35.7479C28.4454 35.7476 28.4734 35.7358 28.4942 35.7151C28.515 35.6943 28.5267 35.6662 28.527 35.6369C28.527 35.6069 28.518 35.5799 28.498 35.5589C28.4777 35.5372 28.4497 35.5242 28.42 35.5229H28.412ZM20.412 36.0859C20.3825 36.087 20.3545 36.0995 20.334 36.1209C20.3241 36.1313 20.3164 36.1435 20.3112 36.1569C20.3061 36.1703 20.3036 36.1845 20.304 36.1989C20.305 36.2289 20.317 36.2569 20.338 36.2769C20.358 36.2969 20.387 36.3109 20.416 36.3109C20.446 36.3109 20.473 36.2979 20.494 36.2769C20.5148 36.2562 20.5266 36.2282 20.527 36.1989C20.527 36.1689 20.518 36.1419 20.498 36.1209C20.4775 36.0995 20.4496 36.087 20.42 36.0859H20.412ZM28.412 36.0859C28.3825 36.087 28.3545 36.0995 28.334 36.1209C28.3241 36.1313 28.3164 36.1435 28.3112 36.1569C28.3061 36.1703 28.3036 36.1845 28.304 36.1989C28.305 36.2289 28.317 36.2569 28.338 36.2769C28.358 36.2969 28.387 36.3109 28.416 36.3109C28.446 36.3109 28.473 36.2979 28.494 36.2769C28.5148 36.2562 28.5266 36.2282 28.527 36.1989C28.527 36.1689 28.518 36.1419 28.498 36.1209C28.4775 36.0995 28.4496 36.087 28.42 36.0859H28.412ZM20.412 36.6479C20.3973 36.6484 20.3828 36.6518 20.3694 36.658C20.356 36.6642 20.344 36.673 20.334 36.6839C20.3134 36.7062 20.3023 36.7356 20.303 36.7659C20.3046 36.7955 20.3177 36.8233 20.3396 36.8433C20.3615 36.8634 20.3904 36.874 20.42 36.8729C20.4499 36.8726 20.4785 36.8606 20.4996 36.8395C20.5208 36.8184 20.5327 36.7898 20.533 36.7599C20.5322 36.7303 20.52 36.7023 20.4989 36.6815C20.4779 36.6608 20.4496 36.6491 20.42 36.6489H20.412V36.6479ZM28.412 36.6479C28.3973 36.6484 28.3828 36.6518 28.3694 36.658C28.356 36.6642 28.344 36.673 28.334 36.6839C28.3134 36.7062 28.3023 36.7356 28.303 36.7659C28.3046 36.7955 28.3177 36.8233 28.3396 36.8433C28.3615 36.8634 28.3904 36.874 28.42 36.8729C28.4499 36.8726 28.4785 36.8606 28.4996 36.8395C28.5208 36.8184 28.5327 36.7898 28.533 36.7599C28.5322 36.7303 28.52 36.7023 28.4989 36.6815C28.4779 36.6608 28.4496 36.6491 28.42 36.6489H28.412V36.6479ZM20.4 37.2109C20.3734 37.2154 20.3494 37.2292 20.332 37.2499C20.3152 37.27 20.3063 37.2956 20.307 37.3219C20.307 37.3839 20.357 37.4349 20.42 37.4339C20.48 37.4339 20.53 37.3839 20.531 37.3219C20.531 37.2619 20.481 37.2119 20.42 37.2109H20.4ZM28.4 37.2109C28.3734 37.2154 28.3494 37.2292 28.332 37.2499C28.3152 37.27 28.3063 37.2956 28.307 37.3219C28.307 37.3839 28.357 37.4349 28.42 37.4339C28.48 37.4339 28.53 37.3839 28.531 37.3219C28.531 37.2619 28.481 37.2119 28.42 37.2109H28.4ZM20.412 37.7709C20.3823 37.7722 20.3543 37.7852 20.334 37.8069C20.3241 37.8173 20.3164 37.8295 20.3112 37.8429C20.3061 37.8563 20.3036 37.8705 20.304 37.8849C20.305 37.9149 20.317 37.9419 20.338 37.9629C20.3589 37.9831 20.3869 37.9943 20.416 37.9939C20.4305 37.994 20.4449 37.9913 20.4584 37.9858C20.4719 37.9803 20.4841 37.9722 20.4944 37.962C20.5048 37.9518 20.5129 37.9396 20.5185 37.9262C20.5241 37.9128 20.527 37.8984 20.527 37.8839C20.527 37.8549 20.518 37.8279 20.498 37.8069C20.487 37.7952 20.4737 37.7859 20.4589 37.7797C20.444 37.7735 20.4281 37.7705 20.412 37.7709ZM28.412 37.7709C28.3823 37.7722 28.3543 37.7852 28.334 37.8069C28.3241 37.8173 28.3164 37.8295 28.3112 37.8429C28.3061 37.8563 28.3036 37.8705 28.304 37.8849C28.305 37.9149 28.317 37.9419 28.338 37.9629C28.3589 37.9831 28.3869 37.9943 28.416 37.9939C28.4305 37.994 28.4449 37.9913 28.4584 37.9858C28.4719 37.9803 28.4841 37.9722 28.4944 37.962C28.5048 37.9518 28.5129 37.9396 28.5185 37.9262C28.5241 37.9128 28.527 37.8984 28.527 37.8839C28.527 37.8549 28.518 37.8279 28.498 37.8069C28.487 37.7952 28.4737 37.7859 28.4589 37.7797C28.444 37.7735 28.4281 37.7705 28.412 37.7709ZM24.639 37.9649C24.318 37.9582 24.0024 38.048 23.733 38.2228C23.4637 38.3976 23.253 38.6492 23.1283 38.9451C23.0037 39.241 22.9707 39.5675 23.0338 39.8824C23.0968 40.1972 23.253 40.4858 23.482 40.7109C23.6347 40.86 23.8158 40.9769 24.0146 41.0547C24.2133 41.1326 24.4256 41.1697 24.639 41.1639C25.0634 41.1639 25.4703 40.9953 25.7704 40.6952C26.0704 40.3952 26.239 39.9882 26.239 39.5639C26.239 39.1395 26.0704 38.7326 25.7704 38.4325C25.4703 38.1324 25.0634 37.9639 24.639 37.9639V37.9649ZM20.412 38.3339C20.3832 38.3355 20.356 38.348 20.336 38.3689C20.3164 38.3901 20.3057 38.418 20.306 38.4469C20.306 38.5089 20.356 38.5599 20.42 38.5589C20.45 38.557 20.478 38.5433 20.498 38.5209C20.5082 38.5102 20.5162 38.4977 20.5215 38.484C20.5268 38.4702 20.5294 38.4556 20.529 38.4409C20.5275 38.4113 20.5143 38.3834 20.4924 38.3634C20.4705 38.3434 20.4417 38.3328 20.412 38.3339ZM28.412 38.3339C28.3832 38.3355 28.356 38.348 28.336 38.3689C28.3164 38.3901 28.3057 38.418 28.306 38.4469C28.3058 38.4655 28.3104 38.4839 28.3192 38.5004C28.328 38.5168 28.3409 38.5308 28.3565 38.5409C28.3722 38.5511 28.3901 38.5572 28.4088 38.5585C28.4274 38.5599 28.446 38.5566 28.463 38.5489C28.4764 38.5419 28.4882 38.5324 28.498 38.5209C28.5082 38.5102 28.5162 38.4977 28.5215 38.484C28.5268 38.4702 28.5294 38.4556 28.529 38.4409C28.5281 38.426 28.5244 38.4114 28.518 38.3979C28.5056 38.3706 28.483 38.3494 28.455 38.3389C28.4412 38.3343 28.4265 38.3326 28.412 38.3339ZM24.639 38.4259C24.8076 38.4251 24.9743 38.4618 25.127 38.5335C25.2796 38.6051 25.4144 38.7099 25.5215 38.8401C25.6287 38.9703 25.7055 39.1227 25.7464 39.2863C25.7873 39.4499 25.7913 39.6206 25.758 39.7859C25.7163 39.9978 25.6153 40.1935 25.4667 40.3503C25.3181 40.507 25.128 40.6183 24.9186 40.6712C24.7091 40.7241 24.489 40.7164 24.2838 40.649C24.0786 40.5816 23.8967 40.4573 23.7594 40.2906C23.6221 40.1239 23.535 39.9215 23.5082 39.7072C23.4815 39.4929 23.5161 39.2754 23.6082 39.08C23.7002 38.8846 23.8459 38.7194 24.0282 38.6036C24.2105 38.4878 24.422 38.4261 24.638 38.4259H24.639ZM20.412 38.8959C20.3823 38.8972 20.3543 38.9102 20.334 38.9319C20.3241 38.9423 20.3164 38.9545 20.3112 38.9679C20.3061 38.9813 20.3036 38.9955 20.304 39.0099C20.305 39.0399 20.317 39.0669 20.338 39.0879C20.3589 39.1081 20.3869 39.1193 20.416 39.1189C20.4305 39.119 20.4449 39.1163 20.4584 39.1108C20.4719 39.1053 20.4841 39.0972 20.4944 39.087C20.5048 39.0768 20.5129 39.0646 20.5185 39.0512C20.5241 39.0378 20.527 39.0234 20.527 39.0089C20.527 38.9799 20.518 38.9529 20.498 38.9319C20.487 38.9202 20.4737 38.9109 20.4589 38.9047C20.444 38.8985 20.4281 38.8955 20.412 38.8959ZM28.412 38.8959C28.3823 38.8972 28.3543 38.9102 28.334 38.9319C28.3241 38.9423 28.3164 38.9545 28.3112 38.9679C28.3061 38.9813 28.3036 38.9955 28.304 39.0099C28.305 39.0399 28.317 39.0669 28.338 39.0879C28.3589 39.1081 28.3869 39.1193 28.416 39.1189C28.4305 39.119 28.4449 39.1163 28.4584 39.1108C28.4719 39.1053 28.4841 39.0972 28.4944 39.087C28.5048 39.0768 28.5129 39.0646 28.5185 39.0512C28.5241 39.0378 28.527 39.0234 28.527 39.0089C28.527 38.9799 28.518 38.9529 28.498 38.9319C28.487 38.9202 28.4737 38.9109 28.4589 38.9047C28.444 38.8985 28.4281 38.8955 28.412 38.8959ZM20.412 39.4589C20.397 39.46 20.3824 39.4641 20.369 39.4709C20.3558 39.4768 20.3439 39.4853 20.334 39.4959C20.3245 39.5077 20.3173 39.5213 20.313 39.5359C20.3035 39.564 20.3055 39.5947 20.3186 39.6214C20.3317 39.648 20.3549 39.6683 20.383 39.6779C20.3968 39.6827 20.4114 39.6847 20.426 39.6839C20.4562 39.6813 20.4842 39.6669 20.504 39.6439C20.524 39.6219 20.534 39.5939 20.531 39.5639C20.5295 39.534 20.5162 39.506 20.494 39.4859C20.4713 39.4664 20.4418 39.4567 20.412 39.4589ZM28.412 39.4589C28.397 39.46 28.3824 39.4641 28.369 39.4709C28.3558 39.4768 28.3439 39.4853 28.334 39.4959C28.3245 39.5077 28.3173 39.5213 28.313 39.5359C28.3035 39.564 28.3055 39.5947 28.3186 39.6214C28.3317 39.648 28.3549 39.6683 28.383 39.6779C28.3968 39.6827 28.4114 39.6847 28.426 39.6839C28.4562 39.6813 28.4842 39.6669 28.504 39.6439C28.524 39.6219 28.534 39.5939 28.531 39.5639C28.5295 39.534 28.5162 39.506 28.494 39.4859C28.4713 39.4664 28.4418 39.4567 28.412 39.4589ZM20.412 40.0209C20.397 40.022 20.3824 40.0261 20.369 40.0329C20.3557 40.0391 20.3438 40.0479 20.334 40.0589C20.3246 40.0704 20.3174 40.0836 20.313 40.0979C20.3082 40.1115 20.3063 40.126 20.3073 40.1405C20.3083 40.1549 20.3123 40.169 20.319 40.1819C20.3257 40.1951 20.3349 40.207 20.346 40.2169C20.356 40.2269 20.369 40.2349 20.383 40.2399C20.3968 40.2447 20.4114 40.2467 20.426 40.2459C20.4561 40.2435 20.4841 40.2295 20.504 40.2069C20.524 40.1849 20.534 40.1569 20.531 40.1269C20.5295 40.097 20.5162 40.069 20.494 40.0489C20.4829 40.039 20.4699 40.0315 20.4558 40.0267C20.4417 40.0219 20.4268 40.0199 20.412 40.0209ZM28.412 40.0209C28.397 40.022 28.3824 40.0261 28.369 40.0329C28.3557 40.0391 28.3438 40.0479 28.334 40.0589C28.3246 40.0704 28.3174 40.0836 28.313 40.0979C28.3082 40.1115 28.3063 40.126 28.3073 40.1405C28.3083 40.1549 28.3123 40.169 28.319 40.1819C28.3257 40.1951 28.3349 40.207 28.346 40.2169C28.356 40.2269 28.369 40.2349 28.383 40.2399C28.3968 40.2447 28.4114 40.2467 28.426 40.2459C28.4561 40.2435 28.4841 40.2295 28.504 40.2069C28.524 40.1849 28.534 40.1569 28.531 40.1269C28.5295 40.097 28.5162 40.069 28.494 40.0489C28.4829 40.039 28.4699 40.0315 28.4558 40.0267C28.4417 40.0219 28.4268 40.0199 28.412 40.0209ZM20.412 40.5839C20.397 40.585 20.3824 40.5891 20.369 40.5959C20.3558 40.6018 20.3439 40.6103 20.334 40.6209C20.3245 40.6327 20.3173 40.6463 20.313 40.6609C20.3035 40.689 20.3055 40.7197 20.3186 40.7464C20.3317 40.773 20.3549 40.7933 20.383 40.8029C20.3968 40.8077 20.4114 40.8097 20.426 40.8089C20.4562 40.8063 20.4842 40.7919 20.504 40.7689C20.524 40.7469 20.534 40.7189 20.531 40.6889C20.5295 40.659 20.5162 40.631 20.494 40.6109C20.4713 40.5914 20.4418 40.5817 20.412 40.5839ZM28.412 40.5839C28.397 40.585 28.3824 40.5891 28.369 40.5959C28.3558 40.6018 28.3439 40.6103 28.334 40.6209C28.3245 40.6327 28.3173 40.6463 28.313 40.6609C28.3035 40.689 28.3055 40.7197 28.3186 40.7464C28.3317 40.773 28.3549 40.7933 28.383 40.8029C28.3968 40.8077 28.4114 40.8097 28.426 40.8089C28.4562 40.8063 28.4842 40.7919 28.504 40.7689C28.524 40.7469 28.534 40.7189 28.531 40.6889C28.5295 40.659 28.5162 40.631 28.494 40.6109C28.4713 40.5914 28.4418 40.5817 28.412 40.5839ZM20.4 41.1459C20.3735 41.1499 20.3493 41.1634 20.332 41.1839C20.3151 41.2048 20.3063 41.231 20.307 41.2579C20.3064 41.2798 20.3123 41.3014 20.324 41.3199C20.3362 41.3386 20.3535 41.3534 20.3739 41.3625C20.3943 41.3715 20.417 41.3745 20.439 41.3709C20.4613 41.3671 20.4818 41.3566 20.498 41.3409C20.5144 41.3251 20.5258 41.305 20.531 41.2829C20.5355 41.2608 20.5334 41.2378 20.525 41.2169C20.516 41.196 20.501 41.1783 20.482 41.1659C20.4638 41.1532 20.4422 41.1463 20.42 41.1459H20.4ZM28.4 41.1459C28.3735 41.1499 28.3493 41.1634 28.332 41.1839C28.3151 41.2048 28.3063 41.231 28.307 41.2579C28.3064 41.2798 28.3123 41.3014 28.324 41.3199C28.3362 41.3386 28.3535 41.3534 28.3739 41.3625C28.3943 41.3715 28.417 41.3745 28.439 41.3709C28.4613 41.3671 28.4818 41.3566 28.498 41.3409C28.5144 41.3251 28.5258 41.305 28.531 41.2829C28.5355 41.2608 28.5334 41.2378 28.525 41.2169C28.516 41.196 28.501 41.1783 28.482 41.1659C28.4638 41.1532 28.4422 41.1463 28.42 41.1459H28.4ZM20.4 41.7089C20.3734 41.7134 20.3494 41.7272 20.332 41.7479C20.3152 41.768 20.3063 41.7936 20.307 41.8199C20.307 41.8819 20.357 41.9329 20.42 41.9319C20.48 41.9319 20.53 41.8819 20.531 41.8199C20.531 41.7599 20.481 41.7099 20.42 41.7089H20.4ZM28.4 41.7089C28.3734 41.7134 28.3494 41.7272 28.332 41.7479C28.3152 41.768 28.3063 41.7936 28.307 41.8199C28.307 41.8819 28.357 41.9329 28.42 41.9319C28.48 41.9319 28.53 41.8819 28.531 41.8199C28.531 41.7599 28.481 41.7099 28.42 41.7089H28.4ZM20.422 42.2689C20.4073 42.2685 20.3926 42.2711 20.3789 42.2764C20.3652 42.2817 20.3527 42.2897 20.342 42.2999C20.3315 42.3108 20.3233 42.3237 20.318 42.3379C20.309 42.3582 20.3063 42.3807 20.31 42.4025C20.3137 42.4244 20.3238 42.4447 20.339 42.4609C20.35 42.4709 20.363 42.4789 20.377 42.4839C20.391 42.4899 20.405 42.4939 20.42 42.4939C20.4496 42.4936 20.4779 42.4819 20.4989 42.4612C20.52 42.4405 20.5322 42.4124 20.533 42.3829C20.533 42.3529 20.523 42.3239 20.502 42.3029C20.4807 42.2818 20.452 42.2699 20.422 42.2699V42.2689ZM28.422 42.2689C28.4073 42.2685 28.3926 42.2711 28.3789 42.2764C28.3652 42.2817 28.3526 42.2897 28.342 42.2999C28.3315 42.3108 28.3233 42.3237 28.318 42.3379C28.309 42.3582 28.3063 42.3807 28.31 42.4025C28.3137 42.4244 28.3238 42.4447 28.339 42.4609C28.35 42.4709 28.363 42.4789 28.377 42.4839C28.391 42.4899 28.405 42.4939 28.42 42.4939C28.4496 42.4936 28.4779 42.4819 28.4989 42.4612C28.52 42.4405 28.5322 42.4124 28.533 42.3829C28.533 42.3529 28.523 42.3239 28.502 42.3029C28.4807 42.2818 28.452 42.2699 28.422 42.2699V42.2689ZM20.412 42.8319C20.3825 42.833 20.3545 42.8455 20.334 42.8669C20.3241 42.8773 20.3164 42.8895 20.3112 42.9029C20.3061 42.9163 20.3036 42.9305 20.304 42.9449C20.305 42.9749 20.317 43.0029 20.338 43.0229C20.358 43.0439 20.387 43.0569 20.416 43.0569C20.446 43.0569 20.473 43.0439 20.494 43.0229C20.5148 43.0022 20.5266 42.9742 20.527 42.9449C20.527 42.9149 20.518 42.8879 20.498 42.8669C20.4869 42.8553 20.4735 42.8463 20.4587 42.8402C20.4439 42.8342 20.428 42.8313 20.412 42.8319ZM28.412 42.8319C28.3825 42.833 28.3545 42.8455 28.334 42.8669C28.3241 42.8773 28.3164 42.8895 28.3112 42.9029C28.3061 42.9163 28.3036 42.9305 28.304 42.9449C28.305 42.9749 28.317 43.0029 28.338 43.0229C28.358 43.0439 28.387 43.0569 28.416 43.0569C28.446 43.0569 28.473 43.0439 28.494 43.0229C28.5148 43.0022 28.5266 42.9742 28.527 42.9449C28.527 42.9149 28.518 42.8879 28.498 42.8669C28.4869 42.8553 28.4735 42.8463 28.4587 42.8402C28.4439 42.8342 28.428 42.8313 28.412 42.8319Z" fill="#1A1A1A"/>
</svg>
