<svg width="48" height="48" viewBox="0 0 48 48" fill="none" xmlns="http://www.w3.org/2000/svg">
<path d="M14.236 4.09377C13.366 4.09377 12.668 4.79277 12.668 5.66177V42.5228C12.668 43.3928 13.367 44.0928 14.236 44.0928H33.941C34.811 44.0928 35.51 43.3928 35.51 42.5228V5.66277C35.51 4.79277 34.81 4.09277 33.941 4.09277H14.236V4.09377ZM16.306 8.42577C16.5207 8.41811 16.7348 8.45378 16.9354 8.53066C17.1361 8.60753 17.3192 8.72403 17.4739 8.87322C17.6285 9.0224 17.7515 9.2012 17.8356 9.39896C17.9196 9.59672 17.963 9.80938 17.963 10.0243C17.9631 10.2391 17.9199 10.4518 17.836 10.6496C17.752 10.8474 17.6291 11.0263 17.4746 11.1756C17.32 11.3249 17.137 11.4415 16.9364 11.5185C16.7358 11.5955 16.5217 11.6313 16.307 11.6238C15.8927 11.6091 15.5002 11.4342 15.2123 11.136C14.9244 10.8377 14.7635 10.4393 14.7635 10.0248C14.7635 9.61022 14.9244 9.21185 15.2123 8.91358C15.5002 8.61531 15.8927 8.44043 16.307 8.42577H16.306ZM20.143 8.42577C20.4597 8.42558 20.7694 8.51933 21.0328 8.69517C21.2962 8.87102 21.5016 9.12105 21.6229 9.41363C21.7442 9.70622 21.776 10.0282 21.7143 10.3389C21.6525 10.6495 21.5 10.9349 21.276 11.1589C21.0521 11.3828 20.7667 11.5353 20.4561 11.5971C20.1454 11.6588 19.8234 11.627 19.5308 11.5057C19.2382 11.3844 18.9882 11.1791 18.8124 10.9156C18.6365 10.6522 18.5428 10.3425 18.543 10.0258C18.543 9.60143 18.7115 9.19446 19.0116 8.8944C19.3117 8.59434 19.7186 8.42577 20.143 8.42577ZM23.978 8.42577C24.1914 8.42044 24.4037 8.45786 24.6024 8.53585C24.8012 8.61383 24.9823 8.73079 25.1351 8.87985C25.2879 9.0289 25.4094 9.20704 25.4923 9.40375C25.5752 9.60047 25.618 9.81179 25.618 10.0253C25.618 10.2388 25.5752 10.4501 25.4923 10.6468C25.4094 10.8435 25.2879 11.0216 25.1351 11.1707C24.9823 11.3198 24.8012 11.4367 24.6024 11.5147C24.4037 11.5927 24.1914 11.6301 23.978 11.6248C23.5536 11.6248 23.1467 11.4562 22.8466 11.1561C22.5465 10.8561 22.378 10.4491 22.378 10.0248C22.378 9.60043 22.5465 9.19346 22.8466 8.8934C23.1467 8.59334 23.5536 8.42477 23.978 8.42477V8.42577ZM27.814 8.42577C28.1307 8.42558 28.4404 8.51933 28.7038 8.69517C28.9672 8.87102 29.1726 9.12105 29.2939 9.41363C29.4152 9.70622 29.447 10.0282 29.3853 10.3389C29.3235 10.6495 29.171 10.9349 28.947 11.1589C28.7231 11.3828 28.4377 11.5353 28.1271 11.5971C27.8164 11.6588 27.4944 11.627 27.2018 11.5057C26.9092 11.3844 26.6592 11.1791 26.4834 10.9156C26.3075 10.6522 26.2138 10.3425 26.214 10.0258C26.214 9.60143 26.3825 9.19446 26.6826 8.8944C26.9827 8.59434 27.3896 8.42577 27.814 8.42577ZM31.65 8.42577C31.8634 8.42044 32.0757 8.45786 32.2744 8.53585C32.4732 8.61383 32.6543 8.73079 32.8071 8.87985C32.9599 9.0289 33.0814 9.20704 33.1643 9.40375C33.2472 9.60047 33.29 9.81179 33.29 10.0253C33.29 10.2388 33.2472 10.4501 33.1643 10.6468C33.0814 10.8435 32.9599 11.0216 32.8071 11.1707C32.6543 11.3198 32.4732 11.4367 32.2744 11.5147C32.0757 11.5927 31.8634 11.6301 31.65 11.6248C31.2256 11.6248 30.8187 11.4562 30.5186 11.1561C30.2185 10.8561 30.05 10.4491 30.05 10.0248C30.05 9.60043 30.2185 9.19346 30.5186 8.8934C30.8187 8.59334 31.2256 8.42477 31.65 8.42477V8.42577ZM13.688 14.0368C13.75 14.0368 13.801 14.0868 13.801 14.1498C13.801 14.18 13.789 14.209 13.7676 14.2304C13.7462 14.2518 13.7172 14.2638 13.687 14.2638C13.6574 14.2627 13.6295 14.2503 13.6089 14.229C13.5884 14.2077 13.577 14.1793 13.577 14.1498C13.576 14.0878 13.626 14.0378 13.687 14.0368H13.688ZM14.25 14.0368C14.2767 14.0362 14.3028 14.0455 14.3232 14.0628C14.3437 14.0801 14.3571 14.1043 14.361 14.1308V14.1508C14.361 14.2108 14.311 14.2628 14.25 14.2638C14.22 14.2633 14.1914 14.251 14.1703 14.2297C14.1492 14.2085 14.1372 14.1798 14.137 14.1498C14.137 14.0878 14.188 14.0378 14.25 14.0368ZM14.813 14.0368C14.8396 14.0365 14.8654 14.0459 14.8856 14.0631C14.9058 14.0804 14.9191 14.1045 14.923 14.1308V14.1508C14.923 14.2108 14.873 14.2628 14.813 14.2638C14.7827 14.2638 14.7537 14.2518 14.7324 14.2304C14.711 14.209 14.699 14.18 14.699 14.1498C14.699 14.0878 14.749 14.0358 14.813 14.0368ZM15.375 14.0368C15.3897 14.0369 15.4042 14.0399 15.4178 14.0457C15.4313 14.0514 15.4436 14.0598 15.4539 14.0703C15.4642 14.0808 15.4723 14.0932 15.4778 14.1068C15.4833 14.1205 15.4861 14.1351 15.486 14.1498C15.486 14.2118 15.436 14.2628 15.375 14.2638C15.3449 14.2635 15.3162 14.2514 15.295 14.23C15.2738 14.2087 15.262 14.1798 15.262 14.1498C15.262 14.0878 15.312 14.0358 15.375 14.0368ZM15.938 14.0368C15.9675 14.0373 15.9956 14.0495 16.0162 14.0706C16.0368 14.0918 16.0482 14.1202 16.048 14.1498C16.048 14.2118 15.998 14.2628 15.938 14.2638C15.9077 14.2638 15.8787 14.2518 15.8574 14.2304C15.836 14.209 15.824 14.18 15.824 14.1498C15.824 14.0878 15.874 14.0358 15.938 14.0368ZM16.5 14.0368C16.5147 14.0369 16.5292 14.0399 16.5428 14.0457C16.5563 14.0514 16.5686 14.0598 16.5789 14.0703C16.5892 14.0808 16.5973 14.0932 16.6028 14.1068C16.6083 14.1205 16.6111 14.1351 16.611 14.1498C16.611 14.2118 16.561 14.2628 16.5 14.2638C16.4699 14.2635 16.4412 14.2514 16.42 14.23C16.3988 14.2087 16.387 14.1798 16.387 14.1498C16.387 14.0878 16.437 14.0358 16.5 14.0368ZM17.06 14.0368C17.0749 14.0365 17.0898 14.0392 17.1037 14.0448C17.1176 14.0504 17.1302 14.0587 17.1408 14.0692C17.1514 14.0797 17.1599 14.0923 17.1655 14.1061C17.1712 14.12 17.1741 14.1348 17.174 14.1498C17.174 14.1798 17.1621 14.2087 17.1409 14.23C17.1198 14.2514 17.091 14.2635 17.061 14.2638C17.0311 14.2632 17.0026 14.251 16.9816 14.2297C16.9607 14.2084 16.949 14.1797 16.949 14.1498C16.949 14.0878 16.999 14.0378 17.06 14.0368ZM17.623 14.0368C17.6378 14.0366 17.6526 14.0395 17.6664 14.0451C17.6801 14.0507 17.6927 14.0591 17.7032 14.0696C17.7137 14.0801 17.722 14.0926 17.7276 14.1064C17.7333 14.1201 17.7361 14.1349 17.736 14.1498C17.736 14.1798 17.7241 14.2087 17.7029 14.23C17.6818 14.2514 17.653 14.2635 17.623 14.2638C17.5933 14.263 17.565 14.2506 17.5443 14.2293C17.5236 14.208 17.512 14.1795 17.512 14.1498C17.512 14.0878 17.562 14.0378 17.623 14.0368ZM18.186 14.0368C18.2008 14.0366 18.2156 14.0395 18.2294 14.0451C18.2431 14.0507 18.2557 14.0591 18.2662 14.0696C18.2767 14.0801 18.285 14.0926 18.2906 14.1064C18.2963 14.1201 18.2991 14.1349 18.299 14.1498C18.299 14.1798 18.2871 14.2087 18.2659 14.23C18.2448 14.2514 18.216 14.2635 18.186 14.2638C18.1561 14.2632 18.1276 14.251 18.1066 14.2297C18.0857 14.2084 18.074 14.1797 18.074 14.1498C18.074 14.0878 18.124 14.0378 18.185 14.0368H18.186ZM18.748 14.0368C18.7747 14.0362 18.8008 14.0455 18.8212 14.0628C18.8417 14.0801 18.8551 14.1043 18.859 14.1308V14.1508C18.859 14.2108 18.809 14.2628 18.748 14.2638C18.7183 14.263 18.69 14.2506 18.6693 14.2293C18.6486 14.208 18.637 14.1795 18.637 14.1498C18.636 14.0878 18.687 14.0378 18.748 14.0368ZM19.311 14.0368C19.3405 14.0373 19.3686 14.0495 19.3892 14.0706C19.4098 14.0918 19.4212 14.1202 19.421 14.1498C19.421 14.2118 19.371 14.2628 19.311 14.2638C19.2807 14.2638 19.2517 14.2518 19.2304 14.2304C19.209 14.209 19.197 14.18 19.197 14.1498C19.197 14.0878 19.247 14.0358 19.311 14.0368ZM19.873 14.0368C19.8877 14.0369 19.9022 14.0399 19.9158 14.0457C19.9293 14.0514 19.9416 14.0598 19.9519 14.0703C19.9622 14.0808 19.9703 14.0932 19.9758 14.1068C19.9813 14.1205 19.9841 14.1351 19.984 14.1498C19.984 14.2118 19.934 14.2628 19.873 14.2638C19.8429 14.2635 19.8142 14.2514 19.793 14.23C19.7718 14.2087 19.76 14.1798 19.76 14.1498C19.76 14.0878 19.81 14.0358 19.873 14.0368ZM20.436 14.0368C20.4655 14.0373 20.4936 14.0495 20.5142 14.0706C20.5348 14.0918 20.5462 14.1202 20.546 14.1498C20.546 14.2118 20.496 14.2628 20.436 14.2638C20.4057 14.2638 20.3767 14.2518 20.3554 14.2304C20.334 14.209 20.322 14.18 20.322 14.1498C20.322 14.0878 20.372 14.0358 20.436 14.0368ZM20.998 14.0368C21.0127 14.0369 21.0272 14.0399 21.0408 14.0457C21.0543 14.0514 21.0666 14.0598 21.0769 14.0703C21.0872 14.0808 21.0953 14.0932 21.1008 14.1068C21.1063 14.1205 21.1091 14.1351 21.109 14.1498C21.109 14.2118 21.059 14.2628 20.998 14.2638C20.9679 14.2635 20.9392 14.2514 20.918 14.23C20.8968 14.2087 20.885 14.1798 20.885 14.1498C20.885 14.0878 20.935 14.0358 20.998 14.0368ZM21.558 14.0368C21.5729 14.0365 21.5878 14.0392 21.6017 14.0448C21.6156 14.0504 21.6282 14.0587 21.6388 14.0692C21.6494 14.0797 21.6579 14.0923 21.6635 14.1061C21.6692 14.12 21.6721 14.1348 21.672 14.1498C21.672 14.1798 21.6601 14.2087 21.6389 14.23C21.6178 14.2514 21.589 14.2635 21.559 14.2638C21.5291 14.2632 21.5006 14.251 21.4796 14.2297C21.4587 14.2084 21.447 14.1797 21.447 14.1498C21.447 14.0878 21.497 14.0378 21.559 14.0368H21.558ZM22.121 14.0368C22.1358 14.0366 22.1506 14.0395 22.1644 14.0451C22.1781 14.0507 22.1906 14.0591 22.2012 14.0696C22.2117 14.0801 22.22 14.0926 22.2256 14.1064C22.2313 14.1201 22.2341 14.1349 22.234 14.1498C22.234 14.1798 22.2221 14.2087 22.2009 14.23C22.1798 14.2514 22.151 14.2635 22.121 14.2638C22.0913 14.263 22.063 14.2506 22.0423 14.2293C22.0216 14.208 22.01 14.1795 22.01 14.1498C22.01 14.0878 22.06 14.0378 22.121 14.0368ZM22.684 14.0368C22.746 14.0368 22.797 14.0868 22.797 14.1498C22.797 14.1798 22.7851 14.2087 22.7639 14.23C22.7428 14.2514 22.714 14.2635 22.684 14.2638C22.6541 14.2632 22.6256 14.251 22.6046 14.2297C22.5837 14.2084 22.572 14.1797 22.572 14.1498C22.572 14.0878 22.622 14.0378 22.684 14.0368ZM23.246 14.0368C23.301 14.0368 23.35 14.0768 23.357 14.1308V14.1508C23.357 14.2108 23.307 14.2628 23.247 14.2638C23.2171 14.2632 23.1886 14.251 23.1676 14.2297C23.1467 14.2084 23.135 14.1797 23.135 14.1498C23.135 14.0878 23.185 14.0378 23.246 14.0368ZM23.809 14.0368C23.8356 14.0365 23.8614 14.0459 23.8816 14.0631C23.9018 14.0804 23.9151 14.1045 23.919 14.1308C23.921 14.1378 23.921 14.1428 23.919 14.1508C23.919 14.2108 23.869 14.2628 23.809 14.2638C23.7787 14.2638 23.7497 14.2518 23.7284 14.2304C23.707 14.209 23.695 14.18 23.695 14.1498C23.695 14.0878 23.745 14.0358 23.809 14.0368ZM24.371 14.0368C24.3857 14.0369 24.4002 14.0399 24.4138 14.0457C24.4273 14.0514 24.4396 14.0598 24.4499 14.0703C24.4602 14.0808 24.4683 14.0932 24.4738 14.1068C24.4793 14.1205 24.4821 14.1351 24.482 14.1498C24.482 14.2118 24.432 14.2628 24.372 14.2638C24.3417 14.2638 24.3127 14.2518 24.2914 14.2304C24.27 14.209 24.258 14.18 24.258 14.1498C24.258 14.0878 24.308 14.0358 24.371 14.0368ZM24.934 14.0368C24.9635 14.0373 24.9916 14.0495 25.0122 14.0706C25.0328 14.0918 25.0442 14.1202 25.044 14.1498C25.044 14.2118 24.994 14.2628 24.934 14.2638C24.9037 14.2638 24.8747 14.2518 24.8534 14.2304C24.832 14.209 24.82 14.18 24.82 14.1498C24.82 14.0878 24.87 14.0358 24.934 14.0368ZM25.494 14.0368C25.5088 14.0366 25.5236 14.0395 25.5374 14.0451C25.5511 14.0507 25.5636 14.0591 25.5742 14.0696C25.5847 14.0801 25.593 14.0926 25.5986 14.1064C25.6043 14.1201 25.6071 14.1349 25.607 14.1498C25.607 14.1798 25.5951 14.2087 25.5739 14.23C25.5528 14.2514 25.524 14.2635 25.494 14.2638C25.4643 14.263 25.436 14.2506 25.4153 14.2293C25.3946 14.208 25.383 14.1795 25.383 14.1498C25.383 14.0878 25.433 14.0378 25.494 14.0368ZM26.057 14.0368C26.0718 14.0366 26.0866 14.0395 26.1004 14.0451C26.1141 14.0507 26.1266 14.0591 26.1372 14.0696C26.1477 14.0801 26.156 14.0926 26.1616 14.1064C26.1673 14.1201 26.1701 14.1349 26.17 14.1498C26.17 14.1798 26.1581 14.2087 26.1369 14.23C26.1158 14.2514 26.087 14.2635 26.057 14.2638C26.0271 14.2632 25.9986 14.251 25.9776 14.2297C25.9567 14.2084 25.945 14.1797 25.945 14.1498C25.945 14.0878 25.995 14.0378 26.057 14.0368ZM26.619 14.0368C26.6338 14.0366 26.6486 14.0395 26.6624 14.0451C26.6761 14.0507 26.6886 14.0591 26.6992 14.0696C26.7097 14.0801 26.718 14.0926 26.7236 14.1064C26.7293 14.1201 26.7321 14.1349 26.732 14.1498C26.732 14.1798 26.7201 14.2087 26.6989 14.23C26.6778 14.2514 26.649 14.2635 26.619 14.2638C26.5893 14.263 26.561 14.2506 26.5403 14.2293C26.5196 14.208 26.508 14.1795 26.508 14.1498C26.508 14.0878 26.558 14.0378 26.619 14.0368ZM27.182 14.0368C27.244 14.0368 27.296 14.0868 27.295 14.1498C27.295 14.1798 27.2831 14.2087 27.2619 14.23C27.2408 14.2514 27.212 14.2635 27.182 14.2638C27.1521 14.2632 27.1236 14.251 27.1026 14.2297C27.0817 14.2084 27.07 14.1797 27.07 14.1498C27.07 14.0878 27.12 14.0378 27.182 14.0368ZM27.744 14.0368C27.7707 14.0362 27.7968 14.0455 27.8172 14.0628C27.8377 14.0801 27.8511 14.1043 27.855 14.1308V14.1508C27.855 14.2108 27.805 14.2628 27.745 14.2638C27.7151 14.2632 27.6866 14.251 27.6656 14.2297C27.6447 14.2084 27.633 14.1797 27.633 14.1498C27.633 14.0878 27.683 14.0378 27.744 14.0368ZM28.307 14.0368C28.366 14.0368 28.414 14.0838 28.418 14.1428V14.1498C28.418 14.2118 28.368 14.2628 28.307 14.2638C28.2767 14.2638 28.2477 14.2518 28.2264 14.2304C28.205 14.209 28.193 14.18 28.193 14.1498C28.193 14.0878 28.243 14.0358 28.307 14.0368ZM28.869 14.0368C28.929 14.0368 28.977 14.0838 28.98 14.1428V14.1498C28.98 14.2118 28.93 14.2628 28.87 14.2638C28.855 14.2638 28.8402 14.2608 28.8263 14.2551C28.8125 14.2494 28.7999 14.241 28.7894 14.2304C28.7788 14.2198 28.7704 14.2072 28.7646 14.1934C28.7589 14.1796 28.756 14.1647 28.756 14.1498C28.756 14.0878 28.806 14.0358 28.869 14.0368ZM29.432 14.0368C29.4467 14.0369 29.4612 14.0399 29.4748 14.0457C29.4883 14.0514 29.5006 14.0598 29.5109 14.0703C29.5212 14.0808 29.5293 14.0932 29.5348 14.1068C29.5403 14.1205 29.5431 14.1351 29.543 14.1498C29.543 14.2118 29.493 14.2628 29.432 14.2638C29.4017 14.2638 29.3727 14.2518 29.3514 14.2304C29.33 14.209 29.318 14.18 29.318 14.1498C29.318 14.0878 29.368 14.0358 29.432 14.0368ZM29.992 14.0368C30.0068 14.0366 30.0216 14.0395 30.0354 14.0451C30.0491 14.0507 30.0617 14.0591 30.0722 14.0696C30.0827 14.0801 30.091 14.0926 30.0966 14.1064C30.1023 14.1201 30.1051 14.1349 30.105 14.1498C30.105 14.1798 30.0931 14.2087 30.0719 14.23C30.0508 14.2514 30.022 14.2635 29.992 14.2638C29.9623 14.263 29.934 14.2506 29.9133 14.2293C29.8926 14.208 29.881 14.1795 29.881 14.1498C29.881 14.0878 29.931 14.0378 29.992 14.0368ZM30.555 14.0368C30.615 14.0368 30.665 14.0828 30.668 14.1428V14.1498C30.668 14.1798 30.6561 14.2087 30.6349 14.23C30.6138 14.2514 30.585 14.2635 30.555 14.2638C30.5251 14.2632 30.4966 14.251 30.4756 14.2297C30.4547 14.2084 30.443 14.1797 30.443 14.1498C30.443 14.0878 30.493 14.0378 30.555 14.0368ZM31.117 14.0368C31.177 14.0368 31.227 14.0828 31.23 14.1428V14.1498C31.23 14.1798 31.2181 14.2087 31.1969 14.23C31.1758 14.2514 31.147 14.2635 31.117 14.2638C31.0873 14.263 31.059 14.2506 31.0383 14.2293C31.0176 14.208 31.006 14.1795 31.006 14.1498C31.006 14.0878 31.056 14.0378 31.117 14.0368ZM31.68 14.0368C31.7067 14.0362 31.7328 14.0455 31.7532 14.0628C31.7737 14.0801 31.7871 14.1043 31.791 14.1308V14.1508C31.791 14.2108 31.741 14.2628 31.68 14.2638C31.6501 14.2632 31.6216 14.251 31.6006 14.2297C31.5797 14.2084 31.568 14.1797 31.568 14.1498C31.568 14.0878 31.618 14.0378 31.68 14.0368ZM32.242 14.0368C32.2687 14.0362 32.2948 14.0455 32.3152 14.0628C32.3357 14.0801 32.3491 14.1043 32.353 14.1308V14.1508C32.353 14.2108 32.303 14.2628 32.243 14.2638C32.2127 14.2638 32.1837 14.2518 32.1624 14.2304C32.141 14.209 32.129 14.18 32.129 14.1498C32.129 14.0878 32.179 14.0358 32.242 14.0368ZM32.805 14.0368C32.8197 14.0369 32.8342 14.0399 32.8478 14.0457C32.8613 14.0514 32.8736 14.0598 32.8839 14.0703C32.8942 14.0808 32.9023 14.0932 32.9078 14.1068C32.9133 14.1205 32.9161 14.1351 32.916 14.1498C32.916 14.2118 32.866 14.2628 32.805 14.2638C32.7747 14.2638 32.7457 14.2518 32.7244 14.2304C32.703 14.209 32.691 14.18 32.691 14.1498C32.691 14.0878 32.741 14.0358 32.805 14.0368ZM33.367 14.0368C33.3817 14.0369 33.3962 14.0399 33.4098 14.0457C33.4233 14.0514 33.4356 14.0598 33.4459 14.0703C33.4562 14.0808 33.4643 14.0932 33.4698 14.1068C33.4753 14.1205 33.4781 14.1351 33.478 14.1498C33.478 14.2118 33.428 14.2628 33.368 14.2638C33.3377 14.2638 33.3087 14.2518 33.2874 14.2304C33.266 14.209 33.254 14.18 33.254 14.1498C33.254 14.0878 33.304 14.0358 33.367 14.0368ZM33.93 14.0368C33.9447 14.0369 33.9592 14.0399 33.9728 14.0457C33.9863 14.0514 33.9986 14.0598 34.0089 14.0703C34.0192 14.0808 34.0273 14.0932 34.0328 14.1068C34.0383 14.1205 34.0411 14.1351 34.041 14.1498C34.041 14.2118 33.991 14.2628 33.93 14.2638C33.8997 14.2638 33.8707 14.2518 33.8494 14.2304C33.828 14.209 33.816 14.18 33.816 14.1498C33.816 14.0878 33.866 14.0358 33.93 14.0368ZM34.49 14.0368C34.5048 14.0366 34.5196 14.0395 34.5334 14.0451C34.5471 14.0507 34.5597 14.0591 34.5702 14.0696C34.5807 14.0801 34.589 14.0926 34.5946 14.1064C34.6003 14.1201 34.6031 14.1349 34.603 14.1498C34.603 14.1798 34.5911 14.2087 34.5699 14.23C34.5488 14.2514 34.52 14.2635 34.49 14.2638C34.4603 14.263 34.432 14.2506 34.4113 14.2293C34.3906 14.208 34.379 14.1795 34.379 14.1498C34.379 14.0878 34.429 14.0378 34.49 14.0368ZM16.307 15.6848C16.5171 15.6848 16.7251 15.7262 16.9193 15.8066C17.1134 15.887 17.2898 16.0048 17.4383 16.1534C17.5869 16.302 17.7048 16.4784 17.7852 16.6725C17.8656 16.8666 17.907 17.0747 17.907 17.2848C17.907 17.4949 17.8656 17.7029 17.7852 17.8971C17.7048 18.0912 17.5869 18.2676 17.4383 18.4161C17.2898 18.5647 17.1134 18.6826 16.9193 18.763C16.7251 18.8434 16.5171 18.8848 16.307 18.8848C15.8826 18.8848 15.4757 18.7162 15.1756 18.4161C14.8755 18.1161 14.707 17.7091 14.707 17.2848C14.707 16.8604 14.8755 16.4535 15.1756 16.1534C15.4757 15.8533 15.8826 15.6848 16.307 15.6848ZM20.143 15.6848C20.4597 15.6846 20.7694 15.7783 21.0328 15.9542C21.2962 16.13 21.5016 16.38 21.6229 16.6726C21.7442 16.9652 21.776 17.2872 21.7143 17.5979C21.6525 17.9085 21.5 18.1939 21.276 18.4179C21.0521 18.6418 20.7667 18.7943 20.4561 18.8561C20.1454 18.9178 19.8234 18.886 19.5308 18.7647C19.2382 18.6434 18.9882 18.4381 18.8124 18.1746C18.6365 17.9112 18.5428 17.6015 18.543 17.2848C18.543 16.8604 18.7115 16.4535 19.0116 16.1534C19.3117 15.8533 19.7186 15.6848 20.143 15.6848ZM23.978 15.6848C24.1881 15.6848 24.3961 15.7262 24.5903 15.8066C24.7844 15.887 24.9608 16.0048 25.1093 16.1534C25.2579 16.302 25.3758 16.4784 25.4562 16.6725C25.5366 16.8666 25.578 17.0747 25.578 17.2848C25.578 17.4949 25.5366 17.7029 25.4562 17.8971C25.3758 18.0912 25.2579 18.2676 25.1093 18.4161C24.9608 18.5647 24.7844 18.6826 24.5903 18.763C24.3961 18.8434 24.1881 18.8848 23.978 18.8848C23.5536 18.8848 23.1467 18.7162 22.8466 18.4161C22.5465 18.1161 22.378 17.7091 22.378 17.2848C22.378 16.8604 22.5465 16.4535 22.8466 16.1534C23.1467 15.8533 23.5536 15.6848 23.978 15.6848ZM27.814 15.6848C28.1307 15.6846 28.4404 15.7783 28.7038 15.9542C28.9672 16.13 29.1726 16.38 29.2939 16.6726C29.4152 16.9652 29.447 17.2872 29.3853 17.5979C29.3235 17.9085 29.171 18.1939 28.947 18.4179C28.7231 18.6418 28.4377 18.7943 28.1271 18.8561C27.8164 18.9178 27.4944 18.886 27.2018 18.7647C26.9092 18.6434 26.6592 18.4381 26.4834 18.1746C26.3075 17.9112 26.2138 17.6015 26.214 17.2848C26.214 16.8604 26.3825 16.4535 26.6826 16.1534C26.9827 15.8533 27.3896 15.6848 27.814 15.6848ZM31.65 15.6848C31.8601 15.6848 32.0681 15.7262 32.2623 15.8066C32.4564 15.887 32.6328 16.0048 32.7813 16.1534C32.9299 16.302 33.0478 16.4784 33.1282 16.6725C33.2086 16.8666 33.25 17.0747 33.25 17.2848C33.25 17.4949 33.2086 17.7029 33.1282 17.8971C33.0478 18.0912 32.9299 18.2676 32.7813 18.4161C32.6328 18.5647 32.4564 18.6826 32.2623 18.763C32.0681 18.8434 31.8601 18.8848 31.65 18.8848C31.2256 18.8848 30.8187 18.7162 30.5186 18.4161C30.2185 18.1161 30.05 17.7091 30.05 17.2848C30.05 16.8604 30.2185 16.4535 30.5186 16.1534C30.8187 15.8533 31.2256 15.6848 31.65 15.6848ZM13.688 20.6658C13.75 20.6658 13.801 20.7158 13.801 20.7788C13.801 20.809 13.789 20.838 13.7676 20.8594C13.7462 20.8808 13.7172 20.8928 13.687 20.8928C13.6574 20.8917 13.6295 20.8793 13.6089 20.858C13.5884 20.8367 13.577 20.8083 13.577 20.7788C13.576 20.7168 13.626 20.6658 13.687 20.6658H13.688ZM14.25 20.6658C14.2767 20.6652 14.3028 20.6745 14.3232 20.6918C14.3437 20.7091 14.3571 20.7333 14.361 20.7598V20.7798C14.361 20.8398 14.311 20.8918 14.25 20.8928C14.22 20.8923 14.1914 20.88 14.1703 20.8587C14.1492 20.8375 14.1372 20.8088 14.137 20.7788C14.137 20.7168 14.188 20.6658 14.25 20.6658ZM14.813 20.6658C14.8396 20.6655 14.8654 20.6749 14.8856 20.6921C14.9058 20.7094 14.9191 20.7335 14.923 20.7598V20.7798C14.923 20.8398 14.873 20.8918 14.813 20.8928C14.7827 20.8928 14.7537 20.8808 14.7324 20.8594C14.711 20.838 14.699 20.809 14.699 20.7788C14.699 20.7168 14.749 20.6648 14.813 20.6658ZM15.375 20.6658C15.3897 20.6659 15.4042 20.6689 15.4178 20.6747C15.4313 20.6804 15.4436 20.6888 15.4539 20.6993C15.4642 20.7098 15.4723 20.7222 15.4778 20.7358C15.4833 20.7495 15.4861 20.7641 15.486 20.7788C15.486 20.8398 15.436 20.8918 15.375 20.8928C15.3449 20.8925 15.3162 20.8804 15.295 20.859C15.2738 20.8377 15.262 20.8088 15.262 20.7788C15.262 20.7168 15.312 20.6648 15.375 20.6658ZM15.938 20.6658C15.9675 20.6663 15.9956 20.6785 16.0162 20.6996C16.0368 20.7208 16.0482 20.7492 16.048 20.7788C16.048 20.8398 15.998 20.8918 15.938 20.8928C15.9077 20.8928 15.8787 20.8808 15.8574 20.8594C15.836 20.838 15.824 20.809 15.824 20.7788C15.824 20.7168 15.874 20.6648 15.938 20.6658ZM16.5 20.6658C16.5147 20.6659 16.5292 20.6689 16.5428 20.6747C16.5563 20.6804 16.5686 20.6888 16.5789 20.6993C16.5892 20.7098 16.5973 20.7222 16.6028 20.7358C16.6083 20.7495 16.6111 20.7641 16.611 20.7788C16.611 20.8398 16.561 20.8918 16.5 20.8928C16.4699 20.8925 16.4412 20.8804 16.42 20.859C16.3988 20.8377 16.387 20.8088 16.387 20.7788C16.387 20.7168 16.437 20.6648 16.5 20.6658ZM17.06 20.6658C17.0749 20.6655 17.0898 20.6682 17.1037 20.6738C17.1176 20.6794 17.1302 20.6877 17.1408 20.6982C17.1514 20.7087 17.1599 20.7213 17.1655 20.7351C17.1712 20.749 17.1741 20.7638 17.174 20.7788C17.174 20.8088 17.1621 20.8377 17.1409 20.859C17.1198 20.8804 17.091 20.8925 17.061 20.8928C17.0311 20.8922 17.0026 20.88 16.9816 20.8587C16.9607 20.8374 16.949 20.8087 16.949 20.7788C16.949 20.7168 16.999 20.6658 17.06 20.6658ZM17.623 20.6658C17.6378 20.6656 17.6526 20.6685 17.6664 20.6741C17.6801 20.6797 17.6927 20.6881 17.7032 20.6986C17.7137 20.7091 17.722 20.7216 17.7276 20.7354C17.7333 20.7491 17.7361 20.7639 17.736 20.7788C17.736 20.8088 17.7241 20.8377 17.7029 20.859C17.6818 20.8804 17.653 20.8925 17.623 20.8928C17.5933 20.892 17.565 20.8796 17.5443 20.8583C17.5236 20.837 17.512 20.8085 17.512 20.7788C17.512 20.7168 17.562 20.6658 17.623 20.6658ZM18.186 20.6658C18.2008 20.6656 18.2156 20.6685 18.2294 20.6741C18.2431 20.6797 18.2557 20.6881 18.2662 20.6986C18.2767 20.7091 18.285 20.7216 18.2906 20.7354C18.2963 20.7491 18.2991 20.7639 18.299 20.7788C18.299 20.8088 18.2871 20.8377 18.2659 20.859C18.2448 20.8804 18.216 20.8925 18.186 20.8928C18.1561 20.8922 18.1276 20.88 18.1066 20.8587C18.0857 20.8374 18.074 20.8087 18.074 20.7788C18.074 20.7168 18.124 20.6658 18.185 20.6658H18.186ZM18.748 20.6658C18.7747 20.6652 18.8008 20.6745 18.8212 20.6918C18.8417 20.7091 18.8551 20.7333 18.859 20.7598V20.7798C18.859 20.8398 18.809 20.8918 18.748 20.8928C18.7183 20.892 18.69 20.8796 18.6693 20.8583C18.6486 20.837 18.637 20.8085 18.637 20.7788C18.636 20.7168 18.687 20.6658 18.748 20.6658ZM19.311 20.6658C19.3405 20.6663 19.3686 20.6785 19.3892 20.6996C19.4098 20.7208 19.4212 20.7492 19.421 20.7788C19.421 20.8398 19.371 20.8918 19.311 20.8928C19.2807 20.8928 19.2517 20.8808 19.2304 20.8594C19.209 20.838 19.197 20.809 19.197 20.7788C19.197 20.7168 19.247 20.6648 19.311 20.6658ZM19.873 20.6658C19.8877 20.6659 19.9022 20.6689 19.9158 20.6747C19.9293 20.6804 19.9416 20.6888 19.9519 20.6993C19.9622 20.7098 19.9703 20.7222 19.9758 20.7358C19.9813 20.7495 19.9841 20.7641 19.984 20.7788C19.984 20.8398 19.934 20.8918 19.873 20.8928C19.8429 20.8925 19.8142 20.8804 19.793 20.859C19.7718 20.8377 19.76 20.8088 19.76 20.7788C19.76 20.7168 19.81 20.6648 19.873 20.6658ZM20.436 20.6658C20.4655 20.6663 20.4936 20.6785 20.5142 20.6996C20.5348 20.7208 20.5462 20.7492 20.546 20.7788C20.546 20.8398 20.496 20.8918 20.436 20.8928C20.421 20.8928 20.4062 20.8898 20.3923 20.8841C20.3785 20.8784 20.3659 20.87 20.3554 20.8594C20.3448 20.8488 20.3364 20.8362 20.3306 20.8224C20.3249 20.8086 20.322 20.7937 20.322 20.7788C20.322 20.7168 20.372 20.6648 20.436 20.6658ZM20.998 20.6658C21.0127 20.6659 21.0272 20.6689 21.0408 20.6747C21.0543 20.6804 21.0666 20.6888 21.0769 20.6993C21.0872 20.7098 21.0953 20.7222 21.1008 20.7358C21.1063 20.7495 21.1091 20.7641 21.109 20.7788C21.109 20.8398 21.059 20.8918 20.998 20.8928C20.9679 20.8925 20.9392 20.8804 20.918 20.859C20.8968 20.8377 20.885 20.8088 20.885 20.7788C20.885 20.7168 20.935 20.6648 20.998 20.6658ZM21.558 20.6658C21.5729 20.6655 21.5878 20.6682 21.6017 20.6738C21.6156 20.6794 21.6282 20.6877 21.6388 20.6982C21.6494 20.7087 21.6579 20.7213 21.6635 20.7351C21.6692 20.749 21.6721 20.7638 21.672 20.7788C21.672 20.8088 21.6601 20.8377 21.6389 20.859C21.6178 20.8804 21.589 20.8925 21.559 20.8928C21.5291 20.8922 21.5006 20.88 21.4796 20.8587C21.4587 20.8374 21.447 20.8087 21.447 20.7788C21.447 20.7168 21.497 20.6658 21.559 20.6658H21.558ZM22.121 20.6658C22.1358 20.6656 22.1506 20.6685 22.1644 20.6741C22.1781 20.6797 22.1906 20.6881 22.2012 20.6986C22.2117 20.7091 22.22 20.7216 22.2256 20.7354C22.2313 20.7491 22.2341 20.7639 22.234 20.7788C22.234 20.8088 22.2221 20.8377 22.2009 20.859C22.1798 20.8804 22.151 20.8925 22.121 20.8928C22.0913 20.892 22.063 20.8796 22.0423 20.8583C22.0216 20.837 22.01 20.8085 22.01 20.7788C22.01 20.7168 22.06 20.6658 22.121 20.6658ZM22.684 20.6658C22.746 20.6658 22.797 20.7158 22.797 20.7788C22.797 20.8088 22.7851 20.8377 22.7639 20.859C22.7428 20.8804 22.714 20.8925 22.684 20.8928C22.6541 20.8922 22.6256 20.88 22.6046 20.8587C22.5837 20.8374 22.572 20.8087 22.572 20.7788C22.572 20.7168 22.622 20.6658 22.684 20.6658ZM23.246 20.6658C23.301 20.6658 23.35 20.7058 23.357 20.7598V20.7798C23.357 20.8398 23.307 20.8918 23.247 20.8928C23.2171 20.8922 23.1886 20.88 23.1676 20.8587C23.1467 20.8374 23.135 20.8087 23.135 20.7788C23.135 20.7168 23.185 20.6658 23.246 20.6658ZM23.809 20.6658C23.8356 20.6655 23.8614 20.6749 23.8816 20.6921C23.9018 20.7094 23.9151 20.7335 23.919 20.7598C23.921 20.7668 23.921 20.7718 23.919 20.7798C23.919 20.8398 23.869 20.8918 23.809 20.8928C23.794 20.8928 23.7792 20.8898 23.7653 20.8841C23.7515 20.8784 23.7389 20.87 23.7284 20.8594C23.7178 20.8488 23.7094 20.8362 23.7036 20.8224C23.6979 20.8086 23.695 20.7937 23.695 20.7788C23.695 20.7168 23.745 20.6648 23.809 20.6658ZM24.371 20.6658C24.3857 20.6659 24.4002 20.6689 24.4138 20.6747C24.4273 20.6804 24.4396 20.6888 24.4499 20.6993C24.4602 20.7098 24.4683 20.7222 24.4738 20.7358C24.4793 20.7495 24.4821 20.7641 24.482 20.7788C24.482 20.8398 24.432 20.8918 24.372 20.8928C24.3417 20.8928 24.3127 20.8808 24.2914 20.8594C24.27 20.838 24.258 20.809 24.258 20.7788C24.258 20.7168 24.308 20.6648 24.371 20.6658ZM24.934 20.6658C24.9635 20.6663 24.9916 20.6785 25.0122 20.6996C25.0328 20.7208 25.0442 20.7492 25.044 20.7788C25.044 20.8398 24.994 20.8918 24.934 20.8928C24.9037 20.8928 24.8747 20.8808 24.8534 20.8594C24.832 20.838 24.82 20.809 24.82 20.7788C24.82 20.7168 24.87 20.6648 24.934 20.6658ZM25.494 20.6658C25.5088 20.6656 25.5236 20.6685 25.5374 20.6741C25.5511 20.6797 25.5636 20.6881 25.5742 20.6986C25.5847 20.7091 25.593 20.7216 25.5986 20.7354C25.6043 20.7491 25.6071 20.7639 25.607 20.7788C25.607 20.8088 25.5951 20.8377 25.5739 20.859C25.5528 20.8804 25.524 20.8925 25.494 20.8928C25.4643 20.892 25.436 20.8796 25.4153 20.8583C25.3946 20.837 25.383 20.8085 25.383 20.7788C25.383 20.7168 25.433 20.6658 25.494 20.6658ZM26.057 20.6658C26.0718 20.6656 26.0866 20.6685 26.1004 20.6741C26.1141 20.6797 26.1266 20.6881 26.1372 20.6986C26.1477 20.7091 26.156 20.7216 26.1616 20.7354C26.1673 20.7491 26.1701 20.7639 26.17 20.7788C26.17 20.8088 26.1581 20.8377 26.1369 20.859C26.1158 20.8804 26.087 20.8925 26.057 20.8928C26.0271 20.8922 25.9986 20.88 25.9776 20.8587C25.9567 20.8374 25.945 20.8087 25.945 20.7788C25.945 20.7168 25.995 20.6658 26.057 20.6658ZM26.619 20.6658C26.6338 20.6656 26.6486 20.6685 26.6624 20.6741C26.6761 20.6797 26.6886 20.6881 26.6992 20.6986C26.7097 20.7091 26.718 20.7216 26.7236 20.7354C26.7293 20.7491 26.7321 20.7639 26.732 20.7788C26.732 20.8088 26.7201 20.8377 26.6989 20.859C26.6778 20.8804 26.649 20.8925 26.619 20.8928C26.5893 20.892 26.561 20.8796 26.5403 20.8583C26.5196 20.837 26.508 20.8085 26.508 20.7788C26.508 20.7168 26.558 20.6658 26.619 20.6658ZM27.182 20.6658C27.244 20.6658 27.296 20.7158 27.295 20.7788C27.295 20.8088 27.2831 20.8377 27.2619 20.859C27.2408 20.8804 27.212 20.8925 27.182 20.8928C27.1521 20.8922 27.1236 20.88 27.1026 20.8587C27.0817 20.8374 27.07 20.8087 27.07 20.7788C27.07 20.7168 27.12 20.6658 27.182 20.6658ZM27.744 20.6658C27.7707 20.6652 27.7968 20.6745 27.8172 20.6918C27.8377 20.7091 27.8511 20.7333 27.855 20.7598V20.7798C27.855 20.8398 27.805 20.8918 27.745 20.8928C27.7151 20.8922 27.6866 20.88 27.6656 20.8587C27.6447 20.8374 27.633 20.8087 27.633 20.7788C27.633 20.7168 27.683 20.6658 27.744 20.6658ZM28.307 20.6658C28.366 20.6658 28.414 20.7118 28.418 20.7708V20.7788C28.418 20.8398 28.368 20.8918 28.307 20.8928C28.2767 20.8928 28.2477 20.8808 28.2264 20.8594C28.205 20.838 28.193 20.809 28.193 20.7788C28.193 20.7168 28.243 20.6648 28.307 20.6658ZM28.869 20.6658C28.929 20.6658 28.977 20.7118 28.98 20.7708V20.7788C28.98 20.8398 28.93 20.8918 28.87 20.8928C28.855 20.8928 28.8402 20.8898 28.8263 20.8841C28.8125 20.8784 28.7999 20.87 28.7894 20.8594C28.7788 20.8488 28.7704 20.8362 28.7646 20.8224C28.7589 20.8086 28.756 20.7937 28.756 20.7788C28.756 20.7168 28.806 20.6648 28.869 20.6658ZM29.432 20.6658C29.4467 20.6659 29.4612 20.6689 29.4748 20.6747C29.4883 20.6804 29.5006 20.6888 29.5109 20.6993C29.5212 20.7098 29.5293 20.7222 29.5348 20.7358C29.5403 20.7495 29.5431 20.7641 29.543 20.7788C29.543 20.8398 29.493 20.8918 29.432 20.8928C29.4017 20.8928 29.3727 20.8808 29.3514 20.8594C29.33 20.838 29.318 20.809 29.318 20.7788C29.318 20.7168 29.368 20.6648 29.432 20.6658ZM29.992 20.6658C30.0068 20.6656 30.0216 20.6685 30.0354 20.6741C30.0491 20.6797 30.0617 20.6881 30.0722 20.6986C30.0827 20.7091 30.091 20.7216 30.0966 20.7354C30.1023 20.7491 30.1051 20.7639 30.105 20.7788C30.105 20.8088 30.0931 20.8377 30.0719 20.859C30.0508 20.8804 30.022 20.8925 29.992 20.8928C29.9623 20.892 29.934 20.8796 29.9133 20.8583C29.8926 20.837 29.881 20.8085 29.881 20.7788C29.881 20.7168 29.931 20.6658 29.992 20.6658ZM30.555 20.6658C30.615 20.6658 30.665 20.7118 30.668 20.7708V20.7788C30.668 20.8088 30.6561 20.8377 30.6349 20.859C30.6138 20.8804 30.585 20.8925 30.555 20.8928C30.5251 20.8922 30.4966 20.88 30.4756 20.8587C30.4547 20.8374 30.443 20.8087 30.443 20.7788C30.443 20.7168 30.493 20.6658 30.555 20.6658ZM31.117 20.6658C31.177 20.6658 31.227 20.7118 31.23 20.7708V20.7788C31.23 20.8088 31.2181 20.8377 31.1969 20.859C31.1758 20.8804 31.147 20.8925 31.117 20.8928C31.0873 20.892 31.059 20.8796 31.0383 20.8583C31.0176 20.837 31.006 20.8085 31.006 20.7788C31.006 20.7168 31.056 20.6658 31.117 20.6658ZM31.68 20.6658C31.7067 20.6652 31.7328 20.6745 31.7532 20.6918C31.7737 20.7091 31.7871 20.7333 31.791 20.7598V20.7798C31.791 20.8398 31.741 20.8918 31.68 20.8928C31.6501 20.8922 31.6216 20.88 31.6006 20.8587C31.5797 20.8374 31.568 20.8087 31.568 20.7788C31.568 20.7168 31.618 20.6658 31.68 20.6658ZM32.242 20.6658C32.2687 20.6652 32.2948 20.6745 32.3152 20.6918C32.3357 20.7091 32.3491 20.7333 32.353 20.7598V20.7798C32.353 20.8398 32.303 20.8918 32.243 20.8928C32.2127 20.8928 32.1837 20.8808 32.1624 20.8594C32.141 20.838 32.129 20.809 32.129 20.7788C32.129 20.7168 32.179 20.6648 32.242 20.6658ZM32.805 20.6658C32.8197 20.6659 32.8342 20.6689 32.8478 20.6747C32.8613 20.6804 32.8736 20.6888 32.8839 20.6993C32.8942 20.7098 32.9023 20.7222 32.9078 20.7358C32.9133 20.7495 32.9161 20.7641 32.916 20.7788C32.916 20.8398 32.866 20.8918 32.805 20.8928C32.7747 20.8928 32.7457 20.8808 32.7244 20.8594C32.703 20.838 32.691 20.809 32.691 20.7788C32.691 20.7168 32.741 20.6648 32.805 20.6658ZM33.367 20.6658C33.3817 20.6659 33.3962 20.6689 33.4098 20.6747C33.4233 20.6804 33.4356 20.6888 33.4459 20.6993C33.4562 20.7098 33.4643 20.7222 33.4698 20.7358C33.4753 20.7495 33.4781 20.7641 33.478 20.7788C33.478 20.8398 33.428 20.8918 33.368 20.8928C33.3377 20.8928 33.3087 20.8808 33.2874 20.8594C33.266 20.838 33.254 20.809 33.254 20.7788C33.254 20.7168 33.304 20.6648 33.367 20.6658ZM33.93 20.6658C33.9447 20.6659 33.9592 20.6689 33.9728 20.6747C33.9863 20.6804 33.9986 20.6888 34.0089 20.6993C34.0192 20.7098 34.0273 20.7222 34.0328 20.7358C34.0383 20.7495 34.0411 20.7641 34.041 20.7788C34.041 20.8398 33.991 20.8918 33.93 20.8928C33.8997 20.8928 33.8707 20.8808 33.8494 20.8594C33.828 20.838 33.816 20.809 33.816 20.7788C33.816 20.7168 33.866 20.6648 33.93 20.6658ZM34.49 20.6658C34.5048 20.6656 34.5196 20.6685 34.5334 20.6741C34.5471 20.6797 34.5597 20.6881 34.5702 20.6986C34.5807 20.7091 34.589 20.7216 34.5946 20.7354C34.6003 20.7491 34.6031 20.7639 34.603 20.7788C34.603 20.8088 34.5911 20.8377 34.5699 20.859C34.5488 20.8804 34.52 20.8925 34.49 20.8928C34.4603 20.892 34.432 20.8796 34.4113 20.8583C34.3906 20.837 34.379 20.8085 34.379 20.7788C34.379 20.7168 34.429 20.6658 34.49 20.6658ZM16.307 22.5138C16.5217 22.5062 16.7358 22.5419 16.9364 22.6189C17.137 22.6958 17.3201 22.8123 17.4747 22.9616C17.6293 23.1108 17.7523 23.2897 17.8363 23.4874C17.9202 23.6852 17.9635 23.8979 17.9635 24.1128C17.9635 24.3277 17.9202 24.5403 17.8363 24.7381C17.7523 24.9359 17.6293 25.1147 17.4747 25.264C17.3201 25.4132 17.137 25.5298 16.9364 25.6067C16.7358 25.6836 16.5217 25.7194 16.307 25.7118C15.8927 25.6971 15.5002 25.5222 15.2123 25.224C14.9244 24.9257 14.7635 24.5273 14.7635 24.1128C14.7635 23.6982 14.9244 23.2998 15.2123 23.0016C15.5002 22.7033 15.8927 22.5284 16.307 22.5138ZM20.143 22.5138C20.4597 22.5136 20.7694 22.6073 21.0328 22.7832C21.2962 22.959 21.5016 23.209 21.6229 23.5016C21.7442 23.7942 21.776 24.1162 21.7143 24.4269C21.6525 24.7375 21.5 25.0229 21.276 25.2469C21.0521 25.4708 20.7667 25.6233 20.4561 25.6851C20.1454 25.7468 19.8234 25.715 19.5308 25.5937C19.2382 25.4724 18.9882 25.2671 18.8124 25.0036C18.6365 24.7402 18.5428 24.4305 18.543 24.1138C18.543 23.9037 18.5844 23.6956 18.6648 23.5015C18.7452 23.3074 18.863 23.131 19.0116 22.9824C19.1602 22.8338 19.3366 22.716 19.5307 22.6356C19.7248 22.5552 19.9329 22.5138 20.143 22.5138ZM23.978 22.5138C24.1927 22.5062 24.4068 22.5419 24.6074 22.6189C24.808 22.6958 24.9911 22.8123 25.1457 22.9616C25.3003 23.1108 25.4233 23.2897 25.5073 23.4874C25.5912 23.6852 25.6345 23.8979 25.6345 24.1128C25.6345 24.3277 25.5912 24.5403 25.5073 24.7381C25.4233 24.9359 25.3003 25.1147 25.1457 25.264C24.9911 25.4132 24.808 25.5298 24.6074 25.6067C24.4068 25.6836 24.1927 25.7194 23.978 25.7118C23.5637 25.6971 23.1712 25.5222 22.8833 25.224C22.5954 24.9257 22.4345 24.5273 22.4345 24.1128C22.4345 23.6982 22.5954 23.2998 22.8833 23.0016C23.1712 22.7033 23.5637 22.5284 23.978 22.5138ZM27.814 22.5138C28.1307 22.5136 28.4404 22.6073 28.7038 22.7832C28.9672 22.959 29.1726 23.209 29.2939 23.5016C29.4152 23.7942 29.447 24.1162 29.3853 24.4269C29.3235 24.7375 29.171 25.0229 28.947 25.2469C28.7231 25.4708 28.4377 25.6233 28.1271 25.6851C27.8164 25.7468 27.4944 25.715 27.2018 25.5937C26.9092 25.4724 26.6592 25.2671 26.4834 25.0036C26.3075 24.7402 26.2138 24.4305 26.214 24.1138C26.214 23.6894 26.3825 23.2825 26.6826 22.9824C26.9827 22.6823 27.3896 22.5138 27.814 22.5138ZM31.65 22.5138C31.8647 22.5062 32.0788 22.5419 32.2794 22.6189C32.48 22.6958 32.6631 22.8123 32.8177 22.9616C32.9723 23.1108 33.0953 23.2897 33.1793 23.4874C33.2632 23.6852 33.3065 23.8979 33.3065 24.1128C33.3065 24.3277 33.2632 24.5403 33.1793 24.7381C33.0953 24.9359 32.9723 25.1147 32.8177 25.264C32.6631 25.4132 32.48 25.5298 32.2794 25.6067C32.0788 25.6836 31.8647 25.7194 31.65 25.7118C31.2357 25.6971 30.8432 25.5222 30.5553 25.224C30.2674 24.9257 30.1065 24.5273 30.1065 24.1128C30.1065 23.6982 30.2674 23.2998 30.5553 23.0016C30.8432 22.7033 31.2357 22.5284 31.65 22.5138ZM13.688 27.2938C13.75 27.2938 13.801 27.3458 13.801 27.4078C13.8007 27.4378 13.7886 27.4666 13.7672 27.4877C13.7459 27.5089 13.717 27.5208 13.687 27.5208C13.6576 27.5197 13.6298 27.5074 13.6093 27.4864C13.5888 27.4653 13.5772 27.4372 13.577 27.4078C13.576 27.3458 13.626 27.2948 13.687 27.2948L13.688 27.2938ZM14.25 27.2938C14.2769 27.2933 14.3031 27.3027 14.3235 27.3202C14.344 27.3377 14.3573 27.3621 14.361 27.3888V27.4088C14.361 27.4688 14.311 27.5208 14.25 27.5218C14.22 27.5213 14.1914 27.509 14.1703 27.4877C14.1492 27.4665 14.1372 27.4378 14.137 27.4078C14.137 27.3458 14.188 27.2948 14.25 27.2948V27.2938ZM14.813 27.2938C14.8397 27.2935 14.8656 27.303 14.8859 27.3205C14.9061 27.338 14.9193 27.3623 14.923 27.3888V27.4088C14.923 27.4688 14.873 27.5208 14.813 27.5218C14.7827 27.5218 14.7537 27.5098 14.7324 27.4884C14.711 27.467 14.699 27.438 14.699 27.4078C14.699 27.3448 14.749 27.2938 14.813 27.2948V27.2938ZM15.375 27.2938C15.3898 27.2939 15.4044 27.297 15.418 27.3028C15.4316 27.3086 15.4439 27.317 15.4542 27.3276C15.4646 27.3382 15.4727 27.3508 15.4781 27.3645C15.4836 27.3783 15.4862 27.393 15.486 27.4078C15.486 27.4688 15.436 27.5208 15.375 27.5208C15.3451 27.5205 15.3165 27.5085 15.2954 27.4874C15.2742 27.4663 15.2622 27.4377 15.262 27.4078C15.262 27.3448 15.312 27.2938 15.375 27.2948V27.2938ZM15.938 27.2938C15.9527 27.294 15.9672 27.2972 15.9807 27.3031C15.9942 27.3089 16.0064 27.3174 16.0166 27.328C16.0268 27.3386 16.0348 27.3511 16.0402 27.3648C16.0456 27.3784 16.0482 27.3931 16.048 27.4078C16.048 27.4688 15.998 27.5208 15.938 27.5208C15.9079 27.5208 15.8791 27.5089 15.8577 27.4877C15.8364 27.4666 15.8242 27.4378 15.824 27.4078C15.824 27.3448 15.874 27.2938 15.938 27.2948V27.2938ZM16.5 27.2938C16.5148 27.2939 16.5294 27.297 16.543 27.3028C16.5566 27.3086 16.5689 27.317 16.5792 27.3276C16.5896 27.3382 16.5977 27.3508 16.6031 27.3645C16.6086 27.3783 16.6112 27.393 16.611 27.4078C16.611 27.4688 16.561 27.5208 16.5 27.5208C16.4701 27.5205 16.4415 27.5085 16.4204 27.4874C16.3992 27.4663 16.3872 27.4377 16.387 27.4078C16.387 27.3448 16.437 27.2938 16.5 27.2948V27.2938ZM17.06 27.2938C17.075 27.2935 17.09 27.2963 17.1039 27.3019C17.1179 27.3075 17.1305 27.3159 17.1412 27.3266C17.1518 27.3372 17.1602 27.3499 17.1658 27.3638C17.1715 27.3778 17.1742 27.3927 17.174 27.4078C17.1737 27.4377 17.1617 27.4663 17.1406 27.4874C17.1194 27.5085 17.0909 27.5205 17.061 27.5208C17.0313 27.5203 17.0029 27.5082 16.982 27.487C16.9611 27.4659 16.9492 27.4375 16.949 27.4078C16.949 27.3458 16.999 27.2948 17.06 27.2948V27.2938ZM17.623 27.2938C17.6379 27.2936 17.6528 27.2965 17.6666 27.3022C17.6804 27.3079 17.693 27.3163 17.7035 27.3269C17.7141 27.3375 17.7224 27.3502 17.7279 27.3641C17.7335 27.378 17.7362 27.3928 17.736 27.4078C17.7357 27.4377 17.7237 27.4663 17.7026 27.4874C17.6814 27.5085 17.6529 27.5205 17.623 27.5208C17.5934 27.52 17.5653 27.5078 17.5446 27.4867C17.5239 27.4656 17.5122 27.4373 17.512 27.4078C17.512 27.3458 17.562 27.2948 17.623 27.2948V27.2938ZM18.186 27.2938C18.2009 27.2936 18.2158 27.2965 18.2296 27.3022C18.2434 27.3079 18.256 27.3163 18.2665 27.3269C18.2771 27.3375 18.2854 27.3502 18.2909 27.3641C18.2965 27.378 18.2992 27.3928 18.299 27.4078C18.2987 27.4377 18.2867 27.4663 18.2656 27.4874C18.2444 27.5085 18.2159 27.5205 18.186 27.5208C18.1563 27.5203 18.1279 27.5082 18.107 27.487C18.0861 27.4659 18.0742 27.4375 18.074 27.4078C18.074 27.3458 18.124 27.2948 18.185 27.2948L18.186 27.2938ZM18.748 27.2938C18.7749 27.2933 18.8011 27.3027 18.8215 27.3202C18.842 27.3377 18.8553 27.3621 18.859 27.3888V27.4088C18.859 27.4688 18.809 27.5208 18.748 27.5218C18.7183 27.521 18.69 27.5086 18.6693 27.4873C18.6486 27.466 18.637 27.4375 18.637 27.4078C18.636 27.3458 18.687 27.2948 18.748 27.2948V27.2938ZM19.311 27.2938C19.3257 27.294 19.3402 27.2972 19.3537 27.3031C19.3672 27.3089 19.3794 27.3174 19.3896 27.328C19.3998 27.3386 19.4078 27.3511 19.4132 27.3648C19.4186 27.3784 19.4212 27.3931 19.421 27.4078C19.421 27.4688 19.371 27.5208 19.311 27.5208C19.2809 27.5208 19.2521 27.5089 19.2307 27.4877C19.2094 27.4666 19.1972 27.4378 19.197 27.4078C19.197 27.3448 19.247 27.2938 19.311 27.2948V27.2938ZM19.873 27.2938C19.8878 27.2939 19.9024 27.297 19.916 27.3028C19.9296 27.3086 19.9419 27.317 19.9522 27.3276C19.9626 27.3382 19.9707 27.3508 19.9761 27.3645C19.9816 27.3783 19.9842 27.393 19.984 27.4078C19.984 27.4688 19.934 27.5208 19.873 27.5208C19.8431 27.5205 19.8145 27.5085 19.7934 27.4874C19.7722 27.4663 19.7602 27.4377 19.76 27.4078C19.76 27.3448 19.81 27.2938 19.873 27.2948V27.2938ZM20.436 27.2938C20.4507 27.294 20.4652 27.2972 20.4787 27.3031C20.4922 27.3089 20.5044 27.3174 20.5146 27.328C20.5248 27.3386 20.5328 27.3511 20.5382 27.3648C20.5436 27.3784 20.5462 27.3931 20.546 27.4078C20.546 27.4688 20.496 27.5208 20.436 27.5208C20.4059 27.5208 20.3771 27.5089 20.3557 27.4877C20.3344 27.4666 20.3222 27.4378 20.322 27.4078C20.322 27.3448 20.372 27.2938 20.436 27.2948V27.2938ZM20.998 27.2938C21.0128 27.2939 21.0274 27.297 21.041 27.3028C21.0546 27.3086 21.0669 27.317 21.0772 27.3276C21.0876 27.3382 21.0957 27.3508 21.1011 27.3645C21.1066 27.3783 21.1092 27.393 21.109 27.4078C21.109 27.4688 21.059 27.5208 20.998 27.5208C20.9681 27.5205 20.9395 27.5085 20.9184 27.4874C20.8972 27.4663 20.8852 27.4377 20.885 27.4078C20.885 27.3448 20.935 27.2938 20.998 27.2948V27.2938ZM21.558 27.2938C21.573 27.2935 21.588 27.2963 21.6019 27.3019C21.6159 27.3075 21.6285 27.3159 21.6392 27.3266C21.6498 27.3372 21.6582 27.3499 21.6638 27.3638C21.6695 27.3778 21.6722 27.3927 21.672 27.4078C21.6717 27.4377 21.6597 27.4663 21.6386 27.4874C21.6174 27.5085 21.5889 27.5205 21.559 27.5208C21.5293 27.5203 21.5009 27.5082 21.48 27.487C21.4591 27.4659 21.4472 27.4375 21.447 27.4078C21.447 27.3458 21.497 27.2948 21.559 27.2948L21.558 27.2938ZM22.121 27.2938C22.1359 27.2936 22.1508 27.2965 22.1646 27.3022C22.1784 27.3079 22.191 27.3163 22.2015 27.3269C22.2121 27.3375 22.2204 27.3502 22.2259 27.3641C22.2315 27.378 22.2342 27.3928 22.234 27.4078C22.2337 27.4377 22.2217 27.4663 22.2006 27.4874C22.1794 27.5085 22.1509 27.5205 22.121 27.5208C22.0914 27.52 22.0633 27.5078 22.0426 27.4867C22.0219 27.4656 22.0102 27.4373 22.01 27.4078C22.01 27.3458 22.06 27.2948 22.121 27.2948V27.2938ZM22.684 27.2938C22.746 27.2938 22.797 27.3458 22.797 27.4078C22.7967 27.4377 22.7847 27.4663 22.7636 27.4874C22.7424 27.5085 22.7139 27.5205 22.684 27.5208C22.6543 27.5203 22.6259 27.5082 22.605 27.487C22.5841 27.4659 22.5722 27.4375 22.572 27.4078C22.572 27.3458 22.622 27.2948 22.684 27.2948V27.2938ZM23.246 27.2938C23.301 27.2938 23.35 27.3338 23.357 27.3888V27.4088C23.357 27.4688 23.307 27.5208 23.247 27.5218C23.2171 27.5212 23.1886 27.509 23.1676 27.4877C23.1467 27.4664 23.135 27.4377 23.135 27.4078C23.135 27.3458 23.185 27.2948 23.246 27.2948V27.2938ZM23.809 27.2938C23.8357 27.2935 23.8616 27.303 23.8819 27.3205C23.9021 27.338 23.9153 27.3623 23.919 27.3888C23.921 27.3958 23.921 27.4008 23.919 27.4088C23.919 27.4688 23.869 27.5208 23.809 27.5218C23.7787 27.5218 23.7497 27.5098 23.7284 27.4884C23.707 27.467 23.695 27.438 23.695 27.4078C23.695 27.3448 23.745 27.2938 23.809 27.2948V27.2938ZM24.371 27.2938C24.3858 27.2939 24.4004 27.297 24.414 27.3028C24.4276 27.3086 24.4399 27.317 24.4502 27.3276C24.4606 27.3382 24.4687 27.3508 24.4741 27.3645C24.4796 27.3783 24.4822 27.393 24.482 27.4078C24.482 27.4688 24.432 27.5208 24.372 27.5208C24.3419 27.5208 24.3131 27.5089 24.2917 27.4877C24.2704 27.4666 24.2582 27.4378 24.258 27.4078C24.258 27.3448 24.308 27.2938 24.371 27.2948V27.2938ZM24.934 27.2938C24.9487 27.294 24.9632 27.2972 24.9767 27.3031C24.9902 27.3089 25.0024 27.3174 25.0126 27.328C25.0228 27.3386 25.0308 27.3511 25.0362 27.3648C25.0416 27.3784 25.0442 27.3931 25.044 27.4078C25.044 27.4688 24.994 27.5208 24.934 27.5208C24.9039 27.5208 24.8751 27.5089 24.8537 27.4877C24.8324 27.4666 24.8202 27.4378 24.82 27.4078C24.82 27.3448 24.87 27.2938 24.934 27.2948V27.2938ZM25.494 27.2938C25.5089 27.2936 25.5238 27.2965 25.5376 27.3022C25.5514 27.3079 25.564 27.3163 25.5745 27.3269C25.5851 27.3375 25.5934 27.3502 25.5989 27.3641C25.6045 27.378 25.6072 27.3928 25.607 27.4078C25.6067 27.4377 25.5947 27.4663 25.5736 27.4874C25.5524 27.5085 25.5239 27.5205 25.494 27.5208C25.4644 27.52 25.4363 27.5078 25.4156 27.4867C25.3949 27.4656 25.3832 27.4373 25.383 27.4078C25.383 27.3458 25.433 27.2948 25.494 27.2948V27.2938ZM26.057 27.2938C26.0719 27.2936 26.0868 27.2965 26.1006 27.3022C26.1144 27.3079 26.127 27.3163 26.1375 27.3269C26.1481 27.3375 26.1564 27.3502 26.1619 27.3641C26.1675 27.378 26.1702 27.3928 26.17 27.4078C26.1697 27.4377 26.1577 27.4663 26.1366 27.4874C26.1154 27.5085 26.0869 27.5205 26.057 27.5208C26.0273 27.5203 25.9989 27.5082 25.978 27.487C25.9571 27.4659 25.9452 27.4375 25.945 27.4078C25.945 27.3458 25.995 27.2948 26.057 27.2948V27.2938ZM26.619 27.2938C26.6339 27.2936 26.6488 27.2965 26.6626 27.3022C26.6764 27.3079 26.689 27.3163 26.6995 27.3269C26.7101 27.3375 26.7184 27.3502 26.7239 27.3641C26.7295 27.378 26.7322 27.3928 26.732 27.4078C26.7317 27.4377 26.7197 27.4663 26.6986 27.4874C26.6774 27.5085 26.6489 27.5205 26.619 27.5208C26.5894 27.52 26.5613 27.5078 26.5406 27.4867C26.5199 27.4656 26.5082 27.4373 26.508 27.4078C26.508 27.3458 26.558 27.2948 26.619 27.2948V27.2938ZM27.182 27.2938C27.2102 27.2964 27.2365 27.3095 27.2556 27.3305C27.2747 27.3515 27.2853 27.3789 27.2853 27.4073C27.2853 27.4357 27.2747 27.463 27.2556 27.484C27.2365 27.505 27.2102 27.5181 27.182 27.5208C27.1523 27.5203 27.1239 27.5082 27.103 27.487C27.0821 27.4659 27.0702 27.4375 27.07 27.4078C27.07 27.3458 27.12 27.2948 27.182 27.2948V27.2938ZM27.744 27.2938C27.7709 27.2933 27.7971 27.3027 27.8175 27.3202C27.838 27.3377 27.8513 27.3621 27.855 27.3888V27.4088C27.855 27.4688 27.805 27.5208 27.745 27.5218C27.7151 27.5212 27.6866 27.509 27.6656 27.4877C27.6447 27.4664 27.633 27.4377 27.633 27.4078C27.633 27.3458 27.683 27.2948 27.744 27.2948V27.2938ZM28.307 27.2938C28.366 27.2948 28.414 27.3408 28.418 27.3998V27.4078C28.418 27.4688 28.368 27.5208 28.307 27.5208C28.2769 27.5208 28.2481 27.5089 28.2267 27.4877C28.2054 27.4666 28.1932 27.4378 28.193 27.4078C28.193 27.3448 28.243 27.2938 28.307 27.2948V27.2938ZM28.869 27.2938C28.929 27.2948 28.977 27.3408 28.98 27.3998V27.4078C28.98 27.4688 28.93 27.5208 28.87 27.5208C28.8399 27.5208 28.8111 27.5089 28.7897 27.4877C28.7684 27.4666 28.7562 27.4378 28.756 27.4078C28.756 27.3448 28.806 27.2938 28.869 27.2948V27.2938ZM29.432 27.2938C29.4468 27.2939 29.4614 27.297 29.475 27.3028C29.4886 27.3086 29.5009 27.317 29.5112 27.3276C29.5216 27.3382 29.5297 27.3508 29.5351 27.3645C29.5406 27.3783 29.5432 27.393 29.543 27.4078C29.543 27.4688 29.493 27.5208 29.432 27.5208C29.4019 27.5208 29.3731 27.5089 29.3517 27.4877C29.3304 27.4666 29.3182 27.4378 29.318 27.4078C29.318 27.3448 29.368 27.2938 29.432 27.2948V27.2938ZM29.992 27.2938C30.0069 27.2936 30.0218 27.2965 30.0356 27.3022C30.0494 27.3079 30.062 27.3163 30.0725 27.3269C30.0831 27.3375 30.0914 27.3502 30.0969 27.3641C30.1025 27.378 30.1052 27.3928 30.105 27.4078C30.1047 27.4377 30.0927 27.4663 30.0716 27.4874C30.0504 27.5085 30.0219 27.5205 29.992 27.5208C29.9624 27.52 29.9343 27.5078 29.9136 27.4867C29.8929 27.4656 29.8812 27.4373 29.881 27.4078C29.881 27.3458 29.931 27.2948 29.992 27.2948V27.2938ZM30.555 27.2938C30.615 27.2938 30.665 27.3408 30.668 27.3998V27.4078C30.6677 27.4377 30.6557 27.4663 30.6346 27.4874C30.6134 27.5085 30.5849 27.5205 30.555 27.5208C30.5253 27.5203 30.4969 27.5082 30.476 27.487C30.4551 27.4659 30.4432 27.4375 30.443 27.4078C30.443 27.3458 30.493 27.2948 30.555 27.2948V27.2938ZM31.117 27.2938C31.177 27.2938 31.227 27.3408 31.23 27.3998V27.4078C31.2297 27.4377 31.2177 27.4663 31.1966 27.4874C31.1754 27.5085 31.1469 27.5205 31.117 27.5208C31.0874 27.52 31.0593 27.5078 31.0386 27.4867C31.0179 27.4656 31.0062 27.4373 31.006 27.4078C31.006 27.3458 31.056 27.2948 31.117 27.2948V27.2938ZM31.68 27.2938C31.7069 27.2933 31.7331 27.3027 31.7535 27.3202C31.774 27.3377 31.7873 27.3621 31.791 27.3888V27.4088C31.791 27.4688 31.741 27.5208 31.68 27.5218C31.6501 27.5212 31.6216 27.509 31.6006 27.4877C31.5797 27.4664 31.568 27.4377 31.568 27.4078C31.568 27.3458 31.618 27.2948 31.68 27.2948V27.2938ZM32.242 27.2938C32.2689 27.2933 32.2951 27.3027 32.3155 27.3202C32.336 27.3377 32.3493 27.3621 32.353 27.3888V27.4088C32.353 27.4688 32.303 27.5208 32.243 27.5218C32.2127 27.5218 32.1837 27.5098 32.1624 27.4884C32.141 27.467 32.129 27.438 32.129 27.4078C32.129 27.3448 32.179 27.2938 32.242 27.2948V27.2938ZM32.805 27.2938C32.8198 27.2939 32.8344 27.297 32.848 27.3028C32.8616 27.3086 32.8739 27.317 32.8842 27.3276C32.8946 27.3382 32.9027 27.3508 32.9081 27.3645C32.9136 27.3783 32.9162 27.393 32.916 27.4078C32.916 27.4688 32.866 27.5208 32.805 27.5208C32.7749 27.5208 32.7461 27.5089 32.7247 27.4877C32.7034 27.4666 32.6912 27.4378 32.691 27.4078C32.691 27.3448 32.741 27.2938 32.805 27.2948V27.2938ZM33.367 27.2938C33.3818 27.2939 33.3964 27.297 33.41 27.3028C33.4236 27.3086 33.4359 27.317 33.4462 27.3276C33.4566 27.3382 33.4647 27.3508 33.4701 27.3645C33.4756 27.3783 33.4782 27.393 33.478 27.4078C33.478 27.4688 33.428 27.5208 33.368 27.5208C33.3379 27.5208 33.3091 27.5089 33.2877 27.4877C33.2664 27.4666 33.2542 27.4378 33.254 27.4078C33.254 27.3448 33.304 27.2938 33.367 27.2948V27.2938ZM33.93 27.2938C33.9448 27.2939 33.9594 27.297 33.973 27.3028C33.9866 27.3086 33.9989 27.317 34.0092 27.3276C34.0196 27.3382 34.0277 27.3508 34.0331 27.3645C34.0386 27.3783 34.0412 27.393 34.041 27.4078C34.041 27.4688 33.991 27.5208 33.93 27.5208C33.8999 27.5208 33.8711 27.5089 33.8497 27.4877C33.8284 27.4666 33.8162 27.4378 33.816 27.4078C33.816 27.3448 33.866 27.2938 33.93 27.2948V27.2938ZM34.49 27.2938C34.5049 27.2936 34.5198 27.2965 34.5336 27.3022C34.5474 27.3079 34.56 27.3163 34.5705 27.3269C34.5811 27.3375 34.5894 27.3502 34.5949 27.3641C34.6005 27.378 34.6032 27.3928 34.603 27.4078C34.6027 27.4377 34.5907 27.4663 34.5696 27.4874C34.5484 27.5085 34.5199 27.5205 34.49 27.5208C34.4604 27.52 34.4323 27.5078 34.4116 27.4867C34.3909 27.4656 34.3792 27.4373 34.379 27.4078C34.379 27.3458 34.429 27.2948 34.49 27.2948V27.2938ZM16.283 29.3318C16.4964 29.3264 16.7087 29.3639 16.9074 29.4418C17.1062 29.5198 17.2873 29.6368 17.4401 29.7858C17.5929 29.9349 17.7144 30.113 17.7973 30.3098C17.8802 30.5065 17.923 30.7178 17.923 30.9313C17.923 31.1448 17.8802 31.3561 17.7973 31.5528C17.7144 31.7495 17.5929 31.9276 17.4401 32.0767C17.2873 32.2258 17.1062 32.3427 16.9074 32.4207C16.7087 32.4987 16.4964 32.5361 16.283 32.5308C15.8657 32.5203 15.469 32.3472 15.1775 32.0484C14.8861 31.7496 14.723 31.3487 14.723 30.9313C14.723 30.5139 14.8861 30.113 15.1775 29.8141C15.469 29.5153 15.8657 29.3422 16.283 29.3318ZM20.119 29.3318C20.4357 29.3316 20.7454 29.4253 21.0088 29.6012C21.2722 29.777 21.4776 30.0271 21.5989 30.3196C21.7202 30.6122 21.752 30.9342 21.6903 31.2449C21.6285 31.5555 21.476 31.8409 21.252 32.0649C21.0281 32.2888 20.7427 32.4413 20.4321 32.5031C20.1214 32.5648 19.7994 32.533 19.5068 32.4117C19.2142 32.2904 18.9642 32.0851 18.7884 31.8216C18.6125 31.5582 18.5188 31.2485 18.519 30.9318C18.519 30.5074 18.6875 30.1005 18.9876 29.8004C19.2877 29.5003 19.6946 29.3318 20.119 29.3318ZM23.955 29.3318C24.1684 29.3264 24.3807 29.3639 24.5794 29.4418C24.7782 29.5198 24.9593 29.6368 25.1121 29.7858C25.2649 29.9349 25.3864 30.113 25.4693 30.3098C25.5522 30.5065 25.595 30.7178 25.595 30.9313C25.595 31.1448 25.5522 31.3561 25.4693 31.5528C25.3864 31.7495 25.2649 31.9276 25.1121 32.0767C24.9593 32.2258 24.7782 32.3427 24.5794 32.4207C24.3807 32.4987 24.1684 32.5361 23.955 32.5308C23.5377 32.5203 23.141 32.3472 22.8495 32.0484C22.5581 31.7496 22.395 31.3487 22.395 30.9313C22.395 30.5139 22.5581 30.113 22.8495 29.8141C23.141 29.5153 23.5377 29.3422 23.955 29.3318ZM27.791 29.3318C28.675 29.3318 29.392 30.0478 29.393 30.9318C29.393 31.3564 29.2243 31.7636 28.924 32.0639C28.6238 32.3641 28.2166 32.5328 27.792 32.5328C27.3674 32.5328 26.9601 32.3641 26.6599 32.0639C26.3596 31.7636 26.191 31.3564 26.191 30.9318C26.191 30.5074 26.3595 30.1005 26.6596 29.8004C26.9597 29.5003 27.3666 29.3318 27.791 29.3318ZM31.627 29.3318C31.8404 29.3264 32.0527 29.3639 32.2514 29.4418C32.4502 29.5198 32.6313 29.6368 32.7841 29.7858C32.9369 29.9349 33.0584 30.113 33.1413 30.3098C33.2242 30.5065 33.267 30.7178 33.267 30.9313C33.267 31.1448 33.2242 31.3561 33.1413 31.5528C33.0584 31.7495 32.9369 31.9276 32.7841 32.0767C32.6313 32.2258 32.4502 32.3427 32.2514 32.4207C32.0527 32.4987 31.8404 32.5361 31.627 32.5308C31.2097 32.5203 30.813 32.3472 30.5215 32.0484C30.2301 31.7496 30.067 31.3487 30.067 30.9313C30.067 30.5139 30.2301 30.113 30.5215 29.8141C30.813 29.5153 31.2097 29.3422 31.627 29.3318ZM13.687 33.9238C13.75 33.9238 13.801 33.9738 13.801 34.0368C13.8007 34.0668 13.7886 34.0956 13.7672 34.1167C13.7459 34.1379 13.717 34.1498 13.687 34.1498C13.6576 34.1487 13.6298 34.1364 13.6093 34.1154C13.5888 34.0943 13.5772 34.0662 13.577 34.0368C13.576 33.9748 13.626 33.9238 13.687 33.9238ZM14.25 33.9238C14.2767 33.9232 14.3028 33.9325 14.3232 33.9498C14.3437 33.9671 14.3571 33.9913 14.361 34.0178V34.0378C14.361 34.0978 14.311 34.1498 14.25 34.1498C14.2202 34.1493 14.1917 34.1372 14.1706 34.1161C14.1496 34.095 14.1375 34.0666 14.137 34.0368C14.137 33.9748 14.188 33.9238 14.25 33.9238ZM14.813 33.9238C14.8396 33.9235 14.8654 33.9329 14.8856 33.9501C14.9058 33.9674 14.9191 33.9915 14.923 34.0178V34.0378C14.923 34.0978 14.873 34.1498 14.813 34.1498C14.7829 34.1498 14.7541 34.1379 14.7327 34.1167C14.7114 34.0956 14.6992 34.0668 14.699 34.0368C14.699 33.9738 14.749 33.9228 14.813 33.9238ZM15.375 33.9238C15.3897 33.9239 15.4042 33.9269 15.4178 33.9327C15.4313 33.9384 15.4436 33.9468 15.4539 33.9573C15.4642 33.9678 15.4723 33.9802 15.4778 33.9938C15.4833 34.0075 15.4861 34.0221 15.486 34.0368C15.486 34.0978 15.436 34.1498 15.375 34.1498C15.3451 34.1495 15.3165 34.1375 15.2954 34.1164C15.2742 34.0953 15.2622 34.0667 15.262 34.0368C15.262 33.9738 15.312 33.9228 15.375 33.9238ZM15.938 33.9238C15.9675 33.9243 15.9956 33.9365 16.0162 33.9576C16.0368 33.9788 16.0482 34.0072 16.048 34.0368C16.048 34.0978 15.998 34.1498 15.938 34.1498C15.9079 34.1498 15.8791 34.1379 15.8577 34.1167C15.8364 34.0956 15.8242 34.0668 15.824 34.0368C15.824 33.9738 15.874 33.9228 15.938 33.9238ZM16.5 33.9238C16.5147 33.9239 16.5292 33.9269 16.5428 33.9327C16.5563 33.9384 16.5686 33.9468 16.5789 33.9573C16.5892 33.9678 16.5973 33.9802 16.6028 33.9938C16.6083 34.0075 16.6111 34.0221 16.611 34.0368C16.611 34.0978 16.561 34.1498 16.5 34.1498C16.4701 34.1495 16.4415 34.1375 16.4204 34.1164C16.3992 34.0953 16.3872 34.0667 16.387 34.0368C16.387 33.9738 16.437 33.9228 16.5 33.9238ZM17.06 33.9238C17.0749 33.9235 17.0898 33.9262 17.1037 33.9318C17.1176 33.9374 17.1302 33.9457 17.1408 33.9562C17.1514 33.9667 17.1599 33.9793 17.1655 33.9931C17.1712 34.007 17.1741 34.0218 17.174 34.0368C17.1737 34.0667 17.1617 34.0953 17.1406 34.1164C17.1194 34.1375 17.0909 34.1495 17.061 34.1498C17.0313 34.1493 17.0029 34.1371 16.982 34.116C16.9611 34.0949 16.9492 34.0665 16.949 34.0368C16.949 33.9748 16.999 33.9238 17.06 33.9238ZM17.623 33.9238C17.6378 33.9236 17.6526 33.9265 17.6664 33.9321C17.6801 33.9377 17.6927 33.9461 17.7032 33.9566C17.7137 33.9671 17.722 33.9796 17.7276 33.9934C17.7333 34.0071 17.7361 34.0219 17.736 34.0368C17.7357 34.0667 17.7237 34.0953 17.7026 34.1164C17.6814 34.1375 17.6529 34.1495 17.623 34.1498C17.5934 34.149 17.5653 34.1368 17.5446 34.1157C17.5239 34.0946 17.5122 34.0663 17.512 34.0368C17.512 33.9748 17.562 33.9238 17.623 33.9238ZM18.186 33.9238C18.2008 33.9236 18.2156 33.9265 18.2294 33.9321C18.2431 33.9377 18.2557 33.9461 18.2662 33.9566C18.2767 33.9671 18.285 33.9796 18.2906 33.9934C18.2963 34.0071 18.2991 34.0219 18.299 34.0368C18.2987 34.0667 18.2867 34.0953 18.2656 34.1164C18.2444 34.1375 18.2159 34.1495 18.186 34.1498C18.1563 34.1493 18.1279 34.1371 18.107 34.116C18.0861 34.0949 18.0742 34.0665 18.074 34.0368C18.074 33.9748 18.124 33.9238 18.185 33.9238H18.186ZM18.748 33.9238C18.7747 33.9232 18.8008 33.9325 18.8212 33.9498C18.8417 33.9671 18.8551 33.9913 18.859 34.0178V34.0378C18.859 34.0978 18.809 34.1498 18.748 34.1498C18.7184 34.149 18.6903 34.1368 18.6696 34.1157C18.6489 34.0946 18.6372 34.0663 18.637 34.0368C18.636 33.9748 18.687 33.9238 18.748 33.9238ZM19.311 33.9238C19.3405 33.9243 19.3686 33.9365 19.3892 33.9576C19.4098 33.9788 19.4212 34.0072 19.421 34.0368C19.421 34.0978 19.371 34.1498 19.311 34.1498C19.2809 34.1498 19.2521 34.1379 19.2307 34.1167C19.2094 34.0956 19.1972 34.0668 19.197 34.0368C19.197 33.9738 19.247 33.9228 19.311 33.9238ZM19.873 33.9238C19.8877 33.9239 19.9022 33.9269 19.9158 33.9327C19.9293 33.9384 19.9416 33.9468 19.9519 33.9573C19.9622 33.9678 19.9703 33.9802 19.9758 33.9938C19.9813 34.0075 19.9841 34.0221 19.984 34.0368C19.984 34.0978 19.934 34.1498 19.873 34.1498C19.8431 34.1495 19.8145 34.1375 19.7934 34.1164C19.7722 34.0953 19.7602 34.0667 19.76 34.0368C19.76 33.9738 19.81 33.9228 19.873 33.9238ZM20.436 33.9238C20.4655 33.9243 20.4936 33.9365 20.5142 33.9576C20.5348 33.9788 20.5462 34.0072 20.546 34.0368C20.546 34.0978 20.496 34.1498 20.436 34.1498C20.4059 34.1498 20.3771 34.1379 20.3557 34.1167C20.3344 34.0956 20.3222 34.0668 20.322 34.0368C20.322 33.9738 20.372 33.9228 20.436 33.9238ZM20.998 33.9238C21.0127 33.9239 21.0272 33.9269 21.0408 33.9327C21.0543 33.9384 21.0666 33.9468 21.0769 33.9573C21.0872 33.9678 21.0953 33.9802 21.1008 33.9938C21.1063 34.0075 21.1091 34.0221 21.109 34.0368C21.109 34.0978 21.059 34.1498 20.998 34.1498C20.9681 34.1495 20.9395 34.1375 20.9184 34.1164C20.8972 34.0953 20.8852 34.0667 20.885 34.0368C20.885 33.9738 20.935 33.9228 20.998 33.9238ZM21.558 33.9238C21.5729 33.9235 21.5878 33.9262 21.6017 33.9318C21.6156 33.9374 21.6282 33.9457 21.6388 33.9562C21.6494 33.9667 21.6579 33.9793 21.6635 33.9931C21.6692 34.007 21.6721 34.0218 21.672 34.0368C21.6717 34.0667 21.6597 34.0953 21.6386 34.1164C21.6174 34.1375 21.5889 34.1495 21.559 34.1498C21.5293 34.1493 21.5009 34.1371 21.48 34.116C21.4591 34.0949 21.4472 34.0665 21.447 34.0368C21.447 33.9748 21.497 33.9238 21.559 33.9238H21.558ZM22.121 33.9238C22.1358 33.9236 22.1506 33.9265 22.1644 33.9321C22.1781 33.9377 22.1906 33.9461 22.2012 33.9566C22.2117 33.9671 22.22 33.9796 22.2256 33.9934C22.2313 34.0071 22.2341 34.0219 22.234 34.0368C22.2337 34.0667 22.2217 34.0953 22.2006 34.1164C22.1794 34.1375 22.1509 34.1495 22.121 34.1498C22.0914 34.149 22.0633 34.1368 22.0426 34.1157C22.0219 34.0946 22.0102 34.0663 22.01 34.0368C22.01 33.9748 22.06 33.9238 22.121 33.9238ZM22.684 33.9238C22.746 33.9238 22.797 33.9738 22.797 34.0368C22.7967 34.0667 22.7847 34.0953 22.7636 34.1164C22.7424 34.1375 22.7139 34.1495 22.684 34.1498C22.6543 34.1493 22.6259 34.1371 22.605 34.116C22.5841 34.0949 22.5722 34.0665 22.572 34.0368C22.572 33.9748 22.622 33.9238 22.684 33.9238ZM23.246 33.9238C23.301 33.9238 23.35 33.9638 23.357 34.0178V34.0378C23.357 34.0978 23.307 34.1498 23.247 34.1498C23.2173 34.1493 23.1889 34.1371 23.168 34.116C23.1471 34.0949 23.1352 34.0665 23.135 34.0368C23.135 33.9748 23.185 33.9238 23.246 33.9238ZM23.809 33.9238C23.8356 33.9235 23.8614 33.9329 23.8816 33.9501C23.9018 33.9674 23.9151 33.9915 23.919 34.0178C23.921 34.0248 23.921 34.0288 23.919 34.0378C23.919 34.0978 23.869 34.1498 23.809 34.1498C23.7789 34.1498 23.7501 34.1379 23.7287 34.1167C23.7074 34.0956 23.6952 34.0668 23.695 34.0368C23.695 33.9738 23.745 33.9228 23.809 33.9238ZM24.371 33.9238C24.3857 33.9239 24.4002 33.9269 24.4138 33.9327C24.4273 33.9384 24.4396 33.9468 24.4499 33.9573C24.4602 33.9678 24.4683 33.9802 24.4738 33.9938C24.4793 34.0075 24.4821 34.0221 24.482 34.0368C24.482 34.0978 24.432 34.1498 24.372 34.1498C24.3419 34.1498 24.3131 34.1379 24.2917 34.1167C24.2704 34.0956 24.2582 34.0668 24.258 34.0368C24.258 33.9738 24.308 33.9228 24.371 33.9238ZM24.934 33.9238C24.9635 33.9243 24.9916 33.9365 25.0122 33.9576C25.0328 33.9788 25.0442 34.0072 25.044 34.0368C25.044 34.0978 24.994 34.1498 24.934 34.1498C24.9039 34.1498 24.8751 34.1379 24.8537 34.1167C24.8324 34.0956 24.8202 34.0668 24.82 34.0368C24.82 33.9738 24.87 33.9228 24.934 33.9238ZM25.494 33.9238C25.5088 33.9236 25.5236 33.9265 25.5374 33.9321C25.5511 33.9377 25.5636 33.9461 25.5742 33.9566C25.5847 33.9671 25.593 33.9796 25.5986 33.9934C25.6043 34.0071 25.6071 34.0219 25.607 34.0368C25.6067 34.0667 25.5947 34.0953 25.5736 34.1164C25.5524 34.1375 25.5239 34.1495 25.494 34.1498C25.4644 34.149 25.4363 34.1368 25.4156 34.1157C25.3949 34.0946 25.3832 34.0663 25.383 34.0368C25.383 33.9748 25.433 33.9238 25.494 33.9238ZM26.057 33.9238C26.0718 33.9236 26.0866 33.9265 26.1004 33.9321C26.1141 33.9377 26.1266 33.9461 26.1372 33.9566C26.1477 33.9671 26.156 33.9796 26.1616 33.9934C26.1673 34.0071 26.1701 34.0219 26.17 34.0368C26.1697 34.0667 26.1577 34.0953 26.1366 34.1164C26.1154 34.1375 26.0869 34.1495 26.057 34.1498C26.0273 34.1493 25.9989 34.1371 25.978 34.116C25.9571 34.0949 25.9452 34.0665 25.945 34.0368C25.945 33.9748 25.995 33.9238 26.057 33.9238ZM26.619 33.9238C26.6338 33.9236 26.6486 33.9265 26.6624 33.9321C26.6761 33.9377 26.6886 33.9461 26.6992 33.9566C26.7097 33.9671 26.718 33.9796 26.7236 33.9934C26.7293 34.0071 26.7321 34.0219 26.732 34.0368C26.7317 34.0667 26.7197 34.0953 26.6986 34.1164C26.6774 34.1375 26.6489 34.1495 26.619 34.1498C26.5894 34.149 26.5613 34.1368 26.5406 34.1157C26.5199 34.0946 26.5082 34.0663 26.508 34.0368C26.508 33.9748 26.558 33.9238 26.619 33.9238ZM27.182 33.9238C27.244 33.9238 27.296 33.9738 27.295 34.0368C27.2947 34.0667 27.2827 34.0953 27.2616 34.1164C27.2404 34.1375 27.2119 34.1495 27.182 34.1498C27.1523 34.1493 27.1239 34.1371 27.103 34.116C27.0821 34.0949 27.0702 34.0665 27.07 34.0368C27.07 33.9748 27.12 33.9238 27.182 33.9238ZM27.744 33.9238C27.7707 33.9232 27.7968 33.9325 27.8172 33.9498C27.8377 33.9671 27.8511 33.9913 27.855 34.0178V34.0378C27.855 34.0978 27.805 34.1498 27.745 34.1498C27.7153 34.1493 27.6869 34.1371 27.666 34.116C27.6451 34.0949 27.6332 34.0665 27.633 34.0368C27.633 33.9748 27.683 33.9238 27.744 33.9238ZM28.307 33.9238C28.366 33.9238 28.414 33.9698 28.418 34.0288V34.0368C28.418 34.0978 28.368 34.1498 28.307 34.1498C28.2769 34.1498 28.2481 34.1379 28.2267 34.1167C28.2054 34.0956 28.1932 34.0668 28.193 34.0368C28.193 33.9738 28.243 33.9228 28.307 33.9238ZM28.869 33.9238C28.929 33.9238 28.977 33.9698 28.98 34.0288V34.0368C28.98 34.0978 28.93 34.1498 28.87 34.1498C28.8399 34.1498 28.8111 34.1379 28.7897 34.1167C28.7684 34.0956 28.7562 34.0668 28.756 34.0368C28.756 33.9738 28.806 33.9228 28.869 33.9238ZM29.432 33.9238C29.4467 33.9239 29.4612 33.9269 29.4748 33.9327C29.4883 33.9384 29.5006 33.9468 29.5109 33.9573C29.5212 33.9678 29.5293 33.9802 29.5348 33.9938C29.5403 34.0075 29.5431 34.0221 29.543 34.0368C29.543 34.0978 29.493 34.1498 29.432 34.1498C29.4019 34.1498 29.3731 34.1379 29.3517 34.1167C29.3304 34.0956 29.3182 34.0668 29.318 34.0368C29.318 33.9738 29.368 33.9228 29.432 33.9238ZM29.992 33.9238C30.0068 33.9236 30.0216 33.9265 30.0354 33.9321C30.0491 33.9377 30.0617 33.9461 30.0722 33.9566C30.0827 33.9671 30.091 33.9796 30.0966 33.9934C30.1023 34.0071 30.1051 34.0219 30.105 34.0368C30.1047 34.0667 30.0927 34.0953 30.0716 34.1164C30.0504 34.1375 30.0219 34.1495 29.992 34.1498C29.9624 34.149 29.9343 34.1368 29.9136 34.1157C29.8929 34.0946 29.8812 34.0663 29.881 34.0368C29.881 33.9748 29.931 33.9238 29.992 33.9238ZM30.555 33.9238C30.615 33.9238 30.665 33.9698 30.668 34.0288V34.0368C30.6677 34.0667 30.6557 34.0953 30.6346 34.1164C30.6134 34.1375 30.5849 34.1495 30.555 34.1498C30.5253 34.1493 30.4969 34.1371 30.476 34.116C30.4551 34.0949 30.4432 34.0665 30.443 34.0368C30.443 33.9748 30.493 33.9238 30.555 33.9238ZM31.117 33.9238C31.177 33.9238 31.227 33.9698 31.23 34.0288V34.0368C31.2297 34.0667 31.2177 34.0953 31.1966 34.1164C31.1754 34.1375 31.1469 34.1495 31.117 34.1498C31.0874 34.149 31.0593 34.1368 31.0386 34.1157C31.0179 34.0946 31.0062 34.0663 31.006 34.0368C31.006 33.9748 31.056 33.9238 31.117 33.9238ZM31.68 33.9238C31.7067 33.9232 31.7328 33.9325 31.7532 33.9498C31.7737 33.9671 31.7871 33.9913 31.791 34.0178V34.0378C31.791 34.0978 31.741 34.1498 31.68 34.1498C31.6503 34.1493 31.6219 34.1371 31.601 34.116C31.5801 34.0949 31.5682 34.0665 31.568 34.0368C31.568 33.9748 31.618 33.9238 31.68 33.9238ZM32.242 33.9238C32.2687 33.9232 32.2948 33.9325 32.3152 33.9498C32.3357 33.9671 32.3491 33.9913 32.353 34.0178V34.0378C32.353 34.0978 32.303 34.1498 32.243 34.1498C32.2129 34.1498 32.1841 34.1379 32.1627 34.1167C32.1414 34.0956 32.1292 34.0668 32.129 34.0368C32.129 33.9738 32.179 33.9228 32.242 33.9238ZM32.805 33.9238C32.8197 33.9239 32.8342 33.9269 32.8478 33.9327C32.8613 33.9384 32.8736 33.9468 32.8839 33.9573C32.8942 33.9678 32.9023 33.9802 32.9078 33.9938C32.9133 34.0075 32.9161 34.0221 32.916 34.0368C32.916 34.0978 32.866 34.1498 32.805 34.1498C32.7749 34.1498 32.7461 34.1379 32.7247 34.1167C32.7034 34.0956 32.6912 34.0668 32.691 34.0368C32.691 33.9738 32.741 33.9228 32.805 33.9238ZM33.367 33.9238C33.3817 33.9239 33.3962 33.9269 33.4098 33.9327C33.4233 33.9384 33.4356 33.9468 33.4459 33.9573C33.4562 33.9678 33.4643 33.9802 33.4698 33.9938C33.4753 34.0075 33.4781 34.0221 33.478 34.0368C33.478 34.0978 33.428 34.1498 33.368 34.1498C33.3379 34.1498 33.3091 34.1379 33.2877 34.1167C33.2664 34.0956 33.2542 34.0668 33.254 34.0368C33.254 33.9738 33.304 33.9228 33.367 33.9238ZM33.93 33.9238C33.9447 33.9239 33.9592 33.9269 33.9728 33.9327C33.9863 33.9384 33.9986 33.9468 34.0089 33.9573C34.0192 33.9678 34.0273 33.9802 34.0328 33.9938C34.0383 34.0075 34.0411 34.0221 34.041 34.0368C34.041 34.0978 33.991 34.1498 33.93 34.1498C33.8999 34.1498 33.8711 34.1379 33.8497 34.1167C33.8284 34.0956 33.8162 34.0668 33.816 34.0368C33.816 33.9738 33.866 33.9228 33.93 33.9238ZM34.49 33.9238C34.5048 33.9236 34.5196 33.9265 34.5334 33.9321C34.5471 33.9377 34.5597 33.9461 34.5702 33.9566C34.5807 33.9671 34.589 33.9796 34.5946 33.9934C34.6003 34.0071 34.6031 34.0219 34.603 34.0368C34.6027 34.0667 34.5907 34.0953 34.5696 34.1164C34.5484 34.1375 34.5199 34.1495 34.49 34.1498C34.4604 34.149 34.4323 34.1368 34.4116 34.1157C34.3909 34.0946 34.3792 34.0663 34.379 34.0368C34.379 33.9748 34.429 33.9238 34.49 33.9238ZM16.283 36.6678C16.4964 36.6624 16.7087 36.6999 16.9074 36.7778C17.1062 36.8558 17.2873 36.9728 17.4401 37.1218C17.5929 37.2709 17.7144 37.449 17.7973 37.6458C17.8802 37.8425 17.923 38.0538 17.923 38.2673C17.923 38.4808 17.8802 38.6921 17.7973 38.8888C17.7144 39.0855 17.5929 39.2636 17.4401 39.4127C17.2873 39.5618 17.1062 39.6787 16.9074 39.7567C16.7087 39.8347 16.4964 39.8721 16.283 39.8668C15.8657 39.8563 15.469 39.6832 15.1775 39.3844C14.8861 39.0856 14.723 38.6847 14.723 38.2673C14.723 37.8499 14.8861 37.449 15.1775 37.1501C15.469 36.8513 15.8657 36.6782 16.283 36.6678ZM20.119 36.6678C20.4357 36.6676 20.7454 36.7613 21.0088 36.9372C21.2722 37.113 21.4776 37.3631 21.5989 37.6556C21.7202 37.9482 21.752 38.2702 21.6903 38.5809C21.6285 38.8915 21.476 39.1769 21.252 39.4009C21.0281 39.6248 20.7427 39.7773 20.4321 39.8391C20.1214 39.9008 19.7994 39.869 19.5068 39.7477C19.2142 39.6264 18.9642 39.4211 18.7884 39.1576C18.6125 38.8942 18.5188 38.5845 18.519 38.2678C18.519 37.8434 18.6875 37.4365 18.9876 37.1364C19.2877 36.8363 19.6946 36.6678 20.119 36.6678ZM23.955 36.6678C24.1684 36.6624 24.3807 36.6999 24.5794 36.7778C24.7782 36.8558 24.9593 36.9728 25.1121 37.1218C25.2649 37.2709 25.3864 37.449 25.4693 37.6458C25.5522 37.8425 25.595 38.0538 25.595 38.2673C25.595 38.4808 25.5522 38.6921 25.4693 38.8888C25.3864 39.0855 25.2649 39.2636 25.1121 39.4127C24.9593 39.5618 24.7782 39.6787 24.5794 39.7567C24.3807 39.8347 24.1684 39.8721 23.955 39.8668C23.5377 39.8563 23.141 39.6832 22.8495 39.3844C22.5581 39.0856 22.395 38.6847 22.395 38.2673C22.395 37.8499 22.5581 37.449 22.8495 37.1501C23.141 36.8513 23.5377 36.6782 23.955 36.6678ZM27.791 36.6678C28.675 36.6678 29.392 37.3838 29.393 38.2678C29.393 38.6924 29.2243 39.0996 28.924 39.3999C28.6238 39.7001 28.2166 39.8688 27.792 39.8688C27.3674 39.8688 26.9601 39.7001 26.6599 39.3999C26.3596 39.0996 26.191 38.6924 26.191 38.2678C26.191 37.8434 26.3595 37.4365 26.6596 37.1364C26.9597 36.8363 27.3666 36.6678 27.791 36.6678ZM31.627 36.6678C31.8404 36.6624 32.0527 36.6999 32.2514 36.7778C32.4502 36.8558 32.6313 36.9728 32.7841 37.1218C32.9369 37.2709 33.0584 37.449 33.1413 37.6458C33.2242 37.8425 33.267 38.0538 33.267 38.2673C33.267 38.4808 33.2242 38.6921 33.1413 38.8888C33.0584 39.0855 32.9369 39.2636 32.7841 39.4127C32.6313 39.5618 32.4502 39.6787 32.2514 39.7567C32.0527 39.8347 31.8404 39.8721 31.627 39.8668C31.2097 39.8563 30.813 39.6832 30.5215 39.3844C30.2301 39.0856 30.067 38.6847 30.067 38.2673C30.067 37.8499 30.2301 37.449 30.5215 37.1501C30.813 36.8513 31.2097 36.6782 31.627 36.6678Z" fill="#333333"/>
</svg>
