<svg width="48" height="48" viewBox="0 0 48 48" fill="none" xmlns="http://www.w3.org/2000/svg">
<path d="M14.3457 4.09375C13.4763 4.09375 12.7773 4.79267 12.7773 5.66211V42.5234C12.7773 43.3929 13.4763 44.0937 14.3457 44.0937H34.0508C34.9202 44.0937 35.6191 43.3929 35.6191 42.5234V5.66211C35.6191 4.79267 34.9202 4.09375 34.0508 4.09375H14.3457ZM14.7773 4.59375H33.6172C34.4485 4.59375 35.1191 5.27733 35.1191 6.125V42.0644C35.1191 42.9122 34.4485 43.5937 33.6172 43.5937H14.7773C13.946 43.5937 13.2773 42.9122 13.2773 42.0644V6.125C13.2773 5.27733 13.946 4.59375 14.7773 4.59375ZM21.0586 12.4297C20.175 12.4297 19.459 13.1457 19.459 14.0293C19.459 14.9129 20.175 15.6289 21.0586 15.6289C21.9422 15.6289 22.6562 14.9129 22.6562 14.0293C22.6562 13.1457 21.9422 12.4297 21.0586 12.4297ZM27.3398 12.4297C26.4562 12.4297 25.7403 13.1457 25.7402 14.0293C25.7403 14.9129 26.4562 15.6289 27.3398 15.6289C28.2235 15.6289 28.9375 14.9129 28.9375 14.0293C28.9375 13.1457 28.2235 12.4297 27.3398 12.4297ZM21.0586 12.8887C21.6872 12.889 22.1939 13.4008 22.1934 14.0293C22.1929 14.6572 21.6865 15.1637 21.0586 15.1641C20.43 15.1647 19.9203 14.6579 19.9199 14.0293C19.9194 13.4 20.4293 12.8881 21.0586 12.8887ZM27.3398 12.8887C27.9685 12.889 28.4752 13.4008 28.4746 14.0293C28.4742 14.6572 27.9677 15.1637 27.3398 15.1641C26.7113 15.1647 26.1996 14.6579 26.1992 14.0293C26.1987 13.4 26.7106 12.8881 27.3398 12.8887ZM13.7949 23.9824C13.7329 23.9829 13.6832 24.0333 13.6836 24.0957C13.6841 24.1569 13.7333 24.2063 13.7949 24.207C13.8569 24.2076 13.9074 24.1581 13.9082 24.0957C13.9088 24.033 13.8577 23.982 13.7949 23.9824ZM14.3574 23.9824C14.2954 23.9829 14.2438 24.0333 14.2441 24.0957C14.2446 24.1569 14.2958 24.2067 14.3574 24.207C14.4187 24.2066 14.468 24.1569 14.4687 24.0957C14.4693 24.0881 14.4693 24.0837 14.4687 24.0762C14.4611 24.0217 14.4126 23.982 14.3574 23.9824ZM14.9199 23.9824C14.8572 23.9818 14.8063 24.033 14.8066 24.0957C14.8071 24.1577 14.8579 24.2078 14.9199 24.207C14.9812 24.2066 15.0305 24.1569 15.0312 24.0957C15.0318 24.0881 15.0318 24.0837 15.0312 24.0762C15.0236 24.0217 14.9751 23.982 14.9199 23.9824ZM15.4824 23.9824C15.4197 23.9818 15.3688 24.033 15.3691 24.0957C15.3696 24.1577 15.4204 24.2078 15.4824 24.207C15.5437 24.2066 15.593 24.1569 15.5937 24.0957C15.5938 24.0931 15.5938 24.0917 15.5937 24.0879C15.5901 24.0289 15.5418 23.9828 15.4824 23.9824ZM16.0449 23.9824C15.9822 23.9818 15.9313 24.033 15.9316 24.0957C15.9321 24.1577 15.9829 24.2078 16.0449 24.207C16.1062 24.2066 16.1555 24.1569 16.1562 24.0957C16.1563 24.0931 16.1563 24.0917 16.1562 24.0879C16.1526 24.0289 16.1043 23.9828 16.0449 23.9824ZM16.6074 23.9824C16.5447 23.9818 16.4938 24.033 16.4941 24.0957C16.4946 24.1577 16.5454 24.2078 16.6074 24.207C16.6687 24.2066 16.718 24.1569 16.7187 24.0957C16.7188 24.0931 16.7188 24.0917 16.7187 24.0879C16.7151 24.0289 16.6668 23.9828 16.6074 23.9824ZM17.168 23.9824C17.106 23.9829 17.0563 24.0333 17.0566 24.0957C17.0571 24.1569 17.1064 24.2067 17.168 24.207C17.2299 24.2076 17.2805 24.1577 17.2812 24.0957C17.2814 24.0931 17.2814 24.0917 17.2812 24.0879C17.2776 24.0282 17.2281 23.9817 17.168 23.9824ZM17.7305 23.9824C17.6685 23.9829 17.6188 24.0333 17.6191 24.0957C17.6196 24.1569 17.6689 24.2067 17.7305 24.207C17.7924 24.2076 17.843 24.1577 17.8437 24.0957C17.8439 24.0931 17.8439 24.0917 17.8437 24.0879C17.8401 24.0282 17.7906 23.9817 17.7305 23.9824ZM18.293 23.9824C18.231 23.9829 18.1813 24.0333 18.1816 24.0957C18.1821 24.1569 18.2314 24.2067 18.293 24.207C18.3549 24.2076 18.4055 24.1577 18.4062 24.0957C18.4063 24.0931 18.4063 24.0917 18.4062 24.0879C18.4026 24.0282 18.3531 23.9817 18.293 23.9824ZM18.8555 23.9824C18.7935 23.9829 18.7434 24.0333 18.7441 24.0957C18.7446 24.1569 18.7942 24.2067 18.8555 24.207C18.9167 24.2066 18.966 24.1569 18.9668 24.0957C18.9674 24.0881 18.9674 24.0837 18.9668 24.0762C18.9592 24.0217 18.9106 23.982 18.8555 23.9824ZM19.418 23.9824C19.3552 23.9818 19.3043 24.033 19.3047 24.0957C19.3052 24.1577 19.356 24.2078 19.418 24.207C19.4792 24.2066 19.5285 24.1569 19.5293 24.0957C19.5294 24.0931 19.5294 24.0917 19.5293 24.0879C19.5257 24.0289 19.4773 23.9828 19.418 23.9824ZM19.9805 23.9824C19.9177 23.9818 19.8668 24.033 19.8672 24.0957C19.8677 24.1577 19.9185 24.2078 19.9805 24.207C20.0417 24.2066 20.091 24.1569 20.0918 24.0957C20.0919 24.0931 20.0919 24.0917 20.0918 24.0879C20.0882 24.0289 20.0398 23.9828 19.9805 23.9824ZM20.543 23.9824C20.4802 23.9818 20.4293 24.033 20.4297 24.0957C20.4302 24.1577 20.481 24.2078 20.543 24.207C20.6042 24.2066 20.6535 24.1569 20.6543 24.0957C20.6544 24.0931 20.6544 24.0917 20.6543 24.0879C20.6507 24.0289 20.6023 23.9828 20.543 23.9824ZM21.1055 23.9824C21.0427 23.9818 20.9918 24.033 20.9922 24.0957C20.9927 24.1577 21.0435 24.2078 21.1055 24.207C21.1667 24.2066 21.216 24.1569 21.2168 24.0957C21.2169 24.0931 21.2169 24.0917 21.2168 24.0879C21.2132 24.0289 21.1648 23.9828 21.1055 23.9824ZM21.666 23.9824C21.604 23.9829 21.5543 24.0333 21.5547 24.0957C21.5552 24.1569 21.6044 24.2067 21.666 24.207C21.728 24.2076 21.7785 24.1577 21.7793 24.0957C21.7794 24.0931 21.7794 24.0917 21.7793 24.0879C21.7757 24.0282 21.7261 23.9817 21.666 23.9824ZM22.2285 23.9824C22.1665 23.9829 22.1168 24.0333 22.1172 24.0957C22.1177 24.1569 22.1669 24.2067 22.2285 24.207C22.2905 24.2076 22.341 24.1577 22.3418 24.0957C22.3419 24.0931 22.3419 24.0917 22.3418 24.0879C22.3382 24.0282 22.2886 23.9817 22.2285 23.9824ZM22.791 23.9824C22.729 23.9829 22.6793 24.0333 22.6797 24.0957C22.6802 24.1569 22.7294 24.2063 22.791 24.207C22.853 24.2076 22.9035 24.1581 22.9043 24.0957C22.9049 24.033 22.8538 23.982 22.791 23.9824ZM23.3535 23.9824C23.2915 23.9829 23.2418 24.0333 23.2422 24.0957C23.2427 24.1569 23.2919 24.2067 23.3535 24.207C23.4147 24.2066 23.4645 24.1569 23.4648 24.0957C23.4654 24.0881 23.4654 24.0837 23.4648 24.0762C23.4572 24.0217 23.4083 23.982 23.3535 23.9824ZM23.916 23.9824C23.8533 23.9818 23.8024 24.033 23.8027 24.0957C23.8032 24.1577 23.854 24.2078 23.916 24.207C23.9772 24.2066 24.0266 24.1569 24.0273 24.0957C24.0279 24.0881 24.0279 24.0837 24.0273 24.0762C24.0197 24.0217 23.9712 23.982 23.916 23.9824ZM24.4785 23.9824C24.4158 23.9818 24.3649 24.033 24.3652 24.0957C24.3657 24.1577 24.4165 24.2078 24.4785 24.207C24.5397 24.2066 24.5891 24.1569 24.5898 24.0957C24.5899 24.0931 24.5899 24.0917 24.5898 24.0879C24.5862 24.0289 24.5379 23.9828 24.4785 23.9824ZM25.041 23.9824C24.9783 23.9818 24.9274 24.033 24.9277 24.0957C24.9282 24.1577 24.979 24.2078 25.041 24.207C25.1022 24.2066 25.1516 24.1569 25.1523 24.0957C25.1525 24.0931 25.1525 24.0917 25.1523 24.0879C25.1487 24.0289 25.1004 23.9828 25.041 23.9824ZM25.6016 23.9824C25.5396 23.9829 25.4895 24.0333 25.4902 24.0957C25.4907 24.1569 25.5403 24.2067 25.6016 24.207C25.6635 24.2076 25.7141 24.1577 25.7148 24.0957C25.715 24.0931 25.715 24.0917 25.7148 24.0879C25.7112 24.0282 25.6617 23.9817 25.6016 23.9824ZM26.1641 23.9824C26.1021 23.9829 26.0524 24.0333 26.0527 24.0957C26.0532 24.1569 26.1025 24.2067 26.1641 24.207C26.226 24.2076 26.2766 24.1577 26.2773 24.0957C26.2774 24.0931 26.2774 24.0917 26.2773 24.0879C26.2737 24.0282 26.2242 23.9817 26.1641 23.9824ZM26.7266 23.9824C26.6646 23.9829 26.6149 24.0333 26.6152 24.0957C26.6157 24.1569 26.665 24.2067 26.7266 24.207C26.7885 24.2076 26.8391 24.1577 26.8398 24.0957C26.8399 24.0931 26.8399 24.0917 26.8398 24.0879C26.8362 24.0282 26.7867 23.9817 26.7266 23.9824ZM27.2891 23.9824C27.2271 23.9829 27.1774 24.0333 27.1777 24.0957C27.1782 24.1569 27.2275 24.2063 27.2891 24.207C27.351 24.2076 27.4016 24.1581 27.4023 24.0957C27.4029 24.033 27.3518 23.982 27.2891 23.9824ZM27.8516 23.9824C27.7896 23.9829 27.7395 24.0333 27.7402 24.0957C27.7407 24.1569 27.7903 24.2067 27.8516 24.207C27.9128 24.2066 27.9621 24.1569 27.9629 24.0957C27.9635 24.0881 27.9635 24.0837 27.9629 24.0762C27.9553 24.0217 27.9067 23.982 27.8516 23.9824ZM28.4141 23.9824C28.3513 23.9818 28.3004 24.033 28.3008 24.0957C28.3013 24.1577 28.3521 24.2078 28.4141 24.207C28.4753 24.2066 28.5246 24.1569 28.5254 24.0957C28.5255 24.0931 28.5255 24.0917 28.5254 24.0879C28.5218 24.0289 28.4734 23.9828 28.4141 23.9824ZM28.9766 23.9824C28.9138 23.9818 28.8629 24.033 28.8633 24.0957C28.8638 24.1577 28.9146 24.2078 28.9766 24.207C29.0378 24.2066 29.0871 24.1569 29.0879 24.0957C29.088 24.0931 29.088 24.0917 29.0879 24.0879C29.0843 24.0289 29.0359 23.9828 28.9766 23.9824ZM29.5391 23.9824C29.4763 23.9818 29.4254 24.033 29.4258 24.0957C29.4263 24.1577 29.4771 24.2078 29.5391 24.207C29.6003 24.2066 29.6496 24.1569 29.6504 24.0957C29.6505 24.0931 29.6505 24.0917 29.6504 24.0879C29.6468 24.0289 29.5984 23.9828 29.5391 23.9824ZM30.0996 23.9824C30.0376 23.9829 29.9879 24.0333 29.9883 24.0957C29.9888 24.1569 30.038 24.2067 30.0996 24.207C30.1616 24.2076 30.2121 24.1577 30.2129 24.0957C30.213 24.0931 30.213 24.0917 30.2129 24.0879C30.2093 24.0282 30.1597 23.9817 30.0996 23.9824ZM30.6621 23.9824C30.6001 23.9829 30.5504 24.0333 30.5508 24.0957C30.5513 24.1569 30.6005 24.2067 30.6621 24.207C30.7241 24.2076 30.7746 24.1577 30.7754 24.0957C30.7755 24.0931 30.7755 24.0917 30.7754 24.0879C30.7718 24.0282 30.7222 23.9817 30.6621 23.9824ZM31.2246 23.9824C31.1626 23.9829 31.1129 24.0333 31.1133 24.0957C31.1138 24.1569 31.163 24.2067 31.2246 24.207C31.2866 24.2076 31.3371 24.1577 31.3379 24.0957C31.338 24.0931 31.338 24.0917 31.3379 24.0879C31.3343 24.0282 31.2847 23.9817 31.2246 23.9824ZM31.7871 23.9824C31.7251 23.9829 31.675 24.0333 31.6758 24.0957C31.6763 24.1569 31.7259 24.2067 31.7871 24.207C31.8483 24.2066 31.8977 24.1569 31.8984 24.0957C31.899 24.0881 31.899 24.0837 31.8984 24.0762C31.8908 24.0217 31.8423 23.982 31.7871 23.9824ZM32.3496 23.9824C32.2869 23.9818 32.2359 24.033 32.2363 24.0957C32.2368 24.1577 32.2876 24.2078 32.3496 24.207C32.4108 24.2066 32.4602 24.1569 32.4609 24.0957C32.4615 24.0881 32.4615 24.0837 32.4609 24.0762C32.4533 24.0217 32.4048 23.982 32.3496 23.9824ZM32.9121 23.9824C32.8494 23.9818 32.7984 24.033 32.7988 24.0957C32.7993 24.1577 32.8501 24.2078 32.9121 24.207C32.9733 24.2066 33.0227 24.1569 33.0234 24.0957C33.0235 24.0931 33.0235 24.0917 33.0234 24.0879C33.0198 24.0289 32.9714 23.9828 32.9121 23.9824ZM33.4746 23.9824C33.4119 23.9818 33.3609 24.033 33.3613 24.0957C33.3618 24.1577 33.4126 24.2078 33.4746 24.207C33.5358 24.2066 33.5856 24.1569 33.5859 24.0957C33.586 24.0931 33.586 24.0917 33.5859 24.0879C33.5823 24.0289 33.5336 23.9828 33.4746 23.9824ZM34.0371 23.9824C33.9744 23.9818 33.9234 24.033 33.9238 24.0957C33.9243 24.1577 33.9751 24.2078 34.0371 24.207C34.0983 24.2066 34.1481 24.1569 34.1484 24.0957C34.1485 24.0931 34.1485 24.0917 34.1484 24.0879C34.1448 24.0289 34.0961 23.9828 34.0371 23.9824ZM34.5977 23.9824C34.5357 23.9829 34.4859 24.0333 34.4863 24.0957C34.4868 24.1569 34.536 24.2067 34.5977 24.207C34.6596 24.2076 34.7102 24.1577 34.7109 24.0957C34.711 24.0931 34.711 24.0917 34.7109 24.0879C34.7073 24.0282 34.6577 23.9817 34.5977 23.9824ZM21.0586 32.5586C20.175 32.5586 19.459 33.2746 19.459 34.1582C19.459 35.0419 20.175 35.7578 21.0586 35.7578C21.9422 35.7578 22.6562 35.0419 22.6562 34.1582C22.6562 33.2746 21.9422 32.5586 21.0586 32.5586ZM27.3398 32.5586C26.4562 32.5586 25.7403 33.2746 25.7402 34.1582C25.7403 35.0419 26.4562 35.7578 27.3398 35.7578C28.2235 35.7578 28.9375 35.0419 28.9375 34.1582C28.9375 33.2746 28.2235 32.5586 27.3398 32.5586ZM21.0586 33.0195C21.6872 33.0199 22.1939 33.5297 22.1934 34.1582C22.1929 34.7861 21.6865 35.2945 21.0586 35.2949C20.43 35.2955 19.9203 34.7868 19.9199 34.1582C19.9194 33.5289 20.4293 33.0189 21.0586 33.0195ZM27.3398 33.0195C27.9685 33.0199 28.4752 33.5297 28.4746 34.1582C28.4742 34.7861 27.9677 35.2945 27.3398 35.2949C26.7113 35.2955 26.1996 34.7868 26.1992 34.1582C26.1987 33.5289 26.7106 33.0189 27.3398 33.0195Z" fill="#333333"/>
</svg>
