<svg width="48" height="48" viewBox="0 0 48 48" fill="none" xmlns="http://www.w3.org/2000/svg">
<path d="M14.3457 4.09375C13.4763 4.09375 12.7773 4.79267 12.7773 5.66211V42.5234C12.7773 43.3929 13.4763 44.0937 14.3457 44.0937H34.0508C34.9202 44.0937 35.6191 43.3929 35.6191 42.5234V5.66211C35.6191 4.79267 34.9202 4.09375 34.0508 4.09375H14.3457ZM14.7754 4.59375H33.6152C34.4465 4.59375 35.1172 5.27733 35.1172 6.125V42.0644C35.1172 42.9122 34.4465 43.5937 33.6152 43.5937H14.7754C13.9441 43.5937 13.2754 42.9122 13.2754 42.0644V6.125C13.2754 5.27733 13.9441 4.59375 14.7754 4.59375ZM19.6973 12.1602V12.1621C19.4551 12.1654 19.2143 12.2629 19.0312 12.4512L17.2227 14.3086C16.8565 14.6847 16.8638 15.2823 17.2402 15.6484C17.6165 16.0147 18.214 16.0069 18.5801 15.6289L20.3887 13.7695C20.7548 13.3931 20.7475 12.7958 20.3711 12.4297C20.1829 12.2468 19.9395 12.1568 19.6973 12.1602ZM25.0898 12.1602V12.1621C24.8477 12.1654 24.6069 12.2629 24.4238 12.4512L22.6152 14.3086C22.2491 14.6847 22.2564 15.2823 22.6328 15.6484C23.0091 16.0147 23.6065 16.0069 23.9727 15.6289L25.7812 13.7695C26.1474 13.3931 26.1401 12.7958 25.7637 12.4297C25.5755 12.2468 25.332 12.1568 25.0898 12.1602ZM30.4805 12.1602V12.1621C30.2383 12.1654 29.9975 12.2629 29.8145 12.4512L28.0059 14.3086C27.6397 14.6847 27.6489 15.2823 28.0254 15.6484C28.4016 16.0147 28.9991 16.0069 29.3652 15.6289L31.1738 13.7695C31.5399 13.3931 31.5308 12.7958 31.1543 12.4297C30.9662 12.2468 30.7227 12.1568 30.4805 12.1602ZM19.7617 12.6445C19.8405 12.6483 19.9211 12.6824 20.0059 12.752C20.4124 13.1137 19.933 13.5374 19.7578 13.7207L18.8926 14.625C18.2853 15.2564 18.0213 15.6832 17.5977 15.2754C17.238 14.902 17.554 14.6794 18.2422 13.9805L19.1074 13.0781C19.3128 12.8771 19.5254 12.633 19.7617 12.6445ZM25.1543 12.6445C25.2331 12.6483 25.3137 12.6824 25.3984 12.752C25.805 13.1137 25.3236 13.5374 25.1484 13.7207L24.2832 14.625C23.676 15.2564 23.4119 15.6832 22.9883 15.2754C22.6286 14.902 22.9465 14.6794 23.6348 13.9805L24.5 13.0781C24.7054 12.8771 24.918 12.633 25.1543 12.6445ZM30.5449 12.6445C30.6237 12.6483 30.7062 12.6824 30.791 12.752C31.1976 13.1137 30.7162 13.5374 30.541 13.7207L29.6758 14.625C29.0685 15.2564 28.8045 15.6832 28.3809 15.2754C28.0212 14.902 28.3372 14.6794 29.0254 13.9805L29.8906 13.0781C30.096 12.8771 30.3086 12.633 30.5449 12.6445ZM13.7949 23.9805C13.7329 23.981 13.6832 24.0314 13.6836 24.0937C13.6841 24.155 13.7333 24.2063 13.7949 24.207C13.8569 24.2076 13.9074 24.1561 13.9082 24.0937C13.9088 24.031 13.8577 23.9801 13.7949 23.9805ZM14.3574 23.9805C14.2954 23.981 14.2438 24.0314 14.2441 24.0937C14.2446 24.155 14.2958 24.2067 14.3574 24.207C14.4187 24.2066 14.468 24.155 14.4687 24.0937C14.4693 24.0862 14.4693 24.0837 14.4687 24.0762C14.4612 24.0217 14.4126 23.982 14.3574 23.9824V23.9805ZM14.9199 23.9805C14.8572 23.9799 14.8063 24.031 14.8066 24.0937C14.8071 24.1557 14.8579 24.2078 14.9199 24.207C14.9811 24.2066 15.0305 24.155 15.0312 24.0937C15.0318 24.0862 15.0318 24.0837 15.0312 24.0762C15.0237 24.0217 14.9751 23.982 14.9199 23.9824V23.9805ZM15.4824 23.9805C15.4197 23.9799 15.3688 24.031 15.3691 24.0937C15.3696 24.1557 15.4204 24.2078 15.4824 24.207C15.5436 24.2066 15.593 24.155 15.5937 24.0937C15.5938 24.0911 15.5938 24.0917 15.5937 24.0879C15.5901 24.0289 15.5418 23.9828 15.4824 23.9824V23.9805ZM16.0449 23.9805C15.9822 23.9799 15.9313 24.031 15.9316 24.0937C15.9321 24.1557 15.9829 24.2078 16.0449 24.207C16.1061 24.2066 16.1555 24.155 16.1562 24.0937C16.1563 24.0911 16.1563 24.0917 16.1562 24.0879C16.1526 24.0289 16.1043 23.9828 16.0449 23.9824V23.9805ZM16.6074 23.9805C16.5447 23.9799 16.4938 24.031 16.4941 24.0937C16.4946 24.1557 16.5454 24.2078 16.6074 24.207C16.6687 24.2066 16.718 24.155 16.7187 24.0937C16.7188 24.0911 16.7188 24.0917 16.7187 24.0879C16.7151 24.0289 16.6668 23.9828 16.6074 23.9824V23.9805ZM17.168 23.9805C17.106 23.981 17.0563 24.0314 17.0566 24.0937C17.0571 24.155 17.1064 24.2067 17.168 24.207C17.2299 24.2076 17.2805 24.1557 17.2812 24.0937C17.2814 24.0911 17.2814 24.0917 17.2812 24.0879C17.2776 24.0282 17.2281 23.9817 17.168 23.9824V23.9805ZM17.7305 23.9805C17.6685 23.981 17.6188 24.0314 17.6191 24.0937C17.6196 24.155 17.6689 24.2067 17.7305 24.207C17.7924 24.2076 17.843 24.1557 17.8437 24.0937C17.8439 24.0911 17.8439 24.0917 17.8437 24.0879C17.8401 24.0282 17.7906 23.9817 17.7305 23.9824V23.9805ZM18.293 23.9805C18.231 23.981 18.1813 24.0314 18.1816 24.0937C18.1821 24.155 18.2314 24.2067 18.293 24.207C18.3549 24.2076 18.4055 24.1557 18.4062 24.0937C18.4063 24.0911 18.4063 24.0917 18.4062 24.0879C18.4026 24.0282 18.3531 23.9817 18.293 23.9824V23.9805ZM18.8555 23.9805C18.7935 23.981 18.7434 24.0314 18.7441 24.0937C18.7446 24.155 18.7942 24.2067 18.8555 24.207C18.9167 24.2066 18.966 24.155 18.9668 24.0937C18.9674 24.0862 18.9674 24.0837 18.9668 24.0762C18.9592 24.0217 18.9106 23.982 18.8555 23.9824V23.9805ZM19.418 23.9805C19.3552 23.9799 19.3043 24.031 19.3047 24.0937C19.3052 24.1557 19.356 24.2078 19.418 24.207C19.4792 24.2066 19.5285 24.155 19.5293 24.0937C19.5294 24.0911 19.5294 24.0917 19.5293 24.0879C19.5257 24.0289 19.4773 23.9828 19.418 23.9824V23.9805ZM19.9805 23.9805C19.9177 23.9799 19.8668 24.031 19.8672 24.0937C19.8677 24.1557 19.9185 24.2078 19.9805 24.207C20.0417 24.2066 20.091 24.155 20.0918 24.0937C20.0919 24.0911 20.0919 24.0917 20.0918 24.0879C20.0882 24.0289 20.0398 23.9828 19.9805 23.9824V23.9805ZM20.543 23.9805C20.4802 23.9799 20.4293 24.031 20.4297 24.0937C20.4302 24.1557 20.481 24.2078 20.543 24.207C20.6042 24.2066 20.6535 24.155 20.6543 24.0937C20.6544 24.0911 20.6544 24.0917 20.6543 24.0879C20.6507 24.0289 20.6023 23.9828 20.543 23.9824V23.9805ZM21.1055 23.9805C21.0427 23.9799 20.9918 24.031 20.9922 24.0937C20.9927 24.1557 21.0435 24.2078 21.1055 24.207C21.1667 24.2066 21.216 24.155 21.2168 24.0937C21.2169 24.0911 21.2169 24.0917 21.2168 24.0879C21.2132 24.0289 21.1648 23.9828 21.1055 23.9824V23.9805ZM21.666 23.9805C21.604 23.981 21.5543 24.0314 21.5547 24.0937C21.5552 24.155 21.6044 24.2067 21.666 24.207C21.728 24.2076 21.7785 24.1557 21.7793 24.0937C21.7794 24.0911 21.7794 24.0917 21.7793 24.0879C21.7757 24.0282 21.7261 23.9817 21.666 23.9824V23.9805ZM22.2285 23.9805C22.1665 23.981 22.1168 24.0314 22.1172 24.0937C22.1177 24.155 22.1669 24.2067 22.2285 24.207C22.2905 24.2076 22.341 24.1557 22.3418 24.0937C22.3419 24.0911 22.3419 24.0917 22.3418 24.0879C22.3382 24.0282 22.2886 23.9817 22.2285 23.9824V23.9805ZM22.791 23.9805C22.729 23.981 22.6793 24.0314 22.6797 24.0937C22.6802 24.155 22.7294 24.2063 22.791 24.207C22.853 24.2076 22.9035 24.1561 22.9043 24.0937C22.9049 24.031 22.8538 23.9801 22.791 23.9805ZM23.3535 23.9805C23.2915 23.981 23.2418 24.0314 23.2422 24.0937C23.2427 24.155 23.2919 24.2067 23.3535 24.207C23.4147 24.2066 23.4645 24.155 23.4648 24.0937C23.4654 24.0862 23.4654 24.0837 23.4648 24.0762C23.4572 24.0217 23.4083 23.982 23.3535 23.9824V23.9805ZM23.916 23.9805C23.8533 23.9799 23.8024 24.031 23.8027 24.0937C23.8032 24.1557 23.854 24.2078 23.916 24.207C23.9772 24.2066 24.0266 24.155 24.0273 24.0937C24.0279 24.0862 24.0279 24.0837 24.0273 24.0762C24.0197 24.0217 23.9712 23.982 23.916 23.9824V23.9805ZM24.4785 23.9805C24.4158 23.9799 24.3649 24.031 24.3652 24.0937C24.3657 24.1557 24.4165 24.2078 24.4785 24.207C24.5397 24.2066 24.5891 24.155 24.5898 24.0937C24.5899 24.0911 24.5899 24.0917 24.5898 24.0879C24.5862 24.0289 24.5379 23.9828 24.4785 23.9824V23.9805ZM25.041 23.9805C24.9783 23.9799 24.9274 24.031 24.9277 24.0937C24.9282 24.1557 24.979 24.2078 25.041 24.207C25.1022 24.2066 25.1516 24.155 25.1523 24.0937C25.1525 24.0911 25.1525 24.0917 25.1523 24.0879C25.1487 24.0289 25.1004 23.9828 25.041 23.9824V23.9805ZM25.6016 23.9805C25.5396 23.981 25.4895 24.0314 25.4902 24.0937C25.4907 24.155 25.5403 24.2067 25.6016 24.207C25.6635 24.2076 25.7141 24.1557 25.7148 24.0937C25.715 24.0911 25.715 24.0917 25.7148 24.0879C25.7112 24.0282 25.6617 23.9817 25.6016 23.9824V23.9805ZM26.1641 23.9805C26.1021 23.981 26.0524 24.0314 26.0527 24.0937C26.0532 24.155 26.1025 24.2067 26.1641 24.207C26.226 24.2076 26.2766 24.1557 26.2773 24.0937C26.2774 24.0911 26.2774 24.0917 26.2773 24.0879C26.2737 24.0282 26.2242 23.9817 26.1641 23.9824V23.9805ZM26.7266 23.9805C26.6646 23.981 26.6149 24.0314 26.6152 24.0937C26.6157 24.155 26.665 24.2067 26.7266 24.207C26.7885 24.2076 26.8391 24.1557 26.8398 24.0937C26.8399 24.0911 26.8399 24.0917 26.8398 24.0879C26.8362 24.0282 26.7867 23.9817 26.7266 23.9824V23.9805ZM27.2891 23.9805C27.2271 23.981 27.1774 24.0314 27.1777 24.0937C27.1782 24.155 27.2275 24.2063 27.2891 24.207C27.351 24.2076 27.4016 24.1561 27.4023 24.0937C27.4029 24.031 27.3518 23.9801 27.2891 23.9805ZM27.8516 23.9805C27.7896 23.981 27.7395 24.0314 27.7402 24.0937C27.7407 24.155 27.7903 24.2067 27.8516 24.207C27.9128 24.2066 27.9621 24.155 27.9629 24.0937C27.9635 24.0862 27.9635 24.0837 27.9629 24.0762C27.9553 24.0217 27.9067 23.982 27.8516 23.9824V23.9805ZM28.4141 23.9805C28.3513 23.9799 28.3004 24.031 28.3008 24.0937C28.3013 24.1557 28.3521 24.2078 28.4141 24.207C28.4753 24.2066 28.5246 24.155 28.5254 24.0937C28.5255 24.0911 28.5255 24.0917 28.5254 24.0879C28.5218 24.0289 28.4734 23.9828 28.4141 23.9824V23.9805ZM28.9766 23.9805C28.9138 23.9799 28.8629 24.031 28.8633 24.0937C28.8638 24.1557 28.9146 24.2078 28.9766 24.207C29.0378 24.2066 29.0871 24.155 29.0879 24.0937C29.088 24.0911 29.088 24.0917 29.0879 24.0879C29.0843 24.0289 29.0359 23.9828 28.9766 23.9824V23.9805ZM29.5391 23.9805C29.4763 23.9799 29.4254 24.031 29.4258 24.0937C29.4263 24.1557 29.4771 24.2078 29.5391 24.207C29.6003 24.2066 29.6496 24.155 29.6504 24.0937C29.6505 24.0911 29.6505 24.0917 29.6504 24.0879C29.6468 24.0289 29.5984 23.9828 29.5391 23.9824V23.9805ZM30.0996 23.9805C30.0376 23.981 29.9879 24.0314 29.9883 24.0937C29.9888 24.155 30.038 24.2067 30.0996 24.207C30.1616 24.2076 30.2121 24.1557 30.2129 24.0937C30.213 24.0911 30.213 24.0917 30.2129 24.0879C30.2093 24.0282 30.1597 23.9817 30.0996 23.9824V23.9805ZM30.6621 23.9805C30.6001 23.981 30.5504 24.0314 30.5508 24.0937C30.5513 24.155 30.6005 24.2067 30.6621 24.207C30.7241 24.2076 30.7746 24.1557 30.7754 24.0937C30.7755 24.0911 30.7755 24.0917 30.7754 24.0879C30.7718 24.0282 30.7222 23.9817 30.6621 23.9824V23.9805ZM31.2246 23.9805C31.1626 23.981 31.1129 24.0314 31.1133 24.0937C31.1138 24.155 31.163 24.2067 31.2246 24.207C31.2866 24.2076 31.3371 24.1557 31.3379 24.0937C31.338 24.0911 31.338 24.0917 31.3379 24.0879C31.3343 24.0282 31.2847 23.9817 31.2246 23.9824V23.9805ZM31.7871 23.9805C31.7251 23.981 31.675 24.0314 31.6758 24.0937C31.6763 24.155 31.7259 24.2067 31.7871 24.207C31.8483 24.2066 31.8977 24.155 31.8984 24.0937C31.899 24.0862 31.899 24.0837 31.8984 24.0762C31.8908 24.0217 31.8423 23.982 31.7871 23.9824V23.9805ZM32.3496 23.9805C32.2869 23.9799 32.2359 24.031 32.2363 24.0937C32.2368 24.1557 32.2876 24.2078 32.3496 24.207C32.4108 24.2066 32.4602 24.155 32.4609 24.0937C32.4615 24.0862 32.4615 24.0837 32.4609 24.0762C32.4533 24.0217 32.4048 23.982 32.3496 23.9824V23.9805ZM32.9121 23.9805C32.8494 23.9799 32.7984 24.031 32.7988 24.0937C32.7993 24.1557 32.8501 24.2078 32.9121 24.207C32.9733 24.2066 33.0227 24.155 33.0234 24.0937C33.0235 24.0911 33.0235 24.0917 33.0234 24.0879C33.0198 24.0289 32.9714 23.9828 32.9121 23.9824V23.9805ZM33.4746 23.9805C33.4119 23.9799 33.3609 24.031 33.3613 24.0937C33.3618 24.1557 33.4126 24.2078 33.4746 24.207C33.5358 24.2066 33.5856 24.155 33.5859 24.0937C33.586 24.0911 33.586 24.0917 33.5859 24.0879C33.5823 24.0289 33.5336 23.9828 33.4746 23.9824V23.9805ZM34.0371 23.9805C33.9744 23.9799 33.9234 24.031 33.9238 24.0937C33.9243 24.1557 33.9751 24.2078 34.0371 24.207C34.0983 24.2066 34.1481 24.155 34.1484 24.0937C34.1485 24.0911 34.1485 24.0917 34.1484 24.0879C34.1448 24.0289 34.0961 23.9828 34.0371 23.9824V23.9805ZM34.5977 23.9805C34.5357 23.981 34.4859 24.0314 34.4863 24.0937C34.4868 24.155 34.536 24.2067 34.5977 24.207C34.6596 24.2076 34.7102 24.1557 34.7109 24.0937C34.711 24.0911 34.711 24.0917 34.7109 24.0879C34.7073 24.0282 34.6577 23.9817 34.5977 23.9824V23.9805ZM19.6973 32.2695C19.4551 32.2728 19.2143 32.3704 19.0312 32.5586L17.2227 34.416C16.8565 34.7921 16.8638 35.3897 17.2402 35.7559C17.6165 36.1221 18.214 36.1162 18.5801 35.7383L20.3887 33.8789C20.7548 33.5025 20.7475 32.9052 20.3711 32.5391C20.1829 32.3561 19.9395 32.2661 19.6973 32.2695ZM25.0898 32.2695C24.8477 32.2728 24.6069 32.3704 24.4238 32.5586L22.6152 34.416C22.2491 34.7921 22.2564 35.3897 22.6328 35.7559C23.0091 36.1221 23.6065 36.1162 23.9727 35.7383L25.7812 33.8789C26.1474 33.5025 26.1401 32.9052 25.7637 32.5391C25.5755 32.3561 25.332 32.2661 25.0898 32.2695ZM30.4805 32.2695C30.2383 32.2728 29.9975 32.3704 29.8145 32.5586L28.0059 34.416C27.6397 34.7921 27.6489 35.3897 28.0254 35.7559C28.4016 36.1221 28.9991 36.1162 29.3652 35.7383L31.1738 33.8789C31.5399 33.5025 31.5308 32.9052 31.1543 32.5391C30.9662 32.3561 30.7227 32.2661 30.4805 32.2695ZM19.7617 32.7519C19.8405 32.7557 19.9211 32.7898 20.0059 32.8594C20.4124 33.2211 19.933 33.6448 19.7578 33.8281L18.8926 34.7324C18.2853 35.3638 18.0213 35.7906 17.5977 35.3828C17.238 35.0094 17.554 34.7868 18.2422 34.0879L19.1074 33.1855C19.3128 32.9845 19.5254 32.7404 19.7617 32.7519ZM25.1543 32.7519C25.2331 32.7557 25.3137 32.7898 25.3984 32.8594C25.805 33.2211 25.3236 33.6448 25.1484 33.8281L24.2832 34.7324C23.676 35.3638 23.4119 35.7906 22.9883 35.3828C22.6286 35.0094 22.9465 34.7868 23.6348 34.0879L24.5 33.1855C24.7054 32.9845 24.918 32.7404 25.1543 32.7519ZM30.5449 32.7519C30.6237 32.7557 30.7062 32.7898 30.791 32.8594C31.1976 33.2211 30.7162 33.6448 30.541 33.8281L29.6758 34.7324C29.0685 35.3638 28.8045 35.7906 28.3809 35.3828C28.0212 35.0094 28.3372 34.7868 29.0254 34.0879L29.8906 33.1855C30.096 32.9845 30.3086 32.7404 30.5449 32.7519Z" fill="#333333"/>
</svg>
