<svg width="48" height="48" viewBox="0 0 48 48" fill="none" xmlns="http://www.w3.org/2000/svg">
<path d="M14.3457 4.09375C13.4763 4.09375 12.7754 4.79267 12.7754 5.66211V42.5234C12.7754 43.3929 13.4763 44.0937 14.3457 44.0937H34.0488C34.9183 44.0937 35.6191 43.3929 35.6191 42.5234V5.66211C35.6191 4.79267 34.9183 4.09375 34.0488 4.09375H14.3457ZM20.127 13.2441C20.5914 13.244 21.0369 13.4218 21.3655 13.7382C21.694 14.0547 21.8787 14.4839 21.8789 14.9316C21.8791 15.1535 21.8339 15.3732 21.7459 15.5782C21.6579 15.7832 21.5289 15.9694 21.3662 16.1263C21.2035 16.2832 21.0103 16.4077 20.7976 16.4926C20.585 16.5775 20.3571 16.6211 20.127 16.6211C19.8968 16.6211 19.6689 16.5775 19.4563 16.4926C19.2436 16.4077 19.0504 16.2832 18.8877 16.1263C18.725 15.9694 18.596 15.7832 18.508 15.5782C18.42 15.3732 18.3748 15.1535 18.375 14.9316C18.3752 14.4839 18.5599 14.0547 18.8885 13.7382C19.217 13.4218 19.6625 13.244 20.127 13.2441ZM24.1973 13.2441C24.6617 13.244 25.1072 13.4218 25.4358 13.7382C25.7643 14.0547 25.949 14.4839 25.9492 14.9316C25.9494 15.1535 25.9042 15.3732 25.8162 15.5782C25.7282 15.7832 25.5992 15.9694 25.4365 16.1263C25.2738 16.2832 25.0806 16.4077 24.868 16.4926C24.6553 16.5775 24.4274 16.6211 24.1973 16.6211C23.9671 16.6211 23.7392 16.5775 23.5266 16.4926C23.3139 16.4077 23.1207 16.2832 22.958 16.1263C22.7953 15.9694 22.6663 15.7832 22.5783 15.5782C22.4904 15.3732 22.4452 15.1535 22.4453 14.9316C22.4455 14.4839 22.6302 14.0547 22.9588 13.7382C23.2873 13.4218 23.7328 13.244 24.1973 13.2441ZM28.2676 13.2441C28.732 13.244 29.1775 13.4218 29.5061 13.7382C29.8346 14.0547 30.0193 14.4839 30.0195 14.9316C30.0197 15.1535 29.9745 15.3732 29.8865 15.5782C29.7985 15.7832 29.6695 15.9694 29.5068 16.1263C29.3441 16.2832 29.1509 16.4077 28.9383 16.4926C28.7256 16.5775 28.4977 16.6211 28.2676 16.6211C28.0374 16.6211 27.8095 16.5775 27.5969 16.4926C27.3843 16.4077 27.1911 16.2832 27.0284 16.1263C26.8657 15.9694 26.7366 15.7832 26.6486 15.5782C26.5607 15.3732 26.5155 15.1535 26.5156 14.9316C26.5158 14.4839 26.7005 14.0547 27.0291 13.7382C27.3576 13.4218 27.8031 13.244 28.2676 13.2441ZM13.5137 23.9805C13.5735 23.9797 13.6234 24.0262 13.627 24.0859V24.0879C13.627 24.0934 13.627 24.0931 13.627 24.0957C13.6265 24.1577 13.5757 24.2076 13.5137 24.207C13.4524 24.2067 13.4028 24.1569 13.4023 24.0957C13.4018 24.0333 13.4516 23.9829 13.5137 23.9824V23.9805ZM14.0762 23.9805C14.136 23.9797 14.1859 24.0262 14.1895 24.0859V24.0879C14.1895 24.0934 14.1895 24.0931 14.1895 24.0957C14.189 24.1577 14.1382 24.2076 14.0762 24.207C14.0149 24.2067 13.9653 24.1569 13.9648 24.0957C13.9643 24.0333 14.0141 23.9829 14.0762 23.9824V23.9805ZM16.3262 23.9805C16.3853 23.9808 16.4339 24.027 16.4375 24.0859V24.0879C16.4376 24.0934 16.4376 24.0931 16.4375 24.0957C16.437 24.1569 16.3874 24.2066 16.3262 24.207C16.2641 24.2078 16.2134 24.1577 16.2129 24.0957C16.2123 24.033 16.2634 23.9818 16.3262 23.9824V23.9805ZM16.8887 23.9805C16.9478 23.9808 16.9964 24.027 17 24.0859V24.0879C17.0001 24.0934 17.0001 24.0931 17 24.0957C16.9995 24.1569 16.9499 24.2066 16.8887 24.207C16.8266 24.2078 16.7759 24.1577 16.7754 24.0957C16.7748 24.033 16.8259 23.9818 16.8887 23.9824V23.9805ZM17.4492 23.9805C17.5091 23.9797 17.5589 24.0262 17.5625 24.0859V24.0879C17.5626 24.0934 17.5626 24.0931 17.5625 24.0957C17.562 24.1577 17.5113 24.2076 17.4492 24.207C17.3879 24.2067 17.3384 24.1569 17.3379 24.0957C17.3373 24.0333 17.3872 23.9829 17.4492 23.9824V23.9805ZM18.0117 23.9805C18.0716 23.9797 18.1214 24.0262 18.125 24.0859V24.0879C18.1251 24.0934 18.1251 24.0931 18.125 24.0957C18.1245 24.1577 18.0738 24.2076 18.0117 24.207C17.9504 24.2067 17.9009 24.1569 17.9004 24.0957C17.8998 24.0333 17.9497 23.9829 18.0117 23.9824V23.9805ZM18.5742 23.9805C18.6341 23.9797 18.6839 24.0262 18.6875 24.0859V24.0879C18.6876 24.0934 18.6876 24.0931 18.6875 24.0957C18.687 24.1577 18.6363 24.2076 18.5742 24.207C18.5129 24.2067 18.4634 24.1569 18.4629 24.0957C18.4623 24.0333 18.5122 23.9829 18.5742 23.9824V23.9805ZM20.2617 23.9805C20.3208 23.9808 20.3695 24.027 20.373 24.0859V24.0879C20.3731 24.0934 20.3731 24.0931 20.373 24.0957C20.3726 24.1569 20.323 24.2066 20.2617 24.207C20.1997 24.2078 20.1489 24.1577 20.1484 24.0957C20.1478 24.033 20.1989 23.9818 20.2617 23.9824V23.9805ZM20.8242 23.9805C20.8833 23.9808 20.932 24.027 20.9355 24.0859V24.0879C20.9356 24.0934 20.9356 24.0931 20.9355 24.0957C20.9351 24.1569 20.8855 24.2066 20.8242 24.207C20.7622 24.2078 20.7114 24.1577 20.7109 24.0957C20.7103 24.033 20.7614 23.9818 20.8242 23.9824V23.9805ZM21.3867 23.9805C21.4458 23.9808 21.4945 24.027 21.498 24.0859V24.0879C21.4981 24.0934 21.4981 24.0931 21.498 24.0957C21.4976 24.1569 21.448 24.2066 21.3867 24.207C21.3247 24.2078 21.2739 24.1577 21.2734 24.0957C21.2728 24.033 21.3239 23.9818 21.3867 23.9824V23.9805ZM21.9473 23.9805C22.0071 23.9797 22.0569 24.0262 22.0605 24.0859V24.0879C22.0606 24.0934 22.0606 24.0931 22.0605 24.0957C22.0601 24.1577 22.0093 24.2076 21.9473 24.207C21.886 24.2067 21.8364 24.1569 21.8359 24.0957C21.8353 24.0333 21.8852 23.9829 21.9473 23.9824V23.9805ZM22.5098 23.9805C22.5696 23.9797 22.6194 24.0262 22.623 24.0859V24.0879C22.6231 24.0934 22.6231 24.0931 22.623 24.0957C22.6226 24.1577 22.5718 24.2076 22.5098 24.207C22.4485 24.2067 22.3989 24.1569 22.3984 24.0957C22.3978 24.0333 22.4477 23.9829 22.5098 23.9824V23.9805ZM23.0723 23.9805C23.1321 23.9797 23.1819 24.0262 23.1855 24.0859V24.0879C23.1856 24.0934 23.1856 24.0931 23.1855 24.0957C23.1851 24.1577 23.1343 24.2076 23.0723 24.207C23.011 24.2067 22.9614 24.1569 22.9609 24.0957C22.9603 24.0333 23.0102 23.9829 23.0723 23.9824V23.9805ZM24.7598 23.9805C24.8189 23.9808 24.8675 24.027 24.8711 24.0859V24.0879C24.8712 24.0934 24.8712 24.0931 24.8711 24.0957C24.8706 24.1569 24.821 24.2066 24.7598 24.207C24.6977 24.2078 24.647 24.1577 24.6465 24.0957C24.6459 24.033 24.697 23.9818 24.7598 23.9824V23.9805ZM25.3223 23.9805C25.3814 23.9808 25.43 24.027 25.4336 24.0859V24.0879C25.4337 24.0934 25.4337 24.0931 25.4336 24.0957C25.4331 24.1569 25.3835 24.2066 25.3223 24.207C25.2602 24.2078 25.2095 24.1577 25.209 24.0957C25.2084 24.033 25.2595 23.9818 25.3223 23.9824V23.9805ZM25.8848 23.9805C25.9439 23.9808 25.9925 24.027 25.9961 24.0859V24.0879C25.9962 24.0934 25.9962 24.0931 25.9961 24.0957C25.9956 24.1569 25.946 24.2066 25.8848 24.207C25.8227 24.2078 25.772 24.1577 25.7715 24.0957C25.7709 24.033 25.822 23.9818 25.8848 23.9824V23.9805ZM26.4453 23.9805C26.5052 23.9797 26.555 24.0262 26.5586 24.0859V24.0879C26.5587 24.0934 26.5587 24.0931 26.5586 24.0957C26.5581 24.1577 26.5074 24.2076 26.4453 24.207C26.384 24.2067 26.3345 24.1569 26.334 24.0957C26.3334 24.0333 26.3833 23.9829 26.4453 23.9824V23.9805ZM27.0078 23.9805C27.0677 23.9797 27.1175 24.0262 27.1211 24.0859V24.0879C27.1212 24.0934 27.1212 24.0931 27.1211 24.0957C27.1206 24.1577 27.0699 24.2076 27.0078 24.207C26.9465 24.2067 26.897 24.1569 26.8965 24.0957C26.8959 24.0333 26.9458 23.9829 27.0078 23.9824V23.9805ZM27.5703 23.9805C27.6302 23.9797 27.68 24.0262 27.6836 24.0859V24.0879C27.6837 24.0934 27.6837 24.0931 27.6836 24.0957C27.6831 24.1577 27.6324 24.2076 27.5703 24.207C27.509 24.2067 27.4595 24.1569 27.459 24.0957C27.4584 24.0333 27.5083 23.9829 27.5703 23.9824V23.9805ZM29.2578 23.9805C29.3169 23.9808 29.3656 24.027 29.3691 24.0859V24.0879C29.3692 24.0934 29.3692 24.0931 29.3691 24.0957C29.3687 24.1569 29.3191 24.2066 29.2578 24.207C29.1958 24.2078 29.145 24.1577 29.1445 24.0957C29.1439 24.033 29.195 23.9818 29.2578 23.9824V23.9805ZM29.8203 23.9805C29.8794 23.9808 29.9281 24.027 29.9316 24.0859V24.0879C29.9317 24.0934 29.9317 24.0931 29.9316 24.0957C29.9312 24.1569 29.8816 24.2066 29.8203 24.207C29.7583 24.2078 29.7075 24.1577 29.707 24.0957C29.7064 24.033 29.7575 23.9818 29.8203 23.9824V23.9805ZM30.3828 23.9805C30.4419 23.9808 30.4906 24.027 30.4941 24.0859V24.0879C30.4942 24.0934 30.4942 24.0931 30.4941 24.0957C30.4937 24.1569 30.4441 24.2066 30.3828 24.207C30.3208 24.2078 30.27 24.1577 30.2695 24.0957C30.2689 24.033 30.32 23.9818 30.3828 23.9824V23.9805ZM30.9434 23.9805C31.0032 23.9797 31.053 24.0262 31.0566 24.0859V24.0879C31.0567 24.0934 31.0567 24.0931 31.0566 24.0957C31.0561 24.1577 31.0054 24.2076 30.9434 24.207C30.8821 24.2067 30.8325 24.1569 30.832 24.0957C30.8314 24.0333 30.8813 23.9829 30.9434 23.9824V23.9805ZM31.5059 23.9805C31.5657 23.9797 31.6155 24.0262 31.6191 24.0859V24.0879C31.6192 24.0934 31.6192 24.0931 31.6191 24.0957C31.6186 24.1577 31.5679 24.2076 31.5059 24.207C31.4446 24.2067 31.395 24.1569 31.3945 24.0957C31.3939 24.0333 31.4438 23.9829 31.5059 23.9824V23.9805ZM33.7559 23.9805C33.8149 23.9808 33.8636 24.027 33.8672 24.0859V24.0879C33.8673 24.0934 33.8673 24.0931 33.8672 24.0957C33.8667 24.1569 33.8171 24.2066 33.7559 24.207C33.6938 24.2078 33.6431 24.1577 33.6426 24.0957C33.642 24.033 33.6931 23.9818 33.7559 23.9824V23.9805ZM34.3184 23.9805C34.3774 23.9808 34.4261 24.027 34.4297 24.0859V24.0879C34.4298 24.0934 34.4298 24.0931 34.4297 24.0957C34.4292 24.1569 34.3796 24.2066 34.3184 24.207C34.2563 24.2078 34.2056 24.1577 34.2051 24.0957C34.2045 24.033 34.2556 23.9818 34.3184 23.9824V23.9805ZM34.8809 23.9805C34.9399 23.9808 34.9886 24.027 34.9922 24.0859V24.0879C34.9923 24.0934 34.9923 24.0931 34.9922 24.0957C34.9917 24.1569 34.9421 24.2066 34.8809 24.207C34.8188 24.2078 34.7681 24.1577 34.7676 24.0957C34.767 24.033 34.8181 23.9818 34.8809 23.9824V23.9805ZM14.6387 23.9824C14.7015 23.982 14.7525 24.033 14.752 24.0957C14.7515 24.1581 14.7007 24.2076 14.6387 24.207C14.5774 24.2063 14.5278 24.1569 14.5273 24.0957C14.5268 24.0333 14.5766 23.9829 14.6387 23.9824ZM19.1367 23.9824C19.1995 23.982 19.2506 24.033 19.25 24.0957C19.2495 24.1581 19.1988 24.2076 19.1367 24.207C19.0754 24.2063 19.0259 24.1569 19.0254 24.0957C19.0248 24.0333 19.0747 23.9829 19.1367 23.9824ZM28.1328 23.9824C28.1956 23.982 28.2467 24.033 28.2461 24.0957C28.2456 24.1581 28.1949 24.2076 28.1328 24.207C28.0715 24.2063 28.022 24.1569 28.0215 24.0957C28.0209 24.0333 28.0708 23.9829 28.1328 23.9824ZM32.0684 23.9824C32.1312 23.982 32.1822 24.033 32.1816 24.0957C32.1811 24.1581 32.1304 24.2076 32.0684 24.207C32.0071 24.2063 31.9575 24.1569 31.957 24.0957C31.9564 24.0333 32.0063 23.9829 32.0684 23.9824ZM15.2012 23.9844C15.2562 23.984 15.3034 24.0237 15.3125 24.0781C15.3131 24.0857 15.3131 24.0901 15.3125 24.0977C15.312 24.1589 15.2624 24.2066 15.2012 24.207C15.1399 24.2067 15.0903 24.1589 15.0898 24.0977C15.0893 24.0353 15.1391 23.9849 15.2012 23.9844ZM15.7637 23.9844C15.8188 23.984 15.8659 24.0237 15.875 24.0781C15.8756 24.0857 15.8756 24.0901 15.875 24.0977C15.8745 24.1589 15.8249 24.2066 15.7637 24.207C15.7016 24.2078 15.6509 24.1596 15.6504 24.0977C15.6498 24.0349 15.7009 23.9838 15.7637 23.9844ZM19.6992 23.9844C19.7543 23.984 19.8015 24.0237 19.8105 24.0781C19.8111 24.0857 19.8111 24.0901 19.8105 24.0977C19.8101 24.1589 19.7605 24.2066 19.6992 24.207C19.6379 24.2067 19.5884 24.1589 19.5879 24.0977C19.5873 24.0353 19.6372 23.9849 19.6992 23.9844ZM23.6348 23.9844C23.6899 23.984 23.737 24.0237 23.7461 24.0781C23.7467 24.0857 23.7467 24.0901 23.7461 24.0977C23.7456 24.1589 23.696 24.2066 23.6348 24.207C23.5735 24.2067 23.5239 24.1589 23.5234 24.0977C23.5228 24.0353 23.5727 23.9849 23.6348 23.9844ZM24.1973 23.9844C24.2524 23.984 24.2995 24.0237 24.3086 24.0781C24.3092 24.0857 24.3092 24.0901 24.3086 24.0977C24.3081 24.1589 24.2585 24.2066 24.1973 24.207C24.1352 24.2078 24.0845 24.1596 24.084 24.0977C24.0834 24.0349 24.1345 23.9838 24.1973 23.9844ZM28.6953 23.9844C28.7504 23.984 28.7976 24.0237 28.8066 24.0781C28.8072 24.0857 28.8072 24.0901 28.8066 24.0977C28.8062 24.1589 28.7566 24.2066 28.6953 24.207C28.6333 24.2078 28.5825 24.1596 28.582 24.0977C28.5814 24.0349 28.6325 23.9838 28.6953 23.9844ZM32.6309 23.9844C32.6859 23.984 32.7331 24.0237 32.7422 24.0781C32.7428 24.0857 32.7428 24.0901 32.7422 24.0977C32.7417 24.1589 32.6921 24.2066 32.6309 24.207C32.5696 24.2067 32.52 24.1589 32.5195 24.0977C32.5189 24.0353 32.5688 23.9849 32.6309 23.9844ZM33.1934 23.9844C33.2484 23.984 33.2956 24.0237 33.3047 24.0781C33.3053 24.0857 33.3053 24.0901 33.3047 24.0977C33.3042 24.1589 33.2546 24.2066 33.1934 24.207C33.1313 24.2078 33.0806 24.1596 33.0801 24.0977C33.0795 24.0349 33.1306 23.9838 33.1934 23.9844ZM25.4687 31.1191C25.814 31.1143 26.1596 31.2432 26.4277 31.5039C26.9643 32.0257 26.9749 32.8775 26.4531 33.4141L23.875 36.0625C23.3532 36.6006 22.503 36.6118 21.9668 36.0898C21.4303 35.568 21.4196 34.7176 21.9414 34.1816L24.5195 31.5332C24.7804 31.2649 25.1236 31.1258 25.4687 31.1211V31.1191Z" fill="#333333"/>
</svg>
