<svg width="48" height="48" viewBox="0 0 48 48" fill="none" xmlns="http://www.w3.org/2000/svg">
<path d="M14.3457 4.09375C13.4763 4.09375 12.7773 4.79267 12.7773 5.66211V42.5234C12.7773 43.3929 13.4763 44.0938 14.3457 44.0938H34.0508C34.9202 44.0938 35.6191 43.3929 35.6191 42.5234V5.66211C35.6191 4.79267 34.9202 4.09375 34.0508 4.09375H14.3457ZM18.7656 12.4707C19.6492 12.4707 20.3652 13.1867 20.3652 14.0703C20.3652 14.954 19.6492 15.6699 18.7656 15.6699C17.882 15.6699 17.1661 14.954 17.166 14.0703C17.1661 13.1867 17.882 12.4707 18.7656 12.4707ZM24.1875 12.4707C25.0711 12.4707 25.7871 13.1867 25.7871 14.0703C25.7871 14.954 25.0711 15.6699 24.1875 15.6699C23.3039 15.6699 22.5879 14.954 22.5879 14.0703C22.5879 13.1867 23.3039 12.4707 24.1875 12.4707ZM29.6094 12.4707C30.493 12.4707 31.2089 13.1867 31.209 14.0703C31.2089 14.954 30.493 15.6699 29.6094 15.6699C28.7257 15.6699 28.0098 14.954 28.0098 14.0703C28.0098 13.1867 28.7257 12.4707 29.6094 12.4707ZM13.7949 23.9805C13.8577 23.9801 13.9088 24.031 13.9082 24.0938C13.9074 24.1562 13.8569 24.2076 13.7949 24.207C13.7333 24.2063 13.6841 24.1551 13.6836 24.0938C13.6832 24.0314 13.7329 23.981 13.7949 23.9805ZM14.3574 23.9805V23.9824C14.4126 23.982 14.4612 24.0217 14.4688 24.0762C14.4693 24.0837 14.4693 24.0863 14.4688 24.0938C14.4681 24.1551 14.4187 24.2066 14.3574 24.207C14.2958 24.2067 14.2446 24.1551 14.2441 24.0938C14.2438 24.0314 14.2954 23.981 14.3574 23.9805ZM14.9199 23.9805V23.9824C14.9751 23.982 15.0238 24.0217 15.0312 24.0762C15.0319 24.0837 15.0319 24.0863 15.0312 24.0938C15.0306 24.1551 14.9811 24.2066 14.9199 24.207C14.8579 24.2078 14.8071 24.1558 14.8066 24.0938C14.8063 24.031 14.8572 23.9799 14.9199 23.9805ZM15.4824 23.9805V23.9824C15.5418 23.9828 15.5902 24.0289 15.5938 24.0879C15.5938 24.0917 15.5938 24.0912 15.5938 24.0938C15.5931 24.1551 15.5436 24.2066 15.4824 24.207C15.4204 24.2078 15.3696 24.1558 15.3691 24.0938C15.3688 24.031 15.4197 23.9799 15.4824 23.9805ZM16.0449 23.9805V23.9824C16.1043 23.9828 16.1527 24.0289 16.1562 24.0879C16.1563 24.0917 16.1563 24.0912 16.1562 24.0938C16.1556 24.1551 16.1061 24.2066 16.0449 24.207C15.9829 24.2078 15.9321 24.1558 15.9316 24.0938C15.9313 24.031 15.9822 23.9799 16.0449 23.9805ZM16.6074 23.9805V23.9824C16.6668 23.9828 16.7152 24.0289 16.7188 24.0879C16.7188 24.0917 16.7188 24.0912 16.7188 24.0938C16.7181 24.1551 16.6687 24.2066 16.6074 24.207C16.5454 24.2078 16.4946 24.1558 16.4941 24.0938C16.4938 24.031 16.5447 23.9799 16.6074 23.9805ZM17.168 23.9805V23.9824C17.2281 23.9817 17.2776 24.0282 17.2812 24.0879C17.2814 24.0917 17.2814 24.0912 17.2812 24.0938C17.2806 24.1558 17.2299 24.2076 17.168 24.207C17.1064 24.2067 17.0571 24.1551 17.0566 24.0938C17.0563 24.0314 17.106 23.981 17.168 23.9805ZM17.7305 23.9805V23.9824C17.7906 23.9817 17.8401 24.0282 17.8438 24.0879C17.8439 24.0917 17.8439 24.0912 17.8438 24.0938C17.8431 24.1558 17.7924 24.2076 17.7305 24.207C17.6689 24.2067 17.6196 24.1551 17.6191 24.0938C17.6188 24.0314 17.6685 23.981 17.7305 23.9805ZM18.293 23.9805V23.9824C18.3531 23.9817 18.4026 24.0282 18.4062 24.0879C18.4064 24.0917 18.4064 24.0912 18.4062 24.0938C18.4056 24.1558 18.3549 24.2076 18.293 24.207C18.2314 24.2067 18.1821 24.1551 18.1816 24.0938C18.1813 24.0314 18.231 23.981 18.293 23.9805ZM18.8555 23.9805V23.9824C18.9106 23.982 18.9592 24.0217 18.9668 24.0762C18.9674 24.0837 18.9674 24.0863 18.9668 24.0938C18.966 24.1551 18.9167 24.2066 18.8555 24.207C18.7942 24.2067 18.7446 24.1551 18.7441 24.0938C18.7434 24.0314 18.7935 23.981 18.8555 23.9805ZM19.418 23.9805V23.9824C19.4773 23.9828 19.5257 24.0289 19.5293 24.0879C19.5294 24.0917 19.5294 24.0912 19.5293 24.0938C19.5285 24.1551 19.4792 24.2066 19.418 24.207C19.356 24.2078 19.3052 24.1558 19.3047 24.0938C19.3043 24.031 19.3552 23.9799 19.418 23.9805ZM19.9805 23.9805V23.9824C20.0398 23.9828 20.0882 24.0289 20.0918 24.0879C20.0919 24.0917 20.0919 24.0912 20.0918 24.0938C20.091 24.1551 20.0417 24.2066 19.9805 24.207C19.9185 24.2078 19.8677 24.1558 19.8672 24.0938C19.8668 24.031 19.9177 23.9799 19.9805 23.9805ZM20.543 23.9805V23.9824C20.6023 23.9828 20.6507 24.0289 20.6543 24.0879C20.6544 24.0917 20.6544 24.0912 20.6543 24.0938C20.6535 24.1551 20.6042 24.2066 20.543 24.207C20.481 24.2078 20.4302 24.1558 20.4297 24.0938C20.4293 24.031 20.4802 23.9799 20.543 23.9805ZM21.1055 23.9805V23.9824C21.1648 23.9828 21.2132 24.0289 21.2168 24.0879C21.2169 24.0917 21.2169 24.0912 21.2168 24.0938C21.216 24.1551 21.1667 24.2066 21.1055 24.207C21.0435 24.2078 20.9927 24.1558 20.9922 24.0938C20.9918 24.031 21.0427 23.9799 21.1055 23.9805ZM21.666 23.9805V23.9824C21.7261 23.9817 21.7757 24.0282 21.7793 24.0879C21.7794 24.0917 21.7794 24.0912 21.7793 24.0938C21.7785 24.1558 21.728 24.2076 21.666 24.207C21.6044 24.2067 21.5552 24.1551 21.5547 24.0938C21.5543 24.0314 21.604 23.981 21.666 23.9805ZM22.2285 23.9805V23.9824C22.2886 23.9817 22.3382 24.0282 22.3418 24.0879C22.3419 24.0917 22.3419 24.0912 22.3418 24.0938C22.341 24.1558 22.2905 24.2076 22.2285 24.207C22.1669 24.2067 22.1177 24.1551 22.1172 24.0938C22.1168 24.0314 22.1665 23.981 22.2285 23.9805ZM22.791 23.9805C22.8538 23.9801 22.9049 24.031 22.9043 24.0938C22.9035 24.1562 22.853 24.2076 22.791 24.207C22.7294 24.2063 22.6802 24.1551 22.6797 24.0938C22.6793 24.0314 22.729 23.981 22.791 23.9805ZM23.3535 23.9805V23.9824C23.4083 23.982 23.4572 24.0217 23.4648 24.0762C23.4654 24.0837 23.4654 24.0863 23.4648 24.0938C23.4645 24.1551 23.4147 24.2066 23.3535 24.207C23.2919 24.2067 23.2427 24.1551 23.2422 24.0938C23.2418 24.0314 23.2915 23.981 23.3535 23.9805ZM23.916 23.9805V23.9824C23.9712 23.982 24.0197 24.0217 24.0273 24.0762C24.0279 24.0837 24.0279 24.0863 24.0273 24.0938C24.0266 24.1551 23.9772 24.2066 23.916 24.207C23.854 24.2078 23.8032 24.1558 23.8027 24.0938C23.8024 24.031 23.8533 23.9799 23.916 23.9805ZM24.4785 23.9805V23.9824C24.5379 23.9828 24.5862 24.0289 24.5898 24.0879C24.5899 24.0917 24.5899 24.0912 24.5898 24.0938C24.5891 24.1551 24.5397 24.2066 24.4785 24.207C24.4165 24.2078 24.3657 24.1558 24.3652 24.0938C24.3649 24.031 24.4158 23.9799 24.4785 23.9805ZM25.041 23.9805V23.9824C25.1004 23.9828 25.1487 24.0289 25.1523 24.0879C25.1525 24.0917 25.1525 24.0912 25.1523 24.0938C25.1516 24.1551 25.1022 24.2066 25.041 24.207C24.979 24.2078 24.9282 24.1558 24.9277 24.0938C24.9274 24.031 24.9783 23.9799 25.041 23.9805ZM25.6016 23.9805V23.9824C25.6617 23.9817 25.7112 24.0282 25.7148 24.0879C25.715 24.0917 25.715 24.0912 25.7148 24.0938C25.7141 24.1558 25.6635 24.2076 25.6016 24.207C25.5403 24.2067 25.4907 24.1551 25.4902 24.0938C25.4895 24.0314 25.5396 23.981 25.6016 23.9805ZM26.1641 23.9805V23.9824C26.2242 23.9817 26.2737 24.0282 26.2773 24.0879C26.2774 24.0917 26.2774 24.0912 26.2773 24.0938C26.2766 24.1558 26.226 24.2076 26.1641 24.207C26.1025 24.2067 26.0532 24.1551 26.0527 24.0938C26.0524 24.0314 26.1021 23.981 26.1641 23.9805ZM26.7266 23.9805V23.9824C26.7867 23.9817 26.8362 24.0282 26.8398 24.0879C26.8399 24.0917 26.8399 24.0912 26.8398 24.0938C26.8391 24.1558 26.7885 24.2076 26.7266 24.207C26.665 24.2067 26.6157 24.1551 26.6152 24.0938C26.6149 24.0314 26.6646 23.981 26.7266 23.9805ZM27.2891 23.9805C27.3518 23.9801 27.4029 24.031 27.4023 24.0938C27.4016 24.1562 27.351 24.2076 27.2891 24.207C27.2275 24.2063 27.1782 24.1551 27.1777 24.0938C27.1774 24.0314 27.2271 23.981 27.2891 23.9805ZM27.8516 23.9805V23.9824C27.9067 23.982 27.9553 24.0217 27.9629 24.0762C27.9635 24.0837 27.9635 24.0863 27.9629 24.0938C27.9621 24.1551 27.9128 24.2066 27.8516 24.207C27.7903 24.2067 27.7407 24.1551 27.7402 24.0938C27.7395 24.0314 27.7896 23.981 27.8516 23.9805ZM28.4141 23.9805V23.9824C28.4734 23.9828 28.5218 24.0289 28.5254 24.0879C28.5255 24.0917 28.5255 24.0912 28.5254 24.0938C28.5246 24.1551 28.4753 24.2066 28.4141 24.207C28.3521 24.2078 28.3013 24.1558 28.3008 24.0938C28.3004 24.031 28.3513 23.9799 28.4141 23.9805ZM28.9766 23.9805V23.9824C29.0359 23.9828 29.0843 24.0289 29.0879 24.0879C29.088 24.0917 29.088 24.0912 29.0879 24.0938C29.0871 24.1551 29.0378 24.2066 28.9766 24.207C28.9146 24.2078 28.8638 24.1558 28.8633 24.0938C28.8629 24.031 28.9138 23.9799 28.9766 23.9805ZM29.5391 23.9805V23.9824C29.5984 23.9828 29.6468 24.0289 29.6504 24.0879C29.6505 24.0917 29.6505 24.0912 29.6504 24.0938C29.6496 24.1551 29.6003 24.2066 29.5391 24.207C29.4771 24.2078 29.4263 24.1558 29.4258 24.0938C29.4254 24.031 29.4763 23.9799 29.5391 23.9805ZM30.0996 23.9805V23.9824C30.1597 23.9817 30.2093 24.0282 30.2129 24.0879C30.213 24.0917 30.213 24.0912 30.2129 24.0938C30.2121 24.1558 30.1616 24.2076 30.0996 24.207C30.038 24.2067 29.9888 24.1551 29.9883 24.0938C29.9879 24.0314 30.0376 23.981 30.0996 23.9805ZM30.6621 23.9805V23.9824C30.7222 23.9817 30.7718 24.0282 30.7754 24.0879C30.7755 24.0917 30.7755 24.0912 30.7754 24.0938C30.7746 24.1558 30.7241 24.2076 30.6621 24.207C30.6005 24.2067 30.5513 24.1551 30.5508 24.0938C30.5504 24.0314 30.6001 23.981 30.6621 23.9805ZM31.2246 23.9805V23.9824C31.2847 23.9817 31.3343 24.0282 31.3379 24.0879C31.338 24.0917 31.338 24.0912 31.3379 24.0938C31.3371 24.1558 31.2866 24.2076 31.2246 24.207C31.163 24.2067 31.1138 24.1551 31.1133 24.0938C31.1129 24.0314 31.1626 23.981 31.2246 23.9805ZM31.7871 23.9805V23.9824C31.8423 23.982 31.8908 24.0217 31.8984 24.0762C31.899 24.0837 31.899 24.0863 31.8984 24.0938C31.8977 24.1551 31.8483 24.2066 31.7871 24.207C31.7259 24.2067 31.6763 24.1551 31.6758 24.0938C31.675 24.0314 31.7251 23.981 31.7871 23.9805ZM32.3496 23.9805V23.9824C32.4048 23.982 32.4533 24.0217 32.4609 24.0762C32.4615 24.0837 32.4615 24.0863 32.4609 24.0938C32.4602 24.1551 32.4108 24.2066 32.3496 24.207C32.2876 24.2078 32.2368 24.1558 32.2363 24.0938C32.2359 24.031 32.2869 23.9799 32.3496 23.9805ZM32.9121 23.9805V23.9824C32.9714 23.9828 33.0198 24.0289 33.0234 24.0879C33.0235 24.0917 33.0235 24.0912 33.0234 24.0938C33.0227 24.1551 32.9733 24.2066 32.9121 24.207C32.8501 24.2078 32.7993 24.1558 32.7988 24.0938C32.7984 24.031 32.8494 23.9799 32.9121 23.9805ZM33.4746 23.9805V23.9824C33.5336 23.9828 33.5823 24.0289 33.5859 24.0879C33.586 24.0917 33.586 24.0912 33.5859 24.0938C33.5856 24.1551 33.5358 24.2066 33.4746 24.207C33.4126 24.2078 33.3618 24.1558 33.3613 24.0938C33.3609 24.031 33.4119 23.9799 33.4746 23.9805ZM34.0371 23.9805V23.9824C34.0961 23.9828 34.1448 24.0289 34.1484 24.0879C34.1485 24.0917 34.1485 24.0912 34.1484 24.0938C34.1481 24.1551 34.0983 24.2066 34.0371 24.207C33.9751 24.2078 33.9243 24.1558 33.9238 24.0938C33.9234 24.031 33.9744 23.9799 34.0371 23.9805ZM34.5977 23.9805V23.9824C34.6577 23.9817 34.7073 24.0282 34.7109 24.0879C34.711 24.0917 34.711 24.0912 34.7109 24.0938C34.7102 24.1558 34.6596 24.2076 34.5977 24.207C34.536 24.2067 34.4868 24.1551 34.4863 24.0938C34.4859 24.0314 34.5357 23.981 34.5977 23.9805ZM18.7656 32.4707C19.6492 32.4707 20.3652 33.1867 20.3652 34.0703C20.3652 34.954 19.6492 35.6699 18.7656 35.6699C17.882 35.6699 17.1661 34.954 17.166 34.0703C17.1661 33.1867 17.882 32.4707 18.7656 32.4707ZM24.1875 32.4707C25.0711 32.4707 25.7871 33.1867 25.7871 34.0703C25.7871 34.954 25.0711 35.6699 24.1875 35.6699C23.3039 35.6699 22.5879 34.954 22.5879 34.0703C22.5879 33.1867 23.3039 32.4707 24.1875 32.4707ZM29.6094 32.4707C30.493 32.4707 31.2089 33.1867 31.209 34.0703C31.2089 34.954 30.493 35.6699 29.6094 35.6699C28.7257 35.6699 28.0098 34.954 28.0098 34.0703C28.0098 33.1867 28.7257 32.4707 29.6094 32.4707Z" fill="#333333"/>
</svg>
