<svg width="48" height="48" viewBox="0 0 48 48" fill="none" xmlns="http://www.w3.org/2000/svg">
<path d="M14.3457 4.09375C13.4763 4.09375 12.7773 4.79267 12.7773 5.66211V42.5234C12.7773 43.3929 13.4763 44.0937 14.3457 44.0937H34.0508C34.9202 44.0937 35.6191 43.3929 35.6191 42.5234V5.66211C35.6191 4.79267 34.9202 4.09375 34.0508 4.09375H14.3457ZM22.3945 8.84961C22.6367 8.84621 22.8802 8.93621 23.0684 9.11914C23.4448 9.48538 23.4519 10.0825 23.0859 10.459L21.2773 12.3184C20.9112 12.6959 20.3138 12.7035 19.9375 12.3359C19.5611 11.9697 19.554 11.3722 19.9199 10.9961L21.7285 9.13867C21.9116 8.95045 22.1523 8.85301 22.3945 8.84961ZM27.7852 8.84961C28.0273 8.84621 28.2708 8.93621 28.459 9.11914C28.8354 9.48538 28.8445 10.0825 28.4785 10.459L26.6699 12.3184C26.3038 12.6959 25.7063 12.7035 25.3301 12.3359C24.9536 11.9697 24.9446 11.3722 25.3105 10.9961L27.1191 9.13867C27.3022 8.95045 27.543 8.85301 27.7852 8.84961ZM13.3398 17.2969C13.3999 17.2961 13.4495 17.3426 13.4531 17.4023C13.4532 17.4061 13.4532 17.4064 13.4531 17.4102C13.4524 17.4721 13.4018 17.5219 13.3398 17.5215C13.2782 17.5211 13.229 17.4714 13.2285 17.4102C13.2281 17.3478 13.2779 17.2976 13.3398 17.2969ZM13.9023 17.2969C13.9651 17.2965 14.0162 17.3474 14.0156 17.4102C14.0149 17.4725 13.9643 17.5222 13.9023 17.5215C13.8407 17.5207 13.7915 17.4714 13.791 17.4102C13.7906 17.3478 13.8404 17.2976 13.9023 17.2969ZM14.4648 17.2969C14.52 17.2965 14.5686 17.3362 14.5762 17.3906C14.5767 17.3982 14.5767 17.4026 14.5762 17.4102C14.5754 17.4714 14.5261 17.5211 14.4648 17.5215C14.4032 17.5211 14.3521 17.4714 14.3516 17.4102C14.3512 17.3478 14.4029 17.2976 14.4648 17.2969ZM15.0273 17.2969C15.0825 17.2965 15.1311 17.3362 15.1387 17.3906C15.1392 17.3982 15.1392 17.4026 15.1387 17.4102C15.1379 17.4714 15.0886 17.5211 15.0273 17.5215C14.9654 17.5222 14.9146 17.4721 14.9141 17.4102C14.9137 17.3474 14.9646 17.2965 15.0273 17.2969ZM15.5898 17.2969C15.6492 17.2973 15.6976 17.3434 15.7012 17.4023C15.7012 17.4061 15.7012 17.4064 15.7012 17.4102C15.7004 17.4714 15.6511 17.5207 15.5898 17.5215C15.5279 17.5222 15.4771 17.4725 15.4766 17.4102C15.4762 17.3474 15.5271 17.2965 15.5898 17.2969ZM16.1523 17.2969C16.2117 17.2973 16.2601 17.3434 16.2637 17.4023C16.2637 17.4061 16.2637 17.4064 16.2637 17.4102C16.2629 17.4714 16.2136 17.5207 16.1523 17.5215C16.0904 17.5222 16.0396 17.4725 16.0391 17.4102C16.0387 17.3474 16.0896 17.2965 16.1523 17.2969ZM16.7148 17.2969C16.7742 17.2973 16.8226 17.3434 16.8262 17.4023C16.8262 17.4061 16.8262 17.4064 16.8262 17.4102C16.8254 17.4714 16.7761 17.5207 16.7148 17.5215C16.6529 17.5222 16.6021 17.4725 16.6016 17.4102C16.6012 17.3474 16.6521 17.2965 16.7148 17.2969ZM17.2754 17.2969C17.3355 17.2961 17.3851 17.3426 17.3887 17.4023C17.3888 17.4061 17.3888 17.4064 17.3887 17.4102C17.3879 17.4721 17.3374 17.5219 17.2754 17.5215C17.2138 17.5211 17.1646 17.4714 17.1641 17.4102C17.1637 17.3478 17.2134 17.2976 17.2754 17.2969ZM17.8379 17.2969C17.898 17.2961 17.9476 17.3426 17.9512 17.4023C17.9513 17.4061 17.9513 17.4064 17.9512 17.4102C17.9504 17.4721 17.8999 17.5219 17.8379 17.5215C17.7763 17.5211 17.7271 17.4714 17.7266 17.4102C17.7262 17.3478 17.7759 17.2976 17.8379 17.2969ZM18.4004 17.2969C18.4605 17.2961 18.5101 17.3426 18.5137 17.4023C18.5137 17.4061 18.5137 17.4064 18.5137 17.4102C18.5129 17.4721 18.4624 17.5219 18.4004 17.5215C18.3388 17.5211 18.2896 17.4714 18.2891 17.4102C18.2887 17.3478 18.3384 17.2976 18.4004 17.2969ZM18.9629 17.2969C19.0181 17.2965 19.0667 17.3362 19.0742 17.3906C19.0748 17.3982 19.0748 17.4026 19.0742 17.4102C19.0735 17.4714 19.0241 17.5211 18.9629 17.5215C18.9017 17.5211 18.8521 17.4714 18.8516 17.4102C18.8508 17.3478 18.9009 17.2976 18.9629 17.2969ZM19.5254 17.2969C19.5847 17.2973 19.6332 17.3434 19.6367 17.4023C19.6368 17.4061 19.6368 17.4064 19.6367 17.4102C19.636 17.4714 19.5866 17.5207 19.5254 17.5215C19.4634 17.5222 19.4126 17.4725 19.4121 17.4102C19.4117 17.3474 19.4626 17.2965 19.5254 17.2969ZM20.0879 17.2969C20.1472 17.2973 20.1957 17.3434 20.1992 17.4023C20.1993 17.4061 20.1993 17.4064 20.1992 17.4102C20.1985 17.4714 20.1491 17.5207 20.0879 17.5215C20.0259 17.5222 19.9751 17.4725 19.9746 17.4102C19.9742 17.3474 20.0251 17.2965 20.0879 17.2969ZM20.6504 17.2969C20.7097 17.2973 20.7582 17.3434 20.7617 17.4023C20.7618 17.4061 20.7618 17.4064 20.7617 17.4102C20.761 17.4714 20.7116 17.5207 20.6504 17.5215C20.5884 17.5222 20.5376 17.4725 20.5371 17.4102C20.5367 17.3474 20.5876 17.2965 20.6504 17.2969ZM21.2129 17.2969C21.2722 17.2973 21.3207 17.3434 21.3242 17.4023C21.3243 17.4061 21.3243 17.4064 21.3242 17.4102C21.3235 17.4714 21.2741 17.5207 21.2129 17.5215C21.1509 17.5222 21.1001 17.4725 21.0996 17.4102C21.0992 17.3474 21.1501 17.2965 21.2129 17.2969ZM21.7734 17.2969C21.8335 17.2961 21.8831 17.3426 21.8867 17.4023C21.8868 17.4061 21.8868 17.4064 21.8867 17.4102C21.886 17.4721 21.8354 17.5219 21.7734 17.5215C21.7118 17.5211 21.6626 17.4714 21.6621 17.4102C21.6617 17.3478 21.7114 17.2976 21.7734 17.2969ZM22.3359 17.2969C22.396 17.2961 22.4456 17.3426 22.4492 17.4023C22.4493 17.4061 22.4493 17.4064 22.4492 17.4102C22.4485 17.4721 22.3979 17.5219 22.3359 17.5215C22.2743 17.5211 22.2251 17.4714 22.2246 17.4102C22.2242 17.3478 22.2739 17.2976 22.3359 17.2969ZM22.8984 17.2969C22.9612 17.2965 23.0123 17.3474 23.0117 17.4102C23.011 17.4725 22.9604 17.5222 22.8984 17.5215C22.8368 17.5207 22.7876 17.4714 22.7871 17.4102C22.7867 17.3478 22.8364 17.2976 22.8984 17.2969ZM23.4609 17.2969C23.5157 17.2965 23.5647 17.3362 23.5723 17.3906C23.5728 17.3982 23.5728 17.4026 23.5723 17.4102C23.5719 17.4714 23.5222 17.5211 23.4609 17.5215C23.3993 17.5211 23.3501 17.4714 23.3496 17.4102C23.3492 17.3478 23.3989 17.2976 23.4609 17.2969ZM24.0234 17.2969C24.0786 17.2965 24.1272 17.3362 24.1348 17.3906C24.1353 17.3982 24.1353 17.4026 24.1348 17.4102C24.134 17.4714 24.0847 17.5211 24.0234 17.5215C23.9615 17.5222 23.9106 17.4721 23.9102 17.4102C23.9098 17.3474 23.9607 17.2965 24.0234 17.2969ZM24.5859 17.2969C24.6453 17.2973 24.6937 17.3434 24.6973 17.4023C24.6973 17.4061 24.6973 17.4064 24.6973 17.4102C24.6965 17.4714 24.6472 17.5207 24.5859 17.5215C24.524 17.5222 24.4731 17.4725 24.4727 17.4102C24.4723 17.3474 24.5232 17.2965 24.5859 17.2969ZM25.1484 17.2969C25.2078 17.2973 25.2562 17.3434 25.2598 17.4023C25.2599 17.4061 25.2599 17.4064 25.2598 17.4102C25.259 17.4714 25.2097 17.5207 25.1484 17.5215C25.0865 17.5222 25.0356 17.4725 25.0352 17.4102C25.0348 17.3474 25.0857 17.2965 25.1484 17.2969ZM25.709 17.2969C25.7691 17.2961 25.8187 17.3426 25.8223 17.4023C25.8224 17.4061 25.8224 17.4064 25.8223 17.4102C25.8215 17.4721 25.771 17.5219 25.709 17.5215C25.6478 17.5211 25.5981 17.4714 25.5977 17.4102C25.5969 17.3478 25.647 17.2976 25.709 17.2969ZM26.2715 17.2969C26.3316 17.2961 26.3812 17.3426 26.3848 17.4023C26.3848 17.4061 26.3848 17.4064 26.3848 17.4102C26.384 17.4721 26.3335 17.5219 26.2715 17.5215C26.2099 17.5211 26.1606 17.4714 26.1602 17.4102C26.1598 17.3478 26.2095 17.2976 26.2715 17.2969ZM26.834 17.2969C26.8941 17.2961 26.9437 17.3426 26.9473 17.4023C26.9473 17.4061 26.9473 17.4064 26.9473 17.4102C26.9465 17.4721 26.896 17.5219 26.834 17.5215C26.7724 17.5211 26.7231 17.4714 26.7227 17.4102C26.7223 17.3478 26.772 17.2976 26.834 17.2969ZM27.3965 17.2969C27.4592 17.2965 27.5104 17.3474 27.5098 17.4102C27.509 17.4725 27.4585 17.5222 27.3965 17.5215C27.3349 17.5207 27.2856 17.4714 27.2852 17.4102C27.2848 17.3478 27.3345 17.2976 27.3965 17.2969ZM27.959 17.2969C28.0142 17.2965 28.0628 17.3362 28.0703 17.3906C28.0709 17.3982 28.0709 17.4026 28.0703 17.4102C28.0696 17.4714 28.0202 17.5211 27.959 17.5215C27.8978 17.5211 27.8481 17.4714 27.8477 17.4102C27.8469 17.3478 27.897 17.2976 27.959 17.2969ZM28.5215 17.2969C28.5808 17.2973 28.6293 17.3434 28.6328 17.4023C28.6329 17.4061 28.6329 17.4064 28.6328 17.4102C28.6321 17.4714 28.5827 17.5207 28.5215 17.5215C28.4595 17.5222 28.4087 17.4725 28.4082 17.4102C28.4078 17.3474 28.4587 17.2965 28.5215 17.2969ZM29.084 17.2969C29.1433 17.2973 29.1918 17.3434 29.1953 17.4023C29.1954 17.4061 29.1954 17.4064 29.1953 17.4102C29.1946 17.4714 29.1452 17.5207 29.084 17.5215C29.022 17.5222 28.9712 17.4725 28.9707 17.4102C28.9703 17.3474 29.0212 17.2965 29.084 17.2969ZM29.6465 17.2969C29.7058 17.2973 29.7543 17.3434 29.7578 17.4023C29.7579 17.4061 29.7579 17.4064 29.7578 17.4102C29.7571 17.4714 29.7077 17.5207 29.6465 17.5215C29.5845 17.5222 29.5337 17.4725 29.5332 17.4102C29.5328 17.3474 29.5837 17.2965 29.6465 17.2969ZM30.207 17.2969C30.2671 17.2961 30.3167 17.3426 30.3203 17.4023C30.3204 17.4061 30.3204 17.4064 30.3203 17.4102C30.3196 17.4721 30.269 17.5219 30.207 17.5215C30.1454 17.5211 30.0962 17.4714 30.0957 17.4102C30.0953 17.3478 30.145 17.2976 30.207 17.2969ZM30.7695 17.2969C30.8296 17.2961 30.8792 17.3426 30.8828 17.4023C30.8829 17.4061 30.8829 17.4064 30.8828 17.4102C30.8821 17.4721 30.8315 17.5219 30.7695 17.5215C30.7079 17.5211 30.6587 17.4714 30.6582 17.4102C30.6578 17.3478 30.7075 17.2976 30.7695 17.2969ZM31.332 17.2969C31.3921 17.2961 31.4417 17.3426 31.4453 17.4023C31.4454 17.4061 31.4454 17.4064 31.4453 17.4102C31.4446 17.4721 31.394 17.5219 31.332 17.5215C31.2704 17.5211 31.2212 17.4714 31.2207 17.4102C31.2203 17.3478 31.27 17.2976 31.332 17.2969ZM31.8945 17.2969C31.9497 17.2965 31.9983 17.3362 32.0059 17.3906C32.0064 17.3982 32.0064 17.4026 32.0059 17.4102C32.0051 17.4714 31.9558 17.5211 31.8945 17.5215C31.8333 17.5211 31.7837 17.4714 31.7832 17.4102C31.7824 17.3478 31.8325 17.2976 31.8945 17.2969ZM32.457 17.2969C32.5122 17.2965 32.5608 17.3362 32.5684 17.3906C32.5689 17.3982 32.5689 17.4026 32.5684 17.4102C32.5676 17.4714 32.5183 17.5211 32.457 17.5215C32.395 17.5222 32.3442 17.4721 32.3437 17.4102C32.3434 17.3474 32.3943 17.2965 32.457 17.2969ZM33.0195 17.2969C33.0789 17.2973 33.1273 17.3434 33.1309 17.4023C33.1309 17.4061 33.1309 17.4064 33.1309 17.4102C33.1301 17.4714 33.0808 17.5207 33.0195 17.5215C32.9575 17.5222 32.9067 17.4725 32.9062 17.4102C32.9059 17.3474 32.9568 17.2965 33.0195 17.2969ZM33.582 17.2969C33.641 17.2973 33.6898 17.3434 33.6934 17.4023C33.6935 17.4061 33.6935 17.4064 33.6934 17.4102C33.693 17.4714 33.6433 17.5207 33.582 17.5215C33.52 17.5222 33.4692 17.4725 33.4687 17.4102C33.4684 17.3474 33.5193 17.2965 33.582 17.2969ZM34.1445 17.2969C34.2035 17.2973 34.2523 17.3434 34.2559 17.4023C34.256 17.4061 34.256 17.4064 34.2559 17.4102C34.2555 17.4714 34.2058 17.5207 34.1445 17.5215C34.0825 17.5222 34.0317 17.4725 34.0312 17.4102C34.0309 17.3474 34.0818 17.2965 34.1445 17.2969ZM34.7051 17.2969C34.7652 17.2961 34.8148 17.3426 34.8184 17.4023C34.8184 17.4061 34.8184 17.4064 34.8184 17.4102C34.8176 17.4721 34.7671 17.5219 34.7051 17.5215C34.6435 17.5211 34.5942 17.4714 34.5937 17.4102C34.5934 17.3478 34.6431 17.2976 34.7051 17.2969ZM35.2676 17.2969C35.3277 17.2961 35.3773 17.3426 35.3809 17.4023C35.3809 17.4061 35.3809 17.4064 35.3809 17.4102C35.3801 17.4721 35.3296 17.5219 35.2676 17.5215C35.206 17.5211 35.1567 17.4714 35.1562 17.4102C35.1559 17.3478 35.2056 17.2976 35.2676 17.2969ZM19.6973 22.1523C19.9395 22.1489 20.1829 22.2389 20.3711 22.4219C20.7475 22.7881 20.7546 23.3853 20.3887 23.7617L18.5801 25.6211C18.214 25.9987 17.6165 26.0062 17.2402 25.6387C16.8638 25.2724 16.8567 24.6749 17.2227 24.2988L19.0312 22.4414C19.2143 22.2532 19.4551 22.1557 19.6973 22.1523ZM25.0898 22.1523C25.332 22.1489 25.5755 22.2389 25.7637 22.4219C26.1401 22.7881 26.1472 23.3853 25.7812 23.7617L23.9727 25.6211C23.6065 25.9987 23.0091 26.0062 22.6328 25.6387C22.2564 25.2724 22.2493 24.6749 22.6152 24.2988L24.4238 22.4414C24.6069 22.2532 24.8477 22.1557 25.0898 22.1523ZM30.4805 22.1523C30.7227 22.1489 30.9662 22.2389 31.1543 22.4219C31.5307 22.7881 31.5398 23.3853 31.1738 23.7617L29.3652 25.6211C28.9991 25.9987 28.4016 26.0062 28.0254 25.6387C27.6489 25.2724 27.6399 24.6749 28.0059 24.2988L29.8145 22.4414C29.9975 22.2532 30.2383 22.1557 30.4805 22.1523ZM13.332 30.5332C13.3921 30.5324 13.4417 30.579 13.4453 30.6387C13.4454 30.6424 13.4454 30.6427 13.4453 30.6465C13.4446 30.7085 13.394 30.7582 13.332 30.7578C13.2704 30.7574 13.2212 30.7077 13.2207 30.6465C13.2203 30.5841 13.27 30.534 13.332 30.5332ZM13.8945 30.5332C13.9573 30.5328 14.0084 30.5837 14.0078 30.6465C14.0071 30.7088 13.9565 30.7586 13.8945 30.7578C13.8329 30.7571 13.7837 30.7077 13.7832 30.6465C13.7828 30.5841 13.8325 30.534 13.8945 30.5332ZM14.457 30.5332C14.5122 30.5328 14.5608 30.5725 14.5684 30.6269C14.5689 30.6345 14.5689 30.6389 14.5684 30.6465C14.5676 30.7077 14.5183 30.7574 14.457 30.7578C14.3954 30.7574 14.3442 30.7077 14.3437 30.6465C14.3434 30.5841 14.3951 30.534 14.457 30.5332ZM15.0195 30.5332C15.0747 30.5328 15.1233 30.5725 15.1309 30.6269C15.1314 30.6345 15.1314 30.6389 15.1309 30.6465C15.1301 30.7077 15.0808 30.7574 15.0195 30.7578C14.9576 30.7586 14.9067 30.7085 14.9062 30.6465C14.9059 30.5837 14.9568 30.5328 15.0195 30.5332ZM15.582 30.5332C15.6414 30.5336 15.6898 30.5797 15.6934 30.6387C15.6934 30.6424 15.6934 30.6427 15.6934 30.6465C15.6926 30.7077 15.6433 30.7571 15.582 30.7578C15.5201 30.7586 15.4692 30.7088 15.4687 30.6465C15.4684 30.5837 15.5193 30.5328 15.582 30.5332ZM16.1445 30.5332C16.2039 30.5336 16.2523 30.5797 16.2559 30.6387C16.2559 30.6424 16.2559 30.6427 16.2559 30.6465C16.2551 30.7077 16.2058 30.7571 16.1445 30.7578C16.0826 30.7586 16.0317 30.7088 16.0312 30.6465C16.0309 30.5837 16.0818 30.5328 16.1445 30.5332ZM16.707 30.5332C16.7664 30.5336 16.8148 30.5797 16.8184 30.6387C16.8184 30.6424 16.8184 30.6427 16.8184 30.6465C16.8176 30.7077 16.7683 30.7571 16.707 30.7578C16.6451 30.7586 16.5942 30.7088 16.5937 30.6465C16.5934 30.5837 16.6443 30.5328 16.707 30.5332ZM17.2676 30.5332C17.3277 30.5324 17.3773 30.579 17.3809 30.6387C17.381 30.6424 17.381 30.6427 17.3809 30.6465C17.3801 30.7085 17.3296 30.7582 17.2676 30.7578C17.206 30.7574 17.1567 30.7077 17.1562 30.6465C17.1559 30.5841 17.2056 30.534 17.2676 30.5332ZM17.8301 30.5332C17.8902 30.5324 17.9398 30.579 17.9434 30.6387C17.9435 30.6424 17.9435 30.6427 17.9434 30.6465C17.9426 30.7085 17.8921 30.7582 17.8301 30.7578C17.7685 30.7574 17.7192 30.7077 17.7187 30.6465C17.7184 30.5841 17.7681 30.534 17.8301 30.5332ZM18.3926 30.5332C18.4527 30.5324 18.5023 30.579 18.5059 30.6387C18.5059 30.6424 18.5059 30.6427 18.5059 30.6465C18.5051 30.7085 18.4546 30.7582 18.3926 30.7578C18.331 30.7574 18.2817 30.7077 18.2812 30.6465C18.2809 30.5841 18.3306 30.534 18.3926 30.5332ZM18.9551 30.5332C19.0103 30.5328 19.0588 30.5725 19.0664 30.6269C19.067 30.6345 19.067 30.6389 19.0664 30.6465C19.0656 30.7077 19.0163 30.7574 18.9551 30.7578C18.8938 30.7574 18.8442 30.7077 18.8437 30.6465C18.843 30.5841 18.8931 30.534 18.9551 30.5332ZM19.5176 30.5332C19.5769 30.5336 19.6254 30.5797 19.6289 30.6387C19.629 30.6424 19.629 30.6427 19.6289 30.6465C19.6281 30.7077 19.5788 30.7571 19.5176 30.7578C19.4556 30.7586 19.4048 30.7088 19.4043 30.6465C19.4039 30.5837 19.4548 30.5328 19.5176 30.5332ZM20.0801 30.5332C20.1394 30.5336 20.1879 30.5797 20.1914 30.6387C20.1915 30.6424 20.1915 30.6427 20.1914 30.6465C20.1906 30.7077 20.1413 30.7571 20.0801 30.7578C20.0181 30.7586 19.9673 30.7088 19.9668 30.6465C19.9664 30.5837 20.0173 30.5328 20.0801 30.5332ZM20.6426 30.5332C20.7019 30.5336 20.7504 30.5797 20.7539 30.6387C20.754 30.6424 20.754 30.6427 20.7539 30.6465C20.7531 30.7077 20.7038 30.7571 20.6426 30.7578C20.5806 30.7586 20.5298 30.7088 20.5293 30.6465C20.5289 30.5837 20.5798 30.5328 20.6426 30.5332ZM21.2051 30.5332C21.2644 30.5336 21.3128 30.5797 21.3164 30.6387C21.3165 30.6424 21.3165 30.6427 21.3164 30.6465C21.3156 30.7077 21.2663 30.7571 21.2051 30.7578C21.1431 30.7586 21.0923 30.7088 21.0918 30.6465C21.0914 30.5837 21.1423 30.5328 21.2051 30.5332ZM21.7656 30.5332C21.8257 30.5324 21.8753 30.579 21.8789 30.6387C21.879 30.6424 21.879 30.6427 21.8789 30.6465C21.8781 30.7085 21.8276 30.7582 21.7656 30.7578C21.704 30.7574 21.6548 30.7077 21.6543 30.6465C21.6539 30.5841 21.7036 30.534 21.7656 30.5332ZM22.3281 30.5332C22.3882 30.5324 22.4378 30.579 22.4414 30.6387C22.4415 30.6424 22.4415 30.6427 22.4414 30.6465C22.4406 30.7085 22.3901 30.7582 22.3281 30.7578C22.2665 30.7574 22.2173 30.7077 22.2168 30.6465C22.2164 30.5841 22.2661 30.534 22.3281 30.5332ZM22.8906 30.5332C22.9534 30.5328 23.0045 30.5837 23.0039 30.6465C23.0031 30.7088 22.9526 30.7586 22.8906 30.7578C22.829 30.7571 22.7798 30.7077 22.7793 30.6465C22.7789 30.5841 22.8286 30.534 22.8906 30.5332ZM23.4531 30.5332C23.5079 30.5328 23.5569 30.5725 23.5645 30.6269C23.565 30.6345 23.565 30.6389 23.5645 30.6465C23.5641 30.7077 23.5144 30.7574 23.4531 30.7578C23.3915 30.7574 23.3423 30.7077 23.3418 30.6465C23.3414 30.5841 23.3911 30.534 23.4531 30.5332ZM24.0156 30.5332C24.0708 30.5328 24.1194 30.5725 24.127 30.6269C24.1275 30.6345 24.1275 30.6389 24.127 30.6465C24.1262 30.7077 24.0769 30.7574 24.0156 30.7578C23.9536 30.7586 23.9028 30.7085 23.9023 30.6465C23.902 30.5837 23.9529 30.5328 24.0156 30.5332ZM24.5781 30.5332C24.6375 30.5336 24.6859 30.5797 24.6895 30.6387C24.6895 30.6424 24.6895 30.6427 24.6895 30.6465C24.6887 30.7077 24.6393 30.7571 24.5781 30.7578C24.5161 30.7586 24.4653 30.7088 24.4648 30.6465C24.4645 30.5837 24.5154 30.5328 24.5781 30.5332ZM25.1406 30.5332C25.2 30.5336 25.2484 30.5797 25.252 30.6387C25.2521 30.6424 25.2521 30.6427 25.252 30.6465C25.2512 30.7077 25.2019 30.7571 25.1406 30.7578C25.0786 30.7586 25.0278 30.7088 25.0273 30.6465C25.027 30.5837 25.0779 30.5328 25.1406 30.5332ZM25.7012 30.5332C25.7613 30.5324 25.8109 30.579 25.8145 30.6387C25.8146 30.6424 25.8146 30.6427 25.8145 30.6465C25.8137 30.7085 25.7632 30.7582 25.7012 30.7578C25.6399 30.7574 25.5903 30.7077 25.5898 30.6465C25.5891 30.5841 25.6392 30.534 25.7012 30.5332ZM26.2637 30.5332C26.3238 30.5324 26.3734 30.579 26.377 30.6387C26.377 30.6424 26.377 30.6427 26.377 30.6465C26.3762 30.7085 26.3257 30.7582 26.2637 30.7578C26.2021 30.7574 26.1528 30.7077 26.1523 30.6465C26.152 30.5841 26.2017 30.534 26.2637 30.5332ZM26.8262 30.5332C26.8863 30.5324 26.9359 30.579 26.9395 30.6387C26.9395 30.6424 26.9395 30.6427 26.9395 30.6465C26.9387 30.7085 26.8882 30.7582 26.8262 30.7578C26.7646 30.7574 26.7153 30.7077 26.7148 30.6465C26.7145 30.5841 26.7642 30.534 26.8262 30.5332ZM27.3887 30.5332C27.4514 30.5328 27.5026 30.5837 27.502 30.6465C27.5012 30.7088 27.4507 30.7586 27.3887 30.7578C27.3271 30.7571 27.2778 30.7077 27.2773 30.6465C27.277 30.5841 27.3267 30.534 27.3887 30.5332ZM27.9512 30.5332C28.0064 30.5328 28.0549 30.5725 28.0625 30.6269C28.0631 30.6345 28.0631 30.6389 28.0625 30.6465C28.0617 30.7077 28.0124 30.7574 27.9512 30.7578C27.8899 30.7574 27.8403 30.7077 27.8398 30.6465C27.8391 30.5841 27.8892 30.534 27.9512 30.5332ZM28.5137 30.5332C28.573 30.5336 28.6214 30.5797 28.625 30.6387C28.6251 30.6424 28.6251 30.6427 28.625 30.6465C28.6242 30.7077 28.5749 30.7571 28.5137 30.7578C28.4517 30.7586 28.4009 30.7088 28.4004 30.6465C28.4 30.5837 28.4509 30.5328 28.5137 30.5332ZM29.0762 30.5332C29.1355 30.5336 29.1839 30.5797 29.1875 30.6387C29.1876 30.6424 29.1876 30.6427 29.1875 30.6465C29.1867 30.7077 29.1374 30.7571 29.0762 30.7578C29.0142 30.7586 28.9634 30.7088 28.9629 30.6465C28.9625 30.5837 29.0134 30.5328 29.0762 30.5332ZM29.6387 30.5332C29.698 30.5336 29.7464 30.5797 29.75 30.6387C29.7501 30.6424 29.7501 30.6427 29.75 30.6465C29.7492 30.7077 29.6999 30.7571 29.6387 30.7578C29.5767 30.7586 29.5259 30.7088 29.5254 30.6465C29.525 30.5837 29.5759 30.5328 29.6387 30.5332ZM30.1992 30.5332C30.2593 30.5324 30.3089 30.579 30.3125 30.6387C30.3126 30.6424 30.3126 30.6427 30.3125 30.6465C30.3117 30.7085 30.2612 30.7582 30.1992 30.7578C30.1376 30.7574 30.0884 30.7077 30.0879 30.6465C30.0875 30.5841 30.1372 30.534 30.1992 30.5332ZM30.7617 30.5332C30.8218 30.5324 30.8714 30.579 30.875 30.6387C30.8751 30.6424 30.8751 30.6427 30.875 30.6465C30.8742 30.7085 30.8237 30.7582 30.7617 30.7578C30.7001 30.7574 30.6509 30.7077 30.6504 30.6465C30.65 30.5841 30.6997 30.534 30.7617 30.5332ZM31.3242 30.5332C31.3843 30.5324 31.4339 30.579 31.4375 30.6387C31.4376 30.6424 31.4376 30.6427 31.4375 30.6465C31.4367 30.7085 31.3862 30.7582 31.3242 30.7578C31.2626 30.7574 31.2134 30.7077 31.2129 30.6465C31.2125 30.5841 31.2622 30.534 31.3242 30.5332ZM31.8867 30.5332C31.9419 30.5328 31.9905 30.5725 31.998 30.6269C31.9986 30.6345 31.9986 30.6389 31.998 30.6465C31.9973 30.7077 31.9479 30.7574 31.8867 30.7578C31.8255 30.7574 31.7759 30.7077 31.7754 30.6465C31.7746 30.5841 31.8247 30.534 31.8867 30.5332ZM32.4492 30.5332C32.5044 30.5328 32.553 30.5725 32.5605 30.6269C32.5611 30.6345 32.5611 30.6389 32.5605 30.6465C32.5598 30.7077 32.5104 30.7574 32.4492 30.7578C32.3872 30.7586 32.3364 30.7085 32.3359 30.6465C32.3356 30.5837 32.3865 30.5328 32.4492 30.5332ZM33.0117 30.5332C33.0711 30.5336 33.1195 30.5797 33.123 30.6387C33.1231 30.6424 33.1231 30.6427 33.123 30.6465C33.1223 30.7077 33.0729 30.7571 33.0117 30.7578C32.9497 30.7586 32.8989 30.7088 32.8984 30.6465C32.8981 30.5837 32.949 30.5328 33.0117 30.5332ZM33.5742 30.5332C33.6332 30.5336 33.682 30.5797 33.6855 30.6387C33.6857 30.6424 33.6857 30.6427 33.6855 30.6465C33.6852 30.7077 33.6354 30.7571 33.5742 30.7578C33.5122 30.7586 33.4614 30.7088 33.4609 30.6465C33.4606 30.5837 33.5115 30.5328 33.5742 30.5332ZM34.1367 30.5332C34.1957 30.5336 34.2445 30.5797 34.248 30.6387C34.2482 30.6424 34.2482 30.6427 34.248 30.6465C34.2477 30.7077 34.1979 30.7571 34.1367 30.7578C34.0747 30.7586 34.0239 30.7088 34.0234 30.6465C34.0231 30.5837 34.074 30.5328 34.1367 30.5332ZM34.6973 30.5332C34.7574 30.5324 34.807 30.579 34.8105 30.6387C34.8106 30.6424 34.8106 30.6427 34.8105 30.6465C34.8098 30.7085 34.7592 30.7582 34.6973 30.7578C34.6357 30.7574 34.5864 30.7077 34.5859 30.6465C34.5856 30.5841 34.6353 30.534 34.6973 30.5332ZM35.2598 30.5332C35.3199 30.5324 35.3695 30.579 35.373 30.6387C35.3731 30.6424 35.3731 30.6427 35.373 30.6465C35.3723 30.7085 35.3217 30.7582 35.2598 30.7578C35.1982 30.7574 35.1489 30.7077 35.1484 30.6465C35.1481 30.5841 35.1978 30.534 35.2598 30.5332ZM22.3945 35.543C22.6367 35.5396 22.8802 35.6296 23.0684 35.8125C23.4448 36.1787 23.4519 36.7759 23.0859 37.1523L21.2773 39.0117C20.9112 39.3893 20.3138 39.3968 19.9375 39.0293C19.5611 38.6631 19.554 38.0655 19.9199 37.6894L21.7285 35.832C21.9116 35.6438 22.1523 35.5464 22.3945 35.543ZM27.7852 35.543C28.0273 35.5396 28.2708 35.6296 28.459 35.8125C28.8354 36.1787 28.8445 36.7759 28.4785 37.1523L26.6699 39.0117C26.3038 39.3893 25.7063 39.3968 25.3301 39.0293C24.9536 38.6631 24.9446 38.0655 25.3105 37.6894L27.1191 35.832C27.3022 35.6438 27.543 35.5464 27.7852 35.543Z" fill="#333333"/>
</svg>
