<svg width="48" height="48" viewBox="0 0 48 48" fill="none" xmlns="http://www.w3.org/2000/svg">
<path d="M14.346 4.09377C13.476 4.09377 12.777 4.79277 12.777 5.66177V42.5228C12.777 43.3928 13.477 44.0928 14.346 44.0928H34.05C34.92 44.0928 35.618 43.3928 35.618 42.5228V5.66277C35.618 4.79277 34.919 4.09277 34.05 4.09277H14.346V4.09377ZM17.088 9.21377C17.2126 9.21212 17.3363 9.23512 17.4519 9.28146C17.5676 9.3278 17.673 9.39655 17.762 9.48377C17.8517 9.5702 17.9234 9.6735 17.973 9.78773C18.0226 9.90196 18.0491 10.0249 18.0511 10.1494C18.053 10.2739 18.0304 10.3976 17.9844 10.5134C17.9383 10.6291 17.8699 10.7346 17.783 10.8238L15.975 12.6838C15.8885 12.7734 15.7851 12.845 15.6709 12.8945C15.5566 12.9441 15.4337 12.9705 15.3091 12.9724C15.1846 12.9742 15.0609 12.9515 14.9452 12.9054C14.8295 12.8593 14.7241 12.7908 14.635 12.7038C14.5452 12.6174 14.4734 12.5142 14.4237 12.4C14.374 12.2858 14.3474 12.1629 14.3454 12.0383C14.3433 11.9138 14.3659 11.7901 14.4118 11.6743C14.4578 11.5586 14.5261 11.453 14.613 11.3638L16.422 9.50577C16.5084 9.41589 16.6117 9.344 16.726 9.29423C16.8403 9.24445 16.9633 9.21779 17.088 9.21577V9.21477V9.21377ZM21.088 9.21377C21.2126 9.21212 21.3363 9.23512 21.4519 9.28146C21.5676 9.3278 21.673 9.39655 21.762 9.48377C21.8517 9.5702 21.9234 9.6735 21.973 9.78773C22.0226 9.90196 22.0491 10.0249 22.0511 10.1494C22.053 10.2739 22.0304 10.3976 21.9844 10.5134C21.9383 10.6291 21.8699 10.7346 21.783 10.8238L19.975 12.6838C19.8885 12.7734 19.7851 12.845 19.6709 12.8945C19.5566 12.9441 19.4337 12.9705 19.3091 12.9724C19.1846 12.9742 19.0609 12.9515 18.9452 12.9054C18.8295 12.8593 18.7241 12.7908 18.635 12.7038C18.5452 12.6174 18.4734 12.5142 18.4237 12.4C18.374 12.2858 18.3474 12.1629 18.3454 12.0383C18.3433 11.9138 18.3659 11.7901 18.4118 11.6743C18.4578 11.5586 18.5261 11.453 18.613 11.3638L20.422 9.50577C20.5084 9.41589 20.6117 9.344 20.726 9.29423C20.8403 9.24445 20.9633 9.21779 21.088 9.21577V9.21477V9.21377ZM25.088 9.21377C25.2126 9.21212 25.3363 9.23512 25.4519 9.28146C25.5676 9.3278 25.673 9.39655 25.762 9.48377C25.8517 9.5702 25.9234 9.6735 25.973 9.78773C26.0226 9.90196 26.0491 10.0249 26.0511 10.1494C26.053 10.2739 26.0304 10.3976 25.9844 10.5134C25.9383 10.6291 25.8699 10.7346 25.783 10.8238L23.975 12.6838C23.8885 12.7734 23.7851 12.845 23.6709 12.8945C23.5566 12.9441 23.4337 12.9705 23.3091 12.9724C23.1846 12.9742 23.0609 12.9515 22.9452 12.9054C22.8295 12.8593 22.7241 12.7908 22.635 12.7038C22.5452 12.6174 22.4734 12.5142 22.4237 12.4C22.374 12.2858 22.3474 12.1629 22.3454 12.0383C22.3433 11.9138 22.3659 11.7901 22.4118 11.6743C22.4578 11.5586 22.5261 11.453 22.613 11.3638L24.422 9.50577C24.5084 9.41589 24.6117 9.344 24.726 9.29423C24.8403 9.24445 24.9633 9.21779 25.088 9.21577V9.21477V9.21377ZM29.088 9.21377C29.2126 9.21212 29.3363 9.23512 29.4519 9.28146C29.5676 9.3278 29.673 9.39655 29.762 9.48377C29.8517 9.5702 29.9234 9.6735 29.973 9.78773C30.0226 9.90196 30.0491 10.0249 30.0511 10.1494C30.053 10.2739 30.0304 10.3976 29.9844 10.5134C29.9383 10.6291 29.8699 10.7346 29.783 10.8238L27.975 12.6838C27.8885 12.7734 27.7851 12.845 27.6709 12.8945C27.5566 12.9441 27.4337 12.9705 27.3091 12.9724C27.1846 12.9742 27.0609 12.9515 26.9452 12.9054C26.8295 12.8593 26.7241 12.7908 26.635 12.7038C26.5452 12.6174 26.4734 12.5142 26.4237 12.4C26.374 12.2858 26.3474 12.1629 26.3454 12.0383C26.3433 11.9138 26.3659 11.7901 26.4118 11.6743C26.4578 11.5586 26.5261 11.453 26.613 11.3638L28.422 9.50577C28.5084 9.41589 28.6117 9.344 28.726 9.29423C28.8403 9.24445 28.9633 9.21779 29.088 9.21577V9.21477V9.21377ZM33.088 9.21377C33.2126 9.21212 33.3363 9.23512 33.4519 9.28146C33.5676 9.3278 33.673 9.39655 33.762 9.48377C33.8517 9.5702 33.9234 9.6735 33.973 9.78773C34.0226 9.90196 34.0491 10.0249 34.0511 10.1494C34.053 10.2739 34.0304 10.3976 33.9844 10.5134C33.9383 10.6291 33.8699 10.7346 33.783 10.8238L31.975 12.6838C31.8885 12.7734 31.7851 12.845 31.6709 12.8945C31.5566 12.9441 31.4337 12.9705 31.3091 12.9724C31.1846 12.9742 31.0609 12.9515 30.9452 12.9054C30.8295 12.8593 30.7241 12.7908 30.635 12.7038C30.5452 12.6174 30.4734 12.5142 30.4237 12.4C30.374 12.2858 30.3474 12.1629 30.3454 12.0383C30.3433 11.9138 30.3659 11.7901 30.4118 11.6743C30.4578 11.5586 30.5261 11.453 30.613 11.3638L32.422 9.50577C32.5084 9.41589 32.6117 9.344 32.726 9.29423C32.8403 9.24445 32.9633 9.21779 33.088 9.21577V9.21477V9.21377ZM13.795 14.9798C13.8232 14.9824 13.8495 14.9955 13.8686 15.0165C13.8877 15.0375 13.8983 15.0649 13.8983 15.0933C13.8983 15.1217 13.8877 15.149 13.8686 15.17C13.8495 15.191 13.8232 15.2041 13.795 15.2068C13.7654 15.206 13.7374 15.1938 13.7166 15.1727C13.6959 15.1516 13.6842 15.1233 13.684 15.0938C13.684 15.0308 13.733 14.9808 13.794 14.9798H13.795ZM14.357 14.9798C14.3839 14.979 14.4102 14.9881 14.4309 15.0055C14.4515 15.0228 14.4651 15.0471 14.469 15.0738V15.0938C14.468 15.1548 14.419 15.2068 14.357 15.2068C14.3272 15.2063 14.2987 15.1942 14.2776 15.1731C14.2566 15.152 14.2445 15.1236 14.244 15.0938C14.244 15.0308 14.295 14.9808 14.357 14.9798ZM14.92 14.9798C14.9468 14.9792 14.9728 14.9885 14.9932 15.0058C15.0137 15.0231 15.0271 15.0473 15.031 15.0738V15.0938C15.031 15.1548 14.981 15.2068 14.92 15.2068C14.8901 15.2065 14.8615 15.1945 14.8404 15.1734C14.8192 15.1523 14.8072 15.1237 14.807 15.0938C14.807 15.0308 14.857 14.9798 14.92 14.9798ZM15.482 14.9798C15.4969 14.9798 15.5116 14.9827 15.5253 14.9885C15.539 14.9942 15.5515 15.0027 15.5619 15.0133C15.5723 15.0239 15.5805 15.0365 15.586 15.0503C15.5915 15.0641 15.5942 15.0789 15.594 15.0938C15.593 15.1548 15.544 15.2068 15.482 15.2068C15.4521 15.2065 15.4235 15.1945 15.4024 15.1734C15.3812 15.1523 15.3692 15.1237 15.369 15.0938C15.369 15.0308 15.419 14.9798 15.482 14.9798ZM16.045 14.9798C16.0598 14.9799 16.0744 14.983 16.088 14.9888C16.1016 14.9946 16.1139 15.003 16.1242 15.0136C16.1346 15.0242 16.1427 15.0368 16.1481 15.0505C16.1536 15.0643 16.1562 15.079 16.156 15.0938C16.156 15.1548 16.106 15.2068 16.045 15.2068C16.0151 15.2065 15.9865 15.1945 15.9654 15.1734C15.9442 15.1523 15.9322 15.1237 15.932 15.0938C15.932 15.0308 15.982 14.9798 16.045 14.9798ZM16.607 14.9798C16.6219 14.9798 16.6366 14.9827 16.6503 14.9885C16.664 14.9942 16.6765 15.0027 16.6869 15.0133C16.6973 15.0239 16.7055 15.0365 16.711 15.0503C16.7165 15.0641 16.7192 15.0789 16.719 15.0938C16.718 15.1548 16.669 15.2068 16.607 15.2068C16.5771 15.2065 16.5485 15.1945 16.5274 15.1734C16.5062 15.1523 16.4942 15.1237 16.494 15.0938C16.494 15.0308 16.544 14.9798 16.607 14.9798ZM17.168 14.9798C17.1829 14.9796 17.1978 14.9825 17.2116 14.9882C17.2254 14.9939 17.238 15.0023 17.2485 15.0129C17.2591 15.0235 17.2674 15.0362 17.2729 15.0501C17.2785 15.064 17.2812 15.0788 17.281 15.0938C17.2807 15.1237 17.2687 15.1523 17.2476 15.1734C17.2265 15.1945 17.1979 15.2065 17.168 15.2068C17.1384 15.206 17.1104 15.1938 17.0896 15.1727C17.0689 15.1516 17.0572 15.1233 17.057 15.0938C17.057 15.0308 17.106 14.9808 17.168 14.9798ZM17.731 14.9798C17.7459 14.9796 17.7608 14.9825 17.7746 14.9882C17.7884 14.9939 17.801 15.0023 17.8115 15.0129C17.8221 15.0235 17.8304 15.0362 17.8359 15.0501C17.8415 15.064 17.8442 15.0788 17.844 15.0938C17.8437 15.1238 17.8316 15.1526 17.8102 15.1737C17.7889 15.1949 17.76 15.2068 17.73 15.2068C17.7006 15.2057 17.6728 15.1934 17.6523 15.1724C17.6318 15.1513 17.6202 15.1232 17.62 15.0938C17.619 15.0308 17.669 14.9808 17.73 14.9798H17.731ZM18.293 14.9798C18.3079 14.9796 18.3228 14.9825 18.3366 14.9882C18.3504 14.9939 18.363 15.0023 18.3735 15.0129C18.3841 15.0235 18.3924 15.0362 18.3979 15.0501C18.4035 15.064 18.4062 15.0788 18.406 15.0938C18.4057 15.1237 18.3937 15.1523 18.3726 15.1734C18.3515 15.1945 18.3229 15.2065 18.293 15.2068C18.2634 15.206 18.2354 15.1938 18.2146 15.1727C18.1939 15.1516 18.1822 15.1233 18.182 15.0938C18.182 15.0308 18.231 14.9808 18.293 14.9798ZM18.856 14.9798C18.8826 14.9795 18.9084 14.9889 18.9286 15.0061C18.9488 15.0234 18.9621 15.0475 18.966 15.0738V15.0938C18.966 15.1548 18.916 15.2068 18.856 15.2068C18.8263 15.2063 18.7979 15.1941 18.777 15.173C18.7561 15.1519 18.7442 15.1235 18.744 15.0938C18.744 15.0308 18.794 14.9808 18.855 14.9798H18.856ZM19.418 14.9798C19.4328 14.9799 19.4474 14.983 19.461 14.9888C19.4746 14.9946 19.4869 15.003 19.4972 15.0136C19.5076 15.0242 19.5157 15.0368 19.5211 15.0505C19.5266 15.0643 19.5292 15.079 19.529 15.0938C19.529 15.1548 19.479 15.2068 19.418 15.2068C19.3881 15.2065 19.3595 15.1945 19.3384 15.1734C19.3172 15.1523 19.3052 15.1237 19.305 15.0938C19.305 15.0308 19.355 14.9798 19.418 14.9798ZM19.981 14.9798C19.9957 14.98 20.0102 14.9832 20.0237 14.9891C20.0372 14.9949 20.0494 15.0034 20.0596 15.014C20.0698 15.0246 20.0778 15.0371 20.0832 15.0508C20.0886 15.0644 20.0912 15.0791 20.091 15.0938C20.091 15.1548 20.041 15.2068 19.981 15.2068C19.9509 15.2068 19.9221 15.1949 19.9007 15.1737C19.8794 15.1526 19.8672 15.1238 19.867 15.0938C19.867 15.0308 19.917 14.9798 19.98 14.9798H19.981ZM20.543 14.9798C20.5578 14.9799 20.5724 14.983 20.586 14.9888C20.5996 14.9946 20.6119 15.003 20.6222 15.0136C20.6326 15.0242 20.6407 15.0368 20.6461 15.0505C20.6516 15.0643 20.6542 15.079 20.654 15.0938C20.654 15.1548 20.604 15.2068 20.543 15.2068C20.5131 15.2065 20.4845 15.1945 20.4634 15.1734C20.4422 15.1523 20.4302 15.1237 20.43 15.0938C20.43 15.0308 20.48 14.9798 20.543 14.9798ZM21.106 14.9798C21.1207 14.98 21.1352 14.9832 21.1487 14.9891C21.1622 14.9949 21.1744 15.0034 21.1846 15.014C21.1948 15.0246 21.2028 15.0371 21.2082 15.0508C21.2136 15.0644 21.2162 15.0791 21.216 15.0938C21.216 15.1548 21.166 15.2068 21.106 15.2068C21.0759 15.2068 21.0471 15.1949 21.0257 15.1737C21.0044 15.1526 20.9922 15.1238 20.992 15.0938C20.992 15.0308 21.042 14.9798 21.105 14.9798H21.106ZM21.666 14.9798C21.6809 14.9796 21.6958 14.9825 21.7096 14.9882C21.7235 14.9939 21.736 15.0023 21.7465 15.0129C21.7571 15.0235 21.7654 15.0362 21.7709 15.0501C21.7765 15.064 21.7792 15.0788 21.779 15.0938C21.7787 15.1237 21.7667 15.1523 21.7456 15.1734C21.7245 15.1945 21.6959 15.2065 21.666 15.2068C21.6364 15.206 21.6084 15.1938 21.5876 15.1727C21.5669 15.1516 21.5552 15.1233 21.555 15.0938C21.555 15.0308 21.604 14.9808 21.666 14.9798ZM22.229 14.9798C22.2439 14.9796 22.2588 14.9825 22.2726 14.9882C22.2865 14.9939 22.299 15.0023 22.3095 15.0129C22.3201 15.0235 22.3284 15.0362 22.3339 15.0501C22.3395 15.064 22.3422 15.0788 22.342 15.0938C22.3417 15.1237 22.3297 15.1523 22.3086 15.1734C22.2875 15.1945 22.2589 15.2065 22.229 15.2068C22.1993 15.2063 22.1709 15.1941 22.15 15.173C22.1291 15.1519 22.1172 15.1235 22.117 15.0938C22.117 15.0308 22.167 14.9808 22.228 14.9798H22.229ZM22.791 14.9798C22.8192 14.9824 22.8455 14.9955 22.8646 15.0165C22.8837 15.0375 22.8943 15.0649 22.8943 15.0933C22.8943 15.1217 22.8837 15.149 22.8646 15.17C22.8455 15.191 22.8192 15.2041 22.791 15.2068C22.7614 15.206 22.7334 15.1938 22.7126 15.1727C22.6919 15.1516 22.6802 15.1233 22.68 15.0938C22.68 15.0308 22.729 14.9808 22.791 14.9798ZM23.354 14.9798C23.408 14.9798 23.457 15.0198 23.464 15.0738V15.0938C23.464 15.1548 23.414 15.2068 23.354 15.2068C23.3243 15.2063 23.2959 15.1941 23.275 15.173C23.2541 15.1519 23.2422 15.1235 23.242 15.0938C23.242 15.0308 23.292 14.9808 23.353 14.9798H23.354ZM23.916 14.9798C23.9428 14.9792 23.9688 14.9885 23.9892 15.0058C24.0097 15.0231 24.0231 15.0473 24.027 15.0738V15.0938C24.027 15.1548 23.977 15.2068 23.916 15.2068C23.8861 15.2065 23.8575 15.1945 23.8364 15.1734C23.8152 15.1523 23.8032 15.1237 23.803 15.0938C23.803 15.0308 23.853 14.9798 23.916 14.9798ZM24.479 14.9798C24.4937 14.98 24.5082 14.9832 24.5217 14.9891C24.5352 14.9949 24.5474 15.0034 24.5576 15.014C24.5678 15.0246 24.5758 15.0371 24.5812 15.0508C24.5866 15.0644 24.5892 15.0791 24.589 15.0938C24.589 15.1548 24.539 15.2068 24.479 15.2068C24.4489 15.2068 24.4201 15.1949 24.3987 15.1737C24.3774 15.1526 24.3652 15.1238 24.365 15.0938C24.365 15.0308 24.415 14.9798 24.479 14.9798ZM25.041 14.9798C25.0558 14.9799 25.0704 14.983 25.084 14.9888C25.0976 14.9946 25.1099 15.003 25.1202 15.0136C25.1306 15.0242 25.1387 15.0368 25.1441 15.0505C25.1496 15.0643 25.1522 15.079 25.152 15.0938C25.152 15.1548 25.102 15.2068 25.041 15.2068C25.0111 15.2065 24.9825 15.1945 24.9614 15.1734C24.9402 15.1523 24.9282 15.1237 24.928 15.0938C24.928 15.0308 24.978 14.9798 25.041 14.9798ZM25.601 14.9798C25.616 14.9795 25.631 14.9823 25.6449 14.9879C25.6589 14.9935 25.6716 15.0019 25.6822 15.0126C25.6928 15.0232 25.7012 15.0359 25.7069 15.0498C25.7125 15.0638 25.7152 15.0787 25.715 15.0938C25.7147 15.1237 25.7027 15.1523 25.6816 15.1734C25.6605 15.1945 25.6319 15.2065 25.602 15.2068C25.5723 15.2063 25.5439 15.1941 25.523 15.173C25.5021 15.1519 25.4902 15.1235 25.49 15.0938C25.49 15.0308 25.54 14.9808 25.602 14.9798H25.601ZM26.164 14.9798C26.1789 14.9796 26.1938 14.9825 26.2076 14.9882C26.2214 14.9939 26.234 15.0023 26.2445 15.0129C26.2551 15.0235 26.2634 15.0362 26.2689 15.0501C26.2745 15.064 26.2772 15.0788 26.277 15.0938C26.2767 15.1237 26.2647 15.1523 26.2436 15.1734C26.2225 15.1945 26.1939 15.2065 26.164 15.2068C26.1344 15.206 26.1064 15.1938 26.0856 15.1727C26.0649 15.1516 26.0532 15.1233 26.053 15.0938C26.053 15.0308 26.103 14.9808 26.164 14.9798ZM26.727 14.9798C26.7419 14.9796 26.7568 14.9825 26.7706 14.9882C26.7844 14.9939 26.797 15.0023 26.8075 15.0129C26.8181 15.0235 26.8264 15.0362 26.8319 15.0501C26.8375 15.064 26.8402 15.0788 26.84 15.0938C26.8397 15.1237 26.8277 15.1523 26.8066 15.1734C26.7855 15.1945 26.7569 15.2065 26.727 15.2068C26.6973 15.2063 26.6689 15.1941 26.648 15.173C26.6271 15.1519 26.6152 15.1235 26.615 15.0938C26.615 15.0308 26.665 14.9808 26.727 14.9798ZM27.289 14.9798C27.3172 14.9824 27.3435 14.9955 27.3626 15.0165C27.3817 15.0375 27.3923 15.0649 27.3923 15.0933C27.3923 15.1217 27.3817 15.149 27.3626 15.17C27.3435 15.191 27.3172 15.2041 27.289 15.2068C27.2594 15.206 27.2314 15.1938 27.2106 15.1727C27.1899 15.1516 27.1782 15.1233 27.178 15.0938C27.178 15.0308 27.228 14.9808 27.289 14.9798ZM27.852 14.9798C27.8786 14.9795 27.9044 14.9889 27.9246 15.0061C27.9448 15.0234 27.9581 15.0475 27.962 15.0738C27.964 15.0818 27.964 15.0858 27.962 15.0938C27.962 15.1548 27.912 15.2068 27.852 15.2068C27.8223 15.2063 27.7939 15.1941 27.773 15.173C27.7521 15.1519 27.7402 15.1235 27.74 15.0938C27.74 15.0308 27.79 14.9808 27.852 14.9798ZM28.414 14.9798C28.4288 14.9799 28.4434 14.983 28.457 14.9888C28.4706 14.9946 28.4829 15.003 28.4932 15.0136C28.5036 15.0242 28.5117 15.0368 28.5171 15.0505C28.5226 15.0643 28.5252 15.079 28.525 15.0938C28.525 15.1548 28.475 15.2068 28.415 15.2068C28.3849 15.2068 28.3561 15.1949 28.3347 15.1737C28.3134 15.1526 28.3012 15.1238 28.301 15.0938C28.301 15.0308 28.351 14.9798 28.414 14.9798ZM28.977 14.9798C28.9917 14.98 29.0062 14.9832 29.0197 14.9891C29.0332 14.9949 29.0454 15.0034 29.0556 15.014C29.0658 15.0246 29.0738 15.0371 29.0792 15.0508C29.0846 15.0644 29.0872 15.0791 29.087 15.0938C29.087 15.1548 29.037 15.2068 28.977 15.2068C28.9469 15.2068 28.9181 15.1949 28.8967 15.1737C28.8754 15.1526 28.8632 15.1238 28.863 15.0938C28.863 15.0308 28.913 14.9798 28.977 14.9798ZM29.539 14.9798C29.5538 14.9799 29.5684 14.983 29.582 14.9888C29.5956 14.9946 29.6079 15.003 29.6182 15.0136C29.6286 15.0242 29.6367 15.0368 29.6421 15.0505C29.6476 15.0643 29.6502 15.079 29.65 15.0938C29.65 15.1548 29.6 15.2068 29.54 15.2068C29.5099 15.2068 29.4811 15.1949 29.4597 15.1737C29.4384 15.1526 29.4262 15.1238 29.426 15.0938C29.426 15.0308 29.476 14.9798 29.539 14.9798ZM30.099 14.9798C30.114 14.9795 30.129 14.9823 30.1429 14.9879C30.1569 14.9935 30.1695 15.0019 30.1802 15.0126C30.1908 15.0232 30.1992 15.0359 30.2049 15.0498C30.2105 15.0638 30.2132 15.0787 30.213 15.0938C30.2127 15.1237 30.2007 15.1523 30.1796 15.1734C30.1585 15.1945 30.1299 15.2065 30.1 15.2068C30.0703 15.2063 30.0419 15.1941 30.021 15.173C30.0001 15.1519 29.9882 15.1235 29.988 15.0938C29.988 15.0308 30.038 14.9808 30.1 14.9798H30.099ZM30.662 14.9798C30.6769 14.9796 30.6918 14.9825 30.7056 14.9882C30.7194 14.9939 30.732 15.0023 30.7425 15.0129C30.7531 15.0235 30.7614 15.0362 30.7669 15.0501C30.7725 15.064 30.7752 15.0788 30.775 15.0938C30.7747 15.1237 30.7627 15.1523 30.7416 15.1734C30.7205 15.1945 30.6919 15.2065 30.662 15.2068C30.6324 15.206 30.6044 15.1938 30.5836 15.1727C30.5629 15.1516 30.5512 15.1233 30.551 15.0938C30.551 15.0308 30.601 14.9808 30.662 14.9798ZM31.225 14.9798C31.2399 14.9796 31.2548 14.9825 31.2686 14.9882C31.2824 14.9939 31.295 15.0023 31.3055 15.0129C31.3161 15.0235 31.3244 15.0362 31.3299 15.0501C31.3355 15.064 31.3382 15.0788 31.338 15.0938C31.3377 15.1237 31.3257 15.1523 31.3046 15.1734C31.2835 15.1945 31.2549 15.2065 31.225 15.2068C31.1953 15.2063 31.1669 15.1941 31.146 15.173C31.1251 15.1519 31.1132 15.1235 31.113 15.0938C31.113 15.0308 31.163 14.9808 31.225 14.9798ZM31.787 14.9798C31.8138 14.9792 31.8398 14.9885 31.8602 15.0058C31.8807 15.0231 31.8941 15.0473 31.898 15.0738V15.0938C31.898 15.1548 31.848 15.2068 31.788 15.2068C31.7583 15.2063 31.7299 15.1941 31.709 15.173C31.6881 15.1519 31.6762 15.1235 31.676 15.0938C31.675 15.0308 31.726 14.9808 31.787 14.9798ZM32.35 14.9798C32.3766 14.9795 32.4024 14.9889 32.4226 15.0061C32.4428 15.0234 32.4561 15.0475 32.46 15.0738C32.462 15.0818 32.462 15.0858 32.46 15.0938C32.46 15.1548 32.41 15.2068 32.35 15.2068C32.3199 15.2068 32.2911 15.1949 32.2697 15.1737C32.2484 15.1526 32.2362 15.1238 32.236 15.0938C32.236 15.0308 32.286 14.9798 32.35 14.9798ZM32.912 14.9798C32.9268 14.9799 32.9414 14.983 32.955 14.9888C32.9686 14.9946 32.9809 15.003 32.9912 15.0136C33.0016 15.0242 33.0097 15.0368 33.0151 15.0505C33.0206 15.0643 33.0232 15.079 33.023 15.0938C33.023 15.1548 32.973 15.2068 32.913 15.2068C32.8829 15.2068 32.8541 15.1949 32.8327 15.1737C32.8114 15.1526 32.7992 15.1238 32.799 15.0938C32.799 15.0308 32.849 14.9798 32.912 14.9798ZM33.475 14.9798C33.4897 14.98 33.5042 14.9832 33.5177 14.9891C33.5312 14.9949 33.5434 15.0034 33.5536 15.014C33.5638 15.0246 33.5718 15.0371 33.5772 15.0508C33.5826 15.0644 33.5852 15.0791 33.585 15.0938C33.585 15.1548 33.535 15.2068 33.475 15.2068C33.4449 15.2068 33.4161 15.1949 33.3947 15.1737C33.3734 15.1526 33.3612 15.1238 33.361 15.0938C33.361 15.0308 33.411 14.9798 33.475 14.9798ZM34.037 14.9798C34.0518 14.9799 34.0664 14.983 34.08 14.9888C34.0936 14.9946 34.1059 15.003 34.1162 15.0136C34.1266 15.0242 34.1347 15.0368 34.1401 15.0505C34.1456 15.0643 34.1482 15.079 34.148 15.0938C34.148 15.1548 34.098 15.2068 34.038 15.2068C34.0079 15.2068 33.9791 15.1949 33.9577 15.1737C33.9364 15.1526 33.9242 15.1238 33.924 15.0938C33.924 15.0308 33.974 14.9798 34.037 14.9798ZM34.597 14.9798C34.612 14.9795 34.627 14.9823 34.6409 14.9879C34.6549 14.9935 34.6676 15.0019 34.6782 15.0126C34.6888 15.0232 34.6972 15.0359 34.7029 15.0498C34.7085 15.0638 34.7112 15.0787 34.711 15.0938C34.7107 15.1237 34.6987 15.1523 34.6776 15.1734C34.6565 15.1945 34.6279 15.2065 34.598 15.2068C34.5683 15.2063 34.5399 15.1941 34.519 15.173C34.4981 15.1519 34.4862 15.1235 34.486 15.0938C34.486 15.0308 34.536 14.9808 34.598 14.9798H34.597ZM17.09 17.8798C17.2146 17.8782 17.3382 17.9012 17.4539 17.9475C17.5696 17.9939 17.6749 18.0626 17.764 18.1498C17.8536 18.2363 17.9252 18.3396 17.9747 18.4539C18.0243 18.5682 18.0507 18.6911 18.0526 18.8156C18.0545 18.9401 18.0317 19.0638 17.9856 19.1795C17.9395 19.2952 17.871 19.4006 17.784 19.4898L15.974 21.3498C15.8876 21.4396 15.7843 21.5115 15.67 21.5611C15.5558 21.6108 15.4328 21.6374 15.3081 21.6392C15.1835 21.6411 15.0598 21.6182 14.9441 21.572C14.8284 21.5257 14.723 21.457 14.634 21.3698C14.5444 21.2833 14.4727 21.1799 14.4232 21.0657C14.3737 20.9514 14.3472 20.8285 14.3454 20.7039C14.3435 20.5794 14.3663 20.4557 14.4124 20.34C14.4585 20.2243 14.527 20.1189 14.614 20.0298L16.422 18.1718C16.5084 18.0819 16.6117 18.01 16.726 17.9602C16.8403 17.9105 16.9633 17.8838 17.088 17.8818L17.09 17.8808V17.8798ZM25.088 17.8798C25.2126 17.8781 25.3363 17.9011 25.4519 17.9475C25.5676 17.9938 25.673 18.0626 25.762 18.1498C25.8517 18.2362 25.9234 18.3395 25.973 18.4537C26.0226 18.568 26.0491 18.6909 26.0511 18.8154C26.053 18.9399 26.0304 19.0636 25.9844 19.1794C25.9383 19.2951 25.8699 19.4006 25.783 19.4898L23.975 21.3498C23.8886 21.4396 23.7853 21.5115 23.671 21.5611C23.5568 21.6108 23.4338 21.6374 23.3091 21.6392C23.1845 21.6411 23.0608 21.6182 22.9451 21.572C22.8294 21.5257 22.724 21.457 22.635 21.3698C22.5452 21.2834 22.4734 21.1802 22.4237 21.066C22.374 20.9518 22.3474 20.8289 22.3454 20.7043C22.3433 20.5798 22.3659 20.4561 22.4118 20.3403C22.4578 20.2246 22.5261 20.119 22.613 20.0298L24.422 18.1718C24.5084 18.0819 24.6117 18.01 24.726 17.9602C24.8403 17.9105 24.9633 17.8838 25.088 17.8818V17.8808V17.8798ZM29.088 17.8798C29.2126 17.8781 29.3363 17.9011 29.4519 17.9475C29.5676 17.9938 29.673 18.0626 29.762 18.1498C29.8517 18.2362 29.9234 18.3395 29.973 18.4537C30.0226 18.568 30.0491 18.6909 30.0511 18.8154C30.053 18.9399 30.0304 19.0636 29.9844 19.1794C29.9383 19.2951 29.8699 19.4006 29.783 19.4898L27.975 21.3498C27.8886 21.4396 27.7853 21.5115 27.671 21.5611C27.5568 21.6108 27.4338 21.6374 27.3091 21.6392C27.1845 21.6411 27.0608 21.6182 26.9451 21.572C26.8294 21.5257 26.724 21.457 26.635 21.3698C26.5452 21.2834 26.4734 21.1802 26.4237 21.066C26.374 20.9518 26.3474 20.8289 26.3454 20.7043C26.3433 20.5798 26.3659 20.4561 26.4118 20.3403C26.4578 20.2246 26.5261 20.119 26.613 20.0298L28.422 18.1718C28.5084 18.0819 28.6117 18.01 28.726 17.9602C28.8403 17.9105 28.9633 17.8838 29.088 17.8818V17.8808V17.8798ZM33.088 17.8798C33.2126 17.8781 33.3363 17.9011 33.4519 17.9475C33.5676 17.9938 33.673 18.0626 33.762 18.1498C33.8517 18.2362 33.9234 18.3395 33.973 18.4537C34.0226 18.568 34.0491 18.6909 34.0511 18.8154C34.053 18.9399 34.0304 19.0636 33.9844 19.1794C33.9383 19.2951 33.8699 19.4006 33.783 19.4898L31.975 21.3498C31.8886 21.4396 31.7853 21.5115 31.671 21.5611C31.5568 21.6108 31.4338 21.6374 31.3091 21.6392C31.1845 21.6411 31.0608 21.6182 30.9451 21.572C30.8294 21.5257 30.724 21.457 30.635 21.3698C30.5452 21.2834 30.4734 21.1802 30.4237 21.066C30.374 20.9518 30.3474 20.8289 30.3454 20.7043C30.3433 20.5798 30.3659 20.4561 30.4118 20.3403C30.4578 20.2246 30.5261 20.119 30.613 20.0298L32.422 18.1718C32.5084 18.0819 32.6117 18.01 32.726 17.9602C32.8403 17.9105 32.9633 17.8838 33.088 17.8818V17.8808V17.8798ZM21.088 17.8828C21.2126 17.8811 21.3363 17.9041 21.4519 17.9505C21.5676 17.9968 21.673 18.0656 21.762 18.1528C21.8517 18.2392 21.9234 18.3425 21.973 18.4567C22.0226 18.571 22.0491 18.6939 22.0511 18.8184C22.053 18.9429 22.0304 19.0666 21.9844 19.1824C21.9383 19.2981 21.8699 19.4036 21.783 19.4928L19.975 21.3498C19.8886 21.4396 19.7853 21.5115 19.671 21.5611C19.5568 21.6108 19.4338 21.6374 19.3091 21.6392C19.1845 21.6411 19.0608 21.6182 18.9451 21.572C18.8294 21.5257 18.724 21.457 18.635 21.3698C18.5452 21.2834 18.4734 21.1802 18.4237 21.066C18.374 20.9518 18.3474 20.8289 18.3454 20.7043C18.3433 20.5798 18.3659 20.4561 18.4118 20.3403C18.4578 20.2246 18.5261 20.119 18.613 20.0298L20.422 18.1718C20.5084 18.0819 20.6117 18.01 20.726 17.9602C20.8403 17.9105 20.9633 17.8838 21.088 17.8818V17.8828ZM13.795 23.9808C13.858 23.9808 13.909 24.0308 13.908 24.0938C13.9077 24.1237 13.8957 24.1523 13.8746 24.1734C13.8535 24.1945 13.8249 24.2065 13.795 24.2068C13.7654 24.206 13.7374 24.1938 13.7166 24.1727C13.6959 24.1516 13.6842 24.1233 13.684 24.0938C13.684 24.0308 13.733 23.9808 13.794 23.9798L13.795 23.9808ZM14.357 23.9808C14.3838 23.98 14.4099 23.989 14.4306 24.0061C14.4512 24.0232 14.4648 24.0473 14.469 24.0738V24.0938C14.468 24.1548 14.419 24.2068 14.357 24.2068C14.3272 24.2063 14.2987 24.1942 14.2776 24.1731C14.2566 24.152 14.2445 24.1236 14.244 24.0938C14.244 24.0308 14.295 23.9808 14.357 23.9798V23.9808ZM14.92 23.9808C14.9466 23.9802 14.9725 23.9893 14.9929 24.0064C15.0134 24.0235 15.0269 24.0475 15.031 24.0738V24.0938C15.031 24.1548 14.981 24.2068 14.92 24.2068C14.8901 24.2065 14.8615 24.1945 14.8404 24.1734C14.8192 24.1523 14.8072 24.1237 14.807 24.0938C14.807 24.0308 14.857 23.9798 14.92 23.9798V23.9808ZM15.482 23.9808C15.4968 23.9808 15.5114 23.9837 15.5251 23.9894C15.5387 23.9951 15.5511 24.0034 15.5615 24.0139C15.5719 24.0244 15.5802 24.0369 15.5857 24.0506C15.5913 24.0643 15.5941 24.079 15.594 24.0938C15.593 24.1548 15.544 24.2068 15.482 24.2068C15.4521 24.2065 15.4235 24.1945 15.4024 24.1734C15.3812 24.1523 15.3692 24.1237 15.369 24.0938C15.369 24.0308 15.419 23.9798 15.482 23.9798V23.9808ZM16.045 23.9808C16.0597 23.9809 16.0742 23.9839 16.0878 23.9897C16.1013 23.9954 16.1136 24.0038 16.1239 24.0143C16.1342 24.0248 16.1423 24.0372 16.1478 24.0508C16.1533 24.0645 16.1561 24.0791 16.156 24.0938C16.156 24.1548 16.106 24.2068 16.045 24.2068C16.0151 24.2065 15.9865 24.1945 15.9654 24.1734C15.9442 24.1523 15.9322 24.1237 15.932 24.0938C15.932 24.0308 15.982 23.9798 16.045 23.9798V23.9808ZM16.607 23.9808C16.6218 23.9808 16.6364 23.9837 16.6501 23.9894C16.6637 23.9951 16.6761 24.0034 16.6865 24.0139C16.6969 24.0244 16.7052 24.0369 16.7107 24.0506C16.7163 24.0643 16.7191 24.079 16.719 24.0938C16.718 24.1548 16.669 24.2068 16.607 24.2068C16.5771 24.2065 16.5485 24.1945 16.5274 24.1734C16.5062 24.1523 16.4942 24.1237 16.494 24.0938C16.494 24.0308 16.544 23.9798 16.607 23.9798V23.9808ZM17.168 23.9808C17.1829 23.9806 17.1976 23.9835 17.2114 23.9891C17.2251 23.9947 17.2377 24.0031 17.2482 24.0136C17.2587 24.0241 17.267 24.0366 17.2726 24.0504C17.2783 24.0641 17.2811 24.0789 17.281 24.0938C17.2807 24.1237 17.2687 24.1523 17.2476 24.1734C17.2265 24.1945 17.1979 24.2065 17.168 24.2068C17.1384 24.206 17.1104 24.1938 17.0896 24.1727C17.0689 24.1516 17.0572 24.1233 17.057 24.0938C17.057 24.0308 17.106 23.9808 17.168 23.9798V23.9808ZM17.731 23.9808C17.7459 23.9806 17.7606 23.9835 17.7744 23.9891C17.7881 23.9947 17.8007 24.0031 17.8112 24.0136C17.8217 24.0241 17.83 24.0366 17.8356 24.0504C17.8413 24.0641 17.8441 24.0789 17.844 24.0938C17.8437 24.1238 17.8316 24.1526 17.8102 24.1737C17.7889 24.1949 17.76 24.2068 17.73 24.2068C17.7006 24.2057 17.6728 24.1934 17.6523 24.1724C17.6318 24.1513 17.6202 24.1232 17.62 24.0938C17.619 24.0308 17.669 23.9808 17.73 23.9798L17.731 23.9808ZM18.293 23.9808C18.3079 23.9806 18.3226 23.9835 18.3364 23.9891C18.3501 23.9947 18.3627 24.0031 18.3732 24.0136C18.3837 24.0241 18.392 24.0366 18.3976 24.0504C18.4033 24.0641 18.4061 24.0789 18.406 24.0938C18.4057 24.1237 18.3937 24.1523 18.3726 24.1734C18.3515 24.1945 18.3229 24.2065 18.293 24.2068C18.2634 24.206 18.2354 24.1938 18.2146 24.1727C18.1939 24.1516 18.1822 24.1233 18.182 24.0938C18.182 24.0308 18.231 23.9808 18.293 23.9798V23.9808ZM18.856 23.9808C18.8824 23.9805 18.9081 23.9897 18.9283 24.0068C18.9485 24.0238 18.9619 24.0476 18.966 24.0738V24.0938C18.966 24.1548 18.916 24.2068 18.856 24.2068C18.8263 24.2063 18.7979 24.1942 18.777 24.173C18.7561 24.1519 18.7442 24.1235 18.744 24.0938C18.744 24.0308 18.794 23.9808 18.855 23.9798L18.856 23.9808ZM19.418 23.9808C19.4327 23.9809 19.4472 23.9839 19.4608 23.9897C19.4743 23.9954 19.4866 24.0038 19.4969 24.0143C19.5072 24.0248 19.5153 24.0372 19.5208 24.0508C19.5263 24.0645 19.5291 24.0791 19.529 24.0938C19.529 24.1548 19.479 24.2068 19.418 24.2068C19.3881 24.2065 19.3595 24.1945 19.3384 24.1734C19.3172 24.1523 19.3052 24.1237 19.305 24.0938C19.305 24.0308 19.355 23.9798 19.418 23.9798V23.9808ZM19.981 23.9808C20.0105 23.9813 20.0386 23.9935 20.0592 24.0146C20.0798 24.0358 20.0912 24.0642 20.091 24.0938C20.091 24.1548 20.041 24.2068 19.981 24.2068C19.9509 24.2068 19.9221 24.1949 19.9007 24.1737C19.8794 24.1526 19.8672 24.1238 19.867 24.0938C19.867 24.0308 19.917 23.9798 19.98 23.9798L19.981 23.9808ZM20.543 23.9808C20.5577 23.9809 20.5722 23.9839 20.5858 23.9897C20.5993 23.9954 20.6116 24.0038 20.6219 24.0143C20.6322 24.0248 20.6403 24.0372 20.6458 24.0508C20.6513 24.0645 20.6541 24.0791 20.654 24.0938C20.654 24.1548 20.604 24.2068 20.543 24.2068C20.5131 24.2065 20.4845 24.1945 20.4634 24.1734C20.4422 24.1523 20.4302 24.1237 20.43 24.0938C20.43 24.0308 20.48 23.9798 20.543 23.9798V23.9808ZM21.106 23.9808C21.1355 23.9813 21.1636 23.9935 21.1842 24.0146C21.2048 24.0358 21.2162 24.0642 21.216 24.0938C21.216 24.1548 21.166 24.2068 21.106 24.2068C21.0759 24.2068 21.0471 24.1949 21.0257 24.1737C21.0044 24.1526 20.9922 24.1238 20.992 24.0938C20.992 24.0308 21.042 23.9798 21.105 23.9798L21.106 23.9808ZM21.666 23.9808C21.6809 23.9806 21.6956 23.9835 21.7094 23.9891C21.7231 23.9947 21.7357 24.0031 21.7462 24.0136C21.7567 24.0241 21.765 24.0366 21.7706 24.0504C21.7763 24.0641 21.7791 24.0789 21.779 24.0938C21.7787 24.1237 21.7667 24.1523 21.7456 24.1734C21.7245 24.1945 21.6959 24.2065 21.666 24.2068C21.6364 24.206 21.6084 24.1938 21.5876 24.1727C21.5669 24.1516 21.5552 24.1233 21.555 24.0938C21.555 24.0308 21.604 23.9808 21.666 23.9798V23.9808ZM22.229 23.9808C22.2439 23.9806 22.2586 23.9835 22.2724 23.9891C22.2861 23.9947 22.2987 24.0031 22.3092 24.0136C22.3197 24.0241 22.328 24.0366 22.3336 24.0504C22.3393 24.0641 22.3421 24.0789 22.342 24.0938C22.3417 24.1237 22.3297 24.1523 22.3086 24.1734C22.2875 24.1945 22.2589 24.2065 22.229 24.2068C22.1993 24.2063 22.1709 24.1942 22.15 24.173C22.1291 24.1519 22.1172 24.1235 22.117 24.0938C22.117 24.0308 22.167 23.9808 22.228 23.9798L22.229 23.9808ZM22.791 23.9808C22.854 23.9808 22.905 24.0308 22.904 24.0938C22.9037 24.1237 22.8917 24.1523 22.8706 24.1734C22.8495 24.1945 22.8209 24.2065 22.791 24.2068C22.7614 24.206 22.7334 24.1938 22.7126 24.1727C22.6919 24.1516 22.6802 24.1233 22.68 24.0938C22.68 24.0308 22.729 23.9808 22.791 23.9798V23.9808ZM23.354 23.9808C23.408 23.9808 23.457 24.0198 23.464 24.0738V24.0938C23.464 24.1548 23.414 24.2068 23.354 24.2068C23.3243 24.2063 23.2959 24.1942 23.275 24.173C23.2541 24.1519 23.2422 24.1235 23.242 24.0938C23.242 24.0308 23.292 23.9808 23.353 23.9798L23.354 23.9808ZM23.916 23.9808C23.9426 23.9802 23.9685 23.9893 23.9889 24.0064C24.0094 24.0235 24.0229 24.0475 24.027 24.0738V24.0938C24.027 24.1548 23.977 24.2068 23.916 24.2068C23.8861 24.2065 23.8575 24.1945 23.8364 24.1734C23.8152 24.1523 23.8032 24.1237 23.803 24.0938C23.803 24.0308 23.853 23.9798 23.916 23.9798V23.9808ZM24.479 23.9808C24.5085 23.9813 24.5366 23.9935 24.5572 24.0146C24.5778 24.0358 24.5892 24.0642 24.589 24.0938C24.589 24.1548 24.539 24.2068 24.479 24.2068C24.4489 24.2068 24.4201 24.1949 24.3987 24.1737C24.3774 24.1526 24.3652 24.1238 24.365 24.0938C24.365 24.0308 24.415 23.9798 24.479 23.9798V23.9808ZM25.041 23.9808C25.0557 23.9809 25.0702 23.9839 25.0838 23.9897C25.0973 23.9954 25.1096 24.0038 25.1199 24.0143C25.1302 24.0248 25.1383 24.0372 25.1438 24.0508C25.1493 24.0645 25.1521 24.0791 25.152 24.0938C25.152 24.1548 25.102 24.2068 25.041 24.2068C25.0111 24.2065 24.9825 24.1945 24.9614 24.1734C24.9402 24.1523 24.9282 24.1237 24.928 24.0938C24.928 24.0308 24.978 23.9798 25.041 23.9798V23.9808ZM25.601 23.9808C25.6159 23.9805 25.6308 23.9832 25.6447 23.9888C25.6586 23.9944 25.6712 24.0027 25.6818 24.0132C25.6925 24.0237 25.7009 24.0363 25.7066 24.0501C25.7122 24.064 25.7151 24.0788 25.715 24.0938C25.7147 24.1237 25.7027 24.1523 25.6816 24.1734C25.6605 24.1945 25.6319 24.2065 25.602 24.2068C25.5723 24.2063 25.5439 24.1942 25.523 24.173C25.5021 24.1519 25.4902 24.1235 25.49 24.0938C25.49 24.0308 25.54 23.9808 25.602 23.9798L25.601 23.9808ZM26.164 23.9808C26.1789 23.9806 26.1936 23.9835 26.2074 23.9891C26.2211 23.9947 26.2337 24.0031 26.2442 24.0136C26.2547 24.0241 26.263 24.0366 26.2686 24.0504C26.2743 24.0641 26.2771 24.0789 26.277 24.0938C26.2767 24.1237 26.2647 24.1523 26.2436 24.1734C26.2225 24.1945 26.1939 24.2065 26.164 24.2068C26.1344 24.206 26.1064 24.1938 26.0856 24.1727C26.0649 24.1516 26.0532 24.1233 26.053 24.0938C26.053 24.0308 26.103 23.9808 26.164 23.9798V23.9808ZM26.727 23.9808C26.7419 23.9806 26.7566 23.9835 26.7704 23.9891C26.7841 23.9947 26.7967 24.0031 26.8072 24.0136C26.8177 24.0241 26.826 24.0366 26.8316 24.0504C26.8373 24.0641 26.8401 24.0789 26.84 24.0938C26.8397 24.1237 26.8277 24.1523 26.8066 24.1734C26.7855 24.1945 26.7569 24.2065 26.727 24.2068C26.6973 24.2063 26.6689 24.1942 26.648 24.173C26.6271 24.1519 26.6152 24.1235 26.615 24.0938C26.615 24.0308 26.665 23.9808 26.727 23.9798V23.9808ZM27.289 23.9808C27.352 23.9808 27.403 24.0308 27.402 24.0938C27.4017 24.1237 27.3897 24.1523 27.3686 24.1734C27.3475 24.1945 27.3189 24.2065 27.289 24.2068C27.2594 24.206 27.2314 24.1938 27.2106 24.1727C27.1899 24.1516 27.1782 24.1233 27.178 24.0938C27.178 24.0308 27.228 23.9808 27.289 23.9798V23.9808ZM27.852 23.9808C27.8784 23.9805 27.9041 23.9897 27.9243 24.0068C27.9445 24.0238 27.9579 24.0476 27.962 24.0738C27.964 24.0818 27.964 24.0858 27.962 24.0938C27.962 24.1548 27.912 24.2068 27.852 24.2068C27.8223 24.2063 27.7939 24.1942 27.773 24.173C27.7521 24.1519 27.7402 24.1235 27.74 24.0938C27.74 24.0308 27.79 23.9808 27.852 23.9798V23.9808ZM28.414 23.9808C28.4287 23.9809 28.4432 23.9839 28.4568 23.9897C28.4703 23.9954 28.4826 24.0038 28.4929 24.0143C28.5032 24.0248 28.5113 24.0372 28.5168 24.0508C28.5223 24.0645 28.5251 24.0791 28.525 24.0938C28.525 24.1548 28.475 24.2068 28.415 24.2068C28.3849 24.2068 28.3561 24.1949 28.3347 24.1737C28.3134 24.1526 28.3012 24.1238 28.301 24.0938C28.301 24.0308 28.351 23.9798 28.414 23.9798V23.9808ZM28.977 23.9808C29.0065 23.9813 29.0346 23.9935 29.0552 24.0146C29.0758 24.0358 29.0872 24.0642 29.087 24.0938C29.087 24.1548 29.037 24.2068 28.977 24.2068C28.9469 24.2068 28.9181 24.1949 28.8967 24.1737C28.8754 24.1526 28.8632 24.1238 28.863 24.0938C28.863 24.0308 28.913 23.9798 28.977 23.9798V23.9808ZM29.539 23.9808C29.5537 23.9809 29.5682 23.9839 29.5818 23.9897C29.5953 23.9954 29.6076 24.0038 29.6179 24.0143C29.6282 24.0248 29.6363 24.0372 29.6418 24.0508C29.6473 24.0645 29.6501 24.0791 29.65 24.0938C29.65 24.1548 29.6 24.2068 29.54 24.2068C29.5099 24.2068 29.4811 24.1949 29.4597 24.1737C29.4384 24.1526 29.4262 24.1238 29.426 24.0938C29.426 24.0308 29.476 23.9798 29.539 23.9798V23.9808ZM30.099 23.9808C30.1139 23.9805 30.1288 23.9832 30.1427 23.9888C30.1566 23.9944 30.1692 24.0027 30.1798 24.0132C30.1905 24.0237 30.1989 24.0363 30.2046 24.0501C30.2102 24.064 30.2131 24.0788 30.213 24.0938C30.2127 24.1237 30.2007 24.1523 30.1796 24.1734C30.1585 24.1945 30.1299 24.2065 30.1 24.2068C30.0703 24.2063 30.0419 24.1942 30.021 24.173C30.0001 24.1519 29.9882 24.1235 29.988 24.0938C29.988 24.0308 30.038 23.9808 30.1 23.9798L30.099 23.9808ZM30.662 23.9808C30.6769 23.9806 30.6916 23.9835 30.7054 23.9891C30.7191 23.9947 30.7317 24.0031 30.7422 24.0136C30.7527 24.0241 30.761 24.0366 30.7666 24.0504C30.7723 24.0641 30.7751 24.0789 30.775 24.0938C30.7747 24.1237 30.7627 24.1523 30.7416 24.1734C30.7205 24.1945 30.6919 24.2065 30.662 24.2068C30.6324 24.206 30.6044 24.1938 30.5836 24.1727C30.5629 24.1516 30.5512 24.1233 30.551 24.0938C30.551 24.0308 30.601 23.9808 30.662 23.9798V23.9808ZM31.225 23.9808C31.2399 23.9806 31.2546 23.9835 31.2684 23.9891C31.2821 23.9947 31.2947 24.0031 31.3052 24.0136C31.3157 24.0241 31.324 24.0366 31.3296 24.0504C31.3353 24.0641 31.3381 24.0789 31.338 24.0938C31.3377 24.1237 31.3257 24.1523 31.3046 24.1734C31.2835 24.1945 31.2549 24.2065 31.225 24.2068C31.1953 24.2063 31.1669 24.1942 31.146 24.173C31.1251 24.1519 31.1132 24.1235 31.113 24.0938C31.113 24.0308 31.163 23.9808 31.225 23.9798V23.9808ZM31.787 23.9808C31.8136 23.9802 31.8395 23.9893 31.8599 24.0064C31.8804 24.0235 31.8939 24.0475 31.898 24.0738V24.0938C31.898 24.1548 31.848 24.2068 31.788 24.2068C31.7583 24.2063 31.7299 24.1942 31.709 24.173C31.6881 24.1519 31.6762 24.1235 31.676 24.0938C31.675 24.0308 31.726 23.9808 31.787 23.9798V23.9808ZM32.35 23.9808C32.3764 23.9805 32.4021 23.9897 32.4223 24.0068C32.4425 24.0238 32.4559 24.0476 32.46 24.0738C32.462 24.0818 32.462 24.0858 32.46 24.0938C32.46 24.1548 32.41 24.2068 32.35 24.2068C32.3199 24.2068 32.2911 24.1949 32.2697 24.1737C32.2484 24.1526 32.2362 24.1238 32.236 24.0938C32.236 24.0308 32.286 23.9798 32.35 23.9798V23.9808ZM32.912 23.9808C32.9267 23.9809 32.9412 23.9839 32.9548 23.9897C32.9683 23.9954 32.9806 24.0038 32.9909 24.0143C33.0012 24.0248 33.0093 24.0372 33.0148 24.0508C33.0203 24.0645 33.0231 24.0791 33.023 24.0938C33.023 24.1548 32.973 24.2068 32.913 24.2068C32.8829 24.2068 32.8541 24.1949 32.8327 24.1737C32.8114 24.1526 32.7992 24.1238 32.799 24.0938C32.799 24.0308 32.849 23.9798 32.912 23.9798V23.9808ZM33.475 23.9808C33.5045 23.9813 33.5326 23.9935 33.5532 24.0146C33.5738 24.0358 33.5852 24.0642 33.585 24.0938C33.585 24.1548 33.535 24.2068 33.475 24.2068C33.4449 24.2068 33.4161 24.1949 33.3947 24.1737C33.3734 24.1526 33.3612 24.1238 33.361 24.0938C33.361 24.0308 33.411 23.9798 33.475 23.9798V23.9808ZM34.037 23.9808C34.0517 23.9809 34.0662 23.9839 34.0798 23.9897C34.0933 23.9954 34.1056 24.0038 34.1159 24.0143C34.1262 24.0248 34.1343 24.0372 34.1398 24.0508C34.1453 24.0645 34.1481 24.0791 34.148 24.0938C34.148 24.1548 34.098 24.2068 34.038 24.2068C34.0079 24.2068 33.9791 24.1949 33.9577 24.1737C33.9364 24.1526 33.9242 24.1238 33.924 24.0938C33.924 24.0308 33.974 23.9798 34.037 23.9798V23.9808ZM34.597 23.9808C34.6119 23.9805 34.6268 23.9832 34.6407 23.9888C34.6546 23.9944 34.6672 24.0027 34.6778 24.0132C34.6885 24.0237 34.6969 24.0363 34.7026 24.0501C34.7083 24.064 34.7111 24.0788 34.711 24.0938C34.7107 24.1237 34.6987 24.1523 34.6776 24.1734C34.6565 24.1945 34.6279 24.2065 34.598 24.2068C34.5683 24.2063 34.5399 24.1942 34.519 24.173C34.4981 24.1519 34.4862 24.1235 34.486 24.0938C34.486 24.0308 34.536 23.9808 34.598 23.9798L34.597 23.9808ZM17.087 26.5508H17.09C17.2777 26.547 17.4623 26.5993 17.6202 26.7009C17.7781 26.8026 17.9022 26.9489 17.9765 27.1214C18.0509 27.2938 18.0722 27.4845 18.0377 27.6691C18.0032 27.8537 17.9146 28.0238 17.783 28.1578L15.975 30.0178C15.8885 30.1074 15.7851 30.179 15.6709 30.2285C15.5566 30.2781 15.4337 30.3045 15.3091 30.3064C15.1846 30.3082 15.0609 30.2855 14.9452 30.2394C14.8295 30.1933 14.7241 30.1248 14.635 30.0378C14.5452 29.9514 14.4734 29.8482 14.4237 29.734C14.374 29.6198 14.3474 29.4969 14.3454 29.3723C14.3433 29.2478 14.3659 29.1241 14.4118 29.0083C14.4578 28.8926 14.5261 28.787 14.613 28.6978L16.422 26.8398C16.5084 26.7499 16.6117 26.678 16.726 26.6282C16.8403 26.5785 16.9633 26.5518 17.088 26.5498L17.087 26.5508ZM21.087 26.5508C21.2115 26.5485 21.3353 26.5709 21.4512 26.6167C21.5671 26.6625 21.6727 26.7309 21.762 26.8178C21.8517 26.9042 21.9234 27.0075 21.973 27.1217C22.0226 27.236 22.0491 27.3589 22.0511 27.4834C22.053 27.6079 22.0304 27.7316 21.9844 27.8474C21.9383 27.9631 21.8699 28.0686 21.783 28.1578L19.975 30.0178C19.8885 30.1074 19.7851 30.179 19.6709 30.2285C19.5566 30.2781 19.4337 30.3045 19.3091 30.3064C19.1846 30.3082 19.0609 30.2855 18.9452 30.2394C18.8295 30.1933 18.7241 30.1248 18.635 30.0378C18.5452 29.9514 18.4734 29.8482 18.4237 29.734C18.374 29.6198 18.3474 29.4969 18.3454 29.3723C18.3433 29.2478 18.3659 29.1241 18.4118 29.0083C18.4578 28.8926 18.5261 28.787 18.613 28.6978L20.422 26.8398C20.5084 26.7499 20.6117 26.678 20.726 26.6282C20.8403 26.5785 20.9633 26.5518 21.088 26.5498L21.087 26.5508ZM25.087 26.5508C25.2115 26.5485 25.3353 26.5709 25.4512 26.6167C25.5671 26.6625 25.6727 26.7309 25.762 26.8178C25.8517 26.9042 25.9234 27.0075 25.973 27.1217C26.0226 27.236 26.0491 27.3589 26.0511 27.4834C26.053 27.6079 26.0304 27.7316 25.9844 27.8474C25.9383 27.9631 25.8699 28.0686 25.783 28.1578L23.975 30.0178C23.8885 30.1074 23.7851 30.179 23.6709 30.2285C23.5566 30.2781 23.4337 30.3045 23.3091 30.3064C23.1846 30.3082 23.0609 30.2855 22.9452 30.2394C22.8295 30.1933 22.7241 30.1248 22.635 30.0378C22.5452 29.9514 22.4734 29.8482 22.4237 29.734C22.374 29.6198 22.3474 29.4969 22.3454 29.3723C22.3433 29.2478 22.3659 29.1241 22.4118 29.0083C22.4578 28.8926 22.5261 28.787 22.613 28.6978L24.422 26.8398C24.5084 26.7499 24.6117 26.678 24.726 26.6282C24.8403 26.5785 24.9633 26.5518 25.088 26.5498L25.087 26.5508ZM29.087 26.5508C29.2115 26.5485 29.3353 26.5709 29.4512 26.6167C29.5671 26.6625 29.6727 26.7309 29.762 26.8178C29.8517 26.9042 29.9234 27.0075 29.973 27.1217C30.0226 27.236 30.0491 27.3589 30.0511 27.4834C30.053 27.6079 30.0304 27.7316 29.9844 27.8474C29.9383 27.9631 29.8699 28.0686 29.783 28.1578L27.975 30.0178C27.8885 30.1074 27.7851 30.179 27.6709 30.2285C27.5566 30.2781 27.4337 30.3045 27.3091 30.3064C27.1846 30.3082 27.0609 30.2855 26.9452 30.2394C26.8295 30.1933 26.7241 30.1248 26.635 30.0378C26.5452 29.9514 26.4734 29.8482 26.4237 29.734C26.374 29.6198 26.3474 29.4969 26.3454 29.3723C26.3433 29.2478 26.3659 29.1241 26.4118 29.0083C26.4578 28.8926 26.5261 28.787 26.613 28.6978L28.422 26.8398C28.5084 26.7499 28.6117 26.678 28.726 26.6282C28.8403 26.5785 28.9633 26.5518 29.088 26.5498L29.087 26.5508ZM33.087 26.5508C33.2115 26.5485 33.3353 26.5709 33.4512 26.6167C33.5671 26.6625 33.6727 26.7309 33.762 26.8178C33.8517 26.9042 33.9234 27.0075 33.973 27.1217C34.0226 27.236 34.0491 27.3589 34.0511 27.4834C34.053 27.6079 34.0304 27.7316 33.9844 27.8474C33.9383 27.9631 33.8699 28.0686 33.783 28.1578L31.975 30.0178C31.8885 30.1074 31.7851 30.179 31.6709 30.2285C31.5566 30.2781 31.4337 30.3045 31.3091 30.3064C31.1846 30.3082 31.0609 30.2855 30.9452 30.2394C30.8295 30.1933 30.7241 30.1248 30.635 30.0378C30.5452 29.9514 30.4734 29.8482 30.4237 29.734C30.374 29.6198 30.3474 29.4969 30.3454 29.3723C30.3433 29.2478 30.3659 29.1241 30.4118 29.0083C30.4578 28.8926 30.5261 28.787 30.613 28.6978L32.422 26.8398C32.5084 26.7499 32.6117 26.678 32.726 26.6282C32.8403 26.5785 32.9633 26.5518 33.088 26.5498L33.087 26.5508ZM13.795 32.9808C13.858 32.9808 13.909 33.0308 13.908 33.0938C13.9077 33.1237 13.8957 33.1523 13.8746 33.1734C13.8535 33.1945 13.8249 33.2065 13.795 33.2068C13.7654 33.206 13.7374 33.1938 13.7166 33.1727C13.6959 33.1516 13.6842 33.1233 13.684 33.0938C13.684 33.0308 13.733 32.9808 13.794 32.9798L13.795 32.9808ZM14.357 32.9808C14.3838 32.98 14.4099 32.989 14.4306 33.0061C14.4512 33.0232 14.4648 33.0473 14.469 33.0738V33.0938C14.468 33.1548 14.419 33.2068 14.357 33.2068C14.3272 33.2063 14.2987 33.1942 14.2776 33.1731C14.2566 33.152 14.2445 33.1236 14.244 33.0938C14.244 33.0308 14.295 32.9808 14.357 32.9798V32.9808ZM14.92 32.9808C14.9466 32.9802 14.9725 32.9893 14.9929 33.0064C15.0134 33.0235 15.0269 33.0475 15.031 33.0738V33.0938C15.031 33.1548 14.981 33.2068 14.92 33.2068C14.8901 33.2065 14.8615 33.1945 14.8404 33.1734C14.8192 33.1523 14.8072 33.1237 14.807 33.0938C14.807 33.0308 14.857 32.9798 14.92 32.9798V32.9808ZM15.482 32.9808C15.542 32.9808 15.59 33.0268 15.594 33.0858V33.0938C15.593 33.1548 15.544 33.2068 15.482 33.2068C15.4521 33.2065 15.4235 33.1945 15.4024 33.1734C15.3812 33.1523 15.3692 33.1237 15.369 33.0938C15.369 33.0308 15.419 32.9798 15.482 32.9798V32.9808ZM16.045 32.9808C16.105 32.9808 16.153 33.0268 16.156 33.0858V33.0938C16.156 33.1548 16.106 33.2068 16.045 33.2068C16.0151 33.2065 15.9865 33.1945 15.9654 33.1734C15.9442 33.1523 15.9322 33.1237 15.932 33.0938C15.932 33.0308 15.982 32.9798 16.045 32.9798V32.9808ZM16.607 32.9808C16.667 32.9808 16.715 33.0268 16.719 33.0858V33.0938C16.718 33.1548 16.669 33.2068 16.607 33.2068C16.5771 33.2065 16.5485 33.1945 16.5274 33.1734C16.5062 33.1523 16.4942 33.1237 16.494 33.0938C16.494 33.0308 16.544 32.9798 16.607 32.9798V32.9808ZM17.168 32.9808C17.228 32.9798 17.278 33.0258 17.281 33.0858V33.0938C17.2807 33.1237 17.2687 33.1523 17.2476 33.1734C17.2265 33.1945 17.1979 33.2065 17.168 33.2068C17.1384 33.206 17.1104 33.1938 17.0896 33.1727C17.0689 33.1516 17.0572 33.1233 17.057 33.0938C17.057 33.0308 17.106 32.9808 17.168 32.9798V32.9808ZM17.731 32.9808C17.791 32.9798 17.841 33.0258 17.844 33.0858V33.0938C17.8437 33.1238 17.8316 33.1526 17.8102 33.1737C17.7889 33.1949 17.76 33.2068 17.73 33.2068C17.7006 33.2057 17.6728 33.1934 17.6523 33.1724C17.6318 33.1513 17.6202 33.1232 17.62 33.0938C17.619 33.0308 17.669 32.9808 17.73 32.9798L17.731 32.9808ZM18.293 32.9808C18.353 32.9798 18.403 33.0258 18.406 33.0858V33.0938C18.4057 33.1237 18.3937 33.1523 18.3726 33.1734C18.3515 33.1945 18.3229 33.2065 18.293 33.2068C18.2634 33.206 18.2354 33.1938 18.2146 33.1727C18.1939 33.1516 18.1822 33.1233 18.182 33.0938C18.182 33.0308 18.231 32.9808 18.293 32.9798V32.9808ZM18.856 32.9808C18.8824 32.9805 18.9081 32.9897 18.9283 33.0068C18.9485 33.0238 18.9619 33.0476 18.966 33.0738V33.0938C18.966 33.1548 18.916 33.2068 18.856 33.2068C18.8263 33.2063 18.7979 33.1941 18.777 33.173C18.7561 33.1519 18.7442 33.1235 18.744 33.0938C18.744 33.0308 18.794 32.9808 18.855 32.9798L18.856 32.9808ZM19.418 32.9808C19.478 32.9808 19.526 33.0268 19.529 33.0858V33.0938C19.529 33.1548 19.479 33.2068 19.418 33.2068C19.3881 33.2065 19.3595 33.1945 19.3384 33.1734C19.3172 33.1523 19.3052 33.1237 19.305 33.0938C19.305 33.0308 19.355 32.9798 19.418 32.9798V32.9808ZM19.981 32.9808C20.04 32.9808 20.088 33.0268 20.091 33.0858V33.0938C20.091 33.1548 20.041 33.2068 19.981 33.2068C19.9509 33.2068 19.9221 33.1949 19.9007 33.1737C19.8794 33.1526 19.8672 33.1238 19.867 33.0938C19.867 33.0308 19.917 32.9798 19.98 32.9798L19.981 32.9808ZM20.543 32.9808C20.603 32.9808 20.651 33.0268 20.654 33.0858V33.0938C20.654 33.1548 20.604 33.2068 20.543 33.2068C20.5131 33.2065 20.4845 33.1945 20.4634 33.1734C20.4422 33.1523 20.4302 33.1237 20.43 33.0938C20.43 33.0308 20.48 32.9798 20.543 32.9798V32.9808ZM21.106 32.9808C21.165 32.9808 21.213 33.0268 21.216 33.0858V33.0938C21.216 33.1548 21.166 33.2068 21.106 33.2068C21.0759 33.2068 21.0471 33.1949 21.0257 33.1737C21.0044 33.1526 20.9922 33.1238 20.992 33.0938C20.992 33.0308 21.042 32.9798 21.105 32.9798L21.106 32.9808ZM21.666 32.9808C21.726 32.9798 21.776 33.0258 21.779 33.0858V33.0938C21.7787 33.1237 21.7667 33.1523 21.7456 33.1734C21.7245 33.1945 21.6959 33.2065 21.666 33.2068C21.6364 33.206 21.6084 33.1938 21.5876 33.1727C21.5669 33.1516 21.5552 33.1233 21.555 33.0938C21.555 33.0308 21.604 32.9808 21.666 32.9798V32.9808ZM22.229 32.9808C22.289 32.9798 22.339 33.0258 22.342 33.0858V33.0938C22.3417 33.1237 22.3297 33.1523 22.3086 33.1734C22.2875 33.1945 22.2589 33.2065 22.229 33.2068C22.1993 33.2063 22.1709 33.1941 22.15 33.173C22.1291 33.1519 22.1172 33.1235 22.117 33.0938C22.117 33.0308 22.167 32.9808 22.228 32.9798L22.229 32.9808ZM22.791 32.9808C22.854 32.9808 22.905 33.0308 22.904 33.0938C22.9037 33.1237 22.8917 33.1523 22.8706 33.1734C22.8495 33.1945 22.8209 33.2065 22.791 33.2068C22.7614 33.206 22.7334 33.1938 22.7126 33.1727C22.6919 33.1516 22.6802 33.1233 22.68 33.0938C22.68 33.0308 22.729 32.9808 22.791 32.9798V32.9808ZM23.354 32.9808C23.408 32.9808 23.457 33.0198 23.464 33.0738V33.0938C23.464 33.1548 23.414 33.2068 23.354 33.2068C23.3243 33.2063 23.2959 33.1941 23.275 33.173C23.2541 33.1519 23.2422 33.1235 23.242 33.0938C23.242 33.0308 23.292 32.9808 23.353 32.9798L23.354 32.9808ZM23.916 32.9808C23.9426 32.9802 23.9685 32.9893 23.9889 33.0064C24.0094 33.0235 24.0229 33.0475 24.027 33.0738V33.0938C24.027 33.1548 23.977 33.2068 23.916 33.2068C23.8861 33.2065 23.8575 33.1945 23.8364 33.1734C23.8152 33.1523 23.8032 33.1237 23.803 33.0938C23.803 33.0308 23.853 32.9798 23.916 32.9798V32.9808ZM24.479 32.9808C24.538 32.9808 24.586 33.0268 24.589 33.0858V33.0938C24.589 33.1548 24.539 33.2068 24.479 33.2068C24.4489 33.2068 24.4201 33.1949 24.3987 33.1737C24.3774 33.1526 24.3652 33.1238 24.365 33.0938C24.365 33.0308 24.415 32.9798 24.479 32.9798V32.9808ZM25.041 32.9808C25.101 32.9808 25.149 33.0268 25.152 33.0858V33.0938C25.152 33.1548 25.102 33.2068 25.041 33.2068C25.0111 33.2065 24.9825 33.1945 24.9614 33.1734C24.9402 33.1523 24.9282 33.1237 24.928 33.0938C24.928 33.0308 24.978 32.9798 25.041 32.9798V32.9808ZM25.601 32.9808C25.661 32.9798 25.711 33.0258 25.715 33.0858V33.0938C25.7147 33.1237 25.7027 33.1523 25.6816 33.1734C25.6605 33.1945 25.6319 33.2065 25.602 33.2068C25.5723 33.2063 25.5439 33.1941 25.523 33.173C25.5021 33.1519 25.4902 33.1235 25.49 33.0938C25.49 33.0308 25.54 32.9808 25.602 32.9798L25.601 32.9808ZM26.164 32.9808C26.224 32.9798 26.274 33.0258 26.277 33.0858V33.0938C26.2767 33.1237 26.2647 33.1523 26.2436 33.1734C26.2225 33.1945 26.1939 33.2065 26.164 33.2068C26.1344 33.206 26.1064 33.1938 26.0856 33.1727C26.0649 33.1516 26.0532 33.1233 26.053 33.0938C26.053 33.0308 26.103 32.9808 26.164 32.9798V32.9808ZM26.727 32.9808C26.787 32.9798 26.837 33.0258 26.84 33.0858V33.0938C26.8397 33.1237 26.8277 33.1523 26.8066 33.1734C26.7855 33.1945 26.7569 33.2065 26.727 33.2068C26.6973 33.2063 26.6689 33.1941 26.648 33.173C26.6271 33.1519 26.6152 33.1235 26.615 33.0938C26.615 33.0308 26.665 32.9808 26.727 32.9798V32.9808ZM27.289 32.9808C27.352 32.9808 27.403 33.0308 27.402 33.0938C27.4017 33.1237 27.3897 33.1523 27.3686 33.1734C27.3475 33.1945 27.3189 33.2065 27.289 33.2068C27.2594 33.206 27.2314 33.1938 27.2106 33.1727C27.1899 33.1516 27.1782 33.1233 27.178 33.0938C27.178 33.0308 27.228 32.9808 27.289 32.9798V32.9808ZM27.852 32.9808C27.8784 32.9805 27.9041 32.9897 27.9243 33.0068C27.9445 33.0238 27.9579 33.0476 27.962 33.0738C27.964 33.0818 27.964 33.0858 27.962 33.0938C27.962 33.1548 27.912 33.2068 27.852 33.2068C27.8223 33.2063 27.7939 33.1941 27.773 33.173C27.7521 33.1519 27.7402 33.1235 27.74 33.0938C27.74 33.0308 27.79 32.9808 27.852 32.9798V32.9808ZM28.414 32.9808C28.474 32.9808 28.522 33.0268 28.525 33.0858V33.0938C28.525 33.1548 28.475 33.2068 28.415 33.2068C28.3849 33.2068 28.3561 33.1949 28.3347 33.1737C28.3134 33.1526 28.3012 33.1238 28.301 33.0938C28.301 33.0308 28.351 32.9798 28.414 32.9798V32.9808ZM28.977 32.9808C29.036 32.9808 29.084 33.0268 29.087 33.0858V33.0938C29.087 33.1548 29.037 33.2068 28.977 33.2068C28.9469 33.2068 28.9181 33.1949 28.8967 33.1737C28.8754 33.1526 28.8632 33.1238 28.863 33.0938C28.863 33.0308 28.913 32.9798 28.977 32.9798V32.9808ZM29.539 32.9808C29.599 32.9808 29.647 33.0268 29.65 33.0858V33.0938C29.65 33.1548 29.6 33.2068 29.54 33.2068C29.5099 33.2068 29.4811 33.1949 29.4597 33.1737C29.4384 33.1526 29.4262 33.1238 29.426 33.0938C29.426 33.0308 29.476 32.9798 29.539 32.9798V32.9808ZM30.099 32.9808C30.159 32.9798 30.209 33.0258 30.213 33.0858V33.0938C30.2127 33.1237 30.2007 33.1523 30.1796 33.1734C30.1585 33.1945 30.1299 33.2065 30.1 33.2068C30.0703 33.2063 30.0419 33.1941 30.021 33.173C30.0001 33.1519 29.9882 33.1235 29.988 33.0938C29.988 33.0308 30.038 32.9808 30.1 32.9798L30.099 32.9808ZM30.662 32.9808C30.722 32.9798 30.772 33.0258 30.775 33.0858V33.0938C30.7747 33.1237 30.7627 33.1523 30.7416 33.1734C30.7205 33.1945 30.6919 33.2065 30.662 33.2068C30.6324 33.206 30.6044 33.1938 30.5836 33.1727C30.5629 33.1516 30.5512 33.1233 30.551 33.0938C30.551 33.0308 30.601 32.9808 30.662 32.9798V32.9808ZM31.225 32.9808C31.285 32.9798 31.335 33.0258 31.338 33.0858V33.0938C31.3377 33.1237 31.3257 33.1523 31.3046 33.1734C31.2835 33.1945 31.2549 33.2065 31.225 33.2068C31.1953 33.2063 31.1669 33.1941 31.146 33.173C31.1251 33.1519 31.1132 33.1235 31.113 33.0938C31.113 33.0308 31.163 32.9808 31.225 32.9798V32.9808ZM31.787 32.9808C31.8136 32.9802 31.8395 32.9893 31.8599 33.0064C31.8804 33.0235 31.8939 33.0475 31.898 33.0738V33.0938C31.898 33.1548 31.848 33.2068 31.788 33.2068C31.7583 33.2063 31.7299 33.1941 31.709 33.173C31.6881 33.1519 31.6762 33.1235 31.676 33.0938C31.675 33.0308 31.726 32.9808 31.787 32.9798V32.9808ZM32.35 32.9808C32.3764 32.9805 32.4021 32.9897 32.4223 33.0068C32.4425 33.0238 32.4559 33.0476 32.46 33.0738C32.462 33.0818 32.462 33.0858 32.46 33.0938C32.46 33.1548 32.41 33.2068 32.35 33.2068C32.3199 33.2068 32.2911 33.1949 32.2697 33.1737C32.2484 33.1526 32.2362 33.1238 32.236 33.0938C32.236 33.0308 32.286 32.9798 32.35 32.9798V32.9808ZM32.912 32.9808C32.972 32.9808 33.02 33.0268 33.023 33.0858V33.0938C33.023 33.1548 32.973 33.2068 32.913 33.2068C32.8829 33.2068 32.8541 33.1949 32.8327 33.1737C32.8114 33.1526 32.7992 33.1238 32.799 33.0938C32.799 33.0308 32.849 32.9798 32.912 32.9798V32.9808ZM33.475 32.9808C33.534 32.9808 33.582 33.0268 33.585 33.0858V33.0938C33.585 33.1548 33.535 33.2068 33.475 33.2068C33.4449 33.2068 33.4161 33.1949 33.3947 33.1737C33.3734 33.1526 33.3612 33.1238 33.361 33.0938C33.361 33.0308 33.411 32.9798 33.475 32.9798V32.9808ZM34.037 32.9808C34.097 32.9808 34.145 33.0268 34.148 33.0858V33.0938C34.148 33.1548 34.098 33.2068 34.038 33.2068C34.0079 33.2068 33.9791 33.1949 33.9577 33.1737C33.9364 33.1526 33.9242 33.1238 33.924 33.0938C33.924 33.0308 33.974 32.9798 34.037 32.9798V32.9808ZM34.597 32.9808C34.657 32.9798 34.707 33.0258 34.711 33.0858V33.0938C34.7107 33.1237 34.6987 33.1523 34.6776 33.1734C34.6565 33.1945 34.6279 33.2065 34.598 33.2068C34.5683 33.2063 34.5399 33.1941 34.519 33.173C34.4981 33.1519 34.4862 33.1235 34.486 33.0938C34.486 33.0308 34.536 32.9808 34.598 32.9798L34.597 32.9808ZM17.087 35.2168H17.09C17.2777 35.213 17.4623 35.2653 17.6202 35.3669C17.7781 35.4686 17.9022 35.6149 17.9765 35.7874C18.0509 35.9598 18.0722 36.1505 18.0377 36.3351C18.0032 36.5197 17.9146 36.6898 17.783 36.8238L15.975 38.6838C15.8885 38.7734 15.7851 38.845 15.6709 38.8945C15.5566 38.9441 15.4337 38.9705 15.3091 38.9724C15.1846 38.9743 15.0609 38.9515 14.9452 38.9054C14.8295 38.8593 14.7241 38.7908 14.635 38.7038C14.5452 38.6174 14.4734 38.5142 14.4237 38.4C14.374 38.2858 14.3474 38.1629 14.3454 38.0383C14.3433 37.9138 14.3659 37.7901 14.4118 37.6743C14.4578 37.5586 14.5261 37.453 14.613 37.3638L16.422 35.5058C16.5084 35.4159 16.6117 35.344 16.726 35.2942C16.8403 35.2445 16.9633 35.2178 17.088 35.2158L17.087 35.2168ZM21.087 35.2168C21.2115 35.2145 21.3353 35.2369 21.4512 35.2827C21.5671 35.3285 21.6727 35.3969 21.762 35.4838C21.8517 35.5702 21.9234 35.6735 21.973 35.7877C22.0226 35.902 22.0491 36.0249 22.0511 36.1494C22.053 36.2739 22.0304 36.3976 21.9844 36.5134C21.9383 36.6291 21.8699 36.7346 21.783 36.8238L19.975 38.6838C19.8885 38.7734 19.7851 38.845 19.6709 38.8945C19.5566 38.9441 19.4337 38.9705 19.3091 38.9724C19.1846 38.9743 19.0609 38.9515 18.9452 38.9054C18.8295 38.8593 18.7241 38.7908 18.635 38.7038C18.5452 38.6174 18.4734 38.5142 18.4237 38.4C18.374 38.2858 18.3474 38.1629 18.3454 38.0383C18.3433 37.9138 18.3659 37.7901 18.4118 37.6743C18.4578 37.5586 18.5261 37.453 18.613 37.3638L20.422 35.5058C20.5084 35.4159 20.6117 35.344 20.726 35.2942C20.8403 35.2445 20.9633 35.2178 21.088 35.2158L21.087 35.2168ZM25.087 35.2168C25.2115 35.2145 25.3353 35.2369 25.4512 35.2827C25.5671 35.3285 25.6727 35.3969 25.762 35.4838C25.8517 35.5702 25.9234 35.6735 25.973 35.7877C26.0226 35.902 26.0491 36.0249 26.0511 36.1494C26.053 36.2739 26.0304 36.3976 25.9844 36.5134C25.9383 36.6291 25.8699 36.7346 25.783 36.8238L23.975 38.6838C23.8885 38.7734 23.7851 38.845 23.6709 38.8945C23.5566 38.9441 23.4337 38.9705 23.3091 38.9724C23.1846 38.9743 23.0609 38.9515 22.9452 38.9054C22.8295 38.8593 22.7241 38.7908 22.635 38.7038C22.5452 38.6174 22.4734 38.5142 22.4237 38.4C22.374 38.2858 22.3474 38.1629 22.3454 38.0383C22.3433 37.9138 22.3659 37.7901 22.4118 37.6743C22.4578 37.5586 22.5261 37.453 22.613 37.3638L24.422 35.5058C24.5084 35.4159 24.6117 35.344 24.726 35.2942C24.8403 35.2445 24.9633 35.2178 25.088 35.2158L25.087 35.2168ZM29.087 35.2168C29.2115 35.2145 29.3353 35.2369 29.4512 35.2827C29.5671 35.3285 29.6727 35.3969 29.762 35.4838C29.8517 35.5702 29.9234 35.6735 29.973 35.7877C30.0226 35.902 30.0491 36.0249 30.0511 36.1494C30.053 36.2739 30.0304 36.3976 29.9844 36.5134C29.9383 36.6291 29.8699 36.7346 29.783 36.8238L27.975 38.6838C27.8885 38.7734 27.7851 38.845 27.6709 38.8945C27.5566 38.9441 27.4337 38.9705 27.3091 38.9724C27.1846 38.9743 27.0609 38.9515 26.9452 38.9054C26.8295 38.8593 26.7241 38.7908 26.635 38.7038C26.5452 38.6174 26.4734 38.5142 26.4237 38.4C26.374 38.2858 26.3474 38.1629 26.3454 38.0383C26.3433 37.9138 26.3659 37.7901 26.4118 37.6743C26.4578 37.5586 26.5261 37.453 26.613 37.3638L28.422 35.5058C28.5084 35.4159 28.6117 35.344 28.726 35.2942C28.8403 35.2445 28.9633 35.2178 29.088 35.2158L29.087 35.2168ZM33.087 35.2168C33.2115 35.2145 33.3353 35.2369 33.4512 35.2827C33.5671 35.3285 33.6727 35.3969 33.762 35.4838C33.8517 35.5702 33.9234 35.6735 33.973 35.7877C34.0226 35.902 34.0491 36.0249 34.0511 36.1494C34.053 36.2739 34.0304 36.3976 33.9844 36.5134C33.9383 36.6291 33.8699 36.7346 33.783 36.8238L31.975 38.6838C31.8885 38.7734 31.7851 38.845 31.6709 38.8945C31.5566 38.9441 31.4337 38.9705 31.3091 38.9724C31.1846 38.9743 31.0609 38.9515 30.9452 38.9054C30.8295 38.8593 30.7241 38.7908 30.635 38.7038C30.5452 38.6174 30.4734 38.5142 30.4237 38.4C30.374 38.2858 30.3474 38.1629 30.3454 38.0383C30.3433 37.9138 30.3659 37.7901 30.4118 37.6743C30.4578 37.5586 30.5261 37.453 30.613 37.3638L32.422 35.5058C32.5084 35.4159 32.6117 35.344 32.726 35.2942C32.8403 35.2445 32.9633 35.2178 33.088 35.2158L33.087 35.2168Z" fill="#333333"/>
</svg>
