<svg width="48" height="48" viewBox="0 0 48 48" fill="none" xmlns="http://www.w3.org/2000/svg">
<g clip-path="url(#clip0)">
<path fill-rule="evenodd" clip-rule="evenodd" d="M-0.000488281 0.0928955V48.0928H47.9995V0.0928955H-0.000488281ZM14.0659 4.18661H33.771C34.6404 4.18661 35.3394 4.88548 35.3394 5.75492V42.6163C35.3394 43.4857 34.6404 44.1865 33.771 44.1865H14.0659C13.1965 44.1865 12.4976 43.4857 12.4976 42.6163V5.75492C12.4976 4.88548 13.1965 4.18661 14.0659 4.18661ZM30.7632 4.921C30.7042 4.92455 30.6581 4.97308 30.6577 5.03242C30.6571 5.09516 30.7083 5.14618 30.771 5.1458C30.833 5.14531 30.8831 5.0944 30.8823 5.03242C30.8819 4.97119 30.8322 4.92175 30.771 4.921C30.7684 4.92092 30.767 4.92092 30.7632 4.921H30.7632ZM30.7632 5.48352C30.7042 5.48707 30.6581 5.53341 30.6577 5.59275C30.6571 5.65549 30.7083 5.70651 30.771 5.70613C30.833 5.70564 30.8831 5.65473 30.8823 5.59275C30.8819 5.53152 30.8322 5.48428 30.771 5.48352C30.7684 5.48344 30.767 5.48344 30.7632 5.48352H30.7632ZM30.7632 6.04593C30.7042 6.04948 30.6581 6.0962 30.6577 6.15516C30.6571 6.2179 30.7083 6.26892 30.771 6.26854C30.833 6.26805 30.8831 6.21714 30.8823 6.15516C30.8819 6.09393 30.8322 6.04668 30.771 6.04593C30.7684 6.04585 30.767 6.04585 30.7632 6.04593H30.7632ZM30.7515 6.60845C30.697 6.61601 30.6573 6.66446 30.6577 6.71964C30.6582 6.78162 30.7086 6.83144 30.771 6.83106C30.8322 6.83057 30.8819 6.78125 30.8823 6.71964C30.8819 6.65841 30.8322 6.60921 30.771 6.60845C30.7634 6.60788 30.761 6.60788 30.7534 6.60845H30.7515ZM30.771 7.16901C30.7083 7.16841 30.6573 7.21965 30.6577 7.28239C30.6582 7.34438 30.7086 7.39238 30.771 7.39162C30.8322 7.39113 30.8816 7.344 30.8823 7.28239C30.8829 7.22041 30.8334 7.16977 30.771 7.16901ZM30.7632 7.73154C30.7035 7.73513 30.657 7.78482 30.6577 7.84492C30.6582 7.9069 30.7086 7.95452 30.771 7.95415C30.8322 7.95365 30.8819 7.90615 30.8823 7.84492C30.8829 7.78293 30.833 7.73229 30.771 7.73154C30.7684 7.73142 30.767 7.73142 30.7632 7.73154H30.7632ZM30.7632 8.29394C30.7035 8.29761 30.657 8.34735 30.6577 8.40744C30.6582 8.46942 30.7086 8.51927 30.771 8.51851C30.8322 8.51806 30.8819 8.46905 30.8823 8.40744C30.8829 8.34546 30.833 8.2947 30.771 8.29394C30.7684 8.29387 30.767 8.29387 30.7632 8.29394H30.7632ZM30.7632 8.85647C30.7035 8.86006 30.657 8.90975 30.6577 8.96985C30.6582 9.03183 30.7086 9.08142 30.771 9.08104C30.8322 9.08055 30.8819 9.03145 30.8823 8.96985C30.8829 8.90786 30.833 8.85722 30.771 8.85647C30.7684 8.85639 30.767 8.85639 30.7632 8.85647H30.7632ZM30.7632 9.41899C30.7042 9.42254 30.6581 9.46926 30.6577 9.52822C30.6571 9.59096 30.7083 9.64198 30.771 9.6416C30.833 9.64111 30.8831 9.5902 30.8823 9.52822C30.8819 9.46699 30.8322 9.41975 30.771 9.41899C30.7684 9.41891 30.767 9.41891 30.7632 9.41899H30.7632ZM30.7632 9.98151C30.7042 9.98507 30.6581 10.0314 30.6577 10.0907C30.6571 10.1535 30.7083 10.2045 30.771 10.2041C30.833 10.2036 30.8831 10.1527 30.8823 10.0907C30.8819 10.0295 30.8322 9.98227 30.771 9.98151C30.7684 9.9814 30.767 9.9814 30.7632 9.98151H30.7632ZM30.7515 10.544C30.697 10.5516 30.6573 10.6003 30.6577 10.6551C30.6571 10.7178 30.7083 10.7689 30.771 10.7685C30.833 10.768 30.8831 10.7171 30.8823 10.6551C30.8819 10.5939 30.8322 10.5448 30.771 10.544C30.7634 10.5435 30.761 10.5435 30.7534 10.544H30.7515ZM30.771 11.1046C30.7083 11.104 30.6573 11.1552 30.6577 11.218C30.6582 11.28 30.7086 11.3276 30.771 11.3272C30.8322 11.3267 30.8816 11.2796 30.8823 11.218C30.8829 11.156 30.8334 11.1054 30.771 11.1046ZM30.771 11.6671C30.7083 11.6665 30.6573 11.7178 30.6577 11.7805C30.6582 11.8425 30.7086 11.8909 30.771 11.8897C30.8322 11.8893 30.8816 11.8417 30.8823 11.7805C30.8829 11.7185 30.8334 11.6679 30.771 11.6671ZM18.7163 12.0909C17.8327 12.0909 17.1167 12.8068 17.1167 13.6905C17.1167 14.5741 17.8327 15.2901 18.7163 15.2901C19.5999 15.2901 20.3159 14.5741 20.3159 13.6905C20.3159 12.8068 19.5999 12.0909 18.7163 12.0909ZM30.7632 12.2277C30.7035 12.2313 30.657 12.281 30.6577 12.3411C30.6582 12.403 30.7086 12.4552 30.771 12.4544C30.8322 12.454 30.882 12.4023 30.8823 12.3411C30.8829 12.2791 30.833 12.2284 30.771 12.2277C30.7684 12.2276 30.767 12.2276 30.7632 12.2277H30.7632ZM30.7632 12.7902C30.7035 12.7938 30.657 12.8453 30.6577 12.9054C30.6582 12.9674 30.7086 13.0178 30.771 13.0166C30.8322 13.0161 30.882 12.9667 30.8823 12.9054C30.8829 12.8434 30.833 12.7906 30.771 12.7902C30.7684 12.7901 30.767 12.7901 30.7632 12.7902H30.7632ZM30.7632 13.3526C30.7042 13.3562 30.6581 13.4048 30.6577 13.4641C30.6571 13.5269 30.7083 13.5779 30.771 13.5775C30.833 13.577 30.8831 13.5261 30.8823 13.4641C30.8819 13.4029 30.8322 13.3534 30.771 13.3526C30.7684 13.3525 30.767 13.3525 30.7632 13.3526H30.7632ZM30.7632 13.9151C30.7042 13.9187 30.6581 13.9677 30.6577 14.0267C30.6571 14.0894 30.7083 14.1404 30.771 14.1401C30.833 14.1396 30.8831 14.0887 30.8823 14.0267C30.8819 13.9654 30.8322 13.9159 30.771 13.9151C30.7684 13.9151 30.767 13.9151 30.7632 13.9151H30.7632ZM30.7632 14.4777C30.7042 14.4812 30.6581 14.5321 30.6577 14.591C30.6571 14.6538 30.7083 14.7048 30.771 14.7044C30.833 14.704 30.8831 14.653 30.8823 14.591C30.8819 14.5298 30.8322 14.478 30.771 14.4777C30.7684 14.4775 30.767 14.4775 30.7632 14.4777H30.7632ZM24.3726 14.7786C23.4889 14.7786 22.773 15.4945 22.773 16.3782C22.773 17.2618 23.4889 17.9777 24.3726 17.9777C25.2562 17.9777 25.9721 17.2618 25.9722 16.3782C25.9721 15.4945 25.2562 14.7786 24.3726 14.7786ZM30.7515 15.0424C30.6971 15.0499 30.6573 15.0986 30.6577 15.1534C30.6571 15.2162 30.7083 15.2672 30.771 15.2668C30.833 15.2663 30.8831 15.2154 30.8823 15.1534C30.8819 15.0922 30.8322 15.0428 30.771 15.0424C30.7634 15.0418 30.761 15.0418 30.7534 15.0424H30.7515ZM30.7515 15.6048C30.6971 15.6123 30.6573 15.6611 30.6577 15.7163C30.6582 15.7783 30.7086 15.8278 30.771 15.8274C30.8322 15.8269 30.882 15.7772 30.8823 15.7163C30.8819 15.6551 30.8322 15.6055 30.771 15.6048C30.7634 15.6042 30.761 15.6042 30.7534 15.6048H30.7515ZM30.771 16.1653C30.7083 16.1647 30.6574 16.216 30.6577 16.2787C30.6582 16.3407 30.7087 16.391 30.771 16.3899C30.8322 16.3894 30.8816 16.34 30.8823 16.2787C30.8829 16.2167 30.8334 16.1661 30.771 16.1653ZM30.7632 16.7279C30.7035 16.7315 30.657 16.7812 30.6577 16.8412C30.6582 16.9032 30.7086 16.9535 30.771 16.9523C30.8322 16.9518 30.882 16.9021 30.8823 16.8412C30.8829 16.7793 30.833 16.7286 30.771 16.7279C30.7684 16.7278 30.767 16.7278 30.7632 16.7279H30.7632ZM30.7632 17.2904C30.7035 17.294 30.657 17.3437 30.6577 17.4038C30.6582 17.4658 30.7086 17.5157 30.771 17.5153C30.8322 17.5148 30.882 17.4654 30.8823 17.4038C30.8829 17.3418 30.833 17.2911 30.771 17.2904C30.7684 17.2903 30.767 17.2903 30.7632 17.2904H30.7632ZM18.7163 17.3244C17.8327 17.3245 17.1167 18.0404 17.1167 18.924C17.1167 19.8076 17.8327 20.5237 18.7163 20.5237C19.5999 20.5237 20.3159 19.8076 20.3159 18.924C20.3159 18.0404 19.5999 17.3245 18.7163 17.3244ZM30.7632 17.8518C30.7042 17.8554 30.6581 17.9043 30.6577 17.9628C30.6571 18.0256 30.7083 18.0766 30.771 18.0762C30.833 18.0757 30.8831 18.0248 30.8823 17.9628C30.8819 17.9016 30.8322 17.8518 30.771 17.8518C30.7684 17.8517 30.767 17.8517 30.7632 17.8518H30.7632ZM30.7632 18.4143C30.7042 18.4179 30.6581 18.4664 30.6577 18.5254C30.6571 18.5881 30.7083 18.6411 30.771 18.6407C30.833 18.6402 30.8831 18.5873 30.8823 18.5254C30.8819 18.4641 30.8322 18.4147 30.771 18.4143C30.7684 18.4142 30.767 18.4142 30.7632 18.4143H30.7632ZM30.7632 18.9768C30.7042 18.9804 30.6581 19.0289 30.6577 19.0879C30.6571 19.1506 30.7083 19.2035 30.771 19.2031C30.833 19.2026 30.8831 19.1499 30.8823 19.0879C30.8819 19.0267 30.8322 18.9768 30.771 18.9768C30.7684 18.9767 30.767 18.9767 30.7632 18.9768H30.7632ZM30.7515 19.5392C30.6971 19.5468 30.6573 19.5956 30.6577 19.6507C30.6571 19.7135 30.7083 19.7664 30.771 19.766C30.833 19.7655 30.8831 19.7127 30.8823 19.6507C30.8819 19.5895 30.8322 19.54 30.771 19.5392C30.7634 19.5386 30.761 19.5386 30.7534 19.5392H30.7515ZM24.3726 20.0275C23.4889 20.0275 22.773 20.7435 22.773 21.6271C22.773 22.5108 23.4889 23.2267 24.3726 23.2267C25.2562 23.2267 25.9721 22.5108 25.9722 21.6271C25.9721 20.7435 25.2562 20.0275 24.3726 20.0275ZM30.771 20.0997C30.7083 20.0991 30.6573 20.1503 30.6577 20.213C30.6582 20.275 30.7086 20.3272 30.771 20.3264C30.8322 20.326 30.8816 20.2743 30.8823 20.213C30.8829 20.1511 30.8334 20.1004 30.771 20.0997ZM30.7632 20.6622C30.7035 20.6658 30.657 20.7155 30.6577 20.7756C30.6582 20.8375 30.7086 20.8897 30.771 20.8889C30.8322 20.8885 30.8819 20.8368 30.8823 20.7756C30.8829 20.7136 30.833 20.6626 30.771 20.6622C30.7684 20.6621 30.767 20.6621 30.7632 20.6622H30.7632ZM30.7632 21.2247C30.7035 21.2283 30.657 21.278 30.6577 21.3381C30.6582 21.4001 30.7086 21.4518 30.771 21.4515C30.8322 21.451 30.8819 21.3997 30.8823 21.3381C30.8829 21.2761 30.833 21.2255 30.771 21.2247C30.7684 21.2246 30.767 21.2246 30.7632 21.2247H30.7632ZM30.7632 21.7872C30.7035 21.7908 30.657 21.8405 30.6577 21.9006C30.6582 21.9626 30.7086 22.0129 30.771 22.0121C30.8322 22.0117 30.8819 21.9622 30.8823 21.9006C30.8829 21.8386 30.833 21.788 30.771 21.7872C30.7684 21.7872 30.767 21.7872 30.7632 21.7872H30.7632ZM30.7632 22.3498C30.7042 22.3533 30.6581 22.4042 30.6577 22.4631C30.6571 22.5259 30.7083 22.5769 30.771 22.5765C30.833 22.576 30.8831 22.5251 30.8823 22.4631C30.8819 22.4019 30.8322 22.3501 30.771 22.3498C30.7684 22.3496 30.767 22.3496 30.7632 22.3498H30.7632ZM18.7163 22.5588C17.8327 22.5588 17.1167 23.2747 17.1167 24.1583C17.1167 25.042 17.8327 25.758 18.7163 25.758C19.5999 25.758 20.3159 25.042 20.3159 24.1583C20.3159 23.2747 19.5999 22.5588 18.7163 22.5588ZM30.7632 22.9122C30.7042 22.9158 30.6581 22.9643 30.6577 23.0232C30.6571 23.086 30.7083 23.1388 30.771 23.1385C30.833 23.138 30.8831 23.0852 30.8823 23.0232C30.8819 22.962 30.8322 22.9125 30.771 22.9122C30.7684 22.912 30.767 22.912 30.7632 22.9122H30.7632ZM30.7632 23.4746C30.7042 23.4782 30.6581 23.5268 30.6577 23.5861C30.6571 23.6488 30.7083 23.7017 30.771 23.7013C30.833 23.7008 30.8831 23.6481 30.8823 23.5861C30.8819 23.5249 30.8322 23.4753 30.771 23.4746C30.7684 23.4745 30.767 23.4745 30.7632 23.4746H30.7632ZM30.7515 24.0371C30.697 24.0446 30.6573 24.0938 30.6577 24.1486C30.6571 24.2114 30.7083 24.2624 30.771 24.262C30.833 24.2615 30.8831 24.2106 30.8823 24.1486C30.8819 24.0874 30.8322 24.0378 30.771 24.0371C30.7634 24.0365 30.761 24.0365 30.7534 24.0371H30.7515ZM30.7515 24.5996C30.697 24.6072 30.6573 24.656 30.6577 24.7111C30.6582 24.7731 30.7086 24.8234 30.771 24.8222C30.8322 24.8217 30.8819 24.772 30.8823 24.7111C30.8819 24.6499 30.8322 24.6004 30.771 24.5996C30.7634 24.599 30.761 24.599 30.7534 24.5996H30.7515ZM30.7632 25.1602C30.7035 25.1638 30.657 25.2135 30.6577 25.2736C30.6582 25.3355 30.7086 25.3873 30.771 25.3869C30.8322 25.3864 30.8819 25.3352 30.8823 25.2736C30.8829 25.2116 30.833 25.1609 30.771 25.1602C30.7684 25.1601 30.767 25.1601 30.7632 25.1602H30.7632ZM24.3726 25.2772C23.4889 25.2773 22.773 25.9933 22.7729 26.8769C22.773 27.7606 23.4889 28.4765 24.3726 28.4765C25.2562 28.4765 25.9721 27.7606 25.9722 26.8769C25.9721 25.9933 25.2562 25.2773 24.3726 25.2772ZM30.7632 25.7226C30.7035 25.7262 30.657 25.7759 30.6577 25.836C30.6582 25.8979 30.7086 25.9479 30.771 25.9475C30.8322 25.947 30.8819 25.8976 30.8823 25.836C30.8829 25.774 30.833 25.7233 30.771 25.7226C30.7684 25.7225 30.767 25.7225 30.7632 25.7226H30.7632ZM30.7632 26.2851C30.7035 26.2887 30.657 26.3384 30.6577 26.3985C30.6582 26.4605 30.7086 26.5108 30.771 26.51C30.8322 26.5095 30.8819 26.4601 30.8823 26.3985C30.8829 26.3365 30.833 26.2859 30.771 26.2851C30.7684 26.285 30.767 26.285 30.7632 26.2851H30.7632ZM30.7632 26.8476C30.7042 26.8512 30.6581 26.8994 30.6577 26.9587C30.6571 27.0214 30.7083 27.0725 30.771 27.0721C30.833 27.0716 30.8831 27.0207 30.8823 26.9587C30.8819 26.8975 30.8322 26.8484 30.771 26.8476C30.7684 26.8475 30.767 26.8475 30.7632 26.8476H30.7632ZM30.7632 27.41C30.7042 27.4137 30.6581 27.4622 30.6577 27.5216C30.6571 27.5843 30.7083 27.6353 30.771 27.635C30.833 27.6345 30.8831 27.5836 30.8823 27.5216C30.8819 27.4603 30.8322 27.4108 30.771 27.41C30.7684 27.41 30.767 27.41 30.7632 27.41H30.7632ZM18.7163 27.793C17.8327 27.793 17.1167 28.5089 17.1167 29.3925C17.1167 30.2762 17.8327 30.9921 18.7163 30.9921C19.5999 30.9921 20.3159 30.2762 20.3159 29.3925C20.3159 28.5089 19.5999 27.793 18.7163 27.793ZM30.7632 27.9724C30.7042 27.976 30.6581 28.025 30.6577 28.084C30.6571 28.1467 30.7083 28.1977 30.771 28.1974C30.833 28.1969 30.8831 28.146 30.8823 28.084C30.8819 28.0228 30.8322 27.9732 30.771 27.9724C30.7684 27.9724 30.767 27.9724 30.7632 27.9724H30.7632ZM30.7515 28.535C30.697 28.5425 30.6573 28.5917 30.6577 28.6465C30.6582 28.7085 30.7086 28.7587 30.771 28.7576C30.8322 28.7571 30.8819 28.7077 30.8823 28.6465C30.8819 28.5853 30.8322 28.5357 30.771 28.535C30.7634 28.5344 30.761 28.5344 30.7534 28.535H30.7515ZM30.771 29.0955C30.7083 29.0949 30.6573 29.1462 30.6577 29.2089C30.6582 29.2709 30.7086 29.3227 30.771 29.3223C30.8322 29.3218 30.8816 29.2705 30.8823 29.2089C30.8829 29.1469 30.8334 29.0963 30.771 29.0955ZM30.7632 29.6581C30.7035 29.6616 30.657 29.7113 30.6577 29.7714C30.6582 29.8334 30.7086 29.8836 30.771 29.8829C30.8322 29.8824 30.8819 29.833 30.8823 29.7714C30.8829 29.7094 30.833 29.6588 30.771 29.6581C30.7684 29.658 30.767 29.658 30.7632 29.6581H30.7632ZM30.7632 30.2205C30.7035 30.2241 30.657 30.2737 30.6577 30.3338C30.6582 30.3958 30.7086 30.4458 30.771 30.4454C30.8322 30.4449 30.8819 30.3954 30.8823 30.3338C30.8829 30.2719 30.833 30.2212 30.771 30.2205C30.7684 30.2204 30.767 30.2204 30.7632 30.2205H30.7632ZM24.3726 30.527C23.4889 30.5271 22.773 31.243 22.7729 32.1266C22.773 33.0103 23.4889 33.7263 24.3726 33.7263C25.2562 33.7263 25.9721 33.0103 25.9722 32.1266C25.9721 31.243 25.2562 30.5271 24.3726 30.527ZM30.7632 30.7829C30.7035 30.7865 30.657 30.8381 30.6577 30.8982C30.6582 30.9602 30.7086 31.0086 30.771 31.0074C30.8322 31.007 30.8819 30.9594 30.8823 30.8982C30.8829 30.8362 30.833 30.7836 30.771 30.7829C30.7684 30.7828 30.767 30.7828 30.7632 30.7829H30.7632ZM30.7632 31.3454C30.7042 31.349 30.6581 31.3994 30.6577 31.4588C30.6571 31.5215 30.7083 31.5725 30.771 31.5722C30.833 31.5717 30.8831 31.5208 30.8823 31.4588C30.8819 31.3975 30.8322 31.3461 30.771 31.3454C30.7684 31.3453 30.767 31.3453 30.7632 31.3454H30.7632ZM30.7632 31.9079C30.7042 31.9115 30.6581 31.9604 30.6577 32.0193C30.6571 32.0821 30.7083 32.1331 30.771 32.1327C30.833 32.1322 30.8831 32.0813 30.8823 32.0193C30.8819 31.9581 30.8322 31.9087 30.771 31.9079C30.7684 31.9078 30.767 31.9078 30.7632 31.9079H30.7632ZM30.7515 32.4704C30.697 32.478 30.6573 32.5267 30.6577 32.5819C30.6571 32.6446 30.7083 32.6956 30.771 32.6952C30.833 32.6947 30.8831 32.6438 30.8823 32.5819C30.8819 32.5206 30.8322 32.4712 30.771 32.4704C30.7634 32.4699 30.761 32.4699 30.7534 32.4704H30.7515ZM18.7163 33.0271C17.8327 33.0271 17.1167 33.743 17.1167 34.6266C17.1167 35.5103 17.8327 36.2262 18.7163 36.2262C19.5999 36.2262 20.3159 35.5103 20.3159 34.6266C20.3159 33.743 19.5999 33.0271 18.7163 33.0271ZM30.7515 33.0346C30.697 33.0421 30.6573 33.0913 30.6577 33.1458C30.6582 33.2077 30.7086 33.2576 30.771 33.2572C30.8322 33.2567 30.8819 33.2074 30.8823 33.1458C30.8819 33.0845 30.8322 33.0346 30.771 33.0346C30.7634 33.034 30.761 33.034 30.7534 33.0346H30.7515ZM30.771 33.5971C30.7083 33.5965 30.6573 33.6477 30.6577 33.7105C30.6582 33.7725 30.7086 33.8223 30.771 33.8216C30.8322 33.8211 30.8816 33.7721 30.8823 33.7105C30.8829 33.6485 30.8334 33.5979 30.771 33.5971ZM30.7632 34.1596C30.7035 34.1632 30.657 34.2129 30.6577 34.273C30.6582 34.335 30.7086 34.3848 30.771 34.3841C30.8322 34.3836 30.8819 34.3346 30.8823 34.273C30.8829 34.211 30.833 34.1604 30.771 34.1596C30.7684 34.1595 30.767 34.1595 30.7632 34.1596H30.7632ZM30.7632 34.722C30.7035 34.7257 30.657 34.7753 30.6577 34.8354C30.6582 34.8974 30.7086 34.9473 30.771 34.9469C30.8322 34.9465 30.8819 34.8974 30.8823 34.8354C30.8829 34.7734 30.833 34.7228 30.771 34.722C30.7684 34.7219 30.767 34.7219 30.7632 34.722H30.7632ZM30.7632 35.2846C30.7042 35.2881 30.6581 35.3368 30.6577 35.3961C30.6571 35.4588 30.7083 35.5098 30.771 35.5095C30.833 35.509 30.8831 35.4581 30.8823 35.3961C30.8819 35.3349 30.8322 35.2853 30.771 35.2846C30.7684 35.2844 30.767 35.2844 30.7632 35.2846H30.7632ZM30.7632 35.8471C30.7042 35.8507 30.6581 35.8973 30.6577 35.9563C30.6571 36.019 30.7083 36.072 30.771 36.0716C30.833 36.0712 30.8831 36.0183 30.8823 35.9563C30.8819 35.8951 30.8322 35.8478 30.771 35.8471C30.7684 35.847 30.767 35.847 30.7632 35.8471H30.7632ZM30.7632 36.4096C30.7042 36.4132 30.6581 36.4599 30.6577 36.5188C30.6571 36.5816 30.7083 36.6344 30.771 36.6341C30.833 36.6336 30.8831 36.5808 30.8823 36.5188C30.8819 36.4576 30.8322 36.4104 30.771 36.4096C30.7684 36.4095 30.767 36.4095 30.7632 36.4096H30.7632ZM30.7632 36.9721C30.7042 36.9757 30.6581 37.022 30.6577 37.0813C30.6571 37.1441 30.7083 37.197 30.771 37.1966C30.833 37.1961 30.8831 37.1433 30.8823 37.0813C30.8819 37.0201 30.8322 36.9729 30.771 36.9721C30.7684 36.972 30.767 36.972 30.7632 36.9721H30.7632ZM30.7515 37.5345C30.697 37.5421 30.6573 37.5909 30.6577 37.6461C30.6582 37.708 30.7086 37.7583 30.771 37.7571C30.8322 37.7566 30.8819 37.7069 30.8823 37.6461C30.8819 37.5848 30.8322 37.5353 30.771 37.5345C30.7634 37.534 30.761 37.534 30.7534 37.5345H30.7515ZM30.7632 38.0951C30.7035 38.0987 30.657 38.1484 30.6577 38.2085C30.6582 38.2705 30.7086 38.3204 30.771 38.3197C30.8322 38.3192 30.8819 38.2701 30.8823 38.2085C30.8829 38.1465 30.833 38.0958 30.771 38.0951C30.7684 38.0951 30.767 38.0951 30.7632 38.0951H30.7632ZM30.7632 38.6576C30.7035 38.6612 30.657 38.7109 30.6577 38.771C30.6582 38.833 30.7086 38.8833 30.771 38.8825C30.8322 38.882 30.8819 38.8326 30.8823 38.771C30.8829 38.709 30.833 38.6584 30.771 38.6576C30.7684 38.6575 30.767 38.6575 30.7632 38.6576H30.7632ZM30.7632 39.2201C30.7035 39.2237 30.657 39.2734 30.6577 39.3335C30.6582 39.3955 30.7086 39.4454 30.771 39.4451C30.8322 39.4446 30.8819 39.3951 30.8823 39.3335C30.8829 39.2715 30.833 39.2209 30.771 39.2201C30.7684 39.22 30.767 39.22 30.7632 39.2201H30.7632ZM30.7632 39.7827C30.7042 39.7863 30.6581 39.8344 30.6577 39.8937C30.6571 39.9565 30.7083 40.0075 30.771 40.0071C30.833 40.0066 30.8831 39.9557 30.8823 39.8937C30.8819 39.8325 30.8322 39.7834 30.771 39.7827C30.7684 39.7826 30.767 39.7826 30.7632 39.7827H30.7632ZM30.7632 40.3452C30.7042 40.3488 30.6581 40.3955 30.6577 40.4544C30.6571 40.5172 30.7083 40.57 30.771 40.5696C30.833 40.5692 30.8831 40.5164 30.8823 40.4544C30.8819 40.3932 30.8322 40.3459 30.771 40.3452C30.7684 40.3451 30.767 40.3451 30.7632 40.3452H30.7632ZM30.7632 40.9077C30.7042 40.9113 30.6581 40.958 30.6577 41.0169C30.6571 41.0797 30.7083 41.1325 30.771 41.1322C30.833 41.1317 30.8831 41.0789 30.8823 41.0169C30.8819 40.9557 30.8322 40.9085 30.771 40.9077C30.7684 40.9076 30.767 40.9076 30.7632 40.9077H30.7632ZM30.7515 41.4701C30.697 41.4777 30.6573 41.5265 30.6577 41.5816C30.6571 41.6444 30.7083 41.6954 30.771 41.695C30.833 41.6945 30.8831 41.6436 30.8823 41.5816C30.8819 41.5204 30.8322 41.4709 30.771 41.4701C30.7634 41.4695 30.761 41.4695 30.7534 41.4701H30.7515ZM30.7515 42.0326C30.697 42.0402 30.6573 42.089 30.6577 42.1442C30.6582 42.2062 30.7086 42.256 30.771 42.2552C30.8322 42.2548 30.8819 42.2058 30.8823 42.1442C30.8819 42.0829 30.8322 42.0334 30.771 42.0326C30.7634 42.0321 30.761 42.0321 30.7534 42.0326H30.7515ZM30.771 42.5932C30.7083 42.5926 30.6573 42.6438 30.6577 42.7066C30.6582 42.7686 30.7086 42.818 30.771 42.8177C30.8322 42.8172 30.8816 42.7682 30.8823 42.7066C30.8829 42.6446 30.8334 42.594 30.771 42.5932ZM30.7632 43.1557C30.7035 43.1593 30.657 43.209 30.6577 43.2691C30.6582 43.3311 30.7086 43.3809 30.771 43.3805C30.8322 43.38 30.8819 43.3307 30.8823 43.2691C30.8829 43.2071 30.833 43.1565 30.771 43.1557C30.7684 43.1556 30.767 43.1556 30.7632 43.1557H30.7632Z" fill="#333333"/>
</g>
<defs>
<clipPath id="clip0">
<rect width="48" height="48" fill="white"/>
</clipPath>
</defs>
</svg>
