<svg width="48" height="48" viewBox="0 0 48 48" fill="none" xmlns="http://www.w3.org/2000/svg">
<path d="M14.241 3.82312C13.3715 3.82312 12.6726 4.52204 12.6726 5.39148V42.2528C12.6726 43.1222 13.3715 43.8231 14.241 43.8231H33.946C34.8155 43.8231 35.5144 43.1222 35.5144 42.2528V5.39148C35.5144 4.52204 34.8155 3.82312 33.946 3.82312H14.241ZM14.6726 4.32312H33.5124C34.3437 4.32312 35.0144 5.00474 35.0144 5.85242V41.7919C35.0144 42.6396 34.3437 43.3231 33.5124 43.3231H14.6726C13.8413 43.3231 13.1726 42.6396 13.1726 41.7919V5.85242C13.1726 5.00474 13.8413 4.32312 14.6726 4.32312ZM30.9382 4.55749C30.8793 4.56105 30.8331 4.60948 30.8328 4.66882C30.8322 4.73156 30.8833 4.78248 30.946 4.7821C31.008 4.78161 31.0581 4.73081 31.0574 4.66882C31.0569 4.6076 31.0073 4.55825 30.946 4.55749C30.9434 4.55742 30.942 4.55742 30.9382 4.55749H30.9382ZM30.9382 5.11999C30.8793 5.12354 30.8331 5.17198 30.8328 5.23132C30.8322 5.29406 30.8833 5.34498 30.946 5.3446C31.008 5.34411 31.0581 5.29331 31.0574 5.23132C31.0569 5.1701 31.0073 5.12075 30.946 5.11999C30.9434 5.11992 30.942 5.11992 30.9382 5.11999H30.9382ZM30.9382 5.68249C30.8793 5.68604 30.8331 5.73448 30.8328 5.79382C30.8322 5.85656 30.8833 5.90748 30.946 5.9071C31.008 5.90661 31.0581 5.85581 31.0574 5.79382C31.0569 5.73259 31.0073 5.68325 30.946 5.68249C30.9434 5.68242 30.942 5.68242 30.9382 5.68249H30.9382ZM30.9265 6.24499C30.8721 6.25255 30.8324 6.30114 30.8328 6.35632C30.8333 6.41831 30.8837 6.46803 30.946 6.46765C31.0073 6.46716 31.057 6.41793 31.0574 6.35632C31.0569 6.29509 31.0073 6.24575 30.946 6.24499C30.9384 6.24443 30.936 6.24443 30.9285 6.24499H30.9265ZM30.946 6.80554C30.8833 6.80494 30.8324 6.85608 30.8328 6.91882C30.8332 6.98081 30.8837 7.03053 30.946 7.03015C31.0073 7.02966 31.0566 6.98043 31.0574 6.91882C31.0579 6.85684 31.0084 6.8063 30.946 6.80554ZM30.9382 7.36804C30.8785 7.37163 30.832 7.42123 30.8328 7.48132C30.8333 7.54331 30.8837 7.59303 30.9461 7.59265C31.0073 7.59216 31.057 7.54293 31.0574 7.48132C31.058 7.41934 31.008 7.3688 30.9461 7.36804C30.9435 7.36793 30.9421 7.36793 30.9383 7.36804H30.9382ZM30.9382 7.93054C30.8785 7.93417 30.832 7.98373 30.8328 8.04382C30.8333 8.10581 30.8837 8.15553 30.9461 8.15515C31.0073 8.1547 31.057 8.10543 31.0574 8.04382C31.058 7.98184 31.008 7.9313 30.9461 7.93054C30.9435 7.93047 30.9421 7.93047 30.9383 7.93054H30.9382ZM30.9382 8.49304C30.8785 8.49663 30.832 8.54623 30.8328 8.60632C30.8333 8.66831 30.8837 8.71803 30.9461 8.71765C31.0073 8.71716 31.057 8.66793 31.0574 8.60632C31.058 8.54434 31.008 8.4938 30.9461 8.49304C30.9435 8.49297 30.9421 8.49297 30.9383 8.49304H30.9382ZM25.4187 8.8739V8.87585C25.1765 8.87915 24.9358 8.97669 24.7527 9.16491L22.9441 11.0223C22.578 11.3984 22.5852 11.9961 22.9617 12.3622C23.3379 12.7284 23.9354 12.7187 24.3015 12.3426L26.1101 10.4833C26.4762 10.1068 26.469 9.50955 26.0925 9.14343C25.9044 8.9605 25.6609 8.8705 25.4187 8.8739V8.8739ZM30.9382 9.05554C30.8793 9.05909 30.8332 9.10753 30.8328 9.16687C30.8322 9.22961 30.8833 9.28053 30.9461 9.28015C31.008 9.27966 31.0581 9.22885 31.0574 9.16687C31.0569 9.10564 31.0073 9.0563 30.9461 9.05554C30.9435 9.05547 30.9421 9.05547 30.9383 9.05554H30.9382ZM25.4832 9.35828C25.5619 9.36208 25.6425 9.39616 25.7273 9.4657C26.1339 9.8274 25.6524 10.2511 25.4773 10.4344L24.6121 11.3387C24.0048 11.9701 23.7408 12.3969 23.3171 11.9891C22.9574 11.6157 23.2754 11.3932 23.9636 10.6942L24.8289 9.79187C25.0343 9.5908 25.2469 9.34671 25.4832 9.35828H25.4832ZM30.9382 9.61804C30.8793 9.62164 30.8332 9.67003 30.8328 9.72937C30.8322 9.79211 30.8833 9.84303 30.9461 9.84265C31.008 9.84216 31.0581 9.79135 31.0574 9.72937C31.0569 9.66814 31.0073 9.6188 30.9461 9.61804C30.9435 9.61793 30.9421 9.61793 30.9383 9.61804H30.9382ZM30.9265 10.1805C30.8721 10.1881 30.8324 10.2367 30.8328 10.2919C30.8322 10.3546 30.8833 10.4055 30.9461 10.4052C31.008 10.4047 31.0581 10.3539 31.0574 10.2919C31.0569 10.2306 31.0073 10.1813 30.9461 10.1805C30.9385 10.18 30.936 10.18 30.9285 10.1805H30.9265ZM30.9461 10.7411C30.8833 10.7405 30.8324 10.7916 30.8328 10.8544C30.8333 10.9163 30.8837 10.9661 30.9461 10.9657C31.0073 10.9652 31.0566 10.916 31.0574 10.8544C31.0579 10.7924 31.0084 10.7418 30.9461 10.7411ZM19.8503 10.8739V10.8759C19.6082 10.8792 19.3674 10.9767 19.1843 11.165L17.3757 13.0224C17.0096 13.3984 17.0169 13.9961 17.3933 14.3622C17.7696 14.7285 18.367 14.7195 18.7332 14.3427L20.5418 12.4833C20.9079 12.1069 20.9006 11.5096 20.5242 11.1435C20.336 10.9606 20.0926 10.8705 19.8503 10.8739L19.8503 10.8739ZM30.9461 11.3036C30.8833 11.303 30.8324 11.3541 30.8328 11.4169C30.8333 11.4788 30.8837 11.529 30.9461 11.5282C31.0073 11.5277 31.0566 11.4781 31.0574 11.4169C31.0579 11.3549 31.0084 11.3043 30.9461 11.3036ZM19.9148 11.3583C19.9936 11.3621 20.0742 11.3962 20.1589 11.4657C20.5655 11.8274 20.0841 12.2511 19.9089 12.4345L19.0437 13.3387C18.4365 13.9701 18.1724 14.3969 17.7488 13.9891C17.3891 13.6157 17.707 13.3932 18.3953 12.6942L19.2605 11.7919C19.4659 11.5908 19.6785 11.3467 19.9148 11.3583ZM30.9382 11.8661C30.8785 11.8697 30.832 11.9193 30.8328 11.9794C30.8333 12.0414 30.8837 12.0915 30.9461 12.0907C31.0073 12.0902 31.057 12.0406 31.0574 11.9794C31.058 11.9174 31.008 11.8668 30.9461 11.8661C30.9435 11.866 30.9421 11.866 30.9382 11.8661H30.9382ZM30.9382 12.4286C30.8785 12.4322 30.832 12.4818 30.8328 12.5419C30.8333 12.6039 30.8837 12.654 30.9461 12.6532C31.0073 12.6527 31.057 12.6031 31.0574 12.5419C31.058 12.4799 31.008 12.429 30.9461 12.4286C30.9435 12.4285 30.9421 12.4285 30.9382 12.4286H30.9382ZM30.9382 12.9911C30.8793 12.9947 30.8331 13.0431 30.8328 13.1024C30.8322 13.1652 30.8833 13.2161 30.9461 13.2157C31.008 13.2152 31.0581 13.1644 31.0574 13.1024C31.0569 13.0412 31.0073 12.9918 30.9461 12.9911C30.9435 12.991 30.9421 12.991 30.9382 12.9911H30.9382ZM30.9382 13.5536C30.8793 13.5572 30.8331 13.6056 30.8328 13.6649C30.8322 13.7277 30.8833 13.7786 30.9461 13.7782C31.008 13.7777 31.0581 13.7269 31.0574 13.6649C31.0569 13.6037 31.0073 13.5543 30.9461 13.5536C30.9435 13.5535 30.9421 13.5535 30.9382 13.5536H30.9382ZM25.4187 13.5692V13.5712C25.1765 13.5745 24.9358 13.6721 24.7527 13.8603L22.9441 15.7177C22.578 16.0938 22.5852 16.6914 22.9617 17.0575C23.3379 17.4238 23.9354 17.4171 24.3015 17.038L26.1101 15.1786C26.4762 14.8022 26.469 14.2049 26.0925 13.8388C25.9044 13.6559 25.6609 13.5659 25.4187 13.5693V13.5692ZM25.4832 14.0555C25.5619 14.0593 25.6425 14.0934 25.7273 14.163C26.1339 14.5247 25.6524 14.9465 25.4773 15.1298L24.6121 16.0341C24.0048 16.6654 23.7408 17.0923 23.3171 16.6845C22.9574 16.311 23.2754 16.0904 23.9636 15.3915L24.8289 14.4872C25.0343 14.2861 25.2469 14.044 25.4832 14.0555L25.4832 14.0555ZM30.9382 14.1161C30.8793 14.1197 30.8331 14.1685 30.8328 14.2274C30.8322 14.2902 30.8833 14.3411 30.946 14.3407C31.008 14.3403 31.0581 14.2894 31.0574 14.2274C31.0569 14.1662 31.0073 14.1165 30.946 14.1161C30.9434 14.116 30.942 14.116 30.9382 14.1161H30.9382ZM30.9265 14.6786C30.8721 14.6862 30.8324 14.7351 30.8328 14.7899C30.8322 14.8527 30.8833 14.9036 30.946 14.9032C31.008 14.9027 31.0581 14.8519 31.0574 14.7899C31.0569 14.7287 31.0073 14.679 30.946 14.6786C30.9384 14.678 30.936 14.678 30.9285 14.6786H30.9265ZM30.9265 15.2411C30.8721 15.2487 30.8324 15.2972 30.8328 15.3524C30.8333 15.4144 30.8837 15.4641 30.946 15.4638C31.0073 15.4633 31.057 15.4137 31.0574 15.3524C31.0569 15.2912 31.0073 15.2419 30.946 15.2411C30.9384 15.2405 30.936 15.2405 30.9285 15.2411H30.9265ZM30.946 15.8016C30.8833 15.801 30.8324 15.8522 30.8328 15.9149C30.8333 15.9769 30.8837 16.027 30.946 16.0263C31.0073 16.0258 31.0566 15.9762 31.0574 15.9149C31.0579 15.8529 31.0084 15.8024 30.946 15.8016ZM19.8503 16.1337V16.1357C19.6081 16.139 19.3674 16.2365 19.1843 16.4247L17.3757 18.2821C17.0096 18.6582 17.0169 19.2559 17.3933 19.622C17.7696 19.9882 18.367 19.9793 18.7332 19.6025L20.5417 17.7431C20.9079 17.3666 20.9006 16.7694 20.5242 16.4032C20.336 16.2203 20.0925 16.1303 19.8503 16.1337V16.1337ZM30.9382 16.3641C30.8785 16.3677 30.832 16.4173 30.8328 16.4774C30.8333 16.5394 30.8837 16.5895 30.946 16.5887C31.0073 16.5883 31.057 16.5386 31.0574 16.4774C31.058 16.4154 31.008 16.3649 30.946 16.3641C30.9434 16.3641 30.942 16.3641 30.9382 16.3641H30.9382ZM19.9148 16.618C19.9936 16.6218 20.0742 16.6559 20.1589 16.7255C20.5655 17.0872 20.0841 17.5109 19.9089 17.6942L19.0437 18.5985C18.4365 19.2299 18.1724 19.6567 17.7488 19.2489C17.3891 18.8755 17.707 18.6529 18.3953 17.954L19.2605 17.0497C19.4659 16.8486 19.6785 16.6065 19.9148 16.618ZM30.9382 16.9266C30.8785 16.9302 30.832 16.9798 30.8328 17.0399C30.8333 17.1019 30.8837 17.1516 30.946 17.1512C31.0073 17.1508 31.057 17.1015 31.0574 17.0399C31.058 16.9779 31.008 16.9274 30.946 16.9266C30.9434 16.9266 30.942 16.9266 30.9382 16.9266H30.9382ZM30.9382 17.4891C30.8793 17.4927 30.8331 17.5415 30.8328 17.6005C30.8322 17.6632 30.8833 17.7141 30.946 17.7137C31.008 17.7133 31.0581 17.6624 31.0574 17.6005C31.0569 17.5392 31.0073 17.4895 30.946 17.4891C30.9434 17.4891 30.942 17.4891 30.9382 17.4891H30.9382ZM30.9382 18.0516C30.8793 18.0552 30.8331 18.104 30.8328 18.163C30.8322 18.2257 30.8833 18.2766 30.946 18.2762C31.008 18.2758 31.0581 18.2249 31.0574 18.163C31.0569 18.1017 31.0073 18.052 30.946 18.0516C30.9434 18.0515 30.942 18.0515 30.9382 18.0516H30.9382ZM30.9382 18.6141C30.8793 18.6177 30.8331 18.6665 30.8328 18.7255C30.8322 18.7882 30.8833 18.8391 30.946 18.8387C31.008 18.8383 31.0581 18.7874 31.0574 18.7255C31.0569 18.6642 31.0073 18.6145 30.946 18.6141C30.9434 18.614 30.942 18.614 30.9382 18.6141H30.9382ZM25.4187 18.7841V18.7861C25.1765 18.7894 24.9357 18.8869 24.7527 19.0751L22.9441 20.9325C22.578 21.3086 22.5852 21.9063 22.9617 22.2724C23.3379 22.6386 23.9354 22.6319 24.3015 22.2529L26.1101 20.3935C26.4762 20.017 26.469 19.4198 26.0925 19.0536C25.9044 18.8707 25.6609 18.7807 25.4187 18.7841V18.7841ZM30.9265 19.1766C30.8721 19.1842 30.8324 19.2328 30.8328 19.288C30.8322 19.3507 30.8833 19.4016 30.946 19.4012C31.008 19.4008 31.0581 19.3499 31.0574 19.288C31.0569 19.2267 31.0073 19.1774 30.946 19.1766C30.9384 19.1761 30.936 19.1761 30.9285 19.1766H30.9265ZM25.4832 19.2704C25.5619 19.2742 25.6425 19.3083 25.7273 19.3778C26.1339 19.7395 25.6524 20.1613 25.4773 20.3446L24.6121 21.2489C24.0048 21.8803 23.7408 22.3071 23.3171 21.8993C22.9574 21.5259 23.2754 21.3053 23.9636 20.6063L24.8289 19.702C25.0343 19.501 25.2469 19.2588 25.4832 19.2704ZM30.946 19.7372C30.8833 19.7366 30.8324 19.7877 30.8328 19.8505C30.8333 19.9124 30.8837 19.9625 30.946 19.9618C31.0073 19.9613 31.0566 19.9117 31.0574 19.8505C31.0579 19.7885 31.0084 19.7379 30.946 19.7372ZM30.9382 20.2997C30.8785 20.3033 30.832 20.3529 30.8328 20.413C30.8333 20.4749 30.8837 20.525 30.9461 20.5243C31.0073 20.5238 31.057 20.4742 31.0574 20.413C31.058 20.351 31.008 20.3001 30.9461 20.2997C30.9435 20.2996 30.9421 20.2996 30.9383 20.2997H30.9382ZM30.9382 20.8622C30.8785 20.8658 30.832 20.9154 30.8328 20.9755C30.8333 21.0374 30.8837 21.0872 30.9461 21.0868C31.0073 21.0863 31.057 21.0371 31.0574 20.9755C31.058 20.9135 31.008 20.8629 30.9461 20.8622C30.9435 20.8621 30.9421 20.8621 30.9383 20.8622H30.9382ZM19.8504 21.3915V21.3935C19.6082 21.3968 19.3674 21.4943 19.1843 21.6825L17.3757 23.54C17.0096 23.916 17.0169 24.5137 17.3933 24.8798C17.7696 25.246 18.3671 25.2394 18.7332 24.8603L20.5418 23.0009C20.9079 22.6245 20.9006 22.0272 20.5242 21.6611C20.336 21.4781 20.0926 21.3881 19.8504 21.3915V21.3915ZM30.9382 21.4247C30.8785 21.4283 30.832 21.4779 30.8328 21.538C30.8333 21.5999 30.8837 21.6497 30.9461 21.6493C31.0073 21.6488 31.057 21.5996 31.0574 21.538C31.058 21.476 31.008 21.4254 30.9461 21.4247C30.9435 21.4246 30.9421 21.4246 30.9383 21.4247H30.9382ZM19.9148 21.8778C19.9936 21.8816 20.0742 21.9157 20.1589 21.9852C20.5655 22.3469 20.0841 22.7687 19.9089 22.952L19.0437 23.8563C18.4365 24.4877 18.1724 24.9145 17.7488 24.5067C17.3891 24.1333 17.707 23.9127 18.3953 23.2137L19.2605 22.3094C19.4659 22.1084 19.6785 21.8662 19.9148 21.8778ZM30.9382 21.9872C30.8793 21.9908 30.8332 22.0395 30.8328 22.0985C30.8322 22.1612 30.8833 22.2122 30.9461 22.2118C31.008 22.2113 31.0581 22.1605 31.0574 22.0985C31.0569 22.0373 31.0073 21.9876 30.9461 21.9872C30.9435 21.9871 30.9421 21.9871 30.9383 21.9872H30.9382ZM30.9382 22.5497C30.8793 22.5533 30.8332 22.602 30.8328 22.661C30.8322 22.7237 30.8833 22.7747 30.9461 22.7743C31.008 22.7738 31.0581 22.723 31.0574 22.661C31.0569 22.5998 31.0073 22.5501 30.9461 22.5497C30.9435 22.5496 30.9421 22.5496 30.9383 22.5497H30.9382ZM30.9382 23.1122C30.8793 23.1158 30.8332 23.1642 30.8328 23.2235C30.8322 23.2862 30.8833 23.3372 30.9461 23.3368C31.008 23.3363 31.0581 23.2855 31.0574 23.2235C31.0569 23.1623 31.0073 23.1129 30.9461 23.1122C30.9435 23.1121 30.9421 23.1121 30.9383 23.1122H30.9382ZM30.9265 23.6747C30.8721 23.6823 30.8324 23.7308 30.8328 23.786C30.8322 23.8487 30.8833 23.8997 30.9461 23.8993C31.008 23.8988 31.0581 23.848 31.0574 23.786C31.0569 23.7248 31.0073 23.6754 30.9461 23.6747C30.9385 23.6741 30.936 23.6741 30.9285 23.6747H30.9265ZM25.4187 23.9989V24.0009C25.1765 24.0042 24.9358 24.1017 24.7527 24.29L22.9441 26.1474C22.578 26.5234 22.5852 27.1211 22.9617 27.4872C23.3379 27.8535 23.9354 27.8464 24.3015 27.4677L26.1101 25.6083C26.4762 25.2319 26.469 24.6346 26.0925 24.2685C25.9044 24.0855 25.6609 23.9955 25.4187 23.9989V23.9989ZM30.9265 24.2372C30.8721 24.2448 30.8324 24.2933 30.8328 24.3485C30.8333 24.4105 30.8837 24.4606 30.9461 24.4598C31.0073 24.4593 31.057 24.4097 31.0574 24.3485C31.0569 24.2873 31.0073 24.2379 30.9461 24.2372C30.9385 24.2366 30.936 24.2366 30.9285 24.2372H30.9265ZM25.4832 24.4852C25.5619 24.489 25.6425 24.5231 25.7273 24.5926C26.1339 24.9543 25.6524 25.3761 25.4773 25.5594L24.6121 26.4637C24.0048 27.0951 23.7408 27.5219 23.3171 27.1141C22.9575 26.7407 23.2754 26.5201 23.9636 25.8212L24.8289 24.9169C25.0343 24.7158 25.2469 24.4737 25.4832 24.4852L25.4832 24.4852ZM30.9382 24.7977C30.8785 24.8013 30.832 24.8509 30.8328 24.911C30.8333 24.973 30.8837 25.0227 30.9461 25.0223C31.0073 25.0218 31.057 24.9726 31.0574 24.911C31.058 24.849 31.008 24.7985 30.9461 24.7977C30.9435 24.7976 30.9421 24.7976 30.9383 24.7977H30.9382ZM30.9382 25.3602C30.8785 25.3638 30.832 25.4134 30.8328 25.4735C30.8333 25.5355 30.8837 25.5852 30.9461 25.5848C31.0073 25.5843 31.057 25.5351 31.0574 25.4735C31.058 25.4115 31.008 25.361 30.9461 25.3602C30.9435 25.3601 30.9421 25.3601 30.9383 25.3602H30.9382ZM30.9382 25.9227C30.8785 25.9263 30.832 25.9759 30.8328 26.036C30.8333 26.098 30.8837 26.1477 30.9461 26.1473C31.0073 26.1468 31.057 26.0976 31.0574 26.036C31.058 25.974 31.008 25.9235 30.9461 25.9227C30.9435 25.9226 30.9421 25.9226 30.9383 25.9227H30.9382ZM30.9382 26.4852C30.8793 26.4888 30.8332 26.5372 30.8328 26.5966C30.8322 26.6593 30.8833 26.7102 30.9461 26.7098C31.008 26.7093 31.0581 26.6585 31.0574 26.5966C31.0569 26.5353 31.0073 26.486 30.9461 26.4852C30.9435 26.4851 30.9421 26.4851 30.9383 26.4852H30.9382ZM19.8504 26.6512V26.6532C19.6082 26.6565 19.3674 26.7541 19.1843 26.9423L17.3757 28.7997C17.0096 29.1758 17.0169 29.7734 17.3933 30.1396C17.7696 30.5058 18.367 30.4969 18.7332 30.12L20.5418 28.2607C20.9079 27.8842 20.9006 27.2869 20.5242 26.9208C20.336 26.7379 20.0926 26.6479 19.8504 26.6513L19.8504 26.6512ZM30.9382 27.0477C30.8793 27.0513 30.8332 27.0997 30.8328 27.1591C30.8322 27.2218 30.8833 27.2727 30.9461 27.2723C31.008 27.2718 31.0581 27.221 31.0574 27.1591C31.0569 27.0978 31.0073 27.0485 30.9461 27.0477C30.9435 27.0476 30.9421 27.0476 30.9383 27.0477H30.9382ZM19.9148 27.1356C19.9936 27.1394 20.0742 27.1735 20.1589 27.243C20.5655 27.6047 20.0841 28.0285 19.9089 28.2118L19.0437 29.1161C18.4365 29.7475 18.1724 30.1743 17.7488 29.7665C17.3891 29.3931 17.707 29.1705 18.3953 28.4715L19.2605 27.5692C19.4659 27.3681 19.6785 27.124 19.9148 27.1356ZM30.9382 27.6102C30.8793 27.6138 30.8332 27.6622 30.8328 27.7216C30.8322 27.7843 30.8833 27.8352 30.9461 27.8348C31.008 27.8343 31.0581 27.7835 31.0574 27.7216C31.0569 27.6603 31.0073 27.611 30.9461 27.6102C30.9435 27.6101 30.9421 27.6101 30.9383 27.6102H30.9382ZM30.9265 28.1727C30.8721 28.1803 30.8324 28.2289 30.8328 28.2841C30.8333 28.346 30.8837 28.3961 30.9461 28.3954C31.0073 28.3949 31.057 28.3453 31.0574 28.2841C31.0569 28.2228 31.0073 28.1735 30.9461 28.1727C30.9385 28.1722 30.936 28.1722 30.9285 28.1727H30.9265ZM30.9461 28.7333C30.8833 28.7327 30.8324 28.7838 30.8328 28.8466C30.8333 28.9085 30.8837 28.9583 30.9461 28.9579C31.0073 28.9574 31.0566 28.9082 31.0574 28.8466C31.0579 28.7846 31.0084 28.734 30.9461 28.7333ZM25.4187 29.2137V29.2157C25.1765 29.219 24.9358 29.3166 24.7527 29.5048L22.9441 31.3622C22.578 31.7383 22.5852 32.3359 22.9617 32.7021C23.3379 33.0683 23.9354 33.0616 24.3015 32.6825L26.1101 30.8232C26.4762 30.4467 26.469 29.8494 26.0925 29.4833C25.9044 29.3004 25.6609 29.2104 25.4187 29.2138V29.2137ZM30.9382 29.2958C30.8785 29.2994 30.832 29.349 30.8328 29.409C30.8333 29.471 30.8837 29.5208 30.9461 29.5204C31.0073 29.5199 31.057 29.4707 31.0574 29.409C31.058 29.3471 31.008 29.2965 30.9461 29.2958C30.9435 29.2957 30.9421 29.2957 30.9383 29.2958H30.9382ZM25.4832 29.7001C25.5619 29.7039 25.6425 29.7379 25.7273 29.8075C26.1339 30.1692 25.6524 30.591 25.4773 30.7743L24.6121 31.6786C24.0048 32.3099 23.7408 32.7368 23.3171 32.329C22.9574 31.9556 23.2754 31.7349 23.9636 31.036L24.8289 30.1317C25.0343 29.9306 25.2469 29.6885 25.4832 29.7001L25.4832 29.7001ZM30.9382 29.8583C30.8785 29.8619 30.832 29.9115 30.8328 29.9715C30.8333 30.0335 30.8837 30.0833 30.9461 30.0829C31.0073 30.0824 31.057 30.0332 31.0574 29.9715C31.058 29.9096 31.008 29.859 30.9461 29.8583C30.9435 29.8582 30.9421 29.8582 30.9383 29.8583H30.9382ZM30.9382 30.4208C30.8785 30.4244 30.832 30.474 30.8328 30.534C30.8333 30.596 30.8837 30.6461 30.9461 30.6454C31.0073 30.6449 31.057 30.5953 31.0574 30.534C31.058 30.4721 31.008 30.4215 30.9461 30.4208C30.9435 30.4207 30.9421 30.4207 30.9383 30.4208H30.9382ZM30.9382 30.9833C30.8793 30.9869 30.8331 31.0353 30.8328 31.0946C30.8322 31.1573 30.8833 31.2083 30.9461 31.2079C31.008 31.2074 31.0581 31.1566 31.0574 31.0946C31.0569 31.0334 31.0073 30.984 30.9461 30.9833C30.9435 30.9832 30.9421 30.9832 30.9383 30.9833H30.9382ZM30.9382 31.5458C30.8793 31.5494 30.8331 31.5978 30.8328 31.6571C30.8322 31.7198 30.8833 31.7708 30.9461 31.7704C31.008 31.7699 31.0581 31.7191 31.0574 31.6571C31.0569 31.5959 31.0073 31.5465 30.9461 31.5458C30.9435 31.5457 30.9421 31.5457 30.9383 31.5458H30.9382ZM19.8504 31.911V31.913C19.6082 31.9163 19.3674 32.0138 19.1843 32.2021L17.3757 34.0595C17.0096 34.4355 17.0169 35.0332 17.3933 35.3993C17.7696 35.7656 18.367 35.7566 18.7332 35.3798L20.5418 33.5204C20.9079 33.144 20.9006 32.5467 20.5242 32.1806C20.336 31.9977 20.0926 31.9076 19.8504 31.911V31.911ZM30.9265 32.1083C30.8721 32.1159 30.8324 32.1644 30.8328 32.2196C30.8322 32.2823 30.8833 32.3333 30.9461 32.3329C31.008 32.3324 31.0581 32.2816 31.0574 32.2196C31.0569 32.1584 31.0073 32.109 30.9461 32.1083C30.9385 32.1077 30.936 32.1077 30.9285 32.1083H30.9265ZM19.9148 32.3954C19.9936 32.3992 20.0742 32.4333 20.1589 32.5028C20.5655 32.8645 20.0841 33.2882 19.9089 33.4715L19.0437 34.3758C18.4365 35.0072 18.1724 35.434 17.7488 35.0262C17.3891 34.6528 17.707 34.4303 18.3953 33.7313L19.2605 32.827C19.4659 32.6259 19.6785 32.3838 19.9148 32.3954ZM30.9265 32.6708C30.8721 32.6784 30.8324 32.7273 30.8328 32.7821C30.8333 32.8441 30.8837 32.8938 30.9461 32.8934C31.0073 32.8929 31.057 32.8437 31.0574 32.7821C31.0569 32.7209 31.0073 32.6711 30.9461 32.6708C30.9385 32.6702 30.936 32.6702 30.9285 32.6708H30.9265ZM30.9461 33.2313C30.8833 33.2307 30.8324 33.2819 30.8328 33.3446C30.8333 33.4066 30.8837 33.4563 30.9461 33.4559C31.0073 33.4554 31.0566 33.4062 31.0574 33.3446C31.0579 33.2826 31.0084 33.2321 30.9461 33.2313ZM30.9382 33.7938C30.8785 33.7974 30.832 33.847 30.8328 33.9071C30.8333 33.9691 30.8837 34.0188 30.9461 34.0184C31.0073 34.0179 31.057 33.9687 31.0574 33.9071C31.058 33.8451 31.0081 33.7946 30.9461 33.7938C30.9435 33.7937 30.9421 33.7937 30.9383 33.7938H30.9382ZM30.9382 34.3563C30.8785 34.3599 30.832 34.4095 30.8328 34.4696C30.8333 34.5316 30.8837 34.5813 30.9461 34.5809C31.0073 34.5804 31.057 34.5312 31.0574 34.4696C31.058 34.4076 31.0081 34.3571 30.9461 34.3563C30.9435 34.3562 30.9421 34.3562 30.9383 34.3563H30.9382ZM23.8836 34.8251C23.6414 34.8284 23.4006 34.9259 23.2175 35.1141L21.409 36.9715C21.0428 37.3476 21.0501 37.9453 21.4265 38.3114C21.8028 38.6776 22.4003 38.6699 22.7664 38.2938L24.575 36.4344C24.9411 36.058 24.9338 35.4607 24.5574 35.0946C24.3693 34.9117 24.1258 34.8217 23.8836 34.8251ZM30.9382 34.9188C30.8793 34.9224 30.8332 34.9708 30.8328 35.0301C30.8322 35.0929 30.8833 35.1438 30.9461 35.1434C31.008 35.1429 31.0581 35.0921 31.0574 35.0301C31.0569 34.9689 31.0073 34.9196 30.9461 34.9188C30.9435 34.9187 30.9421 34.9187 30.9383 34.9188H30.9382ZM23.948 35.3075C24.0268 35.3113 24.1074 35.3454 24.1922 35.4149C24.5987 35.7766 24.1173 36.2003 23.9422 36.3837L23.0769 37.288C22.4697 37.9193 22.2057 38.3462 21.782 37.9383C21.4223 37.5649 21.7403 37.3424 22.4285 36.6434L23.2937 35.7391C23.4991 35.5381 23.7117 35.2959 23.948 35.3075ZM30.9382 35.4813C30.8793 35.4849 30.8332 35.5333 30.8328 35.5926C30.8322 35.6554 30.8833 35.7063 30.9461 35.7059C31.008 35.7054 31.0581 35.6546 31.0574 35.5926C31.0569 35.5314 31.0073 35.4821 30.9461 35.4813C30.9435 35.4812 30.9421 35.4812 30.9383 35.4813H30.9382ZM30.9382 36.0438C30.8793 36.0474 30.8332 36.0958 30.8328 36.1551C30.8322 36.2179 30.8833 36.2688 30.9461 36.2684C31.008 36.2679 31.0581 36.2171 31.0574 36.1551C31.0569 36.0939 31.0073 36.0446 30.9461 36.0438C30.9435 36.0437 30.9421 36.0437 30.9383 36.0438H30.9382ZM30.9382 36.6063C30.8793 36.6099 30.8332 36.6583 30.8328 36.7176C30.8322 36.7804 30.8833 36.8313 30.9461 36.8309C31.008 36.8304 31.0581 36.7796 31.0574 36.7176C31.0569 36.6564 31.0073 36.6071 30.9461 36.6063C30.9435 36.6062 30.9421 36.6062 30.9383 36.6063H30.9382ZM30.9265 37.1688C30.8721 37.1764 30.8324 37.225 30.8328 37.2801C30.8333 37.3421 30.8837 37.3922 30.9461 37.3915C31.0073 37.391 31.057 37.3414 31.0574 37.2801C31.0569 37.2189 31.0073 37.1696 30.9461 37.1688C30.9385 37.1682 30.936 37.1682 30.9285 37.1688H30.9265ZM30.9382 37.7294C30.8785 37.733 30.832 37.7825 30.8328 37.8426C30.8333 37.9046 30.8837 37.9543 30.9461 37.954C31.0073 37.9535 31.057 37.9042 31.0574 37.8426C31.058 37.7807 31.0081 37.7301 30.9461 37.7294C30.9435 37.7293 30.9421 37.7293 30.9383 37.7294H30.9382ZM30.9382 38.2919C30.8785 38.2955 30.832 38.345 30.8328 38.4051C30.8333 38.4671 30.8837 38.5168 30.9461 38.5165C31.0073 38.516 31.057 38.4667 31.0574 38.4051C31.058 38.3432 31.0081 38.2926 30.9461 38.2919C30.9435 38.2917 30.9421 38.2917 30.9383 38.2919H30.9382ZM30.9382 38.8544C30.8785 38.858 30.832 38.9075 30.8328 38.9676C30.8333 39.0296 30.8837 39.0793 30.9461 39.079C31.0073 39.0785 31.057 39.0292 31.0574 38.9676C31.058 38.9057 31.0081 38.8551 30.9461 38.8544C30.9435 38.8542 30.9421 38.8542 30.9383 38.8544H30.9382ZM30.9382 39.4169C30.8793 39.4205 30.8332 39.4688 30.8328 39.5282C30.8322 39.5909 30.8833 39.6418 30.9461 39.6415C31.008 39.641 31.0581 39.5902 31.0574 39.5282C31.0569 39.467 31.0073 39.4176 30.9461 39.4169C30.9435 39.4168 30.9421 39.4168 30.9383 39.4169H30.9382ZM30.9382 39.9794C30.8793 39.983 30.8332 40.0313 30.8328 40.0907C30.8322 40.1534 30.8833 40.2043 30.9461 40.204C31.008 40.2035 31.0581 40.1527 31.0574 40.0907C31.0569 40.0295 31.0073 39.9801 30.9461 39.9794C30.9435 39.9793 30.9421 39.9793 30.9383 39.9794H30.9382ZM30.9382 40.5419C30.8793 40.5455 30.8332 40.5938 30.8328 40.6532C30.8322 40.7159 30.8833 40.7668 30.9461 40.7665C31.008 40.766 31.0581 40.7152 31.0574 40.6532C31.0569 40.592 31.0073 40.5426 30.9461 40.5419C30.9435 40.5418 30.9421 40.5418 30.9383 40.5419H30.9382ZM30.9265 41.1044C30.8721 41.112 30.8324 41.1605 30.8328 41.2157C30.8322 41.2784 30.8833 41.3293 30.9461 41.329C31.008 41.3285 31.0581 41.2777 31.0574 41.2157C31.0569 41.1545 31.0073 41.1051 30.9461 41.1044C30.9385 41.1038 30.936 41.1038 30.9285 41.1044H30.9265ZM30.9265 41.6669C30.8721 41.6745 30.8324 41.723 30.8328 41.7782C30.8333 41.8402 30.8837 41.8899 30.9461 41.8895C31.0073 41.889 31.057 41.8398 31.0574 41.7782C31.0569 41.717 31.0073 41.6676 30.9461 41.6669C30.9385 41.6663 30.936 41.6663 30.9285 41.6669H30.9265ZM30.9461 42.2274C30.8833 42.2268 30.8324 42.2779 30.8328 42.3407C30.8333 42.4027 30.8837 42.4524 30.9461 42.452C31.0073 42.4515 31.0566 42.4023 31.0574 42.3407C31.058 42.2787 31.0084 42.2282 30.9461 42.2274ZM30.9383 42.7899C30.8785 42.7935 30.832 42.8431 30.8328 42.9032C30.8333 42.9652 30.8837 43.0149 30.9461 43.0145C31.0073 43.014 31.057 42.9648 31.0574 42.9032C31.058 42.8412 31.0081 42.7907 30.9461 42.7899C30.9435 42.7898 30.9421 42.7898 30.9383 42.7899H30.9383Z" fill="#333333"/>
</svg>
