<svg width="48" height="48" viewBox="0 0 48 48" fill="none" xmlns="http://www.w3.org/2000/svg">
<path d="M23.814 4.10315C20.502 4.11215 17.252 4.12715 14.146 4.12515C13.277 4.12515 12.58 4.82415 12.58 5.69315V42.5551C12.58 43.4241 13.277 44.1251 14.146 44.1251H33.852C34.721 44.1251 35.42 43.4241 35.42 42.5551V5.69315C35.42 4.82315 34.721 4.12515 33.852 4.12515C30.501 4.09315 27.127 4.09515 23.815 4.10315H23.814ZM14.58 4.62515H33.418C34.249 4.62515 34.92 5.30715 34.92 6.15515V42.0941C34.92 42.9411 34.25 43.6241 33.418 43.6241H14.58C13.749 43.6241 13.08 42.9411 13.08 42.0941V6.15415C13.08 5.30715 13.749 4.62415 14.58 4.62415V4.62515ZM19.992 5.16515C19.9626 5.16619 19.9349 5.17872 19.9147 5.20003C19.8945 5.22134 19.8834 5.24972 19.884 5.27907C19.8845 5.30843 19.8965 5.3364 19.9175 5.35697C19.9384 5.37755 19.9666 5.38907 19.996 5.38907C20.0253 5.38907 20.0535 5.37755 20.0744 5.35697C20.0954 5.3364 20.1074 5.30843 20.1079 5.27907C20.1085 5.24972 20.0974 5.22134 20.0772 5.20003C20.0571 5.17872 20.0293 5.16619 20 5.16515H19.992ZM27.992 5.16515C27.9626 5.16619 27.9349 5.17872 27.9147 5.20003C27.8945 5.22134 27.8834 5.24972 27.884 5.27907C27.8845 5.30843 27.8965 5.3364 27.9175 5.35697C27.9384 5.37755 27.9666 5.38907 27.996 5.38907C28.0253 5.38907 28.0535 5.37755 28.0744 5.35697C28.0954 5.3364 28.1074 5.30843 28.1079 5.27907C28.1085 5.24972 28.0974 5.22134 28.0772 5.20003C28.057 5.17872 28.0293 5.16619 28 5.16515H27.992ZM19.992 5.72815C19.9772 5.72906 19.9627 5.73288 19.9494 5.73939C19.9361 5.74589 19.9243 5.75495 19.9145 5.76605C19.9047 5.77714 19.8971 5.79006 19.8923 5.80406C19.8875 5.81806 19.8855 5.83287 19.8865 5.84765C19.8874 5.86242 19.8912 5.87687 19.8977 5.89016C19.9042 5.90346 19.9133 5.91535 19.9244 5.92514C19.9355 5.93494 19.9484 5.94246 19.9624 5.94726C19.9764 5.95207 19.9912 5.95406 20.006 5.95315C20.0358 5.95129 20.0637 5.93766 20.0835 5.91524C20.1032 5.89283 20.1133 5.86348 20.1115 5.83365C20.1096 5.80381 20.096 5.77593 20.0736 5.75615C20.0511 5.73636 20.0218 5.72629 19.992 5.72815ZM27.992 5.72815C27.9772 5.72906 27.9627 5.73288 27.9494 5.73939C27.9361 5.74589 27.9243 5.75495 27.9145 5.76605C27.9047 5.77714 27.8971 5.79006 27.8923 5.80406C27.8875 5.81806 27.8855 5.83287 27.8865 5.84765C27.8874 5.86242 27.8912 5.87687 27.8977 5.89016C27.9042 5.90346 27.9133 5.91535 27.9244 5.92514C27.9355 5.93494 27.9484 5.94246 27.9624 5.94726C27.9764 5.95207 27.9912 5.95406 28.006 5.95315C28.0358 5.95129 28.0637 5.93766 28.0835 5.91524C28.1032 5.89283 28.1133 5.86348 28.1115 5.83365C28.1096 5.80381 28.096 5.77593 28.0736 5.75615C28.0511 5.73636 28.0218 5.72629 27.992 5.72815ZM19.982 6.29115C19.9608 6.2944 19.941 6.30364 19.9249 6.3178C19.9089 6.33195 19.8972 6.35041 19.8913 6.371C19.8854 6.39158 19.8855 6.41342 19.8917 6.43394C19.8978 6.45445 19.9097 6.47278 19.9259 6.48674C19.9421 6.50071 19.962 6.50973 19.9832 6.51274C20.0044 6.51574 20.0261 6.51261 20.0455 6.50371C20.065 6.4948 20.0815 6.48051 20.0931 6.46251C20.1047 6.44451 20.1109 6.42356 20.111 6.40215C20.111 6.34115 20.061 6.29215 20 6.29115H19.982ZM27.982 6.29115C27.9608 6.2944 27.941 6.30364 27.9249 6.3178C27.9089 6.33195 27.8972 6.35041 27.8913 6.371C27.8854 6.39158 27.8855 6.41342 27.8917 6.43394C27.8978 6.45445 27.9097 6.47278 27.9259 6.48674C27.9421 6.50071 27.962 6.50973 27.9832 6.51274C28.0044 6.51574 28.0261 6.51261 28.0455 6.50371C28.065 6.4948 28.0815 6.48051 28.0931 6.46251C28.1047 6.44451 28.1109 6.42356 28.111 6.40215C28.111 6.34115 28.061 6.29215 28 6.29115H27.982ZM20.002 6.85115C19.9872 6.85101 19.9725 6.85379 19.9588 6.85933C19.9451 6.86486 19.9327 6.87304 19.9221 6.88339C19.9116 6.89374 19.9032 6.90607 19.8974 6.91967C19.8916 6.93327 19.8886 6.94787 19.8885 6.96265C19.8883 6.97742 19.8911 6.99207 19.8966 7.00577C19.9022 7.01947 19.9103 7.03195 19.9207 7.04249C19.9311 7.05303 19.9434 7.06142 19.957 7.0672C19.9706 7.07297 19.9852 7.07601 20 7.07615C20.0298 7.07641 20.0585 7.06481 20.0798 7.0439C20.1011 7.02299 20.1132 6.99448 20.1135 6.96465C20.1137 6.93481 20.1021 6.90609 20.0812 6.8848C20.0603 6.86352 20.0318 6.85141 20.002 6.85115ZM28.002 6.85115C27.9872 6.85101 27.9725 6.85379 27.9588 6.85933C27.9451 6.86486 27.9327 6.87304 27.9221 6.88339C27.9116 6.89374 27.9032 6.90607 27.8974 6.91967C27.8916 6.93327 27.8886 6.94787 27.8885 6.96265C27.8883 6.97742 27.8911 6.99207 27.8966 7.00577C27.9022 7.01947 27.9103 7.03195 27.9207 7.04249C27.9311 7.05303 27.9434 7.06142 27.957 7.0672C27.9706 7.07297 27.9852 7.07601 28 7.07615C28.0298 7.07641 28.0585 7.06481 28.0798 7.0439C28.1011 7.02299 28.1132 6.99448 28.1135 6.96465C28.1137 6.93481 28.1021 6.90609 28.0812 6.8848C28.0603 6.86352 28.0318 6.85141 28.002 6.85115ZM19.992 7.41415C19.9633 7.41594 19.9364 7.42866 19.9169 7.44969C19.8974 7.47072 19.8866 7.49844 19.887 7.52715C19.8872 7.54954 19.8942 7.57135 19.9069 7.58976C19.9197 7.60816 19.9377 7.62231 19.9586 7.63039C19.9795 7.63847 20.0023 7.6401 20.0241 7.63506C20.0459 7.63003 20.0657 7.61857 20.081 7.60217C20.0962 7.58576 20.1062 7.56516 20.1096 7.54302C20.1131 7.52088 20.1098 7.49823 20.1002 7.47799C20.0906 7.45775 20.0752 7.44084 20.0559 7.42946C20.0366 7.41808 20.0143 7.41275 19.992 7.41415ZM27.992 7.41415C27.9633 7.41594 27.9364 7.42866 27.9169 7.44969C27.8974 7.47072 27.8866 7.49844 27.887 7.52715C27.8872 7.54954 27.8942 7.57135 27.9069 7.58976C27.9197 7.60816 27.9377 7.62231 27.9586 7.63039C27.9795 7.63847 28.0023 7.6401 28.0241 7.63506C28.0459 7.63003 28.0657 7.61857 28.081 7.60217C28.0962 7.58576 28.1062 7.56516 28.1096 7.54302C28.1131 7.52088 28.1098 7.49823 28.1002 7.47799C28.0906 7.45775 28.0752 7.44084 28.0559 7.42946C28.0366 7.41808 28.0143 7.41275 27.992 7.41415ZM19.992 7.97415C19.9626 7.97519 19.9349 7.98772 19.9147 8.00903C19.8945 8.03034 19.8834 8.05872 19.884 8.08807C19.8845 8.11743 19.8965 8.1454 19.9175 8.16597C19.9384 8.18655 19.9666 8.19807 19.996 8.19807C20.0253 8.19807 20.0535 8.18655 20.0744 8.16597C20.0954 8.1454 20.1074 8.11743 20.1079 8.08807C20.1085 8.05872 20.0974 8.03034 20.0772 8.00903C20.0571 7.98772 20.0293 7.97519 20 7.97415H19.992ZM27.992 7.97415C27.9626 7.97519 27.9349 7.98772 27.9147 8.00903C27.8945 8.03034 27.8834 8.05872 27.884 8.08807C27.8845 8.11743 27.8965 8.1454 27.9175 8.16597C27.9384 8.18655 27.9666 8.19807 27.996 8.19807C28.0253 8.19807 28.0535 8.18655 28.0744 8.16597C28.0954 8.1454 28.1074 8.11743 28.1079 8.08807C28.1085 8.05872 28.0974 8.03034 28.0772 8.00903C28.057 7.98772 28.0293 7.97519 28 7.97415H27.992ZM19.992 8.53715C19.9626 8.53819 19.9349 8.55072 19.9147 8.57203C19.8945 8.59334 19.8834 8.62172 19.884 8.65107C19.8845 8.68043 19.8965 8.7084 19.9175 8.72897C19.9384 8.74955 19.9666 8.76107 19.996 8.76107C20.0253 8.76107 20.0535 8.74955 20.0744 8.72897C20.0954 8.7084 20.1074 8.68043 20.1079 8.65107C20.1085 8.62172 20.0974 8.59334 20.0772 8.57203C20.0571 8.55072 20.0293 8.53819 20 8.53715H19.992ZM27.992 8.53715C27.9626 8.53819 27.9349 8.55072 27.9147 8.57203C27.8945 8.59334 27.8834 8.62172 27.884 8.65107C27.8845 8.68043 27.8965 8.7084 27.9175 8.72897C27.9384 8.74955 27.9666 8.76107 27.996 8.76107C28.0253 8.76107 28.0535 8.74955 28.0744 8.72897C28.0954 8.7084 28.1074 8.68043 28.1079 8.65107C28.1085 8.62172 28.0974 8.59334 28.0772 8.57203C28.057 8.55072 28.0293 8.53819 28 8.53715H27.992ZM19.992 9.10015C19.9772 9.10107 19.9629 9.10487 19.9496 9.11135C19.9364 9.11783 19.9246 9.12685 19.9148 9.1379C19.9051 9.14895 19.8976 9.16181 19.8928 9.17575C19.888 9.18969 19.886 9.20444 19.887 9.21915C19.8879 9.23385 19.8917 9.24824 19.8982 9.26147C19.9046 9.27471 19.9137 9.28654 19.9247 9.29629C19.9358 9.30604 19.9486 9.31352 19.9626 9.3183C19.9765 9.32308 19.9912 9.32507 20.006 9.32415C20.0357 9.32229 20.0634 9.30871 20.0831 9.28639C20.1028 9.26407 20.1128 9.23485 20.111 9.20515C20.1091 9.17544 20.0955 9.14769 20.0732 9.128C20.0509 9.10831 20.0217 9.09829 19.992 9.10015ZM27.992 9.10015C27.9772 9.10107 27.9629 9.10487 27.9496 9.11135C27.9364 9.11783 27.9246 9.12685 27.9148 9.1379C27.9051 9.14895 27.8976 9.16181 27.8928 9.17575C27.888 9.18969 27.886 9.20444 27.887 9.21915C27.8879 9.23385 27.8917 9.24824 27.8982 9.26147C27.9046 9.27471 27.9137 9.28654 27.9247 9.29629C27.9358 9.30604 27.9486 9.31352 27.9626 9.3183C27.9765 9.32308 27.9912 9.32507 28.006 9.32415C28.0357 9.32229 28.0634 9.30871 28.0831 9.28639C28.1028 9.26407 28.1128 9.23485 28.111 9.20515C28.1091 9.17544 28.0955 9.14769 28.0732 9.128C28.0509 9.10831 28.0217 9.09829 27.992 9.10015ZM19.992 9.66215C19.9626 9.66319 19.9349 9.67572 19.9147 9.69703C19.8945 9.71834 19.8834 9.74672 19.884 9.77607C19.8845 9.80543 19.8965 9.8334 19.9175 9.85397C19.9384 9.87455 19.9666 9.88607 19.996 9.88607C20.0253 9.88607 20.0535 9.87455 20.0744 9.85397C20.0954 9.8334 20.1074 9.80543 20.1079 9.77607C20.1085 9.74672 20.0974 9.71834 20.0772 9.69703C20.0571 9.67572 20.0293 9.66319 20 9.66215H19.992ZM27.992 9.66215C27.9626 9.66319 27.9349 9.67572 27.9147 9.69703C27.8945 9.71834 27.8834 9.74672 27.884 9.77607C27.8845 9.80543 27.8965 9.8334 27.9175 9.85397C27.9384 9.87455 27.9666 9.88607 27.996 9.88607C28.0253 9.88607 28.0535 9.87455 28.0744 9.85397C28.0954 9.8334 28.1074 9.80543 28.1079 9.77607C28.1085 9.74672 28.0974 9.71834 28.0772 9.69703C28.057 9.67572 28.0293 9.66319 28 9.66215H27.992ZM19.98 10.2251C19.9536 10.2299 19.9297 10.2439 19.9127 10.2646C19.8957 10.2853 19.8865 10.3113 19.887 10.3381C19.8848 10.3541 19.8861 10.3703 19.8908 10.3858C19.8954 10.4012 19.9033 10.4154 19.9139 10.4276C19.9245 10.4397 19.9376 10.4494 19.9523 10.456C19.9669 10.4627 19.9829 10.4661 19.999 10.4661C20.0151 10.4661 20.031 10.4627 20.0457 10.456C20.0603 10.4494 20.0734 10.4397 20.084 10.4276C20.0946 10.4154 20.1025 10.4012 20.1071 10.3858C20.1118 10.3703 20.1131 10.3541 20.111 10.3381C20.1107 10.3086 20.099 10.2803 20.0783 10.2592C20.0576 10.2381 20.0295 10.2259 20 10.2251H19.98ZM27.98 10.2251C27.9536 10.2299 27.9297 10.2439 27.9127 10.2646C27.8957 10.2853 27.8865 10.3113 27.887 10.3381C27.8848 10.3541 27.8861 10.3703 27.8908 10.3858C27.8954 10.4012 27.9033 10.4154 27.9139 10.4276C27.9245 10.4397 27.9376 10.4494 27.9523 10.456C27.9669 10.4627 27.9829 10.4661 27.999 10.4661C28.0151 10.4661 28.031 10.4627 28.0457 10.456C28.0603 10.4494 28.0734 10.4397 28.084 10.4276C28.0946 10.4154 28.1025 10.4012 28.1071 10.3858C28.1118 10.3703 28.1131 10.3541 28.111 10.3381C28.1107 10.3086 28.099 10.2803 28.0783 10.2592C28.0576 10.2381 28.0295 10.2259 28 10.2251H27.98ZM20.002 10.7851C19.987 10.7853 19.9722 10.7884 19.9584 10.7942C19.9446 10.8001 19.9321 10.8086 19.9216 10.8192C19.9111 10.8299 19.9029 10.8426 19.8972 10.8564C19.8916 10.8703 19.8888 10.8852 19.889 10.9001C19.889 10.9621 19.939 11.0101 20.002 11.0101C20.0165 11.0103 20.0309 11.0075 20.0444 11.0021C20.0578 10.9966 20.0701 10.9885 20.0804 10.9783C20.0907 10.9681 20.0989 10.9559 20.1045 10.9425C20.1101 10.9291 20.113 10.9147 20.113 10.9001C20.1132 10.8703 20.1017 10.8414 20.081 10.8199C20.0602 10.7984 20.0318 10.7859 20.002 10.7851ZM28.002 10.7851C27.987 10.7853 27.9722 10.7884 27.9584 10.7942C27.9446 10.8001 27.9321 10.8086 27.9216 10.8192C27.9111 10.8299 27.9029 10.8426 27.8972 10.8564C27.8916 10.8703 27.8888 10.8852 27.889 10.9001C27.889 10.9621 27.939 11.0101 28.002 11.0101C28.0165 11.0103 28.0309 11.0075 28.0444 11.0021C28.0578 10.9966 28.0701 10.9885 28.0804 10.9783C28.0907 10.9681 28.0989 10.9559 28.1045 10.9425C28.1101 10.9291 28.113 10.9147 28.113 10.9001C28.1132 10.8703 28.1017 10.8414 28.081 10.8199C28.0602 10.7984 28.0318 10.7859 28.002 10.7851ZM20.002 11.3481C19.9872 11.348 19.9727 11.3508 19.959 11.3563C19.9454 11.3618 19.933 11.3699 19.9225 11.3802C19.912 11.3906 19.9036 11.4028 19.8979 11.4164C19.8921 11.4299 19.8891 11.4444 19.889 11.4591C19.8888 11.4739 19.8916 11.4884 19.8971 11.5021C19.9026 11.5157 19.9107 11.5281 19.9211 11.5386C19.9314 11.5491 19.9436 11.5575 19.9572 11.5632C19.9707 11.569 19.9852 11.572 20 11.5721C20.0297 11.5724 20.0583 11.5609 20.0794 11.54C20.1006 11.5192 20.1127 11.4908 20.113 11.4611C20.1132 11.4314 20.1017 11.4028 20.0809 11.3817C20.06 11.3605 20.0317 11.3484 20.002 11.3481ZM28.002 11.3481C27.9872 11.348 27.9727 11.3508 27.959 11.3563C27.9454 11.3618 27.933 11.3699 27.9225 11.3802C27.912 11.3906 27.9036 11.4028 27.8979 11.4164C27.8921 11.4299 27.8891 11.4444 27.889 11.4591C27.8888 11.4739 27.8916 11.4884 27.8971 11.5021C27.9026 11.5157 27.9107 11.5281 27.9211 11.5386C27.9314 11.5491 27.9436 11.5575 27.9572 11.5632C27.9707 11.569 27.9852 11.572 28 11.5721C28.0297 11.5724 28.0583 11.5609 28.0794 11.54C28.1006 11.5192 28.1127 11.4908 28.113 11.4611C28.1132 11.4314 28.1017 11.4028 28.0809 11.3817C28.06 11.3605 28.0317 11.3484 28.002 11.3481ZM17.532 11.5621V11.5641C17.4071 11.5661 17.2839 11.5927 17.1695 11.6425C17.055 11.6923 16.9515 11.7642 16.865 11.8541L15.057 13.7111C14.8859 13.892 14.793 14.1329 14.7982 14.3818C14.8034 14.6306 14.9064 14.8674 15.0849 15.0409C15.2634 15.2144 15.503 15.3107 15.7519 15.3088C16.0009 15.307 16.239 15.2072 16.415 15.0311L18.223 13.1711C18.3101 13.0821 18.3787 12.9768 18.425 12.8612C18.4713 12.7456 18.4942 12.6219 18.4926 12.4974C18.4909 12.3729 18.4646 12.2499 18.4153 12.1356C18.3659 12.0212 18.2944 11.9178 18.205 11.8311C18.1159 11.7441 18.0105 11.6755 17.8948 11.6294C17.7791 11.5832 17.6555 11.5604 17.531 11.5621H17.532ZM25.09 11.5621V11.5641C24.9653 11.5662 24.8423 11.5929 24.728 11.6427C24.6137 11.6924 24.5104 11.7643 24.424 11.8541L22.615 13.7111C22.4488 13.8928 22.36 14.1319 22.3671 14.3779C22.3743 14.6239 22.477 14.8575 22.6534 15.0291C22.8299 15.2007 23.0662 15.2969 23.3123 15.2973C23.5584 15.2977 23.795 15.2022 23.972 15.0311L25.782 13.1711C25.8691 13.0821 25.9377 12.9768 25.984 12.8612C26.0303 12.7456 26.0532 12.6219 26.0516 12.4974C26.0499 12.3729 26.0236 12.2499 25.9743 12.1356C25.9249 12.0212 25.8534 11.9178 25.764 11.8311C25.6748 11.7442 25.5694 11.6756 25.4538 11.6294C25.3381 11.5833 25.2145 11.5604 25.09 11.5621ZM32.25 11.5621V11.5641C32.1253 11.5662 32.0023 11.5929 31.888 11.6427C31.7737 11.6924 31.6704 11.7643 31.584 11.8541L29.775 13.7111C29.6838 13.7993 29.6112 13.9048 29.5616 14.0215C29.512 14.1382 29.4864 14.2637 29.4862 14.3905C29.486 14.5174 29.5112 14.6429 29.5605 14.7598C29.6097 14.8766 29.682 14.9824 29.7729 15.0708C29.8638 15.1592 29.9715 15.2285 30.0897 15.2745C30.2078 15.3205 30.334 15.3423 30.4608 15.3386C30.5876 15.3349 30.7123 15.3058 30.8276 15.253C30.9429 15.2001 31.0464 15.1247 31.132 15.0311L32.942 13.1711C33.0291 13.0821 33.0977 12.9768 33.144 12.8612C33.1903 12.7456 33.2132 12.6219 33.2116 12.4974C33.2099 12.3729 33.1836 12.2499 33.1343 12.1356C33.0849 12.0212 33.0134 11.9178 32.924 11.8311C32.8349 11.7441 32.7295 11.6755 32.6138 11.6294C32.4981 11.5832 32.3745 11.5604 32.25 11.5621ZM19.992 11.9101C19.9636 11.9136 19.9377 11.9276 19.9191 11.9493C19.9006 11.971 19.8909 11.9988 19.8919 12.0273C19.8929 12.0558 19.9046 12.0829 19.9246 12.1032C19.9446 12.1236 19.9715 12.1357 20 12.1371C20.061 12.1371 20.11 12.0851 20.111 12.0231C20.1111 12.0077 20.1081 11.9925 20.1021 11.9783C20.0961 11.9641 20.0873 11.9513 20.0761 11.9407C20.0649 11.9301 20.0517 11.9219 20.0372 11.9167C20.0227 11.9114 20.0073 11.9092 19.992 11.9101ZM27.992 11.9101C27.9636 11.9136 27.9377 11.9276 27.9191 11.9493C27.9006 11.971 27.8909 11.9988 27.8919 12.0273C27.8929 12.0558 27.9046 12.0829 27.9246 12.1032C27.9446 12.1236 27.9715 12.1357 28 12.1371C28.061 12.1371 28.11 12.0851 28.111 12.0231C28.1111 12.0077 28.1081 11.9925 28.1021 11.9783C28.0961 11.9641 28.0873 11.9513 28.0761 11.9407C28.0649 11.9301 28.0517 11.9219 28.0372 11.9167C28.0227 11.9114 28.0073 11.9092 27.992 11.9101ZM17.596 12.0471H17.598C17.6887 12.0554 17.7744 12.0929 17.842 12.1541C18.248 12.5161 17.765 12.9401 17.59 13.1231L16.725 14.0271C16.117 14.6591 15.853 15.0851 15.43 14.6771C15.07 14.3041 15.39 14.0821 16.078 13.3831L16.943 12.4801C17.148 12.2801 17.36 12.0371 17.596 12.0471ZM25.154 12.0471H25.156C25.2467 12.0554 25.3324 12.0929 25.4 12.1541C25.807 12.5161 25.324 12.9401 25.148 13.1231L24.283 14.0271C23.676 14.6591 23.412 15.0851 22.988 14.6771C22.628 14.3041 22.948 14.0821 23.637 13.3831L24.502 12.4801C24.707 12.2801 24.919 12.0371 25.154 12.0471ZM32.314 12.0471H32.316C32.4067 12.0554 32.4924 12.0929 32.56 12.1541C32.967 12.5161 32.484 12.9401 32.309 13.1231L31.443 14.0271C30.836 14.6591 30.573 15.0851 30.148 14.6771C29.788 14.3041 30.108 14.0821 30.797 13.3831L31.662 12.4801C31.867 12.2801 32.079 12.0371 32.315 12.0471H32.314ZM19.992 12.4721C19.9617 12.4732 19.9331 12.4862 19.9125 12.5084C19.8919 12.5305 19.8809 12.5599 19.882 12.5901C19.883 12.6204 19.896 12.649 19.9182 12.6696C19.9403 12.6902 19.9697 12.7012 20 12.7001C20.061 12.7001 20.11 12.6481 20.111 12.5871C20.1112 12.5724 20.1086 12.5577 20.1031 12.5439C20.0977 12.5301 20.0895 12.5176 20.0792 12.507C20.0689 12.4964 20.0566 12.488 20.043 12.4821C20.0294 12.4763 20.0147 12.4733 20 12.4731H19.992V12.4721ZM27.992 12.4721C27.9617 12.4732 27.9331 12.4862 27.9125 12.5084C27.8919 12.5305 27.8809 12.5599 27.882 12.5901C27.883 12.6204 27.896 12.649 27.9182 12.6696C27.9403 12.6902 27.9697 12.7012 28 12.7001C28.061 12.7001 28.11 12.6481 28.111 12.5871C28.1112 12.5724 28.1086 12.5577 28.1031 12.5439C28.0977 12.5301 28.0895 12.5176 28.0792 12.507C28.0689 12.4964 28.0566 12.488 28.043 12.4821C28.0294 12.4763 28.0147 12.4733 28 12.4731H27.992V12.4721ZM19.992 13.0351C19.9626 13.0362 19.9349 13.0487 19.9147 13.07C19.8945 13.0913 19.8834 13.1197 19.884 13.1491C19.8845 13.1784 19.8965 13.2064 19.9175 13.227C19.9384 13.2475 19.9666 13.2591 19.996 13.2591C20.0253 13.2591 20.0535 13.2475 20.0744 13.227C20.0954 13.2064 20.1074 13.1784 20.1079 13.1491C20.1085 13.1197 20.0974 13.0913 20.0772 13.07C20.0571 13.0487 20.0293 13.0362 20 13.0351H19.992ZM27.992 13.0351C27.9626 13.0362 27.9349 13.0487 27.9147 13.07C27.8945 13.0913 27.8834 13.1197 27.884 13.1491C27.8845 13.1784 27.8965 13.2064 27.9175 13.227C27.9384 13.2475 27.9666 13.2591 27.996 13.2591C28.0253 13.2591 28.0535 13.2475 28.0744 13.227C28.0954 13.2064 28.1074 13.1784 28.1079 13.1491C28.1085 13.1197 28.0974 13.0913 28.0772 13.07C28.057 13.0487 28.0293 13.0362 28 13.0351H27.992ZM19.992 13.5981C19.9626 13.5992 19.9349 13.6117 19.9147 13.633C19.8945 13.6543 19.8834 13.6827 19.884 13.7121C19.8845 13.7414 19.8965 13.7694 19.9175 13.79C19.9384 13.8105 19.9666 13.8221 19.996 13.8221C20.0253 13.8221 20.0535 13.8105 20.0744 13.79C20.0954 13.7694 20.1074 13.7414 20.1079 13.7121C20.1085 13.6827 20.0974 13.6543 20.0772 13.633C20.0571 13.6117 20.0293 13.5992 20 13.5981H19.992ZM27.992 13.5981C27.9626 13.5992 27.9349 13.6117 27.9147 13.633C27.8945 13.6543 27.8834 13.6827 27.884 13.7121C27.8845 13.7414 27.8965 13.7694 27.9175 13.79C27.9384 13.8105 27.9666 13.8221 27.996 13.8221C28.0253 13.8221 28.0535 13.8105 28.0744 13.79C28.0954 13.7694 28.1074 13.7414 28.1079 13.7121C28.1085 13.6827 28.0974 13.6543 28.0772 13.633C28.057 13.6117 28.0293 13.5992 28 13.5981H27.992ZM19.992 14.1601C19.9772 14.1611 19.9629 14.1649 19.9496 14.1713C19.9364 14.1778 19.9246 14.1868 19.9148 14.1979C19.9051 14.2089 19.8976 14.2218 19.8928 14.2358C19.888 14.2497 19.886 14.2644 19.887 14.2791C19.8879 14.2939 19.8917 14.3082 19.8982 14.3215C19.9046 14.3347 19.9137 14.3465 19.9247 14.3563C19.9358 14.366 19.9486 14.3735 19.9626 14.3783C19.9765 14.3831 19.9912 14.3851 20.006 14.3841C20.0357 14.3823 20.0634 14.3687 20.0831 14.3464C20.1028 14.3241 20.1128 14.2948 20.111 14.2651C20.1091 14.2354 20.0955 14.2077 20.0732 14.188C20.0509 14.1683 20.0217 14.1583 19.992 14.1601ZM27.992 14.1601C27.9772 14.1611 27.9629 14.1649 27.9496 14.1713C27.9364 14.1778 27.9246 14.1868 27.9148 14.1979C27.9051 14.2089 27.8976 14.2218 27.8928 14.2358C27.888 14.2497 27.886 14.2644 27.887 14.2791C27.8879 14.2939 27.8917 14.3082 27.8982 14.3215C27.9046 14.3347 27.9137 14.3465 27.9247 14.3563C27.9358 14.366 27.9486 14.3735 27.9626 14.3783C27.9765 14.3831 27.9912 14.3851 28.006 14.3841C28.0357 14.3823 28.0634 14.3687 28.0831 14.3464C28.1028 14.3241 28.1128 14.2948 28.111 14.2651C28.1091 14.2354 28.0955 14.2077 28.0732 14.188C28.0509 14.1683 28.0217 14.1583 27.992 14.1601ZM19.98 14.7231C19.9539 14.7274 19.9302 14.7409 19.9132 14.761C19.8961 14.7812 19.8868 14.8067 19.887 14.8331C19.8866 14.8563 19.8933 14.8789 19.9062 14.8981C19.9191 14.9173 19.9376 14.932 19.9591 14.9404C19.9807 14.9487 20.0043 14.9503 20.0267 14.9448C20.0492 14.9393 20.0694 14.9271 20.0847 14.9097C20.1 14.8924 20.1096 14.8708 20.1122 14.8478C20.1148 14.8249 20.1104 14.8017 20.0994 14.7813C20.0884 14.761 20.0714 14.7445 20.0508 14.7341C20.0302 14.7237 20.0068 14.7199 19.984 14.7231H19.98ZM27.98 14.7231C27.9539 14.7274 27.9302 14.7409 27.9132 14.761C27.8961 14.7812 27.8868 14.8067 27.887 14.8331C27.8866 14.8563 27.8933 14.8789 27.9062 14.8981C27.9191 14.9173 27.9376 14.932 27.9591 14.9404C27.9807 14.9487 28.0043 14.9503 28.0267 14.9448C28.0492 14.9393 28.0694 14.9271 28.0847 14.9097C28.1 14.8924 28.1096 14.8708 28.1122 14.8478C28.1148 14.8249 28.1104 14.8017 28.0994 14.7813C28.0884 14.761 28.0714 14.7445 28.0508 14.7341C28.0302 14.7237 28.0068 14.7199 27.984 14.7231H27.98ZM19.98 15.2851C19.9589 15.2886 19.9392 15.298 19.9233 15.3122C19.9074 15.3265 19.8958 15.345 19.8901 15.3655C19.8843 15.3861 19.8846 15.4079 19.8908 15.4283C19.897 15.4488 19.909 15.467 19.9252 15.4809C19.9415 15.4947 19.9614 15.5037 19.9825 15.5066C20.0037 15.5096 20.0252 15.5064 20.0446 15.4975C20.0641 15.4886 20.0805 15.4743 20.0921 15.4564C20.1037 15.4384 20.1099 15.4175 20.11 15.3961C20.11 15.3361 20.061 15.2861 20 15.2851H19.98ZM27.98 15.2851C27.9589 15.2886 27.9392 15.298 27.9233 15.3122C27.9074 15.3265 27.8958 15.345 27.8901 15.3655C27.8843 15.3861 27.8846 15.4079 27.8908 15.4283C27.897 15.4488 27.909 15.467 27.9252 15.4809C27.9415 15.4947 27.9614 15.5037 27.9825 15.5066C28.0037 15.5096 28.0252 15.5064 28.0446 15.4975C28.0641 15.4886 28.0805 15.4743 28.0921 15.4564C28.1037 15.4384 28.1099 15.4175 28.11 15.3961C28.11 15.3361 28.061 15.2861 28 15.2851H27.98ZM20.002 15.8451C19.9721 15.8449 19.9434 15.8565 19.9221 15.8774C19.9008 15.8983 19.8887 15.9268 19.8885 15.9566C19.8882 15.9865 19.8998 16.0152 19.9207 16.0365C19.9416 16.0578 19.9701 16.0699 20 16.0701C20.0147 16.0703 20.0293 16.0675 20.0429 16.062C20.0565 16.0565 20.069 16.0484 20.0794 16.038C20.0899 16.0277 20.0983 16.0155 20.104 16.0019C20.1098 15.9884 20.1128 15.9739 20.113 15.9591C20.1131 15.9444 20.1103 15.9298 20.1048 15.9162C20.0993 15.9026 20.0912 15.8901 20.0809 15.8797C20.0706 15.8692 20.0583 15.8608 20.0447 15.8551C20.0312 15.8493 20.0167 15.8463 20.002 15.8461V15.8451ZM28.002 15.8451C27.9872 15.845 27.9725 15.8478 27.9588 15.8533C27.9451 15.8589 27.9327 15.867 27.9221 15.8774C27.9116 15.8877 27.9032 15.9001 27.8974 15.9137C27.8916 15.9273 27.8886 15.9419 27.8885 15.9566C27.8883 15.9714 27.8911 15.9861 27.8966 15.9998C27.9022 16.0135 27.9103 16.0259 27.9207 16.0365C27.9311 16.047 27.9434 16.0554 27.957 16.0612C27.9706 16.067 27.9852 16.07 28 16.0701C28.0147 16.0703 28.0293 16.0675 28.0429 16.062C28.0565 16.0565 28.069 16.0484 28.0794 16.038C28.0899 16.0277 28.0983 16.0155 28.104 16.0019C28.1098 15.9884 28.1128 15.9739 28.113 15.9591C28.1131 15.9444 28.1103 15.9298 28.1048 15.9162C28.0993 15.9026 28.0912 15.8901 28.0809 15.8797C28.0706 15.8692 28.0583 15.8608 28.0447 15.8551C28.0312 15.8493 28.0167 15.8463 28.002 15.8461V15.8451ZM19.992 16.4081C19.9633 16.4099 19.9364 16.4227 19.9169 16.4437C19.8974 16.4647 19.8866 16.4924 19.887 16.5211C19.887 16.5831 19.937 16.6341 20 16.6331C20.0147 16.6326 20.0293 16.6292 20.0427 16.6231C20.0562 16.6169 20.0683 16.6082 20.0783 16.5974C20.0884 16.5865 20.0963 16.5739 20.1014 16.56C20.1066 16.5462 20.109 16.5314 20.1085 16.5166C20.1079 16.5019 20.1045 16.4873 20.0984 16.4739C20.0922 16.4605 20.0835 16.4483 20.0727 16.4383C20.0619 16.4282 20.0492 16.4203 20.0353 16.4152C20.0215 16.41 20.0067 16.4076 19.992 16.4081ZM27.992 16.4081C27.9633 16.4099 27.9364 16.4227 27.9169 16.4437C27.8974 16.4647 27.8866 16.4924 27.887 16.5211C27.887 16.5831 27.937 16.6341 28 16.6331C28.0147 16.6326 28.0293 16.6292 28.0427 16.6231C28.0562 16.6169 28.0683 16.6082 28.0783 16.5974C28.0884 16.5865 28.0963 16.5739 28.1014 16.56C28.1066 16.5462 28.109 16.5314 28.1085 16.5166C28.1079 16.5019 28.1045 16.4873 28.0984 16.4739C28.0922 16.4605 28.0835 16.4483 28.0727 16.4383C28.0619 16.4282 28.0492 16.4203 28.0353 16.4152C28.0215 16.41 28.0067 16.4076 27.992 16.4081ZM17.532 16.8221V16.8241C17.4071 16.8261 17.2839 16.8527 17.1695 16.9025C17.055 16.9523 16.9515 17.0242 16.865 17.1141L15.057 18.9711C14.9683 19.0599 14.8981 19.1654 14.8506 19.2815C14.803 19.3976 14.779 19.5219 14.7799 19.6474C14.7809 19.7728 14.8067 19.8969 14.856 20.0122C14.9052 20.1276 14.9769 20.2321 15.0669 20.3195C15.1568 20.4069 15.2633 20.4756 15.38 20.5216C15.4967 20.5676 15.6214 20.5899 15.7468 20.5872C15.8723 20.5846 15.9959 20.5571 16.1106 20.5062C16.2253 20.4554 16.3288 20.3823 16.415 20.2911L18.223 18.4311C18.355 18.2975 18.4443 18.1274 18.4792 17.9428C18.5142 17.7581 18.4933 17.5672 18.4192 17.3945C18.3452 17.2218 18.2213 17.0751 18.0634 16.9731C17.9055 16.8712 17.7209 16.8186 17.533 16.8221H17.531H17.532ZM25.09 16.8221V16.8241C24.9653 16.8262 24.8423 16.8529 24.728 16.9027C24.6137 16.9524 24.5104 17.0243 24.424 17.1141L22.615 18.9711C22.5238 19.0593 22.4512 19.1648 22.4016 19.2815C22.352 19.3982 22.3264 19.5237 22.3262 19.6505C22.326 19.7774 22.3512 19.9029 22.4005 20.0198C22.4497 20.1366 22.522 20.2424 22.6129 20.3308C22.7038 20.4192 22.8115 20.4885 22.9297 20.5345C23.0478 20.5805 23.174 20.6023 23.3008 20.5986C23.4276 20.5949 23.5523 20.5658 23.6676 20.513C23.7829 20.4601 23.8864 20.3847 23.972 20.2911L25.782 18.4311C25.914 18.2975 26.0033 18.1274 26.0382 17.9428C26.0732 17.7581 26.0523 17.5672 25.9782 17.3945C25.9042 17.2218 25.7803 17.0751 25.6224 16.9731C25.4645 16.8712 25.2799 16.8186 25.092 16.8221H25.09ZM32.25 16.8221V16.8241C32.1253 16.8262 32.0023 16.8528 31.888 16.9026C31.7737 16.9524 31.6704 17.0243 31.584 17.1141L29.775 18.9711C29.6838 19.0593 29.6112 19.1648 29.5616 19.2815C29.512 19.3982 29.4864 19.5237 29.4862 19.6505C29.486 19.7774 29.5112 19.9029 29.5605 20.0198C29.6097 20.1366 29.682 20.2424 29.7729 20.3308C29.8638 20.4192 29.9715 20.4885 30.0897 20.5345C30.2078 20.5805 30.334 20.6023 30.4608 20.5986C30.5876 20.5949 30.7123 20.5658 30.8276 20.513C30.9429 20.4601 31.0464 20.3847 31.132 20.2911L32.942 18.4311C33.074 18.2975 33.1633 18.1274 33.1982 17.9428C33.2332 17.7581 33.2123 17.5672 33.1382 17.3945C33.0642 17.2218 32.9403 17.0751 32.7824 16.9731C32.6245 16.8712 32.4399 16.8186 32.252 16.8221H32.25ZM19.992 16.9711C19.9633 16.9729 19.9364 16.9857 19.9169 17.0067C19.8974 17.0277 19.8866 17.0554 19.887 17.0841C19.887 17.1461 19.937 17.1961 20 17.1951C20.0147 17.1946 20.0293 17.1912 20.0427 17.1851C20.0562 17.1789 20.0683 17.1702 20.0783 17.1594C20.0884 17.1485 20.0963 17.1359 20.1014 17.122C20.1066 17.1082 20.109 17.0934 20.1085 17.0786C20.1079 17.0639 20.1045 17.0493 20.0984 17.0359C20.0922 17.0225 20.0835 17.0103 20.0727 17.0003C20.0619 16.9902 20.0492 16.9823 20.0353 16.9772C20.0215 16.972 20.0067 16.9696 19.992 16.9701V16.9711ZM27.992 16.9711C27.9633 16.9729 27.9364 16.9857 27.9169 17.0067C27.8974 17.0277 27.8866 17.0554 27.887 17.0841C27.887 17.1461 27.937 17.1961 28 17.1951C28.0147 17.1946 28.0293 17.1912 28.0427 17.1851C28.0562 17.1789 28.0683 17.1702 28.0783 17.1594C28.0884 17.1485 28.0963 17.1359 28.1014 17.122C28.1066 17.1082 28.109 17.0934 28.1085 17.0786C28.1079 17.0639 28.1045 17.0493 28.0984 17.0359C28.0922 17.0225 28.0835 17.0103 28.0727 17.0003C28.0619 16.9902 28.0492 16.9823 28.0353 16.9772C28.0215 16.972 28.0067 16.9696 27.992 16.9701V16.9711ZM17.596 17.3051V17.3071C17.687 17.3152 17.7731 17.352 17.842 17.4121C18.248 17.7741 17.765 18.1971 17.59 18.3811L16.725 19.2851C16.117 19.9161 15.853 20.3431 15.43 19.9351C15.07 19.5621 15.388 19.3401 16.076 18.6411L16.941 17.7361C17.147 17.5361 17.359 17.2931 17.596 17.3051ZM25.154 17.3051V17.3071C25.245 17.3152 25.3311 17.352 25.4 17.4121C25.807 17.7741 25.324 18.1971 25.148 18.3811L24.283 19.2851C23.676 19.9161 23.412 20.3431 22.988 19.9351C22.628 19.5621 22.947 19.3391 23.635 18.6411L24.5 17.7361C24.705 17.5361 24.918 17.2931 25.154 17.3051ZM32.314 17.3051V17.3071C32.405 17.3152 32.4912 17.3519 32.56 17.4121C32.967 17.7741 32.484 18.1971 32.309 18.3811L31.443 19.2851C30.836 19.9161 30.573 20.3431 30.148 19.9351C29.788 19.5621 30.107 19.3391 30.795 18.6411L31.66 17.7361C31.866 17.5361 32.078 17.2931 32.315 17.3051H32.314ZM19.992 17.5331C19.9772 17.5341 19.9629 17.5379 19.9496 17.5443C19.9364 17.5508 19.9246 17.5598 19.9148 17.5709C19.9051 17.5819 19.8976 17.5948 19.8928 17.6088C19.888 17.6227 19.886 17.6374 19.887 17.6521C19.8879 17.6669 19.8917 17.6812 19.8982 17.6945C19.9046 17.7077 19.9137 17.7195 19.9247 17.7293C19.9358 17.739 19.9486 17.7465 19.9626 17.7513C19.9765 17.7561 19.9912 17.7581 20.006 17.7571C20.0357 17.7553 20.0634 17.7417 20.0831 17.7194C20.1028 17.6971 20.1128 17.6678 20.111 17.6381C20.1091 17.6084 20.0955 17.5807 20.0732 17.561C20.0509 17.5413 20.0217 17.5313 19.992 17.5331ZM27.992 17.5331C27.9772 17.5341 27.9629 17.5379 27.9496 17.5443C27.9364 17.5508 27.9246 17.5598 27.9148 17.5709C27.9051 17.5819 27.8976 17.5948 27.8928 17.6088C27.888 17.6227 27.886 17.6374 27.887 17.6521C27.8879 17.6669 27.8917 17.6812 27.8982 17.6945C27.9046 17.7077 27.9137 17.7195 27.9247 17.7293C27.9358 17.739 27.9486 17.7465 27.9626 17.7513C27.9765 17.7561 27.9912 17.7581 28.006 17.7571C28.0357 17.7553 28.0634 17.7417 28.0831 17.7194C28.1028 17.6971 28.1128 17.6678 28.111 17.6381C28.1091 17.6084 28.0955 17.5807 28.0732 17.561C28.0509 17.5413 28.0217 17.5313 27.992 17.5331ZM19.992 18.0961C19.9772 18.0971 19.9629 18.1009 19.9496 18.1073C19.9364 18.1138 19.9246 18.1228 19.9148 18.1339C19.9051 18.1449 19.8976 18.1578 19.8928 18.1718C19.888 18.1857 19.886 18.2004 19.887 18.2151C19.8879 18.2299 19.8917 18.2442 19.8982 18.2575C19.9046 18.2707 19.9137 18.2825 19.9247 18.2923C19.9358 18.302 19.9486 18.3095 19.9626 18.3143C19.9765 18.3191 19.9912 18.3211 20.006 18.3201C20.0357 18.3183 20.0634 18.3047 20.0831 18.2824C20.1028 18.2601 20.1128 18.2308 20.111 18.2011C20.1091 18.1714 20.0955 18.1437 20.0732 18.124C20.0509 18.1043 20.0217 18.0943 19.992 18.0961ZM27.992 18.0961C27.9772 18.0971 27.9629 18.1009 27.9496 18.1073C27.9364 18.1138 27.9246 18.1228 27.9148 18.1339C27.9051 18.1449 27.8976 18.1578 27.8928 18.1718C27.888 18.1857 27.886 18.2004 27.887 18.2151C27.8879 18.2299 27.8917 18.2442 27.8982 18.2575C27.9046 18.2707 27.9137 18.2825 27.9247 18.2923C27.9358 18.302 27.9486 18.3095 27.9626 18.3143C27.9765 18.3191 27.9912 18.3211 28.006 18.3201C28.0357 18.3183 28.0634 18.3047 28.0831 18.2824C28.1028 18.2601 28.1128 18.2308 28.111 18.2011C28.1091 18.1714 28.0955 18.1437 28.0732 18.124C28.0509 18.1043 28.0217 18.0943 27.992 18.0961ZM19.992 18.6581C19.9639 18.6616 19.9382 18.6755 19.9198 18.697C19.9015 18.7185 19.8919 18.7461 19.8929 18.7743C19.8939 18.8026 19.9054 18.8294 19.9252 18.8496C19.9451 18.8697 19.9717 18.8817 20 18.8831C20.0147 18.8826 20.0293 18.8792 20.0427 18.8731C20.0562 18.8669 20.0683 18.8582 20.0783 18.8474C20.0884 18.8365 20.0963 18.8239 20.1014 18.81C20.1066 18.7962 20.109 18.7814 20.1085 18.7666C20.1079 18.7519 20.1045 18.7373 20.0984 18.7239C20.0922 18.7105 20.0835 18.6983 20.0727 18.6883C20.0619 18.6782 20.0492 18.6703 20.0353 18.6652C20.0215 18.66 20.0067 18.6576 19.992 18.6581ZM27.992 18.6581C27.9639 18.6616 27.9382 18.6755 27.9198 18.697C27.9015 18.7185 27.8919 18.7461 27.8929 18.7743C27.8939 18.8026 27.9054 18.8294 27.9252 18.8496C27.9451 18.8697 27.9717 18.8817 28 18.8831C28.0147 18.8826 28.0293 18.8792 28.0427 18.8731C28.0562 18.8669 28.0683 18.8582 28.0783 18.8474C28.0884 18.8365 28.0963 18.8239 28.1014 18.81C28.1066 18.7962 28.109 18.7814 28.1085 18.7666C28.1079 18.7519 28.1045 18.7373 28.0984 18.7239C28.0922 18.7105 28.0835 18.6983 28.0727 18.6883C28.0619 18.6782 28.0492 18.6703 28.0353 18.6652C28.0215 18.66 28.0067 18.6576 27.992 18.6581ZM19.98 19.2211C19.9539 19.2254 19.9302 19.2389 19.9132 19.259C19.8961 19.2792 19.8868 19.3047 19.887 19.3311C19.8866 19.3533 19.8928 19.3751 19.9048 19.3938C19.9168 19.4125 19.9341 19.4271 19.9545 19.4359C19.9748 19.4447 19.9974 19.4473 20.0192 19.4433C20.041 19.4393 20.0612 19.4289 20.0771 19.4134C20.093 19.3979 20.1039 19.3781 20.1085 19.3563C20.1131 19.3346 20.1112 19.312 20.1029 19.2914C20.0946 19.2709 20.0804 19.2532 20.0621 19.2407C20.0438 19.2281 20.0221 19.2213 20 19.2211H19.98ZM27.98 19.2211C27.9539 19.2254 27.9302 19.2389 27.9132 19.259C27.8961 19.2792 27.8868 19.3047 27.887 19.3311C27.8866 19.3533 27.8928 19.3751 27.9048 19.3938C27.9168 19.4125 27.9341 19.4271 27.9545 19.4359C27.9748 19.4447 27.9974 19.4473 28.0192 19.4433C28.041 19.4393 28.0612 19.4289 28.0771 19.4134C28.093 19.3979 28.1039 19.3781 28.1085 19.3563C28.1131 19.3346 28.1112 19.312 28.1029 19.2914C28.0946 19.2709 28.0804 19.2532 28.0621 19.2407C28.0438 19.2281 28.0221 19.2213 28 19.2211H27.98ZM20.002 19.7811C19.9872 19.781 19.9725 19.7838 19.9588 19.7893C19.9451 19.7949 19.9327 19.803 19.9221 19.8134C19.9116 19.8237 19.9032 19.8361 19.8974 19.8497C19.8916 19.8633 19.8886 19.8779 19.8885 19.8926C19.8883 19.9074 19.8911 19.9221 19.8966 19.9358C19.9022 19.9495 19.9103 19.9619 19.9207 19.9725C19.9311 19.983 19.9434 19.9914 19.957 19.9972C19.9706 20.003 19.9852 20.006 20 20.0061C20.0298 20.0064 20.0585 19.9948 20.0798 19.9739C20.1011 19.953 20.1132 19.9245 20.1135 19.8946C20.1137 19.8648 20.1021 19.8361 20.0812 19.8148C20.0603 19.7935 20.0318 19.7814 20.002 19.7811ZM28.002 19.7811C27.9872 19.781 27.9725 19.7838 27.9588 19.7893C27.9451 19.7949 27.9327 19.803 27.9221 19.8134C27.9116 19.8237 27.9032 19.8361 27.8974 19.8497C27.8916 19.8633 27.8886 19.8779 27.8885 19.8926C27.8883 19.9074 27.8911 19.9221 27.8966 19.9358C27.9022 19.9495 27.9103 19.9619 27.9207 19.9725C27.9311 19.983 27.9434 19.9914 27.957 19.9972C27.9706 20.003 27.9852 20.006 28 20.0061C28.0298 20.0064 28.0585 19.9948 28.0798 19.9739C28.1011 19.953 28.1132 19.9245 28.1135 19.8946C28.1137 19.8648 28.1021 19.8361 28.0812 19.8148C28.0603 19.7935 28.0318 19.7814 28.002 19.7811ZM19.992 20.3441C19.9633 20.3459 19.9364 20.3587 19.9169 20.3797C19.8974 20.4007 19.8866 20.4284 19.887 20.4571C19.887 20.5191 19.937 20.5691 20 20.5681C20.0297 20.5681 20.0581 20.5563 20.0792 20.5353C20.1002 20.5143 20.112 20.4858 20.112 20.4561C20.112 20.4264 20.1002 20.398 20.0792 20.3769C20.0581 20.3559 20.0297 20.3441 20 20.3441H19.992ZM27.992 20.3441C27.9633 20.3459 27.9364 20.3587 27.9169 20.3797C27.8974 20.4007 27.8866 20.4284 27.887 20.4571C27.887 20.5191 27.937 20.5691 28 20.5681C28.0297 20.5681 28.0581 20.5563 28.0792 20.5353C28.1002 20.5143 28.112 20.4858 28.112 20.4561C28.112 20.4264 28.1002 20.398 28.0792 20.3769C28.0581 20.3559 28.0297 20.3441 28 20.3441H27.992ZM19.992 20.9061C19.9772 20.9067 19.9627 20.9101 19.9492 20.9162C19.9358 20.9224 19.9237 20.9311 19.9136 20.9419C19.8932 20.9638 19.8824 20.9928 19.8835 21.0226C19.8845 21.0525 19.8974 21.0807 19.9192 21.101C19.9411 21.1214 19.9701 21.1322 20 21.1311C20.061 21.1311 20.11 21.0811 20.111 21.0191C20.1111 21.0044 20.1083 20.9898 20.1028 20.9762C20.0973 20.9626 20.0892 20.9501 20.0789 20.9397C20.0686 20.9292 20.0563 20.9208 20.0427 20.9151C20.0292 20.9093 20.0147 20.9063 20 20.9061H19.992ZM27.992 20.9061C27.9772 20.9067 27.9627 20.9101 27.9492 20.9162C27.9358 20.9224 27.9237 20.9311 27.9136 20.9419C27.8932 20.9638 27.8824 20.9928 27.8835 21.0226C27.8845 21.0525 27.8974 21.0807 27.9192 21.101C27.9411 21.1214 27.9701 21.1322 28 21.1311C28.061 21.1311 28.11 21.0811 28.111 21.0191C28.1111 21.0044 28.1083 20.9898 28.1028 20.9762C28.0973 20.9626 28.0892 20.9501 28.0789 20.9397C28.0686 20.9292 28.0563 20.9208 28.0427 20.9151C28.0292 20.9093 28.0147 20.9063 28 20.9061H27.992ZM19.992 21.4691C19.9633 21.4709 19.9364 21.4837 19.9169 21.5047C19.8974 21.5257 19.8866 21.5534 19.887 21.5821C19.887 21.6441 19.937 21.6941 20 21.6931C20.061 21.6931 20.11 21.6431 20.111 21.5821C20.1111 21.5674 20.1083 21.5528 20.1028 21.5392C20.0973 21.5256 20.0892 21.5131 20.0789 21.5027C20.0686 21.4922 20.0563 21.4838 20.0427 21.4781C20.0292 21.4723 20.0147 21.4693 20 21.4691H19.992ZM27.992 21.4691C27.9633 21.4709 27.9364 21.4837 27.9169 21.5047C27.8974 21.5257 27.8866 21.5534 27.887 21.5821C27.887 21.6441 27.937 21.6941 28 21.6931C28.061 21.6931 28.11 21.6431 28.111 21.5821C28.1111 21.5674 28.1083 21.5528 28.1028 21.5392C28.0973 21.5256 28.0892 21.5131 28.0789 21.5027C28.0686 21.4922 28.0563 21.4838 28.0427 21.4781C28.0292 21.4723 28.0147 21.4693 28 21.4691H27.992ZM19.992 22.0311C19.9621 22.033 19.9342 22.0466 19.9145 22.069C19.8947 22.0915 19.8846 22.1208 19.8865 22.1506C19.8883 22.1805 19.9019 22.2084 19.9244 22.2281C19.9468 22.2479 19.9761 22.258 20.006 22.2561C20.0207 22.2552 20.0352 22.2514 20.0485 22.2449C20.0618 22.2384 20.0737 22.2293 20.0835 22.2182C20.0933 22.2071 20.1008 22.1942 20.1056 22.1802C20.1104 22.1662 20.1124 22.1514 20.1115 22.1366C20.1105 22.1219 20.1067 22.1074 20.1002 22.0941C20.0937 22.0808 20.0847 22.0689 20.0736 22.0591C20.0625 22.0493 20.0495 22.0418 20.0355 22.037C20.0215 22.0322 20.0067 22.0302 19.992 22.0311ZM27.992 22.0311C27.9621 22.033 27.9342 22.0466 27.9145 22.069C27.8947 22.0915 27.8846 22.1208 27.8865 22.1506C27.8883 22.1805 27.9019 22.2084 27.9244 22.2281C27.9468 22.2479 27.9761 22.258 28.006 22.2561C28.0207 22.2552 28.0352 22.2514 28.0485 22.2449C28.0618 22.2384 28.0737 22.2293 28.0835 22.2182C28.0933 22.2071 28.1008 22.1942 28.1056 22.1802C28.1104 22.1662 28.1124 22.1514 28.1115 22.1366C28.1105 22.1219 28.1067 22.1074 28.1002 22.0941C28.0937 22.0808 28.0847 22.0689 28.0736 22.0591C28.0625 22.0493 28.0495 22.0418 28.0355 22.037C28.0215 22.0322 28.0067 22.0302 27.992 22.0311ZM17.533 22.0801V22.0821C17.4084 22.084 17.2854 22.1105 17.1711 22.1601C17.0568 22.2097 16.9534 22.2814 16.867 22.3711L15.059 24.2281C14.9718 24.3171 14.903 24.4224 14.8567 24.538C14.8103 24.6535 14.7873 24.7772 14.7889 24.9017C14.7904 25.0262 14.8166 25.1492 14.8659 25.2636C14.9152 25.3779 14.9865 25.4815 15.076 25.5681C15.1651 25.6551 15.2705 25.7236 15.3862 25.7697C15.5019 25.8158 15.6256 25.8386 15.7501 25.8368C15.8746 25.8349 15.9976 25.8084 16.1118 25.7589C16.2261 25.7094 16.3295 25.6378 16.416 25.5481L18.225 23.6891C18.3121 23.6001 18.3807 23.4948 18.427 23.3792C18.4733 23.2636 18.4962 23.1399 18.4946 23.0154C18.4929 22.8909 18.4666 22.7679 18.4173 22.6536C18.3679 22.5392 18.2964 22.4358 18.207 22.3491C18.1179 22.2621 18.0125 22.1935 17.8968 22.1474C17.7811 22.1012 17.6575 22.0784 17.533 22.0801ZM25.092 22.0801V22.0821C24.9674 22.084 24.8444 22.1105 24.7301 22.1601C24.6158 22.2097 24.5124 22.2814 24.426 22.3711L22.617 24.2281C22.5298 24.3171 22.4612 24.4225 22.4149 24.5381C22.3686 24.6537 22.3457 24.7774 22.3473 24.9019C22.349 25.0264 22.3753 25.1494 22.4246 25.2637C22.474 25.3781 22.5455 25.4815 22.635 25.5681C22.7241 25.6551 22.8295 25.7236 22.9452 25.7697C23.0609 25.8158 23.1846 25.8386 23.3091 25.8368C23.4336 25.8349 23.5566 25.8084 23.6708 25.7589C23.7851 25.7094 23.8885 25.6378 23.975 25.5481L25.783 23.6891C25.8701 23.6002 25.9389 23.4949 25.9852 23.3793C26.0316 23.2637 26.0546 23.1401 26.0531 23.0156C26.0515 22.8911 26.0253 22.7681 25.976 22.6537C25.9268 22.5393 25.8554 22.4358 25.766 22.3491C25.6769 22.2621 25.5715 22.1935 25.4558 22.1474C25.3401 22.1012 25.2165 22.0784 25.092 22.0801ZM32.252 22.0801V22.0821C32.1274 22.0841 32.0044 22.1106 31.8901 22.1602C31.7758 22.2098 31.6725 22.2815 31.586 22.3711L29.777 24.2281C29.6898 24.3171 29.6212 24.4225 29.5749 24.5381C29.5286 24.6537 29.5057 24.7774 29.5073 24.9019C29.509 25.0264 29.5353 25.1494 29.5846 25.2637C29.634 25.3781 29.7055 25.4815 29.795 25.5681C29.8841 25.6551 29.9895 25.7236 30.1052 25.7697C30.2209 25.8158 30.3446 25.8386 30.4691 25.8368C30.5936 25.8349 30.7166 25.8084 30.8308 25.7589C30.9451 25.7094 31.0485 25.6378 31.135 25.5481L32.943 23.6891C33.0301 23.6002 33.0989 23.4949 33.1452 23.3793C33.1916 23.2637 33.2146 23.1401 33.2131 23.0156C33.2115 22.8911 33.1853 22.7681 33.136 22.6537C33.0868 22.5393 33.0154 22.4358 32.926 22.3491C32.8369 22.2621 32.7315 22.1935 32.6158 22.1474C32.5001 22.1012 32.3765 22.0784 32.252 22.0801ZM17.598 22.5641V22.5661C17.676 22.5701 17.757 22.6041 17.842 22.6721C18.248 23.0331 17.767 23.4551 17.592 23.6391L16.727 24.5431C16.119 25.1741 15.855 25.6011 15.432 25.1931C15.072 24.8201 15.39 24.5991 16.078 23.9001L16.943 22.9961C17.149 22.7951 17.361 22.5531 17.598 22.5641ZM25.156 22.5641V22.5661C25.235 22.5701 25.316 22.6041 25.4 22.6721C25.807 23.0331 25.326 23.4551 25.15 23.6391L24.285 24.5431C23.678 25.1741 23.414 25.6011 22.99 25.1931C22.63 24.8201 22.949 24.5991 23.637 23.9001L24.502 22.9961C24.707 22.7951 24.92 22.5531 25.156 22.5641ZM32.316 22.5641V22.5661C32.396 22.5701 32.476 22.6041 32.56 22.6721C32.967 23.0331 32.486 23.4551 32.31 23.6391L31.445 24.5431C30.838 25.1741 30.574 25.6011 30.15 25.1931C29.79 24.8201 30.109 24.5991 30.797 23.9001L31.662 22.9961C31.868 22.7951 32.08 22.5531 32.316 22.5641ZM19.992 22.5941C19.9772 22.5951 19.9629 22.5989 19.9496 22.6053C19.9364 22.6118 19.9246 22.6208 19.9148 22.6319C19.9051 22.6429 19.8976 22.6558 19.8928 22.6698C19.888 22.6837 19.886 22.6984 19.887 22.7131C19.8879 22.7279 19.8917 22.7422 19.8982 22.7555C19.9046 22.7687 19.9137 22.7805 19.9247 22.7903C19.9358 22.8 19.9486 22.8075 19.9626 22.8123C19.9765 22.8171 19.9912 22.8191 20.006 22.8181C20.0357 22.8163 20.0634 22.8027 20.0831 22.7804C20.1028 22.7581 20.1128 22.7288 20.111 22.6991C20.1091 22.6694 20.0955 22.6417 20.0732 22.622C20.0509 22.6023 20.0217 22.5923 19.992 22.5941ZM27.992 22.5941C27.9772 22.5951 27.9629 22.5989 27.9496 22.6053C27.9364 22.6118 27.9246 22.6208 27.9148 22.6319C27.9051 22.6429 27.8976 22.6558 27.8928 22.6698C27.888 22.6837 27.886 22.6984 27.887 22.7131C27.8879 22.7279 27.8917 22.7422 27.8982 22.7555C27.9046 22.7687 27.9137 22.7805 27.9247 22.7903C27.9358 22.8 27.9486 22.8075 27.9626 22.8123C27.9765 22.8171 27.9912 22.8191 28.006 22.8181C28.0357 22.8163 28.0634 22.8027 28.0831 22.7804C28.1028 22.7581 28.1128 22.7288 28.111 22.6991C28.1091 22.6694 28.0955 22.6417 28.0732 22.622C28.0509 22.6023 28.0217 22.5923 27.992 22.5941ZM19.992 23.1561C19.9626 23.1572 19.9349 23.1697 19.9147 23.191C19.8945 23.2123 19.8834 23.2407 19.884 23.2701C19.8845 23.2994 19.8965 23.3274 19.9175 23.348C19.9384 23.3685 19.9666 23.3801 19.996 23.3801C20.0253 23.3801 20.0535 23.3685 20.0744 23.348C20.0954 23.3274 20.1074 23.2994 20.1079 23.2701C20.1085 23.2407 20.0974 23.2123 20.0772 23.191C20.0571 23.1697 20.0293 23.1572 20 23.1561H19.992ZM27.992 23.1561C27.9626 23.1572 27.9349 23.1697 27.9147 23.191C27.8945 23.2123 27.8834 23.2407 27.884 23.2701C27.8845 23.2994 27.8965 23.3274 27.9175 23.348C27.9384 23.3685 27.9666 23.3801 27.996 23.3801C28.0253 23.3801 28.0535 23.3685 28.0744 23.348C28.0954 23.3274 28.1074 23.2994 28.1079 23.2701C28.1085 23.2407 28.0974 23.2123 28.0772 23.191C28.057 23.1697 28.0293 23.1572 28 23.1561H27.992ZM19.98 23.7191C19.9537 23.7235 19.9299 23.737 19.9129 23.7574C19.8958 23.7778 19.8866 23.8036 19.887 23.8301C19.8868 23.8523 19.8931 23.874 19.9053 23.8925C19.9174 23.9111 19.9348 23.9256 19.9552 23.9342C19.9756 23.9429 19.9981 23.9453 20.0198 23.9412C20.0416 23.9371 20.0616 23.9266 20.0774 23.911C20.0932 23.8955 20.1041 23.8757 20.1086 23.854C20.1131 23.8323 20.1111 23.8097 20.1028 23.7892C20.0945 23.7687 20.0803 23.751 20.062 23.7386C20.0437 23.7261 20.0221 23.7193 20 23.7191H19.98ZM27.98 23.7191C27.9537 23.7235 27.9299 23.737 27.9129 23.7574C27.8958 23.7778 27.8866 23.8036 27.887 23.8301C27.8868 23.8523 27.8931 23.874 27.9053 23.8925C27.9174 23.9111 27.9348 23.9256 27.9552 23.9342C27.9756 23.9429 27.9981 23.9453 28.0198 23.9412C28.0416 23.9371 28.0616 23.9266 28.0774 23.911C28.0932 23.8955 28.1041 23.8757 28.1086 23.854C28.1131 23.8323 28.1111 23.8097 28.1028 23.7892C28.0945 23.7687 28.0803 23.751 28.062 23.7386C28.0437 23.7261 28.0221 23.7193 28 23.7191H27.98ZM19.98 24.2811C19.9536 24.2853 19.9297 24.2988 19.9126 24.3192C19.8955 24.3396 19.8864 24.3655 19.887 24.3921C19.887 24.4541 19.937 24.5051 20 24.5041C20.061 24.5041 20.11 24.4541 20.111 24.3921C20.111 24.3321 20.061 24.2821 20 24.2821H19.98V24.2811ZM27.98 24.2811C27.9536 24.2853 27.9297 24.2988 27.9126 24.3192C27.8955 24.3396 27.8864 24.3655 27.887 24.3921C27.887 24.4541 27.937 24.5051 28 24.5041C28.061 24.5041 28.11 24.4541 28.111 24.3921C28.111 24.3321 28.061 24.2821 28 24.2821H27.98V24.2811ZM19.992 24.8411C19.9631 24.8429 19.9361 24.8558 19.9166 24.8771C19.897 24.8983 19.8864 24.9263 19.887 24.9551C19.887 25.0171 19.937 25.0671 20 25.0661C20.0147 25.0656 20.0293 25.0622 20.0427 25.0561C20.0562 25.0499 20.0683 25.0412 20.0783 25.0304C20.0884 25.0195 20.0963 25.0069 20.1014 24.993C20.1066 24.9792 20.109 24.9644 20.1085 24.9496C20.1079 24.9349 20.1045 24.9203 20.0984 24.9069C20.0922 24.8934 20.0835 24.8813 20.0727 24.8713C20.0619 24.8612 20.0492 24.8533 20.0353 24.8482C20.0215 24.843 20.0067 24.8406 19.992 24.8411ZM27.992 24.8411C27.9631 24.8429 27.9361 24.8558 27.9166 24.8771C27.897 24.8983 27.8864 24.9263 27.887 24.9551C27.887 25.0171 27.937 25.0671 28 25.0661C28.0147 25.0656 28.0293 25.0622 28.0427 25.0561C28.0562 25.0499 28.0683 25.0412 28.0783 25.0304C28.0884 25.0195 28.0963 25.0069 28.1014 24.993C28.1066 24.9792 28.109 24.9644 28.1085 24.9496C28.1079 24.9349 28.1045 24.9203 28.0984 24.9069C28.0922 24.8934 28.0835 24.8813 28.0727 24.8713C28.0619 24.8612 28.0492 24.8533 28.0353 24.8482C28.0215 24.843 28.0067 24.8406 27.992 24.8411ZM19.992 25.4041C19.9626 25.4052 19.9349 25.4177 19.9147 25.439C19.8945 25.4603 19.8834 25.4887 19.884 25.5181C19.8845 25.5474 19.8965 25.5754 19.9175 25.596C19.9384 25.6165 19.9666 25.6281 19.996 25.6281C20.0253 25.6281 20.0535 25.6165 20.0744 25.596C20.0954 25.5754 20.1074 25.5474 20.1079 25.5181C20.1085 25.4887 20.0974 25.4603 20.0772 25.439C20.0571 25.4177 20.0293 25.4052 20 25.4041C19.9973 25.404 19.9946 25.404 19.992 25.4041ZM27.992 25.4041C27.9626 25.4052 27.9349 25.4177 27.9147 25.439C27.8945 25.4603 27.8834 25.4887 27.884 25.5181C27.8845 25.5474 27.8965 25.5754 27.9175 25.596C27.9384 25.6165 27.9666 25.6281 27.996 25.6281C28.0253 25.6281 28.0535 25.6165 28.0744 25.596C28.0954 25.5754 28.1074 25.5474 28.1079 25.5181C28.1085 25.4887 28.0974 25.4603 28.0772 25.439C28.057 25.4177 28.0293 25.4052 28 25.4041C27.9973 25.404 27.9946 25.404 27.992 25.4041ZM19.992 25.9671C19.9633 25.9689 19.9364 25.9817 19.9169 26.0027C19.8974 26.0237 19.8866 26.0514 19.887 26.0801C19.887 26.1421 19.937 26.1921 20 26.1911C20.0298 26.1901 20.058 26.1772 20.0783 26.1554C20.0987 26.1335 20.1095 26.1045 20.1085 26.0746C20.1074 26.0448 20.0945 26.0166 20.0727 25.9963C20.0508 25.9759 20.0218 25.9651 19.992 25.9661V25.9671ZM27.992 25.9671C27.9633 25.9689 27.9364 25.9817 27.9169 26.0027C27.8974 26.0237 27.8866 26.0514 27.887 26.0801C27.887 26.1421 27.937 26.1921 28 26.1911C28.0298 26.1901 28.058 26.1772 28.0783 26.1554C28.0987 26.1335 28.1095 26.1045 28.1085 26.0746C28.1074 26.0448 28.0945 26.0166 28.0727 25.9963C28.0508 25.9759 28.0218 25.9651 27.992 25.9661V25.9671ZM19.992 26.5291C19.9772 26.5301 19.9627 26.5339 19.9494 26.5404C19.9361 26.5469 19.9243 26.5559 19.9145 26.567C19.9047 26.5781 19.8971 26.5911 19.8923 26.6051C19.8875 26.6191 19.8855 26.6339 19.8865 26.6486C19.8874 26.6634 19.8912 26.6779 19.8977 26.6912C19.9042 26.7045 19.9133 26.7163 19.9244 26.7261C19.9355 26.7359 19.9484 26.7435 19.9624 26.7483C19.9764 26.7531 19.9912 26.7551 20.006 26.7541C20.0358 26.7523 20.0637 26.7387 20.0835 26.7162C20.1032 26.6938 20.1133 26.6645 20.1115 26.6346C20.1096 26.6048 20.096 26.5769 20.0736 26.5571C20.0511 26.5374 20.0218 26.5273 19.992 26.5291ZM27.992 26.5291C27.9772 26.5301 27.9627 26.5339 27.9494 26.5404C27.9361 26.5469 27.9243 26.5559 27.9145 26.567C27.9047 26.5781 27.8971 26.5911 27.8923 26.6051C27.8875 26.6191 27.8855 26.6339 27.8865 26.6486C27.8874 26.6634 27.8912 26.6779 27.8977 26.6912C27.9042 26.7045 27.9133 26.7163 27.9244 26.7261C27.9355 26.7359 27.9484 26.7435 27.9624 26.7483C27.9764 26.7531 27.9912 26.7551 28.006 26.7541C28.0358 26.7523 28.0637 26.7387 28.0835 26.7162C28.1032 26.6938 28.1133 26.6645 28.1115 26.6346C28.1096 26.6048 28.096 26.5769 28.0736 26.5571C28.0511 26.5374 28.0218 26.5273 27.992 26.5291ZM19.992 27.0921C19.9772 27.0931 19.9629 27.0969 19.9496 27.1033C19.9364 27.1098 19.9246 27.1188 19.9148 27.1299C19.9051 27.1409 19.8976 27.1538 19.8928 27.1678C19.888 27.1817 19.886 27.1964 19.887 27.2111C19.8879 27.2259 19.8917 27.2402 19.8982 27.2535C19.9046 27.2667 19.9137 27.2785 19.9247 27.2883C19.9358 27.298 19.9486 27.3055 19.9626 27.3103C19.9765 27.3151 19.9912 27.3171 20.006 27.3161C20.0357 27.3143 20.0634 27.3007 20.0831 27.2784C20.1028 27.2561 20.1128 27.2269 20.111 27.1971C20.1091 27.1674 20.0955 27.1397 20.0732 27.12C20.0509 27.1003 20.0217 27.0903 19.992 27.0921ZM27.992 27.0921C27.9772 27.0931 27.9629 27.0969 27.9496 27.1033C27.9364 27.1098 27.9246 27.1188 27.9148 27.1299C27.9051 27.1409 27.8976 27.1538 27.8928 27.1678C27.888 27.1817 27.886 27.1964 27.887 27.2111C27.8879 27.2259 27.8917 27.2402 27.8982 27.2535C27.9046 27.2667 27.9137 27.2785 27.9247 27.2883C27.9358 27.298 27.9486 27.3055 27.9626 27.3103C27.9765 27.3151 27.9912 27.3171 28.006 27.3161C28.0357 27.3143 28.0634 27.3007 28.0831 27.2784C28.1028 27.2561 28.1128 27.2269 28.111 27.1971C28.1091 27.1674 28.0955 27.1397 28.0732 27.12C28.0509 27.1003 28.0217 27.0903 27.992 27.0921ZM17.533 27.3401C17.4083 27.3423 17.2854 27.3691 17.1711 27.4188C17.0568 27.4686 16.9535 27.5404 16.867 27.6301L15.059 29.4881C14.8928 29.6698 14.804 29.9089 14.8111 30.1549C14.8183 30.4009 14.921 30.6345 15.0974 30.8061C15.2739 30.9777 15.5102 31.0739 15.7563 31.0743C16.0024 31.0747 16.239 30.9792 16.416 30.8081L18.225 28.9491C18.3121 28.8601 18.3807 28.7548 18.427 28.6392C18.4733 28.5236 18.4962 28.3999 18.4946 28.2754C18.4929 28.1509 18.4666 28.0279 18.4173 27.9136C18.3679 27.7992 18.2964 27.6958 18.207 27.6091C18.118 27.5219 18.0126 27.4532 17.8969 27.4068C17.7812 27.3605 17.6576 27.3375 17.533 27.3391V27.3401ZM25.092 27.3401C24.9673 27.3423 24.8444 27.3691 24.7301 27.4188C24.6158 27.4686 24.5125 27.5404 24.426 27.6301L22.617 29.4881C22.4508 29.6698 22.362 29.9089 22.3692 30.1549C22.3763 30.4009 22.479 30.6345 22.6554 30.8061C22.8319 30.9777 23.0682 31.0739 23.3143 31.0743C23.5604 31.0747 23.797 30.9792 23.974 30.8081L25.784 28.9491C25.8711 28.8601 25.9397 28.7548 25.986 28.6392C26.0323 28.5236 26.0552 28.3999 26.0536 28.2754C26.0519 28.1509 26.0256 28.0279 25.9763 27.9136C25.9269 27.7992 25.8554 27.6958 25.766 27.6091C25.677 27.5219 25.5716 27.4532 25.4559 27.4068C25.3402 27.3605 25.2166 27.3375 25.092 27.3391V27.3401ZM32.252 27.3401C32.1273 27.3423 32.0044 27.3691 31.8901 27.4188C31.7758 27.4686 31.6725 27.5404 31.586 27.6301L29.777 29.4881C29.6108 29.6698 29.522 29.9089 29.5292 30.1549C29.5363 30.4009 29.639 30.6345 29.8154 30.8061C29.9919 30.9777 30.2282 31.0739 30.4743 31.0743C30.7204 31.0747 30.957 30.9792 31.134 30.8081L32.944 28.9491C33.0311 28.8601 33.0997 28.7548 33.146 28.6392C33.1923 28.5236 33.2152 28.3999 33.2136 28.2754C33.2119 28.1509 33.1856 28.0279 33.1363 27.9136C33.0869 27.7992 33.0154 27.6958 32.926 27.6091C32.837 27.5219 32.7316 27.4532 32.6159 27.4068C32.5002 27.3605 32.3766 27.3375 32.252 27.3391V27.3401ZM19.992 27.6541C19.9621 27.656 19.9342 27.6696 19.9145 27.692C19.8947 27.7145 19.8846 27.7438 19.8865 27.7736C19.8883 27.8035 19.9019 27.8314 19.9244 27.8511C19.9468 27.8709 19.9761 27.881 20.006 27.8791C20.0207 27.8782 20.0352 27.8744 20.0485 27.8679C20.0618 27.8614 20.0737 27.8523 20.0835 27.8412C20.0933 27.8301 20.1008 27.8172 20.1056 27.8032C20.1104 27.7892 20.1124 27.7744 20.1115 27.7596C20.1105 27.7449 20.1067 27.7304 20.1002 27.7171C20.0937 27.7038 20.0847 27.6919 20.0736 27.6821C20.0625 27.6723 20.0495 27.6648 20.0355 27.66C20.0215 27.6552 20.0067 27.6532 19.992 27.6541ZM27.992 27.6541C27.9621 27.656 27.9342 27.6696 27.9145 27.692C27.8947 27.7145 27.8846 27.7438 27.8865 27.7736C27.8883 27.8035 27.9019 27.8314 27.9244 27.8511C27.9468 27.8709 27.9761 27.881 28.006 27.8791C28.0207 27.8782 28.0352 27.8744 28.0485 27.8679C28.0618 27.8614 28.0737 27.8523 28.0835 27.8412C28.0933 27.8301 28.1008 27.8172 28.1056 27.8032C28.1104 27.7892 28.1124 27.7744 28.1115 27.7596C28.1105 27.7449 28.1067 27.7304 28.1002 27.7171C28.0937 27.7038 28.0847 27.6919 28.0736 27.6821C28.0625 27.6723 28.0495 27.6648 28.0355 27.66C28.0215 27.6552 28.0067 27.6532 27.992 27.6541ZM17.598 27.8221C17.676 27.8261 17.757 27.8601 17.842 27.9301C18.248 28.2911 17.767 28.7151 17.592 28.8981L16.727 29.8031C16.119 30.4341 15.855 30.8611 15.432 30.4531C15.072 30.0801 15.39 29.8571 16.078 29.1581L16.943 28.2561C17.149 28.0551 17.361 27.8111 17.598 27.8221ZM25.156 27.8221C25.235 27.8261 25.316 27.8601 25.4 27.9301C25.807 28.2911 25.326 28.7151 25.15 28.8981L24.285 29.8031C23.678 30.4341 23.414 30.8611 22.99 30.4531C22.63 30.0801 22.949 29.8571 23.637 29.1581L24.502 28.2561C24.707 28.0551 24.92 27.8111 25.156 27.8221ZM32.316 27.8221C32.396 27.8261 32.476 27.8601 32.56 27.9301C32.967 28.2911 32.486 28.7151 32.31 28.8981L31.445 29.8031C30.838 30.4341 30.574 30.8611 30.15 30.4531C29.79 30.0801 30.109 29.8571 30.797 29.1581L31.662 28.2561C31.868 28.0551 32.08 27.8111 32.316 27.8221ZM19.98 28.2171C19.9537 28.2215 19.9299 28.235 19.9129 28.2554C19.8958 28.2758 19.8866 28.3016 19.887 28.3281C19.887 28.3901 19.937 28.4411 20 28.4391C20.061 28.4391 20.11 28.3891 20.111 28.3281C20.111 28.2671 20.061 28.2181 20 28.2171H19.98ZM27.98 28.2171C27.9537 28.2215 27.9299 28.235 27.9129 28.2554C27.8958 28.2758 27.8866 28.3016 27.887 28.3281C27.887 28.3901 27.937 28.4411 28 28.4391C28.061 28.4391 28.11 28.3891 28.111 28.3281C28.111 28.2671 28.061 28.2181 28 28.2171H27.98ZM20.002 28.7771C19.9863 28.7755 19.9705 28.7772 19.9555 28.7821C19.9406 28.7869 19.9268 28.7948 19.9151 28.8053C19.9033 28.8158 19.8939 28.8286 19.8874 28.843C19.881 28.8573 19.8775 28.8728 19.8774 28.8885C19.8773 28.9043 19.8804 28.9199 19.8866 28.9343C19.8929 28.9488 19.902 28.9617 19.9136 28.9724C19.9251 28.9831 19.9388 28.9913 19.9536 28.9964C19.9685 29.0015 19.9843 29.0035 20 29.0021C20.028 28.9998 20.0541 28.987 20.0733 28.9664C20.0924 28.9457 20.1031 28.9187 20.1034 28.8906C20.1036 28.8624 20.0934 28.8352 20.0746 28.8142C20.0559 28.7932 20.0299 28.78 20.002 28.7771ZM28.002 28.7771C27.9863 28.7755 27.9705 28.7772 27.9555 28.7821C27.9406 28.7869 27.9268 28.7948 27.9151 28.8053C27.9033 28.8158 27.8939 28.8286 27.8874 28.843C27.881 28.8573 27.8775 28.8728 27.8774 28.8885C27.8772 28.9043 27.8804 28.9199 27.8866 28.9343C27.8929 28.9488 27.902 28.9617 27.9136 28.9724C27.9251 28.9831 27.9388 28.9913 27.9536 28.9964C27.9685 29.0015 27.9843 29.0035 28 29.0021C28.028 28.9998 28.0541 28.987 28.0733 28.9664C28.0924 28.9457 28.1031 28.9187 28.1034 28.8906C28.1036 28.8624 28.0934 28.8352 28.0746 28.8142C28.0559 28.7932 28.0299 28.78 28.002 28.7771ZM19.992 29.3401C19.9633 29.3419 19.9364 29.3547 19.9169 29.3757C19.8974 29.3967 19.8866 29.4244 19.887 29.4531C19.887 29.5151 19.937 29.5661 20 29.5641C20.061 29.5641 20.11 29.5141 20.111 29.4531C20.1111 29.4384 20.1083 29.4238 20.1028 29.4102C20.0973 29.3966 20.0892 29.3841 20.0789 29.3737C20.0686 29.3632 20.0563 29.3548 20.0427 29.3491C20.0292 29.3433 20.0147 29.3403 20 29.3401H19.992ZM27.992 29.3401C27.9633 29.3419 27.9364 29.3547 27.9169 29.3757C27.8974 29.3967 27.8866 29.4244 27.887 29.4531C27.887 29.5151 27.937 29.5661 28 29.5641C28.061 29.5641 28.11 29.5141 28.111 29.4531C28.1111 29.4384 28.1083 29.4238 28.1028 29.4102C28.0973 29.3966 28.0892 29.3841 28.0789 29.3737C28.0686 29.3632 28.0563 29.3548 28.0427 29.3491C28.0292 29.3433 28.0147 29.3403 28 29.3401H27.992ZM19.992 29.9021C19.9626 29.9032 19.9349 29.9157 19.9147 29.937C19.8945 29.9583 19.8834 29.9867 19.884 30.0161C19.8845 30.0454 19.8965 30.0734 19.9175 30.094C19.9384 30.1145 19.9666 30.1261 19.996 30.1261C20.0253 30.1261 20.0535 30.1145 20.0744 30.094C20.0954 30.0734 20.1074 30.0454 20.1079 30.0161C20.1085 29.9867 20.0974 29.9583 20.0772 29.937C20.0571 29.9157 20.0293 29.9032 20 29.9021H19.992ZM27.992 29.9021C27.9626 29.9032 27.9349 29.9157 27.9147 29.937C27.8945 29.9583 27.8834 29.9867 27.884 30.0161C27.8845 30.0454 27.8965 30.0734 27.9175 30.094C27.9384 30.1145 27.9666 30.1261 27.996 30.1261C28.0253 30.1261 28.0535 30.1145 28.0744 30.094C28.0954 30.0734 28.1074 30.0454 28.1079 30.0161C28.1085 29.9867 28.0974 29.9583 28.0772 29.937C28.057 29.9157 28.0293 29.9032 28 29.9021H27.992ZM19.992 30.4651C19.9633 30.4669 19.9364 30.4797 19.9169 30.5007C19.8974 30.5217 19.8866 30.5494 19.887 30.5781C19.887 30.6401 19.937 30.6911 20 30.6891C20.0147 30.6886 20.0291 30.6852 20.0425 30.6791C20.0559 30.673 20.068 30.6643 20.078 30.6535C20.088 30.6427 20.0958 30.6301 20.101 30.6163C20.1061 30.6025 20.1085 30.5879 20.108 30.5731C20.1074 30.5584 20.104 30.544 20.0979 30.5306C20.0918 30.5172 20.0831 30.5051 20.0723 30.4951C20.0616 30.4851 20.0489 30.4773 20.0351 30.4721C20.0213 30.467 20.0067 30.4646 19.992 30.4651ZM27.992 30.4651C27.9633 30.4669 27.9364 30.4797 27.9169 30.5007C27.8974 30.5217 27.8866 30.5494 27.887 30.5781C27.887 30.6401 27.937 30.6911 28 30.6891C28.0297 30.6881 28.0577 30.6753 28.078 30.6535C28.0982 30.6318 28.109 30.6028 28.108 30.5731C28.1069 30.5434 28.0941 30.5154 28.0723 30.4951C28.0506 30.4749 28.0217 30.4641 27.992 30.4651ZM19.992 31.0251C19.9633 31.0274 19.9366 31.0404 19.9171 31.0616C19.8976 31.0827 19.8869 31.1104 19.887 31.1391C19.887 31.1688 19.8988 31.1973 19.9198 31.2183C19.9408 31.2393 19.9693 31.2511 19.999 31.2511C20.0287 31.2511 20.0571 31.2393 20.0782 31.2183C20.0992 31.1973 20.111 31.1688 20.111 31.1391C20.111 31.1237 20.1079 31.1085 20.1018 31.0943C20.0958 31.0802 20.0869 31.0674 20.0758 31.0567C20.0647 31.0461 20.0515 31.0378 20.0371 31.0323C20.0227 31.0269 20.0073 31.0245 19.992 31.0251ZM27.992 31.0251C27.9633 31.0274 27.9366 31.0404 27.9171 31.0616C27.8976 31.0827 27.8869 31.1104 27.887 31.1391C27.887 31.1688 27.8988 31.1973 27.9198 31.2183C27.9408 31.2393 27.9693 31.2511 27.999 31.2511C28.0287 31.2511 28.0571 31.2393 28.0782 31.2183C28.0992 31.1973 28.111 31.1688 28.111 31.1391C28.111 31.1237 28.1079 31.1085 28.1018 31.0943C28.0958 31.0802 28.0869 31.0674 28.0758 31.0567C28.0647 31.0461 28.0515 31.0378 28.0371 31.0323C28.0227 31.0269 28.0073 31.0245 27.992 31.0251ZM19.992 31.5881C19.9649 31.5926 19.9403 31.6068 19.9229 31.6281C19.9055 31.6493 19.8965 31.6762 19.8975 31.7037C19.8985 31.7311 19.9094 31.7573 19.9283 31.7772C19.9471 31.7972 19.9726 31.8096 20 31.8121C20.0147 31.8116 20.0291 31.8082 20.0425 31.8021C20.0559 31.796 20.068 31.7873 20.078 31.7765C20.088 31.7657 20.0958 31.7531 20.101 31.7393C20.1061 31.7255 20.1085 31.7109 20.108 31.6961C20.1074 31.6814 20.104 31.667 20.0979 31.6536C20.0918 31.6402 20.0831 31.6281 20.0723 31.6181C20.0616 31.6081 20.0489 31.6003 20.0351 31.5951C20.0213 31.59 20.0067 31.5876 19.992 31.5881ZM27.992 31.5881C27.9649 31.5926 27.9403 31.6068 27.9229 31.6281C27.9055 31.6493 27.8965 31.6762 27.8975 31.7037C27.8985 31.7311 27.9094 31.7573 27.9283 31.7772C27.9471 31.7972 27.9726 31.8096 28 31.8121C28.0297 31.8111 28.0577 31.7983 28.078 31.7765C28.0982 31.7548 28.109 31.7258 28.108 31.6961C28.1069 31.6664 28.0941 31.6384 28.0723 31.6181C28.0506 31.5979 28.0217 31.5871 27.992 31.5881ZM19.98 32.1501C19.9535 32.1543 19.9294 32.1679 19.9123 32.1886C19.8952 32.2092 19.8861 32.2354 19.887 32.2621C19.8868 32.2845 19.8932 32.3065 19.9055 32.3252C19.9178 32.3439 19.9354 32.3585 19.956 32.3673C19.9766 32.376 19.9994 32.3783 20.0214 32.3741C20.0434 32.3699 20.0636 32.3592 20.0795 32.3434C20.0954 32.3276 20.1063 32.3075 20.1107 32.2856C20.1151 32.2636 20.113 32.2408 20.1044 32.2201C20.0959 32.1994 20.0814 32.1817 20.0628 32.1693C20.0442 32.1568 20.0223 32.1501 20 32.1501H19.98ZM27.98 32.1501C27.9535 32.1543 27.9294 32.1679 27.9123 32.1886C27.8952 32.2092 27.8861 32.2354 27.887 32.2621C27.8868 32.2845 27.8932 32.3065 27.9055 32.3252C27.9178 32.3439 27.9354 32.3585 27.956 32.3673C27.9766 32.376 27.9994 32.3783 28.0214 32.3741C28.0434 32.3699 28.0636 32.3592 28.0795 32.3434C28.0954 32.3276 28.1063 32.3075 28.1107 32.2856C28.1151 32.2636 28.113 32.2408 28.1044 32.2201C28.0959 32.1994 28.0814 32.1817 28.0628 32.1693C28.0442 32.1568 28.0223 32.1501 28 32.1501H27.98ZM17.531 32.5971V32.5991C17.4063 32.6012 17.2833 32.6278 17.169 32.6776C17.0547 32.7274 16.9514 32.7993 16.865 32.8891L15.057 34.7461C14.9698 34.8351 14.901 34.9404 14.8547 35.056C14.8083 35.1715 14.7853 35.2952 14.7869 35.4197C14.7884 35.5442 14.8146 35.6672 14.8639 35.7816C14.9132 35.8959 14.9845 35.9995 15.074 36.0861C15.1631 36.1731 15.2685 36.2416 15.3842 36.2877C15.4999 36.3338 15.6236 36.3566 15.7481 36.3548C15.8726 36.3529 15.9956 36.3264 16.1098 36.2769C16.2241 36.2274 16.3275 36.1558 16.414 36.0661L18.223 34.2061C18.3099 34.1172 18.3785 34.0119 18.4246 33.8964C18.4708 33.7808 18.4937 33.6573 18.4921 33.5329C18.4904 33.4085 18.4642 33.2856 18.4149 33.1714C18.3656 33.0571 18.2943 32.9538 18.205 32.8671C18.116 32.7799 18.0106 32.7112 17.8949 32.6648C17.7792 32.6185 17.6556 32.5955 17.531 32.5971ZM25.09 32.5971V32.5991C24.9653 32.6012 24.8423 32.6278 24.728 32.6776C24.6137 32.7274 24.5104 32.7993 24.424 32.8891L22.615 34.7461C22.5278 34.8351 22.4592 34.9405 22.4129 35.0561C22.3666 35.1717 22.3437 35.2954 22.3453 35.4199C22.347 35.5444 22.3733 35.6674 22.4226 35.7817C22.472 35.8961 22.5435 35.9995 22.633 36.0861C22.7221 36.1731 22.8275 36.2416 22.9432 36.2877C23.0589 36.3338 23.1826 36.3566 23.3071 36.3548C23.4316 36.3529 23.5546 36.3264 23.6688 36.2769C23.7831 36.2274 23.8865 36.1558 23.973 36.0661L25.781 34.2061C25.868 34.1172 25.9366 34.012 25.9829 33.8965C26.0291 33.781 26.0521 33.6575 26.0506 33.5331C26.049 33.4087 26.0228 33.2858 25.9737 33.1716C25.9245 33.0573 25.8532 32.9538 25.764 32.8671C25.675 32.7799 25.5696 32.7112 25.4539 32.6648C25.3382 32.6185 25.2146 32.5955 25.09 32.5971ZM32.25 32.5971V32.5991C32.1253 32.6012 32.0023 32.6278 31.888 32.6776C31.7737 32.7274 31.6704 32.7993 31.584 32.8891L29.775 34.7461C29.6878 34.8351 29.6192 34.9405 29.5729 35.0561C29.5266 35.1717 29.5037 35.2954 29.5053 35.4199C29.507 35.5444 29.5333 35.6674 29.5826 35.7817C29.632 35.8961 29.7035 35.9995 29.793 36.0861C29.8821 36.1731 29.9875 36.2416 30.1032 36.2877C30.2189 36.3338 30.3426 36.3566 30.4671 36.3548C30.5916 36.3529 30.7146 36.3264 30.8288 36.2769C30.9431 36.2274 31.0465 36.1558 31.133 36.0661L32.941 34.2061C33.028 34.1172 33.0966 34.012 33.1429 33.8965C33.1891 33.781 33.2121 33.6575 33.2106 33.5331C33.209 33.4087 33.1828 33.2858 33.1337 33.1716C33.0845 33.0573 33.0132 32.9538 32.924 32.8671C32.835 32.7799 32.7296 32.7112 32.6139 32.6648C32.4982 32.6185 32.3746 32.5955 32.25 32.5971ZM19.98 32.7131C19.9589 32.7166 19.9392 32.726 19.9233 32.7402C19.9074 32.7545 19.8958 32.773 19.8901 32.7935C19.8843 32.8141 19.8846 32.8359 19.8908 32.8563C19.897 32.8768 19.909 32.895 19.9252 32.9089C19.9415 32.9227 19.9614 32.9317 19.9825 32.9346C20.0037 32.9376 20.0252 32.9344 20.0446 32.9255C20.0641 32.9166 20.0805 32.9023 20.0921 32.8844C20.1037 32.8664 20.1099 32.8455 20.11 32.8241C20.11 32.7631 20.061 32.7141 20 32.7131H19.98ZM27.98 32.7131C27.9589 32.7166 27.9392 32.726 27.9233 32.7402C27.9074 32.7545 27.8958 32.773 27.8901 32.7935C27.8843 32.8141 27.8846 32.8359 27.8908 32.8563C27.897 32.8768 27.909 32.895 27.9252 32.9089C27.9415 32.9227 27.9614 32.9317 27.9825 32.9346C28.0037 32.9376 28.0252 32.9344 28.0446 32.9255C28.0641 32.9166 28.0805 32.9023 28.0921 32.8844C28.1037 32.8664 28.1099 32.8455 28.11 32.8241C28.11 32.7631 28.061 32.7141 28 32.7131H27.98ZM17.596 33.0821C17.674 33.0861 17.756 33.1201 17.84 33.1891C18.246 33.5511 17.765 33.9751 17.59 34.1591L16.725 35.0621C16.117 35.6941 15.853 36.1211 15.43 35.7121C15.07 35.3391 15.388 35.1171 16.076 34.4181L16.941 33.5141C17.147 33.3121 17.359 33.0701 17.596 33.0821ZM25.154 33.0821C25.234 33.0861 25.314 33.1201 25.398 33.1891C25.805 33.5511 25.324 33.9751 25.148 34.1591L24.283 35.0621C23.676 35.6941 23.412 36.1211 22.988 35.7121C22.628 35.3391 22.947 35.1171 23.635 34.4181L24.5 33.5141C24.705 33.3121 24.918 33.0701 25.154 33.0821ZM32.314 33.0821C32.394 33.0861 32.474 33.1201 32.559 33.1891C32.965 33.5511 32.484 33.9751 32.309 34.1591L31.443 35.0621C30.836 35.6941 30.573 36.1211 30.148 35.7121C29.788 35.3391 30.107 35.1171 30.795 34.4181L31.66 33.5141C31.866 33.3121 32.078 33.0701 32.315 33.0821H32.314ZM20.002 33.2731C19.9869 33.2733 19.972 33.2764 19.9582 33.2823C19.9443 33.2882 19.9318 33.2968 19.9213 33.3076C19.9108 33.3184 19.9025 33.3311 19.897 33.3451C19.8914 33.3591 19.8887 33.3741 19.889 33.3891C19.889 33.4501 19.939 33.4991 20.002 33.4981C20.0165 33.4983 20.0309 33.4955 20.0444 33.4901C20.0578 33.4846 20.0701 33.4765 20.0804 33.4663C20.0907 33.4561 20.0989 33.4439 20.1045 33.4305C20.1101 33.4171 20.113 33.4027 20.113 33.3881C20.1132 33.3583 20.1017 33.3294 20.081 33.3079C20.0602 33.2864 20.0318 33.2739 20.002 33.2731ZM28.002 33.2731C27.9869 33.2733 27.972 33.2764 27.9582 33.2823C27.9443 33.2882 27.9318 33.2968 27.9213 33.3076C27.9108 33.3184 27.9025 33.3311 27.897 33.3451C27.8914 33.3591 27.8887 33.3741 27.889 33.3891C27.889 33.4501 27.939 33.4991 28.002 33.4981C28.0165 33.4983 28.0309 33.4955 28.0444 33.4901C28.0578 33.4846 28.0701 33.4765 28.0804 33.4663C28.0907 33.4561 28.0989 33.4439 28.1045 33.4305C28.1101 33.4171 28.113 33.4027 28.113 33.3881C28.1132 33.3583 28.1017 33.3294 28.081 33.3079C28.0602 33.2864 28.0318 33.2739 28.002 33.2731ZM19.992 33.8361C19.9633 33.8379 19.9364 33.8507 19.9169 33.8717C19.8974 33.8927 19.8866 33.9204 19.887 33.9491C19.887 34.0111 19.937 34.0621 20 34.0601C20.061 34.0601 20.11 34.0101 20.111 33.9501C20.1112 33.9354 20.1086 33.9207 20.1031 33.9069C20.0977 33.8931 20.0895 33.8806 20.0792 33.87C20.0689 33.8594 20.0566 33.851 20.043 33.8451C20.0294 33.8393 20.0147 33.8363 20 33.8361H19.992ZM27.992 33.8361C27.9633 33.8379 27.9364 33.8507 27.9169 33.8717C27.8974 33.8927 27.8866 33.9204 27.887 33.9491C27.887 34.0111 27.937 34.0621 28 34.0601C28.061 34.0601 28.11 34.0101 28.111 33.9501C28.1112 33.9354 28.1086 33.9207 28.1031 33.9069C28.0977 33.8931 28.0895 33.8806 28.0792 33.87C28.0689 33.8594 28.0566 33.851 28.043 33.8451C28.0294 33.8393 28.0147 33.8363 28 33.8361H27.992ZM19.992 34.3981C19.9772 34.3987 19.9627 34.4021 19.9492 34.4082C19.9358 34.4144 19.9237 34.4231 19.9136 34.4339C19.9035 34.4447 19.8957 34.4574 19.8905 34.4713C19.8853 34.4851 19.8829 34.4999 19.8835 34.5146C19.884 34.5294 19.8874 34.5439 19.8936 34.5574C19.8997 34.5708 19.9084 34.5829 19.9192 34.593C19.9301 34.6031 19.9427 34.6109 19.9566 34.6161C19.9705 34.6213 19.9852 34.6237 20 34.6231C20.061 34.6231 20.11 34.5731 20.111 34.5121C20.1113 34.4967 20.1084 34.4813 20.1024 34.467C20.0965 34.4527 20.0876 34.4398 20.0765 34.429C20.0653 34.4183 20.052 34.4101 20.0374 34.4047C20.0229 34.3994 20.0074 34.3972 19.992 34.3981ZM27.992 34.3981C27.9772 34.3987 27.9627 34.4021 27.9492 34.4082C27.9358 34.4144 27.9237 34.4231 27.9136 34.4339C27.9035 34.4447 27.8957 34.4574 27.8905 34.4713C27.8853 34.4851 27.8829 34.4999 27.8835 34.5146C27.884 34.5294 27.8874 34.5439 27.8936 34.5574C27.8997 34.5708 27.9084 34.5829 27.9192 34.593C27.9301 34.6031 27.9427 34.6109 27.9566 34.6161C27.9705 34.6213 27.9852 34.6237 28 34.6231C28.061 34.6231 28.11 34.5731 28.111 34.5121C28.1113 34.4967 28.1084 34.4813 28.1024 34.467C28.0965 34.4527 28.0876 34.4398 28.0765 34.429C28.0653 34.4183 28.052 34.4101 28.0374 34.4047C28.0229 34.3994 28.0074 34.3972 27.992 34.3981ZM19.992 34.9611C19.9623 34.9622 19.9342 34.975 19.9139 34.9968C19.8937 35.0185 19.8829 35.0474 19.884 35.0771C19.885 35.1068 19.8978 35.1349 19.9196 35.1552C19.9413 35.1754 19.9703 35.1862 20 35.1851C20.0297 35.1851 20.0581 35.1733 20.0792 35.1523C20.1002 35.1313 20.112 35.1029 20.112 35.0731C20.112 35.0434 20.1002 35.015 20.0792 34.9939C20.0581 34.9729 20.0297 34.9611 20 34.9611C19.9973 34.961 19.9946 34.961 19.992 34.9611ZM27.992 34.9611C27.9623 34.9622 27.9342 34.975 27.9139 34.9968C27.8937 35.0185 27.8829 35.0474 27.884 35.0771C27.885 35.1068 27.8978 35.1349 27.9196 35.1552C27.9413 35.1754 27.9703 35.1862 28 35.1851C28.0297 35.1851 28.0581 35.1733 28.0792 35.1523C28.1002 35.1313 28.112 35.1029 28.112 35.0731C28.112 35.0434 28.1002 35.015 28.0792 34.9939C28.0581 34.9729 28.0297 34.9611 28 34.9611C27.9973 34.961 27.9946 34.961 27.992 34.9611ZM19.992 35.5231C19.9626 35.5242 19.9349 35.5367 19.9147 35.558C19.8945 35.5793 19.8834 35.6077 19.884 35.6371C19.8845 35.6664 19.8965 35.6944 19.9175 35.715C19.9384 35.7355 19.9666 35.7471 19.996 35.7471C20.0253 35.7471 20.0535 35.7355 20.0744 35.715C20.0954 35.6944 20.1074 35.6664 20.1079 35.6371C20.1085 35.6077 20.0974 35.5793 20.0772 35.558C20.0571 35.5367 20.0293 35.5242 20 35.5231C19.9973 35.523 19.9946 35.523 19.992 35.5231ZM27.992 35.5231C27.9626 35.5242 27.9349 35.5367 27.9147 35.558C27.8945 35.5793 27.8834 35.6077 27.884 35.6371C27.8845 35.6664 27.8965 35.6944 27.9175 35.715C27.9384 35.7355 27.9666 35.7471 27.996 35.7471C28.0253 35.7471 28.0535 35.7355 28.0744 35.715C28.0954 35.6944 28.1074 35.6664 28.1079 35.6371C28.1085 35.6077 28.0974 35.5793 28.0772 35.558C28.057 35.5367 28.0293 35.5242 28 35.5231C27.9973 35.523 27.9946 35.523 27.992 35.5231ZM19.992 36.0861C19.9772 36.0871 19.9629 36.0909 19.9496 36.0974C19.9364 36.1038 19.9246 36.1128 19.9148 36.1239C19.9051 36.1349 19.8976 36.1478 19.8928 36.1618C19.888 36.1757 19.886 36.1904 19.887 36.2051C19.8879 36.2199 19.8917 36.2342 19.8982 36.2475C19.9046 36.2607 19.9137 36.2725 19.9247 36.2823C19.9358 36.292 19.9486 36.2995 19.9626 36.3043C19.9765 36.3091 19.9912 36.3111 20.006 36.3101C20.0357 36.3083 20.0634 36.2947 20.0831 36.2724C20.1028 36.2501 20.1128 36.2209 20.111 36.1911C20.1091 36.1614 20.0955 36.1337 20.0732 36.114C20.0509 36.0943 20.0217 36.0843 19.992 36.0861ZM27.992 36.0861C27.9772 36.0871 27.9629 36.0909 27.9496 36.0974C27.9364 36.1038 27.9246 36.1128 27.9148 36.1239C27.9051 36.1349 27.8976 36.1478 27.8928 36.1618C27.888 36.1757 27.886 36.1904 27.887 36.2051C27.8879 36.2199 27.8917 36.2342 27.8982 36.2475C27.9046 36.2607 27.9137 36.2725 27.9247 36.2823C27.9358 36.292 27.9486 36.2995 27.9626 36.3043C27.9765 36.3091 27.9912 36.3111 28.006 36.3101C28.0357 36.3083 28.0634 36.2947 28.0831 36.2724C28.1028 36.2501 28.1128 36.2209 28.111 36.1911C28.1091 36.1614 28.0955 36.1337 28.0732 36.114C28.0509 36.0943 28.0217 36.0843 27.992 36.0861ZM19.992 36.6481C19.9621 36.6492 19.9339 36.6621 19.9136 36.6839C19.8932 36.7058 19.8824 36.7348 19.8835 36.7646C19.8845 36.7945 19.8974 36.8227 19.9192 36.843C19.9411 36.8634 19.9701 36.8742 20 36.8731C20.0298 36.8731 20.0584 36.8613 20.0795 36.8402C20.1006 36.8191 20.1125 36.7905 20.1125 36.7606C20.1125 36.7308 20.1006 36.7022 20.0795 36.6811C20.0584 36.66 20.0298 36.6481 20 36.6481C19.9973 36.648 19.9946 36.648 19.992 36.6481ZM27.992 36.6481C27.9621 36.6492 27.9339 36.6621 27.9136 36.6839C27.8932 36.7058 27.8824 36.7348 27.8835 36.7646C27.8845 36.7945 27.8974 36.8227 27.9192 36.843C27.9411 36.8634 27.9701 36.8742 28 36.8731C28.0298 36.8731 28.0584 36.8613 28.0795 36.8402C28.1006 36.8191 28.1125 36.7905 28.1125 36.7606C28.1125 36.7308 28.1006 36.7022 28.0795 36.6811C28.0584 36.66 28.0298 36.6481 28 36.6481C27.9973 36.648 27.9946 36.648 27.992 36.6481ZM19.98 37.2111C19.9536 37.2153 19.9297 37.2288 19.9126 37.2492C19.8955 37.2696 19.8864 37.2955 19.887 37.3221C19.887 37.3841 19.937 37.4351 20 37.4331C20.061 37.4331 20.11 37.3831 20.111 37.3231C20.111 37.2611 20.061 37.2121 20 37.2111H19.98ZM27.98 37.2111C27.9536 37.2153 27.9297 37.2288 27.9126 37.2492C27.8955 37.2696 27.8864 37.2955 27.887 37.3221C27.887 37.3841 27.937 37.4351 28 37.4331C28.061 37.4331 28.11 37.3831 28.111 37.3231C28.111 37.2611 28.061 37.2121 28 37.2111H27.98ZM19.992 37.7711C19.9626 37.7722 19.9349 37.7847 19.9147 37.806C19.8945 37.8273 19.8834 37.8557 19.884 37.8851C19.8845 37.9144 19.8965 37.9424 19.9175 37.963C19.9384 37.9835 19.9666 37.9951 19.996 37.9951C20.0253 37.9951 20.0535 37.9835 20.0744 37.963C20.0954 37.9424 20.1074 37.9144 20.1079 37.8851C20.1085 37.8557 20.0974 37.8273 20.0772 37.806C20.0571 37.7847 20.0293 37.7722 20 37.7711C19.9973 37.771 19.9946 37.771 19.992 37.7711ZM27.992 37.7711C27.9626 37.7722 27.9349 37.7847 27.9147 37.806C27.8945 37.8273 27.8834 37.8557 27.884 37.8851C27.8845 37.9144 27.8965 37.9424 27.9175 37.963C27.9384 37.9835 27.9666 37.9951 27.996 37.9951C28.0253 37.9951 28.0535 37.9835 28.0744 37.963C28.0954 37.9424 28.1074 37.9144 28.1079 37.8851C28.1085 37.8557 28.0974 37.8273 28.0772 37.806C28.057 37.7847 28.0293 37.7722 28 37.7711C27.9973 37.771 27.9946 37.771 27.992 37.7711ZM19.992 38.3341C19.9633 38.3359 19.9364 38.3487 19.9169 38.3697C19.8974 38.3907 19.8866 38.4184 19.887 38.4471C19.887 38.5091 19.937 38.5601 20 38.5581C20.061 38.5581 20.11 38.5081 20.111 38.4481C20.1113 38.4327 20.1084 38.4173 20.1024 38.403C20.0965 38.3887 20.0876 38.3758 20.0765 38.365C20.0653 38.3543 20.052 38.3461 20.0374 38.3407C20.0229 38.3354 20.0074 38.3332 19.992 38.3341ZM27.992 38.3341C27.9633 38.3359 27.9364 38.3487 27.9169 38.3697C27.8974 38.3907 27.8866 38.4184 27.887 38.4471C27.887 38.5091 27.937 38.5601 28 38.5581C28.061 38.5581 28.11 38.5081 28.111 38.4481C28.1113 38.4327 28.1084 38.4173 28.1024 38.403C28.0965 38.3887 28.0876 38.3758 28.0765 38.365C28.0653 38.3543 28.052 38.3461 28.0374 38.3407C28.0229 38.3354 28.0074 38.3332 27.992 38.3341ZM19.992 38.8961C19.9626 38.8972 19.9349 38.9097 19.9147 38.931C19.8945 38.9523 19.8834 38.9807 19.884 39.0101C19.8845 39.0394 19.8965 39.0674 19.9175 39.088C19.9384 39.1085 19.9666 39.1201 19.996 39.1201C20.0253 39.1201 20.0535 39.1085 20.0744 39.088C20.0954 39.0674 20.1074 39.0394 20.1079 39.0101C20.1085 38.9807 20.0974 38.9523 20.0772 38.931C20.0571 38.9097 20.0293 38.8972 20 38.8961C19.9973 38.896 19.9946 38.896 19.992 38.8961ZM27.992 38.8961C27.9626 38.8972 27.9349 38.9097 27.9147 38.931C27.8945 38.9523 27.8834 38.9807 27.884 39.0101C27.8845 39.0394 27.8965 39.0674 27.9175 39.088C27.9384 39.1085 27.9666 39.1201 27.996 39.1201C28.0253 39.1201 28.0535 39.1085 28.0744 39.088C28.0954 39.0674 28.1074 39.0394 28.1079 39.0101C28.1085 38.9807 28.0974 38.9523 28.0772 38.931C28.057 38.9097 28.0293 38.8972 28 38.8961C27.9973 38.896 27.9946 38.896 27.992 38.8961ZM19.992 39.4591C19.9772 39.4601 19.9629 39.4639 19.9496 39.4703C19.9364 39.4768 19.9246 39.4858 19.9148 39.4969C19.9051 39.5079 19.8976 39.5208 19.8928 39.5348C19.888 39.5487 19.886 39.5634 19.887 39.5781C19.8879 39.5929 19.8917 39.6072 19.8982 39.6205C19.9046 39.6337 19.9137 39.6455 19.9247 39.6553C19.9358 39.665 19.9486 39.6725 19.9626 39.6773C19.9765 39.6821 19.9912 39.6841 20.006 39.6831C20.0357 39.6813 20.0634 39.6677 20.0831 39.6454C20.1028 39.6231 20.1128 39.5938 20.111 39.5641C20.1091 39.5344 20.0955 39.5067 20.0732 39.487C20.0509 39.4673 20.0217 39.4573 19.992 39.4591ZM27.992 39.4591C27.9772 39.4601 27.9629 39.4639 27.9496 39.4703C27.9364 39.4768 27.9246 39.4858 27.9148 39.4969C27.9051 39.5079 27.8976 39.5208 27.8928 39.5348C27.888 39.5487 27.886 39.5634 27.887 39.5781C27.8879 39.5929 27.8917 39.6072 27.8982 39.6205C27.9046 39.6337 27.9137 39.6455 27.9247 39.6553C27.9358 39.665 27.9486 39.6725 27.9626 39.6773C27.9765 39.6821 27.9912 39.6841 28.006 39.6831C28.0357 39.6813 28.0634 39.6677 28.0831 39.6454C28.1028 39.6231 28.1128 39.5938 28.111 39.5641C28.1091 39.5344 28.0955 39.5067 28.0732 39.487C28.0509 39.4673 28.0217 39.4573 27.992 39.4591ZM19.992 40.0211C19.9621 40.023 19.9342 40.0366 19.9145 40.059C19.8947 40.0815 19.8846 40.1108 19.8865 40.1406C19.8883 40.1705 19.9019 40.1984 19.9244 40.2181C19.9468 40.2379 19.9761 40.248 20.006 40.2461C20.0358 40.2443 20.0637 40.2307 20.0835 40.2082C20.1032 40.1858 20.1133 40.1565 20.1115 40.1266C20.1096 40.0968 20.096 40.0689 20.0736 40.0491C20.0511 40.0294 20.0218 40.0193 19.992 40.0211ZM27.992 40.0211C27.9621 40.023 27.9342 40.0366 27.9145 40.059C27.8947 40.0815 27.8846 40.1108 27.8865 40.1406C27.8883 40.1705 27.9019 40.1984 27.9244 40.2181C27.9468 40.2379 27.9761 40.248 28.006 40.2461C28.0358 40.2443 28.0637 40.2307 28.0835 40.2082C28.1032 40.1858 28.1133 40.1565 28.1115 40.1266C28.1096 40.0968 28.096 40.0689 28.0736 40.0491C28.0511 40.0294 28.0218 40.0193 27.992 40.0211ZM19.992 40.5841C19.9772 40.5851 19.9629 40.5889 19.9496 40.5953C19.9364 40.6018 19.9246 40.6108 19.9148 40.6219C19.9051 40.6329 19.8976 40.6458 19.8928 40.6598C19.888 40.6737 19.886 40.6884 19.887 40.7031C19.8879 40.7179 19.8917 40.7322 19.8982 40.7455C19.9046 40.7587 19.9137 40.7705 19.9247 40.7803C19.9358 40.79 19.9486 40.7975 19.9626 40.8023C19.9765 40.8071 19.9912 40.8091 20.006 40.8081C20.0357 40.8063 20.0634 40.7927 20.0831 40.7704C20.1028 40.7481 20.1128 40.7188 20.111 40.6891C20.1091 40.6594 20.0955 40.6317 20.0732 40.612C20.0509 40.5923 20.0217 40.5823 19.992 40.5841ZM27.992 40.5841C27.9772 40.5851 27.9629 40.5889 27.9496 40.5953C27.9364 40.6018 27.9246 40.6108 27.9148 40.6219C27.9051 40.6329 27.8976 40.6458 27.8928 40.6598C27.888 40.6737 27.886 40.6884 27.887 40.7031C27.8879 40.7179 27.8917 40.7322 27.8982 40.7455C27.9046 40.7587 27.9137 40.7705 27.9247 40.7803C27.9358 40.79 27.9486 40.7975 27.9626 40.8023C27.9765 40.8071 27.9912 40.8091 28.006 40.8081C28.0357 40.8063 28.0634 40.7927 28.0831 40.7704C28.1028 40.7481 28.1128 40.7188 28.111 40.6891C28.1091 40.6594 28.0955 40.6317 28.0732 40.612C28.0509 40.5923 28.0217 40.5823 27.992 40.5841ZM19.98 41.1461C19.9535 41.1503 19.9294 41.1639 19.9123 41.1846C19.8952 41.2052 19.8861 41.2313 19.887 41.2581C19.8868 41.2805 19.8932 41.3025 19.9055 41.3212C19.9178 41.3399 19.9354 41.3545 19.956 41.3633C19.9766 41.372 19.9994 41.3743 20.0214 41.3701C20.0434 41.3658 20.0636 41.3552 20.0795 41.3394C20.0954 41.3236 20.1063 41.3035 20.1107 41.2816C20.1151 41.2596 20.113 41.2368 20.1044 41.2161C20.0959 41.1954 20.0814 41.1777 20.0628 41.1653C20.0442 41.1528 20.0223 41.1461 20 41.1461H19.98ZM27.98 41.1461C27.9535 41.1503 27.9294 41.1639 27.9123 41.1846C27.8952 41.2052 27.8861 41.2313 27.887 41.2581C27.8868 41.2805 27.8932 41.3025 27.9055 41.3212C27.9178 41.3399 27.9354 41.3545 27.956 41.3633C27.9766 41.372 27.9994 41.3743 28.0214 41.3701C28.0434 41.3658 28.0636 41.3552 28.0795 41.3394C28.0954 41.3236 28.1063 41.3035 28.1107 41.2816C28.1151 41.2596 28.113 41.2368 28.1044 41.2161C28.0959 41.1954 28.0814 41.1777 28.0628 41.1653C28.0442 41.1528 28.0223 41.1461 28 41.1461H27.98ZM19.98 41.7091C19.9536 41.7133 19.9297 41.7268 19.9126 41.7472C19.8955 41.7676 19.8864 41.7935 19.887 41.8201C19.887 41.8821 19.937 41.9331 20 41.9311C20.061 41.9311 20.11 41.8811 20.111 41.8211C20.111 41.7591 20.061 41.7101 20 41.7091H19.98ZM27.98 41.7091C27.9536 41.7133 27.9297 41.7268 27.9126 41.7472C27.8955 41.7676 27.8864 41.7935 27.887 41.8201C27.887 41.8821 27.937 41.9331 28 41.9311C28.061 41.9311 28.11 41.8811 28.111 41.8211C28.111 41.7591 28.061 41.7101 28 41.7091H27.98ZM20.002 42.2691C19.9872 42.269 19.9725 42.2718 19.9588 42.2773C19.9451 42.2829 19.9327 42.291 19.9221 42.3014C19.9116 42.3117 19.9032 42.3241 19.8974 42.3377C19.8916 42.3513 19.8886 42.3659 19.8885 42.3806C19.8883 42.3954 19.8911 42.4101 19.8966 42.4238C19.9022 42.4375 19.9103 42.4499 19.9207 42.4605C19.9311 42.471 19.9434 42.4794 19.957 42.4852C19.9706 42.491 19.9852 42.494 20 42.4941C20.0298 42.4944 20.0585 42.4828 20.0798 42.4619C20.1011 42.441 20.1132 42.4125 20.1135 42.3826C20.1137 42.3528 20.1021 42.3241 20.0812 42.3028C20.0603 42.2815 20.0318 42.2694 20.002 42.2691ZM28.002 42.2691C27.9872 42.269 27.9725 42.2718 27.9588 42.2773C27.9451 42.2829 27.9327 42.291 27.9221 42.3014C27.9116 42.3117 27.9032 42.3241 27.8974 42.3377C27.8916 42.3513 27.8886 42.3659 27.8885 42.3806C27.8883 42.3954 27.8911 42.4101 27.8966 42.4238C27.9022 42.4375 27.9103 42.4499 27.9207 42.4605C27.9311 42.471 27.9434 42.4794 27.957 42.4852C27.9706 42.491 27.9852 42.494 28 42.4941C28.0298 42.4944 28.0585 42.4828 28.0798 42.4619C28.1011 42.441 28.1132 42.4125 28.1135 42.3826C28.1137 42.3528 28.1021 42.3241 28.0812 42.3028C28.0603 42.2815 28.0318 42.2694 28.002 42.2691ZM19.992 42.8321C19.9626 42.8332 19.9349 42.8457 19.9147 42.867C19.8945 42.8883 19.8834 42.9167 19.884 42.9461C19.8845 42.9754 19.8965 43.0034 19.9175 43.024C19.9384 43.0445 19.9666 43.0561 19.996 43.0561C20.0253 43.0561 20.0535 43.0445 20.0744 43.024C20.0954 43.0034 20.1074 42.9754 20.1079 42.9461C20.1085 42.9167 20.0974 42.8883 20.0772 42.867C20.0571 42.8457 20.0293 42.8332 20 42.8321C19.9973 42.832 19.9946 42.832 19.992 42.8321ZM27.992 42.8321C27.9626 42.8332 27.9349 42.8457 27.9147 42.867C27.8945 42.8883 27.8834 42.9167 27.884 42.9461C27.8845 42.9754 27.8965 43.0034 27.9175 43.024C27.9384 43.0445 27.9666 43.0561 27.996 43.0561C28.0253 43.0561 28.0535 43.0445 28.0744 43.024C28.0954 43.0034 28.1074 42.9754 28.1079 42.9461C28.1085 42.9167 28.0974 42.8883 28.0772 42.867C28.057 42.8457 28.0293 42.8332 28 42.8321C27.9973 42.832 27.9946 42.832 27.992 42.8321Z" fill="#333333"/>
</svg>
