<svg width="48" height="48" viewBox="0 0 48 48" fill="none" xmlns="http://www.w3.org/2000/svg">
<path fill-rule="evenodd" clip-rule="evenodd" d="M0 0V48H48V0H0ZM14.22 4.094H33.926C34.796 4.094 35.494 4.793 35.494 5.662V42.523C35.494 43.393 34.795 44.093 33.926 44.093H14.221C13.351 44.093 12.652 43.393 12.652 42.523V5.663C12.652 4.793 13.352 4.093 14.221 4.093L14.22 4.094ZM16.963 9.214V9.217C16.8384 9.21889 16.7154 9.24539 16.6011 9.29499C16.4868 9.34459 16.3835 9.4163 16.297 9.506L14.488 11.363C14.4011 11.4523 14.3328 11.5578 14.2868 11.6736C14.2409 11.7893 14.2183 11.913 14.2204 12.0376C14.2224 12.1621 14.2491 12.285 14.2988 12.3992C14.3485 12.5134 14.4203 12.6166 14.51 12.703C14.5991 12.79 14.7046 12.8585 14.8203 12.9046C14.936 12.9507 15.0596 12.9735 15.1842 12.9716C15.3087 12.9698 15.4316 12.9433 15.5459 12.8938C15.6602 12.8442 15.7635 12.7726 15.85 12.683L17.658 10.824C17.7449 10.7348 17.8134 10.6293 17.8594 10.5136C17.9054 10.3978 17.9281 10.2742 17.9261 10.1496C17.9242 10.0251 17.8976 9.90219 17.848 9.78796C17.7984 9.67372 17.7267 9.57043 17.637 9.484C17.548 9.39678 17.4426 9.32802 17.327 9.28169C17.2113 9.23535 17.0876 9.21234 16.963 9.214ZM20.963 9.214V9.217C20.8384 9.21889 20.7154 9.24539 20.6011 9.29499C20.4868 9.34459 20.3835 9.4163 20.297 9.506L18.488 11.363C18.4011 11.4523 18.3328 11.5578 18.2868 11.6736C18.2409 11.7893 18.2183 11.913 18.2204 12.0376C18.2224 12.1621 18.2491 12.285 18.2988 12.3992C18.3485 12.5134 18.4203 12.6166 18.51 12.703C18.5991 12.79 18.7046 12.8585 18.8203 12.9046C18.936 12.9507 19.0596 12.9735 19.1842 12.9716C19.3087 12.9698 19.4316 12.9433 19.5459 12.8938C19.6602 12.8442 19.7635 12.7726 19.85 12.683L21.658 10.824C21.7449 10.7348 21.8134 10.6293 21.8594 10.5136C21.9054 10.3978 21.9281 10.2742 21.9261 10.1496C21.9242 10.0251 21.8976 9.90219 21.848 9.78796C21.7984 9.67372 21.7267 9.57043 21.637 9.484C21.548 9.39678 21.4426 9.32802 21.327 9.28169C21.2113 9.23535 21.0876 9.21234 20.963 9.214ZM24.963 9.214V9.217C24.8384 9.21889 24.7154 9.24539 24.6011 9.29499C24.4868 9.34459 24.3835 9.4163 24.297 9.506L22.488 11.363C22.4011 11.4523 22.3328 11.5578 22.2868 11.6736C22.2409 11.7893 22.2183 11.913 22.2204 12.0376C22.2224 12.1621 22.2491 12.285 22.2988 12.3992C22.3485 12.5134 22.4203 12.6166 22.51 12.703C22.5991 12.79 22.7046 12.8585 22.8203 12.9046C22.936 12.9507 23.0596 12.9735 23.1842 12.9716C23.3087 12.9698 23.4316 12.9433 23.5459 12.8938C23.6602 12.8442 23.7635 12.7726 23.85 12.683L25.658 10.824C25.7449 10.7348 25.8134 10.6293 25.8594 10.5136C25.9054 10.3978 25.9281 10.2742 25.9261 10.1496C25.9242 10.0251 25.8976 9.90219 25.848 9.78796C25.7984 9.67372 25.7267 9.57043 25.637 9.484C25.548 9.39678 25.4426 9.32802 25.327 9.28169C25.2113 9.23535 25.0876 9.21234 24.963 9.214ZM28.963 9.214V9.217C28.8384 9.21889 28.7154 9.24539 28.6011 9.29499C28.4868 9.34459 28.3835 9.4163 28.297 9.506L26.488 11.363C26.4011 11.4523 26.3328 11.5578 26.2868 11.6736C26.2409 11.7893 26.2183 11.913 26.2204 12.0376C26.2224 12.1621 26.2491 12.285 26.2988 12.3992C26.3485 12.5134 26.4203 12.6166 26.51 12.703C26.5991 12.79 26.7046 12.8585 26.8203 12.9046C26.936 12.9507 27.0596 12.9735 27.1842 12.9716C27.3087 12.9698 27.4316 12.9433 27.5459 12.8938C27.6602 12.8442 27.7635 12.7726 27.85 12.683L29.658 10.824C29.7449 10.7348 29.8134 10.6293 29.8594 10.5136C29.9054 10.3978 29.9281 10.2742 29.9261 10.1496C29.9242 10.0251 29.8976 9.90219 29.848 9.78796C29.7984 9.67372 29.7267 9.57043 29.637 9.484C29.548 9.39678 29.4426 9.32802 29.327 9.28169C29.2113 9.23535 29.0876 9.21234 28.963 9.214ZM32.963 9.214V9.217C32.8384 9.21889 32.7154 9.24539 32.6011 9.29499C32.4868 9.34459 32.3835 9.4163 32.297 9.506L30.488 11.363C30.4011 11.4523 30.3328 11.5578 30.2868 11.6736C30.2409 11.7893 30.2183 11.913 30.2204 12.0376C30.2224 12.1621 30.2491 12.285 30.2988 12.3992C30.3485 12.5134 30.4203 12.6166 30.51 12.703C30.5991 12.79 30.7046 12.8585 30.8203 12.9046C30.936 12.9507 31.0596 12.9735 31.1842 12.9716C31.3087 12.9698 31.4316 12.9433 31.5459 12.8938C31.6602 12.8442 31.7635 12.7726 31.85 12.683L33.658 10.824C33.7449 10.7348 33.8134 10.6293 33.8594 10.5136C33.9054 10.3978 33.9281 10.2742 33.9261 10.1496C33.9242 10.0251 33.8976 9.90219 33.848 9.78796C33.7984 9.67372 33.7267 9.57043 33.637 9.484C33.548 9.39678 33.4426 9.32802 33.327 9.28169C33.2113 9.23535 33.0876 9.21234 32.963 9.214ZM13.67 14.98C13.6552 14.9801 13.6406 14.9832 13.627 14.989C13.6134 14.9948 13.6011 15.0033 13.5907 15.0139C13.5804 15.0245 13.5723 15.037 13.5669 15.0508C13.5614 15.0645 13.5587 15.0792 13.559 15.094C13.559 15.155 13.609 15.206 13.669 15.207C13.732 15.207 13.782 15.157 13.783 15.094C13.7833 15.079 13.7805 15.0642 13.775 15.0503C13.7694 15.0364 13.7611 15.0238 13.7506 15.0131C13.74 15.0025 13.7275 14.9941 13.7136 14.9884C13.6998 14.9827 13.685 14.9799 13.67 14.98ZM14.232 14.98C14.2019 14.9803 14.1732 14.9924 14.152 15.0137C14.1309 15.0351 14.119 15.0639 14.119 15.094C14.119 15.155 14.171 15.207 14.232 15.207C14.294 15.207 14.343 15.155 14.344 15.094V15.074C14.3401 15.0473 14.3265 15.023 14.3059 15.0057C14.2852 14.9884 14.2589 14.9792 14.232 14.98ZM14.795 14.98C14.78 14.9799 14.7652 14.9827 14.7514 14.9884C14.7375 14.9941 14.725 15.0025 14.7144 15.0131C14.7039 15.0238 14.6956 15.0364 14.69 15.0503C14.6845 15.0642 14.6817 15.079 14.682 15.094C14.682 15.156 14.732 15.208 14.795 15.207C14.856 15.207 14.905 15.155 14.906 15.094V15.074C14.9021 15.0475 14.8887 15.0233 14.8683 15.006C14.8478 14.9887 14.8218 14.9795 14.795 14.98ZM15.357 14.98C15.342 14.9799 15.3272 14.9827 15.3134 14.9884C15.2995 14.9941 15.287 15.0025 15.2764 15.0131C15.2659 15.0238 15.2576 15.0364 15.252 15.0503C15.2465 15.0642 15.2437 15.079 15.244 15.094C15.244 15.156 15.295 15.208 15.357 15.207C15.3724 15.2068 15.3876 15.2034 15.4017 15.1971C15.4158 15.1908 15.4284 15.1818 15.4389 15.1705C15.4493 15.1591 15.4574 15.1458 15.4626 15.1313C15.4678 15.1168 15.4699 15.1014 15.469 15.086C15.4675 15.0573 15.455 15.0304 15.4341 15.0107C15.4133 14.9909 15.3857 14.98 15.357 14.98ZM15.92 14.98C15.905 14.9799 15.8902 14.9827 15.8764 14.9884C15.8625 14.9941 15.85 15.0025 15.8394 15.0131C15.8289 15.0238 15.8206 15.0364 15.815 15.0503C15.8095 15.0642 15.8067 15.079 15.807 15.094C15.807 15.156 15.857 15.208 15.92 15.207C15.9353 15.2066 15.9504 15.2032 15.9644 15.1968C15.9783 15.1905 15.9909 15.1814 16.0012 15.1701C16.0116 15.1588 16.0196 15.1455 16.0247 15.1311C16.0298 15.1166 16.0319 15.1013 16.031 15.086C16.0295 15.0575 16.0171 15.0307 15.9965 15.011C15.9759 14.9913 15.9485 14.9802 15.92 14.98ZM16.482 14.98C16.467 14.9799 16.4522 14.9827 16.4384 14.9884C16.4245 14.9941 16.412 15.0025 16.4014 15.0131C16.3909 15.0238 16.3826 15.0364 16.377 15.0503C16.3715 15.0642 16.3687 15.079 16.369 15.094C16.369 15.156 16.42 15.208 16.482 15.207C16.4974 15.2068 16.5126 15.2034 16.5267 15.1971C16.5408 15.1908 16.5534 15.1818 16.5639 15.1705C16.5743 15.1591 16.5824 15.1458 16.5876 15.1313C16.5928 15.1168 16.5949 15.1014 16.594 15.086C16.5925 15.0573 16.58 15.0304 16.5591 15.0107C16.5383 14.9909 16.5107 14.98 16.482 14.98ZM17.043 14.98C17.0282 14.9801 17.0136 14.9832 17 14.989C16.9864 14.9948 16.9741 15.0033 16.9637 15.0139C16.9534 15.0245 16.9453 15.037 16.9399 15.0508C16.9344 15.0645 16.9317 15.0792 16.932 15.094C16.932 15.155 16.982 15.207 17.043 15.207C17.0585 15.2069 17.0738 15.2036 17.088 15.1974C17.1022 15.1912 17.115 15.1821 17.1255 15.1708C17.1361 15.1595 17.1443 15.1461 17.1495 15.1315C17.1547 15.117 17.157 15.1015 17.156 15.086C17.1545 15.0572 17.1418 15.0301 17.1208 15.0103C17.0997 14.9906 17.0719 14.9797 17.043 14.98ZM17.606 14.98C17.5911 14.98 17.5764 14.983 17.5627 14.9887C17.549 14.9945 17.5365 15.0029 17.5261 15.0135C17.5157 15.0241 17.5075 15.0367 17.5019 15.0505C17.4964 15.0643 17.4937 15.0791 17.494 15.094C17.494 15.155 17.544 15.207 17.605 15.207C17.6206 15.207 17.636 15.2039 17.6503 15.1977C17.6646 15.1915 17.6775 15.1825 17.6882 15.1712C17.6989 15.1598 17.7071 15.1464 17.7124 15.1318C17.7177 15.1171 17.72 15.1015 17.719 15.086C17.7174 15.057 17.7047 15.0297 17.6834 15.01C17.6622 14.9902 17.634 14.9794 17.605 14.98H17.606ZM18.168 14.98C18.1532 14.9801 18.1386 14.9832 18.125 14.989C18.1114 14.9948 18.0991 15.0033 18.0887 15.0139C18.0784 15.0245 18.0703 15.037 18.0649 15.0508C18.0594 15.0645 18.0567 15.0792 18.057 15.094C18.057 15.155 18.107 15.207 18.168 15.207C18.1835 15.2069 18.1988 15.2036 18.213 15.1974C18.2272 15.1912 18.24 15.1821 18.2505 15.1708C18.2611 15.1595 18.2693 15.1461 18.2745 15.1315C18.2797 15.117 18.282 15.1015 18.281 15.086C18.2795 15.0572 18.2668 15.0301 18.2458 15.0103C18.2247 14.9906 18.1969 14.9797 18.168 14.98ZM18.731 14.98C18.7161 14.98 18.7014 14.983 18.6877 14.9887C18.674 14.9945 18.6615 15.0029 18.6511 15.0135C18.6407 15.0241 18.6325 15.0367 18.6269 15.0505C18.6214 15.0643 18.6187 15.0791 18.619 15.094C18.619 15.155 18.669 15.207 18.73 15.207C18.792 15.207 18.841 15.155 18.842 15.094V15.074C18.8381 15.0475 18.8247 15.0233 18.8043 15.006C18.7838 14.9887 18.7578 14.9795 18.731 14.98ZM19.293 14.98C19.278 14.9799 19.2632 14.9827 19.2494 14.9884C19.2355 14.9941 19.223 15.0025 19.2124 15.0131C19.2019 15.0238 19.1936 15.0364 19.188 15.0503C19.1825 15.0642 19.1797 15.079 19.18 15.094C19.18 15.156 19.231 15.208 19.293 15.207C19.3083 15.2066 19.3234 15.2032 19.3374 15.1968C19.3513 15.1905 19.3639 15.1814 19.3742 15.1701C19.3846 15.1588 19.3926 15.1455 19.3977 15.1311C19.4028 15.1166 19.4049 15.1013 19.404 15.086C19.4025 15.0575 19.3901 15.0307 19.3695 15.011C19.3489 14.9913 19.3215 14.9802 19.293 14.98ZM19.856 14.98C19.841 14.9797 19.826 14.9825 19.8121 14.9881C19.7981 14.9938 19.7854 15.0021 19.7748 15.0128C19.7641 15.0234 19.7558 15.0361 19.7501 15.0501C19.7445 15.064 19.7417 15.079 19.742 15.094C19.742 15.156 19.794 15.208 19.855 15.207C19.8704 15.2068 19.8856 15.2034 19.8997 15.1971C19.9138 15.1908 19.9264 15.1818 19.9369 15.1705C19.9473 15.1591 19.9554 15.1458 19.9606 15.1313C19.9658 15.1168 19.9679 15.1014 19.967 15.086C19.9655 15.0575 19.9531 15.0307 19.9325 15.011C19.9119 14.9913 19.8845 14.9802 19.856 14.98ZM20.418 14.98C20.403 14.9799 20.3882 14.9827 20.3744 14.9884C20.3605 14.9941 20.348 15.0025 20.3374 15.0131C20.3269 15.0238 20.3186 15.0364 20.313 15.0503C20.3075 15.0642 20.3047 15.079 20.305 15.094C20.305 15.156 20.356 15.208 20.418 15.207C20.4333 15.2066 20.4484 15.2032 20.4624 15.1968C20.4763 15.1905 20.4889 15.1814 20.4992 15.1701C20.5096 15.1588 20.5176 15.1455 20.5227 15.1311C20.5278 15.1166 20.5299 15.1013 20.529 15.086C20.5275 15.0575 20.5151 15.0307 20.4945 15.011C20.4739 14.9913 20.4465 14.9802 20.418 14.98ZM20.981 14.98C20.966 14.9797 20.951 14.9825 20.9371 14.9881C20.9231 14.9938 20.9104 15.0021 20.8998 15.0128C20.8891 15.0234 20.8808 15.0361 20.8751 15.0501C20.8695 15.064 20.8667 15.079 20.867 15.094C20.867 15.156 20.919 15.208 20.98 15.207C20.9954 15.2068 21.0106 15.2034 21.0247 15.1971C21.0388 15.1908 21.0514 15.1818 21.0619 15.1705C21.0723 15.1591 21.0804 15.1458 21.0856 15.1313C21.0908 15.1168 21.0929 15.1014 21.092 15.086C21.0905 15.0575 21.0781 15.0307 21.0575 15.011C21.0369 14.9913 21.0095 14.9802 20.981 14.98ZM21.541 14.98C21.5262 14.9801 21.5116 14.9832 21.498 14.989C21.4844 14.9948 21.4721 15.0033 21.4617 15.0139C21.4514 15.0245 21.4433 15.037 21.4379 15.0508C21.4324 15.0645 21.4297 15.0792 21.43 15.094C21.43 15.155 21.48 15.207 21.541 15.207C21.5565 15.2069 21.5718 15.2036 21.586 15.1974C21.6002 15.1912 21.613 15.1821 21.6235 15.1708C21.6341 15.1595 21.6423 15.1461 21.6475 15.1315C21.6527 15.117 21.655 15.1015 21.654 15.086C21.6525 15.0572 21.6398 15.0301 21.6188 15.0103C21.5977 14.9906 21.5699 14.9797 21.541 14.98ZM22.104 14.98C22.0891 14.98 22.0744 14.983 22.0607 14.9887C22.047 14.9945 22.0345 15.0029 22.0241 15.0135C22.0137 15.0241 22.0055 15.0367 21.9999 15.0505C21.9944 15.0643 21.9917 15.0791 21.992 15.094C21.992 15.155 22.042 15.207 22.103 15.207C22.1186 15.207 22.134 15.2039 22.1483 15.1977C22.1626 15.1915 22.1755 15.1825 22.1862 15.1712C22.1969 15.1598 22.2051 15.1464 22.2104 15.1318C22.2157 15.1171 22.218 15.1015 22.217 15.086C22.2155 15.0572 22.2028 15.0301 22.1818 15.0103C22.1607 14.9906 22.1329 14.9797 22.104 14.98ZM22.666 14.98C22.6512 14.9801 22.6366 14.9832 22.623 14.989C22.6094 14.9948 22.5971 15.0033 22.5867 15.0139C22.5764 15.0245 22.5683 15.037 22.5629 15.0508C22.5574 15.0645 22.5547 15.0792 22.555 15.094C22.555 15.155 22.605 15.206 22.666 15.207C22.728 15.207 22.779 15.157 22.779 15.094C22.7793 15.079 22.7765 15.0642 22.771 15.0503C22.7654 15.0364 22.7571 15.0238 22.7466 15.0131C22.736 15.0025 22.7235 14.9941 22.7096 14.9884C22.6958 14.9827 22.681 14.9799 22.666 14.98ZM23.229 14.98C23.2141 14.98 23.1994 14.983 23.1857 14.9887C23.172 14.9945 23.1595 15.0029 23.1491 15.0135C23.1387 15.0241 23.1305 15.0367 23.1249 15.0505C23.1194 15.0643 23.1167 15.0791 23.117 15.094C23.117 15.155 23.167 15.207 23.228 15.207C23.2577 15.2065 23.2861 15.1944 23.307 15.1733C23.3279 15.1522 23.3397 15.1237 23.34 15.094V15.074C23.3359 15.0476 23.3224 15.0236 23.302 15.0063C23.2817 14.989 23.2557 14.9797 23.229 14.98ZM23.791 14.98C23.776 14.9799 23.7612 14.9827 23.7474 14.9884C23.7335 14.9941 23.721 15.0025 23.7104 15.0131C23.6999 15.0238 23.6916 15.0364 23.686 15.0503C23.6805 15.0642 23.6777 15.079 23.678 15.094C23.678 15.156 23.729 15.208 23.791 15.207C23.852 15.207 23.901 15.155 23.902 15.094V15.074C23.8981 15.0475 23.8847 15.0233 23.8643 15.006C23.8438 14.9887 23.8178 14.9795 23.791 14.98ZM24.354 14.98C24.339 14.9797 24.324 14.9825 24.3101 14.9881C24.2961 14.9938 24.2834 15.0021 24.2728 15.0128C24.2621 15.0234 24.2538 15.0361 24.2481 15.0501C24.2425 15.064 24.2397 15.079 24.24 15.094C24.24 15.156 24.292 15.208 24.354 15.207C24.3692 15.2065 24.3842 15.2029 24.3981 15.1965C24.4119 15.1901 24.4243 15.181 24.4346 15.1697C24.4448 15.1585 24.4527 15.1452 24.4578 15.1309C24.4628 15.1165 24.4649 15.1012 24.464 15.086C24.4625 15.0577 24.4503 15.031 24.4299 15.0113C24.4095 14.9917 24.3823 14.9805 24.354 14.98ZM24.916 14.98C24.901 14.9799 24.8862 14.9827 24.8724 14.9884C24.8585 14.9941 24.846 15.0025 24.8354 15.0131C24.8249 15.0238 24.8166 15.0364 24.811 15.0503C24.8055 15.0642 24.8027 15.079 24.803 15.094C24.803 15.156 24.854 15.208 24.916 15.207C24.9313 15.2066 24.9464 15.2032 24.9604 15.1968C24.9743 15.1905 24.9869 15.1814 24.9972 15.1701C25.0076 15.1588 25.0156 15.1455 25.0207 15.1311C25.0258 15.1166 25.0279 15.1013 25.027 15.086C25.0255 15.0575 25.0131 15.0307 24.9925 15.011C24.9719 14.9913 24.9445 14.9802 24.916 14.98ZM25.476 14.98C25.4613 14.9803 25.4468 14.9834 25.4333 14.9893C25.4198 14.9952 25.4076 15.0036 25.3974 15.0142C25.3872 15.0248 25.3791 15.0373 25.3738 15.051C25.3684 15.0647 25.3657 15.0793 25.366 15.094C25.366 15.155 25.416 15.207 25.476 15.207C25.4916 15.207 25.507 15.2039 25.5213 15.1977C25.5356 15.1915 25.5485 15.1825 25.5592 15.1712C25.5699 15.1598 25.5781 15.1464 25.5834 15.1318C25.5887 15.1171 25.591 15.1015 25.59 15.086C25.5885 15.0572 25.5758 15.0301 25.5548 15.0103C25.5337 14.9906 25.5059 14.9797 25.477 14.98H25.476ZM26.039 14.98C26.0242 14.9801 26.0096 14.9832 25.996 14.989C25.9824 14.9948 25.9701 15.0033 25.9597 15.0139C25.9494 15.0245 25.9413 15.037 25.9359 15.0508C25.9304 15.0645 25.9277 15.0792 25.928 15.094C25.928 15.155 25.978 15.207 26.039 15.207C26.0545 15.2069 26.0698 15.2036 26.084 15.1974C26.0982 15.1912 26.111 15.1821 26.1215 15.1708C26.1321 15.1595 26.1403 15.1461 26.1455 15.1315C26.1507 15.117 26.153 15.1015 26.152 15.086C26.1505 15.0572 26.1378 15.0301 26.1168 15.0103C26.0957 14.9906 26.0679 14.9797 26.039 14.98ZM26.602 14.98C26.5871 14.98 26.5724 14.983 26.5587 14.9887C26.545 14.9945 26.5325 15.0029 26.5221 15.0135C26.5117 15.0241 26.5035 15.0367 26.4979 15.0505C26.4924 15.0643 26.4897 15.0791 26.49 15.094C26.49 15.155 26.54 15.207 26.602 15.207C26.6175 15.2069 26.6328 15.2036 26.647 15.1974C26.6612 15.1912 26.674 15.1821 26.6845 15.1708C26.6951 15.1595 26.7033 15.1461 26.7085 15.1315C26.7137 15.117 26.716 15.1015 26.715 15.086C26.7135 15.0572 26.7008 15.0301 26.6798 15.0103C26.6587 14.9906 26.6309 14.9797 26.602 14.98ZM27.164 14.98C27.1492 14.9801 27.1346 14.9832 27.121 14.989C27.1074 14.9948 27.0951 15.0033 27.0847 15.0139C27.0744 15.0245 27.0663 15.037 27.0609 15.0508C27.0554 15.0645 27.0527 15.0792 27.053 15.094C27.053 15.155 27.103 15.206 27.164 15.207C27.226 15.207 27.277 15.157 27.277 15.094C27.2773 15.079 27.2745 15.0642 27.269 15.0503C27.2634 15.0364 27.2551 15.0238 27.2446 15.0131C27.234 15.0025 27.2215 14.9941 27.2076 14.9884C27.1938 14.9827 27.179 14.9799 27.164 14.98ZM27.727 14.98C27.7121 14.98 27.6974 14.983 27.6837 14.9887C27.67 14.9945 27.6575 15.0029 27.6471 15.0135C27.6367 15.0241 27.6285 15.0367 27.6229 15.0505C27.6174 15.0643 27.6147 15.0791 27.615 15.094C27.615 15.155 27.665 15.207 27.727 15.207C27.787 15.207 27.837 15.155 27.837 15.094C27.839 15.086 27.839 15.082 27.837 15.074C27.8331 15.0477 27.8199 15.0237 27.7996 15.0064C27.7794 14.9891 27.7536 14.9797 27.727 14.98ZM28.289 14.98C28.274 14.9799 28.2592 14.9827 28.2454 14.9884C28.2315 14.9941 28.219 15.0025 28.2084 15.0131C28.1979 15.0238 28.1896 15.0364 28.184 15.0503C28.1785 15.0642 28.1757 15.079 28.176 15.094C28.176 15.156 28.227 15.208 28.289 15.207C28.3043 15.2066 28.3194 15.2032 28.3334 15.1968C28.3473 15.1905 28.3599 15.1814 28.3702 15.1701C28.3806 15.1588 28.3886 15.1455 28.3937 15.1311C28.3988 15.1166 28.4009 15.1013 28.4 15.086C28.3985 15.0577 28.3863 15.031 28.3659 15.0113C28.3455 14.9917 28.3183 14.9805 28.29 14.98H28.289ZM28.852 14.98C28.837 14.9797 28.822 14.9825 28.8081 14.9881C28.7941 14.9938 28.7814 15.0021 28.7708 15.0128C28.7601 15.0234 28.7518 15.0361 28.7461 15.0501C28.7405 15.064 28.7377 15.079 28.738 15.094C28.738 15.156 28.79 15.208 28.852 15.207C28.8672 15.2065 28.8822 15.2029 28.8961 15.1965C28.9099 15.1901 28.9223 15.181 28.9326 15.1697C28.9428 15.1585 28.9507 15.1452 28.9558 15.1309C28.9608 15.1165 28.9629 15.1012 28.962 15.086C28.9605 15.0577 28.9483 15.031 28.9279 15.0113C28.9075 14.9917 28.8803 14.9805 28.852 14.98ZM29.414 14.98C29.399 14.9799 29.3842 14.9827 29.3704 14.9884C29.3565 14.9941 29.344 15.0025 29.3334 15.0131C29.3229 15.0238 29.3146 15.0364 29.309 15.0503C29.3035 15.0642 29.3007 15.079 29.301 15.094C29.301 15.156 29.352 15.208 29.414 15.207C29.4293 15.2066 29.4444 15.2032 29.4584 15.1968C29.4723 15.1905 29.4849 15.1814 29.4952 15.1701C29.5056 15.1588 29.5136 15.1455 29.5187 15.1311C29.5238 15.1166 29.5259 15.1013 29.525 15.086C29.5235 15.0577 29.5113 15.031 29.4909 15.0113C29.4705 14.9917 29.4433 14.9805 29.415 14.98H29.414ZM29.974 14.98C29.9593 14.9803 29.9448 14.9834 29.9313 14.9893C29.9178 14.9952 29.9056 15.0036 29.8954 15.0142C29.8852 15.0248 29.8771 15.0373 29.8718 15.051C29.8664 15.0647 29.8637 15.0793 29.864 15.094C29.864 15.155 29.913 15.207 29.974 15.207C29.9896 15.207 30.005 15.2039 30.0193 15.1977C30.0336 15.1915 30.0465 15.1825 30.0572 15.1712C30.0679 15.1598 30.0761 15.1464 30.0814 15.1318C30.0867 15.1171 30.089 15.1015 30.088 15.086C30.0865 15.0572 30.0738 15.0301 30.0528 15.0103C30.0317 14.9906 30.0039 14.9797 29.975 14.98H29.974ZM30.537 14.98C30.5222 14.9801 30.5076 14.9832 30.494 14.989C30.4804 14.9948 30.4681 15.0033 30.4577 15.0139C30.4474 15.0245 30.4393 15.037 30.4339 15.0508C30.4284 15.0645 30.4257 15.0792 30.426 15.094C30.426 15.155 30.476 15.207 30.537 15.207C30.5525 15.2069 30.5678 15.2036 30.582 15.1974C30.5962 15.1912 30.609 15.1821 30.6195 15.1708C30.6301 15.1595 30.6383 15.1461 30.6435 15.1315C30.6487 15.117 30.651 15.1015 30.65 15.086C30.6485 15.0572 30.6358 15.0301 30.6148 15.0103C30.5937 14.9906 30.5659 14.9797 30.537 14.98ZM31.1 14.98C31.0851 14.98 31.0704 14.983 31.0567 14.9887C31.043 14.9945 31.0305 15.0029 31.0201 15.0135C31.0097 15.0241 31.0015 15.0367 30.9959 15.0505C30.9904 15.0643 30.9877 15.0791 30.988 15.094C30.988 15.155 31.038 15.207 31.1 15.207C31.1155 15.2069 31.1308 15.2036 31.145 15.1974C31.1592 15.1912 31.172 15.1821 31.1825 15.1708C31.1931 15.1595 31.2013 15.1461 31.2065 15.1315C31.2117 15.117 31.214 15.1015 31.213 15.086C31.2115 15.0572 31.1988 15.0301 31.1778 15.0103C31.1567 14.9906 31.1289 14.9797 31.1 14.98ZM31.662 14.98C31.6472 14.9801 31.6326 14.9832 31.619 14.989C31.6054 14.9948 31.5931 15.0033 31.5827 15.0139C31.5724 15.0245 31.5643 15.037 31.5589 15.0508C31.5534 15.0645 31.5507 15.0792 31.551 15.094C31.551 15.155 31.601 15.207 31.662 15.207C31.723 15.207 31.772 15.155 31.773 15.094V15.074C31.7691 15.0477 31.7559 15.0237 31.7356 15.0064C31.7154 14.9891 31.6896 14.9797 31.663 14.98H31.662ZM32.225 14.98C32.21 14.9797 32.195 14.9825 32.1811 14.9881C32.1671 14.9938 32.1544 15.0021 32.1438 15.0128C32.1331 15.0234 32.1248 15.0361 32.1191 15.0501C32.1135 15.064 32.1107 15.079 32.111 15.094C32.111 15.156 32.163 15.208 32.225 15.207C32.285 15.207 32.335 15.155 32.335 15.094C32.337 15.086 32.337 15.082 32.335 15.074C32.3311 15.0477 32.3179 15.0237 32.2976 15.0064C32.2774 14.9891 32.2516 14.9797 32.225 14.98ZM32.787 14.98C32.772 14.9799 32.7572 14.9827 32.7434 14.9884C32.7295 14.9941 32.717 15.0025 32.7064 15.0131C32.6959 15.0238 32.6876 15.0364 32.682 15.0503C32.6765 15.0642 32.6737 15.079 32.674 15.094C32.674 15.156 32.725 15.208 32.787 15.207C32.8023 15.2066 32.8174 15.2032 32.8314 15.1968C32.8453 15.1905 32.8579 15.1814 32.8682 15.1701C32.8786 15.1588 32.8866 15.1455 32.8917 15.1311C32.8968 15.1166 32.8989 15.1013 32.898 15.086C32.8965 15.0577 32.8843 15.031 32.8639 15.0113C32.8435 14.9917 32.8163 14.9805 32.788 14.98H32.787ZM33.35 14.98C33.335 14.9797 33.32 14.9825 33.3061 14.9881C33.2921 14.9938 33.2794 15.0021 33.2688 15.0128C33.2581 15.0234 33.2498 15.0361 33.2441 15.0501C33.2385 15.064 33.2357 15.079 33.236 15.094C33.236 15.156 33.288 15.208 33.35 15.207C33.3652 15.2065 33.3802 15.2029 33.3941 15.1965C33.4079 15.1901 33.4203 15.181 33.4306 15.1697C33.4408 15.1585 33.4487 15.1452 33.4538 15.1309C33.4588 15.1165 33.4609 15.1012 33.46 15.086C33.4585 15.0577 33.4463 15.031 33.4259 15.0113C33.4055 14.9917 33.3783 14.9805 33.35 14.98ZM33.912 14.98C33.897 14.9799 33.8822 14.9827 33.8684 14.9884C33.8545 14.9941 33.842 15.0025 33.8314 15.0131C33.8209 15.0238 33.8126 15.0364 33.807 15.0503C33.8015 15.0642 33.7987 15.079 33.799 15.094C33.799 15.156 33.85 15.208 33.912 15.207C33.9273 15.2066 33.9424 15.2032 33.9564 15.1968C33.9703 15.1905 33.9829 15.1814 33.9932 15.1701C34.0036 15.1588 34.0116 15.1455 34.0167 15.1311C34.0218 15.1166 34.0239 15.1013 34.023 15.086C34.0215 15.0577 34.0093 15.031 33.9889 15.0113C33.9685 14.9917 33.9413 14.9805 33.913 14.98H33.912ZM34.472 14.98C34.4573 14.9803 34.4428 14.9834 34.4293 14.9893C34.4158 14.9952 34.4036 15.0036 34.3934 15.0142C34.3832 15.0248 34.3751 15.0373 34.3698 15.051C34.3644 15.0647 34.3617 15.0793 34.362 15.094C34.362 15.155 34.411 15.207 34.472 15.207C34.4876 15.207 34.503 15.2039 34.5173 15.1977C34.5316 15.1915 34.5445 15.1825 34.5552 15.1712C34.5659 15.1598 34.5741 15.1464 34.5794 15.1318C34.5847 15.1171 34.587 15.1015 34.586 15.086C34.5845 15.0572 34.5718 15.0301 34.5508 15.0103C34.5297 14.9906 34.5019 14.9797 34.473 14.98H34.472ZM16.965 17.88L16.963 17.883C16.8384 17.8849 16.7154 17.9114 16.6011 17.961C16.4868 18.0106 16.3835 18.0823 16.297 18.172L14.488 20.029C14.4011 20.1183 14.3328 20.2238 14.2868 20.3396C14.2409 20.4553 14.2183 20.579 14.2204 20.7036C14.2224 20.8281 14.2491 20.951 14.2988 21.0652C14.3485 21.1794 14.4203 21.2826 14.51 21.369C14.599 21.4562 14.7044 21.525 14.8201 21.5712C14.9358 21.6175 15.0596 21.6403 15.1842 21.6385C15.3088 21.6366 15.4318 21.6101 15.5461 21.5604C15.6603 21.5107 15.7636 21.4389 15.85 21.349L17.658 19.49C17.745 19.4009 17.8135 19.2954 17.8596 19.1797C17.9057 19.064 17.9285 18.9404 17.9266 18.8158C17.9248 18.6913 17.8983 18.5684 17.8488 18.4541C17.7992 18.3398 17.7276 18.2365 17.638 18.15C17.5491 18.0629 17.4439 17.9943 17.3284 17.948C17.2129 17.9016 17.0894 17.8785 16.965 17.88ZM24.963 17.88V17.883C24.8384 17.8849 24.7154 17.9114 24.6011 17.961C24.4868 18.0106 24.3835 18.0823 24.297 18.172L22.488 20.029C22.4011 20.1183 22.3328 20.2238 22.2868 20.3396C22.2409 20.4553 22.2183 20.579 22.2204 20.7036C22.2224 20.8281 22.2491 20.951 22.2988 21.0652C22.3485 21.1794 22.4203 21.2826 22.51 21.369C22.599 21.4562 22.7044 21.525 22.8201 21.5712C22.9358 21.6175 23.0596 21.6403 23.1842 21.6385C23.3088 21.6366 23.4318 21.6101 23.5461 21.5604C23.6603 21.5107 23.7636 21.4389 23.85 21.349L25.658 19.49C25.7449 19.4008 25.8134 19.2953 25.8594 19.1796C25.9054 19.0638 25.9281 18.9402 25.9261 18.8156C25.9242 18.6911 25.8976 18.5682 25.848 18.454C25.7984 18.3397 25.7267 18.2364 25.637 18.15C25.548 18.0628 25.4426 17.994 25.327 17.9477C25.2113 17.9013 25.0876 17.8783 24.963 17.88ZM28.963 17.88V17.883C28.8384 17.8849 28.7154 17.9114 28.6011 17.961C28.4868 18.0106 28.3835 18.0823 28.297 18.172L26.488 20.029C26.4011 20.1183 26.3328 20.2238 26.2868 20.3396C26.2409 20.4553 26.2183 20.579 26.2204 20.7036C26.2224 20.8281 26.2491 20.951 26.2988 21.0652C26.3485 21.1794 26.4203 21.2826 26.51 21.369C26.599 21.4562 26.7044 21.525 26.8201 21.5712C26.9358 21.6175 27.0596 21.6403 27.1842 21.6385C27.3088 21.6366 27.4318 21.6101 27.5461 21.5604C27.6603 21.5107 27.7636 21.4389 27.85 21.349L29.658 19.49C29.7449 19.4008 29.8134 19.2953 29.8594 19.1796C29.9054 19.0638 29.9281 18.9402 29.9261 18.8156C29.9242 18.6911 29.8976 18.5682 29.848 18.454C29.7984 18.3397 29.7267 18.2364 29.637 18.15C29.548 18.0628 29.4426 17.994 29.327 17.9477C29.2113 17.9013 29.0876 17.8783 28.963 17.88ZM32.963 17.88V17.883C32.8384 17.8849 32.7154 17.9114 32.6011 17.961C32.4868 18.0106 32.3835 18.0823 32.297 18.172L30.488 20.029C30.4011 20.1183 30.3328 20.2238 30.2868 20.3396C30.2409 20.4553 30.2183 20.579 30.2204 20.7036C30.2224 20.8281 30.2491 20.951 30.2988 21.0652C30.3485 21.1794 30.4203 21.2826 30.51 21.369C30.599 21.4562 30.7044 21.525 30.8201 21.5712C30.9358 21.6175 31.0596 21.6403 31.1842 21.6385C31.3088 21.6366 31.4318 21.6101 31.5461 21.5604C31.6603 21.5107 31.7636 21.4389 31.85 21.349L33.658 19.49C33.7449 19.4008 33.8134 19.2953 33.8594 19.1796C33.9054 19.0638 33.9281 18.9402 33.9261 18.8156C33.9242 18.6911 33.8976 18.5682 33.848 18.454C33.7984 18.3397 33.7267 18.2364 33.637 18.15C33.548 18.0628 33.4426 17.994 33.327 17.9477C33.2113 17.9013 33.0876 17.8783 32.963 17.88ZM20.963 17.883C20.8384 17.8849 20.7154 17.9114 20.6011 17.961C20.4868 18.0106 20.3835 18.0823 20.297 18.172L18.488 20.029C18.4011 20.1183 18.3328 20.2238 18.2868 20.3396C18.2409 20.4553 18.2183 20.579 18.2204 20.7036C18.2224 20.8281 18.2491 20.951 18.2988 21.0652C18.3485 21.1794 18.4203 21.2826 18.51 21.369C18.599 21.4562 18.7044 21.525 18.8201 21.5712C18.9358 21.6175 19.0596 21.6403 19.1842 21.6385C19.3088 21.6366 19.4318 21.6101 19.5461 21.5604C19.6603 21.5107 19.7636 21.4389 19.85 21.349L21.658 19.492C21.7449 19.4028 21.8134 19.2973 21.8594 19.1816C21.9054 19.0658 21.9281 18.9422 21.9261 18.8176C21.9242 18.6931 21.8976 18.5702 21.848 18.456C21.7984 18.3417 21.7267 18.2384 21.637 18.152C21.548 18.0648 21.4426 17.996 21.327 17.9497C21.2113 17.9033 21.0876 17.8803 20.963 17.882V17.883ZM13.67 23.981C13.6553 23.9811 13.6408 23.9842 13.6272 23.9899C13.6137 23.9957 13.6014 24.004 13.5911 24.0145C13.5808 24.025 13.5726 24.0374 13.5671 24.0511C13.5616 24.0647 13.5589 24.0793 13.559 24.094C13.559 24.155 13.609 24.206 13.669 24.207C13.732 24.207 13.782 24.157 13.783 24.094C13.7833 24.079 13.7805 24.0642 13.775 24.0503C13.7694 24.0364 13.7611 24.0238 13.7506 24.0131C13.74 24.0025 13.7275 23.9941 13.7136 23.9884C13.6998 23.9827 13.685 23.9799 13.67 23.98V23.981ZM14.232 23.981C14.2021 23.9813 14.1735 23.9932 14.1524 24.0144C14.1313 24.0355 14.1193 24.0641 14.119 24.094C14.119 24.155 14.171 24.207 14.232 24.207C14.294 24.207 14.343 24.155 14.344 24.094V24.074C14.3401 24.0473 14.3265 24.023 14.3059 24.0057C14.2852 23.9884 14.2589 23.9792 14.232 23.98V23.981ZM14.795 23.981C14.7801 23.9809 14.7654 23.9837 14.7516 23.9893C14.7378 23.995 14.7253 24.0033 14.7148 24.0138C14.7043 24.0243 14.696 24.0368 14.6903 24.0506C14.6847 24.0644 14.6819 24.0791 14.682 24.094C14.682 24.156 14.732 24.208 14.795 24.207C14.856 24.207 14.905 24.155 14.906 24.094V24.074C14.9021 24.0475 14.8887 24.0233 14.8683 24.006C14.8478 23.9887 14.8218 23.9795 14.795 23.98V23.981ZM15.357 23.981C15.3421 23.9809 15.3274 23.9837 15.3136 23.9893C15.2998 23.995 15.2873 24.0033 15.2768 24.0138C15.2663 24.0243 15.258 24.0368 15.2523 24.0506C15.2467 24.0644 15.2439 24.0791 15.244 24.094C15.244 24.156 15.295 24.208 15.357 24.207C15.3724 24.2068 15.3876 24.2034 15.4017 24.1971C15.4158 24.1908 15.4284 24.1818 15.4389 24.1705C15.4493 24.1591 15.4574 24.1458 15.4626 24.1313C15.4678 24.1168 15.4699 24.1014 15.469 24.086C15.4672 24.0575 15.4546 24.0308 15.4338 24.0113C15.413 23.9918 15.3855 23.9809 15.357 23.981ZM15.92 23.981C15.9051 23.9809 15.8904 23.9837 15.8766 23.9893C15.8628 23.995 15.8503 24.0033 15.8398 24.0138C15.8293 24.0243 15.821 24.0368 15.8153 24.0506C15.8097 24.0644 15.8069 24.0791 15.807 24.094C15.807 24.156 15.857 24.208 15.92 24.207C15.9353 24.2066 15.9504 24.2032 15.9644 24.1968C15.9783 24.1905 15.9909 24.1814 16.0012 24.1701C16.0116 24.1588 16.0196 24.1455 16.0247 24.1311C16.0298 24.1166 16.0319 24.1013 16.031 24.086C16.0292 24.0577 16.0168 24.0311 15.9962 24.0116C15.9756 23.9921 15.9484 23.9812 15.92 23.981ZM16.482 23.981C16.4671 23.9809 16.4524 23.9837 16.4386 23.9893C16.4248 23.995 16.4123 24.0033 16.4018 24.0138C16.3913 24.0243 16.383 24.0368 16.3773 24.0506C16.3717 24.0644 16.3689 24.0791 16.369 24.094C16.369 24.156 16.42 24.208 16.482 24.207C16.4974 24.2068 16.5126 24.2034 16.5267 24.1971C16.5408 24.1908 16.5534 24.1818 16.5639 24.1705C16.5743 24.1591 16.5824 24.1458 16.5876 24.1313C16.5928 24.1168 16.5949 24.1014 16.594 24.086C16.5922 24.0575 16.5796 24.0308 16.5588 24.0113C16.538 23.9918 16.5105 23.9809 16.482 23.981ZM17.043 23.981C17.0283 23.9811 17.0138 23.9842 17.0002 23.9899C16.9867 23.9957 16.9744 24.004 16.9641 24.0145C16.9538 24.025 16.9456 24.0374 16.9401 24.0511C16.9346 24.0647 16.9319 24.0793 16.932 24.094C16.932 24.155 16.982 24.207 17.043 24.207C17.0585 24.2069 17.0738 24.2036 17.088 24.1974C17.1022 24.1912 17.115 24.1821 17.1255 24.1708C17.1361 24.1595 17.1443 24.1461 17.1495 24.1315C17.1547 24.117 17.157 24.1015 17.156 24.086C17.1542 24.0574 17.1415 24.0305 17.1205 24.0109C17.0994 23.9914 17.0717 23.9807 17.043 23.981ZM17.606 23.981C17.5912 23.981 17.5766 23.9839 17.5629 23.9896C17.5493 23.9953 17.5369 24.0037 17.5264 24.0142C17.516 24.0247 17.5078 24.0371 17.5022 24.0508C17.4967 24.0645 17.4939 24.0792 17.494 24.094C17.494 24.155 17.544 24.207 17.605 24.207C17.6206 24.207 17.636 24.2039 17.6503 24.1977C17.6646 24.1915 17.6775 24.1825 17.6882 24.1712C17.6989 24.1598 17.7071 24.1464 17.7124 24.1318C17.7177 24.1171 17.72 24.1015 17.719 24.086C17.7172 24.0572 17.7043 24.0302 17.6831 24.0106C17.6619 23.991 17.6339 23.9804 17.605 23.981H17.606ZM18.168 23.981C18.1533 23.9811 18.1388 23.9842 18.1252 23.9899C18.1117 23.9957 18.0994 24.004 18.0891 24.0145C18.0788 24.025 18.0706 24.0374 18.0651 24.0511C18.0596 24.0647 18.0569 24.0793 18.057 24.094C18.057 24.155 18.107 24.207 18.168 24.207C18.1835 24.2069 18.1988 24.2036 18.213 24.1974C18.2272 24.1912 18.24 24.1821 18.2505 24.1708C18.2611 24.1595 18.2693 24.1461 18.2745 24.1315C18.2797 24.117 18.282 24.1015 18.281 24.086C18.2792 24.0574 18.2665 24.0305 18.2455 24.0109C18.2244 23.9914 18.1967 23.9807 18.168 23.981ZM18.731 23.981C18.7162 23.981 18.7016 23.9839 18.6879 23.9896C18.6743 23.9953 18.6619 24.0037 18.6514 24.0142C18.641 24.0247 18.6328 24.0371 18.6272 24.0508C18.6217 24.0645 18.6189 24.0792 18.619 24.094C18.619 24.155 18.669 24.207 18.73 24.207C18.792 24.207 18.841 24.155 18.842 24.094V24.074C18.8381 24.0475 18.8247 24.0233 18.8043 24.006C18.7838 23.9887 18.7578 23.9795 18.731 23.98V23.981ZM19.293 23.981C19.2781 23.9809 19.2634 23.9837 19.2496 23.9893C19.2358 23.995 19.2233 24.0033 19.2128 24.0138C19.2023 24.0243 19.194 24.0368 19.1883 24.0506C19.1827 24.0644 19.1799 24.0791 19.18 24.094C19.18 24.156 19.231 24.208 19.293 24.207C19.3083 24.2066 19.3234 24.2032 19.3374 24.1968C19.3513 24.1905 19.3639 24.1814 19.3742 24.1701C19.3846 24.1588 19.3926 24.1455 19.3977 24.1311C19.4028 24.1166 19.4049 24.1013 19.404 24.086C19.4022 24.0577 19.3898 24.0311 19.3692 24.0116C19.3486 23.9921 19.3214 23.9812 19.293 23.981ZM19.856 23.981C19.841 23.9807 19.8262 23.9835 19.8123 23.989C19.7984 23.9946 19.7858 24.0029 19.7751 24.0134C19.7645 24.024 19.7561 24.0365 19.7504 24.0504C19.7447 24.0642 19.7419 24.079 19.742 24.094C19.742 24.156 19.794 24.208 19.855 24.207C19.8704 24.2068 19.8856 24.2034 19.8997 24.1971C19.9138 24.1908 19.9264 24.1818 19.9369 24.1705C19.9473 24.1591 19.9554 24.1458 19.9606 24.1313C19.9658 24.1168 19.9679 24.1014 19.967 24.086C19.9652 24.0577 19.9528 24.0311 19.9322 24.0116C19.9116 23.9921 19.8844 23.9812 19.856 23.981ZM20.418 23.981C20.4031 23.9809 20.3884 23.9837 20.3746 23.9893C20.3608 23.995 20.3483 24.0033 20.3378 24.0138C20.3273 24.0243 20.319 24.0368 20.3133 24.0506C20.3077 24.0644 20.3049 24.0791 20.305 24.094C20.305 24.156 20.356 24.208 20.418 24.207C20.4333 24.2066 20.4484 24.2032 20.4624 24.1968C20.4763 24.1905 20.4889 24.1814 20.4992 24.1701C20.5096 24.1588 20.5176 24.1455 20.5227 24.1311C20.5278 24.1166 20.5299 24.1013 20.529 24.086C20.5272 24.0577 20.5148 24.0311 20.4942 24.0116C20.4736 23.9921 20.4464 23.9812 20.418 23.981ZM20.981 23.981C20.966 23.9807 20.9512 23.9835 20.9373 23.989C20.9234 23.9946 20.9108 24.0029 20.9001 24.0134C20.8895 24.024 20.8811 24.0365 20.8754 24.0504C20.8697 24.0642 20.8669 24.079 20.867 24.094C20.867 24.156 20.919 24.208 20.98 24.207C20.9954 24.2068 21.0106 24.2034 21.0247 24.1971C21.0388 24.1908 21.0514 24.1818 21.0619 24.1705C21.0723 24.1591 21.0804 24.1458 21.0856 24.1313C21.0908 24.1168 21.0929 24.1014 21.092 24.086C21.0902 24.0577 21.0778 24.0311 21.0572 24.0116C21.0366 23.9921 21.0094 23.9812 20.981 23.981ZM21.541 23.981C21.5263 23.9811 21.5118 23.9842 21.4982 23.9899C21.4847 23.9957 21.4724 24.004 21.4621 24.0145C21.4518 24.025 21.4436 24.0374 21.4381 24.0511C21.4326 24.0647 21.4299 24.0793 21.43 24.094C21.43 24.155 21.48 24.207 21.541 24.207C21.5565 24.2069 21.5718 24.2036 21.586 24.1974C21.6002 24.1912 21.613 24.1821 21.6235 24.1708C21.6341 24.1595 21.6423 24.1461 21.6475 24.1315C21.6527 24.117 21.655 24.1015 21.654 24.086C21.6522 24.0574 21.6395 24.0305 21.6185 24.0109C21.5974 23.9914 21.5697 23.9807 21.541 23.981ZM22.104 23.981C22.0892 23.981 22.0746 23.9839 22.0609 23.9896C22.0473 23.9953 22.0349 24.0037 22.0244 24.0142C22.014 24.0247 22.0058 24.0371 22.0002 24.0508C21.9947 24.0645 21.9919 24.0792 21.992 24.094C21.992 24.155 22.042 24.207 22.103 24.207C22.1186 24.207 22.134 24.2039 22.1483 24.1977C22.1626 24.1915 22.1755 24.1825 22.1862 24.1712C22.1969 24.1598 22.2051 24.1464 22.2104 24.1318C22.2157 24.1171 22.218 24.1015 22.217 24.086C22.2152 24.0574 22.2025 24.0305 22.1815 24.0109C22.1604 23.9914 22.1327 23.9807 22.104 23.981ZM22.666 23.981C22.6513 23.9811 22.6368 23.9842 22.6232 23.9899C22.6097 23.9957 22.5974 24.004 22.5871 24.0145C22.5768 24.025 22.5686 24.0374 22.5631 24.0511C22.5576 24.0647 22.5549 24.0793 22.555 24.094C22.555 24.155 22.605 24.206 22.666 24.207C22.728 24.207 22.779 24.157 22.779 24.094C22.7793 24.079 22.7765 24.0642 22.771 24.0503C22.7654 24.0364 22.7571 24.0238 22.7466 24.0131C22.736 24.0025 22.7235 23.9941 22.7096 23.9884C22.6958 23.9827 22.681 23.9799 22.666 23.98V23.981ZM23.229 23.981C23.2142 23.981 23.1996 23.9839 23.1859 23.9896C23.1723 23.9953 23.1599 24.0037 23.1494 24.0142C23.139 24.0247 23.1308 24.0371 23.1252 24.0508C23.1197 24.0645 23.1169 24.0792 23.117 24.094C23.117 24.155 23.167 24.207 23.228 24.207C23.2577 24.2065 23.2861 24.1944 23.307 24.1733C23.3279 24.1522 23.3397 24.1237 23.34 24.094V24.074C23.3359 24.0476 23.3224 24.0236 23.302 24.0063C23.2817 23.989 23.2557 23.9797 23.229 23.98V23.981ZM23.791 23.981C23.7761 23.9809 23.7614 23.9837 23.7476 23.9893C23.7338 23.995 23.7213 24.0033 23.7108 24.0138C23.7003 24.0243 23.692 24.0368 23.6863 24.0506C23.6807 24.0644 23.6779 24.0791 23.678 24.094C23.678 24.156 23.729 24.208 23.791 24.207C23.852 24.207 23.901 24.155 23.902 24.094V24.074C23.8981 24.0475 23.8847 24.0233 23.8643 24.006C23.8438 23.9887 23.8178 23.9795 23.791 23.98V23.981ZM24.354 23.981C24.339 23.9807 24.3242 23.9835 24.3103 23.989C24.2964 23.9946 24.2838 24.0029 24.2731 24.0134C24.2625 24.024 24.2541 24.0365 24.2484 24.0504C24.2427 24.0642 24.2399 24.079 24.24 24.094C24.24 24.156 24.292 24.208 24.354 24.207C24.3692 24.2065 24.3842 24.2029 24.3981 24.1965C24.4119 24.1901 24.4243 24.181 24.4346 24.1697C24.4448 24.1585 24.4527 24.1452 24.4578 24.1309C24.4628 24.1165 24.4649 24.1012 24.464 24.086C24.4622 24.0579 24.4499 24.0314 24.4296 24.012C24.4092 23.9925 24.3822 23.9814 24.354 23.981ZM24.916 23.981C24.9011 23.9809 24.8864 23.9837 24.8726 23.9893C24.8588 23.995 24.8463 24.0033 24.8358 24.0138C24.8253 24.0243 24.817 24.0368 24.8113 24.0506C24.8057 24.0644 24.8029 24.0791 24.803 24.094C24.803 24.156 24.854 24.208 24.916 24.207C24.9313 24.2066 24.9464 24.2032 24.9604 24.1968C24.9743 24.1905 24.9869 24.1814 24.9972 24.1701C25.0076 24.1588 25.0156 24.1455 25.0207 24.1311C25.0258 24.1166 25.0279 24.1013 25.027 24.086C25.0252 24.0577 25.0128 24.0311 24.9922 24.0116C24.9716 23.9921 24.9444 23.9812 24.916 23.981ZM25.476 23.981C25.4465 23.9815 25.4183 23.9937 25.3977 24.0149C25.3771 24.036 25.3657 24.0645 25.366 24.094C25.366 24.155 25.416 24.207 25.476 24.207C25.4916 24.207 25.507 24.2039 25.5213 24.1977C25.5356 24.1915 25.5485 24.1825 25.5592 24.1712C25.5699 24.1598 25.5781 24.1464 25.5834 24.1318C25.5887 24.1171 25.591 24.1015 25.59 24.086C25.5882 24.0574 25.5755 24.0305 25.5545 24.0109C25.5334 23.9914 25.5057 23.9807 25.477 23.981H25.476ZM26.039 23.981C26.0243 23.9811 26.0098 23.9842 25.9962 23.9899C25.9827 23.9957 25.9704 24.004 25.9601 24.0145C25.9498 24.025 25.9416 24.0374 25.9361 24.0511C25.9306 24.0647 25.9279 24.0793 25.928 24.094C25.928 24.155 25.978 24.207 26.039 24.207C26.0545 24.2069 26.0698 24.2036 26.084 24.1974C26.0982 24.1912 26.111 24.1821 26.1215 24.1708C26.1321 24.1595 26.1403 24.1461 26.1455 24.1315C26.1507 24.117 26.153 24.1015 26.152 24.086C26.1502 24.0574 26.1375 24.0305 26.1165 24.0109C26.0954 23.9914 26.0677 23.9807 26.039 23.981ZM26.602 23.981C26.5872 23.981 26.5726 23.9839 26.5589 23.9896C26.5453 23.9953 26.5329 24.0037 26.5224 24.0142C26.512 24.0247 26.5038 24.0371 26.4982 24.0508C26.4927 24.0645 26.4899 24.0792 26.49 24.094C26.49 24.155 26.54 24.207 26.602 24.207C26.6175 24.2069 26.6328 24.2036 26.647 24.1974C26.6612 24.1912 26.674 24.1821 26.6845 24.1708C26.6951 24.1595 26.7033 24.1461 26.7085 24.1315C26.7137 24.117 26.716 24.1015 26.715 24.086C26.7132 24.0574 26.7005 24.0305 26.6795 24.0109C26.6584 23.9914 26.6307 23.9807 26.602 23.981ZM27.164 23.981C27.1493 23.9811 27.1348 23.9842 27.1212 23.9899C27.1077 23.9957 27.0954 24.004 27.0851 24.0145C27.0748 24.025 27.0666 24.0374 27.0611 24.0511C27.0556 24.0647 27.0529 24.0793 27.053 24.094C27.053 24.155 27.103 24.206 27.164 24.207C27.226 24.207 27.277 24.157 27.277 24.094C27.2773 24.079 27.2745 24.0642 27.269 24.0503C27.2634 24.0364 27.2551 24.0238 27.2446 24.0131C27.234 24.0025 27.2215 23.9941 27.2076 23.9884C27.1938 23.9827 27.179 23.9799 27.164 23.98V23.981ZM27.727 23.981C27.7122 23.981 27.6976 23.9839 27.6839 23.9896C27.6703 23.9953 27.6579 24.0037 27.6474 24.0142C27.637 24.0247 27.6288 24.0371 27.6232 24.0508C27.6177 24.0645 27.6149 24.0792 27.615 24.094C27.615 24.155 27.665 24.207 27.727 24.207C27.787 24.207 27.837 24.155 27.837 24.094C27.839 24.086 27.839 24.082 27.837 24.074C27.8331 24.0477 27.8199 24.0237 27.7996 24.0064C27.7794 23.9891 27.7536 23.9797 27.727 23.98V23.981ZM28.289 23.981C28.2741 23.9809 28.2594 23.9837 28.2456 23.9893C28.2318 23.995 28.2193 24.0033 28.2088 24.0138C28.1983 24.0243 28.19 24.0368 28.1843 24.0506C28.1787 24.0644 28.1759 24.0791 28.176 24.094C28.176 24.156 28.227 24.208 28.289 24.207C28.3043 24.2066 28.3194 24.2032 28.3334 24.1968C28.3473 24.1905 28.3599 24.1814 28.3702 24.1701C28.3806 24.1588 28.3886 24.1455 28.3937 24.1311C28.3988 24.1166 28.4009 24.1013 28.4 24.086C28.3982 24.0579 28.3859 24.0314 28.3656 24.012C28.3452 23.9925 28.3182 23.9814 28.29 23.981H28.289ZM28.852 23.981C28.837 23.9807 28.8222 23.9835 28.8083 23.989C28.7944 23.9946 28.7818 24.0029 28.7711 24.0134C28.7605 24.024 28.7521 24.0365 28.7464 24.0504C28.7407 24.0642 28.7379 24.079 28.738 24.094C28.738 24.156 28.79 24.208 28.852 24.207C28.8672 24.2065 28.8822 24.2029 28.8961 24.1965C28.9099 24.1901 28.9223 24.181 28.9326 24.1697C28.9428 24.1585 28.9507 24.1452 28.9558 24.1309C28.9608 24.1165 28.9629 24.1012 28.962 24.086C28.9602 24.0579 28.9479 24.0314 28.9276 24.012C28.9072 23.9925 28.8802 23.9814 28.852 23.981ZM29.414 23.981C29.3991 23.9809 29.3844 23.9837 29.3706 23.9893C29.3568 23.995 29.3443 24.0033 29.3338 24.0138C29.3233 24.0243 29.315 24.0368 29.3093 24.0506C29.3037 24.0644 29.3009 24.0791 29.301 24.094C29.301 24.156 29.352 24.208 29.414 24.207C29.4293 24.2066 29.4444 24.2032 29.4584 24.1968C29.4723 24.1905 29.4849 24.1814 29.4952 24.1701C29.5056 24.1588 29.5136 24.1455 29.5187 24.1311C29.5238 24.1166 29.5259 24.1013 29.525 24.086C29.5232 24.0579 29.5109 24.0314 29.4906 24.012C29.4702 23.9925 29.4432 23.9814 29.415 23.981H29.414ZM29.974 23.981C29.9445 23.9815 29.9163 23.9937 29.8957 24.0149C29.8751 24.036 29.8637 24.0645 29.864 24.094C29.864 24.155 29.913 24.207 29.974 24.207C29.9896 24.207 30.005 24.2039 30.0193 24.1977C30.0336 24.1915 30.0465 24.1825 30.0572 24.1712C30.0679 24.1598 30.0761 24.1464 30.0814 24.1318C30.0867 24.1171 30.089 24.1015 30.088 24.086C30.0862 24.0574 30.0735 24.0305 30.0525 24.0109C30.0314 23.9914 30.0037 23.9807 29.975 23.981H29.974ZM30.537 23.981C30.5223 23.9811 30.5078 23.9842 30.4942 23.9899C30.4807 23.9957 30.4684 24.004 30.4581 24.0145C30.4478 24.025 30.4396 24.0374 30.4341 24.0511C30.4286 24.0647 30.4259 24.0793 30.426 24.094C30.426 24.155 30.476 24.207 30.537 24.207C30.5525 24.2069 30.5678 24.2036 30.582 24.1974C30.5962 24.1912 30.609 24.1821 30.6195 24.1708C30.6301 24.1595 30.6383 24.1461 30.6435 24.1315C30.6487 24.117 30.651 24.1015 30.65 24.086C30.6482 24.0574 30.6355 24.0305 30.6145 24.0109C30.5934 23.9914 30.5657 23.9807 30.537 23.981ZM31.1 23.981C31.0852 23.981 31.0706 23.9839 31.0569 23.9896C31.0433 23.9953 31.0309 24.0037 31.0204 24.0142C31.01 24.0247 31.0018 24.0371 30.9962 24.0508C30.9907 24.0645 30.9879 24.0792 30.988 24.094C30.988 24.155 31.038 24.207 31.1 24.207C31.1155 24.2069 31.1308 24.2036 31.145 24.1974C31.1592 24.1912 31.172 24.1821 31.1825 24.1708C31.1931 24.1595 31.2013 24.1461 31.2065 24.1315C31.2117 24.117 31.214 24.1015 31.213 24.086C31.2112 24.0574 31.1985 24.0305 31.1775 24.0109C31.1564 23.9914 31.1287 23.9807 31.1 23.981ZM31.662 23.981C31.6473 23.9811 31.6328 23.9842 31.6192 23.9899C31.6057 23.9957 31.5934 24.004 31.5831 24.0145C31.5728 24.025 31.5646 24.0374 31.5591 24.0511C31.5536 24.0647 31.5509 24.0793 31.551 24.094C31.551 24.155 31.601 24.207 31.662 24.207C31.723 24.207 31.772 24.155 31.773 24.094V24.074C31.7691 24.0477 31.7559 24.0237 31.7356 24.0064C31.7154 23.9891 31.6896 23.9797 31.663 23.98L31.662 23.981ZM32.225 23.981C32.21 23.9807 32.1952 23.9835 32.1813 23.989C32.1674 23.9946 32.1548 24.0029 32.1441 24.0134C32.1335 24.024 32.1251 24.0365 32.1194 24.0504C32.1137 24.0642 32.1109 24.079 32.111 24.094C32.111 24.156 32.163 24.208 32.225 24.207C32.285 24.207 32.335 24.155 32.335 24.094C32.337 24.086 32.337 24.082 32.335 24.074C32.3311 24.0477 32.3179 24.0237 32.2976 24.0064C32.2774 23.9891 32.2516 23.9797 32.225 23.98V23.981ZM32.787 23.981C32.7721 23.9809 32.7574 23.9837 32.7436 23.9893C32.7298 23.995 32.7173 24.0033 32.7068 24.0138C32.6963 24.0243 32.688 24.0368 32.6823 24.0506C32.6767 24.0644 32.6739 24.0791 32.674 24.094C32.674 24.156 32.725 24.208 32.787 24.207C32.8023 24.2066 32.8174 24.2032 32.8314 24.1968C32.8453 24.1905 32.8579 24.1814 32.8682 24.1701C32.8786 24.1588 32.8866 24.1455 32.8917 24.1311C32.8968 24.1166 32.8989 24.1013 32.898 24.086C32.8962 24.0579 32.8839 24.0314 32.8636 24.012C32.8432 23.9925 32.8162 23.9814 32.788 23.981H32.787ZM33.35 23.981C33.335 23.9807 33.3202 23.9835 33.3063 23.989C33.2924 23.9946 33.2798 24.0029 33.2691 24.0134C33.2585 24.024 33.2501 24.0365 33.2444 24.0504C33.2387 24.0642 33.2359 24.079 33.236 24.094C33.236 24.156 33.288 24.208 33.35 24.207C33.3652 24.2065 33.3802 24.2029 33.3941 24.1965C33.4079 24.1901 33.4203 24.181 33.4306 24.1697C33.4408 24.1585 33.4487 24.1452 33.4538 24.1309C33.4588 24.1165 33.4609 24.1012 33.46 24.086C33.4582 24.0579 33.4459 24.0314 33.4256 24.012C33.4052 23.9925 33.3782 23.9814 33.35 23.981ZM33.912 23.981C33.8971 23.9809 33.8824 23.9837 33.8686 23.9893C33.8548 23.995 33.8423 24.0033 33.8318 24.0138C33.8213 24.0243 33.813 24.0368 33.8073 24.0506C33.8017 24.0644 33.7989 24.0791 33.799 24.094C33.799 24.156 33.85 24.208 33.912 24.207C33.9273 24.2066 33.9424 24.2032 33.9564 24.1968C33.9703 24.1905 33.9829 24.1814 33.9932 24.1701C34.0036 24.1588 34.0116 24.1455 34.0167 24.1311C34.0218 24.1166 34.0239 24.1013 34.023 24.086C34.0212 24.0579 34.0089 24.0314 33.9886 24.012C33.9682 23.9925 33.9412 23.9814 33.913 23.981H33.912ZM34.472 23.981C34.4425 23.9815 34.4143 23.9937 34.3937 24.0149C34.3731 24.036 34.3617 24.0645 34.362 24.094C34.362 24.155 34.411 24.207 34.472 24.207C34.4876 24.207 34.503 24.2039 34.5173 24.1977C34.5316 24.1915 34.5445 24.1825 34.5552 24.1712C34.5659 24.1598 34.5741 24.1464 34.5794 24.1318C34.5847 24.1171 34.587 24.1015 34.586 24.086C34.5842 24.0574 34.5715 24.0305 34.5505 24.0109C34.5294 23.9914 34.5017 23.9807 34.473 23.981H34.472ZM16.962 26.551C16.8376 26.553 16.7148 26.5796 16.6007 26.6292C16.4866 26.6788 16.3834 26.7504 16.297 26.84L14.488 28.697C14.4011 28.7863 14.3328 28.8918 14.2868 29.0076C14.2409 29.1233 14.2183 29.247 14.2204 29.3716C14.2224 29.4961 14.2491 29.619 14.2988 29.7332C14.3485 29.8474 14.4203 29.9506 14.51 30.037C14.5991 30.124 14.7046 30.1925 14.8203 30.2386C14.936 30.2847 15.0596 30.3075 15.1842 30.3056C15.3087 30.3038 15.4316 30.2773 15.5459 30.2278C15.6602 30.1782 15.7635 30.1066 15.85 30.017L17.658 28.158C17.7896 28.024 17.8783 27.8539 17.9127 27.6693C17.9472 27.4847 17.9259 27.294 17.8516 27.1216C17.7772 26.9492 17.6532 26.8028 17.4953 26.7012C17.3373 26.5995 17.1527 26.5473 16.965 26.551H16.963H16.962ZM20.962 26.551C20.8376 26.553 20.7148 26.5796 20.6007 26.6292C20.4866 26.6788 20.3834 26.7504 20.297 26.84L18.488 28.697C18.4011 28.7863 18.3328 28.8918 18.2868 29.0076C18.2409 29.1233 18.2183 29.247 18.2204 29.3716C18.2224 29.4961 18.2491 29.619 18.2988 29.7332C18.3485 29.8474 18.4203 29.9506 18.51 30.037C18.5991 30.124 18.7046 30.1925 18.8203 30.2386C18.936 30.2847 19.0596 30.3075 19.1842 30.3056C19.3087 30.3038 19.4316 30.2773 19.5459 30.2278C19.6602 30.1782 19.7635 30.1066 19.85 30.017L21.658 28.158C21.7449 28.0688 21.8134 27.9633 21.8594 27.8476C21.9054 27.7318 21.9281 27.6082 21.9261 27.4836C21.9242 27.3591 21.8976 27.2362 21.848 27.122C21.7984 27.0077 21.7267 26.9044 21.637 26.818C21.5478 26.7312 21.4424 26.663 21.3267 26.6171C21.211 26.5713 21.0874 26.5488 20.963 26.551H20.962ZM24.962 26.551C24.8376 26.553 24.7148 26.5796 24.6007 26.6292C24.4866 26.6788 24.3834 26.7504 24.297 26.84L22.488 28.697C22.4011 28.7863 22.3328 28.8918 22.2868 29.0076C22.2409 29.1233 22.2183 29.247 22.2204 29.3716C22.2224 29.4961 22.2491 29.619 22.2988 29.7332C22.3485 29.8474 22.4203 29.9506 22.51 30.037C22.5991 30.124 22.7046 30.1925 22.8203 30.2386C22.936 30.2847 23.0596 30.3075 23.1842 30.3056C23.3087 30.3038 23.4316 30.2773 23.5459 30.2278C23.6602 30.1782 23.7635 30.1066 23.85 30.017L25.658 28.158C25.7449 28.0688 25.8134 27.9633 25.8594 27.8476C25.9054 27.7318 25.9281 27.6082 25.9261 27.4836C25.9242 27.3591 25.8976 27.2362 25.848 27.122C25.7984 27.0077 25.7267 26.9044 25.637 26.818C25.5478 26.7312 25.4424 26.663 25.3267 26.6171C25.211 26.5713 25.0874 26.5488 24.963 26.551H24.962ZM28.962 26.551C28.8376 26.553 28.7148 26.5796 28.6007 26.6292C28.4866 26.6788 28.3834 26.7504 28.297 26.84L26.488 28.697C26.4011 28.7863 26.3328 28.8918 26.2868 29.0076C26.2409 29.1233 26.2183 29.247 26.2204 29.3716C26.2224 29.4961 26.2491 29.619 26.2988 29.7332C26.3485 29.8474 26.4203 29.9506 26.51 30.037C26.5991 30.124 26.7046 30.1925 26.8203 30.2386C26.936 30.2847 27.0596 30.3075 27.1842 30.3056C27.3087 30.3038 27.4316 30.2773 27.5459 30.2278C27.6602 30.1782 27.7635 30.1066 27.85 30.017L29.658 28.158C29.7449 28.0688 29.8134 27.9633 29.8594 27.8476C29.9054 27.7318 29.9281 27.6082 29.9261 27.4836C29.9242 27.3591 29.8976 27.2362 29.848 27.122C29.7984 27.0077 29.7267 26.9044 29.637 26.818C29.5478 26.7312 29.4424 26.663 29.3267 26.6171C29.211 26.5713 29.0874 26.5488 28.963 26.551H28.962ZM32.962 26.551C32.8376 26.553 32.7148 26.5796 32.6007 26.6292C32.4866 26.6788 32.3834 26.7504 32.297 26.84L30.488 28.697C30.4011 28.7863 30.3328 28.8918 30.2868 29.0076C30.2409 29.1233 30.2183 29.247 30.2204 29.3716C30.2224 29.4961 30.2491 29.619 30.2988 29.7332C30.3485 29.8474 30.4203 29.9506 30.51 30.037C30.5991 30.124 30.7046 30.1925 30.8203 30.2386C30.936 30.2847 31.0596 30.3075 31.1842 30.3056C31.3087 30.3038 31.4316 30.2773 31.5459 30.2278C31.6602 30.1782 31.7635 30.1066 31.85 30.017L33.658 28.158C33.7449 28.0688 33.8134 27.9633 33.8594 27.8476C33.9054 27.7318 33.9281 27.6082 33.9261 27.4836C33.9242 27.3591 33.8976 27.2362 33.848 27.122C33.7984 27.0077 33.7267 26.9044 33.637 26.818C33.5478 26.7312 33.4424 26.663 33.3267 26.6171C33.211 26.5713 33.0874 26.5488 32.963 26.551H32.962ZM13.67 32.981C13.6553 32.9811 13.6408 32.9842 13.6272 32.9899C13.6137 32.9957 13.6014 33.004 13.5911 33.0145C13.5808 33.025 13.5726 33.0374 13.5671 33.0511C13.5616 33.0647 13.5589 33.0793 13.559 33.094C13.559 33.155 13.609 33.206 13.669 33.207C13.732 33.207 13.782 33.157 13.783 33.094C13.7833 33.079 13.7805 33.0642 13.775 33.0503C13.7694 33.0364 13.7611 33.0238 13.7506 33.0131C13.74 33.0025 13.7275 32.9941 13.7136 32.9884C13.6998 32.9827 13.685 32.9799 13.67 32.98V32.981ZM14.232 32.981C14.2021 32.9813 14.1735 32.9933 14.1524 33.0144C14.1313 33.0355 14.1193 33.0641 14.119 33.094C14.119 33.155 14.171 33.207 14.232 33.207C14.294 33.207 14.343 33.155 14.344 33.094V33.074C14.3399 33.0475 14.3262 33.0234 14.3056 33.0063C14.285 32.9892 14.2588 32.9802 14.232 32.981ZM14.795 32.981C14.7801 32.9809 14.7654 32.9837 14.7516 32.9893C14.7378 32.995 14.7253 33.0033 14.7148 33.0138C14.7043 33.0243 14.696 33.0368 14.6903 33.0506C14.6847 33.0644 14.6819 33.0791 14.682 33.094C14.682 33.156 14.732 33.208 14.795 33.207C14.856 33.207 14.905 33.155 14.906 33.094V33.074C14.9019 33.0477 14.8884 33.0238 14.868 33.0067C14.8475 32.9896 14.8216 32.9804 14.795 32.981ZM15.357 32.981C15.3421 32.9809 15.3274 32.9837 15.3136 32.9893C15.2998 32.995 15.2873 33.0033 15.2768 33.0138C15.2663 33.0243 15.258 33.0368 15.2523 33.0506C15.2467 33.0644 15.2439 33.0791 15.244 33.094C15.244 33.156 15.295 33.208 15.357 33.207C15.419 33.207 15.468 33.155 15.469 33.094V33.086C15.4672 33.0575 15.4546 33.0308 15.4338 33.0113C15.413 32.9918 15.3855 32.9809 15.357 32.981ZM15.92 32.981C15.9051 32.9809 15.8904 32.9837 15.8766 32.9893C15.8628 32.995 15.8503 33.0033 15.8398 33.0138C15.8293 33.0243 15.821 33.0368 15.8153 33.0506C15.8097 33.0644 15.8069 33.0791 15.807 33.094C15.807 33.156 15.857 33.208 15.92 33.207C15.981 33.207 16.03 33.155 16.031 33.094V33.086C16.0292 33.0577 16.0168 33.0311 15.9962 33.0116C15.9756 32.9921 15.9484 32.9812 15.92 32.981ZM16.482 32.981C16.4671 32.9809 16.4524 32.9837 16.4386 32.9893C16.4248 32.995 16.4123 33.0033 16.4018 33.0138C16.3913 33.0243 16.383 33.0368 16.3773 33.0506C16.3717 33.0644 16.3689 33.0791 16.369 33.094C16.369 33.156 16.42 33.208 16.482 33.207C16.544 33.207 16.593 33.155 16.594 33.094V33.086C16.5922 33.0575 16.5796 33.0308 16.5588 33.0113C16.538 32.9918 16.5105 32.9809 16.482 32.981ZM17.043 32.981C17.0283 32.9811 17.0138 32.9842 17.0002 32.9899C16.9867 32.9957 16.9744 33.004 16.9641 33.0145C16.9538 33.025 16.9456 33.0374 16.9401 33.0511C16.9346 33.0647 16.9319 33.0793 16.932 33.094C16.932 33.155 16.982 33.207 17.043 33.207C17.0729 33.2067 17.1015 33.1947 17.1226 33.1736C17.1437 33.1525 17.1557 33.1239 17.156 33.094V33.086C17.1542 33.0574 17.1415 33.0305 17.1205 33.0109C17.0994 32.9914 17.0717 32.9807 17.043 32.981ZM17.606 32.981C17.5912 32.981 17.5766 32.9839 17.5629 32.9896C17.5493 32.9953 17.5369 33.0037 17.5264 33.0142C17.516 33.0247 17.5078 33.0371 17.5022 33.0508C17.4967 33.0645 17.4939 33.0792 17.494 33.094C17.494 33.155 17.544 33.207 17.605 33.207C17.6351 33.207 17.6639 33.1951 17.6853 33.174C17.7066 33.1528 17.7187 33.1241 17.719 33.094V33.086C17.7172 33.0572 17.7043 33.0302 17.6831 33.0106C17.6619 32.991 17.6339 32.9804 17.605 32.981H17.606ZM18.168 32.981C18.1533 32.9811 18.1388 32.9842 18.1252 32.9899C18.1117 32.9957 18.0994 33.004 18.0891 33.0145C18.0788 33.025 18.0706 33.0374 18.0651 33.0511C18.0596 33.0647 18.0569 33.0793 18.057 33.094C18.057 33.155 18.107 33.207 18.168 33.207C18.1979 33.2067 18.2265 33.1947 18.2476 33.1736C18.2687 33.1525 18.2807 33.1239 18.281 33.094V33.086C18.2792 33.0574 18.2665 33.0305 18.2455 33.0109C18.2244 32.9914 18.1967 32.9807 18.168 32.981ZM18.731 32.981C18.7162 32.981 18.7016 32.9839 18.6879 32.9896C18.6743 32.9953 18.6619 33.0037 18.6514 33.0142C18.641 33.0247 18.6328 33.0371 18.6272 33.0508C18.6217 33.0645 18.6189 33.0792 18.619 33.094C18.619 33.155 18.669 33.207 18.73 33.207C18.792 33.207 18.841 33.155 18.842 33.094V33.074C18.8379 33.0477 18.8244 33.0238 18.804 33.0067C18.7836 32.9896 18.7576 32.9804 18.731 32.981ZM19.293 32.981C19.2781 32.9809 19.2634 32.9837 19.2496 32.9893C19.2358 32.995 19.2233 33.0033 19.2128 33.0138C19.2023 33.0243 19.194 33.0368 19.1883 33.0506C19.1827 33.0644 19.1799 33.0791 19.18 33.094C19.18 33.156 19.231 33.208 19.293 33.207C19.354 33.207 19.403 33.155 19.404 33.094V33.086C19.4022 33.0577 19.3898 33.0311 19.3692 33.0116C19.3486 32.9921 19.3214 32.9812 19.293 32.981ZM19.856 32.981C19.841 32.9807 19.8262 32.9835 19.8123 32.989C19.7984 32.9946 19.7858 33.0029 19.7751 33.0134C19.7645 33.024 19.7561 33.0365 19.7504 33.0504C19.7447 33.0642 19.7419 33.079 19.742 33.094C19.742 33.156 19.794 33.208 19.855 33.207C19.917 33.207 19.966 33.155 19.967 33.094V33.086C19.9652 33.0577 19.9528 33.0311 19.9322 33.0116C19.9116 32.9921 19.8844 32.9812 19.856 32.981ZM20.418 32.981C20.4031 32.9809 20.3884 32.9837 20.3746 32.9893C20.3608 32.995 20.3483 33.0033 20.3378 33.0138C20.3273 33.0243 20.319 33.0368 20.3133 33.0506C20.3077 33.0644 20.3049 33.0791 20.305 33.094C20.305 33.156 20.356 33.208 20.418 33.207C20.479 33.207 20.528 33.155 20.529 33.094V33.086C20.5272 33.0577 20.5148 33.0311 20.4942 33.0116C20.4736 32.9921 20.4464 32.9812 20.418 32.981ZM20.981 32.981C20.966 32.9807 20.9512 32.9835 20.9373 32.989C20.9234 32.9946 20.9108 33.0029 20.9001 33.0134C20.8895 33.024 20.8811 33.0365 20.8754 33.0504C20.8697 33.0642 20.8669 33.079 20.867 33.094C20.867 33.156 20.919 33.208 20.98 33.207C21.042 33.207 21.091 33.155 21.092 33.094V33.086C21.0902 33.0577 21.0778 33.0311 21.0572 33.0116C21.0366 32.9921 21.0094 32.9812 20.981 32.981ZM21.541 32.981C21.5263 32.9811 21.5118 32.9842 21.4982 32.9899C21.4847 32.9957 21.4724 33.004 21.4621 33.0145C21.4518 33.025 21.4436 33.0374 21.4381 33.0511C21.4326 33.0647 21.4299 33.0793 21.43 33.094C21.43 33.155 21.48 33.207 21.541 33.207C21.5709 33.2067 21.5995 33.1947 21.6206 33.1736C21.6418 33.1525 21.6537 33.1239 21.654 33.094V33.086C21.6522 33.0574 21.6395 33.0305 21.6185 33.0109C21.5974 32.9914 21.5697 32.9807 21.541 32.981ZM22.104 32.981C22.0892 32.981 22.0746 32.9839 22.0609 32.9896C22.0473 32.9953 22.0349 33.0037 22.0244 33.0142C22.014 33.0247 22.0058 33.0371 22.0002 33.0508C21.9947 33.0645 21.9919 33.0792 21.992 33.094C21.992 33.155 22.042 33.207 22.103 33.207C22.1331 33.207 22.1619 33.1951 22.1833 33.174C22.2046 33.1528 22.2167 33.1241 22.217 33.094V33.086C22.2152 33.0574 22.2025 33.0305 22.1815 33.0109C22.1604 32.9914 22.1327 32.9807 22.104 32.981ZM22.666 32.981C22.6513 32.9811 22.6368 32.9842 22.6232 32.9899C22.6097 32.9957 22.5974 33.004 22.5871 33.0145C22.5768 33.025 22.5686 33.0374 22.5631 33.0511C22.5576 33.0647 22.5549 33.0793 22.555 33.094C22.555 33.155 22.605 33.206 22.666 33.207C22.728 33.207 22.779 33.157 22.779 33.094C22.7793 33.079 22.7765 33.0642 22.771 33.0503C22.7654 33.0364 22.7571 33.0238 22.7466 33.0131C22.736 33.0025 22.7235 32.9941 22.7096 32.9884C22.6958 32.9827 22.681 32.9799 22.666 32.98V32.981ZM23.229 32.981C23.2142 32.981 23.1996 32.9839 23.1859 32.9896C23.1723 32.9953 23.1599 33.0037 23.1494 33.0142C23.139 33.0247 23.1308 33.0371 23.1252 33.0508C23.1197 33.0645 23.1169 33.0792 23.117 33.094C23.117 33.155 23.167 33.207 23.228 33.207C23.2577 33.2065 23.2861 33.1944 23.307 33.1733C23.3279 33.1522 23.3397 33.1237 23.34 33.094V33.074C23.3357 33.0478 23.3221 33.024 23.3018 33.0069C23.2814 32.9898 23.2556 32.9806 23.229 32.981ZM23.791 32.981C23.7761 32.9809 23.7614 32.9837 23.7476 32.9893C23.7338 32.995 23.7213 33.0033 23.7108 33.0138C23.7003 33.0243 23.692 33.0368 23.6863 33.0506C23.6807 33.0644 23.6779 33.0791 23.678 33.094C23.678 33.156 23.729 33.208 23.791 33.207C23.852 33.207 23.901 33.155 23.902 33.094V33.074C23.8979 33.0477 23.8844 33.0238 23.864 33.0067C23.8435 32.9896 23.8176 32.9804 23.791 32.981ZM24.354 32.981C24.339 32.9807 24.3242 32.9835 24.3103 32.989C24.2964 32.9946 24.2838 33.0029 24.2731 33.0134C24.2625 33.024 24.2541 33.0365 24.2484 33.0504C24.2427 33.0642 24.2399 33.079 24.24 33.094C24.24 33.156 24.292 33.208 24.354 33.207C24.414 33.207 24.464 33.155 24.464 33.094V33.086C24.4622 33.0579 24.4499 33.0314 24.4296 33.012C24.4092 32.9925 24.3822 32.9814 24.354 32.981ZM24.916 32.981C24.9011 32.9809 24.8864 32.9837 24.8726 32.9893C24.8588 32.995 24.8463 33.0033 24.8358 33.0138C24.8253 33.0243 24.817 33.0368 24.8113 33.0506C24.8057 33.0644 24.8029 33.0791 24.803 33.094C24.803 33.156 24.854 33.208 24.916 33.207C24.977 33.207 25.026 33.155 25.027 33.094V33.086C25.0252 33.0577 25.0128 33.0311 24.9922 33.0116C24.9716 32.9921 24.9444 32.9812 24.916 32.981ZM25.476 32.981C25.4465 32.9815 25.4183 32.9937 25.3977 33.0149C25.3771 33.036 25.3657 33.0645 25.366 33.094C25.366 33.155 25.416 33.207 25.476 33.207C25.5061 33.207 25.5349 33.1951 25.5563 33.174C25.5776 33.1528 25.5897 33.1241 25.59 33.094V33.086C25.5882 33.0574 25.5755 33.0305 25.5545 33.0109C25.5334 32.9914 25.5057 32.9807 25.477 32.981H25.476ZM26.039 32.981C26.0243 32.9811 26.0098 32.9842 25.9962 32.9899C25.9827 32.9957 25.9704 33.004 25.9601 33.0145C25.9498 33.025 25.9416 33.0374 25.9361 33.0511C25.9306 33.0647 25.9279 33.0793 25.928 33.094C25.928 33.155 25.978 33.207 26.039 33.207C26.0689 33.2067 26.0975 33.1947 26.1186 33.1736C26.1397 33.1525 26.1517 33.1239 26.152 33.094V33.086C26.1502 33.0574 26.1375 33.0305 26.1165 33.0109C26.0954 32.9914 26.0677 32.9807 26.039 32.981ZM26.602 32.981C26.5872 32.981 26.5726 32.9839 26.5589 32.9896C26.5453 32.9953 26.5329 33.0037 26.5224 33.0142C26.512 33.0247 26.5038 33.0371 26.4982 33.0508C26.4927 33.0645 26.4899 33.0792 26.49 33.094C26.49 33.155 26.54 33.207 26.602 33.207C26.6319 33.2067 26.6605 33.1947 26.6816 33.1736C26.7027 33.1525 26.7147 33.1239 26.715 33.094V33.086C26.7132 33.0574 26.7005 33.0305 26.6795 33.0109C26.6584 32.9914 26.6307 32.9807 26.602 32.981ZM27.164 32.981C27.1493 32.9811 27.1348 32.9842 27.1212 32.9899C27.1077 32.9957 27.0954 33.004 27.0851 33.0145C27.0748 33.025 27.0666 33.0374 27.0611 33.0511C27.0556 33.0647 27.0529 33.0793 27.053 33.094C27.053 33.155 27.103 33.206 27.164 33.207C27.226 33.207 27.277 33.157 27.277 33.094C27.2773 33.079 27.2745 33.0642 27.269 33.0503C27.2634 33.0364 27.2551 33.0238 27.2446 33.0131C27.234 33.0025 27.2215 32.9941 27.2076 32.9884C27.1938 32.9827 27.179 32.9799 27.164 32.98V32.981ZM27.727 32.981C27.7122 32.981 27.6976 32.9839 27.6839 32.9896C27.6703 32.9953 27.6579 33.0037 27.6474 33.0142C27.637 33.0247 27.6288 33.0371 27.6232 33.0508C27.6177 33.0645 27.6149 33.0792 27.615 33.094C27.615 33.155 27.665 33.207 27.727 33.207C27.787 33.207 27.837 33.155 27.837 33.094C27.839 33.086 27.839 33.082 27.837 33.074C27.8329 33.0479 27.8195 33.0241 27.7993 33.007C27.7791 32.9899 27.7535 32.9807 27.727 32.981ZM28.289 32.981C28.2741 32.9809 28.2594 32.9837 28.2456 32.9893C28.2318 32.995 28.2193 33.0033 28.2088 33.0138C28.1983 33.0243 28.19 33.0368 28.1843 33.0506C28.1787 33.0644 28.1759 33.0791 28.176 33.094C28.176 33.156 28.227 33.208 28.289 33.207C28.35 33.207 28.399 33.155 28.4 33.094V33.086C28.3982 33.0579 28.3859 33.0314 28.3656 33.012C28.3452 32.9925 28.3182 32.9814 28.29 32.981H28.289ZM28.852 32.981C28.837 32.9807 28.8222 32.9835 28.8083 32.989C28.7944 32.9946 28.7818 33.0029 28.7711 33.0134C28.7605 33.024 28.7521 33.0365 28.7464 33.0504C28.7407 33.0642 28.7379 33.079 28.738 33.094C28.738 33.156 28.79 33.208 28.852 33.207C28.912 33.207 28.962 33.155 28.962 33.094V33.086C28.9602 33.0579 28.9479 33.0314 28.9276 33.012C28.9072 32.9925 28.8802 32.9814 28.852 32.981ZM29.414 32.981C29.3991 32.9809 29.3844 32.9837 29.3706 32.9893C29.3568 32.995 29.3443 33.0033 29.3338 33.0138C29.3233 33.0243 29.315 33.0368 29.3093 33.0506C29.3037 33.0644 29.3009 33.0791 29.301 33.094C29.301 33.156 29.352 33.208 29.414 33.207C29.475 33.207 29.524 33.155 29.525 33.094V33.086C29.5232 33.0579 29.5109 33.0314 29.4906 33.012C29.4702 32.9925 29.4432 32.9814 29.415 32.981H29.414ZM29.974 32.981C29.9445 32.9815 29.9163 32.9937 29.8957 33.0149C29.8751 33.036 29.8637 33.0645 29.864 33.094C29.864 33.155 29.913 33.207 29.974 33.207C30.0041 33.207 30.0329 33.1951 30.0543 33.174C30.0756 33.1528 30.0877 33.1241 30.088 33.094V33.086C30.0862 33.0574 30.0735 33.0305 30.0525 33.0109C30.0314 32.9914 30.0037 32.9807 29.975 32.981H29.974ZM30.537 32.981C30.5223 32.9811 30.5078 32.9842 30.4942 32.9899C30.4807 32.9957 30.4684 33.004 30.4581 33.0145C30.4478 33.025 30.4396 33.0374 30.4341 33.0511C30.4286 33.0647 30.4259 33.0793 30.426 33.094C30.426 33.155 30.476 33.207 30.537 33.207C30.5669 33.2067 30.5955 33.1947 30.6166 33.1736C30.6378 33.1525 30.6497 33.1239 30.65 33.094V33.086C30.6482 33.0574 30.6355 33.0305 30.6145 33.0109C30.5934 32.9914 30.5657 32.9807 30.537 32.981ZM31.1 32.981C31.0852 32.981 31.0706 32.9839 31.0569 32.9896C31.0433 32.9953 31.0309 33.0037 31.0204 33.0142C31.01 33.0247 31.0018 33.0371 30.9962 33.0508C30.9907 33.0645 30.9879 33.0792 30.988 33.094C30.988 33.155 31.038 33.207 31.1 33.207C31.1299 33.2067 31.1585 33.1947 31.1796 33.1736C31.2008 33.1525 31.2127 33.1239 31.213 33.094V33.086C31.2112 33.0574 31.1985 33.0305 31.1775 33.0109C31.1564 32.9914 31.1287 32.9807 31.1 32.981ZM31.662 32.981C31.6473 32.9811 31.6328 32.9842 31.6192 32.9899C31.6057 32.9957 31.5934 33.004 31.5831 33.0145C31.5728 33.025 31.5646 33.0374 31.5591 33.0511C31.5536 33.0647 31.5509 33.0793 31.551 33.094C31.551 33.155 31.601 33.207 31.662 33.207C31.723 33.207 31.772 33.155 31.773 33.094V33.074C31.7689 33.0479 31.7555 33.0241 31.7353 33.007C31.7151 32.9899 31.6895 32.9807 31.663 32.981H31.662ZM32.225 32.981C32.21 32.9807 32.1952 32.9835 32.1813 32.989C32.1674 32.9946 32.1548 33.0029 32.1441 33.0134C32.1335 33.024 32.1251 33.0365 32.1194 33.0504C32.1137 33.0642 32.1109 33.079 32.111 33.094C32.111 33.156 32.163 33.208 32.225 33.207C32.285 33.207 32.335 33.155 32.335 33.094C32.337 33.086 32.337 33.082 32.335 33.074C32.3309 33.0479 32.3175 33.0241 32.2973 33.007C32.2771 32.9899 32.2515 32.9807 32.225 32.981ZM32.787 32.981C32.7721 32.9809 32.7574 32.9837 32.7436 32.9893C32.7298 32.995 32.7173 33.0033 32.7068 33.0138C32.6963 33.0243 32.688 33.0368 32.6823 33.0506C32.6767 33.0644 32.6739 33.0791 32.674 33.094C32.674 33.156 32.725 33.208 32.787 33.207C32.848 33.207 32.897 33.155 32.898 33.094V33.086C32.8962 33.0579 32.8839 33.0314 32.8636 33.012C32.8432 32.9925 32.8162 32.9814 32.788 32.981H32.787ZM33.35 32.981C33.335 32.9807 33.3202 32.9835 33.3063 32.989C33.2924 32.9946 33.2798 33.0029 33.2691 33.0134C33.2585 33.024 33.2501 33.0365 33.2444 33.0504C33.2387 33.0642 33.2359 33.079 33.236 33.094C33.236 33.156 33.288 33.208 33.35 33.207C33.3794 33.206 33.4072 33.1936 33.4277 33.1726C33.4482 33.1515 33.4598 33.1234 33.46 33.094V33.086C33.4582 33.0579 33.4459 33.0314 33.4256 33.012C33.4052 32.9925 33.3782 32.9814 33.35 32.981ZM33.912 32.981C33.8971 32.9809 33.8824 32.9837 33.8686 32.9893C33.8548 32.995 33.8423 33.0033 33.8318 33.0138C33.8213 33.0243 33.813 33.0368 33.8073 33.0506C33.8017 33.0644 33.7989 33.0791 33.799 33.094C33.799 33.156 33.85 33.208 33.912 33.207C33.9415 33.2062 33.9696 33.194 33.9903 33.1729C34.011 33.1518 34.0228 33.1236 34.023 33.094V33.086C34.0212 33.0579 34.0089 33.0314 33.9886 33.012C33.9682 32.9925 33.9412 32.9814 33.913 32.981H33.912ZM34.472 32.981C34.4425 32.9815 34.4143 32.9937 34.3937 33.0149C34.3731 33.036 34.3617 33.0645 34.362 33.094C34.362 33.155 34.411 33.207 34.472 33.207C34.5021 33.207 34.5309 33.1951 34.5523 33.174C34.5736 33.1528 34.5857 33.1241 34.586 33.094V33.086C34.5842 33.0574 34.5715 33.0305 34.5505 33.0109C34.5294 32.9914 34.5017 32.9807 34.473 32.981H34.472ZM16.962 35.217C16.8376 35.219 16.7148 35.2456 16.6007 35.2952C16.4866 35.3448 16.3834 35.4164 16.297 35.506L14.488 37.363C14.4011 37.4523 14.3328 37.5578 14.2868 37.6736C14.2409 37.7893 14.2183 37.913 14.2204 38.0376C14.2224 38.1621 14.2491 38.285 14.2988 38.3992C14.3485 38.5134 14.4203 38.6166 14.51 38.703C14.5991 38.79 14.7046 38.8585 14.8203 38.9046C14.936 38.9507 15.0596 38.9735 15.1842 38.9716C15.3087 38.9698 15.4316 38.9433 15.5459 38.8938C15.6602 38.8442 15.7635 38.7726 15.85 38.683L17.658 36.824C17.7896 36.69 17.8783 36.5199 17.9127 36.3353C17.9472 36.1507 17.9259 35.96 17.8516 35.7876C17.7772 35.6152 17.6532 35.4688 17.4953 35.3672C17.3373 35.2655 17.1527 35.2133 16.965 35.217H16.963H16.962ZM20.962 35.217C20.8376 35.219 20.7148 35.2456 20.6007 35.2952C20.4866 35.3448 20.3834 35.4164 20.297 35.506L18.488 37.363C18.4011 37.4523 18.3328 37.5578 18.2868 37.6736C18.2409 37.7893 18.2183 37.913 18.2204 38.0376C18.2224 38.1621 18.2491 38.285 18.2988 38.3992C18.3485 38.5134 18.4203 38.6166 18.51 38.703C18.5991 38.79 18.7046 38.8585 18.8203 38.9046C18.936 38.9507 19.0596 38.9735 19.1842 38.9716C19.3087 38.9698 19.4316 38.9433 19.5459 38.8938C19.6602 38.8442 19.7635 38.7726 19.85 38.683L21.658 36.824C21.7449 36.7348 21.8134 36.6293 21.8594 36.5136C21.9054 36.3979 21.9281 36.2742 21.9261 36.1496C21.9242 36.0251 21.8976 35.9022 21.848 35.788C21.7984 35.6737 21.7267 35.5704 21.637 35.484C21.5478 35.3972 21.4424 35.329 21.3267 35.2831C21.211 35.2373 21.0874 35.2148 20.963 35.217H20.962ZM24.962 35.217C24.8376 35.219 24.7148 35.2456 24.6007 35.2952C24.4866 35.3448 24.3834 35.4164 24.297 35.506L22.488 37.363C22.4011 37.4523 22.3328 37.5578 22.2868 37.6736C22.2409 37.7893 22.2183 37.913 22.2204 38.0376C22.2224 38.1621 22.2491 38.285 22.2988 38.3992C22.3485 38.5134 22.4203 38.6166 22.51 38.703C22.5991 38.79 22.7046 38.8585 22.8203 38.9046C22.936 38.9507 23.0596 38.9735 23.1842 38.9716C23.3087 38.9698 23.4316 38.9433 23.5459 38.8938C23.6602 38.8442 23.7635 38.7726 23.85 38.683L25.658 36.824C25.7449 36.7348 25.8134 36.6293 25.8594 36.5136C25.9054 36.3979 25.9281 36.2742 25.9261 36.1496C25.9242 36.0251 25.8976 35.9022 25.848 35.788C25.7984 35.6737 25.7267 35.5704 25.637 35.484C25.5478 35.3972 25.4424 35.329 25.3267 35.2831C25.211 35.2373 25.0874 35.2148 24.963 35.217H24.962ZM28.962 35.217C28.8376 35.219 28.7148 35.2456 28.6007 35.2952C28.4866 35.3448 28.3834 35.4164 28.297 35.506L26.488 37.363C26.4011 37.4523 26.3328 37.5578 26.2868 37.6736C26.2409 37.7893 26.2183 37.913 26.2204 38.0376C26.2224 38.1621 26.2491 38.285 26.2988 38.3992C26.3485 38.5134 26.4203 38.6166 26.51 38.703C26.5991 38.79 26.7046 38.8585 26.8203 38.9046C26.936 38.9507 27.0596 38.9735 27.1842 38.9716C27.3087 38.9698 27.4316 38.9433 27.5459 38.8938C27.6602 38.8442 27.7635 38.7726 27.85 38.683L29.658 36.824C29.7449 36.7348 29.8134 36.6293 29.8594 36.5136C29.9054 36.3979 29.9281 36.2742 29.9261 36.1496C29.9242 36.0251 29.8976 35.9022 29.848 35.788C29.7984 35.6737 29.7267 35.5704 29.637 35.484C29.5478 35.3972 29.4424 35.329 29.3267 35.2831C29.211 35.2373 29.0874 35.2148 28.963 35.217H28.962ZM32.962 35.217C32.8376 35.219 32.7148 35.2456 32.6007 35.2952C32.4866 35.3448 32.3834 35.4164 32.297 35.506L30.488 37.363C30.4011 37.4523 30.3328 37.5578 30.2868 37.6736C30.2409 37.7893 30.2183 37.913 30.2204 38.0376C30.2224 38.1621 30.2491 38.285 30.2988 38.3992C30.3485 38.5134 30.4203 38.6166 30.51 38.703C30.5991 38.79 30.7046 38.8585 30.8203 38.9046C30.936 38.9507 31.0596 38.9735 31.1842 38.9716C31.3087 38.9698 31.4316 38.9433 31.5459 38.8938C31.6602 38.8442 31.7635 38.7726 31.85 38.683L33.658 36.824C33.7449 36.7348 33.8134 36.6293 33.8594 36.5136C33.9054 36.3979 33.9281 36.2742 33.9261 36.1496C33.9242 36.0251 33.8976 35.9022 33.848 35.788C33.7984 35.6737 33.7267 35.5704 33.637 35.484C33.5478 35.3972 33.4424 35.329 33.3267 35.2831C33.211 35.2373 33.0874 35.2148 32.963 35.217H32.962Z" fill="#333333"/>
</svg>
