<svg width="48" height="48" viewBox="0 0 48 48" fill="none" xmlns="http://www.w3.org/2000/svg">
<path fill-rule="evenodd" clip-rule="evenodd" d="M14.2349 3.91675H33.9399C34.8094 3.91675 35.5083 4.61561 35.5083 5.48505V42.3464C35.5083 43.2158 34.8094 43.9167 33.9399 43.9167H14.2349C13.3654 43.9167 12.6685 43.2158 12.6685 42.3464V5.48505C12.6685 4.61561 13.3654 3.91675 14.2349 3.91675ZM30.9341 4.65102C30.8751 4.65479 30.829 4.70321 30.8286 4.76255C30.828 4.82529 30.8792 4.87631 30.9419 4.87593C31.0039 4.87518 31.054 4.82454 31.0533 4.76255C31.0528 4.70132 31.0031 4.65177 30.9419 4.65102C30.9393 4.65094 30.9377 4.65094 30.934 4.65102H30.9341ZM30.9341 5.21354C30.8751 5.21694 30.829 5.26574 30.8286 5.32507C30.828 5.38781 30.8792 5.43883 30.9419 5.43846C31.0039 5.43808 31.054 5.38706 31.0533 5.32507C31.0528 5.26385 31.0031 5.21429 30.9419 5.21354C30.9393 5.21346 30.9377 5.21346 30.934 5.21354H30.9341ZM30.9341 5.77606C30.8751 5.77946 30.829 5.82826 30.8286 5.8876C30.828 5.95034 30.8792 6.00136 30.9419 6.00098C31.0039 6.00022 31.054 5.94958 31.0533 5.8876C31.0528 5.82675 31.0031 5.77682 30.9419 5.77606C30.9393 5.77599 30.9377 5.77599 30.934 5.77606H30.9341ZM30.9224 6.33858C30.8679 6.34614 30.8263 6.39486 30.8267 6.44966C30.8272 6.51164 30.8776 6.56157 30.9399 6.56119C31.0012 6.56044 31.0509 6.51127 31.0513 6.44966C31.0508 6.38843 31.0012 6.33934 30.9399 6.33858C30.9324 6.33802 30.932 6.33802 30.9244 6.33858H30.9224ZM30.942 6.89915C30.8793 6.89877 30.8284 6.94979 30.8287 7.01253C30.8292 7.07451 30.8797 7.12433 30.942 7.12395C31.0033 7.12357 31.0526 7.07413 31.0534 7.01253C31.0539 6.95054 31.0044 6.8999 30.942 6.89915ZM30.9341 7.46167C30.8744 7.46545 30.8278 7.51496 30.8286 7.57505C30.8291 7.63666 30.8795 7.68685 30.9419 7.68647C31.0031 7.68609 31.0529 7.63666 31.0533 7.57505C31.0539 7.51307 31.0039 7.46243 30.9419 7.46167C30.9393 7.46156 30.9377 7.46156 30.934 7.46167H30.9341ZM30.9341 8.02419C30.8744 8.02797 30.8278 8.07748 30.8286 8.13757C30.8291 8.19956 30.8795 8.2494 30.9419 8.24865C31.0031 8.24789 31.0529 8.19918 31.0533 8.13757C31.0539 8.07559 31.0039 8.02495 30.9419 8.02419C30.9393 8.02412 30.9377 8.02412 30.934 8.02419H30.9341ZM30.9341 8.5866C30.8744 8.59038 30.8278 8.63989 30.8286 8.69998C30.8291 8.76197 30.8795 8.81143 30.9419 8.81106C31.0031 8.8103 31.0529 8.76159 31.0533 8.69998C31.0539 8.638 31.0039 8.58736 30.9419 8.5866C30.9393 8.58652 30.9377 8.58652 30.934 8.5866H30.9341ZM30.9341 9.14912C30.8751 9.15252 30.829 9.20132 30.8286 9.26066C30.828 9.3234 30.8792 9.37442 30.9419 9.37404C31.0039 9.37366 31.054 9.32264 31.0533 9.26066C31.0528 9.19981 31.0031 9.14988 30.9419 9.14912C30.9393 9.14905 30.9377 9.14905 30.934 9.14912H30.9341ZM30.9341 9.71165C30.8751 9.71505 30.829 9.76373 30.8286 9.82307C30.828 9.88581 30.8792 9.93683 30.9419 9.93645C31.0039 9.93569 31.054 9.88505 31.0533 9.82307C31.0528 9.76184 31.0031 9.7124 30.9419 9.71165C30.9393 9.71153 30.9377 9.71153 30.934 9.71165H30.9341ZM30.9224 10.2742C30.8679 10.2817 30.8263 10.3304 30.8267 10.3852C30.8261 10.448 30.8772 10.499 30.9399 10.4986C31.0019 10.4979 31.052 10.4472 31.0513 10.3852C31.0508 10.324 31.0012 10.2745 30.9399 10.2742C30.9324 10.2736 30.932 10.2736 30.9244 10.2742H30.9224ZM30.942 10.8346C30.8793 10.8342 30.8284 10.8853 30.8287 10.948C30.8292 11.0096 30.8797 11.0599 30.942 11.0595C31.0033 11.0592 31.0506 11.0096 31.0514 10.948C31.052 10.886 31.0044 10.8354 30.942 10.8346ZM30.942 11.3971C30.8793 11.3968 30.8284 11.4478 30.8287 11.5105C30.8292 11.5721 30.8797 11.6228 30.942 11.6221C31.0033 11.6217 31.0506 11.5717 31.0514 11.5105C31.052 11.4485 31.0044 11.3979 30.942 11.3971ZM22.6393 11.5204C22.3971 11.5238 22.1563 11.6213 21.9733 11.8095L20.1647 13.667C19.7985 14.043 19.8058 14.6405 20.1821 15.0068C20.5583 15.3738 21.1558 15.3658 21.5219 14.9879L23.3305 13.1285C23.6966 12.7521 23.6894 12.1548 23.3127 11.7886C23.1246 11.6057 22.8811 11.5158 22.6389 11.5192L22.6393 11.5204ZM30.9323 11.9599C30.8734 11.9637 30.828 12.0136 30.8287 12.0733C30.8292 12.1356 30.8796 12.1855 30.942 12.1843C31.0032 12.1836 31.051 12.1341 31.0514 12.0733C31.052 12.0113 31.004 11.9606 30.942 11.9599C30.9399 11.9598 30.9367 11.9598 30.9341 11.9599H30.9323ZM30.9323 12.5223C30.8734 12.5261 30.828 12.576 30.8287 12.6357C30.8292 12.6977 30.8796 12.748 30.942 12.7469C31.0032 12.7461 31.051 12.6969 31.0514 12.6357C31.052 12.5737 31.004 12.5227 30.942 12.5223C30.9399 12.5223 30.9367 12.5223 30.9341 12.5223H30.9323ZM30.9323 13.0848C30.8742 13.0886 30.8291 13.1374 30.8287 13.1964C30.8281 13.2591 30.8793 13.3101 30.942 13.3097C31.004 13.3094 31.0521 13.2583 31.0514 13.1964C31.0509 13.1351 31.0032 13.0856 30.942 13.0848C30.9399 13.0848 30.9367 13.0848 30.9341 13.0848H30.9323ZM30.9323 13.6473C30.8742 13.6511 30.8291 13.6999 30.8287 13.7589C30.8281 13.8216 30.8793 13.8726 30.942 13.8723C31.004 13.8715 31.0521 13.8209 31.0514 13.7589C31.0509 13.698 31.0032 13.6481 30.942 13.6473C30.9399 13.6473 30.9367 13.6473 30.9341 13.6473H30.9323ZM30.9323 14.2099C30.8742 14.2136 30.8291 14.2627 30.8287 14.3209C30.8281 14.3837 30.8793 14.4347 30.942 14.4343C31.004 14.4336 31.0521 14.3829 31.0514 14.3209C31.0509 14.2597 31.0032 14.2102 30.942 14.2099C30.9399 14.2098 30.9367 14.2098 30.9341 14.2099H30.9323ZM30.9205 14.7724C30.8661 14.78 30.8264 14.8287 30.8268 14.8835C30.8262 14.9462 30.8773 14.9972 30.94 14.9968C31.002 14.9961 31.0521 14.9455 31.0514 14.8835C31.0509 14.8222 31.0013 14.7724 30.94 14.7724C30.9325 14.7718 30.9298 14.7718 30.9227 14.7724H30.9205ZM30.9205 15.3349C30.8661 15.3425 30.8264 15.3912 30.8268 15.446C30.8273 15.508 30.8777 15.5579 30.94 15.5575C31.0013 15.5568 31.051 15.5072 31.0514 15.446C31.0509 15.3848 31.0013 15.3357 30.94 15.3349C30.9325 15.3343 30.9298 15.3343 30.9227 15.3349H30.9205ZM30.9421 15.8954C30.8793 15.895 30.8284 15.9461 30.8288 16.0089C30.8293 16.0708 30.8797 16.1211 30.9421 16.1199C31.0033 16.1192 31.0507 16.0701 31.0515 16.0089C31.052 15.9469 31.0044 15.8961 30.9421 15.8954ZM30.9323 16.4579C30.8734 16.4617 30.828 16.5115 30.8287 16.5713C30.8292 16.6333 30.8796 16.6835 30.942 16.6823C31.0032 16.6816 31.051 16.6321 31.0514 16.5713C31.052 16.5093 31.004 16.4586 30.942 16.4579C30.9399 16.4578 30.9367 16.4578 30.9341 16.4579H30.9323ZM22.6393 16.7784C22.3971 16.7818 22.1563 16.8812 21.9733 17.0694L20.1647 18.9268C19.7986 19.3028 19.8058 19.9005 20.1824 20.2667C20.5587 20.6337 21.1562 20.6261 21.5223 20.2478L23.3309 18.3884C23.697 18.0119 23.6897 17.4148 23.3135 17.0486C23.1253 16.8656 22.8819 16.7757 22.6397 16.7791L22.6393 16.7784ZM30.9323 17.0206C30.8734 17.0244 30.828 17.0743 30.8287 17.134C30.8292 17.196 30.8796 17.2459 30.942 17.2456C31.0032 17.2448 31.051 17.196 31.0514 17.134C31.052 17.072 31.004 17.0214 30.942 17.0206C30.9399 17.0206 30.9367 17.0206 30.9341 17.0206H30.9323ZM30.9323 17.5832C30.8742 17.5869 30.8291 17.6361 30.8287 17.6947C30.8281 17.7574 30.8793 17.8085 30.942 17.8081C31.004 17.8073 31.0521 17.7567 31.0514 17.6947C31.0509 17.6335 31.0032 17.5835 30.942 17.5832C30.9399 17.5831 30.9367 17.5831 30.9341 17.5832H30.9323ZM30.9323 18.1457C30.8742 18.1495 30.8291 18.1986 30.8287 18.2568C30.8281 18.3195 30.8793 18.3705 30.942 18.3701C31.004 18.3698 31.0521 18.3187 31.0514 18.2568C31.0509 18.1955 31.0032 18.1457 30.942 18.1457C30.9399 18.1456 30.9367 18.1456 30.9341 18.1457H30.9323ZM30.9323 18.7082C30.8742 18.712 30.8291 18.7611 30.8287 18.8193C30.8281 18.882 30.8793 18.933 30.942 18.9327C31.004 18.9319 31.0521 18.8813 31.0514 18.8193C31.0509 18.7581 31.0032 18.7082 30.942 18.7082C30.9399 18.7081 30.9367 18.7081 30.9341 18.7082H30.9323ZM30.9205 19.2707C30.8661 19.2783 30.8264 19.327 30.8268 19.3818C30.8262 19.4445 30.8773 19.4956 30.94 19.4952C31.002 19.4944 31.0521 19.4438 31.0514 19.3818C31.0509 19.3206 31.0013 19.2715 30.94 19.2707C30.9325 19.2702 30.9298 19.2702 30.9223 19.2707H30.9205ZM30.9421 19.8312C30.8793 19.8308 30.8284 19.8818 30.8288 19.9446C30.8293 20.0069 30.8797 20.0569 30.9421 20.0557C31.0033 20.055 31.0507 20.0054 31.0515 19.9446C31.052 19.8826 31.0044 19.8319 30.9421 19.8312ZM30.9341 20.3937C30.8744 20.3975 30.8279 20.447 30.8287 20.5071C30.8291 20.5691 30.8796 20.6193 30.9419 20.6182C31.0032 20.6174 31.0529 20.5683 31.0533 20.5071C31.0539 20.4451 31.0039 20.3941 30.9419 20.3937C30.9393 20.3936 30.9378 20.3936 30.934 20.3937H30.9341ZM30.9341 20.9562C30.8744 20.96 30.8279 21.0095 30.8287 21.0696C30.8291 21.1316 30.8796 21.1811 30.9419 21.1807C31.0032 21.1799 31.0529 21.1312 31.0533 21.0696C31.0539 21.0076 31.0039 20.957 30.9419 20.9562C30.9393 20.9561 30.9378 20.9561 30.934 20.9562H30.9341ZM30.9341 21.5187C30.8744 21.5225 30.8279 21.572 30.8287 21.6321C30.8291 21.6941 30.8796 21.7439 30.9419 21.7435C31.0032 21.7432 31.0529 21.6937 31.0533 21.6321C31.0539 21.5701 31.0039 21.5195 30.9419 21.5187C30.9393 21.5187 30.9378 21.5187 30.934 21.5187H30.9341ZM22.6412 22.0402C22.399 22.0436 22.1582 22.1411 21.9752 22.3294L20.1666 24.1867C19.8004 24.5628 19.8057 25.1604 20.1821 25.5267C20.5583 25.8914 21.1558 25.8861 21.5219 25.5077L23.3305 23.6483C23.6966 23.2719 23.6913 22.6747 23.315 22.3085C23.1269 22.1256 22.8834 22.0357 22.6412 22.0391V22.0402ZM30.9341 22.0814C30.8752 22.0852 30.829 22.134 30.8287 22.1929C30.8281 22.2557 30.8792 22.3067 30.9419 22.3063C31.0039 22.3055 31.054 22.2549 31.0533 22.1929C31.0528 22.1317 31.0032 22.0818 30.9419 22.0814C30.9393 22.0813 30.9378 22.0813 30.934 22.0814H30.9341ZM30.9341 22.6439C30.8752 22.6477 30.829 22.6965 30.8287 22.7554C30.8281 22.8182 30.8792 22.8692 30.9419 22.8688C31.0039 22.8681 31.054 22.8174 31.0533 22.7554C31.0528 22.6942 31.0032 22.6443 30.9419 22.6439C30.9393 22.6438 30.9378 22.6438 30.934 22.6439H30.9341ZM30.9341 23.2064C30.8752 23.2102 30.829 23.2585 30.8287 23.3175C30.8281 23.3802 30.8792 23.4313 30.9419 23.4309C31.0039 23.4301 31.054 23.3795 31.0533 23.3175C31.0528 23.2563 31.0032 23.2072 30.9419 23.2064C30.9393 23.2064 30.9378 23.2064 30.934 23.2064H30.9341ZM30.9224 23.7688C30.868 23.7764 30.8283 23.8252 30.8287 23.8804C30.8281 23.9431 30.8792 23.9941 30.9419 23.9938C31.0039 23.9934 31.0521 23.9424 31.0513 23.8804C31.0509 23.8195 31.0032 23.7696 30.9419 23.7688C30.9344 23.7683 30.9321 23.7683 30.9245 23.7688H30.9224ZM30.9224 24.3314C30.868 24.3389 30.8283 24.3877 30.8287 24.4429C30.8291 24.5049 30.8796 24.5551 30.9419 24.554C31.0032 24.5532 31.0509 24.5037 31.0513 24.4429C31.0509 24.3817 31.0032 24.3321 30.9419 24.3314C30.9344 24.3308 30.9321 24.3308 30.9245 24.3314H30.9224ZM30.9341 24.8919C30.8744 24.8957 30.8279 24.9452 30.8287 25.0053C30.8291 25.0673 30.8796 25.1173 30.9419 25.1165C31.0032 25.1157 31.0529 25.0669 31.0533 25.0053C31.0539 24.9433 31.0039 24.8927 30.9419 24.8919C30.9393 24.8918 30.9378 24.8918 30.934 24.8919H30.9341ZM30.9341 25.4544C30.8744 25.4582 30.8279 25.5077 30.8287 25.5678C30.8291 25.6294 30.8796 25.6797 30.9419 25.6794C31.0032 25.679 31.0529 25.6298 31.0533 25.5678C31.0539 25.5058 31.0039 25.4552 30.9419 25.4544C30.9393 25.4544 30.9378 25.4544 30.934 25.4544H30.9341ZM30.9341 26.017C30.8744 26.0208 30.8279 26.0703 30.8287 26.1304C30.8291 26.1923 30.8796 26.2423 30.9419 26.2419C31.0032 26.2415 31.0529 26.192 31.0533 26.1304C31.0539 26.0684 31.0039 26.0177 30.9419 26.017C30.9393 26.0169 30.9378 26.0169 30.934 26.017H30.9341ZM30.9341 26.5795C30.8752 26.5833 30.829 26.6316 30.8287 26.6906C30.8281 26.7533 30.8792 26.8043 30.9419 26.8039C31.0039 26.8032 31.054 26.7526 31.0533 26.6906C31.0528 26.6293 31.0032 26.5802 30.9419 26.5795C30.9393 26.5794 30.9378 26.5794 30.934 26.5795H30.9341ZM30.9341 27.142C30.8752 27.1458 30.829 27.1941 30.8287 27.2531C30.8281 27.3158 30.8792 27.3668 30.9419 27.3665C31.0039 27.3657 31.054 27.3151 31.0533 27.2531C31.0528 27.1919 31.0032 27.1428 30.9419 27.142C30.9393 27.1419 30.9378 27.1419 30.934 27.142H30.9341ZM22.6412 27.2962C22.399 27.2996 22.1582 27.3971 21.9752 27.5853L20.1666 29.4427C19.8004 29.8188 19.8057 30.4163 20.1821 30.7826C20.5583 31.1495 21.1558 31.144 21.5219 30.7638L23.3305 28.9043C23.6966 28.5279 23.6913 27.9307 23.315 27.5645C23.1269 27.3816 22.8834 27.2916 22.6412 27.295V27.2962ZM30.9341 27.7043C30.8752 27.7077 30.829 27.7565 30.8287 27.8158C30.8281 27.8786 30.8792 27.9296 30.9419 27.9292C31.0039 27.9288 31.054 27.8778 31.0533 27.8158C31.0528 27.7546 31.0032 27.7051 30.9419 27.7043C30.9393 27.7042 30.9378 27.7042 30.934 27.7043H30.9341ZM30.9224 28.2668C30.868 28.2744 30.8264 28.3232 30.8267 28.3784C30.8272 28.4404 30.8776 28.4906 30.94 28.4894C31.0012 28.4887 31.051 28.4396 31.0513 28.3784C31.0509 28.3175 31.0012 28.2676 30.94 28.2668C30.9324 28.2663 30.9321 28.2663 30.9245 28.2668H30.9224ZM30.9421 28.8274C30.8793 28.827 30.8284 28.878 30.8288 28.9408C30.8293 29.0028 30.8797 29.0523 30.9421 29.052C31.0033 29.0512 31.0527 29.0024 31.0534 28.9408C31.054 28.8788 31.0044 28.8281 30.9421 28.8274ZM30.9341 29.3899C30.8744 29.3937 30.8279 29.4432 30.8287 29.5033C30.8291 29.5653 30.8796 29.6152 30.9419 29.6148C31.0032 29.6145 31.0529 29.5653 31.0533 29.5033C31.0539 29.4413 31.0039 29.3907 30.9419 29.3899C30.9393 29.3898 30.9378 29.3898 30.934 29.3899H30.9341ZM30.9341 29.9524C30.8744 29.9562 30.8279 30.0057 30.8287 30.0658C30.8291 30.1274 30.8796 30.1777 30.9419 30.1774C31.0032 30.177 31.0529 30.1274 31.0533 30.0658C31.0539 30.0038 31.0039 29.9532 30.9419 29.9524C30.9393 29.9524 30.9378 29.9524 30.934 29.9524H30.9341ZM30.9341 30.515C30.8744 30.5187 30.8279 30.5683 30.8287 30.6283C30.8291 30.6903 30.8796 30.7405 30.9419 30.7398C31.0032 30.7394 31.0529 30.6896 31.0533 30.6283C31.0539 30.5664 31.0039 30.5157 30.9419 30.515C30.9393 30.5148 30.9378 30.5148 30.934 30.515H30.9341ZM30.9341 31.0775C30.8752 31.0813 30.829 31.1296 30.8287 31.1886C30.8281 31.2513 30.8792 31.3023 30.9419 31.3019C31.0039 31.3012 31.054 31.2505 31.0533 31.1886C31.0528 31.1273 31.0032 31.0782 30.9419 31.0775C30.9393 31.0774 30.9378 31.0774 30.934 31.0775H30.9341ZM30.9341 31.6399C30.8752 31.6433 30.829 31.6921 30.8287 31.7514C30.8281 31.8142 30.8792 31.8652 30.9419 31.8648C31.0039 31.8644 31.054 31.8134 31.0533 31.7514C31.0528 31.6906 31.0032 31.6406 30.9419 31.6399C30.9393 31.6398 30.9378 31.6398 30.934 31.6399H30.9341ZM30.9224 32.2024C30.868 32.21 30.8264 32.2588 30.8267 32.314C30.8261 32.3767 30.8773 32.4277 30.94 32.4273C31.002 32.427 31.0521 32.3759 31.0513 32.314C31.0509 32.2527 31.0012 32.2032 30.94 32.2024C30.9324 32.2018 30.9321 32.2018 30.9245 32.2024H30.9224ZM22.6412 32.5558C22.399 32.5592 22.1582 32.6568 21.9752 32.845L20.1666 34.7043C19.8004 35.0804 19.8077 35.6779 20.184 36.0441C20.5602 36.4111 21.1577 36.4035 21.5238 36.0252L23.3324 34.1659C23.6985 33.7894 23.6913 33.1923 23.3146 32.8261C23.1265 32.6431 22.883 32.5531 22.6408 32.5565L22.6412 32.5558ZM30.9224 32.7648C30.868 32.7724 30.8264 32.8216 30.8267 32.8764C30.8272 32.9383 30.8776 32.9882 30.94 32.9874C31.0012 32.9867 31.051 32.938 31.0513 32.8764C31.0509 32.8155 31.0012 32.7652 30.94 32.7648C30.9324 32.7643 30.9321 32.7643 30.9245 32.7648H30.9224ZM30.9421 33.3254C30.8793 33.325 30.8284 33.376 30.8288 33.4388C30.8293 33.5004 30.8797 33.5506 30.9421 33.5502C31.0033 33.5498 31.0527 33.5008 31.0534 33.4388C31.054 33.3768 31.0044 33.3261 30.9421 33.3254ZM30.9341 33.8879C30.8744 33.8917 30.8279 33.9412 30.8287 34.0013C30.8291 34.0633 30.8796 34.1131 30.9419 34.1127C31.0032 34.1123 31.0529 34.0629 31.0533 34.0013C31.0539 33.9393 31.0039 33.8887 30.9419 33.8879C30.9393 33.8879 30.9378 33.8879 30.934 33.8879H30.9341ZM30.9341 34.4503C30.8744 34.4541 30.8279 34.5036 30.8287 34.5637C30.8291 34.6253 30.8796 34.6756 30.9419 34.6752C31.0032 34.6749 31.0529 34.6253 31.0533 34.5637C31.0539 34.5017 31.0039 34.4511 30.9419 34.4503C30.9393 34.4502 30.9378 34.4502 30.934 34.4503H30.9341ZM30.9341 35.0128C30.8752 35.0166 30.8291 35.0651 30.8287 35.124C30.8281 35.1868 30.8792 35.2378 30.9419 35.2374C31.0039 35.2367 31.054 35.186 31.0533 35.124C31.0528 35.0628 31.0032 35.0136 30.9419 35.0128C30.9393 35.0127 30.9378 35.0127 30.934 35.0128H30.9341ZM30.9341 35.5754C30.8752 35.5788 30.8291 35.6274 30.8287 35.6868C30.8281 35.7495 30.8792 35.8005 30.9419 35.8002C31.0039 35.7998 31.054 35.7488 31.0533 35.6868C31.0528 35.6256 31.0032 35.5761 30.9419 35.5754C30.9393 35.5753 30.9378 35.5753 30.934 35.5754H30.9341ZM30.9341 36.1379C30.8752 36.1413 30.8291 36.19 30.8287 36.2493C30.8281 36.312 30.8792 36.3631 30.9419 36.3627C31.0039 36.3623 31.054 36.3113 31.0533 36.2493C31.0528 36.1885 31.0032 36.1386 30.9419 36.1379C30.9393 36.1378 30.9378 36.1378 30.934 36.1379H30.9341ZM30.9341 36.7004C30.8752 36.7038 30.8291 36.7525 30.8287 36.8118C30.8281 36.8746 30.8792 36.9256 30.9419 36.9252C31.0039 36.9245 31.054 36.8738 31.0533 36.8118C31.0528 36.7506 31.0032 36.7012 30.9419 36.7004C30.9393 36.7003 30.9378 36.7003 30.934 36.7004H30.9341ZM30.9224 37.2628C30.868 37.2704 30.8283 37.3192 30.8287 37.374C30.8291 37.436 30.8796 37.4862 30.9419 37.4854C31.0032 37.4851 31.0529 37.4352 31.0533 37.374C31.0528 37.3128 31.0032 37.2636 30.9419 37.2628C30.9344 37.2622 30.9321 37.2622 30.9245 37.2628H30.9224ZM30.9341 37.8234C30.8744 37.8272 30.8279 37.8767 30.8287 37.9368C30.8291 37.9984 30.8796 38.0487 30.9419 38.0483C31.0032 38.0479 31.0529 37.9984 31.0533 37.9368C31.0539 37.8748 31.0039 37.8241 30.9419 37.8234C30.9393 37.8233 30.9378 37.8233 30.934 37.8234H30.9341ZM30.9341 38.3859C30.8744 38.3897 30.8279 38.4392 30.8287 38.4993C30.8291 38.5613 30.8796 38.6112 30.9419 38.6108C31.0032 38.6104 31.0529 38.5609 31.0533 38.4993C31.0539 38.4373 31.0039 38.3867 30.9419 38.3859C30.9393 38.3858 30.9378 38.3858 30.934 38.3859H30.9341ZM30.9341 38.9484C30.8744 38.9522 30.8279 39.0017 30.8287 39.0618C30.8291 39.1238 30.8796 39.1736 30.9419 39.1729C31.0032 39.1721 31.0529 39.1234 31.0533 39.0618C31.0539 38.9998 31.0039 38.9492 30.9419 38.9484C30.9393 38.9483 30.9378 38.9483 30.934 38.9484H30.9341ZM30.9341 39.5109C30.8752 39.5147 30.8291 39.5631 30.8287 39.622C30.8281 39.6848 30.8792 39.7358 30.9419 39.7354C31.0039 39.7346 31.054 39.684 31.0533 39.622C31.0528 39.5608 31.0032 39.5117 30.9419 39.5109C30.9393 39.5108 30.9378 39.5108 30.934 39.5109H30.9341ZM30.9341 40.0734C30.8752 40.0768 30.8291 40.1256 30.8287 40.1849C30.8281 40.2476 30.8792 40.2987 30.9419 40.2983C31.0039 40.2979 31.054 40.2469 31.0533 40.1849C31.0528 40.1237 31.0032 40.0741 30.9419 40.0734C30.9393 40.0733 30.9378 40.0733 30.934 40.0734H30.9341ZM30.9341 40.6359C30.8752 40.6393 30.8291 40.6881 30.8287 40.7474C30.8281 40.8102 30.8792 40.8612 30.9419 40.8608C31.0039 40.86 31.054 40.8094 31.0533 40.7474C31.0528 40.6866 31.0032 40.6366 30.9419 40.6359C30.9393 40.6358 30.9378 40.6358 30.934 40.6359H30.9341ZM30.9224 41.1984C30.868 41.206 30.8283 41.2547 30.8287 41.3095C30.8281 41.3722 30.8792 41.4232 30.9419 41.4229C31.0039 41.4221 31.054 41.3715 31.0533 41.3095C31.0528 41.2482 31.0032 41.1992 30.9419 41.1984C30.9344 41.1978 30.9321 41.1978 30.9245 41.1984H30.9224ZM30.9224 41.7609C30.868 41.7685 30.8283 41.8168 30.8287 41.872C30.8291 41.934 30.8796 41.9839 30.9419 41.9835C31.0032 41.9832 31.0529 41.9336 31.0533 41.872C31.0528 41.8108 31.0032 41.7617 30.9419 41.7609C30.9344 41.7604 30.9321 41.7604 30.9245 41.7609H30.9224ZM30.9421 42.3215C30.8793 42.3211 30.8284 42.3721 30.8288 42.4349C30.8293 42.4965 30.8797 42.5467 30.9421 42.5463C31.0033 42.5459 31.0527 42.4965 31.0534 42.4349C31.054 42.3729 31.0044 42.3222 30.9421 42.3215ZM30.9341 42.884C30.8744 42.8878 30.8279 42.9373 30.8287 42.9974C30.8292 43.0594 30.8796 43.1088 30.942 43.1085C31.0032 43.1077 31.0529 43.059 31.0533 42.9974C31.0539 42.9354 31.0039 42.8848 30.942 42.884C30.9394 42.8839 30.9378 42.8839 30.934 42.884H30.9341Z" fill="#333333"/>
</svg>
