<svg width="48" height="48" viewBox="0 0 48 48" fill="none" xmlns="http://www.w3.org/2000/svg">
<path d="M14.3457 4.09375C13.4763 4.09375 12.7773 4.79267 12.7773 5.66211V42.5234C12.7773 43.3929 13.4763 44.0937 14.3457 44.0937H34.0508C34.9202 44.0937 35.6191 43.3929 35.6191 42.5234V5.66211C35.6191 4.79267 34.9202 4.09375 34.0508 4.09375H14.3457ZM14.7754 4.59375H33.6152C34.4465 4.59375 35.1172 5.27733 35.1172 6.125V42.0644C35.1172 42.9122 34.4465 43.5937 33.6152 43.5937H14.7754C13.9441 43.5937 13.2754 42.9122 13.2754 42.0644V6.125C13.2754 5.27733 13.9441 4.59375 14.7754 4.59375ZM24.2227 15.4453C23.339 15.4453 22.6231 16.1613 22.623 17.0449C22.6231 17.9286 23.339 18.6445 24.2227 18.6445C25.1063 18.6445 25.8222 17.9286 25.8223 17.0449C25.8222 16.1613 25.1063 15.4453 24.2227 15.4453ZM24.2227 15.9062C24.8519 15.9057 25.3619 16.4156 25.3613 17.0449C25.3609 17.6735 24.8512 18.1822 24.2227 18.1816C23.5948 18.1812 23.0863 17.6728 23.0859 17.0449C23.0853 16.4163 23.594 15.9067 24.2227 15.9062ZM13.7949 29.373C13.7329 29.3735 13.6832 29.424 13.6836 29.4863C13.6841 29.5476 13.7333 29.5969 13.7949 29.5977C13.8569 29.5982 13.9074 29.5487 13.9082 29.4863C13.9088 29.4236 13.8577 29.3727 13.7949 29.373ZM14.3574 29.373C14.2954 29.3735 14.2438 29.424 14.2441 29.4863C14.2446 29.5476 14.2958 29.5973 14.3574 29.5977C14.4187 29.5972 14.468 29.5476 14.4687 29.4863C14.4693 29.4787 14.4693 29.4744 14.4687 29.4668C14.4611 29.4124 14.4126 29.3727 14.3574 29.373ZM14.9199 29.373C14.8572 29.3724 14.8063 29.4236 14.8066 29.4863C14.8071 29.5483 14.8579 29.5984 14.9199 29.5977C14.9812 29.5972 15.0305 29.5476 15.0312 29.4863C15.0318 29.4787 15.0318 29.4744 15.0312 29.4668C15.0236 29.4124 14.9751 29.3727 14.9199 29.373ZM15.4824 29.373C15.4197 29.3724 15.3688 29.4236 15.3691 29.4863C15.3696 29.5483 15.4204 29.5984 15.4824 29.5977C15.5437 29.5972 15.593 29.5476 15.5937 29.4863C15.5938 29.4837 15.5938 29.4823 15.5937 29.4785C15.5901 29.4196 15.5418 29.3734 15.4824 29.373ZM16.0449 29.373C15.9822 29.3724 15.9313 29.4236 15.9316 29.4863C15.9321 29.5483 15.9829 29.5984 16.0449 29.5977C16.1062 29.5972 16.1555 29.5476 16.1562 29.4863C16.1563 29.4837 16.1563 29.4823 16.1562 29.4785C16.1526 29.4196 16.1043 29.3734 16.0449 29.373ZM16.6074 29.373C16.5447 29.3724 16.4938 29.4236 16.4941 29.4863C16.4946 29.5483 16.5454 29.5984 16.6074 29.5977C16.6687 29.5972 16.718 29.5476 16.7187 29.4863C16.7188 29.4837 16.7188 29.4823 16.7187 29.4785C16.7151 29.4196 16.6668 29.3734 16.6074 29.373ZM17.168 29.373C17.106 29.3735 17.0563 29.424 17.0566 29.4863C17.0571 29.5476 17.1064 29.5973 17.168 29.5977C17.2299 29.5983 17.2805 29.5483 17.2812 29.4863C17.2814 29.4837 17.2814 29.4823 17.2812 29.4785C17.2776 29.4188 17.2281 29.3723 17.168 29.373ZM17.7305 29.373C17.6685 29.3735 17.6188 29.424 17.6191 29.4863C17.6196 29.5476 17.6689 29.5973 17.7305 29.5977C17.7924 29.5983 17.843 29.5483 17.8437 29.4863C17.8439 29.4837 17.8439 29.4823 17.8437 29.4785C17.8401 29.4188 17.7906 29.3723 17.7305 29.373ZM18.293 29.373C18.231 29.3735 18.1813 29.424 18.1816 29.4863C18.1821 29.5476 18.2314 29.5973 18.293 29.5977C18.3549 29.5983 18.4055 29.5483 18.4062 29.4863C18.4063 29.4837 18.4063 29.4823 18.4062 29.4785C18.4026 29.4188 18.3531 29.3723 18.293 29.373ZM18.8555 29.373C18.7935 29.3735 18.7434 29.424 18.7441 29.4863C18.7446 29.5476 18.7942 29.5973 18.8555 29.5977C18.9167 29.5972 18.966 29.5476 18.9668 29.4863C18.9674 29.4787 18.9674 29.4744 18.9668 29.4668C18.9592 29.4124 18.9106 29.3727 18.8555 29.373ZM19.418 29.373C19.3552 29.3724 19.3043 29.4236 19.3047 29.4863C19.3052 29.5483 19.356 29.5984 19.418 29.5977C19.4792 29.5972 19.5285 29.5476 19.5293 29.4863C19.5294 29.4837 19.5294 29.4823 19.5293 29.4785C19.5257 29.4196 19.4773 29.3734 19.418 29.373ZM19.9805 29.373C19.9177 29.3724 19.8668 29.4236 19.8672 29.4863C19.8677 29.5483 19.9185 29.5984 19.9805 29.5977C20.0417 29.5972 20.091 29.5476 20.0918 29.4863C20.0919 29.4837 20.0919 29.4823 20.0918 29.4785C20.0882 29.4196 20.0398 29.3734 19.9805 29.373ZM20.543 29.373C20.4802 29.3724 20.4293 29.4236 20.4297 29.4863C20.4302 29.5483 20.481 29.5984 20.543 29.5977C20.6042 29.5972 20.6535 29.5476 20.6543 29.4863C20.6544 29.4837 20.6544 29.4823 20.6543 29.4785C20.6507 29.4196 20.6023 29.3734 20.543 29.373ZM21.1055 29.373C21.0427 29.3724 20.9918 29.4236 20.9922 29.4863C20.9927 29.5483 21.0435 29.5984 21.1055 29.5977C21.1667 29.5972 21.216 29.5476 21.2168 29.4863C21.2169 29.4837 21.2169 29.4823 21.2168 29.4785C21.2132 29.4196 21.1648 29.3734 21.1055 29.373ZM21.666 29.373C21.604 29.3735 21.5543 29.424 21.5547 29.4863C21.5552 29.5476 21.6044 29.5973 21.666 29.5977C21.728 29.5983 21.7785 29.5483 21.7793 29.4863C21.7794 29.4837 21.7794 29.4823 21.7793 29.4785C21.7757 29.4188 21.7261 29.3723 21.666 29.373ZM22.2285 29.373C22.1665 29.3735 22.1168 29.424 22.1172 29.4863C22.1177 29.5476 22.1669 29.5973 22.2285 29.5977C22.2905 29.5983 22.341 29.5483 22.3418 29.4863C22.3419 29.4837 22.3419 29.4823 22.3418 29.4785C22.3382 29.4188 22.2886 29.3723 22.2285 29.373ZM22.791 29.373C22.729 29.3735 22.6793 29.424 22.6797 29.4863C22.6802 29.5476 22.7294 29.5969 22.791 29.5977C22.853 29.5982 22.9035 29.5487 22.9043 29.4863C22.9049 29.4236 22.8538 29.3727 22.791 29.373ZM23.3535 29.373C23.2915 29.3735 23.2418 29.424 23.2422 29.4863C23.2427 29.5476 23.2919 29.5973 23.3535 29.5977C23.4147 29.5972 23.4645 29.5476 23.4648 29.4863C23.4654 29.4787 23.4654 29.4744 23.4648 29.4668C23.4572 29.4124 23.4083 29.3727 23.3535 29.373ZM23.916 29.373C23.8533 29.3724 23.8024 29.4236 23.8027 29.4863C23.8032 29.5483 23.854 29.5984 23.916 29.5977C23.9772 29.5972 24.0266 29.5476 24.0273 29.4863C24.0279 29.4787 24.0279 29.4744 24.0273 29.4668C24.0197 29.4124 23.9712 29.3727 23.916 29.373ZM24.4785 29.373C24.4158 29.3724 24.3649 29.4236 24.3652 29.4863C24.3657 29.5483 24.4165 29.5984 24.4785 29.5977C24.5397 29.5972 24.5891 29.5476 24.5898 29.4863C24.5899 29.4837 24.5899 29.4823 24.5898 29.4785C24.5862 29.4196 24.5379 29.3734 24.4785 29.373ZM25.041 29.373C24.9783 29.3724 24.9274 29.4236 24.9277 29.4863C24.9282 29.5483 24.979 29.5984 25.041 29.5977C25.1022 29.5972 25.1516 29.5476 25.1523 29.4863C25.1525 29.4837 25.1525 29.4823 25.1523 29.4785C25.1487 29.4196 25.1004 29.3734 25.041 29.373ZM25.6016 29.373C25.5396 29.3735 25.4895 29.424 25.4902 29.4863C25.4907 29.5476 25.5403 29.5973 25.6016 29.5977C25.6635 29.5983 25.7141 29.5483 25.7148 29.4863C25.715 29.4837 25.715 29.4823 25.7148 29.4785C25.7112 29.4188 25.6617 29.3723 25.6016 29.373ZM26.1641 29.373C26.1021 29.3735 26.0524 29.424 26.0527 29.4863C26.0532 29.5476 26.1025 29.5973 26.1641 29.5977C26.226 29.5983 26.2766 29.5483 26.2773 29.4863C26.2774 29.4837 26.2774 29.4823 26.2773 29.4785C26.2737 29.4188 26.2242 29.3723 26.1641 29.373ZM26.7266 29.373C26.6646 29.3735 26.6149 29.424 26.6152 29.4863C26.6157 29.5476 26.665 29.5973 26.7266 29.5977C26.7885 29.5983 26.8391 29.5483 26.8398 29.4863C26.8399 29.4837 26.8399 29.4823 26.8398 29.4785C26.8362 29.4188 26.7867 29.3723 26.7266 29.373ZM27.2891 29.373C27.2271 29.3735 27.1774 29.424 27.1777 29.4863C27.1782 29.5476 27.2275 29.5969 27.2891 29.5977C27.351 29.5982 27.4016 29.5487 27.4023 29.4863C27.4029 29.4236 27.3518 29.3727 27.2891 29.373ZM27.8516 29.373C27.7896 29.3735 27.7395 29.424 27.7402 29.4863C27.7407 29.5476 27.7903 29.5973 27.8516 29.5977C27.9128 29.5972 27.9621 29.5476 27.9629 29.4863C27.9635 29.4787 27.9635 29.4744 27.9629 29.4668C27.9553 29.4124 27.9067 29.3727 27.8516 29.373ZM28.4141 29.373C28.3513 29.3724 28.3004 29.4236 28.3008 29.4863C28.3013 29.5483 28.3521 29.5984 28.4141 29.5977C28.4753 29.5972 28.5246 29.5476 28.5254 29.4863C28.5255 29.4837 28.5255 29.4823 28.5254 29.4785C28.5218 29.4196 28.4734 29.3734 28.4141 29.373ZM28.9766 29.373C28.9138 29.3724 28.8629 29.4236 28.8633 29.4863C28.8638 29.5483 28.9146 29.5984 28.9766 29.5977C29.0378 29.5972 29.0871 29.5476 29.0879 29.4863C29.088 29.4837 29.088 29.4823 29.0879 29.4785C29.0843 29.4196 29.0359 29.3734 28.9766 29.373ZM29.5391 29.373C29.4763 29.3724 29.4254 29.4236 29.4258 29.4863C29.4263 29.5483 29.4771 29.5984 29.5391 29.5977C29.6003 29.5972 29.6496 29.5476 29.6504 29.4863C29.6505 29.4837 29.6505 29.4823 29.6504 29.4785C29.6468 29.4196 29.5984 29.3734 29.5391 29.373ZM30.0996 29.373C30.0376 29.3735 29.9879 29.424 29.9883 29.4863C29.9888 29.5476 30.038 29.5973 30.0996 29.5977C30.1616 29.5983 30.2121 29.5483 30.2129 29.4863C30.213 29.4837 30.213 29.4823 30.2129 29.4785C30.2093 29.4188 30.1597 29.3723 30.0996 29.373ZM30.6621 29.373C30.6001 29.3735 30.5504 29.424 30.5508 29.4863C30.5513 29.5476 30.6005 29.5973 30.6621 29.5977C30.7241 29.5983 30.7746 29.5483 30.7754 29.4863C30.7755 29.4837 30.7755 29.4823 30.7754 29.4785C30.7718 29.4188 30.7222 29.3723 30.6621 29.373ZM31.2246 29.373C31.1626 29.3735 31.1129 29.424 31.1133 29.4863C31.1138 29.5476 31.163 29.5973 31.2246 29.5977C31.2866 29.5983 31.3371 29.5483 31.3379 29.4863C31.338 29.4837 31.338 29.4823 31.3379 29.4785C31.3343 29.4188 31.2847 29.3723 31.2246 29.373ZM31.7871 29.373C31.7251 29.3735 31.675 29.424 31.6758 29.4863C31.6763 29.5476 31.7259 29.5973 31.7871 29.5977C31.8483 29.5972 31.8977 29.5476 31.8984 29.4863C31.899 29.4787 31.899 29.4744 31.8984 29.4668C31.8908 29.4124 31.8423 29.3727 31.7871 29.373ZM32.3496 29.373C32.2869 29.3724 32.2359 29.4236 32.2363 29.4863C32.2368 29.5483 32.2876 29.5984 32.3496 29.5977C32.4108 29.5972 32.4602 29.5476 32.4609 29.4863C32.4615 29.4787 32.4615 29.4744 32.4609 29.4668C32.4533 29.4124 32.4048 29.3727 32.3496 29.373ZM32.9121 29.373C32.8494 29.3724 32.7984 29.4236 32.7988 29.4863C32.7993 29.5483 32.8501 29.5984 32.9121 29.5977C32.9733 29.5972 33.0227 29.5476 33.0234 29.4863C33.0235 29.4837 33.0235 29.4823 33.0234 29.4785C33.0198 29.4196 32.9714 29.3734 32.9121 29.373ZM33.4746 29.373C33.4119 29.3724 33.3609 29.4236 33.3613 29.4863C33.3618 29.5483 33.4126 29.5984 33.4746 29.5977C33.5358 29.5972 33.5856 29.5476 33.5859 29.4863C33.586 29.4837 33.586 29.4823 33.5859 29.4785C33.5823 29.4196 33.5336 29.3734 33.4746 29.373ZM34.0371 29.373C33.9744 29.3724 33.9234 29.4236 33.9238 29.4863C33.9243 29.5483 33.9751 29.5984 34.0371 29.5977C34.0983 29.5972 34.1481 29.5476 34.1484 29.4863C34.1485 29.4837 34.1485 29.4823 34.1484 29.4785C34.1448 29.4196 34.0961 29.3734 34.0371 29.373ZM34.5977 29.373C34.5357 29.3735 34.4859 29.424 34.4863 29.4863C34.4868 29.5476 34.536 29.5973 34.5977 29.5977C34.6596 29.5983 34.7102 29.5483 34.7109 29.4863C34.711 29.4837 34.711 29.4823 34.7109 29.4785C34.7073 29.4188 34.6577 29.3723 34.5977 29.373Z" fill="#333333"/>
</svg>
