<svg width="48" height="48" viewBox="0 0 48 48" fill="none" xmlns="http://www.w3.org/2000/svg">
<path d="M28.9062 4.08199C23.986 4.06774 19.1218 4.12496 14.1465 4.12496C13.277 4.12496 12.5801 4.82388 12.5801 5.69332V42.5546C12.5801 43.4241 13.277 44.125 14.1465 44.125H33.8516C34.721 44.125 35.4199 43.4241 35.4199 42.5546V5.69332C35.4199 4.82388 34.721 4.12496 33.8516 4.12496C32.1929 4.09962 30.5463 4.08674 28.9062 4.08199ZM23.9922 5.15621C23.996 5.15614 23.9974 5.15614 24 5.15621C24.0612 5.15697 24.1109 5.20631 24.1113 5.26754C24.1121 5.32952 24.062 5.38033 24 5.38082C23.9373 5.3812 23.8861 5.33028 23.8867 5.26754C23.8871 5.20858 23.9332 5.15973 23.9922 5.15621ZM23.9922 5.71871C23.996 5.71864 23.9974 5.71864 24 5.71871C24.0612 5.71947 24.1109 5.77076 24.1113 5.83199C24.1121 5.89398 24.062 5.94478 24 5.94527C23.9373 5.94565 23.8861 5.89473 23.8867 5.83199C23.8871 5.77303 23.9332 5.72226 23.9922 5.71871ZM19.9102 6.21481C20.1524 6.2114 20.3958 6.30141 20.584 6.48434C20.9604 6.85046 20.9677 7.44774 20.6016 7.82418L18.793 9.68355C18.4268 10.0589 17.8294 10.0693 17.4531 9.70309C17.0767 9.33696 17.0694 8.73931 17.4355 8.36324L19.2441 6.50582C19.4272 6.3176 19.668 6.22009 19.9102 6.21676V6.21481ZM23.9824 6.28121H23.9844C23.9919 6.28064 23.9924 6.28064 24 6.28121C24.0612 6.28197 24.1109 6.33326 24.1113 6.39449C24.1109 6.4561 24.0612 6.50338 24 6.50387C23.9376 6.50462 23.8872 6.45648 23.8867 6.39449C23.8863 6.33931 23.928 6.28877 23.9824 6.28121ZM30.252 6.56246C30.4942 6.55906 30.7376 6.64906 30.9258 6.83199C31.3022 7.19812 31.3095 7.7954 30.9434 8.17184L29.1348 10.0312C28.7686 10.4058 28.1712 10.417 27.7949 10.0507C27.4185 9.68462 27.4112 9.08696 27.7773 8.7109L29.5859 6.85348C29.769 6.66526 30.0098 6.5677 30.252 6.56441V6.56246ZM24.002 6.84176C24.0643 6.84251 24.1138 6.89501 24.1133 6.95699C24.1125 7.0186 24.0632 7.06588 24.002 7.06637C23.9396 7.0675 23.8892 7.01898 23.8887 6.95699C23.8883 6.89425 23.9392 6.84115 24.002 6.84176ZM23.9922 7.40426C23.996 7.40414 23.9974 7.40414 24 7.40426C24.062 7.40501 24.112 7.45751 24.1113 7.51949C24.1109 7.58072 24.0612 7.63033 24 7.63082C23.9376 7.6312 23.8872 7.58148 23.8867 7.51949C23.886 7.4594 23.9325 7.40785 23.9922 7.40426ZM23.9922 7.9648C23.996 7.96473 23.9974 7.96473 24 7.9648C24.062 7.96556 24.112 8.01806 24.1113 8.08004C24.1109 8.14165 24.0612 8.18896 24 8.18941C23.9376 8.18979 23.8872 8.14202 23.8867 8.08004C23.886 8.01994 23.9325 7.96843 23.9922 7.9648ZM23.9922 8.5273C23.996 8.52723 23.9974 8.52723 24 8.5273C24.062 8.52806 24.112 8.58056 24.1113 8.64254C24.1109 8.70415 24.0612 8.75338 24 8.75387C23.9376 8.75425 23.8872 8.70452 23.8867 8.64254C23.886 8.58244 23.9325 8.5309 23.9922 8.5273ZM23.9922 9.0898C23.996 9.08973 23.9974 9.08973 24 9.0898C24.0612 9.09056 24.1109 9.14186 24.1113 9.20309C24.1121 9.26507 24.062 9.31588 24 9.31637C23.9373 9.31675 23.8861 9.26583 23.8867 9.20309C23.8871 9.14413 23.9332 9.09336 23.9922 9.0898ZM23.9922 9.6523C23.996 9.65219 23.9974 9.65219 24 9.6523C24.0612 9.65306 24.1109 9.7024 24.1113 9.76363C24.1121 9.82562 24.062 9.87642 24 9.87691C23.9373 9.87729 23.8861 9.82637 23.8867 9.76363C23.8871 9.70467 23.9332 9.65586 23.9922 9.6523ZM23.9805 10.2148H23.9844C23.9919 10.2142 23.9924 10.2142 24 10.2148C24.0612 10.2156 24.1109 10.2688 24.1113 10.33C24.1121 10.392 24.062 10.4428 24 10.4433C23.9373 10.4437 23.8861 10.3928 23.8867 10.33C23.8863 10.2749 23.926 10.2224 23.9805 10.2148ZM24.002 10.7754C24.0643 10.7761 24.1138 10.8306 24.1133 10.8925C24.1125 10.9541 24.0632 10.9995 24.002 11C23.9396 11.0003 23.8892 10.9545 23.8887 10.8925C23.8883 10.8298 23.9392 10.7747 24.002 10.7754ZM30.252 11.2578C30.4942 11.2544 30.7376 11.3444 30.9258 11.5273C31.3022 11.8934 31.3095 12.4907 30.9434 12.8671L29.1348 14.7265C28.7686 15.1041 28.1712 15.1123 27.7949 14.7461C27.4185 14.3799 27.4112 13.7823 27.7773 13.4062L29.5859 11.5488C29.769 11.3606 30.0098 11.263 30.252 11.2597V11.2578ZM24.002 11.3379C24.0643 11.3386 24.1138 11.3911 24.1133 11.4531C24.1125 11.5139 24.0632 11.562 24.002 11.5625C23.9396 11.5636 23.8892 11.5151 23.8887 11.4531C23.8883 11.3903 23.9392 11.3372 24.002 11.3379ZM19.9102 11.4746H19.9121C20.1543 11.4712 20.3978 11.5612 20.5859 11.7441C20.9624 12.1102 20.9677 12.7075 20.6016 13.0839L18.793 14.9433C18.4268 15.3186 17.8294 15.3291 17.4531 14.9629C17.0767 14.5967 17.0694 13.9991 17.4355 13.623L19.2441 11.7656C19.4272 11.5774 19.668 11.4798 19.9102 11.4765V11.4746ZM23.9922 11.9004C23.996 11.9002 23.9974 11.9002 24 11.9004C24.062 11.9011 24.1119 11.9536 24.1113 12.0156C24.1109 12.0768 24.0612 12.1284 24 12.1289C23.9376 12.1296 23.8872 12.0776 23.8867 12.0156C23.886 11.9555 23.9325 11.904 23.9922 11.9004ZM23.9922 12.4629C23.996 12.4628 23.9974 12.4628 24 12.4629C24.062 12.4632 24.1119 12.5161 24.1113 12.5781C24.1109 12.6393 24.0612 12.6909 24 12.6914C23.9376 12.6921 23.8872 12.6401 23.8867 12.5781C23.886 12.518 23.9325 12.4664 23.9922 12.4629ZM23.9922 13.0254C23.996 13.0253 23.9974 13.0253 24 13.0254C24.0612 13.0261 24.1109 13.0774 24.1113 13.1386C24.1121 13.2006 24.062 13.2514 24 13.2519C23.9373 13.2523 23.8861 13.2014 23.8867 13.1386C23.8871 13.0793 23.9332 13.0289 23.9922 13.0254ZM23.9922 13.5879C23.996 13.5878 23.9974 13.5878 24 13.5879C24.0612 13.5886 24.1109 13.638 24.1113 13.6992C24.1121 13.7612 24.062 13.812 24 13.8125C23.9373 13.8128 23.8861 13.7619 23.8867 13.6992C23.8871 13.6402 23.9332 13.5914 23.9922 13.5879ZM23.9922 14.1504C23.996 14.1502 23.9974 14.1502 24 14.1504C24.0612 14.1507 24.1109 14.2005 24.1113 14.2617C24.1121 14.3237 24.062 14.3745 24 14.375C23.9373 14.3753 23.8861 14.3244 23.8867 14.2617C23.8871 14.2027 23.9332 14.1539 23.9922 14.1504ZM23.9805 14.7129H23.9844C23.9919 14.7123 23.9924 14.7123 24 14.7129C24.0612 14.7132 24.1109 14.7649 24.1113 14.8261C24.1121 14.8881 24.062 14.9389 24 14.9394C23.9373 14.9398 23.8861 14.8889 23.8867 14.8261C23.8863 14.7713 23.926 14.7204 23.9805 14.7129ZM23.9805 15.2754H23.9824C23.99 15.2748 23.9924 15.2748 24 15.2754C24.0612 15.2761 24.1109 15.3274 24.1113 15.3886C24.1109 15.4499 24.0612 15.4975 24 15.498C23.9376 15.4988 23.8872 15.4506 23.8867 15.3886C23.8863 15.3335 23.926 15.2829 23.9805 15.2754ZM24.002 15.8359C24.0643 15.8367 24.1138 15.8891 24.1133 15.9511C24.1125 16.012 24.0632 16.06 24.002 16.0605C23.9396 16.0613 23.8892 16.0131 23.8887 15.9511C23.8883 15.8884 23.9392 15.8353 24.002 15.8359ZM23.9922 16.3984C23.996 16.3983 23.9974 16.3983 24 16.3984C24.062 16.3992 24.1119 16.4516 24.1113 16.5136C24.1109 16.5749 24.0612 16.6245 24 16.625C23.9376 16.6257 23.8872 16.5756 23.8867 16.5136C23.886 16.4535 23.9325 16.402 23.9922 16.3984ZM30.252 16.4726C30.4942 16.4692 30.7376 16.5592 30.9258 16.7421C31.3022 17.1083 31.3095 17.7056 30.9434 18.082L29.1348 19.9414C28.7686 20.3189 28.1712 20.3252 27.7949 19.9589C27.4185 19.5928 27.4112 18.9952 27.7773 18.6191L29.5859 16.7617C29.769 16.5735 30.0098 16.4759 30.252 16.4726ZM19.9121 16.7324C20.1543 16.729 20.3978 16.819 20.5859 17.0019C20.9624 17.368 20.9696 17.9653 20.6035 18.3418L18.7949 20.2011C18.4288 20.5787 17.8313 20.5869 17.4551 20.2207C17.0786 19.8545 17.0714 19.2569 17.4375 18.8808L19.2461 17.0234C19.4292 16.8352 19.6699 16.7376 19.9121 16.7343V16.7324ZM23.9922 16.9609C23.996 16.9608 23.9974 16.9608 24 16.9609C24.062 16.9617 24.1119 17.0141 24.1113 17.0761C24.1109 17.1377 24.0612 17.187 24 17.1875C23.9376 17.1878 23.8872 17.1381 23.8867 17.0761C23.886 17.016 23.9325 16.9645 23.9922 16.9609ZM23.9922 17.5234C23.996 17.5233 23.9974 17.5233 24 17.5234C24.0612 17.5234 24.1109 17.5735 24.1113 17.6347C24.1121 17.6967 24.062 17.7475 24 17.748C23.9373 17.7484 23.8861 17.6975 23.8867 17.6347C23.8871 17.5758 23.9332 17.527 23.9922 17.5234ZM23.9922 18.0859C23.996 18.0858 23.9974 18.0858 24 18.0859C24.0612 18.0859 24.1109 18.136 24.1113 18.1972C24.1121 18.2592 24.062 18.3101 24 18.3105C23.9373 18.3109 23.8861 18.26 23.8867 18.1972C23.8871 18.1383 23.9332 18.0895 23.9922 18.0859ZM23.9922 18.6484C23.996 18.6483 23.9974 18.6483 24 18.6484C24.0612 18.6488 24.1109 18.7005 24.1113 18.7617C24.1121 18.8237 24.062 18.8745 24 18.875C23.9373 18.8753 23.8861 18.8244 23.8867 18.7617C23.8871 18.7027 23.9332 18.652 23.9922 18.6484ZM23.9805 19.2109H23.9824C23.99 19.2103 23.9924 19.2103 24 19.2109C24.0612 19.2117 24.1109 19.263 24.1113 19.3242C24.1121 19.3862 24.062 19.437 24 19.4375C23.9373 19.4378 23.8861 19.3869 23.8867 19.3242C23.8863 19.269 23.926 19.2185 23.9805 19.2109ZM24.002 19.7714C24.0643 19.7722 24.1138 19.8247 24.1133 19.8867C24.1125 19.9479 24.0632 19.9956 24.002 19.9961C23.9396 19.9972 23.8892 19.9487 23.8887 19.8867C23.8883 19.8239 23.9392 19.7708 24.002 19.7714ZM23.9922 20.3339C23.996 20.3339 23.9974 20.3339 24 20.3339C24.062 20.3343 24.1119 20.3872 24.1113 20.4492C24.1109 20.5104 24.0612 20.56 24 20.5605C23.9376 20.5613 23.8872 20.5112 23.8867 20.4492C23.886 20.3891 23.9325 20.3375 23.9922 20.3339ZM23.9922 20.8964C23.996 20.8964 23.9974 20.8964 24 20.8964C24.062 20.8972 24.1119 20.9497 24.1113 21.0117C24.1109 21.0733 24.0612 21.1225 24 21.123C23.9376 21.1234 23.8872 21.0737 23.8867 21.0117C23.886 20.9516 23.9325 20.9 23.9922 20.8964ZM23.9922 21.4589C23.996 21.4589 23.9974 21.4589 24 21.4589C24.062 21.4597 24.1119 21.5122 24.1113 21.5742C24.1109 21.6358 24.0612 21.685 24 21.6855C23.9376 21.6863 23.8872 21.6362 23.8867 21.5742C23.886 21.5141 23.9325 21.4625 23.9922 21.4589ZM30.252 21.6875C30.4942 21.6841 30.7377 21.7741 30.9258 21.957C31.3022 22.3231 31.3095 22.9204 30.9434 23.2968L29.1348 25.1562C28.7686 25.5334 28.1712 25.542 27.7949 25.1757C27.4185 24.8096 27.4112 24.212 27.7773 23.8359L29.5859 21.9785C29.769 21.7903 30.0098 21.6908 30.252 21.6875ZM19.9121 21.9921C20.1543 21.9887 20.3978 22.0788 20.5859 22.2617C20.9624 22.6278 20.9696 23.2251 20.6035 23.6015L18.7949 25.4609C18.4288 25.8362 17.8313 25.8467 17.4551 25.4804C17.0786 25.1143 17.0714 24.5166 17.4375 24.1406L19.2461 22.2832C19.4292 22.0949 19.6699 21.9954 19.9121 21.9921ZM23.9922 22.0214C23.996 22.0213 23.9974 22.0213 24 22.0214C24.0612 22.0218 24.1109 22.0715 24.1113 22.1328C24.1121 22.1948 24.062 22.2456 24 22.2461C23.9373 22.2464 23.8861 22.1955 23.8867 22.1328C23.8871 22.0738 23.9332 22.025 23.9922 22.0214ZM23.9922 22.5839C23.996 22.5838 23.9974 22.5838 24 22.5839C24.0612 22.5843 24.1109 22.636 24.1113 22.6972C24.1121 22.7592 24.062 22.81 24 22.8105C23.9373 22.8109 23.8861 22.76 23.8867 22.6972C23.8871 22.6383 23.9332 22.5876 23.9922 22.5839ZM23.9922 23.1464C23.996 23.1464 23.9974 23.1464 24 23.1464C24.0612 23.1472 24.1109 23.1985 24.1113 23.2597C24.1121 23.3217 24.062 23.3725 24 23.373C23.9373 23.3734 23.8861 23.3225 23.8867 23.2597C23.8871 23.2004 23.9332 23.1501 23.9922 23.1464ZM23.9805 23.7089H23.9824C23.99 23.7084 23.9924 23.7084 24 23.7089C24.0612 23.7097 24.1109 23.761 24.1113 23.8222C24.1121 23.8842 24.062 23.935 24 23.9355C23.9373 23.9359 23.8861 23.885 23.8867 23.8222C23.8863 23.7674 23.926 23.7165 23.9805 23.7089ZM23.9805 24.2714H23.9824C23.99 24.2709 23.9924 24.2709 24 24.2714C24.0612 24.2722 24.1109 24.3235 24.1113 24.3847C24.1109 24.446 24.0612 24.4956 24 24.4961C23.9376 24.4968 23.8872 24.4467 23.8867 24.3847C23.8863 24.3295 23.926 24.279 23.9805 24.2714ZM23.9922 24.832C23.996 24.8319 23.9974 24.8319 24 24.832C24.062 24.8327 24.1119 24.8852 24.1113 24.9472C24.1109 25.0088 24.0612 25.0581 24 25.0586C23.9376 25.0589 23.8872 25.0092 23.8867 24.9472C23.886 24.8871 23.9325 24.8356 23.9922 24.832ZM23.9922 25.3945C23.996 25.3944 23.9974 25.3944 24 25.3945C24.062 25.3952 24.1119 25.4477 24.1113 25.5097C24.1109 25.5713 24.0612 25.6206 24 25.6211C23.9376 25.6214 23.8872 25.5717 23.8867 25.5097C23.886 25.4496 23.9325 25.3981 23.9922 25.3945ZM23.9922 25.957C23.996 25.9569 23.9974 25.9569 24 25.957C24.062 25.9577 24.1119 26.0102 24.1113 26.0722C24.1109 26.1338 24.0612 26.1811 24 26.1816C23.9376 26.1827 23.8872 26.1342 23.8867 26.0722C23.886 26.0121 23.9325 25.9606 23.9922 25.957ZM23.9922 26.5195C23.996 26.5194 23.9974 26.5194 24 26.5195C24.0612 26.5202 24.1109 26.5715 24.1113 26.6328C24.1121 26.6948 24.062 26.7456 24 26.7461C23.9373 26.7464 23.8861 26.6955 23.8867 26.6328C23.8871 26.5734 23.9332 26.5231 23.9922 26.5195ZM30.252 26.9023C30.4942 26.8989 30.7376 26.9889 30.9258 27.1718C31.3022 27.538 31.3095 28.1352 30.9434 28.5117L29.1348 30.3711C28.7686 30.7486 28.1712 30.7549 27.7949 30.3886C27.4185 30.0225 27.4112 29.4249 27.7773 29.0488L29.5859 27.1914C29.769 27.0031 30.0098 26.9056 30.252 26.9023ZM23.9922 27.082C23.996 27.0819 23.9974 27.0819 24 27.082C24.0612 27.0827 24.1109 27.134 24.1113 27.1953C24.1121 27.2573 24.062 27.3081 24 27.3086C23.9373 27.3089 23.8861 27.258 23.8867 27.1953C23.8871 27.1359 23.9332 27.0856 23.9922 27.082ZM19.9102 27.2519C20.1524 27.2485 20.3958 27.3385 20.584 27.5214C20.9604 27.8876 20.9677 28.4848 20.6016 28.8613L18.793 30.7207C18.4268 31.096 17.8294 31.1045 17.4531 30.7382C17.0767 30.3721 17.0694 29.7745 17.4355 29.3984L19.2441 27.541C19.4272 27.3528 19.668 27.2552 19.9102 27.2519ZM23.9922 27.6445C23.996 27.6444 23.9974 27.6444 24 27.6445C24.0612 27.6452 24.1109 27.6965 24.1113 27.7578C24.1121 27.8198 24.062 27.8706 24 27.8711C23.9373 27.8714 23.8861 27.8205 23.8867 27.7578C23.8871 27.6988 23.9332 27.6481 23.9922 27.6445ZM23.9805 28.207H23.9824C23.99 28.2064 23.9924 28.2064 24 28.207C24.0612 28.2077 24.1109 28.2571 24.1113 28.3183C24.1109 28.3795 24.0612 28.4292 24 28.4296C23.9376 28.4304 23.8872 28.3803 23.8867 28.3183C23.8863 28.2639 23.926 28.2146 23.9805 28.207ZM24.002 28.7675C24.0643 28.7683 24.1138 28.8208 24.1133 28.8828C24.1125 28.9444 24.0632 28.9936 24.002 28.9941C23.9396 28.9945 23.8892 28.9448 23.8887 28.8828C23.8883 28.82 23.9392 28.7669 24.002 28.7675ZM23.9922 29.33C23.996 29.33 23.9974 29.33 24 29.33C24.062 29.3308 24.1119 29.3833 24.1113 29.4453C24.1109 29.5069 24.0612 29.5561 24 29.5566C23.9376 29.5574 23.8872 29.5073 23.8867 29.4453C23.886 29.3852 23.9325 29.3336 23.9922 29.33ZM23.9922 29.8925C23.996 29.8925 23.9974 29.8925 24 29.8925C24.062 29.8933 24.1119 29.9458 24.1113 30.0078C24.1109 30.0694 24.0612 30.1167 24 30.1171C23.9376 30.1179 23.8872 30.0698 23.8867 30.0078C23.886 29.9477 23.9325 29.8961 23.9922 29.8925ZM23.9922 30.455C23.996 30.4549 23.9974 30.4549 24 30.455C24.062 30.4558 24.1119 30.5083 24.1113 30.5703C24.1109 30.6311 24.0612 30.6792 24 30.6796C23.9376 30.6808 23.8872 30.6323 23.8867 30.5703C23.886 30.5102 23.9325 30.4587 23.9922 30.455ZM23.9922 31.0156C23.996 31.0155 23.9974 31.0155 24 31.0156C24.0612 31.0163 24.1109 31.0696 24.1113 31.1308C24.1121 31.1928 24.062 31.2436 24 31.2441C23.9373 31.2445 23.8861 31.1936 23.8867 31.1308C23.8871 31.0715 23.9332 31.0192 23.9922 31.0156ZM23.9922 31.5781C23.996 31.578 23.9974 31.578 24 31.5781C24.0612 31.5788 24.1109 31.6301 24.1113 31.6914C24.1121 31.7534 24.062 31.8042 24 31.8046C23.9373 31.805 23.8861 31.7541 23.8867 31.6914C23.8871 31.6324 23.9332 31.5817 23.9922 31.5781ZM23.9805 32.1406H23.9824C23.99 32.14 23.9924 32.14 24 32.1406C24.0612 32.1413 24.1109 32.1926 24.1113 32.2539C24.1121 32.3159 24.062 32.3667 24 32.3671C23.9373 32.3675 23.8861 32.3166 23.8867 32.2539C23.8863 32.1987 23.926 32.1481 23.9805 32.1406ZM23.9805 32.7031H23.9824C23.99 32.7025 23.9924 32.7025 24 32.7031C24.0612 32.7035 24.1109 32.7551 24.1113 32.8164C24.1109 32.878 24.0612 32.9253 24 32.9257C23.9376 32.9265 23.8872 32.8784 23.8867 32.8164C23.8863 32.7616 23.926 32.7106 23.9805 32.7031ZM30.252 32.9004C30.4942 32.8969 30.7376 32.987 30.9258 33.1699C31.3022 33.536 31.3095 34.1333 30.9434 34.5097L29.1348 36.3691C28.7686 36.7467 28.1712 36.7549 27.7949 36.3886C27.4185 36.0225 27.4112 35.4249 27.7773 35.0488L29.5859 33.1914C29.769 33.0031 30.0098 32.9056 30.252 32.9023V32.9004ZM19.9121 33.25C20.1543 33.2466 20.3978 33.3366 20.5859 33.5195C20.9624 33.8856 20.9696 34.4829 20.6035 34.8593L18.7949 36.7187C18.4288 37.094 17.8313 37.1025 17.4551 36.7363C17.0786 36.3702 17.0714 35.7725 17.4375 35.3964L19.2461 33.539C19.4292 33.3508 19.6699 33.2533 19.9121 33.25ZM24.002 33.2636C24.0643 33.2644 24.1138 33.3169 24.1133 33.3789C24.1125 33.4405 24.0632 33.4878 24.002 33.4882C23.9396 33.4886 23.8892 33.4409 23.8887 33.3789C23.8883 33.3161 23.9392 33.263 24.002 33.2636ZM23.9922 33.8261C23.996 33.8261 23.9974 33.8261 24 33.8261C24.062 33.8269 24.1119 33.8794 24.1113 33.9414C24.1109 34.003 24.0612 34.0522 24 34.0527C23.9376 34.0535 23.8872 34.0034 23.8867 33.9414C23.886 33.8813 23.9325 33.8297 23.9922 33.8261ZM23.9922 34.3886C23.996 34.3885 23.9974 34.3885 24 34.3886C24.062 34.3894 24.1119 34.4419 24.1113 34.5039C24.1109 34.5655 24.0612 34.6147 24 34.6152C23.9376 34.6156 23.8872 34.5659 23.8867 34.5039C23.886 34.4438 23.9325 34.3922 23.9922 34.3886ZM23.9922 34.9511C23.996 34.951 23.9974 34.951 24 34.9511C24.0612 34.9519 24.1109 35.0012 24.1113 35.0625C24.1121 35.1244 24.062 35.1753 24 35.1757C23.9373 35.1761 23.8861 35.1252 23.8867 35.0625C23.8871 35.0035 23.9332 34.9547 23.9922 34.9511ZM23.9922 35.5136C23.996 35.5136 23.9974 35.5136 24 35.5136C24.0612 35.5144 24.1109 35.5657 24.1113 35.6269C24.1121 35.6889 24.062 35.7397 24 35.7402C23.9373 35.7406 23.8861 35.6897 23.8867 35.6269C23.8871 35.568 23.9332 35.5173 23.9922 35.5136ZM23.9922 36.0761C23.996 36.0761 23.9974 36.0761 24 36.0761C24.0612 36.0769 24.1109 36.1282 24.1113 36.1894C24.1121 36.2514 24.062 36.3022 24 36.3027C23.9373 36.3031 23.8861 36.2522 23.8867 36.1894C23.8871 36.1305 23.9332 36.0797 23.9922 36.0761ZM23.9922 36.6386C23.996 36.6386 23.9974 36.6386 24 36.6386C24.0612 36.6394 24.1109 36.6907 24.1113 36.7519C24.1121 36.8139 24.062 36.8647 24 36.8652C23.9373 36.8656 23.8861 36.8147 23.8867 36.7519C23.8871 36.6926 23.9332 36.6422 23.9922 36.6386ZM23.9805 37.2011H23.9824C23.99 37.2006 23.9924 37.2006 24 37.2011C24.0612 37.2019 24.1109 37.2512 24.1113 37.3125C24.1109 37.3737 24.0612 37.4233 24 37.4238C23.9376 37.4249 23.8872 37.3744 23.8867 37.3125C23.8863 37.2573 23.926 37.2087 23.9805 37.2011ZM23.9922 37.7617C23.996 37.7616 23.9974 37.7616 24 37.7617C24.062 37.7624 24.1119 37.8149 24.1113 37.8769C24.1109 37.9385 24.0612 37.9878 24 37.9882C23.9376 37.9886 23.8872 37.9389 23.8867 37.8769C23.886 37.8168 23.9325 37.7653 23.9922 37.7617ZM23.9922 38.3242C23.996 38.3241 23.9974 38.3241 24 38.3242C24.062 38.3249 24.1119 38.3774 24.1113 38.4394C24.1109 38.501 24.0612 38.5503 24 38.5507C23.9376 38.5515 23.8872 38.5014 23.8867 38.4394C23.886 38.3793 23.9325 38.3278 23.9922 38.3242ZM30.252 38.3378C30.4942 38.3345 30.7376 38.4245 30.9258 38.6074C31.3022 38.9735 31.3095 39.5708 30.9434 39.9472L29.1348 41.8066C28.7686 42.1842 28.1712 42.1924 27.7949 41.8261C27.4185 41.46 27.4112 40.8624 27.7773 40.4863L29.5859 38.6289C29.769 38.4406 30.0098 38.3431 30.252 38.3398V38.3378ZM19.9121 38.6875C20.1543 38.6841 20.3978 38.7741 20.5859 38.957C20.9624 39.3231 20.9696 39.9204 20.6035 40.2968L18.7949 42.1562C18.4288 42.5315 17.8313 42.54 17.4551 42.1738C17.0786 41.8077 17.0714 41.21 17.4375 40.8339L19.2461 38.9765C19.4292 38.7883 19.6699 38.6908 19.9121 38.6875ZM23.9922 38.8867C23.996 38.8866 23.9974 38.8866 24 38.8867C24.062 38.8874 24.1119 38.9399 24.1113 39.0019C24.1109 39.0635 24.0612 39.1108 24 39.1113C23.9376 39.112 23.8872 39.0639 23.8867 39.0019C23.886 38.9418 23.9325 38.8903 23.9922 38.8867ZM23.9922 39.4492C23.996 39.4491 23.9974 39.4491 24 39.4492C24.0612 39.4499 24.1109 39.5012 24.1113 39.5625C24.1121 39.6244 24.062 39.6753 24 39.6757C23.9373 39.6761 23.8861 39.6252 23.8867 39.5625C23.8871 39.5031 23.9332 39.4528 23.9922 39.4492ZM23.9922 40.0117C23.996 40.0116 23.9974 40.0116 24 40.0117C24.0612 40.0124 24.1109 40.0637 24.1113 40.125C24.1121 40.1869 24.062 40.2378 24 40.2382C23.9373 40.2386 23.8861 40.1877 23.8867 40.125C23.8871 40.066 23.9332 40.0153 23.9922 40.0117ZM23.9922 40.5742C23.996 40.5741 23.9974 40.5741 24 40.5742C24.0612 40.5749 24.1109 40.6262 24.1113 40.6875C24.1121 40.7494 24.062 40.8003 24 40.8007C23.9373 40.8011 23.8861 40.7502 23.8867 40.6875C23.8871 40.6285 23.9332 40.5778 23.9922 40.5742ZM23.9805 41.1367H23.9824C23.99 41.1361 23.9924 41.1361 24 41.1367C24.0612 41.1374 24.1109 41.1868 24.1113 41.248C24.1121 41.31 24.062 41.3608 24 41.3613C23.9373 41.3617 23.8861 41.3107 23.8867 41.248C23.8863 41.1932 23.926 41.1442 23.9805 41.1367ZM23.9805 41.6992H23.9824C23.99 41.6986 23.9924 41.6986 24 41.6992C24.0612 41.6999 24.1109 41.7493 24.1113 41.8105C24.1109 41.8721 24.0612 41.9213 24 41.9218C23.9376 41.9226 23.8872 41.8725 23.8867 41.8105C23.8863 41.7553 23.926 41.7067 23.9805 41.6992ZM24.002 42.2597C24.0643 42.2605 24.1138 42.313 24.1133 42.375C24.1125 42.4366 24.0632 42.4858 24.002 42.4863C23.9396 42.4867 23.8892 42.4369 23.8887 42.375C23.8883 42.3122 23.9392 42.2591 24.002 42.2597ZM23.9922 42.8222C23.996 42.8221 23.9974 42.8221 24 42.8222C24.062 42.823 24.1119 42.8755 24.1113 42.9375C24.1109 42.9991 24.0612 43.0463 24 43.0468C23.9376 43.0472 23.8872 42.9994 23.8867 42.9375C23.886 42.8774 23.9325 42.8258 23.9922 42.8222Z" fill="#333333"/>
</svg>
