<svg width="48" height="48" viewBox="0 0 48 48" fill="none" xmlns="http://www.w3.org/2000/svg">
<path d="M14.346 4.09377C13.476 4.09377 12.777 4.79277 12.777 5.66177V42.5228C12.777 43.3928 13.477 44.0928 14.346 44.0928H34.05C34.92 44.0928 35.618 43.3928 35.618 42.5228V5.66277C35.618 4.79277 34.919 4.09277 34.05 4.09277H14.346V4.09377ZM14.776 4.59377H33.616C34.446 4.59377 35.117 5.27677 35.117 6.12477V42.0648C35.117 42.9118 34.447 43.5938 33.615 43.5938H14.775C13.945 43.5938 13.275 42.9118 13.275 42.0638V6.12477C13.275 5.27677 13.945 4.59377 14.775 4.59377H14.776ZM19.088 9.21377V9.21677C18.9634 9.21866 18.8404 9.24517 18.7261 9.29476C18.6118 9.34436 18.5085 9.41607 18.422 9.50577L16.613 11.3628C16.5261 11.452 16.4578 11.5576 16.4118 11.6733C16.3659 11.7891 16.3433 11.9128 16.3454 12.0373C16.3474 12.1619 16.374 12.2848 16.4237 12.399C16.4734 12.5132 16.5452 12.6164 16.635 12.7028C16.724 12.79 16.8294 12.8587 16.9451 12.905C17.0608 12.9512 17.1845 12.9741 17.3091 12.9722C17.4338 12.9704 17.5568 12.9438 17.671 12.8941C17.7853 12.8445 17.8886 12.7726 17.975 12.6828L19.783 10.8238C19.8699 10.7346 19.9383 10.6291 19.9844 10.5134C20.0304 10.3976 20.053 10.2739 20.0511 10.1494C20.0491 10.0249 20.0226 9.90196 19.973 9.78773C19.9234 9.6735 19.8517 9.5702 19.762 9.48377C19.673 9.39655 19.5676 9.3278 19.4519 9.28146C19.3363 9.23512 19.2126 9.21212 19.088 9.21377ZM23.088 9.21377V9.21677C22.9634 9.21866 22.8404 9.24517 22.7261 9.29476C22.6118 9.34436 22.5085 9.41607 22.422 9.50577L20.613 11.3628C20.5261 11.452 20.4578 11.5576 20.4118 11.6733C20.3659 11.7891 20.3433 11.9128 20.3454 12.0373C20.3474 12.1619 20.374 12.2848 20.4237 12.399C20.4734 12.5132 20.5452 12.6164 20.635 12.7028C20.724 12.79 20.8294 12.8587 20.9451 12.905C21.0608 12.9512 21.1845 12.9741 21.3091 12.9722C21.4338 12.9704 21.5568 12.9438 21.671 12.8941C21.7853 12.8445 21.8886 12.7726 21.975 12.6828L23.783 10.8238C23.8699 10.7346 23.9383 10.6291 23.9844 10.5134C24.0304 10.3976 24.053 10.2739 24.0511 10.1494C24.0491 10.0249 24.0226 9.90196 23.973 9.78773C23.9234 9.6735 23.8517 9.5702 23.762 9.48377C23.673 9.39655 23.5676 9.3278 23.4519 9.28146C23.3363 9.23512 23.2126 9.21212 23.088 9.21377ZM27.088 9.21377V9.21677C26.9634 9.21866 26.8404 9.24517 26.7261 9.29476C26.6118 9.34436 26.5085 9.41607 26.422 9.50577L24.613 11.3628C24.5261 11.452 24.4578 11.5576 24.4118 11.6733C24.3659 11.7891 24.3433 11.9128 24.3454 12.0373C24.3474 12.1619 24.374 12.2848 24.4237 12.399C24.4734 12.5132 24.5452 12.6164 24.635 12.7028C24.724 12.79 24.8294 12.8587 24.9451 12.905C25.0608 12.9512 25.1845 12.9741 25.3091 12.9722C25.4338 12.9704 25.5568 12.9438 25.671 12.8941C25.7853 12.8445 25.8886 12.7726 25.975 12.6828L27.783 10.8238C27.8699 10.7346 27.9383 10.6291 27.9844 10.5134C28.0304 10.3976 28.053 10.2739 28.0511 10.1494C28.0491 10.0249 28.0226 9.90196 27.973 9.78773C27.9234 9.6735 27.8517 9.5702 27.762 9.48377C27.673 9.39655 27.5676 9.3278 27.4519 9.28146C27.3363 9.23512 27.2126 9.21212 27.088 9.21377ZM31.088 9.21377V9.21677C30.9634 9.21866 30.8404 9.24517 30.7261 9.29476C30.6118 9.34436 30.5085 9.41607 30.422 9.50577L28.613 11.3628C28.5261 11.452 28.4578 11.5576 28.4118 11.6733C28.3659 11.7891 28.3433 11.9128 28.3454 12.0373C28.3474 12.1619 28.374 12.2848 28.4237 12.399C28.4734 12.5132 28.5452 12.6164 28.635 12.7028C28.724 12.79 28.8294 12.8587 28.9451 12.905C29.0608 12.9512 29.1845 12.9741 29.3091 12.9722C29.4338 12.9704 29.5568 12.9438 29.671 12.8941C29.7853 12.8445 29.8886 12.7726 29.975 12.6828L31.783 10.8238C31.8699 10.7346 31.9383 10.6291 31.9844 10.5134C32.0304 10.3976 32.053 10.2739 32.0511 10.1494C32.0491 10.0249 32.0226 9.90196 31.973 9.78773C31.9234 9.6735 31.8517 9.5702 31.762 9.48377C31.673 9.39655 31.5676 9.3278 31.4519 9.28146C31.3363 9.23512 31.2126 9.21212 31.088 9.21377ZM19.152 9.69977C19.2435 9.70808 19.3299 9.746 19.398 9.80777C19.805 10.1688 19.324 10.5928 19.148 10.7758L18.283 11.6808C17.676 12.3118 17.412 12.7388 16.988 12.3308C16.628 11.9578 16.945 11.7348 17.633 11.0358L18.498 10.1338C18.703 9.93277 18.916 9.68877 19.152 9.69977ZM23.152 9.69977C23.2435 9.70808 23.3299 9.746 23.398 9.80777C23.805 10.1688 23.324 10.5928 23.148 10.7758L22.283 11.6808C21.676 12.3118 21.412 12.7388 20.988 12.3308C20.628 11.9578 20.945 11.7348 21.633 11.0358L22.498 10.1338C22.703 9.93277 22.916 9.68877 23.152 9.69977ZM27.152 9.69977C27.2435 9.70808 27.3299 9.746 27.398 9.80777C27.805 10.1688 27.324 10.5928 27.148 10.7758L26.283 11.6808C25.676 12.3118 25.412 12.7388 24.988 12.3308C24.628 11.9578 24.945 11.7348 25.633 11.0358L26.498 10.1338C26.703 9.93277 26.916 9.68877 27.152 9.69977ZM31.152 9.69977C31.2435 9.70808 31.3299 9.746 31.398 9.80777C31.805 10.1688 31.324 10.5928 31.148 10.7758L30.283 11.6808C29.676 12.3118 29.412 12.7388 28.988 12.3308C28.628 11.9578 28.945 11.7348 29.633 11.0358L30.498 10.1338C30.703 9.93277 30.916 9.68877 31.152 9.69977ZM13.795 14.9798C13.7802 14.9799 13.7656 14.983 13.752 14.9888C13.7384 14.9946 13.726 15.003 13.7157 15.0136C13.7054 15.0242 13.6973 15.0368 13.6918 15.0505C13.6864 15.0643 13.6837 15.079 13.684 15.0938C13.684 15.1548 13.734 15.2058 13.794 15.2068C13.857 15.2068 13.907 15.1568 13.908 15.0938C13.9082 15.0788 13.9055 15.064 13.8999 15.0501C13.8944 15.0362 13.8861 15.0235 13.8755 15.0129C13.865 15.0023 13.8525 14.9939 13.8386 14.9882C13.8248 14.9825 13.8099 14.9796 13.795 14.9798ZM14.357 14.9798C14.3269 14.98 14.2982 14.9922 14.277 15.0135C14.2558 15.0349 14.244 15.0637 14.244 15.0938C14.244 15.1548 14.296 15.2068 14.357 15.2068C14.419 15.2068 14.468 15.1548 14.469 15.0938V15.0738C14.4651 15.0471 14.4515 15.0228 14.4309 15.0055C14.4102 14.9881 14.3839 14.979 14.357 14.9798ZM14.92 14.9798C14.905 14.9796 14.8902 14.9825 14.8763 14.9882C14.8625 14.9939 14.8499 15.0023 14.8394 15.0129C14.8289 15.0235 14.8206 15.0362 14.815 15.0501C14.8094 15.064 14.8067 15.0788 14.807 15.0938C14.807 15.1558 14.857 15.2078 14.92 15.2068C14.981 15.2068 15.03 15.1548 15.031 15.0938V15.0738C15.0271 15.0473 15.0137 15.0231 14.9932 15.0058C14.9728 14.9885 14.9468 14.9792 14.92 14.9798ZM15.482 14.9798C15.467 14.9796 15.4522 14.9825 15.4383 14.9882C15.4245 14.9939 15.4119 15.0023 15.4014 15.0129C15.3909 15.0235 15.3826 15.0362 15.377 15.0501C15.3714 15.064 15.3687 15.0788 15.369 15.0938C15.369 15.1558 15.42 15.2078 15.482 15.2068C15.544 15.2068 15.593 15.1548 15.594 15.0938V15.0858C15.5924 15.0571 15.58 15.0302 15.5591 15.0104C15.5383 14.9907 15.5107 14.9797 15.482 14.9798ZM16.045 14.9798C16.03 14.9796 16.0152 14.9825 16.0013 14.9882C15.9875 14.9939 15.9749 15.0023 15.9644 15.0129C15.9539 15.0235 15.9456 15.0362 15.94 15.0501C15.9344 15.064 15.9317 15.0788 15.932 15.0938C15.932 15.1558 15.982 15.2078 16.045 15.2068C16.106 15.2068 16.155 15.1548 16.156 15.0938V15.0858C16.1545 15.0573 16.1421 15.0305 16.1215 15.0108C16.1009 14.9911 16.0735 14.98 16.045 14.9798ZM16.607 14.9798C16.592 14.9796 16.5772 14.9825 16.5633 14.9882C16.5495 14.9939 16.5369 15.0023 16.5264 15.0129C16.5159 15.0235 16.5076 15.0362 16.502 15.0501C16.4964 15.064 16.4937 15.0788 16.494 15.0938C16.494 15.1558 16.545 15.2078 16.607 15.2068C16.669 15.2068 16.718 15.1548 16.719 15.0938V15.0858C16.7174 15.0571 16.705 15.0302 16.6841 15.0104C16.6633 14.9907 16.6357 14.9797 16.607 14.9798ZM17.168 14.9798C17.1532 14.9799 17.1386 14.983 17.125 14.9888C17.1114 14.9946 17.099 15.003 17.0887 15.0136C17.0784 15.0242 17.0703 15.0368 17.0648 15.0505C17.0594 15.0643 17.0567 15.079 17.057 15.0938C17.057 15.1548 17.107 15.2068 17.168 15.2068C17.1979 15.2065 17.2265 15.1945 17.2476 15.1734C17.2687 15.1523 17.2807 15.1237 17.281 15.0938V15.0858C17.2794 15.0569 17.2668 15.0298 17.2458 15.0101C17.2247 14.9903 17.1968 14.9795 17.168 14.9798ZM17.731 14.9798C17.7161 14.9798 17.7014 14.9827 17.6876 14.9885C17.6739 14.9942 17.6615 15.0027 17.6511 15.0133C17.6406 15.0239 17.6324 15.0365 17.6269 15.0503C17.6214 15.0641 17.6187 15.0789 17.619 15.0938C17.619 15.1548 17.669 15.2068 17.73 15.2068C17.76 15.2068 17.7889 15.1949 17.8102 15.1737C17.8316 15.1526 17.8437 15.1238 17.844 15.0938V15.0858C17.8424 15.0568 17.8297 15.0295 17.8084 15.0097C17.7871 14.99 17.759 14.9792 17.73 14.9798H17.731ZM18.293 14.9798C18.2782 14.9799 18.2636 14.983 18.25 14.9888C18.2364 14.9946 18.224 15.003 18.2137 15.0136C18.2034 15.0242 18.1953 15.0368 18.1898 15.0505C18.1844 15.0643 18.1817 15.079 18.182 15.0938C18.182 15.1548 18.232 15.2068 18.293 15.2068C18.3229 15.2065 18.3515 15.1945 18.3726 15.1734C18.3937 15.1523 18.4057 15.1237 18.406 15.0938V15.0858C18.4044 15.0569 18.3918 15.0298 18.3708 15.0101C18.3497 14.9903 18.3218 14.9795 18.293 14.9798ZM18.856 14.9798C18.8411 14.9798 18.8264 14.9827 18.8126 14.9885C18.7989 14.9942 18.7865 15.0027 18.7761 15.0133C18.7656 15.0239 18.7574 15.0365 18.7519 15.0503C18.7464 15.0641 18.7437 15.0789 18.744 15.0938C18.744 15.1548 18.794 15.2068 18.855 15.2068C18.917 15.2068 18.966 15.1548 18.967 15.0938V15.0738C18.9631 15.0473 18.9497 15.0231 18.9292 15.0058C18.9088 14.9885 18.8828 14.9792 18.856 14.9798ZM19.418 14.9798C19.403 14.9796 19.3882 14.9825 19.3743 14.9882C19.3605 14.9939 19.3479 15.0023 19.3374 15.0129C19.3269 15.0235 19.3186 15.0362 19.313 15.0501C19.3074 15.064 19.3047 15.0788 19.305 15.0938C19.305 15.1558 19.356 15.2078 19.418 15.2068C19.479 15.2068 19.528 15.1548 19.529 15.0938V15.0858C19.5274 15.0573 19.5151 15.0305 19.4945 15.0108C19.4739 14.9911 19.4465 14.98 19.418 14.9798ZM19.981 14.9798C19.9659 14.9795 19.951 14.9823 19.937 14.9879C19.9231 14.9935 19.9104 15.0019 19.8998 15.0126C19.8891 15.0232 19.8807 15.0359 19.8751 15.0498C19.8695 15.0638 19.8667 15.0787 19.867 15.0938C19.867 15.1558 19.919 15.2078 19.98 15.2068C20.042 15.2068 20.091 15.1548 20.092 15.0938V15.0858C20.0904 15.0573 20.0781 15.0305 20.0575 15.0108C20.0369 14.9911 20.0095 14.98 19.981 14.9798ZM20.543 14.9798C20.528 14.9796 20.5132 14.9825 20.4993 14.9882C20.4855 14.9939 20.4729 15.0023 20.4624 15.0129C20.4519 15.0235 20.4436 15.0362 20.438 15.0501C20.4324 15.064 20.4297 15.0788 20.43 15.0938C20.43 15.1558 20.481 15.2078 20.543 15.2068C20.604 15.2068 20.653 15.1548 20.654 15.0938V15.0858C20.6524 15.0573 20.6401 15.0305 20.6195 15.0108C20.5989 14.9911 20.5715 14.98 20.543 14.9798ZM21.106 14.9798C21.0909 14.9795 21.076 14.9823 21.062 14.9879C21.0481 14.9935 21.0354 15.0019 21.0248 15.0126C21.0141 15.0232 21.0057 15.0359 21.0001 15.0498C20.9945 15.0638 20.9917 15.0787 20.992 15.0938C20.992 15.1558 21.044 15.2078 21.105 15.2068C21.167 15.2068 21.216 15.1548 21.217 15.0938V15.0858C21.2154 15.0573 21.2031 15.0305 21.1825 15.0108C21.1619 14.9911 21.1345 14.98 21.106 14.9798ZM21.666 14.9798C21.6512 14.9799 21.6366 14.983 21.623 14.9888C21.6094 14.9946 21.597 15.003 21.5867 15.0136C21.5764 15.0242 21.5683 15.0368 21.5628 15.0505C21.5574 15.0643 21.5547 15.079 21.555 15.0938C21.555 15.1548 21.605 15.2068 21.666 15.2068C21.6959 15.2065 21.7245 15.1945 21.7456 15.1734C21.7667 15.1523 21.7787 15.1237 21.779 15.0938V15.0858C21.7774 15.0569 21.7648 15.0298 21.7438 15.0101C21.7227 14.9903 21.6948 14.9795 21.666 14.9798ZM22.229 14.9798C22.2141 14.9798 22.1994 14.9827 22.1856 14.9885C22.1719 14.9942 22.1595 15.0027 22.1491 15.0133C22.1386 15.0239 22.1304 15.0365 22.1249 15.0503C22.1194 15.0641 22.1167 15.0789 22.117 15.0938C22.117 15.1548 22.167 15.2068 22.228 15.2068C22.258 15.2068 22.2869 15.1949 22.3082 15.1737C22.3296 15.1526 22.3417 15.1238 22.342 15.0938V15.0858C22.3404 15.0569 22.3278 15.0298 22.3068 15.0101C22.2857 14.9903 22.2578 14.9795 22.229 14.9798ZM22.791 14.9798C22.7762 14.9799 22.7616 14.983 22.748 14.9888C22.7344 14.9946 22.722 15.003 22.7117 15.0136C22.7014 15.0242 22.6933 15.0368 22.6878 15.0505C22.6824 15.0643 22.6797 15.079 22.68 15.0938C22.68 15.1548 22.73 15.2058 22.791 15.2068C22.853 15.2068 22.904 15.1568 22.904 15.0938C22.9042 15.0788 22.9015 15.064 22.8959 15.0501C22.8904 15.0362 22.8821 15.0235 22.8715 15.0129C22.861 15.0023 22.8485 14.9939 22.8346 14.9882C22.8208 14.9825 22.8059 14.9796 22.791 14.9798ZM23.354 14.9798C23.3391 14.9798 23.3244 14.9827 23.3106 14.9885C23.2969 14.9942 23.2845 15.0027 23.2741 15.0133C23.2636 15.0239 23.2554 15.0365 23.2499 15.0503C23.2444 15.0641 23.2417 15.0789 23.242 15.0938C23.242 15.1548 23.292 15.2068 23.353 15.2068C23.3827 15.2063 23.411 15.1941 23.4319 15.173C23.4529 15.1519 23.4647 15.1235 23.465 15.0938V15.0738C23.4609 15.0474 23.4474 15.0233 23.427 15.0061C23.4066 14.9888 23.3807 14.9795 23.354 14.9798ZM23.916 14.9798C23.901 14.9796 23.8862 14.9825 23.8723 14.9882C23.8585 14.9939 23.8459 15.0023 23.8354 15.0129C23.8249 15.0235 23.8166 15.0362 23.811 15.0501C23.8054 15.064 23.8027 15.0788 23.803 15.0938C23.803 15.1558 23.854 15.2078 23.916 15.2068C23.977 15.2068 24.026 15.1548 24.027 15.0938V15.0738C24.0231 15.0473 24.0097 15.0231 23.9892 15.0058C23.9688 14.9885 23.9428 14.9792 23.916 14.9798ZM24.479 14.9798C24.4639 14.9795 24.449 14.9823 24.435 14.9879C24.4211 14.9935 24.4084 15.0019 24.3978 15.0126C24.3871 15.0232 24.3787 15.0359 24.3731 15.0498C24.3675 15.0638 24.3647 15.0787 24.365 15.0938C24.365 15.1558 24.417 15.2078 24.479 15.2068C24.539 15.2068 24.589 15.1548 24.589 15.0938V15.0858C24.5875 15.0575 24.5753 15.0308 24.5549 15.0111C24.5344 14.9914 24.5073 14.9802 24.479 14.9798ZM25.041 14.9798C25.026 14.9796 25.0112 14.9825 24.9973 14.9882C24.9835 14.9939 24.9709 15.0023 24.9604 15.0129C24.9499 15.0235 24.9416 15.0362 24.936 15.0501C24.9304 15.064 24.9277 15.0788 24.928 15.0938C24.928 15.1558 24.979 15.2078 25.041 15.2068C25.102 15.2068 25.151 15.1548 25.152 15.0938V15.0858C25.1505 15.0573 25.1381 15.0305 25.1175 15.0108C25.0969 14.9911 25.0695 14.98 25.041 14.9798ZM25.601 14.9798C25.5863 14.98 25.5718 14.9832 25.5583 14.9891C25.5448 14.9949 25.5326 15.0034 25.5224 15.014C25.5121 15.0246 25.5041 15.0371 25.4987 15.0508C25.4933 15.0644 25.4907 15.0791 25.491 15.0938C25.491 15.1548 25.541 15.2068 25.601 15.2068C25.631 15.2068 25.6599 15.1949 25.6812 15.1737C25.7026 15.1526 25.7147 15.1238 25.715 15.0938V15.0858C25.7134 15.0569 25.7008 15.0298 25.6798 15.0101C25.6587 14.9903 25.6308 14.9795 25.602 14.9798H25.601ZM26.164 14.9798C26.1492 14.9799 26.1346 14.983 26.121 14.9888C26.1074 14.9946 26.095 15.003 26.0847 15.0136C26.0744 15.0242 26.0663 15.0368 26.0608 15.0505C26.0554 15.0643 26.0527 15.079 26.053 15.0938C26.053 15.1548 26.103 15.2068 26.164 15.2068C26.1939 15.2065 26.2225 15.1945 26.2436 15.1734C26.2647 15.1523 26.2767 15.1237 26.277 15.0938V15.0858C26.2754 15.0569 26.2628 15.0298 26.2418 15.0101C26.2207 14.9903 26.1928 14.9795 26.164 14.9798ZM26.727 14.9798C26.7121 14.9798 26.6974 14.9827 26.6836 14.9885C26.6699 14.9942 26.6575 15.0027 26.6471 15.0133C26.6366 15.0239 26.6284 15.0365 26.6229 15.0503C26.6174 15.0641 26.6147 15.0789 26.615 15.0938C26.615 15.1548 26.665 15.2068 26.727 15.2068C26.7569 15.2065 26.7855 15.1945 26.8066 15.1734C26.8277 15.1523 26.8397 15.1237 26.84 15.0938V15.0858C26.8384 15.0569 26.8258 15.0298 26.8048 15.0101C26.7837 14.9903 26.7558 14.9795 26.727 14.9798ZM27.289 14.9798C27.2742 14.9799 27.2596 14.983 27.246 14.9888C27.2324 14.9946 27.22 15.003 27.2097 15.0136C27.1994 15.0242 27.1913 15.0368 27.1858 15.0505C27.1804 15.0643 27.1777 15.079 27.178 15.0938C27.178 15.1548 27.228 15.2058 27.289 15.2068C27.351 15.2068 27.402 15.1568 27.402 15.0938C27.4022 15.0788 27.3995 15.064 27.3939 15.0501C27.3884 15.0362 27.3801 15.0235 27.3695 15.0129C27.359 15.0023 27.3464 14.9939 27.3326 14.9882C27.3188 14.9825 27.3039 14.9796 27.289 14.9798ZM27.852 14.9798C27.8371 14.9798 27.8224 14.9827 27.8086 14.9885C27.7949 14.9942 27.7825 15.0027 27.7721 15.0133C27.7616 15.0239 27.7534 15.0365 27.7479 15.0503C27.7424 15.0641 27.7397 15.0789 27.74 15.0938C27.74 15.1548 27.79 15.2068 27.852 15.2068C27.912 15.2068 27.962 15.1548 27.962 15.0938C27.964 15.0858 27.964 15.0818 27.962 15.0738C27.9581 15.0475 27.9448 15.0234 27.9246 15.0061C27.9044 14.9889 27.8786 14.9795 27.852 14.9798ZM28.414 14.9798C28.399 14.9796 28.3842 14.9825 28.3703 14.9882C28.3565 14.9939 28.3439 15.0023 28.3334 15.0129C28.3229 15.0235 28.3146 15.0362 28.309 15.0501C28.3034 15.064 28.3007 15.0788 28.301 15.0938C28.301 15.1558 28.352 15.2078 28.414 15.2068C28.475 15.2068 28.524 15.1548 28.525 15.0938V15.0858C28.5235 15.0575 28.5113 15.0308 28.4909 15.0111C28.4704 14.9914 28.4433 14.9802 28.415 14.9798H28.414ZM28.977 14.9798C28.9619 14.9795 28.947 14.9823 28.933 14.9879C28.9191 14.9935 28.9064 15.0019 28.8958 15.0126C28.8851 15.0232 28.8767 15.0359 28.8711 15.0498C28.8655 15.0638 28.8627 15.0787 28.863 15.0938C28.863 15.1558 28.915 15.2078 28.977 15.2068C29.037 15.2068 29.087 15.1548 29.087 15.0938V15.0858C29.0855 15.0575 29.0733 15.0308 29.0529 15.0111C29.0324 14.9914 29.0053 14.9802 28.977 14.9798ZM29.539 14.9798C29.524 14.9796 29.5092 14.9825 29.4953 14.9882C29.4815 14.9939 29.4689 15.0023 29.4584 15.0129C29.4479 15.0235 29.4396 15.0362 29.434 15.0501C29.4284 15.064 29.4257 15.0788 29.426 15.0938C29.426 15.1558 29.477 15.2078 29.539 15.2068C29.6 15.2068 29.649 15.1548 29.65 15.0938V15.0858C29.6485 15.0575 29.6363 15.0308 29.6159 15.0111C29.5954 14.9914 29.5683 14.9802 29.54 14.9798H29.539ZM30.099 14.9798C30.0843 14.98 30.0698 14.9832 30.0563 14.9891C30.0428 14.9949 30.0306 15.0034 30.0204 15.014C30.0101 15.0246 30.0021 15.0371 29.9967 15.0508C29.9913 15.0644 29.9887 15.0791 29.989 15.0938C29.989 15.1548 30.038 15.2068 30.099 15.2068C30.129 15.2068 30.1579 15.1949 30.1792 15.1737C30.2006 15.1526 30.2127 15.1238 30.213 15.0938V15.0858C30.2114 15.0569 30.1988 15.0298 30.1778 15.0101C30.1567 14.9903 30.1288 14.9795 30.1 14.9798H30.099ZM30.662 14.9798C30.6472 14.9799 30.6326 14.983 30.619 14.9888C30.6054 14.9946 30.593 15.003 30.5827 15.0136C30.5724 15.0242 30.5643 15.0368 30.5588 15.0505C30.5534 15.0643 30.5507 15.079 30.551 15.0938C30.551 15.1548 30.601 15.2068 30.662 15.2068C30.6919 15.2065 30.7205 15.1945 30.7416 15.1734C30.7627 15.1523 30.7747 15.1237 30.775 15.0938V15.0858C30.7734 15.0569 30.7608 15.0298 30.7398 15.0101C30.7187 14.9903 30.6908 14.9795 30.662 14.9798ZM31.225 14.9798C31.2101 14.9798 31.1954 14.9827 31.1817 14.9885C31.1679 14.9942 31.1555 15.0027 31.1451 15.0133C31.1346 15.0239 31.1264 15.0365 31.1209 15.0503C31.1154 15.0641 31.1127 15.0789 31.113 15.0938C31.113 15.1548 31.163 15.2068 31.225 15.2068C31.2549 15.2065 31.2835 15.1945 31.3046 15.1734C31.3257 15.1523 31.3377 15.1237 31.338 15.0938V15.0858C31.3364 15.0569 31.3238 15.0298 31.3028 15.0101C31.2817 14.9903 31.2538 14.9795 31.225 14.9798ZM31.787 14.9798C31.7722 14.9799 31.7576 14.983 31.744 14.9888C31.7304 14.9946 31.718 15.003 31.7077 15.0136C31.6974 15.0242 31.6893 15.0368 31.6838 15.0505C31.6784 15.0643 31.6757 15.079 31.676 15.0938C31.676 15.1548 31.726 15.2068 31.787 15.2068C31.848 15.2068 31.897 15.1548 31.898 15.0938V15.0738C31.8941 15.0475 31.8808 15.0234 31.8606 15.0061C31.8404 14.9889 31.8146 14.9795 31.788 14.9798H31.787ZM32.35 14.9798C32.3349 14.9795 32.32 14.9823 32.306 14.9879C32.2921 14.9935 32.2794 15.0019 32.2688 15.0126C32.2581 15.0232 32.2497 15.0359 32.2441 15.0498C32.2385 15.0638 32.2357 15.0787 32.236 15.0938C32.236 15.1558 32.288 15.2078 32.35 15.2068C32.41 15.2068 32.46 15.1548 32.46 15.0938C32.462 15.0858 32.462 15.0818 32.46 15.0738C32.4561 15.0475 32.4428 15.0234 32.4226 15.0061C32.4024 14.9889 32.3766 14.9795 32.35 14.9798ZM32.912 14.9798C32.897 14.9796 32.8822 14.9825 32.8683 14.9882C32.8545 14.9939 32.8419 15.0023 32.8314 15.0129C32.8209 15.0235 32.8126 15.0362 32.807 15.0501C32.8014 15.064 32.7987 15.0788 32.799 15.0938C32.799 15.1558 32.85 15.2078 32.912 15.2068C32.973 15.2068 33.022 15.1548 33.023 15.0938V15.0858C33.0215 15.0575 33.0093 15.0308 32.9889 15.0111C32.9684 14.9914 32.9413 14.9802 32.913 14.9798H32.912ZM33.475 14.9798C33.4599 14.9795 33.445 14.9823 33.431 14.9879C33.4171 14.9935 33.4044 15.0019 33.3938 15.0126C33.3831 15.0232 33.3747 15.0359 33.3691 15.0498C33.3635 15.0638 33.3607 15.0787 33.361 15.0938C33.361 15.1558 33.413 15.2078 33.475 15.2068C33.5043 15.2057 33.5322 15.1934 33.5527 15.1724C33.5732 15.1513 33.5847 15.1232 33.585 15.0938V15.0858C33.5835 15.0575 33.5713 15.0308 33.5509 15.0111C33.5304 14.9914 33.5033 14.9802 33.475 14.9798ZM34.037 14.9798C34.022 14.9796 34.0072 14.9825 33.9933 14.9882C33.9795 14.9939 33.9669 15.0023 33.9564 15.0129C33.9459 15.0235 33.9376 15.0362 33.932 15.0501C33.9264 15.064 33.9237 15.0788 33.924 15.0938C33.924 15.1558 33.975 15.2078 34.037 15.2068C34.0665 15.206 34.0946 15.1938 34.1153 15.1727C34.136 15.1516 34.1477 15.1233 34.148 15.0938V15.0858C34.1465 15.0575 34.1343 15.0308 34.1139 15.0111C34.0934 14.9914 34.0663 14.9802 34.038 14.9798H34.037ZM34.597 14.9798C34.5823 14.98 34.5678 14.9832 34.5543 14.9891C34.5408 14.9949 34.5286 15.0034 34.5184 15.014C34.5081 15.0246 34.5001 15.0371 34.4947 15.0508C34.4893 15.0644 34.4867 15.0791 34.487 15.0938C34.487 15.1548 34.536 15.2068 34.597 15.2068C34.627 15.2068 34.6559 15.1949 34.6772 15.1737C34.6986 15.1526 34.7107 15.1238 34.711 15.0938V15.0858C34.7094 15.0569 34.6968 15.0298 34.6758 15.0101C34.6547 14.9903 34.6268 14.9795 34.598 14.9798H34.597ZM19.087 17.8828C18.9626 17.8848 18.8398 17.9114 18.7257 17.961C18.6115 18.0105 18.5083 18.0822 18.422 18.1718L16.613 20.0288C16.5261 20.118 16.4578 20.2236 16.4118 20.3393C16.3659 20.4551 16.3433 20.5788 16.3454 20.7033C16.3474 20.8279 16.374 20.9508 16.4237 21.065C16.4734 21.1792 16.5452 21.2824 16.635 21.3688C16.7238 21.4562 16.829 21.5252 16.9446 21.5717C17.0602 21.6182 17.1839 21.6413 17.3085 21.6397C17.4331 21.6381 17.5562 21.6119 17.6706 21.5625C17.785 21.513 17.8884 21.4414 17.975 21.3518L19.783 19.4918C19.8699 19.4026 19.9383 19.2971 19.9844 19.1814C20.0304 19.0656 20.053 18.9419 20.0511 18.8174C20.0491 18.6929 20.0226 18.57 19.973 18.4557C19.9234 18.3415 19.8517 18.2382 19.762 18.1518C19.673 18.0646 19.5676 17.9958 19.4519 17.9495C19.3363 17.9031 19.2126 17.8801 19.088 17.8818L19.087 17.8828ZM23.087 17.8828C22.9626 17.8848 22.8398 17.9114 22.7257 17.961C22.6115 18.0105 22.5083 18.0822 22.422 18.1718L20.613 20.0288C20.5261 20.118 20.4578 20.2236 20.4118 20.3393C20.3659 20.4551 20.3433 20.5788 20.3454 20.7033C20.3474 20.8279 20.374 20.9508 20.4237 21.065C20.4734 21.1792 20.5452 21.2824 20.635 21.3688C20.7238 21.4562 20.829 21.5252 20.9446 21.5717C21.0602 21.6182 21.1839 21.6413 21.3085 21.6397C21.4331 21.6381 21.5562 21.6119 21.6706 21.5625C21.785 21.513 21.8884 21.4414 21.975 21.3518L23.783 19.4918C23.8699 19.4026 23.9383 19.2971 23.9844 19.1814C24.0304 19.0656 24.053 18.9419 24.0511 18.8174C24.0491 18.6929 24.0226 18.57 23.973 18.4557C23.9234 18.3415 23.8517 18.2382 23.762 18.1518C23.673 18.0646 23.5676 17.9958 23.4519 17.9495C23.3363 17.9031 23.2126 17.8801 23.088 17.8818L23.087 17.8828ZM27.087 17.8828C26.9626 17.8848 26.8398 17.9114 26.7257 17.961C26.6115 18.0105 26.5083 18.0822 26.422 18.1718L24.613 20.0288C24.5261 20.118 24.4578 20.2236 24.4118 20.3393C24.3659 20.4551 24.3433 20.5788 24.3454 20.7033C24.3474 20.8279 24.374 20.9508 24.4237 21.065C24.4734 21.1792 24.5452 21.2824 24.635 21.3688C24.7238 21.4562 24.829 21.5252 24.9446 21.5717C25.0602 21.6182 25.1839 21.6413 25.3085 21.6397C25.4331 21.6381 25.5562 21.6119 25.6706 21.5625C25.785 21.513 25.8884 21.4414 25.975 21.3518L27.783 19.4918C27.8699 19.4026 27.9383 19.2971 27.9844 19.1814C28.0304 19.0656 28.053 18.9419 28.0511 18.8174C28.0491 18.6929 28.0226 18.57 27.973 18.4557C27.9234 18.3415 27.8517 18.2382 27.762 18.1518C27.673 18.0646 27.5676 17.9958 27.4519 17.9495C27.3363 17.9031 27.2126 17.8801 27.088 17.8818L27.087 17.8828ZM31.087 17.8828C30.9626 17.8848 30.8398 17.9114 30.7257 17.961C30.6115 18.0105 30.5083 18.0822 30.422 18.1718L28.613 20.0288C28.5261 20.118 28.4578 20.2236 28.4118 20.3393C28.3659 20.4551 28.3433 20.5788 28.3454 20.7033C28.3474 20.8279 28.374 20.9508 28.4237 21.065C28.4734 21.1792 28.5452 21.2824 28.635 21.3688C28.7238 21.4562 28.829 21.5252 28.9446 21.5717C29.0602 21.6182 29.1839 21.6413 29.3085 21.6397C29.4331 21.6381 29.5562 21.6119 29.6706 21.5625C29.785 21.513 29.8884 21.4414 29.975 21.3518L31.783 19.4918C31.8699 19.4026 31.9383 19.2971 31.9844 19.1814C32.0304 19.0656 32.053 18.9419 32.0511 18.8174C32.0491 18.6929 32.0226 18.57 31.973 18.4557C31.9234 18.3415 31.8517 18.2382 31.762 18.1518C31.673 18.0646 31.5676 17.9958 31.4519 17.9495C31.3363 17.9031 31.2126 17.8801 31.088 17.8818L31.087 17.8828ZM19.152 18.3648C19.2435 18.3731 19.3299 18.411 19.398 18.4728C19.805 18.8338 19.324 19.2578 19.148 19.4408L18.283 20.3458C17.676 20.9768 17.412 21.4038 16.988 20.9958C16.628 20.6228 16.945 20.3998 17.633 19.7008L18.498 18.7988C18.703 18.5978 18.916 18.3538 19.152 18.3648ZM23.152 18.3648C23.2435 18.3731 23.3299 18.411 23.398 18.4728C23.805 18.8338 23.324 19.2578 23.148 19.4408L22.283 20.3458C21.676 20.9768 21.412 21.4038 20.988 20.9958C20.628 20.6228 20.945 20.3998 21.633 19.7008L22.498 18.7988C22.703 18.5978 22.916 18.3538 23.152 18.3648ZM27.152 18.3648C27.2435 18.3731 27.3299 18.411 27.398 18.4728C27.805 18.8338 27.324 19.2578 27.148 19.4408L26.283 20.3458C25.676 20.9768 25.412 21.4038 24.988 20.9958C24.628 20.6228 24.945 20.3998 25.633 19.7008L26.498 18.7988C26.703 18.5978 26.916 18.3538 27.152 18.3648ZM31.152 18.3648C31.2435 18.3731 31.3299 18.411 31.398 18.4728C31.805 18.8338 31.324 19.2578 31.148 19.4408L30.283 20.3458C29.676 20.9768 29.412 21.4038 28.988 20.9958C28.628 20.6228 28.945 20.3998 29.633 19.7008L30.498 18.7988C30.703 18.5978 30.916 18.3538 31.152 18.3648ZM13.795 23.9808C13.7803 23.9809 13.7657 23.9839 13.7522 23.9897C13.7387 23.9954 13.7264 24.0038 13.7161 24.0143C13.7058 24.0248 13.6976 24.0372 13.6921 24.0508C13.6866 24.0645 13.6838 24.0791 13.684 24.0938C13.684 24.1548 13.734 24.2058 13.794 24.2068C13.857 24.2068 13.907 24.1568 13.908 24.0938C13.9082 24.0788 13.9055 24.064 13.8999 24.0501C13.8944 24.0362 13.8861 24.0235 13.8755 24.0129C13.865 24.0023 13.8525 23.9939 13.8386 23.9882C13.8248 23.9825 13.8099 23.9796 13.795 23.9798V23.9808ZM14.357 23.9808C14.3271 23.981 14.2985 23.993 14.2774 24.0142C14.2562 24.0353 14.2442 24.0639 14.244 24.0938C14.244 24.1548 14.296 24.2068 14.357 24.2068C14.419 24.2068 14.468 24.1548 14.469 24.0938V24.0738C14.4651 24.0471 14.4515 24.0228 14.4309 24.0055C14.4102 23.9881 14.3839 23.979 14.357 23.9798V23.9808ZM14.92 23.9808C14.9051 23.9806 14.8903 23.9835 14.8766 23.9891C14.8628 23.9947 14.8503 24.0031 14.8398 24.0136C14.8293 24.0241 14.8209 24.0366 14.8153 24.0504C14.8097 24.0641 14.8068 24.0789 14.807 24.0938C14.807 24.1558 14.857 24.2078 14.92 24.2068C14.981 24.2068 15.03 24.1548 15.031 24.0938V24.0738C15.0271 24.0473 15.0137 24.0231 14.9932 24.0058C14.9728 23.9885 14.9468 23.9792 14.92 23.9798V23.9808ZM15.482 23.9808C15.4671 23.9806 15.4523 23.9835 15.4386 23.9891C15.4248 23.9947 15.4123 24.0031 15.4018 24.0136C15.3913 24.0241 15.3829 24.0366 15.3773 24.0504C15.3717 24.0641 15.3688 24.0789 15.369 24.0938C15.369 24.1558 15.42 24.2078 15.482 24.2068C15.544 24.2068 15.593 24.1548 15.594 24.0938V24.0858C15.5922 24.0573 15.5796 24.0306 15.5588 24.0111C15.538 23.9916 15.5105 23.9807 15.482 23.9808ZM16.045 23.9808C16.0301 23.9806 16.0153 23.9835 16.0016 23.9891C15.9878 23.9947 15.9753 24.0031 15.9648 24.0136C15.9543 24.0241 15.9459 24.0366 15.9403 24.0504C15.9347 24.0641 15.9318 24.0789 15.932 24.0938C15.932 24.1558 15.982 24.2078 16.045 24.2068C16.106 24.2068 16.155 24.1548 16.156 24.0938V24.0858C16.1542 24.0575 16.1418 24.0309 16.1212 24.0114C16.1006 23.9919 16.0733 23.981 16.045 23.9808ZM16.607 23.9808C16.5921 23.9806 16.5773 23.9835 16.5636 23.9891C16.5498 23.9947 16.5373 24.0031 16.5268 24.0136C16.5163 24.0241 16.5079 24.0366 16.5023 24.0504C16.4967 24.0641 16.4938 24.0789 16.494 24.0938C16.494 24.1558 16.545 24.2078 16.607 24.2068C16.669 24.2068 16.718 24.1548 16.719 24.0938V24.0858C16.7172 24.0573 16.7046 24.0306 16.6838 24.0111C16.663 23.9916 16.6355 23.9807 16.607 23.9808ZM17.168 23.9808C17.1533 23.9809 17.1387 23.9839 17.1252 23.9897C17.1117 23.9954 17.0994 24.0038 17.0891 24.0143C17.0788 24.0248 17.0706 24.0372 17.0651 24.0508C17.0596 24.0645 17.0568 24.0791 17.057 24.0938C17.057 24.1548 17.107 24.2068 17.168 24.2068C17.1979 24.2065 17.2265 24.1945 17.2476 24.1734C17.2687 24.1523 17.2807 24.1237 17.281 24.0938V24.0858C17.2792 24.0571 17.2665 24.0303 17.2454 24.0107C17.2244 23.9912 17.1967 23.9805 17.168 23.9808ZM17.731 23.9808C17.7162 23.9808 17.7015 23.9837 17.6879 23.9894C17.6742 23.9951 17.6618 24.0034 17.6514 24.0139C17.641 24.0244 17.6328 24.0369 17.6272 24.0506C17.6216 24.0643 17.6188 24.079 17.619 24.0938C17.619 24.1548 17.669 24.2068 17.73 24.2068C17.76 24.2068 17.7889 24.1949 17.8102 24.1737C17.8316 24.1526 17.8437 24.1238 17.844 24.0938V24.0858C17.8422 24.0569 17.8293 24.0299 17.8081 24.0104C17.7868 23.9908 17.7589 23.9802 17.73 23.9808H17.731ZM18.293 23.9808C18.2783 23.9809 18.2637 23.9839 18.2502 23.9897C18.2367 23.9954 18.2244 24.0038 18.2141 24.0143C18.2038 24.0248 18.1956 24.0372 18.1901 24.0508C18.1846 24.0645 18.1818 24.0791 18.182 24.0938C18.182 24.1548 18.232 24.2068 18.293 24.2068C18.3229 24.2065 18.3515 24.1945 18.3726 24.1734C18.3937 24.1523 18.4057 24.1237 18.406 24.0938V24.0858C18.4042 24.0571 18.3915 24.0303 18.3704 24.0107C18.3494 23.9912 18.3217 23.9805 18.293 23.9808ZM18.856 23.9808C18.8412 23.9808 18.8265 23.9837 18.8129 23.9894C18.7992 23.9951 18.7868 24.0034 18.7764 24.0139C18.766 24.0244 18.7578 24.0369 18.7522 24.0506C18.7466 24.0643 18.7438 24.079 18.744 24.0938C18.744 24.1548 18.794 24.2068 18.855 24.2068C18.917 24.2068 18.966 24.1548 18.967 24.0938V24.0738C18.9631 24.0473 18.9497 24.0231 18.9292 24.0058C18.9088 23.9885 18.8828 23.9792 18.856 23.9798V23.9808ZM19.418 23.9808C19.4031 23.9806 19.3883 23.9835 19.3746 23.9891C19.3608 23.9947 19.3483 24.0031 19.3378 24.0136C19.3273 24.0241 19.3189 24.0366 19.3133 24.0504C19.3077 24.0641 19.3048 24.0789 19.305 24.0938C19.305 24.1558 19.356 24.2078 19.418 24.2068C19.479 24.2068 19.528 24.1548 19.529 24.0938V24.0858C19.5272 24.0575 19.5148 24.0309 19.4942 24.0114C19.4736 23.9919 19.4463 23.981 19.418 23.9808ZM19.981 23.9808C19.966 23.9805 19.9512 23.9832 19.9373 23.9888C19.9234 23.9944 19.9108 24.0027 19.9001 24.0132C19.8895 24.0237 19.8811 24.0363 19.8754 24.0501C19.8697 24.064 19.8668 24.0788 19.867 24.0938C19.867 24.1558 19.919 24.2078 19.98 24.2068C20.042 24.2068 20.091 24.1548 20.092 24.0938V24.0858C20.0902 24.0575 20.0778 24.0309 20.0572 24.0114C20.0366 23.9919 20.0093 23.981 19.981 23.9808ZM20.543 23.9808C20.5281 23.9806 20.5133 23.9835 20.4996 23.9891C20.4858 23.9947 20.4733 24.0031 20.4628 24.0136C20.4523 24.0241 20.4439 24.0366 20.4383 24.0504C20.4327 24.0641 20.4298 24.0789 20.43 24.0938C20.43 24.1558 20.481 24.2078 20.543 24.2068C20.604 24.2068 20.653 24.1548 20.654 24.0938V24.0858C20.6522 24.0575 20.6398 24.0309 20.6192 24.0114C20.5986 23.9919 20.5713 23.981 20.543 23.9808ZM21.106 23.9808C21.091 23.9805 21.0762 23.9832 21.0623 23.9888C21.0484 23.9944 21.0358 24.0027 21.0251 24.0132C21.0145 24.0237 21.0061 24.0363 21.0004 24.0501C20.9947 24.064 20.9918 24.0788 20.992 24.0938C20.992 24.1558 21.044 24.2078 21.105 24.2068C21.167 24.2068 21.216 24.1548 21.217 24.0938V24.0858C21.2152 24.0575 21.2028 24.0309 21.1822 24.0114C21.1616 23.9919 21.1343 23.981 21.106 23.9808ZM21.666 23.9808C21.6513 23.9809 21.6367 23.9839 21.6232 23.9897C21.6097 23.9954 21.5974 24.0038 21.5871 24.0143C21.5768 24.0248 21.5686 24.0372 21.5631 24.0508C21.5576 24.0645 21.5548 24.0791 21.555 24.0938C21.555 24.1548 21.605 24.2068 21.666 24.2068C21.6959 24.2065 21.7245 24.1945 21.7456 24.1734C21.7667 24.1523 21.7787 24.1237 21.779 24.0938V24.0858C21.7772 24.0571 21.7645 24.0303 21.7434 24.0107C21.7224 23.9912 21.6947 23.9805 21.666 23.9808ZM22.229 23.9808C22.2142 23.9808 22.1995 23.9837 22.1859 23.9894C22.1722 23.9951 22.1598 24.0034 22.1494 24.0139C22.139 24.0244 22.1308 24.0369 22.1252 24.0506C22.1196 24.0643 22.1168 24.079 22.117 24.0938C22.117 24.1548 22.167 24.2068 22.228 24.2068C22.258 24.2068 22.2869 24.1949 22.3082 24.1737C22.3296 24.1526 22.3417 24.1238 22.342 24.0938V24.0858C22.3402 24.0571 22.3275 24.0303 22.3064 24.0107C22.2854 23.9912 22.2577 23.9805 22.229 23.9808ZM22.791 23.9808C22.7763 23.9809 22.7617 23.9839 22.7482 23.9897C22.7347 23.9954 22.7224 24.0038 22.7121 24.0143C22.7018 24.0248 22.6936 24.0372 22.6881 24.0508C22.6826 24.0645 22.6798 24.0791 22.68 24.0938C22.68 24.1548 22.73 24.2058 22.791 24.2068C22.853 24.2068 22.904 24.1568 22.904 24.0938C22.9042 24.0788 22.9015 24.064 22.8959 24.0501C22.8904 24.0362 22.8821 24.0235 22.8715 24.0129C22.861 24.0023 22.8485 23.9939 22.8346 23.9882C22.8208 23.9825 22.8059 23.9796 22.791 23.9798V23.9808ZM23.354 23.9808C23.3392 23.9808 23.3245 23.9837 23.3109 23.9894C23.2972 23.9951 23.2848 24.0034 23.2744 24.0139C23.264 24.0244 23.2558 24.0369 23.2502 24.0506C23.2446 24.0643 23.2418 24.079 23.242 24.0938C23.242 24.1548 23.292 24.2068 23.353 24.2068C23.3827 24.2063 23.411 24.1942 23.4319 24.173C23.4529 24.1519 23.4647 24.1235 23.465 24.0938V24.0738C23.4609 24.0474 23.4474 24.0233 23.427 24.0061C23.4066 23.9888 23.3807 23.9795 23.354 23.9798V23.9808ZM23.916 23.9808C23.9011 23.9806 23.8863 23.9835 23.8726 23.9891C23.8588 23.9947 23.8463 24.0031 23.8358 24.0136C23.8253 24.0241 23.8169 24.0366 23.8113 24.0504C23.8057 24.0641 23.8028 24.0789 23.803 24.0938C23.803 24.1558 23.854 24.2078 23.916 24.2068C23.977 24.2068 24.026 24.1548 24.027 24.0938V24.0738C24.0231 24.0473 24.0097 24.0231 23.9892 24.0058C23.9688 23.9885 23.9428 23.9792 23.916 23.9798V23.9808ZM24.479 23.9808C24.464 23.9805 24.4492 23.9832 24.4353 23.9888C24.4214 23.9944 24.4088 24.0027 24.3981 24.0132C24.3875 24.0237 24.3791 24.0363 24.3734 24.0501C24.3677 24.064 24.3648 24.0788 24.365 24.0938C24.365 24.1558 24.417 24.2078 24.479 24.2068C24.539 24.2068 24.589 24.1548 24.589 24.0938V24.0858C24.5872 24.0576 24.5749 24.0312 24.5545 24.0117C24.5341 23.9923 24.5072 23.9812 24.479 23.9808ZM25.041 23.9808C25.0261 23.9806 25.0113 23.9835 24.9976 23.9891C24.9838 23.9947 24.9713 24.0031 24.9608 24.0136C24.9503 24.0241 24.9419 24.0366 24.9363 24.0504C24.9307 24.0641 24.9278 24.0789 24.928 24.0938C24.928 24.1558 24.979 24.2078 25.041 24.2068C25.102 24.2068 25.151 24.1548 25.152 24.0938V24.0858C25.1502 24.0575 25.1378 24.0309 25.1172 24.0114C25.0966 23.9919 25.0693 23.981 25.041 23.9808ZM25.601 23.9808C25.5714 23.9813 25.5433 23.9935 25.5227 24.0146C25.5021 24.0358 25.4907 24.0642 25.491 24.0938C25.491 24.1548 25.541 24.2068 25.601 24.2068C25.631 24.2068 25.6599 24.1949 25.6812 24.1737C25.7026 24.1526 25.7147 24.1238 25.715 24.0938V24.0858C25.7132 24.0571 25.7005 24.0303 25.6794 24.0107C25.6584 23.9912 25.6307 23.9805 25.602 23.9808H25.601ZM26.164 23.9808C26.1493 23.9809 26.1347 23.9839 26.1212 23.9897C26.1077 23.9954 26.0954 24.0038 26.0851 24.0143C26.0748 24.0248 26.0666 24.0372 26.0611 24.0508C26.0556 24.0645 26.0528 24.0791 26.053 24.0938C26.053 24.1548 26.103 24.2068 26.164 24.2068C26.1939 24.2065 26.2225 24.1945 26.2436 24.1734C26.2647 24.1523 26.2767 24.1237 26.277 24.0938V24.0858C26.2752 24.0571 26.2625 24.0303 26.2414 24.0107C26.2204 23.9912 26.1927 23.9805 26.164 23.9808ZM26.727 23.9808C26.7122 23.9808 26.6975 23.9837 26.6839 23.9894C26.6702 23.9951 26.6578 24.0034 26.6474 24.0139C26.637 24.0244 26.6288 24.0369 26.6232 24.0506C26.6176 24.0643 26.6148 24.079 26.615 24.0938C26.615 24.1548 26.665 24.2068 26.727 24.2068C26.7569 24.2065 26.7855 24.1945 26.8066 24.1734C26.8277 24.1523 26.8397 24.1237 26.84 24.0938V24.0858C26.8382 24.0571 26.8255 24.0303 26.8044 24.0107C26.7834 23.9912 26.7557 23.9805 26.727 23.9808ZM27.289 23.9808C27.2743 23.9809 27.2597 23.9839 27.2462 23.9897C27.2327 23.9954 27.2204 24.0038 27.2101 24.0143C27.1998 24.0248 27.1916 24.0372 27.1861 24.0508C27.1806 24.0645 27.1778 24.0791 27.178 24.0938C27.178 24.1548 27.228 24.2058 27.289 24.2068C27.351 24.2068 27.402 24.1568 27.402 24.0938C27.4022 24.0788 27.3995 24.064 27.3939 24.0501C27.3884 24.0362 27.3801 24.0235 27.3695 24.0129C27.359 24.0023 27.3464 23.9939 27.3326 23.9882C27.3188 23.9825 27.3039 23.9796 27.289 23.9798V23.9808ZM27.852 23.9808C27.8372 23.9808 27.8225 23.9837 27.8089 23.9894C27.7952 23.9951 27.7828 24.0034 27.7724 24.0139C27.762 24.0244 27.7538 24.0369 27.7482 24.0506C27.7426 24.0643 27.7398 24.079 27.74 24.0938C27.74 24.1548 27.79 24.2068 27.852 24.2068C27.912 24.2068 27.962 24.1548 27.962 24.0938C27.964 24.0858 27.964 24.0818 27.962 24.0738C27.9581 24.0475 27.9448 24.0234 27.9246 24.0061C27.9044 23.9889 27.8786 23.9795 27.852 23.9798V23.9808ZM28.414 23.9808C28.3991 23.9806 28.3843 23.9835 28.3706 23.9891C28.3568 23.9947 28.3443 24.0031 28.3338 24.0136C28.3233 24.0241 28.3149 24.0366 28.3093 24.0504C28.3037 24.0641 28.3008 24.0789 28.301 24.0938C28.301 24.1558 28.352 24.2078 28.414 24.2068C28.475 24.2068 28.524 24.1548 28.525 24.0938V24.0858C28.5232 24.0576 28.5109 24.0312 28.4905 24.0117C28.4701 23.9923 28.4432 23.9812 28.415 23.9808H28.414ZM28.977 23.9808C28.962 23.9805 28.9472 23.9832 28.9333 23.9888C28.9194 23.9944 28.9068 24.0027 28.8961 24.0132C28.8855 24.0237 28.8771 24.0363 28.8714 24.0501C28.8657 24.064 28.8628 24.0788 28.863 24.0938C28.863 24.1558 28.915 24.2078 28.977 24.2068C29.037 24.2068 29.087 24.1548 29.087 24.0938V24.0858C29.0852 24.0576 29.0729 24.0312 29.0525 24.0117C29.0321 23.9923 29.0052 23.9812 28.977 23.9808ZM29.539 23.9808C29.5241 23.9806 29.5093 23.9835 29.4956 23.9891C29.4818 23.9947 29.4693 24.0031 29.4588 24.0136C29.4483 24.0241 29.4399 24.0366 29.4343 24.0504C29.4287 24.0641 29.4258 24.0789 29.426 24.0938C29.426 24.1558 29.477 24.2078 29.539 24.2068C29.6 24.2068 29.649 24.1548 29.65 24.0938V24.0858C29.6482 24.0576 29.6359 24.0312 29.6155 24.0117C29.5951 23.9923 29.5682 23.9812 29.54 23.9808H29.539ZM30.099 23.9808C30.0694 23.9813 30.0413 23.9935 30.0207 24.0146C30.0001 24.0358 29.9887 24.0642 29.989 24.0938C29.989 24.1548 30.038 24.2068 30.099 24.2068C30.129 24.2068 30.1579 24.1949 30.1792 24.1737C30.2006 24.1526 30.2127 24.1238 30.213 24.0938V24.0858C30.2112 24.0571 30.1985 24.0303 30.1774 24.0107C30.1564 23.9912 30.1287 23.9805 30.1 23.9808H30.099ZM30.662 23.9808C30.6473 23.9809 30.6327 23.9839 30.6192 23.9897C30.6057 23.9954 30.5934 24.0038 30.5831 24.0143C30.5728 24.0248 30.5646 24.0372 30.5591 24.0508C30.5536 24.0645 30.5508 24.0791 30.551 24.0938C30.551 24.1548 30.601 24.2068 30.662 24.2068C30.6919 24.2065 30.7205 24.1945 30.7416 24.1734C30.7627 24.1523 30.7747 24.1237 30.775 24.0938V24.0858C30.7732 24.0571 30.7605 24.0303 30.7394 24.0107C30.7184 23.9912 30.6907 23.9805 30.662 23.9808ZM31.225 23.9808C31.2102 23.9808 31.1955 23.9837 31.1819 23.9894C31.1682 23.9951 31.1558 24.0034 31.1454 24.0139C31.135 24.0244 31.1268 24.0369 31.1212 24.0506C31.1156 24.0643 31.1128 24.079 31.113 24.0938C31.113 24.1548 31.163 24.2068 31.225 24.2068C31.2549 24.2065 31.2835 24.1945 31.3046 24.1734C31.3257 24.1523 31.3377 24.1237 31.338 24.0938V24.0858C31.3362 24.0571 31.3235 24.0303 31.3024 24.0107C31.2814 23.9912 31.2537 23.9805 31.225 23.9808ZM31.787 23.9808C31.7723 23.9809 31.7577 23.9839 31.7442 23.9897C31.7307 23.9954 31.7184 24.0038 31.7081 24.0143C31.6978 24.0248 31.6896 24.0372 31.6841 24.0508C31.6786 24.0645 31.6758 24.0791 31.676 24.0938C31.676 24.1548 31.726 24.2068 31.787 24.2068C31.848 24.2068 31.897 24.1548 31.898 24.0938V24.0738C31.8941 24.0475 31.8808 24.0234 31.8606 24.0061C31.8404 23.9889 31.8146 23.9795 31.788 23.9798L31.787 23.9808ZM32.35 23.9808C32.335 23.9805 32.3202 23.9832 32.3063 23.9888C32.2924 23.9944 32.2798 24.0027 32.2691 24.0132C32.2585 24.0237 32.2501 24.0363 32.2444 24.0501C32.2387 24.064 32.2358 24.0788 32.236 24.0938C32.236 24.1558 32.288 24.2078 32.35 24.2068C32.41 24.2068 32.46 24.1548 32.46 24.0938C32.462 24.0858 32.462 24.0818 32.46 24.0738C32.4561 24.0475 32.4428 24.0234 32.4226 24.0061C32.4024 23.9889 32.3766 23.9795 32.35 23.9798V23.9808ZM32.912 23.9808C32.8971 23.9806 32.8823 23.9835 32.8686 23.9891C32.8548 23.9947 32.8423 24.0031 32.8318 24.0136C32.8213 24.0241 32.8129 24.0366 32.8073 24.0504C32.8017 24.0641 32.7988 24.0789 32.799 24.0938C32.799 24.1558 32.85 24.2078 32.912 24.2068C32.973 24.2068 33.022 24.1548 33.023 24.0938V24.0858C33.0212 24.0576 33.0089 24.0312 32.9885 24.0117C32.9681 23.9923 32.9412 23.9812 32.913 23.9808H32.912ZM33.475 23.9808C33.46 23.9805 33.4452 23.9832 33.4313 23.9888C33.4174 23.9944 33.4048 24.0027 33.3941 24.0132C33.3835 24.0237 33.3751 24.0363 33.3694 24.0501C33.3637 24.064 33.3608 24.0788 33.361 24.0938C33.361 24.1558 33.413 24.2078 33.475 24.2068C33.5043 24.2057 33.5322 24.1934 33.5527 24.1724C33.5732 24.1513 33.5847 24.1232 33.585 24.0938V24.0858C33.5832 24.0576 33.5709 24.0312 33.5505 24.0117C33.5301 23.9923 33.5032 23.9812 33.475 23.9808ZM34.037 23.9808C34.0221 23.9806 34.0073 23.9835 33.9936 23.9891C33.9798 23.9947 33.9673 24.0031 33.9568 24.0136C33.9463 24.0241 33.9379 24.0366 33.9323 24.0504C33.9267 24.0641 33.9238 24.0789 33.924 24.0938C33.924 24.1558 33.975 24.2078 34.037 24.2068C34.0665 24.206 34.0946 24.1938 34.1153 24.1727C34.136 24.1516 34.1477 24.1233 34.148 24.0938V24.0858C34.1462 24.0576 34.1339 24.0312 34.1135 24.0117C34.0931 23.9923 34.0662 23.9812 34.038 23.9808H34.037ZM34.597 23.9808C34.5674 23.9813 34.5393 23.9935 34.5187 24.0146C34.4981 24.0358 34.4867 24.0642 34.487 24.0938C34.487 24.1548 34.536 24.2068 34.597 24.2068C34.627 24.2068 34.6559 24.1949 34.6772 24.1737C34.6986 24.1526 34.7107 24.1238 34.711 24.0938V24.0858C34.7092 24.0571 34.6965 24.0303 34.6754 24.0107C34.6544 23.9912 34.6267 23.9805 34.598 23.9808H34.597ZM19.087 26.5488V26.5508C18.9626 26.5528 18.8398 26.5794 18.7257 26.629C18.6115 26.6786 18.5083 26.7502 18.422 26.8398L16.613 28.6968C16.5261 28.786 16.4578 28.8916 16.4118 29.0073C16.3659 29.1231 16.3433 29.2468 16.3454 29.3713C16.3474 29.4959 16.374 29.6188 16.4237 29.733C16.4734 29.8472 16.5452 29.9504 16.635 30.0368C16.724 30.124 16.8294 30.1927 16.9451 30.239C17.0608 30.2852 17.1845 30.3081 17.3091 30.3062C17.4338 30.3044 17.5568 30.2778 17.671 30.2281C17.7853 30.1785 17.8886 30.1066 17.975 30.0168L19.783 28.1578C19.8699 28.0686 19.9383 27.9631 19.9844 27.8474C20.0304 27.7316 20.053 27.6079 20.0511 27.4834C20.0491 27.3589 20.0226 27.236 19.973 27.1217C19.9234 27.0075 19.8517 26.9042 19.762 26.8178C19.673 26.7306 19.5676 26.6618 19.4519 26.6155C19.3363 26.5691 19.2126 26.5461 19.088 26.5478L19.087 26.5488ZM23.087 26.5488V26.5508C22.9626 26.5528 22.8398 26.5794 22.7257 26.629C22.6115 26.6786 22.5083 26.7502 22.422 26.8398L20.613 28.6968C20.5261 28.786 20.4578 28.8916 20.4118 29.0073C20.3659 29.1231 20.3433 29.2468 20.3454 29.3713C20.3474 29.4959 20.374 29.6188 20.4237 29.733C20.4734 29.8472 20.5452 29.9504 20.635 30.0368C20.724 30.124 20.8294 30.1927 20.9451 30.239C21.0608 30.2852 21.1845 30.3081 21.3091 30.3062C21.4338 30.3044 21.5568 30.2778 21.671 30.2281C21.7853 30.1785 21.8886 30.1066 21.975 30.0168L23.783 28.1578C23.8699 28.0686 23.9383 27.9631 23.9844 27.8474C24.0304 27.7316 24.053 27.6079 24.0511 27.4834C24.0491 27.3589 24.0226 27.236 23.973 27.1217C23.9234 27.0075 23.8517 26.9042 23.762 26.8178C23.673 26.7306 23.5676 26.6618 23.4519 26.6155C23.3363 26.5691 23.2126 26.5461 23.088 26.5478L23.087 26.5488ZM27.087 26.5488V26.5508C26.9626 26.5528 26.8398 26.5794 26.7257 26.629C26.6115 26.6786 26.5083 26.7502 26.422 26.8398L24.613 28.6968C24.5261 28.786 24.4578 28.8916 24.4118 29.0073C24.3659 29.1231 24.3433 29.2468 24.3454 29.3713C24.3474 29.4959 24.374 29.6188 24.4237 29.733C24.4734 29.8472 24.5452 29.9504 24.635 30.0368C24.724 30.124 24.8294 30.1927 24.9451 30.239C25.0608 30.2852 25.1845 30.3081 25.3091 30.3062C25.4338 30.3044 25.5568 30.2778 25.671 30.2281C25.7853 30.1785 25.8886 30.1066 25.975 30.0168L27.783 28.1578C27.8699 28.0686 27.9383 27.9631 27.9844 27.8474C28.0304 27.7316 28.053 27.6079 28.0511 27.4834C28.0491 27.3589 28.0226 27.236 27.973 27.1217C27.9234 27.0075 27.8517 26.9042 27.762 26.8178C27.673 26.7306 27.5676 26.6618 27.4519 26.6155C27.3363 26.5691 27.2126 26.5461 27.088 26.5478L27.087 26.5488ZM31.087 26.5488V26.5508C30.9626 26.5528 30.8398 26.5794 30.7257 26.629C30.6115 26.6786 30.5083 26.7502 30.422 26.8398L28.613 28.6968C28.5261 28.786 28.4578 28.8916 28.4118 29.0073C28.3659 29.1231 28.3433 29.2468 28.3454 29.3713C28.3474 29.4959 28.374 29.6188 28.4237 29.733C28.4734 29.8472 28.5452 29.9504 28.635 30.0368C28.724 30.124 28.8294 30.1927 28.9451 30.239C29.0608 30.2852 29.1845 30.3081 29.3091 30.3062C29.4338 30.3044 29.5568 30.2778 29.671 30.2281C29.7853 30.1785 29.8886 30.1066 29.975 30.0168L31.783 28.1578C31.8699 28.0686 31.9383 27.9631 31.9844 27.8474C32.0304 27.7316 32.053 27.6079 32.0511 27.4834C32.0491 27.3589 32.0226 27.236 31.973 27.1217C31.9234 27.0075 31.8517 26.9042 31.762 26.8178C31.673 26.7306 31.5676 26.6618 31.4519 26.6155C31.3363 26.5691 31.2126 26.5461 31.088 26.5478L31.087 26.5488ZM19.152 27.0328C19.2435 27.0411 19.3299 27.079 19.398 27.1408C19.805 27.5018 19.324 27.9258 19.148 28.1088L18.283 29.0138C17.676 29.6448 17.412 30.0718 16.988 29.6638C16.628 29.2908 16.945 29.0678 17.633 28.3688L18.498 27.4668C18.703 27.2658 18.916 27.0218 19.152 27.0328ZM23.152 27.0328C23.2435 27.0411 23.3299 27.079 23.398 27.1408C23.805 27.5018 23.324 27.9258 23.148 28.1088L22.283 29.0138C21.676 29.6448 21.412 30.0718 20.988 29.6638C20.628 29.2908 20.945 29.0678 21.633 28.3688L22.498 27.4668C22.703 27.2658 22.916 27.0218 23.152 27.0328ZM27.152 27.0328C27.2435 27.0411 27.3299 27.079 27.398 27.1408C27.805 27.5018 27.324 27.9258 27.148 28.1088L26.283 29.0138C25.676 29.6448 25.412 30.0718 24.988 29.6638C24.628 29.2908 24.945 29.0678 25.633 28.3688L26.498 27.4668C26.703 27.2658 26.916 27.0218 27.152 27.0328ZM31.152 27.0328C31.2435 27.0411 31.3299 27.079 31.398 27.1408C31.805 27.5018 31.324 27.9258 31.148 28.1088L30.283 29.0138C29.676 29.6448 29.412 30.0718 28.988 29.6638C28.628 29.2908 28.945 29.0678 29.633 28.3688L30.498 27.4668C30.703 27.2658 30.916 27.0218 31.152 27.0328ZM13.795 32.9798C13.7802 32.9799 13.7656 32.983 13.752 32.9888C13.7384 32.9946 13.726 33.003 13.7157 33.0136C13.7054 33.0242 13.6973 33.0368 13.6918 33.0505C13.6864 33.0643 13.6837 33.079 13.684 33.0938C13.684 33.1548 13.734 33.2058 13.794 33.2068C13.857 33.2068 13.907 33.1568 13.908 33.0938C13.9082 33.0788 13.9055 33.064 13.8999 33.0501C13.8944 33.0362 13.8861 33.0235 13.8755 33.0129C13.865 33.0023 13.8525 32.9939 13.8386 32.9882C13.8248 32.9825 13.8099 32.9796 13.795 32.9798ZM14.357 32.9798C14.3269 32.98 14.2982 32.9922 14.277 33.0135C14.2558 33.0349 14.244 33.0637 14.244 33.0938C14.244 33.1548 14.296 33.2068 14.357 33.2068C14.419 33.2068 14.468 33.1548 14.469 33.0938V33.0738C14.4648 33.0473 14.4512 33.0232 14.4306 33.0061C14.4099 32.989 14.3838 32.98 14.357 32.9808V32.9798ZM14.92 32.9798C14.905 32.9796 14.8902 32.9825 14.8763 32.9882C14.8625 32.9939 14.8499 33.0023 14.8394 33.0129C14.8289 33.0235 14.8206 33.0362 14.815 33.0501C14.8094 33.064 14.8067 33.0788 14.807 33.0938C14.807 33.1558 14.857 33.2078 14.92 33.2068C14.981 33.2068 15.03 33.1548 15.031 33.0938V33.0738C15.0269 33.0475 15.0134 33.0235 14.9929 33.0064C14.9725 32.9893 14.9466 32.9802 14.92 32.9808V32.9798ZM15.482 32.9798C15.467 32.9796 15.4522 32.9825 15.4383 32.9882C15.4245 32.9939 15.4119 33.0023 15.4014 33.0129C15.3909 33.0235 15.3826 33.0362 15.377 33.0501C15.3714 33.064 15.3687 33.0788 15.369 33.0938C15.369 33.1558 15.42 33.2078 15.482 33.2068C15.544 33.2068 15.593 33.1548 15.594 33.0938V33.0858C15.5922 33.0573 15.5796 33.0306 15.5588 33.0111C15.538 32.9916 15.5105 32.9807 15.482 32.9808V32.9798ZM16.045 32.9798C16.03 32.9796 16.0152 32.9825 16.0013 32.9882C15.9875 32.9939 15.9749 33.0023 15.9644 33.0129C15.9539 33.0235 15.9456 33.0362 15.94 33.0501C15.9344 33.064 15.9317 33.0788 15.932 33.0938C15.932 33.1558 15.982 33.2078 16.045 33.2068C16.106 33.2068 16.155 33.1548 16.156 33.0938V33.0858C16.1542 33.0575 16.1418 33.0309 16.1212 33.0114C16.1006 32.9919 16.0733 32.981 16.045 32.9808V32.9798ZM16.607 32.9798C16.592 32.9796 16.5772 32.9825 16.5633 32.9882C16.5495 32.9939 16.5369 33.0023 16.5264 33.0129C16.5159 33.0235 16.5076 33.0362 16.502 33.0501C16.4964 33.064 16.4937 33.0788 16.494 33.0938C16.494 33.1558 16.545 33.2078 16.607 33.2068C16.669 33.2068 16.718 33.1548 16.719 33.0938V33.0858C16.7172 33.0573 16.7046 33.0306 16.6838 33.0111C16.663 32.9916 16.6355 32.9807 16.607 32.9808V32.9798ZM17.168 32.9798C17.1532 32.9799 17.1386 32.983 17.125 32.9888C17.1114 32.9946 17.099 33.003 17.0887 33.0136C17.0784 33.0242 17.0703 33.0368 17.0648 33.0505C17.0594 33.0643 17.0567 33.079 17.057 33.0938C17.057 33.1548 17.107 33.2068 17.168 33.2068C17.1979 33.2065 17.2265 33.1945 17.2476 33.1734C17.2687 33.1523 17.2807 33.1237 17.281 33.0938V33.0858C17.2792 33.0571 17.2665 33.0303 17.2454 33.0107C17.2244 32.9912 17.1967 32.9805 17.168 32.9808V32.9798ZM17.731 32.9798C17.7161 32.9798 17.7014 32.9827 17.6876 32.9885C17.6739 32.9942 17.6615 33.0027 17.6511 33.0133C17.6406 33.0239 17.6324 33.0365 17.6269 33.0503C17.6214 33.0641 17.6187 33.0789 17.619 33.0938C17.619 33.1548 17.669 33.2068 17.73 33.2068C17.76 33.2068 17.7889 33.1949 17.8102 33.1737C17.8316 33.1526 17.8437 33.1238 17.844 33.0938V33.0858C17.8422 33.0569 17.8293 33.0299 17.8081 33.0104C17.7868 32.9908 17.7589 32.9802 17.73 32.9808L17.731 32.9798ZM18.293 32.9798C18.2782 32.9799 18.2636 32.983 18.25 32.9888C18.2364 32.9946 18.224 33.003 18.2137 33.0136C18.2034 33.0242 18.1953 33.0368 18.1898 33.0505C18.1844 33.0643 18.1817 33.079 18.182 33.0938C18.182 33.1548 18.232 33.2068 18.293 33.2068C18.3229 33.2065 18.3515 33.1945 18.3726 33.1734C18.3937 33.1523 18.4057 33.1237 18.406 33.0938V33.0858C18.4042 33.0571 18.3915 33.0303 18.3704 33.0107C18.3494 32.9912 18.3217 32.9805 18.293 32.9808V32.9798ZM18.856 32.9798C18.8411 32.9798 18.8264 32.9827 18.8126 32.9885C18.7989 32.9942 18.7865 33.0027 18.7761 33.0133C18.7656 33.0239 18.7574 33.0365 18.7519 33.0503C18.7464 33.0641 18.7437 33.0789 18.744 33.0938C18.744 33.1548 18.794 33.2068 18.855 33.2068C18.917 33.2068 18.966 33.1548 18.967 33.0938V33.0738C18.9629 33.0475 18.9494 33.0235 18.9289 33.0064C18.9085 32.9893 18.8826 32.9802 18.856 32.9808V32.9798ZM19.418 32.9798C19.403 32.9796 19.3882 32.9825 19.3743 32.9882C19.3605 32.9939 19.3479 33.0023 19.3374 33.0129C19.3269 33.0235 19.3186 33.0362 19.313 33.0501C19.3074 33.064 19.3047 33.0788 19.305 33.0938C19.305 33.1558 19.356 33.2078 19.418 33.2068C19.479 33.2068 19.528 33.1548 19.529 33.0938V33.0858C19.5272 33.0575 19.5148 33.0309 19.4942 33.0114C19.4736 32.9919 19.4463 32.981 19.418 32.9808V32.9798ZM19.981 32.9798C19.9659 32.9795 19.951 32.9823 19.937 32.9879C19.9231 32.9935 19.9104 33.0019 19.8998 33.0126C19.8891 33.0232 19.8807 33.0359 19.8751 33.0498C19.8695 33.0638 19.8667 33.0787 19.867 33.0938C19.867 33.1558 19.919 33.2078 19.98 33.2068C20.042 33.2068 20.091 33.1548 20.092 33.0938V33.0858C20.0902 33.0575 20.0778 33.0309 20.0572 33.0114C20.0366 32.9919 20.0093 32.981 19.981 32.9808V32.9798ZM20.543 32.9798C20.528 32.9796 20.5132 32.9825 20.4993 32.9882C20.4855 32.9939 20.4729 33.0023 20.4624 33.0129C20.4519 33.0235 20.4436 33.0362 20.438 33.0501C20.4324 33.064 20.4297 33.0788 20.43 33.0938C20.43 33.1558 20.481 33.2078 20.543 33.2068C20.604 33.2068 20.653 33.1548 20.654 33.0938V33.0858C20.6522 33.0575 20.6398 33.0309 20.6192 33.0114C20.5986 32.9919 20.5713 32.981 20.543 32.9808V32.9798ZM21.106 32.9798C21.0909 32.9795 21.076 32.9823 21.062 32.9879C21.0481 32.9935 21.0354 33.0019 21.0248 33.0126C21.0141 33.0232 21.0057 33.0359 21.0001 33.0498C20.9945 33.0638 20.9917 33.0787 20.992 33.0938C20.992 33.1558 21.044 33.2078 21.105 33.2068C21.167 33.2068 21.216 33.1548 21.217 33.0938V33.0858C21.2152 33.0575 21.2028 33.0309 21.1822 33.0114C21.1616 32.9919 21.1343 32.981 21.106 32.9808V32.9798ZM21.666 32.9798C21.6512 32.9799 21.6366 32.983 21.623 32.9888C21.6094 32.9946 21.597 33.003 21.5867 33.0136C21.5764 33.0242 21.5683 33.0368 21.5628 33.0505C21.5574 33.0643 21.5547 33.079 21.555 33.0938C21.555 33.1548 21.605 33.2068 21.666 33.2068C21.6959 33.2065 21.7245 33.1945 21.7456 33.1734C21.7667 33.1523 21.7787 33.1237 21.779 33.0938V33.0858C21.7772 33.0571 21.7645 33.0303 21.7434 33.0107C21.7224 32.9912 21.6947 32.9805 21.666 32.9808V32.9798ZM22.229 32.9798C22.2141 32.9798 22.1994 32.9827 22.1856 32.9885C22.1719 32.9942 22.1595 33.0027 22.1491 33.0133C22.1386 33.0239 22.1304 33.0365 22.1249 33.0503C22.1194 33.0641 22.1167 33.0789 22.117 33.0938C22.117 33.1548 22.167 33.2068 22.228 33.2068C22.258 33.2068 22.2869 33.1949 22.3082 33.1737C22.3296 33.1526 22.3417 33.1238 22.342 33.0938V33.0858C22.3402 33.0571 22.3275 33.0303 22.3064 33.0107C22.2854 32.9912 22.2577 32.9805 22.229 32.9808V32.9798ZM22.791 32.9798C22.7762 32.9799 22.7616 32.983 22.748 32.9888C22.7344 32.9946 22.722 33.003 22.7117 33.0136C22.7014 33.0242 22.6933 33.0368 22.6878 33.0505C22.6824 33.0643 22.6797 33.079 22.68 33.0938C22.68 33.1548 22.73 33.2058 22.791 33.2068C22.853 33.2068 22.904 33.1568 22.904 33.0938C22.9042 33.0788 22.9015 33.064 22.8959 33.0501C22.8904 33.0362 22.8821 33.0235 22.8715 33.0129C22.861 33.0023 22.8485 32.9939 22.8346 32.9882C22.8208 32.9825 22.8059 32.9796 22.791 32.9798ZM23.354 32.9798C23.3391 32.9798 23.3244 32.9827 23.3106 32.9885C23.2969 32.9942 23.2845 33.0027 23.2741 33.0133C23.2636 33.0239 23.2554 33.0365 23.2499 33.0503C23.2444 33.0641 23.2417 33.0789 23.242 33.0938C23.242 33.1548 23.292 33.2068 23.353 33.2068C23.3827 33.2063 23.411 33.1941 23.4319 33.173C23.4529 33.1519 23.4647 33.1235 23.465 33.0938V33.0738C23.4607 33.0476 23.4471 33.0237 23.4267 33.0067C23.4064 32.9896 23.3805 32.9804 23.354 32.9808V32.9798ZM23.916 32.9798C23.901 32.9796 23.8862 32.9825 23.8723 32.9882C23.8585 32.9939 23.8459 33.0023 23.8354 33.0129C23.8249 33.0235 23.8166 33.0362 23.811 33.0501C23.8054 33.064 23.8027 33.0788 23.803 33.0938C23.803 33.1558 23.854 33.2078 23.916 33.2068C23.977 33.2068 24.026 33.1548 24.027 33.0938V33.0738C24.0229 33.0475 24.0094 33.0235 23.9889 33.0064C23.9685 32.9893 23.9426 32.9802 23.916 32.9808V32.9798ZM24.479 32.9798C24.4639 32.9795 24.449 32.9823 24.435 32.9879C24.4211 32.9935 24.4084 33.0019 24.3978 33.0126C24.3871 33.0232 24.3787 33.0359 24.3731 33.0498C24.3675 33.0638 24.3647 33.0787 24.365 33.0938C24.365 33.1558 24.417 33.2078 24.479 33.2068C24.539 33.2068 24.589 33.1548 24.589 33.0938V33.0858C24.5872 33.0576 24.5749 33.0312 24.5545 33.0117C24.5341 32.9923 24.5072 32.9812 24.479 32.9808V32.9798ZM25.041 32.9798C25.026 32.9796 25.0112 32.9825 24.9973 32.9882C24.9835 32.9939 24.9709 33.0023 24.9604 33.0129C24.9499 33.0235 24.9416 33.0362 24.936 33.0501C24.9304 33.064 24.9277 33.0788 24.928 33.0938C24.928 33.1558 24.979 33.2078 25.041 33.2068C25.102 33.2068 25.151 33.1548 25.152 33.0938V33.0858C25.1502 33.0575 25.1378 33.0309 25.1172 33.0114C25.0966 32.9919 25.0693 32.981 25.041 32.9808V32.9798ZM25.601 32.9798C25.5863 32.98 25.5718 32.9832 25.5583 32.9891C25.5448 32.9949 25.5326 33.0034 25.5224 33.014C25.5121 33.0246 25.5041 33.0371 25.4987 33.0508C25.4933 33.0644 25.4907 33.0791 25.491 33.0938C25.491 33.1548 25.541 33.2068 25.601 33.2068C25.631 33.2068 25.6599 33.1949 25.6812 33.1737C25.7026 33.1526 25.7147 33.1238 25.715 33.0938V33.0858C25.7132 33.0571 25.7005 33.0303 25.6794 33.0107C25.6584 32.9912 25.6307 32.9805 25.602 32.9808L25.601 32.9798ZM26.164 32.9798C26.1492 32.9799 26.1346 32.983 26.121 32.9888C26.1074 32.9946 26.095 33.003 26.0847 33.0136C26.0744 33.0242 26.0663 33.0368 26.0608 33.0505C26.0554 33.0643 26.0527 33.079 26.053 33.0938C26.053 33.1548 26.103 33.2068 26.164 33.2068C26.1939 33.2065 26.2225 33.1945 26.2436 33.1734C26.2647 33.1523 26.2767 33.1237 26.277 33.0938V33.0858C26.2752 33.0571 26.2625 33.0303 26.2414 33.0107C26.2204 32.9912 26.1927 32.9805 26.164 32.9808V32.9798ZM26.727 32.9798C26.7121 32.9798 26.6974 32.9827 26.6836 32.9885C26.6699 32.9942 26.6575 33.0027 26.6471 33.0133C26.6366 33.0239 26.6284 33.0365 26.6229 33.0503C26.6174 33.0641 26.6147 33.0789 26.615 33.0938C26.615 33.1548 26.665 33.2068 26.727 33.2068C26.7569 33.2065 26.7855 33.1945 26.8066 33.1734C26.8277 33.1523 26.8397 33.1237 26.84 33.0938V33.0858C26.8382 33.0571 26.8255 33.0303 26.8044 33.0107C26.7834 32.9912 26.7557 32.9805 26.727 32.9808V32.9798ZM27.289 32.9798C27.2742 32.9799 27.2596 32.983 27.246 32.9888C27.2324 32.9946 27.22 33.003 27.2097 33.0136C27.1994 33.0242 27.1913 33.0368 27.1858 33.0505C27.1804 33.0643 27.1777 33.079 27.178 33.0938C27.178 33.1548 27.228 33.2058 27.289 33.2068C27.351 33.2068 27.402 33.1568 27.402 33.0938C27.4022 33.0788 27.3995 33.064 27.3939 33.0501C27.3884 33.0362 27.3801 33.0235 27.3695 33.0129C27.359 33.0023 27.3464 32.9939 27.3326 32.9882C27.3188 32.9825 27.3039 32.9796 27.289 32.9798ZM27.852 32.9798C27.8371 32.9798 27.8224 32.9827 27.8086 32.9885C27.7949 32.9942 27.7825 33.0027 27.7721 33.0133C27.7616 33.0239 27.7534 33.0365 27.7479 33.0503C27.7424 33.0641 27.7397 33.0789 27.74 33.0938C27.74 33.1548 27.79 33.2068 27.852 33.2068C27.912 33.2068 27.962 33.1548 27.962 33.0938C27.964 33.0858 27.964 33.0818 27.962 33.0738C27.9579 33.0476 27.9445 33.0238 27.9243 33.0068C27.9041 32.9897 27.8784 32.9805 27.852 32.9808V32.9798ZM28.414 32.9798C28.399 32.9796 28.3842 32.9825 28.3703 32.9882C28.3565 32.9939 28.3439 33.0023 28.3334 33.0129C28.3229 33.0235 28.3146 33.0362 28.309 33.0501C28.3034 33.064 28.3007 33.0788 28.301 33.0938C28.301 33.1558 28.352 33.2078 28.414 33.2068C28.475 33.2068 28.524 33.1548 28.525 33.0938V33.0858C28.5232 33.0576 28.5109 33.0312 28.4905 33.0117C28.4701 32.9923 28.4432 32.9812 28.415 32.9808L28.414 32.9798ZM28.977 32.9798C28.9619 32.9795 28.947 32.9823 28.933 32.9879C28.9191 32.9935 28.9064 33.0019 28.8958 33.0126C28.8851 33.0232 28.8767 33.0359 28.8711 33.0498C28.8655 33.0638 28.8627 33.0787 28.863 33.0938C28.863 33.1558 28.915 33.2078 28.977 33.2068C29.037 33.2068 29.087 33.1548 29.087 33.0938V33.0858C29.0852 33.0576 29.0729 33.0312 29.0525 33.0117C29.0321 32.9923 29.0052 32.9812 28.977 32.9808V32.9798ZM29.539 32.9798C29.524 32.9796 29.5092 32.9825 29.4953 32.9882C29.4815 32.9939 29.4689 33.0023 29.4584 33.0129C29.4479 33.0235 29.4396 33.0362 29.434 33.0501C29.4284 33.064 29.4257 33.0788 29.426 33.0938C29.426 33.1558 29.477 33.2078 29.539 33.2068C29.6 33.2068 29.649 33.1548 29.65 33.0938V33.0858C29.6482 33.0576 29.6359 33.0312 29.6155 33.0117C29.5951 32.9923 29.5682 32.9812 29.54 32.9808L29.539 32.9798ZM30.099 32.9798C30.0843 32.98 30.0698 32.9832 30.0563 32.9891C30.0428 32.9949 30.0306 33.0034 30.0204 33.014C30.0101 33.0246 30.0021 33.0371 29.9967 33.0508C29.9913 33.0644 29.9887 33.0791 29.989 33.0938C29.989 33.1548 30.038 33.2068 30.099 33.2068C30.129 33.2068 30.1579 33.1949 30.1792 33.1737C30.2006 33.1526 30.2127 33.1238 30.213 33.0938V33.0858C30.2112 33.0571 30.1985 33.0303 30.1774 33.0107C30.1564 32.9912 30.1287 32.9805 30.1 32.9808L30.099 32.9798ZM30.662 32.9798C30.6472 32.9799 30.6326 32.983 30.619 32.9888C30.6054 32.9946 30.593 33.003 30.5827 33.0136C30.5724 33.0242 30.5643 33.0368 30.5588 33.0505C30.5534 33.0643 30.5507 33.079 30.551 33.0938C30.551 33.1548 30.601 33.2068 30.662 33.2068C30.6919 33.2065 30.7205 33.1945 30.7416 33.1734C30.7627 33.1523 30.7747 33.1237 30.775 33.0938V33.0858C30.7732 33.0571 30.7605 33.0303 30.7394 33.0107C30.7184 32.9912 30.6907 32.9805 30.662 32.9808V32.9798ZM31.225 32.9798C31.2101 32.9798 31.1954 32.9827 31.1817 32.9885C31.1679 32.9942 31.1555 33.0027 31.1451 33.0133C31.1346 33.0239 31.1264 33.0365 31.1209 33.0503C31.1154 33.0641 31.1127 33.0789 31.113 33.0938C31.113 33.1548 31.163 33.2068 31.225 33.2068C31.2549 33.2065 31.2835 33.1945 31.3046 33.1734C31.3257 33.1523 31.3377 33.1237 31.338 33.0938V33.0858C31.3362 33.0571 31.3235 33.0303 31.3024 33.0107C31.2814 32.9912 31.2537 32.9805 31.225 32.9808V32.9798ZM31.787 32.9798C31.7722 32.9799 31.7576 32.983 31.744 32.9888C31.7304 32.9946 31.718 33.003 31.7077 33.0136C31.6974 33.0242 31.6893 33.0368 31.6838 33.0505C31.6784 33.0643 31.6757 33.079 31.676 33.0938C31.676 33.1548 31.726 33.2068 31.787 33.2068C31.848 33.2068 31.897 33.1548 31.898 33.0938V33.0738C31.8939 33.0476 31.8805 33.0238 31.8603 33.0068C31.8401 32.9897 31.8144 32.9805 31.788 32.9808L31.787 32.9798ZM32.35 32.9798C32.3349 32.9795 32.32 32.9823 32.306 32.9879C32.2921 32.9935 32.2794 33.0019 32.2688 33.0126C32.2581 33.0232 32.2497 33.0359 32.2441 33.0498C32.2385 33.0638 32.2357 33.0787 32.236 33.0938C32.236 33.1558 32.288 33.2078 32.35 33.2068C32.41 33.2068 32.46 33.1548 32.46 33.0938C32.462 33.0858 32.462 33.0818 32.46 33.0738C32.4559 33.0476 32.4425 33.0238 32.4223 33.0068C32.4021 32.9897 32.3764 32.9805 32.35 32.9808V32.9798ZM32.912 32.9798C32.897 32.9796 32.8822 32.9825 32.8683 32.9882C32.8545 32.9939 32.8419 33.0023 32.8314 33.0129C32.8209 33.0235 32.8126 33.0362 32.807 33.0501C32.8014 33.064 32.7987 33.0788 32.799 33.0938C32.799 33.1558 32.85 33.2078 32.912 33.2068C32.973 33.2068 33.022 33.1548 33.023 33.0938V33.0858C33.0212 33.0576 33.0089 33.0312 32.9885 33.0117C32.9681 32.9923 32.9412 32.9812 32.913 32.9808L32.912 32.9798ZM33.475 32.9798C33.4599 32.9795 33.445 32.9823 33.431 32.9879C33.4171 32.9935 33.4044 33.0019 33.3938 33.0126C33.3831 33.0232 33.3747 33.0359 33.3691 33.0498C33.3635 33.0638 33.3607 33.0787 33.361 33.0938C33.361 33.1558 33.413 33.2078 33.475 33.2068C33.5043 33.2057 33.5322 33.1934 33.5527 33.1724C33.5732 33.1513 33.5847 33.1232 33.585 33.0938V33.0858C33.5832 33.0576 33.5709 33.0312 33.5505 33.0117C33.5301 32.9923 33.5032 32.9812 33.475 32.9808V32.9798ZM34.037 32.9798C34.022 32.9796 34.0072 32.9825 33.9933 32.9882C33.9795 32.9939 33.9669 33.0023 33.9564 33.0129C33.9459 33.0235 33.9376 33.0362 33.932 33.0501C33.9264 33.064 33.9237 33.0788 33.924 33.0938C33.924 33.1558 33.975 33.2078 34.037 33.2068C34.0665 33.206 34.0946 33.1938 34.1153 33.1727C34.136 33.1516 34.1477 33.1233 34.148 33.0938V33.0858C34.1462 33.0576 34.1339 33.0312 34.1135 33.0117C34.0931 32.9923 34.0662 32.9812 34.038 32.9808L34.037 32.9798ZM34.597 32.9798C34.5823 32.98 34.5678 32.9832 34.5543 32.9891C34.5408 32.9949 34.5286 33.0034 34.5184 33.014C34.5081 33.0246 34.5001 33.0371 34.4947 33.0508C34.4893 33.0644 34.4867 33.0791 34.487 33.0938C34.487 33.1548 34.536 33.2068 34.597 33.2068C34.627 33.2068 34.6559 33.1949 34.6772 33.1737C34.6986 33.1526 34.7107 33.1238 34.711 33.0938V33.0858C34.7092 33.0571 34.6965 33.0303 34.6754 33.0107C34.6544 32.9912 34.6267 32.9805 34.598 32.9808L34.597 32.9798ZM19.087 35.2148V35.2168C18.9626 35.2188 18.8398 35.2454 18.7257 35.295C18.6115 35.3445 18.5083 35.4162 18.422 35.5058L16.613 37.3628C16.5261 37.452 16.4578 37.5576 16.4118 37.6733C16.3659 37.7891 16.3433 37.9128 16.3454 38.0373C16.3474 38.1619 16.374 38.2848 16.4237 38.399C16.4734 38.5132 16.5452 38.6164 16.635 38.7028C16.724 38.79 16.8294 38.8587 16.9451 38.905C17.0608 38.9512 17.1845 38.9741 17.3091 38.9722C17.4338 38.9704 17.5568 38.9438 17.671 38.8941C17.7853 38.8445 17.8886 38.7726 17.975 38.6828L19.783 36.8238C19.8699 36.7346 19.9383 36.6291 19.9844 36.5134C20.0304 36.3976 20.053 36.2739 20.0511 36.1494C20.0491 36.0249 20.0226 35.902 19.973 35.7877C19.9234 35.6735 19.8517 35.5702 19.762 35.4838C19.673 35.3966 19.5676 35.3278 19.4519 35.2815C19.3363 35.2351 19.2126 35.2121 19.088 35.2138L19.087 35.2148ZM23.087 35.2148V35.2168C22.9626 35.2188 22.8398 35.2454 22.7257 35.295C22.6115 35.3445 22.5083 35.4162 22.422 35.5058L20.613 37.3628C20.5261 37.452 20.4578 37.5576 20.4118 37.6733C20.3659 37.7891 20.3433 37.9128 20.3454 38.0373C20.3474 38.1619 20.374 38.2848 20.4237 38.399C20.4734 38.5132 20.5452 38.6164 20.635 38.7028C20.724 38.79 20.8294 38.8587 20.9451 38.905C21.0608 38.9512 21.1845 38.9741 21.3091 38.9722C21.4338 38.9704 21.5568 38.9438 21.671 38.8941C21.7853 38.8445 21.8886 38.7726 21.975 38.6828L23.783 36.8238C23.8699 36.7346 23.9383 36.6291 23.9844 36.5134C24.0304 36.3976 24.053 36.2739 24.0511 36.1494C24.0491 36.0249 24.0226 35.902 23.973 35.7877C23.9234 35.6735 23.8517 35.5702 23.762 35.4838C23.673 35.3966 23.5676 35.3278 23.4519 35.2815C23.3363 35.2351 23.2126 35.2121 23.088 35.2138L23.087 35.2148ZM27.087 35.2148V35.2168C26.9626 35.2188 26.8398 35.2454 26.7257 35.295C26.6115 35.3445 26.5083 35.4162 26.422 35.5058L24.613 37.3628C24.5261 37.452 24.4578 37.5576 24.4118 37.6733C24.3659 37.7891 24.3433 37.9128 24.3454 38.0373C24.3474 38.1619 24.374 38.2848 24.4237 38.399C24.4734 38.5132 24.5452 38.6164 24.635 38.7028C24.724 38.79 24.8294 38.8587 24.9451 38.905C25.0608 38.9512 25.1845 38.9741 25.3091 38.9722C25.4338 38.9704 25.5568 38.9438 25.671 38.8941C25.7853 38.8445 25.8886 38.7726 25.975 38.6828L27.783 36.8238C27.8699 36.7346 27.9383 36.6291 27.9844 36.5134C28.0304 36.3976 28.053 36.2739 28.0511 36.1494C28.0491 36.0249 28.0226 35.902 27.973 35.7877C27.9234 35.6735 27.8517 35.5702 27.762 35.4838C27.673 35.3966 27.5676 35.3278 27.4519 35.2815C27.3363 35.2351 27.2126 35.2121 27.088 35.2138L27.087 35.2148ZM31.087 35.2148V35.2168C30.9626 35.2188 30.8398 35.2454 30.7257 35.295C30.6115 35.3445 30.5083 35.4162 30.422 35.5058L28.613 37.3628C28.5261 37.452 28.4578 37.5576 28.4118 37.6733C28.3659 37.7891 28.3433 37.9128 28.3454 38.0373C28.3474 38.1619 28.374 38.2848 28.4237 38.399C28.4734 38.5132 28.5452 38.6164 28.635 38.7028C28.724 38.79 28.8294 38.8587 28.9451 38.905C29.0608 38.9512 29.1845 38.9741 29.3091 38.9722C29.4338 38.9704 29.5568 38.9438 29.671 38.8941C29.7853 38.8445 29.8886 38.7726 29.975 38.6828L31.783 36.8238C31.8699 36.7346 31.9383 36.6291 31.9844 36.5134C32.0304 36.3976 32.053 36.2739 32.0511 36.1494C32.0491 36.0249 32.0226 35.902 31.973 35.7877C31.9234 35.6735 31.8517 35.5702 31.762 35.4838C31.673 35.3966 31.5676 35.3278 31.4519 35.2815C31.3363 35.2351 31.2126 35.2121 31.088 35.2138L31.087 35.2148ZM19.152 35.6988C19.2435 35.7071 19.3299 35.745 19.398 35.8068C19.805 36.1678 19.324 36.5918 19.148 36.7748L18.283 37.6798C17.676 38.3108 17.412 38.7378 16.988 38.3298C16.628 37.9568 16.945 37.7338 17.633 37.0348L18.498 36.1328C18.703 35.9318 18.916 35.6878 19.152 35.6988ZM23.152 35.6988C23.2435 35.7071 23.3299 35.745 23.398 35.8068C23.805 36.1678 23.324 36.5918 23.148 36.7748L22.283 37.6798C21.676 38.3108 21.412 38.7378 20.988 38.3298C20.628 37.9568 20.945 37.7338 21.633 37.0348L22.498 36.1328C22.703 35.9318 22.916 35.6878 23.152 35.6988ZM27.152 35.6988C27.2435 35.7071 27.3299 35.745 27.398 35.8068C27.805 36.1678 27.324 36.5918 27.148 36.7748L26.283 37.6798C25.676 38.3108 25.412 38.7378 24.988 38.3298C24.628 37.9568 24.945 37.7338 25.633 37.0348L26.498 36.1328C26.703 35.9318 26.916 35.6878 27.152 35.6988ZM31.152 35.6988C31.2435 35.7071 31.3299 35.745 31.398 35.8068C31.805 36.1678 31.324 36.5918 31.148 36.7748L30.283 37.6798C29.676 38.3108 29.412 38.7378 28.988 38.3298C28.628 37.9568 28.945 37.7338 29.633 37.0348L30.498 36.1328C30.703 35.9318 30.916 35.6878 31.152 35.6988Z" fill="#333333"/>
</svg>
