<svg width="48" height="48" viewBox="0 0 48 48" fill="none" xmlns="http://www.w3.org/2000/svg">
<g clip-path="url(#clip0)">
<path fill-rule="evenodd" clip-rule="evenodd" d="M0.0883789 0.0928955V48.0928H48.0884V0.0928955H0.0883789ZM14.2349 4.09284H33.9399C34.8094 4.09284 35.5083 4.79182 35.5083 5.66126V42.5225C35.5083 43.3919 34.8094 44.0929 33.9399 44.0929H14.2349C13.3654 44.0929 12.6665 43.3919 12.6665 42.5225V5.66126C12.6665 4.79182 13.3654 4.09284 14.2349 4.09284ZM30.9321 4.82722C30.8732 4.83078 30.827 4.87934 30.8267 4.9383C30.8261 5.00104 30.8772 5.05206 30.9399 5.05168C31.0019 5.05119 31.052 5.00028 31.0513 4.9383C31.0508 4.87707 31.0012 4.82798 30.9399 4.82722C30.9373 4.82715 30.9359 4.82715 30.9321 4.82722H30.9321ZM30.9321 5.38975C30.8732 5.3933 30.827 5.44194 30.8267 5.50128C30.8261 5.56402 30.8772 5.61504 30.9399 5.61466C31.0019 5.61417 31.052 5.56327 31.0513 5.50128C31.0508 5.44005 31.0012 5.3905 30.9399 5.38975C30.9373 5.38967 30.9359 5.38967 30.9321 5.38975H30.9321ZM30.9321 5.95215C30.8732 5.95571 30.827 6.00435 30.8267 6.06369C30.8261 6.12643 30.8772 6.17745 30.9399 6.17707C31.0019 6.17658 31.052 6.12567 31.0513 6.06369C31.0508 6.00246 31.0012 5.95291 30.9399 5.95215C30.9373 5.95208 30.9359 5.95208 30.9321 5.95215H30.9321ZM30.9204 6.51468C30.8669 6.52224 30.8282 6.57141 30.8286 6.62621C30.8291 6.6882 30.8795 6.73804 30.9419 6.73729C31.0031 6.7368 31.0528 6.68782 31.0532 6.62621C31.0528 6.56498 31.0031 6.51543 30.9419 6.51468C30.9343 6.51411 30.9319 6.51411 30.9243 6.51468H30.9224H30.9204ZM30.94 7.07524C30.8772 7.07464 30.8263 7.12588 30.8267 7.18862C30.8272 7.25061 30.8776 7.30019 30.94 7.29981C31.0012 7.29932 31.0505 7.25023 31.0513 7.18862C31.0518 7.12664 31.0023 7.076 30.94 7.07524ZM24.8814 7.10165C23.9977 7.10169 23.2818 7.81772 23.2817 8.70133C23.2818 9.58502 23.9977 10.3009 24.8814 10.3009C25.765 10.3009 26.4809 9.58502 26.481 8.70133C26.4809 7.81772 25.765 7.10169 24.8814 7.10165ZM30.9321 7.6388C30.8724 7.64239 30.8259 7.69209 30.8267 7.75218C30.8272 7.81417 30.8776 7.8641 30.94 7.86372C31.0012 7.86323 31.0509 7.81379 31.0513 7.75218C31.0519 7.6902 31.0019 7.63956 30.94 7.6388C30.9374 7.63869 30.9359 7.63869 30.9321 7.6388H30.9321ZM30.9321 8.20132C30.8724 8.20495 30.8259 8.25461 30.8267 8.3147C30.8272 8.37669 30.8776 8.42662 30.94 8.42624C31.0012 8.42579 31.0509 8.37631 31.0513 8.3147C31.0519 8.25272 31.0019 8.20208 30.94 8.20132C30.9374 8.20125 30.9359 8.20125 30.9321 8.20132H30.9321ZM30.9321 8.76385C30.8724 8.76744 30.8259 8.81713 30.8267 8.87723C30.8272 8.93921 30.8776 8.98914 30.94 8.98876C31.0012 8.98827 31.0509 8.93883 31.0513 8.87723C31.0519 8.81524 31.0019 8.7646 30.94 8.76385C30.9374 8.76377 30.9359 8.76377 30.9321 8.76385H30.9321ZM30.9321 9.32637C30.8732 9.32992 30.827 9.37848 30.8267 9.43744C30.8261 9.50018 30.8772 9.5512 30.94 9.55083C31.0019 9.55033 31.052 9.49943 31.0513 9.43744C31.0508 9.37622 31.0012 9.32713 30.94 9.32637C30.9374 9.32629 30.9359 9.32629 30.9321 9.32637H30.9321ZM19.3189 9.78924C18.4352 9.78928 17.7193 10.5052 17.7192 11.3888C17.7193 12.2725 18.4352 12.9885 19.3189 12.9885C20.2025 12.9885 20.9184 12.2725 20.9185 11.3888C20.9184 10.5052 20.2025 9.78928 19.3189 9.78924ZM30.9321 9.88866C30.8732 9.89229 30.827 9.94074 30.8267 10.0001C30.8261 10.0628 30.8772 10.1138 30.94 10.1135C31.0019 10.113 31.052 10.0621 31.0513 10.0001C31.0508 9.93885 31.0012 9.88942 30.94 9.88866C30.9374 9.88855 30.9359 9.88855 30.9321 9.88866H30.9321ZM30.9204 10.4511C30.8669 10.4586 30.8283 10.5078 30.8286 10.5626C30.828 10.6253 30.8792 10.6764 30.9419 10.676C31.0039 10.6755 31.054 10.6246 31.0532 10.5626C31.0528 10.5014 31.0031 10.4518 30.9419 10.4511C30.9343 10.4505 30.9319 10.4505 30.9243 10.4511H30.9224H30.9204ZM30.94 11.0116C30.8772 11.011 30.8263 11.0623 30.8267 11.125C30.8272 11.187 30.8776 11.237 30.94 11.2362C31.0012 11.2357 31.0505 11.1866 31.0513 11.125C31.0519 11.063 31.0023 11.0124 30.94 11.0116ZM30.94 11.5742C30.8772 11.5736 30.8263 11.6248 30.8267 11.6875C30.8272 11.7495 30.8776 11.7998 30.94 11.7991C31.0012 11.7986 31.0505 11.7488 31.0513 11.6875C31.0519 11.6256 31.0023 11.5749 30.94 11.5742ZM24.8814 11.8751C23.9977 11.8751 23.2818 12.591 23.2818 13.4746C23.2818 14.3583 23.9977 15.0742 24.8814 15.0742C25.765 15.0742 26.4809 14.3583 26.481 13.4746C26.4809 12.591 25.765 11.8751 24.8814 11.8751ZM30.9322 12.1369C30.8724 12.1405 30.8259 12.1902 30.8267 12.2503C30.8272 12.3123 30.8776 12.3626 30.94 12.3618C31.0012 12.3613 31.0509 12.3115 31.0513 12.2503C31.0519 12.1883 31.002 12.1377 30.94 12.1369C30.9374 12.1368 30.936 12.1368 30.9321 12.1369H30.9322ZM30.9322 12.6994C30.8724 12.703 30.8259 12.7527 30.8267 12.8128C30.8272 12.8748 30.8776 12.9251 30.94 12.9243C31.0012 12.9239 31.0509 12.874 31.0513 12.8128C31.0519 12.7508 31.002 12.6998 30.94 12.6994C30.9374 12.6994 30.936 12.6994 30.9321 12.6994H30.9322ZM30.9322 13.262C30.8732 13.2655 30.8271 13.3141 30.8267 13.373C30.8261 13.4358 30.8772 13.4868 30.94 13.4864C31.0019 13.4859 31.052 13.435 31.0513 13.373C31.0508 13.3118 31.0012 13.2627 30.94 13.262C30.9374 13.2619 30.936 13.2619 30.9321 13.262H30.9322ZM30.9322 13.8245C30.8732 13.8281 30.8271 13.8766 30.8267 13.9359C30.8261 13.9986 30.8772 14.0497 30.94 14.0493C31.0019 14.0488 31.052 13.9979 31.0513 13.9359C31.0508 13.8747 31.0012 13.8252 30.94 13.8245C30.9374 13.8244 30.936 13.8244 30.9321 13.8245H30.9322ZM30.9322 14.3869C30.8732 14.3905 30.8271 14.4395 30.8267 14.4984C30.8261 14.5612 30.8772 14.6122 30.94 14.6118C31.0019 14.6113 31.052 14.5604 31.0513 14.4984C31.0508 14.4372 31.0012 14.3873 30.94 14.3869C30.9374 14.3868 30.936 14.3868 30.9321 14.3869H30.9322ZM19.3189 14.5627C18.4352 14.5627 17.7193 15.2787 17.7193 16.1623C17.7193 17.046 18.4352 17.7619 19.3189 17.7619C20.2025 17.7619 20.9184 17.046 20.9185 16.1623C20.9184 15.2787 20.2025 14.5627 19.3189 14.5627ZM30.9204 14.9494C30.8669 14.957 30.8283 15.0065 30.8286 15.0609C30.828 15.1237 30.8792 15.1747 30.9419 15.1743C31.0039 15.1738 31.054 15.1229 31.0532 15.0609C31.0528 14.9997 31.0031 14.9498 30.9419 14.9494C30.9343 14.9488 30.9319 14.9488 30.9243 14.9494H30.9224H30.9204ZM30.9204 15.5119C30.8669 15.5195 30.8283 15.5686 30.8286 15.623C30.8291 15.685 30.8796 15.7349 30.9419 15.7345C31.0031 15.7341 31.0529 15.6842 31.0532 15.623C31.0528 15.5618 31.0031 15.5127 30.9419 15.5119C30.9343 15.5114 30.9319 15.5114 30.9243 15.5119H30.9224H30.9204ZM30.94 16.0725C30.8772 16.0719 30.8263 16.1231 30.8267 16.1859C30.8272 16.2479 30.8776 16.2981 30.94 16.2973C31.0012 16.2968 31.0505 16.2471 31.0513 16.1859C31.0519 16.1239 31.0023 16.0732 30.94 16.0725ZM30.9321 16.635C30.8724 16.6386 30.8259 16.6883 30.8267 16.7484C30.8272 16.8104 30.8776 16.8606 30.94 16.8598C31.0012 16.8593 31.0509 16.8096 31.0513 16.7484C31.0519 16.6864 31.002 16.6358 30.94 16.635C30.9374 16.6349 30.9379 16.6349 30.9341 16.635H30.9321ZM24.8833 17.1095C23.9997 17.1095 23.2837 17.8256 23.2837 18.7092C23.2837 19.5929 23.9997 20.3088 24.8833 20.3088C25.7669 20.3088 26.4829 19.5929 26.4829 18.7092C26.4829 17.8256 25.7669 17.1095 24.8833 17.1095ZM30.9321 17.1977C30.8724 17.2012 30.8259 17.2509 30.8267 17.311C30.8272 17.373 30.8776 17.4229 30.94 17.4221C31.0012 17.4216 31.0509 17.3726 31.0513 17.311C31.0519 17.2491 31.002 17.1984 30.94 17.1977C30.9374 17.1976 30.9379 17.1976 30.9341 17.1977H30.9321ZM30.9321 17.7601C30.8732 17.7637 30.8271 17.8126 30.8267 17.8716C30.8261 17.9343 30.8772 17.9854 30.94 17.985C31.0019 17.9845 31.052 17.9336 31.0513 17.8716C31.0508 17.8104 31.0012 17.7604 30.94 17.7601C30.9374 17.76 30.9379 17.76 30.9341 17.7601H30.9321ZM30.9321 18.3226C30.8732 18.3262 30.8271 18.3752 30.8267 18.4341C30.8261 18.4969 30.8772 18.5479 30.94 18.5475C31.0019 18.547 31.052 18.4961 31.0513 18.4341C31.0508 18.3729 31.0012 18.323 30.94 18.3226C30.9374 18.3225 30.9379 18.3225 30.9341 18.3226H30.9321ZM30.9321 18.8851C30.8732 18.8887 30.8271 18.9377 30.8267 18.9966C30.8261 19.0594 30.8772 19.1104 30.94 19.11C31.0019 19.1095 31.052 19.0586 31.0513 18.9966C31.0508 18.9354 31.0012 18.8855 30.94 18.8851C30.9374 18.885 30.9379 18.885 30.9341 18.8851H30.9321ZM30.9224 19.4476C30.868 19.4552 30.8283 19.5039 30.8286 19.5587C30.828 19.6214 30.8792 19.6725 30.9419 19.6721C31.0039 19.6716 31.054 19.6207 31.0533 19.5587C31.0528 19.4975 31.0032 19.4484 30.9419 19.4476C30.9343 19.4471 30.9319 19.4471 30.9244 19.4476H30.9224ZM19.3208 19.7972C18.4372 19.7972 17.7213 20.5132 17.7212 21.3968C17.7213 22.2805 18.4372 22.9965 19.3208 22.9965C20.2044 22.9965 20.9204 22.2805 20.9204 21.3968C20.9204 20.5132 20.2044 19.7972 19.3208 19.7972ZM30.9419 20.0081C30.8792 20.0075 30.8283 20.0587 30.8286 20.1215C30.8291 20.1834 30.8796 20.2338 30.9419 20.233C31.0032 20.2325 31.0525 20.1827 31.0533 20.1215C31.0538 20.0595 31.0043 20.0088 30.9419 20.0081ZM30.9341 20.5706C30.8744 20.5742 30.8279 20.6239 30.8286 20.684C30.8291 20.746 30.8796 20.7963 30.9419 20.7955C31.0031 20.795 31.0529 20.7452 31.0532 20.684C31.0539 20.622 31.0039 20.571 30.9419 20.5706C30.9393 20.5705 30.9379 20.5705 30.9341 20.5706H30.9341ZM30.9341 21.1331C30.8744 21.1367 30.8279 21.1864 30.8286 21.2465C30.8291 21.3085 30.8796 21.358 30.9419 21.3576C31.0031 21.3571 31.0529 21.3081 31.0532 21.2465C31.0539 21.1845 31.0039 21.1339 30.9419 21.1331C30.9393 21.133 30.9379 21.133 30.9341 21.1331H30.9341ZM30.9341 21.6956C30.8744 21.6993 30.8279 21.7489 30.8286 21.809C30.8291 21.871 30.8796 21.9209 30.9419 21.9201C31.0031 21.9196 31.0529 21.8706 31.0532 21.809C31.0539 21.747 31.0039 21.6964 30.9419 21.6956C30.9393 21.6956 30.9379 21.6956 30.9341 21.6956H30.9341ZM30.9341 22.2581C30.8751 22.2617 30.829 22.3106 30.8286 22.3696C30.828 22.4323 30.8792 22.4834 30.9419 22.483C31.0039 22.4825 31.054 22.4316 31.0532 22.3696C31.0528 22.3084 31.0032 22.2584 30.9419 22.2581C30.9393 22.2579 30.9379 22.2579 30.9341 22.2581H30.9341ZM24.8833 22.3439C23.9997 22.3439 23.2838 23.0599 23.2837 23.9435C23.2838 24.8272 23.9997 25.5431 24.8833 25.5431C25.7669 25.5431 26.4829 24.8272 26.4829 23.9435C26.4829 23.0599 25.7669 22.3439 24.8833 22.3439ZM30.9341 22.8205C30.8751 22.8241 30.829 22.873 30.8286 22.932C30.828 22.9947 30.8792 23.0458 30.9419 23.0454C31.0039 23.0449 31.054 22.994 31.0532 22.932C31.0528 22.8708 31.0032 22.8208 30.9419 22.8205C30.9393 22.8204 30.9379 22.8204 30.9341 22.8205H30.9341ZM30.9341 23.383C30.8751 23.3866 30.829 23.4347 30.8286 23.4941C30.828 23.5568 30.8792 23.6078 30.9419 23.6074C31.0039 23.607 31.054 23.556 31.0532 23.4941C31.0528 23.4328 31.0032 23.3837 30.9419 23.383C30.9393 23.3829 30.9379 23.3829 30.9341 23.383H30.9341ZM30.9224 23.9455C30.868 23.9531 30.8283 24.0018 30.8286 24.0566C30.828 24.1193 30.8792 24.1703 30.9419 24.17C31.0039 24.1695 31.054 24.1186 31.0532 24.0566C31.0528 23.9954 31.0032 23.9463 30.9419 23.9455C30.9343 23.9449 30.9319 23.9449 30.9243 23.9455H30.9224ZM30.9224 24.508C30.868 24.5156 30.8283 24.5639 30.8286 24.6191C30.8291 24.6811 30.8796 24.7314 30.9419 24.7306C31.0031 24.7302 31.0529 24.6803 31.0532 24.6191C31.0528 24.5579 31.0032 24.5084 30.9419 24.508C30.9343 24.5075 30.9319 24.5075 30.9243 24.508H30.9224ZM19.3208 25.0315C18.4372 25.0315 17.7213 25.7474 17.7212 26.631C17.7213 27.5147 18.4372 28.2306 19.3208 28.2306C20.2044 28.2306 20.9204 27.5147 20.9204 26.631C20.9204 25.7474 20.2044 25.0315 19.3208 25.0315ZM30.9341 25.0692C30.8744 25.0728 30.8279 25.1225 30.8286 25.1826C30.8291 25.2445 30.8796 25.2945 30.9419 25.2937C31.0031 25.2933 31.0529 25.2442 31.0532 25.1826C31.0539 25.1206 31.0039 25.0699 30.9419 25.0692C30.9393 25.0691 30.9379 25.0691 30.9341 25.0692H30.9341ZM30.9341 25.6317C30.8744 25.6353 30.8279 25.685 30.8286 25.7451C30.8291 25.8071 30.8796 25.8565 30.9419 25.8561C31.0031 25.8557 31.0529 25.8063 31.0532 25.7451C31.0539 25.6831 31.0039 25.6325 30.9419 25.6317C30.9393 25.6316 30.9379 25.6316 30.9341 25.6317H30.9341ZM30.9341 26.1942C30.8744 26.1978 30.8279 26.2475 30.8286 26.3076C30.8291 26.3696 30.8796 26.4191 30.9419 26.4187C31.0031 26.4182 31.0529 26.3692 31.0532 26.3076C31.0539 26.2456 31.0039 26.195 30.9419 26.1942C30.9393 26.1941 30.9379 26.1941 30.9341 26.1942H30.9341ZM30.9341 26.7567C30.8751 26.7603 30.829 26.8088 30.8286 26.8682C30.828 26.9309 30.8792 26.9819 30.9419 26.9815C31.0039 26.9811 31.054 26.9301 31.0532 26.8682C31.0528 26.8069 31.0032 26.7575 30.9419 26.7567C30.9393 26.7566 30.9379 26.7566 30.9341 26.7567H30.9341ZM30.9341 27.3191C30.8751 27.3227 30.829 27.3714 30.8286 27.4303C30.828 27.4931 30.8792 27.5441 30.9419 27.5437C31.0039 27.5432 31.054 27.4923 31.0532 27.4303C31.0528 27.3691 31.0032 27.3199 30.9419 27.3191C30.9393 27.3191 30.9379 27.3191 30.9341 27.3191H30.9341ZM24.8833 27.5789C23.9997 27.5789 23.2838 28.2948 23.2837 29.1785C23.2838 30.0621 23.9997 30.778 24.8833 30.778C25.7669 30.778 26.4829 30.0621 26.4829 29.1785C26.4829 28.2948 25.7669 27.5789 24.8833 27.5789ZM30.9341 27.8816C30.8751 27.8851 30.829 27.9334 30.8286 27.9927C30.828 28.0555 30.8792 28.1065 30.9419 28.1061C31.0039 28.1056 31.054 28.0547 31.0532 27.9927C31.0528 27.9315 31.0032 27.8823 30.9419 27.8816C30.9393 27.8815 30.9379 27.8815 30.9341 27.8816H30.9341ZM30.9224 28.4441C30.868 28.4516 30.8283 28.5005 30.8286 28.5553C30.8291 28.6173 30.8796 28.6674 30.9419 28.6667C31.0031 28.6662 31.0529 28.6165 31.0532 28.5553C31.0528 28.494 31.0032 28.4448 30.9419 28.4441C30.9343 28.4435 30.9319 28.4435 30.9243 28.4441H30.9224ZM30.9419 29.0046C30.8792 29.004 30.8283 29.0553 30.8287 29.118C30.8291 29.18 30.8796 29.2295 30.9419 29.2291C31.0032 29.2286 31.0525 29.1796 31.0533 29.118C31.0538 29.056 31.0043 29.0054 30.9419 29.0046ZM30.9341 29.567C30.8744 29.5707 30.8279 29.6205 30.8286 29.6805C30.8291 29.7425 30.8796 29.792 30.9419 29.7916C31.0031 29.7911 31.0529 29.7422 31.0532 29.6805C31.0539 29.6186 31.0039 29.5678 30.9419 29.567C30.9393 29.567 30.9379 29.567 30.9341 29.567H30.9341ZM30.9341 30.1296C30.8744 30.1332 30.8279 30.1829 30.8286 30.243C30.8291 30.3049 30.8796 30.3549 30.9419 30.3541C31.0031 30.3537 31.0529 30.3046 31.0532 30.243C31.0539 30.181 31.0039 30.1303 30.9419 30.1296C30.9393 30.1295 30.9379 30.1295 30.9341 30.1296H30.9341ZM19.3208 30.2665C18.4372 30.2665 17.7213 30.9824 17.7212 31.866C17.7213 32.7497 18.4372 33.4656 19.3208 33.4656C20.2044 33.4656 20.9204 32.7497 20.9204 31.866C20.9204 30.9824 20.2044 30.2665 19.3208 30.2665ZM30.9322 30.6922C30.8724 30.6958 30.8259 30.7455 30.8267 30.8056C30.8272 30.8676 30.8776 30.9179 30.94 30.9171C31.0012 30.9167 31.0509 30.8668 31.0513 30.8056C31.0519 30.7436 31.002 30.693 30.94 30.6922C30.9374 30.6921 30.936 30.6921 30.9321 30.6922H30.9322ZM30.9322 31.2547C30.8732 31.2583 30.8271 31.3065 30.8267 31.3658C30.8261 31.4285 30.8772 31.4796 30.94 31.4792C31.0019 31.4787 31.0521 31.4278 31.0513 31.3658C31.0508 31.3046 31.0012 31.2555 30.94 31.2547C30.9374 31.2546 30.936 31.2546 30.9321 31.2547H30.9322ZM30.9322 31.8173C30.8732 31.8208 30.8271 31.8694 30.8267 31.9283C30.8261 31.9911 30.8772 32.0421 30.94 32.0417C31.0019 32.0412 31.0521 31.9903 31.0513 31.9283C31.0508 31.8671 31.0012 31.818 30.94 31.8173C30.9374 31.8172 30.936 31.8172 30.9321 31.8173H30.9322ZM30.9204 32.3797C30.8669 32.3872 30.8283 32.4364 30.8286 32.4909C30.828 32.5536 30.8792 32.6046 30.9419 32.6042C31.0039 32.6037 31.054 32.5528 31.0533 32.4909C31.0528 32.4296 31.0032 32.38 30.9419 32.3797C30.9343 32.3791 30.9319 32.3791 30.9243 32.3797H30.9224H30.9204ZM24.8814 32.8134C23.9977 32.8134 23.2818 33.5293 23.2818 34.4129C23.2818 35.2966 23.9977 36.0125 24.8814 36.0125C25.765 36.0125 26.4809 35.2966 26.481 34.4129C26.4809 33.5293 25.765 32.8134 24.8814 32.8134ZM30.9204 32.9422C30.8669 32.9497 30.8283 32.9993 30.8286 33.0537C30.8291 33.1157 30.8796 33.1656 30.9419 33.1648C31.0032 33.1643 31.0529 33.1153 31.0533 33.0537C31.0528 32.9925 31.0032 32.9426 30.9419 32.9422C30.9343 32.9416 30.9319 32.9416 30.9243 32.9422H30.9224H30.9204ZM30.94 33.5028C30.8772 33.5022 30.8263 33.5534 30.8267 33.6161C30.8272 33.6781 30.8776 33.728 30.94 33.7277C31.0012 33.7272 31.0506 33.6777 31.0513 33.6161C31.0519 33.5541 31.0023 33.5035 30.94 33.5028ZM30.9322 34.0653C30.8724 34.0689 30.8259 34.1186 30.8267 34.1787C30.8272 34.2406 30.8776 34.2901 30.94 34.2897C31.0012 34.2892 31.0509 34.2403 31.0513 34.1787C31.0519 34.1167 31.002 34.066 30.94 34.0653C30.9374 34.0652 30.9379 34.0652 30.9341 34.0653H30.9322ZM30.9322 34.6278C30.8724 34.6314 30.8259 34.6811 30.8267 34.7412C30.8272 34.8032 30.8776 34.853 30.94 34.8526C31.0012 34.8521 31.0509 34.8028 31.0513 34.7412C31.0519 34.6792 31.002 34.6286 30.94 34.6278C30.9374 34.6277 30.9379 34.6277 30.9341 34.6278H30.9322ZM30.9322 35.1902C30.8732 35.1938 30.8271 35.2424 30.8267 35.3014C30.8261 35.3641 30.8772 35.4151 30.94 35.4148C31.0019 35.4143 31.0521 35.3634 31.0513 35.3014C31.0508 35.2402 31.0012 35.191 30.94 35.1902C30.9374 35.1901 30.9379 35.1901 30.9341 35.1902H30.9322ZM19.3208 35.5009C18.4372 35.501 17.7213 36.2169 17.7212 37.1005C17.7213 37.9841 18.4372 38.7002 19.3208 38.7002C20.2044 38.7002 20.9204 37.9841 20.9204 37.1005C20.9204 36.2169 20.2044 35.501 19.3208 35.5009ZM30.9322 35.7531C30.8732 35.7567 30.8271 35.8048 30.8267 35.8641C30.8261 35.9269 30.8772 35.9779 30.94 35.9775C31.0019 35.977 31.0521 35.9261 31.0513 35.8641C31.0508 35.8029 31.0012 35.7538 30.94 35.7531C30.9374 35.753 30.936 35.753 30.9321 35.7531H30.9322ZM30.9322 36.3155C30.8732 36.3191 30.8271 36.3677 30.8267 36.4267C30.8261 36.4894 30.8772 36.5404 30.94 36.5401C31.0019 36.5396 31.0521 36.4887 31.0513 36.4267C31.0508 36.3654 31.0012 36.3162 30.94 36.3155C30.9374 36.3154 30.936 36.3154 30.9321 36.3155H30.9322ZM30.9322 36.878C30.8732 36.8816 30.8271 36.9302 30.8267 36.9895C30.8261 37.0523 30.8772 37.1033 30.94 37.1029C31.0019 37.1024 31.0521 37.0515 31.0513 36.9895C31.0508 36.9283 31.0012 36.8788 30.94 36.878C30.9374 36.8779 30.936 36.8779 30.9321 36.878H30.9322ZM30.9204 37.4405C30.8669 37.4481 30.8283 37.4971 30.8286 37.5519C30.8291 37.6139 30.8796 37.6643 30.9419 37.6631C31.0032 37.6626 31.0529 37.6132 31.0533 37.5519C31.0528 37.4907 31.0032 37.4413 30.9419 37.4405C30.9343 37.44 30.9319 37.44 30.9243 37.4405H30.9224H30.9204ZM24.9693 37.8878C24.0857 37.8879 23.3697 38.6038 23.3697 39.4874C23.3697 40.371 24.0857 41.0869 24.9693 41.0869C25.8529 41.0869 26.5688 40.371 26.5689 39.4874C26.5688 38.6038 25.8529 37.8879 24.9693 37.8878ZM30.9322 38.0012C30.8724 38.0048 30.8259 38.0545 30.8267 38.1146C30.8272 38.1766 30.8776 38.2264 30.94 38.2257C31.0012 38.2252 31.0509 38.1762 31.0513 38.1146C31.0519 38.0526 31.002 38.002 30.94 38.0012C30.9374 38.0011 30.936 38.0011 30.9321 38.0012H30.9322ZM30.9322 38.5636C30.8724 38.5672 30.8259 38.617 30.8267 38.6771C30.8272 38.7391 30.8776 38.7889 30.94 38.7885C31.0012 38.788 31.0509 38.7387 31.0513 38.6771C31.0519 38.6151 31.002 38.5644 30.94 38.5636C30.9374 38.5635 30.936 38.5635 30.9321 38.5636H30.9322ZM30.9322 39.1261C30.8724 39.1297 30.8259 39.1794 30.8267 39.2395C30.8272 39.3015 30.8776 39.3514 30.94 39.3511C31.0012 39.3506 31.0509 39.3011 31.0513 39.2395C31.0519 39.1775 31.002 39.1269 30.94 39.1261C30.9374 39.126 30.936 39.126 30.9321 39.1261H30.9322ZM30.9322 39.6887C30.8732 39.6922 30.8271 39.7409 30.8267 39.7998C30.8261 39.8626 30.8772 39.9136 30.94 39.9132C31.0019 39.9127 31.0521 39.8618 31.0513 39.7998C31.0508 39.7386 31.0012 39.6894 30.94 39.6887C30.9374 39.6886 30.936 39.6886 30.9321 39.6887H30.9322ZM30.9322 40.2512C30.8732 40.2548 30.8271 40.3029 30.8267 40.3623C30.8261 40.425 30.8772 40.476 30.94 40.4756C31.0019 40.4751 31.0521 40.4242 31.0513 40.3623C31.0508 40.301 31.0012 40.2516 30.94 40.2512C30.9374 40.2511 30.936 40.2511 30.9321 40.2512H30.9322ZM30.9322 40.8137C30.8732 40.8173 30.8271 40.8658 30.8267 40.9251C30.8261 40.9879 30.8772 41.0389 30.94 41.0385C31.0019 41.038 31.0521 40.9871 31.0513 40.9251C31.0508 40.8639 31.0012 40.8145 30.94 40.8137C30.9374 40.8136 30.936 40.8136 30.9321 40.8137H30.9322ZM30.9204 41.3761C30.8669 41.3837 30.8283 41.4328 30.8286 41.4876C30.828 41.5504 30.8792 41.6014 30.9419 41.601C31.0039 41.6005 31.054 41.5496 31.0533 41.4876C31.0528 41.4264 31.0032 41.3769 30.9419 41.3761C30.9343 41.3755 30.9319 41.3755 30.9244 41.3761H30.9224H30.9204ZM30.9204 41.9386C30.8669 41.9462 30.8283 41.9954 30.8286 42.0502C30.8291 42.1122 30.8796 42.1616 30.9419 42.1612C31.0032 42.1608 31.0529 42.1118 31.0533 42.0502C31.0528 41.9889 31.0032 41.9394 30.9419 41.9386C30.9343 41.9381 30.9319 41.9381 30.9244 41.9386H30.9224H30.9204ZM30.94 42.4992C30.8772 42.4986 30.8263 42.5498 30.8267 42.6126C30.8272 42.6746 30.8776 42.7245 30.94 42.7241C31.0012 42.7236 31.0506 42.6742 31.0513 42.6126C31.0519 42.5506 31.0023 42.5 30.94 42.4992ZM30.9322 43.0617C30.8724 43.0653 30.8259 43.115 30.8267 43.1751C30.8272 43.2371 30.8776 43.287 30.94 43.2866C31.0012 43.2861 31.0509 43.2367 31.0513 43.1751C31.0519 43.1131 31.002 43.0625 30.94 43.0617C30.9374 43.0616 30.9379 43.0616 30.9341 43.0617H30.9322Z" fill="#333333"/>
</g>
<defs>
<clipPath id="clip0">
<rect width="48" height="48" fill="white"/>
</clipPath>
</defs>
</svg>
