<svg width="48" height="48" viewBox="0 0 48 48" fill="none" xmlns="http://www.w3.org/2000/svg">
<path d="M28.9061 4.0818C23.9861 4.0678 19.1221 4.1248 14.1461 4.1248C13.2771 4.1248 12.5801 4.8238 12.5801 5.6928V42.5538C12.5801 43.4238 13.2771 44.1238 14.1461 44.1238H33.8521C34.7211 44.1238 35.4201 43.4238 35.4201 42.5538V5.6938C35.4201 4.8238 34.7211 4.1238 33.8521 4.1238C32.2035 4.09959 30.5548 4.08559 28.9061 4.0818ZM14.5801 4.6248H33.4181C34.2491 4.6248 34.9201 5.3058 34.9201 6.1548V42.0938C34.9201 42.9408 34.2501 43.6238 33.4181 43.6238H14.5801C13.7491 43.6238 13.0801 42.9408 13.0801 42.0938V6.1538C13.0801 5.3058 13.7491 4.6238 14.5801 4.6238V4.6248ZM20.3671 5.0648C20.3377 5.06585 20.31 5.07838 20.2898 5.09969C20.2696 5.12099 20.2586 5.14938 20.2591 5.17873C20.2596 5.20809 20.2716 5.23606 20.2926 5.25663C20.3135 5.2772 20.3417 5.28873 20.3711 5.28873C20.4004 5.28873 20.4286 5.2772 20.4496 5.25663C20.4705 5.23606 20.4825 5.20809 20.4831 5.17873C20.4836 5.14938 20.4726 5.12099 20.4524 5.09969C20.4322 5.07838 20.4044 5.06585 20.3751 5.0648H20.3671ZM27.6171 5.0648C27.5877 5.06585 27.56 5.07838 27.5398 5.09969C27.5196 5.12099 27.5086 5.14938 27.5091 5.17873C27.5096 5.20809 27.5216 5.23606 27.5426 5.25663C27.5635 5.2772 27.5917 5.28873 27.6211 5.28873C27.6504 5.28873 27.6786 5.2772 27.6996 5.25663C27.7205 5.23606 27.7325 5.20809 27.7331 5.17873C27.7336 5.14938 27.7226 5.12099 27.7024 5.09969C27.6822 5.07838 27.6544 5.06585 27.6251 5.0648H27.6171ZM16.7071 5.2868C16.4937 5.28147 16.2813 5.31889 16.0826 5.39688C15.8839 5.47486 15.7028 5.59182 15.5499 5.74088C15.3971 5.88993 15.2757 6.06807 15.1927 6.26478C15.1098 6.4615 15.0671 6.67282 15.0671 6.8863C15.0671 7.09978 15.1098 7.31111 15.1927 7.50782C15.2757 7.70454 15.3971 7.88267 15.5499 8.03173C15.7028 8.18078 15.8839 8.29775 16.0826 8.37573C16.2813 8.45371 16.4937 8.49114 16.7071 8.4858C17.1314 8.4858 17.5384 8.31723 17.8384 8.01717C18.1385 7.71712 18.3071 7.31015 18.3071 6.8858C18.3071 6.46146 18.1385 6.05449 17.8384 5.75443C17.5384 5.45437 17.1314 5.2858 16.7071 5.2858V5.2868ZM24.0041 5.2868C23.7907 5.28147 23.5783 5.31889 23.3796 5.39688C23.1809 5.47486 22.9998 5.59182 22.8469 5.74088C22.6941 5.88993 22.5727 6.06807 22.4897 6.26478C22.4068 6.4615 22.3641 6.67282 22.3641 6.8863C22.3641 7.09978 22.4068 7.31111 22.4897 7.50782C22.5727 7.70454 22.6941 7.88267 22.8469 8.03173C22.9998 8.18078 23.1809 8.29775 23.3796 8.37573C23.5783 8.45371 23.7907 8.49114 24.0041 8.4858C24.4284 8.4858 24.8354 8.31723 25.1354 8.01717C25.4355 7.71712 25.6041 7.31015 25.6041 6.8858C25.6041 6.46146 25.4355 6.05449 25.1354 5.75443C24.8354 5.45437 24.4284 5.2858 24.0041 5.2858V5.2868ZM31.3011 5.2868C31.0877 5.28147 30.8753 5.31889 30.6766 5.39688C30.4779 5.47486 30.2968 5.59182 30.1439 5.74088C29.9911 5.88993 29.8697 6.06807 29.7867 6.26478C29.7038 6.4615 29.6611 6.67282 29.6611 6.8863C29.6611 7.09978 29.7038 7.31111 29.7867 7.50782C29.8697 7.70454 29.9911 7.88267 30.1439 8.03173C30.2968 8.18078 30.4779 8.29775 30.6766 8.37573C30.8753 8.45371 31.0877 8.49114 31.3011 8.4858C31.7254 8.4858 32.1324 8.31723 32.4324 8.01717C32.7325 7.71712 32.9011 7.31015 32.9011 6.8858C32.9011 6.46146 32.7325 6.05449 32.4324 5.75443C32.1324 5.45437 31.7254 5.2858 31.3011 5.2858V5.2868ZM20.3671 5.6268C20.3377 5.62785 20.31 5.64038 20.2898 5.66169C20.2696 5.68299 20.2586 5.71138 20.2591 5.74073C20.2596 5.77008 20.2716 5.79806 20.2926 5.81863C20.3135 5.8392 20.3417 5.85073 20.3711 5.85073C20.4004 5.85073 20.4286 5.8392 20.4496 5.81863C20.4705 5.79806 20.4825 5.77008 20.4831 5.74073C20.4836 5.71138 20.4726 5.68299 20.4524 5.66169C20.4322 5.64038 20.4044 5.62785 20.3751 5.6268H20.3671ZM27.6171 5.6268C27.5877 5.62785 27.56 5.64038 27.5398 5.66169C27.5196 5.68299 27.5086 5.71138 27.5091 5.74073C27.5096 5.77008 27.5216 5.79806 27.5426 5.81863C27.5635 5.8392 27.5917 5.85073 27.6211 5.85073C27.6504 5.85073 27.6786 5.8392 27.6996 5.81863C27.7205 5.79806 27.7325 5.77008 27.7331 5.74073C27.7336 5.71138 27.7226 5.68299 27.7024 5.66169C27.6822 5.64038 27.6544 5.62785 27.6251 5.6268H27.6171ZM16.7071 5.7498C16.8564 5.74961 17.0043 5.77882 17.1423 5.83578C17.2803 5.89274 17.4058 5.97632 17.5115 6.08176C17.6172 6.1872 17.7011 6.31243 17.7585 6.45031C17.8158 6.58818 17.8454 6.73599 17.8456 6.8853C17.8458 7.03462 17.8166 7.18251 17.7596 7.32053C17.7026 7.45855 17.6191 7.584 17.5136 7.68972C17.4082 7.79544 17.2829 7.87936 17.1451 7.93668C17.0072 7.994 16.8594 8.02361 16.7101 8.0238C16.4085 8.0242 16.1192 7.90479 15.9057 7.69184C15.6921 7.4789 15.572 7.18985 15.5716 6.8883C15.5712 6.58675 15.6906 6.29739 15.9035 6.08388C16.1165 5.87037 16.4055 5.7502 16.7071 5.7498ZM24.0041 5.7498C24.1534 5.74961 24.3013 5.77882 24.4393 5.83578C24.5773 5.89274 24.7028 5.97632 24.8085 6.08176C24.9142 6.1872 24.9981 6.31243 25.0555 6.45031C25.1128 6.58818 25.1424 6.73599 25.1426 6.8853C25.1428 7.03462 25.1136 7.18251 25.0566 7.32053C24.9996 7.45855 24.9161 7.584 24.8106 7.68972C24.7052 7.79544 24.5799 7.87936 24.4421 7.93668C24.3042 7.994 24.1564 8.02361 24.0071 8.0238C23.7055 8.0242 23.4162 7.90479 23.2027 7.69184C22.9891 7.4789 22.869 7.18985 22.8686 6.8883C22.8682 6.58675 22.9876 6.29739 23.2005 6.08388C23.4135 5.87037 23.7025 5.7502 24.0041 5.7498ZM31.3011 5.7498C31.4504 5.74961 31.5983 5.77882 31.7363 5.83578C31.8743 5.89274 31.9998 5.97632 32.1055 6.08176C32.2112 6.1872 32.2951 6.31243 32.3525 6.45031C32.4098 6.58818 32.4394 6.73599 32.4396 6.8853C32.4398 7.03462 32.4106 7.18251 32.3536 7.32053C32.2966 7.45855 32.2131 7.584 32.1076 7.68972C32.0022 7.79544 31.8769 7.87936 31.7391 7.93668C31.6012 7.994 31.4534 8.02361 31.3041 8.0238C31.0025 8.02433 30.7131 7.90505 30.4995 7.6922C30.2859 7.47934 30.1656 7.19035 30.1651 6.8888C30.1645 6.58725 30.2838 6.29784 30.4967 6.08424C30.7095 5.87063 30.9985 5.75033 31.3001 5.7498H31.3011ZM20.3571 6.1898C20.3359 6.19305 20.3161 6.2023 20.3001 6.21645C20.284 6.23061 20.2723 6.24907 20.2664 6.26965C20.2605 6.29024 20.2606 6.31208 20.2668 6.3326C20.2729 6.35311 20.2848 6.37144 20.301 6.3854C20.3173 6.39937 20.3372 6.40839 20.3584 6.4114C20.3796 6.4144 20.4012 6.41127 20.4206 6.40237C20.4401 6.39346 20.4566 6.37916 20.4682 6.36116C20.4798 6.34316 20.486 6.32222 20.4861 6.3008C20.4861 6.2388 20.4361 6.1908 20.3751 6.1888H20.3571V6.1898ZM27.6071 6.1898C27.5859 6.19305 27.5661 6.2023 27.5501 6.21645C27.534 6.23061 27.5223 6.24907 27.5164 6.26965C27.5105 6.29024 27.5106 6.31208 27.5168 6.3326C27.5229 6.35311 27.5348 6.37144 27.551 6.3854C27.5673 6.39937 27.5872 6.40839 27.6084 6.4114C27.6296 6.4144 27.6512 6.41127 27.6706 6.40237C27.6901 6.39346 27.7066 6.37916 27.7182 6.36116C27.7298 6.34316 27.736 6.32222 27.7361 6.3008C27.7361 6.2388 27.6861 6.1908 27.6251 6.1888H27.6071V6.1898ZM20.3771 6.7498C20.3623 6.74967 20.3476 6.75245 20.334 6.75798C20.3203 6.76352 20.3078 6.77169 20.2972 6.78205C20.2867 6.7924 20.2783 6.80473 20.2725 6.81833C20.2667 6.83193 20.2637 6.84653 20.2636 6.8613C20.2634 6.87608 20.2662 6.89073 20.2718 6.90443C20.2773 6.91813 20.2855 6.93061 20.2958 6.94115C20.3062 6.95169 20.3185 6.96008 20.3321 6.96586C20.3457 6.97163 20.3603 6.97467 20.3751 6.9748C20.4049 6.97507 20.4336 6.96347 20.4549 6.94256C20.4762 6.92165 20.4883 6.89314 20.4886 6.8633C20.4888 6.83347 20.4772 6.80475 20.4563 6.78346C20.4354 6.76218 20.4069 6.75007 20.3771 6.7498ZM27.6271 6.7498C27.6123 6.74967 27.5976 6.75245 27.584 6.75798C27.5703 6.76352 27.5578 6.77169 27.5472 6.78205C27.526 6.80296 27.5138 6.83147 27.5136 6.8613C27.5133 6.89114 27.5249 6.91986 27.5458 6.94115C27.5667 6.96243 27.5952 6.97454 27.6251 6.9748C27.6549 6.97507 27.6836 6.96347 27.7049 6.94256C27.7262 6.92165 27.7383 6.89314 27.7386 6.8633C27.7388 6.83347 27.7272 6.80475 27.7063 6.78346C27.6854 6.76218 27.6569 6.75007 27.6271 6.7498ZM20.3671 7.3118C20.3377 7.31285 20.31 7.32538 20.2898 7.34669C20.2696 7.36799 20.2586 7.39638 20.2591 7.42573C20.2596 7.45509 20.2716 7.48306 20.2926 7.50363C20.3135 7.5242 20.3417 7.53573 20.3711 7.53573C20.4004 7.53573 20.4286 7.5242 20.4496 7.50363C20.4705 7.48306 20.4825 7.45509 20.4831 7.42573C20.4836 7.39638 20.4726 7.36799 20.4524 7.34669C20.4322 7.32538 20.4044 7.31285 20.3751 7.3118H20.3671ZM27.6171 7.3118C27.5877 7.31285 27.56 7.32538 27.5398 7.34669C27.5196 7.36799 27.5086 7.39638 27.5091 7.42573C27.5096 7.45509 27.5216 7.48306 27.5426 7.50363C27.5635 7.5242 27.5917 7.53573 27.6211 7.53573C27.6504 7.53573 27.6786 7.5242 27.6996 7.50363C27.7205 7.48306 27.7325 7.45509 27.7331 7.42573C27.7336 7.39638 27.7226 7.36799 27.7024 7.34669C27.6822 7.32538 27.6544 7.31285 27.6251 7.3118H27.6171ZM20.3671 7.8718C20.3377 7.87285 20.31 7.88538 20.2898 7.90669C20.2696 7.92799 20.2586 7.95638 20.2591 7.98573C20.2596 8.01509 20.2716 8.04306 20.2926 8.06363C20.3135 8.0842 20.3417 8.09573 20.3711 8.09573C20.4004 8.09573 20.4286 8.0842 20.4496 8.06363C20.4705 8.04306 20.4825 8.01509 20.4831 7.98573C20.4836 7.95638 20.4726 7.92799 20.4524 7.90669C20.4322 7.88538 20.4044 7.87285 20.3751 7.8718H20.3671ZM27.6171 7.8718C27.5877 7.87285 27.56 7.88538 27.5398 7.90669C27.5196 7.92799 27.5086 7.95638 27.5091 7.98573C27.5096 8.01509 27.5216 8.04306 27.5426 8.06363C27.5635 8.0842 27.5917 8.09573 27.6211 8.09573C27.6504 8.09573 27.6786 8.0842 27.6996 8.06363C27.7205 8.04306 27.7325 8.01509 27.7331 7.98573C27.7336 7.95638 27.7226 7.92799 27.7024 7.90669C27.6822 7.88538 27.6544 7.87285 27.6251 7.8718H27.6171ZM20.3671 8.4348C20.3377 8.43585 20.31 8.44838 20.2898 8.46969C20.2696 8.49099 20.2586 8.51938 20.2591 8.54873C20.2596 8.57809 20.2716 8.60606 20.2926 8.62663C20.3135 8.6472 20.3417 8.65873 20.3711 8.65873C20.4004 8.65873 20.4286 8.6472 20.4496 8.62663C20.4705 8.60606 20.4825 8.57809 20.4831 8.54873C20.4836 8.51938 20.4726 8.49099 20.4524 8.46969C20.4322 8.44838 20.4044 8.43585 20.3751 8.4348H20.3671ZM27.6171 8.4348C27.5877 8.43585 27.56 8.44838 27.5398 8.46969C27.5196 8.49099 27.5086 8.51938 27.5091 8.54873C27.5096 8.57809 27.5216 8.60606 27.5426 8.62663C27.5635 8.6472 27.5917 8.65873 27.6211 8.65873C27.6504 8.65873 27.6786 8.6472 27.6996 8.62663C27.7205 8.60606 27.7325 8.57809 27.7331 8.54873C27.7336 8.51938 27.7226 8.49099 27.7024 8.46969C27.6822 8.44838 27.6544 8.43585 27.6251 8.4348H27.6171ZM20.3671 8.9978C20.3524 8.99872 20.338 9.00253 20.3248 9.00901C20.3115 9.01548 20.2997 9.02451 20.2899 9.03556C20.2802 9.04661 20.2727 9.05947 20.2679 9.07341C20.2631 9.08735 20.2612 9.10209 20.2621 9.1168C20.263 9.13151 20.2668 9.14589 20.2733 9.15913C20.2798 9.17237 20.2888 9.1842 20.2998 9.19395C20.3109 9.2037 20.3237 9.21118 20.3377 9.21596C20.3516 9.22074 20.3664 9.22272 20.3811 9.2218C20.4108 9.21995 20.4385 9.20637 20.4582 9.18405C20.4779 9.16173 20.4879 9.13251 20.4861 9.1028C20.4842 9.0731 20.4706 9.04535 20.4483 9.02566C20.426 9.00597 20.3968 8.99595 20.3671 8.9978ZM27.6171 8.9978C27.6024 8.99872 27.588 9.00253 27.5748 9.00901C27.5615 9.01548 27.5497 9.02451 27.5399 9.03556C27.5302 9.04661 27.5227 9.05947 27.5179 9.07341C27.5131 9.08735 27.5112 9.10209 27.5121 9.1168C27.513 9.13151 27.5168 9.14589 27.5233 9.15913C27.5298 9.17237 27.5388 9.1842 27.5498 9.19395C27.5609 9.2037 27.5737 9.21118 27.5877 9.21596C27.6016 9.22074 27.6164 9.22272 27.6311 9.2218C27.6608 9.21995 27.6885 9.20637 27.7082 9.18405C27.7279 9.16173 27.7379 9.13251 27.7361 9.1028C27.7342 9.0731 27.7206 9.04535 27.6983 9.02566C27.676 9.00597 27.6468 8.99595 27.6171 8.9978ZM16.7071 9.1228C16.4937 9.11747 16.2813 9.15489 16.0826 9.23288C15.8839 9.31086 15.7028 9.42782 15.5499 9.57688C15.3971 9.72593 15.2757 9.90407 15.1927 10.1008C15.1098 10.2975 15.0671 10.5088 15.0671 10.7223C15.0671 10.9358 15.1098 11.1471 15.1927 11.3438C15.2757 11.5405 15.3971 11.7187 15.5499 11.8677C15.7028 12.0168 15.8839 12.1337 16.0826 12.2117C16.2813 12.2897 16.4937 12.3271 16.7071 12.3218C17.1314 12.3218 17.5384 12.1532 17.8384 11.8532C18.1385 11.5531 18.3071 11.1461 18.3071 10.7218C18.3071 10.2975 18.1385 9.89049 17.8384 9.59043C17.5384 9.29037 17.1314 9.1218 16.7071 9.1218V9.1228ZM24.0041 9.1228C23.7907 9.11747 23.5783 9.15489 23.3796 9.23288C23.1809 9.31086 22.9998 9.42782 22.8469 9.57688C22.6941 9.72593 22.5727 9.90407 22.4897 10.1008C22.4068 10.2975 22.3641 10.5088 22.3641 10.7223C22.3641 10.9358 22.4068 11.1471 22.4897 11.3438C22.5727 11.5405 22.6941 11.7187 22.8469 11.8677C22.9998 12.0168 23.1809 12.1337 23.3796 12.2117C23.5783 12.2897 23.7907 12.3271 24.0041 12.3218C24.4284 12.3218 24.8354 12.1532 25.1354 11.8532C25.4355 11.5531 25.6041 11.1461 25.6041 10.7218C25.6041 10.2975 25.4355 9.89049 25.1354 9.59043C24.8354 9.29037 24.4284 9.1218 24.0041 9.1218V9.1228ZM31.3011 9.1228C31.0877 9.11747 30.8753 9.15489 30.6766 9.23288C30.4779 9.31086 30.2968 9.42782 30.1439 9.57688C29.9911 9.72593 29.8697 9.90407 29.7867 10.1008C29.7038 10.2975 29.6611 10.5088 29.6611 10.7223C29.6611 10.9358 29.7038 11.1471 29.7867 11.3438C29.8697 11.5405 29.9911 11.7187 30.1439 11.8677C30.2968 12.0168 30.4779 12.1337 30.6766 12.2117C30.8753 12.2897 31.0877 12.3271 31.3011 12.3218C31.7254 12.3218 32.1324 12.1532 32.4324 11.8532C32.7325 11.5531 32.9011 11.1461 32.9011 10.7218C32.9011 10.2975 32.7325 9.89049 32.4324 9.59043C32.1324 9.29037 31.7254 9.1218 31.3011 9.1218V9.1228ZM20.3671 9.5598C20.345 9.56118 20.3238 9.569 20.3061 9.58231C20.2884 9.59562 20.2751 9.61383 20.2676 9.63467C20.2602 9.65551 20.2591 9.67808 20.2644 9.69956C20.2696 9.72105 20.2811 9.74051 20.2974 9.75554C20.3136 9.77056 20.3339 9.78049 20.3557 9.78408C20.3776 9.78768 20.4 9.78479 20.4202 9.77576C20.4404 9.76674 20.4575 9.75198 20.4694 9.73332C20.4813 9.71467 20.4874 9.69293 20.4871 9.6708C20.4868 9.65557 20.4835 9.64054 20.4773 9.62664C20.471 9.61273 20.462 9.60025 20.4508 9.58995C20.4395 9.57966 20.4263 9.57176 20.4119 9.56675C20.3975 9.56174 20.3823 9.55971 20.3671 9.5608V9.5598ZM27.6171 9.5598C27.595 9.56118 27.5738 9.569 27.5561 9.58231C27.5384 9.59562 27.5251 9.61383 27.5176 9.63467C27.5102 9.65551 27.5091 9.67808 27.5144 9.69956C27.5196 9.72105 27.5311 9.74051 27.5474 9.75554C27.5636 9.77056 27.5839 9.78049 27.6057 9.78408C27.6276 9.78768 27.65 9.78479 27.6702 9.77576C27.6904 9.76674 27.7075 9.75198 27.7194 9.73332C27.7313 9.71467 27.7374 9.69293 27.7371 9.6708C27.7368 9.65557 27.7335 9.64054 27.7273 9.62664C27.721 9.61273 27.712 9.60025 27.7008 9.58995C27.6895 9.57966 27.6763 9.57176 27.6619 9.56675C27.6475 9.56174 27.6323 9.55971 27.6171 9.5608V9.5598ZM16.7071 9.5838C17.0032 9.59258 17.2842 9.71638 17.4906 9.92893C17.6969 10.1415 17.8123 10.4261 17.8123 10.7223C17.8123 11.0185 17.6969 11.3031 17.4906 11.5157C17.2842 11.7282 17.0032 11.852 16.7071 11.8608C16.411 11.852 16.1299 11.7282 15.9236 11.5157C15.7172 11.3031 15.6018 11.0185 15.6018 10.7223C15.6018 10.4261 15.7172 10.1415 15.9236 9.92893C16.1299 9.71638 16.411 9.59258 16.7071 9.5838ZM24.0041 9.5838C24.3002 9.59258 24.5812 9.71638 24.7876 9.92893C24.9939 10.1415 25.1093 10.4261 25.1093 10.7223C25.1093 11.0185 24.9939 11.3031 24.7876 11.5157C24.5812 11.7282 24.3002 11.852 24.0041 11.8608C23.708 11.852 23.4269 11.7282 23.2206 11.5157C23.0142 11.3031 22.8988 11.0185 22.8988 10.7223C22.8988 10.4261 23.0142 10.1415 23.2206 9.92893C23.4269 9.71638 23.708 9.59258 24.0041 9.5838ZM31.3011 9.5838C31.603 9.5838 31.8926 9.70375 32.1061 9.91726C32.3196 10.1308 32.4396 10.4204 32.4396 10.7223C32.4396 11.0243 32.3196 11.3138 32.1061 11.5273C31.8926 11.7409 31.603 11.8608 31.3011 11.8608C31.005 11.852 30.7239 11.7282 30.5176 11.5157C30.3112 11.3031 30.1958 11.0185 30.1958 10.7223C30.1958 10.4261 30.3112 10.1415 30.5176 9.92893C30.7239 9.71638 31.005 9.59258 31.3011 9.5838ZM20.3561 10.1228C20.3295 10.1273 20.3054 10.1412 20.2882 10.1619C20.271 10.1827 20.2617 10.2089 20.2621 10.2358C20.2621 10.2655 20.2739 10.294 20.2949 10.315C20.3159 10.336 20.3444 10.3478 20.3741 10.3478C20.4038 10.3478 20.4323 10.336 20.4533 10.315C20.4743 10.294 20.4861 10.2655 20.4861 10.2358C20.4858 10.2063 20.4741 10.178 20.4534 10.1569C20.4327 10.1358 20.4046 10.1236 20.3751 10.1228H20.3551H20.3561ZM27.6061 10.1228C27.5795 10.1273 27.5554 10.1412 27.5382 10.1619C27.521 10.1827 27.5117 10.2089 27.5121 10.2358C27.5121 10.2655 27.5239 10.294 27.5449 10.315C27.5659 10.336 27.5944 10.3478 27.6241 10.3478C27.6538 10.3478 27.6823 10.336 27.7033 10.315C27.7243 10.294 27.7361 10.2655 27.7361 10.2358C27.7358 10.2063 27.7241 10.178 27.7034 10.1569C27.6827 10.1358 27.6546 10.1236 27.6251 10.1228H27.6051H27.6061ZM20.3771 10.6828C20.362 10.6829 20.3471 10.686 20.3333 10.692C20.3194 10.6979 20.3069 10.7065 20.2964 10.7173C20.2859 10.728 20.2776 10.7408 20.2721 10.7548C20.2665 10.7688 20.2638 10.7837 20.2641 10.7988C20.2641 10.8608 20.3141 10.9088 20.3771 10.9078C20.3916 10.9079 20.406 10.9052 20.4195 10.8997C20.4329 10.8942 20.4452 10.8862 20.4555 10.8759C20.4658 10.8657 20.474 10.8535 20.4796 10.8401C20.4852 10.8267 20.4881 10.8123 20.4881 10.7978C20.4884 10.7679 20.4769 10.7391 20.4561 10.7176C20.4353 10.6961 20.407 10.6836 20.3771 10.6828ZM27.6271 10.6828C27.612 10.6829 27.5971 10.686 27.5833 10.692C27.5694 10.6979 27.5569 10.7065 27.5464 10.7173C27.5359 10.728 27.5276 10.7408 27.5221 10.7548C27.5165 10.7688 27.5138 10.7837 27.5141 10.7988C27.5141 10.8608 27.5641 10.9088 27.6271 10.9078C27.6416 10.9079 27.656 10.9052 27.6695 10.8997C27.6829 10.8942 27.6952 10.8862 27.7055 10.8759C27.7158 10.8657 27.724 10.8535 27.7296 10.8401C27.7352 10.8267 27.7381 10.8123 27.7381 10.7978C27.7384 10.7679 27.7269 10.7391 27.7061 10.7176C27.6853 10.6961 27.657 10.6836 27.6271 10.6828ZM20.3771 11.2458C20.3623 11.2457 20.3476 11.2485 20.334 11.254C20.3203 11.2595 20.3078 11.2677 20.2972 11.278C20.2867 11.2884 20.2783 11.3007 20.2725 11.3143C20.2667 11.3279 20.2637 11.3425 20.2636 11.3573C20.2634 11.3721 20.2662 11.3867 20.2718 11.4004C20.2773 11.4141 20.2855 11.4266 20.2958 11.4371C20.3062 11.4477 20.3185 11.4561 20.3321 11.4619C20.3457 11.4676 20.3603 11.4707 20.3751 11.4708C20.4049 11.4711 20.4336 11.4595 20.4549 11.4386C20.4762 11.4176 20.4883 11.3891 20.4886 11.3593C20.4888 11.3295 20.4772 11.3007 20.4563 11.2795C20.4354 11.2582 20.4069 11.2461 20.3771 11.2458ZM27.6271 11.2458C27.6123 11.2457 27.5976 11.2485 27.584 11.254C27.5703 11.2595 27.5578 11.2677 27.5472 11.278C27.526 11.299 27.5138 11.3275 27.5136 11.3573C27.5133 11.3871 27.5249 11.4159 27.5458 11.4371C27.5667 11.4584 27.5952 11.4705 27.6251 11.4708C27.6549 11.4711 27.6836 11.4595 27.7049 11.4386C27.7262 11.4176 27.7383 11.3891 27.7386 11.3593C27.7388 11.3295 27.7272 11.3007 27.7063 11.2795C27.6854 11.2582 27.6569 11.2461 27.6271 11.2458ZM20.3671 11.8078C20.3388 11.8113 20.3128 11.8252 20.2943 11.8469C20.2757 11.8686 20.266 11.8965 20.267 11.925C20.268 11.9535 20.2797 11.9806 20.2997 12.0009C20.3197 12.0212 20.3466 12.0333 20.3751 12.0348C20.4361 12.0348 20.4851 11.9828 20.4861 11.9218C20.4864 11.9063 20.4835 11.8909 20.4775 11.8766C20.4716 11.8623 20.4628 11.8494 20.4516 11.8387C20.4404 11.828 20.4271 11.8197 20.4126 11.8144C20.398 11.8091 20.3825 11.8068 20.3671 11.8078ZM27.6171 11.8078C27.5888 11.8113 27.5628 11.8252 27.5443 11.8469C27.5257 11.8686 27.516 11.8965 27.517 11.925C27.518 11.9535 27.5297 11.9806 27.5497 12.0009C27.5697 12.0212 27.5966 12.0333 27.6251 12.0348C27.6861 12.0348 27.7351 11.9828 27.7361 11.9218C27.7364 11.9063 27.7335 11.8909 27.7275 11.8766C27.7216 11.8623 27.7128 11.8494 27.7016 11.8387C27.6904 11.828 27.6771 11.8197 27.6626 11.8144C27.648 11.8091 27.6325 11.8068 27.6171 11.8078ZM20.3671 12.3708C20.3388 12.3743 20.3128 12.3882 20.2943 12.4099C20.2757 12.4316 20.266 12.4595 20.267 12.488C20.268 12.5165 20.2797 12.5436 20.2997 12.5639C20.3197 12.5842 20.3466 12.5963 20.3751 12.5978C20.4361 12.5968 20.4851 12.5448 20.4861 12.4838C20.4862 12.4691 20.4834 12.4545 20.4779 12.4409C20.4724 12.4272 20.4643 12.4148 20.454 12.4043C20.4437 12.3938 20.4314 12.3855 20.4179 12.3797C20.4043 12.374 20.3898 12.3709 20.3751 12.3708H20.3671ZM27.6171 12.3708C27.5888 12.3743 27.5628 12.3882 27.5443 12.4099C27.5257 12.4316 27.516 12.4595 27.517 12.488C27.518 12.5165 27.5297 12.5436 27.5497 12.5639C27.5697 12.5842 27.5966 12.5963 27.6251 12.5978C27.6861 12.5968 27.7351 12.5448 27.7361 12.4838C27.7362 12.4691 27.7334 12.4545 27.7279 12.4409C27.7224 12.4272 27.7143 12.4148 27.704 12.4043C27.6937 12.3938 27.6814 12.3855 27.6679 12.3797C27.6543 12.374 27.6398 12.3709 27.6251 12.3708H27.6171ZM20.3671 12.9328C20.3377 12.9339 20.31 12.9464 20.2898 12.9677C20.2696 12.989 20.2586 13.0174 20.2591 13.0467C20.2596 13.0761 20.2716 13.1041 20.2926 13.1246C20.3135 13.1452 20.3417 13.1567 20.3711 13.1567C20.4004 13.1567 20.4286 13.1452 20.4496 13.1246C20.4705 13.1041 20.4825 13.0761 20.4831 13.0467C20.4836 13.0174 20.4726 12.989 20.4524 12.9677C20.4322 12.9464 20.4044 12.9339 20.3751 12.9328H20.3671ZM27.6171 12.9328C27.5877 12.9339 27.56 12.9464 27.5398 12.9677C27.5196 12.989 27.5086 13.0174 27.5091 13.0467C27.5096 13.0761 27.5216 13.1041 27.5426 13.1246C27.5635 13.1452 27.5917 13.1567 27.6211 13.1567C27.6504 13.1567 27.6786 13.1452 27.6996 13.1246C27.7205 13.1041 27.7325 13.0761 27.7331 13.0467C27.7336 13.0174 27.7226 12.989 27.7024 12.9677C27.6822 12.9464 27.6544 12.9339 27.6251 12.9328H27.6171ZM16.7071 12.9588C16.4937 12.9535 16.2813 12.9909 16.0826 13.0689C15.8839 13.1469 15.7028 13.2638 15.5499 13.4129C15.3971 13.5619 15.2757 13.7401 15.1927 13.9368C15.1098 14.1335 15.0671 14.3448 15.0671 14.5583C15.0671 14.7718 15.1098 14.9831 15.1927 15.1798C15.2757 15.3765 15.3971 15.5547 15.5499 15.7037C15.7028 15.8528 15.8839 15.9697 16.0826 16.0477C16.2813 16.1257 16.4937 16.1631 16.7071 16.1578C17.1314 16.1578 17.5384 15.9892 17.8384 15.6892C18.1385 15.3891 18.3071 14.9821 18.3071 14.5578C18.3071 14.1335 18.1385 13.7265 17.8384 13.4264C17.5384 13.1264 17.1314 12.9578 16.7071 12.9578V12.9588ZM24.0041 12.9588C23.7907 12.9535 23.5783 12.9909 23.3796 13.0689C23.1809 13.1469 22.9998 13.2638 22.8469 13.4129C22.6941 13.5619 22.5727 13.7401 22.4897 13.9368C22.4068 14.1335 22.3641 14.3448 22.3641 14.5583C22.3641 14.7718 22.4068 14.9831 22.4897 15.1798C22.5727 15.3765 22.6941 15.5547 22.8469 15.7037C22.9998 15.8528 23.1809 15.9697 23.3796 16.0477C23.5783 16.1257 23.7907 16.1631 24.0041 16.1578C24.4284 16.1578 24.8354 15.9892 25.1354 15.6892C25.4355 15.3891 25.6041 14.9821 25.6041 14.5578C25.6041 14.1335 25.4355 13.7265 25.1354 13.4264C24.8354 13.1264 24.4284 12.9578 24.0041 12.9578V12.9588ZM31.3011 12.9588C31.0877 12.9535 30.8753 12.9909 30.6766 13.0689C30.4779 13.1469 30.2968 13.2638 30.1439 13.4129C29.9911 13.5619 29.8697 13.7401 29.7867 13.9368C29.7038 14.1335 29.6611 14.3448 29.6611 14.5583C29.6611 14.7718 29.7038 14.9831 29.7867 15.1798C29.8697 15.3765 29.9911 15.5547 30.1439 15.7037C30.2968 15.8528 30.4779 15.9697 30.6766 16.0477C30.8753 16.1257 31.0877 16.1631 31.3011 16.1578C31.7254 16.1578 32.1324 15.9892 32.4324 15.6892C32.7325 15.3891 32.9011 14.9821 32.9011 14.5578C32.9011 14.1335 32.7325 13.7265 32.4324 13.4264C32.1324 13.1264 31.7254 12.9578 31.3011 12.9578V12.9588ZM16.7071 13.4218C16.8564 13.4216 17.0043 13.4508 17.1423 13.5078C17.2803 13.5647 17.4058 13.6483 17.5115 13.7538C17.6172 13.8592 17.7011 13.9844 17.7585 14.1223C17.8158 14.2602 17.8454 14.408 17.8456 14.5573C17.8458 14.7066 17.8166 14.8545 17.7596 14.9925C17.7026 15.1306 17.6191 15.256 17.5136 15.3617C17.4082 15.4674 17.2829 15.5514 17.1451 15.6087C17.0072 15.666 16.8594 15.6956 16.7101 15.6958C16.4085 15.6962 16.1192 15.5768 15.9057 15.3638C15.6921 15.1509 15.572 14.8619 15.5716 14.5603C15.5712 14.2588 15.6906 13.9694 15.9035 13.7559C16.1165 13.5424 16.4055 13.4222 16.7071 13.4218ZM24.0041 13.4218C24.1534 13.4216 24.3013 13.4508 24.4393 13.5078C24.5773 13.5647 24.7028 13.6483 24.8085 13.7538C24.9142 13.8592 24.9981 13.9844 25.0555 14.1223C25.1128 14.2602 25.1424 14.408 25.1426 14.5573C25.1428 14.7066 25.1136 14.8545 25.0566 14.9925C24.9996 15.1306 24.9161 15.256 24.8106 15.3617C24.7052 15.4674 24.5799 15.5514 24.4421 15.6087C24.3042 15.666 24.1564 15.6956 24.0071 15.6958C23.7055 15.6962 23.4162 15.5768 23.2027 15.3638C22.9891 15.1509 22.869 14.8619 22.8686 14.5603C22.8682 14.2588 22.9876 13.9694 23.2005 13.7559C23.4135 13.5424 23.7025 13.4222 24.0041 13.4218ZM31.3011 13.4218C31.4504 13.4216 31.5983 13.4508 31.7363 13.5078C31.8743 13.5647 31.9998 13.6483 32.1055 13.7538C32.2112 13.8592 32.2951 13.9844 32.3525 14.1223C32.4098 14.2602 32.4394 14.408 32.4396 14.5573C32.4398 14.7066 32.4106 14.8545 32.3536 14.9925C32.2966 15.1306 32.2131 15.256 32.1076 15.3617C32.0022 15.4674 31.8769 15.5514 31.7391 15.6087C31.6012 15.666 31.4534 15.6956 31.3041 15.6958C31.0025 15.6962 30.7132 15.5768 30.4997 15.3638C30.2861 15.1509 30.166 14.8619 30.1656 14.5603C30.1652 14.2588 30.2846 13.9694 30.4975 13.7559C30.7105 13.5424 30.9995 13.4222 31.3011 13.4218ZM20.3671 13.4958C20.3377 13.4969 20.31 13.5094 20.2898 13.5307C20.2696 13.552 20.2586 13.5804 20.2591 13.6097C20.2596 13.6391 20.2716 13.6671 20.2926 13.6876C20.3135 13.7082 20.3417 13.7197 20.3711 13.7197C20.4004 13.7197 20.4286 13.7082 20.4496 13.6876C20.4705 13.6671 20.4825 13.6391 20.4831 13.6097C20.4836 13.5804 20.4726 13.552 20.4524 13.5307C20.4322 13.5094 20.4044 13.4969 20.3751 13.4958H20.3671ZM27.6171 13.4958C27.5877 13.4969 27.56 13.5094 27.5398 13.5307C27.5196 13.552 27.5086 13.5804 27.5091 13.6097C27.5096 13.6391 27.5216 13.6671 27.5426 13.6876C27.5635 13.7082 27.5917 13.7197 27.6211 13.7197C27.6504 13.7197 27.6786 13.7082 27.6996 13.6876C27.7205 13.6671 27.7325 13.6391 27.7331 13.6097C27.7336 13.5804 27.7226 13.552 27.7024 13.5307C27.6822 13.5094 27.6544 13.4969 27.6251 13.4958H27.6171ZM20.3671 14.0578C20.3372 14.0597 20.3094 14.0733 20.2896 14.0957C20.2698 14.1181 20.2597 14.1475 20.2616 14.1773C20.2634 14.2071 20.2771 14.235 20.2995 14.2548C20.3219 14.2746 20.3512 14.2847 20.3811 14.2828C20.3959 14.2819 20.4103 14.2781 20.4236 14.2716C20.4369 14.2651 20.4488 14.256 20.4586 14.2449C20.4684 14.2338 20.4759 14.2209 20.4807 14.2069C20.4855 14.1929 20.4875 14.1781 20.4866 14.1633C20.4857 14.1485 20.4818 14.1341 20.4753 14.1208C20.4688 14.1075 20.4598 14.0956 20.4487 14.0858C20.4376 14.076 20.4247 14.0685 20.4107 14.0637C20.3967 14.0589 20.3819 14.0569 20.3671 14.0578ZM27.6171 14.0578C27.5872 14.0597 27.5594 14.0733 27.5396 14.0957C27.5198 14.1181 27.5097 14.1475 27.5116 14.1773C27.5134 14.2071 27.5271 14.235 27.5495 14.2548C27.5719 14.2746 27.6012 14.2847 27.6311 14.2828C27.6459 14.2819 27.6603 14.2781 27.6736 14.2716C27.6869 14.2651 27.6988 14.256 27.7086 14.2449C27.7184 14.2338 27.7259 14.2209 27.7307 14.2069C27.7355 14.1929 27.7375 14.1781 27.7366 14.1633C27.7357 14.1485 27.7318 14.1341 27.7253 14.1208C27.7188 14.1075 27.7098 14.0956 27.6987 14.0858C27.6876 14.076 27.6747 14.0685 27.6607 14.0637C27.6467 14.0589 27.6319 14.0569 27.6171 14.0578ZM20.3551 14.6208C20.3289 14.6251 20.3051 14.6387 20.288 14.659C20.2709 14.6794 20.2617 14.7052 20.2621 14.7318C20.2619 14.754 20.2683 14.7757 20.2804 14.7942C20.2925 14.8127 20.3099 14.8272 20.3303 14.8359C20.3507 14.8445 20.3732 14.847 20.3949 14.8428C20.4167 14.8387 20.4368 14.8282 20.4526 14.8127C20.4684 14.7972 20.4792 14.7773 20.4837 14.7556C20.4882 14.7339 20.4862 14.7114 20.4779 14.6909C20.4696 14.6703 20.4554 14.6527 20.4371 14.6402C20.4188 14.6278 20.3972 14.621 20.3751 14.6208H20.3551ZM27.6051 14.6208C27.5789 14.6251 27.5551 14.6387 27.538 14.659C27.5209 14.6794 27.5117 14.7052 27.5121 14.7318C27.5119 14.754 27.5183 14.7757 27.5304 14.7942C27.5425 14.8127 27.5599 14.8272 27.5803 14.8359C27.6007 14.8445 27.6232 14.847 27.6449 14.8428C27.6667 14.8387 27.6868 14.8282 27.7026 14.8127C27.7184 14.7972 27.7292 14.7773 27.7337 14.7556C27.7382 14.7339 27.7362 14.7114 27.7279 14.6909C27.7196 14.6703 27.7054 14.6527 27.6871 14.6402C27.6688 14.6278 27.6472 14.621 27.6251 14.6208H27.6051ZM20.3551 15.1828C20.334 15.1862 20.3143 15.1956 20.2984 15.2099C20.2825 15.2241 20.271 15.2426 20.2652 15.2632C20.2595 15.2838 20.2597 15.3056 20.2659 15.326C20.2722 15.3464 20.2841 15.3647 20.3004 15.3785C20.3166 15.3924 20.3365 15.4013 20.3576 15.4043C20.3788 15.4072 20.4004 15.4041 20.4198 15.3952C20.4392 15.3862 20.4557 15.372 20.4672 15.354C20.4788 15.3361 20.485 15.3152 20.4851 15.2938C20.4851 15.2338 20.4361 15.1838 20.3751 15.1838H20.3551V15.1828ZM27.6051 15.1828C27.584 15.1862 27.5643 15.1956 27.5484 15.2099C27.5325 15.2241 27.521 15.2426 27.5152 15.2632C27.5095 15.2838 27.5097 15.3056 27.5159 15.326C27.5222 15.3464 27.5341 15.3647 27.5504 15.3785C27.5666 15.3924 27.5865 15.4013 27.6076 15.4043C27.6288 15.4072 27.6504 15.4041 27.6698 15.3952C27.6892 15.3862 27.7057 15.372 27.7172 15.354C27.7288 15.3361 27.735 15.3152 27.7351 15.2938C27.7351 15.2338 27.6861 15.1838 27.6251 15.1838H27.6051V15.1828ZM20.3771 15.7438C20.3623 15.7437 20.3476 15.7465 20.334 15.752C20.3203 15.7575 20.3078 15.7657 20.2972 15.776C20.2759 15.797 20.2638 15.8255 20.2636 15.8553C20.2633 15.8851 20.2749 15.9139 20.2958 15.9351C20.3167 15.9564 20.3452 15.9685 20.3751 15.9688C20.4049 15.9691 20.4336 15.9575 20.4549 15.9366C20.4762 15.9157 20.4883 15.8871 20.4886 15.8573C20.4888 15.8275 20.4772 15.7987 20.4563 15.7775C20.4354 15.7562 20.4069 15.7441 20.3771 15.7438ZM27.6271 15.7438C27.6123 15.7437 27.5976 15.7465 27.584 15.752C27.5703 15.7575 27.5578 15.7657 27.5472 15.776C27.526 15.797 27.5138 15.8255 27.5136 15.8553C27.5133 15.8851 27.5249 15.9139 27.5458 15.9351C27.5667 15.9564 27.5952 15.9685 27.6251 15.9688C27.6549 15.9691 27.6836 15.9575 27.7049 15.9366C27.7262 15.9157 27.7383 15.8871 27.7386 15.8573C27.7388 15.8275 27.7272 15.7987 27.7063 15.7775C27.6854 15.7562 27.6569 15.7441 27.6271 15.7438ZM20.3671 16.3068C20.3384 16.3086 20.3116 16.3213 20.292 16.3423C20.2725 16.3634 20.2618 16.3911 20.2621 16.4198C20.2621 16.4818 20.3121 16.5318 20.3751 16.5308C20.3898 16.5303 20.4042 16.5269 20.4176 16.5207C20.431 16.5146 20.4431 16.5059 20.4531 16.4952C20.4631 16.4844 20.4709 16.4718 20.4761 16.458C20.4812 16.4442 20.4836 16.4295 20.4831 16.4148C20.4826 16.4001 20.4791 16.3856 20.473 16.3722C20.4669 16.3589 20.4582 16.3468 20.4474 16.3368C20.4367 16.3267 20.424 16.3189 20.4102 16.3138C20.3965 16.3087 20.3818 16.3063 20.3671 16.3068ZM27.6171 16.3068C27.5884 16.3086 27.5616 16.3213 27.542 16.3423C27.5225 16.3634 27.5118 16.3911 27.5121 16.4198C27.5121 16.4818 27.5621 16.5318 27.6251 16.5308C27.6398 16.5303 27.6542 16.5269 27.6676 16.5207C27.681 16.5146 27.6931 16.5059 27.7031 16.4952C27.7131 16.4844 27.7209 16.4718 27.7261 16.458C27.7312 16.4442 27.7336 16.4295 27.7331 16.4148C27.7326 16.4001 27.7291 16.3856 27.723 16.3722C27.7169 16.3589 27.7082 16.3468 27.6974 16.3368C27.6867 16.3267 27.674 16.3189 27.6602 16.3138C27.6465 16.3087 27.6318 16.3063 27.6171 16.3068ZM16.7071 16.7948C16.4937 16.7895 16.2813 16.8269 16.0826 16.9049C15.8839 16.9829 15.7028 17.0998 15.5499 17.2489C15.3971 17.3979 15.2757 17.5761 15.1927 17.7728C15.1098 17.9695 15.0671 18.1808 15.0671 18.3943C15.0671 18.6078 15.1098 18.8191 15.1927 19.0158C15.2757 19.2125 15.3971 19.3907 15.5499 19.5397C15.7028 19.6888 15.8839 19.8057 16.0826 19.8837C16.2813 19.9617 16.4937 19.9991 16.7071 19.9938C17.1314 19.9938 17.5384 19.8252 17.8384 19.5252C18.1385 19.2251 18.3071 18.8181 18.3071 18.3938C18.3071 17.9695 18.1385 17.5625 17.8384 17.2624C17.5384 16.9624 17.1314 16.7938 16.7071 16.7938V16.7948ZM24.0041 16.7948C23.7907 16.7895 23.5783 16.8269 23.3796 16.9049C23.1809 16.9829 22.9998 17.0998 22.8469 17.2489C22.6941 17.3979 22.5727 17.5761 22.4897 17.7728C22.4068 17.9695 22.3641 18.1808 22.3641 18.3943C22.3641 18.6078 22.4068 18.8191 22.4897 19.0158C22.5727 19.2125 22.6941 19.3907 22.8469 19.5397C22.9998 19.6888 23.1809 19.8057 23.3796 19.8837C23.5783 19.9617 23.7907 19.9991 24.0041 19.9938C24.4284 19.9938 24.8354 19.8252 25.1354 19.5252C25.4355 19.2251 25.6041 18.8181 25.6041 18.3938C25.6041 17.9695 25.4355 17.5625 25.1354 17.2624C24.8354 16.9624 24.4284 16.7938 24.0041 16.7938V16.7948ZM31.3011 16.7948C31.0877 16.7895 30.8753 16.8269 30.6766 16.9049C30.4779 16.9829 30.2968 17.0998 30.1439 17.2489C29.9911 17.3979 29.8697 17.5761 29.7867 17.7728C29.7038 17.9695 29.6611 18.1808 29.6611 18.3943C29.6611 18.6078 29.7038 18.8191 29.7867 19.0158C29.8697 19.2125 29.9911 19.3907 30.1439 19.5397C30.2968 19.6888 30.4779 19.8057 30.6766 19.8837C30.8753 19.9617 31.0877 19.9991 31.3011 19.9938C31.7254 19.9938 32.1324 19.8252 32.4324 19.5252C32.7325 19.2251 32.9011 18.8181 32.9011 18.3938C32.9011 17.9695 32.7325 17.5625 32.4324 17.2624C32.1324 16.9624 31.7254 16.7938 31.3011 16.7938V16.7948ZM20.3671 16.8688C20.3377 16.8699 20.31 16.8824 20.2898 16.9037C20.2696 16.925 20.2586 16.9534 20.2591 16.9827C20.2596 17.0121 20.2716 17.0401 20.2926 17.0606C20.3135 17.0812 20.3417 17.0927 20.3711 17.0927C20.4004 17.0927 20.4286 17.0812 20.4496 17.0606C20.4705 17.0401 20.4825 17.0121 20.4831 16.9827C20.4836 16.9534 20.4726 16.925 20.4524 16.9037C20.4322 16.8824 20.4044 16.8699 20.3751 16.8688C20.3724 16.8687 20.3697 16.8687 20.3671 16.8688ZM27.6171 16.8688C27.5877 16.8699 27.56 16.8824 27.5398 16.9037C27.5196 16.925 27.5086 16.9534 27.5091 16.9827C27.5096 17.0121 27.5216 17.0401 27.5426 17.0606C27.5635 17.0812 27.5917 17.0927 27.6211 17.0927C27.6504 17.0927 27.6786 17.0812 27.6996 17.0606C27.7205 17.0401 27.7325 17.0121 27.7331 16.9827C27.7336 16.9534 27.7226 16.925 27.7024 16.9037C27.6822 16.8824 27.6544 16.8699 27.6251 16.8688C27.6224 16.8687 27.6197 16.8687 27.6171 16.8688ZM16.7071 17.2558C16.8566 17.2558 17.0046 17.2853 17.1428 17.3425C17.2809 17.3997 17.4064 17.4835 17.5121 17.5893C17.6178 17.695 17.7017 17.8205 17.7589 17.9586C17.8161 18.0967 17.8456 18.2448 17.8456 18.3943C17.8456 18.5438 17.8161 18.6919 17.7589 18.83C17.7017 18.9681 17.6178 19.0936 17.5121 19.1993C17.4064 19.3051 17.2809 19.3889 17.1428 19.4461C17.0046 19.5034 16.8566 19.5328 16.7071 19.5328C16.411 19.524 16.1299 19.4002 15.9236 19.1877C15.7172 18.9751 15.6018 18.6905 15.6018 18.3943C15.6018 18.0981 15.7172 17.8135 15.9236 17.6009C16.1299 17.3884 16.411 17.2646 16.7071 17.2558ZM24.0041 17.2558C24.1536 17.2558 24.3016 17.2853 24.4398 17.3425C24.5779 17.3997 24.7034 17.4835 24.8091 17.5893C24.9148 17.695 24.9987 17.8205 25.0559 17.9586C25.1131 18.0967 25.1426 18.2448 25.1426 18.3943C25.1426 18.5438 25.1131 18.6919 25.0559 18.83C24.9987 18.9681 24.9148 19.0936 24.8091 19.1993C24.7034 19.3051 24.5779 19.3889 24.4398 19.4461C24.3016 19.5034 24.1536 19.5328 24.0041 19.5328C23.708 19.524 23.4269 19.4002 23.2206 19.1877C23.0142 18.9751 22.8988 18.6905 22.8988 18.3943C22.8988 18.0981 23.0142 17.8135 23.2206 17.6009C23.4269 17.3884 23.708 17.2646 24.0041 17.2558ZM31.3011 17.2558C31.4506 17.2558 31.5986 17.2853 31.7368 17.3425C31.8749 17.3997 32.0004 17.4835 32.1061 17.5893C32.2118 17.695 32.2957 17.8205 32.3529 17.9586C32.4101 18.0967 32.4396 18.2448 32.4396 18.3943C32.4396 18.5438 32.4101 18.6919 32.3529 18.83C32.2957 18.9681 32.2118 19.0936 32.1061 19.1993C32.0004 19.3051 31.8749 19.3889 31.7368 19.4461C31.5986 19.5034 31.4506 19.5328 31.3011 19.5328C31.005 19.524 30.7239 19.4002 30.5176 19.1877C30.3112 18.9751 30.1958 18.6905 30.1958 18.3943C30.1958 18.0981 30.3112 17.8135 30.5176 17.6009C30.7239 17.3884 31.005 17.2646 31.3011 17.2558ZM20.3671 17.4308C20.3523 17.4317 20.3379 17.4355 20.3246 17.442C20.3113 17.4485 20.2994 17.4576 20.2896 17.4687C20.2798 17.4798 20.2723 17.4927 20.2675 17.5067C20.2627 17.5207 20.2607 17.5355 20.2616 17.5503C20.2625 17.5651 20.2663 17.5795 20.2728 17.5928C20.2793 17.6061 20.2884 17.618 20.2995 17.6278C20.3106 17.6376 20.3235 17.6451 20.3375 17.6499C20.3515 17.6547 20.3663 17.6567 20.3811 17.6558C20.4108 17.6539 20.4385 17.6404 20.4582 17.618C20.4779 17.5957 20.4879 17.5665 20.4861 17.5368C20.4842 17.5071 20.4706 17.4793 20.4483 17.4597C20.426 17.44 20.3968 17.4299 20.3671 17.4318V17.4308ZM27.6171 17.4308C27.6023 17.4317 27.5879 17.4355 27.5746 17.442C27.5613 17.4485 27.5494 17.4576 27.5396 17.4687C27.5298 17.4798 27.5223 17.4927 27.5175 17.5067C27.5127 17.5207 27.5107 17.5355 27.5116 17.5503C27.5125 17.5651 27.5163 17.5795 27.5228 17.5928C27.5293 17.6061 27.5384 17.618 27.5495 17.6278C27.5606 17.6376 27.5735 17.6451 27.5875 17.6499C27.6015 17.6547 27.6163 17.6567 27.6311 17.6558C27.6608 17.6539 27.6885 17.6404 27.7082 17.618C27.7279 17.5957 27.7379 17.5665 27.7361 17.5368C27.7342 17.5071 27.7206 17.4793 27.6983 17.4597C27.676 17.44 27.6468 17.4299 27.6171 17.4318V17.4308ZM20.3671 17.9938C20.3524 17.9947 20.338 17.9985 20.3248 18.005C20.3115 18.0115 20.2997 18.0205 20.2899 18.0316C20.2802 18.0426 20.2727 18.0555 20.2679 18.0694C20.2631 18.0834 20.2612 18.0981 20.2621 18.1128C20.263 18.1275 20.2668 18.1419 20.2733 18.1551C20.2798 18.1684 20.2888 18.1802 20.2998 18.1899C20.3109 18.1997 20.3237 18.2072 20.3377 18.212C20.3516 18.2167 20.3664 18.2187 20.3811 18.2178C20.4108 18.2159 20.4385 18.2024 20.4582 18.18C20.4779 18.1577 20.4879 18.1285 20.4861 18.0988C20.4842 18.0691 20.4706 18.0413 20.4483 18.0217C20.426 18.002 20.3968 17.9919 20.3671 17.9938ZM27.6171 17.9938C27.5874 17.9957 27.5596 18.0092 27.5399 18.0316C27.5202 18.0539 27.5102 18.0831 27.5121 18.1128C27.5139 18.1425 27.5275 18.1703 27.5498 18.1899C27.5721 18.2096 27.6014 18.2197 27.6311 18.2178C27.6458 18.2169 27.6602 18.2131 27.6734 18.2066C27.6866 18.2001 27.6985 18.1911 27.7082 18.18C27.718 18.169 27.7255 18.1561 27.7302 18.1422C27.735 18.1283 27.737 18.1135 27.7361 18.0988C27.7352 18.0841 27.7314 18.0697 27.7249 18.0565C27.7184 18.0432 27.7094 18.0314 27.6983 18.0217C27.6873 18.0119 27.6744 18.0044 27.6605 17.9997C27.6465 17.9949 27.6318 17.9929 27.6171 17.9938ZM20.3671 18.5568C20.3524 18.5577 20.338 18.5615 20.3248 18.568C20.3115 18.5745 20.2997 18.5835 20.2899 18.5946C20.2802 18.6056 20.2727 18.6185 20.2679 18.6324C20.2631 18.6463 20.2612 18.6611 20.2621 18.6758C20.263 18.6905 20.2668 18.7049 20.2733 18.7181C20.2798 18.7314 20.2888 18.7432 20.2998 18.7529C20.3109 18.7627 20.3237 18.7702 20.3377 18.775C20.3516 18.7797 20.3664 18.7817 20.3811 18.7808C20.4108 18.7789 20.4385 18.7654 20.4582 18.743C20.4779 18.7207 20.4879 18.6915 20.4861 18.6618C20.4842 18.6321 20.4706 18.6043 20.4483 18.5847C20.426 18.565 20.3968 18.5549 20.3671 18.5568ZM27.6171 18.5568C27.6024 18.5577 27.588 18.5615 27.5748 18.568C27.5615 18.5745 27.5497 18.5835 27.5399 18.5946C27.5302 18.6056 27.5227 18.6185 27.5179 18.6324C27.5131 18.6463 27.5112 18.6611 27.5121 18.6758C27.513 18.6905 27.5168 18.7049 27.5233 18.7181C27.5298 18.7314 27.5388 18.7432 27.5498 18.7529C27.5609 18.7627 27.5737 18.7702 27.5877 18.775C27.6016 18.7797 27.6164 18.7817 27.6311 18.7808C27.6608 18.7789 27.6885 18.7654 27.7082 18.743C27.7279 18.7207 27.7379 18.6915 27.7361 18.6618C27.7342 18.6321 27.7206 18.6043 27.6983 18.5847C27.676 18.565 27.6468 18.5549 27.6171 18.5568ZM20.3551 19.1188C20.3288 19.1229 20.3048 19.1364 20.2877 19.1568C20.2706 19.1773 20.2615 19.2032 20.2621 19.2298C20.2617 19.2522 20.268 19.2743 20.2801 19.2931C20.2923 19.312 20.3098 19.3268 20.3304 19.3356C20.351 19.3445 20.3738 19.347 20.3959 19.3429C20.4179 19.3387 20.4382 19.3281 20.4542 19.3124C20.4703 19.2967 20.4812 19.2766 20.4857 19.2546C20.4903 19.2326 20.4881 19.2098 20.4797 19.189C20.4712 19.1683 20.4567 19.1505 20.4381 19.138C20.4194 19.1255 20.3975 19.1188 20.3751 19.1188H20.3551ZM27.6051 19.1188C27.5788 19.1229 27.5548 19.1364 27.5377 19.1568C27.5206 19.1773 27.5115 19.2032 27.5121 19.2298C27.5117 19.2522 27.518 19.2743 27.5301 19.2931C27.5423 19.312 27.5598 19.3268 27.5804 19.3356C27.601 19.3445 27.6238 19.347 27.6459 19.3429C27.6679 19.3387 27.6882 19.3281 27.7042 19.3124C27.7203 19.2967 27.7312 19.2766 27.7357 19.2546C27.7403 19.2326 27.7381 19.2098 27.7297 19.189C27.7212 19.1683 27.7067 19.1505 27.6881 19.138C27.6694 19.1255 27.6475 19.1188 27.6251 19.1188H27.6051ZM20.3771 19.6788C20.3623 19.6787 20.3476 19.6815 20.334 19.687C20.3203 19.6925 20.3078 19.7007 20.2972 19.711C20.2867 19.7214 20.2783 19.7337 20.2725 19.7473C20.2667 19.7609 20.2637 19.7755 20.2636 19.7903C20.2634 19.8051 20.2662 19.8197 20.2718 19.8334C20.2773 19.8471 20.2855 19.8596 20.2958 19.8701C20.3062 19.8807 20.3185 19.8891 20.3321 19.8949C20.3457 19.9006 20.3603 19.9037 20.3751 19.9038C20.3898 19.9039 20.4044 19.9012 20.418 19.8957C20.4317 19.8902 20.4441 19.882 20.4546 19.8717C20.4651 19.8614 20.4734 19.8491 20.4792 19.8356C20.4849 19.8221 20.4879 19.8075 20.4881 19.7928C20.4882 19.7781 20.4854 19.7635 20.4799 19.7499C20.4744 19.7362 20.4663 19.7238 20.456 19.7133C20.4457 19.7028 20.4334 19.6945 20.4199 19.6887C20.4063 19.683 20.3918 19.6799 20.3771 19.6798V19.6788ZM27.6271 19.6788C27.6123 19.6787 27.5976 19.6815 27.584 19.687C27.5703 19.6925 27.5578 19.7007 27.5472 19.711C27.5367 19.7214 27.5283 19.7337 27.5225 19.7473C27.5167 19.7609 27.5137 19.7755 27.5136 19.7903C27.5134 19.8051 27.5162 19.8197 27.5218 19.8334C27.5273 19.8471 27.5355 19.8596 27.5458 19.8701C27.5562 19.8807 27.5685 19.8891 27.5821 19.8949C27.5957 19.9006 27.6103 19.9037 27.6251 19.9038C27.6398 19.9039 27.6544 19.9012 27.668 19.8957C27.6817 19.8902 27.6941 19.882 27.7046 19.8717C27.7151 19.8614 27.7234 19.8491 27.7292 19.8356C27.7349 19.8221 27.7379 19.8075 27.7381 19.7928C27.7382 19.7781 27.7354 19.7635 27.7299 19.7499C27.7244 19.7362 27.7163 19.7238 27.706 19.7133C27.6957 19.7028 27.6834 19.6945 27.6699 19.6887C27.6563 19.683 27.6418 19.6799 27.6271 19.6798V19.6788ZM20.3671 20.2418C20.3384 20.2436 20.3116 20.2563 20.292 20.2773C20.2725 20.2984 20.2618 20.3261 20.2621 20.3548C20.2623 20.3769 20.269 20.3984 20.2814 20.4166C20.2938 20.4349 20.3113 20.4491 20.3317 20.4575C20.3521 20.4658 20.3745 20.468 20.3962 20.4636C20.4178 20.4592 20.4377 20.4486 20.4533 20.433C20.4689 20.4174 20.4795 20.3975 20.4839 20.3759C20.4882 20.3543 20.4861 20.3318 20.4777 20.3114C20.4694 20.291 20.4552 20.2735 20.4369 20.2611C20.4187 20.2487 20.3971 20.242 20.3751 20.2418H20.3671ZM27.6171 20.2418C27.5884 20.2436 27.5616 20.2563 27.542 20.2773C27.5225 20.2984 27.5118 20.3261 27.5121 20.3548C27.5123 20.3769 27.519 20.3984 27.5314 20.4166C27.5438 20.4349 27.5613 20.4491 27.5817 20.4575C27.6021 20.4658 27.6245 20.468 27.6462 20.4636C27.6678 20.4592 27.6877 20.4486 27.7033 20.433C27.7189 20.4174 27.7295 20.3975 27.7339 20.3759C27.7382 20.3543 27.7361 20.3318 27.7277 20.3114C27.7194 20.291 27.7052 20.2735 27.6869 20.2611C27.6687 20.2487 27.6471 20.242 27.6251 20.2418H27.6171ZM16.7071 20.6308C16.4937 20.6255 16.2813 20.6629 16.0826 20.7409C15.8839 20.8189 15.7028 20.9358 15.5499 21.0849C15.3971 21.2339 15.2757 21.4121 15.1927 21.6088C15.1098 21.8055 15.0671 22.0168 15.0671 22.2303C15.0671 22.4438 15.1098 22.6551 15.1927 22.8518C15.2757 23.0485 15.3971 23.2267 15.5499 23.3757C15.7028 23.5248 15.8839 23.6417 16.0826 23.7197C16.2813 23.7977 16.4937 23.8351 16.7071 23.8298C17.1314 23.8298 17.5384 23.6612 17.8384 23.3612C18.1385 23.0611 18.3071 22.6542 18.3071 22.2298C18.3071 21.8055 18.1385 21.3985 17.8384 21.0984C17.5384 20.7984 17.1314 20.6298 16.7071 20.6298V20.6308ZM24.0041 20.6308C23.7893 20.6232 23.5753 20.6589 23.3746 20.7359C23.174 20.8128 22.9909 20.9294 22.8363 21.0786C22.6817 21.2278 22.5588 21.4067 22.4748 21.6045C22.3908 21.8023 22.3475 22.0149 22.3475 22.2298C22.3475 22.4447 22.3908 22.6574 22.4748 22.8551C22.5588 23.0529 22.6817 23.2318 22.8363 23.381C22.9909 23.5302 23.174 23.6468 23.3746 23.7237C23.5753 23.8007 23.7893 23.8364 24.0041 23.8288C24.4184 23.8141 24.8108 23.6393 25.0987 23.341C25.3866 23.0427 25.5475 22.6444 25.5475 22.2298C25.5475 21.8153 25.3866 21.4169 25.0987 21.1186C24.8108 20.8203 24.4184 20.6455 24.0041 20.6308ZM31.3011 20.6308C31.0863 20.6232 30.8723 20.6589 30.6716 20.7359C30.471 20.8128 30.2879 20.9294 30.1333 21.0786C29.9787 21.2278 29.8558 21.4067 29.7718 21.6045C29.6878 21.8023 29.6445 22.0149 29.6445 22.2298C29.6445 22.4447 29.6878 22.6574 29.7718 22.8551C29.8558 23.0529 29.9787 23.2318 30.1333 23.381C30.2879 23.5302 30.471 23.6468 30.6716 23.7237C30.8723 23.8007 31.0863 23.8364 31.3011 23.8288C31.7154 23.8141 32.1078 23.6393 32.3957 23.341C32.6836 23.0427 32.8445 22.6444 32.8445 22.2298C32.8445 21.8153 32.6836 21.4169 32.3957 21.1186C32.1078 20.8203 31.7154 20.6455 31.3011 20.6308ZM20.3671 20.8048C20.3384 20.8066 20.3116 20.8193 20.292 20.8403C20.2725 20.8614 20.2618 20.8891 20.2621 20.9178C20.2621 20.9798 20.3121 21.0298 20.3751 21.0288C20.4361 21.0288 20.4851 20.9788 20.4861 20.9178C20.4862 20.9031 20.4834 20.8885 20.4779 20.8749C20.4724 20.8612 20.4643 20.8488 20.454 20.8383C20.4437 20.8278 20.4314 20.8195 20.4179 20.8137C20.4043 20.808 20.3898 20.8049 20.3751 20.8048H20.3671ZM27.6171 20.8048C27.5884 20.8066 27.5616 20.8193 27.542 20.8403C27.5225 20.8614 27.5118 20.8891 27.5121 20.9178C27.5121 20.9798 27.5621 21.0298 27.6251 21.0288C27.6861 21.0288 27.7351 20.9788 27.7361 20.9178C27.7362 20.9031 27.7334 20.8885 27.7279 20.8749C27.7224 20.8612 27.7143 20.8488 27.704 20.8383C27.6937 20.8278 27.6814 20.8195 27.6679 20.8137C27.6543 20.808 27.6398 20.8049 27.6251 20.8048H27.6171ZM16.7071 21.0938C16.8564 21.0936 17.0043 21.1228 17.1423 21.1798C17.2803 21.2367 17.4058 21.3203 17.5115 21.4258C17.6172 21.5312 17.7011 21.6564 17.7585 21.7943C17.8158 21.9322 17.8454 22.08 17.8456 22.2293C17.8458 22.3786 17.8166 22.5265 17.7596 22.6645C17.7026 22.8026 17.6191 22.928 17.5136 23.0337C17.4082 23.1394 17.2829 23.2234 17.1451 23.2807C17.0072 23.338 16.8594 23.3676 16.7101 23.3678C16.4085 23.3682 16.1192 23.2488 15.9057 23.0358C15.6921 22.8229 15.572 22.5339 15.5716 22.2323C15.5712 21.9308 15.6906 21.6414 15.9035 21.4279C16.1165 21.2144 16.4055 21.0942 16.7071 21.0938ZM24.0041 21.0938C24.1534 21.0936 24.3013 21.1228 24.4393 21.1798C24.5773 21.2367 24.7028 21.3203 24.8085 21.4258C24.9142 21.5312 24.9981 21.6564 25.0555 21.7943C25.1128 21.9322 25.1424 22.08 25.1426 22.2293C25.1428 22.3786 25.1136 22.5265 25.0566 22.6645C24.9996 22.8026 24.9161 22.928 24.8106 23.0337C24.7052 23.1394 24.5799 23.2234 24.4421 23.2807C24.3042 23.338 24.1564 23.3676 24.0071 23.3678C23.7055 23.3682 23.4162 23.2488 23.2027 23.0358C22.9891 22.8229 22.869 22.5339 22.8686 22.2323C22.8682 21.9308 22.9876 21.6414 23.2005 21.4279C23.4135 21.2144 23.7025 21.0942 24.0041 21.0938ZM31.3011 21.0938C31.4504 21.0936 31.5983 21.1228 31.7363 21.1798C31.8743 21.2367 31.9998 21.3203 32.1055 21.4258C32.2112 21.5312 32.2951 21.6564 32.3525 21.7943C32.4098 21.9322 32.4394 22.08 32.4396 22.2293C32.4398 22.3786 32.4106 22.5265 32.3536 22.6645C32.2966 22.8026 32.2131 22.928 32.1076 23.0337C32.0022 23.1394 31.8769 23.2234 31.7391 23.2807C31.6012 23.338 31.4534 23.3676 31.3041 23.3678C31.0025 23.3682 30.7132 23.2488 30.4997 23.0358C30.2861 22.8229 30.166 22.5339 30.1656 22.2323C30.1652 21.9308 30.2846 21.6414 30.4975 21.4279C30.7105 21.2144 30.9995 21.0942 31.3011 21.0938ZM20.3671 21.3668C20.3384 21.3686 20.3116 21.3813 20.292 21.4023C20.2725 21.4234 20.2618 21.4511 20.2621 21.4798C20.2621 21.5096 20.2739 21.5383 20.295 21.5594C20.3161 21.5805 20.3447 21.5923 20.3746 21.5923C20.4044 21.5923 20.433 21.5805 20.4541 21.5594C20.4752 21.5383 20.4871 21.5096 20.4871 21.4798C20.4872 21.465 20.4844 21.4503 20.4788 21.4366C20.4733 21.4229 20.465 21.4105 20.4546 21.4C20.4442 21.3895 20.4318 21.3811 20.4182 21.3754C20.4045 21.3697 20.3899 21.3668 20.3751 21.3668H20.3671ZM27.6171 21.3668C27.5884 21.3686 27.5616 21.3813 27.542 21.4023C27.5225 21.4234 27.5118 21.4511 27.5121 21.4798C27.5121 21.5096 27.5239 21.5383 27.545 21.5594C27.5661 21.5805 27.5947 21.5923 27.6246 21.5923C27.6544 21.5923 27.683 21.5805 27.7041 21.5594C27.7252 21.5383 27.7371 21.5096 27.7371 21.4798C27.7372 21.465 27.7344 21.4503 27.7288 21.4366C27.7233 21.4229 27.715 21.4105 27.7046 21.4C27.6942 21.3895 27.6818 21.3811 27.6682 21.3754C27.6545 21.3697 27.6399 21.3668 27.6251 21.3668H27.6171ZM20.3671 21.9298C20.3524 21.9307 20.338 21.9345 20.3248 21.941C20.3115 21.9475 20.2997 21.9565 20.2899 21.9676C20.2802 21.9786 20.2727 21.9915 20.2679 22.0054C20.2631 22.0194 20.2612 22.0341 20.2621 22.0488C20.263 22.0635 20.2668 22.0779 20.2733 22.0911C20.2798 22.1044 20.2888 22.1162 20.2998 22.1259C20.3109 22.1357 20.3237 22.1432 20.3377 22.148C20.3516 22.1527 20.3664 22.1547 20.3811 22.1538C20.4108 22.1519 20.4385 22.1384 20.4582 22.116C20.4779 22.0937 20.4879 22.0645 20.4861 22.0348C20.4842 22.0051 20.4706 21.9774 20.4483 21.9577C20.426 21.938 20.3968 21.9279 20.3671 21.9298ZM27.6171 21.9298C27.5874 21.9317 27.5596 21.9452 27.5399 21.9676C27.5202 21.9899 27.5102 22.0191 27.5121 22.0488C27.5139 22.0785 27.5275 22.1063 27.5498 22.1259C27.5721 22.1456 27.6014 22.1557 27.6311 22.1538C27.6458 22.1529 27.6602 22.1491 27.6734 22.1426C27.6866 22.1361 27.6985 22.1271 27.7082 22.116C27.718 22.105 27.7255 22.0921 27.7302 22.0782C27.735 22.0643 27.737 22.0495 27.7361 22.0348C27.7352 22.0201 27.7314 22.0057 27.7249 21.9925C27.7184 21.9792 27.7094 21.9674 27.6983 21.9577C27.6873 21.9479 27.6744 21.9404 27.6605 21.9356C27.6465 21.9309 27.6318 21.9289 27.6171 21.9298ZM20.3671 22.4918C20.3524 22.4927 20.338 22.4965 20.3248 22.503C20.3115 22.5095 20.2997 22.5185 20.2899 22.5296C20.2802 22.5406 20.2727 22.5535 20.2679 22.5674C20.2631 22.5814 20.2612 22.5961 20.2621 22.6108C20.263 22.6255 20.2668 22.6399 20.2733 22.6531C20.2798 22.6664 20.2888 22.6782 20.2998 22.688C20.3109 22.6977 20.3237 22.7052 20.3377 22.71C20.3516 22.7147 20.3664 22.7167 20.3811 22.7158C20.4108 22.7139 20.4385 22.7004 20.4582 22.678C20.4779 22.6557 20.4879 22.6265 20.4861 22.5968C20.4842 22.5671 20.4706 22.5393 20.4483 22.5197C20.426 22.5 20.3968 22.4899 20.3671 22.4918ZM27.6171 22.4918C27.6024 22.4927 27.588 22.4965 27.5748 22.503C27.5615 22.5095 27.5497 22.5185 27.5399 22.5296C27.5302 22.5406 27.5227 22.5535 27.5179 22.5674C27.5131 22.5814 27.5112 22.5961 27.5121 22.6108C27.513 22.6255 27.5168 22.6399 27.5233 22.6531C27.5298 22.6664 27.5388 22.6782 27.5498 22.688C27.5609 22.6977 27.5737 22.7052 27.5877 22.71C27.6016 22.7147 27.6164 22.7167 27.6311 22.7158C27.6608 22.7139 27.6885 22.7004 27.7082 22.678C27.7279 22.6557 27.7379 22.6265 27.7361 22.5968C27.7342 22.5671 27.7206 22.5393 27.6983 22.5197C27.676 22.5 27.6468 22.4899 27.6171 22.4918ZM20.3671 23.0548C20.3377 23.0559 20.31 23.0684 20.2898 23.0897C20.2696 23.111 20.2586 23.1394 20.2591 23.1687C20.2596 23.1981 20.2716 23.2261 20.2926 23.2466C20.3135 23.2672 20.3417 23.2787 20.3711 23.2787C20.4004 23.2787 20.4286 23.2672 20.4496 23.2466C20.4705 23.2261 20.4825 23.1981 20.4831 23.1687C20.4836 23.1394 20.4726 23.111 20.4524 23.0897C20.4322 23.0684 20.4044 23.0559 20.3751 23.0548H20.3671ZM27.6171 23.0548C27.5877 23.0559 27.56 23.0684 27.5398 23.0897C27.5196 23.111 27.5086 23.1394 27.5091 23.1687C27.5096 23.1981 27.5216 23.2261 27.5426 23.2466C27.5635 23.2672 27.5917 23.2787 27.6211 23.2787C27.6504 23.2787 27.6786 23.2672 27.6996 23.2466C27.7205 23.2261 27.7325 23.1981 27.7331 23.1687C27.7336 23.1394 27.7226 23.111 27.7024 23.0897C27.6822 23.0684 27.6544 23.0559 27.6251 23.0548H27.6171ZM20.3551 23.6168C20.3289 23.6211 20.3051 23.6347 20.288 23.6551C20.2709 23.6754 20.2617 23.7012 20.2621 23.7278C20.2619 23.75 20.2683 23.7717 20.2804 23.7902C20.2925 23.8087 20.3099 23.8232 20.3303 23.8319C20.3507 23.8405 20.3732 23.843 20.3949 23.8388C20.4167 23.8347 20.4368 23.8242 20.4526 23.8087C20.4684 23.7932 20.4792 23.7733 20.4837 23.7516C20.4882 23.7299 20.4862 23.7074 20.4779 23.6869C20.4696 23.6663 20.4554 23.6487 20.4371 23.6362C20.4188 23.6238 20.3972 23.617 20.3751 23.6168H20.3551ZM27.6051 23.6168C27.5789 23.6211 27.5551 23.6347 27.538 23.6551C27.5209 23.6754 27.5117 23.7012 27.5121 23.7278C27.5119 23.75 27.5183 23.7717 27.5304 23.7902C27.5425 23.8087 27.5599 23.8232 27.5803 23.8319C27.6007 23.8405 27.6232 23.843 27.6449 23.8388C27.6667 23.8347 27.6868 23.8242 27.7026 23.8087C27.7184 23.7932 27.7292 23.7733 27.7337 23.7516C27.7382 23.7299 27.7362 23.7074 27.7279 23.6869C27.7196 23.6663 27.7054 23.6487 27.6871 23.6362C27.6688 23.6238 27.6472 23.617 27.6251 23.6168H27.6051ZM20.3551 24.1798C20.3289 24.1839 20.3051 24.1973 20.2881 24.2175C20.271 24.2377 20.2618 24.2633 20.2621 24.2898C20.2621 24.3196 20.2739 24.3483 20.295 24.3694C20.3161 24.3904 20.3447 24.4023 20.3746 24.4023C20.4044 24.4023 20.433 24.3904 20.4541 24.3694C20.4752 24.3483 20.4871 24.3196 20.4871 24.2898C20.4861 24.2298 20.4371 24.1798 20.3751 24.1798H20.3551ZM27.6051 24.1798C27.5789 24.1839 27.5552 24.1973 27.5381 24.2175C27.521 24.2377 27.5118 24.2633 27.5121 24.2898C27.5121 24.3196 27.5239 24.3483 27.545 24.3694C27.5661 24.3904 27.5947 24.4023 27.6246 24.4023C27.6544 24.4023 27.683 24.3904 27.7041 24.3694C27.7252 24.3483 27.7371 24.3196 27.7371 24.2898C27.7361 24.2298 27.6871 24.1798 27.6251 24.1798H27.6051ZM16.7071 24.4668C16.4937 24.4615 16.2813 24.4989 16.0826 24.5769C15.8839 24.6549 15.7028 24.7718 15.5499 24.9209C15.3971 25.0699 15.2757 25.2481 15.1927 25.4448C15.1098 25.6415 15.0671 25.8528 15.0671 26.0663C15.0671 26.2798 15.1098 26.4911 15.1927 26.6878C15.2757 26.8845 15.3971 27.0627 15.5499 27.2117C15.7028 27.3608 15.8839 27.4777 16.0826 27.5557C16.2813 27.6337 16.4937 27.6711 16.7071 27.6658C17.1314 27.6658 17.5384 27.4972 17.8384 27.1972C18.1385 26.8971 18.3071 26.4902 18.3071 26.0658C18.3071 25.6415 18.1385 25.2345 17.8384 24.9344C17.5384 24.6344 17.1314 24.4658 16.7071 24.4658V24.4668ZM24.0041 24.4668C23.7907 24.4615 23.5783 24.4989 23.3796 24.5769C23.1809 24.6549 22.9998 24.7718 22.8469 24.9209C22.6941 25.0699 22.5727 25.2481 22.4897 25.4448C22.4068 25.6415 22.3641 25.8528 22.3641 26.0663C22.3641 26.2798 22.4068 26.4911 22.4897 26.6878C22.5727 26.8845 22.6941 27.0627 22.8469 27.2117C22.9998 27.3608 23.1809 27.4777 23.3796 27.5557C23.5783 27.6337 23.7907 27.6711 24.0041 27.6658C24.4284 27.6658 24.8354 27.4972 25.1354 27.1972C25.4355 26.8971 25.6041 26.4902 25.6041 26.0658C25.6041 25.6415 25.4355 25.2345 25.1354 24.9344C24.8354 24.6344 24.4284 24.4658 24.0041 24.4658V24.4668ZM31.3011 24.4668C31.0877 24.4615 30.8753 24.4989 30.6766 24.5769C30.4779 24.6549 30.2968 24.7718 30.1439 24.9209C29.9911 25.0699 29.8697 25.2481 29.7867 25.4448C29.7038 25.6415 29.6611 25.8528 29.6611 26.0663C29.6611 26.2798 29.7038 26.4911 29.7867 26.6878C29.8697 26.8845 29.9911 27.0627 30.1439 27.2117C30.2968 27.3608 30.4779 27.4777 30.6766 27.5557C30.8753 27.6337 31.0877 27.6711 31.3011 27.6658C31.7254 27.6658 32.1324 27.4972 32.4324 27.1972C32.7325 26.8971 32.9011 26.4902 32.9011 26.0658C32.9011 25.6415 32.7325 25.2345 32.4324 24.9344C32.1324 24.6344 31.7254 24.4658 31.3011 24.4658V24.4668ZM20.3671 24.7398C20.3377 24.7409 20.31 24.7534 20.2898 24.7747C20.2696 24.796 20.2586 24.8244 20.2591 24.8537C20.2596 24.8831 20.2716 24.9111 20.2926 24.9316C20.3135 24.9522 20.3417 24.9637 20.3711 24.9637C20.4004 24.9637 20.4286 24.9522 20.4496 24.9316C20.4705 24.9111 20.4825 24.8831 20.4831 24.8537C20.4836 24.8244 20.4726 24.796 20.4524 24.7747C20.4322 24.7534 20.4044 24.7409 20.3751 24.7398C20.3724 24.7397 20.3697 24.7397 20.3671 24.7398ZM27.6171 24.7398C27.5877 24.7409 27.56 24.7534 27.5398 24.7747C27.5196 24.796 27.5086 24.8244 27.5091 24.8537C27.5096 24.8831 27.5216 24.9111 27.5426 24.9316C27.5635 24.9522 27.5917 24.9637 27.6211 24.9637C27.6504 24.9637 27.6786 24.9522 27.6996 24.9316C27.7205 24.9111 27.7325 24.8831 27.7331 24.8537C27.7336 24.8244 27.7226 24.796 27.7024 24.7747C27.6822 24.7534 27.6544 24.7409 27.6251 24.7398C27.6224 24.7397 27.6197 24.7397 27.6171 24.7398ZM16.7071 24.9278C16.8564 24.9276 17.0043 24.9568 17.1423 25.0138C17.2803 25.0707 17.4058 25.1543 17.5115 25.2598C17.6172 25.3652 17.7011 25.4904 17.7585 25.6283C17.8158 25.7662 17.8454 25.914 17.8456 26.0633C17.8458 26.2126 17.8166 26.3605 17.7596 26.4985C17.7026 26.6366 17.6191 26.762 17.5136 26.8677C17.4082 26.9734 17.2829 27.0574 17.1451 27.1147C17.0072 27.172 16.8594 27.2016 16.7101 27.2018C16.4085 27.2022 16.1192 27.0828 15.9057 26.8698C15.6921 26.6569 15.572 26.3679 15.5716 26.0663C15.5712 25.7648 15.6906 25.4754 15.9035 25.2619C16.1165 25.0484 16.4055 24.9282 16.7071 24.9278ZM24.0041 24.9278C24.1534 24.9276 24.3013 24.9568 24.4393 25.0138C24.5773 25.0707 24.7028 25.1543 24.8085 25.2598C24.9142 25.3652 24.9981 25.4904 25.0555 25.6283C25.1128 25.7662 25.1424 25.914 25.1426 26.0633C25.1428 26.2126 25.1136 26.3605 25.0566 26.4985C24.9996 26.6366 24.9161 26.762 24.8106 26.8677C24.7052 26.9734 24.5799 27.0574 24.4421 27.1147C24.3042 27.172 24.1564 27.2016 24.0071 27.2018C23.7055 27.2022 23.4162 27.0828 23.2027 26.8698C22.9891 26.6569 22.869 26.3679 22.8686 26.0663C22.8682 25.7648 22.9876 25.4754 23.2005 25.2619C23.4135 25.0484 23.7025 24.9282 24.0041 24.9278ZM31.3011 24.9278C31.6026 24.9275 31.8919 25.0471 32.1054 25.2601C32.3188 25.4732 32.4388 25.7623 32.4391 26.0638C32.4393 26.3654 32.3198 26.6547 32.1068 26.8681C31.8937 27.0815 31.6046 27.2015 31.3031 27.2018C31.1538 27.2019 31.0059 27.1727 30.8679 27.1156C30.7299 27.0586 30.6045 26.975 30.4988 26.8695C30.3931 26.764 30.3093 26.6387 30.252 26.5008C30.1947 26.3629 30.1652 26.2151 30.1651 26.0658C30.1649 25.9165 30.1942 25.7686 30.2512 25.6306C30.3083 25.4926 30.3919 25.3672 30.4974 25.2615C30.6029 25.1559 30.7281 25.072 30.866 25.0147C31.0039 24.9575 31.1518 24.9279 31.3011 24.9278ZM20.3671 25.3028C20.3384 25.3046 20.3116 25.3173 20.292 25.3383C20.2725 25.3594 20.2618 25.3871 20.2621 25.4158C20.2621 25.4778 20.3121 25.5278 20.3751 25.5268C20.4049 25.5257 20.4331 25.5129 20.4535 25.491C20.4738 25.4692 20.4846 25.4401 20.4836 25.4103C20.4825 25.3805 20.4696 25.3523 20.4478 25.3319C20.426 25.3116 20.3969 25.3007 20.3671 25.3018V25.3028ZM27.6171 25.3028C27.5884 25.3046 27.5616 25.3173 27.542 25.3383C27.5225 25.3594 27.5118 25.3871 27.5121 25.4158C27.5121 25.4778 27.5621 25.5278 27.6251 25.5268C27.6549 25.5257 27.6831 25.5129 27.7035 25.491C27.7238 25.4692 27.7346 25.4401 27.7336 25.4103C27.7325 25.3805 27.7196 25.3523 27.6978 25.3319C27.676 25.3116 27.6469 25.3007 27.6171 25.3018V25.3028ZM20.3671 25.8648C20.3384 25.8666 20.3116 25.8793 20.292 25.9003C20.2725 25.9214 20.2618 25.9491 20.2621 25.9778C20.2621 26.0398 20.3121 26.0898 20.3751 26.0898C20.4361 26.0898 20.4851 26.0398 20.4861 25.9778C20.4862 25.9624 20.4832 25.9471 20.4772 25.933C20.4712 25.9188 20.4624 25.906 20.4512 25.8954C20.44 25.8848 20.4268 25.8766 20.4123 25.8713C20.3979 25.8661 20.3824 25.8638 20.3671 25.8648ZM27.6171 25.8648C27.5884 25.8666 27.5616 25.8793 27.542 25.9003C27.5225 25.9214 27.5118 25.9491 27.5121 25.9778C27.5121 26.0398 27.5621 26.0898 27.6251 26.0898C27.6861 26.0898 27.7351 26.0398 27.7361 25.9778C27.7362 25.9624 27.7332 25.9471 27.7272 25.933C27.7212 25.9188 27.7124 25.906 27.7012 25.8954C27.69 25.8848 27.6768 25.8766 27.6623 25.8713C27.6479 25.8661 27.6324 25.8638 27.6171 25.8648ZM20.3671 26.4278C20.3374 26.4289 20.3093 26.4417 20.2891 26.4634C20.2688 26.4852 20.258 26.5141 20.2591 26.5438C20.2601 26.5735 20.273 26.6016 20.2947 26.6218C20.3165 26.6421 20.3454 26.6529 20.3751 26.6518C20.3898 26.6513 20.4042 26.6479 20.4176 26.6417C20.431 26.6356 20.4431 26.6269 20.4531 26.6162C20.4631 26.6054 20.4709 26.5928 20.4761 26.579C20.4812 26.5652 20.4836 26.5505 20.4831 26.5358C20.4826 26.5211 20.4791 26.5066 20.473 26.4932C20.4669 26.4799 20.4582 26.4678 20.4474 26.4578C20.4367 26.4478 20.424 26.4399 20.4102 26.4348C20.3965 26.4297 20.3818 26.4273 20.3671 26.4278ZM27.6171 26.4278C27.5874 26.4289 27.5593 26.4417 27.5391 26.4634C27.5188 26.4852 27.508 26.5141 27.5091 26.5438C27.5101 26.5735 27.523 26.6016 27.5447 26.6218C27.5665 26.6421 27.5954 26.6529 27.6251 26.6518C27.6398 26.6513 27.6542 26.6479 27.6676 26.6417C27.681 26.6356 27.6931 26.6269 27.7031 26.6162C27.7131 26.6054 27.7209 26.5928 27.7261 26.579C27.7312 26.5652 27.7336 26.5505 27.7331 26.5358C27.7326 26.5211 27.7291 26.5066 27.723 26.4932C27.7169 26.4799 27.7082 26.4678 27.6974 26.4578C27.6867 26.4478 27.674 26.4399 27.6602 26.4348C27.6465 26.4297 27.6318 26.4273 27.6171 26.4278ZM20.3671 26.9898C20.3524 26.9907 20.338 26.9945 20.3248 27.001C20.3115 27.0075 20.2997 27.0165 20.2899 27.0276C20.2802 27.0386 20.2727 27.0515 20.2679 27.0654C20.2631 27.0794 20.2612 27.0941 20.2621 27.1088C20.263 27.1235 20.2668 27.1379 20.2733 27.1511C20.2798 27.1644 20.2888 27.1762 20.2998 27.1859C20.3109 27.1957 20.3237 27.2032 20.3377 27.208C20.3516 27.2127 20.3664 27.2147 20.3811 27.2138C20.4108 27.2119 20.4385 27.1984 20.4582 27.1761C20.4779 27.1537 20.4879 27.1245 20.4861 27.0948C20.4842 27.0651 20.4706 27.0373 20.4483 27.0177C20.426 26.998 20.3968 26.9879 20.3671 26.9898ZM27.6171 26.9898C27.6024 26.9907 27.588 26.9945 27.5748 27.001C27.5615 27.0075 27.5497 27.0165 27.5399 27.0276C27.5302 27.0386 27.5227 27.0515 27.5179 27.0654C27.5131 27.0794 27.5112 27.0941 27.5121 27.1088C27.513 27.1235 27.5168 27.1379 27.5233 27.1511C27.5298 27.1644 27.5388 27.1762 27.5498 27.1859C27.5609 27.1957 27.5737 27.2032 27.5877 27.208C27.6016 27.2127 27.6164 27.2147 27.6311 27.2138C27.6608 27.2119 27.6885 27.1984 27.7082 27.1761C27.7279 27.1537 27.7379 27.1245 27.7361 27.0948C27.7342 27.0651 27.7206 27.0373 27.6983 27.0177C27.676 26.998 27.6468 26.9879 27.6171 26.9898ZM20.3671 27.5528C20.3524 27.5537 20.338 27.5575 20.3248 27.564C20.3115 27.5705 20.2997 27.5795 20.2899 27.5906C20.2802 27.6016 20.2727 27.6145 20.2679 27.6284C20.2631 27.6424 20.2612 27.6571 20.2621 27.6718C20.263 27.6865 20.2668 27.7009 20.2733 27.7141C20.2798 27.7274 20.2888 27.7392 20.2998 27.7489C20.3109 27.7587 20.3237 27.7662 20.3377 27.771C20.3516 27.7757 20.3664 27.7777 20.3811 27.7768C20.4108 27.7749 20.4385 27.7614 20.4582 27.739C20.4779 27.7167 20.4879 27.6875 20.4861 27.6578C20.4842 27.6281 20.4706 27.6003 20.4483 27.5807C20.426 27.561 20.3968 27.5509 20.3671 27.5528ZM27.6171 27.5528C27.6024 27.5537 27.588 27.5575 27.5748 27.564C27.5615 27.5705 27.5497 27.5795 27.5399 27.5906C27.5302 27.6016 27.5227 27.6145 27.5179 27.6284C27.5131 27.6424 27.5112 27.6571 27.5121 27.6718C27.513 27.6865 27.5168 27.7009 27.5233 27.7141C27.5298 27.7274 27.5388 27.7392 27.5498 27.7489C27.5609 27.7587 27.5737 27.7662 27.5877 27.771C27.6016 27.7757 27.6164 27.7777 27.6311 27.7768C27.6608 27.7749 27.6885 27.7614 27.7082 27.739C27.7279 27.7167 27.7379 27.6875 27.7361 27.6578C27.7342 27.6281 27.7206 27.6003 27.6983 27.5807C27.676 27.561 27.6468 27.5509 27.6171 27.5528ZM20.3551 28.1148C20.3289 28.1191 20.3051 28.1327 20.288 28.153C20.2709 28.1734 20.2617 28.1992 20.2621 28.2258C20.2621 28.2556 20.2739 28.2843 20.295 28.3054C20.3161 28.3265 20.3447 28.3383 20.3746 28.3383C20.4044 28.3383 20.433 28.3265 20.4541 28.3054C20.4752 28.2843 20.4871 28.2556 20.4871 28.2258C20.4861 28.1658 20.4371 28.1158 20.3751 28.1158C20.3671 28.1138 20.3651 28.1138 20.3571 28.1158H20.3551V28.1148ZM27.6051 28.1148C27.5789 28.1191 27.5551 28.1327 27.538 28.153C27.5209 28.1734 27.5117 28.1992 27.5121 28.2258C27.5121 28.2556 27.5239 28.2843 27.545 28.3054C27.5661 28.3265 27.5947 28.3383 27.6246 28.3383C27.6544 28.3383 27.683 28.3265 27.7041 28.3054C27.7252 28.2843 27.7371 28.2556 27.7371 28.2258C27.7361 28.1658 27.6871 28.1158 27.6251 28.1158C27.6171 28.1138 27.6151 28.1138 27.6071 28.1158H27.6051V28.1148ZM16.7071 28.3008C16.2925 28.3155 15.8998 28.4905 15.6117 28.7889C15.3237 29.0874 15.1627 29.486 15.1627 29.9008C15.1627 30.3156 15.3237 30.7142 15.6117 31.0127C15.8998 31.3112 16.2925 31.4861 16.7071 31.5008C17.1246 31.4904 17.5216 31.3172 17.8132 31.0181C18.1048 30.7191 18.2681 30.318 18.2681 29.9003C18.2681 29.4826 18.1048 29.0815 17.8132 28.7825C17.5216 28.4834 17.1246 28.3102 16.7071 28.2998V28.3008ZM24.0041 28.3008C23.5895 28.3155 23.1968 28.4905 22.9087 28.7889C22.6207 29.0874 22.4597 29.486 22.4597 29.9008C22.4597 30.3156 22.6207 30.7142 22.9087 31.0127C23.1968 31.3112 23.5895 31.4861 24.0041 31.5008C24.4284 31.5008 24.8354 31.3322 25.1354 31.0322C25.4355 30.7321 25.6041 30.3251 25.6041 29.9008C25.6041 29.4765 25.4355 29.0695 25.1354 28.7694C24.8354 28.4694 24.4284 28.3008 24.0041 28.3008ZM31.3011 28.3008C30.8865 28.3155 30.4938 28.4905 30.2057 28.7889C29.9177 29.0874 29.7567 29.486 29.7567 29.9008C29.7567 30.3156 29.9177 30.7142 30.2057 31.0127C30.4938 31.3112 30.8865 31.4861 31.3011 31.5008C31.7254 31.5008 32.1324 31.3322 32.4324 31.0322C32.7325 30.7321 32.9011 30.3251 32.9011 29.9008C32.9011 29.4765 32.7325 29.0695 32.4324 28.7694C32.1324 28.4694 31.7254 28.3008 31.3011 28.3008ZM20.3771 28.6758C20.3624 28.6757 20.3478 28.6784 20.3341 28.6839C20.3205 28.6895 20.3081 28.6976 20.2976 28.7079C20.2871 28.7182 20.2787 28.7305 20.273 28.744C20.2672 28.7576 20.2642 28.7721 20.2641 28.7868C20.2639 28.8015 20.2667 28.8161 20.2722 28.8297C20.2777 28.8434 20.2859 28.8558 20.2962 28.8663C20.3065 28.8768 20.3188 28.8851 20.3323 28.8909C20.3458 28.8966 20.3604 28.8997 20.3751 28.8998C20.4048 28.9001 20.4334 28.8885 20.4546 28.8677C20.4758 28.8469 20.4878 28.8185 20.4881 28.7888C20.4883 28.7591 20.4768 28.7305 20.456 28.7093C20.4352 28.6881 20.4068 28.6761 20.3771 28.6758ZM27.6271 28.6758C27.6124 28.6757 27.5978 28.6784 27.5841 28.6839C27.5705 28.6895 27.5581 28.6976 27.5476 28.7079C27.5371 28.7182 27.5287 28.7305 27.523 28.744C27.5172 28.7576 27.5142 28.7721 27.5141 28.7868C27.5139 28.8015 27.5167 28.8161 27.5222 28.8297C27.5277 28.8434 27.5359 28.8558 27.5462 28.8663C27.5565 28.8768 27.5688 28.8851 27.5823 28.8909C27.5958 28.8966 27.6104 28.8997 27.6251 28.8998C27.6548 28.9001 27.6834 28.8885 27.7046 28.8677C27.7258 28.8469 27.7378 28.8185 27.7381 28.7888C27.7383 28.7591 27.7268 28.7305 27.706 28.7093C27.6852 28.6881 27.6568 28.6761 27.6271 28.6758ZM16.7071 28.7638C16.8594 28.7593 17.0111 28.7854 17.1532 28.8406C17.2953 28.8958 17.4248 28.9789 17.5342 29.0851C17.6436 29.1912 17.7305 29.3183 17.7899 29.4586C17.8492 29.599 17.8798 29.7499 17.8798 29.9023C17.8798 30.0547 17.8492 30.2056 17.7899 30.346C17.7305 30.4863 17.6436 30.6134 17.5342 30.7195C17.4248 30.8257 17.2953 30.9088 17.1532 30.964C17.0111 31.0192 16.8594 31.0453 16.7071 31.0408C16.411 31.032 16.1299 30.9082 15.9236 30.6957C15.7172 30.4831 15.6018 30.1985 15.6018 29.9023C15.6018 29.6061 15.7172 29.3215 15.9236 29.1089C16.1299 28.8964 16.411 28.7726 16.7071 28.7638ZM24.0041 28.7638C24.1564 28.7593 24.3081 28.7854 24.4502 28.8406C24.5923 28.8958 24.7218 28.9789 24.8312 29.0851C24.9406 29.1912 25.0275 29.3183 25.0869 29.4586C25.1462 29.599 25.1768 29.7499 25.1768 29.9023C25.1768 30.0547 25.1462 30.2056 25.0869 30.346C25.0275 30.4863 24.9406 30.6134 24.8312 30.7195C24.7218 30.8257 24.5923 30.9088 24.4502 30.964C24.3081 31.0192 24.1564 31.0453 24.0041 31.0408C23.708 31.032 23.4269 30.9082 23.2206 30.6957C23.0142 30.4831 22.8988 30.1985 22.8988 29.9023C22.8988 29.6061 23.0142 29.3215 23.2206 29.1089C23.4269 28.8964 23.708 28.7726 24.0041 28.7638ZM31.3011 28.7638C31.5972 28.7726 31.8782 28.8964 32.0846 29.1089C32.2909 29.3215 32.4063 29.6061 32.4063 29.9023C32.4063 30.1985 32.2909 30.4831 32.0846 30.6957C31.8782 30.9082 31.5972 31.032 31.3011 31.0408C31.1487 31.0453 30.997 31.0192 30.8549 30.964C30.7129 30.9088 30.5833 30.8257 30.474 30.7195C30.3646 30.6134 30.2777 30.4863 30.2183 30.346C30.1589 30.2056 30.1283 30.0547 30.1283 29.9023C30.1283 29.7499 30.1589 29.599 30.2183 29.4586C30.2777 29.3183 30.3646 29.1912 30.474 29.0851C30.5833 28.9789 30.7129 28.8958 30.8549 28.8406C30.997 28.7854 31.1487 28.7593 31.3011 28.7638ZM20.3671 29.2378C20.3384 29.2396 20.3116 29.2523 20.292 29.2733C20.2725 29.2944 20.2618 29.3221 20.2621 29.3508C20.2621 29.3806 20.2739 29.4093 20.295 29.4304C20.3161 29.4515 20.3447 29.4633 20.3746 29.4633C20.4044 29.4633 20.433 29.4515 20.4541 29.4304C20.4752 29.4093 20.4871 29.3806 20.4871 29.3508C20.4873 29.3353 20.4842 29.32 20.4782 29.3057C20.4721 29.2914 20.4631 29.2786 20.4519 29.268C20.4406 29.2574 20.4272 29.2492 20.4126 29.244C20.398 29.2388 20.3825 29.2367 20.3671 29.2378ZM27.6171 29.2378C27.5884 29.2396 27.5616 29.2523 27.542 29.2733C27.5225 29.2944 27.5118 29.3221 27.5121 29.3508C27.5121 29.3806 27.5239 29.4093 27.545 29.4304C27.5661 29.4515 27.5947 29.4633 27.6246 29.4633C27.6544 29.4633 27.683 29.4515 27.7041 29.4304C27.7252 29.4093 27.7371 29.3806 27.7371 29.3508C27.7373 29.3353 27.7342 29.32 27.7282 29.3057C27.7221 29.2914 27.7131 29.2786 27.7019 29.268C27.6906 29.2574 27.6772 29.2492 27.6626 29.244C27.648 29.2388 27.6325 29.2367 27.6171 29.2378ZM20.3671 29.8008C20.3377 29.8019 20.31 29.8144 20.2898 29.8357C20.2696 29.857 20.2586 29.8854 20.2591 29.9147C20.2596 29.9441 20.2716 29.9721 20.2926 29.9926C20.3135 30.0132 20.3417 30.0247 20.3711 30.0247C20.4004 30.0247 20.4286 30.0132 20.4496 29.9926C20.4705 29.9721 20.4825 29.9441 20.4831 29.9147C20.4836 29.8854 20.4726 29.857 20.4524 29.8357C20.4322 29.8144 20.4044 29.8019 20.3751 29.8008C20.3724 29.8007 20.3697 29.8007 20.3671 29.8008ZM27.6171 29.8008C27.5877 29.8019 27.56 29.8144 27.5398 29.8357C27.5196 29.857 27.5086 29.8854 27.5091 29.9147C27.5096 29.9441 27.5216 29.9721 27.5426 29.9926C27.5635 30.0132 27.5917 30.0247 27.6211 30.0247C27.6504 30.0247 27.6786 30.0132 27.6996 29.9926C27.7205 29.9721 27.7325 29.9441 27.7331 29.9147C27.7336 29.8854 27.7226 29.857 27.7024 29.8357C27.6822 29.8144 27.6544 29.8019 27.6251 29.8008C27.6224 29.8007 27.6197 29.8007 27.6171 29.8008ZM20.3671 30.3628C20.3384 30.3646 20.3116 30.3773 20.292 30.3983C20.2725 30.4194 20.2618 30.4471 20.2621 30.4758C20.2623 30.4982 20.2693 30.52 20.282 30.5384C20.2948 30.5568 20.3128 30.571 20.3337 30.5791C20.3546 30.5871 20.3774 30.5888 20.3992 30.5837C20.4211 30.5787 20.4409 30.5672 20.4561 30.5508C20.4714 30.5344 20.4813 30.5138 20.4848 30.4917C20.4882 30.4695 20.4849 30.4469 20.4753 30.4266C20.4657 30.4064 20.4503 30.3895 20.431 30.3781C20.4117 30.3667 20.3894 30.3614 20.3671 30.3628ZM27.6171 30.3628C27.5884 30.3646 27.5616 30.3773 27.542 30.3983C27.5225 30.4194 27.5118 30.4471 27.5121 30.4758C27.5123 30.4982 27.5193 30.52 27.532 30.5384C27.5448 30.5568 27.5628 30.571 27.5837 30.5791C27.6046 30.5871 27.6274 30.5888 27.6492 30.5837C27.6711 30.5787 27.6909 30.5672 27.7061 30.5508C27.7214 30.5344 27.7313 30.5138 27.7348 30.4917C27.7382 30.4695 27.7349 30.4469 27.7253 30.4266C27.7157 30.4064 27.7003 30.3895 27.681 30.3781C27.6617 30.3667 27.6394 30.3614 27.6171 30.3628ZM20.3671 30.9228C20.3384 30.9251 20.3117 30.9381 20.2922 30.9592C20.2728 30.9804 20.262 31.0081 20.2621 31.0368C20.2621 31.0665 20.2739 31.095 20.2949 31.116C20.3159 31.137 20.3444 31.1488 20.3741 31.1488C20.4038 31.1488 20.4323 31.137 20.4533 31.116C20.4743 31.095 20.4861 31.0665 20.4861 31.0368C20.486 31.0215 20.4828 31.0064 20.4767 30.9923C20.4706 30.9783 20.4617 30.9656 20.4506 30.955C20.4395 30.9445 20.4264 30.9363 20.412 30.9309C20.3977 30.9255 20.3824 30.9231 20.3671 30.9238V30.9228ZM27.6171 30.9228C27.5884 30.9251 27.5617 30.9381 27.5422 30.9592C27.5228 30.9804 27.512 31.0081 27.5121 31.0368C27.5121 31.0665 27.5239 31.095 27.5449 31.116C27.5659 31.137 27.5944 31.1488 27.6241 31.1488C27.6538 31.1488 27.6823 31.137 27.7033 31.116C27.7243 31.095 27.7361 31.0665 27.7361 31.0368C27.736 31.0215 27.7328 31.0064 27.7267 30.9923C27.7206 30.9783 27.7117 30.9656 27.7006 30.955C27.6895 30.9445 27.6764 30.9363 27.662 30.9309C27.6477 30.9255 27.6324 30.9231 27.6171 30.9238V30.9228ZM20.3671 31.4858C20.3524 31.4867 20.338 31.4905 20.3248 31.497C20.3115 31.5035 20.2997 31.5125 20.2899 31.5236C20.2802 31.5346 20.2727 31.5475 20.2679 31.5614C20.2631 31.5754 20.2612 31.5901 20.2621 31.6048C20.263 31.6195 20.2668 31.6339 20.2733 31.6471C20.2798 31.6604 20.2888 31.6722 20.2998 31.6819C20.3109 31.6917 20.3237 31.6992 20.3377 31.704C20.3516 31.7087 20.3664 31.7107 20.3811 31.7098C20.4108 31.7079 20.4385 31.6944 20.4582 31.6721C20.4779 31.6497 20.4879 31.6205 20.4861 31.5908C20.4842 31.5611 20.4706 31.5333 20.4483 31.5137C20.426 31.494 20.3968 31.4839 20.3671 31.4858ZM27.6171 31.4858C27.6024 31.4867 27.588 31.4905 27.5748 31.497C27.5615 31.5035 27.5497 31.5125 27.5399 31.5236C27.5302 31.5346 27.5227 31.5475 27.5179 31.5614C27.5131 31.5754 27.5112 31.5901 27.5121 31.6048C27.513 31.6195 27.5168 31.6339 27.5233 31.6471C27.5298 31.6604 27.5388 31.6722 27.5498 31.6819C27.5609 31.6917 27.5737 31.6992 27.5877 31.704C27.6016 31.7087 27.6164 31.7107 27.6311 31.7098C27.6608 31.7079 27.6885 31.6944 27.7082 31.6721C27.7279 31.6497 27.7379 31.6205 27.7361 31.5908C27.7342 31.5611 27.7206 31.5333 27.6983 31.5137C27.676 31.494 27.6468 31.4839 27.6171 31.4858ZM20.3551 32.0488C20.3289 32.0531 20.3051 32.0667 20.288 32.087C20.2709 32.1074 20.2617 32.1332 20.2621 32.1598C20.2617 32.1822 20.268 32.2043 20.2801 32.2231C20.2923 32.242 20.3098 32.2568 20.3304 32.2656C20.351 32.2745 20.3738 32.277 20.3959 32.2729C20.4179 32.2687 20.4382 32.2581 20.4542 32.2424C20.4703 32.2267 20.4812 32.2066 20.4857 32.1846C20.4903 32.1626 20.4881 32.1398 20.4797 32.119C20.4712 32.0983 20.4567 32.0805 20.4381 32.068C20.4194 32.0555 20.3975 32.0488 20.3751 32.0488H20.3551ZM27.6051 32.0488C27.5789 32.0531 27.5551 32.0667 27.538 32.087C27.5209 32.1074 27.5117 32.1332 27.5121 32.1598C27.5117 32.1822 27.518 32.2043 27.5301 32.2231C27.5423 32.242 27.5598 32.2568 27.5804 32.2656C27.601 32.2745 27.6238 32.277 27.6459 32.2729C27.6679 32.2687 27.6882 32.2581 27.7042 32.2424C27.7203 32.2267 27.7312 32.2066 27.7357 32.1846C27.7403 32.1626 27.7381 32.1398 27.7297 32.119C27.7212 32.0983 27.7067 32.0805 27.6881 32.068C27.6694 32.0555 27.6475 32.0488 27.6251 32.0488H27.6051ZM16.7071 32.1388C16.4923 32.1312 16.2783 32.1669 16.0776 32.2439C15.877 32.3208 15.6939 32.4374 15.5393 32.5866C15.3847 32.7358 15.2618 32.9147 15.1778 33.1125C15.0938 33.3103 15.0505 33.5229 15.0505 33.7378C15.0505 33.9527 15.0938 34.1654 15.1778 34.3631C15.2618 34.5609 15.3847 34.7398 15.5393 34.889C15.6939 35.0382 15.877 35.1548 16.0776 35.2317C16.2783 35.3087 16.4923 35.3444 16.7071 35.3368C17.1244 35.3264 17.5211 35.1533 17.8125 34.8544C18.104 34.5556 18.2671 34.1547 18.2671 33.7373C18.2671 33.3199 18.104 32.919 17.8125 32.6202C17.5211 32.3213 17.1244 32.1482 16.7071 32.1378V32.1388ZM24.0041 32.1388C23.7893 32.1312 23.5753 32.1669 23.3746 32.2439C23.174 32.3208 22.9909 32.4374 22.8363 32.5866C22.6817 32.7358 22.5588 32.9147 22.4748 33.1125C22.3908 33.3103 22.3475 33.5229 22.3475 33.7378C22.3475 33.9527 22.3908 34.1654 22.4748 34.3631C22.5588 34.5609 22.6817 34.7398 22.8363 34.889C22.9909 35.0382 23.174 35.1548 23.3746 35.2317C23.5753 35.3087 23.7893 35.3444 24.0041 35.3368C24.4214 35.3264 24.8181 35.1533 25.1095 34.8544C25.401 34.5556 25.5641 34.1547 25.5641 33.7373C25.5641 33.3199 25.401 32.919 25.1095 32.6202C24.8181 32.3213 24.4214 32.1482 24.0041 32.1378V32.1388ZM31.3011 32.1388C31.0863 32.1312 30.8723 32.1669 30.6716 32.2439C30.471 32.3208 30.2879 32.4374 30.1333 32.5866C29.9787 32.7358 29.8558 32.9147 29.7718 33.1125C29.6878 33.3103 29.6445 33.5229 29.6445 33.7378C29.6445 33.9527 29.6878 34.1654 29.7718 34.3631C29.8558 34.5609 29.9787 34.7398 30.1333 34.889C30.2879 35.0382 30.471 35.1548 30.6716 35.2317C30.8723 35.3087 31.0863 35.3444 31.3011 35.3368C31.7184 35.3264 32.1151 35.1533 32.4065 34.8544C32.698 34.5556 32.8611 34.1547 32.8611 33.7373C32.8611 33.3199 32.698 32.919 32.4065 32.6202C32.1151 32.3213 31.7184 32.1482 31.3011 32.1378V32.1388ZM16.7071 32.6008C16.8565 32.6006 17.0044 32.6298 17.1425 32.6868C17.2806 32.7438 17.4061 32.8274 17.5119 32.9329C17.6176 33.0384 17.7016 33.1637 17.7589 33.3016C17.8163 33.4395 17.8459 33.5874 17.8461 33.7368C17.8463 33.8862 17.817 34.0341 17.7601 34.1722C17.7031 34.3103 17.6195 34.4358 17.514 34.5416C17.4085 34.6473 17.2832 34.7313 17.1453 34.7886C17.0073 34.846 16.8595 34.8756 16.7101 34.8758C16.4084 34.8762 16.1189 34.7567 15.9053 34.5437C15.6917 34.3307 15.5715 34.0415 15.5711 33.7398C15.5707 33.4381 15.6901 33.1486 15.9032 32.935C16.1162 32.7214 16.4054 32.6012 16.7071 32.6008ZM24.0041 32.6008C24.1535 32.6006 24.3014 32.6298 24.4395 32.6868C24.5776 32.7438 24.7031 32.8274 24.8089 32.9329C24.9146 33.0384 24.9986 33.1637 25.0559 33.3016C25.1133 33.4395 25.1429 33.5874 25.1431 33.7368C25.1433 33.8862 25.114 34.0341 25.0571 34.1722C25.0001 34.3103 24.9165 34.4358 24.811 34.5416C24.7055 34.6473 24.5802 34.7313 24.4423 34.7886C24.3043 34.846 24.1565 34.8756 24.0071 34.8758C23.7054 34.8762 23.4159 34.7567 23.2023 34.5437C22.9887 34.3307 22.8685 34.0415 22.8681 33.7398C22.8677 33.4381 22.9871 33.1486 23.2002 32.935C23.4132 32.7214 23.7024 32.6012 24.0041 32.6008ZM31.3011 32.6008C31.4505 32.6006 31.5984 32.6298 31.7365 32.6868C31.8746 32.7438 32.0001 32.8274 32.1059 32.9329C32.2116 33.0384 32.2956 33.1637 32.3529 33.3016C32.4103 33.4395 32.4399 33.5874 32.4401 33.7368C32.4403 33.8862 32.411 34.0341 32.3541 34.1722C32.2971 34.3103 32.2135 34.4358 32.108 34.5416C32.0025 34.6473 31.8772 34.7313 31.7393 34.7886C31.6013 34.846 31.4535 34.8756 31.3041 34.8758C31.0024 34.8762 30.7129 34.7567 30.4993 34.5437C30.2857 34.3307 30.1655 34.0415 30.1651 33.7398C30.1647 33.4381 30.2841 33.1486 30.4972 32.935C30.7102 32.7214 30.9994 32.6012 31.3011 32.6008ZM20.3561 32.6108C20.335 32.6142 20.3153 32.6236 20.2994 32.6379C20.2835 32.6521 20.272 32.6706 20.2662 32.6912C20.2605 32.7118 20.2607 32.7336 20.2669 32.754C20.2732 32.7744 20.2851 32.7927 20.3014 32.8065C20.3176 32.8204 20.3375 32.8293 20.3586 32.8323C20.3798 32.8352 20.4014 32.8321 20.4208 32.8232C20.4402 32.8142 20.4567 32.8 20.4682 32.782C20.4798 32.7641 20.486 32.7432 20.4861 32.7218C20.4856 32.6926 20.4737 32.6648 20.4529 32.6442C20.4322 32.6237 20.4043 32.6121 20.3751 32.6118H20.3551L20.3561 32.6108ZM27.6061 32.6108C27.585 32.6142 27.5653 32.6236 27.5494 32.6379C27.5335 32.6521 27.522 32.6706 27.5162 32.6912C27.5105 32.7118 27.5107 32.7336 27.5169 32.754C27.5232 32.7744 27.5351 32.7927 27.5514 32.8065C27.5676 32.8204 27.5875 32.8293 27.6086 32.8323C27.6298 32.8352 27.6514 32.8321 27.6708 32.8232C27.6902 32.8142 27.7067 32.8 27.7182 32.782C27.7298 32.7641 27.736 32.7432 27.7361 32.7218C27.7356 32.6926 27.7237 32.6648 27.7029 32.6442C27.6822 32.6237 27.6543 32.6121 27.6251 32.6118H27.6051L27.6061 32.6108ZM20.3771 33.1708C20.362 33.1709 20.3471 33.174 20.3333 33.18C20.3194 33.1859 20.3069 33.1945 20.2964 33.2053C20.2859 33.216 20.2776 33.2288 20.2721 33.2428C20.2665 33.2568 20.2638 33.2717 20.2641 33.2868C20.2641 33.3488 20.3141 33.3968 20.3771 33.3968C20.3916 33.3969 20.406 33.3942 20.4195 33.3887C20.4329 33.3833 20.4452 33.3752 20.4555 33.3649C20.4658 33.3547 20.474 33.3425 20.4796 33.3291C20.4852 33.3157 20.4881 33.3013 20.4881 33.2868C20.4884 33.2569 20.4769 33.2281 20.4561 33.2066C20.4353 33.1851 20.407 33.1726 20.3771 33.1718V33.1708ZM27.6271 33.1708C27.612 33.1709 27.5971 33.174 27.5833 33.18C27.5694 33.1859 27.5569 33.1945 27.5464 33.2053C27.5359 33.216 27.5276 33.2288 27.5221 33.2428C27.5165 33.2568 27.5138 33.2717 27.5141 33.2868C27.5141 33.3488 27.5641 33.3968 27.6271 33.3968C27.6416 33.3969 27.656 33.3942 27.6695 33.3887C27.6829 33.3833 27.6952 33.3752 27.7055 33.3649C27.7158 33.3547 27.724 33.3425 27.7296 33.3291C27.7352 33.3157 27.7381 33.3013 27.7381 33.2868C27.7384 33.2569 27.7269 33.2281 27.7061 33.2066C27.6853 33.1851 27.657 33.1726 27.6271 33.1718V33.1708ZM20.3671 33.7338C20.3384 33.7356 20.3116 33.7483 20.292 33.7693C20.2725 33.7904 20.2618 33.8181 20.2621 33.8468C20.2621 33.9098 20.3121 33.9598 20.3751 33.9588C20.4361 33.9588 20.4851 33.9088 20.4861 33.8468C20.4862 33.8321 20.4834 33.8175 20.4779 33.8039C20.4724 33.7902 20.4643 33.7778 20.454 33.7673C20.4437 33.7568 20.4314 33.7485 20.4179 33.7427C20.4043 33.737 20.3898 33.7339 20.3751 33.7338H20.3671ZM27.6171 33.7338C27.5884 33.7356 27.5616 33.7483 27.542 33.7693C27.5225 33.7904 27.5118 33.8181 27.5121 33.8468C27.5121 33.9098 27.5621 33.9598 27.6251 33.9588C27.6861 33.9588 27.7351 33.9088 27.7361 33.8468C27.7362 33.8321 27.7334 33.8175 27.7279 33.8039C27.7224 33.7902 27.7143 33.7778 27.704 33.7673C27.6937 33.7568 27.6814 33.7485 27.6679 33.7427C27.6543 33.737 27.6398 33.7339 27.6251 33.7338H27.6171ZM20.3671 34.2968C20.3377 34.2979 20.31 34.3104 20.2898 34.3317C20.2696 34.353 20.2586 34.3814 20.2591 34.4107C20.2596 34.4401 20.2716 34.4681 20.2926 34.4886C20.3135 34.5092 20.3417 34.5207 20.3711 34.5207C20.4004 34.5207 20.4286 34.5092 20.4496 34.4886C20.4705 34.4681 20.4825 34.4401 20.4831 34.4107C20.4836 34.3814 20.4726 34.353 20.4524 34.3317C20.4322 34.3104 20.4044 34.2979 20.3751 34.2968C20.3724 34.2967 20.3697 34.2967 20.3671 34.2968ZM27.6171 34.2968C27.5877 34.2979 27.56 34.3104 27.5398 34.3317C27.5196 34.353 27.5086 34.3814 27.5091 34.4107C27.5096 34.4401 27.5216 34.4681 27.5426 34.4886C27.5635 34.5092 27.5917 34.5207 27.6211 34.5207C27.6504 34.5207 27.6786 34.5092 27.6996 34.4886C27.7205 34.4681 27.7325 34.4401 27.7331 34.4107C27.7336 34.3814 27.7226 34.353 27.7024 34.3317C27.6822 34.3104 27.6544 34.2979 27.6251 34.2968C27.6224 34.2967 27.6197 34.2967 27.6171 34.2968ZM20.3671 34.8588C20.3372 34.8599 20.309 34.8727 20.2887 34.8946C20.2684 34.9164 20.2575 34.9455 20.2586 34.9753C20.2596 35.0051 20.2725 35.0333 20.2944 35.0537C20.3162 35.074 20.3452 35.0849 20.3751 35.0838C20.3899 35.0833 20.4044 35.0798 20.4178 35.0737C20.4313 35.0676 20.4434 35.0588 20.4535 35.048C20.4635 35.0372 20.4714 35.0245 20.4765 35.0107C20.4817 34.9968 20.4841 34.9821 20.4836 34.9673C20.4831 34.9525 20.4796 34.938 20.4735 34.9246C20.4673 34.9111 20.4586 34.899 20.4478 34.8889C20.437 34.8789 20.4243 34.871 20.4104 34.8658C20.3966 34.8607 20.3819 34.8583 20.3671 34.8588ZM27.6171 34.8588C27.5872 34.8599 27.559 34.8727 27.5387 34.8946C27.5184 34.9164 27.5075 34.9455 27.5086 34.9753C27.5096 35.0051 27.5225 35.0333 27.5444 35.0537C27.5662 35.074 27.5952 35.0849 27.6251 35.0838C27.6399 35.0833 27.6544 35.0798 27.6678 35.0737C27.6813 35.0676 27.6934 35.0588 27.7035 35.048C27.7135 35.0372 27.7214 35.0245 27.7265 35.0107C27.7317 34.9968 27.7341 34.9821 27.7336 34.9673C27.7331 34.9525 27.7296 34.938 27.7235 34.9246C27.7173 34.9111 27.7086 34.899 27.6978 34.8889C27.687 34.8789 27.6743 34.871 27.6604 34.8658C27.6466 34.8607 27.6319 34.8583 27.6171 34.8588ZM20.3671 35.4218C20.3524 35.4227 20.338 35.4265 20.3248 35.433C20.3115 35.4395 20.2997 35.4485 20.2899 35.4596C20.2802 35.4706 20.2727 35.4835 20.2679 35.4974C20.2631 35.5114 20.2612 35.5261 20.2621 35.5408C20.263 35.5555 20.2668 35.5699 20.2733 35.5831C20.2798 35.5964 20.2888 35.6082 20.2998 35.6179C20.3109 35.6277 20.3237 35.6352 20.3377 35.64C20.3516 35.6447 20.3664 35.6467 20.3811 35.6458C20.4108 35.6439 20.4385 35.6304 20.4582 35.608C20.4779 35.5857 20.4879 35.5565 20.4861 35.5268C20.4842 35.4971 20.4706 35.4694 20.4483 35.4497C20.426 35.43 20.3968 35.4199 20.3671 35.4218ZM27.6171 35.4218C27.6024 35.4227 27.588 35.4265 27.5748 35.433C27.5615 35.4395 27.5497 35.4485 27.5399 35.4596C27.5302 35.4706 27.5227 35.4835 27.5179 35.4974C27.5131 35.5114 27.5112 35.5261 27.5121 35.5408C27.513 35.5555 27.5168 35.5699 27.5233 35.5831C27.5298 35.5964 27.5388 35.6082 27.5498 35.6179C27.5609 35.6277 27.5737 35.6352 27.5877 35.64C27.6016 35.6447 27.6164 35.6467 27.6311 35.6458C27.6608 35.6439 27.6885 35.6304 27.7082 35.608C27.7279 35.5857 27.7379 35.5565 27.7361 35.5268C27.7342 35.4971 27.7206 35.4694 27.6983 35.4497C27.676 35.43 27.6468 35.4199 27.6171 35.4218ZM16.7871 35.9758C16.3629 35.975 15.9558 36.1427 15.6552 36.442C15.3546 36.7412 15.1851 37.1476 15.1841 37.5718C15.1841 38.4518 15.9011 39.1658 16.7871 39.1658C16.9972 39.1666 17.2054 39.126 17.3998 39.0463C17.5943 38.9666 17.7711 38.8494 17.9202 38.7014C18.0693 38.5534 18.1879 38.3775 18.269 38.1836C18.3501 37.9898 18.3923 37.7819 18.3931 37.5718C18.3931 36.6918 17.6731 35.9758 16.7871 35.9758ZM24.0841 35.9758C23.874 35.9753 23.6658 36.0161 23.4715 36.0961C23.2772 36.176 23.1005 36.2934 22.9515 36.4416C22.8026 36.5898 22.6843 36.7659 22.6034 36.9598C22.5225 37.1537 22.4806 37.3617 22.4801 37.5718C22.4801 38.4518 23.1981 39.1658 24.0841 39.1658C24.5083 39.1671 24.9156 39 25.2166 38.7011C25.5175 38.4022 25.6875 37.996 25.6891 37.5718C25.6891 36.6918 24.9691 35.9758 24.0841 35.9758ZM31.3811 35.9758C31.171 35.9753 30.9628 36.0161 30.7685 36.0961C30.5742 36.176 30.3975 36.2934 30.2485 36.4416C30.0996 36.5898 29.9813 36.7659 29.9004 36.9598C29.8195 37.1537 29.7776 37.3617 29.7771 37.5718C29.7771 38.4518 30.4951 39.1658 31.3811 39.1658C31.8053 39.1671 32.2126 39 32.5136 38.7011C32.8145 38.4022 32.9845 37.996 32.9861 37.5718C32.9861 36.6918 32.2661 35.9758 31.3811 35.9758ZM20.3671 35.9838C20.3523 35.9847 20.3379 35.9885 20.3246 35.995C20.3113 36.0015 20.2994 36.0106 20.2896 36.0217C20.2798 36.0328 20.2723 36.0457 20.2675 36.0597C20.2627 36.0737 20.2607 36.0885 20.2616 36.1033C20.2625 36.1181 20.2663 36.1325 20.2728 36.1458C20.2793 36.1591 20.2884 36.171 20.2995 36.1808C20.3106 36.1906 20.3235 36.1981 20.3375 36.2029C20.3515 36.2077 20.3663 36.2097 20.3811 36.2088C20.4109 36.2069 20.4388 36.1933 20.4586 36.1709C20.4784 36.1485 20.4884 36.1191 20.4866 36.0893C20.4847 36.0595 20.4711 36.0316 20.4487 36.0118C20.4263 35.992 20.3969 35.9819 20.3671 35.9838ZM27.6171 35.9838C27.6023 35.9847 27.5879 35.9885 27.5746 35.995C27.5613 36.0015 27.5494 36.0106 27.5396 36.0217C27.5298 36.0328 27.5223 36.0457 27.5175 36.0597C27.5127 36.0737 27.5107 36.0885 27.5116 36.1033C27.5125 36.1181 27.5163 36.1325 27.5228 36.1458C27.5293 36.1591 27.5384 36.171 27.5495 36.1808C27.5606 36.1906 27.5735 36.1981 27.5875 36.2029C27.6015 36.2077 27.6163 36.2097 27.6311 36.2088C27.6609 36.2069 27.6888 36.1933 27.7086 36.1709C27.7284 36.1485 27.7384 36.1191 27.7366 36.0893C27.7347 36.0595 27.7211 36.0316 27.6987 36.0118C27.6763 35.992 27.6469 35.9819 27.6171 35.9838ZM16.7871 36.4368C17.4171 36.4368 17.9291 36.9458 17.9301 37.5718C17.9301 38.1988 17.4181 38.7078 16.7871 38.7068C16.1571 38.7068 15.6471 38.1988 15.6481 37.5718C15.6481 36.9458 16.1581 36.4378 16.7881 36.4368H16.7871ZM24.0841 36.4368C24.7141 36.4368 25.2261 36.9458 25.2271 37.5718C25.2271 38.1988 24.7151 38.7078 24.0841 38.7068C23.4541 38.7068 22.9441 38.1988 22.9451 37.5718C22.9451 36.9458 23.4551 36.4378 24.0841 36.4368ZM31.3811 36.4368C32.0111 36.4368 32.5231 36.9458 32.5231 37.5718C32.5241 38.1988 32.0121 38.7078 31.3811 38.7068C30.7511 38.7068 30.2411 38.1988 30.2421 37.5718C30.2421 36.9458 30.7521 36.4378 31.3811 36.4368ZM20.3671 36.5468C20.3524 36.5477 20.338 36.5515 20.3248 36.558C20.3115 36.5645 20.2997 36.5735 20.2899 36.5846C20.2802 36.5956 20.2727 36.6085 20.2679 36.6224C20.2631 36.6363 20.2612 36.6511 20.2621 36.6658C20.263 36.6805 20.2668 36.6949 20.2733 36.7081C20.2798 36.7214 20.2888 36.7332 20.2998 36.7429C20.3109 36.7527 20.3237 36.7602 20.3377 36.765C20.3516 36.7697 20.3664 36.7717 20.3811 36.7708C20.4108 36.7689 20.4385 36.7554 20.4582 36.733C20.4779 36.7107 20.4879 36.6815 20.4861 36.6518C20.4842 36.6221 20.4706 36.5943 20.4483 36.5747C20.426 36.555 20.3968 36.5449 20.3671 36.5468ZM27.6171 36.5468C27.6024 36.5477 27.588 36.5515 27.5748 36.558C27.5615 36.5645 27.5497 36.5735 27.5399 36.5846C27.5302 36.5956 27.5227 36.6085 27.5179 36.6224C27.5131 36.6363 27.5112 36.6511 27.5121 36.6658C27.513 36.6805 27.5168 36.6949 27.5233 36.7081C27.5298 36.7214 27.5388 36.7332 27.5498 36.7429C27.5609 36.7527 27.5737 36.7602 27.5877 36.765C27.6016 36.7697 27.6164 36.7717 27.6311 36.7708C27.6608 36.7689 27.6885 36.7554 27.7082 36.733C27.7279 36.7107 27.7379 36.6815 27.7361 36.6518C27.7342 36.6221 27.7206 36.5943 27.6983 36.5747C27.676 36.555 27.6468 36.5449 27.6171 36.5468ZM20.3551 37.1088C20.3288 37.1129 20.3048 37.1264 20.2877 37.1468C20.2706 37.1673 20.2615 37.1932 20.2621 37.2198C20.2621 37.2496 20.2739 37.2783 20.295 37.2994C20.3161 37.3204 20.3447 37.3323 20.3746 37.3323C20.4044 37.3323 20.433 37.3204 20.4541 37.2994C20.4752 37.2783 20.4871 37.2496 20.4871 37.2198C20.4861 37.1598 20.4371 37.1098 20.3751 37.1098H20.3551V37.1088ZM27.6051 37.1088C27.5788 37.1129 27.5548 37.1264 27.5377 37.1468C27.5206 37.1673 27.5115 37.1932 27.5121 37.2198C27.5121 37.2496 27.5239 37.2783 27.545 37.2994C27.5661 37.3204 27.5947 37.3323 27.6246 37.3323C27.6544 37.3323 27.683 37.3204 27.7041 37.2994C27.7252 37.2783 27.7371 37.2496 27.7371 37.2198C27.7361 37.1598 27.6871 37.1098 27.6251 37.1098H27.6051V37.1088ZM20.3671 37.6688C20.3377 37.6698 20.31 37.6824 20.2898 37.7037C20.2696 37.725 20.2586 37.7534 20.2591 37.7827C20.2596 37.8121 20.2716 37.8401 20.2926 37.8606C20.3135 37.8812 20.3417 37.8927 20.3711 37.8927C20.4004 37.8927 20.4286 37.8812 20.4496 37.8606C20.4705 37.8401 20.4825 37.8121 20.4831 37.7827C20.4836 37.7534 20.4726 37.725 20.4524 37.7037C20.4322 37.6824 20.4044 37.6698 20.3751 37.6688C20.3724 37.6687 20.3697 37.6687 20.3671 37.6688ZM27.6171 37.6688C27.5877 37.6698 27.56 37.6824 27.5398 37.7037C27.5196 37.725 27.5086 37.7534 27.5091 37.7827C27.5096 37.8121 27.5216 37.8401 27.5426 37.8606C27.5635 37.8812 27.5917 37.8927 27.6211 37.8927C27.6504 37.8927 27.6786 37.8812 27.6996 37.8606C27.7205 37.8401 27.7325 37.8121 27.7331 37.7827C27.7336 37.7534 27.7226 37.725 27.7024 37.7037C27.6822 37.6824 27.6544 37.6698 27.6251 37.6688C27.6224 37.6687 27.6197 37.6687 27.6171 37.6688ZM20.3671 38.2318C20.3383 38.2336 20.3112 38.2465 20.2917 38.2677C20.2721 38.289 20.2615 38.3169 20.2621 38.3458C20.2621 38.4078 20.3121 38.4578 20.3751 38.4558C20.4361 38.4558 20.4851 38.4068 20.4861 38.3458C20.4864 38.3303 20.4835 38.3149 20.4775 38.3006C20.4716 38.2863 20.4628 38.2734 20.4516 38.2627C20.4404 38.252 20.4271 38.2437 20.4126 38.2384C20.398 38.2331 20.3825 38.2308 20.3671 38.2318ZM27.6171 38.2318C27.5883 38.2336 27.5612 38.2465 27.5417 38.2677C27.5221 38.289 27.5115 38.3169 27.5121 38.3458C27.5121 38.4078 27.5621 38.4578 27.6251 38.4558C27.6861 38.4558 27.7351 38.4068 27.7361 38.3458C27.7364 38.3303 27.7335 38.3149 27.7275 38.3006C27.7216 38.2863 27.7128 38.2734 27.7016 38.2627C27.6904 38.252 27.6771 38.2437 27.6626 38.2384C27.648 38.2331 27.6325 38.2308 27.6171 38.2318ZM20.3671 38.7948C20.3377 38.7958 20.31 38.8084 20.2898 38.8297C20.2696 38.851 20.2586 38.8794 20.2591 38.9087C20.2596 38.9381 20.2716 38.9661 20.2926 38.9866C20.3135 39.0072 20.3417 39.0187 20.3711 39.0187C20.4004 39.0187 20.4286 39.0072 20.4496 38.9866C20.4705 38.9661 20.4825 38.9381 20.4831 38.9087C20.4836 38.8794 20.4726 38.851 20.4524 38.8297C20.4322 38.8084 20.4044 38.7958 20.3751 38.7948C20.3724 38.7946 20.3697 38.7946 20.3671 38.7948ZM27.6171 38.7948C27.5877 38.7958 27.56 38.8084 27.5398 38.8297C27.5196 38.851 27.5086 38.8794 27.5091 38.9087C27.5096 38.9381 27.5216 38.9661 27.5426 38.9866C27.5635 39.0072 27.5917 39.0187 27.6211 39.0187C27.6504 39.0187 27.6786 39.0072 27.6996 38.9866C27.7205 38.9661 27.7325 38.9381 27.7331 38.9087C27.7336 38.8794 27.7226 38.851 27.7024 38.8297C27.6822 38.8084 27.6544 38.7958 27.6251 38.7948C27.6224 38.7946 27.6197 38.7946 27.6171 38.7948ZM20.3671 39.3568C20.3523 39.3573 20.3378 39.3608 20.3243 39.3669C20.3109 39.373 20.2988 39.3818 20.2887 39.3926C20.2786 39.4034 20.2708 39.4161 20.2656 39.4299C20.2604 39.4438 20.2581 39.4585 20.2586 39.4733C20.2591 39.4881 20.2625 39.5026 20.2687 39.516C20.2748 39.5295 20.2835 39.5416 20.2944 39.5517C20.3052 39.5618 20.3179 39.5696 20.3317 39.5748C20.3456 39.5799 20.3603 39.5823 20.3751 39.5818C20.4049 39.5807 20.4331 39.5679 20.4535 39.546C20.4738 39.5242 20.4846 39.4951 20.4836 39.4653C20.4825 39.4355 20.4696 39.4073 20.4478 39.3869C20.426 39.3666 20.3969 39.3557 20.3671 39.3568ZM27.6171 39.3568C27.6023 39.3573 27.5878 39.3608 27.5743 39.3669C27.5609 39.373 27.5488 39.3818 27.5387 39.3926C27.5286 39.4034 27.5208 39.4161 27.5156 39.4299C27.5104 39.4438 27.5081 39.4585 27.5086 39.4733C27.5091 39.4881 27.5125 39.5026 27.5187 39.516C27.5248 39.5295 27.5335 39.5416 27.5444 39.5517C27.5552 39.5618 27.5679 39.5696 27.5817 39.5748C27.5956 39.5799 27.6103 39.5823 27.6251 39.5818C27.6549 39.5807 27.6831 39.5679 27.7035 39.546C27.7238 39.5242 27.7346 39.4951 27.7336 39.4653C27.7325 39.4355 27.7196 39.4073 27.6978 39.3869C27.676 39.3666 27.6469 39.3557 27.6171 39.3568ZM16.7871 39.7268C16.3631 39.726 15.9561 39.8935 15.6555 40.1926C15.355 40.4917 15.1854 40.8978 15.1841 41.3218C15.1841 42.2018 15.9011 42.9158 16.7871 42.9158C16.9972 42.9166 17.2054 42.876 17.3998 42.7963C17.5943 42.7166 17.7711 42.5994 17.9202 42.4514C18.0693 42.3034 18.1879 42.1275 18.269 41.9336C18.3501 41.7398 18.3923 41.5319 18.3931 41.3218C18.3931 40.4418 17.6731 39.7258 16.7871 39.7258V39.7268ZM24.0841 39.7268C23.6599 39.7257 23.2527 39.8932 22.9519 40.1922C22.6511 40.4913 22.4814 40.8976 22.4801 41.3218C22.4801 42.2018 23.1981 42.9158 24.0841 42.9158C24.5083 42.9171 24.9156 42.75 25.2166 42.4511C25.5175 42.1522 25.6875 41.746 25.6891 41.3218C25.6891 40.4418 24.9691 39.7258 24.0841 39.7258V39.7268ZM31.3811 39.7268C30.9569 39.7257 30.5497 39.8932 30.2489 40.1922C29.9481 40.4913 29.7784 40.8976 29.7771 41.3218C29.7771 42.2018 30.4951 42.9158 31.3811 42.9158C31.8053 42.9171 32.2126 42.75 32.5136 42.4511C32.8145 42.1522 32.9845 41.746 32.9861 41.3218C32.9861 40.4418 32.2661 39.7258 31.3811 39.7258V39.7268ZM20.3671 39.9198C20.3524 39.9207 20.338 39.9245 20.3248 39.931C20.3115 39.9375 20.2997 39.9465 20.2899 39.9576C20.2802 39.9686 20.2727 39.9815 20.2679 39.9954C20.2631 40.0093 20.2612 40.0241 20.2621 40.0388C20.263 40.0535 20.2668 40.0679 20.2733 40.0811C20.2798 40.0944 20.2888 40.1062 20.2998 40.1159C20.3109 40.1257 20.3237 40.1332 20.3377 40.138C20.3516 40.1427 20.3664 40.1447 20.3811 40.1438C20.4108 40.1419 20.4385 40.1284 20.4582 40.106C20.4779 40.0837 20.4879 40.0545 20.4861 40.0248C20.4842 39.9951 20.4706 39.9673 20.4483 39.9477C20.426 39.928 20.3968 39.9179 20.3671 39.9198ZM27.6171 39.9198C27.6024 39.9207 27.588 39.9245 27.5748 39.931C27.5615 39.9375 27.5497 39.9465 27.5399 39.9576C27.5302 39.9686 27.5227 39.9815 27.5179 39.9954C27.5131 40.0093 27.5112 40.0241 27.5121 40.0388C27.513 40.0535 27.5168 40.0679 27.5233 40.0811C27.5298 40.0944 27.5388 40.1062 27.5498 40.1159C27.5609 40.1257 27.5737 40.1332 27.5877 40.138C27.6016 40.1427 27.6164 40.1447 27.6311 40.1438C27.6608 40.1419 27.6885 40.1284 27.7082 40.106C27.7279 40.0837 27.7379 40.0545 27.7361 40.0248C27.7342 39.9951 27.7206 39.9673 27.6983 39.9477C27.676 39.928 27.6468 39.9179 27.6171 39.9198ZM16.7871 40.1868C17.4171 40.1868 17.9291 40.6958 17.9301 41.3218C17.9301 41.9488 17.4181 42.4578 16.7871 42.4568C16.1571 42.4568 15.6471 41.9488 15.6481 41.3218C15.6481 40.6958 16.1581 40.1878 16.7881 40.1868H16.7871ZM24.0841 40.1868C24.7141 40.1868 25.2261 40.6958 25.2271 41.3218C25.2271 41.9488 24.7151 42.4578 24.0841 42.4568C23.4541 42.4568 22.9441 41.9488 22.9451 41.3218C22.9451 40.6958 23.4551 40.1878 24.0841 40.1868ZM31.3811 40.1868C32.0111 40.1868 32.5231 40.6958 32.5231 41.3218C32.5241 41.9488 32.0121 42.4578 31.3811 42.4568C30.7511 42.4568 30.2411 41.9488 30.2421 41.3218C30.2421 40.6958 30.7521 40.1878 31.3811 40.1868ZM20.3671 40.4818C20.3523 40.4827 20.3379 40.4865 20.3246 40.493C20.3113 40.4995 20.2994 40.5086 20.2896 40.5197C20.2798 40.5308 20.2723 40.5437 20.2675 40.5577C20.2627 40.5717 20.2607 40.5865 20.2616 40.6013C20.2625 40.6161 20.2663 40.6305 20.2728 40.6438C20.2793 40.6571 20.2884 40.669 20.2995 40.6788C20.3106 40.6886 20.3235 40.6961 20.3375 40.7009C20.3515 40.7057 20.3663 40.7077 20.3811 40.7068C20.4109 40.7049 20.4388 40.6913 20.4586 40.6689C20.4784 40.6465 20.4884 40.6171 20.4866 40.5873C20.4847 40.5575 20.4711 40.5296 20.4487 40.5098C20.4263 40.49 20.3969 40.4799 20.3671 40.4818ZM27.6171 40.4818C27.5872 40.4837 27.5594 40.4973 27.5396 40.5197C27.5198 40.5421 27.5097 40.5715 27.5116 40.6013C27.5134 40.6311 27.5271 40.659 27.5495 40.6788C27.5719 40.6986 27.6012 40.7087 27.6311 40.7068C27.6459 40.7059 27.6603 40.7021 27.6736 40.6956C27.6869 40.6891 27.6988 40.68 27.7086 40.6689C27.7184 40.6578 27.7259 40.6449 27.7307 40.6309C27.7355 40.6169 27.7375 40.6021 27.7366 40.5873C27.7357 40.5725 27.7318 40.5581 27.7253 40.5448C27.7188 40.5315 27.7098 40.5196 27.6987 40.5098C27.6876 40.5 27.6747 40.4925 27.6607 40.4877C27.6467 40.4829 27.6319 40.4809 27.6171 40.4818ZM20.3551 41.0448C20.3288 41.0489 20.3048 41.0624 20.2877 41.0828C20.2706 41.1033 20.2615 41.1292 20.2621 41.1558C20.2599 41.1718 20.2612 41.188 20.2659 41.2034C20.2705 41.2188 20.2784 41.2331 20.289 41.2452C20.2996 41.2573 20.3127 41.267 20.3274 41.2737C20.3421 41.2804 20.358 41.2838 20.3741 41.2838C20.3902 41.2838 20.4061 41.2804 20.4208 41.2737C20.4354 41.267 20.4485 41.2573 20.4591 41.2452C20.4697 41.2331 20.4776 41.2188 20.4823 41.2034C20.4869 41.188 20.4882 41.1718 20.4861 41.1558C20.4861 41.0948 20.4361 41.0458 20.3751 41.0448H20.3551ZM27.6051 41.0448C27.5788 41.0489 27.5548 41.0624 27.5377 41.0828C27.5206 41.1033 27.5115 41.1292 27.5121 41.1558C27.5099 41.1718 27.5112 41.188 27.5159 41.2034C27.5205 41.2188 27.5284 41.2331 27.539 41.2452C27.5496 41.2573 27.5627 41.267 27.5774 41.2737C27.5921 41.2804 27.608 41.2838 27.6241 41.2838C27.6402 41.2838 27.6561 41.2804 27.6708 41.2737C27.6854 41.267 27.6985 41.2573 27.7091 41.2452C27.7197 41.2331 27.7276 41.2188 27.7323 41.2034C27.7369 41.188 27.7382 41.1718 27.7361 41.1558C27.7361 41.0948 27.6861 41.0458 27.6251 41.0448H27.6051ZM20.3551 41.6068C20.3286 41.6109 20.3045 41.6246 20.2874 41.6452C20.2703 41.6658 20.2613 41.692 20.2621 41.7188C20.2621 41.7808 20.3121 41.8308 20.3751 41.8288C20.4361 41.8288 20.4851 41.7798 20.4861 41.7188C20.4861 41.6568 20.4361 41.6078 20.3751 41.6068H20.3551ZM27.6051 41.6068C27.5786 41.6109 27.5545 41.6246 27.5374 41.6452C27.5203 41.6658 27.5113 41.692 27.5121 41.7188C27.5121 41.7808 27.5621 41.8308 27.6251 41.8288C27.6861 41.8288 27.7351 41.7798 27.7361 41.7188C27.7361 41.6568 27.6861 41.6078 27.6251 41.6068H27.6051ZM20.3771 42.1668C20.3622 42.1667 20.3475 42.1695 20.3338 42.175C20.32 42.1806 20.3075 42.1888 20.2969 42.1992C20.2863 42.2096 20.2779 42.222 20.2721 42.2356C20.2663 42.2493 20.2632 42.264 20.2631 42.2788C20.2629 42.2936 20.2657 42.3084 20.2713 42.3221C20.2769 42.3359 20.2851 42.3484 20.2955 42.359C20.3059 42.3696 20.3183 42.378 20.3319 42.3838C20.3456 42.3896 20.3602 42.3927 20.3751 42.3928C20.4049 42.3931 20.4336 42.3815 20.4549 42.3606C20.4762 42.3396 20.4883 42.3111 20.4886 42.2813C20.4888 42.2515 20.4772 42.2227 20.4563 42.2015C20.4354 42.1802 20.4069 42.1681 20.3771 42.1678V42.1668ZM27.6271 42.1668C27.6122 42.1667 27.5975 42.1695 27.5838 42.175C27.57 42.1806 27.5575 42.1888 27.5469 42.1992C27.5363 42.2096 27.5279 42.222 27.5221 42.2356C27.5163 42.2493 27.5132 42.264 27.5131 42.2788C27.5129 42.2936 27.5157 42.3084 27.5213 42.3221C27.5269 42.3359 27.5351 42.3484 27.5455 42.359C27.5559 42.3696 27.5683 42.378 27.5819 42.3838C27.5956 42.3896 27.6102 42.3927 27.6251 42.3928C27.6399 42.3929 27.6545 42.3902 27.6682 42.3846C27.6819 42.3791 27.6944 42.3709 27.7049 42.3606C27.7155 42.3502 27.7239 42.3379 27.7296 42.3243C27.7354 42.3107 27.7384 42.2961 27.7386 42.2813C27.7387 42.2665 27.7359 42.2519 27.7304 42.2382C27.7249 42.2245 27.7167 42.212 27.7063 42.2015C27.696 42.1909 27.6837 42.1825 27.6701 42.1767C27.6565 42.171 27.6419 42.1679 27.6271 42.1678V42.1668ZM20.3671 42.7298C20.3377 42.7309 20.31 42.7434 20.2898 42.7647C20.2696 42.786 20.2586 42.8144 20.2591 42.8437C20.2596 42.8731 20.2716 42.9011 20.2926 42.9216C20.3135 42.9422 20.3417 42.9537 20.3711 42.9537C20.4004 42.9537 20.4286 42.9422 20.4496 42.9216C20.4705 42.9011 20.4825 42.8731 20.4831 42.8437C20.4836 42.8144 20.4726 42.786 20.4524 42.7647C20.4322 42.7434 20.4044 42.7309 20.3751 42.7298C20.3724 42.7297 20.3697 42.7297 20.3671 42.7298ZM27.6171 42.7298C27.5877 42.7309 27.56 42.7434 27.5398 42.7647C27.5196 42.786 27.5086 42.8144 27.5091 42.8437C27.5096 42.8731 27.5216 42.9011 27.5426 42.9216C27.5635 42.9422 27.5917 42.9537 27.6211 42.9537C27.6504 42.9537 27.6786 42.9422 27.6996 42.9216C27.7205 42.9011 27.7325 42.8731 27.7331 42.8437C27.7336 42.8144 27.7226 42.786 27.7024 42.7647C27.6822 42.7434 27.6544 42.7309 27.6251 42.7298C27.6224 42.7297 27.6197 42.7297 27.6171 42.7298Z" fill="#333333"/>
</svg>
