<svg width="48" height="48" viewBox="0 0 48 48" fill="none" xmlns="http://www.w3.org/2000/svg">
<path d="M14.346 4.09377C13.476 4.09377 12.777 4.79277 12.777 5.66177V42.5228C12.777 43.3928 13.477 44.0928 14.346 44.0928H34.05C34.92 44.0928 35.618 43.3928 35.618 42.5228V5.66277C35.618 4.79277 34.919 4.09277 34.05 4.09277H14.346V4.09377ZM14.776 4.59377H33.616C34.446 4.59377 35.117 5.27677 35.117 6.12477V42.0648C35.117 42.9118 34.447 43.5938 33.615 43.5938H14.775C13.945 43.5938 13.275 42.9118 13.275 42.0638V6.12477C13.275 5.27677 13.945 4.59377 14.775 4.59377H14.776ZM16.148 8.43577C15.8965 8.44014 15.657 8.54407 15.482 8.72477L13.674 10.5818C13.5872 10.6711 13.5189 10.7767 13.4731 10.8925C13.4272 11.0083 13.4047 11.132 13.4068 11.2566C13.409 11.3811 13.4357 11.504 13.4855 11.6181C13.5353 11.7323 13.6072 11.8355 13.697 11.9218C13.7861 12.0087 13.8915 12.0771 14.0071 12.1232C14.1227 12.1693 14.2463 12.1922 14.3707 12.1905C14.4952 12.1889 14.6181 12.1627 14.7324 12.1135C14.8467 12.0643 14.9502 11.993 15.037 11.9038L16.846 10.0438C16.9326 9.9544 17.0006 9.84882 17.0463 9.73307C17.092 9.61733 17.1143 9.4937 17.1121 9.36929C17.1099 9.24488 17.0831 9.12213 17.0333 9.0081C16.9835 8.89406 16.9117 8.79098 16.822 8.70477C16.7332 8.61779 16.6282 8.54918 16.5129 8.50285C16.3976 8.45651 16.2742 8.43338 16.15 8.43477H16.148V8.43577ZM19.128 8.43577C19.0036 8.43779 18.8808 8.46436 18.7667 8.51396C18.6525 8.56355 18.5493 8.63519 18.463 8.72477L16.654 10.5818C16.5671 10.671 16.4988 10.7766 16.4528 10.8923C16.4069 11.0081 16.3843 11.1318 16.3864 11.2563C16.3884 11.3809 16.415 11.5038 16.4647 11.618C16.5144 11.7322 16.5862 11.8354 16.676 11.9218C16.7651 12.0087 16.8705 12.0771 16.9861 12.1232C17.1017 12.1693 17.2253 12.1922 17.3497 12.1905C17.4742 12.1889 17.5971 12.1627 17.7114 12.1135C17.8257 12.0643 17.9292 11.993 18.016 11.9038L19.824 10.0438C19.9108 9.9546 19.9791 9.84917 20.025 9.73353C20.0709 9.61789 20.0935 9.49432 20.0916 9.36991C20.0896 9.2455 20.0631 9.1227 20.0136 9.00856C19.9641 8.89442 19.8925 8.79118 19.803 8.70477C19.714 8.61755 19.6086 8.5488 19.4929 8.50246C19.3773 8.45612 19.2536 8.43312 19.129 8.43477L19.128 8.43577ZM22.108 8.43577C21.9832 8.43753 21.8601 8.46397 21.7456 8.51357C21.6311 8.56318 21.5276 8.63496 21.441 8.72477L19.635 10.5818C19.548 10.6709 19.4795 10.7763 19.4334 10.892C19.3873 11.0077 19.3645 11.1314 19.3664 11.2559C19.3682 11.3805 19.3947 11.5034 19.4442 11.6177C19.4937 11.7319 19.5654 11.8353 19.655 11.9218C19.7441 12.0087 19.8495 12.0771 19.9651 12.1232C20.0807 12.1693 20.2043 12.1922 20.3287 12.1905C20.4532 12.1889 20.5761 12.1627 20.6904 12.1135C20.8047 12.0643 20.9082 11.993 20.995 11.9038L22.803 10.0438C22.8898 9.95467 22.9582 9.84929 23.0042 9.73368C23.0502 9.61808 23.073 9.49453 23.0711 9.37012C23.0692 9.24571 23.0428 9.12289 22.9934 9.00872C22.9439 8.89454 22.8724 8.79125 22.783 8.70477C22.694 8.61755 22.5886 8.5488 22.4729 8.50246C22.3573 8.45612 22.2336 8.43312 22.109 8.43477H22.107L22.108 8.43577ZM25.086 8.43577C24.8345 8.44014 24.595 8.54407 24.42 8.72477L22.611 10.5818C22.5242 10.6712 22.456 10.7768 22.4103 10.8927C22.3645 11.0085 22.3421 11.1322 22.3443 11.2568C22.3466 11.3813 22.3734 11.5042 22.4233 11.6183C22.4732 11.7324 22.5451 11.8355 22.635 11.9218C22.7241 12.0087 22.8295 12.0771 22.9451 12.1232C23.0607 12.1693 23.1843 12.1922 23.3087 12.1905C23.4332 12.1889 23.5561 12.1627 23.6704 12.1135C23.7847 12.0643 23.8882 11.993 23.975 11.9038L25.783 10.0438C25.8696 9.95447 25.9378 9.84894 25.9835 9.73322C26.0293 9.61751 26.0517 9.49391 26.0496 9.3695C26.0475 9.24509 26.0208 9.12232 25.9711 9.00825C25.9214 8.89418 25.8496 8.79105 25.76 8.70477C25.6712 8.61779 25.5662 8.54918 25.4509 8.50285C25.3356 8.45651 25.2122 8.43338 25.088 8.43477H25.086V8.43577ZM28.066 8.43577C27.9414 8.43766 27.8184 8.46417 27.7041 8.51376C27.5898 8.56336 27.4865 8.63508 27.4 8.72477L25.592 10.5818C25.5051 10.671 25.4366 10.7765 25.3906 10.8922C25.3446 11.0079 25.3219 11.1316 25.3239 11.2561C25.3258 11.3807 25.3524 11.5036 25.402 11.6178C25.4516 11.732 25.5233 11.8353 25.613 11.9218C25.7021 12.0087 25.8075 12.0771 25.9231 12.1232C26.0387 12.1693 26.1623 12.1922 26.2867 12.1905C26.4112 12.1889 26.5341 12.1627 26.6484 12.1135C26.7627 12.0643 26.8662 11.993 26.953 11.9038L28.762 10.0438C28.8487 9.95454 28.9169 9.84905 28.9628 9.73338C29.0086 9.6177 29.0311 9.49411 29.0291 9.3697C29.0271 9.24529 29.0005 9.12251 28.9508 9.00841C28.9012 8.8943 28.8296 8.79111 28.74 8.70477C28.651 8.61755 28.5456 8.5488 28.4299 8.50246C28.3143 8.45612 28.1906 8.43312 28.066 8.43477V8.43577ZM31.045 8.43577C30.9204 8.43766 30.7974 8.46417 30.6831 8.51376C30.5688 8.56336 30.4655 8.63508 30.379 8.72477L28.572 10.5818C28.485 10.6709 28.4165 10.7763 28.3704 10.892C28.3243 11.0077 28.3015 11.1314 28.3034 11.2559C28.3052 11.3805 28.3317 11.5034 28.3812 11.6177C28.4307 11.7319 28.5024 11.8353 28.592 11.9218C28.6811 12.0087 28.7865 12.0771 28.9021 12.1232C29.0177 12.1693 29.1413 12.1922 29.2657 12.1905C29.3902 12.1889 29.5131 12.1627 29.6274 12.1135C29.7417 12.0643 29.8452 11.993 29.932 11.9038L31.74 10.0438C31.8268 9.95467 31.8952 9.84929 31.9412 9.73368C31.9872 9.61808 32.0099 9.49453 32.0081 9.37012C32.0062 9.24571 31.9798 9.12289 31.9304 9.00872C31.8809 8.89454 31.8094 8.79125 31.72 8.70477C31.6311 8.61767 31.5259 8.54899 31.4104 8.50265C31.2949 8.45632 31.1714 8.43325 31.047 8.43477H31.045V8.43577ZM34.023 8.43577C33.7715 8.44014 33.532 8.54407 33.357 8.72477L31.549 10.5818C31.4622 10.6711 31.3939 10.7767 31.3481 10.8925C31.3022 11.0083 31.2797 11.132 31.2818 11.2566C31.284 11.3811 31.3107 11.504 31.3605 11.6181C31.4103 11.7323 31.4822 11.8355 31.572 11.9218C31.6611 12.0087 31.7665 12.0771 31.8821 12.1232C31.9977 12.1693 32.1213 12.1922 32.2457 12.1905C32.3702 12.1889 32.4931 12.1627 32.6074 12.1135C32.7217 12.0643 32.8252 11.993 32.912 11.9038L34.721 10.0438C34.8076 9.9544 34.8756 9.84882 34.9213 9.73307C34.967 9.61733 34.9893 9.4937 34.9871 9.36929C34.9849 9.24488 34.9581 9.12213 34.9083 9.0081C34.8585 8.89406 34.7867 8.79098 34.697 8.70477C34.6082 8.61779 34.5032 8.54918 34.3879 8.50285C34.2726 8.45651 34.1492 8.43338 34.025 8.43477H34.023V8.43577ZM16.213 8.91577H16.215V8.91777C16.294 8.92177 16.375 8.95577 16.459 9.02277C16.866 9.38477 16.384 9.80877 16.209 9.99277L15.344 10.8958C14.737 11.5278 14.473 11.9548 14.049 11.5458C13.689 11.1738 14.005 10.9508 14.693 10.2518L15.559 9.34977C15.764 9.14877 15.977 8.90377 16.213 8.91577ZM19.193 8.91577H19.195V8.91777C19.275 8.92177 19.355 8.95577 19.439 9.02277C19.846 9.38477 19.365 9.80877 19.189 9.99277L18.324 10.8958C17.717 11.5278 17.453 11.9548 17.029 11.5458C16.669 11.1738 16.986 10.9508 17.674 10.2518L18.539 9.34977C18.744 9.14877 18.957 8.90377 19.193 8.91577ZM22.172 8.91577V8.91777C22.263 8.92587 22.3491 8.96263 22.418 9.02277C22.825 9.38477 22.343 9.80877 22.168 9.99277L21.303 10.8958C20.695 11.5278 20.431 11.9548 20.008 11.5458C19.648 11.1738 19.964 10.9508 20.652 10.2518L21.518 9.34977C21.723 9.14877 21.936 8.90377 22.172 8.91577ZM25.15 8.91577V8.91777C25.2414 8.92559 25.3279 8.96238 25.397 9.02277C25.803 9.38477 25.322 9.80877 25.147 9.99277L24.281 10.8958C23.674 11.5278 23.41 11.9548 22.986 11.5458C22.626 11.1738 22.943 10.9508 23.631 10.2518L24.496 9.34977C24.702 9.14877 24.914 8.90377 25.15 8.91577ZM28.13 8.91577H28.133V8.91777C28.212 8.92177 28.293 8.95577 28.377 9.02277C28.784 9.38477 28.302 9.80877 28.127 9.99277L27.262 10.8958C26.654 11.5278 26.39 11.9548 25.967 11.5458C25.607 11.1738 25.923 10.9508 26.611 10.2518L27.477 9.34977C27.682 9.14877 27.895 8.90377 28.131 8.91577H28.13ZM31.11 8.91577V8.91777C31.2007 8.92607 31.2864 8.96282 31.355 9.02277C31.762 9.38477 31.281 9.80877 31.105 9.99277L30.242 10.8958C29.635 11.5278 29.369 11.9548 28.945 11.5458C28.585 11.1738 28.902 10.9508 29.59 10.2518L30.455 9.34977C30.661 9.14877 30.873 8.90377 31.109 8.91577H31.11ZM34.088 8.91577H34.09V8.91777C34.169 8.92177 34.25 8.95577 34.334 9.02277C34.741 9.38477 34.259 9.80877 34.084 9.99277L33.219 10.8958C32.611 11.5278 32.347 11.9548 31.924 11.5458C31.564 11.1738 31.88 10.9508 32.568 10.2518L33.434 9.34977C33.639 9.14877 33.852 8.90377 34.088 8.91577ZM13.795 14.9798C13.7802 14.9799 13.7656 14.983 13.752 14.9888C13.7384 14.9946 13.726 15.003 13.7157 15.0136C13.7054 15.0242 13.6973 15.0368 13.6918 15.0505C13.6864 15.0643 13.6837 15.079 13.684 15.0938C13.684 15.1548 13.734 15.2058 13.794 15.2068C13.857 15.2068 13.907 15.1568 13.908 15.0938C13.9082 15.0788 13.9055 15.064 13.8999 15.0501C13.8944 15.0362 13.8861 15.0235 13.8755 15.0129C13.865 15.0023 13.8525 14.9939 13.8386 14.9882C13.8248 14.9825 13.8099 14.9796 13.795 14.9798ZM14.357 14.9798C14.3269 14.98 14.2982 14.9922 14.277 15.0135C14.2558 15.0349 14.244 15.0637 14.244 15.0938C14.244 15.1548 14.296 15.2068 14.357 15.2068C14.419 15.2068 14.468 15.1548 14.469 15.0938V15.0738C14.4651 15.0471 14.4515 15.0228 14.4309 15.0055C14.4102 14.9881 14.3839 14.979 14.357 14.9798ZM14.92 14.9798C14.905 14.9796 14.8902 14.9825 14.8763 14.9882C14.8625 14.9939 14.8499 15.0023 14.8394 15.0129C14.8289 15.0235 14.8206 15.0362 14.815 15.0501C14.8094 15.064 14.8067 15.0788 14.807 15.0938C14.807 15.1558 14.857 15.2078 14.92 15.2068C14.981 15.2068 15.03 15.1548 15.031 15.0938V15.0738C15.0271 15.0473 15.0137 15.0231 14.9932 15.0058C14.9728 14.9885 14.9468 14.9792 14.92 14.9798ZM15.482 14.9798C15.467 14.9796 15.4522 14.9825 15.4383 14.9882C15.4245 14.9939 15.4119 15.0023 15.4014 15.0129C15.3909 15.0235 15.3826 15.0362 15.377 15.0501C15.3714 15.064 15.3687 15.0788 15.369 15.0938C15.369 15.1558 15.42 15.2078 15.482 15.2068C15.544 15.2068 15.593 15.1548 15.594 15.0938V15.0858C15.5924 15.0571 15.58 15.0302 15.5591 15.0104C15.5383 14.9907 15.5107 14.9797 15.482 14.9798ZM16.045 14.9798C16.03 14.9796 16.0152 14.9825 16.0013 14.9882C15.9875 14.9939 15.9749 15.0023 15.9644 15.0129C15.9539 15.0235 15.9456 15.0362 15.94 15.0501C15.9344 15.064 15.9317 15.0788 15.932 15.0938C15.932 15.1558 15.982 15.2078 16.045 15.2068C16.106 15.2068 16.155 15.1548 16.156 15.0938V15.0858C16.1545 15.0573 16.1421 15.0305 16.1215 15.0108C16.1009 14.9911 16.0735 14.98 16.045 14.9798ZM16.607 14.9798C16.592 14.9796 16.5772 14.9825 16.5633 14.9882C16.5495 14.9939 16.5369 15.0023 16.5264 15.0129C16.5159 15.0235 16.5076 15.0362 16.502 15.0501C16.4964 15.064 16.4937 15.0788 16.494 15.0938C16.494 15.1558 16.545 15.2078 16.607 15.2068C16.669 15.2068 16.718 15.1548 16.719 15.0938V15.0858C16.7174 15.0571 16.705 15.0302 16.6841 15.0104C16.6633 14.9907 16.6357 14.9797 16.607 14.9798ZM17.168 14.9798C17.1532 14.9799 17.1386 14.983 17.125 14.9888C17.1114 14.9946 17.099 15.003 17.0887 15.0136C17.0784 15.0242 17.0703 15.0368 17.0648 15.0505C17.0594 15.0643 17.0567 15.079 17.057 15.0938C17.057 15.1548 17.107 15.2068 17.168 15.2068C17.1979 15.2065 17.2265 15.1945 17.2476 15.1734C17.2687 15.1523 17.2807 15.1237 17.281 15.0938V15.0858C17.2794 15.0569 17.2668 15.0298 17.2458 15.0101C17.2247 14.9903 17.1968 14.9795 17.168 14.9798ZM17.731 14.9798C17.7161 14.9798 17.7014 14.9827 17.6876 14.9885C17.6739 14.9942 17.6615 15.0027 17.6511 15.0133C17.6406 15.0239 17.6324 15.0365 17.6269 15.0503C17.6214 15.0641 17.6187 15.0789 17.619 15.0938C17.619 15.1548 17.669 15.2068 17.73 15.2068C17.76 15.2068 17.7889 15.1949 17.8102 15.1737C17.8316 15.1526 17.8437 15.1238 17.844 15.0938V15.0858C17.8424 15.0568 17.8297 15.0295 17.8084 15.0097C17.7871 14.99 17.759 14.9792 17.73 14.9798H17.731ZM18.293 14.9798C18.2782 14.9799 18.2636 14.983 18.25 14.9888C18.2364 14.9946 18.224 15.003 18.2137 15.0136C18.2034 15.0242 18.1953 15.0368 18.1898 15.0505C18.1844 15.0643 18.1817 15.079 18.182 15.0938C18.182 15.1548 18.232 15.2068 18.293 15.2068C18.3229 15.2065 18.3515 15.1945 18.3726 15.1734C18.3937 15.1523 18.4057 15.1237 18.406 15.0938V15.0858C18.4044 15.0569 18.3918 15.0298 18.3708 15.0101C18.3497 14.9903 18.3218 14.9795 18.293 14.9798ZM18.856 14.9798C18.8411 14.9798 18.8264 14.9827 18.8126 14.9885C18.7989 14.9942 18.7865 15.0027 18.7761 15.0133C18.7656 15.0239 18.7574 15.0365 18.7519 15.0503C18.7464 15.0641 18.7437 15.0789 18.744 15.0938C18.744 15.1548 18.794 15.2068 18.855 15.2068C18.917 15.2068 18.966 15.1548 18.967 15.0938V15.0738C18.9631 15.0473 18.9497 15.0231 18.9292 15.0058C18.9088 14.9885 18.8828 14.9792 18.856 14.9798ZM19.418 14.9798C19.403 14.9796 19.3882 14.9825 19.3743 14.9882C19.3605 14.9939 19.3479 15.0023 19.3374 15.0129C19.3269 15.0235 19.3186 15.0362 19.313 15.0501C19.3074 15.064 19.3047 15.0788 19.305 15.0938C19.305 15.1558 19.356 15.2078 19.418 15.2068C19.479 15.2068 19.528 15.1548 19.529 15.0938V15.0858C19.5274 15.0573 19.5151 15.0305 19.4945 15.0108C19.4739 14.9911 19.4465 14.98 19.418 14.9798ZM19.981 14.9798C19.9659 14.9795 19.951 14.9823 19.937 14.9879C19.9231 14.9935 19.9104 15.0019 19.8998 15.0126C19.8891 15.0232 19.8807 15.0359 19.8751 15.0498C19.8695 15.0638 19.8667 15.0787 19.867 15.0938C19.867 15.1558 19.919 15.2078 19.98 15.2068C20.042 15.2068 20.091 15.1548 20.092 15.0938V15.0858C20.0904 15.0573 20.0781 15.0305 20.0575 15.0108C20.0369 14.9911 20.0095 14.98 19.981 14.9798ZM20.543 14.9798C20.528 14.9796 20.5132 14.9825 20.4993 14.9882C20.4855 14.9939 20.4729 15.0023 20.4624 15.0129C20.4519 15.0235 20.4436 15.0362 20.438 15.0501C20.4324 15.064 20.4297 15.0788 20.43 15.0938C20.43 15.1558 20.481 15.2078 20.543 15.2068C20.604 15.2068 20.653 15.1548 20.654 15.0938V15.0858C20.6524 15.0573 20.6401 15.0305 20.6195 15.0108C20.5989 14.9911 20.5715 14.98 20.543 14.9798ZM21.106 14.9798C21.0909 14.9795 21.076 14.9823 21.062 14.9879C21.0481 14.9935 21.0354 15.0019 21.0248 15.0126C21.0141 15.0232 21.0057 15.0359 21.0001 15.0498C20.9945 15.0638 20.9917 15.0787 20.992 15.0938C20.992 15.1558 21.044 15.2078 21.105 15.2068C21.167 15.2068 21.216 15.1548 21.217 15.0938V15.0858C21.2154 15.0573 21.2031 15.0305 21.1825 15.0108C21.1619 14.9911 21.1345 14.98 21.106 14.9798ZM21.666 14.9798C21.6512 14.9799 21.6366 14.983 21.623 14.9888C21.6094 14.9946 21.597 15.003 21.5867 15.0136C21.5764 15.0242 21.5683 15.0368 21.5628 15.0505C21.5574 15.0643 21.5547 15.079 21.555 15.0938C21.555 15.1548 21.605 15.2068 21.666 15.2068C21.6959 15.2065 21.7245 15.1945 21.7456 15.1734C21.7667 15.1523 21.7787 15.1237 21.779 15.0938V15.0858C21.7774 15.0569 21.7648 15.0298 21.7438 15.0101C21.7227 14.9903 21.6948 14.9795 21.666 14.9798ZM22.229 14.9798C22.2141 14.9798 22.1994 14.9827 22.1856 14.9885C22.1719 14.9942 22.1595 15.0027 22.1491 15.0133C22.1386 15.0239 22.1304 15.0365 22.1249 15.0503C22.1194 15.0641 22.1167 15.0789 22.117 15.0938C22.117 15.1548 22.167 15.2068 22.228 15.2068C22.258 15.2068 22.2869 15.1949 22.3082 15.1737C22.3296 15.1526 22.3417 15.1238 22.342 15.0938V15.0858C22.3404 15.0569 22.3278 15.0298 22.3068 15.0101C22.2857 14.9903 22.2578 14.9795 22.229 14.9798ZM22.791 14.9798C22.7762 14.9799 22.7616 14.983 22.748 14.9888C22.7344 14.9946 22.722 15.003 22.7117 15.0136C22.7014 15.0242 22.6933 15.0368 22.6878 15.0505C22.6824 15.0643 22.6797 15.079 22.68 15.0938C22.68 15.1548 22.73 15.2058 22.791 15.2068C22.853 15.2068 22.904 15.1568 22.904 15.0938C22.9042 15.0788 22.9015 15.064 22.8959 15.0501C22.8904 15.0362 22.8821 15.0235 22.8715 15.0129C22.861 15.0023 22.8485 14.9939 22.8346 14.9882C22.8208 14.9825 22.8059 14.9796 22.791 14.9798ZM23.354 14.9798C23.3391 14.9798 23.3244 14.9827 23.3106 14.9885C23.2969 14.9942 23.2845 15.0027 23.2741 15.0133C23.2636 15.0239 23.2554 15.0365 23.2499 15.0503C23.2444 15.0641 23.2417 15.0789 23.242 15.0938C23.242 15.1548 23.292 15.2068 23.353 15.2068C23.3827 15.2063 23.411 15.1941 23.4319 15.173C23.4529 15.1519 23.4647 15.1235 23.465 15.0938V15.0738C23.4609 15.0474 23.4474 15.0233 23.427 15.0061C23.4066 14.9888 23.3807 14.9795 23.354 14.9798ZM23.916 14.9798C23.901 14.9796 23.8862 14.9825 23.8723 14.9882C23.8585 14.9939 23.8459 15.0023 23.8354 15.0129C23.8249 15.0235 23.8166 15.0362 23.811 15.0501C23.8054 15.064 23.8027 15.0788 23.803 15.0938C23.803 15.1558 23.854 15.2078 23.916 15.2068C23.977 15.2068 24.026 15.1548 24.027 15.0938V15.0738C24.0231 15.0473 24.0097 15.0231 23.9892 15.0058C23.9688 14.9885 23.9428 14.9792 23.916 14.9798ZM24.479 14.9798C24.4639 14.9795 24.449 14.9823 24.435 14.9879C24.4211 14.9935 24.4084 15.0019 24.3978 15.0126C24.3871 15.0232 24.3787 15.0359 24.3731 15.0498C24.3675 15.0638 24.3647 15.0787 24.365 15.0938C24.365 15.1558 24.417 15.2078 24.479 15.2068C24.539 15.2068 24.589 15.1548 24.589 15.0938V15.0858C24.5875 15.0575 24.5753 15.0308 24.5549 15.0111C24.5344 14.9914 24.5073 14.9802 24.479 14.9798ZM25.041 14.9798C25.026 14.9796 25.0112 14.9825 24.9973 14.9882C24.9835 14.9939 24.9709 15.0023 24.9604 15.0129C24.9499 15.0235 24.9416 15.0362 24.936 15.0501C24.9304 15.064 24.9277 15.0788 24.928 15.0938C24.928 15.1558 24.979 15.2078 25.041 15.2068C25.102 15.2068 25.151 15.1548 25.152 15.0938V15.0858C25.1505 15.0573 25.1381 15.0305 25.1175 15.0108C25.0969 14.9911 25.0695 14.98 25.041 14.9798ZM25.601 14.9798C25.5863 14.98 25.5718 14.9832 25.5583 14.9891C25.5448 14.9949 25.5326 15.0034 25.5224 15.014C25.5121 15.0246 25.5041 15.0371 25.4987 15.0508C25.4933 15.0644 25.4907 15.0791 25.491 15.0938C25.491 15.1548 25.541 15.2068 25.601 15.2068C25.631 15.2068 25.6599 15.1949 25.6812 15.1737C25.7026 15.1526 25.7147 15.1238 25.715 15.0938V15.0858C25.7134 15.0569 25.7008 15.0298 25.6798 15.0101C25.6587 14.9903 25.6308 14.9795 25.602 14.9798H25.601ZM26.164 14.9798C26.1492 14.9799 26.1346 14.983 26.121 14.9888C26.1074 14.9946 26.095 15.003 26.0847 15.0136C26.0744 15.0242 26.0663 15.0368 26.0608 15.0505C26.0554 15.0643 26.0527 15.079 26.053 15.0938C26.053 15.1548 26.103 15.2068 26.164 15.2068C26.1939 15.2065 26.2225 15.1945 26.2436 15.1734C26.2647 15.1523 26.2767 15.1237 26.277 15.0938V15.0858C26.2754 15.0569 26.2628 15.0298 26.2418 15.0101C26.2207 14.9903 26.1928 14.9795 26.164 14.9798ZM26.727 14.9798C26.7121 14.9798 26.6974 14.9827 26.6836 14.9885C26.6699 14.9942 26.6575 15.0027 26.6471 15.0133C26.6366 15.0239 26.6284 15.0365 26.6229 15.0503C26.6174 15.0641 26.6147 15.0789 26.615 15.0938C26.615 15.1548 26.665 15.2068 26.727 15.2068C26.7569 15.2065 26.7855 15.1945 26.8066 15.1734C26.8277 15.1523 26.8397 15.1237 26.84 15.0938V15.0858C26.8384 15.0569 26.8258 15.0298 26.8048 15.0101C26.7837 14.9903 26.7558 14.9795 26.727 14.9798ZM27.289 14.9798C27.2742 14.9799 27.2596 14.983 27.246 14.9888C27.2324 14.9946 27.22 15.003 27.2097 15.0136C27.1994 15.0242 27.1913 15.0368 27.1858 15.0505C27.1804 15.0643 27.1777 15.079 27.178 15.0938C27.178 15.1548 27.228 15.2058 27.289 15.2068C27.351 15.2068 27.402 15.1568 27.402 15.0938C27.4022 15.0788 27.3995 15.064 27.3939 15.0501C27.3884 15.0362 27.3801 15.0235 27.3695 15.0129C27.359 15.0023 27.3464 14.9939 27.3326 14.9882C27.3188 14.9825 27.3039 14.9796 27.289 14.9798ZM27.852 14.9798C27.8371 14.9798 27.8224 14.9827 27.8086 14.9885C27.7949 14.9942 27.7825 15.0027 27.7721 15.0133C27.7616 15.0239 27.7534 15.0365 27.7479 15.0503C27.7424 15.0641 27.7397 15.0789 27.74 15.0938C27.74 15.1548 27.79 15.2068 27.852 15.2068C27.912 15.2068 27.962 15.1548 27.962 15.0938C27.964 15.0858 27.964 15.0818 27.962 15.0738C27.9581 15.0475 27.9448 15.0234 27.9246 15.0061C27.9044 14.9889 27.8786 14.9795 27.852 14.9798ZM28.414 14.9798C28.399 14.9796 28.3842 14.9825 28.3703 14.9882C28.3565 14.9939 28.3439 15.0023 28.3334 15.0129C28.3229 15.0235 28.3146 15.0362 28.309 15.0501C28.3034 15.064 28.3007 15.0788 28.301 15.0938C28.301 15.1558 28.352 15.2078 28.414 15.2068C28.475 15.2068 28.524 15.1548 28.525 15.0938V15.0858C28.5235 15.0575 28.5113 15.0308 28.4909 15.0111C28.4704 14.9914 28.4433 14.9802 28.415 14.9798H28.414ZM28.977 14.9798C28.9619 14.9795 28.947 14.9823 28.933 14.9879C28.9191 14.9935 28.9064 15.0019 28.8958 15.0126C28.8851 15.0232 28.8767 15.0359 28.8711 15.0498C28.8655 15.0638 28.8627 15.0787 28.863 15.0938C28.863 15.1558 28.915 15.2078 28.977 15.2068C29.037 15.2068 29.087 15.1548 29.087 15.0938V15.0858C29.0855 15.0575 29.0733 15.0308 29.0529 15.0111C29.0324 14.9914 29.0053 14.9802 28.977 14.9798ZM29.539 14.9798C29.524 14.9796 29.5092 14.9825 29.4953 14.9882C29.4815 14.9939 29.4689 15.0023 29.4584 15.0129C29.4479 15.0235 29.4396 15.0362 29.434 15.0501C29.4284 15.064 29.4257 15.0788 29.426 15.0938C29.426 15.1558 29.477 15.2078 29.539 15.2068C29.6 15.2068 29.649 15.1548 29.65 15.0938V15.0858C29.6485 15.0575 29.6363 15.0308 29.6159 15.0111C29.5954 14.9914 29.5683 14.9802 29.54 14.9798H29.539ZM30.099 14.9798C30.0843 14.98 30.0698 14.9832 30.0563 14.9891C30.0428 14.9949 30.0306 15.0034 30.0204 15.014C30.0101 15.0246 30.0021 15.0371 29.9967 15.0508C29.9913 15.0644 29.9887 15.0791 29.989 15.0938C29.989 15.1548 30.038 15.2068 30.099 15.2068C30.129 15.2068 30.1579 15.1949 30.1792 15.1737C30.2006 15.1526 30.2127 15.1238 30.213 15.0938V15.0858C30.2114 15.0569 30.1988 15.0298 30.1778 15.0101C30.1567 14.9903 30.1288 14.9795 30.1 14.9798H30.099ZM30.662 14.9798C30.6472 14.9799 30.6326 14.983 30.619 14.9888C30.6054 14.9946 30.593 15.003 30.5827 15.0136C30.5724 15.0242 30.5643 15.0368 30.5588 15.0505C30.5534 15.0643 30.5507 15.079 30.551 15.0938C30.551 15.1548 30.601 15.2068 30.662 15.2068C30.6919 15.2065 30.7205 15.1945 30.7416 15.1734C30.7627 15.1523 30.7747 15.1237 30.775 15.0938V15.0858C30.7734 15.0569 30.7608 15.0298 30.7398 15.0101C30.7187 14.9903 30.6908 14.9795 30.662 14.9798ZM31.225 14.9798C31.2101 14.9798 31.1954 14.9827 31.1817 14.9885C31.1679 14.9942 31.1555 15.0027 31.1451 15.0133C31.1346 15.0239 31.1264 15.0365 31.1209 15.0503C31.1154 15.0641 31.1127 15.0789 31.113 15.0938C31.113 15.1548 31.163 15.2068 31.225 15.2068C31.2549 15.2065 31.2835 15.1945 31.3046 15.1734C31.3257 15.1523 31.3377 15.1237 31.338 15.0938V15.0858C31.3364 15.0569 31.3238 15.0298 31.3028 15.0101C31.2817 14.9903 31.2538 14.9795 31.225 14.9798ZM31.787 14.9798C31.7722 14.9799 31.7576 14.983 31.744 14.9888C31.7304 14.9946 31.718 15.003 31.7077 15.0136C31.6974 15.0242 31.6893 15.0368 31.6838 15.0505C31.6784 15.0643 31.6757 15.079 31.676 15.0938C31.676 15.1548 31.726 15.2068 31.787 15.2068C31.848 15.2068 31.897 15.1548 31.898 15.0938V15.0738C31.8941 15.0475 31.8808 15.0234 31.8606 15.0061C31.8404 14.9889 31.8146 14.9795 31.788 14.9798H31.787ZM32.35 14.9798C32.3349 14.9795 32.32 14.9823 32.306 14.9879C32.2921 14.9935 32.2794 15.0019 32.2688 15.0126C32.2581 15.0232 32.2497 15.0359 32.2441 15.0498C32.2385 15.0638 32.2357 15.0787 32.236 15.0938C32.236 15.1558 32.288 15.2078 32.35 15.2068C32.41 15.2068 32.46 15.1548 32.46 15.0938C32.462 15.0858 32.462 15.0818 32.46 15.0738C32.4561 15.0475 32.4428 15.0234 32.4226 15.0061C32.4024 14.9889 32.3766 14.9795 32.35 14.9798ZM32.912 14.9798C32.897 14.9796 32.8822 14.9825 32.8683 14.9882C32.8545 14.9939 32.8419 15.0023 32.8314 15.0129C32.8209 15.0235 32.8126 15.0362 32.807 15.0501C32.8014 15.064 32.7987 15.0788 32.799 15.0938C32.799 15.1558 32.85 15.2078 32.912 15.2068C32.973 15.2068 33.022 15.1548 33.023 15.0938V15.0858C33.0215 15.0575 33.0093 15.0308 32.9889 15.0111C32.9684 14.9914 32.9413 14.9802 32.913 14.9798H32.912ZM33.475 14.9798C33.4599 14.9795 33.445 14.9823 33.431 14.9879C33.4171 14.9935 33.4044 15.0019 33.3938 15.0126C33.3831 15.0232 33.3747 15.0359 33.3691 15.0498C33.3635 15.0638 33.3607 15.0787 33.361 15.0938C33.361 15.1558 33.413 15.2078 33.475 15.2068C33.5043 15.2057 33.5322 15.1934 33.5527 15.1724C33.5732 15.1513 33.5847 15.1232 33.585 15.0938V15.0858C33.5835 15.0575 33.5713 15.0308 33.5509 15.0111C33.5304 14.9914 33.5033 14.9802 33.475 14.9798ZM34.037 14.9798C34.022 14.9796 34.0072 14.9825 33.9933 14.9882C33.9795 14.9939 33.9669 15.0023 33.9564 15.0129C33.9459 15.0235 33.9376 15.0362 33.932 15.0501C33.9264 15.064 33.9237 15.0788 33.924 15.0938C33.924 15.1558 33.975 15.2078 34.037 15.2068C34.0665 15.206 34.0946 15.1938 34.1153 15.1727C34.136 15.1516 34.1477 15.1233 34.148 15.0938V15.0858C34.1465 15.0575 34.1343 15.0308 34.1139 15.0111C34.0934 14.9914 34.0663 14.9802 34.038 14.9798H34.037ZM34.597 14.9798C34.5823 14.98 34.5678 14.9832 34.5543 14.9891C34.5408 14.9949 34.5286 15.0034 34.5184 15.014C34.5081 15.0246 34.5001 15.0371 34.4947 15.0508C34.4893 15.0644 34.4867 15.0791 34.487 15.0938C34.487 15.1548 34.536 15.2068 34.597 15.2068C34.627 15.2068 34.6559 15.1949 34.6772 15.1737C34.6986 15.1526 34.7107 15.1238 34.711 15.0938V15.0858C34.7094 15.0569 34.6968 15.0298 34.6758 15.0101C34.6547 14.9903 34.6268 14.9795 34.598 14.9798H34.597ZM16.148 17.6228C15.8963 17.6274 15.6568 17.7317 15.482 17.9128L13.674 19.7698C13.5872 19.8591 13.5189 19.9647 13.4731 20.0805C13.4272 20.1963 13.4047 20.32 13.4068 20.4446C13.409 20.5691 13.4357 20.692 13.4855 20.8061C13.5353 20.9203 13.6072 21.0235 13.697 21.1098C13.7861 21.1966 13.8915 21.2651 14.0071 21.3112C14.1227 21.3573 14.2463 21.3802 14.3707 21.3785C14.4952 21.3769 14.6181 21.3507 14.7324 21.3015C14.8467 21.2523 14.9502 21.181 15.037 21.0918L16.846 19.2318C16.9327 19.1424 17.0009 19.0367 17.0467 18.9209C17.0924 18.8051 17.1148 18.6813 17.1126 18.5568C17.1104 18.4323 17.0836 18.3094 17.0337 18.1953C16.9838 18.0811 16.9119 17.978 16.822 17.8918C16.7331 17.805 16.6281 17.7365 16.5128 17.6904C16.3974 17.6442 16.2742 17.6212 16.15 17.6228H16.148ZM19.128 17.6228C19.0035 17.625 18.8807 17.6517 18.7666 17.7015C18.6525 17.7513 18.5493 17.8231 18.463 17.9128L16.654 19.7698C16.5671 19.859 16.4988 19.9646 16.4528 20.0803C16.4069 20.1961 16.3843 20.3198 16.3864 20.4443C16.3884 20.5689 16.415 20.6918 16.4647 20.806C16.5144 20.9202 16.5862 21.0234 16.676 21.1098C16.7651 21.1966 16.8705 21.2651 16.9861 21.3112C17.1017 21.3573 17.2253 21.3802 17.3497 21.3785C17.4742 21.3769 17.5971 21.3507 17.7114 21.3015C17.8257 21.2523 17.9292 21.181 18.016 21.0918L19.824 19.2318C19.9109 19.1426 19.9793 19.0371 20.0254 18.9214C20.0714 18.8056 20.094 18.6819 20.0921 18.5574C20.0901 18.4329 20.0636 18.31 20.014 18.1957C19.9644 18.0815 19.8927 17.9782 19.803 17.8918C19.7139 17.8047 19.6085 17.7362 19.4928 17.69C19.3772 17.6438 19.2535 17.621 19.129 17.6228H19.128ZM22.108 17.6228C21.9832 17.6247 21.86 17.6513 21.7455 17.7011C21.631 17.7509 21.5275 17.8228 21.441 17.9128L19.635 19.7698C19.548 19.8589 19.4795 19.9643 19.4334 20.08C19.3873 20.1957 19.3645 20.3194 19.3664 20.4439C19.3682 20.5685 19.3947 20.6914 19.4442 20.8057C19.4937 20.9199 19.5654 21.0233 19.655 21.1098C19.7441 21.1966 19.8495 21.2651 19.9651 21.3112C20.0807 21.3573 20.2043 21.3802 20.3287 21.3785C20.4532 21.3769 20.5761 21.3507 20.6904 21.3015C20.8047 21.2523 20.9082 21.181 20.995 21.0918L22.803 19.2318C22.89 19.1426 22.9585 19.0372 23.0046 18.9215C23.0507 18.8058 23.0735 18.6821 23.0716 18.5576C23.0697 18.4331 23.0433 18.3102 22.9937 18.1959C22.9442 18.0816 22.8726 17.9783 22.783 17.8918C22.6939 17.8047 22.5885 17.7362 22.4728 17.69C22.3572 17.6438 22.2335 17.621 22.109 17.6228H22.107H22.108ZM25.086 17.6228C24.8343 17.6274 24.5948 17.7317 24.42 17.9128L22.61 19.7698C22.5232 19.8592 22.455 19.9648 22.4093 20.0807C22.3635 20.1965 22.3411 20.3202 22.3433 20.4448C22.3456 20.5693 22.3724 20.6922 22.4223 20.8063C22.4722 20.9204 22.5441 21.0236 22.634 21.1098C22.7231 21.1966 22.8285 21.2651 22.9441 21.3112C23.0597 21.3573 23.1833 21.3802 23.3077 21.3785C23.4322 21.3769 23.5551 21.3507 23.6694 21.3015C23.7837 21.2523 23.8872 21.181 23.974 21.0918L25.782 19.2318C25.8688 19.1425 25.9371 19.0369 25.9829 18.921C26.0287 18.8052 26.0512 18.6815 26.0491 18.557C26.047 18.4325 26.0202 18.3096 25.9704 18.1954C25.9207 18.0813 25.8488 17.9781 25.759 17.8918C25.6701 17.805 25.5651 17.7365 25.4498 17.6904C25.3344 17.6442 25.2112 17.6212 25.087 17.6228H25.085H25.086ZM28.066 17.6228C27.9413 17.6248 27.8183 17.6515 27.704 17.7013C27.5897 17.7511 27.4864 17.8229 27.4 17.9128L25.592 19.7698C25.5051 19.859 25.4366 19.9645 25.3906 20.0802C25.3446 20.1959 25.3219 20.3196 25.3239 20.4441C25.3258 20.5687 25.3524 20.6916 25.402 20.8058C25.4516 20.92 25.5233 21.0233 25.613 21.1098C25.7021 21.1966 25.8075 21.2651 25.9231 21.3112C26.0387 21.3573 26.1623 21.3802 26.2867 21.3785C26.4112 21.3769 26.5341 21.3507 26.6484 21.3015C26.7627 21.2523 26.8662 21.181 26.953 21.0918L28.762 19.2318C28.8488 19.1425 28.9172 19.037 28.9631 18.9212C29.0091 18.8054 29.0316 18.6817 29.0296 18.5572C29.0276 18.4327 29.0009 18.3098 28.9512 18.1956C28.9015 18.0814 28.8297 17.9781 28.74 17.8918C28.6509 17.8047 28.5455 17.7362 28.4298 17.69C28.3142 17.6438 28.1905 17.621 28.066 17.6228ZM31.045 17.6228C30.9203 17.6248 30.7973 17.6515 30.683 17.7013C30.5687 17.7511 30.4654 17.8229 30.379 17.9128L28.572 19.7698C28.485 19.8589 28.4165 19.9643 28.3704 20.08C28.3243 20.1957 28.3015 20.3194 28.3034 20.4439C28.3052 20.5685 28.3317 20.6914 28.3812 20.8057C28.4307 20.9199 28.5024 21.0233 28.592 21.1098C28.6811 21.1966 28.7865 21.2651 28.9021 21.3112C29.0177 21.3573 29.1413 21.3802 29.2657 21.3785C29.3902 21.3769 29.5131 21.3507 29.6274 21.3015C29.7417 21.2523 29.8452 21.181 29.932 21.0918L31.74 19.2318C31.827 19.1426 31.8955 19.0372 31.9416 18.9215C31.9877 18.8058 32.0105 18.6821 32.0086 18.5576C32.0067 18.4331 31.9803 18.3102 31.9307 18.1959C31.8812 18.0816 31.8096 17.9783 31.72 17.8918C31.631 17.8049 31.5258 17.7364 31.4103 17.6902C31.2948 17.644 31.1713 17.6211 31.047 17.6228H31.045ZM34.023 17.6228C33.7713 17.6274 33.5318 17.7317 33.357 17.9128L31.55 19.7698C31.4632 19.8591 31.3949 19.9647 31.3491 20.0805C31.3032 20.1963 31.2807 20.32 31.2828 20.4446C31.285 20.5691 31.3117 20.692 31.3615 20.8061C31.4113 20.9203 31.4832 21.0235 31.573 21.1098C31.6621 21.1966 31.7675 21.2651 31.8831 21.3112C31.9987 21.3573 32.1223 21.3802 32.2467 21.3785C32.3712 21.3769 32.4941 21.3507 32.6084 21.3015C32.7227 21.2523 32.8262 21.181 32.913 21.0918L34.722 19.2318C34.8087 19.1424 34.8769 19.0367 34.9227 18.9209C34.9684 18.8051 34.9908 18.6813 34.9886 18.5568C34.9864 18.4323 34.9596 18.3094 34.9097 18.1953C34.8598 18.0811 34.7879 17.978 34.698 17.8918C34.6091 17.805 34.5041 17.7365 34.3888 17.6904C34.2734 17.6442 34.1502 17.6212 34.026 17.6228H34.024H34.023ZM16.213 18.1028H16.215V18.1048C16.294 18.1088 16.375 18.1428 16.459 18.2108C16.866 18.5728 16.384 18.9958 16.209 19.1798L15.344 20.0838C14.737 20.7148 14.473 21.1418 14.049 20.7338C13.689 20.3608 14.005 20.1378 14.693 19.4388L15.559 18.5368C15.764 18.3358 15.977 18.0918 16.213 18.1038V18.1028ZM19.193 18.1028H19.195V18.1048C19.275 18.1088 19.355 18.1428 19.439 18.2108C19.846 18.5728 19.365 18.9958 19.189 19.1798L18.324 20.0838C17.717 20.7148 17.453 21.1418 17.029 20.7338C16.669 20.3608 16.986 20.1378 17.674 19.4388L18.539 18.5368C18.744 18.3358 18.957 18.0918 19.193 18.1038V18.1028ZM22.172 18.1028V18.1048C22.2631 18.1131 22.3493 18.1503 22.418 18.2108C22.825 18.5728 22.343 18.9958 22.168 19.1798L21.303 20.0838C20.695 20.7148 20.431 21.1418 20.008 20.7338C19.648 20.3608 19.964 20.1378 20.652 19.4388L21.518 18.5368C21.723 18.3358 21.936 18.0918 22.172 18.1038V18.1028ZM25.15 18.1028V18.1048C25.2415 18.1129 25.328 18.15 25.397 18.2108C25.803 18.5728 25.322 18.9958 25.147 19.1798L24.281 20.0838C23.674 20.7148 23.41 21.1418 22.986 20.7338C22.626 20.3608 22.943 20.1378 23.631 19.4388L24.496 18.5368C24.702 18.3358 24.914 18.0918 25.15 18.1038V18.1028ZM28.13 18.1028H28.133V18.1048C28.212 18.1088 28.293 18.1428 28.377 18.2108C28.784 18.5728 28.302 18.9958 28.127 19.1798L27.262 20.0838C26.654 20.7148 26.39 21.1418 25.967 20.7338C25.607 20.3608 25.923 20.1378 26.611 19.4388L27.477 18.5368C27.682 18.3358 27.895 18.0918 28.131 18.1038L28.13 18.1028ZM31.11 18.1028V18.1048C31.2008 18.1134 31.2865 18.1505 31.355 18.2108C31.762 18.5728 31.281 18.9958 31.105 19.1798L30.24 20.0838C29.633 20.7148 29.369 21.1418 28.945 20.7338C28.585 20.3608 28.902 20.1378 29.59 19.4388L30.455 18.5368C30.661 18.3358 30.873 18.0918 31.109 18.1038L31.11 18.1028ZM34.088 18.1028H34.09V18.1048C34.169 18.1088 34.25 18.1428 34.334 18.2108C34.741 18.5728 34.259 18.9958 34.084 19.1798L33.219 20.0838C32.611 20.7148 32.347 21.1418 31.924 20.7338C31.564 20.3608 31.88 20.1378 32.568 19.4388L33.434 18.5368C33.639 18.3358 33.852 18.0918 34.088 18.1038V18.1028ZM13.795 23.9798C13.7802 23.9799 13.7656 23.983 13.752 23.9888C13.7384 23.9946 13.726 24.003 13.7157 24.0136C13.7054 24.0242 13.6973 24.0368 13.6918 24.0505C13.6864 24.0643 13.6837 24.079 13.684 24.0938C13.684 24.1548 13.734 24.2058 13.794 24.2068C13.857 24.2068 13.907 24.1568 13.908 24.0938C13.9082 24.0788 13.9055 24.064 13.8999 24.0501C13.8944 24.0362 13.8861 24.0235 13.8755 24.0129C13.865 24.0023 13.8525 23.9939 13.8386 23.9882C13.8248 23.9825 13.8099 23.9796 13.795 23.9798ZM14.357 23.9798C14.3269 23.98 14.2982 23.9922 14.277 24.0135C14.2558 24.0349 14.244 24.0637 14.244 24.0938C14.244 24.1548 14.296 24.2068 14.357 24.2068C14.419 24.2068 14.468 24.1548 14.469 24.0938V24.0738C14.4651 24.0471 14.4515 24.0228 14.4309 24.0055C14.4102 23.9881 14.3839 23.979 14.357 23.9798ZM14.92 23.9798C14.905 23.9796 14.8902 23.9825 14.8763 23.9882C14.8625 23.9939 14.8499 24.0023 14.8394 24.0129C14.8289 24.0235 14.8206 24.0362 14.815 24.0501C14.8094 24.064 14.8067 24.0788 14.807 24.0938C14.807 24.1558 14.857 24.2078 14.92 24.2068C14.981 24.2068 15.03 24.1548 15.031 24.0938V24.0738C15.0271 24.0473 15.0137 24.0231 14.9932 24.0058C14.9728 23.9885 14.9468 23.9792 14.92 23.9798ZM15.482 23.9798C15.467 23.9796 15.4522 23.9825 15.4383 23.9882C15.4245 23.9939 15.4119 24.0023 15.4014 24.0129C15.3909 24.0235 15.3826 24.0362 15.377 24.0501C15.3714 24.064 15.3687 24.0788 15.369 24.0938C15.369 24.1558 15.42 24.2078 15.482 24.2068C15.544 24.2068 15.593 24.1548 15.594 24.0938V24.0858C15.5922 24.0573 15.5796 24.0306 15.5588 24.0111C15.538 23.9916 15.5105 23.9807 15.482 23.9808V23.9798ZM16.045 23.9798C16.03 23.9796 16.0152 23.9825 16.0013 23.9882C15.9875 23.9939 15.9749 24.0023 15.9644 24.0129C15.9539 24.0235 15.9456 24.0362 15.94 24.0501C15.9344 24.064 15.9317 24.0788 15.932 24.0938C15.932 24.1558 15.982 24.2078 16.045 24.2068C16.106 24.2068 16.155 24.1548 16.156 24.0938V24.0858C16.1542 24.0575 16.1418 24.0309 16.1212 24.0114C16.1006 23.9919 16.0733 23.981 16.045 23.9808V23.9798ZM16.607 23.9798C16.592 23.9796 16.5772 23.9825 16.5633 23.9882C16.5495 23.9939 16.5369 24.0023 16.5264 24.0129C16.5159 24.0235 16.5076 24.0362 16.502 24.0501C16.4964 24.064 16.4937 24.0788 16.494 24.0938C16.494 24.1558 16.545 24.2078 16.607 24.2068C16.669 24.2068 16.718 24.1548 16.719 24.0938V24.0858C16.7172 24.0573 16.7046 24.0306 16.6838 24.0111C16.663 23.9916 16.6355 23.9807 16.607 23.9808V23.9798ZM17.168 23.9798C17.1532 23.9799 17.1386 23.983 17.125 23.9888C17.1114 23.9946 17.099 24.003 17.0887 24.0136C17.0784 24.0242 17.0703 24.0368 17.0648 24.0505C17.0594 24.0643 17.0567 24.079 17.057 24.0938C17.057 24.1548 17.107 24.2068 17.168 24.2068C17.1979 24.2065 17.2265 24.1945 17.2476 24.1734C17.2687 24.1523 17.2807 24.1237 17.281 24.0938V24.0858C17.2792 24.0571 17.2665 24.0303 17.2454 24.0107C17.2244 23.9912 17.1967 23.9805 17.168 23.9808V23.9798ZM17.731 23.9798C17.7161 23.9798 17.7014 23.9827 17.6876 23.9885C17.6739 23.9942 17.6615 24.0027 17.6511 24.0133C17.6406 24.0239 17.6324 24.0365 17.6269 24.0503C17.6214 24.0641 17.6187 24.0789 17.619 24.0938C17.619 24.1548 17.669 24.2068 17.73 24.2068C17.76 24.2068 17.7889 24.1949 17.8102 24.1737C17.8316 24.1526 17.8437 24.1238 17.844 24.0938V24.0858C17.8422 24.0569 17.8293 24.0299 17.8081 24.0104C17.7868 23.9908 17.7589 23.9802 17.73 23.9808L17.731 23.9798ZM18.293 23.9798C18.2782 23.9799 18.2636 23.983 18.25 23.9888C18.2364 23.9946 18.224 24.003 18.2137 24.0136C18.2034 24.0242 18.1953 24.0368 18.1898 24.0505C18.1844 24.0643 18.1817 24.079 18.182 24.0938C18.182 24.1548 18.232 24.2068 18.293 24.2068C18.3229 24.2065 18.3515 24.1945 18.3726 24.1734C18.3937 24.1523 18.4057 24.1237 18.406 24.0938V24.0858C18.4042 24.0571 18.3915 24.0303 18.3704 24.0107C18.3494 23.9912 18.3217 23.9805 18.293 23.9808V23.9798ZM18.856 23.9798C18.8411 23.9798 18.8264 23.9827 18.8126 23.9885C18.7989 23.9942 18.7865 24.0027 18.7761 24.0133C18.7656 24.0239 18.7574 24.0365 18.7519 24.0503C18.7464 24.0641 18.7437 24.0789 18.744 24.0938C18.744 24.1548 18.794 24.2068 18.855 24.2068C18.917 24.2068 18.966 24.1548 18.967 24.0938V24.0738C18.9631 24.0473 18.9497 24.0231 18.9292 24.0058C18.9088 23.9885 18.8828 23.9792 18.856 23.9798ZM19.418 23.9798C19.403 23.9796 19.3882 23.9825 19.3743 23.9882C19.3605 23.9939 19.3479 24.0023 19.3374 24.0129C19.3269 24.0235 19.3186 24.0362 19.313 24.0501C19.3074 24.064 19.3047 24.0788 19.305 24.0938C19.305 24.1558 19.356 24.2078 19.418 24.2068C19.479 24.2068 19.528 24.1548 19.529 24.0938V24.0858C19.5272 24.0575 19.5148 24.0309 19.4942 24.0114C19.4736 23.9919 19.4463 23.981 19.418 23.9808V23.9798ZM19.981 23.9798C19.9659 23.9795 19.951 23.9823 19.937 23.9879C19.9231 23.9935 19.9104 24.0019 19.8998 24.0126C19.8891 24.0232 19.8807 24.0359 19.8751 24.0498C19.8695 24.0638 19.8667 24.0787 19.867 24.0938C19.867 24.1558 19.919 24.2078 19.98 24.2068C20.042 24.2068 20.091 24.1548 20.092 24.0938V24.0858C20.0902 24.0575 20.0778 24.0309 20.0572 24.0114C20.0366 23.9919 20.0093 23.981 19.981 23.9808V23.9798ZM20.543 23.9798C20.528 23.9796 20.5132 23.9825 20.4993 23.9882C20.4855 23.9939 20.4729 24.0023 20.4624 24.0129C20.4519 24.0235 20.4436 24.0362 20.438 24.0501C20.4324 24.064 20.4297 24.0788 20.43 24.0938C20.43 24.1558 20.481 24.2078 20.543 24.2068C20.604 24.2068 20.653 24.1548 20.654 24.0938V24.0858C20.6522 24.0575 20.6398 24.0309 20.6192 24.0114C20.5986 23.9919 20.5713 23.981 20.543 23.9808V23.9798ZM21.106 23.9798C21.0909 23.9795 21.076 23.9823 21.062 23.9879C21.0481 23.9935 21.0354 24.0019 21.0248 24.0126C21.0141 24.0232 21.0057 24.0359 21.0001 24.0498C20.9945 24.0638 20.9917 24.0787 20.992 24.0938C20.992 24.1558 21.044 24.2078 21.105 24.2068C21.167 24.2068 21.216 24.1548 21.217 24.0938V24.0858C21.2152 24.0575 21.2028 24.0309 21.1822 24.0114C21.1616 23.9919 21.1343 23.981 21.106 23.9808V23.9798ZM21.666 23.9798C21.6512 23.9799 21.6366 23.983 21.623 23.9888C21.6094 23.9946 21.597 24.003 21.5867 24.0136C21.5764 24.0242 21.5683 24.0368 21.5628 24.0505C21.5574 24.0643 21.5547 24.079 21.555 24.0938C21.555 24.1548 21.605 24.2068 21.666 24.2068C21.6959 24.2065 21.7245 24.1945 21.7456 24.1734C21.7667 24.1523 21.7787 24.1237 21.779 24.0938V24.0858C21.7772 24.0571 21.7645 24.0303 21.7434 24.0107C21.7224 23.9912 21.6947 23.9805 21.666 23.9808V23.9798ZM22.229 23.9798C22.2141 23.9798 22.1994 23.9827 22.1856 23.9885C22.1719 23.9942 22.1595 24.0027 22.1491 24.0133C22.1386 24.0239 22.1304 24.0365 22.1249 24.0503C22.1194 24.0641 22.1167 24.0789 22.117 24.0938C22.117 24.1548 22.167 24.2068 22.228 24.2068C22.258 24.2068 22.2869 24.1949 22.3082 24.1737C22.3296 24.1526 22.3417 24.1238 22.342 24.0938V24.0858C22.3402 24.0571 22.3275 24.0303 22.3064 24.0107C22.2854 23.9912 22.2577 23.9805 22.229 23.9808V23.9798ZM22.791 23.9798C22.7762 23.9799 22.7616 23.983 22.748 23.9888C22.7344 23.9946 22.722 24.003 22.7117 24.0136C22.7014 24.0242 22.6933 24.0368 22.6878 24.0505C22.6824 24.0643 22.6797 24.079 22.68 24.0938C22.68 24.1548 22.73 24.2058 22.791 24.2068C22.853 24.2068 22.904 24.1568 22.904 24.0938C22.9042 24.0788 22.9015 24.064 22.8959 24.0501C22.8904 24.0362 22.8821 24.0235 22.8715 24.0129C22.861 24.0023 22.8485 23.9939 22.8346 23.9882C22.8208 23.9825 22.8059 23.9796 22.791 23.9798ZM23.354 23.9798C23.3391 23.9798 23.3244 23.9827 23.3106 23.9885C23.2969 23.9942 23.2845 24.0027 23.2741 24.0133C23.2636 24.0239 23.2554 24.0365 23.2499 24.0503C23.2444 24.0641 23.2417 24.0789 23.242 24.0938C23.242 24.1548 23.292 24.2068 23.353 24.2068C23.3827 24.2063 23.411 24.1942 23.4319 24.173C23.4529 24.1519 23.4647 24.1235 23.465 24.0938V24.0738C23.4609 24.0474 23.4474 24.0233 23.427 24.0061C23.4066 23.9888 23.3807 23.9795 23.354 23.9798ZM23.916 23.9798C23.901 23.9796 23.8862 23.9825 23.8723 23.9882C23.8585 23.9939 23.8459 24.0023 23.8354 24.0129C23.8249 24.0235 23.8166 24.0362 23.811 24.0501C23.8054 24.064 23.8027 24.0788 23.803 24.0938C23.803 24.1558 23.854 24.2078 23.916 24.2068C23.977 24.2068 24.026 24.1548 24.027 24.0938V24.0738C24.0231 24.0473 24.0097 24.0231 23.9892 24.0058C23.9688 23.9885 23.9428 23.9792 23.916 23.9798ZM24.479 23.9798C24.4639 23.9795 24.449 23.9823 24.435 23.9879C24.4211 23.9935 24.4084 24.0019 24.3978 24.0126C24.3871 24.0232 24.3787 24.0359 24.3731 24.0498C24.3675 24.0638 24.3647 24.0787 24.365 24.0938C24.365 24.1558 24.417 24.2078 24.479 24.2068C24.539 24.2068 24.589 24.1548 24.589 24.0938V24.0858C24.5872 24.0576 24.5749 24.0312 24.5545 24.0117C24.5341 23.9923 24.5072 23.9812 24.479 23.9808V23.9798ZM25.041 23.9798C25.026 23.9796 25.0112 23.9825 24.9973 23.9882C24.9835 23.9939 24.9709 24.0023 24.9604 24.0129C24.9499 24.0235 24.9416 24.0362 24.936 24.0501C24.9304 24.064 24.9277 24.0788 24.928 24.0938C24.928 24.1558 24.979 24.2078 25.041 24.2068C25.102 24.2068 25.151 24.1548 25.152 24.0938V24.0858C25.1502 24.0575 25.1378 24.0309 25.1172 24.0114C25.0966 23.9919 25.0693 23.981 25.041 23.9808V23.9798ZM25.601 23.9798C25.5863 23.98 25.5718 23.9832 25.5583 23.9891C25.5448 23.9949 25.5326 24.0034 25.5224 24.014C25.5121 24.0246 25.5041 24.0371 25.4987 24.0508C25.4933 24.0644 25.4907 24.0791 25.491 24.0938C25.491 24.1548 25.541 24.2068 25.601 24.2068C25.631 24.2068 25.6599 24.1949 25.6812 24.1737C25.7026 24.1526 25.7147 24.1238 25.715 24.0938V24.0858C25.7132 24.0571 25.7005 24.0303 25.6794 24.0107C25.6584 23.9912 25.6307 23.9805 25.602 23.9808L25.601 23.9798ZM26.164 23.9798C26.1492 23.9799 26.1346 23.983 26.121 23.9888C26.1074 23.9946 26.095 24.003 26.0847 24.0136C26.0744 24.0242 26.0663 24.0368 26.0608 24.0505C26.0554 24.0643 26.0527 24.079 26.053 24.0938C26.053 24.1548 26.103 24.2068 26.164 24.2068C26.1939 24.2065 26.2225 24.1945 26.2436 24.1734C26.2647 24.1523 26.2767 24.1237 26.277 24.0938V24.0858C26.2752 24.0571 26.2625 24.0303 26.2414 24.0107C26.2204 23.9912 26.1927 23.9805 26.164 23.9808V23.9798ZM26.727 23.9798C26.7121 23.9798 26.6974 23.9827 26.6836 23.9885C26.6699 23.9942 26.6575 24.0027 26.6471 24.0133C26.6366 24.0239 26.6284 24.0365 26.6229 24.0503C26.6174 24.0641 26.6147 24.0789 26.615 24.0938C26.615 24.1548 26.665 24.2068 26.727 24.2068C26.7569 24.2065 26.7855 24.1945 26.8066 24.1734C26.8277 24.1523 26.8397 24.1237 26.84 24.0938V24.0858C26.8382 24.0571 26.8255 24.0303 26.8044 24.0107C26.7834 23.9912 26.7557 23.9805 26.727 23.9808V23.9798ZM27.289 23.9798C27.2742 23.9799 27.2596 23.983 27.246 23.9888C27.2324 23.9946 27.22 24.003 27.2097 24.0136C27.1994 24.0242 27.1913 24.0368 27.1858 24.0505C27.1804 24.0643 27.1777 24.079 27.178 24.0938C27.178 24.1548 27.228 24.2058 27.289 24.2068C27.351 24.2068 27.402 24.1568 27.402 24.0938C27.4022 24.0788 27.3995 24.064 27.3939 24.0501C27.3884 24.0362 27.3801 24.0235 27.3695 24.0129C27.359 24.0023 27.3464 23.9939 27.3326 23.9882C27.3188 23.9825 27.3039 23.9796 27.289 23.9798ZM27.852 23.9798C27.8371 23.9798 27.8224 23.9827 27.8086 23.9885C27.7949 23.9942 27.7825 24.0027 27.7721 24.0133C27.7616 24.0239 27.7534 24.0365 27.7479 24.0503C27.7424 24.0641 27.7397 24.0789 27.74 24.0938C27.74 24.1548 27.79 24.2068 27.852 24.2068C27.912 24.2068 27.962 24.1548 27.962 24.0938C27.964 24.0858 27.964 24.0818 27.962 24.0738C27.9581 24.0475 27.9448 24.0234 27.9246 24.0061C27.9044 23.9889 27.8786 23.9795 27.852 23.9798ZM28.414 23.9798C28.399 23.9796 28.3842 23.9825 28.3703 23.9882C28.3565 23.9939 28.3439 24.0023 28.3334 24.0129C28.3229 24.0235 28.3146 24.0362 28.309 24.0501C28.3034 24.064 28.3007 24.0788 28.301 24.0938C28.301 24.1558 28.352 24.2078 28.414 24.2068C28.475 24.2068 28.524 24.1548 28.525 24.0938V24.0858C28.5232 24.0576 28.5109 24.0312 28.4905 24.0117C28.4701 23.9923 28.4432 23.9812 28.415 23.9808L28.414 23.9798ZM28.977 23.9798C28.9619 23.9795 28.947 23.9823 28.933 23.9879C28.9191 23.9935 28.9064 24.0019 28.8958 24.0126C28.8851 24.0232 28.8767 24.0359 28.8711 24.0498C28.8655 24.0638 28.8627 24.0787 28.863 24.0938C28.863 24.1558 28.915 24.2078 28.977 24.2068C29.037 24.2068 29.087 24.1548 29.087 24.0938V24.0858C29.0852 24.0576 29.0729 24.0312 29.0525 24.0117C29.0321 23.9923 29.0052 23.9812 28.977 23.9808V23.9798ZM29.539 23.9798C29.524 23.9796 29.5092 23.9825 29.4953 23.9882C29.4815 23.9939 29.4689 24.0023 29.4584 24.0129C29.4479 24.0235 29.4396 24.0362 29.434 24.0501C29.4284 24.064 29.4257 24.0788 29.426 24.0938C29.426 24.1558 29.477 24.2078 29.539 24.2068C29.6 24.2068 29.649 24.1548 29.65 24.0938V24.0858C29.6482 24.0576 29.6359 24.0312 29.6155 24.0117C29.5951 23.9923 29.5682 23.9812 29.54 23.9808L29.539 23.9798ZM30.099 23.9798C30.0843 23.98 30.0698 23.9832 30.0563 23.9891C30.0428 23.9949 30.0306 24.0034 30.0204 24.014C30.0101 24.0246 30.0021 24.0371 29.9967 24.0508C29.9913 24.0644 29.9887 24.0791 29.989 24.0938C29.989 24.1548 30.038 24.2068 30.099 24.2068C30.129 24.2068 30.1579 24.1949 30.1792 24.1737C30.2006 24.1526 30.2127 24.1238 30.213 24.0938V24.0858C30.2112 24.0571 30.1985 24.0303 30.1774 24.0107C30.1564 23.9912 30.1287 23.9805 30.1 23.9808L30.099 23.9798ZM30.662 23.9798C30.6472 23.9799 30.6326 23.983 30.619 23.9888C30.6054 23.9946 30.593 24.003 30.5827 24.0136C30.5724 24.0242 30.5643 24.0368 30.5588 24.0505C30.5534 24.0643 30.5507 24.079 30.551 24.0938C30.551 24.1548 30.601 24.2068 30.662 24.2068C30.6919 24.2065 30.7205 24.1945 30.7416 24.1734C30.7627 24.1523 30.7747 24.1237 30.775 24.0938V24.0858C30.7732 24.0571 30.7605 24.0303 30.7394 24.0107C30.7184 23.9912 30.6907 23.9805 30.662 23.9808V23.9798ZM31.225 23.9798C31.2101 23.9798 31.1954 23.9827 31.1817 23.9885C31.1679 23.9942 31.1555 24.0027 31.1451 24.0133C31.1346 24.0239 31.1264 24.0365 31.1209 24.0503C31.1154 24.0641 31.1127 24.0789 31.113 24.0938C31.113 24.1548 31.163 24.2068 31.225 24.2068C31.2549 24.2065 31.2835 24.1945 31.3046 24.1734C31.3257 24.1523 31.3377 24.1237 31.338 24.0938V24.0858C31.3362 24.0571 31.3235 24.0303 31.3024 24.0107C31.2814 23.9912 31.2537 23.9805 31.225 23.9808V23.9798ZM31.787 23.9798C31.7722 23.9799 31.7576 23.983 31.744 23.9888C31.7304 23.9946 31.718 24.003 31.7077 24.0136C31.6974 24.0242 31.6893 24.0368 31.6838 24.0505C31.6784 24.0643 31.6757 24.079 31.676 24.0938C31.676 24.1548 31.726 24.2068 31.787 24.2068C31.848 24.2068 31.897 24.1548 31.898 24.0938V24.0738C31.8941 24.0475 31.8808 24.0234 31.8606 24.0061C31.8404 23.9889 31.8146 23.9795 31.788 23.9798H31.787ZM32.35 23.9798C32.3349 23.9795 32.32 23.9823 32.306 23.9879C32.2921 23.9935 32.2794 24.0019 32.2688 24.0126C32.2581 24.0232 32.2497 24.0359 32.2441 24.0498C32.2385 24.0638 32.2357 24.0787 32.236 24.0938C32.236 24.1558 32.288 24.2078 32.35 24.2068C32.41 24.2068 32.46 24.1548 32.46 24.0938C32.462 24.0858 32.462 24.0818 32.46 24.0738C32.4561 24.0475 32.4428 24.0234 32.4226 24.0061C32.4024 23.9889 32.3766 23.9795 32.35 23.9798ZM32.912 23.9798C32.897 23.9796 32.8822 23.9825 32.8683 23.9882C32.8545 23.9939 32.8419 24.0023 32.8314 24.0129C32.8209 24.0235 32.8126 24.0362 32.807 24.0501C32.8014 24.064 32.7987 24.0788 32.799 24.0938C32.799 24.1558 32.85 24.2078 32.912 24.2068C32.973 24.2068 33.022 24.1548 33.023 24.0938V24.0858C33.0212 24.0576 33.0089 24.0312 32.9885 24.0117C32.9681 23.9923 32.9412 23.9812 32.913 23.9808L32.912 23.9798ZM33.475 23.9798C33.4599 23.9795 33.445 23.9823 33.431 23.9879C33.4171 23.9935 33.4044 24.0019 33.3938 24.0126C33.3831 24.0232 33.3747 24.0359 33.3691 24.0498C33.3635 24.0638 33.3607 24.0787 33.361 24.0938C33.361 24.1558 33.413 24.2078 33.475 24.2068C33.5043 24.2057 33.5322 24.1934 33.5527 24.1724C33.5732 24.1513 33.5847 24.1232 33.585 24.0938V24.0858C33.5832 24.0576 33.5709 24.0312 33.5505 24.0117C33.5301 23.9923 33.5032 23.9812 33.475 23.9808V23.9798ZM34.037 23.9798C34.022 23.9796 34.0072 23.9825 33.9933 23.9882C33.9795 23.9939 33.9669 24.0023 33.9564 24.0129C33.9459 24.0235 33.9376 24.0362 33.932 24.0501C33.9264 24.064 33.9237 24.0788 33.924 24.0938C33.924 24.1558 33.975 24.2078 34.037 24.2068C34.0665 24.206 34.0946 24.1938 34.1153 24.1727C34.136 24.1516 34.1477 24.1233 34.148 24.0938V24.0858C34.1462 24.0576 34.1339 24.0312 34.1135 24.0117C34.0931 23.9923 34.0662 23.9812 34.038 23.9808L34.037 23.9798ZM34.597 23.9798C34.5823 23.98 34.5678 23.9832 34.5543 23.9891C34.5408 23.9949 34.5286 24.0034 34.5184 24.014C34.5081 24.0246 34.5001 24.0371 34.4947 24.0508C34.4893 24.0644 34.4867 24.0791 34.487 24.0938C34.487 24.1548 34.536 24.2068 34.597 24.2068C34.627 24.2068 34.6559 24.1949 34.6772 24.1737C34.6986 24.1526 34.7107 24.1238 34.711 24.0938V24.0858C34.7092 24.0571 34.6965 24.0303 34.6754 24.0107C34.6544 23.9912 34.6267 23.9805 34.598 23.9808L34.597 23.9798ZM31.045 26.8088V26.8108C30.9204 26.8127 30.7974 26.8392 30.6831 26.8888C30.5689 26.9384 30.4655 27.0101 30.379 27.0998L28.572 28.9568C28.485 29.0459 28.4165 29.1513 28.3704 29.267C28.3243 29.3827 28.3015 29.5064 28.3034 29.6309C28.3052 29.7555 28.3317 29.8784 28.3812 29.9927C28.4307 30.1069 28.5024 30.2103 28.592 30.2968C28.6811 30.3836 28.7865 30.4521 28.9021 30.4982C29.0177 30.5443 29.1413 30.5672 29.2657 30.5655C29.3902 30.5639 29.5131 30.5377 29.6274 30.4885C29.7417 30.4393 29.8452 30.368 29.932 30.2788L31.742 28.4178C31.8289 28.3286 31.8973 28.2231 31.9434 28.1074C31.9894 27.9916 32.012 27.8679 32.0101 27.7434C32.0081 27.6189 31.9816 27.496 31.932 27.3817C31.8824 27.2675 31.8107 27.1642 31.721 27.0778C31.632 26.9906 31.5266 26.9218 31.4109 26.8755C31.2953 26.8291 31.1716 26.8061 31.047 26.8078H31.045V26.8088ZM16.148 26.8108C15.8965 26.8151 15.657 26.9191 15.482 27.0998L13.674 28.9568C13.5872 29.0461 13.5189 29.1517 13.4731 29.2675C13.4272 29.3833 13.4047 29.507 13.4068 29.6316C13.409 29.7561 13.4357 29.879 13.4855 29.9931C13.5353 30.1073 13.6072 30.2105 13.697 30.2968C13.7861 30.3836 13.8915 30.4521 14.0071 30.4982C14.1227 30.5443 14.2463 30.5672 14.3707 30.5655C14.4952 30.5639 14.6181 30.5377 14.7324 30.4885C14.8467 30.4393 14.9502 30.368 15.037 30.2788L16.846 28.4188C16.9326 28.3294 17.0006 28.2238 17.0463 28.1081C17.092 27.9923 17.1143 27.8687 17.1121 27.7443C17.1099 27.6199 17.0831 27.4971 17.0333 27.3831C16.9835 27.2691 16.9117 27.166 16.822 27.0798C16.7332 26.9928 16.6282 26.9242 16.5129 26.8778C16.3976 26.8315 16.2742 26.8084 16.15 26.8098H16.148V26.8108ZM19.128 26.8108C19.0036 26.8128 18.8808 26.8394 18.7667 26.889C18.6526 26.9386 18.5494 27.0102 18.463 27.0998L16.654 28.9568C16.5671 29.046 16.4988 29.1516 16.4528 29.2673C16.4069 29.3831 16.3843 29.5068 16.3864 29.6313C16.3884 29.7559 16.415 29.8788 16.4647 29.993C16.5144 30.1072 16.5862 30.2104 16.676 30.2968C16.7651 30.3836 16.8705 30.4521 16.9861 30.4982C17.1017 30.5443 17.2253 30.5672 17.3497 30.5655C17.4742 30.5639 17.5971 30.5377 17.7114 30.4885C17.8257 30.4393 17.9292 30.368 18.016 30.2788L19.824 28.4188C19.9108 28.3296 19.9791 28.2242 20.025 28.1085C20.0709 27.9929 20.0935 27.8693 20.0916 27.7449C20.0896 27.6205 20.0631 27.4977 20.0136 27.3836C19.9641 27.2694 19.8925 27.1662 19.803 27.0798C19.714 26.9926 19.6086 26.9238 19.4929 26.8775C19.3773 26.8311 19.2536 26.8081 19.129 26.8098L19.128 26.8108ZM22.108 26.8108C21.9832 26.8126 21.8601 26.8391 21.7456 26.8886C21.6311 26.9382 21.5276 27.01 21.441 27.0998L19.635 28.9568C19.548 29.0459 19.4795 29.1513 19.4334 29.267C19.3873 29.3827 19.3645 29.5064 19.3664 29.6309C19.3682 29.7555 19.3947 29.8784 19.4442 29.9927C19.4937 30.1069 19.5654 30.2103 19.655 30.2968C19.7441 30.3836 19.8495 30.4521 19.9651 30.4982C20.0807 30.5443 20.2043 30.5672 20.3287 30.5655C20.4532 30.5639 20.5761 30.5377 20.6904 30.4885C20.8047 30.4393 20.9082 30.368 20.995 30.2788L22.803 28.4188C22.8898 28.3297 22.9582 28.2243 23.0042 28.1087C23.0502 27.9931 23.073 27.8695 23.0711 27.7451C23.0692 27.6207 23.0428 27.4979 22.9934 27.3837C22.9439 27.2695 22.8724 27.1662 22.783 27.0798C22.694 26.9926 22.5886 26.9238 22.4729 26.8775C22.3573 26.8311 22.2336 26.8081 22.109 26.8098H22.107L22.108 26.8108ZM25.086 26.8108C24.8345 26.8151 24.595 26.9191 24.42 27.0998L22.611 28.9568C22.5242 29.0462 22.456 29.1518 22.4103 29.2677C22.3645 29.3835 22.3421 29.5072 22.3443 29.6318C22.3466 29.7563 22.3734 29.8792 22.4233 29.9933C22.4732 30.1074 22.5451 30.2106 22.635 30.2968C22.7241 30.3836 22.8295 30.4521 22.9451 30.4982C23.0607 30.5443 23.1843 30.5672 23.3087 30.5655C23.4332 30.5639 23.5561 30.5377 23.6704 30.4885C23.7847 30.4393 23.8882 30.368 23.975 30.2788L25.783 28.4188C25.8696 28.3295 25.9378 28.2239 25.9835 28.1082C26.0293 27.9925 26.0517 27.8689 26.0496 27.7445C26.0475 27.6201 26.0208 27.4973 25.9711 27.3833C25.9214 27.2692 25.8496 27.166 25.76 27.0798C25.6712 26.9928 25.5662 26.9242 25.4509 26.8778C25.3356 26.8315 25.2122 26.8084 25.088 26.8098H25.086V26.8108ZM28.066 26.8108C27.9414 26.8127 27.8184 26.8392 27.7041 26.8888C27.5899 26.9384 27.4865 27.0101 27.4 27.0998L25.592 28.9568C25.5051 29.046 25.4366 29.1515 25.3906 29.2672C25.3446 29.3829 25.3219 29.5066 25.3239 29.6311C25.3258 29.7557 25.3524 29.8786 25.402 29.9928C25.4516 30.107 25.5233 30.2104 25.613 30.2968C25.7021 30.3836 25.8075 30.4521 25.9231 30.4982C26.0387 30.5443 26.1623 30.5672 26.2867 30.5655C26.4112 30.5639 26.5341 30.5377 26.6484 30.4885C26.7627 30.4393 26.8662 30.368 26.953 30.2788L28.762 28.4188C28.8487 28.3295 28.9169 28.2241 28.9628 28.1084C29.0086 27.9927 29.0311 27.8691 29.0291 27.7447C29.0271 27.6203 29.0005 27.4975 28.9508 27.3834C28.9012 27.2693 28.8296 27.1661 28.74 27.0798C28.651 26.9926 28.5456 26.9238 28.4299 26.8775C28.3143 26.8311 28.1906 26.8081 28.066 26.8098V26.8108ZM34.023 26.8108C33.7715 26.8151 33.532 26.9191 33.357 27.0998L31.549 28.9568C31.4622 29.0461 31.3939 29.1517 31.3481 29.2675C31.3022 29.3833 31.2797 29.507 31.2818 29.6316C31.284 29.7561 31.3107 29.879 31.3605 29.9931C31.4103 30.1073 31.4822 30.2105 31.572 30.2968C31.6611 30.3836 31.7665 30.4521 31.8821 30.4982C31.9977 30.5443 32.1213 30.5672 32.2457 30.5655C32.3702 30.5639 32.4931 30.5377 32.6074 30.4885C32.7217 30.4393 32.8252 30.368 32.912 30.2788L34.721 28.4188C34.8076 28.3294 34.8756 28.2238 34.9213 28.1081C34.967 27.9923 34.9893 27.8687 34.9871 27.7443C34.9849 27.6199 34.9581 27.4971 34.9083 27.3831C34.8585 27.2691 34.7867 27.166 34.697 27.0798C34.6082 26.9928 34.5032 26.9242 34.3879 26.8778C34.2726 26.8315 34.1492 26.8084 34.025 26.8098H34.023V26.8108ZM16.213 27.2908H16.215V27.2928C16.294 27.2968 16.375 27.3308 16.459 27.3978C16.866 27.7598 16.384 28.1838 16.209 28.3678L15.344 29.2718C14.737 29.9018 14.473 30.3298 14.049 29.9218C13.689 29.5488 14.005 29.3258 14.693 28.6268L15.559 27.7248C15.764 27.5228 15.977 27.2788 16.213 27.2908ZM19.193 27.2908H19.195V27.2928C19.275 27.2968 19.355 27.3308 19.439 27.3978C19.846 27.7598 19.365 28.1838 19.189 28.3678L18.324 29.2718C17.717 29.9018 17.453 30.3298 17.029 29.9218C16.669 29.5488 16.986 29.3258 17.674 28.6268L18.539 27.7248C18.744 27.5228 18.957 27.2788 19.193 27.2908ZM22.172 27.2908V27.2928C22.263 27.3009 22.3491 27.3376 22.418 27.3978C22.825 27.7598 22.343 28.1838 22.168 28.3678L21.303 29.2718C20.695 29.9018 20.431 30.3298 20.008 29.9218C19.648 29.5488 19.964 29.3258 20.652 28.6268L21.518 27.7248C21.723 27.5228 21.936 27.2788 22.172 27.2908ZM25.15 27.2908V27.2928C25.2414 27.3006 25.3279 27.3374 25.397 27.3978C25.803 27.7598 25.322 28.1838 25.147 28.3678L24.281 29.2718C23.674 29.9018 23.41 30.3298 22.986 29.9218C22.626 29.5488 22.943 29.3258 23.631 28.6268L24.496 27.7248C24.702 27.5228 24.914 27.2788 25.15 27.2908ZM28.13 27.2908H28.133V27.2928C28.212 27.2968 28.293 27.3308 28.377 27.3978C28.784 27.7598 28.302 28.1838 28.127 28.3678L27.262 29.2718C26.654 29.9018 26.39 30.3298 25.967 29.9218C25.607 29.5488 25.923 29.3258 26.611 28.6268L27.477 27.7248C27.682 27.5228 27.895 27.2788 28.131 27.2908H28.13ZM31.11 27.2908V27.2928C31.2007 27.3011 31.2864 27.3378 31.355 27.3978C31.762 27.7598 31.281 28.1838 31.105 28.3678L30.24 29.2718C29.633 29.9018 29.369 30.3298 28.945 29.9218C28.585 29.5488 28.902 29.3258 29.59 28.6268L30.455 27.7248C30.661 27.5228 30.873 27.2788 31.109 27.2908H31.11ZM34.088 27.2908H34.09V27.2928C34.169 27.2968 34.25 27.3308 34.334 27.3978C34.741 27.7598 34.259 28.1838 34.084 28.3678L33.219 29.2718C32.611 29.9018 32.347 30.3298 31.924 29.9218C31.564 29.5488 31.88 29.3258 32.568 28.6268L33.434 27.7248C33.639 27.5228 33.852 27.2788 34.088 27.2908ZM13.795 32.9808C13.7803 32.9809 13.7657 32.9839 13.7522 32.9897C13.7387 32.9954 13.7264 33.0038 13.7161 33.0143C13.7058 33.0248 13.6976 33.0372 13.6921 33.0508C13.6866 33.0645 13.6838 33.0791 13.684 33.0938C13.684 33.1548 13.734 33.2058 13.794 33.2068C13.857 33.2068 13.907 33.1568 13.908 33.0938C13.9082 33.0788 13.9055 33.064 13.8999 33.0501C13.8944 33.0362 13.8861 33.0235 13.8755 33.0129C13.865 33.0023 13.8525 32.9939 13.8386 32.9882C13.8248 32.9825 13.8099 32.9796 13.795 32.9798V32.9808ZM14.357 32.9808C14.3271 32.981 14.2985 32.993 14.2774 33.0142C14.2562 33.0353 14.2442 33.0639 14.244 33.0938C14.244 33.1548 14.296 33.2068 14.357 33.2068C14.419 33.2068 14.468 33.1548 14.469 33.0938V33.0738C14.4648 33.0473 14.4512 33.0232 14.4306 33.0061C14.4099 32.989 14.3838 32.98 14.357 32.9808ZM14.92 32.9808C14.9051 32.9806 14.8903 32.9835 14.8766 32.9891C14.8628 32.9947 14.8503 33.0031 14.8398 33.0136C14.8293 33.0241 14.8209 33.0366 14.8153 33.0504C14.8097 33.0641 14.8068 33.0789 14.807 33.0938C14.807 33.1558 14.857 33.2078 14.92 33.2068C14.981 33.2068 15.03 33.1548 15.031 33.0938V33.0738C15.0269 33.0475 15.0134 33.0235 14.9929 33.0064C14.9725 32.9893 14.9466 32.9802 14.92 32.9808ZM15.482 32.9808C15.4671 32.9806 15.4523 32.9835 15.4386 32.9891C15.4248 32.9947 15.4123 33.0031 15.4018 33.0136C15.3913 33.0241 15.3829 33.0366 15.3773 33.0504C15.3717 33.0641 15.3688 33.0789 15.369 33.0938C15.369 33.1558 15.42 33.2078 15.482 33.2068C15.544 33.2068 15.593 33.1548 15.594 33.0938V33.0858C15.5922 33.0573 15.5796 33.0306 15.5588 33.0111C15.538 32.9916 15.5105 32.9807 15.482 32.9808ZM16.045 32.9808C16.0301 32.9806 16.0153 32.9835 16.0016 32.9891C15.9878 32.9947 15.9753 33.0031 15.9648 33.0136C15.9543 33.0241 15.9459 33.0366 15.9403 33.0504C15.9347 33.0641 15.9318 33.0789 15.932 33.0938C15.932 33.1558 15.982 33.2078 16.045 33.2068C16.106 33.2068 16.155 33.1548 16.156 33.0938V33.0858C16.1542 33.0575 16.1418 33.0309 16.1212 33.0114C16.1006 32.9919 16.0733 32.981 16.045 32.9808ZM16.607 32.9808C16.5921 32.9806 16.5773 32.9835 16.5636 32.9891C16.5498 32.9947 16.5373 33.0031 16.5268 33.0136C16.5163 33.0241 16.5079 33.0366 16.5023 33.0504C16.4967 33.0641 16.4938 33.0789 16.494 33.0938C16.494 33.1558 16.545 33.2078 16.607 33.2068C16.669 33.2068 16.718 33.1548 16.719 33.0938V33.0858C16.7172 33.0573 16.7046 33.0306 16.6838 33.0111C16.663 32.9916 16.6355 32.9807 16.607 32.9808ZM17.168 32.9808C17.1533 32.9809 17.1387 32.9839 17.1252 32.9897C17.1117 32.9954 17.0994 33.0038 17.0891 33.0143C17.0788 33.0248 17.0706 33.0372 17.0651 33.0508C17.0596 33.0645 17.0568 33.0791 17.057 33.0938C17.057 33.1548 17.107 33.2068 17.168 33.2068C17.1979 33.2065 17.2265 33.1945 17.2476 33.1734C17.2687 33.1523 17.2807 33.1237 17.281 33.0938V33.0858C17.2792 33.0571 17.2665 33.0303 17.2454 33.0107C17.2244 32.9912 17.1967 32.9805 17.168 32.9808ZM17.731 32.9808C17.7162 32.9808 17.7015 32.9837 17.6879 32.9894C17.6742 32.9951 17.6618 33.0034 17.6514 33.0139C17.641 33.0244 17.6328 33.0369 17.6272 33.0506C17.6216 33.0643 17.6188 33.079 17.619 33.0938C17.619 33.1548 17.669 33.2068 17.73 33.2068C17.76 33.2068 17.7889 33.1949 17.8102 33.1737C17.8316 33.1526 17.8437 33.1238 17.844 33.0938V33.0858C17.8422 33.0569 17.8293 33.0299 17.8081 33.0104C17.7868 32.9908 17.7589 32.9802 17.73 32.9808H17.731ZM18.293 32.9808C18.2783 32.9809 18.2637 32.9839 18.2502 32.9897C18.2367 32.9954 18.2244 33.0038 18.2141 33.0143C18.2038 33.0248 18.1956 33.0372 18.1901 33.0508C18.1846 33.0645 18.1818 33.0791 18.182 33.0938C18.182 33.1548 18.232 33.2068 18.293 33.2068C18.3229 33.2065 18.3515 33.1945 18.3726 33.1734C18.3937 33.1523 18.4057 33.1237 18.406 33.0938V33.0858C18.4042 33.0571 18.3915 33.0303 18.3704 33.0107C18.3494 32.9912 18.3217 32.9805 18.293 32.9808ZM18.856 32.9808C18.8412 32.9808 18.8265 32.9837 18.8129 32.9894C18.7992 32.9951 18.7868 33.0034 18.7764 33.0139C18.766 33.0244 18.7578 33.0369 18.7522 33.0506C18.7466 33.0643 18.7438 33.079 18.744 33.0938C18.744 33.1548 18.794 33.2068 18.855 33.2068C18.917 33.2068 18.966 33.1548 18.967 33.0938V33.0738C18.9629 33.0475 18.9494 33.0235 18.9289 33.0064C18.9085 32.9893 18.8826 32.9802 18.856 32.9808ZM19.418 32.9808C19.4031 32.9806 19.3883 32.9835 19.3746 32.9891C19.3608 32.9947 19.3483 33.0031 19.3378 33.0136C19.3273 33.0241 19.3189 33.0366 19.3133 33.0504C19.3077 33.0641 19.3048 33.0789 19.305 33.0938C19.305 33.1558 19.356 33.2078 19.418 33.2068C19.479 33.2068 19.528 33.1548 19.529 33.0938V33.0858C19.5272 33.0575 19.5148 33.0309 19.4942 33.0114C19.4736 32.9919 19.4463 32.981 19.418 32.9808ZM19.981 32.9808C19.966 32.9805 19.9512 32.9832 19.9373 32.9888C19.9234 32.9944 19.9108 33.0027 19.9001 33.0132C19.8895 33.0237 19.8811 33.0363 19.8754 33.0501C19.8697 33.064 19.8668 33.0788 19.867 33.0938C19.867 33.1558 19.919 33.2078 19.98 33.2068C20.042 33.2068 20.091 33.1548 20.092 33.0938V33.0858C20.0902 33.0575 20.0778 33.0309 20.0572 33.0114C20.0366 32.9919 20.0093 32.981 19.981 32.9808ZM20.543 32.9808C20.5281 32.9806 20.5133 32.9835 20.4996 32.9891C20.4858 32.9947 20.4733 33.0031 20.4628 33.0136C20.4523 33.0241 20.4439 33.0366 20.4383 33.0504C20.4327 33.0641 20.4298 33.0789 20.43 33.0938C20.43 33.1558 20.481 33.2078 20.543 33.2068C20.604 33.2068 20.653 33.1548 20.654 33.0938V33.0858C20.6522 33.0575 20.6398 33.0309 20.6192 33.0114C20.5986 32.9919 20.5713 32.981 20.543 32.9808ZM21.106 32.9808C21.091 32.9805 21.0762 32.9832 21.0623 32.9888C21.0484 32.9944 21.0358 33.0027 21.0251 33.0132C21.0145 33.0237 21.0061 33.0363 21.0004 33.0501C20.9947 33.064 20.9918 33.0788 20.992 33.0938C20.992 33.1558 21.044 33.2078 21.105 33.2068C21.167 33.2068 21.216 33.1548 21.217 33.0938V33.0858C21.2152 33.0575 21.2028 33.0309 21.1822 33.0114C21.1616 32.9919 21.1343 32.981 21.106 32.9808ZM21.666 32.9808C21.6513 32.9809 21.6367 32.9839 21.6232 32.9897C21.6097 32.9954 21.5974 33.0038 21.5871 33.0143C21.5768 33.0248 21.5686 33.0372 21.5631 33.0508C21.5576 33.0645 21.5548 33.0791 21.555 33.0938C21.555 33.1548 21.605 33.2068 21.666 33.2068C21.6959 33.2065 21.7245 33.1945 21.7456 33.1734C21.7667 33.1523 21.7787 33.1237 21.779 33.0938V33.0858C21.7772 33.0571 21.7645 33.0303 21.7434 33.0107C21.7224 32.9912 21.6947 32.9805 21.666 32.9808ZM22.229 32.9808C22.2142 32.9808 22.1995 32.9837 22.1859 32.9894C22.1722 32.9951 22.1598 33.0034 22.1494 33.0139C22.139 33.0244 22.1308 33.0369 22.1252 33.0506C22.1196 33.0643 22.1168 33.079 22.117 33.0938C22.117 33.1548 22.167 33.2068 22.228 33.2068C22.258 33.2068 22.2869 33.1949 22.3082 33.1737C22.3296 33.1526 22.3417 33.1238 22.342 33.0938V33.0858C22.3402 33.0571 22.3275 33.0303 22.3064 33.0107C22.2854 32.9912 22.2577 32.9805 22.229 32.9808ZM22.791 32.9808C22.7763 32.9809 22.7617 32.9839 22.7482 32.9897C22.7347 32.9954 22.7224 33.0038 22.7121 33.0143C22.7018 33.0248 22.6936 33.0372 22.6881 33.0508C22.6826 33.0645 22.6798 33.0791 22.68 33.0938C22.68 33.1548 22.73 33.2058 22.791 33.2068C22.853 33.2068 22.904 33.1568 22.904 33.0938C22.9042 33.0788 22.9015 33.064 22.8959 33.0501C22.8904 33.0362 22.8821 33.0235 22.8715 33.0129C22.861 33.0023 22.8485 32.9939 22.8346 32.9882C22.8208 32.9825 22.8059 32.9796 22.791 32.9798V32.9808ZM23.354 32.9808C23.3392 32.9808 23.3245 32.9837 23.3109 32.9894C23.2972 32.9951 23.2848 33.0034 23.2744 33.0139C23.264 33.0244 23.2558 33.0369 23.2502 33.0506C23.2446 33.0643 23.2418 33.079 23.242 33.0938C23.242 33.1548 23.292 33.2068 23.353 33.2068C23.3827 33.2063 23.411 33.1941 23.4319 33.173C23.4529 33.1519 23.4647 33.1235 23.465 33.0938V33.0738C23.4607 33.0476 23.4471 33.0237 23.4267 33.0067C23.4064 32.9896 23.3805 32.9804 23.354 32.9808ZM23.916 32.9808C23.9011 32.9806 23.8863 32.9835 23.8726 32.9891C23.8588 32.9947 23.8463 33.0031 23.8358 33.0136C23.8253 33.0241 23.8169 33.0366 23.8113 33.0504C23.8057 33.0641 23.8028 33.0789 23.803 33.0938C23.803 33.1558 23.854 33.2078 23.916 33.2068C23.977 33.2068 24.026 33.1548 24.027 33.0938V33.0738C24.0229 33.0475 24.0094 33.0235 23.9889 33.0064C23.9685 32.9893 23.9426 32.9802 23.916 32.9808ZM24.479 32.9808C24.464 32.9805 24.4492 32.9832 24.4353 32.9888C24.4214 32.9944 24.4088 33.0027 24.3981 33.0132C24.3875 33.0237 24.3791 33.0363 24.3734 33.0501C24.3677 33.064 24.3648 33.0788 24.365 33.0938C24.365 33.1558 24.417 33.2078 24.479 33.2068C24.539 33.2068 24.589 33.1548 24.589 33.0938V33.0858C24.5872 33.0576 24.5749 33.0312 24.5545 33.0117C24.5341 32.9923 24.5072 32.9812 24.479 32.9808ZM25.041 32.9808C25.0261 32.9806 25.0113 32.9835 24.9976 32.9891C24.9838 32.9947 24.9713 33.0031 24.9608 33.0136C24.9503 33.0241 24.9419 33.0366 24.9363 33.0504C24.9307 33.0641 24.9278 33.0789 24.928 33.0938C24.928 33.1558 24.979 33.2078 25.041 33.2068C25.102 33.2068 25.151 33.1548 25.152 33.0938V33.0858C25.1502 33.0575 25.1378 33.0309 25.1172 33.0114C25.0966 32.9919 25.0693 32.981 25.041 32.9808ZM25.601 32.9808C25.5714 32.9813 25.5433 32.9935 25.5227 33.0146C25.5021 33.0358 25.4907 33.0642 25.491 33.0938C25.491 33.1548 25.541 33.2068 25.601 33.2068C25.631 33.2068 25.6599 33.1949 25.6812 33.1737C25.7026 33.1526 25.7147 33.1238 25.715 33.0938V33.0858C25.7132 33.0571 25.7005 33.0303 25.6794 33.0107C25.6584 32.9912 25.6307 32.9805 25.602 32.9808H25.601ZM26.164 32.9808C26.1493 32.9809 26.1347 32.9839 26.1212 32.9897C26.1077 32.9954 26.0954 33.0038 26.0851 33.0143C26.0748 33.0248 26.0666 33.0372 26.0611 33.0508C26.0556 33.0645 26.0528 33.0791 26.053 33.0938C26.053 33.1548 26.103 33.2068 26.164 33.2068C26.1939 33.2065 26.2225 33.1945 26.2436 33.1734C26.2647 33.1523 26.2767 33.1237 26.277 33.0938V33.0858C26.2752 33.0571 26.2625 33.0303 26.2414 33.0107C26.2204 32.9912 26.1927 32.9805 26.164 32.9808ZM26.727 32.9808C26.7122 32.9808 26.6975 32.9837 26.6839 32.9894C26.6702 32.9951 26.6578 33.0034 26.6474 33.0139C26.637 33.0244 26.6288 33.0369 26.6232 33.0506C26.6176 33.0643 26.6148 33.079 26.615 33.0938C26.615 33.1548 26.665 33.2068 26.727 33.2068C26.7569 33.2065 26.7855 33.1945 26.8066 33.1734C26.8277 33.1523 26.8397 33.1237 26.84 33.0938V33.0858C26.8382 33.0571 26.8255 33.0303 26.8044 33.0107C26.7834 32.9912 26.7557 32.9805 26.727 32.9808ZM27.289 32.9808C27.2743 32.9809 27.2597 32.9839 27.2462 32.9897C27.2327 32.9954 27.2204 33.0038 27.2101 33.0143C27.1998 33.0248 27.1916 33.0372 27.1861 33.0508C27.1806 33.0645 27.1778 33.0791 27.178 33.0938C27.178 33.1548 27.228 33.2058 27.289 33.2068C27.351 33.2068 27.402 33.1568 27.402 33.0938C27.4022 33.0788 27.3995 33.064 27.3939 33.0501C27.3884 33.0362 27.3801 33.0235 27.3695 33.0129C27.359 33.0023 27.3464 32.9939 27.3326 32.9882C27.3188 32.9825 27.3039 32.9796 27.289 32.9798V32.9808ZM27.852 32.9808C27.8372 32.9808 27.8225 32.9837 27.8089 32.9894C27.7952 32.9951 27.7828 33.0034 27.7724 33.0139C27.762 33.0244 27.7538 33.0369 27.7482 33.0506C27.7426 33.0643 27.7398 33.079 27.74 33.0938C27.74 33.1548 27.79 33.2068 27.852 33.2068C27.912 33.2068 27.962 33.1548 27.962 33.0938C27.964 33.0858 27.964 33.0818 27.962 33.0738C27.9579 33.0476 27.9445 33.0238 27.9243 33.0068C27.9041 32.9897 27.8784 32.9805 27.852 32.9808ZM28.414 32.9808C28.3991 32.9806 28.3843 32.9835 28.3706 32.9891C28.3568 32.9947 28.3443 33.0031 28.3338 33.0136C28.3233 33.0241 28.3149 33.0366 28.3093 33.0504C28.3037 33.0641 28.3008 33.0789 28.301 33.0938C28.301 33.1558 28.352 33.2078 28.414 33.2068C28.475 33.2068 28.524 33.1548 28.525 33.0938V33.0858C28.5232 33.0576 28.5109 33.0312 28.4905 33.0117C28.4701 32.9923 28.4432 32.9812 28.415 32.9808H28.414ZM28.977 32.9808C28.962 32.9805 28.9472 32.9832 28.9333 32.9888C28.9194 32.9944 28.9068 33.0027 28.8961 33.0132C28.8855 33.0237 28.8771 33.0363 28.8714 33.0501C28.8657 33.064 28.8628 33.0788 28.863 33.0938C28.863 33.1558 28.915 33.2078 28.977 33.2068C29.037 33.2068 29.087 33.1548 29.087 33.0938V33.0858C29.0852 33.0576 29.0729 33.0312 29.0525 33.0117C29.0321 32.9923 29.0052 32.9812 28.977 32.9808ZM29.539 32.9808C29.5241 32.9806 29.5093 32.9835 29.4956 32.9891C29.4818 32.9947 29.4693 33.0031 29.4588 33.0136C29.4483 33.0241 29.4399 33.0366 29.4343 33.0504C29.4287 33.0641 29.4258 33.0789 29.426 33.0938C29.426 33.1558 29.477 33.2078 29.539 33.2068C29.6 33.2068 29.649 33.1548 29.65 33.0938V33.0858C29.6482 33.0576 29.6359 33.0312 29.6155 33.0117C29.5951 32.9923 29.5682 32.9812 29.54 32.9808H29.539ZM30.099 32.9808C30.0694 32.9813 30.0413 32.9935 30.0207 33.0146C30.0001 33.0358 29.9887 33.0642 29.989 33.0938C29.989 33.1548 30.038 33.2068 30.099 33.2068C30.129 33.2068 30.1579 33.1949 30.1792 33.1737C30.2006 33.1526 30.2127 33.1238 30.213 33.0938V33.0858C30.2112 33.0571 30.1985 33.0303 30.1774 33.0107C30.1564 32.9912 30.1287 32.9805 30.1 32.9808H30.099ZM30.662 32.9808C30.6473 32.9809 30.6327 32.9839 30.6192 32.9897C30.6057 32.9954 30.5934 33.0038 30.5831 33.0143C30.5728 33.0248 30.5646 33.0372 30.5591 33.0508C30.5536 33.0645 30.5508 33.0791 30.551 33.0938C30.551 33.1548 30.601 33.2068 30.662 33.2068C30.6919 33.2065 30.7205 33.1945 30.7416 33.1734C30.7627 33.1523 30.7747 33.1237 30.775 33.0938V33.0858C30.7732 33.0571 30.7605 33.0303 30.7394 33.0107C30.7184 32.9912 30.6907 32.9805 30.662 32.9808ZM31.225 32.9808C31.2102 32.9808 31.1955 32.9837 31.1819 32.9894C31.1682 32.9951 31.1558 33.0034 31.1454 33.0139C31.135 33.0244 31.1268 33.0369 31.1212 33.0506C31.1156 33.0643 31.1128 33.079 31.113 33.0938C31.113 33.1548 31.163 33.2068 31.225 33.2068C31.2549 33.2065 31.2835 33.1945 31.3046 33.1734C31.3257 33.1523 31.3377 33.1237 31.338 33.0938V33.0858C31.3362 33.0571 31.3235 33.0303 31.3024 33.0107C31.2814 32.9912 31.2537 32.9805 31.225 32.9808ZM31.787 32.9808C31.7723 32.9809 31.7577 32.9839 31.7442 32.9897C31.7307 32.9954 31.7184 33.0038 31.7081 33.0143C31.6978 33.0248 31.6896 33.0372 31.6841 33.0508C31.6786 33.0645 31.6758 33.0791 31.676 33.0938C31.676 33.1548 31.726 33.2068 31.787 33.2068C31.848 33.2068 31.897 33.1548 31.898 33.0938V33.0738C31.8939 33.0476 31.8805 33.0238 31.8603 33.0068C31.8401 32.9897 31.8144 32.9805 31.788 32.9808H31.787ZM32.35 32.9808C32.335 32.9805 32.3202 32.9832 32.3063 32.9888C32.2924 32.9944 32.2798 33.0027 32.2691 33.0132C32.2585 33.0237 32.2501 33.0363 32.2444 33.0501C32.2387 33.064 32.2358 33.0788 32.236 33.0938C32.236 33.1558 32.288 33.2078 32.35 33.2068C32.41 33.2068 32.46 33.1548 32.46 33.0938C32.462 33.0858 32.462 33.0818 32.46 33.0738C32.4559 33.0476 32.4425 33.0238 32.4223 33.0068C32.4021 32.9897 32.3764 32.9805 32.35 32.9808ZM32.912 32.9808C32.8971 32.9806 32.8823 32.9835 32.8686 32.9891C32.8548 32.9947 32.8423 33.0031 32.8318 33.0136C32.8213 33.0241 32.8129 33.0366 32.8073 33.0504C32.8017 33.0641 32.7988 33.0789 32.799 33.0938C32.799 33.1558 32.85 33.2078 32.912 33.2068C32.973 33.2068 33.022 33.1548 33.023 33.0938V33.0858C33.0212 33.0576 33.0089 33.0312 32.9885 33.0117C32.9681 32.9923 32.9412 32.9812 32.913 32.9808H32.912ZM33.475 32.9808C33.46 32.9805 33.4452 32.9832 33.4313 32.9888C33.4174 32.9944 33.4048 33.0027 33.3941 33.0132C33.3835 33.0237 33.3751 33.0363 33.3694 33.0501C33.3637 33.064 33.3608 33.0788 33.361 33.0938C33.361 33.1558 33.413 33.2078 33.475 33.2068C33.5043 33.2057 33.5322 33.1934 33.5527 33.1724C33.5732 33.1513 33.5847 33.1232 33.585 33.0938V33.0858C33.5832 33.0576 33.5709 33.0312 33.5505 33.0117C33.5301 32.9923 33.5032 32.9812 33.475 32.9808ZM34.037 32.9808C34.0221 32.9806 34.0073 32.9835 33.9936 32.9891C33.9798 32.9947 33.9673 33.0031 33.9568 33.0136C33.9463 33.0241 33.9379 33.0366 33.9323 33.0504C33.9267 33.0641 33.9238 33.0789 33.924 33.0938C33.924 33.1558 33.975 33.2078 34.037 33.2068C34.0665 33.206 34.0946 33.1938 34.1153 33.1727C34.136 33.1516 34.1477 33.1233 34.148 33.0938V33.0858C34.1462 33.0576 34.1339 33.0312 34.1135 33.0117C34.0931 32.9923 34.0662 32.9812 34.038 32.9808H34.037ZM34.597 32.9808C34.5674 32.9813 34.5393 32.9935 34.5187 33.0146C34.4981 33.0358 34.4867 33.0642 34.487 33.0938C34.487 33.1548 34.536 33.2068 34.597 33.2068C34.627 33.2068 34.6559 33.1949 34.6772 33.1737C34.6986 33.1526 34.7107 33.1238 34.711 33.0938V33.0858C34.7092 33.0571 34.6965 33.0303 34.6754 33.0107C34.6544 32.9912 34.6267 32.9805 34.598 32.9808H34.597ZM16.148 35.9978C15.8963 36.0024 15.6568 36.1067 15.482 36.2878L13.674 38.1448C13.5872 38.2341 13.5189 38.3397 13.4731 38.4555C13.4272 38.5713 13.4047 38.695 13.4068 38.8196C13.409 38.9441 13.4357 39.067 13.4855 39.1811C13.5353 39.2953 13.6072 39.3985 13.697 39.4848C13.7861 39.5717 13.8915 39.6401 14.0071 39.6862C14.1227 39.7323 14.2463 39.7552 14.3707 39.7536C14.4952 39.7519 14.6181 39.7257 14.7324 39.6765C14.8467 39.6273 14.9502 39.556 15.037 39.4668L16.846 37.6068C16.9327 37.5174 17.0009 37.4117 17.0467 37.2959C17.0924 37.1801 17.1148 37.0563 17.1126 36.9318C17.1104 36.8073 17.0836 36.6844 17.0337 36.5703C16.9838 36.4561 16.9119 36.353 16.822 36.2668C16.7331 36.18 16.6281 36.1115 16.5128 36.0654C16.3974 36.0192 16.2742 35.9963 16.15 35.9978H16.148ZM19.128 35.9978C19.0035 36 18.8807 36.0267 18.7666 36.0765C18.6525 36.1263 18.5493 36.1981 18.463 36.2878L16.654 38.1448C16.5671 38.234 16.4988 38.3396 16.4528 38.4553C16.4069 38.5711 16.3843 38.6948 16.3864 38.8194C16.3884 38.9439 16.415 39.0668 16.4647 39.181C16.5144 39.2952 16.5862 39.3984 16.676 39.4848C16.7651 39.5717 16.8705 39.6401 16.9861 39.6862C17.1017 39.7323 17.2253 39.7552 17.3497 39.7536C17.4742 39.7519 17.5971 39.7257 17.7114 39.6765C17.8257 39.6273 17.9292 39.556 18.016 39.4668L19.824 37.6068C19.9109 37.5176 19.9793 37.4121 20.0254 37.2964C20.0714 37.1806 20.094 37.0569 20.0921 36.9324C20.0901 36.8079 20.0636 36.685 20.014 36.5707C19.9644 36.4565 19.8927 36.3532 19.803 36.2668C19.7139 36.1797 19.6085 36.1112 19.4928 36.065C19.3772 36.0188 19.2535 35.996 19.129 35.9978H19.128ZM22.108 35.9978C21.9832 35.9997 21.86 36.0263 21.7455 36.0761C21.631 36.1259 21.5275 36.1978 21.441 36.2878L19.635 38.1448C19.548 38.2339 19.4795 38.3393 19.4334 38.455C19.3873 38.5707 19.3645 38.6944 19.3664 38.8189C19.3682 38.9435 19.3947 39.0664 19.4442 39.1807C19.4937 39.2949 19.5654 39.3983 19.655 39.4848C19.7441 39.5717 19.8495 39.6401 19.9651 39.6862C20.0807 39.7323 20.2043 39.7552 20.3287 39.7536C20.4532 39.7519 20.5761 39.7257 20.6904 39.6765C20.8047 39.6273 20.9082 39.556 20.995 39.4668L22.803 37.6068C22.89 37.5176 22.9585 37.4122 23.0046 37.2965C23.0507 37.1808 23.0735 37.0571 23.0716 36.9326C23.0697 36.8081 23.0433 36.6852 22.9937 36.5709C22.9442 36.4566 22.8726 36.3533 22.783 36.2668C22.6939 36.1797 22.5885 36.1112 22.4728 36.065C22.3572 36.0188 22.2335 35.996 22.109 35.9978H22.107H22.108ZM25.086 35.9978C24.8343 36.0024 24.5948 36.1067 24.42 36.2878L22.611 38.1448C22.5242 38.2342 22.456 38.3398 22.4103 38.4557C22.3645 38.5715 22.3421 38.6952 22.3443 38.8198C22.3466 38.9443 22.3734 39.0672 22.4233 39.1813C22.4732 39.2954 22.5451 39.3986 22.635 39.4848C22.7241 39.5717 22.8295 39.6401 22.9451 39.6862C23.0607 39.7323 23.1843 39.7552 23.3087 39.7536C23.4332 39.7519 23.5561 39.7257 23.6704 39.6765C23.7847 39.6273 23.8882 39.556 23.975 39.4668L25.783 37.6068C25.8698 37.5175 25.9381 37.4119 25.9839 37.2961C26.0297 37.1802 26.0522 37.0565 26.0501 36.932C26.048 36.8075 26.0212 36.6846 25.9714 36.5704C25.9217 36.4563 25.8498 36.3531 25.76 36.2668C25.6711 36.18 25.5661 36.1115 25.4508 36.0654C25.3354 36.0192 25.2122 35.9963 25.088 35.9978H25.086ZM28.066 35.9978C27.9413 35.9998 27.8183 36.0265 27.704 36.0763C27.5897 36.1261 27.4864 36.1979 27.4 36.2878L25.592 38.1448C25.5051 38.234 25.4366 38.3395 25.3906 38.4552C25.3446 38.5709 25.3219 38.6946 25.3239 38.8191C25.3258 38.9437 25.3524 39.0666 25.402 39.1808C25.4516 39.2951 25.5233 39.3983 25.613 39.4848C25.7021 39.5717 25.8075 39.6401 25.9231 39.6862C26.0387 39.7323 26.1623 39.7552 26.2867 39.7536C26.4112 39.7519 26.5341 39.7257 26.6484 39.6765C26.7627 39.6273 26.8662 39.556 26.953 39.4668L28.762 37.6068C28.8488 37.5175 28.9172 37.412 28.9631 37.2962C29.0091 37.1804 29.0316 37.0567 29.0296 36.9322C29.0276 36.8077 29.0009 36.6848 28.9512 36.5706C28.9015 36.4564 28.8297 36.3531 28.74 36.2668C28.6509 36.1797 28.5455 36.1112 28.4298 36.065C28.3142 36.0188 28.1905 35.996 28.066 35.9978ZM31.045 35.9978C30.9203 35.9998 30.7973 36.0265 30.683 36.0763C30.5687 36.1261 30.4654 36.1979 30.379 36.2878L28.572 38.1448C28.485 38.2339 28.4165 38.3393 28.3704 38.455C28.3243 38.5707 28.3015 38.6944 28.3034 38.8189C28.3052 38.9435 28.3317 39.0664 28.3812 39.1807C28.4307 39.2949 28.5024 39.3983 28.592 39.4848C28.6811 39.5717 28.7865 39.6401 28.9021 39.6862C29.0177 39.7323 29.1413 39.7552 29.2657 39.7536C29.3902 39.7519 29.5131 39.7257 29.6274 39.6765C29.7417 39.6273 29.8452 39.556 29.932 39.4668L31.74 37.6068C31.827 37.5176 31.8955 37.4122 31.9416 37.2965C31.9877 37.1808 32.0105 37.0571 32.0086 36.9326C32.0067 36.8081 31.9803 36.6852 31.9307 36.5709C31.8812 36.4566 31.8096 36.3533 31.72 36.2668C31.631 36.1799 31.5258 36.1113 31.4103 36.0652C31.2948 36.019 31.1713 35.9961 31.047 35.9978H31.045ZM34.023 35.9978C33.7713 36.0024 33.5318 36.1067 33.357 36.2878L31.549 38.1448C31.4622 38.2341 31.3939 38.3397 31.3481 38.4555C31.3022 38.5713 31.2797 38.695 31.2818 38.8196C31.284 38.9441 31.3107 39.067 31.3605 39.1811C31.4103 39.2953 31.4822 39.3985 31.572 39.4848C31.6611 39.5717 31.7665 39.6401 31.8821 39.6862C31.9977 39.7323 32.1213 39.7552 32.2457 39.7536C32.3702 39.7519 32.4931 39.7257 32.6074 39.6765C32.7217 39.6273 32.8252 39.556 32.912 39.4668L34.721 37.6068C34.8077 37.5174 34.8759 37.4117 34.9217 37.2959C34.9674 37.1801 34.9898 37.0563 34.9876 36.9318C34.9854 36.8073 34.9586 36.6844 34.9087 36.5703C34.8588 36.4561 34.7869 36.353 34.697 36.2668C34.6081 36.18 34.5031 36.1115 34.3878 36.0654C34.2724 36.0192 34.1492 35.9963 34.025 35.9978H34.023ZM16.213 36.4778H16.215V36.4798C16.294 36.4838 16.375 36.5178 16.459 36.5858C16.866 36.9478 16.384 37.3708 16.209 37.5548L15.344 38.4588C14.737 39.0898 14.473 39.5168 14.049 39.1088C13.689 38.7358 14.005 38.5128 14.693 37.8138L15.559 36.9118C15.764 36.7108 15.977 36.4668 16.213 36.4778ZM19.193 36.4778H19.195V36.4798C19.275 36.4838 19.355 36.5178 19.439 36.5858C19.846 36.9478 19.365 37.3708 19.189 37.5548L18.324 38.4588C17.717 39.0898 17.453 39.5168 17.029 39.1088C16.669 38.7358 16.986 38.5128 17.674 37.8138L18.539 36.9118C18.744 36.7108 18.957 36.4668 19.193 36.4778ZM22.172 36.4778V36.4798C22.2631 36.4882 22.3493 36.5253 22.418 36.5858C22.825 36.9478 22.343 37.3708 22.168 37.5548L21.303 38.4588C20.695 39.0898 20.431 39.5168 20.008 39.1088C19.648 38.7358 19.964 38.5128 20.652 37.8138L21.518 36.9118C21.723 36.7108 21.936 36.4668 22.172 36.4778ZM25.15 36.4778V36.4798C25.2415 36.4879 25.328 36.525 25.397 36.5858C25.803 36.9478 25.322 37.3708 25.147 37.5548L24.281 38.4588C23.674 39.0898 23.41 39.5168 22.986 39.1088C22.626 38.7358 22.943 38.5128 23.631 37.8138L24.496 36.9118C24.702 36.7108 24.914 36.4668 25.15 36.4778ZM28.13 36.4778H28.133V36.4798C28.212 36.4838 28.293 36.5178 28.377 36.5858C28.784 36.9478 28.302 37.3708 28.127 37.5548L27.262 38.4588C26.654 39.0898 26.39 39.5168 25.967 39.1088C25.607 38.7358 25.923 38.5128 26.611 37.8138L27.477 36.9118C27.682 36.7108 27.895 36.4668 28.131 36.4778H28.13ZM31.11 36.4778V36.4798C31.2008 36.4884 31.2865 36.5255 31.355 36.5858C31.762 36.9478 31.281 37.3708 31.105 37.5548L30.24 38.4588C29.633 39.0898 29.369 39.5168 28.945 39.1088C28.585 38.7358 28.902 38.5128 29.59 37.8138L30.455 36.9118C30.661 36.7108 30.873 36.4668 31.109 36.4778H31.11ZM34.088 36.4778H34.09V36.4798C34.169 36.4838 34.25 36.5178 34.334 36.5858C34.741 36.9478 34.259 37.3708 34.084 37.5548L33.219 38.4588C32.611 39.0898 32.347 39.5168 31.924 39.1088C31.564 38.7358 31.88 38.5128 32.568 37.8138L33.434 36.9118C33.639 36.7108 33.852 36.4668 34.088 36.4778Z" fill="#333333"/>
</svg>
