<svg width="48" height="48" viewBox="0 0 48 48" fill="none" xmlns="http://www.w3.org/2000/svg">
<g clip-path="url(#clip0)">
<path fill-rule="evenodd" clip-rule="evenodd" d="M-0.0117188 0.0371094V48.0371H47.9883V0.0371094H-0.0117188ZM23.9258 5.45117L23.9277 5.45312C24.2107 5.45312 24.4806 5.50777 24.7266 5.60547H24.7285C25.4645 5.89876 25.9805 6.58412 25.9805 7.38281C25.9805 7.56551 25.9446 7.74226 25.8926 7.91406C25.8836 7.94196 25.8723 7.96859 25.8613 7.99609C25.8043 8.15539 25.7279 8.30531 25.6289 8.44531H29.1973L31.5215 8.44141C34.3094 8.42551 35.6871 10.1449 35.7051 12.5879L35.709 13.0117L35.7363 16.7617V16.7656V16.8867C35.5143 17.8857 35.3562 18.9017 35.2402 19.9277C35.2042 20.2617 35.1715 20.5956 35.1465 20.9316C35.1225 21.2256 35.1019 21.5204 35.0859 21.8164C35.0129 23.3134 35.0287 24.8304 35.1387 26.3594H35.1289C35.2429 28.0194 35.45 29.6912 35.748 31.3672L35.7363 34.377C35.7293 36.6729 33.8385 38.3281 31.5215 38.3281H29.1426V38.3242H26.7773V39.1055V39.2305C26.7773 40.1655 26.2753 40.4805 25.5273 40.4805H24.8574V42.791V42.916H23.1074V42.791V40.4805H22.5098C21.8168 40.4805 21.2598 40.0115 21.2598 39.2305V39.1055V38.3242H18.8945V38.3281H16.4297C13.8527 38.3281 12.3612 36.8339 12.2402 34.168L12.2324 31.3672C12.5774 29.5462 12.7682 27.9004 12.8652 26.3594H12.8555C12.9735 24.5944 12.9508 22.9887 12.8418 21.4707C12.8158 21.1327 12.7811 20.8027 12.7461 20.4727C12.7231 20.2367 12.6989 20.0015 12.6719 19.7695C12.5519 18.7845 12.4014 17.8277 12.2324 16.8867V16.7617V15.6895L12.2344 13.0117V12.6992C12.2374 9.81096 14.1423 8.4489 16.6133 8.4375L18.7266 8.44531H22.2266C22.1256 8.30361 22.0463 8.15173 21.9883 7.99023C21.9803 7.96723 21.9709 7.94507 21.9629 7.92187C21.9079 7.74718 21.8711 7.56686 21.8711 7.38086C21.8711 6.31517 22.7908 5.45117 23.9258 5.45117ZM23.9004 6.20312C23.2274 6.20312 22.6836 6.72078 22.6836 7.35937C22.6826 7.86687 23.032 8.31515 23.543 8.46484H24.2539C24.7679 8.31785 25.1201 7.86887 25.1211 7.35937C25.1211 6.72078 24.5734 6.20312 23.9004 6.20312ZM16.9355 9.36914V9.37109C15.8276 9.35509 14.8914 9.71061 14.2344 10.4082C14.0714 10.5832 13.9239 10.7801 13.7969 10.9961V10.998C13.6699 11.215 13.5606 11.45 13.4746 11.707V11.709C13.3876 11.966 13.3242 12.244 13.2812 12.541V12.543C13.2403 12.831 13.2216 13.1389 13.2246 13.4629L13.2891 16.9316V16.9336C13.4351 17.8606 13.5869 18.7972 13.7109 19.7832V19.7852C13.7729 20.2781 13.8271 20.7846 13.8711 21.3066V21.3086C13.9151 21.8306 13.9497 22.3697 13.9687 22.9297V22.9316C13.9698 22.9706 13.9677 23.0147 13.9687 23.0547V23.0566C13.9837 23.5796 13.9906 24.1157 13.9766 24.6797V24.6816V24.6914C13.9756 24.7304 13.9776 24.7657 13.9766 24.8047V24.8066C13.9616 25.4146 13.9261 26.0489 13.8691 26.7129V26.7148C13.8121 27.3798 13.734 28.0757 13.627 28.8066V28.8086C13.52 29.5396 13.3847 30.3043 13.2207 31.1113L13.2305 33.5176V33.5195C13.3775 34.7675 13.3714 35.1858 14.1504 36.2578C14.1984 36.3188 14.2352 36.3529 14.2852 36.4199V36.4219C14.2862 36.4239 14.3072 36.4487 14.3242 36.4687C14.3352 36.4807 14.3445 36.491 14.3555 36.502H14.3594C14.6924 36.8409 15.1625 37.0536 15.6895 37.1836C15.7705 37.2036 15.8565 37.2106 15.9395 37.2266C16.1364 37.2646 16.3331 37.3042 16.5371 37.3242C16.5381 37.3242 16.54 37.3232 16.541 37.3242C16.598 37.3292 16.6559 37.3261 16.7129 37.3301C16.9409 37.3471 17.1715 37.3623 17.3965 37.3633L21.3594 37.3594L26.3594 37.3516C27.7564 37.3586 29.0367 37.3402 30.3867 37.3672C33.3847 37.4272 34.7855 35.7108 34.8125 33.9668L34.8066 31.1113C34.4096 28.7874 34.1044 26.5604 34.0664 24.1914C34.0664 24.1624 34.0694 24.1325 34.0684 24.1035C34.0614 23.5205 34.0706 22.9263 34.0996 22.3223C34.1686 20.6453 34.3747 18.8806 34.8027 16.9336V16.9316L34.791 13.6035C34.813 11.2295 34.1369 9.40889 31.3359 9.37109L25.6484 9.39453L22.0977 9.37109L16.9355 9.36914ZM23.3125 15.125H24.707L26.8691 20.9043V20.9668H26.8926L27.4395 22.4277H25.9219L25.4355 21.166H22.6406L22.1426 22.4277H20.5937L23.3125 15.125ZM24.0215 17.293L23.541 18.6543L23.1367 19.7266L24.9258 19.7285L24.0215 17.293ZM27.8945 18.5742H27.9004H31.2148V19.4922L31.209 19.9941L30.7363 19.9961H29.7656V19.9941H29.3125V19.9961H28.8262H27.8984V19.9941H27.8965V19.5L27.8945 18.5742ZM15.6562 24.7344H32.4043V24.8594V25.8828V26.0078H15.6562V25.8828V24.8594V24.7344ZM28.2461 27.7852C29.7731 27.8052 30.4551 28.3053 30.9961 28.6562C31.4911 28.9762 32.8165 30.2413 33.3145 31.1133L33.3125 33.5156C33.1885 34.8776 32.176 36.3392 29.959 36.4062H26.1504H21.4805H17.6719C15.7859 36.4062 14.7088 34.8914 14.7168 32.9824L14.7246 31.1348C20.1065 30.8908 21.543 29.6286 23.959 28.8086C24.79 28.5266 26.1931 27.9826 27.5371 27.8086C27.7921 27.7886 28.0281 27.7832 28.2461 27.7852Z" fill="#333333"/>
</g>
<defs>
<clipPath id="clip0">
<rect width="48" height="48" fill="white"/>
</clipPath>
</defs>
</svg>
