<svg width="48" height="48" viewBox="0 0 48 48" fill="none" xmlns="http://www.w3.org/2000/svg">
<g clip-path="url(#clip0)">
<path fill-rule="evenodd" clip-rule="evenodd" d="M-0.230469 -0.179688V47.8203H47.7695V-0.179688H-0.230469ZM23.7051 5.10547L23.707 5.11719C23.992 5.11719 24.2608 5.17319 24.5078 5.27148H24.5098C24.6748 5.33758 24.8248 5.42885 24.9648 5.53125C24.9948 5.55355 25.0237 5.57691 25.0527 5.59961C25.1867 5.70921 25.3102 5.8281 25.4102 5.9668C25.4112 5.9678 25.4111 5.9696 25.4121 5.9707C25.5081 6.1038 25.5787 6.25245 25.6367 6.40625C25.6547 6.45275 25.6696 6.49888 25.6836 6.54687C25.7266 6.69777 25.7548 6.85428 25.7578 7.01758C25.7578 7.02888 25.7637 7.03548 25.7637 7.04687C25.7637 7.06347 25.7559 7.07474 25.7559 7.08984C25.7519 7.25344 25.7218 7.41181 25.6758 7.56641C25.6748 7.57021 25.6748 7.57432 25.6738 7.57812C25.6648 7.60612 25.6545 7.63376 25.6445 7.66016C25.6415 7.66776 25.6358 7.67599 25.6328 7.68359C25.5788 7.82839 25.507 7.96495 25.418 8.09375C25.415 8.09755 25.4122 8.10362 25.4102 8.10742H29.1816V8.10937L31.3047 8.10547C34.0917 8.08947 35.4683 9.80868 35.4863 12.252L35.5195 16.5508C34.4955 21.1527 34.6493 26.0863 35.5293 31.0312L35.5195 34.043C35.5115 36.3389 33.6207 37.9941 31.3047 37.9941H28.9238V37.9883H26.5605V38.8945C26.5605 39.8295 26.0575 40.1445 25.3105 40.1445H24.6406V42.582H22.8906V42.5742H22.8887V40.1426H22.291C21.856 40.1426 21.4759 39.956 21.252 39.625C21.208 39.561 21.1697 39.493 21.1387 39.418C21.1377 39.417 21.1367 39.4161 21.1367 39.4141C21.1057 39.3391 21.0834 39.2559 21.0664 39.1699C21.0494 39.0809 21.0391 38.9867 21.0391 38.8867V37.9863H18.6758V37.9941H16.2109C13.635 37.9941 12.1425 36.5 12.0215 33.834L12.0137 31.0312C13.1677 24.9233 12.7447 20.6217 12.0137 16.5508L12.0156 12.3633C12.0186 9.47592 13.9236 8.11286 16.3945 8.10156L18.1914 8.10937H22.0078C22.0058 8.10177 22.003 8.09755 22 8.09375C21.906 7.96005 21.8314 7.81721 21.7754 7.66602C21.7744 7.66222 21.7705 7.6581 21.7695 7.6543C21.7605 7.6312 21.7521 7.60864 21.7441 7.58594C21.7431 7.58214 21.7432 7.57742 21.7422 7.57422C21.6892 7.40282 21.6533 7.22547 21.6523 7.04297C21.6523 7.03917 21.6504 7.03786 21.6504 7.03516C21.6504 5.96947 22.5701 5.10547 23.7051 5.10547ZM23.6836 5.86523C23.5235 5.86523 23.3651 5.89513 23.2172 5.95323C23.0693 6.01134 22.935 6.0965 22.8218 6.20387C22.7086 6.31124 22.6188 6.43871 22.5576 6.579C22.4964 6.71928 22.4648 6.86964 22.4648 7.02148C22.4647 7.2687 22.5481 7.50946 22.7027 7.70842C22.8574 7.90738 23.0752 8.05406 23.3242 8.12695H24.0352C24.2856 8.05538 24.5051 7.90925 24.6613 7.71018C24.8175 7.5111 24.902 7.26964 24.9023 7.02148C24.9024 6.86964 24.8708 6.71928 24.8096 6.579C24.7483 6.43871 24.6586 6.31124 24.5454 6.20387C24.4322 6.0965 24.2979 6.01134 24.15 5.95323C24.0021 5.89513 23.8436 5.86523 23.6836 5.86523ZM16.7168 9.03125V9.03516C15.6098 9.01916 14.6716 9.37663 14.0156 10.0742C13.8516 10.2492 13.7051 10.4442 13.5781 10.6602V10.6621C13.4511 10.8781 13.3419 11.1141 13.2559 11.3711V11.373C13.1699 11.63 13.1045 11.9081 13.0625 12.2051V12.207C13.0195 12.504 12.9989 12.8203 13.0039 13.1562L13.0703 16.7207V16.7227C13.2163 17.6466 13.3672 18.5844 13.4902 19.5684C13.4912 19.5714 13.4922 19.5722 13.4922 19.5742V19.5762C13.5542 20.0692 13.6083 20.5737 13.6523 21.0957V21.0977C13.6973 21.6196 13.732 22.1588 13.75 22.7188V22.7207C13.769 23.2807 13.7728 23.8608 13.7578 24.4688V24.4707C13.7428 25.0787 13.7074 25.713 13.6504 26.377V26.3789C13.5944 27.0439 13.5152 27.7397 13.4082 28.4707V28.4727C13.3022 29.2036 13.167 29.9684 13.002 30.7754L13.0137 33.1816V33.1836C13.1517 34.3596 13.1761 34.8158 13.8281 35.7598C13.8711 35.8218 13.8963 35.8705 13.9453 35.9375C13.9793 35.9785 14.0109 36.0146 14.0449 36.0586C14.0829 36.1036 14.1221 36.1465 14.1641 36.1875C14.2301 36.2525 14.301 36.3122 14.377 36.3672C14.402 36.3842 14.4271 36.4029 14.4531 36.4219C14.5291 36.4729 14.6074 36.5195 14.6914 36.5625C14.7154 36.5735 14.7416 36.5847 14.7676 36.5957C14.9666 36.6917 15.1861 36.7672 15.4141 36.8262C15.9691 36.9672 16.5878 37.0166 17.1758 37.0176L21.1406 37.0137L26.1406 37.0059C27.5366 37.0139 28.817 36.9945 30.166 37.0215C33.164 37.0815 34.5804 35.2869 34.6074 33.543L34.5859 30.7656C34.3959 29.6506 34.2257 28.5589 34.0957 27.4629C34.0307 26.9139 33.9756 26.3626 33.9336 25.8086C33.9016 25.3916 33.8851 24.9699 33.8691 24.5469C33.8641 24.4029 33.8507 24.2622 33.8477 24.1172C33.7917 21.8482 33.98 19.4529 34.582 16.7109L34.5703 13.2578C34.5733 12.9608 34.565 12.6754 34.543 12.3984C34.521 12.1234 34.4865 11.8594 34.4355 11.6094C34.4345 11.6054 34.4336 11.6026 34.4336 11.5996C34.3816 11.3496 34.3126 11.1155 34.2266 10.8945C33.7876 9.77804 32.8682 9.0559 31.1172 9.0332L25.4316 9.05664L21.8789 9.0332L16.7168 9.03125ZM20.8789 14.8203H23.4355C24.6015 14.8073 26.0157 14.9317 26.1387 16.8457C26.1177 17.4447 26.0573 18.0027 25.4453 18.3867C25.9123 18.4497 26.2977 19.1851 26.3047 20.0371C26.3047 20.7481 26.0808 21.2883 25.6328 21.6543C25.1848 22.0193 24.5458 22.2039 23.7168 22.2109H20.8789V21.9883V14.8203ZM22.3828 16.0527V17.918H23.4961C24.2551 17.905 24.6348 17.597 24.6348 16.998C24.6348 16.6631 24.5827 16.3569 24.3887 16.2109C24.1977 16.0599 23.8495 16.0527 23.4355 16.0527H22.3828ZM27.6738 18.3574H27.6816H30.9941V18.3633H30.9961V19.2813L30.9902 19.7832L30.5195 19.7852H29.5469V19.7832H29.0957V19.7852H28.6074H27.6816V19.7832H27.6777V19.7773H27.6758V19.2793H27.6777L27.6738 18.3574ZM22.3828 18.9922V20.9883H23.6719C24.0259 20.9883 24.303 20.9053 24.5 20.7363C24.701 20.5633 24.8477 20.3244 24.8477 20.0234C24.8477 19.3464 24.4537 19.0042 23.7617 18.9922H22.3828ZM15.4375 24.5215H32.1875V25.6699H15.4375V24.5215ZM28.0254 27.4395V27.4414C29.5524 27.4604 30.2354 27.9596 30.7754 28.3105C31.2704 28.6305 32.5967 29.8956 33.0957 30.7676L33.0937 33.1699C32.9688 34.5319 31.9553 35.9945 29.7383 36.0605H25.9316H21.2598H17.4512C15.5662 36.0605 14.4881 34.5457 14.4961 32.6367L14.5039 30.7891C19.8858 30.5451 21.3233 29.2829 23.7383 28.4629C24.5703 28.1809 25.9724 27.6369 27.3164 27.4629C27.5714 27.4419 27.8074 27.4365 28.0254 27.4395Z" fill="#333333"/>
</g>
<defs>
<clipPath id="clip0">
<rect width="48" height="48" fill="white"/>
</clipPath>
</defs>
</svg>
