<svg width="48" height="48" viewBox="0 0 48 48" fill="none" xmlns="http://www.w3.org/2000/svg">
<g clip-path="url(#clip0)">
<path fill-rule="evenodd" clip-rule="evenodd" d="M0 0.263672V48.2637H48V0.263672H0ZM23.9395 5.50781L23.9414 5.51172C24.2244 5.51172 24.4952 5.56636 24.7402 5.66406H24.7422C25.4792 5.95736 25.9961 6.64272 25.9961 7.44141C25.9961 7.6241 25.9592 7.80086 25.9063 7.97266C25.8972 8.00056 25.887 8.02719 25.877 8.05469C25.818 8.22029 25.7378 8.37679 25.6328 8.52148L25.6309 8.52344H29.2129L31.5488 8.51758C34.3358 8.50158 35.7008 10.2016 35.7187 12.6445L35.752 16.9434C34.729 21.5453 34.8817 26.4779 35.7617 31.4238L35.752 34.4336C35.744 36.7296 33.8541 38.3867 31.5371 38.3867H29.1562V38.3809H26.793V39.2871C26.793 40.2221 26.291 40.5371 25.543 40.5371H24.873V42.9727H23.123V40.5371H22.5234C21.8304 40.5371 21.2734 40.0681 21.2734 39.2871V38.3809H18.9082V38.3867H16.4434C13.8674 38.3867 12.3749 36.8906 12.2539 34.2246L12.2461 31.4238C13.4011 25.3149 12.9771 21.0143 12.2461 16.9434L12.248 12.7559C12.251 9.8677 14.1677 8.52497 16.6387 8.51367L18.7402 8.52148H22.252C22.251 8.51958 22.249 8.51762 22.248 8.51562C22.143 8.37023 22.061 8.21327 22.002 8.04687C21.994 8.02387 21.9846 8.00181 21.9766 7.97852C21.9216 7.80392 21.8848 7.6235 21.8848 7.4375C21.8848 6.37181 22.8045 5.50781 23.9395 5.50781ZM23.916 6.25977C23.243 6.25977 22.6973 6.77742 22.6973 7.41602C22.6973 7.92351 23.0456 8.37189 23.5566 8.52148H24.2676C24.7816 8.37449 25.1338 7.92551 25.1348 7.41602C25.1348 6.77742 24.589 6.25977 23.916 6.25977ZM16.9492 9.42578C15.8422 9.40978 14.904 9.76645 14.248 10.4648C14.085 10.6388 13.9365 10.8338 13.8105 11.0508V11.0527C13.6835 11.2697 13.5753 11.5047 13.4883 11.7617V11.7637C13.4023 12.0217 13.3379 12.2987 13.2949 12.5957V12.5977C13.2529 12.8957 13.2313 13.2128 13.2363 13.5488L13.3027 17.1133V17.1152C13.4487 18.0422 13.6006 18.9798 13.7246 19.9668V19.9688C13.7866 20.4617 13.8408 20.9663 13.8848 21.4883V21.4902C13.9288 22.0122 13.9634 22.5513 13.9824 23.1113V23.1133C14.0004 23.6733 14.0052 24.2543 13.9902 24.8613V24.8633C13.9752 25.4713 13.9398 26.1036 13.8828 26.7676V26.7695C13.8258 27.4345 13.7466 28.1323 13.6406 28.8633V28.8652C13.5336 29.5962 13.3994 30.361 13.2344 31.168L13.2461 33.5742V33.5762C13.3931 34.8242 13.3851 35.2405 14.1641 36.3125C14.2121 36.3735 14.2488 36.4096 14.2988 36.4766V36.4785C14.2998 36.4805 14.3209 36.5044 14.3379 36.5234C14.3489 36.5354 14.3601 36.5476 14.3711 36.5586H14.373C14.706 36.8976 15.1771 37.1112 15.7031 37.2402C15.7841 37.2602 15.8721 37.2692 15.9551 37.2852C16.1521 37.3232 16.3468 37.3628 16.5508 37.3828H16.5547C16.6117 37.3878 16.6686 37.3827 16.7266 37.3867C16.9546 37.4037 17.1852 37.4189 17.4102 37.4199L21.375 37.416L26.375 37.4082C27.772 37.4162 29.0514 37.3968 30.4004 37.4238C33.3984 37.4838 34.8158 35.6893 34.8418 33.9453L34.8203 31.168C34.0583 26.697 33.6134 22.5972 34.8164 17.1133L34.8047 13.6602C34.8267 11.2862 34.1506 9.46553 31.3496 9.42773L25.6641 9.45117L22.1113 9.42773L16.9492 9.42578ZM22.5488 15.1543H25.1055C26.2715 15.1423 27.6856 15.2657 27.8086 17.1797C27.7876 17.7797 27.7272 18.3377 27.1152 18.7207C27.5822 18.7837 27.9676 19.5201 27.9746 20.373C27.9746 21.083 27.7507 21.6233 27.3027 21.9883C26.8547 22.3543 26.2157 22.5389 25.3867 22.5469H22.5488H21.0312L20.5449 21.2852H17.75L17.252 22.5469H15.7031L18.4219 15.2441H19.8164L21.9785 21.0234C22.1505 21.4834 22.3628 22.0529 22.5488 22.5469V15.1543ZM23.5605 16.2852V21.4707H23.5625V18.8418V18.7441V18.7207V16.2852H23.5605ZM24.0527 16.3867V18.2539H25.166C25.925 18.2399 26.3047 17.933 26.3047 17.334C26.3047 16.999 26.2526 16.6919 26.0586 16.5469C25.8676 16.3959 25.5195 16.3867 25.1055 16.3867H24.0527ZM19.1309 17.4121L18.6504 18.7734L18.2461 19.8457H20.0352L19.1309 17.4121ZM28.7402 18.5332H28.748H32.0605V19.4512L32.0547 19.9531L31.584 19.957H30.6113V19.9531H30.1602V19.957H29.6719H28.7461V19.9531H28.7422V19.457H28.7441L28.7402 18.5332ZM25.4336 18.8438C25.4516 18.8468 25.4674 18.8486 25.4844 18.8496V18.8438H25.4336ZM24.0527 19.3281V21.3223H25.3418C25.6958 21.3223 25.9729 21.2393 26.1699 21.0703C26.3709 20.8983 26.4707 20.6584 26.4707 20.3574C26.4707 19.6814 26.1236 19.3391 25.4316 19.3281H24.0527ZM15.6699 24.916H32.4199V26.0625H15.6699V24.916ZM28.2598 27.8437C29.7867 27.8627 30.4688 28.3619 31.0098 28.7129C31.5048 29.0329 32.8311 30.2979 33.3301 31.1699L33.3281 33.5723C33.2031 34.9342 32.1896 36.3969 29.9727 36.4629H26.166H21.4941H17.6855C15.7996 36.4629 14.7225 34.948 14.7305 33.0391L14.7383 31.1895C20.1212 30.9455 21.5567 29.6852 23.9727 28.8652C24.8036 28.5832 26.2058 28.0392 27.5508 27.8652C27.8048 27.8442 28.0418 27.8408 28.2598 27.8437ZM23.3086 40.0293L23.2832 40.0352H23.3086V40.0293Z" fill="#333333"/>
</g>
<defs>
<clipPath id="clip0">
<rect width="48" height="48" fill="white"/>
</clipPath>
</defs>
</svg>
