<svg width="48" height="48" viewBox="0 0 48 48" fill="none" xmlns="http://www.w3.org/2000/svg">
<path fill-rule="evenodd" clip-rule="evenodd" d="M30.42 4.35992C28.75 4.35992 27.11 4.67992 25.6 5.29992C24.1153 5.89797 22.7704 6.79682 21.65 7.93992C20.73 7.43992 19.7 7.13992 18.58 7.13992H12.5C11.6439 7.13991 10.7962 7.30902 10.0056 7.63755C9.21501 7.96608 8.49712 8.44756 7.89315 9.05432C7.28917 9.66108 6.81101 10.3812 6.48613 11.1733C6.16124 11.9653 5.99603 12.8138 5.99998 13.6699V22.8999C5.99891 23.7658 6.17085 24.6232 6.50571 25.4217C6.84058 26.2202 7.33161 26.9438 7.94998 27.5499C6.69003 29.1961 5.9987 31.207 5.97998 33.2799C5.97998 34.6399 6.27998 35.9799 6.86998 37.2399C7.44998 38.4899 8.30998 39.6399 9.38998 40.5999C10.47 41.5599 11.75 42.3199 13.16 42.8399C16.2006 43.9549 19.5497 43.8835 22.54 42.6399C24.08 41.9799 25.44 41.0399 26.53 39.8699C27.3303 39.9954 28.1489 39.9313 28.9201 39.683C29.6912 39.4346 30.3933 39.0089 30.97 38.4399C31.6967 37.7287 32.1933 36.8158 32.3955 35.8193C32.5977 34.8228 32.4962 33.7885 32.1041 32.8504C31.712 31.9122 31.0474 31.1132 30.1963 30.5569C29.3451 30.0006 28.3467 29.7125 27.33 29.7299C26.317 29.733 25.3271 30.033 24.4828 30.5929C23.6385 31.1528 22.977 31.9479 22.58 32.8799C22.1235 33.9737 22.0646 35.1928 22.4135 36.3254C22.7624 37.4581 23.4971 38.4327 24.49 39.0799C23.5848 39.9341 22.5216 40.6032 21.36 41.0499C20.18 41.5099 18.9 41.7499 17.61 41.7499C15.1504 41.7699 12.768 40.8916 10.91 39.2799C10.0476 38.54 9.35281 37.6249 8.87173 36.5955C8.39066 35.5661 8.13439 34.4461 8.11998 33.3099C8.13479 31.6633 8.67036 30.0636 9.64998 28.7399C10.52 29.1599 11.48 29.4299 12.52 29.4299H18.59C19.4474 29.4312 20.2967 29.2632 21.089 28.9353C21.8812 28.6075 22.601 28.1264 23.2068 27.5197C23.8126 26.9129 24.2926 26.1924 24.6192 25.3996C24.9458 24.6068 25.1126 23.7573 25.11 22.8999V13.6699C25.11 11.8999 24.41 10.3199 23.28 9.14992C24.1938 8.21914 25.29 7.48718 26.5 6.99992C27.73 6.49992 29.07 6.22992 30.43 6.22992C32.94 6.22992 35.35 7.11992 37.13 8.69992C37.9918 9.44185 38.6855 10.359 39.1648 11.3901C39.6442 12.4213 39.8982 13.5428 39.91 14.6799C39.91 16.1799 39.45 17.6599 38.59 18.9499C37.6974 20.279 36.4692 21.3485 35.03 22.0499C34.93 21.5199 34.74 21.0399 34.49 20.6499C34.24 20.2499 33.93 19.9499 33.59 19.7799C33.59 19.2999 33.29 18.9099 32.93 18.9099C32.56 18.9099 32.27 19.2799 32.26 19.7499C31.7497 20.0164 31.347 20.4509 31.12 20.9799C30.84 21.5599 30.68 22.2699 30.68 22.9999C30.68 23.7299 30.84 24.4399 31.12 25.0199C31.3489 25.5452 31.7514 25.9759 32.26 26.2399V26.3899C32.26 26.8699 32.56 27.2599 32.93 27.2599C33.29 27.2599 33.59 26.8599 33.59 26.3899V26.2099C33.9 26.0599 34.19 25.7999 34.43 25.4499C34.66 25.1099 34.85 24.6899 34.97 24.2199C37.07 23.4199 38.85 22.0999 40.11 20.4199C41.1522 19.0581 41.8012 17.4366 41.9863 15.7317C42.1715 14.0268 41.8857 12.3037 41.16 10.7499C40.5611 9.47051 39.707 8.32708 38.65 7.38992C37.545 6.41087 36.2662 5.64769 34.88 5.13992C33.4542 4.61956 31.9477 4.3555 30.43 4.35992H30.42ZM18.92 13.1899C20.99 13.3299 22.52 15.6299 19.58 19.4899H16.64L15.78 18.1399L14.81 19.6499L12.85 16.4399L10.75 18.3999C8.86998 15.2099 10.3 13.3299 12.15 13.2199C13.38 13.1399 14.77 13.8199 15.52 15.3699C15.54 15.3699 15.55 15.3399 15.57 15.3499C16.32 13.7999 17.71 13.1199 18.93 13.1899H18.92ZM12.77 17.3399L14.76 20.6399L15.85 19.1799L16.47 20.0799L19.09 20.1099C18.25 21.0999 17.14 22.1699 15.68 23.3299C15.56 23.3899 15.52 23.3899 15.41 23.3499C13.7605 22.108 12.3076 20.6247 11.1 18.9499L12.77 17.3399ZM27.32 31.2599C28.2697 31.2625 29.1804 31.6381 29.8558 32.306C30.5311 32.9738 30.9169 33.8803 30.93 34.8299C30.9309 35.5399 30.7189 36.2338 30.3214 36.8221C29.9238 37.4104 29.3591 37.8659 28.7 38.1299C27.8198 38.4871 26.8347 38.4851 25.956 38.1243C25.0774 37.7635 24.3751 37.0726 24 36.1999C23.7258 35.5463 23.6535 34.8255 23.7925 34.1304C23.9316 33.4354 24.2755 32.7978 24.78 32.2999C25.4598 31.6308 26.3762 31.2571 27.33 31.2599H27.32ZM27.32 31.6399C27.1 31.6399 26.92 31.8599 26.92 32.1399V34.1799C26.8191 34.2047 26.724 34.2488 26.64 34.3099C26.57 34.3699 26.54 34.4299 26.54 34.4899C26.54 34.5499 26.57 34.6099 26.64 34.6599C26.71 34.7199 26.81 34.7599 26.93 34.7899V35.0399C26.93 35.3199 27.1 35.5399 27.33 35.5399C27.54 35.5399 27.72 35.3199 27.72 35.0399V34.7999C27.8277 34.7772 27.9297 34.7329 28.02 34.6699C28.08 34.6099 28.12 34.5499 28.12 34.4899C28.12 34.4299 28.08 34.3699 28.01 34.3099C27.9197 34.2469 27.8177 34.2027 27.71 34.1799V32.1299C27.71 31.8599 27.54 31.6299 27.32 31.6299V31.6399Z" fill="#333333"/>
</svg>
