<svg width="48" height="48" viewBox="0 0 48 48" fill="none" xmlns="http://www.w3.org/2000/svg">
<path d="M24.0291 5.1803C22.8943 5.1803 21.9744 6.04426 21.9744 7.10997C21.9746 7.69032 22.2529 8.23976 22.7322 8.60605H21.1697L17.0389 8.59043C14.6624 8.60177 12.8307 9.92231 12.828 12.7252L12.826 16.7896C13.529 20.7404 13.9364 24.9151 12.826 30.8444L12.8338 33.5651C12.9503 36.1521 14.3851 37.6022 16.8631 37.6022H21.363V38.9611C21.363 39.7421 21.9205 40.2111 22.613 40.2111H23.2126V42.6491H24.9626V40.2116H25.6325C26.3802 40.2116 26.8825 39.8972 26.8825 38.9617V37.6023H31.3804C33.6084 37.6023 35.4258 35.9963 35.4331 33.7683L35.4429 30.8446C34.5963 26.0448 34.4491 21.2568 35.4331 16.7897L35.4018 12.616C35.3841 10.2445 34.0614 8.57903 31.3804 8.59453L26.9059 8.60234V8.61015H25.3336C25.8095 8.24354 26.0855 7.69605 26.0855 7.11797C26.0855 6.05228 25.1656 5.18829 24.0308 5.18829L24.0291 5.1803ZM24.0291 5.67248C24.8403 5.67248 25.4979 6.31608 25.4979 7.10996C25.4979 7.90388 24.8403 8.54745 24.0291 8.54745C23.2179 8.54745 22.5603 7.90388 22.5603 7.10996C22.5603 6.31608 23.2179 5.67248 24.0291 5.67248ZM17.039 9.09824L22.201 9.10019L25.7537 9.12167L31.4391 9.10019C34.2402 9.13798 34.9161 10.959 34.8942 13.3325L34.9059 16.7856C33.7022 22.2699 34.1476 26.3692 34.9098 30.8404L34.9313 33.6177C34.9052 35.3616 33.4877 37.1564 30.4899 37.0961C29.1403 37.0697 27.861 37.088 26.4646 37.0805L21.4646 37.0883L17.4999 37.0922C16.2816 37.0907 14.9223 36.8971 14.3007 36.059C13.4594 34.9244 13.4865 34.5279 13.3359 33.2466L13.3242 30.8404C14.6426 24.384 13.9762 20.4955 13.3925 16.7856L13.3261 13.2211C13.2881 10.5272 14.8243 9.06606 17.039 9.09816L17.039 9.09824ZM23.8827 15.0806C23.2742 15.0806 22.7325 15.2276 22.2577 15.522C21.7863 15.813 21.4209 16.2334 21.16 16.7818C20.9026 17.3268 20.7733 17.9574 20.7733 18.6762V19.0376C20.7766 19.7397 20.909 20.3611 21.1698 20.9027C21.4306 21.441 21.7985 21.8559 22.2733 22.1468C22.748 22.4378 23.2873 22.5824 23.8924 22.5824C24.5042 22.5824 25.0459 22.4353 25.5173 22.141C25.9921 21.8469 26.357 21.4307 26.6111 20.889C26.8652 20.3473 26.992 19.7172 26.992 18.9984V18.6722C26.992 17.9567 26.8622 17.3266 26.6014 16.7817C26.3439 16.2334 25.9765 15.8128 25.5018 15.5219C25.0304 15.2275 24.4912 15.0805 23.8827 15.0805V15.0806ZM23.8827 15.5044C24.3796 15.5044 24.82 15.6329 25.205 15.8931C25.5927 16.1501 25.8932 16.5221 26.1034 17.0063C26.3164 17.4876 26.4218 18.0443 26.4218 18.6762V18.9633C26.4218 19.5982 26.3187 20.1549 26.1112 20.6332C25.9037 21.1115 25.6044 21.4794 25.2167 21.7387C24.8317 21.9987 24.3902 22.1293 23.8905 22.1293C23.3964 22.1293 22.956 22.0016 22.5682 21.7445C22.1806 21.4875 21.8808 21.1203 21.6679 20.645C21.4549 20.1666 21.3464 19.6186 21.3436 18.9985V18.6795C21.3436 18.0447 21.4498 17.487 21.66 17.0057C21.873 16.5215 22.1716 16.1514 22.5565 15.8944C22.9442 15.6351 23.3858 15.5038 23.8827 15.5038V15.5044ZM23.8827 15.8891V15.8911C23.4653 15.8911 23.0931 16.0074 22.7675 16.2368C22.4442 16.4636 22.1945 16.7897 22.0156 17.2173C21.839 17.6424 21.75 18.1353 21.75 18.6958V18.979C21.7523 19.5264 21.8426 20.0097 22.0214 20.4321C22.2003 20.8519 22.4536 21.174 22.7792 21.4008C23.1049 21.6276 23.4735 21.7387 23.8886 21.7387C24.3083 21.7387 24.6805 21.6247 25.0038 21.3949C25.3295 21.1655 25.5795 20.8427 25.7538 20.4203C25.9281 19.9978 26.0155 19.5043 26.0155 18.9438V18.6918C26.0155 18.1339 25.9268 17.6402 25.7479 17.2152C25.5713 16.7875 25.3197 16.4615 24.994 16.2348C24.6707 16.0053 24.3001 15.8891 23.8827 15.8891L23.8827 15.8891ZM23.8827 16.3247C24.3909 16.3247 24.7824 16.5224 25.0565 16.9204C25.3306 17.3182 25.4666 17.9008 25.4666 18.6665V19.0225C25.4633 19.7814 25.3273 20.3609 25.0565 20.7587C24.7857 21.1532 24.3973 21.3505 23.8924 21.3505C23.3775 21.3505 22.983 21.1445 22.7088 20.7333C22.4346 20.3221 22.2967 19.7426 22.2967 18.9971V18.6396C22.3 17.8807 22.4405 17.3063 22.7147 16.9151C22.9888 16.5206 23.3778 16.3233 23.8827 16.3233L23.8827 16.3247ZM28.9392 17.4868L28.951 18.4243L27.9978 18.4223L28.0017 19.8597L28.9275 19.8558L28.9392 20.8109L30.3767 20.8187L30.3708 19.8578L31.3122 19.8539L31.3181 19.3519V18.4242L30.3631 18.4281L30.3669 17.4906L28.9392 17.4868ZM29.8728 17.9829L29.8748 18.9301L30.8162 18.9262V19.3676L29.8631 19.3637L29.8729 20.3246H29.4159L29.4198 19.3637L28.4881 19.3715V18.9295L29.4315 18.9315L29.4393 17.9862L29.8728 17.9829ZM15.793 24.9496C15.7873 25.3789 15.7937 25.3113 15.793 25.4496H32.5078V24.9496H15.793ZM28.3518 27.5159C28.1338 27.5131 27.999 27.5341 27.7444 27.553C26.3998 27.7273 24.9976 28.271 24.1664 28.553C21.7507 29.3727 20.3007 30.6137 14.9185 30.8577L14.9087 32.7054C14.9374 34.7912 16.3377 36.1506 18.2231 36.1506H30.166C32.3829 36.0845 33.3965 34.6223 33.5215 33.2601L33.5234 30.8578C33.0248 29.9859 31.6979 28.7213 31.2032 28.4008C30.3347 27.8271 29.3289 27.5086 28.3516 27.5161L28.3518 27.5159ZM28.1348 28.0229C29.5121 27.9583 30.3737 28.4101 31.1934 28.9839C31.6603 29.3399 32.7201 30.481 33.0215 30.8568V32.8314C33.0139 34.6108 31.6313 35.6089 30.1856 35.6302C28.4348 35.6491 26.6953 35.6384 24.3634 35.6497C21.5524 35.6497 19.3762 35.6824 18.0119 35.6673C17.1085 35.6711 15.8715 34.9062 15.5334 33.6927C15.3306 32.9768 15.3649 31.9331 15.3654 31.2708C16.8066 31.2557 18.2775 30.9836 19.4631 30.7591C21.3319 30.3505 22.7401 29.5941 24.1661 29.0501C25.5202 28.5336 27.1584 28.0249 28.1349 28.0229L28.1348 28.0229ZM21.8751 37.597H26.3595V38.2669C26.3595 38.2704 26.3615 38.2748 26.3615 38.2786V38.554C26.3615 39.5243 26.2678 39.7063 25.2092 39.7063L24.4514 39.7024L24.4553 42.1477L23.7131 42.1438L23.7248 39.7024L23.0178 39.7063C22.3127 39.7101 21.8752 39.6549 21.8752 38.552V38.2747L21.8751 37.597Z" fill="#333333"/>
</svg>
