<svg width="48" height="48" viewBox="0 0 48 48" fill="none" xmlns="http://www.w3.org/2000/svg">
<path d="M23.9376 5.52051C22.8026 5.52051 21.8826 6.3845 21.8826 7.45018C21.8826 7.45288 21.8846 7.45418 21.8846 7.45798C21.8856 7.64058 21.9206 7.81778 21.9746 7.98928C21.9756 7.99238 21.9756 7.99718 21.9766 8.00098C21.9836 8.02368 21.9936 8.04628 22.0016 8.06928C22.0036 8.07308 22.0056 8.07728 22.0076 8.08108C22.0636 8.23217 22.1376 8.37507 22.2326 8.50877C22.2356 8.51257 22.2376 8.51687 22.2396 8.52437H18.4237L16.6267 8.51657C14.1557 8.52797 12.2507 9.89045 12.2477 12.7787L12.2457 16.9657C12.9767 21.0366 13.4007 25.3376 12.2457 31.4465L12.2537 34.2485C12.3747 36.9144 13.8667 38.4084 16.4427 38.4084H18.9076V38.4014H21.2716V39.3014C21.2716 39.4014 21.2816 39.4954 21.2986 39.5844C21.3156 39.6704 21.3376 39.7534 21.3686 39.8284C21.3696 39.8304 21.3706 39.8314 21.3706 39.8324C21.4016 39.9074 21.4406 39.9754 21.4836 40.0394C21.7076 40.3704 22.0886 40.5574 22.5236 40.5574H23.1206V42.9883H23.1226V42.9963H24.8726V40.5594H25.5426C26.2906 40.5594 26.7925 40.2444 26.7925 39.3094V38.4034H29.1555V38.4104H31.5365C33.8535 38.4104 35.7434 36.7554 35.7514 34.4594L35.7614 31.4475C34.8814 26.5025 34.7284 21.5696 35.7514 16.9677L35.7184 12.6687C35.7004 10.2257 34.3245 8.50647 31.5365 8.52247L29.4135 8.52437V8.52247H25.6426C25.6446 8.51867 25.6466 8.51257 25.6496 8.50877C25.7396 8.37987 25.8106 8.24347 25.8646 8.09858C25.8676 8.09108 25.8736 8.08278 25.8766 8.07518C25.8866 8.04868 25.8966 8.02108 25.9056 7.99318C25.9076 7.98938 25.9066 7.98518 25.9076 7.98148C25.9546 7.82688 25.9836 7.66848 25.9876 7.50488C25.9886 7.48978 25.9956 7.47858 25.9956 7.46188C25.9956 7.45058 25.9896 7.44398 25.9896 7.43258C25.9876 7.26939 25.9586 7.11289 25.9156 6.96189C25.9016 6.91389 25.8866 6.86779 25.8686 6.82129C25.8106 6.66749 25.7396 6.5189 25.6446 6.3858C25.6436 6.3846 25.6426 6.3828 25.6426 6.3818C25.5426 6.2431 25.4186 6.1243 25.2846 6.0147C25.2556 5.992 25.2276 5.9686 25.1966 5.9463C25.0576 5.8439 24.9076 5.7527 24.7416 5.68651H24.7396C24.4936 5.58831 24.2236 5.53221 23.9396 5.53221L23.9376 5.52051ZM23.9156 6.2803C24.0756 6.28026 24.2342 6.31014 24.382 6.36823C24.5299 6.42631 24.6643 6.51147 24.7775 6.61884C24.8907 6.7262 24.9805 6.85367 25.0418 6.99396C25.103 7.13426 25.1346 7.28463 25.1346 7.43648C25.1342 7.68462 25.0497 7.92607 24.8936 8.12514C24.7375 8.32422 24.518 8.47036 24.2676 8.54197H23.5566C23.3075 8.46918 23.0895 8.32254 22.9347 8.12357C22.7799 7.92459 22.6965 7.68378 22.6966 7.43648C22.6966 7.28463 22.7281 7.13426 22.7894 6.99396C22.8507 6.85367 22.9405 6.7262 23.0536 6.61884C23.1668 6.51147 23.3012 6.42631 23.4491 6.36823C23.597 6.31014 23.7555 6.28026 23.9156 6.2803ZM16.9487 9.44626L22.1106 9.44826L25.6636 9.47166L31.3495 9.44826C33.0995 9.47086 34.0195 10.1917 34.4585 11.3077C34.5445 11.5287 34.6144 11.7647 34.6654 12.0147C34.6664 12.0177 34.6674 12.0187 34.6674 12.0227C34.7184 12.2727 34.7534 12.5367 34.7744 12.8117C34.7964 13.0887 34.8054 13.3757 34.8024 13.6727L34.8144 17.1257C34.2125 19.8676 34.0235 22.2626 34.0795 24.5316C34.0835 24.6766 34.0955 24.8176 34.1015 24.9616C34.1175 25.3846 34.1345 25.8066 34.1655 26.2236C34.2075 26.7775 34.2625 27.3285 34.3275 27.8775C34.4575 28.9735 34.6274 30.0655 34.8174 31.1805L34.8394 33.9575C34.8134 35.7014 33.3955 37.4964 30.3985 37.4364C29.0485 37.4094 27.7695 37.4284 26.3726 37.4204L21.3726 37.4284L17.4077 37.4324C16.8197 37.4314 16.2007 37.3814 15.6467 37.2404C15.4177 37.1814 15.1987 37.1064 14.9997 37.0104C14.9747 36.9994 14.9487 36.9884 14.9237 36.9774C14.8407 36.9344 14.7607 36.8874 14.6857 36.8364C14.6597 36.8174 14.6347 36.7984 14.6087 36.7814C14.5337 36.7264 14.4617 36.6674 14.3967 36.6024C14.3547 36.5614 14.3147 36.5184 14.2767 36.4734C14.2427 36.4294 14.2117 36.3934 14.1777 36.3524C14.1287 36.2854 14.1037 36.2364 14.0607 36.1744C13.4077 35.2304 13.3837 34.7744 13.2457 33.5985V33.5965L13.2337 31.1905C13.3987 30.3835 13.5337 29.6185 13.6407 28.8875V28.8855C13.7467 28.1545 13.8257 27.4585 13.8827 26.7935V26.7915C13.9397 26.1276 13.9747 25.4936 13.9897 24.8856V24.8836C14.0047 24.2756 14.0007 23.6956 13.9827 23.1356V23.1336C13.9637 22.5736 13.9287 22.0346 13.8847 21.5126V21.5106C13.8407 20.9886 13.7867 20.4836 13.7247 19.9906V19.9886C13.7237 19.9866 13.7227 19.9846 13.7227 19.9816C13.5987 18.9976 13.4477 18.0617 13.3027 17.1377V17.1357L13.2357 13.5707C13.2317 13.2347 13.2527 12.9187 13.2947 12.6217V12.6197C13.3377 12.3227 13.4017 12.0447 13.4877 11.7877V11.7857C13.5747 11.5287 13.6837 11.2937 13.8107 11.0767V11.0747C13.9367 10.8587 14.0847 10.6637 14.2477 10.4887C14.9037 9.79125 15.8417 9.43416 16.9487 9.45016V9.44626ZM21.1106 15.2337V22.4036V22.6256H23.9486C24.7776 22.6186 25.4166 22.4326 25.8646 22.0676C26.3126 21.7016 26.5366 21.1626 26.5366 20.4516C26.5296 19.5996 26.1436 18.8646 25.6776 18.8016C26.2896 18.4176 26.3506 17.8607 26.3706 17.2607C26.2476 15.3467 24.8336 15.2207 23.6676 15.2337H21.1106ZM22.6146 16.4677H23.6676C24.0826 16.4677 24.4306 16.4747 24.6206 16.6257C24.8146 16.7717 24.8666 17.0777 24.8666 17.4127C24.8666 18.0117 24.4876 18.3196 23.7286 18.3326H22.6146V16.4677ZM27.9055 18.7706L27.9095 19.6946H27.9075V20.1906H27.9095V20.1976H27.9135V20.1996H28.8395H29.3275V20.1976H29.7785V20.1996H30.7515L31.2225 20.1976L31.2285 19.6966V18.7786H31.2265V18.7706H27.9135H27.9055ZM22.6146 19.4066H23.9936C24.6856 19.4186 25.0796 19.7596 25.0796 20.4366C25.0796 20.7376 24.9326 20.9766 24.7326 21.1496C24.5346 21.3186 24.2586 21.4016 23.9036 21.4016H22.6146V19.4066ZM15.6697 24.9366V26.0846H32.4195V24.9366H15.6697ZM28.2575 27.8565C28.0395 27.8535 27.8035 27.8575 27.5485 27.8775C26.2036 28.0515 24.8016 28.5955 23.9706 28.8775C21.5546 29.6975 20.1186 30.9595 14.7357 31.2035L14.7307 33.0515C14.7227 34.9604 15.7977 36.4754 17.6837 36.4754H21.4916H26.1636H29.9705C32.1875 36.4094 33.2005 34.9464 33.3255 33.5845L33.3275 31.1825C32.8285 30.3105 31.5025 29.0455 31.0075 28.7255C30.4665 28.3745 29.7845 27.8755 28.2575 27.8565Z" fill="#333333"/>
</svg>
