<svg width="48" height="48" viewBox="0 0 48 48" fill="none" xmlns="http://www.w3.org/2000/svg">
<path fill-rule="evenodd" clip-rule="evenodd" d="M30.42 4.35988C27.05 4.35988 23.85 5.66988 21.65 7.93988C20.73 7.43988 19.7 7.13988 18.58 7.13988H12.5C11.6439 7.13987 10.7962 7.30899 10.0056 7.63752C9.21501 7.96605 8.49712 8.44752 7.89315 9.05428C7.28917 9.66104 6.81101 10.3811 6.48613 11.1732C6.16124 11.9653 5.99603 12.8138 5.99998 13.6699V22.8999C5.99891 23.7658 6.17085 24.6231 6.50571 25.4217C6.84058 26.2202 7.33161 26.9438 7.94998 27.5499C6.69003 29.1961 5.9987 31.2069 5.97998 33.2799C5.97998 38.9899 11.18 43.6299 17.61 43.6299C19.2744 43.6431 20.924 43.3165 22.4578 42.67C23.9916 42.0234 25.3773 41.0706 26.53 39.8699C27.2615 39.9883 28.01 39.9469 28.7239 39.7485C29.4379 39.55 30.1003 39.1992 30.6658 38.7203C31.2312 38.2413 31.6862 37.6455 31.9994 36.974C32.3125 36.3024 32.4765 35.5709 32.48 34.8299C32.48 32.0099 30.35 29.6299 27.33 29.7299C26.6673 29.2937 25.912 29.0182 25.1241 28.9252C24.3362 28.8322 23.5375 28.9242 22.7915 29.1941C22.0454 29.4639 21.3726 29.9041 20.8266 30.4796C20.2805 31.0551 19.8762 31.7501 19.6459 32.5092C19.4155 33.2684 19.3655 34.0708 19.4997 34.8527C19.6339 35.6347 19.9487 36.3745 20.419 37.0134C20.8893 37.6523 21.5021 38.1727 22.2089 38.5331C22.9156 38.8936 23.6967 39.0842 24.49 39.0899C22.6177 40.8193 20.1587 41.7736 17.61 41.7599C12.37 41.7599 8.11998 37.9699 8.11998 33.3099C8.13268 31.6598 8.66836 30.0563 9.64998 28.7299C10.52 29.1599 11.48 29.4299 12.52 29.4299H18.59C19.4474 29.4312 20.2967 29.2631 21.089 28.9353C21.8812 28.6075 22.601 28.1264 23.2068 27.5196C23.8126 26.9129 24.2926 26.1924 24.6192 25.3996C24.9458 24.6068 25.1126 23.7573 25.11 22.8999V13.6699C25.11 11.8999 24.41 10.3199 23.29 9.14988C25.08 7.29988 27.69 6.23988 30.43 6.22988C35.66 6.22988 39.91 10.0099 39.91 14.6799C39.91 17.7399 38.03 20.5599 35.03 22.0399C34.82 20.9799 34.28 20.1299 33.59 19.7799C33.59 19.2999 33.29 18.9099 32.93 18.9099C32.56 18.9099 32.27 19.2799 32.26 19.7499C31.33 20.1799 30.68 21.4999 30.68 22.9999C30.68 24.4999 31.32 25.8099 32.26 26.2399V26.3899C32.26 26.8699 32.56 27.2599 32.93 27.2599C33.29 27.2599 33.59 26.8599 33.59 26.3899V26.2099C34.22 25.8999 34.73 25.1699 34.97 24.2099C39.25 22.5999 42.04 18.8599 42.05 14.7099C42.05 8.98988 36.85 4.34988 30.43 4.35988H30.42ZM30.52 4.93988C36.62 4.98988 41.21 9.35988 41.51 14.6299C41.5 18.5599 38.17 22.8199 34.39 23.6599C34.4212 24.0815 34.318 24.5022 34.0953 24.8615C33.8725 25.2209 33.5415 25.5004 33.15 25.6599C33.13 26.2199 33.28 26.7099 32.89 26.6099C32.65 26.6499 32.54 26.2499 32.62 25.7499C31.88 25.3499 31.16 24.3199 31.16 22.9499C31.16 21.5699 31.86 20.5499 32.66 20.2099C32.67 19.7799 32.68 19.4099 32.96 19.4099C33.19 19.3899 33.25 19.7599 33.22 20.2299C33.93 20.3899 34.69 21.7399 34.42 23.0299C38.36 21.3499 40.33 18.0399 40.67 14.9399C40.67 10.5199 37.13 5.58988 30.27 5.58988C27.67 5.58988 24.48 6.98988 22.78 8.74988C22.78 8.74988 22.43 8.54988 22.31 8.24988C23.3878 7.17463 24.671 6.3274 26.0833 5.75873C27.4955 5.19005 29.0078 4.91157 30.53 4.93988H30.52ZM12.81 7.63988H18.26C19.0907 7.63724 19.9137 7.79891 20.6817 8.11558C21.4496 8.43226 22.1474 8.89768 22.7348 9.48507C23.3222 10.0725 23.7876 10.7702 24.1043 11.5382C24.421 12.3062 24.5826 13.1292 24.58 13.9599V22.6199C24.5826 23.4506 24.421 24.2736 24.1043 25.0416C23.7876 25.8095 23.3222 26.5073 22.7348 27.0947C22.1474 27.6821 21.4496 28.1475 20.6817 28.4642C19.9137 28.7809 19.0907 28.9425 18.26 28.9399H12.81C11.9793 28.9425 11.1563 28.7809 10.3883 28.4642C9.62033 28.1475 8.92257 27.6821 8.33518 27.0947C7.74778 26.5073 7.28236 25.8095 6.96568 25.0416C6.64901 24.2736 6.48734 23.4506 6.48998 22.6199V13.9599C6.48866 13.13 6.6513 12.3081 6.96857 11.5413C7.28583 10.7745 7.75147 10.0779 8.33873 9.49155C8.92599 8.90522 9.6233 8.44069 10.3906 8.12464C11.1579 7.80858 11.9801 7.64724 12.81 7.64988V7.63988ZM18.83 12.8199C18.1459 12.7798 17.4655 12.9462 16.8771 13.2975C16.2887 13.6488 15.8194 14.1687 15.53 14.7899C15.51 14.7799 15.49 14.8199 15.48 14.8099C15.1717 14.1601 14.6696 13.6218 14.0429 13.269C13.4161 12.9162 12.6954 12.7663 11.98 12.8399C10.45 12.9799 8.37998 14.2699 10.22 18.3099L12.54 16.0499L14.7 19.7699L15.76 18.0199L16.7 19.5899H19.93C21.58 17.7199 22.82 13.5599 19.28 12.8599C19.1309 12.8379 18.9806 12.8245 18.83 12.8199ZM12 13.2099C13.23 13.1099 14.66 13.9099 15.51 15.6299C16.1 14.2799 17.36 13.0999 18.73 13.2599C20.29 13.1999 22.7 15.0399 19.77 19.1199H16.91L15.78 17.1799L14.69 18.9199L12.53 15.3899L10.39 17.5699C9.14998 15.1299 10.42 13.3399 11.99 13.2099H12ZM12.45 17.0899L10.61 18.9599C11.57 20.4499 13.1 21.9299 15.38 23.8299C15.56 23.9599 15.53 23.9299 15.58 23.9299C17.18 22.5999 18.48 21.4399 19.4 20.2999L16.52 20.2599L15.83 19.2199L14.63 20.9099L12.45 17.0899ZM12.37 17.7699L14.63 21.6699L15.86 19.8499L16.35 20.6099H18.65C17.6976 21.6274 16.6715 22.5733 15.58 23.4399C13.26 21.5699 12.01 20.2699 11.13 19.0399L12.37 17.7699ZM8.25998 27.9299L9.07998 28.4599C4.45998 35.0999 10.26 42.8699 17.69 42.4099C20.3 42.4099 23.53 41.2799 25.39 39.0399C23.27 37.9399 22.65 36.3199 22.67 34.8399C22.51 32.6099 24.51 30.1899 27.35 30.1899C30.03 30.1899 31.96 32.0899 31.96 34.8999C32.11 36.4999 30.63 39.9599 26.26 39.3299C25.1781 40.5122 23.8572 41.4509 22.3848 42.0836C20.9124 42.7164 19.3223 43.0287 17.72 42.9999C9.65998 43.0999 3.52998 35.0699 8.25998 27.9299ZM27.36 30.6299C26.3259 30.6259 25.325 30.9948 24.5408 31.6688C23.7565 32.3429 23.2415 33.2769 23.09 34.2999C22.87 36.2899 24.49 39.0899 27.39 38.9699C29.94 39.0399 31.49 36.9699 31.49 34.9899C31.6 33.3699 30.49 30.6299 27.35 30.6299H27.36ZM27.32 31.2599C29.32 31.2599 30.92 32.8599 30.93 34.8299C30.9247 35.7812 30.5431 36.6917 29.8685 37.3625C29.194 38.0334 28.2813 38.4099 27.33 38.4099C25.33 38.4099 23.72 36.8099 23.72 34.8299C23.7279 33.8803 24.1107 32.9723 24.7849 32.3037C25.4592 31.635 26.3704 31.2598 27.32 31.2599ZM27.32 31.6399C27.1 31.6399 26.92 31.8599 26.92 32.1399V34.1799C26.68 34.2499 26.53 34.3599 26.53 34.4799C26.53 34.6099 26.68 34.7299 26.93 34.7899V35.0399C26.93 35.3099 27.1 35.5399 27.33 35.5399C27.54 35.5399 27.72 35.3099 27.72 35.0399V34.7999C27.97 34.7299 28.12 34.6199 28.12 34.4899C28.12 34.3599 27.96 34.2499 27.72 34.1899V32.1299C27.72 31.8599 27.54 31.6299 27.32 31.6299V31.6399Z" fill="#333333"/>
</svg>
