<svg width="48" height="48" viewBox="0 0 48 48" fill="none" xmlns="http://www.w3.org/2000/svg">
<path d="M23.9355 5.36841C22.8008 5.36841 21.8808 6.23238 21.8808 7.2981C21.8809 7.48412 21.9179 7.66446 21.9726 7.83911C21.9806 7.86236 21.9895 7.88453 21.998 7.90747C22.0574 8.07392 22.1391 8.2308 22.2441 8.37622C22.2451 8.37814 22.247 8.38016 22.248 8.38208H18.7363L16.623 8.37036C14.1522 8.3817 12.2469 9.72863 12.2441 12.6165L12.2421 16.804C12.973 20.8746 13.3966 25.1755 12.2421 31.2844L12.248 34.0872C12.3691 36.7527 13.8611 38.2473 16.4375 38.2473H18.9023V38.2414H21.2676V39.1477C21.2676 39.9286 21.8251 40.3977 22.5176 40.3977H23.1172V42.8352H24.8672V40.3977H25.5371C26.2848 40.3977 26.7871 40.0832 26.7871 39.1477V38.2414H29.1504V38.2473H31.5312C33.8477 38.2473 35.7385 36.5917 35.7461 34.2961L35.7578 31.2844C34.8775 26.3391 34.723 21.4062 35.7461 16.804L35.7129 12.5051C35.6948 10.0617 34.3206 8.37004 31.5332 8.38599L29.209 8.38404H25.6269L25.6289 8.38209C25.7337 8.23735 25.8136 8.08088 25.8731 7.91529C25.8834 7.8878 25.8934 7.86118 25.9024 7.83326C25.9551 7.66146 25.9922 7.48465 25.9922 7.30201C25.9922 6.50331 25.4749 5.81798 24.7383 5.52466H24.7363C24.4906 5.42699 24.2212 5.37231 23.9375 5.37231L23.9355 5.36841ZM23.9121 6.12036C24.5852 6.12036 25.1308 6.63803 25.1308 7.27661C25.1301 7.78612 24.7779 8.23511 24.2637 8.38208H23.5527C23.0416 8.23244 22.6931 7.78409 22.6933 7.27661C22.6933 6.63803 23.239 6.12036 23.9121 6.12036ZM16.9453 9.28442V9.28637L22.1074 9.28832L25.6601 9.31176L31.3457 9.28832C34.1468 9.32612 34.8227 11.1471 34.8008 13.5207L34.8125 16.9739C33.6088 22.4583 34.0538 26.5576 34.8164 31.0286L34.8379 33.8059C34.8118 35.5498 33.3943 37.3447 30.3965 37.2844C29.0469 37.258 27.7675 37.2763 26.3711 37.2688L21.3711 37.2766L17.4062 37.2805C17.1814 37.2802 16.9511 37.2659 16.7226 37.2492C16.6652 37.245 16.608 37.2489 16.5508 37.2433C16.5498 37.2432 16.5479 37.2435 16.5469 37.2433C16.3429 37.2239 16.1476 37.1836 15.9512 37.1457C15.8677 37.1299 15.7803 37.1204 15.6992 37.1008C15.1731 36.9713 14.7015 36.7596 14.3691 36.4211H14.3652C14.3539 36.4095 14.345 36.3977 14.334 36.3859C14.3166 36.3662 14.2962 36.3427 14.2949 36.341V36.3372C14.2445 36.2699 14.208 36.2336 14.1601 36.1731C13.3805 35.101 13.3888 34.6832 13.2422 33.4348V33.4328L13.2305 31.0266C13.3951 30.2202 13.5299 29.4548 13.6367 28.7239V28.7219C13.7434 27.991 13.822 27.2947 13.8789 26.6301V26.6281C13.9357 25.9635 13.9712 25.3296 13.9863 24.7218V24.7198C14.0014 24.1122 13.9973 23.5319 13.9785 22.9718V22.9698C13.9598 22.4097 13.9252 21.8706 13.8809 21.3487V21.3467C13.8366 20.8249 13.7826 20.3201 13.7207 19.8271V19.8251C13.5968 18.8387 13.4447 17.9003 13.2988 16.9736V16.9716L13.2324 13.4071C13.2274 13.0711 13.2485 12.7551 13.291 12.4579V12.4559C13.3336 12.1589 13.398 11.881 13.4844 11.6239V11.6219C13.5708 11.3648 13.6799 11.1291 13.8066 10.9129V10.909C13.9335 10.6929 14.0805 10.4973 14.2441 10.3231C14.9003 9.62502 15.838 9.26797 16.9453 9.28399V9.28442ZM15.9844 15.1555V22.4583H17.4883V19.7844H18.6875L20.0566 22.4583H21.6719V22.3879L20.0918 19.4036C20.5298 19.2064 20.8564 18.9436 21.0703 18.6126C21.2877 18.2783 21.3965 17.8608 21.3965 17.3626C21.3965 16.6605 21.1614 16.1181 20.6933 15.7336C20.2252 15.3491 19.5599 15.1555 18.6973 15.1555H15.9844ZM22.5449 15.1555V22.4583H24.0488V19.3293H26.9824V22.4583H28.4863V15.1555H26.9824V18.1145H24.0488V15.1555H22.5449ZM17.4883 16.3743H18.6973C19.1019 16.3743 19.4018 16.4738 19.5957 16.6711C19.793 16.8684 19.8906 17.1392 19.8906 17.4836C19.8906 17.8213 19.7874 18.0865 19.5801 18.2805C19.3728 18.471 19.0809 18.5676 18.7031 18.5676H17.4883V16.3743ZM29.7051 18.7473V19.9153H32.5293V18.7473H29.7051ZM15.666 24.7766V25.925H32.416V24.7766H15.666ZM28.2558 27.7043C28.0378 27.7015 27.8015 27.7066 27.5469 27.7278C26.2023 27.902 24.7999 28.4458 23.9687 28.7278C21.5531 29.5475 20.1167 30.81 14.7344 31.054L14.7285 32.9016C14.7206 34.8107 15.7961 36.3254 17.6816 36.3254H21.4902H26.1621H29.9687C32.1856 36.2593 33.1992 34.797 33.3242 33.4348L33.3262 31.0325C32.8274 30.1605 31.5005 28.8959 31.0059 28.5754C30.4651 28.2251 29.7825 27.7257 28.2559 27.7063L28.2558 27.7043ZM23.3047 39.8918V39.8957H23.2793L23.3047 39.8918Z" fill="#333333"/>
</svg>
