<svg width="49" height="48" viewBox="0 0 49 48" fill="none" xmlns="http://www.w3.org/2000/svg">
<path d="M24.4358 5.5144C23.3008 5.5144 22.3808 6.37839 22.3808 7.44408C22.3808 7.63008 22.4178 7.81028 22.4728 7.98507C22.4808 8.00777 22.4898 8.03037 22.4978 8.05347C22.5558 8.21567 22.6368 8.36797 22.7378 8.51047H19.2359L17.1229 8.50467C14.6519 8.51597 12.7469 9.87855 12.7439 12.7667L12.7419 16.9537C13.4729 21.0246 13.8969 25.3256 12.7419 31.4345L12.7499 34.2364C12.8709 36.9024 14.3629 38.3964 16.9389 38.3964H19.4039V38.3894H21.7698V39.2954C21.7698 40.0764 22.3268 40.5454 23.0198 40.5454H23.6188V42.9823H25.3688V40.5454H26.0388C26.7868 40.5454 27.2888 40.2304 27.2888 39.2954V38.3894H29.6517V38.3964H32.0327C34.3497 38.3964 36.2397 36.7414 36.2477 34.4454L36.2576 31.4345C35.3777 26.4885 35.2247 21.5556 36.2477 16.9537L36.2147 12.6547C36.1967 10.2117 34.8207 8.49257 32.0327 8.50857L29.7087 8.51247H26.1368C26.2358 8.37177 26.3148 8.22137 26.3728 8.06127C26.3828 8.03477 26.3928 8.00717 26.4018 7.97927C26.4548 7.80728 26.4918 7.63078 26.4918 7.44798C26.4918 6.64929 25.9748 5.964 25.2378 5.6707H25.2358C24.9908 5.5732 24.7208 5.5183 24.4378 5.5183L24.4358 5.5144ZM24.4118 6.26639C24.5719 6.26636 24.7304 6.29624 24.8783 6.35432C25.0262 6.41241 25.1605 6.49757 25.2737 6.60493C25.3869 6.7123 25.4767 6.83977 25.538 6.98006C25.5993 7.12035 25.6308 7.27072 25.6308 7.42258C25.6304 7.67072 25.546 7.91216 25.3898 8.11124C25.2337 8.31032 25.0142 8.45646 24.7638 8.52807H24.0528C23.8037 8.45528 23.5857 8.30863 23.4309 8.10966C23.2762 7.91069 23.1927 7.66987 23.1928 7.42258C23.1928 7.27072 23.2243 7.12035 23.2856 6.98006C23.3469 6.83977 23.4367 6.7123 23.5499 6.60493C23.6631 6.49757 23.7974 6.41241 23.9453 6.35432C24.0932 6.29624 24.2517 6.26636 24.4118 6.26639ZM17.4449 9.43236L22.6068 9.43426L26.1598 9.45775L31.8457 9.43426C34.6467 9.47205 35.3227 11.2927 35.3007 13.6667L35.3117 17.1197C34.1087 22.6036 34.5537 26.7035 35.3157 31.1745L35.3377 33.9514C35.3117 35.6954 33.8937 37.4904 30.8957 37.4304C29.5467 37.4034 28.2678 37.4244 26.8708 37.4164L21.8708 37.4224L17.9059 37.4264C17.6809 37.4254 17.4509 37.4124 17.2229 37.3964C17.1649 37.3934 17.1079 37.3964 17.0509 37.3894C17.0499 37.3884 17.0479 37.3894 17.0469 37.3894C16.8429 37.3704 16.6479 37.3294 16.4509 37.2914C16.3679 37.2764 16.2799 37.2654 16.1989 37.2464C15.6729 37.1174 15.2019 36.9054 14.8689 36.5664H14.8669L14.8339 36.5334C14.8169 36.5144 14.7959 36.4904 14.7949 36.4884V36.4864C14.7449 36.4194 14.7079 36.3834 14.6599 36.3224C13.8809 35.2504 13.8889 34.8324 13.7419 33.5845V33.5825L13.7299 31.1765C13.8949 30.3695 14.0299 29.6045 14.1369 28.8735V28.8715C14.2429 28.1405 14.3219 27.4445 14.3789 26.7795V26.7755C14.4359 26.1115 14.4709 25.4776 14.4859 24.8696V24.8676C14.5009 24.2606 14.4969 23.6796 14.4789 23.1196V23.1176C14.4599 22.5576 14.4249 22.0186 14.3809 21.4966V21.4946C14.3369 20.9726 14.2829 20.4676 14.2209 19.9756V19.9736C14.0969 18.9866 13.9449 18.0486 13.7989 17.1217V17.1197L13.7319 13.5557C13.7279 13.2197 13.7489 12.9037 13.7909 12.6057C13.8339 12.3087 13.8979 12.0317 13.9839 11.7737V11.7717C14.0709 11.5147 14.1799 11.2797 14.3069 11.0627V11.0597C14.4329 10.8427 14.5809 10.6477 14.7439 10.4737C15.3999 9.77535 16.3379 9.41826 17.4449 9.43426V9.43236ZM23.0448 15.1607V22.5536H25.8828C26.7118 22.5456 27.3508 22.3606 27.7988 21.9946C28.2468 21.6296 28.4707 21.0896 28.4707 20.3796C28.4637 19.5266 28.0778 18.7916 27.6108 18.7286C28.2228 18.3456 28.2838 17.7876 28.3048 17.1877C28.1818 15.2737 26.7678 15.1487 25.6018 15.1607H23.0448ZM23.0448 22.5536C22.8588 22.0596 22.6468 21.4896 22.4748 21.0296L20.3118 15.2507H18.9179L16.1989 22.5536H17.7479L18.2459 21.2916H21.0408L21.5268 22.5536H23.0448ZM24.0568 16.2917H24.0588V18.7286V18.7526V18.8506V21.4786H24.0568V16.2917ZM24.5488 16.3947H25.6018C26.0158 16.3947 26.3638 16.4027 26.5548 16.5537C26.7488 16.6987 26.8008 17.0057 26.8008 17.3407C26.8008 17.9396 26.4208 18.2466 25.6618 18.2606H24.5488V16.3947ZM19.6269 17.4187L20.5308 19.8536L18.7419 19.8506L19.1459 18.7776L19.6269 17.4187ZM30.1777 17.6027L30.1887 18.5396H29.2357L29.2377 19.4636V19.9596H29.2397V19.9776L30.1657 19.9736L30.1777 20.9286L31.6147 20.9346L31.6087 19.9736L32.5507 19.9716V19.9596L32.5567 19.4696V19.4576V18.5416V18.5396H31.6017L31.6047 17.6057L30.1777 17.6027ZM25.9298 18.8506H25.9798V18.8576C25.9628 18.8566 25.9478 18.8536 25.9298 18.8506ZM24.5488 19.3346H25.9278C26.6198 19.3456 26.9668 19.6876 26.9668 20.3636C26.9668 20.6646 26.8668 20.9046 26.6658 21.0766C26.4688 21.2456 26.1918 21.3286 25.8378 21.3286H24.5488V19.3346ZM16.1659 24.9226V26.0705H32.9157V24.9226H16.1659ZM28.7557 27.8525C28.5377 27.8495 28.3008 27.8535 28.0468 27.8735C26.7018 28.0475 25.2998 28.5915 24.4688 28.8735C22.0528 29.6935 20.6168 30.9555 15.2339 31.1995L15.2289 33.0475C15.2209 34.9564 16.2959 36.4714 18.1819 36.4714H21.9898H26.6618H30.4687C32.6857 36.4054 33.6987 34.9424 33.8237 33.5805L33.8257 31.1785C33.3267 30.3065 32.0007 29.0415 31.5057 28.7215C30.9647 28.3705 30.2827 27.8715 28.7557 27.8525ZM23.8048 40.0374V40.0414H23.7788L23.8048 40.0374Z" fill="#333333"/>
</svg>
