<svg width="48" height="48" viewBox="0 0 48 48" fill="none" xmlns="http://www.w3.org/2000/svg">
<path fill-rule="evenodd" clip-rule="evenodd" d="M16.3906 4.08598C14.7174 4.12784 13.5605 4.30082 13.5605 4.30082C11.9887 4.47413 9.32288 5.39944 9.32812 6.4766L9.4082 22.7618C9.41344 23.8389 10.219 24.7051 11.2266 24.7051H11.6758C9.27077 26.8226 7.91333 29.7069 7.9043 32.7188C7.90572 38.9658 13.5932 44.0289 20.6074 44.0274C24.3798 44.0154 27.951 42.5103 30.3535 39.92C30.6434 39.9674 30.9366 39.9922 31.2305 39.9942C34.3355 39.9934 36.8521 37.4961 36.8516 34.4161C36.8521 31.3361 34.3355 28.8387 31.2305 28.8379C28.1239 28.8366 25.605 31.3345 25.6055 34.4161C25.6066 36.288 26.5543 38.0346 28.1289 39.0664C26.1788 40.9185 23.4582 41.9733 20.6074 41.9825C14.8835 41.9827 10.2435 37.8498 10.2441 32.752C10.2534 29.407 12.2942 26.3284 15.5781 24.7051H23.0508C24.0584 24.7051 24.8711 23.8389 24.8711 22.7618V9.83793C27.4189 7.90651 31.146 7.84078 34.1738 9.67387C38.1164 12.0716 39.5811 16.862 37.4453 20.3731C36.0372 22.6746 33.34 23.9406 30.3965 23.6817C30.7316 22.7823 30.7156 21.8993 30.3535 21.3204L30.3555 21.3164C30.575 20.9555 30.5257 20.5303 30.248 20.3614C29.9753 20.1955 29.5871 20.3441 29.3652 20.6914C28.4631 20.585 27.3754 21.2837 26.6895 22.4102C26.0051 23.5357 25.8837 24.8212 26.3906 25.5743L26.3242 25.6817C26.1046 26.0427 26.1521 26.4718 26.4297 26.6407C26.7073 26.8096 27.1066 26.654 27.3262 26.293L27.4082 26.1602C28.0273 26.2106 28.7418 25.8909 29.3555 25.2891C33.3238 26.0331 37.1354 24.4927 39.041 21.375C41.6568 17.0729 39.8626 11.2044 35.0332 8.26567H35.0293C31.8208 6.32212 27.9234 6.09732 24.8711 7.67973V6.60356C24.8711 5.52638 22.8004 4.67537 20.9336 4.36723C20.0027 4.21358 19.0785 4.1349 18.2129 4.09965C17.5637 4.07322 16.9484 4.07203 16.3906 4.08598ZM17.1387 4.34184C21.1633 4.34166 24.4259 5.30858 24.4238 6.50004C24.421 7.69047 21.1598 8.65452 17.1387 8.65434C13.1185 8.65411 9.85837 7.69018 9.85547 6.50004C9.85337 5.30887 13.115 4.34207 17.1387 4.34184ZM29.248 7.12504C30.7893 7.09286 32.5204 7.53473 34.7637 8.70707C39.3721 11.5353 40.7931 17.1743 38.6855 20.9903C36.78 24.1079 32.9707 25.3471 29.2676 24.7579C28.6539 25.3597 27.9296 25.7653 27.3105 25.7149C27.2359 26.1625 26.8695 26.4138 26.6309 26.2188C26.5352 26.1458 26.4687 25.8194 26.8125 25.4668C26.373 24.4201 26.4035 23.7779 27.0879 22.6524C27.5971 21.8131 28.508 21.0108 29.4102 21.1172C29.5027 20.833 29.7117 20.717 29.9531 20.8243C29.9531 20.8243 30.2797 21.0423 29.9219 21.461C30.2839 22.0399 30.0695 23.2471 29.7344 24.1465C32.5011 24.7369 36.5661 23.5195 38.1289 20.4004C40.2868 16.4474 38.5578 11.7845 34.6152 9.38676C31.6309 7.56922 28.4785 7.12216 25.0625 9.04496V8.29887C26.4717 7.62636 27.7743 7.15582 29.248 7.12504ZM9.83203 7.67582C9.83463 7.68043 9.84529 7.6966 9.875 7.71293C12.8019 9.42274 20.2052 9.84888 23.9355 7.90434C23.9355 7.90434 24.2974 7.56758 24.3145 8.02934C24.3474 8.92108 24.3457 10.8968 24.3457 12.0372V21.3067C24.3457 23.902 23.6486 24.1875 21.4648 24.1875H12.7559C10.7371 24.1875 9.875 23.8116 9.875 21.3067V12.0372C9.875 11.2324 9.83727 8.23613 9.83398 7.71098C9.83378 7.678 9.82943 7.67121 9.83203 7.67582ZM14.1895 24.7032C5.54639 29.9569 9.84217 42.6393 20.1387 42.67C22.9895 42.6608 26.6476 42.0435 29.1914 39.0352C26.9605 37.8159 26.1066 36.2568 26.1055 34.3848C26.105 31.3033 29.0302 29.1491 31.3242 29.3692C34.273 29.5887 36.4771 31.8048 36.2266 34.5411C36.2271 37.6211 33.4293 39.3996 31.3867 39.4317C31.0929 39.4297 30.2997 39.3111 30.0098 39.2637C27.2948 42.2916 23.9111 43.3591 20.1387 43.3711C9.84603 42.8394 4.5139 32.1915 12.4824 24.7344L14.1895 24.7032ZM31.2617 29.9805C28.4931 29.8862 26.6665 32.2274 26.6641 34.3848C26.6621 36.5452 28.7712 39.0475 31.293 38.8907C33.4702 38.8901 35.8906 36.982 35.8574 34.4161C35.6987 31.4469 33.4346 30.0545 31.2617 29.9805ZM31.2305 30.5118C33.4046 30.5123 35.1675 32.2594 35.1699 34.4161C35.1718 36.5757 33.4077 38.3276 31.2305 38.3282C29.0525 38.3287 27.2871 36.5765 27.2891 34.4161C27.2915 32.2587 29.0556 30.5112 31.2305 30.5118ZM31.2305 30.9258C30.9912 30.9258 30.7969 31.1674 30.7969 31.4688V33.709C30.5297 33.7782 30.3659 33.9056 30.3672 34.043C30.369 34.1791 30.5324 34.3046 30.7969 34.3731V34.6446C30.7969 34.946 30.9912 35.1875 31.2305 35.1875C31.4697 35.1875 31.6602 34.946 31.6602 34.6446V34.3789C31.9317 34.3103 32.0989 34.1819 32.0977 34.043C32.0973 33.9048 31.9303 33.7774 31.6602 33.709V31.4688C31.6602 31.1674 31.4697 30.9258 31.2305 30.9258Z" fill="#333333"/>
</svg>
