<svg width="48" height="48" viewBox="0 0 48 48" fill="none" xmlns="http://www.w3.org/2000/svg">
<path d="M24.056 5.10413C22.9212 5.10413 22.0013 5.9681 22.0013 7.03381C22.0015 7.61416 22.2798 8.1636 22.7591 8.52991H21.4661H21.1966L17.0657 8.51428C14.6892 8.52562 12.8575 9.84619 12.8548 12.649L12.8528 16.7135C13.5558 20.6643 13.9631 24.8391 12.8528 30.7682L12.8606 33.4889C12.9771 36.0759 14.4119 37.526 16.8899 37.526H21.3899V38.8854C21.3899 39.6663 21.9474 40.1354 22.6399 40.1354H23.2395V42.5729H24.9895V40.1354H25.6594C26.4072 40.1354 26.9094 39.8209 26.9094 38.8854V37.526H27.3118H31.4075C33.6355 37.526 35.4529 35.92 35.4602 33.692L35.47 30.7682C34.6234 25.9684 34.476 21.1803 35.4602 16.7135L35.4289 12.5397C35.4112 10.1681 34.0884 8.50269 31.4075 8.51819L26.9328 8.526V8.53381H25.3606C25.8366 8.16719 26.1125 7.6197 26.1125 7.04162C26.1125 5.97591 25.1926 5.11193 24.0578 5.11193L24.056 5.10413ZM24.056 5.59631C24.8671 5.59631 25.5247 6.23992 25.5247 7.03381C25.5247 7.82774 24.8671 8.47131 24.056 8.47131C23.2448 8.47131 22.5872 7.82774 22.5872 7.03381C22.5872 6.23992 23.2448 5.59631 24.056 5.59631ZM17.0657 9.02209L22.2278 9.02404L25.7806 9.04553L31.4661 9.02404C34.2672 9.06184 34.9431 10.8828 34.9212 13.2565L34.9329 16.7096C33.7292 22.194 34.1745 26.2933 34.9368 30.7643L34.9583 33.5416C34.9322 35.2855 33.5147 37.0804 30.5169 37.0201C29.1673 36.9937 27.888 37.012 26.4915 37.0045L21.4915 37.0123L17.5266 37.0162C16.3083 37.0147 14.9491 36.8212 14.3274 35.983C13.4861 34.8484 13.5131 34.4519 13.3626 33.1705L13.3509 30.7643C14.6693 24.3077 14.0029 20.419 13.4192 16.7096L13.3528 13.1451C13.3148 10.4513 14.8511 8.99002 17.0657 9.02207L17.0657 9.02209ZM15.4544 14.9069V22.2096H16.9583V19.5358H18.1575L19.5267 22.2096H21.1419V22.1393L19.5618 19.1549C19.9998 18.9577 20.3264 18.6949 20.5403 18.3639C20.7577 18.0296 20.8665 17.6121 20.8665 17.1139C20.8665 16.4118 20.6315 15.8695 20.1634 15.485C19.6953 15.1005 19.0299 14.9069 18.1673 14.9069H15.4544ZM22.0149 14.9069V22.2096H23.5188V19.0807H26.4524V22.2096H27.9563V14.9069H26.4524V17.8658H23.5188V14.9069H22.0149ZM22.4954 15.3658H22.9993V18.2194H26.9524V15.4069H27.4563V21.7057H26.9524V18.7233H22.9993V21.6647H22.4954V15.3658ZM16.2903 15.4069H18.5442C20.7501 15.3625 20.9953 18.2637 19.1536 18.9811C19.0462 19.0455 19.109 18.9977 19.0462 19.0455L20.4388 21.7096L19.8177 21.7076L18.4759 19.0455H16.4583V21.7095H15.9544V15.4107H16.2903V15.4069ZM16.4583 15.5905V18.8229H18.6829C18.7653 18.8198 18.6277 18.8302 18.7239 18.8268C20.9219 17.8076 19.7004 15.5902 18.3763 15.5905L16.4583 15.5905ZM16.9583 16.1256H18.1673C18.5719 16.1256 18.8718 16.2252 19.0657 16.4225C19.263 16.6198 19.3606 16.8906 19.3606 17.235C19.3606 17.5727 19.2574 17.8379 19.0501 18.0319C18.8428 18.2224 18.5509 18.319 18.1731 18.319H16.9583V16.1256ZM30.1438 17.4479L30.1556 18.3854H29.2024L29.2063 19.8229L30.1321 19.819L30.1438 20.7741L31.5813 20.7819L31.5754 19.8209L32.5168 19.8189L32.5227 19.317V18.3892L31.5677 18.3912L31.5716 17.4537L30.1438 17.4479ZM31.0774 17.944L31.0794 18.8912L32.0208 18.8873V19.3287L31.0677 19.3248L31.0775 20.2858H30.6205L30.6244 19.3248L29.6927 19.3326V18.8912L30.6361 18.8932L30.6439 17.9479L31.0774 17.944ZM15.8196 24.8737C15.8139 25.303 15.8203 25.2354 15.8196 25.3737H32.5345V24.8737H15.8196ZM28.2747 27.4244C28.0566 27.4216 27.9219 27.4427 27.6673 27.4616C26.3227 27.6358 24.9203 28.1795 24.0892 28.4616C21.6735 29.2812 20.2235 30.5223 14.8411 30.7662L14.8313 32.6139C14.86 34.6997 16.2603 36.0592 18.1458 36.0592H21.6106H26.2825H30.0891C32.306 35.9931 33.3196 34.5308 33.4446 33.1686L33.4466 30.7662C32.9479 29.8943 31.621 28.6297 31.1263 28.3092C30.2578 27.7355 29.252 27.417 28.2747 27.4244H28.2747ZM28.0599 27.9323C29.4372 27.8676 30.2988 28.3195 31.1185 28.8932C31.5854 29.2492 32.6451 30.3904 32.9466 30.7662V32.7408C32.939 34.5203 31.5564 35.5183 30.1106 35.5397C28.3598 35.5586 26.6203 35.5479 24.2884 35.5592C21.4774 35.5592 19.3012 35.5919 17.9368 35.5768C17.0335 35.5806 15.7964 34.8157 15.4583 33.6022C15.2555 32.8862 15.2898 31.8426 15.2903 31.1803C16.7316 31.1652 18.2025 30.893 19.388 30.6686C21.2567 30.2599 22.6651 29.5036 24.0911 28.9596C25.4452 28.4431 27.0834 27.9343 28.0599 27.9323ZM21.9036 37.5221H26.388V38.192C26.388 38.1955 26.39 38.1999 26.39 38.2037V38.4791C26.39 39.4494 26.2964 39.6315 25.2376 39.6315L24.4798 39.6276L24.4837 42.0729L23.7415 42.069L23.7533 39.6276L23.0462 39.6315C22.3411 39.6353 21.9037 39.5801 21.9037 38.4772V38.442V38.1998L21.9036 37.5221Z" fill="#333333"/>
</svg>
