<svg width="48" height="48" viewBox="0 0 48 48" fill="none" xmlns="http://www.w3.org/2000/svg">
<path d="M23.8986 5.52429C22.7636 5.52429 21.8436 6.38828 21.8436 7.45397C21.8436 8.03436 22.1216 8.58375 22.6016 8.95005H21.3086H21.0386L16.9076 8.93445C14.5317 8.94575 12.6997 10.2666 12.6967 13.0696L12.6947 17.1335C13.3977 21.0845 13.8057 25.2594 12.6947 31.1884L12.7027 33.9083C12.8197 36.4953 14.2547 37.9463 16.7327 37.9463H21.2326V39.3053C21.2326 40.0863 21.7896 40.5553 22.4826 40.5553H23.0816V42.9922H24.8315V40.5553H25.5015C26.2495 40.5553 26.7515 40.2403 26.7515 39.3053V37.9463H27.1535H31.2495C33.4774 37.9463 35.2954 36.3393 35.3024 34.1123L35.3124 31.1884C34.4654 26.3884 34.3184 21.6005 35.3024 17.1335L35.2714 12.9596C35.2534 10.5886 33.9304 8.92285 31.2495 8.93835L26.7745 8.94615V8.95395H25.2025C25.6785 8.58735 25.9545 8.03986 25.9545 7.46177C25.9545 6.39608 25.0345 5.53209 23.8996 5.53209L23.8986 5.52429ZM23.8986 6.01649C24.7096 6.01649 25.3665 6.66008 25.3665 7.45397C25.3665 8.24786 24.7096 8.89145 23.8986 8.89145C23.0866 8.89145 22.4296 8.24786 22.4296 7.45397C22.4296 6.66008 23.0866 6.01649 23.8986 6.01649ZM16.9076 9.44224L22.0696 9.44414L25.6225 9.46564L31.3085 9.44414C34.1094 9.48194 34.7854 11.3026 34.7634 13.6766L34.7744 17.1295C33.5714 22.6135 34.0164 26.7134 34.7784 31.1844L34.8004 33.9613C34.7744 35.7053 33.3564 37.5003 30.3585 37.4403C29.0095 37.4133 27.7305 37.4323 26.3335 37.4243L21.3336 37.4323L17.3686 37.4363C16.1507 37.4343 14.7917 37.2413 14.1697 36.4033C13.3287 35.2683 13.3557 34.8713 13.2047 33.5903L13.1927 31.1844C14.5117 24.7275 13.8457 20.8395 13.2617 17.1295L13.1947 13.5656C13.1567 10.8716 14.6937 9.41014 16.9076 9.44224ZM22.4586 15.2376V22.6295H25.2965C26.1255 22.6225 26.7645 22.4365 27.2125 22.0705C27.6605 21.7055 27.8845 21.1665 27.8845 20.4555C27.8775 19.6035 27.4915 18.8685 27.0245 18.8055C27.6365 18.4215 27.6975 17.8635 27.7185 17.2645C27.5955 15.3506 26.1815 15.2246 25.0155 15.2376H22.4586ZM22.4586 22.6295C22.2736 22.1355 22.0606 21.5655 21.8886 21.1065L19.7266 15.3266H18.3316L15.6127 22.6295H17.1616L17.6596 21.3675H20.4546L20.9416 22.6295H22.4586ZM22.9506 15.7196H23.3006H23.4726H25.4505V15.7216C26.4375 15.7446 26.7305 16.0076 26.9785 16.5556C27.1255 17.0085 27.2095 17.8685 26.8475 18.3775C26.6795 18.6135 26.4205 18.7645 26.0715 18.8485C27.0005 18.9825 27.2965 19.6135 27.3065 20.3735C27.3165 21.2005 26.8365 22.1265 25.3765 22.1375H22.9506V22.0165V21.8995V15.7196ZM18.6696 15.8266H19.0306H19.3826L21.7336 22.1235L21.2946 22.1255L20.7966 20.8585L17.3396 20.8695L16.8497 22.1125L16.2867 22.1235L17.1286 19.9945L18.6696 15.8266ZM23.4726 15.9886L23.4806 18.7895H25.3235C26.2325 18.7155 26.6835 18.2155 26.7165 17.4855C26.7575 16.5736 26.3935 15.9436 25.2375 15.9886H23.4726ZM19.1306 16.2726C19.0296 16.2696 19.0746 16.2736 18.9746 16.2746C18.8926 16.4976 18.7356 16.9515 18.6516 17.1745L18.0526 18.8035L17.4486 20.4285L20.6616 20.4265L19.1306 16.2726ZM23.9626 16.4716H25.0155C25.4295 16.4716 25.7775 16.4796 25.9685 16.6296C26.1625 16.7756 26.2145 17.0815 26.2145 17.4165C26.2145 18.0155 25.8345 18.3235 25.0755 18.3365H23.9626V16.4716ZM19.0406 17.4945L19.9446 19.9305L18.1556 19.9265L18.5606 18.8545L19.0406 17.4945ZM29.4505 17.6155L29.4625 18.5535H28.5095L28.5135 19.9905L29.4395 19.9875L29.4505 20.9425L30.8885 20.9475L30.8825 19.9875L31.8235 19.9855L31.8295 19.4835V18.5555L30.8745 18.5575L30.8785 17.6195L29.4505 17.6155ZM30.3845 18.1125L30.3865 19.0595L31.3275 19.0555V19.4965L30.3745 19.4925L30.3845 20.4535H29.9275L29.9315 19.4925L28.9995 19.5005V19.0595L29.9425 19.0615L29.9505 18.1155L30.3845 18.1125ZM25.4215 18.9575L23.4726 18.9655V21.8995H25.3495C25.4875 21.8875 25.6895 21.8725 25.9395 21.7895C27.3255 21.4105 27.4915 19.0065 25.4215 18.9575ZM23.9626 19.4105H25.3415C26.0335 19.4225 26.4275 19.7635 26.4275 20.4405C26.4275 20.7415 26.2805 20.9805 26.0795 21.1535C25.8825 21.3215 25.6055 21.4045 25.2515 21.4045H23.9626V19.4105ZM15.6617 25.2934C15.6567 25.7234 15.6627 25.6554 15.6617 25.7934H32.3765V25.2934H15.6617ZM28.1165 27.8484C27.8985 27.8454 27.7635 27.8664 27.5095 27.8854C26.1645 28.0594 24.7626 28.6034 23.9316 28.8854C21.5156 29.7054 20.0656 30.9464 14.6837 31.1904L14.6737 33.0373C14.7027 35.1233 16.1027 36.4833 17.9876 36.4833H21.4526H26.1245H29.9315C32.1485 36.4163 33.1614 34.9543 33.2864 33.5923L33.2884 31.1904C32.7895 30.3184 31.4635 29.0534 30.9685 28.7334C30.0995 28.1594 29.0945 27.8404 28.1165 27.8484ZM27.9015 28.3564C29.2795 28.2914 30.1405 28.7434 30.9605 29.3174C31.4275 29.6734 32.4875 30.8144 32.7885 31.1904V33.1643C32.7815 34.9443 31.3985 35.9423 29.9525 35.9633C28.2015 35.9823 26.4625 35.9713 24.1306 35.9833C21.3196 35.9833 19.1436 36.0153 17.7786 36.0003C16.8756 36.0043 15.6387 35.2393 15.3007 34.0263C15.0977 33.3103 15.1317 32.2664 15.1327 31.6044C16.5737 31.5894 18.0446 31.3164 19.2306 31.0924C21.0986 30.6834 22.5076 29.9274 23.9336 29.3834C25.2875 28.8664 26.9255 28.3584 27.9015 28.3564ZM21.7456 37.9423H26.2305V38.6123C26.2305 38.6153 26.2325 38.6193 26.2325 38.6233V38.8993C26.2325 39.8693 26.1385 40.0513 25.0795 40.0513L24.3216 40.0473L24.3256 42.4922L23.5836 42.4882L23.5956 40.0473L22.8886 40.0513C22.1836 40.0553 21.7456 40.0003 21.7456 38.8973V38.8623V38.6193V37.9423Z" fill="#333333"/>
</svg>
