<svg width="48" height="48" viewBox="0 0 48 48" fill="none" xmlns="http://www.w3.org/2000/svg">
<g clip-path="url(#clip0)">
<path fill-rule="evenodd" clip-rule="evenodd" d="M0.189453 -0.142578V47.8574H48.1895V-0.142578H0.189453ZM24.123 5.11133L24.125 5.125C24.834 5.125 25.4591 5.46327 25.8281 5.97656C25.8291 5.97736 25.8291 5.97927 25.8301 5.98047C25.9261 6.11397 25.9967 6.26142 26.0547 6.41602C26.0727 6.46251 26.0876 6.50864 26.1016 6.55664C26.1446 6.70804 26.1728 6.86415 26.1758 7.02734C26.1758 7.03114 26.1767 7.03556 26.1777 7.03906C26.1787 7.04286 26.1816 7.04914 26.1816 7.05664C26.1816 7.07294 26.1748 7.0806 26.1738 7.0957V7.09961C26.1698 7.26241 26.1397 7.42042 26.0937 7.57422V7.57617C26.0927 7.57987 26.0928 7.58409 26.0918 7.58789C26.0828 7.61579 26.0725 7.64352 26.0625 7.66992C26.0595 7.67752 26.0538 7.68195 26.0508 7.68945V7.69141C25.9958 7.8363 25.9249 7.97266 25.8359 8.10156C25.8329 8.10526 25.8301 8.11339 25.8281 8.11719H29.5996V8.11914L31.7227 8.11523C34.5096 8.09933 35.8863 9.81815 35.9043 12.2617L35.9375 16.5605C34.9135 21.1625 35.0673 26.0961 35.9473 31.041L35.9375 34.0527C35.9295 36.3477 34.0386 38.0039 31.7227 38.0039H29.3418V37.9961H26.9785V38.9023C26.9785 39.8373 26.4755 40.1523 25.7285 40.1523H25.0586V42.5898H23.3086V42.582H23.3066V42.5801V40.1484H22.709C22.546 40.1484 22.3959 40.1145 22.2539 40.0645C22.2329 40.0565 22.2134 40.049 22.1934 40.041C22.0634 39.988 21.9428 39.9163 21.8418 39.8223C21.7788 39.7653 21.7189 39.7029 21.6699 39.6309V39.6289C21.6259 39.5649 21.5876 39.4969 21.5566 39.4219C21.5556 39.4209 21.5547 39.419 21.5547 39.418C21.5237 39.343 21.5014 39.2598 21.4844 39.1738C21.4674 39.0848 21.457 38.9916 21.457 38.8926V38.8906V37.9902H19.0937V37.998H16.6289C14.0529 37.998 12.5605 36.5039 12.4395 33.8379L12.4316 31.0352C13.5856 24.9262 13.1626 20.6256 12.4316 16.5547L12.4336 12.3672C12.4356 9.47982 14.3415 8.11677 16.8125 8.10547L18.6094 8.11328H22.4258C22.4238 8.10568 22.421 8.10146 22.418 8.09766L22.416 8.0957C22.323 7.9633 22.2513 7.82147 22.1953 7.67188L22.1934 7.66992C22.1924 7.66612 22.1885 7.66396 22.1875 7.66016C22.1785 7.63716 22.1701 7.6145 22.1621 7.5918C22.1611 7.588 22.1612 7.58318 22.1602 7.58008V7.57812C22.1072 7.40713 22.0713 7.23103 22.0703 7.04883C22.0703 7.04503 22.0684 7.04372 22.0684 7.04102C22.0684 5.97533 22.9881 5.11133 24.123 5.11133ZM24.1016 5.87109C23.9415 5.87109 23.783 5.90099 23.6352 5.95909C23.4873 6.0172 23.3529 6.10236 23.2398 6.20973C23.1266 6.3171 23.0368 6.44457 22.9756 6.58486C22.9143 6.72514 22.8828 6.8755 22.8828 7.02734C22.8827 7.27456 22.966 7.51532 23.1207 7.71428C23.2754 7.91324 23.4932 8.05992 23.7422 8.13281H24.4531C24.7036 8.06124 24.9231 7.91511 25.0793 7.71604C25.2354 7.51696 25.32 7.2755 25.3203 7.02734C25.3203 6.8755 25.2888 6.72514 25.2276 6.58486C25.1663 6.44457 25.0765 6.3171 24.9634 6.20973C24.8502 6.10236 24.7158 6.0172 24.568 5.95909C24.4201 5.90099 24.2616 5.87109 24.1016 5.87109ZM17.1348 9.03711V9.03906C16.0278 9.02306 15.0896 9.38043 14.4336 10.0781C14.2696 10.2531 14.1231 10.4481 13.9961 10.6641V10.666C13.8691 10.882 13.7598 11.118 13.6738 11.375V11.377C13.5878 11.6339 13.5225 11.912 13.4805 12.209V12.2109C13.4375 12.5079 13.4169 12.8242 13.4219 13.1602L13.4883 16.7246V16.7266C13.6343 17.6495 13.7852 18.5873 13.9082 19.5703C13.9092 19.5763 13.9102 19.5761 13.9102 19.5781V19.5801C13.9722 20.0731 14.0263 20.5776 14.0703 21.0996V21.1016C14.1153 21.6236 14.15 22.1627 14.168 22.7227V22.7246C14.187 23.2846 14.1908 23.8647 14.1758 24.4727V24.4746C14.1608 25.0826 14.1254 25.7159 14.0684 26.3809V26.3828C14.0124 27.0478 13.9332 27.7436 13.8262 28.4746V28.4766C13.7202 29.2076 13.5849 29.9733 13.4199 30.7793L13.4316 33.1855V33.1875C13.5696 34.3635 13.5941 34.8197 14.2461 35.7637C14.2891 35.8257 14.3143 35.8725 14.3633 35.9395C14.3973 35.9805 14.4289 36.0165 14.4629 36.0605C14.5009 36.1055 14.54 36.1485 14.582 36.1895C14.648 36.2545 14.7189 36.3161 14.7949 36.3711C14.7999 36.3751 14.8036 36.3779 14.8086 36.3809C14.8286 36.3959 14.8501 36.4108 14.8711 36.4258C14.8721 36.4268 14.874 36.4267 14.875 36.4277C14.948 36.4767 15.0235 36.5205 15.1035 36.5625C15.1055 36.5635 15.1074 36.5644 15.1094 36.5664C15.1344 36.5774 15.1595 36.5896 15.1855 36.6016C15.3835 36.6966 15.6011 36.7711 15.8281 36.8301C15.8301 36.8311 15.831 36.832 15.832 36.832C15.875 36.844 15.9228 36.8415 15.9668 36.8535C16.2048 36.9065 16.4492 36.9535 16.6992 36.9805C16.9982 37.0085 17.2998 37.0224 17.5937 37.0234L21.5586 37.0195L26.5586 37.0117C27.9546 37.0187 29.234 37.0003 30.584 37.0273C33.207 37.0793 34.6202 35.7122 34.9492 34.2012C34.9962 33.9862 35.0224 33.7668 35.0254 33.5488L35.0039 30.7715C34.8139 29.6565 34.6437 28.5647 34.5137 27.4687C34.3997 26.5068 34.3251 25.5387 34.2871 24.5527C34.2821 24.4097 34.2686 24.269 34.2656 24.125V24.123C34.2506 23.5561 34.2515 22.9805 34.2715 22.3945C34.3075 21.2865 34.4137 20.1339 34.5957 18.9219C34.6057 18.8509 34.612 18.7849 34.623 18.7129V18.709C34.725 18.064 34.85 17.4028 35 16.7168L34.9883 13.2637C34.9913 12.9667 34.9829 12.6793 34.9609 12.4023C34.9389 12.1273 34.9045 11.8633 34.8535 11.6133C34.8525 11.6093 34.8516 11.6094 34.8516 11.6074C34.7996 11.3574 34.7305 11.1214 34.6445 10.9004C34.6385 10.8854 34.631 10.8744 34.625 10.8594C34.554 10.6824 34.4671 10.5202 34.3691 10.3652C34.3371 10.3152 34.3045 10.2628 34.2695 10.2148C34.1615 10.0658 34.0413 9.92859 33.9023 9.80469C33.8593 9.76609 33.8077 9.73496 33.7617 9.69727C33.6447 9.60617 33.515 9.52447 33.377 9.45117C33.315 9.41827 33.2555 9.38372 33.1895 9.35352C33.0105 9.27532 32.8116 9.21396 32.5996 9.16406C32.5066 9.14336 32.4095 9.12447 32.3105 9.10938C32.1375 9.08098 31.9518 9.06599 31.7578 9.05469C31.6828 9.05089 31.6142 9.04016 31.5352 9.03906L25.8496 9.06055L22.2969 9.03906L17.1348 9.03711ZM21.2969 14.8242H23.8535C25.0195 14.8122 26.4336 14.9376 26.5566 16.8516C26.5356 17.4506 26.4753 18.0086 25.8633 18.3926C26.3303 18.4556 26.7157 19.191 26.7227 20.043C26.7227 20.754 26.4988 21.2932 26.0508 21.6582C25.7148 21.9332 25.2707 22.1047 24.7207 22.1777C24.5367 22.2017 24.3418 22.2148 24.1348 22.2168H21.2969V21.9941V14.8242ZM22.8008 16.0586V17.9238H23.9141C24.1041 17.9208 24.2701 17.9013 24.4121 17.8613C24.8391 17.7403 25.0527 17.4529 25.0527 17.0039C25.0527 16.6689 25.0006 16.3618 24.8066 16.2168C24.7586 16.1788 24.7008 16.1519 24.6348 16.1289C24.4368 16.0629 24.1645 16.0586 23.8535 16.0586H22.8008ZM29.0332 17.418L30.4609 17.4199L30.457 18.3594L31.4121 18.3555V18.3633V18.3691H31.4141V19.2871L31.4082 19.7891L30.9375 19.791H30.4648L30.4707 20.75L29.0332 20.7422L29.0215 19.791H28.0996H28.0957V19.7891V19.7812H28.0938V19.2852L28.0918 18.375V18.3633V18.3555L29.0449 18.3574L29.0332 17.418ZM22.8008 18.998V20.9922H24.0898C24.4438 20.9922 24.721 20.9092 24.918 20.7402C25.119 20.5682 25.2656 20.3303 25.2656 20.0293C25.2656 19.3523 24.8717 19.01 24.1797 18.998H22.8008ZM15.8555 24.5293H32.6055V25.6758H15.8555V24.5293ZM28.4434 27.4512C29.9703 27.4712 30.6534 27.9703 31.1934 28.3203C31.6884 28.6413 33.0147 29.9073 33.5137 30.7793L33.5117 33.1797C33.3867 34.5417 32.3732 36.0043 30.1562 36.0703H26.3496H21.6777H17.8691C15.9842 36.0703 14.9061 34.5555 14.9141 32.6465L14.9219 30.7988C20.3038 30.5548 21.7413 29.2926 24.1562 28.4727C24.9882 28.1907 26.3904 27.6467 27.7344 27.4727C27.9894 27.4517 28.2254 27.4492 28.4434 27.4512Z" fill="#333333"/>
</g>
<defs>
<clipPath id="clip0">
<rect width="48" height="48" fill="white"/>
</clipPath>
</defs>
</svg>
