<svg width="48" height="48" viewBox="0 0 48 48" fill="none" xmlns="http://www.w3.org/2000/svg">
<path fill-rule="evenodd" clip-rule="evenodd" d="M23.9396 5.50732C22.8048 5.50732 21.8849 6.37128 21.8849 7.437C21.885 7.62302 21.922 7.80336 21.9767 7.97801C21.9847 8.00126 21.9936 8.02343 22.0021 8.04637C22.0615 8.21282 22.1431 8.3697 22.2482 8.51512C22.2492 8.51704 22.2511 8.51906 22.2521 8.52098H18.7404L16.6272 8.50926C14.1563 8.52059 12.2511 9.86754 12.2483 12.7553L12.2463 16.9428C12.9772 21.0133 13.4007 25.3142 12.2463 31.4226L12.2541 34.2252C12.3752 36.8907 13.8672 38.3854 16.4436 38.3854H18.9083V38.3795H21.2735V39.2857C21.2735 40.0666 21.831 40.5357 22.5235 40.5357H23.1231V42.9732H24.8731V40.5357H25.543C26.2907 40.5357 26.793 40.2213 26.793 39.2857V38.3795H29.1562V38.3854H31.5371C33.8535 38.3854 35.7443 36.7298 35.7518 34.4342L35.7616 31.4226C34.8814 26.4772 34.7288 21.5445 35.7518 16.9428L35.7186 12.644C35.6996 10.201 34.3237 8.50936 31.5357 8.52526L29.2117 8.52326H25.6298L25.6318 8.52131C25.7365 8.37657 25.8164 8.22011 25.8759 8.05451C25.8862 8.02702 25.8962 8.00041 25.9052 7.97248C25.9579 7.80068 25.995 7.62388 25.995 7.44124C25.995 6.64256 25.4777 5.95726 24.7412 5.66396H24.7392C24.4942 5.56636 24.2242 5.51166 23.9412 5.51166L23.9396 5.50732ZM23.9161 6.25926C24.5892 6.25926 25.1349 6.77693 25.1349 7.41545C25.1342 7.92495 24.782 8.37394 24.2677 8.52094H23.5558C23.0448 8.37134 22.6958 7.92294 22.6958 7.41545C22.6958 6.77688 23.2414 6.25916 23.9146 6.25926H23.9161ZM16.9494 9.42522L22.1115 9.42718L25.6641 9.45061L31.3495 9.42718C34.1506 9.46497 34.8265 11.286 34.8046 13.6595L34.8163 17.1126C33.6126 22.5969 34.0577 26.6962 34.8202 31.1674L34.8417 33.9447C34.8156 35.6885 33.3981 37.4834 30.4004 37.4231C29.0508 37.3967 27.7715 37.415 26.375 37.4075L21.3751 37.4153L17.4103 37.4192C17.1855 37.4189 16.9552 37.4046 16.7267 37.3879C16.6693 37.3837 16.6121 37.3876 16.5549 37.382C16.5539 37.3819 16.552 37.3822 16.551 37.382C16.347 37.3626 16.1517 37.3223 15.9553 37.2844C15.8718 37.2686 15.7844 37.2591 15.7033 37.2395C15.1772 37.11 14.7056 36.8983 14.3732 36.5598H14.3712C14.3599 36.5483 14.349 36.5365 14.338 36.5246C14.3206 36.505 14.3003 36.4814 14.299 36.4797V36.4777C14.2486 36.4104 14.2121 36.3741 14.1642 36.3136C13.3846 35.2416 13.3929 34.8238 13.2463 33.5754V33.5734L13.2345 31.1672C13.3992 30.3608 13.534 29.5954 13.6408 28.8645V28.8625C13.7475 28.1317 13.8261 27.4355 13.883 26.7708V26.7688C13.9398 26.1042 13.9753 25.4703 13.9904 24.8626V24.8606C14.0055 24.253 14.0014 23.6727 13.9826 23.1126V23.1106C13.9639 22.5506 13.9292 22.0114 13.8849 21.4895V21.4875C13.8406 20.9657 13.7866 20.4609 13.7248 19.9681V19.9661C13.6009 18.9796 13.4487 18.0413 13.3029 17.1145V17.1125L13.2365 13.548C13.2315 13.212 13.2526 12.896 13.2951 12.5988V12.5968C13.3377 12.2998 13.4021 12.022 13.4884 11.7648V11.7628C13.5748 11.5057 13.684 11.27 13.8107 11.0538V11.0499C13.9375 10.8338 14.0846 10.6382 14.2482 10.464C14.9043 9.76598 15.8421 9.40892 16.9494 9.42491V9.42522ZM22.549 15.1537V22.5462H25.3868C26.216 22.5386 26.8548 22.353 27.3028 21.9876C27.7508 21.6221 27.9747 21.0829 27.9747 20.3724C27.9677 19.52 27.5816 18.7848 27.1153 18.722C27.7272 18.3385 27.7881 17.7806 27.8087 17.181C27.6859 15.2669 26.272 15.1414 25.1056 15.1538L22.549 15.1537ZM22.549 22.5462C22.3635 22.052 22.1508 21.4826 21.9787 21.0228L19.8147 15.2429H18.4202L15.7014 22.5455H17.2502L17.7483 21.2838H20.5431L21.0294 22.5455L22.549 22.5462ZM23.5606 16.2845H23.5626V21.4701H23.5606V16.2845ZM24.0528 16.3881H25.1055C25.5201 16.3881 25.8681 16.3955 26.0586 16.5463C26.2526 16.6918 26.3047 16.9983 26.3047 17.3334C26.3047 17.9323 25.925 18.2397 25.166 18.2533H24.0527L24.0528 16.3881ZM19.131 17.4114L20.0353 19.8469L18.2462 19.8449L18.6505 18.7726L19.131 17.4114ZM28.7403 18.5325L28.7442 19.4563H28.7422V19.9524H28.7461V19.9563H30.1602V19.9524H30.6113V19.9563H31.584L32.0547 19.9524L32.0606 19.4505V18.5325H28.7481H28.7403ZM25.4337 18.8431H25.4845V18.8509C25.4667 18.8499 25.452 18.8469 25.4337 18.8431ZM24.0528 19.3275H25.4317C26.1238 19.3388 26.4708 19.6801 26.4708 20.3567C26.4708 20.658 26.3706 20.897 26.17 21.0696C25.9728 21.2386 25.6963 21.3216 25.3419 21.3216H24.0528V19.3275ZM15.6701 24.9153V26.0637H32.4199V24.9153H15.6701ZM28.26 27.8429C28.0419 27.8401 27.8056 27.8452 27.551 27.8664C26.2064 28.0406 24.8041 28.5843 23.9729 28.8664C21.5573 29.686 20.121 30.9485 14.7387 31.1925L14.7328 33.0402C14.7249 34.9493 15.8005 36.464 17.6858 36.464H29.9727C32.1895 36.3978 33.2031 34.9356 33.3281 33.5734L33.3301 31.1711C32.8314 30.2992 31.5046 29.0347 31.0099 28.7142C30.4691 28.3638 29.7866 27.8644 28.2599 27.845L28.26 27.8429ZM23.3088 40.0308V40.0347H23.2834L23.3088 40.0308Z" fill="#333333"/>
</svg>
