<svg width="48" height="48" viewBox="0 0 48 48" fill="none" xmlns="http://www.w3.org/2000/svg">
<path d="M23.9467 5.25415C22.8117 5.25415 21.8927 6.11804 21.8927 7.18383C21.8927 7.76412 22.1707 8.31351 22.6497 8.67981L21.3567 8.67591H21.0897L16.9588 8.66031C14.5818 8.67171 12.7508 9.99219 12.7478 12.7953L12.7438 16.8592C13.4468 20.8102 13.8538 24.9851 12.7438 30.914L12.7518 33.635C12.8678 36.222 14.3028 37.6719 16.7808 37.6719H21.2807V39.0309C21.2807 39.8119 21.8387 40.2809 22.5307 40.2809H23.1307V42.7189H24.8807V40.2809H25.5507C26.2987 40.2809 26.8007 39.9669 26.8007 39.0309V37.6719H27.2027H31.2986C33.5266 37.6719 35.3436 36.066 35.3516 33.838L35.3606 30.914C34.5146 26.1141 34.3666 21.3261 35.3516 16.8592L35.3196 12.6853C35.3026 10.3143 33.9796 8.64871 31.2986 8.66421L26.8237 8.67201V8.67591H25.2517C25.7277 8.30931 26.0037 7.76182 26.0037 7.18383C26.0037 6.11804 25.0837 5.25415 23.9487 5.25415H23.9467ZM23.9467 5.74634C24.7577 5.74634 25.4157 6.38994 25.4157 7.18383C25.4157 7.97772 24.7577 8.62131 23.9467 8.62131C23.1357 8.62131 22.4797 7.97772 22.4797 7.18383C22.4797 6.38994 23.1357 5.74634 23.9467 5.74634ZM16.9568 9.172L22.1187 9.174L25.6717 9.1974L31.3566 9.174C34.1586 9.2118 34.8336 11.0323 34.8116 13.4062L34.8236 16.8592C33.6196 22.3441 34.0656 26.4431 34.8276 30.914L34.8496 33.691C34.8236 35.435 33.4056 37.2299 30.4076 37.1699C29.0586 37.1429 27.7786 37.162 26.3827 37.154L21.3827 37.162L17.4178 37.166C16.1998 37.164 14.8398 36.971 14.2188 36.133C13.3768 34.998 13.4038 34.602 13.2538 33.32L13.2418 30.914C14.5608 24.4571 13.8938 20.5692 13.3108 16.8592L13.2438 13.2952C13.2058 10.6013 14.7418 9.14 16.9568 9.172ZM23.3337 15.0532L20.6147 22.3551H22.1637L22.6617 21.0942H25.4567L25.9427 22.3551H27.4607L24.7287 15.0532H23.3337ZM23.6717 15.5532H24.0327H24.3867L26.7357 21.8491L26.2967 21.8531L25.7987 20.5862L22.3417 20.5982L21.8177 21.8511H21.3437L22.1307 19.7232L23.6717 15.5532ZM24.1327 15.9982C24.0317 15.9952 24.0767 16.0012 23.9767 16.0022C23.8937 16.2252 23.7377 16.6792 23.6537 16.9022L23.0547 18.5312L22.4507 20.1562L25.6577 20.1402L24.1327 15.9982ZM24.0427 17.2212L24.9467 19.6562L23.1577 19.6542L23.5617 18.5822L24.0427 17.2212ZM28.8566 17.5552L28.8686 18.4922H27.9156L27.9216 19.9302L28.8476 19.9262L28.8586 20.8812L30.2966 20.8892L30.2906 19.9282L31.2316 19.9242L31.2356 19.4222V18.4942L30.2806 18.4982L30.2846 17.5582L28.8566 17.5552ZM29.7906 18.0512L29.7946 18.9982L30.7356 18.9942V19.4352L29.7826 19.4322L29.7926 20.3922H29.3356L29.3376 19.4322L28.4056 19.4392V18.9982L29.3496 19.0002L29.3586 18.0552L29.7906 18.0512ZM15.7108 25.0211C15.7048 25.4511 15.7118 25.3831 15.7108 25.5211H32.4256V25.0211H15.7108ZM28.1656 27.5721C27.9476 27.5691 27.8126 27.5921 27.5587 27.6111C26.2137 27.7851 24.8117 28.3291 23.9797 28.6111C21.5647 29.431 20.1147 30.672 14.7318 30.916L14.7228 32.764C14.7508 34.849 16.1518 36.209 18.0368 36.209H21.5017H26.1737H29.9796C32.1966 36.143 33.2106 34.68 33.3356 33.318L33.3376 30.916C32.8386 30.044 31.5116 28.7791 31.0176 28.4591C30.1486 27.8851 29.1426 27.5671 28.1656 27.5741V27.5721ZM27.9506 28.0801C29.3276 28.0151 30.1896 28.4671 31.0096 29.0411C31.4766 29.397 32.5356 30.538 32.8376 30.914V32.889C32.8296 34.668 31.4476 35.666 30.0016 35.687C28.2506 35.706 26.5117 35.696 24.1797 35.707C21.3687 35.707 19.1928 35.742 17.8278 35.726C16.9248 35.73 15.6878 34.963 15.3498 33.75C15.1468 33.034 15.1808 31.99 15.1818 31.328C16.6228 31.313 18.0938 31.041 19.2788 30.816C21.1477 30.408 22.5557 29.651 23.9817 29.1071C25.3367 28.5911 26.9747 28.0821 27.9506 28.0801ZM21.7947 37.6699H26.2787V38.3399C26.2787 38.3429 26.2827 38.3479 26.2827 38.3509V38.6269C26.2827 39.5969 26.1897 39.7789 25.1307 39.7789L24.3727 39.7749L24.3747 42.2209L23.6327 42.2169L23.6447 39.7749L22.9377 39.7789C22.2317 39.7829 21.7947 39.7299 21.7947 38.6269V38.5939V38.3509V37.6699Z" fill="#333333"/>
</svg>
