<svg width="48" height="48" viewBox="0 0 48 48" fill="none" xmlns="http://www.w3.org/2000/svg">
<path fill-rule="evenodd" clip-rule="evenodd" d="M23.9884 5.25732C22.8536 5.25732 21.9337 6.12128 21.9337 7.187C21.9338 7.37302 21.9708 7.55336 22.0255 7.72801C22.0331 7.75126 22.0424 7.77343 22.0509 7.79637C22.1103 7.96282 22.1919 8.1197 22.297 8.26512C22.2984 8.26704 22.2995 8.26906 22.3009 8.27098H18.7892L16.6759 8.26317C14.2051 8.2745 12.2999 9.61755 12.2971 12.5053L12.2951 16.6928C13.026 20.7633 13.4495 25.0643 12.2951 31.1726L12.301 33.9752C12.4221 36.6407 13.9141 38.1354 16.4905 38.1354H18.9552V38.1295H21.3204V39.0357C21.3204 39.8166 21.8779 40.2857 22.5704 40.2857H23.17V42.7232H24.92V40.2857H25.5899C26.3376 40.2857 26.8399 39.9713 26.8399 39.0357V38.1295H29.2031V38.1354H31.584C33.9004 38.1354 35.7912 36.4798 35.7987 34.1842L35.8105 31.1726C34.9295 26.2276 34.7745 21.2957 35.7985 16.6928L35.7653 12.394C35.7473 9.95104 34.3843 8.25167 31.5973 8.26757L29.2614 8.27148H25.6795L25.6815 8.26953C25.7862 8.12479 25.8661 7.96833 25.9256 7.80273C25.9359 7.77524 25.946 7.74863 25.9549 7.7207C26.0076 7.5489 26.0448 7.3721 26.0448 7.18946C26.0448 6.39078 25.5274 5.70548 24.7909 5.41218H24.7889C24.5429 5.31458 24.2739 5.25988 23.9899 5.25988L23.9884 5.25732ZM23.9649 6.00927C24.638 6.00926 25.1837 6.52693 25.1837 7.16545C25.183 7.67495 24.8308 8.12394 24.3165 8.27094H23.6046C23.0936 8.12124 22.7456 7.67284 22.7456 7.16545C22.7456 6.52688 23.2912 6.00917 23.9643 6.00927H23.9649ZM16.9982 9.17522L22.1603 9.17718L25.7129 9.20061L31.3983 9.17718C34.1994 9.21497 34.8753 11.036 34.8534 13.4095L34.8651 16.8626C33.6614 22.3469 34.1066 26.4462 34.869 30.9174L34.8905 33.6947C34.8644 35.4385 33.4469 37.2334 30.4492 37.1731C29.0996 37.1467 27.8203 37.165 26.4238 37.1575L21.4239 37.1653L17.4591 37.1692C17.2343 37.1689 17.004 37.1546 16.7755 37.1379C16.7181 37.1337 16.6609 37.1355 16.6037 37.1301C16.6024 37.13 16.6011 37.1303 16.5998 37.1301C16.3958 37.1107 16.2005 37.0704 16.0041 37.0325C15.9206 37.0167 15.8332 37.0091 15.7521 36.9895C15.2271 36.8605 14.7551 36.6485 14.4231 36.3095H14.4211C14.4098 36.298 14.3989 36.2862 14.3879 36.2744C14.3705 36.2547 14.3501 36.2311 14.3489 36.2294V36.2274C14.2985 36.1602 14.262 36.1239 14.2141 36.0634C13.4345 34.9913 13.4428 34.5735 13.2962 33.3251V33.3231L13.2844 30.917C13.4491 30.1106 13.5839 29.3452 13.6907 28.6143V28.6123C13.7974 27.8815 13.876 27.1852 13.9329 26.5205V26.5185C13.9897 25.854 14.0252 25.22 14.0403 24.6123V24.6103C14.0554 24.0027 14.0511 23.4224 14.0325 22.8624V22.8585C14.0138 22.2984 13.9791 21.7593 13.9348 21.2374V21.2354C13.8905 20.7136 13.8366 20.2088 13.7747 19.7159V19.7139C13.6508 18.7278 13.4987 17.7894 13.3528 16.8627V16.8607L13.2864 13.2963C13.2817 12.9602 13.3025 12.6442 13.345 12.3471V12.3451C13.3876 12.048 13.452 11.7702 13.5384 11.513V11.511C13.6248 11.254 13.7339 11.0183 13.8606 10.8021V10.8001C13.9875 10.5839 14.1345 10.3884 14.2981 10.2141C14.9543 9.51611 15.8919 9.15906 16.9993 9.17506L16.9982 9.17522ZM23.3751 15.0564L20.6562 22.3583H22.205L22.703 21.0966H25.4979L25.9842 22.3583H27.5018L26.9549 20.8974H26.9315V20.8349L24.7694 15.0557L23.3751 15.0564ZM24.0841 17.2243L24.9884 19.6598L23.1993 19.6578L23.6036 18.5855L24.0841 17.2243ZM29.0431 17.7204V18.5075H27.9572L27.9611 19.4313H27.9591V19.9274H27.963V19.9294H29.0431V20.6325H30.1504V19.9294H30.8008L31.2715 19.9274L31.2774 19.4255V18.5075H30.1504V17.7204H29.0431ZM15.7192 24.6653V25.8137H32.469V24.6653H15.7192ZM28.3091 27.593C28.091 27.5902 27.8547 27.5946 27.6001 27.6145C26.2555 27.7887 24.8532 28.3324 24.022 28.6145C21.6064 29.4341 20.1701 30.6966 14.7878 30.9406L14.7819 32.7883C14.7741 34.6974 15.8495 36.2121 17.7349 36.2121H30.0218C32.2386 36.1459 33.2522 34.6837 33.3772 33.3215L33.3792 30.9192C32.8805 30.0473 31.5536 28.7827 31.059 28.4623C30.5182 28.1119 29.8357 27.6125 28.309 27.5931L28.3091 27.593ZM23.3579 39.7808V39.7828H23.3325L23.3579 39.7808Z" fill="#333333"/>
</svg>
