<?xml version="1.0" encoding="UTF-8" standalone="no"?>
<!-- Created with Inkscape (http://www.inkscape.org/) -->
<svg id="svg8" xmlns:rdf="http://www.w3.org/1999/02/22-rdf-syntax-ns#" xmlns="http://www.w3.org/2000/svg" xmlns:osb="http://www.openswatchbook.org/uri/2009/osb" height="48" width="48" version="1.1" xmlns:cc="http://creativecommons.org/ns#" viewBox="0 0 12.7 12.7" xmlns:dc="http://purl.org/dc/elements/1.1/">
 <title id="title4753">UIO-icon</title>
 <metadata id="metadata5">
  <rdf:RDF>
   <cc:Work rdf:about="">
    <dc:format>image/svg+xml</dc:format>
    <dc:type rdf:resource="http://purl.org/dc/dcmitype/StillImage"/>
    <dc:title>UIO-icon</dc:title>
    <dc:creator>
     <cc:Agent>
      <dc:title>Joaquín Urbano</dc:title>
     </cc:Agent>
    </dc:creator>
    <dc:rights>
     <cc:Agent>
      <dc:title>GPL</dc:title>
     </cc:Agent>
    </dc:rights>
   </cc:Work>
  </rdf:RDF>
 </metadata>
 <g id="layer1" transform="translate(0,-284.3)">
  <path id="path827" d="m14.566 4c-5.8811-0.0002-10.648 4.7669-10.648 10.648 0.0076 2.939 1.2214 5.678 3.1113 8.432h8.1137c2.283-3.25 5.733-11.973 6.15-12.514 0 0 3.856 13.353 4.891 17.805l4.199-6.676h4.654c1.721 0.07 1.658 2.547 0 2.535h-3.414c-2.263 3.41-2.475 3.98-6.107 9.082l-4.475-16.345-4.334 8.65h-7.7597c0.2647 0.327 0.5559 0.659 0.8339 0.988-0.211 0.081-0.418 0.17-0.621 0.266-0.6102 0.289-1.1816 0.64-1.7071 1.053-0.3451 0.271-0.6688 0.565-0.9707 0.883-0.013 0.013-0.0261 0.027-0.039 0.041-0.2895 0.308-0.5587 0.635-0.8028 0.982-0.0089 0.013-0.0185 0.025-0.0273 0.037-0.0793 0.114-0.1525 0.232-0.2266 0.35-0.0681 0.108-0.1356 0.215-0.1992 0.326-0.06 0.105-0.118 0.211-0.1738 0.318-0.0754 0.145-0.1453 0.293-0.2129 0.442-0.04 0.088-0.082 0.175-0.1192 0.265-0.0975 0.236-0.1861 0.474-0.2636 0.719-0.0193 0.061-0.0328 0.124-0.0508 0.186-0.0589 0.201-0.1113 0.404-0.1563 0.611-0.0169 0.078-0.032 0.156-0.0468 0.234-0.039 0.206-0.071 0.413-0.0957 0.623-0.0083 0.071-0.0188 0.14-0.0254 0.211-0.0262 0.28-0.043 0.562-0.043 0.848 0 0.311 0.0161 0.617 0.0469 0.92 0 0.001-0.0001 0.001 0 0.002 0.0615 0.604 0.1823 1.191 0.3574 1.754 0.0002 0-0.0002 0.001 0 0.002 0.1752 0.563 0.4048 1.101 0.6816 1.611 0.0003 0.001-0.0002 0.002 0 0.002 0.1384 0.255 0.2898 0.501 0.4512 0.74 0.0003 0.001-0.0003 0.002 0 0.002 0.1615 0.239 0.3345 0.47 0.5176 0.692 0.0003 0-0.0003 0.001 0 0.002 0.1831 0.221 0.3788 0.433 0.582 0.636 0.2039 0.204 0.4161 0.399 0.6387 0.582 0.2222 0.184 0.4539 0.356 0.6934 0.518 0.2394 0.162 0.4851 0.313 0.7402 0.451 0.5105 0.278 1.051 0.506 1.615 0.682 0.846 0.263 1.744 0.404 2.676 0.404 0.811-0.001 1.606-0.11 2.367-0.318 0.001-0.001 0.002 0 0.002 0 0.76-0.208 1.487-0.516 2.162-0.911 0.208-0.121 0.402-0.264 0.6-0.402 0.124-0.086 0.255-0.161 0.375-0.254 0.001-0.001 0.002-0.003 0.004-0.004 0.079-0.061 0.148-0.135 0.224-0.199 0.224-0.186 0.449-0.372 0.655-0.58 0.555-0.561 1.04-1.199 1.439-1.904 1.093 1.454 2.149 2.964 3.113 4.572 7.514-12.449 20.148-19.998 20.153-29.352 0-5.8811-4.769-10.648-10.651-10.648-3.968 0.0038-7.604 2.2126-9.435 5.7324-1.833-3.5211-5.472-5.7301-9.442-5.7324zm-1.566 23.752c4.004 0 7.25 3.246 7.25 7.25s-3.246 7.25-7.25 7.25c-4.0041 0-7.25-3.246-7.25-7.25s3.2459-7.25 7.25-7.25zm0 1.375c-3.2447 0-5.875 2.63-5.875 5.875h1.375c0-2.485 2.015-4.5 4.5-4.5s4.5 2.015 4.5 4.5h1.375c0-3.245-2.63-5.875-5.875-5.875zm-3.248 2.945l1.928 4.348c-0.219 0.287-0.337 0.637-0.338 0.998 0 0.915 0.743 1.657 1.658 1.656 0.915 0.001 1.658-0.741 1.658-1.656 0.001-0.916-0.742-1.659-1.658-1.658-0.098 0-0.196 0.006-0.293 0.025l-2.955-3.713z" transform="matrix(.26458 0 0 .26458 0 284.3)" fill="#333"/>
 </g>
</svg>
