<svg width="48" height="48" viewBox="0 0 48 48" fill="none" xmlns="http://www.w3.org/2000/svg">
<path d="M23.9356 5.36829C22.8008 5.36829 21.8809 6.23226 21.8809 7.29797C21.881 7.48399 21.918 7.66433 21.9727 7.83899C21.9807 7.86223 21.9896 7.88441 21.9981 7.90735C22.0575 8.0738 22.1391 8.23068 22.2442 8.3761C22.2452 8.37802 22.2471 8.38004 22.2481 8.38196H18.7364L16.6231 8.37024C14.1522 8.38158 12.247 9.72851 12.2442 12.6163L12.2422 16.8038C12.9731 20.8745 13.3966 25.1754 12.2422 31.2843L12.2481 34.087C12.3692 36.7525 13.8612 38.2472 16.4375 38.2472H18.9024V38.2413H21.2676V39.1475C21.2676 39.9285 21.8251 40.3975 22.5176 40.3975H23.1172V42.835H24.8672V40.3975H25.5372C26.2849 40.3975 26.7872 40.0831 26.7872 39.1475V38.2413H29.1504V38.2472H31.5313C33.8477 38.2472 35.7386 36.5916 35.7461 34.296L35.7579 31.2843C34.8776 26.3389 34.723 21.4061 35.7461 16.8038L35.7129 12.505C35.6949 10.0615 34.3206 8.36991 31.5333 8.38586L29.209 8.38391H25.627L25.629 8.38196C25.7337 8.23722 25.8136 8.08076 25.8731 7.91517C25.8834 7.88768 25.8934 7.86106 25.9024 7.83314C25.9551 7.66134 25.9923 7.48453 25.9923 7.30189C25.9923 6.50319 25.475 5.81785 24.7384 5.52454H24.7364C24.4906 5.42687 24.2212 5.37219 23.9375 5.37219L23.9356 5.36829ZM23.9122 6.12024C24.5853 6.12024 25.1309 6.63791 25.1309 7.27649C25.1301 7.786 24.7779 8.23498 24.2637 8.38196H23.5528C23.0417 8.23232 22.6931 7.78397 22.6934 7.27649C22.6934 6.63791 23.2391 6.12024 23.9122 6.12024H23.9122ZM16.9454 9.2843V9.28625L22.1075 9.2882L25.6602 9.31164L31.3457 9.2882C34.1469 9.326 34.8227 11.147 34.8008 13.5206L34.8125 16.9737C33.6088 22.4581 34.0539 26.5575 34.8164 31.0284L34.8379 33.8058C34.8118 35.5497 33.3943 37.3445 30.3965 37.2843C29.047 37.2578 27.7676 37.2762 26.3711 37.2687L21.3711 37.2765L17.4063 37.2804C17.1815 37.2801 16.9511 37.2658 16.7227 37.2491C16.6653 37.2449 16.608 37.2488 16.5508 37.2432C16.5498 37.2431 16.5479 37.2433 16.5469 37.2432C16.3429 37.2237 16.1476 37.1835 15.9512 37.1456C15.8677 37.1298 15.7804 37.1202 15.6993 37.1006C15.1731 36.9712 14.7016 36.7595 14.3692 36.4209H14.3653C14.354 36.4094 14.345 36.3976 14.334 36.3858C14.3166 36.3661 14.2963 36.3426 14.295 36.3409V36.3371C14.2446 36.2698 14.2081 36.2335 14.1602 36.173C13.3806 35.1009 13.3888 34.6831 13.2422 33.4347V33.4327L13.2305 31.0265C13.3952 30.2201 13.53 29.4547 13.6368 28.7237V28.7217C13.7435 27.9909 13.8221 27.2946 13.879 26.6299V26.6279C13.9358 25.9634 13.9712 25.3294 13.9864 24.7217V24.7197C14.0015 24.1121 13.9974 23.5318 13.9786 22.9716V22.9696C13.9599 22.4096 13.9252 21.8704 13.8809 21.3486V21.3466C13.8366 20.8247 13.7826 20.32 13.7208 19.827V19.825C13.5969 18.8386 13.4447 17.9002 13.2989 16.9735V16.9715L13.2325 13.407C13.2275 13.071 13.2486 12.755 13.2911 12.4578V12.4558C13.3337 12.1587 13.3981 11.8809 13.4844 11.6238V11.6218C13.5708 11.3647 13.68 11.129 13.8067 10.9128V10.9089C13.9335 10.6927 14.0806 10.4972 14.2442 10.3229C14.9004 9.6249 15.8381 9.26785 16.9454 9.28387L16.9454 9.2843ZM15.9844 15.1554V22.4581H17.4883V19.7843H18.6875L20.0567 22.4581H21.6719V22.3878L20.0918 19.4034C20.5298 19.2062 20.8565 18.9434 21.0704 18.6124C21.2878 18.2781 21.3965 17.8606 21.3965 17.3624C21.3965 16.6603 21.1615 16.118 20.6934 15.7335C20.2253 15.349 19.5599 15.1554 18.6973 15.1554L15.9844 15.1554ZM22.545 15.1554V22.4581H24.0489V19.3292H26.9825V22.4581H28.4864V15.1554H26.9825V18.1144H24.0489V15.1554H22.545ZM17.4883 16.3741H18.6973C19.1019 16.3741 19.4018 16.4737 19.5957 16.671C19.793 16.8683 19.8907 17.1391 19.8907 17.4835C19.8907 17.8212 19.7874 18.0864 19.5801 18.2804C19.3728 18.4709 19.081 18.5675 18.7032 18.5675H17.4883V16.3741ZM29.7051 18.7472V19.9152H32.5293V18.7472H29.7051ZM15.6661 24.7765V25.9249H32.4161V24.7765H15.6661ZM28.2559 27.7042C28.0378 27.7014 27.8015 27.7065 27.5469 27.7277C26.2024 27.9019 24.8 28.4456 23.9688 28.7277C21.5531 29.5473 20.1168 30.8099 14.7344 31.0538L14.7285 32.9015C14.7206 34.8106 15.7962 36.3253 17.6816 36.3253H21.4902H26.1621H29.9688C32.1856 36.2592 33.1992 34.7969 33.3242 33.4347L33.3262 31.0324C32.8275 30.1604 31.5006 28.8958 31.0059 28.5753C30.4652 28.225 29.7826 27.7255 28.2559 27.7062L28.2559 27.7042ZM23.3047 39.8917V39.8956H23.2793L23.3047 39.8917Z" fill="#333333"/>
</svg>
