<svg width="48" height="48" viewBox="0 0 48 48" fill="none" xmlns="http://www.w3.org/2000/svg">
<path d="M23.8986 5.52441C22.7636 5.52441 21.8436 6.3884 21.8436 7.45409C21.8436 8.03448 22.1216 8.58388 22.6016 8.95017H21.3086H21.0386L16.9076 8.93457C14.5317 8.94587 12.6997 10.2668 12.6967 13.0697L12.6947 17.1337C13.3977 21.0846 13.8057 25.2596 12.6947 31.1885L12.7027 33.9085C12.8197 36.4954 14.2547 37.9464 16.7327 37.9464H21.2326V39.3054C21.2326 40.0864 21.7896 40.5554 22.4826 40.5554H23.0816V42.9923H24.8315V40.5554H25.5015C26.2495 40.5554 26.7515 40.2404 26.7515 39.3054V37.9464H27.1535H31.2495C33.4774 37.9464 35.2954 36.3394 35.3024 34.1125L35.3124 31.1885C34.4654 26.3886 34.3184 21.6006 35.3024 17.1337L35.2714 12.9597C35.2534 10.5888 33.9304 8.92297 31.2495 8.93847L26.7745 8.94627V8.95407H25.2025C25.6785 8.58748 25.9545 8.03998 25.9545 7.46189C25.9545 6.3962 25.0345 5.53221 23.8996 5.53221L23.8986 5.52441ZM23.8986 6.01661C24.7096 6.01661 25.3665 6.6602 25.3665 7.45409C25.3665 8.24798 24.7096 8.89157 23.8986 8.89157C23.0866 8.89157 22.4296 8.24798 22.4296 7.45409C22.4296 6.6602 23.0866 6.01661 23.8986 6.01661ZM16.9076 9.44237L22.0696 9.44426L25.6225 9.46576L31.3085 9.44426C34.1094 9.48206 34.7854 11.3027 34.7634 13.6767L34.7744 17.1297C33.5714 22.6136 34.0164 26.7135 34.7784 31.1845L34.8004 33.9615C34.7744 35.7054 33.3564 37.5004 30.3585 37.4404C29.0095 37.4134 27.7305 37.4324 26.3335 37.4244L21.3336 37.4324L17.3686 37.4364C16.1507 37.4344 14.7917 37.2414 14.1697 36.4034C13.3287 35.2684 13.3557 34.8714 13.2047 33.5905L13.1927 31.1845C14.5117 24.7276 13.8457 20.8396 13.2617 17.1297L13.1947 13.5657C13.1567 10.8717 14.6937 9.41027 16.9076 9.44237ZM21.0716 15.2377V22.4066V22.6296H23.9096C24.7386 22.6226 25.3775 22.4366 25.8255 22.0706C26.2735 21.7056 26.4975 21.1666 26.4975 20.4556C26.4905 19.6036 26.1045 18.8686 25.6385 18.8056C26.2505 18.4217 26.3115 17.8637 26.3315 17.2647C26.2085 15.3507 24.7946 15.2247 23.6286 15.2377H21.0716ZM21.5646 15.7197H21.9136H22.0856H24.0646V15.7217C25.0505 15.7447 25.3445 16.0077 25.5915 16.5557C25.7385 17.0087 25.8225 17.8687 25.4605 18.3777C25.2925 18.6136 25.0345 18.7646 24.6856 18.8486C25.6135 18.9826 25.9095 19.6136 25.9195 20.3736C25.9295 21.2006 25.4495 22.1266 23.9896 22.1376H21.5646V22.0166V21.8996V15.7197ZM22.0856 15.9887L22.0936 18.7896H23.9376C24.8456 18.7156 25.2965 18.2157 25.3295 17.4857C25.3705 16.5737 25.0065 15.9437 23.8516 15.9887H22.0856ZM22.5756 16.4717H23.6286C24.0436 16.4717 24.3916 16.4787 24.5816 16.6297C24.7755 16.7757 24.8275 17.0817 24.8275 17.4167C24.8275 18.0157 24.4486 18.3237 23.6896 18.3367H22.5756V16.4717ZM27.8665 18.7746L27.8705 19.6976H27.8685V20.1946H27.8725V20.1966H28.7985H29.2865V20.1946H29.7375V20.1966H30.7105L31.1815 20.1946L31.1875 19.6926V18.7746H27.8745H27.8665ZM24.0346 18.9576L22.0856 18.9656V21.8996H23.9626C24.1006 21.8876 24.3026 21.8726 24.5526 21.7896C25.9395 21.4106 26.1045 19.0066 24.0346 18.9576ZM28.3575 19.2706H30.6855V19.6976H28.3575V19.2706ZM22.5756 19.4106H23.9546C24.6466 19.4226 25.0405 19.7636 25.0405 20.4406C25.0405 20.7416 24.8935 20.9806 24.6926 21.1536C24.4956 21.3216 24.2196 21.4046 23.8646 21.4046H22.5756V19.4106ZM15.6617 25.2936C15.6567 25.7236 15.6627 25.6556 15.6617 25.7936H32.3765V25.2936H15.6617ZM28.2185 27.8605C28.0005 27.8575 27.8655 27.8785 27.6105 27.8975C26.2665 28.0715 24.8635 28.6155 24.0326 28.8975C21.6176 29.7165 20.1676 30.9575 14.7847 31.2015L14.7747 33.0495C14.8037 35.1354 16.2037 36.4944 18.0896 36.4944H21.5546H26.2265H30.0325C32.2495 36.4284 33.2634 34.9664 33.3884 33.6045L33.3904 31.2015C32.8914 30.3295 31.5645 29.0655 31.0695 28.7445C30.2015 28.1715 29.1955 27.8525 28.2185 27.8605ZM28.0035 28.3675C29.3805 28.3035 30.2425 28.7555 31.0625 29.3285C31.5285 29.6845 32.5885 30.8255 32.8905 31.2015V33.1765C32.8825 34.9554 31.5005 35.9534 30.0545 35.9754C28.3035 35.9944 26.5635 35.9834 24.2326 35.9944C21.4216 35.9944 19.2446 36.0274 17.8806 36.0124C16.9776 36.0164 15.7407 35.2514 15.4017 34.0375C15.1997 33.3215 15.2337 32.2785 15.2337 31.6155C16.6757 31.6005 18.1466 31.3285 19.3316 31.1045C21.2006 30.6955 22.6086 29.9395 24.0346 29.3955C25.3885 28.8785 27.0275 28.3695 28.0035 28.3675ZM21.7456 37.9424H26.2305V38.6124C26.2305 38.6154 26.2325 38.6194 26.2325 38.6234V38.8994C26.2325 39.8694 26.1385 40.0514 25.0795 40.0514L24.3216 40.0474L24.3256 42.4923L23.5836 42.4884L23.5956 40.0474L22.8886 40.0514C22.1836 40.0554 21.7456 40.0004 21.7456 38.8974V38.8624V38.6194V37.9424Z" fill="#333333"/>
</svg>
