<svg width="48" height="48" viewBox="0 0 48 48" fill="none" xmlns="http://www.w3.org/2000/svg">
<path d="M24.0281 5.19434C22.8941 5.19434 21.9741 6.05832 21.9741 7.12401C21.9741 7.7044 22.2521 8.2538 22.7321 8.62009H21.4391H21.1691L17.0382 8.60449C14.6622 8.61579 12.8302 9.93638 12.8272 12.7396L12.8252 16.8036C13.5282 20.7545 13.9362 24.9295 12.8252 30.8584L12.8332 33.5784C12.9502 36.1653 14.3842 37.6163 16.8622 37.6163H21.3621V38.9753C21.3621 39.7563 21.9201 40.2253 22.6121 40.2253H23.2121V42.6623H24.9621V40.2253H25.6321C26.3801 40.2253 26.8821 39.9103 26.8821 38.9753V37.6163H27.284H31.38C33.608 37.6163 35.4249 36.0094 35.4329 33.7824L35.4419 30.8584C34.596 26.0585 34.449 21.2705 35.4329 16.8036L35.4009 12.6296C35.3839 10.2587 34.061 8.59289 31.38 8.60839L26.9051 8.61619V8.62399H25.3331C25.8091 8.2574 26.0851 7.7099 26.0851 7.13181C26.0851 6.06612 25.1651 5.20224 24.0301 5.20224L24.0281 5.19434ZM24.0281 5.68653C24.8401 5.68653 25.4971 6.33012 25.4971 7.12401C25.4971 7.918 24.8401 8.56149 24.0281 8.56149C23.2171 8.56149 22.5601 7.918 22.5601 7.12401C22.5601 6.33012 23.2171 5.68653 24.0281 5.68653ZM17.0382 9.11229L22.2001 9.11429L25.7531 9.13569L31.439 9.11429C34.24 9.15209 34.916 10.9727 34.894 13.3466L34.905 16.7996C33.702 22.2835 34.147 26.3835 34.909 30.8544L34.931 33.6314C34.905 35.3754 33.487 37.1703 30.489 37.1103C29.14 37.0833 27.86 37.1023 26.4641 37.0943L21.4641 37.1023L17.4992 37.1063C16.2812 37.1043 14.9212 36.9113 14.3002 36.0733C13.4592 34.9384 13.4862 34.5414 13.3352 33.2604L13.3232 30.8544C14.6422 24.3975 13.9752 20.5095 13.3922 16.7996L13.3252 13.2356C13.2872 10.5417 14.8242 9.08029 17.0382 9.11229ZM23.8821 15.0946C23.2731 15.0946 22.7321 15.2416 22.2571 15.5356C21.7851 15.8266 21.4201 16.2476 21.1591 16.7956C20.9021 17.3406 20.7731 17.9716 20.7731 18.6906V19.0516C20.7761 19.7536 20.9081 20.3755 21.1691 20.9165C21.4301 21.4555 21.7981 21.8705 22.2731 22.1605C22.7471 22.4515 23.2871 22.5965 23.8921 22.5965C24.5041 22.5965 25.0451 22.4495 25.5171 22.1555C25.9911 21.8615 26.3561 21.4445 26.6101 20.9035C26.8651 20.3615 26.9911 19.7316 26.9911 19.0126V18.6866C26.9911 17.9706 26.8611 17.3406 26.6011 16.7956C26.3431 16.2476 25.9761 15.8266 25.5011 15.5356C25.0301 15.2416 24.4901 15.0946 23.8821 15.0946ZM23.8821 15.5186C24.3791 15.5186 24.8191 15.6466 25.2041 15.9076C25.5921 16.1646 25.8921 16.5366 26.1031 17.0206C26.3161 17.5016 26.4211 18.0586 26.4211 18.6906V18.9776C26.4211 19.6126 26.3181 20.1685 26.1101 20.6475C25.9031 21.1255 25.6041 21.4935 25.2161 21.7525C24.8311 22.0125 24.3891 22.1435 23.8901 22.1435C23.3961 22.1435 22.9551 22.0155 22.5671 21.7585C22.1801 21.5015 21.8801 21.1345 21.6671 20.6585C21.4541 20.1805 21.3461 19.6326 21.3431 19.0126V18.6946C21.3431 18.0596 21.4491 17.5016 21.6591 17.0206C21.8721 16.5366 22.1711 16.1656 22.5561 15.9086C22.9431 15.6496 23.3851 15.5186 23.8821 15.5186ZM23.8821 15.9036V15.9056C23.4651 15.9056 23.0921 16.0216 22.7671 16.2506C22.4431 16.4776 22.1941 16.8036 22.0151 17.2316C21.8381 17.6566 21.7491 18.1496 21.7491 18.7096V18.9926C21.7511 19.5406 21.8421 20.0235 22.0211 20.4465C22.1991 20.8655 22.4531 21.1885 22.7781 21.4145C23.1041 21.6415 23.4731 21.7525 23.8881 21.7525C24.3071 21.7525 24.6801 21.6385 25.0031 21.4085C25.3291 21.1795 25.5791 20.8565 25.7531 20.4345C25.9271 20.0116 26.0151 19.5186 26.0151 18.9576V18.7056C26.0151 18.1476 25.9261 17.6546 25.7471 17.2296C25.5711 16.8016 25.3191 16.4756 24.9931 16.2486C24.6701 16.0196 24.2991 15.9036 23.8821 15.9036ZM23.8821 16.3386C24.3901 16.3386 24.7821 16.5366 25.0561 16.9346C25.3301 17.3326 25.4661 17.9146 25.4661 18.6806V19.0376C25.4631 19.7966 25.3271 20.3765 25.0561 20.7745C24.7851 21.1685 24.3971 21.3665 23.8921 21.3665C23.3771 21.3665 22.9821 21.1605 22.7081 20.7485C22.4341 20.3375 22.2961 19.7586 22.2961 19.0126V18.6556C22.2991 17.8966 22.4401 17.3216 22.7141 16.9306C22.9881 16.5356 23.3771 16.3386 23.8821 16.3386ZM27.997 18.4446L28.001 19.3676H27.999V19.8646H28.003V19.8666H28.929H29.417V19.8646H29.868V19.8666H30.841L31.312 19.8646L31.317 19.3626V18.4446H28.005H27.997ZM28.487 18.9406H30.815V19.3676H28.487V18.9406ZM15.7922 24.9635C15.7862 25.3935 15.7932 25.3255 15.7922 25.4635H32.507V24.9635H15.7922ZM28.247 27.5125C28.029 27.5095 27.894 27.5325 27.64 27.5515C26.2951 27.7255 24.8931 28.2694 24.0621 28.5514C21.6461 29.3714 20.1961 30.6124 14.8142 30.8564L14.8042 32.7034C14.8332 34.7894 16.2332 36.1493 18.1182 36.1493H21.5831H26.2551H30.062C32.278 36.0833 33.292 34.6204 33.417 33.2584L33.419 30.8564C32.92 29.9844 31.593 28.7194 31.099 28.3994C30.23 27.8255 29.224 27.5075 28.247 27.5145V27.5125ZM28.032 28.0204C29.41 27.9554 30.271 28.4074 31.091 28.9814C31.558 29.3374 32.618 30.4784 32.919 30.8544V32.8284C32.911 34.6084 31.529 35.6064 30.083 35.6274C28.332 35.6464 26.5931 35.6354 24.2611 35.6474C21.4501 35.6474 19.2741 35.6814 17.9092 35.6664C17.0062 35.6704 15.7692 34.9034 15.4312 33.6904C15.2282 32.9744 15.2622 31.9304 15.2632 31.2684C16.7042 31.2534 18.1752 30.9814 19.3601 30.7564C21.2291 30.3474 22.6371 29.5914 24.0641 29.0474C25.4181 28.5314 27.056 28.0224 28.032 28.0204ZM21.8761 37.6123H26.3601V38.2823C26.3601 38.2853 26.3621 38.2893 26.3621 38.2933V38.5693C26.3621 39.5393 26.2691 39.7213 25.2101 39.7213L24.4521 39.7173L24.4561 42.1623L23.7141 42.1583L23.7261 39.7173L23.0191 39.7213C22.3131 39.7253 21.8761 39.6703 21.8761 38.5673V38.5323V38.2893V37.6123Z" fill="#333333"/>
</svg>
