<svg width="48" height="48" viewBox="0 0 48 48" fill="none" xmlns="http://www.w3.org/2000/svg">
<path fill-rule="evenodd" clip-rule="evenodd" d="M30.416 4.35547C27.0489 4.36376 23.8513 5.67188 21.6504 7.94141C20.7316 7.44886 19.6955 7.14453 18.5762 7.14453H12.5117C8.89841 7.14453 5.98828 10.0527 5.98828 13.666V22.9023C5.98828 24.7282 6.73609 26.3707 7.9375 27.5527C6.66436 29.2465 5.98085 31.2372 5.97266 33.2754C5.97259 38.9942 11.1785 43.6299 17.5996 43.6289C21.0523 43.6176 24.3207 42.24 26.5195 39.8691C26.7849 39.912 27.0534 39.9342 27.3223 39.9355C30.1648 39.9355 32.469 37.6496 32.4688 34.8301C32.469 32.0105 30.3415 29.6363 27.3223 29.7246C24.479 29.7236 22.1736 32.0098 22.1738 34.8301C22.1746 36.5441 23.0424 38.1434 24.4844 39.0879C22.6991 40.7827 20.2089 41.7477 17.5996 41.7559C12.3609 41.7562 8.1138 37.9743 8.11328 33.3086C8.11823 31.6848 8.6485 30.0967 9.64062 28.7344C10.5099 29.162 11.4742 29.4258 12.5117 29.4258H18.5762C22.1895 29.4258 25.0996 26.5157 25.0996 22.9023V13.666C25.0996 11.9047 24.4027 10.3174 23.2754 9.14648C25.0702 7.3004 27.6742 6.23631 30.416 6.22852C35.6547 6.22815 39.9018 10.0101 39.9023 14.6758C39.8943 17.7396 38.0244 20.5595 35.0156 22.0449C34.81 20.9758 34.274 20.1295 33.582 19.7812V19.7773C33.582 19.2976 33.285 18.9121 32.916 18.9121C32.5536 18.9121 32.2622 19.2841 32.252 19.752C31.3154 20.1828 30.6741 21.5019 30.6738 22.998C30.6738 24.4934 31.3142 25.8122 32.25 26.2441V26.3887C32.25 26.8684 32.547 27.2559 32.916 27.2559C33.285 27.2559 33.582 26.8684 33.582 26.3887V26.2148C34.2126 25.898 34.7172 25.1655 34.957 24.2188C39.2447 22.5992 42.0331 18.8569 42.043 14.709C42.043 8.99018 36.8371 4.35445 30.416 4.35547ZM30.5293 4.93945C36.6127 4.99492 41.2098 9.36259 41.5059 14.6289C41.4967 18.5587 38.1718 22.82 34.3887 23.6602C34.4499 24.1756 34.1975 25.2353 33.1465 25.6602C33.1334 26.2242 33.2827 26.7104 32.8887 26.6074C32.6473 26.6501 32.5402 26.2506 32.6152 25.748C31.8789 25.3507 31.1641 24.3245 31.1641 22.9492C31.1644 21.5729 31.8515 20.5517 32.666 20.2109C32.6741 19.7806 32.6816 19.4102 32.9668 19.4102C33.1904 19.3854 33.2488 19.7577 33.2168 20.2344C33.9311 20.3851 34.6923 21.7405 34.418 23.0391C38.3621 21.3503 40.331 18.043 40.6699 14.9414C40.6696 10.521 37.1292 5.58784 30.2656 5.58789C27.6677 5.59469 24.4822 6.99921 22.7812 8.74805C22.7812 8.74805 22.4302 8.54479 22.3125 8.24805C24.3979 6.09786 27.3391 4.94714 30.5293 4.93945ZM12.8086 7.64648H18.2637C21.7636 7.64648 24.582 10.4649 24.582 13.9648V22.6191C24.582 26.1191 21.7636 28.9375 18.2637 28.9375H12.8086C9.30867 28.9375 6.49023 26.1191 6.49023 22.6191V13.9648C6.49023 10.4649 9.30867 7.64648 12.8086 7.64648ZM18.834 12.8242C17.7365 12.801 16.2475 13.2099 15.5234 14.7871C15.5061 14.778 15.4938 14.8176 15.4766 14.8086C14.7375 13.2933 13.3153 12.7541 11.9785 12.8438C10.447 12.9805 8.3815 14.2691 10.2207 18.3145L12.5371 16.0488L14.6953 19.7715L15.7617 18.0176L16.6992 19.5879L19.9336 19.5859C21.5804 17.7151 22.8161 13.5561 19.2773 12.8574C19.1399 12.8386 18.9908 12.8275 18.834 12.8242ZM11.998 13.2051C13.2273 13.1009 14.6639 13.914 15.5117 15.6348C16.0958 14.282 17.3584 13.0979 18.7305 13.2598C20.291 13.203 22.7009 15.0386 19.7734 19.1172L16.9082 19.1113L15.7832 17.1836L14.6895 18.9199L12.5312 15.3867L10.3867 17.5664C9.15393 15.1296 10.4176 13.339 11.998 13.2051ZM12.4473 17.0898L10.6133 18.959C11.5699 20.4476 13.0999 21.9297 15.377 23.832C15.561 23.9579 15.532 23.9287 15.584 23.9375C17.1885 22.5971 18.4764 21.444 19.3984 20.3047L16.5176 20.2637L15.834 19.2227L14.6348 20.9082L12.4473 17.0898ZM12.3652 17.7715L14.625 21.6641L15.8555 19.8457L16.3457 20.6074L18.6445 20.6094C17.6963 21.628 17.0845 22.1839 15.584 23.4375C13.2592 21.5709 12.005 20.27 11.1309 19.0312L12.3652 17.7715ZM8.25781 27.9297L9.07617 28.4551C4.45518 35.0998 10.2557 42.8711 17.6934 42.4121C20.3026 42.404 23.5261 41.2753 25.3887 39.0391C23.2684 37.9314 22.6486 36.3179 22.6699 34.8359C22.5135 32.6094 24.5103 30.1924 27.3535 30.1934C30.03 30.189 31.9611 32.0808 31.9609 34.9004C32.1103 36.5055 30.6282 39.9619 26.2559 39.334C24.057 41.7048 21.1773 42.9926 17.7246 43.0039C9.66124 43.0986 3.53263 35.0698 8.25781 27.9297ZM27.3535 30.6309C24.9441 30.6321 23.2908 32.526 23.0918 34.2988C22.8685 36.2874 24.4844 39.0879 27.3848 38.9727C29.9404 39.0355 31.4935 36.9634 31.4922 34.9863C31.6007 33.3651 30.4868 30.6292 27.3535 30.6309ZM27.3223 31.2559C29.3131 31.2556 30.9277 32.8553 30.9297 34.8301C30.931 36.8071 29.3154 38.4105 27.3223 38.4102C25.3299 38.4094 23.7155 36.8064 23.7168 34.8301C23.7188 32.8561 25.3322 31.2566 27.3223 31.2559ZM27.3223 31.6367C27.1032 31.6367 26.9277 31.8569 26.9277 32.1328V34.1836C26.6834 34.2466 26.5331 34.3627 26.5332 34.4883C26.5347 34.6131 26.6848 34.7283 26.9277 34.791V35.0391C26.9277 35.315 27.1032 35.5371 27.3223 35.5371C27.5413 35.5371 27.7168 35.315 27.7168 35.0391V34.7969C27.9661 34.7338 28.1192 34.6158 28.1172 34.4883C28.1161 34.3622 27.9634 34.246 27.7168 34.1836V32.1328C27.7168 31.8569 27.5413 31.6367 27.3223 31.6367Z" fill="#333333"/>
</svg>
