<svg width="48" height="48" viewBox="0 0 48 48" fill="none" xmlns="http://www.w3.org/2000/svg">
<path fill-rule="evenodd" clip-rule="evenodd" d="M30.4161 4.35608C28.752 4.36009 27.1082 4.68228 25.5959 5.30086C24.0836 5.91945 22.7381 6.82 21.6502 7.94164C20.7315 7.44909 19.695 7.14426 18.5758 7.14426H12.5124C8.89911 7.14426 5.98883 10.0519 5.98883 13.6652V22.902C5.98883 24.7278 6.7354 26.3705 7.93681 27.5525C6.66377 29.2466 5.98054 31.2376 5.97278 33.2761C5.97289 34.6357 6.27371 35.9821 6.85806 37.2382C7.4424 38.4943 8.29883 39.6356 9.37844 40.597C10.4581 41.5583 11.7397 42.3208 13.1502 42.841C14.5607 43.3612 16.0725 43.6289 17.5991 43.6287C19.3047 43.6233 20.9881 43.2837 22.5298 42.634C24.0716 41.9843 25.4339 41.0404 26.5202 39.8692C26.7856 39.9123 27.054 39.9346 27.3229 39.9361C28.6878 39.9358 29.9966 39.3978 30.9616 38.4404C31.9265 37.4829 32.4686 36.1845 32.4685 34.8307C32.4686 33.4769 31.9265 32.1784 30.9616 31.221C29.9966 30.2636 28.6878 29.7256 27.3229 29.7253C26.6469 29.7251 25.9775 29.857 25.3528 30.1135C24.7282 30.3699 24.1607 30.746 23.6826 31.2201C23.2045 31.6942 22.8253 32.2571 22.5665 32.8766C22.3078 33.4961 22.1747 34.1601 22.1747 34.8307C22.175 35.6743 22.3861 36.5047 22.7891 37.2476C23.1921 37.9905 23.7744 38.6228 24.4839 39.0879C23.6006 39.9264 22.5343 40.5956 21.3505 41.0543C20.1666 41.513 18.8901 41.7517 17.5991 41.7556C15.0835 41.7557 12.6709 40.8657 10.892 39.2815C9.11306 37.6973 8.1136 35.5487 8.11341 33.3082C8.1188 31.6848 8.64925 30.0971 9.64129 28.7352C10.5106 29.1628 11.4749 29.4256 12.5124 29.4256H18.5758C22.1891 29.4256 25.0993 26.5153 25.0993 22.902V13.6652C25.0993 11.9039 24.4018 10.3167 23.2745 9.14575C24.1618 8.23343 25.2584 7.50106 26.4903 6.99795C27.7222 6.49485 29.0609 6.23269 30.4161 6.22914C32.9318 6.22912 35.3444 7.11908 37.1233 8.70328C38.9022 10.2875 39.9017 12.4361 39.9018 14.6766C39.898 16.1812 39.443 17.6575 38.5841 18.953C37.7251 20.2485 36.4932 21.3162 35.0158 22.0458C34.9145 21.519 34.731 21.0377 34.4812 20.6434C34.2313 20.2491 33.9226 19.9535 33.5816 19.782V19.7767C33.5816 19.297 33.2843 18.9125 32.9153 18.9124C32.5529 18.9124 32.262 19.2848 32.2517 19.7527C31.7955 19.9623 31.3956 20.3912 31.1113 20.9758C30.8269 21.5605 30.6732 22.2697 30.673 22.9984C30.6731 23.7266 30.8263 24.4354 31.1102 25.02C31.394 25.6045 31.7934 26.0337 32.2491 26.2441V26.3886C32.2491 26.8683 32.5464 27.2556 32.9153 27.2556C33.2843 27.2556 33.5816 26.8683 33.5816 26.3886V26.2146C33.8931 26.0582 34.178 25.7981 34.4158 25.4529C34.6537 25.1077 34.8385 24.6861 34.957 24.2185C37.0544 23.4262 38.8442 22.1024 40.1039 20.4117C41.3636 18.721 42.0377 16.7378 42.0425 14.7087C42.0424 13.3491 41.7415 12.0027 41.1572 10.7466C40.5728 9.49047 39.7164 8.34915 38.6368 7.38781C37.5572 6.42647 36.2755 5.66394 34.865 5.14376C33.4545 4.62357 31.9428 4.35592 30.4161 4.35609V4.35608ZM18.929 13.1942C20.9915 13.3254 22.524 15.6328 19.5792 19.493L16.6358 19.4957L15.7822 18.1391L14.8136 19.6536L12.8496 16.44L10.741 18.396C8.86663 15.2095 10.3034 13.3337 12.1592 13.2157C13.3755 13.1383 14.7698 13.8139 15.5227 15.3697C15.5384 15.3775 15.5498 15.3432 15.5655 15.351C16.3183 13.7952 17.7127 13.1169 18.929 13.1943L18.929 13.1942ZM12.7666 17.339L14.7574 20.6356L15.8491 19.18L16.4699 20.079L19.0922 20.1138C18.2533 21.0972 17.135 22.1705 15.6752 23.3274C15.5639 23.3906 15.5243 23.3932 15.413 23.3489C13.3412 21.7069 11.9699 20.2374 11.0996 18.9525L12.7666 17.339ZM27.3229 31.2558C28.279 31.2558 29.196 31.6323 29.8724 32.3027C30.5487 32.973 30.9291 33.8823 30.9299 34.8307C30.9302 35.3007 30.8372 35.7663 30.656 36.2006C30.4749 36.635 30.2093 37.0297 29.8743 37.3622C29.5393 37.6947 29.1416 37.9584 28.7038 38.1384C28.266 38.3183 27.7968 38.4109 27.3229 38.4109C26.8491 38.4109 26.3798 38.3183 25.942 38.1384C25.5043 37.9584 25.1065 37.6947 24.7716 37.3622C24.4366 37.0297 24.1709 36.635 23.9898 36.2006C23.8087 35.7663 23.7156 35.3007 23.716 34.8307C23.7167 33.8823 24.0971 32.973 24.7735 32.3027C25.4498 31.6323 26.3668 31.2558 27.3229 31.2558ZM27.3229 31.6358C27.1039 31.6358 26.9269 31.8576 26.9269 32.1335V34.1831C26.807 34.2142 26.7075 34.2588 26.6385 34.3123C26.5694 34.3658 26.5333 34.4265 26.5336 34.4882C26.5343 34.5494 26.571 34.6095 26.64 34.6626C26.7089 34.7156 26.8079 34.7597 26.9269 34.7906V35.0394C26.9269 35.3153 27.1039 35.5371 27.3229 35.5371C27.5419 35.5371 27.7163 35.3153 27.7163 35.0394V34.7959C27.8386 34.7651 27.9402 34.7203 28.0108 34.6662C28.0813 34.6121 28.1182 34.5507 28.1176 34.4882C28.1171 34.4261 28.0798 34.3652 28.0093 34.3117C27.9388 34.2581 27.8377 34.2138 27.7163 34.1831V32.1335C27.7163 31.8576 27.5419 31.6358 27.3229 31.6358Z" fill="#333333"/>
</svg>
