<svg width="48" height="48" viewBox="0 0 48 48" fill="none" xmlns="http://www.w3.org/2000/svg">
<path d="M24.056 5.10425C22.9212 5.10425 22.0013 5.96822 22.0013 7.03394C22.0015 7.61428 22.2798 8.16372 22.7591 8.53003H21.4662H21.1966L17.0658 8.5144C14.6893 8.52574 12.8575 9.84631 12.8548 12.6492L12.8528 16.7136C13.5558 20.6644 13.9632 24.8392 12.8528 30.7683L12.8606 33.489C12.9771 36.0761 14.4119 37.5261 16.8899 37.5261H21.3899V38.8855C21.3899 39.6664 21.9474 40.1355 22.6399 40.1355H23.2396V42.573H24.9896V40.1355H25.6595C26.4072 40.1355 26.9095 39.821 26.9095 38.8855V37.5261H27.3118H31.4075C33.6355 37.5261 35.453 35.9201 35.4603 33.6921L35.4701 30.7683C34.6234 25.9685 34.476 21.1805 35.4603 16.7136L35.429 12.5398C35.4113 10.1683 34.0885 8.50281 31.4076 8.51831L26.933 8.52612V8.53393H25.3607C25.8367 8.16732 26.1126 7.61982 26.1127 7.04175C26.1127 5.97603 25.1927 5.11206 24.058 5.11206L24.056 5.10425ZM24.056 5.59644C24.8672 5.59644 25.5248 6.24005 25.5248 7.03394C25.5248 7.82786 24.8672 8.47144 24.056 8.47144C23.2449 8.47144 22.5873 7.82786 22.5873 7.03394C22.5873 6.24005 23.2449 5.59644 24.056 5.59644ZM17.0658 9.02222L22.2279 9.02417L25.7806 9.04565L31.4662 9.02417C34.2673 9.06196 34.9431 10.8829 34.9212 13.2566L34.933 16.7097C33.7292 22.1941 34.1745 26.2934 34.9369 30.7644L34.9583 33.5417C34.9323 35.2856 33.5147 37.0805 30.5169 37.0203C29.1673 36.9938 27.888 37.0122 26.4916 37.0046L21.4916 37.0124L17.5267 37.0163C16.3084 37.0148 14.9491 36.8213 14.3275 35.9831C13.4862 34.8485 13.5132 34.452 13.3626 33.1706L13.3509 30.7644C14.6693 24.3078 14.003 20.4192 13.4193 16.7097L13.3529 13.1453C13.3148 10.4514 14.8511 8.99017 17.0658 9.02222ZM15.4545 14.907V22.2097H16.9584V19.5359H18.1576L19.5267 22.2097H21.142V22.1394L19.5619 19.155C19.9999 18.9578 20.3265 18.695 20.5404 18.364C20.7578 18.0297 20.8666 17.6122 20.8666 17.114C20.8666 16.4119 20.6315 15.8696 20.1634 15.4851C19.6953 15.1006 19.0299 14.907 18.1673 14.907H15.4545ZM22.015 14.907V22.2097H23.5189V19.0808H26.4525V22.2097H27.9564V14.907H26.4525V17.866H23.5189V14.907H22.015ZM22.4955 15.366H22.9994V18.2195H26.9525V15.407H27.4564V21.7058H26.9525V18.7234H22.9994V21.6648H22.4955V15.366ZM16.2904 15.407H18.5443C20.7501 15.3626 20.9954 18.2638 19.1537 18.9812C19.0463 19.0457 19.1091 18.9978 19.0463 19.0457L20.4388 21.7097L19.8177 21.7077L18.4759 19.0456H16.4584V21.7097H15.9545V15.4108H16.2904V15.407ZM16.4584 15.5906V18.823H18.683C18.7653 18.8199 18.6278 18.8303 18.724 18.8269C20.922 17.8078 19.7005 15.5904 18.3763 15.5906H16.4584ZM16.9584 16.1257H18.1673C18.5719 16.1257 18.8719 16.2253 19.0658 16.4226C19.2631 16.6199 19.3607 16.8907 19.3607 17.2351C19.3607 17.5728 19.2575 17.838 19.0502 18.032C18.8429 18.2225 18.551 18.3191 18.1732 18.3191H16.9584V16.1257ZM29.1752 18.4988V19.6668H31.9994V18.4988H29.1752ZM29.6752 18.9988H31.5013V19.1707H29.6752V18.9988ZM15.8197 24.8738C15.814 25.3031 15.8204 25.2355 15.8197 25.3738H32.5345V24.8738H15.8197ZM28.2748 27.4246C28.0567 27.4218 27.9219 27.4428 27.6673 27.4617C26.3228 27.6359 24.9204 28.1796 24.0892 28.4617C21.6735 29.2813 20.2236 30.5224 14.8412 30.7664L14.8314 32.614C14.8601 34.6999 16.2604 36.0593 18.1458 36.0593H21.6107H26.2825H30.0892C32.3061 35.9932 33.3197 34.5309 33.4447 33.1687L33.4467 30.7664C32.948 29.8944 31.621 28.6298 31.1263 28.3093C30.2579 27.7356 29.2521 27.4171 28.2748 27.4246ZM28.0599 27.9324C29.4372 27.8677 30.2988 28.3196 31.1185 28.8933C31.5854 29.2493 32.6452 30.3905 32.9466 30.7664V32.741C32.939 34.5204 31.5564 35.5184 30.1107 35.5398C28.3599 35.5587 26.6203 35.548 24.2884 35.5593C21.4775 35.5593 19.3013 35.592 17.9369 35.5769C17.0335 35.5807 15.7965 34.8158 15.4584 33.6023C15.2556 32.8863 15.2899 31.8428 15.2904 31.1804C16.7316 31.1653 18.2025 30.8932 19.388 30.6687C21.2568 30.26 22.6651 29.5037 24.0912 28.9597C25.4453 28.4432 27.0835 27.9344 28.0599 27.9324ZM21.9037 37.5222H26.388V38.1921C26.3881 38.1956 26.39 38.2 26.39 38.2039V38.4793C26.39 39.4495 26.2964 39.6316 25.2377 39.6316L24.4799 39.6277L24.4838 42.073L23.7416 42.0691L23.7533 39.6277L23.0463 39.6316C22.3412 39.6354 21.9037 39.5802 21.9037 38.4773V38.4421V38.2V37.5222Z" fill="#333333"/>
</svg>
