<svg width="48" height="48" viewBox="0 0 48 48" fill="none" xmlns="http://www.w3.org/2000/svg">
<path d="M23.8986 5.52429C22.7636 5.52429 21.8436 6.38828 21.8436 7.45397C21.8436 8.03436 22.1216 8.58375 22.6016 8.95005H21.3086H21.0386L16.9076 8.93445C14.5317 8.94575 12.6997 10.2666 12.6967 13.0696L12.6947 17.1335C13.3977 21.0845 13.8057 25.2594 12.6947 31.1884L12.7027 33.9083C12.8197 36.4953 14.2547 37.9463 16.7327 37.9463H21.2326V39.3053C21.2326 40.0863 21.7896 40.5553 22.4826 40.5553H23.0816V42.9922H24.8315V40.5553H25.5015C26.2495 40.5553 26.7515 40.2403 26.7515 39.3053V37.9463H27.1535H31.2495C33.4774 37.9463 35.2954 36.3393 35.3024 34.1123L35.3124 31.1884C34.4654 26.3884 34.3184 21.6005 35.3024 17.1335L35.2714 12.9596C35.2534 10.5886 33.9304 8.92285 31.2495 8.93835L26.7745 8.94615V8.95395H25.2025C25.6785 8.58735 25.9545 8.03986 25.9545 7.46177C25.9545 6.39608 25.0345 5.53209 23.8996 5.53209L23.8986 5.52429ZM23.8986 6.01649C24.7096 6.01649 25.3665 6.66008 25.3665 7.45397C25.3665 8.24786 24.7096 8.89145 23.8986 8.89145C23.0866 8.89145 22.4296 8.24786 22.4296 7.45397C22.4296 6.66008 23.0866 6.01649 23.8986 6.01649ZM16.9076 9.44224L22.0696 9.44414L25.6225 9.46564L31.3085 9.44414C34.1094 9.48194 34.7854 11.3026 34.7634 13.6766L34.7744 17.1295C33.5714 22.6135 34.0164 26.7134 34.7784 31.1844L34.8004 33.9613C34.7744 35.7053 33.3564 37.5003 30.3585 37.4403C29.0095 37.4133 27.7305 37.4323 26.3335 37.4243L21.3336 37.4323L17.3686 37.4363C16.1507 37.4343 14.7917 37.2413 14.1697 36.4033C13.3287 35.2683 13.3557 34.8713 13.2047 33.5903L13.1927 31.1844C14.5117 24.7275 13.8447 20.8395 13.2617 17.1295L13.1947 13.5656C13.1567 10.8716 14.6937 9.41014 16.9076 9.44224ZM21.0716 15.2376V22.4065V22.6295H23.9096C24.7386 22.6225 25.3775 22.4365 25.8255 22.0705C26.2735 21.7055 26.4975 21.1665 26.4975 20.4555C26.4905 19.6035 26.1045 18.8685 25.6385 18.8055C26.2505 18.4215 26.3115 17.8635 26.3315 17.2645C26.2085 15.3506 24.7946 15.2246 23.6286 15.2376H21.0716ZM21.5646 15.7196H21.9136H22.0856H24.0646V15.7216C25.0505 15.7446 25.3445 16.0076 25.5915 16.5556C25.7385 17.0085 25.8225 17.8685 25.4605 18.3775C25.2925 18.6135 25.0345 18.7645 24.6856 18.8485C25.6135 18.9825 25.9095 19.6135 25.9195 20.3735C25.9295 21.2005 25.4495 22.1265 23.9896 22.1375H21.5646V22.0165V21.8995V15.7196ZM22.0856 15.9886L22.0936 18.7895H23.9376C24.8456 18.7155 25.2965 18.2155 25.3295 17.4855C25.3705 16.5736 25.0065 15.9436 23.8516 15.9886H22.0856ZM22.5756 16.4716H23.6286C24.0436 16.4716 24.3916 16.4786 24.5816 16.6296C24.7755 16.7756 24.8275 17.0815 24.8275 17.4165C24.8275 18.0155 24.4476 18.3235 23.6896 18.3365H22.5756V16.4716ZM28.8085 17.8305L28.8195 18.7685L27.8665 18.7665L27.8705 20.2035L28.7965 20.1995L28.8085 21.1545L30.2455 21.1625L30.2395 20.2015L31.1815 20.1975L31.1875 19.6965V18.7685L30.2325 18.7725L30.2355 17.8345L28.8085 17.8305ZM29.7415 18.3265L29.7435 19.2745L30.6855 19.2705V19.7115L29.7325 19.7075L29.7415 20.6685H29.2845L29.2885 19.7075L28.3575 19.7155V19.2745L29.3005 19.2765L29.3085 18.3305L29.7415 18.3265ZM24.0346 18.9575L22.0856 18.9655V21.8995H23.9626C24.1006 21.8875 24.3026 21.8725 24.5526 21.7895C25.9395 21.4105 26.1045 19.0065 24.0346 18.9575ZM22.5756 19.4105H23.9546C24.6466 19.4225 25.0405 19.7635 25.0405 20.4405C25.0405 20.7415 24.8935 20.9805 24.6926 21.1535C24.4956 21.3215 24.2196 21.4045 23.8646 21.4045H22.5756V19.4105ZM15.6617 25.2934C15.6567 25.7234 15.6627 25.6554 15.6617 25.7934H32.3765V25.2934H15.6617ZM28.1165 27.8464C27.8985 27.8434 27.7635 27.8644 27.5095 27.8834C26.1645 28.0574 24.7626 28.6014 23.9316 28.8834C21.5156 29.7034 20.0656 30.9444 14.6837 31.1884L14.6737 33.0353C14.7027 35.1213 16.1027 36.4813 17.9876 36.4813H21.4526H26.1245H29.9315C32.1485 36.4153 33.1614 34.9523 33.2864 33.5903L33.2884 31.1884C32.7895 30.3164 31.4635 29.0514 30.9685 28.7314C30.0995 28.1574 29.0945 27.8384 28.1165 27.8464ZM27.9015 28.3544C29.2795 28.2894 30.1405 28.7414 30.9605 29.3154C31.4275 29.6714 32.4875 30.8124 32.7885 31.1884V33.1623C32.7815 34.9423 31.3985 35.9403 29.9525 35.9613C28.2015 35.9803 26.4625 35.9693 24.1306 35.9813C21.3196 35.9813 19.1436 36.0133 17.7786 35.9983C16.8756 36.0023 15.6387 35.2373 15.3007 34.0243C15.0977 33.3083 15.1317 32.2644 15.1327 31.6024C16.5737 31.5874 18.0446 31.3144 19.2306 31.0904C21.0986 30.6814 22.5076 29.9254 23.9336 29.3814C25.2875 28.8654 26.9255 28.3564 27.9015 28.3544ZM21.7456 37.9423H26.2305V38.6123C26.2305 38.6153 26.2325 38.6193 26.2325 38.6233V38.8993C26.2325 39.8693 26.1385 40.0513 25.0795 40.0513L24.3216 40.0473L24.3256 42.4922L23.5836 42.4882L23.5956 40.0473L22.8886 40.0513C22.1836 40.0553 21.7456 40.0003 21.7456 38.8973V38.8623V38.6193V37.9423Z" fill="#333333"/>
</svg>
