<svg width="48" height="48" viewBox="0 0 48 48" fill="none" xmlns="http://www.w3.org/2000/svg">
<path d="M24.066 5.18835C23.071 5.18835 22.242 5.85305 22.053 6.73524C22.026 6.85903 22.012 6.98673 22.012 7.11803V7.11993V7.12383C22.012 7.31073 22.05 7.49143 22.106 7.66682V7.66872C22.113 7.69142 22.123 7.71412 22.131 7.73712C22.132 7.74092 22.135 7.74502 22.137 7.74882C22.192 7.89952 22.266 8.04112 22.359 8.17462C22.363 8.17972 22.366 8.18522 22.369 8.19022V8.19222H18.553L16.7561 8.18442C14.2851 8.19572 12.3801 9.5583 12.3771 12.4465L12.3751 16.6334C13.1061 20.7044 13.5291 25.0053 12.3751 31.1142L12.3831 33.9162C12.5041 36.5822 13.9961 38.0761 16.5721 38.0761H19.037V38.0691H21.4V38.9691V38.9711V38.9751C21.4 39.1691 21.436 39.3431 21.498 39.4961C21.687 39.9601 22.13 40.2251 22.65 40.2251H22.652H23.25V42.6571V42.6581V42.6621H23.252V42.6661H25.002V40.2291H25.672C26.4199 40.2291 26.9219 39.9141 26.9219 38.9791V38.0731H29.2849V38.0801H31.6659C33.9829 38.0801 35.8728 36.4252 35.8808 34.1292L35.8908 31.1172C35.0098 26.1723 34.8578 21.2394 35.8808 16.6374L35.8478 12.3385C35.8298 9.8952 34.4528 8.17622 31.6659 8.19222L29.5429 8.19612V8.19412H25.772C25.774 8.19042 25.775 8.18232 25.779 8.17852C25.869 8.04962 25.94 7.91332 25.994 7.76842C25.995 7.76562 25.997 7.76332 25.998 7.76052C26.001 7.75702 26.004 7.75392 26.006 7.74882C26.016 7.72242 26.026 7.69482 26.035 7.66682C26.036 7.66302 26.036 7.65892 26.037 7.65512V7.65312C26.083 7.49943 26.113 7.34123 26.117 7.17853V7.17463C26.117 7.17083 26.118 7.16803 26.119 7.16483C26.122 7.15553 26.1249 7.14773 26.1249 7.13553C26.1249 7.13393 26.123 7.13333 26.123 7.13163C26.123 7.12763 26.121 7.12403 26.121 7.11993C26.121 7.11893 26.122 7.11673 26.121 7.11603C26.1199 7.11243 26.119 7.10813 26.119 7.10433C26.117 6.94093 26.088 6.78483 26.045 6.63364C26.031 6.58564 26.016 6.53954 25.998 6.49304C25.94 6.33854 25.869 6.19114 25.773 6.05744C25.773 6.05634 25.773 6.05444 25.772 6.05354C25.685 5.93375 25.583 5.82595 25.471 5.72735C25.442 5.70185 25.409 5.68105 25.379 5.65705C25.296 5.59225 25.21 5.53345 25.117 5.48135C25.068 5.45335 25.017 5.42915 24.965 5.40515C24.875 5.36385 24.782 5.33035 24.686 5.30165C24.636 5.28675 24.589 5.26805 24.537 5.25665C24.386 5.22345 24.23 5.20205 24.068 5.20205L24.066 5.19415V5.18835ZM24.045 5.94805C24.2051 5.94801 24.3636 5.97789 24.5115 6.03598C24.6594 6.09408 24.7937 6.17924 24.9069 6.28662C25.0201 6.39399 25.1099 6.52148 25.1712 6.66178C25.2325 6.80209 25.264 6.95247 25.264 7.10433C25.2636 7.35247 25.1791 7.59391 25.023 7.79299C24.8669 7.99207 24.6474 8.13821 24.397 8.20982H23.686C23.4369 8.13703 23.2189 7.99038 23.0641 7.79141C22.9093 7.59244 22.8259 7.35163 22.826 7.10433C22.826 6.95247 22.8575 6.80209 22.9188 6.66178C22.98 6.52148 23.0698 6.39399 23.183 6.28662C23.2962 6.17924 23.4306 6.09408 23.5785 6.03598C23.7264 5.97789 23.8849 5.94801 24.045 5.94805ZM17.0781 9.11411L22.24 9.11601L25.793 9.13951L31.4789 9.11601C31.4989 9.11631 31.5179 9.11861 31.5369 9.11991C31.8209 9.12671 32.0779 9.1554 32.3179 9.198C32.3809 9.2087 32.4439 9.2202 32.5039 9.2332C32.7429 9.2867 32.9629 9.3556 33.1599 9.4441C33.1989 9.4628 33.2349 9.4829 33.2719 9.5027C33.4459 9.5908 33.6059 9.6923 33.7479 9.8074C33.7749 9.8273 33.8029 9.847 33.8279 9.868C33.9779 9.99959 34.1079 10.1485 34.2229 10.3095C34.2488 10.3465 34.2738 10.3845 34.2988 10.4225C34.4088 10.5945 34.5078 10.7745 34.5858 10.9735C34.7608 11.4185 34.8598 11.9275 34.9038 12.4795C34.9048 12.4815 34.9038 12.4835 34.9038 12.4855C34.9258 12.7605 34.9348 13.0455 34.9318 13.3405V13.3465L34.9428 16.7934V16.7994C34.7938 17.4834 34.6678 18.1444 34.5658 18.7874V18.7894C34.5658 18.7914 34.5668 18.7934 34.5658 18.7954C34.5558 18.8644 34.5488 18.9294 34.5388 18.9984C34.5188 19.1304 34.5098 19.2544 34.4918 19.3854C34.4278 19.8544 34.3628 20.3224 34.3218 20.7744C34.3158 20.8434 34.3148 20.9094 34.3088 20.9794C34.2648 21.4843 34.2308 21.9843 34.2149 22.4713V22.4773C34.1958 23.0613 34.1949 23.6343 34.2088 24.2003V24.2013V24.2073C34.2128 24.3493 34.2248 24.4883 34.2308 24.6293C34.3108 26.7403 34.5908 28.7553 34.9468 30.8482C34.9478 30.8502 34.9468 30.8522 34.9468 30.8542L34.9688 33.6252V33.6312C34.9648 33.8472 34.9388 34.0642 34.8928 34.2782C34.8788 34.3402 34.8508 34.3992 34.8338 34.4612C34.7968 34.5932 34.7608 34.7262 34.7068 34.8542C34.6628 34.9582 34.6018 35.0582 34.5468 35.1582C34.4988 35.2452 34.4548 35.3332 34.3978 35.4162C34.3348 35.5112 34.2588 35.6002 34.1838 35.6902C34.1169 35.7702 34.0489 35.8492 33.9729 35.9242C33.8869 36.0092 33.7929 36.0902 33.6949 36.1682C33.6069 36.2392 33.5139 36.3052 33.4159 36.3692C33.3119 36.4382 33.2029 36.5022 33.0879 36.5632C32.9819 36.6182 32.8669 36.6672 32.7519 36.7152C32.6199 36.7702 32.4879 36.8262 32.3439 36.8692C32.2299 36.9042 32.1039 36.9262 31.9819 36.9532C31.8159 36.9912 31.6549 37.0322 31.4749 37.0552C31.3769 37.0672 31.2659 37.0652 31.1639 37.0732C30.9569 37.0882 30.7519 37.1082 30.5269 37.1042C29.1779 37.0772 27.8979 37.0962 26.5019 37.0882L21.502 37.0962L17.5371 37.1002C17.2431 37.1002 16.9411 37.0852 16.6431 37.0572C16.3921 37.0302 16.1481 36.9862 15.9101 36.9322C15.8661 36.9212 15.8181 36.9202 15.7751 36.9082C15.7741 36.9082 15.7731 36.9072 15.7721 36.9072C15.5441 36.8482 15.3271 36.7732 15.1291 36.6782C15.1041 36.6672 15.0771 36.6562 15.0531 36.6452C15.0511 36.6442 15.0491 36.6422 15.0471 36.6412C14.9671 36.5992 14.8911 36.5552 14.8181 36.5062C14.8171 36.5052 14.8161 36.5052 14.8141 36.5042C14.7931 36.4892 14.7731 36.4742 14.7521 36.4592C14.7481 36.4562 14.7431 36.4512 14.7381 36.4482C14.6631 36.3922 14.5911 36.3332 14.5251 36.2682C14.4831 36.2272 14.4441 36.1842 14.4061 36.1392C14.3721 36.0952 14.3411 36.0592 14.3071 36.0182C14.2581 35.9512 14.2331 35.9022 14.1901 35.8402C13.5371 34.8962 13.5131 34.4412 13.3751 33.2642V33.2622L13.3631 30.8562C13.5281 30.0492 13.6631 29.2843 13.7701 28.5533V28.5513C13.8761 27.8203 13.9551 27.1243 14.0121 26.4593V26.4573C14.0691 25.7933 14.1041 25.1593 14.1191 24.5513V24.5493C14.1341 23.9413 14.1301 23.3613 14.1111 22.8013V22.7993C14.0931 22.2393 14.0581 21.7003 14.0141 21.1784V21.1764C13.9691 20.6544 13.9151 20.1494 13.8541 19.6574V19.6554C13.8531 19.6524 13.8521 19.6524 13.8521 19.6474V19.6454C13.7281 18.6624 13.5771 17.7274 13.4321 16.8034V16.8014L13.3651 13.2375C13.3611 12.9015 13.3821 12.5855 13.4241 12.2875V12.2855C13.4661 11.9885 13.5311 11.7115 13.6171 11.4535V11.4515C13.7041 11.1945 13.8131 10.9595 13.9401 10.7425V10.7415C14.0661 10.5245 14.2131 10.3295 14.3771 10.1555C15.0331 9.4571 15.9711 9.10001 17.0781 9.11601V9.11411ZM23.92 15.0944C23.311 15.0944 22.77 15.2414 22.295 15.5354C22.145 15.6284 22.01 15.7394 21.881 15.8584C21.857 15.8804 21.834 15.9044 21.811 15.9284C21.696 16.0424 21.591 16.1674 21.494 16.3034C21.488 16.3114 21.48 16.3164 21.475 16.3244H21.447V16.3624C21.445 16.3654 21.444 16.3684 21.441 16.3714C21.353 16.5044 21.27 16.6434 21.197 16.7954C20.94 17.3404 20.811 17.9714 20.811 18.6904V19.0514C20.814 19.7534 20.946 20.3754 21.207 20.9164C21.468 21.4554 21.836 21.8703 22.311 22.1603C22.385 22.2063 22.464 22.2413 22.541 22.2803V22.2933H22.566C22.57 22.2953 22.573 22.2963 22.576 22.2973C22.772 22.3913 22.978 22.4613 23.193 22.5103C23.212 22.5143 23.231 22.5183 23.25 22.5223C23.468 22.5673 23.692 22.5963 23.93 22.5963C24.542 22.5963 25.083 22.4493 25.555 22.1553C26.03 21.8613 26.3939 21.4444 26.6479 20.9034C26.9029 20.3614 27.0289 19.7314 27.0289 19.0124V18.6864C27.0289 17.9704 26.8999 17.3404 26.6389 16.7954C26.3809 16.2474 26.014 15.8264 25.539 15.5354C25.068 15.2414 24.528 15.0944 23.92 15.0944ZM23.92 16.3384C24.428 16.3384 24.82 16.5364 25.094 16.9344C25.368 17.3324 25.504 17.9144 25.504 18.6804V19.0374C25.501 19.7964 25.365 20.3764 25.094 20.7744C25.038 20.8544 24.975 20.9204 24.91 20.9854C24.851 21.0394 24.788 21.0894 24.723 21.1334C24.721 21.1344 24.719 21.1364 24.717 21.1374H24.697V21.1514C24.696 21.1514 24.695 21.1524 24.693 21.1534C24.589 21.2194 24.474 21.2694 24.352 21.3054C24.349 21.3064 24.347 21.3084 24.344 21.3094H24.34C24.213 21.3454 24.077 21.3664 23.93 21.3664C23.415 21.3664 23.02 21.1604 22.746 20.7484C22.472 20.3374 22.334 19.7584 22.334 19.0124V18.6554C22.337 17.8964 22.478 17.3214 22.752 16.9304C23.026 16.5354 23.415 16.3384 23.92 16.3384ZM28.9769 17.4944V17.5004L28.9879 18.4324L28.0349 18.4304V18.4364V18.4384V18.4534L28.0369 19.3644V19.8604H28.0389V19.8674V19.8694V19.8734L28.9649 19.8694L28.9769 20.8214V20.8244L30.4139 20.8324V20.8284V20.8174L30.4079 19.8714L30.8789 19.8694L31.3499 19.8674L31.3569 19.3664V18.4484H31.3559V18.4404V18.4384V18.4324L30.3999 18.4364L30.4039 17.5044H30.4019V17.4984L28.9769 17.4944ZM15.7991 24.6043V25.7523H32.5489V24.6043H15.7991ZM28.3869 27.5303C28.1689 27.5273 27.9319 27.5313 27.6779 27.5513C26.3329 27.7253 24.931 28.2693 24.1 28.5513C21.684 29.3713 20.248 30.6332 14.8651 30.8772L14.8591 32.7252C14.8521 34.6342 15.9271 36.1492 17.8131 36.1492H21.621H26.2929H30.0999C32.3169 36.0832 33.3299 34.6202 33.4549 33.2582L33.4569 30.8562C32.9579 29.9842 31.6309 28.7193 31.1369 28.3993C30.5959 28.0483 29.9129 27.5493 28.3869 27.5303Z" fill="#333333"/>
</svg>
