<svg width="49" height="48" viewBox="0 0 49 48" fill="none" xmlns="http://www.w3.org/2000/svg">
<path fill-rule="evenodd" clip-rule="evenodd" d="M24.4589 5.28516C23.3241 5.28516 22.4042 6.14912 22.4042 7.21483C22.4043 7.40085 22.4414 7.58119 22.496 7.75585C22.5036 7.77909 22.5129 7.80126 22.5214 7.8242C22.5809 7.99065 22.6624 8.14753 22.7675 8.29295C22.7689 8.29487 22.77 8.29689 22.7714 8.29881H19.2597L17.1465 8.291C14.6756 8.30234 12.7704 9.64538 12.7676 12.5331L12.7656 16.7206C13.4965 20.7911 13.92 25.0921 12.7656 31.2004L12.7734 34.0031C12.8945 36.6685 14.3865 38.1632 16.9629 38.1632H19.4276V38.1554H21.7928V39.0617C21.7928 39.8426 22.3503 40.3116 23.0428 40.3116H23.6424V42.7491H25.3924V40.3116H26.0623C26.81 40.3116 27.3123 39.9972 27.3123 39.0617V38.1554H29.6755V38.1632H32.0564C34.3728 38.1632 36.2637 36.5076 36.2712 34.2121L36.281 31.2004C35.4007 26.2551 35.2478 21.3223 36.2712 16.7206L36.238 12.4218C36.218 9.98008 34.842 8.2846 32.055 8.3005H29.7308H26.1489L26.1509 8.29855C26.2556 8.15381 26.3355 7.99735 26.395 7.83175C26.4053 7.80427 26.4154 7.77765 26.4243 7.74972C26.477 7.57793 26.5142 7.40112 26.5142 7.21848C26.5142 6.4198 25.9968 5.7345 25.2603 5.4412H25.2583C25.0123 5.3436 24.7433 5.2889 24.4593 5.2889L24.4589 5.28516ZM24.4355 6.0371C25.1085 6.0371 25.6542 6.55476 25.6542 7.19328C25.6535 7.70279 25.3013 8.15177 24.7871 8.29877H24.0751C23.5641 8.14907 23.2161 7.70078 23.2161 7.19328C23.2161 6.55471 23.7617 6.037 24.4349 6.0371H24.4355ZM17.4687 9.20306L22.6308 9.20501L26.1834 9.22844L31.8689 9.20501C34.6699 9.2428 35.3458 11.0638 35.3239 13.4374L35.3356 16.8904C34.132 22.3747 34.5771 26.474 35.3395 30.9452L35.361 33.7225C35.3349 35.4664 33.9174 37.2613 30.9197 37.201C29.5701 37.1745 28.2908 37.1929 26.8943 37.1853L21.8944 37.1931L17.9296 37.197C17.7048 37.1968 17.4745 37.1824 17.2461 37.1658C17.1886 37.1616 17.1314 37.1634 17.0742 37.158C17.0729 37.1579 17.0716 37.1581 17.0703 37.158C16.8663 37.1385 16.671 37.0982 16.4746 37.0603C16.3911 37.0445 16.3038 37.0369 16.2226 37.0173C15.6965 36.8879 15.225 36.6762 14.8926 36.3377H14.8906C14.8793 36.3261 14.8683 36.3143 14.8574 36.3025C14.84 36.2829 14.8196 36.2593 14.8183 36.2576V36.2556C14.7679 36.1883 14.7314 36.152 14.6835 36.0915C13.904 35.0194 13.9122 34.6017 13.7656 33.3533V33.3494L13.7539 30.9432C13.9185 30.1368 14.0533 29.3714 14.1601 28.6405V28.6385C14.2668 27.9077 14.3454 27.2114 14.4023 26.5467V26.5448C14.4591 25.8802 14.4946 25.2463 14.5097 24.6386V24.6366C14.5257 24.0286 14.5217 23.4486 14.5027 22.8876V22.8856C14.4841 22.3255 14.4493 21.7864 14.4051 21.2645V21.2625C14.3607 20.7407 14.3068 20.2359 14.2449 19.743V19.741C14.121 18.7546 13.9689 17.8163 13.823 16.8895V16.8875L13.7566 13.323C13.7519 12.987 13.7727 12.671 13.8152 12.3738V12.3718C13.8578 12.0748 13.9222 11.797 14.0086 11.5398V11.5378C14.095 11.2807 14.2041 11.045 14.3308 10.8288V10.8268C14.4576 10.6107 14.6047 10.4151 14.7683 10.2409C15.4245 9.54285 16.3621 9.1858 17.4695 9.2018L17.4687 9.20306ZM23.8457 15.084L21.1267 22.3869H22.6755L23.1735 21.1252H25.9684L26.4547 22.3869H27.9723L27.4254 20.926H27.402V20.8635L25.2399 15.0843L23.8457 15.084ZM24.5546 17.252L25.4589 19.6874L23.6698 19.6835L24.0741 18.6112L24.5546 17.252ZM28.4276 18.5351L28.4315 19.459H28.4295V19.955H28.4334V19.957H29.8475V19.955H30.2986V19.957H31.2713L31.742 19.955L31.7479 19.4531V18.5351H28.4354H28.4276ZM16.1897 24.6931V25.8414H32.9395V24.6931H16.1897ZM28.7796 27.6207C28.5615 27.6179 28.3252 27.6212 28.0706 27.6422C26.726 27.8164 25.3237 28.3602 24.4926 28.6422C22.0769 29.4619 20.6406 30.7244 15.2583 30.9684L15.2523 32.8153C15.2444 34.7244 16.32 36.2391 18.2053 36.2391H30.4922C32.7091 36.173 33.7226 34.7107 33.8476 33.3485L33.8496 30.9463C33.3509 30.0743 32.0241 28.8098 31.5294 28.4893C30.9886 28.1389 30.3061 27.6395 28.7794 27.6202L28.7796 27.6207ZM23.8284 39.8086V39.8106H23.8031L23.8284 39.8086Z" fill="#333333"/>
</svg>
