<?xml version="1.0" encoding="UTF-8" standalone="no"?>
<!-- Created with Inkscape (http://www.inkscape.org/) -->
<svg id="svg8" xmlns:rdf="http://www.w3.org/1999/02/22-rdf-syntax-ns#" xmlns="http://www.w3.org/2000/svg" xmlns:osb="http://www.openswatchbook.org/uri/2009/osb" height="48" width="48" version="1.1" xmlns:cc="http://creativecommons.org/ns#" viewBox="0 0 12.7 12.7" xmlns:dc="http://purl.org/dc/elements/1.1/">
 <title id="title4753">UIO-icon</title>
 <metadata id="metadata5">
  <rdf:RDF>
   <cc:Work rdf:about="">
    <dc:format>image/svg+xml</dc:format>
    <dc:type rdf:resource="http://purl.org/dc/dcmitype/StillImage"/>
    <dc:title>UIO-icon</dc:title>
    <dc:creator>
     <cc:Agent>
      <dc:title>Joaquín Urbano</dc:title>
     </cc:Agent>
    </dc:creator>
    <dc:rights>
     <cc:Agent>
      <dc:title>GPL</dc:title>
     </cc:Agent>
    </dc:rights>
   </cc:Work>
  </rdf:RDF>
 </metadata>
 <g id="layer1" transform="translate(0,-284.3)">
  <path id="rect4803" d="m0 0v48h48v-48h-48zm14.566 4c3.97 0.0023 7.609 2.2113 9.442 5.7324 1.831-3.5198 5.467-5.7286 9.435-5.7324 5.882-0.0002 10.651 4.7669 10.651 10.648-0.005 9.354-12.639 16.903-20.153 29.352-0.964-1.608-2.02-3.118-3.113-4.572 0.002-0.003 0.004-0.005 0.006-0.008 0.329-0.668 0.568-0.943 0.775-1.803 0.259-0.848 0.39-1.73 0.391-2.617 0-4.971-4.029-9-9-9-1.136 0-2.22 0.219-3.2207 0.604-0.2776-0.329-0.5678-0.661-0.832-0.987h7.7597l4.334-8.65 4.475 16.345c3.632-5.102 3.844-5.672 6.107-9.082h3.414c1.658 0.012 1.721-2.465 0-2.535h-4.654l-4.199 6.676c-1.035-4.452-4.891-17.805-4.891-17.805-0.417 0.541-3.867 9.264-6.15 12.514h-8.1137c-1.8899-2.754-3.1037-5.493-3.1113-8.432-0.0002-5.8811 4.7669-10.648 10.648-10.648zm-1.566 22.285c4.813 0 8.715 3.902 8.715 8.715-0.001 0.859-0.129 1.712-0.379 2.533-0.2 0.832-0.431 1.099-0.75 1.746-1.544 2.738-4.443 4.434-7.586 4.436-4.8126 0-8.7148-3.902-8.7148-8.715s3.9022-8.715 8.7148-8.715zm0 2.84c-3.2447 0-5.875 2.63-5.875 5.875h1.375c0-2.485 2.015-4.5 4.5-4.5s4.5 2.015 4.5 4.5h1.375c0-3.245-2.63-5.875-5.875-5.875zm-3.248 2.945l1.928 4.348c-0.219 0.287-0.337 0.637-0.338 0.998 0 0.915 0.743 1.657 1.658 1.656 0.915 0.001 1.658-0.741 1.658-1.656 0.001-0.916-0.742-1.659-1.658-1.658-0.098 0-0.196 0.008-0.293 0.027l-2.955-3.715z" fill-rule="evenodd" transform="matrix(.26458 0 0 .26458 0 284.3)" fill="#333"/>
 </g>
</svg>
