<svg width="48" height="48" viewBox="0 0 48 48" fill="none" xmlns="http://www.w3.org/2000/svg">
<path fill-rule="evenodd" clip-rule="evenodd" d="M48 0H0V48H48V0ZM28 8.3579C27.4625 8.3579 26.9475 8.14152 26.5714 7.75754L25.4393 6.60207C24.6529 5.79931 23.3471 5.79931 22.5607 6.60207L21.4286 7.75754C21.0525 8.14151 20.5375 8.3579 20 8.3579H14C12.8809 8.3579 12 9.25408 12 10.3273V28.971C13.3017 28.9498 14.5326 28.9875 15.7005 29.0306C15.8789 29.0372 16.0556 29.0439 16.2306 29.0505C17.514 29.0991 18.711 29.1444 19.8818 29.1195C22.5089 29.0636 24.924 28.6538 27.4919 27.1387C30.6105 25.2987 33.2501 25.8514 35.0748 26.9133C35.4135 27.1104 35.7222 27.3234 36 27.5388V10.3273C36 9.25408 35.1191 8.3579 34 8.3579H28ZM30 38H34C36.2091 38 38 36.2228 38 34.0306V10.3273C38 8.13507 36.2091 6.3579 34 6.3579H28L26.868 5.20243C25.2973 3.59919 22.7027 3.59919 21.132 5.20243L20 6.3579H14C11.7909 6.3579 10 8.13507 10 10.3273V34.0306C10 36.2228 11.7909 38 14 38H18V40H23V44H25V40H30V38ZM20.9231 10.6154C20.7678 10.2427 20.4037 10 20 10C19.5963 10 19.2322 10.2427 19.0769 10.6154L15.3355 19.5947C15.3294 19.6086 15.3235 19.6226 15.318 19.6368L14.0769 22.6154C13.8645 23.1252 14.1056 23.7107 14.6154 23.9231C15.1252 24.1355 15.7107 23.8944 15.9231 23.3846L16.9167 21H23.0833L24.0769 23.3846C24.2893 23.8944 24.8748 24.1355 25.3846 23.9231C25.8944 23.7107 26.1355 23.1252 25.9231 22.6154L24.682 19.6368L24.6739 19.6167L24.6645 19.5947L20.9231 10.6154ZM20 13.6L22.25 19H17.75L20 13.6ZM31 16H33C33.5523 16 34 16.4477 34 17C34 17.5523 33.5523 18 33 18H31V20C31 20.5523 30.5523 21 30 21C29.4477 21 29 20.5523 29 20V18H27C26.4477 18 26 17.5523 26 17C26 16.4477 26.4477 16 27 16H29V14C29 13.4477 29.4477 13 30 13C30.5523 13 31 13.4477 31 14V16Z" fill="#333333"/>
</svg>
