<svg width="48" height="48" viewBox="0 0 48 48" fill="none" xmlns="http://www.w3.org/2000/svg">
<g clip-path="url(#clip0)">
<path fill-rule="evenodd" clip-rule="evenodd" d="M0.0078125 -0.0078125V47.9922H48.0078V-0.0078125H0.0078125ZM30.416 4.35547C31.9428 4.35523 33.4547 4.62285 34.8653 5.14306C36.276 5.66326 37.5577 6.42586 38.6374 7.3873C39.7171 8.34874 40.5736 9.49018 41.1579 10.7464C41.7422 12.0027 42.043 13.3492 42.043 14.709C42.0382 16.7381 41.364 18.7213 40.1042 20.412C38.8444 22.1027 37.0545 23.4265 34.957 24.2188C34.8386 24.6863 34.6538 25.1078 34.4161 25.453C34.1783 25.7982 33.8934 26.0584 33.582 26.2148V26.3887C33.582 26.8684 33.285 27.2559 32.916 27.2559C32.547 27.2559 32.25 26.8684 32.25 26.3887V26.2441C31.7942 26.0338 31.3948 25.6045 31.111 25.0199C30.8271 24.4352 30.6738 23.7263 30.6738 22.998C30.674 22.2694 30.8275 21.5602 31.1118 20.9755C31.396 20.3908 31.7958 19.9618 32.252 19.752C32.2622 19.2841 32.5536 18.9121 32.916 18.9121C33.285 18.9121 33.582 19.2976 33.582 19.7773V19.7812C33.9229 19.9528 34.2315 20.2485 34.4812 20.6428C34.7309 21.0371 34.9143 21.5182 35.0156 22.0449C36.4932 21.3155 37.7252 20.2478 38.5843 18.9523C39.4434 17.6567 39.8984 16.1804 39.9023 14.6758C39.9021 12.4352 38.9025 10.2865 37.1235 8.70238C35.3445 7.11821 32.9317 6.22834 30.416 6.22852C29.0608 6.23237 27.7223 6.4948 26.4906 6.99814C25.2588 7.50148 24.1625 8.23404 23.2754 9.14648C24.4027 10.3174 25.0996 11.9047 25.0996 13.666V22.9023C25.0996 26.5157 22.1895 29.4258 18.5762 29.4258H12.5117C11.4742 29.4258 10.5099 29.162 9.64062 28.7344C8.6485 30.0967 8.11823 31.6848 8.11328 33.3086C8.11353 35.5491 9.11311 37.6978 10.8921 39.282C12.6712 40.8662 15.0839 41.756 17.5996 41.7559C18.8906 41.7518 20.1672 41.5131 21.351 41.0544C22.5348 40.5956 23.6011 39.9265 24.4844 39.0879C23.7745 38.6229 23.1919 37.9906 22.7887 37.2476C22.3854 36.5045 22.1742 35.6739 22.1738 34.8301C22.1738 34.1595 22.3069 33.4954 22.5657 32.8759C22.8244 32.2564 23.2036 31.6935 23.6817 31.2193C24.1599 30.7452 24.7274 30.3692 25.3521 30.1127C25.9767 29.8563 26.6462 29.7244 27.3223 29.7246C27.9981 29.7246 28.6674 29.8567 29.2918 30.1133C29.9163 30.3699 30.4836 30.7459 30.9615 31.22C31.4394 31.6941 31.8185 32.2569 32.0771 32.8764C32.3357 33.4958 32.4688 34.1596 32.4688 34.8301C32.4688 35.5005 32.3357 36.1644 32.0771 36.7838C31.8185 37.4032 31.4394 37.966 30.9615 38.4401C30.4836 38.9142 29.9163 39.2903 29.2918 39.5469C28.6674 39.8035 27.9981 39.9355 27.3223 39.9355C27.0533 39.9342 26.785 39.912 26.5195 39.8691C25.4334 41.0402 24.0713 41.9841 22.5298 42.6339C20.9882 43.2836 19.305 43.6233 17.5996 43.6289C16.0728 43.6291 14.5609 43.3615 13.1503 42.8413C11.7397 42.3211 10.4579 41.5585 9.3782 40.5971C8.29851 39.6356 7.44204 38.4942 6.85771 37.2379C6.27339 35.9817 5.97264 34.6352 5.97266 33.2754C5.98085 31.2372 6.66436 29.2465 7.9375 27.5527C6.73609 26.3707 5.98828 24.7282 5.98828 22.9023V13.666C5.98828 10.0527 8.89841 7.14453 12.5117 7.14453H18.5762C19.6955 7.14453 20.7316 7.44886 21.6504 7.94141C22.7381 6.81973 24.0836 5.91912 25.5959 5.30047C27.1081 4.68183 28.7519 4.35956 30.416 4.35547ZM18.9297 13.1934C17.7134 13.116 16.3192 13.7957 15.5664 15.3516C15.5507 15.3438 15.5391 15.3769 15.5234 15.3691C14.7706 13.8133 13.3745 13.1375 12.1582 13.2148C10.3024 13.3329 8.86582 15.21 10.7402 18.3965L12.8496 16.4395L14.8145 19.6543L15.7812 18.1387L16.6367 19.4961L19.5801 19.4922C22.5249 15.632 20.9922 13.3245 18.9297 13.1934ZM12.7656 17.3398L11.0996 18.9531C11.97 20.238 13.3403 21.7076 15.4121 23.3496C15.5234 23.3939 15.5645 23.3913 15.6758 23.3281C17.1356 22.1711 18.2529 21.0967 19.0918 20.1133L16.4707 20.0781L15.8496 19.1797L14.7578 20.6348L12.7656 17.3398ZM27.3223 31.2559C26.3665 31.2562 25.45 31.6328 24.774 32.303C24.098 32.9732 23.7178 33.882 23.7168 34.8301C23.7165 35.3 23.8095 35.7654 23.9906 36.1996C24.1716 36.6339 24.4371 37.0285 24.7719 37.3609C25.1067 37.6934 25.5043 37.9572 25.9419 38.1372C26.3795 38.3172 26.8485 38.41 27.3223 38.4102C27.7962 38.4102 28.2654 38.3177 28.7033 38.1377C29.1411 37.9578 29.5389 37.6941 29.8739 37.3616C30.2089 37.0292 30.4746 36.6344 30.6557 36.2001C30.8369 35.7657 30.93 35.3002 30.9297 34.8301C30.9287 33.8817 30.5482 32.9725 29.8718 32.3023C29.1954 31.6321 28.2783 31.2557 27.3223 31.2559ZM27.3223 31.6367C27.5413 31.6367 27.7168 31.8569 27.7168 32.1328V34.1836C27.8379 34.2142 27.9387 34.2585 28.009 34.312C28.0793 34.3655 28.1166 34.4263 28.1172 34.4883C28.1182 34.5509 28.0816 34.6125 28.0113 34.6667C27.9409 34.721 27.8392 34.7659 27.7168 34.7969V35.0391C27.7168 35.315 27.5413 35.5371 27.3223 35.5371C27.1032 35.5371 26.9277 35.315 26.9277 35.0391V34.791C26.8083 34.7602 26.7091 34.7161 26.6399 34.663C26.5707 34.6099 26.5339 34.5496 26.5332 34.4883C26.5332 34.4266 26.5696 34.366 26.6388 34.3125C26.7081 34.259 26.8077 34.2146 26.9277 34.1836V32.1328C26.9277 31.8569 27.1032 31.6367 27.3223 31.6367Z" fill="#333333"/>
</g>
<defs>
<clipPath id="clip0">
<rect width="48" height="48" fill="white"/>
</clipPath>
</defs>
</svg>
