<svg width="49" height="48" viewBox="0 0 49 48" fill="none" xmlns="http://www.w3.org/2000/svg">
<path fill-rule="evenodd" clip-rule="evenodd" d="M24.4884 5.2572C23.3536 5.2572 22.4337 6.12116 22.4337 7.18688C22.4338 7.3729 22.4708 7.55323 22.5255 7.72789C22.5331 7.75114 22.5424 7.77331 22.5509 7.79625C22.6103 7.9627 22.6919 8.11958 22.797 8.26499C22.7984 8.26691 22.7995 8.26893 22.8009 8.27085H19.2892L17.1759 8.26304C14.7051 8.27438 12.7999 9.61743 12.7971 12.5052L12.7951 16.6926C13.526 20.7632 13.9495 25.0641 12.7951 31.1725L12.801 33.9751C12.9221 36.6406 14.4141 38.1353 16.9905 38.1353H19.4552V38.1294H21.8204V39.0356C21.8204 39.8165 22.3779 40.2856 23.0704 40.2856H23.67V42.7231H25.42V40.2856H26.0899C26.8376 40.2856 27.3399 39.9711 27.3399 39.0356V38.1294H29.7031V38.1353H32.084C34.4004 38.1353 36.2912 36.4797 36.2987 34.1841L36.3105 31.1725C35.4295 26.2275 35.2745 21.2956 36.2985 16.6926L36.2653 12.3939C36.2473 9.95092 34.8843 8.25154 32.0973 8.26744L29.7614 8.27135H26.1795L26.1815 8.2694C26.2862 8.12467 26.3661 7.96821 26.4256 7.80261C26.4359 7.77512 26.446 7.7485 26.4549 7.72058C26.5076 7.54878 26.5448 7.37197 26.5448 7.18934C26.5448 6.39066 26.0274 5.70535 25.2909 5.41206H25.2889C25.0429 5.31446 24.7739 5.25976 24.4899 5.25976L24.4884 5.2572ZM24.4649 6.00914C25.138 6.00914 25.6837 6.52681 25.6837 7.16533C25.683 7.67483 25.3308 8.12382 24.8165 8.27081H24.1046C23.5936 8.12112 23.2456 7.67272 23.2456 7.16533C23.2456 6.52676 23.7912 6.00904 24.4643 6.00914H24.4649ZM17.4982 9.1751L22.6603 9.17705L26.2129 9.20049L31.8983 9.17705C34.6994 9.21485 35.3753 11.0358 35.3534 13.4094L35.3651 16.8625C34.1614 22.3468 34.6066 26.446 35.369 30.9173L35.3905 33.6945C35.3644 35.4384 33.9469 37.2333 30.9492 37.173C29.5996 37.1465 28.3203 37.1649 26.9238 37.1574L21.9239 37.1652L17.9591 37.1691C17.7343 37.1688 17.504 37.1545 17.2755 37.1378C17.2181 37.1336 17.1609 37.1354 17.1037 37.13C17.1024 37.1299 17.1011 37.1301 17.0998 37.13C16.8958 37.1105 16.7005 37.0703 16.5041 37.0324C16.4206 37.0166 16.3332 37.009 16.2521 36.9894C15.7271 36.8604 15.2551 36.6484 14.9231 36.3094H14.9211C14.9098 36.2979 14.8989 36.2861 14.8879 36.2742C14.8705 36.2546 14.8501 36.231 14.8489 36.2293V36.2273C14.7985 36.16 14.762 36.1237 14.7141 36.0633C13.9345 34.9912 13.9428 34.5734 13.7962 33.325V33.323L13.7844 30.9168C13.9491 30.1104 14.0839 29.3451 14.1907 28.6142V28.6122C14.2974 27.8813 14.376 27.1851 14.4329 26.5204V26.5184C14.4897 25.8538 14.5252 25.2199 14.5403 24.6122V24.6102C14.5554 24.0026 14.5511 23.4223 14.5325 22.8622V22.8583C14.5138 22.2983 14.4791 21.7591 14.4348 21.2373V21.2353C14.3905 20.7134 14.3366 20.2087 14.2747 19.7158V19.7138C14.1508 18.7277 13.9987 17.7893 13.8528 16.8626V16.8606L13.7864 13.2962C13.7817 12.9601 13.8025 12.6441 13.845 12.3469V12.3449C13.8876 12.0479 13.952 11.7701 14.0384 11.5129V11.5109C14.1248 11.2539 14.2339 11.0181 14.3606 10.802V10.8C14.4875 10.5838 14.6345 10.3882 14.7981 10.214C15.4543 9.51599 16.3919 9.15893 17.4993 9.17493L17.4982 9.1751ZM23.8751 15.0562L21.1562 22.3581H22.705L23.203 21.0965H25.9979L26.4842 22.3581H28.0018L27.4549 20.8973H27.4315V20.8348L25.2694 15.0555L23.8751 15.0562ZM24.5841 17.2242L25.4884 19.6597L23.6993 19.6577L24.1036 18.5854L24.5841 17.2242ZM29.5431 17.7203V18.5074H28.4572L28.4611 19.4312H28.4591V19.9273H28.463V19.9293H29.5431V20.6324H30.6504V19.9293H31.3008L31.7715 19.9273L31.7774 19.4253V18.5074H30.6504V17.7203H29.5431ZM16.2192 24.6652V25.8136H32.969V24.6652H16.2192ZM28.8091 27.5929C28.591 27.5901 28.3547 27.5945 28.1001 27.6143C26.7555 27.7886 25.3532 28.3323 24.522 28.6143C22.1064 29.434 20.6701 30.6965 15.2878 30.9405L15.2819 32.7882C15.2741 34.6973 16.3495 36.2119 18.2349 36.2119H30.5218C32.7386 36.1458 33.7522 34.6836 33.8772 33.3214L33.8792 30.9191C33.3805 30.0472 32.0536 28.7826 31.559 28.4621C31.0182 28.1118 30.3357 27.6124 28.809 27.593L28.8091 27.5929ZM23.8579 39.7807V39.7827H23.8325L23.8579 39.7807Z" fill="#333333"/>
</svg>
