<svg width="48" height="48" viewBox="0 0 48 48" fill="none" xmlns="http://www.w3.org/2000/svg">
<path d="M24.0281 5.19421C22.8941 5.19421 21.9741 6.0582 21.9741 7.12389C21.9741 7.70428 22.2521 8.25368 22.7321 8.61997H21.4392H21.1692L17.0382 8.60437C14.6622 8.61567 12.8303 9.93625 12.8273 12.7395L12.8253 16.8035C13.5282 20.7544 13.9362 24.9294 12.8253 30.8583L12.8333 33.5783C12.9503 36.1652 14.3842 37.6162 16.8622 37.6162H21.3621V38.9752C21.3621 39.7562 21.9201 40.2252 22.6121 40.2252H23.2121V42.6621H24.9621V40.2252H25.6321C26.3801 40.2252 26.8821 39.9102 26.8821 38.9752V37.6162H27.2841H31.38C33.608 37.6162 35.425 36.0092 35.433 33.7823L35.442 30.8583C34.596 26.0584 34.449 21.2704 35.433 16.8035L35.401 12.6295C35.384 10.2585 34.061 8.59277 31.38 8.60827L26.9051 8.61607V8.62387H25.3331C25.8091 8.25728 26.0851 7.70978 26.0851 7.13169C26.0851 6.066 25.1651 5.20211 24.0301 5.20211L24.0281 5.19421ZM24.0281 5.68641C24.8401 5.68641 25.4971 6.33 25.4971 7.12389C25.4971 7.91788 24.8401 8.56137 24.0281 8.56137C23.2171 8.56137 22.5601 7.91788 22.5601 7.12389C22.5601 6.33 23.2171 5.68641 24.0281 5.68641ZM17.0382 9.11216L22.2001 9.11416L25.7531 9.13556L31.439 9.11416C34.24 9.15196 34.916 10.9725 34.894 13.3465L34.905 16.7995C33.702 22.2834 34.147 26.3833 34.909 30.8543L34.931 33.6313C34.905 35.3752 33.487 37.1702 30.489 37.1102C29.1401 37.0832 27.8601 37.1022 26.4641 37.0942L21.4641 37.1022L17.4992 37.1062C16.2812 37.1042 14.9212 36.9112 14.3002 36.0732C13.4592 34.9382 13.4862 34.5412 13.3353 33.2603L13.3233 30.8543C14.6422 24.3974 13.9752 20.5094 13.3922 16.7995L13.3253 13.2355C13.2873 10.5415 14.8242 9.08016 17.0382 9.11216ZM23.8821 15.0945C23.2731 15.0945 22.7321 15.2415 22.2571 15.5355C21.7851 15.8265 21.4202 16.2475 21.1592 16.7955C20.9022 17.3405 20.7732 17.9715 20.7732 18.6904V19.0514C20.7762 19.7534 20.9082 20.3754 21.1692 20.9164C21.4302 21.4554 21.7981 21.8704 22.2731 22.1604C22.7471 22.4514 23.2871 22.5964 23.8921 22.5964C24.5041 22.5964 25.0451 22.4494 25.5171 22.1554C25.9911 21.8614 26.3561 21.4444 26.6101 20.9034C26.8651 20.3614 26.9911 19.7314 26.9911 19.0124V18.6864C26.9911 17.9705 26.8611 17.3405 26.6011 16.7955C26.3431 16.2475 25.9761 15.8265 25.5011 15.5355C25.0301 15.2415 24.4901 15.0945 23.8821 15.0945ZM23.8821 15.5185C24.3791 15.5185 24.8191 15.6465 25.2041 15.9075C25.5921 16.1645 25.8921 16.5365 26.1031 17.0205C26.3161 17.5015 26.4211 18.0585 26.4211 18.6904V18.9774C26.4211 19.6124 26.3181 20.1684 26.1101 20.6474C25.9031 21.1254 25.6041 21.4934 25.2161 21.7524C24.8311 22.0124 24.3891 22.1434 23.8901 22.1434C23.3961 22.1434 22.9551 22.0154 22.5671 21.7584C22.1801 21.5014 21.8801 21.1344 21.6671 20.6584C21.4541 20.1804 21.3462 19.6324 21.3432 19.0124V18.6944C21.3432 18.0595 21.4491 17.5015 21.6591 17.0205C21.8721 16.5365 22.1711 16.1655 22.5561 15.9085C22.9431 15.6495 23.3851 15.5185 23.8821 15.5185ZM23.8821 15.9035V15.9055C23.4651 15.9055 23.0921 16.0215 22.7671 16.2505C22.4431 16.4775 22.1941 16.8035 22.0151 17.2315C21.8381 17.6565 21.7491 18.1495 21.7491 18.7094V18.9924C21.7511 19.5404 21.8421 20.0234 22.0211 20.4464C22.1991 20.8654 22.4531 21.1884 22.7781 21.4144C23.1041 21.6414 23.4731 21.7524 23.8881 21.7524C24.3071 21.7524 24.6801 21.6384 25.0031 21.4084C25.3291 21.1794 25.5791 20.8564 25.7531 20.4344C25.9271 20.0114 26.0151 19.5184 26.0151 18.9574V18.7054C26.0151 18.1475 25.9261 17.6545 25.7471 17.2295C25.5711 16.8015 25.3191 16.4755 24.9931 16.2485C24.6701 16.0195 24.2991 15.9035 23.8821 15.9035ZM23.8821 16.3385C24.3901 16.3385 24.7821 16.5365 25.0561 16.9345C25.3301 17.3325 25.4661 17.9145 25.4661 18.6804V19.0374C25.4631 19.7964 25.3271 20.3764 25.0561 20.7744C24.7851 21.1684 24.3971 21.3664 23.8921 21.3664C23.3771 21.3664 22.9821 21.1604 22.7081 20.7484C22.4341 20.3374 22.2961 19.7584 22.2961 19.0124V18.6554C22.2991 17.8965 22.4401 17.3215 22.7141 16.9305C22.9881 16.5355 23.3771 16.3385 23.8821 16.3385ZM27.9971 18.4444L28.0011 19.3674H27.9991V19.8644H28.0031V19.8664H28.9291H29.417V19.8644H29.868V19.8664H30.841L31.312 19.8644L31.317 19.3624V18.4444H28.0051H27.9971ZM28.4871 18.9404H30.815V19.3674H28.4871V18.9404ZM15.7922 24.9634C15.7862 25.3934 15.7932 25.3254 15.7922 25.4634H32.507V24.9634H15.7922ZM28.2471 27.5123C28.0291 27.5093 27.8941 27.5323 27.6401 27.5513C26.2951 27.7253 24.8931 28.2693 24.0621 28.5513C21.6461 29.3713 20.1962 30.6123 14.8142 30.8563L14.8042 32.7033C14.8332 34.7892 16.2332 36.1492 18.1182 36.1492H21.5831H26.2551H30.062C32.278 36.0832 33.292 34.6202 33.417 33.2583L33.419 30.8563C32.92 29.9843 31.593 28.7193 31.099 28.3993C30.23 27.8253 29.2241 27.5073 28.2471 27.5143V27.5123ZM28.0321 28.0203C29.41 27.9553 30.271 28.4073 31.091 28.9813C31.558 29.3373 32.618 30.4783 32.919 30.8543V32.8283C32.911 34.6082 31.529 35.6062 30.083 35.6272C28.3321 35.6462 26.5931 35.6352 24.2611 35.6472C21.4501 35.6472 19.2742 35.6812 17.9092 35.6662C17.0062 35.6702 15.7692 34.9032 15.4312 33.6903C15.2282 32.9743 15.2622 31.9303 15.2632 31.2683C16.7042 31.2533 18.1752 30.9813 19.3602 30.7563C21.2292 30.3473 22.6371 29.5913 24.0641 29.0473C25.4181 28.5313 27.0561 28.0223 28.0321 28.0203ZM21.8761 37.6122H26.3601V38.2822C26.3601 38.2852 26.3621 38.2892 26.3621 38.2932V38.5692C26.3621 39.5392 26.2691 39.7212 25.2101 39.7212L24.4521 39.7172L24.4561 42.1622L23.7141 42.1582L23.7261 39.7172L23.0191 39.7212C22.3131 39.7252 21.8761 39.6702 21.8761 38.5672V38.5322V38.2892V37.6122Z" fill="#333333"/>
</svg>
