<svg width="48" height="48" viewBox="0 0 48 48" fill="none" xmlns="http://www.w3.org/2000/svg">
<path d="M24.056 5.104C22.9212 5.104 22.0013 5.96798 22.0013 7.03369C22.0015 7.61404 22.2798 8.16347 22.7591 8.52979H21.4662H21.1966L17.0658 8.51416C14.6893 8.5255 12.8575 9.84607 12.8548 12.6489L12.8528 16.7134C13.5558 20.6642 13.9632 24.839 12.8528 30.7681L12.8606 33.4888C12.9771 36.0758 14.4119 37.5259 16.8899 37.5259H21.3899V38.8853C21.3899 39.6662 21.9474 40.1353 22.6399 40.1353H23.2396V42.5728H24.9896V40.1353H25.6595C26.4072 40.1353 26.9095 39.8208 26.9095 38.8853V37.5259H27.3118H31.4075C33.6355 37.5259 35.453 35.9199 35.4603 33.6919L35.4701 30.7681C34.6234 25.9683 34.4761 21.1802 35.4603 16.7134L35.429 12.5395C35.4113 10.168 34.0885 8.50257 31.4075 8.51807L26.9329 8.52588V8.53369H25.3606C25.8366 8.16707 26.1126 7.61958 26.1126 7.0415C26.1126 5.97579 25.1927 5.11181 24.0579 5.11181L24.056 5.104ZM24.056 5.59619C24.8672 5.59619 25.5248 6.2398 25.5248 7.03369C25.5248 7.82762 24.8672 8.47119 24.056 8.47119C23.2449 8.47119 22.5873 7.82762 22.5873 7.03369C22.5873 6.2398 23.2449 5.59619 24.056 5.59619ZM17.0658 9.02197L22.2279 9.02392L25.7806 9.04541L31.4662 9.02392C34.2673 9.06172 34.9431 10.8827 34.9212 13.2563L34.933 16.7095C33.7292 22.1938 34.1746 26.2932 34.9369 30.7642L34.9584 33.5415C34.9323 35.2854 33.5147 37.0803 30.5169 37.02C29.1673 36.9936 27.888 37.0119 26.4916 37.0044L21.4916 37.0122L17.5267 37.0161C16.3084 37.0146 14.9491 36.8211 14.3275 35.9829C13.4862 34.8483 13.5132 34.4518 13.3626 33.1704L13.3509 30.7641C14.6693 24.3076 14.003 20.4189 13.4193 16.7094L13.3529 13.145C13.3148 10.4511 14.8511 8.9899 17.0658 9.02195V9.02197ZM15.4545 14.9067V22.2095H16.9584V19.5356H18.1576L19.5267 22.2095H21.142V22.1392L19.5619 19.1548C19.9999 18.9576 20.3265 18.6948 20.5404 18.3638C20.7578 18.0295 20.8666 17.612 20.8666 17.1138C20.8666 16.4117 20.6315 15.8694 20.1634 15.4849C19.6953 15.1004 19.0299 14.9067 18.1673 14.9067H15.4545ZM22.015 14.9067V22.2095H23.5189V19.0806H26.4525V22.2095H27.9564V14.9067H26.4525V17.8657H23.5189V14.9067H22.015ZM22.4955 15.3657H22.9994V18.2192H26.9525V15.4067H27.4564V21.7056H26.9525V18.7231H22.9994V21.6646H22.4955V15.3657ZM16.2904 15.4067H18.5443C20.7501 15.3624 20.9954 18.2635 19.1537 18.981C19.0463 19.0454 19.1091 18.9976 19.0463 19.0454L20.4388 21.7095L19.8177 21.7075L18.4759 19.0454H16.4584V21.7094H15.9545V15.4106H16.2904V15.4067ZM16.4584 15.5903V18.8228H18.683C18.7653 18.8197 18.6277 18.8301 18.724 18.8267C20.922 17.8075 19.7005 15.5901 18.3763 15.5903H16.4584ZM16.9584 16.1255H18.1673C18.5719 16.1255 18.8719 16.2251 19.0658 16.4224C19.2631 16.6197 19.3607 16.8905 19.3607 17.2349C19.3607 17.5726 19.2575 17.8377 19.0502 18.0317C18.8429 18.2222 18.551 18.3189 18.1732 18.3189H16.9584V16.1255ZM30.1439 17.4478L30.1556 18.3853H29.2025L29.2064 19.8228L30.1322 19.8189L30.1439 20.7739L31.5814 20.7817L31.5755 19.8208L32.5169 19.8188L32.5228 19.3168V18.3891L31.5677 18.3911L31.5716 17.4536L30.1439 17.4478ZM31.0775 17.9439L31.0795 18.8911L32.0209 18.8872V19.3286L31.0678 19.3247L31.0776 20.2857H30.6206L30.6245 19.3247L29.6928 19.3325V18.8911L30.6362 18.8931L30.644 17.9478L31.0775 17.9439ZM15.8197 24.8735C15.814 25.3029 15.8204 25.2352 15.8197 25.3735H32.5345V24.8735H15.8197ZM28.2748 27.4243C28.0567 27.4215 27.9219 27.4425 27.6673 27.4614C26.3228 27.6357 24.9204 28.1794 24.0892 28.4614C21.6735 29.2811 20.2236 30.5222 14.8412 30.7661L14.8314 32.6138C14.8601 34.6996 16.2604 36.0591 18.1458 36.0591H21.6107H26.2825H30.0892C32.3061 35.9929 33.3197 34.5307 33.4447 33.1685L33.4467 30.7661C32.948 29.8942 31.621 28.6296 31.1263 28.3091C30.2579 27.7354 29.2521 27.4169 28.2748 27.4243ZM28.0599 27.9321C29.4372 27.8675 30.2988 28.3193 31.1185 28.8931C31.5854 29.2491 32.6452 30.3902 32.9466 30.7661V32.7407C32.939 34.5202 31.5564 35.5182 30.1107 35.5396C28.3599 35.5585 26.6203 35.5478 24.2884 35.5591C21.4775 35.5591 19.3013 35.5918 17.9369 35.5767C17.0335 35.5805 15.7965 34.8155 15.4584 33.6021C15.2556 32.8861 15.2899 31.8425 15.2904 31.1802C16.7316 31.1651 18.2025 30.8929 19.388 30.6685C21.2568 30.2598 22.6651 29.5035 24.0912 28.9595C25.4453 28.443 27.0835 27.9341 28.0599 27.9321ZM21.9037 37.522H26.388V38.1919C26.3881 38.1954 26.39 38.1998 26.39 38.2036V38.479C26.39 39.4493 26.2964 39.6313 25.2377 39.6314L24.4799 39.6275L24.4838 42.0728L23.7416 42.0689L23.7533 39.6275L23.0463 39.6314C22.3412 39.6352 21.9037 39.58 21.9037 38.4771V38.4419V38.1997V37.522Z" fill="#333333"/>
</svg>
