<svg width="48" height="48" viewBox="0 0 48 48" fill="none" xmlns="http://www.w3.org/2000/svg">
<path fill-rule="evenodd" clip-rule="evenodd" d="M18.2124 4.09928C15.6156 3.99354 13.5615 4.30099 13.5615 4.30099C11.9897 4.4743 9.32342 5.39872 9.32866 6.47588L9.40758 22.7613C9.41282 23.8385 10.2182 24.7053 11.2258 24.7053H11.676C10.4855 25.7535 9.53945 27.0011 8.89228 28.3762C8.24511 29.7514 7.90959 31.2269 7.90503 32.7179C7.90515 34.2033 8.23379 35.6741 8.87218 37.0464C9.51056 38.4187 10.4462 39.6656 11.6256 40.7158C12.8051 41.7661 14.2053 42.5991 15.7462 43.1674C17.2872 43.7357 18.9387 44.0281 20.6065 44.0279C22.4699 44.022 24.309 43.651 25.9933 42.9412C27.6776 42.2314 29.1659 41.2002 30.3526 39.9208C30.6426 39.9678 30.9358 39.9922 31.2296 39.9938C32.7207 39.9935 34.1506 39.4058 35.2048 38.3598C36.2589 37.3138 36.8511 35.8953 36.851 34.4163C36.8511 32.9373 36.2589 31.5188 35.2047 30.4728C34.1506 29.4268 32.7207 28.839 31.2296 28.8387C30.4911 28.8385 29.7597 28.9826 29.0773 29.2628C28.395 29.543 27.7749 29.9538 27.2526 30.4718C26.7303 30.9897 26.316 31.6047 26.0334 32.2815C25.7507 32.9583 25.6052 33.6837 25.6053 34.4163C25.6057 35.3379 25.8363 36.2451 26.2765 37.0567C26.7167 37.8683 27.3529 38.5591 28.1281 39.0672C27.163 39.9833 25.9982 40.7143 24.7049 41.2154C23.4115 41.7166 22.017 41.9773 20.6065 41.9816C17.8583 41.9817 15.2225 41.0094 13.2791 39.2787C11.3357 37.548 10.2438 35.2006 10.2436 32.753C10.2481 31.11 10.745 29.498 11.6828 28.0832C12.6207 26.6685 13.9655 25.5024 15.5786 24.7053H23.0504C24.058 24.7053 24.8716 23.8385 24.8716 22.7613V9.83762C26.1148 8.89539 27.6768 8.37373 29.3425 8.34442C31.0083 8.3151 32.696 8.77957 34.1733 9.67392C35.1107 10.2441 35.9389 10.9731 36.6106 11.8193C37.2824 12.6656 37.7844 13.6125 38.0882 14.606C38.3919 15.5995 38.4914 16.6202 38.381 17.6097C38.2705 18.5992 37.9523 19.5382 37.4444 20.373C36.7531 21.5032 35.7353 22.4058 34.4963 22.9876C33.2572 23.5693 31.8419 23.8091 30.3965 23.6821C30.5616 23.2388 30.6439 22.7922 30.6363 22.3807C30.6286 21.9692 30.5313 21.6053 30.3526 21.3201L30.3556 21.3171C30.5752 20.9562 30.5251 20.5302 30.2474 20.3613C29.9747 20.1954 29.5865 20.3443 29.3646 20.6916C28.9253 20.6401 28.4279 20.7795 27.9461 21.0891C27.4643 21.3987 27.0238 21.8621 26.6898 22.4105C26.3568 22.9585 26.148 23.562 26.0943 24.1317C26.0406 24.7013 26.1449 25.2068 26.3917 25.5735L26.3244 25.6816C26.1048 26.0426 26.152 26.4716 26.4297 26.6404C26.7073 26.8093 27.1075 26.6536 27.3271 26.2926L27.4089 26.161C27.7146 26.1858 28.0478 26.1206 28.3844 25.9699C28.7211 25.8193 29.0528 25.5871 29.3558 25.2899C31.297 25.6537 33.2498 25.4766 34.9717 24.7807C36.6935 24.0847 38.1084 22.9007 39.0405 21.3757C40.2972 19.3096 40.5809 16.7677 39.8293 14.309C39.0777 11.8503 37.3524 9.67619 35.0328 8.26491H35.0298C33.4546 7.31098 31.6797 6.7532 29.8919 6.6503C28.1042 6.54741 26.3698 6.90323 24.8715 7.68026V6.60451C24.8715 5.52733 22.8007 4.67636 20.9339 4.36822C20.003 4.21457 19.0779 4.13453 18.2123 4.09928H18.2124ZM17.1396 4.34191C21.1642 4.34174 24.4263 5.30781 24.4243 6.49927C24.4215 7.6897 21.1607 8.65388 17.1396 8.6537C13.1194 8.65347 9.85774 7.68941 9.85484 6.49927C9.85274 5.3081 13.1159 4.34214 17.1396 4.34191ZM31.2296 30.5108C32.2742 30.5108 33.276 30.9222 34.0149 31.6545C34.7538 32.3868 35.1693 33.3802 35.1702 34.4163C35.1705 34.9298 35.0688 35.4384 34.871 35.9129C34.6731 36.3874 34.3829 36.8186 34.0169 37.1819C33.651 37.5451 33.2165 37.8333 32.7382 38.0298C32.26 38.2264 31.7473 38.3276 31.2296 38.3276C30.7119 38.3276 30.1993 38.2264 29.721 38.0298C29.2428 37.8333 28.8083 37.5451 28.4423 37.1819C28.0764 36.8186 27.7862 36.3874 27.5883 35.9129C27.3904 35.4384 27.2887 34.9298 27.2891 34.4163C27.2899 33.3802 27.7055 32.3868 28.4444 31.6545C29.1833 30.9222 30.1851 30.5108 31.2296 30.5108ZM31.2296 30.9259C30.9904 30.9259 30.797 31.1682 30.797 31.4697V33.7089C30.666 33.7428 30.5573 33.7915 30.4819 33.8499C30.4065 33.9084 30.3669 33.9747 30.3673 34.0421C30.3681 34.109 30.4081 34.1747 30.4835 34.2326C30.5589 34.2905 30.6669 34.3387 30.797 34.3724V34.6443C30.797 34.9457 30.9904 35.188 31.2296 35.188C31.4689 35.188 31.6593 34.9457 31.6593 34.6443V34.3783C31.793 34.3446 31.904 34.2957 31.9811 34.2366C32.0582 34.1775 32.0984 34.1104 32.0978 34.0421C32.0973 33.9743 32.0564 33.9078 31.9794 33.8493C31.9024 33.7908 31.792 33.7423 31.6593 33.7089V31.4697C31.6593 31.1682 31.4689 30.9259 31.2296 30.9259Z" fill="#333333"/>
</svg>
