<svg width="48" height="48" viewBox="0 0 48 48" fill="none" xmlns="http://www.w3.org/2000/svg">
<path fill-rule="evenodd" clip-rule="evenodd" d="M48 0H0V48H48V0ZM26.4444 17.7255C25.7209 18.2089 24.8702 18.467 23.9999 18.467C22.833 18.467 21.7138 18.0034 20.8887 17.1783C20.0635 16.3531 19.5999 15.2339 19.5999 14.067C19.5999 13.1968 19.858 12.3461 20.3415 11.6225C20.8249 10.8989 21.5121 10.3349 22.3161 10.0019C23.1201 9.6689 24.0048 9.58176 24.8583 9.75154C25.7118 9.92131 26.4959 10.3404 27.1112 10.9557C27.7266 11.5711 28.1456 12.3551 28.3154 13.2086C28.4852 14.0621 28.398 14.9468 28.065 15.7508C27.732 16.5548 27.168 17.242 26.4444 17.7255ZM30.2619 20.822L33.4529 27.443H33.4579C33.5709 27.6774 33.6365 27.9318 33.6512 28.1915C33.6658 28.4513 33.6291 28.7115 33.5432 28.9571C33.4573 29.2027 33.3239 29.429 33.1506 29.623C32.9772 29.8171 32.7673 29.9751 32.5329 30.088C32.2985 30.2009 32.0442 30.2666 31.7844 30.2812C31.5246 30.2959 31.2645 30.2592 31.0189 30.1733C30.7732 30.0874 30.547 29.954 30.3529 29.7806C30.1589 29.6073 30.0009 29.3974 29.8879 29.163L28.4149 26.106V39.917C28.4149 40.4424 28.2062 40.9463 27.8347 41.3178C27.4632 41.6893 26.9593 41.898 26.4339 41.898C25.9085 41.898 25.4047 41.6893 25.0332 41.3178C24.6616 40.9463 24.4529 40.4424 24.4529 39.917V33.8H23.5529V39.918C23.5529 40.4434 23.3442 40.9473 22.9727 41.3188C22.6012 41.6903 22.0973 41.899 21.5719 41.899C21.0465 41.899 20.5427 41.6903 20.1712 41.3188C19.7996 40.9473 19.5909 40.4434 19.5909 39.918V26.106L18.1179 29.163C17.8898 29.6364 17.483 29.9998 16.987 30.1733C16.491 30.3468 15.9463 30.3161 15.4729 30.088C14.9995 29.8599 14.6361 29.4531 14.4626 28.9571C14.2892 28.461 14.3198 27.9164 14.5479 27.443L17.7479 20.802C17.7677 20.7612 17.7917 20.7243 17.8158 20.6874C17.8284 20.6681 17.841 20.6488 17.8529 20.629C18.009 20.306 18.2528 20.0335 18.5564 19.8425C18.86 19.6516 19.2112 19.5498 19.5699 19.549H28.4619C28.8567 19.5491 29.2418 19.6716 29.5641 19.8996C29.8865 20.1275 30.1303 20.4498 30.2619 20.822Z" fill="#333333"/>
</svg>
