<svg width="48" height="48" viewBox="0 0 48 48" fill="none" xmlns="http://www.w3.org/2000/svg">
<path d="M24.0012 4.04395C22.8366 4.04395 21.7197 4.50664 20.8962 5.33012C20.0727 6.15361 19.6101 7.27044 19.6101 8.43502C19.6101 9.5996 20.0727 10.7164 20.8962 11.5399C21.7197 12.3634 22.8366 12.8261 24.0012 12.8261C25.1657 12.8261 26.2826 12.3634 27.1061 11.5399C27.9296 10.7164 28.3922 9.5996 28.3922 8.43502C28.3922 7.27044 27.9296 6.15361 27.1061 5.33012C26.2826 4.50664 25.1657 4.04395 24.0012 4.04395Z" fill="#333333"/>
<path d="M27.9273 13C28.9565 13 29.7992 13.776 29.914 14.767C30.0751 14.9153 30.1763 15.0232 30.1763 15.0232C30.1763 15.0232 32.494 18 32.5 20C32.503 20.981 31.5231 21.9619 30.5238 22.7069C30.5043 22.7214 30.4849 22.7358 30.4654 22.7501C30.1801 22.9601 29.8946 23.1505 29.6316 23.3158C29.4848 23.408 29.3451 23.4924 29.2161 23.568L29.5793 24.779L29.5689 25.0714C29.5414 25.8416 29.0809 26.4973 28.4266 26.8078V42.0141C28.4266 43.1094 27.5445 43.9915 26.4492 43.9915C25.3538 43.9915 24.4717 43.1094 24.4717 42.0141V30.387H23.5185V42.0141C23.5185 43.1094 22.6364 43.9915 21.5411 43.9915C20.4458 43.9915 19.5661 43.1094 19.5661 42.0141L19.5102 26.7764C18.8896 26.4545 18.4577 25.8165 18.4311 25.0714L18.4165 24.6634L18.7451 23.5796C18.6283 23.51 18.5021 23.4327 18.3696 23.3486C18.0801 23.1647 17.7604 22.9481 17.4426 22.7066C16.4621 21.9617 15.5 20.9809 15.5 20C15.5 18 17.8237 15.0234 17.8237 15.0234C17.8237 15.0234 17.9248 14.9159 18.0859 14.768C18.2002 13.7765 19.0431 13 20.0727 13H20.3856L18.4397 19.4178C18.8456 19.8134 19.2614 20.167 19.6861 20.4762L21.9528 13H26.0466L28.2933 20.4911C28.719 20.1829 29.1357 19.8301 29.5425 19.4351L27.6125 13H27.9273Z" fill="#333333"/>
</svg>
