<svg width="48" height="48" viewBox="0 0 48 48" fill="none" xmlns="http://www.w3.org/2000/svg">
<path d="M29.4173 14.8246L29.4387 15.0091L29.5754 15.1349C29.65 15.2036 29.7104 15.2626 29.7517 15.304C29.7711 15.3234 29.7861 15.3387 29.7963 15.3493L29.8045 15.3601C29.8204 15.3809 29.8441 15.4122 29.8746 15.4532C29.9355 15.5352 30.0233 15.6555 30.129 15.8064C30.3408 16.1088 30.6227 16.5315 30.904 17.0136C31.1861 17.4969 31.4629 18.0321 31.6684 18.56C31.8761 19.0934 31.9988 19.5889 32 20.0015C32.001 20.3272 31.8355 20.7077 31.4976 21.1292C31.1651 21.5439 30.7073 21.9464 30.2249 22.306L30.5238 22.7069L30.2249 22.306L30.1691 22.3474C29.8954 22.5488 29.6204 22.7323 29.3655 22.8925C29.2235 22.9817 29.0881 23.0634 28.9631 23.1368L28.6244 23.3355L28.7372 23.7117L29.0767 24.8436L29.0692 25.0535C29.0486 25.6305 28.7041 26.1227 28.2122 26.3561L27.9266 26.4916V26.8078V42.0141C27.9266 42.8333 27.2683 43.4915 26.4492 43.4915C25.6299 43.4915 24.9717 42.8332 24.9717 42.0141V30.387V29.887H24.4717H23.5185H23.0185V30.387V42.0141C23.0185 42.8333 22.3602 43.4915 21.5411 43.4915C20.7227 43.4915 20.0661 42.834 20.0661 42.0141L20.0661 42.0123L20.0102 26.7746L20.0091 26.4719L19.7404 26.3326C19.2738 26.0905 18.9507 25.6118 18.9308 25.0535L18.9192 24.7287L19.2236 23.7247L19.3371 23.3505L19.0012 23.1502C18.888 23.0827 18.7658 23.0079 18.6376 22.9265C18.3571 22.7484 18.0494 22.5397 17.745 22.3085C17.2721 21.9492 16.823 21.547 16.4964 21.1324C16.1648 20.7114 16 20.3292 16 20C16 19.588 16.1218 19.093 16.3291 18.5598C16.5343 18.0321 16.8112 17.4972 17.0935 17.014C17.3752 16.5319 17.6576 16.1093 17.8698 15.807C17.9758 15.6561 18.0638 15.5359 18.1248 15.4539C18.1553 15.4129 18.1791 15.3815 18.195 15.3607L18.2032 15.3501C18.2134 15.3395 18.2284 15.3242 18.2477 15.305C18.289 15.2637 18.3495 15.2048 18.4241 15.1363L18.5613 15.0104L18.5826 14.8253C18.6683 14.0822 19.301 13.5 20.0727 13.5H20.3371L18.5192 19.8626L18.4209 20.2067L18.7149 20.4108L19.401 20.887L19.9653 21.2786L20.1646 20.6213L22.3237 13.5H25.6746L27.8144 20.6348L28.0166 21.3089L28.5866 20.8961C28.7952 20.7451 28.968 20.625 29.0881 20.543C29.1482 20.502 29.195 20.4706 29.2265 20.4496L29.2619 20.4261L29.2705 20.4205L29.2724 20.4193L29.2728 20.4191L29.2728 20.419L29.2728 20.419L29.2728 20.419L29.5822 20.2176L29.4808 19.8626L27.6629 13.5H27.9273C28.6987 13.5 29.3313 14.0818 29.4173 14.8246ZM21.2497 5.68367C21.9795 4.95395 22.9692 4.54395 24.0012 4.54395C25.0331 4.54395 26.0228 4.95394 26.7525 5.68367C27.4823 6.41339 27.8922 7.40304 27.8922 8.43502C27.8922 9.46698 27.4823 10.4566 26.7525 11.1863C26.0228 11.9161 25.0331 12.3261 24.0012 12.3261C22.9692 12.3261 21.9795 11.9161 21.2497 11.1863C20.52 10.4566 20.1101 9.46698 20.1101 8.43502C20.1101 7.40304 20.52 6.41339 21.2497 5.68367Z" stroke="#333333"/>
</svg>
