<svg width="48" height="48" viewBox="0 0 48 48" fill="none" xmlns="http://www.w3.org/2000/svg">
<path fill-rule="evenodd" clip-rule="evenodd" d="M27.945 12C27.945 14.2091 26.1542 16 23.945 16C21.7359 16 19.945 14.2091 19.945 12C19.945 9.79086 21.7359 8 23.945 8C26.1542 8 27.945 9.79086 27.945 12ZM29.5 38C29.5 39.0563 28.6785 39.9305 27.6243 39.9961C26.57 40.0618 25.6465 39.2962 25.5154 38.2481L24.672 31.5H24.3559L23.4835 38.2561C23.3485 39.3022 22.4243 40.0636 21.3717 39.9959C20.3191 39.9282 19.5 39.0547 19.5 38V26.8245C19.5253 26.3759 19.7485 26.0357 20.106 25.4909C20.3487 25.121 20.6534 24.6567 21 24C21.147 23.7215 21.3498 23.4208 21.5767 23.0843C22.3849 21.886 23.5 20.2325 23.5 17.5H25.4336C25.4336 20.2325 26.5487 21.886 27.3568 23.0843C27.5838 23.4208 27.7866 23.7215 27.9336 24C28.2802 24.6567 28.5849 25.121 28.8276 25.4909C29.2301 26.1044 29.4625 26.4584 29.4336 27C29.6949 24.3867 29.1367 23.2758 28.5443 22.0968C28.0032 21.0202 27.4336 19.8866 27.4336 17.5H29.5V38ZM20.3893 22.0968C20.0104 22.851 19.6454 23.5772 19.5 24.6866V17.5H21.5C21.5 19.8866 20.9304 21.0202 20.3893 22.0968Z" fill="#333333"/>
<path fill-rule="evenodd" clip-rule="evenodd" d="M20.3719 17.7794C21.046 18.2609 21.2021 19.1977 20.7206 19.8719L18.8706 22.4618L21.684 26.0791C22.1926 26.733 22.0748 27.6754 21.4209 28.184C20.767 28.6926 19.8246 28.5748 19.316 27.9209L15.816 23.4209C15.4086 22.8972 15.3938 22.1681 15.7794 21.6281L18.2794 18.1281C18.7609 17.454 19.6977 17.2979 20.3719 17.7794Z" fill="#333333"/>
<path fill-rule="evenodd" clip-rule="evenodd" d="M28.6281 17.7794C27.954 18.2609 27.7979 19.1977 28.2794 19.8719L30.1294 22.4618L27.316 26.0791C26.8074 26.733 26.9252 27.6754 27.5791 28.184C28.233 28.6926 29.1754 28.5748 29.684 27.9209L33.184 23.4209C33.5914 22.8972 33.6062 22.1681 33.2206 21.6281L30.7206 18.1281C30.2391 17.454 29.3023 17.2979 28.6281 17.7794Z" fill="#333333"/>
<path d="M18.5 25H30.5V29H18.5V25Z" fill="#333333"/>
</svg>
