<svg width="48" height="48" viewBox="0 0 48 48" fill="none" xmlns="http://www.w3.org/2000/svg">
<path d="M33.0026 27.6601C33.0112 27.6778 33.0207 27.6949 33.0311 27.7113C33.1012 27.8721 33.1422 28.0442 33.1521 28.2197C33.163 28.4139 33.1356 28.6084 33.0714 28.792C33.0072 28.9756 32.9074 29.1448 32.7778 29.2899C32.6482 29.435 32.4913 29.5531 32.316 29.6375C32.1408 29.722 31.9506 29.7711 31.7564 29.782C31.5622 29.793 31.3677 29.7655 31.184 29.7013C31.0004 29.6371 30.8312 29.5373 30.6861 29.4077C30.5411 29.2781 30.4229 29.1212 30.3385 28.946L30.3385 28.946L28.8655 25.889C28.7642 25.6788 28.5311 25.5666 28.3037 25.6185C28.0763 25.6705 27.9151 25.8727 27.9151 26.106V39.917C27.9151 40.3098 27.759 40.6865 27.4813 40.9642C27.2035 41.242 26.8268 41.398 26.4341 41.398C26.0413 41.398 25.6646 41.242 25.3868 40.9642C25.1091 40.6865 24.9531 40.3098 24.9531 39.917V33.8C24.9531 33.5238 24.7292 33.3 24.4531 33.3H23.5531C23.2769 33.3 23.0531 33.5238 23.0531 33.8V39.918C23.0531 40.3108 22.897 40.6875 22.6193 40.9652C22.3415 41.243 21.9648 41.399 21.5721 41.399C21.1793 41.399 20.8026 41.243 20.5248 40.9652C20.2471 40.6875 20.0911 40.3108 20.0911 39.918V26.106C20.0911 25.8727 19.9298 25.6705 19.7024 25.6185C19.475 25.5666 19.2419 25.6788 19.1406 25.889L17.6676 28.946L17.6676 28.946C17.4971 29.2999 17.1929 29.5716 16.8221 29.7013C16.4512 29.831 16.044 29.8081 15.6901 29.6375C15.3361 29.467 15.0644 29.1629 14.9347 28.792C14.805 28.4212 14.828 28.014 14.9985 27.66C14.9985 27.66 14.9985 27.66 14.9985 27.66L18.1981 21.0198C18.1982 21.0196 18.1983 21.0195 18.1984 21.0193C18.2068 21.0019 18.2097 20.9978 18.2171 20.9874C18.226 20.9748 18.2415 20.9531 18.2811 20.8873C18.2891 20.8741 18.2965 20.8605 18.3032 20.8466C18.4185 20.6081 18.5985 20.4068 18.8227 20.2658C19.0469 20.1248 19.3061 20.0497 19.5708 20.049C19.571 20.049 19.5711 20.049 19.5712 20.049L28.4619 20.049C28.4619 20.049 28.462 20.049 28.4621 20.049C28.7534 20.0491 29.0376 20.1395 29.2756 20.3078C29.5135 20.4761 29.6935 20.714 29.7907 20.9887C29.7967 21.0059 29.8037 21.0227 29.8116 21.0391L33.0026 27.6601ZM26.1668 17.3097C25.5254 17.7383 24.7714 17.967 24.0001 17.967C22.9657 17.967 21.9737 17.5561 21.2423 16.8247C20.5109 16.0933 20.1001 15.1013 20.1001 14.067C20.1001 13.2956 20.3288 12.5416 20.7573 11.9003C21.1859 11.2589 21.795 10.759 22.5076 10.4639C23.2202 10.1687 24.0044 10.0914 24.7609 10.2419C25.5174 10.3924 26.2123 10.7639 26.7578 11.3093C27.3032 11.8547 27.6746 12.5496 27.8251 13.3061C27.9756 14.0627 27.8984 14.8468 27.6032 15.5595C27.308 16.2721 26.8081 16.8812 26.1668 17.3097Z" stroke="#333333" stroke-linejoin="round"/>
</svg>
