<?xml version="1.0" encoding="UTF-8" standalone="no"?>
<!-- Created with Inkscape (http://www.inkscape.org/) -->
<svg id="svg8" xmlns:rdf="http://www.w3.org/1999/02/22-rdf-syntax-ns#" xmlns="http://www.w3.org/2000/svg" height="48" viewBox="0 0 12.7 12.7" width="48" version="1.1" xmlns:cc="http://creativecommons.org/ns#" xmlns:dc="http://purl.org/dc/elements/1.1/">
 <title id="title4753">UIO-icon</title>
 <metadata id="metadata5">
  <rdf:RDF>
   <cc:Work rdf:about="">
    <dc:format>image/svg+xml</dc:format>
    <dc:type rdf:resource="http://purl.org/dc/dcmitype/StillImage"/>
    <dc:title>UIO-icon</dc:title>
    <dc:creator>
     <cc:Agent>
      <dc:title>Joaquín Urbano</dc:title>
     </cc:Agent>
    </dc:creator>
    <dc:rights>
     <cc:Agent>
      <dc:title>GPL</dc:title>
     </cc:Agent>
    </dc:rights>
   </cc:Work>
  </rdf:RDF>
 </metadata>
 <path id="rect890" d="m0 0v48h48v-48h-48zm23.922 4.6738c0.013 0 0.023-0.0001 0.037 0 8.711 0.0095 10.211 3.9303 10.16 15.785-0.133 1.034 0.149 2.841-1.435 2.746-0.252 2.188-1.22 4.213-2.893 5.26-2.183 1.366-4.207 2.796-5.789 2.791-2.31-0.072-3.612-1.158-6.236-2.811-1.611-1.013-2.311-3.107-2.467-5.355-1.549-0.238-1.577-1.923-1.588-2.631-0.075-10.582 1.309-15.761 10.211-15.785zm-4.969 7.0432c-0.236 2.349-0.786 2.76-1.373 2.89-0.166 0.037 0.185-1.404 0.02-1.375-0.138 0.025-0.795 1.516-0.924 1.582-0.215 0.111-0.409 0.333-0.574 0.719v6.17c0 2.368 0.584 4.72 2.261 5.776 2.374 1.494 3.55 2.479 5.639 2.539 1.431 0.004 3.26-1.285 5.234-2.52 1.775-1.11 2.682-3.44 2.682-5.795-0.015-2.455-0.015-4.912-0.059-7.367-0.379-0.112-0.832-0.296-1.041-0.234-0.227 0.066 0.181 0.771-0.068 0.818-0.311 0.058-1.175-0.655-1.514-0.627-0.29 0.024-0.05 0.79-0.355 0.793-0.3 0.002-1.397-1.047-1.707-1.065-0.294-0.016 0.2 1.002-0.1 0.969-0.369-0.04-1.708-1.962-2.082-2.027-0.33-0.058 0.307 1.744-0.021 1.668-0.369-0.085-1.714-2.221-2.075-2.328-0.295-0.088 0.391 1.857 0.104 1.756-1.636-0.581-3.091-1.382-4.047-2.342zm1.277 5.4a0.99855 0.99855 0 0 1 0.999 0.998 0.99855 0.99855 0 0 1 -0.999 0.998 0.99855 0.99855 0 0 1 -0.998 -0.998 0.99855 0.99855 0 0 1 0.998 -0.998zm7.497 0a0.99855 0.99855 0 0 1 0.998 0.998 0.99855 0.99855 0 0 1 -0.998 0.998 0.99855 0.99855 0 0 1 -1 -0.998 0.99855 0.99855 0 0 1 1 -0.998zm-3.838 4.61a0.89992 0.18492 0 0 1 0.09 0 0.89992 0.18492 0 0 1 0.9 0.185 0.89992 0.18492 0 0 1 -0.9 0.186 0.89992 0.18492 0 0 1 -0.901 -0.186 0.89992 0.18492 0 0 1 0.811 -0.185zm0.064 3.199a3.4594 0.12688 0 0 1 0.246 0 3.4594 0.12688 0 0 1 3.459 0.127 3.4594 0.12688 0 0 1 -3.459 0.127 3.4594 0.12688 0 0 1 -3.461 -0.127 3.4594 0.12688 0 0 1 3.215 -0.127zm-19.955 9.09h40v10h-40v-10zm19.033 1.33c-0.478 0-0.907 0.103-1.285 0.308-0.378 0.202-0.67 0.482-0.879 0.84-0.205 0.358-0.306 0.754-0.306 1.188h1.416c0-0.359 0.091-0.647 0.273-0.866 0.186-0.221 0.439-0.332 0.758-0.332 0.296 0 0.524 0.091 0.683 0.274 0.16 0.179 0.239 0.426 0.239 0.742 0 0.231-0.076 0.475-0.229 0.732-0.15 0.258-0.383 0.56-0.699 0.905l-2.301 2.453v0.967h4.875v-1.139h-3.058l1.617-1.705c0.443-0.485 0.757-0.911 0.939-1.275 0.183-0.365 0.274-0.723 0.274-1.075 0-0.641-0.205-1.138-0.612-1.49-0.404-0.352-0.972-0.527-1.705-0.527zm-14.429 0.088l-2.9473 1.054v1.149l1.6855-0.524v5.444h1.4122v-7.123h-0.1504zm3.0864 0.009l-0.411 3.616 1.125 0.277 0.137-0.127c0.208-0.176 0.479-0.264 0.815-0.264 0.364 0 0.647 0.108 0.845 0.323 0.199 0.215 0.299 0.525 0.299 0.929 0 0.42-0.087 0.746-0.26 0.977-0.172 0.228-0.419 0.342-0.738 0.342-0.287 0-0.518-0.082-0.697-0.245-0.176-0.166-0.28-0.397-0.309-0.693h-1.396c0.013 0.404 0.124 0.764 0.336 1.08 0.215 0.316 0.507 0.561 0.875 0.737 0.368 0.172 0.767 0.259 1.197 0.259 0.492 0 0.918-0.1 1.279-0.299 0.362-0.201 0.638-0.482 0.83-0.843 0.196-0.365 0.293-0.777 0.293-1.237 0-0.755-0.192-1.343-0.576-1.763s-0.914-0.631-1.592-0.631c-0.378 0-0.735 0.09-1.07 0.269l0.176-1.529h2.828v-1.178h-3.986zm15.378 0l-0.41 3.616 1.123 0.277 0.137-0.127c0.208-0.176 0.481-0.264 0.816-0.264 0.365 0 0.647 0.108 0.846 0.323s0.297 0.525 0.297 0.929c0 0.42-0.085 0.746-0.258 0.977-0.172 0.228-0.419 0.342-0.738 0.342-0.287 0-0.52-0.082-0.699-0.245-0.176-0.166-0.278-0.397-0.307-0.693h-1.398c0.013 0.404 0.126 0.764 0.337 1.08 0.215 0.316 0.507 0.561 0.876 0.737 0.368 0.172 0.767 0.259 1.197 0.259 0.492 0 0.918-0.1 1.279-0.299 0.362-0.201 0.638-0.482 0.83-0.843 0.196-0.365 0.293-0.777 0.293-1.237 0-0.755-0.192-1.343-0.576-1.763s-0.914-0.631-1.592-0.631c-0.378 0-0.735 0.09-1.07 0.269l0.176-1.529h2.828v-1.178h-3.987zm4.651 0l2.336 4.534v2.58h1.49v-2.58l2.334-4.534h-1.602l-1.48 3.205-1.471-3.205h-1.607zm8.461 1.729c-0.629 0-1.139 0.159-1.53 0.474-0.387 0.313-0.58 0.703-0.58 1.172 0 0.805 0.628 1.34 1.885 1.604 0.378 0.078 0.651 0.166 0.82 0.267 0.173 0.098 0.26 0.234 0.26 0.407 0 0.166-0.071 0.302-0.211 0.406-0.137 0.101-0.339 0.15-0.609 0.15-0.29 0-0.521-0.067-0.693-0.201-0.173-0.133-0.267-0.325-0.28-0.576h-1.338c0 0.319 0.098 0.618 0.293 0.895 0.196 0.273 0.465 0.49 0.807 0.65 0.345 0.156 0.739 0.234 1.182 0.234 0.654 0 1.188-0.149 1.601-0.445 0.414-0.3 0.621-0.69 0.621-1.172 0-0.674-0.373-1.148-1.119-1.422-0.241-0.088-0.537-0.166-0.889-0.234-0.351-0.072-0.602-0.156-0.752-0.25-0.146-0.098-0.22-0.225-0.22-0.381 0-0.166 0.065-0.303 0.195-0.41 0.13-0.108 0.315-0.16 0.553-0.16 0.277 0 0.479 0.065 0.609 0.199 0.13 0.13 0.197 0.296 0.197 0.498h1.411c0-0.505-0.202-0.915-0.606-1.231-0.4-0.315-0.936-0.474-1.607-0.474zm-23.311 1.769v1.139h2.75v-1.139h-2.75z" fill-rule="evenodd" transform="scale(.26458)" fill="#333"/>
</svg>
