<svg width="48" height="48" viewBox="0 0 48 48" fill="none" xmlns="http://www.w3.org/2000/svg">
<path d="M14.5287 28.9141L14.5225 28.9273L14.5471 28.9285L14.5287 28.9141Z" fill="#333333"/>
<path d="M32.0278 30.4933C33.3318 30.4933 34.3889 29.42 34.3889 28.0961C34.3889 26.7721 33.3318 25.6988 32.0278 25.6988C30.7238 25.6988 29.6667 26.7721 29.6667 28.0961C29.6667 29.42 30.7238 30.4933 32.0278 30.4933Z" fill="#333333"/>
<path fill-rule="evenodd" clip-rule="evenodd" d="M0 0H48V48H0V0ZM29.9553 35.0298C35.5383 33.6867 39.0894 28.4204 37.8868 23.2672C37.1563 20.1368 34.8395 17.7682 31.8818 16.6921C31.8988 16.6373 31.917 16.5795 31.9366 16.5191C32.1032 16.0052 32.3621 15.305 32.7299 14.5592C33.4835 13.0311 34.6102 11.4823 36.1762 10.7878C36.1919 10.7808 36.2074 10.7735 36.2226 10.7658C36.397 10.7849 36.5728 10.7945 36.75 10.7945C38.726 10.7945 40.5407 9.59312 41.8447 7.53526C42.1403 7.06875 42.0018 6.45093 41.5353 6.15531C41.0688 5.8597 40.4509 5.99823 40.1553 6.46474C39.0982 8.13291 37.8435 8.79452 36.75 8.79452C35.6565 8.79452 34.4018 8.13291 33.3447 6.46474C33.1613 6.17537 32.8426 6 32.5 6C32.1574 6 31.8387 6.17537 31.6553 6.46474C30.6184 8.10113 29.2559 8.79454 28.0729 8.79454C26.9101 8.79453 25.692 8.12601 24.8919 6.54784C24.7293 6.22708 24.407 6.01833 24.0478 6.00114C23.6886 5.98395 23.3478 6.16097 23.1553 6.46474C22.0982 8.13291 20.8435 8.79452 19.75 8.79452C18.6565 8.79452 17.4018 8.13291 16.3447 6.46474C16.1522 6.16097 15.8114 5.98395 15.4522 6.00114C15.093 6.01833 14.7707 6.22708 14.6081 6.54784C13.8407 8.06161 12.423 8.79452 11.0729 8.79452C9.732 8.79452 8.48036 8.07973 7.93472 6.64461C7.73844 6.12838 7.16084 5.86901 6.64461 6.06528C6.12838 6.26156 5.86901 6.83916 6.06528 7.35539C6.9363 9.6463 8.99022 10.7945 11.0729 10.7945C12.7036 10.7945 14.3655 10.0956 15.5464 8.72108C16.7329 10.0469 18.1913 10.7945 19.75 10.7945C21.3021 10.7945 22.7548 10.0532 23.9385 8.73784C25.0265 10.0711 26.4972 10.7945 28.0729 10.7945C29.6824 10.7945 31.2522 10.0406 32.4938 8.66174C32.9172 9.14417 33.3759 9.5523 33.8621 9.87828C32.4851 10.9539 31.5401 12.4371 30.9203 13.6939C30.5002 14.5459 30.2075 15.3388 30.0195 15.9185C29.9884 16.0145 29.9601 16.1048 29.9344 16.1889C28.5475 15.968 27.0768 16.0132 25.6004 16.3684C24.825 16.5549 24.0887 16.8172 23.399 17.1442C23.3929 15.4645 22.0499 14.1047 20.394 14.1047C19.7445 14.1047 19.1431 14.3139 18.6516 14.6696C18.1208 13.8067 17.1769 13.2326 16.101 13.2326C14.5752 13.2326 13.315 14.3872 13.1217 15.8828C12.9733 15.8599 12.8214 15.8481 12.6667 15.8481C11.0071 15.8481 9.66165 17.2141 9.66165 18.8991C9.66165 19.426 9.79319 19.9217 10.0247 20.3542C8.8176 20.7502 7.94449 21.9006 7.94449 23.258C7.94449 24.3503 8.50978 25.3085 9.35952 25.8475C9.00913 26.3465 8.80301 26.9572 8.80301 27.6167C8.80301 29.2546 10.0741 30.591 11.6694 30.6646C11.4831 31.0616 11.3788 31.506 11.3788 31.9751C11.3788 33.3733 12.3051 34.5518 13.5686 34.9126C13.2133 35.3443 13 35.8973 13 36.5001C13 37.4012 13.4767 38.1909 14.1917 38.6309C13.5505 38.8837 13.096 39.5163 13.096 40.2566C13.096 41.2195 13.8648 42.0001 14.8132 42.0001C15.7615 42.0001 16.5303 41.2195 16.5303 40.2566C16.5303 39.7408 16.3097 39.2773 15.959 38.9581C17.1205 38.7425 18 37.724 18 36.5001C18 35.4567 17.3608 34.5626 16.4527 34.188C17.0293 33.6321 17.3889 32.8462 17.3889 31.9751C17.3889 30.8414 16.7799 29.8521 15.8759 29.3261C15.1057 27.2946 14.4851 21.2122 18.9312 21.0637C17.6121 23.1459 17.0902 25.6516 17.6688 28.131C18.8714 33.2842 24.3722 36.3729 29.9553 35.0298Z" fill="#333333"/>
</svg>
