<svg width="48" height="48" viewBox="0 0 48 48" fill="none" xmlns="http://www.w3.org/2000/svg">
<path fill-rule="evenodd" clip-rule="evenodd" d="M7.93499 6.64464C7.73871 6.12841 7.16111 5.86903 6.64488 6.06531C6.12865 6.26158 5.86928 6.83918 6.06555 7.35541C6.93657 9.64632 8.99049 10.7945 11.0732 10.7945C12.7039 10.7945 14.3657 10.0956 15.5467 8.7211C16.7332 10.047 18.1916 10.7945 19.7503 10.7945C21.3024 10.7945 22.755 10.0533 23.9388 8.73786C25.0268 10.0711 26.4975 10.7946 28.0732 10.7946C29.6826 10.7946 31.2524 10.0406 32.4941 8.66177C32.9174 9.1442 33.3762 9.55233 33.8623 9.87831C32.4854 10.9539 31.5404 12.4371 30.9206 13.6939C30.5004 14.546 30.2077 15.3388 30.0197 15.9186C29.9886 16.0145 29.9603 16.1048 29.9347 16.1889C28.5477 15.968 27.0771 16.0133 25.6006 16.3684C24.8252 16.555 24.089 16.8172 23.3993 17.1443C23.3932 15.4645 22.0501 14.1047 20.3943 14.1047C19.7447 14.1047 19.1434 14.3139 18.6519 14.6696C18.1211 13.8067 17.1772 13.2326 16.1013 13.2326C14.5755 13.2326 13.3152 14.3872 13.1219 15.8828C12.9736 15.86 12.8216 15.8481 12.667 15.8481C11.0073 15.8481 9.66192 17.2141 9.66192 18.8992C9.66192 19.426 9.79346 19.9217 10.025 20.3542C8.81787 20.7502 7.94476 21.9006 7.94476 23.2581C7.94476 24.3503 8.51005 25.3085 9.35979 25.8475C9.0094 26.3465 8.80328 26.9572 8.80328 27.6167C8.80328 29.2546 10.0744 30.591 11.6697 30.6646C11.4834 31.0617 11.3791 31.506 11.3791 31.9752C11.3791 33.3733 12.3054 34.5519 13.5689 34.9126C13.2136 35.3444 13.0003 35.8973 13.0003 36.5001C13.0003 37.4012 13.477 38.1909 14.192 38.6309C13.5508 38.8837 13.0963 39.5163 13.0963 40.2567C13.0963 41.2195 13.8651 42.0001 14.8134 42.0001C15.7618 42.0001 16.5306 41.2195 16.5306 40.2567C16.5306 39.7408 16.3099 39.2773 15.9592 38.9581C17.1207 38.7426 18.0003 37.7241 18.0003 36.5001C18.0003 35.4567 17.3611 34.5627 16.453 34.1881C17.0296 33.6321 17.3892 32.8463 17.3892 31.9752C17.3892 30.8414 16.7802 29.8522 15.8762 29.3262C15.1059 27.2946 14.4853 21.2122 18.9315 21.0637C18.7666 21.324 18.6142 21.5909 18.4748 21.8635C17.4991 23.7719 17.1628 25.9615 17.6691 28.131C18.8717 33.2842 24.3725 36.3729 29.9556 35.0298C35.5386 33.6868 39.0897 28.4205 37.8871 23.2673C37.1566 20.1368 34.8398 17.7682 31.882 16.6921C31.899 16.6373 31.9173 16.5796 31.9369 16.5191C32.1035 16.0053 32.3624 15.3051 32.7302 14.5592C33.4838 13.0311 34.6105 11.4824 36.1764 10.7878C36.1922 10.7808 36.2077 10.7735 36.2229 10.7658C36.3972 10.7849 36.5731 10.7945 36.7503 10.7945C38.7262 10.7945 40.5409 9.59315 41.845 7.53529C42.1406 7.06878 42.002 6.45096 41.5355 6.15534C41.069 5.85972 40.4512 5.99826 40.1556 6.46476C39.0985 8.13294 37.8438 8.79455 36.7503 8.79455C35.6568 8.79455 34.402 8.13294 33.345 6.46476C33.1616 6.17539 32.8428 6.00003 32.5003 6.00003C32.1577 6.00003 31.8389 6.1754 31.6556 6.46477C30.6186 8.10116 29.2562 8.79457 28.0732 8.79456C26.9104 8.79456 25.6922 8.12603 24.8922 6.54786C24.7296 6.2271 24.4073 6.01836 24.0481 6.00117C23.6889 5.98398 23.3481 6.161 23.1556 6.46476C22.0985 8.13294 20.8438 8.79455 19.7503 8.79455C18.6568 8.79455 17.402 8.13294 16.345 6.46476C16.1525 6.161 15.8117 5.98398 15.4525 6.00117C15.0933 6.01836 14.7709 6.2271 14.6083 6.54786C13.8409 8.06163 12.4232 8.79455 11.0732 8.79455C9.73227 8.79455 8.48063 8.07976 7.93499 6.64464ZM14.5473 28.9285L14.529 28.9141L14.5228 28.9273L14.5473 28.9285ZM34.3892 28.0961C34.3892 29.4201 33.3321 30.4933 32.0281 30.4933C30.7241 30.4933 29.667 29.4201 29.667 28.0961C29.667 26.7721 30.7241 25.6988 32.0281 25.6988C33.3321 25.6988 34.3892 26.7721 34.3892 28.0961Z" fill="#333333"/>
</svg>
