<svg width="48" height="48" viewBox="0 0 48 48" fill="none" xmlns="http://www.w3.org/2000/svg">
<path d="M12 4V8H10C7.78 8 6.01953 9.8 6.01953 12L6 40C6 40.2289 6.02718 40.4507 6.06641 40.668C6.0821 40.7607 6.10109 40.851 6.12305 40.9414C6.14635 41.0323 6.17564 41.1207 6.20508 41.209C6.28428 41.4572 6.38597 41.6932 6.50977 41.918C6.51047 41.9192 6.51102 41.9206 6.51172 41.9219C6.87974 42.5884 7.42763 43.1327 8.09766 43.498C8.31838 43.6184 8.54922 43.7175 8.79297 43.7949C8.88134 43.8244 8.96957 43.8536 9.06055 43.877C9.1489 43.8983 9.23755 43.9163 9.32812 43.9316C9.54674 43.9716 9.76881 44 10 44H38C38.2294 44 38.4503 43.9716 38.668 43.9316C38.7573 43.9164 38.8444 43.8981 38.9316 43.877C39.0275 43.8523 39.1199 43.8206 39.2129 43.7891C39.4504 43.7123 39.6765 43.6159 39.8926 43.498H39.8945C40.5705 43.1292 41.1238 42.5774 41.4941 41.9023C41.4953 41.9003 41.4969 41.8985 41.498 41.8965C41.6143 41.6836 41.7087 41.4603 41.7852 41.2266C41.8178 41.1311 41.8496 41.036 41.875 40.9375C41.8966 40.8489 41.9161 40.7607 41.9316 40.6699C41.9601 40.515 41.9698 40.3539 41.9805 40.1934L41.9961 40.1855V40.0391C41.9963 40.0257 42 40.0134 42 40V12C42 10.35 40.9871 8.92578 39.5527 8.31641C39.0746 8.11328 38.55 8 38 8H36V4H32V8H16V4H12ZM10 18H38V18.0039V40H10V18.0039V18ZM7.25586 18.0039H8.16016L6.51172 18.8516V18.3867L7.25586 18.0039ZM9.25195 18.0039H9.5V18.3418L6.51172 19.8789V19.4141L9.25195 18.0039ZM39.1934 18.0039H40.0957L38.5 18.8262V18.3613L39.1934 18.0039ZM41.1895 18.0039H41.4941V18.3125L38.5 19.8535V19.3887L41.1895 18.0039ZM41.4941 18.873V19.3398L38.5 20.8809V20.4141L41.4941 18.873ZM9.5 18.9043V19.3691L6.51172 20.9062V20.4414L9.5 18.9043ZM41.4941 19.9004V20.3652L38.5 21.9062V21.4414L41.4941 19.9004ZM9.5 19.9297V20.3965L6.51172 21.9336V21.4688L9.5 19.9297ZM41.4941 20.9277V21.3926L38.5 22.9336V22.4688L41.4941 20.9277ZM9.5 20.959V21.4238L6.51172 22.9609V22.4961L9.5 20.959ZM41.4941 21.9551V22.4199L38.5 23.9609V23.4961L41.4941 21.9551ZM9.5 21.9844V22.4512L6.51172 23.9883V23.5215L9.5 21.9844ZM14 22V26H18V22H14ZM22 22V26H26V22H22ZM30 22V26H34V22H30ZM41.4941 22.9824V23.4473L38.5 24.9883V24.5234L41.4941 22.9824ZM9.5 23.0117V23.4766L6.51172 25.0156V24.5508L9.5 23.0117ZM41.4941 24.0098V24.4746L38.5 26.0156V25.5508L41.4941 24.0098ZM9.5 24.0391V24.5039L6.51172 26.043V25.5781L9.5 24.0391ZM41.4941 25.0371V25.5L38.5 27.041V26.5781L41.4941 25.0371ZM9.5 25.0664V25.5312L6.51172 27.0703V26.6035L9.5 25.0664ZM41.4941 26.0645V26.5293L38.5 28.0703V27.6055L41.4941 26.0645ZM9.5 26.0938V26.5586L6.51172 28.0977V27.6328L9.5 26.0938ZM41.4941 27.0918V27.5547L38.5 29.0957V28.6328L41.4941 27.0918ZM9.5 27.1211V27.5859L6.51172 29.125V28.6582L9.5 27.1211ZM41.4941 28.1191V28.582L38.5 30.123V29.6602L41.4941 28.1191ZM9.5 28.1484V28.6133L6.51172 30.1504V29.6855L9.5 28.1484ZM41.4941 29.1465V29.6113L38.5 31.1523V30.6875L41.4941 29.1465ZM9.5 29.1758V29.6406L6.51172 31.1777V30.7129L9.5 29.1758ZM41.4941 30.1738V30.6367L38.5 32.1777V31.7148L41.4941 30.1738ZM9.5 30.2031V30.668L6.51172 32.2051V31.7402L9.5 30.2031ZM41.4941 31.1992V31.6641L38.5 33.2051V32.7402L41.4941 31.1992ZM9.5 31.2305V31.6953L6.51172 33.2324V32.7676L9.5 31.2305ZM41.4941 32.2266V32.6914L38.5 34.2324V33.7676L41.4941 32.2266ZM9.5 32.2559V32.7227L6.51172 34.2598V33.7949L9.5 32.2559ZM41.4941 33.2539V33.7188L38.5 35.2598V34.7949L41.4941 33.2539ZM9.5 33.2852V33.748L6.51172 35.2871V34.8223L9.5 33.2852ZM41.4941 34.2812V34.7461L38.5 36.2871V35.8223L41.4941 34.2812ZM9.5 34.3125V34.7773L6.51172 36.3145V35.8496L9.5 34.3125ZM41.4941 35.3086V35.7734L38.5 37.3145V36.8496L41.4941 35.3086ZM9.5 35.3379V35.8047L6.51172 37.3418V36.877L9.5 35.3379ZM41.4941 36.3359V36.8008L38.5 38.3418V37.875L41.4941 36.3359ZM9.5 36.3672V36.8301L6.51172 38.3691V37.9043L9.5 36.3672ZM41.4941 37.3633V37.8281L38.5 39.3691V38.9043L41.4941 37.3633ZM9.5 37.3926V37.8594L6.51172 39.3965V38.9297L9.5 37.3926ZM41.4941 38.3906V38.8555L38.5 40.3965V40V39.9316L41.4941 38.3906ZM9.5 38.4199V38.8848L6.56055 40.3965C6.58398 40.5714 6.62038 40.7404 6.66797 40.9062L9.5 39.4473V39.9121L6.79102 41.3066C6.8559 41.4615 6.94224 41.6033 7.02734 41.7461L9.5 40.4746V40.5H10.3535L7.26172 42.0898C7.36621 42.226 7.47116 42.3608 7.59375 42.4805C7.37172 42.264 7.18716 42.0141 7.02734 41.7461C6.9421 41.6031 6.85599 41.4617 6.79102 41.3066C6.6718 41.0221 6.60301 40.7133 6.56055 40.3965C6.54099 40.2506 6.51719 40.1061 6.51562 39.9551L9.5 38.4199ZM41.4941 39.416V39.8809L34.4668 43.498H33.5645L41.4941 39.416ZM41.4395 40.4727C41.411 40.6558 41.3636 40.8312 41.3086 41.0039L36.4629 43.498H35.5605L41.4395 40.4727ZM11.4473 40.5H12.3496L7.94141 42.7676C8.09646 42.8846 8.26214 42.9853 8.43555 43.0762L13.4414 40.5H14.3457L8.92969 43.2891C9.173 43.3726 9.42722 43.4274 9.69141 43.457L15.4395 40.5H16.3398L10.5137 43.498H10.0918C9.95442 43.498 9.82468 43.472 9.69141 43.457C9.42732 43.4275 9.17293 43.3725 8.92969 43.2891C8.75792 43.2301 8.59426 43.1593 8.43555 43.0762C8.26182 42.9852 8.09672 42.8848 7.94141 42.7676C7.82201 42.6774 7.7027 42.5866 7.5957 42.4824L11.4473 40.5ZM17.4355 40.5H18.3359L12.5117 43.498H11.6094L17.4355 40.5ZM19.4316 40.5H20.334L14.5078 43.498H13.6055L19.4316 40.5ZM21.4277 40.5H22.3281L16.5039 43.498H15.6016L21.4277 40.5ZM23.4219 40.5H24.3262L18.5 43.498H17.5957L23.4219 40.5ZM25.418 40.5H26.3203L20.4941 43.498H19.5918L25.418 40.5ZM27.4141 40.5H28.3164L22.4922 43.498H21.5879L27.4141 40.5ZM29.4082 40.5H30.3125L24.4863 43.498H23.584L29.4082 40.5ZM31.4062 40.5H32.3086L26.4824 43.498H25.5801L31.4062 40.5ZM33.4004 40.5H34.3066L28.4805 43.498H27.5742L33.4004 40.5ZM35.3984 40.5H36.3008L30.4746 43.498H29.5723L35.3984 40.5ZM37.3945 40.5H38.2969L32.4707 43.498H31.5684L37.3945 40.5ZM41.3066 41.0137C41.2266 41.2628 41.1238 41.499 40.9941 41.7207C41.1237 41.4991 41.2267 41.2627 41.3066 41.0137ZM40.9863 41.7324C40.8148 42.023 40.6091 42.2876 40.3652 42.5176L38.5918 43.4297C38.6689 43.415 38.7413 43.3886 38.8164 43.3691C38.7411 43.3887 38.669 43.415 38.5918 43.4297C38.3719 43.4716 38.1466 43.498 37.9141 43.498H37.5547L40.9863 41.7324ZM39.9805 42.8359C39.9015 42.8919 39.8179 42.9388 39.7344 42.9883C39.8173 42.939 39.902 42.8916 39.9805 42.8359ZM39.4414 43.1465C39.3598 43.185 39.2782 43.2215 39.1934 43.2539C39.2779 43.2215 39.3602 43.185 39.4414 43.1465Z" fill="#333333"/>
</svg>
