<svg width="48" height="48" viewBox="0 0 48 48" fill="none" xmlns="http://www.w3.org/2000/svg">
<path fill-rule="evenodd" clip-rule="evenodd" d="M48 0H0V48H48V0ZM16 6C15.4477 6 15 6.44772 15 7V10H11C8.79086 10 7 11.7909 7 14V38C7 40.2091 8.79086 42 11 42H37C39.2091 42 41 40.2091 41 38V14C41 11.7909 39.2091 10 37 10H35V13C35 13.5523 34.5523 14 34 14C33.4477 14 33 13.5523 33 13V7C33 6.44772 32.5523 6 32 6C31.4477 6 31 6.44772 31 7V10H19V13C19 13.5523 18.5523 14 18 14C17.4477 14 17 13.5523 17 13V7C17 6.44772 16.5523 6 16 6ZM9 38V21H39V38C39 39.1046 38.1046 40 37 40H11C9.89543 40 9 39.1046 9 38ZM15 27V25H17V27H15ZM13 25C13 23.8954 13.8954 23 15 23H17C18.1046 23 19 23.8954 19 25V27C19 28.1046 18.1046 29 17 29H15C13.8954 29 13 28.1046 13 27V25ZM25 25H23V27H25V25ZM23 23C21.8954 23 21 23.8954 21 25V27C21 28.1046 21.8954 29 23 29H25C26.1046 29 27 28.1046 27 27V25C27 23.8954 26.1046 23 25 23H23ZM31 27V25H33V27H31ZM29 25C29 23.8954 29.8954 23 31 23H33C34.1046 23 35 23.8954 35 25V27C35 28.1046 34.1046 29 33 29H31C29.8954 29 29 28.1046 29 27V25ZM15 33V35H17V33H15ZM15 31C13.8954 31 13 31.8954 13 33V35C13 36.1046 13.8954 37 15 37H17C18.1046 37 19 36.1046 19 35V33C19 31.8954 18.1046 31 17 31H15ZM23 33H25V35H23V33ZM21 33C21 31.8954 21.8954 31 23 31H25C26.1046 31 27 31.8954 27 33V35C27 36.1046 26.1046 37 25 37H23C21.8954 37 21 36.1046 21 35V33ZM31 33V35H33V33H31ZM31 31C29.8954 31 29 31.8954 29 33V35C29 36.1046 29.8954 37 31 37H33C34.1046 37 35 36.1046 35 35V33C35 31.8954 34.1046 31 33 31H31Z" fill="#333333"/>
</svg>
