<?xml version="1.0" encoding="UTF-8" standalone="no"?>
<!-- Created with Inkscape (http://www.inkscape.org/) -->
<svg id="svg8" xmlns:rdf="http://www.w3.org/1999/02/22-rdf-syntax-ns#" xmlns="http://www.w3.org/2000/svg" xmlns:osb="http://www.openswatchbook.org/uri/2009/osb" height="48" width="48" version="1.1" xmlns:cc="http://creativecommons.org/ns#" viewBox="0 0 12.7 12.7" xmlns:dc="http://purl.org/dc/elements/1.1/">
 <title id="title4753">UIO-icon</title>
 <metadata id="metadata5">
  <rdf:RDF>
   <cc:Work rdf:about="">
    <dc:format>image/svg+xml</dc:format>
    <dc:type rdf:resource="http://purl.org/dc/dcmitype/StillImage"/>
    <dc:title>UIO-icon</dc:title>
    <dc:creator>
     <cc:Agent>
      <dc:title>Joaquín Urbano</dc:title>
     </cc:Agent>
    </dc:creator>
    <dc:rights>
     <cc:Agent>
      <dc:title>GPL</dc:title>
     </cc:Agent>
    </dc:rights>
   </cc:Work>
  </rdf:RDF>
 </metadata>
 <g id="layer1" fill="#333" transform="translate(0,-284.3)">
  <path id="rect4798" d="m24.029 4.9727c-1.4 0.0015-2.552 1.1015-2.619 2.5h-2.098c-0.589 0-1.062 0.4752-1.062 1.0644v0.2383h-6.389c-1.029 0-1.859 0.8278-1.859 1.8576v30.535c0 1.03 0.83 1.859 1.859 1.859h24.278c1.029 0 1.857-0.829 1.857-1.859v-25.232c-0.006 0.169-0.047 0.34-0.123 0.503l-7.682 16.514c-0.155 0.334-0.432 0.571-0.753 0.682-0.007 0.004-0.008 0.012-0.014 0.019l-3.36 3.627c-0.014 0.015-0.035 0.022-0.052 0.037-0.002 0.001-0.003 0.003-0.004 0.004-0.002 0.002-0.006 0.001-0.008 0.002-0.047 0.038-0.096 0.065-0.15 0.08-0.001 0.001-0.003 0.002-0.004 0.002-0.002 0.001-0.004 0.002-0.006 0.002-0.056 0.014-0.112 0.023-0.168 0.016-0.004-0.002-0.007 0-0.012 0-0.007 0-0.015-0.007-0.021-0.008-0.046-0.007-0.089-0.018-0.131-0.041-0.025-0.011-0.045-0.03-0.067-0.045-0.014-0.011-0.032-0.016-0.045-0.027-0.007-0.008-0.01-0.018-0.017-0.026-0.032-0.033-0.056-0.069-0.078-0.109-0.004-0.011-0.012-0.02-0.016-0.031-0.022-0.053-0.032-0.105-0.035-0.164-0.002-0.026-0.008-0.052-0.006-0.078l0.568-4.901c0.002-0.019 0.014-0.034 0.018-0.053-0.118-0.315-0.115-0.675 0.039-1.005l7.68-16.516c0.228-0.492 0.722-0.773 1.23-0.754 0.17 0.006 0.34 0.045 0.504 0.121l1.957 0.92c0.492 0.229 0.775 0.721 0.756 1.229v-5.303c0-1.0298-0.828-1.8576-1.857-1.8576h-6.391v-0.2383c0-0.5892-0.473-1.0644-1.062-1.0644h-2.038c-0.066-1.3985-1.219-2.4985-2.619-2.5zm-0.043 1.4511c0.648 0.0007 1.173 0.5262 1.172 1.1739 0.001 0.6477-0.524 1.1731-1.172 1.1738-0.648 0.0004-1.174-0.5254-1.174-1.1738 0-0.6485 0.526-1.1743 1.174-1.1739zm-4.33 1.7657h1.803c0.196 0.8351 0.782 1.4911 1.535 1.8105h-0.015c0.032 0.013 0.064 0.025 0.097 0.037 0.035 0.014 0.07 0.027 0.106 0.039 0.112 0.038 0.227 0.068 0.343 0.09 0.031 0.006 0.063 0.009 0.094 0.014 0.126 0.021 0.253 0.032 0.381 0.035h0.012c0.131-0.002 0.263-0.014 0.392-0.035 0.031-0.005 0.062-0.008 0.092-0.014 0.111-0.022 0.221-0.05 0.328-0.086 0.047-0.015 0.092-0.033 0.137-0.051 0.027-0.009 0.053-0.019 0.08-0.029h-0.012c0.753-0.3194 1.34-0.9754 1.535-1.8105h1.747c0.354 0 0.64 0.2857 0.64 0.6406v1.1699 1.051h-9.935v-1.051-1.1699c0-0.3549 0.285-0.6406 0.64-0.6406zm2.598 5.1175c0.035 0 0.07 0.01 0.105 0.017 0.021 0.004 0.043 0.004 0.063 0.012 0.005 0.002 0.009 0 0.014 0.002 0.036 0.013 0.064 0.036 0.095 0.058 0.014 0.012 0.031 0.016 0.043 0.028 0.038 0.033 0.067 0.073 0.092 0.115 0.005 0.008 0.013 0.014 0.018 0.022 0.026 0.052 0.041 0.112 0.046 0.171l0.002 0.002c0.001 0.008 0.002 0.02 0.002 0.028l0.422 5.025 1.338-3.877c0.084-0.243 0.347-0.371 0.59-0.287 0.019 0.008 0.033 0.022 0.051 0.029 0.087 0.035 0.168 0.092 0.222 0.178l1.508 2.406 0.799-1.013c0.061-0.077 0.142-0.122 0.229-0.149 0.004-0.001 0.011-0.002 0.015-0.004 0.033-0.007 0.062-0.016 0.096-0.017 0.025-0.004 0.048-0.016 0.074-0.016h3.49c0.257 0 0.465 0.206 0.465 0.463s-0.208 0.465-0.465 0.465h-3.308l-1.074 1.363c-0.146 0.184-0.397 0.219-0.594 0.106-0.016-0.008-0.033-0.013-0.047-0.024-0.004-0.004-0.008-0.005-0.012-0.008-0.024-0.019-0.039-0.045-0.058-0.068-0.017-0.021-0.038-0.032-0.051-0.055l-1.362-2.174-1.738 5.038c-0.063 0.182-0.226 0.301-0.406 0.312-0.001 0-0.002 0.002-0.004 0.002-0.256 0.021-0.48-0.168-0.502-0.424l-0.432-5.158-0.99 2.652c-0.002 0.008-0.007 0.012-0.01 0.02-0.036 0.139-0.126 0.262-0.271 0.318-0.24 0.094-0.508-0.024-0.602-0.263l-1.013-2.602-0.93 0.922c-0.099 0.099-0.23 0.136-0.359 0.129-0.023 0.004-0.046 0.015-0.071 0.015h-3.49c-0.257 0-0.463-0.207-0.463-0.464s0.206-0.465 0.463-0.465h3.399l1.281-1.272c0.047-0.047 0.101-0.081 0.16-0.103 0.007-0.004 0.012-0.009 0.02-0.012 0.239-0.093 0.506 0.024 0.599 0.264l0.824 2.111 1.301-3.484c0.002-0.008 0.007-0.016 0.01-0.024l0.002-0.006c0.003-0.011 0.011-0.019 0.015-0.027 0.02-0.043 0.043-0.085 0.075-0.119 0.021-0.023 0.048-0.042 0.074-0.061 0.021-0.014 0.04-0.033 0.064-0.045 0.036-0.019 0.074-0.025 0.114-0.033 0.018-0.004 0.032-0.014 0.05-0.015 0.004-0.001 0.007 0.002 0.01 0.001 0.004 0 0.006-0.003 0.01-0.003l0.002-0.002zm12.842 1.16c-0.471-0.017-0.926 0.244-1.137 0.699l-0.605 1.303 3.08 1.431 0.605-1.302c0.282-0.607 0.02-1.322-0.586-1.604l-0.891-0.414c-0.151-0.071-0.31-0.106-0.466-0.113zm-1.998 2.549l-0.307 0.662 3.078 1.433 0.309-0.664-3.08-1.431zm-0.561 1.209l-2.088 4.486-3.594 7.728-0.298 0.643c-0.117 0.25-0.01 0.544 0.24 0.66l0.644 0.299 0.891 0.414 0.645 0.299c0.249 0.116 0.543 0.01 0.66-0.24l0.299-0.643 3.593-7.726 2.086-4.489-3.078-1.431zm-18.598 5.775h14.346l-0.67 1.375h-13.676v-1.375zm0 4h12.401l-0.67 1.375h-11.731v-1.375zm0 4h10.454l-0.668 1.375h-9.786v-1.375zm12.551 0.387l-0.531 3.99 2.654-2.986-2.123-1.004zm-12.551 3.613h8.508l-0.668 1.375h-7.84v-1.375z" fill-rule="evenodd" fill-opacity=".99505" transform="matrix(.26458 0 0 .26458 0 284.3)"/>
 </g>
</svg>
