<svg width="48" height="48" viewBox="0 0 48 48" fill="none" xmlns="http://www.w3.org/2000/svg">
<path d="M24.03 4.96997C22.63 4.96997 21.48 6.06997 21.41 7.46997H19.31C18.72 7.46997 18.25 7.94997 18.25 8.53997V8.77997H11.86C10.83 8.77997 10 9.59997 10 10.63V41.17C10 42.2 10.83 43.03 11.86 43.03H36.14C37.17 43.03 38 42.2 38 41.17V10.63C38 9.59997 37.17 8.77997 36.14 8.77997H29.74V8.53997C29.74 7.93997 29.27 7.46997 28.69 7.46997H26.65C26.6191 6.79611 26.3295 6.16013 25.8415 5.69445C25.3534 5.22877 24.7046 4.96926 24.03 4.96997ZM24.03 5.47997C24.5936 5.47997 25.1341 5.70386 25.5326 6.10237C25.9311 6.50089 26.155 7.04139 26.155 7.60497C26.155 8.16856 25.9311 8.70906 25.5326 9.10757C25.1341 9.50609 24.5936 9.72997 24.03 9.72997C23.4664 9.72997 22.9259 9.50609 22.5274 9.10757C22.1289 8.70906 21.905 8.16856 21.905 7.60497C21.905 7.04139 22.1289 6.50089 22.5274 6.10237C22.9259 5.70386 23.4664 5.47997 24.03 5.47997ZM19.31 7.97997H21.41C21.4891 8.61909 21.7991 9.20725 22.2817 9.63374C22.7642 10.0602 23.386 10.2956 24.03 10.2956C24.674 10.2956 25.2958 10.0602 25.7783 9.63374C26.2609 9.20725 26.5709 8.61909 26.65 7.97997H28.69C28.99 7.97997 29.23 8.21997 29.23 8.51997V11.3H18.77V8.51997C18.77 8.21997 19.01 7.97997 19.31 7.97997ZM12.51 9.27997H18.25V11.82H29.75V9.28997H35.67C37.31 9.28997 37.47 10.24 37.47 11.16V40.97C37.47 41.89 36.96 42.51 35.69 42.51H12.2C11.28 42.51 10.53 41.91 10.53 40.99V10.85C10.53 9.71997 11.08 9.28997 12.53 9.28997L12.51 9.27997ZM22.95 13.19C22.85 13.19 22.74 13.29 22.69 13.41L20.94 18.07L19.85 15.3C19.75 15.07 19.57 15.06 19.3 15.31L18.43 16.16H14.5C14 16.18 13.97 16.68 14.5 16.67H18.64L19.51 15.83L20.74 18.97C20.84 19.12 20.91 19.42 21.22 18.78L22.72 14.8L23.01 21.71C23.02 22.11 23.39 22.06 23.53 21.69L25.48 15.97L27.15 19.21C27.25 19.31 27.25 19.53 27.61 18.97L28.58 17.31H32.43C32.8 17.31 32.83 16.8 32.43 16.79H28.5C28.28 16.79 28.22 16.91 28.19 16.97L27.33 18.43L25.71 15.29C25.52 14.9 25.33 14.85 25.23 15.13L23.46 20.3L23.18 13.6H23.17V13.59C23.15 13.29 23.05 13.19 22.95 13.19ZM33.78 16.84C33.33 16.82 32.89 17.07 32.69 17.5L25.92 32.08C25.78 32.37 25.78 32.68 25.88 32.96L25.87 33.01L25.37 37.33V37.4L25.4 37.55L25.41 37.57L25.48 37.67L25.5 37.69L25.54 37.72L25.6 37.76C25.63 37.78 25.67 37.79 25.71 37.79H25.74C25.7928 37.8002 25.8472 37.8002 25.9 37.79C25.95 37.77 25.99 37.75 26.03 37.71H26.04L26.09 37.67L29.05 34.47L29.06 34.46C29.35 34.36 29.59 34.15 29.73 33.86L36.51 19.28C36.78 18.71 36.53 18.02 35.95 17.76L34.22 16.94C34.08 16.88 33.92 16.84 33.78 16.84ZM33.72 17.26C33.8 17.26 33.89 17.28 33.98 17.32L34.23 17.44L35.8 18.18C36.19 18.38 36.22 18.81 36.1 19.08L35.34 20.71L32.34 19.31L33.12 17.66C33.1694 17.5415 33.2527 17.4403 33.3594 17.3691C33.4662 17.298 33.5917 17.26 33.72 17.26ZM32.15 19.72L35.15 21.12L34.85 21.78L31.85 20.39L32.15 19.72ZM31.66 20.79L31.8 20.86L34.66 22.19L32.42 26.99L29.49 33.31L29.37 33.56C29.27 33.78 28.75 33.93 28.52 33.83L26.65 32.94C26.22 32.74 26.18 32.67 26.34 32.24L26.46 31.99L31.66 20.79ZM13.94 24.86V25.37H27.64L27.87 24.87H13.94V24.86ZM13.94 28.86V29.37H25.77L26.01 28.87H13.94V28.86ZM13.94 32.86V33.37H23.9L24.14 32.87H13.94V32.86ZM26.3 33.27L28.58 34.37L25.83 37.27L26.3 33.27ZM13.94 36.87V37.37H22.04L22.28 36.87H13.94Z" fill="#333333"/>
</svg>
