<svg width="48" height="48" viewBox="0 0 48 48" fill="none" xmlns="http://www.w3.org/2000/svg">
<path d="M35.534 6H37.3945C40.5205 13.8479 42.1074 20.1062 42.0995 25.8515C42.0918 31.4661 40.5619 36.5114 37.5952 42.0001H35.6134C38.8055 36.3419 40.3776 31.3648 40.3852 25.8489C40.3928 20.288 38.8111 14.0907 35.534 6Z" fill="#333333"/>
<path d="M10.8046 6H12.6652C9.38807 14.0907 7.80629 20.288 7.81393 25.8489C7.8215 31.3648 9.39365 36.3419 12.5857 42.0001H10.604C7.63718 36.5114 6.10735 31.4661 6.09964 25.8515C6.09175 20.1062 7.6786 13.8479 10.8046 6Z" fill="#333333"/>
<path d="M23.2425 31.5463V42H24.9568V31.5461L31.9788 24.1731L30.7666 22.9003L24.0996 29.9006L17.4325 22.9003L16.2204 24.1731L23.2425 31.5463Z" fill="#333333"/>
<path fill-rule="evenodd" clip-rule="evenodd" d="M25.2528 16.3001L26.834 14.4553C27.8853 13.2288 27.8383 11.353 26.7271 10.1862C26.3697 9.81093 25.8849 9.6001 25.3795 9.6001H22.8197C22.3142 9.6001 21.8295 9.81093 21.472 10.1862C20.3609 11.353 20.3139 13.2288 21.3651 14.4553L22.9464 16.3001L19.1767 20.698L20.451 21.9022L24.0996 17.6455L27.7482 21.9022L29.0224 20.698L25.2528 16.3001ZM22.8197 11.4001C22.7689 11.4001 22.7201 11.4213 22.6842 11.459C22.2178 11.9488 22.198 12.7363 22.6393 13.2511L24.0996 14.9547L25.5598 13.2511C26.0011 12.7363 25.9814 11.9488 25.5149 11.459C25.479 11.4213 25.4303 11.4001 25.3795 11.4001H22.8197Z" fill="#333333"/>
</svg>
