<?xml version="1.0" encoding="UTF-8" standalone="no"?>
<!-- Created with Inkscape (http://www.inkscape.org/) -->
<svg id="svg8" xmlns:rdf="http://www.w3.org/1999/02/22-rdf-syntax-ns#" xmlns="http://www.w3.org/2000/svg" xmlns:osb="http://www.openswatchbook.org/uri/2009/osb" height="48" width="48" version="1.1" xmlns:cc="http://creativecommons.org/ns#" viewBox="0 0 12.7 12.7" xmlns:dc="http://purl.org/dc/elements/1.1/">
 <title id="title4753">UIO-icon</title>
 <metadata id="metadata5">
  <rdf:RDF>
   <cc:Work rdf:about="">
    <dc:format>image/svg+xml</dc:format>
    <dc:type rdf:resource="http://purl.org/dc/dcmitype/StillImage"/>
    <dc:title>UIO-icon</dc:title>
    <dc:creator>
     <cc:Agent>
      <dc:title>Joaquín Urbano</dc:title>
     </cc:Agent>
    </dc:creator>
    <dc:rights>
     <cc:Agent>
      <dc:title>GPL</dc:title>
     </cc:Agent>
    </dc:rights>
   </cc:Work>
  </rdf:RDF>
 </metadata>
 <g id="layer1" transform="translate(0,-284.3)">
  <path id="path4965" d="m24.002 4.0273c-2.4251 0-4.3926 1.9655-4.3926 4.3906s1.9675 4.3906 4.3926 4.3906 4.3906-1.9655 4.3906-4.3906-1.9655-4.3906-4.3906-4.3906zm0 0.69336c2.042 0.00018973 3.6971 1.6552 3.6973 3.6973-0.00021196 2.042-1.6552 3.6971-3.6973 3.6973-2.043 0.001138-3.701-1.6543-3.7012-3.6973 0.00021338-2.043 1.6582-3.6984 3.7012-3.6973zm-0.4375 9.1699-3.998 0.001953v0.009766c-0.7185 0.014211-1.4042 0.40904-1.7422 1.1016l-4.855 9.942c-0.48037 0.98428-0.072221 2.1642 0.91211 2.6445 0.98433 0.48038 2.1622 0.076269 2.6426-0.9082l3.043-6.2363c0.074269 4.2481-0.21549 7.6589-2.7812 12.627h2.7812v8.9219c0 1.0953 0.87932 1.9766 1.9746 1.9766s1.9766-0.88128 1.9766-1.9766v-8.9219h0.95312v8.9199c0 1.0953 0.88323 1.9785 1.9785 1.9785s1.9766-0.88323 1.9766-1.9785v-8.9199h2.7871c-2.296-4.791-2.787-7.921-2.787-12.642l3.0508 6.252c0.48036 0.98433 1.6602 1.3885 2.6445 0.9082 0.98432-0.48038 1.3886-1.6602 0.9082-2.6445l-4.8535-9.9434c-0.33936-0.69542-1.0282-1.0941-1.75-1.1035v-0.009766h-3.998zm4.791 0.72266v0.013672c0.47141 0.012755 0.92053 0.26692 1.1445 0.7207l1.0391 2.1035c0.012329 0.02324 0.032063 0.032943 0.042969 0.056641l3.8379 7.7754c0.32165 0.6516 0.055925 1.4363-0.5957 1.7578-0.65163 0.32149-1.4342 0.056186-1.7559-0.5957l-1.043-2.1074c-0.011854-0.018493-0.03011-0.032943-0.041016-0.056641l-3.2246-6.5332c0.27444 4.9937-0.76958 8.4245 2.3379 14.648l-2.3379-0.019531v9.5371c0 0.36331-0.14572 0.6926-0.38281 0.92969-0.23696 0.23614-0.56539 0.3802-0.92773 0.38086-0.36334 0-0.6926-0.14377-0.92969-0.38086-0.2369-0.2369-0.38477-0.56647-0.38477-0.92969v-9.5371h-2.2812v9.5371c0 0.72667-0.58581 1.3105-1.3125 1.3105s-1.3105-0.58388-1.3105-1.3105v-9.5371h-2.3574c3.0182-6.1789 2.0284-9.6403 2.3574-14.674l-3.248 6.5762c-0.010764 0.02324-0.029209 0.037667-0.041016 0.056641l-1.041 2.1074c-0.32165 0.65184-1.1062 0.91719-1.7578 0.5957-0.651-0.322-0.917-1.106-0.595-1.758l3.8379-7.7754c0.011048-0.02324 0.032736-0.03099 0.044922-0.054688l1.039-2.105c0.24124-0.48882 0.7416-0.75893 1.252-0.73047zm-4.347 10.048c-0.41183-0.003616-0.83392 0.037455-1.2676 0.13281 0.16413 0.66717 0.3644 0.96869 0.62109 1.4102 0.32475-0.098022 0.85885-0.16012 1.1836-0.013672 0.3518-0.50943 0.52568-0.96305 0.67188-1.3965-0.39452-0.081834-0.79715-0.12941-1.209-0.13281zm-1.4121 0.27148-0.25977 0.75c-0.20252 0.58656-0.26239 0.82627-0.2793 1.0977-0.024991 0.40116-0.038954 0.36862 0.42773 1.0566 0.18765 0.27667 0.35219 0.50343 0.36523 0.50391 0.028766 0.00089121 0.89062-1.1841 0.89062-1.2246 0-0.016025-0.17115-0.28583-0.38086-0.60156-0.43346-0.65262-0.67426-1.1154-0.72656-1.3926zm2.7773 0-0.039062 0.20312c-0.049214 0.2487-0.31667 0.76182-0.70312 1.3535-1.4986 2.1074-2.6852 3.7053-4.2852 5.8828 0.32434 0.43928 0.67016 0.91921 1.0312 1.3008 1.581-2.549 3.196-3.999 4.529-6.548 0.058358-0.29904-0.008859-0.64792-0.27148-1.4199zm-0.24609 4.0508-0.42969 0.61133c-0.23738 0.33648-0.44064 0.64043-0.45117 0.67578-0.010574 0.03549 0.17956 0.34358 0.42188 0.68555 0.6845 0.95299 1.2503 1.8049 1.9492 2.7441 0.36772-0.45739 0.62949-0.81946 1.0059-1.3242-0.83157-1.1314-1.6644-2.2613-2.4961-3.3926z" fill-rule="evenodd" transform="matrix(.26458 0 0 .26458 0 284.3)" fill="#333"/>
 </g>
</svg>
