<?xml version="1.0" encoding="UTF-8" standalone="no"?>
<!-- Created with Inkscape (http://www.inkscape.org/) -->
<svg id="svg8" xmlns:rdf="http://www.w3.org/1999/02/22-rdf-syntax-ns#" xmlns="http://www.w3.org/2000/svg" xmlns:osb="http://www.openswatchbook.org/uri/2009/osb" height="48" width="48" version="1.1" xmlns:cc="http://creativecommons.org/ns#" viewBox="0 0 12.7 12.7" xmlns:dc="http://purl.org/dc/elements/1.1/">
 <title id="title4753">UIO-icon</title>
 <metadata id="metadata5">
  <rdf:RDF>
   <cc:Work rdf:about="">
    <dc:format>image/svg+xml</dc:format>
    <dc:type rdf:resource="http://purl.org/dc/dcmitype/StillImage"/>
    <dc:title>UIO-icon</dc:title>
    <dc:creator>
     <cc:Agent>
      <dc:title>Joaquín Urbano</dc:title>
     </cc:Agent>
    </dc:creator>
    <dc:rights>
     <cc:Agent>
      <dc:title>GPL</dc:title>
     </cc:Agent>
    </dc:rights>
   </cc:Work>
  </rdf:RDF>
 </metadata>
 <g id="layer1" transform="translate(0,-284.3)">
  <path id="rect2012" d="m-1.8241 189.8v12.7h12.7v-12.7zm5.7557 1.0583h0.00051676c0.14886 0.00313 0.31207 0.026035 0.48783 0.067179 0.62907 0.16404 1.0135 0.91924 1.2862 1.6702 0.41207-0.23106 0.87679-0.35243 1.3493-0.35295 1.5255 0 2.7621 1.2353 2.7621 2.7595 0 1.5241-1.2366 2.7601-2.7621 2.76-1.5255 0.0002466-2.7622-1.2358-2.7621-2.76 0.00019728-0.90877 0.44822-1.7591 1.1979-2.2738-0.22702-0.7014-1.2511-1.7371-1.7487-0.80667-0.65544 0.95089-0.0087915 3.837-0.97255 3.7698-0.87683-0.0009369-1.2197-0.96305-0.77773-1.5911-0.49007 0.79481 1.1736 2.1686 0.93276 0.37517-0.41052-2.6745-0.036049-3.6386 1.0067-3.6173zm3.1238 1.5115c-1.0247 0.00153-1.9555 0.59662-2.3864 1.5255 0.002285 0.0009099 0.0045801 0.00138 0.0072347 0.00258 0.0022014 0.001 0.0034914 0.00211 0.0056844 0.0031 1.1 0.49788 1.1542 0.35082 2.2867 0.12661 0.22263-0.97272 0.68475-0.6941 0.91002 0.047542 0.53924 0.33121 0.99275 0.32601 1.7296 0.28164-0.29567-1.168-1.347-1.9862-2.5528-1.987zm-0.92759 2.3192c0.14298-0.0001479 0.25877 0.1154 0.2589 0.25838 0.00014796 0.14317-0.11573 0.25904-0.2589 0.2589-0.14297-0.0001233-0.25852-0.11592-0.25838-0.2589 0.0001233-0.14278 0.11559-0.25826 0.25838-0.25838zm1.8877 0c0.14298-0.0001479 0.25877 0.1154 0.2589 0.25838 0.00014796 0.14317-0.11573 0.25904-0.2589 0.2589-0.14297-0.0001233-0.25904-0.11592-0.2589-0.2589 0.0001233-0.14278 0.11611-0.25826 0.2589-0.25838zm-1.7823 1.3922c0.042684-0.00388 0.089787 0.030177 0.10129 0.11369 0.034499 0.27173 0.35337 0.47988 0.73536 0.48007 0.39476-0.00816 0.71061-0.19476 0.91261-0.48007-0.035066 0.34159-0.43309 0.60612-0.91261 0.60616-0.47919-0.0003453-0.87705-0.2648-0.91209-0.60616-0.0055904-0.067918 0.032764-0.10996 0.075448-0.11369zm-4.331 0.024288c0.0011866 0 0.0029475 0.00101 0.0041341 0.00103 0.20217 0.00107 0.40365 0.025283 0.60048 0.07183 0.28189 0.075745 0.36927 0.10704 0.59221 0.21446 0.57467 0.2886 1.0131 0.76881 1.2563 1.34 0.033036 0.077348 0.062133 0.15668 0.08785 0.23719 0.0017802 0.00593 0.0039042 0.01163 0.0056844 0.01757 0.025321 0.081897 0.047704 0.16513 0.065112 0.2496v0.0005167c0.00019782 0.0007898-0.00019782 0.0009568 0 0.00155 0.015826 0.076556 0.027591 0.15472 0.03669 0.23306 0.0021757 0.019387 0.004421 0.038294 0.0062012 0.057878 0.0075172 0.080315 0.012402 0.1617 0.012402 0.2434 0 0.026112-0.0028263 0.050765-0.0036174 0.076481-0.040949 1.4374-1.2162 2.5911-2.6634 2.5911-1.393 0-2.5357-1.068-2.6562-2.4298-0.0069241-0.078534-0.011886-0.1574-0.011886-0.23771 0-0.020375 0.0027049-0.040602 0.0031006-0.060978 0.031453-1.358 1.0791-2.48 2.4391-2.5952 0.066072-0.00588 0.13237-0.00939 0.19844-0.010335 0.0090997-0.00011 0.018289-0.00155 0.027388-0.00155zm-0.00051676 0.10129c-1.2337 0.0006763-2.2926 0.87933-2.5208 2.0919 0.091986-0.1903 0.23783-0.37492 0.33951-0.17828 0.33253 0.63935 0.70813-0.27024 1.0361-0.35708 0.20692-0.054796 0.25858 0.14959 0.24908-0.084233-0.017804-0.43896 0.6046-0.37515 0.59273 0.17518 0.18991-0.10425-0.15789-0.59056-0.18242-0.68161 0.093766-0.00669 0.76969 0.00382 0.93586 0.6811 0.14045 0.52976 1.5514-0.46679 1.9611 0.047542-0.36703-1.0162-1.3309-1.6935-2.4112-1.6945zm-0.92708 2.265c0.13788 0.0001978 0.2496 0.11204 0.2496 0.25011 0.00019782 0.13808-0.11152 0.2496-0.2496 0.2496-0.13847 0.0001978-0.25031-0.11132-0.25011-0.2496 5.3e-9 -0.13828 0.11184-0.25031 0.25011-0.25011zm1.8231 0c0.13808 0.0001978 0.24992 0.11204 0.25011 0.25011 0.00019782 0.13808-0.11184 0.2496-0.25011 0.2496-0.13828 0.0001978-0.25031-0.11132-0.25011-0.2496 0-0.13828 0.11204-0.25031 0.25011-0.25011zm-1.6903 1.3451c0.041344-0.00396 0.086909 0.028844 0.098185 0.10955 0.033234 0.26231 0.3411 0.46386 0.71003 0.46405 0.3814-0.00791 0.68655-0.18829 0.8816-0.46405-0.033827 0.32996-0.41811 0.5853-0.8816 0.58549-0.4629-0.0003956-0.84726-0.25573-0.88108-0.58549-0.0053411-0.065676 0.031717-0.10599 0.072864-0.10955z" fill-rule="evenodd" fill-opacity=".99608" fill="#323232"/>
  <text id="text831" style="word-spacing:0px;letter-spacing:0px" xml:space="preserve" font-size="2.2125px" line-height="1.25" y="199.8211212" x="27.82522964" font-family="robo" fill="#000000"><tspan id="tspan853" y="199.8211212" x="27.82522964" stroke-width=".26458">Child Programme</tspan></text>
  <text id="text1512" style="word-spacing:0px;letter-spacing:0px" xml:space="preserve" font-size="7.0556px" line-height="1.25" y="270.5416565" x="44.97916794" font-family="robo" fill="#000000"><tspan id="tspan1510" y="276.9786682" x="44.97916794" stroke-width=".26458"/></text>
  <path id="path2014" d="m5.7557 285.35c-1.0427-0.021285-1.4172 0.94287-1.0067 3.6174 0.24088 1.7935-1.4228 0.41964-0.93276-0.37517-0.44196 0.62806-0.099095 1.5902 0.77773 1.5911 0.96376 0.067171 0.31711-2.8189 0.97255-3.7698 0.49764-0.93042 1.5217 0.10527 1.7487 0.80667-0.74964 0.51465-1.1977 1.365-1.1979 2.2738-0.00006499 1.5242 1.2366 2.7603 2.7621 2.76 1.5255 0.0000648 2.7621-1.2359 2.7621-2.76 0-1.5242-1.2366-2.7595-2.7621-2.7595-0.47248 0.0005178-0.9372 0.12189-1.3493 0.35295-0.27274-0.75094-0.65715-1.5061-1.2862-1.6702-0.17576-0.041144-0.33896-0.064052-0.48783-0.067179zm3.1238 1.5115c1.2058 0.0008012 2.2571 0.81899 2.5528 1.987-0.73686 0.044378-1.1904 0.049569-1.7296-0.28164-0.22527-0.74165-0.68739-1.0203-0.91002-0.047542-1.1325 0.22421-1.1867 0.37127-2.2867-0.12661-0.002193-0.0009925-0.003483-0.0021-0.005684-0.0031-0.002655-0.0012-0.00495-0.00167-0.007235-0.00258 0.43096-0.92887 1.3617-1.524 2.3864-1.5255zm0.31264 1.172c0.13501-0.0089 0.27683 0.2514 0.39946 0.59635 0.513 0.4588 1.3183 0.37459 1.8691 0.34675 0.035027 0.17022 0.052895 0.34348 0.053744 0.51728 0.00006497 1.454-1.1796 2.6329-2.635 2.6329-1.4551-0.0001397-2.635-1.179-2.635-2.6329 0.00054868-0.34028 0.067463-0.67723 0.19637-0.99219l0.012402 0.0062c1.1746 0.60222 1.6636 0.2207 2.4479 0.12196 0.084882-0.41966 0.18593-0.58942 0.29094-0.59635zm-1.2402 1.1472c-0.14279 0.0001245-0.25826 0.1156-0.25838 0.25838-0.0001413 0.14298 0.11541 0.25878 0.25838 0.2589 0.14317 0.0001415 0.25905-0.11573 0.2589-0.2589-0.00012478-0.14298-0.11592-0.25853-0.2589-0.25838zm1.8877 0c-0.14279 0.0001245-0.25878 0.1156-0.2589 0.25838-0.0001413 0.14298 0.11593 0.25878 0.2589 0.2589 0.14317 0.0001415 0.25905-0.11573 0.2589-0.2589-0.00012478-0.14298-0.11592-0.25853-0.2589-0.25838zm-1.7823 1.3922c-0.042684 0.00373-0.081038 0.04577-0.075448 0.11369 0.035039 0.34137 0.4329 0.60582 0.91209 0.60616 0.47951-0.0000466 0.87754-0.26458 0.91261-0.60616-0.202 0.28532-0.51785 0.47191-0.91261 0.48007-0.38198-0.0001958-0.70086-0.20834-0.73536-0.48007-0.011499-0.083511-0.058602-0.11756-0.10129-0.11369zm-4.331 0.024288c-0.0091 0-0.018289 0.00144-0.027388 0.00155-0.066072 0.0009495-0.13237 0.00446-0.19844 0.010335-1.36 0.11519-2.4077 1.2372-2.4391 2.5952-0.00039564 0.020376-0.003101 0.040603-0.003101 0.060978 0 0.080315 0.004961 0.15918 0.011886 0.23771 0.12047 1.3618 1.2631 2.4298 2.6562 2.4298 1.4472 0 2.6225-1.1537 2.6634-2.5911 0.00079104-0.025716 0.003617-0.050369 0.003617-0.076481 0-0.081699-0.004885-0.16308-0.012402-0.2434-0.00178-0.019584-0.004026-0.038491-0.006201-0.057878-0.0091-0.078337-0.020865-0.1565-0.03669-0.23306-0.00019782-0.0005935 0.00019782-0.0007603 0-0.00155v-0.0005167c-0.017408-0.084469-0.039791-0.1677-0.065112-0.2496-0.00178-0.00594-0.003904-0.011635-0.005684-0.01757-0.025717-0.080512-0.054814-0.15985-0.08785-0.23719-0.24312-0.57116-0.68159-1.0514-1.2563-1.34-0.22294-0.10742-0.31032-0.13871-0.59221-0.21446-0.19683-0.046547-0.39831-0.070762-0.60048-0.07183-0.001187-0.0000199-0.002947-0.00103-0.004134-0.00103zm-0.00051676 0.10129c1.0803 0.0009495 2.0442 0.67831 2.4112 1.6945-0.40968-0.51433-1.8207 0.48222-1.9611-0.047542-0.16617-0.67728-0.84209-0.68778-0.93586-0.6811 0.02453 0.091056 0.37232 0.57736 0.18242 0.68161 0.011869-0.55033-0.61053-0.61414-0.59273-0.17518 0.009495 0.23382-0.042161 0.029437-0.24908 0.084233-0.32798 0.086843-0.70358 0.99644-1.0361 0.35708-0.10168-0.19663-0.24753-0.012018-0.33951 0.17828 0.22822-1.2125 1.287-2.0912 2.5208-2.0919zm-0.33435 1.0651c0.094756-0.00835 0.55604 0.08369 0.67334 0.58239 0.15232 0.82985 1.8467-0.59732 2.1559 0.33021 0.046537 0.19281 0.070787 0.39077 0.07183 0.58911-0.00012673 0.00297-0.00037974 0.00582-0.00051676 0.00878l-0.00051676 0.00413c-0.00039565 0.021365-0.003342 0.042714-0.004134 0.064079h0.001034c-0.041464 1.386-1.1761 2.4885-2.5626 2.4898-1.3243-0.00136-2.4302-1.0104-2.5528-2.3291-0.008111-0.075369-0.012919-0.15178-0.012919-0.22893 0.012067-0.17843 0.21941-0.85348 0.37569-0.48059 0.32344 0.57012 0.74981-0.32026 1.0831-0.41858 0.20593-0.060533 0.45664 0.23459 0.37672 0.045475-0.27695-0.65455 0.44372-0.54163 0.34778 0.10129 0.34876-0.17646 0.30028-0.32813 0.048059-0.75809zm-0.59273 1.1999c-0.13828-0.0001978-0.25011 0.11184-0.25011 0.25011-0.00019782 0.13828 0.11164 0.2498 0.25011 0.2496 0.13808 0 0.24979-0.11152 0.2496-0.2496 0-0.13808-0.11172-0.24992-0.2496-0.25011zm1.8231 0c-0.13808-0.0001978-0.25011 0.11184-0.25011 0.25011-0.00019782 0.13828 0.11184 0.2498 0.25011 0.2496 0.13828 0 0.25031-0.11152 0.25011-0.2496-0.00019782-0.13808-0.11204-0.24992-0.25011-0.25011zm-1.6903 1.3451c-0.041146 0.00356-0.078205 0.043878-0.072864 0.10955 0.033827 0.32977 0.41819 0.5851 0.88108 0.58549 0.46349-0.0001978 0.84777-0.25553 0.8816-0.58549-0.19505 0.27576-0.5002 0.45614-0.8816 0.46405-0.36893-0.0001977-0.6768-0.20175-0.71003-0.46405-0.011276-0.08071-0.056841-0.11351-0.098185-0.10955z" stroke-width=".26458" fill="#333"/>
  <path id="path2017" d="m19.694 190.53c-1.0427-0.021285-1.4172 0.94287-1.0067 3.6174 0.24088 1.7935-1.4228 0.41964-0.93276-0.37517-0.44196 0.62806-0.099095 1.5902 0.77773 1.5911 0.96376 0.067171 0.31711-2.8189 0.97255-3.7698 0.49764-0.93042 1.5217 0.10527 1.7487 0.80667-0.74964 0.51465-1.1977 1.365-1.1979 2.2738-0.00006499 1.5242 1.2366 2.7603 2.7621 2.76 1.5255 0.0000648 2.7621-1.2359 2.7621-2.76 0-1.5242-1.2366-2.7595-2.7621-2.7595-0.47248 0.0005178-0.9372 0.12189-1.3493 0.35295-0.27274-0.75094-0.65715-1.5061-1.2862-1.6702-0.17576-0.041144-0.33896-0.064052-0.48783-0.067179zm3.4365 2.6836c0.13501-0.0089 0.27683 0.2514 0.39946 0.59635 0.513 0.4588 1.3183 0.37459 1.8691 0.34675 0.035027 0.17022 0.052895 0.34348 0.053744 0.51728 0.00006497 1.454-1.1796 2.6329-2.635 2.6329-1.4551-0.0001397-2.635-1.179-2.635-2.6329 0.00054868-0.34028 0.067463-0.67723 0.19637-0.99219l0.012402 0.0062c1.1746 0.60222 1.6636 0.2207 2.4479 0.12196 0.084882-0.41966 0.18593-0.58942 0.29094-0.59635zm-1.2402 1.1472c-0.14279 0.0001245-0.25826 0.1156-0.25838 0.25838-0.0001413 0.14298 0.11541 0.25878 0.25838 0.2589 0.14317 0.0001415 0.25905-0.11573 0.2589-0.2589-0.00012477-0.14298-0.11592-0.25853-0.2589-0.25838zm1.8877 0c-0.14279 0.0001245-0.25878 0.1156-0.2589 0.25838-0.0001413 0.14298 0.11593 0.25878 0.2589 0.2589 0.14317 0.0001415 0.25905-0.11573 0.2589-0.2589-0.00012478-0.14298-0.11592-0.25853-0.2589-0.25838zm-1.7823 1.3922c-0.042684 0.00373-0.081038 0.04577-0.075448 0.11369 0.035039 0.34137 0.4329 0.60582 0.91209 0.60616 0.47951-0.0000466 0.87754-0.26458 0.91261-0.60616-0.202 0.28532-0.51785 0.47191-0.91261 0.48007-0.38198-0.0001958-0.70086-0.20834-0.73536-0.48007-0.011499-0.083511-0.058602-0.11756-0.10129-0.11369zm-4.331 0.024288c-0.0091 0-0.018289 0.00144-0.027388 0.00155-0.066072 0.0009495-0.13237 0.00446-0.19844 0.010335-1.36 0.11519-2.4077 1.2372-2.4391 2.5952-0.00039564 0.020376-0.003101 0.040603-0.003101 0.060978 0 0.080315 0.004961 0.15918 0.011886 0.23771 0.12047 1.3618 1.2631 2.4298 2.6562 2.4298 1.4472 0 2.6225-1.1537 2.6634-2.5911 0.00079104-0.025716 0.003617-0.050369 0.003617-0.076481 0-0.081699-0.004885-0.16308-0.012402-0.2434-0.00178-0.019584-0.004026-0.038491-0.006201-0.057878-0.0091-0.078337-0.020865-0.1565-0.03669-0.23306-0.00019782-0.0005935 0.00019782-0.0007603 0-0.00155v-0.0005167c-0.017408-0.084469-0.039791-0.1677-0.065112-0.2496-0.00178-0.00594-0.003904-0.011635-0.005684-0.01757-0.025717-0.080512-0.054814-0.15985-0.08785-0.23719-0.24312-0.57116-0.68159-1.0514-1.2563-1.34-0.22294-0.10742-0.31032-0.13871-0.59221-0.21446-0.19683-0.046547-0.39831-0.070762-0.60048-0.07183-0.001187-0.0000199-0.002947-0.00103-0.004134-0.00103zm-0.33486 1.1663c0.094756-0.00835 0.55604 0.08369 0.67334 0.58239 0.15232 0.82985 1.8467-0.59732 2.1559 0.33021 0.046537 0.19281 0.070787 0.39077 0.07183 0.58911-0.00012673 0.00297-0.00037974 0.00582-0.00051676 0.00878l-0.00051676 0.00413c-0.00039565 0.021365-0.003342 0.042714-0.004134 0.064079h0.001034c-0.041464 1.386-1.1761 2.4885-2.5626 2.4898-1.3243-0.00136-2.4302-1.0104-2.5528-2.3291-0.008111-0.075369-0.012919-0.15178-0.012919-0.22893 0.012067-0.17843 0.21941-0.85348 0.37569-0.48059 0.32344 0.57012 0.74981-0.32026 1.0831-0.41858 0.20593-0.060533 0.45664 0.23459 0.37672 0.045475-0.27695-0.65455 0.44372-0.54163 0.34778 0.10129 0.34876-0.17646 0.30028-0.32813 0.048059-0.75809zm-0.59273 1.1999c-0.13828-0.0001978-0.25011 0.11184-0.25011 0.25011-0.00019782 0.13828 0.11164 0.2498 0.25011 0.2496 0.13808 0 0.24979-0.11152 0.2496-0.2496 0-0.13808-0.11172-0.24992-0.2496-0.25011zm1.8231 0c-0.13808-0.0001978-0.25011 0.11184-0.25011 0.25011-0.00019782 0.13828 0.11184 0.2498 0.25011 0.2496 0.13828 0 0.25031-0.11152 0.25011-0.2496-0.00019782-0.13808-0.11204-0.24992-0.25011-0.25011zm-1.6903 1.3451c-0.041146 0.00356-0.078205 0.043878-0.072864 0.10955 0.033827 0.32977 0.41819 0.5851 0.88108 0.58549 0.46349-0.0001978 0.84777-0.25553 0.8816-0.58549-0.19505 0.27576-0.5002 0.45614-0.8816 0.46405-0.36893-0.0001977-0.6768-0.20175-0.71003-0.46405-0.011276-0.08071-0.056841-0.11351-0.098185-0.10955z" stroke-width=".26458" fill="#333"/>
 </g>
</svg>
