<svg width="48" height="48" viewBox="0 0 48 48" fill="none" xmlns="http://www.w3.org/2000/svg">
<g clip-path="url(#clip0)">
<path d="M25.9425 40.2035H34.5023C35.1914 39.5193 35.942 38.809 36.7074 38.085C38.3135 36.5658 39.9891 34.9804 41.7124 32.996C43.6819 30.7282 43.893 29.9423 44.4881 27.72C44.6003 27.3011 44.7259 26.833 44.8912 26.2507L45.9129 22.6528L45.9254 22.6123C46.4719 21.0117 46.515 19.9539 46.2869 19.3428C46.2169 19.1556 46.1251 19.0315 46.0225 18.9649C45.9386 18.9104 45.8331 18.89 45.7171 18.9015C45.4502 18.9279 45.1493 19.0985 44.8757 19.396L41.8371 26.6333C41.8088 26.7008 41.772 26.7624 41.7289 26.8176C41.5489 27.1412 41.3061 27.4593 40.9943 27.7588L35.602 33.7709C35.3095 34.0978 34.8068 34.1257 34.48 33.8332C34.1532 33.5407 34.1252 33.0381 34.4177 32.7112L39.8111 26.6978C39.8334 26.6698 39.8579 26.643 39.8845 26.6178C40.4425 26.0859 40.6192 25.512 40.5219 25.0956C40.4916 24.9656 40.4343 24.858 40.3561 24.7848C40.283 24.7165 40.1838 24.6711 40.0632 24.6583V24.658C39.5838 24.609 38.8737 24.9612 38.0112 25.9824L38.0102 25.9815C37.9858 26.0102 37.9592 26.0377 37.9302 26.0634L35.8407 27.9081L35.8294 27.9189C33.5661 30.0578 32.5959 30.5657 30.8213 31.4946C30.4514 31.6883 30.0426 31.9023 29.5409 32.1757C29.3433 32.2834 29.1473 32.4172 28.9552 32.5621C28.7505 32.7166 28.5585 32.8776 28.3716 33.0353C27.4356 33.8253 26.9432 34.4657 26.6602 35.174C26.367 35.9076 26.261 36.8033 26.1174 38.0299C26.0597 38.524 26.0143 39.0152 25.9817 39.5018C25.9657 39.741 25.9525 39.975 25.9422 40.204L25.9425 40.2035ZM24.0051 1C26.1363 1 27.861 2.72474 27.861 4.85589C27.861 6.98704 26.1363 8.71179 24.0051 8.71179C21.874 8.71179 20.1492 6.9869 20.1492 4.85589C20.1492 2.72474 21.874 1 24.0051 1ZM19.9169 18.5049L22.9768 21.6061L20.7213 23.8617L22.529 25.7192L23.1426 26.3494C24.1957 27.7426 22.6119 29.401 21.2437 28.2484L17.2303 24.152C16.6249 23.3145 16.4424 22.3941 17.0643 21.3493L19.9169 18.4967V18.505V18.5049ZM28.0848 18.5049L25.0249 21.6061L27.2805 23.8617L25.4727 25.7192L24.859 26.3494C23.806 27.7426 25.3898 29.401 26.7579 28.2484L30.7714 24.152C31.3767 23.3145 31.5592 22.3941 30.9371 21.3493L28.0845 18.4967V18.505L28.0848 18.5049ZM33.168 17.4849C32.5378 17.941 31.7418 17.7254 31.2028 17.1699L28.1263 13.9442V16.8797H19.8672V13.9525L16.7991 17.17C16.2683 17.7255 15.4641 17.9412 14.8338 17.4851C14.2036 17.0291 13.9631 16.0588 14.5186 15.5198L18.5569 11.5976C19.212 10.959 20.4808 9.44975 21.3348 9.44975H26.7415C27.5376 9.44975 28.7731 10.9507 29.4448 11.5976L33.4832 15.5197C34.0387 16.0587 33.79 17.0289 33.1681 17.4851L33.168 17.4849ZM22.0571 40.2034H13.4973C12.8082 39.5191 12.0576 38.8089 11.2922 38.0849C9.68626 36.5657 8.0105 34.9803 6.2872 32.9958C4.31766 30.7281 4.10663 29.9421 3.51146 27.7199C3.39926 27.301 3.27356 26.8328 3.10836 26.2506L2.08667 22.6527L2.07417 22.6122C1.5277 21.0115 1.4846 19.9538 1.71273 19.3427C1.78269 19.1555 1.87449 19.0314 1.97706 18.9647C2.06081 18.9103 2.16654 18.8899 2.28233 18.9014C2.54924 18.9278 2.85021 19.0983 3.12373 19.3958L6.16236 26.6331C6.19066 26.7006 6.22729 26.7623 6.27053 26.8174C6.45053 27.1411 6.69331 27.4592 7.00519 27.7587L12.3975 33.7707C12.69 34.0977 13.1926 34.1255 13.5195 33.8331C13.8463 33.5406 13.8743 33.0379 13.5817 32.7111L8.18821 26.6976C8.16594 26.6696 8.14152 26.6429 8.1148 26.6176C7.55684 26.0858 7.38014 25.5119 7.47739 25.0954C7.5077 24.9654 7.56502 24.8578 7.64332 24.7847C7.71644 24.7163 7.81571 24.6709 7.93609 24.6581V24.6578C8.41562 24.6089 9.12571 24.9611 9.98808 25.9822L9.98909 25.9814C10.0135 26.0101 10.0401 26.0375 10.0691 26.0632L12.1586 27.9079L12.1699 27.9187C14.4333 30.0576 15.4034 30.5656 17.1778 31.4945C17.5479 31.6881 17.9567 31.9022 18.4582 32.1755C18.6559 32.2833 18.8519 32.417 19.0439 32.562C19.2486 32.7164 19.4406 32.8775 19.6276 33.0352C20.5635 33.8252 21.056 34.4656 21.339 35.1738C21.6322 35.9075 21.7381 36.8032 21.8817 38.0297C21.9395 38.5239 21.9849 39.0151 22.0175 39.5016C22.0334 39.7408 22.0468 39.9748 22.057 40.2038L22.0571 40.2034ZM11.5027 40.4772C11.3804 40.6174 11.3063 40.8008 11.3063 41.0013V45.7451C11.3063 46.1857 11.6637 46.5431 12.1043 46.5431H22.8763C23.3169 46.5431 23.6743 46.1857 23.6743 45.7451V40.9576C23.6743 40.4499 23.6412 39.903 23.6073 39.3953C23.5724 38.8763 23.525 38.3603 23.4653 37.8486C23.3084 36.5069 23.192 35.5269 22.8168 34.5874C22.4314 33.6227 21.8079 32.791 20.6566 31.8191C20.4454 31.641 20.2292 31.4597 20.0041 31.2899C19.7665 31.1106 19.5089 30.9369 19.2192 30.7789C18.7503 30.5234 18.312 30.2936 17.9136 30.0855C16.2721 29.2261 15.3745 28.7561 13.261 26.7588C13.2445 26.7433 13.2274 26.7285 13.2099 26.7147L11.1715 24.9153C9.92588 23.4566 8.70796 22.9755 7.77117 23.0746L7.76801 23.0749V23.0746C7.31219 23.123 6.91957 23.3014 6.60827 23.5738L4.54909 18.6694L4.54622 18.6705C4.51648 18.5997 4.47611 18.5319 4.4244 18.4698C3.85566 17.7862 3.13192 17.3867 2.43834 17.318C1.96672 17.2714 1.50902 17.3719 1.11066 17.6307C0.730692 17.8777 0.419818 18.2607 0.223008 18.7877C-0.119757 19.706 -0.111568 21.1301 0.559453 23.1046L1.57496 26.6807C1.72192 27.1981 1.85409 27.6912 1.97203 28.1313C2.63659 30.6121 2.8719 31.4899 5.08421 34.0371C6.83711 36.0554 8.55496 37.6806 10.2014 39.2383C10.6373 39.6507 11.068 40.0583 11.5027 40.4775V40.4772ZM13.0277 41.7993C13.134 41.8212 13.2438 41.8211 13.3501 41.7993H22.0782V44.9471H12.9023V41.7993H13.0277ZM36.4969 40.4772C36.6192 40.6174 36.6933 40.8008 36.6933 41.0013V45.7451C36.6933 46.1857 36.336 46.5431 35.8953 46.5431H25.1235C24.6829 46.5431 24.3255 46.1857 24.3255 45.7451V40.9576C24.3255 40.929 24.3271 40.9005 24.3301 40.8727C24.3401 40.3595 24.361 39.8665 24.3924 39.3953C24.4272 38.8763 24.4747 38.3603 24.5345 37.8486C24.6915 36.5069 24.8077 35.5269 25.1831 34.5874C25.5685 33.6227 26.192 32.791 27.3433 31.8191C27.5543 31.641 27.7705 31.4597 27.9958 31.2899C28.2334 31.1106 28.4909 30.9369 28.7808 30.7789C29.2497 30.5234 29.688 30.2936 30.0863 30.0855C31.728 29.2261 32.6254 28.7561 34.7389 26.7588C34.7555 26.7433 34.7725 26.7285 34.79 26.7147L36.8284 24.9153C38.074 23.4566 39.2919 22.9755 40.2287 23.0746L40.2319 23.0749V23.0746C40.6877 23.123 41.0803 23.3014 41.3916 23.5738L43.4507 18.6694L43.4535 18.6705C43.4833 18.5997 43.5236 18.5319 43.5753 18.4698C44.1441 17.7862 44.8677 17.3867 45.5614 17.318C46.033 17.2714 46.4907 17.3719 46.8891 17.6307C47.2691 17.8777 47.5799 18.2607 47.7767 18.7877C48.1195 19.706 48.1113 21.1301 47.4404 23.1046L46.4249 26.6807C46.278 27.1981 46.1458 27.6912 46.0279 28.1313C45.3633 30.6121 45.1278 31.4899 42.9155 34.0371C41.1626 36.0554 39.4449 37.6806 37.7983 39.2383C37.3625 39.6507 36.9318 40.0583 36.4969 40.4775V40.4772ZM34.9719 41.7993C34.8656 41.8212 34.7558 41.8211 34.6495 41.7993H25.9214V44.9471H35.0973V41.7993H34.9719Z" fill="#333333"/>
</g>
<defs>
<clipPath id="clip0">
<rect width="48" height="48" fill="white"/>
</clipPath>
</defs>
</svg>
