<svg width="48" height="48" viewBox="0 0 48 48" fill="none" xmlns="http://www.w3.org/2000/svg">
<path fill-rule="evenodd" clip-rule="evenodd" d="M24 4.35742C23.954 4.35742 23.9093 4.36463 23.8633 4.36523C23.5293 4.37003 23.1953 4.38632 22.8613 4.41602C15.9864 4.99831 10.6883 10.6726 10.5293 17.5371C10.5273 17.6401 10.5137 17.7408 10.5137 17.8438C10.5137 18.2498 10.5392 18.6479 10.5742 19.0449C11.1832 25.9288 16.9581 31.3301 24 31.3301C31.3159 31.3301 37.2578 25.4983 37.4648 18.2324C37.4688 18.1024 37.4844 17.9757 37.4844 17.8438C37.4844 17.4307 37.4579 17.0212 37.4199 16.6152C37.4109 16.5162 37.3997 16.4183 37.3887 16.3203C37.3427 15.9243 37.2851 15.5315 37.2051 15.1445C37.2041 15.1415 37.2041 15.1388 37.2031 15.1348V15.1328C37.1151 14.7058 37.003 14.2851 36.875 13.8711C36.866 13.8411 36.8547 13.8112 36.8457 13.7812C36.7157 13.3743 36.5693 12.973 36.4023 12.582C35.1733 9.69477 32.9557 7.26944 30.0508 5.81055C28.9238 5.26756 28.4816 5.1075 27.0566 4.72461C26.0616 4.48931 25.0454 4.36673 24.0234 4.36133C24.0174 4.36123 24.006 4.35742 24 4.35742ZM23.998 4.86914C26.6638 4.87148 29.2642 5.69579 31.4453 7.22852C33.6264 8.76124 35.2818 10.9281 36.1875 13.4355C34.1165 10.8355 26.9854 15.8714 26.2754 13.1934C25.4354 9.7697 22.017 9.71815 21.543 9.75195C21.667 10.2123 23.4247 12.6703 22.4648 13.1973C22.5248 10.4153 19.3787 10.0935 19.4688 12.3125C19.5168 13.4945 19.2569 12.4613 18.2109 12.7383C16.5529 13.1773 14.6536 17.7729 12.9727 14.541C12.4587 13.547 11.7209 14.4814 11.2559 15.4434C11.8151 12.4723 13.3943 9.78996 15.7207 7.85938C18.0471 5.92878 20.975 4.87079 23.998 4.86914ZM22.3086 10.2539C22.7875 10.2117 25.1199 10.6763 25.7129 13.1973C26.4829 17.3922 35.0483 10.1784 36.6113 14.8672C36.8465 15.8418 36.9674 16.8412 36.9727 17.8438C36.972 17.8588 36.9714 17.8737 36.9707 17.8887C36.97 17.8961 36.9694 17.9029 36.9688 17.9102C36.9667 18.0182 36.9532 18.1244 36.9492 18.2324H36.9531C36.8522 21.6025 35.4436 24.8011 33.0254 27.1504C30.6072 29.4996 27.3694 30.8152 23.998 30.8184C20.7676 30.8151 17.6541 29.607 15.2676 27.4297C12.8811 25.2523 11.3928 22.2617 11.0938 19.0449C11.0527 18.6639 11.0293 18.2787 11.0293 17.8887C11.0903 16.9868 12.1377 13.574 12.9277 15.459C14.5627 18.3409 16.7173 13.8407 18.4023 13.3438C19.4433 13.0378 20.7106 14.5302 20.3066 13.5742C18.9066 10.2655 22.5514 10.834 22.0664 14.084C23.8293 13.192 23.5835 12.4274 22.3086 10.2539ZM19.3105 16.3184C18.6115 16.3174 18.0469 16.8831 18.0469 17.582C18.0459 18.281 18.6105 18.8467 19.3105 18.8457C20.0085 18.8457 20.5752 18.28 20.5742 17.582C20.5742 16.8841 20.0075 16.3194 19.3105 16.3184ZM28.5293 16.3184C27.8313 16.3174 27.2637 16.8831 27.2637 17.582C27.2627 18.281 27.8303 18.8467 28.5293 18.8457C29.2283 18.8457 29.794 18.28 29.793 17.582C29.792 16.8841 29.2273 16.3194 28.5293 16.3184ZM19.9844 23.1191C19.7764 23.1371 19.5882 23.3418 19.6152 23.6738C19.7862 25.3407 21.7304 26.6308 24.0703 26.6328C26.4133 26.6318 28.3563 25.3417 28.5273 23.6738C27.5413 25.0678 25.9983 25.9776 24.0703 26.0176C22.2054 26.0166 20.6465 24.9998 20.4785 23.6738C20.4215 23.2658 20.1934 23.0991 19.9844 23.1191ZM26.7207 35.1562C26.2103 35.1562 25.7543 35.2656 25.3516 35.4844C24.9488 35.6997 24.6363 35.9989 24.4141 36.3809C24.1953 36.7628 24.0859 37.1847 24.0859 37.6465H25.5957C25.5957 37.2645 25.6942 36.9572 25.8887 36.7246C26.0866 36.4885 26.355 36.3691 26.6953 36.3691C27.0113 36.3691 27.2537 36.4677 27.4238 36.6621C27.594 36.8531 27.6797 37.1163 27.6797 37.4531C27.6797 37.6997 27.5987 37.9601 27.4355 38.2344C27.2758 38.5087 27.0263 38.8292 26.6895 39.1973L24.2363 41.8125V42.8438H29.4355V41.6309H26.1738L27.8984 39.8125C28.3707 39.2951 28.704 38.842 28.8984 38.4531C29.0929 38.0642 29.1895 37.6816 29.1895 37.3066C29.1895 36.6226 28.9731 36.0938 28.5391 35.7188C28.1085 35.3438 27.502 35.1562 26.7207 35.1562ZM23.0488 37.0996L18.5645 39V40.2285L23.0488 42.1309V40.6719L20.0801 39.625L23.0488 38.5566V37.0996Z" fill="#333333"/>
</svg>
