<svg width="48" height="48" viewBox="0 0 48 48" fill="none" xmlns="http://www.w3.org/2000/svg">
<path d="M38.3563 6.47518C38.3563 6.25467 38.1264 6.10951 37.9273 6.20433L35.6563 7.286L33.3853 6.20433C33.1862 6.10951 32.9563 6.25467 32.9563 6.47518V8.09682C32.9563 8.31733 33.1862 8.46249 33.3853 8.36767L35.6563 7.286L37.9273 8.36767C38.1264 8.46249 38.3563 8.31733 38.3563 8.09682V6.47518Z" fill="#333333"/>
<path d="M38.1008 17.6245C37.3772 18.1079 36.5265 18.366 35.6563 18.366C34.4893 18.366 33.3702 17.9024 32.545 17.0773C31.7198 16.2521 31.2563 15.133 31.2563 13.966C31.2563 13.0958 31.5143 12.2451 31.9978 11.5215C32.4813 10.7979 33.1685 10.234 33.9725 9.90093C34.7765 9.5679 35.6612 9.48077 36.5147 9.65055C37.3682 9.82032 38.1522 10.2394 38.7675 10.8547C39.3829 11.4701 39.802 12.2541 39.9717 13.1076C40.1415 13.9611 40.0544 14.8458 39.7213 15.6498C39.3883 16.4538 38.8244 17.141 38.1008 17.6245Z" fill="#333333"/>
<path d="M41.9183 20.721L45.1093 27.342L45.1133 27.341C45.2262 27.5754 45.2919 27.8298 45.3065 28.0896C45.3211 28.3493 45.2845 28.6095 45.1986 28.8551C45.1127 29.1007 44.9792 29.327 44.8059 29.521C44.6326 29.7151 44.4227 29.8731 44.1883 29.986C43.9539 30.0989 43.6995 30.1646 43.4397 30.1792C43.1799 30.1939 42.9198 30.1572 42.6742 30.0713C42.4286 29.9854 42.2023 29.852 42.0083 29.6786C41.8142 29.5053 41.6562 29.2954 41.5433 29.061L40.4973 26.889C40.8969 29.2791 41.7046 31.5827 42.8853 33.699H40.0703V39.816C40.0703 40.3414 39.8616 40.8453 39.4901 41.2168C39.1185 41.5883 38.6147 41.797 38.0893 41.797C37.5639 41.797 37.06 41.5883 36.6885 41.2168C36.317 40.8453 36.1083 40.3414 36.1083 39.816V33.699H35.2083V39.817C35.2083 40.3424 34.9996 40.8463 34.6281 41.2178C34.2565 41.5893 33.7527 41.798 33.2273 41.798C32.7019 41.798 32.198 41.5893 31.8265 41.2178C31.455 40.8463 31.2463 40.3424 31.2463 39.817V33.7H28.4323C29.6126 31.5836 30.4204 29.2801 30.8203 26.89L29.7733 29.062C29.6618 29.2987 29.5046 29.511 29.3106 29.6866C29.1166 29.8623 28.8898 29.9977 28.6432 30.0852C28.3966 30.1726 28.1351 30.2104 27.8738 30.1962C27.6126 30.1821 27.3567 30.1163 27.121 30.0027C26.8853 29.8891 26.6744 29.7299 26.5005 29.5344C26.3267 29.3389 26.1933 29.1108 26.108 28.8634C26.0228 28.616 25.9874 28.3542 26.004 28.0931C26.0205 27.8319 26.0886 27.5767 26.2043 27.342L29.4043 20.701C29.424 20.6602 29.4481 20.6233 29.4722 20.5864C29.4847 20.5671 29.4973 20.5478 29.5093 20.528C29.6654 20.2051 29.9091 19.9325 30.2128 19.7415C30.5164 19.5506 30.8676 19.4488 31.2263 19.448H40.1183C40.513 19.4483 40.898 19.5708 41.2204 19.7988C41.5427 20.0267 41.7865 20.3489 41.9183 20.721Z" fill="#333333"/>
<path d="M15.0929 17.7255C14.3693 18.2089 13.5186 18.467 12.6484 18.467C11.4814 18.467 10.3623 18.0034 9.5371 17.1783C8.71194 16.3531 8.24837 15.2339 8.24837 14.067C8.24837 13.1968 8.50643 12.3461 8.9899 11.6225C9.47338 10.8989 10.1606 10.3349 10.9646 10.0019C11.7686 9.6689 12.6533 9.58176 13.5068 9.75154C14.3603 9.92131 15.1443 10.3404 15.7596 10.9557C16.375 11.5711 16.7941 12.3551 16.9638 13.2086C17.1336 14.0621 17.0465 14.9468 16.7134 15.7508C16.3804 16.5548 15.8165 17.242 15.0929 17.7255Z" fill="#333333"/>
<path d="M18.9104 20.822L22.1014 27.443H22.1064C22.2193 27.6774 22.285 27.9318 22.2996 28.1915C22.3142 28.4513 22.2776 28.7115 22.1917 28.9571C22.1058 29.2027 21.9723 29.429 21.799 29.623C21.6257 29.8171 21.4158 29.9751 21.1814 30.088C20.947 30.2009 20.6926 30.2666 20.4328 30.2812C20.173 30.2959 19.9129 30.2592 19.6673 30.1733C19.4217 30.0874 19.1954 29.954 19.0014 29.7806C18.8073 29.6073 18.6493 29.3974 18.5364 29.163L17.0634 26.106V39.917C17.0634 40.4424 16.8547 40.9463 16.4831 41.3178C16.1116 41.6893 15.6078 41.898 15.0824 41.898C14.557 41.898 14.0531 41.6893 13.6816 41.3178C13.3101 40.9463 13.1014 40.4424 13.1014 39.917V33.8H12.2014V39.918C12.2014 40.4434 11.9927 40.9473 11.6211 41.3188C11.2496 41.6903 10.7458 41.899 10.2204 41.899C9.69498 41.899 9.1911 41.6903 8.81959 41.3188C8.44808 40.9473 8.23937 40.4434 8.23937 39.918V26.106L6.76637 29.163C6.53828 29.6364 6.13148 29.9998 5.63544 30.1733C5.13941 30.3468 4.59478 30.3161 4.12137 30.088C3.64796 29.8599 3.28454 29.4531 3.11107 28.9571C2.9376 28.461 2.96828 27.9164 3.19637 27.443L6.39637 20.802C6.41609 20.7612 6.44014 20.7244 6.46425 20.6874C6.47679 20.6682 6.4894 20.6488 6.50137 20.629C6.65745 20.306 6.90123 20.0335 7.20485 19.8425C7.50847 19.6516 7.85968 19.5498 8.21837 19.549H17.1104C17.5052 19.5491 17.8902 19.6716 18.2126 19.8996C18.5349 20.1275 18.7787 20.4498 18.9104 20.822Z" fill="#333333"/>
</svg>
