<svg width="48" height="48" viewBox="0 0 48 48" fill="none" xmlns="http://www.w3.org/2000/svg">
<g clip-path="url(#clip0)">
<path fill-rule="evenodd" clip-rule="evenodd" d="M0.0078125 -0.00195312V47.998H48.0078V-0.00195312H0.0078125ZM24.002 4.35547C24.008 4.35547 24.0174 4.35926 24.0234 4.35938C25.0454 4.36478 26.0636 4.48736 27.0586 4.72266C28.4835 5.10555 28.9257 5.2657 30.0527 5.80859C34.6037 8.09436 37.4784 12.7489 37.4844 17.8418C37.4854 25.2898 31.4499 31.3281 24.002 31.3281C16.5541 31.3281 10.5146 25.2898 10.5156 17.8418C10.5196 10.8393 15.8834 5.00701 22.8613 4.41602C23.1953 4.38632 23.5293 4.37003 23.8633 4.36523C23.9093 4.36463 23.956 4.35742 24.002 4.35742V4.35547ZM22.3105 10.2539C23.5855 12.4274 23.8294 13.192 22.0664 14.084C22.5514 10.834 18.9087 10.2655 20.3086 13.5742C20.7126 14.5302 19.4432 13.0358 18.4023 13.3418C16.7173 13.8388 14.5647 18.3409 12.9297 15.459C12.1397 13.574 11.8383 16.9399 11.7773 17.8418C11.7773 24.5918 17.2521 30.0664 24.002 30.0664C30.7509 30.0654 36.2207 24.5908 36.2207 17.8418C36.2187 17.0709 36.144 16.3048 35.998 15.5508C34.8001 10.0421 26.5058 17.5082 25.7148 13.1973C25.1218 10.6763 22.7895 10.2117 22.3105 10.2539ZM19.3125 16.3184C20.0095 16.3194 20.5742 16.8841 20.5742 17.582C20.5752 18.28 20.0105 18.8438 19.3125 18.8438C18.6126 18.8447 18.0478 18.281 18.0488 17.582C18.0488 16.8831 18.6136 16.3174 19.3125 16.3184ZM28.5293 16.3184C29.2273 16.3194 29.792 16.8841 29.793 17.582C29.794 18.28 29.2283 18.8438 28.5293 18.8438C27.8303 18.8447 27.2646 18.281 27.2656 17.582C27.2656 16.8831 27.8313 16.3174 28.5293 16.3184ZM19.9844 23.1191C20.1934 23.0991 20.4235 23.2639 20.4805 23.6719C20.6485 24.9979 22.2053 26.0146 24.0703 26.0156C25.9983 25.9756 27.5413 25.0659 28.5273 23.6719C28.3563 25.3398 26.4133 26.6299 24.0703 26.6309C21.7303 26.6289 19.7862 25.3388 19.6152 23.6719C19.5882 23.3399 19.7764 23.1371 19.9844 23.1191ZM4 34H44V44H4V34ZM26.7207 35.1562C26.2103 35.1562 25.7543 35.2656 25.3516 35.4844C24.9488 35.6997 24.6363 35.9989 24.4141 36.3809C24.1953 36.7628 24.0859 37.1847 24.0859 37.6465H25.5957C25.5957 37.2645 25.6942 36.9572 25.8887 36.7246C26.0866 36.4885 26.355 36.3691 26.6953 36.3691C27.0113 36.3691 27.2537 36.4677 27.4238 36.6621C27.594 36.8531 27.6797 37.1163 27.6797 37.4531C27.6797 37.6997 27.5987 37.9601 27.4355 38.2344C27.2758 38.5087 27.0263 38.8292 26.6895 39.1973L24.2363 41.8125V42.8438H29.4355V41.6309H26.1738L27.8984 39.8125C28.3707 39.2951 28.704 38.842 28.8984 38.4531C29.0929 38.0642 29.1895 37.6816 29.1895 37.3066C29.1895 36.6226 28.9731 36.0938 28.5391 35.7188C28.1085 35.3438 27.502 35.1562 26.7207 35.1562ZM23.0488 37.0996L18.5645 39V40.2285L23.0488 42.1309V40.6719L20.0801 39.625L23.0488 38.5566V37.0996Z" fill="#333333"/>
</g>
<defs>
<clipPath id="clip0">
<rect width="48" height="48" fill="white"/>
</clipPath>
</defs>
</svg>
