<svg width="48" height="48" viewBox="0 0 48 48" fill="none" xmlns="http://www.w3.org/2000/svg">
<path fill-rule="evenodd" clip-rule="evenodd" d="M15.0003 18C17.2094 18 19.0003 16.2091 19.0003 14C19.0003 11.7909 17.2094 10 15.0003 10C12.7911 10 11.0003 11.7909 11.0003 14C11.0003 16.2091 12.7911 18 15.0003 18ZM15.0003 16C16.1048 16 17.0003 15.1046 17.0003 14C17.0003 12.8954 16.1048 12 15.0003 12C13.8957 12 13.0003 12.8954 13.0003 14C13.0003 15.1046 13.8957 16 15.0003 16Z" fill="#333333"/>
<path d="M18.268 23.4022L12.5692 20.9998L18.268 23.4038V23.4022Z" fill="#333333"/>
<path d="M18.268 23.4022L18.44 23.4747L18.268 23.2147V23.4022Z" fill="#333333"/>
<path fill-rule="evenodd" clip-rule="evenodd" d="M9.8205 19.9893C10.3833 19.5633 11.3319 18.9998 12.5692 18.9998H17.5657C18.9284 18.9998 19.9458 19.7185 20.4403 20.1179C21.021 20.587 21.5224 21.1512 21.9108 21.6328C22.5288 22.3992 23.1012 23.268 23.4258 23.7607L23.4327 23.7712C23.5118 23.8912 23.5722 23.9829 23.617 24.0489C23.8243 24.3544 23.9677 24.6845 24.0502 25.0233C24.1231 24.6351 24.2766 24.2556 24.5152 23.9094C24.6142 23.7657 24.733 23.5871 24.8717 23.3783L24.8835 23.3607C25.263 22.7895 25.7758 22.0178 26.2825 21.3873C26.6436 20.938 27.1156 20.4096 27.6861 19.973C28.2294 19.5572 29.1537 19 30.3642 19H35.1932C36.5265 19 37.5175 19.7102 37.9933 20.0989C38.555 20.5576 39.0394 21.109 39.4143 21.5791C40.0112 22.3275 40.564 23.1759 40.8777 23.6575L40.8817 23.6636L40.8845 23.6678L40.8903 23.6768C40.9638 23.7896 41.0203 23.8764 41.0626 23.9394C41.9596 25.2759 41.6031 27.0865 40.2666 27.9835C39.7242 28.3474 39.1038 28.505 38.498 28.4745C38.7858 29.517 39.0634 30.465 39.263 31.1329C39.5777 32.1861 38.9462 33.3244 37.8314 33.5574C34.2204 34.3119 31.6676 34.2884 27.7872 33.5478C26.6491 33.3306 25.9859 32.1702 26.3214 31.0903C26.5273 30.4275 26.8089 29.4979 27.0976 28.4723C26.468 28.5122 25.8208 28.3489 25.2609 27.9631C24.6518 27.5433 24.2521 26.933 24.0867 26.2674C23.9482 27.033 23.5138 27.7445 22.8191 28.2159C22.0537 28.7353 21.1341 28.8533 20.3091 28.6177C20.3113 28.6346 20.3133 28.6515 20.3152 28.6685L20.9819 34.6685C21.1613 36.2836 20.0222 37.7479 18.4126 37.9713C16.803 38.1947 15.3082 37.0959 15.041 35.493L15.0002 35.2481L14.9594 35.493C14.6922 37.0959 13.1974 38.1947 11.5878 37.9713C9.97822 37.7479 8.83911 36.2836 9.01856 34.6685L9.53588 30.0126L9.58493 28.6759C8.81279 28.8293 7.98175 28.6803 7.28491 28.1947C5.92562 27.2473 5.59169 25.3774 6.53905 24.0181C6.63772 23.8765 6.75531 23.7018 6.89228 23.498L6.92009 23.4566C7.3127 22.8723 7.84357 22.0822 8.36831 21.4365C8.74249 20.9761 9.23096 20.4355 9.8205 19.9893ZM12.5692 20.9998C11.9517 20.9998 11.4257 21.2827 11.0275 21.584C10.6212 21.8916 10.2491 22.2934 9.9204 22.6979C9.4621 23.2618 8.98146 23.9748 8.57838 24.5746L8.56473 24.595C8.42535 24.8024 8.2932 24.999 8.17986 25.1617C7.86407 25.6148 7.97538 26.2381 8.42848 26.5538C8.88157 26.8696 9.50488 26.7583 9.82067 26.3052L11.7764 23.4952L11.5318 30.1599L11.0063 34.8894C10.9465 35.4277 11.3262 35.9158 11.8627 35.9903C12.3993 36.0648 12.8976 35.6985 12.9866 35.1642L13.9803 29.2021L15.0061 28.9741L16.0218 29.2121L17.0138 35.1642C17.1029 35.6985 17.6011 36.0648 18.1377 35.9903C18.6742 35.9158 19.0539 35.4277 18.9941 34.8894L18.3274 28.8894C18.3219 28.8394 18.3128 28.7911 18.3006 28.7446L18.268 28.62V23.4038L18.4414 23.4769L20.1021 25.9878C20.1759 26.0994 20.2438 26.2016 20.3071 26.2949C20.6172 26.7519 21.2391 26.871 21.6961 26.5609C22.1531 26.2508 22.2722 25.6289 21.9621 25.1719C21.9092 25.094 21.8421 24.9922 21.7684 24.8804L18.4414 23.4769L18.44 23.4747L21.7662 24.877L21.7626 24.8715C21.4335 24.372 20.9072 23.5744 20.3539 22.8883C20.0052 22.4559 19.606 22.0149 19.1836 21.6738C18.7905 21.3562 18.226 20.9998 17.5657 20.9998H12.5692ZM28.8529 21.4975C29.2395 21.2017 29.7553 20.9198 30.3642 20.9198H35.1932C35.8451 20.9198 36.3985 21.275 36.7789 21.5857C37.1891 21.9207 37.5761 22.3531 37.9134 22.7761C38.4488 23.4474 38.9578 24.2276 39.2758 24.7157L39.279 24.7205C39.3511 24.8312 39.4169 24.9322 39.4685 25.0091C39.7747 25.4653 39.653 26.0832 39.1968 26.3894C38.7421 26.6945 38.1265 26.5746 37.8195 26.122C37.558 25.7366 37.0577 25.5945 36.6327 25.7849C36.2077 25.9753 35.9807 26.4433 36.0943 26.895C36.5509 28.711 37.094 30.5796 37.4232 31.6814C34.0988 32.3746 31.8059 32.3592 28.154 31.6627L28.1547 31.66C28.5031 30.5387 29.0703 28.6471 29.5306 26.7951C29.6427 26.3442 29.4157 25.8777 28.9917 25.6876C28.5677 25.4976 28.0685 25.6385 27.8064 26.0222L27.7339 26.1279C27.4222 26.5802 26.8027 26.6942 26.3504 26.3824C25.8981 26.0706 25.7841 25.4512 26.0959 24.9989C26.2053 24.8402 26.3328 24.6482 26.4675 24.4456L26.472 24.4388C26.8633 23.85 27.332 23.1461 27.7789 22.59C28.0969 22.1942 28.4578 21.7999 28.8529 21.4975Z" fill="#333333"/>
<path fill-rule="evenodd" clip-rule="evenodd" d="M33.0005 18C35.2096 18 37.0005 16.2091 37.0005 14C37.0005 11.7909 35.2096 10 33.0005 10C30.7913 10 29.0005 11.7909 29.0005 14C29.0005 16.2091 30.7913 18 33.0005 18ZM33.0005 16C34.105 16 35.0005 15.1046 35.0005 14C35.0005 12.8954 34.105 12 33.0005 12C31.8959 12 31.0005 12.8954 31.0005 14C31.0005 15.1046 31.8959 16 33.0005 16Z" fill="#333333"/>
<path d="M29.8011 37.9867C29.0563 37.8869 28.5002 37.2514 28.5002 36.5V35.2639C29.6532 35.4097 30.7438 35.5007 31.8174 35.5378L31.4474 36.8946C31.2496 37.6196 30.5459 38.0864 29.8011 37.9867Z" fill="#333333"/>
<path d="M34.5531 36.8946L34.1816 35.5327C35.2558 35.4912 36.3468 35.3966 37.5002 35.25V36.5C37.5002 37.2514 36.9441 37.8869 36.1993 37.9867C35.4545 38.0864 34.7508 37.6196 34.5531 36.8946Z" fill="#333333"/>
</svg>
