<svg width="48" height="48" viewBox="0 0 48 48" fill="none" xmlns="http://www.w3.org/2000/svg">
<mask id="path-1-inside-1" fill="white">
<path d="M38.3563 6.47518C38.3563 6.25467 38.1264 6.10951 37.9273 6.20433L35.6563 7.286L33.3853 6.20433C33.1862 6.10951 32.9563 6.25467 32.9563 6.47518V8.09682C32.9563 8.31733 33.1862 8.46249 33.3853 8.36767L35.6563 7.286L37.9273 8.36767C38.1264 8.46249 38.3563 8.31733 38.3563 8.09682V6.47518Z"/>
<path d="M38.1008 17.6245C37.3772 18.1079 36.5265 18.366 35.6563 18.366C34.4893 18.366 33.3702 17.9024 32.545 17.0773C31.7198 16.2521 31.2563 15.133 31.2563 13.966C31.2563 13.0958 31.5143 12.2451 31.9978 11.5215C32.4813 10.7979 33.1685 10.234 33.9725 9.90093C34.7765 9.5679 35.6612 9.48077 36.5147 9.65055C37.3682 9.82032 38.1522 10.2394 38.7675 10.8547C39.3829 11.4701 39.802 12.2541 39.9717 13.1076C40.1415 13.9611 40.0544 14.8458 39.7213 15.6498C39.3883 16.4538 38.8244 17.141 38.1008 17.6245Z"/>
<path d="M41.9183 20.721L45.1093 27.342L45.1133 27.341C45.2262 27.5754 45.2919 27.8298 45.3065 28.0896C45.3211 28.3493 45.2845 28.6095 45.1986 28.8551C45.1127 29.1007 44.9792 29.327 44.8059 29.521C44.6326 29.7151 44.4227 29.8731 44.1883 29.986C43.9539 30.0989 43.6995 30.1646 43.4397 30.1792C43.1799 30.1939 42.9198 30.1572 42.6742 30.0713C42.4286 29.9854 42.2023 29.852 42.0083 29.6786C41.8142 29.5053 41.6562 29.2954 41.5433 29.061L40.4973 26.889C40.8969 29.2791 41.7046 31.5827 42.8853 33.699H40.0703V39.816C40.0703 40.3414 39.8616 40.8453 39.4901 41.2168C39.1185 41.5883 38.6147 41.797 38.0893 41.797C37.5639 41.797 37.06 41.5883 36.6885 41.2168C36.317 40.8453 36.1083 40.3414 36.1083 39.816V33.699H35.2083V39.817C35.2083 40.3424 34.9996 40.8463 34.6281 41.2178C34.2565 41.5893 33.7527 41.798 33.2273 41.798C32.7019 41.798 32.198 41.5893 31.8265 41.2178C31.455 40.8463 31.2463 40.3424 31.2463 39.817V33.7H28.4323C29.6126 31.5836 30.4204 29.2801 30.8203 26.89L29.7733 29.062C29.6618 29.2987 29.5046 29.511 29.3106 29.6866C29.1166 29.8623 28.8898 29.9977 28.6432 30.0852C28.3966 30.1726 28.1351 30.2104 27.8738 30.1962C27.6126 30.1821 27.3567 30.1163 27.121 30.0027C26.8853 29.8891 26.6744 29.7299 26.5005 29.5344C26.3267 29.3389 26.1933 29.1108 26.108 28.8634C26.0228 28.616 25.9874 28.3542 26.004 28.0931C26.0205 27.8319 26.0886 27.5767 26.2043 27.342L29.4043 20.701C29.424 20.6602 29.4481 20.6233 29.4722 20.5864C29.4847 20.5671 29.4973 20.5478 29.5093 20.528C29.6654 20.2051 29.9091 19.9325 30.2128 19.7415C30.5164 19.5506 30.8676 19.4488 31.2263 19.448H40.1183C40.513 19.4483 40.898 19.5708 41.2204 19.7988C41.5427 20.0267 41.7865 20.3489 41.9183 20.721Z"/>
<path d="M15.0929 17.7255C14.3693 18.2089 13.5186 18.467 12.6484 18.467C11.4814 18.467 10.3623 18.0034 9.5371 17.1783C8.71194 16.3531 8.24837 15.2339 8.24837 14.067C8.24837 13.1968 8.50643 12.3461 8.9899 11.6225C9.47338 10.8989 10.1606 10.3349 10.9646 10.0019C11.7686 9.6689 12.6533 9.58176 13.5068 9.75154C14.3603 9.92131 15.1443 10.3404 15.7596 10.9557C16.375 11.5711 16.7941 12.3551 16.9638 13.2086C17.1336 14.0621 17.0465 14.9468 16.7134 15.7508C16.3804 16.5548 15.8165 17.242 15.0929 17.7255Z"/>
<path d="M18.9104 20.822L22.1014 27.443H22.1064C22.2193 27.6774 22.285 27.9318 22.2996 28.1915C22.3142 28.4513 22.2776 28.7115 22.1917 28.9571C22.1058 29.2027 21.9723 29.429 21.799 29.623C21.6257 29.8171 21.4158 29.9751 21.1814 30.088C20.947 30.2009 20.6926 30.2666 20.4328 30.2812C20.173 30.2959 19.9129 30.2592 19.6673 30.1733C19.4217 30.0874 19.1954 29.954 19.0014 29.7806C18.8073 29.6073 18.6493 29.3974 18.5364 29.163L17.0634 26.106V39.917C17.0634 40.4424 16.8547 40.9463 16.4831 41.3178C16.1116 41.6893 15.6078 41.898 15.0824 41.898C14.557 41.898 14.0531 41.6893 13.6816 41.3178C13.3101 40.9463 13.1014 40.4424 13.1014 39.917V33.8H12.2014V39.918C12.2014 40.4434 11.9927 40.9473 11.6211 41.3188C11.2496 41.6903 10.7458 41.899 10.2204 41.899C9.69498 41.899 9.1911 41.6903 8.81959 41.3188C8.44808 40.9473 8.23937 40.4434 8.23937 39.918V26.106L6.76637 29.163C6.53828 29.6364 6.13148 29.9998 5.63544 30.1733C5.13941 30.3468 4.59478 30.3161 4.12137 30.088C3.64796 29.8599 3.28454 29.4531 3.11107 28.9571C2.9376 28.461 2.96828 27.9164 3.19637 27.443L6.39637 20.802C6.41609 20.7612 6.44014 20.7244 6.46425 20.6874C6.47679 20.6682 6.4894 20.6488 6.50137 20.629C6.65745 20.306 6.90123 20.0335 7.20485 19.8425C7.50847 19.6516 7.85968 19.5498 8.21837 19.549H17.1104C17.5052 19.5491 17.8902 19.6716 18.2126 19.8996C18.5349 20.1275 18.7787 20.4498 18.9104 20.822Z"/>
</mask>
<path d="M31 33.2V32.7C30.8272 32.7 30.6667 32.7892 30.5755 32.9359C30.4842 33.0826 30.4751 33.266 30.5515 33.4209L31 33.2ZM40.5 33.2L40.8789 33.5263C41.0064 33.3782 41.036 33.1693 40.9545 32.9916C40.873 32.8139 40.6955 32.7 40.5 32.7V33.2ZM31.6948 33.4791L31.4485 32.9791L30.5515 33.4209L30.7977 33.9209L31.6948 33.4791ZM31 33.7H40.5V32.7H31V33.7ZM40.1211 32.8737L39.6914 33.3727L40.4491 34.0253L40.8789 33.5263L40.1211 32.8737ZM32.545 17.0773L31.8379 17.7844V17.7844L32.545 17.0773ZM31.2563 13.966L30.2563 13.966V13.966L31.2563 13.966ZM31.9978 11.5215L31.1663 10.9659V10.9659L31.9978 11.5215ZM33.9725 9.90093L34.3552 10.8248L34.3552 10.8248L33.9725 9.90093ZM38.7675 10.8547L38.0604 11.5618V11.5618L38.7675 10.8547ZM39.9717 13.1076L38.9909 13.3027V13.3027L39.9717 13.1076ZM39.7213 15.6498L38.7975 15.2671L38.7975 15.2671L39.7213 15.6498ZM45.1093 27.342L44.2084 27.7762C44.4144 28.2034 44.8921 28.4273 45.3522 28.312L45.1093 27.342ZM41.9183 20.721L40.9757 21.0549C40.9878 21.089 41.0017 21.1225 41.0174 21.1552L41.9183 20.721ZM45.1133 27.341L46.0142 26.907C45.8083 26.4796 45.3305 26.2557 44.8703 26.371L45.1133 27.341ZM45.3065 28.0896L46.3049 28.0333V28.0333L45.3065 28.0896ZM45.1986 28.8551L44.2546 28.525L44.2546 28.525L45.1986 28.8551ZM44.8059 29.521L44.0601 28.8548L44.0601 28.8548L44.8059 29.521ZM44.1883 29.986L44.6223 30.8869L44.6223 30.8869L44.1883 29.986ZM43.4397 30.1792L43.3835 29.1808H43.3835L43.4397 30.1792ZM42.0083 29.6786L41.342 30.4244L41.342 30.4244L42.0083 29.6786ZM41.5433 29.061L40.6423 29.4949L40.6424 29.495L41.5433 29.061ZM40.4973 26.889L41.3982 26.4551C41.1823 26.0066 40.6693 25.7853 40.1949 25.9358C39.7204 26.0864 39.4289 26.5629 39.511 27.0539L40.4973 26.889ZM42.8853 33.699V34.699C43.2399 34.699 43.568 34.5112 43.7476 34.2054C43.9272 33.8995 43.9313 33.5215 43.7586 33.2118L42.8853 33.699ZM40.0703 33.699V32.699C39.518 32.699 39.0703 33.1467 39.0703 33.699H40.0703ZM36.1083 33.699H37.1083C37.1083 33.1467 36.6606 32.699 36.1083 32.699V33.699ZM35.2083 33.699V32.699C34.656 32.699 34.2083 33.1467 34.2083 33.699H35.2083ZM31.2463 39.817L32.2463 39.817V39.817H31.2463ZM31.2463 33.7H32.2463C32.2463 33.1477 31.7986 32.7 31.2463 32.7V33.7ZM28.4323 33.7L27.5589 33.2129C27.3862 33.5226 27.3904 33.9006 27.57 34.2064C27.7496 34.5122 28.0777 34.7 28.4323 34.7V33.7ZM30.8203 26.89L31.8066 27.055C31.8887 26.5641 31.5973 26.0875 31.1229 25.9369C30.6486 25.7863 30.1356 26.0074 29.9195 26.4558L30.8203 26.89ZM29.7733 29.062L28.8724 28.6278L28.8685 28.636L29.7733 29.062ZM29.3106 29.6866L28.6394 28.9453L28.6394 28.9454L29.3106 29.6866ZM28.6432 30.0852L28.3089 29.1427L28.3089 29.1427L28.6432 30.0852ZM27.121 30.0027L26.6868 30.9035L26.6868 30.9036L27.121 30.0027ZM26.004 28.0931L25.0059 28.03L25.0059 28.03L26.004 28.0931ZM26.2043 27.342L27.1012 27.7843L27.1051 27.7761L26.2043 27.342ZM29.4043 20.701L28.5041 20.2654L28.5034 20.2669L29.4043 20.701ZM29.4722 20.5864L30.3098 21.1327L30.3098 21.1327L29.4722 20.5864ZM29.5093 20.528L30.3654 21.0447C30.3814 21.0182 30.3962 20.991 30.4096 20.9631L29.5093 20.528ZM30.2128 19.7415L30.7452 20.588L30.7452 20.588L30.2128 19.7415ZM31.2263 19.448V18.448L31.2239 18.448L31.2263 19.448ZM40.1183 19.448L40.119 18.448H40.1183V19.448ZM41.2204 19.7988L40.6429 20.6152L40.6429 20.6152L41.2204 19.7988ZM9.5371 17.1783L8.82999 17.8854L8.83 17.8854L9.5371 17.1783ZM8.9899 11.6225L8.15844 11.0669L8.15843 11.0669L8.9899 11.6225ZM10.9646 10.0019L11.3472 10.9258H11.3472L10.9646 10.0019ZM15.7596 10.9557L16.4667 10.2486L16.4667 10.2486L15.7596 10.9557ZM22.1014 27.443L21.2005 27.8772C21.3673 28.2231 21.7174 28.443 22.1014 28.443V27.443ZM18.9104 20.822L17.9676 21.1555C17.9798 21.1898 17.9937 21.2234 18.0095 21.2562L18.9104 20.822ZM22.1064 27.443L23.0073 27.009C22.8406 26.663 22.4904 26.443 22.1064 26.443V27.443ZM18.5364 29.163L19.4373 28.729L19.4372 28.7289L18.5364 29.163ZM17.0634 26.106L17.9642 25.6719C17.7617 25.2516 17.2955 25.0272 16.8407 25.1311C16.3859 25.235 16.0634 25.6395 16.0634 26.106H17.0634ZM13.1014 33.8H14.1014C14.1014 33.2477 13.6537 32.8 13.1014 32.8V33.8ZM12.2014 33.8V32.8C11.6491 32.8 11.2014 33.2477 11.2014 33.8H12.2014ZM8.23937 26.106H9.23937C9.23937 25.6395 8.9168 25.235 8.462 25.1311C8.00719 25.0272 7.541 25.2516 7.3385 25.6719L8.23937 26.106ZM6.76637 29.163L5.8655 28.7289L5.86548 28.729L6.76637 29.163ZM4.12137 30.088L3.68733 30.9889H3.68733L4.12137 30.088ZM3.11107 28.9571L2.16713 29.2872L2.16713 29.2872L3.11107 28.9571ZM3.19637 27.443L2.2955 27.0089L2.29548 27.009L3.19637 27.443ZM6.39637 20.802L5.49621 20.3664L5.4955 20.3679L6.39637 20.802ZM6.46425 20.6874L7.30185 21.2337L7.30187 21.2336L6.46425 20.6874ZM6.50137 20.629L7.35754 21.1457C7.37353 21.1192 7.38827 21.092 7.40173 21.0641L6.50137 20.629ZM8.21837 19.549V18.549L8.21602 18.549L8.21837 19.549ZM17.1104 19.549L17.1107 18.549H17.1104V19.549ZM37.9273 8.36767L37.4973 9.27049L37.9273 8.36767ZM33.3853 8.36767L33.8153 9.27049L33.3853 8.36767ZM33.3853 6.20433L33.8153 5.30151L33.3853 6.20433ZM37.9273 6.20433L37.4973 5.30151L37.9273 6.20433ZM36.0863 8.18882L38.3573 7.10716L37.4973 5.30151L35.2263 6.38318L36.0863 8.18882ZM32.9553 7.10716L35.2263 8.18882L36.0863 6.38318L33.8153 5.30151L32.9553 7.10716ZM33.9563 8.09682V6.47518H31.9563V8.09682H33.9563ZM35.2263 6.38318L32.9553 7.46484L33.8153 9.27049L36.0863 8.18882L35.2263 6.38318ZM38.3573 7.46484L36.0863 6.38318L35.2263 8.18882L37.4973 9.27049L38.3573 7.46484ZM37.3563 6.47518V8.09682H39.3563V6.47518H37.3563ZM35.6563 19.366C36.7243 19.366 37.7683 19.0493 38.6564 18.4559L37.5452 16.793C36.9861 17.1666 36.3287 17.366 35.6563 17.366V19.366ZM31.8379 17.7844C32.8506 18.7971 34.2241 19.366 35.6563 19.366V17.366C34.7545 17.366 33.8897 17.0078 33.2521 16.3702L31.8379 17.7844ZM30.2563 13.966C30.2563 15.3982 30.8252 16.7717 31.8379 17.7844L33.2521 16.3702C32.6145 15.7325 32.2563 14.8677 32.2563 13.966L30.2563 13.966ZM31.1663 10.9659C30.573 11.8539 30.2563 12.898 30.2563 13.966L32.2563 13.966C32.2563 13.2935 32.4557 12.6362 32.8293 12.0771L31.1663 10.9659ZM33.5898 8.97705C32.6031 9.38576 31.7597 10.0779 31.1663 10.9659L32.8293 12.0771C33.2029 11.5179 33.7339 11.0821 34.3552 10.8248L33.5898 8.97705ZM36.7098 8.66976C35.6623 8.4614 34.5765 8.56834 33.5898 8.97705L34.3552 10.8248C34.9764 10.5675 35.66 10.5001 36.3196 10.6313L36.7098 8.66976ZM39.4747 10.1476C38.7194 9.39242 37.7573 8.87812 36.7098 8.66976L36.3196 10.6313C36.9791 10.7625 37.5849 11.0863 38.0604 11.5618L39.4747 10.1476ZM40.9525 12.9125C40.7442 11.865 40.2299 10.9028 39.4747 10.1476L38.0604 11.5618C38.5359 12.0373 38.8598 12.6432 38.9909 13.3027L40.9525 12.9125ZM40.6452 16.0325C41.0539 15.0458 41.1609 13.96 40.9525 12.9125L38.9909 13.3027C39.1221 13.9622 39.0548 14.6459 38.7975 15.2671L40.6452 16.0325ZM38.6564 18.4559C39.5444 17.8626 40.2365 17.0192 40.6452 16.0325L38.7975 15.2671C38.5401 15.8884 38.1043 16.4194 37.5452 16.793L38.6564 18.4559ZM46.0101 26.9078L42.8191 20.2868L41.0174 21.1552L44.2084 27.7762L46.0101 26.9078ZM44.8703 26.371L44.8663 26.372L45.3522 28.312L45.3562 28.311L44.8703 26.371ZM46.3049 28.0333C46.2829 27.6424 46.1841 27.2597 46.0142 26.907L44.2124 27.775C44.2683 27.8911 44.3008 28.0171 44.3081 28.1458L46.3049 28.0333ZM46.1425 29.1852C46.2718 28.8156 46.3269 28.4242 46.3049 28.0333L44.3081 28.1458C44.3153 28.2745 44.2972 28.4033 44.2546 28.525L46.1425 29.1852ZM45.5517 30.1872C45.8125 29.8953 46.0133 29.5548 46.1425 29.1852L44.2546 28.525C44.2121 28.6466 44.146 28.7587 44.0601 28.8548L45.5517 30.1872ZM44.6223 30.8869C44.975 30.717 45.2908 30.4792 45.5517 30.1872L44.0601 28.8548C43.9743 28.9509 43.8703 29.0292 43.7542 29.0851L44.6223 30.8869ZM43.496 31.1777C43.8869 31.1556 44.2696 31.0568 44.6223 30.8869L43.7542 29.0851C43.6381 29.141 43.5121 29.1736 43.3835 29.1808L43.496 31.1777ZM42.3441 31.0152C42.7137 31.1445 43.1051 31.1997 43.496 31.1777L43.3835 29.1808C43.2548 29.1881 43.126 29.1699 43.0043 29.1274L42.3441 31.0152ZM41.342 30.4244C41.634 30.6852 41.9745 30.886 42.3441 31.0152L43.0043 29.1274C42.8827 29.0848 42.7706 29.0187 42.6745 28.9329L41.342 30.4244ZM40.6424 29.495C40.8123 29.8478 41.0501 30.1635 41.342 30.4244L42.6745 28.9329C42.5784 28.847 42.5001 28.7431 42.4442 28.627L40.6424 29.495ZM39.5963 27.3229L40.6423 29.4949L42.4442 28.6271L41.3982 26.4551L39.5963 27.3229ZM43.7586 33.2118C42.6338 31.1957 41.8643 29.0011 41.4836 26.7241L39.511 27.0539C39.9295 29.5572 40.7755 31.9698 42.012 34.1862L43.7586 33.2118ZM40.0703 34.699H42.8853V32.699H40.0703V34.699ZM41.0703 39.816V33.699H39.0703V39.816H41.0703ZM40.1972 41.9239C40.7562 41.3648 41.0703 40.6066 41.0703 39.816H39.0703C39.0703 40.0762 38.9669 40.3257 38.7829 40.5097L40.1972 41.9239ZM38.0893 42.797C38.8799 42.797 39.6381 42.4829 40.1972 41.9239L38.7829 40.5097C38.599 40.6936 38.3495 40.797 38.0893 40.797V42.797ZM35.9814 41.9239C36.5404 42.4829 37.2987 42.797 38.0893 42.797V40.797C37.8291 40.797 37.5796 40.6936 37.3956 40.5097L35.9814 41.9239ZM35.1083 39.816C35.1083 40.6066 35.4223 41.3648 35.9814 41.9239L37.3956 40.5097C37.2116 40.3257 37.1083 40.0762 37.1083 39.816H35.1083ZM35.1083 33.699V39.816H37.1083V33.699H35.1083ZM35.2083 34.699H36.1083V32.699H35.2083V34.699ZM36.2083 39.817V33.699H34.2083V39.817H36.2083ZM35.3352 41.9249C35.8942 41.3658 36.2083 40.6076 36.2083 39.817H34.2083C34.2083 40.0772 34.1049 40.3267 33.9209 40.5107L35.3352 41.9249ZM33.2273 42.798C34.0179 42.798 34.7761 42.4839 35.3352 41.9249L33.9209 40.5107C33.737 40.6946 33.4875 40.798 33.2273 40.798V42.798ZM31.1194 41.9249C31.6784 42.4839 32.4367 42.798 33.2273 42.798V40.798C32.9671 40.798 32.7176 40.6946 32.5336 40.5107L31.1194 41.9249ZM30.2463 39.817C30.2463 40.6076 30.5603 41.3658 31.1194 41.9249L32.5336 40.5107C32.3496 40.3267 32.2463 40.0772 32.2463 39.817L30.2463 39.817ZM30.2463 33.7V39.817H32.2463V33.7H30.2463ZM28.4323 34.7H31.2463V32.7H28.4323V34.7ZM29.834 26.725C29.453 29.002 28.6834 31.1966 27.5589 33.2129L29.3056 34.1871C30.5418 31.9706 31.3878 29.5581 31.8066 27.055L29.834 26.725ZM30.6741 29.4962L31.7211 27.3242L29.9195 26.4558L28.8725 28.6278L30.6741 29.4962ZM29.9818 30.4279C30.2736 30.1637 30.5103 29.8442 30.678 29.488L28.8685 28.636C28.8134 28.7532 28.7355 28.8584 28.6394 28.9453L29.9818 30.4279ZM28.9775 31.0277C29.3486 30.896 29.6899 30.6922 29.9818 30.4279L28.6394 28.9454C28.5434 29.0323 28.431 29.0994 28.3089 29.1427L28.9775 31.0277ZM27.8197 31.1948C28.2129 31.2161 28.6064 31.1593 28.9775 31.0277L28.3089 29.1427C28.1868 29.186 28.0573 29.2047 27.9279 29.1977L27.8197 31.1948ZM26.6868 30.9036C27.0415 31.0745 27.4266 31.1735 27.8197 31.1948L27.9279 29.1977C27.7985 29.1907 27.6718 29.1581 27.5551 29.1019L26.6868 30.9036ZM25.7532 30.1988C26.0148 30.4931 26.3321 30.7326 26.6868 30.9035L27.5551 29.1019C27.4384 29.0456 27.334 28.9668 27.2479 28.87L25.7532 30.1988ZM25.1626 29.1892C25.2908 29.5614 25.4916 29.9046 25.7532 30.1988L27.2479 28.87C27.1618 28.7731 27.0957 28.6602 27.0535 28.5377L25.1626 29.1892ZM25.0059 28.03C24.9811 28.4229 25.0343 28.8169 25.1626 29.1892L27.0535 28.5377C27.0113 28.4152 26.9938 28.2855 27.002 28.1562L25.0059 28.03ZM25.3074 26.8997C25.1333 27.2529 25.0308 27.637 25.0059 28.03L27.002 28.1562C27.0101 28.0269 27.0439 27.9005 27.1012 27.7843L25.3074 26.8997ZM28.5034 20.2669L25.3034 26.9079L27.1051 27.7761L30.3051 21.1351L28.5034 20.2669ZM28.6346 20.0401C28.6156 20.0692 28.556 20.1581 28.5041 20.2654L30.3044 21.1366C30.2966 21.1528 30.2909 21.1621 30.2915 21.1611C30.2917 21.1606 30.293 21.1585 30.2962 21.1536C30.2996 21.1483 30.3034 21.1425 30.3098 21.1327L28.6346 20.0401ZM28.6531 20.0113C28.653 20.0115 28.6518 20.0135 28.6486 20.0185C28.6451 20.0239 28.6412 20.0299 28.6346 20.0401L30.3098 21.1327C30.3208 21.1158 30.343 21.082 30.3654 21.0447L28.6531 20.0113ZM29.6803 18.8951C29.2179 19.1859 28.8466 19.601 28.6089 20.0929L30.4096 20.9631C30.4841 20.8091 30.6004 20.6791 30.7452 20.588L29.6803 18.8951ZM31.2239 18.448C30.6776 18.4493 30.1427 18.6042 29.6803 18.8951L30.7452 20.588C30.89 20.4969 31.0575 20.4484 31.2286 20.448L31.2239 18.448ZM40.1183 18.448H31.2263V20.448H40.1183V18.448ZM41.7978 18.9823C41.3068 18.6351 40.7203 18.4484 40.119 18.448L40.1176 20.448C40.3058 20.4481 40.4893 20.5065 40.6429 20.6152L41.7978 18.9823ZM42.8609 20.3871C42.6601 19.8203 42.2887 19.3295 41.7978 18.9823L40.6429 20.6152C40.7966 20.7239 40.9128 20.8775 40.9757 21.0549L42.8609 20.3871ZM12.6484 19.467C13.7164 19.467 14.7604 19.1503 15.6485 18.5569L14.5373 16.894C13.9782 17.2676 13.3208 17.467 12.6484 17.467V19.467ZM8.83 17.8854C9.84269 18.8981 11.2162 19.467 12.6484 19.467V17.467C11.7466 17.467 10.8818 17.1088 10.2442 16.4712L8.83 17.8854ZM7.24837 14.067C7.24837 15.4992 7.8173 16.8727 8.82999 17.8854L10.2442 16.4712C9.60658 15.8335 9.24837 14.9687 9.24837 14.067H7.24837ZM8.15843 11.0669C7.56507 11.9549 7.24837 12.999 7.24837 14.067H9.24837C9.24837 13.3945 9.44778 12.7372 9.82137 12.1781L8.15843 11.0669ZM10.5819 9.07804C9.59516 9.48676 8.75179 10.1789 8.15844 11.0669L9.82137 12.1781C10.195 11.6189 10.726 11.1831 11.3472 10.9258L10.5819 9.07804ZM13.7019 8.77075C12.6544 8.56239 11.5686 8.66933 10.5819 9.07805L11.3472 10.9258C11.9685 10.6685 12.6521 10.6011 13.3117 10.7323L13.7019 8.77075ZM16.4667 10.2486C15.7115 9.49341 14.7494 8.97911 13.7019 8.77075L13.3117 10.7323C13.9712 10.8635 14.577 11.1873 15.0525 11.6628L16.4667 10.2486ZM17.9446 13.0135C17.7362 11.966 17.2219 11.0038 16.4667 10.2486L15.0525 11.6628C15.528 12.1383 15.8519 12.7442 15.983 13.4037L17.9446 13.0135ZM17.6373 16.1335C18.046 15.1468 18.153 14.061 17.9446 13.0135L15.983 13.4037C16.1142 14.0632 16.0469 14.7468 15.7896 15.3681L17.6373 16.1335ZM15.6485 18.5569C16.5365 17.9636 17.2286 17.1202 17.6373 16.1335L15.7896 15.3681C15.5322 15.9894 15.0964 16.5204 14.5373 16.894L15.6485 18.5569ZM23.0022 27.0088L19.8112 20.3878L18.0095 21.2562L21.2005 27.8772L23.0022 27.0088ZM22.1064 26.443H22.1014V28.443H22.1064V26.443ZM23.298 28.1353C23.276 27.7444 23.1772 27.3617 23.0073 27.009L21.2055 27.877C21.2614 27.9931 21.2939 28.1191 21.3012 28.2478L23.298 28.1353ZM23.1356 29.2872C23.2649 28.9176 23.32 28.5262 23.298 28.1353L21.3012 28.2478C21.3084 28.3765 21.2903 28.5053 21.2477 28.627L23.1356 29.2872ZM22.5448 30.2892C22.8056 29.9972 23.0064 29.6567 23.1356 29.2872L21.2477 28.627C21.2052 28.7486 21.1391 28.8607 21.0532 28.9568L22.5448 30.2892ZM21.6154 30.9889C21.9681 30.8189 22.2839 30.5812 22.5448 30.2892L21.0532 28.9568C20.9674 29.0529 20.8634 29.1312 20.7473 29.1871L21.6154 30.9889ZM20.4891 31.2796C20.88 31.2576 21.2627 31.1588 21.6154 30.9889L20.7473 29.1871C20.6312 29.243 20.5052 29.2756 20.3766 29.2828L20.4891 31.2796ZM19.3372 31.1172C19.7068 31.2465 20.0982 31.3017 20.4891 31.2796L20.3766 29.2828C20.2479 29.2901 20.1191 29.2719 19.9974 29.2293L19.3372 31.1172ZM18.3351 30.5264C18.6271 30.7872 18.9676 30.988 19.3372 31.1172L19.9974 29.2293C19.8758 29.1868 19.7637 29.1207 19.6676 29.0349L18.3351 30.5264ZM17.6355 29.597C17.8054 29.9498 18.0432 30.2655 18.3351 30.5264L19.6676 29.0349C19.5715 28.949 19.4932 28.8451 19.4373 28.729L17.6355 29.597ZM16.1625 26.5401L17.6355 29.5971L19.4372 28.7289L17.9642 25.6719L16.1625 26.5401ZM18.0634 39.917V26.106H16.0634V39.917H18.0634ZM17.1903 42.0249C17.7493 41.4658 18.0634 40.7076 18.0634 39.917H16.0634C16.0634 40.1772 15.96 40.4267 15.776 40.6107L17.1903 42.0249ZM15.0824 42.898C15.873 42.898 16.6312 42.5839 17.1903 42.0249L15.776 40.6107C15.5921 40.7946 15.3426 40.898 15.0824 40.898V42.898ZM12.9745 42.0249C13.5335 42.5839 14.2918 42.898 15.0824 42.898V40.898C14.8222 40.898 14.5727 40.7946 14.3887 40.6107L12.9745 42.0249ZM12.1014 39.917C12.1014 40.7076 12.4154 41.4658 12.9745 42.0249L14.3887 40.6107C14.2047 40.4267 14.1014 40.1772 14.1014 39.917H12.1014ZM12.1014 33.8V39.917H14.1014V33.8H12.1014ZM12.2014 34.8H13.1014V32.8H12.2014V34.8ZM13.2014 39.918V33.8H11.2014V39.918H13.2014ZM12.3283 42.0259C12.8873 41.4668 13.2014 40.7086 13.2014 39.918H11.2014C11.2014 40.1782 11.098 40.4277 10.914 40.6117L12.3283 42.0259ZM10.2204 42.899C11.011 42.899 11.7692 42.5849 12.3283 42.0259L10.914 40.6117C10.7301 40.7956 10.4806 40.899 10.2204 40.899V42.899ZM8.11248 42.0259C8.67153 42.5849 9.42976 42.899 10.2204 42.899V40.899C9.96019 40.899 9.71067 40.7956 9.5267 40.6117L8.11248 42.0259ZM7.23937 39.918C7.23937 40.7086 7.55344 41.4668 8.11248 42.0259L9.5267 40.6117C9.34273 40.4277 9.23937 40.1782 9.23937 39.918H7.23937ZM7.23937 26.106V39.918H9.23937V26.106H7.23937ZM7.66724 29.5971L9.14024 26.5401L7.3385 25.6719L5.8655 28.7289L7.66724 29.5971ZM5.96556 31.1172C6.71194 30.8562 7.32406 30.3094 7.66726 29.597L5.86548 28.729C5.75251 28.9634 5.55102 29.1434 5.30533 29.2293L5.96556 31.1172ZM3.68733 30.9889C4.39967 31.3321 5.21917 31.3783 5.96556 31.1172L5.30533 29.2293C5.05965 29.3153 4.78989 29.3001 4.55541 29.1871L3.68733 30.9889ZM2.16713 29.2872C2.42815 30.0336 2.97498 30.6457 3.68733 30.9889L4.55541 29.1871C4.32093 29.0741 4.14094 28.8726 4.05501 28.627L2.16713 29.2872ZM2.29548 27.009C1.95228 27.7213 1.90611 28.5408 2.16713 29.2872L4.05502 28.627C3.96909 28.3813 3.98429 28.1115 4.09726 27.877L2.29548 27.009ZM5.4955 20.3679L2.2955 27.0089L4.09724 27.8771L7.29724 21.2361L5.4955 20.3679ZM5.62665 20.1411C5.60768 20.1702 5.54812 20.2592 5.49621 20.3664L7.29653 21.2376C7.28867 21.2538 7.28295 21.2631 7.28355 21.2621C7.28382 21.2616 7.28513 21.2595 7.28827 21.2546C7.29166 21.2493 7.29545 21.2435 7.30185 21.2337L5.62665 20.1411ZM5.6452 20.1123C5.6452 20.1123 5.64511 20.1124 5.64493 20.1127C5.64474 20.1131 5.64447 20.1135 5.64409 20.1141C5.64332 20.1153 5.64222 20.1171 5.64066 20.1195C5.6372 20.1249 5.63331 20.1309 5.62663 20.1411L7.30187 21.2336C7.31283 21.2168 7.33505 21.183 7.35754 21.1457L5.6452 20.1123ZM6.67241 18.9961C6.21 19.2869 5.83872 19.702 5.60101 20.1939L7.40173 21.0641C7.47618 20.9101 7.59246 20.7801 7.73728 20.689L6.67241 18.9961ZM8.21602 18.549C7.66974 18.5503 7.13483 18.7052 6.67241 18.9961L7.73728 20.689C7.8821 20.5979 8.04963 20.5494 8.22072 20.549L8.21602 18.549ZM17.1104 18.549H8.21837V20.549H17.1104V18.549ZM18.79 19.0831C18.2989 18.7358 17.7122 18.5492 17.1107 18.549L17.11 20.549C17.2981 20.5491 17.4816 20.6074 17.6352 20.716L18.79 19.0831ZM19.8531 20.4885C19.6525 19.9214 19.2811 19.4304 18.79 19.0831L17.6352 20.716C17.7887 20.8246 17.9049 20.9782 17.9676 21.1555L19.8531 20.4885ZM37.4973 9.27049C38.36 9.68139 39.3563 9.05237 39.3563 8.09682H37.3563C37.3563 7.58229 37.8928 7.24359 38.3573 7.46484L37.4973 9.27049ZM31.9563 8.09682C31.9563 9.05238 32.9526 9.68139 33.8153 9.27049L32.9553 7.46484C33.4198 7.24359 33.9563 7.58229 33.9563 8.09682H31.9563ZM33.8153 5.30151C32.9526 4.89061 31.9563 5.51963 31.9563 6.47518H33.9563C33.9563 6.98971 33.4198 7.32841 32.9553 7.10716L33.8153 5.30151ZM38.3573 7.10716C37.8928 7.32841 37.3563 6.98971 37.3563 6.47518H39.3563C39.3563 5.51963 38.36 4.89061 37.4973 5.30151L38.3573 7.10716Z" fill="black" mask="url(#path-1-inside-1)"/>
</svg>
