<svg width="48" height="48" viewBox="0 0 48 48" fill="none" xmlns="http://www.w3.org/2000/svg">
<g clip-path="url(#clip0)">
<path fill-rule="evenodd" clip-rule="evenodd" d="M-0.0332031 0V48H47.9668V0H-0.0332031ZM24.002 4.04492C25.1665 4.04492 26.282 4.50659 27.1055 5.33008C27.929 6.15356 28.3926 7.27097 28.3926 8.43555C28.3926 9.60013 27.929 10.7156 27.1055 11.5391C26.282 12.3626 25.1665 12.8262 24.002 12.8262C22.8374 12.8262 21.72 12.3626 20.8965 11.5391C20.073 10.7156 19.6094 9.60013 19.6094 8.43555C19.6094 7.27097 20.073 6.15356 20.8965 5.33008C21.72 4.50659 22.8374 4.04492 24.002 4.04492ZM17.2441 7.82031L18.1855 8.6582L17.6445 9.7832C17.8675 9.92112 18.028 10.0022 18.2285 10.168L17.2266 10.0664L17.8906 8.69922L17.0254 7.89844L17.2441 7.82031ZM30.707 8.07227L30.9258 8.15234L30.0605 8.95312L30.7246 10.3203L29.7246 10.4199C29.9251 10.2542 30.0856 10.175 30.3086 10.0371L29.7656 8.91211L30.707 8.07227ZM16.0078 9.51953L16.6484 10.877L18.5625 10.5918L18.3027 11.8457C18.1783 11.5391 18.1407 11.3135 18.0586 10.9902L16.4863 11.2168L15.8262 9.75586L16.0078 9.51953ZM31.9453 9.77344L32.125 10.0098L31.4648 11.4688L29.8945 11.2441C29.8124 11.5674 29.7748 11.791 29.6504 12.0977L29.3906 10.8457L31.3027 11.1309L31.9453 9.77344ZM17.25 11.8066L17.7227 12.7422C17.4864 12.6092 17.3484 12.4835 17.1309 12.3184L16.2383 13.2656L15.0703 12.666L15.0664 12.4238L16.1699 12.9648L17.25 11.8066ZM30.7012 12.0605L31.7832 13.2188L32.8848 12.6758L32.8809 12.9199L31.7148 13.5195L30.8203 12.5723C30.6028 12.7375 30.4667 12.8632 30.2305 12.9961L30.7012 12.0605ZM21.0293 13.0547C21.9971 13.1028 22.926 13.2464 23.9629 13.3262C28.2364 13.1837 30.6511 11.752 30.3613 18.6699C30.3148 18.4988 29.9368 17.9702 29.457 17.8066L28.2578 17.4688L27.916 16.457C27.9077 16.4324 27.8801 16.4194 27.8555 16.4277L27.8379 16.4336C27.8133 16.4419 27.8003 16.4676 27.8086 16.4922L28.127 17.4336L26.9434 17.0996C26.9369 16.9932 26.9204 16.886 26.8906 16.7793C26.6654 15.9711 25.8374 15.5149 25.0332 15.7539L23.6699 16.1582L22.3789 15.7871C21.5876 15.5594 20.7668 16.0134 20.5391 16.8047C20.5102 16.9049 20.494 17.0055 20.4863 17.1055C20.1318 17.2095 19.774 17.2949 19.418 17.3867L19.7188 16.5C19.7271 16.4754 19.714 16.4497 19.6895 16.4414L19.6699 16.4355C19.6453 16.4272 19.6196 16.4403 19.6113 16.4648L19.2871 17.4219C18.8204 17.5442 18.3562 17.6787 17.8984 17.873C17.2158 18.3402 17.2778 18.7866 17.2402 18.8145L17.0859 18.2246C17.1127 13.8086 18.8607 13.028 21.0293 13.0547ZM22.1465 15.8535C22.2369 15.8607 22.3273 15.8782 22.418 15.9043L29.1035 17.8281C29.9858 18.0817 30.5584 19.0109 30.3496 19.7363C30.1409 20.4618 29.3353 20.729 28.3496 20.4453L21.6641 18.5215C20.9386 18.3127 20.5237 17.5614 20.7324 16.8359C20.9151 16.2012 21.5137 15.8032 22.1465 15.8535ZM25.3535 15.875C25.9863 15.8247 26.5849 16.2207 26.7676 16.8555C26.7871 16.9234 26.7959 16.9926 26.8047 17.0605L23.9668 16.2441L25.082 15.9238C25.1727 15.8977 25.2631 15.8822 25.3535 15.875ZM13.543 16.4258L14.9961 17.7168L14.1602 19.4531C14.5041 19.6658 14.7532 19.7893 15.0625 20.0449L13.5156 19.8887L14.541 17.7812L13.207 16.5449L13.543 16.4258ZM34.3066 16.8145L34.6426 16.9375L33.3086 18.1719L34.334 20.2812L32.791 20.4336C33.1003 20.178 33.3475 20.0564 33.6914 19.8438L32.8535 18.1094L34.3066 16.8145ZM20.4883 17.2461C20.5004 17.8807 20.9132 18.4574 21.5566 18.6426L23.5234 19.209L19.1504 20.4668C18.425 20.6756 17.6716 20.2586 17.4629 19.5332C17.2541 18.8078 17.6691 18.0564 18.3945 17.8477L20.4883 17.2461ZM11.6367 19.0449L12.625 21.1387L15.5762 20.6992L15.1758 22.6328C14.9839 22.1599 14.9254 21.8129 14.7988 21.3145L12.375 21.6641L11.3574 19.4102L11.6367 19.0449ZM23.6934 19.2773C25.7768 19.8789 26.2748 20.0371 28.4258 20.666V42.0137C28.4258 43.109 27.5445 43.9922 26.4492 43.9922C25.3538 43.9922 24.4727 43.109 24.4727 42.0137V30.3867H23.5176V42.0137C23.5176 43.109 22.6363 43.9922 21.541 43.9922C20.4457 43.9922 19.5664 43.109 19.5664 42.0137V20.4648C20.9534 20.0717 22.8036 19.5679 23.6934 19.2773ZM36.2148 19.4375L36.4922 19.8008L35.4746 22.0508L33.0527 21.7051C32.9261 22.2036 32.8677 22.5486 32.6758 23.0215L32.2754 21.0918L35.2246 21.5312L36.2148 19.4375ZM13.5527 22.5723L14.2812 24.0156C13.9169 23.8106 13.7047 23.6161 13.3691 23.3613L11.9922 24.8223L10.1914 23.8984L10.1855 23.5254L11.8867 24.3594L13.5527 22.5723ZM34.2969 22.9648L35.9648 24.75L37.6641 23.9141L37.6582 24.2891L35.8594 25.2148L34.4805 23.7539C34.145 24.0087 33.9346 24.2012 33.5703 24.4062L34.2969 22.9648Z" fill="#333333"/>
</g>
<defs>
<clipPath id="clip0">
<rect width="48" height="48" fill="white"/>
</clipPath>
</defs>
</svg>
