<?xml version="1.0" encoding="UTF-8" standalone="no"?>
<!-- Created with Inkscape (http://www.inkscape.org/) -->
<svg id="svg8" xmlns:rdf="http://www.w3.org/1999/02/22-rdf-syntax-ns#" xmlns="http://www.w3.org/2000/svg" xmlns:osb="http://www.openswatchbook.org/uri/2009/osb" height="48" width="48" version="1.1" xmlns:cc="http://creativecommons.org/ns#" viewBox="0 0 12.7 12.7" xmlns:dc="http://purl.org/dc/elements/1.1/">
 <title id="title4753">UIO-icon</title>
 <metadata id="metadata5">
  <rdf:RDF>
   <cc:Work rdf:about="">
    <dc:format>image/svg+xml</dc:format>
    <dc:type rdf:resource="http://purl.org/dc/dcmitype/StillImage"/>
    <dc:title>UIO-icon</dc:title>
    <dc:creator>
     <cc:Agent>
      <dc:title>Joaquín Urbano</dc:title>
     </cc:Agent>
    </dc:creator>
    <dc:rights>
     <cc:Agent>
      <dc:title>GPL</dc:title>
     </cc:Agent>
    </dc:rights>
   </cc:Work>
  </rdf:RDF>
 </metadata>
 <g id="layer1" transform="translate(0,-284.3)" fill="#333">
  <path id="rect1844" d="m29.453 4c-1.407 0-2.539 1.1155-2.539 2.502v0.7734 0.0566 2.502h2.539 2.541v-0.8281h5.151 4.289 2.541v-2.5039-2.502h-2.541-4.289-7.692zm-3.494 6.227c-0.546 0-0.986 0.433-0.986 0.97v1.651c0 0.537 0.44 0.97 0.986 0.97h6.662c0.546 0 0.984-0.433 0.984-0.97v-1.651c0-0.537-0.438-0.97-0.984-0.97h-6.662zm-10.797 3.613c-6.1646-0.001-11.162 4.871-11.162 10.879 0.0003 6.008 4.9974 10.877 11.162 10.877 5.09-0.005 9.533-3.364 10.801-8.168 0.795 0.919 1.846 1.492 3.01 1.492 2.471 0.001 4.475-2.526 4.474-5.645 0.001-3.118-4.257-8.7-4.508-8.453 0 0-2.294 2.774-3.582 5.49-1.786-3.931-5.782-6.468-10.195-6.472zm0 1.805c5.141 0 9.31 4.063 9.311 9.074-0.001 5.011-4.17 9.071-9.311 9.072-5.142 0-9.3102-4.061-9.3104-9.072 0.0002-5.012 4.1684-9.075 9.3104-9.074zm0.055 1.88c-0.461-0.053-0.963 0.188-1.264 0.649-2.053 1.992-4.9066 6.341-2.531 6.832 0.461 0.054 0.961-0.185 1.262-0.647 0.694-2.181 1.876-3.68 3.224-4.949 0.401-0.615 0.29-1.388-0.252-1.73-0.135-0.086-0.286-0.137-0.439-0.155zm4.82 0.512c-0.225-0.013-0.463 0.055-0.713 0.225-0.358 0.291-0.528 0.813-0.396 1.345 1.124 2 1.411 3.878 1.414 5.715 0.175 0.71 0.821 1.162 1.447 1.012s0.988-0.845 0.813-1.555c-0.042-2.483-0.99-6.647-2.565-6.742zm11.127 2.379c2.849 2.597 0.023 8.223-1.701 7.227-0.203-0.186-0.456-0.426-0.391-0.846 0.224-0.925 3.181-0.986 2.092-6.381zm-14.883 1.4c-0.353 0.04-0.706 0.236-0.957 0.565-0.857 2.124-2.149 3.532-3.59 4.699-0.446 0.584-0.391 1.363 0.123 1.744 0.515 0.382 1.289 0.217 1.735-0.367 2.197-1.836 5.373-5.965 3.041-6.629-0.114-0.022-0.234-0.025-0.352-0.012zm-8.5466 0.959c-0.0779 0.006-0.1559 0.021-0.2324 0.045-0.6126 0.196-0.92 0.915-0.6915 1.61 0.2625 2.826 1.8683 7.758 3.7595 6.259 0.335-0.316 0.465-0.849 0.293-1.371-1.2719-1.912-1.7-3.764-1.8415-5.595-0.1717-0.522-0.5951-0.878-1.0547-0.942-0.0766-0.01-0.1546-0.012-0.2324-0.006zm19.389 7.106s-2.195 2.639-2.195 4.181c0 1.543 0.991 2.791 2.213 2.792 1.222 0 2.211-1.249 2.211-2.792 0-1.542-2.105-4.303-2.229-4.181zm1.191 2.492c1.579 1.439 0.014 4.556-0.941 4.004-0.112-0.103-0.251-0.236-0.215-0.469 0.124-0.512 1.76-0.545 1.156-3.535zm3.262 6.039s-1.76 2.114-1.76 3.35c0 1.235 0.793 2.238 1.772 2.238s1.773-1.002 1.773-2.238-1.685-3.448-1.785-3.35zm0.85 1.889c1.526 1.211 0.015 3.836-0.908 3.371-0.109-0.087-0.247-0.197-0.211-0.393 0.119-0.431 1.702-0.462 1.119-2.978z" transform="matrix(.26458 0 0 .26458 0 284.3)"/>
 </g>
</svg>
