<svg width="48" height="48" viewBox="0 0 48 48" fill="none" xmlns="http://www.w3.org/2000/svg">
<path d="M25.0259 33.2298C25.0325 33.7821 25.4854 34.2245 26.0377 34.2179C26.5899 34.2114 27.0323 33.7585 27.0258 33.2062C27.018 32.5478 27.5455 32.0077 28.204 31.9999C28.7562 31.9934 29.1986 31.5404 29.1921 30.9882C29.1856 30.4359 28.7326 29.9935 28.1803 30C26.4174 30.0209 25.0051 31.4669 25.0259 33.2298Z" fill="#333333"/>
<path d="M31 32C31 31.4477 31.4477 31 32 31C33.6569 31 35 32.3431 35 34C35 34.5523 34.5523 35 34 35C33.4477 35 33 34.5523 33 34C33 33.4477 32.5523 33 32 33C31.4477 33 31 32.5523 31 32Z" fill="#333333"/>
<path d="M28.8257 40.1181C29.3652 39.9997 29.7065 39.4664 29.5881 38.9269C29.4697 38.3875 28.9364 38.0462 28.3969 38.1646C27.7537 38.3058 27.1179 37.8989 26.9767 37.2557C26.8583 36.7162 26.325 36.3749 25.7855 36.4933C25.2461 36.6118 24.9048 37.1451 25.0232 37.6845C25.4012 39.4066 27.1037 40.4961 28.8257 40.1181Z" fill="#333333"/>
<path d="M35 38C35 38.5523 34.5523 39 34 39C33.4477 39 33 38.5523 33 38C33 37.4477 33.4477 37 34 37C34.5523 37 35 37.4477 35 38Z" fill="#333333"/>
<path d="M31 29C31.5523 29 32 28.5523 32 28C32 27.4477 31.5523 27 31 27C30.4477 27 30 27.4477 30 28C30 28.5523 30.4477 29 31 29Z" fill="#333333"/>
<path d="M31 35C31 35.5523 30.5523 36 30 36C29.4477 36 29 35.5523 29 35C29 34.4477 29.4477 34 30 34C30.5523 34 31 34.4477 31 35Z" fill="#333333"/>
<path fill-rule="evenodd" clip-rule="evenodd" d="M0 0H48V48H0V0ZM24 4H10V12H25C25.5523 12 26 12.4477 26 13V14H34C34 8.47715 29.5228 4 24 4ZM36 16H24V20H36V16ZM30 44C34.4183 44 38 40.4183 38 36C38 29 30 22 30 22C30 22 22 29 22 36C22 40.4183 25.5817 44 30 44Z" fill="#333333"/>
</svg>
