<svg width="48" height="48" viewBox="0 0 48 48" fill="none" xmlns="http://www.w3.org/2000/svg">
<path d="M23.1928 4.00008V5.53526H21.6303V5.85557H21.6342V6.50595H21.6303V6.82626H23.1928V10.6211L14.4077 17.9472H16.3452L17.1655 17.2558L17.1694 28.2327L24.0189 22.5686L30.675 28.0256L30.6691 17.1197L31.6535 17.9478H33.589L24.8059 10.6237V6.82597H26.3645V5.53498H24.8075V3.9998L24.4872 4.00176V3.99976H23.5142L23.1928 4.00008ZM24.2888 4.50398V6.03916H25.8473L25.8552 6.31454H24.2962L24.2981 10.6231L24.4798 11.0137L32.2277 17.4706L31.8737 17.4696L30.1507 16.0786L30.1587 26.9385L24.5948 22.3816L24.0458 21.9026L23.4618 22.3616L17.6749 27.1545L17.6729 16.7426L17.6849 16.1546L16.1809 17.4386H15.8137L23.5186 11.0127L23.7056 10.6257L23.7016 6.31716L22.1466 6.32306L22.1396 6.04767H23.7021V4.51249L24.2888 4.50398ZM23.7419 13.6211C22.2561 13.9597 20.8144 14.2656 20.3103 17.0722V17.5859C20.6682 19.769 21.9124 20.7809 23.7419 21.0213H24.2499C26.0047 20.7827 27.3544 19.9367 27.701 17.5859V17.0719C27.354 14.7079 25.9731 13.9059 24.2501 13.6209L23.7419 13.6211ZM23.7419 14.1347V17.0722H20.8181C20.9414 15.5089 22.1792 14.2652 23.7419 14.1347ZM24.2556 14.1347C25.8235 14.2589 27.0688 15.5042 27.193 17.0722H24.2556V14.1347ZM20.8181 17.5859H23.7419V20.5077C22.1846 20.3783 20.9486 19.1431 20.8181 17.5859ZM24.2556 17.5859H27.191C27.0606 19.1479 25.818 20.3855 24.2556 20.5096V17.5859ZM23.9977 23.496L17.1697 29.1521L11.3827 33.9607L11.0741 34.2165L6.02148 38.4079H7.95506L11.0741 35.7849V43.9998H13.6796V35.289C13.6909 34.0718 14.6543 33.4654 15.6132 33.4667C16.572 33.4681 17.5263 34.0773 17.5233 35.289V43.9999H19.8113L19.8003 33.365C19.8003 30.0126 21.9368 29.0018 24.0269 29.0038C26.1168 29.0057 28.1987 30.0339 28.1987 33.3279L28.1897 43.9998H30.4729V35.289C30.4842 34.0718 31.4476 33.4654 32.4065 33.4667C33.3653 33.4681 34.3196 34.0773 34.3166 35.289V43.9999H36.4516V35.3887L40.0434 38.4082H41.9769L30.6741 29.0313V29.0253L23.9977 23.496ZM23.9998 24.16L40.5585 37.8938H40.2304L35.9336 34.2884L35.9394 43.4856H34.8321L34.834 35.183C34.685 33.62 33.44 33.026 32.589 32.953H32.2687C30.6853 33.1213 30.1361 34.0203 29.9622 35.1835L29.9602 43.4803H28.6985L28.7083 33.2614C28.5987 29.809 26.77 28.6614 24.2142 28.488H23.8939C20.8931 28.6559 19.3709 30.2602 19.2866 33.2614L19.2983 43.4863H18.0366L18.0347 35.1837C17.9203 33.6538 17.0372 33.0689 15.7769 32.9493H15.4566C14.4589 33.0102 13.2095 33.6761 13.1617 35.1837L13.1656 43.4863H11.5876L11.5926 34.6874L7.7681 37.8943H7.43998L23.9998 24.16Z" fill="#333333"/>
</svg>
