<svg width="48" height="48" viewBox="0 0 48 48" fill="none" xmlns="http://www.w3.org/2000/svg">
<path d="M23.1928 4.00008V5.53526H21.6303V5.85557H21.6343V6.50595H21.6303V6.82626H23.1928V10.6211L14.4077 17.9472H16.3452L17.1655 17.2558L17.1694 28.2327L24.0189 22.5686L30.675 28.0256L30.6692 17.1197L31.6536 17.9478H33.589L24.8059 10.6237V6.82597H26.3645V5.53498H24.8075V3.9998L24.4872 4.00176V3.99976H23.5146L23.1928 4.00008ZM23.7416 14.135V17.0724H20.8179C20.9411 15.5091 22.179 14.2655 23.7416 14.135ZM24.2553 14.135C25.8233 14.2591 27.0686 15.5044 27.1928 17.0724H24.2553V14.135ZM20.8179 17.5861H23.7416V20.508C22.1843 20.3785 20.9484 19.1433 20.8179 17.5861ZM24.2553 17.5861H27.1908C27.0604 19.1481 25.8178 20.3858 24.2553 20.5099V17.5861ZM23.9975 23.4962L17.1695 29.1524L11.3825 33.9609L11.0739 34.2168L6.02124 38.4081H7.95482L11.0739 35.7851V44H13.6793V35.2892C13.6906 34.0721 14.6541 33.4657 15.6129 33.467C16.5718 33.4683 17.5261 34.0775 17.5231 35.2892V44.0001H19.8111L19.8001 33.3653C19.8001 30.0128 21.9365 29.002 24.0266 29.004C26.1166 29.006 28.1985 30.0341 28.1985 33.3282L28.1895 44H30.4726V35.2892C30.4839 34.0721 31.4473 33.4657 32.4062 33.467C33.3651 33.4683 34.3194 34.0775 34.3164 35.2892V44.0001H36.4514V35.3889L40.0431 38.4084H41.9767L30.6738 29.0315V29.0257L23.9975 23.4962Z" fill="#333333"/>
</svg>
