<svg width="48" height="48" viewBox="0 0 48 48" fill="none" xmlns="http://www.w3.org/2000/svg">
<path fill-rule="evenodd" clip-rule="evenodd" d="M48 0H0V48H48V0ZM23 6V9H20V11H23V13.6429L17.7778 17C17.7778 17 17 17.5 17 18.5V42H21V33C21 31.3431 22.3431 30 24 30C25.6569 30 27 31.3431 27 33V42H31V18.5C31 17.5 30.2222 17 30.2222 17L25 13.6429V11H28V9H25V6H23ZM7.5 26.5C6.53902 26.7782 6 27.5797 6 28.5V42H15V24L7.5 26.5ZM42 28.5C42 27.5797 41.461 26.7782 40.5 26.5L33 24V42H42V28.5Z" fill="#333333"/>
</svg>
