<svg width="48" height="48" viewBox="0 0 48 48" fill="none" xmlns="http://www.w3.org/2000/svg">
<path fill-rule="evenodd" clip-rule="evenodd" d="M0 0V47.9994H47.9994V0H0ZM23.9997 8.037C26.096 8.037 28.1717 8.44989 30.1084 9.25209C32.0451 10.0543 33.8048 11.2301 35.2871 12.7124C36.7694 14.1947 37.9452 15.9544 38.7474 17.8911C39.5496 19.8278 39.9625 21.9035 39.9625 23.9998C39.9625 26.0961 39.5496 28.1718 38.7474 30.1085C37.9452 32.0452 36.7694 33.8049 35.2871 35.2872C33.8048 36.7695 32.0451 37.9453 30.1084 38.7475C28.1717 39.5497 26.096 39.9626 23.9997 39.9626C19.7661 39.9626 15.7059 38.2808 12.7123 35.2872C9.71869 32.2936 8.0369 28.2334 8.0369 23.9998C8.0369 19.7662 9.71869 15.706 12.7123 12.7124C15.7059 9.71879 19.7661 8.037 23.9997 8.037Z" fill="#333333"/>
</svg>
