<svg width="48" height="48" viewBox="0 0 48 48" fill="none" xmlns="http://www.w3.org/2000/svg">
<path fill-rule="evenodd" clip-rule="evenodd" d="M48 0H0V48H48V0ZM32 16C32 20.42 28.42 24 24 24C19.58 24 16 20.42 16 16C16 11.58 19.58 8 24 8C28.42 8 32 11.58 32 16ZM18.7781 29.3713C18.5752 28.9585 18.1168 28.7355 17.6699 28.8445C12.8662 30.0163 8 32.4056 8 36V40H40V36C40 32.4056 35.1338 30.0163 30.3301 28.8445C29.8832 28.7355 29.4248 28.9585 29.2219 29.3713L25.6093 36.7244L25.0799 32.2854C25.0427 31.9729 25.2774 31.7226 25.5 31.5001C26 31.0001 26 29.0002 25.5 28.5001C25.3398 28.3398 25.0255 28.3849 24.6559 28.438C24.4489 28.4678 24.2244 28.5 24 28.5C23.7755 28.5 23.5511 28.4678 23.344 28.4381C22.9744 28.385 22.6602 28.3398 22.5 28.5001C22 29.0001 22 31.0001 22.5 31.5001C22.7211 31.7211 22.9579 31.9642 22.9209 32.2746L22.3905 36.7241L18.7781 29.3713Z" fill="#333333"/>
</svg>
