<svg width="48" height="48" viewBox="0 0 48 48" fill="none" xmlns="http://www.w3.org/2000/svg">
<path d="M19 9.5H21.5C22.3284 9.5 23 8.82843 23 8V5C23 4.72386 23.2239 4.5 23.5 4.5H24.5C24.7761 4.5 25 4.72386 25 5V8C25 8.82843 25.6716 9.5 26.5 9.5H29C29.2761 9.5 29.5 9.72386 29.5 10V24C29.5 24.8284 30.1716 25.5 31 25.5H41C41.2761 25.5 41.5 25.7239 41.5 26V44C41.5 44.2761 41.2761 44.5 41 44.5H7C6.72386 44.5 6.5 44.2761 6.5 44V18C6.5 17.7239 6.72386 17.5 7 17.5H17C17.8284 17.5 18.5 16.8284 18.5 16V10C18.5 9.72386 18.7239 9.5 19 9.5Z" stroke="#333333"/>
<path d="M13.5 40.5H10.5V37.5H13.5V40.5ZM13.5 32.5H10.5V29.5H13.5V32.5ZM13.5 24.5H10.5V21.5H13.5V24.5ZM25.5 40.5H22.5V37.5H25.5V40.5ZM25.5 32.5H22.5V29.5H25.5V32.5ZM25.5 24.5H22.5V21.5H25.5V24.5ZM25.5 16.5H22.5V13.5H25.5V16.5ZM37.5 40.5H34.5V37.5H37.5V40.5ZM37.5 32.5H34.5V29.5H37.5V32.5Z" stroke="#333333"/>
</svg>
