<svg width="48" height="48" viewBox="0 0 48 48" fill="none" xmlns="http://www.w3.org/2000/svg">
<path d="M24 24C28.42 24 32 20.42 32 16C32 11.58 28.42 8 24 8C19.58 8 16 11.58 16 16C16 20.42 19.58 24 24 24Z" fill="#333333"/>
<path d="M17.6699 28.8445C18.1168 28.7355 18.5752 28.9585 18.7781 29.3713L22.3905 36.7241L22.9209 32.2746C22.9579 31.9642 22.7211 31.7211 22.5 31.5001C22 31.0001 22 29.0001 22.5 28.5001C22.6602 28.3398 22.9744 28.385 23.344 28.4381C23.5511 28.4678 23.7755 28.5 24 28.5C24.2244 28.5 24.4489 28.4678 24.6559 28.438C25.0255 28.3849 25.3398 28.3398 25.5 28.5001C26 29.0002 26 31.0001 25.5 31.5001C25.2774 31.7226 25.0427 31.9729 25.0799 32.2854L25.6093 36.7244L29.2219 29.3713C29.4248 28.9585 29.8832 28.7355 30.3301 28.8445C35.1338 30.0163 40 32.4056 40 36V40H8V36C8 32.4056 12.8662 30.0163 17.6699 28.8445Z" fill="#333333"/>
</svg>
