<svg width="48" height="48" viewBox="0 0 48 48" fill="none" xmlns="http://www.w3.org/2000/svg">
<path d="M33.98 10L35.24 12.74L37.98 14L35.24 15.26L33.98 18L32.72 15.26L29.98 14L32.72 12.74L33.98 10ZM22 12.26V8H26C27.14 8 28.2 8.34 29.1 8.9L31.96 6.04C30.3 4.78 28.26 4 26 4C23.04 4 15 4 15 4V8H18V12.28C14.46 13.02 11.62 15.6 10.52 19H18.48L30 23.3V22.06C30 17.22 26.56 13.18 22 12.26ZM2 44H10V22H2V44ZM40 34H26L21.82 32.54L22.48 30.66L26 32H31.64C32.94 32 34 30.94 34 29.64C34 28.66 33.38 27.78 32.46 27.42L17.94 22H14V40.04L28 44L44 38C43.98 35.8 42.22 34 40 34ZM40 28C42.2 28 44 26.2 44 24C44 21.8 40 16 40 16C40 16 36 21.8 36 24C36 26.2 37.8 28 40 28Z" fill="#333333"/>
</svg>
