<svg width="48" height="48" viewBox="0 0 48 48" fill="none" xmlns="http://www.w3.org/2000/svg">
<path fill-rule="evenodd" clip-rule="evenodd" d="M0 0H48V48H0V0ZM35.24 12.74L33.98 10L32.72 12.74L29.98 14L32.72 15.26L33.98 18L35.24 15.26L37.98 14L35.24 12.74ZM22 8V12.26C26.56 13.18 30 17.22 30 22.06V23.3L18.48 19H10.52C11.62 15.6 14.46 13.02 18 12.28V8H15V4H26C28.26 4 30.3 4.78 31.96 6.04L29.1 8.9C28.2 8.34 27.14 8 26 8H22ZM10 44H2V22H10V44ZM26 34H40C42.22 34 43.98 35.8 44 38L28 44L14 40.04V22H17.94L32.46 27.42C33.38 27.78 34 28.66 34 29.64C34 30.94 32.94 32 31.64 32H26L22.48 30.66L21.82 32.54L26 34ZM44 24C44 26.2 42.2 28 40 28C37.8 28 36 26.2 36 24C36 21.8 40 16 40 16C40 16 44 21.8 44 24Z" fill="#333333"/>
</svg>
