<?xml version="1.0" encoding="UTF-8" standalone="no"?>
<!-- Created with Inkscape (http://www.inkscape.org/) -->
<svg id="svg8" xmlns:rdf="http://www.w3.org/1999/02/22-rdf-syntax-ns#" xmlns="http://www.w3.org/2000/svg" xmlns:osb="http://www.openswatchbook.org/uri/2009/osb" height="48" width="48" version="1.1" xmlns:cc="http://creativecommons.org/ns#" viewBox="0 0 12.7 12.7" xmlns:dc="http://purl.org/dc/elements/1.1/">
 <title id="title4753">UIO-icon</title>
 <metadata id="metadata5">
  <rdf:RDF>
   <cc:Work rdf:about="">
    <dc:format>image/svg+xml</dc:format>
    <dc:type rdf:resource="http://purl.org/dc/dcmitype/StillImage"/>
    <dc:title>UIO-icon</dc:title>
    <dc:creator>
     <cc:Agent>
      <dc:title>Joaquín Urbano</dc:title>
     </cc:Agent>
    </dc:creator>
    <dc:rights>
     <cc:Agent>
      <dc:title>GPL</dc:title>
     </cc:Agent>
    </dc:rights>
   </cc:Work>
  </rdf:RDF>
 </metadata>
 <g id="layer1" fill="#333" transform="translate(0,-284.3)">
  <path id="rect4798" d="m24.029 4.9727c-1.4 0.0015-2.552 1.1015-2.619 2.5h-2.098c-0.589 0-1.062 0.4752-1.062 1.0644v0.2383h-6.389c-1.029 0-1.859 0.8278-1.859 1.8576v30.535c0 1.03 0.83 1.859 1.859 1.859h24.278c1.029 0 1.857-0.829 1.857-1.859v-30.535c0-1.0298-0.828-1.8576-1.857-1.8576h-6.391v-0.2383c0-0.5892-0.473-1.0644-1.062-1.0644h-2.038c-0.066-1.3985-1.219-2.4985-2.619-2.5zm-0.043 1.4511c0.648 0.0007 1.173 0.5262 1.172 1.1739 0.001 0.6477-0.524 1.1731-1.172 1.1738-0.648 0.0004-1.174-0.5254-1.174-1.1738 0-0.6485 0.526-1.1743 1.174-1.1739zm-4.33 1.7657h1.803c0.196 0.8351 0.782 1.4911 1.535 1.8105h-0.015a2.625 2.625 0 0 0 0.097 0.037c0.035 0.014 0.07 0.027 0.106 0.039a2.625 2.625 0 0 0 0.343 0.09c0.031 0.006 0.063 0.009 0.094 0.014a2.625 2.625 0 0 0 0.381 0.035h0.012a2.625 2.625 0 0 0 0.392 -0.035c0.031-0.005 0.062-0.008 0.092-0.014a2.625 2.625 0 0 0 0.328 -0.086c0.047-0.015 0.092-0.033 0.137-0.051a2.625 2.625 0 0 0 0.08 -0.029h-0.012c0.753-0.3194 1.34-0.9754 1.535-1.8105h1.747c0.354 0 0.64 0.2857 0.64 0.6406v1.1699 1.051h-9.935v-1.051-1.1699c0-0.3549 0.285-0.6406 0.64-0.6406zm-2.498 5.1935c0.36 0 0.647 0.29 0.647 0.65v1.719h1.718c0.36 0 0.651 0.29 0.651 0.65s-0.291 0.649-0.651 0.649h-1.718v1.719c0 0.36-0.289 0.65-0.649 0.65s-0.65-0.29-0.65-0.65v-1.719h-1.719c-0.36 0-0.65-0.288-0.65-0.649 0-0.36 0.29-0.65 0.65-0.65h1.721v-1.719c0-0.36 0.29-0.65 0.65-0.65zm-3.219 10.617h20.123v1.375h-20.123v-1.375zm0 4h20.123v1.375h-20.123v-1.375zm0 4h20.123v1.375h-20.123v-1.375zm0 4h12.686v1.375h-12.686v-1.375z" fill-rule="evenodd" fill-opacity=".99505" transform="matrix(.26458 0 0 .26458 0 284.3)"/>
 </g>
</svg>
