<?xml version="1.0" encoding="UTF-8" standalone="no"?>
<!-- Created with Inkscape (http://www.inkscape.org/) -->
<svg id="svg8" xmlns:rdf="http://www.w3.org/1999/02/22-rdf-syntax-ns#" xmlns="http://www.w3.org/2000/svg" xmlns:osb="http://www.openswatchbook.org/uri/2009/osb" height="48" width="48" version="1.1" xmlns:cc="http://creativecommons.org/ns#" viewBox="0 0 12.7 12.7" xmlns:dc="http://purl.org/dc/elements/1.1/">
 <title id="title4753">UIO-icon</title>
 <metadata id="metadata5">
  <rdf:RDF>
   <cc:Work rdf:about="">
    <dc:format>image/svg+xml</dc:format>
    <dc:type rdf:resource="http://purl.org/dc/dcmitype/StillImage"/>
    <dc:title>UIO-icon</dc:title>
    <dc:creator>
     <cc:Agent>
      <dc:title>Joaquín Urbano</dc:title>
     </cc:Agent>
    </dc:creator>
    <dc:rights>
     <cc:Agent>
      <dc:title>GPL</dc:title>
     </cc:Agent>
    </dc:rights>
   </cc:Work>
  </rdf:RDF>
 </metadata>
 <g id="layer1" transform="translate(0,-284.3)">
  <path id="rect858-7" d="m24.029 4.9727c-1.4 0.0015-2.552 1.1015-2.619 2.5h-2.098c-0.589 0-1.062 0.4752-1.062 1.0644v0.2383h-6.389c-1.029 0-1.859 0.8278-1.859 1.8576v30.535c0 1.03 0.83 1.859 1.859 1.859h24.278c1.029 0 1.857-0.829 1.857-1.859v-30.535c0-1.0298-0.828-1.8576-1.857-1.8576h-6.391v-0.2383c0-0.5892-0.473-1.0644-1.062-1.0644h-2.038c-0.066-1.3985-1.219-2.4985-2.619-2.5zm0.002 0.5117a2.125 2.125 0 0 1 2.125 2.125 2.125 2.125 0 0 1 -2.125 2.125 2.125 2.125 0 0 1 -2.125 -2.125 2.125 2.125 0 0 1 2.125 -2.125zm-4.724 2.498h2.109a2.6443 2.6443 0 0 0 2.615 2.2716 2.6443 2.6443 0 0 0 2.615 -2.2716h2.047c0.3 0 0.541 0.2411 0.541 0.541v0.4649 0.6465 1.6682h-10.468v-1.6682-0.6465-0.4649c0-0.2999 0.241-0.541 0.541-0.541zm-6.789 1.3067h4.312 1.42l0.002 2.5269h1.062 2.465 4.442 2.467 1.062l-0.002-2.5269h0.977l4.947 0.0058c1.638 0.002 1.803 0.9481 1.803 1.8671l0.002 29.809c0 0.919-0.519 1.541-1.786 1.541h-23.498c-0.919 0-1.675-0.606-1.675-1.526v-30.14c0-1.1228 0.553-1.5569 2-1.5569zm4.619 4.2459c-0.128 0.003-0.254 0.102-0.25 0.291v2.289h-2.291c-0.393 0.014-0.419 0.506 0.002 0.514h2.289v2.289c0.025 0.451 0.516 0.45 0.513-0.002v-2.287h2.289c0.438-0.008 0.407-0.507-0.001-0.514h-2.288v-2.291c-0.004-0.199-0.135-0.292-0.263-0.289zm16.642 3.303c-0.448-0.017-0.884 0.23-1.086 0.664l-6.777 14.574c-0.136 0.292-0.137 0.608-0.033 0.887-0.004 0.017-0.014 0.03-0.016 0.047l-0.502 4.324c-0.002 0.023 0.005 0.044 0.006 0.066 0.002 0.052 0.01 0.101 0.029 0.147 0.003 0.01 0.011 0.017 0.014 0.027 0.019 0.036 0.042 0.067 0.07 0.096 0.007 0.007 0.009 0.017 0.016 0.023 0.011 0.01 0.026 0.014 0.039 0.024 0.019 0.013 0.037 0.029 0.059 0.039 0.037 0.02 0.075 0.031 0.115 0.037 0.006 0.001 0.013 0.006 0.019 0.006 0.004 0 0.007-0.002 0.01 0 0.05 0.006 0.099 0 0.149-0.012 0.001 0 0.004-0.001 0.005-0.002l0.002-0.002c0.048-0.013 0.092-0.037 0.133-0.07 0.002-0.002 0.006 0 0.008-0.002 0.001-0.001 0.002-0.003 0.004-0.004 0.016-0.013 0.032-0.02 0.045-0.033l2.965-3.201c0.005-0.007 0.006-0.013 0.011-0.016 0.284-0.098 0.529-0.307 0.666-0.602l6.778-14.57c0.269-0.578 0.019-1.26-0.559-1.529l-1.726-0.813c-0.145-0.067-0.294-0.1-0.444-0.105zm-0.058 0.422c0.084 0.002 0.171 0.023 0.256 0.064l0.257 0.117 1.565 0.739c0.39 0.204 0.425 0.634 0.31 0.896l-0.767 1.639-2.998-1.403 0.773-1.65c0.114-0.254 0.35-0.41 0.604-0.402zm-1.567 2.465l2.998 1.402-0.308 0.658-2.996-1.392 0.306-0.668zm-0.492 1.066l0.139 0.068 2.859 1.327-2.236 4.81-2.93 6.311-0.123 0.254c-0.102 0.22-0.625 0.37-0.846 0.267l-1.873-0.885c-0.427-0.202-0.475-0.27-0.314-0.701l0.121-0.256 5.203-11.195zm-17.724 4.07l0.001 0.514h13.692l0.238-0.514h-13.931zm0 4l0.001 0.514h11.829l0.238-0.514h-12.068zm0 4l0.001 0.514h9.965l0.239-0.514h-10.205zm12.365 0.414l2.273 1.096-2.746 2.899 0.473-3.995zm-12.365 3.586l0.001 0.514h8.1l0.24-0.514h-8.341z" transform="matrix(.26458 0 0 .26458 0 284.3)" fill="#333"/>
 </g>
</svg>
