<?xml version="1.0" encoding="UTF-8" standalone="no"?>
<!-- Created with Inkscape (http://www.inkscape.org/) -->
<svg id="svg8" xmlns:rdf="http://www.w3.org/1999/02/22-rdf-syntax-ns#" xmlns="http://www.w3.org/2000/svg" xmlns:osb="http://www.openswatchbook.org/uri/2009/osb" height="48" width="48" version="1.1" xmlns:cc="http://creativecommons.org/ns#" viewBox="0 0 12.7 12.7" xmlns:dc="http://purl.org/dc/elements/1.1/">
 <title id="title4753">UIO-icon</title>
 <metadata id="metadata5">
  <rdf:RDF>
   <cc:Work rdf:about="">
    <dc:format>image/svg+xml</dc:format>
    <dc:type rdf:resource="http://purl.org/dc/dcmitype/StillImage"/>
    <dc:title>UIO-icon</dc:title>
    <dc:creator>
     <cc:Agent>
      <dc:title>Joaquín Urbano</dc:title>
     </cc:Agent>
    </dc:creator>
    <dc:rights>
     <cc:Agent>
      <dc:title>GPL</dc:title>
     </cc:Agent>
    </dc:rights>
   </cc:Work>
  </rdf:RDF>
 </metadata>
 <g id="layer1" fill="#333" transform="translate(0,-284.3)">
  <path id="rect4810" d="m0 0v48h48v-48h-48zm24.029 4.9727c1.4 0.0015 2.553 1.1015 2.619 2.5h2.038c0.589 0 1.062 0.4752 1.062 1.0644v0.2383h6.391c1.029 0 1.857 0.8278 1.857 1.8576v5.303 25.232c0 1.03-0.828 1.859-1.857 1.859h-24.278c-1.029 0-1.859-0.829-1.859-1.859v-30.535c0-1.0298 0.83-1.8576 1.859-1.8576h6.389v-0.2383c0-0.5892 0.473-1.0644 1.062-1.0644h2.098c0.067-1.3985 1.219-2.4985 2.619-2.5zm13.967 10.963c0.019-0.508-0.264-1-0.756-1.229l-1.957-0.92c-0.164-0.076-0.334-0.115-0.504-0.121-0.508-0.019-1.002 0.262-1.23 0.754l-7.68 16.516c-0.154 0.33-0.157 0.69-0.039 1.005-0.004 0.019-0.016 0.034-0.018 0.053l-0.568 4.901c-0.002 0.026 0.004 0.052 0.006 0.078 0.003 0.059 0.013 0.111 0.035 0.164 0.004 0.011 0.012 0.02 0.016 0.031 0.022 0.04 0.046 0.076 0.078 0.109 0.007 0.008 0.01 0.018 0.017 0.026 0.013 0.011 0.031 0.016 0.045 0.027 0.022 0.015 0.042 0.034 0.067 0.045 0.042 0.023 0.085 0.034 0.131 0.041 0.006 0.001 0.014 0.008 0.021 0.008 0.005 0 0.008-0.002 0.012 0 0.056 0.007 0.112-0.002 0.168-0.016 0.002 0 0.004-0.001 0.006-0.002 0.001 0 0.003-0.001 0.004-0.002 0.054-0.015 0.103-0.042 0.15-0.08 0.002-0.001 0.006 0 0.008-0.002 0.001-0.001 0.002-0.003 0.004-0.004 0.017-0.015 0.038-0.022 0.052-0.037l3.36-3.627c0.006-0.007 0.007-0.015 0.014-0.019 0.321-0.111 0.598-0.348 0.753-0.682l7.682-16.514c0.076-0.163 0.117-0.334 0.123-0.503zm-14.01-9.5122c-0.648-0.0004-1.174 0.5254-1.174 1.1739 0 0.6484 0.526 1.1742 1.174 1.1738 0.648-0.0007 1.173-0.5261 1.172-1.1738 0.001-0.6477-0.524-1.1732-1.172-1.1739zm-4.33 1.7657c-0.355 0-0.64 0.2857-0.64 0.6406v1.1699 1.051h9.935v-1.051-1.1699c0-0.3549-0.286-0.6406-0.64-0.6406h-1.747c-0.195 0.8351-0.782 1.4911-1.535 1.8105h0.012a2.625 2.625 0 0 1 -0.08 0.029c-0.045 0.018-0.09 0.036-0.137 0.051a2.625 2.625 0 0 1 -0.328 0.086c-0.03 0.006-0.061 0.009-0.092 0.014a2.625 2.625 0 0 1 -0.392 0.035h-0.012a2.625 2.625 0 0 1 -0.381 -0.035c-0.031-0.005-0.063-0.008-0.094-0.014a2.625 2.625 0 0 1 -0.343 -0.09c-0.036-0.012-0.071-0.025-0.106-0.039a2.625 2.625 0 0 1 -0.097 -0.037h0.015c-0.753-0.3194-1.339-0.9754-1.535-1.8105h-1.803zm-2.498 5.1935c-0.36 0-0.65 0.29-0.65 0.65v1.719h-1.721c-0.36 0-0.65 0.29-0.65 0.65 0 0.361 0.29 0.649 0.65 0.649h1.719v1.719c0 0.36 0.29 0.65 0.65 0.65s0.649-0.29 0.649-0.65v-1.719h1.718c0.36 0 0.651-0.289 0.651-0.649s-0.291-0.65-0.651-0.65h-1.718v-1.719c0-0.36-0.287-0.65-0.647-0.65zm17.938 1.084c0.156 0.007 0.315 0.042 0.466 0.113l0.891 0.414c0.606 0.282 0.868 0.997 0.586 1.604l-0.605 1.302-3.08-1.431 0.605-1.303c0.211-0.455 0.666-0.716 1.137-0.699zm-1.998 2.549l3.08 1.431-0.309 0.664-3.078-1.433 0.307-0.662zm-0.561 1.209l3.078 1.431-2.086 4.489-3.593 7.726-0.299 0.643c-0.117 0.249-0.411 0.356-0.66 0.24l-0.645-0.299-0.891-0.414-0.644-0.299c-0.25-0.116-0.357-0.41-0.24-0.66l0.298-0.643 3.594-7.728 2.088-4.486zm-18.598 5.775v1.375h13.676l0.67-1.375h-14.346zm0 4v1.375h11.731l0.67-1.375h-12.401zm0 4v1.375h9.786l0.668-1.375h-10.454zm12.551 0.387l2.123 1.004-2.654 2.986 0.531-3.99zm-12.551 3.613v1.375h7.84l0.668-1.375h-8.508z" fill-rule="evenodd" transform="matrix(.26458 0 0 .26458 0 284.3)"/>
 </g>
</svg>
