<svg width="48" height="48" viewBox="0 0 48 48" fill="none" xmlns="http://www.w3.org/2000/svg">
<path d="M35.9102 5.00199C33.5448 5.00199 31.9551 6.23341 31.9551 8.06444V18.748L30.7129 20.1113H23.4707L25.1602 18.4532L28.709 18.6486C29.2946 18.6788 29.7901 18.2322 29.8223 17.6466C29.8381 17.3537 29.736 17.0856 29.5547 16.8849C29.3739 16.6834 29.117 16.5484 28.8242 16.5333L27.2051 16.4453L28.8555 14.8261C29.2739 14.4152 29.2801 13.7466 28.8692 13.3281C28.4582 12.9081 27.7896 12.9011 27.3711 13.313L25.7227 14.9341L25.6641 13.313C25.6425 12.7269 25.1525 12.2708 24.5664 12.2935C23.9803 12.3161 23.5257 12.803 23.5469 13.3891L23.6777 16.9399L21.9395 18.647V11.338L24.5645 8.94335C24.9976 8.54789 25.0283 7.88038 24.6328 7.44725C24.2374 7.01411 23.5699 6.98355 23.1367 7.37885L21.9395 8.47252V6.16014C21.9395 5.57364 21.4674 5.10153 20.8809 5.10153V5.1035C20.2944 5.1035 19.8223 5.57548 19.8223 6.16199V8.47448L18.625 7.38081C18.4084 7.18314 18.1336 7.09132 17.8633 7.10341C17.5929 7.11475 17.3286 7.23033 17.1309 7.4469C16.7354 7.88003 16.7641 8.54755 17.1973 8.943L19.8223 11.3376V18.6442L18.0859 16.9391L18.2149 13.3883C18.236 12.8022 17.7814 12.314 17.1953 12.2926C16.6092 12.27 16.121 12.7261 16.0996 13.3122L16.043 14.9333L14.3926 13.3122C13.9741 12.9012 13.3074 12.9083 12.8965 13.3273C12.4856 13.7458 12.4898 14.4144 12.9082 14.8253L14.5567 16.4445L12.9375 16.5325C12.6447 16.5476 12.3898 16.6826 12.209 16.8841C12.0277 17.0848 11.9235 17.353 11.9395 17.6458C11.9716 18.2314 12.4691 18.6797 13.0547 18.6478L16.6016 18.4524L18.291 20.1105H11.0488L8.6543 17.4856C8.25885 17.0524 7.59134 17.022 7.1582 17.4172C6.72507 17.8126 6.69445 18.48 7.08984 18.9132L8.18359 20.1104H5.87109C5.28459 20.1104 4.8125 20.5825 4.8125 21.169C4.8125 21.7555 5.28459 22.2276 5.87109 22.2276H8.18359L7.08984 23.4249C6.89217 23.6415 6.80236 23.9163 6.81445 24.1866C6.82579 24.4568 6.94164 24.7213 7.1582 24.919C7.59133 25.3145 8.25884 25.2857 8.65429 24.8526L11.0488 22.2275H18.293L16.6035 23.8858L13.0566 23.6904C12.471 23.6602 11.9716 24.1028 11.9395 24.6885C11.9073 25.2741 12.3538 25.7753 12.9395 25.8055L14.5586 25.8937L12.9082 27.5128C12.4898 27.9237 12.4855 28.5924 12.8965 29.0109C13.3074 29.4308 13.976 29.434 14.3945 29.026L16.0449 27.4068L16.1035 29.0279C16.1141 29.3208 16.24 29.5794 16.4375 29.7642C16.635 29.9494 16.9023 30.0567 17.1953 30.0454C17.7814 30.0227 18.238 29.5359 18.2168 28.9498L18.0859 25.399L19.8242 23.6939V31.0024L17.1992 33.397C16.7661 33.7925 16.7374 34.46 17.1328 34.8931C17.3306 35.1097 17.5949 35.2253 17.8652 35.2366C18.1356 35.2479 18.4104 35.1588 18.627 34.9612L19.8242 33.8674V36.1799C19.8242 36.7664 20.2963 37.2385 20.8828 37.2385C21.4693 37.2385 21.9414 36.7664 21.9414 36.1799V33.8674L23.1387 34.9612C23.5718 35.3566 24.2393 35.3259 24.6348 34.8928C25.0302 34.4596 24.9976 33.792 24.5645 33.3965L21.9395 31.002V23.6935L23.6758 25.3985L23.5469 28.9493C23.5257 29.5354 23.9803 30.0238 24.5664 30.0451C24.8595 30.0564 25.1287 29.949 25.3262 29.7639C25.5237 29.579 25.6534 29.3205 25.6641 29.0275L25.7207 27.4065L27.3711 29.0255C27.7896 29.4365 28.4563 29.4333 28.8672 29.0104C29.2781 28.5919 29.2738 27.9233 28.8555 27.5124L27.2051 25.8933L28.8242 25.8052C29.4098 25.775 29.8562 25.2736 29.8242 24.688C29.7921 24.1024 29.2946 23.658 28.709 23.6899L25.1621 23.8853L23.4727 22.2272H30.7148L31.9551 23.5865V30.776C30.2533 32.0235 29.1523 34.0046 29.1523 36.2311C29.1523 39.9971 32.3061 43.0612 36.1816 43.0612C40.0572 43.0612 43.209 39.9971 43.209 36.2311C43.209 34.0046 42.108 32.0235 40.4062 30.776V8.06306C40.4062 6.1745 38.9519 5.00061 36.6133 5.00061L35.9102 5.00199ZM35.9102 5.63476H36.6133C37.3503 5.63476 39.7559 5.80939 39.7559 8.06444V31.1328C39.9837 31.2836 40.1992 31.4491 40.4043 31.627C41.7076 32.7568 42.5293 34.4017 42.5293 36.2325C42.5296 39.6399 39.6861 42.4023 36.1797 42.4023C32.6732 42.4023 29.832 39.6399 29.832 36.2325C29.832 34.4018 30.6518 32.7569 31.9551 31.627C32.1603 31.4493 32.3777 31.2835 32.6055 31.1328V8.06444C32.6055 6.27068 34.3861 5.63476 35.9102 5.63476ZM34.5547 8.16017C34.3753 8.16017 34.2305 8.30232 34.2305 8.47656C34.2305 8.65079 34.3753 8.79098 34.5547 8.79098H38.4551C38.6345 8.79098 38.7813 8.65117 38.7813 8.47656C38.7813 8.30232 38.6344 8.16017 38.4551 8.16017H34.5547ZM36.5059 9.42386C36.3264 9.42386 36.1797 9.56552 36.1797 9.74013C36.1797 9.91437 36.3265 10.0547 36.5059 10.0547H38.4551C38.6345 10.0547 38.7813 9.91437 38.7813 9.74013C38.7813 9.56589 38.6345 9.42386 38.4551 9.42386H36.5059ZM34.5547 10.6875C34.3753 10.6875 34.2305 10.8274 34.2305 11.002C34.2305 11.1762 34.3753 11.3184 34.5547 11.3184H38.4551C38.6345 11.3184 38.7813 11.1762 38.7813 11.002C38.7813 10.8277 38.6344 10.6875 38.4551 10.6875H34.5547ZM36.5059 11.9493C36.3264 11.9493 36.1797 12.0913 36.1797 12.2655C36.1797 12.4398 36.3265 12.5819 36.5059 12.5819H38.4551C38.6345 12.5819 38.7813 12.4398 38.7813 12.2655C38.7813 12.0913 38.6345 11.9493 38.4551 11.9493H36.5059ZM34.5547 13.2128C34.3753 13.2128 34.2305 13.355 34.2305 13.5292C34.2305 13.7035 34.3753 13.8437 34.5547 13.8437H38.4551C38.6345 13.8437 38.7813 13.7035 38.7813 13.5292C38.7813 13.355 38.6344 13.2128 38.4551 13.2128H34.5547ZM36.5059 14.4765C36.3264 14.4765 36.1797 14.6187 36.1797 14.7929C36.1797 14.9672 36.3265 15.1073 36.5059 15.1073H38.4551C38.6345 15.1073 38.7813 14.9672 38.7813 14.7929C38.7813 14.6187 38.6345 14.4765 38.4551 14.4765H36.5059ZM34.9902 15.9063C34.6908 15.9038 34.3446 16.0261 33.9062 16.3711V31.8808C32.2767 32.6888 31.1562 34.3362 31.1562 36.2325C31.1562 38.9243 33.4097 41.1133 36.1797 41.1133C38.9497 41.1133 41.2031 38.9242 41.2031 36.2325C41.2032 34.3363 40.0846 32.6889 38.4551 31.8808V16.3711C36.5296 17.5431 36.0596 15.9195 34.9902 15.9063ZM38.2578 34.4297C38.9591 34.4297 39.5293 34.9824 39.5293 35.6641C39.5293 36.3456 38.9591 36.8984 38.2578 36.8984C37.5565 36.8984 36.9883 36.3456 36.9883 35.6641C36.9883 34.9824 37.5558 34.4297 38.2578 34.4297Z" fill="#333333"/>
</svg>
