<svg width="48" height="48" viewBox="0 0 48 48" fill="none" xmlns="http://www.w3.org/2000/svg">
<path fill-rule="evenodd" clip-rule="evenodd" d="M30.0002 4C27.2387 4 25.0002 6.39847 25.0002 9.35714V29.7546C23.1712 31.2208 22.0002 33.4736 22.0002 36C22.0002 40.4183 25.5819 44 30.0002 44C34.4184 44 38.0002 40.4183 38.0002 36C38.0002 33.4736 36.8291 31.2208 35.0002 29.7546V9.35714C35.0002 6.39847 32.7616 4 30.0002 4ZM33.0002 22.061C31.5431 22.0854 30.178 21.7313 28.9825 21.4212C28.2526 21.2319 27.5859 21.0589 27.0002 20.9986V9.35714C27.0002 7.58194 28.3433 6.14286 30.0002 6.14286C31.657 6.14286 33.0002 7.58194 33.0002 9.35714V9.97595H31.0002C30.4479 9.97595 30.0002 10.4237 30.0002 10.976C30.0002 11.5282 30.4479 11.976 31.0002 11.976H33.0002V13.976H31.0002C30.4479 13.976 30.0002 14.4237 30.0002 14.976C30.0002 15.5282 30.4479 15.976 31.0002 15.976H33.0002V17.976H31.0002C30.4479 17.976 30.0002 18.4237 30.0002 18.976C30.0002 19.5282 30.4479 19.976 31.0002 19.976H33.0002V22.061Z" fill="#333333"/>
<path d="M16.3303 12C16.3303 11.4477 15.8826 11 15.3303 11C14.778 11 14.3303 11.4477 14.3303 12V15.268L11.5002 13.6341C11.0219 13.3579 10.4103 13.5218 10.1342 14.0001C9.85806 14.4784 10.0219 15.09 10.5002 15.3661L13.3301 17L10.5002 18.6339C10.0219 18.91 9.858 19.5216 10.1341 19.9999C10.4103 20.4782 11.0219 20.6421 11.5002 20.3659L14.3303 18.7319V22C14.3303 22.5523 14.778 23 15.3303 23C15.8826 23 16.3303 22.5523 16.3303 22V18.7321L19.1605 20.3661C19.6388 20.6423 20.2504 20.4784 20.5265 20.0001C20.8026 19.5218 20.6388 18.9102 20.1605 18.6341L17.3301 17L20.1604 15.3659C20.6387 15.0898 20.8026 14.4782 20.5264 13.9999C20.2503 13.5216 19.6387 13.3577 19.1604 13.6339L16.3303 15.2678V12Z" fill="#333333"/>
</svg>
