<svg width="48" height="48" viewBox="0 0 48 48" fill="none" xmlns="http://www.w3.org/2000/svg">
<path d="M35.9102 5.00107C33.5448 5.00107 31.9551 6.2326 31.9551 8.06363V18.7472L30.7129 20.1105H23.4707L25.1602 18.4523L28.709 18.6476C29.2946 18.6779 29.7901 18.2313 29.8223 17.6457C29.8381 17.3528 29.736 17.0846 29.5547 16.884C29.3739 16.6825 29.117 16.5476 28.8242 16.5325L27.2051 16.4448L28.8555 14.8257C29.2739 14.4148 29.2802 13.7461 28.8691 13.3276C28.4582 12.9077 27.7896 12.9001 27.3711 13.3125L25.7227 14.9335L25.6641 13.3125C25.6425 12.7264 25.1525 12.2703 24.5664 12.293C23.9803 12.3157 23.5257 12.8025 23.5469 13.3886L23.6777 16.9394L21.9395 18.6465V11.3378L24.5645 8.94335C24.9976 8.54789 25.0282 7.88038 24.6328 7.44725C24.2374 7.01411 23.5699 6.98355 23.1367 7.37885L21.9395 8.47264V6.16014C21.9395 5.57364 21.4674 5.10153 20.8809 5.10153V5.1035C20.2944 5.1035 19.8223 5.57548 19.8223 6.16199V8.47448L18.625 7.38081C18.4084 7.18314 18.1336 7.09132 17.8633 7.10341C17.5929 7.11475 17.3286 7.23079 17.1309 7.44736C16.7354 7.88049 16.7641 8.54801 17.1973 8.94346L19.8223 11.338V18.6446L18.0859 16.9395L18.2149 13.3887C18.236 12.8027 17.7814 12.3143 17.1953 12.293C16.6092 12.2703 16.121 12.7264 16.0996 13.3125L16.043 14.9336L14.3926 13.3125C13.9741 12.9016 13.3074 12.9093 12.8965 13.3277C12.4856 13.7462 12.4898 14.4148 12.9082 14.8257L14.5567 16.4448L12.9375 16.5325C12.6447 16.5476 12.3898 16.6826 12.209 16.8841C12.0277 17.0848 11.9235 17.353 11.9395 17.6458C11.9716 18.2314 12.4691 18.6797 13.0547 18.6478L16.6016 18.4524L18.291 20.1105H11.0488L8.6543 17.4856C8.25885 17.0524 7.59134 17.022 7.1582 17.4172C6.72507 17.8126 6.69446 18.48 7.08984 18.9132L8.18359 20.1105H5.87109C5.28459 20.1105 4.8125 20.5825 4.8125 21.169C4.8125 21.7555 5.28459 22.2276 5.87109 22.2276H8.18359L7.08984 23.4249C6.89217 23.6415 6.80236 23.9163 6.81445 24.1866C6.82579 24.4568 6.94163 24.7213 7.1582 24.919C7.59134 25.3145 8.25885 25.2857 8.6543 24.8526L11.0488 22.2275H18.293L16.6035 23.8858L13.0566 23.6904C12.471 23.6602 11.9716 24.1028 11.9395 24.6885C11.9073 25.2741 12.3539 25.7753 12.9395 25.8055L14.5586 25.8937L12.9082 27.5128C12.4898 27.9237 12.4855 28.5924 12.8965 29.0109C13.3074 29.4308 13.976 29.4345 14.3945 29.026L16.0449 27.4068L16.1035 29.028C16.1141 29.3209 16.24 29.5795 16.4375 29.7643C16.635 29.9495 16.9023 30.0569 17.1953 30.0455C17.7814 30.0228 18.238 29.5359 18.2168 28.9498L18.0859 25.399L19.8242 23.6939V31.0025L17.1992 33.397C16.7661 33.7925 16.7374 34.46 17.1328 34.8931C17.3306 35.1097 17.5949 35.2253 17.8652 35.2366C18.1356 35.2479 18.4104 35.1588 18.627 34.9612L19.8242 33.8674V36.1799C19.8242 36.7664 20.2963 37.2385 20.8828 37.2385C21.4693 37.2385 21.9414 36.7664 21.9414 36.1799V33.8674L23.1387 34.9612C23.5718 35.3566 24.2393 35.3259 24.6348 34.8928C25.0302 34.4596 24.9976 33.7921 24.5645 33.3967L21.9395 31.0022V23.6935L23.6758 25.3986L23.5469 28.9494C23.5257 29.5355 23.9803 30.0238 24.5664 30.0451C24.8595 30.0564 25.1287 29.949 25.3262 29.7639C25.5237 29.579 25.6534 29.3207 25.6641 29.0276L25.7207 27.4065L27.3711 29.0255C27.7896 29.4365 28.4563 29.4328 28.8672 29.0104C29.2781 28.5919 29.2738 27.9233 28.8555 27.5124L27.2051 25.8933L28.8242 25.8052C29.4098 25.775 29.8562 25.2736 29.8242 24.688C29.7921 24.1024 29.2946 23.658 28.709 23.6899L25.1621 23.8853L23.4727 22.2272H30.7149L31.9551 23.5866V30.776C30.2533 32.0235 29.1524 34.0046 29.1524 36.2311C29.1524 39.9971 32.3061 43.0612 36.1816 43.0612C40.0572 43.0612 43.209 39.9971 43.209 36.2311C43.209 34.0046 42.108 32.0235 40.4063 30.776V8.06306C40.4063 6.1745 38.9519 5.00061 36.6133 5.00061L35.9102 5.00107ZM20.8438 5.6065C20.8516 5.60635 20.8594 5.60635 20.8672 5.6065C21.0149 5.60644 21.1569 5.65988 21.263 5.75541C21.3691 5.85094 21.431 5.98107 21.4355 6.11827V6.13719V6.17502V9.66135L23.5488 7.75705L23.5508 7.75509C23.593 7.72864 23.9704 7.53887 24.2246 7.81968C24.4844 8.12054 24.2587 8.46831 24.2285 8.50724L24.2265 8.5092L21.4355 11.0209V20.0697L24.2265 17.3276L24.0976 13.3216C24.0975 13.3207 24.0976 13.3186 24.0976 13.3178C24.1049 13.2728 24.1989 12.9089 24.5957 12.8862C24.9745 12.8749 25.0995 13.2452 25.1094 13.2905V13.2943L25.207 16.3646L25.9043 15.679L27.7793 13.8372C27.7819 13.8346 27.7845 13.8322 27.7871 13.8297C27.8656 13.7575 27.9673 13.7168 28.0707 13.7161C28.1742 13.7154 28.2714 13.7547 28.3418 13.8259C28.4126 13.8972 28.451 13.995 28.4489 14.0986C28.4467 14.2021 28.4041 14.3032 28.3301 14.3806L28.3223 14.3882L26.4492 16.23L25.7148 16.9506L28.7461 17.0992H28.748C28.796 17.1105 29.1843 17.2353 29.1719 17.6324C29.1474 18.0104 28.7357 18.1052 28.6855 18.109H28.6816L24.7324 17.9155L21.9902 20.6108H30.8906L31.9785 19.3725L31.9727 20.6108V20.7007V21.5738H31.9746C31.9746 21.5738 31.9669 22.6101 31.9707 22.9L30.8574 21.7276H22.0625L24.8652 24.4757L28.8145 24.2002H28.8183C28.8649 24.2035 29.251 24.289 29.2754 24.667C29.2913 25.0638 28.9268 25.1957 28.8828 25.208C28.8818 25.2081 28.8798 25.208 28.8789 25.208L25.8301 25.4208L28.5039 28.0419L28.5234 28.0607C28.5261 28.0632 28.5287 28.0658 28.5313 28.0683C28.596 28.1361 28.6299 28.2283 28.6259 28.3257C28.6219 28.423 28.5803 28.5177 28.5098 28.5898C28.4394 28.662 28.3455 28.706 28.2482 28.7124C28.1508 28.7187 28.0576 28.6869 27.9883 28.6238L27.9786 28.6163L27.961 28.5974L25.2169 25.904L25.0958 29.031V29.0329C25.0849 29.0772 24.9636 29.4469 24.5665 29.4431C24.1878 29.4317 24.0905 29.0458 24.086 28.9997V28.9978L24.2422 24.9509L21.4356 22.1989V31.3786L24.2579 33.9665L24.2598 33.9684C24.2901 34.0062 24.493 34.3449 24.2344 34.6228C23.9574 34.9073 23.6095 34.7342 23.5704 34.7108L23.5684 34.7088L21.4356 32.7498V36.162C21.4357 36.1683 21.4357 36.1746 21.4356 36.1809C21.4309 36.3381 21.3689 36.487 21.2629 36.5964C21.1568 36.7057 21.0149 36.7669 20.8672 36.7668C20.7196 36.7669 20.5777 36.7057 20.4716 36.5964C20.3655 36.487 20.3036 36.3381 20.2989 36.1809V36.162V32.7401L18.1856 34.6775L18.1836 34.6795C18.1445 34.7022 17.7985 34.8765 17.5215 34.5915C17.264 34.3137 17.4663 33.9769 17.4961 33.9391L17.4981 33.9372L20.2989 31.3669V22.2731L17.5645 24.9586L17.6836 29.1189C17.6837 29.1198 17.6837 29.1218 17.6836 29.1226C17.6758 29.1679 17.5821 29.5432 17.1856 29.5659C16.8068 29.5773 16.6814 29.2035 16.6739 29.1577V29.1539L16.5821 25.9235L13.7715 28.6852L13.752 28.7041C13.7494 28.7067 13.7468 28.7092 13.7442 28.7117C13.6755 28.7749 13.5829 28.807 13.486 28.8013C13.389 28.7957 13.2953 28.7528 13.2246 28.6815V28.6795C13.1544 28.6082 13.1127 28.5142 13.1083 28.4177C13.104 28.3212 13.1373 28.2294 13.2012 28.1619L13.2071 28.1544L13.2266 28.1355L15.9922 25.4187L12.9805 25.2411C12.9796 25.2411 12.9776 25.2412 12.9766 25.2411C12.9323 25.2297 12.5653 25.1008 12.5782 24.7039C12.5984 24.3254 12.9849 24.235 13.0313 24.2312H13.0332L16.9649 24.4618L19.7481 21.7294H10.7363L8.33984 24.4852C8.33928 24.486 8.33865 24.4884 8.33789 24.489C8.29946 24.5193 7.95735 24.7513 7.65234 24.4965C7.36684 24.2475 7.55009 23.8654 7.57617 23.8227L7.57812 23.8207L9.39648 21.729H5.8418C5.83594 21.7291 5.83008 21.7291 5.82422 21.729C5.68742 21.7242 5.55776 21.6631 5.46264 21.5589C5.36751 21.4546 5.31437 21.3154 5.31446 21.1704C5.31438 21.0254 5.36752 20.8861 5.46265 20.7818C5.55777 20.6776 5.68743 20.6167 5.82422 20.6118H5.8418H9.42773L7.50586 18.516L7.50391 18.5141C7.47752 18.4725 7.28682 18.105 7.57422 17.8306C7.85416 17.5751 8.21246 17.8003 8.25195 17.8306L8.25391 17.8325L10.8008 20.6118H19.8145L17.043 17.8931L13.0234 18.1198C13.0225 18.12 13.0205 18.1199 13.0195 18.1198C12.9706 18.1123 12.5674 18.0295 12.5371 17.6334C12.5168 17.2553 12.9162 17.1214 12.9649 17.11H12.9668L16.0664 16.9362L15.2149 16.1022L13.3301 14.2545C13.3275 14.252 13.3248 14.2496 13.3223 14.247C13.2481 14.1696 13.2053 14.0682 13.2027 13.9643C13.2002 13.8604 13.2381 13.7623 13.3086 13.6904C13.379 13.6185 13.4764 13.5785 13.5802 13.5788C13.6841 13.5792 13.7862 13.6199 13.8652 13.6923L13.875 13.6998L15.7578 15.5475L16.5176 16.2917L16.6191 13.3756V13.3736C16.6295 13.3253 16.7492 12.9324 17.1465 12.9361C17.5251 12.9513 17.6225 13.3589 17.6289 13.4088V13.4126L17.4961 17.2525L20.2988 19.9985V10.9478L17.5761 8.53181L17.5742 8.52985C17.5437 8.49129 17.3165 8.14662 17.5742 7.84425C17.8264 7.56154 18.2037 7.7494 18.2461 7.77586L18.25 7.77782L20.2988 9.59618V6.17629V6.13846C20.2987 6.13216 20.2987 6.12584 20.2988 6.11954C20.3031 5.98603 20.3617 5.85902 20.4629 5.76406C20.564 5.6691 20.7001 5.61322 20.8437 5.60777L20.8438 5.6065ZM35.9102 5.63303H36.6133C37.3503 5.63303 39.7559 5.80766 39.7559 8.06271V31.1311C39.9837 31.2819 40.1992 31.4475 40.4043 31.6252C41.7076 32.7551 42.5293 34.3999 42.5293 36.2306C42.5296 39.638 39.6861 42.4006 36.1797 42.4006C32.6732 42.4006 29.832 39.6381 29.832 36.2306C29.832 34.3999 30.6518 32.7551 31.9551 31.6252C32.1603 31.4476 32.3777 31.2817 32.6055 31.1311V8.06271C32.6055 6.26895 34.3861 5.63303 35.9102 5.63303ZM34.5547 8.15833C34.3753 8.15833 34.2305 8.30048 34.2305 8.47471C34.2305 8.64895 34.3753 8.78913 34.5547 8.78913H38.4551C38.6345 8.78913 38.7812 8.64933 38.7812 8.47471C38.7812 8.30048 38.6344 8.15833 38.4551 8.15833H34.5547ZM36.5059 9.42202C36.3264 9.42202 36.1797 9.56379 36.1797 9.7384C36.1797 9.91264 36.3265 10.0528 36.5059 10.0528H38.4551C38.6345 10.0528 38.7812 9.91264 38.7812 9.7384C38.7812 9.56416 38.6345 9.42202 38.4551 9.42202H36.5059ZM34.5547 10.6857C34.3753 10.6857 34.2305 10.8256 34.2305 11.0002C34.2305 11.1745 34.3753 11.3165 34.5547 11.3165H38.4551C38.6345 11.3165 38.7812 11.1745 38.7812 11.0002C38.7812 10.826 38.6344 10.6857 38.4551 10.6857H34.5547ZM36.5059 11.9474C36.3264 11.9474 36.1797 12.0896 36.1797 12.2638C36.1797 12.438 36.3265 12.5802 36.5059 12.5802H38.4551C38.6345 12.5802 38.7812 12.438 38.7812 12.2638C38.7812 12.0896 38.6345 11.9474 38.4551 11.9474H36.5059ZM34.5547 13.2111C34.3753 13.2111 34.2305 13.3533 34.2305 13.5275C34.2305 13.7017 34.3753 13.8419 34.5547 13.8419H38.4551C38.6345 13.8419 38.7812 13.7017 38.7812 13.5275C38.7812 13.3533 38.6344 13.2111 38.4551 13.2111H34.5547ZM36.5059 14.4748C36.3264 14.4748 36.1797 14.617 36.1797 14.7912C36.1797 14.9654 36.3265 15.1056 36.5059 15.1056H38.4551C38.6345 15.1056 38.7812 14.9654 38.7812 14.7912C38.7812 14.617 38.6345 14.4748 38.4551 14.4748H36.5059ZM34.9902 15.9045C34.6908 15.902 34.3446 16.0243 33.9062 16.3693V31.8791C32.2767 32.6871 31.1562 34.3344 31.1562 36.2306C31.1562 38.9224 33.4097 41.1115 36.1797 41.1115C38.9497 41.1115 41.2031 38.9223 41.2031 36.2306C41.2032 34.3344 40.0846 32.6871 38.4551 31.8791V16.3693C36.5296 17.5412 36.0596 15.9176 34.9902 15.9045ZM34.8457 16.5822V16.5842C34.9144 16.5728 34.9854 16.5729 35.0566 16.5918C36.2155 16.9131 36.387 17.8937 37.9512 17.4121C37.9512 17.4121 37.9509 17.736 37.9512 17.9102C37.9518 17.9108 37.9525 17.9115 37.9531 17.9121V17.9196V17.9385V18.4796V31.3976V32.5498C38.7076 32.8761 39.3477 33.4026 39.7969 34.0666C40.2461 34.7305 40.4855 35.5039 40.4863 36.2941C40.4862 37.3855 40.0316 38.4321 39.2225 39.2038C38.4134 39.9755 37.3161 40.4091 36.1719 40.4092C35.6051 40.4094 35.0439 40.3031 34.5203 40.0964C33.9966 39.8897 33.5208 39.5866 33.12 39.2045C32.7191 38.8223 32.4011 38.3687 32.1842 37.8693C31.9672 37.3699 31.8555 36.8346 31.8555 36.2941C31.8566 35.4995 32.0987 34.7223 32.5527 34.0562C33.0068 33.3901 33.6532 32.8635 34.4141 32.5401V31.3976V18.505L34.3848 16.8292C34.4573 16.7615 34.6397 16.6191 34.8457 16.5813L34.8457 16.5822ZM38.2793 33.7814C38.0226 33.7813 37.7683 33.8299 37.5311 33.9242C37.2939 34.0186 37.0783 34.157 36.8968 34.3315C36.7152 34.506 36.5712 34.7131 36.473 34.9411C36.3747 35.1691 36.3242 35.4136 36.3242 35.6604C36.3247 36.1585 36.5309 36.636 36.8975 36.988C37.2641 37.3399 37.7611 37.5376 38.2793 37.5373C38.7971 37.5371 39.2936 37.3392 39.6598 36.9873C40.026 36.6353 40.232 36.1581 40.2324 35.6604C40.2325 35.1623 40.0268 34.6844 39.6605 34.3321C39.2943 33.9797 38.7974 33.7817 38.2793 33.7814ZM38.2578 34.4279C38.5995 34.4279 38.9272 34.5584 39.1689 34.7906C39.4106 35.0228 39.5466 35.3378 39.5468 35.6663C39.5466 35.9947 39.4106 36.3096 39.1689 36.5418C38.9272 36.774 38.5995 36.9044 38.2578 36.9044C37.916 36.9044 37.5883 36.774 37.3466 36.5418C37.1049 36.3096 36.9689 35.9947 36.9687 35.6663C36.9689 35.3378 37.1049 35.0228 37.3466 34.7906C37.5883 34.5584 37.916 34.4279 38.2578 34.4279Z" fill="#333333"/>
</svg>
