<svg width="48" height="48" viewBox="0 0 48 48" fill="none" xmlns="http://www.w3.org/2000/svg">
<path d="M35.9102 5.00187C33.5448 5.00187 31.9551 6.23329 31.9551 8.06432V18.7479L30.7129 20.1112H23.4707L25.1602 18.4531L28.709 18.6484C29.2946 18.6787 29.7901 18.2321 29.8223 17.6465C29.8381 17.3536 29.736 17.0854 29.5547 16.8848C29.3739 16.6833 29.117 16.5483 28.8242 16.5332L27.2051 16.4452L28.8555 14.826C29.2739 14.4151 29.2801 13.7465 28.8692 13.328C28.4582 12.908 27.7896 12.9009 27.3711 13.3128L25.7227 14.934L25.6641 13.3128C25.6425 12.7268 25.1525 12.2707 24.5664 12.2933C23.9803 12.316 23.5257 12.8029 23.5469 13.389L23.6777 16.9398L21.9395 18.6468V11.3378L24.5645 8.94322C24.9976 8.54777 25.0283 7.88026 24.6328 7.44712C24.2374 7.01399 23.5699 6.98342 23.1367 7.37873L21.9395 8.4724V6.16002C21.9395 5.57351 21.4674 5.10141 20.8809 5.10141V5.10337C20.2944 5.10337 19.8223 5.57536 19.8223 6.16187V8.47436L18.625 7.38069C18.4084 7.18302 18.1336 7.09119 17.8633 7.10329C17.5929 7.11463 17.3286 7.23021 17.1309 7.44678C16.7354 7.87991 16.7641 8.54743 17.1973 8.94288L19.8223 11.3375V18.6441L18.0859 16.939L18.2149 13.3882C18.236 12.8021 17.7814 12.3138 17.1953 12.2925C16.6092 12.2698 16.121 12.726 16.0996 13.312L16.043 14.9332L14.3926 13.312C13.9741 12.9011 13.3074 12.9082 12.8965 13.3271C12.4856 13.7457 12.4898 14.4143 12.9082 14.8252L14.5567 16.4444L12.9375 16.5324C12.6447 16.5475 12.3898 16.6825 12.209 16.8839C12.0277 17.0846 11.9235 17.3529 11.9395 17.6457C11.9716 18.2313 12.4691 18.6796 13.0547 18.6476L16.6016 18.4523L18.291 20.1104H11.0488L8.6543 17.4855C8.25885 17.0523 7.59134 17.0218 7.1582 17.4171C6.72507 17.8125 6.69445 18.4799 7.08984 18.913L8.18359 20.1103H5.87109C5.28459 20.1103 4.8125 20.5824 4.8125 21.1689C4.8125 21.7554 5.28459 22.2275 5.87109 22.2275H8.18359L7.08984 23.4248C6.89217 23.6413 6.80236 23.9161 6.81445 24.1865C6.82579 24.4567 6.94164 24.7212 7.1582 24.9189C7.59133 25.3144 8.25884 25.2856 8.65429 24.8525L11.0488 22.2274H18.293L16.6035 23.8857L13.0566 23.6903C12.471 23.66 11.9716 24.1027 11.9395 24.6883C11.9073 25.274 12.3538 25.7752 12.9395 25.8054L14.5586 25.8935L12.9082 27.5127C12.4898 27.9236 12.4855 28.5923 12.8965 29.0108C13.3074 29.4307 13.976 29.4339 14.3945 29.0259L16.0449 27.4067L16.1035 29.0277C16.1141 29.3206 16.24 29.5793 16.4375 29.7641C16.635 29.9493 16.9023 30.0566 17.1953 30.0453C17.7814 30.0226 18.238 29.5357 18.2168 28.9496L18.0859 25.3988L19.8242 23.6937V31.0023L17.1992 33.3969C16.7661 33.7923 16.7374 34.4599 17.1328 34.893C17.3306 35.1096 17.5949 35.2251 17.8652 35.2365C18.1356 35.2478 18.4104 35.1587 18.627 34.961L19.8242 33.8673V36.1797C19.8242 36.7663 20.2963 37.2384 20.8828 37.2384C21.4693 37.2384 21.9414 36.7663 21.9414 36.1797V33.8673L23.1387 34.961C23.5718 35.3565 24.2393 35.3258 24.6348 34.8926C25.0302 34.4595 24.9976 33.7919 24.5645 33.3964L21.9395 31.0019V23.6934L23.6758 25.3984L23.5469 28.9492C23.5257 29.5353 23.9803 30.0237 24.5664 30.0449C24.8595 30.0563 25.1287 29.9489 25.3262 29.7637C25.5237 29.5789 25.6534 29.3204 25.6641 29.0274L25.7207 27.4064L27.3711 29.0254C27.7896 29.4363 28.4563 29.4331 28.8672 29.0103C29.2781 28.5918 29.2738 27.9232 28.8555 27.5123L27.2051 25.8932L28.8242 25.8051C29.4098 25.7748 29.8562 25.2735 29.8242 24.6879C29.7921 24.1022 29.2946 23.6578 28.709 23.6898L25.1621 23.8852L23.4727 22.2271H30.7148L31.9551 23.5864V30.7759C30.2533 32.0234 29.1523 34.0044 29.1523 36.231C29.1523 39.997 32.3061 43.0611 36.1816 43.0611C40.0572 43.0611 43.209 39.997 43.209 36.231C43.209 34.0045 42.108 32.0234 40.4062 30.7759V8.06293C40.4062 6.17438 38.9519 5.00049 36.6133 5.00049L35.9102 5.00187ZM35.9102 5.63464H36.6133C37.3503 5.63464 39.7559 5.80926 39.7559 8.06432V31.1327C39.9837 31.2835 40.1992 31.449 40.4043 31.6269C41.7076 32.7567 42.5293 34.4016 42.5293 36.2323C42.5296 39.6397 39.6861 42.4022 36.1797 42.4022C32.6732 42.4022 29.832 39.6398 29.832 36.2323C29.832 34.4017 30.6518 32.7567 31.9551 31.6269C32.1603 31.4492 32.3777 31.2833 32.6055 31.1327V8.06432C32.6055 6.27055 34.3861 5.63464 35.9102 5.63464ZM34.5547 8.16005C34.3753 8.16005 34.2305 8.3022 34.2305 8.47644C34.2305 8.65067 34.3753 8.79086 34.5547 8.79086H38.4551C38.6345 8.79086 38.7813 8.65105 38.7813 8.47644C38.7813 8.3022 38.6344 8.16005 38.4551 8.16005H34.5547ZM36.5059 9.42374C36.3264 9.42374 36.1797 9.56539 36.1797 9.74001C36.1797 9.91424 36.3265 10.0545 36.5059 10.0545H38.4551C38.6345 10.0545 38.7813 9.91424 38.7813 9.74001C38.7813 9.56577 38.6345 9.42374 38.4551 9.42374H36.5059ZM34.5547 10.6874C34.3753 10.6874 34.2305 10.8272 34.2305 11.0018C34.2305 11.1761 34.3753 11.3182 34.5547 11.3182H38.4551C38.6345 11.3182 38.7813 11.1761 38.7813 11.0018C38.7813 10.8276 38.6344 10.6874 38.4551 10.6874H34.5547ZM36.5059 11.9492C36.3264 11.9492 36.1797 12.0912 36.1797 12.2654C36.1797 12.4397 36.3265 12.5818 36.5059 12.5818H38.4551C38.6345 12.5818 38.7813 12.4397 38.7813 12.2654C38.7813 12.0912 38.6345 11.9492 38.4551 11.9492H36.5059ZM34.5547 13.2127C34.3753 13.2127 34.2305 13.3549 34.2305 13.5291C34.2305 13.7033 34.3753 13.8435 34.5547 13.8435H38.4551C38.6345 13.8435 38.7813 13.7033 38.7813 13.5291C38.7813 13.3549 38.6344 13.2127 38.4551 13.2127H34.5547ZM36.5059 14.4764C36.3264 14.4764 36.1797 14.6186 36.1797 14.7928C36.1797 14.967 36.3265 15.1072 36.5059 15.1072H38.4551C38.6345 15.1072 38.7813 14.967 38.7813 14.7928C38.7813 14.6186 38.6345 14.4764 38.4551 14.4764H36.5059ZM34.9902 15.9062C34.6908 15.9037 34.3446 16.026 33.9062 16.371V31.8807C32.2767 32.6886 31.1562 34.3361 31.1562 36.2323C31.1562 38.9242 33.4097 41.1132 36.1797 41.1132C38.9497 41.1132 41.2031 38.924 41.2031 36.2323C41.2032 34.3362 40.0846 32.6887 38.4551 31.8807V16.371C36.5296 17.5429 36.0596 15.9193 34.9902 15.9062ZM38.2578 34.4295C38.9591 34.4295 39.5293 34.9823 39.5293 35.6639C39.5293 36.3455 38.9591 36.8983 38.2578 36.8983C37.5565 36.8983 36.9883 36.3455 36.9883 35.6639C36.9883 34.9823 37.5558 34.4295 38.2578 34.4295Z" fill="#333333"/>
</svg>
