<svg width="48" height="48" viewBox="0 0 48 48" fill="none" xmlns="http://www.w3.org/2000/svg">
<path fill-rule="evenodd" clip-rule="evenodd" d="M33.9647 42.9501C32.7961 43.6182 31.4427 44 30.0002 44C25.5819 44 22.0002 40.4183 22.0002 36C22.0002 33.4504 23.1929 31.1793 25.0508 29.7144C25.0174 29.4811 25.0002 29.2425 25.0002 29V9C25.0002 6.23858 27.2387 4 30.0002 4C32.7616 4 35.0002 6.23858 35.0002 9V29C35.0002 29.2425 34.9829 29.4811 34.9495 29.7144C36.8074 31.1793 38.0002 33.4504 38.0002 36C38.0002 38.8725 36.4863 41.3914 34.2128 42.8023L34.0148 43.0003L33.9647 42.9501ZM26.2892 31.2849L26.2949 31.2803L34.7198 39.7051C34.5486 39.9229 34.3627 40.1285 34.1635 40.3205L25.6796 31.8366C25.8698 31.6394 26.0734 31.455 26.2892 31.2849ZM24.5346 33.52C24.4093 33.7957 24.3043 34.0825 24.2215 34.3785L31.6214 41.7784C31.9174 41.6955 32.2042 41.5905 32.4798 41.4652L24.5346 33.52ZM24.0977 37.0831C24.5435 39.5285 26.4717 41.4567 28.9171 41.9025L24.0977 37.0831ZM35.7055 37.8624L27.0044 29.1614C27.0016 29.1081 27.0002 29.0543 27.0002 29V27.9856L35.9307 36.916C35.8809 37.2408 35.8051 37.557 35.7055 37.8624ZM35.5446 33.7016L27.0002 25.1572V23.9855L32.9632 29.9486C33.0246 30.4687 33.2891 30.952 33.7112 31.2849C34.5134 31.9174 35.1488 32.7476 35.5446 33.7016ZM30.0002 6C28.3433 6 27.0002 7.34315 27.0002 9V21.0183C27.2381 21.0385 27.4722 21.0738 27.6974 21.1154C28.1882 21.206 28.7255 21.3454 29.2534 21.4824C29.2702 21.4868 29.287 21.4912 29.3038 21.4955C29.4215 21.5261 29.5386 21.5564 29.6545 21.586C30.7433 21.8635 31.857 22.1071 33.0002 22.0852V20H31.0002C30.4479 20 30.0002 19.5523 30.0002 19C30.0002 18.4477 30.4479 18 31.0002 18H33.0002V16H31.0002C30.4479 16 30.0002 15.5523 30.0002 15C30.0002 14.4477 30.4479 14 31.0002 14H33.0002V12H31.0002C30.4479 12 30.0002 11.5523 30.0002 11C30.0002 10.4477 30.4479 10 31.0002 10H33.0002V9C33.0002 7.34315 31.657 6 30.0002 6ZM33.0002 27.1571L29.4366 23.5935C29.8999 23.7086 30.3994 23.823 30.9275 23.9125L33.0002 25.9852V27.1571Z" fill="#333333"/>
<path d="M16.3303 12C16.3303 11.4477 15.8826 11 15.3303 11C14.778 11 14.3303 11.4477 14.3303 12V15.268L11.5002 13.6341C11.0219 13.3579 10.4103 13.5218 10.1342 14.0001C9.85806 14.4784 10.0219 15.09 10.5002 15.3661L13.3301 17L10.5002 18.6339C10.0219 18.91 9.858 19.5216 10.1341 19.9999C10.4103 20.4782 11.0219 20.6421 11.5002 20.3659L14.3303 18.7319V22C14.3303 22.5523 14.778 23 15.3303 23C15.8826 23 16.3303 22.5523 16.3303 22V18.7321L19.1605 20.3661C19.6388 20.6423 20.2504 20.4784 20.5265 20.0001C20.8026 19.5218 20.6388 18.9102 20.1605 18.6341L17.3301 17L20.1604 15.3659C20.6387 15.0898 20.8026 14.4782 20.5264 13.9999C20.2503 13.5216 19.6387 13.3577 19.1604 13.6339L16.3303 15.2678V12Z" fill="#333333"/>
</svg>
