<svg width="48" height="48" viewBox="0 0 48 48" fill="none" xmlns="http://www.w3.org/2000/svg">
<path fill-rule="evenodd" clip-rule="evenodd" d="M0 0H48V48H0V0ZM33 22.25C33 18.2459 30.0038 15 26.3077 15H21.9207C18.0985 15 15 18.3567 15 22.4975C15 26.5322 17.9474 28.8434 21.6692 28.99L21.9231 29V32C21.9231 32 33 31.25 33 22.25ZM15 10C16.1046 10 17 9.10457 17 8C17 6.89543 16.1046 6 15 6C13.8954 6 13 6.89543 13 8C13 9.10457 13.8954 10 15 10ZM11 14C11 12.3431 12.3431 11 14 11H16C17.6569 11 19 12.3431 19 14H11ZM33 10C34.1046 10 35 9.10457 35 8C35 6.89543 34.1046 6 33 6C31.8954 6 31 6.89543 31 8C31 9.10457 31.8954 10 33 10ZM29 14C29 12.3431 30.3431 11 32 11H34C35.6569 11 37 12.3431 37 14H29ZM24 38C25.1046 38 26 37.1046 26 36C26 34.8954 25.1046 34 24 34C22.8954 34 22 34.8954 22 36C22 37.1046 22.8954 38 24 38ZM20 42C20 40.3431 21.3431 39 23 39H25C26.6569 39 28 40.3431 28 42H20ZM38 27C39.1046 27 40 26.1046 40 25C40 23.8954 39.1046 23 38 23C36.8954 23 36 23.8954 36 25C36 26.1046 36.8954 27 38 27ZM34 31C34 29.3431 35.3431 28 37 28H39C40.6569 28 42 29.3431 42 31H34ZM10 27C11.1046 27 12 26.1046 12 25C12 23.8954 11.1046 23 10 23C8.89543 23 8 23.8954 8 25C8 26.1046 8.89543 27 10 27ZM6 31C6 29.3431 7.34315 28 9 28H11C12.6569 28 14 29.3431 14 31H6ZM23.9996 7C25.4502 7 26.8584 7.18169 28.2026 7.52356L27.4036 9.38792C26.31 9.13415 25.1705 9 23.9996 9C22.7997 9 21.6328 9.14088 20.5144 9.40699L19.9688 7.48072C21.2609 7.16653 22.6108 7 23.9996 7ZM38.8461 21.8459C38.5568 19.8345 37.8685 17.952 36.8639 16.2813L38.7177 15.4868C39.7892 17.3353 40.5224 19.4042 40.8328 21.6089L38.8461 21.8459ZM9.29351 15.4662C8.24333 17.272 7.51624 19.289 7.19141 21.4378L9.17872 21.6749C9.46918 19.8084 10.1038 18.0558 11.0156 16.484L9.29351 15.4662ZM35.8051 33.2547C34.1874 35.3154 32.0418 36.942 29.5721 37.9308L30.315 39.7882C33.1283 38.6619 35.5704 36.8054 37.407 34.4531L35.8051 33.2547ZM11.1483 35.1289L12.7544 33.9273C14.2942 35.6701 16.2328 37.0523 18.4274 37.9309L17.6844 39.7884C15.1462 38.7722 12.9101 37.1617 11.1483 35.1289Z" fill="#333333"/>
</svg>
