<svg width="48" height="48" viewBox="0 0 48 48" fill="none" xmlns="http://www.w3.org/2000/svg">
<path fill-rule="evenodd" clip-rule="evenodd" d="M48 0H0V48H48V0ZM12 7C13.3813 7 14.5 5.88125 14.5 4.5C14.5 3.11875 13.3813 2 12 2C10.6187 2 9.5 3.11875 9.5 4.5C9.5 5.88125 10.6187 7 12 7ZM12 8.25C10.3313 8.25 7 9.0875 7 10.75V12H17V10.75C17 9.0875 13.6687 8.25 12 8.25ZM8.5 25.5C8.5 26.8813 7.38125 28 6 28C4.61875 28 3.5 26.8813 3.5 25.5C3.5 24.1187 4.61875 23 6 23C7.38125 23 8.5 24.1187 8.5 25.5ZM1 31.75C1 30.0875 4.33125 29.25 6 29.25C7.66875 29.25 11 30.0875 11 31.75V33H1V31.75ZM26.5 38.5C26.5 39.8812 25.3813 41 24 41C22.6187 41 21.5 39.8812 21.5 38.5C21.5 37.1188 22.6187 36 24 36C25.3813 36 26.5 37.1188 26.5 38.5ZM19 44.75C19 43.0875 22.3312 42.25 24 42.25C25.6688 42.25 29 43.0875 29 44.75V46H19V44.75ZM38.5 4.5C38.5 5.88125 37.3812 7 36 7C34.6188 7 33.5 5.88125 33.5 4.5C33.5 3.11875 34.6188 2 36 2C37.3812 2 38.5 3.11875 38.5 4.5ZM31 10.75C31 9.0875 34.3312 8.25 36 8.25C37.6688 8.25 41 9.0875 41 10.75V12H31V10.75ZM42 28C43.3812 28 44.5 26.8813 44.5 25.5C44.5 24.1187 43.3812 23 42 23C40.6188 23 39.5 24.1187 39.5 25.5C39.5 26.8813 40.6188 28 42 28ZM42 29.25C40.3312 29.25 37 30.0875 37 31.75V33H47V31.75C47 30.0875 43.6688 29.25 42 29.25ZM14 24.3333V17.7333C14 17.33 14.33 17 14.7333 17H24.2667C24.67 17 25 17.33 25 17.7333V24.3333C25 24.7 24.6333 25.0667 24.2667 25.0667H24.0333C23.7186 25.0667 23.4222 25.2149 23.2333 25.4667L21.3333 28V26.0667C21.3333 25.5144 20.8856 25.0667 20.3333 25.0667H14.7333C14.33 25.0667 14 24.7367 14 24.3333ZM24 27.1778C24 26.9614 24.0702 26.7509 24.2 26.5778L24.5133 26.16C24.6518 25.9753 24.8692 25.8667 25.1 25.8667H25.4667C25.8333 25.8667 26.2 25.5 26.2 25.1333V20H34.2667C34.67 20 35 20.33 35 20.7333V27.3333C35 27.7367 34.67 28.0667 34.2667 28.0667H28.4C27.995 28.0667 27.6667 28.395 27.6667 28.8V31L25.6867 28.36C25.5482 28.1753 25.3308 28.0667 25.1 28.0667H24.7333C24.3667 28.0667 24 27.7 24 27.3333V27.1778ZM16.9335 5.28423C17.2863 5.84646 17.5614 6.4624 17.7438 7.117C19.6924 6.39465 21.8002 6 24 6C26.1279 6 28.1695 6.36922 30.0643 7.04709C30.1566 6.36931 30.3458 5.72239 30.6177 5.12077C28.5463 4.39477 26.3193 4 24 4C21.5123 4 19.1306 4.45421 16.9335 5.28423ZM39.3508 14.5955C40.5391 16.5309 41.3715 18.7081 41.7572 21.0363C42.0016 21.0123 42.2493 21 42.5 21C42.9409 21 43.3729 21.038 43.7929 21.111C43.4029 18.4153 42.4752 15.8936 41.1221 13.6582C40.5846 14.0504 39.9891 14.368 39.3508 14.5955ZM38.4104 34.788C38.9764 35.1568 39.5952 35.4513 40.2531 35.6576C37.9499 38.863 34.7219 41.3592 30.9597 42.7558C30.9863 42.5075 31 42.2554 31 42C31 41.5358 30.9548 41.0821 30.8686 40.6431C33.881 39.3985 36.4819 37.3598 38.4104 34.788ZM17 42C17 42.2554 17.0137 42.5075 17.0403 42.7558C13.3613 41.3901 10.1933 38.9729 7.90126 35.8693C8.60684 35.736 9.27749 35.5038 9.89827 35.1877C11.7918 37.5712 14.2768 39.4637 17.1314 40.6431C17.0452 41.0821 17 41.5357 17 42ZM6.24823 21.0041C5.52548 21.028 4.82861 21.1541 4.17163 21.3684C4.50268 18.8497 5.3024 16.4786 6.48036 14.3456C6.98936 14.7763 7.56072 15.1358 8.17898 15.4083C7.2453 17.124 6.58257 19.0084 6.24823 21.0041Z" fill="#333333"/>
</svg>
