<svg width="48" height="48" viewBox="0 0 48 48" fill="none" xmlns="http://www.w3.org/2000/svg">
<path fill-rule="evenodd" clip-rule="evenodd" d="M14.334 5.40045C13.9574 5.41959 13.5897 5.50195 13.2188 5.59186C12.8581 5.73738 12.5298 5.95 12.2539 6.21881C11.978 6.4879 11.7585 6.80689 11.6094 7.15826C11.46 7.5095 11.3845 7.88554 11.3848 8.26568C11.3852 9.0325 11.6986 9.76854 12.2559 10.3106C12.8131 10.8528 13.5675 11.1583 14.3555 11.1583C14.7459 11.1588 15.1333 11.0846 15.4941 10.9395C15.855 10.7945 16.1827 10.5812 16.459 10.3126C16.7353 10.044 16.9538 9.72406 17.1035 9.37311C17.2531 9.02201 17.3319 8.64569 17.332 8.26568C17.3324 7.88526 17.255 7.50977 17.1055 7.15826C16.9562 6.80689 16.7373 6.48776 16.4609 6.21881C16.1846 5.94986 15.8554 5.73529 15.4941 5.5899C15.0944 5.42455 14.7105 5.38131 14.334 5.40045ZM36.5312 5.40045C36.1547 5.41959 35.7869 5.50195 35.416 5.59186C35.0553 5.73738 34.7271 5.95 34.4512 6.21881C34.1753 6.4879 33.9558 6.80689 33.8066 7.15826C33.6572 7.5095 33.5818 7.88554 33.582 8.26568C33.5824 9.0325 33.8959 9.76854 34.4531 10.3106C35.0103 10.8528 35.7648 11.1583 36.5527 11.1583C36.9432 11.1588 37.3306 11.0846 37.6914 10.9395C38.0522 10.7945 38.3799 10.5812 38.6562 10.3126C38.9326 10.044 39.1511 9.72406 39.3008 9.37311C39.4503 9.02201 39.5292 8.64569 39.5293 8.26568C39.5297 7.88526 39.4523 7.50977 39.3027 7.15826C39.1535 6.80689 38.9345 6.48776 38.6582 6.21881C38.3819 5.94986 38.0526 5.73529 37.6914 5.5899C37.2917 5.42455 36.9078 5.38131 36.5312 5.40045ZM24.2207 9.78326C21.7071 9.79011 19.2235 10.296 16.9336 11.2676C17.3294 11.5562 17.6481 11.8849 17.877 12.2403C19.8847 11.4446 22.0409 11.0304 24.2207 11.0215C26.9764 11.0216 29.6881 11.6696 32.1074 12.9063C32.1338 12.4975 32.272 12.0949 32.5156 11.7169C29.9593 10.4502 27.1122 9.78657 24.2207 9.78326ZM14.1152 11.668C13.4121 11.684 12.7243 11.8729 12.1152 12.2169C11.4777 12.5767 10.9485 13.0936 10.5801 13.7169C10.2116 14.3401 10.0181 15.0479 10.0176 15.7676H14.2148H18.4102C18.41 15.0482 18.2154 14.3418 17.8477 13.7188C17.4799 13.0954 16.9516 12.577 16.3145 12.2169C15.6472 11.8402 14.8857 11.6501 14.1152 11.668ZM36.3125 11.668C35.6093 11.684 34.9216 11.8729 34.3125 12.2169C33.6749 12.5767 33.1458 13.0936 32.7773 13.7169C32.4089 14.3401 32.2154 15.0479 32.2148 15.7676H36.4121H40.6074C40.6073 15.0482 40.4127 14.3418 40.0449 13.7188C39.6771 13.0954 39.1489 12.577 38.5117 12.2169C37.8444 11.8402 37.0829 11.6501 36.3125 11.668ZM38.4648 16.4981C38.1547 16.5332 37.8403 16.5508 37.5254 16.5508C37.2816 16.5496 37.0382 16.5379 36.7969 16.5157C38.1217 17.9914 39.1399 19.6866 39.7988 21.5137C39.8788 21.5088 39.9589 21.5056 40.0391 21.504C40.4421 21.5052 40.8439 21.5477 41.2383 21.6309C40.6379 19.7823 39.6995 18.0456 38.4648 16.4981ZM9.97461 16.5137C8.72791 18.0741 7.78261 19.8271 7.18164 21.6934C7.67215 21.486 8.18728 21.3583 8.71094 21.3145C9.31807 19.7216 10.2003 18.233 11.3223 16.9083C10.8471 16.8169 10.3937 16.6842 9.97461 16.5137ZM24.5898 16.668C24.4182 16.6645 24.246 16.6666 24.0742 16.6719C23.1094 16.6982 22.1574 16.8631 21.2734 17.1583C20.3894 17.4535 19.5905 17.8737 18.9219 18.3926C18.2532 18.9116 17.7285 19.5199 17.377 20.1837C17.0256 20.8476 16.8557 21.5523 16.875 22.2598C16.8999 23.1079 17.196 23.9368 17.7422 24.6778V24.6837L22.0605 31.8751L24.4668 27.4415C26.3972 27.3692 28.224 26.7427 29.5527 25.6973C30.8812 24.6519 31.6051 23.2716 31.5664 21.8555C31.529 20.4924 30.7886 19.1987 29.4941 18.2364C28.1998 17.274 26.4465 16.713 24.5898 16.668ZM8.53906 22.2188C8.16252 22.2379 7.7928 22.3223 7.42188 22.4122C7.06119 22.5577 6.73293 22.7703 6.45703 23.0391C6.18113 23.3082 5.96164 23.6272 5.8125 23.9786C5.66308 24.3298 5.58761 24.7059 5.58789 25.086C5.58831 25.8528 5.90176 26.5889 6.45898 27.1309C7.0162 27.6731 7.77065 27.9766 8.55859 27.9766C8.94902 27.9772 9.33644 27.903 9.69727 27.7579C10.0581 27.6129 10.3858 27.3996 10.6621 27.1309C10.9384 26.8624 11.1589 26.5444 11.3086 26.1934C11.4581 25.8423 11.535 25.466 11.5352 25.086C11.5356 24.7056 11.4581 24.3281 11.3086 23.9766C11.1593 23.6252 10.9404 23.3061 10.6641 23.0372C10.3877 22.7682 10.0585 22.5556 9.69727 22.4102C9.29752 22.2449 8.9156 22.1997 8.53906 22.2188ZM40.1602 22.2188C39.7836 22.2379 39.4139 22.3223 39.043 22.4122C38.6823 22.5577 38.354 22.7703 38.0781 23.0391C37.8022 23.3082 37.5847 23.6272 37.4355 23.9786C37.2861 24.3298 37.2087 24.7059 37.209 25.086C37.2094 25.8528 37.5229 26.5889 38.0801 27.1309C38.6373 27.6731 39.3937 27.9766 40.1816 27.9766C40.5721 27.9772 40.9575 27.903 41.3184 27.7579C41.6792 27.6129 42.0069 27.3996 42.2832 27.1309C42.5595 26.8624 42.78 26.5444 42.9297 26.1934C43.0792 25.8423 43.1561 25.466 43.1562 25.086C43.1567 24.7056 43.0792 24.3281 42.9297 23.9766C42.7804 23.6252 42.5615 23.3061 42.2852 23.0372C42.0088 22.7682 41.6816 22.5556 41.3203 22.4102C40.9206 22.2449 40.5367 22.1997 40.1602 22.2188ZM8.31836 28.4883C7.6152 28.5043 6.92742 28.6932 6.31836 29.0372C5.6808 29.397 5.15167 29.9139 4.7832 30.5372C4.41474 31.1604 4.22126 31.8682 4.2207 32.5879H8.41797H12.6133C12.6131 31.8685 12.4186 31.1601 12.0508 30.5372C11.683 29.9138 11.1547 29.3973 10.5176 29.0372C9.85028 28.6605 9.08879 28.4704 8.31836 28.4883ZM39.9414 28.4883C39.2382 28.5043 38.5505 28.6932 37.9414 29.0372C37.3038 29.397 36.7728 29.9139 36.4043 30.5372C36.0358 31.1604 35.8424 31.8682 35.8418 32.5879H40.0391H44.2344C44.2342 31.8685 44.0396 31.1601 43.6719 30.5372C43.3041 29.9138 42.7758 29.3973 42.1387 29.0372C41.4714 28.6605 40.7118 28.4704 39.9414 28.4883ZM7.92773 33.1524C8.98213 35.4057 10.5552 37.4125 12.5343 39.0289C14.5134 40.6454 16.8494 41.8314 19.375 42.502C19.2991 42.2885 19.2598 42.0704 19.2578 41.8516C19.2585 41.6389 19.2945 41.4268 19.3652 41.2188C17.2248 40.5986 15.2418 39.5756 13.5375 38.2125C11.8332 36.8494 10.4434 35.1748 9.45312 33.2911C9.3426 33.2994 9.23187 33.3039 9.12109 33.3047C8.71944 33.3029 8.3192 33.2518 7.92773 33.1524ZM39.0215 33.2032C38.0192 35.1337 36.5985 36.847 34.8502 38.2339C33.1018 39.6208 31.0641 40.6507 28.8672 41.2579C28.9311 41.4533 28.9645 41.6521 28.9668 41.8516C28.9648 42.0872 28.9196 42.3218 28.832 42.5508C31.3784 41.9087 33.7407 40.7441 35.7482 39.1413C37.7556 37.5385 39.358 35.5376 40.4395 33.2833C40.3062 33.2924 40.1726 33.2969 40.0391 33.2969C39.6978 33.2952 39.3573 33.2638 39.0215 33.2032ZM24.3418 33.8282C23.9653 33.8473 23.5955 33.9316 23.2246 34.0215C22.8639 34.1671 22.5357 34.3797 22.2598 34.6485C21.9839 34.9176 21.7663 35.2366 21.6172 35.5879C21.4678 35.9392 21.3903 36.3152 21.3906 36.6954C21.391 37.4622 21.7045 38.1982 22.2617 38.7403C22.8189 39.2825 23.5753 39.586 24.3633 39.586C24.7537 39.5866 25.1392 39.5124 25.5 39.3672C25.8608 39.2223 26.1905 39.0109 26.4668 38.7422C26.7431 38.4737 26.9616 38.1537 27.1113 37.8028C27.2609 37.4517 27.3378 37.0754 27.3379 36.6954C27.3383 36.315 27.2628 35.9375 27.1133 35.586C26.964 35.2346 26.7431 34.9155 26.4668 34.6465C26.1905 34.3776 25.8632 34.165 25.502 34.0196C25.1022 33.8542 24.7183 33.809 24.3418 33.8282ZM24.123 40.0977C23.4199 40.1137 22.7321 40.3025 22.123 40.6465C21.4855 41.0064 20.9564 41.5233 20.5879 42.1465C20.2194 42.7698 20.024 43.4776 20.0234 44.1973H24.2227H28.416C28.4159 43.4779 28.2232 42.7695 27.8555 42.1465C27.4877 41.5232 26.9575 41.0067 26.3203 40.6465C25.653 40.2699 24.8935 40.0798 24.123 40.0977Z" fill="#333333"/>
</svg>
