<svg width="48" height="48" viewBox="0 0 48 48" fill="none" xmlns="http://www.w3.org/2000/svg">
<path fill-rule="evenodd" clip-rule="evenodd" d="M28.4785 4.00206C28.0717 3.98266 27.6569 4.11902 27.3301 4.41612C23.7871 7.61417 22.7221 5.19124 20.8613 6.82432L15.2422 11.9317C14.5885 12.5259 14.5406 13.53 15.1348 14.1837L16.9355 16.1642C17.5297 16.8179 18.5338 16.8677 19.1875 16.2735L21.9473 13.7638L23.0977 12.7189L39.8457 31.1446C40.6362 32.0143 41.8392 32.1984 42.543 31.5587C43.2468 30.919 43.1772 29.7057 42.3867 28.836L25.6367 10.4103L29.5469 6.85557C30.2006 6.26137 30.2465 5.25731 29.6523 4.60362L29.5801 4.52354C29.283 4.19669 28.8854 4.02146 28.4785 4.00206ZM29.2559 4.9044C29.7486 5.4465 29.7064 6.04179 28.9141 6.75596L25.2949 10.045L24.9277 10.379C24.942 10.3939 24.9567 10.4066 24.9707 10.422L25.2656 10.7462L41.9668 29.1212C42.5986 29.8163 42.7083 30.7395 42.2109 31.1915C41.7136 31.6436 40.8037 31.4471 40.1719 30.7521L23.4707 12.379L23.1758 12.0528C23.1618 12.0374 23.1521 12.0216 23.1387 12.006L22.7656 12.3439L21.7578 13.2599L19.1582 15.6231C18.4101 16.26 17.8589 16.3733 17.1562 15.6544L15.6641 14.0138C15.0001 13.1955 15.1994 12.596 15.8867 12.0255L21.1777 7.21495C21.3096 7.08925 21.434 6.96615 21.5833 6.9095C22.8097 6.44405 24.2284 7.07552 25.775 6.1674C26.3 5.85914 26.925 5.46542 27.6191 4.81846C28.1683 4.348 28.6871 4.36351 29.2559 4.9044ZM12.2129 25.131L4.97266 25.1329V25.6466H12.2148V31.4591H4.97266V31.9728H6.21484V37.7814H4.97266V38.295H12.2148V44.0001H12.7285V38.295H25.0703V44.0001H25.584V38.2931H38.0469V43.9981H38.5605V38.2931H43.0273V37.7794H32.5664V31.4649H32.5586V31.4571H12.7285V25.131H12.2129ZM6.72852 31.9728H19.0742V37.7814H6.72852V31.9728ZM19.5859 31.9728H32.0527V37.7814H19.5859V31.9728Z" fill="#333333"/>
</svg>
