<svg width="48" height="48" viewBox="0 0 48 48" fill="none" xmlns="http://www.w3.org/2000/svg">
<path d="M9.48 18H26.54C27.08 18 27.52 17.56 27.52 17.02V16.98C27.52 16.44 27.08 16 26.54 16H26C26 13.04 24.38 10.5 22 9.1V11C22 11.56 21.56 12 21 12C20.44 12 20 11.56 20 11V8.28C19.36 8.12 18.7 8 18 8C17.3 8 16.64 8.12 16 8.28V11C16 11.56 15.56 12 15 12C14.44 12 14 11.56 14 11V9.1C11.62 10.5 10 13.04 10 16H9.48C8.94 16 8.5 16.44 8.5 16.98V17.04C8.5 17.56 8.94 18 9.48 18Z" fill="#333333"/>
<path d="M18 30C12.66 30 2 32.68 2 38V42H9.44984V36C9.44984 35.4477 9.89756 35 10.4498 35H28.5C29.0523 35 29.5 34.5519 29.5 33.9996V33.2923C29.5 32.9138 29.2876 32.5666 28.9437 32.4086C25.4517 30.8051 20.9268 30 18 30Z" fill="#333333"/>
<path d="M25.72 20C24.82 23.44 21.72 26 18 26C14.28 26 11.18 23.44 10.28 20H25.72Z" fill="#333333"/>
<path d="M46 23.2995C46 22.7473 45.5523 22.2996 45.0001 22.2995L39.7687 22.299C39.2164 22.299 38.7686 22.7467 38.7686 23.299V27C38.7686 27.5523 39.2164 28 39.7686 28H45C45.5523 28 46 27.5523 46 27V23.2995Z" fill="#333333"/>
<path d="M46 29.9234C46 29.581 45.7225 29.3034 45.38 29.3032C45.0374 29.3031 44.7596 29.5808 44.7596 29.9234V34.3798C44.7596 34.7223 45.0373 35 45.3798 35C45.7223 35 46 34.7223 46 34.3798V29.9234Z" fill="#333333"/>
<path d="M43.2467 30.3034C43.2467 29.7511 42.799 29.3034 42.2467 29.3034L31.9201 29.3031C31.3678 29.3031 30.9201 29.7508 30.9201 30.3031V34C30.9201 34.5523 31.3678 35 31.9201 35H42.2467C42.799 35 43.2467 34.5523 43.2467 34V30.3034Z" fill="#333333"/>
<path d="M46 37.4049C46 36.8527 45.5523 36.4049 45 36.4049H39.7686C39.2164 36.4049 38.7686 36.8527 38.7686 37.4049V41C38.7686 41.5523 39.2164 42 39.7686 42H45C45.5523 42 46 41.5523 46 41V37.4049Z" fill="#333333"/>
<path d="M37.2557 37.4049C37.2557 36.8527 36.808 36.4049 36.2557 36.4049H25.932C25.3798 36.4049 24.932 36.8527 24.932 37.4049V41C24.932 41.5523 25.3798 42 25.932 42H36.2557C36.808 42 37.2557 41.5523 37.2557 41V37.4049Z" fill="#333333"/>
<path d="M23.4198 37.4049C23.4198 36.8527 22.9721 36.4049 22.4198 36.4049H16.9596L16.9587 36.4059L16.9577 36.4068L16.4457 36.4049H11.9734C11.4212 36.4049 10.9734 36.8527 10.9734 37.4049V41C10.9734 41.5523 11.4211 42 11.9734 42H22.4198C22.9721 42 23.4198 41.5523 23.4198 41V37.4049Z" fill="#333333"/>
</svg>
