<svg width="48" height="48" viewBox="0 0 48 48" fill="none" xmlns="http://www.w3.org/2000/svg">
<path d="M25.625 16V16.375H26H26.54C26.8729 16.375 27.145 16.6471 27.145 16.98V17.02C27.145 17.3529 26.8729 17.625 26.54 17.625H9.48C9.14207 17.625 8.875 17.3479 8.875 17.04V16.98C8.875 16.6471 9.14711 16.375 9.48 16.375H10H10.375V16C10.375 13.4229 11.6644 11.1768 13.625 9.78856V11C13.625 11.7671 14.2329 12.375 15 12.375C15.7671 12.375 16.375 11.7671 16.375 11V8.57609C16.9063 8.45609 17.4422 8.375 18 8.375C18.5578 8.375 19.0937 8.45609 19.625 8.57609V11C19.625 11.7671 20.2329 12.375 21 12.375C21.7671 12.375 22.375 11.7671 22.375 11V9.78856C24.3356 11.1768 25.625 13.4229 25.625 16ZM17.1147 36.7799H22.4198C22.765 36.7799 23.0448 37.0598 23.0448 37.4049V41C23.0448 41.3452 22.765 41.625 22.4198 41.625H11.9734C11.6283 41.625 11.3484 41.3452 11.3484 41V37.4049C11.3484 37.0598 11.6283 36.7799 11.9734 36.7799L16.4444 36.7799L16.4457 36.7799L16.9564 36.7818L17.1123 36.7824L17.1147 36.7799ZM2.375 38C2.375 36.8077 2.96928 35.7356 4.0034 34.7812C5.04007 33.8244 6.49359 33.0114 8.13695 32.3531C11.4243 31.0362 15.3769 30.375 18 30.375C20.8782 30.375 25.349 31.1706 28.7872 32.7494C28.9916 32.8433 29.125 33.0532 29.125 33.2923V33.9996C29.125 34.345 28.845 34.625 28.5 34.625H10.4498C9.69045 34.625 9.07484 35.2406 9.07484 36V41.625H2.375V38ZM25.2181 20.375C24.2112 23.4174 21.3708 25.625 18 25.625C14.6292 25.625 11.7887 23.4174 10.7818 20.375H25.2181ZM45.0001 22.6745C45.3452 22.6746 45.625 22.9544 45.625 23.2995V27C45.625 27.3452 45.3452 27.625 45 27.625H39.7686C39.4235 27.625 39.1436 27.3452 39.1436 27V23.299C39.1436 22.9538 39.4235 22.674 39.7687 22.674L45.0001 22.6745ZM45.3799 29.6782C45.5153 29.6783 45.625 29.788 45.625 29.9234V34.3798C45.625 34.5152 45.5152 34.625 45.3798 34.625C45.2444 34.625 45.1346 34.5152 45.1346 34.3798V29.9234C45.1346 29.788 45.2445 29.6782 45.3799 29.6782ZM42.2467 29.6784C42.5919 29.6784 42.8717 29.9582 42.8717 30.3034V34C42.8717 34.3452 42.5919 34.625 42.2467 34.625H31.9201C31.5749 34.625 31.2951 34.3452 31.2951 34V30.3031C31.2951 29.9579 31.5749 29.6781 31.9201 29.6781L42.2467 29.6784ZM45 36.7799C45.3452 36.7799 45.625 37.0598 45.625 37.4049V41C45.625 41.3452 45.3452 41.625 45 41.625H39.7686C39.4235 41.625 39.1436 41.3452 39.1436 41V37.4049C39.1436 37.0598 39.4235 36.7799 39.7686 36.7799H45ZM36.2557 36.7799C36.6009 36.7799 36.8807 37.0598 36.8807 37.4049V41C36.8807 41.3452 36.6009 41.625 36.2557 41.625H25.932C25.5869 41.625 25.307 41.3452 25.307 41V37.4049C25.307 37.0598 25.5869 36.7799 25.932 36.7799H36.2557Z" stroke="#333333" stroke-width="0.75"/>
</svg>
