<svg width="48" height="48" viewBox="0 0 48 48" fill="none" xmlns="http://www.w3.org/2000/svg">
<path fill-rule="evenodd" clip-rule="evenodd" d="M28.4785 4.00193C28.0717 3.98253 27.6569 4.1189 27.3301 4.416C23.7871 7.61405 22.7221 5.19112 20.8613 6.8242L15.2422 11.9316C14.5885 12.5258 14.5406 13.5299 15.1348 14.1836L16.9355 16.164C17.5297 16.8177 18.5338 16.8676 19.1875 16.2734L21.9473 13.7637L23.0977 12.7187L39.8457 31.1445C40.6362 32.0141 41.8392 32.1983 42.543 31.5586C43.2468 30.9188 43.1772 29.7056 42.3867 28.8359L25.6367 10.4101L29.5469 6.85545C30.2006 6.26126 30.2465 5.25719 29.6523 4.6035L29.5801 4.52342C29.283 4.19657 28.8854 4.02133 28.4785 4.00193ZM4.97266 25.6465V31.459H12.2148V25.6465H4.97266ZM4.97266 31.9726V37.7812H6.21484V31.9726H4.98242H4.97266ZM6.72852 31.9726V37.7812H19.0723V31.9726H6.72852ZM19.5859 31.9726V37.7812H32.0527V31.9726H19.5859ZM4.97266 38.2949V44H12.2148V38.2949H4.97266ZM12.7285 38.2949V44H25.0703V38.2949H12.7285ZM25.582 38.2949V44H38.0469V38.2949H32.5664L32.0527 38.2969V38.2949H25.582ZM38.5605 38.2949V44H43.0273V38.2949H43.0176H38.5605Z" fill="#333333"/>
</svg>
