<svg width="48" height="48" viewBox="0 0 48 48" fill="none" xmlns="http://www.w3.org/2000/svg">
<path fill-rule="evenodd" clip-rule="evenodd" d="M28.4785 4.00206C28.0717 3.98266 27.6569 4.11902 27.3301 4.41612C23.7871 7.61417 22.7221 5.19124 20.8613 6.82432L15.2422 11.9317C14.5885 12.5259 14.5406 13.53 15.1348 14.1837L16.9355 16.1642C17.5297 16.8179 18.5338 16.8677 19.1875 16.2735L21.9473 13.7638L23.0977 12.7189L39.8457 31.1446C40.6362 32.0143 41.8392 32.1984 42.543 31.5587C43.2468 30.919 43.1772 29.7057 42.3867 28.836L25.6367 10.4103L29.5469 6.85557C30.2006 6.26137 30.2465 5.25731 29.6523 4.60362L29.5801 4.52354C29.283 4.19669 28.8854 4.02146 28.4785 4.00206ZM4.97266 25.6466V31.4591H12.2148V25.6466H4.97266ZM4.97266 31.9728V37.7814H6.21484V31.9728H4.98242H4.97266ZM6.72852 31.9728V37.7814H19.0723V31.9728H6.72852ZM19.5859 31.9728V37.7814H32.0527V31.9728H19.5859ZM4.97266 38.295V44.0001H12.2148V38.295H4.97266ZM12.7285 38.295V44.0001H25.0703V38.295H12.7285ZM25.582 38.295V44.0001H38.0469V38.295H32.5664L32.0527 38.297V38.295H25.582ZM38.5605 38.295V44.0001H43.0273V38.295H43.0176H38.5605Z" fill="#333333"/>
</svg>
