<svg width="48" height="48" viewBox="0 0 48 48" fill="none" xmlns="http://www.w3.org/2000/svg">
<path d="M0 0V48H48V0H0ZM28.4785 4.00195C28.8854 4.02135 29.283 4.19659 29.5801 4.52344L29.6523 4.60352C30.2465 5.25721 30.2006 6.26128 29.5469 6.85547L25.6367 10.4102L42.3867 28.8359C43.1772 29.7056 43.2468 30.9189 42.543 31.5586C41.8392 32.1983 40.6362 32.0142 39.8457 31.1445L23.0977 12.7188L21.9473 13.7637L19.1875 16.2734C18.5338 16.8676 17.5297 16.8178 16.9355 16.1641L15.1348 14.1836C14.5406 13.5299 14.5885 12.5258 15.2422 11.9316L20.8613 6.82422C22.7221 5.19114 23.7871 7.61407 27.3301 4.41602C27.6569 4.11892 28.0717 3.98255 28.4785 4.00195ZM4.97266 25.6465H12.2148V31.459H4.97266V25.6465ZM4.97266 31.9727H4.98242H6.21484V37.7812H4.97266V31.9727ZM6.72852 31.9727H19.0723V37.7812H6.72852V31.9727ZM19.5859 31.9727H32.0527V37.7812H19.5859V31.9727ZM4.97266 38.2949H12.2148V44H4.97266V38.2949ZM12.7285 38.2949H25.0703V44H12.7285V38.2949ZM25.582 38.2949H32.0527V38.2969L32.5664 38.2949H38.0469V44H25.582V38.2949ZM38.5605 38.2949H43.0176H43.0273V44H38.5605V38.2949Z" fill="#333333"/>
</svg>
