<svg width="48" height="48" viewBox="0 0 48 48" fill="none" xmlns="http://www.w3.org/2000/svg">
<path d="M23 4C13.62 4 6 11.62 6 21C6 30.38 13.62 38 23 38H24V44C33.72 39.32 40 30 40 21C40 11.62 32.38 4 23 4ZM25 31C25 32.1046 24.1046 33 23 33C21.8954 33 21 32.1046 21 31C21 29.8954 21.8954 29 23 29C24.1046 29 25 29.8954 25 31ZM25.4344 24.0646C24.9536 25.059 24.1046 26 23 26C21.8954 26 20.9601 25.0872 21.2208 24.0138C22.3034 19.5555 27 19.539 27 16C27 13.8 25.2 12 23 12C21.4933 12 20.1742 12.8443 19.4924 14.0831C18.9599 15.0509 18.1046 16 17 16C15.8954 16 14.9743 15.0907 15.2466 14.0202C16.1271 10.5585 19.2634 8 23 8C27.42 8 31 11.58 31 16C31 20.1768 26.8131 21.2134 25.4344 24.0646Z" fill="#333333"/>
</svg>
