<svg width="48" height="48" viewBox="0 0 48 48" fill="none" xmlns="http://www.w3.org/2000/svg">
<path d="M20.6263 17.2759C21.1551 17.1167 21.4548 16.559 21.2956 16.0301C21.1364 15.5013 20.5787 15.2016 20.0498 15.3608C18.3126 15.8838 16.7882 16.9489 15.6997 18.4003C14.6112 19.8518 14.0156 21.6134 14.0002 23.4276C13.9955 23.9799 14.4393 24.4314 14.9916 24.4361C15.5439 24.4408 15.9954 23.9969 16.0001 23.4447C16.0119 22.0573 16.4673 20.7102 17.2997 19.6003C18.1321 18.4903 19.2978 17.6758 20.6263 17.2759Z" fill="#333333"/>
<path fill-rule="evenodd" clip-rule="evenodd" d="M4.70088 27.3819C5.37146 26.1211 6.57192 25.1345 7.94504 24.6442C8.09975 22.7536 8.65253 20.681 9.6108 18.707C11.8423 14.1103 16.3635 9.8999 23.3939 9.8999C30.3351 9.8999 35.2094 13.5149 37.8281 17.8706C39.1318 20.0392 39.8869 22.4057 40.0609 24.6248L40.0635 24.6578C41.3302 25.2552 42.5095 26.3056 43.1998 27.5885C43.9348 28.9541 44.136 30.6449 43.1898 32.2563C42.2741 33.8156 40.3917 35.11 37.4011 36.0191C34.3932 36.9335 30.1336 37.4999 24.2531 37.4999C18.3675 37.4999 14.0473 36.9013 10.9577 35.9476C7.88332 34.9986 5.9192 33.6629 4.9167 32.103C3.88188 30.4928 3.95923 28.7763 4.70088 27.3819ZM10.101 25.571C10.0737 27.4002 10.5261 28.6388 11.1213 29.1986C11.5639 29.6148 11.5853 30.3109 11.1691 30.7535C10.7529 31.196 10.0567 31.2174 9.61418 30.8012C8.61648 29.863 8.10821 28.4146 7.9528 26.8335C7.31033 27.2005 6.78238 27.7274 6.46666 28.321C6.03653 29.1297 5.9872 30.0694 6.59921 31.0217C7.24355 32.0243 8.69976 33.1575 11.5476 34.0366C14.3803 34.911 18.4843 35.4999 24.2531 35.4999C30.0272 35.4999 34.0707 34.9412 36.8193 34.1056C39.5852 33.2648 40.9128 32.1842 41.4652 31.2435C41.987 30.3548 41.9146 29.4206 41.4387 28.5363C41.1116 27.9285 40.6046 27.375 40.021 26.9497C39.8582 28.3022 39.4392 29.5635 38.7268 30.6164C38.3863 31.1195 37.7024 31.2514 37.1993 30.9109C36.6961 30.5705 36.5643 29.8866 36.9047 29.3834C37.6563 28.2727 38.0144 26.6676 37.8676 24.7968C37.7218 22.9378 37.0813 20.8982 35.9426 19.0042C33.6764 15.2349 29.479 12.0999 23.3939 12.0999C17.3982 12.0999 13.5455 15.6395 11.5899 19.6678C10.6083 21.6898 10.1276 23.7979 10.101 25.571Z" fill="#333333"/>
</svg>
