<?xml version="1.0" encoding="UTF-8" standalone="no"?>
<!-- Created with Inkscape (http://www.inkscape.org/) -->
<svg id="svg8" xmlns:rdf="http://www.w3.org/1999/02/22-rdf-syntax-ns#" xmlns="http://www.w3.org/2000/svg" xmlns:osb="http://www.openswatchbook.org/uri/2009/osb" height="48" width="48" version="1.1" xmlns:cc="http://creativecommons.org/ns#" viewBox="0 0 12.7 12.7" xmlns:dc="http://purl.org/dc/elements/1.1/">
 <title id="title4753">UIO-icon</title>
 <metadata id="metadata5">
  <rdf:RDF>
   <cc:Work rdf:about="">
    <dc:format>image/svg+xml</dc:format>
    <dc:type rdf:resource="http://purl.org/dc/dcmitype/StillImage"/>
    <dc:title>UIO-icon</dc:title>
    <dc:creator>
     <cc:Agent>
      <dc:title>Joaquín Urbano</dc:title>
     </cc:Agent>
    </dc:creator>
    <dc:rights>
     <cc:Agent>
      <dc:title>GPL</dc:title>
     </cc:Agent>
    </dc:rights>
   </cc:Work>
  </rdf:RDF>
 </metadata>
 <g id="layer1" transform="translate(0,-284.3)">
  <path id="rect3210" d="m24.004 4.373c-3.609 0.0008-6.562 0.5348-6.682 1.211h-0.011v0.0469 3.6191 0.0039h0.003c0.035 0.4813 3.019 0.8711 6.692 0.8711 3.672 0 6.659-0.3899 6.693-0.8711h0.002v-0.0039-3.6191-0.0469h-0.008c-0.12-0.677-3.077-1.2105-6.687-1.211h-0.002zm2.988 0.4551c1.678 0.1224 2.701 0.3433 2.703 0.5781 0 0.3743-2.549 0.6758-5.691 0.6758s-5.687-0.3019-5.688-0.6758c0.003-0.224 0.937-0.4333 2.498-0.5585-0.12 0.0647-0.182 0.1434-0.183 0.2187 0 0.3743 1.471 0.6758 3.285 0.6758 1.814-0.0001 3.285-0.3013 3.285-0.6758-0.001-0.0808-0.071-0.1622-0.209-0.2383zm-9.166 1.0762c2.031 0.8882 10.281 0.9323 12.352 0l0.008 3.1543c-1.779 0.6499-9.829 0.8164-12.35-0.0137l-0.01-3.1406zm4.028 1.0078v2.377h0.32v-2.377h-0.32zm0.662 0v2.377h0.32v-2.377h-0.32zm0.662 0v2.377h0.32v-2.377h-0.32zm0.662 0v2.377h0.32v-2.377h-0.32zm0.662 0v2.377h0.32v-2.377h-0.32zm0.662 0v2.377h0.32v-2.377h-0.32zm0.662 0v2.377h0.32v-2.377h-0.32zm-7.283 3.1819c0.005 0.296 0.067 0.625 0.512 1.183l-3.244 1.399c-0.769 0.311-1.006 0.825-1.075 1.238v0.635 0.205 2.551 9.006 0.097 0.002 1.354 0.22 0.553 0.27 2.943 0.086 9.627 0.012h0.004c0.042 1.192 4.175 2.152 9.264 2.152 5.039 0 9.14-0.943 9.26-2.119v-27.426c-0.051-0.415-0.267-1.001-1.166-1.361l-3.483-1.397c0.367-0.324 0.583-0.758 0.764-1.215-1.22 0.217-3.172 0.356-5.375 0.356-2.257 0-4.246-0.145-5.459-0.369l-0.002-0.002zm0.73 0.619c2.421 0.329 6.571 0.397 9.123 0.047l-0.656 0.771 4.151 1.657c1.033 0.39 0.849 1.03 0.863 1.292v0.174c-1.424 0.815-4.94 1.411-8.697 1.412-3.861-0.001-7.442-0.566-8.793-1.414-0.014-0.249-0.153-1.115 0.566-1.418l4.049-1.767-0.606-0.754zm-4.027 4.508c1.374 0.862 4.952 1.362 8.754 1.363 3.799 0 7.373-0.477 8.746-1.344l-0.008 2.401c-1.389 0.831-4.926 1.375-8.734 1.377-3.805-0.002-7.362-0.592-8.754-1.422l-0.004-2.375zm0.004 3.006c2.797 1.078 5.702 1.35 8.773 1.314 3.934-0.047 7.494-0.572 8.723-1.314l-0.002 16.658c-1.882 1.22-5.862 2.041-8.678 2.011-3.479-0.037-6.743-0.73-8.808-2.011l-0.008-16.658zm8.84 2.498v0.004c-0.062-0.001-0.125-0.001-0.188 0-1.924 0.025-3.764 0.799-5.127 2.158-2.893 2.885-2.899 7.571-0.013 10.465 2.885 2.89 7.569 2.895 10.463 0.009 2.893-2.885 2.899-7.567 0.013-10.461-1.368-1.371-3.216-2.147-5.148-2.175zm-0.117 1.511v0.002c0.086 0 0.173 0.004 0.259 0.006 1.483 0.058 2.891 0.671 3.94 1.721 2.095 2.106 2.292 5.445 0.461 7.785l-8.246-8.273c1.027-0.8 2.289-1.237 3.586-1.241zm2.845 2.006c-1.076-0.006-2.665 0.557-2.33 2.598-0.064 0.036-0.102 0.084-0.107 0.152l0.724 0.711c0.032 0 0.058-0.014 0.073-0.055 2.905 0.614 3.089-2.831 2.521-3.187-0.118-0.123-0.46-0.212-0.881-0.215v-0.004zm-7.453 0.26l8.248 8.271c-2.346 1.825-5.683 1.615-7.783-0.488-2.095-2.106-2.296-5.443-0.465-7.783zm2.961 3.631c-0.651 0.342 0.69 2.017-0.209 2.215-2.016-0.014-1.827 0.894-1.812 1.564 0.21-0.955 0.376-1.119 1.812-1.115 0.736-0.144 1.3-0.493 0.914-1.99l-0.705-0.674zm-7.076 7.346c1.384 0.832 5.009 1.941 8.82 1.943 3.802-0.001 7.278-1.114 8.674-1.943l-0.002 5.169c-1.744-0.835-5.031-1.482-8.83-1.482-3.802 0.001-7.266 0.653-8.662 1.482v-5.169zm8.982 4.201c3.717 0.011 8.411 1.172 8.569 1.652 0.001 0.055 0.003 0.122-0.041 0.166-0.923 0.919-4.382 1.617-8.748 1.617-4.314 0-8.109-0.702-8.754-1.609-0.071-0.1-0.086-0.18-0.008-0.32 1.354-1.228 5.265-1.522 8.982-1.506z" fill-rule="evenodd" transform="matrix(.26458 0 0 .26458 0 284.3)" fill="#333"/>
 </g>
</svg>
