<svg width="48" height="48" viewBox="0 0 48 48" fill="none" xmlns="http://www.w3.org/2000/svg">
<path d="M24.5 38V37.5H24H23C13.8961 37.5 6.5 30.1039 6.5 21C6.5 11.8961 13.8961 4.5 23 4.5C32.1039 4.5 39.5 11.8961 39.5 21C39.5 29.5546 33.6664 38.4767 24.5 43.1926V38ZM26.5 16C26.5 17.4886 25.5547 18.2362 24.2122 19.2653L24.2103 19.2667C22.9018 20.2698 21.3212 21.4814 20.7349 23.8958C20.3766 25.3712 21.6676 26.5 23 26.5C24.4052 26.5 25.3814 25.3227 25.8845 24.2823C26.1919 23.6467 26.6639 23.0955 27.2321 22.5496C27.5158 22.277 27.8174 22.0113 28.1304 21.7376C28.1573 21.7141 28.1842 21.6906 28.2113 21.6669C28.4965 21.4177 28.7903 21.1609 29.0754 20.8949C30.3323 19.7219 31.5 18.2948 31.5 16C31.5 11.3039 27.6961 7.5 23 7.5C19.0293 7.5 15.6976 10.2189 14.762 13.8969C14.3871 15.3709 15.6657 16.5 17 16.5C17.7043 16.5 18.3053 16.1957 18.7859 15.7843C19.264 15.375 19.6456 14.8418 19.9305 14.3242C20.5286 13.2373 21.6843 12.5 23 12.5C24.9239 12.5 26.5 14.0761 26.5 16ZM25.5 31C25.5 29.6193 24.3807 28.5 23 28.5C21.6193 28.5 20.5 29.6193 20.5 31C20.5 32.3807 21.6193 33.5 23 33.5C24.3807 33.5 25.5 32.3807 25.5 31Z" stroke="black"/>
</svg>
