<svg width="48" height="48" viewBox="0 0 48 48" fill="none" xmlns="http://www.w3.org/2000/svg">
<path fill-rule="evenodd" clip-rule="evenodd" d="M48 0H0V48H48V0ZM6 21C6 11.62 13.62 4 23 4C32.38 4 40 11.62 40 21C40 30 33.72 39.32 24 44V38H23C13.62 38 6 30.38 6 21ZM23 33C24.1046 33 25 32.1046 25 31C25 29.8954 24.1046 29 23 29C21.8954 29 21 29.8954 21 31C21 32.1046 21.8954 33 23 33ZM23 26C24.1046 26 24.9536 25.059 25.4344 24.0646C25.9662 22.9649 26.9156 22.1352 27.8815 21.2911C29.42 19.9466 31 18.5658 31 16C31 11.58 27.42 8 23 8C19.2634 8 16.1271 10.5585 15.2466 14.0202C14.9743 15.0907 15.8954 16 17 16C18.1046 16 18.9599 15.0509 19.4924 14.0831C20.1742 12.8443 21.4933 12 23 12C25.2 12 27 13.8 27 16C27 17.7584 25.8405 18.6472 24.5409 19.6434C23.225 20.652 21.7655 21.7707 21.2208 24.0138C20.9601 25.0872 21.8954 26 23 26Z" fill="#333333"/>
</svg>
