<svg width="48" height="48" viewBox="0 0 48 48" fill="none" xmlns="http://www.w3.org/2000/svg">
<path fill-rule="evenodd" clip-rule="evenodd" d="M23.9999 14.1355C15.965 14.1355 9.35121 20.1797 8.43165 27.9674C7.14726 28.5411 6.44442 29.1754 6.4375 29.8229C6.4375 32.0666 14.3004 33.8855 23.9998 33.8855C33.6992 33.8855 41.5622 32.0667 41.5622 29.8229C41.5564 29.1757 40.8486 28.5426 39.568 27.9694C38.6493 20.1809 32.035 14.1355 23.9998 14.1355H23.9999ZM23.9999 14.6472C32.3814 14.6472 39.1758 21.4417 39.1758 29.8232C39.1725 29.8974 39.1686 29.9716 39.1641 30.0458C39.2096 30.4947 39.6617 30.3352 39.6798 30.0458C39.6829 29.9716 39.6855 29.8974 39.6876 29.8232C39.6876 29.3483 39.6586 28.881 39.6173 28.4169C40.5408 28.8605 41.0476 29.3381 41.0489 29.8232C41.0489 31.7821 33.4165 33.37 24.0021 33.3699C14.5873 33.37 6.9553 31.7821 6.9553 29.8232C6.96211 29.3415 7.46599 28.8675 8.38302 28.4266C8.34227 28.8876 8.31271 29.3516 8.31271 29.8232C8.31608 29.8974 8.31999 29.9716 8.32442 30.0458C8.33147 30.3488 8.84131 30.4059 8.83224 30.0458C8.82909 29.9716 8.82649 29.8974 8.82443 29.8232C8.82443 21.4417 15.6189 14.6472 24.0004 14.6472H23.9999Z" fill="#333333"/>
</svg>
