<svg width="48" height="48" viewBox="0 0 48 48" fill="none" xmlns="http://www.w3.org/2000/svg">
<path opacity="0.95" fill-rule="evenodd" clip-rule="evenodd" d="M0 0V48H48V0H0ZM5.883 5.518H6.09L5.527 5.939L6.66 6.791L7.795 5.939L7.235 5.518H7.443L7.9 5.861L8.357 5.518H8.568L8.006 5.939L9.136 6.791L10.27 5.939L9.709 5.518H9.919L10.375 5.859L10.832 5.518H11.043L10.483 5.939L11.615 6.791L12.748 5.939L12.188 5.518H12.395L12.852 5.861L13.309 5.518H13.518L12.957 5.939L14.087 6.791L15.221 5.939L14.661 5.518H14.869L15.326 5.861L15.783 5.518H15.99L15.43 5.939L16.564 6.791L17.697 5.939L17.135 5.518H17.344L17.801 5.861L18.258 5.518H18.465L17.905 5.939L19.039 6.791L20.172 5.939L19.609 5.518H19.816L20.276 5.861L20.732 5.518H20.943L20.379 5.941L21.512 6.791L22.645 5.939L22.084 5.518H22.294L22.75 5.859L23.205 5.518H23.416L22.856 5.939L23.988 6.789L25.119 5.939L24.559 5.518H24.769L25.225 5.859L25.68 5.518H25.89L25.33 5.939L26.465 6.791L27.594 5.941L27.031 5.518H27.242L27.699 5.861L28.159 5.518H28.365L27.803 5.939L28.937 6.791L30.07 5.939L29.51 5.518H29.717L30.174 5.861L30.631 5.518H30.84L30.277 5.939L31.41 6.791L32.545 5.939L31.985 5.518H32.191L32.648 5.861L33.105 5.518H33.315L32.754 5.939L33.887 6.791L35.017 5.939L34.457 5.518H34.666L35.123 5.861L35.58 5.518H35.787L35.227 5.939L36.359 6.791L37.492 5.939L36.932 5.518H37.142L37.6 5.859L38.055 5.518H38.265L37.705 5.939L38.838 6.791L39.968 5.939L39.406 5.518H39.617L40.074 5.861L40.531 5.518H40.741L40.18 5.939L41.314 6.791L42.447 5.939L41.885 5.518H42.092L42.469 5.801V6.077L41.416 6.867L42.469 7.658V7.936L41.416 8.726L42.469 9.518V9.797L41.416 10.587L42.469 11.379V11.655L41.416 12.445L42.469 13.236V13.512L41.414 14.305L42.469 15.095V15.372L41.414 16.164L42.469 16.957V17.229L41.416 18.019L42.469 18.811V19.09L41.414 19.88L42.469 20.674V20.95L41.416 21.74L42.469 22.531V22.807L41.414 23.6L42.469 24.393V24.666L41.416 25.457L42.469 26.248V26.524L41.416 27.314L42.469 28.105V28.381L41.414 29.174L42.469 29.964V30.243L41.414 31.035L42.469 31.826V32.102L41.416 32.892L42.469 33.684V33.959L41.416 34.75L42.469 35.541V35.819L41.412 36.611L42.469 37.404V37.676L41.416 38.466L42.469 39.258V39.538L41.416 40.326L42.469 41.117V41.397L41.416 42.186L41.809 42.48H41.602L41.312 42.264L41.022 42.48H40.811L41.207 42.184L40.074 41.334L38.939 42.186L39.332 42.48H39.123L38.836 42.264L38.546 42.48H38.336L38.73 42.186L37.598 41.334L36.465 42.186L36.857 42.48H36.65L36.361 42.262L36.071 42.48H35.865L36.258 42.186L35.123 41.334L33.993 42.184L34.387 42.48H34.176L33.886 42.262L33.596 42.48H33.389L33.781 42.186L32.648 41.334L31.516 42.186L31.908 42.48H31.698L31.41 42.264L31.121 42.48H30.914L31.307 42.186L30.174 41.336L29.041 42.186L29.431 42.48H29.227L28.937 42.264L28.648 42.48H28.438L28.832 42.184L27.702 41.336L26.566 42.188L26.957 42.48H26.752L26.465 42.266L26.178 42.48H25.963L26.357 42.184L25.223 41.332L24.09 42.184L24.486 42.48H24.279L23.989 42.262L23.695 42.48H23.488L23.883 42.184L22.75 41.332L21.617 42.184L22.012 42.48H21.797L21.51 42.266L21.223 42.48H21.018L21.406 42.188L20.273 41.336L19.143 42.184L19.537 42.48H19.327L19.037 42.264L18.748 42.48H18.543L18.933 42.186L17.801 41.336L16.668 42.186L17.061 42.48H16.854L16.564 42.264L16.277 42.48H16.067L16.459 42.186L15.326 41.334L14.193 42.186L14.586 42.48H14.379L14.088 42.262L13.798 42.48H13.588L13.982 42.184L12.852 41.334L11.717 42.186L12.109 42.48H11.904L11.614 42.262L11.324 42.48H11.117L11.51 42.186L10.377 41.334L9.244 42.186L9.639 42.48H9.428L9.138 42.264L8.852 42.48H8.642L9.035 42.186L7.9 41.334L6.768 42.184L7.164 42.48H6.954L6.662 42.264L6.373 42.48H6.166L6.559 42.186L5.506 41.396V41.117L6.559 40.327L5.506 39.537V39.258L6.559 38.467L5.506 37.676V37.404L6.562 36.611L5.506 35.818V35.541L6.559 34.75L5.506 33.959V33.684L6.559 32.893L5.506 32.102V31.826L6.561 31.036L5.506 30.242V29.965L6.561 29.174L5.506 28.381V28.106L6.559 27.314L5.506 26.524V26.248L6.559 25.457L5.506 24.666V24.393L6.56 23.6L5.505 22.807V22.531L6.558 21.741L5.505 20.949V20.674L6.56 19.881L5.505 19.09V18.81L6.558 18.02L5.505 17.229V16.957L6.56 16.164L5.505 15.371V15.096L6.56 14.305L5.505 13.512V13.236L6.558 12.446L5.505 11.654V11.379L6.558 10.588L5.505 9.797V9.517L6.558 8.727L5.505 7.936V7.658L6.558 6.868L5.505 6.076V5.801L5.882 5.518H5.883ZM12.852 6.018L11.719 6.869L12.852 7.719L13.984 6.867L12.852 6.017V6.018ZM15.326 6.018L14.193 6.868L15.326 7.718L16.459 6.869L15.326 6.018ZM17.801 6.018L16.668 6.868L17.801 7.718L18.934 6.869L17.801 6.018ZM20.277 6.018L19.143 6.869L20.273 7.719L21.406 6.867L20.277 6.017V6.018ZM22.75 6.018L21.617 6.869L22.748 7.719L23.883 6.869L22.75 6.018ZM25.225 6.018L24.094 6.869L25.227 7.719L26.359 6.869L25.225 6.018ZM27.699 6.018L26.566 6.868L27.701 7.718L28.832 6.869L27.699 6.018ZM30.174 6.018L29.041 6.869L30.174 7.719L31.307 6.867L30.174 6.017V6.018ZM32.648 6.018L31.516 6.869L32.648 7.719L33.781 6.867L32.648 6.017V6.018ZM35.123 6.018L33.99 6.868L35.123 7.718L36.256 6.869L35.123 6.018ZM7.903 6.02L6.768 6.871L7.898 7.721L9.033 6.869L7.903 6.019V6.02ZM10.377 6.02L9.244 6.87L10.377 7.72L11.51 6.87L10.377 6.02ZM37.597 6.02L36.465 6.87L37.598 7.72L38.73 6.87L37.598 6.02H37.597ZM40.072 6.02L38.942 6.87L40.076 7.72L41.207 6.871L40.072 6.02ZM14.088 6.945L12.955 7.797L14.09 8.648L15.223 7.797L14.088 6.945ZM33.887 6.945L32.752 7.797L33.885 8.648L35.02 7.797L33.887 6.945ZM6.666 6.947L5.533 7.797L6.664 8.648L7.797 7.797L6.666 6.947ZM9.139 6.947L8.004 7.801L9.137 8.651L10.271 7.799L9.139 6.947ZM11.613 6.947L10.48 7.8L11.613 8.651L12.746 7.8L11.613 6.948V6.947ZM16.563 6.947L15.43 7.797L16.564 8.648L17.697 7.798L16.563 6.948V6.947ZM19.039 6.947L17.906 7.799L19.037 8.649L20.17 7.797L19.04 6.947H19.039ZM21.512 6.947L20.379 7.799L21.512 8.649L22.645 7.797L21.512 6.947ZM23.988 6.947L22.854 7.799L23.988 8.65L25.121 7.799L23.988 6.947ZM26.461 6.947L25.331 7.797L26.463 8.648L27.596 7.798L26.461 6.948V6.947ZM28.936 6.947L27.805 7.797L28.938 8.648L30.068 7.798L28.936 6.948V6.947ZM31.412 6.947L30.277 7.799L31.41 8.649L32.545 7.797L31.412 6.947ZM36.362 6.947L35.229 7.799L36.361 8.65L37.494 7.799L36.361 6.947H36.362ZM38.836 6.947L37.703 7.799L38.838 8.65L39.971 7.8L38.836 6.947ZM41.309 6.947L40.178 7.797L41.311 8.648L42.441 7.797L41.309 6.947ZM15.326 7.875L14.193 8.727L15.326 9.578L16.461 8.727L15.326 7.875ZM32.648 7.875L31.516 8.727L32.648 9.578L33.781 8.727L32.648 7.875ZM7.902 7.877L6.772 8.727L7.902 9.578L9.035 8.727L7.902 7.877ZM10.377 7.877L9.242 8.729L10.373 9.58L11.508 8.729L10.377 7.877ZM12.85 7.877L11.717 8.727L12.852 9.578L13.984 8.728L12.85 7.877ZM17.8 7.877L16.668 8.729L17.801 9.579L18.934 8.727L17.801 7.877H17.8ZM20.275 7.877L19.143 8.727L20.275 9.578L21.408 8.727L20.275 7.877ZM22.75 7.877L21.617 8.729L22.75 9.58L23.883 8.729L22.75 7.877ZM25.225 7.877L24.09 8.729L25.225 9.58L26.357 8.729L25.225 7.877ZM27.699 7.877L26.566 8.727L27.699 9.578L28.832 8.727L27.699 7.877ZM30.172 7.877L29.043 8.727L30.176 9.578L31.305 8.728L30.172 7.877ZM35.125 7.877L33.99 8.729L35.123 9.579L36.258 8.727L35.125 7.877ZM37.598 7.877L36.467 8.729L37.602 9.58L38.732 8.729L37.598 7.877ZM40.072 7.877L38.939 8.727L40.072 9.578L41.203 8.727L40.073 7.877H40.072ZM6.666 8.807L5.531 9.658L6.664 10.508L7.8 9.656L6.667 8.806L6.666 8.807ZM9.141 8.807L8.008 9.657L9.141 10.507L10.271 9.657L9.141 8.807ZM11.613 8.807L10.479 9.658L11.611 10.51L12.746 9.658L11.613 8.807ZM14.088 8.807L12.955 9.657L14.088 10.507L15.221 9.658L14.088 8.807ZM16.564 8.807L15.432 9.658L16.562 10.506L17.695 9.656L16.565 8.806L16.564 8.807ZM19.039 8.807L17.906 9.657L19.037 10.507L20.17 9.657L19.04 8.807H19.039ZM21.514 8.807L20.381 9.657L21.514 10.507L22.646 9.658L21.514 8.807ZM23.988 8.807L22.854 9.657L23.988 10.507L25.121 9.657L23.988 8.807ZM26.461 8.807L25.328 9.658L26.461 10.508L27.594 9.656L26.461 8.806V8.807ZM28.938 8.807L27.805 9.657L28.938 10.507L30.07 9.657L28.937 8.807H28.938ZM31.41 8.807L30.28 9.657L31.412 10.506L32.543 9.658L31.41 8.807ZM33.887 8.807L32.754 9.658L33.887 10.508L35.02 9.656L33.887 8.806V8.807ZM36.361 8.807L35.229 9.658L36.363 10.51L37.496 9.658L36.361 8.807ZM38.834 8.807L37.704 9.657L38.834 10.507L39.967 9.657L38.834 8.807ZM41.309 8.807L40.176 9.657L41.311 10.507L42.443 9.658L41.309 8.807ZM10.377 9.734L9.244 10.586L10.377 11.437L11.51 10.586L10.377 9.734ZM12.85 9.734L11.715 10.588L12.85 11.439L13.984 10.588L12.85 9.734ZM17.8 9.734L16.668 10.586L17.801 11.437L18.934 10.586L17.801 9.734H17.8ZM22.75 9.734L21.617 10.586L22.75 11.437L23.883 10.586L22.75 9.734ZM25.225 9.734L24.092 10.586L25.225 11.437L26.357 10.586L25.225 9.734ZM30.174 9.734L29.041 10.586L30.174 11.437L31.307 10.586L30.174 9.734ZM35.125 9.734L33.99 10.588L35.125 11.439L36.26 10.588L35.125 9.734ZM37.598 9.734L36.465 10.586L37.598 11.437L38.73 10.586L37.598 9.734ZM7.902 9.736L6.768 10.588L7.9 11.438L9.035 10.586L7.902 9.736ZM15.326 9.736L14.193 10.588L15.324 11.438L16.457 10.586L15.327 9.736H15.326ZM20.276 9.736L19.143 10.586L20.277 11.437L21.41 10.586L20.275 9.736H20.276ZM27.699 9.736L26.566 10.586L27.699 11.437L28.832 10.586L27.699 9.736ZM32.649 9.736L31.518 10.586L32.65 11.437L33.781 10.587L32.648 9.737L32.649 9.736ZM40.072 9.736L38.939 10.586L40.074 11.437L41.207 10.587L40.072 9.737V9.736ZM9.139 10.664L8.004 11.516L9.139 12.367L10.271 11.516L9.139 10.664ZM11.613 10.664L10.48 11.514L11.615 12.367L12.01 12.07V12.229L11.72 12.445L12.012 12.665V12.822L11.615 12.525L10.482 13.377L11.612 14.225L12.01 13.925V14.085L11.719 14.305L12.012 14.525V14.684L11.613 14.384L10.48 15.234L11.613 16.086L12.01 15.787V15.945L11.719 16.165L12.012 16.385V16.541L11.613 16.242L10.483 17.094L11.613 17.944L12.01 17.646V17.803L11.719 18.021L12.012 18.242V18.398L11.613 18.1L10.48 18.951L11.615 19.803L12.01 19.506V19.662L11.719 19.881L12.012 20.101V20.258L11.613 19.959L10.479 20.813L11.611 21.663L12.01 21.363V21.52L11.715 21.74L12.012 21.963V22.115L11.613 21.816L10.479 22.67L11.611 23.52L12.01 23.22V23.379L11.717 23.599L12.012 23.82V23.977L11.613 23.677L10.483 24.527L11.613 25.377L12.01 25.08V25.238L11.719 25.457L12.012 25.676V25.836L11.613 25.537L10.48 26.387L11.613 27.238L12.01 26.941V27.098L11.719 27.316L12.012 27.537V27.693L11.613 27.395L10.479 28.248L11.611 29.098L12.01 28.798V28.955L11.715 29.175L12.012 29.398V29.553L11.613 29.253L10.48 30.103L11.613 30.955L12.01 30.656V30.814L11.719 31.034L12.012 31.254V31.41L11.613 31.111L10.483 31.963L11.617 32.814L12.01 32.52V32.672L11.719 32.891L12.012 33.111V33.268L11.613 32.968L10.48 33.82L11.613 34.672L12.01 34.373V34.533L11.719 34.752L12.012 34.971V35.129L11.613 34.83L10.48 35.682L11.613 36.532L12.35 35.977H12.563L11.719 36.609L12.852 37.461L13.982 36.609L13.139 35.977H13.349L14.088 36.531L14.826 35.977H15.033L14.191 36.609L15.326 37.461L16.461 36.609L15.619 35.977H15.826L16.564 36.531L17.303 35.977H17.51L16.668 36.609L17.801 37.461L18.934 36.609L18.092 35.977H18.299L19.037 36.531L19.777 35.977H19.984L19.141 36.609L20.273 37.459L21.406 36.607L20.566 35.977H20.771L21.51 36.531L22.248 35.977H22.459L21.615 36.609L22.75 37.461L23.883 36.609L23.039 35.977H23.248L23.988 36.531L24.727 35.977H24.936L24.092 36.609L25.227 37.461L26.359 36.609L25.516 35.977H25.726L26.465 36.531L27.203 35.977H27.408L26.566 36.607L27.701 37.459L28.834 36.609L27.99 35.977H28.197L28.937 36.531L29.676 35.977H29.883L29.039 36.609L30.172 37.461L31.307 36.609L30.465 35.977H30.672L31.41 36.531L32.148 35.977H32.355L31.514 36.609L32.648 37.461L33.783 36.609L32.941 35.977H33.148L33.887 36.531L34.625 35.977H34.835L33.992 36.609L35.123 37.461L36.256 36.609L35.412 35.977H35.625L36.361 36.531L37.494 35.681L36.361 34.831L35.963 35.129V34.971L36.256 34.752L35.965 34.533V34.373L36.361 34.672L37.494 33.82L36.361 32.969L35.963 33.268V33.111L36.256 32.891L35.965 32.671V32.52L36.357 32.814L37.492 31.963L36.362 31.111L35.962 31.411V31.254L36.256 31.034L35.965 30.814V30.656L36.361 30.956L37.494 30.104L36.361 29.254L35.963 29.553V29.398L36.26 29.176L35.965 28.956V28.799L36.363 29.098L37.496 28.248L36.361 27.395L35.963 27.693V27.537L36.256 27.317L35.965 27.097V26.941L36.361 27.238L37.494 26.387L36.361 25.537L35.963 25.836V25.676L36.256 25.457L35.965 25.238V25.08L36.361 25.377L37.492 24.527L36.362 23.677L35.962 23.977V23.82L36.258 23.6L35.965 23.379V23.221L36.363 23.52L37.496 22.67L36.361 21.816L35.963 22.116V21.963L36.26 21.74L35.965 21.52V21.363L36.363 21.663L37.496 20.813L36.361 19.959L35.963 20.258V20.102L36.256 19.881L35.965 19.662V19.506L36.359 19.803L37.494 18.951L36.361 18.1L35.963 18.398V18.242L36.256 18.022L35.965 17.802V17.646L36.361 17.943L37.492 17.093L36.362 16.243L35.962 16.541V16.385L36.256 16.165L35.965 15.945V15.787L36.361 16.086L37.494 15.234L36.361 14.384L35.963 14.684V14.525L36.256 14.305L35.965 14.085V13.925L36.363 14.225L37.493 13.377L36.359 12.525L35.963 12.822V12.664L36.253 12.445L35.965 12.229V12.07L36.359 12.367L37.494 11.514L36.361 10.664L35.227 11.516L35.902 12.023H35.693L35.121 11.593L34.551 12.023H34.348L35.02 11.518L33.887 10.666L32.754 11.516L33.432 12.023H33.221L32.648 11.593L32.078 12.023H31.869L32.545 11.516L31.412 10.666L30.279 11.516L30.955 12.023H30.745L30.174 11.596L29.604 12.023H29.393L30.068 11.516L28.936 10.664L27.803 11.516L28.479 12.023H28.271L27.699 11.593L27.127 12.023H26.918L27.594 11.516L26.461 10.664L25.328 11.516L26.004 12.023H25.797L25.225 11.593L24.652 12.023H24.443L25.121 11.516L23.988 10.664L22.855 11.516L23.531 12.023H23.322L22.75 11.593L22.178 12.023H21.971L22.646 11.516L21.512 10.664L20.379 11.516L21.057 12.023H20.847L20.275 11.593L19.703 12.023H19.496L20.172 11.516L19.039 10.664L17.906 11.516L18.582 12.023H18.372L17.801 11.596L17.231 12.023H17.02L17.695 11.516L16.562 10.666L15.43 11.516L16.105 12.023H15.896L15.324 11.593L14.754 12.023H14.543L15.219 11.516L14.089 10.666L12.955 11.518L13.627 12.023H13.424L12.854 11.593L12.281 12.023H12.072L12.748 11.516L11.613 10.664ZM38.836 10.664L37.703 11.516L38.836 12.367L39.971 11.516L38.836 10.664ZM6.662 10.666L5.532 11.518L6.662 12.368L7.795 11.518L6.662 10.666ZM41.312 10.666L40.18 11.518L41.313 12.368L42.443 11.518L41.313 10.666H41.312ZM10.377 11.594L9.242 12.445L10.377 13.297L11.51 12.445L10.377 11.594ZM37.597 11.594L36.465 12.445L37.598 13.297L38.732 12.445L37.598 11.594H37.597ZM7.9 11.596L6.768 12.446L7.9 13.296L9.033 12.447L7.9 11.596ZM40.074 11.596L38.941 12.447L40.074 13.297L41.207 12.445L40.074 11.595V11.596ZM6.662 12.523L5.532 13.375L6.664 14.227L7.797 13.375L6.662 12.523ZM9.137 12.523L8.004 13.375L9.139 14.227L10.271 13.377L9.137 12.523ZM38.837 12.523L37.703 13.377L38.836 14.227L39.971 13.375L38.838 12.523H38.837ZM41.312 12.523L40.178 13.375L41.311 14.227L42.443 13.375L41.313 12.523H41.312ZM13.598 13.393H13.717L13.381 13.645V13.555L13.598 13.393ZM14.072 13.393H14.164L14.473 13.803L15.018 13.393H15.23L15.666 13.973L16.291 13.503L16.207 13.393H16.295L16.345 13.461L16.438 13.393H16.558L16.391 13.52L16.859 14.145L17.484 13.674L17.274 13.393H17.364L17.543 13.631L17.859 13.393H17.979L17.586 13.687L18.055 14.313L18.678 13.843L18.34 13.393H18.43L18.736 13.801L19.279 13.393H19.399L18.779 13.857L19.248 14.482L19.873 14.014L19.406 13.393H19.496L19.93 13.971L20.555 13.502L20.473 13.392H20.564L20.614 13.457L20.699 13.393H20.819L20.656 13.513L21.125 14.139L21.748 13.672L21.539 13.392H21.631L21.807 13.627L22.119 13.393H22.24L21.852 13.686L22.318 14.309L22.943 13.839L22.607 13.393H22.697L23 13.797L23.54 13.393H23.66L23.045 13.855L23.514 14.479L24.137 14.009L23.674 13.393H23.762L24.193 13.967L24.818 13.498L24.74 13.393H24.83L24.877 13.455L24.959 13.393H25.08L24.92 13.512L25.389 14.137L26.014 13.668L25.807 13.393H25.897L26.07 13.625L26.38 13.393H26.5L26.113 13.682L26.584 14.307L27.207 13.837L26.873 13.393H26.965L27.265 13.795L27.801 13.393H27.92L27.309 13.852L27.779 14.477L28.402 14.007L27.939 13.393H28.029L28.459 13.965L29.084 13.495L29.008 13.393H29.098L29.143 13.451L29.221 13.393H29.34L29.186 13.51L29.654 14.133L30.279 13.664L30.074 13.393H30.164L30.336 13.621L30.641 13.393H30.76L30.379 13.678L30.848 14.303L31.473 13.834L31.141 13.393H31.231L31.529 13.791L32.061 13.393H32.181L31.574 13.85L32.043 14.475L32.668 14.005L32.207 13.393H32.299L32.727 13.961L33.35 13.492L33.273 13.392H33.365L33.408 13.449L33.482 13.393H33.602L33.452 13.506L33.92 14.131L34.545 13.662L34.342 13.392H34.432L34.594 13.609V13.729L34.586 13.719L33.961 14.188L34.43 14.812L34.594 14.689V14.779L34.474 14.869L34.594 15.029V15.15L34.416 14.914L33.793 15.381L34.262 16.008L34.594 15.758V15.848L34.304 16.064L34.594 16.449V16.57L34.246 16.107L33.623 16.578L34.092 17.201L34.594 16.824V16.914L34.134 17.26L34.594 17.871V17.991L34.59 17.984L33.965 18.454L34.434 19.078L34.594 18.957V19.047L34.477 19.135L34.594 19.291V19.411L34.42 19.178L33.795 19.646L34.264 20.273L34.594 20.025V20.113L34.307 20.328L34.594 20.711V20.831L34.25 20.371L33.625 20.841L34.095 21.467L34.594 21.092V21.182L34.139 21.523L34.594 22.131V22.252L34.592 22.25L33.969 22.719L34.437 23.342L34.594 23.225V23.315L34.48 23.4L34.594 23.55V23.672L34.422 23.443L33.799 23.913L34.268 24.537L34.594 24.293V24.381L34.311 24.594L34.594 24.971V25.091L34.252 24.637L33.627 25.105L34.097 25.73L34.594 25.357V25.447L34.141 25.789L34.594 26.393V26.514L33.971 26.982L34.439 27.607L34.594 27.492V27.582L34.482 27.666L34.594 27.812V27.932L34.426 27.709L33.801 28.178L34.27 28.801L34.594 28.559V28.649L34.312 28.859L34.594 29.232V29.352L34.256 28.902L33.631 29.372L34.1 29.996L34.594 29.625V29.715L34.144 30.053L34.594 30.653V30.781L33.974 31.246L34.444 31.873L34.594 31.76V31.848L34.486 31.928L34.594 32.072V32.193L34.428 31.973L33.803 32.441L34.271 33.066L34.594 32.824V32.916L34.316 33.125L34.594 33.495V33.613L34.26 33.168L33.635 33.637L34.102 34.26L34.594 33.89V33.982L34.146 34.318L34.361 34.605H34.273L34.09 34.361L33.764 34.605H33.643L34.045 34.303L33.578 33.68L32.953 34.148L33.297 34.605H33.207L32.897 34.191L32.344 34.605H32.139L31.699 34.021L31.076 34.491L31.162 34.605H31.072L31.018 34.533L30.922 34.605H30.805L30.977 34.477L30.506 33.852L29.881 34.32L30.096 34.605H30.006L29.824 34.363L29.502 34.605H29.382L29.782 34.307L29.312 33.682L28.687 34.15L29.029 34.605H28.939L28.631 34.193L28.082 34.605H27.962L28.588 34.137L28.118 33.512L27.492 33.982L27.961 34.605H27.873L27.436 34.023L26.811 34.494L26.895 34.605H26.805L26.754 34.537L26.662 34.605H26.541L26.709 34.479L26.242 33.855L25.619 34.325L25.83 34.605H25.738L25.561 34.367L25.244 34.605H25.121L25.516 34.309L25.046 33.684L24.422 34.154L24.762 34.605H24.672L24.365 34.197L23.82 34.605H23.701L24.322 34.139L23.854 33.516L23.227 33.984L23.693 34.605H23.605L23.17 34.027L22.547 34.497L22.629 34.605H22.539L22.489 34.539L22.4 34.605H22.283L22.447 34.482L21.977 33.857L21.354 34.327L21.563 34.605H21.473L21.295 34.369L20.98 34.605H20.863L21.252 34.313L20.783 33.687L20.158 34.158L20.494 34.605H20.404L20.102 34.201L19.562 34.605H19.442L20.057 34.143L19.587 33.518L18.963 33.988L19.428 34.605H19.338L18.906 34.031L18.281 34.5L18.361 34.605H18.271L18.225 34.543L18.141 34.605H18.02L18.18 34.485L17.713 33.861L17.088 34.331L17.295 34.605H17.205L17.031 34.373L16.721 34.605H16.601L16.988 34.316L16.518 33.691L15.893 34.161L16.227 34.605H16.139L15.836 34.203L15.301 34.605H15.181L15.793 34.146L15.324 33.52L14.699 33.99L15.162 34.605H15.07L14.64 34.033L14.018 34.502L14.096 34.605H14.004L13.959 34.545L13.879 34.605H13.759L13.916 34.488L13.447 33.863L13.381 33.914V33.822L13.404 33.805L13.381 33.775V33.655L13.461 33.762L14.086 33.293L13.617 32.67L13.381 32.848V32.756L13.572 32.611L13.381 32.355V32.235L13.631 32.568L14.256 32.1L13.787 31.475L13.381 31.779V31.691L13.744 31.418L13.381 30.934V30.816L13.801 31.375L14.426 30.906L13.957 30.281L13.381 30.713V30.623L13.914 30.223L13.445 29.598L13.381 29.646V29.556L13.402 29.541L13.381 29.514V29.394L13.459 29.498L14.084 29.029L13.615 28.404L13.381 28.58V28.49L13.571 28.348L13.381 28.094V27.974L13.629 28.304L14.254 27.836L13.784 27.211L13.381 27.514V27.422L13.741 27.152L13.381 26.674V26.553L13.799 27.109L14.422 26.641L13.953 26.018L13.381 26.448V26.355L13.908 25.959L13.439 25.334L13.381 25.379V25.289L13.396 25.277L13.381 25.256V25.133L13.455 25.233L14.08 24.763L13.611 24.139L13.381 24.313V24.225L13.571 24.082L13.381 23.832V23.712L13.627 24.039L14.252 23.57L13.782 22.945L13.381 23.246V23.156L13.738 22.889L13.381 22.412V22.295L13.795 22.845L14.42 22.375L13.951 21.752L13.381 22.18V22.09L13.908 21.693L13.439 21.07L13.381 21.113V21.021L13.395 21.011L13.381 20.992V20.875L13.451 20.969L14.076 20.5L13.607 19.877L13.381 20.047V19.957L13.564 19.818L13.381 19.574V19.454L13.623 19.775L14.248 19.307L13.778 18.68L13.381 18.979V18.889L13.734 18.623L13.381 18.153V18.031L13.793 18.581L14.416 18.111L13.947 17.486L13.381 17.912V17.822L13.904 17.43L13.436 16.805L13.381 16.845V16.755L13.393 16.748L13.381 16.732V16.613L13.449 16.705L14.074 16.235L13.605 15.611L13.381 15.779V15.688L13.561 15.553L13.381 15.313V15.193L13.619 15.51L14.244 15.04L13.775 14.416L13.381 14.713V14.621L13.732 14.357L13.381 13.891V13.771L13.789 14.314L14.412 13.846L14.072 13.393ZM15.139 13.393L14.516 13.861L14.984 14.484L15.607 14.016L15.139 13.393ZM7.9 13.453L6.768 14.303L7.902 15.156L9.035 14.305L7.9 13.453ZM40.074 13.453L38.939 14.305L40.072 15.156L41.207 14.303L40.074 13.453ZM10.377 13.455L9.244 14.307L10.373 15.154L11.506 14.304L10.377 13.455ZM37.597 13.455L36.469 14.305L37.602 15.155L38.73 14.307L37.598 13.455H37.597ZM33.393 13.551L32.77 14.018L33.238 14.643L33.861 14.176L33.393 13.551ZM29.127 13.553L28.502 14.021L28.971 14.646L29.596 14.176L29.127 13.553ZM24.863 13.557L24.236 14.025L24.707 14.65L25.332 14.18L24.863 13.557ZM20.598 13.559L19.973 14.027L20.441 14.652L21.066 14.184L20.598 13.559ZM16.334 13.561L15.709 14.031L16.178 14.654L16.803 14.186L16.334 13.561ZM30.322 13.723L29.697 14.191L30.166 14.814L30.791 14.346L30.322 13.723ZM26.057 13.725L25.432 14.195L25.902 14.818L26.525 14.35L26.057 13.725ZM21.791 13.729L21.168 14.197L21.637 14.82L22.26 14.354L21.791 13.729ZM17.527 13.73L16.902 14.201L17.372 14.826L17.996 14.356L17.527 13.73ZM31.516 13.893L30.893 14.361L31.361 14.986L31.984 14.518L31.516 13.893ZM27.25 13.895L26.627 14.363L27.096 14.988L27.721 14.52L27.25 13.895ZM22.986 13.898L22.363 14.368L22.832 14.99L23.455 14.521L22.986 13.898ZM18.721 13.9L18.098 14.37L18.566 14.994L19.191 14.525L18.721 13.9ZM14.457 13.904L13.832 14.373L14.301 14.996L14.926 14.527L14.457 13.904ZM32.711 14.063L32.086 14.531L32.555 15.156L33.18 14.687L32.71 14.063H32.711ZM28.445 14.064L27.822 14.534L28.291 15.158L28.914 14.689L28.445 14.064ZM24.182 14.068L23.557 14.538L24.025 15.162L24.65 14.693L24.182 14.068ZM19.916 14.07L19.291 14.54L19.76 15.164L20.385 14.695L19.916 14.07ZM15.65 14.074L15.027 14.543L15.497 15.166L16.119 14.699L15.65 14.074ZM33.904 14.23L33.279 14.7L33.748 15.324L34.373 14.855L33.904 14.23ZM29.641 14.234L29.014 14.704L29.482 15.328L30.109 14.859L29.641 14.234ZM25.375 14.238L24.75 14.707L25.219 15.332L25.844 14.863L25.375 14.238ZM21.109 14.242L20.486 14.711L20.956 15.334L21.578 14.865L21.109 14.242ZM16.846 14.244L16.221 14.713L16.691 15.336L17.314 14.867L16.846 14.244ZM6.664 14.381L5.531 15.232L6.666 16.086L7.799 15.234L6.664 14.381ZM41.311 14.381L40.176 15.234L41.309 16.086L42.443 15.232L41.311 14.381ZM9.141 14.385L8.008 15.235L9.137 16.084L10.27 15.232L9.14 14.385H9.141ZM38.834 14.385L37.705 15.232L38.838 16.084L39.967 15.234L38.834 14.384V14.385ZM30.834 14.405L30.209 14.873L30.679 15.498L31.303 15.029L30.834 14.404V14.405ZM26.568 14.408L25.945 14.877L26.415 15.5L27.037 15.031L26.568 14.408ZM22.305 14.41L21.682 14.879L22.15 15.504L22.773 15.035L22.305 14.41ZM18.039 14.412L17.414 14.882L17.883 15.508L18.51 15.038L18.04 14.412H18.039ZM32.027 14.574L31.404 15.043L31.873 15.668L32.498 15.199L32.028 14.574H32.027ZM27.764 14.576L27.139 15.046L27.607 15.67L28.232 15.201L27.764 14.576ZM23.5 14.58L22.875 15.049L23.344 15.674L23.969 15.205L23.5 14.58ZM19.234 14.582L18.609 15.051L19.079 15.676L19.703 15.207L19.234 14.582ZM14.969 14.586L14.346 15.055L14.814 15.68L15.437 15.21L14.969 14.586ZM33.221 14.744L32.598 15.213L33.066 15.836L33.691 15.367L33.221 14.744ZM28.957 14.746L28.334 15.215L28.803 15.84L29.426 15.371L28.957 14.746ZM24.693 14.75L24.068 15.219L24.538 15.844L25.162 15.375L24.693 14.75ZM20.428 14.754L19.805 15.223L20.271 15.846L20.896 15.377L20.428 14.754ZM16.162 14.756L15.539 15.225L16.008 15.85L16.633 15.38L16.163 14.756H16.162ZM30.152 14.916L29.527 15.386L29.997 16.012L30.621 15.541L30.152 14.916ZM25.887 14.92L25.262 15.389L25.73 16.014L26.355 15.544L25.887 14.92ZM21.623 14.924L20.998 15.393L21.467 16.016L22.092 15.546L21.623 14.924ZM17.357 14.926L16.734 15.395L17.204 16.018L17.826 15.548L17.357 14.926ZM31.346 15.086L30.723 15.555L31.191 16.18L31.816 15.71L31.346 15.086ZM27.08 15.09L26.457 15.559L26.926 16.184L27.551 15.713L27.081 15.09H27.08ZM22.816 15.094L22.193 15.561L22.663 16.186L23.285 15.716L22.816 15.094ZM18.553 15.096L17.926 15.564L18.396 16.189L19.021 15.719L18.553 15.096ZM14.287 15.098L13.662 15.568L14.131 16.191L14.756 15.723L14.287 15.098ZM32.539 15.256L31.916 15.725L32.385 16.35L33.01 15.88L32.54 15.256H32.539ZM28.275 15.26L27.65 15.729L28.12 16.352L28.744 15.882L28.275 15.26ZM24.012 15.262L23.387 15.73L23.855 16.355L24.48 15.887L24.012 15.262ZM19.746 15.266L19.123 15.734L19.59 16.357L20.215 15.889L19.746 15.266ZM15.48 15.268L14.857 15.736L15.327 16.361L15.949 15.893L15.48 15.268ZM7.904 15.312L6.77 16.164L7.9 17.014L9.033 16.162L7.904 15.312ZM10.377 15.312L9.244 16.164L10.377 17.014L11.51 16.164L10.377 15.312ZM37.597 15.312L36.465 16.164L37.598 17.014L38.73 16.164L37.598 15.312H37.597ZM40.07 15.312L38.941 16.162L40.074 17.014L41.205 16.164L40.07 15.312ZM33.734 15.426L33.109 15.895L33.579 16.52L34.203 16.05L33.734 15.426ZM29.469 15.43L28.846 15.898L29.314 16.521L29.939 16.055L29.469 15.43ZM25.205 15.432L24.58 15.9L25.05 16.525L25.674 16.057L25.205 15.432ZM20.941 15.436L20.316 15.904L20.786 16.527L21.408 16.059L20.941 15.436ZM16.676 15.438L16.053 15.906L16.521 16.531L17.145 16.063L16.675 15.438H16.676ZM30.664 15.598L30.039 16.068L30.508 16.693L31.135 16.223L30.665 15.598H30.664ZM26.398 15.602L25.773 16.07L26.243 16.695L26.869 16.227L26.399 15.602H26.398ZM22.135 15.605L21.51 16.075L21.979 16.699L22.604 16.23L22.134 15.605H22.135ZM17.869 15.607L17.246 16.077L17.715 16.701L18.34 16.232L17.87 15.607H17.869ZM31.857 15.767L31.234 16.237L31.704 16.861L32.326 16.393L31.857 15.768V15.767ZM27.594 15.771L26.969 16.241L27.437 16.865L28.062 16.396L27.594 15.771ZM23.328 15.775L22.705 16.242L23.174 16.867L23.797 16.4L23.328 15.775ZM19.064 15.777L18.439 16.248L18.909 16.871L19.533 16.401L19.064 15.777ZM14.801 15.779L14.174 16.25L14.643 16.875L15.27 16.405L14.8 15.779H14.801ZM33.053 15.938L32.428 16.406L32.896 17.031L33.521 16.563L33.053 15.938ZM28.787 15.941L28.164 16.411L28.633 17.035L29.256 16.566L28.787 15.941ZM24.523 15.943L23.898 16.413L24.368 17.037L24.992 16.568L24.523 15.943ZM20.258 15.947L19.635 16.416L20.104 17.041L20.727 16.571L20.257 15.947H20.258ZM15.994 15.949L15.369 16.418L15.838 17.043L16.463 16.574L15.994 15.949ZM29.982 16.111L29.357 16.581L29.828 17.205L30.451 16.736L29.982 16.111ZM25.717 16.113L25.094 16.582L25.562 17.207L26.186 16.738L25.716 16.113H25.717ZM21.453 16.117L20.828 16.586L21.297 17.211L21.922 16.742L21.453 16.117ZM17.188 16.119L16.564 16.588L17.034 17.213L17.656 16.744L17.188 16.119ZM6.666 16.242L5.531 17.096L6.661 17.943L7.795 17.092L6.666 16.242ZM9.141 16.242L8.006 17.094L9.139 17.944L10.273 17.092L9.141 16.242ZM38.834 16.242L37.701 17.092L38.836 17.943L39.969 17.093L38.834 16.243V16.242ZM41.309 16.242L40.179 17.092L41.314 17.943L42.444 17.096L41.309 16.242ZM31.176 16.279L30.551 16.75L31.02 17.373L31.645 16.904L31.175 16.279H31.176ZM26.912 16.283L26.285 16.753L26.755 17.377L27.381 16.908L26.912 16.283ZM22.646 16.287L22.021 16.756L22.492 17.381L23.115 16.912L22.646 16.287ZM18.383 16.289L17.758 16.758L18.227 17.383L18.852 16.914L18.382 16.289H18.383ZM14.117 16.293L13.492 16.762L13.961 17.387L14.586 16.918L14.117 16.293ZM32.371 16.449L31.746 16.918L32.215 17.545L32.84 17.075L32.371 16.449ZM28.105 16.453L27.482 16.922L27.952 17.547L28.574 17.078L28.105 16.453ZM23.84 16.457L23.217 16.924L23.686 17.549L24.311 17.08L23.84 16.457ZM19.576 16.459L18.951 16.929L19.42 17.553L20.045 17.084L19.576 16.459ZM15.312 16.461L14.686 16.931L15.156 17.557L15.781 17.086L15.312 16.461ZM33.564 16.621L32.939 17.09L33.41 17.713L34.033 17.244L33.564 16.621ZM29.301 16.623L28.676 17.092L29.145 17.717L29.77 17.248L29.3 16.623H29.301ZM25.035 16.625L24.41 17.094L24.88 17.719L25.504 17.25L25.035 16.625ZM20.771 16.629L20.146 17.098L20.616 17.723L21.24 17.253L20.771 16.629ZM16.506 16.633L15.881 17.1L16.351 17.727L16.975 17.257L16.505 16.633H16.506ZM30.494 16.793L29.869 17.262L30.339 17.885L30.963 17.418L30.494 16.793ZM26.23 16.795L25.605 17.264L26.075 17.889L26.699 17.419L26.23 16.795ZM21.965 16.799L21.34 17.268L21.81 17.893L22.434 17.423L21.964 16.799H21.965ZM17.699 16.803L17.076 17.271L17.545 17.895L18.168 17.425L17.699 16.803ZM31.687 16.961L31.062 17.431L31.533 18.057L32.158 17.587L31.688 16.961H31.687ZM27.424 16.967L26.799 17.436L27.268 18.061L27.893 17.59L27.423 16.967H27.424ZM23.158 16.969L22.535 17.437L23.004 18.062L23.627 17.594L23.158 16.969ZM18.895 16.971L18.271 17.441L18.741 18.064L19.363 17.596L18.895 16.971ZM14.629 16.975L14.004 17.443L14.473 18.068L15.098 17.6L14.628 16.975H14.629ZM32.883 17.133L32.258 17.602L32.727 18.227L33.352 17.756L32.882 17.133H32.883ZM28.617 17.135L27.994 17.605L28.463 18.23L29.088 17.76L28.618 17.135H28.617ZM24.354 17.139L23.729 17.607L24.199 18.23L24.822 17.764L24.354 17.139ZM20.09 17.141L19.463 17.611L19.932 18.236L20.559 17.766L20.089 17.141H20.09ZM15.824 17.143L15.199 17.613L15.668 18.238L16.293 17.77L15.824 17.143ZM7.902 17.172L6.768 18.023L7.9 18.875L9.035 18.021L7.902 17.171V17.172ZM10.377 17.172L9.244 18.023L10.377 18.873L11.51 18.021L10.377 17.171V17.172ZM37.597 17.172L36.465 18.022L37.598 18.873L38.73 18.023L37.598 17.172H37.597ZM40.072 17.172L38.939 18.022L40.074 18.875L41.207 18.023L40.072 17.172ZM34.076 17.302L33.453 17.772L33.922 18.396L34.547 17.926L34.077 17.303L34.076 17.302ZM29.812 17.305L29.187 17.773L29.657 18.398L30.281 17.93L29.813 17.305H29.812ZM25.549 17.309L24.924 17.777L25.393 18.4L26.018 17.932L25.548 17.309H25.549ZM21.283 17.311L20.658 17.779L21.128 18.404L21.752 17.936L21.283 17.311ZM17.018 17.314L16.395 17.784L16.863 18.406L17.486 17.938L17.018 17.314ZM31.006 17.474L30.383 17.944L30.852 18.568L31.475 18.1L31.005 17.475L31.006 17.474ZM26.742 17.479L26.117 17.947L26.587 18.572L27.211 18.104L26.742 17.479ZM22.477 17.48L21.852 17.95L22.322 18.574L22.945 18.105L22.477 17.48ZM18.213 17.484L17.588 17.954L18.057 18.576L18.682 18.109L18.212 17.484H18.213ZM32.201 17.644L31.576 18.114L32.045 18.738L32.67 18.27L32.201 17.645V17.644ZM27.936 17.648L27.311 18.118L27.779 18.742L28.406 18.273L27.936 17.648ZM23.67 17.65L23.047 18.12L23.516 18.744L24.141 18.275L23.67 17.65ZM19.406 17.654L18.783 18.123L19.252 18.746L19.877 18.277L19.407 17.654H19.406ZM15.141 17.656L14.518 18.125L14.986 18.75L15.611 18.281L15.141 17.656ZM33.395 17.814L32.771 18.284L33.241 18.908L33.863 18.439L33.395 17.814ZM29.129 17.816L28.506 18.286L28.975 18.91L29.6 18.441L29.129 17.816ZM24.865 17.82L24.242 18.29L24.711 18.912L25.334 18.445L24.865 17.82ZM20.602 17.822L19.977 18.293L20.445 18.918L21.07 18.448L20.602 17.822ZM16.338 17.826L15.711 18.296L16.18 18.92L16.805 18.45L16.338 17.826ZM30.324 17.986L29.699 18.456L30.169 19.08L30.793 18.611L30.324 17.986ZM26.061 17.99L25.436 18.459L25.904 19.084L26.529 18.615L26.061 17.99ZM21.795 17.992L21.17 18.461L21.64 19.086L22.264 18.617L21.794 17.992H21.795ZM17.531 17.996L16.906 18.465L17.375 19.09L18 18.621L17.531 17.996ZM6.666 18.1L5.531 18.953L6.664 19.803L7.8 18.95L6.666 18.1ZM41.309 18.1L40.176 18.951L41.311 19.803L42.443 18.953L41.309 18.1ZM9.141 18.102L8.004 18.953L9.137 19.805L10.271 18.951L9.141 18.101V18.102ZM38.834 18.102L37.704 18.952L38.838 19.805L39.971 18.953L38.834 18.102ZM31.518 18.158L30.895 18.625L31.363 19.25L31.986 18.781L31.518 18.158ZM27.254 18.16L26.631 18.629L27.1 19.254L27.725 18.785L27.254 18.16ZM22.988 18.162L22.365 18.631L22.834 19.256L23.457 18.787L22.988 18.162ZM18.725 18.166L18.102 18.635L18.57 19.26L19.193 18.791L18.725 18.166ZM14.459 18.168L13.836 18.637L14.305 19.262L14.93 18.793L14.459 18.168ZM32.713 18.326L32.088 18.795L32.557 19.42L33.182 18.951L32.712 18.326H32.713ZM28.447 18.33L27.822 18.799L28.291 19.424L28.916 18.954L28.447 18.33ZM24.184 18.332L23.559 18.802L24.027 19.426L24.652 18.957L24.184 18.332ZM19.92 18.336L19.295 18.805L19.764 19.43L20.389 18.96L19.919 18.336H19.92ZM15.654 18.34L15.029 18.809L15.498 19.432L16.123 18.962L15.654 18.34ZM33.908 18.496L33.283 18.965L33.752 19.59L34.377 19.121L33.908 18.496ZM29.643 18.498L29.018 18.968L29.486 19.594L30.111 19.125L29.643 18.498ZM25.377 18.502L24.754 18.971L25.223 19.596L25.848 19.127L25.377 18.502ZM21.113 18.504L20.488 18.974L20.957 19.6L21.582 19.129L21.113 18.504ZM16.85 18.508L16.223 18.978L16.691 19.602L17.318 19.132L16.85 18.508ZM30.836 18.67L30.213 19.139L30.682 19.762L31.305 19.293L30.835 18.67H30.836ZM26.572 18.672L25.947 19.141L26.418 19.766L27.041 19.296L26.572 18.672ZM22.307 18.674L21.684 19.143L22.152 19.768L22.775 19.298L22.307 18.674ZM18.043 18.678L17.418 19.146L17.887 19.771L18.512 19.303L18.043 18.678ZM32.031 18.84L31.406 19.309L31.875 19.932L32.5 19.462L32.031 18.84ZM27.766 18.842L27.143 19.311L27.611 19.936L28.234 19.465L27.766 18.842ZM23.502 18.846L22.877 19.314L23.346 19.937L23.971 19.469L23.502 18.846ZM19.236 18.848L18.613 19.316L19.082 19.941L19.705 19.473L19.236 18.848ZM14.973 18.852L14.35 19.32L14.816 19.943L15.441 19.475L14.973 18.852ZM33.225 19.008L32.6 19.478L33.07 20.102L33.695 19.632L33.225 19.008ZM28.961 19.012L28.334 19.48L28.804 20.105L29.43 19.637L28.96 19.012H28.961ZM24.695 19.016L24.072 19.484L24.541 20.109L25.164 19.641L24.695 19.016ZM20.432 19.018L19.807 19.486L20.275 20.111L20.9 19.643L20.432 19.018ZM16.166 19.021L15.541 19.491L16.01 20.115L16.635 19.645L16.166 19.021ZM7.904 19.029L6.768 19.883L7.9 20.733L9.035 19.881L7.905 19.029H7.904ZM10.377 19.029L9.242 19.883L10.375 20.734L11.51 19.881L10.377 19.029ZM37.597 19.029L36.465 19.881L37.6 20.734L38.732 19.883L37.598 19.029H37.597ZM40.07 19.029L38.94 19.881L40.074 20.732L41.207 19.882L40.07 19.029ZM30.154 19.182L29.529 19.65L30 20.275L30.623 19.807L30.154 19.182ZM25.891 19.186L25.266 19.652L25.736 20.277L26.359 19.809L25.891 19.186ZM21.625 19.188L21 19.656L21.469 20.281L22.094 19.811L21.625 19.188ZM17.361 19.189L16.736 19.66L17.206 20.285L17.83 19.815L17.361 19.189ZM31.35 19.352L30.725 19.82L31.193 20.443L31.818 19.977L31.35 19.352ZM27.084 19.354L26.459 19.822L26.929 20.447L27.553 19.979L27.084 19.354ZM22.82 19.357L22.195 19.827L22.665 20.449L23.289 19.98L22.82 19.357ZM18.555 19.359L17.93 19.829L18.4 20.455L19.023 19.986L18.555 19.359ZM14.291 19.363L13.666 19.832L14.135 20.455L14.758 19.986L14.291 19.363ZM32.543 19.521L31.92 19.991L32.389 20.613L33.012 20.145L32.543 19.521ZM28.277 19.523L27.654 19.993L28.123 20.617L28.748 20.148L28.278 19.523H28.277ZM24.014 19.527L23.389 19.997L23.859 20.621L24.482 20.152L24.014 19.527ZM19.748 19.529L19.125 19.998L19.594 20.623L20.217 20.154L19.748 19.529ZM15.484 19.533L14.861 20.002L15.331 20.625L15.953 20.158L15.484 19.533ZM33.738 19.689L33.113 20.16L33.582 20.785L34.207 20.316L33.738 19.689ZM29.473 19.693L28.848 20.164L29.316 20.787L29.941 20.318L29.473 19.693ZM25.207 19.697L24.584 20.166L25.053 20.791L25.678 20.322L25.207 19.697ZM20.943 19.699L20.318 20.168L20.788 20.793L21.412 20.324L20.943 19.699ZM16.678 19.703L16.055 20.172L16.523 20.797L17.148 20.328L16.678 19.703ZM30.666 19.863L30.043 20.332L30.512 20.957L31.135 20.488L30.666 19.863ZM26.402 19.865L25.777 20.334L26.248 20.959L26.871 20.49L26.402 19.865ZM22.139 19.869L21.512 20.339L21.98 20.963L22.607 20.493L22.139 19.869ZM17.873 19.871L17.248 20.341L17.717 20.967L18.344 20.498L17.873 19.871ZM9.141 19.959L8.004 20.811L9.139 21.662L10.273 20.811L9.141 19.959ZM38.834 19.959L37.701 20.811L38.836 21.662L39.971 20.811L38.834 19.959ZM6.664 19.961L5.534 20.811L6.666 21.661L7.796 20.811L6.664 19.961ZM41.311 19.961L40.178 20.811L41.308 21.661L42.441 20.811L41.311 19.961ZM31.861 20.033L31.236 20.502L31.706 21.127L32.33 20.658L31.861 20.033ZM27.596 20.035L26.973 20.504L27.441 21.129L28.066 20.66L27.596 20.035ZM23.332 20.039L22.707 20.508L23.177 21.133L23.801 20.664L23.332 20.039ZM19.066 20.041L18.443 20.51L18.913 21.135L19.535 20.666L19.066 20.041ZM14.803 20.045L14.178 20.514L14.646 21.139L15.271 20.669L14.803 20.045ZM33.055 20.203L32.432 20.672L32.9 21.297L33.525 20.828L33.055 20.203ZM28.791 20.205L28.166 20.674L28.635 21.299L29.26 20.83L28.791 20.205ZM24.525 20.209L23.902 20.678L24.372 21.303L24.996 20.834L24.526 20.209H24.525ZM20.26 20.211L19.637 20.68L20.105 21.305L20.73 20.835L20.26 20.211ZM15.996 20.215L15.373 20.684L15.842 21.309L16.465 20.839L15.996 20.215ZM29.984 20.375L29.359 20.845L29.829 21.469L30.453 21L29.984 20.375ZM25.719 20.379L25.096 20.848L25.564 21.473L26.189 21.002L25.719 20.379ZM21.455 20.381L20.832 20.85L21.301 21.475L21.924 21.005L21.455 20.381ZM17.191 20.385L16.566 20.854L17.036 21.479L17.66 21.009L17.191 20.385ZM31.18 20.545L30.555 21.014L31.023 21.639L31.648 21.169L31.18 20.545ZM26.914 20.547L26.291 21.016L26.76 21.643L27.385 21.173L26.915 20.547H26.914ZM22.65 20.551L22.025 21.021L22.495 21.646L23.119 21.176L22.65 20.551ZM18.385 20.555L17.76 21.023L18.229 21.648L18.854 21.178L18.384 20.555H18.385ZM14.119 20.559L13.496 21.027L13.965 21.652L14.59 21.182L14.12 20.559H14.119ZM32.373 20.715L31.748 21.184L32.218 21.809L32.842 21.339L32.373 20.715ZM28.109 20.719L27.484 21.187L27.954 21.811L28.578 21.341L28.109 20.719ZM23.844 20.721L23.221 21.189L23.689 21.814L24.314 21.346L23.844 20.721ZM19.578 20.725L18.955 21.193L19.424 21.816L20.049 21.348L19.579 20.725H19.578ZM15.314 20.727L14.689 21.197L15.159 21.82L15.783 21.352L15.314 20.727ZM33.566 20.885L32.943 21.354L33.413 21.979L34.037 21.509L33.567 20.885H33.566ZM7.9 20.889L6.77 21.739L7.904 22.589L9.035 21.74L7.9 20.89V20.889ZM10.377 20.889L9.242 21.74L10.375 22.592L11.51 21.738L10.377 20.888V20.889ZM29.303 20.889L28.68 21.357L29.148 21.98L29.771 21.512L29.303 20.889ZM37.598 20.889L36.465 21.739L37.6 22.592L38.732 21.74L37.598 20.889ZM40.074 20.889L38.939 21.74L40.07 22.59L41.205 21.738L40.075 20.888L40.074 20.889ZM25.037 20.891L24.414 21.359L24.883 21.984L25.506 21.516L25.037 20.891ZM20.773 20.895L20.15 21.363L20.62 21.986L21.242 21.518L20.773 20.895ZM16.508 20.896L15.885 21.366L16.355 21.99L16.979 21.521L16.508 20.896ZM30.498 21.056L29.873 21.527L30.342 22.15L30.967 21.682L30.498 21.057V21.056ZM26.232 21.061L25.607 21.529L26.078 22.154L26.701 21.686L26.232 21.061ZM21.969 21.064L21.344 21.534L21.812 22.156L22.437 21.688L21.969 21.064ZM17.703 21.066L17.078 21.536L17.547 22.16L18.172 21.691L17.703 21.066ZM31.691 21.226L31.066 21.696L31.537 22.322L32.16 21.854L31.691 21.227V21.226ZM27.426 21.23L26.803 21.7L27.271 22.324L27.896 21.855L27.426 21.23ZM23.162 21.232L22.537 21.703L23.006 22.328L23.633 21.858L23.163 21.232H23.162ZM18.898 21.236L18.271 21.706L18.741 22.33L19.367 21.86L18.898 21.236ZM14.633 21.24L14.008 21.709L14.477 22.334L15.102 21.865L14.632 21.24H14.633ZM32.885 21.396L32.262 21.866L32.73 22.49L33.355 22.021L32.885 21.396ZM28.621 21.4L27.996 21.87L28.465 22.492L29.09 22.023L28.621 21.4ZM24.355 21.402L23.732 21.872L24.202 22.496L24.826 22.027L24.356 21.402H24.355ZM20.092 21.406L19.467 21.875L19.936 22.498L20.561 22.029L20.091 21.406H20.092ZM15.826 21.408L15.203 21.878L15.672 22.504L16.297 22.035L15.827 21.408H15.826ZM34.08 21.568L33.457 22.035L33.924 22.66L34.547 22.191L34.08 21.568ZM29.814 21.57L29.191 22.04L29.661 22.662L30.285 22.193L29.815 21.57H29.814ZM25.551 21.572L24.926 22.041L25.395 22.668L26.02 22.198L25.55 21.572H25.551ZM21.285 21.576L20.662 22.045L21.131 22.67L21.754 22.201L21.285 21.576ZM17.021 21.578L16.396 22.047L16.866 22.672L17.49 22.203L17.021 21.578ZM31.01 21.738L30.385 22.209L30.854 22.834L31.479 22.365L31.009 21.738H31.01ZM26.744 21.742L26.119 22.211L26.589 22.836L27.213 22.367L26.744 21.742ZM22.48 21.746L21.855 22.215L22.325 22.84L22.949 22.371L22.48 21.746ZM18.215 21.748L17.59 22.217L18.059 22.842L18.684 22.373L18.214 21.748H18.215ZM6.662 21.818L5.532 22.67L6.666 23.521L7.796 22.67L6.662 21.818ZM9.139 21.818L8.008 22.668L9.141 23.52L10.271 22.67L9.139 21.818ZM38.836 21.818L37.703 22.67L38.834 23.52L39.967 22.668L38.836 21.818ZM41.313 21.818L40.178 22.67L41.308 23.521L42.443 22.67L41.313 21.818ZM32.203 21.908L31.578 22.378L32.048 23.004L32.674 22.535L32.204 21.908H32.203ZM27.939 21.912L27.314 22.381L27.784 23.006L28.408 22.537L27.939 21.912ZM23.674 21.914L23.049 22.384L23.518 23.01L24.143 22.54L23.673 21.914H23.674ZM19.41 21.918L18.785 22.388L19.254 23.012L19.879 22.541L19.41 21.918ZM15.145 21.922L14.52 22.391L14.988 23.016L15.613 22.546L15.145 21.922ZM33.398 22.08L32.773 22.549L33.243 23.172L33.865 22.703L33.398 22.08ZM29.133 22.082L28.51 22.551L28.979 23.176L29.602 22.706L29.132 22.082H29.133ZM24.869 22.084L24.244 22.553L24.714 23.18L25.338 22.709L24.869 22.084ZM20.604 22.088L19.98 22.557L20.45 23.182L21.072 22.712L20.604 22.088ZM16.34 22.09L15.715 22.56L16.184 23.184L16.809 22.714L16.339 22.09H16.34ZM30.328 22.252L29.703 22.721L30.172 23.346L30.797 22.877L30.328 22.252ZM26.063 22.254L25.438 22.724L25.906 23.348L26.531 22.878L26.063 22.254ZM21.799 22.258L21.174 22.727L21.643 23.352L22.268 22.882L21.798 22.258H21.799ZM17.533 22.26L16.91 22.729L17.379 23.354L18.002 22.884L17.533 22.26ZM31.521 22.422L30.896 22.891L31.367 23.516L31.99 23.046L31.521 22.422ZM27.258 22.426L26.633 22.895L27.102 23.518L27.725 23.048L27.258 22.426ZM22.992 22.428L22.367 22.896L22.836 23.52L23.461 23.05L22.992 22.428ZM18.729 22.432L18.104 22.9L18.57 23.523L19.195 23.055L18.729 22.432ZM14.463 22.434L13.838 22.902L14.307 23.529L14.934 23.059L14.463 22.434ZM32.717 22.592L32.092 23.061L32.561 23.684L33.184 23.214L32.717 22.592ZM28.451 22.594L27.828 23.062L28.297 23.687L28.92 23.219L28.451 22.594ZM24.187 22.596L23.561 23.066L24.031 23.691L24.656 23.223L24.188 22.596H24.187ZM19.922 22.6L19.297 23.07L19.766 23.695L20.391 23.225L19.921 22.6H19.922ZM15.656 22.604L15.031 23.072L15.5 23.697L16.125 23.229L15.656 22.604ZM7.9 22.748L6.768 23.6L7.9 24.45L9.033 23.6L7.9 22.748ZM10.375 22.748L9.245 23.598L10.377 24.448L11.507 23.598L10.375 22.748ZM37.6 22.748L36.467 23.598L37.597 24.448L38.73 23.598L37.6 22.748ZM40.074 22.748L38.941 23.6L40.074 24.45L41.207 23.6L40.074 22.748ZM33.91 22.762L33.287 23.23L33.756 23.854L34.379 23.387L33.91 22.762ZM29.646 22.764L29.021 23.232L29.491 23.857L30.115 23.389L29.646 22.764ZM25.381 22.768L24.756 23.236L25.226 23.859L25.85 23.391L25.38 22.768H25.381ZM21.115 22.77L20.492 23.238L20.961 23.863L21.586 23.395L21.116 22.77H21.115ZM16.852 22.773L16.227 23.243L16.695 23.865L17.32 23.396L16.852 22.773ZM30.84 22.933L30.215 23.403L30.685 24.027L31.309 23.559L30.839 22.934L30.84 22.933ZM26.574 22.938L25.951 23.406L26.418 24.029L27.043 23.561L26.574 22.938ZM22.311 22.939L21.686 23.409L22.154 24.033L22.779 23.564L22.311 22.939ZM18.045 22.943L17.422 23.413L17.891 24.035L18.514 23.566L18.044 22.943H18.045ZM32.035 23.103L31.41 23.574L31.877 24.197L32.502 23.727L32.035 23.104V23.103ZM27.77 23.107L27.145 23.577L27.613 24.199L28.238 23.73L27.77 23.107ZM23.504 23.109L22.881 23.579L23.35 24.203L23.975 23.734L23.504 23.109ZM19.24 23.113L18.615 23.582L19.084 24.207L19.709 23.737L19.24 23.113ZM14.975 23.115L14.35 23.584L14.818 24.209L15.443 23.74L14.975 23.115ZM33.229 23.273L32.604 23.743L33.072 24.367L33.697 23.898L33.229 23.273ZM28.963 23.275L28.34 23.745L28.809 24.371L29.434 23.902L28.963 23.275ZM24.699 23.279L24.074 23.748L24.543 24.373L25.168 23.903L24.699 23.279ZM20.436 23.281L19.809 23.752L20.277 24.377L20.904 23.907L20.436 23.281ZM16.168 23.285L15.543 23.754L16.012 24.379L16.637 23.91L16.168 23.285ZM30.158 23.445L29.533 23.915L30.003 24.539L30.627 24.07L30.158 23.445ZM25.893 23.449L25.27 23.918L25.738 24.541L26.361 24.072L25.893 23.449ZM21.629 23.451L21.004 23.92L21.473 24.545L22.098 24.076L21.628 23.451H21.629ZM17.363 23.455L16.74 23.924L17.207 24.549L17.832 24.079L17.363 23.455ZM31.352 23.615L30.729 24.085L31.195 24.709L31.82 24.24L31.352 23.615ZM27.088 23.619L26.463 24.088L26.932 24.713L27.557 24.243L27.087 23.619H27.088ZM22.822 23.621L22.197 24.09L22.668 24.715L23.291 24.246L22.822 23.621ZM18.559 23.625L17.934 24.094L18.404 24.719L19.027 24.25L18.559 23.625ZM14.293 23.627L13.668 24.096L14.138 24.721L14.762 24.252L14.293 23.627ZM6.664 23.677L5.529 24.529L6.662 25.381L7.797 24.527L6.664 23.677ZM9.137 23.677L8.004 24.527L9.137 25.379L10.27 24.527L9.137 23.677ZM38.837 23.677L37.705 24.527L38.838 25.379L39.971 24.527L38.838 23.677H38.837ZM41.311 23.677L40.178 24.527L41.313 25.381L42.445 24.529L41.311 23.678V23.677ZM32.547 23.785L31.922 24.255L32.391 24.879L33.016 24.41L32.546 23.785H32.547ZM28.281 23.789L27.656 24.258L28.127 24.883L28.75 24.414L28.281 23.789ZM24.018 23.791L23.393 24.26L23.861 24.885L24.486 24.416L24.018 23.791ZM19.752 23.795L19.127 24.264L19.596 24.889L20.221 24.419L19.752 23.795ZM15.488 23.797L14.861 24.266L15.331 24.891L15.957 24.421L15.488 23.797ZM33.74 23.955L33.115 24.424L33.585 25.051L34.211 24.582L33.741 23.955H33.74ZM29.475 23.957L28.852 24.426L29.32 25.053L29.945 24.584L29.475 23.957ZM25.211 23.961L24.586 24.431L25.055 25.055L25.68 24.584L25.21 23.961H25.211ZM20.947 23.963L20.32 24.433L20.79 25.059L21.416 24.588L20.947 23.963ZM16.682 23.969L16.057 24.437L16.525 25.061L17.15 24.591L16.682 23.969ZM30.67 24.129L30.047 24.598L30.514 25.221L31.139 24.752L30.669 24.129H30.67ZM26.406 24.131L25.781 24.6L26.25 25.225L26.875 24.755L26.406 24.131ZM22.141 24.133L21.516 24.602L21.986 25.229L22.609 24.759L22.141 24.133ZM17.877 24.137L17.252 24.607L17.721 25.23L18.346 24.762L17.877 24.137ZM31.865 24.299L31.24 24.768L31.709 25.391L32.334 24.921L31.865 24.299ZM27.6 24.3L26.975 24.769L27.443 25.394L28.068 24.924L27.6 24.3ZM23.334 24.304L22.711 24.77L23.18 25.395L23.803 24.927L23.334 24.304ZM19.07 24.306L18.447 24.774L18.916 25.399L19.539 24.931L19.07 24.306ZM14.805 24.308L14.182 24.776L14.65 25.401L15.275 24.933L14.805 24.308ZM33.059 24.466L32.434 24.936L32.904 25.561L33.527 25.093L33.059 24.466ZM28.793 24.47L28.168 24.938L28.638 25.563L29.264 25.095L28.793 24.47ZM24.529 24.474L23.904 24.942L24.373 25.565L24.998 25.097L24.529 24.474ZM20.264 24.476L19.639 24.944L20.107 25.569L20.732 25.099L20.264 24.476ZM16 24.48L15.375 24.95L15.844 25.572L16.469 25.104L16 24.48ZM7.9 24.605L6.766 25.459L7.898 26.309L9.033 25.457L7.9 24.605ZM40.074 24.605L38.941 25.457L40.076 26.309L41.209 25.459L40.074 24.605ZM10.375 24.607L9.245 25.457L10.375 26.309L11.508 25.457L10.375 24.607ZM37.6 24.607L36.467 25.457L37.6 26.309L38.73 25.457L37.6 24.607ZM29.988 24.641L29.365 25.109L29.832 25.732L30.457 25.264L29.988 24.641ZM25.725 24.643L25.098 25.113L25.566 25.736L26.193 25.268L25.725 24.643ZM21.459 24.645L20.834 25.115L21.303 25.74L21.928 25.271L21.459 24.645ZM17.193 24.65L16.568 25.12L17.038 25.744L17.662 25.274L17.193 24.65ZM31.183 24.81L30.559 25.28L31.027 25.904L31.652 25.434L31.184 24.811L31.183 24.81ZM26.918 24.813L26.293 25.281L26.763 25.906L27.387 25.438L26.918 24.813ZM22.652 24.816L22.029 25.286L22.498 25.908L23.121 25.439L22.652 24.816ZM18.389 24.818L17.764 25.289L18.232 25.912L18.857 25.443L18.389 24.818ZM14.123 24.82L13.498 25.291L13.968 25.914L14.592 25.445L14.123 24.82ZM32.377 24.98L31.752 25.45L32.222 26.074L32.846 25.605L32.377 24.98ZM28.111 24.982L27.486 25.452L27.957 26.076L28.58 25.607L28.111 24.982ZM23.848 24.986L23.223 25.456L23.691 26.078L24.316 25.609L23.848 24.986ZM19.582 24.988L18.959 25.457L19.428 26.082L20.051 25.613L19.582 24.988ZM15.318 24.992L14.693 25.461L15.163 26.084L15.787 25.615L15.318 24.992ZM33.57 25.148L32.945 25.619L33.415 26.242L34.039 25.773L33.57 25.148ZM29.307 25.152L28.682 25.623L29.15 26.246L29.773 25.777L29.307 25.152ZM25.041 25.156L24.418 25.625L24.887 26.248L25.51 25.779L25.041 25.156ZM20.777 25.158L20.15 25.627L20.621 26.254L21.246 25.784L20.777 25.158ZM16.512 25.162L15.887 25.631L16.355 26.256L16.98 25.786L16.512 25.162ZM30.5 25.322L29.877 25.791L30.346 26.416L30.969 25.947L30.5 25.322ZM26.236 25.324L25.609 25.794L26.08 26.42L26.705 25.95L26.236 25.324ZM21.971 25.328L21.346 25.797L21.814 26.422L22.439 25.952L21.971 25.328ZM17.705 25.332L17.08 25.801L17.549 26.426L18.176 25.957L17.706 25.332H17.705ZM31.695 25.492L31.07 25.961L31.541 26.586L32.164 26.117L31.695 25.492ZM27.43 25.494L26.805 25.963L27.275 26.588L27.9 26.119L27.43 25.494ZM23.166 25.498L22.541 25.967L23.01 26.592L23.633 26.122L23.166 25.498ZM18.9 25.5L18.275 25.97L18.745 26.594L19.369 26.125L18.9 25.5ZM14.637 25.504L14.012 25.973L14.48 26.596L15.105 26.127L14.637 25.504ZM6.662 25.535L5.532 26.387L6.662 27.237L7.795 26.387L6.662 25.535ZM9.139 25.535L8.004 26.389L9.137 27.239L10.271 26.387L9.139 25.535ZM38.836 25.535L37.703 26.387L38.838 27.238L39.971 26.388L38.836 25.535ZM41.313 25.535L40.18 26.387L41.313 27.237L42.443 26.387L41.313 25.535ZM32.889 25.662L32.264 26.131L32.732 26.756L33.357 26.286L32.889 25.662ZM28.625 25.666L28 26.135L28.467 26.758L29.092 26.289L28.625 25.666ZM24.359 25.668L23.734 26.137L24.204 26.762L24.828 26.293L24.359 25.668ZM20.094 25.67L19.471 26.139L19.941 26.764L20.564 26.297L20.094 25.67ZM15.83 25.674L15.205 26.143L15.675 26.768L16.299 26.298L15.83 25.674ZM34.082 25.832L33.457 26.301L33.927 26.924L34.551 26.455L34.082 25.832ZM29.818 25.834L29.193 26.304L29.663 26.928L30.287 26.459L29.818 25.834ZM25.553 25.838L24.93 26.307L25.398 26.932L26.023 26.462L25.553 25.838ZM21.289 25.84L20.664 26.31L21.133 26.934L21.758 26.464L21.289 25.84ZM17.025 25.844L16.398 26.312L16.869 26.937L17.494 26.469L17.025 25.844ZM31.014 26.004L30.389 26.473L30.857 27.098L31.482 26.628L31.014 26.004ZM26.748 26.006L26.123 26.476L26.592 27.102L27.219 26.631L26.748 26.006ZM22.484 26.01L21.857 26.48L22.327 27.104L22.951 26.634L22.484 26.01ZM18.217 26.014L17.592 26.482L18.062 27.107L18.687 26.637L18.217 26.014ZM32.207 26.174L31.582 26.643L32.051 27.268L32.676 26.798L32.207 26.174ZM27.943 26.178L27.318 26.646L27.788 27.27L28.41 26.8L27.943 26.178ZM23.678 26.18L23.053 26.648L23.521 27.273L24.146 26.805L23.678 26.18ZM19.412 26.184L18.787 26.652L19.257 27.277L19.883 26.809L19.413 26.184H19.412ZM15.148 26.186L14.523 26.654L14.993 27.279L15.617 26.811L15.148 26.186ZM33.4 26.344L32.775 26.812L33.246 27.437L33.869 26.967L33.4 26.344ZM29.137 26.348L28.512 26.816L28.98 27.441L29.605 26.971L29.137 26.348ZM24.871 26.35L24.248 26.818L24.717 27.443L25.342 26.975L24.872 26.35H24.871ZM20.605 26.354L19.982 26.82L20.452 27.445L21.076 26.977L20.606 26.354H20.605ZM16.342 26.355L15.719 26.825L16.188 27.449L16.813 26.98L16.342 26.355ZM7.902 26.465L6.77 27.316L7.9 28.166L9.033 27.316L7.903 26.465H7.902ZM10.377 26.465L9.242 27.318L10.375 28.17L11.51 27.316L10.377 26.465ZM37.597 26.465L36.465 27.316L37.6 28.17L38.732 27.318L37.598 26.465H37.597ZM40.072 26.465L38.942 27.316L40.074 28.166L41.205 27.316L40.072 26.465ZM30.33 26.518L29.705 26.986L30.175 27.611L30.801 27.143L30.331 26.518H30.33ZM26.066 26.52L25.441 26.988L25.911 27.613L26.535 27.145L26.066 26.52ZM21.801 26.523L21.176 26.993L21.645 27.615L22.27 27.146L21.8 26.523H21.801ZM17.537 26.525L16.912 26.995L17.381 27.619L18.006 27.15L17.537 26.525ZM31.525 26.685L30.9 27.155L31.37 27.779L31.994 27.311L31.525 26.686V26.685ZM27.262 26.689L26.635 27.159L27.104 27.783L27.729 27.313L27.262 26.689ZM22.996 26.691L22.371 27.162L22.84 27.785L23.465 27.316L22.996 26.691ZM18.73 26.695L18.105 27.165L18.575 27.791L19.199 27.321L18.73 26.695ZM14.465 26.699L13.842 27.168L14.311 27.791L14.934 27.324L14.464 26.699H14.465ZM32.719 26.855L32.094 27.325L32.562 27.949L33.188 27.48L32.718 26.855H32.719ZM28.455 26.859L27.83 27.329L28.299 27.953L28.924 27.483L28.455 26.859ZM24.189 26.861L23.564 27.331L24.035 27.955L24.658 27.486L24.189 26.861ZM19.924 26.865L19.301 27.334L19.77 27.959L20.393 27.489L19.923 26.865H19.924ZM15.66 26.867L15.035 27.337L15.505 27.961L16.129 27.492L15.66 26.867ZM33.912 27.025L33.289 27.495L33.758 28.119L34.383 27.65L33.913 27.025H33.912ZM29.648 27.029L29.023 27.498L29.494 28.123L30.117 27.654L29.648 27.029ZM25.383 27.031L24.76 27.5L25.229 28.125L25.854 27.656L25.383 27.031ZM21.119 27.035L20.496 27.504L20.965 28.127L21.588 27.658L21.119 27.035ZM16.855 27.037L16.23 27.506L16.7 28.131L17.324 27.662L16.855 27.037ZM30.842 27.199L30.217 27.668L30.687 28.293L31.311 27.823L30.841 27.199H30.842ZM26.578 27.201L25.953 27.67L26.422 28.295L27.047 27.825L26.578 27.201ZM22.314 27.205L21.687 27.674L22.157 28.299L22.783 27.829L22.314 27.205ZM18.049 27.207L17.424 27.676L17.893 28.303L18.518 27.832L18.048 27.207H18.049ZM32.037 27.367L31.412 27.836L31.881 28.461L32.506 27.992L32.037 27.367ZM27.773 27.371L27.146 27.84L27.617 28.465L28.242 27.996L27.773 27.371ZM23.508 27.373L22.883 27.843L23.352 28.469L23.977 28L23.507 27.373H23.508ZM19.242 27.377L18.617 27.847L19.086 28.471L19.711 28.002L19.242 27.377ZM14.977 27.381L14.354 27.85L14.822 28.473L15.447 28.006L14.977 27.381ZM6.666 27.395L5.533 28.245L6.664 29.095L7.797 28.245L6.666 27.395ZM9.139 27.395L8.006 28.246L9.141 29.098L10.271 28.246L9.139 27.395ZM38.836 27.395L37.703 28.246L38.834 29.098L39.969 28.246L38.836 27.395ZM41.309 27.395L40.178 28.245L41.311 29.095L42.441 28.245L41.309 27.395ZM33.23 27.537L32.607 28.006L33.077 28.631L33.701 28.162L33.231 27.537H33.23ZM28.967 27.541L28.344 28.01L28.812 28.635L29.437 28.166L28.967 27.541ZM24.701 27.543L24.078 28.013L24.547 28.639L25.172 28.168L24.702 27.543H24.701ZM20.437 27.547L19.812 28.016L20.282 28.641L20.906 28.171L20.438 27.547H20.437ZM16.174 27.549L15.549 28.019L16.018 28.643L16.643 28.173L16.173 27.549H16.174ZM30.16 27.711L29.535 28.18L30.004 28.805L30.629 28.335L30.16 27.711ZM25.896 27.715L25.271 28.184L25.741 28.807L26.365 28.337L25.896 27.715ZM21.631 27.717L21.008 28.186L21.477 28.809L22.1 28.342L21.63 27.717H21.631ZM17.367 27.719L16.742 28.187L17.212 28.814L17.836 28.344L17.367 27.719ZM31.354 27.881L30.73 28.35L31.2 28.975L31.824 28.504L31.354 27.881ZM27.09 27.883L26.467 28.353L26.936 28.977L27.559 28.507L27.089 27.883H27.09ZM22.826 27.887L22.201 28.355L22.67 28.98L23.295 28.512L22.826 27.887ZM18.561 27.889L17.936 28.357L18.404 28.982L19.029 28.514L18.561 27.889ZM14.297 27.893L13.672 28.361L14.141 28.986L14.766 28.518L14.296 27.893H14.297ZM32.549 28.049L31.924 28.518L32.394 29.145L33.02 28.675L32.549 28.049ZM28.285 28.053L27.66 28.523L28.129 29.148L28.756 28.678L28.286 28.053H28.285ZM24.02 28.057L23.395 28.525L23.863 29.15L24.49 28.682L24.02 28.057ZM19.756 28.061L19.129 28.529L19.598 29.152L20.223 28.684L19.756 28.061ZM15.49 28.063L14.865 28.531L15.335 29.154L15.959 28.688L15.49 28.063ZM33.744 28.221L33.119 28.689L33.588 29.314L34.213 28.844L33.744 28.221ZM29.479 28.223L28.855 28.691L29.325 29.316L29.949 28.848L29.479 28.223ZM25.215 28.227L24.59 28.695L25.059 29.318L25.682 28.85L25.215 28.227ZM20.949 28.229L20.324 28.699L20.793 29.322L21.418 28.854L20.949 28.229ZM16.686 28.23L16.061 28.701L16.529 29.326L17.154 28.857L16.686 28.23ZM7.902 28.324L6.77 29.174L7.904 30.025L9.035 29.175L7.902 28.325V28.324ZM10.377 28.324L9.244 29.176L10.377 30.026L11.51 29.176L10.377 28.324ZM37.597 28.324L36.465 29.176L37.598 30.026L38.73 29.176L37.598 28.324H37.597ZM40.072 28.324L38.939 29.176L40.07 30.026L41.205 29.174L40.072 28.324ZM30.672 28.393L30.047 28.861L30.517 29.486L31.141 29.018L30.671 28.393H30.672ZM26.408 28.396L25.783 28.866L26.253 29.488L26.877 29.02L26.408 28.396ZM22.143 28.398L21.52 28.868L21.99 29.492L22.613 29.023L22.143 28.398ZM17.879 28.4L17.254 28.87L17.723 29.494L18.348 29.025L17.878 28.4H17.879ZM31.867 28.563L31.242 29.031L31.711 29.656L32.336 29.188L31.867 28.563ZM27.604 28.566L26.979 29.036L27.447 29.66L28.072 29.191L27.604 28.566ZM23.338 28.568L22.713 29.038L23.182 29.662L23.807 29.193L23.337 28.568H23.338ZM19.074 28.572L18.449 29.041L18.918 29.664L19.541 29.195L19.074 28.572ZM14.809 28.574L14.184 29.043L14.652 29.668L15.277 29.199L14.809 28.574ZM33.063 28.732L32.437 29.202L32.907 29.826L33.531 29.357L33.063 28.732ZM28.797 28.734L28.172 29.205L28.641 29.83L29.266 29.36L28.796 28.734H28.797ZM24.533 28.738L23.906 29.209L24.375 29.832L25 29.362L24.533 28.738ZM20.268 28.742L19.643 29.211L20.111 29.836L20.736 29.366L20.268 28.742ZM16.002 28.744L15.379 29.213L15.848 29.838L16.471 29.369L16.002 28.744ZM29.99 28.904L29.367 29.373L29.836 29.998L30.461 29.529L29.991 28.904H29.99ZM25.727 28.908L25.102 29.377L25.57 30.002L26.195 29.533L25.727 28.908ZM21.461 28.91L20.836 29.379L21.306 30.006L21.932 29.537L21.461 28.91ZM17.197 28.914L16.572 29.383L17.041 30.008L17.666 29.538L17.197 28.914ZM31.184 29.074L30.561 29.543L31.029 30.168L31.654 29.699L31.184 29.074ZM26.92 29.078L26.297 29.547L26.766 30.172L27.391 29.703L26.92 29.078ZM22.656 29.08L22.031 29.549L22.502 30.174L23.125 29.705L22.656 29.08ZM18.393 29.084L17.768 29.553L18.236 30.176L18.859 29.707L18.393 29.084ZM14.127 29.086L13.502 29.555L13.971 30.18L14.596 29.71L14.127 29.086ZM32.379 29.246L31.756 29.715L32.223 30.338L32.848 29.869L32.378 29.246H32.379ZM28.115 29.248L27.49 29.717L27.959 30.342L28.584 29.873L28.115 29.248ZM23.85 29.25L23.225 29.72L23.693 30.344L24.318 29.873L23.85 29.25ZM6.666 29.252L5.531 30.104L6.664 30.955L7.799 30.104L6.666 29.252ZM41.309 29.252L40.176 30.104L41.311 30.955L42.443 30.104L41.309 29.252ZM9.141 29.254L8.008 30.104L9.141 30.955L10.271 30.104L9.141 29.254ZM19.586 29.254L18.961 29.723L19.43 30.348L20.055 29.877L19.585 29.254H19.586ZM38.834 29.254L37.704 30.104L38.834 30.955L39.967 30.104L38.834 29.254ZM15.32 29.256L14.695 29.725L15.166 30.352L15.791 29.881L15.321 29.256H15.32ZM33.574 29.414L32.949 29.883L33.418 30.508L34.043 30.039L33.574 29.414ZM29.309 29.416L28.684 29.886L29.152 30.51L29.779 30.041L29.309 29.416ZM25.045 29.42L24.42 29.89L24.889 30.514L25.514 30.044L25.044 29.42H25.045ZM20.779 29.424L20.154 29.893L20.623 30.518L21.248 30.048L20.779 29.424ZM16.514 29.426L15.891 29.895L16.359 30.52L16.982 30.05L16.514 29.426ZM30.504 29.586L29.879 30.055L30.348 30.68L30.973 30.21L30.503 29.586H30.504ZM26.238 29.59L25.615 30.059L26.084 30.684L26.709 30.214L26.239 29.59H26.238ZM21.973 29.594L21.35 30.062L21.818 30.687L22.443 30.219L21.973 29.594ZM17.711 29.596L17.084 30.066L17.553 30.689L18.178 30.219L17.711 29.596ZM31.697 29.758L31.072 30.227L31.541 30.852L32.166 30.381L31.697 29.758ZM27.432 29.76L26.809 30.229L27.277 30.854L27.902 30.384L27.432 29.76ZM23.168 29.764L22.545 30.23L23.014 30.855L23.637 30.387L23.168 29.764ZM18.904 29.766L18.279 30.234L18.748 30.859L19.373 30.389L18.904 29.766ZM14.639 29.768L14.014 30.238L14.484 30.863L15.107 30.395L14.639 29.768ZM32.891 29.928L32.268 30.396L32.736 31.02L33.361 30.55L32.891 29.928ZM28.627 29.93L28.002 30.398L28.471 31.023L29.096 30.553L28.627 29.93ZM24.363 29.932L23.738 30.402L24.207 31.027L24.832 30.557L24.363 29.932ZM20.098 29.936L19.473 30.404L19.943 31.029L20.566 30.561L20.098 29.936ZM15.832 29.938L15.207 30.406L15.677 31.031L16.301 30.563L15.832 29.938ZM34.086 30.096L33.461 30.564L33.931 31.189L34.555 30.721L34.085 30.096H34.086ZM29.822 30.098L29.195 30.568L29.666 31.193L30.291 30.723L29.822 30.098ZM25.557 30.102L24.932 30.572L25.4 31.197L26.027 30.727L25.557 30.102ZM21.291 30.105L20.666 30.575L21.135 31.199L21.762 30.73L21.291 30.105ZM17.027 30.109L16.402 30.579L16.872 31.201L17.494 30.732L17.027 30.109ZM7.904 30.182L6.77 31.033L7.9 31.885L9.035 31.033L7.905 30.182H7.904ZM10.377 30.182L9.244 31.033L10.377 31.883L11.51 31.033L10.377 30.182ZM37.597 30.182L36.465 31.033L37.598 31.883L38.73 31.033L37.598 30.182H37.597ZM40.07 30.182L38.94 31.033L40.074 31.885L41.205 31.033L40.07 30.182ZM31.016 30.27L30.393 30.738L30.861 31.361L31.484 30.893L31.016 30.27ZM26.75 30.271L26.127 30.741L26.596 31.365L27.221 30.896L26.75 30.271ZM22.486 30.275L21.861 30.745L22.331 31.367L22.955 30.898L22.486 30.275ZM18.223 30.277L17.598 30.748L18.066 31.371L18.691 30.902L18.223 30.277ZM32.209 30.439L31.584 30.909L32.053 31.533L32.678 31.063L32.209 30.439ZM27.945 30.441L27.32 30.911L27.79 31.535L28.414 31.066L27.945 30.441ZM23.68 30.445L23.057 30.915L23.525 31.537L24.148 31.07L23.68 30.445ZM19.416 30.447L18.791 30.916L19.261 31.541L19.885 31.072L19.416 30.447ZM15.15 30.449L14.525 30.919L14.995 31.543L15.619 31.074L15.15 30.449ZM33.404 30.609L32.779 31.079L33.248 31.703L33.873 31.233L33.404 30.609ZM29.139 30.611L28.514 31.081L28.984 31.705L29.607 31.236L29.139 30.611ZM24.875 30.615L24.25 31.084L24.719 31.709L25.346 31.24L24.875 30.615ZM20.609 30.617L19.986 31.086L20.456 31.711L21.08 31.242L20.61 30.617H20.609ZM16.346 30.621L15.721 31.09L16.189 31.713L16.812 31.244L16.346 30.621ZM30.334 30.781L29.709 31.252L30.178 31.875L30.803 31.405L30.334 30.781ZM26.068 30.783L25.443 31.253L25.913 31.879L26.539 31.409L26.069 30.783H26.068ZM21.805 30.787L21.178 31.257L21.646 31.881L22.271 31.411L21.805 30.787ZM17.539 30.791L16.916 31.26L17.383 31.883L18.008 31.414L17.539 30.791ZM31.527 30.951L30.904 31.42L31.373 32.045L31.998 31.575L31.528 30.951H31.527ZM27.264 30.953L26.639 31.422L27.107 32.047L27.732 31.578L27.264 30.953ZM22.998 30.957L22.373 31.426L22.843 32.051L23.467 31.582L22.998 30.957ZM18.734 30.959L18.109 31.428L18.579 32.055L19.203 31.584L18.734 30.959ZM14.469 30.963L13.844 31.432L14.313 32.057L14.937 31.586L14.469 30.963ZM9.141 31.111L8.006 31.963L9.139 32.813L10.271 31.961L9.141 31.111ZM38.834 31.111L37.704 31.961L38.836 32.813L39.969 31.963L38.834 31.111ZM6.664 31.113L5.531 31.963L6.664 32.814L7.797 31.963L6.664 31.113ZM41.311 31.113L40.178 31.963L41.311 32.814L42.443 31.963L41.311 31.113ZM32.723 31.121L32.098 31.59L32.566 32.215L33.191 31.746L32.723 31.121ZM28.457 31.123L27.832 31.592L28.302 32.217L28.926 31.748L28.457 31.123ZM24.193 31.127L23.57 31.596L24.04 32.221L24.662 31.752L24.193 31.127ZM19.928 31.129L19.305 31.598L19.773 32.223L20.398 31.753L19.928 31.129ZM15.664 31.133L15.039 31.602L15.508 32.225L16.131 31.755L15.664 31.133ZM33.916 31.291L33.291 31.76L33.761 32.385L34.385 31.916L33.916 31.291ZM25.386 31.295L24.762 31.765L25.23 32.391L25.857 31.921L25.387 31.295H25.386ZM29.652 31.295L29.027 31.764L29.497 32.387L30.121 31.918L29.652 31.295ZM21.123 31.299L20.498 31.769L20.967 32.393L21.59 31.923L21.123 31.299ZM16.857 31.303L16.232 31.771L16.702 32.396L17.326 31.928L16.857 31.303ZM30.846 31.463L30.221 31.933L30.689 32.557L31.316 32.087L30.846 31.463ZM26.58 31.465L25.955 31.935L26.424 32.561L27.051 32.09L26.581 31.465H26.58ZM22.316 31.469L21.691 31.939L22.161 32.564L22.785 32.094L22.316 31.469ZM18.051 31.473L17.428 31.941L17.896 32.566L18.52 32.098L18.05 31.473H18.051ZM32.041 31.633L31.416 32.102L31.885 32.727L32.51 32.257L32.041 31.633ZM27.775 31.635L27.15 32.104L27.62 32.729L28.244 32.259L27.775 31.635ZM19.246 31.641L18.621 32.111L19.09 32.736L19.715 32.266L19.246 31.641ZM23.512 31.641L22.887 32.109L23.355 32.734L23.98 32.264L23.512 31.641ZM14.982 31.645L14.355 32.115L14.825 32.738L15.449 32.268L14.982 31.645ZM33.234 31.803L32.609 32.271L33.079 32.898L33.703 32.428L33.234 31.803ZM28.971 31.807L28.346 32.275L28.814 32.898L29.437 32.43L28.971 31.807ZM24.705 31.809L24.08 32.277L24.55 32.902L25.174 32.434L24.705 31.809ZM20.441 31.812L19.816 32.282L20.286 32.904L20.908 32.436L20.441 31.813V31.812ZM16.176 31.814L15.551 32.284L16.02 32.908L16.645 32.439L16.175 31.814H16.176ZM30.164 31.977L29.539 32.445L30.008 33.068L30.633 32.6L30.164 31.977ZM25.898 31.979L25.273 32.447L25.743 33.072L26.369 32.602L25.899 31.979H25.898ZM21.635 31.98L21.01 32.451L21.479 33.074L22.104 32.605L21.634 31.98H21.635ZM17.369 31.984L16.744 32.454L17.214 33.078L17.84 32.609L17.37 31.984H17.369ZM7.9 32.041L6.768 32.893L7.9 33.743L9.033 32.893L7.9 32.04V32.041ZM10.377 32.041L9.244 32.893L10.379 33.744L11.514 32.893L10.377 32.041ZM37.597 32.041L36.461 32.893L37.596 33.744L38.73 32.893L37.598 32.041H37.597ZM40.074 32.041L38.941 32.893L40.074 33.743L41.207 32.893L40.074 32.041ZM31.359 32.145L30.732 32.615L31.202 33.238L31.828 32.77L31.359 32.145ZM27.094 32.146L26.467 32.617L26.937 33.242L27.562 32.772L27.094 32.146ZM22.828 32.152L22.203 32.622L22.672 33.246L23.299 32.777L22.829 32.152H22.828ZM18.563 32.154L17.939 32.623L18.409 33.248L19.033 32.779L18.563 32.154ZM14.301 32.158L13.676 32.627L14.143 33.25L14.768 32.781L14.301 32.158ZM32.553 32.314L31.928 32.784L32.398 33.408L33.021 32.939L32.553 32.314ZM28.289 32.318L27.664 32.788L28.133 33.41L28.756 32.941L28.289 32.318ZM24.021 32.32L23.398 32.79L23.868 33.416L24.492 32.946L24.022 32.32H24.021ZM19.76 32.324L19.133 32.793L19.602 33.418L20.227 32.948L19.76 32.324ZM15.494 32.326L14.869 32.796L15.336 33.42L15.963 32.951L15.494 32.326ZM33.746 32.484L33.121 32.954L33.59 33.578L34.215 33.109L33.746 32.484ZM29.482 32.488L28.857 32.957L29.327 33.582L29.951 33.113L29.482 32.488ZM25.217 32.49L24.594 32.959L25.062 33.584L25.686 33.115L25.216 32.49H25.217ZM20.953 32.494L20.328 32.963L20.797 33.588L21.422 33.118L20.953 32.494ZM16.688 32.496L16.063 32.965L16.533 33.59L17.156 33.121L16.688 32.496ZM30.676 32.658L30.051 33.127L30.52 33.752L31.145 33.282L30.675 32.658H30.676ZM26.412 32.66L25.785 33.129L26.255 33.754L26.881 33.285L26.412 32.66ZM22.146 32.664L21.523 33.133L21.993 33.758L22.617 33.289L22.147 32.664H22.146ZM17.881 32.666L17.258 33.135L17.727 33.76L18.352 33.291L17.881 32.666ZM31.871 32.826L31.246 33.296L31.715 33.922L32.34 33.452L31.871 32.826ZM27.607 32.83L26.98 33.3L27.45 33.924L28.074 33.454L27.607 32.83ZM23.34 32.832L22.715 33.302L23.185 33.928L23.811 33.459L23.34 32.832ZM19.076 32.836L18.451 33.305L18.92 33.93L19.545 33.46L19.076 32.836ZM14.812 32.84L14.188 33.309L14.656 33.932L15.281 33.462L14.812 32.84ZM6.664 32.97L5.531 33.82L6.664 34.672L7.794 33.82L6.664 32.97ZM9.139 32.97L8.006 33.822L9.141 34.674L10.273 33.824L9.139 32.971V32.97ZM38.836 32.97L37.701 33.824L38.834 34.674L39.969 33.822L38.836 32.971V32.97ZM41.311 32.97L40.18 33.82L41.31 34.672L42.443 33.82L41.311 32.97ZM33.064 32.996L32.439 33.465L32.91 34.09L33.533 33.621L33.064 32.996ZM28.801 33L28.176 33.469L28.645 34.094L29.27 33.625L28.8 33H28.801ZM24.535 33.002L23.91 33.471L24.379 34.096L25.004 33.627L24.535 33.002ZM20.271 33.006L19.645 33.475L20.115 34.1L20.74 33.63L20.271 33.006ZM16.006 33.008L15.379 33.478L15.849 34.104L16.475 33.634L16.005 33.008H16.006ZM29.994 33.17L29.369 33.639L29.838 34.264L30.463 33.794L29.994 33.17ZM25.729 33.172L25.105 33.641L25.575 34.266L26.197 33.796L25.729 33.172ZM21.465 33.176L20.842 33.645L21.311 34.27L21.936 33.8L21.465 33.176ZM17.199 33.18L16.576 33.648L17.045 34.273L17.67 33.803L17.2 33.18H17.199ZM31.187 33.34L30.562 33.809L31.033 34.434L31.658 33.964L31.188 33.34H31.187ZM26.924 33.344L26.299 33.812L26.768 34.436L27.393 33.966L26.923 33.344H26.924ZM22.658 33.346L22.035 33.814L22.504 34.439L23.129 33.971L22.659 33.346H22.658ZM18.395 33.35L17.77 33.818L18.238 34.441L18.863 33.973L18.395 33.35ZM14.129 33.352L13.506 33.82L13.975 34.443L14.598 33.977L14.128 33.352H14.129ZM32.383 33.508L31.758 33.978L32.227 34.604L32.852 34.133L32.382 33.508H32.383ZM7.9 33.9L6.768 34.75L7.904 35.604L9.037 34.752L7.9 33.9ZM10.375 33.9L9.242 34.75L10.375 35.602L11.508 34.75L10.375 33.9ZM37.6 33.9L36.467 34.75L37.6 35.602L38.732 34.75L37.6 33.9ZM40.074 33.9L38.938 34.752L40.07 35.604L41.207 34.75L40.074 33.9ZM6.664 34.828L5.531 35.68L6.666 36.533L7.799 35.682L6.664 34.828ZM9.137 34.828L8.006 35.68L9.136 36.53L10.27 35.68L9.137 34.828ZM38.837 34.828L37.705 35.68L38.838 36.53L39.968 35.68L38.838 34.828H38.837ZM41.311 34.828L40.176 35.682L41.309 36.533L42.443 35.68L41.311 34.828ZM7.901 35.758L6.768 36.609L7.9 37.459L9.033 36.607L7.9 35.757L7.901 35.758ZM40.074 35.758L38.941 36.608L40.074 37.459L41.207 36.609L40.074 35.758ZM10.377 35.76L9.244 36.61L10.375 37.459L11.508 36.609L10.377 35.759V35.76ZM37.597 35.76L36.467 36.61L37.6 37.459L38.73 36.609L37.598 35.759L37.597 35.76ZM6.664 36.688L5.527 37.539L6.66 38.391L7.797 37.537L6.664 36.687V36.688ZM9.141 36.688L8.008 37.539L9.138 38.389L10.271 37.537L9.141 36.687V36.688ZM14.086 36.688L12.956 37.538L14.09 38.391L15.22 37.541L14.086 36.688ZM16.564 36.688L15.43 37.539L16.564 38.391L17.699 37.537L16.564 36.687V36.688ZM19.039 36.688L17.906 37.538L19.037 38.388L20.17 37.538L19.04 36.688H19.039ZM21.512 36.688L20.379 37.539L21.512 38.391L22.646 37.539L21.512 36.687V36.688ZM26.461 36.688L25.328 37.539L26.463 38.391L27.596 37.539L26.461 36.687V36.688ZM28.938 36.688L27.805 37.538L28.938 38.388L30.07 37.538L28.937 36.688H28.938ZM31.41 36.688L30.277 37.538L31.41 38.391L32.545 37.539L31.41 36.687V36.688ZM33.889 36.688L32.754 37.541L33.884 38.391L35.02 37.537L33.889 36.687V36.688ZM38.834 36.688L37.704 37.538L38.836 38.388L39.966 37.539L38.834 36.687V36.688ZM41.311 36.688L40.178 37.538L41.314 38.391L42.447 37.539L41.311 36.687V36.688ZM11.613 36.689L10.483 37.539L11.613 38.389L12.746 37.539L11.613 36.689ZM23.988 36.689L22.854 37.541L23.988 38.393L25.121 37.541L23.988 36.689ZM36.361 36.689L35.229 37.539L36.361 38.389L37.492 37.539L36.362 36.689H36.361ZM17.801 37.615L16.668 38.467L17.798 39.318L18.934 38.465L17.801 37.615ZM30.171 37.615L29.041 38.465L30.176 39.318L31.306 38.467L30.172 37.615H30.171ZM7.902 37.617L6.768 38.471L7.898 39.321L9.033 38.467L7.903 37.617H7.902ZM10.377 37.617L9.244 38.469L10.377 39.319L11.51 38.467L10.377 37.617ZM12.85 37.617L11.717 38.467L12.852 39.32L13.984 38.469L12.85 37.617ZM20.275 37.617L19.143 38.467L20.277 39.318L21.41 38.468L20.275 37.618V37.617ZM22.752 37.617L21.617 38.469L22.75 39.32L23.885 38.469L22.752 37.617ZM25.222 37.617L24.09 38.469L25.225 39.32L26.357 38.469L25.223 37.617H25.222ZM27.699 37.617L26.566 38.469L27.699 39.319L28.832 38.467L27.699 37.617ZM35.125 37.617L33.99 38.469L35.123 39.32L36.258 38.467L35.125 37.617ZM37.598 37.617L36.465 38.467L37.598 39.318L38.73 38.468L37.598 37.618V37.617ZM40.072 37.617L38.942 38.467L40.076 39.32L41.207 38.47L40.072 37.617ZM15.324 37.619L14.194 38.469L15.326 39.319L16.457 38.469L15.324 37.619ZM32.65 37.619L31.518 38.469L32.648 39.319L33.781 38.469L32.651 37.619H32.65ZM11.613 38.545L10.48 39.396L11.615 40.248L12.748 39.396L11.613 38.545ZM19.039 38.545L17.904 39.396L19.039 40.248L20.172 39.396L19.039 38.545ZM23.989 38.545L22.854 39.398L23.988 40.25L25.121 39.398L23.988 38.545H23.989ZM28.936 38.545L27.801 39.396L28.936 40.248L30.07 39.396L28.936 38.545ZM36.361 38.545L35.227 39.396L36.359 40.248L37.494 39.396L36.361 38.545ZM6.666 38.547L5.533 39.397L6.664 40.247L7.797 39.397L6.666 38.547ZM9.141 38.547L8.006 39.4L9.136 40.25L10.271 39.396L9.141 38.546V38.547ZM14.088 38.547L12.955 39.398L14.088 40.248L15.221 39.398L14.088 38.547ZM16.561 38.547L15.43 39.397L16.563 40.247L17.693 39.398L16.561 38.547ZM21.514 38.547L20.381 39.398L21.516 40.248L22.648 39.398L21.514 38.547ZM26.461 38.547L25.328 39.398L26.461 40.248L27.594 39.398L26.461 38.547ZM31.414 38.547L30.281 39.398L31.412 40.246L32.545 39.396L31.415 38.546L31.414 38.547ZM33.887 38.547L32.754 39.398L33.887 40.248L35.02 39.398L33.887 38.547ZM38.834 38.547L37.704 39.397L38.838 40.25L39.968 39.4L38.834 38.547ZM41.309 38.547L40.178 39.397L41.311 40.247L42.441 39.397L41.309 38.547ZM10.375 39.475L9.24 40.326L10.375 41.18L11.51 40.326L10.375 39.475ZM12.852 39.475L11.719 40.326L12.852 41.178L13.984 40.326L12.852 39.475ZM20.277 39.475L19.145 40.328L20.277 41.178L21.41 40.326L20.277 39.475ZM22.75 39.475L21.617 40.326L22.752 41.178L23.885 40.326L22.75 39.475ZM25.225 39.475L24.09 40.326L25.223 41.178L26.357 40.326L25.225 39.475ZM27.697 39.475L26.563 40.326L27.697 41.178L28.83 40.328L27.697 39.475ZM35.123 39.475L33.99 40.326L35.123 41.178L36.256 40.326L35.123 39.475ZM37.6 39.475L36.465 40.326L37.6 41.18L38.734 40.326L37.6 39.475ZM7.904 39.477L6.771 40.327L7.902 41.176L9.035 40.326L7.905 39.476L7.904 39.477ZM15.324 39.477L14.191 40.327L15.324 41.176L16.457 40.326L15.324 39.476V39.477ZM17.799 39.477L16.668 40.327L17.801 41.177L18.931 40.328L17.799 39.477ZM30.176 39.477L29.043 40.328L30.173 41.178L31.307 40.326L30.176 39.476V39.477ZM32.65 39.477L31.518 40.327L32.65 41.176L33.783 40.326L32.65 39.476V39.477ZM40.07 39.477L38.94 40.327L40.072 41.176L41.203 40.326L40.07 39.476V39.477ZM9.139 40.404L8.006 41.254L9.141 42.107L10.273 41.256L9.139 40.404ZM11.615 40.404L10.48 41.258L11.613 42.108L12.748 41.256L11.615 40.404ZM14.088 40.404L12.955 41.256L14.088 42.106L15.221 41.254L14.088 40.404ZM16.563 40.404L15.43 41.256L16.563 42.107L17.695 41.256L16.562 40.404H16.563ZM21.513 40.404L20.379 41.256L21.514 42.107L22.648 41.256L21.514 40.404H21.513ZM23.988 40.404L22.855 41.256L23.988 42.106L25.121 41.256L23.988 40.404ZM26.461 40.404L25.326 41.256L26.461 42.107L27.596 41.256L26.461 40.404ZM31.412 40.404L30.279 41.256L31.412 42.107L32.545 41.256L31.412 40.404ZM33.887 40.404L32.754 41.254L33.887 42.105L35.02 41.255L33.887 40.405V40.404ZM36.359 40.404L35.227 41.256L36.361 42.107L37.494 41.257L36.359 40.404ZM38.836 40.404L37.701 41.256L38.834 42.107L39.969 41.254L38.836 40.404ZM6.664 40.406L5.534 41.256L6.664 42.106L7.797 41.256L6.664 40.406ZM41.311 40.406L40.178 41.256L41.311 42.106L42.441 41.256L41.311 40.406ZM19.037 40.408L17.907 41.256L19.039 42.107L20.169 41.257L19.037 40.408ZM28.937 40.408L27.805 41.258L28.935 42.108L30.068 41.256L28.938 40.408H28.937Z" fill="#333333"/>
</svg>
