<svg width="48" height="48" viewBox="0 0 48 48" fill="none" xmlns="http://www.w3.org/2000/svg">
<path opacity="0.95" fill-rule="evenodd" clip-rule="evenodd" d="M5.88298 5.51809L5.50598 5.80109V6.07709L6.55898 6.86709L5.50598 7.65809V7.93609L6.55898 8.72609L5.50598 9.51809V9.79709L6.55898 10.5871L5.50598 11.3791V11.6551L6.55898 12.4451L5.50598 13.2361V13.5121L6.56098 14.3051L5.50598 15.0951V15.3721L6.56098 16.1641L5.50598 16.9571V17.2291L6.55898 18.0191L5.50598 18.8111V19.0901L6.56098 19.8801L5.50598 20.6741V20.9501L6.55898 21.7401L5.50598 22.5311V22.8071L6.56098 23.6001L5.50598 24.3931V24.6661L6.55898 25.4571L5.50598 26.2481V26.5241L6.55898 27.3141L5.50598 28.1051V28.3811L6.56098 29.1741L5.50598 29.9641V30.2431L6.56098 31.0351L5.50598 31.8261V32.1021L6.55898 32.8921L5.50598 33.6841V33.9591L6.55898 34.7501L5.50598 35.5411V35.8191L6.56198 36.6111L5.50598 37.4041V37.6761L6.55898 38.4661L5.50598 39.2581V39.5381L6.55898 40.3261L5.50598 41.1171V41.3971L6.55898 42.1861L6.16598 42.4801H6.37298L6.66298 42.2641L6.95298 42.4801H7.16398L6.76798 42.1841L7.89998 41.3341L9.03498 42.1861L8.64298 42.4801H8.85198L9.13898 42.2641L9.42798 42.4801H9.63798L9.24398 42.1861L10.377 41.3341L11.51 42.1861L11.117 42.4801H11.324L11.614 42.2621L11.904 42.4801H12.109L11.717 42.1861L12.852 41.3341L13.982 42.1841L13.588 42.4801H13.798L14.088 42.2621L14.378 42.4801H14.586L14.193 42.1861L15.326 41.3341L16.459 42.1861L16.066 42.4801H16.277L16.564 42.2641L16.854 42.4801H17.061L16.668 42.1861L17.801 41.3361L18.934 42.1861L18.543 42.4801H18.748L19.038 42.2641L19.326 42.4801H19.537L19.143 42.1841L20.273 41.3361L21.406 42.1881L21.018 42.4801H21.223L21.51 42.2661L21.797 42.4801H22.012L21.617 42.1841L22.75 41.3321L23.883 42.1841L23.488 42.4801H23.695L23.988 42.2621L24.279 42.4801H24.486L24.09 42.1841L25.223 41.3321L26.357 42.1841L25.963 42.4801H26.178L26.465 42.2661L26.752 42.4801H26.957L26.567 42.1881L27.701 41.3361L28.832 42.1841L28.437 42.4801H28.648L28.938 42.2641L29.227 42.4801H29.432L29.041 42.1861L30.174 41.3361L31.307 42.1861L30.914 42.4801H31.121L31.411 42.2641L31.697 42.4801H31.908L31.516 42.1861L32.648 41.3341L33.781 42.1861L33.389 42.4801H33.596L33.886 42.2621L34.176 42.4801H34.386L33.992 42.1841L35.123 41.3341L36.258 42.1861L35.865 42.4801H36.07L36.361 42.2621L36.651 42.4801H36.857L36.465 42.1861L37.598 41.3341L38.73 42.1861L38.336 42.4801H38.546L38.836 42.2641L39.123 42.4801H39.332L38.939 42.1861L40.074 41.3341L41.207 42.1841L40.811 42.4801H41.021L41.312 42.2641L41.602 42.4801H41.809L41.416 42.1861L42.469 41.3961V41.1171L41.416 40.3271L42.469 39.5371V39.2581L41.416 38.4671L42.469 37.6761V37.4041L41.412 36.6111L42.469 35.8181V35.5411L41.416 34.7501L42.469 33.9591V33.6841L41.416 32.8931L42.469 32.1021V31.8261L41.414 31.0361L42.469 30.2421V29.9651L41.414 29.1741L42.469 28.3811V28.1061L41.416 27.3141L42.469 26.5241V26.2481L41.416 25.4571L42.469 24.6661V24.3931L41.414 23.6001L42.469 22.8071V22.5311L41.416 21.7411L42.469 20.9491V20.6741L41.414 19.8811L42.469 19.0901V18.8101L41.416 18.0201L42.469 17.2291V16.9571L41.414 16.1641L42.469 15.3711V15.0961L41.414 14.3051L42.469 13.5121V13.2361L41.416 12.4461L42.469 11.6541V11.3791L41.416 10.5881L42.469 9.79709V9.51709L41.416 8.72709L42.469 7.93609V7.65809L41.416 6.86809L42.469 6.07609V5.80109L42.092 5.51809H41.885L42.447 5.93909L41.314 6.79109L40.18 5.93909L40.74 5.51809H40.531L40.074 5.86109L39.617 5.51809H39.407L39.969 5.93909L38.838 6.79109L37.705 5.93909L38.265 5.51809H38.055L37.6 5.85909L37.143 5.51809H36.932L37.492 5.93909L36.359 6.79109L35.227 5.93909L35.787 5.51809H35.58L35.123 5.86109L34.666 5.51809H34.457L35.017 5.93909L33.887 6.79109L32.754 5.93909L33.314 5.51809H33.105L32.648 5.86109L32.191 5.51809H31.984L32.544 5.93909L31.41 6.79109L30.277 5.93909L30.84 5.51809H30.63L30.174 5.86109L29.717 5.51809H29.51L30.07 5.93909L28.937 6.79109L27.803 5.93909L28.365 5.51809H28.158L27.699 5.86109L27.242 5.51809H27.032L27.594 5.94109L26.464 6.79109L25.33 5.93909L25.89 5.51809H25.68L25.225 5.85909L24.77 5.51809H24.559L25.119 5.93909L23.989 6.78909L22.855 5.93909L23.416 5.51809H23.206L22.75 5.85909L22.295 5.51809H22.084L22.644 5.93909L21.512 6.79109L20.379 5.94109L20.943 5.51809H20.733L20.275 5.86109L19.816 5.51809H19.609L20.172 5.93909L19.039 6.79109L17.904 5.93909L18.464 5.51809H18.258L17.801 5.86109L17.344 5.51809H17.134L17.697 5.93909L16.564 6.79109L15.43 5.93909L15.99 5.51809H15.783L15.326 5.86109L14.869 5.51809H14.66L15.22 5.93909L14.088 6.79109L12.957 5.93909L13.517 5.51809H13.309L12.852 5.86109L12.395 5.51809H12.188L12.748 5.93909L11.615 6.79109L10.482 5.93909L11.043 5.51809H10.832L10.375 5.85909L9.91998 5.51809H9.70898L10.269 5.93909L9.13698 6.79109L8.00598 5.93909L8.56798 5.51809H8.35798L7.89998 5.86009L7.44298 5.51709H7.23398L7.79398 5.93809L6.65998 6.79009L5.52698 5.93809L6.08998 5.51709H5.88298V5.51809ZM12.852 6.01809L13.984 6.86809L12.852 7.71809L11.719 6.86909L12.852 6.01809ZM15.326 6.01809L16.459 6.86909L15.326 7.71909L14.193 6.86709L15.326 6.01709V6.01809ZM17.801 6.01809L18.934 6.86909L17.801 7.71909L16.668 6.86709L17.801 6.01709V6.01809ZM20.277 6.01809L21.407 6.86809L20.273 7.71809L19.143 6.86909L20.277 6.01809ZM22.75 6.01809L23.883 6.86909L22.748 7.71909L21.618 6.86909L22.75 6.01809ZM25.225 6.01809L26.359 6.86909L25.227 7.71909L24.094 6.86909L25.224 6.01809H25.225ZM27.699 6.01809L28.832 6.86909L27.702 7.71909L26.566 6.86709L27.699 6.01709V6.01809ZM30.174 6.01809L31.307 6.86809L30.174 7.71809L29.041 6.86909L30.174 6.01809ZM32.648 6.01809L33.781 6.86809L32.648 7.71809L31.516 6.86909L32.648 6.01809ZM35.123 6.01809L36.256 6.86909L35.123 7.71909L33.99 6.86709L35.123 6.01709V6.01809ZM7.90298 6.02009L9.03298 6.87009L7.89798 7.72009L6.76798 6.87109L7.90198 6.02009H7.90298ZM10.377 6.02009L11.51 6.87009L10.377 7.72009L9.24398 6.87009L10.377 6.02009ZM37.597 6.02009L38.73 6.87009L37.598 7.72009L36.465 6.87009L37.598 6.02009H37.597ZM40.072 6.02009L41.207 6.87109L40.077 7.72109L38.941 6.86909L40.072 6.01909V6.02009ZM14.088 6.94509L15.223 7.79709L14.09 8.64809L12.955 7.79709L14.088 6.94509ZM33.887 6.94509L35.02 7.79709L33.885 8.64809L32.752 7.79709L33.887 6.94509ZM6.66598 6.94709L7.79598 7.79709L6.66398 8.64809L5.53398 7.79709L6.66598 6.94709ZM9.13898 6.94709L10.271 7.79909L9.13698 8.65009L8.00398 7.80009L9.13898 6.94709ZM11.613 6.94709L12.746 7.79909L11.613 8.65009L10.48 7.80009L11.613 6.94809V6.94709ZM16.563 6.94709L17.697 7.79909L16.564 8.64909L15.43 7.79709L16.563 6.94709ZM19.039 6.94709L20.169 7.79709L19.037 8.64809L17.907 7.79809L19.039 6.94809V6.94709ZM21.512 6.94709L22.645 7.79709L21.512 8.64809L20.379 7.79809L21.512 6.94809V6.94709ZM23.988 6.94709L25.121 7.79909L23.988 8.65009L22.854 7.79909L23.988 6.94709ZM26.461 6.94709L27.596 7.79909L26.463 8.64909L25.33 7.79709L26.46 6.94709H26.461ZM28.936 6.94709L30.068 7.79909L28.938 8.64909L27.805 7.79709L28.935 6.94709H28.936ZM31.412 6.94709L32.545 7.79709L31.41 8.64809L30.277 7.79809L31.412 6.94809V6.94709ZM36.362 6.94709L37.494 7.79909L36.361 8.65009L35.23 7.80009L36.362 6.94809V6.94709ZM38.836 6.94709L39.971 7.80109L38.838 8.65109L37.703 7.79909L38.836 6.94709ZM41.309 6.94709L42.441 7.79709L41.311 8.64809L40.178 7.79709L41.308 6.94709H41.309ZM15.326 7.87509L16.461 8.72709L15.326 9.57809L14.193 8.72709L15.326 7.87509ZM32.648 7.87509L33.781 8.72709L32.648 9.57809L31.516 8.72709L32.648 7.87509ZM7.90198 7.87709L9.03498 8.72709L7.90198 9.57809L6.77198 8.72709L7.90198 7.87709ZM10.377 7.87709L11.507 8.72909L10.373 9.58009L9.24298 8.72909L10.377 7.87709ZM12.85 7.87709L13.984 8.72909L12.852 9.57909L11.717 8.72709L12.85 7.87709ZM17.8 7.87709L18.934 8.72709L17.801 9.57809L16.668 8.72809L17.801 7.87709H17.8ZM20.275 7.87709L21.408 8.72709L20.275 9.57809L19.143 8.72709L20.275 7.87709ZM22.75 7.87709L23.883 8.72909L22.75 9.58009L21.617 8.72909L22.75 7.87709ZM25.225 7.87709L26.357 8.72909L25.225 9.58009L24.09 8.72909L25.225 7.87709ZM27.699 7.87709L28.832 8.72709L27.699 9.57809L26.566 8.72709L27.699 7.87709ZM30.172 7.87709L31.305 8.72909L30.175 9.57909L29.043 8.72709L30.172 7.87709ZM35.125 7.87709L36.258 8.72709L35.123 9.57809L33.99 8.72809L35.125 7.87709ZM37.598 7.87709L38.732 8.72909L37.602 9.58009L36.467 8.72909L37.597 7.87709H37.598ZM40.072 7.87709L41.203 8.72709L40.073 9.57809L38.939 8.72709L40.072 7.87709ZM6.66598 8.80709L7.79898 9.65709L6.66398 10.5071L5.53098 9.65809L6.66598 8.80709ZM9.14098 8.80709L10.271 9.65709L9.14098 10.5071L8.00798 9.65709L9.14098 8.80709ZM11.613 8.80709L12.746 9.65809L11.611 10.5101L10.479 9.65809L11.613 8.80709ZM14.088 8.80709L15.221 9.65809L14.088 10.5081L12.955 9.65609L14.088 8.80609V8.80709ZM16.564 8.80709L17.695 9.65709L16.562 10.5061L15.432 9.65809L16.564 8.80709ZM19.039 8.80709L20.169 9.65709L19.037 10.5071L17.907 9.65709L19.039 8.80709ZM21.514 8.80709L22.646 9.65809L21.514 10.5081L20.381 9.65609L21.514 8.80609V8.80709ZM23.988 8.80709L25.121 9.65709L23.988 10.5071L22.854 9.65709L23.988 8.80709ZM26.461 8.80709L27.594 9.65709L26.461 10.5071L25.328 9.65809L26.461 8.80709ZM28.938 8.80709L30.07 9.65709L28.937 10.5071L27.805 9.65709L28.938 8.80709ZM31.41 8.80709L32.543 9.65809L31.413 10.5061L30.279 9.65609L31.41 8.80609V8.80709ZM33.887 8.80709L35.02 9.65709L33.887 10.5071L32.754 9.65809L33.887 8.80709ZM36.361 8.80709L37.496 9.65809L36.363 10.5101L35.229 9.65809L36.361 8.80709ZM38.834 8.80709L39.967 9.65709L38.834 10.5071L37.704 9.65709L38.834 8.80709ZM41.309 8.80709L42.443 9.65809L41.311 10.5081L40.176 9.65609L41.309 8.80609V8.80709ZM10.377 9.73409L11.51 10.5861L10.377 11.4371L9.24398 10.5861L10.377 9.73409ZM12.85 9.73409L13.984 10.5881L12.85 11.4391L11.715 10.5881L12.85 9.73409ZM17.8 9.73409L18.934 10.5861L17.801 11.4371L16.668 10.5861L17.801 9.73409H17.8ZM22.75 9.73409L23.883 10.5861L22.75 11.4371L21.617 10.5861L22.75 9.73409ZM25.225 9.73409L26.357 10.5861L25.225 11.4371L24.092 10.5861L25.225 9.73409ZM30.174 9.73409L31.307 10.5861L30.174 11.4371L29.041 10.5861L30.174 9.73409ZM35.125 9.73409L36.26 10.5881L35.125 11.4391L33.99 10.5881L35.125 9.73409ZM37.598 9.73409L38.73 10.5861L37.598 11.4371L36.465 10.5861L37.598 9.73409ZM7.90198 9.73609L9.03498 10.5861L7.89998 11.4371L6.76798 10.5871L7.90198 9.73709V9.73609ZM15.326 9.73609L16.457 10.5861L15.324 11.4371L14.194 10.5871L15.326 9.73709V9.73609ZM20.276 9.73609L21.41 10.5861L20.277 11.4371L19.143 10.5861L20.275 9.73609H20.276ZM27.699 9.73609L28.832 10.5861L27.699 11.4371L26.566 10.5861L27.699 9.73609ZM32.649 9.73609L33.781 10.5881L32.651 11.4381L31.518 10.5861L32.648 9.73609H32.649ZM40.072 9.73609L41.207 10.5881L40.074 11.4381L38.939 10.5861L40.072 9.73609ZM9.13898 10.6641L10.271 11.5161L9.13898 12.3671L8.00398 11.5161L9.13898 10.6641ZM11.613 10.6641L12.748 11.5161L12.072 12.0231H12.282L12.854 11.5931L13.424 12.0231H13.627L12.955 11.5181L14.09 10.6661L15.219 11.5161L14.543 12.0231H14.753L15.324 11.5931L15.896 12.0231H16.106L15.43 11.5161L16.563 10.6661L17.695 11.5161L17.02 12.0231H17.23L17.8 11.5961L18.371 12.0231H18.582L17.906 11.5161L19.039 10.6641L20.172 11.5161L19.496 12.0231H19.703L20.275 11.5931L20.848 12.0231H21.057L20.379 11.5161L21.512 10.6641L22.646 11.5161L21.971 12.0231H22.178L22.75 11.5931L23.322 12.0231H23.532L22.855 11.5161L23.988 10.6641L25.121 11.5161L24.443 12.0231H24.653L25.225 11.5931L25.797 12.0231H26.004L25.328 11.5161L26.461 10.6641L27.594 11.5161L26.918 12.0231H27.127L27.699 11.5931L28.271 12.0231H28.479L27.803 11.5161L28.936 10.6641L30.068 11.5161L29.393 12.0231H29.603L30.173 11.5961L30.744 12.0231H30.955L30.279 11.5161L31.412 10.6661L32.545 11.5161L31.869 12.0231H32.079L32.649 11.5931L33.221 12.0231H33.431L32.754 11.5161L33.887 10.6661L35.02 11.5181L34.348 12.0231H34.551L35.121 11.5931L35.693 12.0231H35.903L35.227 11.5161L36.361 10.6641L37.494 11.5141L36.359 12.3671L35.965 12.0701V12.2291L36.254 12.4451L35.963 12.6651V12.8221L36.359 12.5251L37.492 13.3771L36.363 14.2251L35.965 13.9251V14.0851L36.255 14.3051L35.963 14.5251V14.6841L36.361 14.3841L37.494 15.2341L36.361 16.0861L35.965 15.7871V15.9451L36.255 16.1651L35.963 16.3851V16.5411L36.361 16.2421L37.492 17.0941L36.362 17.9441L35.965 17.6461V17.8031L36.255 18.0211L35.963 18.2421V18.3981L36.361 18.1001L37.494 18.9511L36.359 19.8031L35.965 19.5061V19.6621L36.255 19.8811L35.963 20.1011V20.2581L36.361 19.9591L37.496 20.8131L36.363 21.6631L35.965 21.3631V21.5201L36.26 21.7401L35.963 21.9631V22.1151L36.361 21.8161L37.496 22.6701L36.363 23.5201L35.965 23.2201V23.3791L36.258 23.5991L35.963 23.8201V23.9771L36.361 23.6771L37.492 24.5271L36.362 25.3771L35.965 25.0801V25.2381L36.255 25.4571L35.963 25.6761V25.8361L36.361 25.5371L37.494 26.3871L36.361 27.2381L35.965 26.9411V27.0981L36.255 27.3161L35.963 27.5371V27.6931L36.361 27.3951L37.496 28.2481L36.363 29.0981L35.965 28.7981V28.9551L36.26 29.1751L35.963 29.3981V29.5531L36.361 29.2531L37.494 30.1031L36.361 30.9551L35.965 30.6561V30.8141L36.255 31.0341L35.963 31.2541V31.4101L36.361 31.1111L37.492 31.9631L36.357 32.8141L35.965 32.5201V32.6721L36.255 32.8911L35.963 33.1111V33.2681L36.361 32.9681L37.494 33.8201L36.361 34.6721L35.965 34.3731V34.5331L36.255 34.7521L35.963 34.9711V35.1291L36.361 34.8301L37.494 35.6821L36.361 36.5321L35.625 35.9771H35.412L36.256 36.6091L35.123 37.4611L33.993 36.6091L34.836 35.9771H34.625L33.887 36.5311L33.148 35.9771H32.941L33.783 36.6091L32.648 37.4611L31.514 36.6091L32.355 35.9771H32.148L31.41 36.5311L30.672 35.9771H30.465L31.307 36.6091L30.172 37.4611L29.039 36.6091L29.883 35.9771H29.676L28.938 36.5311L28.198 35.9771H27.99L28.834 36.6091L27.701 37.4591L26.566 36.6071L27.408 35.9771H27.203L26.465 36.5311L25.727 35.9771H25.516L26.359 36.6091L25.227 37.4611L24.092 36.6091L24.936 35.9771H24.726L23.988 36.5311L23.248 35.9771H23.039L23.883 36.6091L22.75 37.4611L21.615 36.6091L22.459 35.9771H22.248L21.51 36.5311L20.771 35.9771H20.566L21.406 36.6071L20.273 37.4591L19.141 36.6091L19.984 35.9771H19.777L19.037 36.5311L18.299 35.9771H18.092L18.934 36.6091L17.801 37.4611L16.668 36.6091L17.51 35.9771H17.303L16.564 36.5311L15.826 35.9771H15.619L16.461 36.6091L15.326 37.4611L14.191 36.6091L15.033 35.9771H14.826L14.088 36.5311L13.35 35.9771H13.139L13.982 36.6091L12.852 37.4611L11.719 36.6091L12.563 35.9771H12.35L11.613 36.5311L10.48 35.6811L11.613 34.8311L12.012 35.1291V34.9711L11.719 34.7521L12.009 34.5331V34.3731L11.613 34.6721L10.48 33.8201L11.613 32.9691L12.012 33.2681V33.1111L11.719 32.8911L12.009 32.6711V32.5201L11.617 32.8141L10.482 31.9631L11.613 31.1111L12.012 31.4111V31.2541L11.719 31.0341L12.009 30.8141V30.6561L11.613 30.9561L10.48 30.1041L11.613 29.2541L12.012 29.5531V29.3981L11.715 29.1761L12.01 28.9561V28.7991L11.611 29.0981L10.479 28.2481L11.613 27.3951L12.012 27.6931V27.5371L11.719 27.3171L12.009 27.0971V26.9411L11.613 27.2381L10.48 26.3871L11.613 25.5371L12.012 25.8361V25.6761L11.719 25.4571L12.009 25.2381V25.0801L11.613 25.3771L10.483 24.5271L11.613 23.6771L12.012 23.9771V23.8201L11.717 23.6001L12.01 23.3791V23.2211L11.611 23.5201L10.479 22.6701L11.613 21.8161L12.012 22.1161V21.9631L11.715 21.7401L12.01 21.5201V21.3631L11.611 21.6631L10.479 20.8131L11.613 19.9591L12.012 20.2581V20.1021L11.719 19.8811L12.009 19.6621V19.5061L11.615 19.8031L10.48 18.9511L11.613 18.1001L12.012 18.3981V18.2421L11.719 18.0221L12.009 17.8021V17.6461L11.613 17.9431L10.483 17.0931L11.613 16.2431L12.012 16.5411V16.3851L11.719 16.1651L12.009 15.9451V15.7871L11.613 16.0861L10.48 15.2341L11.613 14.3841L12.012 14.6841V14.5251L11.719 14.3051L12.009 14.0851V13.9251L11.611 14.2251L10.482 13.3771L11.615 12.5251L12.012 12.8221V12.6641L11.721 12.4451L12.01 12.2291V12.0701L11.615 12.3671L10.48 11.5141L11.613 10.6641ZM38.836 10.6641L39.971 11.5161L38.836 12.3671L37.703 11.5161L38.836 10.6641ZM6.66198 10.6661L7.79498 11.5181L6.66198 12.3681L5.53198 11.5181L6.66198 10.6661ZM41.312 10.6661L42.443 11.5181L41.313 12.3681L40.18 11.5181L41.313 10.6661H41.312ZM10.377 11.5941L11.51 12.4451L10.377 13.2971L9.24198 12.4451L10.377 11.5941ZM37.597 11.5941L38.732 12.4451L37.598 13.2971L36.465 12.4451L37.598 11.5941H37.597ZM7.89998 11.5961L9.03298 12.4471L7.89998 13.2971L6.76798 12.4451L7.89998 11.5951V11.5961ZM40.074 11.5961L41.207 12.4461L40.074 13.2961L38.941 12.4471L40.074 11.5961ZM6.66198 12.5231L7.79698 13.3751L6.66398 14.2271L5.53098 13.3751L6.66198 12.5231ZM9.13698 12.5231L10.271 13.3771L9.13898 14.2271L8.00398 13.3751L9.13698 12.5231ZM38.837 12.5231L39.971 13.3751L38.836 14.2271L37.703 13.3771L38.838 12.5231H38.837ZM41.312 12.5231L42.443 13.3751L41.311 14.2271L40.178 13.3751L41.313 12.5231H41.312ZM13.598 13.3931L13.381 13.5551V13.6451L13.717 13.3931H13.597H13.598ZM14.072 13.3931L14.412 13.8461L13.789 14.3141L13.381 13.7711V13.8911L13.732 14.3571L13.381 14.6211V14.7131L13.775 14.4161L14.245 15.0391L13.619 15.5091L13.381 15.1931V15.3131L13.561 15.5531L13.381 15.6871V15.7791L13.605 15.6111L14.075 16.2341L13.449 16.7051L13.381 16.6131V16.7331L13.393 16.7481L13.381 16.7561V16.8461L13.436 16.8051L13.904 17.4301L13.381 17.8221V17.9121L13.947 17.4861L14.416 18.1111L13.793 18.5811L13.381 18.0311V18.1521L13.734 18.6231L13.381 18.8891V18.9791L13.777 18.6791L14.248 19.3071L13.623 19.7751L13.381 19.4531V19.5741L13.564 19.8181L13.381 19.9571V20.0471L13.607 19.8771L14.077 20.5001L13.451 20.9691L13.381 20.8751V20.9921L13.395 21.0121L13.381 21.0221V21.1131L13.439 21.0701L13.909 21.6931L13.381 22.0901V22.1801L13.951 21.7521L14.42 22.3751L13.795 22.8451L13.381 22.2951V22.4121L13.738 22.8891L13.381 23.1561V23.2461L13.781 22.9461L14.252 23.5701L13.627 24.0401L13.381 23.7131V23.8321L13.571 24.0821L13.381 24.2251V24.3121L13.611 24.1391L14.081 24.7641L13.455 25.2321L13.381 25.1321V25.2561L13.396 25.2771L13.381 25.2891V25.3791L13.439 25.3341L13.909 25.9591L13.381 26.3551V26.4471L13.953 26.0171L14.422 26.6411L13.799 27.1091L13.381 26.5531V26.6731L13.741 27.1531L13.381 27.4221V27.5141L13.783 27.2111L14.253 27.8361L13.629 28.3051L13.381 27.9751V28.0941L13.571 28.3481L13.381 28.4901V28.5801L13.615 28.4041L14.084 29.0291L13.459 29.4981L13.381 29.3951V29.5141L13.402 29.5411L13.381 29.5571V29.6471L13.445 29.5971L13.915 30.2231L13.381 30.6231V30.7131L13.957 30.2811L14.426 30.9061L13.801 31.3751L13.381 30.8161V30.9341L13.744 31.4181L13.381 31.6911V31.7791L13.787 31.4751L14.256 32.1001L13.631 32.5681L13.381 32.2341V32.3551L13.572 32.6111L13.381 32.7561V32.8481L13.617 32.6701L14.086 33.2931L13.461 33.7621L13.381 33.6541V33.7751L13.404 33.8051L13.381 33.8221V33.9141L13.447 33.8641L13.916 34.4881L13.76 34.6051H13.879L13.959 34.5451L14.004 34.6051H14.096L14.018 34.5021L14.641 34.0331L15.071 34.6051H15.162L14.699 33.9901L15.324 33.5201L15.793 34.1461L15.182 34.6061H15.301L15.836 34.2031L16.139 34.6051H16.227L15.893 34.1601L16.518 33.6911L16.988 34.3161L16.602 34.6061H16.721L17.031 34.3731L17.205 34.6051H17.295L17.088 34.3301L17.713 33.8611L18.18 34.4841L18.02 34.6051H18.14L18.225 34.5431L18.271 34.6051H18.361L18.281 34.5001L18.906 34.0311L19.338 34.6051H19.428L18.963 33.9881L19.588 33.5181L20.057 34.1431L19.441 34.6051H19.563L20.102 34.2011L20.404 34.6051H20.494L20.158 34.1581L20.783 33.6881L21.252 34.3121L20.863 34.6051H20.98L21.295 34.3691L21.473 34.6051H21.563L21.353 34.3261L21.977 33.8571L22.447 34.4821L22.283 34.6051H22.4L22.488 34.5391L22.539 34.6051H22.629L22.547 34.4961L23.17 34.0271L23.605 34.6051H23.693L23.227 33.9851L23.854 33.5151L24.322 34.1391L23.702 34.6051H23.82L24.365 34.1971L24.672 34.6051H24.762L24.422 34.1551L25.047 33.6841L25.516 34.3091L25.121 34.6051H25.244L25.561 34.3671L25.738 34.6051H25.83L25.62 34.3251L26.242 33.8551L26.709 34.4791L26.541 34.6051H26.662L26.754 34.5371L26.804 34.6051H26.894L26.811 34.4951L27.436 34.0231L27.873 34.6051H27.961L27.492 33.9821L28.117 33.5121L28.587 34.1371L27.963 34.6051H28.082L28.631 34.1931L28.939 34.6051H29.029L28.688 34.1501L29.313 33.6821L29.781 34.3071L29.383 34.6051H29.502L29.824 34.3631L30.006 34.6051H30.096L29.881 34.3201L30.506 33.8521L30.976 34.4771L30.805 34.6051H30.922L31.018 34.5331L31.072 34.6051H31.162L31.076 34.4901L31.699 34.0211L32.139 34.6051H32.344L32.896 34.1911L33.207 34.6051H33.297L32.953 34.1481L33.578 33.6801L34.045 34.3031L33.643 34.6051H33.763L34.09 34.3611L34.273 34.6051H34.361L34.146 34.3181L34.594 33.9821V33.8911L34.102 34.2601L33.635 33.6371L34.26 33.1681L34.594 33.6131V33.4941L34.316 33.1251L34.594 32.9161V32.8241L34.271 33.0661L33.803 32.4411L34.428 31.9731L34.594 32.1931V32.0731L34.486 31.9281L34.594 31.8481V31.7601L34.444 31.8731L33.974 31.2461L34.594 30.7811V30.6521L34.144 30.0521L34.594 29.7151V29.6251L34.1 29.9961L33.63 29.3711L34.256 28.9021L34.594 29.3521V29.2321L34.312 28.8591L34.594 28.6491V28.5591L34.27 28.8011L33.8 28.1781L34.426 27.7091L34.594 27.9321V27.8121L34.482 27.6661L34.594 27.5821V27.4921L34.439 27.6071L33.971 26.9821L34.594 26.5141V26.3931L34.141 25.7891L34.594 25.4471V25.3571L34.098 25.7301L33.627 25.1051L34.252 24.6371L34.594 25.0921V24.9711L34.311 24.5941L34.594 24.3811V24.2931L34.268 24.5371L33.798 23.9121L34.422 23.4431L34.594 23.6721V23.5511L34.48 23.4011L34.594 23.3141V23.2241L34.437 23.3421L33.969 22.7191L34.592 22.2501L34.594 22.2521V22.1311L34.139 21.5231L34.594 21.1821V21.0921L34.096 21.4671L33.625 20.8421L34.25 20.3721L34.594 20.8301V20.7101L34.307 20.3281L34.594 20.1131V20.0251L34.264 20.2731L33.794 19.6461L34.42 19.1781L34.594 19.4101V19.2911L34.477 19.1351L34.594 19.0471V18.9571L34.434 19.0781L33.964 18.4531L34.59 17.9841L34.594 17.9901V17.8711L34.134 17.2601L34.594 16.9141V16.8241L34.092 17.2011L33.623 16.5781L34.246 16.1081L34.594 16.5701V16.4501L34.304 16.0641L34.594 15.8481V15.7581L34.262 16.0081L33.793 15.3811L34.416 14.9141L34.594 15.1501V15.0301L34.474 14.8701L34.594 14.7801V14.6901L34.43 14.8131L33.96 14.1871L34.586 13.7191L34.594 13.7291V13.6091L34.432 13.3931H34.342L34.545 13.6631L33.92 14.1311L33.451 13.5061L33.601 13.3931H33.482L33.408 13.4491L33.365 13.3931H33.273L33.35 13.4931L32.727 13.9611L32.299 13.3931H32.207L32.668 14.0061L32.043 14.4751L31.574 13.8501L32.182 13.3931H32.061L31.529 13.7911L31.23 13.3931H31.14L31.473 13.8341L30.848 14.3031L30.378 13.6781L30.76 13.3931H30.64L30.336 13.6211L30.164 13.3931H30.074L30.279 13.6641L29.654 14.1331L29.186 13.5101L29.34 13.3931H29.22L29.143 13.4511L29.098 13.3931H29.008L29.084 13.4941L28.459 13.9641L28.029 13.3931H27.939L28.402 14.0081L27.779 14.4771L27.309 13.8521L27.919 13.3921H27.801L27.266 13.7951L26.965 13.3931H26.873L27.207 13.8381L26.584 14.3071L26.114 13.6821L26.5 13.3921H26.38L26.07 13.6251L25.896 13.3931H25.806L26.014 13.6681L25.389 14.1371L24.919 13.5121L25.08 13.3921H24.959L24.877 13.4551L24.83 13.3931H24.74L24.818 13.4981L24.193 13.9671L23.762 13.3931H23.674L24.137 14.0101L23.514 14.4791L23.044 13.8551L23.66 13.3931H23.54L23 13.7971L22.697 13.3931H22.607L22.943 13.8401L22.318 14.3091L21.852 13.6861L22.24 13.3931H22.12L21.807 13.6271L21.631 13.3931H21.539L21.748 13.6721L21.125 14.1391L20.656 13.5141L20.818 13.3931H20.7L20.614 13.4571L20.565 13.3931H20.474L20.556 13.5021L19.931 13.9711L19.497 13.3931H19.407L19.874 14.0131L19.249 14.4831L18.78 13.8571L19.4 13.3931H19.28L18.737 13.8011L18.431 13.3931H18.341L18.679 13.8431L18.056 14.3131L17.586 13.6871L17.98 13.3931H17.86L17.544 13.6311L17.364 13.3931H17.274L17.485 13.6731L16.86 14.1451L16.392 13.5201L16.56 13.3931H16.438L16.347 13.4611L16.296 13.3931H16.208L16.292 13.5031L15.667 13.9731L15.231 13.3931H15.14L15.608 14.0161L14.985 14.4841L14.517 13.8611L15.14 13.3931H15.019L14.474 13.8031L14.165 13.3931H14.073H14.072ZM7.89998 13.4531L9.03498 14.3051L7.90198 15.1561L6.76798 14.3031L7.89998 13.4531ZM40.074 13.4531L41.207 14.3031L40.072 15.1561L38.939 14.3051L40.074 13.4531ZM10.377 13.4551L11.506 14.3051L10.373 15.1551L9.24398 14.3071L10.377 13.4551ZM37.597 13.4551L38.73 14.3071L37.602 15.1541L36.469 14.3041L37.598 13.4551H37.597ZM33.393 13.5511L33.861 14.1761L33.238 14.6431L32.77 14.0181L33.393 13.5511ZM29.127 13.5531L29.596 14.1761L28.971 14.6461L28.502 14.0211L29.127 13.5531ZM24.863 13.5571L25.332 14.1801L24.707 14.6501L24.237 14.0251L24.863 13.5571ZM20.598 13.5591L21.066 14.1841L20.441 14.6521L19.973 14.0271L20.598 13.5591ZM16.334 13.5611L16.803 14.1861L16.178 14.6541L15.709 14.0311L16.334 13.5611ZM30.322 13.7231L30.791 14.3461L30.166 14.8141L29.697 14.1911L30.322 13.7231ZM26.057 13.7251L26.525 14.3501L25.902 14.8181L25.432 14.1951L26.057 13.7251ZM21.791 13.7291L22.26 14.3541L21.637 14.8201L21.168 14.1971L21.791 13.7291ZM17.527 13.7301L17.997 14.3551L17.371 14.8261L16.902 14.2011L17.527 13.7311V13.7301ZM31.516 13.8931L31.984 14.5181L31.361 14.9861L30.893 14.3611L31.516 13.8931ZM27.25 13.8951L27.72 14.5201L27.096 14.9881L26.627 14.3631L27.25 13.8951ZM22.986 13.8981L23.456 14.5211L22.832 14.9911L22.363 14.3671L22.986 13.8981ZM18.721 13.9001L19.191 14.5251L18.566 14.9951L18.098 14.3691L18.721 13.9001ZM14.457 13.9041L14.926 14.5271L14.301 14.9971L13.832 14.3731L14.457 13.9041ZM32.711 14.0631L33.18 14.6871L32.555 15.1571L32.085 14.5311L32.711 14.0621V14.0631ZM28.445 14.0641L28.915 14.6891L28.291 15.1591L27.822 14.5331L28.445 14.0641ZM24.182 14.0681L24.65 14.6931L24.025 15.1631L23.557 14.5371L24.182 14.0681ZM19.916 14.0701L20.385 14.6951L19.76 15.1651L19.291 14.5391L19.916 14.0701ZM15.65 14.0741L16.12 14.6991L15.496 15.1661L15.027 14.5431L15.65 14.0741ZM33.904 14.2301L34.373 14.8551L33.748 15.3251L33.279 14.6991L33.904 14.2301ZM29.641 14.2341L30.109 14.8591L29.482 15.3291L29.014 14.7031L29.641 14.2341ZM25.375 14.2381L25.844 14.8631L25.219 15.3321L24.75 14.7071L25.375 14.2381ZM21.109 14.2421L21.579 14.8651L20.955 15.3341L20.486 14.7111L21.109 14.2421ZM16.846 14.2441L17.314 14.8671L16.691 15.3361L16.221 14.7131L16.846 14.2441ZM6.66398 14.3811L7.79898 15.2341L6.66598 16.0861L5.53098 15.2321L6.66398 14.3811ZM41.311 14.3811L42.443 15.2321L41.309 16.0861L40.176 15.2341L41.311 14.3811ZM9.14098 14.3851L10.27 15.2321L9.13698 16.0841L8.00698 15.2341L9.14098 14.3841V14.3851ZM38.834 14.3851L39.967 15.2351L38.837 16.0841L37.705 15.2321L38.834 14.3851ZM30.834 14.4051L31.303 15.0291L30.68 15.4981L30.209 14.8731L30.834 14.4041V14.4051ZM26.568 14.4081L27.038 15.0311L26.414 15.5001L25.945 14.8771L26.568 14.4081ZM22.305 14.4101L22.773 15.0351L22.15 15.5041L21.682 14.8791L22.305 14.4101ZM18.039 14.4121L18.509 15.0371L17.883 15.5071L17.414 14.8831L18.039 14.4131V14.4121ZM32.027 14.5741L32.498 15.1991L31.873 15.6681L31.404 15.0431L32.027 14.5741ZM27.764 14.5761L28.232 15.2011L27.607 15.6701L27.139 15.0471L27.764 14.5771V14.5761ZM23.5 14.5801L23.969 15.2051L23.344 15.6741L22.875 15.0491L23.5 14.5801ZM19.234 14.5821L19.704 15.2071L19.078 15.6761L18.609 15.0511L19.234 14.5821ZM14.969 14.5861L15.438 15.2111L14.814 15.6801L14.346 15.0551L14.969 14.5851V14.5861ZM33.221 14.7441L33.691 15.3671L33.066 15.8361L32.598 15.2131L33.221 14.7441ZM28.957 14.7461L29.426 15.3711L28.803 15.8401L28.334 15.2151L28.957 14.7461ZM24.693 14.7501L25.163 15.3751L24.537 15.8441L24.068 15.2191L24.693 14.7501ZM20.428 14.7541L20.896 15.3771L20.271 15.8461L19.805 15.2231L20.428 14.7531V14.7541ZM16.162 14.7561L16.632 15.3811L16.008 15.8501L15.539 15.2251L16.162 14.7551V14.7561ZM30.152 14.9161L30.622 15.5411L29.996 16.0111L29.527 15.3871L30.152 14.9161ZM25.887 14.9201L26.355 15.5451L25.73 16.0141L25.262 15.3891L25.887 14.9191V14.9201ZM21.623 14.9241L22.092 15.5471L21.467 16.0161L20.998 15.3931L21.623 14.9231V14.9241ZM17.357 14.9261L17.827 15.5491L17.203 16.0181L16.734 15.3951L17.357 14.9251V14.9261ZM31.346 15.0861L31.816 15.7111L31.191 16.1801L30.723 15.5551L31.346 15.0851V15.0861ZM27.08 15.0901L27.55 15.7131L26.926 16.1831L26.457 15.5591L27.08 15.0891V15.0901ZM22.816 15.0941L23.286 15.7171L22.662 16.1861L22.193 15.5611L22.816 15.0941ZM18.553 15.0961L19.021 15.7191L18.396 16.1891L17.926 15.5641L18.553 15.0961ZM14.287 15.0981L14.756 15.7231L14.131 16.1911L13.662 15.5681L14.287 15.0981ZM32.539 15.2561L33.009 15.8811L32.385 16.3501L31.916 15.7251L32.539 15.2551V15.2561ZM28.275 15.2601L28.745 15.8831L28.119 16.3521L27.65 15.7291L28.275 15.2591V15.2601ZM24.012 15.2621L24.48 15.8871L23.855 16.3551L23.387 15.7301L24.012 15.2621ZM19.746 15.2661L20.215 15.8891L19.59 16.3571L19.123 15.7341L19.746 15.2661ZM15.48 15.2681L15.95 15.8931L15.326 16.3611L14.857 15.7361L15.48 15.2681ZM7.90398 15.3121L9.03398 16.1621L7.89998 17.0141L6.76998 16.1641L7.90398 15.3121ZM10.377 15.3121L11.51 16.1641L10.377 17.0141L9.24398 16.1641L10.377 15.3121ZM37.597 15.3121L38.73 16.1641L37.598 17.0141L36.465 16.1641L37.598 15.3121H37.597ZM40.07 15.3121L41.205 16.1641L40.075 17.0141L38.941 16.1621L40.071 15.3121H40.07ZM33.734 15.4261L34.204 16.0511L33.578 16.5201L33.109 15.8951L33.734 15.4251V15.4261ZM29.469 15.4301L29.939 16.0551L29.314 16.5211L28.846 15.8981L29.469 15.4301ZM25.205 15.4321L25.674 16.0571L25.051 16.5251L24.581 15.9001L25.205 15.4321ZM20.941 15.4361L21.408 16.0591L20.785 16.5271L20.316 15.9041L20.941 15.4361ZM16.676 15.4381L17.145 16.0621L16.521 16.5321L16.053 15.9061L16.676 15.4371V15.4381ZM30.664 15.5981L31.134 16.2231L30.508 16.6931L30.039 16.0681L30.664 15.5981ZM26.398 15.6021L26.869 16.2271L26.242 16.6951L25.773 16.0701L26.398 15.6021ZM22.135 15.6051L22.604 16.2301L21.979 16.7001L21.509 16.0741L22.135 15.6051ZM17.869 15.6071L18.339 16.2321L17.715 16.7021L17.246 16.0761L17.869 15.6071ZM31.857 15.7671L32.327 16.3931L31.703 16.8611L31.234 16.2361L31.857 15.7681V15.7671ZM27.594 15.7711L28.062 16.3961L27.437 16.8661L26.969 16.2401L27.594 15.7711ZM23.328 15.7751L23.797 16.4001L23.174 16.8671L22.705 16.2421L23.328 15.7751ZM19.064 15.7771L19.534 16.4001L18.908 16.8711L18.439 16.2481L19.064 15.7781V15.7771ZM14.801 15.7791L15.27 16.4041L14.643 16.8751L14.173 16.2501L14.801 15.7801V15.7791ZM33.053 15.9381L33.521 16.5621L32.896 17.0321L32.428 16.4061L33.053 15.9381ZM28.787 15.9411L29.256 16.5661L28.633 17.0361L28.164 16.4101L28.787 15.9411ZM24.523 15.9431L24.993 16.5681L24.367 17.0381L23.898 16.4121L24.523 15.9431ZM20.258 15.9471L20.727 16.5701L20.104 17.0411L19.634 16.4161L20.258 15.9471ZM15.994 15.9491L16.463 16.5741L15.838 17.0431L15.369 16.4181L15.994 15.9491ZM29.982 16.1111L30.452 16.7361L29.828 17.2061L29.358 16.5801L29.982 16.1111ZM25.717 16.1131L26.186 16.7381L25.563 17.2071L25.093 16.5821L25.717 16.1131ZM21.453 16.1171L21.922 16.7421L21.297 17.2111L20.828 16.5861L21.453 16.1171ZM17.188 16.1191L17.656 16.7441L17.033 17.2131L16.564 16.5881L17.187 16.1191H17.188ZM6.66598 16.2421L7.79498 17.0921L6.65998 17.9431L5.53098 17.0961L6.66598 16.2421ZM9.14098 16.2421L10.273 17.0921L9.13898 17.9431L8.00598 17.0931L9.14098 16.2431V16.2421ZM38.834 16.2421L39.969 17.0941L38.836 17.9441L37.701 17.0921L38.834 16.2421ZM41.309 16.2421L42.443 17.0961L41.314 17.9431L40.18 17.0921L41.309 16.2421ZM31.176 16.2791L31.645 16.9041L31.02 17.3731L30.55 16.7501L31.176 16.2801V16.2791ZM26.912 16.2831L27.381 16.9081L26.756 17.3771L26.286 16.7541L26.912 16.2841V16.2831ZM22.646 16.2871L23.116 16.9121L22.492 17.3811L22.022 16.7561L22.646 16.2871ZM18.383 16.2891L18.852 16.9141L18.227 17.3831L17.757 16.7581L18.383 16.2891ZM14.117 16.2931L14.586 16.9181L13.961 17.3871L13.492 16.7621L14.117 16.2931ZM32.371 16.4491L32.84 17.0741L32.215 17.5441L31.746 16.9181L32.371 16.4491ZM28.105 16.4531L28.575 17.0781L27.951 17.5471L27.482 16.9221L28.105 16.4531ZM23.84 16.4571L24.31 17.0801L23.686 17.5491L23.216 16.9241L23.84 16.4571ZM19.576 16.4591L20.045 17.0841L19.42 17.5531L18.951 16.9301L19.576 16.4591ZM15.312 16.4611L15.782 17.0861L15.156 17.5561L14.686 16.9321L15.313 16.4611H15.312ZM33.564 16.6211L34.034 17.2441L33.41 17.7131L32.94 17.0901L33.564 16.6211ZM29.301 16.6231L29.77 17.2481L29.145 17.7171L28.675 17.0921L29.301 16.6231ZM25.035 16.6251L25.504 17.2501L24.881 17.7191L24.411 17.0941L25.035 16.6251ZM20.771 16.6291L21.241 17.2541L20.615 17.7231L20.146 17.0981L20.771 16.6281V16.6291ZM16.506 16.6331L16.975 17.2581L16.352 17.7271L15.881 17.1001L16.506 16.6331ZM30.494 16.7931L30.963 17.4181L30.34 17.8851L29.87 17.2621L30.494 16.7931ZM26.23 16.7951L26.7 17.4201L26.074 17.8891L25.605 17.2641L26.23 16.7941V16.7951ZM21.965 16.7991L22.434 17.4241L21.811 17.8931L21.34 17.2681L21.965 16.7981V16.7991ZM17.699 16.8031L18.168 17.4261L17.545 17.8951L17.076 17.2711L17.699 16.8031ZM31.687 16.9611L32.158 17.5881L31.533 18.0571L31.063 17.4321L31.688 16.9611H31.687ZM27.424 16.9671L27.893 17.5901L27.268 18.0601L26.798 17.4361L27.424 16.9661V16.9671ZM23.158 16.9691L23.627 17.5941L23.004 18.0621L22.535 17.4371L23.158 16.9691ZM18.895 16.9711L19.363 17.5961L18.74 18.0641L18.271 17.4411L18.895 16.9711ZM14.629 16.9751L15.098 17.6001L14.473 18.0681L14.003 17.4431L14.629 16.9751ZM32.883 17.1331L33.352 17.7561L32.727 18.2261L32.257 17.6021L32.883 17.1321V17.1331ZM28.617 17.1351L29.087 17.7601L28.463 18.2301L27.994 17.6051L28.617 17.1351ZM24.354 17.1391L24.822 17.7641L24.199 18.2301L23.729 17.6071L24.354 17.1391ZM20.09 17.1411L20.559 17.7661L19.932 18.2361L19.462 17.6111L20.09 17.1411ZM15.824 17.1431L16.293 17.7701L15.668 18.2381L15.199 17.6131L15.824 17.1431ZM7.90198 17.1721L9.03498 18.0221L7.89998 18.8751L6.76798 18.0231L7.90198 17.1721ZM10.377 17.1721L11.51 18.0221L10.377 18.8731L9.24398 18.0231L10.377 17.1721ZM37.597 17.1721L38.73 18.0231L37.598 18.8731L36.465 18.0211L37.598 17.1711L37.597 17.1721ZM40.072 17.1721L41.207 18.0231L40.074 18.8751L38.939 18.0211L40.072 17.1711V17.1721ZM34.076 17.3021L34.546 17.9261L33.922 18.3961L33.453 17.7711L34.076 17.3031V17.3021ZM29.812 17.3051L30.282 17.9301L29.656 18.3981L29.188 17.7731L29.813 17.3051H29.812ZM25.549 17.3091L26.018 17.9321L25.393 18.4001L24.923 17.7771L25.549 17.3091ZM21.283 17.3111L21.752 17.9361L21.129 18.4041L20.659 17.7791L21.283 17.3111ZM17.018 17.3141L17.486 17.9371L16.863 18.4071L16.395 17.7831L17.018 17.3141ZM31.006 17.4741L31.475 18.1001L30.852 18.5681L30.382 17.9431L31.006 17.4751V17.4741ZM26.742 17.4791L27.211 18.1041L26.588 18.5721L26.118 17.9471L26.742 17.4791ZM22.477 17.4801L22.945 18.1051L22.322 18.5751L21.852 17.9491L22.477 17.4801ZM18.213 17.4841L18.682 18.1091L18.057 18.5761L17.587 17.9531L18.213 17.4841ZM32.201 17.6441L32.67 18.2701L32.045 18.7381L31.576 18.1131L32.201 17.6451V17.6441ZM27.936 17.6481L28.406 18.2731L27.779 18.7431L27.311 18.1171L27.936 17.6481ZM23.67 17.6501L24.14 18.2751L23.516 18.7451L23.046 18.1191L23.67 17.6501ZM19.406 17.6541L19.877 18.2771L19.252 18.7471L18.783 18.1231L19.406 17.6541ZM15.141 17.6561L15.611 18.2811L14.986 18.7501L14.518 18.1251L15.141 17.6561ZM33.395 17.8141L33.863 18.4391L33.24 18.9091L32.771 18.2831L33.395 17.8141ZM29.129 17.8161L29.599 18.4411L28.975 18.9111L28.505 18.2851L29.129 17.8161ZM24.865 17.8201L25.334 18.4451L24.711 18.9121L24.242 18.2891L24.865 17.8201ZM20.602 17.8221L21.07 18.4471L20.445 18.9181L19.977 18.2931L20.602 17.8231V17.8221ZM16.338 17.8261L16.805 18.4491L16.18 18.9191L15.71 18.2971L16.338 17.8271V17.8261ZM30.324 17.9861L30.793 18.6111L30.17 19.0811L29.7 18.4551L30.324 17.9861ZM26.061 17.9901L26.529 18.6151L25.904 19.0841L25.436 18.4591L26.061 17.9901ZM21.795 17.9921L22.264 18.6171L21.641 19.0861L21.17 18.4611L21.795 17.9921ZM17.531 17.9961L18 18.6211L17.375 19.0901L16.906 18.4651L17.531 17.9961ZM6.66598 18.1001L7.79898 18.9511L6.66398 19.8031L5.53098 18.9531L6.66598 18.1001ZM41.309 18.1001L42.443 18.9531L41.311 19.8031L40.176 18.9511L41.309 18.1001ZM9.14098 18.1021L10.271 18.9521L9.13698 19.8051L8.00398 18.9531L9.14098 18.1021ZM38.834 18.1021L39.971 18.9531L38.838 19.8051L37.703 18.9511L38.834 18.1011V18.1021ZM31.518 18.1581L31.986 18.7811L31.363 19.2501L30.895 18.6251L31.518 18.1581ZM27.254 18.1601L27.724 18.7851L27.1 19.2541L26.63 18.6291L27.254 18.1601ZM22.988 18.1621L23.457 18.7871L22.834 19.2561L22.365 18.6311L22.988 18.1621ZM18.725 18.1661L19.193 18.7911L18.57 19.2601L18.102 18.6351L18.725 18.1661ZM14.459 18.1681L14.929 18.7931L14.305 19.2621L13.835 18.6371L14.459 18.1681ZM32.713 18.3261L33.182 18.9511L32.557 19.4201L32.087 18.7951L32.713 18.3261ZM28.447 18.3301L28.916 18.9531L28.291 19.4231L27.822 18.7991L28.447 18.3301ZM24.184 18.3321L24.652 18.9571L24.027 19.4261L23.559 18.8031L24.184 18.3321ZM19.92 18.3361L20.389 18.9611L19.764 19.4301L19.294 18.8051L19.92 18.3351V18.3361ZM15.654 18.3401L16.123 18.9631L15.498 19.4321L15.029 18.8091L15.654 18.3391V18.3401ZM33.908 18.4961L34.377 19.1211L33.752 19.5901L33.283 18.9651L33.908 18.4961ZM29.643 18.4981L30.111 19.1251L29.486 19.5941L29.018 18.9691L29.643 18.4981ZM25.377 18.5021L25.847 19.1271L25.223 19.5961L24.753 18.9711L25.377 18.5021ZM21.113 18.5041L21.582 19.1291L20.957 19.5991L20.488 18.9751L21.113 18.5041ZM16.85 18.5081L17.318 19.1331L16.691 19.6021L16.223 18.9791L16.85 18.5081ZM30.836 18.6701L31.305 19.2931L30.682 19.7621L30.212 19.1391L30.836 18.6691V18.6701ZM26.572 18.6721L27.041 19.2971L26.418 19.7661L25.948 19.1411L26.572 18.6711V18.6721ZM22.307 18.6741L22.775 19.2991L22.152 19.7681L21.684 19.1431L22.307 18.6731V18.6741ZM18.043 18.6781L18.512 19.3031L17.887 19.7711L17.418 19.1461L18.043 18.6781ZM32.031 18.8401L32.5 19.4631L31.875 19.9321L31.406 19.3091L32.031 18.8391V18.8401ZM27.766 18.8421L28.234 19.4651L27.611 19.9351L27.143 19.3111L27.766 18.8411V18.8421ZM23.502 18.8461L23.971 19.4691L23.346 19.9371L22.877 19.3141L23.502 18.8461ZM19.236 18.8481L19.706 19.4731L19.082 19.9411L18.613 19.3161L19.236 18.8481ZM14.973 18.8521L15.441 19.4751L14.816 19.9431L14.35 19.3201L14.973 18.8521ZM33.225 19.0081L33.695 19.6331L33.07 20.1021L32.6 19.4791L33.225 19.0081ZM28.961 19.0121L29.43 19.6371L28.805 20.1051L28.334 19.4801L28.961 19.0121ZM24.695 19.0161L25.165 19.6411L24.541 20.1091L24.072 19.4841L24.695 19.0161ZM20.432 19.0181L20.9 19.6431L20.275 20.1111L19.807 19.4861L20.432 19.0181ZM16.166 19.0211L16.635 19.6451L16.01 20.1151L15.541 19.4901L16.166 19.0211ZM7.90398 19.0291L9.03498 19.8811L7.89998 20.7321L6.76798 19.8821L7.90398 19.0291ZM10.377 19.0291L11.51 19.8811L10.375 20.7341L9.24198 19.8831L10.377 19.0291ZM37.597 19.0291L38.732 19.8831L37.6 20.7341L36.465 19.8811L37.598 19.0291H37.597ZM40.07 19.0291L41.207 19.8831L40.074 20.7331L38.939 19.8811L40.07 19.0291ZM30.154 19.1821L30.623 19.8071L30 20.2751L29.53 19.6501L30.154 19.1821ZM25.891 19.1861L26.359 19.8091L25.736 20.2771L25.266 19.6521L25.891 19.1861ZM21.625 19.1881L22.094 19.8111L21.469 20.2811L21 19.6561L21.625 19.1881ZM17.361 19.1891L17.831 19.8141L17.205 20.2851L16.736 19.6601L17.361 19.1901V19.1891ZM31.35 19.3521L31.818 19.9771L31.193 20.4431L30.725 19.8201L31.35 19.3521ZM27.084 19.3541L27.553 19.9791L26.93 20.4471L26.459 19.8221L27.084 19.3541ZM22.82 19.3571L23.29 19.9801L22.664 20.4501L22.195 19.8261L22.82 19.3571ZM18.555 19.3591L19.023 19.9861L18.4 20.4561L17.93 19.8281L18.555 19.3591ZM14.291 19.3631L14.758 19.9861L14.135 20.4561L13.666 19.8321L14.291 19.3631ZM32.543 19.5211L33.012 20.1451L32.389 20.6131L31.919 19.9901L32.543 19.5211ZM28.277 19.5231L28.748 20.1481L28.123 20.6181L27.654 19.9921L28.277 19.5231ZM24.014 19.5271L24.482 20.1521L23.859 20.6221L23.389 19.9961L24.014 19.5271ZM19.748 19.5291L20.217 20.1541L19.594 20.6231L19.125 19.9981L19.748 19.5291ZM15.484 19.5331L15.954 20.1581L15.33 20.6251L14.861 20.0021L15.484 19.5331ZM33.738 19.6891L34.207 20.3161L33.582 20.7861L33.113 20.1601L33.738 19.6901V19.6891ZM29.473 19.6931L29.941 20.3181L29.316 20.7881L28.848 20.1641L29.473 19.6941V19.6931ZM25.207 19.6971L25.677 20.3221L25.053 20.7911L24.584 20.1661L25.207 19.6971ZM20.943 19.6991L21.413 20.3241L20.787 20.7931L20.318 20.1681L20.943 19.6991ZM16.678 19.7031L17.148 20.3281L16.523 20.7971L16.055 20.1721L16.678 19.7031ZM30.666 19.8631L31.135 20.4881L30.512 20.9571L30.043 20.3321L30.666 19.8631ZM26.402 19.8651L26.872 20.4901L26.248 20.9591L25.778 20.3341L26.402 19.8651ZM22.139 19.8691L22.607 20.4921L21.98 20.9621L21.512 20.3401L22.139 19.8701V19.8691ZM17.873 19.8711L18.343 20.4981L17.717 20.9671L17.248 20.3421L17.873 19.8721V19.8711ZM9.14098 19.9591L10.273 20.8111L9.13898 21.6621L8.00398 20.8111L9.14098 19.9591ZM38.834 19.9591L39.971 20.8111L38.836 21.6621L37.701 20.8111L38.834 19.9591ZM6.66398 19.9611L7.79698 20.8111L6.66598 21.6611L5.53298 20.8111L6.66398 19.9611ZM41.311 19.9611L42.441 20.8111L41.309 21.6611L40.178 20.8111L41.311 19.9611ZM31.861 20.0331L32.331 20.6581L31.705 21.1271L31.236 20.5021L31.861 20.0331ZM27.596 20.0351L28.066 20.6601L27.441 21.1291L26.973 20.5041L27.596 20.0351ZM23.332 20.0391L23.801 20.6641L23.178 21.1331L22.707 20.5081L23.332 20.0391ZM19.066 20.0411L19.536 20.6661L18.912 21.1351L18.443 20.5101L19.066 20.0411ZM14.803 20.0451L15.271 20.6701L14.646 21.1391L14.178 20.5141L14.803 20.0441V20.0451ZM33.055 20.2031L33.525 20.8281L32.9 21.2971L32.432 20.6721L33.055 20.2031ZM28.791 20.2051L29.26 20.8301L28.635 21.2991L28.166 20.6741L28.791 20.2051ZM24.525 20.2091L24.996 20.8341L24.371 21.3031L23.902 20.6781L24.525 20.2091ZM20.26 20.2111L20.73 20.8361L20.105 21.3051L19.637 20.6801L20.26 20.2101V20.2111ZM15.996 20.2151L16.465 20.8401L15.842 21.3091L15.373 20.6841L15.996 20.2141V20.2151ZM29.984 20.3751L30.454 21.0001L29.828 21.4691L29.359 20.8461L29.984 20.3751ZM25.719 20.3791L26.189 21.0021L25.564 21.4721L25.096 20.8481L25.719 20.3781V20.3791ZM21.455 20.3811L21.924 21.0061L21.301 21.4751L20.832 20.8501L21.455 20.3801V20.3811ZM17.191 20.3851L17.661 21.0101L17.035 21.4791L16.566 20.8541L17.191 20.3841V20.3851ZM31.18 20.5451L31.648 21.1701L31.023 21.6391L30.555 21.0141L31.18 20.5441V20.5451ZM26.914 20.5471L27.384 21.1741L26.76 21.6431L26.291 21.0161L26.914 20.5461V20.5471ZM22.65 20.5511L23.12 21.1761L22.494 21.6461L22.025 21.0211L22.65 20.5511ZM18.385 20.5551L18.854 21.1781L18.229 21.6481L17.759 21.0231L18.385 20.5551ZM14.119 20.5591L14.589 21.1821L13.965 21.6521L13.496 21.0271L14.119 20.5591ZM32.373 20.7151L32.842 21.3401L32.219 21.8091L31.748 21.1841L32.373 20.7141V20.7151ZM28.109 20.7191L28.579 21.3421L27.953 21.8111L27.484 21.1881L28.109 20.7181V20.7191ZM23.844 20.7211L24.314 21.3461L23.689 21.8141L23.221 21.1891L23.844 20.7211ZM19.578 20.7251L20.048 21.3481L19.424 21.8161L18.955 21.1931L19.578 20.7251ZM15.314 20.7271L15.784 21.3521L15.158 21.8201L14.689 21.1971L15.314 20.7271ZM33.566 20.8851L34.037 21.5101L33.412 21.9791L32.943 21.3541L33.566 20.8841V20.8851ZM7.89998 20.8891L9.03498 21.7401L7.90498 22.5901L6.76998 21.7381L7.89998 20.8881V20.8891ZM10.377 20.8891L11.51 21.7391L10.375 22.5921L9.24198 21.7401L10.377 20.8891ZM29.303 20.8891L29.771 21.5121L29.148 21.9801L28.68 21.3571L29.303 20.8891ZM37.598 20.8891L38.732 21.7401L37.6 22.5921L36.465 21.7381L37.598 20.8881V20.8891ZM40.074 20.8891L41.205 21.7391L40.07 22.5891L38.94 21.7401L40.074 20.8891ZM25.037 20.8911L25.506 21.5161L24.883 21.9841L24.414 21.3591L25.037 20.8911ZM20.773 20.8951L21.243 21.5181L20.619 21.9861L20.15 21.3631L20.773 20.8951ZM16.508 20.8961L16.978 21.5211L16.355 21.9911L15.885 21.3651L16.508 20.8961ZM30.498 21.0561L30.967 21.6821L30.342 22.1501L29.873 21.5271L30.498 21.0571V21.0561ZM26.232 21.0611L26.702 21.6861L26.078 22.1541L25.608 21.5291L26.232 21.0611ZM21.969 21.0641L22.437 21.6871L21.812 22.1571L21.344 21.5331L21.969 21.0641ZM17.703 21.0661L18.172 21.6911L17.547 22.1611L17.078 21.5351L17.703 21.0661ZM31.691 21.2261L32.161 21.8541L31.537 22.3221L31.067 21.6951L31.691 21.2271V21.2261ZM27.426 21.2301L27.896 21.8551L27.271 22.3251L26.803 21.6991L27.426 21.2301ZM23.162 21.2321L23.632 21.8571L23.006 22.3281L22.537 21.7031L23.162 21.2331V21.2321ZM18.898 21.2361L19.368 21.8591L18.74 22.3301L18.271 21.7051L18.898 21.2361ZM14.633 21.2401L15.102 21.8651L14.477 22.3341L14.007 21.7091L14.633 21.2401ZM32.885 21.3961L33.355 22.0211L32.73 22.4911L32.262 21.8651L32.885 21.3961ZM28.621 21.4001L29.09 22.0231L28.465 22.4931L27.996 21.8691L28.621 21.4001ZM24.355 21.4021L24.826 22.0271L24.201 22.4971L23.732 21.8711L24.355 21.4021ZM20.092 21.4061L20.561 22.0291L19.936 22.4981L19.466 21.8751L20.092 21.4061ZM15.826 21.4081L16.296 22.0351L15.672 22.5041L15.203 21.8791L15.826 21.4091V21.4081ZM34.08 21.5681L34.547 22.1911L33.924 22.6611L33.457 22.0351L34.08 21.5681ZM29.814 21.5701L30.285 22.1931L29.66 22.6631L29.191 22.0391L29.814 21.5701ZM25.551 21.5721L26.02 22.1971L25.395 22.6681L24.925 22.0411L25.551 21.5721ZM21.285 21.5761L21.754 22.2011L21.131 22.6701L20.662 22.0451L21.285 21.5761ZM17.021 21.5781L17.491 22.2031L16.865 22.6721L16.396 22.0471L17.021 21.5781ZM31.01 21.7381L31.479 22.3651L30.854 22.8341L30.384 22.2091L31.01 21.7391V21.7381ZM26.744 21.7421L27.213 22.3671L26.59 22.8361L26.12 22.2111L26.744 21.7421ZM22.48 21.7461L22.95 22.3711L22.324 22.8401L21.855 22.2151L22.48 21.7461ZM18.215 21.7481L18.684 22.3731L18.059 22.8421L17.589 22.2171L18.215 21.7481ZM6.66198 21.8181L7.79698 22.6701L6.66598 23.5211L5.53098 22.6701L6.66198 21.8181ZM9.13898 21.8181L10.271 22.6701L9.14098 23.5201L8.00798 22.6681L9.13798 21.8181H9.13898ZM38.836 21.8181L39.966 22.6681L38.834 23.5201L37.704 22.6701L38.836 21.8181ZM41.313 21.8181L42.443 22.6701L41.309 23.5211L40.178 22.6701L41.313 21.8181ZM32.203 21.9081L32.673 22.5351L32.049 23.0041L31.579 22.3791L32.203 21.9091V21.9081ZM27.939 21.9121L28.409 22.5371L27.783 23.0061L27.314 22.3811L27.939 21.9121ZM23.674 21.9141L24.143 22.5391L23.518 23.0091L23.048 22.3851L23.674 21.9151V21.9141ZM19.41 21.9181L19.879 22.5411L19.254 23.0111L18.785 22.3891L19.41 21.9181ZM15.145 21.9221L15.613 22.5471L14.988 23.0161L14.52 22.3911L15.145 21.9211V21.9221ZM33.398 22.0801L33.865 22.7031L33.242 23.1721L32.773 22.5491L33.398 22.0801ZM29.133 22.0821L29.602 22.7051L28.979 23.1751L28.509 22.5511L29.133 22.0821ZM24.869 22.0841L25.338 22.7091L24.715 23.1791L24.245 22.5531L24.869 22.0841ZM20.604 22.0881L21.072 22.7131L20.449 23.1821L19.98 22.5571L20.604 22.0871V22.0881ZM16.34 22.0901L16.809 22.7151L16.184 23.1841L15.714 22.5611L16.34 22.0901ZM30.328 22.2521L30.797 22.8771L30.172 23.3461L29.703 22.7211L30.328 22.2521ZM26.063 22.2541L26.531 22.8791L25.906 23.3481L25.438 22.7251L26.063 22.2541ZM21.799 22.2581L22.268 22.8831L21.643 23.3521L21.173 22.7271L21.799 22.2571V22.2581ZM17.533 22.2601L18.002 22.8851L17.379 23.3541L16.91 22.7291L17.533 22.2591V22.2601ZM31.521 22.4221L31.991 23.0471L31.367 23.5161L30.897 22.8911L31.521 22.4211V22.4221ZM27.258 22.4261L27.725 23.0491L27.102 23.5181L26.632 22.8951L27.258 22.4251V22.4261ZM22.992 22.4281L23.461 23.0511L22.836 23.5201L22.367 22.8961L22.992 22.4281ZM18.729 22.4321L19.195 23.0551L18.57 23.5231L18.104 22.9001L18.729 22.4321ZM14.463 22.4341L14.933 23.0591L14.307 23.5291L13.837 22.9021L14.463 22.4341ZM32.717 22.5921L33.184 23.2151L32.561 23.6841L32.091 23.0611L32.717 22.5911V22.5921ZM28.451 22.5941L28.92 23.2191L28.297 23.6871L27.828 23.0621L28.451 22.5941ZM24.187 22.5961L24.657 23.2231L24.031 23.6911L23.561 23.0661L24.188 22.5961H24.187ZM19.922 22.6001L20.391 23.2251L19.766 23.6951L19.296 23.0701L19.922 22.6001ZM15.656 22.6041L16.125 23.2291L15.5 23.6971L15.031 23.0721L15.656 22.6041ZM7.89998 22.7481L9.03298 23.6001L7.89998 24.4501L6.76798 23.6001L7.89998 22.7481ZM10.375 22.7481L11.508 23.5981L10.377 24.4481L9.24398 23.5981L10.375 22.7481ZM37.6 22.7481L38.73 23.5981L37.598 24.4481L36.467 23.5981L37.6 22.7481ZM40.074 22.7481L41.207 23.6001L40.074 24.4501L38.941 23.6001L40.074 22.7481ZM33.91 22.7621L34.379 23.3871L33.756 23.8541L33.287 23.2301L33.91 22.7621ZM29.646 22.7641L30.116 23.3891L29.49 23.8571L29.021 23.2321L29.646 22.7641ZM25.381 22.7681L25.85 23.3911L25.227 23.8591L24.756 23.2361L25.381 22.7681ZM21.115 22.7701L21.585 23.3951L20.961 23.8631L20.492 23.2381L21.115 22.7701ZM16.852 22.7731L17.32 23.3961L16.695 23.8661L16.227 23.2421L16.852 22.7731ZM30.84 22.9331L31.309 23.5591L30.686 24.0271L30.215 23.4021L30.84 22.9341V22.9331ZM26.574 22.9381L27.043 23.5611L26.418 24.0291L25.951 23.4061L26.574 22.9381ZM22.311 22.9391L22.779 23.5641L22.154 24.0341L21.686 23.4081L22.311 22.9391ZM18.045 22.9431L18.514 23.5661L17.891 24.0361L17.421 23.4121L18.045 22.9431ZM32.035 23.1031L32.502 23.7271L31.877 24.1971L31.41 23.5741L32.035 23.1041V23.1031ZM27.77 23.1071L28.238 23.7301L27.613 24.2001L27.145 23.5761L27.77 23.1071ZM23.504 23.1091L23.974 23.7341L23.35 24.2041L22.88 23.5781L23.504 23.1091ZM19.24 23.1131L19.709 23.7361L19.084 24.2071L18.615 23.5821L19.24 23.1131ZM14.975 23.1151L15.443 23.7401L14.818 24.2091L14.35 23.5841L14.975 23.1151ZM33.229 23.2731L33.697 23.8981L33.072 24.3681L32.604 23.7421L33.229 23.2731ZM28.963 23.2751L29.433 23.9021L28.809 24.3721L28.339 23.7441L28.963 23.2751ZM24.699 23.2791L25.168 23.9021L24.543 24.3731L24.074 23.7481L24.699 23.2791ZM20.436 23.2811L20.904 23.9061L20.277 24.3771L19.809 23.7521L20.436 23.2821V23.2811ZM16.168 23.2851L16.637 23.9101L16.012 24.3791L15.543 23.7541L16.168 23.2851ZM30.158 23.4451L30.627 24.0701L30.004 24.5401L29.534 23.9141L30.158 23.4451ZM25.893 23.4491L26.361 24.0721L25.738 24.5411L25.27 23.9181L25.893 23.4491ZM21.629 23.4511L22.098 24.0761L21.473 24.5451L21.003 23.9201L21.629 23.4511ZM17.363 23.4551L17.832 24.0781L17.207 24.5481L16.74 23.9241L17.363 23.4551ZM31.352 23.6151L31.82 24.2401L31.195 24.7091L30.729 24.0861L31.352 23.6161V23.6151ZM27.088 23.6191L27.557 24.2421L26.932 24.7121L26.462 24.0881L27.088 23.6191ZM22.822 23.6211L23.291 24.2461L22.668 24.7151L22.198 24.0901L22.822 23.6211ZM18.559 23.6251L19.027 24.2501L18.404 24.7191L17.934 24.0941L18.559 23.6251ZM14.293 23.6271L14.762 24.2521L14.139 24.7211L13.668 24.0961L14.293 23.6271ZM6.66398 23.6771L7.79698 24.5271L6.66198 25.3811L5.52898 24.5291L6.66398 23.6781V23.6771ZM9.13698 23.6771L10.27 24.5271L9.13698 25.3791L8.00398 24.5271L9.13698 23.6771ZM38.837 23.6771L39.971 24.5271L38.838 25.3791L37.705 24.5271L38.838 23.6771H38.837ZM41.311 23.6771L42.445 24.5291L41.312 25.3811L40.178 24.5271L41.311 23.6771ZM32.547 23.7851L33.016 24.4101L32.391 24.8791L31.921 24.2561L32.547 23.7861V23.7851ZM28.281 23.7891L28.75 24.4141L28.127 24.8831L27.657 24.2581L28.281 23.7891ZM24.018 23.7911L24.486 24.4161L23.861 24.8851L23.393 24.2601L24.018 23.7911ZM19.752 23.7951L20.221 24.4201L19.596 24.8891L19.127 24.2641L19.752 23.7941V23.7951ZM15.488 23.7971L15.957 24.4221L15.33 24.8911L14.861 24.2661L15.488 23.7961V23.7971ZM33.74 23.9551L34.21 24.5821L33.586 25.0511L33.116 24.4241L33.74 23.9551ZM29.475 23.9571L29.945 24.5841L29.32 25.0531L28.852 24.4261L29.475 23.9571ZM25.211 23.9611L25.68 24.5841L25.055 25.0541L24.585 24.4321L25.211 23.9611ZM20.947 23.9631L21.416 24.5881L20.789 25.0581L20.32 24.4341L20.947 23.9631ZM16.682 23.9691L17.15 24.5921L16.525 25.0611L16.057 24.4381L16.682 23.9681V23.9691ZM30.67 24.1291L31.139 24.7521L30.514 25.2211L30.047 24.5981L30.67 24.1281V24.1291ZM26.406 24.1311L26.875 24.7561L26.25 25.2251L25.781 24.6001L26.406 24.1301V24.1311ZM22.141 24.1331L22.609 24.7601L21.986 25.2291L21.516 24.6021L22.141 24.1321V24.1331ZM17.877 24.1371L18.346 24.7621L17.721 25.2301L17.252 24.6071L17.877 24.1371ZM31.865 24.2991L32.334 24.9221L31.709 25.3911L31.24 24.7681L31.865 24.2981V24.2991ZM27.6 24.3001L28.068 24.9251L27.443 25.3941L26.975 24.7691L27.6 24.2991V24.3001ZM23.334 24.3041L23.803 24.9271L23.18 25.3951L22.71 24.7701L23.334 24.3041ZM19.07 24.3061L19.54 24.9311L18.916 25.3991L18.447 24.7741L19.07 24.3061ZM14.805 24.3081L15.275 24.9331L14.65 25.4011L14.182 24.7761L14.805 24.3081ZM33.059 24.4661L33.527 25.0931L32.904 25.5611L32.434 24.9361L33.059 24.4661ZM28.793 24.4701L29.263 25.0951L28.639 25.5631L28.168 24.9381L28.793 24.4701ZM24.529 24.4741L24.998 25.0971L24.373 25.5651L23.904 24.9421L24.529 24.4741ZM20.264 24.4761L20.732 25.0991L20.107 25.5691L19.639 24.9441L20.264 24.4761ZM16 24.4801L16.469 25.1041L15.844 25.5721L15.375 24.9491L16 24.4801ZM7.89998 24.6051L9.03298 25.4571L7.89798 26.3091L6.76598 25.4591L7.89998 24.6051ZM40.074 24.6051L41.209 25.4591L40.076 26.3091L38.941 25.4571L40.074 24.6051ZM10.375 24.6071L11.508 25.4571L10.375 26.3091L9.24498 25.4571L10.375 24.6071ZM37.6 24.6071L38.73 25.4571L37.6 26.3091L36.467 25.4571L37.6 24.6071ZM29.988 24.6411L30.457 25.2641L29.832 25.7321L29.365 25.1091L29.988 24.6411ZM25.725 24.6431L26.193 25.2681L25.566 25.7361L25.098 25.1131L25.725 24.6431ZM21.459 24.6451L21.928 25.2711L21.303 25.7411L20.834 25.1151L21.459 24.6451ZM17.193 24.6501L17.663 25.2731L17.037 25.7441L16.568 25.1191L17.193 24.6501ZM31.183 24.8101L31.653 25.4341L31.027 25.9041L30.559 25.2791L31.184 24.8111L31.183 24.8101ZM26.918 24.8131L27.387 25.4381L26.764 25.9061L26.293 25.2811L26.918 24.8131ZM22.652 24.8161L23.122 25.4391L22.498 25.9091L22.029 25.2851L22.652 24.8161ZM18.389 24.8181L18.857 25.4431L18.232 25.9131L17.764 25.2891L18.389 24.8191V24.8181ZM14.123 24.8201L14.592 25.4451L13.969 25.9151L13.498 25.2911L14.123 24.8211V24.8201ZM32.377 24.9801L32.846 25.6051L32.223 26.0751L31.752 25.4491L32.377 24.9801ZM28.111 24.9821L28.581 25.6071L27.957 26.0771L27.487 25.4511L28.111 24.9821ZM23.848 24.9861L24.316 25.6091L23.691 26.0791L23.223 25.4551L23.848 24.9861ZM19.582 24.9881L20.051 25.6131L19.428 26.0821L18.959 25.4571L19.582 24.9881ZM15.318 24.9921L15.788 25.6151L15.162 26.0841L14.693 25.4611L15.318 24.9921ZM33.57 25.1481L34.04 25.7731L33.414 26.2431L32.945 25.6191L33.57 25.1491V25.1481ZM29.307 25.1521L29.773 25.7771L29.15 26.2471L28.682 25.6231L29.307 25.1531V25.1521ZM25.041 25.1561L25.51 25.7791L24.887 26.2481L24.418 25.6251L25.041 25.1561ZM20.777 25.1581L21.247 25.7831L20.621 26.2531L20.151 25.6271L20.777 25.1581ZM16.512 25.1621L16.98 25.7851L16.355 26.2551L15.887 25.6311L16.512 25.1621ZM30.5 25.3221L30.969 25.9471L30.346 26.4161L29.877 25.7911L30.5 25.3221ZM26.236 25.3241L26.706 25.9491L26.08 26.4191L25.61 25.7951L26.236 25.3251V25.3241ZM21.971 25.3281L22.439 25.9511L21.814 26.4211L21.346 25.7971L21.971 25.3281ZM17.705 25.3321L18.175 25.9571L17.549 26.4261L17.08 25.8011L17.705 25.3321ZM31.695 25.4921L32.165 26.1171L31.541 26.5861L31.071 25.9611L31.695 25.4921ZM27.43 25.4941L27.9 26.1191L27.275 26.5881L26.805 25.9631L27.43 25.4941ZM23.166 25.4981L23.633 26.1211L23.01 26.5911L22.541 25.9671L23.166 25.4981ZM18.9 25.5001L19.37 26.1251L18.744 26.5941L18.275 25.9711L18.9 25.5001ZM14.637 25.5041L15.105 26.1271L14.48 26.5961L14.012 25.9731L14.637 25.5031V25.5041ZM6.66198 25.5351L7.79498 26.3871L6.66198 27.2371L5.53198 26.3871L6.66198 25.5351ZM9.13898 25.5351L10.271 26.3871L9.13698 27.2381L8.00398 26.3881L9.13898 25.5351ZM38.836 25.5351L39.971 26.3891L38.838 27.2391L37.703 26.3871L38.836 25.5351ZM41.313 25.5351L42.443 26.3871L41.313 27.2371L40.18 26.3871L41.313 25.5351ZM32.889 25.6621L33.357 26.2851L32.732 26.7551L32.264 26.1311L32.889 25.6621ZM28.625 25.6661L29.092 26.2891L28.467 26.7581L28 26.1351L28.625 25.6661ZM24.359 25.6681L24.829 26.2931L24.203 26.7621L23.734 26.1371L24.359 25.6681ZM20.094 25.6701L20.564 26.2971L19.941 26.7641L19.471 26.1391L20.094 25.6691V25.6701ZM15.83 25.6741L16.299 26.2991L15.676 26.7681L15.206 26.1431L15.83 25.6731V25.6741ZM34.082 25.8321L34.551 26.4551L33.928 26.9241L33.457 26.3011L34.082 25.8321ZM29.818 25.8341L30.288 26.4591L29.662 26.9281L29.193 26.3051L29.818 25.8341ZM25.553 25.8381L26.023 26.4631L25.398 26.9321L24.93 26.3071L25.553 25.8371V25.8381ZM21.289 25.8401L21.758 26.4651L21.133 26.9341L20.664 26.3111L21.289 25.8401ZM17.025 25.8441L17.495 26.4691L16.869 26.9371L16.399 26.3121L17.025 25.8441ZM31.014 26.0041L31.482 26.6291L30.857 27.0981L30.389 26.4731L31.014 26.0031V26.0041ZM26.748 26.0061L27.218 26.6311L26.592 27.1011L26.123 26.4771L26.748 26.0061ZM22.484 26.0101L22.951 26.6351L22.326 27.1041L21.857 26.4801L22.484 26.0101ZM18.217 26.0141L18.687 26.6371L18.062 27.1071L17.592 26.4821L18.217 26.0141ZM32.207 26.1741L32.676 26.7991L32.051 27.2681L31.582 26.6431L32.207 26.1731V26.1741ZM27.943 26.1781L28.41 26.8011L27.787 27.2701L27.318 26.6461L27.943 26.1781ZM23.678 26.1801L24.146 26.8051L23.521 27.2731L23.053 26.6481L23.678 26.1801ZM19.412 26.1841L19.882 26.8091L19.258 27.2771L18.788 26.6521L19.412 26.1841ZM15.148 26.1861L15.618 26.8111L14.992 27.2791L14.523 26.6541L15.148 26.1861ZM33.4 26.3441L33.87 26.9671L33.246 27.4371L32.776 26.8121L33.4 26.3441ZM29.137 26.3481L29.605 26.9711L28.98 27.4411L28.512 26.8161L29.137 26.3481ZM24.871 26.3501L25.341 26.9751L24.717 27.4431L24.248 26.8181L24.871 26.3501ZM20.605 26.3541L21.076 26.9771L20.451 27.4451L19.982 26.8201L20.605 26.3541ZM16.342 26.3551L16.812 26.9801L16.187 27.4501L15.719 26.8241L16.342 26.3551ZM7.90198 26.4651L9.03298 27.3161L7.89998 28.1661L6.76998 27.3161L7.90198 26.4651ZM10.377 26.4651L11.51 27.3161L10.375 28.1701L9.24198 27.3181L10.377 26.4651ZM37.597 26.4651L38.732 27.3181L37.6 28.1701L36.465 27.3161L37.598 26.4651H37.597ZM40.072 26.4651L41.205 27.3161L40.075 28.1661L38.941 27.3161L40.072 26.4651ZM30.33 26.5181L30.8 27.1431L30.176 27.6111L29.706 26.9861L30.33 26.5181ZM26.066 26.5201L26.536 27.1451L25.91 27.6131L25.441 26.9881L26.066 26.5201ZM21.801 26.5231L22.27 27.1461L21.645 27.6161L21.175 26.9921L21.801 26.5231ZM17.537 26.5251L18.006 27.1501L17.381 27.6201L16.912 26.9941L17.537 26.5251ZM31.525 26.6851L31.995 27.3111L31.369 27.7791L30.9 27.1541L31.525 26.6861V26.6851ZM27.262 26.6891L27.729 27.3121L27.104 27.7831L26.634 27.1581L27.262 26.6891ZM22.996 26.6911L23.465 27.3161L22.84 27.7861L22.371 27.1621L22.996 26.6921V26.6911ZM18.73 26.6951L19.2 27.3201L18.574 27.7911L18.105 27.1641L18.73 26.6951ZM14.465 26.6991L14.934 27.3241L14.311 27.7911L13.841 27.1681L14.465 26.6991ZM32.719 26.8551L33.187 27.4801L32.563 27.9501L32.093 27.3241L32.719 26.8551ZM28.455 26.8591L28.924 27.4821L28.299 27.9531L27.83 27.3281L28.455 26.8591ZM24.189 26.8611L24.659 27.4861L24.035 27.9561L23.565 27.3301L24.189 26.8611ZM19.924 26.8651L20.393 27.4881L19.77 27.9591L19.3 27.3341L19.924 26.8651ZM15.66 26.8671L16.129 27.4921L15.506 27.9611L15.036 27.3381L15.66 26.8681V26.8671ZM33.912 27.0251L34.382 27.6501L33.758 28.1201L33.289 27.4941L33.912 27.0251ZM29.648 27.0291L30.118 27.6541L29.494 28.1231L29.024 27.4981L29.648 27.0291ZM25.383 27.0311L25.853 27.6561L25.229 28.1251L24.759 27.5001L25.383 27.0311ZM21.119 27.0351L21.588 27.6581L20.965 28.1271L20.496 27.5041L21.119 27.0351ZM16.855 27.0371L17.325 27.6621L16.699 28.1311L16.23 27.5061L16.855 27.0371ZM30.842 27.1991L31.311 27.8221L30.688 28.2931L30.217 27.6681L30.842 27.1991ZM26.578 27.2011L27.047 27.8241L26.422 28.2941L25.953 27.6701L26.578 27.2011ZM22.314 27.2051L22.784 27.8281L22.156 28.2981L21.688 27.6741L22.314 27.2051ZM18.049 27.2071L18.518 27.8321L17.893 28.3021L17.423 27.6761L18.049 27.2071ZM32.037 27.3671L32.506 27.9921L31.881 28.4611L31.412 27.8361L32.037 27.3671ZM27.773 27.3711L28.243 27.9961L27.617 28.4651L27.147 27.8401L27.773 27.3711ZM23.508 27.3731L23.977 28.0001L23.352 28.4691L22.882 27.8441L23.508 27.3731ZM19.242 27.3771L19.711 28.0021L19.086 28.4711L18.617 27.8481L19.242 27.3771ZM14.977 27.3811L15.447 28.0061L14.822 28.4731L14.354 27.8501L14.977 27.3801V27.3811ZM6.66598 27.3951L7.79598 28.2451L6.66398 29.0951L5.53398 28.2451L6.66598 27.3951ZM9.13898 27.3951L10.271 28.2461L9.14098 29.0981L8.00598 28.2461L9.13898 27.3951ZM38.836 27.3951L39.969 28.2461L38.834 29.0981L37.704 28.2461L38.836 27.3951ZM41.309 27.3951L42.441 28.2451L41.311 29.0951L40.178 28.2451L41.308 27.3951H41.309ZM33.23 27.5371L33.701 28.1621L33.076 28.6311L32.607 28.0061L33.23 27.5371ZM28.967 27.5411L29.437 28.1661L28.812 28.6351L28.344 28.0101L28.967 27.5411ZM24.701 27.5431L25.171 28.1681L24.547 28.6381L24.078 28.0141L24.701 27.5431ZM20.437 27.5471L20.907 28.1721L20.281 28.6411L19.813 28.0161L20.438 27.5461L20.437 27.5471ZM16.174 27.5491L16.643 28.1741L16.018 28.6431L15.548 28.0201L16.174 27.5491ZM30.16 27.7111L30.629 28.3361L30.004 28.8051L29.535 28.1801L30.16 27.7101V27.7111ZM25.896 27.7151L26.366 28.3381L25.74 28.8071L25.271 28.1841L25.896 27.7141V27.7151ZM21.631 27.7171L22.1 28.3421L21.477 28.8091L21.007 28.1861L21.631 27.7161V27.7171ZM17.367 27.7191L17.836 28.3441L17.213 28.8141L16.743 28.1871L17.367 27.7191ZM31.354 27.8811L31.824 28.5041L31.199 28.9741L30.73 28.3501L31.354 27.8801V27.8811ZM27.09 27.8831L27.559 28.5081L26.936 28.9771L26.466 28.3541L27.09 27.8831ZM22.826 27.8871L23.295 28.5121L22.67 28.9801L22.201 28.3551L22.826 27.8871ZM18.561 27.8891L19.029 28.5141L18.404 28.9821L17.936 28.3571L18.561 27.8891ZM14.297 27.8931L14.766 28.5181L14.141 28.9861L13.671 28.3611L14.297 27.8931ZM32.549 28.0491L33.019 28.6761L32.395 29.1451L31.924 28.5181L32.549 28.0481V28.0491ZM28.285 28.0531L28.755 28.6781L28.129 29.1481L27.66 28.5231L28.285 28.0531ZM24.02 28.0571L24.49 28.6821L23.863 29.1501L23.395 28.5251L24.02 28.0571ZM19.756 28.0611L20.223 28.6841L19.598 29.1521L19.128 28.5291L19.756 28.0611ZM15.49 28.0631L15.959 28.6881L15.336 29.1541L14.866 28.5311L15.49 28.0631ZM33.744 28.2211L34.213 28.8441L33.588 29.3141L33.119 28.6891L33.744 28.2211ZM29.479 28.2231L29.949 28.8481L29.324 29.3161L28.855 28.6911L29.479 28.2231ZM25.215 28.2271L25.682 28.8501L25.059 29.3181L24.589 28.6951L25.215 28.2271ZM20.949 28.2291L21.418 28.8541L20.793 29.3221L20.324 28.6991L20.949 28.2291ZM16.686 28.2301L17.154 28.8571L16.529 29.3271L16.061 28.7011L16.686 28.2311V28.2301ZM7.90198 28.3241L9.03498 29.1761L7.90498 30.0261L6.76998 29.1741L7.90198 28.3241ZM10.377 28.3241L11.51 29.1761L10.377 30.0261L9.24398 29.1761L10.377 28.3241ZM37.597 28.3241L38.73 29.1761L37.598 30.0261L36.465 29.1761L37.598 28.3241H37.597ZM40.072 28.3241L41.205 29.1741L40.07 30.0251L38.94 29.1751L40.072 28.3251V28.3241ZM30.672 28.3931L31.141 29.0181L30.518 29.4861L30.047 28.8611L30.672 28.3931ZM26.408 28.3961L26.877 29.0201L26.254 29.4881L25.784 28.8651L26.408 28.3961ZM22.143 28.3981L22.613 29.0231L21.99 29.4931L21.52 28.8671L22.143 28.3981ZM17.879 28.4001L18.348 29.0251L17.723 29.4951L17.253 28.8691L17.879 28.4001ZM31.867 28.5631L32.336 29.1881L31.711 29.6561L31.242 29.0311L31.867 28.5631ZM27.604 28.5661L28.072 29.1911L27.447 29.6611L26.979 29.0351L27.604 28.5661ZM23.338 28.5681L23.807 29.1931L23.182 29.6631L22.712 29.0371L23.338 28.5681ZM19.074 28.5721L19.541 29.1951L18.918 29.6651L18.449 29.0411L19.074 28.5721ZM14.809 28.5741L15.277 29.1991L14.652 29.6681L14.184 29.0431L14.809 28.5741ZM33.063 28.7321L33.531 29.3571L32.906 29.8271L32.438 29.2011L33.062 28.7321H33.063ZM28.797 28.7341L29.266 29.3591L28.641 29.8301L28.171 29.2051L28.797 28.7351V28.7341ZM24.533 28.7381L25 29.3611L24.375 29.8321L23.906 29.2091L24.533 28.7391V28.7381ZM20.268 28.7421L20.736 29.3651L20.111 29.8351L19.643 29.2111L20.268 28.7421ZM16.002 28.7441L16.471 29.3691L15.848 29.8381L15.378 29.2131L16.002 28.7441ZM29.99 28.9041L30.46 29.5291L29.836 29.9981L29.367 29.3731L29.99 28.9041ZM25.727 28.9081L26.195 29.5331L25.57 30.0021L25.102 29.3771L25.727 28.9081ZM21.461 28.9101L21.931 29.5371L21.307 30.0061L20.836 29.3791L21.461 28.9101ZM17.197 28.9141L17.666 29.5371L17.041 30.0071L16.572 29.3831L17.197 28.9141ZM31.184 29.0741L31.654 29.6991L31.029 30.1681L30.561 29.5431L31.184 29.0741ZM26.92 29.0781L27.39 29.7031L26.766 30.1721L26.296 29.5471L26.92 29.0781ZM22.656 29.0801L23.125 29.7051L22.502 30.1741L22.032 29.5491L22.656 29.0801ZM18.393 29.0841L18.859 29.7071L18.236 30.1761L17.768 29.5531L18.393 29.0841ZM14.127 29.0861L14.596 29.7111L13.971 30.1801L13.502 29.5551L14.127 29.0851V29.0861ZM32.379 29.2461L32.848 29.8691L32.223 30.3381L31.756 29.7151L32.379 29.2461ZM28.115 29.2481L28.584 29.8731L27.959 30.3421L27.49 29.7171L28.115 29.2481ZM23.85 29.2501L24.318 29.8731L23.693 30.3431L23.225 29.7211L23.85 29.2501ZM6.66598 29.2521L7.79898 30.1041L6.66398 30.9551L5.53098 30.1041L6.66598 29.2521ZM41.309 29.2521L42.443 30.1041L41.311 30.9551L40.176 30.1041L41.309 29.2521ZM9.14098 29.2541L10.271 30.1041L9.14098 30.9551L8.00798 30.1041L9.14098 29.2541ZM19.586 29.2541L20.055 29.8771L19.43 30.3471L18.96 29.7231L19.586 29.2531V29.2541ZM38.834 29.2541L39.967 30.1041L38.834 30.9551L37.704 30.1041L38.834 29.2541ZM15.32 29.2561L15.791 29.8811L15.166 30.3511L14.696 29.7251L15.32 29.2551V29.2561ZM33.574 29.4141L34.043 30.0391L33.418 30.5081L32.949 29.8831L33.574 29.4141ZM29.309 29.4161L29.779 30.0411L29.152 30.5101L28.684 29.8871L29.309 29.4161ZM25.045 29.4201L25.514 30.0451L24.889 30.5141L24.419 29.8911L25.045 29.4201ZM20.779 29.4241L21.248 30.0491L20.623 30.5181L20.154 29.8931L20.779 29.4231V29.4241ZM16.514 29.4261L16.982 30.0511L16.359 30.5201L15.891 29.8951L16.514 29.4251V29.4261ZM30.504 29.5861L30.973 30.2111L30.348 30.6801L29.878 30.0551L30.504 29.5851V29.5861ZM26.238 29.5901L26.709 30.2151L26.084 30.6841L25.615 30.0591L26.238 29.5891V29.5901ZM21.973 29.5941L22.443 30.2191L21.818 30.6871L21.35 30.0621L21.973 29.5941ZM17.711 29.5961L18.178 30.2191L17.553 30.6891L17.084 30.0661L17.711 29.5961ZM31.697 29.7581L32.166 30.3811L31.541 30.8511L31.072 30.2271L31.697 29.7571V29.7581ZM27.432 29.7601L27.902 30.3851L27.277 30.8541L26.809 30.2291L27.432 29.7591V29.7601ZM23.168 29.7641L23.637 30.3871L23.014 30.8551L22.544 30.2301L23.168 29.7641ZM18.904 29.7661L19.373 30.3891L18.748 30.8591L18.279 30.2341L18.904 29.7661ZM14.639 29.7681L15.107 30.3951L14.484 30.8631L14.014 30.2381L14.639 29.7681ZM32.891 29.9281L33.361 30.5511L32.736 31.0201L32.268 30.3961L32.891 29.9281ZM28.627 29.9301L29.096 30.5531L28.471 31.0231L28.002 30.3981L28.627 29.9301ZM24.363 29.9321L24.832 30.5571L24.207 31.0271L23.738 30.4021L24.363 29.9321ZM20.098 29.9361L20.566 30.5611L19.943 31.0291L19.473 30.4041L20.098 29.9361ZM15.832 29.9381L16.301 30.5631L15.678 31.0311L15.207 30.4061L15.832 29.9381ZM34.086 30.0961L34.555 30.7211L33.932 31.1891L33.461 30.5641L34.086 30.0961ZM29.822 30.0981L30.291 30.7231L29.666 31.1931L29.196 30.5681L29.822 30.0981ZM25.557 30.1021L26.027 30.7271L25.4 31.1971L24.932 30.5721L25.557 30.1021ZM21.291 30.1051L21.761 30.7301L21.135 31.2001L20.666 30.5741L21.291 30.1051ZM17.027 30.1091L17.494 30.7321L16.871 31.2021L16.402 30.5781L17.027 30.1091ZM7.90398 30.1821L9.03498 31.0331L7.89998 31.8851L6.76998 31.0331L7.90398 30.1821ZM10.377 30.1821L11.51 31.0331L10.377 31.8831L9.24398 31.0331L10.377 30.1821ZM37.597 30.1821L38.73 31.0331L37.598 31.8831L36.465 31.0331L37.598 30.1821H37.597ZM40.07 30.1821L41.205 31.0331L40.075 31.8851L38.939 31.0331L40.07 30.1821ZM31.016 30.2701L31.484 30.8931L30.861 31.3611L30.393 30.7381L31.016 30.2701ZM26.75 30.2711L27.22 30.8961L26.596 31.3661L26.127 30.7401L26.75 30.2711ZM22.486 30.2751L22.956 30.8981L22.33 31.3681L21.861 30.7441L22.486 30.2751ZM18.223 30.2771L18.691 30.9021L18.066 31.3721L17.598 30.7481L18.223 30.2781V30.2771ZM32.209 30.4391L32.678 31.0621L32.053 31.5331L31.584 30.9081L32.209 30.4391ZM27.945 30.4411L28.415 31.0661L27.789 31.5361L27.32 30.9101L27.945 30.4411ZM23.68 30.4451L24.148 31.0701L23.525 31.5371L23.057 30.9141L23.68 30.4451ZM19.416 30.4471L19.885 31.0721L19.262 31.5411L18.791 30.9161L19.416 30.4471ZM15.15 30.4491L15.62 31.0741L14.994 31.5431L14.525 30.9201L15.15 30.4501V30.4491ZM33.404 30.6091L33.873 31.2321L33.248 31.7031L32.779 31.0781L33.404 30.6091ZM29.139 30.6111L29.607 31.2361L28.984 31.7061L28.514 31.0801L29.139 30.6111ZM24.875 30.6151L25.345 31.2401L24.719 31.7091L24.25 31.0841L24.875 30.6151ZM20.609 30.6171L21.08 31.2421L20.455 31.7111L19.986 31.0861L20.609 30.6171ZM16.346 30.6211L16.812 31.2441L16.189 31.7131L15.721 31.0901L16.346 30.6211ZM30.334 30.7811L30.803 31.4041L30.178 31.8751L29.709 31.2521L30.334 30.7821V30.7811ZM26.068 30.7831L26.539 31.4081L25.912 31.8781L25.443 31.2541L26.068 30.7841V30.7831ZM21.805 30.7871L22.271 31.4101L21.646 31.8801L21.178 31.2581L21.805 30.7881V30.7871ZM17.539 30.7911L18.008 31.4141L17.383 31.8831L16.916 31.2601L17.539 30.7911ZM31.527 30.9511L31.998 31.5741L31.373 32.0441L30.904 31.4201L31.527 30.9511ZM27.264 30.9531L27.732 31.5781L27.107 32.0471L26.639 31.4221L27.264 30.9531ZM22.998 30.9571L23.467 31.5821L22.844 32.0511L22.373 31.4261L22.998 30.9571ZM18.734 30.9591L19.204 31.5841L18.578 32.0541L18.109 31.4281L18.734 30.9591ZM14.469 30.9631L14.938 31.5861L14.312 32.0561L13.844 31.4321L14.469 30.9621V30.9631ZM9.14098 31.1111L10.271 31.9611L9.13898 32.8131L8.00598 31.9631L9.14098 31.1111ZM38.834 31.1111L39.969 31.9631L38.836 32.8131L37.703 31.9611L38.834 31.1111ZM6.66398 31.1131L7.79698 31.9631L6.66398 32.8141L5.53098 31.9631L6.66398 31.1131ZM41.311 31.1131L42.443 31.9631L41.311 32.8141L40.178 31.9631L41.311 31.1131ZM32.723 31.1211L33.191 31.7461L32.566 32.2151L32.098 31.5901L32.723 31.1211ZM28.457 31.1231L28.926 31.7481L28.303 32.2171L27.832 31.5921L28.457 31.1231ZM24.193 31.1271L24.663 31.7521L24.039 32.2211L23.57 31.5961L24.193 31.1271ZM19.928 31.1291L20.398 31.7541L19.773 32.2231L19.305 31.5981L19.928 31.1281V31.1291ZM15.664 31.1331L16.131 31.7561L15.508 32.2251L15.039 31.6021L15.664 31.1321V31.1331ZM33.916 31.2911L34.385 31.9161L33.762 32.3851L33.291 31.7601L33.916 31.2911ZM25.386 31.2951L25.857 31.9221L25.23 32.3911L24.762 31.7661L25.387 31.2951H25.386ZM29.652 31.2951L30.122 31.9181L29.496 32.3871L29.027 31.7641L29.652 31.2941V31.2951ZM21.123 31.2991L21.59 31.9241L20.967 32.3931L20.498 31.7701L21.123 31.2991ZM16.857 31.3031L17.327 31.9281L16.701 32.3961L16.232 31.7711L16.857 31.3031ZM30.846 31.4631L31.316 32.0881L30.689 32.5571L30.221 31.9341L30.846 31.4631ZM26.58 31.4651L27.05 32.0901L26.424 32.5601L25.955 31.9361L26.58 31.4651ZM22.316 31.4691L22.786 32.0941L22.16 32.5641L21.691 31.9391L22.316 31.4691ZM18.051 31.4731L18.52 32.0981L17.896 32.5661L17.428 31.9411L18.051 31.4731ZM32.041 31.6331L32.51 32.2581L31.885 32.7271L31.416 32.1021L32.041 31.6321V31.6331ZM27.775 31.6351L28.245 32.2601L27.619 32.7291L27.15 32.1041L27.775 31.6341V31.6351ZM19.246 31.6411L19.715 32.2661L19.09 32.7361L18.621 32.1111L19.246 31.6411ZM23.512 31.6411L23.98 32.2641L23.355 32.7341L22.887 32.1091L23.512 31.6411ZM14.982 31.6451L15.449 32.2681L14.824 32.7381L14.355 32.1151L14.982 31.6451ZM33.234 31.8031L33.704 32.4281L33.078 32.8981L32.609 32.2711L33.234 31.8031ZM28.971 31.8071L29.437 32.4301L28.814 32.8981L28.346 32.2751L28.971 31.8071ZM24.705 31.8091L25.174 32.4341L24.551 32.9021L24.081 32.2771L24.705 31.8091ZM20.441 31.8121L20.908 32.4361L20.285 32.9041L19.816 32.2811L20.441 31.8131V31.8121ZM16.176 31.8141L16.645 32.4391L16.02 32.9091L15.55 32.2831L16.176 31.8141ZM30.164 31.9771L30.633 32.6001L30.008 33.0681L29.539 32.4451L30.164 31.9771ZM25.898 31.9791L26.369 32.6021L25.742 33.0721L25.273 32.4471L25.898 31.9791ZM21.635 31.9801L22.104 32.6051L21.479 33.0751L21.009 32.4511L21.635 31.9811V31.9801ZM17.369 31.9841L17.839 32.6091L17.215 33.0791L16.745 32.4531L17.369 31.9841ZM7.89998 32.0411L9.03298 32.8931L7.89998 33.7431L6.76798 32.8931L7.89998 32.0401V32.0411ZM10.377 32.0411L11.514 32.8931L10.379 33.7441L9.24398 32.8931L10.377 32.0411ZM37.597 32.0411L38.73 32.8931L37.596 33.7441L36.461 32.8931L37.598 32.0411H37.597ZM40.074 32.0411L41.207 32.8931L40.074 33.7431L38.941 32.8931L40.074 32.0411ZM31.359 32.1451L31.829 32.7701L31.201 33.2381L30.732 32.6151L31.359 32.1451ZM27.094 32.1461L27.562 32.7711L26.937 33.2421L26.467 32.6171L27.094 32.1471V32.1461ZM22.828 32.1521L23.298 32.7771L22.672 33.2471L22.203 32.6211L22.828 32.1521ZM18.563 32.1541L19.033 32.7791L18.408 33.2481L17.939 32.6231L18.562 32.1541H18.563ZM14.301 32.1581L14.768 32.7811L14.143 33.2501L13.676 32.6271L14.301 32.1581ZM32.553 32.3141L33.021 32.9391L32.398 33.4091L31.928 32.7831L32.553 32.3141ZM28.289 32.3181L28.756 32.9411L28.133 33.4111L27.664 32.7871L28.289 32.3181ZM24.021 32.3201L24.492 32.9451L23.867 33.4161L23.398 32.7891L24.021 32.3201ZM19.76 32.3241L20.227 32.9471L19.602 33.4181L19.132 32.7931L19.76 32.3241ZM15.494 32.3261L15.963 32.9511L15.336 33.4201L14.869 32.7971L15.494 32.3271V32.3261ZM33.746 32.4841L34.215 33.1091L33.59 33.5791L33.121 32.9531L33.746 32.4841ZM29.482 32.4881L29.952 33.1131L29.326 33.5821L28.857 32.9571L29.482 32.4881ZM25.217 32.4901L25.686 33.1151L25.063 33.5841L24.593 32.9591L25.217 32.4901ZM20.953 32.4941L21.422 33.1171L20.797 33.5871L20.328 32.9631L20.953 32.4941ZM16.688 32.4961L17.156 33.1211L16.533 33.5901L16.063 32.9651L16.688 32.4961ZM30.676 32.6581L31.145 33.2811L30.52 33.7521L30.05 33.1271L30.676 32.6581ZM26.412 32.6601L26.881 33.2851L26.256 33.7541L25.786 33.1291L26.412 32.6601ZM22.146 32.6641L22.617 33.2891L21.992 33.7581L21.523 33.1331L22.146 32.6641ZM17.881 32.6661L18.351 33.2911L17.727 33.7601L17.257 33.1351L17.881 32.6661ZM31.871 32.8261L32.34 33.4511L31.715 33.9211L31.246 33.2971L31.871 32.8271V32.8261ZM27.607 32.8301L28.074 33.4531L27.449 33.9231L26.98 33.3011L27.607 32.8311V32.8301ZM23.34 32.8321L23.81 33.4591L23.186 33.9281L22.715 33.3031L23.34 32.8321ZM19.076 32.8361L19.545 33.4611L18.92 33.9301L18.451 33.3051L19.076 32.8351V32.8361ZM14.812 32.8401L15.282 33.4631L14.656 33.9321L14.187 33.3091L14.813 32.8391L14.812 32.8401ZM6.66398 32.9701L7.79398 33.8201L6.66398 34.6721L5.53098 33.8201L6.66398 32.9701ZM9.13898 32.9701L10.273 33.8241L9.14098 34.6741L8.00598 33.8221L9.13898 32.9711V32.9701ZM38.836 32.9701L39.969 33.8221L38.834 34.6741L37.701 33.8241L38.836 32.9711V32.9701ZM41.311 32.9701L42.443 33.8201L41.311 34.6721L40.18 33.8201L41.31 32.9701H41.311ZM33.064 32.9961L33.534 33.6211L32.91 34.0901L32.44 33.4651L33.064 32.9961ZM28.801 33.0001L29.27 33.6251L28.645 34.0941L28.175 33.4691L28.801 33.0001ZM24.535 33.0021L25.004 33.6271L24.379 34.0961L23.91 33.4711L24.535 33.0021ZM20.271 33.0061L20.741 33.6311L20.115 34.1001L19.645 33.4751L20.271 33.0051V33.0061ZM16.006 33.0081L16.475 33.6351L15.85 34.1041L15.379 33.4791L16.006 33.0081ZM29.994 33.1701L30.463 33.7951L29.838 34.2641L29.369 33.6391L29.994 33.1691V33.1701ZM25.729 33.1721L26.197 33.7971L25.574 34.2661L25.105 33.6411L25.729 33.1711V33.1721ZM21.465 33.1761L21.935 33.8011L21.311 34.2701L20.841 33.6451L21.465 33.1751V33.1761ZM17.199 33.1801L17.669 33.8031L17.045 34.2731L16.576 33.6481L17.199 33.1801ZM31.187 33.3401L31.658 33.9651L31.033 34.4341L30.563 33.8091L31.188 33.3391L31.187 33.3401ZM26.924 33.3441L27.393 33.9671L26.768 34.4361L26.298 33.8131L26.924 33.3431V33.3441ZM22.658 33.3461L23.128 33.9711L22.504 34.4391L22.035 33.8141L22.658 33.3461ZM18.395 33.3501L18.863 33.9731L18.238 34.4411L17.77 33.8181L18.395 33.3501ZM14.129 33.3521L14.598 33.9771L13.975 34.4431L13.505 33.8201L14.129 33.3521ZM32.383 33.5081L32.852 34.1331L32.227 34.6031L31.757 33.9791L32.383 33.5081ZM7.89998 33.9001L9.03698 34.7521L7.90398 35.6041L6.76798 34.7501L7.89998 33.9001ZM10.375 33.9001L11.508 34.7501L10.375 35.6021L9.24198 34.7501L10.375 33.9001ZM37.6 33.9001L38.732 34.7501L37.6 35.6021L36.467 34.7501L37.6 33.9001ZM40.074 33.9001L41.207 34.7501L40.07 35.6041L38.937 34.7521L40.074 33.9001ZM6.66398 34.8281L7.79898 35.6821L6.66598 36.5331L5.53098 35.6801L6.66398 34.8281ZM9.13698 34.8281L10.27 35.6801L9.13698 36.5301L8.00598 35.6801L9.13598 34.8281H9.13698ZM38.837 34.8281L39.969 35.6801L38.838 36.5301L37.705 35.6801L38.838 34.8281H38.837ZM41.311 34.8281L42.443 35.6801L41.309 36.5331L40.176 35.6821L41.311 34.8281ZM7.90098 35.7581L9.03298 36.6081L7.89998 37.4591L6.76798 36.6091L7.89998 35.7581H7.90098ZM40.074 35.7581L41.207 36.6091L40.074 37.4591L38.941 36.6071L40.074 35.7571V35.7581ZM10.377 35.7601L11.507 36.6101L10.375 37.4591L9.24498 36.6091L10.377 35.7591V35.7601ZM37.597 35.7601L38.73 36.6101L37.6 37.4591L36.467 36.6091L37.597 35.7591V35.7601ZM6.66398 36.6881L7.79698 37.5381L6.65998 38.3911L5.52698 37.5391L6.66398 36.6871V36.6881ZM9.14098 36.6881L10.271 37.5381L9.13898 38.3881L8.00798 37.5391L9.14098 36.6871V36.6881ZM14.086 36.6881L15.221 37.5411L14.09 38.3911L12.955 37.5371L14.085 36.6871L14.086 36.6881ZM16.564 36.6881L17.699 37.5381L16.564 38.3911L15.43 37.5391L16.564 36.6871V36.6881ZM19.039 36.6881L20.169 37.5381L19.037 38.3881L17.907 37.5381L19.039 36.6881ZM21.512 36.6881L22.646 37.5391L21.512 38.3911L20.379 37.5391L21.512 36.6871V36.6881ZM26.461 36.6881L27.596 37.5391L26.463 38.3911L25.328 37.5391L26.461 36.6871V36.6881ZM28.938 36.6881L30.07 37.5381L28.937 38.3881L27.805 37.5381L28.938 36.6881ZM31.41 36.6881L32.545 37.5391L31.41 38.3911L30.277 37.5371L31.41 36.6871V36.6881ZM33.889 36.6881L35.019 37.5381L33.885 38.3911L32.754 37.5411L33.889 36.6881ZM38.834 36.6881L39.967 37.5391L38.836 38.3891L37.703 37.5371L38.834 36.6871V36.6881ZM41.311 36.6881L42.447 37.5391L41.314 38.3911L40.178 37.5371L41.311 36.6871V36.6881ZM11.613 36.6891L12.746 37.5391L11.613 38.3891L10.483 37.5391L11.613 36.6891ZM23.988 36.6891L25.121 37.5411L23.988 38.3931L22.854 37.5411L23.988 36.6891ZM36.361 36.6891L37.492 37.5391L36.362 38.3891L35.229 37.5391L36.361 36.6891ZM17.801 37.6151L18.934 38.4651L17.799 39.3181L16.668 38.4671L17.801 37.6151ZM30.171 37.6151L31.307 38.4671L30.176 39.3181L29.041 38.4651L30.171 37.6151ZM7.90198 37.6171L9.03298 38.4671L7.89798 39.3201L6.76798 38.4701L7.90198 37.6171ZM10.377 37.6171L11.51 38.4671L10.377 39.3181L9.24398 38.4681L10.377 37.6181V37.6171ZM12.85 37.6171L13.984 38.4691L12.852 39.3201L11.717 38.4671L12.85 37.6171ZM20.275 37.6171L21.41 38.4691L20.277 39.3191L19.143 38.4671L20.275 37.6171ZM22.752 37.6171L23.885 38.4691L22.75 39.3201L21.617 38.4691L22.752 37.6171ZM25.222 37.6171L26.357 38.4691L25.225 39.3201L24.09 38.4691L25.223 37.6171H25.222ZM27.699 37.6171L28.832 38.4671L27.699 39.3181L26.566 38.4681L27.699 37.6181V37.6171ZM35.125 37.6171L36.258 38.4671L35.123 39.3201L33.99 38.4691L35.125 37.6171ZM37.598 37.6171L38.73 38.4691L37.598 39.3191L36.465 38.4671L37.598 37.6171ZM40.072 37.6171L41.207 38.4711L40.077 39.3211L38.941 38.4671L40.072 37.6171ZM15.324 37.6191L16.457 38.4691L15.327 39.3191L14.193 38.4691L15.324 37.6191ZM32.65 37.6191L33.781 38.4691L32.648 39.3191L31.518 38.4691L32.65 37.6191ZM11.613 38.5451L12.748 39.3961L11.615 40.2481L10.48 39.3961L11.613 38.5451ZM19.039 38.5451L20.172 39.3961L19.039 40.2481L17.904 39.3961L19.039 38.5451ZM23.989 38.5451L25.121 39.3981L23.988 40.2501L22.854 39.3981L23.988 38.5451H23.989ZM28.936 38.5451L30.07 39.3961L28.936 40.2481L27.801 39.3961L28.936 38.5451ZM36.361 38.5451L37.494 39.3961L36.359 40.2481L35.227 39.3961L36.361 38.5451ZM6.66598 38.5471L7.79598 39.3971L6.66398 40.2471L5.53398 39.3971L6.66598 38.5471ZM9.14098 38.5471L10.271 39.3971L9.13698 40.2501L8.00598 39.4001L9.14098 38.5471ZM14.088 38.5471L15.221 39.3981L14.088 40.2481L12.955 39.3981L14.088 38.5471ZM16.561 38.5471L17.693 39.3981L16.563 40.2461L15.43 39.3961L16.56 38.5461L16.561 38.5471ZM21.514 38.5471L22.648 39.3981L21.516 40.2481L20.381 39.3981L21.514 38.5471ZM26.461 38.5471L27.594 39.3981L26.461 40.2481L25.328 39.3981L26.461 38.5471ZM31.414 38.5471L32.544 39.3971L31.412 40.2471L30.282 39.3981L31.414 38.5471ZM33.887 38.5471L35.02 39.3981L33.887 40.2481L32.754 39.3981L33.887 38.5471ZM38.834 38.5471L39.969 39.4001L38.838 40.2501L37.703 39.3961L38.834 38.5461V38.5471ZM41.309 38.5471L42.441 39.3971L41.311 40.2471L40.178 39.3971L41.308 38.5471H41.309ZM10.375 39.4751L11.51 40.3261L10.375 41.1801L9.23998 40.3261L10.375 39.4751ZM12.852 39.4751L13.984 40.3261L12.852 41.1781L11.719 40.3261L12.852 39.4751ZM20.277 39.4751L21.41 40.3261L20.277 41.1781L19.145 40.3281L20.277 39.4751ZM22.75 39.4751L23.885 40.3261L22.752 41.1781L21.617 40.3261L22.75 39.4751ZM25.225 39.4751L26.357 40.3261L25.223 41.1781L24.09 40.3261L25.225 39.4751ZM27.697 39.4751L28.83 40.3281L27.697 41.1781L26.563 40.3261L27.697 39.4751ZM35.123 39.4751L36.256 40.3261L35.123 41.1781L33.99 40.3261L35.123 39.4751ZM37.6 39.4751L38.734 40.3261L37.6 41.1801L36.465 40.3261L37.6 39.4751ZM7.90398 39.4771L9.03498 40.3271L7.90198 41.1761L6.77198 40.3261L7.90398 39.4761V39.4771ZM15.324 39.4771L16.457 40.3271L15.324 41.1761L14.191 40.3261L15.324 39.4761V39.4771ZM17.799 39.4771L18.932 40.3281L17.801 41.1781L16.668 40.3261L17.798 39.4761L17.799 39.4771ZM30.176 39.4771L31.306 40.3271L30.174 41.1771L29.043 40.3281L30.176 39.4771ZM32.65 39.4771L33.783 40.3271L32.65 41.1761L31.518 40.3261L32.65 39.4761V39.4771ZM40.07 39.4771L41.203 40.3271L40.073 41.1761L38.939 40.3261L40.07 39.4761V39.4771ZM9.13898 40.4041L10.273 41.2561L9.14098 42.1071L8.00598 41.2541L9.13898 40.4041ZM11.615 40.4041L12.748 41.2561L11.613 42.1071L10.48 41.2571L11.615 40.4041ZM14.088 40.4041L15.221 41.2541L14.088 42.1051L12.955 41.2551L14.088 40.4051V40.4041ZM16.563 40.4041L17.695 41.2561L16.562 42.1071L15.43 41.2561L16.563 40.4041ZM21.513 40.4041L22.648 41.2561L21.514 42.1071L20.379 41.2561L21.514 40.4041H21.513ZM23.988 40.4041L25.121 41.2561L23.988 42.1061L22.855 41.2561L23.988 40.4041ZM26.461 40.4041L27.596 41.2561L26.461 42.1071L25.326 41.2561L26.461 40.4041ZM31.412 40.4041L32.545 41.2561L31.412 42.1071L30.279 41.2561L31.412 40.4041ZM33.887 40.4041L35.02 41.2561L33.887 42.1061L32.754 41.2541L33.887 40.4041ZM36.359 40.4041L37.494 41.2581L36.361 42.1081L35.227 41.2561L36.359 40.4041ZM38.836 40.4041L39.969 41.2541L38.834 42.1071L37.701 41.2561L38.836 40.4041ZM6.66398 40.4061L7.79698 41.2561L6.66398 42.1061L5.53398 41.2561L6.66398 40.4061ZM41.311 40.4061L42.441 41.2561L41.311 42.1061L40.178 41.2561L41.311 40.4061ZM19.037 40.4081L20.17 41.2581L19.04 42.1081L17.906 41.2561L19.037 40.4081ZM28.937 40.4081L30.068 41.2561L28.936 42.1071L27.805 41.2571L28.938 40.4081H28.937Z" fill="#333333"/>
</svg>
