<svg width="48" height="48" viewBox="0 0 48 48" fill="none" xmlns="http://www.w3.org/2000/svg">
<path fill-rule="evenodd" clip-rule="evenodd" d="M23.9999 13.0396C15.965 13.0395 9.35119 19.0838 8.43163 26.8715C7.14723 27.4452 6.44439 28.0795 6.43747 28.727C5.99996 34.9145 14.2849 34.9458 23.9843 34.9458C33.6837 34.9458 41.9998 34.9146 41.5625 28.727C41.5568 28.0798 40.849 27.4466 39.5684 26.8734C38.6497 19.085 32.0354 13.0397 24.0001 13.0397L23.9999 13.0396ZM23.9999 13.5512C32.3814 13.5512 39.1758 20.3457 39.1758 28.7272C39.1725 28.8015 39.1686 28.8756 39.1641 28.9498C39.2095 29.3988 39.6616 29.2392 39.6797 28.9498C39.6829 28.8756 39.6855 28.8015 39.6876 28.7272C39.6876 28.2523 39.6586 27.7851 39.6172 27.321C40.5407 27.7646 41.0476 28.2421 41.0489 28.7272C41.0489 30.6861 33.4165 32.2742 24.0021 32.2741C14.5873 32.2742 6.95528 30.6861 6.95528 28.7272C6.96209 28.2456 7.46597 27.7716 8.38299 27.3307C8.34224 27.7916 8.31268 28.2556 8.31268 28.7272C8.31606 28.8015 8.31997 28.8756 8.3244 28.9498C8.33144 29.2528 8.84129 29.31 8.83222 28.9498C8.82907 28.8756 8.82646 28.8015 8.8244 28.7272C8.8244 20.3457 15.6189 13.5512 24.0003 13.5512H23.9999Z" fill="#333333"/>
</svg>
