<svg width="48" height="48" viewBox="0 0 48 48" fill="none" xmlns="http://www.w3.org/2000/svg">
<path fill-rule="evenodd" clip-rule="evenodd" d="M34 8H14C10.6863 8 8 10.6863 8 14V34C8 37.3137 10.6863 40 14 40H34C37.3137 40 40 37.3137 40 34V14C40 10.6863 37.3137 8 34 8ZM14 6C9.58172 6 6 9.58172 6 14V34C6 38.4183 9.58172 42 14 42H34C38.4183 42 42 38.4183 42 34V14C42 9.58172 38.4183 6 34 6H14Z" fill="#333333"/>
<path fill-rule="evenodd" clip-rule="evenodd" d="M29.9 16.1H18.1C16.9954 16.1 16.1 16.9954 16.1 18.1V29.9C16.1 31.0046 16.9954 31.9 18.1 31.9H29.9C31.0046 31.9 31.9 31.0046 31.9 29.9V18.1C31.9 16.9954 31.0046 16.1 29.9 16.1ZM18.1 14.1C15.8909 14.1 14.1 15.8909 14.1 18.1V29.9C14.1 32.1091 15.8909 33.9 18.1 33.9H29.9C32.1091 33.9 33.9 32.1091 33.9 29.9V18.1C33.9 15.8909 32.1091 14.1 29.9 14.1H18.1Z" fill="#333333"/>
<path d="M21.3 18.6C21.3 19.0971 20.8971 19.5 20.4 19.5C19.9029 19.5 19.5 19.0971 19.5 18.6C19.5 18.1029 19.9029 17.7 20.4 17.7C20.8971 17.7 21.3 18.1029 21.3 18.6Z" fill="#333333"/>
<path d="M23.1 21.3C23.1 21.7971 22.6971 22.2 22.2 22.2C21.7029 22.2 21.3 21.7971 21.3 21.3C21.3 20.8029 21.7029 20.4 22.2 20.4C22.6971 20.4 23.1 20.8029 23.1 21.3Z" fill="#333333"/>
<path d="M19.5 21.3C19.5 21.7971 19.0971 22.2 18.6 22.2C18.1029 22.2 17.7 21.7971 17.7 21.3C17.7 20.8029 18.1029 20.4 18.6 20.4C19.0971 20.4 19.5 20.8029 19.5 21.3Z" fill="#333333"/>
<path d="M21.3 24C21.3 24.4971 20.8971 24.9 20.4 24.9C19.9029 24.9 19.5 24.4971 19.5 24C19.5 23.5029 19.9029 23.1 20.4 23.1C20.8971 23.1 21.3 23.5029 21.3 24Z" fill="#333333"/>
<path d="M23.1 26.7C23.1 27.1971 22.6971 27.6 22.2 27.6C21.7029 27.6 21.3 27.1971 21.3 26.7C21.3 26.2029 21.7029 25.8 22.2 25.8C22.6971 25.8 23.1 26.2029 23.1 26.7Z" fill="#333333"/>
<path d="M19.5 26.7C19.5 27.1971 19.0971 27.6 18.6 27.6C18.1029 27.6 17.7 27.1971 17.7 26.7C17.7 26.2029 18.1029 25.8 18.6 25.8C19.0971 25.8 19.5 26.2029 19.5 26.7Z" fill="#333333"/>
<path d="M21.3 29.4C21.3 29.8971 20.8971 30.3 20.4 30.3C19.9029 30.3 19.5 29.8971 19.5 29.4C19.5 28.9029 19.9029 28.5 20.4 28.5C20.8971 28.5 21.3 28.9029 21.3 29.4Z" fill="#333333"/>
<path d="M24.9 18.6C24.9 19.0971 24.4971 19.5 24 19.5C23.5029 19.5 23.1 19.0971 23.1 18.6C23.1 18.1029 23.5029 17.7 24 17.7C24.4971 17.7 24.9 18.1029 24.9 18.6Z" fill="#333333"/>
<path d="M26.7 21.3C26.7 21.7971 26.2971 22.2 25.8 22.2C25.3029 22.2 24.9 21.7971 24.9 21.3C24.9 20.8029 25.3029 20.4 25.8 20.4C26.2971 20.4 26.7 20.8029 26.7 21.3Z" fill="#333333"/>
<path d="M24.9 24C24.9 24.4971 24.4971 24.9 24 24.9C23.5029 24.9 23.1 24.4971 23.1 24C23.1 23.5029 23.5029 23.1 24 23.1C24.4971 23.1 24.9 23.5029 24.9 24Z" fill="#333333"/>
<path d="M26.7 26.7C26.7 27.1971 26.2971 27.6 25.8 27.6C25.3029 27.6 24.9 27.1971 24.9 26.7C24.9 26.2029 25.3029 25.8 25.8 25.8C26.2971 25.8 26.7 26.2029 26.7 26.7Z" fill="#333333"/>
<path d="M24.9 29.4C24.9 29.8971 24.4971 30.3 24 30.3C23.5029 30.3 23.1 29.8971 23.1 29.4C23.1 28.9029 23.5029 28.5 24 28.5C24.4971 28.5 24.9 28.9029 24.9 29.4Z" fill="#333333"/>
<path d="M28.5 18.6C28.5 19.0971 28.0971 19.5 27.6 19.5C27.1029 19.5 26.7 19.0971 26.7 18.6C26.7 18.1029 27.1029 17.7 27.6 17.7C28.0971 17.7 28.5 18.1029 28.5 18.6Z" fill="#333333"/>
<path d="M30.3 21.3C30.3 21.7971 29.8971 22.2 29.4 22.2C28.9029 22.2 28.5 21.7971 28.5 21.3C28.5 20.8029 28.9029 20.4 29.4 20.4C29.8971 20.4 30.3 20.8029 30.3 21.3Z" fill="#333333"/>
<path d="M28.5 24C28.5 24.4971 28.0971 24.9 27.6 24.9C27.1029 24.9 26.7 24.4971 26.7 24C26.7 23.5029 27.1029 23.1 27.6 23.1C28.0971 23.1 28.5 23.5029 28.5 24Z" fill="#333333"/>
<path d="M30.3 26.7C30.3 27.1971 29.8971 27.6 29.4 27.6C28.9029 27.6 28.5 27.1971 28.5 26.7C28.5 26.2029 28.9029 25.8 29.4 25.8C29.8971 25.8 30.3 26.2029 30.3 26.7Z" fill="#333333"/>
<path d="M28.5 29.4C28.5 29.8971 28.0971 30.3 27.6 30.3C27.1029 30.3 26.7 29.8971 26.7 29.4C26.7 28.9029 27.1029 28.5 27.6 28.5C28.0971 28.5 28.5 28.9029 28.5 29.4Z" fill="#333333"/>
</svg>
