<svg width="48" height="48" viewBox="0 0 48 48" fill="none" xmlns="http://www.w3.org/2000/svg">
<path opacity="0.95" fill-rule="evenodd" clip-rule="evenodd" d="M5.50798 5.51611V5.79911L5.88298 5.51811H6.08998L5.52698 5.93911L6.65998 6.79111L7.79498 5.93911L7.23498 5.51811H7.44298L7.89998 5.86111L8.35698 5.51811H8.56798L8.00598 5.93911L9.13598 6.79111L10.27 5.93911L9.70898 5.51811H9.91898L10.375 5.85911L10.832 5.51811H11.043L10.483 5.93911L11.615 6.79111L12.748 5.93911L12.188 5.51811H12.395L12.852 5.86111L13.309 5.51811H13.518L12.957 5.93911L14.087 6.79111L15.221 5.93911L14.661 5.51811H14.869L15.326 5.86111L15.783 5.51811H15.99L15.43 5.93911L16.564 6.79111L17.697 5.93911L17.135 5.51811H17.344L17.801 5.86111L18.258 5.51811H18.465L17.905 5.93911L19.039 6.79111L20.172 5.93911L19.609 5.51811H19.816L20.276 5.86111L20.732 5.51811H20.943L20.379 5.94111L21.512 6.79111L22.645 5.93911L22.084 5.51811H22.294L22.75 5.85911L23.205 5.51811H23.416L22.856 5.93911L23.988 6.78911L25.119 5.93911L24.559 5.51811H24.769L25.225 5.85911L25.68 5.51811H25.89L25.33 5.93911L26.465 6.79111L27.594 5.94111L27.031 5.51811H27.242L27.699 5.86111L28.159 5.51811H28.365L27.803 5.93911L28.937 6.79111L30.07 5.93911L29.51 5.51811H29.717L30.174 5.86111L30.631 5.51811H30.84L30.277 5.93911L31.41 6.79111L32.545 5.93911L31.985 5.51811H32.191L32.648 5.86111L33.105 5.51811H33.315L32.754 5.93911L33.887 6.79111L35.017 5.93911L34.457 5.51811H34.666L35.123 5.86111L35.58 5.51811H35.787L35.227 5.93911L36.359 6.79111L37.492 5.93911L36.932 5.51811H37.142L37.6 5.85911L38.055 5.51811H38.265L37.705 5.93911L38.838 6.79111L39.968 5.93911L39.406 5.51811H39.617L40.074 5.86111L40.531 5.51811H40.741L40.18 5.93911L41.314 6.79111L42.447 5.93911L41.885 5.51811H42.092L42.467 5.79811V5.51611H5.50698H5.50798ZM12.852 6.01811L11.719 6.86911L12.852 7.71911L13.984 6.86711L12.852 6.01711V6.01811ZM15.326 6.01811L14.193 6.86811L15.326 7.71811L16.459 6.86911L15.326 6.01811ZM17.801 6.01811L16.668 6.86811L17.801 7.71811L18.934 6.86911L17.801 6.01811ZM20.277 6.01811L19.143 6.86911L20.273 7.71911L21.406 6.86711L20.277 6.01711V6.01811ZM22.75 6.01811L21.617 6.86911L22.748 7.71911L23.883 6.86911L22.75 6.01811ZM25.225 6.01811L24.094 6.86911L25.227 7.71911L26.359 6.86911L25.225 6.01811ZM27.699 6.01811L26.566 6.86811L27.701 7.71811L28.832 6.86911L27.699 6.01811ZM30.174 6.01811L29.041 6.86911L30.174 7.71911L31.307 6.86711L30.174 6.01711V6.01811ZM32.648 6.01811L31.516 6.86911L32.648 7.71911L33.781 6.86711L32.648 6.01711V6.01811ZM35.123 6.01811L33.99 6.86811L35.123 7.71811L36.256 6.86911L35.123 6.01811ZM7.90298 6.02011L6.76798 6.87111L7.89798 7.72111L9.03298 6.86911L7.90298 6.01911V6.02011ZM10.377 6.02011L9.24398 6.87011L10.377 7.72011L11.51 6.87011L10.377 6.02011ZM37.597 6.02011L36.465 6.87011L37.598 7.72011L38.73 6.87011L37.598 6.02011H37.597ZM40.072 6.02011L38.942 6.87011L40.076 7.72011L41.207 6.87111L40.072 6.02011ZM5.50798 6.07811V7.65611L6.55798 6.86711L5.50798 6.07811ZM42.467 6.07811L41.416 6.86811L42.466 7.65611V6.07811H42.467ZM14.087 6.94511L12.955 7.79711L14.09 8.64811L15.223 7.79711L14.088 6.94511H14.087ZM33.887 6.94511L32.752 7.79711L33.885 8.64811L35.02 7.79711L33.887 6.94511ZM6.66598 6.94711L5.53298 7.79711L6.66398 8.64811L7.79698 7.79711L6.66598 6.94711ZM9.13898 6.94711L8.00398 7.80111L9.13698 8.65111L10.271 7.79911L9.13898 6.94711ZM11.613 6.94711L10.48 7.80011L11.613 8.65111L12.746 7.80011L11.613 6.94811V6.94711ZM16.563 6.94711L15.43 7.79711L16.564 8.64811L17.697 7.79811L16.563 6.94811V6.94711ZM19.039 6.94711L17.906 7.79911L19.037 8.64911L20.17 7.79711L19.04 6.94711H19.039ZM21.512 6.94711L20.379 7.79911L21.512 8.64911L22.645 7.79711L21.512 6.94711ZM23.988 6.94711L22.854 7.79911L23.988 8.65011L25.121 7.79911L23.988 6.94711ZM26.461 6.94711L25.331 7.79711L26.463 8.64811L27.596 7.79811L26.461 6.94811V6.94711ZM28.936 6.94711L27.805 7.79711L28.938 8.64811L30.068 7.79811L28.936 6.94811V6.94711ZM31.412 6.94711L30.277 7.79911L31.41 8.64911L32.545 7.79711L31.412 6.94711ZM36.362 6.94711L35.229 7.79911L36.361 8.65011L37.494 7.79911L36.361 6.94711H36.362ZM38.836 6.94711L37.703 7.79911L38.838 8.65011L39.971 7.80011L38.836 6.94711ZM41.309 6.94711L40.178 7.79711L41.311 8.64811L42.441 7.79711L41.309 6.94711ZM15.326 7.87511L14.193 8.72711L15.326 9.57811L16.461 8.72711L15.326 7.87511ZM32.648 7.87511L31.516 8.72711L32.648 9.57811L33.781 8.72711L32.648 7.87511ZM7.90198 7.87711L6.77198 8.72711L7.90198 9.57811L9.03498 8.72711L7.90198 7.87711ZM10.377 7.87711L9.24198 8.72911L10.373 9.58011L11.508 8.72911L10.377 7.87711ZM12.85 7.87711L11.717 8.72711L12.852 9.57811L13.984 8.72811L12.85 7.87711ZM17.8 7.87711L16.668 8.72911L17.801 9.57911L18.934 8.72711L17.801 7.87711H17.8ZM20.275 7.87711L19.143 8.72711L20.275 9.57811L21.408 8.72711L20.275 7.87711ZM22.75 7.87711L21.617 8.72911L22.75 9.58011L23.883 8.72911L22.75 7.87711ZM25.225 7.87711L24.09 8.72911L25.225 9.58011L26.357 8.72911L25.225 7.87711ZM27.699 7.87711L26.566 8.72711L27.699 9.57811L28.832 8.72711L27.699 7.87711ZM30.172 7.87711L29.043 8.72711L30.176 9.57811L31.305 8.72811L30.172 7.87711ZM35.125 7.87711L33.99 8.72911L35.123 9.57911L36.258 8.72711L35.125 7.87711ZM37.598 7.87711L36.467 8.72911L37.602 9.58011L38.732 8.72911L37.598 7.87711ZM40.072 7.87711L38.939 8.72711L40.072 9.57811L41.203 8.72711L40.073 7.87711H40.072ZM5.50798 7.93711V9.51611L6.55798 8.72611L5.50798 7.93711ZM42.467 7.93711L41.416 8.72711L42.466 9.51611V7.93711H42.467ZM6.66598 8.80711L5.53098 9.65811L6.66398 10.5081L7.79998 9.65611L6.66698 8.80611L6.66598 8.80711ZM9.14098 8.80711L8.00798 9.65711L9.14098 10.5071L10.271 9.65711L9.14098 8.80711ZM11.613 8.80711L10.479 9.65811L11.611 10.5101L12.746 9.65811L11.613 8.80711ZM14.088 8.80711L12.955 9.65711L14.088 10.5071L15.221 9.65811L14.088 8.80711ZM16.564 8.80711L15.432 9.65811L16.562 10.5061L17.695 9.65611L16.565 8.80611L16.564 8.80711ZM19.039 8.80711L17.906 9.65711L19.037 10.5071L20.17 9.65711L19.04 8.80711H19.039ZM21.514 8.80711L20.381 9.65711L21.514 10.5071L22.646 9.65811L21.514 8.80711ZM23.988 8.80711L22.854 9.65711L23.988 10.5071L25.121 9.65711L23.988 8.80711ZM26.461 8.80711L25.328 9.65811L26.461 10.5081L27.594 9.65611L26.461 8.80611V8.80711ZM28.938 8.80711L27.805 9.65711L28.938 10.5071L30.07 9.65711L28.937 8.80711H28.938ZM31.41 8.80711L30.28 9.65711L31.412 10.5061L32.543 9.65811L31.41 8.80711ZM33.887 8.80711L32.754 9.65811L33.887 10.5081L35.02 9.65611L33.887 8.80611V8.80711ZM36.361 8.80711L35.229 9.65811L36.363 10.5101L37.496 9.65811L36.361 8.80711ZM38.834 8.80711L37.704 9.65711L38.834 10.5071L39.967 9.65711L38.834 8.80711ZM41.309 8.80711L40.176 9.65711L41.311 10.5071L42.443 9.65811L41.309 8.80711ZM10.377 9.73411L9.24398 10.5861L10.377 11.4371L11.51 10.5861L10.377 9.73411ZM12.85 9.73411L11.715 10.5881L12.85 11.4391L13.984 10.5881L12.85 9.73411ZM17.8 9.73411L16.668 10.5861L17.801 11.4371L18.934 10.5861L17.801 9.73411H17.8ZM22.75 9.73411L21.617 10.5861L22.75 11.4371L23.883 10.5861L22.75 9.73411ZM25.225 9.73411L24.092 10.5861L25.225 11.4371L26.357 10.5861L25.225 9.73411ZM30.174 9.73411L29.041 10.5861L30.174 11.4371L31.307 10.5861L30.174 9.73411ZM35.125 9.73411L33.99 10.5881L35.125 11.4391L36.26 10.5881L35.125 9.73411ZM37.598 9.73411L36.465 10.5861L37.598 11.4371L38.73 10.5861L37.598 9.73411ZM7.90198 9.73611L6.76798 10.5881L7.89998 11.4381L9.03498 10.5861L7.90198 9.73611ZM15.326 9.73611L14.193 10.5881L15.324 11.4381L16.457 10.5861L15.327 9.73611H15.326ZM20.276 9.73611L19.143 10.5861L20.277 11.4371L21.41 10.5861L20.275 9.73611H20.276ZM27.699 9.73611L26.566 10.5861L27.699 11.4371L28.832 10.5861L27.699 9.73611ZM32.649 9.73611L31.518 10.5861L32.65 11.4371L33.781 10.5871L32.648 9.73711L32.649 9.73611ZM40.072 9.73611L38.939 10.5861L40.074 11.4371L41.207 10.5871L40.072 9.73711V9.73611ZM5.50798 9.80011V11.3781L6.55798 10.5881L5.50798 9.80011ZM42.467 9.80011L41.416 10.5891L42.466 11.3781V9.79911L42.467 9.80011ZM9.13898 10.6651L8.00398 11.5171L9.13898 12.3681L10.271 11.5171L9.13898 10.6651ZM11.613 10.6651L10.48 11.5151L11.615 12.3681L12.005 12.0751V12.0171H12.082L12.748 11.5171L11.613 10.6651ZM19.039 10.6651L17.906 11.5171L18.572 12.0171H19.506L20.172 11.5171L19.039 10.6651ZM21.512 10.6651L20.379 11.5171L21.047 12.0171H21.98L22.646 11.5171L21.512 10.6651ZM23.988 10.6651L22.855 11.5171L23.521 12.0171H24.453L25.121 11.5171L23.988 10.6651ZM26.461 10.6651L25.328 11.5171L25.994 12.0171H26.928L27.594 11.5171L26.461 10.6651ZM28.936 10.6651L27.803 11.5171L28.469 12.0171H29.402L30.068 11.5171L28.936 10.6651ZM36.361 10.6651L35.227 11.5171L35.893 12.0171H35.969V12.0751L36.359 12.3681L37.494 11.5151L36.361 10.6651ZM38.836 10.6651L37.703 11.5171L38.836 12.3681L39.971 11.5171L38.836 10.6651ZM6.66198 10.6671L5.53198 11.5191L6.66198 12.3691L7.79498 11.5191L6.66198 10.6671ZM14.09 10.6671L12.955 11.5191L13.617 12.0171H14.553L15.219 11.5171L14.089 10.6671H14.09ZM16.563 10.6671L15.43 11.5171L16.096 12.0171H17.029L17.695 11.5171L16.562 10.6671H16.563ZM31.413 10.6671L30.279 11.5171L30.945 12.0171H31.879L32.545 11.5171L31.412 10.6671H31.413ZM33.887 10.6671L32.754 11.5171L33.422 12.0171H34.357L35.02 11.5191L33.887 10.6671ZM41.312 10.6671L40.18 11.5191L41.313 12.3691L42.443 11.5191L41.313 10.6671H41.312ZM10.377 11.5951L9.24198 12.4461L10.377 13.2981L11.51 12.4461L10.377 11.5951ZM12.854 11.5951L12.291 12.0171H13.414L12.854 11.5951ZM15.324 11.5951L14.764 12.0171H15.887L15.324 11.5951ZM20.275 11.5951L19.713 12.0171H20.838L20.275 11.5951ZM22.75 11.5951L22.187 12.0171H23.312L22.75 11.5951ZM25.225 11.5951L24.662 12.0171H25.787L25.225 11.5951ZM27.699 11.5951L27.137 12.0171H28.262L27.699 11.5951ZM32.649 11.5951L32.088 12.0171H33.211L32.648 11.5951H32.649ZM35.121 11.5951L34.561 12.0171H35.684L35.121 11.5951ZM37.598 11.5951L36.465 12.4461L37.598 13.2981L38.732 12.4461L37.598 11.5951ZM7.89998 11.5961L6.76798 12.4461L7.89998 13.2961L9.03298 12.4471L7.89998 11.5961ZM17.8 11.5961L17.24 12.0161H18.361L17.801 11.5961H17.8ZM30.174 11.5961L29.614 12.0161H30.734L30.174 11.5961ZM40.074 11.5961L38.941 12.4471L40.074 13.2971L41.207 12.4451L40.074 11.5951V11.5961ZM5.50798 11.6561V13.2341L6.55798 12.4451L5.50798 11.6561ZM42.467 11.6561L41.416 12.4461L42.466 13.2341V11.6561H42.467ZM12.006 12.2301L11.721 12.4451L12.006 12.6601V12.2301ZM35.969 12.2301V12.6601L36.254 12.4451L35.969 12.2301ZM6.66198 12.5231L5.53198 13.3751L6.66398 14.2271L7.79698 13.3751L6.66198 12.5231ZM9.13698 12.5231L8.00398 13.3751L9.13898 14.2271L10.271 13.3771L9.13698 12.5231ZM38.837 12.5231L37.703 13.3771L38.836 14.2271L39.971 13.3751L38.838 12.5231H38.837ZM41.312 12.5231L40.178 13.3751L41.311 14.2271L42.443 13.3751L41.313 12.5231H41.312ZM11.615 12.5251L10.482 13.3771L11.612 14.2251L12.006 13.9301V12.8181L11.616 12.5251H11.615ZM36.359 12.5251L35.969 12.8181V13.9301L36.363 14.2251L37.493 13.3771L36.359 12.5251ZM13.381 13.3911V13.5551L13.598 13.3931H13.717L13.381 13.6451V13.7711L13.789 14.3141L14.412 13.8461L14.072 13.3931H14.164L14.473 13.8031L15.018 13.3931H15.23L15.666 13.9731L16.291 13.5031L16.207 13.3931H16.295L16.345 13.4611L16.438 13.3931H16.558L16.391 13.5201L16.859 14.1451L17.484 13.6741L17.274 13.3931H17.364L17.543 13.6311L17.859 13.3931H17.979L17.586 13.6871L18.055 14.3131L18.678 13.8431L18.34 13.3931H18.43L18.736 13.8011L19.279 13.3931H19.399L18.779 13.8571L19.248 14.4821L19.873 14.0141L19.406 13.3931H19.496L19.93 13.9711L20.555 13.5021L20.473 13.3921H20.564L20.614 13.4571L20.699 13.3931H20.819L20.656 13.5131L21.125 14.1391L21.748 13.6721L21.539 13.3921H21.631L21.807 13.6271L22.119 13.3931H22.24L21.852 13.6861L22.318 14.3091L22.943 13.8391L22.607 13.3931H22.697L23 13.7971L23.54 13.3931H23.66L23.045 13.8551L23.514 14.4791L24.137 14.0091L23.674 13.3931H23.762L24.193 13.9671L24.818 13.4981L24.74 13.3931H24.83L24.877 13.4551L24.959 13.3931H25.08L24.92 13.5121L25.389 14.1371L26.014 13.6681L25.807 13.3931H25.897L26.07 13.6251L26.38 13.3931H26.5L26.113 13.6821L26.584 14.3071L27.207 13.8371L26.873 13.3931H26.965L27.265 13.7951L27.801 13.3931H27.92L27.309 13.8521L27.779 14.4771L28.402 14.0071L27.939 13.3931H28.029L28.459 13.9651L29.084 13.4951L29.008 13.3931H29.098L29.143 13.4511L29.221 13.3931H29.34L29.186 13.5101L29.654 14.1331L30.279 13.6641L30.074 13.3931H30.164L30.336 13.6211L30.641 13.3931H30.76L30.379 13.6781L30.848 14.3031L31.473 13.8341L31.141 13.3931H31.231L31.529 13.7911L32.061 13.3931H32.181L31.574 13.8501L32.043 14.4751L32.668 14.0051L32.207 13.3931H32.299L32.727 13.9611L33.35 13.4921L33.273 13.3921H33.365L33.408 13.4491L33.482 13.3931H33.602L33.452 13.5061L33.92 14.1311L34.545 13.6621L34.342 13.3921H34.432L34.594 13.6091V13.3911H13.38H13.381ZM15.139 13.3931L14.516 13.8611L14.984 14.4841L15.607 14.0161L15.139 13.3931ZM7.89998 13.4531L6.76798 14.3031L7.90198 15.1561L9.03498 14.3051L7.89998 13.4531ZM40.074 13.4531L38.939 14.3051L40.072 15.1561L41.207 14.3031L40.074 13.4531ZM10.377 13.4551L9.24398 14.3071L10.373 15.1541L11.506 14.3041L10.377 13.4551ZM37.597 13.4551L36.469 14.3051L37.602 15.1551L38.73 14.3071L37.598 13.4551H37.597ZM5.50698 13.5141V15.0941L6.56098 14.3041L5.50798 13.5141H5.50698ZM42.467 13.5141L41.414 14.3041L42.467 15.0941V13.5141ZM33.393 13.5511L32.77 14.0181L33.238 14.6431L33.861 14.1761L33.393 13.5511ZM29.127 13.5531L28.502 14.0211L28.971 14.6461L29.596 14.1761L29.127 13.5531ZM24.863 13.5571L24.236 14.0251L24.707 14.6501L25.332 14.1801L24.863 13.5571ZM20.598 13.5591L19.973 14.0271L20.441 14.6521L21.066 14.1841L20.598 13.5591ZM16.334 13.5611L15.709 14.0311L16.178 14.6541L16.803 14.1861L16.334 13.5611ZM34.586 13.7191L33.961 14.1881L34.43 14.8121L34.594 14.6891V13.7291L34.586 13.7191ZM30.322 13.7231L29.697 14.1911L30.166 14.8141L30.791 14.3461L30.322 13.7231ZM26.057 13.7251L25.432 14.1951L25.902 14.8181L26.525 14.3501L26.057 13.7251ZM21.791 13.7291L21.168 14.1971L21.637 14.8201L22.26 14.3541L21.791 13.7291ZM17.527 13.7301L16.902 14.2011L17.372 14.8261L17.996 14.3561L17.527 13.7301ZM13.381 13.8901V14.6211L13.732 14.3571L13.381 13.8911V13.8901ZM31.516 13.8931L30.893 14.3611L31.361 14.9861L31.984 14.5181L31.516 13.8931ZM27.25 13.8951L26.627 14.3631L27.096 14.9881L27.721 14.5201L27.25 13.8951ZM22.986 13.8981L22.363 14.3681L22.832 14.9901L23.455 14.5211L22.986 13.8981ZM18.721 13.9001L18.098 14.3701L18.566 14.9941L19.191 14.5251L18.721 13.9001ZM14.457 13.9041L13.832 14.3731L14.301 14.9961L14.926 14.5271L14.457 13.9041ZM32.711 14.0631L32.086 14.5311L32.555 15.1561L33.18 14.6871L32.71 14.0631H32.711ZM28.445 14.0641L27.822 14.5341L28.291 15.1581L28.914 14.6891L28.445 14.0641ZM24.182 14.0681L23.557 14.5381L24.025 15.1621L24.65 14.6931L24.182 14.0681ZM19.916 14.0701L19.291 14.5401L19.76 15.1641L20.385 14.6951L19.916 14.0701ZM15.65 14.0741L15.027 14.5431L15.497 15.1661L16.119 14.6991L15.65 14.0741ZM12.006 14.0901L11.719 14.3051L12.006 14.5211V14.0901ZM35.969 14.0901V14.5211L36.256 14.3051L35.969 14.0901ZM33.904 14.2301L33.279 14.7001L33.748 15.3241L34.373 14.8551L33.904 14.2301ZM29.641 14.2341L29.014 14.7041L29.482 15.3281L30.109 14.8591L29.641 14.2341ZM25.375 14.2381L24.75 14.7071L25.219 15.3321L25.844 14.8631L25.375 14.2381ZM21.109 14.2421L20.486 14.7111L20.956 15.3341L21.578 14.8651L21.109 14.2421ZM16.846 14.2441L16.221 14.7131L16.691 15.3361L17.314 14.8671L16.846 14.2441ZM6.66398 14.3811L5.53098 15.2321L6.66598 16.0861L7.79898 15.2341L6.66398 14.3811ZM41.311 14.3811L40.176 15.2341L41.309 16.0861L42.443 15.2321L41.311 14.3811ZM9.14098 14.3851L8.00798 15.2351L9.13698 16.0841L10.27 15.2321L9.13998 14.3851H9.14098ZM11.613 14.3851L10.48 15.2351L11.613 16.0851L12.006 15.7911V14.6801L11.613 14.3851ZM36.361 14.3851L35.969 14.6801V15.7911L36.361 16.0861L37.494 15.2341L36.361 14.3841V14.3851ZM38.834 14.3851L37.705 15.2321L38.838 16.0841L39.967 15.2341L38.834 14.3841V14.3851ZM30.834 14.4051L30.209 14.8731L30.679 15.4981L31.303 15.0291L30.834 14.4041V14.4051ZM26.568 14.4081L25.945 14.8771L26.415 15.5001L27.037 15.0311L26.568 14.4081ZM22.305 14.4101L21.682 14.8791L22.15 15.5041L22.773 15.0351L22.305 14.4101ZM18.039 14.4121L17.414 14.8821L17.883 15.5081L18.51 15.0381L18.04 14.4121H18.039ZM13.775 14.4161L13.381 14.7131V15.1931L13.619 15.5101L14.244 15.0401L13.775 14.4161ZM32.027 14.5741L31.404 15.0431L31.873 15.6681L32.498 15.1991L32.028 14.5741H32.027ZM27.764 14.5761L27.139 15.0461L27.607 15.6701L28.232 15.2011L27.764 14.5761ZM23.5 14.5801L22.875 15.0491L23.344 15.6741L23.969 15.2051L23.5 14.5801ZM19.234 14.5821L18.609 15.0511L19.079 15.6761L19.703 15.2071L19.234 14.5821ZM14.969 14.5861L14.346 15.0551L14.814 15.6801L15.437 15.2101L14.969 14.5861ZM33.221 14.7441L32.598 15.2131L33.066 15.8361L33.691 15.3671L33.221 14.7441ZM28.957 14.7461L28.334 15.2151L28.803 15.8401L29.426 15.3711L28.957 14.7461ZM24.693 14.7501L24.068 15.2191L24.538 15.8441L25.162 15.3751L24.693 14.7501ZM20.428 14.7541L19.805 15.2231L20.271 15.8461L20.896 15.3771L20.428 14.7541ZM16.162 14.7561L15.539 15.2251L16.008 15.8501L16.633 15.3801L16.163 14.7561H16.162ZM34.594 14.7791L34.474 14.8691L34.594 15.0291V14.7791ZM34.416 14.9141L33.793 15.3811L34.262 16.0081L34.594 15.7581V15.1501L34.416 14.9141ZM30.152 14.9161L29.527 15.3861L29.997 16.0121L30.621 15.5411L30.152 14.9161ZM25.887 14.9201L25.262 15.3891L25.73 16.0141L26.355 15.5441L25.887 14.9201ZM21.623 14.9241L20.998 15.3931L21.467 16.0161L22.092 15.5461L21.623 14.9241ZM17.357 14.9261L16.734 15.3951L17.204 16.0181L17.826 15.5481L17.357 14.9261ZM31.346 15.0861L30.723 15.5551L31.191 16.1801L31.816 15.7101L31.346 15.0861ZM27.08 15.0901L26.457 15.5591L26.926 16.1841L27.551 15.7131L27.081 15.0901H27.08ZM22.816 15.0941L22.193 15.5611L22.663 16.1861L23.285 15.7161L22.816 15.0941ZM18.553 15.0961L17.926 15.5641L18.396 16.1891L19.021 15.7191L18.553 15.0961ZM14.287 15.0981L13.662 15.5681L14.131 16.1911L14.756 15.7231L14.287 15.0981ZM32.539 15.2561L31.916 15.7251L32.385 16.3501L33.01 15.8801L32.54 15.2561H32.539ZM28.275 15.2601L27.65 15.7291L28.12 16.3521L28.744 15.8821L28.275 15.2601ZM24.012 15.2621L23.387 15.7301L23.855 16.3551L24.48 15.8871L24.012 15.2621ZM19.746 15.2661L19.123 15.7341L19.59 16.3571L20.215 15.8891L19.746 15.2661ZM15.48 15.2681L14.857 15.7361L15.327 16.3611L15.949 15.8931L15.48 15.2681ZM7.90398 15.3121L6.76998 16.1641L7.89998 17.0141L9.03298 16.1621L7.90398 15.3121ZM10.377 15.3121L9.24398 16.1641L10.377 17.0141L11.51 16.1641L10.377 15.3121ZM13.381 15.3121V15.6881L13.561 15.5531L13.381 15.3131V15.3121ZM37.598 15.3121L36.465 16.1641L37.598 17.0141L38.73 16.1641L37.598 15.3121ZM40.07 15.3121L38.941 16.1621L40.074 17.0141L41.205 16.1641L40.07 15.3121ZM5.50798 15.3731V16.9551L6.56098 16.1651L5.50798 15.3731ZM42.467 15.3731L41.414 16.1641L42.467 16.9551V15.3731ZM33.734 15.4261L33.109 15.8951L33.579 16.5201L34.203 16.0501L33.734 15.4261ZM29.469 15.4301L28.846 15.8981L29.314 16.5211L29.939 16.0551L29.469 15.4301ZM25.205 15.4321L24.58 15.9001L25.05 16.5251L25.674 16.0571L25.205 15.4321ZM20.941 15.4361L20.316 15.9041L20.786 16.5271L21.408 16.0591L20.941 15.4361ZM16.676 15.4381L16.053 15.9061L16.521 16.5311L17.145 16.0631L16.675 15.4381H16.676ZM30.664 15.5981L30.039 16.0681L30.508 16.6931L31.135 16.2231L30.665 15.5981H30.664ZM26.398 15.6021L25.773 16.0701L26.243 16.6951L26.869 16.2271L26.399 15.6021H26.398ZM22.135 15.6051L21.51 16.0751L21.979 16.6991L22.604 16.2301L22.134 15.6051H22.135ZM17.869 15.6071L17.246 16.0771L17.715 16.7011L18.34 16.2321L17.87 15.6071H17.869ZM13.605 15.6111L13.381 15.7791V16.6131L13.449 16.7051L14.074 16.2351L13.605 15.6111ZM31.857 15.7681L31.234 16.2361L31.704 16.8611L32.326 16.3931L31.857 15.7681ZM27.594 15.7711L26.969 16.2411L27.437 16.8651L28.062 16.3961L27.594 15.7711ZM23.328 15.7751L22.705 16.2421L23.174 16.8671L23.797 16.4001L23.328 15.7751ZM19.064 15.7771L18.439 16.2481L18.909 16.8711L19.533 16.4011L19.064 15.7771ZM14.801 15.7791L14.174 16.2501L14.643 16.8751L15.27 16.4051L14.8 15.7791H14.801ZM34.594 15.8481L34.304 16.0641L34.594 16.4491V15.8481ZM33.053 15.9381L32.428 16.4061L32.896 17.0311L33.521 16.5631L33.053 15.9381ZM28.787 15.9411L28.164 16.4111L28.633 17.0351L29.256 16.5661L28.787 15.9411ZM24.523 15.9431L23.898 16.4131L24.368 17.0371L24.992 16.5681L24.523 15.9431ZM20.258 15.9471L19.635 16.4161L20.104 17.0411L20.727 16.5711L20.257 15.9471H20.258ZM12.006 15.9491L11.719 16.1641L12.006 16.3811V15.9491ZM15.994 15.9491L15.369 16.4181L15.838 17.0431L16.463 16.5741L15.994 15.9491ZM35.969 15.9491V16.3811L36.256 16.1641L35.969 15.9491ZM34.246 16.1071L33.623 16.5781L34.092 17.2011L34.594 16.8241V16.5701L34.246 16.1071ZM29.982 16.1111L29.357 16.5811L29.828 17.2051L30.451 16.7361L29.982 16.1111ZM25.717 16.1131L25.094 16.5821L25.562 17.2071L26.186 16.7381L25.716 16.1131H25.717ZM21.453 16.1171L20.828 16.5861L21.297 17.2111L21.922 16.7421L21.453 16.1171ZM17.188 16.1191L16.564 16.5881L17.034 17.2131L17.656 16.7441L17.188 16.1191ZM6.66598 16.2421L5.53098 17.0961L6.66098 17.9431L7.79498 17.0921L6.66598 16.2421ZM9.14098 16.2421L8.00598 17.0941L9.13898 17.9441L10.273 17.0921L9.14098 16.2421ZM11.613 16.2421L10.483 17.0941L11.613 17.9441L12.006 17.6481V16.5381L11.613 16.2421ZM36.361 16.2421L35.969 16.5371V17.6481L36.361 17.9431L37.492 17.0931L36.362 16.2431L36.361 16.2421ZM38.834 16.2421L37.701 17.0921L38.836 17.9431L39.969 17.0931L38.834 16.2431V16.2421ZM41.309 16.2421L40.179 17.0921L41.314 17.9431L42.444 17.0961L41.309 16.2421ZM31.176 16.2791L30.551 16.7501L31.02 17.3731L31.645 16.9041L31.175 16.2791H31.176ZM26.912 16.2831L26.285 16.7531L26.755 17.3771L27.381 16.9081L26.912 16.2831ZM22.646 16.2871L22.021 16.7561L22.492 17.3811L23.115 16.9121L22.646 16.2871ZM18.383 16.2891L17.758 16.7581L18.227 17.3831L18.852 16.9141L18.382 16.2891H18.383ZM14.117 16.2931L13.492 16.7621L13.961 17.3871L14.586 16.9181L14.117 16.2931ZM32.371 16.4491L31.746 16.9181L32.215 17.5451L32.84 17.0751L32.371 16.4491ZM28.105 16.4531L27.482 16.9221L27.952 17.5471L28.574 17.0781L28.105 16.4531ZM23.84 16.4571L23.217 16.9241L23.686 17.5491L24.311 17.0801L23.84 16.4571ZM19.576 16.4591L18.951 16.9291L19.42 17.5531L20.045 17.0841L19.576 16.4591ZM15.312 16.4611L14.686 16.9311L15.156 17.5571L15.781 17.0861L15.312 16.4611ZM33.564 16.6211L32.939 17.0901L33.41 17.7131L34.033 17.2441L33.564 16.6211ZM29.301 16.6231L28.676 17.0921L29.145 17.7171L29.77 17.2481L29.3 16.6231H29.301ZM25.035 16.6251L24.41 17.0941L24.88 17.7191L25.504 17.2501L25.035 16.6251ZM20.771 16.6291L20.146 17.0981L20.616 17.7231L21.24 17.2531L20.771 16.6291ZM16.506 16.6331L15.881 17.1001L16.351 17.7271L16.975 17.2571L16.505 16.6331H16.506ZM13.381 16.7331V16.7561L13.393 16.7481L13.381 16.7321V16.7331ZM30.494 16.7931L29.869 17.2621L30.339 17.8851L30.963 17.4181L30.494 16.7931ZM26.23 16.7951L25.605 17.2641L26.075 17.8891L26.699 17.4191L26.23 16.7951ZM21.965 16.7991L21.34 17.2681L21.81 17.8931L22.434 17.4231L21.964 16.7991H21.965ZM17.699 16.8031L17.076 17.2711L17.545 17.8951L18.168 17.4251L17.699 16.8031ZM13.436 16.8051L13.381 16.8451V17.8221L13.904 17.4301L13.436 16.8051ZM34.594 16.9151L34.134 17.2601L34.594 17.8711V16.9141V16.9151ZM31.687 16.9611L31.062 17.4311L31.533 18.0571L32.158 17.5871L31.688 16.9611H31.687ZM27.424 16.9671L26.799 17.4361L27.268 18.0611L27.893 17.5901L27.423 16.9671H27.424ZM23.158 16.9691L22.535 17.4371L23.004 18.0621L23.627 17.5941L23.158 16.9691ZM18.895 16.9711L18.271 17.4411L18.741 18.0641L19.363 17.5961L18.895 16.9711ZM14.629 16.9751L14.004 17.4431L14.473 18.0681L15.098 17.6001L14.628 16.9751H14.629ZM32.883 17.1331L32.258 17.6021L32.727 18.2271L33.352 17.7561L32.882 17.1331H32.883ZM28.617 17.1351L27.994 17.6051L28.463 18.2301L29.088 17.7601L28.618 17.1351H28.617ZM24.354 17.1391L23.729 17.6071L24.199 18.2301L24.822 17.7641L24.354 17.1391ZM20.09 17.1411L19.463 17.6111L19.932 18.2361L20.559 17.7661L20.089 17.1411H20.09ZM15.824 17.1431L15.199 17.6131L15.668 18.2381L16.293 17.7701L15.824 17.1431ZM7.90198 17.1721L6.76798 18.0231L7.89998 18.8751L9.03498 18.0211L7.90198 17.1711V17.1721ZM10.377 17.1721L9.24398 18.0231L10.377 18.8731L11.51 18.0211L10.377 17.1711V17.1721ZM37.597 17.1721L36.465 18.0221L37.598 18.8731L38.73 18.0231L37.598 17.1721H37.597ZM40.072 17.1721L38.939 18.0221L40.074 18.8751L41.207 18.0231L40.072 17.1721ZM5.50798 17.2301V18.8091L6.55798 18.0191L5.50798 17.2301ZM42.467 17.2301L41.416 18.0201L42.466 18.8091V17.2301H42.467ZM34.077 17.3031L33.453 17.7711L33.922 18.3961L34.547 17.9261L34.077 17.3031ZM29.813 17.3051L29.188 17.7731L29.656 18.3981L30.281 17.9301L29.813 17.3051ZM25.549 17.3091L24.924 17.7771L25.393 18.4001L26.018 17.9321L25.548 17.3091H25.549ZM21.283 17.3111L20.658 17.7791L21.128 18.4041L21.752 17.9361L21.283 17.3111ZM17.018 17.3141L16.395 17.7841L16.863 18.4061L17.486 17.9381L17.018 17.3141ZM31.006 17.4741L30.383 17.9441L30.852 18.5681L31.475 18.1001L31.005 17.4751L31.006 17.4741ZM26.742 17.4791L26.117 17.9471L26.587 18.5721L27.211 18.1041L26.742 17.4791ZM22.477 17.4801L21.852 17.9501L22.322 18.5741L22.945 18.1051L22.477 17.4801ZM18.213 17.4841L17.588 17.9541L18.057 18.5761L18.682 18.1091L18.212 17.4841H18.213ZM13.947 17.4861L13.381 17.9121V18.0321L13.793 18.5801L14.416 18.1111L13.947 17.4861ZM32.201 17.6451L31.576 18.1131L32.045 18.7381L32.67 18.2701L32.201 17.6451ZM27.936 17.6481L27.311 18.1181L27.779 18.7421L28.406 18.2731L27.936 17.6481ZM23.67 17.6501L23.047 18.1201L23.516 18.7441L24.141 18.2751L23.67 17.6501ZM19.406 17.6541L18.783 18.1231L19.252 18.7461L19.877 18.2771L19.407 17.6541H19.406ZM15.141 17.6561L14.518 18.1251L14.986 18.7501L15.611 18.2811L15.141 17.6561ZM12.006 17.8061L11.719 18.0211L12.006 18.2381V17.8071V17.8061ZM35.969 17.8061V18.2381L36.256 18.0211L35.969 17.8071V17.8061ZM33.395 17.8141L32.771 18.2841L33.241 18.9081L33.863 18.4391L33.395 17.8141ZM29.129 17.8161L28.506 18.2861L28.975 18.9101L29.6 18.4411L29.129 17.8161ZM24.865 17.8201L24.242 18.2901L24.711 18.9121L25.334 18.4451L24.865 17.8201ZM20.602 17.8221L19.977 18.2931L20.445 18.9181L21.07 18.4481L20.602 17.8221ZM16.338 17.8261L15.711 18.2961L16.18 18.9201L16.805 18.4501L16.338 17.8261ZM34.59 17.9841L33.965 18.4541L34.434 19.0781L34.594 18.9571V17.9901L34.59 17.9841ZM30.324 17.9861L29.699 18.4561L30.169 19.0801L30.793 18.6111L30.324 17.9861ZM26.061 17.9901L25.436 18.4591L25.904 19.0841L26.529 18.6151L26.061 17.9901ZM21.795 17.9921L21.17 18.4611L21.64 19.0861L22.264 18.6171L21.794 17.9921H21.795ZM17.531 17.9961L16.906 18.4651L17.375 19.0901L18 18.6211L17.531 17.9961ZM6.66598 18.1001L5.53098 18.9531L6.66398 19.8031L7.79998 18.9501L6.66598 18.1001ZM11.613 18.1001L10.48 18.9511L11.615 19.8031L12.005 19.5101V18.3951L11.613 18.1001ZM36.361 18.1001L35.969 18.3951V19.5101L36.359 19.8031L37.494 18.9511L36.361 18.1001ZM41.309 18.1001L40.176 18.9511L41.311 19.8031L42.443 18.9531L41.309 18.1001ZM9.14098 18.1021L8.00398 18.9531L9.13698 19.8051L10.271 18.9511L9.14098 18.1011V18.1021ZM38.834 18.1021L37.704 18.9521L38.838 19.8051L39.971 18.9531L38.834 18.1021ZM13.381 18.1521V18.8891L13.734 18.6231L13.381 18.1531V18.1521ZM31.518 18.1581L30.895 18.6251L31.363 19.2501L31.986 18.7811L31.518 18.1581ZM27.254 18.1601L26.631 18.6291L27.1 19.2541L27.725 18.7851L27.254 18.1601ZM22.988 18.1621L22.365 18.6311L22.834 19.2561L23.457 18.7871L22.988 18.1621ZM18.725 18.1661L18.102 18.6351L18.57 19.2601L19.193 18.7911L18.725 18.1661ZM14.459 18.1681L13.836 18.6371L14.305 19.2621L14.93 18.7931L14.459 18.1681ZM32.713 18.3261L32.088 18.7951L32.557 19.4201L33.182 18.9511L32.712 18.3261H32.713ZM28.447 18.3301L27.822 18.7991L28.291 19.4241L28.916 18.9541L28.447 18.3301ZM24.184 18.3321L23.559 18.8021L24.027 19.4261L24.652 18.9571L24.184 18.3321ZM19.92 18.3361L19.295 18.8051L19.764 19.4301L20.389 18.9601L19.919 18.3361H19.92ZM15.654 18.3401L15.029 18.8091L15.498 19.4321L16.123 18.9621L15.654 18.3401ZM33.908 18.4961L33.283 18.9651L33.752 19.5901L34.377 19.1211L33.908 18.4961ZM29.643 18.4981L29.018 18.9681L29.486 19.5941L30.111 19.1251L29.643 18.4981ZM25.377 18.5021L24.754 18.9711L25.223 19.5961L25.848 19.1271L25.377 18.5021ZM21.113 18.5041L20.488 18.9741L20.957 19.6001L21.582 19.1291L21.113 18.5041ZM16.85 18.5081L16.223 18.9781L16.691 19.6021L17.318 19.1321L16.85 18.5081ZM30.836 18.6701L30.213 19.1391L30.682 19.7621L31.305 19.2931L30.835 18.6701H30.836ZM26.572 18.6721L25.947 19.1411L26.418 19.7661L27.041 19.2961L26.572 18.6721ZM22.307 18.6741L21.684 19.1431L22.152 19.7681L22.775 19.2981L22.307 18.6741ZM18.043 18.6781L17.418 19.1461L17.887 19.7711L18.512 19.3031L18.043 18.6781ZM13.777 18.6801L13.381 18.9791V19.4531L13.623 19.7751L14.248 19.3071L13.778 18.6801H13.777ZM32.031 18.8401L31.406 19.3091L31.875 19.9321L32.5 19.4621L32.031 18.8401ZM27.766 18.8421L27.143 19.3111L27.611 19.9361L28.234 19.4651L27.766 18.8421ZM23.502 18.8461L22.877 19.3141L23.346 19.9371L23.971 19.4691L23.502 18.8461ZM19.236 18.8481L18.613 19.3161L19.082 19.9411L19.705 19.4731L19.236 18.8481ZM14.973 18.8521L14.35 19.3201L14.816 19.9431L15.441 19.4751L14.973 18.8521ZM33.225 19.0081L32.6 19.4781L33.07 20.1021L33.695 19.6321L33.225 19.0081ZM28.961 19.0121L28.334 19.4801L28.804 20.1051L29.43 19.6371L28.96 19.0121H28.961ZM24.695 19.0161L24.072 19.4841L24.541 20.1091L25.164 19.6411L24.695 19.0161ZM20.432 19.0181L19.807 19.4861L20.275 20.1111L20.9 19.6431L20.432 19.0181ZM16.166 19.0211L15.541 19.4911L16.01 20.1151L16.635 19.6451L16.166 19.0211ZM7.90398 19.0291L6.76798 19.8831L7.89998 20.7331L9.03498 19.8811L7.90498 19.0291H7.90398ZM10.377 19.0291L9.24198 19.8831L10.375 20.7341L11.51 19.8811L10.377 19.0291ZM37.597 19.0291L36.465 19.8811L37.6 20.7341L38.732 19.8831L37.598 19.0291H37.597ZM40.07 19.0291L38.94 19.8811L40.074 20.7321L41.207 19.8821L40.07 19.0291ZM34.594 19.0471L34.477 19.1351L34.594 19.2911V19.0471ZM5.50798 19.0921V20.6721L6.56098 19.8811L5.50798 19.0911V19.0921ZM42.467 19.0921L41.414 19.8811L42.467 20.6711V19.0911V19.0921ZM34.42 19.1781L33.795 19.6461L34.264 20.2731L34.594 20.0251V19.4101L34.42 19.1781ZM30.154 19.1821L29.529 19.6501L30 20.2751L30.623 19.8071L30.154 19.1821ZM25.891 19.1861L25.266 19.6521L25.736 20.2771L26.359 19.8091L25.891 19.1861ZM21.625 19.1881L21 19.6561L21.469 20.2811L22.094 19.8111L21.625 19.1881ZM17.361 19.1891L16.736 19.6601L17.206 20.2851L17.83 19.8151L17.361 19.1891ZM31.35 19.3521L30.725 19.8201L31.193 20.4431L31.818 19.9771L31.35 19.3521ZM27.084 19.3541L26.459 19.8221L26.929 20.4471L27.553 19.9791L27.084 19.3541ZM22.82 19.3571L22.195 19.8271L22.665 20.4491L23.289 19.9801L22.82 19.3571ZM18.555 19.3591L17.93 19.8291L18.4 20.4551L19.023 19.9861L18.555 19.3591ZM14.291 19.3631L13.666 19.8321L14.135 20.4551L14.758 19.9861L14.291 19.3631ZM32.543 19.5211L31.92 19.9911L32.389 20.6131L33.012 20.1451L32.543 19.5211ZM28.277 19.5231L27.654 19.9931L28.123 20.6171L28.748 20.1481L28.278 19.5231H28.277ZM24.014 19.5271L23.389 19.9971L23.859 20.6211L24.482 20.1521L24.014 19.5271ZM19.748 19.5291L19.125 19.9981L19.594 20.6231L20.217 20.1541L19.748 19.5291ZM15.484 19.5331L14.861 20.0021L15.331 20.6251L15.953 20.1581L15.484 19.5331ZM13.381 19.5741V19.9571L13.564 19.8181L13.381 19.5741ZM12.006 19.6661L11.719 19.8811L12.006 20.0981V19.6661ZM35.969 19.6661V20.0981L36.256 19.8811L35.969 19.6661ZM33.739 19.6891L33.113 20.1601L33.582 20.7851L34.207 20.3161L33.738 19.6891H33.739ZM29.473 19.6931L28.848 20.1641L29.316 20.7871L29.941 20.3181L29.473 19.6931ZM25.207 19.6971L24.584 20.1661L25.053 20.7911L25.678 20.3221L25.207 19.6971ZM20.943 19.6991L20.318 20.1681L20.788 20.7931L21.412 20.3241L20.943 19.6991ZM16.678 19.7031L16.055 20.1721L16.523 20.7971L17.148 20.3281L16.678 19.7031ZM30.666 19.8631L30.043 20.3321L30.512 20.9571L31.135 20.4881L30.666 19.8631ZM26.402 19.8651L25.777 20.3341L26.248 20.9591L26.871 20.4901L26.402 19.8651ZM22.139 19.8691L21.512 20.3391L21.98 20.9631L22.607 20.4931L22.139 19.8691ZM17.873 19.8711L17.248 20.3411L17.717 20.9671L18.344 20.4981L17.873 19.8711ZM13.607 19.8771L13.381 20.0471V20.8751L13.451 20.9691L14.076 20.5001L13.607 19.8771ZM9.14098 19.9591L8.00398 20.8111L9.13898 21.6621L10.273 20.8111L9.14098 19.9591ZM11.613 19.9591L10.479 20.8131L11.611 21.6631L12.006 21.3671V20.2541L11.613 19.9591ZM36.361 19.9591L35.969 20.2541V21.3671L36.363 21.6621L37.496 20.8121L36.361 19.9591ZM38.834 19.9591L37.701 20.8111L38.836 21.6621L39.971 20.8111L38.834 19.9591ZM6.66398 19.9611L5.53398 20.8111L6.66598 21.6611L7.79598 20.8111L6.66398 19.9611ZM41.311 19.9611L40.178 20.8111L41.308 21.6611L42.441 20.8111L41.311 19.9611ZM31.861 20.0331L31.236 20.5021L31.706 21.1271L32.33 20.6581L31.861 20.0331ZM27.596 20.0351L26.973 20.5041L27.441 21.1291L28.066 20.6601L27.596 20.0351ZM23.332 20.0391L22.707 20.5081L23.177 21.1331L23.801 20.6641L23.332 20.0391ZM19.066 20.0411L18.443 20.5101L18.913 21.1351L19.535 20.6661L19.066 20.0411ZM14.803 20.0451L14.178 20.5141L14.646 21.1391L15.271 20.6691L14.803 20.0451ZM34.593 20.1131L34.307 20.3281L34.594 20.7111V20.1131H34.593ZM33.055 20.2031L32.432 20.6721L32.9 21.2971L33.525 20.8281L33.055 20.2031ZM28.791 20.2051L28.166 20.6741L28.635 21.2991L29.26 20.8301L28.791 20.2051ZM24.525 20.2091L23.902 20.6781L24.372 21.3031L24.996 20.8341L24.526 20.2091H24.525ZM20.26 20.2111L19.637 20.6801L20.105 21.3051L20.73 20.8351L20.26 20.2111ZM15.996 20.2151L15.373 20.6841L15.842 21.3091L16.465 20.8391L15.996 20.2151ZM34.25 20.3711L33.625 20.8411L34.095 21.4671L34.594 21.0921V20.8301L34.25 20.3711ZM29.984 20.3751L29.359 20.8451L29.829 21.4691L30.453 21.0001L29.984 20.3751ZM25.719 20.3791L25.096 20.8481L25.564 21.4731L26.189 21.0021L25.719 20.3791ZM21.455 20.3811L20.832 20.8501L21.301 21.4751L21.924 21.0051L21.455 20.3811ZM17.191 20.3851L16.566 20.8541L17.036 21.4791L17.66 21.0091L17.191 20.3851ZM31.18 20.5451L30.555 21.0141L31.023 21.6391L31.648 21.1691L31.18 20.5451ZM26.914 20.5471L26.291 21.0161L26.76 21.6431L27.385 21.1731L26.915 20.5471H26.914ZM22.65 20.5511L22.025 21.0211L22.495 21.6461L23.119 21.1761L22.65 20.5511ZM18.385 20.5551L17.76 21.0231L18.229 21.6481L18.854 21.1781L18.384 20.5551H18.385ZM14.119 20.5591L13.496 21.0271L13.965 21.6521L14.59 21.1821L14.12 20.5591H14.119ZM32.373 20.7151L31.748 21.1841L32.218 21.8091L32.842 21.3391L32.373 20.7151ZM28.109 20.7191L27.484 21.1871L27.954 21.8111L28.578 21.3411L28.109 20.7191ZM23.844 20.7211L23.221 21.1891L23.689 21.8141L24.314 21.3461L23.844 20.7211ZM19.578 20.7251L18.955 21.1931L19.424 21.8161L20.049 21.3481L19.579 20.7251H19.578ZM15.314 20.7271L14.689 21.1971L15.159 21.8201L15.783 21.3521L15.314 20.7271ZM33.566 20.8851L32.943 21.3541L33.413 21.9791L34.037 21.5091L33.567 20.8851H33.566ZM7.89998 20.8891L6.76998 21.7391L7.90398 22.5891L9.03498 21.7401L7.89998 20.8901V20.8891ZM10.377 20.8891L9.24198 21.7401L10.375 22.5921L11.51 21.7381L10.377 20.8881V20.8891ZM29.303 20.8891L28.68 21.3571L29.148 21.9801L29.771 21.5121L29.303 20.8891ZM37.598 20.8891L36.465 21.7391L37.6 22.5921L38.732 21.7401L37.598 20.8891ZM40.074 20.8891L38.939 21.7401L40.07 22.5901L41.205 21.7381L40.075 20.8881L40.074 20.8891ZM25.037 20.8911L24.414 21.3591L24.883 21.9841L25.506 21.5161L25.037 20.8911ZM20.773 20.8951L20.15 21.3631L20.62 21.9861L21.242 21.5181L20.773 20.8951ZM16.508 20.8961L15.885 21.3661L16.355 21.9901L16.979 21.5211L16.508 20.8961ZM5.50798 20.9511V22.5291L6.55798 21.7401L5.50798 20.9511ZM42.467 20.9511L41.416 21.7411L42.466 22.5291V20.9511H42.467ZM13.381 20.9921V21.0221L13.395 21.0121L13.381 20.9921ZM30.498 21.0571L29.873 21.5271L30.342 22.1501L30.967 21.6821L30.498 21.0571ZM26.232 21.0611L25.607 21.5291L26.078 22.1541L26.701 21.6861L26.232 21.0611ZM21.969 21.0641L21.344 21.5341L21.812 22.1561L22.437 21.6881L21.969 21.0641ZM17.703 21.0661L17.078 21.5361L17.547 22.1601L18.172 21.6911L17.703 21.0661ZM13.439 21.0701L13.381 21.1131V22.0901L13.908 21.6931L13.439 21.0701ZM34.594 21.1821L34.139 21.5231L34.594 22.1311V21.1811V21.1821ZM31.691 21.2271L31.066 21.6951L31.537 22.3221L32.16 21.8541L31.691 21.2271ZM27.426 21.2301L26.803 21.7001L27.271 22.3241L27.896 21.8551L27.426 21.2301ZM23.162 21.2321L22.537 21.7031L23.006 22.3281L23.633 21.8581L23.163 21.2321H23.162ZM18.898 21.2361L18.271 21.7061L18.741 22.3301L19.367 21.8601L18.898 21.2361ZM14.633 21.2401L14.008 21.7091L14.477 22.3341L15.102 21.8651L14.632 21.2401H14.633ZM32.885 21.3961L32.262 21.8661L32.73 22.4901L33.355 22.0211L32.885 21.3961ZM28.621 21.4001L27.996 21.8701L28.465 22.4921L29.09 22.0231L28.621 21.4001ZM24.355 21.4021L23.732 21.8721L24.202 22.4961L24.826 22.0271L24.356 21.4021H24.355ZM20.092 21.4061L19.467 21.8751L19.936 22.4981L20.561 22.0291L20.091 21.4061H20.092ZM15.826 21.4081L15.203 21.8781L15.672 22.5041L16.297 22.0351L15.827 21.4081H15.826ZM12.006 21.5211L11.715 21.7411L12.005 21.9591V21.5211H12.006ZM35.969 21.5211V21.9591L36.259 21.7401L35.969 21.5211ZM34.08 21.5681L33.457 22.0351L33.924 22.6601L34.547 22.1911L34.08 21.5681ZM29.814 21.5701L29.191 22.0401L29.661 22.6621L30.285 22.1931L29.815 21.5701H29.814ZM25.551 21.5721L24.926 22.0411L25.395 22.6681L26.02 22.1981L25.55 21.5721H25.551ZM21.285 21.5761L20.662 22.0451L21.131 22.6701L21.754 22.2011L21.285 21.5761ZM17.021 21.5781L16.396 22.0471L16.866 22.6721L17.49 22.2031L17.021 21.5781ZM31.01 21.7381L30.385 22.2091L30.854 22.8341L31.479 22.3651L31.009 21.7381H31.01ZM26.744 21.7421L26.119 22.2111L26.589 22.8361L27.213 22.3671L26.744 21.7421ZM22.48 21.7461L21.855 22.2151L22.325 22.8401L22.949 22.3711L22.48 21.7461ZM18.215 21.7481L17.59 22.2171L18.059 22.8421L18.684 22.3731L18.214 21.7481H18.215ZM13.951 21.7521L13.381 22.1801V22.2951L13.795 22.8451L14.42 22.3751L13.951 21.7521ZM11.613 21.8161L10.479 22.6701L11.611 23.5201L12.006 23.2231V22.1101L11.613 21.8151V21.8161ZM36.361 21.8161L35.969 22.1111V23.2231L36.363 23.5201L37.496 22.6701L36.361 21.8161ZM6.66198 21.8181L5.53198 22.6701L6.66598 23.5211L7.79598 22.6701L6.66198 21.8181ZM9.13898 21.8181L8.00798 22.6681L9.14098 23.5201L10.271 22.6701L9.13898 21.8181ZM38.836 21.8181L37.703 22.6701L38.834 23.5201L39.967 22.6681L38.836 21.8181ZM41.313 21.8181L40.178 22.6701L41.308 23.5211L42.443 22.6701L41.313 21.8181ZM32.203 21.9081L31.578 22.3781L32.048 23.0041L32.674 22.5351L32.204 21.9081H32.203ZM27.939 21.9121L27.314 22.3811L27.784 23.0061L28.408 22.5371L27.939 21.9121ZM23.674 21.9141L23.049 22.3841L23.518 23.0101L24.143 22.5401L23.673 21.9141H23.674ZM19.41 21.9181L18.785 22.3881L19.254 23.0121L19.879 22.5411L19.41 21.9181ZM15.145 21.9221L14.52 22.3911L14.988 23.0161L15.613 22.5461L15.145 21.9221ZM33.398 22.0801L32.773 22.5491L33.243 23.1721L33.865 22.7031L33.398 22.0801ZM29.133 22.0821L28.51 22.5511L28.979 23.1761L29.602 22.7061L29.132 22.0821H29.133ZM24.869 22.0841L24.244 22.5531L24.714 23.1801L25.338 22.7091L24.869 22.0841ZM20.604 22.0881L19.98 22.5571L20.45 23.1821L21.072 22.7121L20.604 22.0881ZM16.34 22.0901L15.715 22.5601L16.184 23.1841L16.809 22.7141L16.339 22.0901H16.34ZM34.592 22.2501L33.969 22.7191L34.437 23.3421L34.594 23.2251V22.2521L34.592 22.2501ZM30.328 22.2521L29.703 22.7211L30.172 23.3461L30.797 22.8771L30.328 22.2521ZM26.063 22.2541L25.438 22.7241L25.906 23.3481L26.531 22.8781L26.063 22.2541ZM21.799 22.2581L21.174 22.7271L21.643 23.3521L22.268 22.8821L21.798 22.2581H21.799ZM17.533 22.2601L16.91 22.7291L17.379 23.3541L18.002 22.8841L17.533 22.2601ZM13.381 22.4121V23.1561L13.738 22.8891L13.381 22.4121ZM31.521 22.4221L30.896 22.8911L31.367 23.5161L31.99 23.0461L31.521 22.4221ZM27.258 22.4261L26.633 22.8951L27.102 23.5181L27.725 23.0481L27.258 22.4261ZM22.992 22.4281L22.367 22.8961L22.836 23.5201L23.461 23.0501L22.992 22.4281ZM18.729 22.4321L18.104 22.9001L18.57 23.5231L19.195 23.0551L18.729 22.4321ZM14.463 22.4341L13.838 22.9021L14.307 23.5291L14.934 23.0591L14.463 22.4341ZM32.717 22.5921L32.092 23.0611L32.561 23.6841L33.184 23.2141L32.717 22.5921ZM28.451 22.5941L27.828 23.0621L28.297 23.6871L28.92 23.2191L28.451 22.5941ZM24.187 22.5961L23.561 23.0661L24.031 23.6911L24.656 23.2231L24.188 22.5961H24.187ZM19.922 22.6001L19.297 23.0701L19.766 23.6951L20.391 23.2251L19.921 22.6001H19.922ZM15.656 22.6041L15.031 23.0721L15.5 23.6971L16.125 23.2291L15.656 22.6041ZM7.89998 22.7481L6.76798 23.6001L7.89998 24.4501L9.03298 23.6001L7.89998 22.7481ZM10.375 22.7481L9.24498 23.5981L10.377 24.4481L11.507 23.5981L10.375 22.7481ZM37.6 22.7481L36.467 23.5981L37.597 24.4481L38.73 23.5981L37.6 22.7481ZM40.074 22.7481L38.941 23.6001L40.074 24.4501L41.207 23.6001L40.074 22.7481ZM33.91 22.7621L33.287 23.2301L33.756 23.8541L34.379 23.3871L33.91 22.7621ZM29.646 22.7641L29.021 23.2321L29.491 23.8571L30.115 23.3891L29.646 22.7641ZM25.381 22.7681L24.756 23.2361L25.226 23.8591L25.85 23.3911L25.38 22.7681H25.381ZM21.115 22.7701L20.492 23.2381L20.961 23.8631L21.586 23.3951L21.116 22.7701H21.115ZM16.852 22.7731L16.227 23.2431L16.695 23.8651L17.32 23.3961L16.852 22.7731ZM5.50798 22.8091V24.3911L6.55998 23.6001L5.50698 22.8091H5.50798ZM42.467 22.8091L41.414 23.5991L42.467 24.3911V22.8091ZM30.84 22.9341L30.215 23.4021L30.685 24.0271L31.309 23.5591L30.839 22.9341H30.84ZM26.574 22.9371L25.951 23.4071L26.418 24.0291L27.043 23.5611L26.574 22.9381V22.9371ZM22.311 22.9391L21.686 23.4091L22.154 24.0331L22.779 23.5641L22.311 22.9391ZM18.045 22.9431L17.422 23.4131L17.891 24.0351L18.514 23.5661L18.044 22.9431H18.045ZM13.781 22.9451L13.381 23.2461V23.7131L13.627 24.0391L14.252 23.5701L13.782 22.9451H13.781ZM32.035 23.1041L31.41 23.5741L31.877 24.1971L32.502 23.7271L32.035 23.1041ZM27.77 23.1071L27.145 23.5771L27.613 24.1991L28.238 23.7301L27.77 23.1071ZM23.504 23.1091L22.881 23.5791L23.35 24.2031L23.975 23.7341L23.504 23.1091ZM19.24 23.1131L18.615 23.5821L19.084 24.2071L19.709 23.7371L19.24 23.1131ZM14.975 23.1151L14.35 23.5841L14.818 24.2091L15.443 23.7401L14.975 23.1151ZM33.229 23.2731L32.604 23.7431L33.072 24.3671L33.697 23.8981L33.229 23.2731ZM28.963 23.2751L28.34 23.7451L28.809 24.3711L29.434 23.9021L28.963 23.2751ZM24.699 23.2791L24.074 23.7481L24.543 24.3731L25.168 23.9031L24.699 23.2791ZM20.436 23.2811L19.809 23.7521L20.277 24.3771L20.904 23.9071L20.436 23.2811ZM16.168 23.2851L15.543 23.7541L16.012 24.3791L16.637 23.9101L16.168 23.2851ZM34.594 23.3151L34.48 23.4001L34.594 23.5501V23.3141V23.3151ZM12.006 23.3831L11.716 23.6001L12.006 23.8161V23.3831ZM35.969 23.3831V23.8161L36.258 23.6001L35.968 23.3831H35.969ZM34.422 23.4431L33.799 23.9131L34.268 24.5371L34.594 24.2931V23.6721L34.422 23.4431ZM30.158 23.4451L29.533 23.9151L30.003 24.5391L30.627 24.0701L30.158 23.4451ZM25.893 23.4491L25.27 23.9181L25.738 24.5411L26.361 24.0721L25.893 23.4491ZM21.629 23.4511L21.004 23.9201L21.473 24.5451L22.098 24.0761L21.628 23.4511H21.629ZM17.363 23.4551L16.74 23.9241L17.207 24.5491L17.832 24.0791L17.363 23.4551ZM31.352 23.6151L30.729 24.0851L31.195 24.7091L31.82 24.2401L31.352 23.6151ZM27.088 23.6191L26.463 24.0881L26.932 24.7131L27.557 24.2431L27.087 23.6191H27.088ZM22.822 23.6211L22.197 24.0901L22.668 24.7151L23.291 24.2461L22.822 23.6211ZM18.559 23.6251L17.934 24.0941L18.404 24.7191L19.027 24.2501L18.559 23.6251ZM14.293 23.6271L13.668 24.0961L14.138 24.7211L14.762 24.2521L14.293 23.6271ZM6.66398 23.6771L5.52898 24.5291L6.66198 25.3811L7.79698 24.5271L6.66398 23.6771ZM9.13698 23.6771L8.00398 24.5271L9.13698 25.3791L10.27 24.5271L9.13698 23.6771ZM11.613 23.6771L10.483 24.5271L11.613 25.3771L12.006 25.0821V23.9721L11.613 23.6781V23.6771ZM36.361 23.6771L35.969 23.9731V25.0821L36.361 25.3771L37.492 24.5271L36.362 23.6771H36.361ZM38.838 23.6771L37.705 24.5271L38.838 25.3791L39.971 24.5271L38.838 23.6771ZM41.311 23.6771L40.178 24.5271L41.313 25.3811L42.445 24.5291L41.311 23.6781V23.6771ZM32.547 23.7851L31.922 24.2551L32.391 24.8791L33.016 24.4101L32.546 23.7851H32.547ZM28.281 23.7891L27.656 24.2581L28.127 24.8831L28.75 24.4141L28.281 23.7891ZM24.018 23.7911L23.393 24.2601L23.861 24.8851L24.486 24.4161L24.018 23.7911ZM19.752 23.7951L19.127 24.2641L19.596 24.8891L20.221 24.4191L19.752 23.7951ZM15.488 23.7971L14.861 24.2661L15.331 24.8911L15.957 24.4211L15.488 23.7971ZM13.381 23.8321V24.2251L13.571 24.0821L13.381 23.8321ZM33.741 23.9551L33.115 24.4241L33.585 25.0511L34.211 24.5821L33.741 23.9551ZM29.475 23.9571L28.852 24.4261L29.32 25.0531L29.945 24.5841L29.475 23.9571ZM25.211 23.9611L24.586 24.4311L25.055 25.0551L25.68 24.5841L25.21 23.9611H25.211ZM20.947 23.9631L20.32 24.4331L20.79 25.0591L21.416 24.5881L20.947 23.9631ZM16.682 23.9691L16.057 24.4371L16.525 25.0611L17.15 24.5911L16.682 23.9691ZM30.67 24.1291L30.047 24.5981L30.514 25.2211L31.139 24.7521L30.669 24.1291H30.67ZM26.406 24.1311L25.781 24.6001L26.25 25.2251L26.875 24.7551L26.406 24.1311ZM22.141 24.1331L21.516 24.6021L21.986 25.2291L22.609 24.7591L22.141 24.1331ZM17.877 24.1371L17.252 24.6071L17.721 25.2301L18.346 24.7621L17.877 24.1371ZM13.611 24.1391L13.381 24.3131V25.1331L13.455 25.2331L14.08 24.7631L13.611 24.1391ZM31.865 24.2991L31.24 24.7681L31.709 25.3911L32.334 24.9211L31.865 24.2991ZM27.6 24.3001L26.975 24.7691L27.443 25.3941L28.068 24.9241L27.6 24.3001ZM23.334 24.3041L22.711 24.7701L23.18 25.3951L23.803 24.9271L23.334 24.3041ZM19.07 24.3061L18.447 24.7741L18.916 25.3991L19.539 24.9311L19.07 24.3061ZM14.805 24.3081L14.182 24.7761L14.65 25.4011L15.275 24.9331L14.805 24.3081ZM34.594 24.3801L34.311 24.5931L34.594 24.9701V24.3801ZM33.059 24.4661L32.434 24.9361L32.904 25.5611L33.527 25.0931L33.059 24.4661ZM28.793 24.4701L28.168 24.9381L28.638 25.5631L29.264 25.0951L28.793 24.4701ZM24.529 24.4741L23.904 24.9421L24.373 25.5651L24.998 25.0971L24.529 24.4741ZM20.264 24.4761L19.639 24.9441L20.107 25.5691L20.732 25.0991L20.264 24.4761ZM16 24.4801L15.375 24.9501L15.844 25.5721L16.469 25.1041L16 24.4801ZM7.89998 24.6051L6.76598 25.4591L7.89798 26.3091L9.03298 25.4571L7.89998 24.6051ZM40.074 24.6051L38.941 25.4571L40.076 26.3091L41.209 25.4591L40.074 24.6051ZM10.375 24.6071L9.24498 25.4571L10.375 26.3091L11.508 25.4571L10.375 24.6071ZM37.6 24.6071L36.467 25.4571L37.6 26.3091L38.73 25.4571L37.6 24.6071ZM34.252 24.6371L33.627 25.1051L34.097 25.7301L34.594 25.3571V25.0921L34.252 24.6371ZM29.988 24.6411L29.365 25.1091L29.832 25.7321L30.457 25.2641L29.988 24.6411ZM25.725 24.6431L25.098 25.1131L25.566 25.7361L26.193 25.2681L25.725 24.6431ZM21.459 24.6451L20.834 25.1151L21.303 25.7401L21.928 25.2711L21.459 24.6451ZM17.193 24.6501L16.568 25.1201L17.038 25.7441L17.662 25.2741L17.193 24.6501ZM5.50798 24.6681V26.2461L6.55798 25.4571L5.50798 24.6681ZM42.467 24.6681L41.416 25.4571L42.466 26.2471V24.6681H42.467ZM31.184 24.8111L30.559 25.2791L31.027 25.9041L31.652 25.4341L31.184 24.8111ZM26.918 24.8131L26.293 25.2811L26.763 25.9061L27.387 25.4381L26.918 24.8131ZM22.652 24.8161L22.029 25.2861L22.498 25.9081L23.121 25.4391L22.652 24.8161ZM18.389 24.8181L17.764 25.2891L18.232 25.9121L18.857 25.4431L18.389 24.8181ZM14.123 24.8201L13.498 25.2911L13.968 25.9141L14.592 25.4451L14.123 24.8201ZM32.377 24.9801L31.752 25.4501L32.222 26.0741L32.846 25.6051L32.377 24.9801ZM28.111 24.9821L27.486 25.4521L27.957 26.0761L28.58 25.6071L28.111 24.9821ZM23.848 24.9861L23.223 25.4561L23.691 26.0781L24.316 25.6091L23.848 24.9861ZM19.582 24.9881L18.959 25.4571L19.428 26.0821L20.051 25.6131L19.582 24.9881ZM15.318 24.9921L14.693 25.4611L15.163 26.0841L15.787 25.6151L15.318 24.9921ZM33.57 25.1481L32.945 25.6191L33.415 26.2421L34.039 25.7731L33.57 25.1481ZM29.307 25.1521L28.682 25.6231L29.15 26.2461L29.773 25.7771L29.307 25.1521ZM25.041 25.1561L24.418 25.6251L24.887 26.2481L25.51 25.7791L25.041 25.1561ZM20.777 25.1581L20.15 25.6271L20.621 26.2541L21.246 25.7841L20.777 25.1581ZM16.512 25.1621L15.887 25.6311L16.355 26.2561L16.98 25.7861L16.512 25.1621ZM12.006 25.2421L11.719 25.4571L12.006 25.6721V25.2421ZM35.969 25.2421V25.6721L36.256 25.4571L35.969 25.2421ZM13.381 25.2561V25.2891L13.396 25.2771L13.381 25.2561ZM30.5 25.3221L29.877 25.7911L30.346 26.4161L30.969 25.9471L30.5 25.3221ZM26.236 25.3241L25.609 25.7941L26.08 26.4201L26.705 25.9501L26.236 25.3241ZM21.971 25.3281L21.346 25.7971L21.814 26.4221L22.439 25.9521L21.971 25.3281ZM17.705 25.3321L17.08 25.8011L17.549 26.4261L18.176 25.9571L17.706 25.3321H17.705ZM13.439 25.3341L13.381 25.3791V26.3551L13.908 25.9591L13.439 25.3341ZM34.594 25.4471L34.141 25.7891L34.594 26.3931V25.4471ZM31.695 25.4921L31.07 25.9611L31.541 26.5861L32.164 26.1171L31.695 25.4921ZM27.43 25.4941L26.805 25.9631L27.275 26.5881L27.9 26.1191L27.43 25.4941ZM23.166 25.4981L22.541 25.9671L23.01 26.5921L23.633 26.1221L23.166 25.4981ZM18.9 25.5001L18.275 25.9701L18.745 26.5941L19.369 26.1251L18.9 25.5001ZM14.637 25.5041L14.012 25.9731L14.48 26.5961L15.105 26.1271L14.637 25.5041ZM6.66198 25.5351L5.53198 26.3871L6.66198 27.2371L7.79498 26.3871L6.66198 25.5351ZM9.13898 25.5351L8.00398 26.3891L9.13698 27.2391L10.271 26.3871L9.13898 25.5351ZM38.836 25.5351L37.703 26.3871L38.838 27.2381L39.971 26.3881L38.836 25.5351ZM41.313 25.5351L40.18 26.3871L41.313 27.2371L42.443 26.3871L41.313 25.5351ZM11.613 25.5371L10.48 26.3871L11.613 27.2381L12.006 26.9431V25.8321L11.613 25.5371ZM36.361 25.5371L35.969 25.8321V26.9431L36.361 27.2381L37.494 26.3871L36.361 25.5371ZM32.889 25.6621L32.264 26.1311L32.732 26.7561L33.357 26.2861L32.889 25.6621ZM28.625 25.6661L28 26.1351L28.467 26.7581L29.092 26.2891L28.625 25.6661ZM24.359 25.6681L23.734 26.1371L24.204 26.7621L24.828 26.2931L24.359 25.6681ZM20.094 25.6701L19.471 26.1391L19.941 26.7641L20.564 26.2971L20.094 25.6701ZM15.83 25.6741L15.205 26.1431L15.675 26.7681L16.299 26.2981L15.83 25.6741ZM34.082 25.8321L33.457 26.3011L33.927 26.9241L34.551 26.4551L34.082 25.8321ZM29.818 25.8341L29.193 26.3041L29.663 26.9281L30.287 26.4591L29.818 25.8341ZM25.553 25.8381L24.93 26.3071L25.398 26.9321L26.023 26.4621L25.553 25.8381ZM21.289 25.8401L20.664 26.3101L21.133 26.9341L21.758 26.4641L21.289 25.8401ZM17.025 25.8441L16.398 26.3121L16.869 26.9371L17.494 26.4691L17.025 25.8441ZM31.014 26.0041L30.389 26.4731L30.857 27.0981L31.482 26.6281L31.014 26.0041ZM26.748 26.0061L26.123 26.4761L26.592 27.1021L27.219 26.6311L26.748 26.0061ZM22.484 26.0101L21.857 26.4801L22.327 27.1041L22.951 26.6341L22.484 26.0101ZM18.217 26.0141L17.592 26.4821L18.062 27.1071L18.687 26.6371L18.217 26.0141ZM13.953 26.0181L13.381 26.4481V26.5531L13.799 27.1091L14.422 26.6411L13.953 26.0181ZM32.207 26.1741L31.582 26.6431L32.051 27.2681L32.676 26.7981L32.207 26.1741ZM27.943 26.1781L27.318 26.6461L27.788 27.2701L28.41 26.8001L27.943 26.1781ZM23.678 26.1801L23.053 26.6481L23.521 27.2731L24.146 26.8051L23.678 26.1801ZM19.412 26.1841L18.787 26.6521L19.257 27.2771L19.883 26.8091L19.413 26.1841H19.412ZM15.148 26.1861L14.523 26.6541L14.993 27.2791L15.617 26.8111L15.148 26.1861ZM33.4 26.3441L32.775 26.8121L33.246 27.4371L33.869 26.9671L33.4 26.3441ZM29.137 26.3481L28.512 26.8161L28.98 27.4411L29.605 26.9711L29.137 26.3481ZM24.871 26.3501L24.248 26.8181L24.717 27.4431L25.342 26.9751L24.872 26.3501H24.871ZM20.605 26.3541L19.982 26.8201L20.452 27.4451L21.076 26.9771L20.606 26.3541H20.605ZM16.342 26.3551L15.719 26.8251L16.188 27.4491L16.813 26.9801L16.342 26.3551ZM7.90198 26.4651L6.76998 27.3161L7.89998 28.1661L9.03298 27.3161L7.90298 26.4651H7.90198ZM10.377 26.4651L9.24198 27.3181L10.375 28.1701L11.51 27.3161L10.377 26.4651ZM37.597 26.4651L36.465 27.3161L37.6 28.1701L38.732 27.3181L37.598 26.4651H37.597ZM40.072 26.4651L38.942 27.3161L40.074 28.1661L41.205 27.3161L40.072 26.4651ZM34.594 26.5141L33.971 26.9821L34.439 27.6071L34.594 27.4921V26.5141ZM30.33 26.5181L29.705 26.9861L30.175 27.6111L30.801 27.1431L30.331 26.5181H30.33ZM26.066 26.5201L25.441 26.9881L25.911 27.6131L26.535 27.1451L26.066 26.5201ZM21.801 26.5231L21.176 26.9931L21.645 27.6151L22.27 27.1461L21.8 26.5231H21.801ZM5.50798 26.5251V28.1041L6.55798 27.3141L5.50798 26.5251ZM17.538 26.5251L16.912 26.9951L17.381 27.6191L18.006 27.1501L17.537 26.5251H17.538ZM42.467 26.5251L41.416 27.3151L42.466 28.1041V26.5251H42.467ZM13.381 26.6741V27.4221L13.741 27.1521L13.381 26.6741ZM31.525 26.6861L30.9 27.1541L31.37 27.7791L31.994 27.3111L31.525 26.6861ZM27.262 26.6891L26.635 27.1591L27.104 27.7831L27.729 27.3131L27.262 26.6891ZM22.996 26.6911L22.371 27.1621L22.84 27.7851L23.465 27.3161L22.996 26.6911ZM18.73 26.6951L18.105 27.1651L18.575 27.7911L19.199 27.3211L18.73 26.6951ZM14.465 26.6991L13.842 27.1681L14.311 27.7911L14.934 27.3241L14.464 26.6991H14.465ZM32.719 26.8551L32.094 27.3251L32.562 27.9491L33.188 27.4801L32.718 26.8551H32.719ZM28.455 26.8591L27.83 27.3291L28.299 27.9531L28.924 27.4831L28.455 26.8591ZM24.189 26.8611L23.564 27.3311L24.035 27.9551L24.658 27.4861L24.189 26.8611ZM19.924 26.8651L19.301 27.3341L19.77 27.9591L20.393 27.4891L19.923 26.8651H19.924ZM15.66 26.8671L15.035 27.3371L15.505 27.9611L16.129 27.4921L15.66 26.8671ZM33.912 27.0251L33.289 27.4951L33.758 28.1191L34.383 27.6501L33.913 27.0251H33.912ZM29.648 27.0291L29.023 27.4981L29.494 28.1231L30.117 27.6541L29.648 27.0291ZM25.383 27.0311L24.76 27.5001L25.229 28.1251L25.854 27.6561L25.383 27.0311ZM21.119 27.0351L20.496 27.5041L20.965 28.1271L21.588 27.6581L21.119 27.0351ZM16.855 27.0371L16.23 27.5061L16.7 28.1311L17.324 27.6621L16.855 27.0371ZM12.005 27.1021L11.719 27.3161L12.006 27.5331V27.1021H12.005ZM35.969 27.1021V27.5331L36.256 27.3161L35.969 27.1021ZM30.842 27.1991L30.217 27.6681L30.687 28.2931L31.311 27.8231L30.841 27.1991H30.842ZM26.578 27.2011L25.953 27.6701L26.422 28.2951L27.047 27.8251L26.578 27.2011ZM22.314 27.2051L21.687 27.6741L22.157 28.2991L22.783 27.8291L22.314 27.2051ZM18.049 27.2071L17.424 27.6761L17.893 28.3031L18.518 27.8321L18.048 27.2071H18.049ZM13.783 27.2111L13.381 27.5141V27.9741L13.629 28.3041L14.254 27.8361L13.784 27.2111H13.783ZM32.037 27.3671L31.412 27.8361L31.881 28.4611L32.506 27.9921L32.037 27.3671ZM27.773 27.3711L27.146 27.8401L27.617 28.4651L28.242 27.9961L27.773 27.3711ZM23.508 27.3731L22.883 27.8431L23.352 28.4691L23.977 28.0001L23.507 27.3731H23.508ZM19.242 27.3771L18.617 27.8471L19.086 28.4711L19.711 28.0021L19.242 27.3771ZM14.977 27.3811L14.354 27.8501L14.822 28.4731L15.447 28.0061L14.977 27.3811ZM6.66598 27.3951L5.53298 28.2451L6.66398 29.0951L7.79698 28.2451L6.66598 27.3951ZM9.13898 27.3951L8.00598 28.2461L9.14098 29.0981L10.271 28.2461L9.13898 27.3951ZM11.613 27.3951L10.479 28.2481L11.611 29.0981L12.006 28.8011V27.6891L11.613 27.3951ZM36.361 27.3951L35.969 27.6891V28.8011L36.363 29.0981L37.496 28.2481L36.361 27.3951ZM38.836 27.3951L37.703 28.2461L38.834 29.0981L39.969 28.2461L38.836 27.3951ZM41.309 27.3951L40.178 28.2451L41.311 29.0951L42.441 28.2451L41.309 27.3951ZM33.23 27.5371L32.607 28.0061L33.077 28.6311L33.701 28.1621L33.231 27.5371H33.23ZM28.967 27.5411L28.344 28.0101L28.812 28.6351L29.437 28.1661L28.967 27.5411ZM24.701 27.5431L24.078 28.0131L24.547 28.6391L25.172 28.1681L24.702 27.5431H24.701ZM20.437 27.5471L19.812 28.0161L20.282 28.6411L20.906 28.1711L20.438 27.5471H20.437ZM16.174 27.5491L15.549 28.0191L16.018 28.6431L16.643 28.1731L16.173 27.5491H16.174ZM34.594 27.5821L34.482 27.6661L34.594 27.8121V27.5821ZM34.426 27.7091L33.801 28.1781L34.27 28.8011L34.594 28.5591V27.9321L34.426 27.7091ZM30.16 27.7111L29.535 28.1801L30.004 28.8051L30.629 28.3351L30.16 27.7111ZM25.896 27.7151L25.271 28.1841L25.741 28.8071L26.365 28.3371L25.896 27.7151ZM21.631 27.7171L21.008 28.1861L21.477 28.8091L22.1 28.3421L21.63 27.7171H21.631ZM17.367 27.7191L16.742 28.1871L17.212 28.8141L17.836 28.3441L17.367 27.7191ZM31.354 27.8811L30.73 28.3501L31.2 28.9751L31.824 28.5041L31.354 27.8811ZM27.09 27.8831L26.467 28.3531L26.936 28.9771L27.559 28.5071L27.089 27.8831H27.09ZM22.826 27.8871L22.201 28.3551L22.67 28.9801L23.295 28.5121L22.826 27.8871ZM18.561 27.8891L17.936 28.3571L18.404 28.9821L19.029 28.5141L18.561 27.8891ZM14.297 27.8931L13.672 28.3611L14.141 28.9861L14.766 28.5181L14.296 27.8931H14.297ZM32.549 28.0491L31.924 28.5181L32.394 29.1451L33.02 28.6751L32.549 28.0491ZM28.285 28.0531L27.66 28.5231L28.129 29.1481L28.756 28.6781L28.286 28.0531H28.285ZM24.02 28.0571L23.395 28.5251L23.863 29.1501L24.49 28.6821L24.02 28.0571ZM19.756 28.0611L19.129 28.5291L19.598 29.1521L20.223 28.6841L19.756 28.0611ZM15.49 28.0631L14.865 28.5311L15.335 29.1541L15.959 28.6881L15.49 28.0631ZM13.38 28.0931V28.4901L13.57 28.3481L13.38 28.0941V28.0931ZM33.744 28.2211L33.119 28.6891L33.588 29.3141L34.213 28.8441L33.744 28.2211ZM29.479 28.2231L28.855 28.6911L29.325 29.3161L29.949 28.8481L29.479 28.2231ZM25.215 28.2271L24.59 28.6951L25.059 29.3181L25.682 28.8501L25.215 28.2271ZM20.949 28.2291L20.324 28.6991L20.793 29.3221L21.418 28.8541L20.949 28.2291ZM16.686 28.2301L16.061 28.7011L16.529 29.3261L17.154 28.8571L16.686 28.2301ZM7.90198 28.3241L6.76998 29.1741L7.90398 30.0251L9.03498 29.1751L7.90198 28.3251V28.3241ZM10.377 28.3241L9.24398 29.1761L10.377 30.0261L11.51 29.1761L10.377 28.3241ZM37.597 28.3241L36.465 29.1761L37.598 30.0261L38.73 29.1761L37.598 28.3241H37.597ZM40.072 28.3241L38.939 29.1761L40.07 30.0261L41.205 29.1741L40.072 28.3241ZM5.50798 28.3831V29.9631L6.56098 29.1731L5.50798 28.3831ZM42.467 28.3831L41.414 29.1731L42.467 29.9631V28.3831ZM30.672 28.3931L30.047 28.8611L30.517 29.4861L31.141 29.0181L30.671 28.3931H30.672ZM26.408 28.3961L25.783 28.8661L26.253 29.4881L26.877 29.0201L26.408 28.3961ZM22.143 28.3981L21.52 28.8681L21.99 29.4921L22.613 29.0231L22.143 28.3981ZM17.879 28.4001L17.254 28.8701L17.723 29.4941L18.348 29.0251L17.878 28.4001H17.879ZM13.615 28.4041L13.381 28.5801V29.3951L13.459 29.4981L14.084 29.0291L13.615 28.4041ZM31.867 28.5631L31.242 29.0311L31.711 29.6561L32.336 29.1881L31.867 28.5631ZM27.604 28.5661L26.979 29.0361L27.447 29.6601L28.072 29.1911L27.604 28.5661ZM23.338 28.5681L22.713 29.0381L23.182 29.6621L23.807 29.1931L23.337 28.5681H23.338ZM19.074 28.5721L18.449 29.0411L18.918 29.6641L19.541 29.1951L19.074 28.5721ZM14.809 28.5741L14.184 29.0431L14.652 29.6681L15.277 29.1991L14.809 28.5741ZM34.594 28.6481L34.312 28.8591L34.594 29.2321V28.6481ZM33.062 28.7321L32.438 29.2021L32.906 29.8261L33.531 29.3571L33.063 28.7321H33.062ZM28.797 28.7341L28.172 29.2051L28.641 29.8301L29.266 29.3601L28.796 28.7341H28.797ZM24.533 28.7381L23.906 29.2091L24.375 29.8321L25 29.3621L24.533 28.7381ZM20.268 28.7421L19.643 29.2111L20.111 29.8361L20.736 29.3661L20.268 28.7421ZM16.002 28.7441L15.379 29.2131L15.848 29.8381L16.471 29.3691L16.002 28.7441ZM34.256 28.9021L33.631 29.3721L34.1 29.9961L34.594 29.6251V29.3521L34.256 28.9021ZM29.99 28.9041L29.367 29.3731L29.836 29.9981L30.461 29.5291L29.991 28.9041H29.99ZM25.727 28.9081L25.102 29.3771L25.57 30.0021L26.195 29.5331L25.727 28.9081ZM21.461 28.9101L20.836 29.3791L21.306 30.0061L21.932 29.5371L21.461 28.9101ZM17.197 28.9141L16.572 29.3831L17.041 30.0081L17.666 29.5381L17.197 28.9141ZM12.006 28.9571L11.715 29.1761L12.005 29.3951V28.9571H12.006ZM35.969 28.9571V29.3951L36.259 29.1751L35.969 28.9571ZM31.184 29.0741L30.561 29.5431L31.029 30.1681L31.654 29.6991L31.184 29.0741ZM26.92 29.0781L26.297 29.5471L26.766 30.1721L27.391 29.7031L26.92 29.0781ZM22.656 29.0801L22.031 29.5491L22.502 30.1741L23.125 29.7051L22.656 29.0801ZM18.393 29.0841L17.768 29.5531L18.236 30.1761L18.859 29.7071L18.393 29.0841ZM14.127 29.0861L13.502 29.5551L13.971 30.1801L14.596 29.7101L14.127 29.0861ZM32.379 29.2461L31.756 29.7151L32.223 30.3381L32.848 29.8691L32.378 29.2461H32.379ZM28.115 29.2481L27.49 29.7171L27.959 30.3421L28.584 29.8731L28.115 29.2481ZM23.85 29.2501L23.225 29.7201L23.693 30.3441L24.318 29.8731L23.85 29.2501ZM6.66598 29.2521L5.53098 30.1041L6.66398 30.9551L7.79898 30.1041L6.66598 29.2521ZM41.309 29.2521L40.176 30.1041L41.311 30.9551L42.443 30.1041L41.309 29.2521ZM9.14098 29.2541L8.00798 30.1041L9.14098 30.9551L10.271 30.1041L9.14098 29.2541ZM11.613 29.2541L10.48 30.1041L11.613 30.9551L12.006 30.6601V29.5501L11.613 29.2551V29.2541ZM19.586 29.2541L18.961 29.7231L19.43 30.3481L20.055 29.8771L19.585 29.2541H19.586ZM36.361 29.2541L35.969 29.5491V30.6601L36.361 30.9551L37.494 30.1041L36.361 29.2541ZM38.834 29.2541L37.704 30.1041L38.834 30.9551L39.967 30.1041L38.834 29.2541ZM15.32 29.2561L14.695 29.7251L15.166 30.3521L15.791 29.8811L15.321 29.2561H15.32ZM33.574 29.4141L32.949 29.8831L33.418 30.5081L34.043 30.0391L33.574 29.4141ZM29.309 29.4161L28.684 29.8861L29.152 30.5101L29.779 30.0411L29.309 29.4161ZM25.045 29.4201L24.42 29.8901L24.889 30.5141L25.514 30.0441L25.044 29.4201H25.045ZM20.779 29.4241L20.154 29.8931L20.623 30.5181L21.248 30.0481L20.779 29.4241ZM16.514 29.4261L15.891 29.8951L16.359 30.5201L16.982 30.0501L16.514 29.4261ZM13.381 29.5141V29.5571L13.402 29.5411L13.381 29.5141ZM30.504 29.5861L29.879 30.0551L30.348 30.6801L30.973 30.2101L30.503 29.5861H30.504ZM26.238 29.5901L25.615 30.0591L26.084 30.6841L26.709 30.2141L26.239 29.5901H26.238ZM21.973 29.5941L21.35 30.0621L21.818 30.6871L22.443 30.2191L21.973 29.5941ZM17.711 29.5961L17.084 30.0661L17.553 30.6891L18.178 30.2191L17.711 29.5961ZM13.445 29.5981L13.381 29.6461V30.6231L13.914 30.2231L13.445 29.5981ZM34.594 29.7151L34.144 30.0531L34.594 30.6531V29.7151ZM31.697 29.7581L31.072 30.2271L31.541 30.8521L32.166 30.3811L31.697 29.7581ZM27.432 29.7601L26.809 30.2291L27.277 30.8541L27.902 30.3841L27.432 29.7601ZM23.168 29.7641L22.545 30.2301L23.014 30.8551L23.637 30.3871L23.168 29.7641ZM18.904 29.7661L18.279 30.2341L18.748 30.8591L19.373 30.3891L18.904 29.7661ZM14.639 29.7681L14.014 30.2381L14.484 30.8631L15.107 30.3951L14.639 29.7681ZM32.891 29.9281L32.268 30.3961L32.736 31.0201L33.361 30.5501L32.891 29.9281ZM28.627 29.9301L28.002 30.3981L28.471 31.0231L29.096 30.5531L28.627 29.9301ZM24.363 29.9321L23.738 30.4021L24.207 31.0271L24.832 30.5571L24.363 29.9321ZM20.098 29.9361L19.473 30.4041L19.943 31.0291L20.566 30.5611L20.098 29.9361ZM15.832 29.9381L15.207 30.4061L15.677 31.0311L16.301 30.5631L15.832 29.9381ZM34.086 30.0961L33.461 30.5641L33.931 31.1891L34.555 30.7211L34.085 30.0961H34.086ZM29.822 30.0981L29.195 30.5681L29.666 31.1931L30.291 30.7231L29.822 30.0981ZM25.557 30.1021L24.932 30.5721L25.4 31.1971L26.027 30.7271L25.557 30.1021ZM21.291 30.1051L20.666 30.5751L21.135 31.1991L21.762 30.7301L21.291 30.1051ZM17.027 30.1091L16.402 30.5791L16.872 31.2011L17.494 30.7321L17.027 30.1091ZM7.90398 30.1821L6.76998 31.0331L7.89998 31.8851L9.03498 31.0331L7.90498 30.1821H7.90398ZM10.377 30.1821L9.24398 31.0331L10.377 31.8831L11.51 31.0331L10.377 30.1821ZM37.597 30.1821L36.465 31.0331L37.598 31.8831L38.73 31.0331L37.598 30.1821H37.597ZM40.07 30.1821L38.94 31.0331L40.074 31.8851L41.205 31.0331L40.07 30.1821ZM5.50798 30.2441V31.8241L6.56098 31.0351L5.50798 30.2451V30.2441ZM42.467 30.2441L41.414 31.0351L42.467 31.8251V30.2451V30.2441ZM31.016 30.2701L30.393 30.7381L30.861 31.3611L31.484 30.8931L31.016 30.2701ZM26.75 30.2711L26.127 30.7411L26.596 31.3651L27.221 30.8961L26.75 30.2711ZM22.486 30.2751L21.861 30.7451L22.331 31.3671L22.955 30.8981L22.486 30.2751ZM18.223 30.2771L17.598 30.7481L18.066 31.3711L18.691 30.9021L18.223 30.2771ZM13.957 30.2811L13.381 30.7131V30.8161L13.801 31.3751L14.426 30.9061L13.957 30.2811ZM32.209 30.4391L31.584 30.9091L32.053 31.5331L32.678 31.0631L32.209 30.4391ZM27.945 30.4411L27.32 30.9111L27.79 31.5351L28.414 31.0661L27.945 30.4411ZM23.68 30.4451L23.057 30.9151L23.525 31.5371L24.148 31.0701L23.68 30.4451ZM19.416 30.4471L18.791 30.9161L19.261 31.5411L19.885 31.0721L19.416 30.4471ZM15.15 30.4491L14.525 30.9191L14.995 31.5431L15.619 31.0741L15.15 30.4491ZM33.404 30.6091L32.779 31.0791L33.248 31.7031L33.873 31.2331L33.404 30.6091ZM29.139 30.6111L28.514 31.0811L28.984 31.7051L29.607 31.2361L29.139 30.6111ZM24.875 30.6151L24.25 31.0841L24.719 31.7091L25.346 31.2401L24.875 30.6151ZM20.609 30.6171L19.986 31.0861L20.456 31.7111L21.08 31.2421L20.61 30.6171H20.609ZM16.346 30.6211L15.721 31.0901L16.189 31.7131L16.812 31.2441L16.346 30.6211ZM30.334 30.7811L29.709 31.2521L30.178 31.8751L30.803 31.4051L30.334 30.7811ZM34.594 30.7811L33.974 31.2461L34.444 31.8731L34.594 31.7601V30.7811ZM26.068 30.7831L25.443 31.2531L25.913 31.8791L26.539 31.4091L26.069 30.7831H26.068ZM21.805 30.7871L21.178 31.2571L21.646 31.8811L22.271 31.4111L21.805 30.7871ZM17.539 30.7911L16.916 31.2601L17.383 31.8831L18.008 31.4141L17.539 30.7911ZM12.006 30.8181L11.719 31.0331L12.006 31.2501V30.8181ZM35.969 30.8181V31.2501L36.256 31.0331L35.969 30.8181ZM13.381 30.9341V31.6911L13.744 31.4181L13.381 30.9341ZM31.527 30.9511L30.904 31.4201L31.373 32.0451L31.998 31.5751L31.528 30.9511H31.527ZM27.264 30.9531L26.639 31.4221L27.107 32.0471L27.732 31.5781L27.264 30.9531ZM22.998 30.9571L22.373 31.4261L22.843 32.0511L23.467 31.5821L22.998 30.9571ZM18.734 30.9591L18.109 31.4281L18.579 32.0551L19.203 31.5841L18.734 30.9591ZM14.469 30.9631L13.844 31.4321L14.313 32.0571L14.937 31.5861L14.469 30.9631ZM9.14098 31.1111L8.00598 31.9631L9.13898 32.8131L10.271 31.9611L9.14098 31.1111ZM11.613 31.1111L10.483 31.9631L11.617 32.8141L12.006 32.5241V31.4061L11.613 31.1111ZM36.361 31.1111L35.969 31.4061V32.5231L36.357 32.8141L37.492 31.9631L36.362 31.1111H36.361ZM38.834 31.1111L37.704 31.9611L38.836 32.8131L39.969 31.9631L38.834 31.1111ZM6.66398 31.1131L5.53098 31.9631L6.66398 32.8141L7.79698 31.9631L6.66398 31.1131ZM41.311 31.1131L40.178 31.9631L41.311 32.8141L42.443 31.9631L41.311 31.1131ZM32.723 31.1211L32.098 31.5901L32.566 32.2151L33.191 31.7461L32.723 31.1211ZM28.457 31.1231L27.832 31.5921L28.302 32.2171L28.926 31.7481L28.457 31.1231ZM24.193 31.1271L23.57 31.5961L24.04 32.2211L24.662 31.7521L24.193 31.1271ZM19.928 31.1291L19.305 31.5981L19.773 32.2231L20.398 31.7531L19.928 31.1291ZM15.664 31.1331L15.039 31.6021L15.508 32.2251L16.131 31.7551L15.664 31.1331ZM33.916 31.2911L33.291 31.7601L33.761 32.3851L34.385 31.9161L33.916 31.2911ZM25.386 31.2951L24.762 31.7651L25.23 32.3911L25.857 31.9211L25.387 31.2951H25.386ZM29.652 31.2951L29.027 31.7641L29.497 32.3871L30.121 31.9181L29.652 31.2951ZM21.123 31.2991L20.498 31.7691L20.967 32.3931L21.59 31.9231L21.123 31.2991ZM16.857 31.3031L16.232 31.7711L16.702 32.3961L17.326 31.9281L16.857 31.3031ZM30.846 31.4631L30.221 31.9331L30.689 32.5571L31.316 32.0871L30.846 31.4631ZM26.58 31.4651L25.955 31.9351L26.424 32.5611L27.051 32.0901L26.581 31.4651H26.58ZM22.316 31.4691L21.691 31.9391L22.161 32.5641L22.785 32.0941L22.316 31.4691ZM18.051 31.4731L17.428 31.9411L17.896 32.5661L18.52 32.0981L18.05 31.4731H18.051ZM13.787 31.4751L13.381 31.7791V32.2341L13.631 32.5681L14.256 32.1001L13.787 31.4751ZM32.041 31.6331L31.416 32.1021L31.885 32.7271L32.51 32.2571L32.041 31.6331ZM27.775 31.6351L27.15 32.1041L27.62 32.7291L28.244 32.2591L27.775 31.6351ZM19.246 31.6411L18.621 32.1111L19.09 32.7361L19.715 32.2661L19.246 31.6411ZM23.512 31.6411L22.887 32.1091L23.355 32.7341L23.98 32.2641L23.512 31.6411ZM14.982 31.6451L14.355 32.1151L14.825 32.7381L15.449 32.2681L14.982 31.6451ZM33.234 31.8031L32.609 32.2711L33.079 32.8981L33.703 32.4281L33.234 31.8031ZM28.971 31.8071L28.346 32.2751L28.814 32.8981L29.437 32.4301L28.971 31.8071ZM24.705 31.8091L24.08 32.2771L24.55 32.9021L25.174 32.4341L24.705 31.8091ZM20.441 31.8121L19.816 32.2821L20.286 32.9041L20.908 32.4361L20.441 31.8131V31.8121ZM16.176 31.8141L15.551 32.2841L16.02 32.9081L16.645 32.4391L16.175 31.8141H16.176ZM34.594 31.8481L34.486 31.9281L34.594 32.0721V31.8481ZM34.428 31.9731L33.803 32.4411L34.271 33.0661L34.594 32.8241V32.1941L34.428 31.9731ZM30.164 31.9771L29.539 32.4451L30.008 33.0681L30.633 32.6001L30.164 31.9771ZM25.898 31.9791L25.273 32.4471L25.743 33.0721L26.369 32.6021L25.899 31.9791H25.898ZM21.635 31.9801L21.01 32.4511L21.479 33.0741L22.104 32.6051L21.634 31.9801H21.635ZM17.369 31.9841L16.744 32.4541L17.214 33.0781L17.84 32.6091L17.37 31.9841H17.369ZM7.89998 32.0411L6.76798 32.8931L7.89998 33.7431L9.03298 32.8931L7.89998 32.0401V32.0411ZM10.377 32.0411L9.24398 32.8931L10.379 33.7441L11.514 32.8931L10.377 32.0411ZM37.597 32.0411L36.461 32.8931L37.596 33.7441L38.73 32.8931L37.598 32.0411H37.597ZM40.074 32.0411L38.941 32.8931L40.074 33.7431L41.207 32.8931L40.074 32.0411ZM5.50798 32.1041V33.6821L6.55798 32.8921L5.50798 32.1041ZM42.467 32.1041L41.416 32.8931L42.466 33.6821V32.1041H42.467ZM31.359 32.1441L30.732 32.6151L31.202 33.2381L31.828 32.7701L31.359 32.1451V32.1441ZM27.094 32.1461L26.467 32.6171L26.937 33.2421L27.562 32.7721L27.094 32.1461ZM22.828 32.1521L22.203 32.6221L22.672 33.2461L23.299 32.7771L22.829 32.1521H22.828ZM18.563 32.1541L17.939 32.6231L18.409 33.2481L19.033 32.7791L18.563 32.1541ZM14.301 32.1581L13.676 32.6271L14.143 33.2501L14.768 32.7811L14.301 32.1581ZM32.553 32.3141L31.928 32.7841L32.398 33.4081L33.021 32.9391L32.553 32.3141ZM28.289 32.3181L27.664 32.7881L28.133 33.4101L28.756 32.9411L28.289 32.3181ZM24.021 32.3201L23.398 32.7901L23.868 33.4161L24.492 32.9461L24.022 32.3201H24.021ZM19.76 32.3241L19.133 32.7931L19.602 33.4181L20.227 32.9481L19.76 32.3241ZM15.494 32.3261L14.869 32.7961L15.336 33.4201L15.963 32.9511L15.494 32.3261ZM13.381 32.3561V32.7561L13.572 32.6111L13.381 32.3551V32.3561ZM33.746 32.4841L33.121 32.9541L33.59 33.5781L34.215 33.1091L33.746 32.4841ZM29.482 32.4881L28.857 32.9571L29.327 33.5821L29.951 33.1131L29.482 32.4881ZM25.217 32.4901L24.594 32.9591L25.062 33.5841L25.686 33.1151L25.216 32.4901H25.217ZM20.953 32.4941L20.328 32.9631L20.797 33.5881L21.422 33.1181L20.953 32.4941ZM16.688 32.4961L16.063 32.9651L16.533 33.5901L17.156 33.1211L16.688 32.4961ZM30.676 32.6581L30.051 33.1271L30.52 33.7521L31.145 33.2821L30.675 32.6581H30.676ZM26.412 32.6601L25.785 33.1291L26.255 33.7541L26.881 33.2851L26.412 32.6601ZM22.146 32.6641L21.523 33.1331L21.993 33.7581L22.617 33.2891L22.147 32.6641H22.146ZM17.881 32.6661L17.258 33.1351L17.727 33.7601L18.352 33.2911L17.881 32.6661ZM13.617 32.6701L13.381 32.8481V33.6541L13.461 33.7621L14.086 33.2931L13.617 32.6701ZM12.006 32.6761L11.719 32.8911L12.006 33.1071V32.6761ZM35.969 32.6761V33.1071L36.256 32.8911L35.969 32.6761ZM31.871 32.8261L31.246 33.2961L31.715 33.9221L32.34 33.4521L31.871 32.8261ZM27.607 32.8301L26.98 33.3001L27.45 33.9241L28.074 33.4541L27.607 32.8301ZM23.34 32.8321L22.715 33.3021L23.185 33.9281L23.811 33.4591L23.34 32.8321ZM19.076 32.8361L18.451 33.3051L18.92 33.9301L19.545 33.4601L19.076 32.8361ZM14.812 32.8401L14.188 33.3091L14.656 33.9321L15.281 33.4621L14.812 32.8401ZM34.594 32.9161L34.316 33.1251L34.594 33.4951V32.9161ZM11.614 32.9691L10.48 33.8201L11.613 34.6721L12.006 34.3771V33.2641L11.613 32.9691H11.614ZM36.361 32.9691L35.969 33.2641V34.3771L36.361 34.6721L37.494 33.8201L36.361 32.9691ZM6.66398 32.9711L5.53098 33.8211L6.66398 34.6711L7.79398 33.8211L6.66398 32.9711ZM9.13898 32.9711L8.00598 33.8221L9.14098 34.6741L10.273 33.8241L9.13898 32.9711ZM38.836 32.9711L37.701 33.8241L38.834 34.6741L39.969 33.8221L38.836 32.9711ZM41.311 32.9711L40.18 33.8211L41.31 34.6711L42.443 33.8211L41.311 32.9711ZM33.064 32.9961L32.439 33.4651L32.91 34.0901L33.533 33.6211L33.064 32.9961ZM28.801 33.0001L28.176 33.4691L28.645 34.0941L29.27 33.6251L28.8 33.0001H28.801ZM24.535 33.0021L23.91 33.4711L24.379 34.0961L25.004 33.6271L24.535 33.0021ZM20.271 33.0061L19.645 33.4751L20.115 34.1001L20.74 33.6301L20.271 33.0061ZM16.006 33.0081L15.379 33.4781L15.849 34.1041L16.475 33.6341L16.005 33.0081H16.006ZM34.26 33.1681L33.635 33.6371L34.102 34.2601L34.594 33.8901V33.6131L34.26 33.1681ZM29.994 33.1701L29.369 33.6391L29.838 34.2641L30.463 33.7941L29.994 33.1701ZM25.729 33.1721L25.105 33.6411L25.575 34.2661L26.197 33.7961L25.729 33.1721ZM21.465 33.1761L20.842 33.6451L21.311 34.2701L21.936 33.8001L21.465 33.1761ZM17.199 33.1801L16.576 33.6481L17.045 34.2731L17.67 33.8031L17.2 33.1801H17.199ZM31.187 33.3401L30.562 33.8091L31.033 34.4341L31.658 33.9641L31.188 33.3401H31.187ZM26.924 33.3441L26.299 33.8121L26.768 34.4361L27.393 33.9661L26.923 33.3441H26.924ZM22.658 33.3461L22.035 33.8141L22.504 34.4391L23.129 33.9711L22.659 33.3461H22.658ZM18.395 33.3501L17.77 33.8181L18.238 34.4411L18.863 33.9731L18.395 33.3501ZM14.129 33.3521L13.506 33.8201L13.975 34.4431L14.598 33.9771L14.128 33.3521H14.129ZM32.383 33.5081L31.758 33.9781L32.227 34.6041L32.852 34.1331L32.382 33.5081H32.383ZM28.117 33.5121L27.492 33.9821L27.961 34.6051H27.873L27.436 34.0231L26.811 34.4941L26.895 34.6051H26.805L26.754 34.5371L26.662 34.6051H26.541L26.709 34.4791L26.242 33.8551L25.619 34.3251L25.83 34.6051H25.738L25.561 34.3671L25.244 34.6051H25.121L25.516 34.3091L25.046 33.6841L24.422 34.1541L24.762 34.6051H24.672L24.365 34.1971L23.82 34.6051H23.701L24.322 34.1391L23.854 33.5161L23.227 33.9841L23.693 34.6051H23.605L23.17 34.0271L22.547 34.4971L22.629 34.6051H22.539L22.489 34.5391L22.4 34.6051H22.283L22.447 34.4821L21.977 33.8571L21.354 34.3271L21.563 34.6051H21.473L21.295 34.3691L20.98 34.6051H20.863L21.252 34.3131L20.783 33.6871L20.158 34.1581L20.494 34.6051H20.404L20.102 34.2011L19.562 34.6051H19.442L20.057 34.1431L19.587 33.5181L18.963 33.9881L19.428 34.6051H19.338L18.906 34.0311L18.281 34.5001L18.361 34.6051H18.271L18.225 34.5431L18.141 34.6051H18.02L18.18 34.4851L17.713 33.8611L17.088 34.3311L17.295 34.6051H17.205L17.031 34.3731L16.721 34.6051H16.601L16.988 34.3161L16.518 33.6911L15.893 34.1611L16.227 34.6051H16.139L15.836 34.2031L15.301 34.6051H15.181L15.793 34.1461L15.324 33.5201L14.699 33.9901L15.162 34.6051H15.07L14.64 34.0331L14.018 34.5021L14.096 34.6051H14.004L13.959 34.5451L13.879 34.6051H13.759L13.916 34.4881L13.447 33.8631L13.381 33.9141V34.6071H34.594V33.9821L34.146 34.3181L34.361 34.6051H34.273L34.09 34.3611L33.764 34.6051H33.643L34.045 34.3031L33.578 33.6801L32.953 34.1481L33.297 34.6051H33.207L32.897 34.1911L32.344 34.6051H32.139L31.699 34.0211L31.076 34.4911L31.162 34.6051H31.072L31.018 34.5331L30.922 34.6051H30.805L30.977 34.4771L30.506 33.8521L29.881 34.3201L30.096 34.6051H30.006L29.824 34.3631L29.502 34.6051H29.382L29.782 34.3071L29.312 33.6821L28.687 34.1501L29.029 34.6051H28.939L28.631 34.1931L28.082 34.6051H27.962L28.588 34.1371L28.118 33.5121H28.117ZM13.381 33.7751V33.8221L13.404 33.8051L13.381 33.7751ZM7.89998 33.9001L6.76698 34.7501L7.90298 35.6041L9.03598 34.7521L7.89998 33.9001ZM10.374 33.9001L9.24098 34.7501L10.374 35.6021L11.507 34.7501L10.374 33.9001ZM37.599 33.9001L36.466 34.7501L37.599 35.6021L38.731 34.7501L37.599 33.9001ZM40.073 33.9001L38.937 34.7521L40.069 35.6041L41.206 34.7501L40.073 33.9001ZM5.50698 33.9601V35.5401L6.55698 34.7501L5.50698 33.9601ZM42.466 33.9601L41.415 34.7501L42.465 35.5401V33.9601H42.466ZM12.005 34.5371L11.718 34.7521L12.005 34.9671V34.5371ZM35.968 34.5371V34.9671L36.255 34.7521L35.968 34.5371ZM6.66298 34.8281L5.52998 35.6801L6.66498 36.5331L7.79798 35.6821L6.66298 34.8281ZM9.13598 34.8281L8.00498 35.6801L9.13498 36.5301L10.269 35.6801L9.13598 34.8281ZM38.836 34.8281L37.704 35.6801L38.837 36.5301L39.967 35.6801L38.837 34.8281H38.836ZM41.31 34.8281L40.175 35.6821L41.308 36.5331L42.442 35.6801L41.31 34.8281ZM11.612 34.8301L10.479 35.6821L11.612 36.5321L12.341 35.9821H12.005V35.1251L11.612 34.8301ZM36.36 34.8301L35.968 35.1251V35.9821H35.632L36.36 36.5321L37.493 35.6821L36.36 34.8301ZM7.89998 35.7581L6.76698 36.6091L7.89898 37.4591L9.03198 36.6071L7.89898 35.7571L7.89998 35.7581ZM40.073 35.7581L38.94 36.6081L40.073 37.4591L41.206 36.6091L40.073 35.7581ZM10.376 35.7601L9.24298 36.6101L10.374 37.4591L11.507 36.6091L10.376 35.7591V35.7601ZM37.596 35.7601L36.466 36.6101L37.599 37.4591L38.729 36.6091L37.597 35.7591L37.596 35.7601ZM5.50598 35.8201V37.4021L6.56198 36.6121L5.50698 35.8201H5.50598ZM42.466 35.8201L41.411 36.6111L42.466 37.4021V35.8201ZM12.554 35.9821L11.718 36.6091L12.851 37.4611L13.981 36.6091L13.145 35.9821H12.554ZM13.356 35.9821L14.086 36.5321L14.817 35.9821H13.357H13.356ZM15.024 35.9821L14.19 36.6091L15.325 37.4611L16.46 36.6091L15.626 35.9821H15.024ZM15.833 35.9821L16.563 36.5321L17.293 35.9821H15.833ZM17.501 35.9821L16.667 36.6091L17.8 37.4611L18.933 36.6091L18.099 35.9821H17.501ZM18.306 35.9821L19.036 36.5321L19.769 35.9821H18.306ZM19.976 35.9821L19.14 36.6091L20.272 37.4591L21.405 36.6071L20.573 35.9821H19.976ZM20.778 35.9821L21.508 36.5321L22.239 35.9821H20.779H20.778ZM22.45 35.9821L21.614 36.6091L22.749 37.4611L23.882 36.6091L23.046 35.9821H22.45ZM23.255 35.9821L23.987 36.5321L24.717 35.9821H23.255ZM24.927 35.9821L24.091 36.6091L25.226 37.4611L26.358 36.6091L25.522 35.9821H24.927ZM25.733 35.9821L26.463 36.5321L27.194 35.9821H25.734H25.733ZM27.399 35.9821L26.565 36.6071L27.7 37.4591L28.833 36.6091L27.997 35.9821H27.4H27.399ZM28.204 35.9821L28.937 36.5321L29.667 35.9821H28.204ZM29.874 35.9821L29.038 36.6091L30.171 37.4611L31.306 36.6091L30.472 35.9821H29.874ZM30.679 35.9821L31.409 36.5321L32.139 35.9821H30.679ZM32.347 35.9821L31.513 36.6091L32.647 37.4611L33.782 36.6091L32.948 35.9821H32.347ZM33.155 35.9821L33.885 36.5321L34.616 35.9821H33.156H33.155ZM34.827 35.9821L33.991 36.6091L35.122 37.4611L36.255 36.6091L35.419 35.9821H34.827ZM6.66298 36.6881L5.52598 37.5391L6.65898 38.3911L7.79598 37.5371L6.66298 36.6871V36.6881ZM9.13998 36.6881L8.00698 37.5391L9.13698 38.3891L10.27 37.5371L9.13998 36.6871V36.6881ZM14.085 36.6881L12.955 37.5381L14.089 38.3911L15.219 37.5411L14.085 36.6881ZM16.563 36.6881L15.429 37.5391L16.563 38.3911L17.698 37.5371L16.563 36.6871V36.6881ZM19.038 36.6881L17.905 37.5381L19.036 38.3881L20.169 37.5381L19.039 36.6881H19.038ZM21.511 36.6881L20.378 37.5391L21.511 38.3911L22.645 37.5391L21.511 36.6871V36.6881ZM26.46 36.6881L25.327 37.5391L26.462 38.3911L27.595 37.5391L26.46 36.6871V36.6881ZM28.937 36.6881L27.804 37.5381L28.937 38.3881L30.069 37.5381L28.936 36.6881H28.937ZM31.409 36.6881L30.276 37.5381L31.409 38.3911L32.544 37.5391L31.409 36.6871V36.6881ZM33.888 36.6881L32.753 37.5411L33.883 38.3911L35.019 37.5371L33.888 36.6871V36.6881ZM38.833 36.6881L37.703 37.5381L38.835 38.3881L39.965 37.5391L38.833 36.6871V36.6881ZM41.31 36.6881L40.177 37.5381L41.313 38.3911L42.446 37.5391L41.31 36.6871V36.6881ZM11.612 36.6891L10.482 37.5391L11.612 38.3891L12.745 37.5391L11.612 36.6891ZM23.987 36.6891L22.853 37.5411L23.987 38.3931L25.12 37.5411L23.987 36.6891ZM36.36 36.6891L35.228 37.5391L36.36 38.3891L37.491 37.5391L36.361 36.6891H36.36ZM17.8 37.6151L16.667 38.4671L17.797 39.3181L18.933 38.4651L17.8 37.6151ZM30.17 37.6151L29.04 38.4651L30.175 39.3181L31.305 38.4671L30.171 37.6151H30.17ZM7.90098 37.6171L6.76698 38.4711L7.89698 39.3211L9.03198 38.4671L7.90198 37.6171H7.90098ZM10.376 37.6171L9.24298 38.4691L10.376 39.3191L11.509 38.4671L10.376 37.6171ZM12.849 37.6171L11.716 38.4671L12.851 39.3201L13.983 38.4691L12.849 37.6171ZM20.274 37.6171L19.142 38.4671L20.276 39.3181L21.409 38.4681L20.274 37.6181V37.6171ZM22.751 37.6171L21.616 38.4691L22.749 39.3201L23.884 38.4691L22.751 37.6171ZM25.221 37.6171L24.089 38.4691L25.224 39.3201L26.356 38.4691L25.222 37.6171H25.221ZM27.698 37.6171L26.565 38.4691L27.698 39.3191L28.831 38.4671L27.698 37.6171ZM35.124 37.6171L33.989 38.4691L35.122 39.3201L36.257 38.4671L35.124 37.6171ZM37.597 37.6171L36.464 38.4671L37.597 39.3181L38.729 38.4681L37.597 37.6181V37.6171ZM40.071 37.6171L38.941 38.4671L40.075 39.3201L41.206 38.4701L40.071 37.6171ZM15.323 37.6191L14.193 38.4691L15.325 39.3191L16.456 38.4691L15.323 37.6191ZM32.649 37.6191L31.517 38.4691L32.647 39.3191L33.78 38.4691L32.65 37.6191H32.649ZM5.50698 37.6781V39.2561L6.55698 38.4661L5.50698 37.6781ZM42.466 37.6781L41.415 38.4671L42.465 39.2561V37.6781H42.466ZM11.612 38.5451L10.479 39.3961L11.614 40.2481L12.747 39.3961L11.612 38.5451ZM19.038 38.5451L17.903 39.3961L19.038 40.2481L20.171 39.3961L19.038 38.5451ZM23.988 38.5451L22.853 39.3981L23.987 40.2501L25.12 39.3981L23.987 38.5451H23.988ZM28.935 38.5451L27.8 39.3961L28.935 40.2481L30.069 39.3961L28.935 38.5451ZM36.36 38.5451L35.226 39.3961L36.358 40.2481L37.493 39.3961L36.36 38.5451ZM6.66498 38.5471L5.53198 39.3971L6.66298 40.2471L7.79598 39.3971L6.66498 38.5471ZM9.13998 38.5471L8.00498 39.4001L9.13498 40.2501L10.27 39.3961L9.13998 38.5461V38.5471ZM14.087 38.5471L12.954 39.3981L14.087 40.2481L15.22 39.3981L14.087 38.5471ZM16.56 38.5471L15.429 39.3971L16.562 40.2471L17.692 39.3981L16.56 38.5471ZM21.513 38.5471L20.38 39.3981L21.515 40.2481L22.647 39.3981L21.513 38.5471ZM26.46 38.5471L25.327 39.3981L26.46 40.2481L27.593 39.3981L26.46 38.5471ZM31.413 38.5471L30.28 39.3981L31.411 40.2461L32.544 39.3961L31.414 38.5461L31.413 38.5471ZM33.886 38.5471L32.753 39.3981L33.886 40.2481L35.019 39.3981L33.886 38.5471ZM38.833 38.5471L37.703 39.3971L38.837 40.2501L39.967 39.4001L38.833 38.5471ZM41.308 38.5471L40.177 39.3971L41.31 40.2471L42.44 39.3971L41.308 38.5471ZM10.374 39.4751L9.23898 40.3261L10.374 41.1801L11.509 40.3261L10.374 39.4751ZM12.851 39.4751L11.718 40.3261L12.851 41.1781L13.983 40.3261L12.851 39.4751ZM20.276 39.4751L19.144 40.3281L20.276 41.1781L21.409 40.3261L20.276 39.4751ZM22.749 39.4751L21.616 40.3261L22.751 41.1781L23.884 40.3261L22.749 39.4751ZM25.224 39.4751L24.089 40.3261L25.222 41.1781L26.356 40.3261L25.224 39.4751ZM27.696 39.4751L26.562 40.3261L27.696 41.1781L28.829 40.3281L27.696 39.4751ZM35.122 39.4751L33.989 40.3261L35.122 41.1781L36.255 40.3261L35.122 39.4751ZM37.599 39.4751L36.464 40.3261L37.599 41.1801L38.733 40.3261L37.599 39.4751ZM7.90298 39.4771L6.76998 40.3271L7.90098 41.1761L9.03398 40.3261L7.90398 39.4761L7.90298 39.4771ZM15.323 39.4771L14.19 40.3271L15.323 41.1761L16.456 40.3261L15.323 39.4761V39.4771ZM17.798 39.4771L16.667 40.3271L17.8 41.1771L18.93 40.3281L17.798 39.4771ZM30.175 39.4771L29.042 40.3281L30.172 41.1781L31.306 40.3261L30.175 39.4761V39.4771ZM32.649 39.4771L31.517 40.3271L32.649 41.1761L33.782 40.3261L32.649 39.4761V39.4771ZM40.069 39.4771L38.939 40.3271L40.071 41.1761L41.202 40.3261L40.069 39.4761V39.4771ZM5.50698 39.5391V41.1151L6.55698 40.3261L5.50698 39.5391ZM42.466 39.5391L41.415 40.3261L42.465 41.1161V39.5391H42.466ZM9.13798 40.4041L8.00498 41.2541L9.13998 42.1071L10.272 41.2561L9.13798 40.4041ZM11.614 40.4041L10.479 41.2581L11.612 42.1081L12.747 41.2561L11.614 40.4041ZM14.087 40.4041L12.954 41.2561L14.087 42.1061L15.22 41.2541L14.087 40.4041ZM16.562 40.4041L15.429 41.2561L16.562 42.1071L17.694 41.2561L16.561 40.4041H16.562ZM21.512 40.4041L20.378 41.2561L21.513 42.1071L22.647 41.2561L21.513 40.4041H21.512ZM23.987 40.4041L22.854 41.2561L23.987 42.1061L25.12 41.2561L23.987 40.4041ZM26.46 40.4041L25.325 41.2561L26.46 42.1071L27.595 41.2561L26.46 40.4041ZM31.411 40.4041L30.278 41.2561L31.411 42.1071L32.544 41.2561L31.411 40.4041ZM33.886 40.4041L32.753 41.2541L33.886 42.1051L35.019 41.2551L33.886 40.4051V40.4041ZM36.358 40.4041L35.226 41.2561L36.36 42.1071L37.493 41.2571L36.358 40.4041ZM38.835 40.4041L37.7 41.2561L38.833 42.1071L39.968 41.2541L38.835 40.4041ZM6.66298 40.4061L5.53298 41.2561L6.66298 42.1061L7.79598 41.2561L6.66298 40.4061ZM41.31 40.4061L40.177 41.2561L41.31 42.1061L42.44 41.2561L41.31 40.4061ZM19.036 40.4081L17.906 41.2561L19.038 42.1071L20.168 41.2571L19.036 40.4081ZM28.936 40.4081L27.804 41.2581L28.934 42.1081L30.067 41.2561L28.937 40.4081H28.936ZM22.749 41.3321L21.616 42.1841L22.011 42.4801H21.796L21.509 42.2661L21.222 42.4801H21.017L21.405 42.1881L20.272 41.3361L19.142 42.1841L19.536 42.4801H19.326L19.036 42.2641L18.747 42.4801H18.542L18.932 42.1861L17.8 41.3361L16.667 42.1861L17.06 42.4801H16.853L16.563 42.2641L16.276 42.4801H16.066L16.458 42.1861L15.325 41.3341L14.192 42.1861L14.585 42.4801H14.378L14.087 42.2621L13.797 42.4801H13.587L13.981 42.1841L12.851 41.3341L11.716 42.1861L12.108 42.4801H11.903L11.613 42.2621L11.323 42.4801H11.116L11.509 42.1861L10.376 41.3341L9.24298 42.1861L9.63798 42.4801H9.42698L9.13698 42.2641L8.85098 42.4801H8.64098L9.03398 42.1861L7.89898 41.3341L6.76698 42.1841L7.16298 42.4801H6.95298L6.66098 42.2641L6.37198 42.4801H6.16498L6.55798 42.1861L5.50698 41.3981V42.4821H42.466V41.3981L41.415 42.1861L41.808 42.4801H41.601L41.311 42.2641L41.021 42.4801H40.81L41.206 42.1841L40.073 41.3341L38.938 42.1861L39.331 42.4801H39.122L38.835 42.2641L38.545 42.4801H38.335L38.729 42.1861L37.597 41.3341L36.464 42.1861L36.856 42.4801H36.649L36.36 42.2621L36.07 42.4801H35.864L36.257 42.1861L35.122 41.3341L33.992 42.1841L34.386 42.4801H34.175L33.885 42.2621L33.595 42.4801H33.388L33.78 42.1861L32.647 41.3341L31.515 42.1861L31.907 42.4801H31.697L31.409 42.2641L31.12 42.4801H30.913L31.306 42.1861L30.173 41.3361L29.04 42.1861L29.43 42.4801H29.226L28.936 42.2641L28.647 42.4801H28.437L28.831 42.1841L27.701 41.3361L26.565 42.1881L26.956 42.4801H26.751L26.464 42.2661L26.177 42.4801H25.962L26.356 42.1841L25.222 41.3321L24.089 42.1841L24.485 42.4801H24.278L23.988 42.2621L23.694 42.4801H23.487L23.882 42.1841L22.749 41.3321Z" fill="#333333"/>
</svg>
