<?xml version="1.0" encoding="UTF-8" standalone="no"?>
<!-- Created with Inkscape (http://www.inkscape.org/) -->

<svg
   xmlns:dc="http://purl.org/dc/elements/1.1/"
   xmlns:cc="http://creativecommons.org/ns#"
   xmlns:rdf="http://www.w3.org/1999/02/22-rdf-syntax-ns#"
   xmlns:svg="http://www.w3.org/2000/svg"
   xmlns="http://www.w3.org/2000/svg"
   xmlns:sodipodi="http://sodipodi.sourceforge.net/DTD/sodipodi-0.dtd"
   xmlns:inkscape="http://www.inkscape.org/namespaces/inkscape"
   id="svg8"
   height="48"
   width="48"
   version="1.1"
   viewBox="0 0 12.7 12.7"
   sodipodi:docname="copper_iud_positive.svg"
   inkscape:version="0.92.2 (5c3e80d, 2017-08-06)">
  <defs
     id="defs9" />
  <sodipodi:namedview
     pagecolor="#ffffff"
     bordercolor="#666666"
     borderopacity="1"
     objecttolerance="10"
     gridtolerance="10"
     guidetolerance="10"
     inkscape:pageopacity="0"
     inkscape:pageshadow="2"
     inkscape:window-width="1920"
     inkscape:window-height="1017"
     id="namedview7"
     showgrid="false"
     inkscape:zoom="256"
     inkscape:cx="24.57301581"
     inkscape:cy="12.90728343"
     inkscape:window-x="-8"
     inkscape:window-y="-8"
     inkscape:window-maximized="1"
     inkscape:current-layer="svg8" />
  <title
     id="title4753">UIO-icon</title>
  <metadata
     id="metadata5">
    <rdf:RDF>
      <cc:Work
         rdf:about="">
        <dc:format>image/svg+xml</dc:format>
        <dc:type
           rdf:resource="http://purl.org/dc/dcmitype/StillImage" />
        <dc:title>UIO-icon</dc:title>
        <dc:creator>
          <cc:Agent>
            <dc:title>Joaquín Urbano</dc:title>
          </cc:Agent>
        </dc:creator>
        <dc:rights>
          <cc:Agent>
            <dc:title>GPL</dc:title>
          </cc:Agent>
        </dc:rights>
      </cc:Work>
    </rdf:RDF>
  </metadata>
  <g
     id="layer1"
     transform="translate(0,-284.3)"
     fill="#333">
    <path
       id="rect900"
       d="m 14.244,4.2383 c -0.076123,5.6405e-5 -0.1392,0.056051 -0.16602,0.125 h -6.1366 c -0.45295,0 -0.81836,0.36541 -0.81836,0.81836 0,0.4529 0.3655,0.8183 0.8184,0.8183 h 5.8945 c 0.008138,0.066264 0.052499,0.1192 0.12695,0.11914 0.088753,-6.5764e-5 0.17075,-0.06832 0.18359,-0.1543 L 14.38084,4.3945 C 14.393687,4.30852 14.332874,4.23818 14.24412,4.23825 Z m 0.71876,0 c -0.088753,6.5764e-5 -0.17075,0.07027 -0.18359,0.15625 l -0.23438,1.5703 c -0.012847,0.08598 0.047966,0.15436 0.13672,0.1543 0.088753,-6.5764e-5 0.17075,-0.06832 0.18359,-0.1543 l 0.23438,-1.5703 C 15.112327,4.30857 15.051514,4.23823 14.96276,4.2383 Z m 0.71876,0 c -0.088753,6.5764e-5 -0.17075,0.07027 -0.18359,0.15625 l -0.23438,1.5703 c -0.012847,0.08598 0.047966,0.15436 0.13672,0.1543 0.088753,-6.5764e-5 0.17075,-0.06832 0.18359,-0.1543 l 0.23438,-1.5703 C 15.831087,4.30857 15.770274,4.23823 15.68152,4.2383 Z m 0.7168,0 c -0.088753,6.5764e-5 -0.17075,0.07027 -0.18359,0.15625 l -0.23438,1.5703 c -0.012847,0.08598 0.047966,0.15436 0.13672,0.1543 0.088753,-6.5764e-5 0.17075,-0.06832 0.18359,-0.1543 l 0.23633,-1.5703 C 16.549837,4.30857 16.487071,4.23823 16.39832,4.2383 Z m 0.71876,0 c -0.088753,6.5764e-5 -0.17075,0.07027 -0.18359,0.15625 l -0.23438,1.5703 c -0.012847,0.08598 0.047966,0.15436 0.13672,0.1543 0.088753,-6.5764e-5 0.17075,-0.06832 0.18359,-0.1543 L 17.2538,4.39455 C 17.266647,4.30857 17.205834,4.23823 17.11708,4.2383 Z m 0.71876,0 c -0.088753,6.5764e-5 -0.17075,0.07027 -0.18359,0.15625 l -0.23438,1.5703 c -0.012847,0.08598 0.047966,0.15436 0.13672,0.1543 0.088753,-6.5764e-5 0.17075,-0.06832 0.18359,-0.1543 l 0.23438,-1.5703 C 17.985407,4.30857 17.924594,4.23823 17.83584,4.2383 Z m 0.7168,0 c -0.088753,6.5764e-5 -0.16879,0.07027 -0.18164,0.15625 l -0.23633,1.5703 c -0.012847,0.08598 0.049919,0.15632 0.13867,0.15625 0.088753,-6.5764e-5 0.16879,-0.07027 0.18164,-0.15625 l 0.23633,-1.5703 C 18.704157,4.30857 18.641391,4.23823 18.55264,4.2383 Z m 0.71876,0 c -0.088753,6.5764e-5 -0.17075,0.07027 -0.18359,0.15625 l -0.23438,1.5703 c -0.012847,0.08598 0.047966,0.15436 0.13672,0.1543 0.08,-1e-4 0.141,-0.0528 0.169,-0.1192 h 4.2109 v 3.2754 c -0.067672,0.027559 -0.12299,0.088877 -0.12305,0.16406 -6.587e-5,0.088755 0.068317,0.14957 0.1543,0.13672 l 1.5723,-0.23438 c 0.08598,-0.01285 0.15423,-0.094839 0.1543,-0.18359 0.001,-0.0761 -0.053,-0.1227 -0.122,-0.1289 v -3.0293 h 4.5039 c 0.028011,0.06642 0.089476,0.11909 0.16406,0.11914 0.088753,6.6142e-5 0.14957,-0.06832 0.13672,-0.1543 L 29.5762,4.3945 C 29.563353,4.30852 29.481359,4.23831 29.39261,4.23825 c -0.076337,-5.6564e-5 -0.123,0.055735 -0.12891,0.125 h -9.858 C 19.399793,4.293984 19.35313,4.23819 19.27679,4.23825 Z m 10.83438,0 c -0.088753,-6.5764e-5 -0.14957,0.07027 -0.13672,0.15625 l 0.23438,1.5703 c 0.012847,0.08598 0.094841,0.15423 0.18359,0.1543 0.088753,6.6142e-5 0.14957,-0.06832 0.13672,-0.1543 L 30.28937,4.39455 C 30.276523,4.30857 30.194529,4.23836 30.10578,4.2383 Z m 0.71876,0 c -0.088753,-6.5764e-5 -0.14957,0.07027 -0.13672,0.15625 l 0.23438,1.5703 c 0.012847,0.08598 0.094841,0.15423 0.18359,0.1543 0.088753,6.6142e-5 0.14957,-0.06832 0.13672,-0.1543 L 31.00813,4.39455 C 30.995283,4.30857 30.913289,4.23836 30.82454,4.2383 Z m 0.7168,0 c -0.088753,-6.5764e-5 -0.14957,0.07027 -0.13672,0.15625 l 0.23438,1.5703 c 0.012847,0.08598 0.094841,0.15423 0.18359,0.1543 0.088753,6.6142e-5 0.15152,-0.06832 0.13867,-0.1543 L 31.72493,4.39455 C 31.712083,4.30857 31.630089,4.23836 31.54134,4.2383 Z m 0.71876,0 c -0.088753,-6.5764e-5 -0.14957,0.07027 -0.13672,0.15625 l 0.23438,1.5703 c 0.012847,0.08598 0.094841,0.15423 0.18359,0.1543 0.088753,6.6142e-5 0.14957,-0.06832 0.13672,-0.1543 L 32.44369,4.39455 C 32.430843,4.30857 32.348849,4.23836 32.2601,4.2383 Z m 0.71876,0 c -0.088753,-6.5764e-5 -0.14957,0.07027 -0.13672,0.15625 l 0.23438,1.5703 c 0.012847,0.08598 0.094841,0.15423 0.18359,0.1543 0.088753,6.6142e-5 0.14957,-0.06832 0.13672,-0.1543 L 33.16245,4.39455 C 33.149603,4.30857 33.067609,4.23836 32.97886,4.2383 Z m 0.7168,0 c -0.088753,-6.5764e-5 -0.14957,0.07027 -0.13672,0.15625 l 0.23438,1.5703 c 0.012847,0.08598 0.094841,0.15423 0.18359,0.1543 0.088753,6.6142e-5 0.15152,-0.06832 0.13867,-0.1543 L 33.87925,4.39455 C 33.866403,4.30857 33.786362,4.23836 33.69761,4.2383 Z m 0.71876,0 c -0.088753,-6.5764e-5 -0.14957,0.07027 -0.13672,0.15625 l 0.23438,1.5703 c 0.012847,0.08598 0.094841,0.15423 0.18359,0.1543 0.085,0 0.129,-0.0529 0.137,-0.1192 h 5.6016 c 0.45295,0 0.81836,-0.36541 0.81836,-0.81836 0,-0.45295 -0.36541,-0.81836 -0.81836,-0.81836 h -5.8438 C 34.563655,4.294281 34.500577,4.23829 34.42445,4.23823 Z m -9.4453,5.49998 -1.5723,0.23438 c -0.08598,0.01285 -0.15423,0.094839 -0.1543,0.18359 -6.587e-5,0.088755 0.068317,0.15152 0.1543,0.13867 l 1.5703,-0.23633 c 0.096,-0.013 0.166,-0.0952 0.166,-0.184 0,-0.0888 -0.068,-0.1496 -0.154,-0.1367 z m 0,0.71876 -1.5703,0.23438 c -0.08598,0.01285 -0.15618,0.094839 -0.15625,0.18359 -6.587e-5,0.088755 0.068317,0.14957 0.1543,0.13672 l 1.5723,-0.23438 c 0.08598,-0.01285 0.15423,-0.094839 0.1543,-0.18359 6.583e-5,-0.088755 -0.068317,-0.14957 -0.1543,-0.13672 z m 0,0.71876 -1.5723,0.23438 c -0.08598,0.01285 -0.15423,0.094839 -0.1543,0.18359 -6.587e-5,0.088755 0.068317,0.14957 0.1543,0.13672 l 1.5723,-0.23438 c 0.08598,-0.01285 0.15423,-0.094839 0.1543,-0.18359 6.583e-5,-0.088755 -0.068317,-0.14957 -0.1543,-0.13672 z m 0,0.7168 -1.5703,0.23633 c -0.08598,0.01285 -0.15618,0.09289 -0.15625,0.18164 -6.587e-5,0.088755 0.068317,0.15152 0.1543,0.13867 l 1.582,-0.234 c 0.08598,-0.01285 0.15423,-0.092886 0.1543,-0.18164 6.583e-5,-0.088755 -0.068317,-0.15152 -0.1543,-0.13867 z m 0,0.71876 -1.5703,0.23438 c -0.08598,0.01285 -0.15618,0.094839 -0.15625,0.18359 -6.587e-5,0.088755 0.068317,0.14957 0.1543,0.13672 l 1.5723,-0.23438 c 0.08598,-0.01285 0.15423,-0.094839 0.1543,-0.18359 6.583e-5,-0.088755 -0.068317,-0.14957 -0.1543,-0.13672 z m 0,0.71876 -1.5703,0.23438 c -0.08598,0.01285 -0.15618,0.094839 -0.15625,0.18359 -6.587e-5,0.088755 0.07027,0.14957 0.15625,0.13672 l 1.5703,-0.23438 c 0.08598,-0.01285 0.15423,-0.094839 0.1543,-0.18359 6.583e-5,-0.088755 -0.068317,-0.14957 -0.1543,-0.13672 z m 0,0.7168 -1.5703,0.23633 c -0.08598,0.01285 -0.15618,0.09289 -0.15625,0.18164 v 0.001953 c -6.587e-5,0.088755 0.068317,0.14957 0.1543,0.13672 l 1.5723,-0.23438 c 0.08598,-0.01285 0.15423,-0.094839 0.1543,-0.18359 6.583e-5,-0.088755 -0.068317,-0.15152 -0.1543,-0.13867 z m 0,0.73438 -1.5723,0.23438 c -0.08598,0.01285 -0.15423,0.094839 -0.1543,0.18359 -6.587e-5,0.088755 0.068317,0.14957 0.1543,0.13672 l 1.5703,-0.23438 c 0.08598,-0.01285 0.15618,-0.094839 0.15625,-0.18359 6.583e-5,-0.088755 -0.068317,-0.14957 -0.1543,-0.13672 z m -0.001953,0.71876 -1.5703,0.23438 c -0.08598,0.01285 -0.15423,0.094839 -0.1543,0.18359 -6.587e-5,0.088755 0.068317,0.14957 0.1543,0.13672 l 1.5703,-0.23438 c 0.08598,-0.01285 0.15618,-0.094839 0.15625,-0.18359 6.583e-5,-0.088755 -0.07027,-0.14957 -0.15625,-0.13672 z m 0.001953,0.71876 -1.5723,0.23438 c -0.08598,0.01285 -0.15423,0.094839 -0.1543,0.18359 -6.587e-5,0.088755 0.068317,0.14957 0.1543,0.13672 l 1.5703,-0.23438 c 0.08598,-0.01285 0.15618,-0.094839 0.15625,-0.18359 6.583e-5,-0.088755 -0.068317,-0.14957 -0.1543,-0.13672 z m 0,0.7168 -1.5723,0.23438 c -0.08598,0.01285 -0.15423,0.094839 -0.1543,0.18359 -6.587e-5,0.088755 0.068317,0.15152 0.1543,0.13867 l 1.5703,-0.23633 c 0.08598,-0.01285 0.15618,-0.09289 0.15625,-0.18164 v -0.001953 c 6.583e-5,-0.088755 -0.068317,-0.14956 -0.1543,-0.13672 z m -0.001953,0.71876 -1.5703,0.23438 c -0.08598,0.01285 -0.15423,0.094839 -0.1543,0.18359 -6.587e-5,0.088755 0.068317,0.14957 0.1543,0.13672 l 1.5703,-0.23438 c 0.08598,-0.01285 0.15618,-0.094839 0.15625,-0.18359 6.583e-5,-0.088755 -0.07027,-0.14957 -0.15625,-0.13672 z m 0.001953,0.71876 -1.5703,0.23438 c -0.08598,0.01285 -0.15618,0.094839 -0.15625,0.18359 -6.587e-5,0.088755 0.07027,0.14957 0.15625,0.13672 l 1.5703,-0.23438 c 0.08598,-0.01285 0.15423,-0.094839 0.1543,-0.18359 6.583e-5,-0.088755 -0.068317,-0.14957 -0.1543,-0.13672 z m 0,0.7168 -1.5703,0.23633 c -0.08598,0.01285 -0.15618,0.092886 -0.15625,0.18164 -6.587e-5,0.088755 0.068317,0.15152 0.1543,0.13867 l 1.582,-0.227 c 0.08598,-0.01285 0.15423,-0.09289 0.1543,-0.18164 6.583e-5,-0.088755 -0.068317,-0.15152 -0.1543,-0.13867 z m 0,0.73438 -1.5723,0.23438 c -0.08598,0.01285 -0.15423,0.094839 -0.1543,0.18359 -6.587e-5,0.088755 0.068317,0.14957 0.1543,0.13672 l 1.5703,-0.23438 c 0.08598,-0.01285 0.15618,-0.094839 0.15625,-0.18359 6.583e-5,-0.088755 -0.068317,-0.14957 -0.1543,-0.13672 z m 0,0.71876 -1.5723,0.23438 c -0.08598,0.01285 -0.15423,0.094839 -0.1543,0.18359 -6.587e-5,0.088755 0.068317,0.14957 0.1543,0.13672 l 1.5703,-0.23438 c 0.08598,-0.01285 0.15618,-0.094839 0.15625,-0.18359 6.583e-5,-0.088755 -0.068317,-0.14957 -0.1543,-0.13672 z m 0,0.71876 -1.5723,0.23438 c -0.08598,0.01285 -0.15423,0.094839 -0.1543,0.18359 -6.587e-5,0.088755 0.068317,0.14957 0.1543,0.13672 l 1.5723,-0.23438 c 0.08598,-0.01285 0.15423,-0.094839 0.1543,-0.18359 6.583e-5,-0.088755 -0.068317,-0.14957 -0.1543,-0.13672 z m 0,0.7168 -1.5723,0.23438 c -0.08598,0.01285 -0.15423,0.094839 -0.1543,0.18359 -6.587e-5,0.088755 0.068317,0.14957 0.1543,0.13672 l 1.5703,-0.23438 c 0.08598,-0.01285 0.15618,-0.094839 0.15625,-0.18359 6.583e-5,-0.088755 -0.068317,-0.14957 -0.1543,-0.13672 z m 0,0.71876 -1.5723,0.23438 c -0.08598,0.01285 -0.15423,0.094839 -0.1543,0.18359 -6.587e-5,0.088755 0.068317,0.14957 0.1543,0.13672 l 1.5703,-0.23438 c 0.08598,-0.01285 0.15618,-0.094839 0.15625,-0.18359 6.583e-5,-0.088755 -0.068317,-0.14957 -0.1543,-0.13672 z m 0,0.71876 -1.5723,0.23438 c -0.08598,0.01285 -0.15423,0.094839 -0.1543,0.18359 -6.587e-5,0.088755 0.068317,0.14957 0.1543,0.13672 l 1.5703,-0.23438 c 0.08598,-0.01285 0.15618,-0.094839 0.15625,-0.18359 6.583e-5,-0.088755 -0.068317,-0.14957 -0.1543,-0.13672 z m 0,0.7168 -1.5703,0.23438 c -0.08598,0.01285 -0.15618,0.094839 -0.15625,0.18359 -6.587e-5,0.088755 0.068317,0.15152 0.1543,0.13867 l 1.582,-0.222 c 0.08598,-0.01285 0.15423,-0.094839 0.1543,-0.18359 6.583e-5,-0.088755 -0.068317,-0.14957 -0.1543,-0.13672 z m 0,0.71876 -1.5723,0.23438 c -0.08598,0.01285 -0.15423,0.094839 -0.1543,0.18359 -6.587e-5,0.088755 0.068317,0.14957 0.1543,0.13672 l 1.5703,-0.23438 c 0.08598,-0.01285 0.15618,-0.094839 0.15625,-0.18359 6.583e-5,-0.088755 -0.068317,-0.14957 -0.1543,-0.13672 z m 0,0.73438 -1.5723,0.23438 c -0.08598,0.01285 -0.15423,0.094839 -0.1543,0.18359 -6.587e-5,0.088755 0.068317,0.14957 0.1543,0.13672 l 1.5703,-0.23438 c 0.08598,-0.01285 0.15618,-0.094839 0.15625,-0.18359 6.583e-5,-0.088755 -0.068317,-0.14957 -0.1543,-0.13672 z m -0.001953,0.71876 -1.5703,0.23438 c -0.08598,0.01285 -0.15423,0.094839 -0.1543,0.18359 -6.587e-5,0.088755 0.068317,0.14957 0.1543,0.13672 l 1.58,-0.218 c 0.08598,-0.01285 0.15618,-0.094839 0.15625,-0.18359 6.583e-5,-0.088755 -0.07027,-0.14957 -0.15625,-0.13672 z m 0.001953,0.7168 -1.5723,0.23438 c -0.08598,0.01285 -0.15423,0.094839 -0.1543,0.18359 -6.587e-5,0.088755 0.068317,0.14957 0.1543,0.13672 l 1.5703,-0.23438 c 0.08598,-0.01285 0.15618,-0.094839 0.15625,-0.18359 6.583e-5,-0.088755 -0.068317,-0.14957 -0.1543,-0.13672 z m 0,0.71876 -1.5723,0.23438 c -0.08598,0.01285 -0.15423,0.094839 -0.1543,0.18359 -6.587e-5,0.088755 0.068317,0.14957 0.1543,0.13672 l 1.5703,-0.23438 c 0.08598,-0.01285 0.15618,-0.094839 0.15625,-0.18359 6.583e-5,-0.088755 -0.068317,-0.14957 -0.1543,-0.13672 z m -0.001953,0.71876 -1.5703,0.23438 c -0.08598,0.01285 -0.15423,0.094839 -0.1543,0.18359 -6.587e-5,0.088755 0.068317,0.14957 0.1543,0.13672 l 1.5703,-0.23438 c 0.08598,-0.01285 0.15618,-0.094839 0.15625,-0.18359 6.583e-5,-0.088755 -0.07027,-0.14957 -0.15625,-0.13672 z m 0.001953,0.7168 -1.5703,0.23438 c -0.08598,0.01285 -0.15618,0.094839 -0.15625,0.18359 -6.587e-5,0.088755 0.07027,0.14957 0.15625,0.13672 l 1.5703,-0.23438 c 0.08598,-0.01285 0.15423,-0.094839 0.1543,-0.18359 6.583e-5,-0.088755 -0.068317,-0.14957 -0.1543,-0.13672 z m 0,0.71876 -1.5703,0.23438 c -0.08598,0.01285 -0.15618,0.094839 -0.15625,0.18359 -6.587e-5,0.088755 0.068317,0.14957 0.1543,0.13672 l 1.5723,-0.23438 c 0.08598,-0.01285 0.15423,-0.094839 0.1543,-0.18359 6.583e-5,-0.088755 -0.068317,-0.14957 -0.1543,-0.13672 z m 0,0.73438 -1.5723,0.23438 c -0.08598,0.01285 -0.15423,0.094839 -0.1543,0.18359 -6.587e-5,0.088755 0.068317,0.14957 0.1543,0.13672 l 1.5703,-0.23438 c 0.08598,-0.01285 0.15618,-0.094839 0.15625,-0.18359 6.583e-5,-0.088755 -0.068317,-0.14957 -0.1543,-0.13672 z m 0,0.7168 -1.5723,0.23633 c -0.08598,0.01285 -0.15423,0.09289 -0.1543,0.18164 -6.587e-5,0.088755 0.068317,0.15152 0.1543,0.13867 l 1.5703,-0.23633 c 0.08598,-0.01285 0.15618,-0.092886 0.15625,-0.18164 6.583e-5,-0.088755 -0.068317,-0.15152 -0.1543,-0.13867 z m 0,0.71876 -1.5723,0.23438 c -0.08598,0.01285 -0.15423,0.094839 -0.1543,0.18359 -6.587e-5,0.088755 0.068317,0.14957 0.1543,0.13672 l 1.5723,-0.23438 c 0.08598,-0.01285 0.15423,-0.094839 0.1543,-0.18359 6.583e-5,-0.088755 -0.068317,-0.14957 -0.1543,-0.13672 z m 0,0.71876 -1.5723,0.23438 c -0.08598,0.01285 -0.15423,0.094839 -0.1543,0.18359 -6.587e-5,0.088755 0.068317,0.14957 0.1543,0.13672 l 1.5703,-0.23438 c 0.08598,-0.01285 0.15618,-0.094839 0.15625,-0.18359 6.583e-5,-0.088755 -0.068317,-0.14957 -0.1543,-0.13672 z m 0,0.7168 -1.5723,0.23633 c -0.08598,0.01285 -0.15423,0.094839 -0.1543,0.18359 -6.587e-5,0.088755 0.068317,0.14957 0.1543,0.13672 l 1.5703,-0.23438 c 0.08598,-0.01285 0.15618,-0.094839 0.15625,-0.18359 0.01,-0.065 -0.058,-0.128 -0.144,-0.115 z m 0,0.71876 -1.5723,0.23438 c -0.08598,0.01285 -0.15423,0.094839 -0.1543,0.18359 -6.587e-5,0.088755 0.068317,0.14957 0.1543,0.13672 l 1.5703,-0.23438 c 0.08598,-0.01285 0.15618,-0.094839 0.15625,-0.18359 6.583e-5,-0.088755 -0.068317,-0.14957 -0.1543,-0.13672 z m 0,0.71876 -1.5703,0.23438 c -0.08598,0.01285 -0.15618,0.094839 -0.15625,0.18359 -6.587e-5,0.088755 0.068317,0.14957 0.1543,0.13672 l 1.582,-0.209 c 0.08598,-0.01285 0.15423,-0.094839 0.1543,-0.18359 0,-0.089 -0.07805,-0.1751 -0.16405,-0.1621 z m 0,0.71876 -1.5723,0.23438 c -0.08598,0.01285 -0.15423,0.094839 -0.1543,0.18359 -5.65e-5,0.076132 0.054471,0.12275 0.12305,0.12891 v 1.8398 c -0.70005,0.31936 -1.1496,1.0177 -1.1504,1.7871 -8.62e-5,1.0863 0.88053,1.9669 1.9668,1.9668 0.91335,-0.00162 1.7054,-0.63184 1.9121,-1.5215 1.9567,0.31294 2.3656,0.57425 3.3203,2.6387 0.15462,0.25465 0.37899,0.43731 0.76172,0.25195 1.675,-1.085 1.578,-0.433 2.992,0.859 h 0.65625 c -1.615,-1.5177 -1.9115,-2.4947 -3.3711,-1.5918 -0.62127,0.38248 -0.57796,0.2733 -0.70508,0.013672 -0.9026,-1.8547 -1.5469,-2.2366 -3.5938,-2.6621 -0.026,-0.743 -0.469,-1.407 -1.144,-1.717 v -2.086 c 0.067672,-0.027559 0.12299,-0.088877 0.12305,-0.16406 6.583e-5,-0.088755 -0.078307,-0.174292 -0.16429,-0.161442 z m -0.77734,3.4395 c 0.32781,0.001004 0.61713,0.21443 0.71484,0.52734 h -0.49023 c -0.14238,8.31e-6 -0.25791,0.11348 -0.25781,0.25586 9.893e-5,0.14238 0.11543,0.25782 0.25781,0.25781 h 0.4668 c -0.11679,0.27872 -0.38921,0.46033 -0.69141,0.46094 -0.41544,3.6081e-4 -0.75231,-0.33651 -0.75195,-0.75195 7.1788e-4,-0.41468 0.33727,-0.75036 0.75195,-0.75 z"
       transform="matrix(0.26458,0,0,0.26458,0,284.3)"
       inkscape:connector-curvature="0"
       style="fill-rule:evenodd"
       sodipodi:nodetypes="ccsssccccccccccccccccccccccccccccccccccccccccccccccccccccccccccccccccccccccccccccccccccccccccccccccccccccccccccccccccccccccsssccccccccscccccccccccccccccccccccccccccccccccccccccccccccccccccccccccccccccccccccccccccccccccccccccccccccccccccccccccccccccccccccccccccccccccccccccccccccccccccccccccccccccccccccccccccccccccccccccccccccccccccccccccccccccccccccccccccccccccccccccccccccccccccccccccccccccccccccccccccccccccccccccccccccccccccccccccccccc" />
  </g>
</svg>
