<?xml version="1.0" encoding="UTF-8" standalone="no"?>
<!-- Created with Inkscape (http://www.inkscape.org/) -->
<svg id="svg8" xmlns:rdf="http://www.w3.org/1999/02/22-rdf-syntax-ns#" xmlns="http://www.w3.org/2000/svg" xmlns:osb="http://www.openswatchbook.org/uri/2009/osb" height="48" width="48" version="1.1" xmlns:cc="http://creativecommons.org/ns#" viewBox="0 0 12.7 12.7" xmlns:dc="http://purl.org/dc/elements/1.1/">
 <title id="title4753">UIO-icon</title>
 <metadata id="metadata5">
  <rdf:RDF>
   <cc:Work rdf:about="">
    <dc:format>image/svg+xml</dc:format>
    <dc:type rdf:resource="http://purl.org/dc/dcmitype/StillImage"/>
    <dc:title>UIO-icon</dc:title>
    <dc:creator>
     <cc:Agent>
      <dc:title>Joaquín Urbano</dc:title>
     </cc:Agent>
    </dc:creator>
    <dc:rights>
     <cc:Agent>
      <dc:title>GPL</dc:title>
     </cc:Agent>
    </dc:rights>
   </cc:Work>
  </rdf:RDF>
 </metadata>
 <g id="layer1" transform="translate(0,-284.3)" fill="#333">
  <path id="rect900" d="m14.244 4.2383c-0.076 0-0.139 0.056-0.166 0.125h-6.1366c-0.4529 0-0.8184 0.3654-0.8184 0.8183 0 0.453 0.3655 0.8184 0.8184 0.8184h5.8946c0.008 0.0663 0.052 0.1192 0.127 0.1191 0.089 0 0.171-0.0683 0.183-0.1543l0.235-1.5703c0.013-0.0859-0.048-0.1563-0.137-0.1562zm0.36 0c-0.089 0-0.171 0.0703-0.184 0.1562l-0.234 1.5703c-0.013 0.086 0.048 0.1544 0.136 0.1543 0.089 0 0.171-0.0683 0.184-0.1543l0.234-1.5703c0.013-0.0859-0.048-0.1563-0.136-0.1562zm0.359 0c-0.089 0-0.171 0.0703-0.184 0.1562l-0.234 1.5703c-0.013 0.086 0.048 0.1544 0.137 0.1543 0.088 0 0.17-0.0683 0.183-0.1543l0.235-1.5703c0.012-0.0859-0.048-0.1563-0.137-0.1562zm0.359 0c-0.088 0-0.17 0.0703-0.183 0.1562l-0.235 1.5703c-0.013 0.086 0.048 0.1544 0.137 0.1543 0.089 0 0.171-0.0683 0.184-0.1543l0.234-1.5703c0.013-0.0859-0.048-0.1563-0.137-0.1562zm0.36 0c-0.089 0-0.171 0.0703-0.184 0.1562l-0.234 1.5703c-0.013 0.086 0.048 0.1544 0.136 0.1543 0.089 0 0.171-0.0683 0.184-0.1543l0.234-1.5703c0.013-0.0859-0.048-0.1563-0.136-0.1562zm0.357 0c-0.089 0-0.169 0.0703-0.182 0.1562l-0.236 1.5703c-0.013 0.086 0.05 0.1564 0.139 0.1563s0.171-0.0703 0.183-0.1563l0.235-1.5703c0.013-0.0859-0.048-0.1563-0.137-0.1562h-0.002zm0.359 0c-0.088 0-0.17 0.0703-0.183 0.1562l-0.235 1.5703c-0.012 0.086 0.048 0.1544 0.137 0.1543 0.089 0 0.171-0.0683 0.184-0.1543l0.236-1.5703c0.013-0.0859-0.05-0.1563-0.139-0.1562zm0.36 0c-0.089 0-0.171 0.0703-0.184 0.1562l-0.234 1.5703c-0.013 0.086 0.048 0.1544 0.137 0.1543 0.088 0 0.17-0.0683 0.183-0.1543l0.235-1.5703c0.012-0.0859-0.048-0.1563-0.137-0.1562zm0.359 0c-0.089 0-0.171 0.0703-0.183 0.1562l-0.235 1.5703c-0.013 0.086 0.048 0.1544 0.137 0.1543 0.089 0 0.171-0.0683 0.184-0.1543l0.234-1.5703c0.013-0.0859-0.048-0.1563-0.137-0.1562zm0.36 0c-0.089 0-0.171 0.0703-0.184 0.1562l-0.234 1.5703c-0.013 0.086 0.048 0.1544 0.136 0.1543 0.089 0 0.171-0.0683 0.184-0.1543l0.234-1.5703c0.013-0.0859-0.048-0.1563-0.136-0.1562zm0.359 0c-0.089 0-0.171 0.0703-0.184 0.1562l-0.234 1.5703c-0.013 0.086 0.048 0.1544 0.137 0.1543 0.088 0 0.17-0.0683 0.183-0.1543l0.235-1.5703c0.013-0.0859-0.048-0.1563-0.137-0.1562zm0.359 0c-0.088 0-0.17 0.0703-0.183 0.1562l-0.235 1.5703c-0.013 0.086 0.048 0.1564 0.137 0.1563s0.171-0.0703 0.184-0.1563l0.234-1.5703c0.013-0.0859-0.048-0.1563-0.137-0.1562zm0.358 0c-0.089 0-0.169 0.0703-0.182 0.1562l-0.236 1.5703c-0.013 0.086 0.05 0.1564 0.138 0.1563 0.089-0.0001 0.169-0.0703 0.182-0.1563l0.236-1.5703c0.013-0.0859-0.05-0.1563-0.138-0.1562zm0.359 0c-0.089 0-0.171 0.0703-0.183 0.1562l-0.235 1.5703c-0.013 0.086 0.048 0.1544 0.137 0.1543 0.089 0 0.171-0.0683 0.183-0.1543l0.235-1.5703c0.013-0.0859-0.048-0.1563-0.137-0.1562zm0.359 0c-0.088 0-0.17 0.0703-0.183 0.1562l-0.234 1.5703c-0.013 0.086 0.047 0.1544 0.136 0.1543 0.075 0 0.136-0.0527 0.164-0.1191h4.211v3.2754c-0.067 0.0275-0.123 0.0889-0.123 0.1641 0 0.0887 0.069 0.1495 0.154 0.1367l1.573-0.2344c0.086-0.0129 0.154-0.0948 0.154-0.1836 0-0.0761-0.054-0.1227-0.123-0.1289v-3.0293h4.504c0.028 0.0664 0.089 0.1191 0.164 0.1191 0.089 0.0001 0.15-0.0683 0.137-0.1543l-0.235-1.5703c-0.013-0.0859-0.095-0.1562-0.183-0.1562-0.077-0.0001-0.123 0.0557-0.129 0.125h-4.258-1.635-3.965c-0.006-0.0693-0.052-0.1251-0.129-0.125zm10.475 0c-0.089-0.0001-0.149 0.0703-0.137 0.1562l0.235 1.5703c0.013 0.086 0.095 0.1543 0.183 0.1543 0.089 0.0001 0.15-0.0683 0.137-0.1543l-0.234-1.5703c-0.013-0.0859-0.095-0.1562-0.184-0.1562zm0.359 0c-0.088-0.0001-0.149 0.0703-0.136 0.1562l0.234 1.5703c0.013 0.086 0.095 0.1543 0.184 0.1543 0.088 0.0001 0.149-0.0683 0.136-0.1543l-0.234-1.5703c-0.013-0.0859-0.095-0.1562-0.184-0.1562zm0.36 0c-0.089-0.0001-0.15 0.0703-0.137 0.1562l0.234 1.5703c0.013 0.086 0.095 0.1562 0.184 0.1563s0.15-0.0703 0.137-0.1563l-0.235-1.5703c-0.012-0.0859-0.094-0.1562-0.183-0.1562zm0.359 0c-0.089-0.0001-0.149 0.0703-0.136 0.1562l0.234 1.5703c0.013 0.086 0.095 0.1543 0.183 0.1543 0.089 0.0001 0.15-0.0683 0.137-0.1543l-0.234-1.5703c-0.013-0.0859-0.095-0.1562-0.184-0.1562zm0.36 0c-0.089-0.0001-0.152 0.0703-0.139 0.1562l0.236 1.5703c0.013 0.086 0.093 0.1543 0.182 0.1543 0.089 0.0001 0.151-0.0683 0.139-0.1543l-0.237-1.5703c-0.013-0.0859-0.093-0.1562-0.181-0.1562zm0.357 0c-0.089-0.0001-0.15 0.0703-0.137 0.1562l0.235 1.5703c0.013 0.086 0.095 0.1543 0.183 0.1543 0.089 0.0001 0.152-0.0683 0.139-0.1543l-0.236-1.5703c-0.013-0.0859-0.095-0.1562-0.184-0.1562zm0.359 0c-0.088-0.0001-0.149 0.0703-0.136 0.1562l0.234 1.5703c0.013 0.086 0.095 0.1543 0.184 0.1543 0.088 0.0001 0.149-0.0683 0.136-0.1543l-0.234-1.5703c-0.013-0.0859-0.095-0.1562-0.184-0.1562zm0.36 0c-0.089-0.0001-0.15 0.0703-0.137 0.1562l0.234 1.5703c0.013 0.086 0.095 0.1543 0.184 0.1543 0.089 0.0001 0.15-0.0683 0.137-0.1543l-0.235-1.5703c-0.012-0.0859-0.094-0.1562-0.183-0.1562zm0.359 0c-0.089-0.0001-0.149 0.0703-0.137 0.1562l0.235 1.5703c0.013 0.086 0.095 0.1562 0.183 0.1563 0.089 0.0001 0.15-0.0703 0.137-0.1563l-0.234-1.5703c-0.013-0.0859-0.095-0.1562-0.184-0.1562zm0.36 0c-0.089-0.0001-0.15 0.0703-0.137 0.1562l0.234 1.5703c0.013 0.086 0.095 0.1543 0.184 0.1543 0.089 0.0001 0.149-0.0683 0.136-0.1543l-0.234-1.5703c-0.013-0.0859-0.095-0.1562-0.183-0.1562zm0.359 0c-0.089-0.0001-0.152 0.0703-0.139 0.1562l0.237 1.5703c0.012 0.086 0.094 0.1543 0.183 0.1543 0.089 0.0001 0.15-0.0683 0.137-0.1543l-0.235-1.5703c-0.012-0.0859-0.094-0.1562-0.183-0.1562zm0.357 0c-0.088-0.0001-0.149 0.0703-0.136 0.1562l0.234 1.5703c0.013 0.086 0.095 0.1543 0.184 0.1543 0.088 0.0001 0.151-0.0683 0.138-0.1543l-0.236-1.5703c-0.013-0.0859-0.093-0.1562-0.182-0.1562h-0.002zm0.36 0c-0.089-0.0001-0.15 0.0703-0.137 0.1562l0.234 1.5703c0.013 0.086 0.095 0.1543 0.184 0.1543 0.089 0.0001 0.15-0.0683 0.137-0.1543l-0.235-1.5703c-0.013-0.0859-0.095-0.1562-0.183-0.1562zm0.359 0c-0.089-0.0001-0.15 0.0703-0.137 0.1562l0.235 1.5703c0.013 0.086 0.095 0.1543 0.183 0.1543 0.075 0.0001 0.119-0.0528 0.127-0.1191h5.602c0.453 0 0.818-0.3654 0.818-0.8184 0-0.4529-0.365-0.8183-0.818-0.8183h-5.844c-0.027-0.069-0.09-0.125-0.166-0.125zm-26.474 0.6387h6.0485l-0.09 0.6035h-5.9585c-0.1668 0-0.3008-0.134-0.3008-0.3008s0.134-0.3027 0.3008-0.3027zm11.396 0h9.986l0.09 0.6035h-4.928v3.6133l-0.601 0.0898v-3.7031h-4.637l0.09-0.6035zm15.334 0h5.758c0.167 0 0.302 0.1359 0.302 0.3027s-0.135 0.3008-0.302 0.3008h-5.668l-0.09-0.6035zm-9.701 4.5019l-1.573 0.2363c-0.085 0.0129-0.154 0.0949-0.154 0.1836 0 0.0888 0.069 0.1496 0.154 0.1367l1.573-0.2343c0.086-0.0129 0.154-0.0949 0.154-0.1836 0-0.0888-0.068-0.1515-0.154-0.1387zm0 0.3594l-1.573 0.2344c-0.085 0.0128-0.154 0.0943-0.154 0.1833s0.069 0.152 0.154 0.139l1.571-0.236c0.086-0.013 0.156-0.0952 0.156-0.184s-0.068-0.1496-0.154-0.1367zm0 0.3597l-1.573 0.234c-0.085 0.013-0.154 0.095-0.154 0.184 0 0.088 0.069 0.149 0.154 0.136l1.571-0.234c0.086-0.013 0.156-0.095 0.156-0.184 0-0.088-0.068-0.149-0.154-0.136zm0 0.359l-1.571 0.234c-0.086 0.013-0.156 0.095-0.156 0.184s0.069 0.15 0.154 0.137l1.573-0.235c0.086-0.013 0.154-0.094 0.154-0.183s-0.068-0.15-0.154-0.137zm0 0.359l-1.571 0.235c-0.086 0.013-0.156 0.095-0.156 0.183 0 0.089 0.069 0.15 0.154 0.137l1.573-0.234c0.086-0.013 0.154-0.095 0.154-0.184s-0.068-0.149-0.154-0.137zm0 0.36l-1.573 0.234c-0.085 0.013-0.154 0.095-0.154 0.184s0.069 0.149 0.154 0.136l1.573-0.234c0.086-0.013 0.154-0.095 0.154-0.184 0-0.088-0.068-0.149-0.154-0.136zm0 0.359l-1.573 0.235c-0.085 0.012-0.154 0.094-0.154 0.183s0.069 0.15 0.154 0.137l1.573-0.235c0.086-0.012 0.154-0.094 0.154-0.183s-0.068-0.15-0.154-0.137zm0 0.358l-1.571 0.236c-0.086 0.013-0.156 0.093-0.156 0.182 0 0.088 0.069 0.151 0.154 0.138l1.573-0.236c0.086-0.013 0.154-0.093 0.154-0.182s-0.068-0.151-0.154-0.138zm0 0.359l-1.573 0.234c-0.085 0.013-0.154 0.095-0.154 0.184s0.069 0.149 0.154 0.137l1.571-0.235c0.086-0.013 0.156-0.095 0.156-0.183 0-0.089-0.068-0.15-0.154-0.137zm0 0.359l-1.571 0.235c-0.086 0.013-0.156 0.095-0.156 0.183 0 0.089 0.069 0.15 0.154 0.137l1.573-0.234c0.086-0.013 0.154-0.095 0.154-0.184s-0.068-0.15-0.154-0.137zm0 0.36l-1.571 0.234c-0.086 0.013-0.156 0.095-0.156 0.184 0 0.088 0.07 0.149 0.156 0.136l1.571-0.234c0.086-0.013 0.154-0.095 0.154-0.184 0-0.088-0.068-0.149-0.154-0.136zm0 0.359l-1.571 0.234c-0.086 0.013-0.156 0.095-0.156 0.184s0.07 0.15 0.156 0.137l1.571-0.235c0.086-0.012 0.154-0.094 0.154-0.183s-0.068-0.15-0.154-0.137zm0 0.359l-1.571 0.235c-0.086 0.013-0.156 0.095-0.156 0.183 0 0.089 0.07 0.15 0.156 0.137l1.571-0.234c0.086-0.013 0.154-0.095 0.154-0.184s-0.068-0.149-0.154-0.137zm0 0.358l-1.571 0.236c-0.086 0.013-0.156 0.093-0.156 0.182v0.002c0 0.089 0.069 0.149 0.154 0.137l1.573-0.235c0.086-0.013 0.154-0.095 0.154-0.183 0-0.089-0.068-0.152-0.154-0.139zm0 0.375l-1.573 0.236c-0.085 0.013-0.154 0.093-0.154 0.182s0.069 0.151 0.154 0.139l1.571-0.237c0.086-0.013 0.156-0.093 0.156-0.181 0-0.089-0.068-0.152-0.154-0.139zm0 0.359l-1.573 0.235c-0.085 0.012-0.154 0.094-0.154 0.183s0.069 0.15 0.154 0.137l1.571-0.234c0.086-0.013 0.156-0.095 0.156-0.184s-0.068-0.15-0.154-0.137zm0 0.36l-1.573 0.234c-0.085 0.013-0.154 0.095-0.154 0.184 0 0.088 0.069 0.149 0.154 0.136l1.571-0.234c0.086-0.013 0.156-0.095 0.156-0.184 0-0.088-0.068-0.149-0.154-0.136zm-0.002 0.359l-1.571 0.234c-0.085 0.013-0.154 0.095-0.154 0.184s0.069 0.15 0.154 0.137l1.571-0.235c0.086-0.013 0.156-0.095 0.156-0.183 0-0.089-0.07-0.15-0.156-0.137zm0.002 0.359l-1.573 0.235c-0.085 0.013-0.154 0.095-0.154 0.183 0 0.089 0.069 0.15 0.154 0.137l1.573-0.234c0.086-0.013 0.154-0.095 0.154-0.184s-0.068-0.149-0.154-0.137zm0 0.36l-1.573 0.234c-0.085 0.013-0.154 0.095-0.154 0.184 0 0.088 0.069 0.149 0.154 0.136l1.571-0.234c0.086-0.013 0.156-0.095 0.156-0.184 0-0.088-0.068-0.149-0.154-0.136zm0 0.357l-1.573 0.236c-0.085 0.013-0.154 0.095-0.154 0.184s0.069 0.15 0.154 0.137l1.571-0.235c0.086-0.012 0.156-0.094 0.156-0.183s-0.068-0.152-0.154-0.139zm0 0.36l-1.573 0.234c-0.085 0.013-0.154 0.095-0.154 0.184 0 0.088 0.069 0.151 0.154 0.138l1.571-0.236c0.086-0.013 0.156-0.093 0.156-0.182v-0.002c0-0.088-0.068-0.149-0.154-0.136zm0 0.359l-1.573 0.234c-0.085 0.013-0.154 0.095-0.154 0.184s0.069 0.149 0.154 0.137l1.571-0.235c0.086-0.013 0.156-0.095 0.156-0.183 0-0.089-0.068-0.15-0.154-0.137zm-0.002 0.359l-1.571 0.235c-0.085 0.013-0.154 0.095-0.154 0.183 0 0.089 0.069 0.15 0.154 0.137l1.571-0.234c0.086-0.013 0.156-0.095 0.156-0.184s-0.07-0.15-0.156-0.137zm0.002 0.36l-1.573 0.234c-0.085 0.013-0.154 0.095-0.154 0.184 0 0.088 0.069 0.149 0.154 0.136l1.571-0.234c0.086-0.013 0.156-0.095 0.156-0.184 0-0.088-0.068-0.149-0.154-0.136zm0 0.359l-1.571 0.234c-0.086 0.013-0.156 0.095-0.156 0.184s0.07 0.15 0.156 0.137l1.571-0.235c0.086-0.012 0.154-0.094 0.154-0.183s-0.068-0.15-0.154-0.137zm0 0.359l-1.571 0.235c-0.086 0.013-0.156 0.095-0.156 0.183 0 0.089 0.069 0.15 0.154 0.137l1.573-0.234c0.086-0.013 0.154-0.095 0.154-0.184s-0.068-0.149-0.154-0.137zm0 0.358l-1.571 0.236c-0.086 0.013-0.156 0.093-0.156 0.182s0.069 0.151 0.154 0.138l1.573-0.236c0.086-0.013 0.154-0.093 0.154-0.181 0-0.089-0.068-0.152-0.154-0.139zm0 0.359l-1.573 0.235c-0.085 0.012-0.154 0.094-0.154 0.183s0.069 0.15 0.154 0.137l1.571-0.234c0.086-0.013 0.156-0.095 0.156-0.184s-0.068-0.15-0.154-0.137zm0 0.375l-1.573 0.235c-0.085 0.012-0.154 0.094-0.154 0.183s0.069 0.15 0.154 0.137l1.571-0.234c0.086-0.013 0.156-0.095 0.156-0.184s-0.068-0.15-0.154-0.137zm0 0.36l-1.573 0.234c-0.085 0.013-0.154 0.095-0.154 0.184 0 0.088 0.069 0.149 0.154 0.136l1.571-0.234c0.086-0.013 0.156-0.095 0.156-0.184 0-0.088-0.068-0.149-0.154-0.136zm0 0.359l-1.573 0.234c-0.085 0.013-0.154 0.095-0.154 0.184s0.069 0.15 0.154 0.137l1.571-0.235c0.086-0.013 0.156-0.095 0.156-0.183 0-0.089-0.068-0.15-0.154-0.137zm-0.002 0.359l-1.571 0.235c-0.085 0.013-0.154 0.095-0.154 0.183 0 0.089 0.069 0.15 0.154 0.137l1.571-0.234c0.086-0.013 0.156-0.095 0.156-0.184s-0.07-0.15-0.156-0.137zm0.002 0.36l-1.573 0.234c-0.085 0.013-0.154 0.095-0.154 0.184 0 0.088 0.069 0.149 0.154 0.136l1.573-0.234c0.086-0.013 0.154-0.095 0.154-0.184 0-0.088-0.068-0.149-0.154-0.136zm0 0.357l-1.573 0.236c-0.085 0.013-0.154 0.093-0.154 0.182s0.069 0.152 0.154 0.139l1.571-0.237c0.086-0.012 0.156-0.092 0.156-0.181s-0.068-0.152-0.154-0.139zm0 0.36l-1.573 0.234c-0.085 0.013-0.154 0.095-0.154 0.183 0 0.089 0.069 0.15 0.154 0.137l1.571-0.234c0.086-0.013 0.156-0.095 0.156-0.184s-0.068-0.149-0.154-0.136zm0 0.359l-1.573 0.234c-0.085 0.013-0.154 0.095-0.154 0.184s0.069 0.149 0.154 0.137l1.571-0.235c0.086-0.013 0.156-0.095 0.156-0.183 0-0.089-0.068-0.15-0.154-0.137zm0 0.359l-1.573 0.235c-0.085 0.012-0.154 0.094-0.154 0.183s0.069 0.15 0.154 0.137l1.571-0.234c0.086-0.013 0.156-0.095 0.156-0.184s-0.068-0.15-0.154-0.137zm-0.002 0.36l-1.571 0.234c-0.085 0.013-0.154 0.095-0.154 0.184 0 0.088 0.069 0.149 0.154 0.136l1.571-0.234c0.086-0.013 0.156-0.095 0.156-0.184 0-0.088-0.07-0.149-0.156-0.136zm0.002 0.359l-1.573 0.234c-0.085 0.013-0.154 0.095-0.154 0.184s0.069 0.15 0.154 0.137l1.571-0.235c0.086-0.013 0.156-0.095 0.156-0.183 0-0.089-0.068-0.15-0.154-0.137zm0 0.357l-1.571 0.237c-0.086 0.013-0.156 0.095-0.156 0.183 0 0.089 0.07 0.15 0.156 0.137l1.571-0.234c0.086-0.013 0.154-0.095 0.154-0.184s-0.068-0.151-0.154-0.139zm0 0.36l-1.571 0.234c-0.086 0.013-0.156 0.095-0.156 0.184s0.069 0.151 0.154 0.138l1.573-0.236c0.086-0.013 0.154-0.095 0.154-0.183 0-0.089-0.068-0.15-0.154-0.137zm0 0.359l-1.571 0.235c-0.086 0.012-0.156 0.094-0.156 0.183s0.069 0.15 0.154 0.137l1.573-0.235c0.086-0.012 0.154-0.094 0.154-0.183s-0.068-0.15-0.154-0.137zm0 0.36l-1.573 0.234c-0.085 0.013-0.154 0.095-0.154 0.184 0 0.088 0.069 0.149 0.154 0.136l1.571-0.234c0.086-0.013 0.156-0.095 0.156-0.184 0-0.088-0.068-0.149-0.154-0.136zm0 0.375l-1.573 0.234c-0.085 0.013-0.154 0.095-0.154 0.184 0 0.088 0.069 0.149 0.154 0.136l1.571-0.234c0.086-0.013 0.156-0.095 0.156-0.184 0-0.088-0.068-0.149-0.154-0.136zm0 0.359l-1.573 0.234c-0.085 0.013-0.154 0.095-0.154 0.184s0.069 0.149 0.154 0.137l1.571-0.235c0.086-0.013 0.156-0.095 0.156-0.183 0-0.089-0.068-0.15-0.154-0.137zm0 0.359l-1.573 0.235c-0.085 0.013-0.154 0.095-0.154 0.183 0 0.089 0.069 0.15 0.154 0.137l1.571-0.234c0.086-0.013 0.156-0.095 0.156-0.184s-0.068-0.15-0.154-0.137zm-0.002 0.36l-1.571 0.234c-0.085 0.013-0.154 0.095-0.154 0.184 0 0.088 0.069 0.149 0.154 0.136l1.571-0.234c0.086-0.013 0.156-0.095 0.156-0.184 0-0.088-0.07-0.149-0.156-0.136zm0.002 0.357l-1.573 0.234c-0.085 0.013-0.154 0.095-0.154 0.184s0.069 0.152 0.154 0.139l1.573-0.237c0.086-0.012 0.154-0.094 0.154-0.183s-0.068-0.15-0.154-0.137zm0 0.359l-1.573 0.235c-0.085 0.013-0.154 0.095-0.154 0.183 0 0.089 0.069 0.15 0.154 0.137l1.571-0.234c0.086-0.013 0.156-0.095 0.156-0.184s-0.068-0.149-0.154-0.137zm0 0.36l-1.573 0.234c-0.085 0.013-0.154 0.095-0.154 0.184s0.069 0.149 0.154 0.137l1.571-0.235c0.086-0.013 0.156-0.095 0.156-0.183 0-0.089-0.068-0.15-0.154-0.137zm0 0.359l-1.573 0.235c-0.085 0.012-0.154 0.094-0.154 0.183s0.069 0.15 0.154 0.137l1.571-0.234c0.086-0.013 0.156-0.095 0.156-0.184s-0.068-0.15-0.154-0.137zm0 0.36l-1.573 0.234c-0.085 0.013-0.154 0.095-0.154 0.184 0 0.088 0.069 0.149 0.154 0.136l1.571-0.234c0.086-0.013 0.156-0.095 0.156-0.184 0-0.088-0.068-0.149-0.154-0.136zm-0.002 0.359l-1.571 0.234c-0.085 0.013-0.154 0.095-0.154 0.184s0.069 0.15 0.154 0.137l1.571-0.235c0.086-0.013 0.156-0.095 0.156-0.183 0-0.089-0.07-0.15-0.156-0.137zm0.002 0.357l-1.573 0.237c-0.085 0.013-0.154 0.093-0.154 0.181 0 0.089 0.069 0.152 0.154 0.139l1.571-0.236c0.086-0.013 0.156-0.093 0.156-0.182s-0.068-0.151-0.154-0.139zm0 0.36l-1.571 0.234c-0.086 0.013-0.156 0.095-0.156 0.184s0.07 0.149 0.156 0.136l1.571-0.234c0.086-0.013 0.154-0.095 0.154-0.184 0-0.088-0.068-0.149-0.154-0.136zm0 0.359l-1.571 0.235c-0.086 0.012-0.156 0.094-0.156 0.183s0.069 0.15 0.154 0.137l1.573-0.235c0.086-0.012 0.154-0.094 0.154-0.183s-0.068-0.15-0.154-0.137zm0 0.36l-1.571 0.234c-0.086 0.013-0.156 0.095-0.156 0.183 0 0.089 0.069 0.15 0.154 0.137l1.573-0.234c0.086-0.013 0.154-0.095 0.154-0.184s-0.068-0.149-0.154-0.136zm0 0.359l-1.573 0.234c-0.085 0.013-0.154 0.095-0.154 0.184s0.069 0.149 0.154 0.137l1.571-0.235c0.086-0.013 0.156-0.095 0.156-0.183 0-0.089-0.068-0.15-0.154-0.137zm0 0.375l-1.573 0.234c-0.085 0.013-0.154 0.095-0.154 0.184s0.069 0.149 0.154 0.137l1.571-0.235c0.086-0.013 0.156-0.095 0.156-0.183 0-0.089-0.068-0.15-0.154-0.137zm0 0.359l-1.573 0.235c-0.085 0.013-0.154 0.094-0.154 0.183s0.069 0.15 0.154 0.137l1.571-0.234c0.086-0.013 0.156-0.095 0.156-0.184s-0.068-0.15-0.154-0.137zm0 0.358l-1.573 0.236c-0.085 0.013-0.154 0.093-0.154 0.182 0 0.088 0.069 0.151 0.154 0.138l1.571-0.236c0.086-0.013 0.156-0.093 0.156-0.182 0-0.088-0.068-0.151-0.154-0.138zm-0.002 0.359l-1.571 0.234c-0.085 0.013-0.154 0.095-0.154 0.184s0.069 0.152 0.154 0.139l1.571-0.237c0.086-0.012 0.156-0.094 0.156-0.183s-0.07-0.15-0.156-0.137zm0.002 0.359l-1.573 0.235c-0.085 0.013-0.154 0.095-0.154 0.183 0 0.089 0.069 0.15 0.154 0.137l1.573-0.234c0.086-0.013 0.154-0.095 0.154-0.184s-0.068-0.149-0.154-0.137zm0 0.36l-1.573 0.234c-0.085 0.013-0.154 0.095-0.154 0.184s0.069 0.149 0.154 0.137l1.571-0.235c0.086-0.013 0.156-0.095 0.156-0.183 0-0.089-0.068-0.15-0.154-0.137zm0 0.359l-1.573 0.235c-0.085 0.012-0.154 0.094-0.154 0.183s0.069 0.15 0.154 0.137l1.571-0.234c0.086-0.013 0.156-0.095 0.156-0.184s-0.068-0.15-0.154-0.137zm0 0.36l-1.573 0.234c-0.085 0.013-0.154 0.095-0.154 0.184 0 0.088 0.069 0.149 0.154 0.136l1.571-0.234c0.086-0.013 0.156-0.095 0.156-0.184 0-0.088-0.068-0.149-0.154-0.136zm0 0.357l-1.573 0.236c-0.085 0.013-0.154 0.095-0.154 0.184s0.069 0.149 0.154 0.137l1.571-0.235c0.086-0.013 0.156-0.095 0.156-0.183 0-0.089-0.068-0.152-0.154-0.139zm-0.002 0.359l-1.571 0.237c-0.085 0.013-0.154 0.093-0.154 0.181 0 0.089 0.069 0.152 0.154 0.139l1.571-0.236c0.086-0.013 0.156-0.093 0.156-0.182s-0.07-0.151-0.156-0.139zm0.002 0.36l-1.573 0.234c-0.085 0.013-0.154 0.095-0.154 0.184 0 0.088 0.069 0.149 0.154 0.136l1.571-0.234c0.086-0.013 0.156-0.095 0.156-0.184 0-0.088-0.068-0.149-0.154-0.136zm0 0.359l-1.571 0.234c-0.086 0.013-0.156 0.095-0.156 0.184s0.07 0.15 0.156 0.137l1.571-0.235c0.086-0.012 0.154-0.094 0.154-0.183s-0.068-0.15-0.154-0.137zm0 0.36l-1.571 0.234c-0.086 0.013-0.156 0.095-0.156 0.183 0 0.089 0.069 0.15 0.154 0.137l1.573-0.234c0.086-0.013 0.154-0.095 0.154-0.184s-0.068-0.149-0.154-0.136zm0 0.359l-1.571 0.234c-0.086 0.013-0.156 0.095-0.156 0.184s0.069 0.149 0.154 0.137l1.573-0.235c0.086-0.013 0.154-0.095 0.154-0.183 0-0.089-0.068-0.15-0.154-0.137zm0 0.359l-1.573 0.235c-0.085 0.012-0.154 0.094-0.154 0.183 0 0.076 0.055 0.123 0.123 0.129v1.84c-0.7 0.319-1.149 1.018-1.15 1.787 0 1.086 0.88 1.967 1.967 1.967 0.913-0.002 1.705-0.632 1.912-1.522 1.956 0.313 2.365 0.575 3.32 2.639 0.155 0.255 0.379 0.437 0.762 0.252 1.665-1.11 1.568-0.458 2.982 0.834h0.656c-1.615-1.518-1.911-2.495-3.371-1.592-0.621 0.383-0.578 0.274-0.705 0.014-0.902-1.855-1.547-2.237-3.593-2.662-0.027-0.743-0.47-1.407-1.145-1.717v-2.086c0.068-0.028 0.123-0.089 0.123-0.164 0-0.089-0.068-0.15-0.154-0.137zm-0.485 0.393v2.471c0.541 0.124 0.951 0.567 1.032 1.117l-0.662-0.131c-0.129-0.249-0.386-0.406-0.666-0.406-0.415 0-0.751 0.335-0.75 0.75-0.001 0.414 0.335 0.75 0.75 0.75 0.339 0 0.637-0.229 0.724-0.557l0.574 0.113c-0.149 0.599-0.687 1.02-1.304 1.022-0.745 0-1.348-0.604-1.348-1.348 0.001-0.628 0.436-1.173 1.049-1.312v-2.379l0.601-0.09z" fill-rule="evenodd" transform="matrix(.26458 0 0 .26458 0 284.3)"/>
 </g>
</svg>
