<svg width="48" height="48" viewBox="0 0 48 48" fill="none" xmlns="http://www.w3.org/2000/svg">
<path fill-rule="evenodd" clip-rule="evenodd" d="M14.2437 4.23828C14.1677 4.23828 14.1047 4.29428 14.0777 4.36328H7.94119C7.4883 4.36328 7.1228 4.72868 7.1228 5.18157C7.1228 5.63456 7.4883 5.99996 7.94119 5.99996H13.8357C13.8437 6.06626 13.8877 6.11916 13.9627 6.11906C14.0517 6.11906 14.1337 6.05076 14.1457 5.96476L14.3807 4.39448C14.3937 4.30858 14.3327 4.23818 14.2437 4.23828ZM14.6037 4.23828C14.5147 4.23828 14.4327 4.30858 14.4197 4.39448L14.1857 5.96476C14.1727 6.05076 14.2337 6.11916 14.3217 6.11906C14.4107 6.11906 14.4927 6.05076 14.5057 5.96476L14.7397 4.39448C14.7527 4.30858 14.6917 4.23818 14.6037 4.23828ZM14.9627 4.23828C14.8737 4.23828 14.7917 4.30858 14.7787 4.39448L14.5447 5.96476C14.5317 6.05076 14.5927 6.11916 14.6817 6.11906C14.7697 6.11906 14.8517 6.05076 14.8647 5.96476L15.0997 4.39448C15.1117 4.30858 15.0517 4.23818 14.9627 4.23828ZM15.3217 4.23828C15.2337 4.23828 15.1517 4.30858 15.1387 4.39448L14.9037 5.96476C14.8907 6.05076 14.9517 6.11916 15.0407 6.11906C15.1297 6.11906 15.2117 6.05076 15.2247 5.96476L15.4587 4.39448C15.4717 4.30858 15.4107 4.23818 15.3217 4.23828ZM15.6817 4.23828C15.5927 4.23828 15.5107 4.30858 15.4977 4.39448L15.2637 5.96476C15.2507 6.05076 15.3117 6.11916 15.3997 6.11906C15.4887 6.11906 15.5707 6.05076 15.5837 5.96476L15.8177 4.39448C15.8307 4.30858 15.7697 4.23818 15.6817 4.23828ZM16.0387 4.23828C15.9497 4.23828 15.8697 4.30858 15.8567 4.39448L15.6207 5.96476C15.6077 6.05076 15.6707 6.12116 15.7597 6.12106C15.8487 6.12096 15.9307 6.05076 15.9427 5.96476L16.1777 4.39448C16.1907 4.30858 16.1297 4.23818 16.0407 4.23828H16.0387ZM16.3977 4.23828C16.3097 4.23828 16.2277 4.30858 16.2147 4.39448L15.9797 5.96476C15.9677 6.05076 16.0277 6.11916 16.1167 6.11906C16.2057 6.11906 16.2877 6.05076 16.3007 5.96476L16.5367 4.39448C16.5497 4.30858 16.4867 4.23818 16.3977 4.23828ZM16.7577 4.23828C16.6687 4.23828 16.5867 4.30858 16.5737 4.39448L16.3397 5.96476C16.3267 6.05076 16.3877 6.11916 16.4767 6.11906C16.5647 6.11906 16.6467 6.05076 16.6597 5.96476L16.8947 4.39448C16.9067 4.30858 16.8467 4.23818 16.7577 4.23828ZM17.1167 4.23828C17.0277 4.23828 16.9457 4.30858 16.9337 4.39448L16.6987 5.96476C16.6857 6.05076 16.7467 6.11916 16.8357 6.11906C16.9247 6.11906 17.0067 6.05076 17.0197 5.96476L17.2537 4.39448C17.2667 4.30858 17.2057 4.23818 17.1167 4.23828ZM17.4767 4.23828C17.3877 4.23828 17.3057 4.30858 17.2927 4.39448L17.0587 5.96476C17.0457 6.05076 17.1067 6.11916 17.1947 6.11906C17.2837 6.11906 17.3657 6.05076 17.3787 5.96476L17.6127 4.39448C17.6257 4.30858 17.5647 4.23818 17.4767 4.23828ZM17.8357 4.23828C17.7467 4.23828 17.6647 4.30858 17.6517 4.39448L17.4177 5.96476C17.4047 6.05076 17.4657 6.11916 17.5547 6.11906C17.6427 6.11906 17.7247 6.05076 17.7377 5.96476L17.9727 4.39448C17.9857 4.30858 17.9247 4.23818 17.8357 4.23828ZM18.1947 4.23828C18.1067 4.23828 18.0247 4.30858 18.0117 4.39448L17.7767 5.96476C17.7637 6.05076 17.8247 6.12116 17.9137 6.12106C18.0027 6.12096 18.0847 6.05076 18.0977 5.96476L18.3317 4.39448C18.3447 4.30858 18.2837 4.23818 18.1947 4.23828ZM18.5527 4.23828C18.4637 4.23828 18.3837 4.30858 18.3707 4.39448L18.1347 5.96476C18.1217 6.05076 18.1847 6.12116 18.2727 6.12106C18.3617 6.12096 18.4417 6.05076 18.4547 5.96476L18.6907 4.39448C18.7037 4.30858 18.6407 4.23818 18.5527 4.23828ZM18.9117 4.23828C18.8227 4.23828 18.7407 4.30858 18.7287 4.39448L18.4937 5.96476C18.4807 6.05076 18.5417 6.11916 18.6307 6.11906C18.7197 6.11906 18.8017 6.05076 18.8137 5.96476L19.0487 4.39448C19.0617 4.30858 19.0007 4.23818 18.9117 4.23828ZM19.2707 4.23828C19.1827 4.23828 19.1007 4.30858 19.0877 4.39448L18.8537 5.96476C18.8407 6.05076 18.9007 6.11916 18.9897 6.11906C19.0647 6.11906 19.1257 6.06636 19.1537 5.99996H23.3646V9.27532C23.2976 9.30282 23.2416 9.36422 23.2416 9.43942C23.2416 9.52812 23.3106 9.58891 23.3956 9.57611L24.9686 9.34172C25.0546 9.32882 25.1226 9.24692 25.1226 9.15812C25.1226 9.08202 25.0686 9.03542 24.9996 9.02922V5.99996H29.5035C29.5315 6.06636 29.5925 6.11906 29.6675 6.11906C29.7565 6.11916 29.8175 6.05076 29.8045 5.96476L29.5695 4.39448C29.5565 4.30858 29.4745 4.23828 29.3865 4.23828C29.3095 4.23818 29.2635 4.29398 29.2575 4.36328H24.9996H23.3646H19.3996C19.3936 4.29398 19.3476 4.23818 19.2707 4.23828ZM29.7455 4.23828C29.6565 4.23818 29.5965 4.30858 29.6085 4.39448L29.8435 5.96476C29.8565 6.05076 29.9385 6.11906 30.0265 6.11906C30.1155 6.11916 30.1765 6.05076 30.1635 5.96476L29.9295 4.39448C29.9165 4.30858 29.8345 4.23828 29.7455 4.23828ZM30.1045 4.23828C30.0165 4.23818 29.9555 4.30858 29.9685 4.39448L30.2025 5.96476C30.2155 6.05076 30.2975 6.11906 30.3865 6.11906C30.4745 6.11916 30.5355 6.05076 30.5225 5.96476L30.2885 4.39448C30.2755 4.30858 30.1935 4.23828 30.1045 4.23828ZM30.4645 4.23828C30.3755 4.23818 30.3145 4.30858 30.3275 4.39448L30.5615 5.96476C30.5745 6.05076 30.6565 6.12096 30.7455 6.12106C30.8345 6.12116 30.8955 6.05076 30.8825 5.96476L30.6475 4.39448C30.6355 4.30858 30.5535 4.23828 30.4645 4.23828ZM30.8235 4.23828C30.7345 4.23818 30.6745 4.30858 30.6875 4.39448L30.9215 5.96476C30.9345 6.05076 31.0165 6.11906 31.1045 6.11906C31.1935 6.11916 31.2545 6.05076 31.2415 5.96476L31.0075 4.39448C30.9945 4.30858 30.9125 4.23828 30.8235 4.23828ZM31.1835 4.23828C31.0945 4.23818 31.0315 4.30858 31.0445 4.39448L31.2805 5.96476C31.2935 6.05076 31.3735 6.11906 31.4625 6.11906C31.5515 6.11916 31.6135 6.05076 31.6015 5.96476L31.3645 4.39448C31.3515 4.30858 31.2715 4.23828 31.1835 4.23828ZM31.5405 4.23828C31.4515 4.23818 31.3905 4.30858 31.4035 4.39448L31.6385 5.96476C31.6515 6.05076 31.7335 6.11906 31.8215 6.11906C31.9105 6.11916 31.9735 6.05076 31.9605 5.96476L31.7245 4.39448C31.7115 4.30858 31.6295 4.23828 31.5405 4.23828ZM31.8995 4.23828C31.8115 4.23818 31.7505 4.30858 31.7635 4.39448L31.9975 5.96476C32.0105 6.05076 32.0925 6.11906 32.1815 6.11906C32.2695 6.11916 32.3305 6.05076 32.3175 5.96476L32.0835 4.39448C32.0705 4.30858 31.9885 4.23828 31.8995 4.23828ZM32.2595 4.23828C32.1705 4.23818 32.1095 4.30858 32.1225 4.39448L32.3565 5.96476C32.3695 6.05076 32.4515 6.11906 32.5405 6.11906C32.6295 6.11916 32.6905 6.05076 32.6775 5.96476L32.4425 4.39448C32.4305 4.30858 32.3485 4.23828 32.2595 4.23828ZM32.6185 4.23828C32.5295 4.23818 32.4695 4.30858 32.4815 4.39448L32.7165 5.96476C32.7295 6.05076 32.8115 6.12096 32.8995 6.12106C32.9885 6.12116 33.0495 6.05076 33.0365 5.96476L32.8025 4.39448C32.7895 4.30858 32.7075 4.23828 32.6185 4.23828ZM32.9785 4.23828C32.8895 4.23818 32.8285 4.30858 32.8415 4.39448L33.0755 5.96476C33.0885 6.05076 33.1705 6.11906 33.2595 6.11906C33.3485 6.11916 33.4085 6.05076 33.3955 5.96476L33.1615 4.39448C33.1485 4.30858 33.0665 4.23828 32.9785 4.23828ZM33.3375 4.23828C33.2485 4.23818 33.1855 4.30858 33.1985 4.39448L33.4355 5.96476C33.4475 6.05076 33.5295 6.11906 33.6185 6.11906C33.7075 6.11916 33.7685 6.05076 33.7555 5.96476L33.5205 4.39448C33.5085 4.30858 33.4265 4.23828 33.3375 4.23828ZM33.6945 4.23828C33.6065 4.23818 33.5455 4.30858 33.5585 4.39448L33.7925 5.96476C33.8055 6.05076 33.8875 6.11906 33.9765 6.11906C34.0645 6.11916 34.1275 6.05076 34.1145 5.96476L33.8785 4.39448C33.8655 4.30858 33.7855 4.23828 33.6965 4.23828H33.6945ZM34.0545 4.23828C33.9655 4.23818 33.9045 4.30858 33.9175 4.39448L34.1515 5.96476C34.1645 6.05076 34.2465 6.11906 34.3355 6.11906C34.4245 6.11916 34.4855 6.05076 34.4725 5.96476L34.2375 4.39448C34.2245 4.30858 34.1425 4.23828 34.0545 4.23828ZM34.4135 4.23828C34.3245 4.23818 34.2635 4.30858 34.2765 4.39448L34.5115 5.96476C34.5245 6.05076 34.6065 6.11906 34.6945 6.11906C34.7695 6.11916 34.8135 6.06626 34.8215 5.99996H40.4234C40.8764 5.99996 41.2414 5.63456 41.2414 5.18157C41.2414 4.72868 40.8764 4.36328 40.4234 4.36328H34.5795C34.5525 4.29428 34.4895 4.23828 34.4135 4.23828ZM7.93979 4.87697H13.9882L13.8982 5.48047H7.93979C7.77299 5.48047 7.639 5.34647 7.639 5.17967C7.639 5.01287 7.77299 4.87697 7.93979 4.87697ZM19.3357 4.87697H29.3215L29.4115 5.48047H24.4836V9.09372L23.8826 9.18352V5.48047H19.2457L19.3357 4.87697ZM34.6695 4.87697H40.4274C40.5944 4.87697 40.7294 5.01287 40.7294 5.17967C40.7294 5.34647 40.5944 5.48047 40.4274 5.48047H34.7595L34.6695 4.87697ZM24.9686 9.37882L23.3956 9.61511C23.3106 9.62801 23.2416 9.71001 23.2416 9.79871C23.2416 9.88751 23.3106 9.94831 23.3956 9.93541L24.9686 9.70111C25.0546 9.68821 25.1226 9.60621 25.1226 9.51752C25.1226 9.42872 25.0546 9.36602 24.9686 9.37882ZM24.9686 9.73821L23.3956 9.97261C23.3106 9.98541 23.2416 10.0669 23.2416 10.1559C23.2416 10.2449 23.3106 10.3079 23.3956 10.2949L24.9666 10.0589C25.0526 10.0459 25.1226 9.96371 25.1226 9.87491C25.1226 9.78611 25.0546 9.72531 24.9686 9.73821ZM24.9686 10.0979L23.3956 10.3319C23.3106 10.3449 23.2416 10.4269 23.2416 10.5159C23.2416 10.6039 23.3106 10.6649 23.3956 10.6519L24.9666 10.4179C25.0526 10.4049 25.1226 10.3229 25.1226 10.2339C25.1226 10.1459 25.0546 10.0849 24.9686 10.0979ZM24.9686 10.4569L23.3976 10.6909C23.3116 10.7039 23.2416 10.7859 23.2416 10.8749C23.2416 10.9639 23.3106 11.0249 23.3956 11.0119L24.9686 10.7769C25.0546 10.7639 25.1226 10.6829 25.1226 10.5939C25.1226 10.5049 25.0546 10.4439 24.9686 10.4569ZM24.9686 10.8159L23.3976 11.0509C23.3116 11.0639 23.2416 11.1459 23.2416 11.2339C23.2416 11.3229 23.3106 11.3839 23.3956 11.3709L24.9686 11.1369C25.0546 11.1239 25.1226 11.0419 25.1226 10.9529C25.1226 10.8639 25.0546 10.8039 24.9686 10.8159ZM24.9686 11.1759L23.3956 11.4099C23.3106 11.4229 23.2416 11.5049 23.2416 11.5939C23.2416 11.6829 23.3106 11.7429 23.3956 11.7299L24.9686 11.4959C25.0546 11.4829 25.1226 11.4009 25.1226 11.3119C25.1226 11.2239 25.0546 11.1629 24.9686 11.1759ZM24.9686 11.5349L23.3956 11.7699C23.3106 11.7819 23.2416 11.8639 23.2416 11.9529C23.2416 12.0419 23.3106 12.1029 23.3956 12.0899L24.9686 11.8549C25.0546 11.8429 25.1226 11.7609 25.1226 11.6719C25.1226 11.5829 25.0546 11.5219 24.9686 11.5349ZM24.9686 11.8929L23.3976 12.1289C23.3116 12.1419 23.2416 12.2219 23.2416 12.3109C23.2416 12.3989 23.3106 12.4619 23.3956 12.4489L24.9686 12.2129C25.0546 12.1999 25.1226 12.1199 25.1226 12.0309C25.1226 11.9419 25.0546 11.8799 24.9686 11.8929ZM24.9686 12.2519L23.3956 12.4859C23.3106 12.4989 23.2416 12.5809 23.2416 12.6699C23.2416 12.7589 23.3106 12.8189 23.3956 12.8069L24.9666 12.5719C25.0526 12.5589 25.1226 12.4769 25.1226 12.3889C25.1226 12.2999 25.0546 12.2389 24.9686 12.2519ZM24.9686 12.6109L23.3976 12.8459C23.3116 12.8589 23.2416 12.9409 23.2416 13.0289C23.2416 13.1179 23.3106 13.1789 23.3956 13.1659L24.9686 12.9319C25.0546 12.9189 25.1226 12.8369 25.1226 12.7479C25.1226 12.6589 25.0546 12.5979 24.9686 12.6109ZM24.9686 12.9709L23.3976 13.2049C23.3116 13.2179 23.2416 13.2999 23.2416 13.3889C23.2416 13.4769 23.3116 13.5379 23.3976 13.5249L24.9686 13.2909C25.0546 13.2779 25.1226 13.1959 25.1226 13.1069C25.1226 13.0189 25.0546 12.9579 24.9686 12.9709ZM24.9686 13.3299L23.3976 13.5639C23.3116 13.5769 23.2416 13.6589 23.2416 13.7479C23.2416 13.8369 23.3116 13.8979 23.3976 13.8849L24.9686 13.6499C25.0546 13.6379 25.1226 13.5559 25.1226 13.4669C25.1226 13.3779 25.0546 13.3169 24.9686 13.3299ZM24.9686 13.6889L23.3976 13.9239C23.3116 13.9369 23.2416 14.0189 23.2416 14.1069C23.2416 14.1959 23.3116 14.2569 23.3976 14.2439L24.9686 14.0099C25.0546 13.9969 25.1226 13.9149 25.1226 13.8259C25.1226 13.7369 25.0546 13.6769 24.9686 13.6889ZM24.9686 14.0469L23.3976 14.2829C23.3116 14.2959 23.2416 14.3759 23.2416 14.4649V14.4669C23.2416 14.5559 23.3106 14.6159 23.3956 14.6039L24.9686 14.3689C25.0546 14.3559 25.1226 14.2739 25.1226 14.1859C25.1226 14.0969 25.0546 14.0339 24.9686 14.0469ZM24.9686 14.4219L23.3956 14.6579C23.3106 14.6709 23.2416 14.7509 23.2416 14.8398C23.2416 14.9288 23.3106 14.9908 23.3956 14.9788L24.9666 14.7418C25.0526 14.7288 25.1226 14.6489 25.1226 14.5609C25.1226 14.4719 25.0546 14.4089 24.9686 14.4219ZM24.9686 14.7808L23.3956 15.0158C23.3106 15.0278 23.2416 15.1098 23.2416 15.1988C23.2416 15.2878 23.3106 15.3488 23.3956 15.3358L24.9666 15.1018C25.0526 15.0888 25.1226 15.0068 25.1226 14.9178C25.1226 14.8288 25.0546 14.7678 24.9686 14.7808ZM24.9686 15.1408L23.3956 15.3748C23.3106 15.3878 23.2416 15.4698 23.2416 15.5588C23.2416 15.6468 23.3106 15.7078 23.3956 15.6948L24.9666 15.4608C25.0526 15.4478 25.1226 15.3658 25.1226 15.2768C25.1226 15.1888 25.0546 15.1278 24.9686 15.1408ZM24.9666 15.4998L23.3956 15.7338C23.3106 15.7468 23.2416 15.8288 23.2416 15.9178C23.2416 16.0068 23.3106 16.0678 23.3956 16.0548L24.9666 15.8198C25.0526 15.8068 25.1226 15.7248 25.1226 15.6368C25.1226 15.5478 25.0526 15.4868 24.9666 15.4998ZM24.9686 15.8588L23.3956 16.0938C23.3106 16.1068 23.2416 16.1888 23.2416 16.2768C23.2416 16.3658 23.3106 16.4268 23.3956 16.4138L24.9686 16.1798C25.0546 16.1668 25.1226 16.0848 25.1226 15.9958C25.1226 15.9068 25.0546 15.8468 24.9686 15.8588ZM24.9686 16.2188L23.3956 16.4528C23.3106 16.4658 23.2416 16.5478 23.2416 16.6368C23.2416 16.7248 23.3106 16.7858 23.3956 16.7728L24.9666 16.5388C25.0526 16.5258 25.1226 16.4438 25.1226 16.3548C25.1226 16.2668 25.0546 16.2058 24.9686 16.2188ZM24.9686 16.5758L23.3956 16.8118C23.3106 16.8248 23.2416 16.9068 23.2416 16.9958C23.2416 17.0848 23.3106 17.1458 23.3956 17.1328L24.9666 16.8978C25.0526 16.8858 25.1226 16.8038 25.1226 16.7148C25.1226 16.6258 25.0546 16.5628 24.9686 16.5758ZM24.9686 16.9358L23.3956 17.1698C23.3106 17.1828 23.2416 17.2648 23.2416 17.3538C23.2416 17.4418 23.3106 17.5048 23.3956 17.4918L24.9666 17.2558C25.0526 17.2428 25.1226 17.1628 25.1226 17.0738V17.0718C25.1226 16.9838 25.0546 16.9228 24.9686 16.9358ZM24.9686 17.2948L23.3956 17.5288C23.3106 17.5418 23.2416 17.6238 23.2416 17.7128C23.2416 17.8018 23.3106 17.8618 23.3956 17.8498L24.9666 17.6148C25.0526 17.6018 25.1226 17.5198 25.1226 17.4318C25.1226 17.3428 25.0546 17.2818 24.9686 17.2948ZM24.9666 17.6538L23.3956 17.8888C23.3106 17.9018 23.2416 17.9838 23.2416 18.0718C23.2416 18.1608 23.3106 18.2218 23.3956 18.2088L24.9666 17.9748C25.0526 17.9618 25.1226 17.8798 25.1226 17.7908C25.1226 17.7018 25.0526 17.6408 24.9666 17.6538ZM24.9686 18.0138L23.3956 18.2478C23.3106 18.2608 23.2416 18.3428 23.2416 18.4318C23.2416 18.5198 23.3106 18.5808 23.3956 18.5678L24.9666 18.3338C25.0526 18.3208 25.1226 18.2388 25.1226 18.1498C25.1226 18.0618 25.0546 18.0008 24.9686 18.0138ZM24.9686 18.3728L23.3976 18.6068C23.3116 18.6198 23.2416 18.7018 23.2416 18.7908C23.2416 18.8798 23.3116 18.9408 23.3976 18.9278L24.9686 18.6928C25.0546 18.6808 25.1226 18.5988 25.1226 18.5098C25.1226 18.4208 25.0546 18.3598 24.9686 18.3728ZM24.9686 18.7318L23.3976 18.9668C23.3116 18.9798 23.2416 19.0618 23.2416 19.1498C23.2416 19.2388 23.3106 19.2998 23.3956 19.2868L24.9686 19.0528C25.0546 19.0398 25.1226 18.9578 25.1226 18.8688C25.1226 18.7798 25.0546 18.7198 24.9686 18.7318ZM24.9686 19.0898L23.3976 19.3258C23.3116 19.3388 23.2416 19.4188 23.2416 19.5078C23.2416 19.5968 23.3106 19.6588 23.3956 19.6458L24.9686 19.4098C25.0546 19.3968 25.1226 19.3168 25.1226 19.2288C25.1226 19.1398 25.0546 19.0768 24.9686 19.0898ZM24.9686 19.4488L23.3956 19.6838C23.3106 19.6958 23.2416 19.7778 23.2416 19.8668C23.2416 19.9558 23.3106 20.0168 23.3956 20.0038L24.9666 19.7698C25.0526 19.7568 25.1226 19.6748 25.1226 19.5858C25.1226 19.4968 25.0546 19.4358 24.9686 19.4488ZM24.9686 19.8238L23.3956 20.0588C23.3106 20.0708 23.2416 20.1528 23.2416 20.2418C23.2416 20.3308 23.3106 20.3918 23.3956 20.3788L24.9666 20.1448C25.0526 20.1318 25.1226 20.0498 25.1226 19.9608C25.1226 19.8718 25.0546 19.8108 24.9686 19.8238ZM24.9686 20.1838L23.3956 20.4178C23.3106 20.4308 23.2416 20.5128 23.2416 20.6018C23.2416 20.6898 23.3106 20.7508 23.3956 20.7378L24.9666 20.5038C25.0526 20.4908 25.1226 20.4088 25.1226 20.3198C25.1226 20.2318 25.0546 20.1708 24.9686 20.1838ZM24.9686 20.5428L23.3956 20.7768C23.3106 20.7898 23.2416 20.8718 23.2416 20.9608C23.2416 21.0498 23.3106 21.1108 23.3956 21.0978L24.9666 20.8628C25.0526 20.8498 25.1226 20.7678 25.1226 20.6798C25.1226 20.5908 25.0546 20.5298 24.9686 20.5428ZM24.9666 20.9018L23.3956 21.1368C23.3106 21.1498 23.2416 21.2318 23.2416 21.3198C23.2416 21.4088 23.3106 21.4698 23.3956 21.4568L24.9666 21.2228C25.0526 21.2098 25.1226 21.1278 25.1226 21.0388C25.1226 20.9498 25.0526 20.8888 24.9666 20.9018ZM24.9686 21.2618L23.3956 21.4958C23.3106 21.5088 23.2416 21.5908 23.2416 21.6798C23.2416 21.7678 23.3106 21.8288 23.3956 21.8158L24.9686 21.5818C25.0546 21.5688 25.1226 21.4868 25.1226 21.3978C25.1226 21.3098 25.0546 21.2488 24.9686 21.2618ZM24.9686 21.6188L23.3956 21.8548C23.3106 21.8678 23.2416 21.9478 23.2416 22.0368C23.2416 22.1258 23.3106 22.1888 23.3956 22.1758L24.9666 21.9388C25.0526 21.9268 25.1226 21.8468 25.1226 21.7578C25.1226 21.6688 25.0546 21.6058 24.9686 21.6188ZM24.9686 21.9788L23.3956 22.2128C23.3106 22.2258 23.2416 22.3078 23.2416 22.3958C23.2416 22.4848 23.3106 22.5458 23.3956 22.5328L24.9666 22.2988C25.0526 22.2858 25.1226 22.2038 25.1226 22.1148C25.1226 22.0258 25.0546 21.9658 24.9686 21.9788ZM24.9686 22.3378L23.3956 22.5718C23.3106 22.5848 23.2416 22.6667 23.2416 22.7557C23.2416 22.8447 23.3106 22.9047 23.3956 22.8927L24.9666 22.6578C25.0526 22.6448 25.1226 22.5628 25.1226 22.4748C25.1226 22.3858 25.0546 22.3248 24.9686 22.3378ZM24.9686 22.6967L23.3956 22.9317C23.3106 22.9437 23.2416 23.0257 23.2416 23.1147C23.2416 23.2037 23.3106 23.2647 23.3956 23.2517L24.9666 23.0177C25.0526 23.0047 25.1226 22.9227 25.1226 22.8337C25.1226 22.7447 25.0546 22.6838 24.9686 22.6967ZM24.9666 23.0567L23.3956 23.2907C23.3106 23.3037 23.2416 23.3857 23.2416 23.4747C23.2416 23.5627 23.3106 23.6237 23.3956 23.6107L24.9666 23.3767C25.0526 23.3637 25.1226 23.2817 25.1226 23.1927C25.1226 23.1047 25.0526 23.0437 24.9666 23.0567ZM24.9686 23.4157L23.3956 23.6497C23.3106 23.6627 23.2416 23.7447 23.2416 23.8337C23.2416 23.9227 23.3106 23.9837 23.3956 23.9707L24.9666 23.7357C25.0526 23.7227 25.1226 23.6407 25.1226 23.5527C25.1226 23.4637 25.0546 23.4027 24.9686 23.4157ZM24.9686 23.7727L23.3976 24.0097C23.3116 24.0227 23.2416 24.1047 23.2416 24.1927C23.2416 24.2817 23.3116 24.3427 23.3976 24.3297L24.9686 24.0957C25.0546 24.0827 25.1226 24.0007 25.1226 23.9117C25.1226 23.8227 25.0546 23.7607 24.9686 23.7727ZM24.9686 24.1327L23.3976 24.3667C23.3116 24.3797 23.2416 24.4617 23.2416 24.5507C23.2416 24.6397 23.3106 24.7017 23.3956 24.6887L24.9686 24.4527C25.0546 24.4397 25.1226 24.3577 25.1226 24.2697C25.1226 24.1807 25.0546 24.1197 24.9686 24.1327ZM24.9686 24.4917L23.3976 24.7267C23.3116 24.7387 23.2416 24.8207 23.2416 24.9097C23.2416 24.9987 23.3106 25.0597 23.3956 25.0467L24.9686 24.8117C25.0546 24.7997 25.1226 24.7177 25.1226 24.6287C25.1226 24.5397 25.0546 24.4787 24.9686 24.4917ZM24.9686 24.8517L23.3956 25.0857C23.3106 25.0987 23.2416 25.1807 23.2416 25.2697C23.2416 25.3577 23.3106 25.4187 23.3956 25.4057L24.9666 25.1717C25.0526 25.1587 25.1226 25.0767 25.1226 24.9877C25.1226 24.8997 25.0546 24.8387 24.9686 24.8517ZM24.9686 25.2267L23.3956 25.4607C23.3106 25.4737 23.2416 25.5557 23.2416 25.6447C23.2416 25.7327 23.3106 25.7937 23.3956 25.7807L24.9666 25.5467C25.0526 25.5337 25.1226 25.4517 25.1226 25.3627C25.1226 25.2747 25.0546 25.2137 24.9686 25.2267ZM24.9686 25.5857L23.3956 25.8197C23.3106 25.8327 23.2416 25.9147 23.2416 26.0037C23.2416 26.0927 23.3106 26.1527 23.3956 26.1407L24.9666 25.9057C25.0526 25.8927 25.1226 25.8107 25.1226 25.7227C25.1226 25.6337 25.0546 25.5727 24.9686 25.5857ZM24.9686 25.9447L23.3956 26.1797C23.3106 26.1927 23.2416 26.2747 23.2416 26.3627C23.2416 26.4517 23.3106 26.5127 23.3956 26.4997L24.9666 26.2657C25.0526 26.2527 25.1226 26.1707 25.1226 26.0817C25.1226 25.9927 25.0546 25.9317 24.9686 25.9447ZM24.9666 26.3047L23.3956 26.5387C23.3106 26.5517 23.2416 26.6337 23.2416 26.7227C23.2416 26.8107 23.3106 26.8717 23.3956 26.8587L24.9666 26.6247C25.0526 26.6117 25.1226 26.5297 25.1226 26.4407C25.1226 26.3527 25.0526 26.2917 24.9666 26.3047ZM24.9686 26.6617L23.3956 26.8957C23.3106 26.9087 23.2416 26.9907 23.2416 27.0797C23.2416 27.1687 23.3106 27.2317 23.3956 27.2187L24.9686 26.9817C25.0546 26.9697 25.1226 26.8877 25.1226 26.7987C25.1226 26.7097 25.0546 26.6487 24.9686 26.6617ZM24.9686 27.0207L23.3956 27.2557C23.3106 27.2687 23.2416 27.3507 23.2416 27.4387C23.2416 27.5277 23.3106 27.5887 23.3956 27.5757L24.9666 27.3417C25.0526 27.3287 25.1226 27.2467 25.1226 27.1577C25.1226 27.0687 25.0546 27.0087 24.9686 27.0207ZM24.9686 27.3807L23.3956 27.6147C23.3106 27.6277 23.2416 27.7097 23.2416 27.7987C23.2416 27.8877 23.3106 27.9477 23.3956 27.9357L24.9666 27.7007C25.0526 27.6877 25.1226 27.6057 25.1226 27.5177C25.1226 27.4287 25.0546 27.3677 24.9686 27.3807ZM24.9686 27.7397L23.3956 27.9747C23.3106 27.9867 23.2416 28.0687 23.2416 28.1577C23.2416 28.2467 23.3106 28.3077 23.3956 28.2947L24.9666 28.0607C25.0526 28.0477 25.1226 27.9657 25.1226 27.8767C25.1226 27.7877 25.0546 27.7267 24.9686 27.7397ZM24.9686 28.0997L23.3956 28.3337C23.3106 28.3467 23.2416 28.4287 23.2416 28.5177C23.2416 28.6057 23.3106 28.6667 23.3956 28.6537L24.9666 28.4197C25.0526 28.4067 25.1226 28.3247 25.1226 28.2357C25.1226 28.1477 25.0546 28.0867 24.9686 28.0997ZM24.9666 28.4587L23.3956 28.6927C23.3106 28.7057 23.2416 28.7877 23.2416 28.8767C23.2416 28.9657 23.3106 29.0267 23.3956 29.0137L24.9666 28.7787C25.0526 28.7657 25.1226 28.6837 25.1226 28.5957C25.1226 28.5067 25.0526 28.4457 24.9666 28.4587ZM24.9686 28.8157L23.3956 29.0527C23.3106 29.0657 23.2416 29.1457 23.2416 29.2337C23.2416 29.3227 23.3106 29.3857 23.3956 29.3727L24.9666 29.1367C25.0526 29.1237 25.1226 29.0437 25.1226 28.9547C25.1226 28.8657 25.0546 28.8037 24.9686 28.8157ZM24.9686 29.1757L23.3976 29.4097C23.3116 29.4227 23.2416 29.5047 23.2416 29.5937C23.2416 29.6827 23.3116 29.7427 23.3976 29.7297L24.9686 29.4957C25.0546 29.4827 25.1226 29.4007 25.1226 29.3117C25.1226 29.2237 25.0546 29.1627 24.9686 29.1757ZM24.9686 29.5347L23.3976 29.7697C23.3116 29.7817 23.2416 29.8637 23.2416 29.9527C23.2416 30.0417 23.3106 30.1027 23.3956 30.0897L24.9686 29.8547C25.0546 29.8427 25.1226 29.7607 25.1226 29.6717C25.1226 29.5827 25.0546 29.5217 24.9686 29.5347ZM24.9686 29.8947L23.3976 30.1287C23.3116 30.1417 23.2416 30.2237 23.2416 30.3117C23.2416 30.4007 23.3106 30.4617 23.3956 30.4487L24.9686 30.2147C25.0546 30.2017 25.1226 30.1197 25.1226 30.0307C25.1226 29.9417 25.0546 29.8817 24.9686 29.8947ZM24.9686 30.2537L23.3956 30.4877C23.3106 30.5007 23.2416 30.5827 23.2416 30.6717C23.2416 30.7606 23.3106 30.8206 23.3956 30.8086L24.9666 30.5737C25.0526 30.5606 25.1226 30.4787 25.1226 30.3907C25.1226 30.3017 25.0546 30.2407 24.9686 30.2537ZM24.9686 30.6286L23.3956 30.8626C23.3106 30.8756 23.2416 30.9576 23.2416 31.0466C23.2416 31.1356 23.3106 31.1956 23.3956 31.1836L24.9666 30.9486C25.0526 30.9356 25.1226 30.8536 25.1226 30.7656C25.1226 30.6766 25.0546 30.6156 24.9686 30.6286ZM24.9686 30.9876L23.3956 31.2226C23.3106 31.2356 23.2416 31.3166 23.2416 31.4056C23.2416 31.4946 23.3106 31.5556 23.3956 31.5426L24.9666 31.3086C25.0526 31.2956 25.1226 31.2136 25.1226 31.1246C25.1226 31.0356 25.0546 30.9746 24.9686 30.9876ZM24.9686 31.3456L23.3956 31.5816C23.3106 31.5946 23.2416 31.6746 23.2416 31.7636C23.2416 31.8516 23.3106 31.9146 23.3956 31.9016L24.9666 31.6656C25.0526 31.6526 25.1226 31.5726 25.1226 31.4836C25.1226 31.3956 25.0546 31.3326 24.9686 31.3456ZM24.9666 31.7046L23.3956 31.9386C23.3106 31.9516 23.2416 32.0336 23.2416 32.1226C23.2416 32.2116 23.3106 32.2746 23.3956 32.2616L24.9666 32.0246C25.0526 32.0126 25.1226 31.9306 25.1226 31.8416C25.1226 31.7526 25.0526 31.6916 24.9666 31.7046ZM24.9686 32.0636L23.3956 32.2986C23.3106 32.3116 23.2416 32.3936 23.2416 32.4816C23.2416 32.5706 23.3106 32.6316 23.3956 32.6186L24.9686 32.3846C25.0546 32.3716 25.1226 32.2896 25.1226 32.2006C25.1226 32.1116 25.0546 32.0516 24.9686 32.0636ZM24.9686 32.4236L23.3956 32.6576C23.3106 32.6706 23.2416 32.7526 23.2416 32.8416C23.2416 32.9306 23.3106 32.9906 23.3956 32.9786L24.9666 32.7436C25.0526 32.7306 25.1226 32.6486 25.1226 32.5606C25.1226 32.4716 25.0546 32.4106 24.9686 32.4236ZM24.9686 32.7826L23.3956 33.0176C23.3106 33.0296 23.2416 33.1116 23.2416 33.2006C23.2416 33.2896 23.3106 33.3506 23.3956 33.3376L24.9666 33.1036C25.0526 33.0906 25.1226 33.0086 25.1226 32.9196C25.1226 32.8306 25.0546 32.7696 24.9686 32.7826ZM24.9686 33.1426L23.3956 33.3766C23.3106 33.3896 23.2416 33.4716 23.2416 33.5606C23.2416 33.6486 23.3106 33.7096 23.3956 33.6966L24.9666 33.4626C25.0526 33.4496 25.1226 33.3676 25.1226 33.2786C25.1226 33.1906 25.0546 33.1296 24.9686 33.1426ZM24.9686 33.4996L23.3956 33.7356C23.3106 33.7486 23.2416 33.8306 23.2416 33.9196C23.2416 34.0086 23.3106 34.0686 23.3956 34.0566L24.9666 33.8216C25.0526 33.8086 25.1226 33.7266 25.1226 33.6386C25.1226 33.5496 25.0546 33.4866 24.9686 33.4996ZM24.9666 33.8586L23.3956 34.0956C23.3106 34.1086 23.2416 34.1886 23.2416 34.2766C23.2416 34.3656 23.3106 34.4286 23.3956 34.4156L24.9666 34.1796C25.0526 34.1666 25.1226 34.0866 25.1226 33.9976C25.1226 33.9086 25.0526 33.8466 24.9666 33.8586ZM24.9686 34.2186L23.3956 34.4526C23.3106 34.4656 23.2416 34.5476 23.2416 34.6366C23.2416 34.7246 23.3106 34.7856 23.3956 34.7726L24.9666 34.5386C25.0526 34.5256 25.1226 34.4436 25.1226 34.3546C25.1226 34.2666 25.0546 34.2056 24.9686 34.2186ZM24.9686 34.5776L23.3976 34.8116C23.3116 34.8246 23.2416 34.9066 23.2416 34.9956C23.2416 35.0846 23.3116 35.1456 23.3976 35.1326L24.9686 34.8976C25.0546 34.8856 25.1226 34.8036 25.1226 34.7146C25.1226 34.6256 25.0546 34.5646 24.9686 34.5776ZM24.9686 34.9376L23.3976 35.1716C23.3116 35.1846 23.2416 35.2666 23.2416 35.3546C23.2416 35.4436 23.3106 35.5046 23.3956 35.4916L24.9686 35.2576C25.0546 35.2446 25.1226 35.1626 25.1226 35.0736C25.1226 34.9846 25.0546 34.9246 24.9686 34.9376ZM24.9686 35.2966L23.3976 35.5306C23.3116 35.5436 23.2416 35.6256 23.2416 35.7146C23.2416 35.8036 23.3106 35.8636 23.3956 35.8516L24.9686 35.6166C25.0546 35.6036 25.1226 35.5216 25.1226 35.4336C25.1226 35.3446 25.0546 35.2836 24.9686 35.2966ZM24.9686 35.6556L23.3956 35.8906C23.3106 35.9026 23.2416 35.9846 23.2416 36.0736C23.2416 36.1496 23.2966 36.1966 23.3646 36.2026V38.0426C22.6646 38.3616 22.2156 39.0605 22.2146 39.8295C22.2146 40.9155 23.0946 41.7965 24.1816 41.7965C25.0946 41.7945 25.8866 41.1645 26.0936 40.2745C28.0495 40.5875 28.4585 40.8495 29.4135 42.9135C29.5685 43.1685 29.7925 43.3505 30.1755 43.1655C31.8405 42.0555 31.7435 42.7075 33.1575 43.9995H33.8135C32.1985 42.4815 31.9025 41.5045 30.4425 42.4075C29.8215 42.7905 29.8645 42.6815 29.7375 42.4215C28.8355 40.5665 28.1905 40.1845 26.1446 39.7595C26.1176 39.0165 25.6746 38.3526 24.9996 38.0426V35.9566C25.0676 35.9286 25.1226 35.8676 25.1226 35.7926C25.1226 35.7036 25.0546 35.6426 24.9686 35.6556ZM24.4836 36.0486V38.5196C25.0246 38.6435 25.4346 39.0865 25.5156 39.6365L24.8536 39.5055C24.7246 39.2565 24.4676 39.0995 24.1876 39.0995C23.7726 39.0995 23.4366 39.4345 23.4376 39.8495C23.4366 40.2635 23.7726 40.5995 24.1876 40.5995C24.5266 40.5995 24.8246 40.3705 24.9116 40.0425L25.4856 40.1555C25.3366 40.7545 24.7986 41.1755 24.1816 41.1775C23.4366 41.1775 22.8336 40.5735 22.8336 39.8295C22.8346 39.2015 23.2696 38.6566 23.8826 38.5176V36.1386L24.4836 36.0486Z" fill="#333333"/>
</svg>
