<svg width="48" height="48" viewBox="0 0 48 48" fill="none" xmlns="http://www.w3.org/2000/svg">
<path fill-rule="evenodd" clip-rule="evenodd" d="M19.5812 7.00012C18.485 6.99601 17.3757 7.10148 16.259 7.32238C14.3025 7.70948 12.4964 8.42165 10.8879 9.39269C5.15166 12.8556 1.9257 19.5935 3.32538 26.4747C4.90329 34.1926 11.8539 39.6882 19.8351 39.5255C20.476 40.1114 21.6461 40.3369 22.8312 40.1036C23.9882 39.8749 24.9635 39.2492 25.3469 38.4864C32.8933 35.6673 37.26 27.878 35.675 20.0743C34.1068 12.3649 27.2549 7.02929 19.5812 7.00012ZM19.5012 7.4884C25.0585 7.48808 29.9485 10.2848 32.8156 14.5236C31.5335 17.0316 28.4747 12.8219 28.0051 10.9357C26.5652 16.0964 21.9285 16.687 16.4816 16.9884C13.1161 17.1747 6.97872 17.1031 4.5832 20.1525L3.65937 21.1896C4.68431 13.4615 11.378 7.48891 19.5012 7.4884ZM28.0949 12.4376C28.2698 13.2044 31.3269 17.7107 33.1691 15.0919C34.6358 17.4727 35.4952 20.258 35.4953 23.2462C35.4881 29.9725 31.4104 35.875 24.9523 38.0568C24.6406 39.0281 23.5821 39.4284 22.7805 39.59C21.5743 39.8018 20.2864 39.4093 20.1281 38.9454C19.8924 38.9624 19.7373 38.9947 19.5012 39.0021C10.669 39.0015 3.50722 31.9479 3.50703 23.2462C3.50703 22.8298 3.53742 22.4202 3.56953 22.0118C3.92212 21.6133 4.81026 20.6297 4.81367 20.6114C10.1781 14.5765 24.1578 21.0372 28.0949 12.4376ZM26.1125 19.5821L24.0129 21.8595C25.2712 22.0383 27.2373 22.27 27.9992 22.3536L27.6945 21.5372C26.9341 21.4479 26.1511 21.3592 25.4387 21.2579L26.7082 19.881L26.1125 19.5821ZM18.0969 20.4767L17.5012 20.7755L18.7707 22.1525C18.0583 22.2537 17.2733 22.3424 16.5129 22.4318L16.2082 23.2482C16.9702 23.1645 18.9362 22.9328 20.1945 22.754L18.0969 20.4767ZM41.5051 24.9845L36.673 28.17L36.7707 28.547L41.6047 25.3654L41.5051 24.9845ZM36.9797 30.1212L36.7883 30.4357L45.1652 30.5079L45.3566 30.1974L36.9797 30.1212ZM22.7687 30.7423C20.7433 30.7423 19.0996 31.5234 19.0969 32.4884C19.0964 33.4545 20.741 34.2384 22.7687 34.2384C24.7965 34.2384 26.4392 33.4545 26.4387 32.4884C26.4359 31.5234 24.7942 30.7423 22.7687 30.7423ZM22.7863 31.2345C23.6214 31.2345 24.4205 31.3651 25.008 31.5977C25.5955 31.8303 25.9232 32.1458 25.9191 32.4747C25.9175 32.6377 25.8344 32.7992 25.6745 32.9499C25.5146 33.1005 25.281 33.2375 24.9872 33.3528C24.6933 33.4682 24.3449 33.5597 23.9619 33.6222C23.579 33.6847 23.1688 33.7168 22.7551 33.7169C22.3412 33.7169 21.9318 33.6848 21.5502 33.6223C21.1687 33.5599 20.8226 33.4684 20.5316 33.353C20.2407 33.2376 20.0106 33.1007 19.8545 32.95C19.6985 32.7993 19.6196 32.6378 19.6223 32.4747C19.6268 32.1458 19.9626 31.8305 20.556 31.5979C21.1493 31.3653 21.9515 31.2346 22.7863 31.2345ZM36.2238 32.1173L35.8801 32.3068L40.1379 36.2286L40.4816 36.0392L36.2238 32.1173Z" fill="#333333"/>
</svg>
