<svg width="48" height="48" viewBox="0 0 48 48" fill="none" xmlns="http://www.w3.org/2000/svg">
<path d="M1 21C1 9.96 9.94 1 20.98 1C32.04 1 41 9.96 41 21C41 23.4147 40.5714 25.7298 39.7859 27.8735L36.098 26.3119C36.6822 24.65 37 22.8623 37 21C37 12.16 29.84 5 21 5C12.16 5 5 12.16 5 21C5 29.84 12.16 37 21 37C21.9304 37 22.8421 36.9207 23.7289 36.7685C23.8178 36.9901 23.9175 37.2096 24.0282 37.4264L25.5819 40.469C24.1044 40.8163 22.5637 41 20.98 41C9.94 41 1 32.04 1 21Z" fill="#333333"/>
<path d="M12 16.12L14.12 14L18.36 18.24L14.12 22.48L12 20.36L14.12 18.24L12 16.12Z" fill="#333333"/>
<path d="M28.6 14L30.72 16.12L28.6 18.24L30.72 20.36L28.6 22.48L24.36 18.24L28.6 14Z" fill="#333333"/>
<path d="M21.0001 24C16.9401 24 13.4001 26.22 11.5001 29.5C11.4137 29.6533 11.369 29.8267 11.3705 30.0027C11.372 30.1787 11.4197 30.3512 11.5087 30.503C11.5978 30.6549 11.7252 30.7807 11.8781 30.8679C12.031 30.9551 12.2041 31.0006 12.3801 31L29.6201 31C30.3801 31 30.8801 30.16 30.5001 29.5C29.5386 27.8301 28.1545 26.4428 26.4869 25.4773C24.8193 24.5119 22.927 24.0024 21.0001 24Z" fill="#333333"/>
<path d="M30.022 32.098C30.5864 31.4916 31.5356 31.4576 32.1419 32.022L40.1937 39.5166C40.8001 40.0811 40.8341 41.0302 40.2697 41.6366C39.7052 42.243 38.7561 42.277 38.1497 41.7126L30.098 34.2179C29.4916 33.6535 29.4576 32.7044 30.022 32.098Z" fill="#333333"/>
<path d="M34.6659 27.3414C33.9031 27.0184 33.0228 27.3749 32.6998 28.1378C32.3768 28.9006 32.7333 29.7809 33.4962 30.1039L43.6255 34.3931C44.3883 34.7162 45.2686 34.3596 45.5916 33.5968C45.9146 32.8339 45.5581 31.9536 44.7952 31.6306L34.6659 27.3414Z" fill="#333333"/>
<path d="M25.9624 34.633C26.7002 34.2563 27.6038 34.549 27.9805 35.2868L32.9829 45.0835C33.3597 45.8213 33.067 46.7248 32.3292 47.1016C31.5914 47.4783 30.6879 47.1856 30.3111 46.4478L25.3087 36.6511C24.9319 35.9133 25.2246 35.0098 25.9624 34.633Z" fill="#333333"/>
</svg>
