<svg width="48" height="48" viewBox="0 0 48 48" fill="none" xmlns="http://www.w3.org/2000/svg">
<path fill-rule="evenodd" clip-rule="evenodd" d="M18.9977 7.47448C17.9178 7.47032 16.8219 7.57546 15.7218 7.79615C6.92123 9.56166 1.21681 18.126 2.98232 26.9266C4.53674 34.6355 11.3865 40.1249 19.2488 39.9624C19.8802 40.5475 21.0299 40.7738 22.1974 40.5408C23.3372 40.3121 24.2971 39.6859 24.6748 38.924C32.1088 36.1081 36.4137 28.3275 34.8523 20.5328C33.3074 12.8323 26.5571 7.50366 18.9977 7.47448ZM27.3823 12.9024C27.5677 13.7369 29.536 16.2617 31.6977 16.4415C32.4583 17.7755 33.0298 19.2468 33.3484 20.8348C34.7654 27.914 30.8381 34.9766 24.0766 37.5076C23.0699 39.696 20.4931 39.611 19.1896 38.4331C12.0795 38.5662 5.8909 33.5959 4.48623 26.6247C4.10658 24.7322 4.11944 22.855 4.44955 21.0661C9.73413 15.0382 23.5038 21.4922 27.3823 12.9024ZM25.3999 20.0475L23.3006 22.3246C24.5589 22.5034 26.5256 22.7347 27.2876 22.8183L26.9828 22.0029C26.2224 21.9135 25.438 21.8248 24.7256 21.7236L25.9953 20.3466L25.3999 20.0475ZM17.3838 20.942L16.7884 21.2411L18.0581 22.618C17.3457 22.7192 16.5613 22.808 15.8008 22.8973L15.4961 23.7128C16.2581 23.6292 18.2247 23.3978 19.483 23.219L17.3838 20.942ZM41.3109 26.2325L36.4775 29.4181L36.5763 29.7961L41.4097 26.6134L41.3109 26.2325ZM22.0563 31.2069C20.0309 31.2069 18.3882 31.9885 18.3854 32.9535C18.3849 33.9196 20.0286 34.7029 22.0563 34.7029C24.0841 34.7029 25.7277 33.9196 25.7272 32.9535C25.7245 31.9885 24.0817 31.2069 22.0563 31.2069ZM36.7851 31.3706L36.5932 31.6838L44.9705 31.7572L45.1624 31.4468L36.7851 31.3706ZM36.0289 33.3655L35.6846 33.5545L39.9424 37.4765L40.2867 37.2875L36.0289 33.3655Z" fill="#333333"/>
</svg>
