<svg width="48" height="48" viewBox="0 0 48 48" fill="none" xmlns="http://www.w3.org/2000/svg">
<g clip-path="url(#clip0)">
<path fill-rule="evenodd" clip-rule="evenodd" d="M0.287109 0.357422V48.3574H48.2871V0.357422H0.287109ZM13.4863 7.125H31.0977C31.7597 7.125 32.291 7.65861 32.291 8.32031V29.9688C32.542 30.0467 32.7816 30.1478 33.0176 30.2598C33.0846 30.2918 33.1488 30.3293 33.2148 30.3633C33.3928 30.4583 33.5664 30.5608 33.7324 30.6738C33.7904 30.7128 33.8503 30.75 33.9062 30.791C34.1102 30.941 34.3082 31.1023 34.4902 31.2793L34.5 31.2891C34.71 31.4951 34.906 31.718 35.082 31.957C35.256 32.193 35.41 32.4412 35.543 32.6992C35.664 32.9352 35.7617 33.1797 35.8477 33.4297C35.8687 33.4917 35.8872 33.5542 35.9062 33.6172C35.9673 33.8162 36.0147 34.0177 36.0527 34.2227C36.0647 34.2887 36.0779 34.3539 36.0879 34.4199C36.1259 34.6819 36.1543 34.9459 36.1543 35.2129C36.1543 35.2399 36.1494 35.266 36.1484 35.293C36.1454 35.499 36.1276 35.7042 36.1016 35.9082C36.0916 35.9802 36.0823 36.0501 36.0703 36.1211C36.0323 36.3531 35.984 36.5826 35.916 36.8086C35.864 36.9806 35.8034 37.1504 35.7344 37.3164V37.3184C35.6654 37.4854 35.5879 37.6457 35.5039 37.8047V37.8066C35.4189 37.9646 35.3256 38.1186 35.2266 38.2676H35.2246V38.2695C35.0256 38.5675 34.798 38.8466 34.543 39.1016H34.541C34.362 39.2806 34.1678 39.4417 33.9668 39.5938C33.9628 39.5957 33.96 39.5986 33.957 39.6016C33.952 39.6046 33.9464 39.6083 33.9414 39.6113C33.7794 39.7333 33.6115 39.8443 33.4375 39.9473C33.4055 39.9663 33.3747 39.9859 33.3438 40.0039C33.1538 40.1109 32.9598 40.2109 32.7578 40.2949C32.5918 40.3639 32.421 40.4226 32.25 40.4746C32.121 40.5136 31.9894 40.5452 31.8574 40.5742C31.4634 40.6632 31.0613 40.7129 30.6543 40.7129C30.3823 40.7129 30.1108 40.6914 29.8438 40.6504C29.6348 40.6194 29.4315 40.5648 29.2285 40.5098C29.1905 40.4988 29.1513 40.4954 29.1133 40.4844C29.0953 40.4794 29.0746 40.4757 29.0566 40.4707H29.0547C29.0527 40.4697 29.0518 40.4688 29.0508 40.4688C28.7938 40.3898 28.5457 40.2908 28.3027 40.1758C28.0587 40.0598 27.8237 39.9254 27.5977 39.7734C27.5707 39.7564 27.5416 39.7446 27.5156 39.7266C26.5946 39.0846 25.892 38.177 25.502 37.125H13.4863C12.8243 37.125 12.291 36.5917 12.291 35.9297V8.32031C12.291 7.65831 12.8243 7.125 13.4863 7.125ZM13.6641 7.84961C13.2561 7.84961 12.9277 8.17744 12.9277 8.58594V35.6621C12.9277 36.0711 13.2561 36.4004 13.6641 36.4004H25.2871C25.2781 36.3594 25.2736 36.3174 25.2656 36.2754C25.2456 36.1784 25.2317 36.0906 25.2227 36.0156C25.2067 35.9136 25.1906 35.8129 25.1816 35.7109V35.709C25.1656 35.544 25.1533 35.3789 25.1523 35.2129C25.1523 34.4909 25.2943 33.7754 25.5703 33.1074C25.8473 32.4404 26.2527 31.8352 26.7637 31.3242C27.2737 30.8132 27.8799 30.4069 28.5469 30.1309C28.7129 30.0619 28.8807 30.0012 29.0527 29.9492C29.2977 29.8752 29.5478 29.8252 29.8008 29.7852C29.9018 29.7692 30.0015 29.7502 30.1035 29.7402C30.2415 29.7262 30.3825 29.7218 30.5215 29.7188C30.5625 29.7178 30.6016 29.7129 30.6426 29.7129H30.6621C30.9881 29.7119 31.2907 29.7499 31.5547 29.7949C31.5797 29.7989 31.6059 29.7977 31.6309 29.8027V8.58594C31.6309 8.17754 31.3006 7.84961 30.8926 7.84961H13.6641ZM30.5566 9.16406H30.5703V9.17969C30.5673 9.17339 30.5596 9.17036 30.5566 9.16406ZM15.3672 11.4121H29.4277C29.6107 11.4121 29.7578 11.5592 29.7578 11.7422C29.7578 11.9252 29.6107 12.0723 29.4277 12.0723H15.3672C15.1842 12.0723 15.0371 11.9252 15.0371 11.7422C15.0371 11.5592 15.1842 11.4121 15.3672 11.4121ZM15.3672 13.4121H29.4277C29.6107 13.4121 29.7578 13.5592 29.7578 13.7422C29.7578 13.9252 29.6107 14.0723 29.4277 14.0723H15.3672C15.1842 14.0723 15.0371 13.9252 15.0371 13.7422C15.0371 13.5592 15.1842 13.4121 15.3672 13.4121ZM15.3672 15.4121H29.4277C29.6107 15.4121 29.7578 15.5592 29.7578 15.7422C29.7578 15.9252 29.6107 16.0723 29.4277 16.0723H15.3672C15.1842 16.0723 15.0371 15.9252 15.0371 15.7422C15.0371 15.5592 15.1842 15.4121 15.3672 15.4121ZM15.3672 17.4121H29.4277C29.6107 17.4121 29.7578 17.5592 29.7578 17.7422C29.7578 17.9252 29.6107 18.0723 29.4277 18.0723H15.3672C15.1842 18.0723 15.0371 17.9252 15.0371 17.7422C15.0371 17.5592 15.1842 17.4121 15.3672 17.4121ZM15.3672 19.4121H22.8926C23.0756 19.4121 23.2227 19.5592 23.2227 19.7422C23.2227 19.9252 23.0756 20.0723 22.8926 20.0723H15.3672C15.1842 20.0723 15.0371 19.9252 15.0371 19.7422C15.0371 19.5592 15.1842 19.4121 15.3672 19.4121ZM31.7656 32.9102C31.7006 32.9112 31.6369 32.9373 31.5879 32.9883L31.2715 33.3184L32.3711 34.3809L32.6895 34.0508C32.7875 33.9488 32.7846 33.7885 32.6836 33.6895L31.9492 32.9824H31.9473C31.8963 32.9334 31.8306 32.9092 31.7656 32.9102ZM30.8281 33.7754L29.1367 35.5312C29.0877 35.5822 29.0625 35.6479 29.0625 35.7129C29.0645 35.7779 29.0896 35.8436 29.1406 35.8926L29.875 36.6016C29.977 36.6996 30.1383 36.6958 30.2363 36.5938L31.9297 34.8379L30.8281 33.7754ZM28.8203 36.375L28.6367 37.1543L29.4062 36.9414L28.8203 36.375Z" fill="#333333"/>
</g>
<defs>
<clipPath id="clip0">
<rect width="48" height="48" fill="white"/>
</clipPath>
</defs>
</svg>
