<svg width="48" height="48" viewBox="0 0 48 48" fill="none" xmlns="http://www.w3.org/2000/svg">
<path d="M13.2648 7.21021C12.6028 7.21021 12.0695 7.74353 12.0695 8.40552V36.0149C12.0695 36.6769 12.6028 37.2102 13.2648 37.2102H25.2804C25.6705 38.2622 26.3729 39.1697 27.2935 39.811C28.2141 40.4523 29.3089 40.7968 30.4308 40.7981C31.1531 40.7981 31.8683 40.6558 32.5356 40.3794C33.2029 40.103 33.8092 39.6979 34.3199 39.1872C34.8306 38.6765 35.2358 38.0701 35.5122 37.4029C35.7886 36.7356 35.9308 36.0204 35.9308 35.2981C35.9295 34.1267 35.5543 32.9864 34.8597 32.0431C34.1652 31.0998 33.1877 30.403 32.0695 30.054V8.40552C32.0695 7.74353 31.5381 7.21021 30.8761 7.21021H13.2648ZM13.4425 7.93481H30.6711C31.0795 7.93481 31.4093 8.26269 31.4093 8.67114V29.8879C31.0865 29.8289 30.759 29.7988 30.4308 29.7981C29.7085 29.7981 28.9933 29.9404 28.3261 30.2168C27.6588 30.4932 27.0525 30.8983 26.5417 31.409C26.031 31.9197 25.6259 32.526 25.3495 33.1933C25.0731 33.8606 24.9308 34.5758 24.9308 35.2981C24.9325 35.6976 24.9777 36.0958 25.0656 36.4856H13.4425C13.0341 36.4856 12.7062 36.1558 12.7062 35.7473V8.67114C12.7062 8.26269 13.0341 7.93481 13.4425 7.93481ZM15.1457 11.4973C14.9626 11.4973 14.8156 11.6443 14.8156 11.8274C14.8156 12.0105 14.9626 12.1575 15.1457 12.1575H29.2062C29.3893 12.1575 29.5363 12.0105 29.5363 11.8274C29.5363 11.6443 29.3893 11.4973 29.2062 11.4973H15.1457ZM15.1457 13.4973C14.9626 13.4973 14.8156 13.6443 14.8156 13.8274C14.8156 14.0105 14.9626 14.1575 15.1457 14.1575H29.2062C29.3893 14.1575 29.5363 14.0105 29.5363 13.8274C29.5363 13.6443 29.3893 13.4973 29.2062 13.4973H15.1457ZM15.1457 15.4973C14.9626 15.4973 14.8156 15.6443 14.8156 15.8274C14.8156 16.0105 14.9626 16.1575 15.1457 16.1575H29.2062C29.3893 16.1575 29.5363 16.0105 29.5363 15.8274C29.5363 15.6443 29.3893 15.4973 29.2062 15.4973H15.1457ZM15.1457 17.4973C14.9626 17.4973 14.8156 17.6443 14.8156 17.8274C14.8156 18.0105 14.9626 18.1575 15.1457 18.1575H29.2062C29.3893 18.1575 29.5363 18.0105 29.5363 17.8274C29.5363 17.6443 29.3893 17.4973 29.2062 17.4973H15.1457ZM15.1457 19.4973C14.9626 19.4973 14.8156 19.6443 14.8156 19.8274C14.8156 20.0105 14.9626 20.1575 15.1457 20.1575H22.6711C22.8542 20.1575 23.0011 20.0105 23.0011 19.8274C23.0011 19.6443 22.8542 19.4973 22.6711 19.4973H15.1457ZM30.4308 30.5168C30.7597 30.5176 31.0876 30.5523 31.4093 30.6204C31.6222 30.6659 31.8316 30.726 32.0363 30.8C32.0474 30.8039 32.0584 30.8078 32.0695 30.8118C32.9899 31.1475 33.7849 31.7579 34.347 32.5603C34.909 33.3627 35.211 34.3184 35.2121 35.2981C35.2121 35.926 35.0885 36.5477 34.8482 37.1279C34.6079 37.708 34.2558 38.2351 33.8118 38.6791C33.3678 39.123 32.8407 39.4752 32.2606 39.7155C31.6805 39.9557 31.0587 40.0794 30.4308 40.0793C29.5016 40.078 28.593 39.8059 27.816 39.2963C27.039 38.7868 26.4274 38.0619 26.0558 37.2102C26.0539 37.205 26.0519 37.1998 26.05 37.1946C25.994 37.0647 25.9438 36.9324 25.8996 36.7981C25.8902 36.7708 25.8811 36.7435 25.8722 36.7161C25.8497 36.6456 25.8289 36.5746 25.8097 36.5032C25.8078 36.4973 25.8058 36.4915 25.8039 36.4856C25.7035 36.0977 25.6523 35.6987 25.6515 35.2981C25.6514 34.0303 26.1549 32.8145 27.0511 31.9178C27.9474 31.0212 29.1631 30.5173 30.4308 30.5168ZM31.5617 32.3391C31.4212 32.3417 31.281 32.3972 31.175 32.5071L28.341 35.4465C28.2129 35.5794 28.1721 35.7575 28.2023 35.925L28.1945 35.9172L27.8605 37.3508C27.8298 37.7235 28.1166 37.875 28.3156 37.8118C28.7921 37.6769 29.356 37.5238 29.7882 37.4055C29.9397 37.4137 30.0921 37.3656 30.2062 37.2473L33.0421 34.3079C33.2542 34.088 33.2464 33.7406 33.0265 33.5286L31.9523 32.4934C31.8424 32.3874 31.7022 32.3366 31.5617 32.3391ZM31.5441 32.9954C31.6093 32.9942 31.6748 33.0185 31.7257 33.0676L32.4621 33.7747C32.5639 33.8728 32.5661 34.0342 32.4679 34.136L32.1496 34.4661L31.048 33.4036L31.3664 33.0735C31.4154 33.0226 31.4789 32.9965 31.5441 32.9954ZM30.6066 33.8606L31.7082 34.9231L30.0148 36.679C29.9166 36.7807 29.7553 36.7849 29.6535 36.6868L28.9191 35.9778C28.8173 35.8796 28.8151 35.7182 28.9132 35.6165L30.6066 33.8606ZM28.5988 36.4602L29.1847 37.0266L28.4152 37.2395L28.5988 36.4602Z" fill="#333333"/>
</svg>
