<svg width="48" height="48" viewBox="0 0 48 48" fill="none" xmlns="http://www.w3.org/2000/svg">
<path fill-rule="evenodd" clip-rule="evenodd" d="M24.1559 30.5049C24.0379 30.5555 23.9105 30.5807 23.782 30.5788C23.6536 30.577 23.527 30.5482 23.4105 30.4942L6.96325 19.281L23.3592 8.64667C23.4854 8.59273 23.6213 8.56492 23.7586 8.56492C23.8959 8.56492 24.0318 8.59273 24.1581 8.64667L41.0026 19.5737L24.1559 30.5049ZM21.5778 14.7756L12.2734 20.8084L15.1805 22.8016L23.3592 17.5079C23.4855 17.4539 23.6213 17.4261 23.7586 17.4261C23.8959 17.4261 24.0318 17.4539 24.1581 17.5079L32.5675 22.9596L35.5579 21.0242L25.9224 14.7756C25.2663 14.3817 24.5154 14.1736 23.7501 14.1736C22.9848 14.1736 22.2339 14.3817 21.5778 14.7756Z" fill="#333333"/>
<path fill-rule="evenodd" clip-rule="evenodd" d="M48 0H0V48H48V0ZM43.5935 17.3776L25.9224 5.91439C25.267 5.52062 24.5168 5.31259 23.7522 5.31259C22.9876 5.31259 22.2375 5.52062 21.582 5.91439L4.41501 17.0422C4.03021 17.2646 3.70986 17.5833 3.48541 17.967C3.26095 18.3506 3.1401 18.7861 3.13471 19.2306C3.12932 19.675 3.23959 20.1133 3.45469 20.5022C3.66978 20.8912 3.98231 21.2176 4.36161 21.4493L21.565 33.1859C22.2137 33.5981 22.9644 33.8215 23.7329 33.8309C24.5014 33.8403 25.2573 33.6355 25.916 33.2393L43.5935 21.7783C43.9799 21.5557 44.3009 21.2353 44.5241 20.8492C44.7472 20.4631 44.8648 20.025 44.8648 19.579C44.8648 19.133 44.7472 18.6949 44.5241 18.3088C44.3009 17.9227 43.9799 17.6023 43.5935 17.3797V17.3776ZM43.5935 26.2345L41.7523 25.0404L38.7512 26.9758L41.0004 28.4349L24.1452 39.3619C24.0276 39.4131 23.9008 39.4395 23.7725 39.4395C23.6442 39.4395 23.5174 39.4131 23.3998 39.3619L6.95257 28.1465L9.08858 26.7643L6.17507 24.7626L4.41501 25.9034C4.03021 26.1259 3.70986 26.4445 3.48541 26.8282C3.26095 27.2119 3.1401 27.6473 3.13471 28.0918C3.12932 28.5362 3.23959 28.9745 3.45469 29.3635C3.66978 29.7524 3.98231 30.0788 4.36161 30.3105L21.565 42.0429C22.2136 42.4555 22.9645 42.6788 23.7332 42.6879C24.5018 42.697 25.2578 42.4913 25.916 42.0942L43.5914 30.6331C43.9778 30.4105 44.2988 30.0901 44.5219 29.704C44.7451 29.3179 44.8626 28.8798 44.8626 28.4338C44.8626 27.9878 44.7451 27.5497 44.5219 27.1636C44.2988 26.7775 43.9778 26.4571 43.5914 26.2345H43.5935Z" fill="#333333"/>
</svg>
