<svg width="48" height="48" viewBox="0 0 48 48" fill="none" xmlns="http://www.w3.org/2000/svg">
<path fill-rule="evenodd" clip-rule="evenodd" d="M24.1498 29.8508C24.0367 29.8987 23.9145 29.9226 23.7914 29.9208C23.6683 29.9191 23.5469 29.8918 23.4353 29.8407L7.66998 19.2246L23.3861 9.15654C23.5071 9.10547 23.6373 9.07914 23.7689 9.07914C23.9005 9.07914 24.0308 9.10547 24.1519 9.15654L40.2979 19.5017L24.1498 29.8508ZM12.2734 20.8084L21.5778 14.7756C22.2339 14.3817 22.9848 14.1736 23.7501 14.1736C24.5154 14.1736 25.2663 14.3817 25.9224 14.7756L35.5579 21.0242L32.5675 22.9596L24.1581 17.5079C24.0318 17.4539 23.8959 17.4261 23.7586 17.4261C23.6213 17.4261 23.4855 17.4539 23.3592 17.5079L15.1805 22.8016L12.2734 20.8084Z" fill="#333333"/>
<path fill-rule="evenodd" clip-rule="evenodd" d="M48 0H0V48H48V0ZM42.7814 17.4225L25.843 6.56975C25.2148 6.19695 24.4957 6 23.7628 6C23.0299 6 22.3109 6.19695 21.6826 6.56975L5.2274 17.105C4.85855 17.3156 4.55148 17.6173 4.33634 17.9806C4.12119 18.3437 4.00535 18.756 4.00018 19.1769C3.99501 19.5976 4.10071 20.0126 4.30689 20.3808C4.51306 20.749 4.81264 21.0581 5.17621 21.2774L21.6663 32.3891C22.2881 32.7793 23.0077 32.9908 23.7443 32.9997C24.4809 33.0086 25.2055 32.8147 25.8369 32.4396L42.7814 21.5889C43.1518 21.3782 43.4595 21.0748 43.6734 20.7093C43.8874 20.3437 44 19.929 44 19.5067C44 19.0845 43.8874 18.6697 43.6734 18.3042C43.4595 17.9386 43.1518 17.6353 42.7814 17.4245V17.4225ZM42.7835 26.3959L41.0185 25.2635L38.1417 27.0989L40.2977 28.4827L24.1406 38.8455C24.0278 38.894 23.9063 38.9191 23.7833 38.9191C23.6603 38.9191 23.5388 38.894 23.426 38.8455L7.65993 28.2092L9.70748 26.8983L6.91463 25L5.22746 26.0819C4.8586 26.2929 4.55151 26.5951 4.33636 26.9589C4.12119 27.3228 4.00535 27.7357 4.00018 28.1573C3.99501 28.5788 4.10072 28.9944 4.30691 29.3633C4.51309 29.7322 4.81268 30.0417 5.17627 30.2614L21.6672 41.388C22.289 41.7793 23.0088 41.9911 23.7456 41.9997C24.4824 42.0084 25.2071 41.8133 25.838 41.4366L42.7814 30.5674C43.1518 30.3563 43.4595 30.0524 43.6734 29.6863C43.8874 29.3201 44 28.9046 44 28.4816C44 28.0587 43.8874 27.6432 43.6734 27.277C43.4595 26.9109 43.1518 26.607 42.7814 26.3959H42.7835Z" fill="#333333"/>
</svg>
