<svg width="48" height="48" viewBox="0 0 48 48" fill="none" xmlns="http://www.w3.org/2000/svg">
<path d="M30.2207 6.9044C29.2289 6.92168 28.2436 7.31622 27.5 8.08604C26.0124 9.62588 26.0538 12.081 27.5938 13.5685C29.1339 15.0565 31.5889 15.0136 33.0762 13.4728C34.5633 11.9325 34.5209 9.47724 32.9805 7.99034C32.2105 7.24697 31.2125 6.88712 30.2207 6.9044ZM30.2793 7.41026C30.7151 7.41021 31.1466 7.496 31.5492 7.66275C31.9519 7.82949 32.3177 8.07392 32.6259 8.38207C32.934 8.69022 33.1784 9.05605 33.3452 9.45868C33.5119 9.8613 33.5977 10.2928 33.5977 10.7286C33.5977 11.1644 33.5119 11.5959 33.3452 11.9986C33.1784 12.4012 32.934 12.767 32.6259 13.0752C32.3177 13.3833 31.9519 13.6277 31.5492 13.7945C31.1466 13.9612 30.7151 14.047 30.2793 14.047C29.8435 14.047 29.412 13.9612 29.0094 13.7945C28.6067 13.6277 28.2409 13.3833 27.9327 13.0752C27.6246 12.767 27.3802 12.4012 27.2134 11.9986C27.0467 11.5959 26.9609 11.1644 26.9609 10.7286C26.9609 10.2928 27.0467 9.8613 27.2134 9.45868C27.3802 9.05605 27.6246 8.69022 27.9327 8.38207C28.2409 8.07392 28.6067 7.82949 29.0094 7.66275C29.412 7.496 29.8435 7.41021 30.2793 7.41026ZM20.4023 10.1524L20.7148 12.2306L18.2676 13.3927L19.5508 14.6485C19.4564 14.1947 19.3227 13.905 19.166 13.4649L21.1719 12.5021L20.7969 10.2872L20.4023 10.1524ZM17.1836 11.2755L16.668 11.4005L15.9609 14.1681L18.3965 15.6056C18.1509 16.1465 17.9534 16.4976 17.7852 17.0626L19.543 15.6114L16.5645 13.8771L17.1836 11.2755ZM12.6426 14.2677L12.377 14.6095L13.334 16.7423L15.6289 16.4181C15.7476 16.89 15.8018 17.2183 15.9824 17.6661L16.3652 15.8399L13.5723 16.2482L12.6426 14.2677ZM27.5703 15.0646C26.6056 15.1069 25.7175 15.8896 24.4922 16.6544C23.2984 17.613 22.2699 18.6325 21.4277 19.9064C20.0698 21.9871 19.3727 24.4124 19.3965 26.9825C19.4209 28.7519 19.9366 30.6977 21.6738 30.9103C25.1787 30.8489 28.5324 30.7671 31.9336 30.7618L32.9512 41.0607C33.0375 41.9345 33.7941 42.5706 34.6465 42.4864C35.4988 42.4022 36.1156 41.6317 36.0293 40.7579L34.8125 28.4337C34.7522 27.8226 34.361 27.3346 33.8418 27.1212V27.1153C33.8323 27.1124 33.822 27.1104 33.8125 27.1075C33.688 27.0594 33.5581 27.0237 33.4219 27.0099C29.4593 26.0289 24.0337 27.7309 28.7578 20.9024L30.0254 24.4357C30.07 24.6485 30.1632 24.8441 30.3145 25.006C30.3359 25.0302 30.3654 25.0442 30.3887 25.0665C30.4642 25.1353 30.534 25.2085 30.6289 25.2579L30.6484 25.2677L34.2109 27.1192C34.7951 27.4228 35.5052 27.1948 35.8027 26.6075C36.1003 26.0203 35.8693 25.3036 35.2852 25.0001L32.2402 23.4181L29.875 16.8224C29.8549 16.7664 29.8212 16.7191 29.793 16.6681C29.7771 16.6211 29.7205 16.4447 29.709 16.4103C29.0118 15.4591 28.1491 15.0393 27.5703 15.0646ZM27.8281 15.5626C28.4022 15.6255 28.7868 16.1286 29.1777 16.506L29.3574 16.9708L31.7715 23.5919C31.8183 23.6881 31.8365 23.7909 32.002 23.8575L35.1289 25.4864C35.5816 25.784 35.4611 26.8984 34.4648 26.6876L30.8398 24.8009C30.5759 24.5781 30.5877 24.432 30.4922 24.256L29.2246 20.7228C28.9902 20.2344 28.7243 20.0025 28.3555 20.6212C27.6306 21.5834 26.9382 22.6265 26.4805 24.2462L26.4219 24.7423C26.369 25.4698 26.5812 26.1386 27.6406 26.6173L28.1113 26.7853C29.6065 27.2342 31.2486 27.1957 32.8223 27.3829L33.3086 27.4962C33.6785 27.6404 34.0881 27.6188 34.3047 28.4044L35.5176 40.7501C35.3403 42.204 33.8582 42.3808 33.4414 40.9083L32.4316 30.711C32.41 30.4424 32.3344 30.2194 31.9219 30.2696L21.6797 30.4161C20.5779 30.0195 20.1047 29.0757 19.959 27.8478L19.9102 27.3497C19.7754 22.7569 21.76 19.7851 24.4414 17.3458L24.8203 17.0196C25.8379 16.4117 27.1211 15.4822 27.5703 15.5646C27.6607 15.554 27.7461 15.5536 27.8281 15.5626ZM15.7949 19.6192C15.3738 19.6102 14.9341 19.7023 14.4766 19.9239V31.0646V33.7482H17H31.0156V31.0646H17V19.9239C16.618 19.7386 16.216 19.6283 15.7949 19.6192ZM23.3223 32.1056C23.3466 32.0973 23.3733 32.098 23.3984 32.1095C23.4007 32.1106 23.404 32.1121 23.4062 32.1134C23.4572 32.1407 23.4748 32.2031 23.4473 32.254C23.4195 32.3044 23.3572 32.3244 23.3066 32.297C23.2559 32.2698 23.2367 32.2052 23.2637 32.1544C23.2766 32.1301 23.298 32.1139 23.3223 32.1056ZM23.4844 32.5314C23.5101 32.5237 23.539 32.5254 23.5645 32.5392C23.6154 32.5666 23.635 32.6289 23.6074 32.6798C23.58 32.7308 23.5157 32.7504 23.4648 32.7228C23.4138 32.6954 23.3943 32.6312 23.4219 32.5802C23.4356 32.5548 23.4587 32.5391 23.4844 32.5314ZM22.9863 32.7149C23.0223 32.7041 23.062 32.7075 23.0977 32.7267C23.169 32.7653 23.1966 32.8526 23.1582 32.9239C23.1197 32.9953 23.0303 33.0229 22.959 32.9845C22.8876 32.9459 22.86 32.8567 22.8984 32.7853C22.9177 32.7497 22.9503 32.7257 22.9863 32.7149ZM23.3262 33.0782C23.375 33.0616 23.4301 33.0633 23.4805 33.086C23.4849 33.0882 23.4899 33.0914 23.4941 33.0939C23.5964 33.149 23.6352 33.2767 23.5801 33.379C23.5249 33.4812 23.3972 33.5182 23.2949 33.463C23.1927 33.4079 23.1538 33.2801 23.209 33.1778C23.2351 33.129 23.2773 33.0948 23.3262 33.0782ZM22.7324 33.4317C22.7665 33.4202 22.8047 33.4217 22.8398 33.4376C22.8428 33.4392 22.8467 33.4397 22.8496 33.4415C22.921 33.4801 22.9466 33.5694 22.9082 33.6407C22.8697 33.712 22.7804 33.7397 22.709 33.7013C22.6377 33.6628 22.612 33.5734 22.6504 33.5021C22.6687 33.468 22.6983 33.4432 22.7324 33.4317ZM14.459 34.0567C14.5211 37.9739 16.8754 40.2893 20.1152 41.0743V42.6095H26.2031V40.84C29.0206 39.8827 30.9978 37.6412 31.0547 34.0567H23.0898C23.1475 34.1498 23.1592 34.2679 23.1035 34.3712C23.0209 34.5253 22.8278 34.5831 22.6738 34.5001C22.5199 34.417 22.4634 34.2241 22.5469 34.0704C22.5499 34.0649 22.5554 34.062 22.5586 34.0567H14.459ZM23.6113 34.3985C23.6523 34.4023 23.6939 34.415 23.7324 34.4357C23.8863 34.5188 23.9428 34.7096 23.8594 34.8634C23.7764 35.0169 23.5853 35.0751 23.4316 34.9923C23.2781 34.9094 23.22 34.7183 23.3027 34.5646C23.3647 34.449 23.4885 34.387 23.6113 34.3985ZM22.6191 34.7989C22.6435 34.7906 22.6702 34.7915 22.6953 34.8028C22.6976 34.804 22.699 34.8054 22.7012 34.8067C22.7521 34.8341 22.7717 34.8965 22.7441 34.9474C22.7164 34.9979 22.654 35.0176 22.6035 34.9903C22.5527 34.963 22.5336 34.8986 22.5605 34.8478C22.5735 34.8236 22.5948 34.8072 22.6191 34.7989ZM22.334 35.1876C22.3828 35.171 22.4379 35.1727 22.4883 35.1954C22.4927 35.1976 22.4957 35.1988 22.5 35.2013C22.6023 35.2565 22.6411 35.3842 22.5859 35.4864C22.5308 35.5887 22.4031 35.6275 22.3008 35.5724C22.1985 35.5173 22.1616 35.3895 22.2168 35.2872C22.2429 35.2385 22.2852 35.2042 22.334 35.1876ZM23.2734 35.3087C23.3293 35.314 23.385 35.3312 23.4375 35.3595C23.6478 35.4726 23.7264 35.7351 23.6133 35.9454C23.4999 36.1561 23.2378 36.2329 23.0273 36.1192C22.8173 36.0056 22.738 35.7434 22.8516 35.5333C22.9367 35.376 23.1059 35.2929 23.2734 35.3087ZM21.9668 35.9806C22.0231 35.9615 22.0865 35.9621 22.1445 35.9884V35.9903C22.1495 35.9927 22.1534 35.9954 22.1582 35.9982C22.276 36.0616 22.3213 36.2086 22.2578 36.3263C22.1941 36.4435 22.0471 36.4854 21.9297 36.422C21.8122 36.3587 21.7672 36.2135 21.8301 36.0958C21.8602 36.0396 21.9105 35.9996 21.9668 35.9806ZM23.5215 36.336C23.5229 36.3366 23.5241 36.3372 23.5254 36.338C23.5578 36.3555 23.5698 36.3951 23.5527 36.4278C23.5351 36.4605 23.4936 36.473 23.4609 36.4552C23.4281 36.4376 23.4159 36.3961 23.4336 36.3634C23.4505 36.3327 23.4896 36.3214 23.5215 36.336ZM23.0938 36.4825C23.1346 36.4864 23.1745 36.4989 23.2129 36.5196C23.3665 36.6025 23.4246 36.7938 23.3418 36.9474C23.2589 37.101 23.0677 37.1591 22.9141 37.0763C22.7605 36.9934 22.7024 36.8002 22.7852 36.6466C22.8473 36.5314 22.9712 36.4709 23.0938 36.4825ZM22.2695 36.6974C22.2712 36.6981 22.2738 36.7005 22.2754 36.7013C22.3152 36.7227 22.3297 36.7708 22.3086 36.8107C22.2871 36.8507 22.2373 36.8656 22.1973 36.8439C22.1572 36.8224 22.1425 36.7725 22.1641 36.7325C22.1848 36.6949 22.2303 36.6797 22.2695 36.6974ZM21.6348 37.0899C21.6756 37.0938 21.7174 37.1064 21.7559 37.1271C21.9094 37.21 21.9656 37.4011 21.8828 37.5548C21.7999 37.7084 21.6087 37.7665 21.4551 37.6837C21.3015 37.6008 21.2434 37.4076 21.3262 37.254C21.3883 37.1388 21.5122 37.0783 21.6348 37.0899ZM22.5938 37.1993C22.6278 37.1877 22.666 37.1893 22.7012 37.2052C22.7042 37.2068 22.7061 37.2092 22.709 37.211C22.7803 37.2495 22.808 37.3369 22.7695 37.4083C22.731 37.4796 22.6417 37.5074 22.5703 37.4689C22.499 37.4304 22.4733 37.341 22.5117 37.2696C22.53 37.2356 22.5597 37.2109 22.5938 37.1993ZM23.2793 37.4493C23.3036 37.441 23.3304 37.4419 23.3555 37.4532C23.3579 37.4544 23.3611 37.4558 23.3633 37.4571C23.4142 37.4845 23.4318 37.5488 23.4043 37.5997C23.3766 37.6501 23.3142 37.6681 23.2637 37.6407C23.2131 37.6135 23.1938 37.5509 23.2207 37.5001C23.2337 37.4758 23.255 37.4576 23.2793 37.4493ZM22.9023 37.8556C22.9582 37.8609 23.0139 37.8761 23.0664 37.9044C23.2767 38.0176 23.3572 38.2799 23.2441 38.4903C23.1308 38.701 22.8667 38.7799 22.6562 38.6661C22.4462 38.5525 22.3688 38.2903 22.4824 38.0802C22.5675 37.9229 22.7348 37.8398 22.9023 37.8556Z" fill="#333333"/>
</svg>
