<?xml version="1.0" encoding="UTF-8" standalone="no"?>
<!-- Created with Inkscape (http://www.inkscape.org/) -->
<svg id="svg8" xmlns:rdf="http://www.w3.org/1999/02/22-rdf-syntax-ns#" xmlns="http://www.w3.org/2000/svg" xmlns:osb="http://www.openswatchbook.org/uri/2009/osb" height="48" width="48" version="1.1" xmlns:cc="http://creativecommons.org/ns#" viewBox="0 0 12.7 12.7" xmlns:dc="http://purl.org/dc/elements/1.1/">
 <title id="title4753">UIO-icon</title>
 <metadata id="metadata5">
  <rdf:RDF>
   <cc:Work rdf:about="">
    <dc:format>image/svg+xml</dc:format>
    <dc:type rdf:resource="http://purl.org/dc/dcmitype/StillImage"/>
    <dc:title>UIO-icon</dc:title>
    <dc:creator>
     <cc:Agent>
      <dc:title>Joaquín Urbano</dc:title>
     </cc:Agent>
    </dc:creator>
    <dc:rights>
     <cc:Agent>
      <dc:title>GPL</dc:title>
     </cc:Agent>
    </dc:rights>
   </cc:Work>
  </rdf:RDF>
 </metadata>
 <g id="layer1" transform="translate(0,-284.3)" fill="#333">
  <path id="path4892" d="m3.4967 285.49v0.0005446c-0.031632 0.0000843-0.059856 0.00276-0.089845 0.00381-0.91534 0.039092-1.0628 0.63296-1.0547 1.8116 0.0010269 0.082083 0.0044801 0.27861 0.18241 0.30329 0.028757 0.22298 0.10817 0.42265 0.26736 0.52545 0.29428 0.19007 0.44013 0.31516 0.69915 0.32344 0.17739 0.0005479 0.4043-0.16415 0.64906-0.32126 0.16598-0.10657 0.27057-0.30127 0.31201-0.51892 0.19435 0.023603 0.16278-0.18984 0.17806-0.31201 0.0061641-1.3635-0.1628-1.8148-1.1391-1.8159-0.001027-0.0000106-0.0033235 0-0.0043561 0zm-0.015246 0.7438c0.30209 0.31126 0.56874 0.5374 0.90226 0.40348 0.0030768 0.24078 0.0023014 0.48128 0.0043561 0.72202 0 0.27089-0.10103 0.53929-0.30003 0.66703-0.22134 0.14209-0.42657 0.29022-0.58698 0.28968-0.23424-0.00738-0.36606-0.1205-0.63218-0.2924-0.18803-0.12143-0.25374-0.392-0.25374-0.66431v-0.35012c0.16886-0.70071 0.8034-0.13222 0.86632-0.77539zm-0.29131 0.46229-0.0027225 0.0005446c-0.019336 0.0004622-0.091615 0.011728-0.17479 0.027225-0.096972 0.018113-0.17593 0.035927-0.17914 0.040294l0.00054451 0.0005445c0.0060354 0.00258 0.085184-0.00938 0.18078-0.027225 0.096976-0.018113 0.17594-0.035928 0.17914-0.040294 0.00068919-0.0007484-0.0003039-0.00114-0.0038117-0.00109zm0.59352 0.014702c-0.00069025 0.0001185-0.0010773 0.0002979-0.001089 0.0005445 0 0 0.00054451 0.0005446 0.00054451 0.0005446 0.0018609 0.00414 0.081418 0.022027 0.17914 0.040293 0.1032 0.019288 0.18601 0.031462 0.18187 0.026682-0.0032144-0.00436-0.082172-0.022181-0.17914-0.040294-0.085994-0.016085-0.16112-0.027676-0.17914-0.02777-0.00080772-0.0000191-0.0015672-0.0000191-0.0021781-1e-7zm-0.70569 0.12143c-0.061648 0.00028-0.11165 0.051642-0.11163 0.11489 0.0002722 0.063036 0.050185 0.11407 0.11163 0.11435 0.061647 0.0000201 0.1119-0.0511 0.11217-0.11435 0.000020444-0.063462-0.050314-0.11491-0.11217-0.11489zm0.84018 0c-0.061855-0.0000195-0.11219 0.05143-0.11217 0.11489 0.00027372 0.063248 0.050522 0.11437 0.11217 0.11435 0.061647 0.00002 0.1119-0.0511 0.11217-0.11435 0.000020443-0.063462-0.050314-0.11491-0.11217-0.11489zm-0.42744 0.52981c-0.052806 0.0008281-0.093294 0.010073-0.093112 0.021236-0.0014445 0.011954 0.044015 0.021778 0.10073 0.02178 0.056718-0.0000027 0.10218-0.00983 0.10073-0.02178 0.000038852-0.011748-0.045008-0.02123-0.10073-0.021236-0.0022999-0.0000165-0.0047787-0.0000165-0.0070786 0zm0.38334 0.30983c-0.031605-0.00125-0.19174 0.02339-0.37844 0.058263-0.209 0.039046-0.378 0.077179-0.37898 0.085488-0.0038129 0.00905 0.16997-0.016562 0.38443-0.056629 0.209-0.039046 0.378-0.077179 0.37898-0.085488 0.00093682-0.00117-0.0018109-0.00143-0.0059896-0.00163zm4.0348 0.20691c-0.1171 0.0003477-0.2298 0.00737-0.36101 0.022325-0.68628 0.076604-1.2027 0.34803-1.4969 0.78737-0.058295 0.087562-0.083225 0.14246-0.13776 0.30166-0.05349 0.15597-0.075338 0.26228-0.076232 0.38933-0.014989-0.18152-0.13223-0.34472-0.31201-0.40621-0.0059955-0.00211-0.011949-0.00224-0.017969-0.00435-0.017582-0.00738-0.030556-0.016758-0.05064-0.022869-0.40619-0.14482-0.72501-0.32443-1.0781-0.45303l0.0049006 0.00545-0.79444 0.81622 0.00054452 0.00109-0.082221 0.082766-0.081677-0.082766 0.00054451-0.0005445-0.79444-0.81622 0.0049006-0.00653c-0.35332 0.12868-0.6722 0.30865-1.0787 0.45358-0.13321 0.040357-0.20679 0.11143-0.25211 0.19058-0.085658 0.11897-0.11567 0.27698-0.066431 0.42853l0.66703 2.055c0.026303 0.081029 0.073457 0.14746 0.13123 0.20038 0.0051315 0.00632 0.0099513 0.013491 0.015791 0.019603l0.02777 0.02777c-0.37613 0.11389-0.58867 0.27043-0.58916 0.43398 0.00075644 0.00781 0.0015441 0.015625 0.0032671 0.023414l-0.0032671-0.00218 0.0049006 0.01089c0.0072663 0.041022 0.02786 0.081707 0.06153 0.12143l0.21127 0.41655-0.36373 1.3776c-0.044227-0.00527-0.088634-0.00943-0.13286-0.014702-0.11552-0.014857-0.21018 0.096201-0.21018 0.21563 0 0.050788 0.020031 0.09504 0.048462 0.13177-0.031761 0.023603-0.052818 0.053298-0.052818 0.087122 0 0.043623 0.033587 0.080926 0.08331 0.10564-0.047067 0.016754-0.078958 0.041143-0.078954 0.069698 0 0.044571 0.078895 0.064871 0.17479 0.08331-0.044764 0.36679 0.17438 0.71888 0.53253 0.8184 0.39233 0.10902 0.79436-0.1273 0.90062-0.52981l0.032126-0.11979c0.48173 0.024446 0.95802 0.018912 1.4293-0.011435l0.04465 0.16825c0.10625 0.40251 0.50776 0.63883 0.90008 0.52981 0.37588-0.10442 0.59941-0.48698 0.52437-0.87285 0.055222-0.015489 0.097468-0.034485 0.097468-0.065885 0-0.029714-0.034718-0.054683-0.084944-0.071331 0.0477-0.024656 0.080043-0.061433 0.080043-0.104 0-0.031295-0.019174-0.058812-0.046828-0.081677 0.030778-0.037512 0.051729-0.08409 0.051729-0.13722 0-0.11946-0.09433-0.2275-0.21018-0.21563-0.019813 0.00211-0.039537 0.00334-0.059352 0.00545l-0.34958-1.3226 0.25429-0.50204c0.02422-0.037471 0.037462-0.075578 0.03866-0.1138-0.0013811-0.1349-0.14748-0.26579-0.41437-0.3719l0.052818-0.052818c0.066346-0.066383 0.10841-0.14801 0.12742-0.23414 0.0020547-0.00632 0.0061799-0.012754 0.0092567-0.019603l0.66757-2.055c0.014722-0.045309 0.019986-0.09083 0.021236-0.13613 0.0016332 0.04415 0.0055045 0.090087 0.011435 0.14375 0.067773 0.61554 0.55058 1.289 1.2725 1.7751 0.083712 0.056373 0.20297 0.13143 0.26572 0.16717 0.062792 0.03572 0.11787 0.072158 0.12197 0.080588 0.004004 0.00843-0.29307 0.2119-0.65995 0.45195-0.36687 0.24003-0.66879 0.44072-0.67084 0.44704v0.0005445c-0.0020547 0.00632-0.00078931 0.010961 0.0043561 0.013068 0.0044361 0.00211 0.47571-0.13142 1.0476-0.29567l1.04-0.29839 0.1187 0.030493c0.98902 0.25135 2.2252 0.31929 3.0563-0.63708 0.072905-0.11178 0.086701-0.14256 0.14103-0.32017 0.066657-0.21867 0.080528-0.33833 0.06153-0.54342-0.030494-0.32979-0.16291-0.65028-0.4073-0.98611-0.39025-0.53625-0.98885-0.97394-1.7321-1.2671-0.42043-0.1658-0.78732-0.25509-1.2143-0.29513-0.1463-0.013909-0.26733-0.020463-0.38443-0.020147zm0.15192 0.12905 0.29567 0.015246c0.50063 0.023076 1.2288 0.26533 1.927 0.72965 0.83898 0.55791 1.2541 1.2403 1.2028 1.9341-0.012265 0.16407-0.1031 0.4085-0.18731 0.5358-0.68154 0.80588-1.7341 0.78046-2.783 0.58481l-0.23577-0.063164c-0.5345 0.17263-0.89023 0.28182-1.3961 0.44051 0.36088-0.24285 0.46664-0.34603 0.88756-0.61367-0.00040567-0.013277-0.15983-0.096877-0.21508-0.12796-0.57605-0.32301-1.0188-0.72051-1.2959-1.1555-0.083968-0.13178-0.20067-0.38659-0.23795-0.51729-0.056795-0.19925-0.065639-0.39272-0.038116-0.58535 0.019915-0.1397 0.097712-0.31402 0.17751-0.42254 0.18492-0.25148 0.46334-0.48794 0.79717-0.60931 0.24631-0.089564 0.47096-0.11992 0.75524-0.13722 0.10661-0.00632 0.23651-0.011333 0.34631-0.00817zm-5.2246 0.41873c-0.029271 0.00843-0.056834 0.018058-0.085488 0.027225l0.75633 0.77702 0.75578-0.77647c-0.028654-0.00948-0.056218-0.019446-0.085488-0.02777l-0.6703 0.68772-0.089845-0.092022-0.18078-0.18513zm6.0256 0.26736v0.0005446c-0.041727 0.00211-0.080393 0.00734-0.11489 0.015246-0.091815 0.021706-0.19159 0.051416-0.22815 0.068065-0.047448 0.021495-0.1508 0.081031-0.21345 0.12252-0.1065 0.070492-0.13389 0.091039-0.17152 0.12796-0.070351 0.069017-0.075954 0.075965-0.18296 0.24666-0.025264 0.040357-0.043166 0.061344-0.088756 0.10128-0.053815 0.047311-0.12703 0.13102-0.17316 0.1982-0.032043 0.046784-0.083858 0.14888-0.094745 0.18677-0.0071862 0.024446-0.010346 0.055655-0.010346 0.10455 0.000041094 0.072916 0.0028694 0.086189 0.045739 0.18568 0.010887 0.025605 0.010796 0.025704-0.0021781 0.06153-0.0071862 0.019704-0.025639 0.054912-0.040838 0.07841-0.030194 0.046995-0.066899 0.12119-0.085488 0.17152-0.049297 0.1333-0.04204 0.31168 0.017424 0.42418 0.020232 0.038249 0.033656 0.054496 0.087667 0.10455 0.052686 0.048892 0.073386 0.063924 0.1187 0.086578 0.19536 0.097888 0.45221 0.15604 0.73019 0.16499 0.16247 0.00527 0.27049 0.0064 0.33542 0.00218 0.038103-0.00211 0.087199-0.00664 0.10945-0.0098 0.022183-0.00316 0.06635-0.00838 0.097468-0.011435 0.031119-0.00316 0.07799-0.011998 0.104-0.019058 0.025983-0.00738 0.052069-0.012524 0.057718-0.012524 0.023622-0.0002213 0.17161-0.038154 0.21726-0.05554 0.02701-0.010537 0.065935-0.025313 0.086578-0.033216 0.048167-0.01844 0.09717-0.045605 0.14484-0.080588 0.055048-0.040357 0.14673-0.13172 0.1639-0.1639 0.031632-0.059323 0.05544-0.12049 0.060985-0.15628 0.016638-0.10741-0.0031226-0.25561-0.047373-0.35121-0.032762-0.071124-0.062709-0.1185-0.14103-0.21998-0.0092409-0.01138-0.029985-0.031812-0.046828-0.045194-0.055561-0.04415-0.058315-0.051411-0.060985-0.17479-0.0020547-0.11561-0.0091724-0.15652-0.039205-0.24013-0.022902-0.063643-0.053079-0.11359-0.10291-0.1688-0.061518-0.068174-0.11738-0.11115-0.19602-0.15083-0.023518-0.011907-0.037861-0.042325-0.046284-0.099646-0.012324-0.084612-0.0070011-0.11918 0.028315-0.19003 0.025573-0.05121 0.035378-0.13502 0.020691-0.17806-0.0082188-0.02413-0.013754-0.03104-0.035938-0.044106-0.04067-0.023814-0.090368-0.036378-0.16934-0.043016-0.046935-0.00316-0.092219-0.00537-0.13395-0.00327zm0.035393 0.15083c0.086545-0.000059 0.089604 0.0000106 0.11925 0.013613 0.031775 0.0021 0.14169 0.098842 0.026681 0.15137-0.039224 0.041985-0.052883 0.067858-0.060441 0.11271-0.0035995 0.023042-0.0041169 0.036309 0.0021781 0.059352 0.004495 0.016306 0.011009 0.040879 0.014157 0.054451 0.0026951 0.013572 0.010856 0.037601 0.017424 0.053907 0.018083 0.045207 0.028836 0.095863 0.026137 0.11925-0.0035997 0.028706-0.022504 0.065316-0.043016 0.081132-0.039944 0.030853-0.058665 0.050427-0.052818 0.056085 0.0071995 0.00684 0.021387 0.00135 0.059352-0.022869 0.027798-0.018062 0.06144-0.058601 0.082221-0.099101 0.0071994-0.013572 0.013258-0.025802 0.014157-0.026681 0.0035997-0.00391 0.05732 0.015663 0.074054 0.02777 0.044173 0.031928 0.094238 0.10965 0.13994 0.21672 0.033827 0.079282 0.043196 0.11487 0.043016 0.16608-0.00033284 0.087387-0.027924 0.14539-0.10836 0.2287-0.016373 0.016988-0.027931 0.033044-0.025592 0.035394 0.0080948 0.00781 0.079701-0.026056 0.096923-0.045194l0.015791-0.017424 0.018513 0.00925c0.028969 0.015135 0.07309 0.04837 0.11217 0.084399 0.10104 0.093343 0.17078 0.29445 0.15682 0.45249-0.0035997 0.042474-0.0062365 0.050909-0.025592 0.084399-0.040574 0.070202-0.050919 0.083947-0.097468 0.12742-0.071702 0.066979-0.11621 0.093703-0.25374 0.15246-0.030858 0.013182-0.15304 0.046956-0.18731 0.051729-0.019523 0.00293-0.060266 0.00872-0.090934 0.012524-0.10298 0.014547-0.22707 0.026096-0.28315 0.026682-0.030588 0.000274-0.12108-0.00263-0.20038-0.00653l0.00054451-0.00109c-0.18135-0.00879-0.21602-0.012901-0.34958-0.043561-0.070262-0.016111-0.18337-0.057922-0.25538-0.093657-0.064234-0.03183-0.13277-0.095683-0.159-0.14865-0.054968-0.11102-0.05487-0.26754 0-0.38987 0.027349-0.061025 0.059362-0.12301 0.070787-0.13722 0.0062948-0.00781 0.012075-0.020152 0.013613-0.02777 0.0044951-0.021579 0.010137-0.020346 0.02777 0.00435 0.021591 0.029976 0.075143 0.059348 0.075143 0.041383 0-0.00293-0.01348-0.019142-0.029404-0.035937-0.030768-0.032318-0.076776-0.10735-0.076776-0.12469 2e-9 -0.00586-0.0056251-0.029426-0.013068-0.052273-0.021862-0.07069-0.014783-0.16481 0.017424-0.22652 0.0053997-0.010935 0.015478-0.031735 0.021236-0.046284 0.032927-0.082407 0.14965-0.23512 0.20964-0.27443 0.013945-0.00879 0.03046-0.020464 0.037027-0.025047 0.011245-0.00781 0.012202-0.00781 0.01688 0 0.0092661 0.016111 0.035521 0.042739 0.039749 0.040294 0.0026951-0.0009768-0.00021869-0.017581-0.0054451-0.035937-0.010436-0.035638-0.012825-0.092098-0.0054451-0.1187 0.0094462-0.032123 0.080122-0.12804 0.12578-0.17043 0.056138-0.052138 0.13719-0.11464 0.19984-0.15519 0.093222-0.060341 0.16115-0.08837 0.2973-0.12252 0.059197-0.01484 0.068414-0.016237 0.15137-0.016335zm-4.0272 1.0433 0.6496 0.20746-0.5162 1.5922-0.013068 0.013613-0.10564 0.10672-0.81296 0.81949c-0.1902 0.14528-0.37013 0.10321-0.46991-0.014702-0.0046679-0.00527-0.0079434-0.011839-0.012524-0.017424-0.089497-0.1215-0.099591-0.30929 0.035393-0.46665l0.00054451-0.0005445c0.0021074-0.00211 0.0027406-0.00551 0.0049006-0.00762l0.77266-0.76613zm-2.6703 0.046284 0.45086 1.4136 0.77266 0.76613c0.010622 0.011907 0.017741 0.023258 0.025592 0.034849-0.082191 0.14115-0.086006 0.31523-0.011435 0.46011-0.09205 0.11868-0.26177 0.1593-0.45467 0.011979l-0.93275-0.93983-0.49877-1.5399zm0.1639 2.2156 0.54125 0.54125c0.05645 0.056373 0.12356 0.092943 0.19385 0.11326l-0.39532 1.5421c-0.37252-0.012117-0.74537-0.037263-1.1179-0.076776l0.52328-1.7942c0.052374-0.16056 0.14599-0.26482 0.25483-0.32562zm2.2385 0.13558c0.055615 0.059112 0.10514 0.1304 0.13667 0.22706l0.50749 1.7424c-0.37164 0.034772-0.74298 0.063834-1.1146 0.080588l-0.3802-1.49c0.14239 0.028871 0.29537-0.011803 0.40784-0.12415zm-1.5753 1.5824c0.15791 0.026756 0.32345 0.040705 0.49006 0.041383 0.10087-0.0002402 0.20164-0.00532 0.30057-0.015246l0.11925 0.45086c-0.34598 0.012328-0.69187 0.015123-1.0378 0.00817zm2.4182 1.0749c0.11601 0.5456-0.78496 1.1032-1.0885 0.27062l-0.035938-0.13994c0.37758-0.029504 0.75214-0.07334 1.1244-0.13068zm-4.049 0.013068c0.37614 0.063222 0.74851 0.10592 1.1173 0.13068l-0.02287 0.089845c-0.29422 0.80704-1.1479 0.30779-1.0945-0.22053z"/>
 </g>
</svg>
