<svg width="48" height="48" viewBox="0 0 48 48" fill="none" xmlns="http://www.w3.org/2000/svg">
<path d="M30.2207 6.90428C29.2289 6.92156 28.2436 7.3161 27.5 8.08592C26.0124 9.62576 26.0538 12.0808 27.5938 13.5683C29.1339 15.0563 31.5889 15.0134 33.0762 13.4726C34.5633 11.9323 34.5209 9.47712 32.9805 7.99022C32.2105 7.24685 31.2125 6.887 30.2207 6.90428ZM30.2793 7.41014C30.7151 7.41009 31.1466 7.49588 31.5492 7.66263C31.9519 7.82937 32.3177 8.0738 32.6259 8.38195C32.934 8.69009 33.1784 9.05593 33.3452 9.45855C33.5119 9.86118 33.5977 10.2927 33.5977 10.7285C33.5977 11.1643 33.5119 11.5958 33.3452 11.9984C33.1784 12.4011 32.934 12.7669 32.6259 13.0751C32.3177 13.3832 31.9519 13.6276 31.5492 13.7944C31.1466 13.9611 30.7151 14.0469 30.2793 14.0469C29.8435 14.0469 29.412 13.9611 29.0094 13.7944C28.6067 13.6276 28.2409 13.3832 27.9327 13.0751C27.6246 12.7669 27.3802 12.4011 27.2134 11.9984C27.0467 11.5958 26.9609 11.1643 26.9609 10.7285C26.9609 10.2927 27.0467 9.86118 27.2134 9.45855C27.3802 9.05593 27.6246 8.69009 27.9327 8.38195C28.2409 8.0738 28.6067 7.82937 29.0094 7.66263C29.412 7.49588 29.8435 7.41009 30.2793 7.41014ZM20.4023 10.1523L20.7148 12.2305L18.2676 13.3926L19.5508 14.6484C19.4564 14.1946 19.3227 13.9049 19.166 13.4648L21.1719 12.5019L20.7969 10.2871L20.4023 10.1523ZM17.1836 11.2754L16.668 11.4004L15.9609 14.168L18.3965 15.6055C18.1509 16.1464 17.9534 16.4975 17.7852 17.0625L19.543 15.6113L16.5645 13.8769L17.1836 11.2754ZM12.6426 14.2676L12.377 14.6094L13.334 16.7422L15.6289 16.418C15.7476 16.8899 15.8018 17.2182 15.9824 17.666L16.3652 15.8398L13.5723 16.248L12.6426 14.2676ZM27.5703 15.0644C26.6056 15.1067 25.7175 15.8895 24.4922 16.6543C23.2984 17.6129 22.2699 18.6323 21.4277 19.9062C20.0698 21.9869 19.3727 24.4123 19.3965 26.9824C19.4209 28.7518 19.9366 30.6975 21.6738 30.9101C25.1787 30.8487 28.5324 30.767 31.9336 30.7617L32.9512 41.0605C33.0375 41.9343 33.7941 42.5705 34.6465 42.4863C35.4988 42.4021 36.1156 41.6316 36.0293 40.7578L34.8125 28.4336C34.7522 27.8225 34.361 27.3345 33.8418 27.1211V27.1152C33.8323 27.1123 33.822 27.1103 33.8125 27.1074C33.688 27.0593 33.5581 27.0235 33.4219 27.0097C29.4593 26.0287 24.0337 27.7307 28.7578 20.9023L30.0254 24.4355C30.07 24.6483 30.1632 24.8439 30.3145 25.0058C30.3359 25.03 30.3654 25.0441 30.3887 25.0664C30.4642 25.1352 30.534 25.2084 30.6289 25.2578L30.6484 25.2676L34.2109 27.1191C34.7951 27.4227 35.5052 27.1947 35.8027 26.6074C36.1003 26.0202 35.8693 25.3035 35.2852 25L32.2402 23.418L29.875 16.8222C29.8549 16.7662 29.8212 16.719 29.793 16.668C29.7771 16.621 29.7205 16.4445 29.709 16.4101C29.0118 15.4589 28.1491 15.0391 27.5703 15.0644ZM27.8281 15.5625C28.4022 15.6254 28.7868 16.1284 29.1777 16.5058L29.3574 16.9707L31.7715 23.5918C31.8183 23.688 31.8365 23.7908 32.002 23.8574L35.1289 25.4863C35.5816 25.7839 35.4611 26.8983 34.4648 26.6875L30.8398 24.8008C30.5759 24.578 30.5877 24.4319 30.4922 24.2558L29.2246 20.7226C28.9902 20.2343 28.7243 20.0024 28.3555 20.6211C27.6306 21.5833 26.9382 22.6263 26.4805 24.2461L26.4219 24.7422C26.369 25.4697 26.5812 26.1385 27.6406 26.6172L28.1113 26.7851C29.6065 27.234 31.2486 27.1956 32.8223 27.3828L33.3086 27.4961C33.6785 27.6403 34.0881 27.6187 34.3047 28.4043L35.5176 40.75C35.3403 42.2038 33.8582 42.3807 33.4414 40.9082L32.4316 30.7109C32.41 30.4423 32.3344 30.2193 31.9219 30.2695L21.6797 30.416C20.5779 30.0194 20.1047 29.0756 19.959 27.8476L19.9102 27.3496C19.7754 22.7567 21.76 19.785 24.4414 17.3457L24.8203 17.0195C25.8379 16.4116 27.1211 15.4821 27.5703 15.5644C27.6607 15.5539 27.7461 15.5535 27.8281 15.5625ZM15.7949 19.6191C15.3738 19.6101 14.9341 19.7022 14.4766 19.9238V31.0644V33.748H17H31.0156V31.0644H17V19.9238C16.618 19.7385 16.216 19.6282 15.7949 19.6191ZM23.3223 32.1055C23.3466 32.0972 23.3733 32.0979 23.3984 32.1094C23.4007 32.1105 23.404 32.112 23.4062 32.1133C23.4572 32.1406 23.4748 32.203 23.4473 32.2539C23.4195 32.3043 23.3572 32.3243 23.3066 32.2969C23.2559 32.2697 23.2367 32.2051 23.2637 32.1543C23.2766 32.13 23.298 32.1138 23.3223 32.1055ZM23.4844 32.5312C23.5101 32.5235 23.539 32.5252 23.5645 32.539C23.6154 32.5664 23.635 32.6288 23.6074 32.6797C23.58 32.7307 23.5157 32.7502 23.4648 32.7226C23.4138 32.6952 23.3943 32.6311 23.4219 32.5801C23.4356 32.5547 23.4587 32.5389 23.4844 32.5312ZM22.9863 32.7148C23.0223 32.704 23.062 32.7073 23.0977 32.7265C23.169 32.7651 23.1966 32.8525 23.1582 32.9238C23.1197 32.9952 23.0303 33.0228 22.959 32.9844C22.8876 32.9458 22.86 32.8565 22.8984 32.7851C22.9177 32.7495 22.9503 32.7256 22.9863 32.7148ZM23.3262 33.0781C23.375 33.0615 23.4301 33.0632 23.4805 33.0859C23.4849 33.0881 23.4899 33.0912 23.4941 33.0937C23.5964 33.1488 23.6352 33.2766 23.5801 33.3789C23.5249 33.4811 23.3972 33.5181 23.2949 33.4629C23.1927 33.4078 23.1538 33.28 23.209 33.1777C23.2351 33.1289 23.2773 33.0947 23.3262 33.0781ZM22.7324 33.4316C22.7665 33.4201 22.8047 33.4216 22.8398 33.4375C22.8428 33.4391 22.8467 33.4396 22.8496 33.4414C22.921 33.48 22.9466 33.5693 22.9082 33.6406C22.8697 33.7119 22.7804 33.7396 22.709 33.7012C22.6377 33.6627 22.612 33.5732 22.6504 33.5019C22.6687 33.4678 22.6983 33.4431 22.7324 33.4316ZM14.459 34.0566C14.5211 37.9738 16.8754 40.2892 20.1152 41.0742V42.6094H26.2031V40.8398C29.0206 39.8825 30.9978 37.6411 31.0547 34.0566H23.0898C23.1475 34.1497 23.1592 34.2678 23.1035 34.3711C23.0209 34.5252 22.8278 34.583 22.6738 34.5C22.5199 34.4169 22.4634 34.224 22.5469 34.0703C22.5499 34.0648 22.5554 34.0619 22.5586 34.0566H14.459ZM23.6113 34.3984C23.6523 34.4022 23.6939 34.4148 23.7324 34.4355C23.8863 34.5186 23.9428 34.7095 23.8594 34.8633C23.7764 35.0168 23.5853 35.075 23.4316 34.9922C23.2781 34.9093 23.22 34.7181 23.3027 34.5644C23.3647 34.4488 23.4885 34.3869 23.6113 34.3984ZM22.6191 34.7988C22.6435 34.7905 22.6702 34.7914 22.6953 34.8027C22.6976 34.8039 22.699 34.8053 22.7012 34.8066C22.7521 34.834 22.7717 34.8963 22.7441 34.9472C22.7164 34.9977 22.654 35.0175 22.6035 34.9902C22.5527 34.9629 22.5336 34.8984 22.5605 34.8476C22.5735 34.8234 22.5948 34.8071 22.6191 34.7988ZM22.334 35.1875C22.3828 35.1709 22.4379 35.1726 22.4883 35.1953C22.4927 35.1975 22.4957 35.1987 22.5 35.2012C22.6023 35.2564 22.6411 35.3841 22.5859 35.4863C22.5308 35.5886 22.4031 35.6273 22.3008 35.5722C22.1985 35.5171 22.1616 35.3894 22.2168 35.2871C22.2429 35.2384 22.2852 35.2041 22.334 35.1875ZM23.2734 35.3086C23.3293 35.3139 23.385 35.3311 23.4375 35.3594C23.6478 35.4725 23.7264 35.735 23.6133 35.9453C23.4999 36.156 23.2378 36.2328 23.0273 36.1191C22.8173 36.0055 22.738 35.7433 22.8516 35.5332C22.9367 35.3759 23.1059 35.2928 23.2734 35.3086ZM21.9668 35.9805C22.0231 35.9614 22.0865 35.962 22.1445 35.9883V35.9902C22.1495 35.9926 22.1534 35.9952 22.1582 35.998C22.276 36.0614 22.3213 36.2085 22.2578 36.3262C22.1941 36.4434 22.0471 36.4853 21.9297 36.4219C21.8122 36.3586 21.7672 36.2134 21.8301 36.0957C21.8602 36.0395 21.9105 35.9995 21.9668 35.9805ZM23.5215 36.3359C23.5229 36.3365 23.5241 36.3371 23.5254 36.3379C23.5578 36.3554 23.5698 36.395 23.5527 36.4277C23.5351 36.4604 23.4936 36.4729 23.4609 36.4551C23.4281 36.4375 23.4159 36.396 23.4336 36.3633C23.4505 36.3326 23.4896 36.3213 23.5215 36.3359ZM23.0938 36.4824C23.1346 36.4863 23.1745 36.4988 23.2129 36.5195C23.3665 36.6024 23.4246 36.7936 23.3418 36.9472C23.2589 37.1008 23.0677 37.159 22.9141 37.0762C22.7605 36.9933 22.7024 36.8001 22.7852 36.6465C22.8473 36.5313 22.9712 36.4708 23.0938 36.4824ZM22.2695 36.6972C22.2712 36.6979 22.2738 36.7004 22.2754 36.7012C22.3152 36.7226 22.3297 36.7706 22.3086 36.8105C22.2871 36.8505 22.2373 36.8654 22.1973 36.8437C22.1572 36.8222 22.1425 36.7724 22.1641 36.7324C22.1848 36.6948 22.2303 36.6795 22.2695 36.6972ZM21.6348 37.0898C21.6756 37.0937 21.7174 37.1062 21.7559 37.1269C21.9094 37.2098 21.9656 37.401 21.8828 37.5547C21.7999 37.7083 21.6087 37.7664 21.4551 37.6836C21.3015 37.6007 21.2434 37.4075 21.3262 37.2539C21.3883 37.1387 21.5122 37.0782 21.6348 37.0898ZM22.5938 37.1992C22.6278 37.1876 22.666 37.1892 22.7012 37.2051C22.7042 37.2067 22.7061 37.2091 22.709 37.2109C22.7803 37.2494 22.808 37.3368 22.7695 37.4082C22.731 37.4795 22.6417 37.5072 22.5703 37.4687C22.499 37.4302 22.4733 37.3409 22.5117 37.2695C22.53 37.2355 22.5597 37.2108 22.5938 37.1992ZM23.2793 37.4492C23.3036 37.4409 23.3304 37.4418 23.3555 37.4531C23.3579 37.4543 23.3611 37.4557 23.3633 37.457C23.4142 37.4844 23.4318 37.5487 23.4043 37.5996C23.3766 37.65 23.3142 37.668 23.2637 37.6406C23.2131 37.6134 23.1938 37.5508 23.2207 37.5C23.2337 37.4757 23.255 37.4575 23.2793 37.4492ZM22.9023 37.8555C22.9582 37.8608 23.0139 37.876 23.0664 37.9043C23.2767 38.0175 23.3572 38.2798 23.2441 38.4902C23.1308 38.7009 22.8667 38.7798 22.6562 38.666C22.4462 38.5524 22.3688 38.2902 22.4824 38.0801C22.5675 37.9228 22.7348 37.8397 22.9023 37.8555Z" fill="#333333"/>
</svg>
