<svg width="48" height="48" viewBox="0 0 48 48" fill="none" xmlns="http://www.w3.org/2000/svg">
<path fill-rule="evenodd" clip-rule="evenodd" d="M48 0H0V48H48V0ZM42 10.5C42 12.9853 39.9853 15 37.5 15C35.0147 15 33 12.9853 33 10.5C33 8.01472 35.0147 6 37.5 6C39.9853 6 42 8.01472 42 10.5ZM29.3263 22.3621C29.2981 22.6872 29.2735 22.9954 29.254 23.2772C29.2249 23.6974 29.2044 24.0953 29.2035 24.415C29.2031 24.5683 29.2067 24.7569 29.2267 24.9416C29.2363 25.0305 29.2556 25.1762 29.3004 25.3415L29.3021 25.3479C29.3284 25.4459 29.448 25.8911 29.8399 26.283C30.1678 26.6109 30.4518 26.7924 30.9938 27.1303C31.1894 27.2522 31.4225 27.3962 31.7179 27.5786L31.7192 27.5795C32.3313 27.9575 33.2101 28.5003 34.5739 29.3527C35.5106 29.9381 36.7445 29.6534 37.3299 28.7167C37.9154 27.78 37.6306 26.5461 36.694 25.9607C35.3345 25.111 34.3944 24.5303 33.7717 24.1456L33.7713 24.1453L33.771 24.1452L33.7703 24.1448L33.7703 24.1447L33.7687 24.1437C33.551 24.0093 33.3722 23.8988 33.2278 23.8092C33.2326 23.7294 33.2382 23.6442 33.2444 23.5536C33.2984 22.775 33.3976 21.7399 33.5083 20.6775C33.6108 19.695 33.721 18.7092 33.8105 17.9096L33.8307 17.7291C33.8767 17.317 33.9166 16.9583 33.9451 16.6902L33.9488 16.655C33.9691 16.4646 34.0001 16.1732 34 15.9999C34 15.4272 33.7648 15.0123 33.6136 14.8002C33.4549 14.5775 33.2826 14.427 33.1673 14.3375C32.9352 14.1574 32.6991 14.0441 32.5281 13.9739C32.1668 13.8256 31.7556 13.7317 31.3321 13.6852C30.465 13.5902 29.3625 13.6735 28.1264 14.1021C25.6249 14.9697 22.7224 17.1914 19.9973 21.9115C19.0628 23.53 19.8678 25.1448 20.4213 25.975C21.0532 26.923 21.9767 27.8127 22.8183 28.5294C23.6842 29.2667 24.5797 29.9177 25.2489 30.3791C25.4567 30.5224 25.6449 30.649 25.8063 30.7557L29.372 40.6763C29.7456 41.7158 30.8911 42.2556 31.9306 41.882C32.97 41.5084 33.5098 40.3629 33.1362 39.3234L29.3413 28.7652C29.188 28.3386 28.8944 27.9768 28.5085 27.739L28.5081 27.7387L28.5072 27.7382L28.4965 27.7316L28.4473 27.7007C28.4025 27.6724 28.3345 27.6292 28.2469 27.5726C28.0717 27.4592 27.8195 27.2929 27.5195 27.0861C27.0694 26.7757 26.5242 26.3826 25.9754 25.9469L26.2777 25.4431C26.9211 24.3708 27.3787 23.8498 27.9364 23.3779C28.3151 23.0574 28.7388 22.7568 29.3263 22.3621ZM22 42H13.5C9.35786 42 6 40.8807 6 39.5C6 38.1193 9.35786 37 13.5 37C21.5 37 22 40.6193 22 42ZM18.6032 30.3819C18.8437 29.8848 18.6357 29.2868 18.1385 29.0463C17.6414 28.8057 17.0434 29.0138 16.8028 29.5109L14.5998 34.0645C14.3593 34.5616 14.5673 35.1596 15.0645 35.4002C15.5616 35.6407 16.1597 35.4326 16.4002 34.9355L18.6032 30.3819ZM21.4334 32.099C21.9311 32.3383 22.1406 32.9358 21.9013 33.4335L20.6777 35.9781C20.4384 36.4759 19.8409 36.6853 19.3431 36.446C18.8454 36.2067 18.6359 35.6092 18.8753 35.1114L20.0988 32.5668C20.3382 32.0691 20.9357 31.8596 21.4334 32.099Z" fill="#333333"/>
</svg>
