<?xml version="1.0" encoding="UTF-8" standalone="no"?>
<!-- Created with Inkscape (http://www.inkscape.org/) -->
<svg id="svg8" xmlns:rdf="http://www.w3.org/1999/02/22-rdf-syntax-ns#" xmlns="http://www.w3.org/2000/svg" xmlns:osb="http://www.openswatchbook.org/uri/2009/osb" height="48" width="48" version="1.1" xmlns:cc="http://creativecommons.org/ns#" viewBox="0 0 12.7 12.7" xmlns:dc="http://purl.org/dc/elements/1.1/">
 <title id="title4753">UIO-icon</title>
 <metadata id="metadata5">
  <rdf:RDF>
   <cc:Work rdf:about="">
    <dc:format>image/svg+xml</dc:format>
    <dc:type rdf:resource="http://purl.org/dc/dcmitype/StillImage"/>
    <dc:title>UIO-icon</dc:title>
    <dc:creator>
     <cc:Agent>
      <dc:title>Joaquín Urbano</dc:title>
     </cc:Agent>
    </dc:creator>
    <dc:rights>
     <cc:Agent>
      <dc:title>GPL</dc:title>
     </cc:Agent>
    </dc:rights>
   </cc:Work>
  </rdf:RDF>
 </metadata>
 <g id="layer1" fill="#333" transform="translate(0,-284.3)">
  <path id="rect920" d="m0.13281 0c-0.073448 0-0.13281 0.059362-0.13281 0.13281v47.734c-1.8504e-17 0.074 0.059362 0.133 0.13281 0.133h47.734c0.074 0 0.133-0.059 0.133-0.133v-47.734c0-0.073638-0.059-0.133-0.133-0.133h-47.734zm13.082 4.498h0.017c3.69 0.0045 4.328 1.7101 4.305 6.863-0.058 0.462 0.063 1.269-0.672 1.18-0.156 0.823-0.552 1.558-1.179 1.961-0.926 0.594-1.783 1.215-2.454 1.213-0.979-0.031-1.53-0.503-2.642-1.221-0.6018-0.388-0.9012-1.143-1.0099-1.986-0.6725-0.093-0.6856-0.836-0.6895-1.147-0.0306-4.4543 0.5268-6.6996 3.9864-6.8473 0.113-0.004 0.218-0.0134 0.338-0.0137v-0.002zm-0.057 2.8106c-0.238 2.4309-2.635 0.2833-3.2732 2.9314v1.322c0 1.03 0.2482 2.053 0.9592 2.512 1.006 0.65 1.503 1.076 2.388 1.104 0.607 0.002 1.383-0.557 2.219-1.094 0.752-0.483 1.133-1.498 1.133-2.522-0.008-0.909-0.004-1.818-0.016-2.728-1.26 0.5061-2.268-0.349-3.41-1.5254zm-1.101 1.748c0.013-0.0002 0.018 0.0011 0.015 0.0039-0.012 0.0165-0.311 0.0839-0.677 0.1524-0.362 0.0674-0.661 0.1113-0.684 0.1016l-0.002-0.002c0.012-0.0165 0.311-0.0839 0.678-0.1523 0.314-0.0586 0.587-0.0999 0.66-0.1016l0.01-0.002zm2.244 0.0547h0.008c0.068 0.0004 0.352 0.0447 0.677 0.1055 0.367 0.0685 0.664 0.1359 0.676 0.1523 0.016 0.0181-0.297-0.0286-0.687-0.1015-0.37-0.0691-0.669-0.1367-0.676-0.1524l-0.002-0.0019c0-0.001 0.001-0.0015 0.004-0.002zm-2.668 0.459c0.234-0.0001 0.424 0.1937 0.424 0.4337-0.001 0.239-0.191 0.434-0.424 0.434-0.232-0.002-0.421-0.196-0.422-0.434 0-0.2391 0.189-0.4326 0.422-0.4337zm3.176 0c0.233-0.0001 0.423 0.1937 0.423 0.4337-0.001 0.239-0.19 0.434-0.423 0.434s-0.423-0.195-0.424-0.434c0-0.24 0.19-0.4338 0.424-0.4337zm-1.616 2.0017h0.002 0.028c0.21 0 0.381 0.036 0.381 0.08 0.005 0.046-0.167 0.084-0.381 0.084-0.215 0-0.387-0.038-0.381-0.084-0.001-0.042 0.152-0.077 0.351-0.08zm1.45 1.172c0.015 0.001 0.025 0.002 0.021 0.006-0.004 0.031-0.642 0.175-1.432 0.322-0.81 0.152-1.467 0.249-1.453 0.215 0.004-0.031 0.642-0.175 1.432-0.322 0.706-0.132 1.312-0.226 1.432-0.221zm15.25 0.781c0.442-0.001 0.898 0.024 1.451 0.077 1.613 0.151 3.001 0.488 4.59 1.115 2.809 1.108 5.072 2.762 6.546 4.789 0.924 1.269 1.424 2.482 1.54 3.728 0.071 0.776 0.019 1.227-0.233 2.053-0.205 0.671-0.258 0.789-0.533 1.211-3.141 3.615-7.813 3.358-11.551 2.408l-0.449-0.115-3.93 1.127c-2.161 0.621-3.944 1.125-3.961 1.117-0.019-0.008-0.023-0.025-0.015-0.049v-0.002c0.007-0.024 1.148-0.782 2.535-1.689 1.386-0.907 2.509-1.677 2.494-1.709-0.016-0.032-0.224-0.17-0.461-0.305s-0.687-0.418-1.004-0.631c-2.728-1.837-4.554-4.382-4.81-6.709-0.023-0.202-0.037-0.376-0.043-0.543-0.005 0.172-0.025 0.343-0.08 0.514l-2.524 7.768c-0.012 0.026-0.027 0.05-0.035 0.074-0.072 0.325-0.23 0.634-0.481 0.885l-0.199 0.199c1.009 0.401 1.559 0.896 1.565 1.406-0.005 0.145-0.053 0.288-0.145 0.43l-0.961 1.896 1.321 5c0.074-0.008 0.149-0.013 0.224-0.021 0.438-0.045 0.795 0.363 0.795 0.814 0 0.201-0.081 0.378-0.197 0.52 0.104 0.086 0.178 0.19 0.178 0.308 0 0.161-0.123 0.3-0.303 0.393 0.19 0.063 0.322 0.157 0.322 0.27 0 0.118-0.16 0.191-0.369 0.25 0.284 1.458-0.562 2.904-1.982 3.298-1.483 0.412-2.999-0.48-3.401-2.002l-0.17-0.636c-1.781 0.114-3.581 0.135-5.402 0.043l-0.121 0.453c-0.4019 1.521-1.9217 2.414-3.4045 2.002-1.3537-0.376-2.181-1.708-2.0118-3.094-0.3624-0.07-0.6621-0.146-0.6621-0.314 0-0.108 0.121-0.201 0.2989-0.264-0.188-0.094-0.3145-0.234-0.3145-0.399 0-0.127 0.0792-0.24 0.1992-0.33-0.1074-0.139-0.1836-0.306-0.1836-0.498 0-0.451 0.3583-0.87 0.7949-0.814 0.1672 0.02 0.3348 0.037 0.502 0.056l1.375-5.207-0.7988-1.574c-0.1273-0.15-0.205-0.304-0.2325-0.459l-0.0175-0.041 0.0117 0.008c-0.0065-0.029-0.0089-0.058-0.0117-0.088 0.0018-0.618 0.805-1.21 2.2265-1.64l-0.1054-0.106c-0.0221-0.023-0.0392-0.05-0.0586-0.074-0.2184-0.2-0.3967-0.452-0.4961-0.758l-2.5215-7.766c-0.1861-0.572-0.0738-1.171 0.25-1.621 0.1713-0.299 0.4496-0.566 0.9531-0.718 1.5363-0.548 2.7427-1.229 4.0781-1.715l-0.0195 0.023 3.0017 3.086-0.002 0.002 0.309 0.313 0.312-0.313-0.002-0.004 3.002-3.086-0.019-0.019c1.335 0.486 2.541 1.165 4.076 1.713 0.076 0.023 0.125 0.058 0.191 0.085 0.023 0.008 0.044 0.008 0.067 0.016 0.679 0.232 1.123 0.849 1.18 1.535 0.003-0.48 0.086-0.881 0.289-1.47 0.206-0.602 0.299-0.81 0.519-1.141 1.112-1.661 3.065-2.687 5.658-2.977 0.496-0.056 0.923-0.082 1.366-0.084zm0.574 0.489c-0.415-0.012-0.908 0.007-1.311 0.031-1.074 0.065-1.922 0.179-2.853 0.517-1.262 0.459-2.315 1.353-3.014 2.303-0.302 0.41-0.595 1.07-0.67 1.598-0.104 0.728-0.07 1.46 0.145 2.213 0.141 0.494 0.581 1.457 0.898 1.955 1.048 1.644 2.721 3.146 4.899 4.367 0.208 0.118 0.811 0.432 0.812 0.482-1.591 1.012-1.991 1.403-3.355 2.321 1.912-0.6 3.257-1.014 5.277-1.666l0.891 0.24c3.964 0.739 7.943 0.835 10.519-2.211 0.318-0.481 0.661-1.405 0.707-2.025 0.194-2.623-1.374-5.202-4.545-7.311-2.639-1.755-5.391-2.669-7.283-2.756l-1.117-0.058zm-19.748 1.582l1.513 1.552 0.684 0.7 0.338 0.347 2.535-2.599c0.111 0.031 0.214 0.069 0.322 0.105l-2.857 2.936-2.858-2.938c0.109-0.034 0.212-0.071 0.323-0.103zm22.775 1.011c0.158-0.008 0.329 0 0.506 0.012 0.298 0.025 0.485 0.072 0.639 0.162 0.084 0.05 0.105 0.077 0.136 0.168 0.056 0.163 0.019 0.479-0.078 0.672-0.133 0.268-0.154 0.399-0.107 0.719 0.032 0.216 0.087 0.332 0.176 0.377 0.297 0.15 0.507 0.312 0.74 0.57 0.188 0.209 0.302 0.396 0.389 0.637 0.113 0.316 0.14 0.471 0.148 0.908 0.01 0.466 0.02 0.493 0.23 0.66 0.064 0.051 0.143 0.129 0.178 0.172 0.296 0.384 0.41 0.561 0.533 0.83 0.168 0.361 0.241 0.922 0.178 1.328-0.021 0.136-0.111 0.366-0.23 0.59-0.065 0.122-0.411 0.469-0.62 0.621-0.18 0.132-0.364 0.233-0.546 0.303-0.078 0.03-0.226 0.087-0.328 0.127-0.173 0.066-0.732 0.208-0.821 0.209-0.021 0-0.12 0.019-0.219 0.047-0.098 0.026-0.275 0.06-0.392 0.072-0.118 0.012-0.285 0.031-0.369 0.043s-0.27 0.029-0.414 0.037c-0.246 0.016-0.654 0.012-1.268-0.008-1.051-0.034-2.021-0.253-2.76-0.623-0.171-0.085-0.248-0.143-0.447-0.328-0.204-0.189-0.256-0.25-0.332-0.394-0.225-0.426-0.253-1.1-0.066-1.604 0.07-0.19 0.21-0.471 0.324-0.648 0.057-0.089 0.127-0.221 0.154-0.295 0.049-0.136 0.049-0.136 0.008-0.233-0.162-0.376-0.174-0.427-0.174-0.703 0-0.185 0.014-0.302 0.041-0.394 0.041-0.144 0.236-0.529 0.358-0.705 0.174-0.254 0.45-0.572 0.654-0.75 0.172-0.151 0.24-0.231 0.336-0.383 0.404-0.645 0.425-0.671 0.691-0.932 0.142-0.139 0.246-0.218 0.649-0.484 0.236-0.157 0.627-0.382 0.806-0.463 0.138-0.063 0.515-0.176 0.862-0.258 0.13-0.03 0.277-0.049 0.435-0.057v-0.002zm0.133 0.571c-0.314 0-0.349 0.004-0.572 0.06-0.515 0.129-0.771 0.235-1.123 0.463-0.237 0.153-0.544 0.391-0.756 0.588-0.173 0.16-0.439 0.521-0.475 0.643-0.028 0.1-0.02 0.314 0.02 0.449 0.019 0.069 0.031 0.133 0.021 0.137-0.016 0.009-0.115-0.092-0.15-0.153-0.018-0.029-0.022-0.029-0.065 0-0.024 0.018-0.088 0.061-0.14 0.094-0.227 0.149-0.667 0.726-0.791 1.037-0.022 0.055-0.06 0.135-0.08 0.176-0.122 0.233-0.149 0.588-0.067 0.855 0.028 0.087 0.049 0.175 0.049 0.198 0 0.065 0.175 0.35 0.291 0.472 0.06 0.064 0.111 0.124 0.111 0.135 0 0.068-0.203-0.043-0.285-0.156-0.066-0.094-0.086-0.097-0.103-0.016-0.006 0.029-0.029 0.074-0.053 0.104-0.043 0.053-0.164 0.289-0.268 0.519-0.207 0.463-0.207 1.053 0 1.473 0.1 0.2 0.359 0.442 0.602 0.562 0.272 0.135 0.699 0.293 0.965 0.354 0.505 0.116 0.637 0.131 1.322 0.164l-0.002 0.006c0.3 0.015 0.64 0.024 0.756 0.023 0.212-0.002 0.681-0.044 1.07-0.099 0.116-0.015 0.27-0.038 0.344-0.049 0.13-0.018 0.592-0.146 0.709-0.196 0.52-0.222 0.688-0.323 0.959-0.576 0.176-0.164 0.214-0.215 0.367-0.48 0.073-0.127 0.084-0.16 0.098-0.32 0.053-0.598-0.212-1.357-0.594-1.709-0.148-0.137-0.314-0.264-0.424-0.321l-0.068-0.035-0.061 0.066c-0.065 0.073-0.336 0.202-0.367 0.172-0.009-0.009 0.036-0.07 0.098-0.134 0.304-0.315 0.409-0.533 0.41-0.864 0.001-0.193-0.036-0.329-0.164-0.629-0.173-0.404-0.36-0.697-0.527-0.818-0.064-0.046-0.268-0.12-0.282-0.105-0.003 0.003-0.025 0.05-0.052 0.101-0.079 0.153-0.206 0.307-0.311 0.375-0.143 0.092-0.197 0.112-0.225 0.086-0.022-0.021 0.049-0.096 0.2-0.213 0.077-0.06 0.148-0.198 0.162-0.306 0.01-0.089-0.03-0.281-0.098-0.452-0.025-0.061-0.056-0.151-0.066-0.203-0.012-0.051-0.036-0.143-0.053-0.205-0.024-0.087-0.023-0.137-0.01-0.224 0.029-0.17 0.08-0.268 0.229-0.426 0.434-0.199 0.02-0.565-0.1-0.572-0.112-0.052-0.124-0.051-0.451-0.051zm-15.221 3.941l-1.765 5.543-2.92 2.897c-0.008 0.008-0.012 0.019-0.02 0.027l-0.002 0.002c-0.51 0.595-0.471 1.304-0.133 1.764 0.018 0.021 0.03 0.046 0.047 0.066 0.377 0.446 1.057 0.606 1.776 0.057l3.072-3.098 0.4-0.404 0.049-0.051 1.951-6.018-2.455-0.785zm-10.092 0.176l-2.4512 0.781 1.8847 5.82 3.525 3.553c0.73 0.557 1.371 0.404 1.719-0.045-0.282-0.547-0.267-1.206 0.043-1.74-0.03-0.044-0.057-0.086-0.097-0.131l-2.92-2.896-1.7035-5.342zm0.6191 8.373c-0.4114 0.23-0.7649 0.626-0.9629 1.232l-1.9785 6.782c1.4079 0.149 2.8167 0.243 4.2248 0.289l1.494-5.828c-0.266-0.077-0.519-0.215-0.732-0.428l-2.0454-2.047zm8.4594 0.514l-1.672 1.67c-0.425 0.424-1.003 0.579-1.541 0.47l1.435 5.608c1.405-0.064 2.809-0.174 4.213-0.305l-1.918-6.586c-0.119-0.365-0.307-0.634-0.517-0.857zm-5.954 5.98l-0.484 1.834c1.308 0.026 2.616 0.015 3.924-0.031l-0.451-1.705c-0.374 0.037-0.756 0.057-1.137 0.058-0.63-0.002-1.255-0.055-1.852-0.156zm9.141 4.063c-1.407 0.216-2.823 0.382-4.25 0.494l0.135 0.529c1.147 3.147 4.554 1.039 4.115-1.023zm-15.305 0.048c-0.2021 1.997 3.0247 3.885 4.1367 0.834l0.0859-0.339c-1.394-0.094-2.801-0.256-4.2226-0.495z" fill-rule="evenodd" transform="matrix(.26458 0 0 .26458 0 284.3)"/>
 </g>
</svg>
