<svg width="48" height="48" viewBox="0 0 48 48" fill="none" xmlns="http://www.w3.org/2000/svg">
<path fill-rule="evenodd" clip-rule="evenodd" d="M48 0H0V48H48V0ZM24 24C28.42 24 32 20.42 32 16C32 11.58 28.42 8 24 8C19.58 8 16 11.58 16 16C16 20.42 19.58 24 24 24ZM24 29.5C23.5075 29.5 22.9697 29.2438 22.3992 28.9721C21.6468 28.6137 20.8374 28.2282 20 28.3674C19.3368 28.4776 18.6561 28.6127 17.9719 28.7724C17.6081 28.9306 17.2736 29.1605 16.9889 29.4535C16.4091 30.0502 16.0833 30.8594 16.0833 31.7032V32.4236C16.5302 32.5424 16.9358 32.7878 17.2539 33.1319C17.572 33.4761 17.7899 33.9052 17.8828 34.3704C17.9757 34.8357 17.9399 35.3185 17.7795 35.7638C17.619 36.2092 17.3404 36.5993 16.9752 36.8898C16.61 37.1803 16.173 37.3595 15.7137 37.4071C15.2545 37.4547 14.7915 37.3687 14.3774 37.1589C13.9632 36.9492 13.6146 36.624 13.3711 36.2205C13.1276 35.817 12.9991 35.3513 13 34.8763C13.0011 34.3144 13.1833 33.7688 13.5181 33.3249C13.8529 32.8811 14.3213 32.5641 14.85 32.4236V31.7032C14.85 31.1188 14.9619 30.54 15.1792 30C15.2505 29.8228 15.3328 29.6509 15.4253 29.4853C11.4602 30.795 8 32.969 8 36V40H40V36C40 33.0366 36.6925 30.8924 32.8393 29.5742C33.1574 30.1768 33.5791 30.718 34.0851 31.172C34.6781 31.5929 35.1619 32.1529 35.4953 32.8042C35.8287 33.4555 36.0019 34.1788 36 34.9126V37.5415C36.0001 38.0549 35.8013 38.5478 35.4464 38.914C35.0915 39.2803 34.6089 39.4907 34.1025 39.5H33.1973C33.0265 39.5 32.8626 39.4312 32.7418 39.3088C32.621 39.1864 32.5532 39.0203 32.5532 38.8472C32.5532 38.674 32.621 38.508 32.7418 38.3856C32.8626 38.2631 33.0265 38.1943 33.1973 38.1943H34.1025C34.2733 38.1943 34.4372 38.1256 34.5579 38.0031C34.6787 37.8807 34.7466 37.7147 34.7466 37.5415L34.7466 34.8949C34.7443 34.4663 34.6588 34.0423 34.4948 33.6471C34.3309 33.252 34.0917 32.8934 33.791 32.592C33.4904 32.2905 33.1341 32.052 32.7425 31.8901C32.3509 31.7282 31.9316 31.6461 31.5087 31.6484C30.6576 31.6531 29.8429 31.999 29.2427 32.6107C28.6425 33.2223 28.3056 34.0499 28.3056 34.9126V37.5415C28.3056 37.7147 28.3735 37.8807 28.4943 38.0031C28.6151 38.1256 28.7789 38.1943 28.9497 38.1943H29.9072C30.078 38.1943 30.2418 38.2631 30.3626 38.3856C30.4834 38.508 30.5513 38.674 30.5513 38.8472C30.5513 39.0203 30.4834 39.1864 30.3626 39.3088C30.2418 39.4312 30.078 39.5 29.9072 39.5H28.9323C28.4198 39.5 27.9283 39.2937 27.566 38.9264C27.2036 38.5591 27 38.0609 27 37.5415V34.9126C27.0116 34.1678 27.2034 33.4372 27.5585 32.7851C27.9136 32.1329 28.3342 31.579 28.9497 31.172C29.528 30.6575 29.9975 30.0295 30.3296 29.3259C30.397 29.183 30.4586 29.0376 30.514 28.89C29.667 28.6779 28.82 28.5037 28 28.3674C27.1626 28.2282 26.3533 28.6137 25.6009 28.9721C25.0303 29.2438 24.4925 29.5 24 29.5ZM16.1852 33.821C15.9824 33.6815 15.7439 33.6071 15.5 33.6071C15.338 33.6071 15.1777 33.6399 15.028 33.7037C14.8784 33.7675 14.7424 33.8609 14.6279 33.9788C14.5134 34.0967 14.4225 34.2366 14.3605 34.3906C14.2986 34.5446 14.2667 34.7096 14.2667 34.8763C14.2667 35.1273 14.339 35.3727 14.4745 35.5814C14.61 35.7901 14.8027 35.9528 15.028 36.0489C15.2534 36.1449 15.5014 36.1701 15.7406 36.1211C15.9799 36.0721 16.1996 35.9512 16.3721 35.7737C16.5446 35.5962 16.662 35.3701 16.7096 35.1239C16.7572 34.8777 16.7328 34.6225 16.6394 34.3906C16.5461 34.1586 16.388 33.9604 16.1852 33.821Z" fill="#333333"/>
</svg>
