<svg width="48" height="48" viewBox="0 0 48 48" fill="none" xmlns="http://www.w3.org/2000/svg">
<path d="M23.3308 5.61163C21.2619 5.6653 19.0262 6.25255 17.489 8.08226C15.8747 10.0875 15.5082 13.424 15.5417 18.178C15.5509 18.7331 15.5719 20.0586 16.7859 20.2424C16.9088 22.0023 17.4567 23.6402 18.7175 24.4338C20.7735 25.7281 21.7946 26.5786 23.6042 26.635C24.8436 26.6387 26.4275 25.5194 28.1375 24.4495C29.4492 23.6287 30.207 22.0415 30.4031 20.3264C31.6421 20.399 31.4223 18.9875 31.5261 18.178C31.5499 12.5923 31.506 9.76814 29.6863 7.99437C28.5778 6.61835 26.494 5.71574 24.2039 5.61936C23.9176 5.60802 23.6264 5.6043 23.3308 5.61186V5.61163ZM23.6785 6.08811C25.974 6.07677 28.3904 6.94114 30.0554 9.26982C31.1023 11.1136 31.034 14.4334 31.0203 17.428C31.0436 19.8647 30.9393 19.936 30.4207 19.8616C30.3754 17.2778 30.305 14.9772 30.2097 12.7365C26.7238 14.4233 20.5403 12.1947 19.2234 10.2405C19.1627 11.386 19.2283 12.966 18.5183 13.0627C18.0085 13.1323 17.5716 13.0476 16.8992 13.8987L16.782 19.6761C16.4546 19.7846 16.0937 19.5427 16.0222 18.8772C15.8637 15.5879 16.0271 10.0454 18.03 8.15065C19.2089 6.98497 21.3829 6.09926 23.6785 6.08811ZM19.6472 11.3303C21.7759 13.4681 27.1525 14.3995 29.8464 13.3968C29.8767 15.248 30.0582 17.2816 30.0691 19.1331C30.0691 20.9778 29.1666 23.2711 27.9167 24.0003C27.1204 24.5448 25.3494 25.9857 23.5691 26.1136C21.9325 26.0667 20.8463 25.2022 18.9871 24.0315C17.6734 23.2046 17.1921 21.0303 17.1921 19.1761L17.4128 14.3264C18.0452 12.8425 19.2941 14.8485 19.6472 11.3303ZM20.6492 15.5608C20.2173 15.5609 19.8661 15.9123 19.866 16.344C19.8661 16.7758 20.2174 17.1252 20.6492 17.1253C21.081 17.1252 21.4303 16.7756 21.4304 16.344C21.4303 15.9121 21.081 15.5609 20.6492 15.5608ZM26.5203 15.5608C26.0884 15.5609 25.7372 15.9123 25.7371 16.344C25.7372 16.7758 26.0885 17.1252 26.5203 17.1253C26.9521 17.1252 27.3014 16.7756 27.3015 16.344C27.3014 15.9121 26.9521 15.5609 26.5203 15.5608ZM23.5124 19.1722C23.1488 19.1797 22.8748 19.2435 22.8796 19.3188C22.8816 19.3985 23.1967 19.4632 23.5847 19.4632C23.9727 19.4632 24.2878 19.3989 24.2898 19.3188C24.2929 19.2386 23.9763 19.1722 23.5847 19.1722C23.5609 19.1719 23.5361 19.1719 23.5125 19.1722H23.5124ZM23.5652 21.676C22.1382 21.6797 21.0346 21.7248 21.0457 21.7777C21.0378 21.8325 22.254 21.877 23.7566 21.877C25.2585 21.877 26.4735 21.8325 26.4656 21.7777C26.4735 21.7226 25.2584 21.676 23.7566 21.676C23.6926 21.6759 23.6292 21.6759 23.5652 21.676ZM31.1804 26.8323L23.7878 30.8752L16.1355 27.1077C15.2059 27.3322 14.2264 27.6136 13.282 27.9475L12.8347 28.1176C12.8323 28.2163 12.8531 28.3133 12.8757 28.4105C12.8493 28.3092 12.835 28.2114 12.8347 28.1176C10.3925 29.044 8.31395 30.3644 8.30347 32.1996L8.32104 42.3286L39.7019 42.3792L39.7216 32.2014C39.6488 29.6538 36.297 28.1496 33.3173 27.3381C33.3173 27.3381 33.3173 27.3305 33.3173 27.3305C33.1341 27.2833 32.8484 27.2119 32.6102 27.1295C32.1129 27.0131 31.6292 26.911 31.1805 26.8305L31.1804 26.8323ZM31.3191 27.4241L32.4499 27.6251C32.4814 27.6289 32.5157 27.6365 32.5496 27.644C32.4741 28.4049 32.1547 31.5077 31.6375 32.8237H31.3445V33.9253C30.14 34.25 29.3028 35.3419 29.3015 36.5894C29.3007 38.1153 30.5373 39.3528 32.0632 39.353C33.5892 39.3528 34.8258 38.1153 34.825 36.5894C34.8246 35.3412 33.9871 34.2484 32.782 33.9234V32.8237H32.4421C32.7322 31.4602 33.1583 28.4503 33.2527 27.7788C33.3021 27.7863 33.3508 27.7939 33.4031 27.809C35.9489 28.421 39.1581 30.1117 39.2214 32.2895L39.2116 41.9009L8.82294 41.9084L8.79754 32.3654C8.80767 30.6268 10.6275 29.576 12.9811 28.6975C13.352 29.4706 14.4459 30.2019 15.8503 30.9592L15.6901 30.9981L14.8952 31.2324C13.8327 31.5465 13.2295 32.6543 13.5436 33.7168L14.8659 38.1836C14.9952 38.6211 15.2585 38.9807 15.5983 39.2305C16.0839 39.5873 16.7252 39.72 17.3503 39.5351L17.5534 39.4747L17.5671 39.5177C17.6156 39.6817 17.7875 39.7752 17.9518 39.7268L17.9929 39.7154C18.1572 39.6666 18.2525 39.495 18.2038 39.3306L18.0866 38.9381C18.0381 38.7741 17.8662 38.6803 17.7018 38.7291L17.6608 38.7404C17.4971 38.7888 17.4026 38.9596 17.4499 39.1232C16.459 39.2993 15.4786 38.7194 15.1862 37.7307L14.1804 34.3283C13.8662 33.2658 14.4694 32.1561 15.5319 31.842L15.9069 31.7328L16.6921 31.5472L17.0671 31.436C18.1296 31.1219 19.2373 31.7252 19.5515 32.7876L20.5593 36.19C20.8516 37.1787 20.3439 38.1972 19.4167 38.5884C19.3674 38.4251 19.1957 38.3348 19.0319 38.3832L18.9909 38.3945C18.8265 38.4432 18.7314 38.6133 18.78 38.7773L18.8972 39.1719C18.9458 39.3363 19.1176 39.4277 19.2819 39.3789L19.3229 39.3676C19.4873 39.3189 19.5825 39.1488 19.5339 38.9848L19.5202 38.9398L19.7253 38.8812C20.7878 38.5672 21.3891 37.4574 21.0749 36.3949L19.7546 31.9281C19.4404 30.8656 18.3327 30.2625 17.2702 30.5766L16.4968 30.7621C15.1462 30.0527 14.0241 29.2254 13.5358 28.4965C14.4392 28.1628 15.364 27.8119 16.0261 27.7523L23.7878 31.5805L31.3191 27.4241ZM32.0632 34.2347C33.364 34.2349 34.4185 35.2893 34.4187 36.5901C34.4196 37.8916 33.3648 38.9473 32.0632 38.9476C30.7617 38.9473 29.7069 37.8916 29.7078 36.5901C29.708 35.2893 30.7624 34.2349 32.0632 34.2347ZM32.0632 35.4221C31.4183 35.4223 30.8955 35.9451 30.8953 36.5901C30.8944 37.2358 31.4175 37.7598 32.0632 37.76C32.7089 37.7598 33.2321 37.2358 33.2312 36.5901C33.231 35.9451 32.7082 35.4223 32.0632 35.4221Z" fill="#333333"/>
</svg>
