<svg width="48" height="48" viewBox="0 0 48 48" fill="none" xmlns="http://www.w3.org/2000/svg">
<path d="M24.2019 5.62966C21.9117 5.53328 19.4157 6.24365 17.4871 8.09256C15.8727 10.0978 15.5063 13.4343 15.5398 18.1883C15.5489 18.7434 15.5699 20.0689 16.7839 20.2527C16.9069 22.0126 17.4548 23.6505 18.7156 24.4441C20.7716 25.7384 21.7926 26.5889 23.6023 26.6453C24.8417 26.649 26.4255 25.5297 28.1355 24.4598C29.4473 23.639 30.2051 22.0519 30.4011 20.3368C31.6402 20.4094 31.4203 18.9978 31.5242 18.1883C31.548 12.6026 31.5041 9.77848 29.6843 8.00467C28.5758 6.62865 26.4921 5.72604 24.2019 5.62966ZM19.6453 11.3406C21.7739 13.4784 27.0627 14.611 29.7566 13.6082C29.7868 15.4595 29.7906 17.3134 29.8015 19.1648C29.8015 21.0095 29.0904 22.8322 27.7 23.702C26.1536 24.6697 24.7231 25.6802 23.6023 25.6766C21.9657 25.6297 21.0436 24.8589 19.1843 23.6883C17.8707 22.8614 17.4109 21.0191 17.4109 19.1648V14.3367C18.0432 12.8528 19.2922 14.8588 19.6453 11.3406ZM20.6472 15.5711C20.2154 15.5712 19.8641 15.9227 19.864 16.3544C19.8641 16.7862 20.2154 17.1355 20.6472 17.1356C21.079 17.1355 21.4284 16.786 21.4285 16.3544C21.4284 15.9225 21.079 15.5712 20.6472 15.5711ZM26.5183 15.5711C26.0865 15.5712 25.7352 15.9227 25.7351 16.3544C25.7352 16.7862 26.0865 17.1355 26.5183 17.1356C26.9501 17.1355 27.2995 16.786 27.2996 16.3544C27.2995 15.9225 26.9501 15.5712 26.5183 15.5711ZM23.5105 19.1825C23.1469 19.19 22.8729 19.2539 22.8777 19.3291C22.8797 19.4088 23.1948 19.4735 23.5828 19.4735C23.9707 19.4735 24.2858 19.4092 24.2878 19.3291C24.2909 19.2489 23.9744 19.1825 23.5828 19.1825C23.559 19.1822 23.5342 19.1822 23.5105 19.1825H23.5105ZM23.5632 21.6863C22.1362 21.69 21.0326 21.7351 21.0437 21.788C21.0358 21.8428 22.252 21.8875 23.7546 21.8875C25.2565 21.8875 26.4715 21.8428 26.4636 21.788C26.4715 21.7329 25.2565 21.6863 23.7546 21.6863C23.6906 21.6862 23.6273 21.6862 23.5632 21.6863ZM31.1785 26.8426L23.7859 30.8855L16.1335 27.118C15.2039 27.3425 14.2244 27.6239 13.28 27.9578C13.4252 28.7671 14.4094 29.6768 16.4949 30.7723L17.2683 30.5867C18.3308 30.2726 19.4385 30.8758 19.7527 31.9383L21.073 36.4051C21.3872 37.4676 20.7859 38.5773 19.7234 38.8914L19.5183 38.95L19.532 38.995C19.5806 39.159 19.4854 39.3291 19.3211 39.3778L19.28 39.3891C19.1157 39.4379 18.9439 39.3464 18.8953 39.182L18.7781 38.7875C18.7295 38.6235 18.8246 38.4534 18.989 38.4047L19.03 38.3934C19.1938 38.345 19.3655 38.4353 19.4148 38.5986C20.342 38.2073 20.8497 37.1889 20.5574 36.2001L19.5496 32.7978C19.2354 31.7354 18.1277 31.1321 17.0652 31.4462L16.6902 31.5573L15.905 31.7429L15.53 31.8521C14.4675 32.1662 13.8643 33.2759 14.1785 34.3384L15.1843 37.7409C15.4767 38.7296 16.4571 39.3095 17.448 39.1334C17.4007 38.9697 17.4952 38.7989 17.6589 38.7506L17.7 38.7393C17.8643 38.6905 18.0362 38.7842 18.0847 38.9483L18.2019 39.3408C18.2506 39.5052 18.1553 39.6768 17.991 39.7256L17.95 39.7369C17.7856 39.7853 17.6138 39.6919 17.5652 39.5279L17.5515 39.4849L17.3484 39.5453C16.7233 39.7301 16.082 39.5975 15.5964 39.2407C15.2566 38.9908 14.9934 38.6313 14.864 38.1938L13.5417 33.727C13.2276 32.6644 13.8308 31.5567 14.8933 31.2426L15.6882 31.0083L15.8484 30.9694C13.3846 29.6409 12.8348 28.8012 12.8328 28.1276C10.3905 29.054 8.312 30.3744 8.30151 32.2095L8.31909 42.3385L39.6999 42.3892L39.7196 32.2114C39.6456 29.6201 36.3594 28.1316 33.3426 27.3305C33.5084 30.72 32.7935 31.1744 32.4403 32.8345H32.7801V33.934C33.9853 34.2591 34.8227 35.3518 34.8231 36.6C34.824 38.1259 33.5873 39.3635 32.0614 39.3637C30.5355 39.3635 29.2988 38.1259 29.2997 36.6C29.301 35.3526 30.1382 34.2606 31.3426 33.936V32.8345H31.6356C32.3148 31.1065 32.9636 29.4253 32.6083 27.1411C32.111 27.0247 31.6273 26.9226 31.1786 26.8421L31.1785 26.8426ZM32.0613 34.245C30.7605 34.2452 29.706 35.2996 29.7058 36.6004C29.705 37.9019 30.7597 38.9576 32.0613 38.9579C33.3628 38.9576 34.4176 37.9019 34.4167 36.6004C34.4165 35.2996 33.3621 34.2452 32.0613 34.245ZM32.0613 35.4324C32.7062 35.4327 33.229 35.9554 33.2292 36.6004C33.2301 37.2461 32.707 37.7701 32.0613 37.7703C31.4156 37.7701 30.8925 37.2461 30.8933 36.6004C30.8935 35.9554 31.4163 35.4327 32.0613 35.4324Z" fill="#333333"/>
</svg>
