<svg width="48" height="48" viewBox="0 0 48 48" fill="none" xmlns="http://www.w3.org/2000/svg">
<path d="M24.0059 5.71736C22.0997 5.6909 20.0175 6.16085 18.1699 7.52015C17.5282 8.02283 17.2248 8.48827 16.6816 9.20173C14.2331 12.6276 14.201 18.2833 14.8633 23.8209C15.4116 26.9441 18.5501 24.715 20.4687 25.1998C21.731 26.0057 22.6509 26.5145 24.0195 26.5572C24.9384 26.5598 26.0471 25.9337 27.2578 25.1764C27.2587 25.1756 27.2626 25.1773 27.2637 25.1764C29.1881 24.7678 32.252 26.9026 32.793 23.8209C33.6274 18.3588 33.5229 12.6281 31.3535 9.23102C30.8535 8.52221 30.2615 7.92396 29.6172 7.4107C28.6169 6.59628 26.4567 5.74933 24.0059 5.71736ZM25 10.7428C29.5194 14.2212 31.0713 17.4791 29.3984 22.2038C29.0651 22.7936 28.6264 23.2959 28.0742 23.6413C26.544 24.5988 25.1266 25.5999 24.0176 25.5963C22.3982 25.5498 21.4863 24.7879 19.6465 23.6295C18.3466 22.8114 17.8945 20.9859 17.8945 19.151V15.4127C20.6331 15.2823 22.8004 12.9521 25 10.7428ZM21.0957 15.5943C20.6677 15.5934 20.3204 15.9417 20.3203 16.3698C20.3204 16.7978 20.6676 17.1441 21.0957 17.1431C21.523 17.143 21.8691 16.797 21.8691 16.3698C21.869 15.9425 21.523 15.5944 21.0957 15.5943ZM26.9043 15.5943C26.477 15.5944 26.129 15.9425 26.1289 16.3698C26.129 16.7971 26.477 17.143 26.9043 17.1431C27.3316 17.143 27.6777 16.797 27.6777 16.3698C27.6776 15.9425 27.3316 15.5944 26.9043 15.5943ZM23.9492 19.1705C23.5852 19.1743 23.3032 19.2377 23.3027 19.313C23.305 19.3916 23.6151 19.4551 23.998 19.4555C24.3817 19.4556 24.693 19.3919 24.6953 19.313C24.6937 19.234 24.3822 19.1705 23.998 19.1705C23.9816 19.1704 23.9657 19.1704 23.9492 19.1705H23.9492ZM23.543 21.6491C22.2549 21.6567 21.3169 21.6982 21.3203 21.7466C21.3093 21.801 22.5116 21.844 24 21.844C25.4884 21.844 26.6907 21.801 26.6797 21.7466C26.662 21.6929 25.4681 21.6491 24 21.6491C23.8482 21.6486 23.6948 21.6486 23.543 21.6491ZM31.3828 26.7037L23.9902 30.7467L16.3379 26.9792C16.0313 27.0532 15.7594 27.1398 15.4824 27.2252C14.7005 28.2643 15.0486 29.6256 15.9355 30.7466L16.709 30.561C17.7715 30.2469 18.8792 30.8501 19.1934 31.9126L20.5137 36.3794C20.8278 37.4419 20.2266 38.5517 19.1641 38.8657L18.959 38.9243L18.9727 38.9693C19.0212 39.1333 18.9261 39.3034 18.7617 39.3521L18.7207 39.3634C18.5564 39.4122 18.3846 39.3208 18.3359 39.1564L18.2188 38.7618C18.1702 38.5978 18.2653 38.4277 18.4297 38.379L18.4707 38.3677C18.6344 38.3193 18.8062 38.4096 18.8555 38.5729C19.7827 38.1817 20.2904 37.1632 19.9981 36.1745L18.9902 32.7721C18.6761 31.7097 17.5684 31.1064 16.5059 31.4205L16.1309 31.5317L15.3457 31.7173L14.9707 31.8265C13.9082 32.1406 13.305 33.2503 13.6191 34.3128L14.625 37.7152C14.9174 38.7039 15.8978 39.2839 16.8887 39.1077C16.8414 38.9441 16.9359 38.7732 17.0996 38.7249L17.1406 38.7136C17.305 38.6648 17.4769 38.7586 17.5254 38.9226L17.6426 39.3152C17.6913 39.4796 17.596 39.6512 17.4316 39.7L17.3906 39.7113C17.2263 39.7597 17.0544 39.6663 17.0059 39.5023L16.9922 39.4592L16.789 39.5196C15.7265 39.8337 14.6189 39.2306 14.3047 38.1681L12.9824 33.7018C12.6682 32.6392 13.2715 31.5315 14.334 31.2174L15.1289 30.983L15.2891 30.9442C14.07 28.9233 14.4165 28.2338 14.707 27.4968C12.3457 28.4208 11.2586 29.8824 11.2461 32.0711L11.332 42.3074H36.8242L36.7852 32.1062C36.7065 29.3505 35.249 27.8122 32.7715 27.0457C32.9906 30.6881 32.2433 31.1056 31.8809 32.8094H32.2207V33.9089C33.4258 34.234 34.2633 35.3267 34.2637 36.5749C34.2645 38.1008 33.0279 39.3384 31.502 39.3386C29.976 39.3384 28.7394 38.1008 28.7402 36.5749C28.7415 35.3275 29.5788 34.2355 30.7832 33.9109V32.8094H31.0762C31.779 31.0214 32.5792 29.2861 32.1445 26.8777C31.8946 26.8168 31.6504 26.7518 31.3828 26.7038L31.3828 26.7037ZM31.502 34.2193C30.2012 34.2195 29.1467 35.274 29.1465 36.5748C29.1456 37.8764 30.2004 38.9319 31.502 38.9322C32.8035 38.9319 33.8583 37.8764 33.8574 36.5748C33.8572 35.274 32.8027 34.2195 31.502 34.2193ZM31.502 35.4069C32.1469 35.4071 32.6697 35.9298 32.6699 36.5748C32.6708 37.2205 32.1477 37.7445 31.502 37.7447C30.8562 37.7445 30.3331 37.2205 30.334 36.5748C30.3342 35.9298 30.857 35.4071 31.502 35.4069Z" fill="#333333"/>
</svg>
