<svg width="48" height="48" viewBox="0 0 48 48" fill="none" xmlns="http://www.w3.org/2000/svg">
<g clip-path="url(#clip0)">
<path fill-rule="evenodd" clip-rule="evenodd" d="M0.00976562 0.00585938V48.0059H48.0098V0.00585938H0.00976562ZM24.2012 5.62891C26.4913 5.72528 28.5751 6.62789 29.6836 8.00391C31.5033 9.77771 31.5472 12.6018 31.5234 18.1875C31.4196 18.997 31.6394 20.4085 30.4004 20.3359C30.2043 22.051 29.4465 23.6382 28.1348 24.459C26.4248 25.5289 24.8409 26.6482 23.6016 26.6445C21.7919 26.5881 20.7708 25.7376 18.7148 24.4434C17.454 23.6497 16.9062 22.0119 16.7832 20.252C15.5692 20.0682 15.5482 18.7426 15.5391 18.1875C15.5055 13.4335 15.872 10.097 17.4863 8.0918C19.415 6.24289 21.911 5.53253 24.2012 5.62891ZM19.6445 11.3398C19.2914 14.858 18.0425 12.852 17.4102 14.3359V19.1641C17.4102 21.0183 17.87 22.8606 19.1836 23.6875C21.0429 24.8581 21.965 25.6289 23.6016 25.6758C24.7223 25.6794 26.1528 24.6688 27.6992 23.7012C29.0897 22.8314 29.8008 21.0088 29.8008 19.1641C29.7899 17.3126 29.7861 15.4587 29.7559 13.6074C27.0619 14.6102 21.7732 13.4777 19.6445 11.3398ZM20.6465 15.5703C21.0783 15.5704 21.4276 15.9217 21.4277 16.3535C21.4276 16.7851 21.0783 17.1347 20.6465 17.1348C20.2147 17.1347 19.8634 16.7854 19.8633 16.3535C19.8634 15.9218 20.2147 15.5704 20.6465 15.5703ZM26.5176 15.5703C26.9494 15.5704 27.2987 15.9217 27.2988 16.3535C27.2987 16.7851 26.9494 17.1347 26.5176 17.1348C26.0858 17.1347 25.7345 16.7854 25.7344 16.3535C25.7345 15.9218 26.0857 15.5704 26.5176 15.5703ZM23.5098 19.1816C23.5335 19.1814 23.5582 19.1814 23.582 19.1816C23.9736 19.1816 24.2902 19.248 24.2871 19.3281C24.2851 19.4083 23.97 19.4727 23.582 19.4727C23.1941 19.4727 22.879 19.4079 22.877 19.3281C22.8721 19.2529 23.1461 19.1892 23.5098 19.1816ZM23.5625 21.6855C23.6265 21.6854 23.6899 21.6854 23.7539 21.6855C25.2558 21.6855 26.4708 21.7319 26.4629 21.7871C26.4708 21.8419 25.2558 21.8867 23.7539 21.8867C22.2513 21.8867 21.0351 21.8419 21.043 21.7871C21.0319 21.7342 22.1355 21.6893 23.5625 21.6855ZM31.1777 26.8418C31.6264 26.9223 32.1101 27.0242 32.6074 27.1406C32.9627 29.4249 32.314 31.106 31.6348 32.834H31.3418V33.9355C30.1374 34.2602 29.3001 35.3521 29.2988 36.5996C29.298 38.1255 30.5346 39.3631 32.0605 39.3633C33.5865 39.3631 34.8231 38.1255 34.8223 36.5996C34.8219 35.3514 33.9844 34.2586 32.7793 33.9336V32.834H32.4395C32.7926 31.1739 33.5075 30.7196 33.3418 27.3301C36.3585 28.1313 39.6447 29.6196 39.7187 32.2109L39.6992 42.3887L8.31836 42.3379L8.30078 32.209C8.31127 30.3738 10.3898 29.0534 12.832 28.127C12.834 28.8005 13.3839 29.6402 15.8477 30.9687L15.6875 31.0078L14.8926 31.2422C13.8301 31.5563 13.2268 32.664 13.541 33.7266L14.8633 38.1934C14.9926 38.6308 15.2559 38.9904 15.5957 39.2402C16.0813 39.597 16.7226 39.7297 17.3477 39.5449L17.5508 39.4844L17.5645 39.5273C17.613 39.6914 17.7849 39.7847 17.9492 39.7363L17.9902 39.7246C18.1546 39.6759 18.2499 39.5042 18.2012 39.3398L18.084 38.9473C18.0355 38.7832 17.8636 38.6895 17.6992 38.7383L17.6582 38.75C17.4945 38.7983 17.3999 38.9692 17.4473 39.1328C16.4564 39.3089 15.4759 38.7289 15.1836 37.7402L14.1777 34.3379C13.8636 33.2754 14.4668 32.1656 15.5293 31.8516L15.9043 31.7422L16.6895 31.5566L17.0645 31.4453C18.127 31.1312 19.2346 31.7344 19.5488 32.7969L20.5566 36.1992C20.849 37.1879 20.3412 38.2064 19.4141 38.5977C19.3648 38.4344 19.193 38.3442 19.0293 38.3926L18.9883 38.4043C18.8239 38.453 18.7288 38.6231 18.7773 38.7871L18.8945 39.1816C18.9432 39.346 19.115 39.4374 19.2793 39.3887L19.3203 39.377C19.4846 39.3282 19.5798 39.1582 19.5312 38.9941L19.5176 38.9492L19.7227 38.8906C20.7852 38.5765 21.3864 37.4668 21.0723 36.4043L19.752 31.9375C19.4378 30.8751 18.3301 30.2719 17.2676 30.5859L16.4941 30.7715C14.4087 29.6761 13.4245 28.7663 13.2793 27.957C14.2237 27.6231 15.2032 27.3417 16.1328 27.1172L23.7852 30.8848L31.1777 26.8418ZM32.0605 34.2441C33.3613 34.2444 34.4158 35.2988 34.416 36.5996C34.4169 37.9012 33.3621 38.9568 32.0605 38.957C30.759 38.9568 29.7042 37.9012 29.7051 36.5996C29.7053 35.2988 30.7598 34.2444 32.0605 34.2441ZM32.0605 35.4316C31.4156 35.4319 30.8928 35.9546 30.8926 36.5996C30.8917 37.2453 31.4148 37.7693 32.0605 37.7695C32.7063 37.7693 33.2294 37.2453 33.2285 36.5996C33.2283 35.9546 32.7055 35.4319 32.0605 35.4316Z" fill="#333333"/>
</g>
<defs>
<clipPath id="clip0">
<rect width="48" height="48" fill="white"/>
</clipPath>
</defs>
</svg>
