<svg width="48" height="48" viewBox="0 0 48 48" fill="none" xmlns="http://www.w3.org/2000/svg">
<path fill-rule="evenodd" clip-rule="evenodd" d="M48 0H0V48H48V0ZM26 16C26 20.42 22.42 24 18 24C13.58 24 10 20.42 10 16C10 11.58 13.58 8 18 8C22.42 8 26 11.58 26 16ZM11.1662 28.9718C10.7759 29.074 10.3862 29.1842 10 29.3025V34C10 35.1046 10.8954 36 12 36H24C25.1046 36 26 35.1046 26 34V29.3025C25.6138 29.1842 25.2241 29.074 24.8338 28.9718L20 33L18 30L16 33L11.1662 28.9718ZM29 30.4346V40H34V36C34 33.6115 31.8513 31.7552 29 30.4346ZM7 40V30.4346C4.14871 31.7552 2 33.6115 2 36V40H7ZM41.7853 19.9496C42.5731 19.7724 43.3554 20.2503 43.5629 21.0229C44.3565 20.6173 44.8071 19.713 44.6024 18.8034C44.3601 17.7258 43.2898 17.0487 42.2123 17.2911C41.9699 16.2135 40.8997 15.5364 39.8221 15.7788C39.4205 15.8691 39.0746 16.0745 38.811 16.3523C38.3733 15.6522 37.5268 15.2701 36.6758 15.4615C35.8247 15.653 35.2235 16.3608 35.1277 17.1809C34.7705 17.0427 34.37 17.0052 33.9684 17.0956C32.8908 17.338 32.2137 18.4082 32.4561 19.4857C31.3785 19.7281 30.7014 20.7983 30.9438 21.8759C31.1484 22.7855 31.9428 23.4098 32.8336 23.4365C32.6903 22.6494 33.1926 21.8825 33.9804 21.7053C34.0086 21.699 34.0368 21.6935 34.065 21.6888C33.9761 21.5478 33.9093 21.3894 33.8706 21.2175C33.6888 20.4093 34.1966 19.6067 35.0049 19.4249C35.4261 19.3301 35.8458 19.4227 36.1769 19.6475C36.2598 19.0455 36.7063 18.5296 37.3342 18.3884C37.962 18.2472 38.5864 18.5221 38.9191 19.0307C39.122 18.6857 39.4617 18.4223 39.883 18.3276C40.6912 18.1457 41.4938 18.6536 41.6756 19.4618C41.7143 19.6337 41.7217 19.8054 41.7017 19.9709C41.7292 19.9631 41.7571 19.9559 41.7853 19.9496ZM42.279 21.559C41.1116 20.4733 39.446 19.9633 37.7731 20.3396C36.1003 20.716 34.8135 21.8901 34.2234 23.3711C36.0439 23.6902 37.9124 26.0924 38.7641 29.3416L38.7727 29.3397L40.3089 36.169C40.4301 36.7079 40.9652 37.0464 41.504 36.9252C42.0428 36.804 42.3814 36.2689 42.2602 35.7301L40.7239 28.9008L40.7325 28.8988C40.1107 25.5979 40.7705 22.6269 42.279 21.559Z" fill="#333333"/>
</svg>
