<?xml version="1.0" encoding="UTF-8" standalone="no"?>
<!-- Created with Inkscape (http://www.inkscape.org/) -->
<svg id="svg8" xmlns:rdf="http://www.w3.org/1999/02/22-rdf-syntax-ns#" xmlns="http://www.w3.org/2000/svg" xmlns:osb="http://www.openswatchbook.org/uri/2009/osb" height="48" width="48" version="1.1" xmlns:cc="http://creativecommons.org/ns#" viewBox="0 0 12.7 12.7" xmlns:dc="http://purl.org/dc/elements/1.1/">
 <title id="title4753">UIO-icon</title>
 <metadata id="metadata5">
  <rdf:RDF>
   <cc:Work rdf:about="">
    <dc:format>image/svg+xml</dc:format>
    <dc:type rdf:resource="http://purl.org/dc/dcmitype/StillImage"/>
    <dc:title>UIO-icon</dc:title>
    <dc:creator>
     <cc:Agent>
      <dc:title>Joaquín Urbano</dc:title>
     </cc:Agent>
    </dc:creator>
    <dc:rights>
     <cc:Agent>
      <dc:title>GPL</dc:title>
     </cc:Agent>
    </dc:rights>
   </cc:Work>
  </rdf:RDF>
 </metadata>
 <g id="layer1" transform="translate(0,-284.3)">
  <path id="rect11002" d="m0 0v48h48v-48zm23.654 6.6426c0.011264-0.000080126 0.02079 0 0.03125 0 9.8414 0.020115 10.889 9.2274 9.4238 18.816-0.54224 3.0889-3.4892 1.2065-5.5195 1.3887l0.74219-0.50586c0.40568-0.27391 0.91232-0.55037 1.0645-0.87695 0.91881-1.9826 1.1173-3.2076 1.3027-4.416 0.073513-1.0386 0.043893-2.0813-0.25586-3.1406-0.436-1.482-1.241-2.717-1.923-3.541-0.977-1.163-2.096-2.173-3.301-3.086-0.10318-0.068194-0.20151-0.16165-0.31055-0.18555-0.10903-0.023894-0.22876 0.021779-0.37109 0.23242-1.3392 1.3635-2.4835 2.4884-3.7832 3.4629-1.176 0.83742-2.3142 1.2184-3.4277 1.3066-0.44642 0.12983-0.50045 0.26948-0.47852 0.51367-0.016879 1.296 0.10744 3.9925 0.125 4.2188 0.018648 1.1779 0.18519 2.2309 0.47461 3.1797 0.352 0.98079 0.8193 1.8027 1.5039 2.3262l1.0117 0.53711c-2.032-0.35-5.172 1.784-5.734-1.414-1.105-9.244-0.38-18.809 9.424-18.816zm1.25 5.0449c5.2217 4.0188 6.6866 7.7562 4.0234 13.564-0.17086 0.16658-0.35239 0.32145-0.55664 0.44922-1.528 1.028-3.294 2.248-4.433 2.244-1.664-0.047-2.642-0.745-4.532-1.935-1.335-0.841-1.912-3.164-1.916-5.049-0.056-1.432-0.158-2.864-0.131-4.295l0.001953-0.054688c2.913-0.105 5.211-2.581 7.543-4.923zm-3.982 5.527c-0.43898 0.00011339-0.79483 0.35604-0.79492 0.79492 0.0000911 0.43895 0.35596 0.79481 0.79492 0.79492 0.43898-0.00011339 0.79482-0.356 0.79492-0.79492-0.00009904-0.43899-0.35596-0.79481-0.79492-0.79492zm5.9688 0c-0.43898 0.00011339-0.79483 0.35604-0.79492 0.79492 0.0000911 0.43895 0.35592 0.79481 0.79492 0.79492 0.43899-0.00011339 0.79482-0.356 0.79492-0.79492-0.00009864-0.43899-0.35592-0.79481-0.79492-0.79492zm-3.0352 3.6699c-0.37814 0.00378-0.67004 0.070579-0.66602 0.14844 0.002 0.080882 0.3224 0.14686 0.7168 0.14648 0.39441 0.0000378 0.71477-0.065602 0.7168-0.14648 0.003-0.082016-0.31865-0.14844-0.7168-0.14844-0.017008-0.00011299-0.033996-0.00011299-0.050781 0zm0.035156 2.5488c-1.4518 0.003704-2.5734 0.048271-2.5605 0.10156 0.01852 0.055181 1.2473 0.099609 2.7559 0.099609 1.5078 0 2.7352-0.044806 2.7539-0.099609 0.009789-0.055937-1.226-0.10156-2.7539-0.10156-0.06508-0.00007559-0.13027-0.00007559-0.19531 0zm6.8516 5.2754c0.81693 0.28997 1.6098 0.61807 2.4043 0.95898v5.9824h-18.737v-5.8496c0.85479-0.37062 1.7067-0.72933 2.582-1.0449l0.10938-0.029297c1.8171 1.8074 4.275 2.8233 6.8379 2.8262 2.085-0.032267 5.2375-1.3736 6.8027-2.8437zm5.0566 2.1094c1.0649 0.46137 2.1621 0.92102 3.373 1.3418 2.5451 0.75129 2.5449 2.867 2.5449 4.0195v6.6621h-5.919zm-24.042 0.131v11.893h-5.6135v-6.662c0-1.1525-0.00017116-3.27 2.5449-4.0195 1.0957-0.38071 2.0962-0.79443 3.0684-1.2109z" fill-rule="evenodd" transform="matrix(.26458 0 0 .26458 0 284.3)" fill="#333"/>
 </g>
</svg>
