<svg width="48" height="48" viewBox="0 0 48 48" fill="none" xmlns="http://www.w3.org/2000/svg">
<path d="M18 24C22.42 24 26 20.42 26 16C26 11.58 22.42 8 18 8C13.58 8 10 11.58 10 16C10 20.42 13.58 24 18 24Z" fill="#333333"/>
<path d="M10 29.3025C10.3862 29.1842 10.7759 29.074 11.1662 28.9718L16 33L18 30L20 33L24.8338 28.9718C25.2241 29.074 25.6138 29.1842 26 29.3025V34C26 35.1046 25.1046 36 24 36H12C10.8954 36 10 35.1046 10 34V29.3025Z" fill="#333333"/>
<path d="M29 30.4346V40H34V36C34 33.6115 31.8513 31.7552 29 30.4346Z" fill="#333333"/>
<path d="M7 30.4346V40H2V36C2 33.6115 4.14871 31.7552 7 30.4346Z" fill="#333333"/>
<path d="M41.7853 19.9496C42.5731 19.7724 43.3554 20.2503 43.5629 21.0229C44.3565 20.6173 44.8071 19.713 44.6024 18.8034C44.3601 17.7258 43.2898 17.0487 42.2123 17.2911C41.9699 16.2135 40.8997 15.5364 39.8221 15.7788C39.4205 15.8691 39.0746 16.0745 38.811 16.3523C38.3733 15.6522 37.5268 15.2701 36.6758 15.4615C35.8247 15.653 35.2235 16.3608 35.1277 17.1809C34.7705 17.0427 34.37 17.0052 33.9684 17.0956C32.8908 17.338 32.2137 18.4082 32.4561 19.4857C31.3785 19.7281 30.7014 20.7983 30.9438 21.8759C31.1484 22.7855 31.9428 23.4098 32.8336 23.4365C32.6903 22.6494 33.1926 21.8825 33.9804 21.7053C34.0086 21.699 34.0368 21.6935 34.065 21.6888C33.9761 21.5478 33.9093 21.3894 33.8706 21.2175C33.6888 20.4093 34.1966 19.6067 35.0049 19.4249C35.4261 19.3301 35.8458 19.4227 36.1769 19.6475C36.2598 19.0455 36.7063 18.5296 37.3342 18.3884C37.962 18.2472 38.5864 18.5221 38.9191 19.0307C39.122 18.6857 39.4617 18.4223 39.883 18.3276C40.6912 18.1457 41.4938 18.6536 41.6756 19.4618C41.7143 19.6337 41.7217 19.8054 41.7017 19.9709C41.7292 19.9631 41.7571 19.9559 41.7853 19.9496Z" fill="#333333"/>
<path d="M37.7731 20.3396C39.446 19.9633 41.1116 20.4733 42.279 21.559C40.7705 22.6269 40.1107 25.5979 40.7325 28.8988L40.7239 28.9008L42.2602 35.7301C42.3814 36.2689 42.0428 36.804 41.504 36.9252C40.9652 37.0464 40.4301 36.7079 40.3089 36.169L38.7727 29.3397L38.7641 29.3416C37.9124 26.0924 36.0439 23.6902 34.2234 23.3711C34.8135 21.8901 36.1003 20.716 37.7731 20.3396Z" fill="#333333"/>
</svg>
