<svg width="48" height="48" viewBox="0 0 48 48" fill="none" xmlns="http://www.w3.org/2000/svg">
<path fill-rule="evenodd" clip-rule="evenodd" d="M28.9991 29.4321C29.6572 29.5354 30.3277 29.6574 31 29.7982V42H6V36.9999C6 32.8575 13.014 30.3721 19.0009 29.4321C19.0003 29.4546 19 29.4773 19 29.4999C19 30.0368 19.1727 30.5454 19.4812 31H18V38L24 35.2L30 38V31H28.5188C28.8273 30.5454 29 30.0368 29 29.4999C29 29.4773 28.9997 29.4546 28.9991 29.4321ZM14 41.9999V35.9999H12V41.9999H14Z" fill="#333333"/>
<path fill-rule="evenodd" clip-rule="evenodd" d="M17.0596 29.7859C17.5087 32.7282 20.4448 35 24.0001 35C27.5553 35 30.4915 32.7282 30.9406 29.7859C30.2882 29.6503 29.6378 29.5323 28.9991 29.4321C28.9997 29.4546 29 29.4773 29 29.4999C29 31.43 26.7682 32.9953 24.0124 33H23.9877C21.232 32.9953 19 31.43 19 29.4999C19 29.4773 19.0003 29.4546 19.0009 29.4321C18.3622 29.5323 17.7119 29.6503 17.0596 29.7859Z" fill="#333333"/>
<path d="M41.1206 27.0412C41.8381 27.0399 42.4242 27.6056 42.4548 28.3159C43.2216 28.1175 43.7873 27.4203 43.7856 26.5918C43.7838 25.6103 42.9864 24.816 42.005 24.8179C42.0031 23.8364 41.2057 23.0422 40.2242 23.0441C39.8584 23.0447 39.5187 23.156 39.2363 23.346C38.9921 22.6541 38.3317 22.159 37.5566 22.1605C36.7814 22.162 36.1231 22.6597 35.8814 23.3525C35.5983 23.1635 35.2582 23.0536 34.8924 23.0543C33.9108 23.0562 33.1166 23.8535 33.1185 24.835C32.137 24.8369 31.3428 25.6342 31.3446 26.6157C31.3462 27.4442 31.9145 28.1393 32.682 28.3347C32.7099 27.6243 33.2939 27.0563 34.0114 27.0549C34.0371 27.0549 34.0626 27.0556 34.088 27.057C34.0382 26.9175 34.0109 26.7672 34.0105 26.6106C34.0091 25.8744 34.6047 25.2765 35.341 25.2751C35.7246 25.2743 36.0708 25.4358 36.3145 25.6948C36.5028 25.1887 36.9898 24.8275 37.5617 24.8265C38.1336 24.8254 38.622 25.1845 38.8122 25.69C39.0549 25.43 39.4005 25.2672 39.7842 25.2666C40.5204 25.265 41.1183 25.8608 41.1197 26.5969C41.1201 26.7535 41.0933 26.9039 41.0439 27.0435C41.0693 27.0421 41.0949 27.0412 41.1206 27.0412Z" fill="#333333"/>
<path d="M37.5658 26.6045C39.0896 26.6016 40.4356 27.366 41.2383 28.5335C39.7234 29.168 38.5766 31.6174 38.4777 34.6007L38.4698 34.6007L38.4748 41.0072C38.4757 41.498 38.0786 41.8966 37.5878 41.8976C37.097 41.8985 36.6983 41.5015 36.6974 41.0106L36.6926 34.6041L36.6848 34.6041C36.5743 31.6212 35.4181 29.1764 33.9008 28.5476C34.699 27.3771 36.0421 26.6076 37.5658 26.6045Z" fill="#333333"/>
<path fill-rule="evenodd" clip-rule="evenodd" d="M26.3124 7.21763L26.3095 7.21715C27.7131 7.46832 29.1679 7.95742 30.8064 8.68617C31.1347 8.83218 31.3594 9.14308 31.3951 9.50059L31.9033 14.5943L33.8283 17.4397C34.0823 17.8152 34.0519 18.3147 33.7542 18.6567C33.4564 18.9986 32.9658 19.0975 32.5589 18.8974C26.4857 15.9123 21.3195 16.4192 15.3887 18.9214C14.971 19.0976 14.4869 18.9707 14.2093 18.6122C13.9317 18.2537 13.9301 17.7533 14.2053 17.393L16.3333 14.607V9.59987C16.3333 9.18549 16.5889 8.81404 16.9759 8.66593C18.5962 8.04584 20.0334 7.57651 21.4025 7.3007C21.4372 7.2937 21.522 7.26462 21.6792 7.16563C21.8182 7.07804 21.9576 6.97335 22.1361 6.83935C22.1614 6.82036 22.1874 6.80079 22.2144 6.78059C22.4108 6.63348 22.6619 6.4478 22.931 6.30142C23.2002 6.15491 23.5642 6.00392 23.991 6.00007C24.4214 5.99619 24.7799 6.15684 25.0298 6.30168C25.2804 6.44697 25.5117 6.63109 25.6847 6.77016C25.7055 6.78688 25.7256 6.80307 25.7451 6.81876C25.9087 6.95047 26.0288 7.0471 26.1468 7.12571C26.2631 7.20311 26.3124 7.21763 26.3124 7.21763ZM23.9873 8.01048C23.9654 8.01889 23.9324 8.0334 23.8868 8.05823C23.7608 8.12675 23.6158 8.22973 23.4136 8.38122C23.3907 8.39834 23.3669 8.41626 23.3422 8.43481C23.1713 8.5635 22.9596 8.7228 22.745 8.85794C22.4979 9.0136 22.175 9.18527 21.7975 9.26131C20.7542 9.47149 19.6311 9.81603 18.3333 10.2927V14.9452C18.3333 15.1646 18.2612 15.3779 18.128 15.5523L17.8769 15.881C22 14.6176 26.0033 14.4123 30.3197 15.8229L30.1051 15.5056C30.0121 15.3681 29.9548 15.2097 29.9383 15.0445L29.4633 10.2838C28.1483 9.72999 27.014 9.37499 25.9572 9.18587C25.5785 9.11811 25.264 8.94067 25.0383 8.79039C24.8389 8.65758 24.643 8.4995 24.4904 8.37629C24.4701 8.35991 24.4505 8.34414 24.4319 8.32912C24.2504 8.18328 24.1285 8.091 24.0266 8.03192C24.0111 8.02289 23.998 8.01588 23.9873 8.01048Z" fill="#333333"/>
<path fill-rule="evenodd" clip-rule="evenodd" d="M23.8832 13.5006C21.9788 13.4793 20.0493 14.0462 17.4601 15.3878L16.5399 13.6121C19.2792 12.1926 21.5447 11.4743 23.9056 11.5007C26.2502 11.5269 28.572 12.2876 31.4165 13.5908L30.5835 15.4091C27.8178 14.142 25.8039 13.522 23.8832 13.5006Z" fill="#333333"/>
<path fill-rule="evenodd" clip-rule="evenodd" d="M16.1829 18.2911C16.0631 18.8417 16 19.4135 16 20C16 24.4183 19.5817 28 24 28C28.4183 28 32 24.4183 32 20C32 19.4312 31.9406 18.8763 31.8278 18.3411C31.0314 18.0667 30.2626 17.8302 29.5145 17.6316C29.8269 18.3582 30 19.1589 30 20C30 23.3137 27.3137 26 24 26C20.6863 26 18 23.3137 18 20C18 19.1362 18.1825 18.315 18.5111 17.573C17.7543 17.772 16.9809 18.0115 16.1829 18.2911Z" fill="#333333"/>
</svg>
