<svg width="48" height="48" viewBox="0 0 48 48" fill="none" xmlns="http://www.w3.org/2000/svg">
<path d="M38.0151 3.93799C38.0152 3.93931 38.015 3.94062 38.0151 3.94168C38.0156 3.94032 38.0165 3.93908 38.0171 3.93799H38.0151ZM9.9819 4.00639C9.9825 4.00752 9.98334 4.00906 9.98386 4.01019C9.98396 4.0091 9.98377 4.00748 9.98386 4.00639H9.9819ZM38.8999 6.06305C28.0724 14.5659 28.603 18.0081 28.2299 18.9634C27.4733 18.4954 26.6394 18.147 25.7514 17.9497V14.77L24.8979 15.5552L23.9956 14.77L23.1518 15.5942L22.2983 14.77V17.9614C21.3889 18.1696 20.5378 18.5396 19.769 19.0318C19.396 18.0765 19.9285 14.6361 9.10104 6.13329C8.8872 9.18016 8.73184 11.1404 9.32175 13.6372C10.6315 18.3623 14.3477 19.8598 17.1382 21.6235C17.0988 21.6851 17.0706 21.7543 17.0327 21.817C16.287 23.2346 15.904 24.8802 15.8901 26.2038C15.863 28.7018 15.9953 31.0452 16.8061 32.5299H31.1909C32.2729 30.3288 32.2002 28.2673 32.2143 26.4245H32.2046C32.2096 26.3504 32.2126 26.2778 32.2143 26.2037C32.2143 24.4852 31.714 22.8887 30.8608 21.5553C33.6512 19.7916 37.3674 18.2921 38.6772 13.567C39.2672 11.0702 39.1137 9.10992 38.8999 6.06305ZM38.3491 6.96722C38.7376 8.46871 39.0688 14.006 36.2163 17.0825C34.9882 18.9357 31.81 20.2983 30.0229 21.4418C31.15 23.0262 31.8159 25.0926 31.7514 27.4321C31.749 29.0506 31.5568 30.6242 30.8823 32.0258L17.0757 32.0239C16.603 31.365 16.3645 29.2073 16.3296 27.4321C16.1123 25.1386 16.7294 23.0696 17.8647 21.4711C16.0722 20.3314 12.9219 18.9744 11.7007 17.1313C8.8481 14.0548 9.17938 8.51761 9.56784 7.01612C16.4178 12.9366 18.3587 15.3334 19.4135 19.8305C20.399 19.0471 21.5564 18.5088 22.8022 18.2954V16.0923L23.1694 16.2506L23.9878 15.4498L24.9702 16.2311L25.2495 16.0924V18.3034C26.4389 18.5196 27.545 19.0452 28.4975 19.8131C29.5506 15.2956 31.4833 12.9017 38.3491 6.96745V6.96722ZM38.0034 7.85397C35.3544 9.7192 29.1137 15.3194 29.5542 18.5552C34.6072 22.6673 38.5511 13.2616 38.0034 7.85397ZM9.91353 7.90276C9.36579 13.3104 13.3097 22.716 18.3628 18.604C18.8032 15.3682 12.5625 9.76799 9.91353 7.90276ZM37.4838 8.74844C37.8845 12.6758 34.3921 21.7874 29.9409 18.2308C30.0285 17.7016 30.0624 17.4705 30.4174 16.6761C32.1937 13.1845 35.3324 10.4796 37.4838 8.74844ZM10.4331 8.79723C12.5845 10.5284 15.7213 13.2333 17.4975 16.7249C17.8526 17.5193 17.8884 17.7504 17.976 18.2796C13.5248 21.8362 10.0324 12.7245 10.4331 8.79723ZM21.228 27.1116C20.7996 27.1116 20.3888 27.2616 20.0859 27.5287C19.783 27.7957 19.6128 28.1579 19.6128 28.5355C19.6128 28.9131 19.783 29.2753 20.0859 29.5423C20.3888 29.8093 20.7996 29.9593 21.228 29.9593C21.6563 29.9593 22.0672 29.8093 22.3701 29.5423C22.673 29.2753 22.8432 28.9131 22.8432 28.5355C22.8432 28.1579 22.673 27.7957 22.3701 27.5287C22.0672 27.2616 21.6563 27.1116 21.228 27.1116ZM26.8178 27.123C26.3895 27.123 25.9787 27.273 25.6757 27.54C25.3728 27.807 25.2026 28.1692 25.2026 28.5468C25.2026 28.9244 25.3728 29.2866 25.6757 29.5536C25.9787 29.8206 26.3895 29.9706 26.8178 29.9706C27.2462 29.9706 27.657 29.8206 27.9599 29.5536C28.2628 29.2866 28.433 28.9244 28.4331 28.5468C28.433 28.1692 28.2628 27.807 27.9599 27.54C27.657 27.273 27.2462 27.123 26.8178 27.123ZM21.228 27.5975C21.5101 27.5975 21.7808 27.6962 21.9804 27.872C22.18 28.0478 22.2922 28.2864 22.2924 28.5351C22.2926 28.6585 22.2652 28.7806 22.2118 28.8945C22.1584 29.0085 22.08 29.1121 21.9812 29.1994C21.8823 29.2866 21.7649 29.3559 21.6357 29.4031C21.5064 29.4503 21.3679 29.4746 21.228 29.4746C21.0881 29.4746 20.9496 29.4503 20.8203 29.4031C20.6911 29.3559 20.5737 29.2866 20.4748 29.1994C20.3759 29.1121 20.2976 29.0085 20.2442 28.8945C20.1907 28.7806 20.1633 28.6585 20.1635 28.5351C20.1637 28.2864 20.276 28.0478 20.4756 27.872C20.6752 27.6962 20.9458 27.5975 21.228 27.5975ZM26.8178 27.6089C27.1 27.6089 27.3706 27.7075 27.5702 27.8833C27.7698 28.0591 27.8821 28.2976 27.8823 28.5463C27.8825 28.6697 27.8551 28.7919 27.8017 28.9058C27.7483 29.0198 27.6699 29.1234 27.571 29.2107C27.4721 29.298 27.3547 29.3672 27.2255 29.4144C27.0963 29.4616 26.9577 29.4859 26.8178 29.4859C26.6779 29.4859 26.5394 29.4616 26.4102 29.4144C26.2809 29.3672 26.1635 29.298 26.0647 29.2107C25.9658 29.1234 25.8874 29.0198 25.834 28.9058C25.7806 28.7919 25.7532 28.6697 25.7534 28.5463C25.7536 28.2976 25.8658 28.0591 26.0655 27.8833C26.2651 27.7075 26.5357 27.6089 26.8178 27.6089ZM17.1499 33.062C17.1513 33.0637 17.1524 33.0658 17.1538 33.0696C16.1266 33.0695 15.2944 33.8682 15.2944 34.8547C15.2944 35.5093 15.6663 36.1124 16.2651 36.425C16.0712 36.9432 15.9713 37.4771 15.9682 38.0149C15.9682 41.354 19.6173 44.062 24.1186 44.0618C28.6199 44.062 32.269 41.354 32.269 38.0149C32.2671 37.4368 32.155 36.862 31.9331 36.3078C32.5791 36.0115 32.989 35.3861 32.9897 34.6984C32.9896 33.7119 31.9426 33.0774 30.9155 33.0774C30.9182 33.0736 30.9206 33.0699 30.9233 33.0623L17.1499 33.062ZM17.2221 33.5269H31.1128C31.8852 33.5269 32.5073 34.1489 32.5073 34.9214C32.5073 35.5511 31.9945 35.9815 31.4233 36.1558C31.5519 36.6057 31.7528 37.29 31.7553 37.7124C31.7544 40.9368 28.3408 43.5504 24.1303 43.5504C19.9198 43.5504 16.5063 40.9368 16.5053 37.7124C16.5081 37.2429 16.6161 36.6972 16.7651 36.2417H16.7924C16.2332 36.0603 15.8276 35.5426 15.8276 34.9214C15.8276 34.1489 16.4496 33.5269 17.2221 33.5269ZM30.3432 34.3589C30.1935 34.3617 30.0401 34.3796 29.8881 34.4118C29.4866 34.4977 29.1185 34.6793 28.8647 34.9167C28.6109 35.154 28.4921 35.4277 28.5346 35.6775C28.5554 35.8014 28.6153 35.9156 28.7109 36.0138C28.8064 36.112 28.9357 36.1922 29.0913 36.2497C29.247 36.3072 29.4259 36.3409 29.618 36.349C29.81 36.357 30.0113 36.3392 30.2104 36.2965C30.4095 36.2539 30.6025 36.1873 30.7783 36.1005C30.9541 36.0138 31.1093 35.9086 31.2351 35.7908C31.3608 35.6731 31.4545 35.5452 31.511 35.4145C31.5674 35.2838 31.5854 35.1528 31.5639 35.029C31.5291 34.8281 31.3918 34.6547 31.1722 34.5342C30.9526 34.4137 30.6621 34.3522 30.3432 34.359V34.3589ZM17.6674 34.4681C17.3485 34.4617 17.0582 34.5234 16.8389 34.6443C16.6196 34.7652 16.4829 34.9389 16.4487 35.14C16.4061 35.3896 16.5244 35.6631 16.7779 35.9004C17.0313 36.1377 17.399 36.3194 17.8003 36.4056C17.9991 36.4483 18.2002 36.4662 18.3921 36.4582C18.5839 36.4503 18.7627 36.4167 18.9184 36.3594C19.074 36.3021 19.2033 36.2221 19.299 36.1242C19.3947 36.0262 19.4548 35.9121 19.476 35.7884C19.5185 35.5387 19.3998 35.265 19.146 35.0276C18.8922 34.7903 18.524 34.6087 18.1225 34.5228C17.9708 34.4899 17.8173 34.4715 17.6674 34.468V34.4681ZM30.2651 34.7025C30.499 34.6981 30.712 34.7384 30.8729 34.8175C31.0339 34.8966 31.1344 35.0103 31.1596 35.1419C31.1904 35.3054 31.1033 35.4844 30.9172 35.6396C30.7312 35.7949 30.4615 35.9137 30.1674 35.97C30.0216 35.9979 29.8742 36.0096 29.7335 36.0043C29.5929 35.9991 29.4618 35.9772 29.3477 35.9396C29.2336 35.9021 29.1388 35.8497 29.0687 35.7855C28.9985 35.7214 28.9544 35.6467 28.9389 35.5657C28.9081 35.4022 28.9953 35.2233 29.1813 35.068C29.3673 34.9127 29.637 34.7939 29.9311 34.7377C30.0427 34.7167 30.1552 34.7052 30.2651 34.7036V34.7025ZM17.6928 34.8608C17.7161 34.8603 17.7395 34.8603 17.7631 34.8608C17.8649 34.8632 17.9689 34.8747 18.0717 34.8949C18.3436 34.9469 18.5927 35.0568 18.7645 35.2004C18.9363 35.344 19.0166 35.5094 18.9878 35.6604C18.9737 35.7354 18.9332 35.8046 18.8686 35.8641C18.8039 35.9235 18.7164 35.9721 18.611 36.0069C18.5056 36.0417 18.3844 36.0621 18.2543 36.067C18.1242 36.0719 17.9879 36.0612 17.853 36.0354C17.7181 36.0095 17.5873 35.9691 17.4682 35.9166C17.3491 35.864 17.244 35.8002 17.1589 35.7289C17.0738 35.6576 17.0104 35.5802 16.9723 35.5011C16.9342 35.422 16.9222 35.3426 16.937 35.2678C16.9588 35.1529 17.0427 35.0526 17.1776 34.9801C17.3125 34.9076 17.4921 34.8663 17.6928 34.8615V34.8608Z" fill="#333333"/>
</svg>
