<svg width="48" height="48" viewBox="0 0 48 48" fill="none" xmlns="http://www.w3.org/2000/svg">
<path d="M37.8847 3.93933C37.8848 3.94066 37.8846 3.94191 37.8847 3.94324C37.8852 3.94188 37.886 3.9407 37.8866 3.93933H37.8847ZM9.85149 4.00769C9.85209 4.00882 9.85293 4.01024 9.85344 4.0116C9.85354 4.0105 9.85335 4.00901 9.85344 4.00769H9.85149ZM38.7695 6.06433C27.942 14.5671 28.4725 18.0095 28.0995 18.9647C27.3429 18.4968 26.509 18.1483 25.621 17.951V14.7714L24.7675 15.5565L23.8652 14.7714L23.0214 15.5956L22.1679 14.7714V17.9628C21.2584 18.171 20.4074 18.5409 19.6386 19.0331C19.2656 18.0778 19.7981 14.6374 8.97063 6.13464C8.75677 9.18151 8.6014 11.1418 9.19133 13.6385C10.5011 18.3637 14.2173 19.8612 17.0077 21.6249C16.9684 21.6865 16.9401 21.7555 16.9023 21.8182H16.9609C16.205 23.0977 15.7597 24.596 15.7597 26.205C15.7326 28.7029 15.8649 31.0464 16.6757 32.5311H31.0605C32.1425 30.33 32.0697 28.2685 32.0839 26.4257H32.0741C32.0791 26.3516 32.0822 26.279 32.0839 26.205C32.0839 24.4864 31.5836 22.8899 30.7304 21.5565C33.5208 19.7928 37.237 18.2934 38.5468 13.5682C39.1367 11.0714 38.9833 9.11119 38.7695 6.06433ZM37.6406 8.46277C38.0741 12.1038 34.6313 21.3605 30.0976 17.9452C30.4183 15.0291 35.2942 10.2661 37.6406 8.46277ZM10.0995 8.53113C12.4459 10.3345 17.3217 15.0994 17.6425 18.0155C13.1088 21.4308 9.66598 12.1722 10.0995 8.53113ZM21.0976 27.5995C21.2371 27.5995 21.3753 27.6237 21.5042 27.6708C21.6331 27.718 21.7502 27.787 21.8489 27.8741C21.9475 27.9611 22.0258 28.0645 22.0792 28.1782C22.1326 28.292 22.1601 28.4139 22.1601 28.537C22.1601 28.6601 22.1326 28.782 22.0792 28.8958C22.0258 29.0095 21.9475 29.1128 21.8489 29.1999C21.7502 29.287 21.6331 29.356 21.5042 29.4031C21.3753 29.4502 21.2371 29.4745 21.0976 29.4745C20.9581 29.4745 20.8199 29.4502 20.691 29.4031C20.5621 29.356 20.4449 29.287 20.3463 29.1999C20.2476 29.1128 20.1694 29.0095 20.116 28.8958C20.0626 28.782 20.0351 28.6601 20.0351 28.537C20.0351 28.4139 20.0626 28.292 20.116 28.1782C20.1694 28.0645 20.2476 27.9611 20.3463 27.8741C20.4449 27.787 20.5621 27.718 20.691 27.6708C20.8199 27.6237 20.9581 27.5995 21.0976 27.5995ZM26.6874 27.6093C26.827 27.6093 26.9651 27.6335 27.094 27.6806C27.2229 27.7277 27.3401 27.7968 27.4387 27.8838C27.5374 27.9709 27.6157 28.0742 27.6691 28.188C27.7224 28.3017 27.7499 28.4236 27.7499 28.5468C27.7499 28.6699 27.7224 28.7918 27.6691 28.9055C27.6157 29.0193 27.5374 29.1226 27.4387 29.2097C27.3401 29.2967 27.2229 29.3658 27.094 29.4129C26.9651 29.46 26.827 29.4842 26.6874 29.4842C26.5479 29.4842 26.4097 29.46 26.2808 29.4129C26.1519 29.3658 26.0348 29.2967 25.9361 29.2097C25.8375 29.1226 25.7592 29.0193 25.7058 28.9055C25.6524 28.7918 25.6249 28.6699 25.6249 28.5468C25.6249 28.4236 25.6524 28.3017 25.7058 28.188C25.7592 28.0742 25.8375 27.9709 25.9361 27.8838C26.0348 27.7968 26.1519 27.7277 26.2808 27.6806C26.4097 27.6335 26.5479 27.6093 26.6874 27.6093ZM17.0195 33.0624C17.0209 33.0642 17.0219 33.0665 17.0234 33.0682C15.9962 33.0682 15.164 33.8668 15.164 34.8534C15.164 35.508 15.5359 36.1111 16.1347 36.4237C15.9409 36.9419 15.8409 37.4758 15.8378 38.0135C15.8378 41.3527 19.4869 44.0606 23.9882 44.0604C28.4895 44.0606 32.1386 41.3527 32.1386 38.0135C32.1367 37.4354 32.0246 36.8607 31.8027 36.3065C32.4487 36.0102 32.8586 35.3848 32.8593 34.6971C32.8592 33.7106 31.8123 33.076 30.7851 33.076C30.7878 33.0713 30.7902 33.0671 30.7929 33.0624H17.0195ZM30.1698 34.6893V34.6913C30.1955 34.6908 30.2208 34.6908 30.246 34.6913C30.6864 34.7026 31.0089 34.8742 31.0585 35.1288C31.125 35.4693 30.6864 35.8423 30.08 35.9608C29.4734 36.0795 28.9278 35.899 28.8613 35.5585C28.7948 35.2179 29.2334 34.8469 29.8398 34.7284C29.9495 34.7057 30.0611 34.6931 30.1698 34.6893ZM17.5429 34.8104C17.6753 34.8082 17.8133 34.8211 17.9491 34.8475C18.5556 34.9662 18.9941 35.3372 18.9277 35.6776C18.8612 36.0181 18.3136 36.1986 17.707 36.08C17.1005 35.9613 16.664 35.5903 16.7304 35.2499C16.7799 34.9955 17.1029 34.8202 17.5429 34.8104Z" fill="#333333"/>
</svg>
