<svg width="48" height="48" viewBox="0 0 48 48" fill="none" xmlns="http://www.w3.org/2000/svg">
<path d="M37.8848 3.93945C37.8848 3.94078 37.8847 3.94203 37.8848 3.94336C37.8853 3.942 37.8861 3.94082 37.8867 3.93945H37.8848ZM9.85155 4.00781C9.85215 4.00895 9.85299 4.01036 9.8535 4.01172C9.8536 4.01062 9.85341 4.00914 9.8535 4.00781H9.85155ZM38.7695 6.06445C27.9421 14.5672 28.4726 18.0096 28.0996 18.9648C27.343 18.4969 26.5091 18.1484 25.6211 17.9512V14.7715L24.7676 15.5566L23.8652 14.7715L23.0215 15.5957L22.168 14.7715V17.9629C21.2585 18.1711 20.4074 18.541 19.6387 19.0332C19.2657 18.078 19.7982 14.6376 8.97069 6.13477C8.75683 9.18163 8.60146 11.1419 9.1914 13.6387C10.5012 18.3638 14.2174 19.8613 17.0078 21.625C16.9684 21.6866 16.9402 21.7556 16.9023 21.8184H16.9609C16.2051 23.0978 15.7598 24.5961 15.7598 26.2051C15.7326 28.703 15.8649 31.0465 16.6758 32.5312H31.0605C32.1426 30.3301 32.0698 28.2686 32.084 26.4258H32.0742C32.0792 26.3517 32.0823 26.2792 32.084 26.2051C32.084 24.4865 31.5836 22.8901 30.7305 21.5566C33.5209 19.7929 37.2371 18.2935 38.5469 13.5684C39.1368 11.0716 38.9834 9.11131 38.7695 6.06445ZM37.6406 8.46289C38.0742 12.1039 34.6313 21.3607 30.0976 17.9453C30.4184 15.0292 35.2942 10.2663 37.6406 8.46289ZM10.0996 8.53125C12.446 10.3346 17.3218 15.0995 17.6426 18.0156C13.1089 21.431 9.66604 12.1723 10.0996 8.53125ZM21.0976 27.5996C21.2372 27.5996 21.3753 27.6239 21.5042 27.671C21.6332 27.7181 21.7503 27.7871 21.8489 27.8742C21.9476 27.9612 22.0259 28.0646 22.0793 28.1783C22.1327 28.2921 22.1601 28.414 22.1601 28.5371C22.1601 28.6602 22.1327 28.7821 22.0793 28.8959C22.0259 29.0096 21.9476 29.113 21.8489 29.2C21.7503 29.2871 21.6332 29.3561 21.5042 29.4032C21.3753 29.4504 21.2372 29.4746 21.0976 29.4746C20.9581 29.4746 20.82 29.4504 20.691 29.4032C20.5621 29.3561 20.445 29.2871 20.3463 29.2C20.2477 29.113 20.1694 29.0096 20.116 28.8959C20.0626 28.7821 20.0351 28.6602 20.0351 28.5371C20.0351 28.414 20.0626 28.2921 20.116 28.1783C20.1694 28.0646 20.2477 27.9612 20.3463 27.8742C20.445 27.7871 20.5621 27.7181 20.691 27.671C20.82 27.6239 20.9581 27.5996 21.0976 27.5996ZM26.6875 27.6094C26.827 27.6094 26.9652 27.6336 27.0941 27.6807C27.223 27.7278 27.3401 27.7969 27.4388 27.884C27.5375 27.971 27.6157 28.0744 27.6691 28.1881C27.7225 28.3018 27.75 28.4238 27.75 28.5469C27.75 28.67 27.7225 28.7919 27.6691 28.9056C27.6157 29.0194 27.5375 29.1227 27.4388 29.2098C27.3401 29.2968 27.223 29.3659 27.0941 29.413C26.9652 29.4601 26.827 29.4844 26.6875 29.4844C26.548 29.4844 26.4098 29.4601 26.2809 29.413C26.152 29.3659 26.0348 29.2968 25.9362 29.2098C25.8375 29.1227 25.7593 29.0194 25.7059 28.9056C25.6525 28.7919 25.625 28.67 25.625 28.5469C25.625 28.4238 25.6525 28.3018 25.7059 28.1881C25.7593 28.0744 25.8375 27.971 25.9362 27.884C26.0348 27.7969 26.152 27.7278 26.2809 27.6807C26.4098 27.6336 26.548 27.6094 26.6875 27.6094ZM17.0195 33.0625C17.0209 33.0643 17.022 33.0666 17.0234 33.0684C15.9962 33.0683 15.1641 33.8669 15.1641 34.8535C15.1641 35.5081 15.5359 36.1112 16.1348 36.4238C15.9409 36.942 15.841 37.4759 15.8379 38.0137C15.8378 41.3528 19.487 44.0607 23.9883 44.0605C28.4896 44.0607 32.1387 41.3528 32.1387 38.0137C32.1368 37.4356 32.0247 36.8608 31.8027 36.3066C32.4488 36.0103 32.8586 35.3849 32.8594 34.6973C32.8593 33.7107 31.8123 33.0761 30.7851 33.0762C30.7879 33.0715 30.7902 33.0672 30.793 33.0625H17.0195ZM30.1699 34.6894V34.6914C30.1956 34.6909 30.2208 34.6909 30.2461 34.6914C30.6865 34.7027 31.009 34.8743 31.0586 35.1289C31.125 35.4694 30.6865 35.8424 30.0801 35.9609C29.4735 36.0796 28.9278 35.8992 28.8613 35.5586C28.7949 35.2181 29.2334 34.847 29.8398 34.7285C29.9496 34.7058 30.0611 34.6932 30.1699 34.6894ZM17.543 34.8105C17.6754 34.8083 17.8133 34.8212 17.9492 34.8477C18.5556 34.9663 18.9941 35.3373 18.9277 35.6777C18.8612 36.0183 18.3136 36.1988 17.707 36.0801C17.1006 35.9614 16.664 35.5905 16.7305 35.25C16.78 34.9956 17.1029 34.8203 17.543 34.8105Z" fill="#333333"/>
</svg>
