<svg width="48" height="48" viewBox="0 0 48 48" fill="none" xmlns="http://www.w3.org/2000/svg">
<path fill-rule="evenodd" clip-rule="evenodd" d="M48 0H0V48H48V0ZM18 35C18 37.7614 15.7614 40 13 40C10.2386 40 8 37.7614 8 35C8 32.2386 10.2386 30 13 30C13.8176 30 14.5893 30.1962 15.2707 30.5442L13.7947 33.4405C13.5563 33.3187 13.2862 33.25 13 33.25C12.0335 33.25 11.25 34.0335 11.25 35C11.25 35.9665 12.0335 36.75 13 36.75C13.9665 36.75 14.75 35.9665 14.75 35C14.75 34.7035 14.6763 34.4243 14.5462 34.1796L17.4176 32.656C17.7894 33.3551 18 34.153 18 35ZM16.179 28.7618L18.72 23.7755L16.4306 19.1032C15.4168 19.6742 14.2464 20 13 20C9.13401 20 6 16.866 6 13C6 9.13401 9.13401 6 13 6C16.866 6 20 9.13401 20 13C20 14.0746 19.7578 15.0927 19.3251 16.0026L24 18.3878L28.6749 16.0026C28.2422 15.0927 28 14.0746 28 13C28 9.13401 31.134 6 35 6C38.866 6 42 9.13401 42 13C42 16.866 38.866 20 35 20C33.7536 20 32.5832 19.6742 31.5694 19.1032L29.28 23.7755L31.821 28.7618C32.775 28.2747 33.8554 28 35 28C38.866 28 42 31.134 42 35C42 38.866 38.866 42 35 42C31.134 42 28 38.866 28 35C28 33.8141 28.2949 32.6971 28.8153 31.7183L24 29.1633L19.1847 31.7183C19.7051 32.6971 20 33.8141 20 35C20 38.866 16.866 42 13 42C9.13401 42 6 38.866 6 35C6 31.134 9.13401 28 13 28C14.1446 28 15.225 28.2747 16.179 28.7618ZM30.5824 32.656C30.2106 33.3551 30 34.1529 30 35C30 37.7614 32.2386 40 35 40C37.7614 40 40 37.7614 40 35C40 32.2386 37.7614 30 35 30C34.1824 30 33.4107 30.1962 32.7293 30.5442L34.2053 33.4405C34.4437 33.3187 34.7139 33.25 35 33.25C35.9665 33.25 36.75 34.0335 36.75 35C36.75 35.9665 35.9665 36.75 35 36.75C34.0335 36.75 33.25 35.9665 33.25 35C33.25 34.7035 33.3237 34.4243 33.4538 34.1796L30.5824 32.656ZM32.4517 17.3028C33.1979 17.7457 34.0693 18 35 18C37.7614 18 40 15.7614 40 13C40 10.2386 37.7614 8 35 8C32.2386 8 30 10.2386 30 13C30 13.7473 30.1639 14.4563 30.4578 15.093L33.3601 13.6122C33.2889 13.4217 33.25 13.2154 33.25 13C33.25 12.0335 34.0335 11.25 35 11.25C35.9665 11.25 36.75 12.0335 36.75 13C36.75 13.9665 35.9665 14.75 35 14.75C34.581 14.75 34.1963 14.6027 33.895 14.3571L32.4517 17.3028ZM17.5422 15.093C17.8361 14.4563 18 13.7473 18 13C18 10.2386 15.7614 8 13 8C10.2386 8 8 10.2386 8 13C8 15.7614 10.2386 18 13 18C13.9307 18 14.8021 17.7457 15.5484 17.3028L14.105 14.3571C13.8037 14.6027 13.419 14.75 13 14.75C12.0335 14.75 11.25 13.9665 11.25 13C11.25 12.0335 12.0335 11.25 13 11.25C13.9665 11.25 14.75 12.0335 14.75 13C14.75 13.2154 14.7111 13.4217 14.6399 13.6122L17.5422 15.093Z" fill="#333333"/>
</svg>
