<svg width="48" height="48" viewBox="0 0 48 48" fill="none" xmlns="http://www.w3.org/2000/svg">
<path d="M10.4 5.03005C6.85003 4.93005 4.01003 8.84005 5.23003 12.2C6.22003 15.8 11.15 17.25 13.93 14.77L19.63 21.62V26.52L13.93 33.36C11.27 31 6.57003 32.2 5.37003 35.57C3.85003 38.97 6.70003 43.23 10.42 43.11C14.03 43.28 16.97 39.29 15.69 35.89C14.98 34.74 14.43 33.93 15.83 33.27L19.63 30.22C19.43 31.4 20.17 32.83 21.56 32.65C23.43 32.63 25.3 32.7 27.16 32.62C28.69 32.82 28.26 30.22 28.79 30.42L33.44 34.15C31.09 36.81 32.28 41.47 35.61 42.7C38.85 44.17 42.99 41.67 43.17 38.11C43.63 34.58 40.01 31.37 36.55 32.24C35.14 32.67 34.06 33.97 33.26 32.2L28.54 26.51V21.62L34.22 14.77C36.9 17.14 41.6 15.93 42.8 12.57C44.32 9.17005 41.47 4.91005 37.75 5.03005C34.14 4.85005 31.21 8.84005 32.48 12.25C33.2 13.4 33.74 14.2 32.35 14.86L28.54 17.92C28.74 16.72 28 15.3 26.61 15.48C24.74 15.5 22.87 15.44 21.01 15.52C19.49 15.32 19.91 17.92 19.38 17.72C17.83 16.47 16.28 15.22 14.73 13.99C17.08 11.32 15.89 6.66005 12.56 5.44005C11.8807 5.16357 11.1534 5.02423 10.42 5.03005H10.4ZM10.55 5.76005C13.77 5.69005 16.21 9.40005 14.87 12.33C14.57 13.95 13.73 13.33 12.97 12.58L11.23 11.18C11.75 10.71 11.27 9.95005 11.12 9.62005C11.75 8.72005 12.37 7.57005 12.22 6.44005C11.52 6.39005 11.26 7.59005 10.96 8.11005C10.7 9.01005 10.76 9.62005 9.78003 9.78005C9.31003 10.18 9.36003 11 9.88003 11.34C9.18003 12.24 8.56003 13.44 8.70003 14.6C9.40003 14.65 9.67003 13.45 9.96003 12.93C10.26 12.13 10.1 11.38 11.08 11.32L13.48 14.21C11.01 16.39 6.66003 15.04 5.88003 11.84C5.67961 11.1236 5.64885 10.3703 5.79017 9.63983C5.93149 8.9094 6.24101 8.22193 6.6942 7.63191C7.14739 7.04189 7.73178 6.56555 8.40106 6.24064C9.07034 5.91573 9.8061 5.75118 10.55 5.76005ZM37.6 5.76005C40.93 5.56005 43.52 9.42005 42.06 12.42C40.96 15.25 36.96 16.22 34.68 14.21L37.08 11.31C38.1 11.36 37.88 12.21 38.22 13.01C38.51 13.49 38.79 14.71 39.46 14.58C39.57 13.43 38.96 12.24 38.27 11.34C39.15 10.79 38.53 9.30005 37.53 9.53005C37.38 8.40005 36.99 7.11005 36.07 6.38005C35.54 6.84005 36.19 7.88005 36.35 8.46005C36.79 9.27005 37.27 9.68005 36.68 10.46C37.03 11.16 36.72 11.46 36.08 11.86L34 13.52C33.435 12.8281 33.0761 11.9912 32.9643 11.1049C32.8525 10.2186 32.9924 9.31874 33.3679 8.50819C33.7434 7.69765 34.3395 7.00914 35.0879 6.52139C35.8363 6.03365 36.7069 5.76634 37.6 5.75005V5.76005ZM10.47 9.93005C11.27 9.91005 11.18 11.23 10.39 11.11C9.66003 11.01 9.73003 9.92005 10.47 9.93005ZM37.67 9.93005C38.53 9.88005 38.39 11.3 37.57 11.1C36.89 10.96 36.99 9.94005 37.67 9.93005ZM10.4 32.85C11.69 32.78 14.5 33.63 12.66 34.92L11.09 36.82C10.06 36.77 10.29 35.92 9.94003 35.12C9.66003 34.64 9.37003 33.42 8.70003 33.55C8.59003 34.71 9.20003 35.89 9.89003 36.79C9.02003 37.34 9.63003 38.83 10.63 38.61C10.78 39.74 11.18 41.03 12.09 41.75C12.62 41.3 11.97 40.26 11.81 39.68C11.37 38.86 10.9 38.46 11.48 37.67C11.13 36.97 11.44 36.67 12.08 36.28L14.16 34.61C16.33 37.05 15 41.37 11.83 42.18C8.73003 43.24 5.24003 40.34 5.73003 37.09C5.86099 35.9368 6.40708 34.8706 7.26639 34.0904C8.1257 33.3102 9.23953 32.8693 10.4 32.85ZM37.77 32.85C41 32.77 43.46 36.49 42.1 39.43C40.98 42.51 36.53 43.39 34.32 40.97C32.53 39.67 32.42 35.18 34.34 34.87L36.94 36.96C36.41 37.42 36.89 38.18 37.04 38.51C36.41 39.41 35.79 40.56 35.94 41.69C36.64 41.74 36.91 40.55 37.2 40.02C37.46 39.13 37.41 38.52 38.38 38.36C38.85 37.96 38.8 37.13 38.28 36.79C38.98 35.89 39.6 34.69 39.46 33.53C38.76 33.48 38.5 34.68 38.2 35.21C37.9 36.01 38.06 36.75 37.09 36.81L34.69 33.93C35.55 33.22 36.66 32.83 37.77 32.85ZM10.47 37.03C11.3 36.98 11.18 38.38 10.37 38.2C9.67003 38.08 9.76003 37.03 10.47 37.03ZM37.71 37.03C38.51 37.01 38.42 38.33 37.63 38.2C36.9 38.1 36.97 37.02 37.71 37.03Z" fill="#333333"/>
</svg>
