<svg width="48" height="48" viewBox="0 0 48 48" fill="none" xmlns="http://www.w3.org/2000/svg">
<path d="M10.408 5.0269C6.84572 4.92826 4.01451 8.84491 5.22925 12.1962C6.21994 15.7944 11.1495 17.2487 13.9373 14.7709C15.8325 17.0554 17.7278 19.3399 19.6228 21.6243V26.5112C17.7277 28.7957 15.8323 31.0802 13.9373 33.3646C11.2597 30.9978 6.56154 32.205 5.36116 35.5729C3.83744 38.9679 6.69457 43.226 10.408 43.1066C14.0248 43.2793 16.956 39.2885 15.68 35.8877C14.9654 34.7382 14.4194 33.9302 15.8164 33.2715C17.0853 32.253 18.3541 31.2345 19.6228 30.216C19.4256 31.4044 20.161 32.8315 21.5495 32.6515C23.419 32.6289 25.2869 32.6973 27.1542 32.6213C28.6752 32.8186 28.2582 30.2147 28.7814 30.4212C30.3307 31.6648 31.88 32.9085 33.4294 34.1521C31.0822 36.8138 32.2721 41.4731 35.5993 42.6969C38.8392 44.169 42.9755 41.6704 43.1618 38.1098C43.6162 34.5752 40.0002 31.3652 36.5442 32.2443C35.1272 32.6736 34.0504 33.9703 33.25 32.2023C31.6763 30.3053 30.1027 28.4085 28.529 26.5115V21.6246C30.4242 19.3401 32.3195 17.0555 34.2145 14.7711C36.8921 17.1379 41.5903 15.9309 42.7907 12.5629C44.3127 9.16732 41.4612 4.91389 37.7438 5.0269C34.127 4.85418 31.1958 8.84499 32.4718 12.2458C33.1865 13.3953 33.7324 14.2033 32.3354 14.862C31.0666 15.8805 29.7977 16.899 28.529 17.9175C28.7262 16.7291 27.9909 15.302 26.6023 15.482C24.7328 15.5009 22.8649 15.443 20.9976 15.516C19.4766 15.3187 19.8936 17.9225 19.3704 17.716C17.8211 16.4723 16.2718 15.2287 14.7224 13.9851C17.0696 11.3234 15.8797 6.6641 12.5524 5.44029C11.8749 5.16022 11.1374 5.02209 10.4079 5.02632L10.408 5.0269ZM10.5544 5.75932C13.7746 5.69432 16.2135 9.4006 14.8669 12.3315C14.5778 13.9503 13.7267 13.3305 12.9758 12.5813L11.2263 11.1773C11.7498 10.7123 11.2741 9.95261 11.1186 9.62224C11.7473 8.71542 12.3701 7.57106 12.2227 6.44238C11.5219 6.39287 11.2563 7.58626 10.9583 8.11426C10.701 9.00071 10.7516 9.62293 9.78456 9.77623C9.31321 10.1771 9.36197 10.9997 9.87862 11.3413C9.18851 12.2457 8.56236 13.4393 8.69956 14.5989C9.4007 14.6496 9.66678 13.454 9.96494 12.9258C10.2614 12.1237 10.103 11.3824 11.0759 11.3179L13.4724 14.2085C11.0146 16.3937 6.66319 15.0361 5.88574 11.8397C4.93768 8.87375 7.44139 5.61029 10.5542 5.75921L10.5544 5.75932ZM37.5973 5.75932C40.928 5.55258 43.5157 9.41555 42.0583 12.4173C40.951 15.2521 36.9628 16.2176 34.6796 14.2086L37.076 11.318C38.0978 11.3615 37.8738 12.2128 38.2201 13.011C38.5069 13.4918 38.7938 14.7157 39.4605 14.5849C39.5721 13.4257 38.9675 12.243 38.2733 11.3414C39.1463 10.7935 38.5329 9.30239 37.5272 9.52697C37.3812 8.39905 36.9866 7.11032 36.0731 6.38344C35.5401 6.84072 36.1905 7.87533 36.3503 8.46029C36.7905 9.27213 37.2661 9.67941 36.6842 10.4683C37.0291 11.1632 36.7172 11.4588 36.0841 11.8527L33.998 13.5269C31.829 11.0818 33.1629 6.76272 36.3275 5.95806C36.7393 5.83485 37.168 5.76798 37.5975 5.75967L37.5973 5.75932ZM10.4724 9.92928C11.2709 9.91039 11.1845 11.2336 10.3922 11.1059C9.66071 11.0137 9.72999 9.92441 10.4724 9.92928ZM37.6794 9.92928C38.5336 9.88469 38.3916 11.3041 37.5664 11.0969C36.8902 10.9582 36.9878 9.93956 37.6794 9.92928ZM10.3885 32.8533C11.6795 32.783 14.4878 33.6329 12.6461 34.9242C12.1227 35.5555 11.5994 36.1868 11.076 36.818C10.0543 36.7746 10.2783 35.9233 9.93196 35.1252C9.64517 34.6443 9.35823 33.4203 8.69152 33.5511C8.58001 34.7104 9.1846 35.893 9.87874 36.7946C9.00571 37.3426 9.61912 38.8337 10.6248 38.6091C10.7709 39.737 11.1654 41.0257 12.079 41.7526C12.6119 41.2953 11.9616 40.2607 11.8018 39.6758C11.3616 38.8639 10.8859 38.4567 11.4679 37.6678C11.123 36.9728 11.4349 36.6772 12.0679 36.2833L14.1541 34.6091C16.323 37.0543 14.9891 41.3733 11.8246 42.1783C8.72527 43.2445 5.23382 40.3386 5.72856 37.0945C5.94175 34.7646 8.04911 32.8471 10.3887 32.8535L10.3885 32.8533ZM37.7636 32.8533C40.9931 32.7698 43.4454 36.4893 42.0938 39.4255C40.9711 42.508 36.5172 43.3928 34.3069 40.9664C32.5249 39.6704 32.4122 35.1826 34.3349 34.8791C35.1986 35.5723 36.0623 36.2655 36.926 36.9586C36.4016 37.4225 36.8791 38.182 37.0337 38.5117C36.4049 39.4185 35.7822 40.5629 35.9296 41.6916C36.6304 41.7411 36.8959 40.5476 37.194 40.0196C37.4512 39.1331 37.4006 38.511 38.3677 38.3577C38.839 37.9569 38.7903 37.1342 38.2736 36.7926C38.9637 35.8881 39.5899 34.6945 39.4527 33.535C38.7515 33.4843 38.4854 34.6798 38.1873 35.2081C37.8908 36.0102 38.0492 36.7516 37.0763 36.8161L34.6799 33.9254C35.5396 33.2196 36.6517 32.8331 37.7638 32.8531L37.7636 32.8533ZM10.4513 37.0251C11.2944 36.9797 11.1728 38.3772 10.3554 38.1971C9.66636 38.0788 9.74962 37.0342 10.4513 37.0251ZM37.7013 37.0251C38.5006 37.0062 38.4122 38.3302 37.621 38.2025C36.8899 38.1084 36.9585 37.0209 37.7013 37.0251Z" fill="#333333"/>
</svg>
