<svg width="48" height="48" viewBox="0 0 48 48" fill="none" xmlns="http://www.w3.org/2000/svg">
<path fill-rule="evenodd" clip-rule="evenodd" d="M0 0H48V48H0V0ZM24.9042 7.70221C26.1171 8.91741 26.7983 10.5642 26.7983 12.2811C26.7983 12.3023 26.7982 12.3235 26.798 12.3447C27.2414 11.8845 27.7915 11.5313 28.4075 11.3213C31.1011 10.4031 36.6784 12.7785 36.6784 12.7785C36.6784 12.7785 33.7105 18.0668 31.0169 18.9851C29.3527 19.5523 27.5777 18.9695 26.5428 17.6678C27.8147 15.949 29.644 14.7253 31.7178 14.206C29.59 14.2488 27.5059 15.0543 25.8755 16.4438C24.5143 17.805 21.818 22.2818 26.5187 27.2544C26.6202 27.3617 26.548 27.5442 26.4003 27.5442C26.3602 27.5442 26.3209 27.5292 26.2908 27.5026C23.7042 25.218 23.1004 22.9106 23.1004 21.5315C23.1004 21.2759 23.1161 21.0047 23.133 20.712C23.1738 20.0077 23.2217 19.1792 23.0756 18.1459C22.2063 18.5534 21.2658 18.7564 20.3253 18.7564C18.6695 18.7564 17.0137 18.1273 15.7464 16.86C12.5273 13.6409 12 3.95583 12 3.95583C12 3.95583 21.6851 4.48309 24.9042 7.70221ZM17.0507 15.5557C17.9295 16.4253 19.0858 16.9063 20.3253 16.9063C21.1486 16.9063 21.9256 16.675 22.6194 16.2773C21.7683 13.6132 20.1958 11.2728 18.1052 9.50602C20.5381 10.7641 22.5824 12.7066 23.9977 15.0562C25.3667 13.2432 25.2465 10.6623 23.5907 9.00651C21.9811 7.39695 17.5132 6.40716 14.0351 5.9909C14.4513 9.46902 15.4411 13.9369 17.0507 15.5557ZM39.9276 27.8168C41.1049 26.7866 42.9198 27.0276 43.7875 28.3292C44.4722 29.3563 44.3368 30.7239 43.464 31.5967L36.9178 38.1429C36.2593 38.8013 35.4717 39.3164 34.6045 39.6558L26.0187 43.0155C24.7401 43.5158 23.3394 43.6143 22.0033 43.2979L8.89901 40.1942C6.17421 39.5489 4.25 37.1157 4.25 34.3155C4.25 32.972 4.6978 31.6669 5.52259 30.6065L6.10638 29.8559C7.3852 28.2117 9.35152 27.25 11.4345 27.25H15.5978C16.2707 27.25 16.9398 27.3506 17.5829 27.5485L27.7502 30.6769C28.9281 31.0393 29.7181 32.082 29.8071 33.25H31.7456C33.0173 33.25 34.2457 32.7884 35.2027 31.951L39.9276 27.8168ZM29.5223 34.75C28.9573 35.9219 27.665 36.6105 26.3375 36.3691L17.3658 34.7379C16.9583 34.6638 16.688 34.2734 16.7621 33.8658C16.8362 33.4583 17.2266 33.188 17.6342 33.2621L26.6059 34.8933C27.3579 35.0301 28.087 34.5597 28.2724 33.8181C28.4561 33.0834 28.0329 32.3333 27.309 32.1106L17.1417 28.9822C16.6415 28.8283 16.1211 28.75 15.5978 28.75H11.4345C9.8144 28.75 8.28505 29.498 7.2904 30.7768L6.70662 31.5274C6.08661 32.3245 5.75 33.3056 5.75 34.3155C5.75 36.4204 7.19645 38.2495 9.24471 38.7346L22.349 41.8382C23.3882 42.0843 24.4776 42.0077 25.4721 41.6186L34.0579 38.2589C34.7324 37.995 35.345 37.5943 35.8571 37.0822L42.4033 30.536C42.7705 30.1688 42.8275 29.5934 42.5394 29.1612C42.1743 28.6136 41.4107 28.5122 40.9154 28.9456L36.1905 33.0799C34.96 34.1566 33.3806 34.75 31.7456 34.75H29.5223Z" fill="#333333"/>
</svg>
