<svg width="48" height="48" viewBox="0 0 48 48" fill="none" xmlns="http://www.w3.org/2000/svg">
<path fill-rule="evenodd" clip-rule="evenodd" d="M0 0H48V48H0V0ZM22 11C22 13.2091 20.2091 15 18 15C15.7909 15 14 13.2091 14 11C14 8.79086 15.7909 7 18 7C20.2091 7 22 8.79086 22 11ZM13 20.3993C12.8393 20.5632 12.6775 20.7418 12.5161 20.9354C11.4594 22.2022 10.8034 23.653 10.7175 24.5548C10.6389 25.3795 9.90672 25.9844 9.08202 25.9059C8.25733 25.8273 7.65245 25.0951 7.73098 24.2704C7.89441 22.5543 8.93198 20.5488 10.2123 19.0138C11.4565 17.522 13.3311 16 15.434 16H17.2242H17.2243H17.2244H17.2245H17.2253H17.2283H17.2407H17.2896H17.4824H18.0608H18.2314H18.7592H18.939H18.9847H18.9961H18.999H18.9994H18.9996H18.9997H18.9999H18.9999H19H21.0483C22.3281 16 23.5427 16.5153 24.5999 17.2482C25.6608 16.5151 26.8789 16 28.1617 16H29.2242H29.2242H29.2242H29.2243H29.2244H29.2245H29.2247H29.2251H29.228H29.2395H29.2851H29.4649H30.1634H30.9891H31.7409H31.9345H31.9835H31.9959H31.999H31.9998H31.9999H32H32H32.7901C34.8931 16 36.7676 17.522 38.0119 19.0138C39.2922 20.5488 40.3297 22.5543 40.4932 24.2704C40.5717 25.0951 39.9668 25.8273 39.1421 25.9059C38.3174 25.9844 37.5852 25.3795 37.5067 24.5548C37.4208 23.653 36.7647 22.2022 35.7081 20.9354C35.3002 20.4464 34.8906 20.0529 34.5 19.7516V22.6573L34.5 22.6778C34.5 28.2816 35.6999 32.2554 36.4371 34.1681C36.685 34.8112 36.2862 35.5685 35.6025 35.6554C31.9405 36.121 28.7499 36.1216 25.0571 35.6155C24.4843 35.537 24.1069 34.9855 24.2315 34.421C24.7785 31.942 26.1072 25.761 26.1284 24.1109C25.9214 23.3338 25.3888 22.3025 24.5962 21.3281C23.7115 22.411 23.1496 23.5639 23 24.3597L23 29L23 31L23 38C23 39.0616 22.1706 39.9382 21.1106 39.9969C20.0506 40.0556 19.1295 39.276 19.0123 38.2209L18.2099 31H17.7901L16.9878 38.2209C16.8706 39.276 15.9494 40.0556 14.8894 39.9969C13.8294 39.9382 13 39.0616 13 38V31V29V20.3993ZM6 28.5C6 27.1193 7.11929 26 8.5 26C9.88071 26 11 27.1193 11 28.5V39C11 39.5523 10.5523 40 10 40C9.44772 40 9 39.5523 9 39V28.5C9 28.2239 8.77614 28 8.5 28C8.22386 28 8 28.2239 8 28.5V29.5128C8 30.0651 7.55228 30.5128 7 30.5128C6.44772 30.5128 6 30.0651 6 29.5128V28.5ZM30.5 15C32.7091 15 34.5 13.2091 34.5 11C34.5 8.79086 32.7091 7 30.5 7C28.2908 7 26.5 8.79086 26.5 11C26.5 13.2091 28.2908 15 30.5 15ZM39.5 26C38.1193 26 37 27.1193 37 28.5V29.5128C37 30.0651 37.4477 30.5128 38 30.5128C38.5523 30.5128 39 30.0651 39 29.5128V28.5C39 28.2239 39.2238 28 39.5 28C39.7761 28 40 28.2239 40 28.5V39C40 39.5523 40.4477 40 41 40C41.5523 40 42 39.5523 42 39V28.5C42 27.1193 40.8807 26 39.5 26ZM25.5 39.3877V37.1515C26.75 37.3096 27.9265 37.4031 29.0877 37.4336L28.4471 39.7824C28.2494 40.5074 27.5457 40.9742 26.8009 40.8744C26.0561 40.7747 25.5 40.1392 25.5 39.3877ZM32.5529 39.7824L31.899 37.3848C33.0507 37.3157 34.2327 37.187 35.5 37V39.3877C35.5 40.1392 34.9439 40.7747 34.1991 40.8744C33.4543 40.9742 32.7506 40.5074 32.5529 39.7824Z" fill="#333333"/>
</svg>
