<svg width="48" height="48" viewBox="0 0 48 48" fill="none" xmlns="http://www.w3.org/2000/svg">
<path d="M37.6124 5.75444C37.7052 5.52334 37.7563 5.27097 37.7563 5.00667C37.7563 3.89842 36.8579 3 35.7496 3C34.6414 3 33.743 3.89842 33.743 5.00667C33.743 5.25158 33.7868 5.48625 33.8672 5.70324C32.4376 6.38434 31.4496 7.8426 31.4496 9.53159C31.4496 11.8723 33.3472 13.7699 35.6879 13.7699C38.0286 13.7699 39.9262 11.8723 39.9262 9.53159C39.9262 7.88378 38.9858 6.45559 37.6124 5.75444Z" fill="#333333"/>
<path d="M39.4643 12.7479C38.5704 13.7995 37.2379 14.4667 35.7496 14.4667C34.2613 14.4667 32.9288 13.7995 32.0349 12.7479L30.8787 12.7479C30.1872 12.7479 29.6009 12.8757 29.1198 13.1313C27.6492 13.9277 27.0312 15.6169 27 17.3031V29.4353C27.0535 30.8396 29.261 31.364 29.5708 29.4353V17.9797C29.5978 17.5856 30.7667 17.3405 30.9689 17.9797L29.1563 37.6867L31.0027 37.7001L31.014 44.2736C31.014 46.5 34.8927 46.5 34.8927 44.2285C34.8927 41.7816 34.9057 41.3234 34.9138 41.0354C34.9235 40.6935 34.9263 40.5917 34.8927 37.6867L36.5615 37.7001V44.2285C36.5615 46.5 40.4402 46.5 40.4402 44.2736V37.7001L42.343 37.6867L41.9064 33.1647C41.7222 33.304 41.4928 33.3867 41.2441 33.3867C40.6372 33.3867 40.1452 32.8947 40.1452 32.2878V30.9978C40.1452 29.8885 40.7016 29.187 41.4742 28.6889L40.4402 17.9797C40.4703 17.5972 41.7318 17.3264 41.9285 17.9797V29.1362C41.1488 29.5801 40.623 30.4186 40.623 31.38V32.24C40.623 32.5566 40.8797 32.8133 41.1963 32.8133C41.5129 32.8133 41.7696 32.5566 41.7696 32.24V31.38C41.7696 30.9365 41.9711 30.54 42.2875 30.2771C42.772 30.778 43.6311 30.8771 44.1352 30.2912C44.442 30.5541 44.6363 30.9444 44.6363 31.38V45.4267C44.6363 45.7433 44.893 46 45.2096 46C45.5263 46 45.783 45.7433 45.783 45.4267V31.38C45.783 30.4276 45.2669 29.5958 44.4993 29.1488V17.3031C44.4869 15.5418 43.5119 13.9623 41.8608 13.1313C41.3045 12.8757 40.6957 12.7479 40.0342 12.7479L39.4643 12.7479Z" fill="#333333"/>
<path d="M10.631 13.981C12.9564 13.981 14.8415 12.0959 14.8415 9.77049C14.8415 7.44512 12.9564 5.56 10.6309 5.56C8.30556 5.56 6.42044 7.44512 6.42047 9.77049C6.42047 12.0959 8.3056 13.981 10.631 13.981Z" fill="#333333"/>
<path d="M14.3827 12.9657C13.4946 14.0104 12.1709 14.6732 10.6923 14.6732C9.21375 14.6732 7.88999 14.0104 7.00194 12.9657L5.8533 12.9657C5.16628 12.9657 4.58382 13.0926 4.10587 13.3466C2.64494 14.1378 2.03101 15.816 2 17.4911V29.5438C2.05311 30.9389 4.2462 31.4599 4.55391 29.5438V18.1632C4.58083 17.7718 5.74205 17.5282 5.94294 18.1632L5.98772 44.2849C5.98772 46.5 9.84102 46.5 9.84102 44.2401C9.84102 43.3047 9.84154 42.3692 9.84205 41.4338C9.84447 37.0522 9.84689 32.6707 9.7962 28.2893C9.82799 27.6816 11.2785 27.2128 11.4988 28.2445V44.2401C11.4988 46.5 15.3521 46.5 15.3521 44.2849V33.1219C15.1703 32.9269 15.0591 32.6652 15.0591 32.3776V31.096C15.0591 30.6105 15.1664 30.2036 15.3521 29.8579V18.1632C15.3821 17.7833 16.6353 17.5142 16.8307 18.1632V29.2467C16.0561 29.6877 15.5338 30.5207 15.5338 31.4758V32.3301C15.5338 32.6447 15.7888 32.8997 16.1033 32.8997C16.4179 32.8997 16.6729 32.6447 16.6729 32.3301V31.4758C16.6729 31.0351 16.873 30.6413 17.1874 30.3801C17.6687 30.8777 18.5222 30.9762 19.023 30.3941C19.3277 30.6553 19.5208 31.043 19.5208 31.4758V45.4304C19.5208 45.745 19.7758 46 20.0904 46C20.4049 46 20.66 45.745 20.66 45.4304V31.4758C20.66 30.5296 20.1473 29.7032 19.3846 29.2592V17.4911C19.3723 15.7414 18.4038 14.1722 16.7635 13.3466C16.2108 13.0926 15.606 12.9657 14.9488 12.9657L14.3827 12.9657Z" fill="#333333"/>
</svg>
