<svg width="48" height="48" viewBox="0 0 48 48" fill="none" xmlns="http://www.w3.org/2000/svg">
<path d="M23.7823 4.84778C20.2524 4.84778 17.0771 6.28444 14.7609 8.58209C12.4636 10.8978 11.0265 14.0735 11.0265 17.6036C11.0265 19.9008 11.642 22.0481 12.7062 23.9161C13.7151 25.6904 15.1347 27.1852 16.8527 28.2872V31.3302C16.8527 31.853 17.0587 32.3211 17.4132 32.6759C17.7496 33.0123 18.2163 33.2365 18.7394 33.2365H28.8058C29.329 33.2365 29.8156 33.0123 30.1515 32.6759C30.5066 32.321 30.712 31.853 30.712 31.3302V28.2872C32.4121 27.1853 33.8483 25.6906 34.8566 23.9161C35.9216 22.0482 36.5206 19.9008 36.5206 17.6036C36.5206 14.0736 35.1011 10.8978 32.8038 8.58209C30.488 6.28444 27.2938 4.84778 23.7823 4.84778ZM23.798 5.50788C30.4977 5.50811 35.9288 10.8999 35.9288 17.5509C35.9208 21.7069 33.6922 25.7525 30.1358 27.9454L30.1983 31.8322C30.1361 32.1013 29.8313 32.6121 29.2257 32.7306H18.4308C18.2056 32.723 17.8611 32.6312 17.5499 32.2111C17.4666 32.0988 17.4 31.9665 17.3644 31.8126V27.836C13.8237 25.6371 11.6714 21.6969 11.6671 17.5509C11.6671 10.8999 17.0982 5.50811 23.798 5.50788H23.798ZM23.8155 6.21493C17.4718 6.21463 12.3291 11.3198 12.3292 17.6173C12.3321 21.7507 14.5882 25.5589 18.2257 27.5704V27.6082H18.2374V31.8289C18.3019 31.8365 18.3662 31.8365 18.4308 31.8309H29.1358C29.1657 31.8309 29.26 31.8271 29.2882 31.8309C29.2833 30.795 29.2988 29.8337 29.2784 28.2801V27.6336C32.9847 25.6445 35.2965 21.8006 35.3019 17.618C35.302 11.3205 30.1593 6.21532 23.8155 6.21562L23.8155 6.21493ZM23.7823 6.75208C26.7713 6.75208 29.4969 7.96655 31.4581 9.92779C33.4195 11.8888 34.6339 14.5964 34.6339 17.6036C34.6339 19.5645 34.1103 21.3951 33.214 22.9825C32.2609 24.6263 30.916 25.9881 29.2726 26.9591L28.8058 27.2229V31.3303H18.7394V27.2229L18.2706 26.9591C16.646 25.9881 15.2843 24.6263 14.3507 22.9825C13.4537 21.3951 12.9308 19.5645 12.9308 17.6036C12.9308 14.5964 14.1453 11.8888 16.1066 9.92779C18.0679 7.9664 20.7754 6.75208 23.7823 6.75208ZM26.5558 8.52742L19.4093 19.4552L23.0636 20.5431L19.9757 30.3809L28.1378 19.1798L23.7726 17.881L26.5558 8.52742ZM25.1066 11.5802L22.9581 18.2735L24.3624 18.6836L26.9698 19.4746L21.5812 27.2696L23.9249 20.0372L22.5245 19.627L22.3409 19.5742V19.5722L20.6202 19.0665L25.1066 11.5802ZM18.3097 34.1134C17.8245 34.1134 17.4308 34.5065 17.4308 34.9923C17.4308 35.459 17.8245 35.8516 18.3097 35.8516H29.255C29.7408 35.8516 30.132 35.4592 30.132 34.9923C30.132 34.5065 29.7408 34.1134 29.255 34.1134H18.3097ZM18.298 34.6154H29.2667C29.4687 34.6154 29.632 34.7786 29.632 34.9804C29.632 35.1822 29.4687 35.3436 29.2667 35.3436H18.298C18.096 35.3436 17.9327 35.1822 17.9327 34.9804C17.9327 34.7786 18.096 34.6154 18.298 34.6154ZM19.1691 36.8595C18.7019 36.8595 18.3097 37.2521 18.3097 37.7189C18.3097 38.2046 18.7019 38.5978 19.1691 38.5978H28.3761C28.862 38.5978 29.255 38.2048 29.255 37.7189C29.255 37.2521 28.862 36.8595 28.3761 36.8595H19.1691ZM19.1749 37.3634H28.3839C28.5858 37.3634 28.7491 37.5266 28.7491 37.7284C28.7491 37.9303 28.5858 38.0917 28.3839 38.0917H19.1749C18.973 38.0917 18.8116 37.9303 18.8116 37.7284C18.8116 37.5266 18.973 37.3634 19.1749 37.3634H19.1749ZM19.4874 39.6622C19.4874 41.2686 21.4106 42.5743 23.7823 42.5743C26.1548 42.5743 28.0597 41.2686 28.0597 39.6622H19.4874ZM20.1241 40.1622H27.4347C27.1769 40.8198 26.5406 41.3808 25.6671 41.7208C24.4919 42.1765 23.0452 42.1735 21.8741 41.7133C21.0097 41.3727 20.3805 40.8152 20.1241 40.1625V40.1622Z" fill="#333333"/>
</svg>
