<svg width="48" height="48" viewBox="0 0 48 48" fill="none" xmlns="http://www.w3.org/2000/svg">
<path fill-rule="evenodd" clip-rule="evenodd" d="M28.5176 9.19137C27.6716 9.17256 26.9059 9.26621 26.3203 9.60934V11.3945H25.9961V13.7715C25.9996 13.8941 25.9867 14.0964 25.9824 14.207C21.9392 15.4193 17.6418 13.6031 16.7617 14.709L4.38281 37.4824C9.60781 37.3182 11.7354 36.1545 21.5801 37.4804C20.8872 32.6227 18.1236 31.9341 26.2852 14.1777C26.3004 14.1737 26.3165 14.176 26.332 14.1738C28.6471 24.6475 35.8177 31.8288 30.8984 37.4043C37.1964 37.7492 40.2476 36.2763 44.4668 37.3593C39.0943 30.0792 33.8424 22.5176 28.9668 14.0781C28.3204 14.2536 27.3629 14.232 26.5996 14.1347V13.1875C28.1419 12.426 30.8478 13.1798 32.9805 13.1875V9.60934C31.5638 9.56871 29.9275 9.22272 28.5176 9.19137ZM29.3555 9.87497L30.1113 9.90622L30.0625 10.7988L31.0898 10.8418L31.0547 11.498L30.0254 11.455L29.9785 12.3476L29.2227 12.3164L29.2715 11.4238L28.2422 11.3828L28.2793 10.7265L29.3066 10.7675L29.3555 9.87497ZM23.0898 23.748V24.8847H22.6758V25.0664H23.0898V37.289H23.4531V34.2168C23.6989 34.3205 23.9319 34.286 24.1387 34.1699V36.1738C24.1387 36.8006 24.6213 37.3066 25.2227 37.3066H29.9844C30.5858 37.3066 31.0723 36.8006 31.0723 36.1738V33.8418C31.0723 33.2149 30.5858 32.7109 29.9844 32.7109H28.666V31.9687C28.666 31.8438 28.5709 31.7441 28.4512 31.7441H26.748C26.6284 31.7441 26.5312 31.8438 26.5312 31.9687V32.7109H25.2227C25.1388 32.7109 25.0646 32.7412 24.9863 32.7597C25.0001 32.62 24.9963 32.4958 24.9492 32.4238C23.836 32.0155 23.7317 30.5527 24.4785 27.3691H24.7773C25.0672 27.3691 25.3008 27.1375 25.3008 26.8476V25.664C25.3008 25.3742 25.0672 25.1406 24.7773 25.1406H24.6699C24.7165 25.0935 24.7424 25.031 24.7422 24.9648C24.7422 24.8265 24.6285 24.7148 24.4902 24.7148C24.4846 24.7146 24.4803 24.7146 24.4746 24.7148C24.3725 24.7217 24.2834 24.7892 24.252 24.8867L23.4531 24.8847V23.748H23.0898ZM24.4785 24.8066C24.4821 24.8065 24.4865 24.8065 24.4902 24.8066C24.5774 24.8066 24.6504 24.8776 24.6504 24.9648C24.6504 25.052 24.5774 25.1211 24.4902 25.1211C24.403 25.1211 24.3339 25.052 24.334 24.9648C24.3337 24.8821 24.3961 24.8128 24.4785 24.8066ZM23.4531 25.0664H24.2637C24.2758 25.094 24.2914 25.119 24.3125 25.1406H24.2559C23.966 25.1406 23.7324 25.3742 23.7324 25.664V26.8476C23.7324 27.1375 23.966 27.3691 24.2559 27.3691H24.3164C23.6076 30.3718 23.6098 32.0896 24.8047 32.5351C24.8414 32.5939 24.8456 32.6865 24.8359 32.791C24.4281 32.9528 24.1387 33.3579 24.1387 33.8418V33.9531C23.9276 34.0945 23.6925 34.1519 23.4531 34.0136V25.0664ZM24.2969 25.3242H24.7363C24.9786 25.3242 25.1738 25.5194 25.1738 25.7617V26.748C25.1738 26.9903 24.9786 27.1855 24.7363 27.1855H24.2969C24.0546 27.1855 23.8613 26.9903 23.8613 26.748V25.7617C23.8613 25.5194 24.0546 25.3242 24.2969 25.3242ZM24.8359 26.3554C24.5732 26.3319 24.2623 26.5968 23.9609 26.498V26.8183C23.9609 26.9775 24.0908 27.1035 24.25 27.1035H24.793C24.9521 27.1035 25.0801 26.9775 25.0801 26.8183V26.498C25.0051 26.4014 24.9235 26.3633 24.8359 26.3554ZM26.9629 32.0488H28.248C28.3336 32.0488 28.4023 32.1197 28.4023 32.209V32.8515C28.4023 32.9406 28.3336 33.0117 28.248 33.0117H26.9629C26.8773 33.0117 26.8086 32.9408 26.8086 32.8515V32.209C26.8086 32.1197 26.8773 32.0488 26.9629 32.0488ZM27.3516 34.3476H27.8594V34.8925H28.4023V35.4004H27.8594V35.9453H27.3516V35.4004H26.8066V34.8925H27.3516V34.3476Z" fill="#333333"/>
</svg>
