<svg width="48" height="48" viewBox="0 0 48 48" fill="none" xmlns="http://www.w3.org/2000/svg">
<path fill-rule="evenodd" clip-rule="evenodd" d="M28.5176 9.19125C27.6716 9.17244 26.9059 9.26609 26.3203 9.60922V11.3944H25.9961V13.7713C25.9996 13.8939 25.9867 14.0963 25.9824 14.2069C21.9392 15.4192 17.6418 13.603 16.7617 14.7088L4.38281 37.4823C9.60781 37.318 11.7354 36.1543 21.5801 37.4803C20.8872 32.6226 18.1236 31.934 26.2852 14.1776C26.3004 14.1735 26.3165 14.1759 26.332 14.1737C28.6471 24.6474 35.8177 31.8287 30.8984 37.4041C37.1964 37.749 40.2476 36.2762 44.4668 37.3592C39.0943 30.0791 33.8424 22.5175 28.9668 14.078C28.3204 14.2534 27.3629 14.2319 26.5996 14.1346V13.1873C28.1419 12.4259 30.8478 13.1796 32.9805 13.1873V9.60922C31.5638 9.56859 29.9275 9.2226 28.5176 9.19125ZM29.3555 9.87484L30.1113 9.90609L30.0625 10.7987L31.0898 10.8416L31.0547 11.4979L30.0254 11.4549L29.9785 12.3475L29.2227 12.3162L29.2715 11.4237L28.2422 11.3827L28.2793 10.7264L29.3066 10.7674L29.3555 9.87484ZM23.0898 23.7479V24.8846H22.6758V25.0662H23.0898V37.2889H23.4531V34.2166C23.6989 34.3204 23.9319 34.2859 24.1387 34.1698V36.1737C24.1387 36.8005 24.6213 37.3065 25.2227 37.3065H29.9844C30.5858 37.3065 31.0723 36.8005 31.0723 36.1737V33.8416C31.0723 33.2148 30.5858 32.7108 29.9844 32.7108H28.666V31.9686C28.666 31.8437 28.5709 31.744 28.4512 31.744H26.748C26.6284 31.744 26.5312 31.8437 26.5312 31.9686V32.7108H25.2227C25.1388 32.7108 25.0646 32.7411 24.9863 32.7596C25.0001 32.6199 24.9963 32.4957 24.9492 32.4237C23.836 32.0154 23.7317 30.5526 24.4785 27.369H24.7773C25.0672 27.369 25.3008 27.1373 25.3008 26.8475V25.6639C25.3008 25.3741 25.0672 25.1405 24.7773 25.1405H24.6699C24.7165 25.0934 24.7424 25.0309 24.7422 24.9647C24.7422 24.8264 24.6285 24.7146 24.4902 24.7147C24.4846 24.7145 24.4803 24.7145 24.4746 24.7147C24.3725 24.7216 24.2834 24.7891 24.252 24.8866L23.4531 24.8846V23.7479H23.0898ZM24.4785 24.8065C24.4821 24.8064 24.4865 24.8064 24.4902 24.8065C24.5774 24.8064 24.6504 24.8775 24.6504 24.9647C24.6504 25.0519 24.5774 25.121 24.4902 25.1209C24.403 25.121 24.3339 25.0519 24.334 24.9647C24.3337 24.882 24.3961 24.8127 24.4785 24.8065ZM23.4531 25.0662H24.2637C24.2758 25.0939 24.2914 25.1189 24.3125 25.1405H24.2559C23.966 25.1405 23.7324 25.3741 23.7324 25.6639V26.8475C23.7324 27.1373 23.966 27.369 24.2559 27.369H24.3164C23.6076 30.3717 23.6098 32.0895 24.8047 32.535C24.8414 32.5938 24.8456 32.6863 24.8359 32.7909C24.4281 32.9527 24.1387 33.3578 24.1387 33.8416V33.953C23.9276 34.0944 23.6925 34.1518 23.4531 34.0135V25.0662ZM24.2969 25.3241H24.7363C24.9786 25.3241 25.1738 25.5192 25.1738 25.7616V26.7479C25.1738 26.9902 24.9786 27.1854 24.7363 27.1854H24.2969C24.0546 27.1854 23.8613 26.9902 23.8613 26.7479V25.7616C23.8613 25.5192 24.0546 25.3241 24.2969 25.3241ZM24.8359 26.3553C24.5732 26.3318 24.2623 26.5967 23.9609 26.4979V26.8182C23.9609 26.9774 24.0908 27.1034 24.25 27.1034H24.793C24.9521 27.1034 25.0801 26.9773 25.0801 26.8182V26.4979C25.0051 26.4013 24.9235 26.3632 24.8359 26.3553ZM26.9629 32.0487H28.248C28.3336 32.0487 28.4023 32.1195 28.4023 32.2088V32.8514C28.4023 32.9405 28.3336 33.0116 28.248 33.0116H26.9629C26.8773 33.0116 26.8086 32.9406 26.8086 32.8514V32.2088C26.8086 32.1195 26.8773 32.0487 26.9629 32.0487ZM27.3516 34.3475H27.8594V34.8924H28.4023V35.4002H27.8594V35.9452H27.3516V35.4002H26.8066V34.8924H27.3516V34.3475Z" fill="#333333"/>
</svg>
