<svg width="48" height="48" viewBox="0 0 48 48" fill="none" xmlns="http://www.w3.org/2000/svg">
<g clip-path="url(#clip0)">
<path fill-rule="evenodd" clip-rule="evenodd" d="M0.0878906 0.181641V48.1816H48.0879V0.181641H0.0878906ZM28.5176 10.1914C29.9275 10.2228 31.5638 10.5687 32.9805 10.6094V14.1875C30.8478 14.1798 28.1419 13.4261 26.5996 14.1875V15.1348C27.3629 15.232 28.3204 15.2536 28.9668 15.0781C33.8424 23.5176 39.0943 31.0792 44.4668 38.3594C40.2476 37.2763 37.1964 38.7492 30.8984 38.4043C35.8177 32.8288 28.6471 25.6475 26.332 15.1738C26.3165 15.1761 26.3004 15.1737 26.2852 15.1777C18.1236 32.9342 20.8872 33.6228 21.5801 38.4805C11.7354 37.1545 9.60781 38.3182 4.38281 38.4824L16.7617 15.709C17.6418 14.6031 21.9392 16.4194 25.9824 15.207C25.9867 15.0964 25.9996 14.8941 25.9961 14.7715V12.3945H26.3203V10.6094C26.9059 10.2662 27.6716 10.1726 28.5176 10.1914ZM29.3555 10.875L29.3066 11.7676L28.2793 11.7266L28.2422 12.3828L29.2715 12.4238L29.2227 13.3164L29.9785 13.3477L30.0254 12.4551L31.0547 12.498L31.0898 11.8418L30.0625 11.7988L30.1113 10.9062L29.3555 10.875ZM23.0898 24.748H23.4531V25.8848L24.252 25.8867C24.2834 25.7893 24.3725 25.7217 24.4746 25.7148C24.4803 25.7146 24.4846 25.7146 24.4902 25.7148C24.6285 25.7148 24.7422 25.8266 24.7422 25.9648C24.7424 26.0311 24.7165 26.0936 24.6699 26.1406H24.7773C25.0672 26.1406 25.3008 26.3742 25.3008 26.6641V27.8477C25.3008 28.1375 25.0672 28.3691 24.7773 28.3691H24.4785C23.7317 31.5528 23.836 33.0155 24.9492 33.4238C24.9963 33.4958 25.0001 33.6201 24.9863 33.7598C25.0646 33.7413 25.1388 33.7109 25.2227 33.7109H26.5312V32.9688C26.5312 32.8439 26.6284 32.7441 26.748 32.7441H28.4512C28.5709 32.7441 28.666 32.8439 28.666 32.9688V33.7109H29.9844C30.5858 33.7109 31.0723 34.2149 31.0723 34.8418V37.1738C31.0723 37.8006 30.5858 38.3066 29.9844 38.3066H25.2227C24.6213 38.3066 24.1387 37.8006 24.1387 37.1738V35.1699C23.9319 35.286 23.6989 35.3205 23.4531 35.2168V38.2891H23.0898V26.0664H22.6758V25.8848H23.0898V24.748ZM24.4785 25.8066C24.3961 25.8128 24.3337 25.8822 24.334 25.9648C24.3339 26.052 24.403 26.1211 24.4902 26.1211C24.5774 26.1211 24.6504 26.052 24.6504 25.9648C24.6504 25.8777 24.5774 25.8066 24.4902 25.8066C24.4865 25.8065 24.4821 25.8065 24.4785 25.8066ZM23.4531 26.0664V35.0137C23.6925 35.1519 23.9276 35.0945 24.1387 34.9531V34.8418C24.1387 34.3579 24.4281 33.9529 24.8359 33.791C24.8456 33.6865 24.8414 33.5939 24.8047 33.5352C23.6098 33.0896 23.6076 31.3718 24.3164 28.3691H24.2559C23.966 28.3691 23.7324 28.1375 23.7324 27.8477V26.6641C23.7324 26.3742 23.966 26.1406 24.2559 26.1406H24.3125C24.2914 26.1191 24.2758 26.094 24.2637 26.0664H23.4531ZM24.2969 26.3242C24.0546 26.3242 23.8613 26.5194 23.8613 26.7617V27.748C23.8613 27.9904 24.0546 28.1855 24.2969 28.1855H24.7363C24.9786 28.1855 25.1738 27.9904 25.1738 27.748V26.7617C25.1738 26.5194 24.9786 26.3242 24.7363 26.3242H24.2969ZM24.8359 27.3555C24.9235 27.3634 25.0051 27.4014 25.0801 27.498V27.8184C25.0801 27.9775 24.9521 28.1035 24.793 28.1035H24.25C24.0908 28.1035 23.9609 27.9775 23.9609 27.8184V27.498C24.2623 27.5968 24.5732 27.332 24.8359 27.3555ZM26.9629 33.0488C26.8773 33.0488 26.8086 33.1197 26.8086 33.209V33.8516C26.8086 33.9408 26.8773 34.0117 26.9629 34.0117H28.248C28.3336 34.0117 28.4023 33.9406 28.4023 33.8516V33.209C28.4023 33.1197 28.3336 33.0488 28.248 33.0488H26.9629ZM27.3516 35.3477V35.8926H26.8066V36.4004H27.3516V36.9453H27.8594V36.4004H28.4023V35.8926H27.8594V35.3477H27.3516Z" fill="#333333"/>
</g>
<defs>
<clipPath id="clip0">
<rect width="48" height="48" fill="white"/>
</clipPath>
</defs>
</svg>
