<svg width="48" height="48" viewBox="0 0 48 48" fill="none" xmlns="http://www.w3.org/2000/svg">
<path fill-rule="evenodd" clip-rule="evenodd" d="M0 0H48V48H0V0ZM24 40C24.0848 40 24.1694 39.9993 24.2539 39.998C24.4026 40.6491 24.6338 41.3263 24.9893 41.9733C24.6618 41.991 24.3319 42 24 42C14.0589 42 6 33.9411 6 24C6 14.0589 14.0589 6 24 6C33.9411 6 42 14.0589 42 24C42 24.2109 41.9964 24.421 41.9892 24.6301C41.3725 24.3167 40.6974 24.1131 40 24.0357L40 24C40 15.1634 32.8366 8 24 8C15.1634 8 8 15.1634 8 24C8 32.8366 15.1634 40 24 40ZM25 35C27.7614 35 30 32.7614 30 30C30 27.2386 27.7614 25 25 25C22.2386 25 20 27.2386 20 30C20 32.7614 22.2386 35 25 35ZM39.1069 27.0131C40.5606 26.8729 41.8505 27.8721 41.9881 29.245C42.1256 30.6178 41.0588 31.8444 39.6051 31.9846C37.3021 32.2068 34.75 29.9433 34.75 29.9433C34.75 29.9433 36.8039 27.2353 39.1069 27.0131ZM31.4305 42.5316C30.2844 43.3642 28.666 43.0572 27.8157 41.8459C26.4685 39.9268 27.1963 36.5 27.1963 36.5C27.1963 36.5 30.6187 36.9115 31.9659 38.8307C32.8162 40.042 32.5765 41.6989 31.4305 42.5316ZM40.1642 34.4119C41.9162 35.4293 42.5427 37.6211 41.5634 39.3074C40.5841 40.9938 38.37 41.536 36.618 40.5186C33.8422 38.9066 32.8396 34.2414 32.8396 34.2414C32.8396 34.2414 37.3885 32.8 40.1642 34.4119ZM18.5547 18.1679C18.1341 17.8875 17.5703 17.9651 17.2411 18.3488C16.9119 18.7325 16.9208 19.3015 17.2619 19.6747C17.983 20.4636 18.1102 20.836 18.1117 21.0378C18.113 21.2182 18.0121 21.5635 17.288 22.2978C16.9279 22.663 16.9024 23.2413 17.2289 23.6367C17.5554 24.0321 18.128 24.1165 18.5547 23.8321L21.5547 21.8321C21.8329 21.6466 22 21.3344 22 21C22 20.6656 21.8329 20.3534 21.5547 20.1679L18.5547 18.1679ZM34.7589 18.3488C34.4297 17.9651 33.8659 17.8875 33.4453 18.1679L30.4453 20.1679C30.1671 20.3534 30 20.6656 30 21C30 21.3344 30.1671 21.6466 30.4453 21.8321L33.4453 23.8321C33.872 24.1165 34.4446 24.0321 34.7711 23.6367C35.0976 23.2413 35.0721 22.663 34.712 22.2978C33.9879 21.5635 33.887 21.2182 33.8883 21.0378C33.8898 20.836 34.017 20.4636 34.7381 19.6747C35.0792 19.3015 35.0881 18.7325 34.7589 18.3488Z" fill="#333333"/>
</svg>
