<svg width="48" height="48" viewBox="0 0 48 48" fill="none" xmlns="http://www.w3.org/2000/svg">
<path fill-rule="evenodd" clip-rule="evenodd" d="M20.4725 7.81762C19.3926 7.81346 18.2972 7.9192 17.1971 8.13989C8.39652 9.9054 2.69139 18.4682 4.4569 27.2688C6.01132 34.9777 12.8601 40.4684 20.7225 40.3059C21.3539 40.891 22.5043 41.117 23.6717 40.884C24.8115 40.6554 25.7726 40.0287 26.1503 39.2668C33.5843 36.4509 37.8875 28.6709 36.326 20.8762C34.7812 13.1757 28.0319 7.84679 20.4725 7.81762ZM28.8573 13.2454C29.0427 14.0798 31.01 16.6046 33.1717 16.7844C33.9323 18.1184 34.5036 19.589 34.8221 21.177C36.2392 28.2563 32.3122 35.3198 25.5506 37.8508C24.544 40.0393 21.9675 39.9545 20.6639 38.7766C13.5538 38.9098 7.36547 33.9393 5.96081 26.968C5.58115 25.0755 5.59359 23.1983 5.9237 21.4094C11.2083 15.3815 24.9789 21.8352 28.8573 13.2454ZM26.8749 20.3899L24.7753 22.6672C26.0336 22.846 27.9996 23.0777 28.7616 23.1614L28.4569 22.345C27.6964 22.2556 26.9134 22.1669 26.201 22.0657L27.4706 20.6887L26.8749 20.3899ZM18.8592 21.2844L18.2635 21.5832L19.5331 22.9602C18.8207 23.0614 18.0357 23.1502 17.2753 23.2395L16.9706 24.0559C17.7325 23.9723 19.6986 23.7406 20.9569 23.5618L18.8592 21.2844ZM39.5663 28.0403C39.2894 28.0078 38.9524 28.0716 38.6268 28.3469C38.2069 28.6659 38.0043 29.5147 37.7381 30.177C38.3357 30.123 39.0981 30.1854 39.7342 29.7922C40.3725 29.2521 40.3465 28.5695 40.1464 28.3118C40.061 28.2019 39.8432 28.0728 39.5663 28.0403ZM23.5311 31.55C21.5057 31.55 19.862 32.3311 19.8592 33.2961C19.8587 34.2622 21.5034 35.0462 23.5311 35.0461C25.5589 35.0462 27.2016 34.2622 27.201 33.2961C27.1983 32.3311 25.5565 31.55 23.5311 31.55ZM40.6952 31.8391C39.7832 31.8236 38.6041 32.2739 37.5526 32.5383C38.376 33.1656 39.2564 34.0846 40.5721 34.4465C42.0828 34.6768 42.9422 34.0251 43.0272 33.5637C43.0997 33.1702 42.6087 32.1116 41.0682 31.8762C40.9499 31.8531 40.8255 31.8413 40.6952 31.8391L40.6952 31.8391ZM37.1385 34.1829C36.9337 34.9378 36.5126 35.8423 36.7049 36.7981C37.0761 37.8231 37.9242 38.0998 38.3299 37.9719C38.676 37.8629 39.3525 37.1463 38.9745 36.1008C38.7749 35.4429 37.8276 34.8083 37.1385 34.1829Z" fill="#333333"/>
</svg>
