<svg width="48" height="48" viewBox="0 0 48 48" fill="none" xmlns="http://www.w3.org/2000/svg">
<path fill-rule="evenodd" clip-rule="evenodd" d="M21.0043 7.49712C19.9081 7.49302 18.7988 7.59849 17.6821 7.81939C15.7256 8.20649 13.9195 8.91866 12.311 9.8897C6.57476 13.3526 3.3488 20.0905 4.74848 26.9717C6.32639 34.6896 13.277 40.1852 21.2582 40.0225C21.8991 40.6084 23.0692 40.8339 24.2543 40.6006C25.4113 40.3719 26.3866 39.7462 26.77 38.9835C34.3164 36.1643 38.6831 28.375 37.0981 20.5713C35.5299 12.8619 28.6779 7.5263 21.0043 7.49712ZM20.9243 7.98541C26.4816 7.98509 31.3716 10.7819 34.2387 15.0206C32.9566 17.5286 29.8978 13.319 29.4282 11.4327C27.9883 16.5934 23.3516 17.184 17.9047 17.4854C14.5392 17.6717 8.40181 17.6001 6.00629 20.6495L5.08246 21.6866C6.1074 13.9586 12.8011 7.98592 20.9243 7.98541ZM29.518 12.9346C29.6929 13.7014 32.75 18.2077 34.5922 15.5889C36.0589 17.9697 36.9183 20.755 36.9184 23.7432C36.9112 30.4695 32.8335 36.372 26.3754 38.5538C26.0637 39.5251 25.0052 39.9254 24.2036 40.087C22.9974 40.2989 21.7095 39.9063 21.5512 39.4424C21.3155 39.4594 21.1604 39.4918 20.9243 39.4991C12.0921 39.4985 4.93031 32.445 4.93012 23.7432C4.93012 23.3268 4.96051 22.9172 4.99262 22.5089C5.34522 22.1103 6.23335 21.1267 6.23676 21.1085C11.6012 15.0735 25.5809 21.5342 29.518 12.9346ZM27.5356 20.0792L25.436 22.3565C26.6943 22.5353 28.6603 22.767 29.4223 22.8506L29.1176 22.0342C28.3572 21.9449 27.5742 21.8562 26.8618 21.7549L28.1313 20.378L27.5356 20.0792ZM19.52 20.9737L18.9243 21.2725L20.1938 22.6495C19.4814 22.7507 18.6964 22.8394 17.936 22.9288L17.6313 23.7452C18.3933 23.6615 20.3593 23.4298 21.6176 23.251L19.52 20.9737ZM40.186 27.7569C39.9091 27.7244 39.5721 27.7883 39.2465 28.0635C38.8266 28.3825 38.624 29.2313 38.3579 29.8936C38.9554 29.8396 39.7178 29.902 40.354 29.5088C40.9922 28.9687 40.9662 28.2861 40.7661 28.0284C40.6807 27.9185 40.4629 27.7894 40.186 27.7569V27.7569ZM39.9145 28.1749C40.2692 28.1614 40.6453 28.5217 40.2211 29.0479C40.0037 29.3265 39.7343 29.3829 38.9965 29.4971C39.1817 29.1108 39.2389 28.7041 39.5981 28.3194C39.6813 28.2242 39.7962 28.1793 39.9145 28.1749L39.9145 28.1749ZM24.1918 31.2393C22.1664 31.2393 20.5227 32.0204 20.52 32.9854C20.5194 33.9515 22.1641 34.7354 24.1918 34.7354C26.2196 34.7354 27.8623 33.9515 27.8618 32.9854C27.859 32.0204 26.2173 31.2393 24.1918 31.2393ZM41.3149 31.5557C40.4029 31.5402 39.2238 31.9905 38.1723 32.2549C38.9957 32.8822 39.8761 33.8012 41.1918 34.1631C42.7025 34.3934 43.5619 33.7417 43.6469 33.2803C43.7194 32.8868 43.2284 31.8282 41.6879 31.5928C41.5696 31.5697 41.4452 31.5579 41.3149 31.5557L41.3149 31.5557ZM24.2094 31.7315C25.0445 31.7315 25.8436 31.8621 26.4311 32.0947C27.0186 32.3273 27.3463 32.6428 27.3422 32.9717C27.3406 33.1347 27.2575 33.2962 27.0976 33.4469C26.9377 33.5975 26.7041 33.7345 26.4103 33.8498C26.1164 33.9652 25.768 34.0567 25.385 34.1192C25.002 34.1817 24.5919 34.2139 24.1782 34.2139C23.7643 34.2139 23.3549 34.1818 22.9733 34.1194C22.5918 34.0569 22.2457 33.9654 21.9547 33.85C21.6638 33.7347 21.4337 33.5977 21.2776 33.447C21.1216 33.2963 21.0427 33.1348 21.0454 32.9717C21.0499 32.6429 21.3857 32.3275 21.9791 32.0949C22.5724 31.8623 23.3746 31.7316 24.2094 31.7315ZM41.35 32.0342C41.6132 32.0303 41.8891 32.0597 42.184 32.1436C43.2699 32.4863 43.8241 33.7812 41.6723 33.6553C40.8683 33.6368 40.0212 33.0294 39.1684 32.4561C39.888 32.3638 40.5607 32.0462 41.35 32.0342ZM37.7582 33.8995C37.5535 34.6544 37.1323 35.5589 37.3246 36.5147C37.6958 37.5397 38.5439 37.8164 38.9497 37.6885C39.2957 37.5795 39.9722 36.8629 39.5942 35.8174C39.3946 35.1595 38.4473 34.5249 37.7582 33.8995ZM38.0219 34.7549C38.3714 35.1822 38.9763 35.4539 39.1547 36.1143C39.4316 36.798 38.5196 37.6575 37.8989 36.4991C37.6688 36.1073 37.9801 35.3243 38.0219 34.7549H38.0219Z" fill="#333333"/>
</svg>
