<svg width="48" height="48" viewBox="0 0 48 48" fill="none" xmlns="http://www.w3.org/2000/svg">
<path d="M20.98 1.5C31.1632 1.5 39.5204 9.2902 40.4198 19.2208C39.967 19.2331 39.4792 19.3269 38.9953 19.4605C38.4994 19.5973 37.9815 19.7835 37.4698 19.9938C36.9502 11.3465 29.7782 4.5 21 4.5C11.8839 4.5 4.5 11.8839 4.5 21C4.5 30.1161 11.8839 37.5 21 37.5C24.1926 37.5 27.174 36.5939 29.6996 35.0246C29.9076 36.0059 30.1708 37.0574 30.4961 38.0296C27.6815 39.6029 24.4366 40.5 20.98 40.5C10.2168 40.5 1.5 31.7645 1.5 21C1.5 10.2355 10.2168 1.5 20.98 1.5ZM14.4736 17.8864L12.7071 16.12L14.12 14.7071L17.6529 18.24L14.12 21.7729L12.7071 20.36L14.4736 18.5936L14.8271 18.24L14.4736 17.8864ZM28.2464 18.5936L30.0129 20.36L28.6 21.7729L25.0671 18.24L28.6 14.7071L30.0129 16.12L28.2464 17.8864L27.8929 18.24L28.2464 18.5936ZM12.3801 30.5L12.3783 30.5C12.2897 30.5003 12.2027 30.4774 12.1258 30.4335C12.0489 30.3897 11.9848 30.3264 11.94 30.25C11.8952 30.1737 11.8712 30.0869 11.8705 29.9984C11.8697 29.9106 11.8918 29.8242 11.9345 29.7476C13.7499 26.616 17.1282 24.5002 20.9995 24.5C22.8386 24.5023 24.6447 24.9886 26.2364 25.91C27.828 26.8315 29.1491 28.1557 30.0668 29.7495C30.2491 30.0662 30.007 30.5 29.6201 30.5L12.3801 30.5ZM34.211 34.6515C34.2085 34.6058 34.2063 34.5618 34.2043 34.5198C34.246 34.525 34.2896 34.5305 34.335 34.5363C34.7631 34.5913 35.3439 34.6771 35.9578 34.8001C36.5738 34.9236 37.2112 35.0822 37.7571 35.2803C38.3193 35.4842 38.7172 35.7068 38.9184 35.9235C39.8599 36.9378 39.8012 38.5151 38.787 39.4566C37.7727 40.3981 36.1953 40.3394 35.2539 39.3252C35.0527 39.1085 34.8603 38.6951 34.6987 38.1193C34.5417 37.5603 34.4309 36.9129 34.3535 36.2893C34.2764 35.668 34.234 35.0824 34.211 34.6515ZM38.8656 30.3767C38.8112 30.3024 38.7607 30.2326 38.7146 30.1683C38.7868 30.1356 38.8653 30.1004 38.9496 30.0632C39.4249 29.8535 40.0805 29.5809 40.8042 29.3275C41.5298 29.0735 42.3129 28.8427 43.0453 28.7122C43.7884 28.5797 44.4281 28.5603 44.8921 28.6847C46.5087 29.1179 47.4692 30.7819 47.036 32.3985C46.6027 34.0151 44.9387 34.9757 43.3221 34.5424C42.8581 34.418 42.3139 34.0813 41.7366 33.595C41.1677 33.1157 40.6049 32.5242 40.1037 31.9414C39.6037 31.36 39.1723 30.796 38.8656 30.3767ZM36.9983 25.0697C37.2148 24.8103 37.5118 24.4677 37.8458 24.1194C38.1881 23.7624 38.5607 23.4083 38.9191 23.1324C39.2912 22.8459 39.5924 22.6878 39.7971 22.6502C40.8176 22.4628 41.7916 23.1345 41.979 24.155C42.1664 25.1755 41.4947 26.1495 40.4742 26.3369C40.2694 26.3745 39.9317 26.3337 39.482 26.1981C39.0491 26.0675 38.5749 25.8689 38.1281 25.6568C37.6922 25.4499 37.2929 25.2353 36.9983 25.0697Z" stroke="#333333"/>
</svg>
