<svg width="48" height="48" viewBox="0 0 48 48" fill="none" xmlns="http://www.w3.org/2000/svg">
<path fill-rule="evenodd" clip-rule="evenodd" d="M0 0H48V48H0V0ZM13 16.5C13 17.698 14.1443 18.7866 16.0102 19.593C16.0034 19.7278 16 19.8635 16 20C16 24.4183 19.5817 28 24 28C28.4183 28 32 24.4183 32 20C32 19.8635 31.9966 19.7278 31.9898 19.593C33.8557 18.7866 35 17.698 35 16.5C35 15.8725 34.686 15.275 34.1189 14.7324C33.6225 15.1784 32.9253 15.5665 32.0401 15.8894C30.2428 16.5451 27.4817 17 23.4737 17C20.4826 17 17.9954 16.536 16.2231 15.8894C15.3418 15.5679 14.5982 15.1871 14.0539 14.7657C14.0168 14.7369 13.9792 14.7069 13.9415 14.6757C13.3363 15.2333 13 15.8506 13 16.5ZM24 26C27.2219 26 29.8507 23.4605 29.9939 20.2739C28.2696 20.7332 26.211 21 24 21C21.789 21 19.7304 20.7332 18.0061 20.2739C18.1493 23.4605 20.7781 26 24 26ZM21 40V40H13V32.1806C14.048 31.773 15.1853 31.4135 16.3506 31.1096L15.0602 34.6583L14.4749 36.268L16.1644 35.9864L21 35.1805V36.4921V36.5092V40ZM11 33.0789V40H8V36C8 35.7218 8.1146 35.329 8.59368 34.7989C9.08395 34.2565 9.86246 33.6816 10.9258 33.118L11 33.0789ZM23 32.2223V35.8969C23.2046 35.9494 23.5251 36 24 36C24.4749 36 24.7954 35.9494 25 35.8969V32L27 30.5V36.4921V36.5092V42H26H25H24V42H22H8H6V40V36C6 32.3389 12.52 29.7274 18.3533 28.6081L23 32.2223ZM20 8.30808C17.7285 9.28312 16.0016 11.0627 15.319 13.2152C15.6496 13.4615 16.1758 13.7433 16.9085 14.0106C18.4256 14.564 20.6753 15 23.4737 15C27.3604 15 29.8625 14.5549 31.3547 14.0106C32.0244 13.7662 32.453 13.5155 32.7094 13.3068C32.0472 11.1133 30.3036 9.29693 28 8.30808V11C28 11.5523 27.5523 12 27 12C26.4477 12 26 11.5523 26 11V7.69264V7C26 6.44772 25.5523 6 25 6H23C22.4477 6 22 6.44772 22 7V7.69264V11C22 11.5523 21.5523 12 21 12C20.4477 12 20 11.5523 20 11V8.30808ZM32.5704 25.6482C33.1481 25.0585 33.9501 25.6529 33.7737 26.4594L33.7479 26.5773C33.3636 28.3342 34.7016 29.9964 36.5 29.9964C38.2984 29.9964 39.6364 28.3342 39.2521 26.5773L39.2263 26.4594C39.0499 25.6529 39.8519 25.0584 40.4296 25.6482C41.4011 26.6401 42 27.9983 42 29.4964C42 31.4621 40.9689 33.1868 39.418 34.1594C39.1386 34.3346 39 34.6702 39 35V40C39 41.1046 38.1046 42 37 42H36C34.8954 42 34 41.1046 34 40V35C34 34.6702 33.8614 34.3346 33.582 34.1594C32.0311 33.1868 31 31.4621 31 29.4964C31 27.9983 31.5989 26.6401 32.5704 25.6482Z" fill="#333333"/>
</svg>
