<svg width="48" height="48" viewBox="0 0 48 48" fill="none" xmlns="http://www.w3.org/2000/svg">
<path fill-rule="evenodd" clip-rule="evenodd" d="M0 0H48V48H0V0ZM33.5 13C35.433 13 37 11.433 37 9.5C37 7.567 35.433 6 33.5 6C31.567 6 30 7.567 30 9.5C30 11.433 31.567 13 33.5 13ZM38.6486 20C38.6984 20.3524 38.7424 20.7287 38.7806 21.1216C38.9992 23.3666 39 25.8009 39 26.4998C39 27.3282 39.6716 27.9998 40.5 27.9998C41.3284 27.9998 42 27.3282 42 26.4998V26.493C42 25.7857 42 23.2288 41.7665 20.8308C41.6508 19.6418 41.4698 18.4015 41.1696 17.4252C41.0223 16.9462 40.8147 16.4227 40.499 15.9892C40.1824 15.5547 39.59 15 38.6886 15H38H37.5H29.5H29H28.3114C27.41 15 26.8176 15.5547 26.501 15.9892C26.1853 16.4227 25.9777 16.9462 25.8304 17.4252C25.5302 18.4015 25.3492 19.6418 25.2335 20.8308C25 23.2288 25 25.7857 25 26.493V26.493V26.4998C25 27.3282 25.6716 27.9998 26.5 27.9998C27.3284 27.9998 28 27.3282 28 26.4998C28 25.8009 28.0008 23.3666 28.2194 21.1216C28.2576 20.7287 28.3016 20.3524 28.3514 20H29V27.997L29 28L29 40.4999C29 41.305 29.6356 41.9666 30.4401 41.9987C31.2446 42.0308 31.931 41.4221 31.9952 40.6195L32.8448 30H33.5H34.1552L35.0048 40.6196C35.069 41.4222 35.7554 42.0309 36.5599 41.9988C37.3644 41.9667 38 41.3051 38 40.5V30V28V20H38.6486ZM14.5 13C16.433 13 18 11.433 18 9.5C18 7.567 16.433 6 14.5 6C12.567 6 11 7.567 11 9.5C11 11.433 12.567 13 14.5 13ZM18.5 15.0005C18.6236 15.0005 18.7467 15.0158 18.8665 15.046C19.9802 15.3266 20.7285 16.0049 21.1994 16.9317C21.6116 17.7429 21.8126 18.7517 21.9796 19.7539L22.9796 25.7539C23.1158 26.5711 22.5638 27.3439 21.7466 27.4801C20.9294 27.6163 20.1566 27.0642 20.0204 26.2471L19.0204 20.2471C18.9276 19.6901 18.8421 19.2657 18.7552 18.9382L18.5 22C18.5 23.6064 20.2031 32.3609 20.7979 35.3696C20.9081 35.9272 20.5314 36.4608 19.9689 36.5426C15.8484 37.1418 13.1517 37.1615 9.03011 36.5471C8.46802 36.4634 8.09424 35.9273 8.20691 35.3703C8.80604 32.4085 10.4999 23.8697 10.5 22.0002L10.2448 18.9388C10.1579 19.2663 10.0724 19.6907 9.97958 20.2478L8.97958 26.2478C8.84339 27.065 8.07055 27.617 7.25339 27.4808C6.43624 27.3446 5.88421 26.5718 6.0204 25.7546L7.0204 19.7546C7.18744 18.7524 7.38842 17.7436 7.80063 16.9324C8.27154 16.0056 9.01975 15.3273 10.1335 15.0467C10.2526 15.0166 10.375 15.0014 10.4979 15.0012C10.7493 15.0008 11.6259 15.0008 12.4377 15.0009L12.9601 15.001C12.9733 15.0007 12.9867 15.0005 13 15.0005V15.001H13.0001V15.0005H13.0002H13.0005H13.0009H13.0014H13.002H13.0028H13.0036H13.0046H13.0057H13.0068H13.0081H13.0095H13.011H13.0126H13.0144H13.0162H13.0181H13.0202H13.0223H13.0246H13.0269H13.0294H13.032H13.0347H13.0374H13.0403H13.0433H13.0464H13.0496H13.0529H13.0563H13.0598H13.0634H13.0671H13.0709H13.0747H13.0787H13.0828H13.087H13.0913H13.0957H13.1002H13.1047H13.1094H13.1142H13.1191H13.124H13.1291H13.1342H13.1394H13.1448H13.1502H13.1557H13.1613H13.167H13.1728H13.1787H13.1846H13.1907H13.1969H13.2031H13.2094H13.2158H13.2223H13.2289H13.2356H13.2423H13.2492H13.2561H13.2631H13.2702H13.2774H13.2847H13.292H13.2994H13.3069H13.3145H13.3222H13.33H13.3378H13.3457H13.3537H13.3618H13.3699H13.3782H13.3865H13.3949H13.4033H13.4119H13.4205H13.4292H13.438H13.4468H13.4557H13.4647H13.4738H13.4829H13.4921H13.5014H13.5108H13.5202H13.5297H13.5393H13.5489H13.5586H13.5684H13.5783H13.5882H13.5982H13.6082H13.6183H13.6285H13.6388H13.6491H13.6595H13.6699H13.6804H13.691H13.7017H13.7124H13.7231H13.734H13.7449H13.7558H13.7668H13.7779H13.7891H13.8003H13.8115H13.8228H13.8342H13.8457H13.8571H13.8687H13.8803H13.892H13.9037H13.9155H13.9273H13.9392H13.9511H13.9631H13.9752H13.9873H13.9994H14.0116H14.0239H14.0362H14.0486H14.061H14.0735H14.086H14.0985H14.1111H14.1238H14.1365H14.1493H14.1621H14.1749H14.1878H14.2008H14.2138H14.2268H14.2399H14.253H14.2662H14.2794H14.2926H14.3059H14.3193H14.3326H14.3461H14.3595H14.373H14.3866H14.4002H14.4138H14.4275H14.4412H14.4549H14.4687H14.4825H14.4963H14.5102H14.5241H14.5381H14.5521H14.5661H14.5802H14.5943H14.6084H14.6226H14.6368H14.651H14.6652H14.6795H14.6938H14.7082H14.7226H14.737H14.7514H14.7659H14.7804H14.7949H14.8095H14.824H14.8386H14.8533H14.8679H14.8826H14.8973H14.912H14.9268H14.9416H14.9564H14.9712H14.986H15.0009H15.0158H15.0307H15.0456H15.0606H15.0756H15.0906H15.1056H15.1206H15.1356H15.1507H15.1658H15.1809H15.196H15.2111H15.2263H15.2414H15.2566H15.2718H15.287H15.3022H15.3174H15.3327H15.3479H15.3632H15.3785H15.3938H15.409H15.4244H15.4397H15.455H15.4703H15.4857H15.501H15.5164H15.5317H15.5471H15.5625H15.5779H15.5933H15.6087H15.6241H15.6395H15.6549H15.6703H15.6857H15.7011H15.7165H15.7319H15.7474H15.7628H15.7782H15.7936H15.809H15.8245H15.8399H15.8553H15.8707H15.8861H15.9015H15.9169H15.9323H15.9477H15.9631H15.9785H15.9939H16.0092H16.0246H16.0399H16.0553H16.0706H16.086H16.1013H16.1166H16.1319H16.1472H16.1625H16.1778H16.193H16.2083H16.2235H16.2388H16.254H16.2692H16.2844H16.2995H16.3147H16.3298H16.345H16.3601H16.3752H16.3903H16.4053H16.4204H16.4354H16.4504H16.4654H16.4804H16.4953H16.5102H16.5252H16.54H16.5549H16.5697H16.5846H16.5994H16.6141H16.6289H16.6436H16.6583H16.673H16.6877H16.7023H16.7169H16.7315H16.746H16.7605H16.775H16.7895H16.8039H16.8183H16.8327H16.8471H16.8614H16.8757H16.8899H16.9042H16.9184H16.9325H16.9466H16.9607H16.9748H16.9888H17.0028H17.0168H17.0307H17.0446H17.0584H17.0722H17.086H17.0997H17.1134H17.1271H17.1407H17.1543H17.1678H17.1813H17.1948H17.2082H17.2216H17.2349H17.2482H17.2615H17.2747H17.2879H17.301H17.3141H17.3271H17.3401H17.353H17.3659H17.3788H17.3916H17.4043H17.417H17.4297H17.4423H17.4549H17.4674H17.4798H17.4922H17.5046H17.5169H17.5292H17.5414H17.5535H17.5656H17.5777H17.5897H17.6016H17.6135H17.6253H17.6371H17.6488H17.6605H17.6721H17.6836H17.6951H17.7066H17.7179H17.7292H17.7405H17.7517H17.7628H17.7739H17.7849H17.7959H17.8068H17.8176H17.8284H17.8391H17.8497H17.8603H17.8708H17.8812H17.8916H17.9019H17.9122H17.9224H17.9325H17.9425H17.9525H17.9624H17.9723H17.982H17.9918H18.0014H18.011H18.0205H18.0299H18.0392H18.0485H18.0577H18.0669H18.0759H18.0849H18.0938H18.1027H18.1114H18.1201H18.1287H18.1373H18.1457H18.1541H18.1624H18.1706H18.1788H18.1869H18.1949H18.2028H18.2106H18.2184H18.226H18.2336H18.2411H18.2486H18.2559H18.2632H18.2703H18.2774H18.2844H18.2914H18.2982H18.3049H18.3116H18.3182H18.3247H18.3311H18.3374H18.3436H18.3498H18.3558H18.3618H18.3677H18.3735H18.3791H18.3847H18.3903H18.3957H18.401H18.4062H18.4114H18.4164H18.4214H18.4262H18.431H18.4357H18.4402H18.4447H18.4491H18.4534H18.4576H18.4616H18.4656H18.4695H18.4733H18.477H18.4806H18.4841H18.4875H18.4907H18.4939H18.497H18.5ZM10.6311 38.1115L11.0077 41.1241C11.0674 41.6018 11.4591 41.9692 11.9397 41.9982C12.4203 42.0273 12.8534 41.7097 12.9701 41.2426L13.6899 38.3637C12.6981 38.3256 11.6905 38.2418 10.6311 38.1115ZM15.3156 38.3853L16.0299 41.2421C16.1466 41.7092 16.5797 42.0268 17.0603 41.9977C17.5409 41.9687 17.9326 41.6014 17.9923 41.1236L18.3564 38.2111C17.3141 38.3149 16.3129 38.3733 15.3156 38.3853Z" fill="#333333"/>
</svg>
