<?xml version="1.0" encoding="UTF-8" standalone="no"?>
<!-- Created with Inkscape (http://www.inkscape.org/) -->
<svg id="svg8" xmlns:rdf="http://www.w3.org/1999/02/22-rdf-syntax-ns#" xmlns="http://www.w3.org/2000/svg" xmlns:osb="http://www.openswatchbook.org/uri/2009/osb" height="48" width="48" version="1.1" xmlns:cc="http://creativecommons.org/ns#" viewBox="0 0 12.7 12.7" xmlns:dc="http://purl.org/dc/elements/1.1/">
 <title id="title4753">UIO-icon</title>
 <metadata id="metadata5">
  <rdf:RDF>
   <cc:Work rdf:about="">
    <dc:format>image/svg+xml</dc:format>
    <dc:type rdf:resource="http://purl.org/dc/dcmitype/StillImage"/>
    <dc:title>UIO-icon</dc:title>
    <dc:creator>
     <cc:Agent>
      <dc:title>Joaquín Urbano</dc:title>
     </cc:Agent>
    </dc:creator>
    <dc:rights>
     <cc:Agent>
      <dc:title>GPL</dc:title>
     </cc:Agent>
    </dc:rights>
   </cc:Work>
  </rdf:RDF>
 </metadata>
 <g id="layer1" fill="#333" transform="translate(0,-284.3)">
  <path id="rect3248" d="m0 0v48h48v-48zm12.051 4.0664a3.395 3.395 0 0 1 3.394 3.3945 3.395 3.395 0 0 1 -3.394 3.3941 3.395 3.395 0 0 1 -3.3948 -3.3941 3.395 3.395 0 0 1 3.3948 -3.3945zm22.699 0.0996a3.395 3.395 0 0 1 3.395 3.3965 3.395 3.395 0 0 1 -3.395 3.3945 3.395 3.395 0 0 1 -3.395 -3.3945 3.395 3.395 0 0 1 3.395 -3.3965zm-22.992 8.189c1.9516 0.00025814 3.4934 1.6382 3.4844 3.5898l-0.013672 4.2656c1e-8 0.056753-0.001403 0.11664-0.001953 0.17383l2.586 1.683c0.27575 0.17949 0.48233 0.41818 0.64453 0.67969l1.5312-3.375 2.166 1.8125c-0.90173 0.67201-1.8172 1.3199-2.5781 2.2168l2.916-1.5645 0.62305 2.7539c-1.6065-0.017394-3.2074-0.088046-4.8906 0.7207-0.43792 0.48727-1.0488 0.74839-1.6777 0.72266-0.30639-0.021022-0.58203-0.11499-0.85547-0.21289-0.080829-0.039556-0.15898-0.082507-0.23633-0.13281l-0.396-0.26c-0.17495 1.2676-0.17458 3.4787 0.53125 5.0117l1.113 4.917c0.50017 1.4327-0.11257 3.8966-0.59961 6.9492-0.35426 1.4975-0.82416 1.6992-1.9746 1.6992-1.425-0.208-1.478-1.645-1.27-3.069l0.59961-4.0938-1.6113-5.9824-0.82422 6.7734c-0.041404 0.1832-0.10228 0.35572-0.17773 0.51953-0.043897 0.19068-0.10754 0.38044-0.19727 0.56445l-1.9039 3.902c-0.6319 1.294-2.1805 1.827-3.4746 1.195s-0.5907-1.606 0.041-2.9l2.0567-3.854c0.46878-2.1075 0.12292-4.9279 0.625-7.0273-0.014848-1.6562 1.076-3.5432 0.6875-11.439l-0.0156-2.588c-0.011439-1.9517 1.1421-3.6521 3.0938-3.6523zm22.992 0.118c1.2245-0.004638 2.4216 0.096944 3.6699 0.66211-0.041172 0.033982-0.081674 0.07419-0.12695 0.14453-0.23941 0.37198-0.44215 0.87612-0.54688 1.3457-0.083157 0.3729-0.094597 0.50992-0.10547 1.2988l-0.011719 0.73828-0.056641 0.011719c-0.69017 0.14138-1.0531 0.28149-1.4961 0.57812-0.47185 0.31598-0.86825 0.79526-0.9707 1.1758-0.009628 0.035686-0.025203 0.072129-0.037109 0.082031-0.011907 0.009902-0.094111 0.02533-0.18164 0.035156-0.17104 0.019124-0.45871-0.00098933-0.5-0.035156-0.011906-0.009857-0.031383-0.046277-0.041016-0.082031-0.10246-0.38051-0.49495-0.85981-0.9668-1.1758-0.44296-0.29663-0.80787-0.43671-1.498-0.57812l-0.056641-0.011719-0.009766-0.73828c-0.012-0.789-0.024-0.926-0.107-1.299-0.105-0.47-0.311-0.974-0.551-1.346-0.04-0.063-0.076-0.097-0.113-0.131 1.261-0.579 2.469-0.68 3.705-0.675zm4.1738 0.91797c0.32761 0.18104 0.65859 0.38467 0.99609 0.64258 1.2553 0.88969 2.566 6.5631 2.877 13.156-0.11459 1.3544-2.0093 1.2668-2.0469 0.078125-0.31984-5.134-1.2822-9.3086-2.457-10.641l0.007813-0.75391c0.00635-0.69441 0.010575-0.7912 0.041016-0.94922 0.086365-0.44835 0.24703-0.87698 0.46094-1.2324 0.087876-0.14603 0.11633-0.22951 0.12109-0.30078zm-8.3984 0.027344c0.009768 0.056875 0.038555 0.12136 0.091797 0.21094 0.17977 0.30246 0.3433 0.68373 0.42578 0.99023 0.09574 0.35582 0.10377 0.42607 0.11133 1.2539l0.003906 0.77344-0.027344 0.091797c-1.141 1.425-2.069 5.509-2.382 10.53-0.03756 1.1887-1.9323 1.2763-2.0469-0.078125 0.31095-6.5932 1.6216-12.267 2.877-13.156 0.32022-0.2447 0.63407-0.44003 0.94531-0.61523zm-18.748 0.36914c-1.1806 0.00000566-2.1328 0.95028-2.1328 2.1309v3.5391c0.045664 1.0676-0.055806 1.7984 1.1387 2.6465l1.0859 0.70703c0.06763 0.054176 0.1383 0.10571 0.21289 0.1543l2.9844 1.9434 0.2793 0.18164c1.0034 0.65313 2.2303 0.53397 2.752-0.26758 0.52171-0.80146 0.13426-1.9719-0.86914-2.625l-1.085-0.705c-0.068275-0.054603-0.13756-0.10919-0.21289-0.1582l-0.713-0.463-1.3301-0.86719 0.017578-0.54688v-3.5391c-2e-8 -1.1806-0.94834-2.1309-2.1289-2.1309zm22.453 5.3633 0.16406 0.027344c0.2087 0.033071 0.45732 0.033071 0.66602 0l0.16406-0.027344 0.125 0.12305c0.098468 0.095758 0.20796 0.17929 0.32617 0.25195 0.35465 0.218 0.78783 0.33082 1.2461 0.31445 0.25157-0.008942 0.39731-0.035382 0.61914-0.11133 0.15856-0.054282 0.30067-0.13724 0.43359-0.23047 0.001516-0.001066 0.004342-0.00088201 0.005859-0.001953-0.60574 1.6461 0.15386 3.629 1.1289 5.668-3.1602 2.1266-6.0576 1.7742-8.8027-0.003906 0.49407-1.8406 1.7996-3.3271 1.2109-5.6387 0.24028 0.1589 0.52128 0.27371 0.83203 0.3125 0.12593 0.015723 0.45855 0.009711 0.59961-0.011719 0.35688-0.0542 0.67357-0.208 0.94141-0.40234 0.002445-0.001753 0.005271-0.002255 0.007813-0.003906 0.002439-0.001776 0.003428-0.004059 0.005859-0.005859 0.064533-0.047509 0.1431-0.082464 0.19922-0.13672zm-14.475 1.0293-0.11328 0.13672 0.18164 0.1543c-0.075214 0.11038-0.10752 0.22101-0.097656 0.33398 0.00986 0.11297 0.0621 0.21034 0.1582 0.29102 0.055729 0.046783 0.1128 0.077498 0.16797 0.09375 0.055651 0.015716 0.1111 0.02021 0.16797 0.013672 0.05678-0.007589 0.11671-0.023468 0.17773-0.048828 0.060458-0.025829 0.12778-0.059152 0.20312-0.10156 0.075348-0.042395 0.13815-0.06616 0.1875-0.068359 0.049255-0.003247 0.095948 0.015543 0.14258 0.054688 0.044924 0.037712 0.069885 0.081373 0.072266 0.13281 0.001813 0.050963-0.018538 0.1023-0.060547 0.15234-0.050601 0.060265-0.10884 0.091411-0.17188 0.09375-0.063127 0.001293-0.12764-0.027178-0.19531-0.083984l-0.20703 0.24805c0.11658 0.09786 0.23735 0.14317 0.36133 0.13867 0.12389-0.005541 0.24119-0.059943 0.35156-0.16602l0.167 0.141 0.113-0.134-0.168-0.143c0.077986-0.11484 0.11124-0.22896 0.10156-0.33984-0.009677-0.11088-0.063484-0.20596-0.16016-0.28711-0.051748-0.043442-0.10226-0.073289-0.1543-0.089844-0.052604-0.017034-0.10667-0.024369-0.16211-0.019531-0.056008 0.004362-0.11514 0.019233-0.17578 0.042969-0.06121 0.023263-0.13417 0.058192-0.21875 0.10352-0.084103 0.044761-0.1501 0.067251-0.19727 0.070312-0.047163 0.003061-0.091547-0.012545-0.13477-0.048828-0.04663-0.039145-0.073448-0.083309-0.078125-0.13086-0.005245-0.048026 0.011637-0.093993 0.050781-0.14062 0.039622-0.04718 0.088974-0.07109 0.14648-0.070312 0.057419-0.00026835 0.12121 0.028655 0.18945 0.085938l0.20703-0.24609c-0.11089-0.093086-0.22664-0.14121-0.34375-0.14258-0.11768-0.001852-0.22551 0.042142-0.32422 0.13086zm2.084 2.1777-0.17383 0.035156 0.046875 0.23438c-0.12765 0.03933-0.22237 0.10478-0.28516 0.19922-0.062785 0.094435-0.083356 0.20316-0.058594 0.32617 0.014359 0.071327 0.039299 0.1306 0.072266 0.17773 0.033695 0.046991 0.074521 0.0868 0.12305 0.11719 0.049108 0.029495 0.10446 0.052057 0.16797 0.070312 0.063362 0.017533 0.13926 0.034957 0.22461 0.048828 0.085345 0.013871 0.14757 0.035389 0.1875 0.064453 0.040515 0.028195 0.06611 0.071173 0.078125 0.13086 0.011575 0.057502 0.002891 0.10676-0.027344 0.14844-0.030381 0.040955-0.078526 0.069143-0.14258 0.082031-0.077154 0.015568-0.14069 0.00429-0.19141-0.033203-0.050138-0.038377-0.084126-0.10088-0.10156-0.1875l-0.31445 0.0625c0.030038 0.14921 0.09367 0.26014 0.19336 0.33398 0.10027 0.072986 0.22647 0.10387 0.37891 0.089844l0.044922 0.21484 0.17188-0.033203-0.042969-0.21875c0.1326-0.041084 0.22939-0.10653 0.29102-0.19922 0.061622-0.092685 0.079596-0.20243 0.054688-0.32617-0.013334-0.066236-0.034109-0.12062-0.064453-0.16602-0.03049-0.046122-0.068892-0.084431-0.11523-0.11523-0.046489-0.03154-0.10186-0.056896-0.16406-0.076172-0.062346-0.020016-0.14-0.039293-0.23438-0.056641-0.093649-0.017503-0.16045-0.039383-0.19922-0.066406-0.038766-0.027035-0.063083-0.069683-0.074219-0.125-0.012015-0.059682-0.004529-0.10836 0.021484-0.14844 0.025867-0.0408 0.067268-0.068059 0.12695-0.080078 0.060413-0.012151 0.11375 0.00059914 0.1582 0.037109 0.045038 0.035618 0.076167 0.096249 0.09375 0.18359l0.31641-0.0625c-0.028572-0.14193-0.089025-0.25007-0.17969-0.32422-0.090809-0.07488-0.20149-0.10931-0.33398-0.10156zm8.3359 3.3828c2.0833 0.52579 3.2701 1.6258 4.2773 2.8438l0.025391 14.328c0.01795 1.4113-3.4555 1.6742-3.4941 0.082031 0.5869-16.448-1.3661-13.686-0.80859-17.254zm9.0469 0c0.55745 3.5684-1.3974 0.80545-0.81055 17.254-0.038614 1.5922-3.5101 1.3293-3.4922-0.082031l0.023438-14.328c1.0072-1.218 2.196-2.318 4.2793-2.8438z" fill-rule="evenodd" transform="matrix(.26458 0 0 .26458 0 284.3)"/>
 </g>
</svg>
