<svg width="48" height="48" viewBox="0 0 48 48" fill="none" xmlns="http://www.w3.org/2000/svg">
<path fill-rule="evenodd" clip-rule="evenodd" d="M33.5 14C31.2909 14 29.5 12.2091 29.5 10C29.5 7.79086 31.2909 6 33.5 6C35.7091 6 37.5 7.79086 37.5 10C37.5 12.2091 35.7091 14 33.5 14ZM33.5 12C32.3954 12 31.5 11.1046 31.5 10C31.5 8.89543 32.3954 8 33.5 8C34.6046 8 35.5 8.89543 35.5 10C35.5 11.1046 34.6046 12 33.5 12Z" fill="#333333"/>
<path fill-rule="evenodd" clip-rule="evenodd" d="M38.6298 16.8415C37.6384 16.2453 36.5448 16 35.4542 16H31.5458C30.4552 16 29.3616 16.2453 28.3702 16.8415C27.381 17.4364 26.671 18.2739 26.1786 19.1838C25.2495 20.9006 25 23.0478 25 25.1435V25.2321C25 25.2617 25.0013 25.2912 25.0039 25.3206L25.0118 25.4088L25.0126 25.4224C25.0132 25.4327 25.0138 25.4468 25.0144 25.4657C25.0156 25.5038 25.0167 25.5553 25.0173 25.6231C25.0186 25.7589 25.0181 25.9482 25.0154 26.2059C25.0142 26.3209 25.0127 26.4452 25.011 26.5785L25.011 26.5821C25.006 26.9889 25 27.4753 25 28C25 29.6569 26.3431 31 28 31C28.1701 31 28.3372 30.9858 28.5 30.9584V39.5C28.5 40.8228 29.5304 41.9166 30.8508 41.9955C32.1712 42.0745 33.3246 41.1112 33.4822 39.7979L33.5 39.6495L33.5178 39.7979C33.6754 41.1112 34.8288 42.0745 36.1492 41.9955C37.4696 41.9166 38.5 40.8228 38.5 39.5V30.9584C38.6628 30.9858 38.8299 31 39 31C40.6569 31 42 29.6569 42 28C42 27.4745 41.994 26.9877 41.989 26.5805L41.989 26.5787C41.9873 26.4454 41.9858 26.3209 41.9846 26.2059C41.9819 25.9482 41.9814 25.7589 41.9827 25.6231C41.9833 25.5553 41.9844 25.5038 41.9856 25.4657C41.9862 25.4468 41.9868 25.4327 41.9874 25.4224L41.9882 25.4087L41.9961 25.3206C41.9987 25.2912 42 25.2617 42 25.2321V25.1435C42 23.0478 41.7505 20.9006 40.8214 19.1838C40.329 18.2739 39.619 17.4364 38.6298 16.8415ZM28 29C28.1838 29 28.3532 28.9513 28.4993 28.8668L28.5 23H30.5V39.5C30.5 39.7645 30.7061 39.9833 30.9702 39.9991C31.2342 40.0149 31.4649 39.8222 31.4964 39.5596L32.5071 31.1372C32.5674 30.6346 32.9938 30.2563 33.5 30.2563C34.0062 30.2563 34.4326 30.6346 34.4929 31.1372L35.5036 39.5596C35.5351 39.8222 35.7658 40.0149 36.0298 39.9991C36.2939 39.9833 36.5 39.7645 36.5 39.5L36.5 23H38.5L38.5007 28.8668C38.6468 28.9513 38.8162 29 39 29C39.5523 29 40 28.5523 40 28C40 27.4876 39.9941 27.011 39.9891 26.6025C39.9875 26.4699 39.9859 26.3439 39.9847 26.2267C39.9795 25.7244 39.981 25.4014 39.9961 25.232L40 25.1878V25.1435C40 23.1478 39.7509 21.4078 39.0625 20.1357C38.7089 19.4823 38.2297 18.9347 37.599 18.5554C36.9676 18.1757 36.243 18 35.4542 18H31.5458C30.757 18 30.0324 18.1757 29.401 18.5554C28.7703 18.9347 28.2911 19.4823 27.9375 20.1357C27.2491 21.4078 27 23.1478 27 25.1435V25.1878L27.0039 25.232C27.019 25.4014 27.0205 25.7244 27.0153 26.2267C27.0141 26.3423 27.0126 26.4674 27.0109 26.5982L27.0109 26.6031C27.0059 27.0116 27 27.4875 27 28C27 28.5523 27.4477 29 28 29Z" fill="#333333"/>
<path fill-rule="evenodd" clip-rule="evenodd" d="M10.0001 10C10.0001 12.2091 11.791 14 14.0001 14C16.2093 14 18.0001 12.2091 18.0001 10C18.0001 7.79086 16.2093 6 14.0001 6C11.791 6 10.0001 7.79086 10.0001 10ZM12.0001 10C12.0001 11.1046 12.8956 12 14.0001 12C15.1047 12 16.0001 11.1046 16.0001 10C16.0001 8.89543 15.1047 8 14.0001 8C12.8956 8 12.0001 8.89543 12.0001 10Z" fill="#333333"/>
<path fill-rule="evenodd" clip-rule="evenodd" d="M10.5539 16.4437C11.3405 16.0476 12.0911 16.0001 12.5214 16L12.984 16.0002L12.9911 16.0001L16.4791 16.0002C16.9089 16.0003 17.6593 16.0478 18.4459 16.4439C19.7767 17.1139 20.5362 18.2111 20.9873 19.1805C21.4187 20.1075 21.6674 21.1339 21.852 21.9882C22.0273 22.7992 22.0316 22.8204 22.1314 23.333C22.2268 23.8232 22.4134 24.7823 22.941 27.4096C23.2671 29.034 22.2147 30.6153 20.5903 30.9415C20.3302 30.9937 20.0714 31.0105 19.8187 30.9954L20.3579 34.0956C20.5072 34.9544 20.074 35.8919 19.1479 36.2222C18.2405 36.5458 16.5957 37 14.5001 37C12.4046 37 10.7598 36.5458 9.85236 36.2222C8.92629 35.8919 8.49306 34.9544 8.64241 34.0956L9.18162 30.9952C8.92875 31.0104 8.66973 30.9935 8.40954 30.9413C6.78511 30.6151 5.73267 29.0338 6.05885 27.4094C6.5865 24.7816 6.77318 23.8223 6.86856 23.3322C6.96831 22.8196 6.97246 22.799 7.14776 21.988C7.33244 21.1337 7.58113 20.1073 8.01252 19.1803C8.46363 18.211 9.22311 17.1138 10.5539 16.4437ZM13.0017 18.0002L12.5217 18C12.2369 18.0001 11.8426 18.034 11.4533 18.23C10.6603 18.6293 10.163 19.2996 9.82579 20.0242C9.49556 20.7338 9.28401 21.5715 9.10261 22.4106C8.93025 23.2079 8.92788 23.2201 8.83401 23.7025L8.83173 23.7142C8.73554 24.2085 8.54816 25.1713 8.01971 27.8031C7.91098 28.3446 8.2618 28.8717 8.80327 28.9804C9.05458 29.0309 9.3033 28.9828 9.50901 28.861L10.6952 22.3372L12.6629 22.695L12.0373 26.1356L12.0614 26.109L10.6241 34.3734C11.3972 34.6394 12.7668 35 14.5001 35C16.2335 35 17.603 34.6394 18.3762 34.3734L16.9395 26.1129L16.9636 26.1395L16.3374 22.695L18.3051 22.3372L19.4914 28.8615C19.697 28.983 19.9455 29.031 20.1965 28.9806C20.738 28.8719 21.0888 28.3448 20.9801 27.8033C20.4516 25.1714 20.2643 24.2087 20.1681 23.7144L20.1658 23.7026C20.0719 23.2203 20.0695 23.2081 19.8972 22.4108C19.7158 21.5716 19.5042 20.7339 19.174 20.0243C18.8368 19.2997 18.3395 18.6295 17.5465 18.2302C17.1572 18.0342 16.7631 18.0003 16.4784 18.0002L13.0092 18.0001L13.0017 18.0002Z" fill="#333333"/>
<path d="M17.7147 41.9131C18.4526 41.8064 19.0001 41.1741 19.0001 40.4285V38C17.6945 38.1798 16.4928 38.2909 15.318 38.3349L16.0615 40.8533C16.2726 41.5683 16.9768 42.0197 17.7147 41.9131Z" fill="#333333"/>
<path d="M13.7349 38.3537L12.9294 40.8836C12.7051 41.5882 12.0006 42.0243 11.2699 41.9107C10.5391 41.7972 10.0001 41.168 10.0001 40.4285V38.0921C11.3107 38.2491 12.5271 38.3369 13.7349 38.3537Z" fill="#333333"/>
</svg>
