<?xml version="1.0" encoding="UTF-8" standalone="no"?>
<!-- Created with Inkscape (http://www.inkscape.org/) -->
<svg id="svg8" xmlns:rdf="http://www.w3.org/1999/02/22-rdf-syntax-ns#" xmlns="http://www.w3.org/2000/svg" xmlns:osb="http://www.openswatchbook.org/uri/2009/osb" height="48" width="48" version="1.1" xmlns:cc="http://creativecommons.org/ns#" viewBox="0 0 12.7 12.7" xmlns:dc="http://purl.org/dc/elements/1.1/">
 <title id="title4753">UIO-icon</title>
 <metadata id="metadata5">
  <rdf:RDF>
   <cc:Work rdf:about="">
    <dc:format>image/svg+xml</dc:format>
    <dc:type rdf:resource="http://purl.org/dc/dcmitype/StillImage"/>
    <dc:title>UIO-icon</dc:title>
    <dc:creator>
     <cc:Agent>
      <dc:title>Joaquín Urbano</dc:title>
     </cc:Agent>
    </dc:creator>
    <dc:rights>
     <cc:Agent>
      <dc:title>GPL</dc:title>
     </cc:Agent>
    </dc:rights>
   </cc:Work>
  </rdf:RDF>
 </metadata>
 <g id="layer1" fill="#333" transform="translate(0,-284.3)">
  <path id="path1084" d="m3.1884 285.38a0.89827 0.89827 0 0 0 -0.89814 0.89814 0.89827 0.89827 0 0 0 0.89814 0.89814 0.89827 0.89827 0 0 0 0.89814 -0.89814 0.89827 0.89827 0 0 0 -0.89814 -0.89814zm6.0058 0.026355a0.89827 0.89827 0 0 0 -0.89814 0.89865 0.89827 0.89827 0 0 0 0.89814 0.89814 0.89827 0.89827 0 0 0 0.89814 -0.89814 0.89827 0.89827 0 0 0 -0.89814 -0.89865zm-6.0833 2.1668c-0.51637 0.0000683-0.82158 0.44997-0.81855 0.96635l0.0041341 0.68471c0.10279 2.0892-0.18583 2.5885-0.1819 3.0267-0.13284 0.55547-0.041333 1.3017-0.16536 1.8593l-0.54415 1.0196c-0.16714 0.34234-0.35325 0.6002-0.010852 0.7674 0.34239 0.16718 0.75213 0.026089 0.91932-0.31626l0.50385-1.0325c0.023741-0.048688 0.040579-0.098894 0.052193-0.14934 0.019964-0.043341 0.036071-0.088988 0.047026-0.13746l0.21807-1.7921 0.42633 1.5828-0.15865 1.0831c-0.055263 0.377-0.041105 0.75709 0.3359 0.81235 0.30439 0 0.42872-0.05338 0.52245-0.44958 0.12886-0.80768 0.29098-1.4596 0.15865-1.8386l-0.29456-1.3012c-0.1867-0.41-0.1868-1-0.1405-1.33l0.1049 0.06873c0.020465 0.01331 0.041142 0.024674 0.062528 0.03514 0.072348 0.025903 0.14528 0.050765 0.22634 0.056327 0.1664 0.00681 0.32803-0.062279 0.4439-0.1912 0.44534-0.21398 0.86894-0.19529 1.294-0.19069l-0.16485-0.72864-0.77153 0.41393c0.20133-0.23731 0.44355-0.40872 0.68213-0.58653l-0.57309-0.47956-0.40514 0.89297c-0.042916-0.06919-0.097574-0.13234-0.17053-0.17983l-0.6842-0.44545c0.0001456-0.01513 0.00051673-0.030976 0.00051673-0.045992l0.0036174-1.1286c0.0023889-0.51638-0.40555-0.94974-0.92191-0.94981zm6.0833 0.031006c-0.32705-0.00124-0.64661 0.025437-0.9803 0.1788 0.0097363 0.00886 0.019244 0.017948 0.029972 0.034623 0.063343 0.098415 0.11802 0.23181 0.14573 0.35605 0.022001 0.09866 0.025028 0.13492 0.027905 0.34365l0.0025839 0.19534 0.014986 0.0031c0.18261 0.037416 0.27916 0.074478 0.39636 0.15296 0.12484 0.083602 0.22869 0.21042 0.2558 0.31109 0.0025487 0.00946 0.0077018 0.019096 0.010852 0.021704 0.010924 0.00904 0.087037 0.01436 0.13229 0.0093 0.023159-0.0026 0.044909-0.00668 0.048059-0.0093 0.0031503-0.00262 0.0072711-0.012262 0.0098185-0.021704 0.027108-0.10068 0.13199-0.22749 0.25683-0.31109 0.1172-0.078484 0.21323-0.11555 0.39584-0.15296l0.014986-0.0031 0.0031006-0.19534c0.0028766-0.20873 0.0059034-0.24498 0.027905-0.34365 0.027708-0.12424 0.081351-0.25763 0.14469-0.35605 0.01198-0.018611 0.022696-0.029249 0.03359-0.03824-0.33028-0.14953-0.64703-0.17641-0.971-0.17518zm1.1043 0.24288c-0.00126 0.018858-0.008789 0.040945-0.032039 0.079582-0.056595 0.094043-0.099106 0.20745-0.12196 0.32608-0.008054 0.041809-0.009172 0.067418-0.010852 0.25115l-0.002067 0.19947c0.31085 0.35244 0.56547 1.457 0.65009 2.8153 0.009938 0.31451 0.51125 0.33768 0.54157-0.020671-0.082272-1.7444-0.42905-3.2455-0.76119-3.4809-0.089297-0.068238-0.17687-0.12212-0.26355-0.17002zm-2.2221 0.00723c-0.082351 0.046356-0.16539 0.098037-0.25011 0.16278-0.33214 0.2354-0.67892 1.7365-0.76119 3.4809 0.030318 0.35835 0.53163 0.33518 0.54157 0.02067 0.08275-1.3283 0.32846-2.4089 0.62994-2.7859l0.0072347-0.024288-0.0010335-0.20464c-0.0019987-0.21903-0.0041245-0.23762-0.029456-0.33176-0.021822-0.081097-0.065091-0.18197-0.11265-0.262-0.014087-0.0237-0.021703-0.040762-0.024288-0.05581zm-4.9604 0.097668c0.31236 0 0.56327 0.25143 0.56327 0.56379v0.93638l-0.0046509 0.14469 0.35192 0.22944 0.18862 0.12247c0.01993 0.012968 0.038263 0.027411 0.056327 0.041858l0.2868 0.18655c0.26548 0.17281 0.36799 0.48248 0.22996 0.69453-0.13803 0.21208-0.46264 0.2436-0.72812 0.070797l-0.073897-0.048059-0.78962-0.51418c-0.019737-0.012855-0.038434-0.02649-0.056327-0.040824l-0.28732-0.18707c-0.31604-0.22438-0.28919-0.41775-0.30127-0.70022v-0.93638c0-0.31236 0.25195-0.56379 0.56431-0.56379zm5.9407 1.419-0.03359 0.032556c-0.014848 0.014355-0.035636 0.023604-0.05271 0.036174-0.0006432 0.0004763-0.00090488 0.00108-0.0015502 0.00155-0.00067231 0.0004369-0.0014203 0.0005662-0.0020672 0.00103-0.070865 0.051419-0.15466 0.092113-0.24908 0.10645-0.037322 0.00567-0.12533 0.00726-0.15865 0.0031-0.082221-0.010264-0.15657-0.040641-0.22014-0.082682 0.15575 0.61159-0.18967 1.0049-0.32039 1.4919 0.72631 0.47046 1.4929 0.5637 2.3291 0.00103-0.25798-0.53948-0.45896-1.0641-0.29869-1.4997-0.00040137 0.0002834-0.001149 0.0002347-0.00155 0.0005168-0.03517 0.024667-0.07277 0.046616-0.11472 0.060978-0.058693 0.020094-0.097254 0.02709-0.16381 0.029456-0.12125 0.00433-0.23586-0.025521-0.3297-0.083199-0.031278-0.019226-0.060247-0.041327-0.0863-0.066663l-0.033073-0.032556-0.043408 0.00723c-0.055218 0.00875-0.121 0.00875-0.17622 0zm-3.8297 0.27233 0.049093 0.041341c0.026117-0.023473 0.054646-0.035113 0.085783-0.034623 0.030986 0.0003633 0.061611 0.013095 0.090951 0.037724l-0.054777 0.065112c-0.018055-0.015156-0.034934-0.022809-0.050126-0.022738-0.015216-0.0002058-0.028274 0.00612-0.038757 0.018603-0.010357 0.012338-0.014824 0.0245-0.013436 0.037207 0.0012375 0.012581 0.008333 0.024266 0.020671 0.034623 0.011435 0.0096 0.023178 0.013729 0.035657 0.012919 0.012478-0.0008101 0.029941-0.00676 0.052193-0.018603 0.022378-0.011992 0.041683-0.021234 0.057878-0.027389 0.016045-0.00628 0.03169-0.010215 0.046509-0.011369 0.014668-0.00128 0.028973 0.000663 0.042891 0.00517 0.013768 0.00438 0.027133 0.012277 0.040824 0.023771 0.025578 0.021472 0.039814 0.046628 0.042375 0.075964 0.0025604 0.029337-0.0062379 0.059532-0.026872 0.089917l0.044442 0.037724-0.029972 0.035657-0.044442-0.037207c-0.029202 0.028065-0.060239 0.042459-0.093018 0.043925-0.032803 0.00119-0.064758-0.010798-0.095601-0.03669l0.054777-0.065629c0.017905 0.01503 0.034974 0.022563 0.051676 0.022221 0.016678-0.0006189 0.032087-0.00886 0.045475-0.024805 0.011115-0.01324 0.016499-0.026824 0.01602-0.040308-0.00062997-0.01361-0.0072341-0.025162-0.01912-0.03514-0.012338-0.010357-0.024692-0.015328-0.037724-0.014469-0.013056 0.0005818-0.029673 0.00687-0.049609 0.018087-0.019936 0.011221-0.037747 0.020038-0.053743 0.026872-0.016147 0.00671-0.032002 0.010911-0.047026 0.012919-0.015047 0.00173-0.029717 0.0005382-0.044442-0.00362-0.014598-0.0043-0.029697-0.012427-0.044442-0.024805-0.025427-0.021345-0.039249-0.047108-0.041858-0.076998-0.0026085-0.02989 0.005938-0.059161 0.025838-0.088367l-0.048059-0.040824zm0.55139 0.57619 0.012919 0.062529c0.035056-0.00205 0.06434 0.00706 0.088367 0.026872 0.023988 0.019618 0.039983 0.04823 0.047542 0.085783l-0.083716 0.016536c-0.0046521-0.02311-0.012888-0.039152-0.024805-0.048576-0.011763-0.00966-0.025874-0.013035-0.041858-0.00982-0.015792 0.00318-0.026746 0.010392-0.03359 0.021187-0.0068828 0.010603-0.0088634 0.023483-0.0056844 0.039274 0.0029463 0.014636 0.0093802 0.02592 0.019637 0.033073 0.010257 0.00715 0.027932 0.012939 0.05271 0.01757 0.024971 0.00459 0.045516 0.00969 0.062012 0.014986 0.016457 0.0051 0.031108 0.011809 0.043408 0.020154 0.012261 0.00815 0.022422 0.018286 0.030489 0.030489 0.0080285 0.01201 0.013525 0.0264 0.017053 0.043925 0.0065905 0.032739 0.0018349 0.061777-0.014469 0.0863s-0.041914 0.04184-0.076998 0.05271l0.011369 0.057878-0.045475 0.00878-0.011886-0.056844c-0.040332 0.00371-0.073722-0.00446-0.10025-0.023771-0.026376-0.019538-0.043212-0.048888-0.05116-0.088367l0.083199-0.016536c0.0046134 0.022917 0.013606 0.039455 0.026872 0.049609 0.013419 0.00992 0.030229 0.012899 0.050643 0.00878 0.016947-0.00341 0.029685-0.010868 0.037724-0.021704 0.0079995-0.011028 0.010297-0.02406 0.0072347-0.039274-0.003179-0.015792-0.009951-0.027163-0.020671-0.034623-0.010566-0.00769-0.027029-0.013383-0.049609-0.017053-0.022581-0.00367-0.042663-0.00828-0.059428-0.012919-0.016803-0.00483-0.031449-0.010799-0.044442-0.018603-0.012839-0.00804-0.023641-0.018573-0.032556-0.031006-0.0087225-0.012471-0.015321-0.028153-0.01912-0.047025-0.0065518-0.032546-0.0011089-0.061314 0.015503-0.0863s0.041673-0.042304 0.075448-0.05271l-0.012402-0.062012zm2.2056 0.89504c-0.14749 0.94413 0.36922 0.21311 0.21394 4.5651 0.010217 0.42127 0.92924 0.3517 0.92449-0.021704l-0.0067179-3.791c-0.266-0.34-0.58-0.63-1.1312-0.77zm2.3937 0c-0.55121 0.13911-0.86574 0.43014-1.1322 0.75241l-0.0062012 3.791c-0.0047487 0.37341 0.91376 0.44297 0.92397 0.021704-0.15528-4.352 0.36195-3.621 0.21446-4.5651z" fill-rule="evenodd" fill-opacity=".97494"/>
 </g>
</svg>
