<svg width="48" height="48" viewBox="0 0 48 48" fill="none" xmlns="http://www.w3.org/2000/svg">
<path fill-rule="evenodd" clip-rule="evenodd" d="M12.0506 4.08203C11.1504 4.08216 10.2871 4.43982 9.65049 5.07639C9.01391 5.71297 8.65623 6.5763 8.6561 7.47655C8.65623 8.3768 9.01391 9.24013 9.65049 9.8767C10.2871 10.5133 11.1504 10.8709 12.0506 10.8711C12.9509 10.8709 13.8142 10.5133 14.4508 9.8767C15.0874 9.24013 15.4451 8.3768 15.4452 7.47655C15.4451 6.5763 15.0874 5.71297 14.4508 5.07639C13.8142 4.43982 12.9509 4.08216 12.0506 4.08203ZM34.7497 4.18157C34.3038 4.18164 33.8623 4.26955 33.4503 4.44028C33.0384 4.61102 32.6641 4.86134 32.3489 5.17674C32.0337 5.49215 31.7837 5.86645 31.6132 6.27849C31.4427 6.69053 31.355 7.13213 31.3552 7.57805C31.3553 8.4783 31.713 9.34163 32.3496 9.9782C32.9861 10.6148 33.8495 10.9725 34.7497 10.9727C35.65 10.9725 36.5133 10.6148 37.1499 9.9782C37.7865 9.34163 38.1442 8.4783 38.1443 7.57805C38.1445 7.13213 38.0568 6.69053 37.8863 6.27849C37.7158 5.86645 37.4658 5.49215 37.1506 5.17674C36.8354 4.86134 36.4611 4.61102 36.0491 4.44028C35.6372 4.26955 35.1957 4.18164 34.7497 4.18157ZM11.7577 12.3711C9.8061 12.3713 8.65255 14.0717 8.664 16.0234L8.67963 18.6113C9.06813 26.5075 7.97728 28.3946 7.99213 30.0508C7.49006 32.1502 7.83591 34.9707 7.36715 37.0782L5.31052 40.9317C4.67881 42.2256 3.9754 43.2002 5.2695 43.8321C6.56358 44.464 8.1122 43.9308 8.7441 42.6368L10.6484 38.7345C10.7381 38.5504 10.8018 38.3606 10.8457 38.17C10.9211 38.0062 10.982 37.8337 11.0234 37.6505L11.8476 30.8771L13.4589 36.8595L12.8593 40.9531C12.6505 42.378 12.704 43.8145 14.1289 44.0234C15.2793 44.0234 15.7492 43.8216 16.1035 42.3241C16.5905 39.2715 17.2032 36.8076 16.7031 35.3751L15.5898 30.4572C14.8842 28.9076 14.8838 26.6776 15.0588 25.4303L15.4553 25.6902C15.5326 25.7405 15.6107 25.7834 15.6916 25.823C15.965 25.9209 16.2407 26.0149 16.547 26.0359C17.1759 26.0616 17.7868 25.8005 18.2248 25.3133C19.9079 24.5045 21.509 24.5751 23.1155 24.5925L22.4924 21.8386L19.5764 23.4031C20.3373 22.5062 21.2528 21.8583 22.1545 21.1862L19.9885 19.3737L18.4573 22.7488C18.2951 22.4872 18.0885 22.2485 17.8128 22.069L15.2268 20.3855C15.2274 20.3283 15.2288 20.2684 15.2288 20.2117L15.2424 15.9461C15.2515 13.9944 13.7096 12.3565 11.758 12.3562L11.7577 12.3711ZM34.7497 12.4883C33.5136 12.4836 32.3059 12.5844 31.0447 13.1641C31.0815 13.1975 31.1174 13.232 31.1579 13.295C31.3974 13.6669 31.604 14.1711 31.7087 14.6407C31.7919 15.0136 31.8033 15.1505 31.8142 15.9394L31.824 16.6777L31.8806 16.6895C32.5708 16.8309 32.9357 16.971 33.3787 17.2676C33.8505 17.5836 34.243 18.0629 34.3455 18.4434C34.3551 18.4791 34.3746 18.5155 34.3865 18.5254C34.4278 18.5596 34.7154 18.5797 34.8865 18.5606C34.974 18.5507 35.0562 18.5353 35.0681 18.5254C35.08 18.5155 35.0956 18.4791 35.1052 18.4434C35.2077 18.0629 35.6041 17.5836 36.0759 17.2676C36.5189 16.971 36.8818 16.8309 37.572 16.6895L37.6287 16.6777L37.6404 15.9394C37.6512 15.1505 37.6627 15.0136 37.7458 14.6407C37.8506 14.1711 38.0533 13.667 38.2927 13.295C38.338 13.2246 38.3785 13.1844 38.4197 13.1505C37.1714 12.5853 35.9742 12.4836 34.7497 12.4883ZM38.9235 13.4063C38.9187 13.4776 38.8903 13.5611 38.8024 13.7071C38.5885 14.0625 38.4278 14.4912 38.3414 14.9395C38.311 15.0975 38.3068 15.1943 38.3004 15.8887L38.2926 16.6425C39.4675 17.9746 40.4298 22.1493 40.7496 27.2831C40.7872 28.4718 42.6819 28.5594 42.7965 27.205C42.4856 20.612 41.1749 14.9386 39.9196 14.0489C39.5821 13.7909 39.2511 13.5873 38.9235 13.4063ZM30.525 13.4336C30.2137 13.6088 29.8999 13.8042 29.5797 14.0489C28.3244 14.9386 27.0137 20.612 26.7027 27.205C26.8173 28.5594 28.7121 28.4718 28.7496 27.2831C29.0624 22.2627 29.991 18.1786 31.1305 16.7537L31.1578 16.6619L31.1539 15.8884C31.1464 15.0606 31.1383 14.9904 31.0426 14.6346C30.9601 14.328 30.7966 13.9468 30.6168 13.6443C30.5636 13.5548 30.5348 13.4903 30.525 13.4334V13.4336ZM11.777 13.8027C12.9576 13.8027 13.9059 14.753 13.9059 15.9335V19.4727L13.8883 20.0195L15.2184 20.8867L15.9313 21.3495C16.0066 21.3986 16.0759 21.4532 16.1442 21.5078L17.2282 22.2129C18.2316 22.866 18.619 24.0364 18.0973 24.8378C17.5756 25.6394 16.3488 25.7585 15.3454 25.1054L15.0661 24.9238L12.0817 22.9805C12.0071 22.9319 11.9364 22.8803 11.8688 22.8261L10.7829 22.1191C9.58837 21.2711 9.68985 20.5402 9.64419 19.4726V15.9335C9.64419 14.753 10.5964 13.8027 11.777 13.8027ZM34.2301 19.1659L34.1031 19.289C34.047 19.3432 33.9684 19.3781 33.9039 19.4256C33.9014 19.4274 33.9005 19.4297 33.898 19.4315C33.8955 19.4332 33.8927 19.4337 33.8902 19.4354C33.6224 19.6298 33.3057 19.7836 32.9488 19.8378C32.8077 19.8592 32.4751 19.8651 32.3492 19.8494C32.0384 19.8106 31.7574 19.6958 31.5172 19.5369C32.1058 21.8485 30.8003 23.335 30.3062 25.1757C33.0513 26.9538 35.9487 27.3061 39.1091 25.1795C38.1341 23.1405 37.3745 21.1577 37.9802 19.5113C37.9787 19.5124 37.9759 19.5122 37.9744 19.5133C37.8414 19.6065 37.6993 19.6895 37.5408 19.7437C37.3189 19.8197 37.1732 19.8461 36.9217 19.8551C36.4634 19.8714 36.0302 19.7586 35.6755 19.5406C35.5573 19.468 35.4478 19.3845 35.3494 19.2887L35.2244 19.1657L35.0603 19.193C34.8516 19.2261 34.603 19.2261 34.3943 19.193L34.2301 19.1659ZM19.7556 20.1952L19.9411 20.3514C20.0399 20.2627 20.1477 20.2187 20.2654 20.2206C20.3825 20.2219 20.4982 20.2701 20.6091 20.3631L20.4021 20.6093C20.3338 20.552 20.27 20.523 20.2126 20.5232C20.1551 20.5225 20.1058 20.5464 20.0661 20.5936C20.027 20.6402 20.0101 20.6862 20.0154 20.7342C20.02 20.7817 20.0469 20.826 20.0935 20.8651C20.1367 20.9014 20.1811 20.917 20.2283 20.9139C20.2754 20.9108 20.3414 20.8883 20.4255 20.8435C20.5101 20.7982 20.5831 20.7633 20.6443 20.7401C20.7049 20.7163 20.764 20.7014 20.8201 20.6971C20.8755 20.6922 20.9296 20.6996 20.9822 20.7167C21.0342 20.7332 21.0847 20.7631 21.1365 20.8065C21.2331 20.8877 21.2869 20.9827 21.2966 21.0936C21.3063 21.2045 21.273 21.3186 21.1951 21.4334L21.363 21.5761L21.2497 21.7108L21.0818 21.5702C20.9714 21.6763 20.8541 21.7306 20.7302 21.7362C20.6062 21.7407 20.4855 21.6954 20.3689 21.5975L20.5759 21.3494C20.6436 21.4062 20.7081 21.4347 20.7712 21.4334C20.8343 21.4311 20.8925 21.4 20.9431 21.3397C20.9851 21.2897 21.0055 21.2383 21.0036 21.1874C21.0013 21.1359 20.9763 21.0922 20.9314 21.0545C20.8848 21.0154 20.8381 20.9966 20.7888 20.9998C20.7395 21.002 20.6767 21.0258 20.6013 21.0682C20.526 21.1106 20.4586 21.1439 20.3982 21.1697C20.3372 21.1951 20.2772 21.211 20.2204 21.2186C20.1636 21.2252 20.1081 21.2206 20.0525 21.2049C19.9973 21.1887 19.9402 21.1579 19.8845 21.1111C19.7884 21.0305 19.7362 20.9331 19.7263 20.8201C19.7164 20.7072 19.7487 20.5966 19.824 20.4862L19.6423 20.3319L19.7556 20.1952ZM21.8396 22.3729L21.8884 22.6092C22.0209 22.6014 22.1316 22.6359 22.2224 22.7108C22.3131 22.785 22.3735 22.8931 22.4021 23.035L22.0857 23.0975C22.0681 23.0102 22.037 22.9495 21.9919 22.9139C21.9475 22.8774 21.8941 22.8646 21.8337 22.8768C21.774 22.8888 21.7326 22.916 21.7068 22.9568C21.6808 22.9969 21.6733 23.0456 21.6853 23.1053C21.6964 23.1606 21.7207 23.2033 21.7595 23.2303C21.7983 23.2573 21.8651 23.2792 21.9587 23.2967C22.0531 23.3141 22.1308 23.3334 22.1931 23.3534C22.2553 23.3727 22.3107 23.398 22.3572 23.4295C22.4035 23.4603 22.4419 23.4986 22.4724 23.5447C22.5027 23.5901 22.5235 23.6446 22.5368 23.7108C22.5618 23.8346 22.5438 23.9442 22.4822 24.0369C22.4205 24.1296 22.3237 24.1951 22.1911 24.2362L22.2341 24.4549L22.0622 24.4881L22.0173 24.2732C21.8649 24.2873 21.7387 24.2564 21.6384 24.1834C21.5387 24.1095 21.4751 23.9987 21.4451 23.8495L21.7595 23.7869C21.7769 23.8736 21.8109 23.936 21.8611 23.9744C21.9118 24.0119 21.9753 24.0232 22.0525 24.0076C22.1165 23.9947 22.1647 23.9665 22.1951 23.9256C22.2253 23.8839 22.234 23.8346 22.2224 23.7771C22.2104 23.7175 22.1848 23.6744 22.1443 23.6462C22.1043 23.6172 22.0421 23.5957 21.9568 23.5819C21.8714 23.568 21.7955 23.5505 21.7322 23.533C21.6687 23.5147 21.6133 23.4922 21.5642 23.4627C21.5157 23.4323 21.4748 23.3925 21.4412 23.3455C21.4082 23.2984 21.3832 23.2391 21.3689 23.1678C21.3441 23.0448 21.3647 22.936 21.4275 22.8416C21.4903 22.7472 21.585 22.6817 21.7126 22.6424L21.6658 22.408L21.8396 22.3729ZM30.1757 25.7557C29.6183 29.3241 31.5712 26.5612 30.9843 43.0096C31.0229 44.6018 34.4964 44.3389 34.4784 42.9276L34.4531 28.5994C33.4477 27.3143 32.2609 26.2183 30.1777 25.6892L30.1757 25.7557ZM39.2228 25.7557C37.1395 26.2815 35.9507 27.3815 34.9436 28.5995L34.9202 42.9276C34.9022 44.3389 38.3737 44.6019 38.4123 43.0097C37.8254 26.5612 39.7803 29.324 39.2229 25.7557H39.2228Z" fill="#333333"/>
</svg>
