<?xml version="1.0" encoding="UTF-8" standalone="no"?>
<!-- Created with Inkscape (http://www.inkscape.org/) -->

<svg
   xmlns:dc="http://purl.org/dc/elements/1.1/"
   xmlns:cc="http://creativecommons.org/ns#"
   xmlns:rdf="http://www.w3.org/1999/02/22-rdf-syntax-ns#"
   xmlns:svg="http://www.w3.org/2000/svg"
   xmlns="http://www.w3.org/2000/svg"
   xmlns:sodipodi="http://sodipodi.sourceforge.net/DTD/sodipodi-0.dtd"
   xmlns:inkscape="http://www.inkscape.org/namespaces/inkscape"
   id="svg8"
   height="48"
   width="48"
   version="1.1"
   viewBox="0 0 12.7 12.7"
   sodipodi:docname="female_and_male_outline.svg"
   inkscape:version="0.92.2 (5c3e80d, 2017-08-06)">
  <defs
     id="defs9" />
  <sodipodi:namedview
     pagecolor="#ffffff"
     bordercolor="#666666"
     borderopacity="1"
     objecttolerance="10"
     gridtolerance="10"
     guidetolerance="10"
     inkscape:pageopacity="0"
     inkscape:pageshadow="2"
     inkscape:window-width="872"
     inkscape:window-height="480"
     id="namedview7"
     showgrid="false"
     inkscape:zoom="4.916666667"
     inkscape:cx="24"
     inkscape:cy="24"
     inkscape:window-x="0"
     inkscape:window-y="0"
     inkscape:window-maximized="0"
     inkscape:current-layer="svg8" />
  <title
     id="title4753">UIO-icon</title>
  <metadata
     id="metadata5">
    <rdf:RDF>
      <cc:Work
         rdf:about="">
        <dc:format>image/svg+xml</dc:format>
        <dc:type
           rdf:resource="http://purl.org/dc/dcmitype/StillImage" />
        <dc:title>UIO-icon</dc:title>
        <dc:creator>
          <cc:Agent>
            <dc:title>Joaquín Urbano</dc:title>
          </cc:Agent>
        </dc:creator>
        <dc:rights>
          <cc:Agent>
            <dc:title>GPL</dc:title>
          </cc:Agent>
        </dc:rights>
      </cc:Work>
    </rdf:RDF>
  </metadata>
  <g
     id="layer1"
     transform="matrix(-1,0,0,1,12.80950569,-284.3)">
    <path
       id="rect4902"
       d="m 13.689,8.0977 a 3.5,3.5 0 0 0 -3.5,3.5003 3.5,3.5 0 0 0 3.5,3.5 3.5,3.5 0 0 0 3.5,-3.5 3.5,3.5 0 0 0 -3.5,-3.5003 z m 21.038,0 c -1.933,0 -3.5,1.567 -3.5,3.5003 0,1.933 1.567,3.5 3.5,3.5 1.933,0 3.5,-1.567 3.5,-3.5 0,-1.9333 -1.567,-3.5003 -3.5,-3.5003 z M 13.689,8.6504 a 2.9476,2.9476 0 0 1 2.948,2.9476 2.9476,2.9476 0 0 1 -2.948,2.947 2.9476,2.9476 0 0 1 -2.949,-2.947 2.9476,2.9476 0 0 1 2.949,-2.9476 z m 21.038,0 c 1.627,10e-5 2.947,1.3196 2.947,2.9476 0,1.627 -1.32,2.947 -2.947,2.947 -1.629,10e-4 -2.949,-1.319 -2.95,-2.947 10e-4,-1.6288 1.321,-2.9485 2.95,-2.9476 z m -21.385,7.3086 -3.188,0.002 v 0.008 C 9.5816,15.98 9.035,16.296 8.7656,16.848 l -3.8691,7.925 c -0.3829,0.785 -0.058,1.725 0.7265,2.108 0.7846,0.383 1.7226,0.06 2.1055,-0.725 l 2.4255,-4.97 v 5.576 1.185 1.147 9.267 c 0,0.873 0.701,1.577 1.575,1.577 0.873,0 1.576,-0.704 1.576,-1.577 v -9.267 h 0.037 0.687 0.035 v 9.267 c 0,0.873 0.704,1.577 1.577,1.577 0.873,0 1.576,-0.704 1.576,-1.577 v -9.267 -1.147 -1.185 -5.588 l 2.431,4.982 c 0.383,0.785 1.323,1.108 2.108,0.725 0.784,-0.383 1.107,-1.323 0.724,-2.108 l -3.869,-7.925 c -0.27,-0.555 -0.819,-0.874 -1.394,-0.881 v -0.008 h -3.188 z m 21.037,0 -3.188,0.002 v 0.008 c -0.572,0.011 -1.119,0.327 -1.388,0.879 l -3.869,7.925 c -0.383,0.785 -0.058,1.725 0.726,2.108 0.785,0.383 1.723,0.06 2.106,-0.725 l 2.425,-4.97 c 0.06,3.386 -0.171,6.104 -2.216,10.064 h 2.216 v 7.111 c 0,0.873 0.702,1.577 1.575,1.577 0.873,0 1.576,-0.704 1.576,-1.577 V 31.25 h 0.76 v 7.111 c 0,0.873 0.703,1.577 1.576,1.577 0.873,0 1.576,-0.704 1.576,-1.577 V 31.25 h 2.221 C 38.644,27.431 38.254,24.937 38.254,21.174 l 2.432,4.982 c 0.382,0.785 1.322,1.108 2.107,0.725 0.785,-0.383 1.107,-1.323 0.725,-2.108 l -3.87,-7.925 c -0.27,-0.555 -0.819,-0.874 -1.394,-0.881 V 15.959 H 35.066 Z M 17.16,16.535 v 0.012 c 0.376,0.01 0.734,0.212 0.912,0.574 l 0.828,1.678 c 0.01,0.018 0.027,0.026 0.036,0.045 l 3.058,6.197 c 0.257,0.519 0.045,1.144 -0.474,1.4 -0.52,0.257 -1.144,0.045 -1.401,-0.474 l -0.83,-1.68 C 19.28,24.272 19.264,24.261 19.256,24.242 l -2.57,-5.207 v 2.326 2.368 3.687 3.223 0.748 0.855 2.084 3.971 c 0,0.289 -0.116,0.551 -0.305,0.74 -0.189,0.188 -0.452,0.304 -0.74,0.305 -0.29,0 -0.552,-0.116 -0.741,-0.305 -0.188,-0.189 -0.306,-0.451 -0.306,-0.74 v -3.971 -2.084 -0.855 -0.748 -2.09 h -1.819 v 2.09 0.748 0.855 2.084 3.971 c 0,0.579 -0.467,1.045 -1.046,1.045 -0.58,0 -1.045,-0.466 -1.045,-1.045 V 34.326 32.242 31.387 30.639 28.271 27.416 25.332 24.584 23.729 21.361 18.998 L 8.0957,24.24 c -0.0086,0.019 -0.0238,0.03 -0.0332,0.045 l -0.8301,1.68 C 6.976,26.484 6.3514,26.696 5.832,26.439 5.3126,26.183 5.101,25.558 5.3574,25.039 L 8.416,18.842 c 0.0088,-0.019 0.0255,-0.026 0.0352,-0.045 l 0.8281,-1.678 c 0.1923,-0.39 0.5912,-0.605 0.9977,-0.582 z m 21.037,0 v 0.012 c 0.376,0.01 0.734,0.212 0.912,0.574 l 0.829,1.678 c 0.009,0.018 0.026,0.026 0.035,0.045 l 3.058,6.197 c 0.257,0.519 0.045,1.144 -0.474,1.4 -0.52,0.257 -1.144,0.045 -1.401,-0.474 l -0.83,-1.68 c -0.009,-0.015 -0.024,-0.026 -0.033,-0.045 l -2.57,-5.207 c 0.218,3.981 -0.614,6.715 1.863,11.676 l -1.863,-0.016 v 0.692 0.855 2.084 3.971 c 0,0.289 -0.116,0.551 -0.305,0.74 -0.189,0.188 -0.451,0.304 -0.74,0.305 -0.29,0 -0.552,-0.116 -0.74,-0.305 -0.189,-0.189 -0.307,-0.451 -0.307,-0.74 v -3.971 -2.084 -0.855 -0.692 h -1.819 v 0.692 0.855 2.084 3.971 c 0,0.579 -0.467,1.045 -1.046,1.045 -0.58,0 -1.045,-0.466 -1.045,-1.045 V 34.326 32.242 31.387 30.695 H 29.844 C 32.25,25.77 31.458,23.01 31.721,18.998 l -2.588,5.242 c -0.009,0.019 -0.024,0.03 -0.033,0.045 l -0.83,1.68 c -0.257,0.519 -0.881,0.731 -1.401,0.474 -0.519,-0.256 -0.731,-0.881 -0.474,-1.4 l 3.058,-6.197 c 0.009,-0.019 0.026,-0.026 0.035,-0.045 l 0.828,-1.678 c 0.193,-0.389 0.592,-0.605 0.998,-0.582 z"
       transform="matrix(0.26458,0,0,0.26458,0,284.3)"
       inkscape:connector-curvature="0"
       style="fill:#333333;fill-rule:evenodd" />
  </g>
</svg>
