<svg width="48" height="48" viewBox="0 0 48 48" fill="none" xmlns="http://www.w3.org/2000/svg">
<path fill-rule="evenodd" clip-rule="evenodd" d="M33.5002 13C35.4332 13 37.0002 11.433 37.0002 9.5C37.0002 7.567 35.4332 6 33.5002 6C31.5672 6 30.0002 7.567 30.0002 9.5C30.0002 11.433 31.5672 13 33.5002 13ZM38.6488 20C38.6986 20.3524 38.7426 20.7287 38.7809 21.1216C38.9995 23.3666 39.0002 25.8009 39.0002 26.4998C39.0002 27.3282 39.6718 27.9998 40.5002 27.9998C41.3287 27.9998 42.0002 27.3282 42.0002 26.4998V26.493C42.0002 25.7857 42.0003 23.2288 41.7668 20.8308C41.651 19.6418 41.47 18.4015 41.1698 17.4252C41.0225 16.9462 40.815 16.4227 40.4992 15.9892C40.1827 15.5547 39.5902 15 38.6889 15H28.3116C27.4102 15 26.8178 15.5547 26.5013 15.9892C26.1855 16.4227 25.9779 16.9462 25.8307 17.4252C25.5305 18.4015 25.3495 19.6418 25.2337 20.8308C25.0002 23.2288 25.0002 25.7857 25.0002 26.493V26.4998C25.0002 27.3282 25.6718 27.9998 26.5002 27.9998C27.3287 27.9998 28.0002 27.3282 28.0002 26.4998C28.0002 25.8009 28.001 23.3666 28.2196 21.1216C28.2579 20.7287 28.3018 20.3524 28.3517 20H29.0002L29.0002 40.4999C29.0002 41.305 29.6359 41.9666 30.4404 41.9987C31.2449 42.0308 31.9313 41.4221 31.9955 40.6195L32.845 30H34.1555L35.005 40.6196C35.0692 41.4222 35.7556 42.0309 36.5601 41.9988C37.3646 41.9667 38.0002 41.3051 38.0002 40.5V20H38.6488Z" fill="#333333"/>
<path fill-rule="evenodd" clip-rule="evenodd" d="M18.0002 9.5C18.0002 11.433 16.4332 13 14.5002 13C12.5672 13 11.0002 11.433 11.0002 9.5C11.0002 7.567 12.5672 6 14.5002 6C16.4332 6 18.0002 7.567 18.0002 9.5ZM18.8668 15.046C18.7469 15.0158 18.6238 15.0005 18.5002 15.0005H13.0005C12.9871 15.0005 12.9736 15.0007 12.9603 15.001L12.4379 15.0009C11.6262 15.0008 10.7496 15.0008 10.4981 15.0012C10.3752 15.0014 10.2529 15.0166 10.1337 15.0467C9.02 15.3273 8.27179 16.0056 7.80088 16.9324C7.38866 17.7436 7.18768 18.7524 7.02064 19.7546L6.02064 25.7546C5.88445 26.5718 6.43648 27.3446 7.25364 27.4808C8.07079 27.617 8.84363 27.065 8.97983 26.2478L9.97983 20.2478C10.0727 19.6907 10.1582 19.2663 10.2451 18.9388L10.5002 22.0002C10.5001 23.8697 8.80628 32.4085 8.20716 35.3703C8.09448 35.9273 8.46827 36.4634 9.03036 36.5471C13.152 37.1615 15.8487 37.1418 19.9691 36.5426C20.5316 36.4608 20.9084 35.9272 20.7981 35.3696C20.2033 32.3609 18.5002 23.6064 18.5002 22L18.7554 18.9382C18.8423 19.2657 18.9278 19.6901 19.0207 20.2471L20.0207 26.2471C20.1568 27.0642 20.9297 27.6163 21.7468 27.4801C22.564 27.3439 23.116 26.5711 22.9798 25.7539L21.9798 19.7539C21.8128 18.7517 21.6118 17.7429 21.1996 16.9317C20.7287 16.0049 19.9805 15.3266 18.8668 15.046ZM11.008 41.1241L10.6314 38.1115C11.6907 38.2418 12.6984 38.3256 13.6901 38.3637L12.9704 41.2426C12.8536 41.7097 12.4206 42.0273 11.94 41.9982C11.4594 41.9692 11.0677 41.6018 11.008 41.1241ZM16.0301 41.2421L15.3159 38.3853C16.3132 38.3733 17.3144 38.3149 18.3566 38.2111L17.9925 41.1236C17.9328 41.6014 17.5411 41.9687 17.0605 41.9977C16.5799 42.0268 16.1469 41.7092 16.0301 41.2421Z" fill="#333333"/>
</svg>
