<svg width="48" height="48" viewBox="0 0 48 48" fill="none" xmlns="http://www.w3.org/2000/svg">
<path fill-rule="evenodd" clip-rule="evenodd" d="M47.9995 0V47.9994H0.00012207V0H47.9995ZM34.3107 8.0976C32.3777 8.0976 30.8107 9.66458 30.8107 11.5976C30.8107 13.5305 32.3777 15.0975 34.3107 15.0975C36.2437 15.0975 37.8106 13.5305 37.8106 11.5976C37.8106 9.66458 36.2437 8.0976 34.3107 8.0976ZM13.2739 8.0976C11.341 8.0976 9.774 9.66458 9.774 11.5976C9.774 13.5305 11.341 15.0975 13.2739 15.0975C15.2069 15.0975 16.7739 13.5305 16.7739 11.5976C16.7739 9.66458 15.2069 8.0976 13.2739 8.0976ZM34.6577 15.9588H30.7827V15.9666C30.2074 15.9741 29.6587 16.2931 29.3882 16.8474L25.5192 24.7732C25.1363 25.5577 25.4592 26.4976 26.2438 26.8805C27.0284 27.2634 27.9683 26.9405 28.3512 26.1559L30.7827 21.1736V38.3614C30.7827 39.2344 31.4859 39.9375 32.3589 39.9375C33.2319 39.9375 33.9351 39.2344 33.9351 38.3614V29.0925H34.6949V38.36C34.6949 39.233 35.398 39.9361 36.271 39.9361C37.1441 39.9361 37.8452 39.233 37.8452 38.36V21.1842L40.2717 26.1541C40.6546 26.9391 41.5926 27.2621 42.3772 26.8791C43.1617 26.4961 43.4865 25.5561 43.1037 24.7711L39.2346 16.8462C38.9652 16.2942 38.4186 15.9787 37.8459 15.9673V15.9595L34.6577 15.9588ZM13.6209 15.9588H9.746V15.9666C9.17067 15.9741 8.62202 16.2931 8.35152 16.8474L4.48246 24.7732C4.09958 25.5577 4.42248 26.4976 5.20707 26.8805C5.99165 27.2634 6.93155 26.9405 7.31444 26.1559L9.74601 21.1736C9.74601 24.937 9.35555 27.4307 7.52534 31.2495H9.74601V38.3607C9.74601 39.2337 10.4491 39.9369 11.3222 39.9369C12.1952 39.9369 12.8984 39.2337 12.8984 38.3607V31.2488H13.6581V38.36C13.6581 39.233 14.3612 39.9361 15.2343 39.9361C16.1073 39.9361 16.8085 39.233 16.8085 38.36V31.2491H19.0252C16.9802 27.2892 16.7493 24.5708 16.8085 21.1852L19.2342 26.1558C19.6171 26.9405 20.5551 27.2633 21.3397 26.8804C22.1243 26.4976 22.4492 25.5575 22.0663 24.773L18.1972 16.8474C17.9278 16.2954 17.3813 15.9798 16.8085 15.9684V15.9607L13.6209 15.9588Z" fill="#333333"/>
</svg>
