<svg width="48" height="48" viewBox="0 0 48 48" fill="none" xmlns="http://www.w3.org/2000/svg">
<path fill-rule="evenodd" clip-rule="evenodd" d="M34.7249 8.09766C35.1846 8.09766 35.6397 8.18819 36.0644 8.3641C36.489 8.54001 36.8749 8.79784 37.1999 9.12288C37.5249 9.44791 37.7827 9.83378 37.9586 10.2584C38.1344 10.6831 38.2249 11.1383 38.2249 11.5979C38.2249 12.5262 37.8562 13.4164 37.1998 14.0728C36.5434 14.7291 35.6532 15.0979 34.7249 15.0979C33.7967 15.0979 32.9065 14.7291 32.2501 14.0728C31.5937 13.4164 31.225 12.5262 31.225 11.5979C31.2249 11.1383 31.3154 10.6831 31.4913 10.2584C31.6672 9.83378 31.925 9.44791 32.25 9.12288C32.575 8.79784 32.9608 8.54001 33.3855 8.3641C33.8101 8.18819 34.2653 8.09766 34.7249 8.09766ZM13.6872 8.09766C15.6202 8.09766 17.1872 9.66464 17.1872 11.5979C17.1872 13.5309 15.6202 15.0979 13.6872 15.0979C11.7542 15.0979 10.1872 13.5309 10.1872 11.5979C10.1872 9.66464 11.7542 8.09766 13.6872 8.09766ZM35.0719 15.9589L38.2599 15.9609V15.9689C38.8323 15.9799 39.3789 16.2959 39.6483 16.8478L43.5173 24.7727C43.9002 25.5577 43.5753 26.4977 42.7908 26.8807C42.0062 27.2637 41.0683 26.9407 40.6854 26.1557L38.2599 21.1858V26.7617V27.9467V29.0937V38.3606C38.2599 39.2336 37.5589 39.9376 36.6849 39.9376C35.8119 39.9376 35.1089 39.2336 35.1089 38.3606V29.0937H35.0719H34.3849H34.3499V38.3606C34.3499 39.2336 33.646 39.9376 32.773 39.9376C31.9 39.9376 31.197 39.2336 31.197 38.3606V29.0937V27.9467V26.7617V21.1738L28.766 26.1557C28.383 26.9407 27.443 27.2637 26.658 26.8807C25.8741 26.4977 25.5511 25.5577 25.9341 24.7727L29.803 16.8478C30.073 16.2929 30.622 15.9739 31.197 15.9669V15.9589H34.3849H35.0719ZM14.0352 15.9589L17.2232 15.9609V15.9689C17.7952 15.9799 18.3421 16.2959 18.6111 16.8478L22.4801 24.7727C22.8631 25.5577 22.5381 26.4977 21.7541 26.8807C20.9691 27.2637 20.0311 26.9407 19.6481 26.1557L17.2232 21.1858C17.1632 24.5718 17.3942 27.2897 19.4391 31.2497H17.2232V38.3606C17.2232 39.2336 16.5212 39.9376 15.6482 39.9376C14.7752 39.9376 14.0722 39.2336 14.0722 38.3606V31.2497H13.3122V38.3606C13.3122 39.2336 12.6092 39.9376 11.7362 39.9376C10.8632 39.9376 10.1602 39.2336 10.1602 38.3606V31.2497H7.93932C9.7703 27.4307 10.1602 24.9367 10.1602 21.1738L7.72832 26.1557C7.34632 26.9407 6.40633 27.2637 5.62135 26.8807C4.83636 26.4977 4.51436 25.5577 4.89635 24.7727L8.76631 16.8478C9.03631 16.2929 9.58529 15.9739 10.1602 15.9669V15.9589H13.3482H14.0352Z" fill="#333333"/>
</svg>
