<?xml version="1.0" encoding="UTF-8" standalone="no"?>
<!-- Created with Inkscape (http://www.inkscape.org/) -->
<svg id="svg8" xmlns:rdf="http://www.w3.org/1999/02/22-rdf-syntax-ns#" xmlns="http://www.w3.org/2000/svg" xmlns:osb="http://www.openswatchbook.org/uri/2009/osb" height="48" width="48" version="1.1" xmlns:cc="http://creativecommons.org/ns#" viewBox="0 0 12.7 12.7" xmlns:dc="http://purl.org/dc/elements/1.1/">
 <title id="title4753">UIO-icon</title>
 <metadata id="metadata5">
  <rdf:RDF>
   <cc:Work rdf:about="">
    <dc:format>image/svg+xml</dc:format>
    <dc:type rdf:resource="http://purl.org/dc/dcmitype/StillImage"/>
    <dc:title>UIO-icon</dc:title>
    <dc:creator>
     <cc:Agent>
      <dc:title>Joaquín Urbano</dc:title>
     </cc:Agent>
    </dc:creator>
    <dc:rights>
     <cc:Agent>
      <dc:title>GPL</dc:title>
     </cc:Agent>
    </dc:rights>
   </cc:Work>
  </rdf:RDF>
 </metadata>
 <g id="layer1" transform="translate(0,-284.3)" fill="#333">
  <path id="path883" d="m37.035 3.9824c-1.6085 0.00026581-3.1656 0.56654-4.3984 1.5996l-0.001953-0.0019531-1.8245 1.5892c-6.342 6.8208-13.936 13.106-22.02 19.18l-1.3095 1.141c-2.2107 1.7582-3.5003 4.4274-3.5039 7.252-0.0002611 5.126 4.1552 9.2815 9.2812 9.2812 3.4361-0.002045 6.5899-1.9024 8.1973-4.9395l0.007813 0.005859c0.36477-0.52848 0.66026-0.8678 0.93296-1.3149 4.5291-7.4261 11.371-14.306 18.76-21.201 0.33796-0.31536 0.56792-0.77107 0.90848-1.0859l-0.005859-0.005859c1.1725-1.265 1.8246-2.9256 1.8262-4.6504-0.00026965-3.7828-3.0668-6.8493-6.8496-6.8496zm0 0.51172c3.5002 0.00020112 6.3377 2.8377 6.3379 6.3379 0.00087767 3.501-2.8369 6.3396-6.3379 6.3398-3.5018 0.00087796-6.3407-2.8381-6.3398-6.3398 0.00020106-3.501 2.8388-6.3388 6.3398-6.3379zm0 0.72461c-3.1005-0.00020297-5.6144 2.5128-5.6152 5.6133-0.00020291 3.1013 2.5139 5.6154 5.6152 5.6152 3.1005-0.00087566 5.6135-2.5147 5.6133-5.6152 0-3.0997-2.513-5.6124-5.613-5.6132zm0 0.50977c2.8186-0.000006423 5.1035 2.2849 5.1035 5.1035 0.00000642 2.8186-2.2849 5.1035-5.1035 5.1035-2.8186 0.00000642-5.1035-2.2849-5.1035-5.1035-0.00000642-2.8186 2.2849-5.1035 5.1035-5.1035zm-6.121 2.0293c-0.47974 0.95381-0.72988 2.0066-0.73047 3.0742-0.00080933 3.7843 3.0672 6.8524 6.8516 6.8516 1.0704-0.002701 2.1253-0.25622 3.0801-0.74023-6.545 6.2525-13.122 12.467-18.043 20.668 0.30534-0.92592 0.46287-1.8942 0.4668-2.8691 0.0002611-5.126-4.1552-9.2815-9.2812-9.2812-1.1772 0.002757-2.3431 0.22944-3.4355 0.66797 7.437-5.625 14.725-11.431 21.092-18.372zm-17.656 18.211c4.8456-0.00049342 8.7739 3.9278 8.7734 8.7734-0.00058532 4.8449-3.9286 8.772-8.7734 8.7715-4.8443-0.001-8.7711-3.928-8.7717-8.772 0.0025-2.607 1.1641-5.077 3.1699-6.742l0.0078125 0.007813 0.24414-0.21289c1.5329-1.182 3.4138-1.824 5.3498-1.826zm0 0.90625c-4.3451-0.0003448-7.8675 3.5221-7.8672 7.8672-0.0003448 4.3451 3.5221 7.8675 7.8672 7.8672 4.3451 0.0003448 7.8675-3.5221 7.8672-7.8672 0.0003448-4.3451-3.5221-7.8675-7.8672-7.8672zm0 0.51367c4.0614-0.0004928 7.354 3.2921 7.3535 7.3535-0.00058595 4.0607-3.2928 7.3521-7.3535 7.3516-4.0601-0.001-7.3512-3.292-7.3518-7.352-0.0004-4.06 3.2909-7.353 7.3518-7.353z" fill-rule="evenodd" transform="matrix(.26458 0 0 .26458 0 284.3)"/>
 </g>
</svg>
