<svg width="48" height="48" viewBox="0 0 48 48" fill="none" xmlns="http://www.w3.org/2000/svg">
<path fill-rule="evenodd" clip-rule="evenodd" d="M23.8783 4.00049C12.8493 4.00007 3.90778 12.9409 3.90918 23.9696C3.9082 34.9986 12.8493 43.9401 23.8783 43.9401C34.9072 43.9401 43.8488 34.9986 43.8474 23.9696C43.8488 12.9406 34.9072 3.99909 23.8783 4.00049ZM23.8783 6.74129C33.3934 6.74185 41.1066 14.4547 41.1066 23.9696C41.1066 33.4848 33.3934 41.1979 23.8783 41.1993C14.3631 41.1979 6.64998 33.4848 6.64998 23.9696C6.64998 14.4544 14.3631 6.74129 23.8783 6.74129ZM22.3561 7.72219C22.0959 7.72401 21.8272 7.86825 21.7055 8.21676C21.2634 9.19892 20.5023 9.88965 20.1679 11.2801C19.7426 13.2837 23.1801 13.4544 24.2532 13.4502C27.3494 13.5635 28.4645 15.4914 25.283 15.7782C22.6429 16.0259 19.9273 16.0916 19.3942 21.5243C19.3257 22.319 19.6922 23.7292 20.3316 25.5229C20.5429 26.6981 20.1931 28.0524 19.4894 29.52C19.1312 29.4781 18.8668 29.3493 18.801 29.0527C18.8626 27.7866 19.1186 26.7163 18.6149 24.8835C18.1197 23.1052 16.9081 22.2588 15.6783 22.0405C13.2117 21.5285 11.0235 21.0654 9.04801 21.7215C6.96617 22.5022 7.63214 25.5872 9.42296 25.6264L11.6167 25.6865C13.1375 25.7173 13.9616 26.3861 13.1725 28.5225L12.1008 31.6298C11.225 34.3035 14.1728 37.2276 18.0357 37.5648C21.942 37.4738 24.1987 35.7292 27.2417 34.7778C30.1588 33.1632 29.6187 32.0174 29.6089 30.9905C29.1234 29.5662 29.0577 29.0485 28.0014 27.4354C27.5887 26.9989 27.397 26.8772 26.8513 26.5148C25.5236 25.0444 27.6754 24.1112 29.2969 22.1888C30.1392 20.994 28.7121 19.5921 27.0556 20.079C25.6579 20.5351 24.9248 21.3872 23.5005 22.8604C22.6891 23.7544 21.5908 25.8446 23.0962 27.6075C23.5173 28.4176 22.9493 28.8023 21.5124 29.2626C21.0409 29.3801 20.7024 29.4039 20.3316 29.4515C21.0787 28.2063 21.2634 26.9345 21.0969 25.6474C20.7779 24.2945 20.2239 22.9989 20.2001 21.5704C20.6576 16.1014 23.9412 16.8541 26.5393 16.433C27.7733 16.391 30.4218 13.4586 24.7443 12.4274C22.9633 12.1083 21.2032 12.2395 21.504 11.0668C21.7601 10.0458 22.4526 9.40584 22.9003 8.61578C23.2039 8.11281 22.7898 7.71925 22.3561 7.72219ZM34.8331 21.6012V21.604C33.5739 21.604 32.3176 22.0853 31.3578 23.0465C29.4382 24.9674 29.4354 28.0874 31.3578 30.0069C33.2787 31.9265 36.3973 31.9195 38.3168 29.9957C40.2364 28.0734 40.2308 24.9548 38.3084 23.0353C37.3486 22.0755 36.0923 21.5998 34.8331 21.6012Z" fill="#333333"/>
</svg>
