<svg width="48" height="48" viewBox="0 0 48 48" fill="none" xmlns="http://www.w3.org/2000/svg">
<path fill-rule="evenodd" clip-rule="evenodd" d="M0 0H48V48H0V0ZM28.7579 25.6123C29.7696 25.4624 30.7551 26.0137 31.1569 26.9543C31.6392 28.0836 31.5505 29.3109 31.2429 30.3313C30.9247 31.3871 30.3175 32.4262 29.473 33.3271C27.7515 35.1634 25.0166 36.4615 21.4735 36.284C20.6205 36.2413 19.8653 35.7194 19.5238 34.9367L17.7608 30.8965L15.7 31.5709C14.519 31.9574 13.2483 31.3133 12.8618 30.1323C12.4753 28.9513 13.1194 27.6806 14.3004 27.2941L17.2726 26.3214L16.2768 24.1136C16.2047 23.9862 16.1547 23.8986 16.1143 23.8333C16.0449 23.8456 15.9484 23.8668 15.8156 23.9022C14.3219 24.3002 12.9231 23.7704 12.2085 22.7229C11.8527 22.2014 11.6758 21.5554 11.777 20.8855C11.8791 20.2101 12.2503 19.5951 12.8396 19.1103L13.5869 18.4955C13.9008 18.2372 13.9798 18.0074 13.9872 17.7772C13.9964 17.4896 13.892 17.0934 13.6186 16.5635C13.3502 16.0433 12.9668 15.4833 12.5247 14.8832C12.3675 14.6698 12.1973 14.4443 12.0244 14.215C11.9143 14.0691 11.8031 13.9218 11.6934 13.7751C10.8223 14.8235 10.0816 15.9875 9.49615 17.2444C7.70445 21.0911 7.51421 25.4919 8.96729 29.4788C10.4204 33.4658 13.3977 36.7122 17.2444 38.5039C21.0911 40.2956 25.4919 40.4858 29.4788 39.0327C33.4658 37.5796 36.7122 34.6023 38.5039 30.7556C40.2956 26.9089 40.4858 22.5081 39.0327 18.5212C37.5796 14.5342 34.6023 11.2878 30.7556 9.49615C26.9089 7.70445 22.5081 7.51422 18.5212 8.96729C16.4853 9.7093 14.6425 10.8488 13.0878 12.2985C13.249 12.5177 13.4152 12.7377 13.5869 12.965C13.7635 13.1989 13.946 13.4405 14.1349 13.6969C14.5892 14.3135 15.0514 14.9786 15.396 15.6465C15.7356 16.3048 16.0113 17.0598 15.9862 17.8415C15.9592 18.6806 15.5891 19.4381 14.8575 20.04L14.1103 20.6548C13.8483 20.8703 13.773 21.0621 13.7546 21.1842C13.7353 21.3118 13.7639 21.454 13.8606 21.5957C14.0508 21.8745 14.545 22.171 15.3007 21.9696C15.8016 21.8361 16.4635 21.6885 17.0661 22.0152C17.3642 22.1768 17.5593 22.4065 17.6923 22.5945C17.8107 22.7618 17.9229 22.961 18.0211 23.1351L18.0406 23.1698L18.0628 23.209L18.0813 23.2501L19.2708 25.8873C20.0414 25.9794 20.7383 26.4683 21.0672 27.222L23.0404 31.7441C24.2818 31.5877 25.1933 31.1242 25.8227 30.5964L25.7699 30.6042C24.6844 30.7651 23.6413 30.1195 23.301 29.0763L21.8545 24.642C21.4692 23.4606 22.1145 22.1905 23.2959 21.8051C24.4772 21.4198 25.7473 22.0651 26.1327 23.2464L26.9899 25.8743L28.7579 25.6123ZM32.5 26C34.9853 26 37 23.9853 37 21.5C37 19.0147 34.9853 17 32.5 17C30.0147 17 28 19.0147 28 21.5C28 23.9853 30.0147 26 32.5 26ZM16.8222 39.4103L16.3999 40.3168C12.0725 38.3012 8.72292 34.649 7.0882 30.1637C5.45349 25.6784 5.66751 20.7274 7.68317 16.3999C9.69882 12.0725 13.351 8.72292 17.8363 7.08821C22.3216 5.45349 27.2726 5.66751 31.6001 7.68317C35.9276 9.69883 39.2771 13.351 40.9118 17.8363C42.5465 22.3216 42.3325 27.2726 40.3168 31.6001C38.3012 35.9276 34.649 39.2771 30.1637 40.9118C25.6784 42.5465 20.7274 42.3325 16.4 40.3168L16.8222 39.4103Z" fill="#333333"/>
</svg>
