<?xml version="1.0" encoding="UTF-8" standalone="no"?>
<!-- Created with Inkscape (http://www.inkscape.org/) -->
<svg id="svg8" xmlns:rdf="http://www.w3.org/1999/02/22-rdf-syntax-ns#" xmlns="http://www.w3.org/2000/svg" height="48" viewBox="0 0 12.7 12.7" width="48" version="1.1" xmlns:cc="http://creativecommons.org/ns#" xmlns:dc="http://purl.org/dc/elements/1.1/">
 <title id="title4753">UIO-icon</title>
 <metadata id="metadata5">
  <rdf:RDF>
   <cc:Work rdf:about="">
    <dc:format>image/svg+xml</dc:format>
    <dc:type rdf:resource="http://purl.org/dc/dcmitype/StillImage"/>
    <dc:title>UIO-icon</dc:title>
    <dc:creator>
     <cc:Agent>
      <dc:title>Joaquín Urbano</dc:title>
     </cc:Agent>
    </dc:creator>
    <dc:rights>
     <cc:Agent>
      <dc:title>GPL</dc:title>
     </cc:Agent>
    </dc:rights>
   </cc:Work>
  </rdf:RDF>
 </metadata>
 <path id="circle5040-4" d="m6.3177 1.061c-2.9179 0-5.2836 2.3657-5.2836 5.2836-0.00020445 2.9181 2.3655 5.2836 5.2836 5.2836 2.9181 1e-8 5.2838-2.3655 5.2836-5.2836 0-2.9179-2.3657-5.2836-5.2836-5.2836zm-0.001447 0.18798c2.8121-0.00040906 5.092 2.2803 5.092 5.0935 0.00020443 2.8133-2.2798 5.0939-5.092 5.0935-2.812 0-5.0915-2.2805-5.0913-5.0935 0-2.8128 2.2795-5.0935 5.0913-5.0935zm-0.40126 0.79673c-0.068851 0.00048122-0.13987 0.038653-0.17207 0.13086-0.11697 0.25986-0.31857 0.4426-0.40704 0.81047-0.11253 0.53011 0.79695 0.57516 1.0809 0.57405 0.81918 0.029983 1.1143 0.5401 0.27257 0.61599-0.6985 0.065519-1.417 0.083092-1.558 1.5204-0.018138 0.21025 0.078819 0.58318 0.24798 1.0577 0.055895 0.31094-0.036487 0.66943-0.22268 1.0577-0.094762-0.011105-0.1648-0.045156-0.18219-0.12363 0.016287-0.335 0.084096-0.61836-0.049163-1.1033-0.1311-0.4704-0.4519-0.6941-0.7773-0.7519-0.6526-0.1354-1.2313-0.2582-1.754-0.0845-0.5508 0.2065-0.3747 1.0227 0.0991 1.0331l0.58056 0.015906c0.4023 0.0082 0.6201 0.1852 0.4113 0.7505l-0.2834 0.822c-0.23172 0.70739 0.5483 1.4811 1.5703 1.5703 1.0335-0.024061 1.6306-0.48574 2.4357-0.73745 0.7719-0.4272 0.6288-0.7304 0.6262-1.0021-0.1284-0.3768-0.1456-0.5138-0.4251-0.9406-0.1092-0.1155-0.16-0.1478-0.3044-0.2436-0.3513-0.3891 0.2181-0.6359 0.6471-1.1445 0.2228-0.3161-0.1546-0.687-0.5929-0.5582-0.3698 0.1207-0.5637 0.3463-0.9406 0.736-0.2147 0.23654-0.5053 0.78942-0.107 1.2558 0.11142 0.21433-0.039173 0.31635-0.41933 0.43813-0.12475 0.031094-0.21424 0.037301-0.31233 0.049886 0.1977-0.3294 0.2465-0.6658 0.2025-1.0063-0.0844-0.358-0.2308-0.7008-0.2371-1.0787 0.121-1.447 0.9899-1.2478 1.6773-1.3592 0.3265-0.0111 1.0271-0.7871-0.475-1.0599-0.4712-0.0844-0.9371-0.0498-0.8575-0.3601 0.06774-0.27011 0.25099-0.43949 0.36945-0.64852 0.080326-0.13307-0.029123-0.23719-0.14387-0.23642zm3.3012 3.6721v0.00072299c-0.33315 0-0.66571 0.12743-0.91964 0.38174-0.50787 0.50824-0.50861 1.3336 0 1.8415 0.50824 0.50787 1.3336 0.50609 1.8415-0.002892 0.50787-0.50861 0.50644-1.3336-0.002168-1.8415-0.2541-0.2539-0.5867-0.3799-0.9198-0.3796z" fill-rule="evenodd" stroke-width=".26458" fill="#333"/>
</svg>
