<svg width="48" height="48" viewBox="0 0 48 48" fill="none" xmlns="http://www.w3.org/2000/svg">
<path fill-rule="evenodd" clip-rule="evenodd" d="M25.0605 4.69917C24.8546 4.70823 24.6747 4.75138 24.5117 4.81049C24.3109 4.77707 24.1071 4.75581 23.9004 4.75581C22.7358 4.75581 21.6184 5.21747 20.7949 6.04096C19.9714 6.86444 19.5078 7.98185 19.5078 9.14643C19.5078 10.311 19.9714 11.4265 20.7949 12.2499C21.6184 13.0735 22.7358 13.5371 23.9004 13.5371C25.0649 13.5371 26.1804 13.0735 27.0039 12.2499C27.8274 11.4265 28.291 10.311 28.291 9.14643C28.291 8.6886 28.1978 8.24608 28.0605 7.81831C28.1445 7.7438 28.2177 7.65992 28.2695 7.5605C28.6274 6.87182 28.0239 5.83385 26.8926 5.19331C26.8898 5.20678 26.8849 5.22034 26.8789 5.23237C26.8128 5.35936 26.5859 5.37073 26.373 5.25971C26.1731 5.15522 26.0544 4.97718 26.0996 4.84956C25.8151 4.76091 25.5333 4.71023 25.2676 4.69917C25.1968 4.69631 25.1283 4.69631 25.0605 4.69917ZM26.3242 4.73042C26.2317 4.73445 26.1618 4.76912 26.1309 4.82807C26.0681 4.94882 26.1825 5.13262 26.3848 5.23823C26.587 5.34386 26.8018 5.33316 26.8652 5.21284C26.9287 5.09208 26.8161 4.90651 26.6133 4.80073C26.5178 4.75105 26.4133 4.72636 26.3242 4.73042ZM25.2598 4.93549C25.429 4.92817 25.6178 4.94428 25.8262 4.99018C25.8806 5.17804 26.0293 5.32405 26.2051 5.42378C26.2076 5.42532 26.2104 5.42623 26.2129 5.42769C26.2472 5.44676 26.2781 5.46562 26.3144 5.48042C26.3153 5.48076 26.3155 5.48204 26.3164 5.48237C26.5156 5.56285 26.7376 5.58252 26.918 5.50581C26.924 5.49378 27.0461 5.59741 27.0489 5.58393C28.0698 6.22471 28.1259 7.00175 27.9493 7.45307C27.9451 7.46391 27.946 7.47973 27.9415 7.49018C27.9025 7.55685 27.8548 7.61796 27.7989 7.67182C27.7976 7.67308 27.7963 7.67447 27.795 7.67573C27.74 7.72806 27.6772 7.77323 27.6075 7.81245C27.2076 8.03728 26.5586 8.02116 25.6719 7.55854C24.4685 6.93076 23.8346 6.1492 24.209 5.43159C24.2628 5.36799 24.3264 5.3062 24.3985 5.248C24.4017 5.2484 24.405 5.24759 24.4083 5.248C24.5893 5.10293 24.8316 4.99366 25.1427 4.95698C25.1395 4.95604 25.1361 4.95596 25.1329 4.95503C25.1762 4.94975 25.2137 4.9375 25.2598 4.9355V4.93549ZM23.7422 5.21479C23.7845 5.21333 23.8268 5.22066 23.8691 5.22065C22.3488 7.14316 26.6137 9.20982 27.7793 8.37885C27.8183 8.5356 27.8543 8.69611 27.877 8.86714C27.9174 11.0705 26.3558 12.9003 24.4238 13.1347C22.2151 13.4027 19.9968 11.6841 20.0254 9.10737C20.0815 6.6018 21.877 5.2793 23.7422 5.21479ZM23.873 5.22065C23.9017 5.22067 23.9303 5.22585 23.959 5.22651C23.9453 5.24801 23.9239 5.26439 23.9121 5.28706C23.5377 6.00467 24.2106 7.09482 25.4141 7.72261C26.2419 8.15453 27.0978 8.24613 27.6777 8.03315C27.6864 8.05969 27.6948 8.08636 27.7031 8.11323C27.1006 8.33824 26.2169 8.2287 25.3848 7.78901C24.1524 7.1368 23.4642 6.00321 23.8477 5.25776C23.8547 5.24451 23.8653 5.23346 23.8731 5.22065H23.873ZM17.1426 8.5312L16.9238 8.60932L17.7891 9.4101L17.125 10.7773L18.127 10.8789C17.9264 10.7131 17.766 10.632 17.543 10.4941L18.084 9.36909L17.1426 8.5312ZM30.6055 8.78315L29.6641 9.62299L30.207 10.748C29.984 10.8859 29.8236 10.965 29.623 11.1308L30.623 11.0312L29.959 9.66401L30.8242 8.86323L30.6055 8.78315ZM15.9062 10.2304L15.7246 10.4667L16.3848 11.9277L17.957 11.7011C18.0391 12.0243 18.0767 12.25 18.2012 12.5566L18.4609 11.3027L16.5469 11.5878L15.9062 10.2304ZM31.8438 10.4843L31.2012 11.8417L29.2891 11.5566L29.5488 12.8085C29.6733 12.5019 29.7109 12.2783 29.793 11.955L31.3633 12.1796L32.0234 10.7207L31.8438 10.4843ZM17.1484 12.5175L16.0684 13.6757L14.9648 13.1347L14.9687 13.3769L16.1367 13.9765L17.0293 13.0292C17.2468 13.1944 17.3849 13.3201 17.6211 13.4531L17.1484 12.5175ZM30.5996 12.7714L30.1289 13.707C30.3651 13.574 30.5012 13.4483 30.7188 13.2832L31.6133 14.2304L32.7793 13.6308L32.7832 13.3867L31.6816 13.9296L30.5996 12.7714ZM20.9277 13.7656C18.7591 13.7389 17.0112 14.5195 16.9844 18.9355L17.1387 19.5253C17.1762 19.4975 17.1142 19.0511 17.7969 18.5839C18.2546 18.3896 18.7188 18.2551 19.1855 18.1328L19.5098 17.1757C19.5181 17.1511 19.5438 17.1381 19.5684 17.1464L19.5879 17.1523C19.6125 17.1606 19.6255 17.1863 19.6172 17.2109L19.3164 18.0976C19.6724 18.0058 20.0303 17.9204 20.3848 17.8164C20.3925 17.7165 20.4087 17.6159 20.4375 17.5156C20.6652 16.7243 21.4861 16.2703 22.2773 16.498L23.5684 16.8691L24.9316 16.4648C25.7359 16.2258 26.5638 16.682 26.7891 17.4902C26.8188 17.5969 26.8353 17.7041 26.8418 17.8105L28.0254 18.1445L27.707 17.2031C27.6987 17.1785 27.7117 17.1528 27.7363 17.1445L27.7539 17.1386C27.7785 17.1303 27.8061 17.1433 27.8144 17.1679L28.1562 18.1796L29.3555 18.5175C29.8352 18.681 30.2132 19.2097 30.2598 19.3808C30.5496 12.4629 28.1348 13.8945 23.8613 14.0371C22.8244 13.9573 21.8955 13.8136 20.9277 13.7656ZM20.4707 14.0703C21.4502 14.0804 22.9589 14.3195 23.9336 14.416C24.1988 14.4233 24.5616 14.4167 24.8184 14.4023C25.8159 14.3461 26.6399 14.1683 27.4336 14.1953C28.0324 14.2156 28.5557 14.3543 28.9785 14.748C29.8361 15.1877 29.8878 16.6441 30.0312 18.5917C29.8209 18.3916 29.5749 18.2583 29.3027 18.1835C29.1671 18.1463 28.9926 18.0714 28.8359 18.0624C28.8359 18.0624 28.5409 17.959 28.3594 17.9765L28.1445 17.2187C28.1419 17.1637 28.129 17.1115 28.1074 17.0644C28.0858 17.0174 28.0546 16.9758 28.0195 16.9394C27.9494 16.8666 27.8581 16.8171 27.7676 16.8027C27.723 16.7958 27.6781 16.7974 27.6367 16.8086C27.5947 16.82 27.5547 16.8423 27.5215 16.875C27.4887 16.9075 27.462 16.9499 27.4434 17.0059C27.4245 17.0625 27.413 17.1335 27.4141 17.2168L27.543 17.6738L27.1211 17.543C27.0104 17.1503 26.8766 16.8296 26.6797 16.5898C26.614 16.5099 26.5421 16.4381 26.4609 16.3769C26.2174 16.1936 25.898 16.0977 25.4609 16.0996H25.4589C25.3137 16.1003 25.1548 16.1118 24.9824 16.1348L23.5039 16.4999L22.0996 16.0917C21.697 16.0403 21.3059 16.1059 20.9902 16.2617C20.8329 16.3392 20.6946 16.44 20.582 16.5585C20.526 16.6177 20.4756 16.6819 20.4336 16.7499C20.3911 16.8189 20.3562 16.8916 20.3301 16.9687C20.3012 17.0689 20.1405 17.3297 20.1328 17.4296C20.1328 17.4296 20.1216 17.3944 19.7656 17.4863C19.9266 17.157 19.8284 16.8922 19.6309 16.8339H19.6289C19.5096 16.7996 19.433 16.841 19.2765 16.9863C19.1328 17.3083 18.9756 17.487 18.9238 17.8359C18.6198 17.9272 17.6712 18.121 17.2675 18.5292C17.4655 14.1803 19.8593 14.0718 20.4707 14.0703ZM22.0449 16.5644C21.4121 16.5141 20.8135 16.9121 20.6309 17.5468C20.4221 18.2723 20.8371 19.0236 21.5625 19.2324L28.248 21.1562C29.2337 21.4399 30.0393 21.1726 30.248 20.4472C30.4568 19.7218 29.8842 18.7926 29.002 18.539L22.3164 16.6152C22.2257 16.5891 22.1353 16.5716 22.0449 16.5644ZM25.252 16.5859C25.1616 16.5931 25.0711 16.6086 24.9805 16.6347L23.8652 16.955L26.7031 17.7714C26.6943 17.7035 26.6856 17.6342 26.666 17.5663C26.4834 16.9316 25.8847 16.5356 25.252 16.5859ZM22.1445 16.8613C23.1699 17.1759 24.3099 17.5275 25.4727 17.8671H25.4747C26.6368 18.2066 27.8204 18.5335 28.9297 18.7988C29.293 18.9032 29.5351 19.0804 29.6915 19.2949C29.6926 19.2963 29.6943 19.2974 29.6954 19.2988C29.9908 19.6616 30.0641 20.1104 29.8887 20.3671C29.7843 20.7298 29.5362 20.9104 29.2207 20.9648C28.9053 21.0191 28.5225 20.9471 28.1465 20.8007L21.7657 18.9023C21.5837 18.8499 21.4317 18.7854 21.3086 18.707C21.1244 18.5899 21.0074 18.4423 20.961 18.2519C20.9145 18.0614 20.9386 17.829 21.0371 17.5468C21.0828 17.3881 21.1493 17.2674 21.2305 17.1757C21.4738 16.9007 21.8453 16.8842 22.1446 16.8613H22.1445ZM25.4219 16.9042C25.5423 16.9085 25.6488 16.9254 25.748 16.9492C25.7801 16.9568 25.8085 16.9683 25.8379 16.9785C25.9064 17.0023 25.9668 17.0359 26.0195 17.0761C26.041 17.0924 26.0635 17.1075 26.082 17.1269C26.1445 17.1923 26.1953 17.2688 26.2207 17.3749C25.75 17.2453 25.4065 17.1811 24.8066 16.9804L24.9805 16.914C25.1362 16.9047 25.2851 16.8994 25.4219 16.9042ZM13.4414 17.1367L13.1055 17.2558L14.4395 18.4921L13.4141 20.5996L14.9609 20.7558C14.6517 20.5002 14.4025 20.3767 14.0586 20.164L14.8945 18.4277L13.4414 17.1367ZM34.2051 17.5253L32.752 18.8203L33.5898 20.5546C33.2459 20.7673 32.9987 20.8888 32.6895 21.1445L34.2324 20.9921L33.207 18.8828L34.541 17.6484L34.2051 17.5253ZM20.3867 17.957L18.293 18.5585C17.5675 18.7673 17.1526 19.5187 17.3613 20.2441C17.5701 20.9695 18.3234 21.3864 19.0488 21.1777L23.4219 19.9199L21.4551 19.3535C20.8117 19.1683 20.3989 18.5916 20.3867 17.957ZM20.1523 18.4238C20.1465 19.0224 20.6867 19.4378 21.2402 19.623L22.3262 19.9355L19.1016 20.832C18.7388 20.9364 18.5233 20.7938 18.252 20.6992C17.9806 20.6045 17.7805 20.4181 17.7031 20.1542C17.6554 20.0493 17.6338 19.9339 17.6387 19.8163C17.6436 19.698 17.675 19.5784 17.7363 19.4648C17.7967 19.3521 17.8852 19.2472 18.0039 19.1562C18.1235 19.0645 18.2731 18.9879 18.4551 18.9355L20.1523 18.4238ZM11.5352 19.7558L11.2559 20.121L12.2734 22.3749L14.6973 22.0253C14.8238 22.5238 14.8823 22.8708 15.0742 23.3437L15.4746 21.4101L12.5234 21.8496L11.5352 19.7558ZM23.5918 19.9882C22.702 20.2788 20.8518 20.7826 19.4648 21.1757V42.7246C19.4648 43.8199 20.3442 44.7031 21.4395 44.7031C22.5348 44.7031 23.416 43.8199 23.416 42.7246V31.0976H24.3711V42.7246C24.3711 43.8199 25.2523 44.7031 26.3477 44.7031C27.443 44.7031 28.3242 43.8199 28.3242 42.7246V21.3769C26.1733 20.748 25.6752 20.5898 23.5918 19.9882ZM36.1133 20.1484L35.123 22.2421L32.1738 21.8027L32.5742 23.7324C32.7661 23.2595 32.8246 22.9144 32.9512 22.416L35.373 22.7617L36.3906 20.5117L36.1133 20.1484ZM23.6152 20.371C24.7564 20.684 27.2665 21.4395 27.9355 21.6972L27.7656 42.6738C27.7275 43.2664 27.5069 43.7685 27.0234 44.0038C26.8622 44.0824 26.6722 44.1318 26.4492 44.1445C26.3123 44.1445 26.1872 44.1357 26.0742 44.1191C25.2523 44.0046 24.9141 43.4819 24.9141 42.5214L24.8281 30.5644L22.9199 30.5507L22.8887 42.4804C22.8858 43.5757 22.6109 44.0683 21.5156 44.0683C21.4397 44.0935 21.3575 44.1064 21.2734 44.1074C21.0193 44.1099 20.7385 44.0034 20.5019 43.8066C20.2653 43.6097 20.0722 43.3218 19.9902 42.9589C19.9629 42.838 19.9473 42.7091 19.9473 42.5722L19.8457 21.4667C19.8457 21.4667 22.7255 20.6616 23.6152 20.371ZM13.4512 23.2831L11.7852 25.0703L10.084 24.2363L10.0899 24.6093L11.8907 25.5331L13.2676 24.0722C13.6031 24.327 13.8154 24.5215 14.1797 24.7265L13.4512 23.2831ZM34.1953 23.6757L33.4688 25.1171C33.8331 24.9121 34.0434 24.7195 34.3789 24.4648L35.7578 25.9257L37.5566 24.9999L37.5625 24.6249L35.8633 25.4609L34.1953 23.6757Z" fill="#333333"/>
</svg>
