<svg width="48" height="48" viewBox="0 0 48 48" fill="none" xmlns="http://www.w3.org/2000/svg">
<path fill-rule="evenodd" clip-rule="evenodd" d="M30 4C27.2386 4 25 6.39847 25 9.35714V29.7546C23.1711 31.2208 22 33.4736 22 36C22 40.4183 25.5817 44 30 44C34.4183 44 38 40.4183 38 36C38 33.4736 36.8289 31.2208 35 29.7546V9.35714C35 6.39847 32.7614 4 30 4ZM33 22.061C31.5429 22.0854 30.1778 21.7313 28.9824 21.4212C28.2524 21.2319 27.5858 21.0589 27 20.9986V9.35714C27 7.58194 28.3431 6.14286 30 6.14286C31.6569 6.14286 33 7.58194 33 9.35714V9.97595H31C30.4477 9.97595 30 10.4237 30 10.976C30 11.5282 30.4477 11.976 31 11.976H33V13.976H31C30.4477 13.976 30 14.4237 30 14.976C30 15.5282 30.4477 15.976 31 15.976H33V17.976H31C30.4477 17.976 30 18.4237 30 18.976C30 19.5282 30.4477 19.976 31 19.976H33V22.061Z" fill="#333333"/>
<path d="M15.8122 10.5263C15.4512 9.82456 14.5488 9.82456 14.1878 10.5263L10.127 18.4211C9.76608 19.1228 10.2173 20 10.9392 20H14L14 29H16L16 20H19.0608C19.7827 20 20.2339 19.1228 19.873 18.4211L15.8122 10.5263Z" fill="#333333"/>
</svg>
