<?xml version="1.0" encoding="UTF-8" standalone="no"?>
<!-- Created with Inkscape (http://www.inkscape.org/) -->
<svg id="svg8" xmlns:rdf="http://www.w3.org/1999/02/22-rdf-syntax-ns#" xmlns="http://www.w3.org/2000/svg" xmlns:osb="http://www.openswatchbook.org/uri/2009/osb" height="48" width="48" version="1.1" xmlns:cc="http://creativecommons.org/ns#" viewBox="0 0 12.7 12.7" xmlns:dc="http://purl.org/dc/elements/1.1/">
 <title id="title4753">UIO-icon</title>
 <metadata id="metadata5">
  <rdf:RDF>
   <cc:Work rdf:about="">
    <dc:format>image/svg+xml</dc:format>
    <dc:type rdf:resource="http://purl.org/dc/dcmitype/StillImage"/>
    <dc:title>UIO-icon</dc:title>
    <dc:creator>
     <cc:Agent>
      <dc:title>Joaquín Urbano</dc:title>
     </cc:Agent>
    </dc:creator>
    <dc:rights>
     <cc:Agent>
      <dc:title>GPL</dc:title>
     </cc:Agent>
    </dc:rights>
   </cc:Work>
  </rdf:RDF>
 </metadata>
 <g id="layer1" fill="#333" transform="translate(0,-284.3)">
  <path id="path26410" stroke-width=".017728" d="m6.3459 285.36c-0.65774 0-1.0997 0.34215-1.0997 0.85131v6.3159c-0.47321 0.34691-0.77964 0.89771-0.77964 1.5168 0 1.0472 0.87677 1.8993 1.9545 1.8993s1.9545-0.85204 1.9545-1.8993c0-0.61911-0.30651-1.1699-0.77972-1.5168v-6.3159c0-0.52516-0.40393-0.85131-1.0542-0.85131zm-0.00026852 0.17566h0.1957c0.20496 0 0.87371 0.048556 0.87371 0.67565v6.4149c0.063354 0.041935 0.12373 0.087968 0.18078 0.13741 0.3624 0.31417 0.59062 0.77135 0.59062 1.2804 0.000077142 0.9475-0.79034 1.7157-1.7654 1.7157-0.97504 0-1.7655-0.7681-1.7655-1.7156 0-0.50906 0.22822-0.9663 0.59062-1.2805 0.05708-0.049396 0.11735-0.095535 0.18069-0.13741v-6.4149c0-0.4988 0.4949-0.67565 0.91871-0.67565zm-0.3764 0.7c-0.049881 0-0.090344 0.039307-0.090344 0.087757 0 0.048451 0.040465 0.087862 0.090344 0.087862h1.0844c0.049896 0 0.090431-0.039307 0.090431-0.087862 0-0.048451-0.040554-0.087757-0.090431-0.087757zm0.54224 0.35128c-0.049898 0-0.090432 0.039307-0.090432 0.087862 0 0.048451 0.040552 0.087757 0.090432 0.087757h0.54216c0.049896 0 0.090431-0.039307 0.090431-0.087757 0-0.048451-0.040536-0.087862-0.090431-0.087862zm-0.54224 0.35126c-0.049881 0-0.090344 0.039307-0.090344 0.087862 0 0.04845 0.040465 0.087757 0.090344 0.087757h1.0844c0.049896 0 0.090431-0.039307 0.090431-0.087757 0-0.048451-0.040554-0.087862-0.090431-0.087862zm0.54224 0.35132c-0.049898 0-0.090432 0.039307-0.090432 0.087757 0 0.048451 0.040552 0.087757 0.090432 0.087757h0.54216c0.049896 0 0.090431-0.039307 0.090431-0.087757s-0.040536-0.087757-0.090431-0.087757zm-0.54224 0.35126c-0.049881 0-0.090344 0.039307-0.090344 0.087757 0 0.048451 0.040465 0.087757 0.090344 0.087757h1.0844c0.049896 0 0.090431-0.039307 0.090431-0.087757 0-0.048451-0.040554-0.087757-0.090431-0.087757zm0.54224 0.35126c-0.049898 0-0.090432 0.039307-0.090432 0.087757s0.040552 0.087757 0.090432 0.087757h0.54216c0.049896 0 0.090431-0.039307 0.090431-0.087757 0-0.048451-0.040536-0.087757-0.090431-0.087757zm-0.42155 0.39779c-0.08326-0.0006936-0.17949 0.033105-0.30138 0.12907v4.313c-0.45312 0.22467-0.76438 0.68236-0.76438 1.2097 0 0.74852 0.62662 1.3575 1.3969 1.3575 0.77025 0 1.397-0.60902 1.397-1.3575 0.000018603-0.52728-0.31125-0.98497-0.76438-1.2097v-4.313c-0.53543 0.32588-0.66635-0.12541-0.96371-0.12907zm0.909 5.1508c0.195 0 0.35314 0.15363 0.35314 0.34318 0 0.18952-0.15815 0.34325-0.35314 0.34325-0.19502 0-0.35314-0.15373-0.35314-0.34325 0-0.18954 0.15794-0.34318 0.35314-0.34318z"/>
 </g>
</svg>
