<svg width="48" height="48" viewBox="0 0 48 48" fill="none" xmlns="http://www.w3.org/2000/svg">
<path fill-rule="evenodd" clip-rule="evenodd" d="M0 0H48V48H0V0ZM31.5879 7.67275C29.2821 6.59934 26.711 6 24 6C14.0589 6 6 14.0589 6 24C6 33.9411 14.0589 42 24 42C33.9411 42 42 33.9411 42 24C42 22.1295 41.7147 20.3257 41.1852 18.6296C40.6407 19.0311 40.0349 19.3563 39.3842 19.5889C39.7852 20.9901 40 22.47 40 24C40 32.8366 32.8366 40 24 40C15.1634 40 8 32.8366 8 24C8 15.1634 15.1634 8 24 8C26.4075 8 28.6907 8.53171 30.7388 9.48411C30.9798 8.86392 31.2685 8.25767 31.5879 7.67275ZM37 17C39.2091 17 41 15.2091 41 13C41 9.5 37 6 37 6C37 6 33 9.5 33 13C33 15.2091 34.7909 17 37 17ZM17.3757 31.3534C17.0799 31.8686 16.8178 32.4194 16.5935 33C16.2061 34.0028 17.0133 35 18.0883 35H21.3778L17.9205 32.0059L19.2297 30.494L24.433 35H29.9116C30.9866 35 31.7939 34.0028 31.4065 33C30.0305 29.4383 27.2304 27 24 27C21.9073 27 19.9953 28.0232 18.534 29.7121L16.9662 28.3682C16.9884 28.2489 17 28.1258 17 28C17 26.8954 16.1046 26 15 26C13.8954 26 13 26.8954 13 28C13 29.1046 13.8954 30 15 30C15.233 30 15.4568 29.9601 15.6648 29.8869L17.3757 31.3534ZM13.6311 19.8749C13.512 20.6126 14.0125 21.3201 14.6956 21.7576C15.4093 22.2147 16.4269 22.4646 17.6253 22.2877C18.8712 22.1038 19.7568 21.4125 20.2788 20.6223C20.7831 19.8589 20.9907 18.9294 20.759 18.2406C20.7046 18.0788 20.5713 17.9559 20.4056 17.9148C20.2399 17.8736 20.0647 17.9198 19.9409 18.0374C18.145 19.7422 16.117 20.1609 14.2987 19.4858C14.1585 19.4338 14.0022 19.4472 13.873 19.5226C13.7437 19.5979 13.6549 19.7272 13.6311 19.8749ZM33.7069 19.8749C33.826 20.6126 33.3255 21.3201 32.6425 21.7576C31.9287 22.2147 30.9111 22.4646 29.7127 22.2877C28.4668 22.1038 27.5813 21.4125 27.0593 20.6223C26.5549 19.8589 26.3473 18.9294 26.579 18.2406C26.6335 18.0788 26.7667 17.9559 26.9324 17.9148C27.0981 17.8736 27.2733 17.9198 27.3972 18.0374C29.1931 19.7422 31.221 20.1609 33.0393 19.4858C33.1796 19.4338 33.3358 19.4472 33.4651 19.5226C33.5943 19.5979 33.6831 19.7272 33.7069 19.8749Z" fill="#333333"/>
</svg>
