<svg width="48" height="48" viewBox="0 0 48 48" fill="none" xmlns="http://www.w3.org/2000/svg">
<path fill-rule="evenodd" clip-rule="evenodd" d="M48 0H0V48H48V0ZM37 16C34.25 16 32 13.9 32 11.3333C32 8.76667 37 2 37 2C37 2 42 8.76667 42 11.3333C42 13.9 39.75 16 37 16ZM40 24C40 21.7929 39.5537 19.6905 38.7463 17.7781C40.0924 17.4291 41.2846 16.687 42.1916 15.683C43.3528 18.2161 44 21.0329 44 24C44 35.04 35.04 44 23.98 44C12.94 44 4 35.04 4 24C4 12.96 12.94 4 23.98 4C26.7717 4 29.4297 4.57088 31.8435 5.60201C31.1838 6.91634 30.6262 8.19654 30.3023 9.28793C28.3685 8.45895 26.2381 8 24 8C15.16 8 8 15.16 8 24C8 32.84 15.16 40 24 40C32.84 40 40 32.84 40 24ZM15 18.12L17.12 16L21.36 20.24L17.12 24.48L15 22.36L17.12 20.24L15 18.12ZM33.72 18.12L31.6 16L27.36 20.24L31.6 24.48L33.72 22.36L31.6 20.24L33.72 18.12ZM23.9999 31.6152C26.2104 31.6152 28.1682 32.6882 29.4024 34.3302C29.7017 34.7283 30.1534 35 30.6514 35C31.6371 35 32.3018 34.0047 31.7496 33.1881C30.0717 30.7067 27.2278 29.0766 23.9999 29.0766C22.5041 29.0766 21.1103 29.4151 19.8695 30.0244L13.7843 26.5211C13.7843 25.658 13.3424 24.8118 12.5265 24.3379C11.3027 23.644 9.7389 24.0502 9.042 25.2687C8.3451 26.4872 8.75304 28.0442 9.97687 28.7381C10.7928 29.212 11.7446 29.1782 12.5095 28.7381L17.5748 31.6321C17.0818 32.106 16.6398 32.6265 16.2574 33.1893C15.7037 34.004 16.3657 35 17.3508 35C17.8473 35 18.2977 34.7291 18.5958 34.3321C19.83 32.689 21.7884 31.6152 23.9999 31.6152Z" fill="#333333"/>
</svg>
