<svg width="48" height="48" viewBox="0 0 48 48" fill="none" xmlns="http://www.w3.org/2000/svg">
<path fill-rule="evenodd" clip-rule="evenodd" d="M29.7419 4.31152L28.8943 5.06543L29.3826 6.0791C29.1821 6.20309 29.0375 6.27383 28.8572 6.42285L29.7576 6.33301L29.1599 5.10254L29.9392 4.38184L29.7419 4.31152ZM25.0603 4.7002C24.5097 4.72442 24.0949 4.93649 23.9119 5.28809C23.5374 6.00569 24.2104 7.09585 25.4138 7.72363C26.6172 8.35146 27.895 8.27916 28.2693 7.56152C28.6272 6.87284 28.0237 5.83488 26.8923 5.19434C26.8895 5.20781 26.8846 5.22137 26.8787 5.2334C26.8126 5.36038 26.5856 5.37175 26.3728 5.26074C26.1728 5.15625 26.0541 4.97821 26.0994 4.85059C25.8148 4.76194 25.533 4.71126 25.2673 4.7002C25.1965 4.69734 25.128 4.69734 25.0603 4.7002ZM26.324 4.73145C26.2315 4.73548 26.1616 4.77015 26.1306 4.8291C26.0679 4.94984 26.1823 5.13365 26.3845 5.23926C26.5867 5.34489 26.8015 5.33419 26.865 5.21387C26.9285 5.09311 26.8159 4.90754 26.613 4.80176C26.5176 4.75207 26.413 4.72739 26.324 4.73144V4.73145ZM23.947 5.11035C21.6628 5.16572 19.8278 6.98118 19.8298 9.21777C19.8308 11.4869 21.7212 13.3268 24.0525 13.3271C26.3859 13.3295 28.2781 11.489 28.2791 9.21777C28.2795 8.76395 28.2014 8.32917 28.0623 7.9209C27.5015 8.381 26.4008 8.32703 25.3845 7.79004C24.1522 7.13782 23.464 6.00424 23.8474 5.25879C23.8754 5.20612 23.9089 5.15714 23.947 5.11035H23.947ZM30.8533 5.84082L30.2771 7.06152L28.5564 6.80566L28.7908 7.93066C28.9026 7.65499 28.9357 7.45367 29.0095 7.16309L30.4236 7.36621L31.0154 6.05176L30.8533 5.84082ZM29.7361 7.89746L29.3123 8.7373C29.5246 8.61779 29.6479 8.50495 29.8435 8.35645L30.6462 9.20801L31.6951 8.66895L31.699 8.4502L30.7087 8.93848L29.7361 7.89746ZM18.1326 10.0986L17.9373 10.1689L18.7146 10.8896L18.1169 12.1201L19.0173 12.21C18.837 12.0609 18.6944 11.9882 18.4939 11.8643L18.9802 10.8525L18.1326 10.0986ZM17.0212 11.626L16.8591 11.8389L17.4509 13.1514L18.865 12.9502C18.9388 13.2408 18.9719 13.4421 19.0837 13.7178L19.3181 12.5908L17.5994 12.8467L17.0212 11.626ZM18.1384 13.6826L17.1658 14.7256L16.1755 14.2373L16.1794 14.4561L17.2283 14.9951L18.031 14.1436C18.1785 14.2556 18.2985 14.3413 18.4333 14.4307C17.5593 15.117 16.9992 16.4505 16.9841 18.9365L17.1384 19.5264C17.1759 19.4985 17.114 19.0521 17.7966 18.585C18.2544 18.3906 18.7185 18.2561 19.1853 18.1338L19.5095 17.1768C19.5178 17.1522 19.5435 17.1391 19.5681 17.1475L19.5876 17.1534C19.6122 17.1617 19.6253 17.1874 19.6169 17.2119L19.3162 18.0987C19.6722 18.0068 20.03 17.9215 20.3845 17.8174C20.3922 17.7175 20.4084 17.6169 20.4372 17.5166C20.665 16.7254 21.4858 16.2714 22.2771 16.4991L23.5681 16.8702L24.9314 16.4659C25.7356 16.2269 26.5636 16.6831 26.7888 17.4912C26.8185 17.5979 26.8351 17.7051 26.8415 17.8116L28.0251 18.1455L27.7068 17.2041C27.6985 17.1795 27.7115 17.1539 27.7361 17.1455L27.7537 17.1396C27.7782 17.1313 27.8059 17.1443 27.8142 17.1689L28.156 18.1807L29.3552 18.5186C29.8349 18.6821 30.2129 19.2108 30.2595 19.3818C30.5493 12.4639 28.1346 13.8956 23.8611 14.0381C22.8242 13.9583 21.8952 13.8147 20.9275 13.7666C20.0073 13.7553 19.1652 13.8943 18.4958 14.3896L18.1384 13.6826ZM22.0447 16.5654C21.4119 16.5151 20.8133 16.9131 20.6306 17.5479C20.4219 18.2733 20.8368 19.0246 21.5623 19.2334L28.2478 21.1572C29.2335 21.4409 30.039 21.1737 30.2478 20.4482C30.4566 19.7228 29.884 18.7936 29.0017 18.54L22.3162 16.6162C22.2255 16.5901 22.1351 16.5726 22.0447 16.5654ZM25.2517 16.5869C25.1613 16.5941 25.0709 16.6096 24.9802 16.6357L23.865 16.9561L26.7029 17.7725C26.6941 17.7046 26.6853 17.6353 26.6658 17.5674C26.4831 16.9326 25.8845 16.5366 25.2517 16.5869V16.5869ZM13.4412 17.1377L13.1052 17.2568L14.4392 18.4932L13.4138 20.6006L14.9607 20.7568C14.6514 20.5012 14.4022 20.3777 14.0583 20.165L14.8943 18.4287L13.4412 17.1377ZM34.2048 17.5264L32.7517 18.8213L33.5896 20.5557C33.2457 20.7684 32.9985 20.8899 32.6892 21.1455L34.2322 20.9932L33.2068 18.8838L34.5408 17.6494L34.2048 17.5264ZM20.3865 17.958L18.2927 18.5596C17.5673 18.7683 17.1523 19.5197 17.3611 20.2451C17.5698 20.9705 18.3232 21.3875 19.0486 21.1787L23.4216 19.9209L21.4548 19.3545C20.8114 19.1693 20.3986 18.5926 20.3865 17.958ZM11.5349 19.7568L11.2556 20.1221L12.2732 22.376L14.697 22.0264C14.8236 22.5248 14.8821 22.8718 15.074 23.3447L15.4744 21.4111L12.5232 21.8506L11.5349 19.7568ZM23.5916 19.9893C22.7018 20.2798 20.8516 20.7836 19.4646 21.1768V42.7256C19.4646 43.8209 20.3439 44.7041 21.4392 44.7041C22.5345 44.7041 23.4158 43.8209 23.4158 42.7256V31.0986H24.3708V42.7256C24.3708 43.8209 25.252 44.7041 26.3474 44.7041C27.4427 44.7041 28.324 43.8209 28.324 42.7256V21.3779C26.173 20.749 25.675 20.5908 23.5916 19.9893V19.9893ZM36.113 20.1494L35.1228 22.2432L32.1736 21.8037L32.574 23.7334C32.7659 23.2605 32.8243 22.9155 32.9509 22.417L35.3728 22.7627L36.3904 20.5127L36.113 20.1494ZM13.4509 23.2842L11.7849 25.0713L10.0837 24.2373L10.0896 24.6103L11.8904 25.5342L13.2674 24.0732C13.6029 24.328 13.8152 24.5225 14.1795 24.7275L13.4509 23.2842ZM34.1951 23.6768L33.4685 25.1182C33.8328 24.9131 34.0431 24.7206 34.3787 24.4658L35.7576 25.9268L37.5564 25.001L37.5623 24.626L35.8631 25.4619L34.1951 23.6768Z" fill="#333333"/>
</svg>
