<svg width="48" height="48" viewBox="0 0 48 48" fill="none" xmlns="http://www.w3.org/2000/svg">
<g clip-path="url(#clip0)">
<rect width="48" height="48" fill="white"/>
<path fill-rule="evenodd" clip-rule="evenodd" d="M0 0V48H48V0H0ZM35.1152 6.91992H35.748C37.8469 6.91992 39.1504 7.97098 39.1504 9.66602V30.0527C40.6777 31.1724 41.666 32.949 41.666 34.9473C41.666 38.3275 38.836 41.0781 35.3574 41.0781C31.8789 41.0781 29.0508 38.3273 29.0508 34.9473C29.0508 32.9491 30.0391 31.1725 31.5664 30.0527V9.66602C31.5664 8.02262 32.9923 6.91992 35.1152 6.91992ZM35.1152 7.48633C33.7473 7.48633 32.1484 8.05606 32.1484 9.66602V30.3711C31.944 30.5063 31.7507 30.657 31.5664 30.8164C30.3967 31.8305 29.6602 33.3062 29.6602 34.9492C29.6602 38.0074 32.2103 40.4863 35.3574 40.4863C38.5046 40.4863 41.0569 38.0055 41.0566 34.9473C41.0566 33.3043 40.3201 31.8304 39.1504 30.8164C38.9663 30.6568 38.7709 30.5065 38.5664 30.3711V9.66602C38.5664 7.64197 36.4077 7.48633 35.7461 7.48633H35.1152ZM33.9004 9.74609H37.4004C37.5614 9.74609 37.6914 9.87291 37.6914 10.0293C37.6914 10.186 37.5615 10.3125 37.4004 10.3125H33.9004C33.7394 10.3125 33.6074 10.1857 33.6074 10.0293C33.6074 9.87292 33.7394 9.74609 33.9004 9.74609ZM35.6504 10.8789H37.4004C37.5615 10.8789 37.6914 11.0057 37.6914 11.1621C37.6914 11.3185 37.5615 11.4453 37.4004 11.4453H35.6504C35.4894 11.4453 35.3574 11.3185 35.3574 11.1621C35.3574 11.0054 35.4893 10.8789 35.6504 10.8789ZM17.3945 11.5938C22.5128 11.6135 27.0829 15.2216 28.1289 20.4355C29.1861 25.7132 26.2718 30.9801 21.2383 32.8867C20.9826 33.4026 20.3323 33.8276 19.5605 33.9824C18.7701 34.1402 17.9919 33.986 17.5645 33.5898C12.241 33.6999 7.60325 29.9832 6.55078 24.7637C5.35538 18.8049 9.21704 13.0059 15.1758 11.8105C15.9206 11.6611 16.6633 11.591 17.3945 11.5938ZM33.9004 12.0137H37.4004C37.5614 12.0137 37.6914 12.1405 37.6914 12.2969C37.6914 12.4532 37.5615 12.5801 37.4004 12.5801H33.9004C33.7394 12.5801 33.6074 12.4532 33.6074 12.2969C33.6074 12.1402 33.7394 12.0137 33.9004 12.0137ZM35.6504 13.1465H37.4004C37.5615 13.1465 37.6914 13.2733 37.6914 13.4297C37.6914 13.5861 37.5615 13.7129 37.4004 13.7129H35.6504C35.4894 13.7129 35.3574 13.5861 35.3574 13.4297C35.3574 13.2733 35.4893 13.1465 35.6504 13.1465ZM33.9004 14.2812H37.4004C37.5614 14.2812 37.6914 14.4081 37.6914 14.5645C37.6914 14.7208 37.5615 14.8477 37.4004 14.8477H33.9004C33.7394 14.8477 33.6074 14.7208 33.6074 14.5645C33.6074 14.4081 33.7394 14.2812 33.9004 14.2812ZM23.0703 15.2676C20.4443 21.0836 11.1211 16.7155 7.54297 20.7969C7.31946 22.0081 7.3113 23.2792 7.56836 24.5605C8.51944 29.2807 12.7093 32.6449 17.5234 32.5547C18.4061 33.3522 20.1504 33.4095 20.832 31.9277C25.4101 30.214 28.0688 25.4319 27.1094 20.6387C26.8937 19.5635 26.5071 18.5672 25.9922 17.6641C24.5285 17.5423 23.1959 15.8326 23.0703 15.2676ZM35.6504 15.4141H37.4004C37.5615 15.4141 37.6914 15.5409 37.6914 15.6973C37.6914 15.8536 37.5615 15.9805 37.4004 15.9805H35.6504C35.4894 15.9805 35.3574 15.8536 35.3574 15.6973C35.3574 15.5409 35.4893 15.4141 35.6504 15.4141ZM34.2891 16.6992C35.2489 16.7111 35.6722 18.1671 37.4004 17.1152V31.0352C38.8629 31.7605 39.8673 33.2376 39.8672 34.9395C39.8672 37.3553 37.8435 39.3223 35.3574 39.3223C32.8712 39.3223 30.8496 37.3555 30.8496 34.9395C30.8496 33.2374 31.8539 31.7603 33.3164 31.0352V17.1152C33.7098 16.8055 34.0203 16.697 34.2891 16.6992ZM22.877 20.9004L24.9688 22.7969C25.4672 23.0726 23.1755 23.118 22.2109 22.5117C20.4947 21.6985 22.1047 21.2313 22.877 20.9004ZM15.0625 21.6406C15.4367 21.7378 17.6888 22.083 15.5098 23.2949C14.6778 23.9012 12.4948 23.8551 12.8164 23.5352L15.0625 21.6406ZM21.7832 26.7207L22.4023 27.207C20.6774 27.3939 18.9716 27.8617 17.3633 29.6816L16.9668 29.2832C18.2358 27.6992 19.8074 26.7733 21.7832 26.7207ZM37.2227 33.3242C36.5927 33.3242 36.084 33.8198 36.084 34.4316C36.084 35.0434 36.5932 35.5391 37.2227 35.5391C37.852 35.5391 38.3633 35.0434 38.3633 34.4316C38.3633 33.8198 37.852 33.3242 37.2227 33.3242Z" fill="#333333"/>
</g>
<defs>
<clipPath id="clip0">
<rect width="48" height="48" fill="white"/>
</clipPath>
</defs>
</svg>
