<svg width="48" height="48" viewBox="0 0 48 48" fill="none" xmlns="http://www.w3.org/2000/svg">
<path d="M34.0621 8.1091C31.4995 8.09266 29.222 9.04245 27.7692 10.1908C28.0099 10.2199 28.2506 10.2512 28.4939 10.2989C31.5285 10.9108 33.5757 12.6255 33.579 14.5577C33.5754 15.3874 33.1913 16.2005 32.4698 16.9064C35.1862 18.0167 36.7908 19.7734 36.7954 21.6419C36.7926 23.755 34.7597 25.6405 31.6435 26.6826V32.7371C30.2923 32.7527 28.9878 32.7957 27.6707 32.8324V27.5757C32.7184 27.0579 36.3816 24.6225 36.3854 21.7818C36.3809 19.9132 34.7762 18.1565 32.0598 17.0462C32.7813 16.3403 33.1654 15.5273 33.169 14.6975C33.1657 12.7654 31.1185 11.0507 28.0839 10.4387C27.4482 10.314 26.8221 10.2551 26.2087 10.2512C23.3384 10.2328 20.8326 11.4274 19.4423 12.7556C19.4657 12.76 19.4888 12.7605 19.5122 12.7651C22.5469 13.3771 24.5941 15.0918 24.5974 17.024C24.5938 17.8537 24.2129 18.6668 23.4913 19.3727C26.2077 20.4829 27.8123 22.2396 27.8169 24.1082C27.8145 25.9522 26.2542 27.6152 23.7901 28.7039V32.9659C22.3009 33.0303 20.8102 33.095 19.3565 33.182C19.1557 33.1817 18.9767 33.1969 18.778 33.1979V29.9879C23.8258 29.4701 27.489 27.0347 27.4927 24.194C27.4882 22.3255 25.8835 20.5688 23.1672 19.4585C23.8887 18.7526 24.2728 17.9395 24.2764 17.1098C24.2731 15.1776 22.2259 13.4629 19.1912 12.851C18.5555 12.7262 17.9262 12.6674 17.3129 12.6635C13.0194 12.6359 9.46865 15.3152 9.39276 17.113C9.39552 17.9425 9.77839 18.7554 10.4988 19.4617C7.78485 20.5726 6.18267 22.3293 6.17958 24.1972C6.18334 27.0377 9.84637 29.4733 14.8943 29.9911V33.2965C8.41949 33.7439 4.7094 35.6673 4.36169 40.162H44.2673V32.7371H35.5272V25.4336C40.575 24.9158 44.2382 22.4804 44.2419 19.6397C44.2374 17.7711 42.6327 16.0144 39.9164 14.9041C40.6379 14.1982 41.022 13.3852 41.0256 12.5554C41.0223 10.6233 38.9751 8.90855 35.9404 8.29661C35.3048 8.17185 34.6754 8.11303 34.0621 8.1091Z" fill="#333333"/>
</svg>
