<svg width="48" height="48" viewBox="0 0 48 48" fill="none" xmlns="http://www.w3.org/2000/svg">
<g clip-path="url(#clip0)">
<path fill-rule="evenodd" clip-rule="evenodd" d="M-0.0078125 0.0195312V48.0195H47.9922V0.0195312H-0.0078125ZM33.7441 7.97266C34.3582 7.9766 34.9886 8.03329 35.625 8.1582C38.6634 8.7709 40.7115 10.4893 40.7148 12.4238C40.7113 13.2546 40.3279 14.0706 39.6055 14.7773C42.3252 15.889 43.933 17.6467 43.9375 19.5176C43.9338 22.3618 40.2649 24.7999 35.2109 25.3184V32.6289H36.873V28.3887L36.2422 29.6875C36.2093 29.7569 36.0299 29.9156 35.8281 29.9082C35.7003 29.8901 35.6607 29.8527 35.6211 29.8223C35.4733 29.7047 35.4156 29.5031 35.502 29.3262L35.7383 28.8398C35.8566 28.598 35.8789 28.5543 35.9355 28.4395L36.5117 27.2598C36.582 27.1157 36.7236 27.0322 36.873 27.0293V27.0254H37.707H37.8848H38.7188C38.8689 27.0273 39.0095 27.1112 39.0801 27.2559L39.7188 28.5645C39.7336 28.5341 39.7615 28.4755 39.7793 28.4395L40.3574 27.2598C40.4277 27.1157 40.5712 27.0322 40.7207 27.0293V27.0254H41.5508H41.7285H42.5625C42.7127 27.0273 42.8571 27.1112 42.9277 27.2559L43.9375 29.3242C44.0374 29.529 43.9508 29.7751 43.7461 29.875C43.5413 29.9749 43.2972 29.8923 43.1973 29.6875L42.5625 28.3867V32.6289H43.9609V40.0645H4.00781C4.35595 35.5642 8.06805 33.6393 14.5508 33.1914V29.8809C9.49668 29.3624 5.83188 26.9221 5.82812 24.0781C5.83122 22.2079 7.43508 20.4502 10.1523 19.3379C9.43107 18.6308 9.04768 17.8169 9.04492 16.9863C9.12091 15.1864 12.6758 12.5037 16.9746 12.5312C17.5887 12.5352 18.2171 12.5958 18.8535 12.7207C21.8919 13.3334 23.942 15.0498 23.9453 16.9844C23.9417 17.8151 23.5583 18.6292 22.8359 19.3359C25.5556 20.4476 27.1615 22.2053 27.166 24.0762C27.1623 26.9204 23.4934 29.3605 18.4395 29.8789V33.0918C18.6384 33.0908 18.8205 33.0758 19.0215 33.0762C20.477 32.9891 21.9679 32.9239 23.459 32.8594V28.5918C25.9262 27.5017 27.4878 25.8365 27.4902 23.9902C27.4857 22.1194 25.8799 20.3616 23.1602 19.25C23.8826 18.5432 24.264 17.7292 24.2676 16.8984C24.2643 14.9639 22.2161 13.2455 19.1777 12.6328C19.1543 12.6282 19.1289 12.6294 19.1055 12.625C20.4975 11.2952 23.007 10.0988 25.8809 10.1172C26.495 10.1211 27.1214 10.1798 27.7578 10.3047C30.7962 10.9174 32.8483 12.6338 32.8516 14.5684C32.848 15.3991 32.4607 16.2132 31.7383 16.9199C34.458 18.0316 36.0658 19.7893 36.0703 21.6602C36.0666 24.5043 32.3996 26.9445 27.3457 27.4629V32.7246C28.6644 32.6878 29.9695 32.6445 31.3223 32.6289V26.5684C34.4423 25.525 36.4796 23.6371 36.4824 21.5215C36.4779 19.6506 34.8701 17.8929 32.1504 16.7812C32.8728 16.0745 33.2562 15.2585 33.2598 14.4277C33.2565 12.4932 31.2064 10.7787 28.168 10.166C27.9244 10.1182 27.6843 10.0838 27.4434 10.0547C28.8979 8.90489 31.1784 7.9562 33.7441 7.97266ZM37.8164 25.0566C38.3249 25.0565 38.7383 25.4616 38.7383 25.9609C38.7383 26.4603 38.3249 26.8654 37.8164 26.8652C37.3082 26.865 36.8984 26.46 36.8984 25.9609C36.8984 25.4618 37.3082 25.0569 37.8164 25.0566ZM41.6641 25.0566C42.1726 25.0565 42.584 25.4616 42.584 25.9609C42.584 26.4603 42.1726 26.8654 41.6641 26.8652C41.1558 26.865 40.7422 26.46 40.7422 25.9609C40.7422 25.4618 41.1558 25.0569 41.6641 25.0566ZM38.7188 28.3867V32.6289H40.7207V28.3887L40.1094 29.6348C40.1089 29.6363 40.1099 29.6391 40.1094 29.6406L40.0977 29.6621L40.0859 29.6875C40.0853 29.6888 40.0807 29.6901 40.0801 29.6914C40.0409 29.7676 39.9855 29.8344 39.9023 29.875C39.8284 29.9111 39.7495 29.9171 39.6738 29.9082C39.5399 29.8925 39.4174 29.8183 39.3535 29.6875L38.7188 28.3867ZM37.6973 30.4531V32.6289H37.8945V30.4531H37.6973ZM41.541 30.4531V32.6289H41.7402V30.4531H41.541Z" fill="#333333"/>
</g>
<defs>
<clipPath id="clip0">
<rect width="48" height="48" fill="white"/>
</clipPath>
</defs>
</svg>
