<svg width="48" height="48" viewBox="0 0 48 48" fill="none" xmlns="http://www.w3.org/2000/svg">
<path d="M34.0625 8.10934C31.4999 8.0929 29.2223 9.04299 27.7695 10.1914C28.0102 10.2205 28.2509 10.2511 28.4941 10.2988C31.5288 10.9107 33.5749 12.6264 33.5781 14.5586C33.5745 15.3883 33.1922 16.2003 32.4707 16.9062C35.1871 18.0165 36.7904 19.774 36.7949 21.6425C36.7921 23.7556 34.7842 25.7177 31.668 26.7597L31.6426 32.7363C30.2915 32.7519 28.987 32.7953 27.6699 32.832V27.5761C32.7176 27.0583 36.381 24.6219 36.3848 21.7812C36.3803 19.9126 34.7769 18.1571 32.0605 17.0468C32.7821 16.3409 33.1663 15.527 33.1699 14.6972C33.1666 12.7651 31.1186 11.0514 28.084 10.4394C27.4483 10.3147 26.8223 10.2559 26.209 10.2519C23.3386 10.2335 20.8317 11.4276 19.4414 12.7558C19.4648 12.7602 19.4883 12.761 19.5117 12.7656C22.5464 13.3775 24.5944 15.0912 24.5977 17.0234C24.5941 17.8531 24.2137 18.6671 23.4922 19.373C26.2086 20.4833 27.8118 22.2388 27.8164 24.1074C27.814 25.9513 26.2552 27.6143 23.791 28.7031V32.9668C22.3018 33.0312 20.8112 33.0946 19.3574 33.1816C19.1567 33.1813 18.976 33.1962 18.7773 33.1972V29.9882C23.8251 29.4705 27.4884 27.034 27.4922 24.1933C27.4877 22.3248 25.8843 20.5692 23.168 19.459C23.8895 18.753 24.2738 17.9391 24.2773 17.1093C24.274 15.1772 22.2261 13.4635 19.1914 12.8515C18.5557 12.7268 17.9259 12.668 17.3125 12.664C13.019 12.6365 9.46847 15.3155 9.39258 17.1132C9.39534 17.9428 9.77766 18.7547 10.498 19.4609C7.78412 20.5718 6.18278 22.3293 6.17969 24.1972C6.18345 27.0378 9.84665 29.4724 14.8945 29.9902V33.2968C8.41977 33.7443 4.70903 35.6674 4.36133 40.1621H44.2676V32.7363H35.5273V25.4336C40.5751 24.9158 44.2384 22.4793 44.2422 19.6386C44.2377 17.7701 42.6324 16.0145 39.916 14.9043C40.6375 14.1984 41.0218 13.3844 41.0254 12.5547C41.0221 10.6225 38.9761 8.90878 35.9414 8.29684C35.3057 8.17208 34.6759 8.11328 34.0625 8.10934ZM34.0977 8.43356C34.7001 8.38612 35.2288 8.49528 35.9043 8.58395C38.8491 9.2678 40.6451 10.9101 40.6484 12.6445C40.6449 13.4742 39.9188 14.2882 39.1973 14.9941C41.9136 16.1044 43.8959 17.8072 43.9004 19.6757C43.8983 21.3006 41.3745 23.9782 37.3398 24.7265C35.6725 25.0358 35.8443 24.8674 34.9805 25.6992L35.0195 33.2715L43.793 33.2754L43.7676 39.6621L5.08984 39.6875C5.43755 34.8496 11.8238 33.7888 15.3945 33.7285L15.3555 29.6015C9.76826 28.9759 6.66392 26.7975 6.66016 23.957C6.66325 22.0891 8.56733 20.7222 11.2812 19.6113C10.5609 18.9051 9.62616 17.7676 9.84961 16.9687C10.3372 15.2255 13.2026 13.0349 17.4961 13.0625C18.1094 13.0664 18.5753 13.0881 19.2109 13.2129C21.1905 13.4562 23.7192 15.2028 23.875 16.957C23.7995 18.6137 23.0086 18.9816 22.2871 19.6875C25.2911 20.582 27.0228 22.2896 27.0273 24.1582C27.0236 26.9989 23.3524 29.0896 18.3047 29.6074L18.2695 33.6308C20.269 33.5217 22.2274 33.4568 24.291 33.4238L24.248 28.959C26.7122 27.8702 28.273 26.0275 28.2754 24.1836C28.2708 22.315 26.9234 20.3876 24.207 19.2773C24.9031 18.5841 25.0257 17.6227 25.0293 16.7929C24.8862 14.937 23.2222 13.1842 20.1875 12.5722C20.9607 11.8835 23.4863 10.6233 26.0859 10.6562C26.8251 10.6062 27.5733 10.7033 28.209 10.8281C31.0639 11.44 32.7874 13.4477 32.7188 14.8945C32.7152 15.7242 31.9715 16.4835 31.25 17.1894C33.9664 18.2997 35.8783 19.8404 35.8828 21.709C35.8791 24.5496 32.2352 26.6501 27.1875 27.1679L27.1445 33.4179C28.4616 33.3812 30.8383 33.3652 32.1895 33.3496L32.209 27.0078C35.3252 25.9657 37.2609 23.7576 37.2637 21.6445C37.2591 19.7759 35.9234 17.8192 33.207 16.709C33.9286 16.003 34.0433 15.2067 34.0469 14.3769C33.7919 12.1212 31.8706 10.6588 28.8359 10.0468C29.161 9.56288 31.644 8.39048 34.0977 8.43356Z" fill="#333333"/>
</svg>
