<svg width="48" height="48" viewBox="0 0 48 48" fill="none" xmlns="http://www.w3.org/2000/svg">
<path d="M34.0234 8.0217C31.4576 8.00524 29.1765 8.95439 27.722 10.1042C27.963 10.1333 28.2037 10.1666 28.4472 10.2144C31.4856 10.8271 33.535 12.5429 33.5383 14.4774C33.5347 15.3082 33.1508 16.1226 32.4284 16.8294C35.1481 17.941 36.7555 19.6993 36.76 21.5701C36.7572 23.6858 34.7204 25.5738 31.6003 26.6171V32.6784C30.2476 32.694 28.9427 32.7372 27.624 32.7739V27.5114C32.6779 26.9929 36.3447 24.554 36.3484 21.7098C36.3439 19.8389 34.7365 18.0807 32.0168 16.9691C32.7392 16.2623 33.1255 15.4478 33.1291 14.6171C33.1258 12.6825 31.074 10.9668 28.0356 10.3541C27.3992 10.2292 26.773 10.1694 26.1589 10.1654C23.285 10.147 20.7767 11.3444 19.3847 12.6742C19.4081 12.6786 19.4323 12.677 19.4557 12.6816C22.4941 13.2943 24.5436 15.0125 24.5468 16.9471C24.5432 17.7778 24.1618 18.5923 23.4394 19.299C26.1591 20.4107 27.764 22.1689 27.7686 24.0398C27.7662 25.886 26.2055 27.5508 23.7383 28.6409V32.9087C22.2473 32.9732 20.7545 33.0372 19.2989 33.1243C19.098 33.124 18.9172 33.1405 18.7183 33.1415V29.9271C23.7722 29.4087 27.4414 26.9697 27.4452 24.1255C27.4407 22.2547 25.8333 20.4964 23.1136 19.3848C23.836 18.678 24.2198 17.8636 24.2234 17.0328C24.2201 15.0983 22.1707 13.3825 19.1323 12.7698C18.4959 12.6449 17.8673 12.5851 17.2532 12.5812C12.9544 12.5536 9.39856 15.2353 9.32258 17.0353C9.32534 17.8658 9.7087 18.6802 10.43 19.3872C7.71271 20.4995 6.10884 22.2578 6.10574 24.128C6.1095 26.972 9.77606 29.4111 14.8302 29.9296V33.2395C8.34743 33.6874 4.63354 35.6139 4.2854 40.1141H44.2398V32.6784H42.8409V28.435L43.4754 29.736C43.5754 29.9407 43.8195 30.0245 44.0242 29.9246C44.229 29.8247 44.3153 29.5781 44.2153 29.3734L43.2059 27.3056C43.1353 27.1609 42.991 27.0772 42.8409 27.0753H42.0079H41.829H40.9985V27.0778C40.849 27.0807 40.7062 27.164 40.6359 27.3081L40.0577 28.489C40.04 28.525 40.0113 28.5835 39.9965 28.6139L39.3595 27.3056C39.2889 27.161 39.147 27.0773 38.9969 27.0753H38.1639H37.985H37.152V27.0778C37.0026 27.0807 36.8597 27.1641 36.7894 27.3081L36.2137 28.489C36.157 28.6038 36.136 28.6465 36.0177 28.8884L35.78 29.3759C35.6937 29.5529 35.7523 29.7533 35.9001 29.8708C35.9397 29.9013 35.978 29.9385 36.1059 29.9566C36.3076 29.964 36.4871 29.8055 36.5199 29.7361L37.152 28.4376V32.6785H35.4885V25.3677C40.5424 24.8493 44.2116 22.4103 44.2153 19.5661C44.2108 17.6953 42.6035 15.9371 39.8837 14.8254C40.6062 14.1186 40.99 13.3042 40.9936 12.4734C40.9903 10.5389 38.9409 8.82069 35.9025 8.208C35.2661 8.08308 34.6375 8.02574 34.0234 8.0218V8.0217ZM38.0953 25.1055C37.587 25.1057 37.1765 25.5104 37.1765 26.0095C37.1765 26.5086 37.587 26.9133 38.0953 26.9136C38.6038 26.9137 39.0165 26.5089 39.0165 26.0095C39.0165 25.5101 38.6038 25.1053 38.0953 25.1055ZM41.9417 25.1055C41.4335 25.1057 41.0205 25.5104 41.0205 26.0095C41.0205 26.5086 41.4335 26.9133 41.9417 26.9136C42.4503 26.9137 42.863 26.5089 42.8629 26.0095C42.863 25.5101 42.4503 25.1053 41.9417 25.1055ZM38.9969 28.435L39.6314 29.736C39.6953 29.8668 39.8184 29.9407 39.9524 29.9565C40.028 29.9654 40.1063 29.9608 40.1802 29.9246C40.2634 29.884 40.3198 29.817 40.3591 29.7409C40.3597 29.7396 40.3633 29.7373 40.3639 29.736L40.3762 29.7115L40.3885 29.6894C40.3891 29.6879 40.388 29.686 40.3885 29.6845L40.9986 28.4375V32.6784H38.9969V28.435ZM37.9752 30.5028H38.1737V32.6784H37.9752V30.5028ZM41.8192 30.5028H42.0177V32.6784H41.8192V30.5028Z" fill="#333333"/>
</svg>
