<svg width="48" height="48" viewBox="0 0 48 48" fill="none" xmlns="http://www.w3.org/2000/svg">
<path fill-rule="evenodd" clip-rule="evenodd" d="M48 0H0V48H48V0ZM26.7 6.57619C26.7 6.35568 26.4701 6.21052 26.271 6.30535L24 7.38701L21.729 6.30535C21.5299 6.21052 21.3 6.35568 21.3 6.57619V8.19783C21.3 8.41835 21.5299 8.5635 21.729 8.46868L24 7.38701L26.271 8.46868C26.4701 8.5635 26.7 8.41835 26.7 8.19783V6.57619ZM26.4445 17.7255C25.721 18.209 24.8703 18.467 24 18.467C22.8331 18.467 21.7139 18.0034 20.8888 17.1783C20.0636 16.3531 19.6 15.234 19.6 14.067C19.6 13.1968 19.8581 12.3461 20.3416 11.6225C20.825 10.8989 21.5122 10.335 22.3162 10.0019C23.1202 9.66892 24.0049 9.58178 24.8584 9.75156C25.7119 9.92133 26.4959 10.3404 27.1113 10.9557C27.7266 11.5711 28.1457 12.3551 28.3155 13.2086C28.4853 14.0621 28.3981 14.9468 28.0651 15.7508C27.7321 16.5548 27.1681 17.242 26.4445 17.7255ZM30.262 20.822L33.453 27.443L33.457 27.442C33.57 27.6764 33.6356 27.9308 33.6503 28.1906C33.6649 28.4504 33.6282 28.7105 33.5423 28.9561C33.4564 29.2017 33.323 29.428 33.1497 29.622C32.9763 29.8161 32.7664 29.9741 32.532 30.087C32.2976 30.1999 32.0433 30.2656 31.7835 30.2802C31.5237 30.2949 31.2636 30.2582 31.018 30.1723C30.7723 30.0864 30.5461 29.953 30.352 29.7796C30.158 29.6063 30 29.3964 29.887 29.162L28.841 26.99C29.2406 29.3802 30.0484 31.6838 31.229 33.8H28.414V39.917C28.414 40.4424 28.2053 40.9463 27.8338 41.3178C27.4623 41.6893 26.9584 41.898 26.433 41.898C25.9076 41.898 25.4038 41.6893 25.0322 41.3178C24.6607 40.9463 24.452 40.4424 24.452 39.917V33.8H23.552V39.918C23.552 40.4434 23.3433 40.9473 22.9718 41.3188C22.6003 41.6903 22.0964 41.899 21.571 41.899C21.0456 41.899 20.5418 41.6903 20.1702 41.3188C19.7987 40.9473 19.59 40.4434 19.59 39.918V33.801H16.776C17.9564 31.6846 18.7641 29.3811 19.164 26.991L18.117 29.163C18.0056 29.3997 17.8483 29.612 17.6543 29.7877C17.4604 29.9633 17.2335 30.0987 16.9869 30.1862C16.7403 30.2737 16.4788 30.3114 16.2176 30.2972C15.9563 30.2831 15.7004 30.2173 15.4647 30.1037C15.229 29.9901 15.0181 29.831 14.8443 29.6354C14.6704 29.4399 14.537 29.2118 14.4518 28.9644C14.3666 28.717 14.3312 28.4552 14.3477 28.1941C14.3642 27.933 14.4323 27.6777 14.548 27.443L17.748 20.802C17.7678 20.7612 17.7918 20.7244 17.8159 20.6874C17.8285 20.6681 17.841 20.6489 17.853 20.629C18.0091 20.3061 18.2529 20.0335 18.5565 19.8426C18.8601 19.6516 19.2113 19.5499 19.57 19.549H28.462C28.8568 19.5493 29.2418 19.6718 29.5641 19.8998C29.8864 20.1277 30.1302 20.4499 30.262 20.822Z" fill="#333333"/>
</svg>
