<?xml version="1.0" encoding="UTF-8" standalone="no"?>
<!-- Created with Inkscape (http://www.inkscape.org/) -->
<svg id="svg8" xmlns:rdf="http://www.w3.org/1999/02/22-rdf-syntax-ns#" xmlns="http://www.w3.org/2000/svg" xmlns:osb="http://www.openswatchbook.org/uri/2009/osb" height="48" viewBox="0 0 12.7 12.7" width="48" version="1.1" xmlns:cc="http://creativecommons.org/ns#" xmlns:dc="http://purl.org/dc/elements/1.1/">
 <title id="title4753">UIO-icon</title>
 <metadata id="metadata5">
  <rdf:RDF>
   <cc:Work rdf:about="">
    <dc:format>image/svg+xml</dc:format>
    <dc:type rdf:resource="http://purl.org/dc/dcmitype/StillImage"/>
    <dc:title>UIO-icon</dc:title>
    <dc:creator>
     <cc:Agent>
      <dc:title>Joaquín Urbano</dc:title>
     </cc:Agent>
    </dc:creator>
    <dc:rights>
     <cc:Agent>
      <dc:title>GPL</dc:title>
     </cc:Agent>
    </dc:rights>
   </cc:Work>
  </rdf:RDF>
 </metadata>
 <path id="text4858" d="m12.637 4.002c-4.23-0.0877-5.7493 3.8207-4.0843 14.668 0.9768 7.273-5.7704 1.702-3.7832-1.522-1.7922 2.547-0.4013 6.45 3.1543 6.454 3.9082 0.272 1.2856-11.432 3.9432-15.288 2.018-3.7725 6.171 0.4277 7.092 3.272-3.04 2.087-4.857 5.535-4.857 9.221-0.001 6.181 5.014 11.191 11.201 11.191 6.186 0 11.201-5.01 11.201-11.191s-5.015-11.192-11.201-11.192c-1.916 0.0021-3.8 0.495-5.471 1.432-1.106-3.0452-2.666-6.1064-5.217-6.7716-0.713-0.167-1.374-0.2609-1.978-0.2734zm12.666 6.129c4.889 0.003 9.153 3.322 10.351 8.058-2.988 0.18-4.827 0.201-7.013-1.142-0.914-3.008-2.787-4.138-3.69-0.193-4.592 0.909-4.812 1.505-9.273-0.514-0.009-0.004-0.015-0.008-0.024-0.012-0.01-0.005-0.02-0.008-0.029-0.012 1.748-3.766 5.522-6.179 9.678-6.185zm1.267 4.754c0.548-0.036 1.122 1.019 1.619 2.418 2.081 1.86 5.347 1.519 7.581 1.406 0.142 0.69 0.215 1.393 0.218 2.098 0.001 5.896-4.784 10.676-10.685 10.675-5.901 0-10.684-4.78-10.684-10.675 0.002-1.38 0.272-2.747 0.795-4.024l0.051 0.024c4.763 2.442 6.745 0.896 9.926 0.496 0.344-1.702 0.753-2.39 1.179-2.418zm-5.029 4.65c-0.579 0.001-1.048 0.47-1.049 1.049 0 0.58 0.469 1.05 1.049 1.051 0.581 0 1.051-0.47 1.051-1.051-0.001-0.58-0.471-1.049-1.051-1.049zm7.654 0c-0.579 0.001-1.048 0.47-1.049 1.049 0 0.58 0.47 1.05 1.049 1.051 0.581 0 1.052-0.47 1.051-1.051 0-0.58-0.471-1.049-1.051-1.049zm-7.226 5.647c-0.173 0.015-0.33 0.185-0.307 0.461 0.142 1.384 1.756 2.455 3.699 2.457 1.945-0.001 3.559-1.072 3.701-2.457-0.819 1.157-2.1 1.914-3.701 1.947-1.549-0.001-2.842-0.846-2.982-1.947-0.047-0.339-0.237-0.477-0.41-0.461zm-14.268 10.164c-0.7751 0-1.3696 0.257-1.7832 0.771-0.4104 0.515-0.6153 1.269-0.6153 2.262v1.309c0.0098 0.954 0.2205 1.687 0.6309 2.199 0.4103 0.511 1.0022 0.767 1.7773 0.767 0.7849 0 1.382-0.262 1.7891-0.783s0.609-1.272 0.609-2.256v-1.308c-0.009-0.955-0.2182-1.688-0.6285-2.196-0.4104-0.511-1.0042-0.765-1.7793-0.765zm21.123 0c-0.775 0-1.369 0.257-1.783 0.771-0.41 0.515-0.615 1.269-0.615 2.262v1.309c0.01 0.954 0.22 1.687 0.631 2.199 0.41 0.511 1.002 0.767 1.777 0.767 0.785 0 1.382-0.262 1.789-0.783s0.609-1.272 0.609-2.256v-1.308c-0.009-0.955-0.218-1.688-0.628-2.196-0.411-0.511-1.005-0.765-1.78-0.765zm-4.845 0.088l-2.946 1.054v1.149l1.686-0.524v5.444h1.412v-7.123h-0.152zm-12.291 0.009l-0.411 3.616 1.123 0.277 0.137-0.127c0.209-0.176 0.481-0.264 0.817-0.264 0.364 0 0.647 0.108 0.845 0.323 0.199 0.215 0.297 0.523 0.297 0.927 0 0.42-0.085 0.748-0.258 0.979-0.172 0.228-0.419 0.342-0.738 0.342-0.287 0-0.52-0.082-0.699-0.245-0.176-0.166-0.278-0.397-0.307-0.693h-1.398c0.013 0.404 0.126 0.762 0.338 1.078 0.215 0.316 0.507 0.563 0.875 0.739 0.368 0.172 0.767 0.259 1.197 0.259 0.492 0 0.918-0.1 1.279-0.299 0.362-0.201 0.638-0.484 0.83-0.845 0.196-0.365 0.293-0.777 0.293-1.237 0-0.755-0.192-1.341-0.576-1.761s-0.914-0.631-1.592-0.631c-0.378 0-0.735 0.088-1.07 0.267l0.176-1.527h2.828v-1.178h-3.986zm20.029 0l2.336 4.534v2.58h1.488v-2.58l2.336-4.534h-1.602l-1.48 3.205-1.471-3.205h-1.607zm-24.016 1.045c0.3419 0 0.5923 0.136 0.7519 0.407 0.1629 0.267 0.2442 0.693 0.2442 1.283v1.691c-0.0065 0.557-0.0852 0.97-0.2383 1.24-0.1531 0.271-0.4028 0.407-0.7481 0.407-0.3484 0-0.6021-0.14-0.7617-0.42-0.1563-0.284-0.2344-0.716-0.2344-1.295v-1.731c0.0098-0.544 0.0918-0.941 0.2481-1.195 0.1596-0.257 0.4061-0.387 0.7383-0.387zm21.123 0c0.342 0 0.593 0.136 0.752 0.407 0.163 0.267 0.246 0.693 0.246 1.283v1.691c-0.006 0.557-0.087 0.97-0.24 1.24-0.153 0.271-0.403 0.407-0.748 0.407-0.348 0-0.602-0.14-0.762-0.42-0.156-0.284-0.234-0.716-0.234-1.295v-1.731c0.01-0.544 0.094-0.941 0.25-1.195 0.159-0.257 0.404-0.387 0.736-0.387zm11.354 0.684c-0.629 0-1.139 0.159-1.53 0.474-0.387 0.313-0.58 0.703-0.58 1.172 0 0.805 0.628 1.34 1.885 1.604 0.378 0.078 0.651 0.166 0.82 0.267 0.173 0.098 0.26 0.234 0.26 0.407 0 0.166-0.071 0.3-0.211 0.404-0.137 0.101-0.339 0.152-0.609 0.152-0.29 0-0.523-0.067-0.695-0.201-0.173-0.133-0.265-0.325-0.278-0.576h-1.34c0 0.319 0.1 0.618 0.295 0.895 0.196 0.273 0.463 0.49 0.805 0.65 0.345 0.156 0.741 0.234 1.184 0.234 0.654 0 1.188-0.149 1.601-0.445 0.414-0.3 0.621-0.69 0.621-1.172 0-0.674-0.373-1.148-1.119-1.422-0.241-0.088-0.537-0.166-0.889-0.234-0.351-0.072-0.604-0.156-0.753-0.25-0.147-0.098-0.219-0.225-0.219-0.381 0-0.166 0.065-0.303 0.195-0.41 0.13-0.108 0.315-0.162 0.553-0.162 0.277 0 0.479 0.067 0.609 0.201 0.13 0.13 0.196 0.296 0.196 0.498h1.412c0-0.505-0.202-0.915-0.606-1.231-0.4-0.315-0.936-0.474-1.607-0.474zm-23.313 1.769v1.137h2.752v-1.137h-2.752z" transform="scale(.26458)" stroke-width=".99999" fill="#333"/>
</svg>
