<?xml version="1.0" encoding="UTF-8" standalone="no"?>
<!-- Created with Inkscape (http://www.inkscape.org/) -->
<svg id="svg8" xmlns:rdf="http://www.w3.org/1999/02/22-rdf-syntax-ns#" xmlns="http://www.w3.org/2000/svg" xmlns:osb="http://www.openswatchbook.org/uri/2009/osb" height="48" width="48" version="1.1" xmlns:cc="http://creativecommons.org/ns#" viewBox="0 0 12.7 12.7" xmlns:dc="http://purl.org/dc/elements/1.1/">
 <title id="title4753">UIO-icon</title>
 <metadata id="metadata5">
  <rdf:RDF>
   <cc:Work rdf:about="">
    <dc:format>image/svg+xml</dc:format>
    <dc:type rdf:resource="http://purl.org/dc/dcmitype/StillImage"/>
    <dc:title>UIO-icon</dc:title>
    <dc:creator>
     <cc:Agent>
      <dc:title>Joaquín Urbano</dc:title>
     </cc:Agent>
    </dc:creator>
    <dc:rights>
     <cc:Agent>
      <dc:title>GPL</dc:title>
     </cc:Agent>
    </dc:rights>
   </cc:Work>
  </rdf:RDF>
 </metadata>
 <g id="layer1" transform="translate(0,-284.3)">
  <path id="rect4852" d="m12.637 4v0.002c-4.23-0.0877-5.7493 3.8207-4.0843 14.668 0.9768 7.273-5.7704 1.702-3.7832-1.522-1.7922 2.547-0.4013 6.45 3.1543 6.454 3.9082 0.272 1.2856-11.432 3.9432-15.288 2.019-3.7743 6.176 0.4315 7.094 3.276-3.008 2.067-4.851 5.499-4.856 9.213 0 6.184 5.014 11.197 11.198 11.197s11.197-5.013 11.197-11.197c-0.004-5.815-4.458-10.66-10.252-11.151-0.277-0.0261-0.554-0.0385-0.832-0.0426-0.038-0.0005-0.075-0.0078-0.113-0.0078-0.005 0-0.015 0.0039-0.02 0.0039-1.913 0.1523-3.432 0.3088-5.012 1.2015 0.002 0 0.004 0.001 0.006 0.002-0.151 0.076-0.296 0.159-0.443 0.242-1.107-3.0473-2.666-6.1119-5.219-6.7776-0.713-0.167-1.374-0.2609-1.978-0.2734zm14.07 10.5c0.512 0.045 0.977 1.381 1.482 2.803 2.109 1.885 4.802 1.537 7.038 1.429 0.145 0.681 0.22 1.375 0.224 2.071 0.001 5.605-4.543 10.149-10.148 10.148-5.605 0-10.147-4.544-10.147-10.148 0.003-1.298 0.254-2.583 0.74-3.785 4.905 2.352 6.301 0.687 9.495 0.285 0.492-2.093 0.918-2.838 1.316-2.803zm-5.166 5.035c-0.579 0.001-1.048 0.47-1.049 1.049 0 0.58 0.469 1.05 1.049 1.051 0.581 0 1.051-0.47 1.051-1.051-0.001-0.58-0.471-1.049-1.051-1.049zm7.654 0c-0.579 0.001-1.048 0.47-1.049 1.049 0 0.58 0.47 1.05 1.049 1.051 0.581 0 1.052-0.47 1.051-1.051 0-0.58-0.471-1.049-1.051-1.049zm-7.226 5.647c-0.173 0.015-0.33 0.185-0.307 0.461 0.142 1.384 1.756 2.455 3.699 2.457 1.945-0.001 3.559-1.072 3.701-2.457-0.819 1.157-2.1 1.914-3.701 1.947-1.549-0.001-2.842-0.846-2.982-1.947-0.047-0.339-0.237-0.477-0.41-0.461zm-17.969 8.818v10h40v-10h-40zm3.7031 1.33c0.7751 0 1.369 0.256 1.7793 0.768 0.4104 0.508 0.6196 1.239 0.6286 2.193v1.309c0 0.983-0.202 1.736-0.609 2.257-0.4071 0.522-1.0042 0.782-1.7891 0.782-0.7751 0-1.367-0.257-1.7774-0.768-0.4103-0.511-0.621-1.243-0.6308-2.197v-1.311c0-0.993 0.2049-1.747 0.6152-2.261 0.4136-0.515 1.0081-0.772 1.7832-0.772zm21.125 0c0.775 0 1.367 0.256 1.777 0.768 0.411 0.508 0.622 1.239 0.631 2.193v1.309c0 0.983-0.204 1.736-0.611 2.257-0.407 0.522-1.002 0.782-1.787 0.782-0.775 0-1.369-0.257-1.779-0.768-0.411-0.511-0.621-1.243-0.631-2.197v-1.311c0-0.993 0.207-1.747 0.617-2.261 0.414-0.515 1.008-0.772 1.783-0.772zm-4.848 0.088h0.153v7.123h-1.412v-5.441l-1.686 0.521v-1.148l2.945-1.055zm-12.291 0.01h3.987v1.177h-2.828l-0.176 1.53c0.335-0.179 0.692-0.27 1.07-0.27 0.678 0 1.208 0.211 1.592 0.631s0.576 1.008 0.576 1.764c0 0.459-0.097 0.871-0.293 1.236-0.192 0.362-0.468 0.642-0.83 0.844-0.361 0.199-0.787 0.299-1.279 0.299-0.43 0-0.829-0.087-1.197-0.26-0.368-0.176-0.661-0.421-0.875-0.736-0.212-0.316-0.323-0.677-0.336-1.081h1.396c0.029 0.297 0.133 0.528 0.309 0.694 0.179 0.163 0.41 0.244 0.697 0.244 0.319 0 0.566-0.114 0.738-0.342 0.173-0.231 0.26-0.556 0.26-0.976 0-0.404-0.1-0.713-0.299-0.928-0.198-0.215-0.481-0.324-0.846-0.324-0.335 0-0.606 0.089-0.814 0.265l-0.137 0.127-1.125-0.279 0.41-3.615zm20.03 0h1.607l1.471 3.205 1.48-3.205h1.602l-2.334 4.533v2.58h-1.49v-2.58l-2.336-4.533zm-24.016 1.045c-0.3322 0-0.5767 0.129-0.7363 0.386-0.1563 0.254-0.2402 0.654-0.25 1.198v1.728c0 0.58 0.078 1.012 0.2344 1.295 0.1596 0.28 0.4132 0.42 0.7617 0.42 0.3452 0 0.595-0.136 0.748-0.406 0.1531-0.271 0.2338-0.684 0.2403-1.24v-1.69c0-0.589-0.0813-1.018-0.2442-1.285-0.1596-0.27-0.4119-0.406-0.7539-0.406zm21.125 0c-0.332 0-0.579 0.129-0.738 0.386-0.156 0.254-0.24 0.654-0.25 1.198v1.728c0 0.58 0.078 1.012 0.234 1.295 0.16 0.28 0.415 0.42 0.764 0.42 0.345 0 0.593-0.136 0.746-0.406 0.153-0.271 0.234-0.684 0.24-1.24v-1.69c0-0.589-0.081-1.018-0.244-1.285-0.16-0.27-0.41-0.406-0.752-0.406zm11.352 0.685c0.671 0 1.207 0.157 1.607 0.473 0.404 0.316 0.606 0.726 0.606 1.23h-1.411c0-0.202-0.067-0.367-0.197-0.498-0.13-0.133-0.332-0.199-0.609-0.199-0.238 0-0.423 0.053-0.553 0.16-0.13 0.108-0.195 0.244-0.195 0.41 0 0.157 0.074 0.285 0.22 0.383 0.15 0.095 0.401 0.177 0.752 0.248 0.352 0.069 0.648 0.147 0.889 0.235 0.746 0.273 1.119 0.747 1.119 1.421 0 0.482-0.207 0.873-0.621 1.172-0.414 0.297-0.947 0.446-1.601 0.446-0.443 0-0.837-0.078-1.182-0.235-0.342-0.159-0.611-0.377-0.807-0.65-0.195-0.277-0.293-0.575-0.293-0.895h1.338c0.013 0.251 0.107 0.445 0.279 0.579 0.173 0.133 0.404 0.199 0.694 0.199 0.27 0 0.472-0.05 0.609-0.151 0.14-0.104 0.211-0.24 0.211-0.406 0-0.173-0.087-0.308-0.26-0.406-0.169-0.101-0.442-0.19-0.82-0.268-1.257-0.264-1.885-0.799-1.885-1.603 0-0.469 0.193-0.859 0.58-1.172 0.391-0.316 0.901-0.473 1.53-0.473zm-23.311 1.768h2.75v1.138h-2.75v-1.138z" fill-rule="evenodd" transform="matrix(.26458 0 0 .26458 0 284.3)" fill="#333"/>
 </g>
</svg>
