<?xml version="1.0" encoding="UTF-8" standalone="no"?>
<!-- Created with Inkscape (http://www.inkscape.org/) -->
<svg id="svg8" xmlns:rdf="http://www.w3.org/1999/02/22-rdf-syntax-ns#" xmlns="http://www.w3.org/2000/svg" height="48" viewBox="0 0 12.7 12.7" width="48" version="1.1" xmlns:cc="http://creativecommons.org/ns#" xmlns:dc="http://purl.org/dc/elements/1.1/">
 <title id="title4753">UIO-icon</title>
 <metadata id="metadata5">
  <rdf:RDF>
   <cc:Work rdf:about="">
    <dc:format>image/svg+xml</dc:format>
    <dc:type rdf:resource="http://purl.org/dc/dcmitype/StillImage"/>
    <dc:title>UIO-icon</dc:title>
    <dc:creator>
     <cc:Agent>
      <dc:title>Joaquín Urbano</dc:title>
     </cc:Agent>
    </dc:creator>
    <dc:rights>
     <cc:Agent>
      <dc:title>GPL</dc:title>
     </cc:Agent>
    </dc:rights>
   </cc:Work>
  </rdf:RDF>
 </metadata>
 <path id="text4858" d="m20.012 3c0.029425 0.10257 0.066474 0.19606 0.10938 0.2832l0.001953 0.0019531c0.042597 0.086193 0.089914 0.16679 0.14062 0.24219l0.001953 0.0019531c0.30699 0.45535 0.7152 0.75353 0.66797 1.3672-1.2675-0.47669-2.1822-0.18763-3.3555-0.15039-0.28633 0.0090892-0.5834 0.0070037-0.91016-0.029297 0.1942 0.096779 0.37624 0.1628 0.55273 0.2168 0.90184 0.27589 1.6057 0.099166 2.4023 0.37695-3.3228 0.98836-5.2281 3.2688-5.6191 6.7754-0.086341 1.6876-0.094329 3.3809-0.083984 5.0723l-0.21484-0.058594c-0.75754-0.20649-1.0145 0.18027-0.93164 1.4043 0.014633 0.21617 0.054493 0.41786 0.087891 0.62305h-0.015625c0.015709 0.056931 0.024117 0.1113 0.039062 0.16797 0.026534 0.13978 0.060582 0.27274 0.095703 0.40625 0.71082 3.031 0.36792 5.7015-0.13477 8.3164v0.003906c-0.06075 0.25918 0.24158 0.35305 0.51367 0 0.24774-0.29198 0.48883-0.52448 0.72656-0.73047-0.10079 0.91336-0.24506 1.8119-0.41602 2.7012v0.003906c-0.06075 0.25918 0.24158 0.35305 0.51367 0 0.65832-0.77587 1.2786-1.224 1.873-1.459 0.26623 0.82152 0.49617 1.6469 0.69531 2.4746v0.003906c0.051784 0.26112 0.36687 0.22105 0.46875-0.21289 0.28796-1.0105 0.68179-1.6876 1.1445-2.1484 0.59297 0.54795 1.2268 1.0283 1.9004 1.418 2.145 1.0865 4.4582 1.3928 7.3887 0.003906 0.74729-0.39381 1.3978-0.87819 1.9805-1.4238 0.46067 0.46073 0.85366 1.1355 1.1406 2.1426 0.10188 0.43394 0.41697 0.47401 0.46875 0.21289v-0.003906c0.19914-0.82773 0.42908-1.6531 0.69531-2.4746 0.59444 0.23496 1.2147 0.68311 1.873 1.459 0.2721 0.35305 0.57442 0.25918 0.51367 0v-0.003906c-0.17096-0.88929-0.31522-1.7878-0.41602-2.7012 0.23774 0.20599 0.47882 0.43849 0.72656 0.73047 0.2721 0.35305 0.57442 0.25918 0.51367 0v-0.003906c-0.51188-2.6627-0.85958-5.3823-0.095703-8.4824 0.003762-0.013986 0.007943-0.022923 0.011719-0.037109 0.015608-0.068139 0.036086-0.16949 0.054688-0.24805 0.01111-0.041615 0.017775-0.08129 0.029297-0.12305h-0.001953c0.232-0.985 0.523-2.473-0.92-2.04-0.307-2.848 0.057-4.237-0.709-7.1073-0.325-0.9257-0.613-1.4459-1.217-2.2012-0.988-1.2348-2.438-2.1-4.33-2.584-1.011-0.2584-2.537-0.384-4.059-0.3769-0.20853 0.00097169-0.41409 0.0096975-0.62109 0.015625 0.003177-0.0014559 0.00857-0.0024479 0.011719-0.0039063 0.89351-0.80379 1.3387-0.76865 2.4629-1.2012 0.3157-0.12147 0.66007-0.26219 1.1133-0.49023-0.2929 0.094369-0.54496 0.15007-0.77148 0.18555-0.056145 0.0087914-0.10154 0.0096837-0.1543 0.015625-0.162 0.0184-0.317 0.0305-0.453 0.0274-0.054-0.0012-0.104-0.0062-0.154-0.0097-0.123-0.0089-0.242-0.0178-0.35-0.0352-0.043-0.0069-0.087-0.0141-0.129-0.0215-0.141-0.0253-0.28-0.0468-0.414-0.0644-0.047-0.0062-0.098-0.0083-0.146-0.0118-0.083-0.006-0.168-0.0092-0.256-0.0039-0.061145 0.0038155-0.13001 0.022042-0.19531 0.033203-0.083688 0.014225-0.16471 0.021594-0.25781 0.050781-0.15751 0.049518-0.33007 0.12217-0.52539 0.22656-0.232 0.1243-0.493 0.2877-0.801 0.5138-0.283-0.5911-1.155-0.4943-1.796-0.7383-0.006-0.0023-0.012-0.0055-0.018-0.0078-0.078-0.0307-0.154-0.067-0.225-0.1094-0.08-0.0505-0.156-0.1065-0.22-0.1797zm3.873 0.74609c0.067883 0.1543-1.1669 0.79173-1.1504 1.2812 0.00854 0.25336 0.52802 0.22743 1.125 0.22461 1.4453-0.0068277 2.8955 0.11245 3.8555 0.36133 1.7976 0.46606 3.1747 1.299 4.1133 2.4883 0.57403 0.72737 0.84783 1.2295 1.1562 2.1211 0.66968 2.708 0.62105 4.0305 0.71289 6.5449-0.003577 0.005653-0.020992 0.020565-0.023438 0.025391-0.434 0.43-0.533 0.677-0.533 0.677-0.091608-1.1208-0.015651-1.6529-0.43164-2.0625-3.8117-3.7558-5.2074-1.0212-10.77-2.2598-0.049124 0.03036-0.016239 0.2669 0.085938 0.47656 0.090335 0.18536 0.5267 1.1554 0.64258 1.5879 0.26267 0.98039 0.068763 0.90319-0.61523 0.29492-1.5462-1.375-3.0407-1.8966-4.6621-2.4688-0.9748-0.34401-1.251 0.56339-1.3457 0.73633-0.13052 0.23831-0.87907 1.4009-1.0312 2.3828l-0.21289 1.0996-0.37305-0.41016c-0.066069-1.5656-0.094772-2.8859 0.017578-4.5859 0.38145-3.4682 2.2692-5.7013 5.5859-6.6094 0.074765-0.020469 0.40969-0.45474 0.61328-0.32812 0.36587 0.22753 0.65011 0.0001322 0.70898-0.11523 0.32849-0.64373-0.22194-0.95071-0.042969-1.0859 0.57006-0.43073 0.60754 0.86991 1.2734 0.3418 0.53471-0.42407 1.2568-0.8168 1.3008-0.7168zm8.4922 12.008c0.14255 0.1596 0.32441 1.1526 0.41602 2.2734 0.029165 0.35684 0.085382 0.62409 0.125 0.59961 0.039332-0.024308 0.15467-0.21053 0.25781-0.41406s0.31652-0.49482 0.47266-0.64648l0.078125-0.076172c0.003279 0.06932 0.002276 0.092687 0.005859 0.16406 2.2971-0.59967 0.36794 2.7702-0.27734 3.7852-0.3935 0.42209-0.46755 0.55969-0.78906 1.4453-1.1789 2.7284-2.593 5.2806-5.252 6.7012-2.7839 1.3377-4.9798 1.0425-7.0176-0.003906-2.3698-1.3898-4.2663-3.8927-5.3027-6.998-0.18894-0.56613-0.28519-0.73575-0.58398-1.0332-1.134-1.4554-2.0314-4.3389-0.052734-3.8594-0.001144-0.023902-0.0008229-0.040721-0.001953-0.064453l0.03 0.029c0.22922 0.23576 0.4936 0.53516 0.58789 0.66406l0.16992 0.23438 0.005859-0.47852c0.012367-1.3622 0.51138-2.938 1.3125-4.1445 0.33579-0.50573 0.42559-0.51784 1.4004-0.17383 1.6214 0.57219 2.9968 1.418 4.543 2.793 0.684 0.60826 0.71313 0.59114 0.71484-0.42383 0.001311-0.77626-0.13427-1.3635-0.43555-1.8848-0.1167-0.20193-0.26898-0.53247-0.21986-0.56283 5.1027 1.243 5.7467-1.6307 9.8136 2.0745zm-12.07 2.1816c-0.584-0.001-1.057 0.471-1.057 1.054 0.00021895 0.58316 0.47348 1.0555 1.0566 1.0547 0.5824-0.00021925 1.0545-0.47229 1.0547-1.0547-0.00021922-0.5824-0.47229-1.0545-1.0547-1.0547zm7.4414 0.17969c-0.5824 0.00021922-1.0545 0.47229-1.0547 1.0547 0.00021922 0.5824 0.47229 1.0545 1.0547 1.0547 0.5824-0.00021925 1.0545-0.47229 1.0547-1.0547-0.00021925-0.5824-0.47229-1.0545-1.0547-1.0547zm-14.055 3.1523c0.11857 0.16417 0.23827 0.32866 0.37695 0.46484 0.31453 0.30885 0.41439 0.48446 0.61328 1.0723 0.74579 2.2041 1.9228 4.1041 3.3848 5.5547-0.45629 0.44822-0.8442 1.0856-1.0996 2.0273-0.14394-0.85557-0.45648-1.9377-0.5918-2.4141-0.7048 0.16874-1.5141 0.64864-2.252 1.541 0.29504-1.3443 0.31337-1.9045 0.44727-3.1016-0.47422 0.38565-0.71895 0.58643-1.2715 1.127 0.59528-2.2369 0.61549-4.322 0.39258-6.2715zm20.607 0.005859c-0.22125 1.9456-0.19936 4.0261 0.39453 6.2578-0.55253-0.54053-0.79726-0.7413-1.2715-1.127 0.1339 1.1971 0.15223 1.7572 0.44727 3.1016-0.73782-0.89238-1.5471-1.3723-2.252-1.541-0.13532 0.47632-0.44786 1.5585-0.5918 2.4141-0.25505-0.94037-0.64221-1.5772-1.0977-2.0254 1.4182-1.445 2.4009-3.2875 3.252-5.2363 0.33844-0.91954 0.41781-1.0617 0.83203-1.5 0.10859-0.11489 0.19966-0.22793 0.28711-0.34375zm-13.761 4.318c0.031951 1.1772 1.5852 2.1212 3.4902 2.1211 1.9035-0.001255 3.4544-0.94483 3.4863-2.1211-2.7311 1.0274-4.9829 0.84179-6.9766 0zm-7.0918 9.7539c-0.77511 0-1.3696 0.25692-1.7832 0.77148-0.41035 0.51457-0.61523 1.2684-0.61523 2.2617v1.3105c0.00977 0.95423 0.22051 1.686 0.63086 2.1973 0.41035 0.51131 1.0022 0.76758 1.7773 0.76758 0.78488 0 1.382-0.26017 1.7891-0.78125s0.60938-1.2743 0.60938-2.2578v-1.309c-0.01-0.955-0.219-1.686-0.629-2.194-0.411-0.511-1.005-0.767-1.78-0.767zm-4.8454 0.088-2.9454 1.054v1.1484l1.6855-0.52148v5.4414h1.4122v-7.123zm15.379 0-2.9453 1.0547v1.1484l1.6855-0.52148v5.4414h1.4102v-7.123zm3.0879 0.009766-0.41016 3.6152 1.123 0.2793 0.13672-0.12695c0.20843-0.17587 0.48096-0.26562 0.81641-0.26562 0.36476 0 0.64509 0.10927 0.84375 0.32422s0.29883 0.5239 0.29883 0.92773c3e-8 0.42012-0.087157 0.74533-0.25977 0.97656-0.17261 0.22797-0.41717 0.3418-0.73633 0.3418-0.2866 0-0.5201-0.081302-0.69922-0.24414-0.177-0.167-0.281-0.398-0.31-0.694h-1.396c0.013027 0.40384 0.1262 0.76417 0.33789 1.0801 0.21495 0.31591 0.50503 0.56046 0.87305 0.73633 0.36801 0.17261 0.76737 0.25977 1.1973 0.25977 0.49177-1e-8 0.9178-0.10017 1.2793-0.29883 0.3615-0.20192 0.63988-0.48225 0.83203-0.84375 0.19541-0.36476 0.29297-0.77712 0.29297-1.2363 0-0.75557-0.19187-1.3435-0.57617-1.7637-0.3843-0.42012-0.91634-0.63086-1.5938-0.63086-0.37778 0-0.73487 0.090409-1.0703 0.26953l0.17578-1.5293h2.8301v-1.1777zm4.6504 0 2.334 4.5332v2.5801h1.4902v-2.58l2.3359-4.5332h-1.604l-1.478 3.204-1.471-3.205zm-18.271 1.0449c0.34196 0 0.59432 0.13594 0.75391 0.40625 0.16284 0.26705 0.24414 0.69568 0.24414 1.2852v1.6895c-0.006514 0.55691-0.087166 0.96992-0.24023 1.2402-0.15307 0.27031-0.40283 0.40625-0.74805 0.40625-0.34847 0-0.60214-0.13984-0.76172-0.41992-0.15632-0.28334-0.23438-0.71522-0.23438-1.2949v-1.7285c0.00977-0.54388 0.093675-0.94324 0.25-1.1973 0.15958-0.25728 0.40414-0.38672 0.73633-0.38672zm26.732 0.68555c-0.62856 0-1.1385 0.15675-1.5293 0.47266-0.38756 0.31265-0.58203 0.7029-0.58203 1.1719-1e-8 0.80442 0.62961 1.3397 1.8867 1.6035 0.37778 0.078162 0.65096 0.16662 0.82031 0.26758 0.17261 0.097703 0.25977 0.23364 0.25977 0.40625 0 0.1661-0.070896 0.30203-0.21094 0.40625-0.13678 0.10096-0.34102 0.15039-0.61133 0.15039-0.28985 0-0.52075-0.065691-0.69336-0.19922-0.173-0.134-0.265-0.328-0.278-0.579h-1.3398c0 0.31916 0.097563 0.61771 0.29297 0.89453 0.19541 0.27357 0.46468 0.49081 0.80664 0.65039 0.34522 0.15632 0.73872 0.23437 1.1816 0.23438 0.65461 0 1.1899-0.14895 1.6035-0.44531 0.41361-0.29962 0.61914-0.68987 0.61914-1.1719 0-0.67415-0.37139-1.1483-1.1172-1.4219-0.241-0.087933-0.53889-0.16598-0.89062-0.23438-0.35173-0.071649-0.60214-0.15555-0.75195-0.25-0.14655-0.097703-0.21875-0.22453-0.21875-0.38086-1e-8 -0.1661 0.065042-0.30268 0.19531-0.41016 0.13027-0.10747 0.31304-0.16016 0.55078-0.16016 0.27683 0 0.48106 0.065691 0.61133 0.19922 0.13027 0.13027 0.19531 0.29613 0.19531 0.49805h1.4121c1e-8 -0.5048-0.20163-0.91456-0.60547-1.2305-0.40058-0.31591-0.93653-0.47266-1.6074-0.47266zm-23.312 1.7676v1.1387h2.75v-1.1387z" transform="scale(.26458)" stroke-width="3.7795" fill="#333"/>
</svg>
