<?xml version="1.0" encoding="UTF-8" standalone="no"?>
<!-- Created with Inkscape (http://www.inkscape.org/) -->
<svg id="svg8" xmlns:rdf="http://www.w3.org/1999/02/22-rdf-syntax-ns#" xmlns="http://www.w3.org/2000/svg" height="48" viewBox="0 0 12.7 12.7" width="48" version="1.1" xmlns:cc="http://creativecommons.org/ns#" xmlns:dc="http://purl.org/dc/elements/1.1/">
 <title id="title4753">UIO-icon</title>
 <metadata id="metadata5">
  <rdf:RDF>
   <cc:Work rdf:about="">
    <dc:format>image/svg+xml</dc:format>
    <dc:type rdf:resource="http://purl.org/dc/dcmitype/StillImage"/>
    <dc:title>UIO-icon</dc:title>
    <dc:creator>
     <cc:Agent>
      <dc:title>Joaquín Urbano</dc:title>
     </cc:Agent>
    </dc:creator>
    <dc:rights>
     <cc:Agent>
      <dc:title>GPL</dc:title>
     </cc:Agent>
    </dc:rights>
   </cc:Work>
  </rdf:RDF>
 </metadata>
 <path id="rect973" d="m0 0v48h48v-48h-48zm24.318 4.5605c0.639 0.0008 1.253 0.077 1.854 0.1856 0.354 0.0598 0.704 0.1344 1.047 0.2246 0.142 0.0375 0.28 0.0861 0.42 0.1289 0.166 0.0508 0.333 0.0999 0.496 0.1582 0.141 0.0507 0.279 0.1077 0.418 0.1641 0.173 0.0705 0.344 0.1451 0.513 0.2246 0.118 0.0554 0.235 0.1121 0.35 0.1719 0.181 0.0939 0.358 0.1959 0.533 0.3007 0.103 0.0615 0.206 0.1203 0.307 0.1856 0.213 0.1381 0.419 0.2862 0.621 0.4414 0.054 0.0418 0.112 0.0781 0.166 0.1211 0.249 0.2001 0.487 0.4173 0.719 0.6445 0.07 0.0687 0.135 0.1437 0.203 0.2149 0.158 0.1646 0.313 0.3336 0.461 0.5117 0.085 0.102 0.166 0.208 0.248 0.3144 0.127 0.1668 0.25 0.3399 0.369 0.5176 0.075 0.1126 0.151 0.2248 0.223 0.3418 0.137 0.2227 0.266 0.4546 0.39 0.6929 0.038 0.074 0.081 0.142 0.117 0.217 0.163 0.33 0.312 0.675 0.448 1.035 0.028 0.074 0.049 0.154 0.076 0.229 0.102 0.285 0.196 0.577 0.281 0.881 0.038 0.136 0.073 0.276 0.108 0.416 0.064 0.262 0.123 0.53 0.175 0.805 0.029 0.15 0.056 0.302 0.08 0.457 0.047 0.292 0.085 0.593 0.118 0.9 0.015 0.146 0.032 0.29 0.045 0.439 0.036 0.455 0.063 0.92 0.068 1.405-0.255 8.702 2.706 10.919 1.996 13.16-2.128-1.261-4.122-1.762-6.467-1.959h-0.004c-0.122 0.09-0.236 0.19-0.365 0.271-2.305 1.444-4.372 2.828-6.043 2.823-2.44-0.076-3.666-1.096-6.437-2.842-0.129-0.081-0.239-0.182-0.358-0.274-0.001 0.001-0.002 0-0.004 0-1.52 0.116-2.888 0.354-4.234 0.832-0.269 0.096-0.536 0.201-0.805 0.317-0.537 0.232-1.075 0.506-1.623 0.83-0.71-2.241 2.25-4.458 1.994-13.16 0.255-9.8529 7.359-12.433 11.176-12.324v0.0015c0.014-0.0001 0.024-0.0005 0.037 0 0.029 0.0001 0.057 0.0036 0.086 0.0039 0.066-0.0014 0.131-0.0079 0.197-0.0079zm-8.763 7.5805l-0.008 9.488c-0.003 2.659 0.772 5.119 2.631 6.305 2.631 1.678 3.795 2.657 6.111 2.73 1.586 0.005 3.548-1.323 5.736-2.711 1.968-1.248 3.049-3.725 3.049-6.371-0.01-1.475-0.026-2.94-0.037-4.404-0.002-0.002-0.005-0.003-0.008-0.004-0.245-0.158-0.521-0.299-0.826-0.424-2.442-1.004-6.629-1.053-10.207-1.504-0.89-0.112-1.741-0.25-2.519-0.434-0.015-0.003-0.032-0.006-0.047-0.009h-0.002c-0.336-0.08-0.649-0.175-0.953-0.274-0.057-0.018-0.121-0.031-0.176-0.05-0.293-0.102-0.56-0.221-0.817-0.344-0.05-0.024-0.109-0.042-0.158-0.067-0.114-0.058-0.221-0.121-0.326-0.185-0.033-0.02-0.069-0.038-0.102-0.059-0.091-0.058-0.174-0.122-0.257-0.185-0.039-0.03-0.082-0.058-0.119-0.088-0.116-0.095-0.224-0.194-0.323-0.299-0.079-0.084-0.149-0.173-0.217-0.264-0.018-0.025-0.04-0.048-0.058-0.074-0.081-0.117-0.152-0.239-0.213-0.367l-0.002-0.002c-0.061-0.129-0.112-0.263-0.152-0.404zm4.925 4.882c0.553 0.001 1 0.448 1 1 0 0.553-0.447 1-1 1-0.552 0-0.999-0.447-1-1 0.001-0.552 0.448-0.999 1-1zm7.51 0c0.552 0.001 1 0.448 1 1 0 0.553-0.448 1-1 1s-1-0.447-1-1c0-0.552 0.448-0.999 1-1zm-3.818 4.618c0.021-0.001 0.043-0.001 0.064 0 0.497 0 0.899 0.083 0.901 0.185 0.004 0.103-0.4 0.186-0.901 0.186-0.5 0-0.906-0.083-0.902-0.186 0-0.097 0.366-0.179 0.838-0.185zm-0.233 4.005h0.223c1.738 0 3.15 0.052 3.16 0.116 0.02 0.064-1.401 0.117-3.16 0.117-1.758 0-3.178-0.053-3.158-0.117 0.005-0.061 1.285-0.111 2.935-0.116zm-0.513 5.469c0.272 0.039 0.558 0.063 0.863 0.073-0.009 0-0.02 0.003-0.029 0.003-0.293-0.009-0.569-0.035-0.834-0.076zm-19.426 2.901h39.998v10h-39.998v-10zm19.031 1.33c-0.478 0-0.907 0.101-1.285 0.306-0.378 0.202-0.67 0.482-0.879 0.84-0.205 0.358-0.306 0.755-0.306 1.188h1.416c0-0.359 0.091-0.645 0.273-0.864 0.186-0.221 0.439-0.334 0.758-0.334 0.296 0 0.524 0.093 0.683 0.276 0.16 0.179 0.241 0.426 0.241 0.742 0 0.231-0.078 0.475-0.231 0.732-0.15 0.258-0.383 0.56-0.699 0.905l-2.301 2.451v0.967h4.875v-1.137h-3.056l1.617-1.705c0.443-0.485 0.755-0.912 0.937-1.275 0.183-0.365 0.274-0.723 0.274-1.075 0-0.641-0.205-1.138-0.612-1.49-0.404-0.352-0.972-0.527-1.705-0.527zm-14.429 0.088l-2.9454 1.054v1.149l1.6836-0.524v5.442h1.4122v-7.121h-0.1504zm3.0874 0.009l-0.412 3.616 1.125 0.277 0.137-0.127c0.208-0.176 0.479-0.264 0.815-0.264 0.364 0 0.647 0.108 0.845 0.323 0.199 0.215 0.299 0.523 0.299 0.927 0 0.42-0.087 0.748-0.26 0.979-0.172 0.228-0.419 0.342-0.738 0.342-0.287 0-0.518-0.083-0.697-0.246-0.176-0.166-0.28-0.397-0.309-0.694h-1.396c0.013 0.404 0.124 0.764 0.336 1.08 0.215 0.316 0.507 0.563 0.875 0.739 0.368 0.172 0.767 0.257 1.197 0.257 0.492 0 0.918-0.099 1.279-0.298 0.362-0.201 0.638-0.483 0.83-0.844 0.196-0.365 0.295-0.777 0.295-1.237 0-0.755-0.194-1.343-0.578-1.763s-0.914-0.629-1.592-0.629c-0.378 0-0.735 0.088-1.07 0.267l0.176-1.529h2.828v-1.176h-3.985zm15.377 0l-0.41 3.616 1.123 0.277 0.137-0.127c0.208-0.176 0.481-0.264 0.816-0.264 0.365 0 0.647 0.108 0.846 0.323s0.297 0.523 0.297 0.927c0 0.42-0.085 0.748-0.258 0.979-0.172 0.228-0.419 0.342-0.738 0.342-0.287 0-0.518-0.083-0.697-0.246-0.176-0.166-0.28-0.397-0.309-0.694h-1.396c0.013 0.404 0.125 0.764 0.335 1.08 0.215 0.316 0.507 0.563 0.876 0.739 0.367 0.172 0.767 0.257 1.197 0.257 0.492 0 0.918-0.099 1.279-0.298 0.362-0.201 0.638-0.483 0.83-0.844 0.196-0.365 0.293-0.777 0.293-1.237 0-0.755-0.192-1.343-0.576-1.763s-0.914-0.629-1.592-0.629c-0.378 0-0.735 0.088-1.07 0.267l0.176-1.529h2.828v-1.176h-3.987zm4.651 0l2.336 4.534v2.578h1.49v-2.578l2.334-4.534h-1.602l-1.48 3.203-1.471-3.203h-1.607zm8.461 1.729c-0.629 0-1.137 0.159-1.528 0.474-0.387 0.313-0.582 0.703-0.582 1.172 0 0.805 0.628 1.338 1.885 1.602 0.378 0.078 0.653 0.168 0.822 0.269 0.173 0.098 0.258 0.234 0.258 0.407 0 0.166-0.069 0.3-0.209 0.404-0.137 0.101-0.341 0.152-0.611 0.152-0.29 0-0.521-0.067-0.693-0.201-0.173-0.133-0.267-0.325-0.28-0.576h-1.338c0 0.319 0.098 0.618 0.293 0.895 0.196 0.273 0.465 0.488 0.807 0.648 0.345 0.156 0.739 0.234 1.182 0.234 0.654 0 1.188-0.147 1.601-0.443 0.414-0.3 0.621-0.69 0.621-1.172 0-0.674-0.373-1.148-1.119-1.422-0.241-0.088-0.537-0.166-0.889-0.234-0.351-0.072-0.602-0.156-0.752-0.25-0.146-0.098-0.22-0.225-0.22-0.381 0-0.166 0.065-0.303 0.195-0.41 0.13-0.108 0.315-0.162 0.553-0.162 0.277 0 0.481 0.067 0.611 0.201 0.13 0.13 0.195 0.296 0.195 0.498h1.413c0-0.505-0.204-0.915-0.608-1.231-0.4-0.315-0.936-0.474-1.607-0.474zm-23.311 1.769v1.137h2.75v-1.137h-2.75z" fill-rule="evenodd" transform="scale(.26458)" fill="#333"/>
</svg>
