<?xml version="1.0" encoding="UTF-8" standalone="no"?>
<!-- Created with Inkscape (http://www.inkscape.org/) -->
<svg id="svg8" xmlns:rdf="http://www.w3.org/1999/02/22-rdf-syntax-ns#" xmlns="http://www.w3.org/2000/svg" xmlns:osb="http://www.openswatchbook.org/uri/2009/osb" height="48" width="48" version="1.1" xmlns:cc="http://creativecommons.org/ns#" viewBox="0 0 12.7 12.7" xmlns:dc="http://purl.org/dc/elements/1.1/">
 <title id="title4753">UIO-icon</title>
 <metadata id="metadata5">
  <rdf:RDF>
   <cc:Work rdf:about="">
    <dc:format>image/svg+xml</dc:format>
    <dc:type rdf:resource="http://purl.org/dc/dcmitype/StillImage"/>
    <dc:title>UIO-icon</dc:title>
    <dc:creator>
     <cc:Agent>
      <dc:title>Joaquín Urbano</dc:title>
     </cc:Agent>
    </dc:creator>
    <dc:rights>
     <cc:Agent>
      <dc:title>GPL</dc:title>
     </cc:Agent>
    </dc:rights>
   </cc:Work>
  </rdf:RDF>
 </metadata>
 <g id="layer1" transform="translate(0,-284.3)">
  <path id="rect38946" d="m0 0v48h48v-48h-48zm12.637 4c0.604 0.0125 1.265 0.1064 1.978 0.2734 2.553 0.6657 4.112 3.7303 5.219 6.7776 0.147-0.083 0.292-0.166 0.443-0.242-0.002-0.001-0.004-0.002-0.006-0.002 1.58-0.8927 3.099-1.0492 5.012-1.2015 0.005 0 0.015-0.0039 0.02-0.0039 0.038 0 0.075 0.0073 0.113 0.0078 0.278 0.0041 0.555 0.0165 0.832 0.0429 5.794 0.4907 10.248 5.3357 10.252 11.151 0 6.184-5.013 11.197-11.197 11.197s-11.198-5.013-11.198-11.197c0.005-3.714 1.848-7.146 4.856-9.213-0.918-2.8445-5.075-7.0503-7.094-3.2755-2.6576 3.8555-0.035 15.56-3.9432 15.288-3.5556-0.004-4.9465-3.907-3.1543-6.454-1.9872 3.224 4.76 8.795 3.7832 1.522-1.665-10.847-0.1457-14.756 4.0843-14.668v-0.002zm14.07 10.5c-0.398-0.035-0.824 0.71-1.316 2.803-3.194 0.402-4.59 2.067-9.495-0.285-0.486 1.202-0.737 2.487-0.74 3.785 0 5.604 4.542 10.148 10.147 10.148 5.605 0.001 10.149-4.543 10.148-10.148-0.004-0.696-0.079-1.39-0.224-2.071-2.236 0.108-4.929 0.456-7.038-1.429-0.505-1.422-0.97-2.758-1.482-2.803zm-5.166 5.035c0.58 0 1.05 0.469 1.051 1.049 0 0.581-0.47 1.051-1.051 1.051-0.58-0.001-1.049-0.471-1.049-1.051 0.001-0.579 0.47-1.048 1.049-1.049zm7.654 0c0.58 0 1.051 0.469 1.051 1.049 0.001 0.581-0.47 1.051-1.051 1.051-0.579-0.001-1.049-0.471-1.049-1.051 0.001-0.579 0.47-1.048 1.049-1.049zm-7.226 5.647c0.173-0.016 0.363 0.122 0.41 0.461 0.14 1.101 1.433 1.946 2.982 1.947 1.601-0.033 2.882-0.79 3.701-1.947-0.142 1.385-1.756 2.456-3.701 2.457-1.943-0.002-3.557-1.073-3.699-2.457-0.023-0.276 0.134-0.446 0.307-0.461zm-17.969 8.818h40v10h-40v-10zm3.7031 1.346c-0.7751 0-1.3696 0.257-1.7832 0.771-0.4103 0.515-0.6152 1.269-0.6152 2.262v1.31c0.0098 0.955 0.2205 1.686 0.6308 2.198 0.4104 0.511 1.0023 0.767 1.7774 0.767 0.7849 0 1.38-0.26 1.7871-0.781s0.611-1.274 0.611-2.258v-1.308c-0.009-0.955-0.2202-1.686-0.6305-2.194-0.4104-0.511-1.0023-0.767-1.7774-0.767zm15.379 0c-0.775 0-1.37 0.257-1.783 0.771-0.411 0.515-0.615 1.269-0.615 2.262v1.31c0.009 0.955 0.218 1.686 0.628 2.198 0.411 0.511 1.005 0.767 1.78 0.767 0.785 0 1.38-0.26 1.787-0.781s0.611-1.274 0.611-2.258v-1.308c-0.01-0.955-0.22-1.686-0.631-2.194-0.41-0.511-1.002-0.767-1.777-0.767zm-8.734 0.088l-2.948 1.054v1.149l1.686-0.522v5.442h1.412v-7.123h-0.15zm12.72 0.011l-0.412 3.616 1.125 0.279 0.137-0.127c0.208-0.176 0.479-0.264 0.814-0.264 0.365 0 0.647 0.107 0.846 0.322s0.299 0.524 0.299 0.928c0 0.42-0.087 0.745-0.26 0.977-0.172 0.228-0.419 0.342-0.738 0.342-0.287 0-0.518-0.082-0.697-0.245-0.176-0.166-0.28-0.397-0.309-0.693h-1.396c0.013 0.404 0.124 0.764 0.335 1.08 0.215 0.316 0.507 0.561 0.876 0.736 0.368 0.173 0.767 0.26 1.197 0.26 0.492 0 0.918-0.1 1.279-0.299 0.362-0.201 0.638-0.482 0.83-0.843 0.196-0.365 0.295-0.777 0.295-1.237 0-0.755-0.194-1.343-0.578-1.763s-0.914-0.631-1.592-0.631c-0.378 0-0.735 0.09-1.07 0.269l0.176-1.529h2.83v-1.178h-3.987zm4.651 0l2.334 4.534v2.58h1.49v-2.58l2.336-4.534h-1.604l-1.48 3.205-1.469-3.205h-1.607zm-24.016 1.045c0.342 0 0.5924 0.136 0.752 0.406 0.1628 0.268 0.2441 0.696 0.2441 1.286v1.689c-0.0065 0.557-0.0852 0.972-0.2383 1.242-0.153 0.271-0.4028 0.405-0.748 0.405-0.3485 0-0.6022-0.14-0.7617-0.42-0.1563-0.284-0.2344-0.716-0.2344-1.295v-1.729c0.0098-0.544 0.0917-0.943 0.248-1.197 0.1596-0.257 0.4061-0.387 0.7383-0.387zm15.379 0c0.342 0 0.592 0.136 0.752 0.406 0.163 0.268 0.244 0.696 0.244 1.286v1.689c-0.006 0.557-0.087 0.972-0.24 1.242-0.153 0.271-0.401 0.405-0.746 0.405-0.349 0-0.604-0.14-0.764-0.42-0.156-0.284-0.234-0.716-0.234-1.295v-1.729c0.01-0.544 0.093-0.943 0.25-1.197 0.159-0.257 0.406-0.387 0.738-0.387zm17.098 0.686c-0.629 0-1.139 0.156-1.53 0.472-0.387 0.313-0.582 0.705-0.582 1.174 0 0.805 0.63 1.338 1.887 1.602 0.378 0.078 0.651 0.166 0.82 0.267 0.173 0.098 0.258 0.234 0.258 0.407 0 0.166-0.069 0.302-0.209 0.406-0.137 0.101-0.341 0.15-0.611 0.15-0.29 0-0.521-0.066-0.693-0.199-0.173-0.133-0.267-0.327-0.28-0.578h-1.338c0 0.319 0.098 0.618 0.293 0.894 0.196 0.274 0.465 0.491 0.807 0.651 0.345 0.156 0.739 0.234 1.182 0.234 0.654 0 1.19-0.149 1.603-0.445 0.414-0.3 0.619-0.69 0.619-1.172 0-0.674-0.373-1.148-1.119-1.422-0.241-0.088-0.537-0.166-0.889-0.234-0.351-0.072-0.602-0.154-0.752-0.248-0.146-0.098-0.22-0.227-0.22-0.383 0-0.166 0.067-0.303 0.197-0.41 0.13-0.108 0.313-0.16 0.551-0.16 0.277 0 0.481 0.065 0.611 0.199 0.13 0.13 0.195 0.298 0.195 0.5h1.413c0-0.505-0.202-0.917-0.606-1.233-0.4-0.315-0.936-0.472-1.607-0.472zm-23.313 1.767v1.139h2.75v-1.139h-2.75z" fill-rule="evenodd" transform="matrix(.26458 0 0 .26458 0 284.3)" fill="#333"/>
 </g>
</svg>
