<svg width="48" height="48" viewBox="0 0 48 48" fill="none" xmlns="http://www.w3.org/2000/svg">
<path d="M0 0V48H48V0H0ZM19.3086 9.43555C19.42 9.43335 19.5311 9.434 19.6426 9.4375C22.2758 9.50948 24.3671 11.1353 24.3145 13.0664C24.2983 13.6168 24.1065 14.1519 23.752 14.6328V14.6367L20.9492 19.3047L19.3867 16.4277C16.7799 16.3301 14.727 14.7151 14.7793 12.8027C14.8296 10.9675 16.8087 9.49616 19.3086 9.43555ZM28.8379 10.4277C31.3169 10.4878 33.2764 11.9438 33.3262 13.7637C33.3781 15.6601 31.3428 17.2606 28.7578 17.3574L27.209 20.2129L24.4316 15.584V15.5801C24.2453 15.3274 24.1078 15.059 24.0137 14.7812L24.041 14.7344V14.7305C24.4227 14.2126 24.629 13.6337 24.6465 13.041C24.6544 12.7523 24.6097 12.4715 24.5332 12.1992C25.3379 11.1838 26.7988 10.4763 28.5039 10.4297C28.6145 10.4263 28.7274 10.4256 28.8379 10.4277ZM17.7246 21.1934C19.3938 21.1916 20.8208 22.1877 21.4199 23.6016C20.4868 24.4577 19.8894 25.6861 19.8906 27.0684C19.9368 27.4758 20.0225 27.8381 20.123 28.1816C19.4535 28.6727 18.6279 28.9737 17.7246 28.9727C16.4251 28.9725 15.2803 28.3609 14.5508 27.4258C14.6554 27.0887 14.7346 26.7381 14.7461 26.3574C14.7469 25.4131 14.4546 24.5414 13.9629 23.8223C14.5027 22.2966 15.9736 21.1937 17.7246 21.1934ZM31.2305 21.1934C33.0197 21.1915 34.5165 22.3411 35.0273 23.918C34.5793 24.6161 34.3137 25.4489 34.3145 26.3457C34.3541 26.695 34.427 27.0062 34.5098 27.3047C33.7872 28.3127 32.5894 28.9742 31.2305 28.9727C30.3215 28.9726 29.4936 28.6656 28.8223 28.168C28.9283 27.8209 29.0078 27.4595 29.0195 27.0684C29.0207 25.7037 28.4406 24.4877 27.5293 23.6328C28.12 22.2039 29.5509 21.1937 31.2305 21.1934ZM38.6348 22.1699C40.9441 22.1674 42.8146 23.9905 42.8125 26.2383C42.8115 28.4839 40.942 30.3012 38.6348 30.2988C36.3298 30.2984 34.46 28.4818 34.459 26.2383C34.4569 23.9926 36.3276 22.1702 38.6348 22.1699ZM10.4082 22.1816C12.7175 22.179 14.59 24.0023 14.5879 26.25C14.5869 28.4956 12.7154 30.3149 10.4082 30.3125C8.10315 30.3122 6.23533 28.4936 6.23438 26.25C6.2323 24.0043 8.101 22.1819 10.4082 22.1816ZM24.4453 22.6641C26.8803 22.6614 28.8538 24.585 28.8516 26.9551C28.8506 29.323 26.878 31.2409 24.4453 31.2383C22.0148 31.2379 20.044 29.3208 20.043 26.9551C20.0408 24.5872 22.0125 22.6644 24.4453 22.6641ZM17.4004 29.6602C18.4361 29.636 20.5248 29.7611 21.4219 30.2676C22.1643 30.6875 22.5816 31.2887 22.8281 31.9844C21.7313 32.1179 20.4297 32.3744 19.7754 32.7637C18.7874 33.3513 18.2883 34.1865 18.0352 35.168H17.5332H16.2461C16.1477 33.6773 15.7918 32.3439 14.4844 31.5645C14.0863 31.3276 13.4404 31.1854 12.7578 31.0859C12.9991 30.7751 13.2976 30.4987 13.6934 30.2754C14.5123 29.8131 16.4551 29.6818 17.4004 29.6602ZM30.9062 29.6602C31.9419 29.636 34.1184 29.7181 35.0156 30.2246C35.4659 30.4793 35.7912 30.8029 36.0312 31.1738C35.3117 31.3134 34.619 31.5009 34.207 31.7461C32.9074 32.519 32.5041 33.7476 32.375 35.168H31.043H30.4531C30.2336 34.0923 29.765 33.166 28.7461 32.5586C28.1041 32.1765 26.8997 32.0071 25.791 31.9316C26.0445 31.3177 26.4568 30.7889 27.1523 30.3965C27.9713 29.9342 29.9608 29.6818 30.9062 29.6602ZM38.2969 31.0176C39.3792 30.9924 41.6504 31.0801 42.5879 31.6094C44.4092 32.6394 44.3295 34.7182 44.3301 36.7754H38.4355H32.5391C32.5408 34.7171 32.5497 32.8178 34.373 31.7891C35.2288 31.306 37.309 31.0402 38.2969 31.0176ZM10.0684 31.0273C11.1506 31.0021 13.4238 31.0899 14.3613 31.6191C16.1826 32.6492 16.103 34.728 16.1035 36.7852H10.207H4.31055C4.31223 34.7269 4.32118 32.8275 6.14453 31.7988C7.00031 31.3157 9.08043 31.0499 10.0684 31.0273ZM24.0879 31.9941C25.229 31.9675 27.6267 32.061 28.6152 32.6191C30.5356 33.7051 30.4506 35.8953 30.4512 38.0645H24.2363H18.0176C18.0194 35.8942 18.0286 33.8894 19.9512 32.8047C20.8536 32.2953 23.0462 32.0179 24.0879 31.9941Z" fill="#333333"/>
</svg>
