<svg width="48" height="48" viewBox="0 0 48 48" fill="none" xmlns="http://www.w3.org/2000/svg">
<path fill-rule="evenodd" clip-rule="evenodd" d="M48 0H0V48H48V0ZM10 13V4C10 3.45 10.45 3 11 3H24C24.55 3 25 3.45 25 4V13C25 13.5 24.5 14 24 14H23.5C23.1852 14 22.8889 14.1482 22.7 14.4L20 18V15C20 14.4477 19.5523 14 19 14H11C10.45 14 10 13.55 10 13ZM12 32C14.7625 32 17 29.7625 17 27C17 24.2375 14.7625 22 12 22C9.2375 22 7 24.2375 7 27C7 29.7625 9.2375 32 12 32ZM2 39.5C2 36.175 8.6625 34.5 12 34.5C14.5176 34.5 18.9273 35.4531 20.9419 37.3487C17.7974 37.9974 14.1426 39.5506 12.6677 42H2V39.5ZM36 32C38.7625 32 41 29.7625 41 27C41 24.2375 38.7625 22 36 22C33.2375 22 31 24.2375 31 27C31 29.7625 33.2375 32 36 32ZM27.0581 37.3487C29.0727 35.4531 33.4824 34.5 36 34.5C39.3375 34.5 46 36.175 46 39.5V42H35.3323C33.8574 39.5506 30.2026 37.9974 27.0581 37.3487ZM24 36C26.7625 36 29 33.7625 29 31C29 28.2375 26.7625 26 24 26C21.2375 26 19 28.2375 19 31C19 33.7625 21.2375 36 24 36ZM14 43.5C14 40.175 20.6625 38.5 24 38.5C27.3375 38.5 34 40.175 34 43.5V46H14V43.5ZM23 16.6667C23 16.4503 23.0702 16.2398 23.2 16.0667L23.7 15.4C23.8889 15.1482 24.1852 15 24.5 15H25C25.5 15 26 14.5 26 14V7H37C37.55 7 38 7.45 38 8V17C38 17.55 37.55 18 37 18H29C28.4477 18 28 18.4477 28 19V22L25.3 18.4C25.1111 18.1482 24.8148 18 24.5 18H24C23.5 18 23 17.5 23 17V16.6667Z" fill="#333333"/>
</svg>
