<svg width="48" height="48" viewBox="0 0 48 48" fill="none" xmlns="http://www.w3.org/2000/svg">
<path d="M18.5 26C18.5 28.21 16.71 30 14.5 30C12.29 30 10.5 28.21 10.5 26C10.5 23.79 12.29 22 14.5 22C16.71 22 18.5 23.79 18.5 26Z" fill="#333333"/>
<path fill-rule="evenodd" clip-rule="evenodd" d="M14.5 28C15.6054 28 16.5 27.1054 16.5 26C16.5 24.8946 15.6054 24 14.5 24C13.3946 24 12.5 24.8946 12.5 26C12.5 27.1054 13.3946 28 14.5 28ZM14.5 30C16.71 30 18.5 28.21 18.5 26C18.5 23.79 16.71 22 14.5 22C12.29 22 10.5 23.79 10.5 26C10.5 28.21 12.29 30 14.5 30Z" fill="#333333"/>
<path d="M6 36.5455C6 33.5227 11.6631 32 14.5 32C17.3369 32 23 33.5227 23 36.5455V42H6V36.5455Z" fill="#333333"/>
<path fill-rule="evenodd" clip-rule="evenodd" d="M8.3342 35.9834C8.01826 36.2952 8 36.4741 8 36.5455V40H21V36.5455C21 36.4741 20.9817 36.2952 20.6658 35.9834C20.3323 35.6542 19.7814 35.3011 19.0262 34.9776C17.5068 34.3266 15.65 34 14.5 34C13.35 34 11.4932 34.3266 9.97382 34.9776C9.21864 35.3011 8.66768 35.6542 8.3342 35.9834ZM14.5 32C11.6631 32 6 33.5227 6 36.5455V42H23V36.5455C23 33.5227 17.3369 32 14.5 32Z" fill="#333333"/>
<path d="M37.5 26C37.5 28.21 35.71 30 33.5 30C31.29 30 29.5 28.21 29.5 26C29.5 23.79 31.29 22 33.5 22C35.71 22 37.5 23.79 37.5 26Z" fill="#333333"/>
<path fill-rule="evenodd" clip-rule="evenodd" d="M33.5 28C34.6054 28 35.5 27.1054 35.5 26C35.5 24.8946 34.6054 24 33.5 24C32.3946 24 31.5 24.8946 31.5 26C31.5 27.1054 32.3946 28 33.5 28ZM33.5 30C35.71 30 37.5 28.21 37.5 26C37.5 23.79 35.71 22 33.5 22C31.29 22 29.5 23.79 29.5 26C29.5 28.21 31.29 30 33.5 30Z" fill="#333333"/>
<path d="M28 24C28 26.21 26.21 28 24 28C21.79 28 20 26.21 20 24C20 21.79 21.79 20 24 20C26.21 20 28 21.79 28 24Z" fill="#333333"/>
<path fill-rule="evenodd" clip-rule="evenodd" d="M24 26C25.1054 26 26 25.1054 26 24C26 22.8946 25.1054 22 24 22C22.8946 22 22 22.8946 22 24C22 25.1054 22.8946 26 24 26ZM24 28C26.21 28 28 26.21 28 24C28 21.79 26.21 20 24 20C21.79 20 20 21.79 20 24C20 26.21 21.79 28 24 28Z" fill="#333333"/>
<path d="M23 12.8333C23 10.164 20.836 8 18.1667 8H14.9983C12.2378 8 10 10.2378 10 12.9983C10 15.6881 12.1286 17.8956 14.8167 17.9933L15 18V20C15 20 23 18.8333 23 12.8333Z" fill="#333333"/>
<path d="M26 11.2361C26 8.34429 28.3443 6 31.2361 6H37C39.7614 6 42 8.23858 42 11C42 13.7614 39.7614 16 37 16H35V19C35 19 26 17.7361 26 11.2361Z" fill="#333333"/>
<path d="M25 36.5455C25 33.5227 30.6631 32 33.5 32C36.3369 32 42 33.5227 42 36.5455V42H25V36.5455Z" fill="#333333"/>
<path fill-rule="evenodd" clip-rule="evenodd" d="M27.3342 35.9834C27.0183 36.2952 27 36.4741 27 36.5455V40H40V36.5455C40 36.4741 39.9817 36.2952 39.6658 35.9834C39.3323 35.6542 38.7814 35.3011 38.0262 34.9776C36.5068 34.3266 34.65 34 33.5 34C32.35 34 30.4932 34.3266 28.9738 34.9776C28.2186 35.3011 27.6677 35.6542 27.3342 35.9834ZM33.5 32C30.6631 32 25 33.5227 25 36.5455V42H42V36.5455C42 33.5227 36.3369 32 33.5 32Z" fill="#333333"/>
<path fill-rule="evenodd" clip-rule="evenodd" d="M24.0001 35H24.0001V34.5455C24.0001 32.8677 22.1527 31.652 19.9951 30.9024C21.1034 30.3829 22.4568 30 24.0001 30C25.5434 30 26.8968 30.3829 28.0051 30.9024C25.8475 31.652 24.0001 32.8677 24.0001 34.5455V35Z" fill="#333333"/>
<path fill-rule="evenodd" clip-rule="evenodd" d="M24.0001 35V34.5455C24.0001 33.6516 24.5245 32.8889 25.3407 32.258C25.3868 32.2224 25.4337 32.1872 25.4816 32.1525C26.1778 31.6469 27.0618 31.2301 28.0051 30.9024C27.1523 30.5027 26.1545 30.1838 25.0367 30.058C24.7017 30.0204 24.3559 30 24.0001 30C23.6443 30 23.2985 30.0204 22.9635 30.058C21.8457 30.1838 20.8479 30.5027 19.9951 30.9024C20.9384 31.2301 21.8224 31.6469 22.5186 32.1525C22.5665 32.1872 22.6134 32.2224 22.6595 32.258C23.4757 32.8889 24.0001 33.6516 24.0001 34.5455V35H24.0001Z" fill="#333333"/>
</svg>
