<svg width="48" height="48" viewBox="0 0 48 48" fill="none" xmlns="http://www.w3.org/2000/svg">
<path d="M24 12.0417C24 8.70495 21.2951 6 17.9583 6H12.0417C8.70495 6 6 8.70495 6 12.0417C6 15.3784 8.70495 18.0833 12.0417 18.0833H13.2V21C13.2 21 24 19.5417 24 12.0417Z" fill="#333333"/>
<path d="M18.5 28C18.5 30.21 16.71 32 14.5 32C12.29 32 10.5 30.21 10.5 28C10.5 25.79 12.29 24 14.5 24C16.71 24 18.5 25.79 18.5 28Z" fill="#333333"/>
<path d="M14.5 34C11.6631 34 6 35.4293 6 38.2667V42H23V38.2667C23 35.4293 17.3369 34 14.5 34Z" fill="#333333"/>
<path d="M33.5 32C35.71 32 37.5 30.21 37.5 28C37.5 25.79 35.71 24 33.5 24C31.29 24 29.5 25.79 29.5 28C29.5 30.21 31.29 32 33.5 32Z" fill="#333333"/>
<path d="M33.5 34C30.6631 34 25 35.4293 25 38.2667V42H42V38.2667C42 35.4293 36.3369 34 33.5 34Z" fill="#333333"/>
<path d="M32.0417 7C28.7049 7 26 9.70495 26 13.0417C26 20.5417 35.6 22 35.6 22V19.0833H35.9583C39.2951 19.0833 42 16.3784 42 13.0417C42 9.70495 39.2951 7 35.9583 7H32.0417Z" fill="#333333"/>
</svg>
