<svg width="48" height="48" viewBox="0 0 48 48" fill="none" xmlns="http://www.w3.org/2000/svg">
<path d="M10.5 13V4C10.5 3.72614 10.7261 3.5 11 3.5H24C24.2739 3.5 24.5 3.72614 24.5 4V13C24.5 13.0874 24.4513 13.2166 24.3339 13.3339C24.2166 13.4513 24.0874 13.5 24 13.5H23.5C23.0279 13.5 22.5833 13.7223 22.3 14.1L20.5 16.5V15C20.5 14.1716 19.8284 13.5 19 13.5H11C10.7261 13.5 10.5 13.2739 10.5 13ZM16.5 27C16.5 29.4864 14.4864 31.5 12 31.5C9.51364 31.5 7.5 29.4864 7.5 27C7.5 24.5136 9.51364 22.5 12 22.5C14.4864 22.5 16.5 24.5136 16.5 27ZM2.5 39.5C2.5 38.8524 2.82044 38.2481 3.43228 37.6834C4.04751 37.1156 4.92348 36.6222 5.93437 36.2173C7.95696 35.407 10.3938 35 12 35C13.2066 35 14.8921 35.2301 16.5226 35.6944C17.7552 36.0454 18.9164 36.519 19.8082 37.1C18.5056 37.4392 17.1628 37.9237 15.948 38.5555C14.5088 39.3041 13.2117 40.2792 12.3933 41.5H2.5V39.5ZM40.5 27C40.5 29.4864 38.4863 31.5 36 31.5C33.5136 31.5 31.5 29.4864 31.5 27C31.5 24.5136 33.5136 22.5 36 22.5C38.4863 22.5 40.5 24.5136 40.5 27ZM28.1918 37.1C29.0836 36.519 30.2448 36.0454 31.4773 35.6944C33.1078 35.2301 34.7934 35 36 35C37.6062 35 40.043 35.407 42.0656 36.2173C43.0765 36.6222 43.9525 37.1156 44.5677 37.6834C45.1795 38.2481 45.5 38.8524 45.5 39.5V41.5H35.6067C34.7883 40.2792 33.4912 39.3041 32.052 38.5555C30.8371 37.9237 29.4943 37.4392 28.1918 37.1ZM28.5 31C28.5 33.4864 26.4864 35.5 24 35.5C21.5136 35.5 19.5 33.4864 19.5 31C19.5 28.5136 21.5136 26.5 24 26.5C26.4864 26.5 28.5 28.5136 28.5 31ZM14.5 43.5C14.5 42.8524 14.8204 42.2481 15.4323 41.6834C16.0475 41.1156 16.9235 40.6222 17.9344 40.2173C19.957 39.407 22.3938 39 24 39C25.6062 39 28.043 39.407 30.0656 40.2173C31.0765 40.6222 31.9525 41.1156 32.5677 41.6834C33.1796 42.2481 33.5 42.8524 33.5 43.5V45.5H14.5V43.5ZM23.5 16.6667C23.5 16.5585 23.5351 16.4532 23.6 16.3667L24.1 15.7C24.1944 15.5741 24.3426 15.5 24.5 15.5H25C25.4126 15.5 25.7834 15.2987 26.0411 15.0411C26.2987 14.7834 26.5 14.4126 26.5 14V7.5H37C37.2739 7.5 37.5 7.72614 37.5 8V17C37.5 17.2739 37.2739 17.5 37 17.5H29C28.1716 17.5 27.5 18.1716 27.5 19V20.5L25.7 18.1C25.4167 17.7223 24.9721 17.5 24.5 17.5H24C23.9126 17.5 23.7834 17.4513 23.6661 17.3339C23.5487 17.2166 23.5 17.0874 23.5 17V16.6667Z" stroke="#333333"/>
</svg>
