<svg width="48" height="48" viewBox="0 0 48 48" fill="none" xmlns="http://www.w3.org/2000/svg">
<path d="M0 0V48H48V0H0ZM17.1309 6.79297C17.2932 6.78984 17.4566 6.79171 17.6191 6.79688C21.456 6.90174 24.5024 9.26827 24.4258 12.082C24.4021 12.884 24.122 13.6644 23.6055 14.3652V14.373L19.5215 21.1738L17.2461 16.9805C13.4477 16.8382 10.4569 14.4838 10.5332 11.6973C10.6065 9.02311 13.4882 6.88128 17.1309 6.79297ZM31.0156 8.23633C34.6278 8.3239 37.4839 10.446 37.5566 13.0977C37.6322 15.861 34.667 18.1948 30.9004 18.3359L28.6426 22.4961L24.5957 15.752V15.7461C24.3242 15.3778 24.1234 14.9849 23.9863 14.5801L24.0254 14.5137V14.5078C24.5816 13.7531 24.8848 12.9086 24.9102 12.0449C24.9217 11.6243 24.8537 11.2171 24.7422 10.8203C25.9148 9.34075 28.0466 8.30814 30.5312 8.24023C30.6924 8.23507 30.8547 8.23321 31.0156 8.23633ZM13.6543 20.1484C17.2024 20.1445 20.0774 22.945 20.0742 26.3984C20.0728 29.8487 17.1991 32.6443 13.6543 32.6406C10.1128 32.64 7.24167 29.8455 7.24023 26.3984C7.23703 22.9481 10.1095 20.1489 13.6543 20.1484ZM35.3418 20.1484C38.8899 20.1445 41.7649 22.945 41.7617 26.3984C41.7602 29.8487 38.8866 32.6443 35.3418 32.6406C31.8003 32.64 28.9291 29.8455 28.9277 26.3984C28.9246 22.9481 31.797 20.1489 35.3418 20.1484ZM13.1348 33.7402C14.7976 33.7015 18.1534 33.9055 19.5938 34.7188C22.392 36.3013 22.4035 39.4271 22.4043 42.5879H13.3496H4.28711C4.2897 39.4254 4.38411 36.311 7.18555 34.7305C8.50038 33.9882 11.617 33.775 13.1348 33.7402ZM34.8203 33.7402C36.4831 33.7015 39.9756 33.8372 41.416 34.6504C44.2143 36.2329 44.0909 39.4271 44.0918 42.5879H35.0352H25.9746C25.9772 39.4254 25.9915 36.5043 28.793 34.9238C30.1078 34.1815 33.3024 33.775 34.8203 33.7402Z" fill="#333333"/>
</svg>
