<svg width="48" height="48" viewBox="0 0 48 48" fill="none" xmlns="http://www.w3.org/2000/svg">
<path fill-rule="evenodd" clip-rule="evenodd" d="M18.1992 4.38089C14.7555 4.46315 12.0302 6.46037 11.9609 8.9512C11.8889 11.5468 14.7156 13.7387 18.3066 13.8711L20.4609 17.7754L24.3203 11.4395V11.4356C24.8087 10.7829 25.0734 10.0557 25.0957 9.30862C25.1682 6.68763 22.2875 4.48053 18.6602 4.38284C18.5066 4.37809 18.3527 4.3779 18.1992 4.38089ZM18.2383 5.043C18.3758 5.04031 18.511 5.04263 18.6484 5.0469C21.8955 5.13496 24.475 7.12184 24.4102 9.4844C24.3902 10.1577 24.1519 10.812 23.7148 11.4004V11.4063L20.457 16.6641L18.6523 13.3438C15.4378 13.2243 12.5879 11.4997 12.6523 9.16018C12.7145 6.91502 15.1556 5.11714 18.2383 5.043ZM31.3262 5.72659C31.174 5.72374 31.0195 5.72588 30.8672 5.7305C28.5183 5.79374 26.505 6.75469 25.3965 8.13284C25.5019 8.50242 25.5636 8.88163 25.5527 9.27346C25.5286 10.0779 25.2446 10.8635 24.7188 11.5664V11.5723L24.6816 11.6367C24.8113 12.0138 25.0012 12.3778 25.2578 12.7207V12.7266L29.084 19.0078L31.2168 15.1328C40.1943 14.0276 38.2145 6.03608 31.3262 5.72659ZM31.3262 6.27542V6.27932C38.5041 6.98129 38.2532 13.9648 30.9102 14.5782L29.1055 17.9004L25.8457 12.6407V12.6348C25.6369 12.3538 25.4769 12.0565 25.3613 11.75L25.5234 11.4903V11.4844C25.9605 10.896 26.1968 10.2417 26.2168 9.56839C26.2278 9.16881 26.1405 8.78671 26.0098 8.41604C27.0184 7.18936 28.8192 6.33619 30.9121 6.27932C31.0496 6.27512 31.1888 6.2727 31.3262 6.27542ZM14.3418 19.6153C11.0399 19.6158 8.36421 22.2236 8.36719 25.4375C8.36853 28.6485 11.0429 31.2515 14.3418 31.252C15.7773 31.2536 17.0748 30.7418 18.1055 29.9219C18.058 29.6865 18.0136 29.4482 17.9844 29.1914C17.9827 27.244 18.8597 25.5235 20.2109 24.3594C19.6926 21.6587 17.2674 19.6121 14.3418 19.6153ZM34.541 19.6153C31.4662 19.6158 28.9663 21.8867 28.6348 24.793C29.7105 25.9345 30.3786 27.4805 30.377 29.1914C30.3731 29.3199 30.3476 29.4405 30.334 29.5645C31.4138 30.6076 32.8996 31.2518 34.541 31.252C37.8429 31.2555 40.5201 28.6514 40.5215 25.4375C40.5245 22.2207 37.846 19.6117 34.541 19.6153ZM24.1641 23.3379C20.8947 23.3383 18.2451 25.9234 18.248 29.1055C18.2494 32.2847 20.8978 34.8608 24.1641 34.8614C27.4333 34.8648 30.0846 32.2876 30.0859 29.1055C30.0889 25.9204 27.4364 23.3343 24.1641 23.3379ZM24.1641 24.0098C27.0547 24.0066 29.3971 26.292 29.3945 29.1055C29.3933 31.9166 27.052 34.1926 24.1641 34.1895C21.2788 34.1891 18.9387 31.9139 18.9375 29.1055C18.9349 26.2945 21.276 24.0102 24.1641 24.0098ZM13.8555 32.2774C12.4417 32.3098 9.54116 32.5078 8.31641 33.1992C5.70692 34.6714 5.61764 37.5719 5.61523 40.5176H14.0566H15.4043C15.7196 39.0441 16.381 37.7837 17.8301 36.9219C18.7246 36.3896 20.5109 36.0369 22.0059 35.8574C21.6436 34.7728 21.0192 33.8357 19.873 33.1875C18.5313 32.43 15.4044 32.2413 13.8555 32.2774ZM34.0566 32.2774C32.6428 32.3098 29.6643 32.6875 28.4395 33.3789C27.347 33.9953 26.7274 34.8375 26.3555 35.8164C27.7551 35.9328 29.2026 36.1657 30.0039 36.6426C31.4895 37.5282 32.1075 38.9179 32.375 40.5176H34.2578H42.6914C42.6906 37.5734 42.8078 34.5972 40.2012 33.1231C38.8595 32.3656 35.6055 32.2413 34.0566 32.2774ZM23.6836 35.877C22.2837 35.909 19.3377 36.2803 18.125 36.9649C15.5413 38.4226 15.5278 41.1167 15.5254 44.0332H23.8828H32.2344C32.2336 41.1181 32.3483 38.1763 29.7676 36.7168C28.4392 35.9668 25.2171 35.8412 23.6836 35.877ZM25.668 36.5117C31.791 36.6018 31.5597 40.6403 31.5625 43.3614H16.1973C16.2451 37.4773 18.9482 36.8312 23.6836 36.5489H24.3555C24.8221 36.5182 25.2597 36.5058 25.668 36.5117Z" fill="#333333"/>
</svg>
