<svg width="48" height="48" viewBox="0 0 48 48" fill="none" xmlns="http://www.w3.org/2000/svg">
<path fill-rule="evenodd" clip-rule="evenodd" d="M19.3086 9.43636C16.8087 9.49697 14.8304 10.9669 14.7801 12.8021C14.7278 14.7145 16.7807 16.3298 19.3875 16.4274L20.9489 19.3052L23.752 14.6376V14.6334C24.1065 14.1525 24.2985 13.6162 24.3147 13.0658C24.3673 11.1347 22.2761 9.51036 19.6429 9.43838C19.5314 9.43488 19.42 9.43408 19.3086 9.43628V9.43636ZM28.837 10.4268C28.7265 10.4247 28.6153 10.4255 28.5047 10.4289C26.7996 10.4755 25.3374 11.1846 24.5327 12.2C24.6092 12.4723 24.6548 12.7522 24.6469 13.0409C24.6294 13.6336 24.4223 14.2132 24.0406 14.7311V14.7353L24.0136 14.781C24.1077 15.0588 24.2447 15.3276 24.431 15.5803V15.5845L27.2091 20.2127L28.7581 17.3577C31.3431 17.2609 33.3779 15.66 33.326 13.7636C33.2762 11.9437 31.316 10.487 28.837 10.4269L28.837 10.4268ZM17.7244 21.1926C15.9734 21.1929 14.5018 22.2956 13.962 23.8213C14.4537 24.5404 14.7477 25.4122 14.7469 26.3565C14.7354 26.7372 14.6563 27.0887 14.5517 27.4258C15.2812 28.3609 16.4249 28.9725 17.7244 28.9727C18.6277 28.9737 19.453 28.6727 20.1225 28.1816C20.022 27.8381 19.9362 27.4761 19.89 27.0687C19.8888 25.6864 20.4872 24.4573 21.4203 23.6012C20.8212 22.1873 19.3936 21.1908 17.7244 21.1926ZM31.231 21.1926C29.5514 21.1929 28.1196 22.2034 27.5289 23.6323C28.4402 24.4872 29.0209 25.704 29.0197 27.0687C29.008 27.4598 28.9284 27.82 28.8224 28.1671C29.4937 28.6647 30.322 28.9726 31.231 28.9727C32.5899 28.9742 33.7869 28.3134 34.5095 27.3054C34.4267 27.0069 34.354 26.6954 34.3144 26.3461C34.3136 25.4493 34.5786 24.617 35.0266 23.9189C34.5158 22.342 33.0202 21.1907 31.231 21.1926ZM38.6352 22.1706C36.328 22.1709 34.4576 23.9925 34.4597 26.2382C34.4607 28.4817 36.3302 30.2991 38.6352 30.2995C40.9424 30.3019 42.8119 28.4838 42.8129 26.2382C42.815 23.9904 40.9445 22.1681 38.6352 22.1706ZM10.4073 22.181C8.1001 22.1813 6.23177 24.0049 6.23385 26.2506C6.23481 28.4942 8.10225 30.3116 10.4073 30.3119C12.7145 30.3143 14.586 28.4962 14.587 26.2506C14.5891 24.0029 12.7166 22.1784 10.4073 22.181ZM24.4455 22.6648C22.0127 22.6651 20.0414 24.5866 20.0436 26.9545C20.0446 29.3202 22.015 31.2376 24.4455 31.238C26.8782 31.2406 28.8505 29.3224 28.8515 26.9545C28.8537 24.5844 26.8805 22.6621 24.4455 22.6648ZM17.4004 29.66C16.4551 29.6816 14.5131 29.8123 13.6942 30.2746C13.2984 30.4979 12.999 30.7756 12.7577 31.0864C13.4403 31.1859 14.0872 31.3271 14.4853 31.564C15.7927 32.3434 16.1476 33.6778 16.246 35.1685H17.5333H18.0358C18.2889 34.187 18.7878 33.3517 19.7758 32.7641C20.4301 32.3748 21.7312 32.1169 22.828 31.9834C22.5815 31.2877 22.1647 30.6882 21.4223 30.2683C20.5252 29.7618 18.4361 29.6358 17.4004 29.66ZM30.9071 29.66C29.9617 29.6816 27.972 29.9348 27.153 30.3971C26.4575 30.7895 26.0445 31.3176 25.791 31.9315C26.8997 32.007 28.1036 32.1765 28.7456 32.5586C29.7645 33.166 30.2329 34.0928 30.4524 35.1685H31.042H32.3751C32.5042 33.7481 32.9068 32.5196 34.2064 31.7467C34.6184 31.5015 35.312 31.3132 36.0315 31.1736C35.7915 30.8027 35.4665 30.4794 35.0162 30.2247C34.119 29.7182 31.9428 29.6358 30.9071 29.66ZM38.2968 31.0179C37.3089 31.0405 35.2283 31.3051 34.3725 31.7882C32.5492 32.8169 32.5408 34.7173 32.5391 36.7756H38.4359H44.3307C44.3301 34.7184 44.4099 32.6397 42.5886 31.6097C41.6511 31.0804 39.3791 30.9927 38.2968 31.0179ZM10.0689 31.0283C9.08097 31.0509 7.00035 31.3155 6.14457 31.7986C4.32122 32.8273 4.31284 34.7277 4.31116 36.786H10.208H16.1027C16.1022 34.7288 16.182 32.6501 14.3607 31.62C13.4232 31.0908 11.1511 31.0031 10.0689 31.0283ZM24.0884 31.9938C23.0467 32.0176 20.8526 32.2962 19.9502 32.8056C18.0276 33.8903 18.0189 35.8947 18.0171 38.065H24.2358H30.4503C30.4497 35.8958 30.5352 33.7048 28.6148 32.6188C27.6263 32.0607 25.2295 31.9672 24.0884 31.9938Z" fill="#333333"/>
</svg>
