<svg width="48" height="48" viewBox="0 0 48 48" fill="none" xmlns="http://www.w3.org/2000/svg">
<path fill-rule="evenodd" clip-rule="evenodd" d="M17.1191 6.79685C13.4611 6.88495 10.5658 9.02386 10.4922 11.6914C10.4157 14.4711 13.418 16.8191 17.2324 16.9609L19.5215 21.1426L23.6211 14.3574V14.3535C24.1398 13.6545 24.4197 12.8742 24.4434 12.0742C24.5203 9.26728 21.4605 6.90343 17.6074 6.79881C17.4443 6.79372 17.2821 6.79366 17.1191 6.79685ZM17.1602 7.50584C17.3062 7.50296 17.4497 7.50712 17.5957 7.5117C21.0448 7.606 23.7857 9.73348 23.7168 12.2637C23.6956 12.9847 23.4409 13.6843 22.9766 14.3144V14.3222L19.5176 19.9512L17.5996 16.3965C14.1851 16.2686 11.1581 14.4215 11.2266 11.916C11.2926 9.51156 13.8857 7.58524 17.1602 7.50584ZM31.0156 8.25389C30.855 8.25084 30.692 8.25286 30.5312 8.25779C28.053 8.3254 25.9274 9.35299 24.7578 10.8262C24.869 11.2212 24.9353 11.628 24.9238 12.0469C24.8984 12.9068 24.5978 13.7447 24.043 14.4961V14.5039L24.0039 14.5722C24.1407 14.9753 24.3405 15.3638 24.6113 15.7304V15.7363L28.6484 22.4512L30.9004 18.3086C40.3725 17.1271 38.2835 8.58471 31.0156 8.25389ZM31.0156 8.84178V8.84568C38.589 9.59604 38.3237 17.0612 30.5762 17.7168L28.6719 21.2676L25.2324 15.6445V15.6387C25.0121 15.3383 24.8426 15.0209 24.7207 14.6933L24.8926 14.416V14.4101C25.3538 13.7812 25.6039 13.0811 25.625 12.3613C25.6366 11.9342 25.5442 11.5251 25.4062 11.1289C26.4705 9.81764 28.3699 8.90647 30.5781 8.84568C30.7232 8.84118 30.8707 8.83888 31.0156 8.84178ZM13.6543 20.1484C10.1096 20.1489 7.23703 22.9522 7.24023 26.4023C7.24169 29.8493 10.1129 32.642 13.6543 32.6426C17.1989 32.6463 20.0728 29.8525 20.0742 26.4023C20.0774 22.949 17.2022 20.1445 13.6543 20.1484ZM35.3418 20.1484C31.7971 20.1489 28.9226 22.9522 28.9258 26.4023C28.9272 29.8493 31.8004 32.642 35.3418 32.6426C38.8864 32.6463 41.7603 29.8525 41.7617 26.4023C41.7649 22.949 38.8897 20.1445 35.3418 20.1484ZM13.6543 20.8769C16.7884 20.8734 19.3289 23.3518 19.3262 26.4023C19.3249 29.4502 16.7855 31.9174 13.6543 31.914C10.526 31.9136 7.98959 29.4473 7.98828 26.4023C7.98551 23.3546 10.5229 20.8774 13.6543 20.8769ZM35.3418 20.8769C38.4759 20.8734 41.0145 23.3518 41.0117 26.4023C41.0104 29.4502 38.473 31.9174 35.3418 31.914C32.2135 31.9136 29.6751 29.4473 29.6738 26.4023C29.6711 23.3546 32.2104 20.8774 35.3418 20.8769ZM13.1328 33.7441C11.615 33.7788 8.42227 34.1816 7.10742 34.9238C4.30608 36.5043 4.28973 39.4256 4.28711 42.5879H13.3496H22.4043C22.4034 39.4272 22.5286 36.2366 19.7305 34.6543C18.2902 33.8411 14.7955 33.7054 13.1328 33.7441ZM34.8203 33.7441C33.3025 33.7788 30.1078 34.1816 28.793 34.9238C25.9916 36.5043 25.9772 39.4256 25.9746 42.5879H35.0352H44.0918C44.0909 39.4272 44.2141 36.2366 41.416 34.6543C39.9757 33.8411 36.483 33.7054 34.8203 33.7441ZM15.2852 34.4336C21.9239 34.5312 21.6727 38.9091 21.6758 41.8594H5.01562C5.0675 35.4796 7.99858 34.7788 13.1328 34.4726H13.8613C14.3672 34.4394 14.8425 34.4272 15.2852 34.4336ZM36.9707 34.4336C43.6095 34.5312 43.3602 38.9091 43.3633 41.8594H26.7031C26.755 35.4796 29.6861 34.7788 34.8203 34.4726H35.5488C36.0547 34.4394 36.528 34.4272 36.9707 34.4336Z" fill="#333333"/>
</svg>
