<svg width="48" height="48" viewBox="0 0 48 48" fill="none" xmlns="http://www.w3.org/2000/svg">
<path fill-rule="evenodd" clip-rule="evenodd" d="M18.3908 4.38059C14.9978 4.46285 12.3126 6.4579 12.2444 8.94884C12.1734 11.5444 14.9598 13.7368 18.4979 13.8694L20.6172 17.7753L24.4217 11.4401V11.4344C24.9028 10.7816 25.1634 10.0537 25.1854 9.30668C25.2568 6.68573 22.4186 4.48103 18.8446 4.38335C18.6933 4.37856 18.542 4.37767 18.3908 4.38056V4.38059ZM31.3234 5.72486C31.1735 5.72196 31.0225 5.72297 30.8725 5.72765C28.5581 5.7909 26.5736 6.75335 25.4813 8.13154C25.5852 8.50118 25.647 8.8811 25.6363 9.2729C25.6127 10.0774 25.3315 10.8639 24.8134 11.5669V11.5726L24.7768 11.6346C24.9046 12.0117 25.0904 12.3765 25.3433 12.7196V12.7253L29.114 19.007L31.2163 15.132C34.7249 15.0005 37.4867 12.8276 37.4163 10.2537C37.3486 7.7836 34.6881 5.80649 31.3234 5.72492L31.3234 5.72486ZM14.3411 19.6156C11.0392 19.6161 8.36364 22.224 8.36662 25.4379C8.36796 28.6489 11.0422 31.2513 14.3411 31.2518C15.7766 31.2534 17.0755 30.7415 18.1062 29.9216C18.0587 29.6862 18.0142 29.4485 17.985 29.1917C17.9833 27.2443 18.8602 25.5227 20.2114 24.3586C19.6931 21.6579 17.2667 19.6124 14.3411 19.6156ZM34.5418 19.6156C31.467 19.6161 28.9664 21.8863 28.6349 24.7926C29.7106 25.9341 30.3781 27.4808 30.3765 29.1917C30.3726 29.3202 30.3478 29.4397 30.3342 29.5637C31.414 30.6068 32.9003 31.2516 34.5417 31.2518C37.8436 31.2553 40.5205 28.6518 40.5219 25.4379C40.5249 22.2211 37.8467 19.612 34.5417 19.6156H34.5418ZM24.1681 23.2144C20.8661 23.2149 18.1906 25.8228 18.1936 29.0367C18.1949 32.2477 20.8692 34.8501 24.1681 34.8506C27.47 34.8541 30.1469 32.2506 30.1482 29.0367C30.1512 25.8199 27.473 23.2108 24.1681 23.2144ZM13.8564 32.2776C12.4426 32.31 9.54064 32.5078 8.31589 33.1992C5.7064 34.6714 5.6185 37.5722 5.61609 40.5179H14.0565H15.4036C15.7189 39.0444 16.3809 37.7838 17.83 36.922C18.7245 36.3897 20.5115 36.0362 22.0065 35.8567C21.6442 34.7721 21.0194 33.8361 19.8732 33.1879C18.5315 32.4304 15.4053 32.2415 13.8564 32.2776ZM34.057 32.2776C32.6432 32.31 29.6652 32.6881 28.4404 33.3795C27.3479 33.9959 26.7269 34.8383 26.355 35.8172C27.7546 35.9336 29.2032 36.1661 30.0045 36.643C31.4901 37.5286 32.1071 38.9182 32.3746 40.5179H34.2571H42.6919C42.6911 37.5737 42.8072 34.5972 40.2006 33.1231C38.8589 32.3656 35.6059 32.2415 34.057 32.2776ZM23.6834 35.8764C22.2695 35.9088 19.2915 36.2869 18.0667 36.9783C15.4573 38.4505 15.4454 41.171 15.443 44.1167H23.8834H32.3182C32.3174 41.1725 32.4335 38.1988 29.827 36.7247C28.4852 35.9672 25.2322 35.8403 23.6834 35.8764Z" fill="#333333"/>
</svg>
