<svg width="48" height="48" viewBox="0 0 48 48" fill="none" xmlns="http://www.w3.org/2000/svg">
<path d="M18.1136 19.5264L17.76 19.1729L17.4064 19.5264L16.3464 20.5864C15.9617 20.9712 15.3183 20.9712 14.9336 20.5864C14.5491 20.202 14.5488 19.5592 14.9327 19.1744C14.933 19.1741 14.9333 19.1738 14.9336 19.1736L16.7116 17.4155L16.7116 17.4156L16.7139 17.4132C16.8525 17.2743 17.0171 17.1641 17.1983 17.089C17.3795 17.0138 17.5738 16.9751 17.77 16.9751C17.9662 16.9751 18.1605 17.0138 18.3417 17.089C18.5229 17.1641 18.6875 17.2743 18.8261 17.4132L18.8264 17.4136L20.5864 19.1736C20.9712 19.5583 20.9712 20.2017 20.5864 20.5864C20.2017 20.9712 19.5583 20.9712 19.1736 20.5864L18.1136 19.5264ZM32.62 28.5L32.6218 28.5C32.7103 28.4997 32.7974 28.5226 32.8743 28.5665C32.9512 28.6103 33.0153 28.6736 33.0601 28.75C33.1049 28.8263 33.1289 28.9131 33.1296 29.0016C33.1304 29.0893 33.1083 29.1757 33.0656 29.2523C31.2502 32.384 27.8719 34.4998 24.0006 34.5C22.1615 34.4977 20.3554 34.0114 18.7637 33.0899C17.1721 32.1685 15.851 30.8443 14.9333 29.2505C14.751 28.9338 14.9931 28.5 15.38 28.5L32.62 28.5ZM30.5936 19.5264L30.24 19.1729L29.8864 19.5264L28.8264 20.5864C28.4417 20.9712 27.7983 20.9712 27.4136 20.5864C27.0298 20.2027 27.0298 19.564 27.4275 19.1795L27.4276 19.1795L27.4336 19.1736L29.1936 17.4136L29.1939 17.4132C29.3325 17.2743 29.4971 17.1641 29.6783 17.089C29.8595 17.0138 30.0538 16.9751 30.25 16.9751C30.4462 16.9751 30.6405 17.0138 30.8217 17.089C31.0029 17.1641 31.1675 17.2743 31.3061 17.4132L31.3064 17.4136L33.0664 19.1736C33.4512 19.5583 33.4512 20.2017 33.0664 20.5864C32.6817 20.9712 32.0383 20.9712 31.6536 20.5864L30.5936 19.5264ZM4.5 24C4.5 13.2158 13.2165 4.5 23.98 4.5C34.7645 4.5 43.5 13.2168 43.5 24C43.5 34.7829 34.7448 43.5 23.98 43.5C13.2165 43.5 4.5 34.7842 4.5 24ZM7.5 24C7.5 33.1161 14.8839 40.5 24 40.5C33.1161 40.5 40.5 33.1161 40.5 24C40.5 14.8839 33.1161 7.5 24 7.5C14.8839 7.5 7.5 14.8839 7.5 24Z" stroke="#333333"/>
</svg>
