<?xml version="1.0" encoding="UTF-8" standalone="no"?>
<!-- Created with Inkscape (http://www.inkscape.org/) -->
<svg id="svg8" xmlns:rdf="http://www.w3.org/1999/02/22-rdf-syntax-ns#" xmlns="http://www.w3.org/2000/svg" xmlns:osb="http://www.openswatchbook.org/uri/2009/osb" height="48" width="48" version="1.1" xmlns:cc="http://creativecommons.org/ns#" viewBox="0 0 12.7 12.7" xmlns:dc="http://purl.org/dc/elements/1.1/">
 <title id="title4753">UIO-icon</title>
 <metadata id="metadata5">
  <rdf:RDF>
   <cc:Work rdf:about="">
    <dc:format>image/svg+xml</dc:format>
    <dc:type rdf:resource="http://purl.org/dc/dcmitype/StillImage"/>
    <dc:title>UIO-icon</dc:title>
    <dc:creator>
     <cc:Agent>
      <dc:title>Joaquín Urbano</dc:title>
     </cc:Agent>
    </dc:creator>
    <dc:rights>
     <cc:Agent>
      <dc:title>GPL</dc:title>
     </cc:Agent>
    </dc:rights>
   </cc:Work>
  </rdf:RDF>
 </metadata>
 <g id="layer1" fill="#333" transform="translate(0,-284.3)">
  <path id="rect1040" d="m24 4.5176c-10.76 0-19.482 8.7224-19.482 19.482-0.0004 10.76 8.722 19.482 19.482 19.482s19.482-8.722 19.482-19.482-8.722-19.482-19.482-19.482zm-6.854 9.3654c1.9529-0.001153 3.5367 2.0959 3.5371 4.6836 0.00040247 2.5884-1.5836 4.6867-3.5371 4.6855-1.9528-0.00027629-3.5356-2.0981-3.5352-4.6855 0.0004119-2.5866 1.583-4.6833 3.5352-4.6836zm12.904 0c1.9529-0.001153 3.5367 2.0959 3.5371 4.6836 0.00040247 2.5884-1.5836 4.6867-3.5371 4.6855-1.9528-0.00027629-3.5356-2.0981-3.5352-4.6855 0.0004119-2.5866 1.583-4.6833 3.5352-4.6836zm-18.913 14.447h24.925v0.514h-0.015625c-0.18648 3.6201-2.5316 6.9087-6.2188 8.7207-3.8569 1.8948-8.6087 1.894-12.465-0.001953-3.679-1.8157-6.0161-5.1027-6.1992-8.7188h-0.027344v-0.4707z" fill-rule="evenodd" transform="matrix(.26458 0 0 .26458 0 284.3)"/>
 </g>
</svg>
