<svg width="48" height="48" viewBox="0 0 48 48" fill="none" xmlns="http://www.w3.org/2000/svg">
<path fill-rule="evenodd" clip-rule="evenodd" d="M48 0H0V48H48V0ZM18.82 20.94L17.76 19.88L16.7 20.94C16.12 21.52 15.16 21.52 14.58 20.94C14 20.36 14 19.4 14.58 18.82L16.36 17.06C16.545 16.8746 16.7648 16.7275 17.0068 16.6271C17.2487 16.5268 17.5081 16.4751 17.77 16.4751C18.0319 16.4751 18.2913 16.5268 18.5332 16.6271C18.7752 16.7275 18.995 16.8746 19.18 17.06L20.94 18.82C21.52 19.4 21.52 20.36 20.94 20.94C20.36 21.52 19.4 21.52 18.82 20.94ZM33.5 29.5C31.6 32.78 28.06 35 24 35C22.0731 34.9976 20.1808 34.4881 18.5132 33.5227C16.8456 32.5572 15.4615 31.1699 14.5 29.5C14.12 28.84 14.62 28 15.38 28H32.62C32.796 27.9994 32.9691 28.0449 33.122 28.1321C33.2749 28.2193 33.4023 28.3451 33.4913 28.4969C33.5804 28.6488 33.6281 28.8213 33.6296 28.9973C33.6311 29.1733 33.5864 29.3467 33.5 29.5ZM29.18 20.94C28.6 21.52 27.64 21.52 27.06 20.94C26.48 20.36 26.48 19.4 27.08 18.82L28.84 17.06C29.025 16.8746 29.2448 16.7275 29.4868 16.6271C29.7287 16.5268 29.9881 16.4751 30.25 16.4751C30.5119 16.4751 30.7713 16.5268 31.0132 16.6271C31.2552 16.7275 31.475 16.8746 31.66 17.06L33.42 18.82C34 19.4 34 20.36 33.42 20.94C32.84 21.52 31.88 21.52 31.3 20.94L30.24 19.88L29.18 20.94ZM4 24C4 12.94 12.94 4 23.98 4C35.04 4 44 12.94 44 24C44 35.06 35.02 44 23.98 44C12.94 44 4 35.06 4 24ZM8 24C8 32.84 15.16 40 24 40C32.84 40 40 32.84 40 24C40 15.16 32.84 8 24 8C15.16 8 8 15.16 8 24Z" fill="#333333"/>
</svg>
