<svg width="48" height="48" viewBox="0 0 48 48" fill="none" xmlns="http://www.w3.org/2000/svg">
<path d="M17.76 19.88L18.82 20.94C19.4 21.52 20.36 21.52 20.94 20.94C21.52 20.36 21.52 19.4 20.94 18.82L19.18 17.06C18.995 16.8746 18.7752 16.7275 18.5332 16.6271C18.2913 16.5268 18.0319 16.4751 17.77 16.4751C17.5081 16.4751 17.2487 16.5268 17.0068 16.6271C16.7648 16.7275 16.545 16.8746 16.36 17.06L14.58 18.82C14 19.4 14 20.36 14.58 20.94C15.16 21.52 16.12 21.52 16.7 20.94L17.76 19.88ZM24 35C28.06 35 31.6 32.78 33.5 29.5C33.5864 29.3467 33.6311 29.1733 33.6296 28.9973C33.6281 28.8213 33.5804 28.6488 33.4913 28.4969C33.4023 28.3451 33.2749 28.2193 33.122 28.1321C32.9691 28.0449 32.796 27.9994 32.62 28H15.38C14.62 28 14.12 28.84 14.5 29.5C15.4615 31.1699 16.8456 32.5572 18.5132 33.5227C20.1808 34.4881 22.0731 34.9976 24 35ZM27.06 20.94C27.64 21.52 28.6 21.52 29.18 20.94L30.24 19.88L31.3 20.94C31.88 21.52 32.84 21.52 33.42 20.94C34 20.36 34 19.4 33.42 18.82L31.66 17.06C31.475 16.8746 31.2552 16.7275 31.0132 16.6271C30.7713 16.5268 30.5119 16.4751 30.25 16.4751C29.9881 16.4751 29.7287 16.5268 29.4868 16.6271C29.2448 16.7275 29.025 16.8746 28.84 17.06L27.08 18.82C26.48 19.4 26.48 20.36 27.06 20.94ZM23.98 4C12.94 4 4 12.94 4 24C4 35.06 12.94 44 23.98 44C35.02 44 44 35.06 44 24C44 12.94 35.04 4 23.98 4ZM24 40C15.16 40 8 32.84 8 24C8 15.16 15.16 8 24 8C32.84 8 40 15.16 40 24C40 32.84 32.84 40 24 40Z" fill="#333333"/>
</svg>
