<svg width="48" height="48" viewBox="0 0 48 48" fill="none" xmlns="http://www.w3.org/2000/svg">
<path d="M17.0053 11.4748L21.184 18.3477C19.264 19.321 17.906 21.2441 17.7298 23.5L9.6675 23.5H9.63878L9.61026 23.5033C9.58139 23.5066 9.56013 23.4986 9.54098 23.4803C9.51934 23.4596 9.5 23.4235 9.5 23.375C9.5 18.3881 12.062 14.1435 16.7767 11.4153L16.7778 11.4146C16.8156 11.3926 16.8605 11.3864 16.9028 11.3972C16.9451 11.4081 16.9815 11.4352 17.004 11.4726L17.0053 11.4748ZM31.3084 11.4146L31.3096 11.4153C36.0243 14.1435 38.5863 18.3881 38.5863 23.375C38.5863 23.4235 38.5669 23.4596 38.5453 23.4803C38.5261 23.4986 38.5049 23.5066 38.476 23.5033L38.4475 23.5H38.4188L30.3576 23.5C30.1814 21.244 28.8233 19.3207 26.9031 18.3475L31.081 11.4747L31.0823 11.4726C31.1048 11.4352 31.1411 11.4081 31.1835 11.3972C31.2258 11.3864 31.2707 11.3926 31.3084 11.4146ZM16.7131 36.3572L16.7135 36.3565L20.5787 29.3022C21.5744 29.9541 22.7653 30.3333 24.0437 30.3333C25.322 30.3333 26.5128 29.9542 27.5084 29.3024L31.3727 36.3565L31.3734 36.3576C31.3946 36.3961 31.3998 36.4414 31.388 36.4837C31.3761 36.526 31.3481 36.5619 31.31 36.5838L31.3083 36.5847C26.8858 39.1438 21.2017 39.1439 16.7766 36.5847L16.7765 36.5846C16.7383 36.5625 16.7103 36.5264 16.6984 36.4839C16.6866 36.4414 16.6918 36.3959 16.7131 36.3572ZM43.5 24C43.5 34.7696 34.7696 43.5 24 43.5C13.2304 43.5 4.5 34.7696 4.5 24C4.5 13.2304 13.2304 4.5 24 4.5C34.7696 4.5 43.5 13.2304 43.5 24ZM24 41.1667C33.4809 41.1667 41.1667 33.4809 41.1667 24C41.1667 14.5191 33.4809 6.83333 24 6.83333C14.5191 6.83333 6.83333 14.5191 6.83333 24C6.83333 33.4809 14.5191 41.1667 24 41.1667ZM27.6667 24C27.6667 26.025 26.025 27.6667 24 27.6667C21.975 27.6667 20.3333 26.025 20.3333 24C20.3333 21.975 21.975 20.3333 24 20.3333C26.025 20.3333 27.6667 21.975 27.6667 24Z" stroke="#333333"/>
</svg>
