<svg width="48" height="48" viewBox="0 0 48 48" fill="none" xmlns="http://www.w3.org/2000/svg">
<path fill-rule="evenodd" clip-rule="evenodd" d="M48 0H0V48H48V0ZM16.0844 37.4402L20.3002 30C21.3155 30.7821 22.6015 31.2493 24.0005 31.2493C25.3994 31.2493 26.6853 30.7821 27.7006 30.0002L31.9154 37.4402C32.0016 37.5913 32.0229 37.769 31.9747 37.9351C31.9266 38.1012 31.8129 38.2424 31.6581 38.3282C26.9938 40.9382 21.0073 40.9382 16.3403 38.3282C16.1861 38.242 16.0728 38.1007 16.0251 37.9347C15.9772 37.7687 15.9985 37.5912 16.0844 37.4402ZM20.8499 17.7241L16.5144 10.3529C16.4266 10.2031 16.2835 10.0958 16.1158 10.0544C15.9482 10.0127 15.7692 10.0401 15.6174 10.1306C11.0236 12.8673 8.03035 18.0518 7.95847 23.3962C7.95541 23.5732 8.02083 23.7423 8.14065 23.867C8.26034 23.9917 8.42493 24.0622 8.59885 24.063L17.1495 24.1329C16.9801 22.8627 17.2184 21.5154 17.9178 20.304C18.6173 19.0924 19.665 18.2123 20.8499 17.7241ZM39.4013 24.2061L30.8499 24.2752C31.0195 23.0049 30.7812 21.6575 30.0817 20.446C29.3823 19.2345 28.3346 18.3545 27.1499 17.8661L31.4857 10.496C31.5734 10.3458 31.7167 10.2385 31.8846 10.1972C32.0525 10.1558 32.2317 10.1837 32.3834 10.2748C36.9759 13.0093 39.9691 18.1938 40.0423 23.5404C40.0448 23.7171 39.979 23.8858 39.8591 24.0102C39.7394 24.1347 39.5749 24.205 39.4013 24.2061ZM29 23.9999C29 26.7613 26.7614 28.9999 24 28.9999C21.2386 28.9999 19 26.7613 19 23.9999C19 21.2385 21.2386 18.9999 24 18.9999C26.7614 18.9999 29 21.2385 29 23.9999ZM42 24C42 33.9411 33.9411 42 24 42C14.0589 42 6 33.9411 6 24C6 14.0589 14.0589 6 24 6C33.9411 6 42 14.0589 42 24ZM44 24C44 35.0457 35.0457 44 24 44C12.9543 44 4 35.0457 4 24C4 12.9543 12.9543 4 24 4C35.0457 4 44 12.9543 44 24Z" fill="#333333"/>
</svg>
