<svg width="48" height="48" viewBox="0 0 48 48" fill="none" xmlns="http://www.w3.org/2000/svg">
<path fill-rule="evenodd" clip-rule="evenodd" d="M26.542 2.88501L26.3311 2.94556L26.087 4.09985L27.1182 4.65063C27.0262 4.87828 26.9493 5.02573 26.8897 5.26196L27.5909 4.63306L26.3311 3.96899L26.542 2.88501ZM28.2081 3.54517L28.4756 4.92407L26.8721 5.76978L27.7627 6.57056C27.6869 6.27008 27.5907 6.0808 27.4737 5.79126L28.7862 5.09009L28.4756 3.62329L28.2081 3.54517ZM30.5264 5.21509L29.9932 6.23657L28.5362 5.96118L28.6983 6.92798C28.8031 6.69676 28.8364 6.52477 28.9092 6.27954L30.1084 6.50024L30.6573 5.40259L30.5264 5.21509ZM24.8936 6.06665C23.0219 6.09103 21.322 7.29368 20.7901 9.14087C20.1349 11.4119 21.4924 13.7984 23.8252 14.4729C25.63 14.9964 27.4795 14.3317 28.5342 12.9573L27.1553 9.35376C26.8384 8.52577 27.1778 7.61792 27.9151 7.18188C27.4366 6.76172 26.8611 6.43345 26.2042 6.24438C25.7663 6.11793 25.3255 6.06102 24.8936 6.06665ZM28.7471 7.13306C28.5676 7.14411 28.3686 7.17422 28.1397 7.20728C27.3813 7.60813 27.0311 8.53266 27.3858 9.43774L30.6143 17.6819C31.4271 19.7484 32.3422 19.7527 32.9053 19.5901C33.7295 19.3521 34.3801 18.716 33.3526 16.2346L30.1241 7.99048C29.6507 7.23901 29.2858 7.09989 28.7471 7.13306ZM28.6241 15.3127C28.5973 15.3127 28.5724 15.3192 28.5459 15.3205H24.0948L20.0967 15.3244V15.3342C19.3782 15.3493 18.6924 15.7453 18.3545 16.4378L13.4991 26.3811C13.0187 27.3654 13.4268 28.5453 14.4112 29.0257C15.3955 29.5061 16.5734 29.0998 17.0538 28.1155L20.0967 21.8792V43.428C20.0967 44.5233 20.976 45.4065 22.0713 45.4065C23.1666 45.4065 24.0479 44.5233 24.0479 43.428V31.801H25.003V43.428C25.003 44.5233 25.8841 45.4065 26.9795 45.4065C28.0748 45.4065 28.9561 44.5233 28.9561 43.428V21.8655C28.9522 20.6133 28.9626 20.082 28.9698 19.4319H31.0772C31.146 19.4319 31.2119 19.4206 31.2784 19.4124C30.9738 19.0702 30.6756 18.5467 30.3799 17.7776L29.4366 15.3127H28.6241Z" fill="#333333"/>
</svg>
