<svg width="48" height="48" viewBox="0 0 48 48" fill="none" xmlns="http://www.w3.org/2000/svg">
<path fill-rule="evenodd" clip-rule="evenodd" d="M35.0681 20.1204C34.6445 18.735 33.2679 17.823 31.7872 18.0286C30.146 18.2564 29.0004 19.7715 29.2282 21.4126C29.2355 21.4653 29.247 21.5173 29.2626 21.5682C29.5856 22.6218 30.0276 23.7085 30.4324 24.6936C29.0236 24.5958 27.6304 24.5001 27.4123 24.5001C26.9847 24.5001 26.6463 24.5932 26.5567 24.6178L26.5556 24.6181L26.5524 24.619C26.4167 24.6563 26.3 24.6969 26.2269 24.7232C26.0811 24.7757 25.9236 24.8396 25.8099 24.8858L25.7241 24.9207C25.491 25.0156 25.2594 25.1098 25.0031 25.2027C24.3416 25.4423 23.9429 25.508 23.8113 25.5026C23.697 25.4979 23.3448 25.419 22.7737 25.1921C22.5518 25.1039 22.3522 25.0165 22.1541 24.9298L22.0865 24.9002C21.9922 24.8589 21.8569 24.7998 21.7324 24.7506C21.6716 24.7266 21.5657 24.6859 21.4408 24.6469C21.3638 24.6223 20.9814 24.5001 20.4973 24.5001C20.3155 24.5001 18.8239 24.5956 17.2971 24.6937C17.317 24.6521 17.3367 24.6106 17.3565 24.5693L17.3571 24.568C17.5498 24.164 17.7321 23.7817 17.8802 23.4696C17.9336 23.3569 17.9917 23.2427 18.0579 23.1124C18.0636 23.1011 18.0694 23.0897 18.0753 23.0782C18.1461 22.9387 18.2252 22.7824 18.3001 22.6203C18.4489 22.2983 18.6034 21.9081 18.6729 21.4699C18.9323 19.8335 17.8161 18.2966 16.1797 18.0371C14.6591 17.796 13.4221 18.7572 12.9035 19.9445C12.4981 20.8727 12.0504 21.7822 11.5907 22.7158C11.5106 22.8785 11.4302 23.0419 11.3495 23.2063C10.8112 24.3036 10.2683 25.4351 9.80624 26.6104C9.76274 26.7211 9.68935 26.9124 9.6321 27.1176L9.6313 27.1205C9.61028 27.1957 9.53163 27.4772 9.51396 27.8317C9.50711 27.9692 9.48062 28.5081 9.73463 29.1298C9.87898 29.4831 10.1637 29.9834 10.7077 30.3938C11.2846 30.829 11.9377 31.0001 12.5183 31.0001C12.7185 31.0001 14.3762 30.8936 15.9973 30.7895L17.0005 30.7252V31.9925L14.3879 33.6578C13.337 34.3277 12.8096 35.5777 13.0632 36.7979L14.0632 41.6104C14.3883 43.1748 15.8824 44.2099 17.4612 43.9645C19.0401 43.7191 20.1495 42.2793 19.9844 40.6901L19.7398 38.3357L20.8395 38.0002H27.3769L28.2659 38.2896L28.0165 40.6901C27.8514 42.2793 28.9608 43.7191 30.5397 43.9645C32.1185 44.2099 33.6126 43.1748 33.9377 41.6104L34.9377 36.7979C35.182 35.6224 34.7018 34.4145 33.7172 33.7274L31.0005 31.8316V30.7474L31.6503 30.7926C33.1201 30.8947 34.6375 31.0001 34.8594 31.0001C36.0104 31.0001 36.9137 30.3665 37.3973 29.6082C37.77 29.0238 37.8378 28.4711 37.857 28.2786C37.899 27.8583 37.8415 27.5187 37.8261 27.4275L37.8259 27.4265L37.8255 27.424M22.0351 27.0507C22.6299 27.2871 23.2522 27.4814 23.7297 27.5009C24.2791 27.5234 24.9936 27.3333 25.6844 27.083C25.98 26.976 26.2438 26.8685 26.4727 26.7753L26.5629 26.7386C26.8327 26.6289 27.1147 26.5001 27.4123 26.5001C27.4123 26.5001 27.412 26.5001 27.4149 26.5002C27.4233 26.5005 27.4494 26.5014 27.5018 26.504C27.5641 26.5071 27.6472 26.5118 27.7495 26.5179C27.9537 26.5302 28.226 26.5478 28.544 26.569C29.1798 26.6115 29.991 26.6678 30.7916 26.7233L31.8912 26.7996C32.2341 26.8234 32.5652 26.6694 32.7679 26.3918C32.9706 26.1142 33.0166 25.752 32.8896 25.4326C32.8266 25.274 32.7625 25.1133 32.6978 24.9518C32.5716 24.6366 32.4414 24.3195 32.3106 24.0013C31.9107 23.0278 31.5065 22.0438 31.2021 21.0704C31.1649 20.5498 31.5376 20.0824 32.0622 20.0096C32.5591 19.9406 33.0231 20.2502 33.1593 20.7179C33.166 20.7407 33.1735 20.7633 33.1817 20.7856C33.4946 21.6302 33.8873 22.495 34.2642 23.3251C34.4257 23.6809 34.5844 24.0303 34.7326 24.369C35.2444 25.5383 35.6661 26.6487 35.8534 27.7572L35.8539 27.7602C35.8606 27.7995 35.882 27.9287 35.8669 28.0799C35.8603 28.1464 35.8372 28.3349 35.711 28.5328C35.5453 28.7927 35.2402 29.0001 34.8594 29.0001C34.8594 29.0001 34.8605 29 34.8564 28.9999C34.8476 28.9996 34.8234 28.9987 34.7767 28.9964C34.7172 28.9934 34.6375 28.9889 34.5391 28.9829C34.3426 28.9711 34.08 28.9541 33.7722 28.9335C33.1568 28.8924 32.3684 28.8376 31.5828 28.7831L30.0695 28.6781C29.7929 28.659 29.5209 28.7555 29.3182 28.9447C29.1155 29.1338 29.0005 29.3986 29.0005 29.6758V32.3532C29.0005 32.68 29.1602 32.9862 29.4282 33.1733L32.5727 35.3675C32.9009 35.5965 33.061 35.9992 32.9795 36.391L31.9795 41.2035C31.8712 41.725 31.3731 42.07 30.8469 41.9882C30.3206 41.9064 29.9508 41.4265 30.0058 40.8968L30.3387 37.6923C30.3875 37.2233 30.102 36.784 29.6537 36.638L27.8452 36.0493C27.7452 36.0167 27.6407 36.0002 27.5356 36.0002H20.6903C20.5914 36.0002 20.4931 36.0148 20.3985 36.0437L18.3682 36.6632C17.9105 36.8029 17.6159 37.2471 17.6654 37.723L17.9951 40.8968C18.0502 41.4265 17.6803 41.9064 17.1541 41.9882C16.6278 42.07 16.1297 41.725 16.0214 41.2035L15.0214 36.391C14.9369 35.9843 15.1126 35.5676 15.463 35.3443L18.538 33.3842C18.8261 33.2006 19.0005 32.8826 19.0005 32.541V29.659C19.0005 29.3827 18.8862 29.1187 18.6846 28.9297C18.4831 28.7406 18.2123 28.6434 17.9366 28.661L16.1022 28.7787C15.2373 28.8342 14.3682 28.89 13.6945 28.9319C13.3574 28.9529 13.0708 28.9703 12.8586 28.9824C12.7523 28.9885 12.6665 28.9931 12.6033 28.9962C12.5581 28.9984 12.5333 28.9994 12.5227 28.9998C12.516 29 12.515 29.0001 12.5183 29.0001C12.3225 29.0001 12.1043 28.9421 11.9122 28.7972C11.7309 28.6604 11.6351 28.4935 11.5861 28.3734C11.4999 28.1626 11.5091 27.9781 11.5115 27.9318C11.5179 27.8027 11.5481 27.6925 11.5575 27.6586L11.5584 27.6554C11.5869 27.5532 11.6291 27.44 11.6676 27.3422C12.0973 26.2491 12.6085 25.1808 13.1451 24.0873C13.2233 23.9278 13.3022 23.7676 13.3814 23.6066C13.8404 22.6746 14.3111 21.7187 14.7364 20.745C14.9768 20.1945 15.442 19.9451 15.8665 20.0124C16.412 20.0989 16.784 20.6112 16.6976 21.1567C16.6698 21.332 16.6005 21.5304 16.4845 21.7814C16.4271 21.9057 16.3635 22.0319 16.2923 22.1722C16.286 22.1844 16.2797 22.1968 16.2734 22.2093C16.2095 22.3349 16.139 22.4736 16.0731 22.6125C15.9261 22.9224 15.7448 23.3026 15.5517 23.7074C15.2904 24.2553 15.0144 24.8341 14.7594 25.3729C14.6079 25.693 14.6371 26.0693 14.836 26.3623C15.0349 26.6553 15.3739 26.8212 15.7273 26.7986L17.0687 26.7125C17.9095 26.6585 18.7433 26.605 19.386 26.5649C19.7075 26.5449 19.9798 26.5283 20.1806 26.5168C20.2812 26.511 20.3621 26.5066 20.4214 26.5037C20.4609 26.5017 20.4833 26.5008 20.4934 26.5004C20.5014 26.5001 20.5019 26.5001 20.4973 26.5001C21.0205 26.5001 21.5731 26.8671 22.0351 27.0507Z" fill="#333333"/>
<path fill-rule="evenodd" clip-rule="evenodd" d="M23.6419 4.0665C24.1575 3.8685 24.7359 4.12594 24.934 4.64151L26.1415 7.78583C26.2704 8.12155 26.2092 8.50064 25.9811 8.77865C25.753 9.05667 25.3931 9.19079 25.0387 9.12992L24.0577 8.96141L24.6973 10.2674C24.9403 10.7633 24.7352 11.3624 24.2392 11.6053C23.7432 11.8482 23.1442 11.6431 22.9012 11.1471L21.4012 8.08462C21.236 7.74736 21.2737 7.34598 21.4988 7.04537C21.7239 6.74476 22.0984 6.5956 22.4685 6.65917L23.6439 6.86106L23.0669 5.35854C22.8689 4.84297 23.1263 4.2645 23.6419 4.0665ZM13.3003 4.28602C13.6947 3.89937 14.3278 3.90563 14.7145 4.29999L18.6362 8.29999C18.9181 8.58752 19.0001 9.01607 18.8441 9.38732C18.6882 9.75857 18.3248 10.0001 17.9221 10.0001H16.4394L17.7459 11.2879C18.1392 11.6756 18.1438 12.3088 17.7561 12.7021C17.3684 13.0954 16.7352 13.1 16.3419 12.7123L13.2984 9.71225C13.0094 9.4274 12.9212 8.99616 13.0752 8.62072C13.2291 8.24528 13.5946 8.00008 14.0004 8.00008H15.5413L13.2864 5.70017C12.8997 5.3058 12.906 4.67267 13.3003 4.28602ZM34.7075 4.29297C35.098 4.6835 35.098 5.31666 34.7075 5.70719L32.4146 8.00008H33.9221C34.3255 8.00008 34.6894 8.24246 34.8449 8.6147C35.0003 8.98695 34.9169 9.41614 34.6333 9.70305L31.6681 12.703C31.2799 13.0958 30.6467 13.0995 30.254 12.7113C29.8612 12.3231 29.8575 11.6899 30.2457 11.2971L31.5277 10.0001H30.0004C29.5959 10.0001 29.2313 9.75644 29.0765 9.38276C28.9217 9.00909 29.0073 8.57897 29.2933 8.29297L33.2933 4.29297C33.6838 3.90245 34.317 3.90245 34.7075 4.29297Z" fill="#333333"/>
<path fill-rule="evenodd" clip-rule="evenodd" d="M24.0004 21.0001C25.3811 21.0001 26.5004 19.8808 26.5004 18.5001C26.5004 17.1194 25.3811 16.0001 24.0004 16.0001C22.6197 16.0001 21.5004 17.1194 21.5004 18.5001C21.5004 19.8808 22.6197 21.0001 24.0004 21.0001ZM24.0004 23.0001C26.4857 23.0001 28.5004 20.9854 28.5004 18.5001C28.5004 16.0148 26.4857 14.0001 24.0004 14.0001C21.5151 14.0001 19.5004 16.0148 19.5004 18.5001C19.5004 20.9854 21.5151 23.0001 24.0004 23.0001Z" fill="#333333"/>
</svg>
