<svg width="48" height="48" viewBox="0 0 48 48" fill="none" xmlns="http://www.w3.org/2000/svg">
<path fill-rule="evenodd" clip-rule="evenodd" d="M48 0H0V48H48V0ZM14.774 4.36676C14.4242 3.93932 13.7942 3.87631 13.3668 4.22604C12.9393 4.57577 12.8763 5.20579 13.2261 5.63324L15.8898 8.88889H14.0783C13.6782 8.88889 13.3166 9.12737 13.159 9.49514C13.0015 9.86292 13.0784 10.2892 13.3544 10.5788L16.3196 13.6899C16.7006 14.0897 17.3336 14.1049 17.7334 13.7239C18.1332 13.3428 18.1484 12.7099 17.7674 12.3101L16.4128 10.8889H18C18.3864 10.8889 18.7382 10.6663 18.9037 10.3171C19.0691 9.96795 19.0186 9.5547 18.774 9.25565L14.774 4.36676ZM34.6332 4.22604C34.2058 3.87631 33.5758 3.93932 33.226 4.36676L29.226 9.25565C28.9814 9.5547 28.9309 9.96795 29.0963 10.3171C29.2618 10.6663 29.6136 10.8889 30 10.8889H31.5872L30.2326 12.3101C29.8516 12.7099 29.8668 13.3428 30.2666 13.7239C30.6664 14.1049 31.2994 14.0897 31.6804 13.6899L34.6456 10.5788C34.9216 10.2892 34.9985 9.86292 34.841 9.49514C34.6834 9.12737 34.3218 8.88889 33.9217 8.88889H32.1102L34.7739 5.63324C35.1237 5.20579 35.0607 4.57577 34.6332 4.22604ZM24.7992 4.72136C24.6046 4.22558 24.0173 3.99674 23.4874 4.21023C22.9575 4.42372 22.6857 4.9987 22.8802 5.49448L23.5749 7.26449L22.5564 7.06457C22.1832 6.99131 21.787 7.12772 21.532 7.41731C21.277 7.70691 21.2066 8.10037 21.3499 8.43474L22.85 11.9347C23.0597 12.4242 23.6546 12.6363 24.1787 12.4086C24.7028 12.1809 24.9576 11.5996 24.7478 11.1102L23.9998 9.36482L24.95 9.55135C25.3181 9.62361 25.709 9.49194 25.9646 9.2096C26.2202 8.92726 26.2982 8.54095 26.1671 8.20689L24.7992 4.72136ZM33.9676 36.8578C34.0965 36.1486 33.834 35.425 33.2802 34.9636L30.2802 32.4636C30.1921 32.3901 30.0983 32.3248 30 32.268V28.2776L34.1712 28.9728C34.8761 29.0903 35.5902 28.8227 36.0443 28.2709C36.4984 27.7191 36.6236 26.9669 36.3727 26.2978L33.3727 18.2978C32.9848 17.2635 31.832 16.7395 30.7978 17.1273C29.7635 17.5152 29.2395 18.668 29.6273 19.7022L31.4106 24.4575L29.1781 24.0854C28.5003 23.9725 27.8327 24.0984 27.2679 24.3916C26.9324 24.5657 26.3328 24.8588 25.6695 25.1039C24.9661 25.3639 24.3746 25.5 24 25.5C23.6254 25.5 23.0339 25.3639 22.3305 25.1039C21.6672 24.8588 21.0676 24.5657 20.7321 24.3916C20.1673 24.0984 19.4997 23.9725 18.8219 24.0854L16.5894 24.4575L18.3727 19.7022C18.7605 18.668 18.2365 17.5152 17.2022 17.1273C16.168 16.7395 15.0152 17.2635 14.6273 18.2978L11.6273 26.2978C11.3764 26.9669 11.5016 27.7191 11.9557 28.2709C12.4098 28.8227 13.1239 29.0903 13.8288 28.9728L18 28.2776V32.2679C17.9017 32.3247 17.8078 32.39 17.7196 32.4636L14.7196 34.9636C14.1659 35.425 13.9033 36.1486 14.0322 36.8578L15.0322 42.3578C15.2236 43.4104 16.2095 44.126 17.2696 43.9817C18.3297 43.8375 19.0886 42.8844 18.9917 41.8189L18.5955 37.4609L18.6707 37.4072C22.8823 36.601 25.2263 36.5959 29.3256 37.4048L29.4043 37.4609L29.0081 41.8189C28.9112 42.8844 29.6701 43.8375 30.7302 43.9817C31.7903 44.126 32.7762 43.4104 32.9676 42.3578L33.9676 36.8578ZM28 19C28 21.2091 26.2091 23 24 23C21.7909 23 20 21.2091 20 19C20 16.7909 21.7909 15 24 15C26.2091 15 28 16.7909 28 19Z" fill="#333333"/>
</svg>
