<svg width="48" height="48" viewBox="0 0 48 48" fill="none" xmlns="http://www.w3.org/2000/svg">
<g clip-path="url(#clip0)">
<path fill-rule="evenodd" clip-rule="evenodd" d="M0.0449219 0.0488281V48.0488H48.0449V0.0488281H0.0449219ZM26.543 2.88477L26.332 3.96875L27.5918 4.63281L26.8906 5.26172C26.9503 5.02548 27.0271 4.87804 27.1191 4.65039L26.0879 4.09961L26.332 2.94531L26.543 2.88477ZM28.209 3.54492L28.4766 3.62305L28.7871 5.08984L27.4746 5.79102C27.5916 6.08056 27.6878 6.26984 27.7637 6.57031L26.873 5.76953L28.4766 4.92383L28.209 3.54492ZM30.5273 5.21484L30.6582 5.40234L30.1094 6.5L28.9102 6.2793C28.8374 6.52453 28.804 6.69652 28.6992 6.92773L28.5371 5.96094L29.9941 6.23633L30.5273 5.21484ZM24.8945 6.06641C25.3265 6.06078 25.7672 6.11769 26.2051 6.24414C26.8621 6.4332 27.4375 6.76147 27.916 7.18164C27.1788 7.61768 26.8393 8.52552 27.1562 9.35352L28.5352 12.957C27.4804 14.3315 25.631 14.9962 23.8262 14.4727C21.4933 13.7982 20.1358 11.4116 20.791 9.14062C21.3229 7.29343 23.0228 6.09079 24.8945 6.06641ZM28.748 7.13281C29.2868 7.09965 29.6516 7.23877 30.125 7.99023L33.3535 16.2344C34.3811 18.7158 33.7304 19.3519 32.9062 19.5898C32.3432 19.7524 31.428 19.7481 30.6152 17.6816L27.3867 9.4375C27.032 8.53242 27.3822 7.60789 28.1406 7.20703C28.3695 7.17398 28.5685 7.14387 28.748 7.13281ZM28.625 15.3125H29.4375L30.3809 17.7773C30.6766 18.5465 30.9747 19.0699 31.2793 19.4121C31.2128 19.4203 31.1469 19.4316 31.0781 19.4316H28.9707C28.9635 20.0818 28.9531 20.613 28.957 21.8652V43.4277C28.957 44.523 28.0758 45.4062 26.9805 45.4062C25.8851 45.4062 25.0039 44.523 25.0039 43.4277V31.8008H24.0488V43.4277C24.0488 44.523 23.1676 45.4062 22.0723 45.4062C20.977 45.4062 20.0977 44.523 20.0977 43.4277V21.8789L17.0547 28.1152C16.5743 29.0995 15.3964 29.5058 14.4121 29.0254C13.4277 28.545 13.0196 27.3652 13.5 26.3809L18.3555 16.4375C18.6934 15.745 19.3792 15.3491 20.0977 15.334V15.3242L24.0957 15.3203H28.5469C28.5733 15.319 28.5983 15.3125 28.625 15.3125Z" fill="#333333"/>
</g>
<defs>
<clipPath id="clip0">
<rect width="48" height="48" fill="white"/>
</clipPath>
</defs>
</svg>
