<svg width="48" height="48" viewBox="0 0 48 48" fill="none" xmlns="http://www.w3.org/2000/svg">
<g clip-path="url(#clip0)">
<path fill-rule="evenodd" clip-rule="evenodd" d="M0.0136719 -0.00585938V47.9941H48.0137V-0.00585938H0.0136719ZM24.2051 5.61719C26.4953 5.71357 28.579 6.61617 29.6875 7.99219C31.5072 9.76599 31.5512 12.5901 31.5273 18.1758C31.4235 18.9852 31.6434 20.3968 30.4043 20.3242C30.2083 22.0393 29.4504 23.6265 28.1387 24.4473C26.4287 25.5172 24.8448 26.6365 23.6055 26.6328C21.7958 26.5764 20.7747 25.7259 18.7187 24.4316C17.4579 23.638 16.9101 22.0001 16.7871 20.2402C15.5731 20.0564 15.5521 18.7309 15.543 18.1758C15.5094 13.4217 15.8759 10.0853 17.4902 8.08008C19.4189 6.23117 21.9149 5.52081 24.2051 5.61719ZM19.6484 11.3281C19.2953 14.8463 18.0464 12.8403 17.4141 14.3242V19.1523C17.4141 21.0066 17.8739 22.8489 19.1875 23.6758C21.0468 24.8464 21.9689 25.6172 23.6055 25.6641C24.7263 25.6677 26.1567 24.6571 27.7031 23.6895C29.0936 22.8196 29.8047 20.9971 29.8047 19.1523C29.7938 17.3009 29.79 15.447 29.7598 13.5957C27.0658 14.5985 21.7771 13.466 19.6484 11.3281ZM20.6504 15.5586C21.0822 15.5587 21.4315 15.9099 21.4316 16.3418C21.4315 16.7734 21.0822 17.123 20.6504 17.123C20.2186 17.123 19.8673 16.7736 19.8672 16.3418C19.8673 15.9101 20.2186 15.5587 20.6504 15.5586ZM26.5215 15.5586C26.9533 15.5587 27.3026 15.9099 27.3027 16.3418C27.3026 16.7734 26.9533 17.123 26.5215 17.123C26.0897 17.123 25.7384 16.7736 25.7383 16.3418C25.7384 15.9101 26.0897 15.5587 26.5215 15.5586ZM23.5137 19.1699C23.5374 19.1697 23.5621 19.1697 23.5859 19.1699C23.9775 19.1699 24.2941 19.2382 24.291 19.3184C24.289 19.3985 23.9739 19.4609 23.5859 19.4609C23.198 19.4609 22.8829 19.3981 22.8809 19.3184C22.876 19.2431 23.15 19.1775 23.5137 19.1699ZM23.5664 21.6738C23.6304 21.6737 23.6938 21.6737 23.7578 21.6738C25.2597 21.6738 26.4747 21.7202 26.4668 21.7754C26.4747 21.8306 25.2597 21.877 23.7578 21.877C22.2552 21.877 21.039 21.8302 21.0469 21.7754C21.0358 21.7225 22.1394 21.6775 23.5664 21.6738ZM31.1816 26.8301C34.5075 27.4249 39.6301 28.9594 39.7227 32.1992L39.7031 42.377L8.32227 42.3262L8.30469 32.1973C8.31981 29.5513 12.6147 27.956 16.1367 27.1055L23.7891 30.873L31.1816 26.8301ZM30.707 34.7812V36.4375H29.0508V37.8965H30.707V39.5527H32.166V37.8965H33.8223V36.4375H32.166V34.7812H30.707Z" fill="#333333"/>
</g>
<defs>
<clipPath id="clip0">
<rect width="48" height="48" fill="white"/>
</clipPath>
</defs>
</svg>
