<svg width="48" height="48" viewBox="0 0 48 48" fill="none" xmlns="http://www.w3.org/2000/svg">
<g clip-path="url(#clip0)">
<path fill-rule="evenodd" clip-rule="evenodd" d="M0.0078125 0.00195312V48.002H48.0078V0.00195312H0.0078125ZM23.9766 5.70898C26.4274 5.74099 28.5896 6.58599 29.5898 7.40039C30.2341 7.91365 30.8262 8.51189 31.3262 9.2207C33.4956 12.6178 33.6001 18.3485 32.7656 23.8105C32.2246 26.8923 29.1608 24.7575 27.2363 25.166C27.2352 25.1669 27.2314 25.1652 27.2305 25.166C26.0197 25.9234 24.911 26.5494 23.9922 26.5469C22.6236 26.5042 21.7037 25.9954 20.4414 25.1895C18.5228 24.7047 15.3842 26.9338 14.8359 23.8105C14.1736 18.273 14.2058 12.6173 16.6543 9.19141C17.1975 8.47794 17.5009 8.01244 18.1426 7.50977C19.9902 6.1505 22.0704 5.68409 23.9766 5.70898ZM24.9727 10.7324C22.773 12.9417 20.6058 15.2719 17.8672 15.4023V19.1406C17.8672 20.9755 18.3193 22.801 19.6191 23.6191C21.4589 24.7776 22.3708 25.5394 23.9902 25.5859C25.0993 25.5895 26.5167 24.5884 28.0469 23.6309C28.5991 23.2854 29.0377 22.7832 29.3711 22.1934C31.0439 17.4687 29.4921 14.2108 24.9727 10.7324ZM21.0684 15.584C21.4957 15.5841 21.8417 15.9321 21.8418 16.3594C21.8417 16.7866 21.4957 17.1327 21.0684 17.1328C20.6403 17.1338 20.293 16.7874 20.293 16.3594C20.2931 15.9313 20.6403 15.583 21.0684 15.584ZM26.877 15.584C27.3043 15.5841 27.6503 15.9321 27.6504 16.3594C27.6503 16.7866 27.3043 17.1327 26.877 17.1328C26.4496 17.1327 26.1016 16.7867 26.1016 16.3594C26.1017 15.9321 26.4497 15.5841 26.877 15.584ZM23.9219 19.1602C23.9383 19.16 23.9542 19.16 23.9707 19.1602C24.3549 19.1602 24.6664 19.2237 24.668 19.3027C24.6657 19.3817 24.3544 19.4453 23.9707 19.4453C23.5878 19.4449 23.2777 19.3813 23.2754 19.3027C23.2759 19.2275 23.5578 19.1639 23.9219 19.1602ZM23.5156 21.6387C23.6674 21.6382 23.8208 21.6382 23.9727 21.6387C25.4407 21.6387 26.6347 21.6827 26.6523 21.7363C26.6634 21.7908 25.461 21.834 23.9727 21.834C22.4843 21.834 21.2819 21.7908 21.293 21.7363C21.2896 21.6879 22.2276 21.6462 23.5156 21.6387ZM31.3555 26.6934C34.6814 27.2881 36.6653 28.8559 36.7578 32.0957L36.7969 42.2969H11.3047L11.2187 32.0605C11.2339 29.4146 12.7886 27.8193 16.3105 26.9687L23.9629 30.7363L31.3555 26.6934ZM28.7168 33.707V35.5195H26.9004V36.707H28.7168V38.5156H29.9004V36.707H31.7129V35.5195H29.9004V33.707H28.7168Z" fill="#333333"/>
</g>
<defs>
<clipPath id="clip0">
<rect width="48" height="48" fill="white"/>
</clipPath>
</defs>
</svg>
