<svg width="48" height="48" viewBox="0 0 48 48" fill="none" xmlns="http://www.w3.org/2000/svg">
<path d="M18.1416 7.51051C17.4999 8.01318 17.1965 8.47862 16.6533 9.19208C14.2048 12.618 14.1727 18.2737 14.835 23.8112C15.3832 26.9345 18.5218 24.7053 20.4404 25.1901C21.7027 25.9961 22.6226 26.5049 23.9912 26.5476C24.91 26.5501 26.0187 25.9241 27.2295 25.1667C27.2304 25.1659 27.2343 25.1676 27.2354 25.1667C29.1599 24.7582 32.2237 26.893 32.7647 23.8112C33.5991 18.3492 33.4946 12.6185 31.3252 9.22138C30.8252 8.51256 30.2332 7.91431 29.5889 7.40105C27.8106 5.95322 22.3646 4.40339 18.1416 7.51028L18.1416 7.51051ZM24.9717 10.7332C29.4911 14.2115 31.043 17.4695 29.3701 22.1941C29.0368 22.784 28.5981 23.2862 28.0459 23.6316C26.5157 24.5891 25.0983 25.5902 23.9893 25.5867C22.3699 25.5402 21.458 24.7783 19.6182 23.6199C18.3183 22.8017 17.8662 20.9762 17.8662 19.1414V15.403C20.6048 15.2726 22.7721 12.9424 24.9717 10.7332ZM21.0674 15.5847C20.6393 15.5837 20.2921 15.9321 20.292 16.3601C20.2921 16.7882 20.6393 17.1344 21.0674 17.1335C21.4947 17.1334 21.8407 16.7874 21.8408 16.3601C21.8407 15.9328 21.4947 15.5848 21.0674 15.5847ZM26.876 15.5847C26.4487 15.5848 26.1007 15.9328 26.1006 16.3601C26.1007 16.7874 26.4487 17.1334 26.876 17.1335C27.3033 17.1334 27.6493 16.7874 27.6494 16.3601C27.6493 15.9328 27.3033 15.5848 26.876 15.5847ZM23.9209 19.1609C23.5569 19.1646 23.2749 19.2281 23.2744 19.3033C23.2767 19.3819 23.5868 19.4455 23.9697 19.4459C24.3534 19.4459 24.6647 19.3823 24.667 19.3033C24.6654 19.2243 24.3539 19.1609 23.9697 19.1609C23.9532 19.1607 23.9374 19.1607 23.9209 19.1609ZM23.5146 21.6394C22.2266 21.647 21.2886 21.6885 21.292 21.7369C21.281 21.7913 22.4833 21.8344 23.9717 21.8344C25.46 21.8344 26.6624 21.7913 26.6514 21.7369C26.6337 21.6832 25.4398 21.6394 23.9717 21.6394C23.8199 21.639 23.6665 21.639 23.5146 21.6394ZM31.3545 26.6941L23.9619 30.737L16.3096 26.9695C12.7876 27.8201 11.2329 29.4153 11.2178 32.0613L11.3037 42.2976H36.7959L36.7568 32.0964C36.6643 28.8566 34.6804 27.2889 31.3545 26.6941ZM28.7158 33.7077H29.8994V35.5203H31.7119V36.7077H29.8994V38.5164H28.7158V36.7077H26.8994V35.5203H28.7158V33.7077Z" fill="#333333"/>
</svg>
