<svg width="48" height="48" viewBox="0 0 48 48" fill="none" xmlns="http://www.w3.org/2000/svg">
<path d="M13.4066 6.29419C13.8756 6.09996 14.3781 6 14.8857 6C15.3931 6 15.8958 6.09996 16.3646 6.29419C16.8335 6.48843 17.2595 6.77312 17.6184 7.13201C17.9772 7.4909 18.2619 7.91697 18.4561 8.38582C18.6503 8.85476 18.7503 9.35737 18.7501 9.86485C18.7501 10.8898 18.343 11.8728 17.6183 12.5976C16.8936 13.3222 15.9106 13.7294 14.8857 13.7294C13.8607 13.7294 12.8777 13.3222 12.153 12.5976C11.4283 11.8728 11.0211 10.8898 11.0211 9.86485C11.0211 9.35737 11.121 8.85476 11.3152 8.38582C11.5094 7.91697 11.794 7.4909 12.1529 7.13201C12.5117 6.77312 12.9378 6.48843 13.4066 6.29419Z" fill="#333333"/>
<path fill-rule="evenodd" clip-rule="evenodd" d="M10.9824 14.6823L18.7811 14.6801V14.689C19.416 14.6967 20.0221 15.0489 20.3203 15.6616L20.8911 17.3106L19.8239 23.3136C19.6669 23.1812 19.5442 23.0023 19.4797 22.7855L18.7811 20.4382V39.4153C18.7811 40.3793 18.0048 41.1566 17.041 41.1566C16.0771 41.1566 15.2997 40.3793 15.2997 39.4153V29.1831H14.4617V39.4153C14.4617 40.3793 13.6854 41.1566 12.7215 41.1566C11.7565 41.1566 10.9824 40.3793 10.9824 39.4153V20.4515L8.30434 25.9391C7.88157 26.8059 6.84587 27.1625 5.97955 26.7396C5.11335 26.3167 4.7546 25.2788 5.17739 24.412L9.44946 15.6616C9.74693 15.0522 10.3505 14.7033 10.9824 14.6912V14.6823ZM17.2153 19.3211H18.25V18.0793H17.2153V17.0417H15.9722V18.0793H14.9375V19.3211H15.9722V20.3542H17.2153V19.3211Z" fill="#333333"/>
<path d="M42.5417 9.86458C42.5417 11.9989 40.8114 13.7292 38.6771 13.7292C36.5427 13.7292 34.8125 11.9989 34.8125 9.86458C34.8125 7.73023 36.5427 6 38.6771 6C40.8114 6 42.5417 7.73023 42.5417 9.86458Z" fill="#333333"/>
<path d="M35.9166 17.0418C35.9166 15.8222 36.9053 14.8335 38.125 14.8335H39.2291C40.4488 14.8335 41.4375 15.8222 41.4375 17.0418V26.9793C41.4375 27.7967 40.9934 28.5104 40.3333 28.8922V39.6772C40.3333 40.592 39.5918 41.3335 38.6771 41.3335C37.7623 41.3335 37.0208 40.592 37.0208 39.6772V28.8922C36.3607 28.5104 35.9166 27.7967 35.9166 26.9793V17.0418Z" fill="#333333"/>
<path fill-rule="evenodd" clip-rule="evenodd" d="M23.3141 16.8359C23.4004 16.3743 23.8445 16.0701 24.3061 16.1564L26.4769 16.5624C26.9384 16.6487 27.2426 17.0928 27.1563 17.5544L27.1527 17.5725L28.0103 17.7348C28.1241 17.7564 28.2241 17.8243 28.2884 17.9238C28.3528 18.0232 28.3763 18.1459 28.3536 18.2652L26.8591 26.1454C26.8228 26.3368 26.6451 26.464 26.4625 26.4293L20.7125 25.3412C20.5986 25.3196 20.4987 25.2516 20.4343 25.1522C20.37 25.0528 20.3465 24.9301 20.3691 24.8107L21.8641 16.9307C21.9004 16.7393 22.0781 16.6121 22.2607 16.6467L23.3123 16.8457L23.3141 16.8359ZM22.3803 18.4554C22.4215 18.2355 22.6331 18.0905 22.853 18.1317L26.9605 18.8998C27.1804 18.9409 27.3253 19.1525 27.2842 19.3724C27.243 19.5923 27.0314 19.7372 26.8115 19.6961L22.7041 18.928C22.4842 18.8869 22.3392 18.6753 22.3803 18.4554ZM22.0778 19.9266C22.1189 19.7067 22.3305 19.5618 22.5504 19.6029L26.6165 20.3633C26.8364 20.4044 26.9814 20.616 26.9402 20.8359C26.8991 21.0558 26.6875 21.2008 26.4676 21.1596L22.4015 20.3993C22.1816 20.3582 22.0366 20.1465 22.0778 19.9266ZM22.2592 21.1895C22.0393 21.1484 21.8277 21.2933 21.7865 21.5132C21.7454 21.7331 21.8903 21.9448 22.1103 21.9859L26.0927 22.7306C26.3126 22.7717 26.5242 22.6268 26.5653 22.4069C26.6064 22.187 26.4615 21.9754 26.2416 21.9342L22.2592 21.1895ZM21.5744 23.1018C21.6156 22.8819 21.8272 22.7369 22.0471 22.7781L23.7168 23.0903C23.9368 23.1314 24.0817 23.343 24.0406 23.5629C23.9994 23.7829 23.7878 23.9278 23.5679 23.8867L21.8982 23.5744C21.6783 23.5333 21.5333 23.3217 21.5744 23.1018Z" fill="#333333"/>
</svg>
