<svg width="48" height="48" viewBox="0 0 48 48" fill="none" xmlns="http://www.w3.org/2000/svg">
<path d="M42.6859 7.97502C42.35 7.97854 41.9594 8.02453 41.6556 8.11297L21.2428 16.4192L21.2166 16.4268C21.109 16.1615 20.5596 16.084 19.9665 16.2507C19.4136 16.4068 18.9976 16.7262 18.9892 17.0018L4.58765 20.7201C4.6276 20.9272 5.78043 20.9426 6.37982 20.8285L19.0087 18.0136C19.0662 18.4905 19.2782 18.7825 19.5512 18.9264L19.0494 25.9094C19.0627 26.0614 18.9791 26.0448 18.8648 26.0595C17.8088 26.1982 16.8545 26.1664 15.8779 26.1623C15.3046 26.1623 14.7852 26.2349 14.4022 26.3528C12.8769 26.7639 11.4742 28.4112 10.8813 30.4876C10.0961 33.2413 10.972 35.8398 12.8378 36.291C13.1087 36.3806 13.5047 36.451 13.9857 36.5043L11.2653 39.2724L9.73285 39.2116C9.46225 39.1889 9.28667 39.2003 9.20107 39.0532L8.873 38.4485C8.76276 38.3257 8.45041 38.3313 8.20157 38.3698L8.64336 39.1302C8.71042 39.2318 8.97365 39.6966 9.2451 39.7079L17.4399 40.0147L17.4594 39.4806L16.673 39.4504L19.5354 36.5377C20.4384 36.4965 21.3239 36.4349 22.1233 36.3578L24.6488 38.9276L23.8632 38.8974C23.5564 38.8899 23.4951 38.8747 23.3843 38.6997L23.1765 38.3418C22.9586 38.0674 22.6084 38.1074 22.4576 38.1811L22.8495 38.8557C23.0277 39.1176 23.1353 39.4231 23.534 39.4188L31.3996 39.74L31.4185 39.2057L29.6429 39.1332C29.5236 39.0436 29.4942 39.0028 29.4168 38.9393L25.666 35.6889C27.4738 35.037 27.9015 33.9796 27.9802 32.7838C27.9802 31.7732 27.5038 30.874 26.7629 30.2943L33.1624 29.3677L34.2337 33.0437L34.8403 33.0135L34.4555 29.1818L36.0254 28.9546L37.7685 28.214C38.004 27.7285 37.9277 27.6141 37.724 27.6514L35.8471 28.2863L34.4024 28.2024L34.5322 22.9213L33.8366 22.7282L33.1308 28.1279L23.6846 27.5781C23.3101 27.1199 22.6898 26.7294 21.9103 26.4509L20.5535 18.877C21.0461 18.6442 21.4207 18.1085 21.238 17.4413C21.4 17.1049 21.5872 16.8411 21.8366 16.757L43.254 8.2478C43.6536 8.04144 43.2461 7.93554 42.686 7.94273L42.6859 7.97502ZM21.0727 17.5535C21.1835 18.2048 20.9015 18.5816 20.5227 18.7368C20.5864 18.6687 20.6376 18.5847 20.6727 18.4903C20.7077 18.3959 20.726 18.2932 20.7261 18.1894C20.726 18.0926 20.7102 17.9969 20.6796 17.9078C20.6491 17.8187 20.6043 17.738 20.5481 17.6704L21.0727 17.5535ZM19.6012 17.8812C19.5643 17.9775 19.545 18.0826 19.5447 18.1891C19.5448 18.3067 19.568 18.4226 19.6124 18.5267C19.6569 18.6309 19.7212 18.7201 19.7999 18.787C19.4064 18.6932 19.0952 18.4057 19.1746 17.9763L19.6012 17.8812ZM24.8548 35.9631L24.8347 35.9896L28.4458 39.1214L25.5682 39.0039L22.921 36.3105C23.6903 36.2172 24.3355 36.1079 24.7734 35.9858C24.8012 35.9783 24.8274 35.9707 24.8547 35.9631H24.8548ZM14.8008 36.5738C15.8913 36.643 17.2453 36.6506 18.6166 36.6079L15.8374 39.4357L15.8551 39.4546L12.1157 39.3061L14.8008 36.5738Z" fill="#333333"/>
</svg>
