<svg width="48" height="48" viewBox="0 0 48 48" fill="none" xmlns="http://www.w3.org/2000/svg">
<path d="M42.69 7.95996C42.35 7.95996 41.96 8.00996 41.65 8.09996L21.25 16.4L21.21 16.41C21.11 16.15 20.56 16.07 19.96 16.24C19.41 16.39 19 16.71 18.99 16.99L4.59003 20.7C4.63003 20.9 5.78003 20.92 6.38003 20.8L19 18C19.05 18.48 19.27 18.77 19.54 18.91L19.04 25.89C19.05 26.05 18.97 26.03 18.85 26.04C17.8 26.18 16.85 26.15 15.87 26.14C15.29 26.14 14.77 26.22 14.39 26.34C12.87 26.74 11.46 28.4 10.87 30.47C10.09 33.23 10.97 35.83 12.83 36.27C13.1 36.37 13.49 36.44 13.97 36.49L11.25 39.26L9.72003 39.2C9.45003 39.17 9.28003 39.19 9.19003 39.04L8.86003 38.47C8.76003 38.35 8.44003 38.36 8.19003 38.39L8.63003 39.15C8.70003 39.25 8.96003 39.72 9.23003 39.73L17.43 40.03L17.45 39.5L16.66 39.47L19.52 36.57C20.42 36.52 21.32 36.46 22.12 36.38L24.64 38.95L23.85 38.92C23.55 38.92 23.48 38.9 23.37 38.72L23.17 38.36C22.95 38.09 22.6 38.13 22.44 38.2L22.84 38.88C23.02 39.14 23.12 39.45 23.52 39.44L31.39 39.76L31.41 39.23L29.63 39.16L29.4 38.96L25.65 35.71C27.46 35.06 27.89 34.01 27.97 32.81C27.97 31.8 27.49 30.9 26.75 30.31L33.15 29.39L34.22 33.07L34.83 33.03L34.44 29.2L36.01 28.98L37.76 28.24C37.99 27.75 37.92 27.64 37.71 27.67L35.84 28.31L34.39 28.22L34.52 22.94L33.82 22.75L33.12 28.15L23.67 27.6C23.3 27.14 22.68 26.75 21.9 26.47L20.54 18.9C21.04 18.67 21.41 18.13 21.23 17.46C21.39 17.13 21.58 16.86 21.83 16.78L43.24 8.27996C43.64 8.06996 43.24 7.95996 42.68 7.95996H42.69ZM21.07 17.54C21.18 18.19 20.9 18.57 20.52 18.72C20.5852 18.6505 20.6362 18.569 20.67 18.48C20.7198 18.3441 20.7349 18.1979 20.7139 18.0548C20.693 17.9116 20.6366 17.7759 20.55 17.66L21.07 17.54ZM19.6 17.87C19.5219 18.0768 19.5255 18.3056 19.61 18.51C19.66 18.61 19.72 18.71 19.8 18.77C19.4 18.68 19.1 18.39 19.17 17.97L19.6 17.87ZM20.05 19L21.4 26.55C21.43 26.78 21.56 26.88 21.71 26.95C22.36 27.13 22.92 27.42 23.31 27.95C23.41 28.08 23.54 28.12 23.66 28.11L32.79 28.65L34.36 28.72L26.67 29.82C26.27 29.94 25.67 29.96 26.42 30.71L26.67 30.91C26.9818 31.2073 27.2122 31.5796 27.3392 31.9913C27.4661 32.4031 27.4853 32.8405 27.3951 33.2618C27.3048 33.683 27.108 34.0742 26.8235 34.3977C26.539 34.7213 26.1763 34.9665 25.77 35.11L24.73 35.45L23.17 35.75L22.07 35.87L19.84 36.04L18.6 36.08L15.16 36.07L13.73 35.94C13.06 35.84 12.71 35.83 12.08 35.29C10.01 32.91 11.76 27.48 14.78 26.77L15.08 26.71L19.01 26.55C19.29 26.48 19.51 26.31 19.56 25.94L20.05 19ZM24.85 35.95L24.83 35.97L28.44 39.11L25.57 38.99L22.92 36.29C23.69 36.2 24.33 36.09 24.77 35.97L24.85 35.95ZM14.8 36.56C15.89 36.63 17.24 36.64 18.61 36.59L15.84 39.42L15.85 39.44L12.11 39.29L14.8 36.56Z" fill="#333333"/>
</svg>
