<svg width="48" height="48" viewBox="0 0 48 48" fill="none" xmlns="http://www.w3.org/2000/svg">
<path fill-rule="evenodd" clip-rule="evenodd" d="M0 0V48H48V0H0ZM42.69 7.96C43.25 7.96 43.65 8.06 43.25 8.27L21.84 16.77C21.59 16.87 21.4 17.13 21.24 17.47C21.42 18.13 21.04 18.67 20.55 18.9L21.91 26.47C22.69 26.75 23.31 27.14 23.68 27.6L33.13 28.15L33.83 22.75L34.53 22.95L34.4 28.22L35.85 28.31L37.72 27.67C37.92 27.64 38 27.75 37.77 28.24L36.02 28.98L34.45 29.2L34.84 33.03L34.24 33.07L33.16 29.39L26.76 30.32C27.1393 30.615 27.4463 30.9926 27.6577 31.424C27.8691 31.8555 27.9793 32.3295 27.98 32.81C27.9 34.01 27.48 35.06 25.66 35.71L29.41 38.96L29.64 39.16L31.42 39.23L31.4 39.76L23.53 39.44C23.13 39.44 23.03 39.14 22.85 38.88L22.45 38.2C22.61 38.13 22.95 38.09 23.17 38.36L23.38 38.72C23.49 38.9 23.55 38.92 23.86 38.92L24.65 38.95L22.12 36.38C21.32 36.46 20.44 36.52 19.53 36.56L16.67 39.47L17.46 39.5L17.44 40.04L9.24 39.74C8.97 39.72 8.71 39.26 8.64 39.15L8.2 38.39C8.45 38.36 8.76 38.35 8.87 38.47L9.2 39.04C9.29 39.19 9.46 39.17 9.73 39.2L11.26 39.26L13.98 36.49C13.5941 36.4571 13.2123 36.3868 12.84 36.28C10.97 35.83 10.1 33.23 10.88 30.48C11.48 28.4 12.88 26.75 14.4 26.34C14.78 26.22 15.3 26.14 15.88 26.14C16.85 26.15 17.81 26.18 18.86 26.04C18.98 26.03 19.06 26.04 19.05 25.89L19.55 18.91C19.28 18.77 19.06 18.48 19.01 18L6.38 20.81C5.78 20.93 4.63 20.91 4.58 20.71L18.98 16.99C19 16.71 19.41 16.39 19.96 16.24C20.56 16.07 21.11 16.14 21.21 16.41H21.24L41.65 8.1C41.95 8.01 42.35 7.96 42.69 7.96ZM21.07 17.54L20.55 17.66C20.6 17.72 20.65 17.8 20.68 17.89C20.7487 18.0807 20.7487 18.2893 20.68 18.48C20.6432 18.5698 20.5888 18.6514 20.52 18.72C20.9 18.57 21.18 18.19 21.07 17.54ZM19.6 17.87L19.17 17.97C19.09 18.39 19.4 18.68 19.8 18.77C19.7173 18.6993 19.6523 18.6103 19.61 18.51C19.5244 18.3059 19.5209 18.0767 19.6 17.87ZM24.85 35.95L24.77 35.97C24.33 36.09 23.69 36.2 22.92 36.3L25.57 38.99L28.44 39.11L24.84 35.97L24.85 35.95ZM14.8 36.56L12.11 39.29L15.85 39.44L15.84 39.42L18.61 36.59C17.24 36.64 15.89 36.63 14.8 36.56Z" fill="#333333"/>
</svg>
