<svg width="48" height="48" viewBox="0 0 48 48" fill="none" xmlns="http://www.w3.org/2000/svg">
<path fill-rule="evenodd" clip-rule="evenodd" d="M0 0V47.9994H47.9994V0H0ZM42.6855 7.9608V7.9647C43.2455 7.9576 43.6535 8.065 43.2535 8.2714L21.8357 16.7788C21.5867 16.8628 21.3977 17.1278 21.2357 17.4648C21.4187 18.1318 21.0447 18.6678 20.5527 18.8998L21.9097 26.4727C22.6897 26.7507 23.3087 27.1427 23.6837 27.6017L33.1286 28.1496L33.8356 22.7497L34.5306 22.9427L34.3996 28.2246L35.8456 28.3086L37.7225 27.6737C37.9255 27.6357 38.0025 27.7507 37.7675 28.2356L36.0225 28.9766L34.4546 29.2046L34.8396 33.0346L34.2316 33.0656L33.1616 29.3906L26.7617 30.3156C27.5027 30.8956 27.9786 31.7956 27.9786 32.8066C27.8997 34.0016 27.4717 35.0586 25.6637 35.7106L29.4136 38.9625C29.4906 39.0255 29.5206 39.0685 29.6406 39.1575L31.4156 39.2295L31.3956 39.7635L23.5307 39.4425C23.1327 39.4475 23.0257 39.1405 22.8477 38.8785L22.4547 38.2045C22.6057 38.1305 22.9557 38.0905 23.1737 38.3645L23.3827 38.7245C23.4937 38.8995 23.5537 38.9135 23.8607 38.9215L24.6457 38.9505L22.1207 36.3825C21.3217 36.4595 20.4357 36.5205 19.5328 36.5615L16.6718 39.4745L17.4568 39.5035L17.4378 40.0385L9.24398 39.7315C8.97259 39.7205 8.70759 39.2555 8.64049 39.1535L8.1991 38.3945C8.44799 38.3555 8.76079 38.3495 8.87099 38.4725L9.20108 39.0385C9.28668 39.1855 9.46168 39.1745 9.73228 39.1965L11.2639 39.2575L13.9838 36.4895C13.5028 36.4365 13.1088 36.3665 12.8378 36.2765C10.9719 35.8256 10.0959 33.2256 10.8809 30.4726C11.4739 28.3956 12.8768 26.7487 14.4018 26.3377C14.7848 26.2197 15.3038 26.1477 15.8768 26.1477C16.8538 26.1527 17.8068 26.1837 18.8628 26.0447C18.9778 26.0297 19.0618 26.0457 19.0488 25.8947L19.5508 18.9118C19.2778 18.7678 19.0648 18.4768 19.0078 17.9998L6.37892 20.8137C5.77943 20.9287 4.62584 20.9137 4.58584 20.7067L18.9877 16.9878C18.9967 16.7128 19.4117 16.3918 19.9646 16.2358C20.5576 16.0698 21.1066 16.1468 21.2146 16.4118L21.2416 16.4058L41.6534 8.0995C41.9574 8.0111 42.3494 7.9644 42.6854 7.9608H42.6855ZM21.0717 17.5388L20.5467 17.6558C20.6031 17.7235 20.6479 17.8044 20.6785 17.8937C20.709 17.983 20.7248 18.0789 20.7247 18.1758C20.7245 18.2796 20.7061 18.3821 20.6709 18.4765C20.6358 18.5708 20.5845 18.6548 20.5207 18.7228C20.8997 18.5668 21.1827 18.1898 21.0717 17.5388ZM19.5998 17.8668L19.1738 17.9628C19.0938 18.3918 19.4048 18.6798 19.7988 18.7728C19.72 18.7062 19.6556 18.617 19.611 18.5131C19.5664 18.4091 19.543 18.2933 19.5428 18.1758C19.543 18.0689 19.5625 17.9634 19.5998 17.8668ZM24.8537 35.9485C24.8257 35.9566 24.7987 35.9626 24.7707 35.9706C24.3337 36.0925 23.6887 36.2035 22.9197 36.2965L25.5657 38.9895L28.4446 39.1065L24.8337 35.9745L24.8537 35.9485ZM14.7988 36.5605L12.1148 39.2905L15.8538 39.4405L15.8358 39.4215L18.6148 36.5935C17.2438 36.6355 15.8888 36.6295 14.7988 36.5605Z" fill="#333333"/>
</svg>
