<svg width="48" height="48" viewBox="0 0 48 48" fill="none" xmlns="http://www.w3.org/2000/svg">
<path fill-rule="evenodd" clip-rule="evenodd" d="M48 0H0V48H48V0ZM21.5189 29.9093C21.1327 29.9834 20.7869 30.196 20.5464 30.507L18.9079 32.9363C18.7255 34.1504 18.8549 34.6334 19.5726 35.4169L22.2062 36.7014C22.57 36.8506 22.9758 36.8617 23.3472 36.7329L36.0628 30.8606C37.9543 30.2044 37.4477 28.2437 35.4816 28.6212L21.5189 29.9093ZM6.10881 24C6.55678 19.9303 8.36313 16.2691 11.065 13.4793L14.1214 16.5355L15.5356 15.1213L12.5348 12.1207C15.4086 9.74502 19.0332 8.24437 23 8.02729L23 13L25 13L25 8.02729C28.9668 8.24436 32.5915 9.74505 35.4653 12.1208L32.5858 14.9999L33.9999 16.4142L36.9351 13.4794C39.6369 16.2692 41.4432 19.9303 41.8912 24H37.6843V26H42C41.9975 30.3403 40.4579 34.3201 37.894 37.4269L34.4737 34.0067L33.0595 35.4209L36.5366 38.8979L36.5239 38.9103L37.9152 40.3471C41.6663 36.7148 44 31.6236 44 25.9892C44 14.949 35.0452 6 24 6C12.9548 6 4 14.949 4 25.9892C4 31.4741 6.21161 36.4446 9.78969 40.0553L11.2103 38.6475C11.204 38.6412 11.1978 38.6349 11.1915 38.6285L14.1968 35.6232L12.7825 34.209L9.86419 37.1274C7.44566 34.0662 6.00246 30.2022 6 26H10.0527V24H6.10881Z" fill="#333333"/>
</svg>
