<svg width="48" height="48" viewBox="0 0 48 48" fill="none" xmlns="http://www.w3.org/2000/svg">
<path d="M37.1955 26.3702L37.1951 26.3692L37.1683 26.304L37.1679 26.303C36.2884 24.1798 34.9994 22.2507 33.3744 20.6256C31.7493 19.0006 29.8201 17.7116 27.6969 16.8321C25.5737 15.9526 23.2981 15.5 21 15.5C18.7019 15.5 16.4262 15.9527 14.303 16.8321C12.1798 17.7116 10.2506 19.0006 8.62562 20.6256C7.00059 22.2507 5.71155 24.1798 4.8321 26.303C4.01834 28.2676 3.57 30.3627 3.50756 32.4854C3.50748 32.4879 3.50703 32.4902 3.50628 32.4921C3.5687 29.9731 4.09506 27.4857 5.06046 25.155C6.09068 22.6678 7.6007 20.4079 9.5043 18.5043C11.4079 16.6007 13.6678 15.0907 16.155 14.0605C18.6422 13.0302 21.3079 12.5 24 12.5C26.6921 12.5 29.3578 13.0302 31.845 14.0605C34.3322 15.0907 36.5921 16.6007 38.4957 18.5043C40.3993 20.4079 41.9093 22.6678 42.9395 25.155C42.9724 25.2343 42.9311 25.3395 42.8246 25.3681L37.8309 26.7061C37.5837 26.7723 37.3053 26.6383 37.1955 26.3702ZM3.49997 32.5001C3.49997 32.5001 3.49998 32.5001 3.49999 32.5001L3.49997 32.5001ZM24.7354 34.3134L24.7053 34.3241L24.6767 34.3385C24.6112 34.3717 24.5423 34.4004 24.4703 34.4242C25.2192 34.1764 25.6535 33.384 25.4467 32.6123C25.2391 31.8375 24.4614 31.3677 23.6859 31.5333C23.7622 31.517 23.8382 31.5069 23.9134 31.5025L23.9448 31.5007L23.9757 31.495L34.955 29.4613C35.2548 29.4057 35.5469 29.59 35.6258 29.8845C35.7047 30.179 35.5439 30.4847 35.2565 30.5865L24.7354 34.3134ZM38.4755 32.0743L37.9762 32.1007L38.4755 32.0743C38.464 31.8578 38.6005 31.6763 38.7847 31.6269L43.7766 30.2894C44.0691 30.211 44.3366 30.4032 44.3669 30.6679C44.4185 31.1182 44.4551 31.5705 44.4768 32.0242C44.4887 32.2749 44.2828 32.5 44 32.5H38.899C38.6855 32.5 38.4886 32.322 38.4755 32.0743ZM24.3146 34.4668L24.2877 34.4726L24.2608 34.4774C23.8814 34.5456 23.5042 34.463 23.1965 34.2686C23.5319 34.4804 23.9497 34.5594 24.3632 34.4553C24.347 34.4594 24.3308 34.4632 24.3146 34.4668ZM23.4868 31.5901L23.5143 31.5802L23.5423 31.5713C23.5644 31.5643 23.5868 31.5577 23.6096 31.5517C23.1836 31.6658 22.8498 31.9523 22.6631 32.316C22.8315 31.9879 23.1195 31.7226 23.4868 31.5901Z" stroke="#333333"/>
</svg>
