<svg width="48" height="48" viewBox="0 0 48 48" fill="none" xmlns="http://www.w3.org/2000/svg">
<path fill-rule="evenodd" clip-rule="evenodd" d="M48 0H0V48H48V0ZM43.4015 24.9636C43.5546 25.3333 43.3405 25.7475 42.954 25.851L37.9604 27.1891C37.4539 27.3248 36.9315 27.0449 36.7328 26.5596L36.706 26.4944C35.8517 24.4318 34.5995 22.5578 33.0209 20.9792C31.4423 19.4006 29.5682 18.1484 27.5057 17.294C25.4431 16.4397 23.2325 16 21 16C18.7676 16 16.557 16.4397 14.4944 17.294C12.4319 18.1484 10.5578 19.4006 8.97923 20.9792C7.40064 22.5578 6.14843 24.4318 5.2941 26.4944C4.50359 28.4028 4.06807 30.438 4.0074 32.5001C3.99928 32.7761 3.77619 33 3.50005 33C3.22391 33 2.99943 32.7761 3.006 32.5C3.06761 29.9126 3.60705 27.3574 4.59858 24.9636C5.65393 22.4158 7.20078 20.1008 9.15081 18.1508C11.1008 16.2007 13.4159 14.6539 15.9637 13.5985C18.5115 12.5432 21.2423 12 24 12C26.7578 12 29.4886 12.5432 32.0364 13.5985C34.5842 14.6539 36.8993 16.2007 38.8493 18.1508C40.7993 20.1008 42.3462 22.4158 43.4015 24.9636ZM43.6472 29.8064C44.217 29.6537 44.7966 30.0249 44.8637 30.611C44.9165 31.0723 44.9541 31.5357 44.9762 32.0004C45.0025 32.552 44.5523 33 44 33H38.899C38.4025 33 38.0025 32.5965 37.9762 32.1007C37.953 31.6615 38.2305 31.2578 38.6553 31.144L43.6472 29.8064ZM35.4235 31.0578C35.9568 30.8689 36.2552 30.3017 36.1088 29.7551C35.9624 29.2086 35.4203 28.8666 34.864 28.9696L23.8847 31.0033C23.7505 31.0111 23.6151 31.0325 23.4802 31.0687C23.4501 31.0768 23.4204 31.0855 23.391 31.0948L23.306 31.1105L23.3173 31.1198C22.3499 31.4686 21.795 32.5068 22.066 33.5182C22.337 34.5297 23.3369 35.1514 24.3492 34.9696L24.3435 34.9827L24.4208 34.9554C24.4524 34.9485 24.4839 34.9408 24.5155 34.9324C24.6519 34.8958 24.7812 34.846 24.9024 34.7847L35.4235 31.0578ZM23.0319 33.2594C22.889 32.7259 23.2056 32.1776 23.739 32.0346C24.2725 31.8917 24.8208 32.2083 24.9638 32.7417C25.1067 33.2752 24.7901 33.8235 24.2567 33.9665C23.7232 34.1094 23.1749 33.7928 23.0319 33.2594Z" fill="#333333"/>
</svg>
