<svg width="48" height="48" viewBox="0 0 48 48" fill="none" xmlns="http://www.w3.org/2000/svg">
<path fill-rule="evenodd" clip-rule="evenodd" d="M29.5915 4.67461C28.79 4.21665 27.8915 4 26.9239 4H21.6763C19.8518 4 18.0074 4.84975 16.8976 6.38697C16.8605 6.43373 16.8242 6.48089 16.7888 6.52844L14.4524 9.55709L13.6411 10.639L13.6396 10.641C11.1086 13.9837 11.1091 18.6379 13.6411 21.98L13.647 21.9878L18.1512 27.7016L10.8373 37.0602C10.1499 37.9398 10.3157 39.2118 11.2055 39.8859L15.5839 43.2029C16.4539 43.862 17.6917 43.7019 18.3653 42.843L24.2095 35.3917L30.0003 42.7749C30.7149 43.6861 32.0517 43.8018 32.9123 43.0268L36.9783 39.3654C37.7573 38.6639 37.8624 37.4799 37.2193 36.6521L30.2704 27.7085L33.1431 24H30.6132L28.9965 26.0871L25.4439 21.5961L31.51 13.7607C32.1355 12.9766 32.5352 12.0671 32.7091 11.1228L33.1811 11.752L33.184 11.7559C34.5582 13.5699 34.9841 15.8791 34.4616 18H36.5084C36.9988 15.4425 36.4226 12.72 34.7797 10.5502L33.9668 9.46632L33.9586 9.45552L31.6271 6.43321L31.6157 6.41807L31.6281 6.40924C31.0534 5.60468 30.2762 5.06587 29.5915 4.67461ZM28.7744 14.0271L24.1745 19.9687L19.5742 14.0266C20.1665 13.6876 20.8667 13.5093 21.5859 13.5093H26.8335C27.4961 13.5093 28.1757 13.7019 28.7744 14.0271ZM30.0322 7.64018C31.0761 9.05029 31.0687 11.0297 30.01 12.4317C29.076 11.862 27.9651 11.5093 26.8335 11.5093H21.5859C20.4635 11.5093 19.3187 11.8099 18.3447 12.4333C17.8618 11.7462 17.6096 10.8772 17.6096 10.0667C17.6096 9.25167 17.8659 8.43472 18.3833 7.73584L18.4984 7.5867L18.5091 7.57171C19.2105 6.58966 20.4334 6 21.6763 6H26.9239C27.5848 6 28.1339 6.14525 28.5992 6.4111C29.1503 6.72601 29.6184 7.07087 29.9468 7.49897L29.9321 7.51046L30.0322 7.64018ZM12.4132 38.2918L19.4259 29.3185L22.9374 33.7729L16.7916 41.6087L12.4132 38.2918ZM15.7171 11.2043C15.8933 12.14 16.2874 13.0717 16.9092 13.8515L23.4253 22.2681L28.2206 28.3299L35.6399 37.8792L31.574 41.5406L24.9965 33.1543L15.2296 20.7648C13.2439 18.1368 13.2458 14.4728 15.2353 11.8467L15.2382 11.8429L15.7171 11.2043Z" fill="#333333"/>
<path d="M30.0001 21C30.0001 20.4477 30.4478 20 31.0001 20H37.0001C37.5524 20 38.0001 20.4477 38.0001 21C38.0001 21.5523 37.5524 22 37.0001 22H31.0001C30.4478 22 30.0001 21.5523 30.0001 21Z" fill="#333333"/>
</svg>
