<?xml version="1.0" encoding="UTF-8" standalone="no"?>
<!-- Created with Inkscape (http://www.inkscape.org/) -->
<svg id="svg8" xmlns:rdf="http://www.w3.org/1999/02/22-rdf-syntax-ns#" xmlns="http://www.w3.org/2000/svg" xmlns:osb="http://www.openswatchbook.org/uri/2009/osb" height="48" width="48" version="1.1" xmlns:cc="http://creativecommons.org/ns#" viewBox="0 0 12.7 12.7" xmlns:dc="http://purl.org/dc/elements/1.1/">
 <title id="title4753">UIO-icon</title>
 <metadata id="metadata5">
  <rdf:RDF>
   <cc:Work rdf:about="">
    <dc:format>image/svg+xml</dc:format>
    <dc:type rdf:resource="http://purl.org/dc/dcmitype/StillImage"/>
    <dc:title>UIO-icon</dc:title>
    <dc:creator>
     <cc:Agent>
      <dc:title>Joaquín Urbano</dc:title>
     </cc:Agent>
    </dc:creator>
    <dc:rights>
     <cc:Agent>
      <dc:title>GPL</dc:title>
     </cc:Agent>
    </dc:rights>
   </cc:Work>
  </rdf:RDF>
 </metadata>
 <g id="layer1" transform="translate(0,-284.3)">
  <path id="path5786" d="m23.393 3.459c-6.8866 0.0080992-8.0731 3.1106-8.0332 12.484 0.10298 0.80265-0.10726 2.19 1.0703 2.1699-0.000605 0.082031-0.00139 0.16406-0.001953 0.24609-3e-8 2.0737 0.79629 4.1216 2.3594 5.0996 1.7384 1.0877 3.3495 2.2264 4.6094 2.2227 1.8397-0.057399 2.8768-0.9226 4.9668-2.2383 1.3991-0.9437 1.9612-2.5772 1.9922-5.4316 1.118-0.2481 1.1318-1.5249 1.1406-2.0684 0.059-8.3689-1.034-12.466-8.074-12.485-0.009461 0.000002646-0.017431-0.000054047-0.027344 0zm0.253 0.5176c1.8746 0.026747 2.5268 0.3505 3.4922 0.59766 1.0259 0.36475 1.9438 1.0716 2.6465 2.4648 0.48773 1.3195 0.85314 2.5252 0.95898 3.4922l0.21289 2.7891 0.027344 2.7441c-0.049945 1.1847-0.34254 1.2777-0.62109 1.4336l-0.004-2.084c-0.09073-0.75926-0.090548-1.4361-0.48633-2.4727-0.5546-1.6343-1.6821-1.988-2.8438-2.2637-0.88599-0.10988-1.8212-0.15965-2.3965-0.63672-0.62215-0.55395-0.61574-1.714-0.66797-2.6387-2.4012 2.4304-4.4031 4.8217-6.3848 3.5957l-0.29492-0.12695c-0.38115-0.32228-0.6302-0.21224-0.7168 0.4375-0.039167 0.91391-0.07802 1.7843-0.11719 2.6719l-0.015625 3.6191c-0.36802 0.022941-0.6097-0.35893-0.5625-1.6543l0.039062-2.9062c0.019404-0.58607 0.043039-1.1737 0.10352-1.7598 0.077927-0.96218 0.2302-1.9051 0.42578-2.8379 0.22929-0.73005 0.60928-2.7001 2.6914-3.7422 1.0504-0.50787 2.4633-0.803 4.5137-0.72266zm-0.11328 4.5918c0.47587 4.7418 5.5877-0.097491 6.3125 6.5234l0.007813 2.9883c0.004999 1.885-0.32517 4.0321-1.6602 4.873-1.89 1.19-3.1723 2.1653-4.8359 2.2129-1.1393 0.0037-2.7933-1.2097-4.3652-2.1934-1.4135-0.88419-2.0469-3.0407-2.0469-4.916-0.033117-2.2761-0.001796-4.4788 0.13672-6.7168 2.5587 1.3024 4.1912-0.50161 6.4512-2.7715zm-3.1016 5.8574c-0.43895 0.00010998-0.79482 0.35594-0.79492 0.79492 0.00010003 0.43888 0.35595 0.79481 0.79492 0.79492 0.43899-0.00010998 0.79483-0.35598 0.79492-0.79492-0.00009004-0.43891-0.35595-0.79481-0.79492-0.79492zm5.9688 0c-0.43895 0.00010998-0.79482 0.35594-0.79492 0.79492 0.00010005 0.43888 0.35595 0.79481 0.79492 0.79492 0.43895-0.00010998 0.79482-0.35598 0.79492-0.79492-0.00010002-0.43891-0.35595-0.79481-0.79492-0.79492zm-2.9844 3.668c-0.39814 0-0.72 0.066422-0.7168 0.14844 0.00203 0.080874 0.32239 0.14652 0.7168 0.14648 0.39441 0.00038171 0.7148-0.065602 0.7168-0.14648 0.00402-0.077858-0.28788-0.14466-0.66602-0.14844-0.016779-0.00011339-0.033773-0.00011339-0.050781 0zm0.22852 2.8945c-0.064879-0.00065424-0.13047 0.004555-0.19531 0.003906-1.4516 0.024038-2.574 0.083598-2.5605 0.13672 0.01927 0.055038 1.2494 0.081523 2.7578 0.060547 1.4968-0.020939 2.7051-0.081994 2.7402-0.13672-0.008956-0.055245-1.2257-0.084791-2.7422-0.064453zm2.7422 0.064453c0.00006839 0.00038965 0.011771 0.001541 0.011719 0.001953v-0.001953c-0.00012754 0.00040288-0.011277-0.00047698-0.011719 0zm-14.631 4.901c-0.78497-0.007975-1.5875 0.076554-2.4141 0.26562 0.31283 1.3219 0.69237 1.9182 1.1816 2.793 0.61899-0.19423 1.6388-0.31552 2.2578-0.025391 0.67055-1.0094 0.99868-1.9107 1.2773-2.7695-0.752-0.162-1.518-0.257-2.303-0.264zm-2.6915 0.539-0.4942 1.487c-0.38601 1.1622-0.50099 1.6361-0.5332 2.1738-0.047633 0.79486-0.073125 0.73049 0.81641 2.0938 0.35767 0.54819 0.67045 0.9971 0.69531 0.99805 0.054832 0.001993 1.6973-2.3436 1.6973-2.4238 0-0.03171-0.3288-0.56776-0.72852-1.1934-0.8262-1.2931-1.2831-2.2086-1.3828-2.7578zm5.293 0-0.076172 0.4043c-0.093804 0.49278-0.60129 1.5092-1.3379 2.6816-2.8564 4.1757-5.1203 7.3397-8.1699 11.654 0.6182 0.87037 1.2805 1.8221 1.9688 2.5781 3.0133-5.0516 6.0914-7.9238 8.6328-12.975 0.11123-0.59251-0.017018-1.2848-0.51758-2.8145zm3.6328 3.918v6.4043h1.3203v-2.744h2.5762v2.7441h1.3203v-6.4043h-1.3203v2.5938h-2.5762v-2.5938zm6.459 0v6.4043h1.3203v-6.4043zm2 0 2.2227 6.4043h1.377l2.231-6.404h-1.4707l-1.4531 4.8164-1.4434-4.8164zm10.334 2.541v1.3203h6.404v-1.3203zm-22.893 1.567-0.823 1.212c-0.45245 0.66671-0.8393 1.2698-0.85938 1.3398-0.020152 0.070163 0.34282 0.67985 0.80469 1.3574 1.3047 1.8883 2.3847 3.5783 3.7168 5.4395 0.7009-0.90628 1.1986-1.6249 1.916-2.625-1.585-2.242-3.17-4.483-4.755-6.724z" transform="matrix(.26458 0 0 .26458 0 284.3)" stroke-width="3.7795" fill="#333"/>
  <g id="layer1-3" fill="#800000"></g>
 </g>
</svg>
