<svg width="48" height="48" viewBox="0 0 48 48" fill="none" xmlns="http://www.w3.org/2000/svg">
<path fill-rule="evenodd" clip-rule="evenodd" d="M48 0H0V48H48V0ZM20.3402 4.45974C18.3595 4.15502 16.3439 4.15502 14.3632 4.45974L13.9278 4.52673C12.4658 4.75164 11.2342 5.73792 10.6952 7.11536L8.26044 13.3376C7.81798 14.4683 7.91307 15.7388 8.51892 16.791L23.32 42.4982C23.928 43.5541 25.3308 43.8256 26.2889 43.0729L29.298 40.7086C30.0984 40.0797 30.2987 38.95 29.7634 38.0842L13.6431 12.011L14.0542 11.9123C16.2212 11.3922 18.481 11.3969 20.6458 11.926L20.9932 12.011L18.6265 15.7675L22.8632 22.62L26.1946 16.7869C26.7943 15.7368 26.8867 14.4717 26.4461 13.3456L24.0082 7.11536C23.4692 5.73792 22.2376 4.75164 20.7756 4.52673L20.3402 4.45974ZM5.40291 40.7066C4.60357 40.0786 4.40252 38.9508 4.93559 38.0852L11.7624 27L16.0381 34.3616L11.3815 42.4911C10.775 43.5499 9.36989 43.8235 8.4104 43.0697L5.40291 40.7066ZM40.5 26.68C40.5 25.015 41.5666 24.0705 42.6612 23.1012C43.815 22.0794 45 21.03 45 19.08C45 15.7208 42.315 13 39 13C35.685 13 33 15.7208 33 19.08H36C36 17.408 37.35 16.04 39 16.04C40.65 16.04 42 17.408 42 19.08C42 20.4164 41.1304 21.0919 40.1557 21.8489C38.9132 22.814 37.5 23.9116 37.5 26.68H40.5ZM40.5 28.96V32H37.5V28.96H40.5Z" fill="#333333"/>
</svg>
