<svg width="48" height="48" viewBox="0 0 48 48" fill="none" xmlns="http://www.w3.org/2000/svg">
<path fill-rule="evenodd" clip-rule="evenodd" d="M48 0H0V48H48V0ZM29.5913 4.67461C28.7899 4.21665 27.8914 4 26.9237 4H21.6761C19.8516 4 18.0073 4.84975 16.8974 6.38697C16.8604 6.43373 16.8241 6.48089 16.7886 6.52844L14.4605 9.54634L14.4522 9.55709L14.4523 9.55714L13.6409 10.639L13.6394 10.641C11.1085 13.9837 11.109 18.6379 13.6409 21.98L13.6468 21.9878L13.6529 21.9955L18.7192 28.4189L18.7195 28.4193L23.4226 34.3886L23.424 34.3903L30.0001 42.7749C30.7148 43.6861 32.0516 43.8018 32.9121 43.0268L36.9781 39.3654C37.7571 38.6639 37.8623 37.4799 37.2191 36.6521L29.7944 27.096L29.789 27.0891L29.789 27.0891L24.9969 21.0313L19.5739 14.0266C20.1663 13.6875 20.8665 13.5093 21.5857 13.5093H26.8333C27.4959 13.5093 28.1756 13.7018 28.7743 14.027L25.7551 17.9267L26.9658 19.4906L28.1797 21.0251C28.0634 20.7052 28 20.36 28 20C28 18.3431 29.3431 17 31 17H36.645C36.8316 14.7468 36.2097 12.4391 34.7795 10.5501L33.9666 9.46626L33.9585 9.45541L33.9584 9.45546L31.6269 6.43315L31.6156 6.41806L31.6279 6.40924C31.0533 5.60468 30.276 5.06587 29.5913 4.67461ZM30.0098 12.4316C31.0686 11.0296 31.076 9.05023 30.032 7.64012L29.932 7.5104L29.9466 7.49893C29.6182 7.07085 29.1501 6.726 28.599 6.4111C28.1338 6.14525 27.5847 6 26.9237 6H21.6761C20.4332 6 19.2104 6.58966 18.5089 7.57171L18.4982 7.5867L18.4869 7.60128L18.3831 7.73584C17.8657 8.43472 17.6094 9.25167 17.6094 10.0667C17.6094 10.8772 17.8617 11.7461 18.3445 12.4332C19.3185 11.8098 20.4633 11.5093 21.5857 11.5093H26.8333C27.965 11.5093 29.0758 11.8619 30.0098 12.4316ZM29.3523 22.5074L31.7497 25.5381L31.7592 25.5501L31.7686 25.5621L31.8508 25.668L33.9176 23H31C30.3914 23 29.8252 22.8188 29.3523 22.5074ZM31 19H37C37.5523 19 38 19.4477 38 20C38 20.5523 37.5523 21 37 21H31C30.4477 21 30 20.5523 30 20C30 19.4477 30.4477 19 31 19ZM16.5675 29.728L16.7555 29.9664L16.7566 29.9678L21.4555 35.9317L21.4603 35.9378L22.6207 37.4174L18.3652 42.8432C17.6916 43.702 16.4538 43.8622 15.5838 43.2031L11.2054 39.8861C10.3155 39.212 10.1498 37.9399 10.8372 37.0604L16.5675 29.728Z" fill="#333333"/>
</svg>
