<svg width="48" height="48" viewBox="0 0 48 48" fill="none" xmlns="http://www.w3.org/2000/svg">
<path fill-rule="evenodd" clip-rule="evenodd" d="M0 0H48V48H0V0ZM36 19C36 17.9057 35.111 17.0086 34 17.0001C32.889 17.0086 32 17.9057 32 19C32 19.5523 31.5523 20 31 20C30.4477 20 30 19.5523 30 19C30 16.8072 31.7685 15.0345 33.9521 15.0005C33.9627 15.0002 33.9733 15 33.984 15H34.0161C34.0267 15 34.0374 15.0002 34.0479 15.0005C36.2316 15.0345 38 16.8072 38 19C38 20.8689 36.7154 22.4327 34.984 22.8749V25C34.984 25.5523 34.5362 26 33.984 26C33.4317 26 32.984 25.5523 32.984 25V22C32.984 21.4477 33.4317 21 33.984 21C35.1024 21 36 20.0995 36 19ZM31.6156 6.41806L31.6269 6.43315L33.9584 9.45546L33.9585 9.45541L33.9666 9.46626L34.7795 10.5501C35.4525 11.4389 35.9465 12.4205 36.2615 13.4454C35.5899 13.1712 34.8584 13.0146 34.0933 13.001C34.0676 13.0003 34.0419 13 34.0161 13H33.984C33.9581 13 33.9324 13.0003 33.9068 13.001C30.6491 13.059 28 15.708 28 19C28 20.6515 29.3345 21.9913 30.984 22V22V25C30.984 25.1395 30.9935 25.2769 31.0119 25.4114L26.5721 19.7987L25.439 18.3351L28.7743 14.027C28.1756 13.7018 27.4959 13.5093 26.8333 13.5093H21.5857C20.8665 13.5093 20.1663 13.6875 19.5739 14.0266L24.9969 21.0313L29.789 27.0891L29.789 27.0891L29.7944 27.096L37.2191 36.6521C37.8623 37.4799 37.7571 38.6639 36.9781 39.3654L32.9121 43.0268C32.0516 43.8018 30.7148 43.6861 30.0001 42.7749L23.424 34.3903L23.4226 34.3886L18.7195 28.4193L18.7192 28.4189L13.6529 21.9955L13.6468 21.9878L13.6409 21.98C11.109 18.6379 11.1085 13.9837 13.6394 10.641L13.6409 10.639L14.4523 9.55714L14.4522 9.55709L14.4605 9.54634L16.7886 6.52844C16.8241 6.48089 16.8604 6.43373 16.8974 6.38697C18.0073 4.84975 19.8516 4 21.6761 4H26.9237C27.8914 4 28.7899 4.21665 29.5913 4.67461C30.276 5.06587 31.0533 5.60468 31.6279 6.40924L31.6156 6.41806ZM30.032 7.64012C31.076 9.05023 31.0686 11.0296 30.0098 12.4317C29.0758 11.8619 27.965 11.5093 26.8333 11.5093H21.5857C20.4633 11.5093 19.3185 11.8098 18.3445 12.4332C17.8617 11.7461 17.6094 10.8772 17.6094 10.0667C17.6094 9.25167 17.8657 8.43472 18.3831 7.73584L18.4869 7.60128L18.4982 7.5867L18.5089 7.57171C19.2104 6.58966 20.4332 6 21.6761 6H26.9237C27.5847 6 28.1338 6.14525 28.599 6.4111C29.1501 6.726 29.6182 7.07085 29.9466 7.49893L29.932 7.5104L30.032 7.64012ZM16.7555 29.9664L16.5675 29.728L10.8372 37.0604C10.1498 37.9399 10.3155 39.212 11.2054 39.8861L15.5838 43.2031C16.4538 43.8622 17.6916 43.702 18.3652 42.8432L22.6207 37.4174L21.4603 35.9378L21.4555 35.9317L16.7566 29.9678L16.7555 29.9664ZM35 28C35 28.5523 34.5523 29 34 29C33.4477 29 33 28.5523 33 28C33 27.4477 33.4477 27 34 27C34.5523 27 35 27.4477 35 28Z" fill="#333333"/>
</svg>
