<svg width="48" height="48" viewBox="0 0 48 48" fill="none" xmlns="http://www.w3.org/2000/svg">
<path fill-rule="evenodd" clip-rule="evenodd" d="M29.5914 4.67461C28.79 4.21665 27.8915 4 26.9239 4H21.6762C19.8518 4 18.0074 4.84975 16.8975 6.38697C16.8605 6.43373 16.8242 6.48089 16.7887 6.52844L14.4523 9.55709L13.641 10.639L13.6395 10.641C11.1086 13.9837 11.1091 18.6379 13.641 21.98L13.6469 21.9878L23.4241 34.3903L30.0002 42.7749C30.7149 43.6861 32.0517 43.8018 32.9123 43.0268L36.9782 39.3654C37.7572 38.6639 37.8624 37.4799 37.2192 36.6521L29.7891 27.0891L24.9971 21.0313L19.5741 14.0266C20.1664 13.6875 20.8666 13.5093 21.5858 13.5093H26.8334C27.496 13.5093 28.1757 13.7018 28.7744 14.027L25.4391 18.3351L26.5722 19.7987L31.012 25.4114C30.9936 25.2769 30.9841 25.1395 30.9841 25V22C29.3346 21.9913 28.0001 20.6515 28.0001 19C28.0001 15.708 30.6493 13.059 33.9069 13.001C33.9325 13.0003 33.9583 13 33.9841 13H34.0162C34.042 13 34.0677 13.0003 34.0934 13.001C34.8585 13.0146 35.5901 13.1712 36.2616 13.4454C35.9466 12.4205 35.4526 11.4389 34.7796 10.5501L33.9667 9.46626L33.9585 9.45546L31.627 6.43315L31.6157 6.41806L31.6281 6.40924C31.0534 5.60468 30.2761 5.06587 29.5914 4.67461ZM21.5858 11.5093C20.4634 11.5093 19.3186 11.8098 18.3446 12.4332C17.8618 11.7461 17.6096 10.8772 17.6096 10.0667C17.6096 9.25167 17.8658 8.43472 18.3833 7.73584L18.4983 7.5867L18.509 7.57171C19.2105 6.58966 20.4333 6 21.6762 6H26.9239C27.5848 6 28.1339 6.14525 28.5991 6.4111C29.1502 6.726 29.6183 7.07085 29.9467 7.49893L29.9321 7.5104L30.0322 7.64012C31.0761 9.05023 31.0687 11.0296 30.0099 12.4317C29.0759 11.8619 27.9651 11.5093 26.8334 11.5093H21.5858Z" fill="#333333"/>
<path d="M36.0001 19C36.0001 17.9057 35.1111 17.0086 34.0001 17.0001C32.8891 17.0086 32.0001 17.9057 32.0001 19C32.0001 19.5523 31.5524 20 31.0001 20C30.4478 20 30.0001 19.5523 30.0001 19C30.0001 16.8072 31.7685 15.0345 33.9522 15.0005C33.9564 15.0004 33.9607 15.0003 33.965 15.0002C33.9713 15.0001 33.9777 15 33.984 15H34.0162C34.0268 15 34.0374 15.0002 34.048 15.0005C36.2317 15.0345 38.0001 16.8072 38.0001 19C38.0001 20.8689 36.7155 22.4327 34.984 22.8749V25C34.984 25.5523 34.5363 26 33.984 26C33.4318 26 32.984 25.5523 32.984 25V22C32.984 21.4477 33.4318 21 33.984 21C35.1025 21 36.0001 20.0995 36.0001 19Z" fill="#333333"/>
<path d="M21.4556 35.9317L16.5676 29.728L10.8373 37.0603C10.1499 37.9399 10.3157 39.2119 11.2055 39.886L15.5839 43.203C16.4539 43.8621 17.6917 43.702 18.3653 42.8431L22.6208 37.4173L21.4604 35.9377L21.4556 35.9317Z" fill="#333333"/>
<path d="M35.0001 28C35.0001 28.5523 34.5524 29 34.0001 29C33.4478 29 33.0001 28.5523 33.0001 28C33.0001 27.4477 33.4478 27 34.0001 27C34.5524 27 35.0001 27.4477 35.0001 28Z" fill="#333333"/>
</svg>
