<svg width="48" height="48" viewBox="0 0 48 48" fill="none" xmlns="http://www.w3.org/2000/svg">
<path d="M35.9986 19.642V19.4062V10.7499C35.9986 10.6837 35.9723 10.6201 35.9254 10.5732C35.8785 10.5263 35.8149 10.5 35.7486 10.5H32.2489C32.1826 10.5 32.1191 10.5263 32.0722 10.5732C32.0253 10.6201 31.999 10.6837 31.999 10.7499V15.2877V16.3466L31.1813 15.6738L25.5861 11.0704L25.5861 11.0704C25.1386 10.7022 24.5771 10.5009 23.9977 10.5009C23.4183 10.5009 22.8569 10.7022 22.4094 11.0703C22.4094 11.0703 22.4093 11.0704 22.4093 11.0704L6.59071 24.0981C6.59062 24.0982 6.59053 24.0982 6.59044 24.0983C6.56525 24.1192 6.5444 24.1448 6.52909 24.1737C6.51371 24.2027 6.50421 24.2345 6.50111 24.2672C6.49802 24.2999 6.50139 24.3329 6.51105 24.3642C6.5207 24.3956 6.53645 24.4248 6.55738 24.4501L6.55832 24.4512L8.15195 26.3886L8.15198 26.3886C8.17286 26.414 8.19853 26.435 8.22755 26.4505C8.25656 26.4659 8.28833 26.4755 8.32104 26.4787C8.35376 26.4818 8.38678 26.4785 8.4182 26.4689C8.44963 26.4592 8.47885 26.4435 8.50419 26.4226L8.50471 26.4221L23.2048 14.3143L23.2089 14.311L23.2089 14.311C23.4332 14.1302 23.7127 14.0316 24.0008 14.0316C24.2889 14.0316 24.5684 14.1302 24.7927 14.311L24.7968 14.3143L24.7968 14.3143L39.4975 26.4221L39.4984 26.4229C39.5237 26.4438 39.5529 26.4596 39.5843 26.4692C39.6156 26.4789 39.6486 26.4822 39.6813 26.4791C39.714 26.4761 39.7458 26.4665 39.7748 26.4512C39.8037 26.4358 39.8294 26.415 39.8503 26.3897C39.8503 26.3897 39.8504 26.3896 39.8504 26.3895L41.4432 24.4533L35.9986 19.642ZM35.9986 19.642L36.1806 19.792L41.4052 24.0985L41.7232 23.7127M35.9986 19.642L41.7232 23.7127M41.7232 23.7127L41.4077 24.1006C41.4333 24.1214 41.4545 24.147 41.4701 24.176C41.4857 24.205 41.4955 24.2368 41.4988 24.2696C41.502 24.3024 41.4988 24.3355 41.4893 24.367C41.4798 24.3984 41.4641 24.4277 41.4433 24.4531L41.7232 23.7127ZM23.8365 17.6518C23.837 17.6514 23.8375 17.651 23.838 17.6506C23.8843 17.6139 23.9417 17.5939 24.0008 17.5939C24.0599 17.5939 24.1173 17.6139 24.1636 17.6507C24.1641 17.6511 24.1646 17.6514 24.1651 17.6518L35.4986 26.9816V36.9948C35.4986 37.1274 35.446 37.2545 35.3522 37.3483C35.2586 37.4419 35.1317 37.4946 34.9993 37.4947C34.9991 37.4947 34.9989 37.4947 34.9987 37.4947L27.9994 37.4754H27.998C27.9322 37.4754 27.8671 37.4624 27.8063 37.4371C27.7456 37.4119 27.6904 37.375 27.6439 37.3284C27.5975 37.2818 27.5607 37.2265 27.5357 37.1657C27.5106 37.1048 27.4979 37.0397 27.4981 36.9739V36.9723V30.9953C27.4981 30.5975 27.34 30.2159 27.0588 29.9347C26.7775 29.6534 26.396 29.4953 25.9981 29.4953H21.9985C21.6007 29.4953 21.2191 29.6534 20.9378 29.9347C20.6566 30.2159 20.4985 30.5975 20.4985 30.9953V36.9767C20.4985 37.1088 20.4462 37.2356 20.353 37.3293C20.2598 37.4229 20.1334 37.4759 20.0014 37.4766C20.0013 37.4766 20.0012 37.4766 20.0011 37.4766L13.0004 37.4947C13.0002 37.4947 13.0001 37.4947 12.9999 37.4947C12.8675 37.4946 12.7405 37.4419 12.6469 37.3483C12.5531 37.2545 12.5005 37.1274 12.5005 36.9948V26.9884L23.8365 17.6518Z" stroke="#333333"/>
</svg>
