<svg width="48" height="48" viewBox="0 0 48 48" fill="none" xmlns="http://www.w3.org/2000/svg">
<path d="M23.5227 17.2626L12.0005 26.7525V36.9948C12.0005 37.26 12.1058 37.5143 12.2933 37.7019C12.4809 37.8894 12.7352 37.9947 13.0004 37.9947L20.0036 37.9766C20.2679 37.9753 20.521 37.8693 20.7074 37.682C20.8939 37.4946 20.9985 37.241 20.9985 36.9767V30.9953C20.9985 30.7301 21.1039 30.4757 21.2914 30.2882C21.4789 30.1007 21.7333 29.9953 21.9985 29.9953H25.9981C26.2633 29.9953 26.5177 30.1007 26.7052 30.2882C26.8927 30.4757 26.9981 30.7301 26.9981 30.9953V36.9723C26.9977 37.1039 27.0232 37.2342 27.0733 37.3559C27.1234 37.4776 27.1969 37.5882 27.2898 37.6814C27.3827 37.7746 27.4931 37.8485 27.6146 37.8989C27.7361 37.9494 27.8664 37.9754 27.998 37.9754L34.9987 37.9947C35.2639 37.9947 35.5182 37.8894 35.7058 37.7019C35.8933 37.5143 35.9986 37.26 35.9986 36.9948V26.7456L24.4789 17.2626C24.3435 17.1534 24.1747 17.0939 24.0008 17.0939C23.8269 17.0939 23.6581 17.1534 23.5227 17.2626ZM41.7232 23.7127L36.4986 19.4062V10.7499C36.4986 10.551 36.4196 10.3603 36.2789 10.2197C36.1383 10.079 35.9475 10 35.7486 10H32.2489C32.05 10 31.8593 10.079 31.7186 10.2197C31.578 10.3603 31.499 10.551 31.499 10.7499V15.2877L25.9038 10.6843C25.3668 10.2425 24.6931 10.0009 23.9977 10.0009C23.3023 10.0009 22.6285 10.2425 22.0916 10.6843L6.27217 23.7127C6.19623 23.7755 6.1334 23.8526 6.08727 23.9396C6.04115 24.0267 6.01262 24.122 6.00334 24.2201C5.99405 24.3181 6.00418 24.4171 6.03315 24.5113C6.06212 24.6054 6.10936 24.693 6.17217 24.7689L7.7658 26.7062C7.82844 26.7824 7.90549 26.8454 7.99253 26.8918C8.07958 26.9382 8.17491 26.9669 8.27307 26.9763C8.37123 26.9858 8.47029 26.9758 8.56459 26.9469C8.65888 26.9181 8.74656 26.8709 8.82259 26.8081L23.5227 14.7003C23.6581 14.5911 23.8269 14.5316 24.0008 14.5316C24.1747 14.5316 24.3435 14.5911 24.4789 14.7003L39.1796 26.8081C39.2555 26.8709 39.3431 26.9181 39.4372 26.9471C39.5314 26.9761 39.6304 26.9862 39.7284 26.9769C39.8265 26.9676 39.9218 26.9391 40.0089 26.893C40.0959 26.8469 40.173 26.784 40.2358 26.7081L41.8294 24.7707C41.8922 24.6944 41.9392 24.6064 41.9678 24.5118C41.9965 24.4173 42.0061 24.318 41.9963 24.2196C41.9864 24.1213 41.9572 24.0259 41.9103 23.9389C41.8634 23.8519 41.7999 23.775 41.7232 23.7127Z" fill="#333333"/>
</svg>
