<svg width="48" height="48" viewBox="0 0 48 48" fill="none" xmlns="http://www.w3.org/2000/svg">
<path fill-rule="evenodd" clip-rule="evenodd" d="M20.9017 7.84827V14.5291C21.9309 14.9468 22.9645 15.3594 24.3031 15.3922C24.4 15.3977 24.4896 15.3945 24.5833 15.3962C24.677 15.3945 24.7666 15.398 24.8635 15.3922C26.2022 15.3594 27.2358 14.9468 28.2649 14.5291V7.84827H28.2582H20.9085H20.9017ZM24.0365 9.76857H25.1301V11.1181H25.232H26.2985V12.499H25.232H25.1301V13.8485H24.0365V12.499H23.9346H22.8682V11.1181H23.9346H24.0365V9.76857ZM16.7514 13.1168L17.7075 14.7213H17.7262V22.0652V23.6559V23.6696V32.3276V39.1242H17.3339V15.6432H17.0741C12.4715 15.6534 12.1764 15.6551 9.75498 15.6432H8.4457H6.28394L7.15339 17.1045H7.17207V23.7913V25.2408V25.2526V33.1339V39.3224H6.31111V39.3616H6.30772V39.9501V41.2819V41.3133H42.8505V41.2819H42.8521V39.3616H42.8487V39.3224H41.9877V33.1339V25.2526V25.2408V23.7913V17.1045H42.0064L42.8759 15.6432H40.7141H39.4048C36.9834 15.6551 36.6883 15.6534 32.0858 15.6432H31.8259V39.1243H31.4405V32.3277V23.6697V23.656V22.0652V14.7214H31.4592L32.4152 13.1169H30.0395H28.6028V14.8999C27.2081 15.57 25.8712 15.8843 24.5833 15.8963C23.2954 15.8844 21.9585 15.57 20.5637 14.8999V13.1169H19.1271L16.7514 13.1168ZM21.8221 20.7902H24.4441V23.4931H21.8221V20.7902ZM24.7243 20.7902H27.3445V23.4931H24.7243V20.7902ZM10.9012 22.6301H13.2855V25.0917H10.9012V22.6301ZM13.5402 22.6301H15.9295V25.0917H13.5402V22.6301ZM33.2304 22.6301H35.6197V25.0917H33.2304V22.6301ZM35.8744 22.6301H38.2586V25.0917H35.8744V22.6301ZM21.8221 23.8168H24.4441V26.9807H21.8221V23.8168ZM24.7243 23.8168H27.3445V26.9807H24.7243V23.8168ZM10.9012 25.386H13.2855V28.2654H10.9012V25.386ZM13.5402 25.386H15.9295V28.2654H13.5402V25.386ZM33.2304 25.386H35.6197V28.2654H33.2304V25.386ZM35.8744 25.386H38.2586V28.2654H35.8744V25.386ZM21.7949 28.4184H27.3717V32.3277V39.1243H21.7949V32.3277V28.4184ZM10.9012 29.9445H13.2855V32.4081H10.9012V29.9445ZM13.5402 29.9445H15.9295V32.4081H13.5402V29.9445ZM33.2304 29.9445H35.6197V32.4081H33.2304V29.9445ZM35.8744 29.9445H38.2586V32.4081H35.8744V29.9445ZM10.9012 32.7023H13.2855V35.5818H10.9012V32.7023ZM13.5402 32.7023H15.9295V35.5818H13.5402V32.7023ZM33.2304 32.7023H35.6197V35.5818H33.2304V32.7023ZM35.8744 32.7023H38.2586V35.5818H35.8744V32.7023Z" fill="#333333"/>
</svg>
