<svg width="48" height="48" viewBox="0 0 48 48" fill="none" xmlns="http://www.w3.org/2000/svg">
<g clip-path="url(#clip0)">
<path fill-rule="evenodd" clip-rule="evenodd" d="M0 0V48H48V0H0ZM20.2461 7.26757H20.2519H27.7558H27.7617V13.9473C26.711 14.3649 25.6555 14.7778 24.289 14.8106C24.1901 14.8164 24.0995 14.8128 24.0039 14.8145C23.9082 14.8128 23.8176 14.8161 23.7187 14.8106C22.3522 14.7778 21.2967 14.3649 20.2461 13.9473V7.26757ZM23.4453 9.1875V10.5371H23.3418H22.2539V11.918H23.3418H23.4453V13.2676H24.5625V11.918H24.666H25.7539V10.5371H24.666H24.5625V9.1875H23.4453ZM16.0097 12.5352H18.4336H19.9003V14.3184C21.3242 14.9885 22.6891 15.3026 24.0039 15.3145C25.3186 15.3025 26.6836 14.9885 28.1074 14.3184V12.5352H29.5742H31.998L31.0234 14.1407H31.0039V21.4844V23.0742V23.0879V31.7461V38.543H31.3964V15.0625H31.6621C36.3605 15.0727 36.6628 15.0744 39.1347 15.0625H40.4707H42.6777L41.789 16.5235H41.7714V23.211V24.6602V24.6719V32.5528V38.7403H42.6503V38.7813H42.6523V40.7012V40.7324H5.34766V40.7012V39.3692V38.7813H5.35156V38.7403H6.23047V32.5528V24.6719V24.6602V23.211V16.5235H6.21094L5.32422 15.0625H7.5293H8.86719C11.339 15.0744 11.6394 15.0727 16.3379 15.0625H16.6035V38.543H17.0039V31.7461V23.0879V23.0742V21.4844V14.1407H16.9843L16.0097 12.5352ZM21.1855 20.209V22.9121H23.8613V20.209H21.1855ZM24.1484 20.209V22.9121H26.8222V20.209H24.1484ZM10.0371 22.0489V24.5098H12.4707V22.0489H10.0371ZM12.7304 22.0489V24.5098H15.1699V22.0489H12.7304ZM32.832 22.0489V24.5098H35.2695V22.0489H32.832ZM35.5293 22.0489V24.5098H37.9648V22.0489H35.5293ZM21.1855 23.2364V26.4004H23.8613V23.2364H21.1855ZM24.1484 23.2364V26.4004H26.8222V23.2364H24.1484ZM10.0371 24.8047V27.6836H12.4707V24.8047H10.0371ZM12.7304 24.8047V27.6836H15.1699V24.8047H12.7304ZM32.832 24.8047V27.6836H35.2695V24.8047H32.832ZM35.5293 24.8047V27.6836H37.9648V24.8047H35.5293ZM21.1582 27.8379V31.7461V38.543H26.8496V31.7461V27.8379H21.1582ZM10.0371 29.3633V31.8262H12.4707V29.3633H10.0371ZM12.7304 29.3633V31.8262H15.1699V29.3633H12.7304ZM32.832 29.3633V31.8262H35.2695V29.3633H32.832ZM35.5293 29.3633V31.8262H37.9648V29.3633H35.5293ZM10.0371 32.1211V35H12.4707V32.1211H10.0371ZM12.7304 32.1211V35H15.1699V32.1211H12.7304ZM32.832 32.1211V35H35.2695V32.1211H32.832ZM35.5293 32.1211V35H37.9648V32.1211H35.5293Z" fill="#333333"/>
</g>
<defs>
<clipPath id="clip0">
<rect width="48" height="48" fill="white"/>
</clipPath>
</defs>
</svg>
