<svg width="48" height="48" viewBox="0 0 48 48" fill="none" xmlns="http://www.w3.org/2000/svg">
<path d="M5.50674 6.28882V8.68239H4.6377V9.0651H5.50674V42.556H6.27217V9.0651H7.97431C7.99983 9.1232 8.03565 9.17622 8.08003 9.22157H7.95739C7.34775 9.22157 6.85787 9.71145 6.85787 10.3211V12.8098C6.85787 13.4194 7.34775 13.9093 7.95739 13.9093H8.08848C6.59761 20.225 7.45501 23.386 9.96824 24.323C9.02428 24.7647 8.36971 25.7137 8.36971 26.8287V29.4125C8.37529 29.5177 8.36971 29.7383 8.36971 29.8312V40.7883C8.36971 41.7691 9.15881 42.5602 10.1395 42.5602C11.1202 42.5602 11.9093 41.7691 11.9093 40.7883V29.8312C11.9093 29.6868 11.9079 29.5701 11.9093 29.4273L17.7494 29.4146H40.4841C40.4812 29.5615 40.4841 29.6888 40.4841 29.8333V40.7883C40.4841 41.7689 41.2732 42.5602 42.2539 42.5602C43.2346 42.5602 44.0237 41.7689 44.0237 40.7883V29.8333C44.0251 29.5767 44.0237 29.4283 44.0237 29.4146V26.8308C44.0237 25.2934 42.7847 24.0566 41.2474 24.0566H17.7495L11.1439 24.0545C10.8972 24.0545 10.6629 24.0982 10.4355 24.1581C10.4349 24.1579 10.4341 24.1583 10.4334 24.1581C8.02385 23.3387 6.83365 20.7012 8.42684 13.9093H9.05907C9.6687 13.9093 10.1586 13.4194 10.1586 12.8098V10.3211C10.1586 9.71145 9.6687 9.22157 9.05907 9.22157H8.82859C8.92659 9.12256 8.98134 8.98874 8.98083 8.84943C8.98095 8.5586 8.74516 8.32281 8.45433 8.32293C8.4424 8.32252 8.43037 8.32252 8.41838 8.32293C8.20352 8.33756 8.01925 8.48163 7.9532 8.68661L6.27221 8.68231V6.28882H5.50674ZM8.42892 8.51746H8.43099C8.43877 8.51719 8.4465 8.51719 8.45424 8.51746C8.63763 8.51734 8.78633 8.66604 8.78621 8.84943C8.78633 9.03282 8.63763 9.18151 8.45424 9.1814C8.27085 9.18151 8.12216 9.03282 8.12227 8.84943C8.12166 8.67551 8.25546 8.53065 8.42887 8.51746H8.42892ZM8.04832 9.6064H8.96811C9.47778 9.6064 9.8879 10.0165 9.8879 10.5262V12.6047C9.8879 13.1144 9.47778 13.5245 8.96811 13.5245H8.04832C7.53864 13.5245 7.12853 13.1144 7.12853 12.6047V10.5262C7.12853 10.0165 7.53864 9.6064 8.04832 9.6064ZM9.17744 11.7737C8.62488 11.7243 7.97381 12.286 7.33997 12.0782V12.7485C7.33997 13.0832 7.60996 13.3511 7.94471 13.3511H9.08863C9.42338 13.3511 9.69337 13.0832 9.69337 12.7485V12.0782C9.53561 11.875 9.36162 11.7902 9.17744 11.7737ZM13.7954 17.0282C12.0798 17.0277 10.6889 18.4187 10.6893 20.1343C10.6889 21.8499 12.0798 23.2408 13.7954 23.2404C15.511 23.2408 16.9019 21.8499 16.9016 20.1343C16.902 18.4187 15.511 17.0277 13.7954 17.0282ZM20.4031 19.316C19.4489 19.316 18.6798 20.0851 18.6798 21.0393C18.6798 21.0721 18.6864 21.1037 18.6882 21.1365H18.6798V23.0121H31.0938V23.0185H41.5731V21.1387H41.5647C41.5665 21.106 41.5731 21.0746 41.5731 21.0415C41.5731 20.0871 40.8062 19.3182 39.8519 19.3182L20.4031 19.316Z" fill="#333333"/>
</svg>
