<svg width="49" height="48" viewBox="0 0 49 48" fill="none" xmlns="http://www.w3.org/2000/svg">
<path fill-rule="evenodd" clip-rule="evenodd" d="M21.3379 7.84766V14.5293C22.3885 14.9469 23.4421 15.3598 24.8086 15.3926C24.9075 15.3981 25.0001 15.3948 25.0957 15.3965C25.1914 15.3948 25.2819 15.3984 25.3809 15.3926C26.7474 15.3598 27.8029 14.9469 28.8535 14.5293V7.84766H28.8477H21.3438H21.3379ZM24.5371 9.76758H25.6543V11.1172H25.7578H26.8457V12.498H25.7578H25.6543V13.8477H24.5371V12.498H24.4336H23.3438V11.1172H24.4336H24.5371V9.76758ZM17.0996 13.1172L18.0762 14.7207H18.0957V22.0645V23.6562V23.6699V32.3281V39.125H17.6953V15.6426H17.4297C12.7312 15.6528 12.4309 15.6545 9.95898 15.6426H8.62109H6.41406L7.30273 17.1055H7.32227V23.791V25.2402V25.252V33.1348V39.3223H6.44336V39.3613H6.43945V39.9492V41.2812L43.7441 41.3125V41.2812V39.3613H43.7422V39.3223H42.8633V33.1348V25.252V25.2402V23.791V17.1055H42.8809L43.7695 15.6426H41.5625H40.2266C37.7547 15.6545 37.4524 15.6528 32.7539 15.6426H32.4883V39.125H32.0957V32.3281V23.6699V23.6562V22.0645V14.7207H32.1152L33.0898 13.1172H30.666H29.1992V14.9004C27.7754 15.5706 26.4105 15.8845 25.0957 15.8965C23.7809 15.8846 22.416 15.5706 20.9922 14.9004V13.1172H19.5254H17.0996ZM17.9355 13.5859L20.6523 13.5977L20.6367 15.3262C21.0433 15.3842 24.8583 17.5382 29.6289 15.2637L29.6055 13.5918L32.3418 13.5996L31.75 14.5312L31.6016 39.6191H33.0508L32.9961 36.1035C33.0234 29.4777 32.9863 22.7926 32.9863 16.1426L33.4141 16.1543C36.6701 16.145 39.7836 16.1552 42.9082 16.1465L42.3633 17V39.7988H43.2422V40.8301H6.94336V39.7988H7.83008V16.875L7.42383 16.1758C10.7522 16.1508 14.121 16.1547 17.166 16.1738V39.1504H17.1641V39.6191H18.6016L18.5391 14.5742L17.9355 13.5859ZM21.7617 20.3262V27.4766H28.4414V20.3262H21.7617ZM22.2773 20.791H24.9531V23.4922H22.2773V20.791ZM25.2402 20.791H27.9141V23.4922H25.2402V20.791ZM33.4551 22.123V28.7617H39.5352V22.123H33.4551ZM10.6562 22.1309V28.7617H16.7754V22.1309H10.6562ZM11.1289 22.6309H13.5625V25.0918H11.1289V22.6309ZM13.8223 22.6309H16.2617V25.0918H13.8223V22.6309ZM33.9219 22.6309H36.3613V25.0918H33.9219V22.6309ZM36.6211 22.6309H39.0566V25.0918H36.6211V22.6309ZM22.2773 23.8164H24.9531V26.9805H22.2773V23.8164ZM25.2402 23.8164H27.9141V26.9805H25.2402V23.8164ZM11.1289 25.3867H13.5625V28.2656H11.1289V25.3867ZM13.8223 25.3867H16.2617V28.2656H13.8223V25.3867ZM33.9219 25.3867H36.3613V28.2656H33.9219V25.3867ZM36.6211 25.3867H39.0566V28.2656H36.6211V25.3867ZM21.7617 27.9375V39.6191H28.4414V27.9375H27.9395H22.2773H21.7617ZM22.25 28.418H27.9414V32.3281V39.125H22.25V32.3281V28.418ZM10.6562 29.4473V36.0625H16.7754V29.4473H10.6562ZM33.4551 29.4473V36.1035H39.5352V29.4473H33.4551ZM11.1289 29.9453H13.5625V32.4082H11.1289V29.9453ZM13.8223 29.9453H16.2617V32.4082H13.8223V29.9453ZM33.9219 29.9453H36.3613V32.4082H33.9219V29.9453ZM36.6211 29.9453H39.0566V32.4082H36.6211V29.9453ZM11.1289 32.7031H13.5625V35.582H11.1289V32.7031ZM13.8223 32.7031H16.2617V35.582H13.8223V32.7031ZM33.9219 32.7031H36.3613V35.582H33.9219V32.7031ZM36.6211 32.7031H39.0566V35.582H36.6211V32.7031Z" fill="#333333"/>
</svg>
