<?xml version="1.0" encoding="UTF-8" standalone="no"?>
<!-- Created with Inkscape (http://www.inkscape.org/) -->

<svg
   xmlns:dc="http://purl.org/dc/elements/1.1/"
   xmlns:cc="http://creativecommons.org/ns#"
   xmlns:rdf="http://www.w3.org/1999/02/22-rdf-syntax-ns#"
   xmlns:svg="http://www.w3.org/2000/svg"
   xmlns="http://www.w3.org/2000/svg"
   xmlns:sodipodi="http://sodipodi.sourceforge.net/DTD/sodipodi-0.dtd"
   xmlns:inkscape="http://www.inkscape.org/namespaces/inkscape"
   id="svg8"
   height="48"
   width="48"
   version="1.1"
   viewBox="0 0 12.7 12.7"
   sodipodi:docname="hot_meal_positive.svg"
   inkscape:version="0.92.2 (5c3e80d, 2017-08-06)">
  <defs
     id="defs9" />
  <sodipodi:namedview
     pagecolor="#ffffff"
     bordercolor="#666666"
     borderopacity="1"
     objecttolerance="10"
     gridtolerance="10"
     guidetolerance="10"
     inkscape:pageopacity="0"
     inkscape:pageshadow="2"
     inkscape:window-width="957"
     inkscape:window-height="480"
     id="namedview7"
     showgrid="false"
     inkscape:zoom="4.916666667"
     inkscape:cx="-37.72881356"
     inkscape:cy="24"
     inkscape:window-x="0"
     inkscape:window-y="0"
     inkscape:window-maximized="0"
     inkscape:current-layer="svg8" />
  <title
     id="title4753">UIO-icon</title>
  <metadata
     id="metadata5">
    <rdf:RDF>
      <cc:Work
         rdf:about="">
        <dc:format>image/svg+xml</dc:format>
        <dc:type
           rdf:resource="http://purl.org/dc/dcmitype/StillImage" />
        <dc:title>UIO-icon</dc:title>
        <dc:creator>
          <cc:Agent>
            <dc:title>Joaquín Urbano</dc:title>
          </cc:Agent>
        </dc:creator>
        <dc:rights>
          <cc:Agent>
            <dc:title>GPL</dc:title>
          </cc:Agent>
        </dc:rights>
      </cc:Work>
    </rdf:RDF>
  </metadata>
  <g
     id="layer1"
     transform="translate(0,-284.3)"
     style="fill:#1a1a1a">
    <path
       id="path890"
       d="m 5.7344,4 c 1.5592,5.8787 -4.5822,3.845 0,9 -2.3092,-4.4725 4.5826,-3.845 0,-9 z M 11.84,4 c 1.559,5.8787 -4.5824,3.845 0,9 -2.3094,-4.4725 4.582,-3.845 0,-9 z m 6.103,0 c 1.56,5.8787 -4.582,3.845 0,9 -2.309,-4.4725 4.583,-3.845 0,-9 z m 6.106,0 c 1.559,5.8787 -4.582,3.845 0,9 -2.309,-4.4725 4.582,-3.845 0,-9 z m 6.103,0 c 1.56,5.8787 -4.582,3.845 0,9 -2.309,-4.4725 4.583,-3.845 0,-9 z m 6.106,0 c 1.559,5.8787 -4.582,3.845 0,9 -2.309,-4.4725 4.582,-3.845 0,-9 z m 6.103,0 c 1.56,5.8787 -4.582,3.845 0,9 -2.309,-4.4725 4.583,-3.845 0,-9 z M 4.047,17 A 20,20 0 0 0 24.004,36.123 20,20 0 0 0 43.973,17 Z m 0.0859,23 c -0.0734,0 -0.1328,0.059 -0.1328,0.133 v 3.734 c 0,0.074 0.0594,0.133 0.1328,0.133 h 39.734 c 0.074,0 0.133,-0.059 0.133,-0.133 v -3.734 c 0,-0.074 -0.059,-0.133 -0.133,-0.133 z"
       transform="matrix(0.26458,0,0,0.26458,0,284.3)"
       style="fill:#1a1a1a;fill-rule:evenodd"
       inkscape:connector-curvature="0" />
  </g>
</svg>
