<svg width="48" height="48" viewBox="0 0 48 48" fill="none" xmlns="http://www.w3.org/2000/svg">
<path d="M24.3241 5.38448C23.6951 5.3841 23.185 5.89415 23.1854 6.52314C23.1858 6.84213 23.319 7.13595 23.539 7.34541C24.1279 8.08106 24.0136 8.31954 24.0136 9.15017C23.9969 9.63875 24.0242 10.0925 24.0644 10.5252C23.0147 10.5475 21.9707 10.6851 20.9511 10.9353C20.7399 10.2383 20.7088 10.0378 20.8827 9.57393C20.9991 9.37475 21.0319 9.13141 20.9608 8.90011C20.8233 8.45563 20.3529 8.20597 19.9081 8.34346C19.4631 8.48066 19.2127 8.95262 19.3515 9.39815C19.4218 9.62341 19.5818 9.80196 19.7831 9.90208C20.3429 10.2811 20.3357 10.4888 20.4999 11.0349C19.789 11.2375 19.0949 11.4948 18.4237 11.8044C18.236 11.5149 18.057 11.2277 17.8319 10.9295C17.3003 10.1906 17.1907 9.9823 17.2089 9.37474C17.2645 9.10072 17.2071 8.80758 17.0351 8.57011C16.7036 8.11396 16.0658 8.01385 15.6093 8.34554C15.1535 8.67738 15.0516 9.31483 15.3847 9.77128C15.5532 10.0022 15.8059 10.1455 16.0761 10.1816C16.8917 10.4046 16.9328 10.6372 17.371 11.2401C17.5607 11.5205 17.7593 11.7752 17.9589 12.0136C16.8342 12.5747 15.7881 13.2813 14.8476 14.1151C14.8204 14.0886 14.8009 14.0633 14.7733 14.0369C14.2119 13.4724 14.0879 13.3063 14.0194 12.7791C14.0308 12.5349 13.9407 12.2905 13.7597 12.1092C13.4104 11.7611 12.8444 11.7618 12.496 12.1111C12.1471 12.4607 12.1487 13.0263 12.4998 13.3748C12.6774 13.5506 12.914 13.6389 13.1521 13.6325C13.8874 13.7122 13.9558 13.9088 14.4177 14.3688C14.4397 14.3915 14.4622 14.4105 14.4842 14.4335C13.8958 14.9935 13.3561 15.6024 12.8709 16.2538C12.7464 16.1642 12.6372 16.0742 12.5017 15.9862C12.031 15.6653 11.9217 15.5642 11.8025 15.203C11.7798 15.0299 11.6787 14.8704 11.5271 14.7675C11.235 14.5702 10.8381 14.6469 10.6404 14.9394C10.4424 15.2323 10.519 15.6287 10.8123 15.8262C10.9608 15.926 11.14 15.9581 11.3064 15.9218C11.8339 15.8787 11.91 16.0068 12.2966 16.2676C12.4286 16.3632 12.5526 16.4206 12.6834 16.5C12.0053 17.4442 11.4446 18.4673 11.0134 19.5469C10.4632 19.3235 10.2556 19.1746 9.99194 18.75C9.89443 18.4968 9.68444 18.2919 9.41772 18.1914C8.90405 17.9998 8.33234 18.259 8.14038 18.7734V18.7754C7.94838 19.2902 8.20871 19.8633 8.72436 20.0547C8.98515 20.1511 9.26735 20.1326 9.50561 20.0136C10.1505 19.8012 10.3864 19.8836 10.826 20.0585C10.3207 21.4768 10.0419 22.9657 9.99975 24.4706C9.76512 24.463 9.5302 24.4517 9.28296 24.4593C8.45233 24.4593 8.21392 24.5738 7.47827 23.9847C7.26881 23.7647 6.975 23.6313 6.656 23.6313C6.02698 23.6309 5.51695 24.1409 5.51733 24.7699C5.51805 25.3982 6.02773 25.907 6.656 25.9066C6.98312 25.9062 7.28375 25.7657 7.49389 25.5356C8.02953 25.1205 8.28998 25.0822 9.30444 25.0785C9.54588 25.0822 9.7547 25.0595 9.98608 25.0557C10.0088 26.4263 10.2278 27.7865 10.6365 29.0949C10.4928 29.1289 10.358 29.1538 10.2087 29.1984C9.66653 29.3465 9.52119 29.3662 9.17358 29.2249C9.02618 29.1342 8.84654 29.1017 8.67163 29.1508C8.33703 29.2438 8.14024 29.5932 8.23218 29.9281C8.32625 30.2626 8.67377 30.458 9.00952 30.3637C9.1796 30.3157 9.31717 30.2012 9.39624 30.053C9.69973 29.6281 9.84555 29.6553 10.2888 29.5316C10.4529 29.4919 10.5824 29.4333 10.7322 29.383C11.1839 30.7385 11.8356 32.0189 12.6658 33.1818C12.5853 33.2404 12.5085 33.282 12.4275 33.344C11.8243 33.7838 11.6544 33.8755 11.156 33.8635C10.9304 33.8204 10.6918 33.8668 10.4978 34.0102C10.1255 34.2842 10.046 34.8075 10.32 35.1801C10.5943 35.5516 11.1174 35.6334 11.49 35.3577C11.6786 35.2183 11.7956 35.0107 11.824 34.7893C12.0005 34.1187 12.1934 34.0836 12.6853 33.721C12.7699 33.6628 12.8418 33.6012 12.9216 33.5411C13.6919 34.5481 14.5924 35.4486 15.5994 36.2189C15.4806 36.3617 15.3615 36.4876 15.2439 36.6446C14.8399 37.16 14.7183 37.2778 14.2947 37.3868C14.094 37.4057 13.9028 37.501 13.7732 37.668C13.5245 37.9882 13.5816 38.4484 13.9021 38.6974C14.2226 38.9464 14.6845 38.8904 14.9334 38.5684C15.0592 38.4055 15.107 38.2018 15.0779 38.0078C15.0666 37.3996 15.2219 37.324 15.5506 36.9004C15.6768 36.7485 15.7887 36.5951 15.8943 36.4435C17 37.2462 18.2148 37.8867 19.5017 38.3458C19.3208 38.7003 19.1381 38.8977 18.7654 39.129C18.4766 39.2461 18.2412 39.479 18.1267 39.7853C17.9073 40.3734 18.2046 41.0298 18.7927 41.2501H18.7947C19.3835 41.4686 20.0389 41.1707 20.2576 40.5802C20.3683 40.2812 20.3453 39.9586 20.2127 39.6856C20.0381 39.157 20.0438 38.8716 20.1287 38.5704C21.4049 38.9573 22.7289 39.1644 24.0623 39.1856C24.0759 39.7659 24.0865 40.052 23.5838 40.6797C23.3638 40.8891 23.2306 41.183 23.2303 41.502C23.2299 42.131 23.7399 42.641 24.369 42.6407C24.9972 42.6399 25.5061 42.1303 25.5057 41.502C25.5053 41.1747 25.3647 40.8723 25.1346 40.6622C24.7741 40.197 24.7018 39.9116 24.6854 39.1876C25.8513 39.1604 27.0096 38.9912 28.1346 38.6836C28.1746 38.9414 28.1667 39.16 28.0604 39.4434C27.944 39.6426 27.9112 39.886 27.9822 40.1173C28.1198 40.5618 28.5902 40.8115 29.035 40.674C29.48 40.5368 29.7304 40.0647 29.5916 39.6192C29.5213 39.3939 29.3613 39.2155 29.16 39.1154C28.8369 38.8965 28.7075 38.7221 28.6209 38.5235C29.3742 38.2919 30.1072 37.9986 30.8123 37.6466C30.9167 37.7955 30.9976 37.9376 31.1111 38.088C31.6428 38.8269 31.7524 39.0351 31.7342 39.6427C31.6786 39.9167 31.736 40.2098 31.908 40.4473C32.2395 40.9034 32.8773 41.0055 33.3338 40.6741C33.7906 40.3426 33.8918 39.7033 33.5584 39.2464C33.3898 39.0155 33.1391 38.8722 32.8689 38.8362C32.0533 38.6132 32.0103 38.3806 31.5721 37.7776C31.4768 37.6366 31.3761 37.5133 31.2771 37.383C32.3866 36.7733 33.4105 36.0194 34.3221 35.1409C34.74 35.5732 34.8627 35.7693 34.9236 36.2385C34.9123 36.4826 35.0024 36.7271 35.1834 36.9084C35.5326 37.2565 36.0987 37.2562 36.4471 36.9066C36.7959 36.5569 36.7963 35.9913 36.4451 35.6429C36.2675 35.4671 36.0289 35.3787 35.7908 35.3851C35.1486 35.3155 34.9912 35.1228 34.66 34.7777C35.232 34.1867 35.7521 33.5476 36.2146 32.8675C36.2942 32.9227 36.3595 32.9789 36.4432 33.0334C36.9139 33.3542 37.0212 33.4534 37.1404 33.8147C37.1631 33.9878 37.2642 34.1473 37.4158 34.2502C37.708 34.4475 38.1048 34.3708 38.3025 34.0783C38.5006 33.7853 38.424 33.389 38.1306 33.1915C37.9821 33.0917 37.8029 33.0616 37.6365 33.0978C37.109 33.1409 37.0329 33.0128 36.6463 32.752C36.5565 32.687 36.4722 32.6515 36.3826 32.5937C37.012 31.6134 37.5197 30.56 37.8943 29.457C38.4708 29.6883 38.682 29.8345 38.951 30.2675C39.0485 30.5207 39.2585 30.7275 39.5252 30.828C40.0388 31.0197 40.6106 30.7581 40.8025 30.2441V30.2421C40.9945 29.7272 40.7342 29.1543 40.2185 28.9628C39.9577 28.8665 39.6755 28.885 39.4373 29.004C38.7694 29.224 38.5384 29.128 38.0662 28.9398C38.4195 27.7405 38.6145 26.5002 38.6463 25.2503C38.6889 25.2499 38.7245 25.254 38.7674 25.254C39.7818 25.2578 40.0403 25.2979 40.576 25.7131C40.7861 25.9432 41.0887 26.0819 41.4158 26.0823C42.0441 26.0827 42.5538 25.5739 42.5545 24.9456C42.5549 24.3166 42.0448 23.8066 41.4158 23.8069C41.0968 23.8073 40.803 23.9404 40.5935 24.1603C39.8579 24.7493 39.6195 24.635 38.7889 24.635C38.7437 24.6334 38.7028 24.6377 38.658 24.6368C38.6309 23.0637 38.3452 21.5059 37.8123 20.0256C37.916 19.9991 38.0106 19.9833 38.117 19.9515C38.6592 19.8033 38.8026 19.7836 39.1502 19.925C39.2976 20.0157 39.4792 20.0482 39.6541 19.999C39.9887 19.9057 40.1836 19.5586 40.0916 19.2237V19.2217C39.9975 18.8872 39.65 18.6919 39.3143 18.7862C39.1442 18.8342 39.0066 18.9487 38.9275 19.0968C38.6241 19.5218 38.4782 19.4947 38.035 19.6184C37.9158 19.6486 37.8245 19.6909 37.7127 19.7257C37.2258 18.4643 36.563 17.2781 35.7439 16.2023C35.9985 16.0371 36.2522 15.8742 36.5154 15.673C37.1186 15.2331 37.2885 15.1415 37.7869 15.1535C38.0125 15.1966 38.2511 15.1502 38.4451 15.0068C38.8174 14.7328 38.8989 14.2095 38.6248 13.8369C38.3508 13.4642 37.8259 13.3832 37.4529 13.6593C37.2643 13.7987 37.1473 14.0063 37.1189 14.2277C36.9424 14.8983 36.7496 14.9334 36.2576 15.296C35.9795 15.4868 35.7368 15.688 35.5096 15.8878C34.7823 14.9879 33.9487 14.1792 33.0271 13.4795C33.0891 13.4009 33.1511 13.3393 33.2127 13.2569C33.6167 12.7415 33.7403 12.6238 34.1638 12.5148C34.3645 12.4959 34.5538 12.4007 34.6834 12.2336C34.9321 11.9135 34.875 11.4513 34.5545 11.2024C34.234 10.9533 33.7721 11.0111 33.5232 11.3332C33.3973 11.496 33.3496 11.6997 33.3787 11.8936C33.39 12.5019 33.2347 12.5774 32.906 13.001C32.838 13.083 32.7824 13.1651 32.7205 13.2471C31.6219 12.4543 30.4166 11.821 29.1404 11.3663C29.4793 10.4752 29.6161 10.2361 30.1775 9.88778C30.4663 9.77061 30.7037 9.53774 30.8181 9.23148C31.0375 8.64331 30.7383 7.98891 30.1502 7.7686H30.1482C29.5594 7.55014 28.904 7.84833 28.6853 8.43851C28.5746 8.73747 28.5976 9.06003 28.7303 9.33298C29.0206 10.2119 28.8395 10.4093 28.5584 11.1533C27.2701 10.7595 25.9327 10.5491 24.5857 10.5284C24.6141 10.0922 24.6412 9.65168 24.6326 9.17093C24.6364 8.15647 24.6745 7.89604 25.0896 7.3604C25.3198 7.15026 25.4603 6.8496 25.4607 6.52245C25.4611 5.89421 24.9523 5.38451 24.324 5.38379L24.3241 5.38448Z" fill="#333333"/>
</svg>
