<svg width="48" height="48" viewBox="0 0 48 48" fill="none" xmlns="http://www.w3.org/2000/svg">
<g clip-path="url(#clip0)">
<path fill-rule="evenodd" clip-rule="evenodd" d="M0.0351562 0.0117188V48.0117H48.0352V0.0117188H0.0351562ZM24.3242 5.38477C24.9525 5.38549 25.4613 5.8952 25.4609 6.52344C25.4605 6.85059 25.32 7.15119 25.0898 7.36133C24.6747 7.89697 24.6366 8.15742 24.6328 9.17188C24.6414 9.65263 24.6143 10.0931 24.5859 10.5293C25.9329 10.55 27.2703 10.7605 28.5586 11.1543C28.8397 10.4103 29.0208 10.2129 28.7305 9.33398C28.5978 9.06103 28.5748 8.73841 28.6855 8.43945C28.9042 7.84927 29.5596 7.55107 30.1484 7.76953H30.1504C30.7385 7.98984 31.0378 8.64425 30.8184 9.23242C30.704 9.53868 30.4665 9.7715 30.1777 9.88867C29.6163 10.237 29.4795 10.4761 29.1406 11.3672C30.4168 11.8219 31.6221 12.4552 32.7207 13.248C32.7826 13.166 32.8382 13.084 32.9062 13.002C33.235 12.5784 33.3902 12.5028 33.3789 11.8945C33.3498 11.7006 33.3975 11.4968 33.5234 11.334C33.7723 11.0119 34.2342 10.954 34.5547 11.2031C34.8752 11.452 34.9323 11.9143 34.6836 12.2344C34.554 12.4015 34.3648 12.4967 34.1641 12.5156C33.7406 12.6246 33.6169 12.7424 33.2129 13.2578C33.1513 13.3402 33.0893 13.4019 33.0273 13.4805C33.9489 14.1802 34.7825 14.9888 35.5098 15.8887C35.737 15.6889 35.9797 15.4877 36.2578 15.2969C36.7498 14.9343 36.9426 14.8991 37.1191 14.2285C37.1475 14.0071 37.2645 13.7996 37.4531 13.6602C37.8261 13.3841 38.351 13.4652 38.625 13.8379C38.8991 14.2105 38.8176 14.7338 38.4453 15.0078C38.2513 15.1512 38.0127 15.1974 37.7871 15.1543C37.2887 15.1423 37.1188 15.2339 36.5156 15.6738C36.2524 15.875 35.9987 16.0379 35.7441 16.2031C36.5632 17.2789 37.226 18.4652 37.7129 19.7266C37.8247 19.6918 37.916 19.6493 38.0352 19.6191C38.4784 19.4954 38.6243 19.5227 38.9277 19.0977C39.0068 18.9496 39.1444 18.8351 39.3145 18.7871C39.6502 18.6928 39.9977 18.8882 40.0918 19.2227V19.2246C40.1838 19.5595 39.9889 19.9067 39.6543 20C39.4794 20.0492 39.2978 20.0165 39.1504 19.9258C38.8028 19.7844 38.6594 19.803 38.1172 19.9512C38.0108 19.983 37.9162 19.9989 37.8125 20.0254C38.3454 21.5057 38.6311 23.0636 38.6582 24.6367C38.703 24.6376 38.7439 24.6332 38.7891 24.6348C39.6197 24.6348 39.8582 24.7492 40.5938 24.1602C40.8032 23.9403 41.097 23.807 41.416 23.8066C42.045 23.8063 42.5551 24.3163 42.5547 24.9453C42.554 25.5736 42.0443 26.0824 41.416 26.082C41.0889 26.0816 40.7863 25.943 40.5762 25.7129C40.0405 25.2977 39.782 25.2577 38.7676 25.2539C38.7247 25.2539 38.6891 25.2496 38.6465 25.25C38.6147 26.4999 38.4197 27.7402 38.0664 28.9395C38.5386 29.1277 38.7696 29.2239 39.4375 29.0039C39.6757 28.8849 39.958 28.8666 40.2188 28.9629C40.7345 29.1544 40.9947 29.7273 40.8027 30.2422V30.2441C40.6108 30.7581 40.039 31.0198 39.5254 30.8281C39.2587 30.7276 39.0487 30.5208 38.9512 30.2676C38.6822 29.8346 38.471 29.6883 37.8945 29.457C37.5199 30.56 37.0122 31.6134 36.3828 32.5938C36.4724 32.6516 36.5567 32.687 36.6465 32.752C37.0331 33.0128 37.1092 33.1408 37.6367 33.0977C37.8031 33.0615 37.9824 33.0916 38.1309 33.1914C38.4243 33.3889 38.5008 33.7851 38.3027 34.0781C38.105 34.3706 37.7082 34.4473 37.416 34.25C37.2644 34.1471 37.1633 33.9876 37.1406 33.8145C37.0214 33.4532 36.9141 33.354 36.4434 33.0332C36.3597 32.9787 36.2944 32.9224 36.2148 32.8672C35.7523 33.5473 35.2322 34.1863 34.6602 34.7773C34.9914 35.1224 35.1488 35.3152 35.791 35.3848C36.0291 35.3784 36.2677 35.4668 36.4453 35.6426C36.7965 35.991 36.7961 36.5565 36.4473 36.9062C36.0989 37.2559 35.5328 37.2563 35.1836 36.9082C35.0026 36.7269 34.9125 36.4824 34.9238 36.2383C34.8629 35.7691 34.7402 35.5729 34.3223 35.1406C33.4107 36.0191 32.3868 36.7731 31.2773 37.3828C31.3763 37.5131 31.477 37.6363 31.5723 37.7773C32.0105 38.3803 32.0535 38.6129 32.8691 38.8359C33.1393 38.8719 33.39 39.0152 33.5586 39.2461C33.892 39.703 33.7908 40.3423 33.334 40.6738C32.8775 41.0052 32.2397 40.9034 31.9082 40.4473C31.7362 40.2098 31.6788 39.9166 31.7344 39.6426C31.7526 39.035 31.643 38.8268 31.1113 38.0879C30.9978 37.9375 30.9169 37.7954 30.8125 37.6465C30.1074 37.9985 29.3744 38.2918 28.6211 38.5234C28.7077 38.722 28.8371 38.8963 29.1602 39.1152C29.3615 39.2153 29.5215 39.3938 29.5918 39.6191C29.7306 40.0646 29.4802 40.5366 29.0352 40.6738C28.5904 40.8113 28.12 40.5617 27.9824 40.1172C27.9114 39.8859 27.9441 39.6426 28.0605 39.4434C28.1668 39.16 28.1748 38.9414 28.1348 38.6836C27.0098 38.9912 25.8514 39.1603 24.6855 39.1875C24.7019 39.9115 24.7743 40.1969 25.1348 40.6621C25.3649 40.8722 25.5055 41.1747 25.5059 41.502C25.5063 42.1303 24.9973 42.6398 24.3691 42.6406C23.74 42.6409 23.2301 42.131 23.2305 41.502C23.2308 41.183 23.364 40.8891 23.584 40.6797C24.0867 40.052 24.0761 39.7658 24.0625 39.1855C22.7291 39.1643 21.4051 38.9572 20.1289 38.5703C20.044 38.8715 20.0383 39.1569 20.2129 39.6855C20.3455 39.9585 20.3685 40.2811 20.2578 40.5801C20.0391 41.1706 19.3837 41.4685 18.7949 41.25H18.793C18.2049 41.0297 17.9076 40.3733 18.127 39.7852C18.2415 39.4789 18.4768 39.246 18.7656 39.1289C19.1383 38.8976 19.3211 38.7002 19.502 38.3457C18.2151 37.8866 17.0002 37.2461 15.8945 36.4434C15.7889 36.595 15.677 36.7485 15.5508 36.9004C15.2221 37.324 15.0668 37.3996 15.0781 38.0078C15.1072 38.2018 15.0594 38.4055 14.9336 38.5684C14.6847 38.8904 14.2228 38.9463 13.9023 38.6973C13.5818 38.4483 13.5247 37.9882 13.7734 37.668C13.903 37.501 14.0942 37.4056 14.2949 37.3867C14.7185 37.2777 14.8401 37.1599 15.2441 36.6445C15.3617 36.4875 15.4808 36.3615 15.5996 36.2188C14.5926 35.4484 13.6922 34.548 12.9219 33.541C12.8421 33.6011 12.7701 33.6625 12.6855 33.7207C12.1936 34.0833 12.0007 34.1185 11.8242 34.7891C11.7958 35.0105 11.6788 35.218 11.4902 35.3574C11.1176 35.6331 10.5946 35.5512 10.3203 35.1797C10.0463 34.8071 10.1258 34.2838 10.498 34.0098C10.692 33.8664 10.9306 33.8202 11.1562 33.8633C11.6546 33.8753 11.8245 33.7836 12.4277 33.3438C12.5087 33.2817 12.5855 33.2402 12.666 33.1816C11.8358 32.0187 11.1841 30.7383 10.7324 29.3828C10.5826 29.4331 10.4531 29.4916 10.2891 29.5312C9.84579 29.6549 9.69997 29.6278 9.39648 30.0527C9.31741 30.2009 9.17985 30.3153 9.00977 30.3633C8.67402 30.4576 8.32649 30.2622 8.23242 29.9277C8.14048 29.5928 8.33727 29.2434 8.67188 29.1504C8.84678 29.1013 9.02643 29.1339 9.17383 29.2246C9.52144 29.3659 9.66677 29.3473 10.209 29.1992C10.3582 29.1546 10.493 29.1297 10.6367 29.0957C10.228 27.7873 10.009 26.4272 9.98633 25.0566C9.75495 25.0604 9.54613 25.0818 9.30469 25.0781C8.29023 25.0818 8.02978 25.1201 7.49414 25.5352C7.284 25.7653 6.98337 25.9058 6.65625 25.9062C6.02798 25.9067 5.5183 25.3978 5.51758 24.7695C5.5172 24.1405 6.02723 23.6305 6.65625 23.6309C6.97525 23.6309 7.26906 23.7644 7.47852 23.9844C8.21417 24.5735 8.45257 24.459 9.2832 24.459C9.53044 24.4514 9.76537 24.4631 10 24.4707C10.0421 22.9658 10.3209 21.4769 10.8262 20.0586C10.3866 19.8837 10.1507 19.8013 9.50586 20.0137C9.2676 20.1327 8.9854 20.1511 8.72461 20.0547C8.20896 19.8633 7.94863 19.2902 8.14062 18.7754V18.7734C8.33259 18.259 8.9043 17.9998 9.41797 18.1914C9.68469 18.2919 9.89468 18.4968 9.99219 18.75C10.2558 19.1746 10.4635 19.3235 11.0137 19.5469C11.4449 18.4673 12.0055 17.4442 12.6836 16.5C12.5528 16.4206 12.4289 16.3632 12.2969 16.2676C11.9103 16.0068 11.8341 15.8788 11.3066 15.9219C11.1402 15.9582 10.961 15.926 10.8125 15.8262C10.5192 15.6287 10.4426 15.2324 10.6406 14.9395C10.8383 14.647 11.2352 14.5703 11.5273 14.7676C11.6789 14.8705 11.78 15.03 11.8027 15.2031C11.9219 15.5643 12.0313 15.6654 12.502 15.9863C12.6375 16.0743 12.7466 16.1643 12.8711 16.2539C13.3563 15.6025 13.896 14.9936 14.4844 14.4336C14.4624 14.4106 14.44 14.3918 14.418 14.3691C13.9561 13.9091 13.8876 13.7125 13.1523 13.6328C12.9142 13.6392 12.6776 13.5508 12.5 13.375C12.1489 13.0265 12.1472 12.4609 12.4961 12.1113C12.8445 11.762 13.4105 11.7613 13.7598 12.1094C13.9408 12.2907 14.0309 12.5351 14.0195 12.7793C14.088 13.3065 14.212 13.4726 14.7734 14.0371C14.801 14.0635 14.8205 14.0887 14.8477 14.1152C15.7882 13.2814 16.8343 12.5748 17.959 12.0137C17.7594 11.7753 17.5608 11.5206 17.3711 11.2402C16.9329 10.6373 16.8918 10.4047 16.0762 10.1816C15.806 10.1456 15.5533 10.0024 15.3848 9.77148C15.0517 9.31503 15.1536 8.67754 15.6094 8.3457C16.0659 8.01401 16.7037 8.11416 17.0352 8.57031C17.2072 8.80778 17.2646 9.10098 17.209 9.375C17.1908 9.98256 17.3004 10.1908 17.832 10.9297C18.0571 11.2279 18.2361 11.5152 18.4238 11.8047C19.095 11.4951 19.7891 11.2378 20.5 11.0352C20.3358 10.4891 20.343 10.2814 19.7832 9.90234C19.5819 9.80222 19.4219 9.6237 19.3516 9.39844C19.2128 8.95291 19.4632 8.48095 19.9082 8.34375C20.353 8.20626 20.8234 8.45591 20.9609 8.90039C21.032 9.13169 20.9992 9.37504 20.8828 9.57422C20.7089 10.0381 20.74 10.2386 20.9512 10.9355C21.9708 10.6853 23.0148 10.5477 24.0645 10.5254C24.0243 10.0927 23.997 9.63897 24.0137 9.15039C24.0137 8.31976 24.128 8.08135 23.5391 7.3457C23.3191 7.13624 23.1859 6.84243 23.1855 6.52344C23.1851 5.89445 23.6952 5.38439 24.3242 5.38477Z" fill="#333333"/>
</g>
<defs>
<clipPath id="clip0">
<rect width="48" height="48" fill="white"/>
</clipPath>
</defs>
</svg>
