<svg width="48" height="48" viewBox="0 0 48 48" fill="none" xmlns="http://www.w3.org/2000/svg">
<path d="M32.77 23.352H13.884V25.358H32.77V23.352Z" fill="#333333"/>
<path d="M32.77 19.34H13.884V21.346H32.77V19.34Z" fill="#333333"/>
<path d="M32.77 15.328H13.884V17.334H32.77V15.328Z" fill="#333333"/>
<path d="M29.346 11.316H17.31V13.322H29.346V11.316Z" fill="#333333"/>
<path d="M27.256 36.862C28.9173 36.862 30.264 35.5153 30.264 33.854C30.264 32.1927 28.9173 30.846 27.256 30.846C25.5947 30.846 24.248 32.1927 24.248 33.854C24.248 35.5153 25.5947 36.862 27.256 36.862Z" fill="#333333"/>
<path d="M36.126 4.55C35.9516 4.37562 35.7446 4.23729 35.5167 4.14292C35.2888 4.04855 35.0446 3.99999 34.798 4H11.88C11.3816 4.00053 10.9037 4.19877 10.5512 4.55122C10.1988 4.90368 10.0005 5.38156 10 5.88V35.986C10.0005 36.4844 10.1988 36.9623 10.5512 37.3148C10.9037 37.6672 11.3816 37.8655 11.88 37.866H24.246V37.168C23.8648 36.8306 23.5436 36.4309 23.296 35.986H11.878V5.89H34.796V35.976H31.216C30.9762 36.4096 30.6667 36.8008 30.3 37.134V37.856H34.798C35.2964 37.8555 35.7743 37.6572 36.1268 37.3048C36.4792 36.9523 36.6775 36.4744 36.678 35.976V5.88C36.6772 5.38111 36.4787 4.90288 36.126 4.55Z" fill="#333333"/>
<path d="M25.25 37.876V44L27.25 42L29.26 44V37.876C28.64 38.1992 27.9512 38.368 27.252 38.368C26.5528 38.368 25.864 38.1992 25.244 37.876H25.25Z" fill="#333333"/>
</svg>
