<svg width="48" height="48" viewBox="0 0 48 48" fill="none" xmlns="http://www.w3.org/2000/svg">
<path d="M36.128 4.55C35.776 4.198 35.298 4 34.8 4L11.88 4.01C10.842 4.01 10 4.852 10 5.89V35.986C10 36.484 10.198 36.964 10.55 37.316C10.902 37.668 11.38 37.866 11.88 37.866L24.246 37.86V37.162H24.25C23.348 36.342 22.77 35.17 22.77 33.854C22.77 31.378 24.778 29.37 27.254 29.37C29.73 29.37 31.738 31.378 31.738 33.854C31.738 35.154 31.176 36.316 30.29 37.136H30.298V37.858L34.796 37.856C35.834 37.856 36.676 37.014 36.676 35.976V5.88C36.68 5.382 36.48 4.902 36.128 4.55ZM17.312 11.316H29.348V13.322H17.312V11.316ZM32.774 25.358H13.886V23.352H32.772L32.774 25.358ZM32.774 21.346H13.886V19.34H32.772L32.774 21.346ZM32.774 17.334H13.886V15.328H32.772L32.774 17.334Z" fill="#333333"/>
<path d="M27.256 30.846C25.594 30.846 24.246 32.194 24.246 33.854C24.246 35.516 25.594 36.864 27.256 36.864C28.918 36.864 30.264 35.516 30.264 33.854C30.266 32.192 28.918 30.846 27.256 30.846Z" fill="#333333"/>
<path d="M25.252 37.876C25.25 37.876 25.248 37.876 25.246 37.874V44L27.258 41.988L29.268 44V37.876C28.66 38.18 27.984 38.368 27.258 38.368C26.532 38.368 25.858 38.18 25.252 37.876Z" fill="#333333"/>
<path d="M29.268 37.876C29.278 37.87 29.288 37.864 29.3 37.858H29.268V37.876Z" fill="#333333"/>
<path d="M25.218 37.86C25.228 37.864 25.236 37.868 25.246 37.874V37.86H25.218Z" fill="#333333"/>
</svg>
