<svg width="48" height="48" viewBox="0 0 48 48" fill="none" xmlns="http://www.w3.org/2000/svg">
<path d="M9.81 42.186V7.968C8.758 8.342 8 9.336 8 10.514V41.294C8 41.61 8.08 41.904 8.18 42.186C8.452 42.952 9.044 43.546 9.81 43.82C10.094 43.92 10.388 44 10.706 44L33.722 43.99C34.894 43.99 35.87 43.23 36.244 42.186H9.81Z" fill="#333333"/>
<path d="M39.75 13.308L30.436 4L14.562 4.008C13.068 4.008 11.852 5.226 11.852 6.72V37.5C11.852 38.992 13.066 40.206 14.558 40.206L37.574 40.196C39.066 40.196 40.278 38.982 40.278 37.49V13.838L39.75 13.308ZM23.434 31.124L18.828 26.516L19.98 25.364L23.436 28.82L32.156 20.1L33.308 21.252L23.434 31.124ZM30.428 13.628V6.552L37.508 13.628H30.428Z" fill="#333333"/>
</svg>
