<svg width="48" height="48" viewBox="0 0 48 48" fill="none" xmlns="http://www.w3.org/2000/svg">
<path d="M30.418 6.552L37.5 13.628H30.418V6.552Z" fill="#333333"/>
<path fill-rule="evenodd" clip-rule="evenodd" d="M38.46 38.4H13.652V5.81H28.916V15.13H38.46V38.4ZM21.64 20.1L20.526 21.214L24.942 25.632L20.526 30.048L21.64 31.162L26.056 26.746L30.472 31.162L31.586 30.048L27.17 25.632L31.586 21.214L30.472 20.1L26.056 24.518L21.64 20.1Z" fill="#333333"/>
<path fill-rule="evenodd" clip-rule="evenodd" d="M48 0H0V48H48V0ZM30.426 4H14.552C14.1956 4.00052 13.8428 4.07124 13.5137 4.20812C13.1847 4.345 12.8858 4.54535 12.6341 4.79774C12.3825 5.05013 12.183 5.34961 12.0471 5.67909C11.9112 6.00857 11.8415 6.36159 11.842 6.718V37.498C11.8442 38.2147 12.1301 38.9013 12.6372 39.4077C13.1443 39.9141 13.8314 40.1989 14.548 40.2H37.566C38.2829 40.1979 38.9697 39.912 39.4764 39.405C39.9831 38.8979 40.2685 38.2108 40.27 37.494V13.838L30.426 4ZM10.672 42.186H9.8V7.96802C9.27401 8.15491 8.81868 8.4999 8.49644 8.9557C8.17419 9.4115 8.00079 9.95581 8 10.514V41.294C8.0181 41.8452 8.19859 42.3788 8.51882 42.8279C8.83904 43.2769 9.28474 43.6213 9.8 43.818C10.0858 43.9305 10.389 43.9921 10.696 44H33.712C34.2667 43.9969 34.8069 43.8222 35.2584 43.5C35.71 43.1777 36.0507 42.7236 36.234 42.2H10.672V42.186Z" fill="#333333"/>
</svg>
