<svg width="48" height="48" viewBox="0 0 48 48" fill="none" xmlns="http://www.w3.org/2000/svg">
<path d="M19.8376 25.366L18.6856 26.518L23.2936 31.124L33.1656 21.252L32.0136 20.1L23.2936 28.82L19.8376 25.366Z" fill="#333333"/>
<path fill-rule="evenodd" clip-rule="evenodd" d="M30.2956 4H14.4216C14.0652 4.00052 13.7124 4.07124 13.3833 4.20812C13.0542 4.345 12.7553 4.54535 12.5037 4.79774C12.252 5.05013 12.0526 5.34961 11.9167 5.67909C11.7808 6.00857 11.7111 6.36159 11.7116 6.718V37.498C11.7137 38.2147 11.9996 38.9013 12.5068 39.4077C13.0139 39.9141 13.701 40.1989 14.4176 40.2H37.4356C38.1525 40.1979 38.8393 39.912 39.346 39.405C39.8527 38.8979 40.138 38.2108 40.1396 37.494V13.838L30.2956 4ZM30.2876 6.552L37.3696 13.628H30.2876V6.552ZM38.3296 38.4H13.5216V5.81H28.7856V15.13H38.3296V38.4Z" fill="#333333"/>
<path d="M9.66957 42.186H10.5416V42.2H36.1036C35.9203 42.7236 35.5795 43.1777 35.128 43.5C34.6765 43.8222 34.1363 43.9969 33.5816 44H10.5656C10.2586 43.9921 9.95532 43.9305 9.66957 43.818C9.15431 43.6213 8.70861 43.2769 8.38838 42.8279C8.06816 42.3788 7.88767 41.8452 7.86957 41.294V10.514C7.87036 9.95581 8.04376 9.4115 8.366 8.9557C8.68825 8.4999 9.14358 8.15491 9.66957 7.96802V42.186Z" fill="#333333"/>
</svg>
