<svg width="48" height="48" viewBox="0 0 48 48" fill="none" xmlns="http://www.w3.org/2000/svg">
<path d="M28.534 3.99988L10.994 4.00788C9.342 4.00788 8 5.35188 8 7.00388V41.0179C8 42.6679 9.342 44.0079 10.99 44.0079L36.424 43.9959C38.072 43.9959 39.414 42.6539 39.414 41.0059V14.8719L28.534 3.99988ZM26.818 24.1559H29.318V21.6559H31.318V24.1559H33.818V26.1559H31.318V28.6559H29.318V26.1559H26.818V24.1559ZM17.11 18.6659H18.608L23.572 31.6459H21.816L20.576 28.2499H15.14L13.918 31.6459H12.152L17.11 18.6659ZM26.818 39.8759H12.068V37.8759H26.818V39.8759ZM35.372 35.8759H12.068V33.8759H35.372V35.8759ZM28.526 14.6399V6.81988L36.35 14.6399H28.526Z" fill="#333333"/>
<path d="M17.858 20.7779L15.656 26.8499H20.068L17.858 20.7779Z" fill="#333333"/>
</svg>
