<svg width="48" height="48" viewBox="0 0 48 48" fill="none" xmlns="http://www.w3.org/2000/svg">
<path d="M20 15C20 14.4477 20.4477 14 21 14H29C29.5523 14 30 14.4477 30 15C30 15.5523 29.5523 16 29 16H21C20.4477 16 20 15.5523 20 15Z" fill="#333333"/>
<path d="M21 18C20.4477 18 20 18.4477 20 19C20 19.5523 20.4477 20 21 20H29C29.5523 20 30 19.5523 30 19C30 18.4477 29.5523 18 29 18H21Z" fill="#333333"/>
<path d="M20 28C20 27.4477 20.4477 27 21 27H29C29.5523 27 30 27.4477 30 28C30 28.5523 29.5523 29 29 29H21C20.4477 29 20 28.5523 20 28Z" fill="#333333"/>
<path d="M21 31C20.4477 31 20 31.4477 20 32C20 32.5523 20.4477 33 21 33H29C29.5523 33 30 32.5523 30 32C30 31.4477 29.5523 31 29 31H21Z" fill="#333333"/>
<path fill-rule="evenodd" clip-rule="evenodd" d="M10 27C10 26.4477 10.4477 26 11 26H16C16.5523 26 17 26.4477 17 27V32C17 32.5523 16.5523 33 16 33H11C10.4477 33 10 32.5523 10 32V27ZM12 28V31H15V28H12Z" fill="#333333"/>
<path d="M17.7071 15.7071C18.0976 15.3166 18.0976 14.6834 17.7071 14.2929C17.3166 13.9024 16.6834 13.9024 16.2929 14.2929L13 17.5858L11.7071 16.2929C11.3166 15.9024 10.6834 15.9024 10.2929 16.2929C9.90237 16.6834 9.90237 17.3166 10.2929 17.7071L13 20.4142L17.7071 15.7071Z" fill="#333333"/>
<path fill-rule="evenodd" clip-rule="evenodd" d="M10 6C7.79086 6 6 7.79086 6 10V37.9992C6 40.2084 7.79086 41.9992 10 41.9992H30C32.2091 41.9992 34 40.2084 34 37.9992V10C34 7.79086 32.2091 6 30 6H10ZM8 10C8 8.89543 8.89543 8 10 8H30C31.1046 8 32 8.89543 32 10V37.9992C32 39.1038 31.1046 39.9992 30 39.9992H10C8.89543 39.9992 8 39.1038 8 37.9992V10Z" fill="#333333"/>
<path fill-rule="evenodd" clip-rule="evenodd" d="M36 16C36 14.3431 37.3431 13 39 13C40.6569 13 42 14.3431 42 16V36.3028L39 40.8028L36 36.3028V16ZM39 15C38.4477 15 38 15.4477 38 16V18H40V16C40 15.4477 39.5523 15 39 15ZM39 37.1972L38 35.6972V20H40V35.6972L39 37.1972Z" fill="#333333"/>
</svg>
