<svg width="48" height="48" viewBox="0 0 48 48" fill="none" xmlns="http://www.w3.org/2000/svg">
<path d="M31.294 20.062H17.814V22.062H31.294V20.062Z" fill="#333333"/>
<path d="M31.294 24.062H17.814V26.062H31.294V24.062Z" fill="#333333"/>
<path d="M29.608 36.052C29.536 36.124 29.5 36.212 29.5 36.312V38.514C29.5 38.716 29.66 38.876 29.862 38.876H32.064C32.158 38.876 32.252 38.84 32.318 38.768L40.23 30.862L37.512 28.144L29.608 36.052Z" fill="#333333"/>
<path d="M42.332 27.74L40.636 26.044C40.354 25.762 39.896 25.762 39.614 26.044L38.288 27.37L41.006 30.088L42.332 28.762C42.614 28.48 42.614 28.022 42.332 27.74Z" fill="#333333"/>
<path d="M33.37 41.918L6.07 41.93V6.082L33.368 6.07V29.44L35.438 27.37V6.07C35.438 5.52 35.22 4.994 34.832 4.606C34.444 4.218 33.918 4 33.37 4L6.07 4.012C4.928 4.012 4 4.94 4 6.082V41.93C4 42.48 4.218 43.006 4.606 43.394C4.996 43.782 5.522 44 6.07 44L33.368 43.988C34.51 43.988 35.438 43.06 35.438 41.918V38.476L33.368 40.546L33.37 41.918Z" fill="#333333"/>
<path d="M13.55 21.566V24.558H10.558V21.566H13.55ZM15.054 20.062H9.054V26.062H15.054V20.062Z" fill="#333333"/>
<path d="M10.73 15.672L8.07 13.014L9.358 11.726L10.73 13.096L14.75 9.076L16.038 10.362L10.73 15.672Z" fill="#333333"/>
<path d="M10.736 36.552L8.078 33.892L9.364 32.604L10.736 33.976L14.756 29.954L16.044 31.242L10.736 36.552Z" fill="#333333"/>
<path d="M31.294 9.076H17.814V11.076H31.294V9.076Z" fill="#333333"/>
<path d="M31.294 13.066H17.814V15.066H31.294V13.066Z" fill="#333333"/>
<path d="M31.294 29.954H17.814V31.954H30.838L31.294 31.498V29.954Z" fill="#333333"/>
<path d="M17.814 33.954V35.954H26.838L28.838 33.954H17.814Z" fill="#333333"/>
</svg>
