<svg width="48" height="48" viewBox="0 0 48 48" fill="none" xmlns="http://www.w3.org/2000/svg">
<path d="M42.422 22.502L40.54 20.62C40.226 20.306 39.72 20.306 39.406 20.62L37.934 22.092L40.95 25.108L42.422 23.636C42.734 23.322 42.734 22.816 42.422 22.502Z" fill="#333333"/>
<path d="M28.302 31.724C28.222 31.804 28.182 31.902 28.182 32.014V34.458C28.182 34.684 28.358 34.86 28.584 34.86H31.028C31.132 34.86 31.238 34.82 31.31 34.74L40.09 25.968L37.074 22.952L28.302 31.724Z" fill="#333333"/>
<path d="M24.516 33.372H13.308V35.372H24.516V33.372Z" fill="#333333"/>
<path d="M29.542 15.838H13.308V17.838H29.542V15.838Z" fill="#333333"/>
<path d="M29.542 21.684H13.308V23.684H29.542V21.684Z" fill="#333333"/>
<path d="M33.47 38.498L9.504 38.508V7.038H11.322V7.49C11.322 7.966 11.708 8.352 12.184 8.352H12.2C12.676 8.352 13.062 7.966 13.062 7.49V7.036L15.968 7.034V7.488C15.968 7.964 16.354 8.35 16.83 8.35H16.846C17.322 8.35 17.708 7.964 17.708 7.488V7.034L20.616 7.032V7.49C20.616 7.966 21.002 8.352 21.478 8.352H21.494C21.97 8.352 22.356 7.966 22.356 7.49V7.032L25.264 7.03V7.49C25.264 7.966 25.65 8.352 26.126 8.352H26.142C26.618 8.352 27.004 7.966 27.004 7.49V7.03L29.912 7.028V7.49C29.912 7.966 30.298 8.352 30.774 8.352H30.79C31.266 8.352 31.652 7.966 31.652 7.49V7.026H33.47V23.768L35.218 22.02V7.026C35.218 6.562 35.034 6.118 34.706 5.79C34.378 5.462 33.934 5.278 33.47 5.278H31.654V4.862C31.652 4.386 31.266 4 30.79 4H30.774C30.298 4 29.912 4.386 29.912 4.862V5.28H27.004V4.862C27.004 4.386 26.618 4 26.142 4H26.126C25.65 4 25.264 4.386 25.264 4.862V5.28L22.356 5.282V4.862C22.356 4.386 21.97 4 21.494 4H21.478C21.002 4 20.616 4.386 20.616 4.862V5.284H17.708V4.862C17.708 4.386 17.322 4 16.846 4H16.83C16.354 4 15.968 4.386 15.968 4.862V5.286H13.062V4.862C13.062 4.386 12.674 4 12.198 4H12.182C11.706 4 11.32 4.386 11.32 4.862V5.288H9.502C8.536 5.288 7.754 6.072 7.754 7.036V38.508C7.754 38.972 7.938 39.416 8.266 39.744C8.594 40.072 9.038 40.256 9.502 40.256L33.468 40.244C34.434 40.244 35.216 39.46 35.216 38.496V33.84L33.468 35.586L33.47 38.498Z" fill="#333333"/>
<path d="M5.748 42.248V9.032C4.782 9.032 4 9.816 4 10.78V42.252C4 42.716 4.184 43.16 4.512 43.488C4.84 43.816 5.284 44 5.748 44L29.714 43.99C30.676 43.99 31.456 43.21 31.46 42.25L5.748 42.248Z" fill="#333333"/>
<path d="M29.542 27.894V27.528H13.308V29.528H27.91L29.542 27.894Z" fill="#333333"/>
</svg>
