<svg width="48" height="48" viewBox="0 0 48 48" fill="none" xmlns="http://www.w3.org/2000/svg">
<path d="M9.77802 38.2V17.3H36.222V22.782C37.6127 23.3067 38.8937 24.0853 40 25.078V11.6C40 10.596 39.6027 9.63275 38.8948 8.92074C38.1869 8.20873 37.226 7.80581 36.222 7.8H34.334V4H30.556V7.8H15.444V4H11.666V7.8H9.77802C9.28139 7.80183 8.79001 7.90166 8.33205 8.09377C7.87408 8.28588 7.45853 8.56649 7.10923 8.91951C6.75992 9.27253 6.48372 9.69103 6.29647 10.151C6.10922 10.611 6.01459 11.1034 6.01802 11.6L6.00002 38.2C5.99844 38.6976 6.09492 39.1907 6.28396 39.651C6.47299 40.1113 6.75087 40.5299 7.10171 40.8827C7.45256 41.2356 7.8695 41.5159 8.32871 41.7076C8.78792 41.8993 9.2804 41.9987 9.77802 42H23.07C22.0726 40.8882 21.2925 39.5993 20.77 38.2H9.77802Z" fill="#333333"/>
<path d="M13.446 20.506H17.446V24.506H13.446V20.506Z" fill="#333333"/>
<path d="M13.446 30.676H17.446V34.676H13.446V30.676Z" fill="#333333"/>
<path d="M31 29H32.5V34.25L37 36.92L36.25 38.15L31 35V29Z" fill="#333333"/>
<path fill-rule="evenodd" clip-rule="evenodd" d="M32 24C30.0222 24 28.0888 24.5865 26.4443 25.6853C24.7998 26.7841 23.5181 28.3459 22.7612 30.1732C22.0043 32.0004 21.8063 34.0111 22.1922 35.9509C22.578 37.8907 23.5304 39.6725 24.9289 41.0711C26.3275 42.4696 28.1093 43.422 30.0491 43.8079C31.9889 44.1937 33.9996 43.9957 35.8268 43.2388C37.6541 42.4819 39.2159 41.2002 40.3147 39.5557C41.4135 37.9112 42 35.9778 42 34C42 31.3478 40.9464 28.8043 39.0711 26.9289C37.1957 25.0536 34.6522 24 32 24ZM32 42C30.4178 42 28.871 41.5308 27.5554 40.6518C26.2399 39.7727 25.2145 38.5233 24.609 37.0615C24.0035 35.5997 23.845 33.9911 24.1537 32.4393C24.4624 30.8874 25.2243 29.462 26.3432 28.3431C27.462 27.2243 28.8874 26.4624 30.4393 26.1537C31.9911 25.845 33.5997 26.0035 35.0615 26.609C36.5233 27.2145 37.7727 28.2398 38.6518 29.5554C39.5308 30.871 40 32.4177 40 34C40 36.1217 39.1572 38.1566 37.6569 39.6569C36.1566 41.1571 34.1217 42 32 42Z" fill="#333333"/>
<path d="M25 24.506H21V20.506H25V24.506Z" fill="#333333"/>
</svg>
