<svg width="48" height="48" viewBox="0 0 48 48" fill="none" xmlns="http://www.w3.org/2000/svg">
<path d="M17.446 20.506H13.446V24.506H17.446V20.506Z" fill="#333333"/>
<path d="M17.446 30.676H13.446V34.676H17.446V30.676Z" fill="#333333"/>
<path d="M31.99 24C26.47 24 22 28.48 22 34C22 39.52 26.47 44 31.99 44C37.52 44 42 39.52 42 34C42 28.48 37.52 24 31.99 24ZM32 42C27.58 42 24 38.42 24 34C24 29.58 27.58 26 32 26C36.42 26 40 29.58 40 34C40 38.42 36.42 42 32 42Z" fill="#333333"/>
<path d="M32.5 29H31V35L36.25 38.15L37 36.92L32.5 34.25V29Z" fill="#333333"/>
<path d="M36.222 9.8C37.202 9.8 38 10.608 38 11.6V15.3H8.016L8.018 11.6C8.018 10.608 8.808 9.8 9.776 9.8H36.222ZM34.334 4H30.556V7.8H15.444V4H11.666V7.8H9.778C7.682 7.8 6.02 9.51 6.02 11.6L6 38.2C6 40.29 7.682 42 9.778 42H23.07C22.082 40.898 21.298 39.614 20.77 38.2H9.778V17.3H36.222V22.782C37.626 23.312 38.902 24.094 40 25.078V11.6C40 9.51 38.3 7.8 36.222 7.8H34.334V4Z" fill="#333333"/>
<path d="M25 20.506H21V24.506H25V20.506Z" fill="#333333"/>
</svg>
