<svg width="48" height="48" viewBox="0 0 48 48" fill="none" xmlns="http://www.w3.org/2000/svg">
<path fill-rule="evenodd" clip-rule="evenodd" d="M48 0H0V48H48V0ZM18.094 17.072V4H44V26.222H18.094V23.778L20.094 23.108V24.222H42V6H20.094V16.404L18.094 17.072ZM10.684 12.73C12.4303 12.73 13.846 11.3143 13.846 9.568C13.846 7.82167 12.4303 6.406 10.684 6.406C8.93768 6.406 7.522 7.82167 7.522 9.568C7.522 11.3143 8.93768 12.73 10.684 12.73ZM19.3016 19.9508C19.3135 19.9673 19.3253 19.9838 19.332 20.004C19.544 20.624 19.214 21.298 18.596 21.506L16.796 22.122C16.7836 22.1268 16.7735 22.1342 16.7636 22.1416C16.7525 22.1497 16.7416 22.1578 16.728 22.162C16.108 22.374 15.434 22.044 15.222 21.424L13.848 17.406V26.22H7.524V17.54L6.51 25.082C6.422 25.732 5.826 26.188 5.176 26.1C4.526 26.012 4.07 25.416 4.158 24.766L5.2 17.02C5.20727 16.956 5.23147 16.9005 5.25567 16.8449C5.26474 16.8241 5.27382 16.8033 5.282 16.782C5.546 15.64 6.394 14.724 7.522 14.426C7.776 14.36 8.038 14.312 8.312 14.312H13.056C13.33 14.312 13.592 14.358 13.846 14.424C14.822 14.678 15.598 15.392 15.966 16.314C15.97 16.325 15.976 16.3335 15.982 16.342C15.988 16.3505 15.994 16.359 15.998 16.37L17.076 19.522L17.826 19.266C18.24 19.124 18.666 19.24 18.972 19.506L25.052 13.426L25.406 13.78L19.276 19.91C19.283 19.9249 19.2923 19.9379 19.3016 19.9508ZM9.966 32.058C11.616 32.058 12.95 33.394 12.95 35.042C12.95 36.692 11.614 38.026 9.966 38.026C8.318 38.026 6.982 36.69 6.982 35.042C6.982 33.392 8.316 32.058 9.966 32.058ZM41.016 35.042C41.016 33.394 39.68 32.058 38.032 32.058C36.384 32.058 35.048 33.392 35.048 35.042C35.048 36.69 36.384 38.026 38.032 38.026C39.68 38.026 41.016 36.692 41.016 35.042ZM38.034 39.518C36.042 39.518 32.068 40.518 32.068 42.502V43.994H44V42.502C44 40.518 40.024 39.518 38.034 39.518ZM18.094 42.502C18.094 40.518 22.068 39.518 24.06 39.518C26.052 39.518 30.026 40.518 30.026 42.502V43.994H18.094V42.502ZM27.044 35.042C27.044 33.394 25.71 32.058 24.06 32.058C22.412 32.058 21.076 33.392 21.076 35.042C21.076 36.69 22.41 38.026 24.06 38.026C25.708 38.026 27.044 36.692 27.044 35.042ZM9.966 39.518C7.974 39.518 4 40.518 4 42.502V43.994H15.932V42.502C15.932 40.518 11.958 39.518 9.966 39.518Z" fill="#333333"/>
</svg>
