<svg width="48" height="48" viewBox="0 0 48 48" fill="none" xmlns="http://www.w3.org/2000/svg">
<path d="M14.8252 4.77201L15.1932 7.12001L10.3832 7.88201L10.0112 5.53401C9.99245 5.41527 9.99726 5.294 10.0254 5.17713C10.0535 5.06026 10.1045 4.95009 10.1752 4.85293C10.246 4.75576 10.3353 4.67352 10.4379 4.6109C10.5405 4.54828 10.6545 4.50652 10.7732 4.48801L13.7732 4.01201C13.8208 4.00404 13.869 4.00002 13.9172 4.00001C14.1358 3.9992 14.3474 4.07657 14.514 4.21814C14.6805 4.35971 14.7909 4.55616 14.8252 4.77201Z" fill="#333333"/>
<path d="M12.6472 22.1739L10.5992 9.25594L15.4092 8.49194L17.5792 22.1739H12.6472Z" fill="#333333"/>
<path d="M27.5413 22.1741L28.7213 10.9241L33.6593 11.4421L33.4893 13.0761L35.5653 13.2941C35.6366 13.3013 35.7058 13.3226 35.7688 13.3567C35.8319 13.3909 35.8875 13.4372 35.9325 13.493C35.9775 13.5488 36.011 13.613 36.0311 13.6819C36.0511 13.7507 36.0573 13.8228 36.0493 13.8941L35.4813 19.2941C35.4679 19.4276 35.4055 19.5514 35.3061 19.6415C35.2067 19.7317 35.0774 19.7817 34.9433 19.7821H34.8853C34.814 19.7746 34.745 19.7531 34.6821 19.7189C34.6191 19.6847 34.5636 19.6383 34.5186 19.5826C34.4737 19.5269 34.4402 19.4628 34.42 19.394C34.3999 19.3253 34.3935 19.2533 34.4013 19.1821L34.9133 14.3161L33.3753 14.1561L32.5333 22.1741H27.5413Z" fill="#333333"/>
<path d="M31.6253 42.1519H14.4253C13.5456 42.1508 12.7023 41.8009 12.0803 41.1789C11.4583 40.5569 11.1084 39.7136 11.1073 38.8339V23.0979H34.9273V38.8339C34.9263 39.7108 34.5785 40.5517 33.96 41.1733C33.3414 41.7948 32.5022 42.1466 31.6253 42.1519Z" fill="#333333"/>
<path fill-rule="evenodd" clip-rule="evenodd" d="M20.1572 9.12207V22.1741L22.1317 22.1739V21.0679H25.5V22.1739L26 22.1741V9.12207H20.1572ZM25.5 10.2079H22.1317V11.2939H25.5V10.2079ZM25.5 12.3799H22.1317V13.4659H25.5V12.3799ZM25.5 14.5519H22.1317V15.6379H25.5V14.5519ZM25.5 16.7239H22.1317V17.8099H25.5V16.7239ZM25.5 18.8959H22.1317V19.9819H25.5V18.8959Z" fill="#333333"/>
<path d="M34.0493 7.73412C34.1283 7.07118 33.941 6.40398 33.5285 5.87901C33.116 5.35404 32.5121 5.01421 31.8493 4.93412C31.8073 4.93412 31.7648 4.93112 31.7223 4.92812C31.6798 4.92512 31.6373 4.92212 31.5953 4.92212C30.9719 4.9308 30.3738 5.16967 29.916 5.59279C29.4582 6.01591 29.173 6.59339 29.1153 7.21412L28.8533 9.69612L33.7933 10.2141L34.0493 7.73412Z" fill="#333333"/>
<path d="M15.2853 43.0759C15.5487 43.3656 15.8694 43.5973 16.2272 43.7563C16.5849 43.9154 16.9718 43.9984 17.3633 43.9999H28.6753C29.0668 43.9985 29.4537 43.9156 29.8115 43.7565C30.1692 43.5974 30.49 43.3657 30.7533 43.0759H15.2853Z" fill="#333333"/>
</svg>
