<svg width="48" height="48" viewBox="0 0 48 48" fill="none" xmlns="http://www.w3.org/2000/svg">
<path fill-rule="evenodd" clip-rule="evenodd" d="M24.0011 4.00635C12.9554 4.00621 4.00098 12.9605 4.00098 24.0065C4.00084 35.0522 12.9551 44.0066 24.0011 44.0066C35.046 44.0057 43.9993 35.0518 43.999 24.0065C43.9991 12.9616 35.046 4.00748 24.0011 4.00635ZM24.0011 4.52596C34.7591 4.52665 43.48 13.2484 43.4797 24.0064C43.479 34.7637 34.7584 43.4842 24.0011 43.4849C13.2431 43.4853 4.52142 34.7645 4.52066 24.0064C4.52027 13.2476 13.2423 4.52559 24.0011 4.52596ZM33.0693 7.96535C32.1908 7.96535 31.3483 8.31439 30.727 8.9356C30.1058 9.55682 29.7568 10.3993 29.7568 11.2779C29.7568 12.1564 30.1058 12.9989 30.727 13.6201C31.3483 14.2413 32.1908 14.5904 33.0693 14.5904C33.9479 14.5904 34.7904 14.2413 35.4116 13.6201C36.0328 12.9989 36.3818 12.1564 36.3818 11.2779C36.3818 10.3993 36.0328 9.55682 35.4116 8.9356C34.7904 8.31439 33.9479 7.96535 33.0693 7.96535ZM33.0498 8.47712C33.7957 8.47712 34.5111 8.77345 35.0385 9.30089C35.566 9.82834 35.8623 10.5437 35.8623 11.2896C35.8623 11.659 35.7895 12.0246 35.6482 12.3659C35.5069 12.7071 35.2997 13.0172 35.0385 13.2783C34.7774 13.5395 34.4673 13.7467 34.1261 13.888C33.7849 14.0294 33.4191 14.1021 33.0498 14.1021C32.6805 14.1021 32.3147 14.0294 31.9735 13.888C31.6323 13.7467 31.3222 13.5395 31.0611 13.2783C30.7999 13.0172 30.5927 12.7071 30.4514 12.3659C30.31 12.0246 30.2373 11.659 30.2373 11.2896C30.2373 10.5437 30.5336 9.82834 31.0611 9.30089C31.5885 8.77345 32.3039 8.47712 33.0498 8.47712ZM14.882 9.21542C14.0035 9.21542 13.1609 9.56435 12.5397 10.1856C11.9185 10.8068 11.5695 11.6494 11.5695 12.5279C11.5695 12.9629 11.6552 13.3937 11.8216 13.7955C11.9881 14.1974 12.2321 14.5626 12.5397 14.8702C12.8473 15.1778 13.2125 15.4217 13.6143 15.5882C14.0162 15.7547 14.447 15.8403 14.882 15.8403C15.317 15.8403 15.7477 15.7547 16.1496 15.5882C16.5515 15.4217 16.9167 15.1778 17.2243 14.8702C17.5319 14.5626 17.7759 14.1974 17.9423 13.7955C18.1088 13.3937 18.1945 12.9629 18.1945 12.5279C18.1945 11.6494 17.8455 10.8068 17.2243 10.1856C16.6031 9.56435 15.7605 9.21542 14.882 9.21542ZM14.7472 9.69778L17.6593 12.8189C17.6491 12.9062 17.6347 12.9928 17.6164 13.0787L14.4855 9.72316C14.5723 9.71062 14.6597 9.70217 14.7472 9.69778ZM15.5363 9.77783C15.6776 9.81199 15.816 9.85711 15.9503 9.91267L17.5226 11.5962C17.5717 11.7368 17.6096 11.8812 17.6359 12.0278L15.5363 9.77783ZM13.9054 9.86572L17.4328 13.645C17.4036 13.714 17.3716 13.7818 17.3371 13.8483L13.6984 9.95188C13.7662 9.9205 13.8353 9.89184 13.9054 9.86595V9.86572ZM13.2335 10.2192L17.0361 14.2917C16.9912 14.3456 16.9443 14.3977 16.8955 14.448L13.0653 10.3483C13.1196 10.3033 13.1757 10.2602 13.2333 10.2194L13.2335 10.2192ZM12.6964 10.7173L16.499 14.7898C16.4419 14.831 16.3832 14.8701 16.3232 14.907L12.5693 10.8856C12.6095 10.828 12.6519 10.7719 12.6963 10.7175L12.6964 10.7173ZM12.298 11.3618L15.8312 15.1452C15.7593 15.1729 15.6863 15.1976 15.6124 15.2193L12.214 11.5768C12.239 11.5041 12.2671 11.4324 12.298 11.3619V11.3618ZM12.0714 12.1919L14.9874 15.3149C14.9464 15.3171 14.9054 15.3185 14.8644 15.3189C14.8096 15.3179 14.7549 15.3152 14.7003 15.311L12.0538 12.4771C12.0548 12.3818 12.0607 12.2866 12.0714 12.1919ZM12.2003 13.3989L13.7941 15.1059C13.5771 15.0153 13.3724 14.8979 13.1847 14.7563L12.4913 14.0141C12.3698 13.8216 12.2721 13.615 12.2003 13.3989ZM24.0011 15.8189C19.4793 15.8188 15.8135 19.4846 15.8135 24.0064C15.8135 28.5283 19.4793 32.194 24.0011 32.194C28.5226 32.1936 32.1868 28.528 32.1868 24.0064C32.1869 19.485 28.5227 15.8192 24.0011 15.8189ZM24.0011 16.2817C28.2667 16.282 31.7238 19.7409 31.7238 24.0063C31.7236 28.2715 28.2663 31.7287 24.0011 31.729C19.7356 31.7292 16.2769 28.2718 16.2765 24.0063C16.2764 19.7407 19.7354 16.2817 24.0011 16.2817ZM19.8818 20.4029C19.0033 20.4029 18.1607 20.752 17.5395 21.3732C16.9183 21.9944 16.5693 22.8369 16.5693 23.7154C16.5693 24.1504 16.655 24.5811 16.8215 24.983C16.9879 25.3849 17.2319 25.7501 17.5395 26.0577C17.8471 26.3653 18.2123 26.6093 18.6142 26.7758C19.0161 26.9423 19.4468 27.0279 19.8818 27.0279C20.3168 27.0279 20.7476 26.9423 21.1495 26.7758C21.5513 26.6093 21.9165 26.3653 22.2241 26.0577C22.5317 25.7501 22.7757 25.3849 22.9422 24.983C23.1086 24.5811 23.1943 24.1504 23.1943 23.7154C23.1943 22.8369 22.8453 21.9944 22.2241 21.3732C21.6029 20.752 20.7603 20.4029 19.8818 20.4029ZM19.8349 20.899L22.7002 23.9712C22.692 24.0603 22.6796 24.149 22.6631 24.2369L19.5693 20.9204C19.6575 20.9091 19.7461 20.902 19.8349 20.899ZM20.6396 20.9987C20.7903 21.0397 20.9373 21.0933 21.0791 21.1587L22.5303 22.7115C22.585 22.8574 22.6274 23.0077 22.6572 23.1607L20.6396 20.9987ZM18.9815 21.0553L22.4873 24.813C22.4581 24.8813 22.4261 24.9485 22.3916 25.0143L18.7725 21.1372C18.841 21.1071 18.9107 21.0797 18.9815 21.0552V21.0553ZM18.3018 21.401L22.0968 25.4635C22.0526 25.5187 22.0064 25.5721 21.9581 25.6238L18.1321 21.526C18.1872 21.4822 18.2439 21.4405 18.302 21.401H18.3018ZM17.7568 21.8912L21.5674 25.9712C21.5116 26.0137 21.4543 26.0541 21.3955 26.0923L17.6299 22.0573C17.6701 22.0004 17.7125 21.945 17.7568 21.8913V21.8912ZM17.3526 22.528L20.9072 26.3347C20.8354 26.3624 20.7624 26.3872 20.6885 26.4089L17.2646 22.741C17.291 22.6689 17.3203 22.5978 17.3525 22.5281L17.3526 22.528ZM17.1143 23.3463L20.0752 26.5163C20.0173 26.52 19.9594 26.5219 19.9014 26.522C19.8649 26.5208 19.8284 26.5189 19.792 26.5163L17.0928 23.6275C17.0952 23.5335 17.1024 23.4397 17.1142 23.3463H17.1143ZM17.208 24.5162L18.9112 26.3385C18.7222 26.267 18.5414 26.1753 18.3721 26.0651L17.4463 25.0748C17.3469 24.8978 17.267 24.7105 17.208 24.5162ZM35.507 25.5904C34.6285 25.5904 33.7859 25.9395 33.1647 26.5607C32.5435 27.1819 32.1945 28.0244 32.1945 28.9029C32.1945 29.7815 32.5435 30.624 33.1647 31.2452C33.7859 31.8664 34.6285 32.2154 35.507 32.2154C36.3855 32.2154 37.2281 31.8664 37.8493 31.2452C38.4705 30.624 38.8195 29.7815 38.8195 28.9029C38.8195 28.0244 38.4705 27.1819 37.8493 26.5607C37.2281 25.9395 36.3855 25.5904 35.507 25.5904ZM21.8761 25.7115C21.7995 25.7871 21.7187 25.8582 21.6339 25.9244C21.7191 25.8585 21.7989 25.7865 21.8761 25.7115ZM35.417 26.1354L38.2803 29.2037C38.2715 29.2929 38.2585 29.3815 38.2413 29.4694L35.1495 26.1569C35.2383 26.1455 35.3276 26.1383 35.417 26.1354ZM36.2237 26.2369C36.3751 26.2785 36.5227 26.3328 36.6651 26.3991L38.1065 27.942C38.1612 28.088 38.2036 28.2383 38.2334 28.3913L36.2237 26.2369ZM34.5615 26.2896L38.0674 30.0455C38.0376 30.1145 38.005 30.1822 37.9697 30.2486L34.3545 26.3735C34.4224 26.3427 34.4914 26.3147 34.5615 26.2895V26.2896ZM20.6532 26.4205C20.506 26.46 20.3557 26.4874 20.204 26.5025C20.3555 26.485 20.5064 26.462 20.6532 26.4205ZM33.8816 26.6353L37.6747 30.698C37.6312 30.7531 37.5856 30.8064 37.538 30.8581L33.712 26.7603C33.767 26.7166 33.8237 26.6749 33.8819 26.6354L33.8816 26.6353ZM33.3367 27.1256L37.1472 31.2056C37.0914 31.2481 37.0341 31.2885 36.9753 31.3267L33.2097 27.2917C33.2499 27.2348 33.2923 27.1794 33.3366 27.1256H33.3367ZM32.9324 27.7603L36.489 31.5709C36.4171 31.598 36.3441 31.622 36.2703 31.6431L32.8445 27.9733C32.8709 27.9011 32.9002 27.8301 32.9324 27.7603ZM32.6941 28.5787L35.657 31.7506C35.5978 31.7551 35.5386 31.7577 35.4792 31.7584C35.4441 31.7572 35.4089 31.7552 35.3738 31.7526L32.6707 28.86C32.6738 28.7659 32.6816 28.672 32.6941 28.5787ZM32.7839 29.7467L34.4949 31.5768C34.3074 31.5063 34.128 31.4159 33.9597 31.3072L33.0183 30.3014C32.9206 30.1255 32.842 29.9395 32.784 29.7468L32.7839 29.7467ZM18.3189 34.8404C17.8839 34.8404 17.4532 34.9261 17.0513 35.0925C16.6494 35.259 16.2842 35.5029 15.9766 35.8105C15.669 36.1181 15.425 36.4833 15.2586 36.8852C15.0921 37.2871 15.0064 37.7179 15.0064 38.1529C15.0064 38.5879 15.0921 39.0186 15.2586 39.4205C15.425 39.8224 15.669 40.1876 15.9766 40.4951C16.2842 40.8027 16.6494 41.0467 17.0513 41.2132C17.4532 41.3796 17.8839 41.4654 18.3189 41.4654C18.7539 41.4654 19.1847 41.3796 19.5866 41.2132C19.9884 41.0467 20.3536 40.8027 20.6612 40.4951C20.9688 40.1876 21.2128 39.8224 21.3793 39.4205C21.5457 39.0186 21.6314 38.5879 21.6314 38.1529C21.6314 37.7179 21.5457 37.2871 21.3793 36.8852C21.2128 36.4833 20.9688 36.1181 20.6612 35.8105C20.3536 35.5029 19.9884 35.259 19.5866 35.0925C19.1847 34.9261 18.7539 34.8404 18.3189 34.8404ZM18.3092 35.3502C19.0551 35.3502 19.7704 35.6465 20.2979 36.174C20.8253 36.7014 21.1217 37.4168 21.1217 38.1627C21.1217 38.9086 20.8253 39.624 20.2979 40.1514C19.7704 40.6789 19.0551 40.9752 18.3092 40.9752C17.5632 40.9752 16.8479 40.6789 16.3204 40.1514C15.793 39.624 15.4967 38.9086 15.4967 38.1627C15.4967 37.4168 15.793 36.7014 16.3204 36.174C16.8479 35.6465 17.5632 35.3502 18.3092 35.3502Z" fill="#333333"/>
</svg>
