<svg width="48" height="48" viewBox="0 0 48 48" fill="none" xmlns="http://www.w3.org/2000/svg">
<path fill-rule="evenodd" clip-rule="evenodd" d="M0 0V48H48V0H0ZM24 3.99995C35.0449 4.00089 43.9982 12.9547 43.9979 24C43.998 35.0449 35.0449 43.9991 24 44.0002C12.9543 44.0004 3.99987 35.0461 3.99987 24C3.99973 12.9544 12.954 3.99995 24 3.99995ZM24 4.51945C13.2412 4.51905 4.51918 13.2411 4.51956 23.9999C4.52024 34.758 13.242 43.4788 24 43.4784C34.7573 43.4777 43.4778 34.7572 43.4786 23.9999C43.4789 13.2419 34.758 4.5202 24 4.51945ZM33.0682 7.95895C33.5032 7.95895 33.934 8.04461 34.3359 8.21108C34.7377 8.37755 35.1029 8.62149 35.4105 8.92909C35.7181 9.23668 35.9621 9.60184 36.1286 10.0037C36.295 10.4056 36.3807 10.8363 36.3807 11.2713C36.3807 12.1499 36.0317 12.9925 35.4105 13.6137C34.7893 14.2349 33.9468 14.5838 33.0682 14.5838C32.1897 14.5838 31.3471 14.2349 30.7259 13.6137C30.1047 12.9925 29.7557 12.1499 29.7557 11.2713C29.7557 10.8363 29.8414 10.4056 30.0079 10.0037C30.1743 9.60184 30.4183 9.23668 30.7259 8.92909C31.0335 8.62149 31.3987 8.37755 31.8006 8.21108C32.2025 8.04461 32.6332 7.95895 33.0682 7.95895ZM14.8808 9.20891C15.7593 9.20891 16.6018 9.55795 17.223 10.1792C17.8443 10.8004 18.1932 11.6429 18.1932 12.5214C18.1932 12.9564 18.1076 13.3871 17.9411 13.789C17.7746 14.1909 17.5306 14.5561 17.223 14.8637C16.9154 15.1713 16.5503 15.4153 16.1484 15.5818C15.7465 15.7483 15.3158 15.8339 14.8808 15.8339C14.4458 15.8339 14.015 15.7483 13.6131 15.5818C13.2112 15.4153 12.8461 15.1713 12.5385 14.8637C12.2309 14.5561 11.9869 14.1909 11.8204 13.789C11.6539 13.3871 11.5683 12.9564 11.5683 12.5214C11.5683 11.6429 11.9173 10.8004 12.5385 10.1792C13.1597 9.55795 14.0022 9.20891 14.8808 9.20891ZM33.0682 9.77143C32.8712 9.77143 32.6762 9.81024 32.4942 9.88562C32.3122 9.961 32.1468 10.0715 32.0075 10.2108C31.8682 10.3501 31.7578 10.5154 31.6824 10.6974C31.607 10.8794 31.5682 11.0745 31.5682 11.2715C31.5682 11.4684 31.607 11.6635 31.6824 11.8455C31.7578 12.0275 31.8682 12.1928 32.0075 12.3321C32.1468 12.4714 32.3122 12.5819 32.4942 12.6573C32.6762 12.7327 32.8712 12.7715 33.0682 12.7715C33.2652 12.7715 33.4603 12.7327 33.6423 12.6573C33.8243 12.5819 33.9896 12.4714 34.1289 12.3321C34.2682 12.1928 34.3787 12.0275 34.4541 11.8455C34.5294 11.6635 34.5682 11.4684 34.5682 11.2715C34.5682 11.0745 34.5294 10.8794 34.4541 10.6974C34.3787 10.5154 34.2682 10.3501 34.1289 10.2108C33.9896 10.0715 33.8243 9.961 33.6423 9.88562C33.4603 9.81024 33.2652 9.77143 33.0682 9.77143ZM24 15.8126C28.5215 15.813 32.1857 19.4787 32.1857 24.0003C32.1858 28.5217 28.5216 32.1874 24 32.1878C19.4782 32.1879 15.8124 28.5221 15.8124 24.0003C15.8124 19.4784 19.4781 15.8126 24 15.8126ZM24 16.2755C19.7344 16.2753 16.2754 19.7344 16.2754 24.0001C16.2757 28.2657 19.7346 31.7227 24 31.7227C28.2652 31.7225 31.7223 28.2653 31.7227 24.0001C31.7229 19.7346 28.2655 16.2758 24 16.2755ZM19.8807 20.3967C20.3157 20.3967 20.7464 20.4824 21.1483 20.6489C21.5502 20.8153 21.9154 21.0593 22.223 21.3669C22.5306 21.6745 22.7746 22.0396 22.941 22.4415C23.1075 22.8434 23.1932 23.2741 23.1932 23.7091C23.1932 24.1441 23.1075 24.575 22.941 24.9769C22.7746 25.3787 22.5306 25.7439 22.223 26.0515C21.9154 26.3591 21.5502 26.603 21.1483 26.7695C20.7464 26.936 20.3157 27.0216 19.8807 27.0216C19.4457 27.0216 19.0149 26.936 18.6131 26.7695C18.2112 26.603 17.846 26.3591 17.5384 26.0515C17.2308 25.7439 16.9868 25.3787 16.8204 24.9769C16.6539 24.575 16.5682 24.1441 16.5682 23.7091C16.5682 23.2741 16.6539 22.8434 16.8204 22.4415C16.9868 22.0396 17.2308 21.6745 17.5384 21.3669C17.846 21.0593 18.2112 20.8153 18.6131 20.6489C19.0149 20.4824 19.4457 20.3967 19.8807 20.3967ZM35.5056 25.5841C36.3842 25.5841 37.2267 25.9331 37.8479 26.5543C38.4691 27.1755 38.8181 28.018 38.8181 28.8965C38.8181 29.775 38.4691 30.6177 37.8479 31.2389C37.2267 31.8601 36.3842 32.209 35.5056 32.209C34.6271 32.209 33.7846 31.8601 33.1634 31.2389C32.5421 30.6177 32.1931 29.775 32.1931 28.8965C32.1931 28.018 32.5421 27.1755 33.1634 26.5543C33.7846 25.9331 34.6271 25.5841 35.5056 25.5841ZM18.3182 34.8341C19.1968 34.8341 20.0393 35.1831 20.6605 35.8044C21.2817 36.4256 21.6307 37.2681 21.6307 38.1466C21.6307 38.5816 21.545 39.0123 21.3786 39.4142C21.2121 39.8161 20.9681 40.1813 20.6605 40.4889C20.3529 40.7965 19.9878 41.0405 19.5859 41.207C19.184 41.3734 18.7532 41.4591 18.3182 41.4591C17.8832 41.4591 17.4525 41.3734 17.0506 41.207C16.6487 41.0405 16.2835 40.7965 15.976 40.4889C15.6684 40.1813 15.4244 39.8161 15.2579 39.4142C15.0914 39.0123 15.0057 38.5816 15.0057 38.1466C15.0057 37.2681 15.3547 36.4256 15.976 35.8044C16.5972 35.1831 17.4397 34.8341 18.3182 34.8341ZM18.3182 36.6466C17.9465 36.6466 17.588 36.7848 17.3123 37.0341C17.0366 37.2835 16.8633 37.6263 16.826 37.9962C16.8209 38.0462 16.8183 38.0964 16.8182 38.1466C16.8182 38.3436 16.857 38.5387 16.9324 38.7207C17.0078 38.9027 17.1183 39.068 17.2576 39.2073C17.3969 39.3466 17.5622 39.4571 17.7442 39.5324C17.9262 39.6078 18.1213 39.6466 18.3182 39.6466C18.5152 39.6466 18.7103 39.6078 18.8923 39.5324C19.0743 39.4571 19.2396 39.3466 19.3789 39.2073C19.5182 39.068 19.6287 38.9027 19.7041 38.7207C19.7795 38.5387 19.8183 38.3436 19.8183 38.1466C19.8183 37.9496 19.7795 37.7545 19.7041 37.5725C19.6287 37.3906 19.5182 37.2252 19.3789 37.0859C19.2397 36.9466 19.0743 36.8362 18.8923 36.7608C18.7103 36.6854 18.5153 36.6466 18.3183 36.6466H18.3182Z" fill="#333333"/>
</svg>
