<?xml version="1.0" encoding="UTF-8" standalone="no"?>
<!-- Created with Inkscape (http://www.inkscape.org/) -->
<svg id="svg8" xmlns:rdf="http://www.w3.org/1999/02/22-rdf-syntax-ns#" xmlns="http://www.w3.org/2000/svg" xmlns:osb="http://www.openswatchbook.org/uri/2009/osb" height="48" width="48" version="1.1" xmlns:cc="http://creativecommons.org/ns#" viewBox="0 0 12.7 12.7" xmlns:dc="http://purl.org/dc/elements/1.1/">
 <title id="title4753">UIO-icon</title>
 <metadata id="metadata5">
  <rdf:RDF>
   <cc:Work rdf:about="">
    <dc:format>image/svg+xml</dc:format>
    <dc:type rdf:resource="http://purl.org/dc/dcmitype/StillImage"/>
    <dc:title>UIO-icon</dc:title>
    <dc:creator>
     <cc:Agent>
      <dc:title>Joaquín Urbano</dc:title>
     </cc:Agent>
    </dc:creator>
    <dc:rights>
     <cc:Agent>
      <dc:title>GPL</dc:title>
     </cc:Agent>
    </dc:rights>
   </cc:Work>
  </rdf:RDF>
 </metadata>
 <g id="layer1" transform="translate(0,-284.3)">
  <text id="text1512" style="word-spacing:0px;letter-spacing:0px" xml:space="preserve" font-size="7.0556px" line-height="1.25" y="270.5416565" x="44.97916794" font-family="robo" fill="#000000"><tspan id="tspan1510" y="276.9786682" x="44.97916794" stroke-width=".26458"/></text>
  <path id="rect2304" d="m0 284.3v12.7h12.7v-12.7zm6.35 1.0583c2.9223 0.0002486 5.2912 2.3693 5.2911 5.2917 0.00003683 2.9223-2.3688 5.2914-5.2911 5.2917-2.9225 0.0000368-5.2917-2.3691-5.2917-5.2917-0.000036857-2.9225 2.3691-5.2917 5.2917-5.2917zm0 0.13746c-2.8466-0.0001044-5.1543 2.3076-5.1542 5.1542 0.00018103 2.8464 2.3078 5.1538 5.1542 5.1537 2.8462-0.0001809 5.1535-2.3075 5.1537-5.1537 0.00010438-2.8464-2.3073-5.154-5.1537-5.1542zm2.3993 0.91002a0.87643 0.87643 0 0 1 0.87643 0.87643 0.87643 0.87643 0 0 1 -0.87643 0.87643 0.87643 0.87643 0 0 1 -0.87643 -0.87643 0.87643 0.87643 0 0 1 0.87643 -0.87643zm-4.8121 0.33073a0.87643 0.87643 0 0 1 0.87643 0.87643 0.87643 0.87643 0 0 1 -0.87643 0.87643 0.87643 0.87643 0 0 1 -0.87643 -0.87643 0.87643 0.87643 0 0 1 0.87643 -0.87643zm4.8121 0.14883a0.39687 0.39687 0 0 0 -0.39688 0.39688 0.39687 0.39687 0 0 0 0.39688 0.39688 0.39687 0.39687 0 0 0 0.39688 -0.39688 0.39687 0.39687 0 0 0 -0.39688 -0.39688zm-2.3993 1.5984c1.1963 0.0001019 2.1658 0.96997 2.1658 2.1663 0.000015052 1.1963-0.96946 2.1662-2.1658 2.1663-1.1964 0.0000151-2.1663-0.96989-2.1663-2.1663-0.000015079-1.1964 0.96989-2.1663 2.1663-2.1663zm0 0.12247c-1.1286-0.0000414-2.0438 0.91516-2.0438 2.0438 0.000071782 1.1286 0.91524 2.0433 2.0438 2.0433 1.1285-0.0000716 2.0432-0.9148 2.0433-2.0433 0.000041381-1.1286-0.91472-2.0437-2.0433-2.0438zm-1.0899 1.0904a0.87643 0.87643 0 0 1 0.87643 0.87643 0.87643 0.87643 0 0 1 -0.87643 0.87643 0.87643 0.87643 0 0 1 -0.87643 -0.87643 0.87643 0.87643 0 0 1 0.87643 -0.87643zm4.1341 1.3725a0.87643 0.87643 0 0 1 0.87643 0.87643 0.87643 0.87643 0 0 1 -0.87643 0.87643 0.87643 0.87643 0 0 1 -0.87643 -0.87643 0.87643 0.87643 0 0 1 0.87643 -0.87643zm-4.5475 2.4474a0.87643 0.87643 0 0 1 0.87643 0.87643 0.87643 0.87643 0 0 1 -0.87643 0.87643 0.87643 0.87643 0 0 1 -0.87643 -0.87643 0.87643 0.87643 0 0 1 0.87643 -0.87643zm0 0.47956a0.39687 0.39687 0 0 0 -0.39481 0.35708 0.39687 0.39687 0 0 0 -0.0020672 0.039791 0.39687 0.39687 0 0 0 0.39688 0.39688 0.39687 0.39687 0 0 0 0.39688 -0.39688 0.39687 0.39687 0 0 0 -0.39687 -0.39688z" fill-rule="evenodd" fill-opacity=".99608" fill="#323232"/>
 </g>
</svg>
