<?xml version="1.0" encoding="UTF-8" standalone="no"?>
<!-- Created with Inkscape (http://www.inkscape.org/) -->

<svg
   xmlns:dc="http://purl.org/dc/elements/1.1/"
   xmlns:cc="http://creativecommons.org/ns#"
   xmlns:rdf="http://www.w3.org/1999/02/22-rdf-syntax-ns#"
   xmlns:svg="http://www.w3.org/2000/svg"
   xmlns="http://www.w3.org/2000/svg"
   xmlns:sodipodi="http://sodipodi.sourceforge.net/DTD/sodipodi-0.dtd"
   xmlns:inkscape="http://www.inkscape.org/namespaces/inkscape"
   id="svg8"
   height="48"
   width="48"
   version="1.1"
   viewBox="0 0 12.7 12.7"
   sodipodi:docname="information_campaign_outline.svg"
   inkscape:version="0.92.2 (5c3e80d, 2017-08-06)">
  <defs
     id="defs830" />
  <sodipodi:namedview
     pagecolor="#ffffff"
     bordercolor="#666666"
     borderopacity="1"
     objecttolerance="10"
     gridtolerance="10"
     guidetolerance="10"
     inkscape:pageopacity="0"
     inkscape:pageshadow="2"
     inkscape:window-width="1920"
     inkscape:window-height="1017"
     id="namedview828"
     showgrid="false"
     inkscape:zoom="4.000000013"
     inkscape:cx="-55.74768259"
     inkscape:cy="33.77970932"
     inkscape:window-x="-8"
     inkscape:window-y="-8"
     inkscape:window-maximized="1"
     inkscape:current-layer="svg8" />
  <title
     id="title4753">UIO-icon</title>
  <metadata
     id="metadata5">
    <rdf:RDF>
      <cc:Work
         rdf:about="">
        <dc:format>image/svg+xml</dc:format>
        <dc:type
           rdf:resource="http://purl.org/dc/dcmitype/StillImage" />
        <dc:title>UIO-icon</dc:title>
        <dc:creator>
          <cc:Agent>
            <dc:title>Joaquín Urbano</dc:title>
          </cc:Agent>
        </dc:creator>
        <dc:rights>
          <cc:Agent>
            <dc:title>GPL</dc:title>
          </cc:Agent>
        </dc:rights>
      </cc:Work>
    </rdf:RDF>
  </metadata>
  <path
     style="opacity:0.9599999521;fill:#333333;fill-opacity:1;fill-rule:evenodd;stroke:none;stroke-width:0.4999999702;stroke-linecap:round;stroke-linejoin:round;stroke-miterlimit:4;stroke-dasharray:none;stroke-dashoffset:0;stroke-opacity:1"
     d="M 24 4.017578125 C 12.95433071 4.017439038 4 12.97153088 4 24.01757812 C 3.999860762 35.06324742 12.95395276 44.01757812 24 44.01757812 C 35.04491339 44.01663853 43.99842483 35.06286946 43.99804688 24.01757812 C 43.99818615 12.97266474 35.04491339 4.018711983 24 4.017578125 z M 24 4.537109375 C 34.75804724 4.537793469 43.47889358 13.25953088 43.47851562 24.01757812 C 43.47783145 34.77486946 34.75729134 43.49533784 24 43.49609375 C 13.24195276 43.49648833 4.520287156 34.77562537 4.51953125 24.01757812 C 4.519136705 13.25877498 13.24119685 4.536731422 24 4.537109375 z M 16.02929688 14.4609375 A 1.56336882 1.56336882 0 0 0 14.46679688 16.0234375 A 1.56336882 1.56336882 0 0 0 16.02929688 17.58789062 A 1.56336882 1.56336882 0 0 0 17.59375 16.0234375 A 1.56336882 1.56336882 0 0 0 16.02929688 14.4609375 z M 29.234375 14.93945312 C 26.64025718 14.93945312 24.22573324 15.88191624 22.53710938 17.61132812 C 20.84848555 19.34073996 19.94335937 21.85784702 19.94335938 24.6640625 C 19.94335938 27.27449551 20.77243853 29.48279593 22.2734375 31.08984375 C 23.77443647 32.69689157 25.98228908 33.57617187 28.47851562 33.57617188 C 30.41186756 33.57617188 32.21465988 33.12859804 33.51171875 32.44335938 L 33.5234375 29.8671875 C 32.23453621 30.6503174 30.48665166 31.22070313 28.72460938 31.22070312 C 26.82388784 31.22070312 25.43446044 30.69411601 24.25976562 29.4296875 C 23.09322835 28.15710141 22.58398437 26.65682328 22.58398438 24.51953125 C 22.58398438 22.26803278 23.2030586 20.52373889 24.45117188 19.17773438 C 25.70744277 17.83172988 27.15694703 17.28320312 29.171875 17.28320312 C 30.68918917 17.28320312 32.27497911 17.82188363 33.53125 18.5234375 L 33.53125 15.74609375 C 32.43813118 15.26479516 30.89852763 14.93945312 29.234375 14.93945312 z M 16.02929688 14.95703125 A 1.066184419 1.066184419 0 0 1 17.09570312 16.0234375 A 1.066184419 1.066184419 0 0 1 16.02929688 17.08984375 A 1.066184419 1.066184419 0 0 1 14.96289062 16.0234375 A 1.066184419 1.066184419 0 0 1 16.02929688 14.95703125 z M 29.1953125 15.42382812 C 30.85946358 15.42382812 31.93031868 15.60659202 33.0234375 16.08789062 L 33.03515625 17.71484375 C 31.77888536 17.01328988 30.7126267 16.81445312 29.1953125 16.81445312 C 27.18038453 16.81445312 25.34220839 17.49383924 24.0859375 18.83984375 C 22.83782423 20.18584827 22.07617188 22.31881403 22.07617188 24.5703125 C 22.07617188 26.70760453 22.71041585 28.41491391 23.87695312 29.6875 C 25.05164794 30.95192851 26.78091913 31.72070312 28.68164062 31.72070312 C 30.44368291 31.72070312 31.73453621 31.50578596 33.0234375 30.72265625 L 33.02539062 32.15039062 C 31.72833171 32.83562925 30.37280502 33.08398438 28.43945312 33.08398438 C 25.94322654 33.08398441 24.141624 32.37657907 22.640625 30.76953125 C 21.13962603 29.16248343 20.4296875 27.25691738 20.4296875 24.64648438 C 20.4296875 21.84026892 21.25668864 19.61613061 22.9453125 17.88671875 C 24.63393636 16.15730687 26.60119627 15.42382813 29.1953125 15.42382812 z M 17.25195312 20.24609375 L 14.734375 20.25390625 L 14.73046875 33.28320312 L 17.22851562 33.27929688 L 17.25195312 20.24609375 z M 15.23046875 20.7421875 L 16.75585938 20.74609375 L 16.73632812 32.78320312 L 15.24609375 32.79492188 L 15.23046875 20.7421875 z "
     transform="scale(0.2645833333)"
     id="circle1398" />
  <text
     x="44.97916794"
     y="-13.7583437"
     line-height="1.25"
     font-size="7.0556px"
     xml:space="preserve"
     style="font-size:7.0556001663px;line-height:1.25;font-family:robo;letter-spacing:0px;word-spacing:0px;fill:#000000"
     id="text1512"><tspan
       style="stroke-width:0.2645800114"
       x="44.97916794"
       y="-7.321331978"
       id="tspan1510" /></text>
</svg>
