<?xml version="1.0" encoding="UTF-8" standalone="no"?>
<!-- Created with Inkscape (http://www.inkscape.org/) -->
<svg id="svg8" xmlns:rdf="http://www.w3.org/1999/02/22-rdf-syntax-ns#" xmlns="http://www.w3.org/2000/svg" xmlns:osb="http://www.openswatchbook.org/uri/2009/osb" height="48" width="48" version="1.1" xmlns:cc="http://creativecommons.org/ns#" viewBox="0 0 12.7 12.7" xmlns:dc="http://purl.org/dc/elements/1.1/">
 <title id="title4753">UIO-icon</title>
 <metadata id="metadata5">
  <rdf:RDF>
   <cc:Work rdf:about="">
    <dc:format>image/svg+xml</dc:format>
    <dc:type rdf:resource="http://purl.org/dc/dcmitype/StillImage"/>
    <dc:title>UIO-icon</dc:title>
    <dc:creator>
     <cc:Agent>
      <dc:title>Joaquín Urbano</dc:title>
     </cc:Agent>
    </dc:creator>
    <dc:rights>
     <cc:Agent>
      <dc:title>GPL</dc:title>
     </cc:Agent>
    </dc:rights>
   </cc:Work>
  </rdf:RDF>
 </metadata>
 <g id="layer1" transform="translate(0,-284.3)">
  <text id="text1512" style="word-spacing:0px;letter-spacing:0px" xml:space="preserve" font-size="7.0556px" line-height="1.25" y="270.5416565" x="44.97916794" font-family="robo" fill="#000000"><tspan id="tspan1510" y="276.9786682" x="44.97916794" stroke-width=".26458"/></text>
  <path id="path2198" d="m6.3503 285.36c-2.9225-0.0000368-5.2917 2.3691-5.2917 5.2917-0.000036838 2.9225 2.3691 5.2917 5.2917 5.2917 2.9223-0.0002486 5.2912-2.3693 5.2911-5.2917 0.00003686-2.9223-2.3688-5.2914-5.2911-5.2917zm-2.111 2.8298c0.097126 0 0.17907 0.033343 0.24598 0.10025 0.069067 0.064751 0.10387 0.1467 0.10387 0.24598 0 0.094968-0.034802 0.17597-0.10387 0.24288-0.066909 0.066909-0.14885 0.10025-0.24598 0.10025-0.094968 0-0.17597-0.032401-0.24288-0.097152-0.066909-0.064751-0.10025-0.1467-0.10025-0.24598 0-0.099284 0.033343-0.18123 0.10025-0.24598 0.066909-0.066909 0.14791-0.10025 0.24288-0.10025zm3.4706 0.12609c0.4403 0 0.80529 0.06386 1.0945 0.1912v0.57929c-0.33239-0.18562-0.69925-0.27854-1.1007-0.27854-0.53311 0-0.96624 0.17821-1.2986 0.53433-0.33023 0.35613-0.49506 0.83211-0.49506 1.4278 3e-9 0.56549 0.15438 1.0167 0.46302 1.3534 0.3108 0.33455 0.7177 0.50178 1.2206 0.50178 0.46621 0 0.86976-0.10389 1.2108-0.31109v0.52813c-0.34318 0.1813-0.77056 0.27182-1.2821 0.27182-0.66046 0-1.1893-0.21249-1.5865-0.63769-0.39714-0.4252-0.59583-0.98313-0.59583-1.6738 0-0.74247 0.22346-1.3428 0.67024-1.8004 0.44678-0.45757 1.0133-0.68626 1.6996-0.68626zm-3.7424 1.4051h0.53072v3.315h-0.5307z" fill-rule="evenodd" fill="#333"/>
 </g>
</svg>
