<svg width="48" height="48" viewBox="0 0 48 48" fill="none" xmlns="http://www.w3.org/2000/svg">
<path fill-rule="evenodd" clip-rule="evenodd" d="M24 4C18.6957 4 13.6086 6.10714 9.85786 9.85786C6.10714 13.6086 4 18.6957 4 24C4 29.3043 6.10714 34.3914 9.85786 38.1421C13.6086 41.8929 18.6957 44 24 44C29.3043 44 34.3914 41.8929 38.1421 38.1421C41.8929 34.3914 44 29.3043 44 24C44 18.6957 41.8929 13.6086 38.1421 9.85786C34.3914 6.10714 29.3043 4 24 4ZM24 4.53C29.1664 4.53 34.1212 6.58235 37.7744 10.2356C41.4276 13.8888 43.48 18.8436 43.48 24.01C43.48 29.1764 41.4276 34.1312 37.7744 37.7844C34.1212 41.4376 29.1664 43.49 24 43.49C18.8336 43.49 13.8788 41.4376 10.2256 37.7844C6.57235 34.1312 4.52 29.1764 4.52 24.01C4.52 18.8436 6.57235 13.8888 10.2256 10.2356C13.8788 6.58235 18.8336 4.53 24 4.53ZM16.03 14.45C15.6163 14.45 15.2195 14.6144 14.9269 14.9069C14.6344 15.1995 14.47 15.5963 14.47 16.01C14.47 16.4237 14.6344 16.8205 14.9269 17.1131C15.2195 17.4056 15.6163 17.57 16.03 17.57C16.4437 17.57 16.8405 17.4056 17.1331 17.1131C17.4256 16.8205 17.59 16.4237 17.59 16.01C17.59 15.5963 17.4256 15.1995 17.1331 14.9069C16.8405 14.6144 16.4437 14.45 16.03 14.45ZM29.23 14.93C26.64 14.93 24.23 15.87 22.53 17.6C20.85 19.33 19.94 21.85 19.94 24.65C19.8616 27.0131 20.6959 29.3157 22.27 31.08C23.078 31.8995 24.0468 32.5428 25.1156 32.9696C26.1843 33.3964 27.3298 33.5974 28.48 33.56C30.41 33.56 32.22 33.12 33.51 32.43L33.52 29.86C32.068 30.7276 30.4114 31.1935 28.72 31.21C27.8896 31.2601 27.0584 31.1245 26.2869 30.8132C25.5154 30.5018 24.823 30.0225 24.26 29.41C23.09 28.14 22.59 26.65 22.59 24.51C22.59 22.26 23.2 20.51 24.45 19.17C25.71 17.82 27.15 17.27 29.17 17.27C30.69 17.27 32.27 17.81 33.53 18.51V15.73C32.43 15.25 30.9 14.93 29.23 14.93ZM16.03 14.95C16.1785 14.9356 16.3284 14.9524 16.4701 14.9994C16.6117 15.0463 16.742 15.1224 16.8525 15.2227C16.963 15.323 17.0513 15.4453 17.1117 15.5817C17.1721 15.7182 17.2033 15.8658 17.2033 16.015C17.2033 16.1642 17.1721 16.3118 17.1117 16.4482C17.0513 16.5847 16.963 16.707 16.8525 16.8073C16.742 16.9076 16.6117 16.9837 16.4701 17.0306C16.3284 17.0776 16.1785 17.0944 16.03 17.08C15.7653 17.0543 15.5197 16.931 15.341 16.7341C15.1623 16.5373 15.0633 16.2809 15.0633 16.015C15.0633 15.7491 15.1623 15.4927 15.341 15.2959C15.5197 15.099 15.7653 14.9757 16.03 14.95ZM29.2 15.41C30.86 15.41 31.93 15.6 33.02 16.08L33.04 17.7C31.8705 17.0439 30.5393 16.7319 29.2 16.8C27.18 16.8 25.34 17.48 24.09 18.83C22.7439 20.4311 22.0291 22.4688 22.08 24.56C21.9997 26.4346 22.6443 28.2681 23.88 29.68C24.4982 30.3293 25.2433 30.8446 26.0691 31.1938C26.8948 31.543 27.7835 31.7187 28.68 31.71C30.45 31.71 31.74 31.49 33.02 30.71V32.14C31.72 32.82 30.37 33.07 28.44 33.07C25.94 33.07 24.14 32.37 22.64 30.76C21.14 29.15 20.44 27.25 20.44 24.63C20.44 21.83 21.26 19.6 22.94 17.88C24.64 16.15 26.6 15.41 29.2 15.41ZM17.25 20.23L14.73 20.24V33.27H17.23L17.25 20.23ZM15.23 20.73H16.76L16.74 32.77L15.24 32.78L15.23 20.73Z" fill="#333333"/>
</svg>
