<svg width="48" height="48" viewBox="0 0 48 48" fill="none" xmlns="http://www.w3.org/2000/svg">
<path fill-rule="evenodd" clip-rule="evenodd" d="M24 4C18.6957 4 13.6086 6.10714 9.85786 9.85786C6.10714 13.6086 4 18.6957 4 24C4 29.3043 6.10714 34.3914 9.85786 38.1421C13.6086 41.8929 18.6957 44 24 44C29.3043 44 34.3914 41.8929 38.1421 38.1421C41.8929 34.3914 44 29.3043 44 24C44 18.6957 41.8929 13.6086 38.1421 9.85786C34.3914 6.10714 29.3043 4 24 4ZM16.02 14.7C16.39 14.7 16.7 14.83 16.95 15.08C17.21 15.33 17.35 15.64 17.35 16.01C17.35 16.37 17.21 16.68 16.95 16.93C16.7 17.18 16.39 17.31 16.02 17.31C15.8482 17.3141 15.6773 17.2833 15.5177 17.2194C15.3581 17.1555 15.2132 17.0599 15.0916 16.9384C14.9701 16.8168 14.8745 16.6719 14.8106 16.5123C14.7467 16.3527 14.7159 16.1818 14.72 16.01C14.72 15.64 14.85 15.33 15.1 15.08C15.36 14.83 15.66 14.7 16.02 14.7ZM29.14 15.18C30.8 15.18 32.18 15.42 33.28 15.9V18.09C32.0078 17.3854 30.5742 17.0235 29.12 17.04C28.2047 17.0057 27.2927 17.1684 26.4457 17.5168C25.5986 17.8653 24.8362 18.3916 24.21 19.06C22.96 20.4 22.34 22.2 22.34 24.46C22.34 26.59 22.92 28.3 24.09 29.56C24.6773 30.1887 25.3929 30.6837 26.1883 31.0116C26.9837 31.3394 27.8403 31.4923 28.7 31.46C30.46 31.46 31.99 31.07 33.28 30.29V32.29C31.7704 33.0197 30.1056 33.3698 28.43 33.31C25.93 33.31 23.93 32.51 22.43 30.91C20.93 29.3 20.18 27.19 20.18 24.58C20.18 21.77 21.03 19.5 22.72 17.78C23.5514 16.9252 24.5515 16.2527 25.6567 15.8051C26.7619 15.3575 27.9481 15.1446 29.14 15.18ZM15 20.48H17V33.02H15V20.49V20.48Z" fill="#333333"/>
</svg>
