<svg width="48" height="48" viewBox="0 0 48 48" fill="none" xmlns="http://www.w3.org/2000/svg">
<path d="M12.459 12.207C10.8743 12.2066 9.58954 13.4915 9.58984 15.0762C9.58952 16.6609 10.8743 17.9456 12.459 17.9453C14.0437 17.9456 15.3284 16.6609 15.3281 15.0762C15.3285 13.4915 14.0437 12.2066 12.459 12.207ZM18.5625 14.3203C17.6811 14.3203 16.9707 15.0307 16.9707 15.9121C16.9707 15.9424 16.9768 15.9716 16.9785 16.0019H16.9707V17.7344H28.4375V17.7403H38.1172V16.0039H38.1094C38.1111 15.9737 38.1172 15.9447 38.1172 15.9141C38.1172 15.0326 37.4088 14.3223 36.5273 14.3223L18.5625 14.3203ZM10.0098 18.6973C8.58977 18.6973 7.44727 19.8398 7.44727 21.2598V23.6465C7.45248 23.7436 7.44727 23.9474 7.44727 24.0332V34.1543C7.44727 35.0602 8.17616 35.791 9.08203 35.791C9.98791 35.791 10.7168 35.0602 10.7168 34.1543V24.0332C10.7168 23.8998 10.7155 23.7921 10.7168 23.6602L16.1113 23.6484V18.6992L10.0098 18.6973ZM16.1113 18.6993V23.6485H37.1113C37.1087 23.7842 37.1113 23.9017 37.1113 24.0352V34.1543C37.1113 35.0601 37.8402 35.7911 38.7461 35.7911C39.652 35.7911 40.3809 35.0601 40.3809 34.1543V24.0352C40.3822 23.7982 40.3809 23.661 40.3809 23.6484V21.2617C40.3809 19.8416 39.2364 18.6992 37.8164 18.6992L16.1113 18.6993Z" fill="#333333"/>
</svg>
