<svg width="48" height="48" viewBox="0 0 48 48" fill="none" xmlns="http://www.w3.org/2000/svg">
<path fill-rule="evenodd" clip-rule="evenodd" d="M39.6578 21.5568C40.0484 21.9473 40.0484 22.5805 39.6578 22.971L35.1999 27.429C34.8093 27.8195 34.1762 27.8195 33.7857 27.429C33.3951 27.0384 33.3951 26.4053 33.7857 26.0148L38.2436 21.5568C38.6342 21.1663 39.2673 21.1663 39.6578 21.5568ZM34.2553 29.4849L33.6473 30.0929C33.043 30.6972 32.4415 31.7743 32.4241 33.1399C32.4062 34.5387 33.0009 36.1137 34.5765 37.6893C36.0773 39.1901 37.412 39.8728 38.5857 39.9007C39.8135 39.93 40.6421 39.2382 41.01 38.5305L41.309 37.9554L34.8512 29.8173C34.874 29.8209 34.8971 29.8239 34.9205 29.826L37.3281 30.0449C37.4695 30.0577 37.6119 30.0403 37.746 29.9939L39.4465 29.4047C39.9684 29.2238 40.2449 28.6542 40.064 28.1324C39.8832 27.6105 39.3136 27.3341 38.7918 27.5149L37.2947 28.0336L35.1016 27.8342C34.5515 27.7842 34.0651 28.1895 34.0151 28.7396C33.9895 29.0214 34.0835 29.2866 34.2553 29.4849ZM38.7121 37.9002C38.6869 37.9016 38.6606 37.902 38.6333 37.9013C38.2055 37.8911 37.3345 37.6189 35.9907 36.2751C34.7218 35.0062 34.4141 33.9279 34.4239 33.1655C34.4266 32.9577 34.4528 32.7639 34.495 32.586L38.7121 37.9002ZM31.1217 27.5674L31.7297 26.9594C31.928 27.1312 32.1932 27.2251 32.4751 27.1995C33.0251 27.1495 33.4304 26.6631 33.3804 26.1131L33.1811 23.9199L33.6998 22.4229C33.8806 21.901 33.6041 21.3314 33.0823 21.1506C32.5604 20.9698 31.9908 21.2462 31.81 21.7681L31.2208 23.4686C31.1743 23.6027 31.1569 23.7452 31.1698 23.8865L31.3887 26.2942C31.3908 26.3175 31.3937 26.3407 31.3974 26.3635L23.2593 19.9056L22.6841 20.2046C21.9764 20.5725 21.2847 21.4011 21.3139 22.629C21.3418 23.8027 22.0246 25.1374 23.5253 26.6381C25.101 28.2138 26.676 28.8085 28.0747 28.7906C29.4403 28.7731 30.5175 28.1716 31.1217 27.5674ZM23.3144 22.5026C23.3131 22.5278 23.3127 22.554 23.3133 22.5814C23.3235 23.0092 23.5957 23.8801 24.9395 25.2239C26.2085 26.4929 27.2868 26.8005 28.0491 26.7908C28.2569 26.7881 28.4508 26.7618 28.6287 26.7196L23.3144 22.5026ZM27.6516 29.5603C28.2006 29.6206 28.5968 30.1145 28.5365 30.6635C28.4762 31.2125 27.9823 31.6086 27.4333 31.5483L25.2548 31.3091L23.1459 31.6603C22.9119 31.6993 22.6716 31.6538 22.4681 31.532L20.5175 30.3646C20.0436 30.081 19.8893 29.4669 20.1729 28.993C20.4566 28.5191 21.0706 28.3649 21.5445 28.6485L23.1798 29.6271L25.0625 29.3136C25.1529 29.2985 25.2449 29.296 25.3359 29.306L27.6516 29.5603ZM26.1094 32.0989C26.6613 32.0783 27.1254 32.5091 27.1459 33.061C27.1665 33.6129 26.7357 34.0769 26.1838 34.0975L24.713 34.1523L23.5472 35.9339C23.3625 36.2162 23.0478 36.3864 22.7104 36.3864H20.5553C20.003 36.3864 19.5553 35.9387 19.5553 35.3864C19.5553 34.8341 20.003 34.3864 20.5553 34.3864H22.1697L23.3224 32.6247C23.5 32.3534 23.798 32.185 24.122 32.1729L26.1094 32.0989ZM31.7275 33.5798C31.6309 33.036 31.1117 32.6736 30.5679 32.7703C30.0242 32.8669 29.6617 33.3861 29.7584 33.9298L30.174 36.2674L29.8284 38.3428C29.7894 38.5767 29.8349 38.817 29.9567 39.0205L31.124 40.9711C31.4076 41.445 32.0217 41.5993 32.4956 41.3157C32.9695 41.0321 33.1238 40.418 32.8402 39.9441L31.8616 38.3088L32.1751 36.4261C32.1938 36.3137 32.1931 36.199 32.1732 36.0868L31.7275 33.5798ZM29.1126 34.98C29.0639 34.4298 28.5785 34.0233 28.0284 34.0719C27.4783 34.1206 27.0717 34.606 27.1204 35.1561L27.2676 36.8207L25.5547 37.9414C25.2724 38.1261 25.1023 38.4408 25.1023 38.7782V40.9333C25.1023 41.4856 25.55 41.9333 26.1023 41.9333C26.6546 41.9333 27.1023 41.4856 27.1023 40.9333V39.3189L28.864 38.1662C29.1726 37.9642 29.345 37.6087 29.3126 37.2413L29.1126 34.98Z" fill="#333333"/>
<path fill-rule="evenodd" clip-rule="evenodd" d="M32.7191 27.98C31.8882 28.3954 30.8416 29.1608 29.8085 30.1938C28.7755 31.2269 28.0102 32.2735 27.5947 33.1044C27.4186 33.4565 27.3237 33.7338 27.2837 33.931C27.4809 33.891 27.7582 33.796 28.1103 33.62C28.9412 33.2045 29.9878 32.4392 31.0208 31.4061C32.0539 30.373 32.8192 29.3265 33.2347 28.4955C33.4107 28.1434 33.5057 27.8662 33.5457 27.669C33.3485 27.709 33.0712 27.8039 32.7191 27.98ZM33.416 25.6656C33.9165 25.6063 34.5707 25.6623 35.0615 26.1531C35.5524 26.644 35.6084 27.2981 35.5491 27.7987C35.488 28.3135 35.2886 28.8598 35.0235 29.39C34.4884 30.4602 33.5778 31.6775 32.435 32.8203C31.2923 33.9631 30.075 34.8737 29.0047 35.4088C28.4745 35.6739 27.9283 35.8733 27.4134 35.9343C26.9128 35.9937 26.2587 35.9377 25.7678 35.4468C25.277 34.956 25.221 34.3018 25.2803 33.8012C25.3413 33.2864 25.5407 32.7402 25.8058 32.21C26.341 31.1397 27.2516 29.9224 28.3943 28.7796C29.5371 27.6368 30.7544 26.7263 31.8247 26.1911C32.3549 25.926 32.9011 25.7266 33.416 25.6656Z" fill="#333333"/>
<path fill-rule="evenodd" clip-rule="evenodd" d="M27.5745 7.69357L24.3628 9.54782V14.375L19.7755 17.0235V21.875L14.3629 25L9.83626 22.3866L6.7627 24.1611L5.8252 22.5373L8.95021 20.7331V15.625L13.5375 12.9765V8.125L18.9502 5L23.7201 7.75388L26.637 6.06977L27.5745 7.69357ZM22.1978 9.375L18.9502 7.5L15.7026 9.375V13.125L18.9502 15L22.1978 13.125V9.375ZM17.8228 16.875L14.5752 15L11.3276 16.875V20.625L14.5752 22.5L17.8228 20.625V16.875Z" fill="#333333"/>
<path d="M28.8249 16.2873L25.5127 14.375L24.5752 15.9988L27.8874 17.9111L28.8249 16.2873Z" fill="#333333"/>
<path d="M5.5127 12.5L8.82488 14.4123L7.88738 16.0361L4.5752 14.1238L5.5127 12.5Z" fill="#333333"/>
</svg>
