<svg width="48" height="48" viewBox="0 0 48 48" fill="none" xmlns="http://www.w3.org/2000/svg">
<path d="M38.6333 37.9013C38.6433 37.9016 38.6532 37.9016 38.6629 37.9016C38.6732 37.9016 38.6833 37.9014 38.6933 37.901L38.7121 37.9002L34.495 32.586C34.4528 32.7639 34.4266 32.9577 34.4239 33.1655C34.4141 33.9279 34.7218 35.0062 35.9907 36.2751C37.3345 37.6189 38.2055 37.8911 38.6333 37.9013Z" fill="#333333"/>
<path d="M23.3133 22.5814C23.3127 22.554 23.3131 22.5278 23.3144 22.5026L28.6287 26.7196C28.4508 26.7618 28.2569 26.7881 28.0491 26.7908C27.2868 26.8005 26.2085 26.4929 24.9395 25.2239C23.5957 23.8801 23.3235 23.0092 23.3133 22.5814Z" fill="#333333"/>
<path d="M32.7191 27.98C31.8882 28.3954 30.8416 29.1608 29.8085 30.1938C28.7755 31.2269 28.0102 32.2735 27.5947 33.1044C27.4186 33.4565 27.3237 33.7338 27.2837 33.931C27.4809 33.891 27.7582 33.796 28.1103 33.62C28.9412 33.2045 29.9878 32.4392 31.0208 31.4061C32.0539 30.373 32.8192 29.3265 33.2347 28.4955C33.4107 28.1434 33.5057 27.8662 33.5457 27.669C33.3485 27.709 33.0712 27.8039 32.7191 27.98Z" fill="#333333"/>
<path d="M18.9502 7.5L22.1978 9.375V13.125L18.9502 15L15.7026 13.125V9.375L18.9502 7.5Z" fill="#333333"/>
<path d="M14.5752 15L17.8228 16.875V20.625L14.5752 22.5L11.3276 20.625V16.875L14.5752 15Z" fill="#333333"/>
<path fill-rule="evenodd" clip-rule="evenodd" d="M48 0H0V48H48V0ZM39.6578 22.971C40.0484 22.5805 40.0484 21.9473 39.6578 21.5568C39.2673 21.1663 38.6342 21.1663 38.2436 21.5568L34.1219 25.6785C33.875 25.6359 33.6313 25.6401 33.416 25.6656C33.3909 25.6686 33.3658 25.6719 33.3407 25.6755L33.1811 23.9199L33.6998 22.4229C33.8806 21.901 33.6041 21.3314 33.0823 21.1506C32.5604 20.9698 31.9908 21.2462 31.81 21.7681L31.2208 23.4686C31.1743 23.6027 31.1569 23.7452 31.1698 23.8865L31.3887 26.2942C31.3908 26.3175 31.3937 26.3407 31.3974 26.3635L23.2593 19.9056L22.6841 20.2046C21.9764 20.5725 21.2847 21.4011 21.3139 22.629C21.3418 23.8027 22.0246 25.1374 23.5253 26.6381C25.101 28.2138 26.676 28.8085 28.0747 28.7906C28.1846 28.7892 28.2926 28.784 28.3986 28.7753L28.3943 28.7796C28.1368 29.0372 27.891 29.2985 27.6587 29.5611L27.6516 29.5603L25.3359 29.306C25.2449 29.296 25.1529 29.2985 25.0625 29.3136L23.1798 29.6271L21.5445 28.6485C21.0706 28.3649 20.4566 28.5191 20.1729 28.993C19.8893 29.4669 20.0436 30.081 20.5175 30.3646L22.4681 31.532C22.6716 31.6538 22.9119 31.6993 23.1459 31.6603L25.2548 31.3091L26.253 31.4187C26.106 31.6533 25.9738 31.8838 25.8576 32.1083L24.122 32.1729C23.798 32.185 23.5 32.3534 23.3224 32.6247L22.1697 34.3864H20.5553C20.003 34.3864 19.5553 34.8341 19.5553 35.3864C19.5553 35.9387 20.003 36.3864 20.5553 36.3864H22.7104C23.0478 36.3864 23.3625 36.2162 23.5472 35.9339L24.713 34.1523L25.2612 34.1319C25.2633 34.5678 25.3794 35.0584 25.7678 35.4468C26.1887 35.8676 26.7295 35.9688 27.1907 35.9518L27.2676 36.8207L25.5547 37.9414C25.2724 38.1261 25.1023 38.4408 25.1023 38.7782V40.9333C25.1023 41.4856 25.55 41.9333 26.1023 41.9333C26.6546 41.9333 27.1023 41.4856 27.1023 40.9333V39.3189L28.864 38.1662C29.1726 37.9642 29.345 37.6087 29.3126 37.2413L29.1442 35.3374C29.3985 35.2041 29.6604 35.0505 29.927 34.8783L30.174 36.2674L29.8284 38.3428C29.7894 38.5767 29.8349 38.817 29.9567 39.0205L31.124 40.9711C31.4076 41.445 32.0217 41.5993 32.4956 41.3157C32.9695 41.0321 33.1238 40.418 32.8402 39.9441L31.8616 38.3088L32.1751 36.4261C32.1938 36.3137 32.1931 36.199 32.1732 36.0868L31.7275 33.5798C31.723 33.5544 31.7176 33.5293 31.7112 33.5047C31.9544 33.2876 32.1964 33.059 32.435 32.8203L32.4393 32.816C32.4307 32.9221 32.4255 33.0301 32.4241 33.1399C32.4062 34.5387 33.0009 36.1137 34.5765 37.6893C36.0773 39.1901 37.412 39.8728 38.5857 39.9007C39.8135 39.93 40.6421 39.2382 41.01 38.5305L41.309 37.9554L34.8512 29.8173C34.874 29.8209 34.8971 29.8239 34.9205 29.826L37.3281 30.0449C37.4695 30.0577 37.6119 30.0403 37.746 29.9939L39.4465 29.4047C39.9684 29.2238 40.2449 28.6542 40.064 28.1324C39.8832 27.6105 39.3136 27.3341 38.7918 27.5149L37.2947 28.0336L35.5392 27.874C35.5428 27.8488 35.5461 27.8237 35.5491 27.7987C35.5746 27.5834 35.5788 27.3396 35.5362 27.0927L39.6578 22.971ZM24.3628 9.54782L27.5745 7.69357L26.637 6.06978L23.7201 7.75387L18.9502 5L13.5375 8.125V12.9765L8.95021 15.625V20.7331L5.8252 22.5373L6.7627 24.1611L9.83626 22.3866L14.3629 25L19.7755 21.875V17.0235L24.3628 14.375V9.54782ZM28.8249 16.2873L25.5127 14.375L24.5752 15.9988L27.8874 17.9111L28.8249 16.2873ZM8.82488 14.4123L5.5127 12.5L4.5752 14.1238L7.88738 16.0361L8.82488 14.4123Z" fill="#333333"/>
</svg>
