<svg width="48" height="48" viewBox="0 0 48 48" fill="none" xmlns="http://www.w3.org/2000/svg">
<path fill-rule="evenodd" clip-rule="evenodd" d="M48 0H0V48H48V0ZM33.6602 9.27651L38.7989 6.30972L37.2989 3.71164L32.6318 6.4062L25 2L16.3397 7V14.7624L9.00002 19V27.1729L4 30.0597L5.5 32.6577L10.4177 29.8185L17.6603 34L26.3205 29V21.2376L33.6602 17V9.27651ZM25 6L30.1962 9V15L25 18L19.8039 15V9L25 6ZM18 18L23.1962 21V27L18 30L12.8039 27V21L18 18ZM35.5 17L40.7995 20.0597L39.2995 22.6577L34 19.5981L35.5 17ZM3.5 14L8.79949 17.0597L7.29949 19.6577L2 16.5981L3.5 14ZM37.8772 25.2L37.8792 25.1979L37.8773 25.1954C37.9247 25.243 37.9546 25.3103 37.9536 25.383L37.9104 29.4299C37.9088 29.4994 37.8803 29.5674 37.8299 29.6174L36.4528 30.9863L36.4364 32.3553L36.9785 31.8171C37.2329 31.5644 37.6122 31.5193 37.9103 31.6769L39.3843 30.4627C39.6308 30.2592 39.6627 30.2907 39.4586 30.537L38.2328 32.0034C38.3881 32.3026 38.3421 32.6818 38.0884 32.9352L37.5482 33.4712L38.9131 33.4671L40.2922 32.0962C40.3425 32.0464 40.4095 32.0201 40.4798 32.0199L44.5244 32.0033C44.671 32.0023 44.7877 32.1188 44.7861 32.265C44.7855 32.4124 44.6642 32.5324 44.5181 32.533L40.5847 32.5496L39.2034 33.9184C39.1531 33.9681 39.0859 33.9943 39.0159 33.9947L37.0121 34.0029L36.9358 34.0792L36.678 34.3327C37.4316 35.4264 38.9502 37.6359 39.8342 38.9938L39.8363 38.996C40.2 39.5548 40.4559 39.9681 40.5086 40.1012C40.7354 40.6766 39.8716 41.4749 38.8667 40.715C38.6304 40.5362 38.3791 40.3669 38.1283 40.1979C37.5706 39.8222 37.0152 39.448 36.632 38.975L35.6292 43.8959C35.5998 44.0393 35.4609 44.1351 35.3179 44.1082C35.2644 44.0975 35.2173 44.0697 35.1819 44.034C35.1223 43.9742 35.0936 43.8883 35.1118 43.799L36.1344 38.7935H36.1301L36.2374 38.2739C36.2361 38.2652 36.2329 38.2595 36.2295 38.2535C36.228 38.2508 36.2264 38.2481 36.225 38.2451C36.1317 37.9557 36.0208 37.5807 35.9054 37.1792L35.2541 37.8266L34.815 38.2615L34.8171 38.2636L33.2111 39.8571L32.7488 40.9739L32.7446 40.978L31.0068 45.1651C30.9504 45.3006 30.7932 45.3661 30.6584 45.3115C30.6247 45.2983 30.596 45.278 30.5719 45.2537C30.4999 45.1811 30.4737 45.0689 30.5161 44.9672L31.9593 41.4996L31.9614 41.4975L32.7448 39.6132C32.7584 39.5803 32.7773 39.5519 32.8025 39.5266L35.6639 36.6817L35.6744 36.644C35.6881 36.595 35.7017 36.5462 35.7134 36.4962C35.6441 36.248 35.578 36.0045 35.5172 35.7805L35.4557 35.554L33.5508 37.4466L32.2582 38.7268C31.9462 39.0367 31.4418 39.0387 31.1367 38.7309C30.8316 38.4234 30.8342 37.9164 31.1471 37.6074L32.4232 36.3437L34.3445 34.4346C34.0785 34.3605 33.7749 34.2755 33.4602 34.1851C33.3641 34.2096 33.2665 34.2355 33.1715 34.2635L31.8562 35.5706L31.8583 35.5727L30.3596 37.063C30.3323 37.086 30.3019 37.1063 30.2689 37.1208L28.5888 37.8032L28.5867 37.8053L24.8976 39.3094C24.7955 39.3509 24.683 39.3262 24.6111 39.2537C24.5865 39.2297 24.5699 39.1983 24.5554 39.165C24.5018 39.0301 24.5678 38.8743 24.7039 38.8187L30.0246 36.6519L31.5791 35.1099L31.5771 35.1079L31.946 34.743L32.7212 33.972C32.3207 33.8538 31.9438 33.7397 31.6553 33.6442C31.6475 33.6448 31.6393 33.6409 31.6313 33.6371L31.6244 33.6339L26.0974 34.7203C26.0079 34.7382 25.9219 34.71 25.8625 34.6502C25.8268 34.6141 25.8009 34.565 25.7903 34.5121C25.7643 34.3684 25.861 34.2311 26.0047 34.2029L30.8514 33.2483C30.8462 33.2275 30.8423 33.2062 30.8383 33.1847C30.8359 33.1717 30.8335 33.1585 30.8307 33.1453L30.8287 33.1433C30.4042 32.7608 30.0596 32.243 29.7134 31.7229C29.5477 31.4739 29.3817 31.2244 29.2063 30.9889C28.4538 29.9784 29.2568 29.1184 29.831 29.35C29.9489 29.3976 30.2914 29.6074 30.7566 29.9127C32.0844 30.784 34.4348 32.4228 35.5725 33.2196L35.9003 32.8918L35.9229 30.8858C35.9244 30.8163 35.953 30.7483 36.0034 30.6983L37.3805 29.3294L37.4258 25.3918C37.4266 25.2446 37.5457 25.1264 37.6917 25.1258C37.7658 25.1245 37.8298 25.1525 37.8772 25.2Z" fill="#333333"/>
</svg>
