<svg width="48" height="48" viewBox="0 0 48 48" fill="none" xmlns="http://www.w3.org/2000/svg">
<path d="M22 40C22 38.8954 22.8954 38 24 38C25.1046 38 26 38.8954 26 40C26 41.1046 25.1046 42 24 42C22.8954 42 22 41.1046 22 40Z" fill="#333333"/>
<path fill-rule="evenodd" clip-rule="evenodd" d="M48 0H0V48H48V0ZM11 6C10.4477 6 10 5.55228 10 5C10 4.44771 10.4477 4 11 4H23C23.5523 4 24 4.44772 24 5C24 4.44771 24.4477 4 25 4H37C37.5523 4 38 4.44772 38 5C38 5.55228 37.5523 6 37 6H25V36.126C26.7252 36.5701 28 38.1362 28 40C28 42.2091 26.2091 44 24 44C21.7909 44 20 42.2091 20 40C20 38.1362 21.2748 36.5701 23 36.126V6H11Z" fill="#333333"/>
</svg>
