<?xml version="1.0" encoding="UTF-8" standalone="no"?>
<!-- Created with Inkscape (http://www.inkscape.org/) -->
<svg id="svg8" xmlns:rdf="http://www.w3.org/1999/02/22-rdf-syntax-ns#" xmlns="http://www.w3.org/2000/svg" xmlns:osb="http://www.openswatchbook.org/uri/2009/osb" height="48" width="48" version="1.1" xmlns:cc="http://creativecommons.org/ns#" viewBox="0 0 12.7 12.7" xmlns:dc="http://purl.org/dc/elements/1.1/">
 <title id="title4753">UIO-icon</title>
 <metadata id="metadata5">
  <rdf:RDF>
   <cc:Work rdf:about="">
    <dc:format>image/svg+xml</dc:format>
    <dc:type rdf:resource="http://purl.org/dc/dcmitype/StillImage"/>
    <dc:title>UIO-icon</dc:title>
    <dc:creator>
     <cc:Agent>
      <dc:title>Joaquín Urbano</dc:title>
     </cc:Agent>
    </dc:creator>
    <dc:rights>
     <cc:Agent>
      <dc:title>GPL</dc:title>
     </cc:Agent>
    </dc:rights>
   </cc:Work>
  </rdf:RDF>
 </metadata>
 <g id="layer1" transform="translate(0,-284.3)" fill="#333">
  <path id="rect900" d="m7.9414 4.3633c-0.45295 0-0.81836 0.36541-0.81836 0.81836 0 0.4529 0.3655 0.8183 0.8184 0.8183h15.424v32.043c-0.70005 0.31936-1.1496 1.0177-1.1504 1.7871-0.0000862 1.0863 0.88053 1.9669 1.9668 1.9668 0.91335-0.00162 1.7054-0.63184 1.9121-1.5215 1.9567 0.31294 2.3656 0.57425 3.3203 2.6387 0.15462 0.25465 0.37861 0.43812 0.76134 0.25276 1.665-1.1101 1.5679-0.45887 2.9821 0.83318h0.65778c-1.615-1.5177-1.9128-2.4953-3.3725-1.5923-0.62127 0.38248-0.57826 0.27426-0.70538 0.014611-0.902-1.854-1.546-2.237-3.592-2.662-0.027-0.743-0.47-1.407-1.145-1.717v-32.043h15.424c0.45295 0 0.81836-0.36541 0.81836-0.81836s-0.36541-0.81836-0.81836-0.81836h-17.059zm-0.0019531 0.51367h32.488c0.16679 0 0.30273 0.13594 0.30273 0.30273s-0.13594 0.30078-0.30273 0.30078h-15.943v33.039c0.54101 0.1245 0.95036 0.56796 1.0312 1.1172l-0.66211-0.13086c-0.12857-0.24931-0.38551-0.40604-0.66602-0.40625-0.41421-1e-8 -0.75 0.33579-0.75 0.75-1e-8 0.41421 0.33579 0.75 0.75 0.75 0.33973-0.00001669 0.63702-0.22839 0.72461-0.55664l0.574 0.113c-0.14955 0.59916-0.68714 1.0201-1.3047 1.0215-0.74423-0.00014695-1.3475-0.60343-1.3477-1.3477 0.00084884-0.62852 0.43597-1.173 1.0488-1.3125v-33.036h-15.942c-0.16679 0-0.30078-0.13399-0.30078-0.30078s0.13399-0.30273 0.30078-0.30273z" fill-rule="evenodd" transform="matrix(.26458 0 0 .26458 0 284.3)"/>
 </g>
</svg>
