<svg width="48" height="48" viewBox="0 0 48 48" fill="none" xmlns="http://www.w3.org/2000/svg">
<path fill-rule="evenodd" clip-rule="evenodd" d="M23.8547 4.2085C22.9467 4.2085 22.2153 4.93994 22.2153 5.84791V9.71167C21.7088 10.0339 21.3132 10.4961 21.0795 11.0389H11.7073C11.5908 10.7297 11.3793 10.4627 11.1016 10.2741C10.8239 10.0855 10.4932 9.98441 10.1545 9.98447C9.81615 9.98493 9.48611 10.0863 9.2089 10.2748C8.93169 10.4634 8.72064 10.7301 8.60424 11.0389H5.23362C4.62831 11.0389 4.14242 11.5248 4.14242 12.1301C4.14242 12.7354 4.62831 13.2239 5.23362 13.2239H9.48559L4.48867 24.4873H5.21788L10.1833 13.3L15.0596 24.4873H15.7888L10.8758 13.2239H21.0454C21.2731 13.8022 21.6825 14.296 22.2153 14.6351V40.8106C22.2153 40.8274 22.2252 40.8412 22.2258 40.8578L12.2267 40.863C12.2319 41.7462 13.4311 42.5927 15.5609 43.2163C17.6906 43.84 20.5766 44.1899 23.5845 44.1891C26.5919 44.1883 29.4752 43.8369 31.6009 43.2123C33.7266 42.5877 34.9209 41.7408 34.9214 40.8578H25.4836C25.4841 40.8411 25.4941 40.8274 25.4941 40.8106V14.664C26.0465 14.3235 26.4707 13.8183 26.7033 13.2239H36.3457L31.3487 24.4873H32.0779L37.0434 13.3L41.9197 24.4873H42.6489L37.7359 13.2239H42.6567C43.262 13.2239 43.7479 12.7354 43.7479 12.1301C43.7479 11.5248 43.262 11.0389 42.6567 11.0389H38.5831C38.4667 10.7301 38.2557 10.4634 37.9785 10.2748C37.7013 10.0863 37.3712 9.98492 37.0329 9.98446C36.6946 9.98492 36.3645 10.0863 36.0873 10.2748C35.8101 10.4634 35.5991 10.7301 35.4827 11.0389H26.6692C26.4291 10.4822 26.0189 10.0106 25.4941 9.68805V5.84791C25.4941 4.93994 24.7626 4.2085 23.8547 4.2085ZM23.8757 10.1707C24.1463 10.1708 24.4142 10.2227 24.6641 10.3234C24.914 10.4242 25.1411 10.5718 25.3323 10.758C25.5235 10.9441 25.6751 11.165 25.7785 11.4081C25.8819 11.6512 25.935 11.9117 25.9348 12.1747C25.9345 12.7055 25.7175 13.2145 25.3313 13.5898C24.9452 13.9651 24.4217 14.176 23.8757 14.1761C23.3297 14.176 22.8061 13.9651 22.42 13.5898C22.0339 13.2145 21.8169 12.7055 21.8166 12.1747C21.8164 11.9117 21.8695 11.6512 21.9729 11.4081C22.0762 11.165 22.2279 10.9441 22.4191 10.758C22.6103 10.5718 22.8374 10.4242 23.0873 10.3234C23.3372 10.2227 23.6051 10.1708 23.8757 10.1707ZM4.05324 25.0067C4.05068 25.9399 4.33203 26.8572 4.86895 27.6663C5.40588 28.4754 6.17943 29.1476 7.11172 29.6154C8.0441 30.0833 9.10235 30.3301 10.1799 30.331C11.2574 30.3319 12.3162 30.0869 13.2497 29.6206C14.1826 29.1547 14.9574 28.4841 15.4961 27.6765C16.0349 26.8688 16.3186 25.9525 16.3187 25.0198H10.1859L4.05324 25.0067ZM30.9133 25.0067C30.9108 25.9399 31.1921 26.8572 31.7291 27.6663C32.266 28.4754 33.0395 29.1476 33.9718 29.6154C34.9042 30.0833 35.9625 30.3301 37.04 30.331C38.1175 30.3319 39.1763 30.0869 40.1098 29.6206C41.0427 29.1547 41.8175 28.4841 42.3562 27.6765C42.895 26.8688 43.1787 25.9525 43.1788 25.0198H37.0461L30.9133 25.0067Z" fill="#333333"/>
</svg>
