<svg width="48" height="48" viewBox="0 0 48 48" fill="none" xmlns="http://www.w3.org/2000/svg">
<path fill-rule="evenodd" clip-rule="evenodd" d="M25.0002 6H23.0002V10.1707C21.9626 10.5375 21.187 11.4589 21.0296 12.5787L13.7411 14.5342C13.5154 14.5947 13.3181 14.7324 13.1833 14.9233L7.3284 23.2178H6.12012C6.12012 23.9084 6.20216 24.5785 6.3564 25.2178C6.38719 25.3454 6.42084 25.4717 6.4573 25.5967C7.40689 28.8533 10.2546 31.2178 13.6201 31.2178C17.1148 31.2178 20.0514 28.6676 20.884 25.2171C21.0379 24.579 21.1199 23.91 21.1201 23.2207L21.1201 23.2178H20.1852L15.586 16.1099L21.4269 14.5429C21.7831 15.1357 22.3384 15.5953 23.0003 15.8293V38H20.0003V40H14.0003V42H34.0003V40H28.0003V38H25.0003V15.8293C26.1513 15.4224 26.98 14.3331 26.9999 13.0474L32.1395 11.6687L28.4742 17L27.0003 17C27.0003 17.6904 27.0823 18.3603 27.2364 18.9993C28.069 22.4498 31.0056 25 34.5003 25C37.8658 25 40.7135 22.6355 41.6631 19.379C41.6996 19.2539 41.7332 19.1276 41.764 19C41.9028 18.4247 41.9832 17.8243 41.9978 17.2065C41.9994 17.1388 42.0003 17.071 42.0003 17.0029V17H40.0545L35.3602 9.48913C35.1469 9.12964 34.7229 8.93295 34.299 9.02044C34.2796 9.02443 34.2604 9.02898 34.2411 9.03416L26.3608 11.1484C26.0126 10.705 25.5422 10.3622 25.0002 10.1707V6ZM30.9013 17H37.696L34.4604 11.8231L30.9013 17ZM17.803 23.2178L13.9642 17.2851L9.77647 23.2178H17.803Z" fill="#333333"/>
</svg>
