<svg width="48" height="48" viewBox="0 0 48 48" fill="none" xmlns="http://www.w3.org/2000/svg">
<path d="M0 0V48H48V0H0ZM23.8555 4.20898C24.7634 4.20898 25.4941 4.9397 25.4941 5.84766V9.6875C26.0189 10.0101 26.4298 10.4824 26.6699 11.0391H35.4824C35.5988 10.7303 35.8107 10.4639 36.0879 10.2754C36.3651 10.0868 36.6949 9.98483 37.0332 9.98438C37.3715 9.98483 37.7013 10.0868 37.9785 10.2754C38.2557 10.4639 38.4676 10.7303 38.584 11.0391H42.6562C43.2616 11.0391 43.748 11.5256 43.748 12.1309C43.748 12.7362 43.2616 13.2246 42.6562 13.2246H37.7363L42.6484 24.4883H41.9199L37.043 13.3008L32.0781 24.4883H31.3496L36.3457 13.2246H26.7031C26.4705 13.8189 26.0465 14.3236 25.4941 14.6641V40.8105C25.4941 40.8273 25.4849 40.8407 25.4844 40.8574H34.9219C34.9214 41.7404 33.7273 42.5883 31.6016 43.2129C29.4759 43.8376 26.5914 44.1887 23.584 44.1895C20.5761 44.1903 17.6902 43.8404 15.5605 43.2168C13.4307 42.5931 12.2318 41.7464 12.2266 40.8633L22.2266 40.8574C22.226 40.8407 22.2148 40.8273 22.2148 40.8105V14.6348C21.682 14.2956 21.2726 13.8028 21.0449 13.2246H10.875L15.7891 24.4883H15.0605L10.1836 13.3008L5.21875 24.4883H4.48828L9.48633 13.2246H5.23438C4.62907 13.2246 4.14258 12.7363 4.14258 12.1309C4.14258 11.5256 4.62907 11.0391 5.23438 11.0391H8.60352C8.71992 10.7302 8.93177 10.4639 9.20898 10.2754C9.48619 10.0868 9.81595 9.98483 10.1543 9.98438C10.493 9.98431 10.8239 10.0848 11.1016 10.2734C11.3793 10.462 11.5905 10.7298 11.707 11.0391H21.0801C21.3138 10.4963 21.7083 10.0331 22.2148 9.71094V5.84766C22.2148 4.9397 22.9475 4.20898 23.8555 4.20898ZM23.875 10.1699C23.6044 10.17 23.3378 10.2234 23.0879 10.3242C22.838 10.4249 22.6111 10.5717 22.4199 10.7578C22.2287 10.9439 22.076 11.1651 21.9727 11.4082C21.8693 11.6513 21.8162 11.9108 21.8164 12.1738C21.8167 12.7046 22.0338 13.2145 22.4199 13.5898C22.806 13.9651 23.329 14.1757 23.875 14.1758C24.421 14.1757 24.9459 13.9651 25.332 13.5898C25.7182 13.2145 25.9352 12.7046 25.9355 12.1738C25.9357 11.9108 25.8827 11.6513 25.7793 11.4082C25.6759 11.1651 25.5232 10.9439 25.332 10.7578C25.1408 10.5717 24.914 10.4249 24.6641 10.3242C24.4142 10.2234 24.1456 10.17 23.875 10.1699ZM4.05273 25.0059L10.1855 25.0195H16.3184C16.3183 25.9523 16.0349 26.8682 15.4961 27.6758C14.9574 28.4835 14.1829 29.1552 13.25 29.6211C12.3165 30.0874 11.2572 30.333 10.1797 30.332C9.10214 30.3311 8.04371 30.0831 7.11133 29.6152C6.17904 29.1475 5.40607 28.4751 4.86914 27.666C4.33222 26.857 4.05017 25.9391 4.05273 25.0059ZM30.9141 25.0059L37.0469 25.0195H43.1797C43.1796 25.9523 42.8943 26.8682 42.3555 27.6758C41.8168 28.4835 41.0423 29.1552 40.1094 29.6211C39.1759 30.0874 38.1166 30.333 37.0391 30.332C35.9616 30.3311 34.9051 30.0831 33.9727 29.6152C33.0404 29.1475 32.2654 28.4751 31.7285 27.666C31.1915 26.857 30.9116 25.9391 30.9141 25.0059Z" fill="#333333"/>
</svg>
