<svg width="48" height="48" viewBox="0 0 48 48" fill="none" xmlns="http://www.w3.org/2000/svg">
<path d="M21.687 4.00635C18.1033 4.00548 15.1971 6.91101 15.1968 10.4947C15.1959 14.0793 18.1024 16.9838 21.687 16.983C25.2706 16.9826 28.176 14.0784 28.1753 10.4947C28.1748 6.91199 25.2697 4.00673 21.687 4.00635ZM19.4524 19.3411C15.5852 19.3411 14.7794 21.1251 13.257 23.0559C10.6767 26.6941 8.97743 28.9879 8.95929 31.4771C8.95026 32.7047 9.13807 33.8022 9.76985 35.2447C10.5251 36.8368 12.0089 39.9079 15.8265 43.5218C17.8727 45.064 22.9782 41.0434 18.9312 36.9984C18.3383 36.4249 17.826 35.8584 16.9959 35.2455C17.3687 35.2279 17.8406 34.9189 17.0799 32.9564L16.1991 30.6575C15.9069 29.4804 16.7271 28.4749 17.7252 28.1507C18.8434 27.7875 20.1848 28.2119 20.4354 28.8646C21.9215 32.9669 25.5086 36.7131 28.7129 36.0438C28.7129 36.0438 27.8608 36.775 26.6423 37.8968C23.667 40.6361 26.8876 45.8588 30.3396 42.969C34.6634 38.714 36.7062 36.7339 37.7732 35.5354C39.0121 34.2965 39.0114 33.0589 39.0407 31.8264C39.0999 29.3411 35.7213 25.3902 32.8181 21.9066C30.6756 19.3404 30.8184 18.1371 26.6227 18.1918C25.3838 18.1918 22.1417 19.2048 19.4526 19.3408L19.4524 19.3411ZM28.3396 25.1657C31.1668 25.1652 33.4589 27.4634 33.4586 30.2987C33.4588 33.1338 31.1667 35.432 28.3396 35.4316C25.5123 35.4322 23.2202 33.1339 23.2206 30.2987C23.2204 27.4636 25.5125 25.1653 28.3396 25.1657Z" fill="#333333"/>
</svg>
