<?xml version="1.0" encoding="UTF-8" standalone="no"?>
<!-- Created with Inkscape (http://www.inkscape.org/) -->
<svg id="svg8" xmlns:rdf="http://www.w3.org/1999/02/22-rdf-syntax-ns#" xmlns="http://www.w3.org/2000/svg" xmlns:osb="http://www.openswatchbook.org/uri/2009/osb" height="48" width="48" version="1.1" xmlns:cc="http://creativecommons.org/ns#" viewBox="0 0 12.7 12.7" xmlns:dc="http://purl.org/dc/elements/1.1/">
 <title id="title4753">UIO-icon</title>
 <metadata id="metadata5">
  <rdf:RDF>
   <cc:Work rdf:about="">
    <dc:format>image/svg+xml</dc:format>
    <dc:type rdf:resource="http://purl.org/dc/dcmitype/StillImage"/>
    <dc:title>UIO-icon</dc:title>
    <dc:creator>
     <cc:Agent>
      <dc:title>Joaquín Urbano</dc:title>
     </cc:Agent>
    </dc:creator>
    <dc:rights>
     <cc:Agent>
      <dc:title>GPL</dc:title>
     </cc:Agent>
    </dc:rights>
   </cc:Work>
  </rdf:RDF>
 </metadata>
 <g id="layer1" transform="translate(0,-284.3)">
  <path id="rect5822" d="m2.7297 285.36c-0.14552 0-0.26267 0.11716-0.26268 0.26268v10.061c0.000002103 0.14552 0.11716 0.26262 0.26268 0.26262h7.2406c0.14552 0 0.26268-0.1171 0.26268-0.26262v-10.06c-0.00000211-0.14552-0.11716-0.26268-0.26268-0.26268zm0.17149 0.19419 6.8939 0.00461c0.23466 0.000157 0.26852 0.06162 0.26852 0.29484v9.5986c0 0.21991 0.021371 0.32709-0.25647 0.32668l-6.9121-0.010335c-0.26121-0.0003906-0.25854-0.092294-0.25854-0.31634v-9.5986c0-0.29946 0.034474-0.29946 0.26474-0.29946zm2.5993 0.94845c-0.61018 0-1.1014 0.49123-1.1014 1.1014v6.3305c0 0.61018 0.49124 1.1014 1.1014 1.1014h1.7599c0.61018 0 1.1014-0.49124 1.1014-1.1014v-6.3305c0-0.053308-0.0039955-0.10567-0.011219-0.15683 0.0082012 0.032489 0.029714 0.06193 0.06255 0.079173l1.4235 0.75055c0.059953 0.031543 0.13261 0.010725 0.16292-0.046684 0.030302-0.057514 0.006309-0.12917-0.053518-0.16076l-1.4235-0.74c-0.022469-0.011986-0.046736-0.016403-0.06991-0.0143-0.038577 0.00315-0.074032 0.024919-0.092968 0.060983-0.0098835 0.018821-0.013532 0.039219-0.012439 0.059196-0.085114-0.52435-0.53771-0.92225-1.0868-0.92225zm0.19767 0.42567h1.3646c0.61018 0 1.1014 0.49124 1.1014 1.1014v5.4791c0 0.61603-0.041051 1.3236-1.1014 1.3236h-1.3647c-1.0545 0-1.1014-0.7134-1.1014-1.3236v-5.4791c0-0.61019 0.49123-1.1014 1.1014-1.1014zm-1.4456 0.37607c-0.017633 0.0008832-0.035507 0.00526-0.052372 0.01451l-1.4234 0.75055c-0.059953 0.031543-0.083821 0.10336-0.053518 0.1608 0.030292 0.057514 0.10298 0.078227 0.16292 0.046684l1.4235-0.75055c0.059942-0.031543 0.083768-0.10336 0.053466-0.16079-0.018947-0.035854-0.054391-0.057514-0.092968-0.060983-0.0057829-0.0005573-0.011639-0.0006414-0.017517-0.0002734zm-0.036464 0.60375c-0.017643 0.0008833-0.035518 0.00526-0.052362 0.01451l-1.4235 0.75052c-0.059953 0.031543-0.083821 0.10336-0.053518 0.16083 0.030302 0.057514 0.10298 0.078227 0.16292 0.046684l1.4235-0.75056c0.059942-0.031543 0.083768-0.10336 0.053466-0.16076-0.018947-0.035959-0.054391-0.057514-0.092968-0.060878-0.0057829-0.0005467-0.011639-0.0006309-0.017517-0.0002839zm4.2906 0c-0.0058881-0.0002523-0.011734-0.0001682-0.017517 0.0002839-0.038577 0.00315-0.074032 0.025024-0.092968 0.060983-0.030302 0.057409-0.0064138 0.12917 0.053466 0.16078l1.4234 0.75058c0.059942 0.031543 0.13261 0.010725 0.16292-0.046684 0.030292-0.057514 0.006309-0.12922-0.053518-0.16082l-1.4234-0.75053c-0.016855-0.00946-0.034729-0.013669-0.052362-0.01451zm-2.1931 0.065294c-0.39944-6e-7 -0.72326 0.32381-0.72326 0.72325-2.5e-8 0.39945 0.32382 0.72326 0.72326 0.72326 0.39945 0 0.72326-0.32382 0.72326-0.72326-0.00000583-0.39944-0.32382-0.72325-0.72326-0.72325zm-2.0975 0.53835c-0.017643 0.0008832-0.035518 0.00526-0.052362 0.01451l-1.4235 0.75056c-0.059953 0.031543-0.083821 0.10336-0.053518 0.16081 0.030302 0.057409 0.10298 0.078227 0.16292 0.046684l1.4235-0.75055c0.059942-0.031543 0.083768-0.10336 0.053466-0.16084-0.018947-0.035959-0.054391-0.057514-0.092968-0.060878-0.0057829-0.0005678-0.011639-0.0006414-0.017517-0.0003785zm4.2906 0c-0.0058881-0.0002734-0.011734-0.0001682-0.017517 0.000368-0.038577 0.00315-0.074032 0.024919-0.092968 0.060878-0.030302 0.057409-0.0064138 0.12922 0.053466 0.16085l1.4234 0.75057c0.059942 0.031543 0.13261 0.010725 0.16292-0.046684 0.030292-0.057514 0.006309-0.12917-0.053518-0.16079l-1.4234-0.75057c-0.016855-0.00946-0.034729-0.013669-0.052362-0.01451zm-4.2906 0.60377c-0.017643 0.0008832-0.035518 0.00526-0.052362 0.01451l-1.4235 0.75055c-0.059953 0.031543-0.083821 0.10336-0.053518 0.16078 0.030302 0.057514 0.10298 0.078227 0.16292 0.046684l1.4235-0.75056c0.059942-0.031543 0.083768-0.10336 0.053466-0.16079-0.018947-0.035959-0.054391-0.057514-0.092968-0.060983-0.0057829-0.0005678-0.011639-0.0006624-0.017517-0.0002944zm4.2906 0c-0.0058881-0.0002839-0.011734-0.0002839-0.017517 0.0002629-0.038577 0.00315-0.074032 0.025129-0.092968 0.060983-0.030302 0.057409-0.0064138 0.12917 0.053466 0.16078l1.4234 0.75056c0.059942 0.031543 0.13261 0.010725 0.16292-0.046684 0.030292-0.057514 0.006309-0.12918-0.053518-0.16079l-1.4234-0.75055c-0.016855-0.00946-0.034729-0.013669-0.052362-0.01451zm-4.2906 0.60373c-0.017643 0.0008937-0.035518 0.00526-0.052362 0.01451l-1.4235 0.75c-0.059953 0.031543-0.083821 0.10325-0.053518 0.16084 0.030302 0.057409 0.10298 0.078227 0.16292 0.046684l1.4235-0.75057c0.059942-0.031543 0.083768-0.10336 0.053466-0.16079-0.018947-0.035959-0.054391-0.057409-0.092968-0.060878-0.0057829-0.0005468-0.011639-0.0006414-0.017517-0.0002734zm4.2906 0c-0.0058881-0.0002734-0.011734-0.0001788-0.017517 0.0002944-0.038577 0.00315-0.074032 0.024919-0.092968 0.060983-0.030302 0.057514-0.0064138 0.12916 0.053466 0.16079l1.4234 0.75057c0.059942 0.031543 0.13261 0.010725 0.16292-0.046684 0.030292-0.057514 0.006309-0.12923-0.053518-0.16084l-1.4234-0.75052c-0.016855-0.00946-0.034729-0.013669-0.052362-0.01451zm-4.2906 0.6037c-0.017643 0.0008832-0.035518 0.00526-0.052362 0.01451l-1.4235 0.75058c-0.059942 0.031543-0.083768 0.10325-0.053466 0.16078 0.030292 0.057514 0.10294 0.078227 0.16287 0.046684l1.4235-0.75058c0.059942-0.031543 0.083768-0.10336 0.053466-0.16082-0.018947-0.035854-0.054391-0.057514-0.092968-0.060878-0.0057829-0.0005468-0.01165-0.0006309-0.017517-0.0003575zm4.2906 0c-0.0058881-0.0002734-0.011734-0.0001788-0.017517 0.000368-0.038577 0.00315-0.074032 0.025024-0.092968 0.060878-0.030302 0.057514-0.0064138 0.12922 0.053466 0.16082l1.4235 0.75058c0.059942 0.031543 0.13256 0.010725 0.16287-0.046684 0.030292-0.057514 0.006414-0.12918-0.053466-0.16076l-1.4235-0.7506c-0.016855-0.00946-0.034729-0.013669-0.052362-0.01451zm-4.2906 0.60375c-0.017643 0.0008832-0.035518 0.00526-0.052362 0.01451l-1.4235 0.75058c-0.059953 0.031543-0.083821 0.10336-0.053518 0.16078 0.030302 0.057514 0.10294 0.078227 0.16287 0.046684l1.4235-0.75057c0.059942-0.031543 0.083768-0.10336 0.053466-0.16079-0.018947-0.035959-0.054391-0.057514-0.092968-0.060983-0.0057829-0.0005468-0.011639-0.0006414-0.017517-0.0002839zm4.2906 0c-0.0058881-0.0002734-0.011734-0.0001788-0.017517 0.0002839-0.038577 0.00315-0.074032 0.025024-0.092968 0.060878-0.030302 0.057514-0.0064138 0.12917 0.053466 0.16078l1.4235 0.75058c0.059942 0.031543 0.13256 0.010725 0.16287-0.046684 0.030292-0.057514 0.006309-0.12917-0.053518-0.16078l-1.4236-0.74c-0.016855-0.00946-0.034729-0.013669-0.052362-0.01451zm-4.2906 0.60376c-0.017643 0.0008832-0.035518 0.00526-0.052362 0.01451l-1.4235 0.75053c-0.059953 0.031543-0.083821 0.10325-0.053518 0.16082 0.030302 0.057409 0.10298 0.078227 0.16292 0.046684l1.4235-0.75056c0.059942-0.031543 0.083768-0.10336 0.053466-0.16079-0.018947-0.035959-0.054391-0.057409-0.092968-0.060983-0.0057829-0.0005468-0.011639-0.0006204-0.017517-0.0002524zm4.2906 0c-0.0058881-0.0002839-0.011734-0.0001893-0.017517 0.0002733-0.038577 0.00315-0.074032 0.025024-0.092968 0.060983-0.030302 0.057514-0.0064138 0.12917 0.053466 0.16078l1.4234 0.75058c0.059942 0.031543 0.13261 0.010725 0.16292-0.046684 0.030292-0.057409 0.006309-0.12922-0.053518-0.16082l-1.4234-0.75053c-0.016855-0.00946-0.034729-0.013669-0.052362-0.01451zm-4.2906 0.6037c-0.017643 0.0008727-0.035518 0.00526-0.052362 0.01451l-1.4235 0.75057c-0.059953 0.031543-0.083821 0.10336-0.053518 0.16078 0.030302 0.057514 0.10298 0.078227 0.16292 0.046684l1.4235-0.75057c0.059942-0.031543 0.083768-0.10336 0.053466-0.16082-0.018947-0.035959-0.054391-0.057409-0.092968-0.060878-0.0057829-0.0005573-0.011639-0.0006414-0.017517-0.0003786zm4.2906 0c-0.0058881-0.0002839-0.011734-0.0001788-0.017517 0.0003575-0.038577 0.00315-0.074032 0.025024-0.092968 0.060878-0.030302 0.057514-0.0064138 0.12923 0.053466 0.16084l1.4234 0.75056c0.059942 0.031543 0.13261 0.010725 0.16292-0.046684 0.030292-0.057409 0.006309-0.12918-0.053518-0.16078l-1.4234-0.75056c-0.016855-0.00946-0.034729-0.013669-0.052362-0.01451zm-4.2906 0.60374c-0.017643 0.0008832-0.035518 0.00526-0.052362 0.01451l-1.4235 0.75058c-0.059953 0.031543-0.083821 0.10336-0.053518 0.16078 0.030302 0.057514 0.10298 0.078227 0.16292 0.046684l1.4235-0.75056c0.059942-0.031543 0.083768-0.10325 0.053466-0.16079-0.018947-0.035959-0.054391-0.057409-0.092968-0.060983-0.0057829-0.0005468-0.011639-0.0006414-0.017517-0.0002629zm4.2906 0c-0.0058881-0.0002734-0.011734-0.0001893-0.017517 0.0002733-0.038577 0.00315-0.074032 0.025024-0.092968 0.060983-0.030302 0.057409-0.0064138 0.12917 0.053466 0.16078l1.4234 0.75056c0.059942 0.031543 0.13261 0.010725 0.16292-0.046684 0.030292-0.057514 0.006309-0.12917-0.053518-0.16076l-1.4234-0.75057c-0.016855-0.00946-0.034729-0.013669-0.052362-0.01451z" fill="#333"/>
 </g>
</svg>
