<svg width="48" height="48" viewBox="0 0 48 48" fill="none" xmlns="http://www.w3.org/2000/svg">
<path d="M10.317 4.00635C9.76703 4.00635 9.32426 4.44921 9.32422 4.99921V43.0251C9.32423 43.5751 9.76703 44.0176 10.317 44.0176H37.6831C38.2331 44.0176 38.6759 43.5751 38.6759 43.0251V5.00302C38.6759 4.45302 38.2331 4.01015 37.6831 4.01015L10.317 4.00635ZM10.9652 4.74038L37.0209 4.7578C37.9078 4.75839 38.0357 4.99066 38.0357 5.87212V42.1503C38.0357 42.9815 38.1165 43.3866 37.0664 43.385L10.9419 43.3459C9.95468 43.3445 9.96477 42.9971 9.96477 42.1503V5.87212C9.96477 4.7403 10.0951 4.74038 10.9654 4.74038H10.9652ZM20.7893 8.3251C18.4831 8.3251 16.6265 10.1816 16.6265 12.4878V36.4141C16.6265 38.7203 18.4832 40.5769 20.7893 40.5769H27.4409C29.7471 40.5769 31.6037 38.7202 31.6037 36.4141V12.4878C31.6037 12.2863 31.5886 12.0884 31.5613 11.8951C31.5923 12.0178 31.6736 12.1292 31.7977 12.1944L37.1778 15.0311C37.4044 15.1503 37.679 15.0716 37.7936 14.8546C37.9081 14.6372 37.8174 14.3664 37.5913 14.247L32.2112 11.4502C32.1262 11.4049 32.0345 11.3881 31.9469 11.3961C31.8011 11.408 31.6671 11.4902 31.5956 11.6265C31.5582 11.6977 31.5444 11.7748 31.5485 11.8503C31.2269 9.8685 29.5163 8.36466 27.441 8.36466L20.7893 8.3251ZM21.5364 9.93389H26.6939C29.0001 9.93389 30.8567 11.7906 30.8567 14.0967V34.8051C30.8567 37.1334 30.7016 39.8076 26.6939 39.8076H21.536C17.5505 39.8076 17.3733 37.1114 17.3733 34.8051V14.0967C17.3733 11.7905 19.2299 9.93389 21.536 9.93389H21.5364ZM16.0727 11.3552C16.0061 11.3586 15.9385 11.3751 15.8748 11.41L10.495 14.2468C10.2684 14.366 10.1782 14.6375 10.2927 14.8546C10.4072 15.072 10.6819 15.1502 10.9085 15.031L16.2886 12.1942C16.5152 12.075 16.6052 11.8036 16.4907 11.5865C16.4191 11.451 16.2851 11.3692 16.1393 11.3561C16.1175 11.354 16.0954 11.3536 16.0731 11.355L16.0727 11.3552ZM15.9349 13.6372C15.8682 13.6405 15.8007 13.657 15.737 13.692L10.3568 16.5286C10.1302 16.6478 10.04 16.9192 10.1546 17.1364C10.2691 17.3538 10.5438 17.4321 10.7703 17.3129L16.1505 14.4762C16.377 14.357 16.4671 14.0855 16.3526 13.8686C16.2809 13.7326 16.147 13.6512 16.0012 13.6384C15.9793 13.6364 15.9572 13.6361 15.935 13.6374L15.9349 13.6372ZM32.1513 13.6372C32.1291 13.6362 32.107 13.6365 32.0851 13.6382C31.9393 13.6501 31.8053 13.7328 31.7338 13.8687C31.6192 14.0856 31.7095 14.3569 31.9358 14.4764L37.3156 17.3132C37.5422 17.4325 37.8168 17.3537 37.9314 17.1368C38.0459 16.9194 37.9552 16.6483 37.7291 16.5289L32.3493 13.6923C32.2856 13.6566 32.2181 13.6406 32.1514 13.6374L32.1513 13.6372ZM23.8625 13.8839C22.3528 13.8839 21.1289 15.1078 21.1289 16.6175C21.1289 18.1272 22.3528 19.351 23.8625 19.351C25.3722 19.351 26.596 18.1272 26.596 16.6175C26.596 15.1078 25.3722 13.8839 23.8625 13.8839ZM15.9349 15.9186C15.8682 15.922 15.8007 15.9385 15.737 15.9734L10.3568 18.8103C10.1302 18.9295 10.04 19.2009 10.1546 19.418C10.2691 19.635 10.5438 19.7137 10.7703 19.5945L16.1505 16.7578C16.377 16.6385 16.4671 16.367 16.3526 16.1498C16.2809 16.0139 16.147 15.9325 16.0012 15.9198C15.9793 15.9176 15.9572 15.9173 15.935 15.9183L15.9349 15.9186ZM32.1513 15.9186C32.1291 15.9176 32.107 15.918 32.0851 15.92C31.9393 15.9319 31.8053 16.0142 31.7338 16.1501C31.6192 16.3671 31.7095 16.6384 31.9358 16.758L37.3156 19.5948C37.5422 19.714 37.8168 19.6353 37.9314 19.4184C38.0459 19.201 37.9552 18.9302 37.7291 18.8107L32.3493 15.9739C32.2856 15.9381 32.2181 15.9222 32.1514 15.919L32.1513 15.9186ZM15.9349 18.2006C15.8682 18.2039 15.8007 18.2205 15.737 18.2555L10.3568 21.0922C10.1302 21.2114 10.04 21.4828 10.1546 21.6998C10.2691 21.9172 10.5438 21.9955 10.7703 21.8763L16.1505 19.0395C16.377 18.9202 16.4671 18.6489 16.3526 18.4318C16.2809 18.2959 16.147 18.2144 16.0012 18.2013C15.9793 18.1991 15.9572 18.1988 15.935 18.2002L15.9349 18.2006ZM32.1513 18.2006C32.1291 18.1995 32.107 18.1995 32.0851 18.2016C31.9393 18.2135 31.8053 18.2965 31.7338 18.4321C31.6192 18.649 31.7095 18.9202 31.9358 19.0397L37.3156 21.8765C37.5422 21.9957 37.8168 21.917 37.9314 21.7C38.0459 21.4827 37.9552 21.2118 37.7291 21.0923L32.3493 18.2556C32.2856 18.2198 32.2181 18.204 32.1514 18.2008L32.1513 18.2006ZM15.9349 20.4824C15.8682 20.4858 15.8007 20.5023 15.737 20.5373L10.3568 23.3719C10.1302 23.4911 10.04 23.7621 10.1546 23.9798C10.2691 24.1968 10.5438 24.2755 10.7703 24.1563L16.1505 21.3194C16.377 21.2002 16.4671 20.9287 16.3526 20.7117C16.2809 20.5758 16.147 20.4947 16.0012 20.4816C15.9793 20.4795 15.9572 20.4793 15.935 20.4806L15.9349 20.4824ZM32.1513 20.4824C32.1291 20.4813 32.107 20.4817 32.0851 20.4835C31.9393 20.4954 31.8053 20.5777 31.7338 20.714C31.6192 20.9314 31.7095 21.2022 31.9358 21.3217L37.3156 24.1586C37.5422 24.2778 37.8168 24.1991 37.9314 23.9821C38.0459 23.7647 37.9552 23.4936 37.7291 23.3741L32.3493 20.5375C32.2856 20.5018 32.2181 20.4859 32.1514 20.4827L32.1513 20.4824ZM15.9349 22.7641C15.8682 22.7674 15.8007 22.784 15.737 22.819L10.3568 25.6558C10.1303 25.775 10.0402 26.046 10.1548 26.2634C10.2693 26.4808 10.5438 26.5591 10.7703 26.4399L16.1505 23.6031C16.377 23.4839 16.4671 23.2124 16.3526 22.9952C16.281 22.8597 16.147 22.7778 16.0012 22.7651C15.9793 22.763 15.9572 22.7628 15.935 22.7638L15.9349 22.7641ZM32.1513 22.7641C32.1291 22.763 32.107 22.7634 32.0851 22.7655C31.9393 22.7774 31.8053 22.8601 31.7338 22.9956C31.6192 23.2129 31.7095 23.484 31.9358 23.6034L37.316 26.4403C37.5425 26.5595 37.817 26.4808 37.9316 26.2638C38.0461 26.0464 37.9558 25.7755 37.7295 25.6562L32.3493 22.8193C32.2856 22.7836 32.2181 22.7676 32.1514 22.7644L32.1513 22.7641ZM15.9349 25.046C15.8682 25.0493 15.8007 25.0658 15.737 25.1008L10.3568 27.9376C10.1302 28.0568 10.04 28.3283 10.1546 28.5454C10.2691 28.7627 10.5436 28.8411 10.7701 28.7218L16.1503 25.885C16.3768 25.7658 16.4669 25.4943 16.3524 25.2773C16.2808 25.1414 16.1468 25.0599 16.001 25.0468C15.9791 25.0447 15.957 25.0444 15.9348 25.0458L15.9349 25.046ZM32.1513 25.046C32.1291 25.045 32.107 25.0453 32.0851 25.047C31.9393 25.0589 31.8053 25.1416 31.7338 25.2771C31.6192 25.4945 31.7095 25.7653 31.9358 25.8848L37.316 28.7216C37.5425 28.8408 37.817 28.7622 37.9316 28.5452C38.0461 28.3279 37.9554 28.057 37.7293 27.9375L32.3488 25.1407C32.2851 25.1049 32.2175 25.0891 32.1509 25.0859L32.1513 25.046ZM15.9349 27.3279C15.8682 27.3313 15.8007 27.3478 15.737 27.3827L10.3568 30.2194C10.1302 30.3387 10.04 30.6096 10.1546 30.8272C10.2691 31.0442 10.5438 31.1229 10.7703 31.0036L16.1505 28.1669C16.377 28.0477 16.4671 27.7762 16.3526 27.5592C16.2809 27.4233 16.147 27.3422 16.0012 27.3287C15.9793 27.3267 15.9572 27.3264 15.935 27.3278L15.9349 27.3279ZM32.1513 27.3279C32.1291 27.3269 32.107 27.3272 32.0851 27.329C31.9393 27.3409 31.8053 27.4235 31.7338 27.5594C31.6192 27.7768 31.7095 28.0477 31.9358 28.1672L37.3156 31.004C37.5422 31.1232 37.8168 31.0445 37.9314 30.8275C38.0459 30.6105 37.9552 30.3391 37.7291 30.2197L32.3493 27.3831C32.2856 27.3473 32.2181 27.3313 32.1514 27.3282L32.1513 27.3279ZM15.9349 29.6096C15.8682 29.6129 15.8007 29.6295 15.737 29.6644L10.3568 32.5013C10.1302 32.6205 10.04 32.892 10.1546 33.109C10.2691 33.3264 10.5438 33.4046 10.7703 33.2853L16.1505 30.4486C16.377 30.3294 16.4671 30.0579 16.3526 29.8408C16.2809 29.7049 16.147 29.6238 16.0012 29.6107C15.9793 29.6086 15.9572 29.6083 15.935 29.6093L15.9349 29.6096ZM32.1513 29.6096C32.1291 29.6086 32.107 29.609 32.0851 29.611C31.9393 29.6229 31.8053 29.7056 31.7338 29.8411C31.6192 30.0585 31.7095 30.3295 31.9358 30.449L37.3156 33.2857C37.5422 33.4049 37.8168 33.3263 37.9314 33.1093C38.0459 32.8924 37.9552 32.621 37.7291 32.5016L32.3493 29.6649C32.2856 29.6291 32.2181 29.6131 32.1514 29.61L32.1513 29.6096ZM15.9349 31.8914C15.8682 31.8948 15.8007 31.9114 15.737 31.9463L10.3568 34.7832C10.1302 34.9024 10.04 35.1738 10.1546 35.3908C10.2691 35.6082 10.5438 35.6865 10.7703 35.5673L16.1505 32.7306C16.377 32.6113 16.4671 32.3403 16.3526 32.1228C16.2809 31.9869 16.147 31.9059 16.0012 31.8924C15.9793 31.8903 15.9572 31.8899 15.935 31.8913L15.9349 31.8914ZM32.1513 31.8914C32.1291 31.8904 32.107 31.8907 32.0851 31.8925C31.9393 31.9044 31.8053 31.9871 31.7338 32.123C31.6192 32.34 31.7095 32.6112 31.9358 32.7307L37.3156 35.5674C37.5422 35.6866 37.8168 35.608 37.9314 35.391C38.0459 35.1737 37.9552 34.9028 37.7291 34.7834L32.3493 31.9466C32.2856 31.9108 32.2181 31.895 32.1514 31.8918L32.1513 31.8914Z" fill="#333333"/>
</svg>
