<?xml version="1.0" encoding="UTF-8" standalone="no"?>
<!-- Created with Inkscape (http://www.inkscape.org/) -->
<svg id="svg8" xmlns:rdf="http://www.w3.org/1999/02/22-rdf-syntax-ns#" xmlns="http://www.w3.org/2000/svg" xmlns:osb="http://www.openswatchbook.org/uri/2009/osb" height="48" width="48" version="1.1" xmlns:cc="http://creativecommons.org/ns#" viewBox="0 0 12.7 12.7" xmlns:dc="http://purl.org/dc/elements/1.1/">
 <title id="title4753">UIO-icon</title>
 <metadata id="metadata5">
  <rdf:RDF>
   <cc:Work rdf:about="">
    <dc:format>image/svg+xml</dc:format>
    <dc:type rdf:resource="http://purl.org/dc/dcmitype/StillImage"/>
    <dc:title>UIO-icon</dc:title>
    <dc:creator>
     <cc:Agent>
      <dc:title>Joaquín Urbano</dc:title>
     </cc:Agent>
    </dc:creator>
    <dc:rights>
     <cc:Agent>
      <dc:title>GPL</dc:title>
     </cc:Agent>
    </dc:rights>
   </cc:Work>
  </rdf:RDF>
 </metadata>
 <g id="layer1" transform="translate(0,-284.3)">
  <path id="rect5822" d="m10.316 4c-0.5496 0-0.9918 0.4422-0.9918 0.9922v38.025c0.000007948 0.54999 0.44219 0.99219 0.99219 0.99219h27.367c0.55 0 0.99219-0.44219 0.99219-0.99219v-38.025c0.001-0.5498-0.441-0.992-0.991-0.992zm0.48242 0.51953h26.25c0.88692 0.00059339 1.1035 0.097067 1.1035 0.97852v37.014c0 0.83116-0.004566 0.9871-1.0547 0.98438l-26.178-0.068c-0.9869-0.002-0.9513-0.437-0.9542-1.283l-0.121-36.334c-0.0038-1.1323 0.0847-1.2915 0.9552-1.2915zm9.9902 3.7988c-2.3062 0-4.1621 1.8559-4.1621 4.1621v23.928c0 2.3062 1.8559 4.1621 4.1621 4.1621h6.6523c2.3062 0 4.1621-1.8559 4.1621-4.1621v-23.928c0-0.20148-0.015668-0.39842-0.042969-0.5918 0.007199-0.027334-0.007813-0.05599-0.011719-0.083984-0.32-1.9811-2.03-3.4856-4.106-3.4856zm6.8828 0.51953c1.9966-0.0013566 3.3825 2.0186 3.3828 3.5293l0.005859 23.906c0.0003132 1.3555-0.87729 3.7832-3.4375 3.7812l-6.9727-0.005859c-2.6261-0.002002-3.4962-2.5845-3.5039-3.7266l0.007813-23.936c0.00079601-2.4388 2.2311-3.5439 3.7246-3.5449zm-11.63 2.6132c-0.062891-0.019427-0.13229-0.015537-0.19531 0.017578l-5.0547 2.6562c-0.12604 0.066231-0.17415 0.21993-0.10742 0.3457 0.066726 0.12578 0.22162 0.17365 0.34766 0.10742l5.0547-2.6543c0.12604-0.066231 0.17415-0.22188 0.10742-0.34766-0.033363-0.062888-0.089452-0.10557-0.15234-0.125zm16.074 0c-0.062891 0.019427-0.11898 0.064065-0.15234 0.12695-0.066726 0.12578-0.018615 0.27947 0.10742 0.3457l5.0547 2.6562c0.12604 0.066231 0.28093 0.018354 0.34766-0.10742 0.066726-0.12578 0.018615-0.27947-0.10742-0.3457l-5.0547-2.6562c-0.063018-0.033116-0.13242-0.038958-0.19531-0.019531zm-16.213 2.2812c-0.062891-0.019427-0.13229-0.015537-0.19531 0.017578l-5.0547 2.6562c-0.12604 0.066231-0.17415 0.21993-0.10742 0.3457 0.066726 0.12578 0.22162 0.17365 0.34766 0.10742l5.0547-2.6543c0.12604-0.066231 0.17415-0.22188 0.10742-0.34766-0.033363-0.062888-0.089452-0.10557-0.15234-0.125zm16.213 0c-0.062891 0.019427-0.11898 0.062112-0.15234 0.125-0.066726 0.12578-0.018615 0.28143 0.10742 0.34766l5.0547 2.6562c0.12604 0.066231 0.28093 0.016401 0.34766-0.10938 0.066726-0.12578 0.018615-0.27947-0.10742-0.3457l-5.054-2.656c-0.063018-0.033116-0.13242-0.037005-0.19531-0.017578zm-8.2539 0.14453c-1.5097-0.00000226-2.7324 1.2247-2.7324 2.7344-9e-8 1.5097 1.2227 2.7324 2.7324 2.7324s2.7344-1.2227 2.7344-2.7324c-0.00002202-1.5097-1.2247-2.7344-2.7344-2.7344zm-0.017 0.498c1.2426 7e-8 2.25 1.0074 2.25 2.25-7e-8 1.2426-1.0074 2.25-2.25 2.25-1.2426-7e-8 -2.25-1.0074-2.25-2.25 7e-8 -1.2426 1.0074-2.25 2.25-2.25zm-7.9414 1.6387c-0.062891-0.019427-0.13229-0.015537-0.19531 0.017578l-5.0547 2.6562c-0.12604 0.066231-0.17415 0.21993-0.10742 0.3457 0.066726 0.12578 0.22162 0.17365 0.34766 0.10742l5.0547-2.6543c0.12604-0.066231 0.17415-0.22188 0.10742-0.34766-0.033363-0.062888-0.089452-0.10557-0.15234-0.125zm16.279 0c-0.062891 0.019427-0.11898 0.062112-0.15234 0.125-0.066726 0.12578-0.018615 0.28143 0.10742 0.34766l5.0547 2.6543c0.12604 0.066231 0.28093 0.018354 0.34766-0.10742 0.066726-0.12578 0.018615-0.27947-0.10742-0.3457l-5.0547-2.6562c-0.063018-0.033116-0.13242-0.037005-0.19531-0.017578zm-16.279 2.2812c-0.062891-0.019427-0.13229-0.015537-0.19531 0.017578l-5.0547 2.6562c-0.12604 0.066231-0.17415 0.21993-0.10742 0.3457 0.066726 0.12578 0.22162 0.17365 0.34766 0.10742l5.0547-2.6543c0.12604-0.066231 0.17415-0.22188 0.10742-0.34766-0.033363-0.062888-0.089452-0.10557-0.15234-0.125zm16.279 0c-0.062891 0.019427-0.11898 0.062112-0.15234 0.125-0.066726 0.12578-0.018615 0.28143 0.10742 0.34766l5.0547 2.6543c0.12604 0.066231 0.28093 0.018354 0.34766-0.10742 0.066726-0.12578 0.018615-0.27947-0.10742-0.3457l-5.0547-2.6562c-0.063018-0.033116-0.13242-0.037005-0.19531-0.017578zm-16.28 2.283c-0.062891-0.019427-0.13229-0.015537-0.19531 0.017578l-5.0547 2.6562c-0.12604 0.066231-0.17415 0.21993-0.10742 0.3457 0.066726 0.12578 0.22162 0.17365 0.34766 0.10742l5.0547-2.6543c0.12604-0.066231 0.17415-0.22188 0.10742-0.34766-0.033363-0.062888-0.089452-0.10557-0.15234-0.125zm16.213 0c-0.062891 0.019427-0.11898 0.062112-0.15234 0.125-0.066726 0.12578-0.018615 0.28143 0.10742 0.34766l5.055 2.654c0.12604 0.066231 0.28093 0.018354 0.34766-0.10742 0.066726-0.12578 0.018615-0.27947-0.10742-0.3457l-5.0547-2.6562c-0.063018-0.033116-0.13242-0.037005-0.19531-0.017578zm-16.213 2.2812c-0.062891-0.019427-0.13229-0.015537-0.19531 0.017578l-5.0547 2.6562c-0.12604 0.066231-0.17415 0.21993-0.10742 0.3457 0.066726 0.12578 0.22162 0.17365 0.34766 0.10742l5.0547-2.6543c0.12604-0.066231 0.17415-0.22188 0.10742-0.34766-0.033363-0.062888-0.089452-0.10557-0.15234-0.125zm16.279 0c-0.062891 0.019427-0.11898 0.062112-0.15234 0.125-0.066726 0.12578-0.018615 0.28143 0.10742 0.34766l5.0547 2.6562c0.12604 0.066231 0.28093 0.016401 0.34766-0.10938 0.066726-0.12578 0.018615-0.27947-0.10742-0.3457l-5.0547-2.6562c-0.063018-0.033116-0.13242-0.037005-0.19531-0.017578zm-16.279 2.2812c-0.062891-0.019427-0.13229-0.015537-0.19531 0.017578l-5.0547 2.6562c-0.12604 0.066231-0.17415 0.21993-0.10742 0.3457 0.066726 0.12578 0.22162 0.17365 0.34766 0.10742l5.0547-2.6543c0.12604-0.066231 0.17415-0.22188 0.10742-0.34766-0.033363-0.062888-0.089452-0.10557-0.15234-0.125zm16.279 0c-0.062891 0.019427-0.11898 0.062112-0.15234 0.125-0.066726 0.12578-0.018615 0.28143 0.10742 0.34766l5.0547 2.6543c0.12604 0.066231 0.28093 0.018354 0.34766-0.10742 0.066726-0.12578 0.018615-0.27947-0.10742-0.3457l-5.0547-2.6562c-0.063018-0.033116-0.13242-0.037005-0.19531-0.017578zm-16.277 2.2812c-0.062891-0.019427-0.13425-0.015537-0.19727 0.017578l-5.0527 2.6562c-0.12604 0.066231-0.17415 0.21993-0.10742 0.3457 0.066726 0.12578 0.22162 0.17365 0.34766 0.10742l5.0547-2.6543c0.12604-0.066231 0.17415-0.22188 0.10742-0.34766-0.033363-0.062888-0.089452-0.10557-0.15234-0.125zm16.211 0.001953c-0.062891 0.019427-0.11898 0.062112-0.15234 0.125-0.066726 0.12578-0.018615 0.28143 0.10742 0.34766l5.0547 2.6562c0.12604 0.066231 0.28093 0.016401 0.34766-0.10938 0.066726-0.12578 0.018615-0.27947-0.10742-0.3457l-5.0547-2.6562c-0.063018-0.033116-0.13242-0.037005-0.19531-0.017578zm-16.213 2.2812c-0.062891-0.019427-0.13229-0.015537-0.19531 0.017578l-5.0547 2.6562c-0.12604 0.066231-0.17415 0.21993-0.10742 0.3457 0.066726 0.12578 0.22162 0.17365 0.34766 0.10742l5.0547-2.6543c0.12604-0.066231 0.17415-0.22188 0.10742-0.34766-0.033363-0.062888-0.089452-0.10557-0.15234-0.125zm16.213 0c-0.062891 0.019427-0.11898 0.062112-0.15234 0.125-0.066726 0.12578-0.018615 0.28143 0.10742 0.34766l5.055 2.655c0.12604 0.066231 0.28093 0.018354 0.34766-0.10742 0.066726-0.12578 0.018615-0.27947-0.10742-0.3457l-5.0547-2.6562c-0.063018-0.033116-0.13242-0.037005-0.19531-0.017578zm-16.213 2.2812c-0.062891-0.019427-0.13229-0.015537-0.19531 0.017578l-5.0547 2.6562c-0.12604 0.066231-0.17415 0.21993-0.10742 0.3457 0.066726 0.12578 0.22162 0.17365 0.34766 0.10742l5.0547-2.6543c0.12604-0.066231 0.17415-0.22188 0.10742-0.34766-0.033363-0.062888-0.089452-0.10557-0.15234-0.125zm16.279 0c-0.062891 0.019427-0.11898 0.062112-0.15234 0.125-0.066726 0.12578-0.018615 0.28143 0.10742 0.34766l5.0547 2.6562c0.12604 0.066231 0.28093 0.016401 0.34766-0.10938 0.066726-0.12578 0.018615-0.27947-0.10742-0.3457l-5.0547-2.6562c-0.063018-0.033116-0.13242-0.037005-0.19531-0.017578z" transform="matrix(.26458 0 0 .26458 0 284.3)" fill="#333"/>
 </g>
</svg>
