<?xml version="1.0" encoding="UTF-8" standalone="no"?>
<!-- Created with Inkscape (http://www.inkscape.org/) -->
<svg id="svg8" xmlns:rdf="http://www.w3.org/1999/02/22-rdf-syntax-ns#" xmlns="http://www.w3.org/2000/svg" xmlns:osb="http://www.openswatchbook.org/uri/2009/osb" height="48" width="48" version="1.1" xmlns:cc="http://creativecommons.org/ns#" viewBox="0 0 12.7 12.7" xmlns:dc="http://purl.org/dc/elements/1.1/">
 <title id="title4753">UIO-icon</title>
 <metadata id="metadata5">
  <rdf:RDF>
   <cc:Work rdf:about="">
    <dc:format>image/svg+xml</dc:format>
    <dc:type rdf:resource="http://purl.org/dc/dcmitype/StillImage"/>
    <dc:title>UIO-icon</dc:title>
    <dc:creator>
     <cc:Agent>
      <dc:title>Joaquín Urbano</dc:title>
     </cc:Agent>
    </dc:creator>
    <dc:rights>
     <cc:Agent>
      <dc:title>GPL</dc:title>
     </cc:Agent>
    </dc:rights>
   </cc:Work>
  </rdf:RDF>
 </metadata>
 <g id="layer1" fill="#333" transform="translate(0,-284.3)">
  <path id="path35869" d="m25.215 3.9688c-0.084212 0.02948-0.23685 0.30495-0.44336 0.80273-0.27884 0.67205-0.30304 0.789-0.29688 1.4453 0.005782 0.61689-0.068116 0.95969-0.18359 0.84961-0.018289-0.017424-0.045327-0.35954-0.060547-0.75977-0.027147-0.71223-0.10071-0.90827-0.33203-0.9043-0.21873 0.0054047-0.26018 0.16098-0.24023 0.87305 0.010948 0.39359-0.008149 0.74158-0.041016 0.77734-0.136 0.1433-0.218-0.1299-0.244-0.8086-0.025-0.669-0.055-0.776-0.383-1.4785-0.221-0.4746-0.386-0.7571-0.443-0.7558-0.14393 0.0028218-0.1074 0.13037 0.24023 0.87109 0.27696 0.58971 0.32593 0.76914 0.33984 1.2383 0.009021 0.30179-0.00033607 0.56802-0.019531 0.58789-0.058086 0.061002-0.32018-0.22841-0.72852-0.80469-0.35414-0.50057-0.51988-0.63619-0.55664-0.46094-0.008441 0.040218 0.12152 0.25594 0.28906 0.48047 0.41972 0.56332 0.42353 0.59715 0.070312 0.69531-0.73912 0.20601-0.93616 0.35066-0.73633 0.54102 0.050469 0.048087 0.55959 0.17666 1.1348 0.28516 0.575 0.10889 1.0557 0.23634 1.0684 0.28125 0.013234 0.051266-0.068313 0.15548-0.21094 0.26953-0.20506 0.16369-0.23353 0.22046-0.24414 0.48633-0.014756 0.36752-0.11006 0.60646-0.33594 0.8457-0.094157 0.099749-0.2065 0.24401-0.24805 0.32031-0.041283 0.075904-0.042428 0.1712-0.001953 0.21094 0.062167 0.059214 0.12485 0.0039939 0.40039-0.3457 0.34613-0.43905 0.44098-0.66073 0.41797-0.9707-0.007932-0.10531 0.024868-0.23158 0.072266-0.28125 0.14439-0.15173 0.32778 0.1015 0.35742 0.49414 0.042312 0.56185 0.2511 0.60492 0.24609 0.050781-0.001558-0.15924 0.05183-0.37519 0.11719-0.47852 0.10563-0.16771 0.13002-0.17744 0.23242-0.080078 0.062771 0.05989 0.1204 0.24484 0.12695 0.41016 0.010448 0.26121 0.057124 0.35647 0.36719 0.73242 0.23619 0.28629 0.39019 0.43315 0.45312 0.43164 0.14433-0.0036559 0.042592-0.22197-0.28125-0.60547-0.241-0.2851-0.287-0.3932-0.31-0.6953-0.027-0.334-0.043-0.3668-0.295-0.5507-0.235-0.1709-0.259-0.2073-0.186-0.2833 0.04615-0.04769 0.52156-0.19347 1.0586-0.32422 0.56816-0.13869 1.0104-0.28639 1.0566-0.35156 0.127-0.1775-0.053-0.3168-0.543-0.4257-0.249-0.0553-0.469-0.1208-0.492-0.1406-0.022-0.0215 0.025-0.1344 0.104-0.252 0.316-0.4704 0.486-0.8073 0.447-0.8828-0.058-0.1074-0.228 0.0874-0.654 0.7539-0.33 0.516-0.475 0.6739-0.553 0.5996-0.018-0.0173-0.034-0.2781-0.037-0.5762-0.004-0.4548 0.041-0.6581 0.287-1.2675 0.1614-0.39931 0.28772-0.76111 0.27734-0.79688-0.01203-0.045842-0.034434-0.062566-0.0625-0.052734zm-17.44 0.0195c-0.1797 0.0070299-0.044601 0.6158 0.38672 1.7363 0.49914 1.2967 0.61955 1.4889 1.4922 2.3887 0.82039 0.84584 1.1658 1.4121 0.86133 1.4121-0.048222 0-0.53601-0.43543-1.084-0.96875-0.9753-0.9496-1.3342-1.1269-1.6464-0.8145-0.2955 0.2955-0.1507 0.5668 0.8144 1.5254 0.53327 0.5297 0.96875 1.0383 0.96875 1.1289 0 0.37773-0.47475 0.10774-1.4043-0.79688-0.9161-0.8915-1.0964-1.0048-2.4745-1.5449-0.9309-0.365-1.5305-0.5353-1.6075-0.459-0.1954 0.1936 0.0225 0.3242 1.4785 0.8906 1.1596 0.4511 1.4628 0.6335 2.0997 1.2637 0.4096 0.405 0.746 0.785 0.746 0.84 0 0.16135-0.7448 0.10481-2.0684-0.1543-1.1467-0.22453-1.5547-0.1952-1.375 0.095703 0.041315 0.066765 0.50555 0.19495 1.0332 0.28516 1.322 0.22616 1.3709 0.26587 1.0117 0.86719-0.7511 1.257-0.8353 1.722-0.3085 1.722 0.13306 0 1.0107-0.49668 1.9492-1.1035 0.93854-0.6068 1.7691-1.0668 1.8457-1.0195 0.085474 0.052815 0.10983 0.30505 0.0625 0.65039-0.068045 0.49632-0.032637 0.61614 0.30273 0.99805 0.46348 0.52783 0.64779 0.98462 0.65039 1.6133 0.00096944 0.26205 0.0372 0.60547 0.080078 0.76562 0.042872 0.16015 0.16673 0.29297 0.27344 0.29297 0.16388 0 0.17865-0.15572 0.099609-1.002-0.099309-1.0631-0.25937-1.4984-0.69922-1.8965-0.14948-0.13516-0.27148-0.35323-0.27148-0.48438 0-0.39995 0.58677-0.28907 1.1445 0.21484 0.79819 0.72113 1.1447 0.50402 0.4082-0.25586-0.21192-0.21865-0.42292-0.58555-0.46875-0.81445-0.07476-0.37368-0.053176-0.41602 0.2168-0.41602 0.16548 0 0.48608 0.17867 0.71289 0.39844 0.35838 0.34737 0.55294 0.41567 1.4766 0.52734 0.70374 0.085164 1.1064 0.086998 1.1914 0.001953 0.19487-0.19505-0.23477-0.36307-1.1875-0.4668-0.70851-0.077257-0.91027-0.16252-1.3398-0.55078-0.47572-0.4296-0.54679-0.45369-1.1387-0.375-0.55005 0.073122-0.62666 0.056952-0.625-0.14453 0.00104-0.12685 0.46859-0.95961 1.0391-1.8477 0.60356-0.93955 1.0197-1.7236 0.99805-1.875-0.059021-0.41179-0.49182-0.36929-1.3125 0.125-0.41746 0.25168-0.80791 0.45703-0.86719 0.45703-0.059261 0-0.14598-0.21771-0.19141-0.48438-0.18178-1.0672-0.38762-1.762-0.54102-1.8125-0.22129-0.072446-0.19941 0.42082 0.087891 1.9043 0.22247 1.1486 0.22743 1.5566 0.021484 1.5566-0.047947 0-0.41021-0.33338-0.80664-0.74219-0.6046-0.6232-0.8097-0.9693-1.2714-2.1363-0.3028-0.7652-0.6026-1.4232-0.6661-1.4629-0.0384-0.0238-0.0719-0.0343-0.0976-0.0332zm36.037 4.1328c-0.57723 0.0060009-1.1542 0.026189-1.7305 0.060547-0.057952 0.0037635-0.1159 0.0076697-0.17383 0.011719l0.056641 1.2246c0.51773-0.030701 1.0361-0.049586 1.5547-0.056641 0.155 0.0074058 0.30996 0.01587 0.46484 0.025391l0.016-1.2579c-0.062493-0.0027701-0.12499-0.0053742-0.1875-0.0078125zm-4.248 0.2461c-0.4 0.0478-0.799 0.1025-1.197 0.164-0.289 0.0401-0.578 0.0837-0.867 0.1309l0.21289 1.2402c0.66109-0.11528 1.3254-0.21103 1.9922-0.28711zm-4.369 0.7851c-0.14475 0.034241-0.28929 0.069398-0.43359 0.10547-0.45736 0.10745-0.91252 0.22401-1.3652 0.34961-0.14485 0.049189-0.28939 0.09932-0.43359 0.15039l0.39844 1.2695c0.70518-0.2335 1.4178-0.4439 2.1367-0.63086zm-4.459 1.3926c-0.21494 0.075402-0.42914 0.15288-0.64258 0.23242-0.48078 0.21134-0.95681 0.4334-1.4277 0.66602l0.54688 1.1855c0.65254-0.31596 1.315-0.61103 1.9863-0.88477zm-4.1953 1.9531c-0.68624 0.37784-1.3598 0.77845-2.0195 1.2012l0.70117 1.1094c0.636-0.405 1.287-0.789 1.949-1.152zm-3.967 2.564c-0.44961 0.31709-0.89178 0.64465-1.3262 0.98242-0.029984 0.022739-0.059932 0.045525-0.089844 0.068359-0.11394 0.10148-0.22722 0.20369-0.33984 0.30664l0.875 1.0586c0.54044-0.46653 1.0954-0.91597 1.6641-1.3477zm7.8359 0.097656c-4.1187-0.00006668-7.458 3.3383-7.459 7.457-0.00006657 4.1195 3.3395 7.4591 7.459 7.459 4.1195 0.00006657 7.4591-3.3395 7.459-7.459-0.001012-4.1187-3.3402-7.4571-7.459-7.457zm-11.357 2.8613c-0.17009 0.15136-0.33871 0.30436-0.50586 0.45898-0.3649 0.38579-0.72111 0.77977-1.0684 1.1816l0.98047 0.9082c0.48416-0.5459 0.98572-1.0761 1.5039-1.5898zm-3.1406 3.4434c-0.48218 0.62563-0.94338 1.2673-1.3828 1.9238l1.0586 0.75c0.4352-0.62446 0.89118-1.2342 1.3672-1.8281zm-8.2558 0.991c-0.12128-0.004611-0.25577 0.16475-0.41016 0.50781-0.1047 0.233-0.2127 0.441-0.2382 0.457-0.0255 0.018-0.1273-0.051-0.2266-0.152-0.3965-0.406-0.6915-0.643-0.7734-0.62-0.11686 0.034847 0.039303 0.24018 0.60547 0.79297 0.43827 0.42809 0.56325 0.60247 0.47461 0.66406-0.020637 0.014324-0.27595-0.020495-0.56836-0.078125-0.4462-0.088-0.6386-0.176-1.1855-0.541-0.3585-0.239-0.684-0.434-0.7227-0.431-0.18929 0.009978 0.038673 0.24436 0.63281 0.64844 0.60163 0.40929 0.7115 0.45526 1.3555 0.58203 0.6054 0.11922 0.92205 0.26056 0.79102 0.35156-0.020756 0.014702-0.35892-0.027363-0.75391-0.09375-0.70302-0.11763-0.91199-0.087088-0.95312 0.14062-0.039053 0.21532 0.10334 0.28928 0.80469 0.41406 0.38759 0.06915 0.72672 0.15753 0.75391 0.19727 0.11266 0.16254-0.17191 0.18629-0.8418 0.074219-0.6604-0.111-0.7711-0.105-1.5254 0.073-0.50951 0.12081-0.81983 0.22521-0.83008 0.28125-0.02642 0.14148 0.10655 0.13372 0.90234-0.056641 0.63361-0.15141 0.81902-0.1635 1.2812-0.082031 0.29723 0.052456 0.55641 0.11287 0.57227 0.13672 0.047991 0.069267-0.29042 0.26978-0.9375 0.55273-0.56033 0.24584-0.72851 0.37768-0.56445 0.44922 0.037702 0.016705 0.27721-0.065166 0.53125-0.18359 0.63652-0.29686 0.67059-0.29335 0.69531 0.072266 0.051949 0.76556 0.15216 0.98745 0.37891 0.83008 0.057267-0.0397 0.28692-0.51342 0.50977-1.0547 0.22301-0.54103 0.44366-0.98502 0.49023-0.98828 0.052624-0.002383 0.14004 0.098783 0.22266 0.26172 0.1188 0.234 0.1695 0.274 0.4277 0.338 0.35692 0.088898 0.57316 0.23211 0.76172 0.50195 0.078213 0.11203 0.19535 0.24629 0.26172 0.30273 0.065989 0.056035 0.1572 0.078668 0.20312 0.046875 0.07054-0.048881 0.032539-0.12232-0.25391-0.46289-0.3598-0.428-0.559-0.566-0.8671-0.606-0.1047-0.013-0.2207-0.07-0.2598-0.127-0.1193-0.172 0.1663-0.302 0.5566-0.252 0.5588 0.073 0.6413-0.125 0.0977-0.232-0.1564-0.031-0.3553-0.124-0.4434-0.209-0.1428-0.138-0.1474-0.164-0.0312-0.244 0.071222-0.048484 0.26447-0.068833 0.42773-0.041016 0.25792 0.04292 0.36021 0.014448 0.79102-0.21289 0.3281-0.173 0.5021-0.294 0.5131-0.356 0.025692-0.14187-0.21128-0.08534-0.65234 0.1543-0.32803 0.18003-0.43772 0.20185-0.73828 0.16211-0.3322-0.041726-0.37013-0.032494-0.60156 0.17773-0.21501 0.19552-0.25495 0.21243-0.31445 0.125-0.0369-0.054-0.0837-0.551-0.1031-1.103-0.0205-0.584-0.0745-1.047-0.1289-1.105-0.037-0.04-0.0767-0.063-0.1172-0.065zm5.582 2.9434c-0.38007 0.65753-0.73898 1.3271-1.0762 2.0078l1.1543 0.60938c0.32752-0.65427 0.676-1.2978 1.0449-1.9297zm-2.1035 4.168c-0.30409 0.7229-0.58419 1.4557-0.83984 2.1973l1.1934 0.44141c0.24463-0.71576 0.51301-1.4232 0.80469-2.1211zm11.791 1.7734c-3.4512 0-6.2343 2.7445-6.3066 6.1777h-0.005859v6.4453h27.387v-6.4453h-0.005859c-0.072387-3.4332-2.8535-6.1777-6.3047-6.1777zm-13.372 2.7c-0.20985 0.71072-0.39744 1.4279-0.5625 2.1504l1.2559 0.28906c0.15331-0.69804 0.32853-1.3911 0.52539-2.0781zm-0.9785 4.51c-0.064719 0.41691-0.12202 0.83494-0.17188 1.2539-0.036176 0.26329-0.069381 0.52698-0.099609 0.79102-0.0036957 0.1022-0.0069509 0.20441-0.0097656 0.30664l1.3027 0.12305c0.059273-0.75913 0.14396-1.5161 0.25391-2.2695zm-0.3711 4.742c-0.0067968 0.14905-0.012656 0.29814-0.017578 0.44727 0.0042242 0.088558 0.0087815 0.1771 0.013672 0.26562l1.2383-0.014c-0.0078907-0.17703-0.014401-0.35412-0.019531-0.53125 0.0031636-0.045579 0.0064188-0.091152 0.0097656-0.13672z" transform="matrix(.26458 0 0 .26458 0 284.3)" stroke-width=".11389"/>
 </g>
</svg>
