<svg width="48" height="48" viewBox="0 0 48 48" fill="none" xmlns="http://www.w3.org/2000/svg">
<path d="M19.0002 12C19.0002 10.5486 20.718 9.33797 23.0002 9.06001V6H25.0002V9.06001C27.2825 9.33797 29.0002 10.5486 29.0002 12C29.0002 12.3052 28.9242 12.5998 28.783 12.8773C28.854 12.9665 28.9108 13.0694 28.9489 13.1838L29.9489 16.1838C30.1236 16.7077 29.8404 17.274 29.3165 17.4487C28.7925 17.6233 28.2262 17.3402 28.0515 16.8162L27.2125 14.2991C26.3436 14.7365 25.2232 15 24.0002 15C22.7772 15 21.6568 14.7365 20.788 14.2991L19.9489 16.8162C19.7743 17.3402 19.2079 17.6233 18.684 17.4487C18.16 17.274 17.8769 16.7077 18.0515 16.1838L19.0515 13.1838C19.0897 13.0694 19.1465 12.9665 19.2174 12.8773C19.0762 12.5998 19.0002 12.3052 19.0002 12Z" fill="#333333"/>
<path d="M17.223 18.578C17.6343 18.9466 17.6688 19.5788 17.3002 19.9901L15.1895 22.3449C14.8209 22.7562 14.1887 22.7907 13.7774 22.4221C13.3662 22.0535 13.3316 21.4213 13.7002 21.01L15.8109 18.6552C16.1795 18.2439 16.8117 18.2094 17.223 18.578Z" fill="#333333"/>
<path d="M11.4474 24.3944C11.9414 24.1474 12.1416 23.5468 11.8946 23.0528C11.6477 22.5588 11.047 22.3586 10.553 22.6056L8.00022 23.882V27.5C8.00022 28.0523 8.44793 28.5 9.00022 28.5C9.5525 28.5 10.0002 28.0523 10.0002 27.5V25.118L11.4474 24.3944Z" fill="#333333"/>
<path d="M6.10579 41.9472C5.8588 41.4532 6.05903 40.8526 6.55301 40.6056L8.00022 39.882L8.00022 37.5C8.00022 36.9477 8.44793 36.5 9.00022 36.5C9.5525 36.5 10.0002 36.9477 10.0002 37.5V41.118L7.44743 42.3944C6.95345 42.6414 6.35278 42.4412 6.10579 41.9472Z" fill="#333333"/>
<path d="M10.0002 31C10.0002 30.4477 9.5525 30 9.00022 30C8.44793 30 8.00022 30.4477 8.00022 31V34C8.00022 34.5523 8.44793 35 9.00022 35C9.5525 35 10.0002 34.5523 10.0002 34V31Z" fill="#333333"/>
<path d="M30.7002 19.9901C30.3316 19.5788 30.3662 18.9466 30.7774 18.578C31.1887 18.2094 31.8209 18.2439 32.1896 18.6552L34.3002 21.01C34.6688 21.4213 34.6343 22.0535 34.223 22.4221C33.8117 22.7907 33.1795 22.7562 32.8109 22.3449L30.7002 19.9901Z" fill="#333333"/>
<path d="M36.1058 23.0528C35.8588 23.5468 36.059 24.1474 36.553 24.3944L38.0002 25.118V27.5C38.0002 28.0523 38.4479 28.5 39.0002 28.5C39.5525 28.5 40.0002 28.0523 40.0002 27.5V23.882L37.4474 22.6056C36.9535 22.3586 36.3528 22.5588 36.1058 23.0528Z" fill="#333333"/>
<path d="M41.4474 40.6056C41.9414 40.8526 42.1416 41.4532 41.8946 41.9472C41.6477 42.4412 41.047 42.6414 40.553 42.3944L38.0002 41.118V37.5C38.0002 36.9477 38.4479 36.5 39.0002 36.5C39.5525 36.5 40.0002 36.9477 40.0002 37.5V39.882L41.4474 40.6056Z" fill="#333333"/>
<path d="M39.0002 30C38.4479 30 38.0002 30.4477 38.0002 31V34C38.0002 34.5523 38.4479 35 39.0002 35C39.5525 35 40.0002 34.5523 40.0002 34V31C40.0002 30.4477 39.5525 30 39.0002 30Z" fill="#333333"/>
<path d="M16.0002 27L16.0002 42H18.0002V38H31.0002V42H33.0002V36H18.0002L18.0002 27H16.0002Z" fill="#333333"/>
<path d="M20.0002 32C19.1718 32 18.5002 32.6716 18.5002 33.5C18.5002 34.3284 19.1718 35 20.0002 35H32.0002C32.8286 35 33.5002 34.3284 33.5002 33.5C33.5002 32.6716 32.8286 32 32.0002 32H20.0002Z" fill="#333333"/>
</svg>
