<svg width="48" height="48" viewBox="0 0 48 48" fill="none" xmlns="http://www.w3.org/2000/svg">
<path fill-rule="evenodd" clip-rule="evenodd" d="M48 0H0V48H48V0ZM24 15C25.223 15 26.3434 14.7365 27.2123 14.2991L28.0513 16.8162C28.226 17.3402 28.7923 17.6233 29.3162 17.4487C29.8402 17.274 30.1233 16.7077 29.9487 16.1838L28.9487 13.1838C28.9106 13.0694 28.8538 12.9665 28.7828 12.8773C28.924 12.5998 29 12.3052 29 12C29 10.5486 27.2822 9.33797 25 9.06001V6H23V9.06001C20.7178 9.33797 19 10.5486 19 12C19 12.3052 19.076 12.5998 19.2172 12.8773C19.1462 12.9665 19.0894 13.0694 19.0513 13.1838L18.0513 16.1838C17.8767 16.7077 18.1598 17.274 18.6838 17.4487C19.2077 17.6233 19.774 17.3402 19.9487 16.8162L20.7877 14.2991C21.6566 14.7365 22.777 15 24 15ZM17.2228 18.578C17.634 18.9466 17.6686 19.5788 17.3 19.9901L15.1893 22.3449C14.8207 22.7562 14.1885 22.7907 13.7772 22.4221C13.366 22.0535 13.3314 21.4213 13.7 21.01L15.8107 18.6552C16.1793 18.2439 16.8115 18.2094 17.2228 18.578ZM11.4472 24.3944C11.9412 24.1474 12.1414 23.5468 11.8944 23.0528C11.6474 22.5588 11.0468 22.3586 10.5528 22.6056L8 23.882V27.5C8 28.0523 8.44771 28.5 9 28.5C9.55229 28.5 10 28.0523 10 27.5V25.118L11.4472 24.3944ZM6.10557 41.9472C5.85858 41.4532 6.05881 40.8526 6.55279 40.6056L8 39.882V37.5C8 36.9477 8.44772 36.5 9 36.5C9.55229 36.5 10 36.9477 10 37.5V41.118L7.44721 42.3944C6.95324 42.6414 6.35256 42.4412 6.10557 41.9472ZM10 31C10 30.4477 9.55229 30 9 30C8.44771 30 8 30.4477 8 31V34C8 34.5523 8.44771 35 9 35C9.55229 35 10 34.5523 10 34V31ZM30.7 19.9901C30.3314 19.5788 30.366 18.9466 30.7772 18.578C31.1885 18.2094 31.8207 18.2439 32.1893 18.6552L34.3 21.01C34.6686 21.4213 34.634 22.0535 34.2228 22.4221C33.8115 22.7907 33.1793 22.7562 32.8107 22.3449L30.7 19.9901ZM36.1056 23.0528C35.8586 23.5468 36.0588 24.1474 36.5528 24.3944L38 25.118V27.5C38 28.0523 38.4477 28.5 39 28.5C39.5523 28.5 40 28.0523 40 27.5V23.882L37.4472 22.6056C36.9532 22.3586 36.3526 22.5588 36.1056 23.0528ZM41.4472 40.6056C41.9412 40.8526 42.1414 41.4532 41.8944 41.9472C41.6474 42.4412 41.0468 42.6414 40.5528 42.3944L38 41.118V37.5C38 36.9477 38.4477 36.5 39 36.5C39.5523 36.5 40 36.9477 40 37.5V39.882L41.4472 40.6056ZM39 30C38.4477 30 38 30.4477 38 31V34C38 34.5523 38.4477 35 39 35C39.5523 35 40 34.5523 40 34V31C40 30.4477 39.5523 30 39 30ZM16 27L16 42H18V38H31V42H33V36H18V27H16ZM20 32C19.1716 32 18.5 32.6716 18.5 33.5C18.5 34.3284 19.1716 35 20 35H32C32.8284 35 33.5 34.3284 33.5 33.5C33.5 32.6716 32.8284 32 32 32H20Z" fill="#333333"/>
</svg>
