<svg width="48" height="48" viewBox="0 0 48 48" fill="none" xmlns="http://www.w3.org/2000/svg">
<path d="M24.0669 31.4973L24.0945 31.5028L24.1226 31.5051C24.184 31.5101 24.2458 31.519 24.3078 31.532C23.5344 31.3704 22.7605 31.8398 22.5535 32.6124C22.345 33.3905 22.7882 34.1897 23.5486 34.4304C23.4839 34.4099 23.4217 34.3855 23.3621 34.3575L23.3372 34.3458L23.3112 34.3369L10.7181 30.0325C10.4332 29.9351 10.2725 29.6337 10.3504 29.3429C10.4283 29.052 10.7182 28.8713 11.0136 28.9294L24.0669 31.4973ZM23.7387 34.4774L23.7038 34.4711L23.7025 34.4706L23.6759 34.4647C23.6595 34.461 23.643 34.457 23.6266 34.4528C24.05 34.5624 24.4788 34.4797 24.8196 34.2585C24.5088 34.4603 24.1249 34.5469 23.7387 34.4774ZM24.4825 31.5791L24.5121 31.5897C24.875 31.7202 25.1606 31.9803 25.3301 32.3026C25.1441 31.9489 24.8181 31.6702 24.4035 31.5552C24.4209 31.5601 24.4382 31.5652 24.4554 31.5706L24.482 31.579L24.4825 31.5791ZM44.4768 32.0242C44.4887 32.2749 44.2828 32.5 44 32.5H39C38.7309 32.5 38.4877 32.277 38.4697 31.9712C38.3551 30.0248 37.9159 28.1088 37.1679 26.303C36.2884 24.1798 34.9994 22.2507 33.3744 20.6256C31.7493 19.0006 29.8201 17.7116 27.6969 16.8321C25.5737 15.9526 23.2981 15.5 21 15.5C18.7019 15.5 16.4262 15.9527 14.303 16.8321C12.1798 17.7116 10.2506 19.0006 8.62562 20.6256C7.26821 21.983 6.14524 23.5527 5.29959 25.2703C5.26376 25.3431 5.18836 25.3711 5.12853 25.3551C5.04753 25.3334 5.01928 25.2549 5.04248 25.1985L5.06046 25.155C5.06049 25.1549 5.06052 25.1548 5.06055 25.1548C6.09077 22.6677 7.60075 20.4079 9.5043 18.5043C11.4079 16.6007 13.6678 15.0907 16.155 14.0605C18.6422 13.0302 21.3079 12.5 24 12.5C26.6921 12.5 29.3578 13.0302 31.845 14.0605C34.3322 15.0907 36.5921 16.6007 38.4957 18.5043C40.3993 20.4079 41.9093 22.6678 42.9395 25.155C43.8451 27.3412 44.3643 29.6654 44.4768 32.0242ZM3.50756 32.4854C3.50748 32.4879 3.50703 32.4902 3.50628 32.4921C3.5257 31.7082 3.59006 30.9274 3.69859 30.1533C3.6986 30.1533 3.69862 30.1532 3.69863 30.1531C3.69879 30.153 3.699 30.1528 3.69925 30.1527C3.70059 30.1518 3.70222 30.1512 3.70381 30.1509C3.70494 30.1507 3.70695 30.1505 3.71068 30.1515L3.84009 29.6686L3.71069 30.1515C3.71464 30.1526 3.71862 30.1547 3.72264 30.1611C3.727 30.168 3.7292 30.1769 3.72757 30.1869C3.60392 30.9461 3.53025 31.7139 3.50756 32.4854ZM3.49999 32.5001C3.49996 32.5001 3.49996 32.5001 3.49998 32.5001L3.49999 32.5001Z" stroke="#333333"/>
</svg>
