<svg width="48" height="48" viewBox="0 0 48 48" fill="none" xmlns="http://www.w3.org/2000/svg">
<path fill-rule="evenodd" clip-rule="evenodd" d="M48 0H0V48H48V0ZM44.9762 32.0004C45.0025 32.552 44.5523 33 44 33H39C38.4478 33 38.0031 32.5519 37.9706 32.0006C37.8593 30.1098 37.4326 28.2485 36.706 26.4944C35.8517 24.4318 34.5995 22.5578 33.0209 20.9792C31.4423 19.4006 29.5682 18.1484 27.5057 17.294C25.4431 16.4397 23.2325 16 21 16C18.7676 16 16.557 16.4397 14.4944 17.294C12.4319 18.1484 10.5578 19.4006 8.97923 20.9792C7.66061 22.2978 6.56972 23.8226 5.74824 25.4912C5.61125 25.7694 5.29875 25.9183 4.99918 25.838C4.63798 25.7412 4.43785 25.3541 4.58016 25.0083L4.59858 24.9636C5.65393 22.4158 7.20078 20.1008 9.15081 18.1508C11.1008 16.2007 13.4159 14.6539 15.9637 13.5985C18.5115 12.5432 21.2423 12 24 12C26.7578 12 29.4886 12.5432 32.0364 13.5985C34.5842 14.6539 36.8993 16.2007 38.8493 18.1508C40.7993 20.1008 42.3462 22.4158 43.4015 24.9636C44.3292 27.2032 44.8611 29.5841 44.9762 32.0004ZM4.0074 32.5001C3.99928 32.7761 3.77619 33 3.50005 33C3.22391 33 2.99943 32.7761 3.006 32.5C3.02529 31.6902 3.09138 30.8835 3.2035 30.0839C3.24589 29.7816 3.54528 29.5896 3.84015 29.6686C4.10226 29.7388 4.26475 29.9995 4.22113 30.2673C4.10101 31.0048 4.02945 31.7507 4.0074 32.5001ZM11.1102 28.4388C10.5567 28.33 10.0135 28.6686 9.86749 29.2134C9.72148 29.7583 10.0226 30.3232 10.5564 30.5056L23.1495 34.81C23.2556 34.8599 23.3676 34.901 23.4848 34.9325C23.5121 34.9398 23.5394 34.9465 23.5667 34.9526L23.6566 34.9833L23.6501 34.9694C24.6628 35.1518 25.6632 34.5301 25.9343 33.5182C26.2054 32.5062 25.6498 31.4675 24.6814 31.1192L24.6941 31.1111L24.6059 31.0938C24.5776 31.0849 24.549 31.0765 24.5201 31.0687C24.4012 31.0369 24.2819 31.0164 24.1635 31.0067L11.1102 28.4388ZM24.9684 33.2594C24.8254 33.7929 24.2771 34.1095 23.7436 33.9665C23.2101 33.8236 22.8936 33.2752 23.0365 32.7418C23.1794 32.2083 23.7278 31.8917 24.2612 32.0347C24.7947 32.1776 25.1113 32.726 24.9684 33.2594Z" fill="#333333"/>
</svg>
