<svg width="48" height="48" viewBox="0 0 48 48" fill="none" xmlns="http://www.w3.org/2000/svg">
<path d="M21 21C21 20.4477 21.4477 20 22 20H26C26.5523 20 27 20.4477 27 21V39C27 39.5523 26.5523 40 26 40H22C21.4477 40 21 39.5523 21 39V21Z" fill="#333333"/>
<path d="M34 9C34 8.44772 34.4477 8 35 8H39C39.5523 8 40 8.44772 40 9V39C40 39.5523 39.5523 40 39 40H35C34.4477 40 34 39.5523 34 39V9Z" fill="#333333"/>
<path fill-rule="evenodd" clip-rule="evenodd" d="M48 0H0V48H48V0ZM22 18C20.3431 18 19 19.3431 19 21V39C19 40.6569 20.3431 42 22 42H26C27.6569 42 29 40.6569 29 39V21C29 19.3431 27.6569 18 26 18H22ZM6 33C6 31.3431 7.34315 30 9 30H13C14.6569 30 16 31.3431 16 33V39C16 40.6569 14.6569 42 13 42H9C7.34315 42 6 40.6569 6 39V33ZM35 6C33.3431 6 32 7.34315 32 9V39C32 40.6569 33.3431 42 35 42H39C40.6569 42 42 40.6569 42 39V9C42 7.34315 40.6569 6 39 6H35Z" fill="#333333"/>
</svg>
