<svg width="48" height="48" viewBox="0 0 48 48" fill="none" xmlns="http://www.w3.org/2000/svg">
<path fill-rule="evenodd" clip-rule="evenodd" d="M48 0H0V48H48V0ZM24.4926 36.5687C24.8682 36.685 25.2734 36.6601 25.632 36.4988L28.2207 35.1261C28.9529 34.1406 29.0659 33.6535 28.8013 32.6245L27.0818 30.2519C26.8309 29.9492 26.4781 29.7484 26.0897 29.6873L12.1065 28.8865C10.1288 28.5756 9.65328 30.5441 11.5658 31.1361L24.4926 36.5687ZM6.10881 24C6.55678 19.9303 8.36313 16.2691 11.065 13.4793L11.2929 13.7072L13.4143 15.8285L14.1214 16.5355L15.5356 15.1213L14.8284 14.4142L12.707 12.2929L12.5348 12.1207C15.4086 9.74502 19.0332 8.24437 23 8.02729L23 9L23 12L23 13L25 13L25 12L25 9L25 8.02729C28.9668 8.24436 32.5915 9.74505 35.4653 12.1208L33.2929 14.2928L32.5858 14.9999L33.9999 16.4142L34.7071 15.7072L36.9351 13.4794C39.6369 16.2692 41.4432 19.9303 41.8912 24H41.6843H38.6843H37.6843V26H38.6843H41.6843H42C41.9975 30.3403 40.4579 34.3201 37.894 37.4269L37.4138 36.9467L35.1808 34.7138L34.4737 34.0067L33.0595 35.4209L33.7666 36.128L35.9996 38.361L36.5366 38.8979L36.5239 38.9103L37.9152 40.3471C41.6663 36.7148 44 31.6236 44 25.9892C44 14.949 35.0452 6 24 6C12.9548 6 4 14.949 4 25.9892C4 31.4741 6.21161 36.4446 9.78969 40.0553L11.2103 38.6475C11.204 38.6412 11.1978 38.6349 11.1915 38.6285L11.2567 38.5633L13.4897 36.3303L14.1968 35.6232L12.7825 34.209L12.0754 34.9161L9.86419 37.1274C7.44566 34.0662 6.00246 30.2022 6 26H6.05267H9.05267H10.0527V24H9.05267H6.10881Z" fill="#333333"/>
</svg>
