<svg width="48" height="48" viewBox="0 0 48 48" fill="none" xmlns="http://www.w3.org/2000/svg">
<path d="M35.5 22C35.5 22.2761 35.7238 22.5 36 22.5H41.59L43.39 31.5H20.4999V22.1667L26.2499 14.5H35.5V22ZM22.6865 21.6915C22.5684 21.8421 22.5466 22.0468 22.6304 22.2188C22.7141 22.3908 22.8886 22.5 23.0799 22.5H31.9999C32.2761 22.5 32.4999 22.2761 32.4999 22V17C32.4999 16.7239 32.2761 16.5 31.9999 16.5H26.9999C26.8463 16.5 26.7012 16.5706 26.6065 16.6915L22.6865 21.6915ZM8.40587 22.9017L15.2648 24.8109L9.59596 29.6871L7.53435 29.1184C7.53407 29.1183 7.53379 29.1182 7.53351 29.1182C5.22023 28.4721 3.87444 26.0873 4.48231 23.7917L9.86602 4.61709L19.3324 7.28662C19.3328 7.28682 19.3332 7.28702 19.3336 7.28722C19.7969 7.5325 22.6586 9.0474 24.9201 11.5064C24.7936 11.5269 24.6786 11.5954 24.6003 11.6995L22.931 13.9198C21.3574 12.0323 19.1748 10.5875 18.1099 10.036C18.0795 10.0203 18.0475 10.0077 18.0146 9.99846L12.4346 8.43846C12.3068 8.40274 12.17 8.41927 12.0544 8.48443C11.9388 8.54959 11.8539 8.65802 11.8183 8.78585L8.05828 22.2858C8.0227 22.4136 8.03933 22.5503 8.10452 22.6658C8.1697 22.7813 8.27811 22.8661 8.40587 22.9017ZM39.5 39C39.5 37.6439 38.3561 36.5 37 36.5H12.9999C11.6438 36.5 10.4999 37.6439 10.4999 39C10.4999 40.3561 11.6438 41.5 12.9999 41.5H37C38.3561 41.5 39.5 40.3561 39.5 39ZM12.9999 34.5H37C38.1934 34.5 39.338 34.9741 40.1819 35.818C41.0258 36.6619 41.5 37.8065 41.5 39C41.5 40.1935 41.0258 41.3381 40.1819 42.182C39.338 43.0259 38.1934 43.5 37 43.5H12.9999C10.5361 43.5 8.49995 41.4639 8.49995 39C8.49995 36.5361 10.5361 34.5 12.9999 34.5Z" stroke="#333333" stroke-linejoin="round"/>
</svg>
