<svg width="48" height="48" viewBox="0 0 48 48" fill="none" xmlns="http://www.w3.org/2000/svg">
<path fill-rule="evenodd" clip-rule="evenodd" d="M29.7129 24.1887C30.0837 24.0637 30.4756 23.9998 30.8705 23.9998H31.9827C32.1276 23.9998 32.2421 23.8771 32.2322 23.7326L31.7827 17.2154C31.7646 16.9532 31.5463 16.7483 31.2838 16.7616C27.0174 16.9779 23.5898 20.1481 23.3265 24.496L23.2915 25.0748C23.2711 25.4103 23.5812 25.6699 23.908 25.591L29.7129 24.1887ZM29.9007 18.9957C27.8201 19.5676 26.2109 21.0947 25.5894 23.1273L29.1672 22.263C29.4755 22.1651 29.7916 22.0943 30.1114 22.051L29.9007 18.9957Z" fill="#333333"/>
<path fill-rule="evenodd" clip-rule="evenodd" d="M10.5005 6C8.56748 6 7.00047 7.567 7.00047 9.5C7.00047 10.0765 7.13984 10.6204 7.38671 11.0999L6.22601 24.3762C6.22415 24.3975 6.22307 24.4186 6.22274 24.4396L6.14078 26.7602C6.05129 29.2941 7.91901 31.4736 10.4367 31.7732L10.6173 31.7947C12.5538 32.0251 14.4412 31.0793 15.4159 29.3902L17.612 25.584C18.1065 24.727 17.3335 23.695 16.372 23.9286L14.6905 24.3371L12.1429 24.1715L11.0765 24.0446L12.7688 12.8234C14.5833 13.385 16.376 13.9812 17.9214 14.8254C19.4161 15.6419 20.6092 16.6538 21.3381 18.0226C20.055 19.8153 19.2516 21.98 19.1208 24.3344L18.8092 29.9445C18.7773 30.5177 19.2335 31 19.8076 31H41.4571C41.7497 31 41.9797 30.75 41.9554 30.4585L41.3652 23.3754C41.3004 22.598 40.6505 22 39.8703 22H36.0441C36.0191 22 35.998 21.9816 35.9945 21.9569L34.9901 14.7249C34.8528 13.7361 34.0074 13 33.0091 13H31.1024C29.2857 13 27.5594 13.4048 26.0114 14.131C23.0973 9.72341 17.9993 8.48147 13.3628 7.48528C12.7293 6.58684 11.6834 6 10.5005 6ZM9.00047 9.5C9.00047 8.67157 9.67205 8 10.5005 8C11.3289 8 12.0005 8.67157 12.0005 9.5C12.0005 10.3284 11.3289 11 10.5005 11C9.67205 11 9.00047 10.3284 9.00047 9.5ZM10.9773 12.9678C10.8214 12.989 10.6622 13 10.5005 13C9.96603 13 9.45956 12.8802 9.00646 12.666L7.97159 24.5031L7.88969 26.822C7.83232 28.4463 9.02958 29.8434 10.6435 30.0354L10.8241 30.0569C12.0654 30.2046 13.2753 29.5984 13.9001 28.5156L15.3668 25.9737L15.0108 26.0602C14.9001 26.087 14.786 26.097 14.6723 26.0896L11.9827 25.9148L10.2294 25.7062C9.59877 25.6311 9.15522 25.0493 9.24993 24.4213L10.9773 12.9678ZM18.8802 13.0702C17.2471 12.1781 15.3989 11.5485 13.6608 11.006C13.855 10.5991 13.973 10.1489 13.9962 9.67381C18.2505 10.6355 22.0328 11.8315 24.2742 15.1312C23.7174 15.517 23.1946 15.9489 22.7114 16.4214C21.7444 14.9521 20.3757 13.8872 18.8802 13.0702ZM21.1178 24.4453C21.4122 19.1461 25.795 15 31.1024 15H33.0091L34.0136 22.232C34.1543 23.2455 35.0209 24 36.0441 24H39.4103L39.8269 29H20.8647L21.1178 24.4453Z" fill="#333333"/>
<path d="M23.5005 39C24.3289 39 25.0005 38.3284 25.0005 37.5C25.0005 36.6716 24.3289 36 23.5005 36C22.672 36 22.0005 36.6716 22.0005 37.5C22.0005 38.3284 22.672 39 23.5005 39Z" fill="#333333"/>
<path d="M31.0005 37.5C31.0005 38.3284 30.3289 39 29.5005 39C28.672 39 28.0005 38.3284 28.0005 37.5C28.0005 36.6716 28.672 36 29.5005 36C30.3289 36 31.0005 36.6716 31.0005 37.5Z" fill="#333333"/>
<path d="M35.5005 39C36.3289 39 37.0005 38.3284 37.0005 37.5C37.0005 36.6716 36.3289 36 35.5005 36C34.672 36 34.0005 36.6716 34.0005 37.5C34.0005 38.3284 34.672 39 35.5005 39Z" fill="#333333"/>
<path fill-rule="evenodd" clip-rule="evenodd" d="M21.5005 33C19.0152 33 17.0005 35.0147 17.0005 37.5C17.0005 39.9853 19.0152 42 21.5005 42H37.5005C39.9858 42 42.0005 39.9853 42.0005 37.5C42.0005 35.0147 39.9858 33 37.5005 33H21.5005ZM37.5005 35H21.5005C20.1198 35 19.0005 36.1193 19.0005 37.5C19.0005 38.8807 20.1198 40 21.5005 40H37.5005C38.8812 40 40.0005 38.8807 40.0005 37.5C40.0005 36.1193 38.8812 35 37.5005 35Z" fill="#333333"/>
</svg>
