<svg width="48" height="48" viewBox="0 0 48 48" fill="none" xmlns="http://www.w3.org/2000/svg">
<path fill-rule="evenodd" clip-rule="evenodd" d="M48 0H0V48H48V0ZM39 39C39 37.92 38.08 37 37 37H12.9999C11.9199 37 10.9999 37.92 10.9999 39C10.9999 40.08 11.9199 41 12.9999 41H37C38.08 41 39 40.08 39 39ZM12.9999 34H37C38.326 34 39.5978 34.5268 40.5355 35.4645C41.4732 36.4021 42 37.6739 42 39C42 40.3261 41.4732 41.5979 40.5355 42.5355C39.5978 43.4732 38.326 44 37 44H12.9999C10.2599 44 7.99995 41.74 7.99995 39C7.99995 36.26 10.2599 34 12.9999 34ZM36 22H42L44 32H19.9999V22L25.9999 14H36V22ZM26.9999 17L23.0799 22H31.9999V17H26.9999ZM9.51995 4L19.52 6.82C19.5269 6.82387 19.5391 6.83044 19.5562 6.83967C19.9815 7.06898 23.4575 8.94307 25.8799 12H24.9999L22.9399 14.74C21.4199 12.68 18.9999 11.06 17.8799 10.48L12.2999 8.92L8.53995 22.42L16.2999 24.58L9.71995 30.24L7.39995 29.6C4.81995 28.88 3.31995 26.22 3.99995 23.66L9.51995 4Z" fill="#333333"/>
</svg>
