<svg width="48" height="48" viewBox="0 0 48 48" fill="none" xmlns="http://www.w3.org/2000/svg">
<path d="M17.8828 4.00391C14.202 4.00379 10.6719 5.4886 8.06913 8.13169C5.46633 10.7748 4.00402 14.3596 4.00391 18.0977C4.00402 21.8357 5.46633 25.4205 8.06913 28.0636C10.6719 30.7067 14.202 32.1915 17.8828 32.1914C21.153 32.1917 24.3183 31.0193 26.8203 28.8809L28.9043 30.959C28.5041 32.1102 28.7538 33.4301 29.6777 34.3516L38.3809 43.0332C39.6709 44.3198 41.7466 44.3174 43.0332 43.0273C44.3198 41.7373 44.3174 39.6616 43.0273 38.375L34.3223 29.6953C33.3982 28.7737 32.0779 28.5281 30.9277 28.9316L28.793 26.8027C30.7148 24.3207 31.7602 21.2551 31.7617 18.0977C31.7616 14.3596 30.2993 10.7748 27.6965 8.13169C25.0937 5.4886 21.5636 4.00379 17.8828 4.00391ZM17.8828 4.56445C21.4168 4.56479 24.806 5.99077 27.3047 8.52872C29.8035 11.0667 31.2072 14.5087 31.207 18.0977C31.2066 21.3122 30.0794 24.4216 28.0273 26.8691L28.4316 27.2324L30.3809 29.1758L30.7949 29.5898C30.9614 29.5125 31.1354 29.4554 31.3125 29.4121C32.2444 29.186 33.293 29.4474 34.0586 30.2109L42.4824 38.6133C43.6253 39.7531 43.6837 41.5341 42.6133 42.6074C41.5428 43.6807 39.7621 43.6281 38.6191 42.4883L30.1934 34.0859C29.4244 33.319 29.1631 32.2657 29.3926 31.3301C29.4313 31.1734 29.4791 31.0213 29.5449 30.873C29.5516 30.8581 29.5575 30.841 29.5645 30.8262H29.5625L29.1465 30.4121L27.2266 28.4961L26.8438 28.0938C24.3942 30.3641 21.1991 31.6253 17.8828 31.6309C16.1328 31.631 14.3999 31.281 12.783 30.6009C11.1662 29.9208 9.69708 28.924 8.45962 27.6673C7.22215 26.4106 6.24055 24.9187 5.57088 23.2767C4.9012 21.6347 4.55656 19.8749 4.55664 18.0977C4.55656 16.3204 4.9012 14.5606 5.57088 12.9186C6.24055 11.2766 7.22215 9.78471 8.45962 8.52802C9.69708 7.27133 11.1662 6.27448 12.783 5.59441C14.3999 4.91434 16.1328 4.56436 17.8828 4.56445ZM17.8828 6.31055C16.3585 6.31043 14.8492 6.61522 13.4409 7.20753C12.0326 7.79983 10.753 8.66805 9.67512 9.7626C8.59725 10.8571 7.74225 12.1566 7.15892 13.5867C6.57559 15.0169 6.27537 16.5497 6.27539 18.0977C6.27537 19.6456 6.57559 21.1784 7.15892 22.6086C7.74225 24.0387 8.59725 25.3382 9.67512 26.4327C10.753 27.5273 12.0326 28.3955 13.4409 28.9878C14.8492 29.5801 16.3585 29.8849 17.8828 29.8848C20.9609 29.8845 23.9128 28.6425 26.0892 26.432C28.2657 24.2215 29.4883 21.2236 29.4883 18.0977C29.4883 14.9717 28.2657 11.9738 26.0892 9.7633C23.9128 7.55281 20.9609 6.31083 17.8828 6.31055ZM17.8828 6.85742C19.3363 6.85737 20.7756 7.14807 22.1185 7.71293C23.4614 8.27778 24.6816 9.10573 25.7094 10.1495C26.7372 11.1932 27.5525 12.4324 28.1087 13.7961C28.6649 15.1599 28.9512 16.6215 28.9512 18.0977C28.9512 19.5738 28.6649 21.0354 28.1087 22.3992C27.5525 23.7629 26.7372 25.0021 25.7094 26.0458C24.6816 27.0896 23.4614 27.9175 22.1185 28.4824C20.7756 29.0472 19.3363 29.3379 17.8828 29.3379C16.4293 29.3379 14.99 29.0472 13.6471 28.4824C12.3042 27.9175 11.084 27.0896 10.0562 26.0458C9.02845 25.0021 8.21316 23.7629 7.65693 22.3992C7.1007 21.0354 6.81443 19.5738 6.81445 18.0977C6.81443 16.6215 7.1007 15.1599 7.65693 13.7961C8.21316 12.4324 9.02845 11.1932 10.0562 10.1495C11.084 9.10573 12.3042 8.27778 13.6471 7.71293C14.99 7.14807 16.4293 6.85737 17.8828 6.85742Z" fill="#333333"/>
</svg>
