<svg width="48" height="48" viewBox="0 0 48 48" fill="none" xmlns="http://www.w3.org/2000/svg">
<path fill-rule="evenodd" clip-rule="evenodd" d="M42.0002 21C42.0002 29.2843 35.2844 36 27.0002 36C23.2179 36 19.7626 34.6001 17.1241 32.2903L15.2959 34.1185L15.3002 36.9426L8.82858 43.4143L4.58594 39.1716L11.1097 32.6479L13.817 32.7689L15.7099 30.876C13.4 28.2375 12.0002 24.7823 12.0002 21C12.0002 12.7157 18.7159 6 27.0002 6C35.2844 6 42.0002 12.7157 42.0002 21ZM40.0002 21C40.0002 28.1797 34.1799 34 27.0002 34C19.8204 34 14.0002 28.1797 14.0002 21C14.0002 13.8203 19.8204 8 27.0002 8C34.1799 8 40.0002 13.8203 40.0002 21ZM7.41436 39.1716L8.82858 40.5858L13.2989 36.1155L13.2968 34.7477L11.9008 34.6852L7.41436 39.1716Z" fill="#333333"/>
</svg>
