<?xml version="1.0" encoding="UTF-8" standalone="no"?>
<!-- Created with Inkscape (http://www.inkscape.org/) -->
<svg id="svg8" xmlns:rdf="http://www.w3.org/1999/02/22-rdf-syntax-ns#" xmlns="http://www.w3.org/2000/svg" xmlns:osb="http://www.openswatchbook.org/uri/2009/osb" height="48" width="48" version="1.1" xmlns:cc="http://creativecommons.org/ns#" viewBox="0 0 12.7 12.7" xmlns:dc="http://purl.org/dc/elements/1.1/">
 <title id="title4753">UIO-icon</title>
 <metadata id="metadata5">
  <rdf:RDF>
   <cc:Work rdf:about="">
    <dc:format>image/svg+xml</dc:format>
    <dc:type rdf:resource="http://purl.org/dc/dcmitype/StillImage"/>
    <dc:title>UIO-icon</dc:title>
    <dc:creator>
     <cc:Agent>
      <dc:title>Joaquín Urbano</dc:title>
     </cc:Agent>
    </dc:creator>
    <dc:rights>
     <cc:Agent>
      <dc:title>GPL</dc:title>
     </cc:Agent>
    </dc:rights>
   </cc:Work>
  </rdf:RDF>
 </metadata>
 <g id="layer1" transform="translate(0,-284.3)" fill="#333">
  <path id="path1431" d="m24 4c-11.046 0-20 8.954-20 20s8.954 20 20 20 20-8.954 20-20-8.954-20-20-20zm0 0.5176c10.76 0 19.482 8.7224 19.482 19.482s-8.722 19.482-19.482 19.482-19.482-8.722-19.482-19.482c-0.0004-10.76 8.722-19.482 19.482-19.482zm5.297 4.3613a7.8583 3.8648 68.205 0 0 -0.652 0.1387 7.8583 3.8648 68.205 0 0 -0.672 8.7304 7.8583 3.8648 68.205 0 0 6.507 5.859 7.8583 3.8648 68.205 0 0 0.672 -8.73 7.8583 3.8648 68.205 0 0 -5.855 -5.9981zm0.203 0.5059a7.3431 3.3451 68.205 0 1 5.162 5.6872 7.3431 3.3451 68.205 0 1 -0.381 8.063 7.3431 3.3451 68.205 0 1 -5.832 -5.576 7.3431 3.3451 68.205 0 1 0.379 -8.0629 7.3431 3.3451 68.205 0 1 0.672 -0.1113zm-10.477 0.2363a3.8648 7.8583 38.026 0 0 -6.318 4.2479 3.8648 7.8583 38.026 0 0 -1.795 8.57 3.8648 7.8583 38.026 0 0 7.885 -3.808 3.8648 7.8583 38.026 0 0 1.795 -8.57 3.8648 7.8583 38.026 0 0 -1.567 -0.4399zm-0.019 0.4839a3.3451 7.3431 38.026 0 1 1.264 0.356 3.3451 7.3431 38.026 0 1 -1.889 7.846 3.3451 7.3431 38.026 0 1 -7.158 3.722 3.3451 7.3431 38.026 0 1 1.886 -7.845 3.3451 7.3431 38.026 0 1 5.897 -4.079zm6.887 15.051a7.8583 3.8648 38.026 0 0 -2.268 0.879 7.8583 3.8648 38.026 0 0 3.809 7.885 7.8583 3.8648 38.026 0 0 8.57 1.795 7.8583 3.8648 38.026 0 0 -3.809 -7.885 7.8583 3.8648 38.026 0 0 -6.302 -2.674zm-0.162 0.479a7.3431 3.3451 38.026 0 1 6.15 2.597 7.3431 3.3451 38.026 0 1 3.723 7.161 7.3431 3.3451 38.026 0 1 -7.846 -1.889 7.3431 3.3451 38.026 0 1 -3.723 -7.158 7.3431 3.3451 38.026 0 1 1.696 -0.711zm-11.432 0.244a7.8583 3.8648 68.205 0 0 -0.652 0.139 7.8583 3.8648 68.205 0 0 -0.672 8.73 7.8583 3.8648 68.205 0 0 6.507 5.859 7.8583 3.8648 68.205 0 0 0.672 -8.73 7.8583 3.8648 68.205 0 0 -5.855 -5.998zm0.203 0.506a7.3431 3.3451 68.205 0 1 5.162 5.687 7.3431 3.3451 68.205 0 1 -0.381 8.063 7.3431 3.3451 68.205 0 1 -5.832 -5.576 7.3431 3.3451 68.205 0 1 0.379 -8.063 7.3431 3.3451 68.205 0 1 0.672 -0.111z" fill-rule="evenodd" transform="matrix(.26458 0 0 .26458 0 284.3)"/>
 </g>
</svg>
