<svg width="48" height="48" viewBox="0 0 48 48" fill="none" xmlns="http://www.w3.org/2000/svg">
<path fill-rule="evenodd" clip-rule="evenodd" d="M23.9999 4.00635C12.9542 4.00635 3.99976 12.9609 3.99976 24.0065C3.99976 35.0522 12.9542 44.0066 23.9999 44.0066C35.0456 44.0066 44 35.0522 44 24.0065C44 12.9609 35.0456 4.00635 23.9999 4.00635ZM23.9999 4.524C34.7602 4.524 43.4822 13.246 43.4822 24.0063C43.4822 34.7666 34.7602 43.4886 23.9999 43.4886C13.2396 43.4886 4.51755 34.7666 4.51755 24.0063C4.51755 13.246 13.2396 4.524 23.9999 4.524ZM29.2969 8.8852C29.0672 8.89541 28.8489 8.94175 28.6445 9.02384C26.6624 9.81565 26.3616 13.7245 27.9727 17.7542C29.5845 21.7832 32.4971 24.4065 34.4784 23.6136C36.4605 22.8218 36.7613 18.913 35.1502 14.8832C33.73 11.3324 31.2588 8.80042 29.2969 8.88509V8.8852ZM19.0215 9.62731C17.1374 9.71553 14.6497 11.3887 12.7051 13.8756C10.0321 17.2939 9.22771 21.1307 10.9083 22.446C12.589 23.7628 16.1206 22.0574 18.795 18.6374C21.4682 15.2183 22.2718 11.381 20.59 10.0669C20.1826 9.74781 19.6493 9.59836 19.0216 9.62743L19.0215 9.62731ZM13.9864 15.641C13.5831 15.6611 13.1903 15.7761 12.8399 15.9769C11.6123 16.6812 11.1882 18.2475 11.8927 19.475C12.597 20.7026 14.1632 21.1266 15.3907 20.4222C16.6183 19.7178 17.0424 18.1517 16.3379 16.9242C15.8579 16.0882 14.9492 15.5923 13.9864 15.641ZM32.6017 16.0882C32.5418 16.0874 32.4819 16.0887 32.422 16.0921C31.0083 16.1657 29.922 17.3717 29.9962 18.7855C30.0709 20.1984 31.2766 21.2835 32.6896 21.2093C34.1034 21.1357 35.1896 19.9296 35.1154 18.5159C35.0448 17.1722 33.9471 16.112 32.6017 16.0882ZM14.0745 16.1684C14.8169 16.1539 15.508 16.5455 15.8772 17.1898C16.4339 18.1629 16.0975 19.403 15.1252 19.9613C14.1522 20.518 12.912 20.1816 12.3538 19.2094C11.7967 18.2368 12.1322 16.9968 13.1038 16.4379C13.3996 16.268 13.7334 16.1753 14.0745 16.1684ZM32.6527 16.6214C33.695 16.6716 34.5299 17.5031 34.5844 18.5452C34.6426 19.6652 33.7824 20.6206 32.6625 20.68C31.5425 20.7382 30.5871 19.8781 30.5277 18.7581C30.4695 17.6381 31.3297 16.6827 32.4496 16.6234C32.5173 16.6193 32.5851 16.6187 32.6527 16.6214ZM25.8889 25.1624C24.8651 25.1527 24.0787 25.4578 23.6233 26.0413C22.3083 27.7224 24.0134 31.2526 27.4319 33.9262C30.851 36.5994 34.6882 37.403 36.0023 35.7211C37.3173 34.04 35.6122 30.5099 32.1937 27.8362C30.0856 26.1877 27.7101 25.1801 25.8891 25.1624H25.8889ZM14.2971 25.885C14.0674 25.8952 13.8491 25.9417 13.6447 26.0238C11.6626 26.8156 11.3618 30.7244 12.9728 34.7541C14.5847 38.7831 17.4973 41.4064 19.4785 40.6135C21.4607 39.8217 21.7615 35.9129 20.1504 31.8831C18.7302 28.3323 16.259 25.8003 14.2971 25.885ZM27.7503 26.7015C27.2599 26.683 26.7745 26.8057 26.3519 27.055C25.1328 27.7744 24.7279 29.3459 25.4476 30.5648C26.1676 31.7831 27.739 32.1871 28.9574 31.4671C30.1765 30.7477 30.5814 29.1763 29.8617 27.9574C29.4175 27.2067 28.622 26.7335 27.7503 26.7015ZM27.5862 27.2328C28.3282 27.2081 29.0246 27.59 29.4026 28.2289C29.9723 29.1944 29.6525 30.4389 28.6878 31.0101C27.7222 31.5798 26.4777 31.2599 25.9065 30.2952C25.3355 29.3293 25.6556 28.0833 26.6214 27.512C26.9146 27.3396 27.2463 27.2436 27.5862 27.2327V27.2328ZM17.4787 33.3186C16.0634 33.3186 14.9162 34.4658 14.9162 35.881C14.9162 37.2962 16.0634 38.4434 17.4787 38.4434C18.8939 38.4434 20.0411 37.2962 20.0411 35.881C20.0411 34.4658 18.8939 33.3186 17.4787 33.3186ZM17.4787 33.8497C18.6003 33.8502 19.5094 34.7594 19.5099 35.881C19.5094 37.0026 18.6003 37.9117 17.4787 37.9122C16.357 37.9117 15.4479 37.0026 15.4474 35.881C15.4479 34.7594 16.357 33.8502 17.4787 33.8497Z" fill="#333333"/>
</svg>
