<svg width="48" height="48" viewBox="0 0 48 48" fill="none" xmlns="http://www.w3.org/2000/svg">
<path d="M13.5693 20.3904C14.1216 20.3904 14.5693 19.9427 14.5693 19.3904C14.5693 18.8381 14.1216 18.3904 13.5693 18.3904C13.017 18.3904 12.5693 18.8381 12.5693 19.3904C12.5693 19.9427 13.017 20.3904 13.5693 20.3904Z" fill="#333333"/>
<path d="M16.3631 16.9842C16.3631 17.2603 16.1393 17.4842 15.8631 17.4842C15.587 17.4842 15.3631 17.2603 15.3631 16.9842C15.3631 16.708 15.587 16.4842 15.8631 16.4842C16.1393 16.4842 16.3631 16.708 16.3631 16.9842Z" fill="#333333"/>
<path d="M15.6371 18.8904C15.9133 18.8904 16.1371 18.6666 16.1371 18.3904C16.1371 18.1143 15.9133 17.8904 15.6371 17.8904C15.361 17.8904 15.1371 18.1143 15.1371 18.3904C15.1371 18.6666 15.361 18.8904 15.6371 18.8904Z" fill="#333333"/>
<path d="M18.3477 16.0768C18.3477 16.4634 18.0343 16.7768 17.6477 16.7768C17.2611 16.7768 16.9477 16.4634 16.9477 16.0768C16.9477 15.6902 17.2611 15.3768 17.6477 15.3768C18.0343 15.3768 18.3477 15.6902 18.3477 16.0768Z" fill="#333333"/>
<path d="M32.4185 31.8983C32.4185 32.4506 31.9707 32.8983 31.4185 32.8983C30.8662 32.8983 30.4185 32.4506 30.4185 31.8983C30.4185 31.346 30.8662 30.8983 31.4185 30.8983C31.9707 30.8983 32.4185 31.346 32.4185 31.8983Z" fill="#333333"/>
<path d="M29.9653 31.1659C30.2156 31.1659 30.4185 30.963 30.4185 30.7128C30.4185 30.4625 30.2156 30.2597 29.9653 30.2597C29.7151 30.2597 29.5122 30.4625 29.5122 30.7128C29.5122 30.963 29.7151 31.1659 29.9653 31.1659Z" fill="#333333"/>
<path d="M27.274 29.0388C27.274 29.2858 27.0738 29.486 26.8269 29.486C26.5799 29.486 26.3797 29.2858 26.3797 29.0388C26.3797 28.7919 26.5799 28.5917 26.8269 28.5917C27.0738 28.5917 27.274 28.7919 27.274 29.0388Z" fill="#333333"/>
<path d="M28.3163 30.712C28.7405 30.712 29.0845 30.3681 29.0845 29.9439C29.0845 29.5196 28.7405 29.1757 28.3163 29.1757C27.892 29.1757 27.5481 29.5196 27.5481 29.9439C27.5481 30.3681 27.892 30.712 28.3163 30.712Z" fill="#333333"/>
<path d="M30.3007 17.0763C30.3007 17.6286 29.853 18.0763 29.3007 18.0763C28.7484 18.0763 28.3007 17.6286 28.3007 17.0763C28.3007 16.524 28.7484 16.0763 29.3007 16.0763C29.853 16.0763 30.3007 16.524 30.3007 17.0763Z" fill="#333333"/>
<path d="M27.8007 15.5959C28.0768 15.5959 28.3007 15.372 28.3007 15.0959C28.3007 14.8197 28.0768 14.5959 27.8007 14.5959C27.5245 14.5959 27.3007 14.8197 27.3007 15.0959C27.3007 15.372 27.5245 15.5959 27.8007 15.5959Z" fill="#333333"/>
<path d="M30.8768 19.5498C30.8768 19.9364 30.5634 20.2498 30.1768 20.2498C29.7902 20.2498 29.4768 19.9364 29.4768 19.5498C29.4768 19.1632 29.7902 18.8498 30.1768 18.8498C30.5634 18.8498 30.8768 19.1632 30.8768 19.5498Z" fill="#333333"/>
<path d="M18.4575 33.0196C18.4575 33.5719 18.0097 34.0196 17.4575 34.0196C16.9052 34.0196 16.4575 33.5719 16.4575 33.0196C16.4575 32.4673 16.9052 32.0196 17.4575 32.0196C18.0097 32.0196 18.4575 32.4673 18.4575 33.0196Z" fill="#333333"/>
<path d="M17.3729 31.1231C17.6232 31.1231 17.826 30.9202 17.826 30.67C17.826 30.4197 17.6232 30.2168 17.3729 30.2168C17.1227 30.2168 16.9198 30.4197 16.9198 30.67C16.9198 30.9202 17.1227 31.1231 17.3729 31.1231Z" fill="#333333"/>
<path d="M16.1675 29.627C16.1675 29.9031 15.9437 30.127 15.6675 30.127C15.3914 30.127 15.1675 29.9031 15.1675 29.627C15.1675 29.3509 15.3914 29.127 15.6675 29.127C15.9437 29.127 16.1675 29.3509 16.1675 29.627Z" fill="#333333"/>
<path d="M18.8675 35.8356C19.2541 35.8356 19.5675 35.5222 19.5675 35.1356C19.5675 34.749 19.2541 34.4356 18.8675 34.4356C18.4809 34.4356 18.1675 34.749 18.1675 35.1356C18.1675 35.5222 18.4809 35.8356 18.8675 35.8356Z" fill="#333333"/>
<path fill-rule="evenodd" clip-rule="evenodd" d="M24 44C35.0457 44 44 35.0457 44 24C44 12.9543 35.0457 4 24 4C12.9543 4 4 12.9543 4 24C4 35.0457 12.9543 44 24 44ZM9.69277 22.3084C10.8729 23.8355 14.3197 23.1492 17.3914 20.7754C20.4632 18.4016 21.9966 15.2393 20.8165 13.7122C19.6363 12.185 16.1895 12.8714 13.1178 15.2452C10.0461 17.619 8.51263 20.7813 9.69277 22.3084ZM31.387 27.8498C34.6736 29.8343 36.5382 32.7676 35.5516 34.4015C34.565 36.0355 31.1009 35.7513 27.8143 33.7669C24.5277 31.7824 22.6632 28.8491 23.6498 27.2152C24.6363 25.5813 28.1004 25.8654 31.387 27.8498ZM32.4055 16.0023C34.0513 19.5206 33.9676 23.0361 32.2184 23.8543C30.4693 24.6726 27.7171 22.4837 26.0713 18.9654C24.4255 15.447 24.5093 11.9316 26.2584 11.1134C28.0075 10.2951 30.7597 12.484 32.4055 16.0023ZM20.5677 30.9329C22.3518 34.482 22.3678 38.0782 20.6033 38.9651C18.8389 39.8521 15.9622 37.694 14.1781 34.145C12.394 30.5959 12.3781 26.9998 14.1425 26.1128C15.907 25.2258 18.7836 27.3839 20.5677 30.9329Z" fill="#333333"/>
</svg>
