<?xml version="1.0" encoding="UTF-8" standalone="no"?>
<!-- Created with Inkscape (http://www.inkscape.org/) -->
<svg id="svg8" xmlns:rdf="http://www.w3.org/1999/02/22-rdf-syntax-ns#" xmlns="http://www.w3.org/2000/svg" xmlns:osb="http://www.openswatchbook.org/uri/2009/osb" height="48" width="48" version="1.1" xmlns:cc="http://creativecommons.org/ns#" viewBox="0 0 12.7 12.7" xmlns:dc="http://purl.org/dc/elements/1.1/">
 <title id="title4753">UIO-icon</title>
 <metadata id="metadata5">
  <rdf:RDF>
   <cc:Work rdf:about="">
    <dc:format>image/svg+xml</dc:format>
    <dc:type rdf:resource="http://purl.org/dc/dcmitype/StillImage"/>
    <dc:title>UIO-icon</dc:title>
    <dc:creator>
     <cc:Agent>
      <dc:title>Joaquín Urbano</dc:title>
     </cc:Agent>
    </dc:creator>
    <dc:rights>
     <cc:Agent>
      <dc:title>GPL</dc:title>
     </cc:Agent>
    </dc:rights>
   </cc:Work>
  </rdf:RDF>
 </metadata>
 <g id="layer1" fill="#333" transform="translate(0,-284.3)">
  <path id="rect901" d="m0.13281 0c-0.073448 0-0.13281 0.059362-0.13281 0.13281v47.734c0 0.074 0.059362 0.133 0.13281 0.133h47.734c0.074 0 0.133-0.059 0.133-0.133v-47.734c0-0.073638-0.059-0.133-0.133-0.133zm5.9512 4c0.044985 0.00011339 0.090709 0.017774 0.125 0.052734l1.8945 1.9375c0.032259 0.033679 0.050937 0.079426 0.050781 0.12695l-0.0039063 1.3008 0.64062 0.65625 0.002-0.5117c0.0008-0.2402 0.1611-0.4413 0.3769-0.5078l0.1211-1.2735c0.020358-0.21322 0.050392-0.21336 0.070312 0l0.11328 1.2754c0.21539 0.068162 0.37313 0.26957 0.37305 0.50977l-0.0019 0.5098 0.6443-0.6485 0.004-1.3027c0-0.0474 0.02-0.0916 0.053-0.125l1.9082-1.9238c0.068991-0.069933 0.17947-0.070023 0.24805 0 0.069499 0.070122 0.068906 0.18445 0 0.25391l-1.8555 1.8711-0.005859 1.3027c-0.00025297 0.047399-0.017778 0.091627-0.050781 0.125l-0.94531 0.95312v0.072265l-0.0039063 0.24219c0.8752 0.1611 2.6412 0.4884 3.7032 0.7129h0.001953c0.43688 0.092398 0.75589 0.167 0.84375 0.20508 0.38056 0.16511 0.34769 0.95236-0.48828 1.0684-0.63383 0.087836-1.2928 0.29598-1.8809 0.23438l1.853 2.807c0.054065 0.081804 0.033631 0.19308-0.046875 0.24805-0.030417 0.020258-0.063899 0.029394-0.097656 0.029297-0.056476-0.00013607-0.11273-0.027162-0.14648-0.078125l-1.887-2.853-0.197-0.297c-0.006799-0.005065-0.010801-0.005254-0.017578-0.007813-0.18127-0.092836-0.41343-0.21802-0.6582-0.35352l-0.001953 0.61523-0.001953 0.41406h0.001953l-0.006 1.515 0.309 0.748c-0.00010109 0.001353 0.00010624 0.003169 0 0.003906l1.1602 2.8066c0.037497 0.090901-0.00604 0.19637-0.095703 0.23438-0.022189 0.009751-0.045407 0.013775-0.068359 0.013672-0.068408-0.00029101-0.13209-0.041056-0.16016-0.10938l-0.961-2.327v-0.001953l-0.52148-1.2637c-0.009199-0.021997-0.013725-0.044473-0.013672-0.068359l0.003906-1.4531 0.003906-1.25c-0.021263-0.037395-0.04162-0.074591-0.064453-0.11133-0.20282-0.11432-0.39873-0.22721-0.56836-0.32422l-0.0058594 1.7988-0.0058594 1.2188c-0.0014 0.295-0.2375 0.535-0.5277 0.533-0.2902-0.001-0.5292-0.242-0.5274-0.537l0.0058594-1.2031 0.0058594-1.8145c-0.16107 0.090894-0.34719 0.19444-0.53906 0.30078-0.033915 0.057071-0.066002 0.11556-0.097656 0.17383l-0.0039063 1.2422-0.0039063 1.416c-0.0020368 0.023785-0.0068263 0.047749-0.015625 0.070312l-0.47266 1.1191v0.003l-1.0351 2.459c-0.028637 0.068054-0.093702 0.10964-0.16211 0.10938-0.022949 0.00022676-0.045777-0.006781-0.068359-0.015625-0.089273-0.038544-0.12991-0.14363-0.091797-0.23438l1.2441-2.9531 0.24805-0.59375 0.0078125-1.4668c-0.00071199-0.00022602-0.0031956 0.00022602-0.0039063 0l0.0019531-0.34766 0.0039063-0.73242c-0.24568 0.13373-0.48022 0.25822-0.66211 0.34961-0.0044538 0.005195-0.010848 0.007084-0.017578 0.009766l-0.23828 0.35547h-0.0019531l-1.8652 2.7773c-0.033971 0.050963-0.08805 0.07834-0.14453 0.078125-0.033978-0.00022678-0.067547-0.011256-0.097656-0.03125-0.080377-0.055714-0.10149-0.16658-0.046875-0.24805l1.8457-2.748c-0.019861-0.011943-0.040469-0.025796-0.060547-0.039062h-0.0019531c-0.5652 0.031-1.1877-0.162-1.789-0.25-0.8351-0.123-0.8621-0.9104-0.4805-1.0727 0.0785-0.0333 0.3401-0.0961 0.7051-0.1719 1.0416-0.2163 2.9313-0.5534 3.8477-0.7148v-0.3106l-0.9375-0.96094c-0.0323-0.0337-0.053-0.0794-0.0528-0.127l0.0039063-1.3008-1.8438-1.8867c-0.069278-0.070095-0.068906-0.1825 0-0.25195 0.034483-0.035713 0.080015-0.052782 0.125-0.052734zm0.48438 7.1426 0.029297-0.042969h-0.0019531zm28.891-7.143c0.044985 0.00011339 0.09071 0.017774 0.125 0.052734l1.8965 1.9375c0.032259 0.033679 0.050937 0.079426 0.050781 0.12695l-0.003906 1.3008 0.64062 0.65625 0.001953-0.51172c0.00082732-0.24024 0.15914-0.4413 0.375-0.50781l0.123-1.2735c0.020358-0.21322 0.050391-0.21336 0.070312 0l0.11328 1.2754c0.21539 0.068162 0.37313 0.26957 0.37305 0.50977l-0.001953 0.50977 0.64453-0.64844 0.004-1.3027c0-0.0474 0.02-0.0916 0.053-0.125l1.9082-1.9238c0.068991-0.069933 0.17947-0.070023 0.24805 0 0.069499 0.070122 0.068906 0.18445 0 0.25391l-1.855 1.8711-0.006 1.3027c-0.00025285 0.047399-0.019732 0.091627-0.052734 0.125l-0.94531 0.95312v0.072265l-0.001953 0.24219c0.87568 0.16111 2.6412 0.48841 3.7031 0.71289h0.001953c0.43688 0.092398 0.75393 0.167 0.8418 0.20508 0.38056 0.16511 0.34964 0.95236-0.48633 1.0684-0.63383 0.087836-1.2948 0.29598-1.8828 0.23438l1.8555 2.8066c0.054065 0.081804 0.033631 0.19308-0.046875 0.24805-0.030417 0.020258-0.065851 0.029394-0.099609 0.029297-0.056476-0.00013607-0.11078-0.027162-0.14453-0.078125l-1.8867-2.8555-0.001953 0.001953-0.19531-0.29688c-0.006799-0.005065-0.012755-0.005254-0.019531-0.007813-0.18127-0.092836-0.41148-0.21802-0.65625-0.35352l-0.001953 0.61523-0.001953 0.41406h0.001953l-0.005859 1.5156 0.30859 0.74805c-0.00010106 0.001353 0.00010625 0.003169 0 0.003906l1.1602 2.8066c0.037497 0.090901-0.00604 0.19637-0.095703 0.23438-0.022189 0.009751-0.045406 0.013775-0.068359 0.013672-0.068408-0.00029101-0.13404-0.041056-0.16211-0.10938l-0.95898-2.3262v-0.001953l-0.52148-1.2637c-0.009199-0.021997-0.013725-0.044473-0.013672-0.068359l0.003906-1.4531 0.003906-1.25c-0.021262-0.037395-0.041621-0.074591-0.064453-0.11133-0.20282-0.11432-0.39873-0.22721-0.56836-0.32422l-0.005859 1.7988-0.005859 1.2188c-0.001017 0.29458-0.23905 0.53448-0.5293 0.5332-0.29023-0.001109-0.52919-0.24251-0.52734-0.53711l0.005859-1.2031 0.005859-1.8145c-0.16107 0.090894-0.34523 0.19444-0.53711 0.30078-0.033915 0.057071-0.067955 0.11556-0.099609 0.17383l-0.003906 1.2422h0.001953l-0.003906 1.416c-0.002037 0.023785-0.006826 0.047749-0.015625 0.070312l-0.47266 1.1191v0.001l-1.0352 2.459c-0.028637 0.068054-0.093702 0.10964-0.16211 0.10938-0.022949 0.00022676-0.045777-0.006781-0.068359-0.015625-0.089273-0.038544-0.13186-0.14363-0.09375-0.23438l1.2441-2.9531 0.25-0.59375 0.005859-1.4668h-0.001953l0.001953-0.34766 0.001953-0.73242c-0.24568 0.13373-0.47827 0.25822-0.66016 0.34961-0.004454 0.005195-0.012801 0.007084-0.019531 0.009766l-0.23828 0.35547-1.8652 2.7773c-0.033971 0.050963-0.08805 0.07834-0.14453 0.078125-0.033978-0.00022678-0.0695-0.011256-0.099609-0.03125-0.080377-0.055714-0.099537-0.16658-0.044922-0.24805l1.8438-2.748c-0.019861-0.011943-0.038515-0.025796-0.058594-0.039062h-0.001953c-0.56524 0.029427-1.1878-0.16399-1.7891-0.25195-0.83512-0.12222-0.86213-0.90997-0.48047-1.0723 0.078475-0.033339 0.3401-0.096145 0.70508-0.17188 1.0416-0.21628 2.9313-0.55337 3.8477-0.71484v-0.3101l-0.938-0.9609c-0.033-0.0337-0.051-0.0794-0.051-0.127l0.003906-1.3008-1.8438-1.8867c-0.069278-0.070095-0.068906-0.1825 0-0.25195 0.034483-0.035713 0.078062-0.052782 0.12305-0.052734zm0.48438 7.1426 0.03125-0.042969c-0.00074845 0.00007104-0.003133-0.00004574-0.003906 0zm-18.742-0.77148c0.094628 0.00023055 0.18959 0.035856 0.26172 0.10938l3.9883 4.0762c0.067859 0.07084 0.1058 0.16565 0.10547 0.26562l-0.007813 2.7402 1.3477 1.377 0.003906-1.0742c0.001741-0.50535 0.33694-0.9304 0.79102-1.0703l0.25586-2.6777c0.042824-0.44851 0.10849-0.44881 0.15039 0l0.23633 2.6816c0.45308 0.14338 0.78534 0.56701 0.78516 1.0723l-0.003906 1.0742 1.3574-1.3633 0.005859-2.7402c0.00053477-0.099696 0.041432-0.19545 0.11133-0.26562l4.016-4.046c0.14513-0.14711 0.37917-0.1473 0.52344 0 0.14619 0.1475 0.14495 0.38515 0 0.53125l-3.904 3.938-0.012 2.74c-0.00053208 0.099696-0.039951 0.19351-0.10938 0.26367l-1.9883 2.0039v0.15234l-0.005859 0.50781c1.842 0.33889 5.5552 1.0317 7.7891 1.5039l0.003906-0.003906c0.919 0.19437 1.5886 0.35544 1.7734 0.43555 0.80053 0.34731 0.73115 2.0021-1.0273 2.2461-1.3333 0.18477-2.72 0.62178-3.957 0.49219l3.9023 5.9023c0.11373 0.17208 0.06974 0.40587-0.099609 0.52148-0.063983 0.042652-0.13602 0.064657-0.20703 0.064453-0.1188-0.00028345-0.23368-0.058809-0.30469-0.16602l-3.9707-6.0039-0.001953 0.001953-0.41211-0.62305c-0.014302-0.010734-0.024807-0.014164-0.039062-0.019531-0.38131-0.19529-0.86988-0.4591-1.3848-0.74414l-0.001953 1.2949-0.003906 0.87305h0.001953l-0.009766 3.1875 0.65039 1.5762c-0.00021263 0.002865 0.00022348 0.002356 0 0.003906l2.4375 5.9082c0.078877 0.19122-0.010609 0.4103-0.19922 0.49023-0.046676 0.020485-0.09625 0.029515-0.14453 0.029297-0.144-0.001-0.28-0.085-0.34-0.229l-2.019-4.894c0.00038756-0.002865-0.00039947-0.00238 0-0.003906l-1.0977-2.6562c-0.019351-0.04628-0.027455-0.09622-0.027344-0.14648l0.007813-3.0566 0.009766-2.6309c-0.044727-0.07866-0.088688-0.15711-0.13672-0.23438-0.42664-0.24049-0.83849-0.47367-1.1953-0.67773l-0.011719 3.7812-0.013672 2.5625c-0.00214 0.61967-0.50077 1.1238-1.1113 1.1211-0.6105-0.002332-1.1133-0.51115-1.1094-1.1309l0.013672-2.5293 0.011719-3.8145c-0.33882 0.1912-0.72919 0.40914-1.1328 0.63281-0.071341 0.12006-0.14045 0.24266-0.20703 0.36523l-0.007813 2.6133h0.001953l-0.009766 2.9785c-0.004285 0.050033-0.014695 0.099044-0.033203 0.14648l-0.99219 2.3535v0.003906l-2.1777 5.1758c-0.060239 0.14316-0.19594 0.22907-0.33984 0.22852-0.048275 0.00041575-0.097028-0.01457-0.14453-0.033203-0.18779-0.081084-0.27548-0.3013-0.19531-0.49219l2.6152-6.2148 0.52539-1.2461 0.013672-3.0859c-0.001498-0.00047469-0.002411-0.001478-0.003906-0.001953l0.003906-0.73047 0.003906-1.5391c-0.5168 0.2813-1.008 0.54214-1.3906 0.73438-0.009369 0.010961-0.022953 0.0139-0.037109 0.019531l-0.50195 0.75h-0.001953l-3.9238 5.8418c-0.071459 0.10713-0.18783 0.16452-0.30664 0.16406-0.071474-0.00044599-0.14174-0.024329-0.20508-0.066406-0.16908-0.11719-0.21254-0.35207-0.097656-0.52344l3.882-5.779c-0.041779-0.025164-0.082765-0.052223-0.125-0.080078h-0.001953c-1.189 0.061903-2.5008-0.34622-3.7656-0.53125-1.7567-0.2571-1.8146-1.9164-1.0117-2.2578 0.16508-0.070133 0.71662-0.19812 1.4844-0.35742 2.1911-0.45496 6.1662-1.1642 8.0938-1.5039v-0.657l-1.9746-2.0195c-0.067848-0.07084-0.10785-0.16565-0.10742-0.26562l0.007-2.74-3.879-3.966c-0.14573-0.14745-0.14495-0.38515 0-0.53125 0.072536-0.075084 0.16709-0.10947 0.26172-0.10938zm1.0176 15.023 0.0625-0.089844c-0.001574 0.00015005-0.002279-0.000096-0.003906 0zm-12.135 5.642c0.044985 0.00011337 0.090709 0.017774 0.125 0.052734l1.8945 1.9375c0.032259 0.033679 0.050937 0.077472 0.050781 0.125l-0.0039063 1.3027 0.64062 0.6543 0.0019531-0.50977c0.00082734-0.24024 0.16109-0.44325 0.37695-0.50977l0.12109-1.2734c0.020358-0.21322 0.050391-0.2114 0.070312 0.001953l0.11328 1.2734c0.21539 0.068162 0.37313 0.27153 0.37305 0.51172l-0.0019531 0.50977 0.64453-0.64844 0.003906-1.3027c0.00025399-0.047399 0.019505-0.09358 0.052734-0.12695l1.9082-1.9219c0.068991-0.069933 0.17947-0.070023 0.24805 0 0.069499 0.070122 0.068906 0.1825 0 0.25195l-1.8555 1.873-0.005859 1.3008c-0.00025286 0.047399-0.017778 0.09358-0.050781 0.12695l-0.94531 0.95312v0.070312l-0.0039063 0.24219c0.87568 0.16111 2.6412 0.49037 3.7031 0.71484l0.001953-0.001953c0.43688 0.092398 0.75589 0.16895 0.84375 0.20703 0.38056 0.16511 0.34769 0.95236-0.48828 1.0684-0.63383 0.087836-1.2928 0.29598-1.8809 0.23438l1.853 2.804c0.054065 0.081804 0.033631 0.19504-0.046875 0.25-0.030417 0.020258-0.063898 0.029394-0.097656 0.029297-0.056476-0.00013606-0.11273-0.029115-0.14648-0.080078l-1.887-2.851-0.197-0.297c-0.006799-0.005065-0.010801-0.005254-0.017578-0.007813-0.18127-0.092836-0.41343-0.21997-0.6582-0.35547l-0.001953 0.61719-0.001953 0.41406h0.001953l-0.005859 1.5156 0.309 0.747v0.001953l1.1602 2.8086c0.037497 0.090901-0.00604 0.19637-0.095703 0.23438-0.022189 0.009751-0.045406 0.013775-0.068359 0.013672-0.068408-0.00029102-0.13209-0.041056-0.16016-0.10938l-0.961-2.327v-0.002l-0.52148-1.2637c-0.009199-0.021997-0.013725-0.044473-0.013672-0.068359l0.003906-1.4531 0.003906-1.252c-0.021262-0.037395-0.041621-0.074591-0.064453-0.11133-0.20282-0.11432-0.39873-0.22526-0.56836-0.32227l-0.0058594 1.7988-0.0058594 1.2188c-0.0010174 0.29458-0.23709 0.53253-0.52734 0.53125-0.29023-0.001109-0.52919-0.24251-0.52734-0.53711l0.0058594-1.2012 0.0058594-1.8145c-0.16107 0.090894-0.34719 0.19444-0.53906 0.30078-0.033915 0.057071-0.066002 0.11556-0.097656 0.17383l-0.0039063 1.2422-0.0039063 1.416c-0.0020368 0.023785-0.0068263 0.047749-0.015625 0.070312l-0.47266 1.1191-1.0352 2.4609c-0.028637 0.068054-0.093702 0.10964-0.16211 0.10938-0.022949 0.00022677-0.045777-0.006781-0.068359-0.015625-0.089273-0.038544-0.12991-0.14363-0.091797-0.23438l1.2441-2.9551 0.24805-0.5918 0.0078125-1.4668c-0.00071199-0.00022602-0.0031956 0.000226-0.0039063 0l0.0019531-0.34766 0.0039063-0.73242c-0.24568 0.13373-0.48022 0.25822-0.66211 0.34961-0.0044538 0.005195-0.010848 0.005131-0.017578 0.007813l-0.2386 0.36h-0.0019531l-1.8652 2.7773c-0.033971 0.050963-0.08805 0.07834-0.14453 0.078125-0.033978-0.00022677-0.067547-0.011256-0.097656-0.03125-0.080377-0.055714-0.10149-0.16854-0.046875-0.25l1.8458-2.746c-0.0199-0.012-0.0405-0.026-0.0606-0.039h-0.0019c-0.5653 0.029-1.1878-0.164-1.7891-0.252-0.8351-0.123-0.8621-0.912-0.4805-1.075 0.0785-0.033 0.3401-0.094 0.7051-0.169 1.0416-0.217 2.9313-0.554 3.8477-0.715v-0.31055l-0.9375-0.96094c-0.0323-0.033-0.053-0.079-0.0528-0.127l0.0039063-1.3027-1.8438-1.8848c-0.069278-0.070095-0.068906-0.1825 0-0.25195 0.034483-0.035713 0.080015-0.052782 0.125-0.052734zm0.48438 7.1426 0.029297-0.042969h-0.0019531zm28.891-7.143c0.044985 0.00011337 0.09071 0.017774 0.125 0.052734l1.8965 1.9375c0.032259 0.033679 0.050937 0.077472 0.050781 0.125l-0.003906 1.3027 0.64062 0.6543 0.001953-0.50977c0.00082732-0.24024 0.15914-0.44325 0.375-0.50977l0.12305-1.2734c0.020358-0.21322 0.050391-0.2114 0.070312 0.001953l0.11328 1.2734c0.21539 0.068162 0.37313 0.27153 0.37305 0.51172l-0.001953 0.50977 0.64453-0.64844 0.003906-1.3027c0.00025398-0.047399 0.019505-0.09358 0.052734-0.12695l1.9082-1.9219c0.068991-0.069933 0.17947-0.070023 0.24805 0 0.069499 0.070122 0.068906 0.1825 0 0.25195l-1.8555 1.873-0.005859 1.3008c-0.00025285 0.047399-0.019732 0.09358-0.052734 0.12695l-0.94531 0.95312v0.070312l-0.001953 0.24219c0.87568 0.16111 2.6412 0.49037 3.7031 0.71484l0.001953-0.001953c0.43688 0.092398 0.75393 0.16895 0.8418 0.20703 0.38056 0.16511 0.34964 0.95236-0.48633 1.0684-0.63383 0.087836-1.2948 0.29598-1.8828 0.23438l1.8555 2.8047c0.054065 0.081804 0.033631 0.19504-0.046875 0.25-0.030417 0.020258-0.065851 0.029394-0.099609 0.029297-0.056476-0.00013606-0.11078-0.029115-0.14453-0.080078l-1.8867-2.8535-0.001953 0.001953-0.19531-0.29688c-0.006799-0.005065-0.012755-0.005254-0.019531-0.007813-0.18127-0.092836-0.41148-0.21997-0.65625-0.35547l-0.001953 0.61719-0.001953 0.41406h0.001953l-0.005859 1.5156 0.30859 0.74805v0.001953l1.1602 2.8086c0.037497 0.090901-0.00604 0.19637-0.095703 0.23438-0.022189 0.009751-0.045406 0.013775-0.068359 0.013672-0.068408-0.00029102-0.13404-0.041056-0.16211-0.10938l-0.959-2.329v-0.002l-0.52148-1.2637c-0.009199-0.021997-0.013725-0.044473-0.013672-0.068359l0.003906-1.4531 0.003906-1.252c-0.021262-0.037395-0.041621-0.074591-0.064453-0.11133-0.20282-0.11432-0.39873-0.22526-0.56836-0.32227l-0.005859 1.7988-0.005859 1.2188c-0.001017 0.29458-0.23905 0.53253-0.5293 0.53125-0.29023-0.001109-0.52919-0.24251-0.52734-0.53711l0.005859-1.2012 0.005859-1.8145c-0.16107 0.090894-0.34523 0.19444-0.53711 0.30078-0.033915 0.057071-0.067955 0.11556-0.099609 0.17383l-0.003906 1.2422h0.001953l-0.003906 1.416c-0.002037 0.023785-0.006826 0.047749-0.015625 0.070312l-0.47266 1.1191-1.0352 2.4609c-0.028637 0.068054-0.093702 0.10964-0.16211 0.10938-0.022949 0.00022677-0.045777-0.006781-0.068359-0.015625-0.089273-0.038544-0.13186-0.14363-0.09375-0.23438l1.2441-2.9551 0.25-0.5918 0.005859-1.4668h-0.001953l0.001953-0.34766 0.001953-0.73242c-0.24568 0.13373-0.47827 0.25822-0.66016 0.34961-0.004454 0.005195-0.012801 0.005131-0.019531 0.007813l-0.23828 0.35742-1.8652 2.7773c-0.033971 0.050963-0.08805 0.07834-0.14453 0.078125-0.033978-0.00022677-0.0695-0.011256-0.099609-0.03125-0.080377-0.055714-0.099537-0.16854-0.044922-0.25l1.8438-2.7461c-0.019861-0.011943-0.038515-0.025796-0.058594-0.039062h-0.001953c-0.56524 0.029427-1.1878-0.16399-1.7891-0.25195-0.83512-0.12222-0.86213-0.91193-0.48047-1.0742 0.078475-0.033339 0.3401-0.094192 0.70508-0.16992 1.0416-0.21628 2.9313-0.55337 3.8477-0.71484v-0.31055l-0.93945-0.96094c-0.032254-0.033676-0.050985-0.079426-0.050781-0.12695l0.003906-1.3027-1.8438-1.8848c-0.069278-0.070095-0.068906-0.1825 0-0.25195 0.034483-0.035713 0.078062-0.052782 0.12305-0.052734zm0.48438 7.1426 0.03125-0.042969c-0.00074845 0.00007106-0.003133-0.00004573-0.003906 0z" fill-rule="evenodd" transform="matrix(.26458 0 0 .26458 0 284.3)"/>
 </g>
</svg>
