<svg width="48" height="48" viewBox="0 0 48 48" fill="none" xmlns="http://www.w3.org/2000/svg">
<path fill-rule="evenodd" clip-rule="evenodd" d="M23.9999 4.00635C12.9542 4.00635 3.99976 12.9609 3.99976 24.0065C3.99976 35.0522 12.9542 44.0066 23.9999 44.0066C35.0456 44.0066 44 35.0522 44 24.0065C44 12.9609 35.0456 4.00635 23.9999 4.00635ZM23.9999 4.524C34.7602 4.524 43.4822 13.246 43.4822 24.0063C43.4822 34.7666 34.7602 43.4886 23.9999 43.4886C13.2396 43.4886 4.51755 34.7666 4.51755 24.0063C4.51755 13.246 13.2396 4.524 23.9999 4.524ZM29.2969 8.8852C29.0672 8.89539 28.8489 8.94175 28.6445 9.02384C27.6927 9.40401 27.0872 10.5374 26.9612 12.1746C26.8352 13.8119 27.199 15.8189 27.9727 17.7542C28.356 18.7127 28.8285 19.6246 29.3631 20.4379C29.8977 21.2511 30.4839 21.9497 31.0883 22.4938C31.6926 23.038 32.3033 23.4169 32.8854 23.6091C33.4674 23.8012 34.0095 23.8027 34.4806 23.6136C35.4319 23.2326 36.0368 22.0989 36.1624 20.4617C36.288 18.8246 35.9241 16.818 35.1505 14.8832C34.4626 13.1633 33.498 11.6183 32.4271 10.5209C31.3561 9.42341 30.2476 8.84402 29.2972 8.88509L29.2969 8.8852ZM29.5 9.39097C30.3274 9.42226 31.2935 10.0057 32.2343 11.0423C33.1752 12.0789 34.0329 13.505 34.6621 15.0785C35.0204 15.9743 35.2948 16.8935 35.4696 17.7836C35.6444 18.6737 35.7161 19.5172 35.6808 20.266C35.6454 21.0148 35.5036 21.654 35.2634 22.1473C35.0233 22.6406 34.6895 22.9782 34.2812 23.1409C33.4575 23.4701 32.3802 23.0677 31.2865 22.022C30.1928 20.9762 29.1721 19.3728 28.449 17.5646C28.0908 16.669 27.8164 15.7502 27.6416 14.8603C27.4667 13.9704 27.3948 13.1269 27.43 12.3782C27.4652 11.6295 27.6068 10.9901 27.8466 10.4966C28.0865 10.0032 28.4199 9.66526 28.8279 9.50216C29.0353 9.41905 29.2604 9.38178 29.4998 9.39086L29.5 9.39097ZM19.0235 9.62731C18.1019 9.66997 17.0111 10.0958 15.8874 10.8513C14.7636 11.6069 13.6568 12.6588 12.7053 13.8756C12.0696 14.6886 11.5189 15.5552 11.0847 16.4259C10.6505 17.2966 10.3412 18.1544 10.1745 18.9503C10.0078 19.7461 9.98702 20.4645 10.1133 21.0643C10.2395 21.6641 10.5104 22.1335 10.9104 22.446C11.7176 23.0775 13.0018 23.031 14.4805 22.3168C15.9592 21.6025 17.5112 20.279 18.7952 18.6374C19.4309 17.8243 19.9816 16.9578 20.4158 16.087C20.8501 15.2163 21.1593 14.3585 21.326 13.5627C21.4927 12.7668 21.5135 12.0485 21.3872 11.4487C21.261 10.8489 20.9901 10.3793 20.5902 10.0669C20.1833 9.74818 19.6506 9.59874 19.0238 9.62743L19.0235 9.62731ZM19.004 10.1117C19.5124 10.0901 19.941 10.2107 20.2677 10.4672C20.6138 10.7378 20.8394 11.1554 20.9318 11.6961C21.0242 12.2368 20.9815 12.8902 20.8061 13.6187C20.6307 14.3473 20.3261 15.1368 19.9097 15.9422C19.4932 16.7476 18.9731 17.5531 18.379 18.3128C17.1793 19.8467 15.7511 21.1007 14.4087 21.7988C13.0664 22.4969 11.9197 22.5819 11.221 22.0353C10.8746 21.765 10.6486 21.3477 10.5559 20.8071C10.4632 20.2665 10.5057 19.6132 10.6809 18.8847C10.8561 18.1561 11.1606 17.3665 11.577 16.561C11.9934 15.7554 12.5135 14.9497 13.1077 14.1899C14.0192 13.0242 15.0699 12.011 16.1221 11.2833C17.1742 10.5556 18.1788 10.1473 19.0041 10.1117H19.004ZM30.047 11.4028C30.0054 11.4019 29.9637 11.4026 29.922 11.4047C29.6925 11.4167 29.4675 11.4738 29.26 11.5728C29.0525 11.6717 28.8665 11.8106 28.7127 11.9814C28.5589 12.1523 28.4403 12.3518 28.3636 12.5685C28.2869 12.7853 28.2537 13.015 28.2658 13.2446C28.2905 13.7079 28.4982 14.1423 28.8432 14.4525C29.1882 14.7627 29.6423 14.9233 30.1056 14.8988C30.5689 14.8746 31.0036 14.6674 31.3142 14.3228C31.6248 13.9781 31.7858 13.5242 31.7619 13.0609C31.7387 12.6189 31.5489 12.202 31.2307 11.8944C30.9125 11.5867 30.4896 11.4111 30.047 11.4028ZM17.7893 11.7016C17.5137 11.7156 17.2453 11.7946 17.0061 11.9321C16.8066 12.0463 16.6317 12.1986 16.4911 12.3805C16.3506 12.5624 16.2473 12.7703 16.1871 12.9921C16.1269 13.2139 16.1109 13.4454 16.1402 13.6734C16.1695 13.9014 16.2433 14.1213 16.3576 14.3207C16.5887 14.7231 16.9701 15.0173 17.4181 15.1386C17.866 15.2598 18.3438 15.1982 18.7463 14.9672C18.9457 14.8529 19.1207 14.7005 19.2612 14.5186C19.4017 14.3367 19.5051 14.129 19.5653 13.9072C19.6255 13.6854 19.6414 13.4538 19.6122 13.2259C19.5829 12.9979 19.509 12.778 19.3947 12.5786C19.2341 12.2985 18.9991 12.0683 18.7157 11.9135C18.4324 11.7587 18.1117 11.6854 17.7893 11.7015V11.7016ZM29.9495 11.9223C30.2753 11.9053 30.5945 12.0184 30.8369 12.2367C31.0794 12.455 31.2253 12.7605 31.2425 13.0863C31.2512 13.2478 31.2279 13.4094 31.1741 13.5619C31.1203 13.7143 31.0369 13.8548 30.9288 13.975C30.8207 14.0953 30.69 14.1931 30.544 14.2628C30.3981 14.3325 30.2399 14.3727 30.0784 14.3812C29.7527 14.3982 29.4335 14.2851 29.191 14.0668C28.9486 13.8486 28.8027 13.543 28.7855 13.2172C28.7768 13.0557 28.8001 12.8941 28.8539 12.7417C28.9077 12.5892 28.9911 12.4488 29.0992 12.3285C29.2073 12.2082 29.338 12.1104 29.4839 12.0407C29.6298 11.971 29.788 11.9308 29.9495 11.9223ZM17.8497 12.2192C18.0707 12.2144 18.2888 12.2692 18.4813 12.3778C18.6737 12.4864 18.8334 12.6448 18.9435 12.8364C19.1058 13.1195 19.1491 13.4554 19.0638 13.7704C18.9784 14.0854 18.7715 14.3537 18.4884 14.5161C18.2053 14.6784 17.8693 14.7216 17.5543 14.6363C17.2393 14.5509 16.9711 14.344 16.8087 14.0609C16.6464 13.7778 16.6031 13.4419 16.6884 13.1269C16.7738 12.8119 16.9807 12.5436 17.2638 12.3812C17.4425 12.279 17.6439 12.2233 17.8497 12.2192ZM13.9886 15.641C13.5846 15.6608 13.1911 15.776 12.8401 15.977C12.5482 16.1445 12.2922 16.3678 12.0866 16.6342C11.881 16.9007 11.73 17.2049 11.642 17.5297C11.554 17.8546 11.5309 18.1936 11.574 18.5273C11.617 18.8611 11.7254 19.1831 11.8929 19.475C12.0603 19.7669 12.2837 20.0229 12.5501 20.2285C12.8165 20.4341 13.1209 20.5852 13.4457 20.6732C13.7705 20.7611 14.1095 20.7843 14.4432 20.7412C14.777 20.6982 15.099 20.5898 15.3909 20.4223C15.6828 20.2548 15.9388 20.0314 16.1444 19.765C16.35 19.4985 16.5011 19.1943 16.589 18.8694C16.677 18.5446 16.7001 18.2056 16.6571 17.8718C16.614 17.5381 16.5057 17.2161 16.3382 16.9242C16.1029 16.5145 15.7589 16.1779 15.3442 15.9514C14.9296 15.7249 14.4604 15.6175 13.9885 15.641H13.9886ZM32.6039 16.0883C32.5433 16.0875 32.4827 16.0888 32.4222 16.0922C32.0861 16.1097 31.7567 16.1932 31.4528 16.338C31.149 16.4829 30.8766 16.6862 30.6514 16.9363C30.4261 17.1864 30.2523 17.4784 30.1399 17.7957C30.0276 18.113 29.9788 18.4494 29.9965 18.7856C30.0323 19.4641 30.3362 20.1006 30.8413 20.5552C31.3463 21.0097 32.0113 21.245 32.6898 21.2094C33.026 21.1919 33.3554 21.1083 33.6593 20.9635C33.9631 20.8186 34.2354 20.6153 34.4607 20.3652C34.686 20.1151 34.8598 19.8231 34.9721 19.5058C35.0845 19.1885 35.1333 18.8522 35.1156 18.516C35.0816 17.8687 34.8036 17.2583 34.3375 16.8078C33.8715 16.3573 33.252 16.1001 32.6039 16.0882V16.0883ZM14.0747 16.1684C14.4392 16.1613 14.7989 16.2524 15.1161 16.4321C15.4332 16.6119 15.6962 16.8735 15.8775 17.1898C16.1449 17.6572 16.2158 18.2115 16.0749 18.7311C15.9339 19.2508 15.5924 19.6933 15.1255 19.9614C14.6582 20.2288 14.1039 20.2997 13.5842 20.1587C13.0646 20.0177 12.6222 19.6764 12.354 19.2095C12.0867 18.7421 12.0157 18.1878 12.1567 17.6681C12.2976 17.1485 12.6391 16.706 13.106 16.4379C13.4012 16.2683 13.7343 16.1756 14.0747 16.1684ZM32.653 16.6215C33.1562 16.6458 33.6324 16.8559 33.9893 17.2114C34.3462 17.5669 34.5584 18.0423 34.5847 18.5453C34.6126 19.0832 34.4259 19.6101 34.0655 20.0104C33.7051 20.4107 33.2006 20.6516 32.6628 20.6801C32.1249 20.708 31.5979 20.5213 31.1977 20.1609C30.7974 19.8006 30.5565 19.296 30.528 18.7581C30.5001 18.2203 30.6868 17.6933 31.0472 17.2931C31.4075 16.8928 31.9121 16.6519 32.4499 16.6234C32.5175 16.6193 32.5853 16.6187 32.653 16.6214V16.6215ZM25.8914 25.1625C24.8667 25.1524 24.0796 25.4575 23.6239 26.0414C22.9923 26.8486 23.0388 28.1328 23.7531 29.6115C24.4673 31.0902 25.7908 32.6422 27.4325 33.9262C28.2455 34.5619 29.1122 35.1126 29.9829 35.5469C30.8536 35.9811 31.7114 36.2903 32.5072 36.457C33.3031 36.6237 34.0214 36.6445 34.6212 36.5183C35.221 36.392 35.6905 36.1211 36.003 35.7211C36.6345 34.9139 36.588 33.6296 35.8738 32.151C35.1595 30.6723 33.836 29.1202 32.1943 27.8362C31.1573 27.0253 30.0367 26.3555 28.9354 25.8883C27.8342 25.4212 26.7875 25.1716 25.8916 25.1625H25.8914ZM25.7293 25.6409C26.5519 25.6148 27.5571 25.8422 28.6393 26.2993C29.7215 26.7564 30.8409 27.4263 31.8798 28.2387C32.6397 28.8329 33.3388 29.4896 33.9373 30.1711C34.5357 30.8526 35.0216 31.5457 35.3673 32.2107C35.713 32.8757 35.9117 33.4994 35.9521 34.0465C35.9924 34.5935 35.8736 35.0532 35.6024 35.399C35.3318 35.7451 34.9142 35.9707 34.3735 36.0631C33.8327 36.1555 33.1795 36.1128 32.4509 35.9374C31.7224 35.762 30.9329 35.4574 30.1275 35.041C29.3221 34.6245 28.5165 34.1044 27.7569 33.5103C26.223 32.3108 24.9689 30.8829 24.2704 29.5405C23.5719 28.1982 23.4863 27.0513 24.0323 26.3523C24.3774 25.9099 24.961 25.6654 25.7295 25.6413L25.7293 25.6409ZM14.2978 25.8851C14.0681 25.8953 13.8498 25.9417 13.6454 26.0238C12.6936 26.4039 12.0881 27.5373 11.9621 29.1746C11.8361 30.8118 12.1999 32.8188 12.9735 34.7541C13.3569 35.7126 13.8294 36.6245 14.364 37.4378C14.8986 38.251 15.4848 38.9497 16.0892 39.4939C16.6935 40.038 17.3042 40.4169 17.8863 40.609C18.4683 40.8011 19.0104 40.8026 19.4815 40.6135C20.4327 40.2325 21.0377 39.0988 21.1633 37.4617C21.2889 35.8245 20.925 33.818 20.1514 31.8832C19.4635 30.1633 18.4989 28.6182 17.428 27.5208C16.357 26.4233 15.2485 25.8441 14.2981 25.8851H14.2978ZM14.5009 26.391C15.3283 26.4223 16.2943 27.0056 17.2352 28.0422C18.176 29.0788 19.0338 30.5049 19.663 32.0784C20.0213 32.9742 20.2957 33.8935 20.4705 34.7836C20.6453 35.6738 20.717 36.5173 20.6816 37.266C20.6463 38.0148 20.5045 38.6541 20.2643 39.1474C20.0242 39.6407 19.6904 39.9783 19.2821 40.1409C18.4583 40.4702 17.3811 40.0676 16.2874 39.0219C15.1936 37.9761 14.173 36.3728 13.4499 34.5646C13.0917 33.6691 12.8173 32.7501 12.6424 31.8602C12.4676 30.9703 12.3957 30.1268 12.4309 29.3781C12.4661 28.6294 12.6077 27.9902 12.8475 27.4967C13.0874 27.0032 13.4208 26.6652 13.8288 26.5021C14.0362 26.419 14.2613 26.3817 14.5007 26.3908L14.5009 26.391ZM27.7508 26.7015C27.2604 26.683 26.775 26.8057 26.3524 27.055C26.0627 27.2262 25.8095 27.4529 25.6074 27.7219C25.4052 27.991 25.2581 28.2972 25.1743 28.6231C25.0905 28.949 25.0717 29.2882 25.119 29.6214C25.1663 29.9546 25.2788 30.2752 25.45 30.5649C25.6212 30.8546 25.8478 31.1077 26.1168 31.3099C26.3859 31.512 26.6921 31.6591 27.018 31.7429C27.3439 31.8267 27.6831 31.8456 28.0163 31.7982C28.3495 31.7509 28.6701 31.6384 28.9598 31.4672C29.2495 31.296 29.5026 31.0695 29.7048 30.8004C29.9069 30.5314 30.0541 30.2252 30.1379 29.8993C30.2217 29.5733 30.2404 29.234 30.1931 28.9008C30.1458 28.5677 30.0334 28.2472 29.8621 27.9575C29.6436 27.5881 29.3357 27.2794 28.9668 27.06C28.5979 26.8406 28.1798 26.7173 27.7508 26.7015ZM27.5887 27.2328C27.9529 27.2207 28.3138 27.3068 28.6333 27.482C28.9529 27.6573 29.2195 27.9152 29.4051 28.2289C29.6785 28.6928 29.7566 29.2464 29.6222 29.7679C29.4878 30.2894 29.1519 30.7361 28.6883 31.0101C28.2246 31.2837 27.6712 31.3621 27.1498 31.2281C26.6283 31.0941 26.1814 30.7585 25.9071 30.2952C25.6329 29.8313 25.5541 29.2776 25.6882 28.7556C25.8222 28.2337 26.1581 27.7863 26.6219 27.512C26.9157 27.3393 27.2481 27.2433 27.5887 27.2328ZM15.2292 28.5063C14.7651 28.5063 14.32 28.6905 13.9918 29.0187C13.6636 29.3469 13.4793 29.7921 13.4793 30.2562C13.4793 30.7204 13.6636 31.1654 13.9918 31.4936C14.32 31.8218 14.7651 32.0062 15.2292 32.0062C15.6934 32.0062 16.1385 31.8218 16.4667 31.4936C16.7949 31.1654 16.9792 30.7204 16.9792 30.2562C16.9792 29.7921 16.7949 29.3469 16.4667 29.0187C16.1385 28.6905 15.6934 28.5063 15.2292 28.5063ZM15.2292 29.0258C15.5556 29.0258 15.8685 29.1555 16.0992 29.3862C16.33 29.6169 16.4596 29.9299 16.4597 30.2562C16.4596 30.5826 16.33 30.8955 16.0992 31.1263C15.8685 31.357 15.5556 31.4866 15.2292 31.4867C14.9029 31.4866 14.59 31.357 14.3593 31.1263C14.1285 30.8955 13.9989 30.5826 13.9988 30.2562C13.9989 29.9299 14.1285 29.6169 14.3593 29.3862C14.59 29.1555 14.9029 29.0258 15.2292 29.0258ZM32.5183 31.2113C32.1833 31.1989 31.8518 31.2829 31.5632 31.4535C31.164 31.6898 30.8748 32.0749 30.7595 32.5243C30.6441 32.9737 30.7119 33.4505 30.948 33.8499C31.184 34.2496 31.569 34.5391 32.0184 34.6548C32.4679 34.7705 32.9448 34.7031 33.3445 34.4671C33.7438 34.2308 34.0329 33.8457 34.1482 33.3963C34.2636 32.9469 34.1958 32.4701 33.9597 32.0707C33.8107 31.8181 33.6006 31.6071 33.3487 31.4569C33.0969 31.3068 32.8113 31.2223 32.5183 31.2113ZM32.4129 31.7309C32.6334 31.7237 32.8519 31.7758 33.0453 31.882C33.2388 31.9882 33.4001 32.1444 33.5125 32.3344C33.6785 32.6154 33.7261 32.9508 33.6447 33.2669C33.5634 33.583 33.3599 33.8539 33.0789 34.02C32.798 34.1853 32.4631 34.2325 32.1474 34.1512C31.8318 34.0699 31.5613 33.8667 31.3953 33.5863C31.2293 33.3053 31.1817 32.9698 31.263 32.6537C31.3443 32.3376 31.5479 32.0668 31.8289 31.9008C32.0063 31.7962 32.207 31.7378 32.4129 31.7309ZM17.4792 33.3187C17.1427 33.3187 16.8095 33.3851 16.4986 33.5138C16.1877 33.6426 15.9052 33.8313 15.6672 34.0692C15.4293 34.3072 15.2405 34.5897 15.1118 34.9006C14.983 35.2115 14.9167 35.5447 14.9167 35.8812C14.9167 36.5608 15.1867 37.2126 15.6672 37.6931C16.1478 38.1737 16.7996 38.4437 17.4792 38.4437C17.8157 38.4437 18.1489 38.3774 18.4598 38.2486C18.7707 38.1199 19.0532 37.9311 19.2911 37.6931C19.5291 37.4552 19.7178 37.1728 19.8466 36.8619C19.9754 36.551 20.0417 36.2177 20.0417 35.8812C20.0417 35.5447 19.9754 35.2115 19.8466 34.9006C19.7178 34.5897 19.5291 34.3072 19.2911 34.0692C19.0532 33.8313 18.7707 33.6426 18.4598 33.5138C18.1489 33.3851 17.8157 33.3187 17.4792 33.3187ZM17.4792 33.8499C18.0178 33.8502 18.5343 34.0644 18.9152 34.4452C19.2961 34.8261 19.5102 35.3426 19.5104 35.8812C19.5102 36.4199 19.2961 36.9364 18.9152 37.3172C18.5343 37.6981 18.0178 37.9122 17.4792 37.9124C16.9405 37.9122 16.424 37.6981 16.0432 37.3172C15.6623 36.9364 15.4482 36.4199 15.4479 35.8812C15.4482 35.3426 15.6623 34.8261 16.0432 34.4452C16.424 34.0644 16.9405 33.8502 17.4792 33.8499Z" fill="#333333"/>
</svg>
