<?xml version="1.0" encoding="UTF-8" standalone="no"?>
<!-- Created with Inkscape (http://www.inkscape.org/) -->
<svg id="svg8" xmlns:rdf="http://www.w3.org/1999/02/22-rdf-syntax-ns#" xmlns="http://www.w3.org/2000/svg" xmlns:osb="http://www.openswatchbook.org/uri/2009/osb" height="48" width="48" version="1.1" xmlns:cc="http://creativecommons.org/ns#" viewBox="0 0 12.7 12.7" xmlns:dc="http://purl.org/dc/elements/1.1/">
 <title id="title4753">UIO-icon</title>
 <metadata id="metadata5">
  <rdf:RDF>
   <cc:Work rdf:about="">
    <dc:format>image/svg+xml</dc:format>
    <dc:type rdf:resource="http://purl.org/dc/dcmitype/StillImage"/>
    <dc:title>UIO-icon</dc:title>
    <dc:creator>
     <cc:Agent>
      <dc:title>Joaquín Urbano</dc:title>
     </cc:Agent>
    </dc:creator>
    <dc:rights>
     <cc:Agent>
      <dc:title>GPL</dc:title>
     </cc:Agent>
    </dc:rights>
   </cc:Work>
  </rdf:RDF>
 </metadata>
 <g id="layer1" fill="#333" transform="translate(0,-284.3)">
  <path id="path1086" d="m22.689 4.0469a20 20 0 0 0 -0.199 0.0156c0.067-0.005 0.133-0.0113 0.199-0.0156zm-2.044 0.2383a20 20 0 0 0 -0.096 0.0175c0.032-0.0055 0.064-0.0121 0.096-0.0175zm3.355 0.2324c-10.76 0-19.482 8.7224-19.482 19.482-0.0004 10.76 8.722 19.482 19.482 19.482s19.482-8.722 19.482-19.482-8.722-19.482-19.482-19.482zm-4.848 0.0976a20 20 0 0 0 -0.718 0.1856c0.237-0.0686 0.478-0.1256 0.718-0.1856zm-1.935 0.5899a20 20 0 0 0 -0.662 0.2422c0.217-0.0874 0.441-0.1624 0.662-0.2422zm-1.811 0.7558a20 20 0 0 0 -0.656 0.3164c0.215-0.1123 0.437-0.2117 0.656-0.3164zm-1.687 0.9082a20 20 0 0 0 -0.694 0.42c0.226-0.1484 0.462-0.2806 0.694-0.42zm21.537 0.6016c0.145 0.0987 0.278 0.2121 0.42 0.3145a20 20 0 0 0 -0.42 -0.3145zm-23.184 0.5039a20 20 0 0 0 -0.619 0.4609c0.2-0.1614 0.413-0.3071 0.619-0.4609zm24.74 0.6738c0.188 0.1568 0.362 0.3288 0.543 0.4922a20 20 0 0 0 -0.543 -0.4922zm-7.515 0.2305c1.962-0.0848 4.433 2.4471 5.853 5.9981 1.611 4.03 1.311 7.939-0.671 8.73-1.982 0.793-4.895-1.83-6.506-5.859-1.611-4.03-1.311-7.9386 0.672-8.7304 0.204-0.0821 0.422-0.1285 0.652-0.1387zm-18.752 0.3535a20 20 0 0 0 -0.5704 0.5196c0.1834-0.1805 0.3804-0.3463 0.5704-0.5196zm8.476 0.3887c0.628-0.0291 1.162 0.1204 1.569 0.4399 1.682 1.314 0.878 5.151-1.795 8.57-2.674 3.418-6.204 5.123-7.885 3.808-1.6818-1.314-0.878-5.151 1.795-8.57 1.945-2.487 4.432-4.1597 6.316-4.2479zm19.227 0.3535c0.18 0.1834 0.346 0.3804 0.52 0.5704a20 20 0 0 0 -0.52 -0.5704zm-29.107 0.6704a20 20 0 0 0 -0.4922 0.543c0.1568-0.188 0.3288-0.362 0.4922-0.543zm20.906 0.751c-0.042 0-0.083 0-0.125 0.002-0.966 0.051-1.707 0.875-1.656 1.84s0.875 1.706 1.839 1.655c0.965-0.051 1.707-0.874 1.657-1.838-0.048-0.917-0.797-1.641-1.715-1.659zm9.517 0.057c0.162 0.2 0.308 0.413 0.461 0.619a20 20 0 0 0 -0.461 -0.619zm-21.777 0.242c-0.275 0.014-0.544 0.093-0.783 0.231-0.838 0.481-1.128 1.55-0.647 2.388 0.482 0.839 1.551 1.128 2.389 0.647s1.128-1.551 0.647-2.389c-0.328-0.571-0.948-0.91-1.606-0.877zm12.162 0.221c0.679-0.035 1.257 0.486 1.293 1.164 0.037 0.679-0.485 1.259-1.164 1.295-0.678 0.035-1.257-0.486-1.293-1.164-0.036-0.679 0.485-1.259 1.164-1.295zm-12.099 0.297c0.45-0.01 0.869 0.227 1.093 0.617 0.338 0.59 0.135 1.342-0.455 1.68-0.589 0.338-1.341 0.134-1.679-0.455-0.338-0.59-0.135-1.342 0.455-1.68 0.178-0.102 0.38-0.158 0.586-0.162zm-10.065 0.111a20 20 0 0 0 -0.3145 0.42c0.0987-0.145 0.2121-0.278 0.3145-0.42zm32.926 0.701c0.148 0.226 0.28 0.462 0.42 0.694a20 20 0 0 0 -0.42 -0.694zm1.012 1.725c0.112 0.215 0.211 0.437 0.316 0.656a20 20 0 0 0 -0.316 -0.656zm0.83 1.805c0.087 0.217 0.162 0.441 0.242 0.662a20 20 0 0 0 -0.242 -0.662zm0.646 1.879c0.069 0.237 0.126 0.478 0.186 0.718a20 20 0 0 0 -0.186 -0.718zm0.498 2.115l0.018 0.096a20 20 0 0 0 -0.018 -0.096zm0.241 1.941c0.004 0.067 0.011 0.133 0.015 0.199a20 20 0 0 0 -0.015 -0.199zm-18.047 2.666c1.82 0.019 4.195 1.026 6.302 2.674 3.419 2.674 5.124 6.204 3.809 7.885-1.314 1.682-5.151 0.878-8.57-1.795-3.419-2.674-5.124-6.204-3.809-7.885 0.456-0.584 1.243-0.889 2.268-0.879zm-21.844 0.155a20 20 0 0 0 0.0156 0.199c-0.005-0.067-0.0113-0.133-0.0156-0.199zm10.25 0.568c1.962-0.085 4.433 2.447 5.853 5.998 1.611 4.03 1.311 7.939-0.671 8.73-1.982 0.793-4.895-1.83-6.506-5.859-1.611-4.03-1.311-7.939 0.672-8.73 0.204-0.083 0.422-0.129 0.652-0.139zm-10.012 1.476a20 20 0 0 0 0.0175 0.096c-0.0055-0.032-0.0121-0.064-0.0175-0.096zm10.944 1.145c-0.967 0-1.75 0.784-1.75 1.75s0.783 1.75 1.75 1.75c0.966 0 1.75-0.784 1.75-1.75s-0.784-1.75-1.75-1.75zm-10.614 0.348a20 20 0 0 0 0.1856 0.718c-0.0686-0.237-0.1256-0.478-0.1856-0.718zm10.614 0.172c0.679 0 1.23 0.55 1.23 1.23s-0.551 1.23-1.23 1.23c-0.68 0-1.231-0.55-1.231-1.23s0.551-1.23 1.231-1.23zm-10.024 1.763a20 20 0 0 0 0.2422 0.662c-0.0874-0.217-0.1624-0.441-0.2422-0.662zm27.313 0.422c-0.335-0.012-0.667 0.072-0.956 0.242-0.832 0.492-1.108 1.565-0.617 2.397 0.492 0.833 1.566 1.11 2.399 0.617 0.831-0.492 1.107-1.565 0.615-2.397-0.303-0.513-0.846-0.837-1.441-0.859zm-0.106 0.52c0.449-0.015 0.871 0.216 1.1 0.603 0.345 0.585 0.151 1.34-0.434 1.686-0.585 0.345-1.34 0.151-1.685-0.434-0.346-0.585-0.152-1.34 0.433-1.685 0.178-0.105 0.38-0.164 0.586-0.17zm-26.451 0.869a20 20 0 0 0 0.3164 0.656c-0.1123-0.215-0.2117-0.437-0.3164-0.656zm0.9082 1.687a20 20 0 0 0 0.42 0.694c-0.1484-0.226-0.2806-0.462-0.42-0.694zm33.66 0.975c-0.098 0.145-0.212 0.278-0.314 0.42a20 20 0 0 0 0.314 -0.42zm-32.554 0.672a20 20 0 0 0 0.4609 0.619c-0.1614-0.2-0.3071-0.413-0.4609-0.619zm31.377 0.884c-0.157 0.188-0.329 0.362-0.493 0.543a20 20 0 0 0 0.493 -0.543zm-30.12 0.643a20 20 0 0 0 0.5196 0.57c-0.1805-0.183-0.3463-0.38-0.5196-0.57zm28.793 0.793c-0.183 0.18-0.38 0.346-0.57 0.52a20 20 0 0 0 0.57 -0.52zm-27.38 0.611a20 20 0 0 0 0.543 0.493c-0.188-0.157-0.362-0.329-0.543-0.493zm25.902 0.705c-0.2 0.162-0.413 0.308-0.619 0.461a20 20 0 0 0 0.619 -0.461zm-24.223 0.651a20 20 0 0 0 0.42 0.314c-0.145-0.098-0.278-0.212-0.42-0.314zm22.651 0.496c-0.226 0.148-0.462 0.28-0.694 0.42a20 20 0 0 0 0.694 -0.42zm-1.725 1.012c-0.215 0.112-0.437 0.211-0.656 0.316a20 20 0 0 0 0.656 -0.316zm-1.805 0.83c-0.217 0.087-0.441 0.162-0.662 0.242a20 20 0 0 0 0.662 -0.242zm-1.879 0.646c-0.237 0.069-0.478 0.126-0.718 0.186a20 20 0 0 0 0.718 -0.186zm-2.115 0.498l-0.096 0.018a20 20 0 0 0 0.096 -0.018zm-1.941 0.241c-0.067 0.004-0.133 0.011-0.199 0.015a20 20 0 0 0 0.199 -0.015z" fill-rule="evenodd" transform="matrix(.26458 0 0 .26458 0 284.3)"/>
 </g>
</svg>
