<svg width="48" height="48" viewBox="0 0 48 48" fill="none" xmlns="http://www.w3.org/2000/svg">
<path fill-rule="evenodd" clip-rule="evenodd" d="M23.9997 4C12.9539 4 4 12.9539 4 23.9997C4 35.0456 12.9539 43.9995 23.9997 43.9995C35.0456 43.9995 43.9995 35.0456 43.9995 23.9997C43.9995 12.9539 35.0456 4 23.9997 4ZM23.9997 4.51759C34.7596 4.51759 43.4815 13.2399 43.4815 23.9993C43.4815 34.7588 34.7596 43.4811 23.9997 43.4811C13.2399 43.4811 4.51799 34.7592 4.51799 23.9993C4.51759 13.2395 13.2399 4.51759 23.9997 4.51759ZM29.2967 8.87884C29.0671 8.88908 28.849 8.93548 28.6447 9.01754C27.6928 9.39778 27.0873 10.5312 26.9613 12.1684C26.8353 13.8057 27.1991 15.8126 27.9727 17.7478C28.356 18.7061 28.8284 19.6177 29.3629 20.4308C29.8973 21.2439 30.4834 21.9424 31.0877 22.4864C31.6919 23.0305 32.3025 23.4095 32.8845 23.6017C33.4665 23.7939 34.0085 23.7956 34.4796 23.6068C35.4314 23.2265 36.0369 22.0931 36.1629 20.4559C36.2889 18.8188 35.9251 16.812 35.1516 14.8769C34.4635 13.1565 33.4986 11.6111 32.4273 10.5136C31.356 9.41614 30.2472 8.83712 29.2967 8.87884ZM29.4997 9.38473C30.327 9.41599 31.2931 9.99936 32.2339 11.0359C33.1747 12.0725 34.0324 13.4984 34.6616 15.0719C35.02 15.9677 35.2944 16.8871 35.4692 17.7773C35.6441 18.6675 35.7158 19.5111 35.6805 20.2599C35.6451 21.0087 35.5032 21.648 35.263 22.1413C35.0228 22.6346 34.689 22.9722 34.2806 23.1348C33.4569 23.464 32.3797 23.0615 31.286 22.0158C30.1924 20.9701 29.1717 19.3669 28.4487 17.5588C28.0904 16.6632 27.816 15.7442 27.6411 14.8542C27.4662 13.9643 27.3943 13.1208 27.4295 12.3721C27.4647 11.6233 27.6063 10.9839 27.8462 10.4904C28.0861 9.99697 28.4196 9.65906 28.8277 9.49603C29.0351 9.41291 29.2602 9.37563 29.4997 9.38473ZM19.0228 9.62103C18.1012 9.66371 17.0104 10.0894 15.8867 10.8449C14.7631 11.6004 13.6564 12.6522 12.7049 13.8689C11.4213 15.5107 10.511 17.3359 10.1744 18.943C9.83781 20.5501 10.1024 21.8076 10.9099 22.4388C11.3096 22.7516 11.8306 22.9012 12.4432 22.8791C13.0557 22.857 13.7479 22.6636 14.48 22.31C15.2122 21.9564 15.9701 21.4495 16.7104 20.8182C17.4508 20.187 18.159 19.4437 18.7948 18.6308C20.0784 16.989 20.9887 15.1638 21.3253 13.5567C21.6619 11.9495 21.3973 10.6921 20.5898 10.0609C20.1828 9.74193 19.65 9.59235 19.0228 9.62103ZM19.0038 10.1049C19.5124 10.0834 19.9411 10.2041 20.2678 10.4609C20.6139 10.7315 20.8396 11.1491 20.932 11.6899C21.0244 12.2307 20.9816 12.884 20.8062 13.6126C20.6308 14.3411 20.3261 15.1307 19.9096 15.9362C19.4931 16.7416 18.973 17.5472 18.3788 18.3068C17.179 19.8408 15.7508 21.0946 14.4085 21.7926C13.0661 22.4906 11.9195 22.5756 11.2209 22.0288C10.8745 21.7585 10.6484 21.3412 10.5557 20.8007C10.463 20.2602 10.5054 19.607 10.6805 18.8785C10.8557 18.15 11.1601 17.3604 11.5764 16.5549C11.9927 15.7494 12.5128 14.9437 13.1069 14.1839C14.0184 13.018 15.0691 12.0047 16.1214 11.2768C17.1737 10.5489 18.1784 10.1405 19.0038 10.1049ZM25.8907 25.1557C24.8658 25.1456 24.0785 25.4507 23.6228 26.0347C22.9913 26.8421 23.0379 28.1264 23.7522 29.6051C24.4665 31.0838 25.7901 32.6358 27.4317 33.9196C29.0735 35.2032 30.8987 36.1135 32.5058 36.4501C34.113 36.7867 35.3704 36.5221 36.0016 35.7146C36.633 34.9072 36.5864 33.6229 35.8721 32.1442C35.1578 30.6655 33.8343 29.1136 32.1926 27.8297C31.1558 27.0189 30.0354 26.3491 28.9343 25.8819C27.8332 25.4147 26.7867 25.165 25.8907 25.1557ZM25.7287 25.6347C26.5512 25.6085 27.5562 25.8357 28.6384 26.2927C29.7205 26.7497 30.8398 27.4195 31.8787 28.2317C32.6387 28.826 33.338 29.4827 33.9365 30.1643C34.535 30.8459 35.021 31.5391 35.3668 32.2041C35.7125 32.8691 35.9112 33.493 35.9515 34.0401C35.9918 34.5872 35.8729 35.0468 35.6016 35.3926C35.331 35.7387 34.9134 35.9644 34.3726 36.0568C33.8319 36.1492 33.1785 36.1064 32.45 35.931C31.7214 35.7556 30.9318 35.4509 30.1264 35.0345C29.3209 34.618 28.5154 34.0978 27.7557 33.5036C26.2218 32.3039 24.9678 30.8759 24.2697 29.5335C23.5715 28.1912 23.4863 27.0445 24.0327 26.3457C24.3777 25.9036 24.9609 25.6591 25.7287 25.6347ZM14.2969 25.8787C14.0673 25.8891 13.8492 25.9356 13.6449 26.0177C12.6931 26.398 12.0876 27.5314 11.9616 29.1685C11.8356 30.8057 12.1994 32.8125 12.9729 34.7476C13.3562 35.7059 13.8286 36.6175 14.3631 37.4306C14.8975 38.2436 15.4836 38.9421 16.0879 39.4862C16.6921 40.0303 17.3026 40.4092 17.8846 40.6015C18.4666 40.7937 19.0087 40.7954 19.4798 40.6065C20.4316 40.2262 21.037 39.0929 21.1631 37.4557C21.2891 35.8186 20.9253 33.8118 20.1518 31.8767C19.4637 30.1563 18.4988 28.6109 17.4275 27.5135C16.3562 26.416 15.2474 25.837 14.2969 25.8787ZM14.4999 26.3847C15.3272 26.4159 16.2932 26.9993 17.234 28.0358C18.1749 29.0723 19.0326 30.4982 19.6618 32.0716C20.0202 32.9675 20.2946 33.8869 20.4694 34.7771C20.6443 35.6673 20.716 36.5109 20.6806 37.2597C20.6453 38.0085 20.5034 38.6478 20.2632 39.1411C20.023 39.6344 19.6892 39.972 19.2808 40.1345C18.4571 40.4638 17.3799 40.0613 16.2862 39.0156C15.1925 37.9699 14.1719 36.3667 13.4489 34.5586C13.0906 33.663 12.8161 32.744 12.6413 31.854C12.4664 30.964 12.3945 30.1205 12.4297 29.3718C12.4649 28.623 12.6065 27.9836 12.8464 27.4901C13.0863 26.9966 13.4198 26.6587 13.8279 26.4957C14.0353 26.4127 14.2604 26.3755 14.4999 26.3847Z" fill="#333333"/>
</svg>
