<?xml version="1.0" encoding="UTF-8" standalone="no"?>
<!-- Created with Inkscape (http://www.inkscape.org/) -->
<svg id="svg8" xmlns:rdf="http://www.w3.org/1999/02/22-rdf-syntax-ns#" xmlns="http://www.w3.org/2000/svg" xmlns:osb="http://www.openswatchbook.org/uri/2009/osb" height="48" width="48" version="1.1" xmlns:cc="http://creativecommons.org/ns#" viewBox="0 0 12.7 12.7" xmlns:dc="http://purl.org/dc/elements/1.1/">
 <title id="title4753">UIO-icon</title>
 <metadata id="metadata5">
  <rdf:RDF>
   <cc:Work rdf:about="">
    <dc:format>image/svg+xml</dc:format>
    <dc:type rdf:resource="http://purl.org/dc/dcmitype/StillImage"/>
    <dc:title>UIO-icon</dc:title>
    <dc:creator>
     <cc:Agent>
      <dc:title>Joaquín Urbano</dc:title>
     </cc:Agent>
    </dc:creator>
    <dc:rights>
     <cc:Agent>
      <dc:title>GPL</dc:title>
     </cc:Agent>
    </dc:rights>
   </cc:Work>
  </rdf:RDF>
 </metadata>
 <g id="layer1" transform="translate(0,-284.3)" fill="#333">
  <path id="path48057-4-5" d="m6.084 4v0.002c-0.045-0.0001-0.0905 0.017-0.125 0.0527-0.0689 0.0694-0.0693 0.1818 0 0.2519l1.8437 1.8868-0.0039 1.3007c-0.0002 0.0476 0.0205 0.0933 0.0528 0.127l0.9375 0.9609v0.1094 0.2012c-0.9164 0.1614-2.8061 0.4985-3.8477 0.7148-0.365 0.0758-0.6266 0.1386-0.7051 0.1719-0.3816 0.1623-0.3546 0.9497 0.4805 1.0727 0.6013 0.088 1.2238 0.281 1.7891 0.252h0.0019c0.0201 0.013 0.0407 0.027 0.0606 0.039l0.0273-0.043h0.002l-0.0293 0.043-1.8457 2.748c-0.0547 0.081-0.0335 0.192 0.0468 0.248 0.0301 0.02 0.0637 0.031 0.0977 0.031 0.0565 0 0.1105-0.027 0.1445-0.078l1.8653-2.778h0.0019l0.2383-0.355c0.0067-0.003 0.0131-0.005 0.0176-0.01 0.1819-0.091 0.4164-0.216 0.6621-0.349l-0.0039 0.732-0.002 0.348c0.0007 0 0.0032-0.001 0.0039 0l-0.0078 1.466-0.248 0.594-1.2442 2.953c-0.0381 0.091 0.0025 0.196 0.0918 0.235 0.0226 0.009 0.0454 0.016 0.0684 0.015 0.0684 0.001 0.1335-0.041 0.1621-0.109l1.0351-2.459v-0.002l0.4727-1.119c0.0088-0.023 0.0136-0.047 0.0156-0.07l0.0039-1.416 0.0039-1.243c0.0317-0.058 0.0638-0.116 0.0977-0.173 0.1919-0.107 0.378-0.21 0.5391-0.301l-0.0059 1.814-0.0059 1.203c-0.0018 0.295 0.2372 0.536 0.5274 0.537 0.2902 0.002 0.5263-0.238 0.5273-0.533l0.0059-1.218 0.0058-1.799c0.1692 0.097 0.3652 0.21 0.5682 0.324 0.023 0.037 0.043 0.074 0.065 0.111l-0.004 1.25-0.004 1.453c0 0.024 0.004 0.047 0.014 0.069l0.521 1.263v0.002l0.961 2.327c0.028 0.068 0.092 0.109 0.16 0.109 0.023 0 0.046-0.004 0.068-0.014 0.09-0.038 0.134-0.143 0.096-0.234l-1.16-2.807v-0.004l-0.309-0.748 0.006-1.515h-0.002l0.002-0.414 0.002-0.616c0.245 0.136 0.477 0.261 0.658 0.354 0.007 0.002 0.011 0.003 0.018 0.008l0.197 0.297 1.887 2.853c0.034 0.051 0.09 0.078 0.146 0.078 0.034 0 0.068-0.009 0.098-0.029 0.081-0.055 0.101-0.166 0.047-0.248l-1.854-2.807c0.589 0.062 1.248-0.146 1.881-0.234 0.836-0.116 0.869-0.9034 0.489-1.0685-0.088-0.0381-0.407-0.1127-0.844-0.2051h-0.002c-1.062-0.2245-2.828-0.5518-3.7032-0.7129l0.0039-0.2422v-0.002-0.0703l0.9453-0.9531c0.033-0.0334 0.051-0.0776 0.051-0.125l0.006-1.3027 1.855-1.8711c0.069-0.0695 0.07-0.1838 0-0.2539-0.068-0.0701-0.179-0.07-0.248 0l-1.908 1.9238c-0.033 0.0334-0.053 0.0776-0.053 0.125l-0.004 1.3027-0.6443 0.6485 0.002-0.5098c0-0.2402-0.1577-0.4416-0.3731-0.5098l-0.1133-1.2754c-0.0199-0.2133-0.0499-0.2132-0.0703 0l-0.1211 1.2735c-0.2158 0.0665-0.3761 0.2676-0.3769 0.5078l-0.002 0.5117-0.6406-0.6562 0.0039-1.3008c0.0002-0.0475-0.0185-0.0933-0.0508-0.127l-1.8945-1.9375c-0.0343-0.0349-0.08-0.0526-0.125-0.0527zm29.375 0v0.002c-0.045-0.0001-0.089 0.017-0.123 0.0527-0.069 0.0694-0.069 0.1818 0 0.2519l1.844 1.8868-0.004 1.3007c0 0.0476 0.018 0.0933 0.051 0.127l0.939 0.9609v0.1094 0.2012c-0.916 0.1614-2.806 0.4985-3.848 0.7148-0.365 0.0758-0.626 0.1386-0.705 0.1719-0.381 0.1623-0.354 0.9497 0.481 1.0727 0.601 0.088 1.224 0.281 1.789 0.252h0.002c0.02 0.013 0.038 0.027 0.058 0.039l0.028-0.043h0.004l-0.032 0.043-1.843 2.748c-0.055 0.081-0.036 0.192 0.045 0.248 0.03 0.02 0.065 0.031 0.099 0.031 0.057 0 0.111-0.027 0.145-0.078l1.865-2.778 0.238-0.355c0.007-0.003 0.015-0.005 0.02-0.01 0.182-0.091 0.414-0.216 0.66-0.349l-0.002 0.732-0.002 0.348h0.002l-0.006 1.466-0.25 0.594-1.244 2.953c-0.038 0.091 0.004 0.196 0.094 0.235 0.022 0.009 0.045 0.016 0.068 0.015 0.068 0.001 0.134-0.041 0.162-0.109l1.035-2.459v-0.002l0.473-1.119c0.009-0.023 0.014-0.047 0.016-0.07l0.003-1.416h-0.001l0.003-1.243c0.032-0.058 0.066-0.116 0.1-0.173 0.192-0.107 0.376-0.21 0.537-0.301l-0.006 1.814-0.006 1.203c-0.001 0.295 0.238 0.536 0.528 0.537 0.29 0.002 0.528-0.238 0.529-0.533l0.006-1.218 0.006-1.799c0.169 0.097 0.365 0.21 0.568 0.324 0.023 0.037 0.043 0.074 0.065 0.111l-0.004 1.25-0.004 1.453c0 0.024 0.004 0.047 0.013 0.069l0.522 1.263v0.002l0.959 2.327c0.028 0.068 0.094 0.109 0.162 0.109 0.023 0 0.046-0.004 0.068-0.014 0.09-0.038 0.134-0.143 0.096-0.234l-1.16-2.807v-0.004l-0.309-0.748 0.006-1.515h-0.002l0.002-0.414 0.002-0.616c0.245 0.136 0.475 0.261 0.656 0.354 0.007 0.002 0.013 0.003 0.02 0.008l0.195 0.297 0.002-0.002 1.887 2.855c0.034 0.051 0.088 0.078 0.144 0.078 0.034 0 0.07-0.009 0.1-0.029 0.081-0.055 0.101-0.166 0.047-0.248l-1.856-2.807c0.589 0.062 1.249-0.146 1.883-0.234 0.836-0.116 0.867-0.9034 0.487-1.0685-0.088-0.0381-0.405-0.1127-0.842-0.2051h-0.002c-1.062-0.2245-2.828-0.5518-3.703-0.7129l0.002-0.2422v-0.002-0.0703l0.945-0.9531c0.033-0.0334 0.052-0.0776 0.053-0.125l0.006-1.3027 1.855-1.8711c0.069-0.0695 0.07-0.1838 0-0.2539-0.069-0.0701-0.179-0.07-0.248 0l-1.908 1.9238c-0.033 0.0334-0.053 0.0776-0.053 0.125l-0.004 1.3027-0.644 0.6485 0.002-0.5098c0-0.2402-0.158-0.4416-0.373-0.5098l-0.114-1.2754c-0.02-0.2133-0.05-0.2132-0.07 0l-0.123 1.2735c-0.216 0.0665-0.374 0.2676-0.375 0.5078l-0.002 0.5117-0.641-0.6562 0.004-1.3008c0-0.0475-0.018-0.0933-0.051-0.127l-1.896-1.9375c-0.034-0.0349-0.08-0.0526-0.125-0.0527zm-26.143 3.3594c0.0554 0.001 0.1099 0.046 0.1074 0.1289v1.6582l4.1682 0.8379c1.412 0.2506-1.168 0.9016-2.028 0.5336l-2.1402-0.9047v0.2519 0.8238 2.377c-0.0081 0.182-0.218 0.186-0.2246 0v-2.377-0.8238-0.2636l-2.166 0.9164c-0.8598 0.368-3.4398-0.283-2.0273-0.5336l4.1933-0.8418v-1.6543c0.004-0.087 0.0618-0.13 0.1172-0.1289zm29.377 0c0.056 0.001 0.108 0.046 0.106 0.1289v1.6582l4.17 0.8379c1.412 0.2506-1.168 0.9016-2.028 0.5336l-2.142-0.9047v0.2519 0.8238 2.377c-0.008 0.182-0.216 0.186-0.223 0v-2.377-0.8238-0.2636l-2.166 0.9164c-0.86 0.368-3.44-0.283-2.027-0.5336l4.193-0.8418v-1.6543c0.004-0.087 0.062-0.13 0.117-0.1289zm-21.492 3.0116v0.004c-0.094 0-0.189 0.034-0.262 0.109-0.144 0.146-0.145 0.384 0 0.532l3.879 3.966-0.007 2.741c-0.001 0.1 0.039 0.194 0.107 0.265l1.975 2.02v0.23 0.426c-1.928 0.34-5.903 1.049-8.094 1.504-0.768 0.159-1.319 0.287-1.485 0.357-0.802 0.342-0.745 2.001 1.012 2.258 1.265 0.185 2.577 0.593 3.766 0.531h0.002c0.042 0.028 0.083 0.055 0.125 0.081l0.058-0.09h0.004l-0.062 0.09-3.881 5.779c-0.115 0.171-0.072 0.406 0.098 0.523 0.063 0.042 0.133 0.066 0.205 0.067 0.118 0 0.235-0.057 0.306-0.164l3.924-5.842h0.002l0.502-0.75c0.014-0.006 0.028-0.009 0.037-0.02 0.383-0.192 0.874-0.453 1.391-0.734l-0.004 1.539-0.004 0.73c0.001 0.001 0.002 0.002 0.004 0.002l-0.014 3.086-0.525 1.246-2.615 6.215c-0.081 0.191 0.007 0.411 0.195 0.492 0.047 0.019 0.096 0.034 0.144 0.034 0.144 0 0.28-0.086 0.34-0.229l2.178-5.176v-0.004l0.992-2.353c0.019-0.048 0.029-0.097 0.033-0.147l0.01-2.978h-0.002l0.008-2.613c0.067-0.123 0.136-0.246 0.207-0.366 0.404-0.223 0.794-0.441 1.133-0.632l-0.012 3.814-0.014 2.529c-0.003 0.62 0.499 1.129 1.11 1.131 0.61 0.003 1.109-0.501 1.111-1.121l0.014-2.562 0.012-3.782c0.356 0.204 0.768 0.438 1.195 0.678 0.048 0.077 0.092 0.156 0.137 0.234l-0.01 2.631-0.008 3.057c0 0.05 0.008 0.1 0.027 0.146l1.098 2.657v0.004l2.019 4.894c0.06 0.144 0.196 0.228 0.34 0.229 0.049 0 0.098-0.009 0.145-0.03 0.188-0.08 0.278-0.299 0.199-0.49l-2.437-5.908c0-0.002-0.001-0.001 0-0.004l-0.651-1.576 0.01-3.188h-0.002l0.004-0.873 0.002-1.295c0.515 0.285 1.003 0.549 1.385 0.745 0.014 0.005 0.024 0.008 0.039 0.019l0.412 0.623 0.002-0.002 3.97 6.004c0.071 0.107 0.186 0.166 0.305 0.166 0.071 0 0.143-0.022 0.207-0.064 0.17-0.116 0.214-0.35 0.1-0.522l-3.903-5.902c1.237 0.129 2.624-0.308 3.957-0.492 1.759-0.244 1.828-1.899 1.028-2.246-0.185-0.081-0.855-0.242-1.774-0.436l-0.004 0.004c-2.233-0.472-5.947-1.165-7.789-1.504l0.006-0.508v-0.002-0.15l1.989-2.004c0.069-0.07 0.108-0.164 0.109-0.264l0.012-2.74 3.904-3.938c0.145-0.146 0.146-0.383 0-0.531-0.144-0.147-0.378-0.147-0.523 0l-4.014 4.045c-0.07 0.07-0.111 0.166-0.111 0.266l-0.006 2.74-1.358 1.363 0.004-1.074c0-0.505-0.332-0.929-0.785-1.072l-0.236-2.682c-0.042-0.449-0.108-0.448-0.151 0l-0.256 2.678c-0.454 0.14-0.789 0.565-0.791 1.07l-0.004 1.074-1.347-1.377 0.008-2.74c0-0.1-0.038-0.195-0.106-0.265l-3.988-4.077c-0.072-0.073-0.167-0.109-0.262-0.109zm6.801 7.068c0.116 0.003 0.23 0.094 0.225 0.268v3.49l8.767 1.764c2.971 0.526-2.455 1.893-4.264 1.117l-4.503-1.902v0.533 1.732 5.002c-0.018 0.383-0.457 0.39-0.471 0v-5.002-1.732-0.555l-4.555 1.924c-1.809 0.776-7.237-0.591-4.265-1.117l8.82-1.773v-3.481c0.008-0.183 0.129-0.27 0.246-0.268zm-17.918 13.598v0.002c-0.045 0-0.0905 0.017-0.125 0.053-0.0689 0.069-0.0693 0.182 0 0.252l1.8437 1.885-0.0039 1.302c-0.0002 0.048 0.0205 0.094 0.0528 0.127l0.9375 0.961v0.11 0.201c-0.9164 0.161-2.8061 0.498-3.8477 0.715-0.365 0.075-0.6266 0.136-0.7051 0.169-0.3816 0.163-0.3546 0.952 0.4805 1.075 0.6013 0.088 1.2238 0.281 1.7891 0.252h0.0019c0.0201 0.013 0.0407 0.027 0.0606 0.039l0.0273-0.043h0.002l-0.0293 0.043-1.8457 2.746c-0.0547 0.081-0.0335 0.194 0.0468 0.25 0.0301 0.02 0.0637 0.031 0.0977 0.031 0.0565 0 0.1105-0.027 0.1445-0.078l1.8653-2.777h0.0019l0.2383-0.358c0.0067-0.003 0.0131-0.002 0.0176-0.008 0.1819-0.091 0.4164-0.216 0.6621-0.349l-0.0039 0.732-0.002 0.348h0.0039l-0.0078 1.467-0.248 0.591-1.2442 2.955c-0.0381 0.091 0.0025 0.196 0.0918 0.235 0.0226 0.009 0.0454 0.016 0.0684 0.015 0.0684 0.001 0.1335-0.041 0.1621-0.109l1.0351-2.461 0.4727-1.119c0.0088-0.023 0.0136-0.047 0.0156-0.07l0.0039-1.416 0.0039-1.243c0.0317-0.058 0.0638-0.116 0.0977-0.173 0.1919-0.107 0.378-0.21 0.5391-0.301l-0.0059 1.814-0.0059 1.202c-0.0018 0.294 0.2372 0.536 0.5274 0.537s0.5263-0.237 0.5273-0.532l0.0059-1.218 0.0058-1.799c0.1692 0.097 0.3652 0.208 0.5682 0.322 0.023 0.037 0.043 0.074 0.065 0.111l-0.004 1.252-0.004 1.453c0 0.024 0.004 0.047 0.014 0.069l0.521 1.263v0.002l0.961 2.327c0.028 0.068 0.092 0.109 0.16 0.109 0.023 0 0.046-0.004 0.068-0.014 0.09-0.038 0.134-0.143 0.096-0.234l-1.16-2.809v-0.002l-0.309-0.748 0.006-1.515h-0.002l0.002-0.414 0.002-0.618c0.245 0.136 0.477 0.263 0.658 0.356 0.007 0.003 0.011 0.003 0.018 0.008l0.197 0.297 1.887 2.851c0.034 0.051 0.09 0.08 0.146 0.08 0.034 0 0.068-0.009 0.098-0.029 0.081-0.055 0.101-0.168 0.047-0.25l-1.854-2.805c0.589 0.062 1.248-0.146 1.881-0.234 0.836-0.116 0.869-0.903 0.489-1.068-0.088-0.039-0.407-0.115-0.844-0.207l-0.002 0.001c-1.062-0.224-2.828-0.553-3.7032-0.714l0.0039-0.243v-0.07l0.9453-0.953c0.033-0.033 0.051-0.08 0.051-0.127l0.006-1.301 1.855-1.873c0.069-0.069 0.07-0.182 0-0.252-0.068-0.07-0.179-0.07-0.248 0l-1.908 1.922c-0.033 0.034-0.053 0.08-0.053 0.127l-0.004 1.303-0.6443 0.648 0.002-0.509c0-0.241-0.1577-0.444-0.3731-0.512l-0.1133-1.274c-0.0199-0.213-0.0499-0.215-0.0703-0.002l-0.1211 1.274c-0.2158 0.066-0.3761 0.269-0.3769 0.51l-0.002 0.509-0.6406-0.654 0.0039-1.303c0.0002-0.047-0.0185-0.091-0.0508-0.125l-1.8945-1.937c-0.0343-0.035-0.08-0.053-0.125-0.053zm29.375 0v0.002c-0.045 0-0.089 0.017-0.123 0.053-0.069 0.069-0.069 0.182 0 0.252l1.844 1.885-0.004 1.302c0 0.048 0.018 0.094 0.051 0.127l0.939 0.961v0.11 0.201c-0.916 0.161-2.806 0.498-3.848 0.715-0.365 0.075-0.626 0.136-0.705 0.169-0.381 0.163-0.354 0.952 0.481 1.075 0.601 0.088 1.224 0.281 1.789 0.252h0.002c0.02 0.013 0.038 0.027 0.058 0.039l0.028-0.043h0.004l-0.032 0.043-1.843 2.746c-0.055 0.081-0.036 0.194 0.045 0.25 0.03 0.02 0.065 0.031 0.099 0.031 0.057 0 0.111-0.027 0.145-0.078l1.865-2.777 0.238-0.358c0.007-0.003 0.015-0.002 0.02-0.008 0.182-0.091 0.414-0.216 0.66-0.349l-0.002 0.732-0.002 0.348h0.002l-0.006 1.467-0.25 0.591-1.244 2.955c-0.038 0.091 0.004 0.196 0.094 0.235 0.022 0.009 0.045 0.016 0.068 0.015 0.068 0.001 0.134-0.041 0.162-0.109l1.035-2.461 0.473-1.119c0.009-0.023 0.014-0.047 0.016-0.07l0.003-1.416h-0.001l0.003-1.243c0.032-0.058 0.066-0.116 0.1-0.173 0.192-0.107 0.376-0.21 0.537-0.301l-0.006 1.814-0.006 1.202c-0.001 0.294 0.238 0.536 0.528 0.537s0.528-0.237 0.529-0.532l0.006-1.218 0.006-1.799c0.169 0.097 0.365 0.208 0.568 0.322 0.023 0.037 0.043 0.074 0.065 0.111l-0.004 1.252-0.004 1.453c0 0.024 0.004 0.047 0.013 0.069l0.522 1.263v0.002l0.959 2.327c0.028 0.068 0.094 0.109 0.162 0.109 0.023 0 0.046-0.004 0.068-0.014 0.09-0.038 0.134-0.143 0.096-0.234l-1.16-2.809v-0.002l-0.309-0.748 0.006-1.515h-0.002l0.002-0.414 0.002-0.618c0.245 0.136 0.475 0.263 0.656 0.356 0.007 0.003 0.013 0.003 0.02 0.008l0.195 0.297 0.002-0.002 1.887 2.853c0.034 0.051 0.088 0.08 0.144 0.08 0.034 0 0.07-0.009 0.1-0.029 0.081-0.055 0.101-0.168 0.047-0.25l-1.856-2.805c0.589 0.062 1.249-0.146 1.883-0.234 0.836-0.116 0.867-0.903 0.487-1.068-0.088-0.039-0.405-0.115-0.842-0.207l-0.002 0.001c-1.062-0.224-2.828-0.553-3.703-0.714l0.002-0.243v-0.07l0.945-0.953c0.033-0.033 0.052-0.08 0.053-0.127l0.006-1.301 1.855-1.873c0.069-0.069 0.07-0.182 0-0.252-0.069-0.07-0.179-0.07-0.248 0l-1.908 1.922c-0.033 0.034-0.053 0.08-0.053 0.127l-0.004 1.303-0.644 0.648 0.002-0.509c0-0.241-0.158-0.444-0.373-0.512l-0.114-1.274c-0.02-0.213-0.05-0.215-0.07-0.002l-0.123 1.274c-0.216 0.066-0.374 0.269-0.375 0.51l-0.002 0.509-0.641-0.654 0.004-1.303c0-0.047-0.018-0.091-0.051-0.125l-1.896-1.937c-0.034-0.035-0.08-0.053-0.125-0.053zm-26.143 3.359c0.0554 0.002 0.1099 0.047 0.1074 0.129v1.659l4.1682 0.837c1.412 0.251-1.168 0.9-2.028 0.532l-2.1402-0.905v0.254 0.825 2.377c-0.0081 0.181-0.218 0.185-0.2246 0v-2.377-0.825-0.263l-2.166 0.914c-0.8598 0.368-3.4398-0.281-2.0273-0.532l4.1933-0.841v-1.655c0.004-0.087 0.0618-0.13 0.1172-0.129zm29.377 0c0.056 0.002 0.108 0.047 0.106 0.129v1.659l4.17 0.837c1.412 0.251-1.168 0.9-2.028 0.532l-2.142-0.905v0.254 0.825 2.377c-0.008 0.181-0.216 0.185-0.223 0v-2.377-0.825-0.263l-2.166 0.914c-0.86 0.368-3.44-0.281-2.027-0.532l4.193-0.841v-1.655c0.004-0.087 0.062-0.13 0.117-0.129z" transform="matrix(.26458 0 0 .26458 0 284.3)"/>
 </g>
</svg>
