<svg width="48" height="48" viewBox="0 0 48 48" fill="none" xmlns="http://www.w3.org/2000/svg">
<path fill-rule="evenodd" clip-rule="evenodd" d="M23.9999 4.00635C12.9542 4.00635 3.99976 12.9609 3.99976 24.0065C3.99976 35.0522 12.9542 44.0066 23.9999 44.0066C35.0456 44.0066 44 35.0522 44 24.0065C44 12.9609 35.0456 4.00635 23.9999 4.00635ZM23.9999 4.524C34.7602 4.524 43.4822 13.246 43.4822 24.0063C43.4822 34.7666 34.7602 43.4886 23.9999 43.4886C13.2396 43.4886 4.51755 34.7666 4.51755 24.0063C4.51755 13.246 13.2396 4.524 23.9999 4.524ZM29.2969 8.8852C29.0672 8.8954 28.8489 8.94175 28.6445 9.02384C26.6624 9.81565 26.3616 13.7245 27.9727 17.7542C29.5849 21.7851 32.499 24.4088 34.4806 23.6136C36.4615 22.8201 36.7614 18.9118 35.1505 14.8832C33.7303 11.3324 31.2591 8.80042 29.2972 8.88509L29.2969 8.8852ZM19.0234 9.62731C17.1392 9.71441 14.6505 11.3878 12.7051 13.8756C10.0319 17.2947 9.22832 21.1318 10.9102 22.446C12.5913 23.7609 16.1214 22.0558 18.7951 18.6374C21.4683 15.2183 22.2719 11.381 20.59 10.0669C20.1831 9.74819 19.6505 9.59874 19.0236 9.62743L19.0234 9.62731ZM30.0467 11.4028C30.0051 11.4019 29.9634 11.4026 29.9217 11.4047C28.9562 11.4552 28.2145 12.279 28.2655 13.2446C28.317 14.2093 29.1406 14.9498 30.1053 14.8988C31.07 14.8483 31.8114 14.0257 31.7616 13.0609C31.7136 12.1439 30.9649 11.42 30.0467 11.4028ZM17.789 11.7016C17.5134 11.7156 17.245 11.7946 17.0058 11.9321C16.167 12.4126 15.8767 13.4821 16.3573 14.3207C16.8385 15.1587 17.9079 15.4482 18.746 14.9672C19.5848 14.4867 19.8751 13.4172 19.3945 12.5786C19.0668 12.0076 18.4465 11.6687 17.789 11.7016ZM29.9492 11.9223C30.6276 11.887 31.2063 12.408 31.2422 13.0863C31.2786 13.7654 30.7573 14.3454 30.0782 14.3812C29.3998 14.4165 28.821 13.8956 28.7852 13.2172C28.7488 12.5381 29.2701 11.9581 29.9492 11.9223ZM17.8495 12.2192C18.2995 12.2094 18.7189 12.4461 18.9432 12.8364C19.2813 13.4259 19.0775 14.1779 18.4881 14.5161C17.8986 14.8541 17.1467 14.6504 16.8084 14.0609C16.4704 13.4714 16.6741 12.7194 17.2635 12.3812C17.4422 12.279 17.6437 12.2233 17.8495 12.2192ZM13.9883 15.641C13.5843 15.6608 13.1908 15.776 12.8398 15.977C11.6123 16.6814 11.1882 18.2475 11.8926 19.475C12.5969 20.7026 14.1631 21.1267 15.3906 20.4223C16.6182 19.7179 17.0423 18.1517 16.3379 16.9242C15.8581 16.0888 14.9504 15.5931 13.9883 15.641ZM32.6036 16.0883C32.543 16.0875 32.4824 16.0888 32.422 16.0922C31.0082 16.1658 29.922 17.3719 29.9962 18.7856C30.0708 20.1986 31.2765 21.2836 32.6896 21.2094C34.1033 21.1358 35.1896 19.9298 35.1153 18.516C35.0448 17.1731 33.9482 16.1131 32.6036 16.0883ZM14.0745 16.1684C14.8169 16.1539 15.508 16.5455 15.8772 17.1898C16.4339 18.1629 16.0975 19.4031 15.1252 19.9614C14.1522 20.5181 12.912 20.1817 12.3538 19.2095C11.797 18.2364 12.1335 16.9962 13.1057 16.4379C13.4009 16.2683 13.734 16.1756 14.0745 16.1684ZM32.6527 16.6215C33.695 16.6717 34.5299 17.5032 34.5844 18.5453C34.6426 19.6653 33.7824 20.6207 32.6625 20.6801C31.5425 20.7383 30.5871 19.8781 30.5277 18.7581C30.4695 17.6381 31.3297 16.6827 32.4496 16.6234C32.5173 16.6193 32.5851 16.6187 32.6527 16.6214V16.6215ZM25.8912 25.1625C24.8664 25.1524 24.0793 25.4575 23.6236 26.0414C22.3087 27.7225 24.0138 31.2525 27.4322 33.9262C30.8513 36.5994 34.6885 37.403 36.0027 35.7211C37.3176 34.04 35.6125 30.51 32.194 27.8364C30.0868 26.1885 27.7119 25.181 25.8913 25.1625H25.8912ZM14.2975 25.8851C14.0677 25.8953 13.8495 25.9417 13.6451 26.0238C11.663 26.8156 11.3622 30.7244 12.9732 34.7541C14.5855 38.785 17.4996 41.4087 19.4812 40.6135C21.462 39.82 21.7619 35.9118 20.1511 31.8832C18.7309 28.3325 16.2597 25.8005 14.2978 25.8851H14.2975ZM27.7507 26.7015C27.2603 26.683 26.7749 26.8057 26.3523 27.055C25.1339 27.7751 24.7299 29.3465 25.4499 30.5649C26.1699 31.7833 27.7413 32.1872 28.9597 31.4672C30.178 30.7472 30.582 29.1759 29.862 27.9575C29.4179 27.2068 28.6224 26.7335 27.7507 26.7015ZM27.5886 27.2328C28.3305 27.2081 29.0269 27.59 29.405 28.2289C29.9743 29.1949 29.6535 30.4396 28.6882 31.0101C27.7226 31.5798 26.4782 31.2599 25.907 30.2952C25.3359 29.3292 25.656 28.0833 26.6218 27.512C26.9156 27.3393 27.248 27.2433 27.5886 27.2328ZM15.2291 28.5063C14.2626 28.5063 13.4791 29.2897 13.4791 30.2562C13.4791 31.2227 14.2626 32.0062 15.2291 32.0062C16.1956 32.0062 16.9791 31.2227 16.9791 30.2562C16.9791 29.2897 16.1956 28.5063 15.2291 28.5063ZM15.2291 29.0258C15.9087 29.0259 16.4595 29.5767 16.4596 30.2562C16.4595 30.9358 15.9087 31.4866 15.2291 31.4867C14.5496 31.4866 13.9988 30.9358 13.9987 30.2562C13.9988 29.5767 14.5496 29.0259 15.2291 29.0258ZM32.5182 31.2113C32.1832 31.1989 31.8517 31.2829 31.5631 31.4535C30.7317 31.9455 30.4563 33.0182 30.9479 33.8499C31.4393 34.6821 32.5122 34.9584 33.3444 34.4671C34.1758 33.9751 34.4512 32.9024 33.9596 32.0707C33.6568 31.5575 33.1136 31.2337 32.5182 31.2113ZM32.4127 31.7309C32.862 31.7161 33.2835 31.9475 33.5124 32.3344C33.8581 32.9195 33.6639 33.6742 33.0788 34.02C32.494 34.3643 31.7409 34.1702 31.3952 33.5863C31.0495 33.0011 31.2436 32.2465 31.8288 31.9008C32.0062 31.7962 32.207 31.7378 32.4127 31.7309ZM17.4791 33.3187C16.0638 33.3187 14.9166 34.466 14.9166 35.8812C14.9166 37.2965 16.0639 38.4437 17.4791 38.4437C18.8943 38.4437 20.0416 37.2964 20.0416 35.8812C20.0416 34.466 18.8943 33.3187 17.4791 33.3187ZM17.4791 33.8499C18.6007 33.8505 19.5098 34.7596 19.5103 35.8812C19.5098 37.0028 18.6007 37.9119 17.4791 37.9124C16.3575 37.9119 15.4483 37.0028 15.4478 35.8812C15.4484 34.7596 16.3575 33.8504 17.4791 33.8499Z" fill="#333333"/>
</svg>
