<?xml version="1.0" encoding="UTF-8" standalone="no"?>
<!-- Created with Inkscape (http://www.inkscape.org/) -->
<svg id="svg8" xmlns:rdf="http://www.w3.org/1999/02/22-rdf-syntax-ns#" xmlns="http://www.w3.org/2000/svg" xmlns:osb="http://www.openswatchbook.org/uri/2009/osb" height="48" width="48" version="1.1" xmlns:cc="http://creativecommons.org/ns#" viewBox="0 0 12.7 12.7" xmlns:dc="http://purl.org/dc/elements/1.1/">
 <title id="title4753">UIO-icon</title>
 <metadata id="metadata5">
  <rdf:RDF>
   <cc:Work rdf:about="">
    <dc:format>image/svg+xml</dc:format>
    <dc:type rdf:resource="http://purl.org/dc/dcmitype/StillImage"/>
    <dc:title>UIO-icon</dc:title>
    <dc:creator>
     <cc:Agent>
      <dc:title>Joaquín Urbano</dc:title>
     </cc:Agent>
    </dc:creator>
    <dc:rights>
     <cc:Agent>
      <dc:title>GPL</dc:title>
     </cc:Agent>
    </dc:rights>
   </cc:Work>
  </rdf:RDF>
 </metadata>
 <g id="layer1" fill="#333" transform="translate(0,-284.3)">
  <path id="path1084" d="m12.051 4.0664c-1.875 0.0003-3.3945 1.5199-3.3948 3.3945 0.00028441 1.8746 1.5199 3.3942 3.3945 3.3945 1.8746-0.0002846 3.3942-1.5199 3.3945-3.3945 0-1.8746-1.52-3.3942-3.394-3.3945zm22.699 0.0996c-1.875 0.0003-3.395 1.5211-3.395 3.3965 0.001 1.8746 1.52 3.3945 3.395 3.3945s3.394-1.5199 3.395-3.3945c0-1.8754-1.52-3.3962-3.395-3.3965zm-22.701 0.4199c1.5847 0.00037111 2.8691 1.2883 2.8691 2.877-1e-8 1.5886-1.2844 2.8766-2.8691 2.877-1.586 0.001-2.8713-1.2877-2.8713-2.8771s1.2853-2.8777 2.8713-2.877zm22.701 0.1016c1.5847 0.00037111 2.8691 1.2883 2.8691 2.877 0 1.5886-1.284 2.8765-2.869 2.8765-1.585 0.001-2.871-1.2871-2.871-2.8765s1.286-2.8777 2.871-2.877zm-22.992 7.668c-1.9517 0.00025814-3.1052 1.7007-3.0938 3.6523l0.015625 2.5879c0.3885 7.8963-0.70235 9.7833-0.6875 11.439-0.14853 2.3646-0.15622 4.9199-0.625 7.0273l-2.0566 3.8535c-0.63172 1.2939-1.3351 2.2685-0.041016 2.9004 1.2941 0.63185 2.8427 0.098604 3.4746-1.1953l1.9037-3.902c0.089729-0.18402 0.15337-0.37377 0.19727-0.56445 0.075455-0.16381 0.13633-0.33633 0.17773-0.51953l0.825-6.774 1.611 5.983-0.6 4.094c-0.20887 1.4249-0.15536 2.8614 1.2695 3.0703 1.1504 0 1.6204-0.20175 1.9746-1.6992 0.48704-3.0526 1.0998-5.5165 0.59961-6.9492l-1.1133-4.918c-0.055535-0.12062-0.056457-0.2624-0.10352-0.39062-0.55104-1.5014-0.58891-3.4532-0.42773-4.6211l0.39648 0.25977c0.077347 0.050306 0.1555 0.093256 0.23633 0.13281 0.27344 0.097901 0.54908 0.19187 0.85547 0.21289 0.62893 0.025739 1.2398-0.23539 1.6777-0.72266 1.6832-0.80875 3.2842-0.7381 4.8906-0.7207l-0.62305-2.7539-2.916 1.5645c0.76095-0.89693 1.6764-1.5448 2.5781-2.2168l-2.166-1.8125-1.5312 3.375c-0.162-0.261-0.369-0.5-0.645-0.68l-2.5859-1.6836c0.00055028-0.057184 0.001953-0.11707 0.001953-0.17383l0.013672-4.2656c0.009029-1.9517-1.5328-3.5896-3.4844-3.5898zm22.992 0.117c-1.2334-0.004677-2.4391 0.095562-3.6973 0.67188l-0.007813 0.003906-0.005859 0.001953c-0.22542 0.11267-0.35136 0.18712-0.50977 0.27148-0.001748-0.001208-0.003641-0.002368-0.003906-0.003906-0.31125 0.1752-0.62509 0.37053-0.94531 0.61523-1.2553 0.88969-2.566 6.5631-2.877 13.156 0.11459 1.3544 2.0093 1.2668 2.0469 0.078125 0.31232-5.0133 1.2397-9.0912 2.377-10.521 0.00933 0.052215 0.00445 0.10829 0.005859 0.14258l-0.846 8.36-0.111 0.49c-0.55746 3.5684 1.3955 0.80545 0.80859 17.254 0.038614 1.5922 3.5121 1.3293 3.4941-0.082031l-0.013672-14.25c0.17611 0.061523 0.36792 0.027594 0.52344-0.023438l-0.068359 14.273c-0.017948 1.4113 3.4536 1.6742 3.4922 0.082031-0.587-16.448 1.368-13.685 0.811-17.254l-0.096-0.49c-0.145-2.995-0.572-5.763-0.908-8.605-0.002072-0.001492-0.011614-0.051194-0.048828-0.18945 0.046346 0.064286 0.10188 0.15663 0.14844 0.21094 1.1627 1.3648 2.1142 5.5067 2.4316 10.602 0.037561 1.1887 1.9323 1.2763 2.0469-0.078125-0.31095-6.5932-1.6216-12.267-2.877-13.156-0.51862-0.41205-1.0018-0.63687-1.5-0.89844l-0.001953-0.001953c-1.247-0.565-2.444-0.666-3.668-0.661zm0.21484 0.51562c1.0943 0.02768 2.1482 0.23783 3.1699 0.5918 0.2905 0.11189 0.46228 0.22427 0.5918 0.28711 0.65027 0.36108 1.0311 0.58886 1.3848 1.2676 1.5069 3.5803 1.8928 7.789 2.1523 11.766l0.019531 0.32031c0.019998 0.43955-0.85807 0.66724-1.0137 0.085938l-0.025391-0.32031c-0.48645-3.7928-0.50707-7.2607-2.3496-10.426-0.10185-0.19045-0.3347-0.39659-0.46484-0.51758-0.00064964-0.00065235-0.001301-0.001303-0.001953-0.001953-0.036568-0.031367-0.079453-0.075481-0.11719-0.11133-0.64592-0.43529-0.59113 0.051148-0.58984 0.17969 0.1166 2.0259 0.98277 7.8855 0.94922 9.3125-2.5433 0.0957-4.8151 0.054901-7.9004 0.009766 0.001073-0.004006 0.015259-0.065758 0.027344-0.13867 0.044422-0.26803 0.086981-0.90297 0.125-1.7109 0.034023-0.72306 0.24414-2.2996 0.31641-3.3398 0.01042-0.14998 0.021484-0.41211 0.021484-0.41211 0.19937-1.8464 0.28607-2.5581 0.27539-2.998 0.026149-0.41253-0.17982-1.0019-0.32031-0.95312-0.25242 0.1751-0.38523 0.40088-0.58008 0.66797-1.8944 3.066-1.8314 6.7117-2.3828 10.434l-0.019531 0.31836c-0.1556 0.58131-1.0356 0.35947-1.0156-0.080078l0.017578-0.32031c0.25951-3.9766 0.70008-8.2888 2.207-11.869 0.32882-0.63103 0.70464-0.88991 1.2715-1.209 0.29873-0.14479 0.58894-0.236 0.83398-0.32617 1.1856-0.3778 2.3222-0.53357 3.418-0.50586zm-23.188 0.79883c1.1806 0 2.1289 0.95028 2.1289 2.1309v3.5391l-0.017578 0.54688 1.3301 0.86719 0.71289 0.46289c0.075326 0.049013 0.14462 0.1036 0.21289 0.1582l1.084 0.70508c1.0034 0.65313 1.3908 1.8235 0.86914 2.625-0.5217 0.80154-1.7486 0.9207-2.752 0.26758l-0.2793-0.18164-2.9844-1.9434c-0.074595-0.048586-0.14526-0.10012-0.21289-0.1543l-1.0859-0.70703c-1.1933-0.85-1.0918-1.58-1.1375-2.648v-3.5391c0-1.1806 0.95225-2.1309 2.1328-2.1309zm7.9785 6.3926 0.18555 0.15625c0.098711-0.088717 0.20654-0.13271 0.32422-0.13086 0.11711 0.001373 0.23286 0.049492 0.34375 0.14258l-0.208 0.245c-0.068239-0.057282-0.13203-0.086206-0.18945-0.085938-0.057511-0.00077783-0.10686 0.023133-0.14648 0.070312-0.039144 0.046632-0.056026 0.092598-0.050781 0.14062 0.004677 0.04755 0.031495 0.091715 0.078125 0.13086 0.043218 0.036284 0.087603 0.05189 0.13477 0.048828 0.047163-0.003062 0.11316-0.025552 0.19727-0.070312 0.08458-0.045324 0.15754-0.080253 0.21875-0.10352 0.060641-0.023735 0.11977-0.038607 0.17578-0.042969 0.05544-0.004838 0.10951 0.002497 0.16211 0.019531 0.052035 0.016554 0.10255 0.046402 0.1543 0.089844 0.096672 0.081154 0.15048 0.17623 0.16016 0.28711 0.009677 0.11088-0.023576 0.225-0.10156 0.33984l0.16797 0.14258-0.113 0.134-0.168-0.14c-0.11037 0.10607-0.22767 0.16048-0.35156 0.16602-0.12398 0.004498-0.24475-0.040812-0.36133-0.13867l0.20703-0.24805c0.067671 0.056806 0.13219 0.085277 0.19531 0.083984 0.063036-0.002339 0.12127-0.033485 0.17188-0.09375 0.042008-0.050041 0.062359-0.10138 0.060547-0.15234-0.002381-0.051439-0.027342-0.0951-0.072266-0.13281-0.04663-0.039145-0.093324-0.057934-0.14258-0.054688-0.049346 0.002199-0.11215 0.025964-0.1875 0.068359-0.075348 0.04241-0.14267 0.075733-0.20312 0.10156-0.061027 0.025361-0.12095 0.041239-0.17773 0.048828-0.056872 0.006539-0.11232 0.002044-0.16797-0.013672-0.055173-0.016252-0.11224-0.046967-0.16797-0.09375-0.096104-0.080674-0.14834-0.17805-0.1582-0.29102-0.009859-0.11297 0.022443-0.2236 0.097656-0.33398l-0.18164-0.1543zm2.084 2.1777 0.048828 0.23633c0.13249-0.007748 0.24318 0.026682 0.33398 0.10156 0.090662 0.074147 0.15112 0.18229 0.17969 0.32422l-0.31641 0.0625c-0.017583-0.087345-0.048712-0.14798-0.09375-0.18359-0.044457-0.03651-0.09779-0.049261-0.1582-0.037109-0.059685 0.012019-0.10109 0.039278-0.12695 0.080078-0.026014 0.040074-0.0335 0.088755-0.021484 0.14844 0.011136 0.055317 0.035453 0.097965 0.074219 0.125 0.038766 0.027024 0.10557 0.048903 0.19922 0.066406 0.094377 0.017348 0.17203 0.036624 0.23438 0.056641 0.0622 0.019276 0.11757 0.044632 0.16406 0.076172 0.046343 0.030803 0.084744 0.069113 0.11523 0.11523 0.030344 0.045392 0.051119 0.099779 0.064453 0.16602 0.024909 0.12374 0.006935 0.23349-0.054688 0.32617-0.061622 0.092685-0.15842 0.15814-0.29102 0.19922l0.042969 0.21875-0.17188 0.033203-0.044922-0.21484c-0.15244 0.014022-0.27864-0.016857-0.37891-0.089844-0.09969-0.073844-0.16332-0.18477-0.19336-0.33398l0.31445-0.0625c0.017436 0.086615 0.051425 0.14912 0.10156 0.1875 0.050719 0.037493 0.11425 0.048771 0.19141 0.033203 0.064052-0.012888 0.1122-0.041076 0.14258-0.082031 0.030234-0.041681 0.038919-0.090936 0.027344-0.14844-0.012015-0.059686-0.03761-0.10266-0.078125-0.13086-0.039934-0.029065-0.10216-0.050582-0.1875-0.064453-0.085345-0.013871-0.16125-0.031295-0.22461-0.048828-0.063509-0.018255-0.11886-0.040817-0.16797-0.070312-0.048526-0.030387-0.089352-0.070197-0.12305-0.11719-0.032967-0.047134-0.057906-0.10641-0.072266-0.17773-0.024763-0.12301-0.004191-0.23174 0.058594-0.32617 0.062785-0.094435 0.15751-0.15989 0.28516-0.19922l-0.046875-0.23438zm-12.746 2.86h0.0371l-0.0528 0.115zm0.082031 0h0.0508l-0.18555 0.4082 0.019531-0.15625zm0.09375 0h0.0507l-0.3164 0.693 0.0195-0.154zm0.095703 0h0.050781l-0.45117 0.98633 0.021484-0.1543zm0.09375 0.001953h0.0508l-0.5821 1.271 0.0215-0.154zm0.095703 0h0.0508l-0.7149 1.564 0.0196-0.154zm0.09375 0h0.0508l-0.7695 1.685h-0.0508zm0.095703 0h0.0508l-0.7695 1.685h-0.050781zm0.09375 0h0.0509l-0.7696 1.685h-0.050781zm0.095703 0h0.0509l-0.7696 1.685h-0.0507zm0.095703 0h0.048828l-0.76953 1.6875h-0.0487zm0.091797 0 0.050781 0.001953-0.76953 1.6855h-0.049zm0.095703 0.001953h0.050781l-0.76953 1.6855h-0.050781zm0.09375 0h0.050781l-0.76953 1.6855h-0.050781zm0.095703 0h0.050781l-0.7705 1.685h-0.0508zm0.09375 0h0.050781l-0.7708 1.685h-0.0507zm0.095703 0h0.050781l-0.76953 1.6855h-0.050781zm0.09375 0h0.050781l-0.76953 1.6875-0.050781-0.001953zm0.095703 0 0.050781 0.001953-0.76953 1.6855h-0.052zm0.09375 0.001953h0.050781l-0.76953 1.6855h-0.053zm0.095703 0h0.050781l-0.76953 1.6855h-0.050781zm0.09375 0h0.050781l-0.76953 1.6855h-0.050781zm0.095703 0h0.050781l-0.76953 1.6855h-0.050781zm0.095703 0h0.048828l-0.76953 1.6855h-0.048828zm0.09375 0h0.050781l-0.76953 1.6855h-0.050781zm0.095703 0h0.047l-0.76953 1.6875h-0.050781zm0.09375 0.001953h0.047l-0.76953 1.6855h-0.050781zm0.09375 0h0.047l-0.76758 1.6855h-0.050781zm0.09375 0h0.046l-0.76953 1.6855h-0.050781zm0.095703 0h0.050781l-0.76953 1.6855h-0.050781zm0.09375 0h0.050781l-0.76953 1.6855h-0.050781zm0.095703 0h0.050781l-0.775 1.685h-0.050781zm0.09375 0h0.050781l-0.76953 1.6875-0.050781-0.001953zm0.095703 0.001953h0.050781l-0.76953 1.6855h-0.050781zm0.095703 0h0.048828l-0.76953 1.6855h-0.055zm0.09375 0h0.050781l-0.76953 1.6855h-0.057zm0.095703 0h0.050781l-0.76953 1.6855h-0.050781zm0.09375 0h0.050781l-0.76953 1.6855h-0.050781zm0.095703 0h0.050781l-0.76953 1.6855h-0.050781zm0.09375 0h0.050781l-0.76953 1.6855h-0.050781zm0.095703 0 0.050781 0.001953-0.76953 1.6855-0.050781-0.001953zm0.09375 0.001953h0.050781l-0.76953 1.6855h-0.050781zm0.095703 0h0.050781l-0.76953 1.6855h-0.050781zm0.091797 0h0.050781l-0.76758 1.6855h-0.050781zm0.095703 0h0.050781l-0.76953 1.6855h-0.048828zm0.095703 0h0.048828l-0.76953 1.6855h-0.048828zm0.09375 0h0.050781l-0.76953 1.6855h-0.050781zm0.095703 0 0.050781 0.001953l-0.78 1.683h-0.050781zm0.09375 0.001953h0.050781l-0.78 1.685h-0.050781zm0.095703 0h0.050781l-0.76953 1.6855h-0.050781zm0.09375 0h0.050781l-0.76953 1.6855h-0.050781zm0.095703 0h0.050781l-0.76953 1.6855h-0.061zm0.09375 0h0.050781l-0.76953 1.6855h-0.062zm0.095703 0h0.050781l-0.76953 1.6855h-0.050781zm0.09375 0h0.050781l-0.76953 1.6855h-0.050781zm0.095703 0.001953h0.050781l-0.76953 1.6855-0.050781-0.001953zm0.09375 0h0.050781l-0.76953 1.6855h-0.050781zm0.095703 0h0.050781l-0.76953 1.6855h-0.050781zm0.095703 0h0.035156c-0.001195 0.011301-0.002689 0.023893-0.003906 0.035156l-0.75195 1.6504h-0.048828zm0.021484 0.15625c-0.00482 0.043398-0.00715 0.092691-0.011719 0.13672l-0.63477 1.3926h-0.050781zm-0.023438 0.25977c-0.004017 0.045409-0.008679 0.08887-0.011719 0.13672l-0.51562 1.1328h-0.050781zm24.148 0.24023c0.17785 1.0763 0.014661 2.0324-0.22461 2.6758-0.42236 1.6781-0.47658 3.2136-0.62109 5.0137-0.15273 3.0349-0.075589 5.9806 0.009766 9.1289-0.02115 1.3355-2.4367 1.1052-2.4512-0.080078 0.033205-5.0161-0.095044-9.2764 0.041016-14.236 0.34169-0.35315 0.16846-1.7929 3.2461-2.502zm-8.0449 0.003906c3.3619 0.77138 2.4339 1.5931 3.2324 2.4316 0.16069 5.1317-0.092384 9.0937 0.054688 14.629-0.056846 0.77211-2.4528 0.80335-2.457 0l0.089844-2.9199 0.015625-3.125-0.082031-3.332-0.21289-2.6934c-0.042578-0.63942-0.1737-1.223-0.29492-1.8125-0.14164-0.60854-0.35161-1.2468-0.41016-1.8184-0.010932-0.46476-0.018059-0.92859 0.064453-1.3594zm-16.125 0.009766c-0.001121 0.029924 0.004467 0.074136 0.003906 0.10547l-0.43 0.91h-0.048828zm0.007813 0.19141c-0.00007975 0.027425 0.005447 0.069007 0.005859 0.097656l-0.33203 0.72656h-0.050781zm0.011719 0.18164c0.00087349 0.02981 0.004405 0.066399 0.005859 0.097656l-0.25 0.54688h-0.050781zm0.011719 0.18359c0.002043 0.033288 0.00312 0.064573 0.005859 0.099609l-0.179 0.36h-0.050781zm0.009766 0.18164c0.00335 0.036552 0.001722 0.061088 0.005859 0.099609l-0.095 0.178h-0.050781zm0.011719 0.18555c0.004573 0.037958 0.00051175 0.053842 0.005859 0.09375h-0.048828z" fill-rule="evenodd" fill-opacity=".97494" transform="matrix(.26458 0 0 .26458 0 284.3)"/>
  <path id="path1980" d="m37.049 18.314a0.35355 0.35355 0 0 0 -0.32812 0.35352 0.35355 0.35355 0 0 0 0.35352 0.35352 0.35355 0.35355 0 0 0 0.35352 -0.35352 0.35355 0.35355 0 0 0 -0.35352 -0.35352 0.35355 0.35355 0 0 0 -0.025391 0zm-5.0312 0.03125a0.35355 0.35355 0 0 0 -0.32812 0.35352 0.35355 0.35355 0 0 0 0.35352 0.35352 0.35355 0.35355 0 0 0 0.35352 -0.35352 0.35355 0.35355 0 0 0 -0.35352 -0.35352 0.35355 0.35355 0 0 0 -0.025391 0z" fill-rule="evenodd" transform="matrix(.26458 0 0 .26458 0 284.3)"/>
 </g>
</svg>
