<svg width="48" height="48" viewBox="0 0 48 48" fill="none" xmlns="http://www.w3.org/2000/svg">
<path fill-rule="evenodd" clip-rule="evenodd" d="M31.2622 9.99025L31.9947 7.1404L27.886 6L7.0903 18.5174L6 22.7872L8.73351 23.5508L8.00107 26.4007L10.7346 27.1643L10.0021 30.0141L12.7357 30.7778L12.0032 33.6276L14.7367 34.3912L14.0043 37.2411L16.7378 38.0047L16.0053 40.8546L20.1056 42L40.893 29.4876L42 25.2078L39.2665 24.4442L39.9989 21.5943L37.2654 20.8307L37.9979 17.9808L35.2643 17.2172L35.9968 14.3673L33.2633 13.6037L33.9957 10.7539L31.2622 9.99025ZM31.5711 12.1531L28.8376 11.3895L29.5692 8.5428L28.1802 8.15727L8.82502 19.8076L8.42169 21.3871L11.1581 22.1516L10.4257 25.0014L13.1592 25.765L12.4268 28.6149L15.1603 29.3785L14.4278 32.2284L17.1613 32.992L16.4289 35.8419L19.1624 36.6055L18.43 39.4553L19.8131 39.8417L39.1614 28.1955L39.5725 26.6062L36.8419 25.8434L37.5743 22.9935L34.8408 22.2299L35.5732 19.3801L32.8397 18.6165L33.5722 15.7666L30.8387 15.003L31.5711 12.1531Z" fill="#333333"/>
<path fill-rule="evenodd" clip-rule="evenodd" d="M24.0001 30.9993C27.8661 30.9993 31.0001 27.8653 31.0001 23.9993C31.0001 20.1333 27.8661 16.9993 24.0001 16.9993C20.1341 16.9993 17.0001 20.1333 17.0001 23.9993C17.0001 27.8653 20.1341 30.9993 24.0001 30.9993ZM24.0001 32.9993C28.9706 32.9993 33.0001 28.9699 33.0001 23.9993C33.0001 19.0287 28.9706 14.9993 24.0001 14.9993C19.0295 14.9993 15.0001 19.0287 15.0001 23.9993C15.0001 28.9699 19.0295 32.9993 24.0001 32.9993Z" fill="#333333"/>
<path fill-rule="evenodd" clip-rule="evenodd" d="M24.0001 27.0003C25.6569 27.0003 27.0001 25.6571 27.0001 24.0003C27.0001 22.3434 25.6569 21.0003 24.0001 21.0003C22.3432 21.0003 21.0001 22.3434 21.0001 24.0003C21.0001 25.6571 22.3432 27.0003 24.0001 27.0003ZM24.0001 29.0003C26.7615 29.0003 29.0001 26.7617 29.0001 24.0003C29.0001 21.2388 26.7615 19.0003 24.0001 19.0003C21.2386 19.0003 19.0001 21.2388 19.0001 24.0003C19.0001 26.7617 21.2386 29.0003 24.0001 29.0003Z" fill="#333333"/>
</svg>
