<svg width="48" height="48" viewBox="0 0 48 48" fill="none" xmlns="http://www.w3.org/2000/svg">
<path fill-rule="evenodd" clip-rule="evenodd" d="M19.7548 4.00635L19.3655 4.62908L4.59624 28.2629L4.59086 28.2642L4.59211 28.2695L4.21216 28.8773L4.21547 28.8794L4.46847 28.821C4.54798 28.8023 4.62855 28.7824 4.70904 28.7641C4.77874 28.7481 4.84831 28.7338 4.91794 28.7173L4.92001 28.714L5.44049 28.5925L7.90481 28.0255L8.47458 30.4892L8.52797 30.7207L8.5199 30.7226L8.63807 31.2226L8.64076 31.2219L9.142 31.1092L9.14075 31.1038L9.36953 31.0509L11.8339 30.4839L12.4036 32.9476L12.4564 33.1765L12.4483 33.1783L12.5665 33.6783L12.5692 33.6777L12.5698 33.6804L13.071 33.5676L13.0692 33.5595L13.298 33.5067L15.7623 32.9397L16.3321 35.4034L16.385 35.6392L16.3823 35.6398L16.5005 36.1398L17.232 35.9683L19.6963 35.4012L20.2661 37.865L20.3178 38.0953L20.3097 38.0972L20.4279 38.5972L20.4306 38.5966L20.9318 38.4838L20.9306 38.4785L21.1594 38.4257L23.6237 37.8587L24.1934 40.3224L24.2452 40.5528L24.2425 40.5534L24.3265 40.9054L24.3596 41.055L24.8609 40.9423L24.8596 40.9369L25.0921 40.8819L27.5564 40.3149L27.5732 40.3875L27.5705 40.3881L27.7071 40.9802C27.8807 41.7489 28.0628 42.5333 28.2446 43.304C28.2537 43.3443 28.2622 43.3793 28.2713 43.4198C28.3177 43.6154 28.361 43.8208 28.4078 44.0118L28.4105 44.0112L28.7936 43.3984L28.793 43.3958L43.5672 19.7578L43.5725 19.7566L43.9556 19.1438L43.955 19.1412C42.9709 19.354 41.9235 19.6035 40.9227 19.8392L40.3306 19.9758L40.3312 19.9784L40.2585 19.9953L39.6888 17.5315L39.6364 17.2984L39.6418 17.2972L39.5236 16.7972L39.3746 16.833L39.0214 16.9116L39.022 16.9143L38.7922 16.9687L36.3278 17.5357L35.7581 15.072L35.7053 14.8433L35.7107 14.842L35.5925 14.342L35.5919 14.3394L35.0906 14.4522L35.0925 14.4603L34.8627 14.5147L32.3984 15.0817L31.8286 12.618L31.6624 11.8852L31.1612 11.9981L31.1618 12.0008L30.9266 12.0564L28.4623 12.6234L27.8925 10.1597L27.8397 9.93101L27.8478 9.92916L27.7296 9.42915L27.7269 9.42973L27.7263 9.42708L27.2251 9.53988L27.2269 9.54796L26.9982 9.60067L24.5338 10.1677L23.9641 7.70398L23.9113 7.47526L23.9167 7.47399L23.7985 6.97398L23.7979 6.97133L23.2966 7.08413L23.2985 7.09221L23.067 7.14561L20.6027 7.71263L20.033 5.24893L19.9129 4.72239L19.9181 4.7142C19.9005 4.63623 19.8816 4.5574 19.8641 4.47994L19.7548 4.00635ZM29.382 16.2184C31.9539 17.9799 33.4907 20.8971 33.4892 24.0145C33.4862 29.2302 29.2554 33.4558 24.04 33.4524C18.8254 33.4484 14.601 29.2185 14.6036 24.0042C14.6061 18.7889 18.8359 14.563 24.0513 14.5652C25.9542 14.5666 27.8123 15.1429 29.382 16.2184ZM28.0833 18.1153C26.8961 17.3017 25.4908 16.8656 24.0513 16.8641C20.1047 16.8615 16.9035 20.059 16.9012 24.0055C16.8992 27.951 20.0956 31.1515 24.0411 31.1545C27.9877 31.1571 31.189 27.9596 31.1912 24.0131C31.192 21.6547 30.029 19.4478 28.0832 18.1156L28.0833 18.1153Z" fill="#333333"/>
</svg>
