<?xml version="1.0" encoding="UTF-8" standalone="no"?>
<!-- Created with Inkscape (http://www.inkscape.org/) -->
<svg id="svg8" xmlns:rdf="http://www.w3.org/1999/02/22-rdf-syntax-ns#" xmlns="http://www.w3.org/2000/svg" xmlns:osb="http://www.openswatchbook.org/uri/2009/osb" height="48" width="48" version="1.1" xmlns:cc="http://creativecommons.org/ns#" viewBox="0 0 12.7 12.7" xmlns:dc="http://purl.org/dc/elements/1.1/">
 <title id="title4753">UIO-icon</title>
 <metadata id="metadata5">
  <rdf:RDF>
   <cc:Work rdf:about="">
    <dc:format>image/svg+xml</dc:format>
    <dc:type rdf:resource="http://purl.org/dc/dcmitype/StillImage"/>
    <dc:title>UIO-icon</dc:title>
    <dc:creator>
     <cc:Agent>
      <dc:title>Joaquín Urbano</dc:title>
     </cc:Agent>
    </dc:creator>
    <dc:rights>
     <cc:Agent>
      <dc:title>GPL</dc:title>
     </cc:Agent>
    </dc:rights>
   </cc:Work>
  </rdf:RDF>
 </metadata>
 <g id="layer1" transform="translate(0,-284.3)">
  <path id="rect5009" d="m0 0v48h48v-48zm13.689 8.0977c1.933-1e-7 3.5 1.567 3.5 3.5s-1.567 3.5-3.5 3.5-3.5-1.567-3.5-3.5 1.567-3.5 3.5-3.5zm21.037 0c1.933 0 3.5 1.567 3.5 3.5 0.000001 1.933-1.567 3.5-3.5 3.5s-3.5-1.567-3.5-3.5 1.567-3.5 3.5-3.5zm-21.384 7.8613h3.875v0.0078c0.57534 0.0075 1.124 0.32655 1.3945 0.88086l3.8691 7.9258c0.38289 0.78459 0.05998 1.7245-0.72461 2.1074-0.78459 0.38287-1.7245 0.05998-2.1074-0.72461l-2.4316-4.9824v17.188c0 0.87303-0.70314 1.5762-1.5762 1.5762-0.87303 0-1.5762-0.70314-1.5762-1.5762v-9.269h-0.75977v9.2676c0 0.87303-0.70314 1.5762-1.5762 1.5762-0.87303 0-1.5742-0.70314-1.5742-1.5762v-17.176l-2.4265 4.97c-0.3829 0.785-1.3209 1.108-2.1055 0.725-0.7845-0.383-1.1094-1.323-0.7265-2.108l3.8691-7.925c0.26937-0.552 0.81597-0.86757 1.3887-0.87891v-0.0078zm21.037 0h3.875v0.0078c0.57534 0.0075 1.124 0.32655 1.3945 0.88086l3.8691 7.9258c0.38289 0.78459 0.05998 1.7245-0.72461 2.1074-0.78459 0.38287-1.7245 0.05998-2.1074-0.72461l-2.4316-4.9824c0 3.7635 0.39047 6.2572 2.2207 10.076h-2.2207v7.1113c0 0.87303-0.70314 1.5762-1.5762 1.5762-0.87303 0-1.5762-0.70314-1.5762-1.5762v-7.112h-0.75976v7.1113c0 0.87303-0.70314 1.5762-1.5762 1.5762-0.87303 0-1.5742-0.70314-1.5742-1.5762v-7.111h-2.2168c2.0451-3.9599 2.276-6.6783 2.2168-10.064l-2.4258 4.9707c-0.38289 0.78471-1.3209 1.1075-2.1055 0.72461-0.78459-0.38287-1.1095-1.3229-0.72656-2.1074l3.8691-7.9258c0.26937-0.552 0.81597-0.86757 1.3887-0.87891v-0.0078z" fill-rule="evenodd" transform="matrix(.26458 0 0 .26458 0 284.3)" fill="#333"/>
 </g>
</svg>
