<?xml version="1.0" encoding="UTF-8" standalone="no"?>
<!-- Created with Inkscape (http://www.inkscape.org/) -->
<svg id="svg8" xmlns:rdf="http://www.w3.org/1999/02/22-rdf-syntax-ns#" xmlns="http://www.w3.org/2000/svg" xmlns:osb="http://www.openswatchbook.org/uri/2009/osb" height="48" width="48" version="1.1" xmlns:cc="http://creativecommons.org/ns#" viewBox="0 0 12.7 12.7" xmlns:dc="http://purl.org/dc/elements/1.1/">
 <title id="title4753">UIO-icon</title>
 <metadata id="metadata5">
  <rdf:RDF>
   <cc:Work rdf:about="">
    <dc:format>image/svg+xml</dc:format>
    <dc:type rdf:resource="http://purl.org/dc/dcmitype/StillImage"/>
    <dc:title>UIO-icon</dc:title>
    <dc:creator>
     <cc:Agent>
      <dc:title>Joaquín Urbano</dc:title>
     </cc:Agent>
    </dc:creator>
    <dc:rights>
     <cc:Agent>
      <dc:title>GPL</dc:title>
     </cc:Agent>
    </dc:rights>
   </cc:Work>
  </rdf:RDF>
 </metadata>
 <g id="layer1" fill="#333" transform="translate(0,-284.3)">
  <path id="path1084" d="m12.051 4.0664c-1.875 0.0003-3.3945 1.5199-3.3948 3.3945 0.00028441 1.8746 1.5199 3.3942 3.3945 3.3945 1.8746-0.0002846 3.3942-1.5199 3.3945-3.3945 0-1.8746-1.52-3.3942-3.394-3.3945zm22.699 0.0996c-1.875 0.0003-3.395 1.5211-3.395 3.3965 0.001 1.8746 1.52 3.3945 3.395 3.3945s3.394-1.5199 3.395-3.3945c0-1.8754-1.52-3.3962-3.395-3.3965zm-22.992 8.189c-1.9517 0.00025814-3.1052 1.7007-3.0938 3.6523l0.015625 2.5879c0.3885 7.8963-0.70235 9.7833-0.6875 11.439-0.14853 2.3646-0.15622 4.9199-0.625 7.0273l-2.0566 3.8535c-0.63172 1.2939-1.3351 2.2685-0.041016 2.9004 1.2941 0.63185 2.8427 0.098604 3.4746-1.1953l1.9037-3.9c0.089729-0.18402 0.15337-0.37377 0.19727-0.56445 0.075455-0.16381 0.13633-0.33633 0.17773-0.51953l0.825-6.774 1.611 5.983-0.6 4.094c-0.20887 1.4249-0.15536 2.8614 1.2695 3.0703 1.1504 0 1.6204-0.20175 1.9746-1.6992 0.48704-3.0526 1.0998-5.5165 0.59961-6.9492l-1.1133-4.918c-0.055535-0.12062-0.056457-0.2624-0.10352-0.39062-0.55104-1.5014-0.58891-3.4532-0.42773-4.6211l0.39648 0.25977c0.077347 0.050306 0.1555 0.093256 0.23633 0.13281 0.27344 0.097901 0.54908 0.19187 0.85547 0.21289 0.62893 0.025739 1.2398-0.23539 1.6777-0.72266 1.6832-0.80875 3.2842-0.7381 4.8906-0.7207l-0.62305-2.7539-2.916 1.5645c0.76095-0.89693 1.6764-1.5448 2.5781-2.2168l-2.166-1.8125-1.5312 3.375c-0.162-0.261-0.369-0.5-0.645-0.68l-2.5859-1.6836c0.00055028-0.057184 0.001953-0.11707 0.001953-0.17383l0.013672-4.2656c0.009029-1.9517-1.5328-3.5896-3.4844-3.5898zm22.992 0.118c-1.2334-0.004687-2.4391 0.095562-3.6973 0.67188l-0.007813 0.003906-0.005859 0.001953c-0.22542 0.11268-0.35136 0.18712-0.50977 0.27148-0.001748-0.001208-0.003641-0.002381-0.003906-0.003906-0.31125 0.1752-0.62509 0.37053-0.94531 0.61523-1.2553 0.88969-2.566 6.5631-2.877 13.156 0.11459 1.3544 2.0093 1.2668 2.0469 0.078125 0.31232-5.0133 1.2397-9.0912 2.377-10.521 0.00933 0.052214 0.00445 0.10829 0.005859 0.14258l-0.846 8.36c2.7652 0.17364 5.8202 0.059172 8.8398 0-0.14481-2.9948-0.57241-5.7634-0.9082-8.6055-0.002072-0.001492-0.011615-0.051194-0.048828-0.18945 0.046346 0.064286 0.10188 0.15662 0.14844 0.21094 1.1627 1.3648 2.1142 5.5067 2.4316 10.602 0.037561 1.1887 1.9323 1.2763 2.0469-0.078125-0.31095-6.5932-1.6216-12.267-2.877-13.156-0.51862-0.41205-1.0018-0.63687-1.5-0.89844l-0.001953-0.001953c-1.247-0.565-2.444-0.666-3.668-0.661zm-22.973 1.3145c1.1806 0 2.1289 0.95028 2.1289 2.1309v3.5391l-0.017578 0.54688 1.3301 0.86719 0.71289 0.46289c0.075326 0.049013 0.14462 0.1036 0.21289 0.1582l1.084 0.70508c1.0034 0.65313 1.3908 1.8235 0.86914 2.625-0.5217 0.80154-1.7486 0.9207-2.752 0.26758l-0.2793-0.18164-2.9844-1.9434c-0.074595-0.048586-0.14526-0.10012-0.21289-0.1543l-1.0859-0.70703c-1.1933-0.85-1.0918-1.58-1.1375-2.648v-3.5391c0-1.1806 0.95225-2.1309 2.1328-2.1309zm25.271 4.5273c0.008461-0.00030399 0.01693-0.00030399 0.025391 0 0.19523 0.00002085 0.35349 0.15828 0.35352 0.35352-0.00002085 0.19523-0.15828 0.35349-0.35352 0.35352-0.19523-0.00002085-0.35349-0.15828-0.35352-0.35352-0.00046112-0.18573 0.14287-0.34016 0.32813-0.35352zm-5.0312 0.03125c0.008461-0.00030399 0.01693-0.00030399 0.025391 0 0.19523 0.00002085 0.35349 0.15828 0.35352 0.35352-0.00002085 0.19523-0.15828 0.35349-0.35352 0.35352-0.19523-0.00002085-0.35349-0.15828-0.35352-0.35352-0.00046112-0.18573 0.14287-0.34016 0.32813-0.35352zm-12.262 1.834 0.18555 0.15625c0.098711-0.088717 0.20654-0.13271 0.32422-0.13086 0.11711 0.001373 0.23286 0.049492 0.34375 0.14258l-0.207 0.246c-0.068239-0.057282-0.13203-0.086206-0.18945-0.085938-0.057511-0.00077783-0.10686 0.023133-0.14648 0.070312-0.039144 0.046632-0.056026 0.092598-0.050781 0.14062 0.004677 0.04755 0.031495 0.091715 0.078125 0.13086 0.043218 0.036284 0.087603 0.05189 0.13477 0.048828 0.047163-0.003062 0.11316-0.025552 0.19727-0.070312 0.08458-0.045324 0.15754-0.080249 0.21875-0.10352 0.060641-0.023735 0.11977-0.038607 0.17578-0.042969 0.05544-0.004838 0.10951 0.002488 0.16211 0.019531 0.052035 0.016554 0.10255 0.046402 0.1543 0.089844 0.096672 0.081154 0.15048 0.17623 0.16016 0.28711 0.009677 0.11088-0.023576 0.225-0.10156 0.33984l0.16797 0.14258-0.113 0.134-0.168-0.14c-0.11037 0.10607-0.22767 0.16047-0.35156 0.16602-0.12398 0.004498-0.24475-0.040812-0.36133-0.13867l0.20703-0.24805c0.067671 0.056806 0.13219 0.085277 0.19531 0.083984 0.063036-0.002339 0.12127-0.033485 0.17188-0.09375 0.042008-0.050041 0.062359-0.10138 0.060547-0.15234-0.002381-0.051439-0.027342-0.0951-0.072266-0.13281-0.04663-0.039145-0.093324-0.057934-0.14258-0.054688-0.049346 0.002199-0.11215 0.025964-0.1875 0.068359-0.075348 0.04241-0.14267 0.075733-0.20312 0.10156-0.061027 0.025361-0.12095 0.041239-0.17773 0.048828-0.056872 0.006539-0.11232 0.002054-0.16797-0.013672-0.055173-0.016252-0.11224-0.046967-0.16797-0.09375-0.096104-0.080674-0.14834-0.17805-0.1582-0.29102-0.009859-0.11297 0.022442-0.2236 0.097656-0.33398l-0.18164-0.1543zm2.084 2.1777 0.048828 0.23633c0.13249-0.007748 0.24318 0.026682 0.33398 0.10156 0.090662 0.074147 0.15112 0.18229 0.17969 0.32422l-0.31641 0.0625c-0.017583-0.087345-0.048712-0.14798-0.09375-0.18359-0.044457-0.03651-0.09779-0.049257-0.1582-0.037109-0.059685 0.012019-0.10109 0.039278-0.12695 0.080078-0.026014 0.040074-0.0335 0.088755-0.021484 0.14844 0.011136 0.055317 0.035453 0.097965 0.074219 0.125 0.038766 0.027024 0.10557 0.048903 0.19922 0.066406 0.094377 0.017348 0.17203 0.036624 0.23438 0.056641 0.0622 0.019276 0.11757 0.044632 0.16406 0.076172 0.046343 0.030803 0.084744 0.069113 0.11523 0.11523 0.030344 0.045392 0.051119 0.099779 0.064453 0.16602 0.024909 0.12374 0.006935 0.23349-0.054688 0.32617-0.061622 0.092685-0.15842 0.15814-0.29102 0.19922l0.042969 0.21875-0.17188 0.033203-0.044922-0.21484c-0.15244 0.014022-0.27864-0.016857-0.37891-0.089844-0.09969-0.073844-0.16332-0.18477-0.19336-0.33398l0.31445-0.0625c0.017436 0.086615 0.051425 0.14912 0.10156 0.1875 0.050719 0.037493 0.11425 0.04879 0.19141 0.033203 0.064052-0.012888 0.1122-0.041076 0.14258-0.082031 0.030234-0.041681 0.038919-0.090936 0.027344-0.14844-0.012015-0.059686-0.03761-0.10266-0.078125-0.13086-0.039934-0.029065-0.10216-0.050582-0.1875-0.064453-0.085345-0.013871-0.16125-0.031295-0.22461-0.048828-0.063509-0.018255-0.11886-0.040821-0.16797-0.070312-0.048526-0.030387-0.089352-0.070197-0.12305-0.11719-0.032967-0.047134-0.057906-0.10641-0.072266-0.17773-0.024763-0.12301-0.004191-0.23174 0.058594-0.32617 0.062785-0.094435 0.15751-0.15989 0.28516-0.19922l-0.046875-0.23438zm8.3359 3.3828c-0.55746 3.5684 1.3955 0.80545 0.80859 17.254 0.038614 1.5922 3.5121 1.3293 3.4941-0.082031l-0.013672-14.25c-0.24-0.067389-0.36399-0.1408-0.55664-0.33594-0.79857-0.83859 0.12944-1.6603-3.2324-2.4316zm9.0469 0-0.50195 0.15039c-3.0776 0.70906-2.9044 2.1488-3.2461 2.502-0.13885 0.14217-0.17228 0.17115-0.48633 0.24609l-0.068359 14.273c-0.017948 1.4113 3.4536 1.6742 3.4922 0.082031-0.5869-16.448 1.368-13.686 0.81055-17.254z" fill-rule="evenodd" fill-opacity=".97494" transform="matrix(.26458 0 0 .26458 0 284.3)"/>
 </g>
</svg>
