<svg width="48" height="48" viewBox="0 0 48 48" fill="none" xmlns="http://www.w3.org/2000/svg">
<path fill-rule="evenodd" clip-rule="evenodd" d="M27.886 6L31.9947 7.1404L31.2622 9.99025L33.9957 10.7539L33.2633 13.6037L35.9968 14.3673L35.2643 17.2172L37.9979 17.9808L37.2654 20.8307L39.9989 21.5943L39.2665 24.4442L42 25.2078L40.893 29.4876L20.1056 42L16.0053 40.8546L16.7378 38.0047L14.0043 37.2411L14.7367 34.3912L12.0032 33.6276L12.7357 30.7778L10.0021 30.0141L10.7346 27.1643L8.00107 26.4007L8.73351 23.5508L6 22.7872L7.0903 18.5174L27.886 6ZM16.2075 28.5005C18.6928 32.8052 24.1971 34.28 28.5017 31.7948C32.8064 29.3095 34.2813 23.8052 31.796 19.5005C29.3107 15.1959 23.8064 13.721 19.5017 16.2063C15.1971 18.6916 13.7222 24.1959 16.2075 28.5005ZM17.9417 27.4984C19.8744 30.8459 24.1548 31.9929 27.5023 30.0602C30.8498 28.1275 31.9967 23.8471 30.0641 20.4996C28.1314 17.1521 23.851 16.0052 20.5035 17.9379C17.156 19.8705 16.0091 24.1509 17.9417 27.4984ZM26.4998 28.3293C24.1088 29.7098 21.0513 28.8906 19.6708 26.4995C18.2903 24.1085 19.1096 21.051 21.5007 19.6705C23.8917 18.2901 26.9492 19.1093 28.3296 21.5004C29.7101 23.8914 28.8909 26.9489 26.4998 28.3293ZM25.5914 26.7537C24.0701 27.6321 22.1247 27.1108 21.2464 25.5895C20.3681 24.0681 20.8893 22.1228 22.4106 21.2445C23.932 20.3661 25.8773 20.8874 26.7556 22.4087C27.634 23.9301 27.1127 25.8754 25.5914 26.7537Z" fill="#333333"/>
</svg>
