<?xml version="1.0" encoding="UTF-8" standalone="no"?>
<!-- Created with Inkscape (http://www.inkscape.org/) -->
<svg id="svg8" xmlns:rdf="http://www.w3.org/1999/02/22-rdf-syntax-ns#" xmlns="http://www.w3.org/2000/svg" xmlns:osb="http://www.openswatchbook.org/uri/2009/osb" height="48" width="48" version="1.1" xmlns:cc="http://creativecommons.org/ns#" viewBox="0 0 12.7 12.7" xmlns:dc="http://purl.org/dc/elements/1.1/">
 <title id="title4753">UIO-icon</title>
 <metadata id="metadata5">
  <rdf:RDF>
   <cc:Work rdf:about="">
    <dc:format>image/svg+xml</dc:format>
    <dc:type rdf:resource="http://purl.org/dc/dcmitype/StillImage"/>
    <dc:title>UIO-icon</dc:title>
    <dc:creator>
     <cc:Agent>
      <dc:title>Joaquín Urbano</dc:title>
     </cc:Agent>
    </dc:creator>
    <dc:rights>
     <cc:Agent>
      <dc:title>GPL</dc:title>
     </cc:Agent>
    </dc:rights>
   </cc:Work>
  </rdf:RDF>
 </metadata>
 <g id="layer1" fill="#333" transform="translate(0,-284.3)">
  <path id="rect885" d="m0 0v48h48v-48h-48zm19.754 4.0098l0.109 0.4746c0.018 0.0774 0.037 0.1564 0.055 0.2344l-0.006 0.0078 0.121 0.5254 0.571 2.4648 2.462-0.5684 0.233-0.0527-0.002-0.0078 0.502-0.1133v0.0039l0.117 0.5h-0.004l0.053 0.2285 0.568 2.465 2.465-0.5685 0.229-0.0527-0.002-0.0078 0.502-0.1133v0.0039h0.003l0.118 0.5h-0.008l0.053 0.2304 0.57 2.463 2.463-0.566 0.236-0.057v-0.002l0.5-0.113 0.166 0.732 0.57 2.465 2.465-0.568 0.229-0.055-0.002-0.008 0.502-0.111v0.002l0.119 0.5-0.006 0.002 0.053 0.228 0.57 2.463 2.465-0.566 0.228-0.055v-0.002l0.354-0.08 0.148-0.035 0.12 0.5-0.006 0.002 0.052 0.232 0.569 2.463 0.074-0.016-0.002-0.003 0.592-0.137c1.001-0.236 2.049-0.485 3.033-0.697v0.001l-0.383 0.614-0.006 0.002-14.773 23.636v0.004l-0.383 0.612-0.002 0.002c-0.047-0.191-0.09-0.397-0.137-0.592-0.009-0.041-0.018-0.077-0.027-0.117-0.182-0.771-0.363-1.554-0.537-2.323l-0.137-0.593h0.002l-0.015-0.073-2.465 0.567-0.233 0.054 0.002 0.006-0.502 0.114-0.033-0.151-0.084-0.351h0.004l-0.053-0.231-0.57-2.465-2.463 0.569-0.23 0.052 0.002 0.004-0.502 0.114-0.002 0.002-0.117-0.5 0.007-0.002-0.052-0.231-0.569-2.465-2.465 0.567-0.732 0.172-0.117-0.5h0.002l-0.053-0.237-0.57-2.463-2.463 0.567-0.231 0.052 0.002 0.008-0.5 0.114-0.002-0.002h-0.002l-0.117-0.5 0.008-0.002-0.053-0.229-0.57-2.463-2.4649 0.567-0.2285 0.052 0.002 0.006-0.502 0.112-0.0019 0.002-0.1192-0.5 0.0078-0.002-0.0527-0.233-0.5703-2.463-2.4629 0.567-0.5215 0.121-0.0019 0.004c-0.0697 0.016-0.1393 0.031-0.209 0.047-0.0805 0.018-0.1607 0.037-0.2402 0.056l-0.254 0.059-0.0019-0.002 0.3789-0.608v-0.005l0.0039-0.002 14.769-23.633 0.389-0.6232zm4.297 10.558c-5.216-0.002-9.445 4.224-9.447 9.44-0.003 5.214 4.222 9.443 9.437 9.447 5.216 0.003 9.446-4.222 9.449-9.437 0.002-3.118-1.535-6.034-4.107-7.795-1.57-1.076-3.429-1.653-5.332-1.655zm0 2.299c1.439 0.002 2.846 0.439 4.033 1.252 1.946 1.333 3.108 3.538 3.107 5.897-0.002 3.946-3.203 7.145-7.15 7.142-3.946-0.003-7.141-3.203-7.139-7.148 0.002-3.947 3.202-7.145 7.149-7.143z" fill-rule="evenodd" transform="matrix(.26458 0 0 .26458 0 284.3)"/>
 </g>
</svg>
