<svg width="48" height="48" viewBox="0 0 48 48" fill="none" xmlns="http://www.w3.org/2000/svg">
<path fill-rule="evenodd" clip-rule="evenodd" d="M28.5005 8.5C28.5005 10.9853 26.4858 13 24.0005 13C21.5152 13 19.5005 10.9853 19.5005 8.5C19.5005 6.01472 21.5152 4 24.0005 4C26.4858 4 28.5005 6.01472 28.5005 8.5ZM26.5005 8.5C26.5005 9.88071 25.3812 11 24.0005 11C22.6198 11 21.5005 9.88071 21.5005 8.5C21.5005 7.11929 22.6198 6 24.0005 6C25.3812 6 26.5005 7.11929 26.5005 8.5Z" fill="#333333"/>
<path fill-rule="evenodd" clip-rule="evenodd" d="M19.9777 15C18.8174 15 17.6649 15.2625 16.6253 15.8916C15.5886 16.5189 14.8425 17.4029 14.3225 18.3698C13.3377 20.2008 13.0625 22.5156 13.0625 24.8261V24.9142C13.0625 24.9435 13.0638 24.9729 13.0664 25.0021L13.0741 25.0899C13.0807 25.1648 13.0856 25.4168 13.0795 26.0102C13.0782 26.1389 13.0765 26.2775 13.0747 26.4259L13.0746 26.4278C13.0691 26.8802 13.0625 27.4183 13.0625 28C13.0625 29.6569 14.4056 31 16.0625 31C16.3902 31 16.7054 30.9475 17.0004 30.8505V31L17.0005 31.0111L17.0005 41C17.0005 42.604 18.2622 43.9242 19.8646 43.9969C21.4669 44.0696 22.843 42.869 22.9882 41.2716L23.8311 32H24.17L25.0128 41.2716C25.158 42.869 26.5341 44.0696 28.1364 43.9969C29.7388 43.9242 31.0005 42.604 31.0005 41V30.8294C31.3132 30.9399 31.6497 31 32.0002 31C33.6571 31 35.0002 29.6569 35.0002 28C35.0002 27.4193 34.9937 26.882 34.9881 26.4301L34.9881 26.4259C34.9863 26.2775 34.9846 26.1389 34.9832 26.0102C34.9771 25.4168 34.982 25.1648 34.9886 25.0899L34.9964 25.0021C34.999 24.9729 35.0002 24.9435 35.0002 24.9142V24.8261C35.0002 22.5156 34.725 20.2008 33.7403 18.3698C33.2203 17.4029 32.4741 16.5189 31.4374 15.8916C30.3979 15.2625 29.2454 15 28.085 15H19.9777ZM16.0625 29C16.4913 29 16.8591 28.7293 17.0005 28.3483V21.5H19.0005V30.9974L19.0005 31L19.0005 41C19.0005 41.5347 19.4211 41.9747 19.9552 41.999C20.4893 42.0232 20.948 41.623 20.9964 41.0905L21.922 30.9095C21.9688 30.3944 22.4006 30 22.9178 30H25.0832C25.6004 30 26.0322 30.3944 26.0791 30.9095L27.0046 41.0905C27.053 41.623 27.5117 42.0232 28.0458 41.999C28.5799 41.9747 29.0005 41.5347 29.0005 41L29.0005 29.9969L29.0004 29.9854L29.0004 29.9807V28.0263L29.0005 28.014V21.5H31.0005V28.0225C31.0123 28.5643 31.4555 29 32.0002 29C32.5525 29 33.0002 28.5523 33.0002 28C33.0002 27.4314 32.9938 26.9041 32.9882 26.4505L32.9881 26.4383C32.9879 26.4203 32.9877 26.4025 32.9874 26.3848C32.9859 26.2608 32.9845 26.1423 32.9834 26.0309C32.9776 25.4742 32.9791 25.1092 32.9964 24.914L33.0002 24.8701V24.8261C33.0002 22.6145 32.7253 20.7049 31.9789 19.3171C31.5963 18.6059 31.0799 18.0129 30.402 17.6027C29.7231 17.1918 28.9413 17 28.085 17H19.9777C19.1214 17 18.3397 17.1918 17.6608 17.6027C16.9828 18.0129 16.4664 18.6059 16.0839 19.3171C15.3375 20.7049 15.0625 22.6145 15.0625 24.8261V24.8701L15.0664 24.914C15.0836 25.1092 15.0851 25.4742 15.0794 26.0309C15.078 26.1616 15.0763 26.302 15.0745 26.4497C15.069 26.9033 15.0625 27.4314 15.0625 28C15.0625 28.5523 15.5102 29 16.0625 29Z" fill="#333333"/>
</svg>
