<svg width="48" height="48" viewBox="0 0 48 48" fill="none" xmlns="http://www.w3.org/2000/svg">
<path fill-rule="evenodd" clip-rule="evenodd" d="M48 0H0V48H48V0ZM30 18.8206C30.2167 19.3328 30.4091 20.0103 30.5637 20.815C30.9705 22.9313 31 25.273 31 26C31 27.1046 31.8954 28 33 28C34.1046 28 35 27.1046 35 26C35 25.227 34.974 22.5687 34.4918 20.06C34.2542 18.8236 33.8757 17.4534 33.227 16.3428C32.5759 15.2281 31.405 14 29.5556 14H29H28H20H19H18.4444C16.595 14 15.4241 15.2281 14.773 16.3428C14.1243 17.4534 13.7458 18.8236 13.5082 20.06C13.026 22.5687 13 25.227 13 26C13 27.1046 13.8954 28 15 28C16.1046 28 17 27.1046 17 26C17 25.273 17.0295 22.9313 17.4363 20.815C17.5909 20.0103 17.7833 19.3328 18 18.8206V29V42C18 43.0747 18.8493 43.9573 19.9232 43.9985C20.9972 44.0398 21.9117 43.2249 21.9941 42.1534L22.9941 29.1534C22.998 29.1022 23 29.051 23 29H25C25 29.051 25.002 29.1022 25.0059 29.1534L26.0059 42.1534C26.0883 43.2249 27.0028 44.0398 28.0768 43.9985C29.1507 43.9573 30 43.0747 30 42V29V18.8206ZM28 8C28 10.2091 26.2091 12 24 12C21.7909 12 20 10.2091 20 8C20 5.79086 21.7909 4 24 4C26.2091 4 28 5.79086 28 8Z" fill="#333333"/>
</svg>
