<?xml version="1.0" encoding="UTF-8" standalone="no"?>
<!-- Created with Inkscape (http://www.inkscape.org/) -->
<svg id="svg8" xmlns:rdf="http://www.w3.org/1999/02/22-rdf-syntax-ns#" xmlns="http://www.w3.org/2000/svg" xmlns:osb="http://www.openswatchbook.org/uri/2009/osb" height="48" width="48" version="1.1" xmlns:cc="http://creativecommons.org/ns#" viewBox="0 0 12.7 12.7" xmlns:dc="http://purl.org/dc/elements/1.1/">
 <title id="title4753">UIO-icon</title>
 <metadata id="metadata5">
  <rdf:RDF>
   <cc:Work rdf:about="">
    <dc:format>image/svg+xml</dc:format>
    <dc:type rdf:resource="http://purl.org/dc/dcmitype/StillImage"/>
    <dc:title>UIO-icon</dc:title>
    <dc:creator>
     <cc:Agent>
      <dc:title>Joaquín Urbano</dc:title>
     </cc:Agent>
    </dc:creator>
    <dc:rights>
     <cc:Agent>
      <dc:title>GPL</dc:title>
     </cc:Agent>
    </dc:rights>
   </cc:Work>
  </rdf:RDF>
 </metadata>
 <g id="layer1" transform="translate(0,-284.3)">
  <path id="rect4902" d="m24.002 4.0273a4.3911 4.3911 0 0 0 -4.393 4.3907 4.3911 4.3911 0 0 0 4.393 4.391 4.3911 4.3911 0 0 0 4.391 -4.391 4.3911 4.3911 0 0 0 -4.391 -4.3907zm0 0.6934a3.698 3.698 0 0 1 3.697 3.6973 3.698 3.698 0 0 1 -3.697 3.697 3.698 3.698 0 0 1 -3.701 -3.697 3.698 3.698 0 0 1 3.701 -3.6973zm-0.438 9.1703l-3.998 0.002v0.011c-0.718 0.015-1.404 0.409-1.742 1.102l-4.855 9.943c-0.481 0.985-0.072 2.164 0.912 2.645 0.984 0.48 2.16 0.076 2.64-0.908l3.045-6.237v6.996 1.487 1.439 11.627c0 1.095 0.88 1.977 1.975 1.977s1.977-0.882 1.977-1.977v-11.627h0.046 0.864 0.043v11.627c0 1.095 0.883 1.977 1.978 1.977 1.096 0 1.977-0.882 1.977-1.977v-11.627-1.439-1.487-7.011l3.051 6.252c0.48 0.984 1.66 1.388 2.644 0.908 0.984-0.481 1.389-1.66 0.908-2.645l-4.853-9.943c-0.34-0.696-1.028-1.096-1.75-1.106v-0.009h-3.998-0.864zm4.791 0.722v0.014c0.472 0.013 0.921 0.267 1.145 0.721l1.039 2.105c0.012 0.022 0.032 0.034 0.043 0.057l3.838 7.773c0.322 0.652 0.056 1.436-0.596 1.758-0.651 0.322-1.434 0.056-1.756-0.596l-1.043-2.107c-0.011-0.019-0.03-0.034-0.041-0.057l-3.224-6.531v2.918 2.969 4.627 4.043 0.939 1.072 2.616 4.98c0 0.363-0.146 0.693-0.383 0.93-0.237 0.236-0.565 0.382-0.928 0.383-0.363 0-0.692-0.146-0.929-0.383s-0.385-0.567-0.385-0.93v-4.98-2.616-1.072-0.939-2.621h-2.281v2.621 0.939 1.072 2.616 4.98c0 0.727-0.586 1.313-1.313 1.313s-1.311-0.586-1.311-1.313v-4.98-2.616-1.072-0.939-2.969-1.074-2.616-0.937-1.074-2.969-2.965l-3.248 6.576c-0.01 0.023-0.029 0.038-0.041 0.057l-1.041 2.107c-0.321 0.652-1.106 0.918-1.757 0.596-0.652-0.322-0.918-1.106-0.596-1.758l3.838-7.775c0.011-0.022 0.033-0.032 0.045-0.055l1.039-2.105c0.241-0.489 0.741-0.761 1.252-0.731l8.634-0.002z" fill-rule="evenodd" fill-opacity=".98515" transform="matrix(.26458 0 0 .26458 0 284.3)" fill="#333"/>
 </g>
</svg>
