<svg width="48" height="48" viewBox="0 0 48 48" fill="none" xmlns="http://www.w3.org/2000/svg">
<path d="M33.9115 17.0832L34.4875 17.2364L34.5382 16.6425C34.7368 14.3131 36.6478 12.5 39 12.5C41.4839 12.5 43.5 14.5161 43.5 17V18C43.5 23.8952 41.735 27.6592 39.3224 29.9931C36.9008 32.3357 33.7667 33.2957 30.9309 33.4608L30.8017 33.4684L30.6924 33.5377C28.7471 34.7703 26.4592 35.5 24 35.5C21.5408 35.5 19.2529 34.7703 17.3076 33.5377L17.1983 33.4684L17.0691 33.4608C14.2333 33.2957 11.0992 32.3357 8.67765 29.9931C6.26504 27.6592 4.5 23.8952 4.5 18V17C4.5 14.5161 6.51614 12.5 9 12.5C11.3507 12.5 13.2632 14.3316 13.4618 16.6428L13.5128 17.2363L14.0885 17.0832C15.6484 16.6683 16.9146 15.9814 18.1004 15.3381C18.3968 15.1772 18.6882 15.0192 18.9779 14.8687C20.4371 14.1111 21.9241 13.5 24 13.5C26.0657 13.5 27.5527 14.1109 29.0149 14.8689C29.3043 15.019 29.5956 15.1766 29.8918 15.337C31.0809 15.9807 32.3507 16.6681 33.9115 17.0832ZM12.8084 30.413L14.3374 31.1272L13.4442 29.6954C12.2298 27.7485 11.5 25.4593 11.5 23V17C11.5 15.6239 10.3761 14.5 9 14.5C7.62386 14.5 6.5 15.6239 6.5 17V18C6.5 21.7176 7.25906 24.4457 8.43976 26.4397C9.62244 28.4371 11.2093 29.6661 12.8084 30.413ZM34.5577 29.6924L33.6425 31.1366L35.1916 30.413C36.7907 29.6661 38.3776 28.4371 39.5602 26.4397C40.7409 24.4457 41.5 21.7176 41.5 18V17C41.5 15.6239 40.3761 14.5 39 14.5C37.6239 14.5 36.5 15.6239 36.5 17V23C36.5 25.4618 35.7888 27.7495 34.5577 29.6924ZM21.6344 21.3905L21.6359 21.3896C22.5853 20.824 23.1749 20.5 24 20.5C24.8242 20.5 25.3917 20.8223 26.3248 21.37C27.2315 21.914 28.2987 22.5429 29.8652 22.9815L30.5 23.1592V22.5V20.42V20.0642L30.1639 19.9476C29.2499 19.6305 28.5559 19.2222 27.8829 18.8263L27.856 18.8105L27.847 18.8051C26.7895 18.1666 25.6855 17.5 24 17.5C22.3154 17.5 21.192 18.1658 20.1151 18.804L20.1065 18.809C20.1062 18.8092 20.106 18.8093 20.1057 18.8095C19.4272 19.2086 18.7434 19.6063 17.8331 19.9287L17.5 20.0467V20.4V22.48V23.1354L18.1321 22.9622C19.66 22.5436 20.7478 21.9143 21.6344 21.3905Z" stroke="#333333"/>
</svg>
