<svg width="48" height="48" viewBox="0 0 48 48" fill="none" xmlns="http://www.w3.org/2000/svg">
<path fill-rule="evenodd" clip-rule="evenodd" d="M21.0078 9.30073C19.9438 9.34763 18.7824 9.75663 18.0664 10.7578C17.0794 12.4265 18.1391 13.2643 19.6211 13.7792C19.5651 13.7964 19.5127 13.8201 19.457 13.8378C19.1899 13.9234 18.931 14.0257 18.6699 14.1249C18.408 14.2242 18.1467 14.323 17.8926 14.4355C17.8102 14.4751 17.7065 14.5263 17.6562 14.5507C16.354 15.1549 15.1528 15.917 14.1191 16.8437C12.5824 18.2214 11.4341 19.8905 10.7656 21.7187C10.4664 21.6508 10.1604 21.6164 9.85352 21.6152C9.30358 21.6152 8.75808 21.7231 8.25 21.9335C7.74192 22.144 7.28143 22.4528 6.89258 22.8417C6.50373 23.2306 6.19478 23.6911 5.98438 24.1992C5.77397 24.7073 5.66596 25.2527 5.66602 25.8027C5.66596 26.3526 5.77397 26.8961 5.98438 27.4042C6.19478 27.9123 6.50373 28.3747 6.89258 28.7636C7.28143 29.1525 7.74192 29.4614 8.25 29.6718C8.75808 29.8823 9.30358 29.9902 9.85352 29.9902C10.2453 29.9897 10.6353 29.935 11.0117 29.8261C12.0326 32.1841 13.8567 34.2151 16.2402 35.6503C17.6486 36.4984 19.215 37.108 20.8574 37.4706C20.8809 37.476 20.9042 37.4811 20.9277 37.4863C21.4396 37.5969 21.9579 37.6832 22.4824 37.7441C22.5909 37.7569 22.6997 37.7647 22.8086 37.7753C23.301 37.8225 23.7963 37.8551 24.2949 37.8574C24.3192 37.8575 24.3429 37.8613 24.3672 37.8613C24.9139 37.8607 25.4569 37.8239 25.9961 37.7695C26.058 37.7631 26.1199 37.759 26.1816 37.7519C28.4358 37.4983 30.5978 36.786 32.4805 35.6523C34.864 34.2171 36.6881 32.1861 37.709 29.8281C38.0854 29.937 38.4754 29.9916 38.8672 29.9921C39.4171 29.9921 39.9626 29.8843 40.4707 29.6738C40.9788 29.4634 41.4393 29.1545 41.8281 28.7656C42.217 28.3767 42.5259 27.9143 42.7363 27.4062C42.9467 26.8981 43.0547 26.3545 43.0547 25.8046C43.0547 25.2546 42.9467 24.7092 42.7363 24.2011C42.5259 23.693 42.217 23.2326 41.8281 22.8437C41.4393 22.4548 40.9788 22.146 40.4707 21.9355C39.9626 21.7251 39.4171 21.6171 38.8672 21.6171C38.5603 21.6183 38.2543 21.6529 37.9551 21.7207C37.2866 19.8925 36.1383 18.2234 34.6016 16.8457C33.5675 15.9186 32.3675 15.157 31.0645 14.5527L30.7969 14.4199C30.5863 14.3272 30.3684 14.2476 30.1523 14.164C29.7438 13.9854 29.3581 13.8825 28.9863 13.7597C27.8877 13.4298 26.7474 13.2177 25.582 13.1289L25.4414 13.1035C25.1062 13.0803 24.7699 13.0689 24.4336 13.0664C24.4067 13.0662 24.3804 13.0624 24.3535 13.0624C23.9951 13.0637 23.6366 13.0768 23.2793 13.1015C22.4013 12.4549 18.2889 12.6423 20.0469 11.0507C21.5889 9.78538 23.7602 10.4094 20.9082 11.8457C25.2301 10.8536 23.3508 9.19774 21.0078 9.30073ZM24.3262 13.541C24.3522 13.5409 24.3783 13.5409 24.4043 13.541C27.4194 13.5442 30.3491 14.4109 32.7396 16.0069C35.1301 17.603 36.8479 19.8391 37.627 22.3691C38.0265 22.2243 38.4481 22.1496 38.873 22.1484C39.8513 22.1482 40.7895 22.5365 41.4814 23.2281C42.1733 23.9196 42.5622 24.8576 42.5625 25.8359C42.5626 26.3204 42.4673 26.8002 42.2819 27.2479C42.0965 27.6956 41.8248 28.1024 41.4821 28.445C41.1395 28.7876 40.7327 29.0594 40.2851 29.2447C39.8374 29.4301 39.3576 29.5254 38.873 29.5253C38.3625 29.5242 37.8577 29.4172 37.3906 29.2109C36.4813 31.5784 34.7382 33.6378 32.4078 35.0979C30.0775 36.558 27.2777 37.345 24.4043 37.3476C21.5277 37.3419 18.7262 36.5502 16.3965 35.0846C14.0668 33.619 12.3271 31.5538 11.4238 29.1816C10.9553 29.39 10.4484 29.4984 9.93555 29.4999C8.95731 29.4997 8.01925 29.1108 7.32772 28.4189C6.63619 27.727 6.24782 26.7887 6.24805 25.8105C6.24834 24.8326 6.63693 23.8948 7.32841 23.2034C8.01989 22.5119 8.95765 22.1233 9.93555 22.123C10.3668 22.1241 10.7945 22.2007 11.1992 22.3496C11.9781 19.8369 13.6834 17.6152 16.0542 16.0243C18.4249 14.4335 21.3305 13.5612 24.3262 13.541ZM16.4785 20.3183C16.2796 20.3187 16.1186 20.4735 16.1191 20.664C16.1198 20.8537 16.2803 21.0073 16.4785 21.0078C16.6767 21.0073 16.8373 20.8537 16.8379 20.664C16.8384 20.4735 16.6775 20.3187 16.4785 20.3183ZM32.4082 20.7617C32.2192 20.7739 32.0724 20.9241 32.0723 21.1054C32.0718 21.2966 32.2339 21.4517 32.4336 21.4511C32.6326 21.4507 32.7935 21.2959 32.793 21.1054C32.7924 20.9157 32.6318 20.7621 32.4336 20.7617C32.4251 20.7614 32.4167 20.7614 32.4082 20.7617ZM20.3711 22.3027C19.9712 22.3028 19.5874 22.4613 19.3047 22.7441C19.0219 23.0269 18.8634 23.4106 18.8633 23.8105C18.8634 24.2104 19.0219 24.5941 19.3047 24.8769C19.5874 25.1596 19.9712 25.3182 20.3711 25.3183C20.7709 25.318 21.1549 25.1597 21.4375 24.8769C21.7201 24.5941 21.8788 24.2103 21.8789 23.8105C21.8788 23.4108 21.7201 23.0269 21.4375 22.7441C21.1549 22.4614 20.7709 22.303 20.3711 22.3027ZM28.3711 22.3027C27.9712 22.3028 27.5874 22.4613 27.3047 22.7441C27.0219 23.0269 26.8634 23.4106 26.8633 23.8105C26.8634 24.2104 27.0219 24.5941 27.3047 24.8769C27.5874 25.1596 27.9712 25.3182 28.3711 25.3183C28.7709 25.318 29.1549 25.1597 29.4375 24.8769C29.7201 24.5941 29.8788 24.2103 29.8789 23.8105C29.8788 23.4108 29.7201 23.0269 29.4375 22.7441C29.1549 22.4614 28.7709 22.303 28.3711 22.3027ZM17.293 22.3085C17.1048 22.3217 16.9591 22.4716 16.959 22.6523C16.9585 22.8428 17.1194 22.9976 17.3184 22.998C17.5173 22.9976 17.6782 22.8428 17.6777 22.6523C17.6771 22.4626 17.5165 22.309 17.3184 22.3085C17.3099 22.3083 17.3014 22.3083 17.293 22.3085ZM14.2695 22.3515C14.0698 22.3509 13.9077 22.506 13.9082 22.6972C13.9088 22.8877 14.0706 23.0416 14.2695 23.041C14.4677 23.0405 14.6283 22.8869 14.6289 22.6972C14.6294 22.5067 14.4685 22.3519 14.2695 22.3515ZM32.0098 22.6171C31.8208 22.6303 31.6748 22.7814 31.6758 22.9628C31.6764 23.1526 31.837 23.3062 32.0352 23.3066C32.2333 23.3062 32.3939 23.1526 32.3945 22.9628C32.395 22.7723 32.2341 22.6175 32.0352 22.6171C32.0267 22.6168 32.0182 22.6168 32.0098 22.6171ZM34.0684 23.4121C33.8686 23.4114 33.7065 23.5665 33.707 23.7578C33.7076 23.9482 33.8694 24.1021 34.0684 24.1015C34.2665 24.1011 34.4271 23.9475 34.4277 23.7578C34.4282 23.5673 34.2673 23.4125 34.0684 23.4121ZM16.2988 24.0234C16.0999 24.0238 15.9389 24.1786 15.9395 24.3691C15.9401 24.5588 16.1007 24.7124 16.2988 24.7128C16.497 24.7124 16.6576 24.5588 16.6582 24.3691C16.6587 24.1786 16.4978 24.0238 16.2988 24.0234ZM32.3008 24.4726C32.1011 24.472 31.9389 24.6271 31.9395 24.8183C31.9401 25.0088 32.1019 25.1627 32.3008 25.1621C32.4989 25.1616 32.6595 25.008 32.6602 24.8183C32.6607 24.6278 32.4997 24.473 32.3008 24.4726ZM13.8457 25.1367C13.6575 25.1498 13.5118 25.2998 13.5117 25.4804C13.5112 25.6709 13.6721 25.8257 13.8711 25.8261C14.0701 25.8257 14.231 25.6709 14.2305 25.4804C14.2299 25.2907 14.0693 25.1371 13.8711 25.1367C13.8626 25.1364 13.8542 25.1364 13.8457 25.1367ZM35.2363 26.1093C35.0474 26.1215 34.9006 26.2717 34.9004 26.4531C34.8999 26.6443 35.062 26.7994 35.2617 26.7988C35.4607 26.7984 35.6216 26.6436 35.6211 26.4531C35.6205 26.2633 35.4599 26.1097 35.2617 26.1093C35.2532 26.109 35.2448 26.109 35.2363 26.1093ZM33.5996 26.4179C33.4106 26.4311 33.2646 26.5822 33.2656 26.7636C33.2662 26.9541 33.428 27.108 33.627 27.1074C33.8251 27.107 33.9857 26.9533 33.9863 26.7636C33.9868 26.5731 33.8259 26.4183 33.627 26.4179C33.6179 26.4176 33.6087 26.4176 33.5996 26.4179ZM16.2949 26.7246C16.1067 26.7377 15.961 26.8877 15.9609 27.0683C15.9604 27.2588 16.1214 27.4136 16.3203 27.414C16.5193 27.4136 16.6802 27.2588 16.6797 27.0683C16.6791 26.8786 16.5185 26.725 16.3203 26.7246C16.3118 26.7243 16.3034 26.7243 16.2949 26.7246ZM31.6816 26.9921C31.4827 26.9925 31.3218 27.1473 31.3223 27.3378C31.3229 27.5276 31.4835 27.6812 31.6816 27.6816C31.8798 27.6812 32.0404 27.5276 32.041 27.3378C32.0415 27.1473 31.8806 26.9925 31.6816 26.9921ZM13.8262 27.4335C13.6272 27.434 13.4663 27.5888 13.4668 27.7792C13.4674 27.969 13.628 28.1226 13.8262 28.123C14.0251 28.1236 14.1869 27.9697 14.1875 27.7792C14.188 27.588 14.0259 27.4329 13.8262 27.4335ZM29.2949 27.5664C29.096 27.5668 28.935 27.7216 28.9355 27.9121C28.9362 28.1018 29.0968 28.2554 29.2949 28.2558C29.4931 28.2554 29.6537 28.1018 29.6543 27.9121C29.6548 27.7216 29.4939 27.5668 29.2949 27.5664ZM18.2207 27.8769C18.0325 27.89 17.8868 28.0401 17.8867 28.2206C17.8862 28.4111 18.0471 28.5659 18.2461 28.5664C18.4458 28.567 18.6079 28.4119 18.6074 28.2206C18.6068 28.0303 18.445 27.8763 18.2461 27.8769C18.2376 27.8766 18.2292 27.8766 18.2207 27.8769ZM15.5625 28.5839C15.3735 28.5961 15.2267 28.7464 15.2266 28.9277C15.2261 29.1189 15.3882 29.274 15.5879 29.2734C15.7869 29.273 15.9478 29.1182 15.9473 28.9277C15.9466 28.738 15.7861 28.5843 15.5879 28.5839C15.5794 28.5836 15.571 28.5836 15.5625 28.5839ZM33.0254 28.8046C32.8372 28.8178 32.6915 28.9677 32.6914 29.1484C32.6909 29.3389 32.8518 29.4937 33.0508 29.4941C33.2505 29.4947 33.4126 29.3396 33.4121 29.1484C33.4115 28.9579 33.2497 28.804 33.0508 28.8046C33.0423 28.8043 33.0338 28.8043 33.0254 28.8046ZM24.3711 28.9414C21.5942 28.9444 19.2909 30.4751 19.0879 32.4531C19.0559 32.8471 19.2784 33.0893 19.5254 33.1113C19.7724 33.1343 20.0443 32.9371 20.1113 32.4531C20.3113 30.8791 22.1572 29.6728 24.3711 29.6718C26.6581 29.7188 28.4892 30.8001 29.6602 32.4531C29.4562 30.4741 27.1491 28.9424 24.3711 28.9414ZM31.082 29.7324C30.8923 29.7446 30.7452 29.896 30.7461 30.0781C30.7467 30.2685 30.9085 30.4224 31.1074 30.4218C31.3056 30.4214 31.4662 30.2678 31.4668 30.0781C31.4673 29.8876 31.3064 29.7328 31.1074 29.7324C31.0989 29.7321 31.0905 29.7321 31.082 29.7324ZM17.4473 30.1503C17.2591 30.1635 17.1134 30.3134 17.1133 30.4941C17.1128 30.6846 17.2737 30.8394 17.4727 30.8398C17.6724 30.8404 17.8345 30.6853 17.834 30.4941C17.8334 30.3036 17.6716 30.1497 17.4727 30.1503C17.4642 30.1501 17.4557 30.1501 17.4473 30.1503ZM15.2598 30.6171C15.0716 30.6303 14.9259 30.7802 14.9258 30.9609C14.9253 31.1514 15.0862 31.3062 15.2852 31.3066C15.4849 31.3072 15.647 31.1521 15.6465 30.9609C15.6459 30.7704 15.4841 30.6165 15.2852 30.6171C15.2767 30.6168 15.2682 30.6168 15.2598 30.6171ZM32.3633 31.1914C32.1751 31.2045 32.0294 31.3544 32.0293 31.5351C32.0288 31.7256 32.1897 31.8804 32.3887 31.8808C32.5876 31.8804 32.7486 31.7256 32.748 31.5351C32.7474 31.3454 32.5868 31.1918 32.3887 31.1914C32.3802 31.1911 32.3717 31.1911 32.3633 31.1914ZM24.6113 33.4003C24.4116 33.3997 24.2495 33.5548 24.25 33.746C24.2506 33.9365 24.4124 34.0904 24.6113 34.0898C24.8095 34.0894 24.9701 33.9358 24.9707 33.746C24.9712 33.5555 24.8103 33.4008 24.6113 33.4003Z" fill="#333333"/>
</svg>
