<svg width="48" height="48" viewBox="0 0 48 48" fill="none" xmlns="http://www.w3.org/2000/svg">
<path d="M0 0V48H48V0H0ZM21.0078 9.30078C23.3508 9.19779 25.2301 10.8536 20.9082 11.8457C23.7602 10.4094 21.5889 9.78543 20.0469 11.0508C18.2889 12.6424 22.4013 12.455 23.2793 13.1016C23.6366 13.0769 23.9951 13.0638 24.3535 13.0625C24.3804 13.0625 24.4067 13.0662 24.4336 13.0664C24.7699 13.0689 25.1062 13.0803 25.4414 13.1035L25.582 13.1289C26.7474 13.2177 27.8877 13.4299 28.9863 13.7598C29.3581 13.8826 29.7438 13.9855 30.1523 14.1641C30.3684 14.2477 30.5863 14.3272 30.7969 14.4199L31.0645 14.5527C32.3675 15.157 33.5675 15.9186 34.6016 16.8457C36.1383 18.2234 37.2866 19.8925 37.9551 21.7207C38.2543 21.6529 38.5603 21.6184 38.8672 21.6172C39.4171 21.6172 39.9626 21.7251 40.4707 21.9355C40.9788 22.146 41.4393 22.4548 41.8281 22.8438C42.217 23.2327 42.5259 23.6931 42.7363 24.2012C42.9467 24.7093 43.0547 25.2547 43.0547 25.8047C43.0547 26.3546 42.9467 26.8981 42.7363 27.4062C42.5259 27.9144 42.217 28.3767 41.8281 28.7656C41.4393 29.1545 40.9788 29.4634 40.4707 29.6738C39.9626 29.8843 39.4171 29.9922 38.8672 29.9922C38.4754 29.9917 38.0854 29.937 37.709 29.8281C36.6881 32.1861 34.864 34.2171 32.4805 35.6523C30.5978 36.786 28.4358 37.4984 26.1816 37.752C26.1199 37.7591 26.058 37.7631 25.9961 37.7695C25.4569 37.8239 24.9139 37.8607 24.3672 37.8613C24.3429 37.8613 24.3192 37.8575 24.2949 37.8574C23.7963 37.8551 23.301 37.8226 22.8086 37.7754C22.6997 37.7648 22.5909 37.7569 22.4824 37.7441C21.9579 37.6832 21.4396 37.5969 20.9277 37.4863C20.9042 37.4811 20.8809 37.4761 20.8574 37.4707C19.215 37.108 17.6486 36.4985 16.2402 35.6504C13.8567 34.2152 12.0326 32.1842 11.0117 29.8262C10.6353 29.9351 10.2453 29.9897 9.85352 29.9902C9.30358 29.9902 8.75808 29.8824 8.25 29.6719C7.74192 29.4615 7.28143 29.1526 6.89258 28.7637C6.50373 28.3748 6.19478 27.9124 5.98438 27.4043C5.77396 26.8962 5.66596 26.3526 5.66602 25.8027C5.66596 25.2527 5.77396 24.7073 5.98438 24.1992C6.19478 23.6911 6.50373 23.2307 6.89258 22.8418C7.28143 22.4529 7.74192 22.1441 8.25 21.9336C8.75808 21.7232 9.30358 21.6152 9.85352 21.6152C10.1604 21.6164 10.4664 21.6509 10.7656 21.7188C11.4341 19.8906 12.5824 18.2215 14.1191 16.8438C15.1528 15.9171 16.354 15.155 17.6562 14.5508C17.7064 14.5264 17.8102 14.4751 17.8926 14.4355C18.1467 14.323 18.408 14.2243 18.6699 14.125C18.931 14.0258 19.1899 13.9235 19.457 13.8379C19.5127 13.8202 19.5651 13.7965 19.6211 13.7793C18.1391 13.2644 17.0794 12.4265 18.0664 10.7578C18.7824 9.75668 19.9438 9.34768 21.0078 9.30078ZM24.3672 14.7656C24.2585 14.7658 24.1514 14.7746 24.043 14.7773C23.8247 14.7823 23.6073 14.7897 23.3906 14.8047C23.1801 14.8199 22.9703 14.8407 22.7617 14.8652C22.6547 14.8774 22.5479 14.8916 22.4414 14.9062C20.9655 15.125 19.8207 15.3099 17.6562 16.4922C17.0009 16.8623 16.3827 17.2872 15.8125 17.7656C13.52 19.6886 12.1752 22.3098 12.0605 25.0762C11.9076 24.6114 11.6111 24.2051 11.2148 23.918C10.8186 23.6309 10.3428 23.4771 9.85352 23.4766C9.54805 23.4766 9.24511 23.5374 8.96289 23.6543C8.68067 23.7712 8.42499 23.9423 8.20898 24.1582C7.99297 24.3742 7.82199 24.6299 7.70508 24.9121C7.58818 25.1943 7.52734 25.4972 7.52734 25.8027C7.52734 26.1082 7.58818 26.4112 7.70508 26.6934C7.82199 26.9757 7.99297 27.2313 8.20898 27.4473C8.42499 27.6633 8.68067 27.8343 8.96289 27.9512C9.24511 28.068 9.54805 28.1289 9.85352 28.1289C10.3638 28.1282 10.8605 27.9587 11.2656 27.6484C11.6707 27.3382 11.9621 26.9046 12.0957 26.4121C12.3691 29.0726 13.7786 31.5481 16.0469 33.3516C16.5497 33.7514 17.0916 34.105 17.6562 34.4238C18.7122 34.9956 20.153 35.4943 21.5547 35.8652C21.6362 35.8818 21.7169 35.9008 21.7988 35.916C21.9994 35.9539 22.2015 35.9845 22.4043 36.0137C22.5697 36.0369 22.7356 36.0568 22.9023 36.0742C23.0442 36.0894 23.1855 36.1063 23.3281 36.1172C23.6683 36.1421 24.0097 36.158 24.3535 36.1582C24.4587 36.158 24.563 36.151 24.668 36.1484C24.8871 36.1436 25.1067 36.136 25.3242 36.1211C25.5501 36.105 25.7742 36.0817 25.998 36.0547C26.0686 36.0465 26.1387 36.0366 26.209 36.0273C26.4744 35.9912 26.7403 35.9515 27.002 35.9004C28.2556 35.6478 29.7469 35.0471 31.0645 34.4258C31.6294 34.107 32.1709 33.7533 32.6738 33.3535C34.9421 31.55 36.3516 29.0746 36.625 26.4141C36.7586 26.9066 37.05 27.3402 37.4551 27.6504C37.8602 27.9607 38.3569 28.1302 38.8672 28.1309C39.1727 28.1309 39.4756 28.0699 39.7578 27.9531C40.04 27.8362 40.2957 27.6652 40.5117 27.4492C40.7277 27.2332 40.8987 26.9776 41.0156 26.6953C41.1325 26.4131 41.1934 26.1102 41.1934 25.8047C41.1934 25.4992 41.1325 25.1963 41.0156 24.9141C40.8987 24.6319 40.7277 24.3762 40.5117 24.1602C40.2957 23.9442 40.04 23.7731 39.7578 23.6562C39.4756 23.5394 39.1727 23.4785 38.8672 23.4785C38.3779 23.479 37.9021 23.6328 37.5059 23.9199C37.1096 24.207 36.8131 24.6133 36.6602 25.0781C36.5455 22.3117 35.2007 19.6906 32.9082 17.7676C32.338 17.2893 31.7199 16.8641 31.0645 16.4941C30.0271 15.9391 28.5815 15.4359 27.1934 15.0664C27.1157 15.0504 27.039 15.0303 26.9609 15.0156C26.7705 14.979 26.5774 14.9506 26.3848 14.9219C26.194 14.8942 26.0032 14.8676 25.8105 14.8477C25.685 14.8343 25.5599 14.8205 25.4336 14.8105C25.0805 14.7835 24.7243 14.7659 24.3672 14.7656ZM16.4785 20.3184C16.6775 20.3188 16.8384 20.4736 16.8379 20.6641C16.8373 20.8538 16.6767 21.0073 16.4785 21.0078C16.2803 21.0073 16.1198 20.8538 16.1191 20.6641C16.1186 20.4736 16.2796 20.3188 16.4785 20.3184ZM32.4082 20.7617C32.4167 20.7614 32.4251 20.7614 32.4336 20.7617C32.6318 20.7621 32.7924 20.9158 32.793 21.1055C32.7935 21.296 32.6326 21.4508 32.4336 21.4512C32.2339 21.4518 32.0718 21.2967 32.0723 21.1055C32.0724 20.9242 32.2192 20.7739 32.4082 20.7617ZM20.3711 22.3027C20.7709 22.303 21.1549 22.4614 21.4375 22.7441C21.7201 23.0269 21.8788 23.4108 21.8789 23.8105C21.8788 24.2103 21.7201 24.5942 21.4375 24.877C21.1549 25.1598 20.7709 25.3181 20.3711 25.3184C19.9712 25.3183 19.5874 25.1597 19.3047 24.877C19.0219 24.5942 18.8634 24.2104 18.8633 23.8105C18.8634 23.4106 19.0219 23.0269 19.3047 22.7441C19.5874 22.4613 19.9712 22.3028 20.3711 22.3027ZM28.3711 22.3027C28.7709 22.303 29.1549 22.4614 29.4375 22.7441C29.7201 23.0269 29.8788 23.4108 29.8789 23.8105C29.8788 24.2103 29.7201 24.5942 29.4375 24.877C29.1549 25.1598 28.7709 25.3181 28.3711 25.3184C27.9712 25.3183 27.5874 25.1597 27.3047 24.877C27.0219 24.5942 26.8634 24.2104 26.8633 23.8105C26.8634 23.4106 27.0219 23.0269 27.3047 22.7441C27.5874 22.4613 27.9712 22.3028 28.3711 22.3027ZM17.293 22.3086C17.3014 22.3084 17.3099 22.3084 17.3184 22.3086C17.5165 22.3091 17.6771 22.4626 17.6777 22.6523C17.6782 22.8428 17.5173 22.9976 17.3184 22.998C17.1194 22.9976 16.9585 22.8428 16.959 22.6523C16.9591 22.4716 17.1048 22.3218 17.293 22.3086ZM14.2695 22.3516C14.4685 22.352 14.6294 22.5068 14.6289 22.6973C14.6283 22.887 14.4677 23.0405 14.2695 23.041C14.0706 23.0416 13.9088 22.8878 13.9082 22.6973C13.9077 22.5061 14.0698 22.351 14.2695 22.3516ZM32.0098 22.6172C32.0182 22.6169 32.0267 22.6169 32.0352 22.6172C32.2341 22.6176 32.395 22.7724 32.3945 22.9629C32.3939 23.1527 32.2333 23.3062 32.0352 23.3066C31.837 23.3062 31.6764 23.1527 31.6758 22.9629C31.6748 22.7815 31.8208 22.6304 32.0098 22.6172ZM34.0684 23.4121C34.2673 23.4125 34.4282 23.5673 34.4277 23.7578C34.4271 23.9475 34.2665 24.1012 34.0684 24.1016C33.8694 24.1022 33.7076 23.9482 33.707 23.7578C33.7065 23.5665 33.8686 23.4114 34.0684 23.4121ZM16.2988 24.0234C16.4978 24.0238 16.6587 24.1786 16.6582 24.3691C16.6576 24.5588 16.497 24.7125 16.2988 24.7129C16.1007 24.7125 15.9401 24.5588 15.9395 24.3691C15.9389 24.1786 16.0999 24.0238 16.2988 24.0234ZM32.3008 24.4727C32.4997 24.4731 32.6607 24.6279 32.6602 24.8184C32.6595 25.0081 32.4989 25.1616 32.3008 25.1621C32.1019 25.1627 31.9401 25.0089 31.9395 24.8184C31.9389 24.6272 32.1011 24.4721 32.3008 24.4727ZM13.8457 25.1367C13.8542 25.1364 13.8626 25.1364 13.8711 25.1367C14.0693 25.1371 14.2299 25.2908 14.2305 25.4805C14.231 25.671 14.0701 25.8258 13.8711 25.8262C13.6721 25.8258 13.5112 25.671 13.5117 25.4805C13.5118 25.2999 13.6575 25.1498 13.8457 25.1367ZM35.2363 26.1094C35.2448 26.1091 35.2532 26.1091 35.2617 26.1094C35.4599 26.1098 35.6205 26.2633 35.6211 26.4531C35.6216 26.6436 35.4607 26.7984 35.2617 26.7988C35.062 26.7994 34.8999 26.6443 34.9004 26.4531C34.9006 26.2717 35.0474 26.1216 35.2363 26.1094ZM33.5996 26.418C33.6087 26.4177 33.6179 26.4177 33.627 26.418C33.8259 26.4184 33.9868 26.5732 33.9863 26.7637C33.9857 26.9534 33.8251 27.107 33.627 27.1074C33.428 27.108 33.2662 26.9542 33.2656 26.7637C33.2646 26.5823 33.4106 26.4312 33.5996 26.418ZM16.2949 26.7246C16.3034 26.7243 16.3118 26.7243 16.3203 26.7246C16.5185 26.725 16.6791 26.8787 16.6797 27.0684C16.6802 27.2589 16.5193 27.4137 16.3203 27.4141C16.1214 27.4137 15.9604 27.2589 15.9609 27.0684C15.961 26.8878 16.1067 26.7377 16.2949 26.7246ZM31.6816 26.9922C31.8806 26.9926 32.0415 27.1474 32.041 27.3379C32.0404 27.5277 31.8798 27.6812 31.6816 27.6816C31.4835 27.6812 31.3229 27.5277 31.3223 27.3379C31.3218 27.1474 31.4827 26.9926 31.6816 26.9922ZM13.8262 27.4336C14.0259 27.433 14.188 27.5881 14.1875 27.7793C14.1869 27.9698 14.0251 28.1236 13.8262 28.123C13.628 28.1226 13.4674 27.9691 13.4668 27.7793C13.4663 27.5889 13.6272 27.4341 13.8262 27.4336ZM29.2949 27.5664C29.4939 27.5668 29.6548 27.7216 29.6543 27.9121C29.6537 28.1018 29.4931 28.2555 29.2949 28.2559C29.0968 28.2555 28.9362 28.1018 28.9355 27.9121C28.935 27.7216 29.096 27.5668 29.2949 27.5664ZM18.2207 27.877C18.2292 27.8767 18.2376 27.8767 18.2461 27.877C18.445 27.8764 18.6068 28.0303 18.6074 28.2207C18.6079 28.412 18.4458 28.567 18.2461 28.5664C18.0471 28.5659 17.8862 28.4112 17.8867 28.2207C17.8868 28.0401 18.0325 27.8901 18.2207 27.877ZM15.5625 28.584C15.571 28.5837 15.5794 28.5837 15.5879 28.584C15.7861 28.5844 15.9466 28.738 15.9473 28.9277C15.9478 29.1182 15.7869 29.273 15.5879 29.2734C15.3882 29.274 15.2261 29.1189 15.2266 28.9277C15.2267 28.7464 15.3735 28.5962 15.5625 28.584ZM33.0254 28.8047C33.0338 28.8044 33.0423 28.8044 33.0508 28.8047C33.2497 28.8041 33.4115 28.9579 33.4121 29.1484C33.4126 29.3396 33.2505 29.4947 33.0508 29.4941C32.8518 29.4937 32.6909 29.3389 32.6914 29.1484C32.6915 28.9677 32.8372 28.8179 33.0254 28.8047ZM24.3711 28.9414C27.1491 28.9424 29.4562 30.4741 29.6602 32.4531C28.4892 30.8001 26.6581 29.7189 24.3711 29.6719C22.1572 29.6729 20.3113 30.8791 20.1113 32.4531C20.0443 32.9371 19.7724 33.1343 19.5254 33.1113C19.2784 33.0893 19.0559 32.8471 19.0879 32.4531C19.2909 30.4751 21.5942 28.9444 24.3711 28.9414ZM31.082 29.7324C31.0905 29.7321 31.0989 29.7321 31.1074 29.7324C31.3064 29.7328 31.4673 29.8876 31.4668 30.0781C31.4662 30.2678 31.3056 30.4215 31.1074 30.4219C30.9085 30.4225 30.7467 30.2685 30.7461 30.0781C30.7452 29.896 30.8923 29.7446 31.082 29.7324ZM17.4473 30.1504C17.4557 30.1502 17.4642 30.1502 17.4727 30.1504C17.6716 30.1498 17.8334 30.3036 17.834 30.4941C17.8345 30.6853 17.6724 30.8404 17.4727 30.8398C17.2737 30.8394 17.1128 30.6846 17.1133 30.4941C17.1134 30.3134 17.2591 30.1636 17.4473 30.1504ZM15.2598 30.6172C15.2682 30.6169 15.2767 30.6169 15.2852 30.6172C15.4841 30.6166 15.6459 30.7704 15.6465 30.9609C15.647 31.1521 15.4849 31.3072 15.2852 31.3066C15.0862 31.3062 14.9253 31.1514 14.9258 30.9609C14.9259 30.7802 15.0716 30.6304 15.2598 30.6172ZM32.3633 31.1914C32.3717 31.1911 32.3802 31.1911 32.3887 31.1914C32.5868 31.1918 32.7474 31.3455 32.748 31.5352C32.7486 31.7257 32.5876 31.8805 32.3887 31.8809C32.1897 31.8805 32.0288 31.7257 32.0293 31.5352C32.0294 31.3545 32.1751 31.2045 32.3633 31.1914ZM24.6113 33.4004C24.8103 33.4009 24.9712 33.5556 24.9707 33.7461C24.9701 33.9359 24.8095 34.0894 24.6113 34.0898C24.4124 34.0904 24.2506 33.9366 24.25 33.7461C24.2495 33.5549 24.4116 33.3998 24.6113 33.4004Z" fill="#333333"/>
</svg>
