<svg width="48" height="48" viewBox="0 0 48 48" fill="none" xmlns="http://www.w3.org/2000/svg">
<path fill-rule="evenodd" clip-rule="evenodd" d="M33 8C33 6.89543 33.8954 6 35 6H41C42.1046 6 43 6.89543 43 8V40C43 41.1046 42.1046 42 41 42H35C33.8954 42 33 41.1046 33 40V8ZM35 7H41C41.5523 7 42 7.44772 42 8V40C42 40.5523 41.5523 41 41 41H35C34.4477 41 34 40.5523 34 40V8C34 7.44772 34.4477 7 35 7Z" fill="#333333"/>
<path fill-rule="evenodd" clip-rule="evenodd" d="M21 18C19.8954 18 19 18.8954 19 20V40C19 41.1046 19.8954 42 21 42H27C28.1046 42 29 41.1046 29 40V20C29 18.8954 28.1046 18 27 18H21Z" fill="#333333"/>
<path d="M5 32C5 30.8954 5.89543 30 7 30H13C14.1046 30 15 30.8954 15 32V40C15 41.1046 14.1046 42 13 42H7C5.89543 42 5 41.1046 5 40V32Z" fill="#333333"/>
</svg>
