<svg width="48" height="48" viewBox="0 0 48 48" fill="none" xmlns="http://www.w3.org/2000/svg">
<path d="M20.9082 13.0105C21.4917 12.9236 22.0002 13.3874 22.0002 13.9773V15.8103C22.0002 16.3532 21.543 16.7816 21 16.7816C18.7676 16.7816 16.557 17.2214 14.4944 18.0757C12.4319 18.93 10.5578 20.1822 8.97923 21.7608C7.40064 23.3394 6.14843 25.2135 5.2941 27.276C4.50359 29.1845 4.06807 31.2197 4.0074 33.2817C3.99928 33.5577 3.77619 33.7816 3.50005 33.7816C3.22391 33.7816 2.99943 33.5577 3.006 33.2817C3.06761 30.6943 3.60705 28.1391 4.59858 25.7453C5.65393 23.1975 7.20078 20.8824 9.15081 18.9324C11.1008 16.9824 13.4159 15.4355 15.9637 14.3802C17.5533 13.7217 19.2141 13.2627 20.9082 13.0105Z" fill="#333333"/>
<path d="M26.7012 17.7661C26.2876 17.6189 26.0002 17.2341 26.0002 16.7951V13.9774C26.0002 13.3874 26.5088 12.9237 27.0922 13.0106C28.7862 13.2627 30.4469 13.7218 32.0364 14.3802C34.5842 15.4355 36.8993 16.9824 38.8493 18.9324C40.7993 20.8824 42.3462 23.1975 43.4015 25.7453C44.3292 27.9848 44.8611 30.3657 44.9762 32.782C45.0025 33.3337 44.5523 33.7816 44 33.7816H39C38.4478 33.7816 38.0031 33.3335 37.9706 32.7822C37.8593 30.8915 37.4326 29.0302 36.706 27.276C35.8517 25.2135 34.5995 23.3394 33.0209 21.7608C31.4423 20.1822 29.5682 18.93 27.5057 18.0757C27.2399 17.9656 26.9716 17.8624 26.7012 17.7661Z" fill="#333333"/>
<path fill-rule="evenodd" clip-rule="evenodd" d="M23.9999 19.1504C24.564 19.1504 25.0316 19.5874 25.0697 20.1503L25.9677 33.4233C25.989 33.5403 26.0001 33.6607 26.0001 33.7838C26.0001 33.8138 25.9995 33.8436 25.9982 33.8732L26.0043 33.963L25.9931 33.9527C25.9074 34.9782 25.0478 35.7838 24.0001 35.7838C22.9526 35.7838 22.0932 34.9785 22.0072 33.9531L21.9955 33.963L22.0019 33.8682C22.0007 33.8402 22.0001 33.8121 22.0001 33.7838C22.0001 33.6625 22.011 33.5436 22.0317 33.4282L22.93 20.1503C22.9681 19.5874 23.4358 19.1504 23.9999 19.1504ZM23.0001 33.7838C23.0001 34.3361 23.4479 34.7838 24.0001 34.7838C24.5524 34.7838 25.0001 34.3361 25.0001 33.7838C25.0001 33.2315 24.5524 32.7838 24.0001 32.7838C23.4479 32.7838 23.0001 33.2315 23.0001 33.7838Z" fill="#333333"/>
</svg>
