<?xml version="1.0" encoding="UTF-8" standalone="no"?>
<!-- Created with Inkscape (http://www.inkscape.org/) -->
<svg id="svg8" xmlns:rdf="http://www.w3.org/1999/02/22-rdf-syntax-ns#" xmlns="http://www.w3.org/2000/svg" xmlns:osb="http://www.openswatchbook.org/uri/2009/osb" height="48" width="48" version="1.1" xmlns:cc="http://creativecommons.org/ns#" viewBox="0 0 12.7 12.7" xmlns:dc="http://purl.org/dc/elements/1.1/">
 <title id="title4753">UIO-icon</title>
 <metadata id="metadata5">
  <rdf:RDF>
   <cc:Work rdf:about="">
    <dc:format>image/svg+xml</dc:format>
    <dc:type rdf:resource="http://purl.org/dc/dcmitype/StillImage"/>
    <dc:title>UIO-icon</dc:title>
    <dc:creator>
     <cc:Agent>
      <dc:title>Joaquín Urbano</dc:title>
     </cc:Agent>
    </dc:creator>
    <dc:rights>
     <cc:Agent>
      <dc:title>GPL</dc:title>
     </cc:Agent>
    </dc:rights>
   </cc:Work>
  </rdf:RDF>
 </metadata>
 <g id="layer1" transform="translate(0,-284.3)" fill="#333">
  <path id="path878" d="m27.867 4.0586c-1.907-0.0039-3.405 0.5694-4.156 1.7441-1.486 2.3361 0.423 6.3493 4.43 9.7113 1.573 1.378 1.654 1.394 2.785-0.377l4.33-6.7776c1.186-1.7888 0.732-1.817-0.779-2.584-2.386-1.132-4.703-1.7129-6.61-1.7168zm-19.138 0.0019c-0.7694 0.0234-1.5422 0.2706-2.2168 0.7559l-0.8105 0.584c-1.7988 1.2942-2.2064 3.7832-0.9121 5.5816l2.3359 3.248 2.3379 3.247 0.4043-0.291 4.6738 6.492c1.294 1.799 3.783 2.206 5.582 0.912s2.204-3.785 0.91-5.584l-4.672-6.494 0.407-0.291-2.336-3.2483-2.336-3.2461c-0.809-1.1243-2.085-1.7049-3.3675-1.6661zm28.742 3.6661c-0.35 0.0355-0.647 0.4521-1.198 1.3144l-4.357 6.826c-1.205 1.882-0.701 1.855 0.836 2.631 4.747 2.233 9.203 2.28 10.697-0.059 1.491-2.342-0.432-6.369-4.461-9.7359-0.766-0.6658-1.168-1.0121-1.517-0.9765zm-22.272 5.6214l0.59 0.82 1.039 1.443 0.766 1.065 1.195 1.662 1.039 1.443c0.831 1.155 0.569 2.753-0.586 3.584s-2.753 0.571-3.584-0.584l-1.039-1.443-1.195-1.662-0.766-1.065-0.271-0.377-0.768-1.066-0.59-0.818 1.68-1.209 0.812-0.584 1.678-1.209zm19.524 11.658c-1.661-0.05-3.353 0.333-4.905 1.195-4.141 2.312-5.905 7.279-4.271 11.629 0.315 0.903 0.771 0.656 1.191 0.422l14.959-8.324c0.416-0.232 0.732-0.603 0.248-1.266-1.779-2.285-4.455-3.573-7.222-3.656zm-16.959 2.301c-0.136 0.006-0.268 0.034-0.391 0.089l-12.252 5.573c-1.0135 0.461-1.4965 2.644-0.664 3.318l9.311 7.533c0.74 0.599 2.774-0.325 2.994-1.322l2.9-13.162c0.124-0.563-0.203-1.159-0.683-1.559-0.361-0.299-0.807-0.489-1.215-0.47zm25.025 3.242c-0.215-0.022-0.448 0.108-0.682 0.238l-14.886 8.283c-0.439 0.244-0.775 0.591-0.283 1.266 2.845 3.668 7.996 4.777 12.138 2.475 4.129-2.305 5.896-7.25 4.287-11.59-0.162-0.477-0.359-0.65-0.574-0.672z" fill-rule="evenodd" transform="matrix(.26458 0 0 .26458 0 284.3)"/>
 </g>
</svg>
