<svg width="48" height="48" viewBox="0 0 48 48" fill="none" xmlns="http://www.w3.org/2000/svg">
<path d="M16 19V29H14C11.2386 29 9 26.7614 9 24C9 21.2386 11.2386 19 14 19H16Z" fill="#333333"/>
<path d="M18.5 29L32 36V27V21V12L18.5 19V29Z" fill="#333333"/>
<path d="M13.5 31.5H17.5L16 36.5H11.5L13.5 31.5Z" fill="#333333"/>
<path d="M34 21H32V27H34V21Z" fill="#333333"/>
<path d="M32 12H32.5C32.5 11.8254 32.4089 11.6635 32.2597 11.5728C32.1105 11.4821 31.9248 11.4758 31.7698 11.5561L32 12ZM32 36L31.7698 36.4439C31.9248 36.5242 32.1105 36.5179 32.2597 36.4272C32.4089 36.3365 32.5 36.1746 32.5 36H32ZM18.5 29H18C18 29.1867 18.1041 29.3579 18.2698 29.4439L18.5 29ZM18.5 19L18.2698 18.5561C18.1041 18.6421 18 18.8133 18 19H18.5ZM16 19H16.5C16.5 18.7239 16.2761 18.5 16 18.5V19ZM16 29V29.5C16.2761 29.5 16.5 29.2761 16.5 29H16ZM13.5 31.5V31C13.2955 31 13.1117 31.1245 13.0358 31.3143L13.5 31.5ZM17.5 31.5L17.9789 31.6437C18.0243 31.4923 17.9955 31.3283 17.9011 31.2015C17.8068 31.0747 17.6581 31 17.5 31V31.5ZM16 36.5V37C16.2208 37 16.4155 36.8552 16.4789 36.6437L16 36.5ZM11.5 36.5L11.0358 36.3143C10.9741 36.4683 10.993 36.6429 11.086 36.7803C11.179 36.9177 11.3341 37 11.5 37V36.5ZM34 21H34.5C34.5 20.7239 34.2761 20.5 34 20.5V21ZM34 27V27.5C34.2761 27.5 34.5 27.2761 34.5 27H34ZM37.193 18.1053C36.9751 18.2749 36.9358 18.589 37.1053 18.807C37.2749 19.0249 37.589 19.0642 37.807 18.8947L37.193 18.1053ZM42.307 15.3947C42.5249 15.2251 42.5642 14.911 42.3947 14.693C42.2251 14.4751 41.911 14.4358 41.693 14.6053L42.307 15.3947ZM37.7773 29.584C37.5476 29.4308 37.2372 29.4929 37.084 29.7227C36.9308 29.9524 36.9929 30.2628 37.2227 30.416L37.7773 29.584ZM41.7226 33.416C41.9524 33.5692 42.2628 33.5071 42.416 33.2773C42.5692 33.0476 42.5071 32.7372 42.2774 32.584L41.7226 33.416ZM37.5 23.5C37.2239 23.5 37 23.7239 37 24C37 24.2761 37.2239 24.5 37.5 24.5V23.5ZM43 24.5C43.2761 24.5 43.5 24.2761 43.5 24C43.5 23.7239 43.2761 23.5 43 23.5V24.5ZM32.2302 35.5561L18.7302 28.5561L18.2698 29.4439L31.7698 36.4439L32.2302 35.5561ZM19 29V19H18V29H19ZM18.7302 19.4439L32.2302 12.4439L31.7698 11.5561L18.2698 18.5561L18.7302 19.4439ZM15.5 19V29H16.5V19H15.5ZM16 28.5H14V29.5H16V28.5ZM14 19.5H16V18.5H14V19.5ZM13.5 32H17.5V31H13.5V32ZM17.0211 31.3563L15.5211 36.3563L16.4789 36.6437L17.9789 31.6437L17.0211 31.3563ZM16 36H11.5V37H16V36ZM11.9642 36.6857L13.9642 31.6857L13.0358 31.3143L11.0358 36.3143L11.9642 36.6857ZM31.5 12V21H32.5V12H31.5ZM32 21.5H34V20.5H32V21.5ZM33.5 21V27H34.5V21H33.5ZM31.5 21V27H32.5V21H31.5ZM31.5 27V36H32.5V27H31.5ZM34 26.5H32V27.5H34V26.5ZM37.807 18.8947L42.307 15.3947L41.693 14.6053L37.193 18.1053L37.807 18.8947ZM37.2227 30.416L41.7226 33.416L42.2774 32.584L37.7773 29.584L37.2227 30.416ZM37.5 24.5H43V23.5H37.5V24.5ZM9.5 24C9.5 21.5147 11.5147 19.5 14 19.5V18.5C10.9624 18.5 8.5 20.9624 8.5 24H9.5ZM14 28.5C11.5147 28.5 9.5 26.4853 9.5 24H8.5C8.5 27.0376 10.9624 29.5 14 29.5V28.5Z" fill="#333333"/>
</svg>
