<svg width="48" height="48" viewBox="0 0 48 48" fill="none" xmlns="http://www.w3.org/2000/svg">
<path d="M28.2701 5.23535L13.8876 17.2272L16.4446 28.3428L35.4198 28.6839C30.6015 20.9335 28.4533 12.0992 28.2701 5.23535ZM36.2767 6.4778C35.8597 6.45399 35.4509 6.49209 35.0564 6.59151C34.4847 6.73754 33.9485 7.01126 33.4646 7.4041C33.5433 7.3766 33.6229 7.35164 33.7031 7.32922C35.2701 6.9369 37.0138 7.52263 38.5507 8.95758C40.0876 10.3925 41.2917 12.5592 41.8983 14.9808C42.3891 16.9458 42.4567 18.9605 42.091 20.7256C41.7252 22.4908 40.9457 23.9123 39.8682 24.779C41.3672 24.3012 42.5562 22.9381 43.1867 20.9746C43.8173 19.0112 43.8405 16.5993 43.2516 14.2431C42.7243 12.1363 41.7417 10.2122 40.4705 8.79689C39.1993 7.38163 37.7176 6.56231 36.2767 6.47781V6.4778ZM34.4546 9.85572C34.1589 9.83884 33.8691 9.86579 33.5894 9.93615C33.183 10.0396 32.8018 10.234 32.4578 10.513C32.5137 10.4936 32.5701 10.4761 32.627 10.4603C33.7396 10.1822 34.9776 10.5983 36.0687 11.6171C37.1598 12.6359 38.0147 14.174 38.4455 15.8933C38.7942 17.2883 38.8425 18.7188 38.5832 19.9723C38.3239 21.2258 37.7708 22.2355 37.0061 22.8516C38.0704 22.5119 38.9146 21.5437 39.3622 20.1493C39.8098 18.7549 39.8261 17.0422 39.4078 15.3691C39.0332 13.8731 38.3354 12.5069 37.4326 11.5021C36.5299 10.4973 35.4778 9.91562 34.4546 9.85573V9.85572ZM33.0735 13.2475C32.9077 13.2378 32.7451 13.2527 32.5882 13.2919C32.3591 13.3498 32.1442 13.4592 31.9503 13.6164C31.9824 13.6051 32.0147 13.595 32.0474 13.5859C32.6727 13.4295 33.3684 13.6634 33.9815 14.236C34.5947 14.8086 35.0751 15.6731 35.3171 16.6393C35.5131 17.4234 35.5401 18.2275 35.3943 18.9319C35.2484 19.6364 34.9373 20.2037 34.5073 20.5497C35.1056 20.3592 35.5802 19.8153 35.8319 19.0317C36.0836 18.2482 36.0929 17.2857 35.8579 16.3453C35.6473 15.5045 35.255 14.7366 34.7475 14.172C34.24 13.6074 33.6486 13.2808 33.0735 13.2475L33.0735 13.2475ZM13.1138 17.4047C9.36631 18.2361 6.13178 20.0851 4.64687 22.2442C3.16333 24.402 3.65657 26.5369 5.93647 27.8352C8.21634 29.1351 11.9339 29.3967 15.6709 28.5202L13.1138 17.4047ZM15.9343 29.3495C10.704 30.2822 9.54538 29.892 7.58937 29.4632L10.6206 43.0275C12.163 43.121 17.7204 42.4197 19.9418 39.4444C17.6398 37.974 15.258 34.7769 15.9343 29.3495V29.3495Z" fill="#333333"/>
</svg>
