<svg width="48" height="48" viewBox="0 0 48 48" fill="none" xmlns="http://www.w3.org/2000/svg">
<path fill-rule="evenodd" clip-rule="evenodd" d="M48 0H0V48H48V0ZM12 38V31H16V38C16 39.1046 15.1046 40 14 40C12.8954 40 12 39.1046 12 38ZM7 26V20C7 18.3431 8.34315 17 10 17H16V29H11.5H10C8.34315 29 7 27.6569 7 26ZM34 22V23C34 24.6569 32.6569 26 31 26V19C32.6569 19 34 20.3431 34 22ZM18 30V15L27.4631 8.97801C28.1288 8.55437 29 9.03258 29 9.82167V35.1783C29 35.9674 28.1288 36.4456 27.4631 36.022L18 30ZM40.5547 18.8321C41.0142 18.5257 41.1384 17.9048 40.8321 17.4453C40.5257 16.9858 39.9048 16.8616 39.4453 17.1679L36.4453 19.1679C35.9858 19.4743 35.8616 20.0952 36.1679 20.5547C36.4743 21.0142 37.0952 21.1384 37.5547 20.8321L40.5547 18.8321ZM37 23C36.4477 23 36 23.4477 36 24C36 24.5523 36.4477 25 37 25H41C41.5523 25 42 24.5523 42 24C42 23.4477 41.5523 23 41 23H37ZM37.5547 27.1679C37.0952 26.8616 36.4743 26.9858 36.1679 27.4453C35.8616 27.9048 35.9858 28.5257 36.4453 28.8321L39.4453 30.8321C39.9048 31.1384 40.5257 31.0142 40.8321 30.5547C41.1384 30.0952 41.0142 29.4743 40.5547 29.1679L37.5547 27.1679Z" fill="#333333"/>
</svg>
