<svg width="48" height="48" viewBox="0 0 48 48" fill="none" xmlns="http://www.w3.org/2000/svg">
<path d="M28.2696 5.23438L13.8868 17.2266L16.4454 28.3438L35.42 28.6836C30.6017 20.9332 28.4528 12.0982 28.2696 5.23438ZM27.8126 6.26758C28.1396 14.06 30.5367 21.318 34.5157 28.168L16.8516 27.8438L14.4493 17.4258L27.8126 6.26758ZM36.2774 6.47852C35.8604 6.45471 35.4512 6.49238 35.0567 6.5918C34.485 6.73783 33.9488 7.01146 33.4649 7.4043C33.5436 7.3768 33.623 7.3525 33.7032 7.33008C35.2702 6.93776 37.014 7.52208 38.5509 8.95703C40.0878 10.392 41.2919 12.5589 41.8985 14.9805C42.3893 16.9455 42.4576 18.9615 42.0919 20.7266C41.7261 22.4918 40.9467 23.9126 39.8692 24.7793C41.3682 24.3015 42.5571 22.9381 43.1876 20.9746C43.8182 19.0112 43.8409 16.5984 43.252 14.2422C42.7247 12.1354 41.742 10.2122 40.4708 8.79688C39.1996 7.38162 37.7183 6.56302 36.2774 6.47852ZM34.4552 9.85547C34.1595 9.83859 33.8696 9.86519 33.5899 9.93555C33.1835 10.039 32.8011 10.2347 32.4571 10.5137C32.513 10.4943 32.5701 10.4767 32.627 10.4609C33.7396 10.1828 34.9773 10.5984 36.0684 11.6172C37.1595 12.636 38.0146 14.1733 38.4454 15.8926C38.7941 17.2876 38.8434 18.7192 38.5841 19.9727C38.3248 21.2262 37.7706 22.2355 37.0059 22.8516C38.0702 22.5119 38.9138 21.5428 39.3614 20.1484C39.809 18.754 39.8266 17.0422 39.4083 15.3691C39.0337 13.8731 38.3345 12.5068 37.4317 11.502C36.529 10.4972 35.4784 9.91536 34.4552 9.85547ZM33.0743 13.248C32.9085 13.2383 32.7449 13.2518 32.588 13.291C32.3589 13.3489 32.1451 13.46 31.9512 13.6172C31.9833 13.6059 32.0142 13.595 32.0469 13.5859C32.6722 13.4295 33.3694 13.6637 33.9825 14.2363C34.5957 14.8089 35.0745 15.6725 35.3165 16.6387C35.5125 17.4228 35.5404 18.2272 35.3946 18.9316C35.2487 19.6361 34.9379 20.2028 34.5079 20.5488C35.1062 20.3583 35.5804 19.8148 35.8321 19.0312C36.0838 18.2478 36.0925 17.2861 35.8575 16.3457C35.6469 15.5049 35.2556 14.7365 34.7481 14.1719C34.2406 13.6073 33.6494 13.2813 33.0743 13.248ZM13.1134 17.4043C9.36586 18.2357 6.13147 20.085 4.64656 22.2441C3.16302 24.4019 3.65572 26.5376 5.93562 27.8359C8.21549 29.1358 11.9349 29.396 15.6719 28.5195L13.1134 17.4043ZM15.9337 29.3496C10.7034 30.2823 9.54593 29.8917 7.58992 29.4629L10.6212 43.0273C12.1636 43.1208 17.7201 42.4206 19.9415 39.4453C17.6395 37.9749 15.2574 34.777 15.9337 29.3496ZM15.3634 29.9492C15.0062 34.6278 16.5225 37.6129 19.2032 39.5449C17.5536 41.0758 13.4487 42.5659 11.0274 42.5234L8.25398 30.123C10.2333 30.5774 12.7219 30.3639 15.3634 29.9492Z" fill="#333333"/>
</svg>
