<?xml version="1.0" encoding="UTF-8" standalone="no"?>
<!-- Created with Inkscape (http://www.inkscape.org/) -->
<svg id="svg8" xmlns:rdf="http://www.w3.org/1999/02/22-rdf-syntax-ns#" xmlns="http://www.w3.org/2000/svg" xmlns:osb="http://www.openswatchbook.org/uri/2009/osb" height="48" width="48" version="1.1" xmlns:cc="http://creativecommons.org/ns#" viewBox="0 0 12.7 12.7" xmlns:dc="http://purl.org/dc/elements/1.1/">
 <title id="title4753">UIO-icon</title>
 <metadata id="metadata5">
  <rdf:RDF>
   <cc:Work rdf:about="">
    <dc:format>image/svg+xml</dc:format>
    <dc:type rdf:resource="http://purl.org/dc/dcmitype/StillImage"/>
    <dc:title>UIO-icon</dc:title>
    <dc:creator>
     <cc:Agent>
      <dc:title>Joaquín Urbano</dc:title>
     </cc:Agent>
    </dc:creator>
    <dc:rights>
     <cc:Agent>
      <dc:title>GPL</dc:title>
     </cc:Agent>
    </dc:rights>
   </cc:Work>
  </rdf:RDF>
 </metadata>
 <g id="layer1" fill="#333" transform="translate(0,-284.3)">
  <path id="rect5924" d="m0 0v48h48v-48zm23.502 4.9316c3.1359 0.0051507 6.0132 1.7394 7.4824 4.5098 0.2725 0.52995 0.45641 1.0599 0.64844 1.5898 0.2213 0.74598 0.33894 1.5188 0.34961 2.2969h-16.962c0.010032-0.77795 0.12702-1.5508 0.34766-2.2969 0.19736-0.54873 0.40949-1.0827 0.64844-1.5898 1.4699-2.7716 4.3491-4.5061 7.4863-4.5098zm-13.916 0.002c0.10678-0.0055748 0.22 0.010591 0.34375 0.064453v0.90625c0.034099 0.0037795 0.069462 0.0055025 0.10352 0.0078125v-0.0977c0.42143-0.1183 0.59987-0.048756 0.80664 0v0.76172h0.009766v1.2246h-0.009766v1.8906h0.14648v-0.1113c0.049017-0.015118 0.096847-0.041949 0.1543 0v0.95508c-0.045498 0.037799-0.10037 0.015118-0.1543 0v-0.11133h-0.14648v1.8164h0.20312l0.035156 0.060547 0.099609-0.058594c-0.01582-0.057449-0.025408-0.11569 0.044922-0.19922l0.36133-0.30273c0.066682-0.016634 0.13527-0.024928 0.23633 0.070312l0.076 0.252c-0.004487 0.16063-0.066378 0.1942-0.11133 0.26562l-0.24023 0.2168c-0.062528 0.026458-0.12006 0.078871-0.19922 0.007813-0.067186-0.045354-0.10532-0.038556-0.14062-0.023438l0.035156 0.0625-0.33203 0.36328h0.001953v0.30859h0.050781l0.2168 9.2969c-0.00645 0.19918 0.37207 0.11023 0.58789 0.11133 0.11577 0.10099 0.14689 0.32727-0.12109 0.46484l0.5 6.1836 1.8359-0.79492c0.854-0.371 1.706-0.73 2.581-1.046l0.10938-0.029297c1.8171 1.8074 4.275 2.8233 6.8379 2.8262 2.085-0.032267 5.2375-1.3736 6.8027-2.8438 0.81693 0.28997 1.6098 0.61807 2.4043 0.95898l2.6523 1.1504c1.0649 0.46137 2.1621 0.92102 3.373 1.3418 2.5451 0.75129 2.5449 2.867 2.5449 4.0195v6.6621h-35.571v-6.6621c0-1.1525-0.00017116-3.27 2.5449-4.0195 0.1917-0.066 0.3666-0.138 0.5528-0.206l0.0957-7.449-0.002-9.932c0.025821-0.011339 0.052123-0.022677 0.083984 0l0.0019531-0.34375c0.0958-0.015 0.191-0.03 0.2871-0.045v-5.1092h-0.76953c-0.23394-0.019988-0.46743-0.3426-0.48047-0.65625v-0.0039c-0.0073304-0.24326 0.11967-0.4798 0.48047-0.5625h0.76953v-0.046875h-0.25v-0.56641c0.084098-0.020417 0.16685-0.035536 0.25-0.046875v-0.918c0.0993-0.0315 0.1999-0.0589 0.3066-0.0644zm13.924 1.2637c-0.023786 0.00096265-0.1336 0.17782-0.24414 0.39844-0.11084 0.22144-0.21738 0.41043-0.23438 0.42188-0.016981 0.010885-0.193 0.041694-0.39453 0.070312-0.49366 0.070114-0.51953 0.077378-0.51953 0.14062 0 0.030236 0.14543 0.19444 0.32422 0.36328l0.10352 0.097656h0.001953l0.22 0.2089-0.077 0.4434c-0.042526 0.24342-0.066707 0.46852-0.054688 0.5 0.004579 0.011452 0.010188 0.021245 0.023438 0.023438h0.003906c0.043487 0.0043087 0.14553-0.045273 0.41797-0.1875l0.42578-0.2207 0.41406 0.21875c0.31965 0.17171 0.42074 0.21036 0.44727 0.17773 0.011876-0.014891 0.014708-0.061357 0.007813-0.14062-0.006774-0.07861-0.022987-0.1896-0.048828-0.33984v-0.0019531l-0.076172-0.4375 0.248-0.252 0.091797-0.09375c0.26-0.2649 0.329-0.3543 0.299-0.3847-0.03-0.03-0.729-0.1583-0.895-0.164-0.014005-0.00048642-0.11889-0.18812-0.23438-0.41992-0.11548-0.23174-0.22857-0.42188-0.25195-0.42188zm-13.58 0.32812v0.046875h0.10352v-0.046875zm-1.5277 0.4258c-0.0684 0.0048-0.1214 0.0647-0.1211 0.1367-0.0002 0.0751 0.0575 0.1362 0.129 0.1367 0.0654 0.0001 0.1206-0.051 0.1289-0.1191h0.4414v-0.0723h-0.4512c-0.0206-0.0499-0.0674-0.0821-0.1191-0.082-0.0026011-0.000082394-0.0052125-0.000082394-0.0078125 0zm1.5273 0.84766v5.0508c0.034004-0.0006 0.069462 0.001915 0.10352 0.001953v-5.0532zm11.83 1.1641c-0.007784 0-0.010983 0.22251-0.005859 0.49609l0.009766 0.49609 0.85938 0.49414 0.001953 0.001953c0.47168 0.27141 0.86296 0.49564 0.86914 0.49805 0.006199 0.001774 0.4041-0.22113 0.88477-0.49414l0.875-0.49609v-0.5019c1e-8 -0.27533-0.011454-0.49296-0.025391-0.48438-0.68365 0.39409-1.0504 0.60035-1.3066 0.73828-0.16261 0.087284-0.31039 0.16656-0.37305 0.18945-0.053804 0.020032-0.082818 0.020298-0.10156 0.011719-0.042314-0.019276-0.43577-0.24064-0.875-0.49219-0.439-0.2515-0.804-0.457-0.812-0.457zm0.011719 1.4609c-0.013878-0.008013-0.023762 0.2077-0.023438 0.48242v0.5l0.16992 0.095703 0.14648 0.085938 0.55273 0.31641c0.47648 0.27338 0.88248 0.494 0.90234 0.48828 0.02083-0.005367 0.41839-0.228 0.88477-0.49414l0.85156-0.48242v-0.48633c0-0.26668-0.011618-0.48438-0.023438-0.48438-0.01176 0-0.39677 0.2131-0.85547 0.47266-0.45794 0.25947-0.85161 0.47266-0.87305 0.47266-0.02996 0-0.7954-0.4267-1.7324-0.9668zm-10.137 1.5098c-0.10004 0.080504-0.20866 0.14393-0.29688 0.25391 0.00744 0.087311 0.041617 0.12891 0.072266 0.17578 0.085663-0.07748 0.18319-0.10883 0.25781-0.23242 0.00691-0.069543-0.007313-0.13453-0.033203-0.19727zm4.8945 1.75h0.52148v0.003906h12.854v-0.003906h0.51562v0.004h1.2344c0.013784 0.97035 0.036449 2.0045 0.042968 2.8203-0.10894 0.84909 0.11719 2.3342-1.2422 2.1973 0.003392 0.38998 0.009042 0.77994 0.011719 1.1699-3e-8 2.0737-0.79828 4.1215-2.3613 5.0996-1.7383 1.0876-3.3495 2.2264-4.6094 2.2227-1.8397-0.057335-2.8768-0.92259-4.9668-2.2383-1.477-0.931-1.993-3.001-1.993-5.085v-1.2441c-1.2586-0.18576-1.2818-1.5504-1.291-2.123-0.007112-1.0044 0.007566-1.9363 0.041016-2.8203h1.2422zm3.9629 2.2559c0.43897 0.00011339 0.79482 0.35593 0.79492 0.79492-0.00009828 0.43888-0.35594 0.79481-0.79492 0.79492-0.43897-0.00011339-0.79482-0.35597-0.79492-0.79492 0.00009828-0.43892 0.35594-0.79481 0.79492-0.79492zm5.9688 0c0.43897 0.00011339 0.79482 0.35593 0.79492 0.79492-0.00009828 0.43888-0.35594 0.79481-0.79492 0.79492-0.439-0.00011339-0.79483-0.35597-0.79492-0.79492 0.0000945-0.43892 0.35594-0.79481 0.79492-0.79492zm-3.036 3.669c0.016781-0.00011339 0.033773-0.00011339 0.050781 0 0.39814 0 0.72 0.066422 0.7168 0.14844-0.002022 0.080882-0.32239 0.14652-0.7168 0.14648-0.39441 0.00037773-0.7148-0.065602-0.7168-0.14648-0.004021-0.077858 0.28788-0.14466 0.66602-0.14844zm2.9551 2.2617v0.001953c-2e-8 -0.00041575-0.011602 0.00037773-0.011719 0-0.027828 0.058735-1.219 0.27228-2.7012 0.48242-1.4936 0.21165-2.7161 0.34122-2.7422 0.28906-0.02016-0.050986 1.0846-0.25344 2.5215-0.46094 0.064403-0.007559 0.12892-0.019785 0.19336-0.027344 1.5017-0.21203 2.7126-0.33687 2.7285-0.2832 0.000378-0.000529 0.011643-0.001537 0.011719-0.001953zm-10.256 13.029l-1.7266 4.6406h1.0156l0.31836-0.95703h1.6777l0.32227 0.95703h1.0156l-1.7363-4.6406zm3.0625 0v4.6406h0.95703v-1.699h0.761l0.87109 1.6992h1.0254v-0.044922l-1.0039-1.8965c0.27837-0.12537 0.4851-0.29353 0.62109-0.50391 0.13812-0.2125 0.20703-0.47635 0.20703-0.79297 0-0.44624-0.14782-0.79274-0.44531-1.0371-0.2975-0.24437-0.72129-0.36523-1.2695-0.36523zm4.1699 0v4.6406h0.95703v-1.27l-0.096-2.185 1.248 3.455h0.658l1.252-3.459-0.095703 2.1895v1.2695h0.95898v-4.6406h-1.256l-1.185 3.365-1.192-3.366zm5.2285 0 1.5234 2.957v1.6836h0.9707v-1.6836l1.5234-2.957h-1.044l-0.965 2.09-0.961-2.09zm-8.4414 0.77344h0.76758c0.25712 0 0.44706 0.06408 0.57031 0.18945 0.12537 0.12537 0.18945 0.29675 0.18945 0.51562 0 0.21462-0.065518 0.38456-0.19727 0.50781-0.13175 0.12112-0.31847 0.18164-0.55859 0.18164h-0.77148zm-3.5762 0.39844 0.58398 1.7383h-1.161z" fill-rule="evenodd" transform="matrix(.26458 0 0 .26458 0 284.3)"/>
 </g>
</svg>
