<svg width="48" height="48" viewBox="0 0 48 48" fill="none" xmlns="http://www.w3.org/2000/svg">
<path d="M11 6.5V4.5H11.5V20C11.5 21.1384 12.2782 21.7726 12.9044 22.283C12.9222 22.2975 12.9398 22.3118 12.9572 22.3261C13.3732 22.6657 13.7491 22.9765 14.0323 23.3851C14.3042 23.7775 14.5 24.2768 14.5 25V29.6298C14.5 29.7918 14.5785 29.9437 14.7106 30.0375C14.8427 30.1313 15.012 30.1552 15.165 30.1018C18.22 29.0341 21.6521 28.5 24 28.5C26.6075 28.5 30.5443 29.1583 33.8166 30.4691C35.4523 31.1244 36.8905 31.9305 37.9118 32.8731C38.9297 33.8125 39.5 34.8536 39.5 36V39.5H8.5V36C8.5 35.4023 8.65402 34.8393 8.94053 34.3056C8.97957 34.2329 9 34.1516 9 34.0691V32.7459C9 32.9486 9.12236 33.1313 9.30982 33.2084C9.49727 33.2855 9.71272 33.2418 9.85532 33.0977C10.1331 32.8172 10.4489 32.5469 10.7981 32.2874C10.9251 32.1931 11 32.0442 11 31.8861V29.5C11 29.4089 10.9757 29.3236 10.9331 29.25C10.9757 29.1765 11 29.0911 11 29V8.5C11 8.49506 11 8.49004 11 8.48494C11 8.40025 11.0001 8.29331 10.9886 8.19762C10.9761 8.09276 10.9432 7.93164 10.8241 7.78643C10.6992 7.63428 10.5368 7.56751 10.4024 7.53622C10.2756 7.50672 10.1364 7.50006 10.0017 7.5C10.1364 7.49994 10.2756 7.49328 10.4024 7.46378C10.5368 7.43249 10.6992 7.36572 10.8241 7.21357C10.9432 7.06836 10.9761 6.90724 10.9886 6.80238C11.0001 6.70669 11 6.59975 11 6.51506C11 6.50996 11 6.50494 11 6.5ZM8.72624 24.5202C8.72407 24.5135 8.7219 24.5067 8.71974 24.5H9.28026C9.2781 24.5067 9.27593 24.5135 9.27376 24.5202C9.14429 24.925 9 25.4845 9 26C9 25.4845 8.85571 24.925 8.72624 24.5202ZM9 29C9 29.0911 9.02435 29.1765 9.06689 29.25C9.02435 29.3236 9 29.4089 9 29.5V29ZM24 23.5C20.37 23.5 17.3439 20.9242 16.6498 17.5H31.3502C30.6561 20.9242 27.63 23.5 24 23.5ZM32.5 13L32.5 13.0134C32.4999 13.2356 32.4997 13.5697 32.7316 13.9442C32.8468 14.1304 33.0103 14.313 33.2334 14.5H14.7666C14.9897 14.313 15.1532 14.1304 15.2684 13.9442C15.5002 13.5697 15.5001 13.2356 15.5 13.0135C15.5 13.0089 15.5 13.0044 15.5 13C15.5 8.30364 19.3036 4.5 24 4.5C28.6964 4.5 32.5 8.30364 32.5 13Z" stroke="#333333" stroke-linejoin="round"/>
<path d="M24 12L26 11V10L24 11L22 10V11L24 12Z" fill="#333333"/>
<path d="M26 12.5L24 13.5L22 12.5V11.5L24 12.5L26 11.5V12.5Z" fill="#333333"/>
<path d="M24.5612 6.72746L24 5L23.4387 6.72746H21.6223L23.0918 7.79508L22.5305 9.52254L24 8.45492L25.4694 9.52254L24.9081 7.79508L26.3776 6.72746H24.5612Z" fill="#333333"/>
<path d="M13 30.4346C12.8308 30.513 12.664 30.5932 12.5 30.6754V26.5H13V30.4346Z" fill="#333333"/>
</svg>
