<svg width="48" height="48" viewBox="0 0 48 48" fill="none" xmlns="http://www.w3.org/2000/svg">
<path fill-rule="evenodd" clip-rule="evenodd" d="M0 0H48V48H0V0ZM18.1153 18.8226C18.0397 19.2027 18 19.5963 18 20C18 23.3137 20.6863 26 24 26C27.3137 26 30 23.3137 30 20C30 19.5963 29.9603 19.2027 29.8847 18.8226C25.7458 17.821 22.2542 17.821 18.1153 18.8226ZM31.9231 18.8872C32.6408 19.0806 33.3752 19.2987 34.1308 19.5415C34.5825 19.6866 34.9936 19.1763 34.7589 18.7639C34.2196 17.8162 33.5833 16.5762 33.5833 16C33.5833 10.4772 29.2927 6 24 6C18.7073 6 14.4167 10.4772 14.4167 16C14.4167 16.5762 13.7804 17.8162 13.2411 18.7639C13.0064 19.1763 13.4175 19.6866 13.8692 19.5415C14.6248 19.2987 15.3592 19.0806 16.0769 18.8872C16.0262 19.2512 16 19.6227 16 20C16 24.4183 19.5817 28 24 28C28.4183 28 32 24.4183 32 20C32 19.6227 31.9738 19.2512 31.9231 18.8872ZM42 42H32.644L35.7257 31.7276C39.3372 32.8578 42 34.4959 42 36.5V42ZM23.4706 30.0066C26.6788 29.9544 30.4777 30.3794 33.7981 31.193L30.556 42H6V36.5C6 32.4407 16.2579 30.1241 23.4706 30.0066ZM13.4472 35.1056C12.9532 34.8586 12.3526 35.0588 12.1056 35.5528C11.8586 36.0467 12.0588 36.6474 12.5528 36.8944L14.5528 37.8944C14.8343 38.0352 15.1657 38.0352 15.4472 37.8944L17.4472 36.8944C17.9412 36.6474 18.1414 36.0467 17.8944 35.5528C17.6474 35.0588 17.0468 34.8586 16.5528 35.1056L15 35.8819L13.4472 35.1056ZM12.5889 27.9965C12.8362 28.4904 12.6362 29.0912 12.1424 29.3384L8.44766 31.1882C7.95381 31.4354 7.35304 31.2355 7.10579 30.7417C6.85854 30.2478 7.05845 29.6471 7.5523 29.3998L11.247 27.55C11.7409 27.3028 12.3417 27.5027 12.5889 27.9965ZM40 9V20.5V21.1429L35 24V29L42 32V30V20.5V20V9H40ZM23.8268 9.12528C23.8811 8.95824 24.1173 8.95824 24.1716 9.12528L24.6657 10.6458C24.69 10.7205 24.7596 10.771 24.8381 10.771H26.4369C26.6124 10.771 26.6855 10.9957 26.5434 11.0989L25.25 12.0387C25.1865 12.0849 25.1598 12.1666 25.1841 12.2413L25.6782 13.7619C25.7324 13.9288 25.5413 14.0678 25.3992 13.9646L24.1058 13.0248C24.0423 12.9786 23.9563 12.9786 23.8927 13.0248L22.5993 13.9646C22.4572 14.0678 22.266 13.9288 22.3203 13.7619L22.8144 12.2413C22.8386 12.1666 22.8121 12.0849 22.7486 12.0387L21.4551 11.0989C21.313 10.9957 21.386 10.771 21.5616 10.771H23.1604C23.2389 10.771 23.3085 10.7205 23.3328 10.6458L23.8268 9.12528Z" fill="#333333"/>
</svg>
