<svg width="48" height="48" viewBox="0 0 48 48" fill="none" xmlns="http://www.w3.org/2000/svg">
<path fill-rule="evenodd" clip-rule="evenodd" d="M48 0H0V48H48V0ZM15 25C15 23.3485 14.0908 22.6061 13.2735 21.9388C12.6061 21.3939 12 20.899 12 20V4H10.5V6.5C10.5 6.89052 10.5 7 10 7C9.5 7 9.5 7.5 9.5 7.5C9.5 7.5 9.5 8 10 8C10.5 8 10.5 8.10948 10.5 8.5V29H9.5V26C9.5 25.1268 10 24 10 24H8C8 24 8.5 25.1268 8.5 26V34.0691C8.17818 34.6685 8 35.3122 8 36V40H40V36C40 30.68 29.34 28 24 28C21.5931 28 18.1053 28.5445 15 29.6298V25ZM9.5 32.7459C9.79788 32.4451 10.1333 32.1584 10.5 31.8861V29.5H9.5V32.7459ZM13 30.4346C12.8308 30.513 12.664 30.5932 12.5 30.6754V26.5H13V30.4346ZM16.0618 17C16.5536 20.9476 19.9187 24 24 24C28.0813 24 31.4464 20.9476 31.9382 17H16.0618ZM34.2536 14.5971C33 13.8558 33 13.4279 33 13C33 8.0275 28.9725 4 24 4C19.0275 4 15 8.0275 15 13C15 13.4279 15 13.8558 13.7464 14.5971C13.5648 14.7045 13.6362 15 13.8472 15H34.1528C34.3638 15 34.4352 14.7045 34.2536 14.5971ZM26 11L24 12L22 11V10L24 11L26 10V11ZM24 13.5L26 12.5V11.5L24 12.5L22 11.5V12.5L24 13.5ZM24 5L24.5613 6.72746H26.3776L24.9082 7.79508L25.4695 9.52254L24 8.45492L22.5305 9.52254L23.0918 7.79508L21.6224 6.72746H23.4387L24 5Z" fill="#333333"/>
</svg>
