<?xml version="1.0" encoding="UTF-8" standalone="no"?>
<!-- Created with Inkscape (http://www.inkscape.org/) -->
<svg id="svg8" xmlns:rdf="http://www.w3.org/1999/02/22-rdf-syntax-ns#" xmlns="http://www.w3.org/2000/svg" xmlns:osb="http://www.openswatchbook.org/uri/2009/osb" height="48" width="48" version="1.1" xmlns:cc="http://creativecommons.org/ns#" viewBox="0 0 12.7 12.7" xmlns:dc="http://purl.org/dc/elements/1.1/">
 <title id="title4753">UIO-icon</title>
 <metadata id="metadata5">
  <rdf:RDF>
   <cc:Work rdf:about="">
    <dc:format>image/svg+xml</dc:format>
    <dc:type rdf:resource="http://purl.org/dc/dcmitype/StillImage"/>
    <dc:title>UIO-icon</dc:title>
    <dc:creator>
     <cc:Agent>
      <dc:title>Joaquín Urbano</dc:title>
     </cc:Agent>
    </dc:creator>
    <dc:rights>
     <cc:Agent>
      <dc:title>GPL</dc:title>
     </cc:Agent>
    </dc:rights>
   </cc:Work>
  </rdf:RDF>
 </metadata>
 <g id="layer1" fill="#333" transform="translate(0,-284.3)">
  <path id="rect5919" d="m23.502 4.9316c-3.1373 0.003707-6.0165 1.7381-7.4863 4.5098-0.23895 0.50715-0.45108 1.0411-0.64844 1.5898-0.22063 0.74607-0.33762 1.5189-0.34766 2.2969h16.962c-0.01-0.778-0.128-1.551-0.349-2.297-0.192-0.53-0.376-1.0596-0.649-1.5896-1.469-2.7704-4.346-4.5046-7.482-4.5098zm-13.916 0.002c-0.1067 0.0055-0.2073 0.0329-0.3066 0.0644v0.91797c-0.083149 0.011339-0.1659 0.026458-0.25 0.046875v0.56641h0.25v0.046875h-0.76953c-0.3608 0.082704-0.4878 0.31924-0.48047 0.5625v0.0039062c0.013036 0.31365 0.24652 0.63626 0.48047 0.65625h0.76953v5.1094c-0.0961 0.015-0.1913 0.03-0.2871 0.045l-0.0019531 0.34375c-0.031861-0.022677-0.058163-0.011339-0.083984 0l0.002 9.932-0.0957 7.449c-0.1862 0.068-0.3611 0.14-0.5527 0.207-2.5451 0.749-2.545 2.867-2.545 4.019v6.6621h35.572v-6.6621c0-1.1525 0.00016284-3.2682-2.5449-4.0195-1.2109-0.42077-2.3081-0.88043-3.373-1.3418l-2.652-1.15c-0.795-0.341-1.588-0.669-2.405-0.959-1.5652 1.4702-4.7177 2.8115-6.8027 2.8438-2.5629-0.002872-5.0208-1.0188-6.8379-2.8262l-0.10938 0.029297c-0.87529 0.31559-1.7272 0.6743-2.582 1.0449l-1.8359 0.79492-0.5-6.1836c0.26798-0.13757 0.23687-0.36386 0.12109-0.46484-0.21582-0.0011-0.59434 0.087853-0.58789-0.11133l-0.2168-9.2969h-0.050781v-0.30859h-0.001953l0.33203-0.36328-0.035156-0.0625c0.035301-0.015118 0.073439-0.021917 0.14062 0.023438 0.079159 0.071059 0.13669 0.018645 0.19922-0.007813l0.241-0.217c0.04495-0.071429 0.10684-0.105 0.11133-0.26562l-0.076172-0.25195c-0.10106-0.09524-0.16965-0.086946-0.23633-0.070312l-0.36133 0.30273c-0.07033 0.083531-0.060742 0.14177-0.044922 0.19922l-0.099609 0.058594-0.035156-0.060547h-0.20312v-1.816h0.146v0.11133c0.05393 0.015118 0.1088 0.037799 0.1543 0v-0.9549c-0.05745-0.041949-0.10528-0.015118-0.1543 0v0.1113h-0.14648v-1.8906h0.009766v-1.2246h-0.009766v-0.76172c-0.20677-0.048756-0.38521-0.1183-0.80664 0v0.097656c-0.034054-0.00231-0.069417-0.004033-0.10352-0.0078125v-0.90625c-0.1236-0.054-0.2368-0.0702-0.3436-0.0646zm13.924 1.2637c-0.023786 0.00096265-0.1336 0.17782-0.24414 0.39844-0.11084 0.22144-0.21738 0.41043-0.23438 0.42188-0.016981 0.010885-0.193 0.041694-0.39453 0.070312-0.49366 0.070114-0.51953 0.077378-0.51953 0.14062 0 0.030236 0.14543 0.19444 0.32422 0.36328l0.10352 0.097656h0.001953l0.22 0.2089-0.077 0.4434c-0.042526 0.24342-0.066707 0.46852-0.054688 0.5 0.004579 0.011452 0.010188 0.021245 0.023438 0.023438h0.003906c0.043487 0.0043087 0.14553-0.045273 0.41797-0.1875l0.42578-0.2207 0.41406 0.21875c0.31965 0.17171 0.42074 0.21036 0.44727 0.17773 0.011876-0.014891 0.014708-0.061357 0.007813-0.14062-0.006774-0.07861-0.022987-0.1896-0.048828-0.33984v-0.0019531l-0.076172-0.4375 0.248-0.252 0.091797-0.09375c0.26-0.2649 0.329-0.3543 0.299-0.3847-0.03-0.03-0.729-0.1583-0.895-0.164-0.014005-0.00048642-0.11889-0.18812-0.23438-0.41992-0.11548-0.23174-0.22857-0.42188-0.25195-0.42188zm-13.58 0.32812h0.10352v0.046875h-0.1043zm-1.5273 0.42578c0.0026-0.000082394 0.0052114-0.000082394 0.0078125 0 0.051729-0.000059339 0.098547 0.032164 0.11914 0.082031h0.4509v0.0723h-0.4414c-0.0083 0.0681-0.0635 0.1192-0.1289 0.1191-0.0715-0.0005-0.1292-0.0616-0.129-0.1367-0.0003-0.072 0.0527-0.1319 0.1211-0.1367zm1.5273 0.84766h0.10352v5.0531c-0.0349 0-0.0703-0.003-0.1043-0.002zm11.83 1.1641c-0.007784 0-0.010982 0.22251-0.005859 0.49609l0.009766 0.49609 0.85938 0.49414 0.001953 0.001953c0.47168 0.27141 0.86296 0.49564 0.86914 0.49805 0.006199 0.001774 0.4041-0.22113 0.88477-0.49414l0.875-0.49609v-0.5019c1e-8 -0.27533-0.011454-0.49296-0.025391-0.48438-0.68365 0.39409-1.0504 0.60035-1.3066 0.73828-0.16261 0.087284-0.31039 0.16656-0.37305 0.18945-0.053804 0.020032-0.082818 0.020298-0.10156 0.011719-0.042314-0.019276-0.43577-0.24064-0.875-0.49219-0.43923-0.25149-0.80472-0.45703-0.8125-0.45703zm0.011719 1.4609c-0.013878-0.008013-0.023762 0.2077-0.023438 0.48242v0.5l0.16992 0.095703 0.14648 0.085938 0.55273 0.31641c0.47648 0.27338 0.88248 0.494 0.90234 0.48828 0.02083-0.005367 0.41839-0.228 0.88477-0.49414l0.85156-0.48242v-0.48633c0-0.26668-0.011618-0.48438-0.023438-0.48438-0.01176 0-0.39677 0.2131-0.85547 0.47266-0.45794 0.25947-0.85161 0.47266-0.87305 0.47266-0.02996 0-0.7954-0.4267-1.7324-0.9668zm-10.137 1.5098c0.02589 0.06274 0.040113 0.12772 0.033203 0.19727-0.07462 0.12359-0.17215 0.15494-0.25781 0.23242-0.030648-0.04687-0.064826-0.08847-0.072266-0.17578 0.08822-0.10998 0.19684-0.1734 0.29688-0.25391zm4.8945 1.75v0.004h-1.2422c-0.03345 0.88398-0.048127 1.8159-0.041016 2.8203 0.009245 0.57266 0.032388 1.9373 1.291 2.123v1.244c0 2.0844 0.5155 4.1544 1.9922 5.084 2.09 1.3157 3.1271 2.1809 4.9668 2.2383 1.2599 0.00378 2.871-1.135 4.6094-2.2227 1.5631-0.97807 2.3613-3.0259 2.3613-5.0996-0.002677-0.38998-0.008327-0.77994-0.011719-1.1699 1.3594 0.13693 1.1332-1.3482 1.2422-2.1973 0.004362-1.0243-0.014941-1.9389-0.044922-2.8203h-1.2324v-0.003906h-0.51562l0.042969 5.8867c0 1.8753-0.63337 4.0318-2.0469 4.916-1.572 0.98366-3.2259 2.1971-4.3652 2.1934-1.6637-0.047622-2.9459-1.0229-4.8359-2.2129-1.3354-0.84057-1.665-2.9881-1.6602-4.873 0.004926-1.9701 0.011719-3.9401 0.011719-5.9102zm3.9629 2.2559c-0.43898 0.00011339-0.79482 0.356-0.79492 0.79492 0.00009828 0.43895 0.35596 0.79481 0.79492 0.79492 0.43898-0.00011339 0.79482-0.35604 0.79492-0.79492-0.00009828-0.43899-0.35596-0.79481-0.79492-0.79492zm5.9688 0c-0.43898 0.00011339-0.79483 0.356-0.79492 0.79492 0.0000945 0.43895 0.35592 0.79481 0.79492 0.79492 0.43898-0.00011339 0.79482-0.35604 0.79492-0.79492-0.00009828-0.43899-0.35596-0.79481-0.79492-0.79492zm-3.036 3.669c-0.37814 0.00378-0.67004 0.070579-0.66602 0.14844 0.001999 0.080882 0.32239 0.14686 0.7168 0.14648 0.39441 0.00003759 0.71477-0.065602 0.7168-0.14648 0.003201-0.082016-0.31865-0.14844-0.7168-0.14844-0.017008-0.00011339-0.034-0.00011339-0.050781 0zm2.9551 2.2617c-0.00007561 0.00041575-0.011341 0.001424-0.011719 0.001953 0.00011717 0.00037775 0.011719-0.00041575 0.011719 0zm-0.011719 0.001953c-0.015874-0.053669-1.2268 0.071172-2.7285 0.2832-0.064441 0.007559-0.12896 0.019785-0.19336 0.027344-1.4369 0.2075-2.5416 0.40995-2.5215 0.46094 0.026079 0.052158 1.2485-0.077409 2.7422-0.28906 1.4821-0.21014 2.6733-0.42369 2.7012-0.48242zm-10.244 13.027l-1.7266 4.6406h1.0156l0.31836-0.95703h1.6777l0.32227 0.95703h1.0156l-1.7363-4.6406zm3.0625 0v4.6406h0.95703v-1.699h0.761l0.87109 1.6992h1.0254v-0.044922l-1.0039-1.8965c0.27837-0.12537 0.4851-0.29353 0.62109-0.50391 0.13812-0.2125 0.20703-0.47635 0.20703-0.79297 0-0.44624-0.14782-0.79274-0.44531-1.0371-0.2975-0.24437-0.72129-0.36523-1.2695-0.36523zm4.1699 0v4.6406h0.95703v-1.27l-0.096-2.185 1.248 3.455h0.658l1.252-3.459-0.095703 2.1895v1.2695h0.95898v-4.6406h-1.256l-1.185 3.365-1.192-3.366zm5.2285 0 1.5234 2.957v1.6836h0.9707v-1.6836l1.5234-2.957h-1.044l-0.965 2.09-0.961-2.09zm-8.4414 0.77344h0.76758c0.25712 0 0.44706 0.06408 0.57031 0.18945 0.12537 0.12537 0.18945 0.29675 0.18945 0.51562 0 0.21462-0.065518 0.38456-0.19727 0.50781-0.13175 0.12112-0.31847 0.18164-0.55859 0.18164h-0.77148zm-3.5762 0.39844 0.58398 1.7383h-1.161z" fill-rule="evenodd" transform="matrix(.26458 0 0 .26458 0 284.3)"/>
 </g>
</svg>
