<svg width="48" height="48" viewBox="0 0 48 48" fill="none" xmlns="http://www.w3.org/2000/svg">
<path d="M18.0387 19.3135C18.881 19.4835 19.7814 19.6139 20.7129 19.7047C21.2039 21.0442 22.4903 22 24 22C25.5097 22 26.7961 21.0442 27.2871 19.7047C28.2186 19.6139 29.119 19.4835 29.9613 19.3135C29.9868 19.5385 30 19.7675 30 19.9998C30 23.3135 27.3137 25.9998 24 25.9998C20.6863 25.9998 18 23.3135 18 19.9998C18 19.7675 18.0132 19.5385 18.0387 19.3135Z" fill="#333333"/>
<path d="M24 20C23.7696 20 23.5513 19.9481 23.3563 19.8552C22.85 19.6143 22.5 19.098 22.5 18.5C22.5 17.6716 23.1716 17 24 17C24.8284 17 25.5 17.6716 25.5 18.5C25.5 19.098 25.15 19.6143 24.6437 19.8552C24.4487 19.9481 24.2304 20 24 20Z" fill="#333333"/>
<path d="M24 39.0001C25.1046 39.0001 26 38.1047 26 37.0001C26 35.8956 25.1046 35.0001 24 35.0001C22.8954 35.0001 22 35.8956 22 37.0001C22 38.1047 22.8954 39.0001 24 39.0001Z" fill="#333333"/>
<path fill-rule="evenodd" clip-rule="evenodd" d="M0 0H48V48H0V0ZM31.9044 18.76C31.9674 19.1645 32 19.5786 32 19.9998C32 24.4181 28.4183 27.9998 24 27.9998C19.5817 27.9998 16 24.4181 16 19.9998C16 19.5786 16.0326 19.1645 16.0956 18.76C13.4888 17.8463 12.1372 16.364 13.6028 14.3132C13.641 14.494 13.6901 14.6693 13.7506 14.8378C13.9372 15.3576 14.5098 15.6278 15.0296 15.4412C15.5494 15.2546 15.8196 14.682 15.633 14.1621C15.4612 13.6835 15.4355 12.9214 15.6783 12.0113C15.7702 11.9251 15.8642 11.842 15.9603 11.7619C16.3648 10.7779 17.0396 9.78034 18 8.95421V12.4805C18 13.0327 18.4477 13.4805 19 13.4805C19.5523 13.4805 20 13.0327 20 12.4805V7.70959C20.8677 7.3368 21.8662 7.08854 23 7.01954V10.4805C23 11.0327 23.4477 11.4805 24 11.4805C24.5523 11.4805 25 11.0327 25 10.4805V7.07488C26.1235 7.20249 27.1243 7.48713 28 7.88184V12.4805C28 13.0327 28.4477 13.4805 29 13.4805C29.5523 13.4805 30 13.0327 30 12.4805V9.13118C30.9947 9.96602 31.6972 10.9599 32.0991 11.9492C32.1928 11.9941 32.2718 12.0349 32.335 12.0708C32.5512 12.8737 32.5466 13.6127 32.3516 14.1693C32.169 14.6906 32.4435 15.2611 32.9647 15.4437C33.4859 15.6264 34.0565 15.3519 34.2391 14.8306C34.2994 14.6583 34.3492 14.4816 34.3886 14.3013C35.868 16.3583 34.5162 17.8445 31.9044 18.76ZM25 6.99999C25 6.44771 24.5523 6 24 6C23.4477 6 23 6.44771 23 6.99999H25ZM31 42.0002H16V29.1346C17.1864 28.8305 18.384 28.5845 19.5337 28.4004L23 31.0001L25 31.0001L28.4663 28.4004C29.2934 28.5329 30.1453 28.6973 31 28.8924V42.0002ZM12 30.4255C12.6426 30.1672 13.3134 29.9279 14 29.7085V42.0002H12V30.4255ZM10 31.3453C7.63499 32.5966 6 34.1668 6 36.0002V42.0002H10V31.3453ZM31 26.8043C31 26.33 31.3189 25.915 31.7771 25.7928L36.5675 24.5153C37.8337 24.1777 39.1663 24.1777 40.4325 24.5153L45.2229 25.7928C45.6811 25.915 46 26.33 46 26.8043C46 27.4374 45.4424 27.9256 44.8148 27.842L39.5 27.1333V42H37.5V27.1333L32.1852 27.842C31.5576 27.9256 31 27.4374 31 26.8043Z" fill="#333333"/>
</svg>
