<svg width="48" height="48" viewBox="0 0 48 48" fill="none" xmlns="http://www.w3.org/2000/svg">
<path fill-rule="evenodd" clip-rule="evenodd" d="M48 0H0V48H48V0ZM9.48 18H26.54C27.08 18 27.52 17.56 27.52 17.02V16.98C27.52 16.44 27.08 16 26.54 16H26C26 13.04 24.38 10.5 22 9.1V11C22 11.56 21.56 12 21 12C20.44 12 20 11.56 20 11V8.28C19.36 8.12 18.7 8 18 8C17.3 8 16.64 8.12 16 8.28V11C16 11.56 15.56 12 15 12C14.44 12 14 11.56 14 11V9.1C11.62 10.5 10 13.04 10 16H9.48C8.94 16 8.5 16.44 8.5 16.98V17.04C8.5 17.56 8.94 18 9.48 18ZM20 14C20 15.1046 19.1046 16 18 16C16.8954 16 16 15.1046 16 14C16 12.8954 16.8954 12 18 12C19.1046 12 20 12.8954 20 14ZM8 34V32.004C4.66633 33.339 2 35.3393 2 38V42H8V37H11V42H25V37H28V42H34V38C34 35.3393 31.3337 33.339 28 32.004V34H25V31.0159C22.473 30.3392 19.8998 30 18 30C16.1002 30 13.527 30.3392 11 31.0159V34H8ZM18 26C21.72 26 24.82 23.44 25.72 20H10.28C11.18 23.44 14.28 26 18 26ZM42.9891 41.4957L44.4591 41.1607C44.6513 41.1169 44.8012 41.0094 44.9087 40.8383C45.0163 40.6673 45.0519 40.4797 45.0155 40.2758L40.1094 18.8191C42.388 18.5726 44.7072 18.903 47.067 19.8105C46.9268 19.1956 46.4792 18.6508 45.7241 18.176C43.8717 17.0114 41.8418 16.5088 39.6343 16.6683L39.4852 16.0807C39.4414 15.8885 39.334 15.7387 39.1629 15.6311C38.9918 15.5236 38.8043 15.488 38.6003 15.5243L37.1591 15.8529C36.9595 15.9085 36.8059 16.0218 36.6984 16.1929C36.5908 16.364 36.5589 16.5456 36.6027 16.7377L36.7407 17.3431C34.6778 18.1367 33.0603 19.4657 31.8882 21.3298C31.4135 22.0849 31.2462 22.7699 31.3863 23.3848C33.1197 21.5444 35.0666 20.2414 37.2269 19.4761L42.1042 40.9394C42.1598 41.139 42.2731 41.2925 42.4442 41.4001C42.6153 41.5077 42.7969 41.5396 42.9891 41.4957Z" fill="#333333"/>
</svg>
