<svg width="48" height="48" viewBox="0 0 48 48" fill="none" xmlns="http://www.w3.org/2000/svg">
<path d="M8 32.004V34H11V31.0159C13.527 30.3392 16.1002 30 18 30C19.8998 30 22.473 30.3392 25 31.0159V34H28V32.004C31.3337 33.339 34 35.3393 34 38V42H28V37H25V42H11V37H8V42H2V38C2 35.3393 4.66633 33.339 8 32.004Z" fill="#333333"/>
<path fill-rule="evenodd" clip-rule="evenodd" d="M26.54 18H9.48C8.94 18 8.5 17.56 8.5 17.04V16.98C8.5 16.44 8.94 16 9.48 16H10C10 13.04 11.62 10.5 14 9.1V11C14 11.56 14.44 12 15 12C15.56 12 16 11.56 16 11V8.28C16.64 8.12 17.3 8 18 8C18.7 8 19.36 8.12 20 8.28V11C20 11.56 20.44 12 21 12C21.56 12 22 11.56 22 11V9.1C24.38 10.5 26 13.04 26 16H26.54C27.08 16 27.52 16.44 27.52 16.98V17.02C27.52 17.56 27.08 18 26.54 18ZM18 16C19.1046 16 20 15.1046 20 14C20 12.8954 19.1046 12 18 12C16.8954 12 16 12.8954 16 14C16 15.1046 16.8954 16 18 16Z" fill="#333333"/>
<path d="M18 26C21.72 26 24.82 23.44 25.72 20H10.28C11.18 23.44 14.28 26 18 26Z" fill="#333333"/>
<path d="M44.4591 41.1607L42.9891 41.4957C42.7969 41.5396 42.6153 41.5077 42.4442 41.4001C42.2731 41.2925 42.1598 41.139 42.1042 40.9394L37.2269 19.4761C35.0666 20.2414 33.1197 21.5444 31.3863 23.3848C31.2462 22.7699 31.4135 22.0849 31.8882 21.3298C33.0603 19.4657 34.6778 18.1367 36.7407 17.3431L36.6027 16.7377C36.5589 16.5456 36.5908 16.364 36.6984 16.1929C36.8059 16.0218 36.9595 15.9085 37.1591 15.8529L38.6003 15.5243C38.8043 15.488 38.9918 15.5236 39.1629 15.6311C39.334 15.7387 39.4414 15.8885 39.4852 16.0807L39.6343 16.6683C41.8418 16.5088 43.8717 17.0114 45.7241 18.176C46.4792 18.6508 46.9268 19.1956 47.067 19.8105C44.7072 18.903 42.388 18.5726 40.1094 18.8191L45.0155 40.2758C45.0519 40.4797 45.0163 40.6673 44.9087 40.8383C44.8012 41.0094 44.6513 41.1169 44.4591 41.1607Z" fill="#333333"/>
</svg>
