<svg width="48" height="48" viewBox="0 0 48 48" fill="none" xmlns="http://www.w3.org/2000/svg">
<path fill-rule="evenodd" clip-rule="evenodd" d="M3.99976 11.4897V27.4896H31.9996V11.4897H3.99976ZM16.9998 12.9898H19.9998V17.4897H24.4997V20.4897H19.9998V24.9896H16.9998V20.4897H12.4999V17.4897H16.9998V12.9898ZM32.9997 16.4898V32.4896H35.1442C35.5883 30.9713 36.9803 29.9277 38.5622 29.9272C40.1441 29.9277 41.5361 30.9713 41.9802 32.4896H43.9997V24.4895L40.1287 16.4894L32.9997 16.4898ZM39.8006 16.9995L43.4334 24.486H33.5167V17.0018L39.8006 16.9995ZM3.99976 28.4897V32.4896H5.58179C6.02585 30.9713 7.41789 29.9276 8.99977 29.9271C10.5817 29.9276 11.9737 30.9713 12.4177 32.4896H14.5506C14.9946 30.9713 16.3867 29.9276 17.9685 29.9271C19.5504 29.9276 20.9425 30.9713 21.3865 32.4896H31.9998V28.4897H3.99976ZM8.99969 30.4897C7.34282 30.4897 5.99969 31.8329 5.99969 33.4897C5.99969 35.1466 7.34282 36.4897 8.99969 36.4897C10.6566 36.4897 11.9997 35.1466 11.9997 33.4897C11.9997 31.8329 10.6566 30.4897 8.99969 30.4897ZM17.9685 30.4897C16.3116 30.4897 14.9685 31.8329 14.9685 33.4897C14.9685 35.1466 16.3116 36.4897 17.9685 36.4897C19.6254 36.4897 20.9685 35.1466 20.9685 33.4897C20.9685 31.8329 19.6254 30.4897 17.9685 30.4897ZM38.5624 30.4897C36.9055 30.4897 35.5624 31.8329 35.5624 33.4897C35.5624 35.1466 36.9055 36.4897 38.5624 36.4897C40.2193 36.4897 41.5624 35.1466 41.5624 33.4897C41.5624 31.8329 40.2193 30.4897 38.5624 30.4897Z" fill="#333333"/>
</svg>
