<svg width="48" height="48" viewBox="0 0 48 48" fill="none" xmlns="http://www.w3.org/2000/svg">
<path fill-rule="evenodd" clip-rule="evenodd" d="M48 0H0V48H48V0ZM4 13C4 11.3431 5.34315 10 7 10H29C30.6569 10 32 11.3431 32 13V19H35.718C36.4722 19 37.1987 19.284 37.7529 19.7956L43.0348 24.6713C43.6501 25.2392 44 26.0384 44 26.8757V35H40.874C40.4299 36.7252 38.8638 38 37 38C35.1362 38 33.5701 36.7252 33.126 35H23.874C23.4299 36.7252 21.8638 38 20 38C18.1362 38 16.5701 36.7252 16.126 35H14.874C14.4299 36.7252 12.8638 38 11 38C9.13616 38 7.57006 36.7252 7.12602 35H4V13ZM42 33H40.874C40.4299 31.2748 38.8638 30 37 30C35.1362 30 33.5701 31.2748 33.126 33H32V28H42V33ZM41.5257 26H32V21H35.718C35.9694 21 36.2116 21.0947 36.3963 21.2652L41.5257 26ZM6 28V33H7.12602C7.57006 31.2748 9.13616 30 11 30C12.8638 30 14.4299 31.2748 14.874 33H16.126C16.5701 31.2748 18.1362 30 20 30C21.8638 30 23.4299 31.2748 23.874 33H30V28H6ZM11 36C9.89543 36 9 35.1046 9 34C9 32.8954 9.89543 32 11 32C12.1046 32 13 32.8954 13 34C13 35.1046 12.1046 36 11 36ZM22 34C22 35.1046 21.1046 36 20 36C18.8954 36 18 35.1046 18 34C18 32.8954 18.8954 32 20 32C21.1046 32 22 32.8954 22 34ZM37 36C38.1046 36 39 35.1046 39 34C39 32.8954 38.1046 32 37 32C35.8954 32 35 32.8954 35 34C35 35.1046 35.8954 36 37 36ZM19 18V15H17V18H14V20H17V23H19V20H22V18H19Z" fill="#333333"/>
</svg>
