<svg width="48" height="48" viewBox="0 0 48 48" fill="none" xmlns="http://www.w3.org/2000/svg">
<path fill-rule="evenodd" clip-rule="evenodd" d="M48 0H0V48H48V0ZM27 11C28.657 11 31 8.656 31 7C31 7 31 5 29 5C28.6295 5 28.3863 5.22114 28.1286 5.45543C27.8384 5.71937 27.5298 6 27 6C26.5858 6 26.3432 5.82843 26.0589 5.62742C25.6569 5.34315 25.1716 5 24 5C22.8284 5 22.3432 5.34315 21.9411 5.62742C21.6569 5.82843 21.4142 6 21 6C20.4704 6 20.1621 5.71954 19.8721 5.45567C19.6144 5.22129 19.3712 5 19 5C17 5 17 7 17 7C17 8.656 19.344 11 21 11H27ZM16 43C18.6666 44 20.8515 44 24 44C27.1485 44 29.3334 44 32 43C46.4135 37.595 35.4296 22.4969 31.133 16.591L30.923 16.3022C30.3334 15.4907 29.3975 15 28.3945 15H19.6056C18.6025 15 17.666 15.4909 17.0761 16.3021L16.8886 16.5597C12.6296 22.4099 1.57745 37.5914 16 43ZM25.7143 22.6V21H22.2857V22.6C21.1491 22.6 20.059 23.0214 19.2553 23.7716C18.4515 24.5217 18 25.5391 18 26.6C18 27.6609 18.4515 28.6783 19.2553 29.4284C20.059 30.1786 21.1491 30.6 22.2857 30.6H25.7143L25.8686 30.6128C26.0793 30.6484 26.2682 30.7564 26.3979 30.9155C26.5276 31.0745 26.5889 31.2732 26.5695 31.4723C26.5502 31.6714 26.4516 31.8565 26.2933 31.9912C26.1351 32.1259 25.9285 32.2004 25.7143 32.2H18.8571V35.4H22.2857V37H25.7143V35.4C26.8509 35.4 27.941 34.9786 28.7447 34.2284C29.5485 33.4783 30 32.4609 30 31.4C30 30.3391 29.5485 29.3217 28.7447 28.5716C27.941 27.8214 26.8509 27.4 25.7143 27.4H22.2857L22.1314 27.3872C21.9207 27.3516 21.7318 27.2436 21.6021 27.0845C21.4724 26.9255 21.4111 26.7268 21.4305 26.5277C21.4499 26.3286 21.5484 26.1435 21.7067 26.0088C21.8649 25.8741 22.0715 25.7996 22.2857 25.8H29.1429V22.6H25.7143ZM19 13C19 12.4477 19.4477 12 20 12H28C28.5523 12 29 12.4477 29 13C29 13.5523 28.5523 14 28 14H20C19.4477 14 19 13.5523 19 13Z" fill="#333333"/>
</svg>
