<svg width="48" height="48" viewBox="0 0 48 48" fill="none" xmlns="http://www.w3.org/2000/svg">
<path d="M30.7286 16.885L30.7287 16.8851C32.8875 19.8525 36.6492 25.0323 38.102 30.1206C38.8263 32.6573 38.9579 35.1101 38.0868 37.2341C37.2223 39.3422 35.3327 41.2163 31.8245 42.5318C29.254 43.4958 27.1561 43.5 24 43.5C20.8439 43.5 18.746 43.4958 16.1756 42.5318C12.6658 41.2156 10.7789 39.3363 9.91857 37.2213C9.05156 35.0897 9.18942 32.6276 9.91934 30.0833C11.3833 24.9803 15.153 19.7933 17.2928 16.8539L17.2929 16.8539L17.4803 16.5963L17.4804 16.5962C17.9791 15.9104 18.7672 15.5 19.6056 15.5H28.3945C29.2328 15.5 30.0202 15.9103 30.5185 16.5961L30.5186 16.5963L30.7286 16.885ZM26.2143 21V20.5H25.7143H22.2857H21.7857V21V22.1246C20.7094 22.2309 19.6939 22.6782 18.9141 23.406C18.0132 24.2469 17.5 25.395 17.5 26.6C17.5 27.805 18.0132 28.9531 18.9141 29.794C19.8138 30.6337 21.0272 31.1 22.2857 31.1H25.6936L25.802 31.109C25.891 31.1278 25.9636 31.174 26.0104 31.2315C26.0593 31.2914 26.0781 31.3598 26.0719 31.4239C26.0656 31.4884 26.0331 31.5561 25.9693 31.6104C25.9047 31.6654 25.8143 31.7002 25.7152 31.7H25.7143H18.8571H18.3571V32.2V35.4V35.9H18.8571H21.7857V37V37.5H22.2857H25.7143H26.2143V37V35.8754C27.2906 35.7691 28.3061 35.3218 29.0859 34.594C29.9868 33.7531 30.5 32.605 30.5 31.4C30.5 30.195 29.9868 29.0469 29.0859 28.206C28.1862 27.3663 26.9728 26.9 25.7143 26.9H22.3064L22.198 26.891C22.109 26.8722 22.0364 26.826 21.9896 26.7685L21.6021 27.0845L21.9896 26.7685C21.9407 26.7086 21.9219 26.6402 21.9282 26.5761C21.9344 26.5116 21.9669 26.4439 22.0307 26.3896C22.0953 26.3346 22.1857 26.2998 22.2849 26.3H22.2857H29.1429H29.6429V25.8V22.6V22.1H29.1429H26.2143V21ZM19.5 13C19.5 12.7239 19.7239 12.5 20 12.5H28C28.2761 12.5 28.5 12.7239 28.5 13C28.5 13.2761 28.2761 13.5 28 13.5H20C19.7239 13.5 19.5 13.2761 19.5 13Z" stroke="#333333"/>
</svg>
