<svg width="48" height="48" viewBox="0 0 48 48" fill="none" xmlns="http://www.w3.org/2000/svg">
<path fill-rule="evenodd" clip-rule="evenodd" d="M28.7725 24.6668C28.2239 23.1145 26.7436 22 25.0004 22V21H23.0004V22C20.7912 22 19.0004 23.7909 19.0004 26C19.0004 28.2091 20.7912 30 23.0004 30V34C22.1311 34 21.3889 33.4449 21.1139 32.6668C20.9299 32.146 20.3585 31.8731 19.8378 32.0572C19.3171 32.2412 19.0442 32.8125 19.2282 33.3332C19.7769 34.8855 21.2572 36 23.0004 36V37H25.0004V36C27.2095 36 29.0004 34.2091 29.0004 32C29.0004 29.7909 27.2095 28 25.0004 28V24C25.8696 24 26.6118 24.5551 26.8868 25.3332C27.0709 25.854 27.6422 26.1269 28.1629 25.9428C28.6836 25.7588 28.9565 25.1875 28.7725 24.6668ZM23.0004 24C21.8958 24 21.0004 24.8954 21.0004 26C21.0004 27.1046 21.8958 28 23.0004 28V24ZM25.0004 34C26.1049 34 27.0004 33.1046 27.0004 32C27.0004 30.8954 26.1049 30 25.0004 30V34Z" fill="#333333"/>
<path fill-rule="evenodd" clip-rule="evenodd" d="M13.1534 8.62149C15.6077 7.41991 19.6328 6 24.0393 6C28.354 6 32.2735 7.36139 34.7147 8.54616C34.761 8.56864 34.8068 8.59106 34.852 8.6134C35.5883 8.97698 36.1817 9.32094 36.6003 9.6L32.9063 15C41.422 23.7055 48.0004 41.9971 24.0393 41.9971C0.0781689 41.9971 6.47888 24.0384 15.0685 15L11.4003 9.6C11.6822 9.41472 12.0419 9.20082 12.4695 8.97158C12.6812 8.85811 12.9096 8.74087 13.1534 8.62149ZM30.5324 14.928L33.4897 10.605C30.7403 10.8028 27.4672 11.4493 24.3172 12.3606C22.0677 13.0114 19.5683 12.912 17.2522 12.4846C16.6641 12.3761 16.0831 12.2456 15.5155 12.0987L17.4359 14.9257C21.5507 16.3907 26.4168 16.3914 30.5324 14.928ZM16.2813 16.6302C21.0968 18.4906 26.8837 18.4899 31.6986 16.6283C33.6024 18.6233 35.3946 21.1329 36.6869 23.7708C38.0384 26.5295 38.7742 29.2859 38.6541 31.6622C38.5382 33.9552 37.6363 35.9145 35.5768 37.3696C33.4291 38.8869 29.8189 39.9971 24.0393 39.9971C18.2545 39.9971 14.6262 38.9058 12.4597 37.4056C10.3844 35.9685 9.47347 34.0366 9.34411 31.7738C9.20975 29.4234 9.92916 26.6809 11.2763 23.9044C12.5612 21.2562 14.3549 18.7072 16.2813 16.6302ZM15.1318 9.91633C15.9316 10.1542 16.7672 10.3614 17.6151 10.5178C19.7648 10.9145 21.9218 10.9715 23.7614 10.4394C25.9071 9.81864 28.1518 9.30397 30.2907 8.96795C28.4506 8.4139 26.2998 8 24.0393 8C20.5945 8 17.3814 8.96102 15.1318 9.91633Z" fill="#333333"/>
</svg>
