<svg width="48" height="48" viewBox="0 0 48 48" fill="none" xmlns="http://www.w3.org/2000/svg">
<path d="M14.6958 9.56137C15.6204 9.8524 16.5999 10.1061 17.5967 10.29C19.7547 10.6882 21.9288 10.7474 23.7889 10.2093C26.1528 9.52542 28.6343 8.97129 30.9597 8.64301C28.9754 7.98975 26.5763 7.47383 24.039 7.47383C20.3769 7.47383 16.9771 8.54837 14.6958 9.56137Z" fill="#333333"/>
<path fill-rule="evenodd" clip-rule="evenodd" d="M28.7721 24.6668C28.2235 23.1145 26.7432 22 25 22V21H23V22C20.7909 22 19 23.7909 19 26C19 28.2091 20.7909 30 23 30V34C22.1307 34 21.3886 33.4449 21.1135 32.6668C20.9295 32.146 20.3582 31.8731 19.8375 32.0572C19.3167 32.2412 19.0438 32.8125 19.2279 33.3332C19.7765 34.8855 21.2568 36 23 36V37H25V36C27.2091 36 29 34.2091 29 32C29 29.7909 27.2091 28 25 28V24C25.8693 24 26.6114 24.5551 26.8865 25.3332C27.0705 25.854 27.6418 26.1269 28.1625 25.9428C28.6833 25.7588 28.9562 25.1875 28.7721 24.6668ZM23 24C21.8954 24 21 24.8954 21 26C21 27.1046 21.8954 28 23 28V24ZM25 34C26.1046 34 27 33.1046 27 32C27 30.8954 26.1046 30 25 30V34Z" fill="#333333"/>
<path fill-rule="evenodd" clip-rule="evenodd" d="M48 0H0V48H48V0ZM12.9722 8.3849C15.4067 7.16554 19.5225 5.67383 24.039 5.67383C28.4718 5.67383 32.4876 7.1108 34.9116 8.31689C34.9167 8.31942 34.9217 8.32195 34.9268 8.32448C34.9623 8.34219 34.9975 8.35985 35.0323 8.37745C35.6855 8.70753 36.2162 9.01796 36.6 9.27383L33.981 13.1024L32.5006 13.8705C27.4043 16.4419 20.57 16.4419 15.4737 13.8705L14.17 13.3514L11.4 9.27383C11.6567 9.10513 11.9778 8.91273 12.356 8.70661C12.5471 8.60244 12.7528 8.49478 12.9722 8.3849ZM33.3115 15.4775L33.5566 15.3539C41.913 24.2824 48.5 41.6709 24.039 41.6709C-0.422043 41.6709 6.00819 24.6012 14.4298 15.36L14.6628 15.4776C20.2692 18.3062 27.7052 18.3062 33.3115 15.4775Z" fill="#333333"/>
</svg>
