<svg width="48" height="48" viewBox="0 0 48 48" fill="none" xmlns="http://www.w3.org/2000/svg">
<path d="M14.25 4.00622C14.1117 4.00483 13.9746 4.05469 13.8676 4.16343C13.654 4.37495 13.6496 4.72143 13.8605 4.93876L19.4739 10.7845L19.4274 14.7863C19.4255 14.9324 19.4829 15.0712 19.581 15.1756L22.4396 18.1521L22.436 18.4882L22.4289 19.1098C19.6087 19.5806 13.7942 20.5642 10.5877 21.2C11.2159 22.1304 11.9358 22.9908 12.7351 23.7692C11.9358 22.9908 11.216 22.1303 10.5877 21.2C9.464 21.4226 8.65726 21.6039 8.41518 21.7042C7.23786 22.1923 7.29939 24.6178 9.86228 25.0165C11.7076 25.3034 13.6165 25.9166 15.3543 25.8418H15.3579C15.4192 25.8831 15.4794 25.9221 15.5401 25.9594L15.6259 25.8308C15.6282 25.8307 15.6307 25.831 15.633 25.8308L15.5401 25.9594L9.79443 34.3526C9.62435 34.6014 9.68475 34.9438 9.93021 35.1172C10.0222 35.1795 10.1259 35.216 10.2304 35.2175C10.4039 35.2198 10.5748 35.1373 10.6806 34.9818L16.4871 26.4991H16.4906L17.2338 25.4093C17.2546 25.4013 17.2772 25.3973 17.291 25.3814C17.8525 25.1056 18.5726 24.7314 19.3313 24.3273L19.3027 26.5748L19.2884 27.6433C19.2906 27.644 19.2933 27.6461 19.2955 27.6468L19.2348 32.1524L18.4523 33.9676L14.5469 43.0112C14.4272 43.289 14.5523 43.6121 14.8256 43.733C14.8947 43.7608 14.9659 43.7813 15.0364 43.7813C15.2466 43.784 15.4467 43.6612 15.5366 43.4528L18.7882 35.9205V35.9171L20.2675 32.4904C20.2951 32.4213 20.3106 32.3491 20.3175 32.2761L20.3711 27.9278H20.3675L20.414 24.1081C20.5129 23.93 20.6155 23.7502 20.7213 23.5757C21.3138 23.2543 21.8853 22.9431 22.3828 22.6682L22.3149 28.2423L22.2649 31.9369C22.2511 32.8421 22.9774 33.5906 23.8693 33.6021C24.7612 33.614 25.4981 32.885 25.5093 31.9798L25.5593 28.2351L25.6272 22.711C26.1458 23.0138 26.7473 23.3616 27.3674 23.7185C27.4365 23.832 27.496 23.9459 27.5603 24.0614L27.5139 27.9059L27.4603 32.3688C27.4594 32.4422 27.4719 32.5153 27.4996 32.5831L29.0682 36.4779C29.0676 36.4801 29.0688 36.4818 29.0682 36.486L31.9553 43.6606C32.0397 43.8713 32.2382 43.9976 32.4484 44.0004C32.519 44.0013 32.5908 43.9884 32.6592 43.9591C32.9358 43.8448 33.0685 43.5249 32.9558 43.2445L29.472 34.5829C29.4723 34.5807 29.4717 34.579 29.472 34.5749L28.543 32.2666L28.6002 27.611H28.5966L28.6145 26.3353L28.6359 24.4416C29.3843 24.8648 30.0931 25.259 30.6476 25.5492C30.6683 25.5573 30.684 25.5611 30.7048 25.577L31.2979 26.4918L31.3015 26.4881L37.0222 35.3103C37.1245 35.4678 37.2917 35.5551 37.4653 35.5571C37.569 35.5583 37.675 35.5293 37.769 35.4678C38.0179 35.3012 38.0865 34.9597 37.9226 34.7068L32.2983 26.0312C34.1037 26.2368 36.1368 25.6192 38.0867 25.3668C40.6587 25.0334 40.7808 22.6153 39.6159 22.0974C39.347 21.9779 38.3689 21.7358 37.029 21.4398L37.0254 21.4434C36.6542 21.9717 36.2538 22.476 35.8249 22.9548C36.253 22.4763 36.6549 21.9709 37.0254 21.4434C33.7683 20.7242 28.3529 19.6652 25.6664 19.1459L25.6808 18.4027V18.3992L25.6843 18.1813L28.6143 15.28C28.7166 15.1784 28.7766 15.0398 28.7787 14.8942L28.8287 10.8924L34.5849 5.19332C34.7985 4.98179 34.8036 4.63527 34.592 4.41787C34.3832 4.2008 34.0413 4.19681 33.8273 4.4098L27.9101 10.2662C27.8071 10.3678 27.7478 10.5062 27.7457 10.6519L27.6992 14.6537L25.6983 16.6296L25.7197 15.0611C25.7266 14.323 25.247 13.6971 24.587 13.4817L24.2762 9.5619C24.2208 8.90569 24.1267 8.90369 24.0582 9.55832L23.6473 13.4675C22.9821 13.6659 22.4881 14.2836 22.4789 15.0218L22.4575 16.5904L20.5065 14.5608L20.5566 10.559C20.5584 10.413 20.5011 10.2741 20.4029 10.1697L14.6304 4.16031C14.526 4.05197 14.3864 3.99719 14.2481 3.99561L14.25 4.00622Z" fill="#333333"/>
</svg>
