<?xml version="1.0" encoding="UTF-8" standalone="no"?>
<!-- Created with Inkscape (http://www.inkscape.org/) -->
<svg id="svg8" xmlns:rdf="http://www.w3.org/1999/02/22-rdf-syntax-ns#" xmlns="http://www.w3.org/2000/svg" xmlns:osb="http://www.openswatchbook.org/uri/2009/osb" height="48" width="48" version="1.1" xmlns:cc="http://creativecommons.org/ns#" viewBox="0 0 12.7 12.7" xmlns:dc="http://purl.org/dc/elements/1.1/">
 <title id="title4753">UIO-icon</title>
 <metadata id="metadata5">
  <rdf:RDF>
   <cc:Work rdf:about="">
    <dc:format>image/svg+xml</dc:format>
    <dc:type rdf:resource="http://purl.org/dc/dcmitype/StillImage"/>
    <dc:title>UIO-icon</dc:title>
    <dc:creator>
     <cc:Agent>
      <dc:title>Joaquín Urbano</dc:title>
     </cc:Agent>
    </dc:creator>
    <dc:rights>
     <cc:Agent>
      <dc:title>GPL</dc:title>
     </cc:Agent>
    </dc:rights>
   </cc:Work>
  </rdf:RDF>
 </metadata>
 <g id="layer1" transform="translate(0,-284.3)" fill="#333">
  <path id="path48057-4-5" d="m14.07 4.0859v0.0079c-0.138-0.0002-0.275 0.0504-0.381 0.1601-0.211 0.2134-0.212 0.56 0 0.7754l5.666 5.7947-0.011 4.002c-0.001 0.146 0.059 0.285 0.158 0.389l2.885 2.951v0.336l-0.002 0.621c-2.816 0.496-8.622 1.533-11.823 2.197-1.1211 0.233-1.9263 0.421-2.1675 0.524-1.1729 0.498-1.1572 2.48 1.1993 3.254 1.8192 0.497 4.0402 0.911 5.7772 0.82 0.093 0.013 0.199-0.01 0.272-0.014 0.002 0 0.005 0.001 0.007 0l-0.084 0.143-5.6773 8.432c-0.1679 0.25-0.1045 0.592 0.1423 0.763 0.093 0.062 0.197 0.097 0.301 0.098 0.174 0.001 0.343-0.084 0.447-0.24l5.731-8.534h0.004l0.732-1.097c0.021-0.008 0.043-0.012 0.057-0.028 0.559-0.28 1.276-0.661 2.031-1.072l-0.008 2.248-0.006 1.069c0.002 0 0.006 0.001 0.008 0.002l-0.019 4.507-0.768 1.821-3.822 9.08c-0.117 0.279 0.011 0.6 0.285 0.718 0.069 0.028 0.14 0.048 0.211 0.047 0.21 0.001 0.408-0.125 0.496-0.334l3.184-7.56v-0.004l1.449-3.44c0.027-0.069 0.042-0.141 0.049-0.214l0.013-4.35h-0.004l0.012-3.818c0.097-0.179 0.199-0.36 0.303-0.536 0.589-0.326 1.159-0.644 1.654-0.923l-0.017 5.574-0.018 3.695c-0.006 0.906 0.727 1.647 1.619 1.651 0.892 0.003 1.622-0.732 1.625-1.637l0.018-3.744 0.017-5.526c0.522 0.298 1.125 0.641 1.748 0.993 0.07 0.112 0.132 0.226 0.198 0.341l-0.012 3.844-0.014 4.465c0 0.073 0.013 0.145 0.041 0.213l1.604 3.881c-0.001 0.002 0 0.003 0 0.007l2.951 7.149c0.086 0.21 0.286 0.335 0.496 0.336 0.07 0 0.143-0.013 0.211-0.043 0.275-0.117 0.406-0.44 0.291-0.719l-3.563-8.629c0.001-0.002 0-0.003 0-0.008l-0.949-2.3 0.016-4.657h-0.004l0.006-1.275 0.004-1.893c0.752 0.417 1.464 0.803 2.021 1.088 0.021 0.008 0.038 0.012 0.059 0.028l0.601 0.91 0.002-0.004 5.801 8.771c0.104 0.157 0.272 0.242 0.445 0.243 0.104 0 0.21-0.03 0.303-0.092 0.247-0.169 0.313-0.513 0.147-0.764l-5.702-8.623c1.808 0.189 3.834-0.447 5.782-0.717 2.569-0.356 2.669-2.776 1.5-3.283-0.27-0.117-1.25-0.351-2.592-0.635l-0.004 0.004c-3.264-0.69-8.688-1.7-11.379-2.195l0.008-0.744v-0.002-0.219l2.904-2.928c0.102-0.102 0.16-0.241 0.16-0.386l0.016-4.002 5.705-5.7523c0.212-0.2135 0.214-0.56 0-0.7754-0.211-0.2152-0.554-0.2149-0.766 0l-5.863 5.9077c-0.102 0.103-0.161 0.243-0.162 0.389l-0.01 4.002-1.982 1.992 0.006-1.568c0-0.738-0.485-1.359-1.147-1.568l-0.346-3.9165c-0.061-0.6556-0.156-0.6571-0.218-0.0019l-0.375 3.9124c-0.664 0.204-1.152 0.826-1.155 1.564l-0.007 1.569-1.969-2.012 0.014-4.002c0-0.146-0.058-0.285-0.157-0.389l-5.824-5.953c-0.105-0.1074-0.246-0.1617-0.385-0.1621zm9.95 7.4761c0.026 0 0.046 0.021 0.046 0.047v2.313c0.296-0.003 1.029 0.278 1.059 1.244l-0.029 4.383 13.125 2.564c2.37 0.452 1.699 2.136 0.371 2.479-1.107 0.285-3.975 0.745-5.979 0.847-0.732 0.038-1.221-0.246-1.652-0.431l-5.875-3.033c0 3.538-0.02 6.567-0.02 10.105-0.088 1.523-2.236 1.143-2.216 0 0-3.549 0.033-6.715 0.033-10.264l-5.862 3.192c-0.742 0.389-1.544 0.399-2.154 0.402-1.972-0.13-3.777-0.368-5.1287-0.775-1.8064-0.544-2.1476-2.252-0.461-2.498l13.619-2.602 0.02-4.369c0.053-1.087 0.762-1.21 1.057-1.244v-2.313c0-0.026 0.021-0.047 0.047-0.047z" transform="matrix(.26458 0 0 .26458 0 284.3)"/>
 </g>
</svg>
