<svg width="48" height="48" viewBox="0 0 48 48" fill="none" xmlns="http://www.w3.org/2000/svg">
<path d="M16.8556 7.40796C14.9681 7.40817 13.438 8.90242 13.4376 10.7458C13.4369 12.59 14.9673 14.0855 16.8556 14.0857C18.7438 14.0855 20.2742 12.5901 20.2735 10.7458C20.2731 8.90242 18.743 7.40819 16.8556 7.40796ZM30.5099 7.40796C28.6224 7.40817 27.0923 8.90242 27.0919 10.7458C27.0912 12.59 28.6216 14.0855 30.5099 14.0857C32.3981 14.0855 33.9285 12.5901 33.9278 10.7458C33.9274 8.90242 32.3973 7.40819 30.5099 7.40796ZM20.3811 15.1639C18.8 18.0987 17.7034 15.9478 16.6623 18.7635C15.9063 16.2816 14.0513 17.746 12.8458 15.1756C12.5459 15.2251 12.2441 15.275 11.9434 15.3377C11.7018 15.337 11.0765 15.453 10.8731 15.6971L7.48637 20.2949V20.2988L5.86136 22.4999C5.33204 23.2733 5.69253 24.2285 5.83402 24.4726L10.078 30.6835C10.9959 31.337 11.9604 31.1591 12.5448 30.5644C11.6723 33.7715 12.025 37.5953 12.7733 41.3454H16.709L16.6914 35.4354L16.8515 35.4432L16.8496 41.3476H20.8907C23.0792 32.5099 20.2685 30.1285 21.3164 22.1329C21.4039 21.4396 21.7939 19.3311 22.541 19.7188L26.041 22.8438C26.8334 30.2668 24.2699 32.7836 26.3906 41.3476H30.4317L30.4298 35.4432L30.5899 35.4354L30.5723 41.3454H34.508C35.2563 37.5953 35.609 33.7713 34.7365 30.5644C35.3209 31.1592 36.2854 31.3372 37.2033 30.6835L41.4473 24.4726C41.5887 24.2284 41.9493 23.2733 41.4199 22.4999L39.7949 20.2988V20.2949L36.4082 15.6971C36.2048 15.453 35.5795 15.337 35.3379 15.3377C35.0372 15.275 34.7355 15.2254 34.4355 15.1756C30.5944 19.4759 27.8735 16.8852 26.9003 15.1639C26.4794 15.2195 26.0567 15.2639 25.6366 15.3338C24.9253 15.3376 24.5924 15.4899 24.0311 15.7713L23.3944 15.9217C22.8702 15.4414 22.1111 15.4239 21.6444 15.3338C21.2243 15.2639 20.8016 15.2195 20.3807 15.1639H20.3811ZM11.9085 20.5115C13.068 24.1697 13.1905 26.5769 12.9613 28.4568C12.9166 28.3268 12.8614 28.1945 12.7914 28.0624L9.71293 23.5647L11.9085 20.5115ZM35.3733 20.5115L37.5686 23.5584L34.4905 28.0625C34.4205 28.1944 34.3653 28.3268 34.3206 28.4571C34.0913 26.5773 34.2139 24.1699 35.3734 20.5117L35.3733 20.5115Z" fill="#333333"/>
</svg>
