<?xml version="1.0" encoding="UTF-8" standalone="no"?>
<!-- Created with Inkscape (http://www.inkscape.org/) -->
<svg id="svg8" xmlns:rdf="http://www.w3.org/1999/02/22-rdf-syntax-ns#" xmlns="http://www.w3.org/2000/svg" xmlns:osb="http://www.openswatchbook.org/uri/2009/osb" height="48" width="48" version="1.1" xmlns:cc="http://creativecommons.org/ns#" viewBox="0 0 12.7 12.7" xmlns:dc="http://purl.org/dc/elements/1.1/">
 <title id="title4753">UIO-icon</title>
 <metadata id="metadata5">
  <rdf:RDF>
   <cc:Work rdf:about="">
    <dc:format>image/svg+xml</dc:format>
    <dc:type rdf:resource="http://purl.org/dc/dcmitype/StillImage"/>
    <dc:title>UIO-icon</dc:title>
    <dc:creator>
     <cc:Agent>
      <dc:title>Joaquín Urbano</dc:title>
     </cc:Agent>
    </dc:creator>
    <dc:rights>
     <cc:Agent>
      <dc:title>GPL</dc:title>
     </cc:Agent>
    </dc:rights>
   </cc:Work>
  </rdf:RDF>
 </metadata>
 <g id="layer1" transform="translate(0,-284.3)" fill="#333">
  <path id="path2305" d="m4.4597 286.26a0.90444 0.88335 0 0 0 -0.90434 0.88315 0.90444 0.88335 0 0 0 0.90434 0.88367 0.90444 0.88335 0 0 0 0.90434 -0.88367 0.90444 0.88335 0 0 0 -0.90434 -0.88315zm3.6127 0a0.90444 0.88335 0 0 0 -0.90434 0.88315 0.90444 0.88335 0 0 0 0.90434 0.88367 0.90444 0.88335 0 0 0 0.90434 -0.88367 0.90444 0.88335 0 0 0 -0.90434 -0.88315zm-3.6122 0.11472a0.76909 0.76909 0 0 1 0.76895 0.76895 0.76909 0.76909 0 0 1 -0.76895 0.76895 0.76909 0.76909 0 0 1 -0.76998 -0.76895 0.76909 0.76909 0 0 1 0.76998 -0.76895zm3.6127 0a0.76909 0.76909 0 0 1 0.76895 0.76895 0.76909 0.76909 0 0 1 -0.76895 0.76895 0.76909 0.76909 0 0 1 -0.76998 -0.76895 0.76909 0.76909 0 0 1 0.76998 -0.76895zm-2.6805 1.9373c-0.41833 0.77649-0.70848 0.2074-0.98392 0.9524-0.20003-0.65666-0.69085-0.2692-1.0098-0.9493-0.079352 0.0131-0.15918 0.026291-0.23875 0.042891-0.063915-0.0002-0.22936 0.030485-0.28319 0.095085l-0.89607 1.2165v0.00103l-0.42995 0.58239c-0.14005 0.20464-0.044669 0.45734-0.0072347 0.52193l1.1229 1.6433c0.24286 0.1729 0.49804 0.12582 0.65267-0.031523-0.23086 0.84856-0.13753 1.8603 0.060461 2.8525h1.0413l-0.0046509-1.5637 0.042375 0.00207-0.00051676 1.5622h1.0692c0.57905-2.3383-0.16462-2.9684 0.11265-5.0839 0.023134-0.18344 0.12632-0.74129 0.32401-0.63872l0.92604 0.82682c0.20964 1.964-0.46862 2.6299 0.092501 4.8958h1.0692l-0.00051676-1.5622 0.042375-0.00207-0.0046509 1.5637h1.0413c0.198-0.9922 0.29132-2.004 0.060461-2.8525 0.15464 0.15739 0.40981 0.20447 0.65267 0.031523l1.1229-1.6433c0.03742-0.0646 0.13282-0.31729-0.007235-0.52193l-0.42995-0.58239v-0.00103l-0.89607-1.2165c-0.053827-0.0646-0.21927-0.095285-0.28319-0.095085-0.079564-0.0166-0.15939-0.029691-0.23875-0.042891-1.0163 1.1378-1.7362 0.45233-1.9937-0.0031-0.11137 0.0147-0.2232 0.026459-0.33435 0.044959-0.18821 0.001-0.27627 0.041295-0.42478 0.11576l-0.16847 0.039791c-0.1387-0.12709-0.33954-0.13171-0.46302-0.15555-0.11115-0.0185-0.22298-0.030259-0.33435-0.04496zm0.073897 0.14521c0.19387 0.028822 0.44851 0.029381 0.57361 0.11265 0.073735 0.06544 0.15689 0.10011 0.26355 0.055811 0.07666-0.016737 0.14728-0.036024 0.19069-0.067696 0.08945-0.038474 0.1665-0.066039 0.30903-0.066663l0.2403-0.032556c0.22974 0.32546 0.52109 0.58481 1.0294 0.61237 0.27168-0.014242 0.59956-0.14436 1.0883-0.60823 0.12132 0.023995 0.32931 0.041089 0.3638 0.07183l0.84388 1.1457 0.44132 0.59635c0.1136 0.12107 0.092497 0.26941 0.042375 0.42323l-0.56947 0.83302-0.50385 0.73846c-0.10922 0.15149-0.35096 0.12809-0.43563 0.06873-0.12658-0.092438-0.25447-0.33714-0.058394-0.60823l0.76688-1.1219c0.035694-0.058377 0.037833-0.11181-0.003617-0.15916l-0.5292-0.74c-0.1663-0.24-0.2502-0.21-0.2956-0.07l-0.15865 0.632c-0.053825 0.25829-0.12245 0.50804-0.12971 0.7922-0.0071474 0.15018-0.017797 0.26144 0.0015503 0.69246 0.020789 0.22093 0.081335 0.44208 0.12247 0.66301 0.038767 0.12912 0.06221 0.30434 0.090951 0.46354 0.042703 0.28826 0.024811 0.53586 0.03669 0.80357-0.009285 0.26432-0.036747 0.47505-0.055811 0.71003-0.027499 0.21825-0.058948 0.44303-0.11369 0.70487l-0.79117-0.00103 0.0036173-1.4278c-0.0052604-0.12007-0.072786-0.14025-0.1602-0.13849-0.058436 0.00277-0.15218 0.012821-0.154 0.14004l-0.00051676 1.4273h-0.8257c-0.074958-0.31053-0.11567-0.67244-0.17105-1.0123-0.016532-0.35273-0.05344-0.64451 0.0036173-1.218l0.094051-0.85369c0.040075-0.31639 0.066369-0.62308 0.052193-0.90072-0.0023749-0.29789-0.017378-0.44901-0.034106-0.70383 0.0021054-0.118-0.054405-0.17377-0.11834-0.22944l-0.8692-0.77256c-0.21196-0.18745-0.37907 0.12129-0.40101 0.18138-0.061011 0.15752-0.079761 0.2641-0.11627 0.39222-0.03392 0.16689-0.061853 0.46134-0.084749 0.87075-0.014881 0.25491-0.0021556 0.59315 0.032556 0.99684l0.10025 0.91571c0.020991 0.29898 0.046056 0.60381 0.040308 0.86041-0.0067448 0.25264-0.026705 0.4344-0.043925 0.62942-0.044678 0.3465-0.10777 0.59259-0.15245 0.84439l-0.82734-0.00155 0.0010335-1.4237c-0.0097396-0.1246-0.086014-0.13883-0.15813-0.14056-0.072471 0.00355-0.14906 0.03534-0.15606 0.13849l0.0036173 1.4258-0.79168 0.0005167-0.080615-0.45734-0.082682-0.81649c-0.015004-0.43688-0.023338-0.92049 0.10077-1.3265l0.14418-0.74362c0.039159-0.82819-0.091078-1.4867-0.29352-2.0733-0.054528-0.29088-0.14628-0.18076-0.24081-0.037724l-0.53175 0.73639c-0.059344 0.074788-0.10486 0.14962-0.050643 0.22428l0.49454 0.72295 0.32039 0.46922c0.07702 0.20272 0.057216 0.32331-0.041341 0.48214-0.083304 0.12209-0.38683 0.16893-0.50023-0.011886l-0.351-0.51-0.3033-0.45-0.3726-0.54c-0.1453-0.21-0.1017-0.36-0.0005-0.49l0.43718-0.59325 0.47542-0.64751 0.35657-0.48266c0.020455-0.03486 0.2338-0.064932 0.34985-0.088367 0.14856 0.23502 0.34432 0.4 0.60306 0.46974 0.23931 0.085055 0.3124 0.22524 0.35553 0.37569l0.13694 0.29559 0.14831-0.37c0.049376-0.17021 0.22351-0.29263 0.50436-0.37465 0.29362-0.16225 0.3158-0.27832 0.39584-0.40411zm-2.3156 1.2697c0.30678 0.96789 0.3392 1.6048 0.27854 2.1022-0.011822-0.0344-0.026432-0.069426-0.044958-0.10439l-0.8144-1.2zm6.2084 0 0.58084 0.80615-0.81442 1.1917c-0.018535 0.0349-0.033132 0.069926-0.044958 0.10439-0.06066-0.49735-0.028241-1.1343 0.27854-2.1022z"/>
 </g>
</svg>
