<?xml version="1.0" encoding="UTF-8" standalone="no"?>
<!-- Created with Inkscape (http://www.inkscape.org/) -->
<svg id="svg8" xmlns:rdf="http://www.w3.org/1999/02/22-rdf-syntax-ns#" xmlns="http://www.w3.org/2000/svg" xmlns:osb="http://www.openswatchbook.org/uri/2009/osb" height="48" width="48" version="1.1" xmlns:cc="http://creativecommons.org/ns#" viewBox="0 0 12.7 12.7" xmlns:dc="http://purl.org/dc/elements/1.1/">
 <title id="title4753">UIO-icon</title>
 <metadata id="metadata5">
  <rdf:RDF>
   <cc:Work rdf:about="">
    <dc:format>image/svg+xml</dc:format>
    <dc:type rdf:resource="http://purl.org/dc/dcmitype/StillImage"/>
    <dc:title>UIO-icon</dc:title>
    <dc:creator>
     <cc:Agent>
      <dc:title>Joaquín Urbano</dc:title>
     </cc:Agent>
    </dc:creator>
    <dc:rights>
     <cc:Agent>
      <dc:title>GPL</dc:title>
     </cc:Agent>
    </dc:rights>
   </cc:Work>
  </rdf:RDF>
 </metadata>
 <g id="layer1" fill="#333" transform="translate(0,-284.3)">
  <path id="rect3306" d="m0 0v48h48v-48h-48zm16.855 7.4023c1.888 0.0003 3.418 1.4945 3.418 3.3377 0.001 1.844-1.529 3.34-3.418 3.34-1.888 0-3.418-1.496-3.417-3.34 0-1.8432 1.53-3.3374 3.417-3.3377zm13.655 0c1.887 0.0003 3.417 1.4945 3.418 3.3377 0 1.844-1.53 3.34-3.418 3.34s-3.419-1.496-3.418-3.34c0-1.8432 1.53-3.3374 3.418-3.3377zm-10.129 7.7557c0.421 0.056 0.843 0.1 1.264 0.17 0.466 0.09 1.225 0.108 1.75 0.588l0.636-0.15c0.562-0.282 0.894-0.434 1.606-0.438 0.42-0.07 0.842-0.114 1.263-0.17 0.973 1.722 3.694 4.312 7.536 0.012 0.299 0.05 0.601 0.099 0.902 0.162 0.241-0.001 0.867 0.115 1.07 0.359l3.387 4.598v0.004l1.625 2.201c0.529 0.774 0.169 1.729 0.027 1.973l-4.244 6.211c-0.918 0.653-1.882 0.475-2.467-0.119 0.873 3.207 0.52 7.031-0.228 10.781h-3.936l0.018-5.91-0.16 0.008 0.002 5.904h-4.041c-2.121-8.564 0.442-11.081-0.35-18.504l-3.5-3.125c-0.747-0.388-1.137 1.721-1.225 2.414-1.048 7.996 1.763 10.377-0.425 19.215h-4.041l0.002-5.904-0.161-0.008 0.018 5.91h-3.936c-0.748-3.75-1.101-7.574-0.228-10.781-0.585 0.594-1.549 0.772-2.467 0.119l-4.244-6.211c-0.1415-0.244-0.502-1.199 0.0273-1.973l1.625-2.201v-0.004l3.3867-4.598c0.203-0.244 0.829-0.36 1.07-0.359 0.301-0.063 0.603-0.113 0.903-0.162 1.205 2.57 3.06 1.106 3.816 3.588 1.041-2.816 2.138-0.665 3.719-3.6zm-8.473 5.348l-2.1951 3.047 3.0781 4.504c0.07 0.132 0.125 0.264 0.17 0.394 0.229-1.88 0.107-4.287-1.053-7.945zm23.465 0c-1.159 3.658-1.282 6.065-1.053 7.945 0.045-0.13 0.1-0.262 0.17-0.394l3.078-4.504-2.195-3.047z" fill-rule="evenodd" fill-opacity=".99760" transform="matrix(.26458 0 0 .26458 0 284.3)"/>
 </g>
</svg>
