<svg width="48" height="48" viewBox="0 0 48 48" fill="none" xmlns="http://www.w3.org/2000/svg">
<path fill-rule="evenodd" clip-rule="evenodd" d="M0 0H48V48H0V0ZM24 15H22H18.9884C16.8649 15 15.0941 15.7409 13.8493 17.0002C12.6259 18.2378 12.0158 19.871 12.0003 21.4808C11.9848 23.092 12.5652 24.742 13.796 25.9951C15.0466 27.2686 16.8367 28 18.9884 28H20.9913C22.0959 28 22.9913 27.1046 22.9913 26C22.9913 24.8954 22.0959 24 20.9913 24H18.9884C17.7714 24 17.0565 23.6064 16.6498 23.1924C16.2233 22.758 15.994 22.158 16.0001 21.5192C16.0063 20.879 16.2492 20.2622 16.694 19.8123C16.9805 19.5224 17.3997 19.2527 18 19.1088V22H21C23.2091 22 25 23.7909 25 26C25 28.2091 23.2091 30 21 30H18V32V42C18 43.0722 18.8456 43.9537 19.9169 43.9983C20.9882 44.0428 21.904 43.2346 21.9931 42.1661L22.8403 32H25.1597L26.0069 42.1661C26.096 43.2346 27.0118 44.0428 28.0831 43.9983C29.1544 43.9537 30 43.0722 30 42V32V30V19H34C34.8089 19 35.5382 18.5127 35.8478 17.7654C36.1573 17.018 35.9862 16.1578 35.4142 15.5858L29.4142 9.58579C28.6332 8.80474 27.3668 8.80474 26.5858 9.58579C25.8047 10.3668 25.8047 11.6332 26.5858 12.4142L29.1716 15H24ZM25.1716 8.17157C26.0154 7.32777 27.1424 6.93977 28.2466 7.00756C27.631 5.25582 25.9622 4 24 4C21.5147 4 19.5 6.01472 19.5 8.5C19.5 10.9853 21.5147 13 24 13C24.1751 13 24.348 12.99 24.5179 12.9705C23.6533 11.4448 23.8712 9.47191 25.1716 8.17157Z" fill="#333333"/>
</svg>
