<svg width="48" height="48" viewBox="0 0 48 48" fill="none" xmlns="http://www.w3.org/2000/svg">
<g clip-path="url(#clip0)">
<path fill-rule="evenodd" clip-rule="evenodd" d="M0.0878906 0.09375V48.0938H48.0879V0.09375H0.0878906ZM25.6348 4.11914C28.1133 4.11642 30.1214 6.07188 30.1191 8.48438C30.1186 9.73789 29.5717 10.8619 28.7012 11.6562L28.332 11.0254C28.0616 10.5634 27.641 10.2002 27.1406 10.0684C27.0263 10.0545 27.0389 10.0649 26.9434 10.0449C26.5633 9.98323 26.135 10.054 25.7734 10.2207L25.5957 10.3027C25.3766 10.4038 25.1928 10.5418 25.0449 10.7031C24.9834 10.768 24.9109 10.8275 24.8887 10.9121C24.8425 11.0189 24.5571 11.4946 24.9531 12.7695C22.8061 12.4471 21.1533 10.6643 21.1523 8.48438C21.1501 6.07407 23.1584 4.11951 25.6348 4.11914ZM26.7656 10.1602C27.3271 10.1974 27.8604 10.5044 28.166 11.0293L33.5391 20.2578C34.028 21.0977 33.7442 22.1673 32.9043 22.6562C32.0644 23.1452 30.9948 22.8633 30.5059 22.0234L25.1348 12.7949C24.506 11.4211 25.0449 10.7031 25.7676 10.3965C26.0825 10.2131 26.4288 10.1378 26.7656 10.1602ZM30.0488 13.957C30.5948 13.9542 31.1177 13.9694 31.3379 14.0938C33.5098 15.3221 33.8202 19.849 33.7734 20.3184L30.0488 13.957ZM25.1973 13.9805C25.5623 13.9887 25.5513 13.985 25.6641 13.9844L30.0918 21.5488L30.0586 42.0879C30.0569 43.1832 29.1773 44.0664 28.082 44.0664C26.9866 44.0664 26.1055 43.1832 26.1055 42.0879V30.4609H25.1504V42.0879C25.1504 43.1832 24.2691 44.0664 23.1738 44.0664C22.0785 44.0664 21.1992 43.1832 21.1992 42.0879V20.5391L18.1562 26.7754C17.6758 27.7597 16.498 28.1659 15.5137 27.6855C14.5293 27.2051 14.1212 26.0253 14.6016 25.041L19.457 15.0977C19.7949 14.4052 20.4807 14.0092 21.1992 13.9941V13.9844L25.1973 13.9805Z" fill="#333333"/>
</g>
<defs>
<clipPath id="clip0">
<rect width="48" height="48" fill="white"/>
</clipPath>
</defs>
</svg>
