<svg width="48" height="48" viewBox="0 0 48 48" fill="none" xmlns="http://www.w3.org/2000/svg">
<path fill-rule="evenodd" clip-rule="evenodd" d="M25.629 4.34998C23.1526 4.35034 21.1443 6.3049 21.1465 8.71521C21.1474 10.8951 22.8003 12.678 24.9473 13.0004C24.5513 11.7255 24.8367 11.2497 24.8829 11.1429C24.9051 11.0584 24.9775 10.9989 25.0391 10.934C25.187 10.7727 25.3708 10.6346 25.5899 10.5336L25.7676 10.4515C26.1292 10.2848 26.558 10.2135 26.9381 10.2752C27.0336 10.2953 27.021 10.2853 27.1353 10.2991C27.6357 10.431 28.0558 10.7943 28.3262 11.2562L28.6954 11.8871C29.5659 11.0927 30.1128 9.96873 30.1133 8.71521C30.1156 6.30272 28.1075 4.34725 25.629 4.34998L25.629 4.34998ZM26.7598 10.391C26.4229 10.3687 26.0767 10.444 25.7618 10.6273C25.0391 10.934 24.5002 11.652 25.129 13.0258L30.5 22.2543C30.989 23.0942 32.0586 23.376 32.8985 22.8871C33.7384 22.3981 34.0222 21.3285 33.5332 20.4887L28.1602 11.2601C27.8546 10.7352 27.3213 10.4282 26.7598 10.391ZM30.043 14.1879L33.7676 20.5492C33.8143 20.0798 33.504 15.5529 31.3321 14.3246C31.1118 14.2003 30.589 14.185 30.043 14.1879ZM25.1915 14.2113L21.1934 14.2152V14.225C20.4749 14.2401 19.7891 14.636 19.4512 15.3285L14.5957 25.2719C14.1153 26.2562 14.5235 27.436 15.5079 27.9164C16.4922 28.3968 17.67 27.9906 18.1504 27.0063L21.1934 20.7699V42.3188C21.1934 43.4141 22.0727 44.2973 23.168 44.2973C24.2633 44.2973 25.1446 43.4141 25.1446 42.3188V30.6918H26.0997V42.3187C26.0997 43.414 26.9808 44.2972 28.0762 44.2972C29.1715 44.2972 30.051 43.414 30.0528 42.3187L30.086 21.7797L25.6582 14.2152C25.5454 14.2158 25.5565 14.2195 25.1914 14.2113L25.1915 14.2113Z" fill="#333333"/>
</svg>
