<svg width="49" height="48" viewBox="0 0 49 48" fill="none" xmlns="http://www.w3.org/2000/svg">
<path d="M34.3943 4.72754L33.9295 5.22753C36.7373 7.8306 38.3357 11.4845 38.3415 15.3134C38.3375 19.1424 36.7403 22.7969 33.9334 25.4013L34.3923 25.8935C37.3375 23.1626 39.0143 19.3299 39.0212 15.3136C39.0162 11.2954 37.3402 7.4604 34.3942 4.72773L34.3943 4.72754ZM14.1776 5.24511C11.5608 7.94348 10.0975 11.5545 10.0975 15.313C10.1035 19.069 11.5699 22.6756 14.1873 25.3699L14.6658 24.907C12.1722 22.3359 10.7774 18.8951 10.7771 15.3133C10.7821 11.7329 12.1802 8.29498 14.6755 5.72752L14.1776 5.24511ZM32.8063 6.4365L32.3259 6.95602C34.6524 9.11309 35.9769 12.1407 35.982 15.3133C35.978 18.4864 34.654 21.5147 32.3278 23.6726L32.8024 24.1843C35.2724 21.895 36.679 18.6812 36.6851 15.3133C36.6821 11.944 35.2764 8.72802 32.8063 6.43645L32.8063 6.4365ZM15.8535 6.87008C13.6595 9.13305 12.4329 12.1614 12.4337 15.3134C12.4387 18.4626 13.6686 21.4864 15.8633 23.7449L16.3594 23.2644C14.2929 21.1335 13.1371 18.2818 13.1368 15.3133C13.1408 12.3458 14.2992 9.49628 16.3672 7.36811L15.8535 6.87008ZM31.2343 8.12987L30.7226 8.68064C32.5688 10.3927 33.6195 12.7956 33.623 15.3134C33.62 17.8308 32.57 20.2337 30.7246 21.9461L31.2324 22.4929C33.2309 20.6398 34.3687 18.0388 34.373 15.3133C34.37 12.5868 33.2331 9.9843 31.2343 8.12983L31.2343 8.12987ZM17.5155 8.47947C15.7395 10.3102 14.7461 12.7607 14.746 15.3114C14.75 17.8603 15.7451 20.3075 17.5214 22.1355L18.0546 21.6199C16.4143 19.9294 15.4967 17.6668 15.496 15.3114C15.499 12.9565 16.419 10.6953 18.0604 9.00673L17.5155 8.47947ZM29.6264 9.86035L29.1283 10.3935C30.4978 11.6627 31.2775 13.4443 31.2806 15.3115C31.2786 17.179 30.4995 18.9614 29.1302 20.2313L29.6244 20.7626C31.1418 19.3556 32.0058 17.3808 32.0091 15.3114C32.0061 13.2424 31.1431 11.2676 29.6264 9.8603L29.6264 9.86035ZM19.2105 10.126C17.8623 11.5163 17.1086 13.3768 17.1089 15.3134C17.1119 17.2488 17.8675 19.1072 19.2163 20.4949L19.7378 19.9891C18.5216 18.7363 17.8408 17.0593 17.8394 15.3133C17.8424 13.5675 18.5246 11.8913 19.7417 10.6396L19.2105 10.126ZM28.0034 11.6065L27.5444 12.1006C28.4385 12.93 28.9473 14.094 28.9487 15.3134C28.9467 16.5323 28.438 17.6954 27.5444 18.5243L28.0014 19.0165C29.0324 18.0607 29.6197 16.7193 29.6225 15.3134C29.6215 13.9065 29.0347 12.5635 28.0034 11.6065L28.0034 11.6065ZM20.9234 11.7881C20.0074 12.733 19.4953 13.9975 19.4957 15.3134C19.4977 16.6289 20.0121 17.8919 20.9293 18.8349L21.4097 18.3681C20.6151 17.5497 20.1702 16.4541 20.1696 15.3134C20.1706 14.1725 20.6164 13.0769 21.4117 12.2588L20.9234 11.7881ZM24.56 12.6143C23.0692 12.6141 21.8607 13.8226 21.8609 15.3134C21.8629 16.6746 22.8791 17.8209 24.2299 17.9872V31.262H10.9121C10.3857 31.262 9.96094 31.6848 9.96094 32.2112V42.4531C9.96094 42.9795 10.3857 43.4043 10.9121 43.4043H38.0018C38.5281 43.4043 38.9529 42.9795 38.9529 42.4531V32.2102C38.9529 31.6838 38.5281 31.261 38.0018 31.261H24.9429V17.9772C26.2693 17.7863 27.2547 16.6512 27.2574 15.3112C27.2576 13.8212 26.0502 12.6128 24.5601 12.612L24.56 12.6143ZM24.56 13.3252C25.6574 13.3261 26.5465 14.216 26.5463 15.3135C26.5454 16.41 25.6566 17.2988 24.56 17.2997C23.4626 17.2999 22.5727 16.4108 22.5718 15.3135C22.5716 14.2153 23.4618 13.325 24.56 13.3252ZM12.6322 31.79H36.2819C36.8186 31.79 37.7563 31.7424 38.0885 32.0126C38.4341 32.2938 38.4224 33.2824 38.4224 33.9325V40.7312C38.4224 41.3699 38.4698 42.3002 38.0299 42.6921C37.6521 43.0285 36.8301 42.8737 36.2819 42.8737H12.6322C11.0067 42.8737 10.8945 42.9463 10.6048 42.2448C10.4745 41.9292 10.4896 41.5028 10.4896 40.7311V33.9324C10.4896 31.6301 10.7977 31.7898 12.6322 31.7898L12.6322 31.79ZM28.376 32.2528C27.5498 32.2528 26.8293 32.4399 26.2119 32.8173C25.599 33.1903 25.1265 33.7336 24.7978 34.4443C24.4736 35.1505 24.3115 35.9876 24.3115 36.9559V37.6161C24.3205 38.5577 24.4969 39.3758 24.8388 40.073C25.1853 40.7704 25.673 41.304 26.3036 41.6726C26.9388 42.037 27.677 42.2195 28.5165 42.2195C29.316 42.2195 30.0447 42.1014 30.7021 41.866C31.3594 41.626 31.8677 41.291 32.2275 40.8601V36.989H28.4091V38.4617H30.2294V40.1336C29.9096 40.4533 29.3726 40.6141 28.622 40.6141C27.8758 40.6141 27.3112 40.3525 26.9247 39.8328C26.5383 39.3132 26.3447 38.5453 26.3447 37.5282V36.909C26.3497 35.9007 26.5284 35.1406 26.8837 34.6298C27.2391 34.119 27.7569 33.8641 28.4364 33.8641C28.9694 33.8641 29.3863 33.9934 29.6884 34.2509C29.9949 34.5086 30.1933 34.9144 30.2821 35.4696H32.2274C32.1075 34.4215 31.7235 33.6234 31.075 33.0771C30.4265 32.5263 29.5262 32.2529 28.3758 32.2529L28.376 32.2528ZM17.6011 32.4677L17.0445 37.368L18.5679 37.745C19.8415 36.7388 21.4849 37.2604 21.3823 39.0301C21.4427 41.0589 18.8339 41.0979 18.6929 39.4266H16.7984C16.8302 40.0009 16.8465 40.5769 17.4605 41.1512C18.6262 42.5405 21.152 42.6112 22.3901 41.4031C23.0535 40.78 23.2305 40.0155 23.312 39.3759C23.4127 37.5687 22.7435 36.5577 21.8081 36.0634C20.7134 35.5838 19.573 35.7544 18.9311 36.1376L19.1694 34.0654L23.0034 34.0634V32.4677H17.6011Z" fill="#333333"/>
</svg>
