<svg width="48" height="48" viewBox="0 0 48 48" fill="none" xmlns="http://www.w3.org/2000/svg">
<path d="M33.8947 4.72437L33.4299 5.22437C36.2378 7.82745 37.836 11.4814 37.8421 15.3105C37.8379 19.1395 36.2409 22.7939 33.434 25.3984L33.893 25.8906C36.8382 23.1596 38.515 19.3271 38.5218 15.3106C38.5169 11.2922 36.8408 7.45746 33.8949 4.72448L33.8947 4.72437ZM13.678 5.24202C11.0613 7.94041 9.59802 11.5515 9.59802 15.3102C9.60362 19.0664 11.0704 22.6727 13.6878 25.3668L14.1664 24.9039C11.6727 22.3328 10.278 18.8918 10.2776 15.3103C10.2826 11.7299 11.6807 8.29219 14.1762 5.72438L13.678 5.24202ZM32.3069 6.43339L31.8265 6.95289C34.153 9.11001 35.4776 12.1377 35.4827 15.3102C35.4786 18.4833 34.1547 21.5116 31.8284 23.6698L32.303 24.1814C34.7732 21.892 36.1797 18.6785 36.1857 15.3106C36.1823 11.9412 34.777 8.72503 32.3068 6.4335L32.3069 6.43339ZM15.3539 6.86696C13.1598 9.12991 11.9332 12.1583 11.934 15.3105C11.9388 18.4597 13.1688 21.4835 15.3637 23.7422L15.8598 23.2618C13.7931 21.1308 12.6373 18.2788 12.6371 15.3103C12.6409 12.3428 13.7995 9.49325 15.8676 7.36501L15.3539 6.86696ZM30.7346 8.12672L30.2229 8.67747C32.0691 10.3895 33.1199 12.7927 33.1234 15.3102C33.1204 17.8278 32.0704 20.2308 30.2249 21.943L30.7327 22.4898C32.7313 20.6366 33.869 18.0356 33.8734 15.3102C33.8706 12.5836 32.7335 9.9811 30.7347 8.12648L30.7346 8.12672ZM17.0157 8.47828C15.2397 10.3091 14.2463 12.7597 14.2462 15.3101C14.2499 17.859 15.2453 20.3063 17.0216 22.1344L17.5548 21.6189C15.9145 19.9284 14.9968 17.6658 14.9962 15.31C14.9994 12.9551 15.9192 10.6937 17.5607 9.00539L17.0157 8.47828ZM29.1272 9.85709L28.6292 10.3923C29.9986 11.6614 30.7784 13.4431 30.7815 15.3102C30.7789 17.1771 29.9998 18.9587 28.6311 20.2282L29.1252 20.7594C30.6423 19.3529 31.5062 17.3789 31.51 15.3101C31.5077 13.2403 30.6445 11.2648 29.1272 9.85697V9.85709ZM18.7112 10.1228C17.3631 11.5131 16.6093 13.3737 16.6096 15.3102C16.6124 17.2456 17.3682 19.1041 18.7171 20.492L19.2386 19.9861C18.0224 18.7333 17.3415 17.0564 17.3402 15.3105C17.3431 13.5645 18.0254 11.8883 19.2425 10.6367L18.7112 10.1228ZM27.5043 11.6032L27.0453 12.0975C27.9394 12.9269 28.4482 14.0908 28.4496 15.3103C28.4476 16.5292 27.9389 17.6923 27.0453 18.5212L27.5023 19.0134C28.5334 18.0576 29.1206 16.7163 29.1234 15.3103C29.1222 13.9034 28.5356 12.5603 27.5043 11.6032ZM20.4241 11.7851C19.5081 12.7301 18.996 13.9944 18.9964 15.3105C18.9986 16.626 19.5128 17.8889 20.43 18.832L20.9104 18.3652C20.1158 17.5468 19.671 16.4512 19.6702 15.3105C19.6715 14.1695 20.1171 13.0739 20.9124 12.2559L20.4241 11.7851ZM24.0608 12.6112C22.57 12.611 21.3615 13.8197 21.3616 15.3105C21.364 16.6717 22.3797 17.818 23.7308 17.9843V31.2595H10.4121C9.88568 31.2595 9.46094 31.6823 9.46094 32.2088V42.4509C9.46094 42.9773 9.88572 43.402 10.4121 43.402H37.5019C38.0282 43.402 38.453 42.9773 38.453 42.4509V32.2088C38.453 31.6823 38.0282 31.2595 37.5019 31.2595H24.4436V17.9764C25.7699 17.7855 26.7554 16.6504 26.7581 15.3103C26.7582 13.8203 25.5508 12.612 24.0608 12.6111V12.6112ZM24.0608 13.3222C25.1583 13.3231 26.0474 14.213 26.0472 15.3105C26.0463 16.4071 25.1575 17.296 24.0608 17.2969C22.9634 17.2971 22.0734 16.4079 22.0725 15.3105C22.0724 14.2123 22.9627 13.322 24.0608 13.3222ZM28.0902 32.3945C29.2335 32.3945 30.1273 32.6693 30.7718 33.2167C31.4163 33.7597 31.7992 34.5519 31.9183 35.5937H29.9843C29.896 35.0419 29.6991 34.6368 29.3945 34.3808C29.0943 34.1249 28.6801 33.9979 28.1504 33.9979C27.475 33.9979 26.9605 34.25 26.6074 34.7577C26.2542 35.2653 26.0747 36.0213 26.0703 37.0234V37.6386C26.0703 38.6495 26.2624 39.413 26.6465 39.9295C27.0305 40.446 27.5943 40.705 28.3359 40.705C29.082 40.705 29.6138 40.5462 29.9317 40.2284V38.5663H28.1235V37.1034H31.9186V40.949C31.561 41.3772 31.0543 41.7107 30.401 41.949C29.7476 42.183 29.0237 42.3006 28.2291 42.3006C27.3948 42.3006 26.6631 42.1195 26.0318 41.7576C25.405 41.3913 24.9191 40.8609 24.5748 40.1678C24.2349 39.4748 24.0602 38.6603 24.0514 37.7244V37.0702C24.0514 36.1079 24.2135 35.276 24.5357 34.5741C24.8624 33.8678 25.3289 33.3277 25.9381 32.9569C26.5517 32.5816 27.2694 32.3943 28.0904 32.3943L28.0902 32.3945ZM17.3401 32.6307H22.7425V34.2264H18.9086L18.6703 36.2987C19.3122 35.9154 20.4545 35.7468 21.5492 36.2265C22.4846 36.7208 23.1518 37.7318 23.0512 39.539C22.9697 40.1786 22.7926 40.9432 22.1293 41.5663C20.8912 42.7744 18.3653 42.7017 17.1997 41.3124C16.5856 40.738 16.5693 40.1641 16.5376 39.5897H18.4321C18.573 41.261 21.1839 41.222 21.1235 39.1932C21.2261 37.4234 19.5807 36.9019 18.3071 37.908L16.7836 37.5312L17.3401 32.6307Z" fill="#333333"/>
</svg>
