<svg width="48" height="48" viewBox="0 0 48 48" fill="none" xmlns="http://www.w3.org/2000/svg">
<g clip-path="url(#clip0)">
<path fill-rule="evenodd" clip-rule="evenodd" d="M-0.0117188 0.0371094V48.0371H47.9883V0.0371094H-0.0117188ZM33.8926 4.72461C35.3499 6.07642 36.5129 7.71413 37.309 9.5355C38.1051 11.3569 38.5172 13.3228 38.5195 15.3105C38.5161 17.2975 38.1033 19.2623 37.3069 21.0827C36.5105 22.903 35.3476 24.5397 33.8906 25.8906L33.4316 25.3984C34.8202 24.1101 35.9283 22.5494 36.6868 20.8138C37.4452 19.0781 37.8378 17.2047 37.8398 15.3105C37.837 13.4164 37.4437 11.5432 36.6846 9.8079C35.9255 8.07256 34.8168 6.51233 33.4277 5.22461L33.8926 4.72461ZM13.6758 5.24219L14.1738 5.72461C11.6785 8.29222 10.2803 11.7301 10.2754 15.3105C10.2757 18.8923 11.6704 22.3332 14.1641 24.9043L13.6855 25.3672C11.068 22.6733 9.60132 19.0667 9.5957 15.3105C9.59565 11.5517 11.059 7.94057 13.6758 5.24219ZM32.3047 6.43359C33.5266 7.56718 34.5018 8.94053 35.1692 10.4679C35.8365 11.9952 36.1819 13.6438 36.1836 15.3105C36.1806 16.9766 35.8342 18.6242 35.1662 20.1505C34.4981 21.6768 33.5227 23.0491 32.3008 24.1816L31.8262 23.6699C32.977 22.6024 33.8954 21.3092 34.5242 19.8709C35.1529 18.4327 35.4784 16.8802 35.4805 15.3105C35.4779 13.741 35.1519 12.1889 34.5229 10.751C33.8938 9.31307 32.9751 8.02022 31.8242 6.95312L32.3047 6.43359ZM15.3516 6.86719L15.8652 7.36523C13.7972 9.49347 12.6386 12.343 12.6348 15.3105C12.635 18.279 13.7908 21.1308 15.8574 23.2617L15.3613 23.7422C13.1665 21.4837 11.9365 18.4598 11.9316 15.3105C11.9309 12.1586 13.1575 9.13017 15.3516 6.86719ZM30.7324 8.12695C31.7212 9.04434 32.5102 10.1557 33.0503 11.3917C33.5903 12.6277 33.8697 13.9617 33.8711 15.3105C33.8689 16.6588 33.5889 17.9922 33.0486 19.2275C32.5082 20.4628 31.7191 21.5735 30.7305 22.4902L30.2227 21.9434C31.1356 21.0963 31.8641 20.0701 32.3628 18.9289C32.8615 17.7877 33.1196 16.5559 33.1211 15.3105C33.1194 14.065 32.8609 12.8332 32.3619 11.692C31.8629 10.5508 31.134 9.52467 30.2207 8.67773L30.7324 8.12695ZM17.0137 8.47852L17.5586 9.00586C15.9171 10.6944 14.9974 12.9556 14.9941 15.3105C14.9948 17.666 15.9125 19.9287 17.5527 21.6191L17.0195 22.1348C15.2432 20.3068 14.2479 17.8594 14.2441 15.3105C14.2443 12.7598 15.2376 10.3093 17.0137 8.47852ZM29.125 9.85742C29.8756 10.5538 30.4746 11.3975 30.8845 12.3357C31.2945 13.274 31.5067 14.2866 31.5078 15.3105C31.5059 16.3339 31.2932 17.346 30.8829 18.2835C30.4726 19.221 29.8735 20.064 29.123 20.7598L28.6289 20.2285C29.306 19.6005 29.8464 18.8397 30.2164 17.9935C30.5864 17.1474 30.778 16.2341 30.7793 15.3105C30.7778 14.3869 30.5858 13.4735 30.2155 12.6273C29.8452 11.7812 29.3044 11.0204 28.627 10.3926L29.125 9.85742ZM18.709 10.123L19.2402 10.6367C18.0231 11.8884 17.3408 13.5646 17.3379 15.3105C17.3393 17.0566 18.0201 18.7335 19.2363 19.9863L18.7148 20.4922C17.366 19.1043 16.6102 17.2459 16.6074 15.3105C16.6071 13.374 17.3608 11.5133 18.709 10.123ZM27.502 11.6035C28.0121 12.077 28.4192 12.6505 28.6978 13.2883C28.9764 13.9261 29.1205 14.6145 29.1211 15.3105C29.1197 16.006 28.975 16.6938 28.6961 17.3309C28.4172 17.968 28.01 18.5408 27.5 19.0137L27.043 18.5215C27.485 18.1114 27.8379 17.6147 28.0795 17.0623C28.3211 16.5098 28.4463 15.9135 28.4473 15.3105C28.4466 14.7073 28.3215 14.1106 28.0799 13.5578C27.8383 13.005 27.4853 12.5079 27.043 12.0977L27.502 11.6035ZM20.4219 11.7852L20.9102 12.2559C20.1148 13.0739 19.6693 14.1696 19.668 15.3105C19.6687 16.4513 20.1136 17.5469 20.9082 18.3652L20.4277 18.832C19.5106 17.889 18.9964 16.626 18.9941 15.3105C18.9938 13.9945 19.5059 12.7301 20.4219 11.7852ZM24.0586 12.6113C24.7742 12.6118 25.4603 12.8963 25.9661 13.4025C26.4719 13.9087 26.7559 14.595 26.7559 15.3105C26.7546 15.9588 26.52 16.585 26.095 17.0745C25.67 17.564 25.0831 17.8842 24.4414 17.9766V31.2598H37.5C38.0264 31.2598 38.4512 31.6826 38.4512 32.209V42.4512C38.4512 42.9776 38.0264 43.4023 37.5 43.4023H10.4102C9.88378 43.4023 9.45898 42.9776 9.45898 42.4512V32.209C9.45898 31.6826 9.88374 31.2598 10.4102 31.2598H23.7285V17.9844C23.0756 17.904 22.4745 17.5879 22.0382 17.0955C21.602 16.6032 21.3606 15.9684 21.3594 15.3105C21.3593 14.9561 21.4291 14.6051 21.5648 14.2775C21.7004 13.95 21.8992 13.6525 22.1499 13.4018C22.4005 13.1512 22.6981 12.9523 23.0256 12.8167C23.3531 12.6811 23.7041 12.6113 24.0586 12.6113ZM24.0586 13.3223C23.7975 13.3222 23.5389 13.3736 23.2977 13.4735C23.0564 13.5734 22.8372 13.7199 22.6526 13.9045C22.4679 14.0892 22.3215 14.3084 22.2216 14.5496C22.1217 14.7909 22.0703 15.0494 22.0703 15.3105C22.0707 15.8376 22.2804 16.3428 22.6532 16.7153C23.0261 17.0878 23.5316 17.297 24.0586 17.2969C24.5853 17.2965 25.0903 17.087 25.4627 16.7146C25.8351 16.3422 26.0445 15.8372 26.0449 15.3105C26.045 14.7835 25.8358 14.278 25.4634 13.9052C25.0909 13.5324 24.5856 13.3227 24.0586 13.3223ZM28.0879 32.3945C27.2668 32.3945 26.5492 32.5817 25.9355 32.957C25.3264 33.3278 24.8599 33.8679 24.5332 34.5742C24.211 35.2761 24.0488 36.108 24.0488 37.0703V37.7246C24.0576 38.6605 24.2324 39.4749 24.5723 40.168C24.9166 40.861 25.4025 41.3916 26.0293 41.7578C26.6606 42.1197 27.3922 42.3008 28.2266 42.3008C29.0211 42.3008 29.7451 42.1832 30.3984 41.9492C31.0518 41.7108 31.5585 41.3774 31.916 40.9492V37.1035H28.1211V38.5664H29.9297V40.2285C29.6118 40.5463 29.08 40.7051 28.334 40.7051C27.5924 40.7051 27.0286 40.4462 26.6445 39.9297C26.2605 39.4132 26.0684 38.6496 26.0684 37.6387V37.0234C26.0728 36.0214 26.2523 35.2654 26.6055 34.7578C26.9586 34.2501 27.473 33.998 28.1484 33.998C28.6782 33.998 29.0924 34.125 29.3926 34.3809C29.6972 34.6369 29.8941 35.0419 29.9824 35.5938H31.916C31.7968 34.552 31.414 33.7598 30.7695 33.2168C30.125 32.6693 29.2312 32.3945 28.0879 32.3945ZM20.0234 32.5273L16.0039 38.877L16.0898 40.082H20.043V42.168H21.957V40.082H23.0488V38.5391H21.957V32.5273H20.0234ZM20.043 35.1367V38.5391H17.9102L19.916 35.3555L20.043 35.1367Z" fill="#333333"/>
</g>
<defs>
<clipPath id="clip0">
<rect width="48" height="48" fill="white"/>
</clipPath>
</defs>
</svg>
