<svg width="48" height="48" viewBox="0 0 48 48" fill="none" xmlns="http://www.w3.org/2000/svg">
<path d="M33.8943 4.72754L33.4295 5.22753C36.2373 7.8306 37.8357 11.4845 37.8415 15.3134C37.8375 19.1424 36.2403 22.7969 33.4334 25.4013L33.8923 25.8935C36.8375 23.1626 38.5143 19.3299 38.5212 15.3136C38.5162 11.2954 36.8402 7.4604 33.8942 4.72773L33.8943 4.72754ZM13.6776 5.24511C11.0608 7.94348 9.59752 11.5545 9.59752 15.313C9.60352 19.069 11.0699 22.6756 13.6873 25.3699L14.1658 24.907C11.6722 22.3359 10.2774 18.8951 10.2771 15.3133C10.2821 11.7329 11.6802 8.29498 14.1755 5.72752L13.6776 5.24511ZM32.3063 6.4365L31.8259 6.95602C34.1524 9.11309 35.4769 12.1407 35.482 15.3133C35.478 18.4864 34.154 21.5147 31.8278 23.6726L32.3024 24.1843C34.7724 21.895 36.179 18.6812 36.1851 15.3133C36.1821 11.944 34.7764 8.72802 32.3063 6.43645V6.4365ZM15.3535 6.87008C13.1595 9.13305 11.9329 12.1614 11.9337 15.3134C11.9387 18.4626 13.1686 21.4864 15.3633 23.7449L15.8594 23.2644C13.7929 21.1335 12.6371 18.2818 12.6368 15.3133C12.6408 12.3458 13.7992 9.49628 15.8672 7.36811L15.3535 6.87008ZM30.7343 8.12987L30.2226 8.68064C32.0688 10.3927 33.1195 12.7956 33.123 15.3134C33.12 17.8308 32.07 20.2337 30.2246 21.9461L30.7324 22.4929C32.7309 20.6398 33.8687 18.0388 33.873 15.3133C33.87 12.5868 32.7331 9.9843 30.7343 8.12983V8.12987ZM17.0155 8.47947C15.2395 10.3102 14.2461 12.7607 14.246 15.3114C14.25 17.8603 15.2451 20.3075 17.0214 22.1355L17.5546 21.6199C15.9143 19.9294 14.9967 17.6668 14.996 15.3114C14.999 12.9565 15.919 10.6953 17.5604 9.00673L17.0155 8.47947ZM29.1264 9.86035L28.6283 10.3935C29.9978 11.6627 30.7775 13.4443 30.7806 15.3115C30.7786 17.179 29.9995 18.9614 28.6302 20.2313L29.1244 20.7626C30.6418 19.3556 31.5058 17.3808 31.5091 15.3114C31.5061 13.2424 30.6431 11.2676 29.1264 9.8603V9.86035ZM18.7105 10.126C17.3623 11.5163 16.6086 13.3768 16.6089 15.3134C16.6119 17.2488 17.3675 19.1072 18.7163 20.4949L19.2378 19.9891C18.0216 18.7363 17.3408 17.0593 17.3394 15.3133C17.3424 13.5675 18.0246 11.8913 19.2417 10.6396L18.7105 10.126ZM27.5034 11.6065L27.0444 12.1006C27.9385 12.93 28.4473 14.094 28.4487 15.3134C28.4467 16.5323 27.938 17.6954 27.0444 18.5243L27.5014 19.0165C28.5324 18.0607 29.1197 16.7193 29.1225 15.3134C29.1215 13.9065 28.5347 12.5635 27.5034 11.6065ZM20.4234 11.7881C19.5074 12.733 18.9953 13.9975 18.9957 15.3134C18.9977 16.6289 19.5121 17.8919 20.4293 18.8349L20.9097 18.3681C20.1151 17.5497 19.6702 16.4541 19.6696 15.3134C19.6706 14.1725 20.1164 13.0769 20.9117 12.2588L20.4234 11.7881ZM24.06 12.6143C22.5692 12.6141 21.3607 13.8226 21.3609 15.3134C21.3629 16.6746 22.3791 17.8209 23.7299 17.9872V31.262H10.4121C9.8857 31.262 9.46094 31.6848 9.46094 32.2112V42.4531C9.46094 42.9795 9.8857 43.4043 10.4121 43.4043H37.5018C38.0281 43.4043 38.4529 42.9795 38.4529 42.4531V32.2102C38.4529 31.6838 38.0281 31.261 37.5018 31.261H24.4429V17.9772C25.7693 17.7863 26.7547 16.6512 26.7574 15.3112C26.7576 13.8212 25.5502 12.6128 24.0601 12.612L24.06 12.6143ZM24.06 13.3252C25.1574 13.3261 26.0465 14.216 26.0463 15.3135C26.0454 16.41 25.1566 17.2988 24.06 17.2997C22.9626 17.2999 22.0727 16.4108 22.0718 15.3135C22.0716 14.2153 22.9618 13.325 24.06 13.3252ZM12.1322 31.79H35.7819C36.3186 31.79 37.2563 31.7424 37.5885 32.0126C37.9341 32.2938 37.9224 33.2824 37.9224 33.9325V40.7312C37.9224 41.3699 37.9698 42.3002 37.5299 42.6921C37.1521 43.0285 36.3301 42.8737 35.7819 42.8737H12.1322C10.5067 42.8737 10.3945 42.9463 10.1048 42.2448C9.97453 41.9292 9.98957 41.5028 9.98957 40.7311V33.9324C9.98957 31.6301 10.2977 31.7898 12.1322 31.7898V31.79ZM27.876 32.2528C27.0498 32.2528 26.3293 32.4399 25.7119 32.8173C25.099 33.1903 24.6265 33.7336 24.2978 34.4443C23.9736 35.1505 23.8115 35.9876 23.8115 36.9559V37.6161C23.8205 38.5577 23.9969 39.3758 24.3388 40.073C24.6853 40.7704 25.173 41.304 25.8036 41.6726C26.4388 42.037 27.177 42.2195 28.0165 42.2195C28.816 42.2195 29.5447 42.1014 30.2021 41.866C30.8594 41.626 31.3677 41.291 31.7275 40.8601V36.989H27.9091V38.4617H29.7294V40.1336C29.4096 40.4533 28.8726 40.6141 28.122 40.6141C27.3758 40.6141 26.8112 40.3525 26.4247 39.8328C26.0383 39.3132 25.8447 38.5453 25.8447 37.5282V36.909C25.8497 35.9007 26.0284 35.1406 26.3837 34.6298C26.7391 34.119 27.2569 33.8641 27.9364 33.8641C28.4694 33.8641 28.8863 33.9934 29.1884 34.2509C29.4949 34.5086 29.6933 34.9144 29.7821 35.4696H31.7274C31.6075 34.4215 31.2235 33.6234 30.575 33.0771C29.9265 32.5263 29.0262 32.2529 27.8758 32.2529L27.876 32.2528ZM17.1011 32.4677L16.5445 37.368L18.0679 37.745C19.3415 36.7388 20.9849 37.2604 20.8823 39.0301C20.9427 41.0589 18.3339 41.0979 18.1929 39.4266H16.2984C16.3302 40.0009 16.3465 40.5769 16.9605 41.1512C18.1262 42.5405 20.652 42.6112 21.8901 41.4031C22.5535 40.78 22.7305 40.0155 22.812 39.3759C22.9127 37.5687 22.2435 36.5577 21.3081 36.0634C20.2134 35.5838 19.073 35.7544 18.4311 36.1376L18.6694 34.0654L22.5034 34.0634V32.4677H17.1011Z" fill="#333333"/>
</svg>
