<svg width="48" height="48" viewBox="0 0 48 48" fill="none" xmlns="http://www.w3.org/2000/svg">
<g clip-path="url(#clip0)">
<path fill-rule="evenodd" clip-rule="evenodd" d="M0.1875 -0.0371094V47.9629H48.1875V-0.0371094H0.1875ZM34.0898 4.64844C35.5472 6.00025 36.7102 7.63796 37.5063 9.45933C38.3024 11.2807 38.7144 13.2466 38.7168 15.2344C38.7136 17.2211 38.3012 19.1859 37.5051 21.0062C36.709 22.8266 35.5464 24.4633 34.0898 25.8145L33.6309 25.3223C35.0191 24.0338 36.1268 22.473 36.8849 20.7374C37.643 19.0017 38.0353 17.1284 38.0371 15.2344C38.0343 13.3403 37.641 11.4671 36.8819 9.73173C36.1227 7.99639 35.014 6.43616 33.625 5.14844L34.0898 4.64844ZM13.873 5.16602L14.3711 5.64844C11.8758 8.21604 10.4776 11.654 10.4727 15.2344C10.473 18.8161 11.8677 22.257 14.3613 24.8281L13.8828 25.291C11.2653 22.5971 9.79858 18.9905 9.79297 15.2344C9.79292 11.4756 11.2563 7.8644 13.873 5.16602ZM32.502 6.35742C33.7239 7.49101 34.699 8.86436 35.3664 10.3917C36.0338 11.919 36.3791 13.5676 36.3809 15.2344C36.3778 16.9005 36.0315 18.5481 35.3635 20.0744C34.6954 21.6006 33.72 22.9729 32.498 24.1055L32.0234 23.5937C33.1743 22.5263 34.0927 21.233 34.7214 19.7948C35.3502 18.3565 35.6757 16.8041 35.6777 15.2344C35.6752 13.6649 35.3492 12.1127 34.7201 10.6748C34.0911 9.2369 33.1724 7.94405 32.0215 6.87695L32.502 6.35742ZM15.5488 6.79102L16.0625 7.28906C13.9944 9.4173 12.8358 12.2668 12.832 15.2344C12.8322 18.2028 13.9881 21.0546 16.0547 23.1855L15.5586 23.666C13.3638 21.4075 12.1338 18.3837 12.1289 15.2344C12.1281 12.0824 13.3548 9.05399 15.5488 6.79102ZM30.9297 8.05078C31.9185 8.96817 32.7075 10.0795 33.2475 11.3155C33.7876 12.5515 34.067 13.8856 34.0684 15.2344C34.0662 16.5827 33.7862 17.9161 33.2459 19.1513C32.7055 20.3866 31.9164 21.4973 30.9277 22.4141L30.4199 21.8672C31.3328 21.0201 32.0614 19.9939 32.5601 18.8527C33.0588 17.7115 33.3169 16.4798 33.3184 15.2344C33.3166 13.9888 33.0582 12.757 32.5592 11.6158C32.0602 10.4746 31.3313 9.4485 30.418 8.60156L30.9297 8.05078ZM17.2109 8.40234L17.7559 8.92969C16.1144 10.6183 15.1946 12.8795 15.1914 15.2344C15.1921 17.5898 16.1097 19.8525 17.75 21.543L17.2168 22.0586C15.4405 20.2306 14.4451 17.7832 14.4414 15.2344C14.4415 12.6836 15.4349 10.2332 17.2109 8.40234ZM29.3223 9.78125C30.0729 10.4777 30.6718 11.3213 31.0818 12.2596C31.4918 13.1978 31.704 14.2105 31.7051 15.2344C31.7032 16.2578 31.4904 17.2698 31.0801 18.2073C30.6698 19.1449 30.0708 19.9878 29.3203 20.6836L28.8262 20.1523C29.5033 19.5243 30.0437 18.7635 30.4137 17.9174C30.7837 17.0712 30.9753 16.1579 30.9766 15.2344C30.975 14.3107 30.7831 13.3973 30.4128 12.5511C30.0425 11.705 29.5017 10.9442 28.8242 10.3164L29.3223 9.78125ZM18.9062 10.0469L19.4375 10.5605C18.2203 11.8122 17.5381 13.4885 17.5352 15.2344C17.5365 16.9804 18.2174 18.6574 19.4336 19.9102L18.9121 20.416C17.5632 19.0281 16.8074 17.1698 16.8047 15.2344C16.8043 13.2978 17.5581 11.4372 18.9062 10.0469ZM27.6992 11.5273C28.2094 12.0008 28.6165 12.5743 28.8951 13.2121C29.1736 13.85 29.3177 14.5384 29.3184 15.2344C29.317 15.9299 29.1723 16.6176 28.8934 17.2547C28.6145 17.8918 28.2073 18.4647 27.6973 18.9375L27.2402 18.4453C27.6823 18.0353 28.0352 17.5385 28.2768 16.9861C28.5184 16.4336 28.6436 15.8373 28.6445 15.2344C28.6438 14.6311 28.5188 14.0344 28.2771 13.4816C28.0355 12.9288 27.6825 12.4318 27.2402 12.0215L27.6992 11.5273ZM20.6191 11.709L21.1094 12.2051C20.3126 13.0246 19.8669 14.1226 19.8672 15.2656C19.8755 16.3952 20.319 17.4781 21.1055 18.2891L20.625 18.7559C19.7078 17.8128 19.1937 16.5499 19.1914 15.2344C19.1911 13.9184 19.7032 12.6539 20.6191 11.709ZM24.2559 12.5352C24.9714 12.5356 25.6575 12.8202 26.1633 13.3263C26.6691 13.8325 26.9532 14.5188 26.9531 15.2344C26.9518 15.8826 26.7173 16.5088 26.2923 16.9983C25.8673 17.4878 25.2803 17.8081 24.6387 17.9004V31.1836H37.6973C38.2236 31.1836 38.6484 31.6064 38.6484 32.1328V42.375C38.6484 42.9014 38.2237 43.3262 37.6973 43.3262H10.6074C10.081 43.3262 9.65625 42.9014 9.65625 42.375V32.1328C9.65625 31.6064 10.081 31.1836 10.6074 31.1836H23.9258V17.9082C23.2729 17.8278 22.6718 17.5117 22.2355 17.0194C21.7992 16.527 21.5578 15.8922 21.5566 15.2344C21.5566 14.8799 21.6264 14.5289 21.762 14.2014C21.8976 13.8739 22.0965 13.5763 22.3471 13.3256C22.5978 13.075 22.8954 12.8762 23.2229 12.7405C23.5504 12.6049 23.9014 12.5351 24.2559 12.5352ZM24.2559 13.2461C23.9947 13.246 23.7362 13.2974 23.4949 13.3973C23.2537 13.4972 23.0345 13.6437 22.8498 13.8283C22.6652 14.013 22.5187 14.2322 22.4188 14.4734C22.3189 14.7147 22.2675 14.9733 22.2676 15.2344C22.268 15.7614 22.4777 16.2667 22.8505 16.6391C23.2234 17.0116 23.7288 17.2208 24.2559 17.2207C24.7825 17.2203 25.2875 17.0109 25.6599 16.6385C26.0324 16.266 26.2418 15.7611 26.2422 15.2344C26.2423 14.7074 26.0331 14.2019 25.6606 13.829C25.2882 13.4562 24.7829 13.2465 24.2559 13.2461ZM28.2852 32.3184C27.4649 32.3187 26.7479 32.5059 26.1348 32.8809C25.5256 33.2517 25.0591 33.7917 24.7324 34.498C24.4102 35.1999 24.248 36.0318 24.248 36.9941V37.6484C24.2569 38.5843 24.4316 39.3987 24.7715 40.0918C25.1158 40.7848 25.6017 41.3154 26.2285 41.6816C26.8598 42.0436 27.5915 42.2246 28.4258 42.2246C29.2203 42.2246 29.9443 42.107 30.5977 41.873C31.251 41.6347 31.7577 41.3012 32.1152 40.873V37.0273H28.3203V38.4902H30.127V40.1523C29.8091 40.4702 29.2773 40.6289 28.5312 40.6289C27.7896 40.6289 27.2258 40.37 26.8418 39.8535C26.4578 39.337 26.2656 38.5734 26.2656 37.5625V36.9473C26.27 35.9452 26.4496 35.1893 26.8027 34.6816C27.1559 34.1739 27.6703 33.9219 28.3457 33.9219C28.8754 33.9219 29.2897 34.0488 29.5898 34.3047C29.8944 34.5607 30.0914 34.9658 30.1797 35.5176H32.1133C31.9941 34.4758 31.6113 33.6836 30.9668 33.1406C30.3227 32.5934 29.4295 32.3187 28.2871 32.3184H28.2852ZM17.6484 32.3711L17.0918 37.2715L18.6152 37.6484C19.8889 36.6423 21.5343 37.1638 21.4316 38.9336C21.492 40.9624 18.8812 41.0014 18.7402 39.3301H16.8457C16.8775 39.9044 16.8938 40.4784 17.5078 41.0527C18.6735 42.4421 21.1994 42.5147 22.4375 41.3066C23.1008 40.6835 23.2779 39.9189 23.3594 39.2793C23.4601 37.4721 22.7928 36.4611 21.8574 35.9668C20.7627 35.4871 19.6204 35.6558 18.9785 36.0391L19.2168 33.9668H23.0527V32.3711H17.6484Z" fill="#333333"/>
</g>
<defs>
<clipPath id="clip0">
<rect width="48" height="48" fill="white"/>
</clipPath>
</defs>
</svg>
