<svg width="48" height="48" viewBox="0 0 48 48" fill="none" xmlns="http://www.w3.org/2000/svg">
<path d="M17.3378 4C17.0138 4 16.6988 4.0337 16.3908 4.0879C16.3228 4.0998 16.2528 4.1067 16.1858 4.1211C15.4259 4.2663 14.7129 4.54209 14.0699 4.92379C13.4279 5.30558 12.8559 5.79328 12.3789 6.36327C11.9019 6.93316 11.5209 7.58495 11.2579 8.29485C10.9949 9.00474 10.8519 9.77263 10.8519 10.5739C10.8519 10.7959 10.8669 11.0169 10.8909 11.2359C10.6599 11.2079 10.4269 11.1879 10.1929 11.1879C9.33823 11.1879 8.52414 11.3699 7.78315 11.6989C7.04226 12.0279 6.37487 12.5039 5.81448 13.0919C5.25398 13.6799 4.79979 14.3809 4.48629 15.1579C4.1729 15.9359 4 16.7898 4 17.6878C4.0016 18.8618 4.3061 19.9898 4.85349 20.9688C5.40098 21.9468 6.19147 22.7758 7.16796 23.3498C6.72167 23.9278 6.37607 24.5777 6.14257 25.2697C5.90898 25.9607 5.78748 26.6927 5.78708 27.4377C5.78828 28.3787 5.98318 29.2957 6.34767 30.1327C6.71207 30.9687 7.24596 31.7247 7.92375 32.3416C7.84935 32.7436 7.81155 33.1526 7.81045 33.5616C7.81065 34.3566 7.94725 35.1206 8.19915 35.8296C8.45104 36.5386 8.81714 37.1916 9.27723 37.7616C9.73743 38.3316 10.2909 38.8196 10.9159 39.1966C11.5409 39.5746 12.2379 39.8416 12.9839 39.9726C13.2229 40.5815 13.5429 41.1365 13.9279 41.6285C14.3129 42.1205 14.7649 42.5465 15.2639 42.8975C15.7629 43.2495 16.3088 43.5255 16.8888 43.7125C17.4678 43.8995 18.0798 43.9995 18.7068 43.9995C19.8278 43.9995 20.8778 43.6855 21.7828 43.1385C22.6888 42.5905 23.4498 41.8095 23.9917 40.8725C23.9947 40.8765 23.9977 40.8805 23.9997 40.8845C24.0017 40.8805 24.0047 40.8785 24.0077 40.8745C24.5497 41.8115 25.3107 42.5925 26.2167 43.1405C27.1217 43.6875 28.1717 44.0015 29.2927 44.0015C29.9197 44.0015 30.5317 43.9015 31.1107 43.7145C31.6907 43.5265 32.2366 43.2505 32.7356 42.8995C33.2346 42.5485 33.6866 42.1215 34.0716 41.6305C34.4566 41.1385 34.7766 40.5835 35.0156 39.9745C35.7616 39.8436 36.4586 39.5766 37.0836 39.1986C37.7086 38.8216 38.2626 38.3336 38.7226 37.7636C39.1826 37.1936 39.5486 36.5406 39.8006 35.8316C40.0525 35.1226 40.1885 34.3586 40.1885 33.5636C40.1875 33.1546 40.1505 32.7456 40.0755 32.3436C40.7535 31.7267 41.2875 30.9707 41.6515 30.1347C42.0165 29.2977 42.2115 28.3807 42.2125 27.4387C42.2125 26.6947 42.0905 25.9627 41.8565 25.2707C41.6235 24.5797 41.2775 23.9297 40.8315 23.3518C41.8085 22.7778 42.5985 21.9488 43.1455 20.9708C43.6935 19.9918 43.9975 18.8638 43.9995 17.6888C43.9995 16.7918 43.8265 15.9378 43.5135 15.1599C43.1995 14.3829 42.7455 13.6819 42.1855 13.0939C41.6245 12.5059 40.9575 12.0299 40.2165 11.7009C39.4756 11.3719 38.6616 11.1889 37.8066 11.1889C37.5726 11.1899 37.3396 11.2119 37.1086 11.2379C37.1326 11.0189 37.1476 10.7959 37.1476 10.5739C37.1476 9.77273 37.0046 9.00474 36.7416 8.29485C36.4786 7.58495 36.0976 6.93316 35.6206 6.36327C35.1436 5.79328 34.5716 5.30558 33.9296 4.92379C33.2866 4.54209 32.5736 4.2663 31.8137 4.1211C31.7467 4.106 31.6767 4.0992 31.6087 4.0879C31.3007 4.0338 30.9857 4 30.6617 4C30.6477 4 30.6337 4.0018 30.6187 4.002C30.6037 4.0018 30.5887 4 30.5737 4C29.6667 4 28.8017 4.1849 28.0157 4.51759C27.2287 4.85029 26.5207 5.33088 25.9257 5.92578C25.3307 6.52057 24.8497 7.22906 24.5177 8.01555C24.1847 8.80204 23.9997 9.66643 23.9997 10.5739C23.9997 9.66643 23.8148 8.80204 23.4818 8.01555C23.1498 7.22906 22.6688 6.52057 22.0738 5.92578C21.4788 5.33088 20.7708 4.85029 19.9838 4.51759C19.1978 4.1849 18.3328 4 17.4258 4C17.4108 4 17.3958 4.0019 17.3808 4.002C17.3658 4.0018 17.3518 4 17.3378 4ZM17.5698 4.69529C17.5838 4.69529 17.5968 4.69719 17.6108 4.69729C17.6258 4.69719 17.6398 4.69529 17.6538 4.69529C18.5298 4.69539 19.3658 4.87409 20.1248 5.19529C20.8838 5.51628 21.5668 5.97858 22.1408 6.55267C22.7148 7.12676 23.1788 7.81115 23.4998 8.57024C23.7858 9.24533 23.9497 9.98143 23.9837 10.7519C23.9458 11.3509 23.7658 12.0829 23.4978 12.7849C23.2038 13.5559 22.8158 14.2839 22.4258 14.7339C22.2918 14.8749 22.1408 14.9029 22.0058 14.8499C21.8708 14.7959 21.7528 14.6599 21.6798 14.4669C21.5338 14.0809 21.5738 13.4699 22.0548 12.8549C22.2138 12.5349 22.3328 12.1979 22.4218 11.8539C22.4618 11.7009 22.4918 11.5459 22.5178 11.3909C22.5268 11.3329 22.5408 11.2749 22.5488 11.2169C22.5758 11.0039 22.5928 10.7889 22.5938 10.5739C22.5938 9.86063 22.4488 9.18073 22.1878 8.56244C21.9258 7.94415 21.5478 7.38746 21.0798 6.91986C20.6118 6.45227 20.0558 6.07397 19.4378 5.81248C18.8188 5.55098 18.1388 5.40628 17.4258 5.40618C16.7118 5.40628 16.0318 5.55098 15.4139 5.81248C14.7959 6.07397 14.2389 6.45227 13.7709 6.91986C13.3039 7.38746 12.9259 7.94415 12.6639 8.56244C12.4029 9.18073 12.2579 9.86063 12.2579 10.5739C12.2579 10.7949 12.2769 11.0129 12.3049 11.2299C12.3139 11.3059 12.3309 11.3799 12.3439 11.4549C12.3689 11.5979 12.3969 11.7389 12.4339 11.8789C12.4559 11.9639 12.4809 12.0489 12.5079 12.1329C12.5469 12.2569 12.5939 12.3809 12.6429 12.5019C12.6779 12.5909 12.7149 12.6789 12.7559 12.7659C12.8409 12.9469 12.9299 13.1269 13.0369 13.2989C12.4599 13.2039 11.5469 12.8889 10.1929 12.8119C9.55203 12.8119 8.94034 12.9489 8.38475 13.1949C7.82905 13.4419 7.32836 13.7989 6.90816 14.2399C6.48797 14.6809 6.14907 15.2059 5.91408 15.7889C5.67898 16.3718 5.54878 17.0138 5.54878 17.6878C5.54888 18.6628 5.82628 19.5908 6.31637 20.3708C6.80646 21.1508 7.50936 21.7838 8.36325 22.1678C9.03964 22.5838 9.37863 22.7918 9.43743 23.0228C9.49623 23.2548 9.27493 23.5108 8.83394 24.0207C8.39264 24.4687 8.04735 25.0007 7.81245 25.5817C7.57756 26.1627 7.45306 26.7927 7.45306 27.4377C7.45396 28.0017 7.55036 28.5567 7.73435 29.0777C7.91825 29.5987 8.18975 30.0867 8.53904 30.5157C9.07564 29.4537 9.86853 28.5917 10.8139 27.9937C11.7599 27.3957 12.8589 27.0637 14.0039 27.0617C14.3619 27.0737 14.6339 27.1807 14.8159 27.3337C14.9989 27.4867 15.0929 27.6877 15.0959 27.8867C15.0979 28.0857 15.0089 28.2817 14.8279 28.4317C14.6469 28.5807 14.3729 28.6827 14.0039 28.6877C13.0879 28.6887 12.2149 28.9717 11.4789 29.4747C10.7419 29.9767 10.1399 30.6997 9.76753 31.5777C9.58353 32.1416 9.42943 32.7156 9.37103 33.3236C9.36553 33.4026 9.36113 33.4826 9.35933 33.5616C9.35973 34.6146 9.68193 35.6076 10.2419 36.4196C10.8019 37.2316 11.5999 37.8626 12.5529 38.1906C13.0919 38.3196 13.6339 38.4476 14.3929 38.4176C15.0179 38.3246 15.0179 38.3246 14.9359 38.5426C14.8529 38.7606 14.6899 39.1946 14.9859 39.9726C15.3899 40.6415 15.9428 41.1795 16.5838 41.5505C17.2248 41.9205 17.9518 42.1245 18.7068 42.1245C19.2918 42.1245 19.8488 42.0045 20.3568 41.7865C20.8658 41.5695 21.3268 41.2535 21.7188 40.8625C22.1108 40.4725 22.4348 40.0075 22.6698 39.4876C22.9048 38.9686 23.0498 38.3946 23.0858 37.7906V18.8158C23.1378 18.4178 23.2658 18.1388 23.4318 17.9608C23.5968 17.7828 23.7988 17.7048 23.9997 17.7088C24.2007 17.7048 24.4027 17.7828 24.5677 17.9608C24.7337 18.1388 24.8617 18.4178 24.9137 18.8158V37.7906C24.9497 38.3946 25.0947 38.9686 25.3297 39.4876C25.5647 40.0075 25.8887 40.4725 26.2807 40.8625C26.6727 41.2535 27.1337 41.5695 27.6427 41.7865C28.1507 42.0045 28.7077 42.1245 29.2927 42.1245C30.0477 42.1245 30.7747 41.9205 31.4157 41.5505C32.0566 41.1795 32.6096 40.6415 33.0136 39.9726C33.3096 39.1946 33.1466 38.7606 33.0636 38.5426C32.9816 38.3246 32.9816 38.3246 33.6066 38.4176C34.3656 38.4476 34.9076 38.3196 35.4466 38.1906C36.3996 37.8626 37.1976 37.2316 37.7576 36.4196C38.3176 35.6076 38.6396 34.6146 38.6406 33.5616C38.6386 33.4826 38.6346 33.4046 38.6286 33.3256C38.5696 32.7176 38.4156 32.1436 38.2316 31.5797C37.8596 30.7017 37.2576 29.9787 36.5206 29.4767C35.7846 28.9737 34.9116 28.6907 33.9956 28.6887C33.6266 28.6847 33.3526 28.5827 33.1716 28.4337C32.9906 28.2837 32.9016 28.0877 32.9036 27.8887C32.9066 27.6897 33.0006 27.4887 33.1836 27.3357C33.3656 27.1827 33.6376 27.0757 33.9956 27.0637C35.1406 27.0647 36.2396 27.3977 37.1856 27.9957C38.1306 28.5937 38.9236 29.4557 39.4606 30.5177C39.8095 30.0877 40.0815 29.6007 40.2655 29.0797C40.4495 28.5587 40.5455 28.0037 40.5465 27.4387C40.5465 26.7947 40.4215 26.1647 40.1875 25.5837C39.9526 25.0027 39.6066 24.4707 39.1656 24.0227C38.7246 23.5128 38.5036 23.2568 38.5616 23.0248C38.6206 22.7938 38.9596 22.5858 39.6366 22.1698C40.4905 21.7858 41.1925 21.1528 41.6835 20.3728C42.1735 19.5928 42.4505 18.6638 42.4505 17.6888C42.4505 17.0158 42.3205 16.3738 42.0855 15.7909C41.8505 15.2079 41.5115 14.6829 41.0915 14.2419C40.6715 13.8009 40.1705 13.4439 39.6146 13.1969C39.0596 12.9509 38.4476 12.8139 37.8066 12.8139C36.4526 12.8899 35.5396 13.2059 34.9626 13.3009C35.0696 13.1289 35.1586 12.9489 35.2436 12.7679C35.2846 12.6809 35.3216 12.5909 35.3566 12.5019C35.4056 12.3809 35.4526 12.2579 35.4916 12.1329C35.5186 12.0489 35.5436 11.9639 35.5656 11.8789C35.6026 11.7389 35.6306 11.5979 35.6556 11.4549C35.6686 11.3799 35.6846 11.3059 35.6946 11.2299C35.7226 11.0139 35.7416 10.7949 35.7416 10.5739C35.7416 9.86063 35.5966 9.18073 35.3356 8.56244C35.0736 7.94415 34.6956 7.38746 34.2286 6.91986C33.7606 6.45227 33.2036 6.07397 32.5856 5.81248C31.9676 5.55098 31.2877 5.40628 30.5737 5.40618C29.8607 5.40628 29.1807 5.55098 28.5617 5.81248C27.9437 6.07397 27.3877 6.45227 26.9197 6.91986C26.4517 7.38746 26.0737 7.94415 25.8117 8.56244C25.5507 9.18073 25.4057 9.86063 25.4057 10.5739C25.4067 10.7889 25.4237 11.0039 25.4507 11.2169C25.4587 11.2749 25.4727 11.3319 25.4817 11.3909C25.5077 11.5459 25.5377 11.7009 25.5777 11.8539C25.6667 12.1979 25.7857 12.5349 25.9447 12.8549C26.4257 13.4699 26.4657 14.0809 26.3197 14.4669C26.2467 14.6599 26.1287 14.7959 25.9937 14.8499C25.8587 14.9029 25.7077 14.8749 25.5737 14.7339C25.1837 14.2839 24.7957 13.5559 24.5017 12.7849C24.2347 12.0829 24.0547 11.3519 24.0158 10.7539C24.0497 9.98342 24.2137 9.24533 24.4997 8.57024C24.8207 7.81115 25.2847 7.12876 25.8587 6.55467C26.4327 5.98058 27.1157 5.51658 27.8747 5.19529C28.6337 4.87419 29.4697 4.69539 30.3457 4.69529C30.3597 4.69529 30.3737 4.69719 30.3887 4.69729C30.4027 4.69719 30.4157 4.69529 30.4297 4.69529C30.7417 4.69529 31.0457 4.72909 31.3437 4.78119C31.4087 4.79259 31.4777 4.79929 31.5427 4.81449C32.2756 4.95459 32.9636 5.22128 33.5836 5.58978C34.2036 5.95818 34.7556 6.42837 35.2166 6.97846C35.6766 7.52856 36.0446 8.15655 36.2986 8.84174C36.5516 9.52683 36.6886 10.2689 36.6886 11.0429C36.6886 11.2569 36.6746 11.4719 36.6516 11.6839C36.8746 11.6589 37.1006 11.6369 37.3256 11.6369C38.1506 11.6369 38.9366 11.8129 39.6516 12.1309C40.3665 12.4479 41.0095 12.9069 41.5505 13.4749C42.0915 14.0419 42.5305 14.7179 42.8335 15.4689C43.1355 16.2188 43.3025 17.0438 43.3025 17.9098C43.3005 19.0438 43.0065 20.1318 42.4785 21.0758C41.9495 22.0198 41.1885 22.8208 40.2455 23.3748C40.6765 23.9328 41.0085 24.5587 41.2335 25.2267C41.4595 25.8937 41.5775 26.6017 41.5775 27.3197C41.5765 28.2287 41.3885 29.1137 41.0365 29.9217C40.6845 30.7287 40.1695 31.4577 39.5156 32.0526C39.5876 32.4406 39.6236 32.8346 39.6246 33.2296C39.6246 33.9966 39.4926 34.7356 39.2496 35.4196C39.0066 36.1036 38.6526 36.7326 38.2086 37.2826C37.7646 37.8326 37.2296 38.3056 36.6266 38.6696C36.0236 39.0336 35.3506 39.2916 34.6306 39.4176C34.4006 40.0055 34.0916 40.5405 33.7206 41.0155C33.3486 41.4895 32.9126 41.9035 32.4316 42.2415C31.9496 42.5805 31.4227 42.8455 30.8627 43.0265C30.3037 43.2075 29.7147 43.3035 29.1087 43.3045C28.0267 43.3045 27.0127 43.0005 26.1387 42.4725C25.2647 41.9435 24.5307 41.1905 24.0077 40.2865C24.0057 40.2905 24.0017 40.2945 23.9997 40.2985C23.9977 40.2945 23.9938 40.2905 23.9917 40.2865C23.4688 41.1905 22.7348 41.9435 21.8608 42.4725C20.9868 43.0005 19.9728 43.3045 18.8908 43.3045C18.2848 43.3035 17.6958 43.2075 17.1368 43.0265C16.5768 42.8455 16.0498 42.5805 15.5679 42.2415C15.0869 41.9025 14.6509 41.4895 14.2789 41.0155C13.9069 40.5405 13.5989 40.0055 13.3689 39.4176C12.6489 39.2916 11.9759 39.0336 11.3729 38.6696C10.7699 38.3056 10.2349 37.8326 9.79093 37.2826C9.34683 36.7326 8.99304 36.1036 8.74994 35.4196C8.50684 34.7356 8.37505 33.9966 8.37495 33.2296C8.37605 32.8346 8.41254 32.4406 8.48434 32.0526C7.83005 31.4577 7.31456 30.7287 6.96286 29.9217C6.61117 29.1137 6.42297 28.2287 6.42187 27.3197C6.42217 26.6017 6.54017 25.8937 6.76557 25.2267C6.99096 24.5587 7.32316 23.9328 7.75385 23.3748C6.81136 22.8208 6.04987 22.0198 5.52148 21.0758C4.99309 20.1318 4.69879 19.0438 4.69729 17.9098C4.69729 17.0438 4.86349 16.2188 5.16599 15.4689C5.46848 14.7179 5.90828 14.0419 6.44917 13.4749C6.99006 12.9069 7.63245 12.4479 8.34765 12.1309C9.06274 11.8129 9.84853 11.6369 10.6739 11.6369C10.8989 11.6369 11.1249 11.6569 11.3479 11.6839C11.3249 11.4719 11.3109 11.2589 11.3109 11.0449C11.3109 10.2709 11.4479 9.52883 11.7009 8.84374C11.9549 8.15855 12.3229 7.53056 12.7829 6.98046C13.2439 6.43037 13.7959 5.96028 14.4159 5.59178C15.0359 5.22338 15.7239 4.95659 16.4568 4.81639C16.5218 4.80129 16.5908 4.79259 16.6558 4.78119C16.9538 4.73019 17.2578 4.69729 17.5698 4.69729V4.69529ZM18.0618 14.9202C18.3948 14.8692 18.7588 15.0572 18.8538 15.5392C18.8748 16.1341 18.7868 16.7091 18.6048 17.2421C18.4238 17.7751 18.1498 18.2651 17.8028 18.6881C17.4548 19.1101 17.0328 19.4661 16.5548 19.7301C16.0768 19.9951 15.5429 20.1681 14.9709 20.2271C14.8269 20.2421 14.6829 20.2501 14.5389 20.2501V20.2481C13.7469 20.2451 12.9889 20.0141 12.3339 19.6021C11.6789 19.1891 11.1279 18.5951 10.7519 17.8631C10.5459 17.3311 10.6859 16.9231 10.9529 16.7501C11.2199 16.5771 11.6149 16.6411 11.9239 17.0571C12.1909 17.6331 12.6159 18.0931 13.1249 18.3931C13.6339 18.6921 14.2279 18.8311 14.8359 18.7701C15.5869 18.6921 16.2398 18.3241 16.7068 17.7791C17.1738 17.2351 17.4548 16.5151 17.4608 15.7402C17.4288 15.2622 17.7298 14.9712 18.0618 14.9202ZM29.9377 14.9202C30.2697 14.9712 30.5707 15.2622 30.5387 15.7402C30.5447 16.5151 30.8257 17.2351 31.2927 17.7791C31.7597 18.3241 32.4126 18.6921 33.1636 18.7701C33.7716 18.8311 34.3656 18.6921 34.8746 18.3931C35.3836 18.0931 35.8086 17.6331 36.0756 17.0571C36.3846 16.6411 36.7796 16.5771 37.0466 16.7501C37.3136 16.9231 37.4536 17.3311 37.2476 17.8631C36.8716 18.5951 36.3206 19.1891 35.6656 19.6021C35.0106 20.0141 34.2526 20.2451 33.4606 20.2481V20.2501C33.3166 20.2501 33.1726 20.2421 33.0286 20.2271C32.4566 20.1681 31.9227 19.9951 31.4447 19.7301C30.9667 19.4661 30.5447 19.1101 30.1967 18.6881C29.8497 18.2651 29.5757 17.7751 29.3947 17.2421C29.2127 16.7091 29.1247 16.1341 29.1457 15.5392C29.2407 15.0572 29.6047 14.8692 29.9377 14.9202ZM19.3688 21.4791C19.8228 21.4431 20.2778 21.5241 20.6948 21.7151C20.9718 21.8571 20.9938 22.2331 20.8278 22.5291C20.6618 22.8261 20.3098 23.0431 19.8418 22.8691C19.7178 22.8491 19.5918 22.8401 19.4668 22.8521C19.0538 22.8841 18.6938 23.0901 18.4428 23.3951C18.1928 23.6991 18.0528 24.104 18.0838 24.537C18.1148 24.97 18.3108 25.35 18.6018 25.613C18.8918 25.876 19.2788 26.023 19.6908 25.99C19.8178 25.98 19.9438 25.952 20.0638 25.908C20.5308 25.687 20.9128 25.83 21.1128 26.084C21.3128 26.338 21.3298 26.701 21.0658 26.916C20.6808 27.169 20.2438 27.32 19.7908 27.357C19.0188 27.418 18.2958 27.144 17.7518 26.652C17.2078 26.161 16.8408 25.451 16.7828 24.641C16.7248 23.8301 16.9848 23.0701 17.4528 22.4981C17.9208 21.9261 18.5968 21.5421 19.3688 21.4801V21.4791ZM28.6307 21.4801C29.4027 21.5421 30.0787 21.9261 30.5467 22.4981C31.0147 23.0701 31.2747 23.8301 31.2167 24.641C31.1587 25.451 30.7917 26.161 30.2477 26.652C29.7037 27.144 28.9807 27.418 28.2087 27.357C27.7557 27.32 27.3187 27.169 26.9337 26.916C26.6697 26.701 26.6867 26.338 26.8867 26.084C27.0867 25.83 27.4687 25.687 27.9357 25.908C28.0557 25.952 28.1817 25.98 28.3087 25.99C28.7207 26.023 29.1077 25.876 29.3977 25.613C29.6887 25.35 29.8847 24.97 29.9157 24.537C29.9467 24.104 29.8067 23.6991 29.5567 23.3951C29.3057 23.0901 28.9457 22.8841 28.5327 22.8521C28.4077 22.8401 28.2817 22.8491 28.1577 22.8711C27.6897 23.0451 27.3377 22.8281 27.1717 22.5311C27.0057 22.2351 27.0277 21.8591 27.3047 21.7171C27.7217 21.5261 28.1767 21.4451 28.6307 21.4801ZM16.7228 30.172C16.8668 30.172 17.0108 30.18 17.1538 30.195C17.7478 30.256 18.3018 30.44 18.7948 30.721C19.2878 31.002 19.7208 31.38 20.0718 31.828C20.4228 32.2759 20.6938 32.7969 20.8608 33.3589C21.0288 33.9219 21.0928 34.5269 21.0348 35.1499C20.9728 35.8139 20.7688 36.4559 20.4508 37.0269C20.1328 37.5989 19.6998 38.0989 19.1778 38.4789C18.8718 38.6359 18.6178 38.6649 18.4218 38.6149C18.2258 38.5649 18.0858 38.4359 18.0058 38.2749C17.8458 37.9539 17.9258 37.5069 18.2708 37.3179C18.6588 37.0669 18.9808 36.7279 19.2168 36.3319C19.4518 35.9359 19.6018 35.4839 19.6458 35.0079C19.7248 34.1639 19.4698 33.3669 18.9938 32.7599C18.5178 32.1529 17.8218 31.735 17.0178 31.652C16.4088 31.591 15.8159 31.73 15.3069 32.0289C14.7969 32.3289 14.3729 32.7889 14.1049 33.3649C13.9929 33.6269 13.8279 33.7929 13.6519 33.8709C13.4769 33.9499 13.2889 33.9419 13.1349 33.8589C12.9809 33.7769 12.8579 33.6189 12.8109 33.3979C12.7629 33.1779 12.7899 32.8939 12.9339 32.5589C13.3089 31.827 13.8599 31.233 14.5159 30.82C15.1709 30.408 15.9309 30.178 16.7228 30.174V30.172ZM31.2767 30.172V30.174C32.0686 30.178 32.8286 30.408 33.4836 30.82C34.1396 31.233 34.6906 31.827 35.0656 32.5589C35.2096 32.8939 35.2366 33.1779 35.1886 33.3979C35.1416 33.6189 35.0186 33.7769 34.8646 33.8589C34.7106 33.9419 34.5226 33.9499 34.3476 33.8709C34.1716 33.7929 34.0066 33.6269 33.8946 33.3649C33.6266 32.7889 33.2026 32.3289 32.6926 32.0289C32.1836 31.73 31.5907 31.591 30.9817 31.652C30.1777 31.735 29.4817 32.1529 29.0057 32.7599C28.5297 33.3669 28.2747 34.1639 28.3537 35.0079C28.3977 35.4839 28.5477 35.9359 28.7827 36.3319C29.0187 36.7279 29.3407 37.0669 29.7287 37.3179C30.0737 37.5069 30.1537 37.9539 29.9937 38.2749C29.9137 38.4359 29.7737 38.5649 29.5777 38.6149C29.3817 38.6649 29.1277 38.6359 28.8217 38.4789C28.2997 38.0989 27.8667 37.5989 27.5487 37.0269C27.2307 36.4559 27.0267 35.8139 26.9647 35.1499C26.9067 34.5269 26.9707 33.9219 27.1387 33.3589C27.3057 32.7969 27.5767 32.2759 27.9277 31.828C28.2787 31.38 28.7117 31.002 29.2047 30.721C29.6977 30.44 30.2517 30.256 30.8457 30.195C30.9887 30.18 31.1327 30.172 31.2767 30.172Z" fill="#333333"/>
</svg>
