<?xml version="1.0" encoding="UTF-8" standalone="no"?>
<!-- Created with Inkscape (http://www.inkscape.org/) -->
<svg id="svg8" xmlns:rdf="http://www.w3.org/1999/02/22-rdf-syntax-ns#" xmlns="http://www.w3.org/2000/svg" xmlns:osb="http://www.openswatchbook.org/uri/2009/osb" height="48" width="48" version="1.1" xmlns:cc="http://creativecommons.org/ns#" viewBox="0 0 12.7 12.7" xmlns:dc="http://purl.org/dc/elements/1.1/">
 <title id="title4753">UIO-icon</title>
 <metadata id="metadata5">
  <rdf:RDF>
   <cc:Work rdf:about="">
    <dc:format>image/svg+xml</dc:format>
    <dc:type rdf:resource="http://purl.org/dc/dcmitype/StillImage"/>
    <dc:title>UIO-icon</dc:title>
    <dc:creator>
     <cc:Agent>
      <dc:title>Joaquín Urbano</dc:title>
     </cc:Agent>
    </dc:creator>
    <dc:rights>
     <cc:Agent>
      <dc:title>GPL</dc:title>
     </cc:Agent>
    </dc:rights>
   </cc:Work>
  </rdf:RDF>
 </metadata>
 <g id="layer1" transform="translate(0,-284.3)">
  <path id="rect4769" d="m0 0v48h48v-48h-48zm17.338 4c0.014 0 0.028 0.0018 0.043 0.002 0.015-0.0002 0.03-0.002 0.045-0.002 3.631 0.0002 6.574 2.9434 6.574 6.574 0-3.6305 2.943-6.5738 6.574-6.574 0.015 0 0.03 0.0018 0.045 0.002 0.015-0.0002 0.029-0.002 0.043-0.002 0.324 0 0.639 0.0338 0.947 0.0879 0.068 0.0113 0.138 0.0181 0.205 0.0332 3.037 0.5809 5.334 3.2471 5.334 6.4529 0 0.222-0.015 0.445-0.039 0.664 0.231-0.026 0.464-0.048 0.698-0.049 3.42 0 6.193 2.911 6.193 6.5-0.003 2.35-1.215 4.515-3.168 5.663 0.893 1.156 1.38 2.599 1.381 4.087-0.003 1.883-0.781 3.672-2.137 4.905 0.075 0.402 0.112 0.811 0.113 1.22 0 3.177-2.188 5.888-5.173 6.411-0.955 2.435-3.214 4.026-5.723 4.027-2.242 0-4.2-1.254-5.285-3.127-0.003 0.004-0.006 0.006-0.008 0.01-0.002-0.004-0.005-0.008-0.008-0.012-1.085 1.874-3.043 3.127-5.285 3.127-2.509-0.001-4.768-1.592-5.723-4.027-2.9845-0.523-5.1729-3.234-5.1735-6.411 0.0011-0.409 0.0389-0.818 0.1133-1.22-1.3557-1.233-2.1343-3.022-2.1367-4.904 0.0008-1.489 0.4883-2.932 1.3809-4.088-1.9531-1.148-3.1648-3.313-3.168-5.662 0-3.59 2.7732-6.5 6.193-6.5 0.234 0 0.467 0.02 0.698 0.048-0.024-0.219-0.039-0.44-0.039-0.662 0-3.2059 2.297-5.872 5.334-6.4529 0.067-0.0144 0.137-0.0213 0.205-0.0332 0.308-0.0542 0.623-0.0879 0.947-0.0879zm6.662 6.574c-0.019 1.251-0.793 3.26-1.574 4.16-0.536 0.562-1.332-0.65-0.371-1.879 0.159-0.32 0.278-0.657 0.367-1.001 0.04-0.153 0.07-0.308 0.096-0.463 0.009-0.058 0.023-0.116 0.031-0.174 0.027-0.213 0.044-0.428 0.045-0.643 0-2.8539-2.314-5.1676-5.168-5.1678-2.854 0.0002-5.168 2.3139-5.168 5.1678 0 0.221 0.019 0.439 0.047 0.656 0.009 0.076 0.026 0.15 0.039 0.225 0.025 0.143 0.053 0.284 0.09 0.424 0.022 0.085 0.047 0.17 0.074 0.254 0.039 0.124 0.086 0.248 0.135 0.369 0.035 0.089 0.072 0.177 0.113 0.264 0.085 0.181 0.174 0.361 0.281 0.533-0.577-0.095-1.49-0.41-2.844-0.487-2.5648 0-4.6442 2.183-4.6442 4.876 0.0002 1.95 1.1067 3.712 2.8145 4.48 1.3528 0.832 1.3527 0.832 0.4707 1.853-0.8825 0.896-1.3809 2.128-1.3809 3.417 0.0017 1.128 0.3874 2.219 1.086 3.078 1.0733-2.123 3.1749-3.452 5.4649-3.454 1.434 0.048 1.476 1.607 0 1.626-1.832 0.002-3.491 1.134-4.2364 2.89-0.184 0.564-0.3381 1.138-0.3965 1.746-0.0055 0.079-0.0099 0.159-0.0117 0.238 0.0008 2.105 1.2886 3.972 3.1936 4.629 0.539 0.129 1.081 0.257 1.84 0.227 1.251-0.187 0 0 0.593 1.555 0.808 1.339 2.211 2.151 3.721 2.152 2.339 0 4.233-1.918 4.379-4.334v-18.975c0.104-0.797 0.512-1.115 0.914-1.107 0.402-0.008 0.81 0.31 0.914 1.107v18.975c0.146 2.416 2.04 4.334 4.379 4.334 1.51-0.001 2.913-0.813 3.721-2.152 0.593-1.555-0.658-1.742 0.593-1.555 0.759 0.03 1.301-0.098 1.84-0.227 1.905-0.657 3.193-2.524 3.194-4.629-0.002-0.079-0.006-0.157-0.012-0.236-0.059-0.608-0.213-1.182-0.397-1.746-0.745-1.756-2.404-2.888-4.236-2.891-1.476-0.018-1.434-1.577 0-1.625 2.29 0.002 4.392 1.331 5.465 3.454 0.699-0.859 1.084-1.95 1.086-3.079 0-1.288-0.499-2.52-1.381-3.416-0.882-1.021-0.882-1.021 0.471-1.853 1.707-0.768 2.814-2.53 2.814-4.481 0-2.692-2.079-4.875-4.644-4.875-1.354 0.076-2.267 0.392-2.844 0.487 0.107-0.172 0.196-0.352 0.281-0.533 0.041-0.087 0.078-0.177 0.113-0.266 0.049-0.121 0.096-0.244 0.135-0.369 0.027-0.084 0.052-0.169 0.074-0.254 0.037-0.14 0.065-0.281 0.09-0.424 0.013-0.075 0.029-0.149 0.039-0.225 0.028-0.216 0.047-0.435 0.047-0.656 0-2.8539-2.314-5.1676-5.168-5.1678-2.854 0.0002-5.168 2.3139-5.168 5.1678 0.001 0.215 0.018 0.43 0.045 0.643 0.008 0.058 0.022 0.115 0.031 0.174 0.026 0.155 0.056 0.31 0.096 0.463 0.089 0.344 0.208 0.681 0.367 1.001 0.961 1.229 0.165 2.441-0.371 1.879-0.781-0.9-1.555-2.909-1.574-4.16zm-5.938 4.346c0.333-0.051 0.697 0.137 0.792 0.619 0.086 2.381-1.594 4.453-3.883 4.688-0.144 0.015-0.288 0.023-0.432 0.023v-0.002c-1.584-0.006-3.036-0.921-3.787-2.385-0.411-1.063 0.555-1.638 1.172-0.806 0.535 1.153 1.696 1.836 2.912 1.713 1.503-0.155 2.612-1.479 2.625-3.03-0.032-0.478 0.269-0.769 0.601-0.82zm11.876 0c0.332 0.051 0.633 0.342 0.601 0.82 0.013 1.551 1.122 2.875 2.625 3.03 1.216 0.123 2.377-0.56 2.912-1.713 0.617-0.832 1.583-0.257 1.172 0.806-0.751 1.464-2.203 2.379-3.787 2.385v0.002c-0.144 0-0.288-0.008-0.432-0.023-2.289-0.235-3.969-2.307-3.883-4.688 0.095-0.482 0.459-0.67 0.792-0.619zm-10.569 6.559c0.454-0.036 0.909 0.045 1.326 0.236 0.554 0.284 0.082 1.502-0.853 1.154-0.124-0.02-0.25-0.029-0.375-0.017-0.825 0.065-1.445 0.819-1.383 1.685 0.062 0.867 0.782 1.518 1.607 1.453 0.127-0.01 0.253-0.038 0.373-0.082 0.933-0.443 1.53 0.577 1.002 1.008-0.385 0.253-0.822 0.404-1.275 0.441-1.545 0.122-2.891-1.095-3.008-2.716-0.117-1.622 1.041-3.037 2.586-3.161v-0.001zm9.262 0.001c1.545 0.124 2.703 1.539 2.586 3.161-0.117 1.621-1.463 2.838-3.008 2.716-0.453-0.037-0.89-0.188-1.275-0.441-0.528-0.431 0.069-1.451 1.002-1.008 0.12 0.044 0.246 0.072 0.373 0.082 0.825 0.065 1.545-0.586 1.607-1.453 0.062-0.866-0.558-1.62-1.383-1.685-0.125-0.012-0.251-0.003-0.375 0.019-0.935 0.348-1.407-0.87-0.853-1.154 0.417-0.191 0.872-0.272 1.326-0.237zm-11.908 8.692c0.144 0 0.288 0.008 0.431 0.023 2.376 0.244 4.113 2.462 3.881 4.955-0.123 1.328-0.812 2.57-1.857 3.329-1.225 0.628-1.597-0.783-0.907-1.161 0.776-0.503 1.286-1.357 1.375-2.31 0.158-1.688-1.02-3.19-2.628-3.356-1.217-0.123-2.378 0.56-2.913 1.713-0.45 1.048-1.746 0.536-1.171-0.806 0.751-1.464 2.205-2.378 3.789-2.385v-0.002zm14.554 0v0.002c1.584 0.007 3.038 0.921 3.789 2.385 0.575 1.342-0.721 1.854-1.171 0.806-0.535-1.153-1.696-1.836-2.913-1.713-1.608 0.166-2.786 1.668-2.628 3.356 0.089 0.953 0.599 1.807 1.375 2.31 0.69 0.378 0.318 1.789-0.907 1.161-1.045-0.759-1.734-2.001-1.857-3.329-0.232-2.493 1.505-4.711 3.881-4.955 0.143-0.015 0.287-0.023 0.431-0.023z" transform="matrix(.26458 0 0 .26458 0 284.3)" fill="#333"/>
 </g>
</svg>
