<svg width="48" height="48" viewBox="0 0 48 48" fill="none" xmlns="http://www.w3.org/2000/svg">
<path fill-rule="evenodd" clip-rule="evenodd" d="M48 0H0V48H48V0ZM32.8338 21.9647C31.8763 22.5548 30.7438 22.8705 29.5844 22.8705C28.7077 22.8705 28.4518 22.69 27.9652 22.3469C27.8083 22.2363 27.6272 22.1086 27.3937 21.9647C27.1249 22.2219 27.001 22.4559 26.8907 22.6644C26.7252 22.9772 26.5901 23.2324 26.041 23.4221C25.0645 23.8566 24.2425 24.5293 23.6682 25.3641C23.0938 26.1989 22.7901 27.1622 22.7915 28.1449V33.6794H19.8743V25.4872C19.8743 25.2016 19.7521 24.9296 19.5387 24.7398L16.1146 21.6963L15.4784 18.1972L19.1655 15.8509H20.7379V19.76C20.7379 20.3122 21.1856 20.76 21.7379 20.76C22.2902 20.76 22.7379 20.3122 22.7379 19.76V17.8957H23.9564L27.018 19.4265C27.512 19.6735 28.1127 19.4733 28.3597 18.9793C28.6067 18.4853 28.4064 17.8847 27.9125 17.6377L24.6397 16.0013C24.5009 15.9319 24.3478 15.8957 24.1925 15.8957H22.7379V15.0869L23.4385 13.6858C23.5156 13.6445 23.5854 13.5942 23.6471 13.5367L26.9104 14.13L29.5395 17.5103C29.6823 17.6939 29.8848 17.822 30.1119 17.8725L33.6736 18.664L35.1998 19.4271C35.6938 19.6741 36.2945 19.4739 36.5415 18.9799C36.7884 18.4859 36.5882 17.8852 36.0942 17.6383L34.4579 16.8201C34.3847 16.7835 34.3074 16.7561 34.2276 16.7383L32.164 16.2797L32.5833 15.4412H34.4198C34.9721 15.4412 35.4198 14.9935 35.4198 14.4412C35.4198 13.8889 34.9721 13.4412 34.4198 13.4412H31.9652C31.5865 13.4412 31.2402 13.6552 31.0708 13.994L30.3929 15.3498L28.6637 13.1266L30.1354 11.9493C30.5666 11.6043 30.6366 10.975 30.2916 10.5438C29.9466 10.1125 29.3173 10.0426 28.886 10.3876L26.8405 12.0239C26.8204 12.04 26.8011 12.0567 26.7826 12.074L23.4829 11.474L22.6571 9.54726C22.4396 9.03963 21.8517 8.80447 21.344 9.02203C20.8364 9.23959 20.6013 9.82747 20.8188 10.3351L21.7691 12.5524L21.1199 13.8509H19.721L18.5834 10.8173C18.3895 10.3002 17.813 10.0382 17.2959 10.2321C16.7788 10.426 16.5168 11.0025 16.7107 11.5196L17.7773 14.3637L14.3156 16.5665L11.5488 15.1831C11.0548 14.9361 10.4542 15.1364 10.2072 15.6303C9.96018 16.1243 10.1604 16.725 10.6544 16.972L13.4797 18.3846L14.1148 21.8774L12.0309 23.9613C11.6403 24.3519 11.6403 24.985 12.0309 25.3756C12.4214 25.7661 13.0545 25.7661 13.4451 25.3756L15.2325 23.5881L17.8743 25.9363V33.6794H15.1559C15.0005 32.4938 14.5527 31.3546 13.8453 30.3457C13.138 29.3368 12.1891 28.484 11.0685 27.8497C10.0959 27.4724 9.2562 26.8621 8.64022 26.0849C8.02424 25.3078 7.65545 24.3933 7.57375 23.4406C6.56142 22.4732 5.99826 21.1924 6.00011 19.8616C5.99236 18.7142 6.40957 17.5973 7.18545 16.6885C7.04266 16.2388 6.9738 15.7726 6.98108 15.3048C6.97913 14.1862 7.37528 13.0965 8.11115 12.1964L11.0685 10.3053C11.5222 9.38443 12.2615 8.60176 13.1971 8.05179C14.1327 7.50183 15.2247 7.20808 16.3412 7.20601C16.8023 7.20857 17.2617 7.25808 17.7105 7.3536C18.6603 6.55476 19.8803 6.06763 21.1741 5.97059L28.9574 6.3656C30.344 6.67512 31.5563 7.4338 32.3638 8.4974H32.7725L36.4029 9.64431C37.4326 10.3893 38.1491 11.4297 38.4336 12.5929C39.6794 13.0812 40.7017 13.9409 41.3293 15.0282C41.9569 16.1156 42.1518 17.3645 41.8813 18.5659C41.6107 19.7674 40.8913 20.8486 39.8433 21.6285L36.1242 22.8502C34.9534 22.8625 33.806 22.5537 32.8338 21.9647ZM23 38H15V36H23V38ZM15 42H23V40H15V42Z" fill="#333333"/>
</svg>
