<svg width="48" height="48" viewBox="0 0 48 48" fill="none" xmlns="http://www.w3.org/2000/svg">
<path d="M24.0012 30.5L24 30.5C22.3941 30.5 20.8875 30.8615 19.5366 31.4939C19.3465 31.5829 19.2508 31.7312 19.225 31.9142C19.1973 32.1111 19.2528 32.3602 19.4142 32.5866L24.0012 30.5ZM24.0012 30.5C25.4504 30.4965 26.8773 30.7993 28.1907 31.3813C28.4259 31.4854 28.5706 31.7025 28.6025 31.9913C28.6353 32.2878 28.5397 32.6185 28.3271 32.8596C28.0347 33.1912 27.5562 33.2661 26.9874 33.0468M24.0012 30.5L26.9874 33.0468M26.9874 33.0468C26.0641 32.6909 25.0651 32.5 24 32.5M26.9874 33.0468L24 32.5M24 32.5C23.0456 32.5 22.1453 32.6533 21.3011 32.9356M24 32.5L21.3011 32.9356M21.3011 32.9356C20.5261 33.1947 19.7529 33.0616 19.4142 32.5867L21.3011 32.9356ZM19.5 19C19.5 20.3807 18.3807 21.5 17 21.5C15.6193 21.5 14.5 20.3807 14.5 19C14.5 17.6193 15.6193 16.5 17 16.5C18.3807 16.5 19.5 17.6193 19.5 19ZM33.5 19C33.5 20.3807 32.3807 21.5 31 21.5C29.6193 21.5 28.5 20.3807 28.5 19C28.5 17.6193 29.6193 16.5 31 16.5C32.3807 16.5 33.5 17.6193 33.5 19ZM4.5 24C4.5 13.2355 13.2168 4.5 23.98 4.5C34.7642 4.5 43.5 13.2365 43.5 24C43.5 34.7635 34.7642 43.5 23.98 43.5C13.2168 43.5 4.5 34.7645 4.5 24ZM7.5 24C7.5 33.1161 14.8839 40.5 24 40.5C33.1161 40.5 40.5 33.1161 40.5 24C40.5 14.8839 33.1161 7.5 24 7.5C14.8839 7.5 7.5 14.8839 7.5 24Z" stroke="#333333"/>
</svg>
