<svg width="48" height="48" viewBox="0 0 48 48" fill="none" xmlns="http://www.w3.org/2000/svg">
<path d="M22.7388 5.59241C20.5595 5.61131 18.5696 5.78281 16.8774 6.03959L17.4751 8.12948C15.8607 10.1347 15.4943 13.4711 15.5278 18.2251C15.5369 18.7802 15.558 20.1058 16.772 20.2896C16.8949 22.0495 17.4428 23.6874 18.7036 24.4811C20.7596 25.7753 21.7806 26.6259 23.5903 26.6822C24.8297 26.6859 26.4135 25.5665 28.1235 24.4966C29.4353 23.6758 30.1931 22.0887 30.3892 20.3736C31.6282 20.4462 31.4084 19.0346 31.5122 18.2251C31.536 12.6394 31.1171 9.30754 29.2974 7.53373C29.4397 7.04568 29.5773 6.57278 29.7349 6.03763C27.2859 5.70088 24.918 5.57197 22.7388 5.59241ZM23.5259 5.86185C23.4998 5.86193 23.4776 5.86562 23.4517 5.86566C23.8986 5.87322 24.3576 5.88456 24.8774 5.91064C24.47 5.88041 24.0413 5.86483 23.5845 5.8637C25.7403 5.87126 27.8149 6.01571 29.397 6.2915C29.2799 6.65849 29.1855 6.98661 29.0825 7.32854C28.7981 8.27286 28.5348 9.17794 28.2114 10.1919C28.0201 10.1919 20.4282 10.1909 18.3501 10.1919L17.6567 7.88518L17.1782 6.2915C19.0926 5.99708 21.3488 5.85758 23.5259 5.86174V5.86185ZM22.8364 6.35206V7.54735H21.6411V8.48681H22.8364V9.68417H23.7759V8.48681H24.9731V7.54735H23.7759V6.35206H22.8364ZM19.6333 11.3775C21.7619 13.5154 27.0507 14.6478 29.7446 13.645C29.7749 15.4963 29.7786 17.3503 29.7896 19.2017C29.7896 21.0464 29.0785 22.869 27.688 23.7388C26.1416 24.7065 24.7111 25.717 23.5903 25.7134C21.9538 25.6665 21.0316 24.8957 19.1724 23.7251C17.8587 22.8982 17.3989 21.056 17.3989 19.2017V14.3735C18.0313 12.8896 19.2802 14.8957 19.6333 11.3775ZM20.6353 15.6079C20.2034 15.608 19.8521 15.9595 19.8521 16.3912C19.8521 16.823 20.2035 17.1723 20.6353 17.1724C21.0671 17.1723 21.4164 16.8228 21.4165 16.3912C21.4164 15.9593 21.0671 15.608 20.6353 15.6079ZM26.5063 15.6079C26.0745 15.608 25.7232 15.9595 25.7231 16.3912C25.7232 16.823 26.0745 17.1723 26.5063 17.1724C26.9382 17.1723 27.2875 16.8228 27.2876 16.3912C27.2875 15.9593 26.9382 15.608 26.5063 15.6079ZM23.4985 19.2193C23.1349 19.2268 22.8609 19.2907 22.8657 19.3659C22.8677 19.4456 23.1828 19.5103 23.5708 19.5103C23.9588 19.5103 24.2739 19.446 24.2759 19.3659C24.279 19.2857 23.9624 19.2193 23.5708 19.2193C23.547 19.219 23.5222 19.219 23.4985 19.2193H23.4985ZM23.5513 21.7231C22.1243 21.7268 21.0207 21.7719 21.0317 21.8248C21.0238 21.8796 22.2401 21.9246 23.7427 21.9246C25.2445 21.9246 26.4596 21.88 26.4517 21.8248C26.4596 21.7697 25.2445 21.7231 23.7427 21.7231C23.6786 21.723 23.6153 21.723 23.5513 21.7231ZM31.1665 26.8795L23.7739 30.9223L16.1216 27.1548C12.5996 28.0053 8.30467 29.6006 8.28955 32.2466L8.30713 42.3756L39.688 42.4262L39.7076 32.2484C39.6151 29.0086 34.4925 27.474 31.1666 26.8792L31.1665 26.8795ZM32.9614 35.643L32.979 36.8599L26.7114 36.8939V35.7065L32.9614 35.643Z" fill="#333333"/>
</svg>
