<svg width="48" height="48" viewBox="0 0 48 48" fill="none" xmlns="http://www.w3.org/2000/svg">
<path d="M16.5 20C16.5 18.7638 16.7983 17.5986 17.3269 16.5714C17.6009 17.139 18.2055 17.4779 18.8392 17.4134C22.6216 17.0288 25.3784 17.0288 29.1608 17.4134C29.7945 17.4778 30.3991 17.139 30.6731 16.5714C31.2017 17.5986 31.5 18.7638 31.5 20C31.5 24.1439 28.1439 27.5 24 27.5C19.8561 27.5 16.5 24.1439 16.5 20ZM8.5 43.5V40C8.5 38.519 9.4575 37.2057 11.09 36.0785C12.7147 34.9566 14.9187 34.0859 17.1878 33.4832C18.2437 33.2028 19.3523 33.6135 20.5427 34.1989C20.7347 34.2933 20.9319 34.3938 21.1304 34.495C21.5157 34.6913 21.9057 34.8901 22.2712 35.0513C22.8303 35.2979 23.4214 35.5 24 35.5C24.5786 35.5 25.1697 35.2979 25.7288 35.0513C26.0943 34.8901 26.4843 34.6913 26.8696 34.495C27.0681 34.3938 27.2653 34.2933 27.4573 34.1989C28.6477 33.6135 29.7563 33.2028 30.8122 33.4832C33.0813 34.0859 35.2853 34.9566 36.91 36.0785C38.5425 37.2057 39.5 38.519 39.5 40V43.5H8.5ZM18.0043 10.6518C22.2381 9.11609 25.7619 9.1161 29.9957 10.6518C30.2193 10.733 30.3508 10.98 30.283 11.2289L29.2504 15.0148C29.1846 15.2561 28.9457 15.4173 28.6862 15.3841C25.3567 14.958 22.6433 14.958 19.3138 15.3841C19.0543 15.4173 18.8154 15.2561 18.7496 15.0148L17.717 11.2289C17.6492 10.98 17.7807 10.7329 18.0043 10.6518Z" stroke="black"/>
<path d="M28.5 40.5V40H34.5V40.5H28.5Z" stroke="black"/>
<path d="M24.5629 12.0643H24.0629V12.5643V13H23.9371V12.5643V12.0643H23.4371H23V11.9397H23.4371H23.9371V11.4397V11H24.0629V11.4397V11.9397H24.5629H25V12.0643H24.5629Z" stroke="black"/>
</svg>
