<svg width="48" height="48" viewBox="0 0 48 48" fill="none" xmlns="http://www.w3.org/2000/svg">
<g clip-path="url(#clip0)">
<path fill-rule="evenodd" clip-rule="evenodd" d="M0.0078125 0.0136719V48.0137H48.0078V0.0136719H0.0078125ZM23.291 5.15234C25.4703 5.1319 27.8382 5.2609 30.2871 5.59766C30.036 6.45062 29.8137 7.21586 29.5898 7.98242C30.2341 8.49568 30.8262 9.09392 31.3262 9.80273C33.4956 13.1998 33.6001 18.9305 32.7656 24.3926C32.2246 27.4743 29.1608 25.3395 27.2363 25.748C27.2353 25.749 27.2314 25.7473 27.2305 25.748C26.0197 26.5054 24.911 27.1314 23.9922 27.1289C22.6236 27.0862 21.7037 26.5774 20.4414 25.7715C18.5228 25.2867 15.3842 27.5158 14.8359 24.3926C14.1736 18.855 14.2058 13.1993 16.6543 9.77344C17.1975 9.05998 17.5009 8.59447 18.1426 8.0918L17.4297 5.59961C19.1219 5.34283 21.1117 5.17124 23.291 5.15234ZM24.0781 5.42187C21.901 5.41772 19.6448 5.55714 17.7305 5.85156L18.9023 9.75195C20.9804 9.75093 28.5723 9.75192 28.7637 9.75195C29.2041 8.37084 29.5088 7.2326 29.9492 5.85156C28.3526 5.57346 26.2552 5.42565 24.0781 5.42187ZM23.3887 5.91211H24.3281V7.10742H25.5254V8.04687H24.3281V9.24414H23.3887V8.04687H22.1934V7.10742H23.3887V5.91211ZM24.9727 11.3145C22.773 13.5237 20.6058 15.854 17.8672 15.9844V19.7227C17.8672 21.5575 18.3193 23.383 19.6191 24.2012C21.4589 25.3596 22.3708 26.1215 23.9902 26.168C25.0993 26.1715 26.5167 25.1704 28.0469 24.2129C28.5991 23.8675 29.0377 23.3653 29.3711 22.7754C31.0439 18.0508 29.4921 14.7928 24.9727 11.3145ZM21.0684 16.166C21.4957 16.1661 21.8417 16.5141 21.8418 16.9414C21.8417 17.3686 21.4957 17.7147 21.0684 17.7148C20.6403 17.7158 20.293 17.3695 20.293 16.9414C20.2931 16.5134 20.6403 16.1651 21.0684 16.166ZM26.877 16.166C27.3043 16.1661 27.6503 16.5141 27.6504 16.9414C27.6503 17.3686 27.3043 17.7147 26.877 17.7148C26.4496 17.7147 26.1016 17.3687 26.1016 16.9414C26.1017 16.5141 26.4497 16.1661 26.877 16.166ZM23.9219 19.7422C23.9383 19.7421 23.9542 19.7421 23.9707 19.7422C24.3549 19.7422 24.6664 19.8058 24.668 19.8848C24.6657 19.9638 24.3544 20.0274 23.9707 20.0273C23.5878 20.027 23.2777 19.9634 23.2754 19.8848C23.2759 19.8096 23.5578 19.746 23.9219 19.7422ZM23.5156 22.2207C23.6674 22.2202 23.8208 22.2202 23.9727 22.2207C25.4407 22.2207 26.6347 22.2647 26.6523 22.3184C26.6634 22.3728 25.461 22.4141 23.9727 22.4141C22.4843 22.4141 21.2819 22.3728 21.293 22.3184C21.2896 22.27 22.2276 22.2283 23.5156 22.2207ZM31.3555 27.2754C34.6814 27.8702 36.6653 29.438 36.7578 32.6777L36.7969 42.8789H11.3047L11.2187 32.6426C11.2339 29.9966 12.7886 28.4013 16.3105 27.5508L23.9629 31.3184L31.3555 27.2754ZM26.9004 36.1016V37.2891H31.7129V36.1016H26.9004Z" fill="#333333"/>
</g>
<defs>
<clipPath id="clip0">
<rect width="48" height="48" fill="white"/>
</clipPath>
</defs>
</svg>
