<svg width="48" height="48" viewBox="0 0 48 48" fill="none" xmlns="http://www.w3.org/2000/svg">
<path d="M22.9844 5.42374C20.8051 5.44263 18.8153 5.61422 17.123 5.871L17.668 7.89835C17.6117 7.95561 17.552 8.0061 17.4883 8.08194C15.8739 10.0872 15.5075 13.4236 15.541 18.1776C15.5501 18.7327 15.5711 20.0583 16.7852 20.2421C16.9081 22.002 17.456 23.6398 18.7168 24.4335C20.7728 25.7278 21.7938 26.5783 23.6035 26.6347C24.8429 26.6384 26.4267 25.519 28.1367 24.4491C29.4485 23.6283 30.2063 22.0412 30.4023 20.3261C31.6414 20.3986 31.4216 18.9871 31.5254 18.1776C31.5492 12.592 31.5053 9.76782 29.6855 7.99405C29.593 7.87912 29.5107 7.80964 29.4238 7.74014C29.5992 7.13586 29.7552 6.62643 29.9551 5.86905C27.5061 5.53229 25.1636 5.40524 22.9844 5.42569V5.42374ZM23.7715 5.69327C23.7454 5.69334 23.7232 5.69709 23.6973 5.69717C24.1442 5.70473 24.6032 5.71602 25.123 5.7421C24.7156 5.71186 24.2869 5.69635 23.8301 5.69522C25.9859 5.70278 28.0292 5.89438 29.6113 6.16983C29.4942 6.53682 29.4311 6.81809 29.3281 7.16006C29.0437 8.10438 28.7804 9.00941 28.457 10.0233C28.2657 10.0233 20.6582 9.91299 18.5801 9.91397L17.9023 7.71671L17.8945 7.69327L17.8926 7.66592C17.8911 7.66735 17.8902 7.66841 17.8887 7.66983L17.4238 6.12296C19.3382 5.82853 21.5944 5.68911 23.7715 5.69327ZM23.082 6.1835V7.37881H21.8867V8.31827H23.082V9.51553H24.0215V8.31827H25.2187V7.37881H24.0215V6.1835H23.082ZM29.2754 8.26553C29.603 8.5337 29.8247 8.72563 30.166 9.20303C31.2129 11.0468 31.1661 14.478 31.1523 17.4726C31.1757 19.9093 30.9386 19.9357 30.4199 19.8612C30.3747 17.2775 30.3043 14.9769 30.209 12.7362C26.723 14.423 20.602 12.3349 19.2852 10.3808C19.2245 11.5263 19.2276 12.9657 18.5176 13.0624C18.0078 13.1319 17.7252 13.0258 17.0527 13.8769L16.7812 19.6757C16.4539 19.7842 16.0929 19.5423 16.0215 18.8769C15.8693 15.7192 16.0191 10.4944 17.8027 8.4042L18.3926 10.2108C21.4324 10.2032 28.2095 10.3141 28.6543 10.3065C28.6543 10.3065 28.9282 9.43589 29.2754 8.26553ZM19.6465 11.33C21.7751 13.4678 27.1518 14.3992 29.8457 13.3964C29.8759 15.2477 30.0574 17.2813 30.0684 19.1327C30.0684 20.9774 29.1659 23.2707 27.916 23.9999C27.1197 24.5444 25.3487 25.9854 23.5684 26.1132C21.9318 26.0663 20.8456 25.2018 18.9863 24.0312C17.6727 23.2043 17.1914 21.0299 17.1914 19.1757L17.4121 14.3261C18.0444 12.8421 19.2934 14.8482 19.6465 11.33ZM20.6484 15.5605C20.2166 15.5605 19.8653 15.912 19.8652 16.3437C19.8653 16.7755 20.2166 17.1248 20.6484 17.1249C21.0803 17.1248 21.4296 16.7753 21.4297 16.3437C21.4296 15.9118 21.0803 15.5605 20.6484 15.5605ZM26.5195 15.5605C26.0877 15.5605 25.7364 15.912 25.7363 16.3437C25.7364 16.7755 26.0877 17.1248 26.5195 17.1249C26.9514 17.1248 27.3007 16.7753 27.3008 16.3437C27.3007 15.9118 26.9514 15.5605 26.5195 15.5605ZM23.5117 19.1718C23.1481 19.1794 22.8741 19.2431 22.8789 19.3183C22.8809 19.398 23.196 19.4628 23.584 19.4628C23.972 19.4628 24.2871 19.3984 24.2891 19.3183C24.2922 19.2381 23.9756 19.1718 23.584 19.1718C23.5602 19.1715 23.5354 19.1715 23.5117 19.1718ZM23.5645 21.6757C22.1374 21.6794 21.0338 21.7243 21.0449 21.7773C21.037 21.8321 22.2533 21.8769 23.7559 21.8769C25.2577 21.8769 26.4728 21.8321 26.4648 21.7773C26.4727 21.7221 25.2577 21.6757 23.7559 21.6757C23.6918 21.6756 23.6285 21.6756 23.5645 21.6757ZM31.1797 26.83V26.8319L23.7871 30.8749L16.1348 27.1073C15.2052 27.3318 14.2256 27.6133 13.2812 27.9472L12.834 28.1171C10.3918 29.0435 8.31322 30.364 8.30273 32.1991L8.32031 42.328L39.7012 42.3788L39.7207 32.2011C39.6479 29.6534 36.2962 28.1493 33.3164 27.3378V27.33C33.1332 27.2827 32.8476 27.2112 32.6094 27.1288C32.1121 27.0124 31.6284 26.9105 31.1797 26.83ZM31.3184 27.4237C31.3184 27.4237 38.8768 28.8565 39.2207 32.289L39.2109 41.9003L8.82227 41.9081L8.79687 32.3651C8.94142 29.6701 14.6048 27.8468 16.0254 27.7519L23.7871 31.58L31.3184 27.4237ZM26.8125 35.373V36.6444H33.0625V35.373H26.8125Z" fill="#333333"/>
</svg>
