<svg width="48" height="48" viewBox="0 0 48 48" fill="none" xmlns="http://www.w3.org/2000/svg">
<path d="M23.291 4.57044C21.1117 4.58934 19.1219 4.75713 17.4297 5.0138L18.1426 7.50599C18.1431 7.50746 18.142 7.50842 18.1426 7.50989C17.5009 8.01257 17.1975 8.47807 16.6543 9.19153C14.2058 12.6174 14.1736 18.2731 14.8359 23.8107C15.3842 26.9339 18.5658 24.3747 20.4844 24.8595C21.7466 25.6654 22.6236 26.5043 23.9922 26.547C24.911 26.5495 26.0197 25.9235 27.2305 25.1661C29.1549 24.7576 32.2246 26.8924 32.7656 23.8107C33.6001 18.3486 33.4956 12.6179 31.3262 9.22083C30.8262 8.51202 30.2341 7.91378 29.5898 7.40052C29.8137 6.63393 30.036 5.86875 30.2871 5.01575C27.8382 4.679 25.4703 4.54999 23.291 4.57044ZM24.0781 4.83997C26.2552 4.84375 28.3526 4.99171 29.9492 5.26966C29.5088 6.6507 29.2041 7.78893 28.7637 9.17005C28.5723 9.17001 20.9804 9.16905 18.9023 9.17005L17.7305 5.26966C19.6448 4.97523 21.901 4.83581 24.0781 4.83997ZM23.3887 5.3302V6.52552H22.1934V7.46497H23.3887V8.66224H24.3281V7.46497H25.5254V6.52552H24.3281V5.3302H23.3887ZM29.4375 7.8927C30.0247 8.29165 30.4203 8.67693 30.7949 9.25208C32.9643 12.6492 33.2563 18.2666 32.4219 23.7286C31.9121 26.2166 29.5202 24.4686 27.5957 24.8771C28.1479 24.5317 29.4792 23.0275 29.8125 22.4376C31.4853 17.713 30.2634 13.9941 24.9043 9.98255C22.7047 12.1918 20.2279 15.2685 17.3125 14.8243L17.3594 19.6251C17.8266 22.456 18.0954 23.0618 19.4395 24.0568C19.6572 24.1946 19.8826 24.3278 20.1094 24.4611V24.4786C18.1515 24.0993 15.6764 26.4855 15.1328 23.3888C14.3719 15.6288 15.5219 10.4795 18.2988 7.99427C18.4615 8.47761 18.6013 8.90206 18.7598 9.42591C20.8347 9.41538 26.4141 9.41221 28.9727 9.40833C29.1665 8.71911 29.2789 8.37864 29.4375 7.8927ZM24.9727 10.7325C29.4921 14.2109 31.0439 17.4689 29.3711 22.1935C29.0985 22.8662 28.248 23.7404 28.248 23.7404C27.1543 24.7918 25.1461 26.074 24.0371 26.0704C22.4177 26.024 21.4589 24.7777 19.6191 23.6193C18.3193 22.8011 17.8672 20.9756 17.8672 19.1408V15.4025C20.6058 15.2721 22.773 12.9418 24.9727 10.7325ZM21.0684 15.5841C20.6403 15.5832 20.2931 15.9315 20.293 16.3595C20.293 16.7876 20.6403 17.1339 21.0684 17.1329C21.4957 17.1328 21.8417 16.7867 21.8418 16.3595C21.8417 15.9322 21.4957 15.5842 21.0684 15.5841ZM26.877 15.5841C26.4497 15.5842 26.1017 15.9322 26.1016 16.3595C26.1016 16.7868 26.4496 17.1328 26.877 17.1329C27.3043 17.1328 27.6503 16.7867 27.6504 16.3595C27.6503 15.9322 27.3043 15.5842 26.877 15.5841ZM23.9219 19.1603C23.5578 19.1641 23.2759 19.2277 23.2754 19.3029C23.2777 19.3815 23.5878 19.4451 23.9707 19.4454C24.3544 19.4455 24.6657 19.3819 24.668 19.3029C24.6664 19.2239 24.3549 19.1603 23.9707 19.1603C23.9542 19.1602 23.9384 19.1602 23.9219 19.1603ZM23.5156 21.6388C22.2276 21.6464 21.2896 21.6881 21.293 21.7365C21.2819 21.7909 22.4843 21.8341 23.9727 21.8341C25.461 21.8341 26.6634 21.7909 26.6523 21.7365C26.6347 21.6828 25.4407 21.6388 23.9727 21.6388C23.8208 21.6383 23.6674 21.6383 23.5156 21.6388ZM31.3555 26.6935L23.9629 30.7365L16.3105 26.9689C12.7886 27.8194 11.2339 29.4147 11.2188 32.0607L11.3047 42.297H36.7969L36.7578 32.0958C36.6653 28.8561 34.6814 27.2883 31.3555 26.6935ZM31.3555 27.1935C32.3619 27.2595 36.1745 28.2745 36.2578 32.0958L36.2969 41.797H11.8047L11.7266 32.1427C11.7417 29.4967 12.7886 28.3194 16.3105 27.4689L23.9629 31.2365L31.3555 27.1935ZM26.9004 35.5197V36.7072H31.7129V35.5197H26.9004Z" fill="#333333"/>
</svg>
