<svg width="48" height="48" viewBox="0 0 48 48" fill="none" xmlns="http://www.w3.org/2000/svg">
<path d="M17.4394 15.4193C16.5321 16.7167 16 18.2959 16 20C16 24.42 19.58 28 24 28C28.42 28 32 24.42 32 20C32 18.2959 31.4679 16.7167 30.5606 15.4193L30.265 16.2528C30.1098 16.6905 29.6734 16.963 29.2113 16.916C25.3953 16.528 22.6047 16.528 18.7887 16.916C18.3266 16.963 17.8902 16.6905 17.735 16.2528L17.4394 15.4193Z" fill="#333333"/>
<path fill-rule="evenodd" clip-rule="evenodd" d="M24 35C22.1151 35 19.5673 32.3339 17.0595 33C12.4626 34.2209 8 36.5579 8 40V44H40V40C40 36.5579 35.5374 34.2209 30.9405 33C28.4327 32.3339 25.8849 35 24 35ZM28 39.5H35V41H28V39.5Z" fill="#333333"/>
<path fill-rule="evenodd" clip-rule="evenodd" d="M30.7653 11.3604C30.8991 10.8702 30.6439 10.3551 30.1662 10.1818C25.8223 8.60612 22.1777 8.6061 17.8338 10.1818C17.3561 10.3551 17.1009 10.8701 17.2347 11.3604L18.2672 15.1464C18.4001 15.6338 18.8762 15.9441 19.3773 15.88C22.6646 15.4593 25.3354 15.4593 28.6227 15.88C29.1238 15.9441 29.5999 15.6338 29.7328 15.1464L30.7653 11.3604ZM25.5 12.5643H24.5629V13.5H23.4371V12.5643H22.5V11.4397H23.4371V10.5H24.5629V11.4397H25.5V12.5643Z" fill="#333333"/>
</svg>
