<svg width="48" height="48" viewBox="0 0 48 48" fill="none" xmlns="http://www.w3.org/2000/svg">
<g clip-path="url(#clip0)">
<path fill-rule="evenodd" clip-rule="evenodd" d="M0.0175781 0V48H48.0176V0H0.0175781ZM33.791 4.92773C35.9162 4.92786 37.9543 5.76868 39.457 7.26562C40.9597 8.76256 41.8047 10.7932 41.8047 12.9102C41.8048 13.9584 41.5961 14.9963 41.1934 15.9648C40.7908 16.9333 40.2011 17.8134 39.457 18.5547C38.7129 19.296 37.8296 19.884 36.8574 20.2852C35.8852 20.6864 34.8433 20.8925 33.791 20.8926C32.7385 20.8927 31.6969 20.6863 30.7246 20.2852C29.7522 19.884 28.8691 19.296 28.125 18.5547C27.3808 17.8134 26.7894 16.9333 26.3867 15.9648C25.984 14.9962 25.7772 13.9585 25.7773 12.9102C25.7773 11.8619 25.984 10.8239 26.3867 9.85547C26.7894 8.88699 27.3808 8.00686 28.125 7.26562C28.8692 6.52441 29.7523 5.93628 30.7246 5.53516C31.6969 5.13405 32.7386 4.92766 33.791 4.92773ZM33.791 6.61523C32.9684 6.61516 32.1545 6.77744 31.3945 7.09375C30.6345 7.41006 29.943 7.87445 29.3613 8.45898C28.7797 9.04351 28.3187 9.73625 28.0039 10.5C27.6891 11.2637 27.5273 12.0835 27.5273 12.9102C27.5273 13.7369 27.6891 14.5546 28.0039 15.3184C28.3187 16.0821 28.7796 16.7768 29.3613 17.3613C29.9429 17.9459 30.6345 18.4103 31.3945 18.7266C32.1544 19.0429 32.9684 19.2052 33.791 19.2051C35.4521 19.205 37.0443 18.5418 38.2188 17.3613C39.3932 16.1808 40.0547 14.5796 40.0547 12.9102C40.0547 11.2408 39.3933 9.63945 38.2188 8.45898C37.0443 7.2785 35.452 6.61536 33.791 6.61523ZM33.1777 8.99023C33.6797 8.99023 34.084 9.39448 34.084 9.89648V12.7402H36.9277C37.4297 12.7402 37.834 13.1445 37.834 13.6465C37.834 14.1495 37.4297 14.5527 36.9277 14.5527H33.1777C32.6757 14.5527 32.2715 14.1495 32.2715 13.6465V9.89648C32.2715 9.39448 32.6757 8.99023 33.1777 8.99023ZM11.2441 19.4902C12.8288 19.4898 14.1137 20.7747 14.1133 22.3594C14.1136 23.9441 12.8288 25.2288 11.2441 25.2285C9.65944 25.2288 8.37468 23.9441 8.375 22.3594C8.3747 20.7747 9.65944 19.4898 11.2441 19.4902ZM17.3477 21.6035L35.3125 21.6055C36.194 21.6055 36.9023 22.3158 36.9023 23.1973C36.9023 23.2279 36.8962 23.2569 36.8945 23.2871H36.9023V25.0234H27.2227V25.0176H15.7559V23.2852H15.7637C15.762 23.2549 15.7559 23.2256 15.7559 23.1953C15.7559 22.3139 16.4663 21.6035 17.3477 21.6035ZM8.79492 25.9805L14.8965 25.9824H36.6016C38.0216 25.9824 39.166 27.1248 39.166 28.5449V30.9316C39.166 30.9442 39.1673 31.0814 39.166 31.3184V41.4375C39.166 42.3433 38.4371 43.0742 37.5312 43.0742C36.6254 43.0742 35.8965 42.3433 35.8965 41.4375V31.3184C35.8965 31.1849 35.8939 31.0673 35.8965 30.9316H14.8965L9.50195 30.9434C9.50065 31.0753 9.50195 31.183 9.50195 31.3164V41.4375C9.50195 42.3434 8.77307 43.0742 7.86719 43.0742C6.96132 43.0742 6.23242 42.3434 6.23242 41.4375V31.3164C6.23242 31.2306 6.23763 31.0268 6.23242 30.9297V28.543C6.23242 27.123 7.37492 25.9805 8.79492 25.9805Z" fill="#333333"/>
</g>
<defs>
<clipPath id="clip0">
<rect width="48" height="48" fill="white"/>
</clipPath>
</defs>
</svg>
