<svg width="48" height="48" viewBox="0 0 48 48" fill="none" xmlns="http://www.w3.org/2000/svg">
<path d="M33.873 5.02734C32.8207 5.02729 31.7789 5.23364 30.8066 5.63477C29.8343 6.0359 28.9511 6.624 28.207 7.36523C27.4628 8.10647 26.8734 8.98659 26.4707 9.95508C26.068 10.9236 25.8594 11.9615 25.8594 13.0098C25.8594 14.0581 26.068 15.096 26.4707 16.0645C26.8734 17.0329 27.4628 17.9131 28.207 18.6543C28.9511 19.3955 29.8343 19.9836 30.8066 20.3848C31.7789 20.7859 32.8207 20.9922 33.873 20.9922C34.9254 20.9922 35.9672 20.7859 36.9395 20.3848C37.9118 19.9836 38.7968 19.3955 39.541 18.6543C40.2851 17.9131 40.8746 17.0329 41.2773 16.0645C41.6801 15.096 41.8867 14.0581 41.8867 13.0098C41.8867 11.9615 41.6801 10.9236 41.2773 9.95508C40.8746 8.98659 40.2851 8.10647 39.541 7.36523C38.7968 6.624 37.9118 6.0359 36.9395 5.63477C35.9672 5.23364 34.9254 5.02729 33.873 5.02734ZM33.8691 5.5293C34.8534 5.52925 35.829 5.72192 36.7383 6.09766C37.6476 6.47339 38.474 7.02446 39.1699 7.71875C39.8658 8.41305 40.4165 9.23744 40.793 10.1445C41.1696 11.0517 41.3635 12.0241 41.3633 13.0059C41.3631 14.9884 40.5734 16.8893 39.168 18.291C37.7626 19.6928 35.8565 20.4806 33.8691 20.4805C31.8817 20.4806 29.9757 19.6928 28.5703 18.291C27.1649 16.8893 26.3752 14.9884 26.375 13.0059C26.3748 12.0241 26.5688 11.0517 26.9453 10.1445C27.3218 9.23744 27.8744 8.41305 28.5703 7.71875C29.2662 7.02446 30.0927 6.47339 31.002 6.09766C31.9114 5.72192 32.8849 5.52925 33.8691 5.5293ZM33.877 6.21289C32.0777 6.21309 30.3525 6.92936 29.0801 8.20508C27.8077 9.48079 27.0921 11.2114 27.0918 13.0156C27.0916 14.8201 27.8077 16.5501 29.0801 17.8262C30.3525 19.1023 32.0773 19.8201 33.877 19.8203C35.6767 19.8201 37.4033 19.1023 38.6758 17.8262C39.9482 16.5501 40.6624 14.8201 40.6621 13.0156C40.6619 11.2114 39.9482 9.48079 38.6758 8.20508C37.4034 6.92936 35.6764 6.21309 33.877 6.21289ZM33.873 6.71484C34.6956 6.71479 35.5115 6.87704 36.2715 7.19336C37.0314 7.50968 37.7211 7.97406 38.3027 8.55859C38.8844 9.14312 39.3455 9.83585 39.6602 10.5996C39.975 11.3633 40.1367 12.1831 40.1367 13.0098C40.1367 13.8365 39.975 14.6543 39.6602 15.418C39.3455 16.1818 38.8844 16.8763 38.3027 17.4609C37.7211 18.0454 37.0314 18.5079 36.2715 18.8242C35.5115 19.1405 34.6956 19.3048 33.873 19.3047C33.0505 19.3048 32.2366 19.1405 31.4766 18.8242C30.7167 18.5079 30.0269 18.0454 29.4453 17.4609C28.8636 16.8763 28.4007 16.1818 28.0859 15.418C27.7712 14.6543 27.6094 13.8365 27.6094 13.0098C27.6094 12.1831 27.7712 11.3633 28.0859 10.5996C28.4007 9.83585 28.8636 9.14312 29.4453 8.55859C30.0269 7.97406 30.7167 7.50968 31.4766 7.19336C32.2366 6.87704 33.0505 6.71479 33.873 6.71484ZM33.2598 9.08984C32.7577 9.08984 32.3535 9.49402 32.3535 9.99609V13.7461C32.3535 14.2481 32.7577 14.6523 33.2598 14.6523H37.0098C37.5119 14.6523 37.916 14.2481 37.916 13.7461C37.916 13.244 37.5119 12.8398 37.0098 12.8398H34.166V9.99609C34.166 9.49402 33.7619 9.08984 33.2598 9.08984ZM33.2598 9.5918C33.4834 9.5918 33.6621 9.77245 33.6621 9.99609V13.3438H37.0098C37.2312 13.3438 37.4102 13.5225 37.4102 13.7441C37.4102 13.9656 37.2312 14.1426 37.0098 14.1426C35.7711 14.1426 34.5156 14.1387 33.2852 14.1445C33.1096 14.1479 32.8518 13.9492 32.8555 13.5352V9.99609C32.8555 9.77234 33.0362 9.5918 33.2598 9.5918ZM11.3281 19.5918C9.74342 19.5915 8.45868 20.8762 8.45898 22.4609C8.45866 24.0456 9.74342 25.3304 11.3281 25.3301C12.9129 25.3304 14.1976 24.0456 14.1973 22.4609C14.1976 20.8762 12.9129 19.5915 11.3281 19.5918ZM11.3457 20.0996C12.6515 20.0989 13.7106 21.1544 13.7109 22.457C13.7106 23.7595 12.6515 24.8152 11.3457 24.8145C10.0407 24.8141 8.98282 23.7588 8.98242 22.457C8.98272 21.1552 10.0407 20.1 11.3457 20.0996ZM17.4316 21.7051C16.5502 21.7051 15.8398 22.4155 15.8398 23.2969C15.8398 23.4404 15.8398 23.3867 15.8477 23.3867H15.8398L15.8203 25.1289L27.2637 25.123H36.9883V23.2969C36.9883 22.4155 36.2798 21.7051 35.3984 21.7051H17.4316ZM17.623 22.2012V22.2031H35.5488C35.9803 22.2031 36.3361 22.4779 36.4766 22.8594H36.4824V24.6191H26.7754L16.3438 24.6035L16.3398 23.4844C16.3398 22.7738 16.9124 22.2012 17.623 22.2012ZM8.87891 26.082C7.45887 26.082 6.31641 27.2245 6.31641 28.6445V31.0312C6.32162 31.1283 6.31641 31.3321 6.31641 31.418V41.5371C6.31641 42.443 7.04529 43.1738 7.95117 43.1738C8.85708 43.1738 9.58594 42.443 9.58594 41.5371V31.418C9.58594 31.2846 9.58464 31.1749 9.58594 31.043L14.9805 31.0312H35.9805C35.9779 31.167 35.9805 31.2845 35.9805 31.418V41.5371C35.9805 42.443 36.7093 43.1738 37.6152 43.1738C38.521 43.1738 39.25 42.443 39.25 41.5371V31.418C39.2513 31.181 39.25 31.0438 39.25 31.0312V28.6445C39.25 27.2245 38.1055 26.082 36.6855 26.082H14.9805H8.87891ZM8.77148 26.584V26.5859H28.625H36.7715C37.8363 26.5859 38.6926 27.4231 38.7363 28.4766H38.7422V28.5391C38.7423 28.5467 38.7441 28.549 38.7441 28.5566C38.7441 28.5641 38.7423 28.5686 38.7422 28.5762V41.5332C38.7422 42.159 38.2391 42.6621 37.6133 42.6621C36.9876 42.6621 36.4824 42.159 36.4824 41.5332V30.5293H28.625L9.07617 30.5312V41.5352C9.07617 42.1609 8.57301 42.6641 7.94727 42.6641C7.32153 42.6641 6.81641 42.1609 6.81641 41.5352V28.5918C6.8165 28.5804 6.81421 28.568 6.81445 28.5566C6.81455 28.5529 6.81626 28.5506 6.81641 28.543V28.4727H6.82617C6.90223 27.4187 7.95839 26.584 8.77148 26.584Z" fill="#333333"/>
</svg>
