<svg width="48" height="48" viewBox="0 0 48 48" fill="none" xmlns="http://www.w3.org/2000/svg">
<path d="M34.704 4.00608C31.9331 3.9581 28.3446 4.93404 23.9459 7.21812C6.81107 -1.63089 2.50506 9.71293 9.37208 24.2474C13.0134 24.2733 14.3754 24.2676 16.6435 24.274L17.5299 29.106L31.0141 25.4489L31.2478 24.3308C33.2765 24.3388 34.4285 24.3322 37.5234 24.3573C43.9879 13.5036 43.0165 4.14996 34.7038 4.00596L34.704 4.00608ZM30.6259 27.311L17.8371 30.7771L18.2579 33.0723L30.0935 29.8623L30.6259 27.311ZM29.703 31.7244L18.5647 34.7432L18.9855 37.0384L29.1702 34.2756L29.703 31.7244ZM28.78 36.1378L19.2927 38.7094L19.7135 41.0045L28.2476 38.691L28.78 36.1378ZM27.8591 40.5512L20.0204 42.6755L20.2725 44.0518H27.1274L27.8591 40.5512Z" fill="#333333"/>
</svg>
