<svg width="48" height="48" viewBox="0 0 48 48" fill="none" xmlns="http://www.w3.org/2000/svg">
<path d="M24 9.49971C24.5333 10.033 26 10.5664 26 10.5664C26 10.5664 25.6 13.4997 24 13.4997C22.4 13.4997 22 10.5664 22 10.5664C22 10.5664 23.4667 10.033 24 9.49971Z" fill="#333333"/>
<path fill-rule="evenodd" clip-rule="evenodd" d="M23.8164 6.01671L23.8077 6.01835L23.7854 6.02257L23.702 6.03867C23.6297 6.05277 23.5247 6.07354 23.3917 6.10071C23.1258 6.15501 22.7474 6.23494 22.2938 6.33814C21.3888 6.54403 20.1748 6.84471 18.9548 7.2217C17.7462 7.59515 16.4812 8.05861 15.5001 8.6016C15.0118 8.87188 14.5441 9.18862 14.1866 9.56136C13.8324 9.93057 13.5 10.4478 13.5 11.0965C13.5 12.8415 13.9894 14.1197 14.508 14.977C14.7632 15.3988 15.0222 15.7134 15.2263 15.9295C15.2353 16.0449 15.2515 16.1741 15.2786 16.3143C15.38 16.8398 15.6333 17.5095 16.2127 18.1604C16.0735 18.7517 16 19.3677 16 19.9997C16 24.418 19.5817 27.9997 24 27.9997C28.4183 27.9997 32 24.418 32 19.9997C32 19.3677 31.9265 18.7517 31.7873 18.1604C32.3667 17.5095 32.62 16.8398 32.7214 16.3143C32.7485 16.1741 32.7647 16.0449 32.7737 15.9296C32.9778 15.7135 33.2368 15.3989 33.4919 14.9772C34.0107 14.1199 34.5 12.8416 34.5 11.0965C34.5 10.4478 34.1676 9.93057 33.8134 9.56135C33.4559 9.18862 32.9882 8.87188 32.4999 8.6016C31.5188 8.05861 30.2538 7.59515 29.0452 7.2217C27.8252 6.84471 26.6112 6.54403 25.7062 6.33814C25.2526 6.23494 24.8742 6.15501 24.6083 6.10071C24.4753 6.07354 24.3703 6.05277 24.298 6.03867L24.2146 6.02257L24.1923 6.01835L24.1836 6.01671L24 5.98242L23.8164 6.01671ZM24 6.99971L24.1836 6.01671C24.1834 6.01667 24.1836 6.01671 24 6.99971ZM23.8164 6.01671L24 6.99971C23.8164 6.01671 23.8166 6.01667 23.8164 6.01671ZM24 18.4997C26.2067 18.4997 27.6885 18.2134 28.6803 17.8416C29.5187 17.527 30.0075 17.1507 30.2908 16.8336C30.3929 16.7192 30.4738 16.6069 30.5378 16.4997H17.4622C17.5262 16.6069 17.6071 16.7192 17.7092 16.8336C17.9925 17.1507 18.4813 17.527 19.3197 17.8416C20.3115 18.2134 21.7933 18.4997 24 18.4997ZM31.3717 14.4997H16.6283C16.5147 14.3729 16.3684 14.1883 16.2192 13.9417C15.8761 13.3746 15.5039 12.4579 15.5 11.1177C15.5089 11.0971 15.5391 11.0405 15.6298 10.9459C15.7918 10.777 16.0663 10.5741 16.4686 10.3515C17.2688 9.90855 18.3788 9.49298 19.5452 9.13256C20.7002 8.77568 21.8612 8.48765 22.7375 8.2883C23.1745 8.18887 23.5383 8.11206 23.7919 8.06026C23.873 8.0437 23.9427 8.02971 24 8.01837C24.0573 8.02971 24.127 8.0437 24.2081 8.06026C24.4617 8.11206 24.8255 8.18887 25.2625 8.2883C26.1388 8.48765 27.2998 8.77568 28.4548 9.13256C29.6212 9.49298 30.7312 9.90855 31.5314 10.3515C31.9337 10.5741 32.2082 10.777 32.3702 10.9459C32.4609 11.0405 32.4911 11.0971 32.5 11.1177C32.4961 12.4581 32.1239 13.3748 31.7808 13.9418C31.6316 14.1883 31.4853 14.3729 31.3717 14.4997ZM18 19.9997C18 19.8195 18.0079 19.6413 18.0234 19.4653C19.3606 20.093 21.2766 20.4997 24 20.4997C26.3447 20.4997 28.0889 20.1989 29.382 19.7148C29.5919 19.6363 29.7899 19.553 29.9766 19.4653C29.9921 19.6413 30 19.8195 30 19.9997C30 23.3135 27.3137 25.9997 24 25.9997C20.6863 25.9997 18 23.3135 18 19.9997ZM15.4968 11.1265C15.4968 11.1265 15.4969 11.1258 15.4975 11.1242L15.4968 11.1265Z" fill="#333333"/>
<path d="M12 34.9997H19V36.2454C19 36.6919 18.704 37.0843 18.2747 37.2069L15.7747 37.9212C15.5952 37.9725 15.4048 37.9725 15.2253 37.9212L12.7253 37.2069C12.296 37.0843 12 36.6919 12 36.2454V34.9997Z" fill="#333333"/>
<path d="M33.6645 33.125C33.6127 32.958 33.3873 32.958 33.3355 33.125L32.8639 34.6455C32.8407 34.7202 32.7743 34.7707 32.6994 34.7707H31.1733C31.0058 34.7707 30.936 34.9954 31.0717 35.0987L32.3063 36.0384C32.3669 36.0846 32.3922 36.1663 32.3691 36.241L31.8975 37.7616C31.8457 37.9286 32.0281 38.0675 32.1638 37.9643L33.3984 37.0245C33.459 36.9783 33.5411 36.9783 33.6017 37.0245L34.8362 37.9643C34.9719 38.0675 35.1543 37.9286 35.1025 37.7616L34.6309 36.241C34.6078 36.1663 34.6332 36.0846 34.6938 36.0384L35.9283 35.0987C36.064 34.9954 35.9942 34.7707 35.8267 34.7707H34.3006C34.2257 34.7707 34.1593 34.7202 34.1361 34.6455L33.6645 33.125Z" fill="#333333"/>
<path fill-rule="evenodd" clip-rule="evenodd" d="M16.8786 27.9997C16.8786 27.9997 6 31.3929 6 35.4666V41.9999H42V35.4666C42 31.3929 31.1214 27.9997 31.1214 27.9997L24.6443 33.4568C24.272 33.7705 23.728 33.7705 23.3557 33.4568L16.8786 27.9997ZM31.5466 30.2567L25.933 34.9863C24.8161 35.9273 23.1839 35.9273 22.067 34.9863L16.4534 30.2567C16.2793 30.319 16.0871 30.3891 15.88 30.4666C14.9001 30.8334 13.6095 31.3576 12.3325 31.995C11.0365 32.6419 9.84957 33.3589 9.01561 34.0875C8.11492 34.8743 8 35.3423 8 35.4666V39.9999H40V35.4666C40 35.3423 39.8851 34.8743 38.9844 34.0875C38.1504 33.3589 36.9635 32.6419 35.6675 31.995C34.3905 31.3576 33.0999 30.8334 32.12 30.4666C31.9129 30.3891 31.7207 30.319 31.5466 30.2567Z" fill="#333333"/>
</svg>
