<svg width="48" height="48" viewBox="0 0 48 48" fill="none" xmlns="http://www.w3.org/2000/svg">
<path fill-rule="evenodd" clip-rule="evenodd" d="M48 0H0V48H48V0ZM23.6838 1.10539C23.8891 1.03697 24.111 1.03697 24.3163 1.10539L32.5474 3.84912C32.8337 3.94455 33.0616 4.16414 33.1675 4.44668L34.2454 7.321C34.3973 7.72601 34.2715 8.18277 33.9338 8.45299L32.3753 9.69974C32.1381 9.88951 32 10.1768 32 10.4806V11.5C32 11.7761 31.7762 12 31.5 12C31.2239 12 31.0051 12.2264 30.9467 12.4962C30.519 14.4712 27.5719 16 24 16C20.4281 16 17.4811 14.4712 17.0534 12.4962C16.9949 12.2264 16.7762 12 16.5 12C16.2239 12 16 11.7761 16 11.5V10.4806C16 10.1768 15.8619 9.88951 15.6247 9.69974L14.0663 8.45299C13.7285 8.18277 13.6028 7.72601 13.7546 7.321L14.8325 4.44668C14.9385 4.16414 15.1663 3.94455 15.4526 3.84912L23.6838 1.10539ZM25.671 4.3925L24.3201 3.26673C24.1347 3.11221 23.8654 3.11221 23.6799 3.26673L22.329 4.3925C22.1397 4.55029 22.0935 4.82252 22.2204 5.03386L23.5713 7.28541C23.7655 7.60908 24.2346 7.60908 24.4288 7.28541L25.7797 5.03386C25.9065 4.82251 25.8604 4.55029 25.671 4.3925ZM31.7096 13.8555C30.1337 15.74 27.2706 17 24 17C20.7294 17 17.8663 15.74 16.2904 13.8555C16.1011 14.5379 16 15.2571 16 16C16 20.42 19.58 24 24 24C28.42 24 32 20.42 32 16C32 15.2571 31.8989 14.5379 31.7096 13.8555ZM17.6699 28.8446C18.1168 28.7356 18.5752 28.9585 18.7781 29.3713L22.3905 36.7241L22.9209 32.2746C22.9579 31.9642 22.7211 31.7211 22.5 31.5001C22 31.0001 22 29.0001 22.5 28.5001C22.6602 28.3398 22.9744 28.385 23.344 28.4381C23.5511 28.4678 23.7755 28.5 24 28.5C24.2244 28.5 24.4489 28.4678 24.6559 28.438C25.0255 28.3849 25.3398 28.3398 25.5 28.5001C26 29.0002 26 31.0001 25.5 31.5001C25.2774 31.7226 25.0427 31.9729 25.0799 32.2854L25.6093 36.7244L29.2219 29.3713C29.4248 28.9585 29.8832 28.7356 30.3301 28.8446C35.1338 30.0164 40 32.4056 40 36V40H8V36C8 32.4056 12.8662 30.0164 17.6699 28.8446ZM12.5 35H17.5C17.7761 35 18 35.2239 18 35.5V36C18 36.2761 17.7761 36.5 17.5 36.5H12.5C12.2239 36.5 12 36.2761 12 36V35.5C12 35.2239 12.2239 35 12.5 35ZM32.691 32.5854C32.6311 32.4011 32.3705 32.4011 32.3106 32.5854L31.7655 34.263C31.7387 34.3454 31.6619 34.4012 31.5753 34.4012H29.8113C29.6176 34.4012 29.537 34.6491 29.6938 34.763L31.1208 35.7999C31.1909 35.8508 31.2203 35.9411 31.1935 36.0235L30.6484 37.7011C30.5885 37.8853 30.7994 38.0386 30.9562 37.9247L32.3832 36.8879C32.4533 36.8369 32.5483 36.8369 32.6184 36.8879L34.0454 37.9247C34.2022 38.0386 34.4131 37.8853 34.3532 37.7011L33.8081 36.0235C33.7813 35.9411 33.8107 35.8508 33.8808 35.7999L35.3078 34.763C35.4646 34.6491 35.384 34.4012 35.1903 34.4012H33.4263C33.3397 34.4012 33.2629 34.3454 33.2361 34.263L32.691 32.5854Z" fill="#333333"/>
</svg>
