<svg width="48" height="48" viewBox="0 0 48 48" fill="none" xmlns="http://www.w3.org/2000/svg">
<path fill-rule="evenodd" clip-rule="evenodd" d="M48 0H0V48H48V0ZM23.98 4C12.94 4 4 12.96 4 24C4 35.04 12.94 44 23.98 44C35.04 44 44 35.04 44 24C44 12.96 35.04 4 23.98 4ZM24 40C15.16 40 8 32.84 8 24C8 15.16 15.16 8 24 8C32.84 8 40 15.16 40 24C40 32.84 32.84 40 24 40ZM20 19C20 20.6569 18.6569 22 17 22C15.3431 22 14 20.6569 14 19C14 17.3431 15.3431 16 17 16C18.6569 16 20 17.3431 20 19ZM24 35C27.807 35 31.1602 33.0645 33.1326 30.1203C33.7741 29.1628 32.9958 28 31.8433 28C31.2594 28 30.73 28.3191 30.3804 28.7868C28.9282 30.7299 26.6209 32 24 32C21.3763 32 19.0826 30.7272 17.6203 28.7805C17.2711 28.3156 16.743 28 16.1616 28C15.0067 28 14.2269 29.1652 14.8701 30.1244C16.8429 33.0662 20.1947 35 24 35ZM31 22C32.6569 22 34 20.6569 34 19C34 17.3431 32.6569 16 31 16C29.3431 16 28 17.3431 28 19C28 20.6569 29.3431 22 31 22Z" fill="#333333"/>
</svg>
