<svg width="48" height="48" viewBox="0 0 48 48" fill="none" xmlns="http://www.w3.org/2000/svg">
<path d="M31.8433 28.5C32.2484 28.5 32.5711 28.703 32.7376 28.9675C32.8982 29.2226 32.9205 29.5387 32.7172 29.842C30.8337 32.6536 27.6332 34.5 24 34.5C20.3684 34.5 17.1693 32.6553 15.2854 29.8459C15.0814 29.5417 15.1036 29.2247 15.2647 28.9689C15.4317 28.7036 15.7553 28.5 16.1616 28.5C16.5565 28.5 16.9467 28.7163 17.2205 29.0808C18.7706 31.1444 21.2083 32.5 24 32.5C26.7873 32.5 29.2397 31.1484 30.7809 29.0861C31.0557 28.7184 31.4472 28.5 31.8433 28.5ZM19.5 19C19.5 20.3807 18.3807 21.5 17 21.5C15.6193 21.5 14.5 20.3807 14.5 19C14.5 17.6193 15.6193 16.5 17 16.5C18.3807 16.5 19.5 17.6193 19.5 19ZM33.5 19C33.5 20.3807 32.3807 21.5 31 21.5C29.6193 21.5 28.5 20.3807 28.5 19C28.5 17.6193 29.6193 16.5 31 16.5C32.3807 16.5 33.5 17.6193 33.5 19ZM4.5 24C4.5 13.2355 13.2168 4.5 23.98 4.5C34.7642 4.5 43.5 13.2365 43.5 24C43.5 34.7635 34.7642 43.5 23.98 43.5C13.2168 43.5 4.5 34.7645 4.5 24ZM7.5 24C7.5 33.1161 14.8839 40.5 24 40.5C33.1161 40.5 40.5 33.1161 40.5 24C40.5 14.8839 33.1161 7.5 24 7.5C14.8839 7.5 7.5 14.8839 7.5 24Z" stroke="#333333"/>
</svg>
