<svg width="48" height="48" viewBox="0 0 48 48" fill="none" xmlns="http://www.w3.org/2000/svg">
<path fill-rule="evenodd" clip-rule="evenodd" d="M23.537 3.625C21.0298 3.625 18.9973 5.65751 18.9974 8.16469C18.9974 9.21453 19.3537 10.1811 19.9521 10.9501L18.8114 10.9501C18.0866 10.9501 17.4466 11.084 16.907 11.3707L16.9044 11.3721C15.2901 12.2464 14.657 14.0715 14.6251 15.7944L14.625 15.8013V27.73L14.6253 27.7372C14.6596 28.6399 15.3844 29.2422 16.1277 29.3238C16.508 29.3655 16.9109 29.275 17.244 29.0098C17.5782 28.7438 17.8086 28.3289 17.8964 27.7823L17.9011 27.7528V16.5457C17.9049 16.5432 17.9091 16.5406 17.9139 16.5378C17.9741 16.5025 18.0719 16.4694 18.1842 16.4587C18.2968 16.4479 18.3921 16.4626 18.4546 16.4901C18.4894 16.5053 18.511 16.5223 18.5252 16.5428L18.5693 42.3116L18.5696 42.319C18.6192 43.5206 19.6962 44.266 20.7195 44.3551C21.2456 44.401 21.8001 44.2827 22.2533 43.9416C22.7121 43.5963 23.0315 43.0492 23.1276 42.3075L23.1307 42.2835V42.2593C23.1307 41.3344 23.1312 40.4096 23.1317 39.4846V39.483C23.1341 35.1566 23.1365 30.8271 23.0866 26.4979C23.0899 26.4845 23.1071 26.4371 23.1891 26.3726C23.2788 26.302 23.408 26.244 23.5438 26.2219C23.6803 26.1996 23.7913 26.2183 23.8648 26.2585C23.9216 26.2896 23.9846 26.3481 24.0205 26.4816V42.2678L24.0209 42.2764C24.0753 43.4715 25.1508 44.243 26.1733 44.359C26.6994 44.4186 27.2572 44.3151 27.7127 43.9802C28.1745 43.6407 28.4901 43.0935 28.5792 42.3481L28.5818 42.3259V31.3423C28.6948 31.3906 28.8192 31.4173 28.9499 31.4173C29.4681 31.4173 29.8882 30.9971 29.8882 30.4789V29.6338C29.8882 29.422 29.9517 29.2253 30.0611 29.0613C30.5699 29.3841 31.2579 29.4518 31.8021 29.0922C31.8993 29.2497 31.9551 29.4352 31.9551 29.6338V43.4366C31.9551 43.9549 32.3753 44.375 32.8935 44.375C33.4118 44.375 33.8319 43.9549 33.8319 43.4366V29.6338C33.8319 28.6382 33.3318 27.7597 32.5705 27.2354L32.5705 15.8013L32.5705 15.7987C32.5573 13.9242 31.5169 12.2455 29.7714 11.3669L29.7594 11.3611C29.1598 11.0856 28.5076 10.9502 27.8079 10.9502L27.122 10.9502C27.7204 10.1812 28.0768 9.21454 28.0768 8.16468C28.0768 5.6575 26.0443 3.625 23.537 3.625ZM19.7474 8.16468C19.7473 6.07172 21.4441 4.375 23.537 4.375C25.6301 4.375 27.3268 6.07173 27.3268 8.16468C27.3268 10.2577 25.6301 11.9544 23.5371 11.9544C21.4441 11.9544 19.7474 10.2577 19.7474 8.16468ZM29.2943 27.2208C29.02 27.4062 28.7788 27.6373 28.5818 27.9031V16.5572C28.5874 16.5538 28.5938 16.55 28.6012 16.546C28.6734 16.5063 28.7868 16.4701 28.9135 16.4576C29.0412 16.4451 29.1494 16.4597 29.2202 16.489C29.2592 16.5051 29.2811 16.5222 29.2943 16.5407V27.2208ZM28.5495 16.5817C28.5492 16.5816 28.5506 16.5798 28.5544 16.5765C28.5516 16.5801 28.5497 16.5817 28.5495 16.5817ZM15.375 15.8048C15.4052 14.2157 15.9862 12.7231 17.2602 12.0323C17.6659 11.8171 18.1777 11.7001 18.8114 11.7001L19.778 11.7001C20.722 12.7373 22.0839 13.3891 23.5977 13.3891C25.1115 13.3891 26.4734 12.7373 27.4174 11.7002L27.8079 11.7002C28.4059 11.7002 28.9482 11.8149 29.4402 12.0398C30.9356 12.7952 31.8088 14.2183 31.8205 15.8026V27.6569L32.0068 27.7654C32.6505 28.1402 33.0819 28.8369 33.0819 29.6338V43.4366C33.0819 43.5407 32.9976 43.625 32.8935 43.625C32.7895 43.625 32.7051 43.5407 32.7051 43.4366V29.6338C32.7051 29.0917 32.4628 28.6057 32.0818 28.2792L31.7976 28.0357L31.5535 28.3194C31.2352 28.6893 30.6521 28.662 30.2917 28.2893L30.0499 28.0394L29.7825 28.2616C29.3895 28.5881 29.1382 29.0818 29.1382 29.6338V30.4789C29.1382 30.5829 29.0539 30.6673 28.9499 30.6673C28.8458 30.6673 28.7615 30.5829 28.7615 30.4789V29.6338C28.7615 28.8293 29.201 28.1271 29.8548 27.7549L30.0443 27.647V16.4108L30.0284 16.358C29.9414 16.0691 29.733 15.8894 29.5067 15.7959C29.2898 15.7062 29.05 15.6906 28.84 15.7113C28.6289 15.732 28.4147 15.7927 28.2402 15.8886C28.0909 15.9706 27.8561 16.1438 27.833 16.4366L27.8318 16.4513V27.9429C27.6451 28.3228 27.542 28.7586 27.542 29.2582V30.5258C27.542 30.8525 27.65 31.1545 27.8318 31.3973V42.2805C27.7602 42.8414 27.5339 43.1807 27.2684 43.3759C26.9934 43.5782 26.6343 43.6564 26.2578 43.6138C25.4781 43.5254 24.8076 42.9595 24.7705 42.2502V26.3981L24.7622 26.3593C24.687 26.0072 24.4946 25.7482 24.2248 25.6006C23.9671 25.4595 23.6765 25.4403 23.4232 25.4816C23.1691 25.523 22.9202 25.6298 22.7252 25.7833C22.5359 25.9324 22.3525 26.1639 22.3369 26.4624L22.3363 26.4744L22.3364 26.4863C22.3865 30.8174 22.3841 35.1491 22.3817 39.4834L22.3817 39.4857C22.3812 40.4018 22.3807 41.3181 22.3807 42.2343C22.3036 42.7913 22.074 43.1378 21.8023 43.3424C21.5213 43.5539 21.159 43.6406 20.7846 43.608C20.0095 43.5405 19.3525 42.999 19.3193 42.295L19.2749 16.4079L19.2576 16.353C19.0754 15.777 18.4837 15.6766 18.1129 15.7121C17.9099 15.7314 17.7032 15.7919 17.5343 15.891C17.3817 15.9806 17.1715 16.1575 17.152 16.4404L17.1511 16.4532V27.6917C17.0841 28.0754 16.9328 28.2989 16.7768 28.4231C16.6159 28.5512 16.4162 28.601 16.2095 28.5783C15.781 28.5312 15.3964 28.1889 15.375 27.7151V15.8048Z" fill="#333333"/>
</svg>
