<svg width="48" height="48" viewBox="0 0 48 48" fill="none" xmlns="http://www.w3.org/2000/svg">
<path d="M25.293 4.38716C25.4255 4.11982 25.5 3.81861 25.5 3.5C25.5 2.39543 24.6046 1.5 23.5 1.5C22.3954 1.5 21.5 2.39543 21.5 3.5C21.5 3.82995 21.5799 4.14123 21.7214 4.41556C20.331 5.09017 19.3724 6.51549 19.3724 8.16468C19.3724 10.4648 21.237 12.3294 23.5371 12.3294C25.8372 12.3294 27.7018 10.4648 27.7018 8.16468C27.7018 6.49197 26.7156 5.04957 25.293 4.38716Z" fill="#333333"/>
<path d="M27.2479 11.3252C26.3695 12.3585 25.0602 13.0141 23.5977 13.0141C22.1353 13.0141 20.8259 12.3585 19.9475 11.3251L18.8114 11.3251C18.1318 11.3251 17.5557 11.4507 17.083 11.7019C15.6379 12.4845 15.0307 14.1444 15 15.8013V27.7229C15.0525 29.1027 17.2218 29.6181 17.5261 27.7229V16.4661C17.5527 16.0789 18.7013 15.838 18.9 16.4661L17.1189 35.831L18.9333 35.8442L18.9443 42.3036C19.0231 44.2125 22.4157 44.8841 22.7557 42.2593C22.7557 39.8549 22.7684 39.4046 22.7764 39.1216C22.7859 38.7856 22.7887 38.6855 22.7557 35.831L24.3955 35.8442V42.2593C24.4824 44.1675 27.8917 44.9419 28.2068 42.3036V35.8442L30.0766 35.831L29.6476 31.3875C29.4666 31.5244 29.2412 31.6056 28.9968 31.6056C28.4004 31.6056 27.917 31.1222 27.917 30.5258V29.2582C27.917 28.1682 28.4638 27.4789 29.2229 26.9895L28.2068 16.4661C28.2365 16.0903 29.476 15.8241 29.6693 16.4661V27.429C28.9032 27.8651 28.3865 28.6891 28.3865 29.6338V30.4789C28.3865 30.79 28.6387 31.0423 28.9499 31.0423C29.261 31.0423 29.5132 30.79 29.5132 30.4789V29.6338C29.5132 29.198 29.7112 28.8084 30.0221 28.55C30.4982 29.0422 31.3424 29.1397 31.8378 28.5639C32.1392 28.8223 32.3301 29.2057 32.3301 29.6338V43.4366C32.3301 43.7478 32.5824 44 32.8935 44C33.2047 44 33.4569 43.7478 33.4569 43.4366V29.6338C33.4569 28.698 32.9498 27.8806 32.1955 27.4413V15.8013C32.1833 14.0706 31.2253 12.5185 29.6028 11.7019C29.0562 11.4507 28.458 11.3252 27.8079 11.3252L27.2479 11.3252Z" fill="#333333"/>
</svg>
