<svg width="48" height="48" viewBox="0 0 48 48" fill="none" xmlns="http://www.w3.org/2000/svg">
<path fill-rule="evenodd" clip-rule="evenodd" d="M36.2403 4.5802C36.0643 4.58357 35.8884 4.65564 35.7559 4.79309L5.14456 36.5958C4.87993 36.8707 4.88915 37.3039 5.16409 37.5685L11.3672 43.5392C11.6421 43.8038 12.0772 43.7966 12.3418 43.5216L42.9532 11.7189C43.2179 11.444 43.2086 11.0089 42.9336 10.7443L36.7305 4.77356C36.593 4.64126 36.4163 4.57684 36.2403 4.5802ZM36.2578 5.09583C36.3541 5.09394 36.4499 5.15573 36.5742 5.27552L42.4727 10.9572C42.7214 11.1968 42.6752 11.3129 42.416 11.5822L12.3145 42.8615C11.8812 43.3117 11.7612 43.2649 11.3985 42.9161L5.64261 37.3829C5.39371 37.1439 5.36973 37.0406 5.62893 36.7716L35.9356 5.297C36.0652 5.1624 36.1616 5.09771 36.2578 5.09583ZM37.4024 6.6095L36.4356 7.61536L37.9883 8.14075L37.4024 6.6095ZM35.166 7.19544C34.8269 7.20159 34.4901 7.33076 34.2481 7.58216C33.7641 8.08506 33.7802 8.94972 34.2832 9.43372C34.7862 9.91772 35.6488 9.90146 36.1328 9.39856C36.6168 8.89576 36.6007 8.03285 36.0977 7.54895C35.8462 7.30695 35.5052 7.18929 35.166 7.19544ZM35.1524 7.61927C35.3756 7.60729 35.6084 7.67995 35.7969 7.86145C36.1111 8.16395 36.1833 8.71679 35.8203 9.09387C35.5178 9.40814 34.9631 9.48031 34.586 9.11731C34.2089 8.75431 34.26 8.19912 34.5625 7.88489C34.7138 7.72776 34.9292 7.63124 35.1524 7.61927ZM38.7051 7.86145L37.7364 8.86731L39.2891 9.39466L38.7051 7.86145ZM40.0059 9.11536L39.0371 10.1193L40.5918 10.6466L40.0059 9.11536ZM34.1817 9.53919L32.6504 10.1232L33.6563 11.0919L34.1817 9.53919ZM37.2207 10.2325C37.1595 10.2343 37.1001 10.2597 37.0547 10.3068L10.7051 37.6798C10.6144 37.7741 10.6202 37.9218 10.7168 38.0099C10.8135 38.0981 10.966 38.0924 11.0567 37.9982L37.4043 10.6271C37.495 10.5328 37.4892 10.3851 37.3926 10.297C37.3443 10.2529 37.2819 10.2307 37.2207 10.2325ZM32.1133 10.3673C31.7741 10.3735 31.4373 10.5026 31.1953 10.754C30.7113 11.2569 30.7277 12.1216 31.2305 12.6056C31.7334 13.0896 32.5961 13.0714 33.0801 12.5685C33.5641 12.0657 33.5478 11.2048 33.045 10.7208C32.7936 10.4788 32.4525 10.3612 32.1133 10.3673ZM32.0996 10.7892C32.3228 10.7772 32.5556 10.8499 32.7442 11.0314C33.0584 11.3339 33.1306 11.8886 32.7676 12.2657C32.4651 12.58 31.9123 12.6522 31.5352 12.2892C31.1581 11.9262 31.2092 11.371 31.5117 11.0568C31.663 10.8996 31.8764 10.8011 32.0996 10.7892ZM39.2578 11.1251C38.9189 11.1316 38.5819 11.2623 38.3399 11.5138C37.8559 12.0167 37.8703 12.8794 38.3731 13.3634C38.876 13.8474 39.7406 13.831 40.2246 13.3282C40.7086 12.8253 40.6924 11.9626 40.1895 11.4786C39.9381 11.2366 39.5967 11.1187 39.2578 11.1251ZM39.2422 11.549C39.4654 11.537 39.6982 11.6096 39.8867 11.7911C40.201 12.0936 40.2751 12.6483 39.9121 13.0255C39.6096 13.3398 39.0549 13.41 38.6778 13.047C38.3635 12.7445 38.3518 12.1288 38.6543 11.8146C38.8056 11.6574 39.019 11.5609 39.2422 11.549ZM31.1309 12.7091L29.5977 13.2931L30.6035 14.2618L31.1309 12.7091ZM37.7657 12.9845L37.2403 14.5372L38.7715 13.9532L37.7657 12.9845ZM29.0625 13.5353C28.7233 13.5414 28.3866 13.6725 28.1446 13.924C27.6606 14.4269 27.6769 15.2915 28.1797 15.7755C28.6826 16.2595 29.5473 16.2413 30.0313 15.7384C30.5153 15.2356 30.499 14.3728 29.9961 13.8888C29.7447 13.6468 29.4018 13.5291 29.0625 13.5353ZM29.0508 13.9591C29.274 13.9471 29.5068 14.0198 29.6953 14.2013C30.0095 14.5038 30.0818 15.0566 29.7188 15.4337C29.4163 15.748 28.8615 15.8202 28.4844 15.4572C28.1073 15.0942 28.1585 14.5389 28.461 14.2247C28.6122 14.0676 28.8276 13.9711 29.0508 13.9591ZM36.2051 14.295C35.8662 14.3015 35.5311 14.4323 35.2891 14.6837C34.8051 15.1866 34.8195 16.0493 35.3223 16.5333C35.8252 17.0173 36.6899 17.001 37.1739 16.4982C37.6579 15.9953 37.6396 15.1326 37.1367 14.6486C36.8853 14.4066 36.544 14.2886 36.2051 14.295ZM36.1914 14.7189C36.4146 14.7069 36.6474 14.7796 36.836 14.9611C37.1502 15.2636 37.2224 15.8182 36.8594 16.1954C36.5569 16.5097 36.0021 16.5819 35.625 16.2189C35.3107 15.9164 35.2991 15.3007 35.6016 14.9865V14.9845C35.7528 14.8274 35.9682 14.7309 36.1914 14.7189ZM28.0782 15.879L26.5469 16.465L27.5528 17.4318L28.0782 15.879ZM34.7168 16.1544L34.1895 17.7072L35.7227 17.1212L34.7168 16.1544ZM26.0117 16.7072C25.6725 16.7133 25.3358 16.8424 25.0938 17.0939C24.6098 17.5968 24.6261 18.4614 25.1289 18.9454C25.6318 19.4294 26.4945 19.4112 26.9785 18.9083C27.4625 18.4055 27.4463 17.5427 26.9434 17.0587C26.692 16.8167 26.351 16.701 26.0117 16.7072ZM25.9981 17.129C26.2213 17.1171 26.4541 17.1897 26.6426 17.3712C26.9568 17.6737 27.029 18.2265 26.666 18.6036C26.3635 18.9179 25.8107 18.9901 25.4336 18.6271C25.0565 18.2641 25.1077 17.709 25.4102 17.3947C25.5614 17.2376 25.7749 17.141 25.9981 17.129ZM33.1563 17.465C32.8174 17.4714 32.4803 17.6002 32.2383 17.8517C31.7543 18.3546 31.7687 19.2192 32.2715 19.7032C32.7744 20.1873 33.6391 20.1709 34.1231 19.6681C34.6071 19.1652 34.5908 18.3005 34.0879 17.8165C33.8365 17.5745 33.4952 17.4585 33.1563 17.465ZM33.1407 17.8888C33.3639 17.8768 33.5966 17.9495 33.7852 18.131C34.0994 18.4335 34.1736 18.9882 33.8106 19.3654C33.5081 19.6797 32.9533 19.7498 32.5762 19.3868C32.2619 19.0843 32.2503 18.4686 32.5528 18.1544C32.704 17.9973 32.9175 17.9008 33.1407 17.8888ZM25.0293 19.049L23.4961 19.6329L24.502 20.6017L25.0293 19.049ZM31.6641 19.3243L31.1387 20.8771L32.67 20.2931L31.6641 19.3243ZM22.961 19.8771C22.6217 19.8832 22.285 20.0123 22.043 20.2638C21.559 20.7667 21.5754 21.6314 22.0782 22.1154C22.5811 22.5994 23.4438 22.5812 23.9278 22.0783C24.4118 21.5755 24.3955 20.7126 23.8926 20.2286C23.6412 19.9866 23.3002 19.8709 22.961 19.8771ZM22.9473 20.299C23.1705 20.287 23.4033 20.3596 23.5918 20.5411C23.906 20.8436 23.9783 21.3965 23.6153 21.7736C23.3128 22.0879 22.7599 22.16 22.3828 21.797C22.0057 21.434 22.0569 20.8789 22.3594 20.5646C22.5107 20.4075 22.7241 20.3109 22.9473 20.299ZM30.1035 20.6349C29.7646 20.6414 29.4295 20.7721 29.1875 21.0236C28.7035 21.5265 28.7179 22.3892 29.2207 22.8732C29.7236 23.3572 30.5883 23.3408 31.0723 22.838C31.5563 22.3351 31.5381 21.4724 31.0352 20.9884C30.7838 20.7464 30.4424 20.6284 30.1035 20.6349ZM30.0899 21.0587C30.3131 21.0468 30.5459 21.1194 30.7344 21.3009C31.0486 21.6034 31.1208 22.1581 30.7578 22.5353C30.4553 22.8496 29.9006 22.9198 29.5235 22.5568C29.2092 22.2543 29.1975 21.6385 29.5 21.3243C29.6513 21.1672 29.8667 21.0707 30.0899 21.0587ZM21.9766 22.2189L20.4453 22.8029L21.4512 23.7716L21.9766 22.2189ZM28.6133 22.4943L28.0879 24.047L29.6192 23.463L28.6133 22.4943ZM19.9082 23.047C19.569 23.0532 19.2323 23.1823 18.9903 23.4337C18.5063 23.9366 18.5226 24.8013 19.0254 25.2853C19.5283 25.7693 20.393 25.7511 20.877 25.2482C21.361 24.7454 21.3447 23.8845 20.8418 23.4005C20.5904 23.1585 20.2475 23.0408 19.9082 23.047ZM19.8965 23.4689C20.1197 23.4569 20.3525 23.5296 20.541 23.7111C20.8552 24.0136 20.9275 24.5664 20.5645 24.9435C20.262 25.2578 19.7092 25.3319 19.3321 24.9689C18.955 24.6059 19.0042 24.0487 19.3067 23.7345C19.4579 23.5774 19.6733 23.4808 19.8965 23.4689ZM27.0528 23.8048C26.7139 23.8113 26.3768 23.942 26.1348 24.1935C25.6508 24.6964 25.6672 25.5591 26.17 26.0431C26.6728 26.5271 27.5375 26.5107 28.0215 26.0079C28.5055 25.505 28.4873 24.6423 27.9844 24.1583C27.733 23.9163 27.3917 23.7984 27.0528 23.8048ZM27.0371 24.2286C27.2603 24.2167 27.4931 24.2893 27.6817 24.4708C27.9959 24.7733 28.0701 25.328 27.7071 25.7052C27.4046 26.0195 26.8498 26.0897 26.4727 25.7267C26.1584 25.4242 26.1467 24.8085 26.4492 24.4943C26.6005 24.3371 26.8139 24.2406 27.0371 24.2286ZM18.9258 25.3888L17.3946 25.9728L18.4004 26.9415L18.9258 25.3888ZM25.5625 25.6642L25.0352 27.2169L26.5684 26.6329L25.5625 25.6642ZM16.8594 26.215C16.5202 26.2211 16.1834 26.3502 15.9414 26.6017C15.4574 27.1046 15.4738 27.9693 15.9766 28.4533C16.4795 28.9373 17.3422 28.921 17.8262 28.4181C18.3102 27.9153 18.2939 27.0525 17.791 26.5685C17.5396 26.3265 17.1986 26.2088 16.8594 26.215ZM16.8457 26.6388C17.0689 26.6268 17.3017 26.6995 17.4903 26.881C17.8045 27.1835 17.8767 27.7363 17.5137 28.1134C17.2112 28.4277 16.6584 28.4998 16.2813 28.1368C15.9042 27.7738 15.9553 27.2186 16.2578 26.9044C16.4091 26.7473 16.6225 26.6508 16.8457 26.6388ZM24.002 26.9747C23.6631 26.9812 23.326 27.112 23.084 27.3634C22.6 27.8663 22.6144 28.729 23.1172 29.213C23.6201 29.697 24.4848 29.6807 24.9688 29.1779C25.4528 28.675 25.4365 27.8123 24.9336 27.3283C24.6822 27.0863 24.3409 26.9683 24.002 26.9747ZM23.9864 27.3986C24.2096 27.3866 24.4423 27.4593 24.6309 27.6408C24.9451 27.9433 25.0193 28.4979 24.6563 28.8751C24.3538 29.1893 23.799 29.2616 23.4219 28.8986C23.1076 28.5961 23.096 27.9784 23.3985 27.6642C23.5497 27.507 23.7632 27.4105 23.9864 27.3986ZM15.875 28.5587L14.3438 29.1427L15.3477 30.1115L15.875 28.5587ZM22.5098 28.8341L21.9844 30.3868L23.5157 29.8029L22.5098 28.8341ZM13.8067 29.3849C13.4674 29.3911 13.1307 29.5221 12.8887 29.7736C12.4047 30.2765 12.4211 31.1411 12.9239 31.6251C13.4268 32.1091 14.2914 32.0909 14.7754 31.588C15.2594 31.0852 15.2432 30.2224 14.7403 29.7384C14.4889 29.4964 14.1459 29.3787 13.8067 29.3849ZM13.795 29.8087C14.0182 29.7968 14.2509 29.8694 14.4395 30.0509C14.7537 30.3534 14.8259 30.9062 14.4629 31.2833C14.1604 31.5976 13.6076 31.6698 13.2305 31.3068C12.8534 30.9438 12.9046 30.3885 13.2071 30.0743C13.3583 29.9172 13.5718 29.8207 13.795 29.8087ZM20.9512 30.1447C20.6123 30.1511 20.2752 30.2799 20.0332 30.5314C19.5492 31.0343 19.5636 31.8989 20.0664 32.3829C20.5693 32.8669 21.434 32.8506 21.918 32.3478C22.402 31.8449 22.3857 30.9802 21.8828 30.4962C21.6314 30.2542 21.2901 30.1382 20.9512 30.1447ZM20.9356 30.5685C21.1588 30.5565 21.3916 30.6292 21.5801 30.8107C21.8943 31.1132 21.9685 31.6678 21.6055 32.045C21.303 32.3593 20.7482 32.4295 20.3711 32.0665C20.0568 31.764 20.0452 31.1483 20.3477 30.8341C20.4989 30.677 20.7124 30.5804 20.9356 30.5685ZM12.8223 31.7286L11.291 32.3146L12.2969 33.2814L12.8223 31.7286ZM19.461 32.004L18.9356 33.5568L20.4668 32.9708L19.461 32.004ZM10.7559 32.5568C10.4167 32.5629 10.0799 32.692 9.83792 32.9435C9.35392 33.4464 9.37024 34.311 9.87308 34.795C10.3759 35.279 11.2387 35.2608 11.7227 34.7579C12.2067 34.2551 12.1904 33.3923 11.6875 32.9083C11.4361 32.6663 11.0951 32.5506 10.7559 32.5568ZM10.7422 32.9786C10.9654 32.9667 11.1982 33.0393 11.3867 33.2208C11.7009 33.5233 11.7732 34.0762 11.4102 34.4533C11.1077 34.7676 10.5549 34.8397 10.1778 34.4767C9.80064 34.1137 9.8518 33.5586 10.1543 33.2443C10.3056 33.0872 10.519 32.9906 10.7422 32.9786ZM17.8985 33.3146C17.5596 33.321 17.2245 33.4518 16.9825 33.7033C16.4985 34.2062 16.5129 35.0689 17.0157 35.5529C17.5186 36.0369 18.3832 36.0205 18.8672 35.5177C19.3512 35.0148 19.333 34.1521 18.8301 33.6681C18.5787 33.4261 18.2374 33.3081 17.8985 33.3146ZM17.8848 33.7384C18.108 33.7264 18.3408 33.7991 18.5293 33.9806C18.8435 34.2831 18.9177 34.8378 18.5547 35.215C18.2522 35.5293 17.6974 35.5995 17.3203 35.2365C17.006 34.934 16.9944 34.3182 17.2969 34.004C17.4482 33.8469 17.6616 33.7504 17.8848 33.7384ZM9.77347 34.8986L8.24222 35.4825L9.24612 36.4513L9.77347 34.8986ZM16.4102 35.174L15.8828 36.7267L17.4141 36.1427L16.4102 35.174ZM7.70511 35.7267C7.36589 35.7329 7.02914 35.862 6.78714 36.1134C6.30314 36.6163 6.31945 37.481 6.82229 37.965C7.32513 38.449 8.1879 38.4308 8.6719 37.9279C9.1559 37.4251 9.13959 36.5623 8.63675 36.0783C8.38533 35.8363 8.04433 35.7205 7.70511 35.7267ZM7.69143 36.1486C7.91464 36.1366 8.14743 36.2093 8.33597 36.3908C8.65024 36.6933 8.7224 37.2461 8.3594 37.6232C8.0569 37.9375 7.50406 38.0096 7.12698 37.6466C6.74985 37.2836 6.80104 36.7285 7.10354 36.4142C7.25479 36.2571 7.46823 36.1605 7.69143 36.1486ZM14.8477 36.4845C14.5088 36.491 14.1717 36.6217 13.9297 36.8732C13.4457 37.3761 13.4621 38.2388 13.9649 38.7228C14.4678 39.2068 15.3324 39.1904 15.8164 38.6876C16.3004 38.1847 16.2822 37.322 15.7793 36.838C15.5279 36.596 15.1866 36.478 14.8477 36.4845ZM14.834 36.9083C15.0572 36.8964 15.29 36.969 15.4785 37.1505C15.7927 37.453 15.865 38.0077 15.502 38.3849C15.1995 38.6992 14.6467 38.7694 14.2696 38.4064C13.9553 38.1039 13.9436 37.4882 14.2461 37.174C14.3974 37.0169 14.6108 36.9203 14.834 36.9083ZM9.67972 37.7365C9.34082 37.7429 9.0057 37.8737 8.7637 38.1251C8.2797 38.628 8.2941 39.4907 8.7969 39.9747C9.2998 40.4587 10.1645 40.4424 10.6485 39.9396C11.1325 39.4367 11.1143 38.574 10.6114 38.09C10.36 37.848 10.0186 37.73 9.67972 37.7365ZM9.66604 38.1603C9.88924 38.1483 10.122 38.221 10.3106 38.4025C10.6248 38.705 10.699 39.2596 10.336 39.6368C10.0335 39.9511 9.47869 40.0213 9.10159 39.6583C8.78729 39.3558 8.77565 38.7401 9.07815 38.4259C9.2294 38.2688 9.44284 38.1723 9.66604 38.1603ZM13.3575 38.3439L12.8321 39.8966L14.3633 39.3126L13.3575 38.3439ZM11.7969 39.6544C11.458 39.6609 11.1209 39.7916 10.8789 40.0431C10.3949 40.546 10.4093 41.4087 10.9121 41.8927C11.415 42.3767 12.2797 42.3603 12.7637 41.8575C13.2477 41.3546 13.2314 40.4919 12.7285 40.0079C12.4771 39.7659 12.1358 39.648 11.7969 39.6544ZM11.7813 40.0783C12.0045 40.0663 12.2373 40.1389 12.4258 40.3204C12.74 40.6229 12.8142 41.1776 12.4512 41.5548C12.1487 41.8691 11.5939 41.9393 11.2168 41.5763C10.9025 41.2738 10.8909 40.6581 11.1934 40.3439C11.3446 40.1868 11.5581 40.0902 11.7813 40.0783Z" fill="#333333"/>
</svg>
