<svg width="48" height="48" viewBox="0 0 48 48" fill="none" xmlns="http://www.w3.org/2000/svg">
<path fill-rule="evenodd" clip-rule="evenodd" d="M5 12C4.446 12 4 12.446 4 13V35C4 35.554 4.446 36 5 36H43C43.554 36 44 35.554 44 35V13C44 12.446 43.554 12 43 12H5ZM16.125 13.076L16.949 13.916C16.91 13.95 16.873 13.986 16.838 14.023L15.975 13.146V13.184L16.82 14.044C16.7857 14.0824 16.7533 14.1224 16.723 14.164L15.975 13.402V13.443L16.705 14.186C16.675 14.23 16.649 14.276 16.623 14.324L15.975 13.666V13.706L16.611 14.352C16.586 14.401 16.561 14.448 16.541 14.5L15.975 13.924V13.963L16.532 14.533C16.512 14.588 16.489 14.64 16.477 14.697L15.973 14.185V14.228L16.473 14.736C16.4615 14.8011 16.4548 14.8669 16.453 14.933L15.973 14.445V14.486L16.448 14.968V14.978C16.448 15.058 16.458 15.137 16.473 15.215L15.973 14.707V14.746L16.477 15.257C16.505 15.389 16.559 15.511 16.623 15.629L15.973 14.969V15.006L16.673 15.716C16.787 15.896 16.939 16.051 17.118 16.168L17.816 16.878H17.853L17.203 16.216C17.3171 16.2823 17.44 16.3321 17.568 16.364L18.072 16.878H18.111L17.615 16.376C17.695 16.392 17.777 16.401 17.859 16.402L18.328 16.879H18.367L17.898 16.402C17.964 16.401 18.028 16.393 18.092 16.382L18.582 16.879H18.624L18.13 16.377C18.187 16.367 18.242 16.347 18.298 16.329L18.841 16.879H18.88L18.327 16.319C18.3793 16.301 18.4304 16.2796 18.48 16.255L19.095 16.88H19.134L18.504 16.243C18.553 16.218 18.602 16.193 18.647 16.163L19.352 16.88H19.393L18.671 16.145C18.713 16.116 18.751 16.082 18.79 16.048L19.61 16.88H19.647L18.809 16.03C18.8479 15.9953 18.8849 15.9586 18.92 15.92L19.866 16.88H19.907L18.941 15.9C18.974 15.86 19.009 15.822 19.038 15.78L20.122 16.88H20.163L19.056 15.754C19.086 15.711 19.108 15.662 19.132 15.616L20.378 16.88H20.419L19.148 15.589C19.173 15.539 19.193 15.489 19.212 15.436L20.635 16.879H20.676L19.226 15.405C19.244 15.349 19.263 15.295 19.274 15.237L20.891 16.88H20.932L19.278 15.2C19.2901 15.134 19.2971 15.0671 19.299 15L21.149 16.88H21.187L19.3 14.96C19.2994 14.8796 19.2924 14.7993 19.279 14.72L21.405 16.88H21.444L19.266 14.667C19.2382 14.5459 19.1948 14.429 19.137 14.319L21.659 16.88H21.702L19.092 14.23C18.9811 14.0448 18.828 13.8885 18.645 13.774L17.962 13.081H17.919L18.549 13.721C18.4414 13.6636 18.3268 13.6205 18.208 13.593L17.704 13.081H17.665L18.161 13.583C18.0811 13.569 18.0001 13.5613 17.919 13.56L17.448 13.08H17.409L17.876 13.554C17.809 13.554 17.746 13.566 17.68 13.576L17.192 13.08H17.152L17.643 13.578C17.585 13.588 17.528 13.607 17.472 13.625L16.936 13.08H16.896L17.44 13.635C17.3875 13.652 17.3361 13.672 17.286 13.695L16.681 13.08H16.64L17.259 13.71C17.212 13.735 17.166 13.76 17.122 13.789L16.424 13.079H16.383L17.093 13.802C17.052 13.83 17.016 13.866 16.977 13.899L16.168 13.079L16.126 13.076H16.125ZM18.174 13.076L21.914 16.876H21.953L20.105 14.998L20.51 15.189L22.17 16.875H22.21L20.586 15.225L20.986 15.415L22.426 16.875H22.465L21.059 15.447L21.463 15.639L22.683 16.875H22.723L21.537 15.672L21.674 15.736L21.664 15.578L22.942 16.875H22.981L21.66 15.537L21.646 15.301L23.196 16.875H23.234L21.644 15.26L21.629 15.023L23.451 16.875H23.494L21.624 14.979L21.611 14.745L22.558 15.707C22.675 15.893 22.831 16.051 23.015 16.17L23.708 16.874H23.748L23.101 16.22C23.215 16.283 23.336 16.333 23.463 16.363L23.965 16.873H24.004L23.51 16.373C23.589 16.389 23.672 16.397 23.754 16.397L24.221 16.874H24.261L23.791 16.396C23.857 16.394 23.921 16.387 23.985 16.376L24.477 16.876H24.517L24.02 16.373C24.079 16.362 24.135 16.341 24.19 16.323L24.732 16.875H24.773L24.221 16.315C24.273 16.296 24.323 16.273 24.373 16.249L24.991 16.876H25.031L24.399 16.235C24.446 16.21 24.494 16.186 24.538 16.157L25.245 16.875H25.288L24.563 16.139C24.605 16.109 24.643 16.075 24.682 16.042L25.502 16.876H25.542L24.702 16.022C24.741 15.987 24.777 15.952 24.812 15.912L25.762 16.876H25.799L24.832 15.893C24.866 15.854 24.9 15.815 24.929 15.773L26.017 16.875H26.057L24.947 15.748C24.977 15.704 24.999 15.658 25.023 15.611L26.271 16.875H26.312L25.039 15.582C25.064 15.532 25.084 15.482 25.103 15.43L26.526 16.875H26.569L25.112 15.397C25.132 15.34 25.152 15.285 25.163 15.227L26.786 16.876H26.823L25.167 15.192C25.177 15.127 25.186 15.06 25.187 14.992L27.039 16.876H27.08L25.186 14.952C25.1849 14.8687 25.1758 14.7856 25.159 14.704L27.297 16.876H27.336L25.141 14.649C25.1055 14.5114 25.0496 14.3799 24.975 14.259L27.551 16.876H27.591L24.873 14.115C24.8058 14.0304 24.7297 13.9533 24.646 13.885L23.852 13.077H23.812L24.499 13.774C24.3802 13.6998 24.2512 13.6435 24.116 13.607L23.596 13.077H23.558L24.058 13.587C23.9768 13.5692 23.8941 13.5592 23.811 13.557L23.341 13.077H23.3L23.766 13.552H23.763C23.697 13.552 23.635 13.564 23.571 13.573L23.083 13.077H23.046L23.538 13.575C23.478 13.585 23.419 13.602 23.362 13.62L22.829 13.076H22.786L23.331 13.631C23.278 13.649 23.225 13.667 23.175 13.691L22.571 13.075H22.53L23.149 13.705C23.102 13.728 23.055 13.753 23.01 13.783L22.315 13.075H22.276L22.985 13.796C22.942 13.826 22.905 13.863 22.865 13.896L22.057 13.076H22.018L22.842 13.912C22.803 13.946 22.765 13.981 22.729 14.019L21.801 13.076H21.762L22.713 14.041C22.679 14.079 22.644 14.118 22.613 14.16L21.549 13.075H21.506L22.596 14.183C22.566 14.226 22.543 14.273 22.518 14.319L21.291 13.074H21.251L22.501 14.346C22.476 14.395 22.453 14.444 22.433 14.496L21.035 13.074H20.994L22.424 14.528C22.404 14.582 22.381 14.635 22.369 14.692L20.777 13.074H20.738L22.365 14.727C22.3533 14.7927 22.3467 14.8593 22.345 14.926L20.523 13.074H20.483L22.342 14.963L22.34 14.975C22.34 15.053 22.35 15.129 22.363 15.205L21.592 14.422L21.578 14.213L21.451 14.278L20.266 13.074H20.226L21.426 14.291L21.279 14.363L20.009 13.074H19.972L21.252 14.377L21.108 14.449L19.757 13.074H19.714L21.081 14.463L20.936 14.535L19.497 13.075H19.46L20.911 14.549L20.765 14.621L19.243 13.074H19.204L20.739 14.634L20.593 14.707L18.985 13.074H18.946L20.567 14.721L20.421 14.795L18.727 13.075H18.689L20.394 14.807L20.249 14.879L18.474 13.074H18.433L20.223 14.893L20.077 14.965L18.216 13.075L18.174 13.076ZM24.068 13.076L27.809 16.876H27.849L26.005 15.002L26.409 15.194L28.065 16.875H28.105L26.48 15.227L26.883 15.417L28.318 16.875H28.361L26.963 15.455L27.367 15.645L28.578 16.875H28.613L27.432 15.676L27.562 15.736L27.552 15.574L28.834 16.875H28.873L27.549 15.531L27.535 15.297L29.09 16.875H29.129L27.533 15.252L27.518 15.018L29.346 16.875H29.385L27.515 14.979L27.5 14.742L28.441 15.697C28.561 15.89 28.721 16.054 28.911 16.176L29.601 16.875H29.643L29.004 16.228C29.116 16.288 29.233 16.338 29.358 16.367L29.858 16.874H29.898L29.404 16.374C29.482 16.389 29.564 16.399 29.646 16.399L30.113 16.874H30.156L29.686 16.396C29.751 16.394 29.815 16.388 29.878 16.376L30.372 16.876H30.41L29.915 16.373C29.972 16.362 30.027 16.341 30.083 16.323L30.628 16.875H30.665L30.11 16.315C30.163 16.295 30.215 16.27 30.266 16.245L30.886 16.875H30.925L30.29 16.232C30.337 16.207 30.385 16.184 30.429 16.154L31.139 16.875H31.181L30.454 16.137C30.496 16.107 30.534 16.073 30.573 16.039L31.396 16.875H31.436L30.595 16.02C30.633 15.986 30.668 15.95 30.702 15.911L31.652 16.875H31.69L30.721 15.889C30.755 15.849 30.79 15.812 30.819 15.769L31.909 16.875H31.949L30.835 15.745C30.865 15.701 30.888 15.653 30.913 15.605L32.167 16.875H32.204L30.929 15.578C30.953 15.528 30.973 15.478 30.991 15.426L32.421 16.875H32.462L31.003 15.392C31.023 15.336 31.041 15.28 31.053 15.221L32.681 16.875H32.718L31.056 15.188C31.0678 15.1213 31.0745 15.0537 31.076 14.986L32.935 16.874H32.974L31.074 14.944C31.0729 14.862 31.0642 14.7803 31.048 14.7L33.188 16.875H33.231L31.028 14.638C30.9909 14.4987 30.9329 14.3659 30.856 14.244L33.445 16.874H33.485L30.742 14.092C30.6851 14.0226 30.6222 13.9583 30.554 13.9L29.744 13.076H29.704L30.399 13.78C30.2801 13.7031 30.1503 13.6444 30.014 13.606L29.491 13.075H29.448L29.95 13.585C29.8694 13.5674 29.7874 13.5573 29.705 13.555L29.233 13.075H29.193L29.663 13.551L29.651 13.549C29.587 13.549 29.525 13.562 29.463 13.571L28.977 13.073H28.94L29.43 13.571C29.37 13.581 29.312 13.596 29.255 13.614L28.721 13.073H28.681L29.223 13.626C29.17 13.644 29.117 13.66 29.067 13.684L28.463 13.073H28.426L29.042 13.7C28.994 13.724 28.948 13.749 28.903 13.778L28.208 13.073H28.167L28.876 13.793C28.833 13.822 28.796 13.857 28.756 13.891L27.95 13.072H27.91L28.733 13.906C28.694 13.94 28.657 13.976 28.622 14.014L27.696 13.072H27.655L28.604 14.035C28.5687 14.073 28.5353 14.1127 28.504 14.154L27.44 13.072H27.399L28.487 14.175C28.457 14.218 28.432 14.265 28.407 14.312L27.184 13.072H27.144L28.393 14.339C28.3667 14.3882 28.3433 14.439 28.323 14.491L26.926 13.071H26.889L28.314 14.521C28.294 14.575 28.272 14.627 28.259 14.684L26.671 13.071H26.632L28.253 14.719C28.241 14.783 28.237 14.849 28.233 14.915L26.417 13.071H26.374L28.23 14.956L28.228 14.971C28.228 15.048 28.238 15.123 28.251 15.198L27.482 14.414L27.468 14.209L27.343 14.272L26.16 13.071H26.12L27.316 14.286L27.17 14.358L25.904 13.071H25.863L27.144 14.373L26.998 14.446L25.646 13.071H25.606L26.972 14.457L26.829 14.532L25.39 13.071H25.351L26.801 14.543L26.656 14.616L25.134 13.071H25.094L26.628 14.631L26.482 14.703L24.874 13.071H24.839L26.46 14.717L26.314 14.789L24.622 13.071H24.582L26.287 14.801L26.142 14.873L24.367 13.071H24.327L26.117 14.887L25.972 14.961L24.111 13.071L24.068 13.076ZM29.961 13.076L31.803 14.947L31.743 14.977L31.908 15.055L33.701 16.875H33.742L31.984 15.092L32.389 15.279L33.959 16.875H33.996L32.459 15.315L32.867 15.507L34.215 16.876H34.252L32.938 15.538L33.346 15.731L34.471 16.876H34.512L33.356 15.702V15.483L34.727 16.876H34.767L33.355 15.444V15.224L34.982 16.876H35.023L33.355 15.183V14.964L35.24 16.876H35.277L33.355 14.925V14.704L34.127 15.485C34.273 15.845 34.563 16.14 34.92 16.292L35.497 16.876H35.534L34.975 16.309C35.07 16.345 35.167 16.369 35.268 16.384L35.755 16.876H35.792L35.31 16.387C35.356 16.392 35.402 16.401 35.449 16.401C35.477 16.401 35.505 16.393 35.533 16.391L36.009 16.875H36.048L35.568 16.389C35.632 16.383 35.697 16.377 35.758 16.362L36.263 16.875H36.306L35.79 16.351C35.846 16.336 35.9 16.32 35.952 16.299L36.522 16.875H36.563L35.983 16.287C36.032 16.266 36.078 16.237 36.123 16.21L36.776 16.874H36.816L36.149 16.196C36.194 16.169 36.237 16.14 36.279 16.108L37.034 16.875H37.073L36.303 16.091C36.343 16.06 36.385 16.029 36.423 15.994L37.288 16.874H37.329L36.443 15.976C36.48 15.939 36.511 15.896 36.544 15.856L37.548 16.874H37.585L36.562 15.834C36.5943 15.793 36.6243 15.7503 36.652 15.706L37.802 16.874H37.841L36.667 15.683C36.694 15.637 36.723 15.591 36.745 15.543L38.056 16.874H38.099L36.761 15.513C36.784 15.46 36.797 15.405 36.814 15.349L38.314 16.874H38.354L36.823 15.317C36.839 15.257 36.848 15.194 36.856 15.132L38.571 16.875H38.612L36.86 15.095C36.864 15.055 36.872 15.017 36.872 14.976C36.872 14.944 36.866 14.912 36.864 14.881L38.829 16.875H38.866L36.86 14.838C36.852 14.746 36.8352 14.6549 36.81 14.566L39.083 16.874H39.124L36.794 14.507C36.728 14.3051 36.6159 14.1213 36.4667 13.9701C36.3174 13.819 36.1351 13.7046 35.934 13.636L35.384 13.075H35.343L35.876 13.616C35.7891 13.5911 35.7 13.5744 35.61 13.566L35.126 13.076H35.089L35.567 13.561C35.527 13.558 35.489 13.55 35.447 13.55C35.414 13.55 35.382 13.559 35.348 13.561L34.872 13.075H34.831L35.314 13.565C35.251 13.572 35.187 13.577 35.126 13.592L34.614 13.075H34.575L35.096 13.605C35.041 13.62 34.986 13.633 34.932 13.655L34.36 13.075H34.317L34.901 13.667C34.853 13.689 34.808 13.721 34.762 13.747L34.102 13.075H34.063L34.737 13.759C34.6925 13.786 34.6494 13.8154 34.608 13.847L33.846 13.075H33.809L34.586 13.865C34.546 13.898 34.503 13.929 34.466 13.965L33.59 13.075H33.55L34.446 13.983C34.409 14.02 34.379 14.062 34.346 14.103L33.334 13.075H33.295L34.328 14.125C34.296 14.168 34.268 14.21 34.241 14.255L33.078 13.075H33.038L34.225 14.28C34.198 14.325 34.169 14.37 34.147 14.419L32.825 13.075H32.782L34.133 14.448C34.111 14.501 34.096 14.556 34.08 14.612L32.567 13.075H32.524L34.071 14.647C34.0559 14.7081 34.0452 14.7703 34.039 14.833L32.309 13.075H32.269L34.036 14.868C34.032 14.904 34.024 14.938 34.024 14.975C34.024 15.015 34.034 15.052 34.038 15.091L33.358 14.401V14.214L33.233 14.274L32.053 13.074H32.016L33.206 14.286L33.057 14.356L31.795 13.075H31.758L33.03 14.368L32.881 14.438L31.54 13.075H31.503L32.857 14.452L32.711 14.52L31.287 13.075H31.246L32.683 14.534L32.535 14.604L31.029 13.075H30.989L32.507 14.616L32.359 14.684L30.775 13.075H30.734L32.332 14.698L32.183 14.768L30.515 13.075H30.478L32.158 14.78L32.008 14.85L30.259 13.075H30.223L31.985 14.864L31.837 14.932L30.007 13.075L29.961 13.076ZM35.601 13.076L39.341 16.876H39.379L35.639 13.076H35.6H35.601ZM35.855 13.076L37.695 14.946L37.631 14.976L37.818 15.068L40.895 18.195L40.825 18.344L39.435 16.934V16.973L40.81 18.369L40.74 18.519L39.435 17.195V17.236L40.725 18.547L40.655 18.695L39.435 17.457V17.494L40.645 18.723L40.573 18.871H40.79L41.682 19.778C41.5979 19.7553 41.5119 19.7409 41.425 19.735L40.573 18.871L39.434 17.715V17.756L41.38 19.731C41.365 19.731 41.35 19.725 41.335 19.725C41.281 19.725 41.227 19.736 41.175 19.742L39.435 17.975V18.016L41.139 19.746C41.079 19.756 41.02 19.768 40.962 19.786L39.434 18.234V18.277L40.928 19.797C40.874 19.815 40.819 19.83 40.768 19.854L39.434 18.5V18.539L40.744 19.869C40.6959 19.8924 40.6492 19.9184 40.604 19.947L39.434 18.759V18.797L40.58 19.961C40.536 19.989 40.496 20.023 40.455 20.056L39.434 19.019V19.059L40.434 20.074C40.394 20.107 40.352 20.138 40.316 20.175L39.434 19.279V19.318L40.301 20.198C40.2656 20.2356 40.2323 20.275 40.201 20.316L39.434 19.539V19.579L40.182 20.339C40.151 20.382 40.126 20.427 40.1 20.472L39.435 19.796V19.837L40.087 20.499C40.061 20.547 40.033 20.593 40.012 20.644L39.434 20.056V20.099L40.003 20.675C39.983 20.729 39.962 20.783 39.948 20.839L39.434 20.318V20.357L39.94 20.87C39.926 20.934 39.923 21.002 39.919 21.068L39.434 20.578V20.615L39.914 21.103C39.914 21.118 39.909 21.134 39.909 21.15C39.909 21.215 39.921 21.28 39.93 21.343L39.434 20.839V20.879L39.936 21.389C39.956 21.497 39.986 21.602 40.03 21.703L39.434 21.097V21.138L40.083 21.797C40.2181 22.0451 40.4206 22.2499 40.667 22.388L43.235 24.998V24.957L40.757 22.441C40.859 22.489 40.965 22.524 41.077 22.546L43.235 24.738V24.698L41.122 22.552C41.192 22.564 41.262 22.574 41.335 22.574H41.36L43.235 24.476V24.439L41.393 22.572C41.46 22.569 41.526 22.562 41.591 22.548L43.235 24.22V24.18L41.625 22.541C41.68 22.529 41.735 22.51 41.788 22.491L43.236 23.959V23.916L41.82 22.479C41.87 22.459 41.92 22.436 41.968 22.411L43.235 23.698V23.655L41.993 22.395C42.04 22.369 42.087 22.345 42.13 22.315L43.235 23.439V23.396L42.153 22.298C42.194 22.268 42.233 22.235 42.273 22.2L43.235 23.177V23.136L42.294 22.181C42.3313 22.1455 42.3666 22.1082 42.4 22.069L43.236 22.917V22.875L42.419 22.047C42.453 22.007 42.487 21.967 42.517 21.924L43.235 22.652V22.615L42.529 21.899C42.5579 21.8538 42.5842 21.8071 42.608 21.759L43.235 22.393V22.354L42.621 21.734C42.646 21.682 42.664 21.629 42.682 21.575L43.235 22.135V22.093L42.692 21.542C42.71 21.484 42.727 21.426 42.737 21.366L43.235 21.872V21.833L42.741 21.333C42.749 21.273 42.758 21.212 42.758 21.149V21.129L43.235 21.614V21.574L42.751 21.084C42.7475 20.9974 42.7358 20.9114 42.716 20.827L43.233 21.353V21.313L42.694 20.769C42.6461 20.6055 42.5696 20.4518 42.468 20.315L43.233 21.093V21.055L41.083 18.871H41.301L43.233 20.831V20.795L41.338 18.871H41.555L43.233 20.574V20.534L41.594 18.871H41.808L43.232 20.314V20.271L41.852 18.871H41.996L41.943 18.744L43.233 20.053V20.012L41.916 18.674L41.76 18.299L43.232 19.793V19.756L41.734 18.234L41.576 17.852L43.232 19.533V19.493L41.547 17.781L41.392 17.404L43.232 19.274V19.232L41.365 17.336L41.332 17.256L41.316 17.286L39.186 15.123L39.199 14.916L43.232 19.014V18.972L39.2 14.876L39.214 14.669L40.009 15.475C40.155 15.84 40.45 16.14 40.813 16.292L43.233 18.751V18.711L40.87 16.311C40.962 16.346 41.058 16.369 41.155 16.382L43.233 18.493V18.449L41.204 16.388C41.247 16.392 41.29 16.4 41.334 16.4C41.364 16.4 41.392 16.392 41.423 16.39L43.233 18.23V18.189L41.46 16.388C41.524 16.382 41.586 16.374 41.648 16.358L43.233 17.97V17.93L41.679 16.35C41.7348 16.3355 41.7895 16.3175 41.843 16.296L43.233 17.708V17.669L41.873 16.287C41.921 16.267 41.965 16.235 42.011 16.209L43.234 17.451V17.411L42.038 16.195C42.0828 16.1686 42.1262 16.1399 42.168 16.109L43.234 17.191V17.151L42.191 16.091C42.231 16.059 42.274 16.027 42.311 15.991L43.234 16.93V16.893L42.331 15.977C42.368 15.94 42.397 15.897 42.429 15.857L43.234 16.674V16.629L42.449 15.834C42.481 15.793 42.509 15.749 42.537 15.705L43.232 16.41V16.37L42.552 15.68C42.579 15.634 42.608 15.588 42.63 15.54L43.232 16.15V16.111L42.644 15.514C42.667 15.461 42.682 15.405 42.699 15.348L43.232 15.889V15.85L42.708 15.317C42.723 15.2562 42.7337 15.1943 42.74 15.132L43.232 15.63V15.59L42.743 15.095C42.747 15.055 42.755 15.019 42.755 14.979C42.755 14.945 42.748 14.911 42.745 14.878L43.232 15.372V15.329L42.742 14.831C42.7312 14.7347 42.7101 14.6398 42.679 14.548L43.232 15.11V15.071L42.659 14.491C42.5853 14.3039 42.4747 14.1336 42.3339 13.9902C42.193 13.8467 42.0247 13.7331 41.839 13.656L41.271 13.078H41.231L41.782 13.638C41.6913 13.6062 41.5974 13.584 41.502 13.572L41.015 13.078H40.974L41.454 13.566C41.414 13.562 41.373 13.553 41.331 13.553C41.299 13.553 41.268 13.56 41.235 13.563L40.757 13.078H40.717L41.2 13.566C41.137 13.5715 41.0745 13.5815 41.013 13.596L40.501 13.078H40.464L40.981 13.605C40.925 13.62 40.87 13.635 40.815 13.658L40.243 13.078H40.206L40.788 13.668C40.739 13.688 40.694 13.718 40.648 13.746L39.991 13.078H39.951L40.622 13.761C40.5775 13.7874 40.5344 13.8161 40.493 13.847L39.735 13.077H39.69L40.468 13.869C40.428 13.9 40.386 13.93 40.348 13.966L39.476 13.078H39.436L40.329 13.984C40.293 14.021 40.262 14.063 40.229 14.103L39.219 13.078H39.181L40.211 14.126C40.1791 14.1667 40.1494 14.2091 40.122 14.253L38.964 13.077H38.924L40.108 14.278C40.081 14.324 40.051 14.37 40.028 14.419L38.71 13.077H38.671L40.017 14.444C39.994 14.498 39.98 14.556 39.964 14.612L38.452 13.077H38.413L39.953 14.644C39.936 14.704 39.928 14.767 39.921 14.829L38.197 13.077H38.156L39.916 14.868C39.913 14.905 39.904 14.94 39.904 14.978C39.904 15.014 39.913 15.049 39.916 15.085L39.23 14.388L39.24 14.216L39.12 14.274L37.94 13.077H37.898L39.088 14.286L38.941 14.356L37.682 13.076H37.642L38.916 14.37L38.767 14.439L37.427 13.077H37.385L38.741 14.452L38.592 14.522L37.168 13.077H37.129L38.565 14.536L38.418 14.604L36.914 13.077H36.874L38.389 14.617L38.239 14.687L36.655 13.077H36.618L38.215 14.698L38.069 14.768L36.403 13.077H36.362L38.042 14.782L37.893 14.851L36.147 13.077H36.104L37.864 14.867L37.717 14.934L35.887 13.077H35.857L35.855 13.076ZM41.492 13.076L43.236 14.848V14.805L41.535 13.076H41.492ZM41.75 13.076L43.236 14.586V14.545L41.789 13.076H41.749H41.75ZM42.004 13.076L43.236 14.326V14.289L42.041 13.076H42.004ZM42.26 13.076L43.236 14.066V14.023L42.303 13.076H42.26ZM42.516 13.076L43.236 13.806V13.766L42.556 13.077H42.516V13.076ZM42.773 13.076L43.236 13.545V13.504L42.814 13.076H42.774H42.773ZM43.029 13.076L43.236 13.286V13.244L43.066 13.076H43.029ZM6.187 13.551C5.427 13.551 4.761 14.217 4.761 14.977C4.761 15.737 5.427 16.401 6.187 16.401C6.947 16.401 7.611 15.737 7.611 14.977C7.611 14.217 6.947 13.551 6.187 13.551ZM12.076 13.551C11.316 13.551 10.65 14.217 10.65 14.977C10.65 15.737 11.316 16.401 12.076 16.401C12.836 16.401 13.5 15.737 13.5 14.977C13.5 14.217 12.836 13.551 12.076 13.551ZM6.187 14.026C6.662 14.026 7.137 14.407 7.137 14.977C7.137 15.229 7.03691 15.4706 6.85875 15.6488C6.68059 15.8269 6.43896 15.927 6.187 15.927C5.93491 15.927 5.69315 15.8269 5.51489 15.6486C5.33664 15.4704 5.2365 15.2286 5.2365 14.9765C5.2365 14.7244 5.33664 14.4826 5.51489 14.3044C5.69315 14.1261 5.93491 14.026 6.187 14.026ZM12.076 14.026C12.551 14.026 13.026 14.407 13.026 14.977C13.026 15.229 12.9259 15.4706 12.7478 15.6488C12.5696 15.8269 12.328 15.927 12.076 15.927C11.824 15.927 11.5824 15.8269 11.4042 15.6488C11.2261 15.4706 11.126 15.229 11.126 14.977C11.126 14.407 11.506 14.026 12.076 14.026ZM17.871 14.026C18.346 14.026 18.822 14.407 18.822 14.977C18.822 15.452 18.441 15.927 17.871 15.927C17.619 15.927 17.3774 15.8269 17.1992 15.6488C17.0211 15.4706 16.921 15.229 16.921 14.977C16.921 14.407 17.396 14.026 17.871 14.026ZM23.76 14.026C24.234 14.026 24.71 14.407 24.71 14.977C24.71 15.452 24.33 15.927 23.76 15.927C23.508 15.927 23.2664 15.8269 23.0882 15.6488C22.9101 15.4706 22.81 15.229 22.81 14.977C22.81 14.407 23.285 14.026 23.76 14.026ZM29.648 14.026C30.123 14.026 30.599 14.407 30.599 14.977C30.599 15.452 30.219 15.927 29.649 15.927C29.397 15.927 29.1554 15.8269 28.9772 15.6488C28.7991 15.4706 28.699 15.229 28.699 14.977C28.699 14.407 29.079 14.026 29.649 14.026H29.648ZM35.445 14.026C35.92 14.026 36.395 14.407 36.395 14.977C36.395 15.229 36.2949 15.4706 36.1168 15.6488C35.9386 15.8269 35.697 15.927 35.445 15.927C35.3202 15.927 35.1967 15.9024 35.0815 15.8547C34.9662 15.8069 34.8615 15.737 34.7732 15.6488C34.685 15.5605 34.6151 15.4558 34.5673 15.3405C34.5196 15.2253 34.495 15.1018 34.495 14.977C34.495 14.407 34.97 14.026 35.445 14.026ZM41.334 14.026C41.586 14.026 41.8276 14.1261 42.0058 14.3042C42.1839 14.4824 42.284 14.724 42.284 14.976C42.284 15.228 42.1839 15.4696 42.0058 15.6478C41.8276 15.8259 41.586 15.926 41.334 15.926C41.0822 15.926 40.8407 15.826 40.6626 15.6481C40.4845 15.4702 40.3843 15.2288 40.384 14.977C40.384 14.407 40.859 14.026 41.334 14.026ZM9.892 14.215L8.372 14.977L9.986 15.736V14.214H9.892V14.215ZM15.781 14.215L14.165 14.976L15.781 15.736V14.215ZM39.231 14.425L39.925 15.131C39.937 15.229 39.957 15.326 39.989 15.418L39.219 14.633L39.231 14.426V14.425ZM33.353 14.439L34.036 15.133C34.049 15.234 34.07 15.333 34.105 15.428L33.353 14.664V14.439ZM27.48 14.463L28.251 15.246C28.277 15.371 28.327 15.489 28.386 15.601L27.496 14.697L27.48 14.463ZM21.59 14.465L22.364 15.252C22.392 15.38 22.442 15.499 22.503 15.613L21.607 14.701L21.591 14.465H21.59ZM37.888 15.105L38.316 15.32L40.974 18.02L40.904 18.168L37.888 15.105ZM39.185 15.16L41.305 17.314L41.235 17.463L39.171 15.365L39.185 15.16ZM15.972 15.225V15.264L17.559 16.874H17.598L15.972 15.224V15.225ZM38.4 15.361L38.826 15.574L41.056 17.842L40.988 17.99L38.4 15.361ZM39.167 15.404L41.222 17.49L41.152 17.64L39.156 15.611L39.167 15.404ZM15.972 15.482V15.527L17.3 16.874H17.343L15.973 15.482H15.972ZM38.906 15.615L39.149 15.736L39.154 15.648L41.141 17.666L41.071 17.814L38.906 15.615ZM15.972 15.746V15.787L17.044 16.874H17.085L15.972 15.746ZM15.972 16.006V16.049L16.786 16.874H16.829L15.972 16.006ZM15.972 16.267V16.309L16.53 16.874H16.571L15.972 16.267ZM15.972 16.527V16.567L16.274 16.873H16.314L15.972 16.527ZM15.972 16.789V16.829L16.019 16.875H16.056L15.972 16.789ZM5.425 17.254L6.187 18.869L6.947 17.254H5.425ZM40.825 18.869H41.042L42.191 20.033C42.0546 19.9263 41.9002 19.845 41.735 19.793L40.825 18.869ZM6.187 19.723C5.427 19.723 4.762 20.389 4.762 21.149C4.762 21.909 5.427 22.573 6.187 22.573C6.947 22.573 7.611 21.909 7.611 21.149C7.611 20.389 6.947 19.723 6.187 19.723ZM12.077 19.723C11.317 19.723 10.65 20.389 10.65 21.149C10.65 21.909 11.316 22.573 12.076 22.573C12.836 22.573 13.5 21.909 13.5 21.149C13.5 20.389 12.836 19.723 12.076 19.723H12.077ZM17.871 19.723C17.111 19.723 16.447 20.389 16.447 21.149C16.447 21.909 17.111 22.573 17.871 22.573C18.631 22.573 19.297 21.909 19.297 21.149C19.297 20.389 18.726 19.723 17.871 19.723ZM23.76 19.723C23 19.723 22.336 20.389 22.336 21.149C22.336 21.909 23 22.573 23.76 22.573C24.52 22.573 25.185 21.909 25.185 21.149C25.185 20.389 24.52 19.723 23.76 19.723ZM29.648 19.723C28.888 19.723 28.225 20.389 28.225 21.149C28.225 21.909 28.888 22.573 29.648 22.573C30.408 22.573 31.074 21.909 31.074 21.149C31.074 20.389 30.408 19.723 29.648 19.723ZM35.445 19.723C34.685 19.723 34.02 20.389 34.02 21.149C34.02 21.909 34.685 22.573 35.445 22.573C36.205 22.573 36.869 21.909 36.869 21.149C36.869 20.389 36.3 19.723 35.445 19.723ZM6.187 20.2C6.662 20.2 7.137 20.579 7.137 21.149C7.13673 21.4008 7.03653 21.6422 6.8584 21.8201C6.68027 21.998 6.43878 22.098 6.187 22.098C5.93522 22.0977 5.69384 21.9975 5.51589 21.8194C5.33795 21.6413 5.238 21.3998 5.238 21.148C5.238 20.578 5.712 20.2 6.188 20.2H6.187ZM12.076 20.2C12.551 20.2 13.026 20.579 13.026 21.149C13.0257 21.4008 12.9255 21.6422 12.7474 21.8201C12.5693 21.998 12.3278 22.098 12.076 22.098C11.824 22.098 11.5824 21.9979 11.4042 21.8198C11.2261 21.6416 11.126 21.4 11.126 21.148C11.126 20.578 11.506 20.2 12.076 20.2ZM17.871 20.2C18.346 20.2 18.822 20.579 18.822 21.149C18.822 21.401 18.7219 21.6426 18.5438 21.8208C18.3656 21.9989 18.124 22.099 17.872 22.099C17.62 22.099 17.3784 21.9989 17.2002 21.8208C17.0221 21.6426 16.922 21.401 16.922 21.149C16.922 20.579 17.396 20.199 17.871 20.199V20.2ZM23.76 20.2C24.235 20.2 24.71 20.579 24.71 21.149C24.71 21.624 24.33 22.098 23.76 22.098C23.508 22.098 23.2664 21.9979 23.0882 21.8198C22.9101 21.6416 22.81 21.4 22.81 21.148C22.81 20.578 23.285 20.2 23.76 20.2ZM29.648 20.2C30.123 20.2 30.599 20.579 30.599 21.149C30.599 21.624 30.219 22.098 29.649 22.098C29.397 22.098 29.1554 21.9979 28.9772 21.8198C28.7991 21.6416 28.699 21.4 28.699 21.148C28.699 20.578 29.079 20.2 29.649 20.2H29.648ZM35.445 20.2C35.92 20.2 36.395 20.579 36.395 21.149C36.3947 21.4008 36.2945 21.6422 36.1164 21.8201C35.9383 21.998 35.6968 22.098 35.445 22.098C35.1932 22.0977 34.9518 21.9975 34.7739 21.8194C34.596 21.6413 34.496 21.3998 34.496 21.148C34.496 20.578 34.97 20.2 35.446 20.2H35.445ZM41.334 20.2C41.809 20.2 42.284 20.579 42.284 21.149C42.2837 21.4008 42.1835 21.6422 42.0054 21.8201C41.8273 21.998 41.5858 22.098 41.334 22.098C41.082 22.098 40.8404 21.9979 40.6622 21.8198C40.4841 21.6416 40.384 21.4 40.384 21.148C40.384 20.578 40.859 20.2 41.334 20.2ZM8.371 20.387V21.812L9.984 21.052L8.371 20.387ZM14.164 20.387V21.812L15.779 21.052L14.164 20.387ZM20.053 20.387V21.812L21.67 21.052L20.053 20.387ZM25.943 20.387V21.812L27.557 21.052L25.943 20.387ZM31.738 20.387V21.812L33.351 21.052L31.738 20.387ZM39.432 21.355V21.396L43.232 25.256V25.215L39.432 21.355ZM39.432 21.615V21.656L41.282 23.535L41.211 23.683L39.431 21.875V21.915L41.199 23.711L41.127 23.861L39.431 22.138V22.178L41.115 23.888L41.045 24.037L39.431 22.398V22.438L41.033 24.062L40.963 24.212L39.432 22.658V22.698L40.949 24.24L40.879 24.388L39.432 22.92V22.959L40.867 24.416L40.797 24.564L39.432 23.177V23.22L40.783 24.593L40.715 24.74L39.432 23.439V23.479L40.702 24.767L40.631 24.916L39.431 23.699V23.738L40.617 24.943L40.57 25.043H40.717L41.584 25.923C41.5036 25.9071 41.4219 25.8987 41.34 25.898L39.432 23.961V24L41.302 25.901C41.2359 25.9028 41.1701 25.9095 41.105 25.921L39.432 24.219V24.259L41.072 25.924C41.014 25.936 40.96 25.956 40.904 25.975L39.431 24.479V24.52L40.873 25.983C40.8211 26.002 40.7703 26.0241 40.721 26.049L39.431 24.741V24.781L40.695 26.063C40.648 26.088 40.601 26.111 40.556 26.141L39.432 25V25.043L40.533 26.16C40.491 26.19 40.453 26.224 40.414 26.257L39.431 25.261V25.302L40.391 26.277C40.3532 26.3118 40.3171 26.3485 40.283 26.387L39.431 25.521V25.558L40.268 26.406C40.233 26.446 40.194 26.486 40.164 26.529L39.431 25.783V25.822L40.151 26.55C40.121 26.594 40.097 26.642 40.072 26.689L39.432 26.041V26.081L40.057 26.716C40.031 26.766 40.011 26.816 39.992 26.869L39.432 26.3V26.343L39.982 26.902C39.964 26.958 39.945 27.013 39.934 27.072L39.432 26.562V26.603L39.93 27.109C39.919 27.174 39.909 27.239 39.908 27.306L39.432 26.822V26.862L39.908 27.349C39.91 27.433 39.92 27.516 39.938 27.597L39.43 27.081V27.118L39.95 27.646C39.985 27.783 40.044 27.914 40.118 28.034L39.43 27.337V27.38L40.223 28.183C40.29 28.266 40.363 28.342 40.446 28.409L41.241 29.218H41.282L40.596 28.518C40.714 28.594 40.841 28.649 40.976 28.687L41.496 29.217H41.533L41.031 28.707C41.112 28.725 41.195 28.732 41.28 28.736L41.754 29.216H41.794L41.325 28.743H41.329C41.394 28.743 41.458 28.731 41.521 28.722L42.009 29.218H42.048L41.558 28.718C41.617 28.708 41.673 28.693 41.73 28.675L42.265 29.218H42.305L41.76 28.665C41.813 28.646 41.867 28.629 41.918 28.605L42.523 29.217H42.563L41.941 28.589C41.989 28.565 42.037 28.539 42.082 28.51L42.777 29.217H42.817L42.107 28.497C42.151 28.467 42.19 28.431 42.23 28.397L43.037 29.217H43.074L42.25 28.382C42.289 28.348 42.326 28.312 42.361 28.274L43.231 29.157V29.116L42.381 28.253C42.415 28.214 42.448 28.175 42.478 28.133L43.23 28.897V28.857L42.496 28.112C42.526 28.069 42.55 28.022 42.576 27.975L43.23 28.637V28.597L42.592 27.947C42.617 27.899 42.64 27.851 42.66 27.799L43.23 28.378V28.335L42.671 27.765C42.691 27.71 42.714 27.657 42.726 27.6L43.232 28.113V28.074L42.729 27.566C42.741 27.501 42.748 27.434 42.75 27.367L43.23 27.855V27.815L42.754 27.33V27.316C42.754 27.236 42.744 27.16 42.731 27.084L43.231 27.592V27.552L42.725 27.041C42.6959 26.9138 42.6491 26.7913 42.586 26.677L43.231 27.332V27.292L42.536 26.588C42.4189 26.4003 42.2619 26.2409 42.076 26.121L41.012 25.037H41.227L43.232 27.074V27.031L41.268 25.037H41.483L43.231 26.812V26.773L41.521 25.037H41.739L43.231 26.553V26.512L41.778 25.037H41.995L43.231 26.291V26.251L41.968 24.969L41.811 24.589L43.231 26.031V25.992L41.784 24.523L41.626 24.143L43.231 25.771V25.728L41.6 24.07L41.443 23.693L43.233 25.51V25.469L41.416 23.623L41.332 23.422L41.295 23.502L39.433 21.615H39.432ZM34.777 23.428L35.537 25.043L36.297 23.428H34.777ZM40.756 25.043H40.972L41.992 26.078C41.8797 26.0138 41.7588 25.966 41.633 25.936L40.756 25.043ZM6.186 25.898C5.426 25.898 4.76 26.562 4.76 27.322C4.76 28.082 5.426 28.747 6.186 28.747C6.946 28.747 7.609 28.082 7.609 27.322C7.609 26.562 6.946 25.898 6.186 25.898ZM12.074 25.898C11.314 25.898 10.649 26.562 10.649 27.322C10.649 28.082 11.315 28.747 12.074 28.747C12.834 28.747 13.498 28.082 13.498 27.322C13.498 26.562 12.834 25.898 12.074 25.898ZM17.869 25.898C17.109 25.898 16.445 26.562 16.445 27.322C16.445 28.082 17.109 28.747 17.869 28.747C18.629 28.747 19.295 28.082 19.295 27.322C19.295 26.562 18.725 25.898 17.869 25.898ZM23.758 25.898C22.998 25.898 22.334 26.562 22.334 27.322C22.334 28.082 22.998 28.747 23.758 28.747C24.518 28.747 25.184 28.082 25.184 27.322C25.184 26.562 24.518 25.898 23.758 25.898ZM29.647 25.898C28.887 25.898 28.223 26.562 28.223 27.322C28.223 28.082 28.887 28.747 29.647 28.747C30.407 28.747 31.073 28.082 31.073 27.322C31.073 26.562 30.407 25.898 29.647 25.898ZM35.444 25.898C34.684 25.898 34.018 26.562 34.018 27.322C34.018 28.082 34.684 28.747 35.444 28.747C36.204 28.747 36.867 28.082 36.867 27.322C36.867 26.562 36.298 25.898 35.444 25.898ZM6.186 26.373C6.43796 26.373 6.67959 26.4731 6.85775 26.6512C7.03591 26.8294 7.136 27.071 7.136 27.323C7.136 27.575 7.03591 27.8166 6.85775 27.9948C6.67959 28.1729 6.43796 28.273 6.186 28.273C5.93403 28.2725 5.69255 28.1721 5.51448 27.9938C5.33641 27.8156 5.23626 27.574 5.236 27.322C5.236 26.847 5.711 26.372 6.186 26.372V26.373ZM12.074 26.373C12.326 26.373 12.5676 26.4731 12.7458 26.6512C12.9239 26.8294 13.024 27.071 13.024 27.323C13.024 27.575 12.9239 27.8166 12.7458 27.9948C12.5676 28.1729 12.326 28.273 12.074 28.273C11.822 28.273 11.5804 28.1729 11.4022 27.9948C11.2241 27.8166 11.124 27.575 11.124 27.323C11.124 27.071 11.2241 26.8294 11.4022 26.6512C11.5804 26.4731 11.822 26.373 12.074 26.373ZM17.869 26.373C18.344 26.373 18.82 26.753 18.82 27.322C18.8192 27.5738 18.7189 27.8151 18.5409 27.9932C18.363 28.1714 18.1218 28.2719 17.87 28.273C17.618 28.2725 17.3766 28.1721 17.1985 27.9938C17.0204 27.8156 16.9203 27.574 16.92 27.322C16.92 26.847 17.394 26.372 17.87 26.372L17.869 26.373ZM23.758 26.373C24.233 26.373 24.709 26.753 24.709 27.322C24.7082 27.574 24.6078 27.8154 24.4296 27.9936C24.2514 28.1718 24.01 28.2722 23.758 28.273C23.506 28.2725 23.2646 28.1721 23.0865 27.9938C22.9084 27.8156 22.8083 27.574 22.808 27.322C22.808 26.847 23.283 26.372 23.758 26.372V26.373ZM29.647 26.373C30.122 26.373 30.597 26.753 30.597 27.322C30.5962 27.5738 30.4959 27.8151 30.3179 27.9932C30.14 28.1714 29.8988 28.2719 29.647 28.273C29.395 28.273 29.1534 28.1729 28.9752 27.9948C28.7971 27.8166 28.697 27.575 28.697 27.323C28.697 27.071 28.7971 26.8294 28.9752 26.6512C29.1534 26.4731 29.395 26.373 29.647 26.373ZM35.444 26.373C35.696 26.373 35.9376 26.4731 36.1158 26.6512C36.2939 26.8294 36.394 27.071 36.394 27.323C36.394 27.575 36.2939 27.8166 36.1158 27.9948C35.9376 28.1729 35.696 28.273 35.444 28.273C35.192 28.2725 34.9506 28.1721 34.7725 27.9938C34.5944 27.8156 34.4943 27.574 34.494 27.322C34.494 26.847 34.968 26.372 35.444 26.372V26.373ZM41.332 26.373C41.584 26.373 41.8256 26.4731 42.0037 26.6512C42.1819 26.8294 42.282 27.071 42.282 27.323C42.282 27.575 42.1819 27.8166 42.0037 27.9948C41.8256 28.1729 41.584 28.273 41.332 28.273C41.0802 28.2722 40.839 28.1717 40.6611 27.9935C40.4833 27.8152 40.3833 27.5738 40.383 27.322C40.383 26.847 40.857 26.372 41.333 26.372L41.332 26.373ZM9.89 26.562L8.37 27.322L9.984 28.084V26.562H9.89ZM15.779 26.562L14.164 27.322L15.779 28.083V26.562ZM21.572 26.562L20.052 27.322L21.67 28.083L21.572 26.562ZM27.462 26.562L25.943 27.322L27.557 28.084L27.462 26.562ZM33.352 26.562L31.738 27.322L33.351 28.083V26.562H33.352ZM39.432 27.601V27.646L40.984 29.222H41.026L39.431 27.601H39.432ZM39.432 27.866V27.904L40.73 29.222H40.767L39.431 27.866H39.432ZM39.432 28.124V28.164L40.472 29.222H40.513L39.431 28.124H39.432ZM39.432 28.386V28.423L40.218 29.222H40.255L39.431 28.386H39.432ZM39.432 28.644V28.683L39.962 29.222H40.002L39.432 28.644ZM39.432 28.904V28.944L39.705 29.222H39.745L39.431 28.904H39.432ZM39.432 29.164V29.204L39.449 29.222H39.489L39.431 29.163L39.432 29.164ZM5.422 29.6L6.184 31.214L6.944 29.6H5.423H5.422ZM6.184 32.07C5.424 32.07 4.758 32.735 4.758 33.495C4.758 34.255 5.424 34.919 6.184 34.919C6.944 34.919 7.608 34.255 7.608 33.495C7.608 32.735 6.944 32.069 6.184 32.069V32.07ZM12.073 32.07C11.313 32.07 10.647 32.735 10.647 33.495C10.647 34.255 11.313 34.919 12.073 34.919C12.833 34.919 13.497 34.255 13.497 33.495C13.497 32.735 12.833 32.069 12.073 32.069V32.07ZM17.868 32.07C17.108 32.07 16.444 32.735 16.444 33.495C16.444 34.255 17.108 34.919 17.868 34.919C18.628 34.919 19.293 34.255 19.293 33.495C19.293 32.735 18.723 32.069 17.868 32.069V32.07ZM23.756 32.07C22.996 32.07 22.332 32.735 22.332 33.495C22.332 34.255 22.996 34.919 23.756 34.919C24.516 34.919 25.182 34.255 25.182 33.495C25.182 32.735 24.516 32.069 23.756 32.069V32.07ZM29.645 32.07C28.885 32.07 28.221 32.735 28.221 33.495C28.221 34.255 28.885 34.919 29.645 34.919C30.405 34.919 31.071 34.255 31.071 33.495C31.071 32.735 30.405 32.069 29.645 32.069V32.07ZM35.442 32.07C34.682 32.07 34.016 32.735 34.016 33.495C34.016 34.255 34.682 34.919 35.442 34.919C36.202 34.919 36.866 34.255 36.866 33.495C36.866 32.735 36.296 32.069 35.442 32.069V32.07ZM41.331 32.07C40.571 32.07 39.905 32.735 39.905 33.495C39.905 34.255 40.571 34.919 41.331 34.919C42.091 34.919 42.754 34.255 42.754 33.495C42.754 32.735 42.091 32.069 41.331 32.069V32.07ZM8.369 32.733V34.159L9.982 33.399L8.369 32.733ZM14.162 32.733V34.159L15.777 33.399L14.162 32.733ZM20.05 32.733V34.159L21.668 33.399L20.05 32.733ZM25.94 32.733V34.159L27.555 33.399L25.941 32.733H25.94ZM31.736 32.733V34.159L33.349 33.399L31.736 32.733ZM37.625 32.733V34.159L39.24 33.399L37.625 32.733Z" fill="#333333"/>
</svg>
