<svg width="48" height="48" viewBox="0 0 48 48" fill="none" xmlns="http://www.w3.org/2000/svg">
<path fill-rule="evenodd" clip-rule="evenodd" d="M36.2403 4.58008C36.0643 4.58344 35.8884 4.65552 35.7559 4.79297L5.14462 36.5957C4.87999 36.8706 4.88921 37.3038 5.16415 37.5684L11.3673 43.5391C11.6422 43.8037 12.0773 43.7965 12.3419 43.5215L42.9532 11.7188C43.2179 11.4439 43.2087 11.0087 42.9337 10.7441L36.7306 4.77344C36.5931 4.64114 36.4163 4.57672 36.2403 4.58008ZM37.4024 6.60938L37.9884 8.14063L36.4356 7.61524L37.4024 6.60938ZM35.1661 7.19532C35.5052 7.18917 35.8462 7.30683 36.0977 7.54883C36.6007 8.03273 36.6169 8.89564 36.1329 9.39844C35.6489 9.90134 34.7863 9.9176 34.2833 9.4336C33.7803 8.9496 33.7641 8.08493 34.2481 7.58203C34.4901 7.33063 34.827 7.20147 35.1661 7.19532ZM35.1524 7.61914C34.9292 7.63112 34.7138 7.72959 34.5626 7.88672C34.2601 8.20095 34.2089 8.75614 34.586 9.11914C34.9631 9.48214 35.5179 9.40998 35.8204 9.09571C36.1834 8.71863 36.1112 8.16383 35.797 7.86133C35.6084 7.67983 35.3756 7.60717 35.1524 7.61914ZM38.7052 7.86328L39.2892 9.39453L37.7364 8.86719L38.7052 7.86328ZM40.006 9.11524L40.5919 10.6465L39.0372 10.1191L40.006 9.11524ZM34.1817 9.53907L33.6563 11.0918L32.6505 10.123L34.1817 9.53907ZM37.2208 10.2324C37.282 10.2306 37.3444 10.2528 37.3927 10.2969C37.4893 10.3851 37.4951 10.5328 37.4044 10.627L11.0567 38C10.966 38.0943 10.8136 38.098 10.7169 38.0098C10.6203 37.9216 10.6145 37.7739 10.7052 37.6797L37.0548 10.3066C37.1001 10.2595 37.1596 10.2342 37.2208 10.2324ZM32.1134 10.3672C32.4526 10.361 32.7936 10.4787 33.045 10.7207C33.5479 11.2047 33.5642 12.0655 33.0802 12.5684C32.5962 13.0712 31.7335 13.0895 31.2306 12.6055C30.7278 12.1215 30.7114 11.2567 31.1954 10.7539C31.4374 10.5025 31.7741 10.3733 32.1134 10.3672ZM32.0997 10.791C31.8765 10.803 31.6631 10.8995 31.5118 11.0566C31.2093 11.3708 31.1581 11.9261 31.5352 12.2891C31.9123 12.6521 32.4652 12.5799 32.7677 12.2656C33.1307 11.8885 33.0584 11.3357 32.7442 11.0332C32.5557 10.8517 32.3229 10.779 32.0997 10.791ZM39.2579 11.125C39.5968 11.1185 39.9381 11.2365 40.1895 11.4785C40.6924 11.9625 40.7087 12.8253 40.2247 13.3281C39.7407 13.8309 38.876 13.8473 38.3731 13.3633C37.8703 12.8793 37.8559 12.0165 38.3399 11.5137C38.5819 11.2623 38.919 11.1315 39.2579 11.125ZM39.2423 11.5488C39.0191 11.5608 38.8056 11.6573 38.6544 11.8145C38.3519 12.1287 38.3635 12.7463 38.6778 13.0488C39.0549 13.4118 39.6097 13.3397 39.9122 13.0254C40.2752 12.6483 40.201 12.0935 39.8868 11.791C39.6983 11.6095 39.4655 11.5368 39.2423 11.5488ZM31.1309 12.709L30.6036 14.2617L29.5977 13.2949L31.1309 12.709ZM37.7657 12.9863L38.7716 13.9531L37.2403 14.5391L37.7657 12.9863ZM29.0626 13.5371C29.4018 13.531 29.7448 13.6467 29.9962 13.8887C30.4991 14.3727 30.5153 15.2354 30.0313 15.7383C29.5473 16.2411 28.6827 16.2594 28.1798 15.7754C27.677 15.2914 27.6606 14.4266 28.1446 13.9238C28.3866 13.6724 28.7234 13.5433 29.0626 13.5371ZM29.0509 13.959C28.8277 13.971 28.6123 14.0675 28.461 14.2246C28.1585 14.5388 28.1074 15.094 28.4845 15.457C28.8616 15.82 29.4163 15.7479 29.7188 15.4336C30.0818 15.0565 30.0096 14.5037 29.6954 14.2012C29.5069 14.0197 29.2741 13.947 29.0509 13.959ZM36.2052 14.2969C36.5441 14.2904 36.8854 14.4064 37.1368 14.6484C37.6397 15.1324 37.6579 15.9952 37.1739 16.498C36.6899 17.0008 35.8253 17.0172 35.3224 16.5332C34.8196 16.0492 34.8052 15.1864 35.2892 14.6836C35.5312 14.4322 35.8663 14.3034 36.2052 14.2969ZM36.1915 14.7207C35.9683 14.7327 35.7529 14.8292 35.6017 14.9863C35.2992 15.3005 35.3108 15.9163 35.6251 16.2188C36.0022 16.5818 36.557 16.5096 36.8595 16.1953C37.2225 15.8182 37.1502 15.2654 36.836 14.9629C36.6475 14.7814 36.4147 14.7087 36.1915 14.7207ZM28.0782 15.8789L27.5528 17.4316L26.547 16.4648L28.0782 15.8789ZM34.7169 16.1543L35.7227 17.123L34.1895 17.707L34.7169 16.1543ZM26.0118 16.707C26.351 16.7009 26.692 16.8166 26.9434 17.0586C27.4463 17.5426 27.4626 18.4053 26.9786 18.9082C26.4946 19.411 25.6319 19.4293 25.129 18.9453C24.6262 18.4613 24.6098 17.5966 25.0938 17.0938C25.3358 16.8424 25.6726 16.7132 26.0118 16.707ZM25.9981 17.1289C25.7749 17.1409 25.5615 17.2374 25.4102 17.3945C25.1077 17.7087 25.0566 18.264 25.4337 18.627C25.8108 18.99 26.3636 18.9178 26.6661 18.6035C27.0291 18.2264 26.9569 17.6736 26.6427 17.3711C26.4541 17.1896 26.2213 17.1169 25.9981 17.1289ZM33.1563 17.4648C33.4952 17.4584 33.8366 17.5764 34.088 17.8184C34.5909 18.3024 34.6071 19.1652 34.1231 19.668C33.6391 20.1708 32.7745 20.1871 32.2716 19.7031C31.7688 19.2191 31.7544 18.3563 32.2384 17.8535C32.4804 17.6021 32.8174 17.4713 33.1563 17.4648ZM33.1407 17.8887C32.9175 17.9007 32.7041 17.9971 32.5528 18.1543C32.2503 18.4685 32.262 19.0842 32.5763 19.3867C32.9534 19.7497 33.5081 19.6795 33.8106 19.3652C34.1736 18.9881 34.0994 18.4334 33.7852 18.1309C33.5967 17.9494 33.3639 17.8767 33.1407 17.8887ZM25.0294 19.0488L24.502 20.6016L23.4962 19.6328L25.0294 19.0488ZM31.6642 19.3242L32.67 20.293L31.1388 20.877L31.6642 19.3242ZM22.961 19.877C23.3003 19.8708 23.6413 19.9885 23.8927 20.2305C24.3956 20.7145 24.4118 21.5752 23.9278 22.0781C23.4438 22.5809 22.5811 22.5992 22.0782 22.1152C21.5754 21.6312 21.5591 20.7665 22.0431 20.2637C22.2851 20.0123 22.6218 19.8831 22.961 19.877ZM22.9474 20.2988C22.7242 20.3108 22.5107 20.4073 22.3595 20.5645C22.057 20.8787 22.0058 21.4358 22.3829 21.7988C22.76 22.1618 23.3128 22.0877 23.6153 21.7734C23.9783 21.3963 23.9061 20.8435 23.5919 20.541C23.4033 20.3595 23.1706 20.2868 22.9474 20.2988ZM30.1036 20.6348C30.4425 20.6283 30.7838 20.7463 31.0352 20.9883C31.5381 21.4723 31.5564 22.3351 31.0724 22.8379C30.5884 23.3407 29.7237 23.357 29.2208 22.8731C28.718 22.3891 28.7036 21.5262 29.1876 21.0234C29.4296 20.772 29.7647 20.6412 30.1036 20.6348ZM30.0899 21.0586C29.8667 21.0706 29.6513 21.1671 29.5001 21.3242C29.1976 21.6384 29.2092 22.2541 29.5235 22.5566C29.9006 22.9196 30.4554 22.8495 30.7579 22.5352C31.1209 22.1581 31.0487 21.6033 30.7345 21.3008C30.5459 21.1193 30.3131 21.0466 30.0899 21.0586ZM21.9767 22.2188L21.4513 23.7715L20.4454 22.8027L21.9767 22.2188ZM28.6134 22.4941L29.6192 23.4629L28.088 24.0469L28.6134 22.4941ZM19.9083 23.0469C20.2475 23.0407 20.5905 23.1584 20.8419 23.4004C21.3448 23.8844 21.361 24.7452 20.877 25.2481C20.393 25.7509 19.5284 25.7692 19.0255 25.2852C18.5227 24.8012 18.5063 23.9364 18.9903 23.4336C19.2323 23.1822 19.5691 23.053 19.9083 23.0469ZM19.8966 23.4688C19.6734 23.4807 19.458 23.5792 19.3067 23.7363C19.0042 24.0505 18.955 24.6058 19.3321 24.9688C19.7092 25.3318 20.262 25.2596 20.5645 24.9453C20.9275 24.5682 20.8553 24.0134 20.5411 23.7109C20.3526 23.5294 20.1198 23.4568 19.8966 23.4688ZM27.0528 23.8047C27.3917 23.7982 27.7331 23.9162 27.9845 24.1582C28.4874 24.6422 28.5056 25.505 28.0216 26.0078C27.5376 26.5106 26.6729 26.527 26.17 26.043C25.6672 25.559 25.6509 24.6962 26.1349 24.1934C26.3769 23.942 26.7139 23.8112 27.0528 23.8047ZM27.0372 24.2285C26.814 24.2405 26.6006 24.337 26.4493 24.4941C26.1468 24.8083 26.1584 25.4241 26.4727 25.7266C26.8498 26.0896 27.4046 26.0194 27.7071 25.7051C28.0701 25.328 27.9959 24.7732 27.6817 24.4707C27.4932 24.2892 27.2604 24.2165 27.0372 24.2285ZM18.9259 25.3887L18.4005 26.9414L17.3946 25.9727L18.9259 25.3887ZM25.5626 25.6641L26.5684 26.6328L25.0352 27.2168L25.5626 25.6641ZM16.8595 26.2148C17.1987 26.2087 17.5397 26.3264 17.7911 26.5684C18.294 27.0524 18.3103 27.9151 17.8263 28.418C17.3423 28.9208 16.4796 28.9391 15.9767 28.4551C15.4739 27.9711 15.4575 27.1063 15.9415 26.6035C16.1835 26.3521 16.5202 26.221 16.8595 26.2148ZM16.8458 26.6387C16.6226 26.6507 16.4092 26.7472 16.2579 26.9043C15.9554 27.2185 15.9042 27.7737 16.2813 28.1367C16.6584 28.4997 17.2113 28.4276 17.5138 28.1133C17.8768 27.7362 17.8045 27.1834 17.4903 26.8809C17.3018 26.6994 17.069 26.6267 16.8458 26.6387ZM24.002 26.9766C24.3409 26.9701 24.6823 27.0861 24.9337 27.3281C25.4366 27.8121 25.4528 28.6749 24.9688 29.1777C24.4848 29.6805 23.6202 29.6969 23.1173 29.2129C22.6145 28.7289 22.6001 27.8661 23.0841 27.3633C23.3261 27.1119 23.6631 26.983 24.002 26.9766ZM23.9864 27.3984C23.7632 27.4104 23.5498 27.5089 23.3985 27.666C23.096 27.9802 23.1077 28.5959 23.422 28.8984C23.7991 29.2614 24.3538 29.1893 24.6563 28.875C25.0193 28.4979 24.9451 27.9431 24.6309 27.6406C24.4424 27.4591 24.2096 27.3865 23.9864 27.3984ZM15.8751 28.5586L15.3477 30.1113L14.3438 29.1445L15.8751 28.5586ZM22.5099 28.8359L23.5157 29.8027L21.9845 30.3887L22.5099 28.8359ZM13.8067 29.3867C14.146 29.3806 14.4889 29.4963 14.7403 29.7383C15.2432 30.2223 15.2595 31.085 14.7755 31.5879C14.2915 32.0907 13.4268 32.109 12.9239 31.625C12.4211 31.141 12.4048 30.2762 12.8888 29.7734C13.1308 29.522 13.4675 29.3929 13.8067 29.3867ZM13.795 29.8086C13.5718 29.8206 13.3584 29.9171 13.2071 30.0742C12.9046 30.3884 12.8535 30.9436 13.2306 31.3066C13.6077 31.6696 14.1605 31.5975 14.463 31.2832C14.826 30.9061 14.7537 30.3533 14.4395 30.0508C14.251 29.8693 14.0182 29.7966 13.795 29.8086ZM20.9513 30.1445C21.2902 30.1381 21.6315 30.2541 21.8829 30.4961C22.3858 30.9801 22.4021 31.8449 21.9181 32.3477C21.4341 32.8505 20.5694 32.8668 20.0665 32.3828C19.5637 31.8988 19.5493 31.036 20.0333 30.5332C20.2753 30.2818 20.6124 30.151 20.9513 30.1445ZM20.9356 30.5684C20.7124 30.5804 20.499 30.6768 20.3477 30.834C20.0452 31.1482 20.0569 31.7639 20.3712 32.0664C20.7483 32.4294 21.3031 32.3592 21.6056 32.0449C21.9686 31.6678 21.8944 31.1131 21.5802 30.8106C21.3916 30.6291 21.1588 30.5564 20.9356 30.5684ZM12.8224 31.7285L12.297 33.2813L11.2911 32.3145L12.8224 31.7285ZM19.461 32.0039L20.4669 32.9727L18.9356 33.5566L19.461 32.0039ZM10.7559 32.5566C11.0952 32.5505 11.4362 32.6662 11.6876 32.9082C12.1905 33.3922 12.2067 34.2549 11.7227 34.7578C11.2387 35.2606 10.376 35.2789 9.87314 34.7949C9.3703 34.3109 9.35398 33.4462 9.83798 32.9434C10.08 32.692 10.4167 32.5628 10.7559 32.5566ZM10.7423 32.9785C10.5191 32.9905 10.3056 33.087 10.1544 33.2441C9.85186 33.5583 9.8007 34.1136 10.1778 34.4766C10.5549 34.8396 11.1077 34.7674 11.4102 34.4531C11.7732 34.076 11.701 33.5232 11.3868 33.2207C11.1983 33.0392 10.9655 32.9665 10.7423 32.9785ZM17.8985 33.3145C18.2374 33.308 18.5788 33.426 18.8302 33.668C19.3331 34.152 19.3513 35.0148 18.8673 35.5176C18.3833 36.0204 17.5186 36.0367 17.0157 35.5527C16.5129 35.0687 16.4985 34.2059 16.9825 33.7031C17.2245 33.4517 17.5596 33.3209 17.8985 33.3145ZM17.8849 33.7383C17.6617 33.7503 17.4482 33.8468 17.297 34.0039C16.9945 34.3181 17.0061 34.9338 17.3204 35.2363C17.6975 35.5993 18.2523 35.5291 18.5548 35.2148C18.9178 34.8377 18.8436 34.283 18.5294 33.9805C18.3408 33.799 18.1081 33.7263 17.8849 33.7383ZM9.77353 34.8984L9.24618 36.4512L8.24228 35.4824L9.77353 34.8984ZM16.4102 35.1738L17.4142 36.1426L15.8829 36.7266L16.4102 35.1738ZM7.70517 35.7266C8.04439 35.7204 8.38539 35.8381 8.63681 36.0801C9.13965 36.5641 9.15596 37.4248 8.67196 37.9277C8.18796 38.4305 7.3252 38.4488 6.82236 37.9648C6.31952 37.4808 6.3032 36.6161 6.7872 36.1133C7.0292 35.8619 7.36595 35.7327 7.70517 35.7266ZM7.6915 36.1484C7.46829 36.1604 7.25486 36.2569 7.10361 36.4141C6.80111 36.7283 6.74991 37.2854 7.12704 37.6484C7.50412 38.0114 8.05696 37.9374 8.35946 37.6231C8.72246 37.2459 8.6503 36.6931 8.33603 36.3906C8.14749 36.2091 7.9147 36.1365 7.6915 36.1484ZM14.8477 36.4844C15.1866 36.4779 15.528 36.5959 15.7794 36.8379C16.2823 37.3219 16.3005 38.1847 15.8165 38.6875C15.3325 39.1903 14.4678 39.2067 13.9649 38.7227C13.4621 38.2387 13.4458 37.3759 13.9298 36.8731C14.1718 36.6217 14.5088 36.4909 14.8477 36.4844ZM14.8341 36.9082C14.6109 36.9202 14.3974 37.0167 14.2462 37.1738C13.9437 37.488 13.9553 38.1038 14.2696 38.4063C14.6467 38.7693 15.1995 38.6991 15.502 38.3848C15.865 38.0077 15.7928 37.4529 15.4786 37.1504C15.2901 36.9689 15.0573 36.8962 14.8341 36.9082ZM9.65439 37.8125C9.99361 37.8064 10.3346 37.9221 10.586 38.1641C11.0889 38.6481 11.1052 39.5108 10.6212 40.0137C10.1372 40.5165 9.27441 40.5348 8.77157 40.0508C8.26873 39.5668 8.25242 38.702 8.73642 38.1992C8.97842 37.9478 9.31517 37.8187 9.65439 37.8125ZM9.64071 38.2344C9.41751 38.2464 9.20407 38.3429 9.05282 38.5C8.75032 38.8142 8.69913 39.3694 9.07626 39.7324C9.45334 40.0954 10.0062 40.0233 10.3087 39.709C10.6717 39.3319 10.5995 38.7791 10.2852 38.4766C10.0967 38.2951 9.86392 38.2224 9.64071 38.2344ZM13.3575 38.3438L14.3634 39.3125L12.8321 39.8965L13.3575 38.3438ZM11.797 39.6543C12.1359 39.6478 12.4772 39.7658 12.7286 40.0078C13.2315 40.4918 13.2478 41.3546 12.7638 41.8574C12.2798 42.3602 11.4151 42.3766 10.9122 41.8926C10.4094 41.4086 10.395 40.5458 10.879 40.043C11.121 39.7916 11.4581 39.6608 11.797 39.6543ZM11.7813 40.0781C11.5581 40.0901 11.3447 40.1866 11.1934 40.3438C10.8909 40.658 10.9026 41.2756 11.2169 41.5781C11.594 41.9411 12.1488 41.869 12.4513 41.5547C12.8143 41.1776 12.7401 40.6228 12.4259 40.3203C12.2373 40.1388 12.0045 40.0661 11.7813 40.0781Z" fill="#333333"/>
</svg>
