<svg width="48" height="48" viewBox="0 0 48 48" fill="none" xmlns="http://www.w3.org/2000/svg">
<path fill-rule="evenodd" clip-rule="evenodd" d="M30.4555 5.41391C31.2366 4.63286 32.5029 4.63286 33.284 5.41391L42.4764 14.6063C43.2574 15.3873 43.2574 16.6537 42.4764 17.4347L18.4347 41.4764C17.6537 42.2574 16.3873 42.2574 15.6063 41.4764L6.41391 32.284C5.63286 31.5029 5.63286 30.2366 6.41391 29.4555L30.4555 5.41391ZM15.076 32.4607L34.1679 13.3689L34.5214 13.7224L15.4295 32.8143L15.076 32.4607ZM30.9859 9.47947C31.474 9.96763 32.2655 9.96763 32.7536 9.47947C33.2418 8.99132 33.2418 8.19986 32.7536 7.71171C32.2655 7.22355 31.474 7.22355 30.9859 7.71171C30.4977 8.19986 30.4977 8.99132 30.9859 9.47947ZM30.279 11.9551C29.7909 12.4432 28.9994 12.4432 28.5113 11.9551C28.0231 11.4669 28.0231 10.6754 28.5113 10.1873C28.9994 9.69914 29.7909 9.69914 30.279 10.1873C30.7672 10.6754 30.7672 11.4669 30.279 11.9551ZM26.0357 14.4297C26.5238 14.9178 27.3153 14.9178 27.8034 14.4297C28.2916 13.9415 28.2916 13.1501 27.8034 12.6619C27.3153 12.1737 26.5238 12.1737 26.0357 12.6619C25.5475 13.1501 25.5475 13.9415 26.0357 14.4297ZM25.3288 16.9043C24.8407 17.3924 24.0492 17.3924 23.5611 16.9043C23.0729 16.4161 23.0729 15.6247 23.5611 15.1365C24.0492 14.6484 24.8407 14.6484 25.3288 15.1365C25.817 15.6247 25.817 16.4161 25.3288 16.9043ZM21.0865 19.3789C21.5746 19.867 22.3661 19.867 22.8542 19.3789C23.3424 18.8907 23.3424 18.0993 22.8542 17.6111C22.3661 17.123 21.5746 17.123 21.0865 17.6111C20.5983 18.0993 20.5983 18.8907 21.0865 19.3789ZM20.3796 21.8545C19.8915 22.3426 19.1 22.3426 18.6118 21.8545C18.1237 21.3663 18.1237 20.5749 18.6118 20.0867C19.1 19.5986 19.8915 19.5986 20.3796 20.0867C20.8678 20.5749 20.8678 21.3663 20.3796 21.8545ZM16.1363 24.3291C16.6244 24.8172 17.4159 24.8172 17.904 24.3291C18.3922 23.8409 18.3922 23.0495 17.904 22.5613C17.4159 22.0732 16.6244 22.0732 16.1363 22.5613C15.6481 23.0495 15.6481 23.8409 16.1363 24.3291ZM15.4294 26.8037C14.9413 27.2918 14.1498 27.2918 13.6617 26.8037C13.1735 26.3155 13.1735 25.5241 13.6617 25.0359C14.1498 24.5478 14.9413 24.5478 15.4294 25.0359C15.9176 25.5241 15.9176 26.3155 15.4294 26.8037ZM11.187 29.2783C11.6752 29.7665 12.4667 29.7665 12.9548 29.2783C13.443 28.7901 13.443 27.9987 12.9548 27.5105C12.4667 27.0224 11.6752 27.0224 11.187 27.5105C10.6989 27.9987 10.6989 28.7901 11.187 29.2783ZM8.71243 31.7539C9.20059 32.242 9.99204 32.242 10.4802 31.7539C10.9684 31.2657 10.9684 30.4743 10.4802 29.9861C9.99205 29.498 9.20059 29.498 8.71243 29.9861C8.22428 30.4743 8.22428 31.2657 8.71243 31.7539ZM11.7172 31.2236L13.3082 30.6932L12.7779 32.2842L11.7172 31.2236ZM14.7224 35.9965L15.2527 37.5875L16.3134 36.5268L14.7224 35.9965ZM13.8386 29.1022L15.4295 28.5719L14.8992 30.1629L13.8386 29.1022ZM17.5509 26.4506L15.9599 26.9809L17.0205 28.0416L17.5509 26.4506ZM18.0812 24.8596L19.6722 24.3293L19.1419 25.9203L18.0812 24.8596ZM21.7935 22.2079L20.2025 22.7383L21.2632 23.7989L21.7935 22.2079ZM22.3238 20.617L23.9148 20.0866L23.3845 21.6776L22.3238 20.617ZM26.0361 17.9653L24.4452 18.4956L25.5058 19.5563L26.0361 17.9653ZM26.5665 16.3743L28.1575 15.844L27.6271 17.435L26.5665 16.3743ZM30.2788 13.7227L28.6878 14.253L29.7485 15.3137L30.2788 13.7227ZM30.8091 12.1317L32.4001 11.6013L31.8698 13.1923L30.8091 12.1317ZM40.1784 15.1365C39.6903 14.6484 38.8988 14.6484 38.4107 15.1365C37.9225 15.6247 37.9225 16.4161 38.4107 16.9043C38.8988 17.3924 39.6903 17.3924 40.1784 16.9043C40.6666 16.4161 40.6666 15.6247 40.1784 15.1365ZM35.9358 17.6114C36.424 17.1232 37.2154 17.1232 37.7036 17.6114C38.1917 18.0995 38.1917 18.891 37.7036 19.3792C37.2154 19.8673 36.424 19.8673 35.9358 19.3792C35.4476 18.891 35.4476 18.0995 35.9358 17.6114ZM35.2287 20.0863C34.7405 19.5981 33.9491 19.5981 33.4609 20.0863C32.9728 20.5744 32.9728 21.3659 33.4609 21.854C33.9491 22.3422 34.7405 22.3422 35.2287 21.854C35.7169 21.3659 35.7169 20.5744 35.2287 20.0863ZM30.9861 22.5611C31.4742 22.073 32.2657 22.073 32.7538 22.5611C33.242 23.0493 33.242 23.8407 32.7538 24.3289C32.2657 24.8171 31.4742 24.8171 30.9861 24.3289C30.4979 23.8407 30.4979 23.0493 30.9861 22.5611ZM30.2789 25.036C29.7908 24.5478 28.9993 24.5478 28.5112 25.036C28.023 25.5242 28.023 26.3156 28.5112 26.8038C28.9993 27.2919 29.7908 27.2919 30.2789 26.8038C30.7671 26.3156 30.7671 25.5242 30.2789 25.036ZM26.0363 27.5109C26.5245 27.0227 27.3159 27.0227 27.8041 27.5109C28.2922 27.999 28.2922 28.7905 27.8041 29.2786C27.3159 29.7668 26.5245 29.7668 26.0363 29.2786C25.5482 28.7905 25.5482 27.999 26.0363 27.5109ZM25.3292 29.9858C24.841 29.4976 24.0496 29.4976 23.5614 29.9858C23.0733 30.4739 23.0733 31.2654 23.5614 31.7535C24.0496 32.2417 24.841 32.2417 25.3292 31.7535C25.8174 31.2654 25.8174 30.4739 25.3292 29.9858ZM21.0866 32.4606C21.5747 31.9725 22.3662 31.9725 22.8543 32.4606C23.3425 32.9488 23.3425 33.7402 22.8543 34.2284C22.3662 34.7165 21.5747 34.7165 21.0866 34.2284C20.5984 33.7402 20.5984 32.9488 21.0866 32.4606ZM20.3795 34.9355C19.8913 34.4473 19.0998 34.4473 18.6117 34.9355C18.1235 35.4237 18.1235 36.2151 18.6117 36.7033C19.0998 37.1914 19.8913 37.1914 20.3795 36.7033C20.8676 36.2151 20.8676 35.4237 20.3795 34.9355ZM16.1368 37.4104C16.625 36.9222 17.4164 36.9222 17.9046 37.4104C18.3927 37.8985 18.3927 38.69 17.9046 39.1781C17.4164 39.6663 16.625 39.6663 16.1368 39.1781C15.6487 38.69 15.6487 37.8985 16.1368 37.4104ZM14.1921 33.6986C13.704 33.2105 12.9125 33.2105 12.4243 33.6986C11.9362 34.1868 11.9362 34.9782 12.4243 35.4664C12.9125 35.9546 13.704 35.9546 14.1921 35.4664C14.6803 34.9782 14.6803 34.1868 14.1921 33.6986ZM35.0514 17.7878L33.4604 18.3181L33.9907 16.7272L35.0514 17.7878ZM35.5817 16.1968L37.1727 15.6665L36.112 14.6058L35.5817 16.1968ZM32.93 19.9091L31.3391 20.4395L31.8694 18.8485L32.93 19.9091ZM29.2177 22.5608L30.8087 22.0305L29.7481 20.9698L29.2177 22.5608ZM28.6874 24.1518L27.0964 24.6821L27.6267 23.0911L28.6874 24.1518ZM24.9751 26.8034L26.5661 26.2731L25.5054 25.2124L24.9751 26.8034ZM24.4448 28.3944L22.8538 28.9247L23.3841 27.3338L24.4448 28.3944ZM20.7325 31.0461L22.3234 30.5157L21.2628 29.4551L20.7325 31.0461ZM20.2021 32.6371L18.6111 33.1674L19.1415 31.5764L20.2021 32.6371ZM16.4898 35.2887L18.0808 34.7584L17.0201 33.6977L16.4898 35.2887ZM33.8141 9.48017L34.3444 11.0712L32.7534 10.5408L33.8141 9.48017ZM36.1122 12.8389L35.5819 11.2479L34.5212 12.3086L36.1122 12.8389ZM37.3496 13.0157L37.88 14.6067L36.289 14.0764L37.3496 13.0157Z" fill="#333333"/>
</svg>
