<svg width="48" height="48" viewBox="0 0 48 48" fill="none" xmlns="http://www.w3.org/2000/svg">
<g clip-path="url(#clip0)">
<path fill-rule="evenodd" clip-rule="evenodd" d="M-0.00585938 0.015625V48.0156H47.9941V0.015625H-0.00585938ZM12.3418 4C14.3361 4.00031 15.957 5.61643 15.957 7.61133C15.957 7.82056 15.9327 8.02342 15.8984 8.22266L15.9258 8.11523L16.7148 9.80469L15.5898 11.4922C19.0944 14.6532 20.7415 20.1132 25.293 20.1133C25.4402 19.9768 25.6295 19.8946 25.8297 19.88C26.0299 19.8654 26.2291 19.9195 26.3945 20.0332L25.2559 21.373C25.1353 21.2475 25.0545 21.0891 25.0236 20.9178C24.9926 20.7466 25.013 20.5699 25.082 20.4102C24.0603 20.2876 22.954 19.8645 22.248 19.4082C19.765 17.8032 18.0251 14.0618 15.2988 11.5996L12.8125 11.7012L12.5938 11.2168C12.5046 11.23 12.4434 11.2289 12.3418 11.2246C10.347 11.2243 8.73078 9.60624 8.73047 7.61133C8.73079 5.61643 10.3465 4.00031 12.3418 4ZM12.5938 11.2168C12.5938 11.2168 12.7527 11.2207 12.9043 11.1738C12.9565 11.1577 12.9647 11.3578 12.9609 11.4062L15.2617 11.2949L16.3633 9.72852L15.8184 8.58008L15.8613 8.39258C15.5418 9.82405 14.378 10.9343 12.9141 11.168L11.6133 8.15234C11.6139 8.14756 11.6127 8.1454 11.6133 8.14062C11.6424 8.08648 11.6569 8.02616 11.6562 7.96484C11.6562 7.76264 11.4911 7.59976 11.2871 7.59961C11.2785 7.59931 11.2704 7.59931 11.2617 7.59961C11.068 7.61328 10.9175 7.77227 10.918 7.96484C10.918 8.16594 11.0804 8.33024 11.2832 8.33203L12.5938 11.2168ZM33.7793 9.19727C34.7457 9.18043 35.7185 9.5315 36.4688 10.2559C37.9698 11.7047 38.0116 14.0967 36.5625 15.5977C35.1133 17.099 32.7215 17.1394 31.2207 15.6895C29.7201 14.24 29.6794 11.8481 31.1289 10.3477C31.8535 9.59752 32.8129 9.2141 33.7793 9.19727ZM12.2852 12.209H12.6602C14.6443 12.209 16.2472 13.7098 16.4492 15.6387L13.1641 13.6328C12.1879 13.0368 10.9085 13.3222 10.2969 14.2734C9.68529 15.2247 9.97891 16.4724 10.9551 17.0684L16.4902 20.4473L16.582 42.9941C16.587 44.2168 15.0354 43.6039 15.0254 42.9883V28.4707C15.0254 28.3684 14.9421 28.2871 14.8398 28.2871C14.7376 28.2871 14.6559 28.3684 14.6562 28.4707L14.7031 40.5039C14.5132 43.3291 13.3955 43.8223 12.6602 43.8223H12.2852C10.1635 43.8223 8.45508 42.1158 8.45508 39.9941V16.0391C8.45508 13.9174 10.1635 12.209 12.2852 12.209ZM11.8145 13.5566C11.9857 13.5347 12.1607 13.5369 12.334 13.5645C12.565 13.6012 12.7945 13.6826 13.0059 13.8125L21.7891 19.209C22.6347 19.7285 22.8911 20.8134 22.3613 21.6426C21.8315 22.4718 20.7226 22.7226 19.877 22.2031L11.0938 16.8066C10.2481 16.2871 9.99365 15.2003 10.5234 14.3711C10.8214 13.9047 11.3007 13.6225 11.8145 13.5566ZM31.1992 17.1504C31.7632 17.1257 32.6019 17.532 33.2812 18.459C33.2925 18.4924 33.3498 18.6652 33.3652 18.7109C33.3927 18.7607 33.4238 18.8049 33.4434 18.8594L35.7461 25.2891L38.7148 26.8301C39.2841 27.1258 39.5107 27.8243 39.2207 28.3965C38.9307 28.9687 38.2372 29.1903 37.668 28.8945L34.1973 27.0898L34.1777 27.0801C34.0852 27.032 34.0169 26.9597 33.9434 26.8926C33.9207 26.8708 33.8939 26.8595 33.873 26.8359C33.7255 26.6781 33.6333 26.4867 33.5898 26.2793L32.3555 22.8379C27.7521 29.4917 33.0392 27.8331 36.9004 28.7891C37.0332 28.8025 37.16 28.836 37.2812 28.8828C37.2906 28.8856 37.2973 28.8899 37.3066 28.8926C37.3067 28.8945 37.3066 28.8965 37.3066 28.8984C37.8126 29.1064 38.1951 29.5803 38.2539 30.1758L39.4395 42.1836C39.5235 43.035 38.9224 43.7852 38.0918 43.8672C37.2612 43.9492 36.5255 43.3319 36.4414 42.4805L35.4492 32.4434C32.135 32.4485 28.8684 32.5299 25.4531 32.5898C23.7603 32.3827 23.2562 30.4859 23.2324 28.7617C23.2092 26.2573 23.8896 23.8927 25.2129 21.8652C26.0335 20.6239 27.036 19.6333 28.1992 18.6992C29.3932 17.954 30.2592 17.1915 31.1992 17.1504ZM31.2441 32.7363H35.0684V43.7812H31.2441V35.3535H22.2617V43.7852H18.4375V35.3535V32.7402H22.2617H31.2441V32.7363Z" fill="#333333"/>
</g>
<defs>
<clipPath id="clip0">
<rect width="48" height="48" fill="white"/>
</clipPath>
</defs>
</svg>
