<svg width="48" height="48" viewBox="0 0 48 48" fill="none" xmlns="http://www.w3.org/2000/svg">
<path fill-rule="evenodd" clip-rule="evenodd" d="M0 0H48V48H0V0ZM12 28.5439C12.2924 26.1359 12.9784 23.954 13.7632 22.1696L14.42 24.7265C14.6472 25.6106 15.4442 26.2288 16.3571 26.2288H21.5C22.6046 26.2288 23.5 25.3334 23.5 24.2288C23.5 23.1242 22.6046 22.2288 21.5 22.2288H17.9083L16.4371 16.5023C16.2099 15.6182 15.4129 15 14.5 15C11.7643 15 9.59795 16.6697 8.20889 18.6908C6.81023 20.7259 6 23.3668 6 25.9716C6 27.363 6.64476 28.9774 7.10071 29.9916C7.35359 30.554 7.60461 31.0501 7.7919 31.405C7.87449 31.5615 7.94554 31.6921 8 31.7907V40C8 41.1046 8.89543 42 10 42C11.1046 42 12 41.1046 12 40V28.5439ZM18 14C19.9621 14 21.5943 12.5872 21.9348 10.7234C20.6533 10.9406 19.4897 11.0276 18.314 10.8666C16.9291 10.6771 15.6003 10.1551 14.0742 9.22906C14.0255 9.47852 14 9.73628 14 10C14 12.2091 15.7909 14 18 14ZM18 6C16.7754 6 15.6793 6.55032 14.9456 7.41715C16.3934 8.31698 17.5055 8.73733 18.5852 8.88512C19.5397 9.01578 20.5293 8.94283 21.7902 8.71824C21.2559 7.13777 19.7608 6 18 6ZM41 14C41 16.2091 39.2091 18 37 18C34.7909 18 33 16.2091 33 14C33 11.7909 34.7909 10 37 10C39.2091 10 41 11.7909 41 14ZM33.4668 19.1796C33.0798 18.3191 32.1441 17.8462 31.2217 18.0448L31.6429 20C31.2217 18.0448 31.22 18.0452 31.2183 18.0456L31.2147 18.0464L31.2072 18.048L31.1908 18.0517C31.1793 18.0544 31.1666 18.0574 31.1527 18.0608C31.125 18.0676 31.0925 18.076 31.0557 18.0862C30.9822 18.1066 30.891 18.1344 30.7848 18.1714C30.5726 18.2454 30.299 18.357 29.9857 18.522C29.3563 18.8533 28.573 19.397 27.8129 20.2701C26.268 22.0449 25 24.9641 25 29.6667C25 30.5401 25.3792 31.2344 25.7761 31.7156C25.8581 31.815 25.9443 31.9098 26.0334 32H15V34V35V42H17V35H28V42H30V35V34.156L30.1032 34.1918C31.1232 34.5433 32.1428 34.8259 32.9056 35.0306C33.0566 35.0711 33.193 35.1074 33.3169 35.1403L33.5144 35.1929L33.6516 35.2297C33.7497 35.3682 33.8671 35.5389 34.0015 35.7388C34.4042 36.3373 34.911 37.1238 35.4134 37.9161C35.914 38.7054 36.4026 39.4883 36.7666 40.0747C36.9484 40.3676 37.0988 40.611 37.2036 40.7809L37.3248 40.9777L37.3564 41.0291L37.3643 41.0421L37.3663 41.0452L37.3668 41.046L37.3669 41.0462L39.0714 40L37.3669 41.0462C37.9447 41.9876 39.1762 42.2823 40.1176 41.7046C41.059 41.1268 41.3538 39.8952 40.776 38.9538L39.0714 40C40.776 38.9538 40.7759 38.9538 40.7759 38.9537L40.7757 38.9534L40.7752 38.9525L40.7729 38.9489L40.7645 38.9351L40.7318 38.8819L40.6082 38.6812C40.5017 38.5086 40.3493 38.2619 40.1652 37.9653C39.7972 37.3725 39.3013 36.5778 38.7914 35.7738C38.2833 34.9727 37.7536 34.15 37.3204 33.5061C37.1055 33.1866 36.9017 32.8923 36.7299 32.6606C36.6455 32.5469 36.5523 32.4257 36.4588 32.3162L36.453 32.3093C36.4074 32.2549 36.183 31.9874 35.8613 31.7916C35.6139 31.641 35.3472 31.5571 35.2859 31.5378L35.2773 31.5351C35.1602 31.4974 35.0276 31.4594 34.8998 31.424C34.7374 31.3791 34.5336 31.3249 34.314 31.2664L34.3137 31.2664L34.3134 31.2663L34.3116 31.2658C34.1917 31.2339 34.0672 31.2008 33.9421 31.1672C33.1994 30.968 32.2896 30.7144 31.4063 30.41C31.2141 30.3438 31.0282 30.2768 30.8498 30.2094C30.8205 28.9697 30.9091 27.9478 31.132 27.0058C31.279 26.3845 31.4879 25.7834 31.7733 25.1656L32.9974 27.8871C33.3203 28.605 34.0343 29.0667 34.8214 29.0667H40C41.1046 29.0667 42 28.1712 42 27.0667C42 25.9621 41.1046 25.0667 40 25.0667H36.1148L33.4668 19.1796ZM29.6512 25.0482C29.8423 24.5552 30.0685 24.0691 30.3311 23.5793C30.0948 23.9623 29.8581 24.4441 29.6512 25.0482ZM34.0658 35.3478C34.0802 35.3531 34.0885 35.3557 34.0893 35.3557C34.0899 35.3557 34.0859 35.3541 34.0768 35.351L34.0551 35.3437L34.0658 35.3478ZM33.4108 34.9083C33.415 34.913 33.4202 34.9186 33.4264 34.9252L33.4166 34.9132C33.4022 34.8964 33.3963 34.8906 33.3983 34.8935C33.399 34.8945 33.4008 34.8968 33.4037 34.9002L33.4108 34.9083ZM25 9.5C25 10.8807 24.3284 12 23.5 12C22.6716 12 22 10.8807 22 9.5C22 8.11929 22.6716 7 23.5 7C24.3284 7 25 8.11929 25 9.5Z" fill="#333333"/>
</svg>
