<svg width="48" height="48" viewBox="0 0 48 48" fill="none" xmlns="http://www.w3.org/2000/svg">
<path d="M12.3418 4C10.3465 4.00031 8.73079 5.61643 8.73047 7.61133C8.73078 9.60624 10.347 11.2243 12.3418 11.2246C12.4434 11.2289 12.5046 11.23 12.5938 11.2168L11.2832 8.33203C11.0804 8.33024 10.918 8.16594 10.918 7.96484C10.9175 7.77227 11.068 7.61328 11.2617 7.59961C11.2704 7.59931 11.2785 7.59931 11.2871 7.59961C11.4911 7.59976 11.6562 7.76264 11.6562 7.96484C11.6569 8.02616 11.6424 8.08648 11.6133 8.14062C11.6127 8.1454 11.6139 8.14756 11.6133 8.15234L12.9141 11.168C14.3779 10.9343 15.5418 9.82405 15.8613 8.39258L15.8184 8.58008L16.3633 9.72852L15.2617 11.2949L12.9609 11.4062C12.9647 11.3578 12.9565 11.1577 12.9043 11.1738C12.7527 11.2207 12.5937 11.2168 12.5937 11.2168L12.8125 11.7012L15.2988 11.5996C18.0251 14.0618 19.765 17.8032 22.248 19.4082C22.954 19.8645 24.0603 20.2876 25.082 20.4102C24.9587 20.6956 25.004 21.0167 25.1797 21.2656C25.1022 21.3746 25.018 21.475 24.9434 21.5879C23.5855 23.6686 22.8883 26.094 22.9121 28.6641C22.9365 30.4335 23.4523 32.3792 25.1895 32.5918C28.6944 32.5304 32.048 32.4487 35.4492 32.4434L36.4668 42.7422C36.5531 43.616 37.3097 44.2522 38.1621 44.168C39.0144 44.0838 39.6312 43.3133 39.5449 42.4395L38.3281 30.1152C38.2678 29.5041 37.8766 29.0161 37.3574 28.8027V28.7968C37.3479 28.7939 37.3376 28.7919 37.3281 28.789C37.2036 28.7409 37.0737 28.7052 36.9375 28.6914C32.9749 27.7104 27.5493 29.4124 32.2734 22.584L33.541 26.1172C33.5856 26.33 33.6788 26.5256 33.8301 26.6875C33.8515 26.7117 33.881 26.7257 33.9043 26.748C33.9798 26.8168 34.0496 26.89 34.1445 26.9394L34.1641 26.9492L37.7266 28.8008C38.3108 29.1044 39.0209 28.8764 39.3184 28.2891C39.616 27.7019 39.3849 26.9851 38.8008 26.6816L35.7559 25.0996L33.3906 18.5039C33.3705 18.4479 33.3368 18.4006 33.3086 18.3496C33.2927 18.3026 33.2361 18.1262 33.2246 18.0918C32.5274 17.1406 31.6647 16.7208 31.0859 16.7461C30.1212 16.7884 29.2331 17.5711 28.0078 18.3359C27.3685 18.8493 26.7815 19.3849 26.2402 19.9629C25.9239 19.8261 25.5535 19.8719 25.293 20.1133C20.7415 20.1132 19.0944 14.6532 15.5898 11.4922L16.7148 9.80469L15.9258 8.11524L15.8984 8.22266C15.9327 8.02343 15.957 7.82056 15.957 7.61133C15.957 5.61643 14.3361 4.00031 12.3418 4ZM33.7363 8.58594C32.7445 8.60322 31.7592 8.99776 31.0156 9.76758C29.528 11.3074 29.5694 13.7625 31.1094 15.25C32.6495 16.738 35.1045 16.6951 36.5918 15.1543C38.0789 13.614 38.0365 11.1588 36.4961 9.67188C35.7261 8.92851 34.7281 8.56866 33.7363 8.58594ZM33.7949 9.0918C34.2307 9.09175 34.6618 9.177 35.0644 9.34375C35.4671 9.51049 35.8324 9.7563 36.1406 10.0645C36.4487 10.3726 36.6945 10.738 36.8613 11.1406C37.028 11.5433 37.1133 11.9744 37.1133 12.4102C37.1133 12.846 37.028 13.2771 36.8613 13.6797C36.6945 14.0824 36.4487 14.4477 36.1406 14.7559C35.8324 15.064 35.4671 15.3098 35.0644 15.4766C34.6618 15.6433 34.2307 15.7285 33.7949 15.7285C33.3591 15.7285 32.928 15.6433 32.5254 15.4766C32.1227 15.3098 31.7574 15.064 31.4492 14.7559C31.1411 14.4477 30.8953 14.0824 30.7285 13.6797C30.5618 13.2771 30.4766 12.846 30.4766 12.4102C30.4766 11.9744 30.5618 11.5433 30.7285 11.1406C30.8953 10.738 31.1411 10.3726 31.4492 10.0645C31.7574 9.7563 32.1227 9.51049 32.5254 9.34375C32.928 9.177 33.3591 9.09175 33.7949 9.0918ZM12.2852 12.209C10.1635 12.209 8.45508 13.9174 8.45508 16.0391V39.9941C8.45508 43.53 9.45637 43.8223 12.2852 43.8223C14.3105 43.564 14.6895 41.959 14.7031 40.5039L14.6562 28.4707C14.6559 28.3684 14.7376 28.2871 14.8398 28.2871C14.9421 28.2871 15.0254 28.3684 15.0254 28.4707V42.9883C14.8808 43.9354 16.587 44.2168 16.582 42.9942L16.4902 20.4473L10.9551 17.0684C9.97891 16.4724 9.68529 15.2248 10.2969 14.2735C10.9085 13.3222 12.1879 13.0369 13.1641 13.6329L16.4492 15.6387C16.2472 13.7099 14.6443 12.209 12.6602 12.209H12.2852ZM16.1895 15.1406C14.9167 14.3345 12.2113 11.5217 9.95592 13.8869C9.31684 14.8631 9.20437 16.5606 11.0625 17.5723L13.5762 19.1934L14.8535 19.9453C15.066 20.0658 15.7578 20.4375 15.7578 20.4375C16.0222 20.6087 16.0156 20.554 16.0156 20.6992V43.0352C16.0156 43.1804 15.9006 43.2969 15.7578 43.2969C15.615 43.2969 15.5 43.1804 15.5 43.0352V27.8516C15.3814 27.7295 15.1868 27.6369 14.8208 27.6408C14.6493 27.6305 14.125 27.6888 14.125 28.1406V41.0332C14.125 42.3349 13.077 43.3828 11.7754 43.3828H11.3145C10.0128 43.3828 8.96484 42.3349 8.96484 41.0332V21.4746C8.96484 20.173 8.91901 15.3271 8.96093 15.1035C10.1483 11.1362 15.3651 12.3574 16.1895 15.1406ZM11.8145 13.5566C11.3007 13.6225 10.8214 13.9047 10.5234 14.3711C9.99365 15.2003 10.2481 16.2871 11.0938 16.8066L19.877 22.2031C20.7226 22.7226 21.8315 22.4718 22.3613 21.6426C22.8911 20.8134 22.6347 19.7285 21.7891 19.209L13.0059 13.8125C12.7945 13.6826 12.565 13.6012 12.334 13.5645C12.1607 13.5369 11.9857 13.5347 11.8145 13.5567V13.5566ZM12.916 14.2269L20.3568 18.7934C22.6141 20.0213 22.0602 20.9142 21.9078 21.42C21.6149 21.9258 20.8702 22.5007 18.8807 21.0868L11.438 16.5002C10.7954 16.0004 10.5083 15.3234 10.9419 14.6145C11.5925 13.7558 12.2663 13.897 12.916 14.2269ZM31.3438 17.2441C31.9179 17.307 32.3025 17.8101 32.6934 18.1875L32.873 18.6523L35.2871 25.2734C35.3339 25.3696 35.3521 25.4725 35.5176 25.5391L38.6445 27.168C39.0972 27.4656 38.9768 28.5799 37.9805 28.3691L34.3555 26.4824C34.0916 26.2596 34.1033 26.1136 34.0078 25.9375L32.7402 22.4043C32.5058 21.916 32.2399 21.684 31.8711 22.3027C31.1462 23.2649 30.4538 24.3079 29.9961 25.9277L29.9375 26.4238C29.8846 27.1513 30.0969 27.8201 31.1563 28.2988L31.627 28.4668C33.1222 28.9157 34.7642 28.8773 36.3379 29.0645L36.8242 29.1777C37.1941 29.3219 37.6037 29.3003 37.8203 30.0859L39.0332 42.4316C38.8559 43.8854 37.3738 44.0623 36.957 42.5898L35.9473 32.3926C35.9257 32.124 35.85 31.901 35.4375 31.9512L25.1953 32.0977C24.0935 31.7011 23.6203 30.7573 23.4746 29.5293L23.4258 29.0312C23.291 24.4384 25.2756 21.4666 27.957 19.0273L28.3359 18.7012C29.3535 18.0933 30.6367 17.1638 31.0859 17.2461C31.1763 17.2356 31.2617 17.2351 31.3437 17.2441H31.3438ZM31.2441 32.7363V32.7402H22.2617H18.4375V35.3535V43.7851H22.2617V35.3535H31.2441V43.7812H35.0684V32.7363H31.2441ZM21.2305 33.2383H32.3242V33.2403H34.5312V43.2872H31.6953V34.8536H21.7734V43.2872H18.9375V33.2402H21.2305V33.2383Z" fill="#333333"/>
</svg>
