<svg width="48" height="48" viewBox="0 0 48 48" fill="none" xmlns="http://www.w3.org/2000/svg">
<path d="M17.6993 5.63086C15.5158 5.63109 13.7449 7.38989 13.7442 9.56055C13.7437 11.7321 15.515 13.4939 17.6993 13.4941C19.8844 13.4951 21.6548 11.7329 21.6543 9.56055C21.6536 7.38904 19.8835 5.62989 17.6993 5.63086ZM17.6915 6.12695C19.5921 6.12611 21.1322 7.66263 21.1329 9.55859C21.1333 11.4553 19.5929 12.993 17.6915 12.9922C15.7908 12.992 14.2496 11.4546 14.2501 9.55859C14.2507 7.66338 15.7916 6.12716 17.6915 6.12695ZM17.959 14.1094C16.6732 14.0886 15.2883 14.2703 13.5918 14.7109V14.7188C11.2829 15.7994 9.64775 18.1091 8.93755 21.4844C8.67179 22.7475 8.02041 23.8651 7.53325 24.8633C7.09226 25.7668 7.46172 26.8481 8.36529 27.2891C9.26885 27.7299 10.352 27.3606 10.793 26.457L13.9063 20.3672C8.37188 31.0595 13.4924 33.9895 13.5918 40.5117C13.6072 41.5171 14.4009 42.3242 15.4063 42.3242C16.4118 42.3242 17.2116 41.5171 17.2247 40.5117C17.2705 36.9772 17.8799 33.7248 17.2247 29.8398C17.7132 30.3311 17.8571 29.9586 18.1016 29.8398C17.1952 33.6238 18.0672 36.9629 18.1016 40.5117C18.1113 41.5171 18.9087 42.3242 19.9141 42.3242C20.9196 42.3242 21.7066 41.517 21.7247 40.5117C21.8416 34.0037 26.3708 30.5611 21.3399 20.2773L24.5215 26.4531C24.7928 27.0089 25.3043 27.3612 25.8692 27.4492L26.7325 27.3672C26.8032 27.343 26.8783 27.3227 26.9473 27.2891C27.8509 26.8482 28.2222 25.7669 27.7813 24.8633C27.1894 24.077 26.5712 23.1168 26.2911 21.9902C25.3254 18.1065 24.2038 15.5929 21.7266 14.7227V14.7168C20.4305 14.3527 19.2448 14.1301 17.959 14.1094ZM17.7325 14.6191C18.7678 14.5785 20.8817 14.9399 21.2403 15.0762C23.4362 15.509 24.818 17.9405 25.629 21.5918C25.8608 22.6355 26.9023 24.4969 27.4942 25.2832C27.8602 26.0945 26.8617 26.9708 26.4454 26.9473C25.2082 27.0706 24.8857 26.4093 24.2129 24.9062L20.8907 18.8086C20.8512 18.6573 20.1943 18.9155 20.2833 19.0859C25.7738 29.6042 21.8868 32.7494 21.2032 40.3242C21.1317 41.1167 20.9801 41.8516 19.9747 41.8516C18.9692 41.8516 18.5586 41.3667 18.5489 40.3613C18.5145 36.8126 17.4375 32.4746 18.7637 29.3535C18.6328 29.4496 18.4383 29.1567 18.334 29.2734C17.5005 30.2061 17.4563 29.6289 16.8829 29.2617C16.7696 29.1892 16.7555 29.4424 16.6504 29.3535C17.6592 34.1224 16.706 37.8581 16.7383 40.4238C16.7253 41.4292 16.3903 41.8594 15.3848 41.8594C14.3794 41.8594 14.0935 41.2964 14.0782 40.291C13.9817 33.9604 8.71647 31.807 14.7012 19.2676C14.8634 18.9277 14.5784 18.9181 14.3985 18.8359L10.5059 25.9258C10.0649 26.8294 9.53448 27.2436 8.63091 26.8027C7.72734 26.3617 7.68796 25.679 8.12896 24.7754C8.61612 23.7772 9.37882 22.1947 9.64458 20.9316C10.3693 17.6728 12.256 15.5179 14.2833 15.0391C14.3859 14.864 16.4467 14.5984 17.7325 14.6191ZM31.8106 27.9961C29.3457 27.9961 27.3614 29.9785 27.3614 32.4434L28.293 42.2734H40.6485L41.6387 32.4434C41.6387 29.9785 39.6544 27.9961 37.1895 27.9961H31.8106ZM31.9805 28.3926H36.9141C39.175 28.3926 40.9942 30.2528 40.9942 32.5645C40.9942 35.637 40.0879 38.7107 40.0879 41.7832C35.9027 41.7831 33.28 41.7842 28.754 41.7832C28.754 38.7107 27.9004 35.637 27.9004 32.5645C27.9004 30.2528 29.7196 28.3926 31.9805 28.3926ZM34.5001 28.7773C34.4252 28.7773 34.3501 28.7803 34.2754 28.7852C34.1701 28.7923 34.0651 28.8034 33.961 28.8203C33.8568 28.8372 33.7543 28.8582 33.6524 28.8848C33.5504 28.9113 33.4503 28.9426 33.3516 28.9785C33.2531 29.0143 33.1568 29.0548 33.0626 29.0996C32.9684 29.1446 32.8761 29.1944 32.7872 29.248C32.6982 29.3016 32.6122 29.3602 32.5293 29.4219C32.4465 29.4833 32.3669 29.5483 32.2911 29.6172C32.2152 29.6863 32.1424 29.7581 32.0743 29.834C32.0061 29.9098 31.9426 29.9904 31.8829 30.0723C31.8232 30.1539 31.7675 30.2374 31.7168 30.3242C31.6662 30.4112 31.6213 30.5005 31.5801 30.5918C31.539 30.6831 31.5019 30.7764 31.4708 30.8711C31.4395 30.9658 31.4136 31.0611 31.3926 31.1582C31.3715 31.2551 31.3545 31.3528 31.3438 31.4512C31.3331 31.5498 31.3283 31.6489 31.3282 31.748C31.328 31.8182 31.3309 31.889 31.336 31.959C31.3434 32.0579 31.3551 32.1561 31.3731 32.2539C31.3911 32.3514 31.4151 32.4476 31.4434 32.543C31.4716 32.6385 31.5048 32.7338 31.543 32.8262C31.5814 32.9185 31.6259 33.0093 31.6739 33.0977C31.7218 33.1858 31.7731 33.2703 31.8301 33.3535C31.8873 33.437 31.9499 33.518 32.0157 33.5957C32.0815 33.6734 32.1509 33.7491 32.2247 33.8203C32.2982 33.8913 32.3763 33.9577 32.4571 34.0215C32.5379 34.0852 32.6219 34.1453 32.709 34.2012C32.7963 34.2572 32.8857 34.3099 32.9786 34.3574C33.0715 34.4049 33.1662 34.4478 33.2637 34.4863C33.3611 34.5249 33.4616 34.5586 33.5626 34.5879C33.6635 34.6173 33.7656 34.6422 33.8692 34.6621C33.9729 34.6817 34.0784 34.6953 34.1836 34.7051C34.2889 34.7149 34.3944 34.7208 34.5001 34.7207C34.5749 34.7207 34.6481 34.7178 34.7227 34.7129C34.8283 34.7058 34.9348 34.6946 35.0391 34.6777C35.1433 34.6611 35.2458 34.6396 35.3477 34.6133C35.4497 34.5868 35.5498 34.5555 35.6485 34.5195C35.7468 34.4835 35.8435 34.4415 35.9376 34.3965C36.032 34.3517 36.1238 34.3034 36.2129 34.25C36.3019 34.1964 36.3879 34.1378 36.4708 34.0762C36.5536 34.0145 36.6332 33.95 36.709 33.8809C36.7849 33.812 36.8577 33.7397 36.9258 33.6641C36.9938 33.5882 37.0577 33.5096 37.1172 33.4277C37.1769 33.3458 37.2326 33.2609 37.2833 33.1738C37.3342 33.0869 37.3806 32.9975 37.4219 32.9062C37.463 32.8152 37.4982 32.7214 37.5293 32.627C37.5606 32.5323 37.5865 32.437 37.6075 32.3398C37.6286 32.2427 37.6457 32.1436 37.6563 32.0449C37.6667 31.9463 37.6721 31.8472 37.6719 31.748C37.6721 31.6779 37.6691 31.609 37.6641 31.5391C37.6567 31.4403 37.643 31.3417 37.6251 31.2441C37.6072 31.1466 37.5848 31.0505 37.5567 30.9551C37.5283 30.8595 37.4955 30.7643 37.4571 30.6719C37.4187 30.5795 37.3743 30.4887 37.3262 30.4004C37.2783 30.312 37.227 30.2261 37.17 30.1426C37.113 30.0594 37.05 29.9798 36.9844 29.9023C36.9186 29.8246 36.8492 29.7489 36.7754 29.6777C36.7017 29.6067 36.624 29.5403 36.543 29.4766C36.4622 29.4128 36.3782 29.3528 36.2911 29.2969C36.2038 29.2409 36.1144 29.1882 36.0215 29.1406C35.9289 29.093 35.8336 29.0505 35.7364 29.0117C35.6388 28.9731 35.5387 28.9394 35.4376 28.9102C35.3366 28.8809 35.2345 28.8556 35.1309 28.8359C35.0272 28.8161 34.9217 28.801 34.8165 28.791C34.7113 28.7812 34.6058 28.7773 34.5001 28.7773ZM34.5001 29.1465C34.8736 29.1464 35.2428 29.2161 35.5879 29.3516C35.9331 29.487 36.2476 29.6853 36.5118 29.9355C36.7759 30.1858 36.986 30.4835 37.129 30.8105C37.2719 31.1376 37.3458 31.4878 37.3458 31.8418C37.3446 32.5417 37.0559 33.2129 36.5411 33.7148C36.1067 33.2928 35.5373 33.0183 34.9219 32.9316C34.927 32.9044 34.93 32.8774 34.9297 32.8496C34.9297 32.8442 34.926 32.8393 34.9258 32.834L36.7676 31.3398C36.8501 31.2729 36.8641 31.1546 36.7989 31.0742C36.7336 30.9938 36.6138 30.9819 36.5313 31.0488L34.7422 32.5039C34.7164 32.4857 34.6935 32.4633 34.6641 32.4512C34.6119 32.4296 34.5566 32.4179 34.5001 32.418C34.4506 32.4181 34.4001 32.4266 34.3536 32.4434C34.2653 32.4724 34.2036 32.5237 34.1583 32.5879C34.1009 32.6628 34.0705 32.7553 34.0704 32.8496C34.0703 32.8777 34.0728 32.9041 34.0782 32.9316C33.4624 33.0193 32.8948 33.2974 32.461 33.7207C31.945 33.2177 31.6563 32.5432 31.6563 31.8418C31.6562 31.4878 31.7282 31.1376 31.8711 30.8105C32.0141 30.4836 32.2242 30.1858 32.4883 29.9355C32.7524 29.6853 33.0651 29.487 33.4102 29.3516C33.7553 29.2161 34.1265 29.1465 34.5001 29.1465Z" fill="#333333"/>
</svg>
