<svg width="48" height="48" viewBox="0 0 48 48" fill="none" xmlns="http://www.w3.org/2000/svg">
<path fill-rule="evenodd" clip-rule="evenodd" d="M0 0V48H48V0H0ZM17.207 5.6543C19.3913 5.65333 21.1614 7.41248 21.1621 9.58398C21.1626 11.7563 19.3922 13.5185 17.207 13.5176C15.0227 13.5173 13.2515 11.7555 13.252 9.58398C13.2527 7.41333 15.0236 5.65453 17.207 5.6543ZM17.4668 14.1328C18.7526 14.1536 19.9383 14.3742 21.2344 14.7383V14.7441C23.7115 15.6144 24.8332 18.128 25.7988 22.0117C26.0789 23.1383 26.6972 24.0985 27.2891 24.8848C27.73 25.7883 27.3586 26.8696 26.4551 27.3105C26.3861 27.3442 26.3109 27.3644 26.2402 27.3887L25.377 27.4707C24.812 27.3827 24.3006 27.0304 24.0293 26.4746L20.8477 20.2988C25.8786 30.5826 21.3494 34.0252 21.2324 40.5332C21.2144 41.5385 20.4273 42.3457 19.4219 42.3457C18.4164 42.3457 17.6191 41.5386 17.6094 40.5332C17.575 36.9844 16.703 33.6453 17.6094 29.8613C17.3648 29.9801 17.2209 30.3526 16.7324 29.8613C17.3876 33.7463 16.7782 36.9987 16.7324 40.5332C16.7194 41.5386 15.9195 42.3457 14.9141 42.3457C13.9087 42.3457 13.1149 41.5386 13.0996 40.5332C13.0002 34.011 7.87964 31.081 13.4141 20.3887L10.3008 26.4785C9.85978 27.3821 8.77662 27.7514 7.87305 27.3105C6.96948 26.8695 6.60002 25.7883 7.04102 24.8848C7.52818 23.8866 8.17955 22.7689 8.44531 21.5059C9.15551 18.1306 10.7906 15.8209 13.0996 14.7402V14.7344C14.7961 14.2937 16.181 14.1121 17.4668 14.1328ZM31.3184 28.0195H36.6973C39.1621 28.0195 41.1465 30.0019 41.1465 32.4668L40.1562 42.2969H27.8008L26.8691 32.4668C26.8691 30.0019 28.8535 28.0195 31.3184 28.0195ZM31.4883 28.416C29.2274 28.416 27.4082 30.2762 27.4082 32.5879C27.4082 35.6604 28.2617 38.7341 28.2617 41.8066C32.7878 41.8076 35.4104 41.8066 39.5957 41.8066C39.5957 38.7341 40.502 35.6604 40.502 32.5879C40.502 30.2762 38.6828 28.416 36.4219 28.416H31.4883ZM34.0078 28.8008C34.1135 28.8007 34.2191 28.8047 34.3242 28.8145C34.4295 28.8244 34.535 28.8396 34.6387 28.8594C34.7423 28.879 34.8443 28.9044 34.9453 28.9336C35.0465 28.9629 35.1466 28.9966 35.2441 29.0352C35.3414 29.0739 35.4367 29.1164 35.5293 29.1641C35.6222 29.2116 35.7115 29.2643 35.7988 29.3203C35.886 29.3762 35.97 29.4363 36.0508 29.5C36.1317 29.5637 36.2094 29.6302 36.2832 29.7012C36.357 29.7723 36.4264 29.8481 36.4922 29.9258C36.5578 30.0032 36.6207 30.0828 36.6777 30.166C36.7348 30.2495 36.7861 30.3354 36.834 30.4238C36.882 30.5121 36.9265 30.6029 36.9648 30.6953C37.0033 30.7877 37.036 30.883 37.0645 30.9785C37.0925 31.0739 37.115 31.1701 37.1328 31.2676C37.1508 31.3651 37.1645 31.4638 37.1719 31.5625C37.1769 31.6325 37.1799 31.7013 37.1797 31.7715C37.1798 31.8706 37.1745 31.9698 37.1641 32.0684C37.1535 32.167 37.1363 32.2661 37.1152 32.3633C37.0942 32.4605 37.0684 32.5557 37.0371 32.6504C37.0059 32.7448 36.9708 32.8386 36.9297 32.9297C36.8883 33.0209 36.8419 33.1103 36.791 33.1973C36.7404 33.2843 36.6847 33.3693 36.625 33.4512C36.5655 33.533 36.5015 33.6116 36.4336 33.6875C36.3655 33.7631 36.2927 33.8354 36.2168 33.9043C36.1409 33.9734 36.0614 34.0379 35.9785 34.0996C35.8957 34.1613 35.8097 34.2199 35.7207 34.2734C35.6315 34.3268 35.5397 34.3752 35.4453 34.4199C35.3513 34.465 35.2546 34.507 35.1562 34.543C35.0576 34.5789 34.9574 34.6102 34.8555 34.6367C34.7536 34.663 34.6511 34.6845 34.5469 34.7012C34.4426 34.7181 34.3361 34.7292 34.2305 34.7363C34.1558 34.7412 34.0826 34.7442 34.0078 34.7441C33.9021 34.7442 33.7966 34.7364 33.6914 34.7266C33.5861 34.7168 33.4807 34.7031 33.377 34.6836C33.2734 34.6637 33.1713 34.6388 33.0703 34.6094C32.9694 34.5801 32.8688 34.5464 32.7715 34.5078C32.674 34.4693 32.5792 34.4263 32.4863 34.3789C32.3935 34.3314 32.3041 34.2786 32.2168 34.2227C32.1296 34.1668 32.0456 34.1067 31.9648 34.043C31.8841 33.9792 31.806 33.9128 31.7324 33.8418C31.6586 33.7706 31.5893 33.6949 31.5234 33.6172C31.4576 33.5395 31.3951 33.4584 31.3379 33.375C31.2808 33.2918 31.2296 33.2073 31.1816 33.1191C31.1336 33.0308 31.0892 32.94 31.0508 32.8477C31.0126 32.7552 30.9794 32.66 30.9512 32.5645C30.9228 32.4691 30.8989 32.3729 30.8809 32.2754C30.8629 32.1776 30.8512 32.0794 30.8438 31.9805C30.8386 31.9105 30.8357 31.8397 30.8359 31.7695C30.836 31.6704 30.8409 31.5713 30.8516 31.4727C30.8622 31.3743 30.8793 31.2766 30.9004 31.1797C30.9214 31.0825 30.9473 30.9873 30.9785 30.8926C31.0097 30.7979 31.0468 30.7046 31.0879 30.6133C31.129 30.522 31.174 30.4327 31.2246 30.3457C31.2753 30.2589 31.331 30.1754 31.3906 30.0938C31.4504 30.0119 31.5139 29.9313 31.582 29.8555C31.6502 29.7796 31.7229 29.7078 31.7988 29.6387C31.8747 29.5698 31.9543 29.5048 32.0371 29.4434C32.12 29.3817 32.2059 29.3231 32.2949 29.2695C32.3838 29.2159 32.4761 29.1661 32.5703 29.1211C32.6646 29.0763 32.7608 29.0358 32.8594 29C32.958 28.964 33.0582 28.9328 33.1602 28.9062C33.262 28.8797 33.3646 28.8587 33.4688 28.8418C33.5729 28.8249 33.6778 28.8137 33.7832 28.8066C33.8578 28.8017 33.933 28.8007 34.0078 28.8008ZM34.0078 29.1699C33.6343 29.1699 33.263 29.2395 32.918 29.375C32.5729 29.5105 32.2602 29.7087 31.9961 29.959C31.732 30.2093 31.5218 30.507 31.3789 30.834C31.236 31.161 31.164 31.5113 31.1641 31.8652C31.1641 32.5666 31.4528 33.2412 31.9688 33.7441C32.4025 33.3208 32.9701 33.0427 33.5859 32.9551C33.5805 32.9276 33.5781 32.9011 33.5781 32.873C33.5783 32.7787 33.6086 32.6862 33.666 32.6113C33.7113 32.5472 33.7731 32.4958 33.8613 32.4668C33.9079 32.45 33.9584 32.4415 34.0078 32.4414C34.0643 32.4414 34.1196 32.453 34.1719 32.4746C34.2013 32.4868 34.2241 32.5091 34.25 32.5273L36.0391 31.0723C36.1215 31.0053 36.2414 31.0173 36.3066 31.0977C36.3719 31.178 36.3579 31.2963 36.2754 31.3633L34.4336 32.8574C34.4338 32.8628 34.4375 32.8676 34.4375 32.873C34.4378 32.9009 34.4348 32.9278 34.4297 32.9551C35.045 33.0417 35.6145 33.3163 36.0488 33.7383C36.5637 33.2364 36.8523 32.5651 36.8535 31.8652C36.8536 31.5112 36.7797 31.161 36.6367 30.834C36.4938 30.5069 36.2837 30.2093 36.0195 29.959C35.7554 29.7087 35.4408 29.5104 35.0957 29.375C34.7505 29.2396 34.3814 29.1698 34.0078 29.1699Z" fill="#333333"/>
</svg>
