<svg width="48" height="48" viewBox="0 0 48 48" fill="none" xmlns="http://www.w3.org/2000/svg">
<path fill-rule="evenodd" clip-rule="evenodd" d="M23.9995 13C26.4848 13 28.4995 10.9853 28.4995 8.5C28.4995 6.01472 26.4848 4 23.9995 4C21.5142 4 19.4995 6.01472 19.4995 8.5C19.4995 10.9853 21.5142 13 23.9995 13ZM36.5591 17.0799C37.6196 17.3889 38.2287 18.4992 37.9196 19.5596C37.6106 20.6201 36.5004 21.2292 35.4399 20.9201C34.3484 20.602 33.3208 20.3256 32.3429 20.0894L32.3907 20.2384C33.6987 24.3151 35.0277 28.4572 32.8167 32.0289L30.4498 42.4432C30.2241 43.4362 29.2884 44.1011 28.2765 43.9875C27.2646 43.874 26.4995 43.0183 26.4995 42V35.9302C25.7037 36 24.8757 36 23.9995 36C23.3053 36 22.6412 36 21.9995 35.9653V42C21.9995 43.0183 21.2345 43.874 20.2225 43.9875C19.2106 44.1011 18.2749 43.4362 18.0493 42.4432L15.9096 33.0287C12.7192 29.2431 14.1764 24.7016 15.6084 20.2384L15.6453 20.1234C14.6634 20.355 13.6313 20.6228 12.5343 20.9272C11.4699 21.2225 10.3677 20.5991 10.0723 19.5347C9.77701 18.4704 10.4004 17.3681 11.4648 17.0728C16.2291 15.7508 20.0798 15.0178 23.9903 15.0003C27.9078 14.9828 31.7675 15.6834 36.5591 17.0799Z" fill="#333333"/>
</svg>
