<svg width="48" height="48" viewBox="0 0 48 48" fill="none" xmlns="http://www.w3.org/2000/svg">
<path d="M25.8945 5.02344L24.043 5.02539C23.99 5.27257 23.9049 5.53269 23.7812 5.85547C23.2233 7.3113 21.6292 9.40762 18.2988 13.0684C15.1091 16.5744 14.1522 17.9461 13.6738 20.2051C13.4771 21.439 13.528 21.507 13.6172 22.7402C14.0599 25.122 15.7159 27.557 19.8633 31.9199C22.3085 34.5105 25.2547 37.4498 26.6406 43.084C27.1714 43.0802 27.7768 43.0801 30.1504 43.0801C32.6839 43.0801 30.3714 43.0804 33.9551 43.084C34.3566 40.4576 31.9132 37.9247 29.5664 35.6328L30.6406 34.7461C34.0786 37.9976 35.3411 39.7526 35.957 41.9121L36.2891 43.0762H39.6269H42.9648L42.5664 41.877C41.7161 39.3191 39.4297 36.986 31.7754 30.8613C28.9573 28.6064 25.8743 25.9306 24.9219 24.916C23.0807 23.0005 21.7583 20.8404 21.8379 19.7305C21.935 18.3762 22.7509 16.2073 24.3613 13.7441C26.254 10.8644 28.277 8.08591 27.9238 5.02344H26.3047C26.3258 5.38741 26.2733 5.77979 26.1641 6.20117L25.709 6.00977C25.8079 5.66469 25.8787 5.33234 25.8945 5.02344ZM25.293 5.49609C25.3008 5.80197 25.1855 6.06239 25.1328 6.30469L26.4707 6.87109C26.6939 6.30673 26.7768 5.89369 26.832 5.50781L27.5742 5.52734C27.6573 6.58509 27.52 7.1643 26.834 8.69531C25.4201 11.6811 23.5229 13.8228 22.0312 16.8867C21.4527 18.1953 20.9023 19.6514 21.3183 20.8672C23.079 24.9681 27.6021 28.018 30.8769 30.9414C35.0903 34.7779 40.8614 38.0644 42.2871 42.5703H36.7871C36.7875 42.5723 36.7887 42.5742 36.7891 42.5762L36.7539 42.5703H36.7871C36.4475 40.7071 35.4268 38.6334 33.6875 36.8516C32.898 36.0304 31.8631 35.0378 30.8067 34.0391H30.8028L28.6387 35.7695C28.7889 35.9105 28.9824 36.1084 29.1192 36.2305C32.02 39.1286 33.3809 40.8336 33.334 42.584H27.2305C26.516 40.0324 25.5778 37.5187 22.834 34.0898C20.0731 31.1273 16.9983 28.1195 14.9453 24.5137C14.2442 22.991 13.8422 21.5274 14.4375 19.7402C15.4128 16.8125 18.087 14.0932 20.5254 11.4043C21.8774 9.94022 23.6265 7.66712 24.5137 5.50391L25.293 5.49609ZM24.9101 6.82031C24.6974 7.24837 24.3968 7.73471 24.041 8.25781C24.0393 8.26067 24.0408 8.25886 24.039 8.26172C23.6838 8.78388 23.2734 9.34199 22.8417 9.91407L24.3417 10.5742C24.6824 10.0741 25.0246 9.55154 25.3671 8.97071C25.7759 8.3086 26.0349 7.81034 26.2421 7.36914L24.9101 6.82031ZM22.8418 9.91406C7.61392 35.3047 15.2279 22.6094 22.8418 9.91406V9.91406ZM25.1191 7.44141L25.5957 7.63867C25.2593 8.30772 24.8107 9.05335 24.2109 9.91406L23.6973 9.69922C24.304 8.85389 24.7712 8.11053 25.1191 7.44141ZM22.5058 10.3653C7.50194 35.4551 15.0039 22.9102 22.5058 10.3653V10.3653ZM22.5058 10.3653C21.8432 11.2282 21.1489 12.1114 20.4551 12.9883L22.0078 13.7442C22.7219 12.7978 23.4383 11.8553 23.9902 11.0372L22.5058 10.3653ZM22.7226 10.9668L23.2558 11.1895C22.9522 11.5938 22.7 11.9532 22.3457 12.4024C22.1182 12.6908 21.9382 12.9358 21.7324 13.2032L21.1582 12.961C21.4107 12.6484 21.4997 12.5196 21.7558 12.2071C22.1286 11.7522 22.404 11.3771 22.7226 10.9668ZM19.9336 13.6504C18.8471 15.0366 17.8536 16.3516 17.3281 17.3262L19.293 18.2129C19.6618 17.2315 20.2711 16.1202 20.9726 15.1856C21.1598 14.9081 21.3571 14.6461 21.5508 14.379C21.0574 14.116 20.4666 13.8835 19.9336 13.6504ZM20.1601 14.2207L20.7754 14.4786C19.9131 15.6686 19.3068 16.6454 18.918 17.5L18.1133 17.1621C18.3538 16.6761 18.608 16.2154 18.8652 15.8535C19.0223 15.6326 19.7123 14.788 20.1601 14.2207ZM17.3495 17.7383C16.2456 19.277 16.4701 21.0023 16.9706 22.6348C17.2217 23.4542 17.4094 24.1799 17.918 24.9317L20.1426 23.086C19.5347 22.2492 19.2338 21.8586 19.063 20.9187C18.6616 20.0134 19.0286 19.2011 19.0957 18.7813L17.3495 17.7383ZM17.5 18.4863L18.4238 18.9727C18.2531 19.8743 18.3386 20.7106 18.6289 21.6621C18.7743 22.1386 18.9979 22.6223 19.2773 23.127L18.1797 24.0312C17.3941 22.7337 17.0644 21.5791 17.0644 20.3652C17.0644 19.9578 16.9707 19.4418 17.5 18.4863ZM20.4512 23.5469L18.207 25.3535C19.2492 26.7678 20.6577 28.1135 22.1738 29.5352H22.1777L24.1601 27.8164C22.7672 26.3931 21.1349 24.9444 20.4512 23.5469ZM20.125 24.4336C20.8488 25.401 21.8922 26.5415 23.3183 27.9473L22.3223 28.7695C20.9368 27.4584 19.8517 26.3179 19.0644 25.3066L20.125 24.4336ZM24.5547 28.2148L24.5606 28.2207L22.5938 29.9258V29.9375C23.3688 30.6639 24.1627 31.4035 24.9453 32.1954C26.0567 33.223 27.2425 34.4245 28.2735 35.4161L30.3633 33.6387V33.6211C28.3902 31.7671 26.4362 29.9902 25.9258 29.4746C25.5334 29.1302 25.0556 28.6702 24.584 28.2149L24.5547 28.2148ZM24.4394 29.0293C25.5432 30.0797 26.7823 31.2279 28.3301 32.6172C28.7556 32.9991 29.1206 33.3358 29.5 33.6836L28.4433 34.5547C26.8181 32.8625 25.091 31.311 23.4609 29.8359L24.4394 29.0293Z" fill="#333333"/>
</svg>
