<svg width="48" height="48" viewBox="0 0 48 48" fill="none" xmlns="http://www.w3.org/2000/svg">
<path d="M25.8419 5.0293L23.9903 5.03125C23.9373 5.27839 23.8522 5.53856 23.7286 5.86133C23.1707 7.31716 21.5766 9.41348 18.2462 13.0742C15.0565 16.5803 14.1542 17.9988 13.6758 20.2578C13.4245 21.4448 13.405 21.8879 13.5645 22.7461C14.0072 25.1278 15.6633 27.5629 19.8106 31.9258C22.2558 34.5163 25.2021 37.4556 26.588 43.0898C27.1187 43.0856 27.7242 43.0859 30.0977 43.0859C32.6312 43.0859 30.098 43.0861 33.6817 43.0898C34.0832 40.4635 31.8606 37.9306 29.5137 35.6387L30.588 34.752C34.0259 38.0034 35.2884 39.7585 35.9044 41.918L36.2364 43.082H39.5743H42.9122L42.5137 41.8828C41.6634 39.325 39.3771 36.9919 31.7227 30.8672C28.9046 28.6122 25.8217 25.9364 24.8692 24.9219C23.071 23.0063 21.7852 20.8463 21.7852 19.7363C21.7852 18.3786 22.6982 16.2132 24.3087 13.75C26.8923 9.79835 27.5412 8.57226 27.8126 7.125C27.9644 6.31539 27.9886 5.65103 27.8712 5.0293H26.252C26.2732 5.39323 26.2208 5.78564 26.1114 6.20703L25.6563 6.01562C25.7552 5.67054 25.826 5.33821 25.8419 5.0293ZM25.0665 7.44727L25.543 7.64648C25.2066 8.31553 24.758 9.05923 24.1583 9.91992L23.6446 9.70508C24.2513 8.85975 24.7185 8.11638 25.0665 7.44727ZM22.67 10.9727L23.2032 11.1973C22.8996 11.6016 22.6473 11.9609 22.293 12.4102C22.0655 12.6986 21.8855 12.9436 21.6798 13.2109L21.1055 12.9687C21.358 12.6564 21.447 12.5274 21.7032 12.2148C22.0764 11.7595 22.3509 11.3834 22.67 10.9727ZM20.1075 14.2266L20.7227 14.4863C19.8605 15.6765 19.2541 16.6532 18.8653 17.5078L18.0606 17.1699C18.3012 16.684 18.5554 16.2232 18.8126 15.8613C18.9697 15.6403 19.6597 14.7939 20.1075 14.2266ZM17.4551 18.5938L18.3712 18.9785C18.2004 19.8802 18.2859 20.7165 18.5762 21.668C18.7216 22.1444 18.9452 22.6282 19.2247 23.1328L18.127 24.0371C17.3414 22.7395 17.0118 21.5849 17.0118 20.3711C17.0118 19.9637 17.1989 19.2993 17.4551 18.5938ZM20.0723 24.4395C20.7962 25.4069 21.8395 26.5474 23.2657 27.9531L22.2696 28.7754C20.8842 27.4642 19.7991 26.3237 19.0118 25.3125L20.0723 24.4395ZM24.3868 29.0352C25.4906 30.0856 26.7297 31.2338 28.2774 32.623C28.7029 33.005 29.068 33.3417 29.4473 33.6895L28.3907 34.5605C27.4382 33.6544 26.5319 32.7897 25.8438 31.9844C24.9482 31.2157 24.1448 30.5091 23.4083 29.8418L24.3868 29.0352Z" fill="#333333"/>
</svg>
