<svg width="48" height="48" viewBox="0 0 48 48" fill="none" xmlns="http://www.w3.org/2000/svg">
<path fill-rule="evenodd" clip-rule="evenodd" d="M48 0H0V48H48V0ZM7.94741 42.0001C6.84284 42.0001 5.94162 41.104 6.00296 40.0011C6.22787 35.9569 7.13403 31.9746 8.68776 28.2235C10.4969 23.8558 13.1487 19.8872 16.4916 16.5443C19.8345 13.2014 23.8031 10.5496 28.1708 8.74048C31.9219 7.18675 35.9042 6.2806 39.9484 6.05569C41.0513 5.99436 41.9474 6.89558 41.9474 8.00015L41.9474 22.0002C41.9474 23.1047 41.0493 23.9887 39.9515 24.1111C38.2729 24.2984 36.6257 24.7214 35.0591 25.3703C32.8753 26.2749 30.891 27.6008 29.2195 29.2722C27.548 30.9437 26.2222 32.928 25.3176 35.1118C24.6687 36.6784 24.2457 38.3257 24.0584 40.0042C23.9359 41.102 23.052 42.0002 21.9474 42.0001H7.94741ZM39.1729 15.2439C38.4277 15.3448 37.6895 15.4765 36.96 15.638L36.8519 15.1498L36.6357 14.1734L36.5276 13.6853C37.3113 13.5118 38.1042 13.3704 38.9044 13.262L38.9715 13.7575L39.1058 14.7484L39.1729 15.2439ZM32.6706 16.9703C31.2804 17.5328 29.9393 18.2102 28.6615 18.9953L28.3997 18.5693L27.8762 17.7173L27.6144 17.2913C28.9869 16.448 30.4273 15.7204 31.9205 15.1163L32.1081 15.5798L32.4831 16.5068L32.6706 16.9703ZM25.0435 21.6568C24.4805 22.1482 23.9364 22.6642 23.413 23.204C22.8896 23.7438 22.3906 24.3035 21.9168 24.8814L21.5301 24.5644L20.7568 23.9303L20.3701 23.6133C20.879 22.9927 21.415 22.3915 21.9772 21.8117C22.5394 21.232 23.1237 20.6777 23.7284 20.15L24.0572 20.5267L24.7147 21.2801L25.0435 21.6568ZM19.3679 28.5796C18.6225 29.881 17.9868 31.2423 17.4674 32.6492L16.9983 32.476L16.0602 32.1297L15.5911 31.9566C16.149 30.4454 16.8318 28.9833 17.6325 27.5855L18.0663 27.834L18.9341 28.3311L19.3679 28.5796ZM16.2678 36.9775C16.1288 37.7117 16.0199 38.4537 15.942 39.2015L15.4447 39.1497L14.4501 39.0461L13.9528 38.9943C14.0365 38.191 14.1534 37.3942 14.3027 36.6055L14.7939 36.6985L15.7765 36.8845L16.2678 36.9775Z" fill="#333333"/>
</svg>
