<svg width="48" height="48" viewBox="0 0 48 48" fill="none" xmlns="http://www.w3.org/2000/svg">
<g clip-path="url(#clip0)">
<path fill-rule="evenodd" clip-rule="evenodd" d="M0.101562 0.0761719V48.0762H48.1016V0.0761719H0.101562ZM25.9473 5.03125C25.9315 5.34015 25.8606 5.67251 25.7617 6.01758L26.2168 6.20898C26.3261 5.78757 26.3786 5.39522 26.3574 5.03125H27.9766C28.094 5.65298 28.0698 6.31734 27.918 7.12695C27.6466 8.57421 26.9977 9.80031 24.4141 13.752C22.8036 16.2151 21.8906 18.3805 21.8906 19.7383C21.8906 20.8483 23.1764 23.0083 24.9746 24.9238C25.9271 25.9384 29.01 28.6142 31.8281 30.8691C39.4825 36.9938 41.7688 39.3269 42.6191 41.8848L43.0176 43.084H39.6797H36.3418L36.0098 41.9199C35.3938 39.7604 34.1313 38.0054 30.6934 34.7539L29.6191 35.6406C31.966 37.9325 34.1886 40.4655 33.7871 43.0918C30.2034 43.0881 32.7366 43.0879 30.2031 43.0879C27.8296 43.0879 27.2241 43.088 26.6934 43.0918C25.3075 37.4576 22.3612 34.5183 19.916 31.9277C15.7687 27.5648 14.1126 25.1298 13.6699 22.748C13.5103 21.8898 13.5299 21.4468 13.7813 20.2598C14.2596 18.0007 15.1619 16.5822 18.3516 13.0762C21.682 9.41543 23.2761 7.31912 23.834 5.86328C23.9576 5.54051 24.0428 5.28038 24.0957 5.0332L25.9473 5.03125ZM25.1719 7.44922C24.8239 8.11835 24.3568 8.8617 23.75 9.70703L24.2637 9.92188C24.8635 9.06116 25.312 8.31554 25.6484 7.64648L25.1719 7.44922ZM22.7754 10.9746C22.4567 11.3849 22.1814 11.76 21.8086 12.2148C21.5524 12.5274 21.4634 12.6562 21.2109 12.9687L21.7852 13.2109C21.9909 12.9436 22.1709 12.6985 22.3984 12.4102C22.7527 11.9609 23.005 11.6016 23.3086 11.1973L22.7754 10.9746ZM20.2129 14.2285C19.7651 14.7958 19.075 15.6404 18.918 15.8613C18.6608 16.2232 18.4065 16.6839 18.166 17.1699L18.9707 17.5078C19.3595 16.6532 19.9659 15.6765 20.8281 14.4863L20.2129 14.2285ZM17.5605 18.5957C17.3043 19.3012 17.1172 19.9656 17.1172 20.373C17.1172 21.5869 17.4468 22.7414 18.2324 24.0391L19.3301 23.1348C19.0506 22.6302 18.827 22.1464 18.6816 21.6699C18.3913 20.7184 18.3058 19.8821 18.4766 18.9805L17.5605 18.5957ZM20.1777 24.4414L19.1172 25.3145C19.9045 26.3257 20.9896 27.4662 22.375 28.7773L23.3711 27.9551C21.9449 26.5494 20.9016 25.4089 20.1777 24.4414ZM24.4922 29.0371L23.5137 29.8437C24.2502 30.5111 25.0536 31.2177 25.9492 31.9863C26.6373 32.7917 27.5436 33.6563 28.4961 34.5625L29.5527 33.6914C29.1734 33.3436 28.8083 33.007 28.3828 32.625C26.8351 31.2357 25.596 30.0875 24.4922 29.0371Z" fill="#333333"/>
</g>
<defs>
<clipPath id="clip0">
<rect width="48" height="48" fill="white"/>
</clipPath>
</defs>
</svg>
