<svg width="48" height="48" viewBox="0 0 48 48" fill="none" xmlns="http://www.w3.org/2000/svg">
<path d="M25.8946 5.02332L24.043 5.02527C23.9901 5.27245 23.905 5.53257 23.7813 5.85534C23.2234 7.31118 21.6293 9.4075 18.2989 13.0682C15.1092 16.5743 14.1523 17.9459 13.6739 20.205C13.4772 21.4389 13.528 21.5069 13.6172 22.7401C14.0599 25.1219 15.716 27.5569 19.8633 31.9198C22.3085 34.5104 25.2548 37.4496 26.6407 43.0839C27.1714 43.0801 27.7769 43.08 30.1504 43.08C32.6839 43.08 30.3714 43.0803 33.9551 43.0839C34.3566 40.4575 31.9133 37.9246 29.5665 35.6327L30.6407 34.746C34.0786 37.9975 35.3411 39.7525 35.9571 41.912L36.2891 43.076H39.627H42.9649L42.5665 41.8768C41.7161 39.319 39.4298 36.9859 31.7754 30.8612C28.9573 28.6063 25.8744 25.9305 24.9219 24.9159C23.0807 23.0004 21.7583 20.8403 21.8379 19.7303C21.9351 18.3761 22.7509 16.2072 24.3614 13.744C26.254 10.8643 28.277 8.08578 27.9239 5.02332H26.3047C26.3259 5.38728 26.2734 5.77967 26.1641 6.20105L25.709 6.00964C25.8079 5.66457 25.8788 5.33222 25.8946 5.02332ZM25.293 5.49597C25.3008 5.80185 25.1855 6.06227 25.1329 6.30457L26.4708 6.87097C26.694 6.30661 26.7769 5.89357 26.8321 5.50769L27.5743 5.52722C27.6574 6.58497 27.52 7.16418 26.834 8.69519C25.4202 11.6809 23.523 13.8226 22.0313 16.8866C21.4528 18.1952 20.9023 19.6513 21.3184 20.8671C23.079 24.968 27.6022 28.0179 30.877 30.9413C35.0903 34.7778 40.8615 38.0643 42.2872 42.5702H36.7872C36.7875 42.5722 36.7888 42.5741 36.7892 42.5761L36.754 42.5702H36.7872C36.4476 40.707 35.4269 38.6333 33.6876 36.8514C32.898 36.0303 31.8631 35.0376 30.8067 34.0389H30.8028L28.6388 35.7694C28.789 35.9104 28.9824 36.1083 29.1192 36.2303C32.0201 39.1285 33.381 40.8335 33.3341 42.5839H27.2306C26.516 40.0323 25.5778 37.5185 22.8341 34.0897C20.0732 31.1272 16.9984 28.1194 14.9454 24.5135C14.2442 22.9909 13.8423 21.5273 14.4376 19.7401C15.4129 16.8124 18.087 14.093 20.5255 11.4042C21.8775 9.9401 23.6265 7.667 24.5138 5.50378L25.293 5.49597ZM24.9102 6.82019C24.6974 7.24825 24.3968 7.73459 24.0411 8.25769C24.0394 8.26055 24.0408 8.25874 24.0391 8.2616C23.6838 8.78375 23.2734 9.34187 22.8418 9.91394L24.3418 10.5741C24.6825 10.074 25.0247 9.55141 25.3672 8.97058C25.776 8.30847 26.035 7.81022 26.2422 7.36902L24.9102 6.82019ZM22.8418 9.91394C7.61398 35.3046 15.2279 22.6093 22.8418 9.91394V9.91394ZM25.1192 7.44128L25.5958 7.63855C25.2593 8.3076 24.8108 9.05323 24.211 9.91394L23.6973 9.6991C24.3041 8.85377 24.7713 8.11041 25.1192 7.44128ZM22.5059 10.3652C7.502 35.455 15.004 22.9101 22.5059 10.3652V10.3652ZM22.5059 10.3652C21.8433 11.2281 21.149 12.1112 20.4551 12.9882L22.0079 13.7441C22.722 12.7977 23.4384 11.8552 23.9903 11.037L22.5059 10.3652ZM22.7227 10.9667L23.2559 11.1894C22.9523 11.5937 22.7001 11.953 22.3457 12.4023C22.1182 12.6906 21.9382 12.9356 21.7325 13.203L21.1582 12.9609C21.4108 12.6483 21.4997 12.5195 21.7559 12.207C22.1287 11.7521 22.404 11.377 22.7227 10.9667ZM19.9336 13.6503C18.8472 15.0365 17.8537 16.3515 17.3282 17.3261L19.293 18.2128C19.6619 17.2314 20.2712 16.12 20.9727 15.1855C21.1599 14.908 21.3572 14.6459 21.5508 14.3788C21.0574 14.1159 20.4666 13.8833 19.9336 13.6503ZM20.1602 14.2206L20.7754 14.4784C19.9132 15.6685 19.3068 16.6453 18.918 17.4999L18.1133 17.162C18.3539 16.676 18.6081 16.2152 18.8653 15.8534C19.0224 15.6325 19.7124 14.7879 20.1602 14.2206L20.1602 14.2206ZM17.3495 17.7382C16.2457 19.2769 16.4702 21.0022 16.9706 22.6347C17.2218 23.4541 17.4095 24.1798 17.918 24.9316L20.1426 23.0859C19.5347 22.2491 19.2339 21.8585 19.063 20.9186C18.6616 20.0133 19.0287 19.201 19.0958 18.7812L17.3495 17.7382ZM17.5 18.4862L18.4239 18.9725C18.2531 19.8742 18.3386 20.7105 18.629 21.662C18.7743 22.1384 18.998 22.6222 19.2774 23.1268L18.1797 24.0311C17.3941 22.7335 17.0645 21.5789 17.0645 20.3651C17.0645 19.9577 16.9708 19.4417 17.5 18.4862ZM20.4512 23.5468L18.2071 25.3534C19.2493 26.7677 20.6577 28.1134 22.1739 29.535H22.1778L24.1602 27.8163C22.7673 26.3929 21.135 24.9443 20.4512 23.5468H20.4512ZM20.125 24.4335C20.8489 25.4009 21.8922 26.5414 23.3184 27.9471L22.3223 28.7694C20.9369 27.4583 19.8518 26.3177 19.0645 25.3065L20.125 24.4335ZM24.5547 28.2147L24.5606 28.2206L22.5938 29.9257V29.9374C23.3688 30.6638 24.1627 31.4033 24.9454 32.1952C26.0568 33.2229 27.2426 34.4244 28.2735 35.4159L30.3634 33.6386V33.621C28.3903 31.767 26.4362 29.9901 25.9259 29.4745C25.5335 29.13 25.0556 28.6701 24.5841 28.2148L24.5547 28.2147ZM24.4395 29.0292C25.5433 30.0796 26.7824 31.2278 28.3301 32.6171C28.7556 32.999 29.1207 33.3357 29.5 33.6835L28.4434 34.5546C26.8182 32.8624 25.091 31.3108 23.461 29.8358L24.4395 29.0292Z" fill="#333333"/>
</svg>
