<svg width="48" height="48" viewBox="0 0 48 48" fill="none" xmlns="http://www.w3.org/2000/svg">
<path fill-rule="evenodd" clip-rule="evenodd" d="M24 4C12.9543 4 4 12.9543 4 24C4 35.0457 12.9543 44 24 44C35.0457 44 44 35.0457 44 24C44 12.9543 35.0457 4 24 4ZM23 6.02731C13.524 6.54619 6 14.3944 6 24C6 28.6107 7.73359 32.8166 10.5845 36.0013L23 23.5858V6.02731ZM23 41.9727C18.7825 41.7417 14.9516 40.0589 11.9987 37.4155L23 26.4142V41.9727ZM25 6.02731V23.5858L37.4155 36.0013C40.2664 32.8166 42 28.6107 42 24C42 14.3944 34.476 6.54619 25 6.02731ZM36.0013 37.4155L25 26.4142V41.9727C29.2175 41.7417 33.0484 40.0589 36.0013 37.4155Z" fill="#333333"/>
</svg>
