<svg width="48" height="48" viewBox="0 0 48 48" fill="none" xmlns="http://www.w3.org/2000/svg">
<path d="M24 4C12.954 4 4 12.954 4 24C4 35.046 12.954 44 24 44C35.046 44 44 35.046 44 24C44 12.954 35.046 4 24 4ZM38.8387 24C38.8387 26.575 38.1774 28.9976 37.0185 31.1105L26.5806 22.7605V9.40081C33.5347 10.6274 38.8387 16.6992 38.8387 24ZM21.4194 38.5992C18.6887 38.1177 16.2185 36.8895 14.2185 35.1298L21.4194 29.3685V38.5992ZM26.5806 29.3685L33.7815 35.129C31.7815 36.8887 29.3113 38.1169 26.5806 38.5984V29.3685ZM21.4194 9.40081V22.7605L10.9815 31.1105C9.82258 28.9976 9.16129 26.575 9.16129 24C9.16129 16.6992 14.4653 10.6274 21.4194 9.40081Z" fill="#333333"/>
</svg>
