<svg width="48" height="48" viewBox="0 0 48 48" fill="none" xmlns="http://www.w3.org/2000/svg">
<path fill-rule="evenodd" clip-rule="evenodd" d="M48 0H0V48H48V0ZM4 24C4 12.954 12.954 4 24 4C35.046 4 44 12.954 44 24C44 35.046 35.046 44 24 44C12.954 44 4 35.046 4 24ZM37.0185 31.1105C38.1774 28.9976 38.8387 26.575 38.8387 24C38.8387 16.6992 33.5347 10.6274 26.5806 9.40081V22.7605L37.0185 31.1105ZM14.2185 35.1298C16.2185 36.8895 18.6887 38.1177 21.4194 38.5992V29.3685L14.2185 35.1298ZM33.7815 35.129L26.5806 29.3685V38.5984C29.3113 38.1169 31.7815 36.8887 33.7815 35.129ZM21.4194 22.7605V9.40081C14.4653 10.6274 9.16129 16.6992 9.16129 24C9.16129 26.575 9.82258 28.9976 10.9815 31.1105L21.4194 22.7605Z" fill="#333333"/>
</svg>
