<svg width="48" height="48" viewBox="0 0 48 48" fill="none" xmlns="http://www.w3.org/2000/svg">
<path fill-rule="evenodd" clip-rule="evenodd" d="M0 0H48V48H0V0ZM26 16C26 20.4183 22.4183 24 18 24C13.5817 24 10 20.4183 10 16C10 11.5817 13.5817 8 18 8C22.4183 8 26 11.5817 26 16ZM37.9999 34C37.9999 30.64 36.0799 28.12 33.3399 26.26C38.8599 27.06 45.9999 29.64 45.9999 34V40H37.9999V34ZM29.9999 24C34.4199 24 37.9999 20.42 37.9999 16C37.9999 11.58 34.4199 8 29.9999 8C29.0599 8 28.1799 8.2 27.3399 8.48C28.9999 10.54 29.9999 13.16 29.9999 16C29.9999 18.84 28.9999 21.46 27.3399 23.52C28.1799 23.8 29.0599 24 29.9999 24ZM2 34C2 28.68 12.66 26 18 26C23.34 26 34 28.68 34 34V40H2V34Z" fill="#333333"/>
</svg>
