<svg width="48" height="48" viewBox="0 0 48 48" fill="none" xmlns="http://www.w3.org/2000/svg">
<path d="M38.4999 34C38.4999 31.1433 37.192 28.8765 35.2321 27.1043C37.41 27.5631 39.6636 28.2766 41.5088 29.2384C43.9532 30.5124 45.4999 32.1205 45.4999 34V39.5H38.4999V34ZM25.5 16C25.5 20.1421 22.1421 23.5 18 23.5C13.8579 23.5 10.5 20.1421 10.5 16C10.5 11.8579 13.8579 8.5 18 8.5C22.1421 8.5 25.5 11.8579 25.5 16ZM37.4999 16C37.4999 20.1439 34.1438 23.5 29.9999 23.5C29.3717 23.5 28.7667 23.4034 28.1738 23.2479C29.6347 21.2016 30.4999 18.6961 30.4999 16C30.4999 13.3039 29.6347 10.7984 28.1738 8.7521C28.7667 8.59658 29.3717 8.5 29.9999 8.5C34.1438 8.5 37.4999 11.8561 37.4999 16ZM2.5 34C2.5 32.8536 3.07029 31.8125 4.08818 30.8731C5.10946 29.9305 6.5477 29.1244 8.18344 28.4691C11.4557 27.1583 15.3925 26.5 18 26.5C20.6075 26.5 24.5443 27.1583 27.8166 28.4691C29.4523 29.1244 30.8905 29.9305 31.9118 30.8731C32.9297 31.8125 33.5 32.8536 33.5 34V39.5H2.5V34Z" stroke="black"/>
</svg>
