<svg width="48" height="48" viewBox="0 0 48 48" fill="none" xmlns="http://www.w3.org/2000/svg">
<path d="M31.5 16C31.5 20.1439 28.1439 23.5 24 23.5C19.8561 23.5 16.5 20.1439 16.5 16C16.5 11.8561 19.8561 8.5 24 8.5C28.1439 8.5 31.5 11.8561 31.5 16ZM8.5 36C8.5 34.8536 9.07029 33.8125 10.0882 32.8731C11.1095 31.9305 12.5477 31.1244 14.1834 30.4691C17.4557 29.1583 21.3925 28.5 24 28.5C26.6075 28.5 30.5443 29.1583 33.8166 30.4691C35.4523 31.1244 36.8905 31.9305 37.9118 32.8731C38.9297 33.8125 39.5 34.8536 39.5 36V39.5H8.5V36Z" stroke="black"/>
</svg>
