<svg width="48" height="48" viewBox="0 0 48 48" fill="none" xmlns="http://www.w3.org/2000/svg">
<path d="M0 0V48H48V0H0ZM8 6H15C16.1 6 17 6.9 17 8C17 10.5 17.4006 12.9006 18.1406 15.1406C18.3606 15.8406 18.2006 16.6197 17.6406 17.1797L13.2402 21.5801C16.1202 27.2401 20.7599 31.8598 26.4199 34.7598L30.8203 30.3594C31.3603 29.8194 32.1594 29.6409 32.8594 29.8809C35.0994 30.6209 37.52 31.0195 40 31.0195C41.1 31.0195 42 31.9195 42 33.0195V40C42 41.1 41.1 42 40 42C21.22 42 6 26.78 6 8C6 6.9 6.9 6 8 6Z" fill="#333333"/>
</svg>
