<svg width="48" height="48" viewBox="0 0 48 48" fill="none" xmlns="http://www.w3.org/2000/svg">
<path d="M8 6C6.9 6 6 6.9 6 8C6 26.78 21.22 42 40 42C41.1 42 42 41.1 42 40V33.0195C42 31.9195 41.1 31.0195 40 31.0195C37.52 31.0195 35.0994 30.6209 32.8594 29.8809C32.1594 29.6409 31.3603 29.8194 30.8203 30.3594L26.4199 34.7598C20.7599 31.8598 16.1202 27.2401 13.2402 21.5801L17.6406 17.1797C18.2006 16.6197 18.3606 15.8406 18.1406 15.1406C17.4006 12.9006 17 10.5 17 8C17 6.9 16.1 6 15 6H8ZM7.98438 6.5L8.48438 6.50195L14.7012 6.50781H15.2012C15.8614 6.50166 16.497 7.29968 16.502 7.96289V8.46289C16.6929 11.6566 16.7735 12.2394 17.5508 14.9453L17.6992 15.4238C17.8594 16.0287 17.5985 16.4229 17.3086 16.8027L16.9551 17.1562L13.2422 20.877L12.8887 21.2305C12.6902 21.4784 12.7513 21.6394 12.7949 21.8066L13.0215 22.252C16.7091 29.0341 21.3006 32.4598 25.7422 34.959L26.1816 35.1992C26.3767 35.2825 26.5705 35.2969 26.7656 35.1211L27.127 34.7754L30.6953 31.1914L31.0566 30.8457C31.4107 30.5493 31.7092 30.1975 32.4434 30.2812L32.9219 30.4238C34.8407 30.963 36.8227 31.4684 39.6387 31.5156L40.1387 31.5098C40.7884 31.527 41.4987 32.2309 41.4961 32.916L41.5 33.416L41.4902 39.5703L41.4941 40.0703C41.4038 41.0407 40.7956 41.3384 40.0762 41.4941L39.5762 41.5C36.2201 41.5249 33.44 40.8489 30.6523 40.1836C27.3304 39.0834 25.5735 38.2608 24.1055 37.4902C20.5705 35.7785 18.0518 33.29 15.4902 30.834C13.063 28.209 11.2254 25.3078 9.67969 22.2715C7.53089 17.747 6.71859 13.1829 6.50781 8.59961L6.5 8.09961C6.61427 6.88691 7.25946 6.62226 7.98438 6.5Z" fill="#333333"/>
</svg>
