<?xml version="1.0" encoding="UTF-8" standalone="no"?>
<!-- Created with Inkscape (http://www.inkscape.org/) -->
<svg id="svg8" xmlns:rdf="http://www.w3.org/1999/02/22-rdf-syntax-ns#" xmlns="http://www.w3.org/2000/svg" xmlns:osb="http://www.openswatchbook.org/uri/2009/osb" height="48" viewBox="0 0 12.7 12.7" width="48" version="1.1" xmlns:cc="http://creativecommons.org/ns#" xmlns:dc="http://purl.org/dc/elements/1.1/">
 <title id="title4753">UIO-icon</title>
 <metadata id="metadata5">
  <rdf:RDF>
   <cc:Work rdf:about="">
    <dc:format>image/svg+xml</dc:format>
    <dc:type rdf:resource="http://purl.org/dc/dcmitype/StillImage"/>
    <dc:title>UIO-icon</dc:title>
    <dc:creator>
     <cc:Agent>
      <dc:title>Joaquín Urbano</dc:title>
     </cc:Agent>
    </dc:creator>
    <dc:rights>
     <cc:Agent>
      <dc:title>GPL</dc:title>
     </cc:Agent>
    </dc:rights>
   </cc:Work>
  </rdf:RDF>
 </metadata>
 <g id="layer1" fill="#333" transform="translate(0,-284.3)">
  <path id="path878" fill-rule="evenodd" transform="matrix(.26458 0 0 .26458 0 284.3)" d="m24 4c-9.972 0.0128-18.297 7.342-19.75 17.008-0.3465 1.982 0.7494 1.992 1.7598 1.992h35.99c1 0 1.9644-0.35892 1.7539-2.0723-1.487-9.633-9.803-16.923-19.754-16.928zm0.033203 0.53125c9.6411 0.0047652 17.698 6.8908 19.139 15.988 0.20399 1.6182 0.11537 1.9551-1.6973 1.9551h-34.872c-1.6977 0-2.0408-0.006954-1.7051-1.8789 1.408-9.129 9.4731-16.052 19.135-16.064zm-17.978 20.469c-1.0546 0-2.0262 0.29-1.8145 2.033 1.4708 9.652 9.7958 16.962 19.76 16.967 9.942-0.013 18.247-7.297 19.736-16.92 0.381-2.084-0.736-2.08-1.861-2.08zm0.55988 0.51294h34.866c1.8086 0 1.951-0.038785 1.6917 1.9109-1.441 9.0975-9.5308 16.057-19.172 16.062-9.663-0.012-17.695-7.007-19.103-16.136-0.3353-1.872 0.7376-1.837 1.7166-1.837z"/>
 </g>
</svg>
