<svg width="48" height="48" viewBox="0 0 48 48" fill="none" xmlns="http://www.w3.org/2000/svg">
<path d="M24.3845 9.91008C24.9349 9.95618 25.3437 10.4397 25.2976 10.9901L24.6955 18.1774C24.6494 18.7277 24.1659 19.1365 23.6155 19.0904C23.0652 19.0443 22.6564 18.5608 22.7025 18.0104L23.3046 10.8231C23.3507 10.2728 23.8342 9.86398 24.3845 9.91008Z" fill="#333333"/>
<path d="M17.7572 36.7573C17.3666 37.1478 16.7335 37.1478 16.3429 36.7573L11.2429 31.6573C10.8524 31.2668 10.8524 30.6336 11.2429 30.2431C11.6335 29.8526 12.2666 29.8526 12.6572 30.2431L17.7572 35.3431C18.1477 35.7336 18.1477 36.3668 17.7572 36.7573Z" fill="#333333"/>
<path d="M37.2153 31.0507C37.7259 30.8403 37.9692 30.2558 37.7588 29.7451C37.5484 29.2345 36.9638 28.9912 36.4532 29.2016L29.7848 31.9497C29.2742 32.1602 29.0308 32.7447 29.2413 33.2553C29.4517 33.7659 30.0362 34.0093 30.5469 33.7989L37.2153 31.0507Z" fill="#333333"/>
<path fill-rule="evenodd" clip-rule="evenodd" d="M48 0H0V48H48V0ZM32.5 14.5C32.5 19.1944 28.6944 23 24 23C19.3056 23 15.5 19.1944 15.5 14.5C15.5 9.80558 19.3056 6 24 6C28.6944 6 32.5 9.80558 32.5 14.5ZM23 33.5C23 38.1944 19.1944 42 14.5 42C9.80558 42 6 38.1944 6 33.5C6 28.8056 9.80558 25 14.5 25C19.1944 25 23 28.8056 23 33.5ZM33.5 40C38.1944 40 42 36.1944 42 31.5C42 26.8056 38.1944 23 33.5 23C28.8056 23 25 26.8056 25 31.5C25 36.1944 28.8056 40 33.5 40Z" fill="#333333"/>
</svg>
