<?xml version="1.0" encoding="UTF-8" standalone="no"?>
<!-- Created with Inkscape (http://www.inkscape.org/) -->
<svg id="svg8" xmlns:rdf="http://www.w3.org/1999/02/22-rdf-syntax-ns#" xmlns="http://www.w3.org/2000/svg" xmlns:osb="http://www.openswatchbook.org/uri/2009/osb" height="48" width="48" version="1.1" xmlns:cc="http://creativecommons.org/ns#" viewBox="0 0 12.7 12.7" xmlns:dc="http://purl.org/dc/elements/1.1/">
 <title id="title4753">UIO-icon</title>
 <metadata id="metadata5">
  <rdf:RDF>
   <cc:Work rdf:about="">
    <dc:format>image/svg+xml</dc:format>
    <dc:type rdf:resource="http://purl.org/dc/dcmitype/StillImage"/>
    <dc:title>UIO-icon</dc:title>
    <dc:creator>
     <cc:Agent>
      <dc:title>Joaquín Urbano</dc:title>
     </cc:Agent>
    </dc:creator>
    <dc:rights>
     <cc:Agent>
      <dc:title>GPL</dc:title>
     </cc:Agent>
    </dc:rights>
   </cc:Work>
  </rdf:RDF>
 </metadata>
 <g id="layer1" transform="translate(0,-284.3)" fill="#333">
  <path id="path878" d="m13.752 4.0039c-1.662-0.0511-3.357 0.334-4.9102 1.1973-4.1292 2.3045-5.8954 7.2498-4.2871 11.59 0.16205 0.47669 0.35942 0.6502 0.57422 0.67188 0.2148 0.021694 0.44786-0.1082 0.68164-0.23828l14.886-8.2836c0.43831-0.24388 0.77472-0.59067 0.2832-1.2656-1.7782-2.2924-4.458-3.5867-7.2285-3.6719zm20.625 0.025391c-0.56358 0.0047509-1.1329 0.061021-1.7012 0.16992-0.49688 0.081305-0.70104 0.24678-0.75781 0.45508-0.056786 0.20829 0.03326 0.46087 0.12305 0.71289l5.7168 16.047c0.12625 0.35437 0.31913 0.66279 0.72266 0.63672 0.13451-0.008693 0.29184-0.055038 0.47852-0.14844 4.0864-2.202 6.0297-7.0993 4.4414-11.564-1.3936-3.8959-5.0784-6.3418-9.0234-6.3086zm-3.9844 0.99805c-0.13507 0.0097839-0.29124 0.056374-0.47461 0.14844-2.5469 1.379-4.2586 3.8059-4.7969 6.5215-0.32298 1.6293-0.22369 3.363 0.37109 5.0352 1.3979 3.9076 5.1019 6.3534 9.0605 6.3047 0.56551-0.006954 1.1371-0.06396 1.707-0.17578 0.94268-0.16163 0.77261-0.65277 0.61133-1.1055l-5.746-16.126c-0.12-0.3361-0.327-0.631-0.732-0.6017zm-8.5781 4.5156c-0.207-0.0218-0.425 0.0999-0.635 0.2168l-14.959 8.3242c-0.41561 0.23125-0.73211 0.60284-0.24805 1.2656 1.7797 2.285 4.4555 3.5727 7.2227 3.6562 1.6603 0.050132 3.353-0.33317 4.9043-1.1953 4.1416-2.3115 5.905-7.279 4.2715-11.629-0.15736-0.45158-0.35062-0.61689-0.55664-0.63867zm-8.4492 15.432c-0.56551 0.006954-1.1371 0.06396-1.707 0.17578-0.94268 0.16163-0.77261 0.65277-0.61133 1.1055l5.7461 16.127c0.15962 0.44803 0.47355 0.82138 1.207 0.45312 2.5469-1.379 4.2586-3.8059 4.7969-6.5215 0.32298-1.6293 0.22369-3.363-0.37109-5.0352-1.3979-3.9076-5.1019-6.3534-9.0605-6.3047zm21.357 0.03125c-1.6603-0.050132-3.353 0.33317-4.9043 1.1953-4.1416 2.3115-5.905 7.279-4.2715 11.629 0.31472 0.90317 0.77147 0.65554 1.1914 0.42188l14.959-8.3242c0.41561-0.23125 0.73211-0.60284 0.24805-1.2656-1.7797-2.285-4.4555-3.5727-7.2227-3.6562zm-25.286 0.955c-0.1345 0.009-0.2918 0.055-0.4785 0.148-4.0864 2.202-6.0297 7.1-4.4414 11.565 1.5927 4.452 6.1784 7.01 10.724 6.138 0.497-0.081 0.701-0.246 0.758-0.455 0.057-0.208-0.033-0.46-0.123-0.712l-5.7168-16.047c-0.126-0.355-0.319-0.663-0.7225-0.637zm33.352 4.5879c-0.2148-0.021677-0.44786 0.1082-0.68164 0.23828l-14.887 8.283c-0.43831 0.24388-0.77472 0.59067-0.2832 1.2656 2.8452 3.6678 7.9962 4.7768 12.139 2.4746 4.1292-2.3045 5.8954-7.2494 4.2871-11.59-0.16205-0.47669-0.35942-0.6502-0.57422-0.67188z" fill-rule="evenodd" transform="matrix(.26458 0 0 .26458 0 284.3)"/>
 </g>
</svg>
