<?xml version="1.0" encoding="UTF-8" standalone="no"?>
<!-- Created with Inkscape (http://www.inkscape.org/) -->
<svg id="svg8" xmlns:rdf="http://www.w3.org/1999/02/22-rdf-syntax-ns#" xmlns="http://www.w3.org/2000/svg" height="48" viewBox="0 0 12.7 12.7" width="48" version="1.1" xmlns:cc="http://creativecommons.org/ns#" xmlns:dc="http://purl.org/dc/elements/1.1/">
 <title id="title4753">UIO-icon</title>
 <metadata id="metadata5">
  <rdf:RDF>
   <cc:Work rdf:about="">
    <dc:format>image/svg+xml</dc:format>
    <dc:type rdf:resource="http://purl.org/dc/dcmitype/StillImage"/>
    <dc:title>UIO-icon</dc:title>
    <dc:creator>
     <cc:Agent>
      <dc:title>Joaquín Urbano</dc:title>
     </cc:Agent>
    </dc:creator>
    <dc:rights>
     <cc:Agent>
      <dc:title>GPL</dc:title>
     </cc:Agent>
    </dc:rights>
   </cc:Work>
  </rdf:RDF>
 </metadata>
 <path id="path831" d="m13.768 4.0039c-1.662-0.0511-3.357 0.3321-4.9106 1.1953-4.1289 2.305-5.8961 7.2498-4.2871 11.59 0.162 0.477 0.3592 0.65 0.5742 0.672s0.4477-0.108 0.6817-0.238l14.885-8.2835c0.439-0.244 0.775-0.5907 0.283-1.2657-1.778-2.2924-4.456-3.5847-7.226-3.6699zm20.615 0.0332c-0.564 0.0044-1.133 0.0594-1.701 0.168-0.498 0.0808-0.701 0.2467-0.758 0.4551-0.057 0.2083 0.031 0.4586 0.121 0.7109l5.707 16.051c0.126 0.355 0.317 0.663 0.721 0.637 0.134-0.009 0.293-0.055 0.48-0.149 4.088-2.199 6.034-7.095 4.449-11.56-1.391-3.8972-5.074-6.3439-9.019-6.3129zm-20.719 0.4902c2.515 0.075 4.999 0.9356 6.615 2.9981 0.44 0.5984 0.478 0.8336 0.1 1.043l-14.648 8.1566c-0.1914 0.105-0.3012 0.189-0.399 0.146-0.0977-0.043-0.183-0.213-0.3261-0.621-1.4851-3.926 0.4357-8.5577 4.1992-10.644 1.4109-0.7786 2.9499-1.1238 4.4589-1.0787zm21.022 0.0489c3.591 0.0188 7.002 2.499 8.257 6.0488 0.534 1.52 0.621 3.095 0.327 4.576-0.491 2.468-1.752 4.776-4.053 6.029-0.332 0.168-0.557 0.25-0.717 0.241-0.16-0.01-0.256-0.111-0.328-0.315l-5.619-15.797c-0.073-0.2053-0.137-0.3283-0.078-0.4176 0.058-0.0893 0.24-0.145 0.666-0.2187 0.514-0.1019 1.031-0.1492 1.545-0.1465zm-4.288 0.457c-0.135 0.0098-0.291 0.0546-0.474 0.1465-2.548 1.3763-4.261 3.8005-4.801 6.5153-0.324 1.63-0.226 3.364 0.367 5.037 1.396 3.909 5.096 6.357 9.055 6.311 0.565-0.007 1.137-0.064 1.707-0.176 0.943-0.161 0.773-0.65 0.611-1.103l-5.732-16.131c-0.12-0.3367-0.327-0.6292-0.733-0.5998zm-0.011 0.6523c0.16 0.0095 0.254 0.1107 0.326 0.3145l5.619 15.797c0.145 0.411 0.263 0.489-0.588 0.637-0.515 0.101-1.032 0.149-1.545 0.146-3.591-0.019-7-2.501-8.256-6.051-0.534-1.52-0.62-3.093-0.326-4.574 0.49-2.4676 1.751-4.7761 4.053-6.0292 0.331-0.1674 0.557-0.2497 0.717-0.2403zm-8.557 3.8575c-0.205-0.0219-0.425 0.0978-0.635 0.2148l-14.959 8.3242c-0.4157 0.232-0.7317 0.603-0.2477 1.266 1.779 2.285 4.4537 3.573 7.2207 3.656 1.661 0.05 3.354-0.333 4.906-1.195 4.141-2.312 5.904-7.279 4.27-11.629-0.158-0.4518-0.349-0.6152-0.555-0.637zm-0.115 0.588c0.097 0.043 0.183 0.213 0.326 0.621 1.485 3.926-0.438 8.556-4.201 10.643-1.411 0.778-2.948 1.123-4.457 1.078-2.515-0.075-4.9986-0.936-6.6154-2.998-0.4399-0.599-0.4777-0.832-0.0996-1.041l14.648-8.157c0.191-0.105 0.301-0.189 0.399-0.146zm-8.326 14.836c-0.566 0.006-1.137 0.064-1.707 0.176-0.943 0.161-0.773 0.65-0.612 1.103l5.733 16.131c0.16 0.449 0.473 0.821 1.207 0.453 2.548-1.376 4.261-3.8 4.801-6.516 0.324-1.629 0.226-3.363-0.368-5.037-1.395-3.908-5.096-6.356-9.054-6.31zm21.336 0.039c-1.661-0.05-3.355 0.333-4.907 1.195-4.141 2.312-5.903 7.279-4.269 11.629 0.315 0.903 0.769 0.656 1.189 0.422l14.959-8.324c0.416-0.232 0.732-0.603 0.248-1.266-1.779-2.285-4.453-3.573-7.22-3.656zm-20.991 0.424c3.592 0.019 7 2.501 8.256 6.05 0.534 1.52 0.621 3.093 0.326 4.575-0.49 2.467-1.751 4.776-4.052 6.029-0.663 0.335-0.899 0.333-1.043-0.074l-5.619-15.797c-0.146-0.412-0.264-0.489 0.587-0.637 0.515-0.102 1.032-0.149 1.545-0.146zm20.817 0.107c2.514 0.075 4.998 0.936 6.615 2.998 0.44 0.599 0.478 0.832 0.1 1.041l-14.649 8.156c-0.382 0.212-0.438 0.341-0.724-0.474-1.485-3.927 0.437-8.556 4.201-10.643 1.41-0.778 2.947-1.123 4.457-1.078zm-25.09 0.414c-0.1345 0.009-0.2937 0.055-0.4804 0.149-4.0882 2.198-6.034 7.094-4.4493 11.56 1.5899 4.454 6.1748 7.013 10.721 6.145 0.497-0.081 0.7-0.247 0.758-0.455 0.057-0.209-0.032-0.459-0.121-0.711l-5.707-16.051c-0.126-0.355-0.3175-0.663-0.7211-0.637zm-0.0273 0.588c0.1604 0.01 0.2561 0.111 0.3281 0.315l5.6193 15.796c0.072 0.206 0.137 0.329 0.078 0.418-0.059 0.09-0.24 0.145-0.666 0.219-4.118 0.815-8.3676-1.845-9.8028-5.902-0.5338-1.52-0.6205-3.095-0.3261-4.576 0.49-2.468 1.7511-4.777 4.0527-6.03 0.3315-0.167 0.5564-0.249 0.7168-0.24zm33.355 4.01c-0.215-0.022-0.448 0.108-0.682 0.238l-14.884 8.283c-0.439 0.244-0.776 0.591-0.284 1.266 2.845 3.668 7.995 4.777 12.137 2.475 4.129-2.305 5.896-7.25 4.287-11.59-0.162-0.477-0.359-0.65-0.574-0.672zm-0.187 0.59c0.097 0.043 0.183 0.213 0.326 0.621 1.485 3.926-0.436 8.557-4.199 10.644-1.411 0.778-2.95 1.124-4.459 1.078-2.515-0.074-4.999-0.935-6.616-2.998-0.44-0.598-0.477-0.833-0.099-1.043l14.648-8.156c0.191-0.105 0.301-0.19 0.399-0.146z" fill-rule="evenodd" transform="scale(.26458)" stroke-width=".99999" fill="#333"/>
</svg>
