<svg width="48" height="48" viewBox="0 0 48 48" fill="none" xmlns="http://www.w3.org/2000/svg">
<path fill-rule="evenodd" clip-rule="evenodd" d="M16.6719 3.875C15.801 3.8759 14.949 4.12535 14.2148 4.59375C13.4806 5.06216 12.8952 5.73014 12.5273 6.51953C11.568 6.5624 10.7822 6.62011 10.2383 6.6875C9.69448 6.75489 9.40875 6.82995 9.40625 6.90625C9.40515 6.98296 9.69013 7.05918 10.2363 7.12695C10.7826 7.19472 11.5734 7.25194 12.5391 7.29492C12.4412 7.66127 12.3916 8.03875 12.3906 8.41797C12.3907 8.99476 12.5038 9.56678 12.7246 10.0996C12.9454 10.6325 13.2678 11.1156 13.6758 11.5234C14.0837 11.9311 14.5686 12.254 15.1016 12.4746C15.6345 12.6951 16.2064 12.8088 16.7832 12.8086C17.9477 12.8086 19.0633 12.3468 19.8867 11.5234C20.7102 10.6999 21.1738 9.58252 21.1738 8.41797C21.1717 8.03047 21.119 7.64495 21.0156 7.27148C21.8425 7.22743 22.5078 7.17259 22.9648 7.10938C23.4218 7.04615 23.6586 6.97625 23.6562 6.90625C23.6535 6.83391 23.3959 6.76198 22.9043 6.69727C22.4126 6.63256 21.7002 6.57676 20.8223 6.5332C20.4561 5.74048 19.8701 5.06865 19.1348 4.59766C18.3995 4.12668 17.5451 3.87616 16.6719 3.875ZM37.1641 4.06055C37.1612 3.92932 37.1484 4.01374 37.1328 4.2793C37.0641 5.44614 36.9452 6.26598 36.75 6.89258C36.6567 7.19228 36.6445 7.20961 36.4824 7.33203C35.6049 7.99443 35.2131 9.99471 35.6074 11.7891C35.8173 12.7441 36.3159 13.5854 36.8066 13.8184L36.9258 13.875L36.9121 28.8633L36.9004 43.8496L36.9883 43.9258C37.0905 44.0137 37.1873 44.0237 37.2852 43.9551C37.3864 43.8843 37.4291 43.7159 37.418 43.4238C37.4125 43.2804 37.4122 36.5855 37.416 28.5469L37.4238 13.9297L37.5098 13.8984C38.101 13.6873 38.5368 12.9788 38.7617 11.8613C38.8248 11.5475 38.8335 11.4043 38.834 10.707C38.8345 9.85717 38.8179 9.69904 38.6582 9.07617C38.4594 8.30118 38.0357 7.56014 37.6602 7.32812C37.571 7.27291 37.5481 7.2262 37.4922 7.01562C37.4045 6.68646 37.3398 6.29648 37.2812 5.72266C37.2281 5.20191 37.1712 4.39429 37.1641 4.06055ZM20.3008 7.30273C20.4169 7.66318 20.4787 8.03929 20.4805 8.41797C20.4803 9.39839 20.0898 10.3379 19.3965 11.0312C18.7033 11.7245 17.7636 12.1149 16.7832 12.1152C16.2974 12.1156 15.8161 12.0196 15.3672 11.834C14.9182 11.6484 14.5096 11.3765 14.166 11.0332C13.8223 10.6899 13.5494 10.2827 13.3633 9.83398C13.1772 9.38525 13.0822 8.90376 13.082 8.41797C13.082 8.04648 13.138 7.67708 13.248 7.32227C14.2623 7.3569 15.3885 7.375 16.5312 7.375C17.8664 7.37462 19.1717 7.3496 20.3008 7.30273ZM31.6895 8.66016C31.6582 8.61823 31.685 8.68039 31.7715 8.85156C32.1676 9.63638 32.6725 10.9373 32.8203 11.5547L32.8926 11.8613L32.8223 12.0273C32.7826 12.1193 32.7288 12.2596 32.7031 12.3398C32.6377 12.5447 32.6127 13.2501 32.6582 13.5918C32.8254 14.8458 33.504 16.2193 34.3789 17.0684C34.7505 17.4288 35.1116 17.6604 35.4531 17.7559C35.8492 17.8667 36.2699 17.7477 36.498 17.459C36.6595 17.2548 36.7448 17.0202 36.8105 16.6191C36.8549 16.3494 36.8574 16.2473 36.8262 15.9023C36.7842 15.44 36.682 14.9806 36.5176 14.5098C35.9639 12.925 34.7934 11.5955 33.8379 11.4688C33.6856 11.4485 33.6607 11.4291 33.4141 11.1699C32.9796 10.7134 32.459 9.97747 31.9492 9.0918C31.8102 8.85007 31.7208 8.7022 31.6895 8.66016ZM42.6133 8.66016C42.6059 8.66016 42.5641 8.73239 42.5195 8.82031C42.2892 9.27489 41.652 10.2632 41.3066 10.7031C41.1949 10.8457 40.9974 11.0709 40.8672 11.2031C40.6436 11.4305 40.6185 11.4457 40.4316 11.4805C39.4358 11.6657 38.2906 13.02 37.7578 14.6387C37.5658 15.2223 37.4863 15.6779 37.4863 16.2031C37.4863 17.0398 37.743 17.5792 38.2207 17.7441C38.4295 17.8164 38.5918 17.8193 38.8359 17.7559C40.0231 17.4466 41.3053 15.6176 41.6309 13.7676C41.6922 13.4191 41.6929 12.6776 41.6309 12.4141C41.6049 12.3036 41.547 12.1342 41.502 12.0391L41.4199 11.8652L41.5137 11.4941C41.6584 10.9215 42.1242 9.70041 42.4395 9.07227C42.5493 8.85354 42.6312 8.66016 42.6133 8.66016ZM16.3457 13.8906L12.3477 13.8926V13.9023C11.6298 13.9173 10.9435 14.3109 10.6055 15.0039L7.83398 20.6797V16.5625V14.9863H9.62109V14.043H5.10547V14.9863H6.89258V20.1797V22.6074L5.75 24.9473C5.269 25.9323 5.67811 27.1108 6.66211 27.5918C6.73711 27.6278 6.81558 27.6488 6.89258 27.6758V30.3496V34.4766H6.25781V35.3203H5.53906C4.68606 35.3203 4 36.0074 4 36.8594V37.2949V42.4219V43.9609H4.32031V42.0859V37.2871V37.1953C4.32031 36.3753 4.97978 35.7148 5.80078 35.7148H6.23633V43.9727H6.74219V35.7148H8.31445V43.9727H8.82031V35.7148H8.90039C9.72139 35.7148 10.3809 36.3753 10.3809 37.1953V37.2871V42.0859V43.9609H10.7246V42.4219V37.2949V36.8594C10.7246 36.0074 10.0385 35.3203 9.18555 35.3203H8.4668V34.4766H7.83398V27.7676C8.44898 27.6716 9.00773 27.2886 9.30273 26.6836L12.3477 20.4473V27.4434V28.9297V30.3691V41.9961C12.3477 43.0911 13.2273 43.9727 14.3223 43.9727C15.4173 43.9727 16.2988 43.0911 16.2988 41.9961V30.3691H16.3457H17.209H17.252V41.9961C17.252 43.0911 18.1355 43.9727 19.2305 43.9727C20.3264 43.9727 21.207 43.0911 21.207 41.9961V30.3691V28.9297V27.4434V20.4316L24.2578 26.6836C24.7378 27.6676 25.9183 28.0718 26.9023 27.5918C27.8862 27.1108 28.2914 25.9323 27.8105 24.9473L22.957 15.0039C22.617 14.3079 21.929 13.9084 21.207 13.8984V13.8906H17.209H16.3457ZM30.3203 14.4004C30.3359 14.4277 30.3963 14.5124 30.5059 14.6621C31.0141 15.3566 31.638 16.3549 31.9023 16.8984C32.0831 17.2704 32.096 17.345 32.0273 17.6641C31.9465 18.0398 32.042 18.6946 32.2637 19.2812C32.833 20.7884 34.2352 22.2698 35.3906 22.584C35.6637 22.6583 36.0988 22.6369 36.291 22.5391C36.5856 22.3891 36.754 22.1045 36.8203 21.6504C36.9056 21.068 36.6676 20.1626 36.2148 19.3594C35.3664 17.8543 34.0072 16.7578 32.9922 16.7578C32.8094 16.7578 32.7778 16.747 32.5605 16.6035C32.2587 16.404 32.0702 16.2414 31.5684 15.748C31.2166 15.4021 30.9482 15.1117 30.4043 14.4844C30.334 14.4033 30.3046 14.373 30.3203 14.4004ZM43.9863 14.4082C43.9796 14.4082 43.8194 14.5918 43.6289 14.8145C42.9703 15.5847 42.1222 16.3814 41.6543 16.6738C41.5466 16.741 41.48 16.7575 41.3203 16.7578C39.7007 16.7615 37.4838 19.4451 37.4863 21.3984C37.4872 22.0437 37.7303 22.4637 38.1836 22.6016C38.3051 22.6385 38.6693 22.6371 38.8535 22.5977C39.4888 22.4613 40.3306 21.8677 40.9648 21.1074C41.4343 20.5444 41.9335 19.6812 42.1191 19.1094C42.3086 18.5251 42.3626 17.9317 42.2637 17.5371L42.2148 17.3398L42.3301 17.0742C42.5548 16.5492 43.2358 15.4366 43.8145 14.6543C43.9146 14.5189 43.993 14.4082 43.9863 14.4082ZM21.1348 14.6133V14.627C21.6068 14.64 22.0572 14.8937 22.2812 15.3477L23.3203 17.4531C23.3323 17.4761 23.3523 17.4858 23.3633 17.5098L27.2012 25.2852C27.5232 25.9372 27.2575 26.72 26.6055 27.041C25.9545 27.363 25.1716 27.0973 24.8496 26.4453L23.8066 24.3379C23.7956 24.3189 23.7766 24.3053 23.7656 24.2812L20.541 17.75V20.668V23.6367V28.2637V32.3066V33.2461V34.3184V36.9336V41.9141C20.541 42.2771 20.3952 42.6068 20.1582 42.8438C19.9213 43.0798 19.5935 43.2256 19.2305 43.2266C18.8675 43.2266 18.5378 43.0807 18.3008 42.8438C18.0638 42.6068 17.916 42.2771 17.916 41.9141V36.9336V34.3184V33.2461V32.3066V29.6855H15.6348V32.3066V33.2461V34.3184V36.9336V41.9141C15.6348 42.6411 15.0493 43.2266 14.3223 43.2266C13.5953 43.2266 13.0117 42.6411 13.0117 41.9141V36.9336V34.3184V33.2461V32.3066V29.3379V28.2637V25.6484V24.7109V23.6367V20.668V17.7031L9.76367 24.2793C9.75367 24.3033 9.73466 24.3169 9.72266 24.3359L8.68164 26.4434C8.36064 27.0954 7.57483 27.3611 6.92383 27.0391C6.27183 26.7171 6.00612 25.9333 6.32812 25.2812L10.166 17.5059C10.177 17.4829 10.1989 17.4752 10.2109 17.4512L11.25 15.3457C11.491 14.8567 11.9911 14.5872 12.502 14.6152L21.1348 14.6133ZM30.3008 19.3145C30.2607 19.2767 30.2644 19.2872 30.5059 19.6172C31.0141 20.3117 31.638 21.3099 31.9023 21.8535C32.0831 22.2256 32.096 22.2963 32.0273 22.6152C31.9761 22.8534 31.9993 23.3127 32.084 23.6641C32.4802 25.3093 33.9459 27.0564 35.3105 27.5117C35.6216 27.6156 36.0658 27.6072 36.291 27.4922C37.1731 27.0423 36.959 25.303 35.8242 23.6973C34.9784 22.5004 33.8529 21.715 32.9824 21.7129C32.8006 21.7125 32.7647 21.7003 32.5859 21.5801C32.4778 21.5074 32.304 21.3768 32.1992 21.291C31.8793 21.0294 31.118 20.2586 30.7148 19.7891C30.5049 19.5447 30.3193 19.3318 30.3008 19.3145ZM43.9844 19.3613C43.9789 19.3613 43.8194 19.5429 43.6289 19.7656C43.1758 20.2953 42.3982 21.0712 42.0586 21.334C41.6165 21.6761 41.5484 21.7124 41.3203 21.7129C40.1222 21.7158 38.4829 23.2371 37.7754 25.002C37.561 25.5367 37.5047 25.8164 37.5039 26.3477C37.5031 26.797 37.5041 26.8121 37.5996 27.0137C37.7371 27.3038 37.9147 27.4709 38.1836 27.5586C38.3139 27.601 38.8511 27.57 39.0254 27.5098C40.6452 26.9503 42.3124 24.6395 42.3125 22.9531C42.3125 22.7773 42.2929 22.5789 42.2637 22.4746L42.2129 22.2969L42.3359 22.0098C42.5567 21.5006 43.0472 20.6971 43.6836 19.7988C43.8537 19.5588 43.9899 19.3613 43.9844 19.3613ZM30.3223 24.293C30.2933 24.2655 30.3267 24.319 30.416 24.4434C31.3198 25.7016 32.0708 26.9816 32.0684 27.2637C32.0679 27.327 32.0499 27.4655 32.0273 27.5703C31.9282 28.0314 32.0653 28.7603 32.3848 29.4746C33.0163 30.8866 34.2045 32.103 35.3105 32.4648C35.5809 32.5532 35.9744 32.5641 36.1914 32.4902C36.6572 32.3314 36.9134 31.7333 36.8203 31.0254C36.7508 30.4976 36.6102 30.0561 36.3379 29.5098C35.5418 27.9126 34.0736 26.6685 32.9824 26.666C32.8006 26.6657 32.7647 26.6533 32.5859 26.5332C32.0807 26.1935 31.2416 25.3847 30.6016 24.6191C30.4423 24.4284 30.3513 24.3204 30.3223 24.293ZM43.916 24.3965C43.8813 24.4282 43.7653 24.5613 43.5508 24.8105C43.1505 25.2758 42.3662 26.0524 42.0586 26.2891C41.61 26.6343 41.5715 26.6542 41.248 26.6758C40.9134 26.6982 40.6089 26.7936 40.2598 26.9863C39.084 27.6354 37.9237 29.1803 37.5762 30.5586C37.5192 30.785 37.5045 30.933 37.5039 31.3027C37.5032 31.7519 37.5041 31.7672 37.5996 31.9688C37.7169 32.2162 37.8592 32.3643 38.0742 32.4668C38.2168 32.5348 38.2649 32.5419 38.5488 32.5312C38.9149 32.5174 39.1977 32.4297 39.5664 32.2188C41.2264 31.269 42.6092 28.8196 42.2637 27.4414L42.2148 27.248L42.3164 27.0117C42.5433 26.478 43.087 25.5867 43.7969 24.5859C43.9046 24.4341 43.9508 24.3647 43.916 24.3965ZM44 29.2539L43.8652 29.4102C42.9082 30.5062 42.3198 31.082 41.7754 31.457C41.5541 31.6094 41.5271 31.6191 41.3438 31.6191C41.2361 31.6191 41.0367 31.6467 40.8984 31.6816C39.4904 32.0375 37.8574 34.0081 37.5293 35.748C37.4637 36.0967 37.4823 36.6526 37.5664 36.8594C37.6877 37.1574 37.8883 37.3667 38.1367 37.4551C38.2809 37.5063 38.7083 37.4998 38.9258 37.4434C39.7392 37.2325 40.7128 36.4135 41.4375 35.334C41.8153 34.7711 42.1552 33.9782 42.2656 33.4004C42.3264 33.0828 42.3258 32.5979 42.2637 32.3887C42.2161 32.2288 42.2165 32.2173 42.2988 32.0117C42.5108 31.4818 43.1212 30.4827 43.8867 29.4121L44 29.2539ZM30.3789 29.3164C30.3139 29.2387 30.3271 29.2698 30.416 29.3965C31.1639 30.4623 31.634 31.2062 31.9023 31.7578C32.0831 32.1299 32.096 32.2043 32.0273 32.5234C32.0004 32.6487 31.9929 32.8191 32.0059 33.0176C32.0401 33.5471 32.1886 34.0391 32.502 34.6719C33.1503 35.9815 34.2696 37.0774 35.3105 37.418C35.5808 37.5064 35.9745 37.5174 36.1914 37.4434C36.5221 37.3306 36.7532 36.995 36.8203 36.5312C36.9702 35.495 36.1864 33.7852 35.0684 32.7109C34.3481 32.0187 33.699 31.669 33.0566 31.627C32.7977 31.6101 32.7542 31.5991 32.5977 31.4961C32.0772 31.1535 31.1636 30.2559 30.3789 29.3164Z" fill="#333333"/>
</svg>
