<svg width="48" height="48" viewBox="0 0 48 48" fill="none" xmlns="http://www.w3.org/2000/svg">
<path fill-rule="evenodd" clip-rule="evenodd" d="M24.488 4C23.7788 3.99994 23.0986 4.29044 22.597 4.80762C22.0954 5.32482 21.8136 6.02628 21.8134 6.75782C21.8136 7.09674 21.8744 7.43264 21.9926 7.74884L14.0038 13.023L8.55534 16.7561C8.05514 16.2442 7.3793 15.9567 6.67468 15.9559C6.32342 15.9559 5.9756 16.0272 5.6511 16.1658C5.32658 16.3045 5.0317 16.5076 4.78334 16.7637C4.53496 17.0199 4.33796 17.3241 4.20354 17.6588C4.06914 17.9935 3.99998 18.3523 4 18.7146C4.00104 19.4252 4.26784 20.1078 4.74478 20.6206C5.22174 21.1332 5.87208 21.4364 6.5603 21.4668L9.01764 31.1838L10.7305 37.5138C10.2849 37.7422 9.90984 38.0944 9.64766 38.5306C9.38546 38.967 9.2465 39.4702 9.2464 39.9834C9.24638 40.3458 9.31554 40.7046 9.44994 41.0394C9.58436 41.374 9.78136 41.6782 10.0297 41.9344C10.2781 42.1906 10.573 42.394 10.8975 42.5326C11.222 42.6712 11.5698 42.7424 11.9211 42.7424C12.4411 42.742 12.9497 42.585 13.3846 42.291C13.8196 41.997 14.1619 41.5782 14.3698 41.0866L24.222 41.6864L30.9392 41.9776C31.0954 42.559 31.432 43.0716 31.8976 43.4368C32.363 43.8022 32.9318 44 33.5168 44C34.226 44 34.9062 43.7094 35.4078 43.1922C35.9094 42.6752 36.1912 41.9736 36.1914 41.242C36.1908 40.8246 36.0984 40.4124 35.9212 40.037C35.7438 39.6616 35.4862 39.3328 35.1676 39.075L38.6048 30.0168L40.926 23.5776C41.058 23.5994 41.1916 23.611 41.3254 23.612C42.0346 23.6122 42.7148 23.3216 43.2164 22.8044C43.718 22.2872 43.9998 21.5858 44 20.8542C44 20.492 43.9308 20.1332 43.7964 19.7984C43.662 19.4637 43.465 19.1595 43.2166 18.9033C42.9682 18.6472 42.6734 18.4438 42.349 18.3052C42.0244 18.1665 41.6766 18.0952 41.3254 18.0953C40.7614 18.0965 40.2122 18.2817 39.7564 18.6242L32.289 12.3021L26.9158 7.90824C27.0774 7.5476 27.1616 7.15514 27.1628 6.75782C27.1626 6.02628 26.8806 5.32482 26.379 4.80762C25.8774 4.29044 25.1972 3.99994 24.488 4ZM22.4062 8.48934C22.6568 8.81006 22.974 9.06866 23.3342 9.24644C23.6944 9.42424 24.0886 9.51674 24.488 9.5168C24.8606 9.5162 25.2288 9.43538 25.5692 9.27944C25.9096 9.1235 26.2148 8.89576 26.465 8.61114L31.8076 12.9796L39.1758 19.2171C38.8358 19.6908 38.6516 20.2646 38.6506 20.8542C38.651 21.3532 38.7826 21.8428 39.0312 22.2708C39.28 22.6988 39.6368 23.0492 40.0632 23.2848L37.7594 29.6744L34.3612 38.6266C34.089 38.5322 33.8038 38.4838 33.5168 38.4832C32.8548 38.4832 32.2164 38.7364 31.725 39.1938C31.2334 39.6514 30.924 40.2804 30.8564 40.9598L24.205 40.6718L14.591 40.0868C14.5932 40.0524 14.5948 40.018 14.5957 39.9834C14.5957 39.6212 14.5266 39.2624 14.3922 38.9276C14.2578 38.593 14.0607 38.2888 13.8124 38.0326C13.564 37.7764 13.2691 37.5732 12.9446 37.4346C12.6201 37.296 12.2723 37.2248 11.921 37.2248C11.8229 37.2258 11.7249 37.2322 11.6275 37.2444L9.87642 30.7738L7.49058 21.338C8.02966 21.1598 8.50004 20.81 8.83406 20.3386C9.16808 19.8673 9.34848 19.2985 9.3493 18.7146C9.34906 18.2732 9.24608 17.8383 9.04904 17.4463L14.5757 13.659L22.4062 8.48934Z" fill="#333333"/>
</svg>
