<svg width="48" height="48" viewBox="0 0 48 48" fill="none" xmlns="http://www.w3.org/2000/svg">
<path fill-rule="evenodd" clip-rule="evenodd" d="M0 0H48V48H0V0ZM17.874 38.9999C17.43 40.7252 15.8639 42 14 42C11.7909 42 10 40.2091 10 38C10 36.4449 10.8874 35.0971 12.1835 34.4353L9.864 23.9977C7.71783 23.926 6 22.1636 6 20C6 17.7909 7.79086 16 10 16C10.9787 16 11.8752 16.3515 12.5704 16.935L20.2663 11.438C20.0943 10.9917 20 10.5069 20 10C20 7.79086 21.7909 6 24 6C26.2091 6 28 7.79086 28 10C28 10.5069 27.9057 10.9917 27.7337 11.438L35.4296 16.935C36.1248 16.3515 37.0213 16 38 16C40.2091 16 42 17.7909 42 20C42 22.1636 40.2822 23.926 38.136 23.9977L35.8165 34.4353C37.1126 35.0971 38 36.4449 38 38C38 40.2091 36.2091 42 34 42C32.1361 42 30.57 40.7252 30.126 38.9999H17.874ZM17.874 36.9999C17.4407 35.3169 15.9396 34.0625 14.136 34.0023L11.8166 23.5647C13.1126 22.9029 14 21.5551 14 20C14 19.4931 13.9057 19.0082 13.7337 18.5619L21.4295 13.0649C22.1247 13.6485 23.0213 14 24 14C24.9787 14 25.8753 13.6485 26.5705 13.0649L34.2663 18.5619C34.0943 19.0082 34 19.4931 34 20C34 21.5551 34.8874 22.9029 36.1834 23.5647L33.864 34.0023C32.0603 34.0625 30.5593 35.3169 30.126 36.9999H17.874Z" fill="#333333"/>
</svg>
