<svg width="48" height="48" viewBox="0 0 48 48" fill="none" xmlns="http://www.w3.org/2000/svg">
<path d="M24.4883 4C23.7791 3.99994 23.0993 4.29141 22.5977 4.80859C22.0961 5.32579 21.8127 6.02627 21.8125 6.75781C21.8127 7.09673 21.874 7.43185 21.9922 7.74805L14.0039 13.0234L8.55469 16.7559C8.05449 16.244 7.37845 15.9559 6.67383 15.9551C6.32257 15.9551 5.97489 16.0274 5.65039 16.166C5.32587 16.3047 5.03156 16.5076 4.7832 16.7637C4.53482 17.0199 4.33754 17.3235 4.20312 17.6582C4.06873 17.9929 3.99998 18.3525 4 18.7148C4.00104 19.4254 4.2672 20.1083 4.74414 20.6211C5.2211 21.1337 5.87233 21.4364 6.56055 21.4668L9.01758 31.1836L10.7305 37.5137C10.2849 37.7421 9.91062 38.0951 9.64844 38.5312C9.38624 38.9677 9.24619 39.4712 9.24609 39.9844C9.24607 40.3468 9.31482 40.7043 9.44922 41.0391C9.58364 41.3737 9.78096 41.6774 10.0293 41.9336C10.2777 42.1898 10.5739 42.3946 10.8984 42.5332C11.2229 42.6718 11.5706 42.7422 11.9219 42.7422C12.4419 42.7418 12.9499 42.585 13.3848 42.291C13.8198 41.997 14.1612 41.5775 14.3691 41.0859L24.2227 41.6855L30.9395 41.9785C31.0957 42.5599 31.4328 43.0723 31.8984 43.4375C32.3638 43.8029 32.9326 44 33.5176 44C34.2268 44 34.9066 43.7086 35.4082 43.1914C35.9098 42.6744 36.1912 41.9738 36.1914 41.2422C36.1908 40.8248 36.0991 40.4125 35.9219 40.0371C35.7445 39.6617 35.4866 39.332 35.168 39.0742L38.6055 30.0176L40.9258 23.5781C41.0578 23.5999 41.1924 23.6103 41.3262 23.6113C42.0354 23.6115 42.7152 23.3219 43.2168 22.8047C43.7184 22.2875 43.9998 21.5851 44 20.8535C44 20.4913 43.9313 20.1336 43.7969 19.7988C43.6625 19.4641 43.4652 19.1585 43.2168 18.9023C42.9684 18.6462 42.674 18.4433 42.3496 18.3047C42.025 18.166 41.6774 18.0956 41.3262 18.0957C40.7622 18.0969 40.2117 18.2825 39.7559 18.625L32.2891 12.3027L26.916 7.9082C27.0776 7.54756 27.1609 7.15513 27.1621 6.75781C27.1619 6.02627 26.8805 5.32579 26.3789 4.80859C25.8773 4.29141 25.1975 3.99994 24.4883 4ZM24.4551 4.52734C24.7485 4.52734 25.0391 4.58513 25.3101 4.69742C25.5812 4.8097 25.8275 4.97429 26.035 5.18177C26.2425 5.38925 26.4071 5.63557 26.5194 5.90665C26.6317 6.17774 26.6895 6.4683 26.6895 6.76172C26.6895 7.05514 26.6317 7.34569 26.5194 7.61678C26.4071 7.88787 26.2425 8.13419 26.035 8.34167C25.8275 8.54915 25.5812 8.71374 25.3101 8.82602C25.0391 8.93831 24.7485 8.9961 24.4551 8.99609C24.1617 8.9961 23.8711 8.93831 23.6 8.82602C23.3289 8.71374 23.0826 8.54915 22.8751 8.34167C22.6676 8.13419 22.5031 7.88787 22.3908 7.61678C22.2785 7.34569 22.2207 7.05514 22.2207 6.76172C22.2207 6.4683 22.2785 6.17774 22.3908 5.90665C22.5031 5.63557 22.6676 5.38925 22.8751 5.18177C23.0826 4.97429 23.3289 4.8097 23.6 4.69742C23.8711 4.58513 24.1617 4.52734 24.4551 4.52734ZM22.4062 8.49023C22.6569 8.81095 22.9738 9.06831 23.334 9.24609C23.6942 9.42389 24.0889 9.51752 24.4883 9.51758C24.8609 9.51698 25.228 9.43524 25.5684 9.2793C25.9088 9.12336 26.2146 8.89595 26.4648 8.61133L31.8066 12.9805L39.1758 19.2168C38.8358 19.6905 38.6514 20.2639 38.6504 20.8535C38.6508 21.3525 38.7826 21.8435 39.0312 22.2715C39.28 22.6995 39.6361 23.0496 40.0625 23.2852L37.7598 29.6738L34.3613 38.627C34.0891 38.5326 33.8046 38.483 33.5176 38.4824C32.8556 38.4824 32.216 38.736 31.7246 39.1934C31.233 39.651 30.9231 40.2796 30.8555 40.959L24.2051 40.6719L14.5918 40.0859C14.594 40.0515 14.5948 40.019 14.5957 39.9844C14.5957 39.6222 14.527 39.2625 14.3926 38.9277C14.2582 38.5931 14.0608 38.2894 13.8125 38.0332C13.5641 37.777 13.2698 37.5741 12.9453 37.4355C12.6208 37.2969 12.2732 37.2246 11.9219 37.2246C11.8238 37.2256 11.7244 37.2319 11.627 37.2441L9.87695 30.7734L7.49023 21.3379C8.02931 21.1597 8.49996 20.8093 8.83398 20.3379C9.168 19.8666 9.34879 19.2987 9.34961 18.7148C9.34937 18.2734 9.24587 17.8393 9.04883 17.4473L14.5762 13.6582L22.4062 8.49023ZM6.67188 16.4707C6.9653 16.4707 7.25585 16.5285 7.52694 16.6408C7.79803 16.7531 8.04435 16.9176 8.25183 17.1251C8.45931 17.3326 8.62389 17.5789 8.73618 17.85C8.84846 18.1211 8.90625 18.4117 8.90625 18.7051C8.90625 18.9985 8.84846 19.2891 8.73618 19.5601C8.62389 19.8312 8.45931 20.0775 8.25183 20.285C8.04435 20.4925 7.79803 20.6571 7.52694 20.7694C7.25585 20.8817 6.9653 20.9395 6.67188 20.9395C6.37845 20.9395 6.0879 20.8817 5.81681 20.7694C5.54572 20.6571 5.29941 20.4925 5.09192 20.285C4.88444 20.0775 4.71986 19.8312 4.60757 19.5601C4.49529 19.2891 4.4375 18.9985 4.4375 18.7051C4.4375 18.4117 4.49529 18.1211 4.60757 17.85C4.71986 17.5789 4.88444 17.3326 5.09192 17.1251C5.29941 16.9176 5.54572 16.7531 5.81681 16.6408C6.0879 16.5285 6.37845 16.4707 6.67188 16.4707ZM41.3242 18.6621C41.6176 18.6621 41.9082 18.7199 42.1793 18.8322C42.4504 18.9445 42.6967 19.1091 42.9042 19.3165C43.1117 19.524 43.2762 19.7703 43.3885 20.0414C43.5008 20.3125 43.5586 20.6031 43.5586 20.8965C43.5586 21.1899 43.5008 21.4805 43.3885 21.7515C43.2762 22.0226 43.1117 22.269 42.9042 22.4764C42.6967 22.6839 42.4504 22.8485 42.1793 22.9608C41.9082 23.0731 41.6176 23.1309 41.3242 23.1309C41.0308 23.1309 40.7402 23.0731 40.4692 22.9608C40.1981 22.8485 39.9517 22.6839 39.7443 22.4764C39.5368 22.269 39.3722 22.0226 39.2599 21.7515C39.1476 21.4805 39.0898 21.1899 39.0898 20.8965C39.0898 20.6031 39.1476 20.3125 39.2599 20.0414C39.3722 19.7703 39.5368 19.524 39.7443 19.3165C39.9517 19.1091 40.1981 18.9445 40.4692 18.8322C40.7402 18.7199 41.0308 18.6621 41.3242 18.6621ZM11.9102 37.7402C12.2036 37.7402 12.4941 37.798 12.7652 37.9103C13.0363 38.0226 13.2826 38.1872 13.4901 38.3947C13.6976 38.6021 13.8622 38.8485 13.9745 39.1195C14.0867 39.3906 14.1445 39.6812 14.1445 39.9746C14.1445 40.268 14.0867 40.5586 13.9745 40.8297C13.8622 41.1008 13.6976 41.3471 13.4901 41.5546C13.2826 41.762 13.0363 41.9266 12.7652 42.0389C12.4941 42.1512 12.2036 42.209 11.9102 42.209C11.6167 42.209 11.3262 42.1512 11.0551 42.0389C10.784 41.9266 10.5377 41.762 10.3302 41.5546C10.1227 41.3471 9.95814 41.1008 9.84585 40.8297C9.73357 40.5586 9.67578 40.268 9.67578 39.9746C9.67578 39.6812 9.73357 39.3906 9.84585 39.1195C9.95814 38.8485 10.1227 38.6021 10.3302 38.3947C10.5377 38.1872 10.784 38.0226 11.0551 37.9103C11.3262 37.798 11.6167 37.7402 11.9102 37.7402ZM33.4727 38.998C33.7661 38.998 34.0566 39.0558 34.3277 39.1681C34.5988 39.2804 34.8451 39.445 35.0526 39.6525C35.2601 39.86 35.4247 40.1063 35.537 40.3774C35.6492 40.6484 35.707 40.939 35.707 41.2324C35.707 41.5258 35.6492 41.8164 35.537 42.0875C35.4247 42.3586 35.2601 42.6049 35.0526 42.8124C34.8451 43.0199 34.5988 43.1844 34.3277 43.2967C34.0566 43.409 33.7661 43.4668 33.4727 43.4668C33.1792 43.4668 32.8887 43.409 32.6176 43.2967C32.3465 43.1844 32.1002 43.0199 31.8927 42.8124C31.6852 42.6049 31.5206 42.3586 31.4084 42.0875C31.2961 41.8164 31.2383 41.5258 31.2383 41.2324C31.2383 40.939 31.2961 40.6484 31.4084 40.3774C31.5206 40.1063 31.6852 39.86 31.8927 39.6525C32.1002 39.445 32.3465 39.2804 32.6176 39.1681C32.8887 39.0558 33.1792 38.998 33.4727 38.998Z" fill="#333333"/>
</svg>
