<svg width="48" height="48" viewBox="0 0 48 48" fill="none" xmlns="http://www.w3.org/2000/svg">
<path fill-rule="evenodd" clip-rule="evenodd" d="M0 0H48V48H0V0ZM29 8C29 10.2091 27.2091 12 25 12C22.7909 12 21 10.2091 21 8C21 5.79086 22.7909 4 25 4C27.2091 4 29 5.79086 29 8ZM20.8237 27.1175C21.078 27.3024 21.3613 27.4187 21.6514 27.4698C21.997 31.3427 22 35.1449 22 41V42C22 43.1046 22.8955 44 24 44C25.1046 44 26 43.1046 26 42V41L27.4622 33.3079C27.6613 33.247 27.9105 33.1647 28.1922 33.0581C28.8688 32.8021 29.7956 32.383 30.6764 31.7425C31.5527 31.1052 32.4918 30.1688 33.0047 28.8499C33.5383 27.4778 33.5217 25.9191 32.857 24.2572C31.7093 21.3881 29.6143 18.9108 27.9143 17.2108C27.0488 16.3454 26.2509 15.6471 25.6667 15.1631C25.374 14.9206 25.1333 14.7304 24.9626 14.5986C24.8772 14.5327 24.8092 14.4812 24.7608 14.445L24.7031 14.4021L24.6858 14.3894L24.6801 14.3852L24.678 14.3837L24.6771 14.3831C24.6767 14.3828 24.6764 14.3825 23.5 16L24.6764 14.3825C24.3345 14.1339 23.9227 14 23.5 14H23.5H23.5H23.5H23.4999H23.4998H23.4998H23.4997H23.4996H23.4995H23.4993H23.4992H23.4991H23.4989H23.4987H23.4986H23.4984H23.4982H23.4979H23.4977H23.4975H23.4972H23.497H23.4967H23.4964H23.4961H23.4958H23.4955H23.4951H23.4948H23.4944H23.4941H23.4937H23.4933H23.4929H23.4925H23.492H23.4916H23.4911H23.4906H23.4902H23.4897H23.4892H23.4886H23.4881H23.4876H23.487H23.4864H23.4859H23.4853H23.4847H23.484H23.4834H23.4828H23.4821H23.4814H23.4808H23.4801H23.4794H23.4786H23.4779H23.4772H23.4764H23.4756H23.4748H23.474H23.4732H23.4724H23.4716H23.4707H23.4699H23.469H23.4681H23.4672H23.4663H23.4654H23.4644H23.4635H23.4625H23.4615H23.4605H23.4595H23.4585H23.4575H23.4564H23.4554H23.4543H23.4532H23.4521H23.451H23.4499H23.4487H23.4476H23.4464H23.4452H23.444H23.4428H23.4416H23.4403H23.4391H23.4378H23.4366H23.4353H23.434H23.4326H23.4313H23.43H23.4286H23.4272H23.4258H23.4244H23.423H23.4216H23.4202H23.4187H23.4172H23.4157H23.4142H23.4127H23.4112H23.4097H23.4081H23.4065H23.405H23.4034H23.4017H23.4001H23.3985H23.3968H23.3952H23.3935H23.3918H23.3901H23.3883H23.3866H23.3848H23.3831H23.3813H23.3795H23.3777H23.3758H23.374H23.3721H23.3703H23.3684H23.3665H23.3646H23.3626H23.3607H23.3587H23.3567H23.3548H23.3528H23.3507H23.3487H23.3466H23.3446H23.3425H23.3404H23.3383H23.3362H23.334H23.3319H23.3297H23.3275H23.3253H23.3231H23.3209H23.3186H23.3164H23.3141H23.3118H23.3095H23.3072H23.3048H23.3025H23.3001H23.2977H23.2953H23.2929H23.2905H23.288H23.2856H23.2831H23.2806H23.2781H23.2756H23.273H23.2705H23.2679H23.2653H23.2627H23.2601H23.2575H23.2548H23.2522H23.2495H23.2468H23.2441H23.2414H23.2386H23.2359H23.2331H23.2303H23.2275H23.2247H23.2218H23.219H23.2161H23.2132H23.2103H23.2074H23.2044H23.2015H23.1985H23.1955H23.1925H23.1895H23.1865H23.1834H23.1804H23.1773H23.1742H23.1711H23.1679H23.1648H23.1616H23.1584H23.1552H23.152H23.1488H23.1455H23.1423H23.139H23.1357H23.1324H23.129H23.1257H23.1223H23.119H23.1156H23.1121H23.1087H23.1053H23.1018H23.0983H23.0948H23.0913H23.0878H23.0842H23.0806H23.0771H23.0735H23.0698H23.0662H23.0625H23.0589H23.0552H23.0515H23.0478H23.044H23.0403H23.0365H23.0327H23.0289H23.0251H23.0212H23.0174H23.0135H23.0096H23.0057H23.0017H22.9978H22.9938H22.9898H22.9858H22.9818H22.9778H22.9737H22.9697H22.9656H22.9615H22.9573H22.9532H22.949H22.9449H22.9407H22.9364H22.9322H22.928H22.9237H22.9194H22.9151H22.9108H22.9064H22.9021H22.8977H22.8933H22.8889H22.8845H22.88H22.8756H22.8711H22.8666H22.8621H22.8575H22.853H22.8484H22.8438H22.8392H22.8345H22.8299H22.8252H22.8205H22.8158H22.8111H22.8064H22.8016H22.7968H22.792H22.7872H22.7824H22.7775H22.7727H22.7678H22.7629H22.7579H22.753H22.748H22.743H22.738H22.733H22.728H22.7229H22.7178H22.7127H22.7076H22.7025H22.6973H22.6922H22.687H22.6817H22.6765H22.6713H22.666H22.6607H22.6554H22.6501H22.6447H22.6394H22.634H22.6286H22.6232H22.6177H22.6123H22.6068H22.6013H22.5958H22.5902H22.5847H22.5791H22.5735H22.5679H22.5622H22.5566H22.5509H22.5452H22.5395H22.5338H22.528H22.5222H22.5164H22.5106H22.5048H22.4989H22.4931H22.4872H22.4812H22.4753H22.4694H22.4634H22.4574H22.4514H22.4454H22.4393H22.4332H22.4271H22.421H22.4149H22.4087H22.4026H22.3964H22.3902H22.3839H22.3777H22.3714H22.3651H22.3588H22.3525H22.3461H22.3397H22.3333H22.3269H22.3205H22.314H22.3075H22.301H22.2945H22.288H22.2814H22.2748H22.2682H22.2616H22.255H22.2483H22.2416H22.2349H22.2282H22.2214H22.2147H22.2079H22.2011H22.1942H22.1874H22.1805H22.1736H22.1667H22.1598H22.1528H22.1458H22.1389H22.1318H22.1248H22.1177H22.1106H22.1035H22.0964H22.0893H22.0821H22.0749H22.0677H22.0605H22.0532H22.046H22.0387H22.0313H22.024H22.0166H22.0093H22.0019H21.9944H21.987H21.9795H21.972H21.9645H21.957H21.9494H21.9419H21.9343H21.9267H21.919H21.9114H21.9037H21.896H21.8882H21.8805H21.8727H21.8649H21.8571H21.8493H21.8414H21.8335H21.8256H21.8177H21.8098H21.8018H21.7938H21.7858H21.7778H21.7697H21.7616H21.7535H21.7454H21.7372H21.7291H21.7209H21.7127H21.7044H21.6962H21.6879H21.6796H21.6713H21.6629H21.6546H21.6462H21.6378H21.6293H21.6209H21.6124H21.6039H21.5953H21.5868H21.5782H21.5696H21.561H21.5524H21.5437H21.535H21.5263H21.5176H21.5088H21.5C20.7524 14 20.1454 14.3198 19.7902 14.5431C19.3931 14.7926 19.0243 15.1072 18.7035 15.4141C18.0583 16.0313 17.4094 16.8096 16.855 17.5271C16.2916 18.2562 15.7831 18.9784 15.4179 19.514C15.2345 19.783 15.0852 20.0079 14.981 20.1668C14.9288 20.2464 14.8878 20.3095 14.8593 20.3536L14.8262 20.4052L14.8169 20.4197L14.8142 20.424L14.8133 20.4254L14.813 20.4259C14.8128 20.4261 14.8127 20.4262 16.5 21.5L14.8127 20.4262C14.2456 21.3175 14.4694 22.4961 15.3237 23.1175L20.8237 27.1175ZM20.4788 19.3964C20.6743 20.4199 20.8447 21.3793 20.9932 22.2947L19.2428 21.0217C19.4807 20.6884 19.7445 20.3296 20.0201 19.9729C20.1738 19.7741 20.3274 19.5808 20.4788 19.3964Z" fill="#333333"/>
</svg>
