<?xml version="1.0" encoding="UTF-8" standalone="no"?>
<!-- Created with Inkscape (http://www.inkscape.org/) -->
<svg id="svg8" xmlns:rdf="http://www.w3.org/1999/02/22-rdf-syntax-ns#" xmlns="http://www.w3.org/2000/svg" height="48" viewBox="0 0 12.7 12.7" width="48" version="1.1" xmlns:cc="http://creativecommons.org/ns#" xmlns:dc="http://purl.org/dc/elements/1.1/">
 <title id="title4753">UIO-icon</title>
 <metadata id="metadata5">
  <rdf:RDF>
   <cc:Work rdf:about="">
    <dc:format>image/svg+xml</dc:format>
    <dc:type rdf:resource="http://purl.org/dc/dcmitype/StillImage"/>
    <dc:title>UIO-icon</dc:title>
    <dc:creator>
     <cc:Agent>
      <dc:title>Joaquín Urbano</dc:title>
     </cc:Agent>
    </dc:creator>
    <dc:rights>
     <cc:Agent>
      <dc:title>GPL</dc:title>
     </cc:Agent>
    </dc:rights>
   </cc:Work>
  </rdf:RDF>
 </metadata>
 <path id="path837" d="m24 4.0098a14.273 14.273 0 0 0 -14.273 14.273 14.273 14.273 0 0 0 14.273 14.274 14.273 14.273 0 0 0 14.273 -14.274 14.273 14.273 0 0 0 -14.273 -14.273zm-0.004 0.5078a13.754 13.759 0 0 1 13.756 13.759 13.754 13.759 0 0 1 -13.756 13.76 13.754 13.759 0 0 1 -13.754 -13.76 13.754 13.759 0 0 1 13.754 -13.759zm-1.084 2.1523c-0.186 0.0013-0.378 0.1044-0.465 0.3535-0.316 0.702-0.86 1.1957-1.099 2.1895-0.304 1.4321 2.153 1.5541 2.92 1.5511 2.213 0.081 3.01 1.459 0.736 1.664-1.887 0.177-3.828 0.224-4.209 4.107-0.049 0.568 0.213 1.576 0.67 2.858 0.151 0.84-0.099 1.808-0.602 2.857-0.256-0.03-0.445-0.122-0.492-0.334 0.044-0.905 0.227-1.67-0.133-2.98-0.354-1.271-1.22-1.876-2.099-2.032-1.763-0.366-3.327-0.697-4.739-0.228-1.488 0.558-1.012 2.763 0.268 2.791l1.568 0.043c1.087 0.022 1.676 0.5 1.112 2.027l-0.766 2.221c-0.626 1.911 1.481 4.001 4.242 4.242 2.792-0.065 4.405-1.312 6.58-1.992 2.085-1.154 1.699-1.973 1.692-2.707-0.347-1.018-0.394-1.388-1.149-2.541-0.295-0.312-0.432-0.399-0.822-0.658-0.949-1.051 0.589-1.718 1.748-3.092 0.602-0.854-0.418-1.856-1.602-1.508-0.999 0.326-1.523 0.935-2.541 1.988-0.58 0.639-1.365 2.133-0.289 3.393 0.301 0.579-0.105 0.854-1.132 1.183-0.337 0.084-0.579 0.101-0.844 0.135 0.534-0.89 0.666-1.799 0.547-2.719-0.228-0.967-0.624-1.893-0.641-2.914 0.327-3.909 2.674-3.371 4.531-3.672 0.882-0.03 2.775-2.126-1.283-2.863-1.273-0.2279-2.531-0.1343-2.316-0.9725 0.183-0.7297 0.678-1.1872 0.998-1.7519 0.217-0.3595-0.079-0.6408-0.389-0.6387zm8.918 9.9201v0.002c-0.9 0-1.798 0.344-2.484 1.031-1.372 1.373-1.374 3.603 0 4.975 1.373 1.372 3.602 1.367 4.974-0.008 1.372-1.374 1.368-3.603-0.006-4.975-0.686-0.686-1.584-1.026-2.484-1.025zm-23.963 18.506c-0.8281 0-1.4624 0.274-1.9043 0.824-0.4384 0.55-0.6582 1.357-0.6582 2.418v1.398c0.0104 1.02 0.2354 1.802 0.6738 2.348s1.0703 0.82 1.8985 0.82c0.8384 0 1.4752-0.279 1.9101-0.836 0.4349-0.556 0.6519-1.359 0.6519-2.41v-1.398c-0.01-1.02-0.233-1.801-0.6714-2.344-0.4384-0.546-1.0723-0.82-1.9004-0.82zm6.1428 0c-0.741 0-1.327 0.194-1.758 0.58-0.432 0.383-0.648 0.898-0.648 1.545 0 0.369 0.09 0.695 0.271 0.98 0.184 0.285 0.438 0.513 0.762 0.684-0.366 0.174-0.656 0.417-0.871 0.73-0.216 0.313-0.325 0.681-0.325 1.102 0 0.671 0.233 1.203 0.696 1.595 0.462 0.394 1.089 0.592 1.879 0.592 0.789 0 1.413-0.194 1.873-0.584 0.459-0.393 0.689-0.928 0.689-1.603 0-0.421-0.108-0.786-0.324-1.096-0.216-0.313-0.508-0.559-0.877-0.736 0.324-0.171 0.579-0.399 0.764-0.684 0.184-0.285 0.275-0.611 0.275-0.98 0-0.654-0.217-1.172-0.652-1.551-0.432-0.383-1.017-0.574-1.754-0.574zm16.373 0c-0.512 0-0.97 0.111-1.373 0.33-0.404 0.216-0.717 0.514-0.94 0.896-0.219 0.383-0.328 0.805-0.328 1.268h1.514c0-0.383 0.098-0.689 0.293-0.922 0.198-0.237 0.465-0.356 0.806-0.356 0.317 0 0.562 0.097 0.733 0.292 0.17 0.191 0.256 0.457 0.256 0.794 0 0.247-0.083 0.507-0.246 0.782-0.16 0.275-0.409 0.597-0.746 0.965l-2.457 2.621v1.033h5.207v-1.215h-3.266l1.725-1.822c0.474-0.519 0.808-0.972 1.001-1.362 0.195-0.389 0.293-0.772 0.293-1.148 0-0.686-0.215-1.216-0.65-1.592-0.431-0.376-1.039-0.564-1.822-0.564zm-5.125 0.093l-3.147 1.127v1.227l1.801-0.557v5.813h1.508v-7.61h-0.162zm8.439 0.012l1.686 7.598h1.576l1.238-5.082 1.237 5.082h1.576l1.683-7.598h-1.558l-1.026 5.406-1.244-5.406h-1.326l-1.252 5.397-1.029-5.397h-1.561zm-19.687 1.111c0.285 0 0.507 0.091 0.664 0.272 0.156 0.177 0.234 0.413 0.234 0.709 0 0.303-0.078 0.546-0.234 0.73-0.153 0.185-0.373 0.278-0.658 0.278-0.286 0-0.506-0.093-0.662-0.278-0.157-0.184-0.237-0.427-0.237-0.73 0-0.306 0.08-0.547 0.237-0.721 0.156-0.174 0.374-0.259 0.656-0.26zm-6.1428 0.004c0.3653 0 0.6322 0.145 0.8027 0.434 0.174 0.285 0.2617 0.743 0.2617 1.373v1.807c-0.0069 0.595-0.0923 1.035-0.2558 1.324-0.1636 0.289-0.4301 0.434-0.7988 0.434-0.3724 0-0.644-0.15-0.8145-0.45-0.167-0.302-0.25-0.763-0.25-1.383v-1.847c0.0104-0.581 0.0986-1.006 0.2656-1.278 0.1705-0.274 0.4342-0.414 0.7891-0.414zm9.7908 2.622v1.216h2.94v-1.216h-2.94zm-3.652 0.58c0.323 0 0.58 0.098 0.771 0.296 0.192 0.199 0.287 0.463 0.287 0.793 0 0.338-0.093 0.602-0.281 0.793-0.184 0.192-0.44 0.288-0.767 0.288-0.334 0-0.596-0.099-0.784-0.297-0.187-0.199-0.281-0.46-0.281-0.784 0-0.334 0.096-0.598 0.287-0.793 0.192-0.198 0.448-0.296 0.768-0.296z" fill-rule="evenodd" transform="scale(.26458)" stroke-width=".99999" fill="#333"/>
</svg>
