<?xml version="1.0" encoding="UTF-8" standalone="no"?>
<!-- Created with Inkscape (http://www.inkscape.org/) -->
<svg id="svg8" xmlns:rdf="http://www.w3.org/1999/02/22-rdf-syntax-ns#" xmlns="http://www.w3.org/2000/svg" xmlns:osb="http://www.openswatchbook.org/uri/2009/osb" height="48" width="48" version="1.1" xmlns:cc="http://creativecommons.org/ns#" viewBox="0 0 12.7 12.7" xmlns:dc="http://purl.org/dc/elements/1.1/">
 <title id="title4753">UIO-icon</title>
 <metadata id="metadata5">
  <rdf:RDF>
   <cc:Work rdf:about="">
    <dc:format>image/svg+xml</dc:format>
    <dc:type rdf:resource="http://purl.org/dc/dcmitype/StillImage"/>
    <dc:title>UIO-icon</dc:title>
    <dc:creator>
     <cc:Agent>
      <dc:title>Joaquín Urbano</dc:title>
     </cc:Agent>
    </dc:creator>
    <dc:rights>
     <cc:Agent>
      <dc:title>GPL</dc:title>
     </cc:Agent>
    </dc:rights>
   </cc:Work>
  </rdf:RDF>
 </metadata>
 <g id="layer1" transform="translate(0,-284.3)">
  <path id="circle5040" d="m24 4.0098c-7.883-0.0003-14.274 6.3902-14.273 14.273-0.0007 7.883 6.39 14.274 14.273 14.274s14.274-6.391 14.273-14.274c0.001-7.883-6.39-14.274-14.273-14.273zm0 1.959c6.801 0.0004 12.314 5.5132 12.314 12.314 0 6.801-5.513 12.314-12.314 12.315-6.801-0.001-12.314-5.514-12.314-12.315s5.513-12.314 12.314-12.314zm-1.088 0.7011c-0.186 0.0013-0.378 0.1044-0.465 0.3535-0.316 0.702-0.86 1.1957-1.099 2.1895-0.304 1.4321 2.153 1.5541 2.92 1.5511 2.213 0.081 3.01 1.459 0.736 1.664-1.887 0.177-3.828 0.224-4.209 4.107-0.049 0.568 0.213 1.576 0.67 2.858 0.151 0.84-0.099 1.808-0.602 2.857-0.256-0.03-0.445-0.122-0.492-0.334 0.044-0.905 0.227-1.67-0.133-2.98-0.354-1.271-1.22-1.876-2.099-2.032-1.763-0.366-3.327-0.697-4.739-0.228-1.488 0.558-1.012 2.763 0.268 2.791l1.568 0.043c1.087 0.022 1.676 0.5 1.112 2.027l-0.766 2.221c-0.626 1.911 1.481 4.001 4.242 4.242 2.792-0.065 4.405-1.312 6.58-1.992 2.085-1.154 1.699-1.973 1.692-2.707-0.347-1.018-0.394-1.388-1.149-2.541-0.295-0.312-0.432-0.399-0.822-0.658-0.949-1.051 0.589-1.718 1.748-3.092 0.602-0.854-0.418-1.856-1.602-1.508-0.999 0.326-1.523 0.935-2.541 1.988-0.58 0.639-1.365 2.133-0.289 3.393 0.301 0.579-0.105 0.854-1.132 1.183-0.337 0.084-0.579 0.101-0.844 0.135 0.534-0.89 0.666-1.799 0.547-2.719-0.228-0.967-0.624-1.893-0.641-2.914 0.327-3.909 2.674-3.371 4.531-3.672 0.882-0.03 2.775-2.126-1.283-2.863-1.273-0.2281-2.531-0.1343-2.316-0.9725 0.183-0.7298 0.678-1.1872 0.998-1.7519 0.217-0.3595-0.079-0.6408-0.389-0.6387zm8.918 9.9201v0.002c-0.9 0-1.798 0.344-2.484 1.031-1.372 1.373-1.374 3.603 0 4.975 1.373 1.372 3.602 1.367 4.974-0.008 1.372-1.374 1.368-3.603-0.006-4.975-0.686-0.686-1.584-1.026-2.484-1.025zm-27.83 17.41v10h40v-10h-40zm3.8145 1.096c0.7828 0 1.3908 0.188 1.8222 0.564 0.4353 0.376 0.6523 0.906 0.6523 1.592 0 0.376-0.098 0.759-0.2929 1.148-0.1949 0.39-0.5287 0.843-1.002 1.362l-1.7265 1.822h3.2674v1.215h-5.2088v-1.033l2.457-2.62c0.3375-0.368 0.586-0.691 0.7461-0.966 0.1635-0.275 0.2461-0.535 0.2461-0.782 0-0.337-0.0854-0.603-0.2559-0.794-0.1705-0.195-0.4138-0.292-0.7304-0.292-0.341 0-0.6103 0.119-0.8086 0.356-0.1949 0.233-0.293 0.539-0.293 0.922h-1.5137c0-0.463 0.1089-0.885 0.3282-1.268 0.2226-0.382 0.5358-0.68 0.9394-0.896 0.4036-0.219 0.8616-0.33 1.3731-0.33zm16.432 0c0.783 0 1.389 0.188 1.82 0.564 0.435 0.376 0.653 0.906 0.653 1.592 0 0.376-0.096 0.759-0.291 1.148-0.195 0.39-0.529 0.843-1.002 1.362l-1.729 1.822h3.268v1.215h-5.209v-1.033l2.459-2.62c0.337-0.368 0.586-0.691 0.746-0.966 0.163-0.275 0.244-0.535 0.244-0.782 0-0.337-0.085-0.603-0.256-0.794-0.17-0.195-0.414-0.292-0.73-0.292-0.341 0-0.611 0.119-0.809 0.356-0.195 0.233-0.293 0.539-0.293 0.922h-1.513c0-0.463 0.11-0.885 0.33-1.268 0.222-0.382 0.535-0.68 0.939-0.896 0.404-0.219 0.862-0.33 1.373-0.33zm7.488 0.027h0.252v1.242h-0.146c-0.682 0.011-1.233 0.187-1.651 0.531-0.414 0.345-0.662 0.824-0.746 1.436 0.404-0.411 0.914-0.615 1.53-0.615 0.661 0 1.186 0.236 1.576 0.709s0.586 1.096 0.586 1.869c0 0.494-0.109 0.942-0.324 1.342-0.213 0.4-0.515 0.711-0.909 0.933-0.389 0.223-0.832 0.334-1.326 0.334-0.8 0-1.447-0.279-1.941-0.836-0.491-0.556-0.737-1.299-0.737-2.228v-0.543c0-0.825 0.156-1.552 0.465-2.182 0.313-0.633 0.761-1.122 1.342-1.467 0.585-0.348 1.26-0.521 2.029-0.525zm-17.332 0.078h1.524v4.738h0.861v1.217h-0.861v1.643h-1.508v-1.643h-3.117l-0.067-0.951 3.168-5.004zm19.295 0h1.561l1.029 5.397 1.252-5.397h1.326l1.246 5.406 1.024-5.406h1.56l-1.685 7.598h-1.576l-1.237-5.082-1.238 5.082h-1.576l-1.686-7.598zm-19.279 2.055l-0.1 0.174-1.582 2.509h1.682v-2.683zm16.096 1.672c-0.244 0-0.464 0.062-0.662 0.191-0.199 0.125-0.346 0.293-0.44 0.502v0.459c0 0.505 0.099 0.9 0.297 1.186 0.198 0.281 0.478 0.422 0.836 0.422 0.324 0 0.585-0.127 0.783-0.381 0.202-0.258 0.303-0.589 0.303-0.996 0-0.415-0.101-0.748-0.303-1.002s-0.473-0.381-0.814-0.381zm-12.856 0.01h2.94v1.216h-2.94v-1.216z" fill-rule="evenodd" transform="matrix(.26458 0 0 .26458 0 284.3)" fill="#333"/>
 </g>
</svg>
