<?xml version="1.0" encoding="UTF-8" standalone="no"?>
<!-- Created with Inkscape (http://www.inkscape.org/) -->
<svg id="svg8" xmlns:rdf="http://www.w3.org/1999/02/22-rdf-syntax-ns#" xmlns="http://www.w3.org/2000/svg" xmlns:osb="http://www.openswatchbook.org/uri/2009/osb" height="48" width="48" version="1.1" xmlns:cc="http://creativecommons.org/ns#" viewBox="0 0 12.7 12.7" xmlns:dc="http://purl.org/dc/elements/1.1/">
 <title id="title4753">UIO-icon</title>
 <metadata id="metadata5">
  <rdf:RDF>
   <cc:Work rdf:about="">
    <dc:format>image/svg+xml</dc:format>
    <dc:type rdf:resource="http://purl.org/dc/dcmitype/StillImage"/>
    <dc:title>UIO-icon</dc:title>
    <dc:creator>
     <cc:Agent>
      <dc:title>Joaquín Urbano</dc:title>
     </cc:Agent>
    </dc:creator>
    <dc:rights>
     <cc:Agent>
      <dc:title>GPL</dc:title>
     </cc:Agent>
    </dc:rights>
   </cc:Work>
  </rdf:RDF>
 </metadata>
 <g id="layer1" transform="translate(0,-284.3)">
  <path id="path4800" d="m24 4.0547c-2.422 0-4.385 1.9631-4.385 4.3848 0 2.4215 1.963 4.3845 4.385 4.3845s4.387-1.963 4.387-4.3845c0-2.4217-1.965-4.3848-4.387-4.3848zm0 0.6933c2.039 0.0002 3.693 1.6542 3.693 3.6934 0 2.0396-1.654 3.6916-3.693 3.6916-2.04 0.001-3.695-1.652-3.695-3.6916 0-2.0401 1.655-3.6945 3.695-3.6934zm-0.436 9.156l-3.992 0.002v0.012c-0.717 0.015-1.403 0.41-1.74 1.102l-4.848 9.929c-0.479 0.983-0.072 2.159 0.911 2.639 0.982 0.48 2.159 0.077 2.638-0.906l3.039-6.229c0.074 4.242-2.466 6.013-2.777 12.609h2.777v8.911c0 1.093 0.879 1.974 1.973 1.974s1.975-0.881 1.975-1.974v-8.911h0.951v8.911c0 1.093 0.881 1.974 1.974 1.974 1.094 0 1.975-0.881 1.975-1.974v-8.911h2.783c-0.276-6.576-2.783-7.908-2.783-12.623l3.047 6.243c0.479 0.983 1.657 1.386 2.64 0.906s1.386-1.656 0.907-2.639l-4.846-9.931c-0.339-0.695-1.027-1.095-1.748-1.104v-0.008h-3.994l-0.862-0.002zm4.784 0.723l0.002 0.016c0.47 0.012 0.919 0.267 1.142 0.72l1.037 2.102c0.013 0.022 0.032 0.034 0.043 0.056l3.832 7.764c0.321 0.651 0.057 1.433-0.593 1.754-0.651 0.321-1.433 0.057-1.754-0.594l-1.041-2.105c-0.012-0.019-0.031-0.034-0.041-0.057l-3.221-6.523c-0.349 8.048 2.106 7.221 2.707 14.609h-2.707v0.865 1.073 2.611 4.975c0 0.362-0.144 0.69-0.381 0.927-0.237 0.236-0.566 0.381-0.928 0.381-0.363 0-0.691-0.144-0.927-0.381-0.237-0.236-0.385-0.565-0.385-0.927v-4.975-2.611-1.073-0.865h-2.278v0.865 1.073 2.611 4.975c0 0.725-0.586 1.308-1.312 1.308s-1.309-0.583-1.309-1.308v-4.975-2.611-1.073-0.865l-2.666 0.008c0.42-6.511 3.225-7.81 2.666-14.664l-3.242 6.566c-0.011 0.023-0.029 0.038-0.041 0.057l-1.041 2.105c-0.321 0.651-1.103 0.915-1.754 0.594-0.65-0.321-0.915-1.103-0.594-1.754l3.833-7.763c0.01-0.023 0.03-0.034 0.043-0.057l1.037-2.102c0.241-0.488 0.742-0.76 1.252-0.73l8.621-0.002zm-4.348 7.748a4.9944 4.9944 0 0 0 -4.994 4.994 4.9944 4.9944 0 0 0 4.994 4.994 4.9944 4.9944 0 0 0 4.994 -4.994 4.9944 4.9944 0 0 0 -4.994 -4.994zm0 0.684a4.3094 4.3094 0 0 1 4.309 4.31 4.3094 4.3094 0 0 1 -4.309 4.309 4.3094 4.3094 0 0 1 -4.309 -4.309 4.3094 4.3094 0 0 1 4.309 -4.31zm-0.318 0.257c-0.08-0.03-0.184-0.004-0.225 0.112v0.002c-0.111 0.245-0.301 0.418-0.385 0.765-0.106 0.502 0.754 0.544 1.022 0.543 0.774 0.027 1.053 0.511 0.258 0.582-0.661 0.062-1.34 0.079-1.473 1.438-0.017 0.199 0.075 0.551 0.234 1 0.053 0.294-0.034 0.633-0.211 1-0.089-0.012-0.155-0.043-0.172-0.117 0.016-0.317 0.08-0.585-0.046-1.043-0.124-0.445-0.427-0.657-0.735-0.711-0.617-0.128-1.164-0.244-1.658-0.08-0.521 0.195-0.354 0.967 0.094 0.976l0.549 0.016c0.38 0.007 0.586 0.174 0.388 0.709l-0.267 0.777c-0.219 0.669 0.518 1.4 1.484 1.485 0.977-0.023 1.541-0.46 2.303-0.698 0.729-0.403 0.594-0.69 0.592-0.947-0.122-0.356-0.139-0.485-0.403-0.889-0.103-0.109-0.15-0.139-0.287-0.23-0.332-0.368 0.206-0.601 0.611-1.082 0.211-0.299-0.146-0.649-0.56-0.528-0.35 0.115-0.533 0.327-0.889 0.696-0.203 0.223-0.478 0.746-0.101 1.187 0.105 0.203-0.037 0.299-0.397 0.414-0.117 0.031-0.202 0.034-0.295 0.047 0.187-0.311 0.234-0.629 0.192-0.951-0.08-0.339-0.219-0.662-0.225-1.019 0.115-1.369 0.936-1.18 1.586-1.286 0.309-0.011 0.971-0.744-0.449-1.002-0.446-0.079-0.886-0.046-0.811-0.339 0.064-0.256 0.238-0.416 0.35-0.614 0.061-0.1 0.005-0.182-0.074-0.211v-0.002zm3.058 3.461c-0.315 0-0.629 0.121-0.869 0.362-0.48 0.48-0.48 1.26 0 1.74 0.481 0.48 1.26 0.479 1.74-0.002s0.479-1.26-0.002-1.74c-0.24-0.24-0.554-0.36-0.869-0.36z" fill-rule="evenodd" transform="matrix(.26458 0 0 .26458 0 284.3)" fill="#333"/>
 </g>
</svg>
