<?xml version="1.0" encoding="UTF-8" standalone="no"?>
<!-- Created with Inkscape (http://www.inkscape.org/) -->
<svg id="svg8" xmlns:rdf="http://www.w3.org/1999/02/22-rdf-syntax-ns#" xmlns="http://www.w3.org/2000/svg" xmlns:osb="http://www.openswatchbook.org/uri/2009/osb" height="48" width="48" version="1.1" xmlns:cc="http://creativecommons.org/ns#" viewBox="0 0 12.7 12.7" xmlns:dc="http://purl.org/dc/elements/1.1/">
 <title id="title4753">UIO-icon</title>
 <metadata id="metadata5">
  <rdf:RDF>
   <cc:Work rdf:about="">
    <dc:format>image/svg+xml</dc:format>
    <dc:type rdf:resource="http://purl.org/dc/dcmitype/StillImage"/>
    <dc:title>UIO-icon</dc:title>
    <dc:creator>
     <cc:Agent>
      <dc:title>Joaquín Urbano</dc:title>
     </cc:Agent>
    </dc:creator>
    <dc:rights>
     <cc:Agent>
      <dc:title>GPL</dc:title>
     </cc:Agent>
    </dc:rights>
   </cc:Work>
  </rdf:RDF>
 </metadata>
 <g id="layer1" transform="translate(0,-284.3)">
  <path id="rect5152" d="m0 0v48h48v-48h-48zm24 4.0098c7.883-0.0003 14.274 6.3902 14.273 14.273 0.001 7.883-6.39 14.274-14.273 14.274s-14.274-6.391-14.273-14.274c-0.0007-7.883 6.39-14.274 14.273-14.273zm0 1.959c-6.801 0.0004-12.314 5.5132-12.314 12.314 0 6.801 5.513 12.314 12.314 12.315 6.801-0.001 12.314-5.514 12.314-12.315s-5.513-12.314-12.314-12.314zm-1.088 0.7011c0.31-0.0021 0.606 0.2792 0.389 0.6387-0.32 0.5647-0.815 1.0221-0.998 1.7519-0.215 0.8382 1.043 0.7444 2.316 0.9725 4.058 0.737 2.165 2.833 1.283 2.863-1.857 0.301-4.204-0.237-4.531 3.672 0.017 1.021 0.413 1.947 0.641 2.914 0.119 0.92-0.013 1.829-0.547 2.719 0.265-0.034 0.507-0.051 0.844-0.135 1.027-0.329 1.433-0.604 1.132-1.183-1.076-1.26-0.291-2.754 0.289-3.393 1.018-1.053 1.542-1.662 2.541-1.988 1.184-0.348 2.204 0.654 1.602 1.508-1.159 1.374-2.697 2.041-1.748 3.092 0.39 0.259 0.527 0.346 0.822 0.658 0.755 1.153 0.802 1.523 1.149 2.541 0.007 0.734 0.393 1.553-1.692 2.707-2.175 0.68-3.788 1.927-6.58 1.992-2.761-0.241-4.868-2.331-4.242-4.242l0.766-2.221c0.564-1.527-0.025-2.005-1.112-2.027l-1.568-0.043c-1.28-0.028-1.756-2.233-0.268-2.791 1.412-0.469 2.976-0.138 4.739 0.228 0.879 0.156 1.745 0.761 2.099 2.032 0.36 1.31 0.177 2.075 0.133 2.98 0.047 0.212 0.236 0.304 0.492 0.334 0.503-1.049 0.753-2.017 0.602-2.857-0.457-1.282-0.719-2.29-0.67-2.858 0.381-3.883 2.322-3.93 4.209-4.107 2.274-0.205 1.477-1.583-0.736-1.664-0.767 0.003-3.224-0.119-2.92-1.5511 0.239-0.9938 0.783-1.4875 1.099-2.1895 0.087-0.2491 0.279-0.3522 0.465-0.3535zm8.918 9.9201c0.9-0.001 1.798 0.339 2.484 1.025 1.374 1.372 1.378 3.601 0.006 4.975-1.372 1.375-3.601 1.38-4.974 0.008-1.374-1.372-1.372-3.602 0-4.975 0.686-0.687 1.584-1.031 2.484-1.031v-0.002zm-27.83 17.41h40v10h-40v-10zm12.021 1.096c-0.462 0-0.887 0.088-1.273 0.265-0.383 0.178-0.681 0.426-0.896 0.743-0.213 0.313-0.319 0.667-0.319 1.064h1.508c0-0.254 0.098-0.459 0.293-0.615 0.195-0.16 0.436-0.241 0.725-0.241 0.32 0 0.571 0.086 0.752 0.256 0.184 0.171 0.277 0.409 0.277 0.715 0 0.317-0.093 0.571-0.277 0.762-0.185 0.191-0.469 0.287-0.852 0.287h-0.803v1.18h0.799c0.835 0 1.252 0.378 1.252 1.136 0 0.314-0.103 0.567-0.309 0.758-0.201 0.188-0.481 0.282-0.839 0.282-0.314 0-0.578-0.091-0.793-0.272-0.213-0.181-0.319-0.414-0.319-0.699h-1.508c0 0.657 0.239 1.186 0.719 1.586 0.484 0.4 1.105 0.601 1.863 0.601 0.811 0 1.463-0.204 1.954-0.611 0.494-0.407 0.74-0.948 0.74-1.623 0-0.418-0.106-0.78-0.319-1.086-0.208-0.306-0.527-0.536-0.955-0.689 0.345-0.157 0.624-0.38 0.836-0.672 0.213-0.293 0.319-0.613 0.319-0.961 0-0.675-0.228-1.203-0.684-1.586-0.456-0.386-1.087-0.58-1.891-0.58zm6.227 0c-0.511 0-0.967 0.109-1.371 0.328-0.404 0.216-0.717 0.516-0.939 0.898-0.22 0.383-0.331 0.805-0.331 1.268h1.514c0-0.383 0.098-0.691 0.293-0.924 0.198-0.237 0.468-0.354 0.809-0.354 0.316 0 0.56 0.097 0.73 0.292 0.171 0.191 0.256 0.455 0.256 0.792 0 0.248-0.081 0.509-0.244 0.784-0.16 0.275-0.411 0.598-0.748 0.966l-2.457 2.62v1.033h5.209v-1.215h-3.268l1.727-1.822c0.473-0.519 0.807-0.972 1.002-1.362 0.195-0.389 0.293-0.772 0.293-1.148 0-0.686-0.218-1.216-0.653-1.592-0.431-0.376-1.039-0.564-1.822-0.564zm3.314 0.103l1.686 7.6h1.578l1.236-5.084 1.237 5.084h1.576l1.686-7.6h-1.561l-1.021 5.408-1.249-5.408h-1.326l-1.252 5.399-1.029-5.399h-1.561z" fill-rule="evenodd" transform="matrix(.26458 0 0 .26458 0 284.3)" fill="#333"/>
 </g>
</svg>
