<?xml version="1.0" encoding="UTF-8" standalone="no"?>
<!-- Created with Inkscape (http://www.inkscape.org/) -->
<svg id="svg8" xmlns:rdf="http://www.w3.org/1999/02/22-rdf-syntax-ns#" xmlns="http://www.w3.org/2000/svg" xmlns:osb="http://www.openswatchbook.org/uri/2009/osb" height="48" width="48" version="1.1" xmlns:cc="http://creativecommons.org/ns#" viewBox="0 0 12.7 12.7" xmlns:dc="http://purl.org/dc/elements/1.1/">
 <title id="title4753">UIO-icon</title>
 <metadata id="metadata5">
  <rdf:RDF>
   <cc:Work rdf:about="">
    <dc:format>image/svg+xml</dc:format>
    <dc:type rdf:resource="http://purl.org/dc/dcmitype/StillImage"/>
    <dc:title>UIO-icon</dc:title>
    <dc:creator>
     <cc:Agent>
      <dc:title>Joaquín Urbano</dc:title>
     </cc:Agent>
    </dc:creator>
    <dc:rights>
     <cc:Agent>
      <dc:title>GPL</dc:title>
     </cc:Agent>
    </dc:rights>
   </cc:Work>
  </rdf:RDF>
 </metadata>
 <g id="layer1" transform="translate(0,-284.3)">
  <path id="rect5152" d="m0 0v48h48v-48h-48zm24 4.0098c7.883-0.0003 14.274 6.3902 14.273 14.273 0.001 7.883-6.39 14.274-14.273 14.274s-14.274-6.391-14.273-14.274c-0.0007-7.883 6.39-14.274 14.273-14.273zm0 1.959c-6.801 0.0004-12.314 5.5132-12.314 12.314 0 6.801 5.513 12.314 12.314 12.315 6.801-0.001 12.314-5.514 12.314-12.315s-5.513-12.314-12.314-12.314zm-1.088 0.7011c0.31-0.0021 0.606 0.2792 0.389 0.6387-0.32 0.5647-0.815 1.0221-0.998 1.7519-0.215 0.8382 1.043 0.7444 2.316 0.9725 4.058 0.737 2.165 2.833 1.283 2.863-1.857 0.301-4.204-0.237-4.531 3.672 0.017 1.021 0.413 1.947 0.641 2.914 0.119 0.92-0.013 1.829-0.547 2.719 0.265-0.034 0.507-0.051 0.844-0.135 1.027-0.329 1.433-0.604 1.132-1.183-1.076-1.26-0.291-2.754 0.289-3.393 1.018-1.053 1.542-1.662 2.541-1.988 1.184-0.348 2.204 0.654 1.602 1.508-1.159 1.374-2.697 2.041-1.748 3.092 0.39 0.259 0.527 0.346 0.822 0.658 0.755 1.153 0.802 1.523 1.149 2.541 0.007 0.734 0.393 1.553-1.692 2.707-2.175 0.68-3.788 1.927-6.58 1.992-2.761-0.241-4.868-2.331-4.242-4.242l0.766-2.221c0.564-1.527-0.025-2.005-1.112-2.027l-1.568-0.043c-1.28-0.028-1.756-2.233-0.268-2.791 1.412-0.469 2.976-0.138 4.739 0.228 0.879 0.156 1.745 0.761 2.099 2.032 0.36 1.31 0.177 2.075 0.133 2.98 0.047 0.212 0.236 0.304 0.492 0.334 0.503-1.049 0.753-2.017 0.602-2.857-0.457-1.282-0.719-2.29-0.67-2.858 0.381-3.883 2.322-3.93 4.209-4.107 2.274-0.205 1.477-1.583-0.736-1.664-0.767 0.003-3.224-0.119-2.92-1.5511 0.239-0.9938 0.783-1.4875 1.099-2.1895 0.087-0.2491 0.279-0.3522 0.465-0.3535zm8.918 9.9201c0.9-0.001 1.798 0.339 2.484 1.025 1.374 1.372 1.378 3.601 0.006 4.975-1.372 1.375-3.601 1.38-4.974 0.008-1.374-1.372-1.372-3.602 0-4.975 0.686-0.687 1.584-1.031 2.484-1.031v-0.002zm-27.83 17.41h40v10h-40v-10zm3.7266 1.096c-0.4628 0-0.8872 0.088-1.2735 0.265-0.3827 0.178-0.6827 0.426-0.8984 0.743-0.2123 0.313-0.3184 0.667-0.3184 1.064h1.5078c0-0.254 0.0982-0.459 0.293-0.615 0.1949-0.16 0.4378-0.241 0.7266-0.241 0.3201 0 0.569 0.086 0.75 0.256 0.1844 0.171 0.2773 0.409 0.2773 0.715 0 0.317-0.0929 0.571-0.2773 0.762s-0.4669 0.287-0.8496 0.287h-0.8047v1.18h0.7988c0.8351 0 1.252 0.378 1.252 1.136 0 0.314-0.1014 0.567-0.3067 0.758-0.2018 0.188-0.4814 0.282-0.8398 0.282-0.3132 0-0.5792-0.091-0.7949-0.272-0.2123-0.181-0.3184-0.414-0.3184-0.699h-1.5078c0 0.657 0.2405 1.186 0.7207 1.586 0.4836 0.4 1.1047 0.601 1.8633 0.601 0.8107 0 1.4605-0.204 1.9511-0.611 0.4943-0.407 0.7423-0.948 0.7423-1.623 0-0.418-0.106-0.78-0.318-1.086-0.2092-0.306-0.5275-0.536-0.9555-0.689 0.3445-0.157 0.6217-0.38 0.834-0.672 0.2125-0.293 0.3185-0.613 0.3185-0.961 0-0.675-0.228-1.203-0.6838-1.586-0.4558-0.386-1.0849-0.58-1.8886-0.58zm16.429 0c-0.463 0-0.887 0.088-1.273 0.265-0.383 0.178-0.683 0.426-0.899 0.743-0.212 0.313-0.318 0.667-0.318 1.064h1.51c0-0.254 0.096-0.459 0.291-0.615 0.195-0.16 0.438-0.241 0.726-0.241 0.32 0 0.571 0.086 0.752 0.256 0.185 0.171 0.276 0.409 0.276 0.715 0 0.317-0.091 0.571-0.276 0.762-0.184 0.191-0.469 0.287-0.851 0.287h-0.803v1.18h0.797c0.835 0 1.254 0.378 1.254 1.136 0 0.314-0.104 0.567-0.309 0.758-0.202 0.188-0.481 0.282-0.84 0.282-0.313 0-0.577-0.091-0.793-0.272-0.212-0.181-0.318-0.414-0.318-0.699h-1.51c0 0.657 0.241 1.186 0.721 1.586 0.484 0.4 1.105 0.601 1.863 0.601 0.811 0 1.463-0.204 1.953-0.611 0.494-0.407 0.741-0.948 0.741-1.623 0-0.418-0.106-0.78-0.319-1.086-0.209-0.306-0.527-0.536-0.955-0.689 0.345-0.157 0.624-0.38 0.836-0.672 0.212-0.293 0.318-0.613 0.318-0.961 0-0.675-0.227-1.203-0.683-1.586-0.456-0.386-1.087-0.58-1.891-0.58zm6.285 0c-0.741 0-1.328 0.194-1.759 0.58-0.432 0.383-0.647 0.898-0.647 1.545 0 0.369 0.091 0.695 0.272 0.98 0.184 0.285 0.438 0.513 0.761 0.684-0.365 0.174-0.655 0.417-0.871 0.73-0.215 0.313-0.324 0.681-0.324 1.102 0 0.671 0.231 1.204 0.693 1.597 0.463 0.394 1.089 0.59 1.879 0.59s1.416-0.196 1.875-0.586c0.46-0.393 0.688-0.926 0.688-1.601 0-0.421-0.107-0.786-0.322-1.096-0.216-0.313-0.509-0.559-0.877-0.736 0.323-0.171 0.577-0.399 0.761-0.684 0.185-0.285 0.278-0.611 0.278-0.98 0-0.654-0.22-1.172-0.655-1.551-0.431-0.383-1.014-0.574-1.752-0.574zm-15.136 0.025c-0.769 0.004-1.447 0.179-2.032 0.527-0.581 0.345-1.026 0.834-1.339 1.467-0.31 0.63-0.465 1.357-0.465 2.182v0.543c0 0.929 0.245 1.672 0.736 2.228 0.494 0.557 1.141 0.836 1.941 0.836 0.495 0 0.935-0.111 1.325-0.334 0.393-0.222 0.696-0.535 0.908-0.935 0.216-0.4 0.324-0.846 0.324-1.34 0-0.773-0.194-1.396-0.584-1.869s-0.915-0.711-1.576-0.711c-0.616 0-1.126 0.206-1.529 0.617 0.083-0.612 0.332-1.091 0.746-1.436 0.417-0.344 0.966-0.522 1.648-0.533h0.147v-1.242h-0.25zm18.392 0.078l1.686 7.6h1.576l1.238-5.084 1.237 5.084h1.576l1.685-7.6h-1.56l-1.024 5.408-1.246-5.408h-1.326l-1.252 5.399-1.029-5.399h-1.561zm-3.256 1.113c0.286 0 0.506 0.091 0.663 0.272 0.156 0.177 0.234 0.413 0.234 0.709 0 0.303-0.078 0.546-0.234 0.73-0.154 0.185-0.373 0.278-0.659 0.278-0.285 0-0.505-0.093-0.662-0.278-0.156-0.184-0.234-0.427-0.234-0.73 0-0.306 0.078-0.547 0.234-0.721 0.157-0.174 0.377-0.26 0.658-0.26zm-16.357 2.614c0.341 0 0.613 0.129 0.814 0.383 0.202 0.254 0.303 0.587 0.303 1.002 0 0.407-0.101 0.738-0.303 0.996-0.198 0.254-0.459 0.381-0.783 0.381-0.358 0-0.637-0.141-0.836-0.422-0.198-0.286-0.297-0.681-0.297-1.186v-0.459c0.094-0.209 0.24-0.377 0.438-0.502 0.198-0.129 0.42-0.193 0.664-0.193zm3.574 0.012v1.214h2.94v-1.214h-2.94zm12.778 0.578c0.323 0 0.58 0.1 0.771 0.298 0.191 0.199 0.287 0.463 0.287 0.793 0 0.338-0.093 0.602-0.281 0.793-0.185 0.192-0.441 0.288-0.768 0.288-0.334 0-0.595-0.099-0.783-0.297-0.188-0.199-0.281-0.46-0.281-0.784 0-0.334 0.096-0.598 0.287-0.793 0.191-0.198 0.447-0.298 0.768-0.298z" fill-rule="evenodd" transform="matrix(.26458 0 0 .26458 0 284.3)" fill="#333"/>
 </g>
</svg>
