<?xml version="1.0" encoding="UTF-8" standalone="no"?>
<!-- Created with Inkscape (http://www.inkscape.org/) -->
<svg id="svg8" xmlns:rdf="http://www.w3.org/1999/02/22-rdf-syntax-ns#" xmlns="http://www.w3.org/2000/svg" height="48" viewBox="0 0 12.7 12.7" width="48" version="1.1" xmlns:cc="http://creativecommons.org/ns#" xmlns:dc="http://purl.org/dc/elements/1.1/">
 <title id="title4753">UIO-icon</title>
 <metadata id="metadata5">
  <rdf:RDF>
   <cc:Work rdf:about="">
    <dc:format>image/svg+xml</dc:format>
    <dc:type rdf:resource="http://purl.org/dc/dcmitype/StillImage"/>
    <dc:title>UIO-icon</dc:title>
    <dc:creator>
     <cc:Agent>
      <dc:title>Joaquín Urbano</dc:title>
     </cc:Agent>
    </dc:creator>
    <dc:rights>
     <cc:Agent>
      <dc:title>GPL</dc:title>
     </cc:Agent>
    </dc:rights>
   </cc:Work>
  </rdf:RDF>
 </metadata>
 <path id="circle5040" d="m24 4.0098c-7.883 0-14.273 6.3912-14.273 14.273-0.001 7.883 6.39 14.274 14.273 14.274s14.274-6.391 14.273-14.274c0-7.882-6.39-14.273-14.273-14.273zm-0.004 0.5078c7.597-0.0011 13.756 6.1604 13.756 13.759 0.001 7.6-6.159 13.761-13.756 13.76-7.596 0-13.754-6.16-13.754-13.76 0-7.598 6.158-13.759 13.754-13.759zm-1.084 2.1523c-0.186 0.0013-0.378 0.1044-0.465 0.3535-0.316 0.702-0.86 1.1957-1.099 2.1895-0.304 1.4321 2.153 1.5541 2.92 1.5511 2.213 0.081 3.01 1.459 0.736 1.664-1.887 0.177-3.828 0.224-4.209 4.107-0.049 0.568 0.213 1.576 0.67 2.858 0.151 0.84-0.099 1.808-0.602 2.857-0.256-0.03-0.445-0.122-0.492-0.334 0.044-0.905 0.227-1.67-0.133-2.98-0.354-1.271-1.22-1.876-2.099-2.032-1.763-0.366-3.327-0.697-4.739-0.228-1.488 0.558-1.012 2.763 0.268 2.791l1.568 0.043c1.087 0.022 1.676 0.5 1.112 2.027l-0.766 2.221c-0.626 1.911 1.481 4.001 4.242 4.242 2.792-0.065 4.405-1.312 6.58-1.992 2.085-1.154 1.699-1.973 1.692-2.707-0.347-1.018-0.394-1.388-1.149-2.541-0.295-0.312-0.432-0.399-0.822-0.658-0.949-1.051 0.589-1.718 1.748-3.092 0.602-0.854-0.418-1.856-1.602-1.508-0.999 0.326-1.523 0.935-2.541 1.988-0.58 0.639-1.365 2.133-0.289 3.393 0.301 0.579-0.105 0.854-1.132 1.183-0.337 0.084-0.579 0.101-0.844 0.135 0.534-0.89 0.666-1.799 0.547-2.719-0.228-0.967-0.624-1.893-0.641-2.914 0.327-3.909 2.674-3.371 4.531-3.672 0.882-0.03 2.775-2.126-1.283-2.863-1.273-0.2277-2.531-0.1343-2.316-0.9725 0.183-0.7296 0.678-1.1872 0.998-1.7519 0.217-0.3595-0.079-0.6408-0.389-0.6387zm8.918 9.9201v0.002c-0.9 0-1.798 0.344-2.484 1.031-1.372 1.373-1.374 3.603 0 4.975 1.373 1.372 3.602 1.367 4.974-0.008 1.372-1.374 1.368-3.603-0.006-4.975-0.686-0.686-1.584-1.026-2.484-1.025zm-15.809 18.506c-0.462 0-0.887 0.09-1.273 0.267-0.383 0.178-0.681 0.424-0.896 0.741-0.213 0.313-0.319 0.667-0.319 1.064h1.508c0-0.254 0.098-0.459 0.293-0.615 0.195-0.16 0.436-0.241 0.725-0.241 0.32 0 0.571 0.086 0.752 0.256 0.184 0.171 0.277 0.409 0.277 0.715 0 0.317-0.093 0.571-0.277 0.762-0.185 0.191-0.469 0.287-0.852 0.287h-0.803v1.18h0.799c0.835 0 1.252 0.38 1.252 1.138 0 0.314-0.103 0.565-0.309 0.756-0.201 0.188-0.481 0.282-0.839 0.282-0.314 0-0.578-0.091-0.793-0.272-0.213-0.181-0.319-0.414-0.319-0.699h-1.508c0 0.657 0.239 1.188 0.719 1.588 0.484 0.4 1.105 0.599 1.863 0.599 0.811 0 1.463-0.204 1.954-0.611 0.494-0.407 0.74-0.948 0.74-1.623 0-0.418-0.106-0.78-0.319-1.086-0.208-0.306-0.527-0.534-0.955-0.688 0.345-0.156 0.624-0.381 0.836-0.673 0.213-0.293 0.319-0.613 0.319-0.961 0-0.675-0.228-1.203-0.684-1.586-0.456-0.386-1.087-0.58-1.891-0.58zm6.227 0c-0.511 0-0.967 0.111-1.371 0.33-0.404 0.216-0.718 0.514-0.939 0.896-0.22 0.383-0.331 0.807-0.331 1.27h1.514c0-0.383 0.098-0.691 0.293-0.924 0.198-0.237 0.468-0.356 0.809-0.356 0.316 0 0.56 0.099 0.73 0.293 0.171 0.192 0.256 0.456 0.256 0.793 0 0.247-0.081 0.509-0.244 0.784-0.16 0.275-0.411 0.595-0.748 0.963l-2.457 2.621v1.035h5.209v-1.217h-3.268l1.727-1.822c0.473-0.519 0.807-0.972 1.002-1.362 0.195-0.389 0.293-0.772 0.293-1.148 0-0.686-0.218-1.216-0.653-1.592-0.431-0.376-1.039-0.564-1.822-0.564zm3.314 0.105l1.686 7.6h1.578l1.236-5.084 1.237 5.084h1.576l1.686-7.6h-1.561l-1.021 5.406-1.249-5.406h-1.326l-1.252 5.397-1.029-5.397h-1.561z" fill-rule="evenodd" transform="scale(.26458)" stroke-width=".99999" fill="#333"/>
</svg>
