<svg width="48" height="48" viewBox="0 0 48 48" fill="none" xmlns="http://www.w3.org/2000/svg">
<path fill-rule="evenodd" clip-rule="evenodd" d="M24.5742 11C25.9549 11 27.0742 9.88071 27.0742 8.5C27.0742 7.11929 25.9549 6 24.5742 6C23.1935 6 22.0742 7.11929 22.0742 8.5C22.0742 9.88071 23.1935 11 24.5742 11ZM24.5742 13C27.0595 13 29.0742 10.9853 29.0742 8.5C29.0742 6.01472 27.0595 4 24.5742 4C22.0889 4 20.0742 6.01472 20.0742 8.5C20.0742 10.9853 22.0889 13 24.5742 13Z" fill="#333333"/>
<path fill-rule="evenodd" clip-rule="evenodd" d="M20.1537 15.3065C20.4269 15.1874 20.933 15 21.5742 15H23.5742C24.1452 15 24.6017 15.1643 24.7249 15.2086L24.7329 15.2115C24.9332 15.2835 25.1187 15.3671 25.2716 15.4416C25.5838 15.5936 25.9255 15.7884 26.2751 16.0088C26.981 16.4536 27.8433 17.0806 28.7436 17.8729C30.5212 19.4371 32.6272 21.8048 33.8596 24.8858C34.6428 26.8438 34.5874 28.7332 33.8588 30.3777C33.1772 31.9159 32.0233 32.9814 31.0412 33.675C27.9913 35.829 27.8482 37.2291 27.0723 41.1087C27.0151 42.7152 25.6947 44 24.0742 44C22.4174 44 21.0742 42.6569 21.0742 41C21.0742 35.8673 21.0719 32.8134 20.84 29.9253C19.5347 30.8767 17.7008 30.6238 16.7039 29.3389C16.461 29.0258 15.7885 28.0796 15.1879 27.1692C14.8837 26.7081 14.5632 26.2037 14.3089 25.7575C14.1843 25.539 14.0468 25.2842 13.9315 25.028C13.8741 24.9005 13.8017 24.7275 13.7387 24.529C13.6896 24.3742 13.5742 23.9883 13.5742 23.5C13.5742 22.7844 13.8349 22.228 13.8917 22.1067L13.8924 22.1053L13.8931 22.1038L13.8949 22.1C13.9896 21.8945 14.0953 21.7097 14.1792 21.5706C14.3521 21.284 14.5667 20.9715 14.7856 20.6694C15.2311 20.0545 15.8143 19.3184 16.4214 18.6101C17.0219 17.9096 17.7 17.1727 18.3349 16.5859C18.6464 16.298 19.0128 15.9851 19.4 15.7252C19.5942 15.5948 19.851 15.4386 20.1537 15.3065ZM21.5742 17C20.8392 17 20.1996 17.5858 19.6924 18.0547C19.137 18.568 18.5151 19.2407 17.94 19.9117C17.3626 20.5853 16.814 21.2786 16.4051 21.8429C16.1537 22.1899 15.8915 22.546 15.7112 22.9372C15.6297 23.1141 15.5742 23.3039 15.5742 23.5C15.5742 23.9569 15.8278 24.3834 16.0465 24.7673C16.2692 25.158 16.5624 25.6207 16.8574 26.0679C17.4449 26.9585 18.0857 27.8573 18.2841 28.113C18.6227 28.5493 19.2508 28.6286 19.6872 28.2901C20.1236 27.9516 20.2029 27.3234 19.8643 26.887C19.7105 26.6888 19.1013 25.8375 18.5269 24.9666C18.3295 24.6674 18.1434 24.3766 17.9852 24.1169L17.6388 23.5483L18.0297 23.0094C18.4015 22.4968 18.9133 21.8493 19.4585 21.2133C19.5812 21.0701 19.7042 20.9291 19.8263 20.7919L21.1641 19.2881L21.5545 21.2625C23.0663 28.9082 23.0742 31.4231 23.0742 41C23.0742 41.5523 23.5219 42 24.0742 42C24.6954 42 25.0742 41.479 25.0742 40.901C25.8904 36.8201 26.3693 34.5261 29.8875 32.0413C30.7027 31.4656 31.5478 30.6563 32.0302 29.5674C32.5283 28.4433 32.5973 27.115 32.0027 25.6286C30.9252 22.935 29.0566 20.8124 27.4223 19.3743C26.6014 18.6519 25.8244 18.0887 25.2089 17.7008C24.8444 17.4711 24.4646 17.2402 24.0569 17.0938C23.902 17.0381 23.7396 17 23.5742 17H21.5742Z" fill="#333333"/>
</svg>
