<svg width="48" height="48" viewBox="0 0 48 48" fill="none" xmlns="http://www.w3.org/2000/svg">
<path fill-rule="evenodd" clip-rule="evenodd" d="M48 0H0V48H48V0ZM24 8C21.9711 8 20.1186 8.75527 18.7084 10H29.2916C27.8814 8.75527 26.0289 8 24 8ZM16.252 14C16.4347 13.2905 16.7122 12.619 17.0703 12H30.9297C31.2878 12.619 31.5653 13.2905 31.748 14H16.252ZM16 16C16 20.42 19.58 24 24 24C28.42 24 32 20.42 32 16H16ZM8 36C8 35.6556 8.04467 35.3223 8.12969 35H11.4346L9.71326 35.4612L10.9294 40H8V36ZM13 40L11.665 35.0179L11.6602 35H11.7317L17.1763 33.5411C18.5099 33.1838 19.8808 33.9752 20.2381 35.3089C20.5955 36.6426 19.804 38.0134 18.4704 38.3708L15 39.3006V40L13 40ZM9.26057 33H15V32H33V33H38.7394C38.0669 32.249 37.1619 31.5822 36.1151 31H11.8849C10.8381 31.5822 9.93309 32.249 9.26057 33ZM24 28C25.8849 28 28.4327 28.3339 30.9405 29H17.0595C19.5673 28.3339 22.1151 28 24 28ZM39.8703 35H35.6463L30.5971 33.6471C29.2635 33.2897 27.8926 34.0812 27.5353 35.4149C27.1779 36.7485 27.9694 38.1194 29.303 38.4767L33 39.4673V40L34.9882 40L35 40L36.2933 35.1734L36.3063 35.125L38.2381 35.6426L37.0705 40L40 40V36C40 35.6556 39.9553 35.3223 39.8703 35Z" fill="#333333"/>
</svg>
