<svg width="48" height="48" viewBox="0 0 48 48" fill="none" xmlns="http://www.w3.org/2000/svg">
<path d="M18.7084 10C20.1186 8.75527 21.9711 8 24 8C26.0289 8 27.8814 8.75527 29.2916 10H18.7084Z" fill="#333333"/>
<path d="M17.0703 12C16.7122 12.619 16.4347 13.2905 16.252 14H31.748C31.5653 13.2905 31.2878 12.619 30.9297 12H17.0703Z" fill="#333333"/>
<path d="M16 16C16 20.42 19.58 24 24 24C28.42 24 32 20.42 32 16H16Z" fill="#333333"/>
<path d="M8.12969 35C8.04467 35.3223 8 35.6556 8 36V40H10.9294L9.71326 35.4612L11.4346 35H8.12969Z" fill="#333333"/>
<path d="M13 40L11.665 35.0179L11.6602 35H11.7317L17.1763 33.5411C18.5099 33.1838 19.8808 33.9752 20.2381 35.3089C20.5955 36.6426 19.804 38.0134 18.4704 38.3708L15 39.3006V40L13 40Z" fill="#333333"/>
<path d="M15 33H9.26057C9.93309 32.249 10.8381 31.5822 11.8849 31H36.1151C37.1619 31.5822 38.0669 32.249 38.7394 33H33V32H15V33Z" fill="#333333"/>
<path d="M24 28C25.8849 28 28.4327 28.3339 30.9405 29H17.0595C19.5673 28.3339 22.1151 28 24 28Z" fill="#333333"/>
<path d="M35.6463 35H39.8703C39.9553 35.3223 40 35.6556 40 36V40L37.0705 40L38.2381 35.6426L36.3063 35.125L36.2933 35.1734L35 40L34.9882 40L33 40V39.4673L29.303 38.4767C27.9694 38.1194 27.1779 36.7485 27.5353 35.4149C27.8926 34.0812 29.2635 33.2897 30.5971 33.6471L35.6463 35Z" fill="#333333"/>
</svg>
