<svg width="48" height="48" viewBox="0 0 48 48" fill="none" xmlns="http://www.w3.org/2000/svg">
<path fill-rule="evenodd" clip-rule="evenodd" d="M0 0H48V48H0V0ZM42 40V36.0405C42 31.6421 31.0755 28.8704 23.4706 29.0047C16.2579 29.132 6 31.6421 6 36.0405V40V42H8H40H42V40ZM40 38V40H8V38H40ZM37.9506 34H9.96476C10.6998 33.5815 11.6138 33.1796 12.6816 32.812C15.9173 31.6981 20.0724 31.065 23.5059 31.0044C27.0956 30.941 31.5013 31.5703 34.9553 32.7204C36.1327 33.1125 37.1428 33.5466 37.9506 34ZM33 8C33 7.44772 32.5523 7 32 7C31.1767 7 30.1624 6.81378 28.915 6.58477L28.541 6.51624C27.1708 6.26622 25.6007 6 24 6C22.4527 6 20.9151 6.26718 19.5536 6.51634L19.3012 6.56262C18.0055 6.80041 16.9179 7 16 7C15.4477 7 15 7.44772 15 8V18C15 22.9706 19.0294 27 24 27C28.9706 27 33 22.9706 33 18V8ZM24 25C27.866 25 31 21.866 31 18V15.8369C30.2413 15.7658 29.4225 15.6315 28.604 15.4973L28.6039 15.4973C28.4697 15.4753 28.3354 15.4533 28.2014 15.4315C26.8318 15.2094 25.4122 15 24 15C22.6454 15 21.2641 15.2086 19.8942 15.4315L19.586 15.4818L19.586 15.4818C18.7144 15.6245 17.8313 15.769 17 15.8414V18C17 21.866 20.134 25 24 25ZM28.8984 13.5187C29.684 13.647 30.3821 13.7609 31 13.8274V12.4559C30.2413 12.3848 29.4225 12.2505 28.604 12.1163L28.6039 12.1163C28.4697 12.0943 28.3354 12.0723 28.2014 12.0506C26.8318 11.8284 25.4122 11.619 24 11.619C22.6454 11.619 21.2641 11.8276 19.8942 12.0505L19.586 12.1008L19.586 12.1008C18.7144 12.2435 17.8313 12.3881 17 12.4604V13.8333C17.6919 13.7643 18.4614 13.6388 19.316 13.4993L19.316 13.4993L19.5731 13.4574C20.9354 13.2358 22.4639 13 24 13C25.5897 13 27.1512 13.2351 28.5216 13.4573L28.8984 13.5187L28.8984 13.5187Z" fill="#333333"/>
</svg>
