<?xml version="1.0" encoding="UTF-8" standalone="no"?>
<!-- Created with Inkscape (http://www.inkscape.org/) -->
<svg id="svg8" xmlns:rdf="http://www.w3.org/1999/02/22-rdf-syntax-ns#" xmlns="http://www.w3.org/2000/svg" height="48" viewBox="0 0 12.7 12.7" width="48" version="1.1" xmlns:cc="http://creativecommons.org/ns#" xmlns:dc="http://purl.org/dc/elements/1.1/">
 <title id="title4753">UIO-icon</title>
 <metadata id="metadata5">
  <rdf:RDF>
   <cc:Work rdf:about="">
    <dc:format>image/svg+xml</dc:format>
    <dc:type rdf:resource="http://purl.org/dc/dcmitype/StillImage"/>
    <dc:title>UIO-icon</dc:title>
    <dc:creator>
     <cc:Agent>
      <dc:title>Joaquín Urbano</dc:title>
     </cc:Agent>
    </dc:creator>
    <dc:rights>
     <cc:Agent>
      <dc:title>GPL</dc:title>
     </cc:Agent>
    </dc:rights>
   </cc:Work>
  </rdf:RDF>
 </metadata>
 <path id="path5810" d="m23.471 4.9727c-7.0398 0.019491-8.1335 4.1161-8.0742 12.484 0.00878 0.54343 0.022609 1.8203 1.1406 2.0684 0.031019 2.8544 0.59312 4.4879 1.9922 5.4316 2.09 1.3157 3.1271 2.1809 4.9668 2.2383 1.2599 0.00378 2.871-1.135 4.6094-2.2227 1.5631-0.97806 2.3594-3.0259 2.3594-5.0996-0.0005631-0.082031-0.001348-0.16406-0.001953-0.24609 1.1776 0.020092 0.96733-1.3673 1.0703-2.1699 0.039-9.3728-1.147-12.475-8.034-12.483h-0.001953c-0.009913-0.000054331-0.017884 2.3e-8 -0.027344 0zm-0.11133 5.1094c2.26 2.2699 3.8925 4.0739 6.4512 2.7715 0.13851 2.238 0.16984 4.4407 0.13672 6.7168 0 1.8753-0.63336 4.0318-2.0469 4.916-1.572 0.98365-3.2259 2.1971-4.3652 2.1934-1.6637-0.047621-2.946-1.0229-4.8359-2.2129-1.336-0.84-1.666-2.987-1.661-4.872l0.007813-2.9883c0.72482-6.6209 5.8366-1.7816 6.3125-6.5234zm-2.8672 5.8574c-0.43897 0.00011333-0.79482 0.35602-0.79492 0.79492 0.0000982 0.43894 0.35597 0.79481 0.79492 0.79492 0.43897-0.00011333 0.79482-0.35605 0.79492-0.79492-0.00009831-0.43898-0.35597-0.79481-0.79492-0.79492zm5.9688 0c-0.43897 0.00011333-0.79483 0.35602-0.79492 0.79492 0.00009447 0.43894 0.35593 0.79481 0.79492 0.79492 0.43897-0.00011333 0.79482-0.35605 0.79492-0.79492-0.0000982-0.43898-0.35597-0.79481-0.79492-0.79492zm-3.0352 3.668c-0.37814 0.00378-0.67004 0.070578-0.66602 0.14844 0.002 0.080881 0.32239 0.14686 0.7168 0.14648 0.39441 0.00003779 0.71477-0.065607 0.7168-0.14648 0.003201-0.082015-0.31865-0.14844-0.7168-0.14844-0.017008-0.00011332-0.034002-0.00011332-0.050781 0zm2.9551 2.2617c-0.00007554 0.00041567-0.011341 0.001424-0.011719 0.001953 0.00011714 0.00037795 0.011719-0.00041573 0.011719 0zm-0.011719 0.001953c-0.015874-0.053668-1.2268 0.071178-2.7285 0.2832-0.06444 0.007559-0.12896 0.019785-0.19336 0.027344-1.4369 0.2075-2.5416 0.40995-2.5215 0.46094 0.026079 0.052157 1.2485-0.077414 2.7422-0.28906 1.4821-0.21014 2.6733-0.42369 2.7012-0.48242zm3.9434 5.5605c-1.5652 1.4702-4.7178 2.8115-6.8027 2.8438-1.7415-0.001952-3.4298-0.4817-4.9062-1.3496-0.32606-0.1917-0.6408-0.40348-0.94531-0.63086-0.031142-0.023607-0.06287-0.046311-0.09375-0.070312-0.31158-0.23859-0.61118-0.49549-0.89258-0.77539l-0.10938 0.029297c-0.04901 0.017669-0.095699 0.040545-0.14453 0.058594-0.82412 0.30245-1.6304 0.63832-2.4375 0.98828l-0.92188 0.40039h-0.001953c-0.79 0.336-1.58 0.673-2.369 1.01v0.002c-0.45894 0.19269-0.9301 0.38228-1.4121 0.56836-0.0011205 0.00043256-0.0027838-0.0004325-0.0039063 0-0.12171 0.046596-0.2476 0.092068-0.36914 0.13867-0.21365 0.079702-0.42079 0.16123-0.64258 0.23828-0.023051 0.006788-0.03791 0.01838-0.060547 0.025391-0.2467 0.076384-0.46536 0.16676-0.66406 0.26758-0.088937 0.04467-0.1696 0.093803-0.25 0.14258-0.11271 0.069238-0.2158 0.14227-0.3125 0.21875-0.21813 0.17002-0.40468 0.35162-0.55273 0.54883-0.50094 0.66728-0.63942 1.4265-0.67773 2.0938-0.018403 0.26216-0.027344 0.51147-0.027344 0.72266v6.6622h35.572v-6.663c0-0.21787-0.011283-0.47645-0.03125-0.74805-0.009906-0.1617-0.021207-0.3105-0.046875-0.48242-0.0002829-0.001895 0.00028524-0.003966 0-0.005859-0.079708-0.5297-0.25456-1.0844-0.62695-1.5801-0.004044-0.005382-0.009582-0.010262-0.013672-0.015625-0.14421-0.18918-0.32399-0.36534-0.5332-0.5293-0.10067-0.080159-0.21-0.15624-0.32812-0.22852-0.073872-0.044488-0.1475-0.087844-0.22852-0.12891-0.22005-0.11316-0.45649-0.21818-0.73633-0.30078-0.34756-0.12077-0.66925-0.25066-1-0.37695-0.822-0.313-1.615-0.635-2.374-0.964l-1.418-0.615-1.232-0.535h-0.002c-0.795-0.341-1.588-0.669-2.405-0.959zm-15.965 1.4941h3.332c0.79617 0.55915 1.9177 1.2098 3.3184 1.5801h-10.352l0.091797-0.035156c1.2533-0.52697 2.4181-1.0318 3.6094-1.5449zm14.754 0h3.5527l0.0625 0.027344 2.6523 1.1484 0.50977 0.2207 0.4707 0.18359h-10.731c1.3082-0.32135 2.4153-0.88991 3.4824-1.5801zm-21.989 3.16h32.809c0.41748 0.36209 0.71481 0.85711 0.81055 1.5801h-6.78v1.5781h6.8145l0.001953 1.5801h-6.817v1.5801h6.8164l0.001953 1.5801h-34.54l0.0019531-1.5801h6.8164v-1.58h-6.8146l0.0019531-1.5801h6.8125v-1.5781h-6.7228c0.1164-0.568 0.2922-1.119 0.7871-1.58zm10.506 1.3965c-0.52873 0-0.93466 0.17438-1.2168 0.52539-0.27992 0.35101-0.41992 0.86539-0.41992 1.543v0.89258c0.006663 0.65092 0.14977 1.1512 0.42969 1.5 0.27992 0.34878 0.68611 0.52344 1.2148 0.52344 0.53539 0 0.94105-0.17775 1.2188-0.5332 0.27769-0.35545 0.41602-0.86815 0.41602-1.5391v-0.894c-0.006663-0.65092-0.14977-1.1495-0.42969-1.4961-0.27992-0.34879-0.68416-0.52148-1.2129-0.52148zm3.9199 0c-0.52873 0-0.93466 0.17438-1.2168 0.52539-0.27992 0.35101-0.41992 0.86539-0.41992 1.543v0.89258c0.006663 0.65092 0.14977 1.1512 0.42969 1.5 0.27992 0.34878 0.68416 0.52344 1.2129 0.52344 0.5354 0 0.94106-0.17775 1.2188-0.5332 0.2777-0.35545 0.41797-0.86815 0.41797-1.5391v-0.894c-0.006665-0.65092-0.14977-1.1495-0.42969-1.4961-0.27992-0.34879-0.68416-0.52148-1.2129-0.52148zm3.918 0c-0.52873 0-0.93466 0.17438-1.2168 0.52539-0.27992 0.35101-0.41992 0.86539-0.41992 1.543v0.89258c0.006665 0.65092 0.14977 1.1512 0.42969 1.5 0.27992 0.34878 0.68416 0.52344 1.2129 0.52344 0.5354 0 0.94301-0.17775 1.2207-0.5332 0.2777-0.35545 0.41602-0.86815 0.41602-1.5391v-0.894c-0.006665-0.65092-0.14977-1.1495-0.42969-1.4961-0.27992-0.34879-0.68416-0.52148-1.2129-0.52148zm3.918 0c-0.52873 0-0.93271 0.17438-1.2148 0.52539-0.27992 0.35101-0.41992 0.86539-0.41992 1.543v0.89258c0.006664 0.65092 0.14977 1.1512 0.42969 1.5 0.27992 0.34878 0.68416 0.52344 1.2129 0.52344 0.5354 0 0.94105-0.17775 1.2188-0.5332 0.2777-0.35545 0.41797-0.86815 0.41797-1.5391v-0.894c-0.006665-0.65092-0.14977-1.1495-0.42969-1.4961-0.279-0.349-0.685-0.522-1.214-0.522zm-11.756 0.7793c0.23326 0 0.40481 0.091 0.51367 0.27539 0.11108 0.18217 0.16602 0.47485 0.16602 0.87695v1.1523c-0.004441 0.37988-0.057695 0.66327-0.16211 0.84766-0.10441 0.18439-0.27428 0.27539-0.50977 0.27539-0.23771 0-0.41263-0.094101-0.52148-0.28516-0.10663-0.19328-0.16016-0.48737-0.16016-0.88281v-1.1797c0.006663-0.371 0.063287-0.64312 0.16992-0.81641 0.10886-0.1755 0.27731-0.26367 0.50391-0.26367zm3.9199 0c0.23326 0 0.40286 0.091 0.51172 0.27539 0.11108 0.18217 0.16797 0.47485 0.16797 0.87695v1.1523c-0.004443 0.37988-0.05965 0.66327-0.16406 0.84766s-0.27428 0.27539-0.50977 0.27539c-0.23771 0-0.41067-0.094101-0.51953-0.28516-0.10663-0.19328-0.16016-0.48737-0.16016-0.88281v-1.1797c0.006663-0.371 0.063287-0.64312 0.16992-0.81641 0.10886-0.1755 0.27731-0.26367 0.50391-0.26367zm3.918 0c0.23326 0 0.40481 0.091 0.51367 0.27539 0.11108 0.18217 0.16602 0.47485 0.16602 0.87695v1.1523c-0.004443 0.37988-0.05965 0.66327-0.16406 0.84766s-0.27428 0.27539-0.50977 0.27539c-0.23771 0-0.41068-0.094101-0.51953-0.28516-0.10663-0.19328-0.16016-0.48737-0.16016-0.88281v-1.1797c0.006662-0.371 0.063287-0.64312 0.16992-0.81641 0.10886-0.1755 0.27731-0.26367 0.50391-0.26367zm3.918 0c0.23326 0 0.40482 0.091 0.51367 0.27539 0.11108 0.18217 0.16797 0.47485 0.16797 0.87695v1.1523c-0.004443 0.37988-0.059648 0.66327-0.16406 0.84766s-0.27428 0.27539-0.50977 0.27539c-0.23771 0-0.41068-0.094101-0.51953-0.28516-0.107-0.192-0.161-0.486-0.161-0.882v-1.1797c0.006665-0.371 0.063287-0.64312 0.16992-0.81641 0.10886-0.1755 0.27535-0.26367 0.50195-0.26367z" transform="scale(.26458)" fill="#333"/>
</svg>
