<svg width="48" height="48" viewBox="0 0 48 48" fill="none" xmlns="http://www.w3.org/2000/svg">
<g clip-path="url(#clip0)">
<path fill-rule="evenodd" clip-rule="evenodd" d="M-0.0527344 -0.0375977V47.9623H47.9473V-0.0375977H-0.0527344ZM7.99993 7.98975H19.9999V19.9897H8.00031L7.99993 7.98975ZM11.9473 21.029H12.9473V24.0149H11.9473V21.029ZM11.9473 25.029H12.9473V28.0289H11.9473V25.029ZM27.9471 28.0289H39.8942V39.9761H27.9487L27.9471 28.0289ZM11.9473 29.0289H12.9473V32.029H11.9473V29.0289ZM11.9473 33.0288H14.9473V34.0288H11.9473V33.0288ZM15.9471 33.0288H18.9471V34.0288H15.9471V33.0288ZM19.947 33.0288H22.947V34.0288H19.947V33.0288ZM23.9469 33.0288H26.9469V34.0288H23.9475L23.9469 33.0288Z" fill="#333333"/>
</g>
<defs>
<clipPath id="clip0">
<rect width="48" height="48" fill="white"/>
</clipPath>
</defs>
</svg>
