<?xml version="1.0" encoding="UTF-8" standalone="no"?>
<!-- Created with Inkscape (http://www.inkscape.org/) -->
<svg id="svg8" xmlns:rdf="http://www.w3.org/1999/02/22-rdf-syntax-ns#" xmlns="http://www.w3.org/2000/svg" xmlns:osb="http://www.openswatchbook.org/uri/2009/osb" height="48" width="48" version="1.1" xmlns:cc="http://creativecommons.org/ns#" viewBox="0 0 12.7 12.7" xmlns:dc="http://purl.org/dc/elements/1.1/">
 <title id="title4753">UIO-icon</title>
 <metadata id="metadata5">
  <rdf:RDF>
   <cc:Work rdf:about="">
    <dc:format>image/svg+xml</dc:format>
    <dc:type rdf:resource="http://purl.org/dc/dcmitype/StillImage"/>
    <dc:title>UIO-icon</dc:title>
    <dc:creator>
     <cc:Agent>
      <dc:title>Joaquín Urbano</dc:title>
     </cc:Agent>
    </dc:creator>
    <dc:rights>
     <cc:Agent>
      <dc:title>GPL</dc:title>
     </cc:Agent>
    </dc:rights>
   </cc:Work>
  </rdf:RDF>
 </metadata>
 <g id="layer1" transform="translate(0,-284.3)" fill="#333">
  <path id="path1975" d="m4 4v27.641l21.172 11.375 1.0234 0.7832c0.142 0.108 0.151 0.12 0.256 0.201h17.549v-8.1797c-0.51693-0.3723-0.94767-0.54193-1.4668-0.57812-0.18404-0.013002-1.1824 0.09626-2.2188 0.24219-2.9052 0.40732-2.7841 0.44328-5.5664-1.627l-1.777-1.324-22.283-17.887-3.0239 0.655c-0.4771 0.103-0.9365-0.167-1.0313-0.606-0.0943-0.438 0.2122-0.873 0.6895-0.976l1.7382-0.377-1.6035-1.291c-2.1512-1.598-2.0449-1.186-2.2343-4.1682l0.039-3.8828-0.0058 0.0078v-0.0078h-0.25zm22.664 1.3633c-0.16162 0.043427-0.25565 0.21347-0.21094 0.375l0.33 1.2265-1.324 0.3575-1.691 0.4589-7.864 2.129c-0.92223 0.24968-1.5133 1.1035-1.4609 2.0195-0.043153 0.00046866-0.09746-0.00032152-0.14062 0.009766-0.31304 0.084711-0.50455 0.36895-0.50391 0.67773l-6.1055 1.6543c-0.16223 0.043782-0.25759 0.20957-0.21289 0.37109 0.042286 0.16376 0.21352 0.25138 0.375 0.20703l6.0957-1.6484c0.15045 0.28448 0.47169 0.44738 0.79492 0.36133 0.044459-0.007521 0.090601-0.04704 0.13086-0.066406 0.42406 0.79827 1.3533 1.2224 2.2598 0.98047l7.8652-2.1309 1.6914-0.45703 1.3262-0.35742 0.33203 1.2266c0.042187 0.16369 0.21511 0.25306 0.37695 0.20898 0.16169-0.043378 0.25546-0.20774 0.21094-0.36914l-0.333-1.228-0.371-1.3749 3.66-0.9902 0.182 0.6777c0.04689 0.18233 0.21861 0.29047 0.38281 0.24414 0.1617-0.043374 0.25419-0.22434 0.20508-0.4043l-0.857-3.1737c-0.014712-0.042792-0.03223-0.090956-0.0625-0.12109l-0.003906 0.0058594c-0.038592-0.052214-0.086094-0.090914-0.14258-0.11328-0.056484-0.022375-0.11763-0.029168-0.17773-0.013672-0.16222 0.043786-0.25416 0.22435-0.20508 0.4043l0.24 0.8867-3.66 0.9902-0.426-1.5801-0.334-1.2285c-0.042-0.1637-0.215-0.2538-0.373-0.2148zm0.27734 2.1836 0.27148 1-3.0684 0.83203-0.27148-1zm4.6738 0.4375 0.11914 0.4375-3.6602 0.99023-0.11914-0.4375zm-8.3262 0.55078 0.91992 3.3887-1.25 0.33789-1.4512-3.248 0.021484-0.0039063 0.19531-0.052734 0.17773 0.66016c0.042287 0.16376 0.21329 0.25121 0.375 0.20703 0.16177-0.043317 0.25508-0.20723 0.21094-0.36914l-0.17773-0.66016zm-2.1445 0.58203 1.4492 3.2461-0.14648 0.037109-5.3359 1.4453c-0.8072 0.21827-1.6306-0.25328-1.8496-1.0605l-0.023438-0.082031-0.037109-0.16016-0.027344-0.12305-0.03125-0.12305c-0.2187-0.8073 0.25305-1.635 1.0605-1.8535l0.32617-0.087891 0.17969 0.66016c0.042182 0.16368 0.21119 0.25498 0.37305 0.21094 0.16177-0.043317 0.25551-0.20966 0.21094-0.37109l-0.177-0.661 0.715-0.193 0.17969 0.66016c0.042187 0.16369 0.21315 0.25694 0.375 0.21289 0.162-0.043 0.257-0.211 0.213-0.373l-0.17773-0.66016 0.71484-0.19141 0.17969 0.66016c0.042292 0.16376 0.21135 0.25122 0.37305 0.20703 0.16177-0.043317 0.25747-0.20966 0.21289-0.37109l-0.18-0.6606 0.718-0.1934 0.176 0.6621c0.04227 0.16374 0.21132 0.25119 0.37305 0.20703 0.16177-0.043317 0.25739-0.20776 0.21289-0.36914l-0.178-0.6601zm6.2246 0.015625 0.11914 0.43555l-3.066 0.8336-0.117-0.4391zm0.2793 1.0195 0.21289 0.7832-3.0664 0.83008-0.21289-0.7793zm-8 1.0625c-0.016568 0.001568-0.032931 0.00484-0.048828 0.009766-0.12885 0.03512-0.2049 0.16798-0.16992 0.29688 0.034253 0.12964 0.16739 0.20672 0.29688 0.17188 0.13162-0.034168 0.20926-0.17004 0.17188-0.30078-0.013118-0.044761-0.038891-0.084778-0.074219-0.11523-0.011472-0.010274-0.023898-0.019431-0.037109-0.027344-0.041625-0.025425-0.089961-0.03768-0.13867-0.035156zm1.748 0.39453c-0.020509 0.001972-0.040783 0.005896-0.060547 0.011719-0.16458 0.043924-0.26701 0.20782-0.23438 0.375l-0.001953 0.001953c0.001706 0.007226 0.003661 0.014392 0.005859 0.021484 0.048225 0.17187 0.22642 0.27233 0.39844 0.22461 0.17169-0.04739 0.2729-0.22451 0.22656-0.39648-0.01708-0.059734-0.05098-0.11329-0.097656-0.1543h0.003906c-0.01621-0.014773-0.033879-0.027861-0.052734-0.039062-0.056491-0.03366-0.12189-0.049329-0.1875-0.044922zm-3.9766 0.34766c-0.01391 0.001146-0.027658 0.003765-0.041016 0.007813-0.10262 0.030301-0.1624 0.13686-0.13477 0.24023 0.030276 0.10457 0.13952 0.16488 0.24414 0.13477 0.10596-0.027719 0.16908-0.13642 0.14062-0.24219-0.010742-0.036425-0.031765-0.068976-0.060547-0.09375l-0.003906 0.005859c-0.039059-0.036407-0.091204-0.055433-0.14453-0.052734zm-1.8379 0.2832c-0.008567 0.00050856-0.017067 0.001816-0.025391 0.003906-0.070262 0.018738-0.11387 0.08885-0.099609 0.16016 0.001177 0.003304 0.00248 0.006561 0.003906 0.009766 0.019621 0.072246 0.093337 0.11561 0.16602 0.097656 0.073204-0.019607 0.11683-0.094651 0.097656-0.16797-0.005738-0.026801-0.019338-0.051282-0.039062-0.070312l-0.001953 0.001953c-0.0277-0.024983-0.064345-0.037668-0.10156-0.035156zm3.3398 0.25391c-0.015849 0.001011-0.031555 0.003628-0.046875 0.007813-0.11922 0.031728-0.19349 0.15039-0.16992 0.27148 0.00245 0.004643 0.005056 0.009203 0.007813 0.013672 0.03516 0.12451 0.16449 0.19704 0.28906 0.16211 0.12335-0.034343 0.19637-0.16126 0.16406-0.28516-0.011098-0.044241-0.034854-0.084286-0.068359-0.11523l-0.003906 0.003906c-0.047102-0.041814-0.10904-0.06293-0.17188-0.058594zm-2.5527 0.30664c-0.011266 0.00058657-0.022417 0.002554-0.033203 0.005859-0.06937 0.0187-0.11273 0.087564-0.099609 0.1582l-0.001953 0.003906c0.001252 0.001986 0.002554 0.00394 0.003906 0.005859 0.019607 0.073204 0.094651 0.11683 0.16797 0.097656 0.073204-0.019607 0.11683-0.094651 0.097656-0.16797-0.005548-0.025877-0.018431-0.04961-0.037109-0.068359l0.003906-0.001953c-0.007258-0.005995-0.015112-0.011231-0.023438-0.015625-0.023727-0.013464-0.050917-0.019582-0.078125-0.017578z" transform="matrix(.26458 0 0 .26458 0 284.3)" stroke-width="3.7795"/>
 </g>
</svg>
