<svg width="48" height="48" viewBox="0 0 48 48" fill="none" xmlns="http://www.w3.org/2000/svg">
<path fill-rule="evenodd" clip-rule="evenodd" d="M35.2929 15.7072L34 14.4143L31.9142 16.5001L34.7071 19.293L33.2929 20.7072L32 19.4143L26.1213 25.293C25.166 26.2483 23.7265 26.4246 22.5925 25.8219L21.4142 27.0002L30.5858 27.0001L33.5858 24.0001H38C38.8885 24.0001 39.6868 24.3864 40.2361 25.0001H41C42.6569 25.0001 44 26.3433 44 28.0001V35.0001C44 36.657 42.6569 38.0001 41 38.0001L34 38.0001C32.5195 38.0001 31.2268 37.1957 30.5352 36.0002H15.4853C13.6288 36.0002 11.8483 35.2627 10.5355 33.9499L7.47008 30.8845L6.22336 32.1906C5.84202 32.5901 5.20902 32.6048 4.80952 32.2234C4.41003 31.8421 4.39531 31.2091 4.77664 30.8096L6.05548 29.4699L4 27.4144V12.4771C4 11.0427 5.82019 10.4265 6.69154 11.566L14.0101 21.1364L15.2766 19.8096C15.658 19.4101 16.291 19.3954 16.6905 19.7767C17.09 20.1581 17.1047 20.7911 16.7234 21.1906L15.2399 22.7446L18.194 26.6076C18.3114 26.7612 18.469 26.8753 18.6461 26.9398L21.1783 24.4077C20.5754 23.2737 20.7517 21.8342 21.7071 20.8788L27.5858 15.0001L26.2929 13.7072L27.7071 12.293L30.5 15.0859L32.5858 13.0001L31.2929 11.7072L32.7071 10.293L36.7071 14.293L35.2929 15.7072ZM17.1869 28.3991C16.9699 28.2362 16.7738 28.0429 16.6053 27.8225L13.842 24.2091L8.8514 29.4374L11.9497 32.5357C12.8874 33.4734 14.1592 34.0002 15.4853 34.0002L32 34.0001C32 35.1047 32.8954 36.0001 34 36.0001L34.9996 36.0001C34.3719 35.1644 34 34.1257 34 33.0001V30.4001H35.346C35.1251 29.9822 35 29.5057 35 29.0001V28.0001H37V29.0001C37 29.5524 37.4477 30.0001 38 30.0001H39V27.0001C39 26.4478 38.5523 26.0001 38 26.0001H34.4142L31.4142 29.0001L19.4142 29.0002L17.4142 31.0002H14.5858L17.1869 28.3991ZM29 16.4143L30.5858 18.0001L28.5 20.0859L26.9142 18.5001L29 16.4143ZM12.6122 22.6009L7.43681 28.0228L6 26.586V13.9541L12.6122 22.6009ZM42 35.0001C42 35.5524 41.5523 36.0001 41 36.0001H39C37.3431 36.0001 36 34.657 36 33.0001V31.2362C36.5308 31.7113 37.2316 32.0001 38 32.0001H41V27.0001C41.5523 27.0001 42 27.4478 42 28.0001V35.0001ZM25.5 19.9143L23.1213 22.293C22.7308 22.6835 22.7308 23.3167 23.1213 23.7072L23.2929 23.8788C23.6834 24.2693 24.3166 24.2693 24.7071 23.8788L27.0858 21.5001L25.5 19.9143Z" fill="#333333"/>
</svg>
