<svg width="48" height="48" viewBox="0 0 48 48" fill="none" xmlns="http://www.w3.org/2000/svg">
<path d="M40.5 24C40.5 33.1127 33.1127 40.5 24 40.5C14.8873 40.5 7.5 33.1127 7.5 24C7.5 14.8873 14.8873 7.5 24 7.5C33.1127 7.5 40.5 14.8873 40.5 24ZM26.27 27.4393C26.6157 26.7045 27.247 26.1358 27.9926 25.4755L28.03 25.4425C29.1623 24.44 30.5 23.2557 30.5 21.08C30.5 17.4509 27.5974 14.5 24 14.5C20.9515 14.5 18.4016 16.6198 17.6949 19.4741C17.3967 20.6786 18.4403 21.58 19.5 21.58C20.6258 21.58 21.3945 20.6355 21.8014 19.8754C22.2285 19.0775 23.059 18.54 24 18.54C25.3676 18.54 26.5 19.6779 26.5 21.08C26.5 22.1397 25.852 22.675 24.849 23.4541L24.8255 23.4722C23.8398 24.2378 22.6191 25.1858 22.174 27.0765C21.8902 28.282 22.9427 29.18 24 29.18C25.1295 29.18 25.8934 28.2399 26.27 27.4393ZM26 32.5V32.46C26 31.3554 25.1046 30.46 24 30.46C22.8954 30.46 22 31.3554 22 32.46V32.5C22 33.6046 22.8954 34.5 24 34.5C25.1046 34.5 26 33.6046 26 32.5Z" stroke="#333333"/>
</svg>
