<svg width="48" height="48" viewBox="0 0 48 48" fill="none" xmlns="http://www.w3.org/2000/svg">
<path d="M5.91296 36.2505L5.91299 36.2505L20.973 10.2305C20.973 10.2305 20.973 10.2305 20.973 10.2305C22.3204 7.90316 25.6801 7.90316 27.0275 10.2305C27.0275 10.2305 27.0275 10.2305 27.0275 10.2305L42.0875 36.2505L42.0875 36.2505C43.4348 38.5776 41.7545 41.5 39.0602 41.5H8.94024C6.24594 41.5 4.56567 38.5776 5.91296 36.2505ZM26.27 31.4393C26.6157 30.7045 27.247 30.1358 27.9926 29.4755L28.03 29.4425C29.1623 28.44 30.5 27.2557 30.5 25.08C30.5 21.4509 27.5974 18.5 24 18.5C20.9515 18.5 18.4016 20.6198 17.6949 23.4741C17.3967 24.6786 18.4403 25.58 19.5 25.58C20.6258 25.58 21.3945 24.6355 21.8014 23.8754C22.2285 23.0775 23.059 22.54 24 22.54C25.3676 22.54 26.5 23.6779 26.5 25.08C26.5 26.1397 25.852 26.675 24.849 27.4541L24.8256 27.4722C23.8398 28.2378 22.6191 29.1858 22.174 31.0765C21.8901 32.282 22.9427 33.18 24 33.18C25.1295 33.18 25.8934 32.2399 26.27 31.4393ZM26 36.46C26 35.3554 25.1046 34.46 24 34.46C22.8954 34.46 22 35.3554 22 36.46V36.5C22 37.6046 22.8954 38.5 24 38.5C25.1046 38.5 26 37.6046 26 36.5V36.46Z" stroke="#333333"/>
</svg>
