<svg width="48" height="48" viewBox="0 0 48 48" fill="none" xmlns="http://www.w3.org/2000/svg">
<path fill-rule="evenodd" clip-rule="evenodd" d="M48 0H0V48H48V0ZM41 24C41 33.3888 33.3888 41 24 41C14.6112 41 7 33.3888 7 24C7 14.6112 14.6112 7 24 7C33.3888 7 41 14.6112 41 24ZM27.6611 25.1012C26.9317 25.7472 26.2148 26.3821 25.8176 27.2265C25.465 27.9761 24.8284 28.68 24 28.68C23.1716 28.68 22.4708 27.9975 22.6607 27.1911C23.0653 25.4726 24.1648 24.6186 25.1557 23.8489C26.1304 23.0919 27 22.4164 27 21.08C27 19.408 25.65 18.04 24 18.04C22.8635 18.04 21.8693 18.689 21.3606 19.6394C20.9696 20.3698 20.3284 21.08 19.5 21.08C18.6716 21.08 17.9811 20.3985 18.1802 19.5943C18.834 16.9538 21.1908 15 24 15C27.315 15 30 17.7208 30 21.08C30 23.03 28.815 24.0794 27.6611 25.1012ZM25.5 32.46V32.5C25.5 33.3284 24.8284 34 24 34C23.1716 34 22.5 33.3284 22.5 32.5V32.46C22.5 31.6316 23.1716 30.96 24 30.96C24.8284 30.96 25.5 31.6316 25.5 32.46Z" fill="#333333"/>
</svg>
