<svg width="48" height="48" viewBox="0 0 48 48" fill="none" xmlns="http://www.w3.org/2000/svg">
<path d="M29.9909 25.0126C28.773 26.11 27.5762 27.1884 26.9224 28.6292C26.3558 29.8778 25.3022 31.04 23.931 31.04C22.5598 31.04 21.4018 29.9116 21.7046 28.5743C22.3664 25.6519 24.1958 24.206 25.8439 22.9035C27.4571 21.6284 28.8966 20.4908 28.8966 18.24C28.8966 15.424 26.6621 13.12 23.931 13.12C22.036 13.12 20.38 14.2294 19.5438 15.8494C18.9148 17.0678 17.8539 18.24 16.4828 18.24C15.1116 18.24 13.9696 17.1128 14.2883 15.7792C15.3563 11.3111 19.2669 8 23.931 8C29.4179 8 33.8621 12.5824 33.8621 18.24C33.8621 21.5243 31.9006 23.2917 29.9909 25.0126Z" fill="#333333"/>
<path d="M26.4138 37.3628V37.5172C26.4138 38.8884 25.3022 40 23.931 40C22.5598 40 21.4483 38.8884 21.4483 37.5172V37.3628C21.4483 35.9916 22.5598 34.88 23.931 34.88C25.3022 34.88 26.4138 35.9916 26.4138 37.3628Z" fill="#333333"/>
</svg>
