<svg width="48" height="48" viewBox="0 0 48 48" fill="none" xmlns="http://www.w3.org/2000/svg">
<path fill-rule="evenodd" clip-rule="evenodd" d="M48 0H0V48H48V0ZM24.8992 6.84867C24.5343 6.09862 23.4657 6.09862 23.1008 6.84867L6.69931 40.5628C6.37618 41.227 6.8599 42.0002 7.59854 42.0002H40.4015C41.1401 42.0002 41.6238 41.227 41.3007 40.5628L24.8992 6.84867ZM29.4977 25.2611C29.4977 23.7754 28.7211 22.6664 27.6914 21.9815C26.7089 21.328 25.4895 21.0403 24.3467 21.004C23.1959 20.9674 21.9733 21.1802 20.9331 21.6845C19.8955 22.1875 18.8921 23.0637 18.5476 24.405C18.3416 25.2074 18.825 26.0249 19.6273 26.231C20.4297 26.4371 21.2472 25.9537 21.4533 25.1513C21.5087 24.9358 21.7049 24.6443 22.2418 24.384C22.776 24.125 23.5028 23.9787 24.2513 24.0025C25.0078 24.0265 25.6378 24.2186 26.0299 24.4794C26.3747 24.7088 26.4977 24.9485 26.4977 25.2611C26.4977 25.6339 26.4278 25.8486 26.3681 25.9677C26.3107 26.0823 26.2342 26.1666 26.1276 26.24C25.8743 26.4146 25.4539 26.5249 24.8999 26.562C24.1121 26.6147 23.5 27.269 23.5 28.0586L23.5 30.5C23.5 31.3284 24.1716 32 25 32C25.8284 32 26.5 31.3284 26.5 30.5L26.5 29.3236C26.9427 29.1971 27.4025 29.0048 27.8298 28.7103C28.8609 27.9998 29.4977 26.8398 29.4977 25.2611ZM27 36C27 37.1046 26.1046 38 25 38C23.8954 38 23 37.1046 23 36C23 34.8954 23.8954 34 25 34C26.1046 34 27 34.8954 27 36Z" fill="#333333"/>
</svg>
