<?xml version="1.0" encoding="UTF-8" standalone="no"?>
<!-- Created with Inkscape (http://www.inkscape.org/) -->
<svg id="svg8" xmlns:rdf="http://www.w3.org/1999/02/22-rdf-syntax-ns#" xmlns="http://www.w3.org/2000/svg" xmlns:osb="http://www.openswatchbook.org/uri/2009/osb" height="48" width="48" version="1.1" xmlns:cc="http://creativecommons.org/ns#" viewBox="0 0 12.7 12.7" xmlns:dc="http://purl.org/dc/elements/1.1/">
 <title id="title4753">UIO-icon</title>
 <metadata id="metadata5">
  <rdf:RDF>
   <cc:Work rdf:about="">
    <dc:format>image/svg+xml</dc:format>
    <dc:type rdf:resource="http://purl.org/dc/dcmitype/StillImage"/>
    <dc:title>UIO-icon</dc:title>
    <dc:creator>
     <cc:Agent>
      <dc:title>Joaquín Urbano</dc:title>
     </cc:Agent>
    </dc:creator>
    <dc:rights>
     <cc:Agent>
      <dc:title>GPL</dc:title>
     </cc:Agent>
    </dc:rights>
   </cc:Work>
  </rdf:RDF>
 </metadata>
 <g id="layer1" fill="#333" transform="translate(0,-284.3)">
  <path id="rect883" d="m0 0v48h48v-48zm24 4a20 20 0 0 1 20 20 20 20 0 0 1 -20 20 20 20 0 0 1 -20 -20 20 20 0 0 1 20 -20zm0.083984 8.5469c-1.869 0-3.3879 0.51407-4.5586 1.541-1.1604 1.0167-1.7509 2.3559-1.7715 4.0195h2.8496c0-0.93452 0.31837-1.6779 0.95508-2.2324 0.6367-0.55455 1.4779-0.83203 2.5254-0.83203 1.0783 0 1.9 0.30766 2.4648 0.92383 0.56482 0.6059 0.84766 1.4491 0.84766 2.5273 0 1.1194-0.43034 2.167-1.293 3.1426l-2.0195 2.0781c-0.79075 0.86263-1.3136 1.6488-1.5703 2.3574-0.25674 0.70859-0.39548 1.6744-0.41602 2.8965h2.8496c0-1.561 0.37533-2.758 1.125-3.5898l1.677-1.664c1.6636-1.7458 2.4961-3.5173 2.4961-5.3145 0-1.8177-0.54425-3.244-1.6328-4.2812-1.078-1.047-2.588-1.572-4.529-1.572zm-0.43 19.672c-0.55455 0-0.97613 0.15821-1.2637 0.47656-0.27727 0.30808-0.41602 0.69413-0.41602 1.1562 0 0.46212 0.13874 0.84621 0.41602 1.1543 0.28754 0.29782 0.70912 0.44727 1.2637 0.44727 0.55455 0 0.97417-0.14945 1.2617-0.44727 0.28754-0.30808 0.43164-0.69217 0.43164-1.1543 0-0.46212-0.1441-0.84817-0.43164-1.1562-0.288-0.319-0.707-0.477-1.262-0.477z" fill-rule="evenodd" transform="matrix(.26458 0 0 .26458 0 284.3)"/>
 </g>
</svg>
