<svg width="48" height="48" viewBox="0 0 48 48" fill="none" xmlns="http://www.w3.org/2000/svg">
<path fill-rule="evenodd" clip-rule="evenodd" d="M48 0H0V48H48V0ZM26.9224 28.6292C27.5762 27.1884 28.773 26.11 29.9909 25.0126C31.9006 23.2917 33.8621 21.5243 33.8621 18.24C33.8621 12.5824 29.4179 8 23.931 8C19.2669 8 15.3563 11.3111 14.2883 15.7792C13.9696 17.1128 15.1116 18.24 16.4828 18.24C17.8539 18.24 18.9148 17.0678 19.5438 15.8494C20.38 14.2294 22.036 13.12 23.931 13.12C26.6621 13.12 28.8966 15.424 28.8966 18.24C28.8966 20.4908 27.4571 21.6284 25.8439 22.9035C24.1958 24.206 22.3664 25.6519 21.7046 28.5743C21.4018 29.9116 22.5598 31.04 23.931 31.04C25.3022 31.04 26.3558 29.8778 26.9224 28.6292ZM26.4138 37.5172V37.3628C26.4138 35.9916 25.3022 34.88 23.931 34.88C22.5598 34.88 21.4483 35.9916 21.4483 37.3628V37.5172C21.4483 38.8884 22.5598 40 23.931 40C25.3022 40 26.4138 38.8884 26.4138 37.5172Z" fill="#333333"/>
</svg>
