<svg width="48" height="48" viewBox="0 0 48 48" fill="none" xmlns="http://www.w3.org/2000/svg">
<path fill-rule="evenodd" clip-rule="evenodd" d="M39.0602 42H8.94024C5.86024 42 3.94024 38.66 5.48024 36L20.5402 9.97999C22.0802 7.31999 25.9202 7.31999 27.4602 9.97999L42.5202 36C44.0602 38.66 42.1402 42 39.0602 42ZM27.6611 29.1012C26.9317 29.7472 26.2148 30.3821 25.8176 31.2265C25.465 31.9761 24.8284 32.68 24 32.68C23.1716 32.68 22.4708 31.9975 22.6607 31.1911C23.0653 29.4726 24.1648 28.6186 25.1557 27.8489C26.1304 27.0919 27 26.4164 27 25.08C27 23.408 25.65 22.04 24 22.04C22.8635 22.04 21.8693 22.689 21.3606 23.6394C20.9696 24.3698 20.3284 25.08 19.5 25.08C18.6716 25.08 17.9811 24.3985 18.1802 23.5943C18.834 20.9538 21.1908 19 24 19C27.315 19 30 21.7208 30 25.08C30 27.03 28.815 28.0794 27.6611 29.1012ZM24 34.96C24.8284 34.96 25.5 35.6316 25.5 36.46V36.5C25.5 37.3284 24.8284 38 24 38C23.1716 38 22.5 37.3284 22.5 36.5V36.46C22.5 35.6316 23.1716 34.96 24 34.96Z" fill="#333333"/>
</svg>
