<?xml version="1.0" encoding="UTF-8" standalone="no"?>
<!-- Created with Inkscape (http://www.inkscape.org/) -->

<svg
   xmlns:osb="http://www.openswatchbook.org/uri/2009/osb"
   xmlns:dc="http://purl.org/dc/elements/1.1/"
   xmlns:cc="http://creativecommons.org/ns#"
   xmlns:rdf="http://www.w3.org/1999/02/22-rdf-syntax-ns#"
   xmlns:svg="http://www.w3.org/2000/svg"
   xmlns="http://www.w3.org/2000/svg"
   xmlns:sodipodi="http://sodipodi.sourceforge.net/DTD/sodipodi-0.dtd"
   xmlns:inkscape="http://www.inkscape.org/namespaces/inkscape"
   width="48"
   height="48"
   viewBox="0 0 12.7 12.7"
   version="1.1"
   id="svg8"
   inkscape:version="0.92.2 (5c3e80d, 2017-08-06)"
   sodipodi:docname="rdt_result_mixed_negative.svg"
   enable-background="new">
  <title
     id="title4753">UIO-icon</title>
  <defs
     id="defs2">
    <clipPath
       id="clipPath847"
       clipPathUnits="userSpaceOnUse">
      <rect
         y="248.86708"
         x="68.720795"
         height="101.69591"
         width="101.58684"
         id="rect849"
         style="fill:#ff0000;fill-opacity:0.52314812;stroke:none;stroke-width:0.815732;stroke-linecap:round;stroke-linejoin:round;stroke-miterlimit:4;stroke-dasharray:none;stroke-opacity:1" />
    </clipPath>
    <linearGradient
       gradientTransform="matrix(0.00229968,0,0,0.00764365,-480.76794,1614.5601)"
       osb:paint="solid"
       id="linearGradient17002">
      <stop
         id="stop17004"
         offset="0"
         style="stop-color:#283593;stop-opacity:1;" />
    </linearGradient>
    <clipPath
       id="clipPath83799-06"
       clipPathUnits="userSpaceOnUse">
      <circle
         r="16.425676"
         cy="2526.7087"
         cx="1629.7842"
         id="circle83801-32"
         style="opacity:1;fill:#ffffff;fill-opacity:1;stroke:#cccccc;stroke-width:0.49900001;stroke-linecap:round;stroke-linejoin:round;stroke-miterlimit:4;stroke-dasharray:none;stroke-opacity:1" />
    </clipPath>
    <linearGradient
       gradientTransform="matrix(8.4815637e-7,0,0,8.4815637e-7,1622.9529,2135.1955)"
       osb:paint="solid"
       id="linearGradient17020">
      <stop
         id="stop17022"
         offset="0"
         style="stop-color:#536dfe;stop-opacity:1;" />
    </linearGradient>
    <linearGradient
       gradientTransform="matrix(0.00634403,0,0,0.00634403,-2363.0635,2243.3806)"
       osb:paint="solid"
       id="linearGradient17014">
      <stop
         id="stop17016"
         offset="0"
         style="stop-color:#8c9eff;stop-opacity:1;" />
    </linearGradient>
    <clipPath
       id="clipPath83799-06-6"
       clipPathUnits="userSpaceOnUse">
      <circle
         r="16.425676"
         cy="2526.7087"
         cx="1629.7842"
         id="circle83801-32-7"
         style="opacity:1;fill:#ffffff;fill-opacity:1;stroke:#cccccc;stroke-width:0.49900001;stroke-linecap:round;stroke-linejoin:round;stroke-miterlimit:4;stroke-dasharray:none;stroke-opacity:1" />
    </clipPath>
    <clipPath
       id="clipPath83799-06-8"
       clipPathUnits="userSpaceOnUse">
      <circle
         r="16.425676"
         cy="2526.7087"
         cx="1629.7842"
         id="circle83801-32-4"
         style="opacity:1;fill:#ffffff;fill-opacity:1;stroke:#cccccc;stroke-width:0.49900001;stroke-linecap:round;stroke-linejoin:round;stroke-miterlimit:4;stroke-dasharray:none;stroke-opacity:1" />
    </clipPath>
    <linearGradient
       osb:paint="solid"
       id="linearGradient19224">
      <stop
         id="stop19226"
         offset="0"
         style="stop-color:#7e57c2;stop-opacity:1;" />
    </linearGradient>
    <clipPath
       id="clipPath83799-06-9"
       clipPathUnits="userSpaceOnUse">
      <circle
         r="16.425676"
         cy="2526.7087"
         cx="1629.7842"
         id="circle83801-32-1"
         style="opacity:1;fill:#ffffff;fill-opacity:1;stroke:#cccccc;stroke-width:0.49900001;stroke-linecap:round;stroke-linejoin:round;stroke-miterlimit:4;stroke-dasharray:none;stroke-opacity:1" />
    </clipPath>
    <clipPath
       id="clipPath83799-06-85"
       clipPathUnits="userSpaceOnUse">
      <circle
         r="16.425676"
         cy="2526.7087"
         cx="1629.7842"
         id="circle83801-32-5"
         style="opacity:1;fill:#ffffff;fill-opacity:1;stroke:#cccccc;stroke-width:0.49900001;stroke-linecap:round;stroke-linejoin:round;stroke-miterlimit:4;stroke-dasharray:none;stroke-opacity:1" />
    </clipPath>
    <linearGradient
       osb:paint="solid"
       id="linearGradient6475">
      <stop
         id="stop6473"
         offset="0"
         style="stop-color:#000000;stop-opacity:1;" />
    </linearGradient>
    <clipPath
       clipPathUnits="userSpaceOnUse"
       id="clipPath847-3">
      <rect
         style="fill:#ff0000;fill-opacity:0.52314812;stroke:none;stroke-width:0.815732;stroke-linecap:round;stroke-linejoin:round;stroke-miterlimit:4;stroke-dasharray:none;stroke-opacity:1"
         id="rect849-1"
         width="101.58684"
         height="101.69591"
         x="68.720795"
         y="248.86708" />
    </clipPath>
    <clipPath
       clipPathUnits="userSpaceOnUse"
       id="clipPath83799-06-1">
      <circle
         style="opacity:1;fill:#ffffff;fill-opacity:1;stroke:#cccccc;stroke-width:0.49900001;stroke-linecap:round;stroke-linejoin:round;stroke-miterlimit:4;stroke-dasharray:none;stroke-opacity:1"
         id="circle83801-32-49"
         cx="1629.7842"
         cy="2526.7087"
         r="16.425676" />
    </clipPath>
    <clipPath
       clipPathUnits="userSpaceOnUse"
       id="clipPath83799-06-6-1">
      <circle
         style="opacity:1;fill:#ffffff;fill-opacity:1;stroke:#cccccc;stroke-width:0.49900001;stroke-linecap:round;stroke-linejoin:round;stroke-miterlimit:4;stroke-dasharray:none;stroke-opacity:1"
         id="circle83801-32-7-1"
         cx="1629.7842"
         cy="2526.7087"
         r="16.425676" />
    </clipPath>
    <clipPath
       clipPathUnits="userSpaceOnUse"
       id="clipPath83799-06-8-1">
      <circle
         style="opacity:1;fill:#ffffff;fill-opacity:1;stroke:#cccccc;stroke-width:0.49900001;stroke-linecap:round;stroke-linejoin:round;stroke-miterlimit:4;stroke-dasharray:none;stroke-opacity:1"
         id="circle83801-32-4-2"
         cx="1629.7842"
         cy="2526.7087"
         r="16.425676" />
    </clipPath>
    <clipPath
       clipPathUnits="userSpaceOnUse"
       id="clipPath83799-06-9-4">
      <circle
         style="opacity:1;fill:#ffffff;fill-opacity:1;stroke:#cccccc;stroke-width:0.49900001;stroke-linecap:round;stroke-linejoin:round;stroke-miterlimit:4;stroke-dasharray:none;stroke-opacity:1"
         id="circle83801-32-1-0"
         cx="1629.7842"
         cy="2526.7087"
         r="16.425676" />
    </clipPath>
    <clipPath
       clipPathUnits="userSpaceOnUse"
       id="clipPath83799-06-85-7">
      <circle
         style="opacity:1;fill:#ffffff;fill-opacity:1;stroke:#cccccc;stroke-width:0.49900001;stroke-linecap:round;stroke-linejoin:round;stroke-miterlimit:4;stroke-dasharray:none;stroke-opacity:1"
         id="circle83801-32-5-8"
         cx="1629.7842"
         cy="2526.7087"
         r="16.425676" />
    </clipPath>
    <clipPath
       id="clipPath847-2"
       clipPathUnits="userSpaceOnUse">
      <rect
         y="248.86708"
         x="68.720795"
         height="101.69591"
         width="101.58684"
         id="rect849-8"
         style="fill:#ff0000;fill-opacity:0.52314812;stroke:none;stroke-width:0.815732;stroke-linecap:round;stroke-linejoin:round;stroke-miterlimit:4;stroke-dasharray:none;stroke-opacity:1" />
    </clipPath>
    <clipPath
       id="clipPath83799-06-0"
       clipPathUnits="userSpaceOnUse">
      <circle
         r="16.425676"
         cy="2526.7087"
         cx="1629.7842"
         id="circle83801-32-13"
         style="opacity:1;fill:#ffffff;fill-opacity:1;stroke:#cccccc;stroke-width:0.49900001;stroke-linecap:round;stroke-linejoin:round;stroke-miterlimit:4;stroke-dasharray:none;stroke-opacity:1" />
    </clipPath>
    <clipPath
       id="clipPath83799-06-6-3"
       clipPathUnits="userSpaceOnUse">
      <circle
         r="16.425676"
         cy="2526.7087"
         cx="1629.7842"
         id="circle83801-32-7-8"
         style="opacity:1;fill:#ffffff;fill-opacity:1;stroke:#cccccc;stroke-width:0.49900001;stroke-linecap:round;stroke-linejoin:round;stroke-miterlimit:4;stroke-dasharray:none;stroke-opacity:1" />
    </clipPath>
    <clipPath
       id="clipPath83799-06-8-7"
       clipPathUnits="userSpaceOnUse">
      <circle
         r="16.425676"
         cy="2526.7087"
         cx="1629.7842"
         id="circle83801-32-4-9"
         style="opacity:1;fill:#ffffff;fill-opacity:1;stroke:#cccccc;stroke-width:0.49900001;stroke-linecap:round;stroke-linejoin:round;stroke-miterlimit:4;stroke-dasharray:none;stroke-opacity:1" />
    </clipPath>
    <clipPath
       id="clipPath83799-06-9-45"
       clipPathUnits="userSpaceOnUse">
      <circle
         r="16.425676"
         cy="2526.7087"
         cx="1629.7842"
         id="circle83801-32-1-3"
         style="opacity:1;fill:#ffffff;fill-opacity:1;stroke:#cccccc;stroke-width:0.49900001;stroke-linecap:round;stroke-linejoin:round;stroke-miterlimit:4;stroke-dasharray:none;stroke-opacity:1" />
    </clipPath>
    <clipPath
       id="clipPath83799-06-85-8"
       clipPathUnits="userSpaceOnUse">
      <circle
         r="16.425676"
         cy="2526.7087"
         cx="1629.7842"
         id="circle83801-32-5-7"
         style="opacity:1;fill:#ffffff;fill-opacity:1;stroke:#cccccc;stroke-width:0.49900001;stroke-linecap:round;stroke-linejoin:round;stroke-miterlimit:4;stroke-dasharray:none;stroke-opacity:1" />
    </clipPath>
    <clipPath
       id="clipPath847-0"
       clipPathUnits="userSpaceOnUse">
      <rect
         y="248.86708"
         x="68.720795"
         height="101.69591"
         width="101.58684"
         id="rect849-7"
         style="fill:#ff0000;fill-opacity:0.52314812;stroke:none;stroke-width:0.815732;stroke-linecap:round;stroke-linejoin:round;stroke-miterlimit:4;stroke-dasharray:none;stroke-opacity:1" />
    </clipPath>
    <clipPath
       id="clipPath83799-06-3"
       clipPathUnits="userSpaceOnUse">
      <circle
         r="16.425676"
         cy="2526.7087"
         cx="1629.7842"
         id="circle83801-32-55"
         style="opacity:1;fill:#ffffff;fill-opacity:1;stroke:#cccccc;stroke-width:0.49900001;stroke-linecap:round;stroke-linejoin:round;stroke-miterlimit:4;stroke-dasharray:none;stroke-opacity:1" />
    </clipPath>
    <clipPath
       id="clipPath83799-06-6-4"
       clipPathUnits="userSpaceOnUse">
      <circle
         r="16.425676"
         cy="2526.7087"
         cx="1629.7842"
         id="circle83801-32-7-5"
         style="opacity:1;fill:#ffffff;fill-opacity:1;stroke:#cccccc;stroke-width:0.49900001;stroke-linecap:round;stroke-linejoin:round;stroke-miterlimit:4;stroke-dasharray:none;stroke-opacity:1" />
    </clipPath>
    <clipPath
       id="clipPath83799-06-8-9"
       clipPathUnits="userSpaceOnUse">
      <circle
         r="16.425676"
         cy="2526.7087"
         cx="1629.7842"
         id="circle83801-32-4-1"
         style="opacity:1;fill:#ffffff;fill-opacity:1;stroke:#cccccc;stroke-width:0.49900001;stroke-linecap:round;stroke-linejoin:round;stroke-miterlimit:4;stroke-dasharray:none;stroke-opacity:1" />
    </clipPath>
    <clipPath
       id="clipPath83799-06-9-47"
       clipPathUnits="userSpaceOnUse">
      <circle
         r="16.425676"
         cy="2526.7087"
         cx="1629.7842"
         id="circle83801-32-1-1"
         style="opacity:1;fill:#ffffff;fill-opacity:1;stroke:#cccccc;stroke-width:0.49900001;stroke-linecap:round;stroke-linejoin:round;stroke-miterlimit:4;stroke-dasharray:none;stroke-opacity:1" />
    </clipPath>
    <clipPath
       id="clipPath83799-06-85-0"
       clipPathUnits="userSpaceOnUse">
      <circle
         r="16.425676"
         cy="2526.7087"
         cx="1629.7842"
         id="circle83801-32-5-71"
         style="opacity:1;fill:#ffffff;fill-opacity:1;stroke:#cccccc;stroke-width:0.49900001;stroke-linecap:round;stroke-linejoin:round;stroke-miterlimit:4;stroke-dasharray:none;stroke-opacity:1" />
    </clipPath>
    <clipPath
       id="clipPath847-7"
       clipPathUnits="userSpaceOnUse">
      <rect
         y="248.86708"
         x="68.720795"
         height="101.69591"
         width="101.58684"
         id="rect849-11"
         style="fill:#ff0000;fill-opacity:0.52314812;stroke:none;stroke-width:0.815732;stroke-linecap:round;stroke-linejoin:round;stroke-miterlimit:4;stroke-dasharray:none;stroke-opacity:1" />
    </clipPath>
    <clipPath
       id="clipPath83799-06-36"
       clipPathUnits="userSpaceOnUse">
      <circle
         r="16.425676"
         cy="2526.7087"
         cx="1629.7842"
         id="circle83801-32-8"
         style="opacity:1;fill:#ffffff;fill-opacity:1;stroke:#cccccc;stroke-width:0.49900001;stroke-linecap:round;stroke-linejoin:round;stroke-miterlimit:4;stroke-dasharray:none;stroke-opacity:1" />
    </clipPath>
    <clipPath
       id="clipPath83799-06-6-30"
       clipPathUnits="userSpaceOnUse">
      <circle
         r="16.425676"
         cy="2526.7087"
         cx="1629.7842"
         id="circle83801-32-7-9"
         style="opacity:1;fill:#ffffff;fill-opacity:1;stroke:#cccccc;stroke-width:0.49900001;stroke-linecap:round;stroke-linejoin:round;stroke-miterlimit:4;stroke-dasharray:none;stroke-opacity:1" />
    </clipPath>
    <clipPath
       id="clipPath83799-06-8-5"
       clipPathUnits="userSpaceOnUse">
      <circle
         r="16.425676"
         cy="2526.7087"
         cx="1629.7842"
         id="circle83801-32-4-12"
         style="opacity:1;fill:#ffffff;fill-opacity:1;stroke:#cccccc;stroke-width:0.49900001;stroke-linecap:round;stroke-linejoin:round;stroke-miterlimit:4;stroke-dasharray:none;stroke-opacity:1" />
    </clipPath>
    <clipPath
       id="clipPath83799-06-9-3"
       clipPathUnits="userSpaceOnUse">
      <circle
         r="16.425676"
         cy="2526.7087"
         cx="1629.7842"
         id="circle83801-32-1-11"
         style="opacity:1;fill:#ffffff;fill-opacity:1;stroke:#cccccc;stroke-width:0.49900001;stroke-linecap:round;stroke-linejoin:round;stroke-miterlimit:4;stroke-dasharray:none;stroke-opacity:1" />
    </clipPath>
    <clipPath
       id="clipPath83799-06-85-3"
       clipPathUnits="userSpaceOnUse">
      <circle
         r="16.425676"
         cy="2526.7087"
         cx="1629.7842"
         id="circle83801-32-5-6"
         style="opacity:1;fill:#ffffff;fill-opacity:1;stroke:#cccccc;stroke-width:0.49900001;stroke-linecap:round;stroke-linejoin:round;stroke-miterlimit:4;stroke-dasharray:none;stroke-opacity:1" />
    </clipPath>
  </defs>
  <sodipodi:namedview
     id="base"
     pagecolor="#ffffff"
     bordercolor="#666666"
     borderopacity="1.0"
     inkscape:pageopacity="0.0"
     inkscape:pageshadow="2"
     inkscape:zoom="31.99999994"
     inkscape:cx="19.95364354"
     inkscape:cy="25.15642013"
     inkscape:document-units="px"
     inkscape:current-layer="layer1"
     showgrid="false"
     units="px"
     inkscape:showpageshadow="false"
     showborder="true"
     inkscape:measure-start="0,0"
     inkscape:measure-end="0,0"
     inkscape:window-width="1920"
     inkscape:window-height="1017"
     inkscape:window-x="1912"
     inkscape:window-y="-8"
     inkscape:window-maximized="1"
     showguides="true"
     inkscape:guide-bbox="true">
    <inkscape:grid
       type="axonomgrid"
       id="grid4747"
       units="px"
       empspacing="5"
       spacingy="1.3229167"
       enabled="false" />
    <inkscape:grid
       type="xygrid"
       id="grid4749"
       empspacing="4" />
  </sodipodi:namedview>
  <metadata
     id="metadata5">
    <rdf:RDF>
      <cc:Work
         rdf:about="">
        <dc:format>image/svg+xml</dc:format>
        <dc:type
           rdf:resource="http://purl.org/dc/dcmitype/StillImage" />
        <dc:title>UIO-icon</dc:title>
        <dc:creator>
          <cc:Agent>
            <dc:title>Joaquín Urbano</dc:title>
          </cc:Agent>
        </dc:creator>
        <dc:rights>
          <cc:Agent>
            <dc:title>GPL</dc:title>
          </cc:Agent>
        </dc:rights>
      </cc:Work>
    </rdf:RDF>
  </metadata>
  <g
     inkscape:label="Capa 1"
     inkscape:groupmode="layer"
     id="layer1"
     transform="translate(0,-284.3)">
    <path
       style="opacity:1;fill:#333333;fill-opacity:1;fill-rule:evenodd;stroke:none;stroke-width:0.9999999404;stroke-linecap:round;stroke-linejoin:round;stroke-miterlimit:4;stroke-dasharray:none;stroke-dashoffset:0;stroke-opacity:1"
       d="M 0 0 L 0 48 L 48 48 L 48 0 L 0 0 z M 10.65039062 17.80273438 C 10.9616883 17.80273424 11.21378482 17.89547091 11.40820312 18.08007812 C 11.52392474 18.18940852 11.61010795 18.34628235 11.66796875 18.55078125 L 11.16015625 18.67382812 C 11.13007004 18.54174123 11.06675452 18.4361637 10.97070312 18.359375 C 10.8758135 18.28457815 10.75960435 18.24609375 10.62304688 18.24609375 C 10.434417 18.24609375 10.28210361 18.31354883 10.1640625 18.44921875 C 10.04717917 18.58520766 9.98828125 18.80501343 9.98828125 19.109375 C 9.98828125 19.43227667 10.04638379 19.66391712 10.16210938 19.80078125 C 10.27783212 19.93843918 10.42812114 20.00585938 10.61328125 20.00585938 C 10.74983479 20.00585938 10.86647685 19.9617326 10.96484375 19.875 C 11.06321068 19.78806746 11.13491668 19.65183966 11.17773438 19.46484375 L 11.67578125 19.62304688 C 11.59940007 19.90194536 11.47118224 20.10847073 11.29296875 20.24414062 C 11.11591066 20.37901682 10.89225171 20.44726562 10.61914062 20.44726562 C 10.28122415 20.44726562 10.0027181 20.3311621 9.78515625 20.09960938 C 9.56759043 19.86717977 9.458984375 19.5504753 9.458984375 19.1484375 C 9.458984375 18.723125 9.568393747 18.39294202 9.787109375 18.15820312 C 10.00582898 17.92187308 10.29395974 17.8046875 10.65039062 17.8046875 L 10.65039062 17.80273438 z M 26.56835938 17.8046875 C 26.70723179 17.80468772 26.84348227 17.8250155 26.9765625 17.8671875 L 26.91015625 18.20898438 C 26.83262125 18.18910358 26.75729296 18.18164062 26.68554688 18.18164062 C 26.61495062 18.18164062 26.56447492 18.20059828 26.53320312 18.23242188 C 26.50308924 18.2646461 26.48828125 18.3275834 26.48828125 18.421875 L 26.48828125 18.55273438 L 26.8515625 18.55273438 L 26.8515625 18.9375 L 26.48828125 18.9375 L 26.48828125 20.40429688 L 26 20.40429688 L 26 18.9375 L 25.72851562 18.9375 L 25.72851562 18.55273438 L 26 18.55273438 L 26 18.41210938 C 26 18.2565478 26.01644252 18.14124207 26.04882812 18.06445312 C 26.08238765 17.98766827 26.14251775 17.92469612 26.23046875 17.87695312 C 26.31957746 17.82763414 26.43296362 17.8046875 26.56835938 17.8046875 z M 16.00390625 17.84765625 L 16.828125 17.84765625 C 17.14058045 17.84765625 17.34455954 17.86283215 17.43945312 17.88671875 C 17.58526087 17.92451403 17.70827374 18.00976353 17.80664062 18.13867188 C 17.9050115 18.26666214 17.953125 18.43146109 17.953125 18.63476562 C 17.953125 18.79152342 17.92584762 18.92227199 17.86914062 19.02929688 C 17.81243364 19.13632173 17.74029475 19.22193324 17.65234375 19.28320312 C 17.56555057 19.34367938 17.47698125 19.38441658 17.38671875 19.40429688 C 17.26405052 19.42814556 17.08612056 19.43945313 16.85351562 19.43945312 L 16.51757812 19.43945312 L 16.51757812 20.40234375 L 16.00390625 20.40234375 L 16.00390625 17.84765625 z M 23.57226562 17.84765625 L 24.39648438 17.84765625 C 24.7089394 17.84765625 24.9129189 17.86283215 25.0078125 17.88671875 C 25.15362822 17.92451403 25.27467998 18.00976353 25.37304688 18.13867188 C 25.47141776 18.26666214 25.52148438 18.43146109 25.52148438 18.63476562 C 25.52148438 18.79152342 25.49225386 18.92227199 25.43554688 19.02929688 C 25.37883986 19.13632173 25.306701 19.22193324 25.21875 19.28320312 C 25.13195682 19.34367938 25.0433875 19.38441658 24.953125 19.40429688 C 24.83045677 19.42814556 24.65252678 19.43945313 24.41992188 19.43945312 L 24.0859375 19.43945312 L 24.0859375 20.40234375 L 23.57226562 20.40234375 L 23.57226562 17.84765625 z M 16.51757812 18.27929688 L 16.51757812 19.0078125 L 16.79882812 19.0078125 C 17.00134288 19.0078125 17.13679744 18.9966051 17.20507812 18.96875 C 17.27335888 18.94169618 17.32703978 18.89869006 17.36523438 18.84179688 C 17.40455876 18.78450302 17.42382812 18.71817242 17.42382812 18.64257812 C 17.42382812 18.54948083 17.3981415 18.4741381 17.34375 18.4140625 C 17.28935852 18.35359005 17.22003865 18.31669305 17.13671875 18.30078125 C 17.07538461 18.28887585 16.95273427 18.27929688 16.76757812 18.27929688 L 16.51757812 18.27929688 z M 24.0859375 18.27929688 L 24.0859375 19.0078125 L 24.3671875 19.0078125 C 24.56970385 19.0078125 24.7051608 18.9966051 24.7734375 18.96875 C 24.84171432 18.94169618 24.89344604 18.89869006 24.93164062 18.84179688 C 24.97096522 18.78450302 24.9921875 18.71817242 24.9921875 18.64257812 C 24.9921875 18.54948083 24.96454775 18.4741381 24.91015625 18.4140625 C 24.85576877 18.35359005 24.7864449 18.31669305 24.703125 18.30078125 C 24.64179086 18.28887585 24.51914049 18.27929688 24.33398438 18.27929688 L 24.0859375 18.27929688 z M 18.13867188 18.55273438 L 18.65234375 18.55273438 L 18.99804688 19.49609375 L 19.09960938 19.8125 C 19.12622236 19.73253278 19.14346764 19.67818346 19.15039062 19.65429688 C 19.16659942 19.60137971 19.18263178 19.54821345 19.20117188 19.49609375 L 19.55273438 18.55273438 L 20.0546875 18.55273438 L 19.32226562 20.40234375 L 18.8828125 20.40234375 L 18.13867188 18.55273438 z M 8.2421875 21.640625 L 39.7578125 21.640625 C 42.10823543 21.640625 44 23.53238957 44 25.8828125 L 44 25.953125 C 44 28.30354793 42.10823543 30.19726562 39.7578125 30.19726562 L 8.2421875 30.19726562 C 5.89176457 30.19726562 4 28.30354793 4 25.953125 L 4 25.8828125 C 4 23.53238957 5.89176457 21.640625 8.2421875 21.640625 z M 39.78125 23.75390625 C 38.59254342 23.75390637 37.62890637 24.71754342 37.62890625 25.90625 C 37.62890637 27.09495658 38.59254342 28.05859363 39.78125 28.05859375 C 40.96995658 28.05859363 41.93359363 27.09495658 41.93359375 25.90625 C 41.93359363 24.71754342 40.96995658 23.75390637 39.78125 23.75390625 z M 8.546875 24.02539062 C 7.552177079 24.02539062 6.75 24.82561458 6.75 25.8203125 C 6.75 26.81501042 7.552177079 27.6171875 8.546875 27.6171875 L 10.32617188 27.6171875 L 10.32617188 24.02539062 L 8.546875 24.02539062 z M 10.83984375 24.02539062 L 10.83984375 27.6171875 L 17.98242188 27.6171875 L 17.98242188 24.02539062 L 10.83984375 24.02539062 z M 18.49609375 24.02539062 L 18.49609375 27.6171875 L 25.59179688 27.6171875 L 25.59179688 24.02539062 L 18.49609375 24.02539062 z M 26.10742188 24.02539062 L 26.10742188 27.6171875 L 28.5625 27.6171875 C 29.55719792 27.6171875 30.359375 26.81501042 30.359375 25.8203125 C 30.359375 24.82561458 29.55719792 24.02539062 28.5625 24.02539062 L 26.10742188 24.02539062 z M 34.0625 24.54296875 C 33.30578266 24.54345385 32.69276577 25.15734524 32.69335938 25.9140625 C 32.69384405 26.67001713 33.30654537 27.28271845 34.0625 27.28320312 C 34.81921726 27.28379673 35.43310865 26.67077984 35.43359375 25.9140625 C 35.43418804 25.15658231 34.81998019 24.54237446 34.0625 24.54296875 z "
       transform="matrix(0.2645833333,0,0,0.2645833333,0,284.3)"
       id="rect906" />
    <path
       id="circle9576"
       style="display:inline;fill:#333333;fill-opacity:1;stroke:none;stroke-width:0.6349999905;stroke-linecap:round;stroke-linejoin:round;stroke-miterlimit:4;stroke-dasharray:none;stroke-opacity:1"
       r="9.9306049"
       cy="256.68106"
       cx="111.05997"
       d=""
       inkscape:connector-curvature="0" />
    <path
       id="circle9576-2"
       style="display:inline;fill:#333333;fill-opacity:1;stroke:none;stroke-width:0.6349999905;stroke-linecap:round;stroke-linejoin:round;stroke-miterlimit:4;stroke-dasharray:none;stroke-opacity:1"
       r="9.9306049"
       cy="256.68106"
       cx="111.05997"
       d=""
       inkscape:connector-curvature="0" />
    <path
       id="circle9576-7"
       style="display:inline;fill:#333333;fill-opacity:1;stroke:none;stroke-width:0.6349999905;stroke-linecap:round;stroke-linejoin:round;stroke-miterlimit:4;stroke-dasharray:none;stroke-opacity:1"
       r="9.9306049"
       cy="256.68106"
       cx="111.05997"
       d=""
       inkscape:connector-curvature="0" />
    <path
       id="circle9576-4"
       style="display:inline;fill:#333333;fill-opacity:1;stroke:none;stroke-width:0.6349999905;stroke-linecap:round;stroke-linejoin:round;stroke-miterlimit:4;stroke-dasharray:none;stroke-opacity:1"
       r="9.9306049"
       cy="256.68106"
       cx="111.05997"
       d=""
       inkscape:connector-curvature="0" />
    <path
       id="circle9576-49"
       style="display:inline;fill:#333333;fill-opacity:1;stroke:none;stroke-width:0.6349999905;stroke-linecap:round;stroke-linejoin:round;stroke-miterlimit:4;stroke-dasharray:none;stroke-opacity:1"
       r="9.9306049"
       cy="256.68106"
       cx="111.05997"
       d=""
       inkscape:connector-curvature="0" />
    <path
       id="circle9576-2-1"
       style="display:inline;fill:#333333;fill-opacity:1;stroke:none;stroke-width:0.6349999905;stroke-linecap:round;stroke-linejoin:round;stroke-miterlimit:4;stroke-dasharray:none;stroke-opacity:1"
       r="9.9306049"
       cy="256.68106"
       cx="111.05997"
       d=""
       inkscape:connector-curvature="0" />
    <path
       id="circle9576-7-0"
       style="display:inline;fill:#333333;fill-opacity:1;stroke:none;stroke-width:0.6349999905;stroke-linecap:round;stroke-linejoin:round;stroke-miterlimit:4;stroke-dasharray:none;stroke-opacity:1"
       r="9.9306049"
       cy="256.68106"
       cx="111.05997"
       d=""
       inkscape:connector-curvature="0" />
    <path
       id="circle9576-4-7"
       style="display:inline;fill:#333333;fill-opacity:1;stroke:none;stroke-width:0.6349999905;stroke-linecap:round;stroke-linejoin:round;stroke-miterlimit:4;stroke-dasharray:none;stroke-opacity:1"
       r="9.9306049"
       cy="256.68106"
       cx="111.05997"
       d=""
       inkscape:connector-curvature="0" />
  </g>
</svg>
