<svg width="48" height="48" viewBox="0 0 48 48" fill="none" xmlns="http://www.w3.org/2000/svg">
<path d="M18.95 4C18.45 4 18.05 4.4 18.05 4.9V43.1C18.05 43.6 18.45 44 18.95 44H29.05C29.55 44 29.95 43.6 29.95 43.1V4.9C29.95 4.4 29.55 4 29.05 4H18.95ZM23.51 7.02H23.84V8.7H23.51V7V7.02ZM26.48 7.04C26.54 7.04 26.58 7.06 26.62 7.09C26.65 7.12 26.67 7.16 26.67 7.21C26.67 7.26 26.65 7.3 26.62 7.33C26.58 7.36045 26.53 7.37473 26.48 7.37C26.43 7.37473 26.38 7.36045 26.34 7.33C26.3232 7.31503 26.31 7.29647 26.3013 7.2757C26.2927 7.25493 26.2888 7.23247 26.29 7.21C26.29 7.16 26.31 7.12 26.34 7.09C26.3785 7.05596 26.4286 7.03806 26.48 7.04ZM20.11 7.1H20.57L21 8.27L21.43 7.1H21.9V8.7H21.54V8.27L21.58 7.51L21.12 8.71H20.87L20.42 7.51L20.45 8.27V8.71H20.1V7.1H20.11ZM22.71 7.5C22.87 7.5 22.99 7.53 23.09 7.6C23.18 7.68 23.22 7.78 23.22 7.92V8.43C23.22 8.55 23.24 8.63 23.27 8.69V8.71H22.93C22.9147 8.67847 22.9046 8.64471 22.9 8.61C22.8577 8.65081 22.8075 8.68252 22.7524 8.70316C22.6974 8.7238 22.6387 8.73293 22.58 8.73C22.468 8.73468 22.3581 8.69922 22.27 8.63C22.2293 8.6 22.1964 8.5608 22.1738 8.51561C22.1512 8.47042 22.1396 8.42052 22.14 8.37C22.14 8.25 22.19 8.15 22.29 8.08C22.39 8.02 22.54 7.98 22.73 7.98H22.88V7.91C22.88 7.86 22.87 7.81 22.84 7.78C22.81 7.75 22.76 7.73 22.69 7.73C22.6433 7.72774 22.5973 7.74189 22.56 7.77C22.5447 7.7819 22.5323 7.79705 22.5237 7.81435C22.515 7.83165 22.5104 7.85066 22.51 7.87H22.17C22.17 7.81 22.19 7.74 22.24 7.68C22.29 7.62 22.34 7.58 22.44 7.54C22.5261 7.50686 22.6177 7.48991 22.71 7.49V7.5ZM24.64 7.5C24.8 7.5 24.92 7.53 25.01 7.6C25.11 7.68 25.15 7.78 25.15 7.92V8.43C25.15 8.55 25.17 8.63 25.2 8.69V8.71H24.86C24.8447 8.67847 24.8346 8.64471 24.83 8.61C24.788 8.65131 24.7379 8.68335 24.6827 8.70402C24.6276 8.72469 24.5688 8.73354 24.51 8.73C24.398 8.73468 24.2881 8.69922 24.2 8.63C24.1612 8.59896 24.1301 8.5593 24.1093 8.51417C24.0885 8.46904 24.0784 8.41968 24.08 8.37C24.08 8.25 24.12 8.15 24.22 8.08C24.32 8.02 24.47 7.98 24.66 7.98H24.81V7.91C24.81 7.86 24.8 7.81 24.77 7.78C24.74 7.75 24.69 7.73 24.62 7.73C24.5733 7.72774 24.5273 7.74189 24.49 7.77C24.4747 7.7819 24.4623 7.79705 24.4537 7.81435C24.445 7.83165 24.4404 7.85066 24.44 7.87H24.1C24.1 7.81 24.13 7.74 24.17 7.68C24.22 7.62 24.27 7.58 24.37 7.54C24.456 7.5064 24.5476 7.48944 24.64 7.49V7.5ZM26.03 7.5H26.13V7.81C26.09 7.8076 26.05 7.8076 26.01 7.81C25.88 7.81 25.8 7.85 25.76 7.93V8.71H25.42V7.5H25.74V7.65C25.7678 7.59755 25.8097 7.55388 25.8609 7.52385C25.9121 7.49383 25.9706 7.47865 26.03 7.48V7.5ZM27.45 7.5C27.61 7.5 27.73 7.53 27.82 7.6C27.92 7.68 27.96 7.78 27.96 7.92V8.43C27.96 8.55 27.98 8.63 28.01 8.69V8.71H27.67C27.6513 8.67908 27.6378 8.6453 27.63 8.61C27.588 8.65131 27.5379 8.68335 27.4827 8.70402C27.4276 8.72469 27.3688 8.73354 27.31 8.73C27.2014 8.73232 27.0954 8.69698 27.01 8.63C26.9693 8.6 26.9364 8.5608 26.9138 8.51561C26.8912 8.47042 26.8796 8.42052 26.88 8.37C26.88 8.25 26.93 8.15 27.03 8.08C27.13 8.02 27.28 7.98 27.46 7.98H27.62V7.91C27.62 7.86 27.61 7.81 27.58 7.78C27.55 7.75 27.5 7.73 27.43 7.73C27.3833 7.72774 27.3373 7.74189 27.3 7.77C27.2847 7.7819 27.2723 7.79705 27.2637 7.81435C27.255 7.83165 27.2504 7.85066 27.25 7.87H26.91C26.91 7.81 26.93 7.74 26.98 7.68C27.02 7.62 27.08 7.58 27.18 7.54C27.266 7.5064 27.3576 7.48944 27.45 7.49V7.5ZM26.31 7.52H26.65V8.7H26.31V7.5V7.52ZM22.76 8.17C22.59 8.17 22.5 8.22 22.49 8.33V8.35C22.49 8.39 22.49 8.42 22.53 8.45C22.56 8.47 22.6 8.49 22.65 8.49C22.6984 8.49145 22.7464 8.48115 22.79 8.46C22.8315 8.44064 22.8664 8.4093 22.89 8.37V8.17H22.76ZM24.69 8.17C24.52 8.17 24.43 8.22 24.41 8.33V8.35C24.41 8.39 24.43 8.42 24.46 8.45C24.49 8.47 24.53 8.49 24.58 8.49C24.6284 8.49145 24.6764 8.48115 24.72 8.46C24.7619 8.44118 24.7969 8.40971 24.82 8.37V8.17H24.69ZM27.49 8.17C27.32 8.17 27.23 8.22 27.22 8.33V8.35C27.22 8.39 27.24 8.42 27.27 8.45C27.3 8.47 27.34 8.49 27.39 8.49C27.44 8.49 27.49 8.48 27.53 8.46C27.5686 8.44003 27.6 8.40859 27.62 8.37V8.17H27.49ZM25.43 9.63C25.45 9.63 25.46 9.63 25.47 9.65L25.49 9.69C25.49 9.71 25.49 9.72 25.47 9.73C25.4597 9.74157 25.4454 9.74874 25.43 9.75C25.41 9.75 25.4 9.75 25.38 9.73C25.372 9.71827 25.3685 9.7041 25.37 9.69L25.38 9.65L25.43 9.63ZM23.37 9.65H23.45L23.87 10.69H23.77L23.66 10.39H23.16L23.04 10.69H22.94L23.37 9.65ZM24.92 9.72H25V9.92H25.17V9.99H25V10.5C25 10.54 25 10.57 25.03 10.6C25.04 10.62 25.07 10.63 25.11 10.63H25.18V10.69C25.1474 10.6984 25.1136 10.7018 25.08 10.7C25.03 10.7 24.98 10.69 24.95 10.65C24.92 10.62 24.91 10.57 24.91 10.5V10H24.76V9.93H24.91V9.73L24.92 9.72ZM23.41 9.76L23.19 10.32H23.63L23.41 9.76ZM20.46 9.9C20.56 9.9 20.63 9.94 20.69 10C20.74 10.08 20.77 10.17 20.77 10.3V10.31C20.77 10.43 20.74 10.53 20.69 10.6C20.6621 10.6334 20.6267 10.6598 20.5868 10.6772C20.5469 10.6946 20.5035 10.7024 20.46 10.7C20.4118 10.7056 20.363 10.6994 20.3177 10.682C20.2724 10.6646 20.232 10.6365 20.2 10.6V10.99H20.1V9.92H20.2V10.02C20.2299 9.97991 20.2693 9.94793 20.3147 9.92698C20.3602 9.90602 20.4101 9.89674 20.46 9.9ZM21.26 9.9C21.36 9.9 21.43 9.92 21.48 9.97C21.54 10.01 21.56 10.07 21.56 10.15V10.51C21.56 10.59 21.57 10.64 21.59 10.68V10.69H21.49C21.4815 10.654 21.4781 10.617 21.48 10.58C21.4458 10.6237 21.401 10.6581 21.35 10.68C21.3018 10.6967 21.2508 10.7035 21.2 10.7C21.1282 10.7055 21.0569 10.6841 21 10.64C20.977 10.6204 20.9587 10.5958 20.9466 10.568C20.9345 10.5403 20.9288 10.5102 20.93 10.48C20.9288 10.4437 20.9374 10.4078 20.955 10.3761C20.9727 10.3444 20.9986 10.3181 21.03 10.3C21.1155 10.2531 21.2128 10.2323 21.31 10.24H21.48V10.15C21.48 10.1 21.46 10.05 21.42 10.02C21.39 9.99 21.33 9.97 21.26 9.97C21.206 9.97069 21.1536 9.98817 21.11 10.02C21.06 10.05 21.04 10.09 21.04 10.12H20.95C20.95 10.07 20.98 10.02 21.05 9.97C21.1136 9.92315 21.191 9.89855 21.27 9.9H21.26ZM22.16 9.9C22.26 9.9 22.32 9.92 22.36 9.97C22.4 10.02 22.43 10.09 22.43 10.18V10.69H22.33V10.19C22.33 10.11 22.32 10.06 22.29 10.03C22.26 9.99 22.21 9.98 22.14 9.98C22.09 9.98 22.04 9.99 21.99 10.03C21.9452 10.0632 21.9106 10.1082 21.89 10.16V10.69H21.81V9.92H21.89V10.05C21.9187 10.0042 21.9585 9.9665 22.0057 9.94027C22.0529 9.91404 22.106 9.90019 22.16 9.9ZM24.37 9.9C24.47 9.9 24.53 9.92 24.57 9.97C24.61 10.02 24.63 10.09 24.63 10.18V10.69H24.55V10.19C24.55 10.11 24.53 10.06 24.5 10.03C24.47 9.99 24.42 9.98 24.35 9.98C24.3 9.98 24.25 9.99 24.2 10.03C24.1552 10.0632 24.1206 10.1082 24.1 10.16V10.69H24.01V9.92H24.11V10.05C24.1371 10.005 24.1751 9.96767 24.2206 9.94143C24.2661 9.9152 24.3175 9.90094 24.37 9.9ZM26 9.9C26.11 9.9 26.2 9.94 26.26 10.03V9.92H26.35V10.67C26.35 10.77 26.32 10.85 26.26 10.91C26.228 10.9403 26.1903 10.9638 26.1491 10.9793C26.1079 10.9947 26.064 11.0018 26.02 11C25.9644 10.9985 25.9098 10.9849 25.86 10.96C25.8087 10.9385 25.7639 10.9041 25.73 10.86L25.78 10.81C25.8079 10.8441 25.843 10.8716 25.8827 10.8906C25.9225 10.9097 25.9659 10.9197 26.01 10.92C26.09 10.92 26.15 10.9 26.19 10.86C26.23 10.82 26.25 10.76 26.26 10.69V10.59C26.229 10.6283 26.1891 10.6583 26.1437 10.6775C26.0984 10.6967 26.049 10.7044 26 10.7C25.9566 10.7016 25.9134 10.6935 25.8736 10.6761C25.8338 10.6588 25.7984 10.6328 25.77 10.6C25.7086 10.5127 25.6802 10.4063 25.69 10.3C25.69 10.17 25.71 10.08 25.77 10C25.83 9.94 25.9 9.9 26 9.9ZM26.89 9.9C26.99 9.9 27.06 9.93 27.12 10C27.18 10.06 27.22 10.15 27.22 10.26V10.31H26.62V10.32C26.62 10.42 26.65 10.48 26.7 10.54C26.76 10.6 26.83 10.64 26.9 10.64C26.95 10.64 27 10.62 27.04 10.61C27.0789 10.5911 27.113 10.5638 27.14 10.53L27.19 10.57C27.1559 10.6137 27.1117 10.6483 27.0611 10.671C27.0106 10.6936 26.9553 10.7036 26.9 10.7C26.8333 10.7008 26.7677 10.6835 26.71 10.65C26.6555 10.6194 26.6106 10.5744 26.58 10.52C26.5496 10.4579 26.5358 10.389 26.54 10.32V10.29C26.54 10.22 26.55 10.15 26.58 10.09C26.6085 10.0344 26.6514 9.98754 26.7041 9.95413C26.7569 9.92072 26.8176 9.90203 26.88 9.9H26.89ZM27.75 9.9C27.84 9.9 27.9 9.92 27.95 9.97C27.99 10.02 28.01 10.09 28.01 10.18V10.69H27.92V10.19C27.92 10.11 27.9 10.06 27.87 10.03C27.84 9.99 27.79 9.98 27.73 9.98C27.67 9.98 27.62 9.99 27.58 10.03C27.5352 10.0632 27.5006 10.1082 27.48 10.16V10.69H27.39V9.92H27.48V10.05C27.5087 10.0042 27.5485 9.9665 27.5957 9.94027C27.6429 9.91404 27.696 9.90019 27.75 9.9ZM25.38 9.92H25.48V10.69H25.38V9.92ZM26.88 9.97C26.8484 9.96992 26.8172 9.97606 26.788 9.98808C26.7588 10.0001 26.7323 10.0177 26.71 10.04C26.661 10.0954 26.6327 10.1661 26.63 10.24H27.13V10.23C27.1285 10.1588 27.0998 10.0909 27.05 10.04C27.0303 10.017 27.0057 9.99874 26.978 9.98661C26.9503 9.97449 26.9202 9.96881 26.89 9.97H26.88ZM20.44 9.97C20.38 9.97 20.34 9.99 20.29 10.01C20.2496 10.0367 20.2182 10.0751 20.2 10.12V10.49C20.22 10.54 20.25 10.57 20.3 10.59C20.33 10.62 20.38 10.63 20.44 10.63C20.51 10.63 20.57 10.6 20.62 10.54C20.6663 10.4653 20.6873 10.3776 20.68 10.29C20.68 10.19 20.66 10.12 20.62 10.06C20.5988 10.033 20.5713 10.0115 20.5399 9.99759C20.5086 9.98364 20.4742 9.9776 20.44 9.98V9.97ZM26.02 9.97C25.9849 9.96873 25.95 9.97631 25.9185 9.99203C25.8871 10.0078 25.8601 10.0311 25.84 10.06C25.8 10.12 25.78 10.2 25.78 10.31C25.78 10.41 25.8 10.49 25.84 10.54C25.88 10.6 25.94 10.63 26.02 10.63C26.13 10.63 26.21 10.58 26.26 10.49V10.13C26.241 10.0828 26.2076 10.0428 26.1645 10.0159C26.1213 9.9889 26.0707 9.97634 26.02 9.98V9.97ZM21.32 10.3C21.22 10.3 21.15 10.32 21.1 10.35C21.0755 10.3616 21.0549 10.3801 21.0407 10.4031C21.0265 10.4262 21.0193 10.4529 21.02 10.48C21.02 10.52 21.04 10.56 21.07 10.58C21.1085 10.614 21.1586 10.6319 21.21 10.63C21.27 10.63 21.32 10.61 21.37 10.59C21.4148 10.5612 21.4497 10.5193 21.47 10.47V10.3H21.31H21.32ZM19.28 13.81H19.37V14.85H19.27V13.81H19.28ZM19.67 13.81H19.97C20.07 13.81 20.15 13.83 20.22 13.87C20.29 13.91 20.35 13.97 20.39 14.04C20.4298 14.1137 20.4504 14.1962 20.45 14.28V14.38C20.4521 14.4671 20.4314 14.5533 20.39 14.63C20.3505 14.6991 20.2913 14.7548 20.22 14.79C20.143 14.8306 20.057 14.8512 19.97 14.85H19.67V13.81ZM19.77 13.89V14.78H19.97C20.09 14.78 20.18 14.74 20.25 14.67C20.2862 14.6294 20.3137 14.5819 20.3309 14.5303C20.3481 14.4787 20.3546 14.4242 20.35 14.37V14.28C20.3532 14.2275 20.3461 14.1748 20.3289 14.125C20.3117 14.0753 20.2849 14.0294 20.25 13.99C20.214 13.9561 20.1715 13.9298 20.1251 13.9127C20.0787 13.8955 20.0294 13.8878 19.98 13.89H19.76H19.77ZM20.71 14.08C20.73 14.08 20.75 14.08 20.76 14.1L20.78 14.14C20.78 14.16 20.78 14.17 20.76 14.18C20.7534 14.1865 20.7456 14.1916 20.737 14.195C20.7284 14.1984 20.7192 14.2001 20.71 14.2C20.69 14.2 20.68 14.2 20.66 14.18C20.6484 14.1697 20.6413 14.1554 20.64 14.14L20.66 14.1C20.6662 14.093 20.6739 14.0875 20.6826 14.0841C20.6913 14.0806 20.7007 14.0792 20.71 14.08ZM20.71 14.74C20.73 14.74 20.74 14.74 20.76 14.76L20.77 14.8L20.76 14.84C20.7538 14.847 20.746 14.8525 20.7374 14.8559C20.7287 14.8594 20.7193 14.8608 20.71 14.86C20.69 14.86 20.67 14.86 20.66 14.84C20.6538 14.8353 20.6487 14.8293 20.6453 14.8224C20.6418 14.8154 20.64 14.8078 20.64 14.8C20.64 14.78 20.64 14.77 20.66 14.76C20.6666 14.7535 20.6744 14.7484 20.683 14.745C20.6916 14.7416 20.7007 14.7399 20.71 14.74ZM21.54 14.78H28.96C29.1 14.78 29.2 14.8 29.2 14.82C29.2 14.84 29.1 14.86 28.96 14.86H21.54C21.41 14.86 21.3 14.84 21.3 14.82C21.3 14.8 21.4 14.78 21.54 14.78ZM24.08 16.29C24.3837 16.29 24.6844 16.3501 24.9648 16.467C25.2452 16.5838 25.4996 16.755 25.7134 16.9707C25.9273 17.1864 26.0963 17.4423 26.2107 17.7237C26.3251 18.005 26.3826 18.3063 26.38 18.61L26.39 28.24C26.39 28.8526 26.1466 29.4402 25.7134 29.8734C25.2802 30.3066 24.6926 30.55 24.08 30.55C23.4673 30.55 22.8798 30.3066 22.4466 29.8734C22.0134 29.4402 21.77 28.8526 21.77 28.24V18.61C21.7673 18.3063 21.8249 18.005 21.9393 17.7237C22.0537 17.4423 22.2227 17.1864 22.4365 16.9707C22.6504 16.755 22.9048 16.5838 23.1852 16.467C23.4655 16.3501 23.7663 16.29 24.07 16.29H24.08ZM24.08 16.8C23.08 16.8 22.28 17.6 22.28 18.6V20.09H25.88V18.6C25.88 17.6 25.08 16.8 24.08 16.8ZM28.13 19.26C28.37 19.26 28.56 19.32 28.7 19.45C28.85 19.57 28.93 19.75 28.95 19.98H28.53C28.52 19.85 28.48 19.75 28.42 19.69C28.35 19.63 28.26 19.6 28.12 19.6C27.99 19.6 27.88 19.65 27.82 19.76C27.74 19.86 27.7 20.01 27.7 20.23V20.38C27.7 20.6 27.74 20.77 27.8 20.87C27.87 20.97 27.98 21.02 28.12 21.02C28.25 21.02 28.35 20.99 28.42 20.93C28.48 20.87 28.52 20.78 28.52 20.66H28.95C28.94 20.88 28.85 21.06 28.71 21.18C28.5438 21.3145 28.3334 21.3822 28.12 21.37C28.003 21.3744 27.8865 21.3524 27.7792 21.3057C27.6719 21.2589 27.5764 21.1886 27.5 21.1C27.342 20.8907 27.264 20.6318 27.28 20.37V20.25C27.28 20.05 27.31 19.87 27.38 19.72C27.4442 19.5768 27.5501 19.4562 27.6839 19.3742C27.8177 19.2921 27.9732 19.2523 28.13 19.26ZM22.29 20.6V28.24C22.29 28.7174 22.4796 29.1752 22.8172 29.5128C23.1548 29.8504 23.6126 30.04 24.09 30.04C24.5674 30.04 25.0252 29.8504 25.3628 29.5128C25.7003 29.1752 25.89 28.7174 25.89 28.24C25.89 25.78 25.87 23.31 25.88 20.84V20.6H22.29ZM27.28 25.57H28.95V25.91H28.32V27.62H27.9V25.91H27.28V25.57ZM23.99 31.86C24.2369 31.86 24.4813 31.9086 24.7094 32.0031C24.9375 32.0976 25.1448 32.2361 25.3193 32.4106C25.4939 32.5852 25.6324 32.7925 25.7269 33.0206C25.8214 33.2486 25.87 33.4931 25.87 33.74C25.87 33.9869 25.8214 34.2314 25.7269 34.4594C25.6324 34.6875 25.4939 34.8948 25.3193 35.0694C25.1448 35.2439 24.9375 35.3824 24.7094 35.4769C24.4813 35.5714 24.2369 35.62 23.99 35.62C23.4914 35.62 23.0132 35.4219 22.6606 35.0694C22.3081 34.7168 22.11 34.2386 22.11 33.74C22.11 33.2414 22.3081 32.7632 22.6606 32.4106C23.0132 32.0581 23.4914 31.86 23.99 31.86ZM23.99 32.36C23.7187 32.3595 23.4533 32.4396 23.2275 32.5901C23.0018 32.7406 22.8258 32.9547 22.7219 33.2054C22.618 33.456 22.5908 33.7319 22.6439 33.998C22.697 34.2641 22.8279 34.5084 23.02 34.7C23.278 34.9558 23.6266 35.0996 23.99 35.1C24.1791 35.1162 24.3694 35.0929 24.5491 35.0317C24.7287 34.9705 24.8936 34.8726 25.0334 34.7442C25.1732 34.6159 25.2848 34.4599 25.3612 34.2862C25.4375 34.1125 25.4769 33.9248 25.4769 33.735C25.4769 33.5452 25.4375 33.3575 25.3612 33.1838C25.2848 33.0101 25.1732 32.8541 25.0334 32.7258C24.8936 32.5974 24.7287 32.4995 24.5491 32.4383C24.3694 32.3771 24.1791 32.3538 23.99 32.37V32.36ZM27.51 32.76C27.66 32.76 27.79 32.79 27.91 32.84C28.02 32.89 28.11 32.97 28.17 33.07C28.24 33.17 28.27 33.27 28.27 33.4H27.85C27.85 33.3 27.82 33.23 27.75 33.18C27.6823 33.1252 27.597 33.0968 27.51 33.1C27.41 33.1 27.32 33.12 27.27 33.16C27.2387 33.1773 27.2127 33.2026 27.1945 33.2334C27.1764 33.2642 27.1668 33.2993 27.1668 33.335C27.1668 33.3707 27.1764 33.4058 27.1945 33.4366C27.2127 33.4674 27.2387 33.4927 27.27 33.51L27.57 33.63C27.82 33.71 28 33.79 28.11 33.9C28.21 34.01 28.27 34.14 28.27 34.3C28.2732 34.381 28.2566 34.4615 28.2218 34.5347C28.187 34.6078 28.1349 34.6714 28.07 34.72C27.9078 34.8283 27.7147 34.8809 27.52 34.87C27.37 34.87 27.22 34.84 27.09 34.79C26.9693 34.74 26.8653 34.6568 26.79 34.55C26.7218 34.4462 26.6869 34.3241 26.69 34.2H27.12C27.12 34.43 27.25 34.54 27.52 34.54C27.6043 34.5459 27.6883 34.5249 27.76 34.48C27.7881 34.4615 27.811 34.4362 27.8268 34.4065C27.8425 34.3768 27.8505 34.3436 27.85 34.31C27.852 34.2733 27.8449 34.2367 27.8292 34.2036C27.8134 34.1704 27.7897 34.1416 27.76 34.12C27.6672 34.0617 27.566 34.0179 27.46 33.99L27.11 33.85C26.87 33.72 26.76 33.55 26.76 33.34C26.7571 33.2329 26.7886 33.1278 26.85 33.04C26.9199 32.9498 27.0133 32.8805 27.12 32.84C27.24 32.78 27.37 32.76 27.52 32.76H27.51ZM28.93 33.53H28.95V34.87H28.69V33.85L28.37 33.95V33.73L28.93 33.53ZM24 36.8C24.3637 36.7777 24.7281 36.8301 25.0708 36.954C25.4135 37.0778 25.7272 37.2705 25.9926 37.5201C26.2581 37.7698 26.4696 38.0711 26.6141 38.4056C26.7587 38.7401 26.8333 39.1006 26.8333 39.465C26.8333 39.8294 26.7587 40.1899 26.6141 40.5244C26.4696 40.8589 26.2581 41.1602 25.9926 41.4099C25.7272 41.6595 25.4135 41.8522 25.0708 41.976C24.7281 42.0999 24.3637 42.1523 24 42.13C23.3214 42.0884 22.6842 41.7895 22.2185 41.2943C21.7527 40.7991 21.4933 40.1449 21.4933 39.465C21.4933 38.7851 21.7527 38.1309 22.2185 37.6357C22.6842 37.1405 23.3214 36.8416 24 36.8ZM24 37.31C23.4284 37.31 22.8803 37.537 22.4762 37.9412C22.072 38.3453 21.845 38.8935 21.845 39.465C21.845 40.0365 22.072 40.5847 22.4762 40.9888C22.8803 41.393 23.4284 41.62 24 41.62C24.5702 41.62 25.1171 41.3935 25.5203 40.9903C25.9235 40.5871 26.15 40.0402 26.15 39.47C26.15 38.8998 25.9235 38.3529 25.5203 37.9497C25.1171 37.5465 24.5702 37.32 24 37.32V37.31ZM28.13 38.36C28.28 38.36 28.41 38.39 28.53 38.44C28.63 38.5 28.73 38.57 28.79 38.67C28.85 38.77 28.89 38.87 28.89 39H28.46C28.46 38.9 28.43 38.83 28.37 38.78C28.2997 38.7228 28.2104 38.6943 28.12 38.7C28.02 38.7 27.94 38.72 27.88 38.77C27.8516 38.7888 27.8284 38.8145 27.8127 38.8447C27.797 38.875 27.7893 38.9087 27.7903 38.9428C27.7913 38.9768 27.801 39.0101 27.8184 39.0393C27.8359 39.0686 27.8605 39.0929 27.89 39.11C27.96 39.15 28.06 39.2 28.19 39.23C28.43 39.31 28.61 39.4 28.72 39.5C28.83 39.61 28.88 39.74 28.88 39.9C28.8832 39.981 28.8666 40.0615 28.8318 40.1347C28.797 40.2078 28.7449 40.2714 28.68 40.32C28.5205 40.4262 28.3314 40.4787 28.14 40.47C27.98 40.47 27.84 40.45 27.71 40.39C27.5893 40.34 27.4853 40.2568 27.41 40.15C27.3418 40.0462 27.3069 39.9241 27.31 39.8H27.73C27.73 40.03 27.87 40.14 28.13 40.14C28.2177 40.1481 28.3055 40.127 28.38 40.08C28.4062 40.0604 28.4272 40.0346 28.4412 40.005C28.4551 39.9753 28.4616 39.9427 28.46 39.91C28.462 39.8733 28.4549 39.8367 28.4392 39.8036C28.4234 39.7704 28.3997 39.7416 28.37 39.72C28.2772 39.6617 28.176 39.6179 28.07 39.59L27.72 39.45C27.49 39.32 27.37 39.15 27.37 38.94C27.37 38.8318 27.4051 38.7265 27.47 38.64C27.5368 38.5508 27.6267 38.4817 27.73 38.44C27.85 38.39 27.98 38.36 28.13 38.36Z" fill="#333333"/>
</svg>
