<svg width="48" height="48" viewBox="0 0 48 48" fill="none" xmlns="http://www.w3.org/2000/svg">
<path d="M10.6499 17.8027V17.8047C10.2939 17.8047 10.0059 17.9217 9.78703 18.1577C9.56833 18.3927 9.45893 18.7227 9.45893 19.1477C9.45893 19.5497 9.56753 19.8667 9.78513 20.0997C10.0029 20.3307 10.2809 20.4467 10.6189 20.4467C10.8919 20.4467 11.1159 20.3787 11.2929 20.2437C11.4709 20.1077 11.5989 19.9017 11.6759 19.6227L11.1779 19.4647C11.1349 19.6517 11.0629 19.7877 10.9649 19.8747C10.8659 19.9617 10.7499 20.0057 10.6129 20.0057C10.4279 20.0057 10.2779 19.9377 10.1619 19.8007C10.0459 19.6637 9.98823 19.4317 9.98823 19.1087C9.98823 18.8047 10.0469 18.5847 10.1639 18.4487C10.2819 18.3137 10.4339 18.2457 10.6229 18.2457C10.7599 18.2457 10.8759 18.2847 10.9709 18.3587C11.0669 18.4357 11.1299 18.5417 11.1599 18.6737L11.6679 18.5507C11.6099 18.3457 11.5239 18.1887 11.4079 18.0797C11.2139 17.8947 10.9619 17.8027 10.6499 17.8027ZM26.5677 17.8047C26.4327 17.8047 26.3197 17.8277 26.2297 17.8767C26.1427 17.9247 26.0817 17.9877 26.0487 18.0637C26.0157 18.1407 25.9997 18.2567 25.9997 18.4117V18.5527H25.7287V18.9377H25.9997V20.4037H26.4877V18.9377H26.8517V18.5527H26.4877V18.4217C26.4877 18.3277 26.5027 18.2647 26.5327 18.2317C26.5637 18.2007 26.6147 18.1817 26.6857 18.1817C26.7567 18.1817 26.8327 18.1887 26.9097 18.2087L26.9767 17.8667C26.8427 17.8247 26.7067 17.8047 26.5677 17.8047ZM16.0038 17.8477V20.4017H16.5178V19.4387H16.8538C17.0858 19.4387 17.2638 19.4277 17.3868 19.4037C17.4768 19.3837 17.5658 19.3437 17.6518 19.2827C17.7398 19.2217 17.8118 19.1357 17.8688 19.0287C17.9258 18.9217 17.9528 18.7917 17.9528 18.6347C17.9528 18.4307 17.9048 18.2667 17.8068 18.1387C17.7078 18.0097 17.5848 17.9247 17.4388 17.8867C17.3448 17.8627 17.1408 17.8477 16.8278 17.8477H16.0038ZM23.5718 17.8477V20.4017H24.0857V19.4387H24.4197C24.6527 19.4387 24.8297 19.4277 24.9527 19.4037C25.0427 19.3837 25.1317 19.3437 25.2187 19.2827C25.3067 19.2217 25.3787 19.1357 25.4357 19.0287C25.4917 18.9217 25.5207 18.7917 25.5207 18.6347C25.5207 18.4307 25.4707 18.2667 25.3727 18.1387C25.2747 18.0097 25.1537 17.9247 25.0077 17.8867C24.9127 17.8627 24.7087 17.8477 24.3957 17.8477H23.5718ZM16.5178 18.2787H16.7678C16.9528 18.2787 17.0748 18.2887 17.1368 18.3007C17.2198 18.3167 17.2888 18.3537 17.3438 18.4137C17.3978 18.4737 17.4238 18.5487 17.4238 18.6427C17.4238 18.7177 17.4048 18.7847 17.3648 18.8417C17.3268 18.8987 17.2728 18.9417 17.2048 18.9687C17.1368 18.9967 17.0008 19.0077 16.7988 19.0077H16.5178V18.2787ZM24.0857 18.2787H24.3337C24.5187 18.2787 24.6417 18.2887 24.7027 18.3007C24.7857 18.3167 24.8557 18.3537 24.9097 18.4137C24.9647 18.4737 24.9917 18.5487 24.9917 18.6427C24.9917 18.7177 24.9707 18.7847 24.9317 18.8417C24.8927 18.8987 24.8417 18.9417 24.7727 18.9687C24.7047 18.9967 24.5697 19.0077 24.3667 19.0077H24.0857V18.2787ZM18.1388 18.5527L18.8828 20.4017H19.3218L20.0548 18.5527H19.5528L19.2008 19.4957C19.1828 19.5477 19.1668 19.6007 19.1498 19.6537C19.1428 19.6777 19.1258 19.7327 19.0998 19.8117L18.9978 19.4957L18.6518 18.5527H18.1388ZM8.24215 21.6407C5.89178 21.6407 4 23.5317 4 25.8826V25.9526C4 28.3036 5.89178 30.1966 8.24215 30.1966H39.7578C42.1077 30.1966 43.9997 28.3036 43.9997 25.9526V25.8826C43.9997 23.5317 42.1077 21.6407 39.7578 21.6407H8.24215ZM8.73824 22.1557H39.2339C41.5848 22.1557 43.4768 23.8347 43.4768 25.9196C43.4768 28.0046 41.5848 29.6836 39.2339 29.6836H8.73824C6.38817 29.6836 4.49639 28.0046 4.49639 25.9196C4.49639 23.8347 6.38817 22.1557 8.73854 22.1557H8.73824ZM39.7808 23.2377C39.0733 23.2377 38.3947 23.5188 37.8943 24.0191C37.394 24.5194 37.1129 25.198 37.1129 25.9056C37.1129 26.6132 37.394 27.2918 37.8943 27.7922C38.3947 28.2925 39.0733 28.5736 39.7808 28.5736C40.4884 28.5736 41.167 28.2925 41.6674 27.7922C42.1677 27.2918 42.4488 26.6132 42.4488 25.9056C42.4488 25.198 42.1677 24.5194 41.6674 24.0191C41.167 23.5188 40.4884 23.2377 39.7808 23.2377ZM8.55124 23.5157C7.27016 23.5157 6.23877 24.5467 6.23877 25.8256C6.23877 27.1046 7.27016 28.1346 8.55124 28.1346H28.57C29.851 28.1346 30.883 27.1046 30.883 25.8256C30.883 24.5467 29.851 23.5157 28.57 23.5157H8.55124ZM39.7808 23.7537C40.0635 23.7536 40.3434 23.8092 40.6046 23.9173C40.8658 24.0254 41.1032 24.1839 41.3031 24.3837C41.503 24.5835 41.6616 24.8208 41.7698 25.0819C41.8781 25.3431 41.9338 25.623 41.9338 25.9056C41.9339 26.1884 41.8783 26.4684 41.7701 26.7297C41.662 26.9909 41.5034 27.2283 41.3034 27.4282C41.1035 27.6282 40.8661 27.7867 40.6049 27.8949C40.3436 28.0031 40.0636 28.0587 39.7808 28.0586C39.4982 28.0586 39.2183 28.0028 38.9571 27.8946C38.696 27.7864 38.4587 27.6278 38.2589 27.4279C38.0591 27.2279 37.9006 26.9906 37.7925 26.7294C37.6844 26.4682 37.6288 26.1883 37.6289 25.9056C37.629 25.3349 37.8557 24.7876 38.2593 24.384C38.6628 23.9805 39.2101 23.7537 39.7808 23.7537ZM8.54724 24.0247H10.3893V27.6166H8.54724C7.55256 27.6166 6.75037 26.8146 6.75037 25.8196C6.75037 24.8256 7.55256 24.0247 8.54724 24.0247ZM10.9023 24.0247H17.9822V27.6166H10.9023V24.0247ZM18.4962 24.0247H25.5921V27.6166H18.4962V24.0247ZM26.1071 24.0247H28.5621C29.5571 24.0247 30.3591 24.8256 30.3591 25.8196C30.3591 26.8146 29.5571 27.6166 28.5621 27.6166H26.1071V24.0247ZM34.062 24.0347C33.8153 24.0347 33.5711 24.0833 33.3432 24.1778C33.1153 24.2722 32.9082 24.4107 32.7338 24.5851C32.5594 24.7596 32.4211 24.9668 32.3268 25.1947C32.2325 25.4226 32.184 25.6669 32.184 25.9136C32.184 26.1603 32.2325 26.4046 32.3268 26.6326C32.4211 26.8605 32.5594 27.0676 32.7338 27.2421C32.9082 27.4166 33.1153 27.555 33.3432 27.6495C33.5711 27.7439 33.8153 27.7926 34.062 27.7926C34.3088 27.7927 34.5532 27.7442 34.7812 27.6498C35.0092 27.5554 35.2164 27.417 35.3909 27.2425C35.5654 27.068 35.7038 26.8608 35.7982 26.6328C35.8926 26.4048 35.9411 26.1604 35.941 25.9136C35.9411 25.6669 35.8926 25.4225 35.7982 25.1945C35.7038 24.9665 35.5654 24.7593 35.3909 24.5848C35.2164 24.4103 35.0092 24.2719 34.7812 24.1775C34.5532 24.0831 34.3088 24.0346 34.062 24.0347ZM34.062 24.5427C34.2422 24.5424 34.4206 24.5777 34.5871 24.6465C34.7536 24.7152 34.905 24.8162 35.0324 24.9436C35.1598 25.0709 35.2609 25.2221 35.3298 25.3886C35.3987 25.5551 35.4341 25.7335 35.434 25.9136C35.4339 26.0936 35.3983 26.2718 35.3292 26.4381C35.2602 26.6043 35.1591 26.7553 35.0317 26.8824C34.9043 27.0096 34.7531 27.1103 34.5867 27.179C34.4203 27.2477 34.242 27.2829 34.062 27.2826C33.699 27.2824 33.351 27.138 33.0943 26.8814C32.8376 26.6247 32.6933 26.2766 32.693 25.9136C32.6929 25.7337 32.7282 25.5556 32.7969 25.3893C32.8657 25.223 32.9665 25.0719 33.0936 24.9446C33.2207 24.8173 33.3717 24.7163 33.5378 24.6473C33.704 24.5783 33.8821 24.5428 34.062 24.5427Z" fill="#333333"/>
</svg>
