<svg width="48" height="48" viewBox="0 0 48 48" fill="none" xmlns="http://www.w3.org/2000/svg">
<path d="M0 0V48H48V0H0ZM10.65 17.8C10.96 17.8 11.21 17.9 11.41 18.08C11.52 18.18 11.61 18.35 11.67 18.55L11.16 18.67C11.1344 18.5478 11.0673 18.4383 10.97 18.36C10.8694 18.2844 10.7458 18.2455 10.62 18.25C10.5332 18.2468 10.4469 18.2631 10.3673 18.2977C10.2876 18.3323 10.2168 18.3844 10.16 18.45C10.05 18.59 9.99 18.81 9.99 19.11C9.99 19.43 10.05 19.66 10.16 19.81C10.28 19.94 10.43 20.01 10.61 20.01C10.75 20.01 10.87 19.96 10.96 19.87C11.06 19.79 11.13 19.65 11.18 19.47L11.68 19.62C11.6 19.9 11.48 20.11 11.29 20.24C11.12 20.38 10.89 20.44 10.62 20.44C10.4655 20.4448 10.3118 20.417 10.1688 20.3584C10.0258 20.2999 9.8967 20.2118 9.79 20.1C9.56083 19.8382 9.44249 19.4975 9.46 19.15C9.46 18.72 9.56 18.39 9.79 18.15C10.01 17.92 10.29 17.8 10.65 17.8ZM26.57 17.8C26.71 17.8 26.84 17.83 26.97 17.87L26.91 18.21C26.8382 18.191 26.7643 18.1809 26.69 18.18C26.61 18.18 26.56 18.2 26.53 18.23C26.5 18.27 26.49 18.33 26.49 18.43V18.55H26.85V18.94H26.49V20.4H26V18.94H25.73V18.55H26V18.41C26 18.26 26.02 18.14 26.05 18.06C26.0888 17.982 26.152 17.9188 26.23 17.88C26.3348 17.825 26.4517 17.7975 26.57 17.8ZM16 17.85H16.83C17.14 17.85 17.35 17.86 17.44 17.89C17.59 17.92 17.71 18.01 17.81 18.14C17.91 18.27 17.95 18.44 17.95 18.64C17.95 18.79 17.93 18.92 17.87 19.03C17.8228 19.1237 17.7552 19.2056 17.6721 19.2696C17.589 19.3337 17.4926 19.3782 17.39 19.4C17.2116 19.4296 17.0308 19.443 16.85 19.44H16.52V20.4H16V17.85ZM23.57 17.85H24.4C24.7 17.85 24.91 17.86 25 17.89C25.15 17.92 25.27 18.01 25.37 18.14C25.47 18.27 25.52 18.44 25.52 18.64C25.52 18.79 25.49 18.92 25.44 19.03C25.3918 19.1249 25.3226 19.2075 25.2377 19.2716C25.1528 19.3357 25.0544 19.3796 24.95 19.4C24.83 19.43 24.65 19.44 24.42 19.44H24.09V20.4H23.57V17.85ZM16.52 18.28V19H16.8C17 19 17.14 18.99 17.2 18.96C17.2666 18.9349 17.3236 18.8896 17.3631 18.8304C17.4026 18.7712 17.4225 18.7011 17.42 18.63C17.42 18.53 17.4 18.46 17.34 18.4C17.2852 18.3468 17.2154 18.3119 17.14 18.3C17.0177 18.2798 16.894 18.2697 16.77 18.27H16.52V18.28ZM24.09 18.28V19H24.37C24.57 19 24.71 18.99 24.77 18.96C24.8357 18.9337 24.892 18.8881 24.9313 18.8292C24.9705 18.7702 24.991 18.7008 24.99 18.63C24.99 18.53 24.97 18.46 24.91 18.4C24.8556 18.3463 24.7856 18.3113 24.71 18.3C24.5844 18.2792 24.4573 18.2691 24.33 18.27H24.09V18.28ZM18.14 18.55H18.65L19 19.5L19.1 19.81L19.15 19.65L19.2 19.5L19.55 18.55H20.05L19.32 20.4H18.88L18.14 18.55ZM8.24 21.65H39.76C42.11 21.65 44 23.53 44 25.88V25.95C44 28.3 42.1 30.2 39.76 30.2H8.24C7.68198 30.2013 7.12921 30.0922 6.61354 29.879C6.09787 29.6658 5.62949 29.3526 5.23537 28.9575C4.84125 28.5625 4.5292 28.0934 4.31718 27.5772C4.10516 27.061 3.99736 26.508 4 25.95V25.88C4 23.53 5.9 21.64 8.24 21.64V21.65ZM39.78 23.75C39.2085 23.75 38.6603 23.977 38.2562 24.3812C37.852 24.7853 37.625 25.3335 37.625 25.905C37.625 26.4765 37.852 27.0247 38.2562 27.4288C38.6603 27.833 39.2085 28.06 39.78 28.06C40.3502 28.06 40.8971 27.8335 41.3003 27.4303C41.7035 27.0271 41.93 26.4802 41.93 25.91C41.93 25.3398 41.7035 24.7929 41.3003 24.3897C40.8971 23.9865 40.3502 23.76 39.78 23.76V23.75ZM8.55 24.03C8.30301 24.0116 8.05487 24.0443 7.82111 24.1261C7.58735 24.208 7.37299 24.3372 7.19146 24.5057C7.00992 24.6741 6.8651 24.8783 6.76607 25.1053C6.66704 25.3323 6.61593 25.5773 6.61593 25.825C6.61593 26.0727 6.66704 26.3177 6.76607 26.5447C6.8651 26.7717 7.00992 26.9759 7.19146 27.1443C7.37299 27.3128 7.58735 27.442 7.82111 27.5239C8.05487 27.6057 8.30301 27.6384 8.55 27.62H25.59V24.02H8.55V24.03ZM26.11 24.03V27.62H28.56C29.0374 27.62 29.4952 27.4304 29.8328 27.0928C30.1704 26.7552 30.36 26.2974 30.36 25.82C30.36 25.3426 30.1704 24.8848 29.8328 24.5472C29.4952 24.2096 29.0374 24.02 28.56 24.02H26.11V24.03ZM34.06 24.54C33.6967 24.54 33.3482 24.6843 33.0913 24.9413C32.8343 25.1982 32.69 25.5467 32.69 25.91C32.69 26.2733 32.8343 26.6218 33.0913 26.8787C33.3482 27.1357 33.6967 27.28 34.06 27.28C34.4233 27.28 34.7718 27.1357 35.0287 26.8787C35.2857 26.6218 35.43 26.2733 35.43 25.91C35.43 25.5467 35.2857 25.1982 35.0287 24.9413C34.7718 24.6843 34.4233 24.54 34.06 24.54Z" fill="#333333"/>
</svg>
