<?xml version="1.0" encoding="UTF-8" standalone="no"?>
<!-- Created with Inkscape (http://www.inkscape.org/) -->
<svg id="svg8" xmlns:rdf="http://www.w3.org/1999/02/22-rdf-syntax-ns#" xmlns="http://www.w3.org/2000/svg" xmlns:osb="http://www.openswatchbook.org/uri/2009/osb" height="48" width="48" version="1.1" enable-background="new" xmlns:cc="http://creativecommons.org/ns#" viewBox="0 0 12.7 12.7" xmlns:dc="http://purl.org/dc/elements/1.1/">
 <title id="title4753">UIO-icon</title>
 <metadata id="metadata5">
  <rdf:RDF>
   <cc:Work rdf:about="">
    <dc:format>image/svg+xml</dc:format>
    <dc:type rdf:resource="http://purl.org/dc/dcmitype/StillImage"/>
    <dc:title>UIO-icon</dc:title>
    <dc:creator>
     <cc:Agent>
      <dc:title>Joaquín Urbano</dc:title>
     </cc:Agent>
    </dc:creator>
    <dc:rights>
     <cc:Agent>
      <dc:title>GPL</dc:title>
     </cc:Agent>
    </dc:rights>
   </cc:Work>
  </rdf:RDF>
 </metadata>
 <g id="layer1" transform="translate(0,-284.3)" fill="#333">
  <path id="text9299" d="m10.65 17.803v0.001953c-0.35643 0-0.64456 0.11719-0.86328 0.35352-0.21872 0.23474-0.32812 0.56492-0.32812 0.99023 0 0.40204 0.10861 0.71874 0.32617 0.95117 0.21756 0.23155 0.49607 0.34766 0.83398 0.34766 0.27311 0 0.49677-0.068249 0.67383-0.20312 0.17821-0.13567 0.30643-0.3422 0.38281-0.62109l-0.49805-0.1582c-0.042818 0.187-0.11452 0.32322-0.21289 0.41016-0.098367 0.086733-0.21501 0.13086-0.35156 0.13086-0.18516 0-0.33545-0.06742-0.45117-0.20508-0.11573-0.13686-0.17383-0.3685-0.17383-0.69141 0-0.30436 0.058898-0.52417 0.17578-0.66016 0.11804-0.13567 0.27035-0.20312 0.45898-0.20312 0.13656 0 0.25277 0.038484 0.34766 0.11328 0.096051 0.076789 0.15937 0.18237 0.18945 0.31445l0.50781-0.12305c-0.057-0.206-0.143-0.363-0.259-0.472-0.194-0.185-0.446-0.277-0.758-0.277zm15.918 0.001953c-0.1354 0-0.24878 0.022947-0.33789 0.072266-0.087951 0.047743-0.14808 0.11072-0.18164 0.1875-0.032 0.076-0.048 0.192-0.048 0.347v0.14062h-0.271v0.385h0.271v1.4668h0.48828v-1.467h0.364v-0.385h-0.364v-0.131c0-0.094292 0.014808-0.15723 0.044922-0.18945 0.031272-0.031824 0.081748-0.050781 0.15234-0.050781 0.071746 0 0.14707 0.007463 0.22461 0.027344l0.066406-0.3418c-0.13308-0.042172-0.26933-0.0625-0.4082-0.0625zm-10.564 0.042969v2.5547h0.51367v-0.96289h0.33594c0.2326 0 0.41053-0.011308 0.5332-0.035156 0.090262-0.01988 0.17883-0.060618 0.26562-0.12109 0.087951-0.06127 0.16009-0.14688 0.2168-0.25391 0.056707-0.10702 0.083984-0.23777 0.083984-0.39453 0-0.2033-0.048114-0.3681-0.14648-0.49609-0.098367-0.12891-0.22138-0.21416-0.36719-0.25195-0.094894-0.023887-0.29887-0.039062-0.61133-0.039062zm7.5684 0v2.5547h0.51367v-0.96289h0.33398c0.2326 0 0.41053-0.011308 0.5332-0.035156 0.090262-0.01988 0.17883-0.060618 0.26562-0.12109 0.087951-0.06127 0.16009-0.14688 0.2168-0.25391 0.056707-0.10702 0.085938-0.23777 0.085938-0.39453 0-0.2033-0.050067-0.3681-0.14844-0.49609-0.098367-0.12891-0.21942-0.21416-0.36523-0.25195-0.094894-0.023887-0.29887-0.039062-0.61133-0.039062zm-7.0547 0.43164h0.25c0.18516 0 0.30781 0.009579 0.36914 0.021484 0.08332 0.015912 0.15264 0.052809 0.20703 0.11328 0.054392 0.060076 0.080078 0.13542 0.080078 0.22852 0 0.075594-0.019269 0.14192-0.058594 0.19922-0.038195 0.056893-0.091876 0.099899-0.16016 0.12695-0.068281 0.027855-0.20374 0.039062-0.40625 0.039062h-0.28125zm7.5684 0h0.24805c0.18516 0 0.30781 0.009579 0.36914 0.021484 0.08332 0.015912 0.15264 0.052809 0.20703 0.11328 0.054392 0.060076 0.082031 0.13542 0.082031 0.22852 0 0.075594-0.021222 0.14192-0.060547 0.19922-0.038195 0.056893-0.089926 0.099899-0.1582 0.12695-0.068277 0.027855-0.20373 0.039062-0.40625 0.039062h-0.28125zm-5.9473 0.27344 0.74414 1.8496h0.43945l0.73242-1.8496h-0.50195l-0.35156 0.94336c-0.01854 0.05212-0.034572 0.10529-0.050781 0.1582-0.006923 0.023887-0.024168 0.078236-0.050781 0.1582l-0.10156-0.31641-0.3457-0.94336zm-9.8958 3.088c-2.3504 0-4.2422 1.891-4.2422 4.242v0.070312c0 2.3504 1.8918 4.2441 4.2422 4.2441h31.516c2.35 0 4.242-1.893 4.242-4.244v-0.07c0-2.351-1.892-4.242-4.242-4.242zm31.539 2.113c1.1887 1.2e-7 2.1523 0.96364 2.1523 2.1523-1.2e-7 1.1887-0.96364 2.1523-2.1523 2.1523-1.1887-1.2e-7 -2.1523-0.96364-2.1523-2.1523 1.2e-7 -1.1887 0.96364-2.1523 2.1523-2.1523zm-31.234 0.271h17.045v3.592h-17.045c-0.9947 0-1.7969-0.80218-1.7969-1.7969 0-0.9947 0.80218-1.7949 1.7969-1.7949zm17.561 0h2.454c0.9947 0 1.7969 0.80022 1.7969 1.7949 0 0.9947-0.80218 1.7969-1.7969 1.7969h-2.455zm7.954 0.518c0.75748-0.00059429 1.3717 0.61361 1.3711 1.3711-0.0004851 0.75672-0.61438 1.3697-1.3711 1.3691-0.75595-0.00048469-1.3687-0.61319-1.3691-1.3691-0.00059361-0.75672 0.61242-1.3706 1.3691-1.3711z" transform="matrix(.26458 0 0 .26458 0 284.3)"/>
 </g>
</svg>
