<svg width="48" height="48" viewBox="0 0 48 48" fill="none" xmlns="http://www.w3.org/2000/svg">
<path d="M10.6504 17.8027V17.8047C10.2944 17.8047 10.006 17.9222 9.78711 18.1582C9.56841 18.3932 9.45898 18.7234 9.45898 19.1484C9.45898 19.5504 9.56756 19.8666 9.78516 20.0996C10.0029 20.3306 10.2811 20.4473 10.6191 20.4473C10.8921 20.4473 11.116 20.3791 11.293 20.2441C11.471 20.1081 11.5988 19.902 11.6758 19.623L11.1777 19.4648C11.1347 19.6518 11.0628 19.788 10.9648 19.875C10.8658 19.962 10.7503 20.0059 10.6133 20.0059C10.4283 20.0059 10.2781 19.9378 10.1621 19.8008C10.0461 19.6638 9.98828 19.4324 9.98828 19.1094C9.98828 18.8054 10.0471 18.5852 10.1641 18.4492C10.2821 18.3142 10.434 18.2461 10.623 18.2461C10.76 18.2461 10.8757 18.2855 10.9707 18.3594C11.0667 18.4364 11.1302 18.5418 11.1602 18.6738L11.668 18.5508C11.61 18.3459 11.5242 18.1891 11.4082 18.0801C11.2142 17.8951 10.9624 17.8027 10.6504 17.8027ZM26.5684 17.8047C26.4334 17.8047 26.3205 17.828 26.2305 17.877C26.1435 17.925 26.0818 17.9885 26.0488 18.0645C26.0158 18.1415 26 18.2571 26 18.4121V18.5527H25.7285V18.9375H26V20.4043H26.4883V18.9375H26.8516V18.5527H26.4883V18.4219C26.4883 18.3279 26.5032 18.2654 26.5332 18.2324C26.5642 18.2014 26.6145 18.1816 26.6855 18.1816C26.7565 18.1816 26.8332 18.189 26.9102 18.209L26.9766 17.8672C26.8426 17.8252 26.7074 17.8047 26.5684 17.8047ZM16.0039 17.8477V20.4023H16.5176V19.4395H16.8535C17.0855 19.4395 17.2637 19.4283 17.3867 19.4043C17.4767 19.3843 17.5663 19.3442 17.6523 19.2832C17.7403 19.2222 17.8121 19.1363 17.8691 19.0293C17.9261 18.9223 17.9531 18.7918 17.9531 18.6348C17.9531 18.4308 17.9046 18.2667 17.8066 18.1387C17.7076 18.0097 17.5855 17.9247 17.4395 17.8867C17.3455 17.8627 17.1411 17.8477 16.8281 17.8477H16.0039ZM23.5723 17.8477V20.4023H24.0859V19.4395H24.4199C24.6529 19.4395 24.8301 19.4283 24.9531 19.4043C25.0431 19.3843 25.1318 19.3442 25.2188 19.2832C25.3067 19.2222 25.3785 19.1363 25.4355 19.0293C25.4915 18.9223 25.5215 18.7918 25.5215 18.6348C25.5215 18.4308 25.471 18.2667 25.373 18.1387C25.275 18.0097 25.1538 17.9247 25.0078 17.8867C24.9128 17.8627 24.7095 17.8477 24.3965 17.8477H23.5723ZM16.5176 18.2793H16.7676C16.9526 18.2793 17.0747 18.2888 17.1367 18.3008C17.2197 18.3168 17.2887 18.3541 17.3438 18.4141C17.3977 18.4741 17.4238 18.5486 17.4238 18.6426C17.4238 18.7176 17.4052 18.7848 17.3652 18.8418C17.3272 18.8988 17.2731 18.9418 17.2051 18.9688C17.1371 18.9967 17.0008 19.0078 16.7988 19.0078H16.5176V18.2793ZM24.0859 18.2793H24.334C24.519 18.2793 24.6421 18.2888 24.7031 18.3008C24.7861 18.3168 24.8562 18.3541 24.9102 18.4141C24.9652 18.4741 24.9922 18.5486 24.9922 18.6426C24.9922 18.7176 24.9706 18.7848 24.9316 18.8418C24.8926 18.8988 24.8424 18.9418 24.7734 18.9688C24.7054 18.9967 24.5702 19.0078 24.3672 19.0078H24.0859V18.2793ZM18.1387 18.5527L18.8828 20.4023H19.3223L20.0547 18.5527H19.5527L19.2012 19.4961C19.1832 19.5481 19.1674 19.6013 19.1504 19.6543C19.1434 19.6783 19.1256 19.7335 19.0996 19.8125L18.998 19.4961L18.6523 18.5527H18.1387ZM8.24219 21.6406C5.89182 21.6406 4 23.5318 4 25.8828V25.9531C4 28.304 5.89182 30.1973 8.24219 30.1973H39.7578C42.1077 30.1973 44 28.304 44 25.9531V25.8828C44 23.5318 42.1077 21.6406 39.7578 21.6406H8.24219ZM8.73828 22.1562H39.2344C41.5853 22.1562 43.4766 23.8349 43.4766 25.9199C43.4766 28.0048 41.5853 29.6836 39.2344 29.6836H8.73828C6.38821 29.6836 4.49609 28.0048 4.49609 25.9199C4.49609 23.8349 6.38791 22.1562 8.73828 22.1562ZM39.7812 23.2383C39.0737 23.2383 38.3949 23.5192 37.8945 24.0195C37.3942 24.5199 37.1133 25.1986 37.1133 25.9062C37.1133 26.6138 37.3942 27.2927 37.8945 27.793C38.3949 28.2933 39.0737 28.5742 39.7812 28.5742C40.4888 28.5742 41.1676 28.2933 41.668 27.793C42.1683 27.2927 42.4492 26.6138 42.4492 25.9062C42.4492 25.1986 42.1683 24.5199 41.668 24.0195C41.1676 23.5192 40.4888 23.2383 39.7812 23.2383ZM8.55078 23.5156C7.2697 23.5156 6.23828 24.5472 6.23828 25.8262C6.23828 27.1051 7.2697 28.1348 8.55078 28.1348H28.5703C29.8513 28.1348 30.8828 27.1051 30.8828 25.8262C30.8828 24.5472 29.8513 23.5156 28.5703 23.5156H8.55078ZM39.7812 23.7539C40.0639 23.7538 40.3443 23.8099 40.6055 23.918C40.8667 24.0261 41.1028 24.185 41.3027 24.3848C41.5026 24.5847 41.6613 24.8209 41.7695 25.082C41.8778 25.3432 41.9336 25.6235 41.9336 25.9062C41.9337 26.1889 41.8777 26.4692 41.7695 26.7305C41.6614 26.9917 41.5027 27.2278 41.3027 27.4277C41.1028 27.6277 40.8667 27.7864 40.6055 27.8945C40.3442 28.0027 40.0639 28.0587 39.7812 28.0586C39.4986 28.0586 39.2182 28.0028 38.957 27.8945C38.6959 27.7863 38.4596 27.6276 38.2598 27.4277C38.06 27.2278 37.9011 26.9917 37.793 26.7305C37.6849 26.4694 37.6288 26.1889 37.6289 25.9062C37.629 25.3355 37.8562 24.7883 38.2598 24.3848C38.6633 23.9812 39.2104 23.754 39.7812 23.7539ZM8.54688 24.0254H10.2793H10.793H17.9824V27.6172H10.793H10.2793H8.54688C7.5522 27.6172 6.75 26.8152 6.75 25.8203C6.75 24.8263 7.5522 24.0254 8.54688 24.0254ZM18.4961 24.0254H28.5625C29.5575 24.0254 30.3594 24.8263 30.3594 25.8203C30.3594 26.8152 29.5575 27.6172 28.5625 27.6172H18.4961V24.0254ZM34.0625 24.0352C33.8158 24.0352 33.5716 24.0833 33.3438 24.1777C33.1159 24.2722 32.9088 24.4114 32.7344 24.5859C32.56 24.7604 32.4205 24.9674 32.3262 25.1953C32.2319 25.4233 32.1836 25.6674 32.1836 25.9141C32.1836 26.1607 32.2319 26.4048 32.3262 26.6328C32.4205 26.8607 32.56 27.0678 32.7344 27.2422C32.9088 27.4167 33.1159 27.556 33.3438 27.6504C33.5716 27.7449 33.8158 27.793 34.0625 27.793C34.3093 27.7931 34.5532 27.7448 34.7812 27.6504C35.0093 27.556 35.2161 27.4167 35.3906 27.2422C35.5651 27.0677 35.7044 26.8608 35.7988 26.6328C35.8932 26.4048 35.9415 26.1608 35.9414 25.9141C35.9415 25.6673 35.8932 25.4233 35.7988 25.1953C35.7044 24.9673 35.5651 24.7585 35.3906 24.584C35.2161 24.4095 35.0093 24.2721 34.7812 24.1777C34.5532 24.0833 34.3093 24.0351 34.0625 24.0352ZM34.0625 24.543C34.2427 24.5427 34.4214 24.5777 34.5879 24.6465C34.7544 24.7153 34.9058 24.816 35.0332 24.9434C35.1606 25.0707 35.2612 25.2223 35.3301 25.3887C35.399 25.5552 35.4337 25.7339 35.4336 25.9141C35.4335 26.094 35.3992 26.2713 35.3301 26.4375C35.2611 26.6037 35.1586 26.7557 35.0312 26.8828C34.9039 27.01 34.7523 27.1111 34.5859 27.1797C34.4195 27.2484 34.2425 27.2835 34.0625 27.2832C33.6995 27.283 33.3505 27.1376 33.0938 26.8809C32.837 26.6242 32.6937 26.2771 32.6934 25.9141C32.6933 25.7341 32.7282 25.555 32.7969 25.3887C32.8657 25.2224 32.9667 25.0726 33.0938 24.9453C33.2208 24.818 33.371 24.7155 33.5371 24.6465C33.7033 24.5776 33.8826 24.5431 34.0625 24.543Z" fill="#333333"/>
</svg>
