<svg width="48" height="48" viewBox="0 0 48 48" fill="none" xmlns="http://www.w3.org/2000/svg">
<path d="M18.9512 4C18.4501 4 18.0488 4.40317 18.0488 4.9043V43.0957C18.0488 43.5968 18.4501 44 18.9512 44H29.0488C29.5499 44 29.9512 43.5968 29.9512 43.0957V4.9043C29.9512 4.40317 29.5499 4 29.0488 4H18.9512ZM23.5059 7.01562H23.8438V8.70898H23.5059V7.01562ZM26.4805 7.04297C26.5385 7.04297 26.5847 7.05895 26.6191 7.08984C26.6535 7.12072 26.6738 7.15923 26.6738 7.20703C26.6738 7.25558 26.6543 7.29528 26.6191 7.32617C26.5847 7.35705 26.5377 7.37305 26.4805 7.37305C26.4234 7.37305 26.379 7.35706 26.3438 7.32617C26.3092 7.29529 26.293 7.25558 26.293 7.20703C26.293 7.15923 26.3101 7.12073 26.3438 7.08984C26.3781 7.05896 26.4219 7.04297 26.4805 7.04297ZM20.1094 7.10352H20.5684L21.0098 8.26758L21.4434 7.10352H21.9062V8.70898H21.5527V8.27148L21.5898 7.51367L21.127 8.70898H20.8848L20.4277 7.51367L20.4609 8.27148V8.70898H20.1094V7.10352ZM22.7148 7.49414C22.8713 7.49414 22.9943 7.53118 23.0859 7.60547C23.1782 7.67902 23.2227 7.78216 23.2227 7.91602V8.43359C23.2235 8.54686 23.2405 8.63331 23.2734 8.69141V8.70898H22.9316C22.9159 8.68029 22.9054 8.64618 22.8984 8.60352C22.8162 8.68957 22.7077 8.73242 22.5762 8.73242C22.4518 8.73242 22.3478 8.69856 22.2656 8.63086C22.1842 8.56319 22.1445 8.47797 22.1445 8.375C22.1445 8.24849 22.1937 8.15165 22.293 8.08398C22.3932 8.01632 22.538 7.98121 22.7266 7.98047H22.8848V7.91211C22.8848 7.85695 22.8664 7.81239 22.8359 7.7793C22.8062 7.74619 22.7584 7.73047 22.6934 7.73047C22.6363 7.73047 22.5933 7.74381 22.5605 7.76953C22.5284 7.79527 22.5137 7.83014 22.5137 7.875H22.1738C22.1738 7.80587 22.1948 7.74048 22.2402 7.68164C22.2856 7.6228 22.3487 7.57802 22.4316 7.54492C22.5146 7.5111 22.6115 7.49414 22.7148 7.49414ZM24.6406 7.49414C24.7971 7.49414 24.9222 7.53118 25.0137 7.60547C25.1061 7.67902 25.1523 7.78216 25.1523 7.91602V8.43359C25.1531 8.54686 25.1702 8.63331 25.2031 8.69141V8.70898H24.8613C24.8456 8.68029 24.8333 8.64618 24.8262 8.60352C24.7441 8.68957 24.6374 8.73242 24.5059 8.73242C24.3815 8.73242 24.2795 8.69856 24.1973 8.63086C24.1159 8.56319 24.0762 8.47797 24.0762 8.375C24.0762 8.24849 24.1234 8.15165 24.2227 8.08398C24.3229 8.01632 24.4676 7.98121 24.6562 7.98047H24.8145V7.91211C24.8145 7.85695 24.7961 7.81239 24.7656 7.7793C24.7359 7.74619 24.688 7.73047 24.623 7.73047C24.5659 7.73047 24.523 7.74381 24.4902 7.76953C24.4581 7.79527 24.4434 7.83014 24.4434 7.875H24.1016C24.1016 7.80587 24.1265 7.74048 24.1719 7.68164C24.2173 7.6228 24.2784 7.57802 24.3613 7.54492C24.4443 7.5111 24.5373 7.49414 24.6406 7.49414ZM26.0273 7.49414C26.0649 7.49414 26.1019 7.49824 26.1348 7.50781L26.1309 7.81445C26.0847 7.80855 26.0411 7.80664 26.0059 7.80664C25.8776 7.80664 25.7958 7.84609 25.7559 7.92773V8.70898H25.418V7.51562H25.7363L25.7441 7.6582C25.8122 7.54861 25.9068 7.49414 26.0273 7.49414ZM27.4512 7.49414C27.6077 7.49414 27.7308 7.53118 27.8223 7.60547C27.9147 7.67902 27.9609 7.78216 27.9609 7.91602V8.43359C27.9616 8.54686 27.977 8.63331 28.0098 8.69141V8.70898H27.668C27.6524 8.68029 27.6418 8.64618 27.6348 8.60352C27.5526 8.68957 27.4459 8.73242 27.3145 8.73242C27.1901 8.73242 27.088 8.69856 27.0059 8.63086C26.9245 8.56319 26.8809 8.47797 26.8809 8.375C26.8809 8.24849 26.9319 8.15165 27.0312 8.08398C27.1313 8.01632 27.2762 7.98121 27.4648 7.98047H27.6191V7.91211C27.6191 7.85695 27.6067 7.81239 27.5762 7.7793C27.5465 7.74619 27.4966 7.73047 27.4316 7.73047C27.3745 7.73047 27.3298 7.74381 27.2969 7.76953C27.2649 7.79527 27.248 7.83014 27.248 7.875H26.9102C26.9102 7.80587 26.9312 7.74048 26.9766 7.68164C27.022 7.6228 27.0889 7.57802 27.1719 7.54492C27.2548 7.5111 27.3479 7.49414 27.4512 7.49414ZM26.3105 7.51562H26.6523V8.70898H26.3105V7.51562ZM22.7559 8.16602C22.5861 8.16602 22.4972 8.2217 22.4863 8.33203L22.4844 8.35156C22.4844 8.39128 22.4976 8.42348 22.5273 8.44922C22.5571 8.47496 22.6006 8.48828 22.6523 8.48828C22.7023 8.48828 22.7468 8.47762 22.7891 8.45703C22.8313 8.43571 22.8644 8.40639 22.8848 8.37109V8.16602H22.7559ZM24.6855 8.16602C24.5157 8.16602 24.4251 8.2217 24.4141 8.33203V8.35156C24.4141 8.39128 24.4273 8.42348 24.457 8.44922C24.4867 8.47496 24.5303 8.48828 24.582 8.48828C24.632 8.48828 24.6765 8.47762 24.7188 8.45703C24.7611 8.43571 24.7941 8.40639 24.8145 8.37109V8.16602H24.6855ZM27.4941 8.16602C27.3243 8.16602 27.2336 8.2217 27.2227 8.33203V8.35156C27.2227 8.39128 27.2359 8.42348 27.2656 8.44922C27.2953 8.47496 27.337 8.48828 27.3887 8.48828C27.4388 8.48828 27.485 8.47762 27.5273 8.45703C27.5695 8.43571 27.5988 8.40639 27.6191 8.37109V8.16602H27.4941ZM25.4277 9.63477C25.447 9.63477 25.4616 9.63894 25.4727 9.65039C25.4844 9.66136 25.4902 9.67519 25.4902 9.69141C25.4902 9.70762 25.4844 9.72149 25.4727 9.73242C25.4616 9.74338 25.447 9.75 25.4277 9.75C25.4084 9.75 25.3959 9.74338 25.3848 9.73242C25.3736 9.72146 25.3652 9.70759 25.3652 9.69141C25.3652 9.67519 25.3736 9.66136 25.3848 9.65039C25.3959 9.63894 25.4084 9.63477 25.4277 9.63477ZM23.3652 9.64844H23.4531L23.873 10.6895H23.7773L23.6602 10.3965H23.1562L23.043 10.6895H22.9473L23.3652 9.64844ZM24.918 9.7168H25.0098V9.91602H25.1816V9.98633H25.0098V10.5C25.0098 10.5429 25.019 10.5748 25.0352 10.5957C25.052 10.6167 25.0805 10.6289 25.1191 10.6289C25.1343 10.6289 25.1594 10.6259 25.1934 10.6211L25.1973 10.6914C25.1735 10.6994 25.1388 10.7031 25.0977 10.7031C25.0354 10.7031 24.9893 10.6861 24.9609 10.6523C24.9325 10.6179 24.918 10.5683 24.918 10.502V9.98633H24.7695V9.91602H24.918V9.7168ZM23.4102 9.75586L23.1855 10.3223H23.6309L23.4102 9.75586ZM20.457 9.90039C20.5553 9.90039 20.6298 9.9358 20.6855 10.0059C20.7418 10.0759 20.7734 10.1745 20.7734 10.2988V10.3105C20.7734 10.431 20.7423 10.5267 20.6855 10.5977C20.6288 10.6682 20.5523 10.7031 20.457 10.7031C20.3445 10.7031 20.261 10.6661 20.2012 10.5918V10.9863H20.1094V9.91602H20.1934L20.1973 10.0254C20.2566 9.94294 20.3444 9.90039 20.457 9.90039ZM21.2656 9.90039C21.3573 9.90039 21.4317 9.92345 21.4844 9.9668C21.5376 10.0097 21.563 10.0693 21.5645 10.1465V10.5117C21.5645 10.5865 21.5731 10.6425 21.5898 10.6797V10.6895H21.4941C21.4849 10.6652 21.4791 10.6278 21.4766 10.5801C21.4447 10.6192 21.4013 10.6504 21.3516 10.6719C21.3025 10.6928 21.2525 10.7031 21.1973 10.7031C21.1182 10.7031 21.0551 10.6821 21.0059 10.6406C20.9572 10.5992 20.9316 10.5478 20.9316 10.4844C20.9316 10.4091 20.9648 10.3485 21.0312 10.3047C21.0982 10.2609 21.1914 10.2402 21.3105 10.2402H21.4766V10.1523C21.4766 10.097 21.4584 10.053 21.4219 10.0215C21.3859 9.98959 21.3331 9.97266 21.2637 9.97266C21.2003 9.97266 21.1471 9.98904 21.1055 10.0195C21.0639 10.05 21.043 10.0861 21.043 10.1289H20.9512C20.9512 10.0675 20.9822 10.0135 21.043 9.96875C21.1038 9.92349 21.1769 9.90039 21.2656 9.90039ZM22.1641 9.90039C22.2523 9.90039 22.3182 9.92401 22.3613 9.9707C22.4044 10.0174 22.4272 10.0883 22.4277 10.1816V10.6895H22.3359V10.1816C22.3354 10.1126 22.3201 10.0592 22.2891 10.0254C22.2587 9.99153 22.2119 9.97656 22.1445 9.97656C22.0882 9.97656 22.0377 9.99199 21.9941 10.0254C21.951 10.0582 21.9191 10.104 21.8984 10.1602V10.6895H21.8066V9.91602H21.8945L21.8984 10.0488C21.9293 10.0011 21.9676 9.96422 22.0137 9.93945C22.0598 9.9142 22.1084 9.90038 22.1641 9.90039ZM24.373 9.90039C24.4612 9.90039 24.5253 9.92401 24.5684 9.9707C24.6115 10.0174 24.6343 10.0883 24.6348 10.1816V10.6895H24.5469V10.1816C24.5464 10.1126 24.5289 10.0592 24.498 10.0254C24.4676 9.99153 24.419 9.97656 24.3516 9.97656C24.2953 9.97656 24.2448 9.99199 24.2012 10.0254C24.1582 10.0582 24.1263 10.104 24.1055 10.1602V10.6895H24.0137V9.91602H24.1016L24.1055 10.0488C24.1364 10.0011 24.1726 9.96422 24.2188 9.93945C24.2649 9.9142 24.3173 9.90038 24.373 9.90039ZM26.002 9.90039C26.1141 9.90039 26.2015 9.94352 26.2598 10.0273L26.2637 9.91602H26.3477V10.6738C26.3477 10.7734 26.3191 10.8521 26.2598 10.9102C26.2005 10.9684 26.1208 10.9961 26.0195 10.9961C25.9622 10.9961 25.9077 10.9852 25.8555 10.9609C25.8038 10.9371 25.7605 10.9052 25.7305 10.8652L25.7812 10.8125C25.8457 10.8868 25.925 10.9238 26.0137 10.9238C26.0897 10.9238 26.147 10.9037 26.1895 10.8613C26.2321 10.8193 26.2544 10.7603 26.2559 10.6855V10.5879C26.1976 10.6641 26.1135 10.7031 26.002 10.7031C25.9067 10.7031 25.8273 10.6672 25.7695 10.5957C25.7117 10.5243 25.6855 10.4281 25.6855 10.3066V10.2949C25.6855 10.1739 25.7127 10.0783 25.7695 10.0078C25.8268 9.93684 25.9042 9.90039 26.002 9.90039ZM26.8887 9.90039C26.9886 9.90039 27.0647 9.93373 27.123 9.99805C27.1818 10.0619 27.2109 10.1488 27.2109 10.2598V10.3086H26.627V10.3242C26.627 10.4119 26.6499 10.4844 26.7031 10.543C26.7568 10.6011 26.8251 10.6309 26.9062 10.6309C26.955 10.6309 26.9982 10.6222 27.0352 10.6055C27.0727 10.5889 27.1083 10.562 27.1387 10.5254L27.1934 10.5664C27.1265 10.6574 27.0295 10.7031 26.9023 10.7031C26.8324 10.7031 26.7715 10.6867 26.7148 10.6543C26.6585 10.6219 26.6134 10.5771 26.582 10.5195C26.5505 10.4614 26.5352 10.3961 26.5352 10.3242V10.293C26.5352 10.2187 26.5515 10.1533 26.582 10.0938C26.6129 10.0342 26.6561 9.98695 26.7109 9.95312C26.7656 9.91881 26.8248 9.90039 26.8887 9.90039ZM27.748 9.90039C27.8362 9.90039 27.9042 9.92401 27.9473 9.9707C27.9904 10.0174 28.0093 10.0883 28.0098 10.1816V10.6895H27.9219V10.1816C27.9214 10.1126 27.9039 10.0592 27.873 10.0254C27.8426 9.99153 27.7941 9.97656 27.7266 9.97656C27.6704 9.97656 27.6198 9.99199 27.5762 10.0254C27.5332 10.0582 27.5013 10.104 27.4805 10.1602V10.6895H27.3906V9.91602H27.4766L27.4805 10.0488C27.5115 10.0011 27.5516 9.96422 27.5977 9.93945C27.6438 9.9142 27.6923 9.90038 27.748 9.90039ZM25.3809 9.91602H25.4727V10.6895H25.3809V9.91602ZM26.8887 9.97461C26.8203 9.97461 26.7619 9.99774 26.7148 10.0449C26.6681 10.092 26.6372 10.1548 26.627 10.2344H27.123V10.2266C27.1204 10.1523 27.0953 10.0916 27.0527 10.0449C27.0101 9.99819 26.9576 9.97461 26.8887 9.97461ZM20.4355 9.97656C20.3797 9.97656 20.333 9.98843 20.293 10.0137C20.2529 10.0389 20.2225 10.0749 20.2012 10.123V10.4941C20.223 10.5384 20.2525 10.5724 20.293 10.5957C20.3336 10.6191 20.3803 10.6309 20.4355 10.6309C20.5121 10.6309 20.5726 10.602 20.6152 10.5449C20.6583 10.4872 20.6816 10.404 20.6816 10.2949C20.6816 10.1963 20.6583 10.1177 20.6152 10.0605C20.5721 10.0034 20.5125 9.97656 20.4355 9.97656ZM26.0195 9.97656C25.9429 9.97656 25.8824 10.0038 25.8398 10.0605C25.7972 10.1167 25.7773 10.2004 25.7773 10.3105C25.7773 10.4091 25.7977 10.4858 25.8398 10.543C25.8819 10.5997 25.9429 10.6289 26.0195 10.6289C26.1315 10.6289 26.2092 10.5827 26.2559 10.4883V10.127C26.2346 10.0774 26.2041 10.0413 26.1641 10.0156C26.124 9.9894 26.0757 9.97657 26.0195 9.97656ZM21.3105 10.3047C21.2198 10.3057 21.1489 10.3212 21.0977 10.3516C21.0465 10.3816 21.0234 10.4237 21.0234 10.4766C21.0234 10.5199 21.0384 10.5554 21.0723 10.584C21.1068 10.6125 21.1523 10.627 21.207 10.627C21.2678 10.627 21.3215 10.6136 21.3691 10.5859C21.4173 10.5583 21.4548 10.5208 21.4766 10.4746V10.3047H21.3105ZM19.2773 13.8105H19.3691V14.8516H19.2773V13.8105ZM19.668 13.8105H19.9766C20.0674 13.8105 20.1507 13.8301 20.2227 13.8691C20.2947 13.9077 20.3487 13.9628 20.3887 14.0352C20.4293 14.1076 20.4512 14.1908 20.4512 14.2832V14.3789C20.4512 14.4718 20.4306 14.5551 20.3906 14.627C20.3506 14.699 20.2957 14.7539 20.2227 14.793C20.1502 14.8321 20.067 14.8516 19.9727 14.8516H19.668V13.8105ZM19.7637 13.8867V14.7773H19.9727C20.0893 14.7773 20.1816 14.7404 20.252 14.668C20.3225 14.5951 20.3594 14.4968 20.3594 14.373V14.2812C20.3594 14.1617 20.3253 14.066 20.2559 13.9941C20.1864 13.9221 20.094 13.8871 19.9805 13.8867H19.7637ZM20.7109 14.0801C20.7311 14.0801 20.7481 14.0858 20.7598 14.0977C20.7714 14.1092 20.7773 14.124 20.7773 14.1406C20.7773 14.1573 20.7714 14.1706 20.7598 14.1816C20.7481 14.1921 20.7311 14.1973 20.7109 14.1973C20.6906 14.1973 20.6757 14.192 20.6641 14.1816C20.6529 14.1706 20.6445 14.1573 20.6445 14.1406C20.6445 14.124 20.6529 14.1092 20.6641 14.0977C20.6757 14.0858 20.6906 14.0801 20.7109 14.0801ZM20.7109 14.7402C20.7311 14.7402 20.7443 14.7459 20.7559 14.7578C20.7676 14.7693 20.7734 14.7842 20.7734 14.8008C20.7734 14.8175 20.7676 14.8308 20.7559 14.8418C20.7443 14.8523 20.7311 14.8574 20.7109 14.8574C20.6906 14.8574 20.6719 14.8522 20.6602 14.8418C20.6491 14.8308 20.6445 14.8175 20.6445 14.8008C20.6445 14.7842 20.6491 14.7693 20.6602 14.7578C20.6719 14.7459 20.6906 14.7402 20.7109 14.7402ZM21.5391 14.7832H28.9648C29.0968 14.7832 29.2031 14.7998 29.2031 14.8203C29.2031 14.8407 29.0968 14.8574 28.9648 14.8574H21.5391C21.4071 14.8574 21.3027 14.8407 21.3027 14.8203C21.3027 14.7998 21.4071 14.7832 21.5391 14.7832ZM24.0762 16.293C25.3552 16.293 26.3867 17.3244 26.3867 18.6055C26.3867 21.8209 26.3873 25.0312 26.3906 28.2422C26.3906 29.5232 25.3591 30.5547 24.0801 30.5547C22.8012 30.5547 21.7715 29.5232 21.7715 28.2422C21.7715 25.0347 21.7624 21.8187 21.7676 18.6055C21.7676 17.3244 22.7973 16.293 24.0762 16.293ZM24.082 16.8047C23.0871 16.8047 22.2852 17.6069 22.2852 18.6016V20.334V20.8477C22.2852 23.3145 22.2867 25.7732 22.2891 28.2363C22.2891 29.2313 23.091 30.0332 24.0859 30.0332C25.0799 30.0332 25.8809 29.2313 25.8809 28.2363C25.8809 25.7769 25.8715 23.3124 25.877 20.8477V20.334V18.6016C25.877 17.6069 25.076 16.8047 24.082 16.8047ZM28.1289 19.2559C28.3662 19.2559 28.5581 19.3202 28.7031 19.4473C28.8481 19.5744 28.9305 19.7527 28.9531 19.9824H28.5293C28.5189 19.8497 28.482 19.7527 28.418 19.6934C28.3549 19.6331 28.2588 19.6035 28.1289 19.6035C27.9877 19.6035 27.8812 19.6542 27.8105 19.7559C27.7409 19.8566 27.705 20.0138 27.7031 20.2266V20.3809C27.7031 20.6031 27.7378 20.7665 27.8047 20.8691C27.8725 20.9718 27.9781 21.0234 28.123 21.0234C28.2539 21.0234 28.352 20.9929 28.416 20.9336C28.481 20.8733 28.5179 20.7815 28.5273 20.6562H28.9512C28.9352 20.8775 28.8529 21.0506 28.7051 21.1777C28.5582 21.3048 28.3641 21.3691 28.123 21.3691C27.8594 21.3691 27.6516 21.2805 27.5 21.1035C27.3494 20.9256 27.2754 20.6808 27.2754 20.3711V20.2461C27.2754 20.0484 27.3092 19.8733 27.3789 19.7227C27.4486 19.572 27.5488 19.457 27.6777 19.377C27.8077 19.296 27.9576 19.2559 28.1289 19.2559ZM27.2793 25.5684H28.9531V25.9102H28.3242V27.623H27.9004V25.9102H27.2793V25.5684ZM23.9922 31.8574C24.2389 31.8574 24.4829 31.9057 24.7109 32C24.9388 32.0943 25.1458 32.2338 25.3203 32.4082C25.4948 32.5826 25.634 32.7897 25.7285 33.0176C25.8229 33.2454 25.8711 33.4896 25.8711 33.7363C25.8712 33.9831 25.8229 34.2251 25.7285 34.4531C25.6341 34.6812 25.4968 34.888 25.3223 35.0625C25.1478 35.237 24.9389 35.3763 24.7109 35.4707C24.4829 35.5651 24.239 35.6153 23.9922 35.6152C23.7455 35.6153 23.5014 35.5651 23.2734 35.4707C23.0454 35.3763 22.8386 35.237 22.6641 35.0625C22.4896 34.888 22.3503 34.6812 22.2559 34.4531C22.1615 34.2251 22.1132 33.9831 22.1133 33.7363C22.1133 33.4896 22.1614 33.2454 22.2559 33.0176C22.3503 32.7897 22.4896 32.5826 22.6641 32.4082C22.8385 32.2338 23.0455 32.0943 23.2734 32C23.5014 31.9057 23.7456 31.8574 23.9922 31.8574ZM23.9922 32.3672C23.6292 32.3675 23.2821 32.5108 23.0254 32.7676C22.7687 33.0243 22.6232 33.3733 22.623 33.7363C22.6227 33.9163 22.6579 34.0914 22.7266 34.2578C22.7952 34.4242 22.8962 34.5758 23.0234 34.7031C23.1505 34.8305 23.3025 34.9349 23.4688 35.0039C23.635 35.073 23.8123 35.1073 23.9922 35.1074C24.1724 35.1075 24.3511 35.0728 24.5176 35.0039C24.684 34.935 24.8356 34.8344 24.9629 34.707C25.0903 34.5796 25.191 34.4282 25.2598 34.2617C25.3286 34.0952 25.3636 33.9165 25.3633 33.7363C25.3632 33.5564 25.3287 33.3752 25.2598 33.209C25.1908 33.0429 25.0882 32.8946 24.9609 32.7676C24.8336 32.6405 24.6839 32.5395 24.5176 32.4707C24.3513 32.402 24.1722 32.3671 23.9922 32.3672ZM27.5137 32.7598C27.6605 32.7598 27.7914 32.7881 27.9062 32.8418C28.0211 32.8945 28.1107 32.9694 28.1738 33.0664C28.2378 33.1634 28.2695 33.2731 28.2695 33.3965H27.8457C27.8457 33.3023 27.8171 33.2295 27.7578 33.1777C27.6985 33.125 27.6151 33.0977 27.5078 33.0977C27.4042 33.0977 27.3231 33.1198 27.2656 33.1641C27.2082 33.2074 27.1797 33.2644 27.1797 33.3359C27.1797 33.4028 27.2125 33.4607 27.2793 33.5059C27.3471 33.5511 27.4473 33.5933 27.5781 33.6328C27.8191 33.7053 27.9953 33.795 28.1055 33.9023C28.2156 34.0097 28.2695 34.1427 28.2695 34.3027C28.2695 34.4807 28.203 34.621 28.0684 34.7227C27.9337 34.8234 27.7513 34.873 27.5234 34.873C27.3653 34.873 27.2217 34.8445 27.0918 34.7871C26.9619 34.7287 26.8637 34.6496 26.7949 34.5488C26.7271 34.4481 26.6914 34.332 26.6914 34.1992H27.1172C27.1172 34.4261 27.2523 34.5391 27.5234 34.5391C27.6242 34.5391 27.7033 34.519 27.7598 34.4785C27.8163 34.4371 27.8457 34.3801 27.8457 34.3066C27.8457 34.2266 27.8163 34.1654 27.7598 34.123C27.7033 34.0797 27.602 34.0334 27.4551 33.9863C27.3082 33.9383 27.1911 33.8918 27.1055 33.8457C26.872 33.7195 26.7559 33.5497 26.7559 33.3359C26.7559 33.2248 26.7875 33.1257 26.8496 33.0391C26.9127 32.9515 27.0024 32.8829 27.1191 32.834C27.2368 32.785 27.3677 32.7598 27.5137 32.7598ZM28.9258 33.5332H28.9531V34.873H28.6875V33.8496L28.3711 33.9473V33.7324L28.9258 33.5332ZM24 36.7871C24.7076 36.7871 25.3863 37.0661 25.8867 37.5664C26.387 38.0668 26.668 38.7456 26.668 39.4531C26.668 40.1607 26.387 40.8414 25.8867 41.3418C25.3863 41.8421 24.7076 42.1211 24 42.1211C23.2924 42.1211 22.6136 41.8421 22.1133 41.3418C21.613 40.8414 21.332 40.1607 21.332 39.4531C21.332 38.7456 21.613 38.0668 22.1133 37.5664C22.6136 37.0661 23.2924 36.7871 24 36.7871ZM24 37.3027C23.7173 37.3026 23.4369 37.3587 23.1758 37.4668C22.9146 37.5749 22.6784 37.7338 22.4785 37.9336C22.2786 38.1334 22.1199 38.3678 22.0117 38.6289C21.9034 38.8901 21.8477 39.1705 21.8477 39.4531C21.8476 39.7358 21.9035 40.018 22.0117 40.2793C22.1198 40.5405 22.2785 40.7747 22.4785 40.9746C22.6784 41.1746 22.9146 41.3333 23.1758 41.4414C23.4371 41.5496 23.7173 41.6075 24 41.6074C24.2827 41.6074 24.563 41.5497 24.8242 41.4414C25.0853 41.3332 25.3216 41.1745 25.5215 40.9746C25.7213 40.7747 25.8802 40.5405 25.9883 40.2793C26.0964 40.0181 26.1524 39.7358 26.1523 39.4531C26.1522 38.8823 25.9251 38.3371 25.5215 37.9336C25.118 37.53 24.5707 37.3028 24 37.3027ZM28.1289 38.3516C28.2758 38.3516 28.4066 38.3799 28.5215 38.4336C28.6363 38.4863 28.726 38.5612 28.7891 38.6582C28.8531 38.7552 28.8848 38.8649 28.8848 38.9883H28.4609C28.4609 38.8941 28.4324 38.8213 28.373 38.7695C28.3137 38.7168 28.2304 38.6895 28.123 38.6895C28.0195 38.6895 27.9383 38.7116 27.8809 38.7559C27.8234 38.7992 27.7949 38.8562 27.7949 38.9277C27.7949 38.9946 27.8277 39.0525 27.8945 39.0977C27.9623 39.1428 28.0625 39.1851 28.1934 39.2246C28.4344 39.2971 28.6105 39.3868 28.7207 39.4941C28.8309 39.6015 28.8848 39.7345 28.8848 39.8945C28.8848 40.0725 28.8182 40.2128 28.6836 40.3145C28.549 40.4152 28.3665 40.4648 28.1387 40.4648C27.9805 40.4648 27.837 40.4363 27.707 40.3789C27.5771 40.3205 27.4789 40.2414 27.4102 40.1406C27.3424 40.0399 27.3066 39.9238 27.3066 39.791H27.7324C27.7324 40.0179 27.8675 40.1309 28.1387 40.1309C28.2394 40.1309 28.3185 40.1108 28.375 40.0703C28.4315 40.0289 28.4609 39.9719 28.4609 39.8984C28.4609 39.8184 28.4315 39.7572 28.375 39.7148C28.3185 39.6715 28.2172 39.6252 28.0703 39.5781C27.9234 39.5301 27.8064 39.4836 27.7207 39.4375C27.4872 39.3113 27.3711 39.1415 27.3711 38.9277C27.3711 38.8166 27.4027 38.7175 27.4648 38.6309C27.5279 38.5433 27.6176 38.4747 27.7344 38.4258C27.8521 38.3768 27.983 38.3516 28.1289 38.3516Z" fill="#333333"/>
</svg>
