<svg width="48" height="48" viewBox="0 0 48 48" fill="none" xmlns="http://www.w3.org/2000/svg">
<path d="M10.6504 17.8027V17.8047C10.294 17.8047 10.0058 17.9219 9.78711 18.1582C9.56839 18.3929 9.45898 18.7231 9.45898 19.1484C9.45898 19.5505 9.5676 19.8672 9.78516 20.0996C10.0027 20.3312 10.2812 20.4473 10.6191 20.4473C10.8922 20.4473 11.1159 20.379 11.293 20.2441C11.4712 20.1085 11.5994 19.9019 11.6758 19.623L11.1777 19.4648C11.1349 19.6518 11.0632 19.7881 10.9648 19.875C10.8665 19.9617 10.7498 20.0059 10.6133 20.0059C10.4281 20.0059 10.2778 19.9384 10.1621 19.8008C10.0464 19.6639 9.98828 19.4323 9.98828 19.1094C9.98828 18.805 10.0472 18.5852 10.1641 18.4492C10.2821 18.3136 10.4344 18.2461 10.623 18.2461C10.7596 18.2461 10.8758 18.2846 10.9707 18.3594C11.0668 18.4362 11.1301 18.5417 11.1602 18.6738L11.668 18.5508C11.611 18.3448 11.5242 18.1871 11.4082 18.0781C11.2142 17.8931 10.9624 17.8027 10.6504 17.8027ZM26.5684 17.8047C26.433 17.8047 26.3196 17.8276 26.2305 17.877C26.1425 17.9247 26.0824 17.9877 26.0488 18.0645C26.0168 18.1405 26 18.2571 26 18.4121V18.5527H25.7285V18.9375H26V20.4043H26.4883V18.9375H26.8516V18.5527H26.4883V18.4219C26.4883 18.3276 26.5031 18.2646 26.5332 18.2324C26.5645 18.2006 26.615 18.1816 26.6855 18.1816C26.7573 18.1816 26.8326 18.1891 26.9102 18.209L26.9766 17.8672C26.8435 17.825 26.7072 17.8047 26.5684 17.8047ZM16.0039 17.8477V20.4023H16.5176V19.4395H16.8535C17.0861 19.4395 17.264 19.4281 17.3867 19.4043C17.477 19.3844 17.5656 19.3437 17.6523 19.2832C17.7403 19.2219 17.8124 19.1363 17.8691 19.0293C17.9258 18.9223 17.9531 18.7915 17.9531 18.6348C17.9531 18.4315 17.905 18.2667 17.8066 18.1387C17.7083 18.0098 17.5853 17.9245 17.4395 17.8867C17.3446 17.8628 17.1406 17.8477 16.8281 17.8477H16.0039ZM23.5723 17.8477V20.4023H24.0859V19.4395H24.4199C24.6525 19.4395 24.8305 19.4281 24.9531 19.4043C25.0434 19.3844 25.132 19.3437 25.2187 19.2832C25.3067 19.2219 25.3788 19.1363 25.4355 19.0293C25.4923 18.9223 25.5215 18.7915 25.5215 18.6348C25.5215 18.4315 25.4714 18.2667 25.373 18.1387C25.2747 18.0098 25.1536 17.9245 25.0078 17.8867C24.9129 17.8628 24.7089 17.8477 24.3965 17.8477H23.5723ZM16.5176 18.2793H16.7676C16.9527 18.2793 17.0754 18.2889 17.1367 18.3008C17.22 18.3167 17.2894 18.3536 17.3437 18.4141C17.3981 18.4741 17.4238 18.5495 17.4238 18.6426C17.4238 18.7182 17.4046 18.7845 17.3652 18.8418C17.327 18.8987 17.2734 18.9417 17.2051 18.9687C17.1368 18.9966 17.0013 19.0078 16.7988 19.0078H16.5176V18.2793ZM24.0859 18.2793H24.334C24.5191 18.2793 24.6418 18.2889 24.7031 18.3008C24.7864 18.3167 24.8558 18.3536 24.9102 18.4141C24.9645 18.4741 24.9922 18.5495 24.9922 18.6426C24.9922 18.7182 24.971 18.7845 24.9316 18.8418C24.8934 18.8987 24.8417 18.9417 24.7734 18.9687C24.7052 18.9966 24.5697 19.0078 24.3672 19.0078H24.0859V18.2793ZM18.1387 18.5527L18.8828 20.4023H19.3223L20.0547 18.5527H19.5527L19.2012 19.4961C19.1826 19.5482 19.1666 19.6014 19.1504 19.6543C19.1435 19.6782 19.1262 19.7325 19.0996 19.8125L18.998 19.4961L18.6523 18.5527H18.1387ZM8.24219 21.6406C5.89182 21.6406 4 23.5318 4 25.8828V25.9531C4 28.3035 5.89182 30.1973 8.24219 30.1973H39.7578C42.1078 30.1973 44 28.3041 44 25.9531V25.8828C44 23.5318 42.1078 21.6406 39.7578 21.6406H8.24219ZM39.7812 23.7539C40.9699 23.7539 41.9336 24.7176 41.9336 25.9063C41.9336 27.0949 40.9699 28.0586 39.7812 28.0586C38.5926 28.0586 37.6289 27.0949 37.6289 25.9063C37.6289 24.7176 38.5926 23.7539 39.7812 23.7539ZM8.54883 24.0254H10.3066V27.6172H8.54883C7.55414 27.6172 6.75195 26.815 6.75195 25.8203C6.75195 24.8256 7.55412 24.0254 8.54883 24.0254ZM10.8203 24.0254H17.9824V27.6172H10.8203V24.0254ZM18.4961 24.0254H28.5625C29.5572 24.0254 30.3594 24.8256 30.3594 25.8203C30.3594 26.815 29.5572 27.6172 28.5625 27.6172H18.4961V24.0254ZM34.0625 24.543C34.82 24.5424 35.4342 25.1566 35.4336 25.9141C35.4331 26.6708 34.8192 27.2838 34.0625 27.2832C33.3066 27.2827 32.6938 26.67 32.6934 25.9141C32.6928 25.1574 33.3058 24.5435 34.0625 24.543Z" fill="#333333"/>
</svg>
