<svg width="48" height="48" viewBox="0 0 48 48" fill="none" xmlns="http://www.w3.org/2000/svg">
<path d="M4.9043 18.0488C4.40317 18.0488 4 18.4501 4 18.9512V29.0488C4 29.5499 4.40317 29.9512 4.9043 29.9512H43.0957C43.5968 29.9512 44 29.5499 44 29.0488V18.9512C44 18.4501 43.5968 18.0488 43.0957 18.0488H4.9043ZM5.38477 18.543H42.6133C43.4885 18.543 43.4941 18.5581 43.4941 19.373V28.627C43.4941 29.4379 43.4963 29.457 42.6133 29.457H5.38477C4.50173 29.457 4.50195 29.4496 4.50195 28.627V19.373C4.50195 18.5545 4.51507 18.543 5.38477 18.543ZM10.7598 18.7871V18.7891C10.4038 18.7891 10.1154 18.9066 9.89648 19.1426C9.67778 19.3776 9.56836 19.7078 9.56836 20.1328C9.56836 20.5348 9.67693 20.851 9.89453 21.084C10.1123 21.315 10.3905 21.4316 10.7285 21.4316C11.0015 21.4316 11.2253 21.3635 11.4023 21.2285C11.5803 21.0925 11.7082 20.8864 11.7852 20.6074L11.2871 20.4492C11.2441 20.6362 11.1722 20.7724 11.0742 20.8594C10.9752 20.9464 10.8597 20.9902 10.7227 20.9902C10.5377 20.9902 10.3875 20.9222 10.2715 20.7852C10.1555 20.6482 10.0977 20.4167 10.0977 20.0938C10.0977 19.7897 10.1564 19.5696 10.2734 19.4336C10.3914 19.2986 10.5434 19.2305 10.7324 19.2305C10.8694 19.2305 10.9851 19.2699 11.0801 19.3438C11.1761 19.4208 11.2395 19.5262 11.2695 19.6582L11.7773 19.5352C11.7193 19.3303 11.6336 19.1735 11.5176 19.0645C11.3236 18.8795 11.0718 18.7871 10.7598 18.7871ZM26.6777 18.7891C26.5427 18.7891 26.4298 18.8123 26.3398 18.8613C26.2528 18.9093 26.1912 18.9728 26.1582 19.0488C26.1252 19.1258 26.1094 19.2415 26.1094 19.3965V19.5371H25.8379V19.9219H26.1094V21.3887H26.5977V19.9219H26.9609V19.5371H26.5977V19.4062C26.5977 19.3123 26.6126 19.2498 26.6426 19.2168C26.6736 19.1858 26.7239 19.166 26.7949 19.166C26.8659 19.166 26.9425 19.1734 27.0195 19.1934L27.0859 18.8516C26.9519 18.8096 26.8167 18.7891 26.6777 18.7891ZM16.1133 18.832V21.3867H16.627V20.4238H16.9629C17.1949 20.4238 17.3731 20.4127 17.4961 20.3887C17.5861 20.3687 17.6757 20.3286 17.7617 20.2676C17.8497 20.2066 17.9215 20.1207 17.9785 20.0137C18.0355 19.9067 18.0625 19.7761 18.0625 19.6191C18.0625 19.4151 18.014 19.251 17.916 19.123C17.817 18.994 17.6948 18.9091 17.5488 18.8711C17.4548 18.8471 17.2505 18.832 16.9375 18.832H16.1133ZM23.6816 18.832V21.3867H24.1953V20.4238H24.5293C24.7623 20.4238 24.9395 20.4127 25.0625 20.3887C25.1525 20.3687 25.2411 20.3286 25.3281 20.2676C25.416 20.2066 25.4879 20.1207 25.5449 20.0137C25.6009 19.9067 25.6309 19.7761 25.6309 19.6191C25.6309 19.4151 25.5804 19.251 25.4824 19.123C25.3844 18.994 25.2632 18.9091 25.1172 18.8711C25.0222 18.8471 24.8189 18.832 24.5059 18.832H23.6816ZM16.627 19.2637H16.877C17.062 19.2637 17.1841 19.2732 17.2461 19.2852C17.3291 19.3012 17.398 19.3384 17.4531 19.3984C17.507 19.4584 17.5332 19.533 17.5332 19.627C17.5332 19.702 17.5146 19.7692 17.4746 19.8262C17.4366 19.8832 17.3825 19.9261 17.3145 19.9531C17.2465 19.981 17.1102 19.9922 16.9082 19.9922H16.627V19.2637ZM24.1953 19.2637H24.4434C24.6284 19.2637 24.7515 19.2732 24.8125 19.2852C24.8955 19.3012 24.9655 19.3384 25.0195 19.3984C25.0745 19.4584 25.1016 19.533 25.1016 19.627C25.1016 19.702 25.08 19.7692 25.041 19.8262C25.002 19.8832 24.9518 19.9261 24.8828 19.9531C24.8148 19.981 24.6796 19.9922 24.4766 19.9922H24.1953V19.2637ZM18.248 19.5371L18.9922 21.3867H19.4316L20.1641 19.5371H19.6621L19.3105 20.4805C19.2925 20.5325 19.2768 20.5857 19.2598 20.6387C19.2528 20.6627 19.235 20.7179 19.209 20.7969L19.1074 20.4805L18.7617 19.5371H18.248ZM39.4375 21.3633C38.73 21.3633 38.0512 21.6442 37.5508 22.1445C37.0505 22.6449 36.7695 23.3236 36.7695 24.0312C36.7695 24.7389 37.0505 25.4177 37.5508 25.918C38.0512 26.4183 38.73 26.6992 39.4375 26.6992C40.1451 26.6992 40.8238 26.4183 41.3242 25.918C41.8245 25.4177 42.1055 24.7389 42.1055 24.0312C42.1055 23.3236 41.8245 22.6449 41.3242 22.1445C40.8238 21.6442 40.1451 21.3633 39.4375 21.3633ZM8.20703 21.6406C6.92595 21.6406 5.89453 22.6722 5.89453 23.9512C5.89453 25.2301 6.92595 26.2598 8.20703 26.2598H28.2266C29.5076 26.2598 30.5391 25.2301 30.5391 23.9512C30.5391 22.6722 29.5076 21.6406 28.2266 21.6406H8.20703ZM39.4375 21.8789C39.7202 21.8788 40.0005 21.9349 40.2617 22.043C40.5229 22.1511 40.7591 22.31 40.959 22.5098C41.1589 22.7097 41.3176 22.9459 41.4258 23.207C41.5341 23.4682 41.5898 23.7485 41.5898 24.0312C41.5899 24.314 41.534 24.5942 41.4258 24.8555C41.3177 25.1167 41.159 25.3528 40.959 25.5527C40.7591 25.7527 40.5229 25.9114 40.2617 26.0195C40.0004 26.1277 39.7202 26.1837 39.4375 26.1836C39.1549 26.1836 38.8745 26.1278 38.6133 26.0195C38.3522 25.9113 38.1158 25.7526 37.916 25.5527C37.7162 25.3528 37.5573 25.1167 37.4492 24.8555C37.3411 24.5944 37.2851 24.314 37.2852 24.0312C37.2853 23.4605 37.5124 22.9133 37.916 22.5098C38.3195 22.1062 38.8667 21.879 39.4375 21.8789ZM8.20312 22.1504H9.52344H9.64062H10.7441H11.2578H13.9473H17.6387V25.7422H13.9473H11.2578H10.7441H9.64062H9.52344H8.20312C7.20845 25.7422 6.40625 24.9402 6.40625 23.9453C6.40625 22.9513 7.20845 22.1504 8.20312 22.1504ZM18.1523 22.1504H21.5234H25.248H25.7637H25.9473H28.2188C29.2138 22.1504 30.0156 22.9513 30.0156 23.9453C30.0156 24.9402 29.2138 25.7422 28.2188 25.7422H25.9473H25.7637H25.248H21.5234H18.1523V22.1504ZM33.7188 22.1602C33.472 22.1602 33.2278 22.2083 33 22.3027C32.7721 22.3972 32.565 22.5364 32.3906 22.7109C32.2162 22.8854 32.0767 23.0924 31.9824 23.3203C31.8881 23.5483 31.8398 23.7924 31.8398 24.0391C31.8398 24.2857 31.8881 24.5298 31.9824 24.7578C32.0767 24.9857 32.2162 25.1928 32.3906 25.3672C32.565 25.5417 32.7721 25.681 33 25.7754C33.2278 25.8699 33.472 25.918 33.7188 25.918C33.9655 25.9181 34.2095 25.8698 34.4375 25.7754C34.6656 25.681 34.8724 25.5417 35.0469 25.3672C35.2214 25.1927 35.3607 24.9858 35.4551 24.7578C35.5495 24.5298 35.5978 24.2858 35.5977 24.0391C35.5978 23.7923 35.5495 23.5483 35.4551 23.3203C35.3607 23.0923 35.2214 22.8835 35.0469 22.709C34.8724 22.5345 34.6656 22.3971 34.4375 22.3027C34.2095 22.2083 33.9655 22.1601 33.7188 22.1602ZM33.7188 22.668C33.899 22.6677 34.0776 22.7027 34.2441 22.7715C34.4106 22.8403 34.5621 22.941 34.6895 23.0684C34.8169 23.1957 34.9174 23.3473 34.9863 23.5137C35.0552 23.6802 35.0899 23.8589 35.0898 24.0391C35.0897 24.219 35.0554 24.3963 34.9863 24.5625C34.9173 24.7287 34.8149 24.8807 34.6875 25.0078C34.5602 25.135 34.4086 25.2361 34.2422 25.3047C34.0758 25.3734 33.8988 25.4085 33.7188 25.4082C33.3557 25.408 33.0067 25.2626 32.75 25.0059C32.4932 24.7492 32.3499 24.4021 32.3496 24.0391C32.3495 23.8591 32.3844 23.68 32.4531 23.5137C32.5219 23.3474 32.6229 23.1976 32.75 23.0703C32.877 22.943 33.0273 22.8405 33.1934 22.7715C33.3596 22.7026 33.5389 22.6681 33.7188 22.668Z" fill="#333333"/>
</svg>
