<svg width="48" height="48" viewBox="0 0 48 48" fill="none" xmlns="http://www.w3.org/2000/svg">
<path d="M18.7461 7.29492V11.4199C21.3738 12.3667 22.6738 11.8832 23.9922 11.4199V7.29492H18.7461ZM20.9043 8.48047H21.7578V9.31445H22.5898V10.166H21.7578V11H20.9043V10.166H20.0723V9.31445H20.9043V8.48047ZM7.47266 10.5469L8.30078 11.5566V21.1016H7.47266V21.1992H7.4707L7.47266 22.4082H26.9512V21.1016H26.2773V11.5391H26.2695L26.9512 10.5469H24.2344V11.6484C22.4717 12.439 20.5744 12.5106 18.502 11.6484V10.5469H7.47266ZM25.9512 11.0293L25.7695 11.5391V12.0391L25.7773 21.6016H26.4512V21.9082H7.9707V21.6016H8.80078V21.1016V11.5566L8.61914 11.0469H18.002V11.8867C20.4381 13.0707 22.6512 12.8794 24.7344 11.8867V11.0469L25.9512 11.0293ZM23.6445 14.1367L18.8984 14.1387V21.1016V21.6016H23.6445V14.1367ZM18.6465 14.1387L9.54102 14.1445V19.9121H18.6504V19.4121V14.1445L18.6465 14.1387ZM19.3984 14.6367H23.1445V21.1016H19.3984V14.6367ZM10.041 14.6445H18.1504V19.4121H10.041V14.6445ZM31.5762 21.8594C30.486 21.9113 29.4544 22.2924 28.7344 22.959C28.2632 23.3952 28.0586 23.6955 27.8418 24.2754C27.6789 24.7108 27.6666 24.811 27.6621 25.7109C27.6595 26.2426 27.6784 26.8658 27.7051 27.0977C27.7318 27.3295 27.7318 27.5162 27.7051 27.5117C27.5339 27.4836 27.4206 27.543 27.3086 27.7207C27.0285 28.1654 27.2734 29.3016 27.7578 29.8027C28.0029 30.0563 28.0443 30.3678 27.9102 30.9707C27.7025 31.9041 27.2038 32.5931 26.4902 32.9316C26.2948 33.0244 26.1326 33.1167 26.1309 33.1387C26.1279 33.1767 26.9193 33.4047 27.25 33.4609C27.5767 33.5165 28.3804 33.5012 28.6973 33.4336C29.1278 33.3418 29.5998 33.1304 29.8535 32.916L30.0566 32.7461L30.4609 33.002C31.4971 33.6563 32.185 33.6659 33.1699 33.0449L33.5039 32.8359L33.7734 33.0156C34.4687 33.4849 35.5595 33.6237 36.709 33.3867C37.6917 33.1841 37.7006 33.1767 37.2734 32.9863C36.4957 32.6398 35.9314 31.8471 35.7969 30.916C35.6874 30.1588 35.7026 30.0525 35.9746 29.7383C36.618 28.9949 36.6946 27.7228 36.1094 27.502C35.9417 27.4386 35.9409 27.4345 35.998 27.0566C36.0962 26.4079 36.078 25.1055 35.9609 24.625C35.6758 23.4547 34.8028 22.5524 33.5469 22.1309C32.9056 21.9156 32.2303 21.8282 31.5762 21.8594ZM14.4434 23.5566L11.1387 27.1953L12.6191 27.1973C13.3032 33.6852 21.7828 32.796 23.7246 32.7383C20.7974 32.1784 15.9512 30.3255 16.1348 27.2031L18.0469 27.1895L14.4434 23.5566ZM34.1133 24.541C34.1503 24.5492 34.2043 24.5917 34.3047 24.6758C34.8242 25.1108 35.3594 26.0548 35.3594 26.5371C35.3594 26.6908 35.3016 27.1591 35.2305 27.5781C35.1593 27.9971 35.117 28.3572 35.1367 28.377C35.1564 28.3967 35.1719 28.3715 35.1719 28.3223C35.1719 28.169 35.483 27.7676 35.6016 27.7676C35.9412 27.7676 36.0338 28.4259 35.7734 28.9844C35.6935 29.1559 35.5792 29.3354 35.5195 29.3848C35.4598 29.4341 35.3254 29.6457 35.2207 29.8535C34.5565 31.1716 33.5566 32.2389 32.5234 32.7344C31.9808 32.9946 31.709 33.002 31.2129 32.7656C30.2042 32.2849 29.1486 31.1769 28.5312 29.9512C28.4363 29.7626 28.2683 29.5018 28.1582 29.373C27.804 28.9587 27.6424 28.1994 27.8477 27.9062C28.0316 27.6437 28.2298 27.7446 28.4961 28.2363C28.5936 28.4166 28.6215 28.4428 28.5996 28.3301C28.3389 26.988 28.3384 27.0044 28.6543 26.709C28.8138 26.5597 28.8654 26.5509 29.8926 26.5098C31.0807 26.4622 31.7036 26.341 32.4082 26.0215C33.0908 25.712 33.6795 25.1981 34.0234 24.6133C34.0556 24.5586 34.0763 24.5328 34.1133 24.541ZM28.4219 34.1445C28.379 34.1609 27.838 34.3349 27.2207 34.5312C25.4261 35.1024 24.6801 35.4496 24.0527 36.002C23.6905 36.3209 23.2922 37.0711 23.1641 37.6758C23.0616 38.159 23.0462 39.3582 23.1387 39.6914C23.2248 40.0014 23.4794 40.2932 23.7871 40.4336C24.0283 40.5437 24.377 40.5493 31.9316 40.5352L39.8242 40.5195L40.0781 40.3535C40.5055 40.0706 40.5957 39.7942 40.5957 38.7676C40.5957 37.7475 40.5169 37.3824 40.1523 36.6816C39.9561 36.3045 39.8212 36.1353 39.5371 35.9121C38.8227 35.3508 38.1968 35.077 36.1855 34.4434L35.2344 34.1445L35.1973 34.3691C34.877 36.3102 34.0553 37.4452 32.2402 38.4512L31.8379 38.6738L31.4941 38.4785C30.2528 37.7772 29.541 37.1068 29.0566 36.1758C28.8044 35.6909 28.498 34.6614 28.498 34.3008C28.498 34.1779 28.4735 34.1248 28.4219 34.1445ZM28.0605 34.7988L28.1836 35.2832C28.6022 36.6776 29.4751 37.912 31.1582 38.8652L31.5938 39.1113L31.8516 39.2422L32.0762 39.1113L32.5117 38.8652C34.5888 37.615 35.1119 36.4466 35.5098 35.2832L35.6328 34.7988L38.6289 35.9023L39.0488 36.1738C39.8516 36.8917 40.0245 37.6452 40.0859 38.4043L40.0957 38.9043C40.1084 39.6657 39.9162 40.1291 39.3262 40.0176L24.4961 40.0273C23.7784 40.0767 23.5714 39.6021 23.5801 38.9043L23.5879 38.4043C23.6969 37.2797 24.1812 36.5877 24.8086 36.0645L25.2402 35.8145L27.5859 34.9531L28.0605 34.7988Z" fill="#333333"/>
</svg>
