<svg width="48" height="48" viewBox="0 0 48 48" fill="none" xmlns="http://www.w3.org/2000/svg">
<g clip-path="url(#clip0)">
<path fill-rule="evenodd" clip-rule="evenodd" d="M-0.0527344 0.183594V48.1836H47.9473V0.183594H-0.0527344ZM20.9102 5.38477H21.5449C22.9166 5.38477 24.0195 6.48771 24.0195 7.85937V17.9512V23.7773C24.0195 24.1288 24.2471 24.4121 24.5293 24.4121C24.8115 24.4121 25.0391 24.1288 25.0391 23.7773V18.2383V10.6465C25.0391 8.7455 26.2103 7.32227 27.6113 7.32227C29.1274 7.35545 30.4118 8.68918 30.5098 10.6465V30.3418L34.4668 26.8301C35.7267 25.712 37.7623 25.7008 39.0332 26.8066C40.3043 27.9124 40.3146 29.704 39.0547 30.8223L27.9531 40.6758C26.583 42.0988 24.6601 42.9844 22.5195 42.9844H15.4473C11.5312 42.9844 8.33104 40.0298 7.94531 36.2188C7.91759 36.0637 7.90234 35.9031 7.90234 35.7383V16.5215C7.90234 15.2175 8.816 14.168 9.94922 14.168C11.0824 14.168 11.9941 15.2175 11.9941 16.5215V18.6387V24.1445C11.9941 24.4267 12.2217 24.6543 12.5039 24.6543C12.7861 24.6543 13.0137 24.4265 13.0137 24.1445V11.0312C13.0245 9.55803 14.0926 8.64844 15.3105 8.64844C16.5319 8.64844 17.4262 9.55232 17.4316 11.0312V22.541C17.4316 22.9023 17.6573 23.1934 17.9395 23.1934C18.2216 23.1934 18.4492 22.9023 18.4492 22.541V7.58594C18.5848 6.34414 19.6311 5.38477 20.9102 5.38477Z" fill="#333333"/>
</g>
<defs>
<clipPath id="clip0">
<rect width="48" height="48" fill="white"/>
</clipPath>
</defs>
</svg>
