<svg width="48" height="48" viewBox="0 0 48 48" fill="none" xmlns="http://www.w3.org/2000/svg">
<path fill-rule="evenodd" clip-rule="evenodd" d="M20.9096 5.38402C19.6305 5.38402 18.5851 6.34456 18.4495 7.58636V22.5416C18.4495 22.9029 18.2224 23.1932 17.9402 23.1932C17.6581 23.1932 17.4309 22.9029 17.4309 22.5416V11.0306C17.4255 9.55166 16.5313 8.64889 15.3099 8.64889C14.092 8.64889 13.024 9.55737 13.0132 11.0306V24.1442C13.0132 24.4261 12.786 24.6534 12.5039 24.6534C12.2217 24.6534 11.9946 24.4263 11.9946 24.1442V18.6391C11.9943 18.6393 11.9938 18.639 11.9936 18.6391V16.5223C11.9936 15.2182 11.0816 14.1677 9.94836 14.1677C8.81514 14.1677 7.90314 15.2182 7.90314 16.5223V35.738C7.90314 35.9028 7.9172 36.0634 7.94492 36.2185C8.33064 40.0296 11.5313 42.9848 15.4474 42.9848H22.5201C24.6607 42.9848 26.5833 42.0981 27.9534 40.675L39.0539 30.8219C40.3139 29.7036 40.305 27.9128 39.0339 26.8071C37.763 25.7013 35.7259 25.7117 34.466 26.8298L30.5098 30.3413V10.6471C30.4118 8.68977 29.1276 7.3561 27.6116 7.32292C26.2106 7.32292 25.0387 8.74609 25.0387 10.6471V18.239V23.7769C25.0387 24.1284 24.8115 24.4114 24.5294 24.4114C24.2472 24.4114 24.0201 24.1284 24.0201 23.7769V17.9505V7.85972C24.0201 6.48805 22.9158 5.38379 21.5441 5.38379L20.9096 5.38402Z" fill="#333333"/>
</svg>
