<svg width="48" height="48" viewBox="0 0 48 48" fill="none" xmlns="http://www.w3.org/2000/svg">
<path fill-rule="evenodd" clip-rule="evenodd" d="M26.9239 4C27.8915 4 28.79 4.21665 29.5915 4.67461C30.2762 5.06587 31.0534 5.60468 31.6281 6.40924L31.6157 6.41808L31.627 6.4332L33.9586 9.45545L34.7796 10.5502C37.3106 13.8928 37.3101 18.5471 34.7782 21.8893L30.2704 27.7084L37.2193 36.6521C37.8624 37.4799 37.7573 38.6639 36.9783 39.3654L32.9123 43.0268C32.0517 43.8018 30.7149 43.6861 30.0003 42.7749L24.2095 35.3917L18.3653 42.843C17.6917 43.7019 16.4539 43.862 15.5839 43.2029L11.2055 39.8859C10.3157 39.2118 10.1499 37.9398 10.8373 37.0602L18.1512 27.7016L13.647 21.9878L13.6411 21.98C11.1091 18.6379 11.1086 13.9837 13.6396 10.641L13.6411 10.639L14.4524 9.55709L16.7888 6.52844C16.8242 6.48089 16.8605 6.43373 16.8976 6.38697C18.0074 4.84975 19.8518 4 21.6763 4H26.9239ZM28.5992 6.4111C29.1503 6.726 29.6184 7.07086 29.9468 7.49896L29.9321 7.51045L30.0322 7.64017C31.0761 9.05028 31.0687 11.0297 30.01 12.4317C29.076 11.862 27.9651 11.5093 26.8335 11.5093H21.5859C20.4635 11.5093 19.3187 11.8099 18.3447 12.4333C17.8618 11.7462 17.6096 10.8772 17.6096 10.0667C17.6096 9.25167 17.8659 8.43472 18.3833 7.73584L18.4984 7.5867L18.5091 7.57171C19.2105 6.58966 20.4334 6 21.6763 6H26.9239C27.5848 6 28.1339 6.14525 28.5992 6.4111ZM19.5742 14.0266L24.1745 19.9687L28.7744 14.0271C28.1757 13.7019 27.4961 13.5093 26.8335 13.5093H21.5859C20.8667 13.5093 20.1665 13.6876 19.5742 14.0266ZM28.9965 26.0871L25.4439 21.5961L31.51 13.7607C32.1355 12.9766 32.5352 12.0671 32.7091 11.1228L33.1839 11.7559C35.1743 14.3831 35.1753 18.049 33.1871 20.6774L28.9965 26.0871ZM19.4259 29.3185L12.4132 38.2918L16.7916 41.6087L22.9374 33.7729L19.4259 29.3185ZM16.9092 13.8515C16.2874 13.0717 15.8933 12.14 15.7171 11.2043L15.2382 11.8429L15.2353 11.8467C13.2458 14.4728 13.2439 18.1368 15.2296 20.7648L24.9965 33.1543L31.574 41.5406L35.6399 37.8792L28.2206 28.3299L23.4253 22.2681L16.9092 13.8515Z" fill="#333333"/>
</svg>
