<?xml version="1.0" encoding="UTF-8" standalone="no"?>
<!-- Created with Inkscape (http://www.inkscape.org/) -->
<svg id="svg8" xmlns:rdf="http://www.w3.org/1999/02/22-rdf-syntax-ns#" xmlns="http://www.w3.org/2000/svg" xmlns:osb="http://www.openswatchbook.org/uri/2009/osb" height="48" width="48" version="1.1" xmlns:cc="http://creativecommons.org/ns#" viewBox="0 0 12.7 12.7" xmlns:dc="http://purl.org/dc/elements/1.1/">
 <title id="title4753">UIO-icon</title>
 <metadata id="metadata5">
  <rdf:RDF>
   <cc:Work rdf:about="">
    <dc:format>image/svg+xml</dc:format>
    <dc:type rdf:resource="http://purl.org/dc/dcmitype/StillImage"/>
    <dc:title>UIO-icon</dc:title>
    <dc:creator>
     <cc:Agent>
      <dc:title>Joaquín Urbano</dc:title>
     </cc:Agent>
    </dc:creator>
    <dc:rights>
     <cc:Agent>
      <dc:title>GPL</dc:title>
     </cc:Agent>
    </dc:rights>
   </cc:Work>
  </rdf:RDF>
 </metadata>
 <g id="layer1" fill="#333" transform="translate(0,-284.3)">
  <path id="path899" d="m24.098 5.0234c-1.6618-0.015118-3.3634 0.16022-5.1133 0.56055 0.66227 2.8009 1.4701 4.0666 2.5059 5.9199 1.3104-0.41151 3.4669-0.67149 4.7773-0.056641 1.4196-2.1386 2.1132-4.0476 2.7031-5.8672-1.592-0.3435-3.212-0.5423-4.873-0.5566zm-0.005859 0.49023c1.4389 0.026157 2.8286 0.20787 4.1973 0.46094-0.40265 1.1913-0.76216 2.3309-2.2246 4.8398-1.576-0.403-2.982-0.269-4.323 0.061-0.85-1.4318-1.607-2.9954-2.135-4.8965 1.559-0.3616 3.046-0.491 4.485-0.4648zm-5.694 0.6524-1.044 3.1465c-0.81719 2.4625-1.0607 3.47-1.1289 4.6094-0.10084 1.6841-0.15463 1.5452 1.7285 4.4336 0.7572 1.1615 1.4181 2.1132 1.4707 2.1152 0.11608 0.003742 3.5938-4.9647 3.5938-5.1348 0-0.067276-0.69481-1.2058-1.541-2.5312-1.75-2.739-2.719-4.6755-2.93-5.8392zm11.207 0-0.16016 0.85352c-0.19858 1.0441-1.2746 3.1976-2.834 5.6816-6.0471 8.8473-10.839 15.554-17.295 24.695 1.3087 1.8441 2.709 3.861 4.166 5.4629 6.3791-10.703 12.895-16.793 18.275-27.494 0.23548-1.2554-0.034024-2.7219-1.0938-5.9629zm0.072266 1.541 1.3418 4.6953c0.16531 0.74759 0.37579 1.37 0.35352 2.6211l-1.0723 2.0312c-0.54061 0.95079-1.1726 2.0399-1.8301 3.166l-2.7617 4.2383-7.7578 10.664c-1.2692 1.8355-2.7089 3.6923-4.5449 6.8672-1.6111-1.8061-2.385-3.1077-3.4629-4.5938l10.325-14.629 0.183-0.262 5.102-7.348 0.177-0.265c1.105-1.6228 2.0993-3.1935 2.9336-4.6914 0.27689-0.55399 0.5463-1.0749 1.0137-2.4922zm-11.359 0.0196c0.283 1.8698 2.259 4.7664 4.108 7.5854l-2.987 4.376-2.263-3.504-0.162-0.278c-0.494-0.755-0.218-1.604-0.244-2.416l0.027-0.318c-0.005-1.035 1.332-4.1573 1.521-5.4454zm10.297 15.443-1.74 2.568c-0.95785 1.4126-1.7759 2.6895-1.8184 2.8379-0.042667 0.14891 0.7234 1.4433 1.7012 2.8789 2.762 4.0008 5.049 7.5782 7.8691 11.521 1.4838-1.9202 2.538-3.4396 4.0566-5.5586-3.3555-4.7497-6.7124-9.4987-10.068-14.248zm0 0.85547 9.4395 13.387-3.4062 4.7012c-3.05-4.406-6.08-8.86-9.041-13.482z" transform="matrix(.26458 0 0 .26458 0 284.3)" stroke-width="3.7795"/>
 </g>
</svg>
