<svg width="48" height="48" viewBox="0 0 48 48" fill="none" xmlns="http://www.w3.org/2000/svg">
<path d="M31.0081 7.11538V7.11538C30.4691 5.73795 29.2375 4.75167 27.7756 4.52676L27.3402 4.45977C25.3595 4.15505 23.3438 4.15505 21.3631 4.45977L20.9277 4.52676C19.4658 4.75167 18.2342 5.73795 17.6952 7.11538V7.11538M31.0081 7.11538L33.446 13.3456C33.8867 14.4717 33.7942 15.7368 33.1945 16.7869L29.8632 22.6201L25.6265 15.7676L27.9932 12.011M31.0081 7.11538L27.9932 12.011M17.6952 7.11538L15.2604 13.3376C14.8179 14.4683 14.913 15.7388 15.5189 16.791L20.1239 24.7892L24.3517 32.1322L30.32 42.4982C30.9279 43.5541 32.3308 43.8257 33.2889 43.0729L36.2979 40.7086C37.0983 40.0797 37.2987 38.95 36.7634 38.0842L28.5621 24.8193L24.3254 17.9668L20.643 12.011M17.6952 7.11538L20.643 12.011M20.643 12.011L21.0542 11.9123C23.2212 11.3922 25.481 11.3969 27.6458 11.9261L27.9932 12.011M23.038 34.3617L18.7623 27L11.9356 38.0853C11.4025 38.9508 11.6035 40.0786 12.4029 40.7067L15.4104 43.0697C16.3699 43.8236 17.775 43.55 18.3815 42.4911L23.038 34.3617Z" stroke="#333333" stroke-linejoin="round"/>
</svg>
