<svg width="48" height="48" viewBox="0 0 48 48" fill="none" xmlns="http://www.w3.org/2000/svg">
<path fill-rule="evenodd" clip-rule="evenodd" d="M33.1392 13.6802C35.26 13.6802 36.9793 11.9609 36.9793 9.84009C36.9793 7.71927 35.26 6 33.1392 6C31.0184 6 29.2991 7.71927 29.2991 9.84009C29.2991 11.9609 31.0184 13.6802 33.1392 13.6802ZM36.7807 14.6125C37.3481 14.5179 37.9196 14.7561 38.2519 15.2257L41.7243 20.1339C42.1156 20.6871 42.0875 21.4339 41.6558 21.9561L38.1834 26.1559C37.6555 26.7943 36.71 26.884 36.0715 26.3561C35.433 25.8282 35.3434 24.8827 35.8713 24.2443L37.0444 22.8255C37.0101 22.6558 36.9531 22.4878 36.872 22.3255C36.796 22.1736 36.7033 22.0356 36.5973 21.9125C37.5683 21.8042 38.3233 20.9806 38.3233 19.9806C38.3233 18.907 37.4529 18.0366 36.3793 18.0366C35.3056 18.0366 34.4353 18.907 34.4353 19.9806C34.4353 20.3704 34.55 20.7333 34.7474 21.0376L32.9532 20.4336L32.953 19.232C32.953 18.6797 32.5052 18.2321 31.9529 18.2322C31.4006 18.2322 30.953 18.68 30.953 19.2323L30.9533 21.1523C30.9533 21.5816 31.2274 21.963 31.6342 22.1L32.3614 22.3447L30.3007 23.3751C30.0333 23.5088 29.809 23.6942 29.6338 23.9132L31.4353 26.1891C31.9494 26.8387 31.8397 27.7821 31.1901 28.2963C30.5406 28.8104 29.5972 28.7006 29.083 28.0511L25.4831 23.5031C25.1217 23.0466 25.0572 22.4221 25.3176 21.9013L27.6819 17.1727C28.0396 16.4573 28.718 15.9563 29.5069 15.8248L36.7807 14.6125Z" fill="#333333"/>
<path fill-rule="evenodd" clip-rule="evenodd" d="M28.0866 29.1341C28.4686 29.9509 29.2977 30.5168 30.259 30.5168C31.5826 30.5168 32.6557 29.4438 32.6558 28.1202L32.6592 28.1202C33.4984 28.1202 34.2817 27.8809 34.9447 27.4668C35.3679 28.145 36.1208 28.5963 36.9791 28.5963C37.5833 28.5963 38.1352 28.3727 38.5567 28.0038C39.3198 31.0767 40.0691 33.3176 40.5324 34.5865C40.7571 35.2018 40.367 35.8884 39.7166 35.9666C35.7401 36.4448 31.138 36.456 27.1725 35.9579C26.5579 35.8807 26.1792 35.2565 26.3717 34.6677C26.7923 33.3812 27.4957 31.1869 28.0866 29.1341Z" fill="#333333"/>
<path fill-rule="evenodd" clip-rule="evenodd" d="M28 38.0138V40.4998C28 41.252 28.5571 41.8879 29.3028 41.9868C30.0485 42.0856 30.7521 41.6169 30.9482 40.8907L31.6222 38.394C30.4639 38.3295 29.2751 38.2032 28 38.0138ZM35.3757 38.3862L36.0518 40.8907C36.2479 41.6169 36.9515 42.0856 37.6972 41.9868C38.4429 41.8879 39 41.252 39 40.4998V38C37.7242 38.1883 36.5347 38.3175 35.3757 38.3862Z" fill="#333333"/>
<path fill-rule="evenodd" clip-rule="evenodd" d="M22.853 29.1487C23.6582 28.954 24.153 28.1433 23.9583 27.3381C23.7635 26.5329 22.9529 26.0381 22.1477 26.2328C19.2871 26.9247 17.129 27.2359 15.0058 27.228C12.8783 27.2201 10.7148 26.8917 7.83694 26.229C7.02964 26.0431 6.22449 26.5469 6.03859 27.3542C5.85268 28.1615 6.35643 28.9666 7.16372 29.1525C8.86896 29.5452 10.3867 29.8376 11.8309 30.0177V34.3519C11.822 34.3937 11.8148 34.4362 11.8093 34.4793L11.076 40.3128C10.9749 41.117 11.5309 41.856 12.3317 41.9817C13.1324 42.1074 13.8881 41.5743 14.0383 40.7778L15.1309 34.9834L16.2236 40.7778C16.3738 41.5743 17.1295 42.1074 17.9302 41.9817C18.7309 41.856 19.287 41.117 19.1859 40.3128L18.4525 34.4793C18.4471 34.4361 18.4399 34.3935 18.4309 34.3515V30.0025C19.8002 29.8235 21.2421 29.5383 22.853 29.1487Z" fill="#333333"/>
<path d="M18 23C18 24.6569 16.6569 26 15 26C13.3431 26 12 24.6569 12 23C12 21.3431 13.3431 20 15 20C16.6569 20 18 21.3431 18 23Z" fill="#333333"/>
</svg>
