<?xml version="1.0" encoding="UTF-8" standalone="no"?>
<!-- Created with Inkscape (http://www.inkscape.org/) -->
<svg id="svg8" xmlns:rdf="http://www.w3.org/1999/02/22-rdf-syntax-ns#" xmlns="http://www.w3.org/2000/svg" xmlns:osb="http://www.openswatchbook.org/uri/2009/osb" height="48" width="48" version="1.1" xmlns:cc="http://creativecommons.org/ns#" viewBox="0 0 12.7 12.7" xmlns:dc="http://purl.org/dc/elements/1.1/">
 <title id="title4753">UIO-icon</title>
 <metadata id="metadata5">
  <rdf:RDF>
   <cc:Work rdf:about="">
    <dc:format>image/svg+xml</dc:format>
    <dc:type rdf:resource="http://purl.org/dc/dcmitype/StillImage"/>
    <dc:title>UIO-icon</dc:title>
    <dc:creator>
     <cc:Agent>
      <dc:title>Joaquín Urbano</dc:title>
     </cc:Agent>
    </dc:creator>
    <dc:rights>
     <cc:Agent>
      <dc:title>GPL</dc:title>
     </cc:Agent>
    </dc:rights>
   </cc:Work>
  </rdf:RDF>
 </metadata>
 <g id="layer1" transform="translate(0,-284.3)">
  <text id="text1512" style="word-spacing:0px;letter-spacing:0px" xml:space="preserve" font-size="7.0556px" line-height="1.25" y="270.5416565" x="44.97916794" font-family="robo" fill="#000000"><tspan id="tspan1510" y="276.9786682" x="44.97916794" stroke-width=".26458"/></text>
  <path id="path20418" d="m7.9507 285.37c-0.64164 0-1.1622 0.52005-1.1622 1.1617 0 0.64164 0.52057 1.1617 1.1622 1.1617 0.64164 0 1.1617-0.52005 1.1617-1.1617 0-0.64164-0.52005-1.1617-1.1617-1.1617zm0.11265 2.6091-0.22841 0.0005168-1.0578 0.0005167v0.0031c-0.1901 0.004-0.37154 0.10823-0.46095 0.29146l-0.48731 0.99787c-0.15131 0.27068-0.1034 0.3398 0.051676 0.57826l0.83561 1.1658c-0.06889 0.50977-0.21435 1.0322-0.48317 1.6314-0.014183-0.047356-0.026418-0.093157-0.053227-0.1509l-0.51211-1.0501-0.079582-0.16175-0.18965-0.38912c-0.05277-0.10814-0.15451-0.17283-0.2651-0.18707-0.57703-0.00656-1.098-0.021104-1.6283 0.00258-0.10718 0.016512-0.20542 0.079124-0.25683 0.18448-0.093078 0.18164-0.17889 0.36602-0.26562 0.55035l-0.003617 0.0005167-0.57568 1.1798c-0.083622 0.17134-0.012705 0.37734 0.15865 0.46095 0.17135 0.083624 0.37578 0.012732 0.4594-0.15865l0.52968-1.0857v3.7517c0 0.19067 0.1535 0.34416 0.34417 0.34416s0.34417-0.1535 0.34417-0.34416v-2.0247h0.1664v2.0247c0 0.19067 0.1535 0.34416 0.34417 0.34416s0.34417-0.1535 0.34417-0.34416v-3.7543l0.53072 1.0883c0.083621 0.17135 0.28857 0.24226 0.45992 0.15865 0.016075-0.00961 0.02562-0.021809 0.039791-0.032039h0.65267v2.3601c0 0.28979 0.23265 0.52348 0.52245 0.52348 0.28979 0 0.52297-0.23369 0.52297-0.52348v-2.3601h0.25218v2.3601c0 0.2898 0.23369 0.52348 0.52348 0.52348s0.52297-0.23368 0.52297-0.52348v-2.3601h0.73742c-0.35141-0.73354-0.54111-1.3216-0.63975-1.9286l0.93689-0.89969c0.23554-0.22052 0.21657-0.33844 0.050126-0.67954l-0.62167-1.2738c-0.08979-0.184-0.27204-0.28949-0.46302-0.29197v-0.0031zm1.0392 0.19172v0.00362c0.12473 0.00338 0.24356 0.070626 0.30282 0.19069 0.214 0.43036 0.42677 0.85766 0.63975 1.2878 0.12367 0.22414 0.16307 0.25936-0.021704 0.43822l-1.0165 0.98392c-0.13811 0.13376-0.35716 0.13037-0.49093-0.00775-0.13372-0.13812-0.12991-0.35663 0.008268-0.49041l0.44648-0.43305c0.003705-0.00449 0.006027-0.0104 0.010852-0.014986l0.12506-0.12092c0.23969-0.14204 0.38678-0.39989 0.38706-0.67851 0-0.43609-0.35352-0.78962-0.78962-0.78962-0.43609 0-0.78962 0.35352-0.78962 0.78962 0.00042863 0.37262 0.26129 0.69423 0.6258 0.77153-0.38515-0.032567-0.56825-0.1751-0.66921-0.43977l-0.15348-0.34985c-0.069855-0.15939-0.2258-0.25354-0.38912-0.25115-0.054442 0.0007991-0.10965 0.012373-0.16278 0.035657-0.1644 0.072051-0.25781 0.23578-0.24908 0.40463 0.03312 0.22927 0.13221 0.41591 0.20929 0.58859l0.36018 0.50695c0.1114 0.15673 0.074551 0.37282-0.082166 0.48421-0.15673 0.11138-0.37231 0.074549-0.48369-0.082165l-0.89245-1.2552c-0.15595-0.17415-0.12143-0.21202-0.024805-0.40773 0.16163-0.32542 0.32274-0.64435 0.48369-0.97048 0.063827-0.12929 0.19622-0.20127 0.33125-0.19327zm-4.7796 0.81494c-0.42191 0.0001773-0.7636 0.34187-0.76378 0.76378-0.00019238 0.42217 0.34161 0.76463 0.76378 0.76481 0.42243 0.0001927 0.765-0.34238 0.76481-0.76481-0.00017745-0.42217-0.34264-0.76397-0.76481-0.76378z" fill-rule="evenodd" fill="#333"/>
 </g>
</svg>
