<svg width="48" height="48" viewBox="0 0 48 48" fill="none" xmlns="http://www.w3.org/2000/svg">
<path fill-rule="evenodd" clip-rule="evenodd" d="M27.5005 10.5C27.5005 8.01472 29.5152 6 32.0005 6C34.4858 6 36.5005 8.01472 36.5005 10.5C36.5005 12.0806 35.6856 13.4708 34.4531 14.2735L35.8898 14.0341C36.915 13.8632 37.9391 14.3445 38.4617 15.2429L41.6614 20.7429C42.1814 21.6367 42.0975 22.7583 41.4503 23.5648L38.9517 26.6784L38.9729 26.7668C39.3019 28.1389 39.5948 29.5767 39.8549 30.8537C39.8599 30.878 39.8648 30.9023 39.8697 30.9265C39.9043 31.096 39.9382 31.2625 39.9716 31.4255C40.268 32.8744 40.5071 33.9816 40.7058 34.5452C41.1091 35.6889 40.4422 37.103 39.0862 37.2718C35.1063 37.7675 30.508 37.7795 26.5313 37.2623C25.2479 37.0953 24.5648 35.7884 24.9213 34.6592C25.0082 34.3839 25.1179 34.0412 25.2423 33.6527C25.6746 32.3027 26.2844 30.3982 26.7331 28.8348L25.8046 27.6617C25.5067 28.3672 24.8897 28.9271 24.0883 29.121C22.7859 29.436 21.5823 29.6862 20.4311 29.8684V33.2596C20.4363 33.2911 20.4409 33.3228 20.4449 33.3547L21.1783 39.1882C21.3468 40.5285 20.42 41.7602 19.0855 41.9697C17.751 42.1792 16.4914 41.2907 16.2411 39.9632L16.1311 39.3801L16.0211 39.9632C15.7708 41.2907 14.5112 42.1792 13.1767 41.9697C11.8422 41.7602 10.9155 40.5285 11.084 39.1882L11.8173 33.3547C11.8213 33.3228 11.8259 33.2911 11.8311 33.2596V29.8892C10.6075 29.7043 9.32897 29.4473 7.93954 29.1273C6.59404 28.8175 5.75447 27.4755 6.06431 26.13C6.37415 24.7845 7.71607 23.945 9.06157 24.2548C10.7314 24.6394 12.1387 24.9054 13.4254 25.061C12.5541 24.3272 12.0005 23.2283 12.0005 22C12.0005 19.7909 13.7914 18 16.0005 18C18.2097 18 20.0005 19.7909 20.0005 22C20.0005 23.2396 19.4366 24.3475 18.5514 25.0812C19.8398 24.9316 21.2463 24.6642 22.9128 24.2611C23.0061 24.2386 23.0994 24.2216 23.1924 24.2099C22.918 23.5497 22.9353 22.7911 23.2648 22.132L25.7371 17.1875C26.2379 16.1859 27.1876 15.4845 28.2922 15.3004L30.903 14.8652C28.9482 14.3753 27.5005 12.6067 27.5005 10.5ZM32.0005 8C30.6198 8 29.5005 9.11929 29.5005 10.5C29.5005 11.8807 30.6198 13 32.0005 13C33.3812 13 34.5005 11.8807 34.5005 10.5C34.5005 9.11929 33.3812 8 32.0005 8ZM31.6581 27.3105C31.5712 27.0011 31.4229 26.7035 31.211 26.4358L30.022 24.9336L33.0014 23.4439L30.0929 22.4743C29.8887 22.4063 29.751 22.2153 29.751 22.0001L29.7508 20.0001C29.7507 19.7239 29.9746 19.5 30.2507 19.5C30.5269 19.5 30.7507 19.7238 30.7508 19.9999L30.751 21.6396L34.3679 22.8453L34.7388 23.0383C34.9049 23.1248 35.0475 23.2576 35.1459 23.4321L34.351 24.4227C34.055 24.7915 33.8807 25.2185 33.8226 25.6554L33.6903 25.8138C33.1999 26.4013 32.8578 26.7935 32.556 27.047C32.274 27.2839 32.1302 27.3105 32.0412 27.3105H31.6581ZM28.389 30.3345L28.3542 30.4102C27.9466 31.7661 27.4817 33.2178 27.139 34.288C27.0175 34.6672 26.9112 34.9993 26.8285 35.2613C26.8281 35.2626 26.8277 35.2639 26.8274 35.2651C26.8267 35.2677 26.8262 35.2702 26.8259 35.2724C26.8258 35.2735 26.8257 35.2746 26.8256 35.2756C26.8254 35.2786 26.8254 35.2813 26.8257 35.2837C30.6108 35.7723 35.0124 35.7614 38.8144 35.2902C38.8261 35.268 38.8294 35.2379 38.8197 35.2103C38.564 34.4853 38.2961 33.214 38.0122 31.8264C37.974 31.6401 37.9354 31.4504 37.8962 31.2579L37.8941 31.2479C37.7142 30.3648 37.5226 29.424 37.3158 28.4867C37.0409 28.5616 36.7518 28.6018 36.4533 28.6018C35.7146 28.6018 35.037 28.3573 34.4882 27.9492C34.2731 28.1829 34.0585 28.3969 33.8424 28.5784C33.3611 28.9827 32.7753 29.3105 32.0412 29.3105H31.9179L31.3794 29.2997C31.2306 29.5412 31.0377 29.7613 30.8024 29.9476C30.0949 30.5076 29.1784 30.6235 28.389 30.3345ZM28.3421 23.6143C27.9693 23.1733 27.7511 22.606 27.751 22.0003L27.7508 20.0003C27.7506 18.6196 28.8698 17.5002 30.2505 17.5C31.6312 17.4998 32.7506 18.619 32.7508 19.9997L32.7508 20.1981L33.0145 20.286C33.0056 20.1918 33.001 20.0965 33.001 20C33.001 18.3432 34.3442 17 36.001 17C36.4896 17 36.951 17.1168 37.3586 17.324L36.733 16.2486C36.6284 16.069 36.4236 15.9727 36.2186 16.0069L28.621 17.2731C28.1476 17.352 27.7406 17.6527 27.5259 18.0819L25.0537 23.0264C24.9669 23.2 24.9884 23.4081 25.1089 23.5603L28.8587 28.2977C29.0301 28.5142 29.3446 28.5508 29.5611 28.3794C29.7776 28.208 29.8142 27.8936 29.6428 27.6771L27.3565 24.7887L27.8071 24.1742C27.9586 23.9676 28.1378 23.7789 28.3421 23.6143ZM38.9977 20.1415C38.941 21.3641 38.1524 22.3955 37.0601 22.8077C37.1517 23.0356 37.2136 23.27 37.2469 23.5061L37.3073 23.9343L35.9108 25.6744C35.738 25.8898 35.7725 26.2045 35.9879 26.3773C36.2032 26.5502 36.5179 26.5157 36.6908 26.3003L39.8905 22.313C40.0199 22.1517 40.0367 21.9274 39.9327 21.7486L38.9977 20.1415ZM36.001 19C35.4487 19 35.001 19.4477 35.001 20C35.001 20.5523 35.4487 21 36.001 21C36.5533 21 37.001 20.5523 37.001 20C37.001 19.4477 36.5533 19 36.001 19ZM23.9865 26.5735C23.9216 26.3051 23.6514 26.1402 23.383 26.2051C20.4767 26.908 18.2337 27.2366 16.0023 27.2283C13.7694 27.22 11.5247 26.8744 8.61276 26.2038C8.34366 26.1418 8.07527 26.3098 8.0133 26.5789C7.95134 26.848 8.11925 27.1163 8.38835 27.1783C10.0744 27.5666 11.5562 27.8513 12.9548 28.0257L13.8311 28.1349V33.4575L13.809 33.5608C13.806 33.5749 13.8035 33.5893 13.8017 33.6041L13.0683 39.4376C13.0346 39.7057 13.22 39.952 13.4869 39.9939C13.7538 40.0358 14.0057 39.8581 14.0558 39.5926L15.1484 33.7982H17.1138L18.2064 39.5926C18.2565 39.8581 18.5084 40.0358 18.7753 39.9939C19.0422 39.952 19.2276 39.7057 19.1939 39.4376L18.4605 33.6041C18.4587 33.5893 18.4562 33.5749 18.4532 33.5608L18.4311 33.4575V28.1251L19.3015 28.0113C20.6252 27.8382 22.0306 27.561 23.6181 27.177C23.8865 27.1121 24.0515 26.8419 23.9865 26.5735ZM14.0005 22C14.0005 20.8954 14.8959 20 16.0005 20C17.1051 20 18.0005 20.8954 18.0005 22C18.0005 23.1046 17.1051 24 16.0005 24C14.8959 24 14.0005 23.1046 14.0005 22Z" fill="#333333"/>
<path d="M31.8441 39.4263C30.7619 39.3897 29.663 39.2985 28.5005 39.1515V40.4999C28.5005 41.2521 29.0576 41.8879 29.8033 41.9868C30.549 42.0857 31.2526 41.617 31.4487 40.8908L31.8441 39.4263Z" fill="#333333"/>
<path d="M35.1416 39.3695L35.5524 40.8908C35.7484 41.617 36.452 42.0857 37.1977 41.9868C37.9434 41.8879 38.5005 41.2521 38.5005 40.4999V39C37.3219 39.1739 36.217 39.2975 35.1416 39.3695Z" fill="#333333"/>
</svg>
