<svg width="48" height="48" viewBox="0 0 48 48" fill="none" xmlns="http://www.w3.org/2000/svg">
<path fill-rule="evenodd" clip-rule="evenodd" d="M30.0499 4.04395C27.6248 4.04395 25.6574 6.00954 25.6574 8.43467C25.6574 10.8598 27.6249 12.8253 30.0499 12.8253C32.475 12.8253 34.4406 10.8598 34.4406 8.43467C34.4406 6.00957 32.4751 4.04395 30.0499 4.04395ZM30.0499 4.73727C32.0919 4.73746 33.747 6.39251 33.7472 8.43456C33.747 10.4766 32.0919 12.1317 30.0499 12.1318C28.0069 12.133 26.349 10.4775 26.3487 8.43456C26.349 6.39157 28.0069 4.73609 30.0499 4.73727ZM30.4757 13.9053L29.6124 13.9073L25.6144 13.9093V13.9209C24.8959 13.936 24.2102 14.33 23.8723 15.0225L22.0304 18.794C21.4586 19.817 21.6396 20.0782 22.2258 20.9795L25.384 25.3857C25.1236 27.3124 24.5738 29.2869 23.5578 31.5516C23.5042 31.3727 23.458 31.1995 23.3566 30.9813L21.4211 27.0125L21.1203 26.401L20.4035 24.9304C20.204 24.4769 19.8192 24.2501 19.4012 24.1745H18.6457H14.0343L13.2472 24.2097C12.8421 24.2721 12.4708 24.5087 12.2765 24.9069L11.5499 26.3912H11.5479L11.2725 26.987L11.2589 26.9889L9.08307 31.4479C8.76702 32.0955 9.03505 32.8742 9.68269 33.1902C10.3303 33.5062 11.103 33.2383 11.419 32.5905L13.4209 28.4871V42.6668C13.4209 43.3874 14.0011 43.9675 14.7217 43.9675C15.4424 43.9675 16.0225 43.3874 16.0225 42.6668V35.0143H16.6515V42.6668C16.6515 43.3874 17.2316 43.9675 17.9523 43.9675C18.6729 43.9675 19.2531 43.3874 19.2531 42.6668V28.4773L21.2589 32.5905C21.575 33.2381 22.3496 33.5062 22.9972 33.1902C23.058 33.1539 23.094 33.1077 23.1476 33.0691H25.6144V41.9892C25.6144 43.0844 26.4937 43.9676 27.589 43.9676C28.6843 43.9676 29.5656 43.0844 29.5656 41.9892V33.0691H30.5187V41.9892C30.5187 43.0845 31.4019 43.9676 32.4972 43.9676C33.5925 43.9676 34.4738 43.0845 34.4738 41.9892V33.0691H37.2609C35.9327 30.2966 35.2157 28.0741 34.8429 25.7799L38.3839 22.3795C39.2742 21.5461 39.2025 21.1003 38.5734 19.8111L36.2233 15.0111C35.8839 14.3157 35.1951 13.917 34.4733 13.9076V13.8959L30.4757 13.9053ZM34.4034 14.6299V14.6436C34.8748 14.6564 35.3239 14.9105 35.5479 15.3643C36.3567 16.9909 37.1609 18.6059 37.9658 20.2316C38.4333 21.0788 38.5822 21.2118 37.8838 21.8878L34.0419 25.6067C33.5199 26.1122 32.692 26.0994 32.1864 25.5774C31.681 25.0554 31.6954 24.2295 32.2177 23.7238L33.9052 22.0871C33.9192 22.0702 33.928 22.0478 33.9462 22.0305L34.4189 21.5734C35.3248 21.0366 35.8807 20.062 35.8818 19.009C35.8818 17.3608 34.5456 16.0246 32.8974 16.0246C31.2492 16.0246 29.913 17.3607 29.913 19.009C29.9146 20.4173 30.9005 21.6328 32.2782 21.925C30.8225 21.8019 30.1305 21.2632 29.7489 20.2629L29.1688 18.9406C28.9048 18.3382 28.3154 17.9823 27.6981 17.9913C27.4924 17.9944 27.2837 18.0382 27.0829 18.1262C26.4616 18.3985 26.1085 19.0173 26.1415 19.6555C26.2667 20.522 26.6412 21.2274 26.9325 21.8801L28.2938 23.796C28.7149 24.3884 28.5756 25.2052 27.9833 25.6262C27.3909 26.0471 26.5761 25.908 26.1552 25.3157L22.7821 20.5715C22.1927 19.9133 22.3232 19.7703 22.6884 19.0306C23.2993 17.8006 23.9082 16.5952 24.5165 15.3626C24.7577 14.8739 25.2581 14.6019 25.7685 14.6321L34.4034 14.6299ZM32.8975 16.5771C34.2404 16.5773 35.329 17.6659 35.3291 19.0088C35.3278 19.4541 35.2041 19.8906 34.9717 20.2705C34.9398 20.3232 34.9059 20.3747 34.8701 20.4248L34.8682 20.4287C34.865 20.4327 34.8617 20.4365 34.8584 20.4404C34.819 20.4955 34.7773 20.549 34.7334 20.6006C34.7111 20.6252 34.6883 20.6492 34.6651 20.6728C34.6304 20.7104 34.5946 20.7469 34.5576 20.7823C34.5538 20.7862 34.5498 20.79 34.5459 20.7939C34.5369 20.8018 34.5278 20.8096 34.5186 20.8173C34.4683 20.8624 34.4162 20.9055 34.3623 20.9463L34.3604 20.9482C34.3584 20.9495 34.3565 20.9509 34.3545 20.9522C34.2916 20.9996 34.2264 21.0438 34.1592 21.0849C34.0896 21.1269 34.0179 21.1654 33.9444 21.2001C33.9327 21.2061 33.921 21.2121 33.9092 21.2178C33.5919 21.3638 33.2468 21.4397 32.8975 21.4404C31.5546 21.4402 30.466 20.3516 30.4659 19.0088C30.466 17.6659 31.5546 16.5773 32.8975 16.5771ZM16.339 17.71C14.7444 17.7107 13.453 19.0021 13.4523 20.5967C13.4516 22.1923 14.7434 23.4867 16.339 23.4874C17.9356 23.4881 19.2303 22.1933 19.2296 20.5967C19.229 19.0011 17.9346 17.7093 16.339 17.71ZM16.2843 18.3603C17.5321 18.3614 18.543 19.3723 18.5441 20.6201C18.5444 21.8689 17.5331 22.8807 16.2843 22.8818C15.0346 22.8821 14.0203 21.8698 14.0207 20.6201C14.0217 19.3713 15.0356 18.36 16.2843 18.3603ZM27.7121 18.4873C28.121 18.4799 28.5117 18.7133 28.6887 19.1123L29.3547 20.6982C29.7886 21.7295 30.8165 22.4992 32.6555 22.4209L31.8098 23.2334C31.0196 23.9918 30.9947 25.238 31.7531 26.0283C32.3918 26.6937 33.3749 26.8075 34.1418 26.376C34.4254 28.1531 34.9812 30.0807 36.1457 32.413L33.8078 32.3935V41.9303C33.8078 42.2937 33.6621 42.623 33.4249 42.86C33.188 43.0963 32.8596 43.2402 32.4972 43.2409C32.1339 43.2409 31.8046 43.097 31.5675 42.86C31.3306 42.6231 31.1828 42.2936 31.1828 41.9303V32.3935H28.9018V41.9303C28.9018 42.657 28.316 43.2409 27.5893 43.2409C26.8626 43.2409 26.2788 42.657 26.2788 41.9303V32.3935H23.9211C25.129 29.9208 25.6646 27.9 25.927 26.0242C26.6033 26.5924 27.5969 26.6576 28.3489 26.118C29.2388 25.4795 29.4425 24.252 28.8039 23.3621L27.4231 21.4402C27.123 20.907 26.9275 20.5033 26.802 20.0575C26.5661 19.5256 26.7721 18.8129 27.304 18.5769C27.4369 18.518 27.5758 18.4895 27.7122 18.4871L27.7121 18.4873ZM18.9874 24.8898H19.4015C19.704 24.898 19.7245 25.0069 19.8683 25.298L20.5363 26.6496C20.544 26.6645 20.5565 26.6696 20.5636 26.6848L23.0265 31.673C23.2329 32.0911 23.1393 32.468 22.757 32.6886C22.4297 32.8679 22.0358 32.6889 21.8839 32.419C21.011 30.617 20.6878 29.8582 19.8488 28.206C19.4048 27.3104 18.5769 27.6613 18.587 28.501C18.5862 30.6195 18.6297 32.9181 18.591 35.2039C18.5479 37.7445 18.5933 40.2378 18.589 42.7021C18.6041 42.9584 18.378 43.309 17.9796 43.3193C17.5782 43.3087 17.3194 42.9726 17.3195 42.6787C17.3195 39.9581 17.3029 37.0891 17.3155 34.3799L15.3566 34.3761C15.3566 37.0964 15.3738 39.9853 15.3566 42.6983C15.3566 43.1646 14.9558 43.323 14.7472 43.3252C14.5406 43.3273 14.0734 43.1567 14.0734 42.6904C14.0734 39.8388 14.0694 37.4985 14.0793 35.0615C14.0866 33.2392 14.0865 30.5192 14.0871 28.5108C13.9828 27.5434 13.2443 27.5214 12.8195 28.2256C12.0254 29.7945 11.6611 30.6047 10.8351 32.3056C10.584 32.8046 10.0534 32.6622 9.89761 32.5713C9.70219 32.4509 9.51739 32.1085 9.72378 31.6904L11.8625 27.2997C11.8695 27.2848 12.173 26.6376 12.173 26.6376L12.8312 25.3094C12.986 24.9957 13.02 24.881 13.6613 24.8993L18.9874 24.8898Z" fill="#333333"/>
</svg>
