<svg width="48" height="48" viewBox="0 0 48 48" fill="none" xmlns="http://www.w3.org/2000/svg">
<path fill-rule="evenodd" clip-rule="evenodd" d="M30.0499 4.04395C27.6248 4.04395 25.6574 6.00954 25.6574 8.43467C25.6574 10.8598 27.6249 12.8253 30.0499 12.8253C32.475 12.8253 34.4406 10.8598 34.4406 8.43467C34.4406 6.00957 32.4751 4.04395 30.0499 4.04395ZM30.4757 13.9051L29.6124 13.9071L25.6144 13.909V13.9208C24.896 13.9359 24.2102 14.3298 23.8723 15.0223L22.0305 18.7938C21.4586 19.8168 21.6397 20.0781 22.2258 20.9794L25.384 25.3856C25.1236 27.3123 24.5738 29.2867 23.5578 31.5514C23.5042 31.3724 23.458 31.1994 23.3567 30.9812L21.4211 27.0122L21.1203 26.4009L20.4036 24.9302C20.2041 24.5215 19.8196 24.277 19.4016 24.2231C17.2207 24.1984 15.2517 24.1434 13.2474 24.233C12.8423 24.2954 12.471 24.532 12.2767 24.9302C11.9249 25.6167 11.6006 26.3136 11.2728 27.0103L11.2591 27.0122L9.08331 31.4712C8.76726 32.1188 9.0353 32.8975 9.68294 33.2135C10.3306 33.5295 11.1032 33.2616 11.4193 32.6138L13.4212 28.5104V42.6901C13.4212 43.4107 14.0013 43.9908 14.722 43.9908C15.4426 43.9908 16.0228 43.4107 16.0228 42.6901V35.0376H16.6517V42.6901C16.6517 43.4107 17.2319 43.9908 17.9525 43.9908C18.6731 43.9908 19.2533 43.4107 19.2533 42.6901V28.5006L21.2592 32.6138C21.5752 33.2614 22.3498 33.5295 22.9975 33.2135C23.0582 33.1772 23.0943 33.131 23.1478 33.0924H25.6146V42.0125C25.6146 43.1077 26.4939 43.9909 27.5892 43.9909C28.6845 43.9909 29.5658 43.1077 29.5658 42.0125V33.0924H30.5189V42.0125C30.5189 43.1078 31.4022 43.9909 32.4975 43.9909C33.5927 43.9909 34.474 43.1078 34.474 42.0125V33.0924H37.2611C35.933 30.3199 35.216 28.0974 34.8432 25.8032L38.3842 22.4027C39.2744 21.5692 39.2027 21.1236 38.5736 19.8344L36.224 15.02C35.8847 14.3246 35.1958 13.9259 34.474 13.9165V13.9049L30.4757 13.9051ZM34.4034 14.6297V14.6434C34.8748 14.6562 35.3239 14.9104 35.5479 15.3642C36.3567 16.9907 37.1609 18.6057 37.9659 20.2314C38.4333 21.0785 38.5822 21.2117 37.8838 21.8877L34.0419 25.6064C33.5199 26.112 32.692 26.0992 32.1865 25.5771C31.6811 25.0551 31.6955 24.2292 32.2177 23.7236L33.9052 22.0869C33.9192 22.0699 33.928 22.0476 33.9462 22.0303L34.4189 21.5733C35.3248 21.0364 35.8807 20.0618 35.8818 19.0088C35.8818 17.3606 34.5456 16.0244 32.8974 16.0244C31.2492 16.0244 29.913 17.3605 29.913 19.0088C29.9146 20.4171 30.9005 21.6327 32.2782 21.9248C30.8225 21.8018 30.1305 21.263 29.7489 20.2626L29.1688 18.9404C28.9048 18.3379 28.3154 17.9822 27.6982 17.9912C27.4924 17.9942 27.2837 18.0379 27.0829 18.1259C26.4616 18.3983 26.1085 19.0171 26.1415 19.6553C26.2667 20.5218 26.6412 21.2272 26.9325 21.8799L28.2938 23.7959C28.7149 24.3883 28.5756 25.2049 27.9833 25.6259C27.3909 26.0469 26.5761 25.9077 26.1552 25.3154L22.7821 20.5714C22.1927 19.9132 22.3232 19.77 22.6884 19.0303C23.2993 17.8004 23.9082 16.595 24.5165 15.3623C24.7577 14.8737 25.2581 14.6016 25.7685 14.6319L34.4034 14.6297ZM16.3388 17.7098C14.7441 17.7105 13.4527 19.0019 13.452 20.5966C13.4513 22.1922 14.7432 23.4865 16.3388 23.4872C17.9353 23.4879 19.2301 22.1932 19.2294 20.5966C19.2287 19.001 17.9344 17.7091 16.3388 17.7098Z" fill="#333333"/>
</svg>
