<svg width="48" height="48" viewBox="0 0 48 48" fill="none" xmlns="http://www.w3.org/2000/svg">
<path fill-rule="evenodd" clip-rule="evenodd" d="M48 0H0V48H48V0ZM36.9795 9.84009C36.9795 11.9609 35.2603 13.6802 33.1394 13.6802C31.0186 13.6802 29.2994 11.9609 29.2994 9.84009C29.2994 7.71926 31.0186 6 33.1394 6C35.2603 6 36.9795 7.71926 36.9795 9.84009ZM38.2521 15.2257C37.9199 14.7561 37.3484 14.5179 36.781 14.6125L29.5072 15.8248C28.7182 15.9563 28.0398 16.4573 27.6821 17.1727L25.3178 21.9013C25.0574 22.4221 25.1219 23.0466 25.4833 23.5031L29.0833 28.0511C29.5974 28.7006 30.5408 28.8104 31.1904 28.2963C31.8399 27.7821 31.9497 26.8387 31.4355 26.1891L29.634 23.9132C29.8093 23.6942 30.0336 23.5088 30.3009 23.3751L32.3617 22.3447L31.6345 22.1C31.2276 21.963 30.9536 21.5816 30.9535 21.1523L30.9533 19.2323C30.9532 18.68 31.4009 18.2322 31.9531 18.2322C32.5054 18.2321 32.9532 18.6797 32.9533 19.232L32.9534 20.4336L34.7477 21.0376C34.5502 20.7333 34.4355 20.3704 34.4355 19.9806C34.4355 18.907 35.3059 18.0366 36.3795 18.0366C37.4532 18.0366 38.3236 18.907 38.3236 19.9806C38.3236 20.9806 37.5686 21.8042 36.5975 21.9125C36.7036 22.0356 36.7963 22.1736 36.8722 22.3255C36.9534 22.4878 37.0104 22.6558 37.0446 22.8255L35.8715 24.2443C35.3436 24.8827 35.4333 25.8282 36.0718 26.3561C36.7102 26.884 37.6557 26.7943 38.1836 26.1559L41.656 21.9561C42.0878 21.4339 42.1158 20.6871 41.7245 20.1339L38.2521 15.2257ZM28.0869 29.1341C28.4688 29.9509 29.2979 30.5168 30.2592 30.5168C31.5829 30.5168 32.6559 29.4438 32.656 28.1202H32.6594C33.4986 28.1202 34.282 27.8809 34.9449 27.4668C35.3681 28.145 36.121 28.5963 36.9794 28.5963C37.5835 28.5963 38.1355 28.3727 38.557 28.0038C39.3201 31.0767 40.0693 33.3176 40.5327 34.5865C40.7574 35.2018 40.3672 35.8884 39.7168 35.9666C35.7403 36.4449 31.1382 36.456 27.1727 35.9579C26.5581 35.8807 26.1794 35.2565 26.3719 34.6677C26.7926 33.3812 27.4959 31.1869 28.0869 29.1341ZM28 40.4998V38.0138C29.2751 38.2032 30.4639 38.3295 31.6222 38.394L30.9482 40.8907C30.7521 41.6169 30.0485 42.0856 29.3028 41.9868C28.5571 41.8879 28 41.252 28 40.4998ZM36.0518 40.8907L35.3757 38.3862C36.5347 38.3175 37.7242 38.1883 39 38V40.4998C39 41.252 38.4429 41.8879 37.6972 41.9868C36.9515 42.0856 36.2479 41.6169 36.0518 40.8907ZM22.8526 29.1487C23.6578 28.954 24.1527 28.1433 23.9579 27.3381C23.7632 26.5329 22.9525 26.0381 22.1473 26.2328C19.2867 26.9247 17.1287 27.2359 15.0054 27.228C12.8779 27.2201 10.7144 26.8917 7.83657 26.229C7.02927 26.0431 6.22412 26.5469 6.03822 27.3542C5.85232 28.1615 6.35606 28.9666 7.16336 29.1525C8.8686 29.5452 10.3863 29.8376 11.8305 30.0177V34.3519C11.8216 34.3937 11.8144 34.4362 11.809 34.4793L11.0756 40.3128C10.9745 41.117 11.5306 41.856 12.3313 41.9817C13.132 42.1074 13.8878 41.5743 14.038 40.7778L15.1306 34.9834L16.2232 40.7778C16.3734 41.5743 17.1291 42.1074 17.9299 41.9817C18.7306 41.856 19.2866 41.117 19.1855 40.3128L18.4522 34.4793C18.4467 34.4361 18.4395 34.3935 18.4305 34.3515V30.0025C19.7998 29.8235 21.2418 29.5383 22.8526 29.1487ZM15 26C16.6569 26 18 24.6569 18 23C18 21.3431 16.6569 20 15 20C13.3431 20 12 21.3431 12 23C12 24.6569 13.3431 26 15 26Z" fill="#333333"/>
</svg>
