<svg width="48" height="48" viewBox="0 0 48 48" fill="none" xmlns="http://www.w3.org/2000/svg">
<path d="M31.0243 5.02686C30.6573 5.02686 30.3622 5.322 30.3622 5.68892C30.3622 6.05591 30.6573 6.35294 31.0243 6.35294H33.5868V8.53856H33.0868C32.8985 8.53856 32.7469 8.68818 32.7469 8.8764C32.7469 9.05139 32.8798 9.19127 33.0496 9.21054H27.7175C26.445 9.21054 25.4206 10.2348 25.4206 11.5073V14.5681H30.0143V13.8063H40.8445V13.2946H29.5214V14.0641H25.9218V11.1814H25.9335C26.0171 10.4148 26.7937 9.72872 27.2323 9.73016L27.2285 9.74158C27.2511 9.7387 27.2714 9.72647 27.2949 9.72647H40.8445V9.21273H34.9745C35.1443 9.19384 35.2772 9.05509 35.2772 8.87859C35.2772 8.69037 35.1257 8.54075 34.9374 8.54075H34.4355V6.35513H36.9999C37.3668 6.35513 37.662 6.05622 37.662 5.68915C37.662 5.32216 37.3668 5.02905 36.9999 5.02905L31.0243 5.02686ZM31.0262 5.53067H37.0028C37.0909 5.53067 37.161 5.60097 37.161 5.68903C37.161 5.7771 37.0909 5.84936 37.0028 5.84936H31.0262C30.9381 5.84936 30.868 5.7771 30.868 5.68903C30.868 5.60097 30.9381 5.53067 31.0262 5.53067ZM24.5576 14.9252C24.0641 14.9252 23.6669 15.3223 23.6669 15.8157V17.3313C23.6669 17.8247 24.0642 18.222 24.5576 18.222H30.581C31.0744 18.222 31.4716 17.8247 31.4716 17.3313V15.8157C31.4716 15.3223 31.0744 14.9252 30.581 14.9252H24.5576ZM24.5244 15.4232H30.6026C30.7954 15.4232 30.9503 15.5781 30.9503 15.7709V17.3686C30.9503 17.5613 30.7954 17.7162 30.6026 17.7162H24.5244C24.3316 17.7162 24.1748 17.5613 24.1748 17.3686V15.7709C24.1748 15.5781 24.3316 15.4232 24.5244 15.4232ZM27.6455 19.2473C27.6455 19.2473 25.4246 22.008 25.4248 23.6225C25.4246 25.2368 26.4266 26.546 27.663 26.5463C28.8999 26.5468 29.9015 25.2373 29.9013 23.6225C29.9015 22.0077 27.771 19.1195 27.6455 19.2473ZM27.6709 20.0247C28.9695 21.8021 29.6781 23.7504 29.0927 24.8761C28.4663 26.0664 26.9584 26.4295 26.2138 24.9581C25.3661 23.1941 26.9195 21.0021 27.6709 20.0243V20.0247ZM25.3896 26.849C25.3896 26.849 24.1962 28.3359 24.1963 29.2044C24.1962 30.0729 24.7342 30.7766 25.3994 30.7767C26.0649 30.777 26.6046 30.0732 26.6045 29.2044C26.6046 28.3356 25.4572 26.7802 25.3896 26.849ZM25.4287 27.5189C26.0296 28.3296 26.3579 29.2183 26.0869 29.7317C25.7967 30.275 25.0978 30.4414 24.7529 29.7707C24.3602 28.9657 25.0806 27.9648 25.4287 27.5188V27.5189ZM29.466 28.1575C29.466 28.1575 28.2706 29.6426 28.2707 30.5111C28.2706 31.3796 28.8105 32.0832 29.4757 32.0833C30.1412 32.0836 30.6789 31.3799 30.6789 30.5111C30.679 29.6423 29.5335 28.0887 29.466 28.1575ZM29.5168 28.8762C30.1183 29.6873 30.4461 30.5755 30.175 31.0892C29.8848 31.6324 29.1859 31.8004 28.841 31.1281C28.4483 30.3231 29.1687 29.3222 29.5168 28.8761V28.8762ZM37.4504 32.4642C37.4504 32.4642 35.2938 35.4692 33.6047 35.0032C30.8045 34.2309 29.7877 33.1339 26.1439 34.7886C21.2951 36.9897 19.8457 32.9475 15.4856 32.4721C13.8907 32.2983 10.4267 36.6992 7.61061 35.2984C7.19452 38.7802 7.49685 42.7493 12.8725 42.9821L33.8118 43.0123C36.439 42.4219 38.0241 40.3773 37.4505 35.3267L37.4504 32.4642ZM15.6221 32.9192C19.3189 33.3223 20.7978 37.4671 26.0653 35.4134C29.1551 34.0108 29.1715 34.2449 31.5456 34.8998C35.2263 36.9234 37.0123 33.5856 36.9148 33.767L37.0046 36.1106C37.3178 41.1427 35.0016 42.8064 31.7587 42.4897L14.4616 42.4859C9.26253 42.6824 7.835 40.6538 8.00054 36.0505C11.8062 36.4607 13.5066 33.1597 15.6216 32.9196L15.6221 32.9192Z" fill="#333333"/>
</svg>
