<svg width="48" height="48" viewBox="0 0 48 48" fill="none" xmlns="http://www.w3.org/2000/svg">
<path d="M30.7268 4.95117C30.3493 4.95117 30.0468 5.25623 30.0468 5.634C30.0468 6.01195 30.3493 6.31682 30.7268 6.31682H33.3644V8.56634H32.8485C32.6548 8.56634 32.5001 8.7179 32.5001 8.91179C32.5001 9.09169 32.637 9.23758 32.8117 9.25724H27.3238C26.0147 9.25724 24.961 10.3109 24.961 11.62V14.7686H29.6865V13.9838H40.8293V9.25827H34.7911C34.9658 9.2356 35.1028 9.09576 35.1028 8.91548C35.1028 8.72197 34.9452 8.56668 34.7515 8.56668H34.236V6.31717H36.8736C37.2511 6.31717 37.5564 6.01173 37.5564 5.63434C37.5564 5.25639 37.2511 4.9544 36.8736 4.9544L30.7268 4.95117ZM24.0744 15.1363C23.5668 15.1363 23.1593 15.5437 23.1593 16.0513V17.6125C23.1593 18.1202 23.5668 18.5275 24.0744 18.5275H30.2706C30.7782 18.5275 31.1885 18.1201 31.1885 17.6125V16.0513C31.1885 15.5436 30.7782 15.1363 30.2706 15.1363H24.0744ZM27.2504 19.5814C27.2504 19.5814 24.9667 22.4224 24.9669 24.0832C24.9667 25.7439 25.9981 27.0917 27.2702 27.092C28.5427 27.0925 29.5709 25.7444 29.5707 24.0832C29.5709 22.4219 27.3796 19.4495 27.2504 19.5814ZM24.93 27.4035C24.93 27.4035 23.7032 28.9324 23.7033 29.8258C23.7032 30.7194 24.257 31.4433 24.9414 31.4435C25.626 31.4438 26.1796 30.7197 26.1795 29.8258C26.1796 28.9321 24.9995 27.3327 24.9301 27.4035H24.93ZM29.1231 28.7492C29.1231 28.7492 27.8934 30.2753 27.8935 31.1688C27.8934 32.0622 28.45 32.7864 29.1344 32.7865C29.819 32.7868 30.3726 32.0625 30.3725 31.1688C30.3726 30.275 29.1926 28.6784 29.1231 28.7492ZM37.1209 32.6448C37.1209 32.6448 34.9655 35.6493 33.2764 35.1834C30.4762 34.4111 29.4579 33.3138 25.8137 34.9679C20.9649 37.169 19.5155 33.1286 15.1554 32.6532C13.5605 32.4794 10.0984 36.8787 7.28229 35.4778C6.86621 38.9596 7.16796 42.9288 12.5434 43.1612L33.4831 43.1914C36.1103 42.601 37.6946 40.5555 37.1209 35.505V32.6448Z" fill="#333333"/>
</svg>
