<svg width="48" height="48" viewBox="0 0 48 48" fill="none" xmlns="http://www.w3.org/2000/svg">
<path d="M26.6875 10.4375V17.0898C30.9258 18.6169 33.0219 17.837 35.1484 17.0898V10.4375H26.6875ZM30.168 12.3496H31.543V13.6934H32.8867V15.0684H31.543V16.4121H30.168V15.0684H28.8242V13.6934H30.168V12.3496ZM8.50195 15.6836L9.83984 17.3105V32.707H8.50195V32.8633H8.5L8.50195 34.8125H39.9219V32.707H38.832V17.2812H38.8223L39.9219 15.6836H35.5371V17.459C32.6941 18.7341 29.6338 18.8495 26.291 17.459V15.6836H8.50195ZM25.791 16.1836V17.959C29.944 19.7151 33.1107 19.1232 36.0371 17.959V16.1836L39.0332 16.1855L38.3379 17.0977L38.3223 17.7812L38.332 33.207H39.4219V34.3125H9.00195V33.207H10.3398V17.9141V17.1542L9.87549 16.5709L9.55664 16.1855H10.0566L25.791 16.1836ZM34.2812 21.7773L27.2383 21.791V32.707V33.207H33.7812H34.2812V21.7773ZM12.1445 21.793V30.4824H26.2266V21.793H25.7266H12.1445ZM27.7383 22.2773H33.7812V32.707H27.7383V22.2773ZM12.6445 22.293H25.7266V29.9824H12.6445V22.293Z" fill="#333333"/>
</svg>
