<svg width="48" height="48" viewBox="0 0 48 48" fill="none" xmlns="http://www.w3.org/2000/svg">
<path d="M26.6875 10.4375V17.0898C30.9258 18.6169 33.0219 17.837 35.1484 17.0898V10.4375H26.6875ZM30.168 12.3496H31.543V13.6934H32.8867V15.0684H31.543V16.4121H30.168V15.0684H28.8242V13.6934H30.168V12.3496ZM8.50195 15.6836L9.83984 17.3105V32.707H8.50195V32.8633H8.5L8.50195 34.8125H39.9219V32.707H38.832V17.2812H38.8223L39.9219 15.6836H35.5371V17.459C32.6941 18.7341 29.6338 18.8495 26.291 17.459V15.6836H8.50195ZM27.7383 22.2773H33.7812V32.707H27.7383V22.2773ZM12.6445 22.293H25.7266V29.9824H12.6445V22.293Z" fill="#333333"/>
</svg>
