<svg width="48" height="48" viewBox="0 0 48 48" fill="none" xmlns="http://www.w3.org/2000/svg">
<path d="M16.1567 34.5C15.7516 34.5 15.4289 34.297 15.2624 34.0325C15.1018 33.7774 15.0795 33.4613 15.2828 33.158C17.1663 30.3464 20.3668 28.5 24 28.5C27.6316 28.5 30.8307 30.3447 32.7146 33.1541C32.9186 33.4583 32.8964 33.7753 32.7353 34.0311C32.5683 34.2964 32.2447 34.5 31.8384 34.5C31.4435 34.5 31.0533 34.2837 30.7795 33.9192C29.2294 31.8556 26.7917 30.5 24 30.5C21.2127 30.5 18.7603 31.8516 17.2191 33.9139C16.9443 34.2816 16.5528 34.5 16.1567 34.5ZM19.5 19C19.5 20.3807 18.3807 21.5 17 21.5C15.6193 21.5 14.5 20.3807 14.5 19C14.5 17.6193 15.6193 16.5 17 16.5C18.3807 16.5 19.5 17.6193 19.5 19ZM33.5 19C33.5 20.3807 32.3807 21.5 31 21.5C29.6193 21.5 28.5 20.3807 28.5 19C28.5 17.6193 29.6193 16.5 31 16.5C32.3807 16.5 33.5 17.6193 33.5 19ZM4.5 24C4.5 13.2355 13.2168 4.5 23.98 4.5C34.7642 4.5 43.5 13.2365 43.5 24C43.5 34.7635 34.7642 43.5 23.98 43.5C13.2168 43.5 4.5 34.7645 4.5 24ZM7.5 24C7.5 33.1161 14.8839 40.5 24 40.5C33.1161 40.5 40.5 33.1161 40.5 24C40.5 14.8839 33.1161 7.5 24 7.5C14.8839 7.5 7.5 14.8839 7.5 24Z" stroke="#333333"/>
</svg>
