<?xml version="1.0" encoding="UTF-8" standalone="no"?>
<!-- Created with Inkscape (http://www.inkscape.org/) -->
<svg id="svg8" xmlns:rdf="http://www.w3.org/1999/02/22-rdf-syntax-ns#" xmlns="http://www.w3.org/2000/svg" xmlns:osb="http://www.openswatchbook.org/uri/2009/osb" height="48" width="48" version="1.1" xmlns:cc="http://creativecommons.org/ns#" viewBox="0 0 12.7 12.7" xmlns:dc="http://purl.org/dc/elements/1.1/">
 <title id="title4753">UIO-icon</title>
 <metadata id="metadata5">
  <rdf:RDF>
   <cc:Work rdf:about="">
    <dc:format>image/svg+xml</dc:format>
    <dc:type rdf:resource="http://purl.org/dc/dcmitype/StillImage"/>
    <dc:title>UIO-icon</dc:title>
    <dc:creator>
     <cc:Agent>
      <dc:title>Joaquín Urbano</dc:title>
     </cc:Agent>
    </dc:creator>
    <dc:rights>
     <cc:Agent>
      <dc:title>GPL</dc:title>
     </cc:Agent>
    </dc:rights>
   </cc:Work>
  </rdf:RDF>
 </metadata>
 <g id="layer1" transform="translate(0,-284.3)" fill="#333">
  <path id="path1529" d="m6.35 285.36c-2.9225-1e-7 -5.2917 2.3692-5.2917 5.2917-7.9e-8 2.9225 2.3692 5.2917 5.2917 5.2917 2.9225 1e-7 5.2917-2.3692 5.2917-5.2917 7e-8 -2.9225-2.3692-5.2917-5.2917-5.2917zm0 0.13694c2.847-1e-7 5.1547 2.3077 5.1547 5.1547 1.1e-7 2.847-2.3077 5.1547-5.1547 5.1547-2.847 1e-7 -5.1547-2.3077-5.1547-5.1547-7.9e-8 -2.847 2.3077-5.1547 5.1547-5.1547zm-1.5338 2.5032c-0.45096-0.020423-0.90342 0.36851-1.0821 0.93018-0.20757 0.65241 0.023346 1.3084 0.51573 1.465 0.49258 0.15702 1.0603-0.24523 1.2676-0.89814 0.20729-0.65262-0.024114-1.3084-0.51676-1.4645-0.059453-0.01883-0.12126-0.029736-0.18448-0.032556zm3.0665 0c-0.063229 0.00282-0.12503 0.013726-0.18448 0.032556-0.4924 0.1564-0.72354 0.8121-0.51625 1.4645 0.20727 0.65258 0.77465 1.0547 1.2671 0.89814 0.49238-0.15666 0.7233-0.81262 0.51573-1.465-0.17869-0.56166-0.63115-0.9506-1.0821-0.93018zm-1.5322 3.4504c-1.1622-0.000304-2.1047 0.9415-2.1053 2.1037h0.13643c0.00055168-1.0875 0.88174-1.9686 1.9684-1.9684 1.0866 0.0002852 1.9673 0.88193 1.9673 1.9694h0.13746c0.000018566-1.1622-0.94202-2.1045-2.1043-2.1048z" fill-rule="evenodd"/>
 </g>
</svg>
