<svg width="48" height="48" viewBox="0 0 48 48" fill="none" xmlns="http://www.w3.org/2000/svg">
<path fill-rule="evenodd" clip-rule="evenodd" d="M0 0H48V48H0V0ZM13.9275 9.04805C13.2238 9.69614 12.6598 10.4858 12.3682 10.9961L10.6318 10.0039C11.0068 9.3475 11.6928 8.38719 12.5725 7.57695C13.4297 6.78748 14.624 6 16 6H16.0118H16.0238H16.036H16.0484H16.0609H16.0737H16.0866H16.0997H16.113H16.1264H16.1401H16.1539H16.1679H16.1821H16.1965H16.211H16.2257H16.2406H16.2557H16.271H16.2864H16.302H16.3177H16.3337H16.3498H16.3661H16.3826H16.3992H16.416H16.433H16.4501H16.4674H16.4849H16.5025H16.5203H16.5383H16.5564H16.5747H16.5932H16.6118H16.6306H16.6496H16.6687H16.688H16.7074H16.727H16.7468H16.7667H16.7868H16.807H16.8274H16.8479H16.8686H16.8895H16.9105H16.9317H16.953H16.9745H16.9961H17.0179H17.0398H17.0619H17.0841H17.1064H17.129H17.1516H17.1744H17.1974H17.2205H17.2438H17.2672H17.2907H17.3144H17.3382H17.3622H17.3863H17.4105H17.4349H17.4595H17.4841H17.509H17.5339H17.559H17.5842H17.6096H17.6351H17.6607H17.6865H17.7124H17.7384H17.7646H17.7908H17.8173H17.8438H17.8705H17.8973H17.9243H17.9514H17.9786H18.0059H18.0333H18.0609H18.0886H18.1165H18.1444H18.1725H18.2007H18.229H18.2575H18.2861H18.3147H18.3436H18.3725H18.4015H18.4307H18.46H18.4894H18.5189H18.5485H18.5783H18.6081H18.6381H18.6682H18.6984H18.7287H18.7591H18.7897H18.8203H18.8511H18.8819H18.9129H18.944H18.9752H19.0065H19.0379H19.0694H19.101H19.1327H19.1645H19.1964H19.2285H19.2606H19.2928H19.3251H19.3576H19.3901H19.4227H19.4555H19.4883H19.5212H19.5542H19.5873H19.6205H19.6538H19.6872H19.7207H19.7543H19.788H19.8217H19.8556H19.8895H19.9236H19.9577H19.9919H20.0262H20.0606H20.0951H20.1296H20.1643H20.199H20.2338H20.2687H20.3037H20.3388H20.3739H20.4092H20.4445H20.4799H20.5153H20.5509H20.5865H20.6222H20.658H20.6939H20.7298H20.7658H20.8019H20.838H20.8743H20.9106H20.9469H20.9834H21.0199H21.0565H21.0932H21.1299H21.1667H21.2036H21.2405H21.2775H21.3146H21.3517H21.3889H21.4261H21.4635H21.5009H21.5383H21.5758H21.6134H21.651H21.6887H21.7265H21.7643H21.8022H21.8401H21.8781H21.9161H21.9542H21.9924H22.0306H22.0689H22.1072H22.1455H22.184H22.2224H22.261H22.2995H22.3382H22.3768H22.4156H22.4543H22.4932H22.532H22.5709H22.6099H22.6489H22.6879H22.727H22.7662H22.8053H22.8446H22.8838H22.9231H22.9625H23.0019H23.0413H23.0807H23.1202H23.1598H23.1993H23.2389H23.2786H23.3183H23.358H23.3977H23.4375H23.4773H23.5172H23.557H23.5969H23.6369H23.6768H23.7168H23.7568H23.7969H23.837H23.8771H23.9172H23.9574H23.9975H24.0377H24.078H24.1182H24.1585H24.1988H24.2391H24.2794H24.3198H24.3601H24.4005H24.4409H24.4814H24.5218H24.5623H24.6027H24.6432H24.6837H24.7242H24.7648H24.8053H24.8459H24.8864H24.927H24.9676H25.0082H25.0488H25.0894H25.13H25.1707H25.2113H25.2519H25.2926H25.3332H25.3739H25.4145H25.4552H25.4959H25.5365H25.5772H25.6179H25.6585H25.6992H25.7399H25.7805H25.8212H25.8618H25.9025H25.9431H25.9838H26.0244H26.065H26.1057H26.1463H26.1869H26.2275H26.2681H26.3087H26.3492H26.3898H26.4303H26.4709H26.5114H26.5519H26.5924H26.6329H26.6734H26.7138H26.7542H26.7947H26.8351H26.8754H26.9158H26.9561H26.9965H27.0368H27.077H27.1173H27.1575H27.1977H27.2379H27.2781H27.3182H27.3584H27.3984H27.4385H27.4785H27.5185H27.5585H27.5985H27.6384H27.6783H27.7181H27.758H27.7977H27.8375H27.8772H27.9169H27.9566H27.9962H28.0358H28.0754H28.1149H28.1543H28.1938H28.2332H28.2725H28.3119H28.3511H28.3904H28.4296H28.4687H28.5078H28.5469H28.5859H28.6249H28.6639H28.7027H28.7416H28.7804H28.8191H28.8578H28.8965H28.9351H28.9736H29.0121H29.0506H29.0889H29.1273H29.1656H29.2038H29.242H29.2801H29.3182H29.3562H29.3942H29.4321H29.4699H29.5077H29.5454H29.5831H29.6207H29.6582H29.6957H29.7331H29.7704H29.8077H29.845H29.8821H29.9192H29.9563H29.9932H30.0301H30.0669H30.1037H30.1404H30.177H30.2136H30.25H30.2865H30.3228H30.3591H30.3952H30.4314H30.4674H30.5034H30.5393H30.5751H30.6108H30.6465H30.6821H30.7176H30.753H30.7884H30.8236H30.8588H30.8939H30.9289H30.9639H30.9987H31.0335H31.0682H31.1028H31.1373H31.1717H31.2061H31.2403H31.2745H31.3086H31.3426H31.3764H31.4103H31.444H31.4776H31.5111H31.5446H31.5779H31.6112H31.6443H31.6774H31.7103H31.7432H31.776H31.8086H31.8412H31.8737H31.9061H31.9383H31.9705H32.0026H32.0345H32.0664H32.0982H32.1298H32.1614H32.1928H32.2242H32.2554H32.2865H32.3176H32.3485H32.3793H32.41H32.4406H32.471H32.5014H32.5317H32.5618H32.5918H32.6217H32.6515H32.6812H32.7108H32.7402H32.7696H32.7988H32.8279H32.8569H32.8857H32.9145H32.9431H32.9716H33V8H32.9716H32.9431H32.9145H32.8857H32.8569H32.8279H32.7988H32.7696H32.7402H32.7108H32.6812H32.6515H32.6217H32.5918H32.5618H32.5317H32.5014H32.471H32.4406H32.41H32.3793H32.3485H32.3176H32.2865H32.2554H32.2242H32.1928H32.1614H32.1298H32.0982H32.0664H32.0345H32.0026H31.9705H31.9383H31.9061H31.8737H31.8412H31.8086H31.776H31.7432H31.7103H31.6774H31.6443H31.6112H31.5779H31.5446H31.5111H31.4776H31.444H31.4103H31.3764H31.3426H31.3086H31.2745H31.2403H31.2061H31.1717H31.1373H31.1028H31.0682H31.0335H30.9987H30.9639H30.9289H30.8939H30.8588H30.8236H30.7884H30.753H30.7176H30.6821H30.6465H30.6108H30.5751H30.5393H30.5034H30.4674H30.4314H30.3952H30.3591H30.3228H30.2865H30.25H30.2136H30.177H30.1404H30.1037H30.0669H30.0301H29.9932H29.9563H29.9192H29.8821H29.845H29.8077H29.7704H29.7331H29.6957H29.6582H29.6207H29.5831H29.5454H29.5077H29.4699H29.4321H29.3942H29.3562H29.3182H29.2801H29.242H29.2038H29.1656H29.1273H29.0889H29.0506H29.0121H28.9736H28.9351H28.8965H28.8578H28.8191H28.7804H28.7416H28.7027H28.6639H28.6249H28.5859H28.5469H28.5078H28.4687H28.4296H28.3904H28.3511H28.3119H28.2725H28.2332H28.1938H28.1543H28.1149H28.0754H28.0358H27.9962H27.9566H27.9169H27.8772H27.8375H27.7977H27.758H27.7181H27.6783H27.6384H27.5985H27.5585H27.5185H27.4785H27.4385H27.3984H27.3584H27.3182H27.2781H27.2379H27.1977H27.1575H27.1173H27.077H27.0368H26.9965H26.9561H26.9158H26.8754H26.8351H26.7947H26.7542H26.7138H26.6734H26.6329H26.5924H26.5519H26.5114H26.4709H26.4303H26.3898H26.3492H26.3087H26.2681H26.2275H26.1869H26.1463H26.1057H26.065H26.0244H25.9838H25.9431H25.9025H25.8618H25.8212H25.7805H25.7399H25.6992H25.6585H25.6179H25.5772H25.5365H25.4959H25.4552H25.4145H25.3739H25.3332H25.2926H25.2519H25.2113H25.1707H25.13H25.0894H25.0488H25.0082H25V14H29C30.1046 14 31 14.8954 31 16V19H32C34.7614 19 37 21.2386 37 24V40C37 41.1046 36.1046 42 35 42H13C11.8954 42 11 41.1046 11 40V24C11 21.2386 13.2386 19 16 19H17V16C17 14.8954 17.8954 14 19 14H23V8H22.9625H22.9231H22.8838H22.8446H22.8053H22.7662H22.727H22.6879H22.6489H22.6099H22.5709H22.532H22.4932H22.4543H22.4156H22.3768H22.3382H22.2995H22.261H22.2224H22.184H22.1455H22.1072H22.0689H22.0306H21.9924H21.9542H21.9161H21.8781H21.8401H21.8022H21.7643H21.7265H21.6887H21.651H21.6134H21.5758H21.5383H21.5009H21.4635H21.4261H21.3889H21.3517H21.3146H21.2775H21.2405H21.2036H21.1667H21.1299H21.0932H21.0565H21.0199H20.9834H20.9469H20.9106H20.8743H20.838H20.8019H20.7658H20.7298H20.6939H20.658H20.6222H20.5865H20.5509H20.5153H20.4799H20.4445H20.4092H20.3739H20.3388H20.3037H20.2687H20.2338H20.199H20.1643H20.1296H20.0951H20.0606H20.0262H19.9919H19.9577H19.9236H19.8895H19.8556H19.8217H19.788H19.7543H19.7207H19.6872H19.6538H19.6205H19.5873H19.5542H19.5212H19.4883H19.4555H19.4227H19.3901H19.3576H19.3251H19.2928H19.2606H19.2285H19.1964H19.1645H19.1327H19.101H19.0694H19.0379H19.0065H18.9752H18.944H18.9129H18.8819H18.8511H18.8203H18.7897H18.7591H18.7287H18.6984H18.6682H18.6381H18.6081H18.5783H18.5485H18.5189H18.4894H18.46H18.4307H18.4015H18.3725H18.3436H18.3147H18.2861H18.2575H18.229H18.2007H18.1725H18.1444H18.1165H18.0886H18.0609H18.0333H18.0059H17.9786H17.9514H17.9243H17.8973H17.8705H17.8438H17.8173H17.7908H17.7646H17.7384H17.7124H17.6865H17.6607H17.6351H17.6096H17.5842H17.559H17.5339H17.509H17.4841H17.4595H17.4349H17.4105H17.3863H17.3622H17.3382H17.3144H17.2907H17.2672H17.2438H17.2205H17.1974H17.1744H17.1516H17.129H17.1064H17.0841H17.0619H17.0398H17.0179H16.9961H16.9745H16.953H16.9317H16.9105H16.8895H16.8686H16.8479H16.8274H16.807H16.7868H16.7667H16.7468H16.727H16.7074H16.688H16.6687H16.6496H16.6306H16.6118H16.5932H16.5747H16.5564H16.5383H16.5203H16.5025H16.4849H16.4674H16.4501H16.433H16.416H16.3992H16.3826H16.3661H16.3498H16.3337H16.3177H16.302H16.2864H16.271H16.2557H16.2406H16.2257H16.211H16.1965H16.1821H16.1679H16.1539H16.1401H16.1264H16.113H16.0997H16.0866H16.0737H16.0609H16.0484H16.036H16.0238H16.0118H16C15.376 8 14.6537 8.37919 13.9275 9.04805ZM18 29H19H23V25V24H25V25V29H29H30V31H29H25V35V36H23V35V31H19H18V29Z" fill="#333333"/>
</svg>
