<svg width="48" height="48" viewBox="0 0 48 48" fill="none" xmlns="http://www.w3.org/2000/svg">
<path d="M26.5 28V27.5H26H22.5V24V23.5H22H18H17.5V24V27.5H14H13.5V28V32V32.5H14H17.5V36V36.5H18H22H22.5V36V32.5H26H26.5V32V28ZM31.5 24V43.5H8.5V24C8.5 18.3092 12.6388 13.5932 18.0833 12.673L18.5 12.6026V12.18V8V7.5H18H14.5V4.5H26C27.932 4.5 29.6987 5.10109 31.2042 6.08874L29.0323 8.26058C28.127 7.79133 27.1008 7.5 26 7.5H22H21.5V8V12.18V12.6026L21.9167 12.673C27.3612 13.5932 31.5 18.3092 31.5 24ZM31.5 13C31.5 12.7043 31.6402 12.2704 31.9135 11.7385C32.1788 11.222 32.538 10.6721 32.9055 10.1625C33.2718 9.65465 33.6391 9.19666 33.9154 8.86509C33.9447 8.82994 33.9729 8.79623 34 8.76407C34.0271 8.79623 34.0553 8.82994 34.0846 8.86509C34.3609 9.19666 34.7282 9.65465 35.0945 10.1625C35.462 10.6721 35.8212 11.222 36.0865 11.7385C36.3598 12.2704 36.5 12.7043 36.5 13C36.5 14.3839 35.3839 15.5 34 15.5C32.6161 15.5 31.5 14.3839 31.5 13ZM39 16.7713C39.1112 16.9048 39.2435 17.0657 39.3916 17.2499C39.8548 17.8258 40.4714 18.6268 41.0869 19.5293C41.7036 20.4333 42.3127 21.4296 42.766 22.3969C43.2239 23.374 43.5 24.2745 43.5 25C43.5 27.4839 41.4839 29.5 39 29.5C36.5161 29.5 34.5 27.4839 34.5 25C34.5 24.2745 34.7761 23.374 35.234 22.3969C35.6873 21.4296 36.2964 20.4333 36.9131 19.5293C37.5286 18.6268 38.1452 17.8258 38.6084 17.2499C38.7565 17.0657 38.8888 16.9048 39 16.7713Z" stroke="#333333"/>
</svg>
