<svg width="48" height="48" viewBox="0 0 48 48" fill="none" xmlns="http://www.w3.org/2000/svg">
<path d="M0 0V48H48V0H0ZM24.0234 7.30273C25.3775 7.305 26.6991 7.46799 28.8203 7.78711C29.0112 8.43177 29.9171 12.3745 29.9258 13.0469L26.8828 13.041C25.6242 13.095 24.013 13.1246 22.3438 13.125C20.4982 13.125 18.7276 13.0876 17.4219 13.0234C16.1162 12.9591 15.3812 12.8722 15.3789 12.7812C15.3783 12.7282 15.6279 12.6764 16.1055 12.6289C16.5831 12.5815 17.2767 12.5399 18.1328 12.5078C18.2882 11.2921 18.859 8.34979 19.0254 7.78711C21.2821 7.45882 22.6694 7.30046 24.0234 7.30273ZM17.9746 13.3633H18.4258C18.4258 15.0657 18.4203 16.7683 18.416 18.4707C18.4118 20.0995 18.6956 21.9552 19.8496 22.6816C21.4829 23.71 22.5916 24.5527 24.0293 24.5938C25.0137 24.597 26.4424 23.5474 27.8008 22.6973C29.0223 21.9332 29.5703 20.0697 29.5703 18.4492L29.5332 13.3633H29.9785V13.3652C30.0256 15.2995 29.9464 16.9709 30.0195 18.7129C30.0195 20.5048 29.3293 22.2739 27.9785 23.1191C26.4762 24.059 25.0848 25.0443 23.9961 25.041C22.4064 24.9914 21.5092 24.2424 19.7031 23.1055C18.427 22.3021 17.9824 20.5141 17.9824 18.7129C17.9738 17.2645 18.0184 15.1235 17.9746 13.3652V13.3633ZM21.4004 15.3125C21.7798 15.3126 22.0859 15.6186 22.0859 15.998C22.0859 16.3773 21.7798 16.6855 21.4004 16.6855C21.021 16.6855 20.713 16.3774 20.7129 15.998C20.713 15.6187 21.021 15.3126 21.4004 15.3125ZM26.5586 15.3125C26.938 15.3126 27.244 15.6186 27.2441 15.998C27.244 16.3773 26.938 16.6855 26.5586 16.6855C26.1793 16.6855 25.8712 16.3774 25.8711 15.998C25.8712 15.6187 26.1793 15.3126 26.5586 15.3125ZM23.9355 18.4824C23.9499 18.4823 23.9638 18.4823 23.9785 18.4824C24.3226 18.4824 24.6005 18.5386 24.5977 18.6094C24.596 18.6793 24.3193 18.7363 23.9785 18.7363C23.6376 18.7367 23.3611 18.6793 23.3594 18.6094C23.356 18.5422 23.6087 18.4857 23.9355 18.4824ZM26.4883 20.4355V20.4375C26.4883 20.4372 26.4786 20.4379 26.4785 20.4375C26.4544 20.4883 25.4252 20.674 24.1445 20.8555C22.8537 21.0385 21.7979 21.1505 21.7754 21.1055C21.758 21.0614 22.7114 20.8863 23.9531 20.707C24.0088 20.7005 24.0655 20.6902 24.1211 20.6836C25.4188 20.5004 26.4647 20.3911 26.4785 20.4375C26.4788 20.4371 26.4882 20.436 26.4883 20.4355ZM29.8867 25.2441C30.5927 25.4947 31.2759 25.7795 31.9629 26.0742L33.1621 26.5938L13.7129 40.6992H8.63086V31.7012C8.63086 30.7057 8.63076 28.8739 10.8301 28.2266C13.46 27.082 15.7734 26.1875 15.7734 26.1875C16.512 25.8672 17.2475 25.5579 18.0039 25.2852L18.0977 25.2598C19.6679 26.8216 21.7932 27.7007 24.0078 27.7031C25.8096 27.6752 28.5342 26.5146 29.8867 25.2441ZM36.1367 27.8379C36.4759 27.9695 36.8103 28.1017 37.1699 28.2266C39.3693 28.8759 39.3691 30.7053 39.3691 31.7012V40.6992H18.4844L36.168 27.875L36.1367 27.8379Z" fill="#333333"/>
</svg>
