<?xml version="1.0" encoding="UTF-8" standalone="no"?>
<!-- Created with Inkscape (http://www.inkscape.org/) -->

<svg
   xmlns:dc="http://purl.org/dc/elements/1.1/"
   xmlns:cc="http://creativecommons.org/ns#"
   xmlns:rdf="http://www.w3.org/1999/02/22-rdf-syntax-ns#"
   xmlns:svg="http://www.w3.org/2000/svg"
   xmlns="http://www.w3.org/2000/svg"
   xmlns:sodipodi="http://sodipodi.sourceforge.net/DTD/sodipodi-0.dtd"
   xmlns:inkscape="http://www.inkscape.org/namespaces/inkscape"
   id="svg8"
   height="48"
   width="48"
   version="1.1"
   viewBox="0 0 12.7 12.7"
   sodipodi:docname="security_worker_negative.svg"
   inkscape:version="0.92.2 (5c3e80d, 2017-08-06)">
  <defs
     id="defs9" />
  <sodipodi:namedview
     pagecolor="#ffffff"
     bordercolor="#666666"
     borderopacity="1"
     objecttolerance="10"
     gridtolerance="10"
     guidetolerance="10"
     inkscape:pageopacity="0"
     inkscape:pageshadow="2"
     inkscape:window-width="1920"
     inkscape:window-height="1017"
     id="namedview7"
     showgrid="false"
     inkscape:zoom="32.00000005"
     inkscape:cx="14.90801145"
     inkscape:cy="30.39521773"
     inkscape:window-x="-8"
     inkscape:window-y="-8"
     inkscape:window-maximized="1"
     inkscape:current-layer="svg8" />
  <title
     id="title4753">UIO-icon</title>
  <metadata
     id="metadata5">
    <rdf:RDF>
      <cc:Work
         rdf:about="">
        <dc:format>image/svg+xml</dc:format>
        <dc:type
           rdf:resource="http://purl.org/dc/dcmitype/StillImage" />
        <dc:title>UIO-icon</dc:title>
        <dc:creator>
          <cc:Agent>
            <dc:title>Joaquín Urbano</dc:title>
          </cc:Agent>
        </dc:creator>
        <dc:rights>
          <cc:Agent>
            <dc:title>GPL</dc:title>
          </cc:Agent>
        </dc:rights>
      </cc:Work>
    </rdf:RDF>
  </metadata>
  <path
     style="fill:#333333;fill-rule:evenodd;stroke-width:0.9999874234"
     d="M 0,0 V 48 H 48 V 0 Z m 23.50195312,4.931640625 c 3.1358605,0.0051506 6.01324039,1.739400528 7.48242188,4.509765625 0.27249657,0.529943323 0.45640992,1.05995043 0.6484375,1.58984375 0.22129721,0.7459706 0.33893951,1.5187848 0.34960938,2.296875 H 15.01953125 c 0.0100319,-0.7779402 0.12701903,-1.5507844 0.34765625,-2.296875 0.19735751,-0.54872309 0.40949051,-1.082750139 0.6484375,-1.58984375 1.46988148,-2.771565082 4.34916765,-4.506065672 7.48632812,-4.509765625 z M 9.5859375,4.93359375 c 0.106778646,-0.0055748 0.22000154,0.01059195 0.34375,0.06445312 v 0.90625 c 0.03409852,0.0037795 0.06945807,0.0055028 0.10351562,0.0078125 v -0.09765625 c 0.42142469,-0.118298494 0.59987323,-0.04875538 0.80664063,0 v 0.76171875 h 0.009766 V 7.80078125 h -0.009766 v 1.890625 h 0.14648437 V 9.580078125 c 0.0490164,-0.01511773 0.0968446,-0.04194849 0.15429688,0 v 0.955078125 c -0.0454974,0.0377985 -0.10036755,0.0151177 -0.15429688,0 v -0.11132813 h -0.14648437 v 1.81640626 h 0.203125 l 0.0351563,0.0605469 0.0996094,-0.0585938 c -0.01582,-0.0574483 -0.0254071,-0.11568979 0.0449219,-0.19921875 l 0.36132813,-0.30273437 c 0.0666811,-0.0166337 0.13526941,-0.0249265 0.23632812,0.0703125 L 11.89648438,12.0625 c -0.004487,0.16062799 -0.0663767,0.19420591 -0.11132813,0.265625 l -0.24023437,0.21679688 c -0.0625272,0.0264578 -0.12005973,0.0788695 -0.19921876,0.007813 -0.0671851,-0.0453534 -0.10532542,-0.0385554 -0.140625,-0.0234375 l 0.0351563,0.0625 -0.33203126,0.36328124 h 0.001953 v 0.30859376 h 0.0507813 l 0.21679688,9.296875 c -0.00645,0.19917747 0.37207333,0.11022813 0.58789062,0.11132812 0.11576855,0.10098875 0.14688288,0.32727549 -0.12109375,0.46484375 l 0.5,6.18359375 1.8359375,-0.79492188 c 0.85398924,-0.37099532 1.70508915,-0.73087898 2.58007813,-1.046875 l 0.109375,-0.0292969 c 1.8170771,1.80737723 4.27502291,2.82327191 6.83789062,2.82617187 2.08497373,-0.0322666 5.23755409,-1.37356852 6.80273438,-2.84375 0.8169197,0.28996634 1.60980688,0.61807867 2.40429687,0.95898438 l 2.65234375,1.15039062 c 1.06488658,0.46136419 2.16216213,0.92102218 3.37304688,1.34179688 2.54506794,0.75128053 2.54492187,2.86704577 2.54492187,4.01953125 v 6.66210937 H 5.71484375 v -6.66210937 c 0,-1.15248548 -1.17223e-4,-3.27004069 2.544921875,-4.01953125 C 8.451463225,30.81681333 8.626302353,30.74573352 8.8125,30.67773438 L 8.908203125,23.22851562 8.90625,13.296875 c 0.0258206,-0.011339 0.05212375,-0.0226768 0.08398437,0 l 0.0019531,-0.34375 c 0.09579878,-0.0149998 0.191010578,-0.0299221 0.287109375,-0.0449219 V 7.798828125 H 8.509765625 C 8.275828573,7.778840377 8.04233671,7.456224174 8.029296875,7.142578125 v -0.0039063 c -0.0073303,-0.243256792 0.119673296,-0.479801042 0.48046875,-0.5625 h 0.76953125 v -0.046875 h -0.25 v -0.56640625 c 0.08409695,-0.02041663 0.166851036,-0.03553608 0.25,-0.046875 V 4.998046875 C 9.378595609,4.966547158 9.479238829,4.939093681 9.5859375,4.93359375 Z M 23.453125,6.078125 c -0.82482961,0.824309616 -1.67452654,1.030300406 -2.54101562,0.814453125 0.0401665,2.044974236 -0.40003528,4.195380215 2.5546875,5.601562495 1.89847608,-0.74184065 2.98847219,-2.33630639 2.51757812,-5.57226562 -0.90087865,0.139048248 -1.75525978,-0.06744378 -2.53125,-0.84375 z M 9.9296875,6.525390625 v 0.046875 h 0.10351562 v -0.046875 z m -1.52734375,0.42578125 c -0.06839913,0.0048 -0.121393731,0.06471966 -0.12109375,0.13671875 -1.99997e-4,0.07509906 0.05740715,0.136218756 0.12890625,0.13671875 C 8.475555419,7.224709374 8.53076262,7.1735679 8.5390625,7.10546875 H 8.98046875 V 7.033203125 H 8.529296875 c -0.02059956,-0.04989936 -0.06744126,-0.08213126 -0.119140625,-0.08203125 -0.0026011,-8.2394e-5 -0.0052126,-8.2394e-5 -0.0078125,0 z m 1.52734375,0.84765625 v 5.050781255 c 0.03400365,-6e-4 0.06945807,0.001915 0.10351562,0.001953 V 7.798828125 Z m 1.70507812,4.134765625 c -0.10003872,0.080503 -0.2086561,0.14392763 -0.296875,0.25390625 0.00744,0.0873099 0.041617,0.12891186 0.0722656,0.17578125 0.0856619,-0.077479 0.18319344,-0.10883344 0.2578125,-0.23242187 0.00691,-0.0695421 -0.007313,-0.13452642 -0.0332031,-0.19726563 z m 20.00976563,1.75195313 V 13.6875 h 0.007813 c 0.0299807,0.88135889 0.0492838,1.7960254 0.0449219,2.8203125 -0.1089386,0.8490793 0.11718538,2.3341639 -1.2421875,2.19726562 0.003392,0.38997509 0.009042,0.77996679 0.0117188,1.16992188 -4e-8,2.07367387 -0.79832782,4.1215217 -2.36132813,5.09960938 -1.73827804,1.08758637 -3.34949087,2.2263562 -4.609375,2.22265624 -1.83967682,-0.0573343 -2.87682321,-0.92258782 -4.96679687,-2.23828124 -1.4769814,-0.93098828 -1.9921875,-3.00196376 -1.9921875,-5.0859375 v -1.24414063 c -1.25858415,-0.18575766 -1.28181575,-1.54850096 -1.29101563,-2.12109375 -0.007112,-1.00438735 0.007566,-1.93632364 0.0410156,-2.8203125 5.60459902,-0.007253 11.50811336,-0.001953 16.35742187,-0.001953 z M 20.4921875,15.93945312 c 0.43896447,1.1339e-4 0.79482188,0.35593742 0.79492188,0.79492188 -9.828e-5,0.43887447 -0.35594741,0.79481188 -0.79492188,0.79492188 -0.43896447,-1.1339e-4 -0.79482188,-0.35597741 -0.79492188,-0.79492188 9.828e-5,-0.43891447 0.35594741,-0.79481188 0.79492188,-0.79492188 z m 5.96875,0 c 0.43896447,1.1339e-4 0.79482188,0.35593742 0.79492188,0.79492188 -9.828e-5,0.43887447 -0.35594743,0.79481188 -0.79492188,0.79492188 -0.43899447,-1.1339e-4 -0.79483187,-0.3559774 -0.79492188,-0.79492188 9.45e-5,-0.43891447 0.35594743,-0.79481188 0.79492188,-0.79492188 z m -3.03515625,3.66796876 c 0.0167807,-1.1339e-4 0.0337736,-1.1339e-4 0.0507813,0 0.39813498,0 0.71999683,0.0664205 0.71679688,0.1484375 -0.002022,0.080881 -0.32239186,0.14652436 -0.71679688,0.14648437 -0.39440503,3.7774e-4 -0.7147969,-0.0656074 -0.71679688,-0.14648437 -0.004021,-0.077857 0.2878814,-0.14465752 0.66601563,-0.1484375 z m 2.95507813,2.26171874 v 0.001953 c -2e-8,-4.1575e-4 -0.011602,3.7774e-4 -0.0117188,0 -0.0278275,0.0587343 -1.21899054,0.27228452 -2.70117187,0.48242187 -1.49358118,0.21164735 -2.71608783,0.34122184 -2.7421875,0.2890625 -0.0201596,-0.0509854 1.08460248,-0.25344009 2.52148437,-0.4609375 0.0644022,-0.007559 0.12892017,-0.0197847 0.19335938,-0.0273437 1.50168108,-0.21202734 2.71261583,-0.33687242 2.72851562,-0.28320313 3.78e-4,-5.2899e-4 0.0116428,-0.001537 0.0117188,-0.001953 z M 10.2890625,34.796875 c -0.329365833,0 -0.626961474,0.0535679 -0.892578125,0.1640625 -0.26349668,0.11049861 -0.466996791,0.26527313 -0.609375,0.46289062 -0.140098243,0.19499755 -0.208984375,0.42087817 -0.208984375,0.671875 0,0.48236393 0.262079136,0.86563422 0.7890625,1.15039063 0.193367584,0.10411869 0.455613551,0.20999072 0.78710938,0.31835937 0.3314858,0.10624865 0.56196473,0.20889188 0.68945312,0.30664063 0.12749839,0.0956228 0.19140625,0.23344493 0.19140625,0.4140625 0,0.16574778 -0.0639058,0.29517313 -0.19140625,0.38867187 -0.12749839,0.0913727 -0.30583598,0.13671875 -0.53320312,0.13671876 -0.611982294,0 -0.917968755,-0.25546458 -0.917968755,-0.76757813 H 8.43359375 c 0,0.29961638 0.0774717,0.56363849 0.23046875,0.79101563 0.155118047,0.2273673 0.378628694,0.40340792 0.671875,0.53515624 0.293246287,0.12961852 0.617613873,0.19531251 0.97460938,0.1953125 0.51423352,0 0.92466945,-0.11442994 1.22851562,-0.34179687 0.30386615,-0.22949707 0.45507813,-0.54174443 0.45507812,-0.94335937 0,-0.36123553 -0.12443,-0.66400306 -0.37304687,-0.90625 -0.24861685,-0.24224713 -0.64541998,-0.44574706 -1.18945313,-0.609375 -0.29536627,-0.0892479 -0.518886923,-0.18315754 -0.671874995,-0.28515626 -0.150868101,-0.10199871 -0.2265625,-0.22999127 -0.2265625,-0.38085937 0,-0.16149797 0.06569315,-0.29092309 0.1953125,-0.38867187 0.129618369,-0.0998727 0.311184805,-0.1484375 0.544921875,-0.1484375 0.24224693,0 0.43058481,0.0587419 0.56445312,0.17773437 0.1338683,0.11686855 0.19921876,0.28164329 0.19921876,0.49414063 h 0.95703124 c 0,-0.27836652 -0.0722977,-0.52722651 -0.21679687,-0.74609376 -0.14236823,-0.21886721 -0.34232577,-0.38686087 -0.6015625,-0.50585937 -0.25924673,-0.12111848 -0.55522293,-0.18164063 -0.88671875,-0.18164063 z m 7.81445312,0 c -0.38673512,0 -0.72822806,0.0906898 -1.02148437,0.2734375 -0.29111633,0.18061773 -0.51462698,0.44126428 -0.671875,0.78125 -0.157248,0.3399857 -0.23632813,0.73343312 -0.23632813,1.1796875 v 0.28320312 c 0,0.69910121 0.16976992,1.24879572 0.50976563,1.65039063 0.34211569,0.39948499 0.8113175,0.59960937 1.40625,0.59960937 0.54398315,0 0.98101418,-0.14282105 1.3125,-0.4296875 0.3336158,-0.28686651 0.51855796,-0.68031379 0.5546875,-1.1796875 h -0.95507813 c -0.0212496,0.28261645 -0.10533497,0.49096486 -0.25195312,0.62695313 -0.14449818,0.13386822 -0.36478998,0.20117187 -0.66015625,0.20117187 -0.32724586,0 -0.56771505,-0.11602903 -0.72070313,-0.34765624 -0.15086808,-0.23161701 -0.22656249,-0.59813569 -0.2265625,-1.09960938 v -0.34960938 c 0.00425,-0.48023395 0.0849395,-0.83513286 0.2421875,-1.0625 0.15936798,-0.2294971 0.40000402,-0.34374999 0.71875,-0.34375 0.29324629,0 0.50997555,0.0671337 0.65234376,0.203125 0.14449817,0.1338683 0.22858343,0.35077442 0.25195312,0.65039063 h 0.95703125 c -0.0509984,-0.51848357 -0.2411135,-0.92019486 -0.56835937,-1.20703125 -0.32724588,-0.28686638 -0.7574555,-0.42773437 -1.29296876,-0.42773438 z m -5.45898437,0.0625 V 39.5 h 3.11132813 V 38.73242188 H 13.6015625 v -1.2421875 H 15.4375 v -0.75 H 13.6015625 V 35.63476562 H 15.75 V 34.859375 Z m 7.89648437,0 v 3.09179688 c 0.006375,0.50148366 0.16954526,0.89671736 0.48828126,1.18359374 0.318746,0.28686652 0.74917245,0.4296875 1.29101562,0.4296875 0.55036307,0 0.98414524,-0.14799311 1.30078125,-0.44335937 0.318746,-0.2953663 0.4765625,-0.69719451 0.4765625,-1.20507813 V 34.859375 H 23.140625 v 3.08984375 c -0.0085,0.56523288 -0.28074615,0.84765625 -0.81835938,0.84765625 -0.25711676,0 -0.45885059,-0.0689111 -0.60546874,-0.20703125 C 21.5717987,38.44984551 21.5,38.22782414 21.5,37.92382812 V 34.859375 Z m 4.34179688,0 V 39.5 h 0.95507812 v -1.69726562 h 0.76171876 L 27.47070312,39.5 h 1.02539063 v -0.0429687 l -1.00390625,-1.8984375 c 0.27836648,-0.12536844 0.48704859,-0.29158579 0.62304688,-0.50195313 0.13811826,-0.21249732 0.20703124,-0.47830586 0.20703124,-0.79492187 0,-0.44623438 -0.14976938,-0.79073933 -0.44726562,-1.03515625 -0.29749625,-0.2443669 -0.71932503,-0.3671875 -1.26757812,-0.3671875 z m 4.22851562,0 V 39.5 h 0.95703126 v -4.640625 z m 1.46289063,0 v 0.77539062 h 1.40429687 V 39.5 h 0.95507813 v -3.86523438 h 1.421875 V 34.859375 Z m 3.97265625,0 1.5234375,2.95898438 V 39.5 h 0.97265625 V 37.81835938 L 38.56640625,34.859375 H 37.5234375 L 36.55664062,36.95117188 35.59765625,34.859375 Z m -8.70898438,0.77539062 H 26.609375 c 0.25711676,0 0.44706405,0.0621286 0.5703125,0.1875 0.1253684,0.12536845 0.1875,0.29675778 0.1875,0.515625 0,0.2146173 -0.0655153,0.38456406 -0.19726562,0.5078125 -0.13174833,0.12111848 -0.31847677,0.18164063 -0.55859376,0.18164063 h -0.77148437 z"
     transform="scale(0.2645833333)"
     id="rect6073"
     inkscape:connector-curvature="0"
     sodipodi:nodetypes="ccccccccccccccccccccccccccccccccccccccccccccccccccccccccccccsccscccccccccccccccccccccccccccccccccccccccccccccccccccccccccsccccccccccccccccccccccccccccccccscccscsccccscssccscscccccccccssscsccccscsccsccccccccccccccccccccccscscccscsccccccccccccscsccccccccccccccccccccccccccscscscc" />
</svg>
