<svg width="48" height="48" viewBox="0 0 48 48" fill="none" xmlns="http://www.w3.org/2000/svg">
<path d="M24.3163 1.10541C24.111 1.03699 23.8891 1.03699 23.6838 1.10541L15.4526 3.84914C15.1663 3.94456 14.9385 4.16415 14.8325 4.4467L13.7546 7.32101C13.6028 7.72603 13.7285 8.18279 14.0663 8.453L15.6247 9.69976C15.8619 9.88953 16 10.1768 16 10.4806V11.5C16 11.7761 16.2239 12 16.5 12C16.7762 12 16.9949 12.2264 17.0534 12.4963C17.4811 14.4712 20.4281 16 24 16C27.5719 16 30.519 14.4712 30.9467 12.4963C31.0051 12.2264 31.2239 12 31.5 12C31.7762 12 32 11.7761 32 11.5V10.4806C32 10.1768 32.1381 9.88953 32.3753 9.69976L33.9338 8.453C34.2715 8.18279 34.3973 7.72603 34.2454 7.32101L33.1675 4.4467C33.0616 4.16415 32.8337 3.94456 32.5474 3.84914L24.3163 1.10541Z" fill="#333333"/>
<path d="M31.7096 13.8555C30.1337 15.74 27.2706 17 24 17C20.7294 17 17.8663 15.74 16.2904 13.8555C16.1011 14.5379 16 15.2571 16 16C16 20.42 19.58 24 24 24C28.42 24 32 20.42 32 16C32 15.2571 31.8989 14.5379 31.7096 13.8555Z" fill="#333333"/>
<path fill-rule="evenodd" clip-rule="evenodd" d="M18.7781 29.3713C18.5752 28.9585 18.1168 28.7356 17.6699 28.8446C12.8662 30.0164 8 32.4056 8 36V40H40V36C40 32.4056 35.1338 30.0164 30.3301 28.8446C29.8832 28.7356 29.4248 28.9585 29.2219 29.3713L25.6093 36.7244L25.0799 32.2854C25.0427 31.9729 25.2774 31.7226 25.5 31.5001C26 31.0001 26 29.0002 25.5 28.5001C25.3398 28.3398 25.0255 28.3849 24.6559 28.438C24.4489 28.4678 24.2244 28.5 24 28.5C23.7755 28.5 23.5511 28.4678 23.344 28.4381C22.9744 28.385 22.6602 28.3398 22.5 28.5001C22 29.0001 22 31.0001 22.5 31.5001C22.7211 31.7211 22.9579 31.9642 22.9209 32.2746L22.3905 36.7241L18.7781 29.3713ZM17.5 35H12.5C12.2239 35 12 35.2239 12 35.5V36C12 36.2761 12.2239 36.5 12.5 36.5H17.5C17.7761 36.5 18 36.2761 18 36V35.5C18 35.2239 17.7761 35 17.5 35ZM33.2 33.5035L35 34V35.8932C35 36.9764 33.2 38.0035 33.2 38.0035C33.2 38.0035 31.431 36.9685 31.431 35.8932V34L33.2 33.5035Z" fill="#333333"/>
</svg>
