<svg width="48" height="48" viewBox="0 0 48 48" fill="none" xmlns="http://www.w3.org/2000/svg">
<path d="M24.0234 7.30276C22.6694 7.30049 21.2821 7.45884 19.0254 7.78713C18.859 8.34981 18.2882 11.2921 18.1328 12.5078C17.2767 12.5399 16.5831 12.5815 16.1055 12.6289C15.6279 12.6764 15.3783 12.7283 15.3789 12.7813C15.3812 12.8722 16.1162 12.9592 17.4219 13.0235C18.7276 13.0877 20.4983 13.125 22.3438 13.125C24.0129 13.1246 25.6242 13.095 26.8828 13.041L29.9258 13.0469C29.9171 12.3745 29.0112 8.43179 28.8203 7.78713C26.6991 7.46801 25.3775 7.30503 24.0234 7.30276ZM17.9746 13.3633V13.3653C18.0184 15.1236 17.9738 17.2645 17.9824 18.7129C17.9824 20.5141 18.427 22.3021 19.7031 23.1055C21.5092 24.2424 22.4064 24.9914 23.9961 25.041C25.0848 25.0443 26.4762 24.0591 27.9785 23.1192C29.3293 22.274 30.0195 20.5048 30.0195 18.7129C29.9464 16.9709 30.0256 15.2996 29.9785 13.3653V13.3633H29.5332L29.5703 18.4492C29.5703 20.0697 29.0223 21.9332 27.8008 22.6973C26.4424 23.5474 25.0137 24.597 24.0293 24.5938C22.5916 24.5527 21.4829 23.7101 19.8496 22.6817C18.6956 21.9553 18.4118 20.0995 18.416 18.4707C18.4203 16.7683 18.4258 15.0657 18.4258 13.3633H17.9746ZM21.4004 15.3125C21.021 15.3126 20.713 15.6188 20.7129 15.9981C20.713 16.3775 21.021 16.6856 21.4004 16.6856C21.7798 16.6856 22.0859 16.3774 22.0859 15.9981C22.0859 15.6187 21.7798 15.3126 21.4004 15.3125ZM26.5586 15.3125C26.1793 15.3126 25.8712 15.6188 25.8711 15.9981C25.8712 16.3775 26.1793 16.6856 26.5586 16.6856C26.938 16.6856 27.244 16.3774 27.2441 15.9981C27.244 15.6187 26.938 15.3126 26.5586 15.3125ZM23.9355 18.4824C23.6087 18.4857 23.356 18.5422 23.3594 18.6094C23.3611 18.6793 23.6376 18.7368 23.9785 18.7364C24.3193 18.7364 24.596 18.6793 24.5977 18.6094C24.6005 18.5386 24.3226 18.4824 23.9785 18.4824C23.9638 18.4823 23.9499 18.4823 23.9355 18.4824ZM26.4883 20.4356C26.4882 20.4361 26.4788 20.4371 26.4785 20.4375C26.4786 20.4379 26.4883 20.4372 26.4883 20.4375V20.4356ZM26.4785 20.4375C26.4647 20.3911 25.4188 20.5004 24.1211 20.6836C24.0655 20.6902 24.0088 20.7006 23.9531 20.7071C22.7114 20.8864 21.758 21.0614 21.7754 21.1055C21.7979 21.1505 22.8537 21.0385 24.1445 20.8555C25.4252 20.674 26.4544 20.4883 26.4785 20.4375ZM29.8867 25.2442C28.5342 26.5147 25.8096 27.6752 24.0078 27.7031C21.7932 27.7008 19.6679 26.8216 18.0977 25.2598L18.0039 25.2852C17.2475 25.5579 16.512 25.8672 15.7734 26.1875C15.7734 26.1875 13.46 27.082 10.8301 28.2266C8.63076 28.8739 8.63086 30.7057 8.63086 31.7012V40.6992H13.7129L33.1621 26.5938L31.9629 26.0742C31.2759 25.7795 30.5927 25.4948 29.8867 25.2442ZM29.9961 25.8028L32.1621 26.7012L13.5508 40.1953L9.13086 40.1992L9.13477 31.4297C9.20405 30.3793 9.30002 29.3347 11.0254 28.6875L11.4844 28.4922L17.9805 25.8321C21.8129 29.1305 25.8304 28.8774 29.9961 25.8028ZM36.1953 27.8594L35.9609 28.0313L35.959 28.0274L18.4844 40.6992H39.3691V31.7012C39.3691 30.7053 39.3693 28.8759 37.1699 28.2266C36.8307 28.1087 36.5151 27.9837 36.1953 27.8594ZM36.2734 28.4141L37.4297 28.8477L38.8633 31.3028L38.8691 40.1992L20.0332 40.1934L36.2734 28.4141Z" fill="#333333"/>
</svg>
