<svg width="48" height="48" viewBox="0 0 48 48" fill="none" xmlns="http://www.w3.org/2000/svg">
<path d="M24 12.9997C24.8284 12.9997 25.5 12.3281 25.5 11.4997C25.5 10.6713 24.8284 9.99971 24 9.99971C23.1716 9.99971 22.5 10.6713 22.5 11.4997C22.5 12.3281 23.1716 12.9997 24 12.9997Z" fill="#333333"/>
<path fill-rule="evenodd" clip-rule="evenodd" d="M23.8164 6.01671L23.8077 6.01835L23.7854 6.02257L23.702 6.03867C23.6297 6.05277 23.5247 6.07354 23.3917 6.10071C23.1258 6.15501 22.7474 6.23494 22.2938 6.33814C21.3888 6.54403 20.1748 6.84471 18.9548 7.2217C17.7462 7.59515 16.4812 8.05861 15.5001 8.6016C15.0118 8.87188 14.5441 9.18862 14.1866 9.56136C13.8324 9.93057 13.5 10.4478 13.5 11.0965C13.5 12.8415 13.9894 14.1197 14.508 14.977C14.7632 15.3988 15.0222 15.7134 15.2263 15.9295C15.2353 16.0449 15.2515 16.1741 15.2786 16.3143C15.38 16.8398 15.6333 17.5095 16.2127 18.1604C16.0735 18.7517 16 19.3677 16 19.9997C16 24.418 19.5817 27.9997 24 27.9997C28.4183 27.9997 32 24.418 32 19.9997C32 19.3677 31.9265 18.7517 31.7873 18.1604C32.3667 17.5095 32.62 16.8398 32.7214 16.3143C32.7485 16.1741 32.7647 16.0449 32.7737 15.9296C32.9778 15.7135 33.2368 15.3989 33.4919 14.9772C34.0107 14.1199 34.5 12.8416 34.5 11.0965C34.5 10.4478 34.1676 9.93057 33.8134 9.56135C33.4559 9.18862 32.9882 8.87188 32.4999 8.6016C31.5188 8.05861 30.2538 7.59515 29.0452 7.2217C27.8252 6.84471 26.6112 6.54403 25.7062 6.33814C25.2526 6.23494 24.8742 6.15501 24.6083 6.10071C24.4753 6.07354 24.3703 6.05277 24.298 6.03867L24.2146 6.02257L24.1923 6.01835L24.1836 6.01671L24 5.98242L23.8164 6.01671ZM24 6.99971L24.1836 6.01671C24.1834 6.01667 24.1836 6.01671 24 6.99971ZM23.8164 6.01671L24 6.99971C23.8164 6.01671 23.8166 6.01667 23.8164 6.01671ZM24 18.4997C26.2067 18.4997 27.6885 18.2134 28.6803 17.8416C29.5187 17.527 30.0075 17.1507 30.2908 16.8336C30.3929 16.7192 30.4738 16.6069 30.5378 16.4997H17.4622C17.5262 16.6069 17.6071 16.7192 17.7092 16.8336C17.9925 17.1507 18.4813 17.527 19.3197 17.8416C20.3115 18.2134 21.7933 18.4997 24 18.4997ZM31.3717 14.4997H16.6283C16.5147 14.3729 16.3684 14.1883 16.2192 13.9417C15.8761 13.3746 15.5039 12.4579 15.5 11.1177C15.5089 11.0971 15.5391 11.0405 15.6298 10.9459C15.7918 10.777 16.0663 10.5741 16.4686 10.3515C17.2688 9.90855 18.3788 9.49298 19.5452 9.13256C20.7002 8.77568 21.8612 8.48765 22.7375 8.2883C23.1745 8.18887 23.5383 8.11206 23.7919 8.06026C23.873 8.0437 23.9427 8.02971 24 8.01837C24.0573 8.02971 24.127 8.0437 24.2081 8.06026C24.4617 8.11206 24.8255 8.18887 25.2625 8.2883C26.1388 8.48765 27.2998 8.77568 28.4548 9.13256C29.6212 9.49298 30.7312 9.90855 31.5314 10.3515C31.9337 10.5741 32.2082 10.777 32.3702 10.9459C32.4609 11.0405 32.4911 11.0971 32.5 11.1177C32.4961 12.4581 32.1239 13.3748 31.7808 13.9418C31.6316 14.1883 31.4853 14.3729 31.3717 14.4997ZM18 19.9997C18 19.8195 18.0079 19.6413 18.0234 19.4653C19.3606 20.093 21.2766 20.4997 24 20.4997C26.3447 20.4997 28.0889 20.1989 29.382 19.7148C29.5919 19.6363 29.7899 19.553 29.9766 19.4653C29.9921 19.6413 30 19.8195 30 19.9997C30 23.3135 27.3137 25.9997 24 25.9997C20.6863 25.9997 18 23.3135 18 19.9997ZM15.4968 11.1265C15.4968 11.1265 15.4969 11.1258 15.4975 11.1242L15.4968 11.1265Z" fill="#333333"/>
<path d="M33 33.9997C33.6667 34.6664 35 35.333 35 35.333C35 35.333 34.3017 37.9997 33 37.9997C31.6983 37.9997 31 35.333 31 35.333C31 35.333 32.3333 34.6664 33 33.9997Z" fill="#333333"/>
<path fill-rule="evenodd" clip-rule="evenodd" d="M20.5 30.9997C20.5 29.8951 21.3954 28.9997 22.5 28.9997H25.5C26.6046 28.9997 27.5 29.8951 27.5 30.9997V32.3817C27.5 33.0485 27.1683 33.665 26.6267 34.0342L26.7398 34.5998L30.1715 30.4327C30.4075 30.1461 30.7829 30.0138 31.1464 30.0892C33.7099 30.6204 36.3329 31.4265 38.3414 32.5332C40.2835 33.6033 42 35.156 42 37.2977V40.9998C42 41.5521 41.5523 41.9998 41 41.9998H7C6.44772 41.9998 6 41.5521 6 40.9998V37.2977C6 35.1677 7.75055 33.6249 9.69161 32.5634C11.7083 31.4605 14.3321 30.6488 16.8647 30.11C17.2297 30.0324 17.6075 30.1644 17.8447 30.4524L21.2758 34.6187L21.3828 34.0406C20.8356 33.6722 20.5 33.0524 20.5 32.3817V30.9997ZM24.5194 33.6958L25.0988 36.5925L24 37.9267L22.9364 36.6351L23.4833 33.6818C23.5644 33.2436 23.3458 32.8046 22.9472 32.6053L22.5 32.3817V30.9997H25.5V32.3817L25.0528 32.6053C24.6494 32.807 24.431 33.2536 24.5194 33.6958ZM24.8837 39.9998L31.3282 32.1742C33.5878 32.6806 35.7547 33.3915 37.3762 34.2849C39.2043 35.2921 40 36.3327 40 37.2977V39.9998H24.8837ZM16.6903 32.1968L23.1163 39.9998H8V37.2977C8 36.364 8.79922 35.3309 10.6513 34.3181C12.2842 33.4251 14.4547 32.7097 16.6903 32.1968Z" fill="#333333"/>
</svg>
