<?xml version="1.0" encoding="UTF-8" standalone="no"?>
<!-- Created with Inkscape (http://www.inkscape.org/) -->
<svg id="svg8" xmlns:rdf="http://www.w3.org/1999/02/22-rdf-syntax-ns#" xmlns="http://www.w3.org/2000/svg" xmlns:osb="http://www.openswatchbook.org/uri/2009/osb" height="48" width="48" version="1.1" xmlns:cc="http://creativecommons.org/ns#" viewBox="0 0 12.7 12.7" xmlns:dc="http://purl.org/dc/elements/1.1/">
 <title id="title4753">UIO-icon</title>
 <metadata id="metadata5">
  <rdf:RDF>
   <cc:Work rdf:about="">
    <dc:format>image/svg+xml</dc:format>
    <dc:type rdf:resource="http://purl.org/dc/dcmitype/StillImage"/>
    <dc:title>UIO-icon</dc:title>
    <dc:creator>
     <cc:Agent>
      <dc:title>Joaquín Urbano</dc:title>
     </cc:Agent>
    </dc:creator>
    <dc:rights>
     <cc:Agent>
      <dc:title>GPL</dc:title>
     </cc:Agent>
    </dc:rights>
   </cc:Work>
  </rdf:RDF>
 </metadata>
 <g id="layer1" fill="#333" transform="translate(0,-284.3)">
  <path id="rect6048" d="m23.502 4.9316c-3.1373 0.003707-6.0165 1.7381-7.4863 4.5098-0.23895 0.50715-0.45108 1.0411-0.64844 1.5898-0.22063 0.74607-0.33762 1.5189-0.34766 2.2969h16.962c-0.01-0.778-0.128-1.551-0.349-2.297-0.192-0.53-0.376-1.0596-0.649-1.5896-1.469-2.7704-4.346-4.5046-7.482-4.5098zm-13.916 0.002c-0.1067 0.0055-0.2073 0.0329-0.3066 0.0644v0.91797c-0.083149 0.011339-0.1659 0.026458-0.25 0.046875v0.56641h0.25v0.046875h-0.76953c-0.3608 0.082704-0.4878 0.31924-0.48047 0.5625v0.0039062c0.013036 0.31365 0.24652 0.63626 0.48047 0.65625h0.76953v5.1094c-0.0961 0.015-0.1913 0.03-0.2871 0.045l-0.0019531 0.34375c-0.031861-0.022677-0.058163-0.011339-0.083984 0l0.002 9.932-0.0957 7.449c-0.1862 0.068-0.3611 0.14-0.5527 0.207-2.5451 0.749-2.545 2.867-2.545 4.019v6.6621h35.572v-6.6621c0-1.1525 0.00016284-3.2682-2.5449-4.0195-1.2109-0.42077-2.3081-0.88043-3.373-1.3418l-2.652-1.15c-0.795-0.341-1.588-0.669-2.405-0.959-1.5652 1.4702-4.7177 2.8115-6.8027 2.8438-2.5629-0.002872-5.0208-1.0188-6.8379-2.8262l-0.10938 0.029297c-0.87529 0.31559-1.7272 0.6743-2.582 1.0449l-1.8359 0.79492-0.5-6.1836c0.26798-0.13757 0.23687-0.36386 0.12109-0.46484-0.21582-0.0011-0.59434 0.087853-0.58789-0.11133l-0.2168-9.2969h-0.050781v-0.30859h-0.001953l0.33203-0.36328-0.035156-0.0625c0.035301-0.015118 0.073439-0.021917 0.14062 0.023438 0.079159 0.071059 0.13669 0.018645 0.19922-0.007813l0.241-0.217c0.04495-0.071429 0.10684-0.105 0.11133-0.26562l-0.076172-0.25195c-0.10106-0.09524-0.16965-0.086946-0.23633-0.070312l-0.36133 0.30273c-0.07033 0.083531-0.060742 0.14177-0.044922 0.19922l-0.099609 0.058594-0.035156-0.060547h-0.20312v-1.816h0.146v0.11133c0.05393 0.015118 0.1088 0.037799 0.1543 0v-0.9549c-0.05745-0.041949-0.10528-0.015118-0.1543 0v0.1113h-0.14648v-1.8906h0.009766v-1.2246h-0.009766v-0.76172c-0.20677-0.048756-0.38521-0.1183-0.80664 0v0.097656c-0.034054-0.00231-0.069417-0.004033-0.10352-0.0078125v-0.90625c-0.1236-0.054-0.2368-0.0702-0.3436-0.0646zm13.867 1.1445c0.77606 0.77632 1.6304 0.9828 2.5312 0.84375 0.47096 3.236-0.61912 4.8304-2.5176 5.5723-2.955-1.406-2.515-3.5564-2.555-5.6014 0.867 0.2158 1.716 0.0098 2.541-0.8145zm-13.523 0.4473h0.10352v0.046875h-0.1033zm-1.5273 0.42578c0.0026-0.000082394 0.0052114-0.000082394 0.0078125 0 0.051729-0.000059339 0.098547 0.032164 0.11914 0.082031h0.4511v0.0723h-0.4414c-0.0083 0.0681-0.0635 0.1192-0.1289 0.1191-0.0715-0.0005-0.1292-0.0616-0.129-0.1367-0.0003-0.072 0.0527-0.1319 0.1211-0.1367zm1.5273 0.84766h0.10352v5.0531c-0.034054-0.00003817-0.069511-0.002553-0.10352-0.001953zm1.7051 4.1348c0.02589 0.06274 0.040113 0.12772 0.033203 0.19727-0.07462 0.12359-0.17215 0.15494-0.25781 0.23242-0.030648-0.04687-0.064826-0.08847-0.072266-0.17578 0.08822-0.10998 0.19684-0.1734 0.29688-0.25391zm4.8945 1.75v0.004h-1.2422c-0.03345 0.88398-0.048127 1.8159-0.041016 2.8203 0.009245 0.57266 0.032388 1.9373 1.291 2.123v1.244c0 2.0844 0.5155 4.1544 1.9922 5.084 2.09 1.3157 3.1271 2.1809 4.9668 2.2383 1.2599 0.00378 2.871-1.135 4.6094-2.2227 1.5631-0.97807 2.3613-3.0259 2.3613-5.0996-0.002677-0.38998-0.008327-0.77994-0.011719-1.1699 1.3594 0.13693 1.1332-1.3482 1.2422-2.1973 0.004362-1.0243-0.014941-1.9389-0.044922-2.8203h-1.2324v-0.003906h-0.51562l0.042969 5.8867c0 1.8753-0.63337 4.0318-2.0469 4.916-1.572 0.98366-3.2259 2.1971-4.3652 2.1934-1.6637-0.047622-2.9459-1.0229-4.8359-2.2129-1.3354-0.84057-1.665-2.9881-1.6602-4.873 0.004926-1.9701 0.011719-3.9401 0.011719-5.9102zm3.9629 2.2559c-0.43898 0.00011339-0.79482 0.356-0.79492 0.79492 0.00009828 0.43895 0.35596 0.79481 0.79492 0.79492 0.43898-0.00011339 0.79482-0.35604 0.79492-0.79492-0.00009828-0.43899-0.35596-0.79481-0.79492-0.79492zm5.9688 0c-0.43898 0.00011339-0.79483 0.356-0.79492 0.79492 0.0000945 0.43895 0.35592 0.79481 0.79492 0.79492 0.43898-0.00011339 0.79482-0.35604 0.79492-0.79492-0.00009828-0.43899-0.35596-0.79481-0.79492-0.79492zm-3.036 3.669c-0.37814 0.00378-0.67004 0.070579-0.66602 0.14844 0.001999 0.080882 0.32239 0.14686 0.7168 0.14648 0.39441 0.0000376 0.71477-0.065602 0.7168-0.14648 0.003201-0.082016-0.31865-0.14844-0.7168-0.14844-0.017008-0.00011339-0.034-0.00011339-0.050781 0zm2.9551 2.2617c-0.00007561 0.00041575-0.011341 0.001424-0.011719 0.001953 0.00011717 0.00037776 0.011719-0.00041575 0.011719 0zm-0.011719 0.001953c-0.015874-0.053669-1.2268 0.071172-2.7285 0.2832-0.064441 0.007559-0.12896 0.019785-0.19336 0.027344-1.4369 0.2075-2.5416 0.40995-2.5215 0.46094 0.026079 0.052158 1.2485-0.077409 2.7422-0.28906 1.4821-0.21014 2.6733-0.42369 2.7012-0.48242zm-16.08 12.926c-0.32937 0-0.62696 0.053564-0.89258 0.16406-0.2635 0.1105-0.467 0.26527-0.60938 0.46289-0.1401 0.195-0.2089 0.419-0.2089 0.67 0 0.48237 0.26207 0.86564 0.78906 1.1504 0.19337 0.10412 0.45561 0.20999 0.78711 0.31836 0.33149 0.10625 0.56196 0.20889 0.68945 0.30664 0.1275 0.095624 0.19141 0.23344 0.19141 0.41406 0 0.16575-0.063908 0.29517-0.19141 0.38867-0.1275 0.091374-0.30583 0.13672-0.5332 0.13672-0.61199 0-0.91797-0.25546-0.91797-0.76758h-0.9589c0 0.29962 0.077471 0.56364 0.23047 0.79102 0.15512 0.22737 0.37863 0.40536 0.67188 0.53711 0.29325 0.12962 0.61761 0.19531 0.97461 0.19531 0.51424 0 0.92465-0.11443 1.2285-0.3418 0.30387-0.2295 0.45508-0.54369 0.45508-0.94531 0-0.36124-0.12443-0.664-0.37305-0.90625s-0.64546-0.44575-1.1895-0.60938c-0.29537-0.089249-0.51888-0.18316-0.67187-0.28516-0.15087-0.102-0.22656-0.22999-0.22656-0.38086 0-0.1615 0.065689-0.29092 0.19531-0.38867 0.12962-0.099874 0.31118-0.14844 0.54492-0.14844 0.24225 0 0.43058 0.058736 0.56445 0.17773 0.13387 0.11687 0.19922 0.28164 0.19922 0.49414h0.95703c0-0.27837-0.072299-0.52722-0.2168-0.74609-0.14237-0.21887-0.34232-0.38686-0.60156-0.50586-0.25925-0.12112-0.55522-0.18164-0.88672-0.18164zm7.8164 0c-0.38674 0-0.72824 0.09069-1.0215 0.27344-0.29112 0.18062-0.51463 0.44126-0.67188 0.78125s-0.23633 0.73344-0.23633 1.1797v0.2832c0 0.69911 0.16977 1.2488 0.50977 1.6504 0.34212 0.39949 0.81126 0.59961 1.4062 0.59961 0.54399 0 0.98101-0.14282 1.3125-0.42969 0.33362-0.28687 0.51856-0.68032 0.55469-1.1797h-0.95508c-0.02125 0.28262-0.10533 0.49096-0.25195 0.62695-0.1445 0.13387-0.36479 0.20117-0.66016 0.20117-0.32725 0-0.56771-0.11603-0.7207-0.34766-0.15087-0.23162-0.22656-0.59812-0.22656-1.0996v-0.34961c0.00425-0.48024 0.08494-0.83513 0.24219-1.0625 0.15937-0.2295 0.4-0.34375 0.71875-0.34375 0.29325 0 0.50997 0.067127 0.65234 0.20312 0.1445 0.13387 0.22858 0.35077 0.25195 0.65039h0.95703c-0.050999-0.51849-0.24111-0.92016-0.56836-1.207-0.32725-0.28687-0.75748-0.42969-1.293-0.42969zm-5.4609 0.0625v4.6406h3.1113v-0.769h-2.153v-1.242h1.836v-0.75h-1.836v-1.105h2.148v-0.77539zm7.8984 0v3.091c0.006375 0.50149 0.16954 0.89672 0.48828 1.1836 0.31875 0.28687 0.74915 0.42969 1.291 0.42969 0.55037 0 0.98416-0.14799 1.3008-0.44336 0.31875-0.29537 0.47656-0.69721 0.47656-1.2051v-3.057h-0.958v3.0898c-0.0085 0.56524-0.28074 0.84766-0.81836 0.84766-0.25712 0-0.45885-0.068908-0.60547-0.20703-0.145-0.14-0.217-0.362-0.217-0.666v-3.0645zm4.3418 0v4.6406h0.95508v-1.698h0.76172l0.87109 1.6973h1.0254v-0.042969l-1.0039-1.8984c0.27837-0.12537 0.48705-0.29158 0.62305-0.50195 0.13812-0.2125 0.20703-0.4783 0.20703-0.79492 0-0.44624-0.14977-0.79078-0.44727-1.0352-0.2975-0.24437-0.71934-0.36719-1.2676-0.36719zm4.2285 0v4.6406h0.95703v-4.6406zm1.4629 0v0.77539h1.4043v3.8652h0.95508v-3.8652h1.4219v-0.77539zm3.9727 0 1.5234 2.959v1.6816h0.97266v-1.683l1.5234-2.959h-1.044l-0.966 2.092-0.959-2.092zm-8.709 0.77539h0.77c0.25712 0 0.44706 0.062127 0.57031 0.1875 0.12537 0.12537 0.1875 0.29675 0.1875 0.51562 0 0.21462-0.065518 0.38456-0.19727 0.50781-0.13175 0.12112-0.31847 0.18164-0.55859 0.18164h-0.77148z" fill-rule="evenodd" transform="matrix(.26458 0 0 .26458 0 284.3)"/>
 </g>
</svg>
