<svg width="48" height="48" viewBox="0 0 48 48" fill="none" xmlns="http://www.w3.org/2000/svg">
<path d="M24.1581 1.57975L24.3163 1.10541L24.1581 1.57975L32.3893 4.32348C32.5325 4.37119 32.6464 4.48099 32.6994 4.62226L33.7772 7.49657C33.8532 7.69908 33.7903 7.92746 33.6214 8.06257L32.063 9.30932C31.7072 9.59398 31.5 10.025 31.5 10.4806V11.5C30.9285 11.5 30.5523 11.9548 30.458 12.3904C30.2891 13.1705 29.5958 13.948 28.4258 14.5431C27.2693 15.1313 25.7193 15.5 24 15.5C22.2808 15.5 20.7308 15.1313 19.5743 14.5431C18.4043 13.948 17.711 13.1705 17.542 12.3904C17.4477 11.9548 17.0716 11.5 16.5 11.5V10.4806C16.5 10.025 16.2929 9.59398 15.9371 9.30932L14.3786 8.06257C14.2097 7.92746 14.1469 7.69908 14.2228 7.49657L15.3007 4.62226C15.3537 4.48099 15.4676 4.37119 15.6107 4.32348L23.8419 1.57975C23.9445 1.54554 24.0555 1.54554 24.1581 1.57975ZM39.5 36V39.5H8.5V36C8.5 34.4535 9.54534 33.0892 11.308 31.9318C13.0592 30.7819 15.4162 29.909 17.7884 29.3303C18 29.2787 18.2265 29.3826 18.3293 29.5918L21.9418 36.9446C22.0394 37.1434 22.2563 37.2543 22.4746 37.217C22.693 37.1797 22.8608 37.0033 22.887 36.7833L23.4174 32.3338C23.4541 32.0259 23.349 31.7708 23.2272 31.5824C23.1132 31.4061 22.9629 31.2558 22.8581 31.1511L22.8535 31.1465C22.829 31.122 22.7618 31.0154 22.7055 30.7762C22.6535 30.5556 22.625 30.2825 22.625 30.0001C22.625 29.7177 22.6535 29.4446 22.7055 29.224C22.7472 29.0464 22.795 28.942 22.827 28.8898C22.8338 28.8895 22.8417 28.8892 22.8508 28.889C22.9478 28.8876 23.0757 28.9047 23.2729 28.933L23.2855 28.9348C23.4852 28.9635 23.7395 29 24 29C24.2604 29 24.5147 28.9635 24.7144 28.9348L24.727 28.933C24.9242 28.9046 25.0521 28.8876 25.1492 28.889C25.1583 28.8891 25.1662 28.8894 25.173 28.8898C25.2049 28.9419 25.2527 29.0464 25.2945 29.224C25.3464 29.4447 25.375 29.7177 25.375 30.0001C25.375 30.2826 25.3464 30.5556 25.2945 30.7762C25.2382 31.0154 25.171 31.122 25.1465 31.1465C25.0376 31.2554 24.8853 31.4093 24.7699 31.5918C24.6494 31.7825 24.5469 32.0383 24.5835 32.3446L25.1129 36.7836C25.1391 37.0036 25.3069 37.18 25.5253 37.2173C25.7436 37.2545 25.9604 37.1437 26.0581 36.9449L29.6707 29.5918C29.7735 29.3826 30 29.2787 30.2116 29.3303C32.5838 29.909 34.9408 30.7819 36.692 31.9318C38.4547 33.0892 39.5 34.4535 39.5 36ZM22.7909 28.8942C22.7909 28.8942 22.7916 28.894 22.7932 28.8936L22.7909 28.8942ZM25.209 28.8942C25.209 28.8942 25.2082 28.894 25.2068 28.8936L25.209 28.8942ZM24 17.5C26.9731 17.5 29.6619 16.4956 31.4175 14.8824C31.4718 15.2468 31.5 15.62 31.5 16C31.5 20.1438 28.1439 23.5 24 23.5C19.8561 23.5 16.5 20.1438 16.5 16C16.5 15.62 16.5282 15.2468 16.5825 14.8824C18.3381 16.4956 21.0269 17.5 24 17.5Z" stroke="black" stroke-linejoin="round"/>
<path d="M12.5 35.5H17.5V36H12.5V35.5Z" stroke="black" stroke-linejoin="round"/>
<path d="M33.7715 36.9776C33.567 37.1558 33.3602 37.3051 33.2032 37.4105C33.0493 37.3047 32.8474 37.1554 32.6477 36.9779C32.4446 36.7973 32.2569 36.599 32.1232 36.3988C31.9873 36.1955 31.931 36.0262 31.931 35.8932V34.379L33.2011 34.0225L34.5 34.3808V35.8932C34.5 36.0264 34.443 36.1958 34.305 36.3991C34.1691 36.5993 33.9782 36.7974 33.7715 36.9776Z" stroke="black" stroke-linejoin="round"/>
</svg>
