<svg width="48" height="48" viewBox="0 0 48 48" fill="none" xmlns="http://www.w3.org/2000/svg">
<path fill-rule="evenodd" clip-rule="evenodd" d="M24.0244 7.30178C22.6704 7.29951 21.2819 7.45958 19.0252 7.78787C18.8588 8.35055 18.2877 11.2929 18.1323 12.5086C17.2762 12.5407 16.5822 12.582 16.1046 12.6294C15.627 12.6769 15.3789 12.7291 15.3795 12.7821C15.3818 12.873 16.1165 12.9601 17.4222 13.0244C18.7279 13.0886 20.4979 13.1247 22.3434 13.1247C24.0126 13.1243 25.6233 13.0943 26.8819 13.0403L29.9267 13.0471C29.918 12.3747 29.0104 8.43253 28.8195 7.78787C26.6983 7.46875 25.3785 7.30405 24.0244 7.30178ZM17.9754 13.3627V13.3661C18.0192 15.1244 17.9736 17.2646 17.9822 18.713C17.9822 20.5142 18.4276 22.303 19.7037 23.1064C21.5098 24.2433 22.4061 24.991 23.9958 25.0406C25.0845 25.0439 26.4767 24.0598 27.979 23.1199C29.3298 22.2747 30.0195 20.5049 30.0195 18.713C29.9464 16.971 30.0261 15.3004 29.979 13.3661V13.3627H29.5334L29.5705 18.4497C29.5705 20.0702 29.0232 21.9338 27.8017 22.6979C26.4433 23.548 25.0139 24.5965 24.0295 24.5933C22.5918 24.5522 21.4838 23.7094 19.8505 22.681C18.6965 21.9546 18.4117 20.0987 18.4159 18.4699C18.4202 16.7675 18.426 15.0651 18.426 13.3627H17.9754ZM21.3999 15.3121C21.0205 15.3122 20.7131 15.6197 20.713 15.999C20.7131 16.3784 21.0205 16.6859 21.3999 16.6859C21.7793 16.6859 22.0868 16.3783 22.0868 15.999C22.0868 15.6196 21.7793 15.3122 21.3999 15.3121ZM26.5578 15.3121C26.1785 15.3122 25.871 15.6197 25.8709 15.999C25.871 16.3784 26.1785 16.6859 26.5578 16.6859C26.9372 16.6859 27.2447 16.3783 27.2448 15.999C27.2447 15.6196 26.9372 15.3122 26.5578 15.3121ZM23.935 18.4818C23.6082 18.4851 23.356 18.5428 23.3594 18.61C23.3611 18.6799 23.638 18.737 23.9789 18.7366C24.3197 18.7366 24.5966 18.6799 24.5983 18.61C24.6011 18.5392 24.323 18.4818 23.9789 18.4818C23.9642 18.4817 23.9494 18.4817 23.935 18.4818H23.935ZM26.4886 20.4362C26.4885 20.4367 26.4788 20.4375 26.4785 20.4379C26.4786 20.4383 26.4886 20.4376 26.4886 20.4379V20.4362ZM26.4785 20.4379C26.4647 20.3915 25.4183 20.4995 24.1206 20.6827C24.065 20.6893 24.0092 20.6998 23.9535 20.7063C22.7118 20.8856 21.7572 21.0605 21.7746 21.1046C21.7971 21.1496 22.8535 21.0378 24.1443 20.8548C25.425 20.6733 26.4544 20.4887 26.4785 20.4379ZM29.8862 25.2448C28.5337 26.5153 25.8093 27.6743 24.0075 27.7022C21.7929 27.6998 19.6688 26.8218 18.0986 25.26L18.004 25.2853C17.2476 25.558 16.5114 25.868 15.7728 26.1883C15.7728 26.1883 13.4591 27.0825 10.8292 28.2271C8.62988 28.8744 8.63 30.7051 8.63 31.7006V40.6983H13.712L33.1622 26.5933L31.9638 26.0735C31.2768 25.7788 30.5922 25.4954 29.8862 25.2448L29.8862 25.2448ZM36.1361 27.8372L36.1681 27.8744L18.4851 40.6983H39.3699V31.7006C39.3699 30.7047 39.3701 28.8764 37.1707 28.2271C36.8111 28.1022 36.4753 27.9688 36.1361 27.8372V27.8372Z" fill="#333333"/>
</svg>
