<svg width="48" height="48" viewBox="0 0 48 48" fill="none" xmlns="http://www.w3.org/2000/svg">
<path fill-rule="evenodd" clip-rule="evenodd" d="M17.5459 15.4795C16.1101 14.9189 14.5294 14.8479 13.0491 15.2775C11.5688 15.7071 10.2716 16.6133 9.35899 17.8554C8.44632 19.0975 7.96916 20.6062 8.00155 22.1472C8.03393 23.6883 8.57405 25.1755 9.53809 26.3782C10.5021 27.5809 11.8362 28.4318 13.3332 28.7988C14.8303 29.1658 16.4066 29.0285 17.8176 28.408C19.2286 27.7876 20.3954 26.7188 21.1369 25.3675C21.8783 24.0162 22.1531 22.4579 21.9184 20.9345C21.8343 20.3886 22.2087 19.878 22.7545 19.7939C23.3004 19.7098 23.811 20.0841 23.8951 20.63C24.1968 22.5887 23.8436 24.5922 22.8903 26.3296C21.9369 28.067 20.4368 29.4412 18.6227 30.2389C16.8085 31.0366 14.7818 31.2132 12.857 30.7413C10.9322 30.2694 9.21703 29.1754 7.97755 27.6291C6.73807 26.0828 6.04363 24.1706 6.00199 22.1892C5.96035 20.2079 6.57384 18.2682 7.74727 16.6712C8.92069 15.0741 10.5884 13.9091 12.4917 13.3567C14.3949 12.8044 16.4273 12.8957 18.2733 13.6165C18.7878 13.8174 19.042 14.3973 18.8411 14.9117C18.6403 15.4262 18.0604 15.6804 17.5459 15.4795Z" fill="#333333"/>
<path fill-rule="evenodd" clip-rule="evenodd" d="M14 39.0001L14 31.0001C14 30.4479 14.4477 30.0001 15 30.0001C15.5523 30.0001 16 30.4479 16 31.0001L16 39.0001C16 39.5524 15.5523 40.0001 15 40.0001C14.4477 40.0001 14 39.5524 14 39.0001Z" fill="#333333"/>
<path fill-rule="evenodd" clip-rule="evenodd" d="M11 34.0001C11 33.4479 11.4477 33.0001 12 33.0001H18C18.5523 33.0001 19 33.4479 19 34.0001C19 34.5524 18.5523 35.0001 18 35.0001H12C11.4477 35.0001 11 34.5524 11 34.0001Z" fill="#333333"/>
<path fill-rule="evenodd" clip-rule="evenodd" d="M28.9016 15.2634C27.4182 14.8447 25.838 14.9273 24.4064 15.4984C22.9747 16.0695 21.7716 17.0972 20.9836 18.4219C20.1957 19.7467 19.8671 21.2945 20.0488 22.8252C20.1139 23.3736 19.7221 23.871 19.1736 23.9361C18.6252 24.0012 18.1278 23.6093 18.0627 23.0609C17.8292 21.0929 18.2517 19.1029 19.2647 17.3996C20.2777 15.6963 21.8246 14.375 23.6653 13.6407C25.5061 12.9064 27.5377 12.8002 29.4449 13.3386C31.3522 13.877 33.0284 15.0298 34.2135 16.6182C35.3986 18.2066 36.0263 20.1417 35.9992 22.1233C35.972 24.1049 35.2916 26.0221 34.0635 27.5775C32.8354 29.1329 31.1282 30.2394 29.207 30.7253C27.2857 31.2113 25.2578 31.0496 23.4378 30.2652C22.9306 30.0466 22.6967 29.4582 22.9153 28.951C23.1339 28.4439 23.7222 28.2099 24.2294 28.4285C25.6449 29.0386 27.2222 29.1644 28.7165 28.7864C30.2109 28.4084 31.5386 27.5478 32.4938 26.3381C33.449 25.1284 33.9783 23.6372 33.9993 22.0959C34.0204 20.5547 33.5322 19.0496 32.6105 17.8142C31.6888 16.5788 30.385 15.6821 28.9016 15.2634Z" fill="#333333"/>
<path fill-rule="evenodd" clip-rule="evenodd" d="M32.7929 17.2072C32.4024 16.8167 32.4024 16.1836 32.7929 15.793L40.2929 8.29303C40.6834 7.90251 41.3166 7.90251 41.7071 8.29303C42.0976 8.68356 42.0976 9.31672 41.7071 9.70725L34.2071 17.2072C33.8166 17.5978 33.1834 17.5978 32.7929 17.2072Z" fill="#333333"/>
<path fill-rule="evenodd" clip-rule="evenodd" d="M40.9244 15.0001C40.3721 14.9931 39.9301 14.5398 39.9371 13.9875L39.9872 10.013L36.0126 10.063C35.4604 10.07 35.007 9.62795 35.0001 9.07571C34.9931 8.52347 35.4352 8.07015 35.9874 8.0632L42.0128 7.9873L41.9369 14.0127C41.9299 14.565 41.4766 15.007 40.9244 15.0001Z" fill="#333333"/>
</svg>
