<?xml version="1.0" encoding="UTF-8" standalone="no"?>
<!-- Created with Inkscape (http://www.inkscape.org/) -->
<svg id="svg8" xmlns:rdf="http://www.w3.org/1999/02/22-rdf-syntax-ns#" xmlns="http://www.w3.org/2000/svg" xmlns:osb="http://www.openswatchbook.org/uri/2009/osb" height="48" width="48" version="1.1" xmlns:cc="http://creativecommons.org/ns#" viewBox="0 0 12.7 12.7" xmlns:dc="http://purl.org/dc/elements/1.1/">
 <title id="title4753">UIO-icon</title>
 <metadata id="metadata5">
  <rdf:RDF>
   <cc:Work rdf:about="">
    <dc:format>image/svg+xml</dc:format>
    <dc:type rdf:resource="http://purl.org/dc/dcmitype/StillImage"/>
    <dc:title>UIO-icon</dc:title>
    <dc:creator>
     <cc:Agent>
      <dc:title>Joaquín Urbano</dc:title>
     </cc:Agent>
    </dc:creator>
    <dc:rights>
     <cc:Agent>
      <dc:title>GPL</dc:title>
     </cc:Agent>
    </dc:rights>
   </cc:Work>
  </rdf:RDF>
 </metadata>
 <g id="layer1" transform="translate(0,-284.3)">
  <g id="layer1-7" transform="translate(-39.224 9.8557)">
   <path id="path1849" fill="#333" d="m36.367 4.0898-1.7871 1.7871 2.8066 2.8066-4.7207 4.7168c-1.913-1.403-4.208-2.166-6.504-2.166-5.8663 0-10.711 4.7198-10.711 10.586 0 2.4771 0.86055 4.7091 2.2461 6.5078 0.15182-0.078903 0.29485-0.17467 0.44336-0.25977a10.173 10.144 0 0 1 -2.1484 -6.2109 10.173 10.144 0 0 1 10.172 -10.145 10.173 10.144 0 0 1 6.5273 2.3633l5.426-5.3738-2.814-2.8223 1.0703-1.0703 2.8164 2.6875 2.2715-2.2871 1.0762 1.0625-2.3047 2.418 2.6699 2.6797-1.0488 1.0547-2.676-2.674-5.463 5.326a10.173 10.144 0 0 1 2.623 6.7812 10.173 10.144 0 0 1 -10.174 10.143 10.173 10.144 0 0 1 -5.004 -1.336c-0.15819 0.10718-0.31106 0.22304-0.47266 0.32422 1.6124 0.96235 3.4727 1.5449 5.4746 1.5449 5.8663 0 10.713-4.719 10.713-10.713 0-2.4229-0.89546-4.8468-2.4258-6.7598l4.725-4.589 2.678 2.677 1.783-1.783-2.682-2.6814 2.299-2.4199-1.787-1.7871-2.291 2.2949zm-21.07 6.9672c-1.6771-0.067404-3.3718 0.26728-4.9316 1.0117-5.221 2.4923-7.4332 8.7447-4.9395 13.965 0.98745 2.0546 2.6199 3.7298 4.6465 4.7734l-2.7578 7.8027-2.9492-3.0098 2.3047 8.3105 7.1738-4.959-4.1719 0.4375 2.7207-7.6973c2.3458 0.57384 4.8184 0.31692 6.998-0.72266 5.2182-2.4931 7.4272-8.7421 4.9355-13.961-0.35353-0.741-0.8142-1.4147-1.3242-2.0469-0.15999 0.088218-0.30521 0.19337-0.45898 0.28906a9.9445 9.9445 0 0 1 2.2598 6.2949 9.9445 9.9445 0 0 1 -9.9453 9.9434 9.9445 9.9445 0 0 1 -2.796 -0.407l-3.105 8.918 2.932-0.326s-4.8296 3.4719-4.918 3.4277c-0.088388-0.044194-1.5781-5.7148-1.5781-5.7148l2.1032 2.144 3.2129-8.959a9.9445 9.9445 0 0 1 -5.7949 -9.025 9.9445 9.9445 0 0 1 9.9429 -9.945 9.9445 9.9445 0 0 1 4.737 1.224c0.1744-0.12398 0.34168-0.25726 0.52148-0.375-1.4912-0.86089-3.1471-1.3257-4.8184-1.3926zm-0.43945 1.9531a8.5346 8.5346 0 0 0 -8.5332 8.5352 8.5346 8.5346 0 0 0 8.5332 8.5352 8.5346 8.5346 0 0 0 8.5352 -8.5352 8.5346 8.5346 0 0 0 -2.0039 -5.4785c-0.1341 0.10751-0.27424 0.20813-0.4043 0.32031 0.43325 0.51479 0.81023 1.0725 1.1035 1.6855 1.9029 3.9837 0.21453 8.7561-3.7695 10.658-3.984 1.903-8.7528 0.215-10.655-3.769-1.9009-3.984-0.2145-8.754 3.77-10.654 2.0659-0.98544 4.4311-1.0182 6.5078-0.1543 0.13781-0.12914 0.28876-0.24495 0.43164-0.36914a8.5346 8.5346 0 0 0 -3.5156 -0.77344zm11.307 0.14258a8.7308 8.7056 0 0 0 -8.7285 8.7051 8.7308 8.7056 0 0 0 1.9199 5.4141c0.14857-0.11054 0.30327-0.2102 0.44727-0.32812-1.1077-1.4115-1.8008-3.1751-1.8008-5.123 0-4.4633 3.6967-8.1641 8.1602-8.1641s8.1621 3.7008 8.1621 8.1641c0 4.5912-3.6986 8.2871-8.1621 8.2871-1.1825 0-2.3015-0.27354-3.3223-0.74023-0.13431 0.12095-0.27806 0.22811-0.41602 0.34375a8.7308 8.7056 0 0 0 3.7402 0.85352 8.7308 8.7056 0 0 0 8.7324 -8.707 8.7308 8.7056 0 0 0 -8.7324 -8.7051z" transform="matrix(.26458 0 0 .26458 39.224 274.44)"/>
  </g>
 </g>
</svg>
