<?xml version="1.0" encoding="UTF-8" standalone="no"?>
<!-- Created with Inkscape (http://www.inkscape.org/) -->
<svg id="svg8" xmlns:rdf="http://www.w3.org/1999/02/22-rdf-syntax-ns#" xmlns="http://www.w3.org/2000/svg" xmlns:osb="http://www.openswatchbook.org/uri/2009/osb" height="48" width="48" version="1.1" xmlns:cc="http://creativecommons.org/ns#" viewBox="0 0 12.7 12.7" xmlns:dc="http://purl.org/dc/elements/1.1/">
 <title id="title4753">UIO-icon</title>
 <metadata id="metadata5">
  <rdf:RDF>
   <cc:Work rdf:about="">
    <dc:format>image/svg+xml</dc:format>
    <dc:type rdf:resource="http://purl.org/dc/dcmitype/StillImage"/>
    <dc:title>UIO-icon</dc:title>
    <dc:creator>
     <cc:Agent>
      <dc:title>Joaquín Urbano</dc:title>
     </cc:Agent>
    </dc:creator>
    <dc:rights>
     <cc:Agent>
      <dc:title>GPL</dc:title>
     </cc:Agent>
    </dc:rights>
   </cc:Work>
  </rdf:RDF>
 </metadata>
 <g id="layer1" transform="translate(0,-284.3)">
  <g id="layer1-7" transform="translate(-39.224 9.8557)">
   <path id="path1849" d="m48.847 275.53-0.47289 0.47288 0.74266 0.74267-1.2489 1.2478c-0.50612-0.3712-1.1133-0.57285-1.7207-0.57285-1.5521 0-2.8341 1.2487-2.8341 2.8008 0 0.6554 0.22775 1.2459 0.59434 1.7218 0.19682-0.10229 0.38303-0.22426 0.55672-0.3665-0.29308-0.37345-0.47612-0.83989-0.47612-1.3553 0-1.1809 0.97823-2.1602 2.1592-2.1602s2.1592 0.97933 2.1592 2.1602c0 1.2148-0.97823 2.1925-2.1592 2.1925-0.31288 0-0.60908-0.07214-0.87915-0.19562-0.17834 0.1606-0.36926 0.30339-0.56962 0.42884 0.42662 0.25462 0.91911 0.40841 1.4488 0.40841 1.5521 0 2.8341-1.2483 2.8341-2.8341 0-0.64105-0.23673-1.2822-0.64163-1.7884l1.2499-1.2145 0.70827 0.70826 0.47182-0.47183-0.70934-0.70933 0.60831-0.64056-0.47289-0.4729-0.60616 0.60724zm-5.5748 1.8432c-0.44374-0.017834-0.89205 0.070645-1.3048 0.26761-1.3814 0.65943-1.9667 2.3138-1.3069 3.695 0.26126 0.54361 0.69332 0.98673 1.2295 1.2629l-0.72976 2.0646-0.78027-0.7964 0.60939 2.199 1.898-1.3123-1.1038 0.11608 0.72009-2.0367c0.62067 0.15183 1.2751 0.083762 1.8518-0.19129 1.3806-0.65962 1.9651-2.3131 1.3058-3.6939-0.093538-0.19606-0.21543-0.3744-0.35037-0.54166-0.19385 0.10689-0.36977 0.23544-0.53415 0.37724 0.11463 0.1362 0.21474 0.28382 0.29233 0.44602 0.50347 1.054 0.056742 2.3169-0.99737 2.8202-1.054 0.50345-2.3158 0.056608-2.8191-0.99738-0.50296-1.0541-0.056764-2.3162 0.99737-2.8191 0.54659-0.26073 1.1723-0.26942 1.7218-0.040845 0.17661-0.1655 0.3693-0.31564 0.57499-0.45033-0.39455-0.22778-0.83248-0.35095-1.2747-0.36863z" fill="#333"/>
  </g>
 </g>
</svg>
