<svg width="48" height="48" viewBox="0 0 48 48" fill="none" xmlns="http://www.w3.org/2000/svg">
<path d="M11.8068 14.1294L8.32298 17.6133C7.16169 18.7746 6.0004 17.6133 7.16169 16.452L16.452 7.16169C17.6133 6.0004 18.7746 7.16169 17.6133 8.32298L14.1294 11.8068C14.1294 11.8068 16.452 11.8068 18.7746 14.1294L21.0972 16.452L30.1346 7.41461C30.9156 6.63356 32.1819 6.63356 32.963 7.41461L34.1136 8.56521C34.6725 9.12409 34.8498 9.95968 34.5661 10.6974L29.2262 24.581L36.1939 33.8714L40.2238 31.8564C40.5913 31.6727 41.035 31.7447 41.3255 32.0352C41.6982 32.4079 41.6982 33.0122 41.3255 33.3849L33.3849 41.3255C33.0122 41.6982 32.4079 41.6982 32.0352 41.3255C31.7447 41.035 31.6727 40.5913 31.8564 40.2238L33.8714 36.1939L24.581 29.2262L10.6974 34.5661C9.95968 34.8498 9.12409 34.6725 8.56521 34.1136L7.41461 32.963C6.63356 32.1819 6.63356 30.9156 7.41461 30.1346L16.452 21.0972L14.1294 18.7746C11.8068 16.452 11.8068 14.1294 11.8068 14.1294Z" fill="#333333"/>
</svg>
