<svg width="48" height="48" viewBox="0 0 48 48" fill="none" xmlns="http://www.w3.org/2000/svg">
<path fill-rule="evenodd" clip-rule="evenodd" d="M13.8068 14.0991C13.8069 14.0996 13.8069 14.1002 13.807 14.1007C13.8084 14.1218 13.8124 14.1715 13.823 14.2458C13.8443 14.3947 13.8915 14.6393 13.9945 14.9486C14.1984 15.5601 14.6267 16.4434 15.5436 17.3604L19.2804 21.0972L8.82882 31.5488L9.97942 32.6994L24.8958 26.9623L33.1617 33.1617L26.9623 24.8958L32.6994 9.97942L31.5488 8.82882L21.0972 19.2804L17.3604 15.5436C16.4434 14.6267 15.5601 14.1984 14.9486 13.9945C14.6393 13.8915 14.3947 13.8443 14.2458 13.823C14.1715 13.8124 14.1218 13.8084 14.1007 13.807C14.1002 13.8069 14.0996 13.8069 14.0991 13.8068H13.8068V14.0991ZM16.452 7.16169C17.6133 6.0004 18.7746 7.16169 17.6133 8.32298L14.1294 11.8068C14.1294 11.8068 14.298 11.8068 14.5898 11.8523C14.988 11.9143 15.6156 12.0609 16.3572 12.4075C17.089 12.7497 17.9318 13.2866 18.7746 14.1294L21.0972 16.452L30.1346 7.41461C30.9156 6.63356 32.1819 6.63356 32.963 7.41461L34.1136 8.56521C34.6725 9.12409 34.8498 9.95968 34.5661 10.6974L29.2262 24.581L36.1939 33.8714L40.2238 31.8564C40.5913 31.6727 41.035 31.7447 41.3255 32.0352C41.6982 32.4079 41.6982 33.0122 41.3255 33.3849L33.3849 41.3255C33.0122 41.6982 32.4079 41.6982 32.0352 41.3255C31.7447 41.035 31.6727 40.5913 31.8564 40.2238L33.8714 36.1939L24.581 29.2262L10.6974 34.5661C9.95968 34.8498 9.12409 34.6725 8.56521 34.1136L7.41461 32.963C6.63356 32.1819 6.63356 30.9156 7.41461 30.1346L16.452 21.0972L14.1294 18.7746C13.2866 17.9318 12.7497 17.089 12.4075 16.3572C12.0609 15.6156 11.9143 14.988 11.8523 14.5898C11.8068 14.298 11.8068 14.1294 11.8068 14.1294L8.32298 17.6133C7.16169 18.7746 6.0004 17.6133 7.16169 16.452L16.452 7.16169Z" fill="#333333"/>
</svg>
