<svg width="48" height="48" viewBox="0 0 48 48" fill="none" xmlns="http://www.w3.org/2000/svg">
<path fill-rule="evenodd" clip-rule="evenodd" d="M48 0H0V48H48V0ZM11.5371 11.7072L10.2442 13.0001H37.7559L36.4629 11.7071C36.0724 11.3166 36.0724 10.6834 36.4629 10.2929C36.8534 9.90237 37.4866 9.90237 37.8771 10.2929L39.9984 12.4142C40.7795 13.1953 40.7795 14.4616 39.9984 15.2426L37.8771 17.364C37.4866 17.7545 36.8534 17.7545 36.4629 17.364C36.0724 16.9734 36.0724 16.3403 36.4629 15.9497L37.4125 15.0001H10.5874L11.5371 15.9499C11.9276 16.3404 11.9276 16.9736 11.5371 17.3641C11.1466 17.7546 10.5134 17.7546 10.1229 17.3641L8.00157 15.2428C7.22052 14.4617 7.22052 13.1954 8.00157 12.4143L10.1229 10.293C10.5134 9.90248 11.1466 9.90248 11.5371 10.293C11.9276 10.6835 11.9276 11.3167 11.5371 11.7072ZM11.5 29C13.4338 29 15 27.4338 15 25.5C15 23.5662 13.4338 22 11.5 22C9.56625 22 8 23.5662 8 25.5C8 27.4338 9.56625 29 11.5 29ZM11.5 30C8.99687 30 4 31.4293 4 34.2666V38H19V34.2666C19 31.4293 14.0031 30 11.5 30ZM36.5 29C38.4338 29 40 27.4338 40 25.5C40 23.5662 38.4338 22 36.5 22C34.5662 22 33 23.5662 33 25.5C33 27.4338 34.5662 29 36.5 29ZM36.5 30C33.9969 30 29 31.4293 29 34.2666V38H44V34.2666C44 31.4293 39.0031 30 36.5 30Z" fill="#333333"/>
</svg>
