<svg width="48" height="48" viewBox="0 0 48 48" fill="none" xmlns="http://www.w3.org/2000/svg">
<path d="M12 17C14.2 17 16 15.2 16 13C16 10.8 14.2 9 12 9C9.8 9 8 10.8 8 13C8 15.2 9.8 17 12 17ZM20 23.86C20 22.24 19.04 20.8 17.56 20.16C15.86 19.42 13.98 19 12 19C10.02 19 8.14 19.42 6.44 20.16C4.96 20.8 4 22.24 4 23.86V25H20V23.86ZM36 17C38.2 17 40 15.2 40 13C40 10.8 38.2 9 36 9C33.8 9 32 10.8 32 13C32 15.2 33.8 17 36 17ZM44 23.86C44 22.24 43.04 20.8 41.56 20.16C39.86 19.42 37.98 19 36 19C34.02 19 32.14 19.42 30.44 20.16C28.96 20.8 28 22.24 28 23.86V25H44V23.86ZM38 39V34.98L10 35V39L4 33L10 27V31.02L38 31V27L44 33L38 39Z" fill="#333333"/>
</svg>
