<svg width="48" height="48" viewBox="0 0 48 48" fill="none" xmlns="http://www.w3.org/2000/svg">
<path fill-rule="evenodd" clip-rule="evenodd" d="M19.26 4C18.6697 4.0003 18.0857 4.12131 17.5438 4.35559C17.0019 4.58988 16.5137 4.93249 16.1091 5.36237C15.7045 5.79225 15.3921 6.30033 15.1911 6.85538C14.99 7.41043 14.9046 8.00073 14.94 8.59H14.93V9.1H28.43V8.6H23.58V8.34C23.58 5.94 21.65 4.01 19.26 4.01V4ZM26.7 9.94H14.93V10.46H14.94C15.0267 11.4074 15.4549 12.291 16.1448 12.946C16.8348 13.601 17.7394 13.9827 18.69 14.02V17.85H19.2C21.1642 17.8248 23.0422 17.0402 24.4405 15.6606C25.8387 14.281 26.6485 12.4136 26.7 10.45V10.42C26.7029 10.3 26.7029 10.18 26.7 10.06V9.94ZM19.2 10.46H26.2C26.0861 12.2678 25.3086 13.9699 24.0167 15.2396C22.7248 16.5094 21.0096 17.2573 19.2 17.34V10.46ZM8.90004 17.87C8.57004 17.87 8.29004 18.07 8.17004 18.37H7.90004C7.83543 18.3699 7.77331 18.3949 7.72671 18.4397C7.6801 18.4844 7.65262 18.5454 7.65004 18.61V18.68C7.65004 18.82 7.76004 18.93 7.90004 18.93H8.17004C8.22543 19.0761 8.32398 19.2019 8.45259 19.2907C8.58119 19.3795 8.73377 19.4271 8.89004 19.4271C9.04631 19.4271 9.19889 19.3795 9.32749 19.2907C9.4561 19.2019 9.55464 19.0761 9.61004 18.93H9.88004C10.02 18.93 10.12 18.82 10.12 18.68V18.61C10.12 18.48 10.02 18.37 9.88004 18.37H9.61004C9.55512 18.2233 9.45678 18.0969 9.32813 18.0075C9.19949 17.9182 9.04666 17.8702 8.89004 17.87H8.90004ZM18.01 18.27C17.3999 18.2687 16.7954 18.3877 16.2313 18.6203C15.6672 18.8529 15.1545 19.1945 14.7226 19.6255C14.2907 20.0565 13.948 20.5684 13.7142 21.132C13.4804 21.6956 13.36 22.2998 13.36 22.91V37.13L12.76 39.63L13.29 39.86C17.24 41.43 21.15 39.05 21.84 38.02C22.17 37.76 22.38 37.31 22.4 37.07L22.42 35.44L22.95 35.78L23.26 35.95C22.63 38.75 19.63 40.77 16.12 40.78C12.55 40.78 9.50004 38.68 8.93004 35.84C9.95561 35.8321 10.9363 35.4184 11.6578 34.6895C12.3792 33.9605 12.7827 32.9756 12.78 31.95V23.54C12.78 22.5083 12.3702 21.5189 11.6407 20.7894C10.9112 20.0598 9.92173 19.65 8.89004 19.65C7.85835 19.65 6.86891 20.0598 6.13939 20.7894C5.40988 21.5189 5.00004 22.5083 5.00004 23.54V31.95C4.99631 32.7794 5.25842 33.5881 5.74794 34.2576C6.23746 34.927 6.92861 35.4221 7.72004 35.67C8.19004 39.26 11.81 41.97 16.12 41.97C20.16 41.97 23.62 39.57 24.39 36.24C25.0202 36.265 25.6409 36.0802 26.1548 35.7147C26.6687 35.3492 27.0469 34.8235 27.23 34.22L27.3 33.71L27.85 33.37L27.99 33.27L40.56 25.44L40.58 25.42L40.31 25.02L42.37 23.75L42.09 23.31L40.03 24.59L39.73 24.13L27.16 31.97L27.02 32.06C26.7961 31.6303 26.4655 31.2653 26.06 31L22.65 28.78V28.55L22.67 22.92C22.674 22.3078 22.5565 21.7008 22.3244 21.1343C22.0922 20.5678 21.75 20.053 21.3176 19.6196C20.8851 19.1862 20.371 18.8429 19.805 18.6095C19.239 18.3761 18.6323 18.2573 18.02 18.26L18.01 18.27ZM18.04 20.05C19.6 20.05 20.86 20.7 20.88 22.97L20.9 27.55L20.91 28.32L22.37 29.22L22.64 29.38L25.66 31.35L25.93 31.53C27.25 32.39 26.83 34.18 26.51 34.59C25.95 35.43 24.5 36.14 23.54 35.52L22.06 34.58L21.79 34.4C20.0522 33.277 18.3255 32.1369 16.61 30.98L16.34 30.81C15.44 30.09 15.24 29.11 15.17 27.71V22.67C15.17 21.11 16.49 20.05 18.04 20.05ZM8.73004 20.15C10.5 20.11 12.29 21.48 12.26 23.29V32.55C11.93 34.89 7.06004 37.32 5.51004 32.55V23.3C5.98004 21.1 7.35004 20.2 8.73004 20.16V20.15ZM39.58 24.84L39.86 25.27L27.72 32.84C27.6636 32.8648 27.6002 32.8688 27.5411 32.8512C27.482 32.8336 27.4311 32.7956 27.3975 32.7439C27.3638 32.6922 27.3496 32.6303 27.3574 32.5691C27.3652 32.508 27.3945 32.4516 27.44 32.41L27.46 32.39L39.58 24.84ZM8.93004 24.94C7.60004 24.99 6.26004 26.07 6.73004 27.99C6.33004 28.39 6.79004 29.13 7.89004 28.78C7.95004 28.78 7.96004 28.83 7.95004 29.04C7.95547 29.1499 7.93491 29.2595 7.89004 29.36C7.84004 29.5 7.81004 29.76 7.83004 29.86C7.85004 29.93 7.91004 29.96 8.00004 29.96C8.07004 29.96 8.09004 29.96 8.13004 29.92C8.14004 29.87 8.17004 29.84 8.19004 29.68C8.23004 29.67 8.32004 29.7 8.39004 29.73C8.41004 29.86 8.37004 29.93 8.43004 30.04C8.47004 30.11 8.55004 30.14 8.63004 30.11C8.75004 30.05 8.77004 30.02 8.76004 29.78H9.02004C9.03004 29.88 9.02004 29.95 9.05004 30.04C9.10004 30.14 9.27004 30.15 9.35004 30.06C9.38004 29.94 9.35004 29.82 9.43004 29.72L9.63004 29.67C9.67004 29.82 9.59004 29.92 9.73004 30.03C9.82004 30.07 9.95004 30.03 9.98004 29.96C10.02 29.86 9.99004 29.58 9.91004 29.34C9.87508 29.2406 9.86145 29.135 9.87004 29.03C9.87004 28.81 9.87004 28.78 9.95004 28.78C10.95 29.19 11.52 28.43 11.07 28.03C11.57 25.86 10.25 24.89 8.93004 24.93V24.94ZM7.56004 27.1C7.64004 27.1 7.77004 27.15 7.88004 27.22C7.96004 27.27 8.10004 27.39 8.28004 27.58C8.38004 27.76 8.72004 28.05 8.28004 28.36C7.72004 28.42 7.24004 28.26 7.15004 27.99C7.11766 27.8519 7.11766 27.7081 7.15004 27.57C7.19004 27.32 7.39004 27.1 7.55004 27.1H7.56004ZM10.21 27.1C10.31 27.1 10.43 27.13 10.49 27.2C10.52 27.21 10.57 27.3 10.61 27.37C10.67 27.5 10.68 27.53 10.69 27.68C10.71 27.84 10.71 27.86 10.68 27.96C10.6654 28.0258 10.6304 28.0853 10.58 28.13C10.4162 28.2666 10.213 28.3472 10 28.36C9.60004 28.39 9.06004 28.08 9.44004 27.67C9.88004 27.24 10.02 27.13 10.21 27.11V27.1ZM23.25 39.23C22.3879 40.2316 21.3152 41.0306 20.1087 41.5699C18.9021 42.1093 17.5914 42.3756 16.27 42.35C14.89 42.35 13.54 42.06 12.32 41.52L11.97 43.06H24.76L23.25 39.23Z" fill="#333333"/>
</svg>
