<?xml version="1.0" encoding="UTF-8" standalone="no"?>
<!-- Created with Inkscape (http://www.inkscape.org/) -->
<svg id="svg8" xmlns:rdf="http://www.w3.org/1999/02/22-rdf-syntax-ns#" xmlns="http://www.w3.org/2000/svg" xmlns:osb="http://www.openswatchbook.org/uri/2009/osb" height="48" width="48" version="1.1" xmlns:cc="http://creativecommons.org/ns#" viewBox="0 0 12.7 12.7" xmlns:dc="http://purl.org/dc/elements/1.1/">
 <title id="title4753">UIO-icon</title>
 <metadata id="metadata5">
  <rdf:RDF>
   <cc:Work rdf:about="">
    <dc:format>image/svg+xml</dc:format>
    <dc:type rdf:resource="http://purl.org/dc/dcmitype/StillImage"/>
    <dc:title>UIO-icon</dc:title>
    <dc:creator>
     <cc:Agent>
      <dc:title>Joaquín Urbano</dc:title>
     </cc:Agent>
    </dc:creator>
    <dc:rights>
     <cc:Agent>
      <dc:title>GPL</dc:title>
     </cc:Agent>
    </dc:rights>
   </cc:Work>
  </rdf:RDF>
 </metadata>
 <g id="layer1" transform="translate(0,-284.3)">
  <path id="rect1913" d="m0 0v48h48v-48h-48zm18.254 4.9277c2.391 0.0006 4.329 1.9389 4.33 4.3301-0.001 0.086-0.004 0.172-0.01 0.2578h4.852l0.004 0.5134h-4.916-0.524-7.47-0.526-0.068l-0.004-0.5134h0.014c-0.008-0.0858-0.012-0.1717-0.014-0.2578 0-2.392 1.94-4.3306 4.332-4.3301zm7.441 5.9413v0.002h0.004v0.113c0.004 0.065 0.006 0.131 0.008 0.196-0.001 0.055-0.003 0.11-0.006 0.166v0.039h-0.002c-0.112 4.076-3.424 7.337-7.502 7.385v0.001h-0.047c-0.012 0.001-0.024 0.002-0.037 0.002-0.012 0-0.024-0.001-0.037-0.002l-0.392 0.002v-3.826c-1.965-0.081-3.566-1.604-3.745-3.562h-0.013l-0.002-0.324c-0.001-0.01-0.002-0.02-0.002-0.03 0-0.009 0.001-0.018 0.002-0.027l-0.002-0.133h0.006 0.517 3.524l7.726-0.002zm-7.498 0.516v6.879c4.297-0.342 6.866-3.648 6.994-6.879h-6.994zm-10.31 7.418c0.3183 0 0.6031 0.195 0.7188 0.492h0.2715c0.136 0 0.2441 0.11 0.2441 0.246v0.07c0 0.137-0.1081 0.246-0.2441 0.246h-0.2715c-0.1155 0.297-0.401 0.49-0.7188 0.491-0.318 0-0.6032-0.194-0.7187-0.491h-0.2715c-0.1361 0-0.2461-0.109-0.2461-0.246v-0.07c0-0.136 0.11-0.246 0.2461-0.246h0.2715c0.1154-0.296 0.4009-0.492 0.7187-0.492zm9.1233 0.388h0.002c2.576 0.001 4.662 2.076 4.65 4.653l-0.016 5.631c0 0.075-0.003 0.153-0.003 0.228l3.414 2.221c0.423 0.276 0.741 0.648 0.961 1.064l0.14-0.088 12.574-7.838 0.297 0.454 2.061-1.28 0.271 0.438-2.05 1.271 0.265 0.407-0.015 0.009v0.002l-12.575 7.84-0.144 0.09-0.543 0.344c-0.019 0.158-0.04 0.32-0.074 0.513-0.077 0.249-0.185 0.492-0.334 0.721-0.571 0.877-1.537 1.335-2.508 1.295-0.765 3.325-4.232 5.729-8.272 5.736-4.306-0.001-7.9219-2.718-8.3903-6.306-1.5825-0.493-2.7246-1.966-2.7246-3.715v-8.416c0-2.156 1.735-3.891 3.8906-3.891 2.1553 0 3.8903 1.735 3.8903 3.891v8.416c0 2.142-1.713 3.866-3.8493 3.889 0.5731 2.844 3.6153 4.936 7.1833 4.937 3.511-0.007 6.515-2.036 7.145-4.826-0.107-0.052-0.211-0.11-0.313-0.176l-0.523-0.34c-0.011 0.52-0.023 1.025-0.027 1.637-0.019 0.234-0.227 0.684-0.555 0.941-0.69 1.033-4.602 3.414-8.553 1.842-0.181-0.074-0.364-0.144-0.537-0.232 0.615-2.496 0.077-0.31 0.611-2.5v-2.449-11.762c0-2.577 2.074-4.65 4.651-4.651zm0.031 1.786c-1.559 0-2.871 1.064-2.871 2.623v5.029c0.06 1.409 0.265 2.387 1.168 3.109l0.271 0.172c1.713 1.16 3.442 2.296 5.178 3.422l0.27 0.172 1.478 0.947c0.96 0.619 2.415-0.098 2.971-0.935 0.313-0.407 0.741-2.201-0.584-3.063l-0.27-0.172c-0.09-0.072-2.912-1.904-3.011-1.969l-0.27-0.171-1.465-0.897-0.008-0.764-0.027-4.58c-0.014-2.27-1.271-2.923-2.83-2.923zm-9.3183 0.105c-1.3783 0.035-2.7417 0.927-3.2188 3.137v9.26c1.5574 4.771 6.4241 2.337 6.7501 0v-9.26c0.037-1.81-1.7593-3.182-3.5313-3.137zm30.855 4.682l-12.121 7.556-0.023 0.014c-0.074 0.048-0.118 0.129-0.118 0.217 0 0.142 0.116 0.258 0.258 0.258 0.049 0 0.096-0.014 0.137-0.039l0.002-0.002 12.146-7.573-0.281-0.431zm-30.656 0.103c1.3289-0.053 2.6501 0.919 2.1441 3.092 0.454 0.4-0.112 1.159-1.1226 0.744-0.0714 0-0.0833 0.035-0.0821 0.25 0.001 0.174 0.0055 0.213 0.043 0.318 0.0819 0.232 0.116 0.52 0.0723 0.616-0.0351 0.077-0.1636 0.113-0.2539 0.072-0.1395-0.109-0.0538-0.214-0.0899-0.357-0.0692 0.017-0.1396 0.033-0.209 0.05-0.0709 0.091-0.0522 0.215-0.082 0.336-0.0764 0.091-0.2439 0.077-0.2969-0.025-0.0373-0.088-0.0163-0.161-0.0254-0.254h-0.2675c0.0146 0.243-0.0009 0.271-0.1172 0.33-0.0878 0.025-0.1728-0.002-0.2129-0.068-0.052-0.118-0.0186-0.186-0.0313-0.317-0.0793-0.028-0.1607-0.059-0.2011-0.049-0.0269 0.16-0.0496 0.196-0.0625 0.247-0.0409 0.036-0.0653 0.044-0.127 0.044-0.0924 0-0.1504-0.039-0.1719-0.117-0.0269-0.097 0.0049-0.347 0.0625-0.488 0.0462-0.113 0.0508-0.142 0.0567-0.322 0.0069-0.213-0.005-0.266-0.0606-0.266-1.1004 0.35-1.567-0.392-1.1523-0.781-0.478-1.925 0.8585-3.002 2.1875-3.055zm-1.3672 2.17c-0.1723 0-0.3663 0.221-0.4141 0.471-0.0303 0.158-0.0283 0.323 0.0039 0.418 0.0927 0.272 0.5708 0.428 1.1309 0.369 0.4439-0.31 0.1034-0.601 0.0078-0.774-0.1898-0.19-0.3309-0.317-0.4023-0.363-0.1121-0.071-0.2457-0.121-0.3262-0.121zm2.6562 0.008c-0.1932 0.025-0.3367 0.13-0.7734 0.566-0.3808 0.408 0.1637 0.719 0.5566 0.684 0.2589-0.032 0.4464-0.105 0.5743-0.223 0.0559-0.051 0.0768-0.086 0.1035-0.174 0.0303-0.1 0.0309-0.123 0.0156-0.277-0.0149-0.149-0.0239-0.183-0.0859-0.309-0.0384-0.077-0.0905-0.16-0.1153-0.183-0.0643-0.06-0.1847-0.096-0.2754-0.084zm13.035 12.121l1.51 3.83h-12.785l0.347-1.541c1.215 0.544 2.57 0.832 3.948 0.836 2.8-0.007 5.416-1.178 6.98-3.125z" fill-rule="evenodd" transform="matrix(.26458 0 0 .26458 0 284.3)" fill="#333"/>
 </g>
</svg>
