<svg width="48" height="48" viewBox="0 0 48 48" fill="none" xmlns="http://www.w3.org/2000/svg">
<path fill-rule="evenodd" clip-rule="evenodd" d="M8.11682 4.14649V5.7433L8.11102 7.34012C8.40868 7.34076 8.70128 7.26755 8.95936 7.12784C9.21745 6.98813 9.43192 6.78685 9.5812 6.54426C9.73095 6.30146 9.81007 6.02575 9.81058 5.74494C9.81109 5.46414 9.73297 5.18817 9.5841 4.94489C9.43541 4.70223 9.22154 4.50069 8.96398 4.36055C8.70641 4.2204 8.41424 4.14657 8.1168 4.14649H8.11682ZM21.8894 4.14649C21.5915 4.1461 21.2987 4.2197 21.0406 4.35987C20.7825 4.50004 20.5681 4.70183 20.4192 4.94489C20.2703 5.18817 20.1922 5.46414 20.1927 5.74494C20.1932 6.02575 20.2723 6.30146 20.4221 6.54426C20.5716 6.78725 20.7866 6.98878 21.0452 7.12852C21.3038 7.26825 21.597 7.34124 21.8952 7.34012L21.8894 5.7433V4.14649ZM3.99109 4.9653V6.56212V17.7806C3.99109 23.1888 8.90183 27.5426 15.0017 27.5426C21.1015 27.5426 26.0122 23.1888 26.0122 17.7806V6.56212V4.9653H23.9148H21.9872V6.56212H23.9148V16.5664C23.9148 21.6868 19.9396 25.8106 15.0017 25.8106C10.0637 25.8106 6.08848 21.6868 6.08848 16.5664V6.56212H8.01612V4.9653H6.08848H3.99109ZM40.3947 24.0914C39.4419 24.0918 38.5281 24.4346 37.8543 25.0444C37.1805 25.6543 36.8018 26.4812 36.8013 27.3437C36.8007 28.1088 37.0981 28.8496 37.6411 29.436C38.1841 30.0224 38.938 30.4168 39.7704 30.5501C39.4115 34.9017 37.219 38.8235 33.812 41.0289C30.0745 43.4429 25.4728 43.4342 21.7427 41.0059C18.0676 38.6116 15.7866 34.2239 15.7382 29.4558C15.2884 29.5864 14.8195 29.6074 14.3198 29.4507C14.3045 34.6904 16.8529 39.54 21.0032 42.1691C25.1524 44.7974 30.271 44.8061 34.4277 42.192C38.3072 39.7527 40.7689 35.3687 41.0852 30.5373C41.9037 30.3926 42.641 29.9949 43.1711 29.4123C43.7012 28.8297 43.9911 28.0984 43.9911 27.3437C43.9906 26.4808 43.6114 25.6534 42.937 25.0435C42.2626 24.4336 41.3481 24.0911 40.3947 24.0914ZM40.3947 25.2418C40.6997 25.2418 41.0016 25.2962 41.2834 25.4018C41.5651 25.5075 41.821 25.6623 42.0366 25.8575C42.2523 26.0527 42.4233 26.2844 42.5399 26.5394C42.6566 26.7944 42.7166 27.0677 42.7165 27.3437C42.7166 27.6197 42.6566 27.893 42.5399 28.148C42.4233 28.403 42.2523 28.6347 42.0366 28.8299C41.821 29.025 41.5651 29.1799 41.2834 29.2855C41.0016 29.3912 40.6997 29.4455 40.3947 29.4456C40.0898 29.4455 39.7878 29.3912 39.5061 29.2855C39.2244 29.1799 38.9684 29.025 38.7528 28.8299C38.5372 28.6347 38.3662 28.403 38.2496 28.148C38.1329 27.893 38.0729 27.6197 38.0729 27.3437C38.0729 27.0677 38.1329 26.7944 38.2496 26.5394C38.3662 26.2844 38.5372 26.0527 38.7528 25.8575C38.9684 25.6623 39.2244 25.5075 39.5061 25.4018C39.7878 25.2962 40.0898 25.2418 40.3947 25.2418ZM13.2006 27.6243C13.1981 28.1623 13.5404 28.6605 14.0983 28.9303C14.6549 29.1996 15.3415 29.2005 15.8993 28.9329C16.4584 28.6647 16.803 28.1676 16.8027 27.6294C15.0605 27.8498 14.478 27.8032 13.2006 27.6243Z" fill="#333333"/>
</svg>
