<svg width="48" height="48" viewBox="0 0 48 48" fill="none" xmlns="http://www.w3.org/2000/svg">
<path d="M12.0004 10C13.1049 10 14.0004 9.10457 14.0004 8C14.0004 6.89543 13.1049 6 12.0004 6C11.2601 6 10.6137 6.4022 10.2679 7H10.0004C8.34351 7 7.00037 8.34315 7.00037 10V19H9.00037V10C9.00037 9.44772 9.44808 9 10.0004 9H10.2679C10.6137 9.5978 11.2601 10 12.0004 10Z" fill="#333333"/>
<path fill-rule="evenodd" clip-rule="evenodd" d="M10.1605 19L9.00037 19H7.00037C6.44808 19 5.99567 19.4487 6.04579 19.9987C6.27828 22.5499 7.39605 24.952 9.22222 26.7782C10.5613 28.1173 12.2102 29.0755 14.0004 29.583V32C14.0004 33.3064 14.8354 34.4177 16.0008 34.8294C16.0434 38.7969 19.2728 42 23.2504 42C27.2544 42 30.5004 38.7541 30.5004 34.75V30.75C30.5004 28.6789 32.1793 27 34.2504 27C36.3214 27 38.0004 28.6789 38.0004 30.75V33.1707C36.8352 33.5825 36.0004 34.6938 36.0004 36C36.0004 37.6569 37.3435 39 39.0004 39C40.6572 39 42.0004 37.6569 42.0004 36C42.0004 34.6938 41.1656 33.5825 40.0004 33.1707V30.75C40.0004 27.5744 37.426 25 34.2504 25C31.0747 25 28.5004 27.5744 28.5004 30.75V34.75C28.5004 37.6495 26.1499 40 23.2504 40C20.3773 40 18.0432 37.6921 18.001 34.8291C19.1658 34.4171 20.0004 33.306 20.0004 32V29.583C21.7906 29.0755 23.4394 28.1173 24.7786 26.7782C26.6047 24.952 27.7225 22.5499 27.955 19.9987C28.0051 19.4487 27.5527 19 27.0004 19L27.0004 10C27.0004 8.34315 25.6572 7 24.0004 7H23.7328C23.387 6.4022 22.7407 6 22.0004 6C20.8958 6 20.0004 6.89543 20.0004 8C20.0004 9.10457 20.8958 10 22.0004 10C22.7407 10 23.387 9.5978 23.7328 9H24.0004C24.5527 9 25.0004 9.44772 25.0004 10V19H23.8403C23.288 19 22.849 19.4509 22.7549 19.9952C22.5509 21.1746 21.9875 22.2717 21.1298 23.1294C20.0346 24.2246 18.5492 24.8399 17.0004 24.8399C15.4516 24.8399 13.9662 24.2246 12.871 23.1294C12.0132 22.2717 11.4499 21.1746 11.2459 19.9952C11.1518 19.4509 10.7128 19 10.1605 19ZM24.5809 21H25.7754C25.4017 22.6396 24.5725 24.1559 23.3644 25.364C21.6765 27.0518 19.3873 28 17.0004 28C14.6134 28 12.3243 27.0518 10.6364 25.364C9.42834 24.1559 8.59914 22.6396 8.22539 21L9.4199 21C9.77061 22.3291 10.468 23.5548 11.4568 24.5436C12.927 26.0139 14.9211 26.8399 17.0004 26.8399C19.0797 26.8399 21.0738 26.0139 22.544 24.5436C23.5328 23.5548 24.2302 22.3291 24.5809 21ZM39.0004 35C39.5527 35 40.0004 35.4477 40.0004 36C40.0004 36.5523 39.5527 37 39.0004 37C38.4481 37 38.0004 36.5523 38.0004 36C38.0004 35.4477 38.4481 35 39.0004 35ZM18.0004 30V32C18.0004 32.5523 17.5527 33 17.0004 33C16.4481 33 16.0004 32.5523 16.0004 32V30H18.0004Z" fill="#333333"/>
</svg>
