<svg width="48" height="48" viewBox="0 0 48 48" fill="none" xmlns="http://www.w3.org/2000/svg">
<g clip-path="url(#clip0)">
<path fill-rule="evenodd" clip-rule="evenodd" d="M0.0078125 -0.0078125V47.9922H48.0078V-0.0078125H0.0078125ZM8.13281 3.99219C8.43054 3.99208 8.72305 4.06586 8.98089 4.20609C9.23873 4.34633 9.4528 4.54807 9.60156 4.79102C9.75032 5.03441 9.8283 5.31046 9.82761 5.59131C9.82693 5.87217 9.74761 6.14788 9.59766 6.39062C9.4482 6.63311 9.23359 6.83425 8.97542 6.97379C8.71724 7.11334 8.42461 7.18637 8.12695 7.18555L8.13281 5.58984V3.99219ZM21.9062 3.99219V5.58984L21.9121 7.18555C21.6141 7.1867 21.3211 7.11382 21.0625 6.97426C20.804 6.8347 20.5891 6.63339 20.4395 6.39062C20.2895 6.14788 20.2102 5.87217 20.2095 5.59131C20.2088 5.31046 20.2868 5.03441 20.4355 4.79102C20.5845 4.5478 20.7989 4.34588 21.0571 4.20563C21.3153 4.06538 21.6082 3.99176 21.9062 3.99219ZM4.00781 4.81055H6.10547H8.0332V6.4082H6.10547V16.4121C6.10547 21.5325 10.0796 25.6562 15.0176 25.6562C19.9555 25.6562 23.9316 21.5325 23.9316 16.4121V6.4082H22.0039V4.81055H23.9316H26.0293V6.4082V17.627C26.0293 23.0351 21.1174 27.3887 15.0176 27.3887C8.91775 27.3887 4.00781 23.0351 4.00781 17.627V6.4082V4.81055ZM40.4121 23.9375C41.3653 23.9374 42.2796 24.2799 42.9538 24.8897C43.6281 25.4995 44.0072 26.3267 44.0078 27.1895C44.0077 27.9442 43.7178 28.6754 43.1876 29.258C42.6574 29.8405 41.92 30.2382 41.1016 30.3828C40.7853 35.2142 38.3229 39.5978 34.4434 42.0371C30.2866 44.6512 25.1687 44.6439 21.0195 42.0156C16.8692 39.3866 14.3206 34.5366 14.3359 29.2969C14.8357 29.4537 15.3041 29.4314 15.7539 29.3008C15.8024 34.0689 18.0848 38.4573 21.7598 40.8516C25.4899 43.2799 30.0907 43.2891 33.8281 40.875C37.2352 38.6696 39.4282 34.7481 39.7871 30.3965C38.9546 30.2631 38.2007 29.8686 37.6578 29.282C37.1148 28.6955 36.8176 27.9546 36.8184 27.1895C36.819 26.327 37.1978 25.5001 37.8716 24.8903C38.5455 24.2806 39.4592 23.9379 40.4121 23.9375ZM40.4121 25.0879C40.1072 25.0879 39.8052 25.1422 39.5234 25.2478C39.2417 25.3534 38.9857 25.5082 38.77 25.7033C38.5544 25.8985 38.3833 26.1302 38.2666 26.3852C38.1499 26.6401 38.0898 26.9134 38.0898 27.1895C38.0898 27.4655 38.1499 27.7388 38.2666 27.9937C38.3833 28.2487 38.5544 28.4804 38.77 28.6756C38.9857 28.8707 39.2417 29.0255 39.5234 29.1311C39.8052 29.2367 40.1072 29.2911 40.4121 29.291C41.0276 29.2906 41.6178 29.069 42.0529 28.675C42.488 28.2809 42.7324 27.7466 42.7324 27.1895C42.7324 26.6323 42.488 26.098 42.0529 25.7039C41.6178 25.3099 41.0276 25.0883 40.4121 25.0879ZM13.2168 27.4707C14.4942 27.6496 15.0761 27.695 16.8184 27.4746C16.8187 28.0127 16.4751 28.5111 15.916 28.7793C15.3582 29.0469 14.6719 29.0447 14.1152 28.7754C13.5574 28.5056 13.2143 28.0088 13.2168 27.4707Z" fill="#333333"/>
</g>
<defs>
<clipPath id="clip0">
<rect width="48" height="48" fill="white"/>
</clipPath>
</defs>
</svg>
