<svg width="48" height="48" viewBox="0 0 48 48" fill="none" xmlns="http://www.w3.org/2000/svg">
<path fill-rule="evenodd" clip-rule="evenodd" d="M8.11719 4.14648V5.74414L8.11133 7.33984C8.71715 7.34152 9.27785 7.03846 9.58203 6.54492C9.88664 6.0505 9.88738 5.44039 9.58398 4.94531C9.28155 4.45141 8.72247 4.14692 8.11719 4.14648ZM21.8887 4.14648C21.2827 4.14627 20.7227 4.45084 20.4199 4.94531C20.1165 5.44039 20.1172 6.0505 20.4219 6.54492C20.7264 7.03903 21.288 7.34219 21.8945 7.33984L21.8887 5.74414V4.14648ZM21.3809 4.79883V5.74414L21.3848 6.69141C21.1452 6.69219 20.9229 6.51136 20.8027 6.21875C20.6822 5.92588 20.681 5.56494 20.8008 5.27148C20.9205 4.97879 21.1415 4.79894 21.3809 4.79883ZM8.63281 4.82031C8.87219 4.82042 9.09322 5.00028 9.21289 5.29297C9.3327 5.58642 9.33146 5.94931 9.21094 6.24219C9.09079 6.53479 8.87043 6.71367 8.63086 6.71289L8.63281 5.76758V4.82031ZM3.99023 4.96484V6.5625V17.7812C3.99023 23.1894 8.90212 27.543 15.002 27.543C21.1018 27.543 26.0117 23.1894 26.0117 17.7812V6.5625V4.96484H23.9141H21.9863V6.5625H23.9141V16.5664C23.9141 21.6868 19.9399 25.8105 15.002 25.8105C10.064 25.8105 6.08789 21.6868 6.08789 16.5664V6.5625H8.01562V4.96484H6.08789H3.99023ZM22.4941 5.46289H24.4434H24.7969H25.5117V16.834V17.1855H25.5078C25.5391 22.8355 20.6636 26.6542 15.3711 27.0352C8.93359 27.0249 4.7218 23.0819 4.50391 17.1973H4.5V17.1367C4.49676 17.0361 4.48528 16.9396 4.48438 16.8379L4.5 16.8438V5.47461H5.21484H5.56836H7.51758V6.06641H5.56836V17.1973C6.06797 22.6146 9.32793 25.9986 14.9258 26.3203C18.5988 26.5246 23.8123 23.8788 24.4434 17.1855V6.05469H22.4941V5.46289ZM40.3945 24.0918C38.4104 24.0926 36.802 25.548 36.8008 27.3438C36.7993 28.9232 38.0511 30.2755 39.7695 30.5508C39.4106 34.9024 37.2195 38.8239 33.8125 41.0293C30.075 43.4434 25.4723 43.4341 21.7422 41.0059C18.0672 38.6116 15.7867 34.2232 15.7383 29.4551C15.2884 29.5857 14.82 29.6079 14.3203 29.4512C14.305 34.6909 16.8536 39.5409 21.0039 42.1699C25.1531 44.7982 30.271 44.8055 34.4277 42.1914C38.3073 39.7521 40.7696 35.3685 41.0859 30.5371C42.7731 30.2381 43.9903 28.8998 43.9902 27.3438C43.989 25.5473 42.3794 24.0916 40.3945 24.0918ZM40.4434 24.5391C41.9646 24.6048 43.4055 25.3818 43.5391 27.3555C43.517 28.9783 42.1984 30.0471 40.627 30.1445C40.3106 34.9759 38.0573 39.3927 34.1777 41.832C29.9429 44.2586 25.4656 44.392 21.3164 41.7637C18.0724 39.7284 15.0237 35.3159 14.8828 30.0449C15.0246 30.0572 15.1619 30.059 15.2891 30.0273C15.3375 34.7955 17.8328 39.0667 21.5078 41.4609C25.238 43.8892 30.2176 43.9492 33.9551 41.5352C37.3621 39.3298 39.8286 35.7168 40.3281 30.1309C38.7231 29.9339 37.3744 29.1488 37.2871 27.459C37.266 25.6411 38.7464 24.5842 40.4434 24.5391ZM40.4375 24.7461C38.3374 24.8456 37.3555 26.4353 37.4883 27.4082C37.4881 29.1435 39.1746 29.9609 40.457 29.9609C42.4466 29.9609 43.3348 28.4825 43.3125 27.4102C43.3127 26.2494 42.5044 24.8235 40.4375 24.7461ZM40.3945 25.2422C41.677 25.242 42.7168 26.183 42.7168 27.3438C42.7168 28.5045 41.677 29.4455 40.3945 29.4453C39.112 29.4455 38.0722 28.5045 38.0723 27.3438C38.0722 26.183 39.112 25.242 40.3945 25.2422ZM13.2012 27.625C13.1987 28.163 13.5398 28.6598 14.0977 28.9297C14.6543 29.199 15.3407 29.2012 15.8984 28.9336C16.4576 28.6654 16.803 28.167 16.8027 27.6289C15.0605 27.8493 14.4786 27.8039 13.2012 27.625ZM16.0938 28.0898C16.0947 28.3058 15.8854 28.505 15.5449 28.6133C15.2042 28.7219 14.7828 28.7232 14.4414 28.6152C14.1009 28.5074 13.8927 28.3076 13.8926 28.0918C14.6619 28.3767 15.3248 28.3483 16.0938 28.0898Z" fill="#333333"/>
</svg>
