<svg width="48" height="48" viewBox="0 0 48 48" fill="none" xmlns="http://www.w3.org/2000/svg">
<g clip-path="url(#clip0)">
<path fill-rule="evenodd" clip-rule="evenodd" d="M0.101562 0V48H48.1016V0H0.101562ZM22.8828 4.95703C23.133 4.94683 23.3865 4.9583 23.6406 4.99609C25.7311 5.2977 27.2891 7.08888 27.2891 9.19336C27.2891 11.1897 25.8755 12.9169 23.9023 13.332C23.1952 13.4805 22.8117 13.4801 22.125 13.3301V13.332C20.6998 13.0224 19.4402 11.8661 19.0098 10.4727C18.7836 9.74012 18.7827 8.65069 19.0078 7.92188C19.5371 6.20823 21.1311 5.02846 22.8828 4.95703ZM23.0469 14.1992V14.2012C24.9093 14.1993 26.7694 14.244 27.1094 14.334C28.2174 14.6288 29.135 15.3581 29.9512 16.5957C30.3529 17.2048 32.8086 22.0589 32.8086 22.2441C33.3887 23.4033 34.6692 25.613 34.5449 26.7129C34.4478 27.5716 33.4137 28.5699 32.0957 28.0293C31.8809 27.9413 31.74 27.683 31.543 27.4551C31.422 27.3228 30.424 25.4697 29.3262 23.3359L27.3301 19.4551L27.2891 30.6152C27.2489 41.3589 27.2413 41.7814 27.0898 42.0195C26.3577 43.1691 24.9529 43.393 24.0938 42.4961C23.4895 41.8652 23.5254 42.2888 23.5254 35.832V30.9746C24.0894 30.9153 24.6125 30.6478 24.9922 30.2266C25.3719 29.8054 25.5812 29.2605 25.582 28.6934C25.582 28.0843 25.341 27.4992 24.9102 27.0684C24.4795 26.6377 23.8944 26.3965 23.2852 26.3965C22.676 26.3965 22.0928 26.6377 21.6621 27.0684C21.2313 27.4992 20.9883 28.0843 20.9883 28.6934C20.9885 29.1838 21.1465 29.66 21.4375 30.0547C21.7285 30.4493 22.1371 30.7416 22.6055 30.8867V35.7891C22.6055 42.0322 22.6213 41.8141 22.1484 42.375C21.7322 42.8688 20.9115 43.1413 20.3066 42.9863V42.9883C19.6976 42.8325 19.1991 42.415 18.9727 41.873C18.8577 41.5971 18.8418 40.3136 18.8418 30.5059C18.8418 29.4783 18.8375 28.8446 18.8359 27.9082C18.9215 27.9211 19 27.9476 19.0996 27.9551C19.9196 28.0269 20.9494 27.386 21.2559 26.6133C21.3034 26.4935 21.3588 26.2055 21.3789 25.9727C21.4445 25.2167 21.1585 24.7351 18.8105 22.0137C18.7986 20.7278 18.7854 19.5084 18.7695 19.5273C18.7496 19.5492 18.1121 20.7829 17.7363 21.502C20.7487 24.9556 20.9119 25.1863 20.8496 25.9043C20.8334 26.0927 20.7885 26.327 20.75 26.4238C20.5018 27.0493 19.6678 27.568 19.0039 27.5098C18.2131 27.4404 18.3425 27.563 14.1484 22.9395C14.0933 22.8787 14.0742 22.8593 14.0176 22.7969C14.0214 22.7932 14.0271 22.788 14.0312 22.7852C13.5922 22.266 13.4214 21.6103 14.127 20.4961C15.0148 18.6872 15.9493 16.897 16.2031 16.5156C16.9829 15.3435 17.9072 14.6168 18.9707 14.3398C19.3203 14.2487 21.1845 14.2009 23.0469 14.1992ZM23.2852 26.834C23.5294 26.834 23.7705 26.8812 23.9961 26.9746C24.2217 27.0681 24.4269 27.2063 24.5996 27.3789C24.7722 27.5516 24.9105 27.7568 25.0039 27.9824C25.0974 28.2079 25.1445 28.4492 25.1445 28.6934C25.1445 28.9376 25.0974 29.1788 25.0039 29.4043C24.9105 29.6299 24.7722 29.8351 24.5996 30.0078C24.4269 30.1804 24.2217 30.3168 23.9961 30.4102C23.7705 30.5037 23.5294 30.5527 23.2852 30.5527C22.7921 30.5527 22.3194 30.3565 21.9707 30.0078C21.622 29.6591 21.4258 29.1865 21.4258 28.6934C21.4258 28.2003 21.622 27.7276 21.9707 27.3789C22.3194 27.0302 22.7921 26.834 23.2852 26.834ZM23.2852 27.3965C22.9415 27.3968 22.6119 27.5322 22.3691 27.7754C22.1262 28.0186 21.9899 28.3497 21.9902 28.6934C21.9904 29.0368 22.1264 29.3646 22.3691 29.6074C22.6119 29.8502 22.9419 29.9881 23.2852 29.9883C23.4554 29.9885 23.624 29.9537 23.7812 29.8887C23.9385 29.8237 24.0808 29.7296 24.2012 29.6094C24.3217 29.4891 24.4171 29.3466 24.4824 29.1895C24.5476 29.0323 24.5819 28.8636 24.582 28.6934C24.5821 28.5231 24.5496 28.3547 24.4844 28.1973C24.4193 28.0399 24.3236 27.8958 24.2031 27.7754C24.0827 27.6549 23.9387 27.5592 23.7812 27.4941C23.6238 27.429 23.4556 27.3964 23.2852 27.3965Z" fill="#333333"/>
</g>
<defs>
<clipPath id="clip0">
<rect width="48" height="48" fill="white"/>
</clipPath>
</defs>
</svg>
