<svg width="48" height="48" viewBox="0 0 48 48" fill="none" xmlns="http://www.w3.org/2000/svg">
<path d="M28.0001 8C28.0001 10.2091 26.2093 12 24.0001 12C21.791 12 20.0001 10.2091 20.0001 8C20.0001 5.79086 21.791 4 24.0001 4C26.2093 4 28.0001 5.79086 28.0001 8Z" fill="#333333"/>
<path fill-rule="evenodd" clip-rule="evenodd" d="M14.8257 15.0773C15.1699 14.4153 15.854 14 16.6001 14H29.0185C31.1406 14 32.9103 14.7416 34.1537 16.0013C35.3755 17.239 35.9844 18.8719 35.9998 20.4808C36.0153 22.0911 35.4361 23.7407 34.2069 24.9941C33.153 26.0688 31.7151 26.7579 30.0001 26.9471V42C30.0001 43.0747 29.1508 43.9573 28.0769 43.9985C27.003 44.0398 26.0884 43.2249 26.006 42.1534L25.1355 30.8366C26.7916 30.3472 28.0001 28.8147 28.0001 27C28.0001 24.7909 26.2093 23 24.0001 23C23.4176 23 22.8643 23.1245 22.3651 23.3483C22.1698 22.7726 21.8001 22.2301 21.2515 21.7625C20.2487 20.9077 19.3692 20.1845 18.7401 19.6747C18.426 19.4201 18.1741 19.2186 18.0001 19.0802V18H17.8144L16.6466 20.2457L16.4948 20.4396L16.5108 20.4521L16.5603 20.4911C16.6042 20.5258 16.6696 20.5775 16.7544 20.6449C16.924 20.7798 17.1714 20.9777 17.4809 21.2285C18.0999 21.7302 18.9663 22.4426 19.9541 23.2846C20.4597 23.7156 20.5621 24.1367 20.522 24.4839C20.4768 24.8756 20.2289 25.3225 19.7769 25.6823C19.0483 26.2623 17.9385 26.5037 16.8689 25.8563L12.7507 22.5617C12.005 21.9652 11.7851 20.9246 12.2257 20.0773L14.8257 15.0773ZM20.0849 27.8229C19.4523 28.1137 18.7381 28.2693 18.0001 28.2381V42C18.0001 43.0747 18.8495 43.9573 19.9234 43.9985C20.9973 44.0398 21.9118 43.2249 21.9942 42.1534L22.8648 30.8366C21.466 30.4233 20.3866 29.2659 20.0849 27.8229ZM24.0001 29C25.1047 29 26.0001 28.1046 26.0001 27C26.0001 25.8954 25.1047 25 24.0001 25C22.8956 25 22.0001 25.8954 22.0001 27C22.0001 28.1046 22.8956 29 24.0001 29ZM30.0001 18.1075V22.8998C30.6411 22.7569 31.0699 22.4801 31.3511 22.1934C31.7768 21.7593 32.0062 21.1589 32 20.5192C31.9938 19.8781 31.7509 19.261 31.307 18.8112C31.0204 18.5209 30.6011 18.251 30.0001 18.1075Z" fill="#333333"/>
</svg>
