<svg width="48" height="48" viewBox="0 0 48 48" fill="none" xmlns="http://www.w3.org/2000/svg">
<path d="M22.7812 4.95707C21.0295 5.0285 19.4355 6.20818 18.9062 7.92182C18.6811 8.65063 18.682 9.74006 18.9082 10.4726C19.3386 11.866 20.5982 13.0225 22.0234 13.3321V13.3301C22.7101 13.4801 23.0937 13.4806 23.8008 13.3321C25.774 12.917 27.1875 11.1897 27.1875 9.19335C27.1875 7.08887 25.6296 5.29766 23.5391 4.99605C23.285 4.95826 23.0314 4.94698 22.7812 4.95718V4.95707ZM22.9453 14.1992C21.0829 14.2009 19.2187 14.2487 18.8691 14.3398C17.8056 14.6168 16.8814 15.3435 16.1016 16.5156C15.8478 16.897 14.9132 18.6872 14.0254 20.4961C13.3198 21.6103 13.4907 22.2659 13.9297 22.7851C13.9255 22.7879 13.9199 22.7927 13.9161 22.7964C13.9727 22.8588 13.9918 22.8782 14.0469 22.939C18.241 27.5625 18.1116 27.4399 18.9024 27.5093C19.5663 27.5675 20.4003 27.0488 20.6485 26.4233C20.687 26.3265 20.7319 26.0922 20.7481 25.9038C20.8104 25.1858 20.6472 24.9551 17.6348 21.5015C18.0106 20.7824 18.6481 19.5487 18.668 19.5268C18.6839 19.5079 18.6971 20.7273 18.709 22.0132C21.057 24.7346 21.343 25.2162 21.2774 25.9722C21.2573 26.205 21.2018 26.493 21.1543 26.6128C20.8478 27.3855 19.8181 28.0263 18.9981 27.9545C18.8985 27.947 18.82 27.9206 18.7344 27.9077C18.736 28.8441 18.7404 29.4777 18.7404 30.5053C18.7404 40.313 18.7563 41.5966 18.8713 41.8725C19.0977 42.4145 19.5963 42.832 20.2053 42.9878V42.9858C20.8102 43.1408 21.6309 42.8683 22.0471 42.3745C22.52 41.8136 22.5041 42.0317 22.5041 35.7886V30.8862C22.0357 30.7411 21.6261 30.4499 21.3351 30.0553C21.0441 29.6606 20.8871 29.1832 20.8869 28.6928C20.8869 28.0837 21.1289 27.4995 21.5597 27.0687C21.9904 26.638 22.5746 26.3959 23.1838 26.3959C23.793 26.3959 24.3772 26.638 24.8079 27.0687C25.2387 27.4995 25.4807 28.0837 25.4807 28.6928C25.4799 29.2599 25.2695 29.8066 24.8898 30.2278C24.5101 30.649 23.988 30.9148 23.424 30.9741V35.8315C23.424 42.2883 23.3881 41.8647 23.9924 42.4956C24.8516 43.3925 26.2564 43.1686 26.9885 42.019C27.14 41.7809 27.1475 41.3584 27.1877 30.6147L27.2287 19.4545L29.2248 23.3354C30.3226 25.4692 31.3206 27.3222 31.4416 27.4545C31.6386 27.6824 31.7795 27.9408 31.9943 28.0288C33.3123 28.5694 34.3465 27.5711 34.4436 26.7124C34.5679 25.6125 33.2873 23.4028 32.7072 22.2436C32.7072 22.0584 30.2515 17.2043 29.8498 16.5952C29.0336 15.3576 28.116 14.6283 27.008 14.3335C26.668 14.2435 24.8079 14.1989 22.9455 14.2008L22.9453 14.1992ZM23.1836 26.834C22.6905 26.834 22.2175 27.0298 21.8688 27.3785C21.5201 27.7272 21.3242 28.2002 21.3242 28.6933C21.3242 29.1864 21.5201 29.6594 21.8688 30.0081C22.2175 30.3568 22.6905 30.5527 23.1836 30.5527C23.4278 30.5527 23.6696 30.5047 23.8952 30.4112C24.1208 30.3178 24.3257 30.1807 24.4984 30.0081C24.671 29.8354 24.808 29.6304 24.9014 29.4048C24.9949 29.1793 25.043 28.9375 25.043 28.6933C25.043 28.4491 24.9949 28.2073 24.9014 27.9818C24.808 27.7562 24.671 27.5512 24.4984 27.3785C24.3257 27.2059 24.1208 27.069 23.8952 26.9755C23.6696 26.8821 23.4278 26.834 23.1836 26.834ZM23.1836 27.3965C23.354 27.3964 23.5227 27.4298 23.6801 27.4949C23.8375 27.56 23.9805 27.6555 24.1009 27.776C24.2214 27.8964 24.3169 28.0395 24.382 28.1969C24.4472 28.3543 24.4806 28.523 24.4805 28.6933C24.4804 28.8635 24.4467 29.032 24.3815 29.1892C24.3162 29.3463 24.2207 29.4891 24.1002 29.6094C23.9798 29.7296 23.8369 29.825 23.6796 29.89C23.5223 29.955 23.3538 29.9884 23.1836 29.9882C22.8403 29.988 22.511 29.8515 22.2682 29.6087C22.0255 29.3659 21.8889 29.0367 21.8887 28.6933C21.8884 28.3496 22.0247 28.0199 22.2676 27.7767C22.5104 27.5335 22.8399 27.3968 23.1836 27.3965Z" fill="#333333"/>
</svg>
