<svg width="48" height="48" viewBox="0 0 48 48" fill="none" xmlns="http://www.w3.org/2000/svg">
<path d="M24 7.63086L7.48434 14.2148L7.18746 14.8574L7.17965 14.875L4.45504 20.6152C4.39566 20.7404 4.44906 20.8879 4.57418 20.9473C4.69931 21.0066 4.84682 20.9552 4.90621 20.8301L7.71286 14.916V32.9551L24 39.4844L40.2871 32.9551V22.1191L27.4101 27.8828L27.4043 27.8691L27.3984 27.8594L24.1953 21.1094L24.1992 21.1074L24 20.6875L8.34371 14.4102L24 8.16992L39.6562 14.4102L24.4648 20.502L27.6562 27.2246L27.6601 27.2324L27.6562 27.2344L27.6621 27.2461L43.2363 20.3242L40.5859 14.7812L40.2871 14.1582L40.3222 14.1367L24 7.63086ZM10.3515 20.9453C10.406 20.9459 10.466 20.9591 10.5293 20.9863L21.2578 25.6133C21.5109 25.7224 21.7154 26.0131 21.7168 26.2656L21.75 31.9863C21.7514 32.2387 21.5479 32.3552 21.2949 32.2461L10.5664 27.6191C10.3133 27.51 10.1089 27.2193 10.1074 26.9668L10.0742 21.2461C10.0731 21.0568 10.188 20.9437 10.3515 20.9453ZM11.9082 22.9785C11.8552 23.0101 11.8286 23.0698 11.83 23.1406C11.8314 23.2113 11.8609 23.2923 11.916 23.3691L12.4589 24.1289C12.569 24.2824 12.7435 24.3543 12.8496 24.291C12.9556 24.2277 12.9523 24.0541 12.8418 23.9004L12.2968 23.1406C12.1867 22.9871 12.0142 22.9152 11.9082 22.9785ZM15.8925 23.4805C15.8762 23.4744 15.8644 23.4844 15.8632 23.5C15.8632 23.5182 15.8781 23.5392 15.8964 23.5469C15.9144 23.5546 15.928 23.5474 15.9277 23.5293C15.9275 23.5114 15.9141 23.4902 15.8964 23.4824C15.8951 23.4818 15.8938 23.481 15.8925 23.4805ZM13.1933 23.5332C13.1403 23.5649 13.1138 23.6246 13.1152 23.6953H13.1172C13.1186 23.7661 13.148 23.849 13.2031 23.9258L13.7461 24.6836C13.8561 24.8371 14.0307 24.909 14.1367 24.8457C14.2421 24.7821 14.2374 24.6088 14.1269 24.4551L13.5839 23.6953C13.4738 23.5418 13.2993 23.4699 13.1933 23.5332ZM15.8925 23.6445C15.8754 23.6381 15.8632 23.647 15.8632 23.6641C15.8632 23.6823 15.8782 23.7031 15.8964 23.7109C15.9144 23.7185 15.93 23.7095 15.9297 23.6914C15.9295 23.6736 15.9141 23.6543 15.8964 23.6465L15.8945 23.6445H15.8925ZM15.8945 23.8066C15.8781 23.8006 15.8663 23.8106 15.8652 23.8262C15.8652 23.8444 15.8802 23.8673 15.8984 23.875C15.9165 23.8826 15.9301 23.8737 15.9297 23.8555C15.9295 23.8377 15.9141 23.8164 15.8964 23.8086H15.8945V23.8066ZM15.8925 23.9707C15.8775 23.9667 15.868 23.9756 15.8672 23.9902C15.8672 24.0084 15.8821 24.0294 15.9004 24.0371C15.9185 24.0448 15.9319 24.0376 15.9316 24.0195C15.9314 24.0016 15.9162 23.9805 15.8984 23.9727C15.8959 23.9714 15.8951 23.9716 15.8925 23.9707ZM15.8945 24.1328C15.8786 24.1286 15.867 24.1382 15.8672 24.1543C15.8676 24.1724 15.8822 24.1935 15.9004 24.2012C15.9183 24.2087 15.9316 24.1993 15.9316 24.1816C15.9314 24.1637 15.9182 24.1445 15.9004 24.1367C15.8979 24.1355 15.897 24.1337 15.8945 24.1328ZM15.9004 24.2988C15.8821 24.2907 15.867 24.2981 15.8672 24.3164C15.8676 24.3345 15.8823 24.3557 15.9004 24.3633C15.9182 24.3708 15.9315 24.3634 15.9316 24.3457C15.9317 24.3277 15.9185 24.3068 15.9004 24.2988ZM11.916 24.4551C11.863 24.4868 11.8365 24.5465 11.8379 24.6172C11.8393 24.688 11.8686 24.7689 11.9238 24.8457L12.4668 25.6035C12.5768 25.757 12.7514 25.8309 12.8574 25.7676C12.9634 25.7043 12.9601 25.5287 12.8496 25.375L12.3066 24.6172C12.1964 24.4637 12.022 24.3918 11.916 24.4551ZM15.8984 24.4609C15.8819 24.4548 15.87 24.4646 15.8691 24.4805C15.8694 24.4987 15.8841 24.5197 15.9023 24.5273C15.9201 24.5348 15.9336 24.5256 15.9336 24.5078C15.9336 24.4899 15.9184 24.4688 15.9004 24.4609H15.8984ZM15.8984 24.623C15.8812 24.6166 15.8688 24.6251 15.8691 24.6426V24.6445C15.8694 24.6626 15.8842 24.6819 15.9023 24.6895C15.9201 24.6971 15.9336 24.6896 15.9336 24.6719C15.9336 24.6539 15.9204 24.6329 15.9023 24.625C15.9011 24.6244 15.8997 24.6235 15.8984 24.623ZM15.9004 24.7871C15.8833 24.7807 15.8691 24.7895 15.8691 24.8066C15.8691 24.8248 15.884 24.8458 15.9023 24.8535C15.9203 24.8611 15.9358 24.8521 15.9355 24.834C15.9353 24.8162 15.9201 24.7969 15.9023 24.7891L15.9004 24.7871ZM15.9004 24.9512C15.8833 24.9449 15.8711 24.9517 15.8711 24.9688C15.8711 24.9869 15.8861 25.0099 15.9043 25.0176C15.9223 25.0252 15.9358 25.0161 15.9355 24.998C15.9353 24.9801 15.922 24.959 15.9043 24.9512C15.903 24.9506 15.9017 24.9517 15.9004 24.9512ZM13.2011 25.0098C13.1481 25.0414 13.1236 25.1011 13.125 25.1719C13.1264 25.2427 13.1558 25.3236 13.2109 25.4004L13.7539 26.1602C13.864 26.3137 14.0385 26.3856 14.1445 26.3223C14.2499 26.2587 14.2452 26.0834 14.1347 25.9297L13.5918 25.1719C13.4816 25.0184 13.3071 24.9464 13.2011 25.0098ZM15.9023 25.1133C15.8851 25.107 15.8711 25.1157 15.8711 25.1328C15.8711 25.151 15.8861 25.172 15.9043 25.1797C15.9224 25.1873 15.9379 25.1802 15.9375 25.1621C15.9373 25.1442 15.922 25.123 15.9043 25.1152L15.9023 25.1133ZM15.9004 25.2754C15.8846 25.2712 15.8728 25.2809 15.873 25.2969C15.873 25.3151 15.8879 25.3361 15.9062 25.3438C15.9243 25.3514 15.9397 25.3423 15.9394 25.3242C15.9392 25.3063 15.924 25.2871 15.9062 25.2793C15.9037 25.2781 15.903 25.2763 15.9004 25.2754ZM15.9062 25.4414C15.888 25.4334 15.8728 25.4407 15.873 25.459C15.8734 25.4771 15.8881 25.4983 15.9062 25.5059C15.924 25.5134 15.9393 25.506 15.9394 25.4883C15.9394 25.4703 15.9244 25.4494 15.9062 25.4414ZM15.9043 25.6035C15.8877 25.5974 15.8758 25.6072 15.875 25.623C15.8753 25.6412 15.89 25.6623 15.9082 25.6699C15.9259 25.6774 15.9394 25.6681 15.9394 25.6504C15.9394 25.6324 15.9262 25.6114 15.9082 25.6035C15.9069 25.6029 15.9055 25.604 15.9043 25.6035ZM15.9043 25.7656C15.887 25.7592 15.8747 25.7677 15.875 25.7852V25.7871C15.8753 25.8052 15.89 25.8244 15.9082 25.832C15.926 25.8396 15.9414 25.8322 15.9414 25.8145C15.9414 25.7965 15.9262 25.7755 15.9082 25.7676L15.9062 25.7656H15.9043ZM11.9238 25.9297C11.8708 25.9614 11.8443 26.0211 11.8457 26.0918C11.8471 26.1626 11.8765 26.2455 11.9316 26.3223L12.4746 27.0801C12.5847 27.2336 12.7592 27.3055 12.8652 27.2422C12.9713 27.1789 12.9679 27.0052 12.8574 26.8516L12.3144 26.0938C12.2042 25.9401 12.0298 25.8664 11.9238 25.9297ZM15.9062 25.9297C15.8898 25.9236 15.8778 25.9333 15.8769 25.9492C15.8772 25.9673 15.892 25.9884 15.9101 25.9961C15.9279 26.0036 15.9414 25.9962 15.9414 25.9785C15.9414 25.9605 15.9282 25.9396 15.9101 25.9316C15.9089 25.9311 15.9075 25.9302 15.9062 25.9297ZM15.9062 26.0938C15.8891 26.0875 15.8769 26.0941 15.8769 26.1113V26.1133C15.8769 26.1314 15.8918 26.1525 15.9101 26.1602C15.9281 26.1678 15.9436 26.1587 15.9433 26.1406C15.9431 26.1227 15.9279 26.1015 15.9101 26.0938H15.9082H15.9062ZM15.9082 26.2559C15.8918 26.2497 15.88 26.2598 15.8789 26.2754C15.8789 26.2936 15.8939 26.3146 15.9121 26.3223C15.9301 26.3299 15.9436 26.3228 15.9433 26.3047C15.9431 26.2868 15.9278 26.2656 15.9101 26.2578L15.9082 26.2559ZM15.9082 26.4199C15.891 26.4135 15.8789 26.4224 15.8789 26.4395C15.8789 26.4577 15.8939 26.4786 15.9121 26.4863C15.9302 26.494 15.9457 26.4849 15.9453 26.4668C15.9451 26.449 15.9298 26.4297 15.9121 26.4219L15.9101 26.4199H15.9082ZM13.2089 26.4844C13.1559 26.516 13.1314 26.5757 13.1328 26.6465C13.1342 26.7172 13.1636 26.8002 13.2187 26.877L13.7617 27.6348C13.8717 27.7883 14.0463 27.8622 14.1523 27.7988C14.2577 27.7353 14.255 27.5599 14.1445 27.4062L13.5996 26.6484C13.4894 26.4949 13.3149 26.421 13.2089 26.4844ZM15.9082 26.582C15.8924 26.5778 15.8806 26.5875 15.8808 26.6035C15.8808 26.6217 15.8957 26.6427 15.914 26.6504C15.9321 26.658 15.9456 26.649 15.9453 26.6309C15.945 26.6131 15.9318 26.5918 15.914 26.584C15.9115 26.5828 15.9108 26.583 15.9082 26.582ZM15.9082 26.7461C15.893 26.7421 15.8836 26.751 15.8828 26.7656C15.8832 26.7837 15.8978 26.8049 15.916 26.8125C15.9339 26.8201 15.9472 26.8127 15.9472 26.7949C15.947 26.7771 15.9318 26.7558 15.914 26.748C15.9115 26.7467 15.9107 26.747 15.9082 26.7461ZM15.9121 26.9082C15.8955 26.9021 15.8835 26.9137 15.8828 26.9297C15.8831 26.9478 15.8978 26.969 15.916 26.9766C15.9337 26.9842 15.9472 26.9747 15.9472 26.957C15.9472 26.939 15.932 26.9181 15.914 26.9102H15.9121V26.9082ZM18.4609 27.0508C18.3758 27.0503 18.2992 27.0686 18.2343 27.1074C18.1693 27.1463 18.1188 27.2049 18.0839 27.2773C18.0491 27.3496 18.0307 27.4345 18.0312 27.5293C18.0317 27.6241 18.0501 27.7273 18.0859 27.8301C18.1218 27.933 18.1745 28.0337 18.2402 28.1289C18.3058 28.2241 18.3832 28.3117 18.4687 28.3848C18.5542 28.4578 18.6458 28.5149 18.7382 28.5547C18.9246 28.635 19.1033 28.6371 19.2343 28.5586C19.3654 28.48 19.4386 28.3281 19.4375 28.1367C19.4365 27.9454 19.3611 27.7293 19.2285 27.5371C19.096 27.3449 18.9168 27.1918 18.7304 27.1113C18.638 27.0714 18.5461 27.0513 18.4609 27.0508ZM15.9121 27.0723C15.8948 27.0659 15.8825 27.0743 15.8828 27.0918C15.8831 27.1099 15.8978 27.131 15.916 27.1387C15.9338 27.1462 15.9472 27.1389 15.9472 27.1211C15.9472 27.1031 15.934 27.0821 15.916 27.0742L15.914 27.0723H15.9121ZM15.914 27.2363C15.8968 27.2299 15.8825 27.2385 15.8828 27.2559C15.8831 27.2741 15.8979 27.295 15.916 27.3027C15.9338 27.3102 15.9492 27.301 15.9492 27.2832C15.9492 27.2653 15.9341 27.2442 15.916 27.2363H15.914ZM15.914 27.3984C15.8969 27.392 15.8847 27.4009 15.8847 27.418C15.8847 27.4362 15.8996 27.4571 15.9179 27.4648C15.9359 27.4724 15.9495 27.4654 15.9492 27.4473C15.949 27.4294 15.9357 27.4082 15.9179 27.4004C15.9167 27.3998 15.9153 27.3989 15.914 27.3984ZM15.916 27.5625C15.8989 27.5561 15.8847 27.5649 15.8847 27.582C15.8847 27.6002 15.8997 27.6212 15.9179 27.6289C15.9359 27.6366 15.9514 27.6275 15.9511 27.6094C15.9509 27.5916 15.9356 27.5723 15.9179 27.5645L15.916 27.5625ZM15.916 27.7266C15.8996 27.7206 15.8879 27.7287 15.8867 27.7441C15.8867 27.7623 15.9017 27.7853 15.9199 27.793C15.938 27.8006 15.9515 27.7915 15.9511 27.7734C15.9509 27.7556 15.9376 27.7344 15.9199 27.7266C15.9186 27.726 15.9173 27.7271 15.916 27.7266ZM15.914 27.8887C15.8982 27.8845 15.8884 27.8921 15.8886 27.9082C15.8889 27.9263 15.9036 27.9475 15.9218 27.9551C15.9397 27.9627 15.9531 27.9553 15.9531 27.9375C15.9528 27.9197 15.9396 27.8984 15.9218 27.8906C15.9193 27.8893 15.9166 27.8896 15.914 27.8887ZM15.9218 28.0527C15.9036 28.0446 15.8884 28.054 15.8886 28.0723C15.889 28.0905 15.9037 28.1114 15.9218 28.1191C15.9396 28.1266 15.953 28.1173 15.9531 28.0996C15.9531 28.0817 15.94 28.0606 15.9218 28.0527ZM15.9179 28.2148C15.9006 28.2084 15.8882 28.2169 15.8886 28.2344C15.8889 28.2525 15.9036 28.2736 15.9218 28.2812C15.9395 28.2887 15.955 28.2815 15.955 28.2637C15.955 28.2458 15.9398 28.2247 15.9218 28.2168L15.9199 28.2148H15.9179ZM15.9199 28.3789C15.9034 28.3728 15.8914 28.3826 15.8906 28.3984C15.8909 28.4166 15.9056 28.4376 15.9238 28.4453C15.9416 28.4528 15.955 28.4436 15.955 28.4258C15.955 28.4079 15.9418 28.3868 15.9238 28.3789C15.9226 28.3783 15.9211 28.3794 15.9199 28.3789ZM15.9199 28.541C15.9027 28.5346 15.8903 28.543 15.8906 28.5605V28.5625C15.8909 28.5806 15.9056 28.5998 15.9238 28.6074C15.9416 28.6149 15.957 28.6075 15.957 28.5898C15.957 28.5718 15.9419 28.5509 15.9238 28.543H15.9218L15.9199 28.541ZM15.9218 28.7051C15.9055 28.699 15.8937 28.709 15.8925 28.7246C15.8925 28.7428 15.9074 28.7637 15.9257 28.7715C15.9437 28.7791 15.9573 28.7701 15.957 28.752C15.9568 28.7342 15.9416 28.7148 15.9238 28.707L15.9218 28.7051ZM15.9218 28.8691C15.9047 28.8628 15.8925 28.8696 15.8925 28.8867V28.8887C15.8925 28.9069 15.9074 28.9278 15.9257 28.9355C15.9437 28.9431 15.9592 28.9341 15.9589 28.916C15.9587 28.8982 15.9434 28.8769 15.9257 28.8691H15.9238H15.9218ZM15.9218 29.0312C15.906 29.0271 15.8943 29.0347 15.8945 29.0508C15.8945 29.069 15.9094 29.0919 15.9277 29.0996C15.9458 29.1073 15.9592 29.0982 15.9589 29.0801C15.9586 29.0622 15.9455 29.041 15.9277 29.0332C15.9252 29.0319 15.9243 29.0322 15.9218 29.0312ZM15.9218 29.1934C15.9067 29.1893 15.8972 29.2001 15.8964 29.2148C15.8967 29.2329 15.9115 29.254 15.9297 29.2617C15.9476 29.2692 15.9609 29.2599 15.9609 29.2422C15.9606 29.2243 15.9455 29.2051 15.9277 29.1973C15.9252 29.1961 15.9244 29.1943 15.9218 29.1934ZM15.9277 29.3594C15.9095 29.3513 15.8943 29.3587 15.8945 29.377C15.8949 29.3951 15.9096 29.4162 15.9277 29.4238C15.9455 29.4313 15.9608 29.424 15.9609 29.4062C15.9609 29.3883 15.9459 29.3674 15.9277 29.3594ZM15.9257 29.5215C15.9084 29.5151 15.896 29.5236 15.8964 29.541C15.8967 29.5592 15.9115 29.5802 15.9297 29.5879C15.9474 29.5954 15.9609 29.5862 15.9609 29.5684C15.9609 29.5505 15.9477 29.5313 15.9297 29.5234L15.9277 29.5215H15.9257ZM15.9277 29.6836C15.9104 29.6772 15.896 29.6876 15.8964 29.7051C15.8967 29.7232 15.9115 29.7444 15.9297 29.752C15.9475 29.7596 15.9629 29.7501 15.9629 29.7324C15.9629 29.7144 15.9477 29.6934 15.9297 29.6855H15.9277V29.6836Z" fill="#333333"/>
</svg>
