<svg width="48" height="48" viewBox="0 0 48 48" fill="none" xmlns="http://www.w3.org/2000/svg">
<path fill-rule="evenodd" clip-rule="evenodd" d="M23.999 4C18.6948 4.00039 13.6079 6.1077 9.85743 9.85834C6.10695 13.609 3.99998 18.6959 4 24C3.99998 29.304 6.10695 34.3909 9.85743 38.1416C13.6079 41.8923 18.6948 43.9996 23.999 44C26.6256 44 29.2264 43.4827 31.653 42.4777C34.0797 41.4727 36.2845 39.9995 38.1418 38.1423C39.9991 36.2852 41.4724 34.0803 42.4776 31.6537C43.4827 29.2272 44.0001 26.6264 44 24C44.0001 21.3735 43.4827 18.7727 42.4776 16.3462C41.4724 13.9196 39.9991 11.7149 38.1418 9.85768C36.2845 8.00049 34.0797 6.52731 31.653 5.52224C29.2264 4.51718 26.6256 3.99992 23.999 4ZM23.999 7.81421C28.2918 7.81448 32.4086 9.51982 35.4439 12.5552C38.4794 15.5906 40.1847 19.7073 40.1848 24C40.1847 28.2926 38.4794 32.4093 35.4439 35.4447C32.4086 38.4801 28.2918 40.1854 23.999 40.1858C21.8733 40.1859 19.7683 39.7673 17.8044 38.954C15.8404 38.1406 14.0559 36.9484 12.5527 35.4455C11.0496 33.9425 9.85712 32.1581 9.04352 30.1943C8.22996 28.2305 7.81118 26.1256 7.81109 24C7.81118 21.8743 8.22996 19.7695 9.04353 17.8056C9.85712 15.8419 11.0496 14.0575 12.5527 12.5546C14.0559 11.0515 15.8404 9.85932 17.8044 9.04596C19.7683 8.23263 21.8733 7.81408 23.999 7.81421ZM23.4974 12.8314C22.7621 12.8314 22.161 13.4064 22.0831 14.1498V23.1031C22.0831 23.3195 21.9514 23.4927 21.7892 23.4927C21.627 23.4927 21.4973 23.3195 21.4973 23.1031V16.211C21.4942 15.3256 20.9806 14.7856 20.2784 14.7856C19.5781 14.7856 18.9628 15.3291 18.9566 16.211V24.062C18.9566 24.2308 18.8269 24.3681 18.6647 24.3681C18.5025 24.3681 18.3708 24.2309 18.3708 24.062V20.7679V19.4987C18.3708 18.7181 17.8464 18.0903 17.1949 18.0903C16.5434 18.0903 16.0191 18.7181 16.0191 19.4987V31.0034C16.0191 31.102 16.0279 31.1974 16.0439 31.2902C16.2656 33.5717 18.1049 35.342 20.3565 35.342H24.4225C25.6531 35.342 26.7592 34.8113 27.5469 33.9594L33.9296 28.0603C34.654 27.3908 34.6482 26.3187 33.9173 25.6567C33.1866 24.9946 32.0167 25.0001 31.2923 25.6695L29.0167 27.7735V15.9821C28.9604 14.8102 28.2213 14.0113 27.3496 13.9914C26.5441 13.9914 25.8716 14.844 25.8716 15.9821V20.5282V23.8437C25.8716 24.0542 25.74 24.2226 25.5777 24.2226C25.4155 24.2226 25.2858 24.0542 25.2858 23.8437V20.3549V14.3147C25.2858 13.4935 24.6499 12.8314 23.8613 12.8314H23.4974Z" fill="#333333"/>
</svg>
