<?xml version="1.0" encoding="UTF-8" standalone="no"?>
<!-- Created with Inkscape (http://www.inkscape.org/) -->
<svg id="svg8" xmlns:rdf="http://www.w3.org/1999/02/22-rdf-syntax-ns#" xmlns="http://www.w3.org/2000/svg" xmlns:osb="http://www.openswatchbook.org/uri/2009/osb" height="48" width="48" version="1.1" xmlns:cc="http://creativecommons.org/ns#" viewBox="0 0 12.7 12.7" xmlns:dc="http://purl.org/dc/elements/1.1/">
 <title id="title4753">UIO-icon</title>
 <metadata id="metadata5">
  <rdf:RDF>
   <cc:Work rdf:about="">
    <dc:format>image/svg+xml</dc:format>
    <dc:type rdf:resource="http://purl.org/dc/dcmitype/StillImage"/>
    <dc:title>UIO-icon</dc:title>
    <dc:creator>
     <cc:Agent>
      <dc:title>Joaquín Urbano</dc:title>
     </cc:Agent>
    </dc:creator>
    <dc:rights>
     <cc:Agent>
      <dc:title>GPL</dc:title>
     </cc:Agent>
    </dc:rights>
   </cc:Work>
  </rdf:RDF>
 </metadata>
 <g id="layer1" transform="translate(0,-284.3)" fill="#333">
  <path id="path902" d="m12.184 4.6641c-1.257 0.68357-1.7306 1.4608-2.1895 2.1875l0.0995 4.8494c0.4636 1.1507 0.8827 2.3502-0.050781 5.0508l-0.009766 1.0684 2.6113-2.0488-0.009766-0.6582c-0.2604-0.008202-0.60257-0.02434-0.60156-0.40039l0.033203-1.873c0.12648-1.0604 0.3945-2.0706 0.35156-3.2598-0.078-1.6391-0.248-3.5802-0.234-4.9161zm16.346 0c-1.2536 0.00061833-2.2695 1.1652-2.2695 2.6016 0.00002987 1.4364 1.016 2.6009 2.2695 2.6016 0.043025-0.0012076 0.086011-0.0038062 0.12891-0.0078125h1.622l0.34375 0.36914-0.003906 0.80859 0.93555 18.27 0.70508-0.52734-0.79297-17.742h1.5078l-0.44922 17.836-0.95508 0.70508c0.08234 4.4521 0.23419 9.3402 0.375 13.758h0.444l-0.127-11.198 0.886-0.42 0.676-20.682 0.01-0.808 0.334-0.3618h1.7598c1.2543 0.00061758 2.2715-1.1643 2.2715-2.6016-0.00003009-1.4373-1.0172-2.6022-2.2715-2.6016-1.2536 0.00061833-2.2695 1.1652-2.2695 2.6016 0.00059628 0.010432 0.001247 0.020818 0.001953 0.03125h-0.001953v2.002l-0.56055 0.62891h-1.738l-0.56-0.6289v-2.0039c0.00004797-0.0097512 0.00004797-0.019546 0-0.029297 0-1.4372-1.017-2.6022-2.272-2.6015zm3.8613 38.672h0.48242l0.26953-11.408-0.62695 0.28125zm-3.862-38.295c1.0725-0.00073058 1.9421 0.9957 1.9414 2.2246-0.00059472 0.0097512-0.001246 0.019546-0.001953 0.029297-0.00076534 0.073092-0.004676 0.1461-0.011719 0.21875v0.0039063c-0.001265 0.0078236-0.002568 0.015652-0.003906 0.023438-0.006273 0.060922-0.014744 0.12152-0.025391 0.18164v0.0039063c-0.00064466 0.0032519-0.001296 0.0065152-0.001953 0.0097656-0.003151 0.013039-0.006407 0.02608-0.009766 0.039062-0.009614 0.049247-0.020688 0.098103-0.033203 0.14648-0.001292 0.0038929-0.002595 0.0078258-0.003906 0.011719-0.008599 0.028876-0.017716 0.057508-0.027344 0.085938-0.014271 0.046809-0.029905 0.093061-0.046875 0.13867-0.024705 0.064607-0.05208 0.12783-0.082031 0.18945-0.001295 0.0032542-0.002597 0.0065152-0.003906 0.0097656-0.010768 0.021052-0.021837 0.041879-0.033203 0.0625-0.001946 0.0032564-0.003899 0.0065152-0.005859 0.0097656-0.018664 0.035792-0.038204 0.07095-0.058594 0.10547-0.001946 0.0032564-0.003899 0.0065152-0.005859 0.0097656-0.013367 0.020447-0.027041 0.040636-0.041016 0.060547-0.022544 0.035301-0.045992 0.06981-0.070312 0.10352-0.002593 0.0039307-0.005197 0.0078258-0.007813 0.011719-0.015335 0.0192-0.030962 0.038076-0.046875 0.056641-0.022174 0.028006-0.044968 0.055359-0.068359 0.082031-0.006467 0.0072189-0.012978 0.014379-0.019531 0.021484-0.040092 0.043691-0.081797 0.085394-0.125 0.125-0.007121 0.0065764-0.014283 0.013068-0.021484 0.019531-0.003248 0.0026192-0.006504 0.0052046-0.009766 0.0078125-0.013546 0.011263-0.027219 0.022394-0.041016 0.033203-0.034978 0.029367-0.070806 0.057373-0.10742 0.083984l-0.001953 0.0019531c-0.002602 0.0013043-0.005206 0.0026288-0.007813 0.0039063-0.003898 0.0026234-0.007805 0.0052046-0.011719 0.0078125-0.047656 0.032995-0.096529 0.06362-0.14648 0.091797l-0.003906 0.0039063c-0.003252 0.0013077-0.006507 0.0026318-0.009766 0.0039063-0.005198 0.002634-0.010407 0.0052424-0.015625 0.0078125-0.049808 0.027855-0.10064 0.053287-0.15234 0.076172l-0.003906 0.0019531c-0.050695 0.021997-0.10217 0.041541-0.1543 0.058594-0.004553 0.0013164-0.009111 0.0026409-0.013672 0.0039063-0.01429 0.0034356-0.028614 0.0067042-0.042969 0.0097656-0.029796 0.0079748-0.059752 0.015135-0.089844 0.021484-0.014284 0.0040819-0.028608 0.0080148-0.042969 0.011719h-0.005859c-0.042118 0.008126-0.084459 0.014618-0.12695 0.019531-0.005206 0.0006754-0.010414 0.0013261-0.015625 0.0019531-0.019504 0.0022919-0.039038 0.0042342-0.058594 0.0058594-0.003905 0.00066482-0.007811 0.0013155-0.011719 0.0019531-0.035769 0.002434-0.07159 0.0037588-0.10742 0.0039063h-0.003906c-1.071-0.0005-1.939-0.9954-1.939-2.2227-0.001-1.228 0.868-2.2241 1.939-2.2246zm7.4004 0c1.0725-0.00073058 1.9421 0.9957 1.9414 2.2246-0.0002651 1.2281-0.86957 2.2234-1.9414 2.2227h-0.003906c-0.062-0.0004-0.126-0.0043-0.189-0.0117h-0.003906c-0.062935-0.0075591-0.12551-0.018652-0.1875-0.033203h-0.003906c-0.028157-0.007748-0.056158-0.016206-0.083984-0.025391-0.034749-0.0093354-0.069268-0.01976-0.10352-0.03125-0.059-0.0214-0.119-0.0462-0.178-0.0743l-0.003906-0.0019531c-0.058-0.0287-0.115-0.0606-0.17-0.0957l-0.004-0.0019c-0.056-0.0347-0.11-0.0725-0.162-0.1133l-0.003906-0.0019531c-0.045026-0.036283-0.088686-0.074714-0.13086-0.11523-0.007202-0.006463-0.014363-0.012955-0.021484-0.019531-0.049016-0.047437-0.095949-0.097628-0.14062-0.15039l-0.001953-0.0019531c-0.013-0.0166-0.026-0.0335-0.039-0.0506-0.03-0.0379-0.06-0.077-0.088-0.1172-0.039-0.0571-0.077-0.1165-0.111-0.1778l-0.002-0.0019c-0.034-0.0614-0.065-0.1246-0.094-0.1895l-0.001953-0.0039063c-0.005-0.0142-0.01-0.0285-0.015-0.0429-0.023-0.0525-0.044-0.1059-0.063-0.1602-0.023-0.0678-0.043-0.1369-0.06-0.207-0.011-0.0446-0.02-0.0896-0.028-0.1348-0.005-0.0285-0.011-0.0572-0.015-0.0859-0.011-0.0718-0.019-0.1442-0.024-0.2168v-0.0039063c-0.002262-0.040316-0.003565-0.080698-0.003906-0.12109-0.00006392-0.010432-0.00006392-0.020818 0-0.03125-0.00067625-1.228 0.86772-2.2241 1.9395-2.2246zm-23.277 11.377-2.627 2.0625-0.005859 0.6582 2.6426-2.0742zm0.019531 1.293-2.6582 2.084-0.005859 0.6582 2.6738-2.0996zm0.017 1.289-2.689 2.111-0.0059 0.655 2.7049-2.123zm0.019531 1.2891-2.7207 2.1348-0.0058594 0.65625 2.7363-2.1465zm0.017578 1.291-2.752 2.1582-0.0058594 0.6582 2.7676-2.1699zm0.017578 1.291-2.7832 2.1855-0.0058594 0.65625 2.7988-2.1953zm0.017578 1.293-2.8125 2.209-0.15039 15.213c0.0089061 2.4962 3.2161 2.1751 3.207-0.11133zm19.648 5.6992c0.35376 0.00010507 0.64052 0.28686 0.64062 0.64062-0.00010516 0.35376-0.28686 0.64052-0.64062 0.64062-0.35453 0.00097512-0.64247-0.2861-0.64258-0.64062 0.00010407-0.35453 0.28805-0.6416 0.64258-0.64062zm-0.023438 0.33203c-0.16182 0.011679-0.28713 0.14636-0.28711 0.30859 0.0004214 0.17102 0.13953 0.30925 0.31055 0.30859 0.17026-0.00042066 0.30817-0.13834 0.30859-0.30859-0.00042027-0.17026-0.13834-0.30817-0.30859-0.30859-0.00781-0.00029594-0.015628-0.00029594-0.023438 0z" transform="matrix(.26458 0 0 .26458 0 284.3)"/>
 </g>
</svg>
