<svg width="48" height="48" viewBox="0 0 48 48" fill="none" xmlns="http://www.w3.org/2000/svg">
<path fill-rule="evenodd" clip-rule="evenodd" d="M24.6622 4.61912C22.7438 4.6441 21.0003 5.87635 20.4551 7.76951C19.7836 10.097 21.1775 12.5451 23.5684 13.2363C25.1742 13.7021 26.9019 13.3635 28.0157 12.3164C27.556 12.2615 26.9553 12.3119 26.4512 12.7344L27.502 9.3574C27.502 9.3574 27.5479 9.22069 27.5626 9.02341C26.6495 6.64732 28.3946 6.10545 28.3946 6.10545C27.2271 4.71022 25.1048 4.61335 24.6622 4.61912ZM24.6114 5.0742C25.0541 5.06843 26.6524 5.07423 27.5994 6.06052C26.7126 6.95579 26.6628 8.18239 27.2364 9.1074C26.6135 10.4936 26.4776 11.5987 25.9532 12.8633C25.4175 12.9885 25.1293 13.2509 23.5235 12.7851C20.9948 11.7662 20.4263 9.27157 21.1524 7.3906C21.0252 7.61086 20.6283 7.44736 20.7422 7.17966C20.7867 7.08519 20.9791 6.92594 21.1368 6.81833C21.1011 6.95846 21.2392 7.21227 21.1582 7.37888C21.6959 5.99888 22.9281 4.9507 24.6114 5.07419V5.0742ZM29.4336 6.02341C29.1484 6.02969 28.8979 6.1138 28.7012 6.17381C27.7749 6.56215 27.3115 7.5265 27.6934 8.50584L31.17 17.4277C32.0455 19.6639 33.1409 19.7132 33.8223 19.5683C34.8196 19.3564 35.6267 18.7131 34.5137 16.0254L31.0391 7.10349C30.4787 6.21684 29.909 6.01294 29.4336 6.02341ZM21.8594 6.44138C21.6499 6.72591 21.4124 7.12023 21.3926 7.31248C21.3573 7.85335 22.1676 7.89799 22.2461 7.42576C22.3025 7.07977 21.8833 6.71279 21.8594 6.44138ZM29.3575 6.47068C30.15 6.41648 30.2822 7.03856 30.6016 7.39256L34.0606 16.0547C34.6832 17.8517 34.8431 18.8173 33.8458 19.0293C33.1644 19.1741 32.4295 19.3717 31.7012 17.4004L28.1719 8.45506C27.79 7.47572 28.0484 6.92738 28.9747 6.53904C29.1173 6.501 29.2442 6.47842 29.3575 6.47068ZM21.2364 7.68943C21.1084 7.86326 20.9614 8.10323 20.9493 8.22068C20.9277 8.55113 21.4247 8.57755 21.4727 8.28904C21.5071 8.07766 21.251 7.85524 21.2364 7.68943ZM33.4844 7.95701C33.1916 7.94934 32.7691 8.0092 32.4278 8.08396C32.7418 8.25834 32.9575 8.95839 33.4043 9.07615C34.0152 9.23488 34.3969 8.23584 33.7266 7.98826C33.6661 7.96844 33.582 7.95957 33.4844 7.95701ZM32.6895 9.15232C32.8239 9.3543 32.7371 9.84159 32.9688 10.0508C33.2862 10.3353 33.8237 9.85436 33.4981 9.49802C33.3773 9.3754 32.9935 9.23351 32.6895 9.15232ZM27.6797 9.16013L26.5821 12.5586C27.0959 12.2286 28.0839 12.0984 28.2735 12.498C28.4667 12.1141 28.1073 12.0046 28.836 12.1465L28.4766 11.1992C28.4743 11.1931 28.4415 11.1089 28.4356 11.0937C28.3279 10.8149 27.6797 9.16013 27.6797 9.16013ZM27.6954 10.2539C27.9259 10.7173 28.0134 10.9444 28.3047 11.8027C27.5761 11.6609 28.4042 11.8172 28.211 12.2011C28.0214 11.8015 27.6272 11.6192 27.1133 11.9492L27.6954 10.2539ZM29.0079 13.4316C28.8951 13.4322 24.0233 13.4574 23.6582 13.4492L19.6602 13.4531C18.4013 13.6173 18.2587 14.0444 17.918 14.5664L13.0625 24.5097C12.5821 25.494 12.9903 26.6739 13.9747 27.1543C14.959 27.6347 16.1368 27.2284 16.6172 26.2441L19.6602 20.0078V41.5566C19.6602 42.6519 20.5395 43.5351 21.6348 43.5351C22.7301 43.5351 23.6114 42.6519 23.6114 41.5566V29.9297H24.5665V41.5566C24.5665 42.6519 25.4476 43.5351 26.543 43.5351C27.6383 43.5351 28.5178 42.6519 28.5196 41.5566L28.5508 19.4277C28.7495 18.9315 29.4057 18.6948 31.1133 19.2265L29.0079 13.4316ZM28.6934 13.9179L30.2872 18.4101C29.6152 18.038 28.3212 18.4359 28.0821 18.8886L28.0528 21.2051L28.0489 41.4316C27.9846 42.3707 27.6051 43.0664 26.5098 43.0664C25.4144 43.0664 25.1622 42.2144 25.1583 41.6816L25.0704 29.4277L23.0997 29.4257L23.0489 41.2753C23.0489 42.3706 22.6676 43.0976 21.5723 43.0976C20.477 43.0976 20.1498 41.9072 20.1504 41.5312L20.1895 19.1152L20.1915 18.039L18.2423 21.9023L16.1114 26.123C15.8654 26.6073 15.2988 27.2127 14.3145 26.7323C13.3302 26.2519 13.0978 25.5721 13.5782 24.5878L18.2618 14.8163C18.5823 14.2324 19.3503 13.9014 19.7754 13.9375L23.6016 13.9531C23.605 13.9528 23.7813 13.9515 23.7989 13.9511C24.235 13.9422 28.6934 13.9179 28.6934 13.9179Z" fill="#333333"/>
</svg>
