<svg width="48" height="48" viewBox="0 0 48 48" fill="none" xmlns="http://www.w3.org/2000/svg">
<g clip-path="url(#clip0)">
<path fill-rule="evenodd" clip-rule="evenodd" d="M0.0410156 0V48H48.041V0H0.0410156ZM24.6621 4.61914C25.1048 4.61338 25.5571 4.67314 26.0059 4.80273C27.1129 5.12131 27.9833 5.82736 28.5566 6.71289C27.8973 7.05288 27.5143 7.73934 27.5449 8.46094C27.5303 8.65821 27.5527 8.86289 27.627 9.06055L26.4512 12.7344C26.9553 12.3119 27.556 12.2615 28.0156 12.3164C26.9018 13.3635 25.1742 13.7021 23.5684 13.2363C21.1774 12.5451 19.7835 10.0971 20.4551 7.76953C21.0002 5.87637 22.7438 4.64413 24.6621 4.61914ZM21.8594 6.44141C21.6499 6.72593 21.4124 7.12025 21.3926 7.3125C21.3573 7.85338 22.1676 7.89802 22.2461 7.42578C22.3024 7.07979 21.8833 6.71281 21.8594 6.44141ZM29.6035 6.58203C30.3319 6.60556 31.0086 7.05605 31.2871 7.78125L35.0234 17.5156C35.3948 18.4826 34.9161 19.5603 33.9492 19.9316C32.9823 20.303 31.9045 19.8224 31.5332 18.8555L27.7949 9.12109C27.4236 8.15416 27.9042 7.07836 28.8711 6.70703C29.1128 6.6142 29.3607 6.57419 29.6035 6.58203ZM21.1367 6.81836C20.9791 6.92597 20.7866 7.08522 20.7422 7.17969C20.6275 7.44911 21.0318 7.61538 21.1562 7.38867C21.2468 7.22235 21.1004 6.96099 21.1367 6.81836ZM21.2363 7.68945C21.1083 7.86329 20.9613 8.10325 20.9492 8.2207C20.9276 8.55115 21.4247 8.57758 21.4727 8.28906C21.5071 8.07768 21.2509 7.85527 21.2363 7.68945ZM33.4844 7.95703C33.582 7.95959 33.666 7.96846 33.7266 7.98828C34.3969 8.23587 34.0151 9.2349 33.4043 9.07617C32.9574 8.95841 32.7417 8.25836 32.4277 8.08398C32.769 8.00922 33.1915 7.94936 33.4844 7.95703ZM32.6895 9.15234C32.9935 9.23353 33.3773 9.37542 33.498 9.49805C33.8236 9.85438 33.2862 10.3354 32.9688 10.0508C32.737 9.84161 32.8239 9.35432 32.6895 9.15234ZM27.6797 9.16016C27.6797 9.16016 28.3278 10.8149 28.4355 11.0938C28.4414 11.1089 28.4743 11.1931 28.4766 11.1992L28.8359 12.1465C28.1073 12.0047 28.4667 12.1141 28.2734 12.498C28.0839 12.0984 27.0959 12.2286 26.582 12.5586L27.6797 9.16016ZM23.8301 13.9062H28.6934V13.918C29.0152 13.9221 29.3249 14.0149 29.6055 14.166L31.3984 18.873C31.5875 19.3695 31.9607 19.7346 32.4082 19.9277C30.9774 19.96 28.7203 19.387 28.6914 20.4512V42.0137C28.6914 43.109 27.8101 43.9922 26.7148 43.9922C25.6194 43.9922 24.7383 43.109 24.7383 42.0137V30.3867H23.7832V42.0137C23.7832 43.109 22.9019 43.9922 21.8066 43.9922C20.7113 43.9922 19.832 43.109 19.832 42.0137V20.4648L16.7891 26.7012C16.3087 27.6855 15.1308 28.0917 14.1465 27.6113C13.1621 27.1309 12.754 25.9511 13.2344 24.9668L18.0898 15.0234C18.4277 14.3309 19.1135 13.935 19.832 13.9199V13.9102L23.8301 13.9062Z" fill="#333333"/>
</g>
<defs>
<clipPath id="clip0">
<rect width="48" height="48" fill="white"/>
</clipPath>
</defs>
</svg>
