<svg width="48" height="48" viewBox="0 0 48 48" fill="none" xmlns="http://www.w3.org/2000/svg">
<path fill-rule="evenodd" clip-rule="evenodd" d="M24.6617 4.61903C22.7433 4.64402 20.9998 5.87626 20.4546 7.76942C19.7831 10.0969 21.177 12.545 23.5679 13.2362C25.1737 13.702 26.9014 13.3634 28.0152 12.3163C27.5555 12.2614 26.9549 12.3118 26.4507 12.7343L27.6265 9.06044C27.5523 8.86278 27.5299 8.65811 27.5445 8.46083C27.5139 7.73924 27.8969 7.05277 28.5562 6.71278C27.9829 5.82725 27.1125 5.1212 26.0054 4.80263C25.5567 4.67303 25.1044 4.61327 24.6617 4.61903ZM21.8589 6.4413C21.8828 6.7127 22.302 7.07969 22.2457 7.42567C22.1671 7.89791 21.3568 7.85327 21.3921 7.31239C21.4119 7.12014 21.6494 6.72583 21.8589 6.4413ZM29.6031 6.58192C29.3603 6.57408 29.1124 6.61409 28.8707 6.70692C27.9037 7.07825 27.4232 8.15405 27.7945 9.12099L31.5328 18.8554C31.9041 19.8223 32.9818 20.3029 33.9488 19.9315C34.9157 19.5602 35.3943 18.4824 35.023 17.5155L31.2867 7.78114C31.0082 7.05594 30.3314 6.60545 29.6031 6.58192ZM21.1363 6.81825C21.1 6.96089 21.2464 7.22225 21.1558 7.38856C21.0314 7.61527 20.6271 7.449 20.7417 7.17958C20.7862 7.08511 20.9786 6.92586 21.1363 6.81825ZM21.2359 7.68934C21.2505 7.85516 21.5066 8.07757 21.4722 8.28895C21.4242 8.57747 20.9272 8.55104 20.9488 8.22059C20.9609 8.10314 21.1079 7.86318 21.2359 7.68935V7.68934ZM33.4839 7.95692C33.1911 7.94925 32.7686 8.00912 32.4273 8.08388C32.7413 8.25826 32.957 8.9583 33.4039 9.07606C34.0147 9.2348 34.3964 8.23576 33.7261 7.98817C33.6656 7.96835 33.5816 7.95948 33.4839 7.95692ZM32.689 9.15224C32.8234 9.35421 32.7366 9.8415 32.9683 10.0507C33.2857 10.3352 33.8232 9.85427 33.4976 9.49794C33.3768 9.37531 32.993 9.23342 32.689 9.15224ZM27.6792 9.16005L26.5816 12.5585C27.0954 12.2285 28.0834 12.0983 28.273 12.4979C28.4662 12.114 28.1068 12.0045 28.8355 12.1464L28.4761 11.1991C28.4738 11.193 28.441 11.1088 28.4351 11.0936C28.3274 10.8148 27.6792 9.16004 27.6792 9.16004V9.16005ZM23.8296 13.9061L19.8316 13.91V13.9198C19.1131 13.9349 18.4273 14.3309 18.0894 15.0234L13.2339 24.9667C12.7535 25.951 13.1616 27.1308 14.146 27.6112C15.1303 28.0916 16.3082 27.6854 16.7886 26.7011L19.8316 20.4648V42.0136C19.8316 43.1089 20.7109 43.9921 21.8062 43.9921C22.9015 43.9921 23.7828 43.1089 23.7828 42.0136V30.3866H24.7378V42.0136C24.7378 43.1089 25.619 43.9921 26.7144 43.9921C27.8097 43.9921 28.691 43.1089 28.691 42.0136V20.4511C28.7199 19.3869 30.9769 19.9599 32.4078 19.9276C31.9603 19.7345 31.5871 19.3694 31.398 18.8729L29.605 14.1659C29.3244 14.0148 29.0148 13.922 28.6929 13.9179V13.9061H23.8296Z" fill="#333333"/>
</svg>
