<?xml version="1.0" encoding="UTF-8" standalone="no"?>
<!-- Created with Inkscape (http://www.inkscape.org/) -->
<svg id="svg8" xmlns:rdf="http://www.w3.org/1999/02/22-rdf-syntax-ns#" xmlns="http://www.w3.org/2000/svg" xmlns:osb="http://www.openswatchbook.org/uri/2009/osb" height="48" width="48" version="1.1" xmlns:cc="http://creativecommons.org/ns#" viewBox="0 0 12.7 12.7" xmlns:dc="http://purl.org/dc/elements/1.1/">
 <title id="title4753">UIO-icon</title>
 <metadata id="metadata5">
  <rdf:RDF>
   <cc:Work rdf:about="">
    <dc:format>image/svg+xml</dc:format>
    <dc:type rdf:resource="http://purl.org/dc/dcmitype/StillImage"/>
    <dc:title>UIO-icon</dc:title>
    <dc:creator>
     <cc:Agent>
      <dc:title>Joaquín Urbano</dc:title>
     </cc:Agent>
    </dc:creator>
    <dc:rights>
     <cc:Agent>
      <dc:title>GPL</dc:title>
     </cc:Agent>
    </dc:rights>
   </cc:Work>
  </rdf:RDF>
 </metadata>
 <g id="layer1" transform="translate(0,-284.3)" fill="#333">
  <path id="path1860" d="m23.758 4.0039c-1.8323 0.07488-3.4991 1.3092-4.0527 3.1016-0.23553 0.76229-0.23475 1.9018 0.001953 2.668 0.45018 1.4575 1.7691 2.6665 3.2598 2.9902 0.71828 0.15694 1.1159 0.15536 1.8555 0 2.0639-0.43414 3.543-2.242 3.543-4.3301 0-2.2012-1.6278-4.0732-3.8145-4.3887-0.266-0.0383-0.531-0.0517-0.793-0.041zm3.383 0.2559a5.3033 5.3033 0 0 1 0.709 0.6386 19.486 19.486 0 0 1 15.636 19.102 19.486 19.486 0 0 1 -7.9688 15.689l0.30469 0.41406a20 20 0 0 0 8.178 -16.103 20 20 0 0 0 -16.859 -19.74zm-6.4258 0.035156a20 20 0 0 0 -16.715 19.705 20 20 0 0 0 8.107 16.053l0.30469-0.41406a19.486 19.486 0 0 1 -7.8983 -15.639 19.486 19.486 0 0 1 15.5 -19.051 5.3033 5.3033 0 0 1 0.701 -0.6541zm4.2969 0.28906c1.1192 3.78e-7 2.0254 0.90617 2.0254 2.0254s-0.90617 2.0273-2.0254 2.0273-2.0273-0.90812-2.0273-2.0273 0.90812-2.0254 2.0273-2.0254zm-1.082 9.0859c-1.9483 0.001778-3.8999 0.053167-4.2656 0.14844-1.1124 0.28981-2.0788 1.0494-2.8945 2.2754-0.26548 0.39896-1.2413 2.2721-2.1699 4.1641-2.9948 6.1012-2.8971 5.86-2.6562 6.666 0.19956 0.66789 1.0246 1.2773 1.7285 1.2773 0.1091 0 0.3534-0.044632 0.54297-0.10156 0.72388-0.21687 0.87995-0.4595 3.0918-4.752 0.70638-1.3708 0.93737-1.794 1.332-2.543-0.71779-0.33061-1.1769-1.0496-1.1777-1.8398 0-1.1192 0.90617-2.0254 2.0254-2.0254s2.0273 0.90617 2.0273 2.0254-0.90812 2.0273-2.0273 2.0273h-0.003906c0.023806 1.7438 0.042924 4.8184 0.044922 9.2227h0.019531c-0.002301 0.003242-0.003454 0.006515-0.005859 0.009766l-0.013672-0.009766c-0.16231 0.22929-0.12316 0.18346-0.28906 0.41797-5.9272 8.3726-6.6933 9.48-6.7617 9.7852-0.13429 0.5995 0.039024 1.2529 0.46484 1.7539h0.001953c0.42282 0.49786 1.2878 0.7637 1.9414 0.59375 0.74269-0.19291 0.59805-0.021562 4.3711-5.3496l1.2988-1.8359c0.27865-0.39332 0.44119-0.61825 0.7793-1.0957l0.75781-1.0703c-0.97447-0.16437-1.6883-1.0079-1.6895-1.9961 0-1.1192 0.90812-2.0254 2.0273-2.0254s2.0254 0.90617 2.0254 2.0254c-0.00081165 0.02725-0.002023 0.054815-0.003906 0.082031l0.70117 0.99219 1.8613 2.627 1.625 2.2969c3.773 5.328 3.6304 5.1567 4.373 5.3496 0.6536 0.16995 1.5166-0.095882 1.9395-0.59375h0.001953c0.42582-0.50099 0.60108-1.1544 0.4668-1.7539-0.068416-0.30515-0.83449-1.4125-6.7617-9.7852-0.1659-0.2345-0.1287-0.18868-0.29102-0.41797l-0.005859 0.003906c-0.00090997-0.001465-0.001012-0.002439-0.001953-0.003906h0.007813l0.009766-2.9824c-0.26888 0.83823-1.0474 1.4077-1.9277 1.4082-1.1192 0-2.0273-0.90812-2.0273-2.0273s0.90812-2.0254 2.0273-2.0254c0.88809 0.00066445 1.6713 0.57926 1.9336 1.4277l0.025391-6.8477 2.0879 4.0566c1.1483 2.2319 2.1918 4.1722 2.3184 4.3105 0.20604 0.23826 0.35532 0.5075 0.58008 0.59961 1.3785 0.56539 2.461-0.47888 2.5625-1.377 0.13005-1.1504-1.2116-3.4633-1.8184-4.6758 0.00000104-0.19367-2.5681-5.2691-2.9883-5.9062-0.8537-1.2944-1.8118-2.0588-2.9707-2.3672-0.35561-0.09428-2.3017-0.14047-4.25-0.13867zm1.4082 4.5762c1.1192 0 2.0273 0.90812 2.0273 2.0273s-0.90812 2.0254-2.0273 2.0254-2.0273-0.90617-2.0273-2.0254 0.90812-2.0273 2.0273-2.0273zm-8.869 23.725-0.301 0.408a20 20 0 0 0 7.832 1.621 20 20 0 0 0 7.764 -1.568l-0.32422-0.4375a19.486 19.486 0 0 1 -7.44 1.492 19.486 19.486 0 0 1 -7.5312 -1.5156z" transform="matrix(.26458 0 0 .26458 0 284.3)" stroke-width=".13571"/>
 </g>
</svg>
