<?xml version="1.0" encoding="UTF-8" standalone="no"?>
<!-- Created with Inkscape (http://www.inkscape.org/) -->
<svg id="svg8" xmlns:rdf="http://www.w3.org/1999/02/22-rdf-syntax-ns#" xmlns="http://www.w3.org/2000/svg" xmlns:osb="http://www.openswatchbook.org/uri/2009/osb" height="48" width="48" version="1.1" xmlns:cc="http://creativecommons.org/ns#" viewBox="0 0 12.7 12.7" xmlns:dc="http://purl.org/dc/elements/1.1/">
 <title id="title4753">UIO-icon</title>
 <metadata id="metadata5">
  <rdf:RDF>
   <cc:Work rdf:about="">
    <dc:format>image/svg+xml</dc:format>
    <dc:type rdf:resource="http://purl.org/dc/dcmitype/StillImage"/>
    <dc:title>UIO-icon</dc:title>
    <dc:creator>
     <cc:Agent>
      <dc:title>Joaquín Urbano</dc:title>
     </cc:Agent>
    </dc:creator>
    <dc:rights>
     <cc:Agent>
      <dc:title>GPL</dc:title>
     </cc:Agent>
    </dc:rights>
   </cc:Work>
  </rdf:RDF>
 </metadata>
 <g id="layer1" transform="translate(0,-284.3)">
  <path id="rect4774" d="m0 0v48h48v-48h-48zm22.881 4.0527c0.206 0.0171 0.384 0.1452 0.439 0.3379 0.074 0.2568-0.099 0.529-0.384 0.6114l-1.405 0.4042 1.67 5.7968 2.504-0.723 1.947-0.5581c0.257-0.0739 0.524 0.0711 0.598 0.3281s-0.075 0.524-0.332 0.598l-1.945 0.56 0.605 2.102 0.772 2.679 3.588 12.457c0.42 1.461-0.258 2.969-1.547 3.653 0.033 0.064 0.08 0.118 0.101 0.191 0.143 0.496-0.083 0.993-0.504 1.246l2.783 9.668c0.074 0.257-0.071 0.522-0.328 0.596-0.256 0.074-0.523-0.071-0.597-0.328l-2.78-9.658c-0.512 0.035-0.996-0.267-1.144-0.782-0.023-0.078-0.014-0.154-0.02-0.232-1.435 0.081-2.781-0.828-3.197-2.271l-3.586-12.458-0.771-2.679-0.606-2.1-1.945 0.559c-0.257 0.073-0.526-0.073-0.6-0.33s0.075-0.524 0.332-0.598l1.946-0.559 2.179-0.628-1.67-5.7973-1.078 0.3105c-0.285 0.0822-0.576-0.0555-0.65-0.3125-0.074-0.2568 0.097-0.5328 0.383-0.6152l5.031-1.4473c0.071-0.0206 0.142-0.0272 0.211-0.0215zm-2.277 1.6192l-0.692 0.1992 1.67 5.7969 0.691-0.199-1.669-5.7971zm4.447 6.0021l-1.582 0.455 1.398 4.857 1.582-0.455-1.398-4.857zm-2.51 0.722l-0.693 0.2 1.398 4.857 0.693-0.199-1.398-4.858zm-1.619 0.467l-1.24 0.358 1.398 4.855 1.24-0.355-1.398-4.858zm5.795 4.596l-5.369 1.545 0.57 1.98 5.611-0.703-0.008-0.029-0.087-0.307-1.047 0.301c-0.257 0.074-0.522-0.073-0.596-0.33s0.073-0.522 0.33-0.596l1.045-0.3-0.449-1.561zm0.98 3.402l-5.613 0.703 0.066 0.235 2.434 8.451c0.368 1.279 1.693 2.011 2.973 1.643l0.125-0.038 0.244-0.07 0.189-0.055 0.194-0.056v0.002c1.279-0.369 2.014-1.694 1.646-2.973l-0.148-0.512-1.045 0.301c-0.257 0.074-0.524-0.075-0.598-0.332s0.073-0.521 0.33-0.596l1.045-0.3-0.326-1.133-1.045 0.301c-0.257 0.074-0.524-0.075-0.598-0.332s0.074-0.522 0.33-0.596l1.047-0.301-0.328-1.135-1.045 0.301c-0.257 0.074-0.522-0.073-0.595-0.33-0.074-0.257 0.071-0.522 0.328-0.596l1.047-0.3-0.327-1.135-1.047 0.301c-0.256 0.074-0.521-0.073-0.595-0.33s0.073-0.522 0.33-0.596l1.045-0.301-0.063-0.221zm-4.066 1.432a0.51534 0.51534 0 0 1 0.5 0.373 0.51534 0.51534 0 0 1 -0.319 0.627v0.002a0.51534 0.51534 0 0 1 -0.033 0.008 0.51534 0.51534 0 0 1 -0.638 -0.354 0.51534 0.51534 0 0 1 0.353 -0.637 0.51534 0.51534 0 0 1 0.137 -0.019zm2.094 2.129a0.38505 0.38505 0 0 1 0.375 0.279 0.38505 0.38505 0 0 1 -0.264 0.477 0.38505 0.38505 0 0 1 -0.479 -0.264 0.38505 0.38505 0 0 1 0.264 -0.478 0.38505 0.38505 0 0 1 0.104 -0.014zm-1.127 2.049a0.37321 0.37321 0 0 1 0.363 0.269 0.37321 0.37321 0 0 1 -0.231 0.455 0.37321 0.37321 0 0 1 -0.027 0.008 0.37321 0.37321 0 0 1 -0.461 -0.256 0.37321 0.37321 0 0 1 0.256 -0.461 0.37321 0.37321 0 0 1 0.1 -0.015zm2.019 1.634a0.31398 0.31398 0 0 1 0.305 0.227 0.31398 0.31398 0 0 1 -0.215 0.389 0.31398 0.31398 0 0 1 -0.389 -0.215 0.31398 0.31398 0 0 1 0.215 -0.387 0.31398 0.31398 0 0 1 0.084 -0.014zm-0.213 2.172a0.21923 0.21923 0 0 1 0.235 0.159 0.21923 0.21923 0 0 1 -0.135 0.265 0.21923 0.21923 0 0 1 -0.014 0.004 0.21923 0.21923 0 0 1 -0.271 -0.148 0.21923 0.21923 0 0 1 0.15 -0.272 0.21923 0.21923 0 0 1 0.035 -0.008zm1.43 0.606a0.21923 0.21923 0 0 1 0.213 0.16 0.21923 0.21923 0 0 1 -0.135 0.264v0.002a0.21923 0.21923 0 0 1 -0.016 0.003 0.21923 0.21923 0 0 1 -0.269 -0.15 0.21923 0.21923 0 0 1 0.148 -0.271 0.21923 0.21923 0 0 1 0.059 -0.008z" transform="matrix(.26458 0 0 .26458 0 284.3)" fill="#333"/>
 </g>
</svg>
