<?xml version="1.0" encoding="UTF-8" standalone="no"?>
<!-- Created with Inkscape (http://www.inkscape.org/) -->
<svg id="svg8" xmlns:rdf="http://www.w3.org/1999/02/22-rdf-syntax-ns#" xmlns="http://www.w3.org/2000/svg" height="48" viewBox="0 0 12.7 12.7" width="48" version="1.1" xmlns:cc="http://creativecommons.org/ns#" xmlns:dc="http://purl.org/dc/elements/1.1/">
 <title id="title4753">UIO-icon</title>
 <metadata id="metadata5">
  <rdf:RDF>
   <cc:Work rdf:about="">
    <dc:format>image/svg+xml</dc:format>
    <dc:type rdf:resource="http://purl.org/dc/dcmitype/StillImage"/>
    <dc:title>UIO-icon</dc:title>
    <dc:creator>
     <cc:Agent>
      <dc:title>Joaquín Urbano</dc:title>
     </cc:Agent>
    </dc:creator>
    <dc:rights>
     <cc:Agent>
      <dc:title>GPL</dc:title>
     </cc:Agent>
    </dc:rights>
   </cc:Work>
  </rdf:RDF>
 </metadata>
 <path id="rect910" d="m22.881 4.0469c-0.068631-0.0056846-0.13953 0.00090482-0.21094 0.021484l-5.0312 1.4473c-0.28565 0.082394-0.45678 0.35642-0.38281 0.61328 0.003433 0.011926 0.013234 0.019841 0.017578 0.03125l1.582-0.45117c0.65425 2.1622 1.3179 4.5355 1.9297 6.6074l-0.76172 0.21875-0.49414 0.14258-0.49414 0.14258-0.15039 0.042969-0.55469 0.16016-2.1387 0.61719c0.003082 0.02489-0.001307 0.049332 0.005859 0.074219 0.054876 0.19063 0.2175 0.31939 0.40234 0.34375l1.7305-0.5 0.39648-0.11328 0.011719 0.041016 0.001953-0.001953 0.29297 1.0117 0.31445 1.0898 0.77148 2.6797 0.050781 0.17773 3.4609 12.064c0.034242 0.1166 0.053502 0.15487 0.074219 0.21484 0.41556 1.4432 1.7616 2.3522 3.1973 2.2715 0.005329 0.077858-0.002969 0.15223 0.019531 0.23047 0.14819 0.51466 0.63191 0.8185 1.1445 0.7832l2.7793 9.6562c0.073946 0.25701 0.34083 0.40404 0.59766 0.33008 0.25681-0.0737 0.40208-0.33873 0.32812-0.5957l-2.7832-9.668c0.42085-0.25361 0.64666-0.7503 0.50391-1.2461-0.021014-0.072945-0.06791-0.12873-0.10156-0.19336 1.2895-0.68398 1.9675-2.1915 1.5469-3.6523l-1.9414-6.7383-1.4902-5.1758c-0.39183-1.4087-0.81887-2.851-1.2305-4.2695l-0.172-0.599-0.143-0.494 1.662-0.478 0.475-0.137c0.141-0.119 0.208-0.313 0.154-0.502-0.007265-0.025234-0.024365-0.043399-0.035156-0.066406-0.19701 0.056752-0.39577 0.11482-0.59375 0.17188-1.4289 0.4118-2.8775 0.82902-4.2871 1.2344l-0.131-0.389h-0.001953l-0.26172-0.90625-1.2656-4.3613-0.274-0.943 1.924-0.5489c-0.003-0.0176 0.001-0.0352-0.004-0.0527-0.055-0.1927-0.233-0.3189-0.439-0.3359zm-1.973 1.0781l0.27344 0.94336 1.2168 4.2031 0.044922 0.1543 0.26172 0.90625 0.12109 0.41016-1.5605 0.45117-0.11523-0.40039-1.5469-5.3301 0.005859-0.0019531-0.25977-0.89258zm4.5566 6.3789 1.3906 4.7969-2.0059 0.57812-1.3809-4.7988 1.502-0.43359zm-2.4883 0.7168 1.3789 4.8027-0.49414 0.14258v-0.001953l-0.57031 0.16406-0.060547 0.017578-0.43359 0.125-1.377-4.7988c0.53127-0.14244 1.0343-0.29059 1.5566-0.45117zm-2.057 0.591l1.3828 4.8008-1.6895 0.48633-1.3906-4.7988 0.44922-0.12891 0.001953 0.005859 0.009766-0.001953-0.001953-0.005859zm6.0625 3.9883 0.14258 0.49219c0.42748 1.4395 0.24882 0.82838 0.45508 1.5449l-1.4609 0.43359c-0.25681 0.074078-0.40208 0.33866-0.32812 0.5957 0.07395 0.25701 0.33887 0.40404 0.5957 0.33008l1.4551-0.44922 0.076172 0.25 0.042969 0.16016-6.5312 0.81641-0.68164-2.377zm1.1055 3.8145 0.085938 0.30078-1.4609 0.47852c-0.25681 0.074079-0.40208 0.34069-0.32812 0.59766 0.07395 0.25701 0.33887 0.40247 0.5957 0.32812l1.4551-0.5 0.33203 1.1738-1.4609 0.46094c-0.25682 0.074079-0.40208 0.33866-0.32812 0.5957 0.073946 0.25701 0.33887 0.40404 0.5957 0.33008l1.4766-0.47266 0.30469 1.1523-1.4551 0.45508c-0.25682 0.073701-0.40404 0.33873-0.33008 0.5957 0.073946 0.25701 0.34084 0.40607 0.59766 0.33203l1.4766-0.46094 0.32812 1.1719-1.4785 0.42188c-0.25681 0.074078-0.40404 0.3387-0.33008 0.5957 0.073946 0.25701 0.34084 0.40603 0.59766 0.33203l1.4746-0.41797 0.17383 0.56836c0.43181 1.4366-0.15623 2.3099-1.0371 3.0352-0.77316 0.52865-1.2599 0.71457-2.459 0.78125-0.82387 0.051524-1.6871-0.22438-2.3301-1.0781-0.19403-0.23829-0.34628-0.72029-0.45117-1.002l-2.5664-8.9434zm-4.457 1.627c-0.046332 0.00098164-0.092319 0.008208-0.13672 0.021484-0.27331 0.078377-0.4315 0.3633-0.35352 0.63672 0.078351 0.2743 0.36463 0.43276 0.63867 0.35352 0.011151-0.002237 0.022225-0.004842 0.033203-0.007813v-0.003906c0.25436-0.092887 0.39344-0.36678 0.31836-0.62695-0.063927-0.22256-0.26845-0.37516-0.5-0.37305zm2.0938 2.1719c-0.035056 0.0004716-0.069883 0.005729-0.10352 0.015625-0.20443 0.058759-0.3225 0.27215-0.26367 0.47656 0.05873 0.20543 0.27348 0.32376 0.47852 0.26367 0.20443-0.058759 0.3225-0.27215 0.26367-0.47656-0.047696-0.16702-0.20131-0.28144-0.375-0.2793zm-1.127 2.0508c-0.033757 0.00067853-0.067266 0.005935-0.099609 0.015625-0.19778 0.05683-0.31224 0.26303-0.25586 0.46094 0.057679 0.19699 0.26361 0.31043 0.46094 0.25391 0.009211-0.002256 0.018332-0.004862 0.027344-0.007813 0.18372-0.067279 0.2843-0.26502 0.23047-0.45312-0.046645-0.16136-0.19533-0.27167-0.36328-0.26953zm2.0195 1.6348c-0.028396 0.00009032-0.056648 0.004033-0.083984 0.011719-0.16667 0.047982-0.26287 0.22201-0.21484 0.38867 0.047982 0.16667 0.22201 0.26287 0.38867 0.21484 0.16667-0.047982 0.26287-0.22201 0.21484-0.38867-0.039223-0.13533-0.16379-0.22796-0.30469-0.22656zm-0.19141 2.1699c-0.007189 0.00029808-0.014359 0.00095069-0.021484 0.001953-0.011913 0.001636-0.023672 0.004247-0.035156 0.007813-0.11658 0.033334-0.18396 0.15497-0.15039 0.27148 0.034184 0.11579 0.15555 0.18215 0.27148 0.14844 0.004598-0.001154 0.009158-0.002457 0.013672-0.003906 0.10741-0.039749 0.16612-0.15547 0.13477-0.26562-0.02667-0.095325-0.11391-0.16095-0.21289-0.16016zm1.407 0.606c-0.007189 0.00029808-0.014359 0.0009509-0.021484 0.001953-0.012572 0.001527-0.024988 0.004141-0.037109 0.007813-0.11579 0.034184-0.18215 0.15555-0.14844 0.27148 0.034199 0.11481 0.15422 0.18091 0.26953 0.14844 0.005254-0.00111 0.010466-0.002413 0.015625-0.003906 0.10741-0.039749 0.16612-0.15547 0.13477-0.26562-0.027-0.095-0.114-0.161-0.213-0.16z" transform="scale(.26458)" stroke-width="3.7795" fill="#333"/>
</svg>
