<svg width="48" height="48" viewBox="0 0 48 48" fill="none" xmlns="http://www.w3.org/2000/svg">
<path fill-rule="evenodd" clip-rule="evenodd" d="M6.81839 13.364C6.36653 13.8159 6.36653 14.5485 6.81839 15.0004C7.27026 15.4523 8.00288 15.4523 8.45475 15.0004L9.27345 14.1817L13.3638 18.2721L10.0911 21.5449C9.63923 21.9968 9.63923 22.7294 10.0911 23.1813C10.543 23.6332 11.2756 23.6332 11.7275 23.1813L13.3635 21.5452L27.2729 35.455C28.9504 37.1325 31.4017 37.5646 33.4778 36.7511L34.6364 37.9097C35.2422 38.5156 36.1004 38.7153 36.8726 38.5088L39.5457 41.182C39.9976 41.6339 40.7302 41.6339 41.1821 41.182C41.6339 40.7301 41.6339 39.9975 41.1821 39.5456L38.5085 36.872C38.7144 36.1001 38.5146 35.2425 37.9091 34.6369L36.7506 33.4784C37.5642 31.4022 37.1323 28.9506 35.4547 27.273L21.5453 13.3632L23.182 11.7265C23.6338 11.2746 23.6338 10.542 23.182 10.0901C22.7301 9.63824 21.9975 9.63824 21.5456 10.0901L18.2729 13.3629L14.1825 9.27248L15.0002 8.4548C15.4521 8.00292 15.4521 7.27028 15.0002 6.8184C14.5483 6.36652 13.8157 6.36652 13.3638 6.8184L6.81839 13.364ZM16.8587 14.7772L12.7683 10.6867L10.6877 12.7674L14.778 16.8579L16.8587 14.7772ZM20.1311 14.7775L14.7777 20.131L19.1836 24.5371L24.537 19.1835L20.1311 14.7775ZM20.82 26.1735L23.2746 28.6281L25.1333 26.7694C25.5851 26.3175 26.3178 26.3175 26.7696 26.7694C27.2215 27.2213 27.2215 27.9539 26.7696 28.4058L24.9109 30.2645L26.5469 31.9005L28.4057 30.0416C28.8576 29.5897 29.5902 29.5897 30.0421 30.0416C30.494 30.4935 30.494 31.2261 30.0421 31.678L28.1832 33.5369L28.6871 34.0408C29.7852 35.1389 31.3901 35.4213 32.7489 34.888L34.8878 32.7492C35.421 31.3903 35.1386 29.7854 34.0405 28.6873L26.1734 20.8199L20.82 26.1735ZM36.5227 36.0829C36.5142 36.0718 36.505 36.0612 36.4949 36.0512L35.6708 35.227C35.6012 35.3045 35.5292 35.3805 35.4547 35.455C35.3801 35.5296 35.304 35.6017 35.2265 35.6714L36.0506 36.4955C36.0607 36.5056 36.0714 36.5149 36.0825 36.5234C36.1331 36.4337 36.1966 36.3492 36.273 36.2728C36.3491 36.1967 36.4333 36.1333 36.5227 36.0829Z" fill="#333333"/>
</svg>
