<svg width="48" height="48" viewBox="0 0 48 48" fill="none" xmlns="http://www.w3.org/2000/svg">
<path fill-rule="evenodd" clip-rule="evenodd" d="M6.81839 13.364C6.36653 13.8159 6.36653 14.5485 6.81839 15.0004C7.27026 15.4523 8.00288 15.4523 8.45475 15.0004L9.27345 14.1817L13.3638 18.2721L10.0911 21.5449C9.63923 21.9968 9.63923 22.7294 10.0911 23.1813C10.543 23.6332 11.2756 23.6332 11.7275 23.1813L13.3635 21.5452L27.2729 35.455C28.9504 37.1325 31.4017 37.5646 33.4778 36.7511L34.6364 37.9097C35.2422 38.5156 36.1004 38.7153 36.8726 38.5088L39.5457 41.182C39.9976 41.6339 40.7302 41.6339 41.1821 41.182C41.6339 40.7301 41.6339 39.9975 41.1821 39.5456L38.5085 36.872C38.7144 36.1001 38.5146 35.2425 37.9091 34.6369L36.7506 33.4784C37.5642 31.4022 37.1323 28.9506 35.4547 27.273L21.5453 13.3632L23.182 11.7265C23.6338 11.2746 23.6338 10.542 23.182 10.0901C22.7301 9.63824 21.9975 9.63824 21.5456 10.0901L18.2729 13.3629L14.1825 9.27248L15.0002 8.4548C15.4521 8.00292 15.4521 7.27028 15.0002 6.8184C14.5483 6.36652 13.8157 6.36652 13.3638 6.8184L6.81839 13.364ZM16.8587 14.7772L12.7683 10.6867L10.6877 12.7674L14.778 16.8579L16.8587 14.7772ZM20.1311 14.7775L14.7777 20.131L19.1836 24.5371L24.537 19.1835L20.1311 14.7775ZM20.82 26.1735L23.2746 28.6281C24.6881 30.0416 23.6465 29.0001 24.9109 30.2645L26.5469 31.9005C27.6465 33.0001 27.3955 32.7492 28.1832 33.5369L28.6871 34.0408C29.7852 35.1389 31.3901 35.4213 32.7489 34.888L34.8878 32.7492C35.421 31.3903 35.1386 29.7854 34.0405 28.6873L26.1734 20.8199L20.82 26.1735ZM36.5227 36.0829C36.5142 36.0718 36.505 36.0612 36.4949 36.0512L35.6708 35.227C35.6012 35.3045 35.5292 35.3805 35.4547 35.455C35.3801 35.5296 35.304 35.6017 35.2265 35.6714L36.0506 36.4955C36.0607 36.5056 36.0714 36.5149 36.0825 36.5234C36.1331 36.4337 36.1966 36.3492 36.273 36.2728C36.3491 36.1967 36.4333 36.1333 36.5227 36.0829Z" fill="#333333"/>
<path d="M9.27345 12.7674L8.56634 13.4746L7.74764 14.2933C7.6863 14.3546 7.58685 14.3546 7.52551 14.2933C7.46415 14.2319 7.46415 14.1324 7.52551 14.0711L14.0709 7.5255L13.3638 6.8184L14.0709 7.5255C14.1323 7.46416 14.2317 7.46416 14.2931 7.5255C14.3544 7.58686 14.3544 7.68635 14.2931 7.7477L13.4754 8.56538L12.7683 9.27248L12.0612 9.97961L9.98054 12.0603L9.27345 12.7674ZM14.0709 18.9792L14.778 18.2721L15.4851 17.565L17.5658 15.4843L18.2729 14.7772L18.98 14.07L22.2527 10.7972C22.3141 10.7359 22.4135 10.7359 22.4749 10.7972C22.5362 10.8586 22.5362 10.9581 22.4749 11.0194L20.8381 12.6562L20.1311 13.3633L19.424 14.0704L14.0706 19.4239L13.3635 20.131L12.6564 20.8381L11.0203 22.4742C10.959 22.5355 10.8596 22.5355 10.7982 22.4742C10.7369 22.4128 10.7369 22.3134 10.7982 22.252L14.0709 18.9792ZM21.8604 28.6283L19.2455 26.0134L19.382 25.8768L18.475 25.183C18.3395 25.0794 18.2082 24.9674 18.0815 24.847C18.2917 25.0468 18.5163 25.2243 18.752 25.3792L19.4325 25.8263L20.0083 25.2505L25.2505 20.0082L25.8262 19.4324L25.3791 18.752C25.2257 18.5185 25.0502 18.296 24.8527 18.0875C24.9709 18.2123 25.0809 18.3416 25.1828 18.4748L25.8767 19.382L26.0131 19.2456L34.7475 27.9803C36.134 29.3668 36.4933 31.3941 35.8195 33.1135L35.5808 33.7228L36.0435 34.1855L37.202 35.344C37.545 35.687 37.66 36.173 37.5423 36.6143L37.3937 37.1714L37.8014 37.5791L40.4749 40.2527C40.5363 40.3141 40.5363 40.4135 40.4749 40.4749C40.4136 40.5362 40.3142 40.5362 40.2528 40.4749L37.5797 37.8018L37.1717 37.3938L36.6143 37.5428C36.1729 37.6608 35.6867 37.5458 35.3435 37.2026L34.185 36.0441L33.7222 35.5813L33.113 35.8201C31.4784 36.4607 29.5655 36.1675 28.1895 34.9455L30.7492 32.3857C31.5916 31.5433 31.5916 30.1776 30.7492 29.3352L30.0421 30.0423L30.7492 29.3352C29.9068 28.4927 28.541 28.4927 27.6986 29.3352L25.1329 31.9009L24.9109 31.6789L27.4768 29.113C28.3192 28.2706 28.3192 26.9048 27.4768 26.0624C26.6344 25.22 25.2686 25.22 24.4262 26.0624L21.8604 28.6283Z" fill="#333333" stroke="#333333" stroke-width="2"/>
</svg>
