<svg width="48" height="48" viewBox="0 0 48 48" fill="none" xmlns="http://www.w3.org/2000/svg">
<path fill-rule="evenodd" clip-rule="evenodd" d="M48 0H0V48H48V0ZM15 19.9083L14.7774 20.1308L18.7 24.0535C18.8869 24.2404 19.0884 24.4036 19.3009 24.5433L24.5432 19.3009C24.4035 19.0884 24.2403 18.8869 24.0534 18.7L20.1308 14.7773L19.909 14.9991L19.9092 14.9993L18.495 16.4135L16.4143 18.4942L15.0001 19.9084L15 19.9083ZM21.545 13.3631L25.4676 17.2858C25.6525 17.4707 25.8223 17.665 25.9769 17.8671L26.0128 17.8312L35.4544 27.273C37.1319 28.9506 37.5639 31.402 36.7504 33.4782L37.9089 34.6367C38.5144 35.2423 38.7142 36.0999 38.5083 36.8718L41.1818 39.5454C41.6337 39.9973 41.6337 40.7299 41.1818 41.1818C40.73 41.6337 39.9974 41.6337 39.5455 41.1818L36.8724 38.5086C36.1002 38.7151 35.242 38.5154 34.6362 37.9095L33.4777 36.751C31.4016 37.5646 28.9502 37.1326 27.2726 35.455L17.8311 26.0132L17.8672 25.9771C17.665 25.8224 17.4707 25.6527 17.2858 25.4678L13.3633 21.5451L11.7272 23.1811C11.2754 23.633 10.5428 23.633 10.0909 23.1811C9.63902 22.7292 9.63902 21.9966 10.0909 21.5447L13.3636 18.2719L9.27324 14.1815L8.45454 15.0002C8.00267 15.4521 7.27005 15.4521 6.81818 15.0002C6.36631 14.5483 6.36631 13.8157 6.81818 13.3638L7.63689 12.5451L7.63647 12.5447L9.05067 11.1304L11.1314 9.04969L12.5456 7.63546L12.546 7.63587L13.3636 6.8182C13.8155 6.36632 14.5481 6.36632 15 6.8182C15.4518 7.27008 15.4518 8.00272 15 8.4546L14.1823 9.27227L18.2727 13.3627L21.5454 10.0899C21.9973 9.63806 22.7299 9.63805 23.1818 10.0899C23.6336 10.5418 23.6336 11.2745 23.1818 11.7263L21.545 13.3631ZM16.8585 14.777L12.7681 10.6865L10.6874 12.7672L14.7778 16.8577L16.8585 14.777ZM24.0092 29.5296C23.5573 29.0777 23.5573 28.3451 24.0092 27.8932L25.1331 26.7693C25.5849 26.3174 26.3176 26.3174 26.7694 26.7693C27.2213 27.2212 27.2213 27.9538 26.7694 28.4057L25.6456 29.5296C25.1937 29.9815 24.4611 29.9815 24.0092 29.5296ZM27.3753 31.0724C26.9234 31.5242 26.9234 32.2569 27.3753 32.7088C27.8271 33.1606 28.5598 33.1606 29.0116 32.7088L30.0418 31.6785C30.4937 31.2266 30.4937 30.494 30.0418 30.0421C29.59 29.5902 28.8574 29.5902 28.4055 30.0421L27.3753 31.0724Z" fill="#333333"/>
</svg>
