<svg width="48" height="48" viewBox="0 0 48 48" fill="none" xmlns="http://www.w3.org/2000/svg">
<path fill-rule="evenodd" clip-rule="evenodd" d="M48 0H0V48H48V0ZM10.5938 33.4546C8.34188 30.5711 7 26.9422 7 23C7 13.6112 14.6112 6 24 6C33.3888 6 41 13.6112 41 23C41 26.9422 39.6581 30.571 37.4063 33.4546L38.6688 36.4435C39.7828 39.0806 37.8468 42 34.9841 42H13.016C10.1533 42 8.21731 39.0806 9.33125 36.4435L10.5938 33.4546ZM34.9841 40H30.6L29 32H29.5855L31.577 37.9743C31.8389 38.7603 32.6884 39.185 33.4743 38.923C34.2603 38.6611 34.685 37.8116 34.423 37.0257L31.8789 29.3932C31.4025 27.964 30.065 27 28.5585 27H19.4415C17.935 27 16.5975 27.964 16.1211 29.3932L13.577 37.0257C13.315 37.8116 13.7397 38.6611 14.5257 38.923C15.3116 39.185 16.1611 38.7603 16.423 37.9743L18.4145 32H19L17.4 40H13.016C11.5846 40 10.6167 38.5403 11.1736 37.2218L15.9006 26.0313C16.2134 25.2908 16.9392 24.8096 17.743 24.8096H19.3644C18.8836 24.2252 18.5111 23.5483 18.2777 22.8096H17.743C16.978 22.8096 16.2484 23.0275 15.6264 23.4155C15.5605 22.9884 15.5263 22.5508 15.5263 22.1053C15.5263 17.3963 19.3437 13.5789 24.0526 13.5789C28.7616 13.5789 32.5789 17.3963 32.5789 22.1053C32.5789 22.5722 32.5414 23.0304 32.4692 23.4769C31.8269 23.0506 31.0615 22.8096 30.2571 22.8096H29.7224C29.489 23.5483 29.1165 24.2252 28.6357 24.8096H30.2571C31.0609 24.8096 31.7867 25.2908 32.0995 26.0313L36.8265 37.2218C37.3834 38.5403 36.4155 40 34.9841 40ZM24.1318 10.8424C22.6528 10.832 21.1861 11.113 19.8157 11.6694L19.0633 9.81632C20.6771 9.16111 22.4042 8.83019 24.1459 8.84243C25.8876 8.85468 27.6098 9.20986 29.2143 9.8877L28.4359 11.73C27.0734 11.1544 25.6109 10.8528 24.1318 10.8424ZM28 21C28 23.2091 26.2091 25 24 25C21.7909 25 20 23.2091 20 21C20 18.7909 21.7909 17 24 17C26.2091 17 28 18.7909 28 21Z" fill="#333333"/>
</svg>
