<svg width="48" height="48" viewBox="0 0 48 48" fill="none" xmlns="http://www.w3.org/2000/svg">
<path fill-rule="evenodd" clip-rule="evenodd" d="M8.30059 11.6015C12.0938 6.82387 17.8614 4.03481 23.9669 4.02661C35.0274 4.02661 43.9935 12.98 43.9924 24.0259C43.9935 35.0709 35.0274 44.0251 23.9668 44.0249C18.661 44.0198 13.5736 41.9119 9.8224 38.1638H9.81007V36.2135H5.92281C4.77611 36.2135 3.85278 35.2914 3.85278 34.1462C3.85278 33.0011 4.77613 32.079 5.92281 32.079H35.1577C36.7537 29.7166 37.6102 26.9059 37.6121 24.0254C37.6121 16.2432 31.5026 9.93439 23.9666 9.93456C21.7274 9.93792 19.5233 10.5105 17.5489 11.6015H8.30059ZM11.9148 36.214H11.276L11.2755 38.1643H11.9148V36.214ZM14.0198 36.214H13.3809L13.3805 38.1643H14.0198V36.214ZM16.1248 36.214H15.4859L15.4855 38.1643H16.1248V36.214ZM18.2298 36.214H17.5909L17.5905 38.1643H18.2298V36.214ZM20.3347 36.214H19.6959L19.6954 38.1643H20.3347V36.214ZM22.4397 36.214H21.8008L21.8004 38.1643H22.4397V36.214ZM24.5447 36.214H23.9058L23.9054 38.1643H23.967C24.1201 38.1639 24.2722 38.1559 24.4245 38.1479C24.4645 38.1458 24.5046 38.1437 24.5447 38.1417V36.214ZM26.6496 36.214H26.0108L26.0103 37.9836C26.2244 37.9478 26.4376 37.9111 26.6496 37.8646V36.214ZM28.7546 36.214H28.1158L28.1153 37.4499C28.3303 37.3762 28.5432 37.2962 28.7546 37.2118V36.214ZM30.7819 36.214H30.2207V36.5261C30.2451 36.5129 30.2695 36.4998 30.2939 36.4867C30.4578 36.3983 30.6218 36.31 30.7819 36.214Z" fill="#333333"/>
<path d="M22.2176 16.0298C23.115 15.6586 24.0768 15.4676 25.0481 15.4677C27.0093 15.4681 28.8901 16.2465 30.2768 17.6317C31.6634 19.0168 32.4423 20.8953 32.4422 22.854C32.4423 24.8127 31.6634 26.6911 30.2768 28.0763C28.8901 29.4615 27.0093 30.2399 25.0481 30.2403C24.0768 30.2404 23.115 30.0493 22.2176 29.6782C21.3203 29.307 20.5049 28.7629 19.8181 28.077C19.1313 27.3911 18.5865 26.5768 18.2148 25.6807C17.8432 24.7845 17.6519 23.824 17.6519 22.854C17.6519 21.884 17.8432 20.9235 18.2148 20.0273C18.5865 19.1311 19.1313 18.3169 19.8181 17.631C20.5049 16.9451 21.3203 16.401 22.2176 16.0298Z" fill="#333333"/>
<path d="M5.01605 27.9636V18.9678L10.9733 18.9679C13.8738 18.9742 16.2326 21.1902 16.466 24.0263H16.4886V30.2403H4.99963V27.9636H5.01605Z" fill="#333333"/>
</svg>
