<svg width="48" height="48" viewBox="0 0 48 48" fill="none" xmlns="http://www.w3.org/2000/svg">
<path fill-rule="evenodd" clip-rule="evenodd" d="M0 0V48H48V0H0ZM24.0197 7.06251C25.5492 7.06251 25.5509 7.06145 25.5509 7.82607C25.5509 8.5895 25.5492 8.58791 24.0197 8.58791C22.4898 8.58791 22.4884 8.5897 22.4884 7.82607C22.4884 7.06151 22.4898 7.06251 24.0197 7.06251ZM24.0197 9.8652C25.5492 9.8652 25.5509 9.86919 25.5509 10.6328C25.5509 11.3963 25.5492 11.3965 24.0197 11.3965C22.4898 11.3965 22.4884 11.3964 22.4884 10.6328C22.4884 9.86855 22.4898 9.8652 24.0197 9.8652ZM24.0197 12.9278C25.5492 12.9278 25.5509 12.9259 25.5509 13.6895C25.5509 14.454 25.5492 14.4512 24.0197 14.4512C22.4898 14.4512 22.4884 14.4542 22.4884 13.6895C22.4884 12.926 22.4898 12.9278 24.0197 12.9278ZM30.3575 14.4589V14.4609C32.7686 14.4386 39.8071 23.7298 42.1603 30.0254C42.8675 31.9184 42.9779 32.5592 43.0685 35.3632C43.2043 39.5705 42.9433 40.1685 40.7228 40.6953C39.4925 40.9841 38.6134 41.0075 36.2327 40.7969C32.735 40.4861 31.1043 39.849 29.4163 38.1388C27.3878 36.0829 26.8329 34.3164 26.8284 29.9061V26.8671L25.598 25.5682C24.9193 24.8505 24.2861 24.0875 24.1937 23.8808C24.0447 23.5478 24.0067 23.5478 23.8578 23.8808C23.7642 24.0887 23.1344 24.8516 22.4554 25.5682L21.2187 26.8155V29.8546C21.2187 32.8939 20.9013 34.746 20.1367 36.2041C19.4838 37.4504 17.6201 39.1614 16.209 39.8155C14.0869 40.7983 9.30874 41.1921 6.94729 40.5772H6.94162C5.31128 40.1535 4.89814 39.2462 4.90257 36.0713C4.90257 32.1266 5.90244 29.0553 8.64086 24.4813C11.3595 19.9406 15.4013 15.1924 16.9944 14.667C19.3458 13.89 20.7092 16.1448 20.7092 20.8194C20.7092 22.62 20.7558 22.8406 21.0901 22.5636C21.7009 22.0571 22.4944 19.0861 22.4944 17.3058V15.6769H25.551V17.3058C25.551 19.0447 26.3371 22.0502 26.9201 22.5344C27.2109 22.7758 27.2935 22.3485 27.3889 19.9524C27.5456 16.0157 28.3982 14.415 30.3576 14.4075L30.3575 14.4589ZM30.8302 19.8596C30.4944 19.8841 30.1803 20.0348 29.9512 20.2816C29.7222 20.5284 29.5952 20.8529 29.5958 21.1896C29.5951 21.5426 29.7346 21.8815 29.9836 22.1317C30.2327 22.3819 30.5709 22.5229 30.9239 22.5236C31.0992 22.524 31.2729 22.4897 31.4349 22.4228C31.5969 22.3559 31.7441 22.2577 31.8681 22.1338C31.992 22.0098 32.0903 21.8626 32.1572 21.7006C32.2241 21.5385 32.2583 21.3649 32.2579 21.1896C32.2578 21.0146 32.2232 20.8415 32.156 20.6799C32.0889 20.5183 31.9906 20.3716 31.8667 20.2481C31.7428 20.1245 31.5957 20.0266 31.434 19.9599C31.2722 19.8933 31.0989 19.8592 30.9239 19.8596C30.8934 19.8585 30.8627 19.8585 30.8321 19.8596C30.8315 19.8596 30.8308 19.8596 30.8302 19.8596ZM14.2207 21.2228V21.2248C14.1492 21.2986 14.137 21.9477 14.1875 23.1603L14.291 25.6154L13.3203 25.7697C12.7876 25.848 11.852 26.2127 11.2403 26.5627C9.94051 27.306 9.96807 27.321 11.6328 26.8146C13.6746 26.1947 15.1936 26.4308 17.1271 27.6583C17.1921 27.703 16.9724 28.2352 16.6369 28.8478L16.0236 29.963L13.5393 30.2814L11.049 30.5939L9.69749 31.9903L8.34007 33.3887L9.9006 32.3497C11.2624 31.4419 11.7037 31.291 13.3947 31.1368L15.3361 30.9571L14.7756 32.3849C14.2423 33.7405 14.1441 33.8324 12.7717 34.3321C11.9055 34.647 11.1618 35.1123 10.9162 35.4922C9.54952 37.608 9.55251 37.5825 10.8947 36.463C11.5946 35.8775 12.8186 35.1546 13.6154 34.8575C14.8163 34.4095 15.1757 34.1253 15.7287 33.1817C16.0946 32.5567 16.4398 32.0431 16.4923 32.0431C16.546 32.0431 16.7067 32.6097 16.8556 33.3028C17.0689 34.299 17.0448 34.7869 16.7463 35.631C16.2076 37.157 16.2802 37.1843 17.0978 35.7638L17.8205 34.5099L17.4513 32.5294L17.088 30.547L17.9416 29.1368C18.6109 28.0295 19.0267 27.6331 19.8771 27.3009C20.9087 26.8999 20.9607 26.8257 20.9572 25.8262C20.9572 25.2509 20.8846 24.5122 20.797 24.1856C20.6463 23.6216 20.5673 23.6598 19.1837 25.0293L17.7287 26.4688L16.5724 25.9084C15.3072 25.2924 14.6066 24.2151 14.5627 22.8009C14.5448 22.3498 14.4385 21.688 14.3146 21.338C14.2774 21.2303 14.2447 21.1964 14.2209 21.2228H14.2207ZM35.5059 22.3556C35.269 22.3721 35.0471 22.4778 34.8851 22.6514C34.7231 22.8251 34.6329 23.0537 34.6328 23.2911C34.6324 23.4144 34.6563 23.5365 34.7031 23.6505C34.7499 23.7646 34.8187 23.8683 34.9056 23.9557C34.9924 24.0432 35.0957 24.1126 35.2094 24.1601C35.3232 24.2076 35.4451 24.2322 35.5684 24.2326C35.6921 24.233 35.8147 24.2089 35.9291 24.1617C36.0435 24.1146 36.1475 24.0453 36.235 23.9578C36.3225 23.8703 36.3918 23.7663 36.439 23.6519C36.4861 23.5375 36.5102 23.4149 36.5098 23.2911C36.5094 23.1679 36.4848 23.0459 36.4373 22.9322C36.3898 22.8185 36.3203 22.7153 36.2329 22.6284C36.1455 22.5415 36.0418 22.4726 35.9278 22.4258C35.8138 22.379 35.6916 22.3552 35.5684 22.3556C35.5476 22.3549 35.5267 22.3549 35.5059 22.3556ZM30.0917 25.0373C29.9194 25.0497 29.7581 25.1269 29.6404 25.2533C29.5226 25.3798 29.4571 25.5461 29.4569 25.7188C29.4565 25.8088 29.4737 25.8979 29.5078 25.9811C29.5418 26.0644 29.5919 26.1401 29.6552 26.204C29.7185 26.2678 29.7938 26.3186 29.8767 26.3533C29.9597 26.3881 30.0486 26.4061 30.1386 26.4064C30.229 26.4069 30.3186 26.3893 30.4022 26.355C30.4858 26.3206 30.5618 26.27 30.6257 26.2061C30.6896 26.1421 30.7403 26.0661 30.7746 25.9825C30.809 25.8989 30.8265 25.8093 30.8261 25.7188C30.8257 25.6289 30.8077 25.54 30.773 25.457C30.7382 25.3741 30.6875 25.2989 30.6236 25.2356C30.5598 25.1723 30.4841 25.1222 30.4008 25.0882C30.3176 25.0541 30.2285 25.0368 30.1386 25.0373C30.1229 25.0368 30.1073 25.0368 30.0917 25.0373ZM32.9628 27.8556C32.7259 27.8721 32.504 27.9778 32.342 28.1514C32.18 28.325 32.0898 28.5537 32.0897 28.7912C32.0893 28.9146 32.1133 29.0368 32.1602 29.151C32.2071 29.2651 32.2761 29.3689 32.3632 29.4564C32.4502 29.5438 32.5537 29.6133 32.6677 29.6607C32.7816 29.7081 32.9038 29.7324 33.0272 29.7325C33.151 29.7329 33.2736 29.709 33.388 29.6618C33.5024 29.6147 33.6064 29.5453 33.6939 29.4578C33.7814 29.3703 33.8507 29.2663 33.8979 29.1519C33.945 29.0375 33.9691 28.915 33.9687 28.7912C33.9683 28.668 33.9437 28.5459 33.8962 28.4322C33.8487 28.3184 33.7792 28.2152 33.6918 28.1283C33.6044 28.0415 33.5007 27.9727 33.3867 27.9259C33.2726 27.8791 33.1505 27.8551 33.0272 27.8556C33.0058 27.8548 32.9843 27.8548 32.9628 27.8556ZM38.5039 28.133C38.1681 28.1569 37.8538 28.3073 37.6244 28.5537C37.395 28.8002 37.2675 29.1244 37.2676 29.4611C37.267 29.6361 37.3008 29.8094 37.3673 29.9713C37.4337 30.1331 37.5314 30.2803 37.6547 30.4044C37.7781 30.5285 37.9247 30.627 38.0861 30.6944C38.2476 30.7617 38.4208 30.7966 38.5957 30.797C38.7714 30.7977 38.9454 30.7636 39.1077 30.6967C39.2701 30.6298 39.4176 30.5313 39.5418 30.4072C39.666 30.283 39.7644 30.1355 39.8313 29.9731C39.8982 29.8108 39.9323 29.6367 39.9317 29.4611C39.9313 29.2862 39.8964 29.113 39.829 28.9515C39.7617 28.7901 39.6631 28.6434 39.5391 28.52C39.415 28.3967 39.2678 28.299 39.1059 28.2326C38.9441 28.1662 38.7707 28.1323 38.5957 28.133C38.5652 28.1319 38.5345 28.1319 38.5039 28.133ZM30.8319 34.0021C30.6592 34.0141 30.4975 34.0911 30.3793 34.2176C30.2611 34.3441 30.1953 34.5107 30.1951 34.6838C30.1947 34.7737 30.212 34.8629 30.246 34.9461C30.28 35.0293 30.3301 35.1051 30.3934 35.1689C30.4567 35.2328 30.532 35.2835 30.6149 35.3182C30.6979 35.3529 30.7869 35.371 30.8768 35.3714C30.9672 35.3718 31.0568 35.3543 31.1404 35.3199C31.224 35.2855 31.3 35.2349 31.3639 35.171C31.4279 35.1071 31.4785 35.0311 31.5129 34.9475C31.5473 34.8639 31.5647 34.7742 31.5643 34.6838C31.564 34.5939 31.5459 34.5049 31.5112 34.422C31.4764 34.339 31.4257 34.2638 31.3618 34.2005C31.298 34.1372 31.2223 34.087 31.139 34.053C31.0558 34.019 30.9667 34.0017 30.8768 34.0021C30.8618 34.0016 30.8468 34.0016 30.8319 34.0021ZM39.7965 37.0999C39.6242 37.1123 39.463 37.1895 39.3452 37.3159C39.2275 37.4424 39.1619 37.6087 39.1618 37.7814C39.1613 37.8713 39.1786 37.9605 39.2126 38.0437C39.2466 38.127 39.2967 38.2027 39.36 38.2666C39.4234 38.3304 39.4986 38.3812 39.5816 38.4159C39.6645 38.4507 39.7535 38.4687 39.8434 38.469C39.9338 38.4694 40.0234 38.4519 40.107 38.4175C40.1907 38.3832 40.2666 38.3326 40.3306 38.2686C40.3945 38.2047 40.4451 38.1287 40.4795 38.0451C40.5139 37.9615 40.5314 37.8718 40.5309 37.7814C40.5306 37.6915 40.5125 37.6025 40.4778 37.5196C40.4431 37.4367 40.3923 37.3615 40.3285 37.2981C40.2646 37.2348 40.1889 37.1848 40.1057 37.1507C40.0224 37.1167 39.9333 37.0994 39.8434 37.0999C39.8278 37.0993 39.8121 37.0993 39.7965 37.0999Z" fill="#333333"/>
</svg>
