<?xml version="1.0" encoding="UTF-8" standalone="no"?>
<!-- Created with Inkscape (http://www.inkscape.org/) -->
<svg id="svg8" xmlns:rdf="http://www.w3.org/1999/02/22-rdf-syntax-ns#" xmlns="http://www.w3.org/2000/svg" xmlns:osb="http://www.openswatchbook.org/uri/2009/osb" height="48" width="48" version="1.1" xmlns:cc="http://creativecommons.org/ns#" viewBox="0 0 12.7 12.7" xmlns:dc="http://purl.org/dc/elements/1.1/">
 <title id="title4753">UIO-icon</title>
 <metadata id="metadata5">
  <rdf:RDF>
   <cc:Work rdf:about="">
    <dc:format>image/svg+xml</dc:format>
    <dc:type rdf:resource="http://purl.org/dc/dcmitype/StillImage"/>
    <dc:title>UIO-icon</dc:title>
    <dc:creator>
     <cc:Agent>
      <dc:title>Joaquín Urbano</dc:title>
     </cc:Agent>
    </dc:creator>
    <dc:rights>
     <cc:Agent>
      <dc:title>GPL</dc:title>
     </cc:Agent>
    </dc:rights>
   </cc:Work>
  </rdf:RDF>
 </metadata>
 <g id="layer1" transform="translate(0,-284.3)">
  <text id="text1512" style="word-spacing:0px;letter-spacing:0px" xml:space="preserve" font-size="7.0556px" line-height="1.25" y="270.5416565" x="44.97916794" font-family="robo" fill="#000000"><tspan id="tspan1510" y="276.9786682" x="44.97916794" stroke-width=".26458"/></text>
  <path id="rect15423" d="m0 284.3v12.7h12.7v-12.7zm6.3552 1.8686c0.40469 0 0.40514-0.0002551 0.40514 0.20205 0 0.20199-0.0004572 0.20154-0.40514 0.20154-0.40478 0-0.40514 0.0005027-0.40514-0.20154 0-0.20229 0.00036407-0.20205 0.40514-0.20205zm0 0.74156c0.40469 0 0.40514 0.00105 0.40514 0.20309 0 0.202-0.0004572 0.20205-0.40514 0.20205-0.40478 0-0.40514-0.0000248-0.40514-0.20205 0-0.20221 0.00036407-0.20309 0.40514-0.20309zm0 0.81029c0.40469 0 0.40514-0.0005027 0.40514 0.20154 0 0.20229-0.0004572 0.20154-0.40514 0.20154-0.40478 0-0.40514 0.0007832-0.40514-0.20154 0-0.20201 0.00036407-0.20154 0.40514-0.20154zm1.6769 0.40514v0.0005159c0.63792-0.00591 2.5002 2.4524 3.1228 4.1181 0.18712 0.50085 0.21633 0.67041 0.2403 1.4123 0.035942 1.1132-0.033127 1.2714-0.62063 1.4108-0.3255 0.0764-0.5581 0.082572-1.188 0.026872-0.92544-0.08223-1.3569-0.25081-1.8035-0.70332-0.53671-0.54394-0.68354-1.0113-0.68471-2.1782v-0.80409l-0.32556-0.34365c-0.17957-0.1899-0.34709-0.39178-0.37155-0.44648-0.039412-0.0881-0.049471-0.0881-0.088883 0-0.024759 0.05502-0.1914 0.25687-0.37104 0.44648l-0.3272 0.33v0.80409c0 0.80415-0.08399 1.2942-0.28629 1.68-0.17275 0.32973-0.66586 0.78245-1.0392 0.9555-0.56148 0.26004-1.8257 0.36423-2.4505 0.20154h-0.0015c-0.43136-0.11211-0.54067-0.35217-0.5395-1.1922 0-1.0437 0.26455-1.8563 0.98909-3.0665 0.71931-1.2014 1.7887-2.4577 2.2102-2.5967 0.62216-0.20557 0.98289 0.39098 0.98289 1.6278 0 0.47643 0.01231 0.53477 0.10077 0.46147 0.1616-0.13399 0.37155-0.92006 0.37155-1.3911v-0.43098h0.80873v0.43098c-8.99e-7 0.46009 0.20798 1.2553 0.36225 1.3834 0.076934 0.06387 0.098792-0.049202 0.12402-0.68316 0.041468-1.0416 0.26706-1.4651 0.78548-1.4671zm0.12506 1.4289a0.35219 0.35219 0 0 0 -0.3266 0.35192 0.35219 0.35219 0 0 0 0.3514 0.35295 0.35219 0.35219 0 0 0 0.35295 -0.35295 0.35219 0.35219 0 0 0 -0.35295 -0.35192 0.35219 0.35219 0 0 0 -0.024288 0 0.35219 0.35219 0 0 1 -0.00051676 0zm-4.3946 0.3607v0.000516c-0.01893 0.01953-0.022156 0.19128-0.008785 0.51211l0.027389 0.64957-0.25683 0.040824c-0.14095 0.02071-0.3885 0.11721-0.55035 0.20981-0.34389 0.19666-0.3366 0.20066 0.10387 0.066663 0.54021-0.16402 0.94211-0.10155 1.4537 0.22324 0.017186 0.01182-0.04095 0.15261-0.12971 0.31471l-0.16226 0.29507-0.65732 0.084233-0.65887 0.082682-0.3576 0.36949-0.35915 0.37 0.41289-0.27492c0.36032-0.24021 0.47707-0.28011 0.92449-0.32091l0.51366-0.047542-0.14831 0.37775c-0.14111 0.35866-0.16709 0.38299-0.5302 0.51521-0.22919 0.08331-0.42594 0.20644-0.49093 0.30696-0.3616 0.55979-0.36081 0.55305-0.0056844 0.25683 0.18518-0.15489 0.50904-0.34618 0.71985-0.42478 0.31773-0.11854 0.41282-0.19373 0.55914-0.44338 0.096803-0.16536 0.18815-0.30127 0.20205-0.30127 0.014192 0 0.056705 0.14992 0.096118 0.33331 0.056439 0.26356 0.05004 0.39264-0.028939 0.61598-0.14253 0.40376-0.1233 0.41099 0.093018 0.03514l0.1912-0.33176-0.097668-0.524-0.096118-0.52452 0.22583-0.3731c0.1771-0.29296 0.28712-0.39786 0.51211-0.48576 0.27295-0.1061 0.28671-0.12572 0.28577-0.39016 0-0.15223-0.019214-0.34768-0.042375-0.43408-0.039889-0.14923-0.060789-0.13912-0.42685 0.22324l-0.38499 0.38086-0.30592-0.14831c-0.33476-0.16298-0.52013-0.448-0.53175-0.82217-0.004727-0.11937-0.032837-0.29446-0.065629-0.38706-0.00985-0.0285-0.018485-0.037489-0.024805-0.030489zm5.6317 0.29972a0.24824 0.24824 0 0 0 -0.23099 0.24753 0.24824 0.24824 0 0 0 0.24753 0.24908 0.24824 0.24824 0 0 0 0.24908 -0.24908 0.24824 0.24824 0 0 0 -0.24908 -0.24753 0.24824 0.24824 0 0 0 -0.016536 0zm-1.4325 0.70952a0.18099 0.18099 0 0 0 -0.16795 0.18035 0.18099 0.18099 0 0 0 0.18035 0.1819 0.18099 0.18099 0 0 0 0.1819 -0.1819 0.18099 0.18099 0 0 0 -0.1819 -0.18035 0.18099 0.18099 0 0 0 -0.012402 0zm0.75964 0.74569a0.24824 0.24824 0 0 0 -0.23099 0.24753 0.24824 0.24824 0 0 0 0.24805 0.24908 0.24824 0.24824 0 0 0 0.24908 -0.24908 0.24824 0.24824 0 0 0 -0.24908 -0.24753 0.24824 0.24824 0 0 0 -0.017053 0zm1.4661 0.07338a0.35219 0.35219 0 0 0 -0.32711 0.3514 0.35219 0.35219 0 0 0 0.3514 0.35347 0.35219 0.35219 0 0 0 0.35347 -0.35347 0.35219 0.35219 0 0 0 -0.35347 -0.3514 0.35219 0.35219 0 0 0 -0.024288 0zm-2.0299 1.5529a0.18099 0.18099 0 0 0 -0.16847 0.18035 0.18099 0.18099 0 0 0 0.18035 0.1819 0.18099 0.18099 0 0 0 0.1819 -0.1819 0.18099 0.18099 0 0 0 -0.1819 -0.18035 0.18099 0.18099 0 0 0 -0.011886 0zm2.3719 0.81959a0.18099 0.18099 0 0 0 -0.16795 0.18035 0.18099 0.18099 0 0 0 0.18035 0.1819 0.18099 0.18099 0 0 0 0.1819 -0.1819 0.18099 0.18099 0 0 0 -0.1819 -0.18035 0.18099 0.18099 0 0 0 -0.012402 0z" fill-rule="evenodd" fill-opacity=".99608" fill="#333"/>
 </g>
</svg>
