<?xml version="1.0" encoding="UTF-8" standalone="no"?>
<!-- Created with Inkscape (http://www.inkscape.org/) -->
<svg id="svg8" xmlns:rdf="http://www.w3.org/1999/02/22-rdf-syntax-ns#" xmlns="http://www.w3.org/2000/svg" xmlns:osb="http://www.openswatchbook.org/uri/2009/osb" height="48" width="48" version="1.1" xmlns:cc="http://creativecommons.org/ns#" viewBox="0 0 12.7 12.7" xmlns:dc="http://purl.org/dc/elements/1.1/">
 <title id="title4753">UIO-icon</title>
 <metadata id="metadata5">
  <rdf:RDF>
   <cc:Work rdf:about="">
    <dc:format>image/svg+xml</dc:format>
    <dc:type rdf:resource="http://purl.org/dc/dcmitype/StillImage"/>
    <dc:title>UIO-icon</dc:title>
    <dc:creator>
     <cc:Agent>
      <dc:title>Joaquín Urbano</dc:title>
     </cc:Agent>
    </dc:creator>
    <dc:rights>
     <cc:Agent>
      <dc:title>GPL</dc:title>
     </cc:Agent>
    </dc:rights>
   </cc:Work>
  </rdf:RDF>
 </metadata>
 <g id="layer1" transform="translate(0,-284.3)">
  <text id="text1512" style="word-spacing:0px;letter-spacing:0px" xml:space="preserve" font-size="7.0556px" line-height="1.25" y="270.5416565" x="44.97916794" font-family="robo" fill="#000000"><tspan id="tspan1510" y="276.9786682" x="44.97916794" stroke-width=".26458"/></text>
  <path id="path15425" d="m6.3553 286.17c-0.40478 0-0.40508-0.00056-0.40508 0.20173 0 0.20204 0.00029739 0.20175 0.40508 0.20175 0.40469 0 0.40508 0.00024 0.40508-0.20175-8.99e-7 -0.20231-0.0003914-0.20173-0.40508-0.20173zm0 0.74138c-0.40478 0-0.40508 0.001-0.40508 0.20321 0 0.20203 0.00029739 0.20174 0.40508 0.20174 0.40469 0 0.40508 0.00026 0.40508-0.20174-8.99e-7 -0.20204-0.00039132-0.20321-0.40508-0.20321zm0 0.81017c-0.40478 0-0.40508-0.00028-0.40508 0.20173 0 0.20232 0.00029739 0.20174 0.40508 0.20174 0.40469 0 0.40508 0.00055 0.40508-0.20174-8.99e-7 -0.20204-0.00039132-0.20173-0.40508-0.20173zm1.6769 0.40505c-0.51842 0.002-0.74423 0.42584-0.7857 1.4674-0.025231 0.63396-0.046882 0.74717-0.12382 0.6833-0.15427-0.12809-0.36228-0.92332-0.36228-1.3834v-0.43104h-0.80863v0.43104c0 0.47107-0.20985 1.257-0.37145 1.391-0.088459 0.0733-0.10089 0.0148-0.10089-0.46163 0-1.2368-0.36072-1.8335-0.98288-1.628-0.42151 0.13902-1.491 1.3957-2.2103 2.5971-0.72453 1.2102-0.989 2.0226-0.989 3.0663-0.00117 0.84001 0.10823 1.0802 0.53959 1.1923h0.00157c0.62475 0.16269 1.8889 0.0583 2.4503-0.20174 0.37336-0.17305 0.86669-0.62566 1.0394-0.95539 0.2023-0.38583 0.28585-0.87574 0.28585-1.6799v-0.80405l0.32712-0.34393c0.17964-0.18961 0.34669-0.39135 0.37145-0.44637 0.039412-0.0881 0.049245-0.0881 0.088657 0 0.024462 0.0547 0.19188 0.25647 0.37145 0.44637l0.32559 0.34393v0.80405c0.00117 1.1669 0.1481 1.6343 0.68481 2.1782 0.44662 0.45251 0.8783 0.62092 1.8037 0.70315 0.62994 0.0557 0.86221 0.0497 1.1877-0.0267 0.58751-0.13932 0.65655-0.2977 0.62061-1.4109-0.02397-0.74191-0.05286-0.91156-0.23998-1.4124-0.62262-1.6657-2.485-4.1239-3.1229-4.118zm0.12535 1.4292a0.35219 0.35219 0 0 1 0.024462 0 0.35219 0.35219 0 0 1 0.3531 0.35158 0.35219 0.35219 0 0 1 -0.3531 0.35309 0.35219 0.35219 0 0 1 -0.35158 -0.35309 0.35219 0.35219 0 0 1 0.32712 -0.35158zm-4.3947 0.36075c0.00632-0.007 0.014612 0.002 0.024462 0.0305 0.032792 0.0926 0.060999 0.2674 0.065726 0.38677 0.011619 0.37417 0.19719 0.65936 0.53195 0.82234l0.30572 0.1482 0.38521-0.3806c0.36606-0.36236 0.38659-0.37257 0.42648-0.22334 0.023161 0.0864 0.042802 0.2819 0.042802 0.43413 0.00093927 0.26444-0.012897 0.28367-0.28585 0.38977-0.225 0.0879-0.33498 0.19316-0.51208 0.48612l-0.22623 0.37297 0.0963 0.52432 0.097831 0.5243-0.19107 0.33167c-0.21631 0.37585-0.23577 0.36866-0.093245-0.0351 0.078979-0.22334 0.085486-0.35249 0.029047-0.61605-0.039413-0.18339-0.082108-0.33321-0.0963-0.33321-0.013903 0-0.10497 0.13577-0.20177 0.30113-0.14632 0.24965-0.24174 0.32475-0.55946 0.44329-0.21082 0.0786-0.53478 0.27005-0.71997 0.42494-0.35512 0.29622-0.35551 0.30304 0.00609-0.25675 0.064991-0.10052 0.26148-0.22394 0.49068-0.30725 0.36311-0.13222 0.38931-0.15648 0.53042-0.51514l0.14827-0.37756-0.51361 0.0473c-0.44742 0.0408-0.56448 0.0808-0.9248 0.32101l-0.41272 0.27509 0.35922-0.36993 0.35769-0.36993 0.65882-0.0826 0.65729-0.084 0.16203-0.29491c0.088758-0.1621 0.14712-0.30307 0.12993-0.31489-0.51155-0.32479-0.91348-0.38705-1.4537-0.22303-0.44047 0.134-0.44784 0.12956-0.10394-0.0671 0.16186-0.0926 0.40934-0.18871 0.55029-0.20942l0.2568-0.0411-0.027509-0.64962c-0.013371-0.32083-0.00976-0.49258 0.00917-0.51211zm5.6313 0.29959a0.24824 0.24824 0 0 1 0.016802 0 0.24824 0.24824 0 0 1 0.24916 0.24758 0.24824 0.24824 0 0 1 -0.24916 0.24905 0.24824 0.24824 0 0 1 -0.24763 -0.24905 0.24824 0.24824 0 0 1 0.23082 -0.24758zm-1.4323 0.70926a0.18099 0.18099 0 0 1 0.012242 0 0.18099 0.18099 0 0 1 0.1819 0.18044 0.18099 0.18099 0 0 1 -0.1819 0.18192 0.18099 0.18099 0 0 1 -0.18037 -0.18192 0.18099 0.18099 0 0 1 0.16814 -0.18044zm0.75971 0.74596a0.24824 0.24824 0 0 1 0.016802 0 0.24824 0.24824 0 0 1 0.24916 0.24758 0.24824 0.24824 0 0 1 -0.24916 0.24907 0.24824 0.24824 0 0 1 -0.24763 -0.24907 0.24824 0.24824 0 0 1 0.23082 -0.24758zm1.4659 0.0733a0.35219 0.35219 0 0 1 0.02455 0 0.35219 0.35219 0 0 1 0.35311 0.35159 0.35219 0.35219 0 0 1 -0.35311 0.3531 0.35219 0.35219 0 0 1 -0.35157 -0.3531 0.35219 0.35219 0 0 1 0.32712 -0.35159zm-2.03 1.553a0.18099 0.18099 0 0 1 0.012241 0 0.18099 0.18099 0 0 1 0.1819 0.18045 0.18099 0.18099 0 0 1 -0.1819 0.18191 0.18099 0.18099 0 0 1 -0.18037 -0.18191 0.18099 0.18099 0 0 1 0.16814 -0.18045zm2.3724 0.81934a0.18099 0.18099 0 0 1 0.01213 0 0.18099 0.18099 0 0 1 0.18192 0.18045 0.18099 0.18099 0 0 1 -0.18192 0.18191 0.18099 0.18099 0 0 1 -0.18038 -0.18191 0.18099 0.18099 0 0 1 0.16813 -0.18045z" fill-opacity=".99608" stroke-width=".32049" fill="#333"/>
 </g>
</svg>
