<svg width="48" height="48" viewBox="0 0 48 48" fill="none" xmlns="http://www.w3.org/2000/svg">
<path fill-rule="evenodd" clip-rule="evenodd" d="M0 0H48V48H0V0ZM30 28C30 26.3431 31.3431 25 33 25C34.6569 25 36 26.3431 36 28V43C36 43.5523 35.5523 44 35 44C34.4477 44 34 43.5523 34 43V28C34 27.4477 33.5523 27 33 27C32.4477 27 32 27.4477 32 28V28.8333C32 29.3856 31.5523 29.8333 31 29.8333C30.4477 29.8333 30 29.3856 30 28.8333V28ZM17 19H18.5475L20.1692 20.9166L22.0858 19L25.0858 16L26.0566 15.0292C25.7153 15.0099 25.3632 15 25 15H17C16.1216 15 15.3008 15.0764 14.5869 15.2862C13.874 15.4958 13.0904 15.8929 12.5604 16.6617C12.0081 17.4628 11.9501 18.3459 12.0693 19.0665C12.1829 19.7534 12.47 20.4024 12.7788 20.9638C13.3964 22.0866 14.3771 23.3422 15.4261 24.6057C15.5826 24.7942 15.743 24.9856 15.9064 25.1794L18.7454 22.3404C18.6637 22.2429 18.5831 22.1463 18.5037 22.0506C17.4511 20.7828 16.6974 19.7884 16.2837 19.0362L16.2799 19.0292C16.4735 19.0114 16.7113 19 17 19ZM23.5535 24.9162L21.4656 22.4486L24.9142 19L27.9142 16L28.5476 15.3666C31.2727 15.9784 33.09 17.2863 34.2556 18.7586C35.0294 19.736 35.4578 20.7139 35.6942 21.4539C35.8129 21.8252 35.8851 22.1426 35.9287 22.3793C35.9506 22.4979 35.9655 22.5971 35.9755 22.6737C35.9805 22.712 35.9843 22.7448 35.9871 22.7716L35.9907 22.8073L35.9921 22.8218L35.9926 22.8281L35.9929 22.8311C35.993 22.8325 35.9931 22.8339 34 23L35.9931 22.8339C36.0848 23.9347 35.2669 24.9014 34.1661 24.9931C33.0743 25.0841 32.1145 24.2801 32.0093 23.193L32.0092 23.1915C32.0077 23.1802 32.0035 23.1506 31.9951 23.1051C31.9783 23.0137 31.945 22.8623 31.8839 22.6711C31.761 22.2861 31.5331 21.764 31.1194 21.2414C30.6039 20.5902 29.6873 19.7954 28 19.3485V30V42C28 43.0722 27.1544 43.9537 26.0831 43.9983C25.0118 44.0428 24.096 43.2346 24.0069 42.1661L23.0421 30.5883C23.056 30.5768 23.0699 30.5653 23.0838 30.5535C24.7702 29.1266 24.9805 26.6027 23.5535 24.9162ZM20.8834 31.4819C19.623 31.6022 18.3263 31.1235 17.4465 30.0838L16 28.3743V30V42C16 43.0722 16.8456 43.9537 17.9169 43.9983C18.9882 44.0428 19.904 43.2346 19.9931 42.1661L20.8834 31.4819ZM20.0442 23.8701L17.2071 26.7071C17.7823 27.3799 18.3718 28.0702 18.9636 28.7804C19.6707 29.6289 20.9318 29.7436 21.7804 29.0364C22.629 28.3293 22.7436 27.0682 22.0365 26.2196C21.4021 25.4584 20.773 24.7225 20.1778 24.0264L20.1668 24.0135L20.1666 24.0133L20.0442 23.8701ZM15.6213 19.1571C15.6212 19.1571 15.6229 19.1562 15.6264 19.1546C15.6231 19.1563 15.6214 19.1571 15.6213 19.1571ZM22 12C24.2091 12 26 10.2091 26 8C26 5.79086 24.2091 4 22 4C19.7909 4 18 5.79086 18 8C18 10.2091 19.7909 12 22 12Z" fill="#333333"/>
</svg>
