<svg width="48" height="48" viewBox="0 0 48 48" fill="none" xmlns="http://www.w3.org/2000/svg">
<g clip-path="url(#clip0)">
<path fill-rule="evenodd" clip-rule="evenodd" d="M0.177734 0.0371094V48.0371H48.1777V0.0371094H0.177734ZM22.2949 4.98828C22.5452 4.97959 22.7987 4.98955 23.0527 5.02734C23.7709 5.13094 24.4198 5.42035 24.9707 5.82813L21.4727 5.11719C21.7415 5.05105 22.0142 5.00157 22.2949 4.99023V4.98828ZM20.6699 5.4043L25.1582 6.31641L19.9551 5.82031C20.1783 5.65673 20.4193 5.5226 20.6699 5.4043ZM21.5293 6.33984L25.8848 6.75586C26.1219 7.0832 26.3166 7.43833 26.4531 7.82422L21.5293 6.33984ZM19.3477 6.36719L26.6406 8.56445C26.6755 8.78219 26.7012 9.00212 26.7012 9.22852C26.7012 11.2248 25.2877 12.9521 23.3145 13.3672C22.6073 13.5156 22.2238 13.5153 21.5371 13.3652C20.1119 13.0557 18.8523 11.9012 18.4219 10.5078C18.1955 9.77526 18.1947 8.68388 18.4199 7.95508C18.6072 7.34877 18.934 6.81408 19.3477 6.36719ZM22.459 14.2344C23.648 14.2336 24.7918 14.255 25.584 14.2891L18.627 20.4102C18.4588 20.3368 18.374 20.2974 18.1914 20.2187C18.1884 19.9222 18.1858 19.5548 18.1816 19.5586C18.1734 19.5676 17.8324 20.2307 17.7539 20.377C17.8404 20.4151 17.8118 20.4017 17.9043 20.4414C18.0994 20.5249 18.1847 20.5639 18.3633 20.6406L15.3281 23.3105C15.248 23.2773 15.2211 23.2684 15.1387 23.2344C13.7877 22.6007 13.4546 20.4393 14.3574 18.9082C14.9297 17.7849 15.4429 16.8077 15.6152 16.5488C16.3951 15.3767 17.3193 14.6501 18.3828 14.373C18.7325 14.282 20.5965 14.2361 22.459 14.2344ZM25.6113 14.2871C26.046 14.3079 26.401 14.335 26.5215 14.3652C27.6294 14.66 28.5471 15.3913 29.3633 16.6289C29.765 17.2382 32.2187 22.0921 32.2187 22.2773C32.7989 23.4367 34.0814 25.6462 33.957 26.7461C33.9117 27.1472 33.6554 27.5742 33.2676 27.8652C33.8002 28.3655 34.1857 29.2061 34.2129 30.4219H34.2227V42.375C34.3073 42.4468 34.3776 42.5485 34.4269 42.6702C34.4761 42.792 34.5026 42.9297 34.5039 43.0703H33.3555C33.3565 42.9379 33.38 42.8078 33.4239 42.6912C33.4677 42.5745 33.5307 42.4748 33.6074 42.4004V30.418C33.5872 29.1953 33.0992 28.4537 32.5 28.1914C32.2566 28.2288 31.9914 28.2023 31.7109 28.1191C31.1303 28.2546 30.5806 28.7975 30.3398 29.7656H29.6816C29.8665 28.6711 30.3924 27.9383 31.0254 27.5781C31.0012 27.5475 30.9812 27.5185 30.9551 27.4883C30.8341 27.356 29.8361 25.501 28.7383 23.3672L26.7422 19.4883L26.7012 30.6465C26.6609 41.3902 26.6535 41.8146 26.502 42.0527C25.7699 43.2023 24.3651 43.4262 23.5059 42.5293C22.9016 41.8985 22.9375 42.3222 22.9375 35.8652V30.0488H22.0176V35.8223C22.0176 42.0653 22.0335 41.8474 21.5605 42.4082C21.1444 42.902 20.3237 43.1745 19.7188 43.0195C19.1097 42.8638 18.6112 42.4483 18.3848 41.9062C18.2694 41.6303 18.2539 40.3446 18.2539 30.5371C18.2539 28.2858 18.2458 26.5346 18.2383 24.8457C21.0668 25.9662 21.129 25.8714 21.7871 25.623C22.5266 25.3441 23.1499 24.3587 23.0938 23.5625C23.0851 23.4389 23.013 23.1668 22.9336 22.957C22.7644 22.5095 22.4344 22.2033 21.3965 21.6758L25.6113 14.2891V14.2871ZM21.248 21.9355C22.2342 22.4233 22.4886 22.6699 22.6406 23.0723C22.7076 23.2495 22.7702 23.4797 22.7773 23.584C22.8247 24.2553 22.2973 25.0848 21.6738 25.3203C21.2061 25.4966 20.9549 25.5164 19.5117 24.9766L21.248 21.9355Z" fill="#333333"/>
</g>
<defs>
<clipPath id="clip0">
<rect width="48" height="48" fill="white"/>
</clipPath>
</defs>
</svg>
