<svg width="48" height="48" viewBox="0 0 48 48" fill="none" xmlns="http://www.w3.org/2000/svg">
<path d="M22.0547 5.02675V5.02871C21.7739 5.04005 21.5013 5.08956 21.2324 5.1557L24.7304 5.86656C24.1796 5.45878 23.5306 5.16945 22.8125 5.06585C22.5584 5.02806 22.3049 5.01817 22.0547 5.02687V5.02675ZM20.4297 5.44279C20.179 5.56109 19.938 5.69517 19.7148 5.85871L24.9181 6.3548L20.4297 5.44279ZM21.289 6.37833L26.213 7.86267C26.0766 7.47678 25.8818 7.1216 25.6447 6.79425L21.289 6.37833ZM19.1074 6.40474C18.6937 6.85163 18.3669 7.38634 18.1797 7.99266C17.9545 8.72146 17.9552 9.81286 18.1816 10.5454C18.612 11.9388 19.8716 13.0932 21.2969 13.4028C21.9836 13.5528 22.3671 13.5532 23.0742 13.4047C25.0475 12.9897 26.4609 11.2624 26.4609 9.26615C26.4609 9.03975 26.4352 8.81986 26.4004 8.60212L19.1074 6.40474ZM19.4355 7.01606L25.8203 8.97514C25.8245 9.04927 25.8264 9.1235 25.8261 9.19775C25.8264 9.67362 25.7345 10.1448 25.5559 10.5845C25.3773 11.0242 25.1154 11.4239 24.7851 11.7605C24.4548 12.0972 24.0627 12.3642 23.631 12.5465C23.1994 12.7287 22.7367 12.8226 22.2695 12.8227C21.8021 12.8228 21.3392 12.7292 20.9073 12.5471C20.4755 12.3649 20.0831 12.0979 19.7526 11.7612C19.4221 11.4246 19.16 11.0248 18.9813 10.585C18.8026 10.1451 18.7107 9.67378 18.7109 9.19775C18.713 8.40962 18.9674 7.64366 19.4355 7.01606ZM22.2187 14.272C20.3563 14.2737 18.4921 14.3197 18.1425 14.4107C16.8801 14.5109 16.1548 15.4145 15.3749 16.5866C15.2026 16.8455 14.6893 17.8226 14.1171 18.9459C13.2142 20.477 13.5474 22.6382 14.8983 23.2719C14.9808 23.3059 15.0077 23.315 15.0878 23.3483L18.1229 20.6784C17.9444 20.6017 17.8591 20.5628 17.664 20.4792C17.5715 20.4396 17.6001 20.4527 17.5136 20.4145C17.592 20.2683 17.9331 19.6053 17.9413 19.5963C17.9455 19.5925 17.9479 19.9598 17.951 20.2564C18.1337 20.335 18.2184 20.3743 18.3866 20.4476L25.3436 14.3267C24.5514 14.2926 23.4076 14.2711 22.2186 14.2719L22.2187 14.272ZM25.3711 14.3268L21.1561 21.7135C22.1941 22.241 22.5241 22.5473 22.6932 22.9949C22.7727 23.2046 22.8447 23.4767 22.8534 23.6003C22.9095 24.3965 22.2862 25.3818 21.5467 25.6607C21.1386 25.8308 20.8265 26.004 17.9979 24.8835C18.0055 26.5723 18.0135 28.3233 18.0135 30.5747C18.0135 40.3822 18.0292 41.668 18.1444 41.9439C18.3708 42.486 18.8693 42.9014 19.4784 43.0571C20.0833 43.2121 20.904 42.9395 21.3202 42.4458C21.7931 41.8849 21.7772 42.103 21.7772 35.86V30.0853H22.6967V35.9016C22.6967 42.3586 22.6608 41.9348 23.2651 42.5656C24.1244 43.4625 25.5291 43.2386 26.2612 42.089C26.4127 41.8509 26.4202 41.4266 26.4604 30.6829L26.5015 19.5246L28.4975 23.4034C29.5953 25.5372 30.5933 27.3924 30.7143 27.5247C30.7403 27.5549 30.7604 27.584 30.7847 27.6146C30.1517 27.9748 29.6258 28.7076 29.4409 29.8021H30.0991C30.3399 28.834 30.8896 28.2911 31.4702 28.1556C31.7507 28.2387 32.0159 28.2652 32.2593 28.2278C32.8585 28.4901 33.3464 29.2316 33.3667 30.4544V42.4366C33.211 42.5874 33.1169 42.8379 33.1148 43.1066H34.2632C34.2606 42.8208 34.1541 42.5572 33.9819 42.4112L34.103 30.5889V30.4464H34.0933C34.0662 29.2306 33.6806 28.39 33.148 27.8897C33.5357 27.5987 33.7921 27.1717 33.8374 26.7706C33.8789 25.6762 32.6793 23.4611 32.0991 22.3016C31.7398 21.6789 29.3681 17.2741 28.9663 16.6649C28.1501 15.4273 27.3887 14.696 26.2808 14.4012C26.1603 14.3709 25.8053 14.3456 25.3706 14.3248L25.3711 14.3268ZM26.0898 14.8093C26.1203 14.8122 26.1554 14.8244 26.1875 14.832C26.1906 14.8328 26.1941 14.833 26.1972 14.8339C26.7479 14.953 27.5046 15.5802 27.957 16.207C29.9323 19.5986 31.3827 22.7277 33.0956 25.9883C33.3844 26.5379 33.2466 27.1838 32.6992 27.4766L32.6679 27.4955C32.1205 27.7884 31.4469 27.5802 31.1581 27.0307L25.9942 17.1948L25.9844 17.1986C25.9795 21.0389 26.0478 23.3037 25.9356 27.271V41.2688C25.9356 42.0039 25.3426 42.597 24.6075 42.597H24.5196C23.7845 42.597 23.1934 42.0039 23.1934 41.2688V29.5539H21.2696V41.2708C21.2696 42.0049 20.6794 42.597 19.9454 42.597H19.8516C19.1176 42.597 18.5274 42.0049 18.5274 41.2708V27.5011C18.5274 27.2876 18.5369 26.0588 18.543 25.759C19.8755 26.2077 20.5567 26.3686 20.7227 26.3918C21.3243 26.4757 21.6923 26.3692 22.1055 26.1496C23.5514 25.0048 23.5383 23.6359 23.4962 23.2667C23.1774 22.0641 22.5752 21.7661 22.0469 21.4855L25.8711 14.8275C25.9373 14.8086 26.0105 14.801 26.0898 14.8086V14.8093ZM24.0254 14.8131C22.1488 16.3893 20.2846 18.1311 18.4513 19.7563C18.274 19.3138 18.2007 18.8014 18.0275 18.3364L16.756 20.7563L17.0548 20.9437L14.9513 22.7914C13.8496 21.7395 14.1051 20.2287 14.3478 19.7075C14.6947 18.9699 15.6343 16.7505 17.0509 15.2972C17.3197 15.1309 17.5492 14.8807 18.2482 14.8225L24.0254 14.8131ZM21.0078 21.9734L19.2715 25.0144C20.7146 25.5542 20.9659 25.5346 21.4336 25.3583C22.0571 25.1229 22.5845 24.2933 22.5371 23.622C22.5298 23.5176 22.4674 23.2874 22.4004 23.1102C22.2484 22.7079 21.994 22.4612 21.0078 21.9735V21.9734ZM21.2031 22.6276C23.0479 23.3749 21.6234 25.7796 19.9883 24.7664L20.6035 23.7175L21.2031 22.6276Z" fill="#333333"/>
</svg>
