<svg width="48" height="48" viewBox="0 0 48 48" fill="none" xmlns="http://www.w3.org/2000/svg">
<path d="M22.3237 5.03699V5.03899C22.0427 5.05029 21.7707 5.09979 21.5017 5.16589L24.9997 5.87688C24.4487 5.46908 23.7997 5.17969 23.0817 5.07609C22.8277 5.03829 22.5737 5.02829 22.3237 5.03699ZM20.6987 5.45298C20.4487 5.57128 20.2077 5.70548 19.9837 5.86898L25.1877 6.36507L20.6987 5.45298ZM21.5587 6.38857L26.4817 7.87285C26.3457 7.48706 26.1507 7.13186 25.9137 6.80457L21.5587 6.38857ZM19.3768 6.41397C18.9628 6.86086 18.6358 7.39546 18.4488 8.00185C18.2238 8.73064 18.2248 9.82193 18.4508 10.5548C18.8818 11.9478 20.1407 13.1028 21.5657 13.4118C22.2527 13.5618 22.6367 13.5628 23.3437 13.4138C25.3167 12.9988 26.7297 11.2718 26.7297 9.27523C26.7297 9.04884 26.7047 8.82894 26.6697 8.61114L19.3768 6.41397ZM22.4877 14.2808C20.6257 14.2828 18.7618 14.3288 18.4118 14.4198C17.3488 14.6968 16.4238 15.4238 15.6448 16.5957C15.4718 16.8547 14.9588 17.8317 14.3868 18.9547C13.4838 20.4857 13.8168 22.6467 15.1678 23.2807C15.2498 23.3147 15.2768 23.3247 15.3568 23.3567L18.3928 20.6877C18.2138 20.6107 18.1288 20.5717 17.9338 20.4877C17.8408 20.4487 17.8698 20.4617 17.7828 20.4237C17.8618 20.2777 18.2028 19.6147 18.2108 19.6047C18.2148 19.6017 18.2178 19.9687 18.2208 20.2657C18.4028 20.3437 18.4878 20.3837 18.6558 20.4567L25.6127 14.3358C24.8207 14.3018 23.6767 14.2798 22.4877 14.2808ZM25.6407 14.3358L21.4257 21.7227C22.4637 22.2497 22.7937 22.5557 22.9627 23.0037C23.0417 23.2137 23.1137 23.4857 23.1227 23.6087C23.1787 24.4056 22.5557 25.3906 21.8157 25.6696C21.1577 25.9176 21.0957 26.0126 18.2678 24.8926C18.2748 26.5806 18.2828 28.3316 18.2828 30.5836C18.2828 40.3914 18.2988 41.6764 18.4138 41.9524C18.6398 42.4944 19.1388 42.9104 19.7477 43.0654C20.3527 43.2204 21.1737 42.9484 21.5897 42.4544C22.0627 41.8934 22.0467 42.1114 22.0467 35.8685V30.0956H22.5057H22.9667V35.9115C22.9667 42.3684 22.9307 41.9444 23.5347 42.5754C24.3937 43.4724 25.7987 43.2484 26.5307 42.0994C26.6827 41.8604 26.6897 41.4364 26.7297 30.6926L26.7707 19.5347L28.7676 23.4137C29.8646 25.5476 30.8626 27.4026 30.9836 27.5346C31.0096 27.5646 31.0296 27.5936 31.0546 27.6246C30.4216 27.9846 29.8956 28.7176 29.7106 29.8116H30.3686C30.6096 28.8436 31.1596 28.3006 31.7396 28.1656C32.0206 28.2486 32.2856 28.2746 32.5286 28.2376C33.1286 28.5006 33.6156 29.2416 33.6366 30.4646V30.4686V42.4464C33.5598 42.5208 33.4969 42.6206 33.453 42.7372C33.4091 42.8539 33.3856 42.984 33.3846 43.1164H33.6366H34.2516H34.5326C34.5313 42.9759 34.5048 42.8382 34.4556 42.7165C34.4064 42.5949 34.3361 42.4932 34.2516 42.4214V30.6106V30.4686H34.2416C34.2146 29.2526 33.8296 28.4116 33.2966 27.9116C33.6846 27.6206 33.9406 27.1936 33.9856 26.7926C34.1106 25.6926 32.8276 23.4827 32.2476 22.3237C32.2476 22.1387 29.7936 17.2847 29.3926 16.6757C28.5756 15.4378 27.6586 14.7068 26.5507 14.4118C26.4297 14.3818 26.0747 14.3568 25.6407 14.3358ZM21.2767 21.9817L19.5408 25.0226C20.9837 25.5626 21.2347 25.5436 21.7027 25.3666C22.3267 25.1316 22.8537 24.3016 22.8067 23.6307C22.7987 23.5267 22.7367 23.2957 22.6697 23.1187C22.5177 22.7167 22.2637 22.4697 21.2767 21.9817Z" fill="#333333"/>
</svg>
