<svg width="48" height="48" viewBox="0 0 48 48" fill="none" xmlns="http://www.w3.org/2000/svg">
<path fill-rule="evenodd" clip-rule="evenodd" d="M21.5711 13C24.0563 13 26.0711 10.9853 26.0711 8.5C26.0711 6.01472 24.0563 4 21.5711 4C19.0858 4 17.0711 6.01472 17.0711 8.5C17.0711 10.9853 19.0858 13 21.5711 13ZM21.5711 11C22.9518 11 24.0711 9.88071 24.0711 8.5C24.0711 7.11929 22.9518 6 21.5711 6C20.1903 6 19.0711 7.11929 19.0711 8.5C19.0711 9.88071 20.1903 11 21.5711 11Z" fill="#333333"/>
<path fill-rule="evenodd" clip-rule="evenodd" d="M11.8081 16.9446C13.0832 15.206 15.2278 15 16.5711 15H26.5711C30.3058 15 32.795 16.6015 34.3324 18.6194C35.5392 20.2033 36.0888 21.9895 36.3318 22.7792L36.3378 22.7988C36.373 22.9129 36.3976 22.9927 36.4171 23.0513C36.8286 24.2859 36.3929 25.5988 35.4254 26.3593C36.3633 26.8665 37.0005 27.8588 37.0005 29V43C37.0005 43.5523 36.5528 44 36.0005 44C35.4482 44 35.0005 43.5523 35.0005 43V29C35.0005 28.4477 34.5528 28 34.0005 28C33.4482 28 33.0005 28.4477 33.0005 29V29.6667C33.0005 30.219 32.5528 30.6667 32.0005 30.6667C31.4482 30.6667 31.0005 30.219 31.0005 29.6667V29C31.0005 28.0426 31.449 27.1899 32.1473 26.6406C31.4986 26.291 30.9765 25.703 30.725 24.9487C30.6795 24.8121 30.6352 24.673 30.5921 24.5377L30.6056 24.5715L30.5811 24.503C30.3177 23.6742 30.0726 22.9288 29.5598 22.2556C29.324 21.9461 29.0204 21.641 28.5711 21.409L28.5711 41.1507C28.5711 42.7505 27.3157 44.0688 25.7178 44.1471C24.1199 44.2253 22.7417 43.0359 22.5854 41.4438L21.8547 34H21.2875L20.5567 41.4438C20.4004 43.0359 19.0223 44.2253 17.4244 44.1471C15.8265 44.0688 14.5711 42.7505 14.5711 41.1507L14.5711 26.6011C14.332 26.2933 14.1019 25.9915 13.8825 25.6964C12.9476 24.4392 12.0835 23.1447 11.5636 21.9318C11.1293 20.9184 10.4396 18.8107 11.8081 16.9446ZM16.5711 17C15.2869 17 14.0742 17.2366 13.4209 18.1274C12.7387 19.0576 13.0032 20.2136 13.4019 21.1439C13.8253 22.1318 14.5719 23.2718 15.4874 24.503C15.759 24.8682 16.0499 25.2473 16.3577 25.6393L16.406 25.7009L18.1019 23.9242C17.5362 23.1526 16.9645 22.4017 16.3163 21.6561C15.954 21.2392 15.9981 20.6076 16.4149 20.2453C16.8318 19.883 17.4634 19.9271 17.8257 20.3439C18.4407 21.0514 18.9872 21.7579 19.504 22.4553L24.7113 17H16.5711ZM27.4169 17.0339C27.382 17.089 27.3412 17.1415 27.2944 17.1905L20.7003 24.0986C21.1897 24.7708 21.6826 25.4333 22.2283 26.1003C23.2775 27.3826 23.0885 29.2727 21.8061 30.3218C20.5238 31.371 18.6337 31.182 17.5846 29.8997C17.2642 29.5082 16.9246 29.1166 16.5711 28.7165L16.5711 41.1507C16.5711 41.684 16.9895 42.1234 17.5222 42.1495C18.0548 42.1756 18.5142 41.7791 18.5663 41.2484L19.4742 32H23.668L24.5759 41.2484C24.628 41.7791 25.0874 42.1756 25.62 42.1495C26.1526 42.1234 26.5711 41.684 26.5711 41.1507L26.5711 18.9113L27.7165 19.0797C29.4583 19.3358 30.4868 20.1723 31.1507 21.0435C31.8883 22.0117 32.2206 23.0581 32.4734 23.854L32.4872 23.8972C32.5344 24.0459 32.5782 24.1836 32.6224 24.3162C32.797 24.8402 33.3634 25.1233 33.8873 24.9487C34.4113 24.774 34.6944 24.2077 34.5198 23.6838C34.492 23.6003 34.4605 23.4983 34.4289 23.3954L34.4263 23.3871C34.1872 22.6103 33.7217 21.118 32.7415 19.8315C31.6741 18.4305 30.0057 17.2462 27.4169 17.0339ZM19.2973 25.5685L17.8227 27.1133C18.2694 27.6159 18.716 28.1242 19.1325 28.6332C19.4822 29.0607 20.1122 29.1237 20.5397 28.7739C20.9671 28.4242 21.0301 27.7942 20.6804 27.3667C20.1851 26.7614 19.7309 26.1594 19.2973 25.5685Z" fill="#333333"/>
</svg>
