<svg width="48" height="48" viewBox="0 0 48 48" fill="none" xmlns="http://www.w3.org/2000/svg">
<path d="M21.9998 12C24.209 12 25.9998 10.2091 25.9998 8C25.9998 5.79086 24.209 4 21.9998 4C19.7907 4 17.9998 5.79086 17.9998 8C17.9998 10.2091 19.7907 12 21.9998 12Z" fill="#333333"/>
<path d="M26.0565 15.0292C25.7152 15.0099 25.363 15 24.9998 15H16.9998C16.1214 15 15.3006 15.0764 14.5867 15.2862C13.8739 15.4958 13.0903 15.8929 12.5602 16.6617C12.0079 17.4628 11.95 18.3459 12.0691 19.0665C12.1827 19.7534 12.4699 20.4024 12.7787 20.9638C13.3962 22.0866 14.3769 23.3422 15.4259 24.6057C15.5825 24.7942 15.7428 24.9856 15.9062 25.1794L18.7452 22.3404C18.6635 22.2429 18.583 22.1463 18.5035 22.0506C17.4509 20.7828 16.6973 19.7884 16.2835 19.0362L16.2797 19.0292C16.4733 19.0114 16.7111 19 16.9998 19H17.8924L19.8143 21.2713L26.0565 15.0292Z" fill="#333333"/>
<path d="M20.044 23.8701L17.2069 26.7071C17.7822 27.3799 18.3716 28.0702 18.9634 28.7804C19.6705 29.6289 20.9317 29.7436 21.7802 29.0364C22.6288 28.3293 22.7434 27.0682 22.0363 26.2196C21.402 25.4584 20.7729 24.7225 20.1777 24.0264L20.044 23.8701Z" fill="#333333"/>
<path d="M28.5474 15.3666C31.2725 15.9784 33.0899 17.2863 34.2554 18.7586C35.0292 19.736 35.4577 20.7139 35.6941 21.4539C35.8127 21.8252 35.8849 22.1426 35.9286 22.3793C35.9504 22.4979 35.9653 22.5971 35.9753 22.6737C36.0012 22.872 35.9957 22.8483 35.9913 22.8235C35.9889 22.8092 35.9882 22.8053 35.9885 22.8068L35.9913 22.8235L35.9929 22.8339C36.0847 23.9347 35.2667 24.9014 34.1659 24.9931C33.0742 25.0841 32.1143 24.2801 32.0092 23.193L32.009 23.1915C32.0075 23.1802 32.0033 23.1506 31.995 23.1051C31.9781 23.0137 31.9448 22.8623 31.8837 22.6711C31.7608 22.2861 31.533 21.764 31.1192 21.2414C30.6037 20.5902 29.6871 19.7954 27.9998 19.3485V42C27.9998 43.0722 27.1543 43.9537 26.0829 43.9983C25.0116 44.0428 24.0958 43.2346 24.0067 42.1661L23.0067 30.1661C23.0021 30.1106 22.9998 30.0552 22.9998 30H22.9495C24.2498 28.7286 24.3648 26.6493 23.1717 25.2392L21.1106 22.8034L28.5474 15.3666Z" fill="#333333"/>
<path d="M16.1412 27.7673C16.0964 27.8049 16.0491 27.8379 15.9998 27.8663V42C15.9998 43.0722 16.8454 43.9537 17.9167 43.9983C18.988 44.0428 19.9039 43.2346 19.9929 42.1661L20.9256 30.9744C19.7947 31.1119 18.6188 30.6954 17.828 29.7608L16.1412 27.7673Z" fill="#333333"/>
<path d="M32.9998 25C31.343 25 29.9998 26.3431 29.9998 28V28.8333C29.9998 29.3856 30.4475 29.8333 30.9998 29.8333C31.5521 29.8333 31.9998 29.3856 31.9998 28.8333V28C31.9998 27.4477 32.4475 27 32.9998 27C33.5521 27 33.9998 27.4477 33.9998 28V43C33.9998 43.5523 34.4475 44 34.9998 44C35.5521 44 35.9998 43.5523 35.9998 43V28C35.9998 26.3431 34.6567 25 32.9998 25Z" fill="#333333"/>
</svg>
