<svg width="48" height="48" viewBox="0 0 48 48" fill="none" xmlns="http://www.w3.org/2000/svg">
<g clip-path="url(#clip0)">
<path fill-rule="evenodd" clip-rule="evenodd" d="M0.03125 0.0625V48.0625H48.0312V0.0625H0.03125ZM27.0156 4.14648C27.6029 4.1462 28.1845 4.25957 28.7272 4.4801C29.2699 4.70063 29.763 5.02401 30.1783 5.43175C30.5937 5.83949 30.9232 6.32361 31.1479 6.85644C31.3727 7.38927 31.4884 7.96037 31.4883 8.53711C31.4884 9.11385 31.3727 9.68495 31.1479 10.2178C30.9232 10.7506 30.5937 11.2347 30.1783 11.6425C29.763 12.0502 29.2699 12.3736 28.7272 12.5941C28.1845 12.8146 27.6029 12.928 27.0156 12.9277C25.8305 12.9268 24.6943 12.4637 23.8567 11.6404C23.0191 10.8171 22.5487 9.7009 22.5488 8.53711C22.5487 7.37332 23.0191 6.2571 23.8567 5.43378C24.6943 4.61047 25.8305 4.14744 27.0156 4.14648ZM27.3457 13.707H31.3867V13.7188C32.1159 13.7282 32.8135 14.1334 33.1562 14.8359L38.0586 24.8789C38.5439 25.8733 38.1331 27.0655 37.1387 27.5508C36.1443 28.0359 34.9541 27.6291 34.4688 26.6348L31.3867 20.3145V42.1016C31.3867 43.2081 30.497 44.0977 29.3906 44.0977C28.2841 44.0977 27.3906 43.2081 27.3906 42.1016V30.3555H26.4297V42.1016C26.4297 43.2081 25.5362 44.0977 24.4297 44.0977C23.3232 44.0977 22.4355 43.2081 22.4355 42.1016V20.332L19.3594 26.6309C19.1998 26.968 18.3335 27.7369 17.3535 27.7012L16.5215 29.9141C17.1462 30.4084 17.5527 31.1652 17.5527 32.0273V40.7891C17.5527 42.1832 16.5052 43.3098 15.1523 43.459V42.8438C15.1523 42.6102 14.9659 42.4238 14.7324 42.4238H14.4023C14.1688 42.4238 13.9805 42.6102 13.9805 42.8438V43.4902H13.1152V42.8438C13.1152 42.6102 12.9288 42.4238 12.6953 42.4238H12.3652C12.1317 42.4238 11.9434 42.6102 11.9434 42.8438V43.4121C10.7528 43.1298 9.86914 42.0684 9.86914 40.7891V32.0254C9.86914 30.529 11.0759 29.3242 12.5723 29.3242H14.8535C15.0944 29.3242 15.3249 29.3631 15.5469 29.4219L16.3477 27.293C15.63 26.7221 15.3521 25.7423 15.7715 24.8828L16.9258 22.5195C17.5004 21.3452 17.6 21.1317 17.875 20.5742L20.6738 14.8379C21.0153 14.1383 21.7097 13.739 22.4355 13.7246V13.7188L26.4727 13.7109L27.3457 13.707ZM12.4121 42.6445H12.6309C12.784 42.6445 12.9043 42.7687 12.9043 42.9219V43.8184C12.9043 43.9715 12.784 44.0938 12.6309 44.0938H12.4121C12.259 44.0938 12.1367 43.9715 12.1367 43.8184V42.9219C12.1367 42.7687 12.259 42.6445 12.4121 42.6445ZM14.4707 42.6445H14.6836C14.8367 42.6445 14.959 42.7687 14.959 42.9219V43.8184C14.959 43.9715 14.8367 44.0938 14.6836 44.0938H14.4707C14.3176 44.0938 14.1914 43.9715 14.1914 43.8184V42.9219C14.1914 42.7687 14.3176 42.6445 14.4707 42.6445Z" fill="#333333"/>
</g>
<defs>
<clipPath id="clip0">
<rect width="48" height="48" fill="white"/>
</clipPath>
</defs>
</svg>
