<svg width="48" height="48" viewBox="0 0 48 48" fill="none" xmlns="http://www.w3.org/2000/svg">
<path fill-rule="evenodd" clip-rule="evenodd" d="M27.0156 4.14648C25.8305 4.14745 24.6943 4.61047 23.8567 5.43378C23.0191 6.2571 22.5487 7.37333 22.5488 8.53712C22.5487 9.7009 23.0191 10.8171 23.8567 11.6404C24.6943 12.4637 25.8305 12.9268 27.0156 12.9277C27.6029 12.928 28.1845 12.8147 28.7272 12.5941C29.2699 12.3736 29.763 12.0502 30.1783 11.6425C30.5937 11.2347 30.9232 10.7506 31.1479 10.2178C31.3727 9.68495 31.4884 9.11386 31.4883 8.53712C31.4884 7.96038 31.3727 7.38927 31.1479 6.85644C30.9232 6.32361 30.5937 5.83949 30.1783 5.43175C29.763 5.02401 29.2699 4.70063 28.7272 4.4801C28.1845 4.25957 27.6029 4.14621 27.0156 4.14648ZM27.0176 4.66602C29.1937 4.66537 30.9572 6.39877 30.957 8.53712C30.9572 10.6755 29.1937 12.4088 27.0176 12.4082C24.8426 12.4072 23.08 10.6743 23.0801 8.53712C23.08 6.39991 24.8426 4.667 27.0176 4.66602ZM27.3457 13.707L26.4727 13.7109L22.4355 13.7188V13.7246C21.7097 13.739 21.0153 14.1383 20.6738 14.8379L17.875 20.5742C17.6 21.1317 17.5004 21.3452 16.9258 22.5195L15.7715 24.8828C15.3521 25.7423 15.63 26.7221 16.3477 27.293L15.5469 29.4219C15.3249 29.3631 15.0944 29.3242 14.8535 29.3242H12.5723C11.0759 29.3242 9.86914 30.529 9.86914 32.0254V40.7891C9.86914 42.0684 10.7528 43.1298 11.9434 43.4121V42.8438C11.9434 42.6102 12.1317 42.4238 12.3652 42.4238H12.6953C12.9288 42.4238 13.1152 42.6102 13.1152 42.8438V43.4902H13.9805V42.8438C13.9805 42.6102 14.1688 42.4238 14.4023 42.4238H14.7324C14.9659 42.4238 15.1523 42.6102 15.1523 42.8438V43.459C16.5052 43.3098 17.5527 42.1832 17.5527 40.7891V32.0273C17.5527 31.1652 17.1462 30.4084 16.5215 29.9141L17.3535 27.7012C18.3335 27.7369 19.1998 26.968 19.3594 26.6309L22.4355 20.332V42.1016C22.4355 43.2081 23.3232 44.0977 24.4297 44.0977C25.5362 44.0977 26.4297 43.2081 26.4297 42.1016V30.3555H27.3906V42.1016C27.3906 43.2081 28.2841 44.0977 29.3906 44.0977C30.497 44.0977 31.3867 43.2081 31.3867 42.1016V20.3145L34.4688 26.6348C34.9541 27.6291 36.1443 28.0359 37.1387 27.5508C38.1331 27.0655 38.5439 25.8733 38.0586 24.8789L33.1562 14.8359C32.8135 14.1334 32.1159 13.7282 31.3867 13.7188V13.707H27.3457ZM31.3379 14.1992C32.0671 14.2087 32.46 14.6647 32.8027 15.3672L37.6055 25.0117C38.0908 26.0061 37.8499 26.626 36.8555 27.1113C35.8611 27.5964 35.3525 27.2756 34.8672 26.2812L30.8125 17.9277L30.9121 41.9688C30.9167 43.0753 30.5049 43.6035 29.3984 43.6035C28.2919 43.6035 27.876 42.9874 27.877 41.8809L27.8887 29.8359L25.9316 29.8418L25.8984 42.1895C25.8955 43.296 25.5167 43.6348 24.4102 43.6348C23.3036 43.6348 22.9796 43.0811 22.9785 41.9746L22.9551 17.9004L18.957 26.3262C18.7975 26.6634 17.9995 27.2662 17.0195 27.2305L15.873 30.1484C16.4978 30.6428 17.0172 31.1437 17.0215 32.0059C17.0362 34.9264 17.0302 37.8685 17.0449 40.7891C17.0505 41.8925 16.6575 42.4308 15.4688 42.873L15.457 42.6836C15.4435 42.4505 15.5516 41.9361 14.7871 41.9277L14.4336 41.9238C13.9011 41.918 13.7305 42.0988 13.7188 42.332L13.6875 42.959L13.4609 42.9629C13.4584 42.5235 13.5634 41.9206 12.7754 41.9199L12.2891 41.9258C11.7609 41.9314 11.7512 42.1508 11.7012 42.3789L11.6387 42.6582C10.7293 42.3095 10.4021 41.8675 10.4004 40.6113L10.3926 36.002L10.3887 32.8789C10.3866 31.3825 10.899 30.0823 12.3945 30.0312L14.9863 29.9434C15.2271 29.9351 15.5242 30.0174 15.7461 30.0762L16.8828 27.1719C16.1652 26.601 15.9927 25.627 16.4121 24.7676C17.757 22.0139 19.4655 18.5297 21.0723 15.2363C21.3709 14.7275 21.8809 14.2444 22.6133 14.2051L26.2363 14.2188L27.4512 14.2148C28.6968 14.1939 30.1376 14.1973 31.3379 14.1992ZM12.4121 42.6445C12.259 42.6445 12.1367 42.7687 12.1367 42.9219V43.8184C12.1367 43.9715 12.259 44.0938 12.4121 44.0938H12.6309C12.784 44.0938 12.9043 43.9715 12.9043 43.8184V42.9219C12.9043 42.7687 12.784 42.6445 12.6309 42.6445H12.4121ZM14.4707 42.6445C14.3176 42.6445 14.1914 42.7687 14.1914 42.9219V43.8184C14.1914 43.9715 14.3176 44.0938 14.4707 44.0938H14.6836C14.8367 44.0938 14.959 43.9715 14.959 43.8184V42.9219C14.959 42.7687 14.8367 42.6445 14.6836 42.6445H14.4707Z" fill="#333333"/>
</svg>
