<svg width="48" height="48" viewBox="0 0 48 48" fill="none" xmlns="http://www.w3.org/2000/svg">
<g clip-path="url(#clip0)">
<path fill-rule="evenodd" clip-rule="evenodd" d="M0.00390625 0V48H48.0039V0H0.00390625ZM11.0566 7.24219H11.5488H30.4609H31.4258H31.9023L29.2559 22.6855L34.1348 22.7246L33.1289 31.7168H33.3125H34.5957C34.5348 31.7107 34.4863 31.6609 34.4863 31.5977C34.4863 31.5302 34.5418 31.4746 34.6094 31.4746H34.7891V30.6914H33.8691C33.7374 30.6914 33.6309 30.5847 33.6309 30.4531C33.6309 30.3212 33.7374 30.2148 33.8691 30.2148L36.0137 30.2188C36.1454 30.2188 36.252 30.3255 36.252 30.457C36.252 30.5889 36.1454 30.6934 36.0137 30.6934H35.0938V31.4785H35.2734C35.341 31.4785 35.3945 31.5322 35.3945 31.5996C35.3945 31.6625 35.3481 31.712 35.2871 31.7188H37.2012C37.6581 31.7188 38.0254 32.0879 38.0254 32.5449V32.7988V32.8184V33.6426H37.2012H36.377V33.3691H34.7051H33.3125H32.9453L32.4121 38.1309H9.38477L8.10547 22.7266L12.6992 22.6875L10.2305 7.24414L11.0566 7.24219ZM11.8945 9.24219L12.6484 13.7637C13.8709 13.7581 14.6468 12.1453 16.4238 11.5059C17.7566 10.9417 19.9982 11.7794 21.3145 12.6523C24.0134 13.9227 25.8208 10.4075 28.2227 13.707C28.8018 14.0837 28.8739 14.0308 29.2988 14.1035C29.5742 12.5209 29.8516 10.8654 30.123 9.24219H11.8945ZM15.5254 19.3945L16.084 24.5078H14.5215V19.4453H13.3535L13.8613 24.5078H9.93555L10.3691 29.7754C12.585 31.0479 14.788 30.6406 16.9883 29.6484C18.3211 29.0436 19.6525 28.7457 20.9688 29.6816C21.9855 30.2128 22.9924 30.7542 24.9648 29.668C26.1118 29.1237 27.252 28.8335 28.3828 28.8242C29.4451 28.8143 30.4998 29.0611 31.5469 29.5605L32.1074 24.5078H27.793L28.7559 19.4961L27.1328 19.4453V24.5078H25.5684L26.4805 19.4453H24.9082V24.5078H23.3438L24.207 19.4453H22.6855V24.5078H21.1191L21.5254 19.4453H20.0547L20.4609 24.5078H18.9668V19.4453L17.5977 19.5469L18.3086 24.5078H16.7441V19.4453L15.5254 19.3945ZM18.6621 24.7695C18.6621 24.7695 19.5234 25.8355 19.5234 26.457C19.5234 27.0791 19.1347 27.5798 18.6582 27.5801C18.1819 27.5803 17.7988 27.0794 17.7988 26.457C17.7988 25.8352 18.6137 24.7203 18.6621 24.7695ZM27.5137 25.2441C27.5137 25.2441 28.373 26.3101 28.373 26.9316C28.373 27.5537 27.9824 28.0564 27.5059 28.0566C27.0296 28.0569 26.6484 27.554 26.6484 26.9316C26.6484 26.3098 27.4652 25.1949 27.5137 25.2441ZM23.043 25.4902C23.043 25.4902 23.9023 26.5562 23.9023 27.1777C23.9023 27.7998 23.5156 28.3025 23.0391 28.3027C22.5628 28.303 22.1797 27.8001 22.1797 27.1777C22.1797 26.5559 22.9945 25.441 23.043 25.4902ZM14.3047 25.4941C14.3047 25.4941 15.1641 26.562 15.1641 27.1836C15.1641 27.8057 14.7773 28.3064 14.3008 28.3066C13.8245 28.3069 13.4395 27.8059 13.4395 27.1836C13.4395 26.5618 14.2563 25.4449 14.3047 25.4941ZM36.1738 33.7734H38.3379C38.5151 33.7734 38.6562 33.9165 38.6562 34.0938V34.6367C38.6562 34.8141 38.5151 34.957 38.3379 34.957H36.1738C35.9967 34.957 35.8535 34.8139 35.8535 34.6367V34.0938C35.8535 33.9164 35.9966 33.7734 36.1738 33.7734ZM37.5508 35.123C37.5508 35.123 39.9023 37.2555 39.9023 38.502C39.9023 39.7482 38.8365 40.7575 37.5293 40.7578C36.2217 40.7581 35.1641 39.7484 35.1641 38.502C35.1641 37.2552 37.4181 35.0245 37.5508 35.123Z" fill="#333333"/>
</g>
<defs>
<clipPath id="clip0">
<rect width="48" height="48" fill="white"/>
</clipPath>
</defs>
</svg>
