<svg width="48" height="48" viewBox="0 0 48 48" fill="none" xmlns="http://www.w3.org/2000/svg">
<path fill-rule="evenodd" clip-rule="evenodd" d="M15.0002 9.5C15.0002 9.0625 19.5162 6 24.0002 6C28.4842 6 33.0002 9.0625 33.0002 9.5C33.0002 11.06 32.8345 11.9838 32.6939 12.4869C32.6016 12.817 32.2924 13 31.9496 13H16.0509C15.708 13 15.3988 12.8169 15.3065 12.4868C15.1659 11.9836 15.0002 11.0598 15.0002 9.5ZM22.5002 9C21.9479 9 21.5002 9.44772 21.5002 10C21.5002 10.5523 21.9479 11 22.5002 11H25.5002C26.0525 11 26.5002 10.5523 26.5002 10C26.5002 9.44772 26.0525 9 25.5002 9H22.5002Z" fill="#333333"/>
<path fill-rule="evenodd" clip-rule="evenodd" d="M16.038 19.218C12.7078 18.1878 13.5481 16.3488 14.8189 15H33.4601C34.476 16.2976 35.0212 18.0489 31.9497 19.0973C31.9831 19.3938 32.0002 19.6951 32.0002 20C32.0002 24.4183 28.4185 28 24.0002 28C19.5819 28 16.0002 24.4183 16.0002 20C16.0002 19.7364 16.013 19.4755 16.038 19.218ZM23.7277 20C26.3705 20 28.4174 19.8602 29.9881 19.6157C29.9961 19.7427 30.0002 19.8708 30.0002 20C30.0002 23.3137 27.3139 26 24.0002 26C20.6865 26 18.0002 23.3137 18.0002 20C18.0002 19.8942 18.0029 19.7891 18.0083 19.6847C19.4708 19.8865 21.3461 20 23.7277 20Z" fill="#333333"/>
<path fill-rule="evenodd" clip-rule="evenodd" d="M32.4177 34.5991C30.639 31.8326 27.5336 30 24.0002 30C20.4655 30 17.3592 31.8339 15.5808 34.6021C15.2561 34.1035 14.7533 33.7184 14.1333 33.5523L12.2015 33.0347C10.8678 32.6773 9.49696 33.4688 9.13961 34.8024L8.36315 37.7002C8.0058 39.0339 8.79725 40.4047 10.1309 40.7621L12.0628 41.2797C12.7459 41.4628 13.4388 41.3444 14.0002 41.0061C14.0035 41.5556 14.45 42 15.0002 42C15.5525 42 16.0002 41.5523 16.0002 41V40C16.0002 39.619 16.0268 39.2442 16.0784 38.8774L21.2823 40.2717C21.7609 41.2928 22.798 42 24.0002 42C25.2024 42 26.2395 41.2928 26.7181 40.2717L31.9221 38.8774C31.9736 39.2442 32.0002 39.619 32.0002 40V41C32.0002 41.5523 32.4479 42 33.0002 42C33.5493 42 33.995 41.5575 34.0002 41.0096C34.5608 41.3458 35.2519 41.4631 35.9332 41.2805L37.8651 40.7629C39.1987 40.4055 39.9902 39.0347 39.6328 37.701L38.8564 34.8032C38.499 33.4696 37.1282 32.6781 35.7945 33.0355L33.8626 33.5531C33.2443 33.7188 32.7425 34.1024 32.4177 34.5991ZM16.6032 36.9474C17.6812 34.3382 20.0996 32.4236 23.0002 32.0619V36.1707C22.0959 36.4903 21.3905 37.2313 21.1201 38.1577L16.6032 36.9474ZM31.3972 36.9474C30.3192 34.3382 27.9008 32.4236 25.0002 32.0619V36.1707C25.9046 36.4903 26.6099 37.2313 26.8804 38.1577L31.3972 36.9474ZM24.0002 40C24.5525 40 25.0002 39.5523 25.0002 39C25.0002 38.4477 24.5525 38 24.0002 38C23.4479 38 23.0002 38.4477 23.0002 39C23.0002 39.5523 23.4479 40 24.0002 40Z" fill="#333333"/>
</svg>
