<svg width="48" height="48" viewBox="0 0 48 48" fill="none" xmlns="http://www.w3.org/2000/svg">
<path fill-rule="evenodd" clip-rule="evenodd" d="M24.0153 2H23.9847C20.5194 1.99999 17.5942 1.99999 15.5657 4.8C15.4338 4.98206 15.2989 5.15907 15.1663 5.33306C14.3793 6.36583 13.6735 7.29195 14.16 8.53333C14.2805 8.84083 14.3437 9.25115 14.411 9.68771C14.5814 10.7945 14.7779 12.07 16 12.2667C16.5312 12.3522 16.998 12.7511 17.2495 13.2268C18.0937 14.8234 20.9603 16 24 16C27.0397 16 29.9063 14.8234 30.7505 13.2268C31.002 12.7511 31.4688 12.3522 32 12.2667C33.2221 12.07 33.4186 10.7945 33.589 9.68775C33.6563 9.25125 33.7195 8.84079 33.84 8.53333C34.3265 7.29195 33.6207 6.36583 32.8337 5.33307C32.7011 5.15908 32.5662 4.98206 32.4343 4.8C30.4058 1.99999 27.4806 1.99999 24.0153 2ZM18.9999 4.99998H20.9999V6.99998H18.9999V4.99998ZM22.9999 6.99998V8.99998H20.9999V6.99998H22.9999ZM24.9999 6.99998H22.9999V4.99998H24.9999V6.99998ZM26.9999 6.99998V8.99998H24.9999V6.99998H26.9999ZM26.9999 6.99998V4.99998H28.9999V6.99998H26.9999Z" fill="#333333"/>
<path d="M24 28C18.66 28 8 30.68 8 36V40H12.0945C12.0328 39.6804 12 39.3453 12 39C12 36.7909 13.3431 35 15 35C15.1635 35 15.3239 35.0174 15.4802 35.051C15.915 33.7992 16.6428 32.6672 17.655 31.655C19.41 29.9 21.525 29 24 29C26.475 29 28.59 29.9 30.345 31.655C31.3572 32.6672 32.085 33.7992 32.5198 35.051C32.6761 35.0174 32.8365 35 33 35C34.6569 35 36 36.7909 36 39C36 39.3453 35.9672 39.6804 35.9055 40H40V36C40 30.68 29.34 28 24 28Z" fill="#333333"/>
<path d="M28.743 32.6C29.8444 33.5999 30.5724 34.769 30.9317 36.1025C30.704 36.3917 30.5102 36.7281 30.3594 37.1H28.5C27.4919 37.1 27.1613 36.5973 26.7439 35.9625C26.5439 35.6584 26.3239 35.3239 26 35C25 34 23 34 22 35C21.6761 35.3239 21.4561 35.6584 21.2561 35.9625C20.8387 36.5973 20.5081 37.1 19.5 37.1H17.6406C17.4898 36.7281 17.296 36.3917 17.0683 36.1025C17.4276 34.769 18.1556 33.5999 19.257 32.6C20.616 31.394 22.2 30.8 24 30.8C25.8 30.8 27.384 31.394 28.743 32.6Z" fill="#333333"/>
<path d="M30.0009 38.9H28.428C27.4494 38.9 27.025 38.9 26.6775 39.0635C26.4114 39.1886 26.1903 39.4097 25.8 39.8C25.728 39.872 25.6618 39.9382 25.6009 40H30.0945C30.0328 39.6804 30 39.3453 30 39C30 38.9666 30.0003 38.9332 30.0009 38.9Z" fill="#333333"/>
<path d="M17.9055 40C17.9672 39.6804 18 39.3453 18 39C18 38.9666 17.9997 38.9332 17.9991 38.9H19.572C20.5506 38.9 20.975 38.9 21.3225 39.0635C21.5886 39.1886 21.8097 39.4097 22.2 39.8C22.272 39.872 22.3382 39.9382 22.3991 40H17.9055Z" fill="#333333"/>
<path d="M24 39C24.8284 39 25.5 38.3284 25.5 37.5C25.5 36.6716 24.8284 36 24 36C23.1716 36 22.5 36.6716 22.5 37.5C22.5 38.3284 23.1716 39 24 39Z" fill="#333333"/>
<path d="M24 17C27.0018 17 29.7228 15.7976 31.7076 13.8481C31.8981 14.5328 32 15.2544 32 16C32 20.42 28.42 24 24 24C19.58 24 16 20.42 16 16C16 15.2544 16.1019 14.5328 16.2924 13.8481C18.2772 15.7976 20.9982 17 24 17Z" fill="#333333"/>
</svg>
