<?xml version="1.0" encoding="UTF-8" standalone="no"?>
<!-- Created with Inkscape (http://www.inkscape.org/) -->
<svg id="svg8" xmlns:rdf="http://www.w3.org/1999/02/22-rdf-syntax-ns#" xmlns="http://www.w3.org/2000/svg" xmlns:osb="http://www.openswatchbook.org/uri/2009/osb" height="48" width="48" version="1.1" xmlns:cc="http://creativecommons.org/ns#" viewBox="0 0 12.7 12.7" xmlns:dc="http://purl.org/dc/elements/1.1/">
 <title id="title4753">UIO-icon</title>
 <metadata id="metadata5">
  <rdf:RDF>
   <cc:Work rdf:about="">
    <dc:format>image/svg+xml</dc:format>
    <dc:type rdf:resource="http://purl.org/dc/dcmitype/StillImage"/>
    <dc:title>UIO-icon</dc:title>
    <dc:creator>
     <cc:Agent>
      <dc:title>Joaquín Urbano</dc:title>
     </cc:Agent>
    </dc:creator>
    <dc:rights>
     <cc:Agent>
      <dc:title>GPL</dc:title>
     </cc:Agent>
    </dc:rights>
   </cc:Work>
  </rdf:RDF>
 </metadata>
 <g id="layer1" transform="translate(0,-284.3)" fill="#333">
  <path id="path1933" d="m6.3288 285.28 0.00051673 0.0005167c-0.14183 0.00012-0.25672 0.060199-0.25683 0.13436-0.0001321 0.004 0.00001479 0.00797 0.00051673 0.011369-0.33703 0.047-0.64234 0.18007-0.88935 0.39274-0.30207 0.26007-0.48618 0.62201-0.53692 1.0557-0.0081 0.0692-0.010852 0.18016-0.010852 0.42013 0 0.24151 0.011687 0.41548 0.018087 0.41548 0.0047 0 0.030551-0.00955 0.081132-0.025322 0.21104-0.052186 0.79029-0.15794 1.2521-0.15451 0.20606-0.0125 0.8342-0.0007144 1.0516 0.011886 0.39289 0.0229 0.71951 0.094096 0.93379 0.14573 0.05124 0.01 0.076513 0.022738 0.081649 0.022738 0.01175 0.00005 0.013606-0.68922 0.0020672-0.80667-0.03915-0.39797-0.19975-0.75173-0.45734-1.0077-0.26701-0.26533-0.61863-0.42788-1.0134-0.47491 0.00026458-0.002 0.0010335-0.00423 0.0010335-0.00723-0.0001468-0.0742-0.11583-0.13439-0.25787-0.13436zm0.014469 2.3823c-0.25436 0.00002-0.50643 0.00504-0.65009 0.016536-0.39735 0.0308-0.71721 0.080601-0.9555 0.14831-0.16343 0.0465-0.24022 0.087391-0.27492 0.14676-0.0226 0.0387-0.2465 0.9179-0.2465 0.9679 0 0.0978 0.081392 0.19117 0.17932 0.20567 0.03831 0.006 0.078419-0.00449 0.12764-0.024288v1.17c0 0.55151 0.13639 1.0992 0.5271 1.3451 0.55299 0.34811 0.82739 0.57703 1.3141 0.59221 0.33335 0.001 0.75963-0.3003 1.2196-0.58808 0.41356-0.25878 0.62477-0.8006 0.62477-1.3493-0.0027-0.38672-0.007301-0.77338-0.010852-1.1601 0.03109 0.0122 0.049838 0.01612 0.075448 0.01602 0.08227-0.0004199 0.14408-0.035603 0.18552-0.10645 0.04245-0.0724 0.041574-0.078299-0.083716-0.57826-0.06251-0.24943-0.11927-0.46429-0.12609-0.47749-0.019129-0.037-0.063801-0.077702-0.10852-0.098702-0.19368-0.091-0.64053-0.17361-1.1343-0.20981-0.15191-0.0111-0.40813-0.01602-0.66249-0.01602zm0.0062012 1.0682c0.13912 0 0.27875 0.00175 0.36018 0.00775 0.50512 0.0358 0.98848 0.1788 1.355 0.3514 0.0035 0.38782 0.0049347 0.79104 0.0072347 1.1787 0 0.49617-0.15828 0.99542-0.53227 1.2294-0.40423 0.27195-0.8716 0.59474-1.1731 0.59376-0.44018-0.0126-0.69881-0.19724-1.1989-0.51211-0.35333-0.22239-0.50608-0.8371-0.50695-1.3358l-0.0020672-1.1896c0.3478-0.16296 0.8304-0.27925 1.3338-0.31574 0.07949-0.006 0.21796-0.00775 0.35708-0.00775zm-0.78083 0.52193c-0.11615 0.00003-0.2103 0.094203-0.21032 0.21032 0.000024101 0.11614 0.09418 0.21029 0.21032 0.21032 0.11615-0.00003 0.2103-0.094193 0.21032-0.21032-0.000026202-0.11615-0.094181-0.21029-0.21032-0.21032zm1.5792 0c-0.11615 0.00003-0.2103 0.094203-0.21032 0.21032 0.000024101 0.11614 0.09417 0.21029 0.21032 0.21032 0.11615-0.00003 0.2103-0.094193 0.21032-0.21032-0.000026101-0.11615-0.094171-0.21029-0.21032-0.21032zm-0.80305 0.971c-0.10005 0.001-0.17728 0.018674-0.17622 0.039274 0.00052917 0.0214 0.085302 0.038857 0.18965 0.038757 0.10435 0.00001 0.18912-0.017357 0.18965-0.038757 0.00079375-0.0217-0.084309-0.039274-0.18965-0.039274-0.0045-0.00003-0.0089949-0.00003-0.013436 0zm0.0093018 0.67438c-0.38412 0.0009801-0.68087 0.012772-0.67748 0.026872 0.0049 0.0146 0.33001 0.026355 0.72915 0.026355 0.39895 0 0.7237-0.011855 0.72864-0.026355 0.00259-0.0148-0.32439-0.026872-0.72864-0.026872-0.017219-0.00002-0.034466-0.00002-0.051676 0zm-1.3906 1.2501c-0.06062 0.017-0.11903 0.036694-0.17828 0.055294l1.0423 1.0433c-0.071397 0.00814-0.14256 0.018133-0.21342 0.029972-0.02767 0.00397-0.055616 0.00578-0.083199 0.010335l-0.96222-0.96377-0.00051673 0.0005168-0.035657-0.036173c-0.72434 0.25902-1.3803 0.61797-2.2149 0.90795-0.67339 0.19878-0.67334 0.75857-0.67334 1.0635v1.7627h3.4478l-0.71107-1.5394c0.043311-0.027001 0.087248-0.053019 0.13177-0.078031l0.74724 1.6175h1.8428l0.83096-1.6061c0.044184 0.025197 0.087776 0.051386 0.13074 0.078548l-0.79013 1.5276h3.7812v-1.7627c0-0.30493 0.00004204-0.86472-0.67334-1.0635-0.8347-0.29005-1.4912-0.6485-2.2159-0.90744l-0.036174 0.03669-0.00051673-0.0005167-1.0082 1.0087c-0.092513-0.021458-0.18576-0.039728-0.27957-0.054777l1.0728-1.0744c-0.05926-0.0186-0.11765-0.038294-0.17828-0.055294l-1.1012 1.1012c-0.017509-0.00191-0.03518-0.00143-0.05271-0.0031-0.10601-0.00995-0.21237-0.01581-0.31884-0.01757-0.016222-0.0002335-0.03235-0.00255-0.048576-0.00258-0.055844 0.0007128-0.11167 0.00261-0.16743 0.00568l-0.25683-0.25632zm-0.46612 0.29611 0.87281 0.8723c-0.74117 0.15687-1.4233 0.51386-1.9699 1.0309l-0.67644-0.26923-0.1664 0.12506c-0.34597 0.26109-0.68101 1.1969-0.55242 1.5431 0.021211 0.057107 0.051354 0.09662 0.10852 0.13953h-0.3328l0.0077515-1.8629c0.065202-0.40452 0.29808-0.60821 0.6134-0.71313zm3.7011 0.00155c0.71901 0.29422 1.4285 0.6264 2.157 0.88263 0.44488 0.16279 0.51247 0.47025 0.56276 0.79117l0.001033 1.7663h-0.46715c0.034441-0.033416 0.057522-0.067693 0.074414-0.11317 0.12859-0.3462-0.20645-1.282-0.55242-1.5431l-0.16588-0.12506-0.72967 0.29042c-0.4996-0.49-1.1197-0.84-1.7998-1.02zm-4.3543 0.66663c-0.044142 0.0002492-0.094229 0.00857-0.1509 0.024288-0.15934 0.044187-0.18248 0.074871-0.33331 0.43563-0.14705 0.35172-0.15354 0.39177-0.067179 0.42788 0.060015 0.025092 0.20013-0.0285 0.37827-0.14418 0.1555-0.10097 0.33728-0.21767 0.40411-0.25942 0.11356-0.07093 0.11684-0.087074 0.049093-0.25218-0.065939-0.16069-0.14766-0.23277-0.28009-0.23203zm4.8431 0.026872c-0.13243-0.0007477-0.21415 0.070816-0.28009 0.23151-0.067751 0.16511-0.064468 0.18125 0.049093 0.25218 0.066828 0.041741 0.24861 0.15845 0.40411 0.25942 0.17815 0.11568 0.31826 0.16927 0.37827 0.14418 0.086362-0.036107 0.07987-0.076164-0.067179-0.42788-0.15083-0.36076-0.17397-0.39145-0.33331-0.43563-0.056667-0.015714-0.10675-0.023522-0.1509-0.023771zm-2.4722 0.21239c1.0222 0.00161 2.0037 0.39384 2.7378 1.094-0.19845 0.079349-0.34974 0.1419-0.46767 0.19534-0.63076-0.53681-1.4363-0.83296-2.2701-0.83457-0.80939 0.0005368-1.5933 0.27865-2.2169 0.78652-0.1226-0.053921-0.27033-0.11496-0.47077-0.19482 0.72906-0.67107 1.6895-1.045 2.6877-1.0464zm0 0.59014c0.55985 0.000237 1.1107 0.13883 1.602 0.40308l-0.7969 1.54h-1.6732l-0.7152-1.54c0.48647-0.25859 1.0305-0.39442 1.5834-0.39532zm-1.9467 0.62012 0.61133 1.324h-1.3529c-0.058817-0.026987-0.10876-0.051275-0.18759-0.084233-0.041392-0.017306-0.068072-0.032382-0.10645-0.049609 0.014179-0.030189 0.028823-0.060165 0.043925-0.089917 0.017646 0.00722 0.024209 0.00821 0.042891 0.01602 0.52874 0.22106 0.67837 0.21762 0.7767-0.01757 0.088891-0.21261 0.023423-0.27934-0.48214-0.49144 0.023778-0.029519 0.04807-0.058635 0.072864-0.087333 0.45234 0.18347 0.57839 0.17397 0.67489-0.056844 0.06604-0.15796 0.053278-0.23158-0.22686-0.36897 0.043654-0.032419 0.088109-0.063779 0.13333-0.094052zm3.9083 0.010852c0.06055 0.041981 0.11967 0.08593 0.17725 0.13177-0.23533 0.12308-0.24643 0.19859-0.18448 0.34675 0.091703 0.21934 0.21615 0.23504 0.61495 0.079582 0.025523 0.029877 0.050504 0.060199 0.074931 0.090951-0.44226 0.18947-0.50894 0.26255-0.42426 0.46509 0.096065 0.22977 0.24655 0.2348 0.74621 0.028939 0.016023 0.031619 0.031528 0.063491 0.046509 0.095601-0.013561 0.00581-0.021804 0.010745-0.035657 0.016537-0.054088 0.022614-0.084164 0.038233-0.12867 0.057878h-1.5657zm-4.9914 0.3359c0.062311 0.00802 0.20211 0.056719 0.3669 0.12247-0.023129 0.025502-0.045869 0.051343-0.068213 0.077515-0.20544-0.092152-0.35067-0.16957-0.34055-0.19379 0.0030479-0.00729 0.017614-0.00932 0.041858-0.0062zm6.1609 0.026355c0.024244-0.00312 0.03881-0.00109 0.041858 0.0062 0.011246 0.0269-0.15547 0.11637-0.40308 0.22324-0.021258-0.028579-0.042965-0.056833-0.065112-0.084749 0.19838-0.082263 0.35553-0.13558 0.42633-0.14469zm-6.4658 0.59273c0.03982 0.00219 0.14945 0.04172 0.26923 0.086816-0.014812 0.025824-0.029282 0.051837-0.043408 0.078031-0.13975-0.068501-0.24964-0.12941-0.25321-0.15193-0.0015666-0.00986 0.0077584-0.013997 0.027389-0.012918zm6.7706 0.026355c0.01963-0.00108 0.028955 0.00306 0.027389 0.012919-0.0041755 0.026284-0.14888 0.10376-0.32815 0.18707-0.013549-0.028784-0.027503-0.057381-0.041858-0.085783 0.16302-0.064696 0.29457-0.11157 0.34261-0.1142z"/>
 </g>
</svg>
