<svg width="48" height="48" viewBox="0 0 48 48" fill="none" xmlns="http://www.w3.org/2000/svg">
<path d="M28.428 39.4H29.5135C29.5158 39.4334 29.5184 39.4668 29.5212 39.5H26.9267C27.0191 39.4626 27.1417 39.4349 27.3536 39.419C27.6022 39.4003 27.9306 39.4 28.428 39.4ZM21.0733 39.5H18.4788C18.4816 39.4668 18.4842 39.4334 18.4865 39.4H19.572C20.0694 39.4 20.3978 39.4003 20.6464 39.419C20.8583 39.4349 20.9809 39.4626 21.0733 39.5ZM25 37.5C25 38.0523 24.5523 38.5 24 38.5C23.4477 38.5 23 38.0523 23 37.5C23 36.9477 23.4477 36.5 24 36.5C24.5523 36.5 25 36.9477 25 37.5ZM24 17.5C26.8204 17.5 29.4043 16.4842 31.4046 14.7993C31.4674 15.19 31.5 15.591 31.5 16C31.5 20.1439 28.1439 23.5 24 23.5C19.8561 23.5 16.5 20.1439 16.5 16C16.5 15.591 16.5326 15.19 16.5954 14.7993C18.5957 16.4842 21.1796 17.5 24 17.5Z" stroke="#333333"/>
<path d="M19 5H21V7H23V5H25V7H27V5H29V7H27V9H25V7H23V9H21V7H19V5Z" fill="#333333"/>
</svg>
