<svg width="48" height="48" viewBox="0 0 48 48" fill="none" xmlns="http://www.w3.org/2000/svg">
<path d="M31.8943 10.2424C31.896 10.7522 32.1312 11.2517 32.574 11.6857C30.9062 12.3684 29.9216 13.4479 29.9197 14.5959C29.922 16.3415 32.1732 17.8383 35.2753 18.1565V22.6447C32.6608 22.6749 30.1555 22.7724 27.7245 22.9179C24.2957 26.8335 21.4252 31.2067 27.7245 43.1013H43.0331V22.6442H37.6617V18.156C40.7637 17.8378 43.015 16.3412 43.0173 14.5955C43.0145 13.4472 42.0284 12.3676 40.3591 11.6853C40.8025 11.2514 41.0384 10.7518 41.0407 10.2419C41.0387 9.0546 39.7805 8.00089 37.9157 7.62483C34.7906 7.01148 31.9475 8.97958 31.8942 10.2422L31.8943 10.2424ZM16.986 24.0101C12.6656 24.6449 8.66042 25.4794 4.97992 26.5198V43.1017H16.986C14.8989 38.6041 11.8246 30.9608 16.986 24.0099V24.0101Z" fill="#333333"/>
</svg>
