<svg width="48" height="48" viewBox="0 0 48 48" fill="none" xmlns="http://www.w3.org/2000/svg">
<path d="M40.5 9C41.3284 9 42 8.32843 42 7.5C42 6.67157 41.3284 6 40.5 6C39.6716 6 39 6.67157 39 7.5C39 8.32843 39.6716 9 40.5 9Z" fill="#333333"/>
<path d="M21.1125 14.1716C19.9814 15.0498 18.9045 16.0012 17.8892 17.0209C14.7542 20.1695 12.2672 23.9077 10.5703 28.0221C8.87343 32.1365 8 36.5464 8 41.0001C8 41.5523 7.55228 42.0001 7 42.0001C6.44772 42.0001 6 41.5523 6 41.0001C6 36.285 6.92469 31.6159 8.72138 27.2595C10.5181 22.9031 13.1517 18.9445 16.4719 15.6098C17.7004 14.376 19.0139 13.2366 20.4011 12.1992C20.4712 12.1468 20.546 12.1049 20.6234 12.0734C20.7007 11.9535 20.7964 11.8427 20.9103 11.7453C21.54 11.2069 22.4869 11.281 23.0252 11.9106C23.5636 12.5403 23.4896 13.4871 22.8599 14.0255C22.3566 14.4558 21.6505 14.4949 21.1125 14.1716Z" fill="#333333"/>
<path d="M24.3725 23.4306L25.0958 22.7401L23.7147 21.2935L22.9914 21.984C22.4092 22.5399 21.8499 23.1211 21.3146 23.7255L20.6516 24.4742L22.1489 25.8001L22.8119 25.0515C23.3106 24.4883 23.8312 23.9474 24.3725 23.4306Z" fill="#333333"/>
<path d="M20.1083 28.6536L20.6433 27.8088L18.9535 26.7388L18.4186 27.5837C17.5644 28.9327 16.8094 30.356 16.1613 31.8388L15.7608 32.7551L17.5934 33.5561L17.9939 32.6398C18.6019 31.2489 19.3093 29.9155 20.1083 28.6536Z" fill="#333333"/>
<path d="M16.4948 36.9018L16.7568 35.9368L14.8266 35.4128L14.5646 36.3779C14.3553 37.1489 14.173 37.9307 14.0186 38.7214L13.827 39.7029L15.79 40.0862L15.9816 39.1047C16.1267 38.3612 16.2981 37.6264 16.4948 36.9018Z" fill="#333333"/>
<path d="M31.5288 27.8488C31.588 27.8119 31.6421 27.7698 31.6907 27.7235C32.1325 27.8184 32.6118 27.7135 32.9817 27.3972C33.6114 26.8588 33.6854 25.912 33.147 25.2823C32.6087 24.6527 31.6618 24.5786 31.0322 25.117C30.721 25.3831 30.5456 25.7489 30.5126 26.1268C30.4987 26.1346 30.4849 26.1428 30.4712 26.1513C29.4255 26.8028 28.448 27.5527 27.5547 28.3917C25.7981 30.0415 24.4011 32.0035 23.4467 34.1674C22.4922 36.3316 22 38.6535 22 41.0001C22 41.5523 22.4477 42.0001 23 42.0001C23.5523 42.0001 24 41.5523 24 41.0001C24 38.9342 24.4332 36.8869 25.2766 34.9745C26.1201 33.0619 27.3584 31.3199 28.9238 29.8496C29.72 29.1018 30.5929 28.4318 31.5288 27.8488Z" fill="#333333"/>
<path d="M42 12.5C42 13.3284 41.3284 14 40.5 14C39.6716 14 39 13.3284 39 12.5C39 11.6716 39.6716 11 40.5 11C41.3284 11 42 11.6716 42 12.5Z" fill="#333333"/>
<path d="M40.5 19C41.3284 19 42 18.3284 42 17.5C42 16.6716 41.3284 16 40.5 16C39.6716 16 39 16.6716 39 17.5C39 18.3284 39.6716 19 40.5 19Z" fill="#333333"/>
<path d="M41.5 21.3496C41.5 21.9019 41.0523 22.3496 40.5 22.3496C39.9477 22.3496 39.5 21.9019 39.5 21.3496C39.5 20.7973 39.9477 20.3496 40.5 20.3496C41.0523 20.3496 41.5 20.7973 41.5 21.3496Z" fill="#333333"/>
<path d="M35.4119 9.61774C36.2321 9.5016 36.8029 8.74251 36.6868 7.92226C36.5706 7.10202 35.8115 6.53123 34.9913 6.64737C34.171 6.76351 33.6003 7.52261 33.7164 8.34285C33.8325 9.1631 34.5916 9.73389 35.4119 9.61774Z" fill="#333333"/>
<path d="M37.3879 12.8728C37.5041 13.6931 36.9333 14.4522 36.113 14.5683C35.2928 14.6844 34.5337 14.1137 34.4176 13.2934C34.3014 12.4732 34.8722 11.7141 35.6925 11.5979C36.5127 11.4818 37.2718 12.0526 37.3879 12.8728Z" fill="#333333"/>
<path d="M36.814 19.519C37.6342 19.4028 38.205 18.6438 38.0889 17.8235C37.9727 17.0033 37.2136 16.4325 36.3934 16.5486C35.5731 16.6648 35.0024 17.4239 35.1185 18.2441C35.2346 19.0643 35.9937 19.6351 36.814 19.519Z" fill="#333333"/>
<path d="M38.79 22.7741C38.9062 23.5943 38.3354 24.3534 37.5151 24.4695C36.6949 24.5857 35.9358 24.0149 35.8197 23.1947C35.7035 22.3744 36.2743 21.6153 37.0946 21.4992C37.9148 21.383 38.6739 21.9538 38.79 22.7741Z" fill="#333333"/>
<path d="M29.2915 11.6137C30.0472 11.2741 30.3844 10.3863 30.0448 9.63063C29.7053 8.875 28.8174 8.53773 28.0618 8.87731C27.3062 9.2169 26.9689 10.1047 27.3085 10.8604C27.6481 11.616 28.5359 11.9533 29.2915 11.6137Z" fill="#333333"/>
<path d="M32.0947 14.1912C32.4342 14.9468 32.097 15.8346 31.3413 16.1742C30.5857 16.5138 29.6979 16.1765 29.3583 15.4209C29.0187 14.6653 29.356 13.7774 30.1116 13.4379C30.8672 13.0983 31.7551 13.4355 32.0947 14.1912Z" fill="#333333"/>
<path d="M33.3909 20.7348C34.1465 20.3952 34.4838 19.5073 34.1442 18.7517C33.8046 17.9961 32.9168 17.6588 32.1612 17.9984C31.4055 18.338 31.0683 19.2258 31.4078 19.9815C31.7474 20.7371 32.6353 21.0744 33.3909 20.7348Z" fill="#333333"/>
<path d="M35.0767 22.2662C35.3031 22.77 35.0782 23.3619 34.5745 23.5883C34.0707 23.8147 33.4788 23.5898 33.2524 23.0861C33.0261 22.5823 33.2509 21.9904 33.7547 21.764C34.2584 21.5376 34.8503 21.7625 35.0767 22.2662Z" fill="#333333"/>
<path d="M26.6485 16.6817C27.1869 17.3114 27.1129 18.2582 26.4832 18.7966C25.8536 19.335 24.9067 19.2609 24.3683 18.6313C23.83 18.0016 23.904 17.0548 24.5336 16.5164C25.1633 15.9781 26.1101 16.0521 26.6485 16.6817Z" fill="#333333"/>
<path d="M29.7325 22.5969C30.3621 22.0585 30.4361 21.1117 29.8978 20.482C29.3594 19.8524 28.4126 19.7784 27.7829 20.3167C27.1533 20.8551 27.0792 21.8019 27.6176 22.4316C28.156 23.0612 29.1028 23.1352 29.7325 22.5969Z" fill="#333333"/>
<path d="M26.6935 14.5591C27.1729 14.5591 27.5616 14.1705 27.5616 13.6911C27.5616 13.2116 27.1729 12.823 26.6935 12.823C26.2141 12.823 25.8254 13.2116 25.8254 13.6911C25.8254 14.1705 26.2141 14.5591 26.6935 14.5591Z" fill="#333333"/>
<path d="M30.1546 18.0338C30.1546 18.5133 29.766 18.9019 29.2865 18.9019C28.8071 18.9019 28.4185 18.5133 28.4185 18.0338C28.4185 17.5544 28.8071 17.1658 29.2865 17.1658C29.766 17.1658 30.1546 17.5544 30.1546 18.0338Z" fill="#333333"/>
<path d="M33.7106 16.7891C34.19 16.7891 34.5787 16.4005 34.5787 15.9211C34.5787 15.4416 34.19 15.053 33.7106 15.053C33.2312 15.053 32.8425 15.4416 32.8425 15.9211C32.8425 16.4005 33.2312 16.7891 33.7106 16.7891Z" fill="#333333"/>
<path d="M39.3343 15.1321C39.3343 15.6115 38.9456 16.0002 38.4662 16.0002C37.9868 16.0002 37.5981 15.6115 37.5981 15.1321C37.5981 14.6527 37.9868 14.264 38.4662 14.264C38.9456 14.264 39.3343 14.6527 39.3343 15.1321Z" fill="#333333"/>
<path d="M32.7096 12.2286C33.1891 12.2286 33.5777 11.8399 33.5777 11.3605C33.5777 10.8811 33.1891 10.4924 32.7096 10.4924C32.2302 10.4924 31.8416 10.8811 31.8416 11.3605C31.8416 11.8399 32.2302 12.2286 32.7096 12.2286Z" fill="#333333"/>
<path d="M39.0001 10.1319C39.0001 10.6113 38.6114 10.9999 38.132 10.9999C37.6526 10.9999 37.2639 10.6113 37.2639 10.1319C37.2639 9.65244 37.6526 9.26379 38.132 9.26379C38.6114 9.26379 39.0001 9.65244 39.0001 10.1319Z" fill="#333333"/>
</svg>
