<svg width="48" height="48" viewBox="0 0 48 48" fill="none" xmlns="http://www.w3.org/2000/svg">
<path d="M31.8942 10.2425C31.8959 10.7523 32.1312 11.2518 32.5739 11.6858C30.9061 12.3685 29.9215 13.4481 29.9196 14.596C29.9219 16.3416 32.1731 17.8384 35.2752 18.1566V22.6448C32.6607 22.675 30.1555 22.7725 27.7245 22.918C24.2957 26.8336 21.4251 31.2068 27.7245 43.1014H43.0331V22.6443H37.6616V18.1561C40.7636 17.8379 43.0149 16.3413 43.0172 14.5956C43.0144 13.4473 42.0283 12.3677 40.359 11.6854C40.8024 11.2516 41.0384 10.752 41.0406 10.2421C41.0386 9.05472 39.7805 8.00101 37.9156 7.62495C34.7905 7.01161 31.9474 8.9797 31.8941 10.2423L31.8942 10.2425ZM16.9859 24.0102C12.6655 24.6451 8.66036 25.4795 4.97986 26.5199V43.1018H16.9859C14.8989 38.6042 11.8246 30.9609 16.9859 24.01V24.0102Z" fill="#333333"/>
</svg>
