<svg width="48" height="48" viewBox="0 0 48 48" fill="none" xmlns="http://www.w3.org/2000/svg">
<path d="M15.7685 5.79602C13.7803 5.79623 12.1677 7.39753 12.167 9.37415C12.1666 11.3515 13.7795 12.956 15.7685 12.9562C17.7583 12.9571 19.3705 11.3523 19.3701 9.37415C19.3694 7.39676 17.7576 5.79514 15.7685 5.79602ZM13.2314 13.2921C12.943 13.3046 12.6641 13.3791 12.376 13.5636C12.19 13.6456 12.026 13.7338 11.8643 13.8683C11.8627 13.8672 11.8607 13.8658 11.8604 13.8644C9.00301 16.1418 8.47961 23.9075 8.3252 26.6007C8.43118 27.8533 10.185 27.7723 10.2197 26.673C10.5086 22.0369 11.3653 18.2673 12.417 16.9445C12.4256 16.9927 12.4215 17.0456 12.4229 17.0773C12.4523 20.2352 12.1073 22.6458 11.6397 24.8097L11.5362 25.2628C11.0206 28.5627 12.827 26.0082 12.2842 41.2199C12.3199 42.6923 15.5312 42.4488 15.5147 41.1437L15.5029 28.1281H15.9873L15.9228 41.1437C15.9063 42.4489 19.1176 42.6924 19.1533 41.2198C18.6105 26.0077 20.4189 28.563 19.9033 25.2628L19.8154 24.8097H19.8115C19.3792 22.1129 18.9882 19.5164 18.9756 16.8507C18.9736 16.8493 18.9651 16.8028 18.9307 16.6749C18.9736 16.7344 19.0243 16.82 19.0674 16.8702C20.1426 18.1328 21.0238 21.9631 21.3174 26.6749C21.3522 27.7743 23.104 27.8553 23.21 26.6027C22.393 22.3627 22.5069 15.5049 19.1611 13.6046L19.1591 13.6026C18.0054 13.0808 17.9053 13.3803 16.5693 13.5889C15.047 13.7789 14.0968 13.2547 13.2314 13.2921L13.2314 13.2921ZM29.9717 27.8429C27.5068 27.8429 25.5225 29.8253 25.5225 32.2902L26.5127 42.1202H38.8682L39.7998 32.2902C39.7998 29.8253 37.8155 27.8429 35.3506 27.8429H29.9717ZM30.2471 28.2394H35.1807C37.4416 28.2394 39.2607 30.0996 39.2607 32.4113C39.2607 35.4838 38.4072 38.5575 38.4072 41.63C33.8812 41.631 31.2585 41.6299 27.0732 41.63C27.0732 38.5575 26.167 35.4838 26.167 32.4113C26.167 30.0996 27.9862 28.2394 30.2471 28.2394ZM32.6611 28.6241C32.5554 28.6241 32.4499 28.628 32.3447 28.6378C32.2394 28.6478 32.134 28.6629 32.0303 28.6827C31.9267 28.7024 31.8246 28.7277 31.7236 28.757C31.6224 28.7862 31.5223 28.8199 31.4248 28.8585C31.3275 28.8973 31.2323 28.9398 31.1396 28.9874C31.0468 29.035 30.9574 29.0877 30.8701 29.1437C30.7829 29.1996 30.6989 29.2596 30.6182 29.3234C30.5372 29.3871 30.4595 29.4535 30.3857 29.5245C30.3119 29.5957 30.2426 29.6714 30.1768 29.7491C30.1112 29.8266 30.0482 29.9062 29.9912 29.9894C29.9341 30.0729 29.8829 30.1588 29.835 30.2472C29.7869 30.3355 29.7425 30.4263 29.7041 30.5187C29.6656 30.6111 29.6329 30.7063 29.6045 30.8019C29.5764 30.8973 29.5539 30.9934 29.5361 31.0909C29.5182 31.1885 29.5045 31.2871 29.4971 31.3859C29.4921 31.4558 29.4891 31.5247 29.4893 31.5948C29.4891 31.694 29.4945 31.7931 29.5049 31.8917C29.5155 31.9904 29.5326 32.0895 29.5537 32.1866C29.5747 32.2838 29.6006 32.3791 29.6319 32.4738C29.663 32.5682 29.6982 32.662 29.7393 32.7531C29.7806 32.8443 29.827 32.9337 29.8779 33.0206C29.9286 33.1077 29.9843 33.1926 30.044 33.2745C30.1035 33.3564 30.1674 33.435 30.2354 33.5109C30.3035 33.5865 30.3763 33.6588 30.4522 33.7277C30.528 33.7968 30.6076 33.8613 30.6904 33.923C30.7733 33.9846 30.8593 34.0432 30.9483 34.0968C31.0375 34.1502 31.1293 34.1985 31.2237 34.2433C31.3177 34.2883 31.4144 34.3303 31.5127 34.3663C31.6114 34.4023 31.7115 34.4336 31.8135 34.4601C31.9154 34.4864 32.0179 34.5079 32.1221 34.5245C32.2264 34.5414 32.3329 34.5526 32.4385 34.5597C32.5131 34.5646 32.5863 34.5675 32.6612 34.5675C32.7668 34.5676 32.8724 34.5617 32.9776 34.5519C33.0828 34.5422 33.1883 34.5284 33.292 34.5089C33.3956 34.489 33.4977 34.4641 33.5987 34.4347C33.6996 34.4054 33.8002 34.3717 33.8975 34.3331C33.995 34.2946 34.0897 34.2516 34.1826 34.2042C34.2755 34.1567 34.3649 34.1039 34.4522 34.048C34.5393 33.9921 34.6233 33.932 34.7041 33.8683C34.7849 33.8045 34.863 33.7381 34.9365 33.6671C35.0103 33.5959 35.0797 33.5202 35.1455 33.4425C35.2113 33.3648 35.2739 33.2837 35.3311 33.2003C35.3881 33.1171 35.4394 33.0326 35.4873 32.9444C35.5354 32.8561 35.5798 32.7653 35.6182 32.673C35.6564 32.5805 35.6896 32.4853 35.7178 32.3897C35.7461 32.2944 35.7701 32.1982 35.7881 32.1007C35.8061 32.0029 35.8178 31.9047 35.8252 31.8058C35.8303 31.7358 35.8332 31.665 35.833 31.5948C35.8329 31.4957 35.828 31.3966 35.8174 31.298C35.8067 31.1996 35.7896 31.1019 35.7686 31.005C35.7476 30.9078 35.7217 30.8126 35.6904 30.7179C35.6593 30.6232 35.6221 30.5299 35.581 30.4386C35.5399 30.3473 35.495 30.258 35.4443 30.171C35.3936 30.0842 35.338 30.0007 35.2783 29.919C35.2185 29.8372 35.1551 29.7566 35.0869 29.6808C35.0187 29.6049 34.946 29.5331 34.8701 29.464C34.7942 29.3951 34.7146 29.3301 34.6318 29.2687C34.549 29.207 34.463 29.1484 34.374 29.0948C34.2851 29.0412 34.1928 28.9914 34.0986 28.9464C34.0043 28.9016 33.9081 28.8611 33.8096 28.8253C33.7109 28.7893 33.6108 28.7581 33.5088 28.7315C33.4069 28.705 33.3043 28.684 33.2002 28.6671C33.0961 28.6502 32.9911 28.639 32.8857 28.6319C32.8111 28.627 32.7359 28.6241 32.6611 28.6241V28.6241ZM32.6611 28.9933C33.0346 28.9933 33.4059 29.0629 33.751 29.1984C34.0961 29.3338 34.4087 29.5321 34.6728 29.7823C34.9369 30.0326 35.1471 30.3304 35.29 30.6573C35.4329 30.9844 35.505 31.3346 35.5049 31.6886C35.5049 32.39 35.2162 33.0645 34.7002 33.5675C34.2664 33.1442 33.6988 32.8661 33.083 32.7784C33.0884 32.7509 33.0909 32.7245 33.0908 32.6964C33.0907 32.6021 33.0603 32.5096 33.0029 32.4347C32.9576 32.3706 32.8959 32.3192 32.8076 32.2902C32.7611 32.2734 32.7106 32.2649 32.6611 32.2648C32.6046 32.2647 32.5493 32.2764 32.4971 32.298C32.4677 32.3101 32.4448 32.3325 32.4189 32.3507L30.6299 30.8956C30.5474 30.8287 30.4275 30.8406 30.3623 30.921C30.297 31.0014 30.3111 31.1197 30.3935 31.1866L32.2353 32.6808C32.2351 32.6862 32.2314 32.691 32.2314 32.6964C32.2311 32.7242 32.2341 32.7512 32.2392 32.7784C31.6239 32.8651 31.0544 33.1396 30.6201 33.5616C30.1052 33.0597 29.8166 32.3885 29.8154 31.6886C29.8153 31.3346 29.8892 30.9844 30.0322 30.6573C30.1751 30.3303 30.3852 30.0326 30.6494 29.7823C30.9136 29.5321 31.2281 29.3338 31.5732 29.1984C31.9184 29.0629 32.2875 28.9932 32.6611 28.9933L32.6611 28.9933Z" fill="#333333"/>
</svg>
