<svg width="48" height="48" viewBox="0 0 48 48" fill="none" xmlns="http://www.w3.org/2000/svg">
<path d="M17.6113 5.85156C15.6231 5.85177 14.0104 7.45307 14.0098 9.42969C14.0093 11.4071 15.6223 13.0115 17.6113 13.0117C19.6011 13.0126 21.2133 11.4079 21.2129 9.42969C21.2122 7.4523 19.6003 5.85068 17.6113 5.85156ZM17.6152 6.35547C19.326 6.35471 20.7123 7.7299 20.7129 9.42578C20.7133 11.1223 19.3266 12.4969 17.6152 12.4961C15.9045 12.4959 14.5172 11.1217 14.5176 9.42578C14.5181 7.73056 15.9052 6.35565 17.6152 6.35547ZM15.0742 13.3477C14.7857 13.3601 14.5068 13.4347 14.2187 13.6191C14.0328 13.7012 13.8688 13.7893 13.707 13.9238C13.7054 13.9227 13.7034 13.9213 13.7031 13.9199C10.8458 16.1973 10.3224 23.963 10.168 26.6563C10.274 27.9089 12.0278 27.8279 12.0625 26.7285C12.3514 22.0925 13.208 18.3228 14.2598 17C14.2684 17.0483 14.2643 17.1011 14.2657 17.1328C14.2951 20.2908 13.95 22.7013 13.4825 24.8652L13.3789 25.3184C12.8633 28.6182 14.6698 26.0637 14.127 41.2754C14.1627 42.7478 17.374 42.5044 17.3575 41.1992L17.3457 28.1836H17.8301L17.7657 41.1992C17.7492 42.5045 20.9604 42.7479 20.9961 41.2754C20.4533 26.0633 22.2617 28.6186 21.7461 25.3184L21.6582 24.8652H21.6543C21.222 22.1685 20.831 19.572 20.8184 16.9063C20.8164 16.9049 20.8528 16.9033 20.8184 16.7754C20.8613 16.8349 20.8671 16.8756 20.9102 16.9258C21.9854 18.1884 22.8667 22.0187 23.1602 26.7305C23.195 27.8298 24.9468 27.9108 25.0528 26.6582C24.2358 22.4183 24.3497 15.5604 21.004 13.6602L21.002 13.6582C19.8482 13.1364 19.7482 13.4358 18.4121 13.6445C16.8898 13.8344 15.9396 13.3102 15.0742 13.3476V13.3477ZM15.1367 13.8008C16.1012 14.0209 17.0554 14.2362 18.2871 14.082C18.954 13.9735 20.0204 13.5937 20.6602 14.0195C23.8028 15.5292 23.8295 22.1995 24.6465 26.4395C24.5405 27.6921 23.5856 27.2673 23.5508 26.168C23.2572 21.4562 22.1397 17.1728 20.8769 16.3789C20.7015 16.2884 20.4227 16.3236 20.3262 16.6582C20.3388 19.3239 20.7356 21.815 21.168 24.5117L21.3047 25.3184C21.8203 28.6186 19.967 25.3114 20.5098 40.5234C20.6729 41.996 19.0972 42.3284 18.3845 41.2662L18.4679 27.6562L16.7891 27.664L16.7832 40.7129C16.7997 42.018 14.7368 42.1736 14.7011 40.7012C15.0229 25.3127 13.2605 27.7338 13.8203 25.7598L13.9687 25.043C14.4363 22.879 14.7989 19.8728 14.7695 16.7148C14.7386 16.202 14.2207 16.1974 14.0859 16.4121C13.0342 17.7349 11.8308 21.3764 11.7187 26.0566C11.684 27.156 10.6645 27.5651 10.5585 26.3125C10.8135 22.029 12.0778 15.8563 13.8183 14.4648C13.9801 14.3303 14.1871 14.1094 14.373 14.0273C14.6611 13.8428 14.8482 13.8132 15.1367 13.8008ZM31.8144 27.8984C29.3496 27.8984 27.3652 29.8808 27.3652 32.3457L28.3555 42.1758H40.7109L41.6426 32.3457C41.6426 29.8808 39.6583 27.8984 37.1934 27.8984H31.8144ZM32.0898 28.2949H37.0234C39.2843 28.2949 41.1035 30.1551 41.1035 32.4668C41.1035 35.5393 40.25 38.613 40.25 41.6855C35.7239 41.6865 33.1013 41.6855 28.916 41.6855C28.916 38.613 28.0098 35.5393 28.0098 32.4668C28.0098 30.1551 29.8289 28.2949 32.0898 28.2949ZM34.5039 28.6797C34.3982 28.6796 34.2927 28.6836 34.1875 28.6934C34.0822 28.7034 33.9767 28.7185 33.873 28.7383C33.7694 28.7579 33.6674 28.7833 33.5664 28.8125C33.4652 28.8418 33.3651 28.8755 33.2676 28.9141C33.1703 28.9528 33.0751 28.9953 32.9824 29.043C32.8896 29.0905 32.8002 29.1432 32.7129 29.1992C32.6257 29.2551 32.5417 29.3152 32.4609 29.3789C32.38 29.4427 32.3023 29.5091 32.2285 29.5801C32.1547 29.6512 32.0853 29.727 32.0195 29.8047C31.9539 29.8821 31.891 29.9617 31.834 30.0449C31.7769 30.1284 31.7256 30.2143 31.6777 30.3027C31.6297 30.391 31.5852 30.4818 31.5469 30.5742C31.5084 30.6666 31.4757 30.7619 31.4473 30.8574C31.4192 30.9528 31.3967 31.049 31.3789 31.1465C31.361 31.244 31.3472 31.3427 31.3398 31.4414C31.3348 31.5114 31.3318 31.5802 31.332 31.6504C31.3319 31.7495 31.3372 31.8487 31.3477 31.9473C31.3583 32.0459 31.3754 32.145 31.3965 32.2422C31.4175 32.3394 31.4434 32.4346 31.4746 32.5293C31.5058 32.6237 31.541 32.7175 31.5821 32.8086C31.6234 32.8998 31.6698 32.9892 31.7207 33.0762C31.7714 33.1632 31.827 33.2482 31.8867 33.3301C31.9462 33.4119 32.0102 33.4905 32.0781 33.5664C32.1463 33.642 32.2191 33.7143 32.2949 33.7832C32.3708 33.8524 32.4504 33.9168 32.5332 33.9785C32.6161 34.0402 32.702 34.0988 32.791 34.1523C32.8802 34.2057 32.972 34.2541 33.0664 34.2988C33.1605 34.3439 33.2571 34.3859 33.3555 34.4219C33.4542 34.4578 33.5543 34.4891 33.6563 34.5156C33.7582 34.5419 33.8607 34.5634 33.9649 34.5801C34.0692 34.597 34.1757 34.6081 34.2813 34.6152C34.3559 34.6201 34.4291 34.623 34.5039 34.623C34.6096 34.6231 34.7151 34.6172 34.8203 34.6074C34.9256 34.5977 35.0311 34.584 35.1348 34.5644C35.2384 34.5445 35.3405 34.5197 35.4414 34.4902C35.5424 34.4609 35.6429 34.4272 35.7403 34.3887C35.8377 34.3502 35.9325 34.3072 36.0254 34.2597C36.1183 34.2122 36.2076 34.1595 36.2949 34.1035C36.3821 34.0476 36.4661 33.9876 36.5469 33.9238C36.6276 33.86 36.7057 33.7936 36.7793 33.7226C36.8531 33.6515 36.9225 33.5758 36.9883 33.498C37.0541 33.4204 37.1167 33.3393 37.1738 33.2558C37.2309 33.1726 37.2822 33.0881 37.3301 33C37.3781 32.9117 37.4226 32.8208 37.461 32.7285C37.4991 32.6361 37.5324 32.5408 37.5606 32.4453C37.5889 32.3499 37.6128 32.2537 37.6309 32.1562C37.6488 32.0584 37.6606 31.9602 37.668 31.8613C37.6731 31.7913 37.676 31.7205 37.6758 31.6504C37.6757 31.5512 37.6708 31.4521 37.6602 31.3535C37.6495 31.2551 37.6324 31.1574 37.6113 31.0605C37.5903 30.9634 37.5645 30.8681 37.5332 30.7734C37.502 30.6787 37.4649 30.5854 37.4238 30.4941C37.3827 30.4029 37.3378 30.3135 37.2871 30.2265C37.2364 30.1398 37.1807 30.0562 37.1211 29.9746C37.0613 29.8927 36.9979 29.8122 36.9297 29.7363C36.8615 29.6604 36.7888 29.5886 36.7129 29.5195C36.637 29.4506 36.5574 29.3857 36.4746 29.3242C36.3918 29.2626 36.3058 29.2039 36.2168 29.1504C36.1279 29.0968 36.0356 29.047 35.9414 29.0019C35.8471 28.9571 35.7509 28.9166 35.6523 28.8808C35.5537 28.8449 35.4535 28.8136 35.3516 28.7871C35.2497 28.7605 35.1471 28.7395 35.043 28.7226C34.9388 28.7058 34.8339 28.6946 34.7285 28.6875C34.6539 28.6826 34.5787 28.6797 34.5039 28.6797ZM34.5039 29.0488C34.8774 29.0488 35.2487 29.1184 35.5937 29.2539C35.9388 29.3894 36.2515 29.5876 36.5156 29.8379C36.7797 30.0882 36.9899 30.3859 37.1328 30.7129C37.2757 31.0399 37.3477 31.3902 37.3476 31.7441C37.3476 32.4455 37.0589 33.1201 36.543 33.623C36.1092 33.1997 35.5416 32.9216 34.9258 32.834C34.9312 32.8065 34.9337 32.78 34.9336 32.752C34.9334 32.6576 34.9031 32.5651 34.8457 32.4902C34.8004 32.4261 34.7386 32.3747 34.6504 32.3457C34.6039 32.3289 34.5533 32.3204 34.5039 32.3203C34.4474 32.3203 34.3921 32.3319 34.3398 32.3535C34.3104 32.3657 34.2876 32.388 34.2617 32.4062L32.4726 30.9512C32.3902 30.8842 32.2703 30.8962 32.2051 30.9766C32.1398 31.0569 32.1538 31.1752 32.2363 31.2422L34.0781 32.7363C34.0779 32.7417 34.0742 32.7465 34.0742 32.752C34.0739 32.7798 34.0769 32.8067 34.082 32.834C33.4667 32.9207 32.8972 33.1952 32.4629 33.6172C31.948 33.1153 31.6594 32.444 31.6582 31.7441C31.6581 31.3901 31.732 31.0399 31.875 30.7129C32.0179 30.3858 32.228 30.0882 32.4922 29.8379C32.7563 29.5876 33.0708 29.3893 33.416 29.2539C33.7612 29.1185 34.1303 29.0487 34.5039 29.0488Z" fill="#333333"/>
</svg>
