<svg width="48" height="48" viewBox="0 0 48 48" fill="none" xmlns="http://www.w3.org/2000/svg">
<path d="M28.5003 8.5C28.5003 10.9853 26.4855 13 24.0003 13C21.515 13 19.5003 10.9853 19.5003 8.5C19.5003 6.01472 21.515 4 24.0003 4C26.4855 4 28.5003 6.01472 28.5003 8.5Z" fill="#333333"/>
<path fill-rule="evenodd" clip-rule="evenodd" d="M32.2686 27.4758C33.0837 27.3276 33.6243 26.5467 33.4761 25.7317C33.4243 25.4468 33.3557 25.0102 33.2741 24.4905C33.1136 23.4681 32.9024 22.1233 32.6684 20.9753C32.4852 20.0769 32.2643 19.1627 31.9952 18.4296C31.8622 18.0672 31.694 17.683 31.4747 17.351C31.285 17.0638 30.8895 16.5556 30.2085 16.3722C25.7678 15.1762 22.2086 15.2312 17.7955 16.4082C17.1156 16.5895 16.7192 17.0946 16.5282 17.3818C16.3081 17.7129 16.1395 18.096 16.0063 18.4568C15.7368 19.1869 15.5156 20.097 15.3324 20.9912C15.0968 22.1411 14.8855 23.483 14.7249 24.5029C14.6441 25.0156 14.5762 25.447 14.5245 25.7317C14.3763 26.5467 14.9169 27.3276 15.7319 27.4758C16.547 27.624 17.3279 27.0834 17.4761 26.2683C17.5532 25.8443 17.6324 25.3372 17.7198 24.7773C17.8693 23.8201 18.0429 22.7085 18.2714 21.5934C18.4463 20.7398 18.6315 20.0082 18.8206 19.4957C18.8647 19.3763 18.9041 19.2826 18.9373 19.2108C19.3448 19.1073 19.7429 19.0149 20.1336 18.9337L21.0002 25L19.5003 30.5V42.5C19.5003 43.3284 20.1718 44 21.0003 44C21.8287 44 22.5003 43.3284 22.5003 42.5V30.5H25.5003V42.5C25.5003 43.3284 26.1718 44 27.0003 44C27.8287 44 28.5003 43.3284 28.5003 42.5V30.5L27.0002 25L27.8719 18.8987C28.2603 18.978 28.6558 19.0692 29.0604 19.1725C29.0941 19.2455 29.1341 19.3412 29.1789 19.4632C29.3685 19.9798 29.5539 20.7164 29.7289 21.5746C29.9568 22.6928 30.1293 23.8014 30.2781 24.7575C30.3664 25.3247 30.4463 25.8383 30.5245 26.2683C30.6726 27.0834 31.4535 27.624 32.2686 27.4758ZM28.9549 18.982C28.9548 18.9826 28.9596 18.9898 28.9697 19.0018C28.96 18.9873 28.955 18.9813 28.9549 18.982ZM19.0427 19.0209C19.0426 19.0203 19.0376 19.0262 19.0281 19.0403C19.038 19.0286 19.0428 19.0216 19.0427 19.0209Z" fill="#333333"/>
</svg>
