<svg width="48" height="48" viewBox="0 0 48 48" fill="none" xmlns="http://www.w3.org/2000/svg">
<path d="M15.7685 5.7959C13.7803 5.79611 12.1677 7.39741 12.167 9.37402C12.1666 11.3514 13.7795 12.9558 15.7685 12.9561C17.7583 12.9569 19.3705 11.3522 19.3701 9.37402C19.3694 7.39664 17.7576 5.79502 15.7685 5.7959ZM13.2314 13.292C12.943 13.3045 12.6641 13.379 12.376 13.5635C12.19 13.6455 12.026 13.7336 11.8643 13.8682C11.8627 13.8671 11.8607 13.8657 11.8604 13.8643C9.00301 16.1416 8.47961 23.9074 8.3252 26.6006C8.43118 27.8532 10.185 27.7722 10.2197 26.6729C10.5086 22.0368 11.3653 18.2672 12.417 16.9443C12.4256 16.9926 12.4215 17.0454 12.4229 17.0772C12.4523 20.2351 12.1073 22.6456 11.6397 24.8096L11.5362 25.2627C11.0206 28.5625 12.827 26.0081 12.2842 41.2197C12.3199 42.6922 15.5312 42.4487 15.5147 41.1436L15.5029 28.1279H15.9873L15.9228 41.1436C15.9063 42.4488 19.1176 42.6923 19.1533 41.2197C18.6105 26.0076 20.4189 28.5629 19.9033 25.2627L19.8154 24.8096H19.8115C19.3792 22.1128 18.9882 19.5163 18.9756 16.8506C18.9736 16.8492 18.9651 16.8027 18.9307 16.6748C18.9736 16.7343 19.0243 16.8199 19.0674 16.8701C20.1426 18.1327 21.0238 21.963 21.3174 26.6748C21.3522 27.7742 23.104 27.8552 23.21 26.6025C22.393 22.3626 22.5069 15.5048 19.1611 13.6045L19.1591 13.6025C18.0054 13.0807 17.9053 13.3802 16.5693 13.5888C15.047 13.7787 14.0968 13.2545 13.2314 13.2919V13.292ZM29.9717 27.8428C27.5068 27.8428 25.5225 29.8252 25.5225 32.29L26.5127 42.1201H38.8682L39.7998 32.29C39.7998 29.8252 37.8155 27.8428 35.3506 27.8428H29.9717ZM30.2471 28.2393H35.1807C37.4416 28.2393 39.2607 30.0995 39.2607 32.4111C39.2607 35.4836 38.4072 38.5574 38.4072 41.6299C33.8812 41.6308 31.2585 41.6298 27.0732 41.6299C27.0732 38.5574 26.167 35.4836 26.167 32.4111C26.167 30.0995 27.9862 28.2393 30.2471 28.2393ZM32.6611 28.624C32.5554 28.624 32.4499 28.6279 32.3447 28.6377C32.2394 28.6477 32.134 28.6628 32.0303 28.6826C31.9267 28.7022 31.8246 28.7276 31.7236 28.7568C31.6224 28.7861 31.5223 28.8198 31.4248 28.8584C31.3275 28.8972 31.2323 28.9397 31.1396 28.9873C31.0468 29.0348 30.9574 29.0876 30.8701 29.1436C30.7829 29.1994 30.6989 29.2595 30.6182 29.3232C30.5372 29.387 30.4595 29.4534 30.3857 29.5244C30.3119 29.5956 30.2426 29.6713 30.1768 29.749C30.1112 29.8265 30.0482 29.9061 29.9912 29.9893C29.9341 30.0727 29.8829 30.1587 29.835 30.2471C29.7869 30.3353 29.7425 30.4262 29.7041 30.5186C29.6656 30.611 29.6329 30.7062 29.6045 30.8018C29.5764 30.8971 29.5539 30.9933 29.5361 31.0908C29.5182 31.1884 29.5045 31.287 29.4971 31.3857C29.4921 31.4557 29.4891 31.5246 29.4893 31.5947C29.4891 31.6939 29.4945 31.793 29.5049 31.8916C29.5155 31.9902 29.5326 32.0894 29.5537 32.1865C29.5747 32.2837 29.6006 32.3789 29.6319 32.4736C29.663 32.5681 29.6982 32.6619 29.7393 32.7529C29.7806 32.8442 29.827 32.9336 29.8779 33.0205C29.9286 33.1076 29.9843 33.1925 30.044 33.2744C30.1035 33.3562 30.1674 33.4349 30.2354 33.5107C30.3035 33.5864 30.3763 33.6586 30.4522 33.7275C30.528 33.7967 30.6076 33.8611 30.6904 33.9229C30.7733 33.9845 30.8593 34.0431 30.9483 34.0967C31.0375 34.1501 31.1293 34.1984 31.2237 34.2432C31.3177 34.2882 31.4144 34.3302 31.5127 34.3662C31.6114 34.4022 31.7115 34.4334 31.8135 34.46C31.9154 34.4863 32.0179 34.5077 32.1221 34.5244C32.2264 34.5413 32.3329 34.5525 32.4385 34.5596C32.5131 34.5645 32.5863 34.5674 32.6612 34.5674C32.7668 34.5674 32.8724 34.5616 32.9776 34.5517C33.0828 34.542 33.1883 34.5283 33.292 34.5088C33.3956 34.4889 33.4977 34.464 33.5987 34.4346C33.6996 34.4053 33.8002 34.3716 33.8975 34.333C33.995 34.2945 34.0897 34.2515 34.1826 34.2041C34.2755 34.1565 34.3649 34.1038 34.4522 34.0478C34.5393 33.992 34.6233 33.9319 34.7041 33.8681C34.7849 33.8044 34.863 33.738 34.9365 33.667C35.0103 33.5958 35.0797 33.5201 35.1455 33.4424C35.2113 33.3647 35.2739 33.2836 35.3311 33.2002C35.3881 33.117 35.4394 33.0325 35.4873 32.9443C35.5354 32.856 35.5798 32.7652 35.6182 32.6728C35.6564 32.5804 35.6896 32.4852 35.7178 32.3896C35.7461 32.2943 35.7701 32.1981 35.7881 32.1006C35.8061 32.0028 35.8178 31.9046 35.8252 31.8056C35.8303 31.7356 35.8332 31.6649 35.833 31.5947C35.8329 31.4956 35.828 31.3964 35.8174 31.2978C35.8067 31.1995 35.7896 31.1018 35.7686 31.0049C35.7476 30.9077 35.7217 30.8125 35.6904 30.7178C35.6593 30.6231 35.6221 30.5298 35.581 30.4385C35.5399 30.3472 35.495 30.2578 35.4443 30.1709C35.3936 30.0841 35.338 30.0006 35.2783 29.9189C35.2185 29.8371 35.1551 29.7565 35.0869 29.6806C35.0187 29.6048 34.946 29.533 34.8701 29.4638C34.7942 29.395 34.7146 29.33 34.6318 29.2685C34.549 29.2069 34.463 29.1483 34.374 29.0947C34.2851 29.0411 34.1928 28.9913 34.0986 28.9463C34.0043 28.9015 33.9081 28.8609 33.8096 28.8252C33.7109 28.7892 33.6108 28.758 33.5088 28.7314C33.4069 28.7049 33.3043 28.6839 33.2002 28.667C33.0961 28.6501 32.9911 28.6389 32.8857 28.6318C32.8111 28.6269 32.7359 28.624 32.6611 28.624ZM32.6611 28.9932C33.0346 28.9932 33.4059 29.0628 33.751 29.1982C34.0961 29.3337 34.4087 29.5319 34.6728 29.7822C34.9369 30.0325 35.1471 30.3302 35.29 30.6572C35.4329 30.9842 35.505 31.3345 35.5049 31.6885C35.5049 32.3899 35.2162 33.0644 34.7002 33.5674C34.2664 33.144 33.6988 32.866 33.083 32.7783C33.0884 32.7508 33.0909 32.7243 33.0908 32.6963C33.0907 32.602 33.0603 32.5095 33.0029 32.4346C32.9576 32.3704 32.8959 32.3191 32.8076 32.29C32.7611 32.2732 32.7106 32.2648 32.6611 32.2647C32.6046 32.2646 32.5493 32.2762 32.4971 32.2979C32.4677 32.31 32.4448 32.3324 32.4189 32.3506L30.6299 30.8955C30.5474 30.8285 30.4275 30.8405 30.3623 30.9209C30.297 31.0013 30.3111 31.1195 30.3935 31.1865L32.2353 32.6807C32.2351 32.6861 32.2314 32.6909 32.2314 32.6963C32.2311 32.7241 32.2341 32.7511 32.2392 32.7783C31.6239 32.865 31.0544 33.1395 30.6201 33.5615C30.1052 33.0596 29.8166 32.3884 29.8154 31.6885C29.8153 31.3345 29.8892 30.9842 30.0322 30.6572C30.1751 30.3302 30.3852 30.0325 30.6494 29.7822C30.9136 29.5319 31.2281 29.3337 31.5732 29.1982C31.9184 29.0628 32.2875 28.9931 32.6611 28.9932Z" fill="#333333"/>
</svg>
