<svg width="48" height="48" viewBox="0 0 48 48" fill="none" xmlns="http://www.w3.org/2000/svg">
<g clip-path="url(#clip0)">
<path fill-rule="evenodd" clip-rule="evenodd" d="M0.0625 0.0117188V48.0117H48.0625V0.0117188H0.0625ZM15.7695 5.79688C17.7585 5.79599 19.3685 7.39761 19.3691 9.375C19.3696 11.3532 17.7593 12.9579 15.7695 12.957C13.7805 12.9568 12.1675 11.3524 12.168 9.375C12.1686 7.39839 13.7813 5.79709 15.7695 5.79688ZM13.2305 13.293H13.2324C14.0973 13.2564 15.0472 13.7796 16.5684 13.5898C17.9044 13.3812 18.0045 13.0817 19.1582 13.6035L19.1621 13.6055C22.5079 15.5057 22.3939 22.3636 23.2109 26.6035C23.1049 27.8561 21.3532 27.7751 21.3184 26.6758C21.0248 21.964 20.1436 18.1337 19.0684 16.8711C19.0253 16.8209 18.9745 16.7353 18.9316 16.6758C18.966 16.8037 18.9746 16.8502 18.9766 16.8516C18.9892 19.5173 19.3801 22.1138 19.8125 24.8105H19.8164L19.9043 25.2637C20.4199 28.5639 18.6115 26.0086 19.1543 41.2207C19.1186 42.6932 15.9073 42.4498 15.9238 41.1445L15.9883 28.1289H15.5039L15.5156 41.1445C15.5322 42.4497 12.3209 42.6931 12.2852 41.2207C12.8279 26.009 11.0215 28.5635 11.5371 25.2637L11.6406 24.8105C12.1082 22.6466 12.4533 20.2361 12.4238 17.0781C12.4224 17.0464 12.4266 16.9936 12.418 16.9453C11.3662 18.2681 10.5096 22.0378 10.2207 26.6738C10.186 27.7732 8.43216 27.8542 8.32617 26.6016C8.48059 23.9083 9.00399 16.1426 11.8613 13.8652C11.8616 13.8666 11.8636 13.868 11.8652 13.8691C12.027 13.7346 12.191 13.6465 12.377 13.5645C12.6644 13.3804 12.9427 13.3057 13.2305 13.293ZM29.9707 27.8438H35.3496C37.8145 27.8438 39.7988 29.8262 39.7988 32.291L38.8672 42.1211H26.5117L25.5215 32.291C25.5215 29.8262 27.5058 27.8437 29.9707 27.8438ZM30.2461 28.2402C27.9852 28.2402 26.166 30.1004 26.166 32.4121C26.166 35.4846 27.0723 38.5584 27.0723 41.6309C31.2575 41.6308 33.8802 41.6318 38.4062 41.6309C38.4062 38.5584 39.2598 35.4846 39.2598 32.4121C39.2598 30.1004 37.4406 28.2402 35.1797 28.2402H30.2461ZM32.6602 28.625C32.735 28.625 32.8121 28.6279 32.8867 28.6328C32.9921 28.6399 33.0971 28.6511 33.2012 28.668C33.3053 28.6849 33.4079 28.7059 33.5098 28.7324C33.6117 28.759 33.7119 28.7902 33.8105 28.8262C33.9091 28.8619 34.0053 28.9025 34.0996 28.9473C34.1938 28.9923 34.2861 29.0421 34.375 29.0957C34.464 29.1493 34.55 29.2079 34.6328 29.2695C34.7156 29.331 34.7952 29.396 34.8711 29.4648C34.947 29.534 35.0197 29.6058 35.0879 29.6816C35.1561 29.7575 35.2195 29.8381 35.2793 29.9199C35.339 30.0016 35.3946 30.0851 35.4453 30.1719C35.496 30.2588 35.5409 30.3482 35.582 30.4395C35.6231 30.5308 35.6603 30.6241 35.6914 30.7188C35.7227 30.8134 35.7486 30.9087 35.7695 31.0059C35.7906 31.1028 35.8077 31.2004 35.8184 31.2988C35.829 31.3974 35.8339 31.4966 35.834 31.5957C35.8342 31.6659 35.8313 31.7366 35.8262 31.8066C35.8188 31.9056 35.807 32.0038 35.7891 32.1016C35.771 32.1991 35.7471 32.2953 35.7188 32.3906C35.6906 32.4862 35.6573 32.5814 35.6191 32.6738C35.5808 32.7662 35.5363 32.857 35.4883 32.9453C35.4404 33.0335 35.3891 33.118 35.332 33.2012C35.2749 33.2846 35.2123 33.3657 35.1465 33.4434C35.0806 33.5211 35.0113 33.5968 34.9375 33.668C34.8639 33.739 34.7858 33.8054 34.7051 33.8691C34.6243 33.9329 34.5403 33.993 34.4531 34.0488C34.3658 34.1048 34.2765 34.1575 34.1836 34.2051C34.0907 34.2525 33.9959 34.2955 33.8984 34.334C33.8011 34.3726 33.7005 34.4062 33.5996 34.4355C33.4986 34.465 33.3966 34.4899 33.293 34.5098C33.1893 34.5293 33.0838 34.543 32.9785 34.5527C32.8733 34.5626 32.7678 34.5684 32.6621 34.5684C32.5873 34.5684 32.5141 34.5654 32.4395 34.5605C32.3338 34.5534 32.2274 34.5423 32.123 34.5254C32.0189 34.5087 31.9164 34.4872 31.8145 34.4609C31.7125 34.4344 31.6124 34.4031 31.5137 34.3672C31.4153 34.3312 31.3186 34.2892 31.2246 34.2441C31.1302 34.1994 31.0384 34.151 30.9492 34.0977C30.8602 34.0441 30.7742 33.9855 30.6914 33.9238C30.6086 33.8621 30.529 33.7977 30.4531 33.7285C30.3773 33.6596 30.3045 33.5874 30.2363 33.5117C30.1684 33.4359 30.1044 33.3572 30.0449 33.2754C29.9852 33.1935 29.9296 33.1085 29.8789 33.0215C29.828 32.9346 29.7816 32.8452 29.7402 32.7539C29.6992 32.6628 29.664 32.569 29.6328 32.4746C29.6016 32.3799 29.5757 32.2847 29.5547 32.1875C29.5336 32.0904 29.5165 31.9912 29.5059 31.8926C29.4954 31.794 29.4901 31.6948 29.4902 31.5957C29.49 31.5255 29.493 31.4567 29.498 31.3867C29.5054 31.288 29.5172 31.1893 29.5352 31.0918C29.553 30.9943 29.5754 30.8981 29.6035 30.8027C29.632 30.7072 29.6647 30.6119 29.7031 30.5195C29.7415 30.4272 29.786 30.3363 29.834 30.248C29.8819 30.1596 29.9332 30.0737 29.9902 29.9902C30.0472 29.9071 30.1102 29.8274 30.1758 29.75C30.2416 29.6723 30.311 29.5966 30.3848 29.5254C30.4585 29.4544 30.5362 29.388 30.6172 29.3242C30.698 29.2605 30.782 29.2004 30.8691 29.1445C30.9565 29.0886 31.0458 29.0358 31.1387 28.9883C31.2313 28.9406 31.3266 28.8981 31.4238 28.8594C31.5214 28.8208 31.6215 28.7871 31.7227 28.7578C31.8236 28.7286 31.9257 28.7032 32.0293 28.6836C32.133 28.6638 32.2385 28.6487 32.3438 28.6387C32.4489 28.6289 32.5544 28.6249 32.6602 28.625ZM32.6602 28.9941C32.2866 28.9941 31.9174 29.0638 31.5723 29.1992C31.2271 29.3346 30.9126 29.5329 30.6484 29.7832C30.3843 30.0335 30.1742 30.3311 30.0312 30.6582C29.8883 30.9852 29.8144 31.3355 29.8145 31.6895C29.8157 32.3893 30.1043 33.0606 30.6191 33.5625C31.0535 33.1405 31.623 32.866 32.2383 32.7793C32.2332 32.752 32.2302 32.7251 32.2305 32.6973C32.2305 32.6919 32.2342 32.687 32.2344 32.6816L30.3926 31.1875C30.3101 31.1205 30.2961 31.0023 30.3613 30.9219C30.4266 30.8415 30.5464 30.8295 30.6289 30.8965L32.418 32.3516C32.4439 32.3333 32.4667 32.311 32.4961 32.2988C32.5483 32.2772 32.6036 32.2656 32.6602 32.2656C32.7096 32.2657 32.7601 32.2742 32.8066 32.291C32.8949 32.32 32.9566 32.3714 33.002 32.4355C33.0593 32.5104 33.0897 32.6029 33.0898 32.6973C33.0899 32.7253 33.0874 32.7518 33.082 32.7793C33.6978 32.8669 34.2655 33.145 34.6992 33.5684C35.2152 33.0654 35.5039 32.3909 35.5039 31.6895C35.504 31.3355 35.432 30.9852 35.2891 30.6582C35.1461 30.3312 34.936 30.0335 34.6719 29.7832C34.4078 29.5329 34.0951 29.3347 33.75 29.1992C33.4049 29.0638 33.0337 28.9941 32.6602 28.9941Z" fill="#333333"/>
</g>
<defs>
<clipPath id="clip0">
<rect width="48" height="48" fill="white"/>
</clipPath>
</defs>
</svg>
