<svg width="48" height="48" viewBox="0 0 48 48" fill="none" xmlns="http://www.w3.org/2000/svg">
<path d="M23.9939 8.16382C23.0311 8.16484 22.0886 8.43538 21.2777 8.94342C20.4668 9.45145 19.8214 10.1758 19.4177 11.031H15.8986V10.7929C15.8986 10.6606 15.7923 10.5549 15.6603 10.5549H12.1798C12.0476 10.5549 11.9416 10.6606 11.9416 10.7929V12.1269C11.9416 12.2591 12.0478 12.3631 12.1798 12.3631H15.6603C15.7926 12.3631 15.8986 12.2591 15.8986 12.1269V11.8865H19.1095C19.0041 12.2833 18.9497 12.6914 18.9474 13.1014C18.9491 13.6709 19.0515 14.2359 19.2501 14.7713H18.871C17.2409 14.7713 15.9277 16.0826 15.9277 17.7128V32.3455C15.9277 33.9756 17.2409 35.2889 18.871 35.2889H20.541V27.4158C20.541 25.7856 21.8522 24.4724 23.4824 24.4724H24.4378C26.0679 24.4724 27.3793 25.7856 27.3793 27.4158V35.2889H29.1293C30.7594 35.2889 32.0726 33.9756 32.0726 32.3455V17.7128C32.0726 16.0826 30.7594 14.7713 29.1293 14.7713H28.7464C28.7558 14.7395 28.765 14.7076 28.7738 14.6757C28.9496 14.1686 29.04 13.637 29.0413 13.1015C29.0397 12.6916 28.9859 12.2835 28.8812 11.8866H32.1019V12.127C32.1019 12.2593 32.2081 12.3632 32.3401 12.3632H35.8206C35.9529 12.3632 36.0589 12.2593 36.0589 12.127V10.793C36.0589 10.6608 35.9526 10.5549 35.8206 10.5549H32.3401C32.2078 10.5549 32.1019 10.6608 32.1019 10.793V11.0311H28.5706C28.1758 10.1976 27.5511 9.48846 26.7668 8.98332C25.9826 8.47819 25.0698 8.19716 24.1312 8.17178C24.0857 8.16865 24.0401 8.16608 23.9945 8.16416L23.9939 8.16382ZM23.9881 8.68724C25.1941 8.68763 26.3506 9.15374 27.2032 9.98299C28.0559 10.8122 28.5349 11.9368 28.5349 13.1093C28.5349 14.2819 28.0559 15.4064 27.2032 16.2357C26.3506 17.0649 25.1941 17.5309 23.9881 17.5313C23.3908 17.5314 22.7993 17.4171 22.2474 17.1949C21.6955 16.9727 21.1941 16.6469 20.7717 16.2363C20.3493 15.8256 20.0143 15.3382 19.7857 14.8016C19.5571 14.2651 19.4394 13.6901 19.4394 13.1093C19.4394 12.5286 19.5571 11.9536 19.7857 11.417C20.0143 10.8805 20.3493 10.3929 20.7717 9.9823C21.1941 9.57167 21.6955 9.24602 22.2474 9.02381C22.7993 8.8016 23.3908 8.68719 23.9881 8.68724ZM12.6268 11.0467H15.2088C15.311 11.0467 15.3924 11.128 15.3924 11.2304V11.6718C15.3924 11.7739 15.311 11.8555 15.2088 11.8555H12.6271C12.5249 11.8555 12.4435 11.7743 12.4435 11.6718V11.2304C12.4435 11.1284 12.5249 11.0467 12.6271 11.0467H12.6268ZM32.7985 11.0505H35.3728C35.4769 11.0505 35.5603 11.1336 35.5603 11.2379V11.6872C35.5603 11.7783 35.4918 11.8436 35.406 11.861H32.7656C32.6798 11.8421 32.6113 11.7783 32.6113 11.6872V11.2379C32.6113 11.1336 32.6947 11.0505 32.7988 11.0505H32.7985ZM18.908 15.1717C19.0824 15.1733 19.2526 15.2019 19.4158 15.2575C19.4445 15.265 19.451 15.2763 19.4705 15.2839C19.8869 16.11 20.5312 16.8058 21.3305 17.2924C22.1298 17.7791 23.0524 18.0372 23.9939 18.0378C24.9516 18.0365 25.8892 17.7687 26.6972 17.2655C27.5051 16.7622 28.15 16.0444 28.5565 15.196C28.5818 15.1948 28.722 15.1884 28.9471 15.194C29.1914 15.2016 29.5018 15.2281 29.7596 15.2996C30.5565 15.5245 31.3314 16.0778 31.5526 17.4851V32.4324C31.4832 33.1561 31.0812 34.5218 29.1874 34.7859L27.8768 34.7632V26.9154C27.6424 24.8713 26.1476 23.9161 24.041 23.935C21.676 23.9539 20.2874 24.8265 20.0411 26.8783V34.7632L18.754 34.7858C16.8942 34.5216 16.4998 33.1559 16.4317 32.4322V17.485C16.3101 16.392 17.6875 15.1592 18.9083 15.1705L18.908 15.1717ZM23.9276 25.4316C22.5497 25.4316 21.4413 26.1284 21.4413 26.9941V38.3066C21.4413 39.1723 22.5497 39.8692 23.9276 39.8692H24.08C25.4578 39.8692 26.5663 39.1723 26.5663 38.3066V26.9941C26.5663 26.1284 25.4578 25.4316 24.08 25.4316H23.9276ZM23.4823 25.9414H24.5097C25.3611 25.9414 26.0468 26.6269 26.0468 27.4784V37.8105C26.0468 38.662 25.3611 39.3477 24.5097 39.3477H23.4828C22.6313 39.3477 21.9457 38.662 21.9457 37.8105V27.4784C21.9457 26.6269 22.6313 25.9414 23.4828 25.9414H23.4823Z" fill="#333333"/>
</svg>
