<svg width="48" height="48" viewBox="0 0 48 48" fill="none" xmlns="http://www.w3.org/2000/svg">
<path fill-rule="evenodd" clip-rule="evenodd" d="M0 0V48H48V0H0ZM24.1758 8.60547C25.1237 8.60773 26.0516 8.87889 26.8516 9.38745C27.6516 9.89602 28.291 10.6211 28.6953 11.4785H32.2773V11.2402C32.2773 11.108 32.3833 11.002 32.5156 11.002H35.9961C36.1281 11.002 36.2344 11.108 36.2344 11.2402V12.5742C36.2344 12.7065 36.1284 12.8125 35.9961 12.8125H32.5156C32.3836 12.8125 32.2773 12.7065 32.2773 12.5742V12.334H29.0098C29.1246 12.7561 29.1837 13.1914 29.1855 13.6289C29.184 14.1696 29.095 14.7065 28.9219 15.2187H29.3047C30.9348 15.2187 32.248 16.53 32.248 18.1602V32.793C32.248 34.4231 30.9348 35.7363 29.3047 35.7363H27.5547V27.8633C27.5547 26.2331 26.2434 24.9199 24.6133 24.9199H23.6582C22.0281 24.9199 20.7168 26.2331 20.7168 27.8633V35.7363H19.0469C17.4168 35.7363 16.1035 34.4231 16.1035 32.793V18.1602C16.1035 16.53 17.4168 15.2187 19.0469 15.2187H19.4316C19.2579 14.7066 19.1682 14.1697 19.166 13.6289C19.1665 13.1916 19.2243 12.7563 19.3379 12.334H16.0742V12.5742C16.0742 12.7065 15.9682 12.8125 15.8359 12.8125H12.3555C12.2235 12.8125 12.1172 12.7065 12.1172 12.5742V11.2402C12.1172 11.108 12.2232 11.002 12.3555 11.002H15.8359C15.9679 11.002 16.0742 11.108 16.0742 11.2402V11.4785H19.6582C20.0642 10.6233 20.7043 9.90063 21.5042 9.39422C22.304 8.88781 23.231 8.6184 24.1777 8.61719L24.1758 8.60547ZM24.1777 9.81055C23.6764 9.81041 23.18 9.90902 22.7168 10.1007C22.2536 10.2925 21.8327 10.5735 21.4781 10.9279C21.1236 11.2823 20.8423 11.7031 20.6503 12.1662C20.4584 12.6293 20.3595 13.1256 20.3594 13.627C20.3592 14.1284 20.4579 14.625 20.6498 15.0883C20.8416 15.5517 21.1228 15.9726 21.4774 16.3272C21.832 16.6818 22.253 16.9631 22.7164 17.1549C23.1797 17.3468 23.6763 17.4454 24.1777 17.4453C24.679 17.4452 25.1754 17.3463 25.6385 17.1544C26.1016 16.9624 26.5224 16.6811 26.8768 16.3266C27.2311 15.972 27.5122 15.5511 27.7039 15.0879C27.8957 14.6247 27.9943 14.1283 27.9941 13.627C27.9939 12.6149 27.5917 11.6443 26.8761 10.9286C26.1604 10.213 25.1898 9.81079 24.1777 9.81055ZM24.1055 25.8789H24.2578C25.6357 25.8789 26.7441 26.5757 26.7441 27.4414V38.7539C26.7441 39.6196 25.6357 40.3164 24.2578 40.3164H24.1055C22.7276 40.3164 21.6191 39.6196 21.6191 38.7539V27.4414C21.6191 26.5757 22.7276 25.8789 24.1055 25.8789Z" fill="#333333"/>
</svg>
