<svg width="48" height="48" viewBox="0 0 48 48" fill="none" xmlns="http://www.w3.org/2000/svg">
<path d="M24.1769 8.61727C23.2302 8.61848 22.3032 8.88793 21.5033 9.39433C20.7034 9.90074 20.0634 10.6235 19.6573 11.4787H16.0751V11.2402C16.0751 11.1079 15.9688 11.0021 15.8368 11.0021H12.3563C12.224 11.0021 12.118 11.1079 12.118 11.2402V12.5742C12.118 12.7065 12.2243 12.8123 12.3563 12.8123H15.8367C15.969 12.8123 16.075 12.7065 16.075 12.5742V12.3338H19.3387C19.2251 12.7561 19.1673 13.1915 19.1668 13.6288C19.1689 14.1696 19.2586 14.7064 19.4324 15.2185H19.0476C17.4175 15.2185 16.1043 16.5299 16.1043 18.16V32.7927C16.1043 34.4228 17.4175 35.7361 19.0476 35.7361H20.7176V27.863C20.7176 26.2329 22.0288 24.9196 23.659 24.9196H24.6141C26.2442 24.9196 27.5555 26.2329 27.5555 27.863V35.7361H29.3055C30.9356 35.7361 32.2488 34.4228 32.2488 32.7927V18.16C32.2488 16.5299 30.9356 15.2185 29.3055 15.2185H28.9226C29.0957 14.7063 29.1848 14.1695 29.1863 13.6288C29.1845 13.1913 29.1254 12.7559 29.0105 12.3338H32.2779V12.5742C32.2779 12.7065 32.3842 12.8123 32.5162 12.8123H35.9966C36.1289 12.8123 36.2349 12.7065 36.2349 12.5742V11.2402C36.2349 11.1079 36.1287 11.0021 35.9966 11.0021H32.5162C32.3839 11.0021 32.2779 11.1079 32.2779 11.2402V11.4787H28.696C28.2916 10.6214 27.6522 9.89644 26.8522 9.38799C26.0522 8.87954 25.1244 8.6084 24.1765 8.6062L24.1769 8.61727ZM24.1769 9.81072C25.1891 9.81092 26.1597 10.213 26.8754 10.9287C27.5911 11.6444 27.9933 12.6151 27.9935 13.6273C27.9936 14.1286 27.895 14.625 27.7033 15.0882C27.5116 15.5514 27.2305 15.9724 26.8761 16.327C26.5217 16.6815 26.1009 16.9628 25.6378 17.1548C25.1746 17.3467 24.6782 17.4456 24.1769 17.4457C23.6756 17.4456 23.1792 17.3467 22.716 17.1548C22.2529 16.9628 21.8321 16.6815 21.4777 16.327C21.1233 15.9724 20.8422 15.5514 20.6505 15.0882C20.4588 14.625 20.3602 14.1286 20.3603 13.6273C20.3605 12.6151 20.7627 11.6444 21.4784 10.9287C22.1941 10.213 23.1648 9.81092 24.1769 9.81072ZM24.1046 25.8789C22.7268 25.8789 21.6183 26.5758 21.6183 27.4414V38.754C21.6183 39.6196 22.7268 40.3165 24.1046 40.3165H24.257C25.6348 40.3165 26.7433 39.6196 26.7433 38.754V27.4414C26.7433 26.5758 25.6348 25.8789 24.257 25.8789H24.1046Z" fill="#333333"/>
</svg>
