<?xml version="1.0" encoding="UTF-8" standalone="no"?>
<!-- Created with Inkscape (http://www.inkscape.org/) -->
<svg id="svg8" xmlns:rdf="http://www.w3.org/1999/02/22-rdf-syntax-ns#" xmlns="http://www.w3.org/2000/svg" xmlns:osb="http://www.openswatchbook.org/uri/2009/osb" height="48" width="48" version="1.1" xmlns:cc="http://creativecommons.org/ns#" viewBox="0 0 12.7 12.7" xmlns:dc="http://purl.org/dc/elements/1.1/">
 <title id="title4753">UIO-icon</title>
 <metadata id="metadata5">
  <rdf:RDF>
   <cc:Work rdf:about="">
    <dc:format>image/svg+xml</dc:format>
    <dc:type rdf:resource="http://purl.org/dc/dcmitype/StillImage"/>
    <dc:title>UIO-icon</dc:title>
    <dc:creator>
     <cc:Agent>
      <dc:title>Joaquín Urbano</dc:title>
     </cc:Agent>
    </dc:creator>
    <dc:rights>
     <cc:Agent>
      <dc:title>GPL</dc:title>
     </cc:Agent>
    </dc:rights>
   </cc:Work>
  </rdf:RDF>
 </metadata>
 <g id="layer1" transform="translate(0,-284.3)" fill="#333">
  <path id="path906" d="m5.8729 285.32c-0.15519 0-0.28013 0.12494-0.28013 0.28013s0.12494 0.28013 0.28013 0.28013h0.19697v0.56573a4.202 4.202 0 0 0 -2.4927 1.0352l-0.40214-0.40214 0.13952-0.13897c0.10974-0.10974 0.10974-0.28638 0-0.39612-0.054868-0.05487-0.12647-0.08207-0.19806-0.08207-0.071596 0-0.14319 0.0272-0.19806 0.08207l-0.13952 0.13897-0.39612 0.39612-0.13897 0.13952c-0.10974 0.10974-0.10974 0.28638 0 0.39612s0.28638 0.10974 0.39612 0l0.13897-0.13952 0.40488 0.40488a4.202 4.202 0 0 0 -1.0264 2.49h-0.5773v-0.19697c0-0.15519-0.12494-0.28013-0.28013-0.28013s-0.28013 0.12494-0.28013 0.28013v0.9542c0 0.15519 0.12494 0.28013 0.28013 0.28013s0.28013-0.12494 0.28013-0.28013v-0.19697h0.58269a4.202 4.202 0 0 0 1.0341 2.4769l-0.41801 0.41801-0.13897-0.13952c-0.10974-0.10974-0.28638-0.10974-0.39612 0s-0.10974 0.28638 0 0.39612l0.13897 0.13952 0.39612 0.39612 0.13952 0.13897c0.10974 0.10973 0.28639 0.10974 0.39612 0 0.10974-0.10973 0.10974-0.28638 0-0.39612l-0.13952-0.13897 0.42074-0.42074a4.202 4.202 0 0 0 2.4741 1.0259v0.59364h-0.1969c-0.15519 0-0.28013 0.12494-0.28013 0.28013s0.12494 0.28013 0.28013 0.28013h0.9542c0.15519 0 0.28013-0.12494 0.28013-0.28013s-0.12494-0.28013-0.28013-0.28013h-0.197v-0.59747a4.202 4.202 0 0 0 2.4763 -1.0199l0.41855 0.41856-0.13952 0.13897c-0.10974 0.10974-0.10974 0.28638 0 0.39612s0.28638 0.10974 0.39612 0l0.67461-0.67461c0.10974-0.10974 0.10974-0.28638 0-0.39612-0.10974-0.10973-0.28638-0.10973-0.39612 0l-0.13897 0.13952-0.41965-0.41965a4.202 4.202 0 0 0 1.0401 -2.4752h0.57832v0.19697c0 0.15519 0.12494 0.28013 0.28013 0.28013s0.28013-0.12494 0.28013-0.28013v-0.9542c0-0.15519-0.12494-0.28013-0.28013-0.28013s-0.28013 0.12494-0.28013 0.28013v0.19697h-0.58105a4.202 4.202 0 0 0 -1.0204 -2.4922l0.40269-0.40269 0.13897 0.13952c0.10974 0.10974 0.28638 0.10974 0.39612 0s0.10974-0.28638 0-0.39612l-0.6744-0.69c-0.054869-0.054865-0.12647-0.082069-0.19806-0.08207-0.071596-0.0000014-0.14319 0.0272-0.19806 0.08207-0.10974 0.10973-0.10974 0.28638 0 0.39612l0.13952 0.13897-0.40378 0.40378a4.202 4.202 0 0 0 -2.4911 -1.04v-0.5619h0.19697c0.15519 0 0.28013-0.12494 0.28013-0.28013s-0.12494-0.28013-0.28013-0.28013h-0.7572zm0.4771 2.0578a3.2565 3.2565 0 0 1 3.2565 3.2565 3.2565 3.2565 0 0 1 -3.2565 3.2565 3.2565 3.2565 0 0 1 -3.2565 -3.2565 3.2565 3.2565 0 0 1 3.2565 -3.2565zm-0.79115 1.5697a0.91413 0.91413 0 0 0 -0.91426 0.91371 0.91413 0.91413 0 0 0 0.91426 0.91426 0.91413 0.91413 0 0 0 0.91426 -0.91426 0.91413 0.91413 0 0 0 -0.91426 -0.91371zm2.1913 1.312a0.64176 0.64176 0 0 0 -0.64178 0.64178 0.64176 0.64176 0 0 0 0.64178 0.64178 0.64176 0.64176 0 0 0 0.64178 -0.64178 0.64176 0.64176 0 0 0 -0.64178 -0.64178zm-1.3864 1.8323a0.44368 0.44368 0 0 0 -0.44372 0.44372 0.44368 0.44368 0 0 0 0.44372 0.44372 0.44368 0.44368 0 0 0 0.44372 -0.44372 0.44368 0.44368 0 0 0 -0.44372 -0.44372z"/>
 </g>
</svg>
