<svg width="48" height="48" viewBox="0 0 48 48" fill="none" xmlns="http://www.w3.org/2000/svg">
<path d="M22.1968 3.85528C21.6103 3.85528 21.138 4.32746 21.138 4.91401C21.138 5.50055 21.6103 5.97273 22.1968 5.97273H22.9413V8.11094C19.456 8.3436 16.1447 9.71883 13.52 12.0236L12.0001 10.5036L12.5275 9.97845C12.9422 9.56368 12.9422 8.89596 12.5275 8.48119C12.3201 8.27381 12.0495 8.17104 11.7789 8.17104C11.5083 8.17104 11.2377 8.27381 11.0303 8.48119L10.503 9.00646L9.00584 10.5036L8.4806 11.0309C8.06583 11.4457 8.06583 12.1133 8.4806 12.5281C8.89536 12.9428 9.56298 12.9428 9.97774 12.5281L10.503 12.0007L12.0332 13.531C9.74261 16.1574 8.37946 19.4644 8.15393 22.9421H5.97201V22.1975C5.97201 21.611 5.4998 21.1388 4.91325 21.1388C4.32671 21.1388 3.85449 21.611 3.85449 22.1975V25.8041C3.85449 26.3906 4.32671 26.8628 4.91325 26.8628C5.4998 26.8628 5.97201 26.3906 5.97201 25.8041V25.0595H8.1743C8.41863 28.5234 9.79151 31.8117 12.0827 34.421L10.5028 36.001L9.97759 35.4736C9.56283 35.0589 8.89521 35.0589 8.48044 35.4736C8.06568 35.8884 8.06568 36.556 8.48044 36.9708L9.00569 37.4981L10.5028 38.9953L11.0302 39.5205C11.4449 39.9353 12.1126 39.9353 12.5273 39.5205C12.9421 39.1058 12.9421 38.4382 12.5273 38.0234L12 37.4981L13.5902 35.9079C16.2008 38.1858 19.4846 39.5475 22.9411 39.7854V42.029H22.1969C21.6104 42.029 21.1382 42.5012 21.1382 43.0877C21.1382 43.6743 21.6104 44.1466 22.1969 44.1466H25.8033C26.3899 44.1466 26.8621 43.6743 26.8621 43.0877C26.8621 42.5012 26.3899 42.029 25.8033 42.029H25.0588V39.7708C28.5154 39.5411 31.8022 38.1874 34.418 35.9161L35.9999 37.4981L35.4726 38.0233C35.0579 38.438 35.0579 39.1057 35.4726 39.5204C35.8874 39.9352 36.555 39.9352 36.9698 39.5204L39.5195 36.9708C39.9342 36.556 39.9342 35.8884 39.5195 35.4736C39.1047 35.0589 38.4371 35.0589 38.0223 35.4736L37.4971 36.0009L35.911 34.4148C38.2092 31.8102 39.59 28.5241 39.8421 25.0598H42.0279V25.8042C42.0279 26.3907 42.5001 26.863 43.0866 26.863C43.6732 26.863 44.1454 26.3907 44.1454 25.8042V22.1978C44.1454 21.6112 43.6732 21.1391 43.0866 21.1391C42.5001 21.1391 42.0279 21.6112 42.0279 22.1978V22.9422H39.8318C39.6144 19.4643 38.2593 16.1546 35.9752 13.5229L37.4971 12.001L38.0224 12.5282C38.4371 12.943 39.1048 12.943 39.5195 12.5282C39.9343 12.1134 39.9343 11.4458 39.5195 11.0311L36.9706 8.42317C36.7632 8.21582 36.4926 8.11302 36.222 8.11302C35.9514 8.11301 35.6808 8.2158 35.4735 8.42317C35.0587 8.8379 35.0587 9.50566 35.4735 9.92043L36.0008 10.4456L34.4747 11.9717C31.854 9.66156 28.5448 8.28009 25.0595 8.04105V5.91725H25.8039C26.3905 5.91725 26.8627 5.44507 26.8627 4.85853C26.8627 4.27198 26.3905 3.7998 25.8039 3.7998H22.9421L22.1968 3.85528ZM24 11.6328C25.6163 11.6328 27.2168 11.9511 28.7101 12.5696C30.2034 13.1881 31.5602 14.0948 32.7031 15.2377C33.846 16.3806 34.7526 17.7374 35.3712 19.2307C35.9897 20.724 36.3081 22.3245 36.3081 23.9408C36.3081 27.2051 35.0113 30.3356 32.7031 32.6438C30.3949 34.952 27.2643 36.2489 24 36.2489C20.7357 36.2489 17.6051 34.952 15.2969 32.6438C12.9887 30.3356 11.692 27.2051 11.692 23.9408C11.692 22.3245 12.0103 20.724 12.6289 19.2307C13.2474 17.7374 14.154 16.3806 15.2969 15.2377C16.4398 14.0948 17.7967 13.1881 19.2899 12.5696C20.7832 11.9511 22.3837 11.6328 24 11.6328ZM21.0098 17.5655C20.0937 17.5654 19.215 17.9291 18.567 18.5767C17.9191 19.2243 17.5548 20.1027 17.5544 21.0189C17.5543 21.4727 17.6436 21.922 17.8173 22.3413C17.9909 22.7605 18.2454 23.1415 18.5663 23.4624C18.8872 23.7833 19.2682 24.0378 19.6874 24.2114C20.1067 24.3851 20.556 24.4745 21.0098 24.4744C21.4636 24.4745 21.913 24.3851 22.3323 24.2114C22.7515 24.0378 23.1325 23.7833 23.4534 23.4624C23.7743 23.1415 24.0288 22.7605 24.2024 22.3413C24.376 21.922 24.4654 21.4727 24.4653 21.0189C24.4649 20.1027 24.1006 19.2243 23.4526 18.5767C22.8046 17.9291 21.926 17.5654 21.0098 17.5655ZM29.2919 22.5242C28.9734 22.5242 28.658 22.587 28.3637 22.7089C28.0694 22.8308 27.802 23.0095 27.5767 23.2347C27.3515 23.4599 27.1728 23.7273 27.0509 24.0216C26.929 24.3159 26.8663 24.6313 26.8663 24.9498C26.8663 25.2684 26.929 25.5838 27.0509 25.8781C27.1728 26.1724 27.3515 26.4398 27.5767 26.6651C27.802 26.8903 28.0694 27.0689 28.3637 27.1908C28.658 27.3127 28.9734 27.3755 29.2919 27.3755C29.6105 27.3755 29.9259 27.3127 30.2202 27.1908C30.5145 27.0689 30.7819 26.8903 31.0071 26.6651C31.2324 26.4398 31.411 26.1724 31.5329 25.8781C31.6548 25.5838 31.7176 25.2684 31.7176 24.9498C31.7176 24.6313 31.6548 24.3159 31.5329 24.0216C31.411 23.7273 31.2324 23.4599 31.0071 23.2347C30.7819 23.0095 30.5145 22.8308 30.2202 22.7089C29.9259 22.587 29.6105 22.5242 29.2919 22.5242ZM24.052 29.4494C23.8317 29.4494 23.6137 29.4929 23.4102 29.5771C23.2067 29.6614 23.0218 29.7848 22.8661 29.9406C22.7104 30.0963 22.5868 30.2813 22.5026 30.4848C22.4183 30.6882 22.3749 30.9063 22.3749 31.1265C22.3749 31.3468 22.4183 31.5648 22.5026 31.7683C22.5868 31.9718 22.7104 32.1567 22.8661 32.3125C23.0218 32.4682 23.2067 32.5916 23.4102 32.6759C23.6137 32.7602 23.8317 32.8036 24.052 32.8036C24.2722 32.8036 24.4903 32.7602 24.6938 32.6759C24.8973 32.5916 25.0822 32.4682 25.2379 32.3125C25.3936 32.1567 25.5171 31.9718 25.6014 31.7683C25.6857 31.5648 25.7291 31.3468 25.729 31.1265C25.7291 30.9063 25.6857 30.6882 25.6014 30.4848C25.5171 30.2813 25.3936 30.0963 25.2379 29.9406C25.0822 29.7848 24.8973 29.6614 24.6938 29.5771C24.4903 29.4929 24.2722 29.4494 24.052 29.4494Z" fill="#333333"/>
</svg>
