<?xml version="1.0" encoding="UTF-8" standalone="no"?>
<!-- Created with Inkscape (http://www.inkscape.org/) -->
<svg id="svg8" xmlns:rdf="http://www.w3.org/1999/02/22-rdf-syntax-ns#" xmlns="http://www.w3.org/2000/svg" xmlns:osb="http://www.openswatchbook.org/uri/2009/osb" height="48" width="48" version="1.1" xmlns:cc="http://creativecommons.org/ns#" viewBox="0 0 12.7 12.7" xmlns:dc="http://purl.org/dc/elements/1.1/">
 <title id="title4753">UIO-icon</title>
 <metadata id="metadata5">
  <rdf:RDF>
   <cc:Work rdf:about="">
    <dc:format>image/svg+xml</dc:format>
    <dc:type rdf:resource="http://purl.org/dc/dcmitype/StillImage"/>
    <dc:title>UIO-icon</dc:title>
    <dc:creator>
     <cc:Agent>
      <dc:title>Joaquín Urbano</dc:title>
     </cc:Agent>
    </dc:creator>
    <dc:rights>
     <cc:Agent>
      <dc:title>GPL</dc:title>
     </cc:Agent>
    </dc:rights>
   </cc:Work>
  </rdf:RDF>
 </metadata>
 <g id="layer1" fill="#333" transform="translate(0,-284.3)">
  <path id="rect914" d="m0 0v48h48v-48zm22.197 3.8555h3.6054c0.58655 0 1.0586 0.47204 1.0586 1.0586 0 0.58655-0.47204 1.0586-1.0586 1.0586h-0.74414v2.123a15.881 15.881 0 0 1 9.416 3.9336l1.526-1.527-0.527-0.5235c-0.41476-0.41477-0.41476-1.0833 0-1.498 0.20738-0.20738 0.47745-0.31055 0.74805-0.31055 0.2706 0.00000378 0.54262 0.10318 0.75 0.31055l2.5488 2.5488c0.41476 0.41477 0.41476 1.0833 0 1.498-0.41476 0.41477-1.0833 0.41477-1.498 0l-0.524-0.527-1.5234 1.5215a15.881 15.881 0 0 1 3.8574 9.4199h2.1953v-0.74414c0-0.58656 0.47204-1.0586 1.0586-1.0586 0.58655 0 1.0586 0.47203 1.0586 1.0586v3.6054c0 0.58656-0.47204 1.0586-1.0586 1.0586s-1.0586-0.47204-1.0586-1.0586v-0.744h-2.185a15.881 15.881 0 0 1 -3.932 9.355l1.588 1.586 0.52344-0.52734c0.41476-0.41473 1.0833-0.41473 1.498 0 0.41476 0.41477 0.41476 1.0833 0 1.498l-2.5488 2.5488c-0.41476 0.41477-1.0833 0.41477-1.498 0-0.41476-0.41477-0.41476-1.0833 0-1.498l0.528-0.524-1.582-1.582a15.881 15.881 0 0 1 -9.3594 3.8535v2.2578h0.74414c0.58655 0 1.0586 0.47204 1.0586 1.0586 0 0.58655-0.47204 1.0586-1.0586 1.0586h-3.6055c-0.58655 0-1.0586-0.47204-1.0586-1.0586 0-0.58655 0.47204-1.0586 1.0586-1.0586h0.74414v-2.2422a15.881 15.881 0 0 1 -9.352 -3.88l-1.59 1.592 0.52734 0.52344c0.41476 0.41477 0.41476 1.0833 0 1.498-0.41475 0.41477-1.0833 0.41473-1.498 0l-0.527-0.525-1.4961-1.496-0.5254-0.527c-0.41476-0.41477-0.41476-1.0833 0-1.498 0.41476-0.41477 1.0833-0.41477 1.498 0l0.5235 0.527 1.58-1.58a15.881 15.881 0 0 1 -3.9082 -9.361h-2.2011v0.74414c0 0.58656-0.47204 1.0586-1.0586 1.0586-0.58655 0-1.0586-0.47204-1.0586-1.0586v-3.6055c0-0.58656 0.47204-1.0586 1.0586-1.0586 0.58655 0 1.0586 0.47203 1.0586 1.0586v0.74414h2.1816a15.881 15.881 0 0 1 3.8787 -9.413l-1.531-1.529-0.5235 0.527c-0.41476 0.41477-1.0833 0.41477-1.498 0-0.41476-0.41477-0.41476-1.0833 0-1.498l0.5254-0.527 1.4961-1.4961 0.527-0.5254c0.20738-0.20738 0.4794-0.31055 0.75-0.31055s0.54067 0.10316 0.74805 0.31055c0.41476 0.41477 0.41476 1.0833 0 1.498l-0.527 0.5235 1.52 1.521a15.881 15.881 0 0 1 9.4219 -3.9141v-2.1362h-0.74414c-0.58655 0-1.0586-0.47204-1.0586-1.0586 0-0.58655 0.47204-1.0586 1.0586-1.0586zm1.803 7.7775a12.308 12.308 0 0 0 -12.309 12.306 12.308 12.308 0 0 0 12.309 12.309 12.308 12.308 0 0 0 12.309 -12.309 12.308 12.308 0 0 0 -12.309 -12.306zm-2.9902 5.9316a3.455 3.455 0 0 1 3.4551 3.4531 3.455 3.455 0 0 1 -3.4551 3.4551 3.455 3.455 0 0 1 -3.4551 -3.4551 3.455 3.455 0 0 1 3.4551 -3.4531zm8.2812 4.959a2.4256 2.4256 0 0 1 2.426 2.425 2.4256 2.4256 0 0 1 -2.426 2.426 2.4256 2.4256 0 0 1 -2.426 -2.426 2.4256 2.4256 0 0 1 2.426 -2.426zm-5.2402 6.9258a1.6769 1.6769 0 0 1 1.6777 1.6777 1.6769 1.6769 0 0 1 -1.6777 1.6758 1.6769 1.6769 0 0 1 -1.676 -1.677 1.6769 1.6769 0 0 1 1.676 -1.678z" fill-rule="evenodd" transform="matrix(.26458 0 0 .26458 0 284.3)"/>
 </g>
</svg>
