<?xml version="1.0" encoding="UTF-8" standalone="no"?>
<!-- Created with Inkscape (http://www.inkscape.org/) -->
<svg id="svg8" xmlns:rdf="http://www.w3.org/1999/02/22-rdf-syntax-ns#" xmlns="http://www.w3.org/2000/svg" xmlns:osb="http://www.openswatchbook.org/uri/2009/osb" height="48" width="48" version="1.1" xmlns:cc="http://creativecommons.org/ns#" viewBox="0 0 12.7 12.7" xmlns:dc="http://purl.org/dc/elements/1.1/">
 <title id="title4753">UIO-icon</title>
 <metadata id="metadata5">
  <rdf:RDF>
   <cc:Work rdf:about="">
    <dc:format>image/svg+xml</dc:format>
    <dc:type rdf:resource="http://purl.org/dc/dcmitype/StillImage"/>
    <dc:title>UIO-icon</dc:title>
    <dc:creator>
     <cc:Agent>
      <dc:title>Joaquín Urbano</dc:title>
     </cc:Agent>
    </dc:creator>
    <dc:rights>
     <cc:Agent>
      <dc:title>GPL</dc:title>
     </cc:Agent>
    </dc:rights>
   </cc:Work>
  </rdf:RDF>
 </metadata>
 <g id="layer1" fill="#333" transform="translate(0,-284.3)">
  <path id="path35226" d="m9.8959 285.36c-0.91379-0.0001694-1.6547 0.74049-1.6548 1.6543-0.00016961 0.914 0.74082 1.655 1.6548 1.6548 0.91379-0.000128 1.6545-0.74103 1.6543-1.6548-0.000128-0.91358-0.7407-1.6542-1.6543-1.6543zm-4.7101 2.7379c-1.0414 0.19997-1.9926 0.7055-2.7746 1.4748-0.53598 0.53211-0.9811 1.267-0.53131 1.8634 0.84716 1.1812 1.7198 1.8075 2.7751 2.8435h-2.7834c-1.0743 0-1.0943 1.6531 0.032627 1.6595 0.34386 0.021136 4.2994-0.029483 4.7371-0.034793 0.43367-0.14935 0.63982-0.82066 0.43627-1.3078-0.82865-1.639-5.4881-4.5842-0.078134-4.0279 0.20915 0.010179 0.58412 0.14344 0.5742 1.044-0.013747 1.2478-0.041663 2.9342 0.0099205 3.7152-0.0076665 0.79823 1.4 0.8501 1.4005 0 0.012113-2.7648-0.00048199-3.7696 0.0020885-4.929-0.021473-1.1225-0.9366-2.0855-1.8935-2.3246-0.64824-0.082277-1.2662-0.095427-1.907 0.023709zm4.6541 0.68435c-0.031656 0.00223-0.056163 0.028618-0.056041 0.060352 0.00024985 0.03314 0.027211 0.05986 0.060352 0.059813 0.033141 0.0000474 0.060102-0.026673 0.060352-0.059813 0.00004674-0.033351-0.027001-0.060399-0.060352-0.060352-0.0014366-0.0000514-0.0028743-0.0000514-0.0043108 0zm0.20153 0.17243c-0.033351-0.0000467-0.060399 0.027001-0.060352 0.060352-0.000046739 0.033351 0.027001 0.060399 0.060352 0.060352 0.033351 0.0000468 0.060398-0.027001 0.060352-0.060352 0.00004674-0.033351-0.027001-0.060398-0.060352-0.060352zm-0.18537 0.22255c-0.046711 0.0000292-0.084571 0.037889-0.0846 0.0846 0.000029135 0.046711 0.037889 0.084571 0.0846 0.0846 0.046711-0.0000291 0.084571-0.037889 0.0846-0.0846-0.000029286-0.046711-0.037889-0.084571-0.0846-0.0846zm0.2926 0.078134c-0.063574 0.00453-0.11279 0.057507-0.11262 0.12124-0.0000058 0.066963 0.05428 0.12125 0.12124 0.12124 0.066963 0.0000058 0.12125-0.05428 0.12124-0.12124 0.0000058-0.066963-0.05428-0.12125-0.12124-0.12124-0.002873-0.0001022-0.005749-0.0001022-0.008622 0zm0.28883 0.29853c-0.046711 0.0000291-0.084571 0.037889-0.0846 0.0846 0.00002914 0.046711 0.037889 0.084571 0.0846 0.0846 0.046711-0.0000291 0.084571-0.037889 0.0846-0.0846-0.00002928-0.046711-0.037889-0.084571-0.0846-0.0846zm-0.51784 0.054963c-0.044382 0.00314-0.078756 0.040107-0.078673 0.0846 0.000029134 0.046711 0.037889 0.084571 0.0846 0.0846 0.046711-0.0000291 0.084571-0.037889 0.0846-0.0846-0.00002928-0.046711-0.037889-0.084571-0.0846-0.0846-0.0019751-0.0000692-0.0039522-0.0000692-0.0059273 0zm0.20692 0.21931c-0.10057 0.000035-0.1821 0.081558-0.18213 0.18213-0.00026299 0.10079 0.081347 0.18264 0.18213 0.18267 0.10079-0.0000347 0.1824-0.081887 0.18213-0.18267-0.00003484-0.10057-0.081558-0.1821-0.18213-0.18213zm0.51838 0.04257c-0.10079 0.0000347-0.1824 0.081887-0.18213 0.18267 0.000035 0.10057 0.081558 0.1821 0.18213 0.18213 0.10057-0.000035 0.1821-0.081558 0.18213-0.18213 0.00026315-0.10079-0.081347-0.18264-0.18213-0.18267zm-0.42516 0.46988c-0.031656 0.00223-0.056163 0.028618-0.056041 0.060352 0.00024985 0.03314 0.027211 0.05986 0.060352 0.059813 0.033141 0.0000474 0.060102-0.026673 0.060352-0.059813 0.00004674-0.033351-0.027001-0.060399-0.060352-0.060352-0.001437-0.0000514-0.002875-0.0000514-0.004311 0zm0.52862 0.079212c-0.13742 0.0001687-0.24878 0.11153-0.24895 0.24895-0.00012841 0.13763 0.11132 0.24932 0.24895 0.24949 0.13784 0.0001287 0.24962-0.11165 0.24949-0.24949-0.000169-0.13763-0.11186-0.24908-0.24949-0.24895zm-0.52646 0.17674c-0.063574 0.00453-0.11279 0.057507-0.11262 0.12124-0.0000058 0.066963 0.05428 0.12125 0.12124 0.12124 0.066963 0.0000058 0.12125-0.05428 0.12124-0.12124 0.0000058-0.066963-0.05428-0.12125-0.12124-0.12124-0.002873-0.0001022-0.005749-0.0001022-0.008622 0zm0.83576 0.29583c-0.020181 0.00136-0.035912 0.018032-0.036104 0.038259-0.00004681 0.021447 0.017351 0.038844 0.038798 0.038797 0.021446 0.0000467 0.038844-0.017351 0.038797-0.038797-0.00024923-0.021236-0.01756-0.038306-0.038797-0.038259-0.00089776-0.0000312-0.001797-0.0000312-0.002694 0zm-0.10562 0.17728c-0.10057 0.000035-0.1821 0.081558-0.18213 0.18213 0.00003499 0.10057 0.081558 0.1821 0.18213 0.18213 0.10057-0.0000348 0.1821-0.081558 0.18213-0.18213-0.00003484-0.10057-0.081558-0.1821-0.18213-0.18213zm-0.68704 0.02371c-0.073277 0.00508-0.13006 0.066111-0.12986 0.13956 0.00027351 0.076878 0.062685 0.13905 0.13956 0.13902 0.076878 0.0000239 0.13929-0.062147 0.13956-0.13902 0.0000233-0.077089-0.062475-0.13959-0.13956-0.13956-0.003232-0.0001125-0.006467-0.0001125-0.009699 0zm0.25757 0.32493c-0.024731 0.00165-0.044003 0.022095-0.044186 0.046881-0.00004678 0.026208 0.021211 0.047466 0.04742 0.047419 0.026208 0.0000466 0.047466-0.021211 0.047419-0.047419-0.00024955-0.025998-0.02142-0.046928-0.047419-0.046881-0.001077-0.0000368-0.002156-0.0000368-0.003233 0zm0.75763 0.086217c-0.031656 0.00223-0.056163 0.028618-0.056041 0.060352 0.00024985 0.03314 0.027211 0.05986 0.060352 0.059813 0.033141 0.0000474 0.060102-0.026673 0.060352-0.059813 0.00004674-0.033351-0.027001-0.060399-0.060352-0.060352-0.001437-0.0000514-0.002875-0.0000514-0.004311 0zm-0.40037 0.053347c-0.044382 0.00314-0.078756 0.040107-0.078673 0.0846 0.00002913 0.046711 0.037889 0.084571 0.0846 0.0846 0.046711-0.0000292 0.084571-0.037889 0.0846-0.0846-0.00002928-0.046711-0.037889-0.084571-0.0846-0.0846-0.001975-0.0000692-0.003952-0.0000692-0.005927 0zm-0.50114 0.21877c-0.10057 0.000035-0.1821 0.081558-0.18213 0.18213 0.000035 0.10057 0.081558 0.1821 0.18213 0.18213 0.10057-0.0000348 0.1821-0.081558 0.18213-0.18213-0.00003485-0.10058-0.081558-0.1821-0.18213-0.18213zm0.87833 0.035565c-0.13742 0.0001687-0.24878 0.11153-0.24895 0.24895-0.00012856 0.13763 0.11132 0.24932 0.24895 0.24949 0.13784 0.0001287 0.24962-0.11165 0.24949-0.24949-0.00016916-0.13763-0.11186-0.24908-0.24949-0.24895z" stroke-width=".063154"/>
 </g>
</svg>
