<svg width="48" height="48" viewBox="0 0 48 48" fill="none" xmlns="http://www.w3.org/2000/svg">
<path d="M37.4019 4.00635C33.9482 4.00571 31.148 6.80515 31.1476 10.2589C31.1469 13.7134 33.9475 16.514 37.4019 16.5132C40.8556 16.5127 43.6552 13.7125 43.6544 10.2589C43.6539 6.80602 40.8549 4.00673 37.4019 4.00635ZM19.6 14.3544C15.664 15.1102 12.0689 17.0208 9.11331 19.9284C7.08756 21.9395 5.40522 24.7171 7.10521 26.9712C10.3071 31.4356 13.6052 33.8027 17.5938 37.7183H7.07384C3.0135 37.7183 2.93791 43.9662 7.19716 43.9904C8.49679 44.0702 23.4469 43.8789 25.1012 43.8589C26.7402 43.2944 27.5194 40.7572 26.7501 38.916C23.6181 32.7213 6.00763 21.5899 26.4547 23.6925C27.2452 23.7309 28.6624 24.2346 28.6249 27.6383C28.573 32.3544 28.4675 38.7282 28.6624 41.68C28.6335 44.697 33.9538 44.893 33.9557 41.68C34.0015 31.2304 33.9538 27.4327 33.9636 23.0507C33.8824 18.8082 30.4237 15.1686 26.807 14.2649C24.357 13.9539 22.0214 13.9042 19.5995 14.3545L19.6 14.3544ZM37.1903 16.9409C37.0706 16.9493 36.978 17.049 36.9785 17.1689C36.9794 17.2942 37.0813 17.3952 37.2066 17.395C37.3318 17.3952 37.4337 17.2942 37.4347 17.1689C37.4349 17.0429 37.3326 16.9407 37.2066 16.9409C37.2012 16.9407 37.1957 16.9407 37.1903 16.9409ZM37.952 17.5926C37.8259 17.5924 37.7237 17.6947 37.7239 17.8207C37.7237 17.9468 37.8259 18.049 37.952 18.0488C38.078 18.049 38.1803 17.9468 38.1801 17.8207C38.1803 17.6947 38.078 17.5924 37.952 17.5926ZM37.2514 18.4337C37.0748 18.4338 36.9317 18.577 36.9316 18.7535C36.9317 18.9301 37.0748 19.0731 37.2514 19.0732C37.4279 19.0731 37.571 18.9301 37.5711 18.7535C37.571 18.577 37.4279 18.4338 37.2514 18.4337ZM38.3573 18.7291C38.117 18.7462 37.931 18.9464 37.9316 19.1873C37.9316 19.4404 38.1368 19.6455 38.3898 19.6455C38.6429 19.6455 38.8481 19.4404 38.8481 19.1873C38.8481 18.9342 38.6429 18.729 38.3898 18.7291C38.379 18.7287 38.3681 18.7287 38.3573 18.7291ZM39.4489 19.8573C39.2724 19.8575 39.1293 20.0005 39.1292 20.1771C39.1293 20.3536 39.2724 20.4967 39.4489 20.4968C39.6254 20.4967 39.7685 20.3536 39.7686 20.1771C39.7685 20.0005 39.6254 19.8575 39.4489 19.8573ZM37.4917 20.0651C37.324 20.0769 37.194 20.2166 37.1944 20.3848C37.1945 20.5613 37.3376 20.7044 37.5141 20.7045C37.6907 20.7044 37.8337 20.5613 37.8339 20.3848C37.8337 20.2083 37.6907 20.0652 37.5141 20.0651C37.5066 20.0648 37.4992 20.0648 37.4917 20.0651ZM38.2738 20.8939C37.8937 20.8941 37.5855 21.2022 37.5854 21.5823C37.5844 21.9632 37.8929 22.2726 38.2738 22.2727C38.6547 22.2726 38.9632 21.9632 38.9621 21.5823C38.962 21.2022 38.6539 20.894 38.2738 20.8939ZM40.233 21.0548C39.8521 21.055 39.5436 21.3643 39.5446 21.7453C39.5448 22.1254 39.8529 22.4335 40.233 22.4336C40.6131 22.4335 40.9212 22.1254 40.9214 21.7453C40.9224 21.3643 40.6139 21.0549 40.233 21.0548ZM38.6261 22.8307C38.5065 22.8392 38.4138 22.9389 38.4143 23.0589C38.4152 23.1841 38.5171 23.2851 38.6424 23.285C38.7676 23.2851 38.8695 23.1841 38.8705 23.0589C38.8707 22.9328 38.7684 22.8306 38.6424 22.8307C38.637 22.8305 38.6315 22.8305 38.6261 22.8307ZM40.624 23.1302C40.1046 23.1308 39.6838 23.5517 39.6831 24.0711C39.6826 24.5913 40.1039 25.0134 40.624 25.0141C41.145 25.0145 41.5675 24.5921 41.567 24.0711C41.5663 23.551 41.1442 23.1297 40.624 23.1302ZM38.6343 23.7981C38.394 23.8152 38.208 24.0155 38.2086 24.2564C38.2086 24.5095 38.4138 24.7147 38.6668 24.7146C38.9199 24.7146 39.1251 24.5094 39.1251 24.2564C39.1251 24.0033 38.9199 23.7981 38.6668 23.7981C38.656 23.7977 38.6451 23.7977 38.6343 23.7981ZM41.793 24.9162C41.7168 24.9214 41.6573 24.9844 41.6566 25.0609C41.6564 25.1419 41.7222 25.2077 41.8032 25.2075C41.8843 25.2077 41.95 25.1419 41.9499 25.0609C41.9489 24.9806 41.8835 24.9161 41.8032 24.9162C41.7998 24.9161 41.7964 24.9161 41.793 24.9162ZM41.3938 25.5863C41.0137 25.5864 40.7056 25.8945 40.7055 26.2746C40.7056 26.6547 41.0137 26.9629 41.3938 26.963C41.774 26.9629 42.0821 26.6547 42.0822 26.2746C42.0821 25.8945 41.774 25.5864 41.3938 25.5863ZM38.7972 25.6759C38.5202 25.6951 38.3056 25.9257 38.3063 26.2033C38.3074 26.4939 38.5433 26.729 38.8338 26.7288C39.1244 26.7289 39.3603 26.4939 39.3613 26.2033C39.3614 25.912 39.1252 25.6758 38.8338 25.6759C38.8216 25.6755 38.8094 25.6755 38.7972 25.6759ZM39.7706 26.9039C39.6772 26.9102 39.6043 26.9875 39.6036 27.0812C39.6035 27.1803 39.6838 27.2605 39.7829 27.2603C39.8819 27.2605 39.9623 27.1803 39.9621 27.0812C39.9612 26.983 39.8811 26.9038 39.7829 26.9039C39.7788 26.9038 39.7747 26.9038 39.7707 26.9039H39.7706ZM42.6341 27.2299C42.5145 27.2383 42.4219 27.338 42.4223 27.4579C42.4233 27.5832 42.5252 27.6842 42.6504 27.684C42.7757 27.6842 42.8776 27.5832 42.8785 27.4579C42.8787 27.3319 42.7765 27.2297 42.6504 27.2299C42.645 27.2297 42.6396 27.2297 42.6341 27.2299ZM41.1209 27.4315C40.9532 27.4434 40.8233 27.5831 40.8236 27.7512C40.8237 27.9278 40.9668 28.0709 41.1433 28.071C41.3199 28.0709 41.463 27.9278 41.4631 27.7512C41.463 27.5747 41.3199 27.4316 41.1433 27.4315C41.1359 27.4312 41.1284 27.4312 41.1209 27.4315ZM39.2269 28.2583C38.8467 28.2584 38.5386 28.5665 38.5385 28.9466C38.5386 29.3267 38.8467 29.6349 39.2269 29.635C39.607 29.6349 39.9151 29.3268 39.9152 28.9466C39.9151 28.5665 39.607 28.2584 39.2269 28.2583ZM42.5465 28.3928C42.0271 28.3934 41.6063 28.8142 41.6056 29.3336C41.6051 29.8538 42.0263 30.276 42.5465 30.2766C43.0675 30.2771 43.49 29.8546 43.4895 29.3336C43.4888 28.8134 43.0667 28.3923 42.5465 28.3928Z" fill="#333333"/>
</svg>
