<svg width="48" height="48" viewBox="0 0 48 48" fill="none" xmlns="http://www.w3.org/2000/svg">
<path fill-rule="evenodd" clip-rule="evenodd" d="M25.5001 15C27.9853 15 30.0001 12.9853 30.0001 10.5C30.0001 8.01472 27.9853 6 25.5001 6C23.0148 6 21.0001 8.01472 21.0001 10.5C21.0001 12.9853 23.0148 15 25.5001 15ZM30.1172 18.0532C30.1172 18.635 29.6433 19.1066 29.0586 19.1066C28.474 19.1066 28.0001 18.635 28.0001 18.0532C28.0001 17.4715 28.474 16.9998 29.0586 16.9998C29.6433 16.9998 30.1172 17.4715 30.1172 18.0532ZM42.0001 39.4998C42.0001 40.8805 38.6422 41.9998 34.5001 41.9998C30.3579 41.9998 27.0001 40.8805 27.0001 39.4998C27.0001 38.1191 30.3579 36.9998 34.5001 36.9998C34.688 36.9998 34.8742 37.0021 35.0587 37.0067C35.0205 36.8709 35.0001 36.7278 35.0001 36.5799C35.0001 35.7073 35.711 34.9998 36.5879 34.9998C37.4649 34.9998 38.1758 35.7073 38.1758 36.5799C38.1758 36.8351 38.115 37.0761 38.0071 37.2894C40.3822 37.709 42.0001 38.5414 42.0001 39.4998ZM31.5879 25.16C32.4649 25.16 33.1758 24.4526 33.1758 23.5799C33.1758 22.7073 32.4649 21.9998 31.5879 21.9998C30.711 21.9998 30.0001 22.7073 30.0001 23.5799C30.0001 24.4526 30.711 25.16 31.5879 25.16ZM37.1172 29.0532C37.1172 29.635 36.6433 30.1066 36.0586 30.1066C35.474 30.1066 35.0001 29.635 35.0001 29.0532C35.0001 28.4715 35.474 27.9998 36.0586 27.9998C36.6433 27.9998 37.1172 28.4715 37.1172 29.0532ZM31.0586 33.1066C31.6433 33.1066 32.1172 32.635 32.1172 32.0532C32.1172 31.4715 31.6433 30.9998 31.0586 30.9998C30.474 30.9998 30.0001 31.4715 30.0001 32.0532C30.0001 32.635 30.474 33.1066 31.0586 33.1066ZM12.3482 25.3806C13.0065 26.1251 13.6783 26.8127 14.213 27.3388C14.518 27.6389 14.7746 27.8827 14.9535 28.0502C15.0429 28.1338 15.1126 28.1982 15.159 28.2408L15.2106 28.288L15.2224 28.2987L15.2244 28.3004C15.6139 28.6517 15.8502 29.1422 15.8817 29.6659L16.4966 39.8798C16.5629 40.9824 15.7229 41.93 14.6204 41.9964C13.5178 42.0628 12.5702 41.2227 12.5038 40.1202L11.9369 30.7029C11.7826 30.5557 11.6041 30.3834 11.4077 30.1901C10.747 29.5401 9.86848 28.6386 9.02322 27.6534C8.1937 26.6865 7.32419 25.5567 6.74314 24.4568C6.45336 23.9082 6.186 23.2763 6.06641 22.6127C5.9463 21.9463 5.94829 21.0788 6.42338 20.2559C9.12075 15.5839 11.8138 13.3571 14.2516 12.4485C15.4665 11.9957 16.5372 11.9024 17.3895 11.9409C18.0578 11.971 19.0263 12.1562 18.8535 12.1342C19.844 12.2602 20.3395 12.9715 20.5214 13.3255C20.7056 13.6838 20.7732 14.0375 20.8047 14.2515C20.8718 14.7075 20.8665 15.2263 20.8432 15.6892C20.7948 16.6524 20.638 17.8673 20.4631 19.0118C20.2858 20.1717 20.0799 21.3215 19.9193 22.1774C19.8905 22.3307 19.8632 22.4749 19.8376 22.6084L23.5358 26.6511C24.2813 27.4662 24.225 28.7312 23.41 29.4768C22.595 30.2223 21.3299 30.166 20.5844 29.351L16.2045 24.5631C15.772 24.0903 15.5923 23.4389 15.721 22.8112L15.7256 22.7886L15.7401 22.7169C15.7529 22.6535 15.7718 22.5595 15.7955 22.4393C15.843 22.1989 15.9101 21.8541 15.9879 21.4397C16.0453 21.1339 16.1082 20.7915 16.1733 20.4261C14.6901 21.7192 13.7286 23.08 12.7039 24.7878L12.3482 25.3806Z" fill="#333333"/>
</svg>
