<svg width="48" height="48" viewBox="0 0 48 48" fill="none" xmlns="http://www.w3.org/2000/svg">
<path d="M12.8253 11C12.5492 11 12.3253 11.2239 12.3253 11.5V21.3661C11.0311 23.0201 10.5744 24.8928 10.4132 26.0084C10.3342 26.555 10.773 27 11.3253 27H30.3253C30.8776 27 31.3151 26.5512 31.2282 26.0058C31.1821 25.7158 31.114 25.3749 31.0135 25H42.3253C42.8776 25 43.3253 24.5523 43.3253 24C43.3253 23.4477 42.8776 23 42.3253 23H30.2343C28.9683 20.5963 26.2335 18 20.3253 18C17.0196 18 14.8067 18.9835 13.3253 20.3002V11.5C13.3253 11.2239 13.1015 11 12.8253 11Z" stroke="#333333"/>
<path fill-rule="evenodd" clip-rule="evenodd" d="M5.76364 33.9931L8.43031 36.9931C8.99961 37.6336 9.81562 38 10.6725 38H36.7198C37.7228 38 38.6595 37.4987 39.2159 36.6641L41.2159 33.6641C42.545 31.6704 41.1159 29 38.7198 29H8.00587C5.41732 29 4.0439 32.0584 5.76364 33.9931ZM12.5 36C13.8807 36 15 34.8807 15 33.5C15 32.1193 13.8807 31 12.5 31C11.1193 31 10 32.1193 10 33.5C10 34.8807 11.1193 36 12.5 36ZM26 33.5C26 34.8807 24.8807 36 23.5 36C22.1193 36 21 34.8807 21 33.5C21 32.1193 22.1193 31 23.5 31C24.8807 31 26 32.1193 26 33.5ZM34.5 36C35.8807 36 37 34.8807 37 33.5C37 32.1193 35.8807 31 34.5 31C33.1193 31 32 32.1193 32 33.5C32 34.8807 33.1193 36 34.5 36Z" stroke="#333333"/>
</svg>
