<svg width="48" height="48" viewBox="0 0 48 48" fill="none" xmlns="http://www.w3.org/2000/svg">
<path fill-rule="evenodd" clip-rule="evenodd" d="M48 0H0V48H48V0ZM12.3253 11.5C12.3253 11.2239 12.5492 11 12.8253 11C13.1015 11 13.3253 11.2239 13.3253 11.5V20.3002C14.8067 18.9835 17.0196 18 20.3253 18C26.2335 18 28.9683 20.5963 30.2343 23H42.3253C42.8776 23 43.3253 23.4477 43.3253 24C43.3253 24.5523 42.8776 25 42.3253 25H31.0135C31.114 25.3749 31.1821 25.7158 31.2282 26.0058C31.3151 26.5512 30.8776 27 30.3253 27H11.3253C10.773 27 10.3342 26.555 10.4132 26.0084C10.5744 24.8928 11.0311 23.0201 12.3253 21.3661V11.5ZM8.43031 36.9931L5.76364 33.9931C4.0439 32.0584 5.41732 29 8.00587 29H38.7198C41.1159 29 42.545 31.6704 41.2159 33.6641L39.2159 36.6641C38.6595 37.4987 37.7228 38 36.7198 38H10.6725C9.81562 38 8.99961 37.6336 8.43031 36.9931ZM15 33.5C15 34.8807 13.8807 36 12.5 36C11.1193 36 10 34.8807 10 33.5C10 32.1193 11.1193 31 12.5 31C13.8807 31 15 32.1193 15 33.5ZM23.5 36C24.8807 36 26 34.8807 26 33.5C26 32.1193 24.8807 31 23.5 31C22.1193 31 21 32.1193 21 33.5C21 34.8807 22.1193 36 23.5 36ZM37 33.5C37 34.8807 35.8807 36 34.5 36C33.1193 36 32 34.8807 32 33.5C32 32.1193 33.1193 31 34.5 31C35.8807 31 37 32.1193 37 33.5Z" fill="#333333"/>
</svg>
