<svg width="48" height="48" viewBox="0 0 48 48" fill="none" xmlns="http://www.w3.org/2000/svg">
<path d="M4.22117 23.9455L4.22355 23.9433L18.2266 10.7008C18.4329 10.9118 18.7079 11.1937 18.9835 11.478C19.2594 11.7626 19.5345 12.0483 19.7413 12.2672C19.845 12.377 19.9294 12.4676 19.9874 12.532C20.0124 12.5598 20.03 12.5799 20.0412 12.5931C20.0527 12.6107 20.0653 12.6277 20.079 12.6438C20.3441 12.9557 20.48 13.3216 20.48 13.72C20.48 14.0281 20.4052 14.2843 20.2642 14.5349C20.258 14.546 20.2521 14.5573 20.2468 14.5689L20.2375 14.5863C20.2252 14.609 20.2067 14.6426 20.1818 14.6873C20.1323 14.7762 20.0607 14.9035 19.9707 15.0626C19.7909 15.3804 19.5394 15.8223 19.2483 16.332C18.6661 17.3515 17.9265 18.6409 17.2868 19.7503C17.1976 19.905 17.1977 20.0955 17.2871 20.2501C17.3764 20.4048 17.5414 20.5 17.72 20.5H37.5C38.6039 20.5 39.5 21.3961 39.5 22.5C39.5 23.6039 38.6039 24.5 37.5 24.5H24C23.7239 24.5 23.5 24.7239 23.5 25V27C23.5 27.2761 23.7239 27.5 24 27.5H41.5C42.6039 27.5 43.5 28.3961 43.5 29.5C43.5 30.6039 42.6039 31.5 41.5 31.5H24C23.7239 31.5 23.5 31.7239 23.5 32V34C23.5 34.2761 23.7239 34.5 24 34.5H39.5C40.6039 34.5 41.5 35.3961 41.5 36.5C41.5 37.6039 40.6039 38.5 39.5 38.5H24C23.7239 38.5 23.5 38.7239 23.5 39V41C23.5 41.2761 23.7239 41.5 24 41.5H35.5C36.6039 41.5 37.5 42.3961 37.5 43.5C37.5 44.6039 36.6039 45.5 35.5 45.5H24H20.5H8C4.95614 45.5 2.5 43.0439 2.5 40V27.94C2.5 26.4164 3.12407 24.9695 4.22117 23.9455ZM20.2488 14.5651L20.2483 14.5661C20.2526 14.557 20.2539 14.5552 20.2488 14.5651ZM37 2.7713C37.1112 2.90481 37.2435 3.06571 37.3916 3.24993C37.8548 3.82578 38.4714 4.62683 39.0869 5.52926C39.7036 6.43328 40.3127 7.4296 40.766 8.39685C41.2239 9.374 41.5 10.2745 41.5 11C41.5 13.4839 39.4839 15.5 37 15.5C34.5161 15.5 32.5 13.4839 32.5 11C32.5 10.2745 32.7761 9.374 33.234 8.39685C33.6873 7.4296 34.2964 6.43328 34.9131 5.52926C35.5286 4.62683 36.1452 3.82578 36.6084 3.24993C36.7565 3.06571 36.8888 2.90481 37 2.7713ZM27 10.7641C27.0271 10.7962 27.0553 10.8299 27.0846 10.8651C27.3609 11.1967 27.7282 11.6546 28.0945 12.1625C28.462 12.6721 28.8212 13.222 29.0865 13.7385C29.3598 14.2704 29.5 14.7043 29.5 15C29.5 16.3839 28.3839 17.5 27 17.5C25.6161 17.5 24.5 16.3839 24.5 15C24.5 14.7043 24.6402 14.2704 24.9135 13.7385C25.1788 13.222 25.538 12.6721 25.9055 12.1625C26.2718 11.6546 26.6391 11.1967 26.9154 10.8651C26.9447 10.8299 26.9729 10.7962 27 10.7641Z" stroke="#333333" stroke-linejoin="round"/>
</svg>
