<svg width="48" height="48" viewBox="0 0 48 48" fill="none" xmlns="http://www.w3.org/2000/svg">
<path fill-rule="evenodd" clip-rule="evenodd" d="M35.5 7.99967L36.3 7.39967L36.3042 7.4053L36.3148 7.41954L36.3545 7.47297C36.3888 7.51939 36.4386 7.58706 36.5017 7.67364C36.6278 7.84677 36.8071 8.09579 37.0219 8.40206C37.4508 9.01368 38.0244 9.85802 38.5996 10.7848C39.1728 11.7082 39.7588 12.7314 40.2048 13.6978C40.6334 14.6263 41 15.6408 41 16.4997C41 19.552 38.5523 21.9997 35.5 21.9997C32.4477 21.9997 30 19.552 30 16.4997C30 15.6408 30.3666 14.6263 30.7952 13.6978C31.2412 12.7314 31.8272 11.7082 32.4004 10.7848C32.9756 9.85802 33.5492 9.01368 33.9781 8.40206C34.1929 8.09579 34.3722 7.84677 34.4983 7.67364C34.5614 7.58706 34.6112 7.51939 34.6455 7.47297L34.6852 7.41954L34.6958 7.4053L34.7 7.39967L35.5 7.99967ZM34.0996 11.8395C34.5998 11.0338 35.1012 10.2891 35.5 9.71593C35.8988 10.2891 36.4002 11.0338 36.9004 11.8395C37.4522 12.7286 37.9912 13.6742 38.3889 14.5359C38.8041 15.4356 39 16.1085 39 16.4997C39 18.4474 37.4477 19.9997 35.5 19.9997C33.5523 19.9997 32 18.4474 32 16.4997C32 16.1085 32.1959 15.4356 32.6111 14.5359C33.0088 13.6742 33.5478 12.7286 34.0996 11.8395Z" fill="#333333"/>
<path d="M35.5 7.99967C36.3 7.39967 36.2999 7.39955 36.3 7.39967L35.5 6.33301L34.7 7.39967C34.7001 7.39955 34.7 7.39967 35.5 7.99967Z" fill="#333333"/>
<path fill-rule="evenodd" clip-rule="evenodd" d="M23.8111 14.4147L23.0128 13.3198L22.201 14.3983L22.1978 14.4025L22.1903 14.4125L22.1631 14.4492C22.1396 14.4808 22.1058 14.5267 22.0631 14.5852C21.9778 14.7023 21.8568 14.8702 21.712 15.0771C21.4231 15.4897 21.0363 16.0615 20.6478 16.6942C20.2614 17.3236 19.8622 18.0311 19.5564 18.7126C19.265 19.3621 19 20.1118 19 20.7853C19 23.0715 20.7039 24.9996 23 24.9996C25.2961 24.9996 27 23.0715 27 20.7853C27 20.1366 26.729 19.3967 26.4421 18.7635C26.1378 18.0917 25.7403 17.3828 25.3552 16.7474C24.9681 16.1086 24.5825 15.5263 24.2946 15.1046C24.1503 14.8934 24.0297 14.7214 23.9448 14.6015C23.9023 14.5416 23.8687 14.4946 23.8454 14.4622L23.8184 14.4248L23.8111 14.4147ZM23 14.9996L22.201 14.3983C22.2011 14.3981 22.201 14.3983 23 14.9996ZM22.9899 16.7498C22.7902 17.0473 22.5709 17.3846 22.3522 17.7407C21.9886 18.3328 21.6378 18.9592 21.3811 19.5313C21.11 20.1354 21 20.5589 21 20.7853C21 22.0992 21.9361 22.9996 23 22.9996C24.0639 22.9996 25 22.0992 25 20.7853C25 20.5984 24.896 20.1972 24.6204 19.5889C24.3622 19.0191 24.0097 18.3861 23.6448 17.784C23.4198 17.4128 23.1943 17.0601 22.9899 16.7498Z" fill="#333333"/>
<path fill-rule="evenodd" clip-rule="evenodd" d="M13 39.7489V39.9957C13 41.1003 12.1046 41.9957 11 41.9957H8C6.89543 41.9957 6 41.1003 6 39.9957V29.0004C6 27.8958 6.89543 27.0004 8 27.0004H11C11.946 27.0004 12.7386 27.6572 12.9467 28.5396C14.2711 28.0624 15.818 27.4942 16.2913 27.2785C16.6933 27.0953 17.1575 27.0332 17.5432 27.0109C17.9488 26.9874 18.3696 27.0036 18.7378 27.0321C19.1092 27.0609 19.4463 27.1037 19.6897 27.1391C19.8119 27.1569 19.9119 27.173 19.9824 27.1849C20.0177 27.1908 20.0457 27.1957 20.0655 27.1992L20.089 27.2034L20.0959 27.2047L20.0995 27.2054L20.1174 27.2087L26.8062 28.7092L26.848 28.7226L26.8594 28.7262L26.9055 28.7403C26.9476 28.7529 27.0115 28.7716 27.0939 28.7945C27.259 28.8402 27.4964 28.9019 27.7794 28.9636C28.3543 29.0891 29.0785 29.2061 29.7538 29.2061C30.3777 29.2061 31.0231 29.4387 31.3681 30.0705C31.6644 30.6131 31.5954 31.2088 31.4845 31.6213C31.3464 32.1346 31.0604 32.675 30.6968 33.1339C31.1875 32.9488 31.7239 32.7296 32.2997 32.4934L32.4228 32.4429C34.0458 31.7768 35.9703 30.9871 37.6678 30.7063C39.6075 30.3855 41.0193 31.0895 41.6593 32.3387C42.229 33.4507 42.0967 34.91 41.2393 35.7893C41.0241 36.01 40.6962 36.2416 40.3669 36.4551C40.0153 36.6832 39.5822 36.9408 39.101 37.2138C38.1372 37.7604 36.9441 38.3888 35.7462 38.9963C33.3742 40.1994 30.8878 41.3692 30.0977 41.6586C29.1821 41.9939 28.1986 42.0257 27.2528 41.9769C26.7376 41.9504 26.1391 41.8909 25.5442 41.8317C25.1144 41.789 24.6866 41.7465 24.2935 41.7167C22.3657 41.5707 20.8861 41.1001 19.5232 40.6667L19.3575 40.614C17.9499 40.1672 16.6404 39.7709 14.9054 39.701C14.5087 39.685 13.7166 39.7141 13 39.7489ZM17.1208 29.0984C17.1849 29.0692 17.3549 29.0251 17.6585 29.0076C17.9421 28.9912 18.2657 29.0016 18.5835 29.0261C18.8981 29.0505 19.1889 29.0873 19.4018 29.1183C19.5076 29.1337 19.5929 29.1474 19.6506 29.1571C19.6795 29.162 19.7013 29.1658 19.7154 29.1683L19.7176 29.1687L26.2851 30.642L26.3302 30.6557C26.3848 30.6721 26.4625 30.6949 26.5597 30.7218C26.7538 30.7756 27.0277 30.8467 27.3531 30.9177C27.9383 31.0454 28.7223 31.18 29.5215 31.2028C29.4645 31.3646 29.368 31.5555 29.2372 31.7456C29.0776 31.9775 28.9023 32.1569 28.7584 32.2597C28.3418 32.5573 28.0056 32.6817 27.8015 32.7347C27.6982 32.7615 27.6255 32.7708 27.5896 32.774L27.5743 32.7752L27.5685 32.7756L22.2065 32.7107L22.0151 34.6944L22.1944 33.7106L22.0161 34.6946L22.0693 34.7042L22.2218 34.7317C22.3538 34.7553 22.5439 34.7891 22.7776 34.83C23.2446 34.9118 23.8861 35.022 24.5836 35.1357C25.958 35.3596 27.6146 35.6079 28.5545 35.6646C29.2036 35.7037 29.9596 35.5045 30.6627 35.2698C31.3964 35.0248 32.2252 34.6857 33.0587 34.3438C34.776 33.6393 36.5246 32.9226 37.9942 32.6795C39.2646 32.4693 39.7168 32.9335 39.8793 33.2507C40.1121 33.7051 39.9855 34.2104 39.8074 34.393C39.7637 34.4378 39.6062 34.5647 39.2786 34.7771C38.9733 34.9751 38.578 35.2111 38.1143 35.4741C37.1882 35.9994 36.0255 36.6122 34.8416 37.2126C32.4501 38.4255 30.0696 39.5389 29.4099 39.7806C28.8757 39.9762 28.2155 40.0239 27.3557 39.9796C26.8478 39.9534 26.366 39.9044 25.8407 39.851C25.4161 39.8078 24.963 39.7617 24.4446 39.7224C22.7528 39.5942 21.4666 39.1856 20.0883 38.7477L19.9627 38.7078C18.5351 38.2546 17.0075 37.7841 14.9859 37.7026C14.5308 37.6843 13.7206 37.7124 13 37.7465L13 30.6456C14.4055 30.1426 16.4871 29.3872 17.1208 29.0984ZM19.9162 28.1884L20.0995 27.2054C20.0997 27.2054 20.0995 27.2054 19.9162 28.1884ZM11 29.0004H8V39.9957H11V29.0004Z" fill="#333333"/>
</svg>
