<svg width="48" height="48" viewBox="0 0 48 48" fill="none" xmlns="http://www.w3.org/2000/svg">
<path d="M37 16C39.76 16 42 13.76 42 11C42 7.66 37 2 37 2C37 2 32 7.66 32 11C32 13.76 34.24 16 37 16ZM27 18C28.66 18 30 16.66 30 15C30 13.32 27 10 27 10C27 10 24 13.32 24 15C24 16.66 25.34 18 27 18ZM18.24 10L3.88 23.58C2.68 24.7 2 26.28 2 27.94V40C2 43.32 4.68 46 8 46H20.5H24H35.5C36.88 46 38 44.88 38 43.5C38 42.12 36.88 41 35.5 41H24V39H39.5C40.88 39 42 37.88 42 36.5C42 35.12 40.88 34 39.5 34H24V32H41.5C42.88 32 44 30.88 44 29.5C44 28.12 42.88 27 41.5 27H24V25H37.5C38.88 25 40 23.88 40 22.5C40 21.12 38.88 20 37.5 20H17.72C19 17.78 20.68 14.84 20.7 14.78C20.88 14.46 20.98 14.12 20.98 13.72C20.98 13.2 20.8 12.72 20.46 12.32C20.44 12.24 18.24 10 18.24 10Z" fill="#333333"/>
</svg>
