<svg width="48" height="48" viewBox="0 0 48 48" fill="none" xmlns="http://www.w3.org/2000/svg">
<path d="M23.6024 6.31201C19.0407 6.31471 14.6562 8.07869 11.3637 11.236C8.07113 14.3932 6.12484 18.6999 5.93089 23.2575L4 23.4247L8.42167 29.761L11.4124 22.7822L9.42963 22.954C9.69595 19.3763 11.3043 16.0312 13.9324 13.5891C16.5606 11.1469 20.0145 9.78806 23.6021 9.78461C26.5039 9.78663 29.3356 10.676 31.7175 12.3334C34.0993 13.9909 35.9173 16.3371 36.9276 19.0573L40.2564 18.086C39.0341 14.6452 36.7775 11.6666 33.7959 9.55866C30.8143 7.45076 27.2537 6.31676 23.6023 6.31201H23.6024ZM23.5112 11.1093C23.5002 11.1066 23.4917 11.1081 23.4859 11.1172C23.4859 11.1172 20.2865 15.0213 20.2868 17.3034C20.2865 19.5856 21.7282 21.4378 23.5094 21.4382C25.2913 21.4389 26.7365 19.5862 26.7362 17.3034C26.7364 15.0916 23.8557 11.1896 23.5111 11.1125L23.5112 11.1093ZM25.0349 14.6044C27.8111 16.842 25.0573 21.6884 23.3799 20.8297C23.1821 20.6698 22.935 20.4644 22.999 20.1024C23.2172 19.3055 26.0959 19.2518 25.0349 14.6043V14.6044ZM38.9806 18.7116L36.2464 25.8157L37.72 25.6732C37.3127 29.1323 35.6506 32.3217 33.0486 34.637C30.4466 36.9523 27.0856 38.2327 23.6027 38.2352C20.7926 38.2325 18.0463 37.3976 15.7102 35.8358C13.3741 34.274 11.5529 32.0552 10.4764 29.4595L7.13171 30.436C8.42456 33.7537 10.6881 36.6044 13.6266 38.6154C16.5651 40.6264 20.0418 41.7043 23.6025 41.7082C28.0667 41.7073 32.3657 40.0193 35.638 36.9826C38.9102 33.9459 40.9139 29.7847 41.2476 25.333L43.0233 25.1616L38.9806 18.7116ZM21.5033 23.8412C21.4833 23.8412 21.4631 23.8606 21.4598 23.8923C21.4096 25.0233 20.4788 25.9148 19.3467 25.9161C18.2141 25.9155 17.2825 25.0238 17.2323 23.8923C17.2282 23.8238 17.1468 23.8254 17.1458 23.8923C17.0957 25.0233 16.1648 25.9148 15.0328 25.9161C13.9002 25.9155 12.9685 25.0238 12.9183 23.8923H12.911C12.9302 25.7869 13.4498 27.6426 14.4171 29.272C17.4567 28.4566 20.4866 28.347 23.5503 29.0217C26.9528 29.8153 30.1913 29.7024 33.2577 28.6362C33.9992 27.164 34.3924 25.541 34.4066 23.8926H34.4017C34.3515 25.0235 33.4207 25.9151 32.2886 25.9165C31.156 25.9158 30.2244 25.024 30.1742 23.8926C30.1577 23.8241 30.1046 23.8241 30.0878 23.8926C30.0376 25.0235 29.1068 25.9151 27.9747 25.9165C26.8421 25.9158 25.9105 25.024 25.8603 23.8926C25.8493 23.8241 25.7885 23.8241 25.7739 23.8926C25.7237 25.0235 24.7929 25.9151 23.6608 25.9165C22.528 25.9159 21.5962 25.0242 21.546 23.8926C21.5425 23.8578 21.5231 23.8415 21.5032 23.8415L21.5033 23.8412ZM19.8977 30.0834C19.7185 30.0807 19.5394 30.0814 19.3605 30.0848C18.0156 30.1119 16.6801 30.2973 15.3535 30.6126C17.3923 33.1041 20.4403 34.5509 23.6594 34.5555C26.8971 34.5526 29.961 33.0898 32 30.5748C29.2369 31.2472 26.4645 31.1857 23.6847 30.5826C22.4139 30.2603 21.1517 30.1027 19.8976 30.0862L19.8977 30.0834Z" fill="#333333"/>
</svg>
