<svg width="48" height="48" viewBox="0 0 48 48" fill="none" xmlns="http://www.w3.org/2000/svg">
<path fill-rule="evenodd" clip-rule="evenodd" d="M48 0H0V48H48V0ZM24 33C27.3137 33 30 30.2323 30 26.8182C30 21.4091 24 15 24 15C24 15 18 21.4091 18 26.8182C18 30.2323 20.6863 33 24 33ZM7 10H12.6863C9.69424 12.4178 7.54593 15.7395 6.5754 19.4852C5.49663 23.6487 5.94431 28.0608 7.83737 31.9227C9.73044 35.7846 12.9438 38.8411 16.8955 40.5386C20.8473 42.2362 25.2763 42.4626 29.3806 41.177L28.7827 39.2684C25.1345 40.4112 21.1976 40.2099 17.6849 38.701C14.1722 37.1921 11.3159 34.4752 9.63322 31.0424C7.9505 27.6096 7.55256 23.6877 8.51146 19.9869C9.38027 16.6337 11.3109 13.6629 14 11.51V17H16V8H7V10ZM35.3137 38H41V40H32V31H34V36.49C36.6891 34.3371 38.6197 31.3663 39.4885 28.0131C40.4474 24.3123 40.0495 20.3904 38.3668 16.9576C36.6841 13.5248 33.8278 10.8079 30.3151 9.29899C26.8024 7.79006 22.8655 7.58876 19.2173 8.73155L18.6194 6.82299C22.7237 5.53735 27.1527 5.76381 31.1045 7.46137C35.0562 9.15892 38.2696 12.2154 40.1626 16.0773C42.0557 19.9392 42.5034 24.3513 41.4246 28.5148C40.4541 32.2605 38.3058 35.5822 35.3137 38Z" fill="#333333"/>
</svg>
