<?xml version="1.0" encoding="UTF-8" standalone="no"?>
<!-- Created with Inkscape (http://www.inkscape.org/) -->
<svg id="svg8" xmlns:rdf="http://www.w3.org/1999/02/22-rdf-syntax-ns#" xmlns="http://www.w3.org/2000/svg" xmlns:osb="http://www.openswatchbook.org/uri/2009/osb" height="48" width="48" version="1.1" xmlns:cc="http://creativecommons.org/ns#" viewBox="0 0 12.7 12.7" xmlns:dc="http://purl.org/dc/elements/1.1/">
 <title id="title4753">UIO-icon</title>
 <metadata id="metadata5">
  <rdf:RDF>
   <cc:Work rdf:about="">
    <dc:format>image/svg+xml</dc:format>
    <dc:type rdf:resource="http://purl.org/dc/dcmitype/StillImage"/>
    <dc:title>UIO-icon</dc:title>
    <dc:creator>
     <cc:Agent>
      <dc:title>Joaquín Urbano</dc:title>
     </cc:Agent>
    </dc:creator>
    <dc:rights>
     <cc:Agent>
      <dc:title>GPL</dc:title>
     </cc:Agent>
    </dc:rights>
   </cc:Work>
  </rdf:RDF>
 </metadata>
 <g id="layer1" transform="translate(0,-284.3)" fill="#333">
  <path id="path4816" d="m6.2448 285.97a4.6826 4.6826 0 0 0 -4.6756 4.4835l-0.51088 0.04423 1.1699 1.6765 0.79129-1.8465-0.5246 0.045459a3.7638 3.7638 0 0 1 3.7498 -3.4844 3.7638 3.7638 0 0 1 3.5257 2.4534l0.88074-0.25699a4.6826 4.6826 0 0 0 -4.4064 -3.1152zm-0.024143 1.2693c-0.002918-0.0007065-0.00515-0.0003481-0.0066857 0.00205 0 0-0.84651 1.033-0.84644 1.6368-0.000079861 0.60382 0.38137 1.0939 0.85266 1.094 0.47146 0.000174 0.85382-0.49001 0.85375-1.094 0.000056107-0.58521-0.76213-1.6176-0.8533-1.638zm0.40315 0.92473c0.73453 0.59204 0.0059179 1.8743-0.4379 1.6471-0.052321-0.042285-0.11769-0.096651-0.10078-0.19242 0.057751-0.21084 0.81941-0.22505 0.53868-1.4547zm3.6898 1.0867-0.72343 1.8796 0.38988-0.037678a3.7638 3.7638 0 0 1 -3.7352 3.3237 3.7638 3.7638 0 0 1 -3.473 -2.3219l-0.88494 0.25837a4.6826 4.6826 0 0 0 4.3579 2.9824 4.6826 4.6826 0 0 0 4.6686 -4.3326l0.46982-0.045357zm-4.6242 1.3572c-0.0053035 0-0.010639 0.00512-0.011522 0.013515-0.013266 0.29924-0.25955 0.53512-0.55908 0.53548-0.29967-0.000174-0.54616-0.2361-0.55945-0.53548-0.001075-0.018122-0.022623-0.017713-0.022869 0-0.013274 0.29924-0.25955 0.53512-0.55908 0.53548-0.29967-0.000174-0.54616-0.23611-0.55945-0.53548h-0.0019248c0.0050681 0.50128 0.14256 0.9923 0.39848 1.4234 0.80423-0.21574 1.6059-0.24476 2.4165-0.066243 0.90023 0.20996 1.7571 0.18012 2.5684-0.10198 0.19621-0.38953 0.30023-0.81895 0.304-1.2551h-0.0013105c-0.013274 0.29923-0.25955 0.53512-0.55908 0.53548-0.29967-0.0001741-0.54616-0.23611-0.55944-0.53548-0.0043821-0.018122-0.018406-0.018122-0.022869 0-0.013274 0.29923-0.25955 0.53512-0.55908 0.53548-0.29967-0.0001741-0.54616-0.23611-0.55944-0.53548-0.002918-0.018122-0.018997-0.018122-0.022869 0-0.013274 0.29923-0.25955 0.53512-0.55908 0.53548-0.29971-0.0001434-0.54625-0.23608-0.55954-0.53548-0.00092177-0.00921-0.0060714-0.013515-0.011338-0.013515zm-0.42482 1.6516c-0.047404-0.0007167-0.094809-0.0005324-0.14213 0.0003583-0.35585 0.00717-0.7092 0.056209-1.0602 0.13965 0.53943 0.6592 1.3459 1.042 2.1976 1.0432 0.85665-0.0007679 1.6673-0.38778 2.2068-1.0532-0.73107 0.17792-1.4646 0.16161-2.2001 0.00205-0.33622-0.085287-0.67017-0.12697-1.002-0.13133z"/>
 </g>
</svg>
