<svg width="48" height="48" viewBox="0 0 48 48" fill="none" xmlns="http://www.w3.org/2000/svg">
<path d="M32.4765 6.14062C32.1096 6.14062 31.8144 6.43578 31.8144 6.80273C31.8144 7.16973 32.1096 7.4668 32.4765 7.4668H35.039V9.65234H34.539C34.3508 9.65234 34.1992 9.80201 34.1992 9.99023C34.1992 10.1652 34.3321 10.3049 34.5019 10.3242H29.1699C27.8973 10.3242 26.873 11.3486 26.873 12.6211V13.3301V13.3828V15.6797H29.1699H31.4668V14.918H36.123H40H42.2968V12.6211V10.3242H40H36.4277C36.5975 10.3053 36.7304 10.1679 36.7304 9.99219C36.7304 9.80397 36.5789 9.65234 36.3906 9.65234H35.8886V7.4668H38.4531C38.82 7.4668 39.1152 7.16973 39.1152 6.80273C39.1152 6.43574 38.82 6.14062 38.4531 6.14062H32.4765ZM41.7968 10.8242V14.418H30.9668V15.1797H27.373L27.3632 12.9238V12.4238C27.5443 11.453 28.1145 10.924 29.0664 10.8281H29.5664L41.7968 10.8242ZM26.0097 16.0391C25.5163 16.0391 25.1191 16.4363 25.1191 16.9297V18.4453C25.1191 18.9387 25.5163 19.3359 26.0097 19.3359H32.0332C32.5266 19.3359 32.9238 18.9387 32.9238 18.4453V16.9297C32.9238 16.4363 32.5266 16.0391 32.0332 16.0391H26.0097ZM28.6386 20.3594C28.6386 20.3594 27.2596 22.075 27.2597 23.0781C27.2596 24.0812 27.882 24.8943 28.6504 24.8945C29.4189 24.8948 30.0411 24.0815 30.041 23.0781C30.0411 22.0747 28.7167 20.2799 28.6386 20.3594ZM29.3886 21.9805C30.3813 22.9166 29.3975 24.943 28.7968 24.584C28.7261 24.5171 28.6393 24.4309 28.6621 24.2793C28.74 23.9459 29.768 23.9251 29.3886 21.9805ZM27.2382 25.084C27.2382 25.084 26.496 26.0072 26.4961 26.5469C26.496 27.0866 26.8307 27.5233 27.2441 27.5234C27.6576 27.5236 27.9921 27.0867 27.9921 26.5469C27.9921 26.007 27.2802 25.0412 27.2382 25.084ZM29.7714 25.8965C29.7714 25.8965 29.0273 26.8197 29.0273 27.3594C29.0273 27.899 29.3639 28.3359 29.7773 28.3359C30.1908 28.3361 30.5235 27.8992 30.5234 27.3594C30.5235 26.8195 29.8134 25.8537 29.7714 25.8965ZM27.6425 25.9551C28.1766 26.4587 27.6454 27.5486 27.3222 27.3555C27.2842 27.3177 27.2377 27.2746 27.25 27.1934C27.2919 27.0138 27.8466 27.0014 27.6425 25.9551ZM30.1738 26.7676C30.7078 27.2712 30.1785 28.3631 29.8554 28.1699C29.8174 28.1321 29.7689 28.0871 29.7812 28.0059C29.8231 27.8263 30.3779 27.8139 30.1738 26.7676ZM27.873 27.9551C23.4161 28.4461 19.0289 29.4681 14.5175 29.5312C10.4123 29.2981 8.09615 33.1675 5.97067 36.0352C4.92456 38.833 7.64302 43.0402 10.5468 43.7402C12.7905 43.4431 14.0522 40.5115 16.4336 40.0234C18.6598 39.6035 21.0127 39.9673 23.2773 39.7129C27.2232 39.8936 31.0191 38.6029 34.2636 36.3945C35.8489 35.0289 42.2547 32.2767 38.4296 30.2773C34.4474 30.004 31.6296 33.8737 27.7285 34.1836C26.3899 34.445 19.8668 34.1982 23.6894 33.2871C26.1427 33.3604 31.2707 29.9647 27.873 27.9551ZM27.7011 28.4727C28.5059 28.9071 28.6251 29.7491 28.1855 30.4082L27.875 30.8008C25.9663 32.4788 24.7516 32.754 23.6582 32.7871C21.7604 33.3399 21.3856 33.9133 22.7168 34.5078L23.207 34.6094C24.6534 34.8592 26.1682 34.9087 27.7812 34.6797L28.2793 34.625C29.0797 34.4825 29.8792 34.2551 30.6796 33.8633L31.1308 33.6465C33.3429 32.457 35.28 31.2017 36.6523 30.9258C37.2969 30.8211 37.9422 30.5114 38.5879 30.9648C39.097 31.3874 39.5778 31.821 38.3964 32.875L38.0273 33.2109C36.7252 34.2619 35.3901 34.8233 34.0039 35.9668L33.5683 36.2637C32.4848 36.9463 31.3202 37.6117 29.7011 38.1914C27.1166 39.031 26.0428 39.1105 22.7187 39.2773C18.4198 39.2459 17.4953 39.3535 16.6621 39.4648C15.8662 39.5453 15.1228 39.9138 14.4101 40.4414L14.0175 40.75C12.9165 41.5877 12.1794 42.3989 10.6992 43.2637C8.73533 42.6852 5.61286 39.5672 6.38082 36.3242C7.59375 34.7339 8.73888 33.0555 10.1445 31.7129L10.5254 31.3887C11.225 30.9049 12.2037 30.1314 14.0019 30.0156L14.5019 30.0312C16.472 30.0916 19.6721 29.7273 23.9336 28.9961L27.7011 28.4727Z" fill="#333333"/>
</svg>
