<?xml version="1.0" encoding="UTF-8" standalone="no"?>
<!-- Created with Inkscape (http://www.inkscape.org/) -->
<svg id="svg8" xmlns:rdf="http://www.w3.org/1999/02/22-rdf-syntax-ns#" xmlns="http://www.w3.org/2000/svg" xmlns:osb="http://www.openswatchbook.org/uri/2009/osb" height="48" width="48" version="1.1" xmlns:cc="http://creativecommons.org/ns#" viewBox="0 0 12.7 12.7" xmlns:dc="http://purl.org/dc/elements/1.1/">
 <title id="title4753">UIO-icon</title>
 <metadata id="metadata5">
  <rdf:RDF>
   <cc:Work rdf:about="">
    <dc:format>image/svg+xml</dc:format>
    <dc:type rdf:resource="http://purl.org/dc/dcmitype/StillImage"/>
    <dc:title>UIO-icon</dc:title>
    <dc:creator>
     <cc:Agent>
      <dc:title>Joaquín Urbano</dc:title>
     </cc:Agent>
    </dc:creator>
    <dc:rights>
     <cc:Agent>
      <dc:title>GPL</dc:title>
     </cc:Agent>
    </dc:rights>
   </cc:Work>
  </rdf:RDF>
 </metadata>
 <g id="layer1" transform="translate(0,-284.3)" fill="#333">
  <path id="path4816" d="m22.916 6.1973c-9.254 0.3527-16.671 7.7787-17.012 17.033l-1.7673 0.239 4.2852 6.293 2.4611-7.205-1.465 0.199c0.5711-7.186 6.426-12.809 13.629-13.088 5.742-0.2122 11.048 3.05 13.449 8.27l3.307-1.102c-2.902-6.684-9.605-10.908-16.887-10.639zm-0.182 0.5273c6.174 0.0813 12.202 2.0799 16.368 9.8184l-2.313 0.754c-3.291-5.947-8.648-8.3587-13.873-8.1661-8.103 0.5341-13.712 6.2781-14.06 14.238l1.271-0.199-1.8692 5.445-3.2246-4.746 1.3516-0.18c0.6746-11.505 10.049-16.695 16.349-16.964zm0.778 4.3754c-0.011-0.003-0.02-0.002-0.026 0.007 0 0-3.199 3.904-3.199 6.186s1.442 4.134 3.223 4.135c1.782 0 3.227-1.852 3.226-4.135 0.001-2.212-2.88-6.112-3.224-6.189v-0.004zm0.027 0.777c1.275 1.321 2.597 4.023 2.674 5.34 0.099 1.689-1.181 3.667-2.664 3.672-1.644 0.06-2.788-2.035-2.713-3.629 0.067-1.426 1.256-3.683 2.703-5.383zm15.441 6.824l-2.734 7.106 1.473-0.143c-0.844 7.159-6.909 12.555-14.117 12.561-5.746-0.006-10.924-3.468-13.125-8.776l-3.3461 0.977c2.6461 6.79 9.1831 11.263 16.471 11.271 9.26-0.001 16.954-7.14 17.646-16.375l1.775-0.17-4.043-6.451zm0.12 1.151l3.043 4.865-1.358 0.129c-1.111 11.471-10.676 16.302-16.982 16.332-6.166-0.316-12.114-2.543-15.983-10.434l2.34-0.666c3.063 6.068 8.324 8.682 13.553 8.688 8.117-0.226 13.939-5.752 14.59-13.694l-1.278 0.151 2.075-5.371z" transform="matrix(.26458 0 0 .26458 0 284.3)"/>
  <path id="path3002" d="m4.5475 290.61c-0.005552 0.0000511-0.010729 0.00458-0.010852 0.013436-0.013274 0.29924-0.25961 0.535-0.55914 0.53537-0.29967-0.000174-0.54637-0.23599-0.55966-0.53537h-0.0020672c0.0047331 1.651 1.4039 2.8179 2.8443 2.821 1.5383-0.00761 2.845-1.2512 2.8432-2.821h-0.0010335c-0.013274 0.29923-0.25961 0.535-0.55914 0.53537-0.29967-0.0001741-0.54638-0.23599-0.55966-0.53537-0.004382-0.018122-0.018275-0.018122-0.022738 0-0.013274 0.29923-0.25961 0.535-0.55914 0.53537-0.29967-0.0001741-0.54637-0.23599-0.55966-0.53537-0.002918-0.018122-0.018865-0.018122-0.022738 0-0.013274 0.29923-0.25961 0.535-0.55914 0.53537-0.29971-0.0001434-0.54637-0.23596-0.55966-0.53537-0.00092181-0.00921-0.005585-0.013436-0.010852-0.013436-0.005304 0-0.011002 0.00504-0.011886 0.013436-0.013266 0.29924-0.25961 0.535-0.55914 0.53537-0.29967-0.000174-0.54585-0.23598-0.55914-0.53537-0.00053763-0.00906-0.0063325-0.013487-0.011885-0.013436zm3.4328 0.412c0.034322-0.00167 0.26929 0.27465 0.52022 0.27183 0.13744 0.013248 0.19284-0.016142 0.43005-0.13149-0.38582 1.5675-1.6918 2.095-2.7008 2.146-1.0059-0.069356-2.1717-0.45986-2.6154-2.1082 0.15384 0.081787 0.15164 0.090627 0.38137 0.090734 0.32075-0.021683 0.52327-0.2692 0.55053-0.26987 0.027915-0.0006796 0.22485 0.23665 0.52815 0.27282 0.37172 0.01695 0.51191-0.24148 0.61728-0.24277 0.11836-0.00145 0.10888 0.14059 0.51987 0.24568 0.41603 0.026264 0.55408-0.2817 0.62866-0.2852 0.050791-0.00239 0.25137 0.28225 0.52603 0.28225 0.30841 0.024965 0.52978-0.26773 0.61401-0.27182z"/>
 </g>
</svg>
