<svg width="48" height="48" viewBox="0 0 48 48" fill="none" xmlns="http://www.w3.org/2000/svg">
<g clip-path="url(#clip0)">
<path fill-rule="evenodd" clip-rule="evenodd" d="M0.0078125 0.0078125V48.0078H48.0078V0.0078125H0.0078125ZM17.1992 5.29688H31.1621C37.5601 5.29688 42.7109 10.4438 42.7109 16.8418L40.1406 42.3574H8.06836L5.65039 16.8418C5.65039 10.4438 10.8012 5.29688 17.1992 5.29688ZM30.4473 6.70117L17.7734 6.72852C11.9049 6.7405 7.3128 11.1085 7.73828 17.0938C8.30078 25.0064 9.18945 32.1459 9.93945 40.4961C21.6875 40.4986 27.6345 40.5213 38.498 40.5215C39.1855 33.2338 40.3346 21.0162 40.6621 16.7188C41.0837 11.1869 36.3158 6.68918 30.4473 6.70117ZM24.1816 7.32617C24.4561 7.326 24.729 7.3359 25.002 7.36133C25.2752 7.38725 25.5492 7.42519 25.8184 7.47656C26.0872 7.52749 26.3512 7.59409 26.6133 7.66992C26.8759 7.7459 27.1374 7.83342 27.3906 7.93359C27.6431 8.03419 27.8904 8.1439 28.1309 8.26758C28.3719 8.39095 28.6035 8.52852 28.8301 8.67383C29.0563 8.81886 29.2747 8.97518 29.4844 9.14062C29.6945 9.30609 29.8945 9.47779 30.0859 9.66211C30.2775 9.84685 30.4581 10.0444 30.6289 10.2461C30.7991 10.4471 30.9634 10.6532 31.1113 10.8691C31.2595 11.0858 31.3913 11.3096 31.5156 11.5391C31.6403 11.7682 31.7558 12.0024 31.8555 12.2422C31.9553 12.4821 32.0414 12.7305 32.1152 12.9785C32.1881 13.2261 32.2467 13.4754 32.293 13.7285C32.3395 13.9817 32.3734 14.2378 32.3926 14.4941C32.4055 14.6758 32.4146 14.855 32.4141 15.0371C32.4144 15.2944 32.4001 15.5507 32.373 15.8066C32.3455 16.0627 32.3008 16.3201 32.2461 16.5723C32.1916 16.8245 32.1241 17.0725 32.043 17.3184C31.962 17.5635 31.8723 17.8066 31.7656 18.043C31.6583 18.2798 31.5365 18.5107 31.4043 18.7363C31.2728 18.9623 31.1296 19.1839 30.9746 19.3965C30.8202 19.6089 30.6529 19.8129 30.4766 20.0098C30.2997 20.2061 30.111 20.3934 29.9141 20.5723C29.7171 20.7518 29.5099 20.9199 29.2949 21.0801C29.0799 21.2401 28.858 21.3922 28.627 21.5312C28.3955 21.6698 28.1571 21.794 27.9121 21.9102C27.6681 22.027 27.4174 22.137 27.1621 22.2305C26.906 22.3238 26.6456 22.4038 26.3809 22.4727C26.1164 22.5409 25.8505 22.5974 25.5801 22.6406C25.3093 22.6845 25.032 22.714 24.7578 22.7324C24.5641 22.7452 24.3739 22.7521 24.1797 22.752C23.9053 22.7521 23.6325 22.7364 23.3594 22.7109C23.0861 22.6856 22.8121 22.6504 22.543 22.5996C22.2741 22.548 22.0101 22.4846 21.748 22.4082C21.4861 22.3321 21.2233 22.2446 20.9707 22.1445C20.7177 22.0446 20.4716 21.9317 20.2305 21.8086C19.9894 21.6852 19.7579 21.5496 19.5312 21.4043C19.305 21.2593 19.0866 21.103 18.877 20.9375C18.6674 20.7719 18.4664 20.6003 18.2754 20.416C18.0838 20.2313 17.9033 20.0338 17.7324 19.832C17.5616 19.6304 17.3984 19.4197 17.25 19.2031C17.1019 18.9871 16.9701 18.7678 16.8457 18.5391C16.721 18.3098 16.6055 18.0737 16.5059 17.834C16.4067 17.5941 16.3192 17.3477 16.2461 17.0996C16.1726 16.8521 16.1113 16.6027 16.0645 16.3496C16.0178 16.0957 15.988 15.8408 15.9688 15.584C15.9555 15.4023 15.9467 15.2192 15.9473 15.0371C15.9475 14.7798 15.9606 14.5216 15.9883 14.2656C16.0159 14.0103 16.0605 13.7574 16.1152 13.5059C16.1697 13.2537 16.2372 13.0056 16.3184 12.7598C16.3992 12.514 16.4949 12.2722 16.6016 12.0352C16.7084 11.7983 16.8256 11.5656 16.957 11.3398C17.0886 11.1146 17.2319 10.8994 17.3867 10.6875C17.5419 10.475 17.7078 10.2652 17.8848 10.0684C18.0617 9.8714 18.2503 9.68527 18.4473 9.50586C18.6442 9.32703 18.8495 9.15758 19.0645 8.99805C19.2795 8.83805 19.5034 8.68595 19.7344 8.54688C19.9652 8.40773 20.2048 8.27897 20.4492 8.16211C20.694 8.04582 20.9434 7.94047 21.1992 7.84766C21.4553 7.75432 21.7158 7.67238 21.9805 7.60352C22.2449 7.5346 22.5109 7.48135 22.7812 7.4375C23.0515 7.39372 23.3242 7.36414 23.5977 7.3457C23.7914 7.33296 23.9874 7.32609 24.1816 7.32617ZM24.1797 8.2832C23.2102 8.28321 22.2472 8.46481 21.3516 8.81641C20.4558 9.16801 19.6445 9.68236 18.959 10.332C18.2735 10.9817 17.7284 11.7548 17.3574 12.6035C16.9865 13.4524 16.7986 14.3605 16.7988 15.2793C16.7988 17.0999 17.5494 18.8507 18.8887 20.1562C20.0146 19.0574 21.4875 18.3369 23.0859 18.1094C23.0719 18.038 23.0644 17.9693 23.0645 17.8965C23.0648 17.6516 23.1441 17.4112 23.293 17.2168C23.4106 17.0503 23.5717 16.9171 23.8008 16.8418C23.9215 16.7982 24.0513 16.7757 24.1797 16.7754C24.3264 16.7753 24.4718 16.8052 24.6074 16.8613C24.6837 16.8929 24.7414 16.9507 24.8086 16.998L29.4531 13.2207C29.6672 13.0469 29.979 13.0785 30.1484 13.2871C30.3179 13.4957 30.2805 13.8027 30.0664 13.9766L25.2852 17.8555C25.2857 17.8694 25.2969 17.8825 25.2969 17.8965C25.2977 17.9687 25.2886 18.0386 25.2754 18.1094C26.8726 18.3343 28.3511 19.0452 29.4785 20.1406C30.8149 18.8379 31.5634 17.096 31.5664 15.2793C31.5666 14.3604 31.375 13.4524 31.0039 12.6035C30.6329 11.7546 30.0881 10.9817 29.4023 10.332C28.7166 9.68238 27.8998 9.1679 27.0039 8.81641C26.1079 8.46491 25.1513 8.28297 24.1816 8.2832H24.1797Z" fill="#333333"/>
</g>
<defs>
<clipPath id="clip0">
<rect width="48" height="48" fill="white"/>
</clipPath>
</defs>
</svg>
