<svg width="48" height="48" viewBox="0 0 48 48" fill="none" xmlns="http://www.w3.org/2000/svg">
<path fill-rule="evenodd" clip-rule="evenodd" d="M35.8515 16.2506C36.5936 17.0688 36.3661 18.3263 35.4618 18.9606L30.5895 22.3781C29.6853 23.0124 28.4498 22.7564 27.5563 22.1071C27.3275 21.9408 27.0868 21.7904 26.8356 21.6571C25.9924 21.2096 25.0553 20.9681 24.1009 20.9522C23.1465 20.9363 22.2019 21.1466 21.3443 21.5657C21.0888 21.6906 20.8432 21.8329 20.609 21.9915C19.6944 22.6108 18.4511 22.8255 17.5684 22.1615L12.8125 18.5837C11.9298 17.9197 11.7443 16.6553 12.5132 15.8623C13.7984 14.5369 15.3069 13.4401 16.9746 12.625C19.2431 11.5163 21.7418 10.9602 24.2665 11.0022C26.7911 11.0442 29.2699 11.6831 31.5003 12.8667C33.14 13.7368 34.6112 14.8832 35.8515 16.2506ZM34.1958 17.4057C33.1479 16.2921 31.9215 15.3544 30.5628 14.6334C28.6112 13.5977 26.4422 13.0387 24.2332 13.0019C22.0241 12.9652 19.8378 13.4518 17.8528 14.4219C16.4709 15.0973 15.214 15.9937 14.1296 17.0718L18.7668 20.5603C18.7818 20.5652 18.8208 20.5727 18.8979 20.5657C19.0546 20.5516 19.2747 20.4796 19.4877 20.3354C19.7993 20.1244 20.1261 19.935 20.4661 19.7688C21.6072 19.2111 22.8642 18.9314 24.1342 18.9525C24.1852 18.9533 24.2362 18.9547 24.2872 18.9565C24.3253 18.8764 24.3749 18.8 24.436 18.7298L27.1824 15.5719C27.5448 15.1552 28.1765 15.1112 28.5932 15.4736C29.0099 15.8361 29.0539 16.4677 28.6915 16.8844L26.537 19.3616C26.9617 19.5026 27.3753 19.6793 27.7731 19.8904C28.1073 20.0678 28.4277 20.268 28.7321 20.4892C28.9402 20.6405 29.1577 20.7198 29.3139 20.739C29.3907 20.7485 29.4299 20.7423 29.4451 20.7379L34.1958 17.4057ZM29.4528 20.7347C29.453 20.7349 29.4502 20.7364 29.4451 20.7379C29.4494 20.7354 29.4526 20.7344 29.4528 20.7347ZM18.7592 20.5567C18.7594 20.5565 18.7626 20.5576 18.7668 20.5603C18.7617 20.5585 18.759 20.557 18.7592 20.5567Z" fill="#333333"/>
<path fill-rule="evenodd" clip-rule="evenodd" d="M36.2163 42C38.3392 42 40.0924 40.3416 40.2101 38.2219L41.7657 10.2219C41.8931 7.92908 40.0682 6 37.7719 6L10.2286 6C7.9323 6 6.10742 7.92907 6.2348 10.2219L7.79035 38.2219C7.90811 40.3415 9.66126 42 11.7842 42L36.2163 42ZM11.7842 40L36.2163 40C37.2778 40 38.1543 39.1708 38.2132 38.1109L39.7688 10.1109C39.8325 8.96454 38.92 8 37.7719 8L10.2286 8C9.08047 8 8.16803 8.96454 8.23172 10.1109L9.78727 38.1109C9.84615 39.1708 10.7227 40 11.7842 40Z" fill="#333333"/>
</svg>
