<svg width="48" height="48" viewBox="0 0 48 48" fill="none" xmlns="http://www.w3.org/2000/svg">
<path d="M17.1998 5.29761C10.8017 5.29761 5.65112 10.4433 5.65112 16.8412L8.06935 42.3568H40.14L42.7103 16.8412C42.7103 10.4433 37.5596 5.29761 31.1616 5.29761H17.1998ZM17.7734 6.72764L30.4468 6.70175C36.3154 6.68976 41.0839 11.1862 40.6623 16.718C40.3348 21.0155 39.185 33.2341 38.4975 40.5218C27.634 40.5216 21.6869 40.4984 9.93877 40.4959C9.18877 32.1458 8.30035 25.0057 7.73785 17.093C7.31237 11.1078 11.9049 6.73962 17.7734 6.72764ZM24.1807 7.32547C23.9865 7.32539 23.7914 7.33298 23.5977 7.34572C23.3242 7.36416 23.0518 7.3932 22.7815 7.43698C22.5111 7.48083 22.2449 7.53536 21.9805 7.60427C21.7158 7.67314 21.4558 7.75428 21.1998 7.84761C20.9439 7.94043 20.6942 8.04564 20.4495 8.16193C20.205 8.27879 19.9654 8.40808 19.7346 8.54723C19.5036 8.6863 19.2805 8.83843 19.0654 8.99843C18.8505 9.15796 18.6439 9.32657 18.4469 9.50539C18.2499 9.68481 18.0612 9.87116 17.8842 10.0681C17.7073 10.265 17.5425 10.4741 17.3874 10.6866C17.2325 10.8985 17.088 11.1154 16.9565 11.3406C16.825 11.5664 16.7084 11.7983 16.6016 12.0352C16.495 12.2722 16.3985 12.5143 16.3177 12.7601C16.2366 13.0059 16.1693 13.2532 16.1149 13.5054C16.0601 13.7569 16.0158 14.0104 15.9881 14.2658C15.9605 14.5217 15.9478 14.7791 15.9476 15.0364C15.947 15.2185 15.9546 15.4022 15.9678 15.5839C15.987 15.8407 16.0175 16.0955 16.0641 16.3494C16.111 16.6025 16.1731 16.8523 16.2466 17.0997C16.3198 17.3478 16.4061 17.595 16.5052 17.8348C16.6048 18.0745 16.7202 18.3103 16.8449 18.5395C16.9692 18.7683 17.1023 18.9876 17.2504 19.2036C17.3989 19.4202 17.5612 19.6307 17.732 19.8323C17.9029 20.0341 18.0829 20.2305 18.2745 20.4153C18.4655 20.5996 18.6682 20.7719 18.8778 20.9375C19.0875 21.1029 19.3055 21.2589 19.5318 21.4039C19.7584 21.5492 19.9904 21.6861 20.2314 21.8095C20.4725 21.9326 20.7185 22.0441 20.9716 22.1441C21.2242 22.2442 21.4852 22.3316 21.7472 22.4077C22.0093 22.4841 22.2743 22.5487 22.5432 22.6003C22.8123 22.6511 23.0861 22.6866 23.3594 22.7119C23.6324 22.7373 23.9063 22.7526 24.1807 22.7524C24.3749 22.7525 24.5649 22.7449 24.7586 22.7322C25.0327 22.7137 25.3091 22.6848 25.5799 22.6409C25.8503 22.5977 26.1164 22.5419 26.3809 22.4736C26.6456 22.4048 26.9055 22.3236 27.1616 22.2303C27.4169 22.1368 27.6679 22.0278 27.9119 21.9109C28.157 21.7947 28.3952 21.6693 28.6267 21.5307C28.8578 21.3916 29.0809 21.2395 29.2959 21.0795C29.511 20.9193 29.7175 20.752 29.9144 20.5725C30.1113 20.3937 30.3003 20.2061 30.4772 20.0098C30.6535 19.8129 30.8195 19.6088 30.974 19.3963C31.129 19.1838 31.2734 18.9632 31.4049 18.7373C31.5371 18.5116 31.6576 18.2796 31.7649 18.0427C31.8715 17.8064 31.9628 17.5629 32.0437 17.3178C32.1248 17.072 32.192 16.8248 32.2465 16.5725C32.3012 16.3204 32.3457 16.0631 32.3732 15.807C32.4003 15.5511 32.4142 15.2937 32.4138 15.0364C32.4143 14.8543 32.4065 14.6756 32.3936 14.494C32.3743 14.2377 32.3387 13.9817 32.2922 13.7285C32.2459 13.4754 32.1876 13.2257 32.1147 12.9782C32.0409 12.7301 31.956 12.4829 31.8562 12.2431C31.7566 12.0033 31.6412 11.7675 31.5165 11.5384C31.3922 11.3089 31.2591 11.0859 31.1109 10.8692C30.963 10.6533 30.7996 10.4466 30.6293 10.2456C30.4585 10.0439 30.2784 9.84735 30.0869 9.6626C29.8954 9.47828 29.6937 9.30589 29.4836 9.14043C29.2739 8.97498 29.0558 8.81905 28.8296 8.67402C28.603 8.52872 28.371 8.39182 28.13 8.26845C27.8895 8.14477 27.6422 8.03445 27.3898 7.93385C27.1366 7.83368 26.8768 7.74621 26.6142 7.67023C26.3521 7.5944 26.0871 7.52851 25.8182 7.47758C25.549 7.4262 25.2753 7.3869 25.002 7.36098C24.729 7.33555 24.4552 7.32532 24.1807 7.32549V7.32547ZM24.1807 8.28363C25.1504 8.2834 26.1085 8.46445 27.0045 8.81595C27.9004 9.16744 28.7168 9.68212 29.4025 10.3318C30.0882 10.9815 30.6334 11.754 31.0045 12.603C31.3755 13.4518 31.5674 14.3609 31.5672 15.2798C31.5642 17.0965 30.8149 18.8388 29.4785 20.1416C28.3511 19.0461 26.8729 18.3336 25.2758 18.1086C25.289 18.0378 25.2968 17.9679 25.296 17.8957C25.296 17.8817 25.2864 17.8691 25.2859 17.8551L30.0666 13.9769C30.2806 13.803 30.3171 13.496 30.1477 13.2874C29.9783 13.0787 29.6672 13.0476 29.4532 13.2215L24.8093 16.9984C24.7422 16.9511 24.6828 16.8931 24.6065 16.8615C24.471 16.8054 24.3274 16.7752 24.1807 16.7753C24.0523 16.7756 23.9212 16.7977 23.8005 16.8412C23.5714 16.9166 23.4112 17.0499 23.2935 17.2164C23.1446 17.4108 23.0658 17.6509 23.0654 17.8957C23.0653 17.9686 23.0716 18.0373 23.0856 18.1086C21.4872 18.3362 20.0139 19.058 18.8879 20.1568C17.5486 18.8512 16.7993 17.1004 16.7993 15.2798C16.7991 14.361 16.986 13.4518 17.3569 12.603C17.7279 11.7543 18.2734 10.9815 18.9589 10.3318C19.6444 9.68212 20.456 9.16757 21.3518 8.81596C22.2475 8.46436 23.2112 8.28366 24.1807 8.28365V8.28363Z" fill="#333333"/>
</svg>
