<svg width="48" height="48" viewBox="0 0 48 48" fill="none" xmlns="http://www.w3.org/2000/svg">
<g clip-path="url(#clip0)">
<path fill-rule="evenodd" clip-rule="evenodd" d="M11.5027 40.4772C11.3805 40.6174 11.3063 40.8009 11.3063 41.0013V45.7451C11.3063 46.1857 11.6638 46.5431 12.1044 46.5431H22.8763C23.3169 46.5431 23.6743 46.1857 23.6743 45.7451V40.9576C23.6743 40.4499 23.6413 39.903 23.6074 39.3953C23.5725 38.8763 23.5251 38.3603 23.4653 37.8486C23.3084 36.507 23.1921 35.527 22.8168 34.5874C22.4314 33.6228 21.8079 32.791 20.6567 31.8192C20.4455 31.641 20.2293 31.4597 20.0042 31.2899C19.7666 31.1107 19.509 30.937 19.2192 30.779C18.7504 30.5234 18.3121 30.2937 17.9137 30.0855C16.2721 29.2262 15.3746 28.7561 13.2611 26.7589C13.2446 26.7433 13.2275 26.7285 13.2099 26.7148L11.1716 24.9153C9.92594 23.4566 8.70802 22.9755 7.77123 23.0746L7.76807 23.0749C7.31225 23.1233 6.91963 23.3015 6.60833 23.5738L4.54915 18.6694L4.54628 18.6705C4.51654 18.5997 4.47617 18.5319 4.42446 18.4699C3.85572 17.7862 3.13198 17.3867 2.4384 17.318C1.96678 17.2715 1.50909 17.3719 1.11073 17.6308C0.730753 17.8777 0.419879 18.2607 0.22307 18.7878C-0.119696 19.706 -0.111507 21.1301 0.559514 23.1047L1.57502 26.6807C1.72199 27.1982 1.85415 27.6912 1.97209 28.1314C2.63665 30.6122 2.87196 31.4899 5.08427 34.0371C6.83718 36.0555 8.55503 37.6807 10.2015 39.2383C10.6373 39.6508 11.068 40.058 11.5027 40.4772ZM22.0572 40.2034H13.4974C12.8083 39.5192 12.0577 38.8089 11.2923 38.0849C9.68632 36.5657 8.01056 34.9803 6.28726 32.9959C4.31772 30.7281 4.10669 29.9422 3.51152 27.7199C3.39932 27.301 3.27362 26.8328 3.10842 26.2506L2.08673 22.6527L2.07423 22.6122C1.52776 21.0116 1.48466 19.9538 1.71279 19.3427C1.78275 19.1555 1.87455 19.0314 1.97712 18.9648C2.06087 18.9103 2.1666 18.8899 2.28239 18.9014C2.54931 18.9278 2.85027 19.0984 3.12379 19.3959L6.16242 26.6332C6.19072 26.7007 6.22735 26.7623 6.27059 26.8175C6.45059 27.1411 6.69338 27.4592 7.00525 27.7587L12.3976 33.7708C12.69 34.0977 13.1927 34.1256 13.5195 33.8331C13.8463 33.5406 13.8744 33.038 13.5817 32.7111L8.18827 26.6977C8.166 26.6696 8.14158 26.6429 8.11486 26.6176C7.5569 26.0858 7.3802 25.5119 7.47745 25.0955C7.50777 24.9654 7.56508 24.8578 7.64338 24.7847C7.7165 24.7163 7.81577 24.6709 7.93615 24.6582C8.41568 24.6092 9.12577 24.9611 9.98814 25.9823L9.98915 25.9814C10.0136 26.0101 10.0401 26.0376 10.0692 26.0633L12.1587 27.908L12.17 27.9187C14.4333 30.0577 15.4034 30.5656 17.1779 31.4945C17.5479 31.6882 17.9568 31.9022 18.4583 32.1756C18.656 32.2833 18.8519 32.4171 19.044 32.562C19.2487 32.7165 19.4406 32.8775 19.6277 33.0352C20.5636 33.8252 21.056 34.4656 21.339 35.1738C21.6323 35.9075 21.7381 36.8032 21.8818 38.0297C21.9395 38.5239 21.9849 39.0151 22.0175 39.5017C22.0335 39.7408 22.047 39.9744 22.0572 40.2034ZM13.0278 41.7993C13.1341 41.8213 13.2438 41.8211 13.3501 41.7993H22.0783V44.9471H12.9024V41.7993H13.0278Z" fill="#333333"/>
<path fill-rule="evenodd" clip-rule="evenodd" d="M36.497 40.4772C36.6193 40.6174 36.6934 40.8009 36.6934 41.0013V45.7451C36.6934 46.1857 36.3361 46.5431 35.8954 46.5431H25.1235C24.683 46.5431 24.3255 46.1857 24.3255 45.7451V40.9576C24.3255 40.929 24.3271 40.9006 24.3301 40.8727C24.3402 40.3596 24.361 39.8665 24.3925 39.3953C24.4272 38.8763 24.4748 38.3603 24.5346 37.8486C24.6916 36.507 24.8078 35.527 25.1832 34.5874C25.5686 33.6228 26.1921 32.791 27.3433 31.8192C27.5544 31.641 27.7706 31.4597 27.9958 31.2899C28.2334 31.1107 28.491 30.937 28.7809 30.779C29.2498 30.5234 29.6881 30.2937 30.0863 30.0855C31.728 29.2262 32.6255 28.7561 34.7389 26.7589C34.7556 26.7433 34.7725 26.7285 34.7901 26.7148L36.8284 24.9153C38.0741 23.4566 39.292 22.9755 40.2288 23.0746L40.2319 23.0749C40.6878 23.1233 41.0804 23.3015 41.3917 23.5738L43.4507 18.6694L43.4536 18.6705C43.4833 18.5997 43.5237 18.5319 43.5754 18.4699C44.1441 17.7862 44.8677 17.3867 45.5615 17.318C46.0331 17.2715 46.4908 17.3719 46.8891 17.6308C47.2691 17.8777 47.58 18.2607 47.7768 18.7878C48.1196 19.706 48.1114 21.1301 47.4405 23.1047L46.425 26.6807C46.278 27.1982 46.1459 27.6912 46.0279 28.1314C45.3634 30.6122 45.1279 31.4899 42.9156 34.0371C41.1627 36.0555 39.445 37.6807 37.7984 39.2383C37.3625 39.6508 36.9319 40.058 36.497 40.4772ZM25.9425 40.2036H34.5023C35.1914 39.5193 35.9421 38.8091 36.7075 38.0851C38.3135 36.5659 39.9892 34.9805 41.7125 32.996C43.682 30.7282 43.893 29.9423 44.4882 27.7201C44.6004 27.3012 44.726 26.833 44.8913 26.2507L45.913 22.6529L45.9255 22.6123C46.472 21.0117 46.5151 19.954 46.2869 19.3429C46.217 19.1557 46.1252 19.0316 46.0226 18.9649C45.9387 18.9105 45.8331 18.8901 45.7172 18.9015C45.4503 18.928 45.1493 19.0985 44.8758 19.396L41.8372 26.6333C41.8089 26.7008 41.7721 26.7625 41.729 26.8176C41.549 27.1413 41.3062 27.4593 40.9943 27.7589L35.602 33.7709C35.3095 34.0979 34.8069 34.1257 34.4801 33.8332C34.1532 33.5408 34.1252 33.0381 34.4177 32.7113L39.8112 26.6978C39.8334 26.6698 39.858 26.6431 39.8846 26.6178C40.4425 26.086 40.6192 25.5121 40.522 25.0956C40.4917 24.9656 40.4343 24.858 40.3562 24.7849C40.2831 24.7165 40.1838 24.6711 40.0633 24.6583C39.5839 24.6093 38.8738 24.9613 38.0113 25.9824L38.0103 25.9815C37.9859 26.0103 37.9593 26.0377 37.9303 26.0634L35.8408 27.9081L35.8294 27.9189C33.5661 30.0578 32.596 30.5658 30.8214 31.4947C30.4515 31.6883 30.0426 31.9024 29.541 32.1757C29.3433 32.2835 29.1474 32.4172 28.9553 32.5622C28.7506 32.7166 28.5585 32.8776 28.3716 33.0354C27.4357 33.8253 26.9432 34.4658 26.6602 35.174C26.367 35.9076 26.261 36.8033 26.1175 38.0299C26.0598 38.5241 26.0144 39.0152 25.9818 39.5018C25.9658 39.741 25.9529 39.9746 25.9425 40.2036ZM34.9719 41.7993C34.8656 41.8213 34.7559 41.8211 34.6496 41.7993H25.9214V44.9471H35.0974V41.7993H34.9719Z" fill="#333333"/>
<path d="M33.4201 7.25763C33.4711 7.17255 33.5116 7.08312 33.5416 6.99125L33.6694 6.60026L33.4083 6.28239C33.1917 6.01858 32.9642 5.76406 32.7265 5.5195L32.4394 5.22416L32.0361 5.30791C31.581 5.40244 31.1657 5.74474 31.0345 6.2695L30.8653 6.94656L31.5929 7.12846L30.8653 6.94656C30.8594 6.96997 30.8436 6.98966 30.8221 7.00045C30.7848 7.01909 30.7394 7.00705 30.7163 6.97237L30.4434 6.56302C30.3493 6.4218 30.3151 6.24896 30.3483 6.08253L30.685 4.39927L30.7877 3.88567L30.3409 3.61237C28.4938 2.48258 26.3218 1.8316 24 1.8316C23.6414 1.8316 23.2862 1.84713 22.9352 1.87759L22.25 1.93704V2.62478V3.1459C22.25 3.99814 21.7685 4.77723 21.0062 5.15836L20.3229 5.5C19.0525 6.13522 18.25 7.43371 18.25 8.8541V9.39445C18.25 10.1467 17.874 10.8493 17.2481 11.2666L16.4542 11.7958C15.7019 12.2974 15.25 13.1417 15.25 14.0458C15.25 15.5393 16.4607 16.75 17.9542 16.75H21C21.1381 16.75 21.25 16.8619 21.25 17C21.25 17.9665 22.0335 18.75 23 18.75H23.5C23.9142 18.75 24.25 19.0858 24.25 19.5V19.618C24.25 19.7528 24.2186 19.8857 24.1584 20.0062L21.6791 24.9646L21.2147 25.8936L22.2425 26.0423C22.8168 26.1254 23.4036 26.1684 24 26.1684C28.1296 26.1684 31.7784 24.1106 33.9771 20.9679L34.1469 20.7252L34.105 20.4319L33.9067 19.0434C33.7597 18.0144 32.8783 17.25 31.8388 17.25C31.5136 17.25 31.25 16.9864 31.25 16.6612V15.2592C31.25 14.8983 31.3481 14.5443 31.5337 14.2349L32.0851 13.3158C32.2958 12.9648 32.6751 12.75 33.0845 12.75H34.25C35.0784 12.75 35.75 12.0784 35.75 11.25C35.75 10.4216 35.0784 9.75 34.25 9.75H33.8034C33.4191 9.75 33.0501 9.89924 32.774 10.1656M33.4201 7.25763L32.777 6.87175L33.4201 7.25762L33.4201 7.25763ZM33.4201 7.25763L32.4846 8.81682C32.39 8.97436 32.3746 9.16704 32.4428 9.33762L32.774 10.1656M32.774 10.1656C32.7677 10.1718 32.7614 10.178 32.7551 10.1842C32.7547 10.1846 32.7546 10.1847 32.7546 10.1847C32.7547 10.1846 32.7549 10.1845 32.7552 10.1843C32.7556 10.184 32.7561 10.1836 32.7569 10.1832C32.7574 10.1829 32.758 10.1826 32.7585 10.1823C32.7602 10.1814 32.7621 10.1807 32.7639 10.1802C32.7685 10.1789 32.7707 10.1794 32.7711 10.1794C32.7714 10.1795 32.7737 10.18 32.7773 10.1829C32.7783 10.1837 32.7792 10.1846 32.7801 10.1855C32.781 10.1864 32.7818 10.1874 32.7826 10.1884C32.7831 10.1891 32.7835 10.1897 32.7837 10.1901C32.7842 10.1909 32.7842 10.191 32.7838 10.1901L32.774 10.1656ZM16.8366 23.8374L17.979 24.6707C14.2602 22.5678 11.75 18.577 11.75 14C11.75 13.0175 11.8657 12.062 12.0841 11.1464L11.9174 12.5484C11.8607 13.0246 11.8316 13.5091 11.8316 14C11.8316 18.0433 13.8044 21.6259 16.8366 23.8374ZM19.0164 25.1938L17.9588 22.9157C17.8239 22.625 17.75 22.3033 17.75 21.9689V19.6056C17.75 18.3517 17.1234 17.1809 16.0801 16.4854L15.1699 15.8786C14.9076 15.7037 14.75 15.4092 14.75 15.0939C14.75 14.5391 14.5612 14.0009 14.2146 13.5677L13.6777 12.8966C13.543 12.7282 13.4353 12.5441 13.3553 12.3505L12.4025 10.0449C14.0475 5.22017 18.6185 1.75 24 1.75C30.7655 1.75 36.25 7.23451 36.25 14C36.25 20.7655 30.7655 26.25 24 26.25C22.2254 26.25 20.5389 25.8726 19.0164 25.1938Z" stroke="black" stroke-width="1.5"/>
</g>
<defs>
<clipPath id="clip0">
<rect width="48" height="48" fill="white"/>
</clipPath>
</defs>
</svg>
