<svg width="48" height="48" viewBox="0 0 48 48" fill="none" xmlns="http://www.w3.org/2000/svg">
<path d="M10.1087 32.6212C10.6762 33.2231 11.2394 33.8204 11.769 34.5811V36H19.2022V34.5811C19.0687 33.4771 18.8348 31.4876 18.8144 30.9347C18.7858 30.1569 17.7417 28.7393 17.7417 28.7393L14.5371 24.6982C14.5371 24.6982 13.6299 23.7406 13.1108 22.6783C12.5917 21.616 11.487 22.9535 11.3402 23.9093C11.1934 24.8652 11.4727 25.3688 11.4727 25.3688L13.3038 29.0066C13.3038 29.0066 11.1809 26.1005 10.5219 24.9316C10.1881 24.3395 10.0947 23.0861 9.99035 21.685C9.88869 20.3204 9.77661 18.8157 9.4217 17.6458C8.70243 15.2748 6.62043 15.8685 6.25946 16.9277C5.8985 17.9869 5.98024 24.9864 6.1112 26.1534C6.21376 27.0673 6.76461 27.961 7.38611 28.9692C7.55815 29.2483 7.73584 29.5366 7.91069 29.8361C8.6067 31.0283 9.36151 31.8288 10.1087 32.6212Z" fill="#333333"/>
<path d="M36.2332 34.5811C36.7628 33.8204 37.326 33.2231 37.8935 32.6212C38.6407 31.8288 39.3955 31.0283 40.0915 29.8361C40.2663 29.5366 40.4437 29.2488 40.6157 28.9698C41.2372 27.9616 41.7884 27.0673 41.891 26.1534C42.022 24.9864 42.1037 17.9869 41.7427 16.9277C41.3818 15.8685 39.2998 15.2748 38.5805 17.6458C38.2256 18.8157 38.1135 20.3204 38.0118 21.685C37.9075 23.0861 37.8141 24.3395 37.4803 24.9316C36.8213 26.1005 34.6984 29.0066 34.6984 29.0066L36.5295 25.3688C36.5295 25.3688 36.8088 24.8652 36.662 23.9093C36.5152 22.9535 35.4105 21.616 34.8914 22.6783C34.3723 23.7406 33.4651 24.6982 33.4651 24.6982L30.2605 28.7393C30.2605 28.7393 29.2164 30.1569 29.1878 30.9347C29.1674 31.4876 28.9335 33.4771 28.8 34.5811V36H36.2332V34.5811Z" fill="#333333"/>
<path d="M26 41C26 41.5523 26.4477 42 27 42H35C35.5523 42 36 41.5523 36 41V39C36 38.4477 35.5523 38 35 38H27C26.4477 38 26 38.4477 26 39V41Z" fill="#333333"/>
<path d="M22.0022 41C22.0022 41.5523 21.5545 42 21.0022 42H13.0022C12.4499 42 12.0022 41.5523 12.0022 41V39C12.0022 38.4477 12.4499 38 13.0022 38H21.0022C21.5545 38 22.0022 38.4477 22.0022 39V41Z" fill="#333333"/>
<path fill-rule="evenodd" clip-rule="evenodd" d="M24 26C29.5229 26 34 21.5228 34 16C34 10.4772 29.5229 6 24 6C18.4772 6 14 10.4772 14 16C14 21.5228 18.4772 26 24 26ZM31.828 14.3422C31.7721 14.4352 31.6705 14.5 31.5495 14.5H29.5671C28.6461 14.5 27.8433 15.1268 27.6199 16.0203L27.2841 17.3636C27.1294 17.9823 27.5233 18.6047 28.1486 18.7297L28.2246 18.7449C28.919 18.8838 29.3563 19.5749 29.1846 20.2618C29.0628 20.7487 29.0426 21.2555 29.1251 21.7506L29.1824 22.0947C27.7864 23.2829 25.9769 24 24 24C23.2794 24 22.581 23.9047 21.9167 23.7261L24.258 19.3781C24.5933 18.7552 24.1422 18 23.4349 18H23.25C22.8358 18 22.5 17.6642 22.5 17.25C22.5 16.8358 22.1642 16.5 21.75 16.5H19.1285C18.7358 16.5 18.3692 16.3038 18.1514 15.9771C17.7916 15.4375 17.9375 14.7084 18.4771 14.3486L19.8476 13.4349C20.2552 13.1632 20.5 12.7058 20.5 12.2159V11.6206C20.5 10.962 20.9482 10.3879 21.5871 10.2282C22.1414 10.0896 22.5608 9.63544 22.6547 9.07182L22.8189 8.08658C23.2043 8.02955 23.5987 8 24 8C25.1591 8 26.2606 8.2465 27.2549 8.68992C27.2424 8.98241 27.2166 9.2834 27.0423 9.45774L26.8536 9.64645C26.6583 9.84171 26.6583 10.1583 26.8536 10.3536C26.9473 10.4473 27.0745 10.5 27.2071 10.5L29.191 10.5C29.3942 10.5 29.5946 10.5473 29.7764 10.6382L30.0528 10.7764C30.0567 10.7784 30.0607 10.7804 30.0646 10.7824C30.2083 10.9494 30.3453 11.1223 30.4751 11.3009C30.4915 11.3651 30.5 11.4319 30.5 11.5V11.8306C30.5 12.2409 30.7318 12.6159 31.0987 12.7994L31.1749 12.8374C31.2724 12.8862 31.359 12.9522 31.4311 13.0313C31.5992 13.4518 31.7327 13.89 31.828 14.3422ZM18.5 21.8095C17.4026 20.7702 16.5995 19.4234 16.2287 17.907C16.7105 17.5229 17.2599 17.1733 17.7195 17.4797C18.2071 17.8047 18.5 18.352 18.5 18.938V21.8095Z" fill="#333333"/>
</svg>
