<svg width="48" height="48" viewBox="0 0 48 48" fill="none" xmlns="http://www.w3.org/2000/svg">
<g clip-path="url(#clip0)">
<path fill-rule="evenodd" clip-rule="evenodd" d="M24 27C31.1797 27 37 21.1797 37 14C37 6.8203 31.1797 1 24 1C16.8203 1 11 6.8203 11 14C11 21.1797 16.8203 27 24 27ZM17.2785 23.2315C14.4316 21.155 12.5816 17.7936 12.5816 14C12.5816 13.5388 12.6089 13.0839 12.6621 12.637C12.7688 12.8953 12.9126 13.1407 13.0921 13.3651L13.629 14.0362C13.8692 14.3364 14 14.7094 14 15.0939C14 15.66 14.2829 16.1886 14.7539 16.5026L15.6641 17.1094C16.4987 17.6658 17 18.6025 17 19.6056V21.9689C17 22.4144 17.0985 22.8437 17.2785 23.2315ZM22.35 25.3001C22.8887 25.378 23.4396 25.4184 24 25.4184C27.8745 25.4184 31.2982 23.4887 33.3626 20.538L33.1642 19.1495C33.07 18.4899 32.5051 18 31.8388 18C31.0994 18 30.5 17.4006 30.5 16.6612V15.2592C30.5 14.7624 30.635 14.275 30.8906 13.849L31.442 12.93C31.7882 12.353 32.4117 12 33.0845 12H34.25C34.6642 12 35 11.6642 35 11.25C35 10.8358 34.6642 10.5 34.25 10.5H33.8034C33.6091 10.5 33.4228 10.5772 33.2855 10.7145C32.9136 11.0864 32.2827 10.9569 32.0875 10.4686L31.7465 9.61616C31.5912 9.22795 31.6263 8.78947 31.8414 8.43095L32.777 6.87175C32.7988 6.8354 32.816 6.79736 32.8287 6.75836C32.6254 6.51074 32.4118 6.27181 32.1887 6.04224C31.992 6.08309 31.8179 6.22831 31.7621 6.4514L31.5929 7.12846C31.5339 7.36428 31.3749 7.56256 31.1575 7.67127C30.7819 7.85907 30.3252 7.7378 30.0923 7.38839L29.8194 6.97905C29.6149 6.67232 29.5406 6.29692 29.6129 5.93544L29.9496 4.25218C28.2169 3.1924 26.1798 2.5816 24 2.5816C23.6631 2.5816 23.3295 2.59619 23 2.62478V3.1459C23 4.28221 22.358 5.321 21.3416 5.82918L20.6584 6.17082C19.642 6.679 19 7.71779 19 8.8541V9.39445C19 10.3975 18.4987 11.3342 17.6641 11.8906L16.8702 12.4199C16.3265 12.7823 16 13.3925 16 14.0458C16 15.1251 16.8749 16 17.9542 16H21C21.5523 16 22 16.4477 22 17C22 17.5523 22.4477 18 23 18H23.5C24.3284 18 25 18.6716 25 19.5V19.618C25 19.8692 24.9415 20.117 24.8292 20.3416L22.35 25.3001Z" fill="#333333"/>
<path fill-rule="evenodd" clip-rule="evenodd" d="M11.3064 41.0013C11.3064 40.8009 11.3805 40.6174 11.5028 40.4772C11.0825 40.072 10.666 39.6778 10.245 39.2794L10.2015 39.2383C8.55524 37.6808 6.83706 36.0553 5.08434 34.0371C2.87202 31.4899 2.63671 30.6122 1.97215 28.1314C1.85421 27.6912 1.72205 27.1982 1.57509 26.6807L0.559575 23.1047C-0.111446 21.1301 -0.119635 19.706 0.223131 18.7878C0.41994 18.2607 0.730814 17.8777 1.11079 17.6308C1.50915 17.3719 1.96684 17.2715 2.43846 17.318C3.13204 17.3867 3.85578 17.7862 4.42452 18.4699C4.47624 18.5319 4.5166 18.5997 4.54634 18.6705L4.54921 18.6694L6.60839 23.5738C6.9197 23.3015 7.31231 23.1233 7.76813 23.0749L7.77129 23.0746C8.70808 22.9755 9.926 23.4566 11.1717 24.9153L13.21 26.7148C13.2275 26.7285 13.2446 26.7433 13.2611 26.7589C15.3746 28.7561 16.2722 29.2262 17.9138 30.0855C18.3121 30.2937 18.7504 30.5234 19.2193 30.779C19.5091 30.937 19.7666 31.1107 20.0043 31.2899C20.2294 31.4597 20.4456 31.641 20.6567 31.8192C21.808 32.791 22.4315 33.6228 22.8169 34.5874C23.1921 35.527 23.3085 36.507 23.4654 37.8486C23.5251 38.3603 23.5725 38.8763 23.6075 39.3953C23.6414 39.903 23.6744 40.4499 23.6744 40.9576V45.7451C23.6744 46.1857 23.317 46.5431 22.8764 46.5431H12.1044C11.6638 46.5431 11.3064 46.1857 11.3064 45.7451V41.0013ZM13.4975 40.2034H22.0573C22.0471 39.9744 22.0335 39.7408 22.0176 39.5017C21.985 39.0151 21.9396 38.5239 21.8818 38.0297C21.7382 36.8032 21.6323 35.9075 21.3391 35.1739C21.0561 34.4656 20.5637 33.8252 19.6277 33.0352C19.4407 32.8775 19.2488 32.7165 19.044 32.562C18.852 32.4171 18.656 32.2833 18.4584 32.1756C17.9569 31.9022 17.548 31.6882 17.1779 31.4945C15.4035 30.5656 14.4334 30.0577 12.1701 27.9187L12.1587 27.908L10.0692 26.0633C10.0402 26.0376 10.0136 26.0101 9.98921 25.9814L9.98821 25.9823C9.12583 24.9611 8.41574 24.6092 7.93621 24.6582C7.81583 24.6709 7.71656 24.7163 7.64344 24.7847C7.56515 24.8578 7.50783 24.9654 7.47752 25.0955C7.38026 25.5119 7.55696 26.0858 8.11492 26.6176C8.14164 26.6429 8.16606 26.6696 8.18833 26.6977L13.5818 32.7111C13.8744 33.038 13.8464 33.5406 13.5196 33.8331C13.1928 34.1256 12.6901 34.0977 12.3976 33.7708L7.00532 27.7587C6.69344 27.4592 6.45066 27.1411 6.27065 26.8175C6.22741 26.7623 6.19078 26.7007 6.16248 26.6332L3.12385 19.3959C2.85033 19.0984 2.54937 18.9278 2.28245 18.9014C2.16666 18.8899 2.06093 18.9103 1.97718 18.9648C1.87461 19.0314 1.78281 19.1555 1.71285 19.3427C1.48473 19.9538 1.52782 21.0116 2.07429 22.6122L2.08679 22.6527L3.10848 26.2506C3.27368 26.8328 3.39938 27.301 3.51158 27.7199C4.10675 29.9422 4.31778 30.7281 6.28732 32.9959C8.01063 34.9803 9.68638 36.5657 11.2923 38.0849C12.0577 38.8089 12.8083 39.5192 13.4975 40.2034ZM13.3502 41.7993C13.2439 41.8211 13.1341 41.8213 13.0278 41.7993H12.9024V44.9471H22.0784V41.7993H13.3502Z" fill="#333333"/>
<path fill-rule="evenodd" clip-rule="evenodd" d="M36.6934 41.0013C36.6934 40.8009 36.6193 40.6174 36.4971 40.4772C36.9169 40.0725 37.3328 39.6789 37.7533 39.2811L37.7545 39.28L37.7985 39.2383C39.445 37.6807 41.1628 36.0555 42.9157 34.0371C45.128 31.4899 45.3634 30.6122 46.028 28.1314C46.1459 27.6912 46.2781 27.1982 46.425 26.6807L47.4406 23.1047C48.1114 21.1301 48.1196 19.706 47.7769 18.7878C47.58 18.2607 47.2692 17.8777 46.8892 17.6308C46.4908 17.3719 46.0332 17.2715 45.5615 17.318C44.8678 17.3867 44.1442 17.7862 43.5755 18.4699C43.5238 18.5319 43.4834 18.5997 43.4536 18.6705L43.4508 18.6694L41.3917 23.5738C41.0804 23.3015 40.6878 23.1233 40.232 23.0749L40.2288 23.0746C39.2921 22.9755 38.0741 23.4566 36.8285 24.9153L34.7901 26.7148C34.7726 26.7285 34.7557 26.7433 34.739 26.7589C32.6255 28.7561 31.7281 29.2262 30.0864 30.0855C29.6882 30.2937 29.2499 30.5234 28.781 30.779C28.4911 30.937 28.2335 31.1107 27.9959 31.2899C27.7706 31.4597 27.5544 31.641 27.3434 31.8192C26.1921 32.791 25.5687 33.6228 25.1832 34.5874C24.8078 35.527 24.6916 36.507 24.5346 37.8486C24.4749 38.3603 24.4273 38.8763 24.3925 39.3953C24.3611 39.8665 24.3402 40.3596 24.3302 40.8727C24.3272 40.9006 24.3256 40.929 24.3256 40.9576V45.7451C24.3256 46.1857 24.683 46.5431 25.1236 46.5431H35.8954C36.3362 46.5431 36.6934 46.1857 36.6934 45.7451V41.0013ZM34.5024 40.2036H25.9426C25.9529 39.9746 25.9659 39.741 25.9818 39.5018C26.0144 39.0152 26.0598 38.5241 26.1176 38.0299C26.2611 36.8033 26.3671 35.9076 26.6603 35.174C26.9433 34.4658 27.4358 33.8253 28.3717 33.0354C28.5586 32.8776 28.7507 32.7166 28.9554 32.5622C29.1474 32.4172 29.3434 32.2835 29.5411 32.1757C30.0427 31.9024 30.4516 31.6883 30.8215 31.4947C32.5961 30.5658 33.5662 30.0578 35.8295 27.9189L35.8408 27.9081L37.9303 26.0634C37.9593 26.0377 37.9859 26.0103 38.0103 25.9815L38.0114 25.9824C38.8739 24.9613 39.584 24.6093 40.0633 24.6583C40.1839 24.6711 40.2831 24.7165 40.3563 24.7849C40.4344 24.858 40.4917 24.9656 40.522 25.0956C40.6193 25.5121 40.4426 26.086 39.8846 26.6178C39.8581 26.6431 39.8335 26.6698 39.8112 26.6978L34.4178 32.7113C34.1253 33.0381 34.1533 33.5408 34.4801 33.8332C34.8069 34.1257 35.3096 34.0979 35.6021 33.7709L40.9944 27.7589C41.3063 27.4593 41.549 27.1413 41.729 26.8176C41.7721 26.7625 41.8089 26.7008 41.8372 26.6333L44.8759 19.396C45.1494 19.0985 45.4503 18.928 45.7173 18.9015C45.8332 18.8901 45.9388 18.9105 46.0227 18.9649C46.1252 19.0316 46.217 19.1557 46.287 19.3429C46.5151 19.954 46.472 21.0117 45.9256 22.6123L45.9131 22.6529L44.8914 26.2507C44.726 26.833 44.6005 27.3012 44.4883 27.7201C43.8931 29.9423 43.6821 30.7282 41.7125 32.996C39.9892 34.9805 38.3136 36.5659 36.7075 38.0851C35.9421 38.8091 35.1915 39.5193 34.5024 40.2036ZM34.6496 41.7993C34.7559 41.8211 34.8657 41.8213 34.972 41.7993H35.0974V44.9471H25.9215V41.7993H34.6496Z" fill="#333333"/>
</g>
<defs>
<clipPath id="clip0">
<rect width="48" height="48" fill="white"/>
</clipPath>
</defs>
</svg>
