<svg width="48" height="48" viewBox="0 0 48 48" fill="none" xmlns="http://www.w3.org/2000/svg">
<path fill-rule="evenodd" clip-rule="evenodd" d="M24.0001 11C25.3808 11 26.5001 9.88071 26.5001 8.5C26.5001 7.11929 25.3808 6 24.0001 6C22.6194 6 21.5001 7.11929 21.5001 8.5C21.5001 9.88071 22.6194 11 24.0001 11ZM24.0001 13C26.4854 13 28.5001 10.9853 28.5001 8.5C28.5001 6.01472 26.4854 4 24.0001 4C21.5148 4 19.5001 6.01472 19.5001 8.5C19.5001 10.9853 21.5148 13 24.0001 13Z" fill="#333333"/>
<path fill-rule="evenodd" clip-rule="evenodd" d="M20.9592 17C19.5901 17 18.662 17.6651 18.0525 18.5314C17.489 19.3323 17.1556 20.3598 16.8851 21.2476C16.6842 21.9072 16.648 22.0457 16.5536 22.407L16.5507 22.418C16.4193 22.9209 16.1858 23.8142 15.3563 26.7461C15.2214 27.2229 15.4881 27.7936 16.0911 27.9594C16.7117 28.1301 17.2863 27.7571 17.4286 27.2539C18.3394 24.0347 18.5347 23.2704 18.6324 22.888L18.6333 22.8848C18.711 22.5805 18.7385 22.4756 18.9469 21.7915C19.2272 20.8713 19.487 20.134 19.8439 19.6267L19.8464 19.6232L19.8544 19.6119L21.5429 20.4853L17.5828 34.7995C18.7627 35.1135 20.6374 35.5 24.0005 35.5C27.259 35.5 29.3015 35.1373 30.4281 34.8349L26.4584 20.4859L28.1447 19.6094L28.1568 19.6266C28.5138 20.1339 28.7737 20.8713 29.0539 21.7915C29.2623 22.4756 29.2898 22.5805 29.3675 22.8848L29.3684 22.888C29.4661 23.2704 29.6614 24.0347 30.5722 27.2539C30.7146 27.7571 31.2891 28.1301 31.9098 27.9594C32.5127 27.7936 32.7794 27.2229 32.6446 26.7461C31.8445 23.9183 31.5988 22.9869 31.4645 22.4731L31.4472 22.407C31.3528 22.0457 31.3166 21.9073 31.1157 21.2476C30.8453 20.3598 30.5118 19.3324 29.9483 18.5314C29.3388 17.6651 28.4107 17 27.0416 17H24.5162L24.5096 17H20.9592ZM33.2977 21.8938C33.4249 22.3804 33.6552 23.2619 34.4806 26.1793C34.9478 27.8304 33.9527 29.4658 32.3971 29.8935C31.9544 30.0153 31.5013 30.0298 31.0695 29.95L32.2827 34.3353C32.554 35.3157 32.0689 36.4492 31.0125 36.7425C29.7208 37.1012 27.4875 37.5 24.0005 37.5C20.4647 37.5 18.4294 37.0899 17.0961 36.7341C16.0363 36.4514 15.4499 35.3057 15.7435 34.2443L16.9316 29.9499C16.4997 30.0298 16.0465 30.0153 15.6037 29.8935C14.0481 29.4658 13.0531 27.8304 13.5202 26.1793C14.3455 23.2621 14.5759 22.3806 14.7031 21.8939L14.7038 21.8913C14.8074 21.4947 14.8498 21.3336 15.0607 20.6412C15.3237 19.7778 15.7355 18.4475 16.5098 17.3469C17.4208 16.0522 18.8873 15 20.9592 15H24.5096L24.5162 15H27.0416C29.1135 15 30.58 16.0522 31.491 17.3469C32.2654 18.4475 32.6771 19.7778 32.9401 20.6412C33.141 21.3006 33.189 21.4782 33.2826 21.8362L33.2977 21.8938Z" fill="#333333"/>
<path fill-rule="evenodd" clip-rule="evenodd" d="M19.0001 39.0138V42.3875C19.0001 43.139 19.5562 43.7745 20.301 43.8743C21.0458 43.974 21.7495 43.5072 21.9473 42.7822L22.8679 39.4067C21.6319 39.347 20.3655 39.2166 19.0001 39.0138ZM26.1305 39.3999L27.053 42.7822C27.2507 43.5072 27.9544 43.974 28.6992 43.8743C29.444 43.7745 30.0001 43.139 30.0001 42.3875V39C28.6341 39.2016 27.3672 39.3354 26.1305 39.3999Z" fill="#333333"/>
</svg>
