<?xml version="1.0" encoding="UTF-8" standalone="no"?>
<!-- Created with Inkscape (http://www.inkscape.org/) -->
<svg id="svg8" xmlns:rdf="http://www.w3.org/1999/02/22-rdf-syntax-ns#" xmlns="http://www.w3.org/2000/svg" xmlns:osb="http://www.openswatchbook.org/uri/2009/osb" height="48" width="48" version="1.1" xmlns:cc="http://creativecommons.org/ns#" viewBox="0 0 12.7 12.7" xmlns:dc="http://purl.org/dc/elements/1.1/">
 <title id="title4753">UIO-icon</title>
 <metadata id="metadata5">
  <rdf:RDF>
   <cc:Work rdf:about="">
    <dc:format>image/svg+xml</dc:format>
    <dc:type rdf:resource="http://purl.org/dc/dcmitype/StillImage"/>
    <dc:title>UIO-icon</dc:title>
    <dc:creator>
     <cc:Agent>
      <dc:title>Joaquín Urbano</dc:title>
     </cc:Agent>
    </dc:creator>
    <dc:rights>
     <cc:Agent>
      <dc:title>GPL</dc:title>
     </cc:Agent>
    </dc:rights>
   </cc:Work>
  </rdf:RDF>
 </metadata>
 <g id="layer1" transform="translate(0,-284.3)">
  <path id="rect4887" d="m0 0v48h48v-48h-48zm24.002 4.0273c2.425 0 4.391 1.9656 4.391 4.3907 0 2.425-1.966 4.391-4.391 4.391s-4.393-1.966-4.393-4.391c0-2.4251 1.968-4.3907 4.393-4.3907zm0.426 9.8617h3.998v0.011c0.722 0.01 1.41 0.408 1.75 1.104l4.853 9.943c0.481 0.985 0.076 2.164-0.908 2.645-0.984 0.48-2.164 0.076-2.644-0.908l-3.051-6.252c0 4.721 0.491 7.851 2.787 12.644h-2.787v8.92c0 1.095-0.881 1.979-1.977 1.979-1.095 0-1.978-0.884-1.978-1.979v-8.92h-0.953v8.92c0 1.095-0.882 1.979-1.977 1.979s-1.975-0.884-1.975-1.979v-8.92h-2.781c2.566-4.968 2.856-8.379 2.781-12.627l-3.043 6.237c-0.48 0.984-1.658 1.388-2.642 0.908-0.984-0.481-1.393-1.661-0.912-2.645l4.855-9.943c0.338-0.693 1.024-1.087 1.742-1.102v-0.011l3.998-0.002 0.864-0.002z" fill-rule="evenodd" transform="matrix(.26458 0 0 .26458 0 284.3)" fill="#333"/>
 </g>
</svg>
