<svg width="48" height="48" viewBox="0 0 48 48" fill="none" xmlns="http://www.w3.org/2000/svg">
<path fill-rule="evenodd" clip-rule="evenodd" d="M24.0012 4.04395C21.5761 4.04395 19.6101 6.00992 19.6101 8.43502C19.6101 10.8601 21.576 12.8261 24.0012 12.8261C26.4263 12.8261 28.3922 10.8602 28.3922 8.43502C28.3922 6.00992 26.4263 4.04395 24.0012 4.04395ZM23.565 13.9066L19.5659 13.9091V13.9206C18.8474 13.9357 18.1616 14.3307 17.8237 15.0232L12.9696 24.9668C12.4892 25.951 12.8968 27.1303 13.8811 27.6106C14.8655 28.091 16.0422 27.6859 16.5226 26.7016L19.5659 20.4654C19.6402 24.7136 19.3505 28.1238 16.7848 33.092H19.5659V42.0136C19.5659 43.1089 20.4456 43.991 21.5409 43.991C22.6362 43.991 23.5183 43.1089 23.5183 42.0136V33.0917H24.4715V42.0132C24.4715 43.1085 25.3537 43.9907 26.4489 43.9907C27.5442 43.9907 28.4263 43.1085 28.4263 42.0132V33.0917H31.2126C28.9162 28.2917 28.4263 25.1924 28.4263 20.468L31.477 26.7189C31.9574 27.7032 33.1366 28.1084 34.121 27.628C35.1053 27.1477 35.5104 25.9685 35.03 24.9842L30.1756 15.044C29.8363 14.3486 29.1479 13.9483 28.4261 13.9389V13.9275H24.4273L23.565 13.9066Z" fill="#333333"/>
</svg>
