<svg width="48" height="48" viewBox="0 0 48 48" fill="none" xmlns="http://www.w3.org/2000/svg">
<path fill-rule="evenodd" clip-rule="evenodd" d="M11 19C9.34315 19 8 20.3431 8 22V23C8 24.3965 8.95513 25.5725 10.2493 25.9055C10.6911 26.0193 11 26.4177 11 26.874V36.0002C11 36.5386 11.4263 36.9804 11.9644 36.9996C12.5024 37.0188 12.9591 36.6085 12.9975 36.0715L13.5025 29.0003C13.5399 28.477 13.9754 28.0716 14.5 28.0716C15.0246 28.0716 15.4601 28.477 15.4975 29.0003L16.0025 36.0715C16.0409 36.6085 16.4976 37.0188 17.0357 36.9996C17.5737 36.9804 18 36.5386 18 36.0002V27.874C18 27.4177 18.3089 27.0193 18.7507 26.9055C20.0449 26.5725 21 25.3965 21 24V22C21 20.3431 19.6569 19 18 19H11ZM6 22C6 19.2386 8.23858 17 11 17H18C20.7614 17 23 19.2386 23 22V24C23 26.0512 21.7655 27.8122 20 28.5836V36.0002C20 37.6155 18.7212 38.9407 17.1069 38.9983C16.0285 39.0368 15.0591 38.5002 14.5 37.6593C13.941 38.5002 12.9715 39.0368 11.8931 38.9983C10.2789 38.9407 9.00001 37.6155 9.00001 36.0002L9.00001 27.5836C7.23448 26.8122 6 25.0512 6 23V22Z" fill="#333333"/>
<path d="M10.7588 19C10.7588 21.807 9.59191 21.193 10.1522 24C10.1003 23.5126 10.8007 23.2957 11.8331 22.3158C12.5844 21.6027 13 20.9649 13 19H10.7588Z" fill="#333333"/>
<path fill-rule="evenodd" clip-rule="evenodd" d="M32 19H35V19.1887L36.1416 19.0254C36.2581 19.0087 36.3778 19 36.5 19C37.8807 19 39 20.1193 39 21.5V25.5C39 26.4724 38.445 27.317 37.6299 27.7309L36.6204 28.2436L39.2444 32.131C37.6498 32.2929 35.2585 32.5 33.5 32.5C31.7415 32.5 29.3502 32.2929 27.7556 32.131L30.3796 28.2436L29.3701 27.7309C28.555 27.317 28 26.4724 28 25.5V21.5C28 20.1193 29.1193 19 30.5 19C30.6222 19 30.7419 19.0087 30.8584 19.0254L32 19.1887V19ZM37 17.0275V17H30V17.0275C27.75 17.2762 26 19.1837 26 21.5V25.5C26 26.85 26.5946 28.0602 27.5342 28.8842L26.0856 31.0303C25.2526 32.2644 26.013 33.9639 27.5228 34.1176C29.1202 34.2802 31.6195 34.5 33.5 34.5C35.3805 34.5 37.8798 34.2802 39.4772 34.1176C40.987 33.9639 41.7474 32.2644 40.9144 31.0303L39.4658 28.8842C40.4054 28.0602 41 26.85 41 25.5V21.5C41 19.1837 39.25 17.2762 37 17.0275Z" fill="#333333"/>
<path d="M37.2412 19C37.2412 22.9298 38.4081 22.0702 37.8478 26C37.8997 25.3176 37.1993 25.014 36.1669 23.6421C35.4156 22.6437 35 21.7509 35 19H37.2412Z" fill="#333333"/>
<path d="M29.7588 19C29.7588 22.9298 28.5919 22.0702 29.1522 26C29.1003 25.3176 29.8007 25.014 30.8331 23.6421C31.5844 22.6437 32 21.7509 32 19H29.7588Z" fill="#333333"/>
<path fill-rule="evenodd" clip-rule="evenodd" d="M33.5 10C32.3954 10 31.5 10.8954 31.5 12C31.5 13.1046 32.3954 14 33.5 14C34.6046 14 35.5 13.1046 35.5 12C35.5 10.8954 34.6046 10 33.5 10ZM29.5 12C29.5 9.79086 31.2909 8 33.5 8C35.7091 8 37.5 9.79086 37.5 12C37.5 14.2091 35.7091 16 33.5 16C31.2909 16 29.5 14.2091 29.5 12Z" fill="#333333"/>
<path fill-rule="evenodd" clip-rule="evenodd" d="M28.5 35.8172V37.0001C28.5 37.7554 29.0616 38.3929 29.8109 38.4881C30.5602 38.5833 31.2634 38.1066 31.4523 37.3753L31.7704 36.1439C30.7177 36.0882 29.6416 35.9797 28.5 35.8172ZM35.2277 36.1365L35.5477 37.3753C35.7366 38.1066 36.4398 38.5833 37.1891 38.4881C37.9384 38.3929 38.5 37.7554 38.5 37.0001V35.8027C37.3578 35.9651 36.2811 36.0767 35.2277 36.1365Z" fill="#333333"/>
<path fill-rule="evenodd" clip-rule="evenodd" d="M14.5 10C13.3954 10 12.5 10.8954 12.5 12C12.5 13.1046 13.3954 14 14.5 14C15.6046 14 16.5 13.1046 16.5 12C16.5 10.8954 15.6046 10 14.5 10ZM10.5 12C10.5 9.79086 12.2909 8 14.5 8C16.7091 8 18.5 9.79086 18.5 12C18.5 14.2091 16.7091 16 14.5 16C12.2909 16 10.5 14.2091 10.5 12Z" fill="#333333"/>
<path fill-rule="evenodd" clip-rule="evenodd" d="M10.1056 23.0528C10.3526 22.5588 10.9532 22.3586 11.4472 22.6056C11.4667 22.6153 11.486 22.625 11.5051 22.6345C11.951 22.8573 12.2768 23.0201 12.6 23.2625C12.9078 23.4934 13.2049 23.7906 13.6497 24.2355C13.6686 24.2544 13.6877 24.2735 13.7071 24.2929C14.5557 25.1415 14.6099 26.3891 14.1599 27.2868C13.9263 27.7528 13.5364 28.1726 12.9937 28.4079C12.4413 28.6473 11.8146 28.6589 11.1838 28.4487C10.2107 28.1243 9.25291 27.5714 8.56507 27.1254C8.21488 26.8984 7.92137 26.6903 7.7144 26.5382C7.61073 26.462 7.52827 26.3996 7.47072 26.3553C7.44193 26.3332 7.41933 26.3156 7.40339 26.3031L7.38452 26.2882L7.37892 26.2838L7.37617 26.2816C7.37617 26.2816 7.37595 26.2814 8 25.5L7.37617 26.2816C6.94463 25.9369 6.87396 25.3075 7.21862 24.8759C7.56315 24.4446 8.19207 24.374 8.6236 24.7183M8.6236 24.7183L8.62586 24.72L8.63767 24.7293C8.64879 24.7381 8.66635 24.7518 8.68986 24.7698C8.73693 24.806 8.80773 24.8597 8.89866 24.9265C9.0809 25.0604 9.34192 25.2455 9.65309 25.4473C10.288 25.8589 11.0802 26.306 11.8162 26.5513C12.04 26.6259 12.1531 26.5925 12.1983 26.5728C12.2534 26.549 12.3192 26.4957 12.372 26.3905C12.4946 26.1458 12.4443 25.8585 12.2929 25.7071C11.7699 25.1841 11.5792 24.9969 11.4 24.8625C11.237 24.7403 11.0769 24.6565 10.5528 24.3944C10.0588 24.1474 9.85858 23.5468 10.1056 23.0528" fill="#333333"/>
<path d="M18.6816 19C18.6816 21.807 19.8485 21.193 19.2882 24C19.3401 23.5126 18.6397 23.2957 17.6073 22.3158C16.856 21.6027 16.4404 20.9649 16.4404 19H18.6816Z" fill="#333333"/>
<path fill-rule="evenodd" clip-rule="evenodd" d="M19.2619 22.9297C18.9469 22.476 18.3238 22.3636 17.8701 22.6785C17.3675 23.0275 17.138 23.1645 16.954 23.2744C16.8788 23.3193 16.8111 23.3597 16.7355 23.4082C16.4345 23.6012 16.2205 23.8057 15.7333 24.2929C14.8847 25.1415 14.8305 26.3891 15.2806 27.2868C15.5142 27.7528 15.904 28.1726 16.4467 28.4079C16.9992 28.6473 17.6259 28.6589 18.2567 28.4487C19.2297 28.1243 20.1875 27.5714 20.8754 27.1254C21.2255 26.8984 21.5191 26.6903 21.726 26.5382C21.8297 26.462 21.9122 26.3996 21.9697 26.3553C21.9985 26.3332 22.0211 26.3156 22.037 26.3031L22.0559 26.2882L22.0615 26.2838L22.0643 26.2816C22.0643 26.2816 22.0645 26.2814 21.4404 25.5L22.0643 26.2816C22.4958 25.9369 22.5665 25.3075 22.2218 24.8759C21.8773 24.4446 21.2484 24.374 20.8168 24.7183M20.8168 24.7183L20.8146 24.72L20.8028 24.7293C20.7916 24.7381 20.7741 24.7518 20.7506 24.7698C20.7035 24.806 20.6327 24.8597 20.5418 24.9265C20.3595 25.0604 20.0985 25.2455 19.7873 25.4473C19.1525 25.8589 18.3603 26.306 17.6242 26.5513C17.4004 26.6259 17.2874 26.5925 17.2421 26.5728C17.187 26.549 17.1212 26.4957 17.0685 26.3905C16.9458 26.1458 16.9961 25.8585 17.1475 25.7071C17.6604 25.1943 17.7261 25.1488 17.815 25.0918C17.8436 25.0735 17.8822 25.0504 17.9329 25.0202C18.1116 24.9136 18.4403 24.7174 19.0107 24.3214C19.4644 24.0065 19.5768 23.3834 19.2619 22.9297" fill="#333333"/>
</svg>
