<svg width="48" height="48" viewBox="0 0 48 48" fill="none" xmlns="http://www.w3.org/2000/svg">
<path fill-rule="evenodd" clip-rule="evenodd" d="M33 16C35.2091 16 37 14.2091 37 12C37 9.79086 35.2091 8 33 8C30.7909 8 29 9.79086 29 12C29 14.2091 30.7909 16 33 16ZM38.307 29.2709C38.8866 31.1591 39.6151 33.1434 40.0692 34.3392C40.2906 34.9219 39.9372 35.5675 39.3241 35.6802C34.786 36.5147 31.6606 36.4934 26.7302 35.6673C26.0989 35.5615 25.7332 34.8923 25.9689 34.2972C26.4402 33.1071 27.1768 31.1642 27.749 29.2772C25.9332 29.0975 24.5 26.9829 24.5 24.4007C24.5 21.7006 26.067 19.5118 28 19.5118L28.0126 19.5117C28.0043 19.4518 28 19.3905 28 19.3283C28 18.5947 28.5947 18 29.3283 18H30C30 20.3723 29.5498 21.3939 29.13 22.3466C28.6649 23.4018 28.2372 24.3723 28.5 27C28.4711 26.4584 28.7035 26.1044 29.106 25.4909C29.3487 25.121 29.6534 24.6567 30 24C30.1329 23.7482 30.2917 23.4981 30.4608 23.2315C31.1452 22.1531 32 20.8063 32 18H34C34 20.8063 34.8548 22.1531 35.5392 23.2315C35.7084 23.4981 35.8671 23.7482 36 24C36.3466 24.6567 36.6513 25.121 36.894 25.4909C37.2965 26.1044 37.5289 26.4584 37.5 27C37.7628 24.3723 37.3351 23.4018 36.87 22.3466C36.4502 21.3939 36 20.3723 36 18H36.6717C37.4053 18 38 18.5947 38 19.3283C38 19.3905 37.9957 19.4518 37.9874 19.5117H38C39.933 19.5117 41.5 21.7005 41.5 24.4006C41.5 26.9562 40.0962 29.0537 38.307 29.2709Z" fill="#333333"/>
<path fill-rule="evenodd" clip-rule="evenodd" d="M28.5 37.1515V38.4999C28.5 39.2521 29.0571 39.8879 29.8028 39.9868C30.5485 40.0857 31.2521 39.617 31.4482 38.8908L31.8435 37.4263C30.7614 37.3897 29.6624 37.2985 28.5 37.1515ZM35.1411 37.3695L35.5518 38.8908C35.7479 39.617 36.4515 40.0857 37.1972 39.9868C37.9429 39.8879 38.5 39.2521 38.5 38.4999V37C37.3214 37.1739 36.2165 37.2975 35.1411 37.3695Z" fill="#333333"/>
<path fill-rule="evenodd" clip-rule="evenodd" d="M18.445 12C18.445 14.2091 16.6542 16 14.445 16C12.2359 16 10.445 14.2091 10.445 12C10.445 9.79086 12.2359 8 14.445 8C16.6542 8 18.445 9.79086 18.445 12ZM20 38C20 39.0563 19.1785 39.9305 18.1243 39.9961C17.07 40.0618 16.1465 39.2962 16.0154 38.2481L15.172 31.5H14.8559L13.9835 38.2561C13.8485 39.3022 12.9243 40.0636 11.8717 39.9959C10.8191 39.9282 10 39.0547 10 38V26.8245C10.0253 26.3759 10.2485 26.0357 10.606 25.4909C10.8487 25.121 11.1534 24.6567 11.5 24C11.647 23.7215 11.8498 23.4208 12.0767 23.0843C12.8849 21.886 14 20.2325 14 17.5H15.9336C15.9336 20.2325 17.0487 21.886 17.8568 23.0843C18.0838 23.4208 18.2866 23.7215 18.4336 24C18.7802 24.6567 19.0849 25.121 19.3276 25.4909C19.7301 26.1044 19.9625 26.4584 19.9336 27C20.1949 24.3867 19.6367 23.2758 19.0443 22.0968C18.5032 21.0202 17.9336 19.8866 17.9336 17.5H20V38ZM10.8893 22.0968C10.5104 22.851 10.1454 23.5772 10 24.6866V17.5H12C12 19.8866 11.4304 21.0202 10.8893 22.0968Z" fill="#333333"/>
<path fill-rule="evenodd" clip-rule="evenodd" d="M10.8719 17.7794C11.546 18.2609 11.7021 19.1977 11.2206 19.8719L9.37061 22.4618L12.184 26.0791C12.6926 26.733 12.5748 27.6754 11.9209 28.184C11.267 28.6926 10.3246 28.5748 9.81597 27.9209L6.31597 23.4209C5.90863 22.8972 5.89375 22.1681 6.2794 21.6281L8.7794 18.1281C9.26091 17.454 10.1977 17.2979 10.8719 17.7794Z" fill="#333333"/>
<path fill-rule="evenodd" clip-rule="evenodd" d="M19.1281 17.7794C18.454 18.2609 18.2979 19.1977 18.7794 19.8719L20.6294 22.4618L17.816 26.0791C17.3074 26.733 17.4252 27.6754 18.0791 28.184C18.733 28.6926 19.6754 28.5748 20.184 27.9209L23.684 23.4209C24.0914 22.8972 24.1062 22.1681 23.7206 21.6281L21.2206 18.1281C20.7391 17.454 19.8023 17.2979 19.1281 17.7794Z" fill="#333333"/>
<path d="M9 26H21V30H9V26Z" fill="#333333"/>
</svg>
