<svg width="48" height="48" viewBox="0 0 48 48" fill="none" xmlns="http://www.w3.org/2000/svg">
<path d="M20.6294 22.4618L20 23.2711V21.5807L20.6294 22.4618Z" fill="#333333"/>
<path d="M10 23.2711V21.5807L9.37061 22.4618L10 23.2711Z" fill="#333333"/>
<path fill-rule="evenodd" clip-rule="evenodd" d="M0 0H48V48H0V0ZM33 16C35.2091 16 37 14.2091 37 12C37 9.79086 35.2091 8 33 8C30.7909 8 29 9.79086 29 12C29 14.2091 30.7909 16 33 16ZM38.307 29.2709C38.8865 31.1591 39.6151 33.1434 40.0692 34.3392C40.2906 34.9219 39.9372 35.5675 39.3241 35.6802C34.786 36.5147 31.6606 36.4934 26.7302 35.6673C26.0989 35.5615 25.7332 34.8923 25.9689 34.2972C26.4402 33.1071 27.1768 31.1642 27.749 29.2772C25.9332 29.0975 24.5 26.9829 24.5 24.4007C24.5 21.7006 26.067 19.5118 28 19.5118L28.0126 19.5117C28.0043 19.4518 28 19.3905 28 19.3283C28 18.5947 28.5947 18 29.3283 18H30C30 20.3723 29.5498 21.3939 29.13 22.3466C28.6649 23.4018 28.2372 24.3723 28.5 27C28.4711 26.4584 28.7035 26.1044 29.106 25.4909C29.3487 25.121 29.6534 24.6566 30 24C30.1329 23.7483 30.2916 23.4981 30.4608 23.2316C31.1452 22.1532 32 20.8063 32 18H34C34 20.8063 34.8547 22.1531 35.5392 23.2315C35.7083 23.4979 35.8672 23.7484 36 24C36.3466 24.6566 36.6512 25.1209 36.894 25.4909C37.2965 26.1043 37.5289 26.4584 37.5 27C37.7628 24.3723 37.3351 23.4018 36.87 22.3466C36.4502 21.3939 36 20.3723 36 18H36.6717C37.4053 18 38 18.5947 38 19.3283C38 19.3905 37.9957 19.4518 37.9874 19.5117H38C39.933 19.5117 41.5 21.7005 41.5 24.4006C41.5 26.9562 40.0962 29.0537 38.307 29.2709ZM28.5 38.4999V37.1515C29.6624 37.2985 30.7614 37.3897 31.8435 37.4263L31.4482 38.8908C31.2521 39.617 30.5485 40.0857 29.8028 39.9868C29.0571 39.8879 28.5 39.2521 28.5 38.4999ZM35.5518 38.8908L35.1411 37.3695C36.2165 37.2975 37.3214 37.1739 38.5 37V38.4999C38.5 39.2521 37.9429 39.8879 37.1972 39.9868C36.4515 40.0857 35.7479 39.617 35.5518 38.8908ZM18.445 12C18.445 14.2091 16.6542 16 14.445 16C12.2359 16 10.445 14.2091 10.445 12C10.445 9.79086 12.2359 8 14.445 8C16.6542 8 18.445 9.79086 18.445 12ZM20 38C20 39.0563 19.1785 39.9305 18.1243 39.9961C17.07 40.0618 16.1465 39.2962 16.0154 38.2481L15.172 31.5H14.8559L13.9835 38.2561C13.8485 39.3022 12.9243 40.0636 11.8717 39.9959C10.8191 39.9282 10 39.0547 10 38V30H9V26.8718L6.31597 23.4209C5.90862 22.8972 5.89375 22.1681 6.2794 21.6281L8.7794 18.1281C9.07607 17.7128 9.54559 17.4941 10.02 17.5H12C12 19.8867 11.4304 21.0202 10.8893 22.0968C10.6517 22.5698 10.4195 23.0318 10.2436 23.5842L11.1087 24.6965C11.2317 24.4905 11.3626 24.2604 11.5 24C11.647 23.7215 11.8498 23.4208 12.0767 23.0843C12.8849 21.886 14 20.2325 14 17.5H15.9336C15.9336 20.2325 17.0487 21.886 17.8568 23.0843C18.0837 23.4207 18.2866 23.7215 18.4336 24C18.5819 24.2809 18.7224 24.5266 18.8538 24.7448L19.7091 23.6451C19.531 23.0655 19.2906 22.5871 19.0443 22.0969C18.5032 21.0202 17.9336 19.8867 17.9336 17.5H19.98C20.4544 17.4941 20.9239 17.7128 21.2206 18.1281L23.7206 21.6281C24.1062 22.1681 24.0914 22.8972 23.684 23.4209L21 26.8718V30H20V38Z" fill="#333333"/>
</svg>
