<svg width="48" height="48" viewBox="0 0 48 48" fill="none" xmlns="http://www.w3.org/2000/svg">
<path d="M32.8 5.572L35.5 4.286L38.2001 5.572V3L35.5 4.286L32.8 3V5.572Z" fill="#333333"/>
<path d="M35.5012 6.04395C34.3366 6.04395 33.2197 6.50664 32.3962 7.33012C31.5727 8.15361 31.1101 9.27044 31.1101 10.435C31.1101 11.5996 31.5727 12.7164 32.3962 13.5399C33.2197 14.3634 34.3366 14.8261 35.5012 14.8261C36.6657 14.8261 37.7826 14.3634 38.6061 13.5399C39.4296 12.7164 39.8922 11.5996 39.8922 10.435C39.8922 9.27044 39.4296 8.15361 38.6061 7.33012C37.7826 6.50664 36.6657 6.04395 35.5012 6.04395Z" fill="#333333"/>
<path d="M41.414 16.767C41.2992 15.776 40.4565 15 39.4273 15H39.1125L41.0425 21.4351C40.6357 21.8301 40.219 22.1829 39.7933 22.4911L37.5466 15H33.4528L31.1861 22.4762C30.7614 22.167 30.3456 21.8134 29.9397 21.4178L31.8856 15H31.5727C30.5431 15 29.7002 15.7765 29.5859 16.768C29.4249 16.9159 29.3237 17.0234 29.3237 17.0234C29.3237 17.0234 27 20 27 22C27 22.9809 27.9621 23.9617 28.9426 24.7066C29.2604 24.9481 29.5801 25.1647 29.8696 25.3486C30.0021 25.4327 30.1283 25.51 30.2451 25.5796L29.9165 26.6634L29.9311 27.0714C29.9524 27.6659 30.2315 28.1921 30.6587 28.5441C30.2732 30.538 29.5602 32.6225 28.2849 35.092H31.0334L31.066 43.9933V44.0136C31.066 44.0822 31.0695 44.15 31.0762 44.2168C31.0834 44.2876 31.0942 44.3572 31.1085 44.4256C31.2964 45.3221 32.087 45.9915 33.0411 45.9915C34.1364 45.9915 35.0185 45.1094 35.0185 44.0141V35.0917H35.9716V44.0132C35.9716 44.0689 35.9739 44.1241 35.9784 44.1787C36.0615 45.1964 36.9092 45.9915 37.9492 45.9915C39.0445 45.9915 39.9266 45.1094 39.9266 44.0141V35.0917H42.7127C41.5134 32.5848 40.8068 30.5419 40.4054 28.489C40.7963 28.1384 41.0487 27.6356 41.0689 27.0714L41.0793 26.779L40.7161 25.568C40.8451 25.4924 40.9848 25.408 41.1316 25.3158C41.3946 25.1505 41.6801 24.9601 41.9654 24.7501L42.0238 24.7069C43.0231 23.9619 44.003 22.981 44 22C43.994 20 41.6763 17.0232 41.6763 17.0232C41.6763 17.0232 41.5751 16.9153 41.414 16.767Z" fill="#333333"/>
<path d="M9.39619 7.33012C10.2197 6.50664 11.3366 6.04395 12.5012 6.04395C13.6657 6.04395 14.7826 6.50664 15.6061 7.33012C16.4296 8.15361 16.8922 9.27044 16.8922 10.435C16.8922 11.5996 16.4296 12.7164 15.6061 13.5399C14.7826 14.3634 13.6657 14.8261 12.5012 14.8261C11.3366 14.8261 10.2197 14.3634 9.39619 13.5399C8.57269 12.7164 8.11009 11.5996 8.11009 10.435C8.11009 9.27044 8.57269 8.15361 9.39619 7.33012Z" fill="#333333"/>
<path d="M18.414 16.767C18.2992 15.776 17.4565 15 16.4273 15H16.1125L18.0425 21.4351C17.6357 21.8301 17.219 22.1829 16.7933 22.4911L14.5466 15H10.4528L8.18608 22.4762C7.76139 22.167 7.34558 21.8134 6.93973 21.4178L8.8856 15H8.5727C7.5431 15 6.70025 15.7765 6.58589 16.768C6.42485 16.9159 6.32369 17.0234 6.32369 17.0234C6.32369 17.0234 4 20 4 22C4 22.9809 4.96207 23.9617 5.94257 24.7066C6.26035 24.9481 6.58007 25.1647 6.86959 25.3486C7.00212 25.4327 7.12833 25.51 7.24513 25.5796L6.91655 26.6634L6.93112 27.0714C6.95773 27.8165 7.38956 28.4545 8.01019 28.7764L8.06609 44.0141C8.06609 45.1094 8.94579 45.9915 10.0411 45.9915C11.1364 45.9915 12.0185 45.1094 12.0185 44.0141V32.387H12.9717V44.0141C12.9717 45.1094 13.8538 45.9915 14.9492 45.9915C16.0445 45.9915 16.9266 45.1094 16.9266 44.0141V28.8078C17.5809 28.4973 18.0414 27.8416 18.0689 27.0714L18.0793 26.779L17.7161 25.568C17.8451 25.4924 17.9848 25.408 18.1316 25.3158C18.3946 25.1505 18.6801 24.9601 18.9654 24.7501L19.0238 24.7069C20.0231 23.9619 21.003 22.981 21 22C20.994 20 18.6763 17.0232 18.6763 17.0232C18.6763 17.0232 18.5751 16.9153 18.414 16.767Z" fill="#333333"/>
</svg>
