<?xml version="1.0" encoding="UTF-8" standalone="no"?>
<!-- Created with Inkscape (http://www.inkscape.org/) -->
<svg id="svg8" xmlns:rdf="http://www.w3.org/1999/02/22-rdf-syntax-ns#" xmlns="http://www.w3.org/2000/svg" xmlns:osb="http://www.openswatchbook.org/uri/2009/osb" height="48" width="48" version="1.1" xmlns:cc="http://creativecommons.org/ns#" viewBox="0 0 12.7 12.7" xmlns:dc="http://purl.org/dc/elements/1.1/">
 <title id="title4753">UIO-icon</title>
 <metadata id="metadata5">
  <rdf:RDF>
   <cc:Work rdf:about="">
    <dc:format>image/svg+xml</dc:format>
    <dc:type rdf:resource="http://purl.org/dc/dcmitype/StillImage"/>
    <dc:title>UIO-icon</dc:title>
    <dc:creator>
     <cc:Agent>
      <dc:title>Joaquín Urbano</dc:title>
     </cc:Agent>
    </dc:creator>
    <dc:rights>
     <cc:Agent>
      <dc:title>GPL</dc:title>
     </cc:Agent>
    </dc:rights>
   </cc:Work>
  </rdf:RDF>
 </metadata>
 <g id="layer1" transform="translate(0,-284.3)">
  <path id="circle5040" d="m20.648 3.998c-1.064 0.0469-2.223 0.456-2.939 1.4571-0.987 1.6688 0.073 2.5066 1.555 3.0215a14.273 12.398 0 0 0 -8.858 7.9394 4.1874 4.1874 0 0 0 -0.9099 -0.104 4.1874 4.1874 0 0 0 -4.1875 4.188 4.1874 4.1874 0 0 0 4.1875 4.188 4.1874 4.1874 0 0 0 1.1559 -0.165 14.273 12.398 0 0 0 13.342 8.034 14.273 12.398 0 0 0 8.111 -2.221 6.8534 6.8534 0 0 0 5.036 2.219 6.8534 6.8534 0 0 0 6.853 -6.854 6.8534 6.8534 0 0 0 -1.414 -4.156 4.1874 4.1874 0 0 0 0.137 -1.045 4.1874 4.1874 0 0 0 -4.188 -4.188 4.1874 4.1874 0 0 0 -0.929 0.11 14.273 12.398 0 0 0 -13.606 -8.6622 14.273 12.398 0 0 0 -1.072 0.039c-0.878-0.6466-4.992-0.4592-3.234-2.0508 1.541-1.2653 3.715-0.6413 0.863 0.795 4.322-0.9921 2.44-2.648 0.097-2.545zm3.676 4.2696c7.302 0.0037 12.095 5.1134 12.963 8.7774 1.806-0.626 4.841 0.345 4.906 3.486 0 0.172-0.016 0.34-0.043 0.504a6.8534 6.8534 0 0 0 -5.009 -2.187 6.8534 6.8534 0 0 0 -6.852 6.853 6.8534 6.8534 0 0 0 1.455 4.211c-2.304 1.434-4.905 2.246-7.094 2.123-6.984-0.004-12.131-3.644-13.705-8.119-2.115 0.728-4.71-0.2-5.1149-3.373 0.0699-2.363 2.5165-4.518 4.8729-3.461 1.636-4.755 6.364-8.807 13.621-8.8144zm-4.31 8.7444a1.5082 1.5082 0 0 0 -1.51 1.508 1.5082 1.5082 0 0 0 1.51 1.507 1.5082 1.5082 0 0 0 1.507 -1.507 1.5082 1.5082 0 0 0 -1.507 -1.508zm8 0a1.5082 1.5082 0 0 0 -1.51 1.508 1.5082 1.5082 0 0 0 1.51 1.507 1.5082 1.5082 0 0 0 1.507 -1.507 1.5082 1.5082 0 0 0 -1.507 -1.508zm9.127 2.271a6.4179 6.4179 0 0 1 4.886 2.268 6.4179 6.4179 0 0 1 0.006 0.006 6.4179 6.4179 0 0 1 0.344 0.445 6.4179 6.4179 0 0 1 1.184 3.699 6.4179 6.4179 0 0 1 -6.418 6.418 6.4179 6.4179 0 0 1 -4.663 -2.014 6.4179 6.4179 0 0 1 -0.025 -0.029 6.4179 6.4179 0 0 1 -0.34 -0.39l-0.002 0.002a6.4179 6.4179 0 0 1 -1.386 -3.987 6.4179 6.4179 0 0 1 6.414 -6.418zm2.033 1.697l-0.623 0.622 0.976 0.978-1.64 1.641c-0.666-0.489-1.465-0.754-2.264-0.754-2.042 0-3.728 1.643-3.728 3.685 0 2.086 1.686 3.729 3.728 3.729s3.727-1.642 3.727-3.729c0-0.843-0.312-1.687-0.844-2.353l1.644-1.598 0.932 0.932 0.621-0.621-0.932-0.932 0.799-0.844-0.621-0.621-0.799 0.797-0.976-0.932zm-20.008 2.665c-0.247 0.022-0.47 0.264-0.437 0.658 0.203 1.978 2.508 3.509 5.285 3.511 2.778 0 5.085-1.532 5.289-3.511-1.171 1.653-3.002 2.734-5.289 2.781-2.214-0.001-4.062-1.207-4.262-2.781-0.067-0.484-0.339-0.681-0.586-0.658zm16.457 0.666c1.554 0 2.84 1.286 2.84 2.839 0 1.598-1.286 2.885-2.84 2.885-1.553 0-2.842-1.287-2.842-2.885 0-1.553 1.289-2.839 2.842-2.839zm-27.756 10.785c-0.8281 0-1.4624 0.274-1.9043 0.824-0.4384 0.55-0.6582 1.357-0.6582 2.418v1.398c0.0104 1.02 0.2354 1.802 0.6738 2.348s1.0703 0.82 1.8985 0.82c0.8385 0 1.4752-0.279 1.9101-0.836 0.4349-0.556 0.6519-1.359 0.6519-2.41v-1.398c-0.01-1.02-0.233-1.801-0.6714-2.344-0.4384-0.546-1.0723-0.82-1.9004-0.82zm5.9958 0c-0.462 0-0.887 0.088-1.273 0.265-0.383 0.178-0.681 0.426-0.897 0.743-0.212 0.313-0.318 0.667-0.318 1.064h1.508c0-0.254 0.098-0.459 0.293-0.615 0.195-0.16 0.436-0.241 0.724-0.241 0.321 0 0.571 0.086 0.752 0.256 0.185 0.171 0.278 0.409 0.278 0.715 0 0.317-0.093 0.571-0.278 0.762-0.184 0.191-0.468 0.287-0.851 0.287h-0.803v1.18h0.799c0.835 0 1.252 0.38 1.252 1.138 0 0.314-0.103 0.565-0.309 0.756-0.202 0.188-0.481 0.282-0.84 0.282-0.313 0-0.577-0.091-0.793-0.272-0.212-0.181-0.318-0.414-0.318-0.699h-1.508c0 0.657 0.239 1.188 0.719 1.588 0.484 0.4 1.105 0.599 1.863 0.599 0.811 0 1.463-0.204 1.953-0.611 0.495-0.407 0.741-0.948 0.741-1.623 0-0.418-0.106-0.78-0.319-1.086-0.208-0.306-0.527-0.534-0.955-0.688 0.345-0.156 0.624-0.381 0.836-0.673 0.212-0.293 0.319-0.613 0.319-0.961 0-0.675-0.228-1.203-0.684-1.586-0.456-0.386-1.087-0.58-1.891-0.58zm10.434 0c-0.828 0-1.463 0.274-1.904 0.824-0.439 0.55-0.659 1.357-0.659 2.418v1.398c0.011 1.02 0.236 1.802 0.674 2.348 0.439 0.546 1.072 0.82 1.901 0.82 0.838 0 1.475-0.279 1.91-0.836 0.435-0.556 0.652-1.359 0.652-2.41v-1.398c-0.01-1.02-0.235-1.801-0.674-2.344-0.438-0.546-1.072-0.82-1.9-0.82zm7.437 0.027c-0.769 0.004-1.444 0.177-2.029 0.525-0.581 0.345-1.029 0.834-1.342 1.467-0.309 0.63-0.465 1.357-0.465 2.182v0.543c0 0.929 0.246 1.672 0.737 2.228 0.494 0.557 1.141 0.836 1.941 0.836 0.494 0 0.937-0.111 1.326-0.334 0.394-0.222 0.696-0.533 0.909-0.933 0.215-0.4 0.324-0.848 0.324-1.342 0-0.773-0.196-1.396-0.586-1.869s-0.915-0.709-1.576-0.709c-0.616 0-1.126 0.204-1.53 0.615 0.084-0.612 0.332-1.091 0.746-1.436 0.418-0.344 0.969-0.52 1.651-0.531h0.146v-1.242h-0.252zm2.459 0.078v7.6h1.567v-2.078l-0.156-3.58 2.044 5.658h1.077l2.05-5.664-0.156 3.586v2.078h1.57v-7.6h-2.056l-1.942 5.512-1.951-5.512h-2.047zm-26.326 1.117c0.3653 0 0.6342 0.143 0.8047 0.432 0.174 0.285 0.2597 0.743 0.2597 1.373v1.807c-0.0069 0.595-0.0923 1.037-0.2558 1.326-0.1636 0.289-0.43 0.432-0.7988 0.432-0.3724 0-0.644-0.15-0.8145-0.45-0.167-0.302-0.25-0.763-0.25-1.383v-1.847c0.0104-0.581 0.1006-1.006 0.2676-1.278 0.1705-0.274 0.4322-0.412 0.7871-0.412zm16.43 0c0.365 0 0.634 0.143 0.805 0.432 0.174 0.285 0.261 0.743 0.261 1.373v1.807c-0.007 0.595-0.092 1.037-0.256 1.326-0.163 0.289-0.43 0.432-0.798 0.432-0.373 0-0.644-0.15-0.815-0.45-0.167-0.302-0.25-0.763-0.25-1.383v-1.847c0.011-0.581 0.099-1.006 0.266-1.278 0.17-0.274 0.432-0.412 0.787-0.412zm6.217 2.61c0.341 0 0.612 0.127 0.814 0.381s0.303 0.587 0.303 1.002c0 0.407-0.101 0.738-0.303 0.996-0.198 0.254-0.459 0.381-0.783 0.381-0.358 0-0.636-0.141-0.834-0.422-0.198-0.286-0.299-0.681-0.299-1.186v-0.459c0.094-0.209 0.241-0.375 0.44-0.5 0.198-0.129 0.418-0.193 0.662-0.193zm-12.856 0.01v1.216h2.94v-1.216h-2.94z" fill-rule="evenodd" transform="matrix(.26458 0 0 .26458 0 284.3)" fill="#333"/>
 </g>
</svg>
