<?xml version="1.0" encoding="UTF-8" standalone="no"?>
<!-- Created with Inkscape (http://www.inkscape.org/) -->
<svg id="svg8" xmlns:rdf="http://www.w3.org/1999/02/22-rdf-syntax-ns#" xmlns="http://www.w3.org/2000/svg" xmlns:osb="http://www.openswatchbook.org/uri/2009/osb" height="48" width="48" version="1.1" xmlns:cc="http://creativecommons.org/ns#" viewBox="0 0 12.7 12.7" xmlns:dc="http://purl.org/dc/elements/1.1/">
 <title id="title4753">UIO-icon</title>
 <metadata id="metadata5">
  <rdf:RDF>
   <cc:Work rdf:about="">
    <dc:format>image/svg+xml</dc:format>
    <dc:type rdf:resource="http://purl.org/dc/dcmitype/StillImage"/>
    <dc:title>UIO-icon</dc:title>
    <dc:creator>
     <cc:Agent>
      <dc:title>Joaquín Urbano</dc:title>
     </cc:Agent>
    </dc:creator>
    <dc:rights>
     <cc:Agent>
      <dc:title>GPL</dc:title>
     </cc:Agent>
    </dc:rights>
   </cc:Work>
  </rdf:RDF>
 </metadata>
 <g id="layer1" transform="translate(0,-284.3)">
  <path id="path827" d="m14.566 4c-5.8811-0.0002-10.648 4.7669-10.648 10.648 0.0076 2.939 1.2214 5.678 3.1113 8.432 0.6107 0.836 0.8306 1.109 1.543 1.963l7.6937 0.088 4.82-9.336 4.43 17.517c3.632-5.102 3.844-5.672 6.107-9.082l3.475-0.003c0.501 0.007 0.511-0.503 0.002-0.514l-3.756 0.008-5.602 8.381c-1.035-4.452-4.594-17.571-4.594-17.571-0.416 0.541-2.102 4.339-5.203 10.086l-7.1188-0.084c-2.6013-2.944-4.056-6.455-4.3692-9.144-0.0047-11.552 14.09-14.772 19.576-4.522 5.843-10.574 19.106-6.4422 19.528 4.418-0.561 8.395-12.763 16.403-19.61 27.746-0.752-1.222-1.754-2.601-2.885-4.049a9 9 0 0 0 0.934 -3.982 9 9 0 0 0 -9 -9 9 9 0 0 0 -9 9 9 9 0 0 0 9 9 9 9 0 0 0 7.889 -4.686 9 9 0 0 1 -0.055 0.106c1.092 1.455 2.143 2.971 3.107 4.58 7.514-12.449 20.148-19.998 20.153-29.352 0-5.8811-4.769-10.648-10.651-10.648-3.968 0.0038-7.604 2.2126-9.435 5.7324-1.833-3.5211-5.472-5.7301-9.442-5.7324zm-1.566 22.516a8.4844 8.4844 0 0 1 8.484 8.484 8.4844 8.4844 0 0 1 -8.484 8.484 8.4844 8.4844 0 0 1 -8.4844 -8.484 8.4844 8.4844 0 0 1 8.4844 -8.484zm0 2.609c-3.2447 0-5.875 2.63-5.875 5.875h1.375c0-2.485 2.015-4.5 4.5-4.5s4.5 2.015 4.5 4.5h1.375c0-3.245-2.63-5.875-5.875-5.875zm-3.248 2.945l1.928 4.348c-0.219 0.287-0.337 0.637-0.338 0.998 0 0.915 0.743 1.657 1.658 1.656 0.915 0.001 1.658-0.741 1.658-1.656 0.001-0.916-0.742-1.659-1.658-1.658-0.098 0-0.196 0.009-0.293 0.027l-2.955-3.715z" transform="matrix(.26458 0 0 .26458 0 284.3)" fill="#333"/>
 </g>
</svg>
