<?xml version="1.0" encoding="UTF-8" standalone="no"?>
<!-- Created with Inkscape (http://www.inkscape.org/) -->
<svg id="svg8" xmlns:rdf="http://www.w3.org/1999/02/22-rdf-syntax-ns#" xmlns="http://www.w3.org/2000/svg" height="48" viewBox="0 0 12.7 12.7" width="48" version="1.1" xmlns:cc="http://creativecommons.org/ns#" xmlns:dc="http://purl.org/dc/elements/1.1/">
 <title id="title4753">UIO-icon</title>
 <metadata id="metadata5">
  <rdf:RDF>
   <cc:Work rdf:about="">
    <dc:format>image/svg+xml</dc:format>
    <dc:type rdf:resource="http://purl.org/dc/dcmitype/StillImage"/>
    <dc:title>UIO-icon</dc:title>
    <dc:creator>
     <cc:Agent>
      <dc:title>Joaquín Urbano</dc:title>
     </cc:Agent>
    </dc:creator>
    <dc:rights>
     <cc:Agent>
      <dc:title>GPL</dc:title>
     </cc:Agent>
    </dc:rights>
   </cc:Work>
  </rdf:RDF>
 </metadata>
 <path id="rect4852" d="m20.012 3c0.235 0.8206 0.985 1.0769 0.922 1.8965-1.577-0.593-2.6 0.0053-4.266-0.1797 1.187 0.5913 2.002 0.2616 2.955 0.5937-3.323 0.9884-5.228 3.2689-5.619 6.7755-0.086 1.688-0.094 3.381-0.084 5.072l-0.215-0.058c-0.757-0.207-1.014 0.18-0.932 1.404 0.092 1.347 0.555 2.499 1.297 3.228 0.315 0.309 0.415 0.485 0.614 1.073 1.091 3.224 3.087 5.824 5.582 7.267 2.145 1.087 4.458 1.393 7.388 0.004 2.779-1.464 4.283-4.109 5.528-6.959 0.338-0.919 0.417-1.062 0.832-1.5 0.52-0.55 0.764-1.044 1.052-2.127 0.163-0.609 0.192-0.868 0.164-1.439-0.031-0.65-0.048-0.71-0.255-0.889-0.216-0.185-0.26-0.19-0.748-0.084-0.307-2.848 0.057-4.237-0.709-7.1073-0.325-0.9257-0.613-1.4459-1.217-2.2012-0.988-1.2348-2.438-2.1-4.33-2.584-0.615-0.157-1.428-0.2593-2.307-0.3183-0.249-0.0197-0.477-0.0362-0.875-0.043-0.291-0.0085-0.583-0.017-0.877-0.0156-0.156 0.0007-0.309 0.0082-0.465 0.0117-0.048 0.0007-0.097-0.0008-0.144 0 1.144-1.0295 1.509-0.6513 3.576-1.6914-2.438 0.7856-2.27-0.8119-4.608 0.9063-0.362-0.7537-1.685-0.3811-2.259-1.0352zm6.125 9.426c0.138 0.004 0.338 0.027 0.603 0.062 1.679 0.224 2.838 0.816 4.645 2.375 0.472 0.408 0.918 0.808 0.992 0.891 0.143 0.16 0.324 1.153 0.416 2.273 0.029 0.357 0.085 0.624 0.125 0.6 0.034-0.021 0.135-0.19 0.227-0.363 1.205-0.385 0.912 0.131 0.767 1.039-0.258 0.988-0.477 1.438-0.943 1.941-0.371 0.4-0.441 0.532-0.744 1.371-1.112 2.587-2.445 5.007-4.952 6.354-2.624 1.268-4.695 0.988-6.617-0.004-2.234-1.318-4.023-3.693-5-6.637-0.178-0.537-0.269-0.696-0.551-0.978-0.954-1.379-1.866-3.479-0.087-3.09 0.011 0.014 0.046 0.048 0.054 0.06l0.17 0.235 0.006-0.479c0.012-1.362 0.511-2.938 1.313-4.144 0.335-0.506 0.425-0.518 1.4-0.174 1.621 0.572 2.997 1.418 4.543 2.793 0.684 0.608 0.713 0.591 0.715-0.424 0.001-0.776-0.135-1.364-0.436-1.885-0.116-0.202-0.158-0.344-0.109-0.375 0.044-0.027 0.281 0.008 0.527 0.078 1.638 0.466 3.082 1.293 4.551 2.608 0.294 0.263 0.556 0.478 0.58 0.478 0.092 0 0.037-0.261-0.227-1.076-0.359-1.11-0.844-1.916-1.662-2.764-0.584-0.605-0.721-0.777-0.306-0.765zm-5.83 5.51a1.0551 1.0551 0 0 0 -1.057 1.054 1.0551 1.0551 0 0 0 1.057 1.055 1.0551 1.0551 0 0 0 1.054 -1.055 1.0551 1.0551 0 0 0 -1.054 -1.054zm7.441 0.179a1.0551 1.0551 0 0 0 -1.055 1.055 1.0551 1.0551 0 0 0 1.055 1.055 1.0551 1.0551 0 0 0 1.055 -1.055 1.0551 1.0551 0 0 0 -1.055 -1.055zm-7.209 7.477c0.032 1.177 1.585 2.121 3.49 2.121 1.904-0.001 3.455-0.945 3.487-2.121-2.731 1.027-4.983 0.842-6.977 0zm-16.539 8.424v10h39.998v-10h-39.998zm9.447 1.33c0.775 0 1.369 0.256 1.78 0.767 0.41 0.508 0.619 1.239 0.628 2.194v1.308c0 0.984-0.202 1.737-0.609 2.258s-1.004 0.781-1.789 0.781c-0.775 0-1.367-0.256-1.777-0.767-0.411-0.512-0.621-1.243-0.631-2.198v-1.31c0-0.993 0.205-1.747 0.615-2.262 0.414-0.514 1.008-0.771 1.783-0.771zm-4.8454 0.088h0.1523v7.123h-1.4121v-5.442l-1.6856 0.522v-1.149l2.9454-1.054zm15.378 0h0.151v7.123h-1.41v-5.442l-1.686 0.522v-1.149l2.945-1.054zm3.088 0.009h3.987v1.178h-2.83l-0.176 1.529c0.335-0.179 0.692-0.269 1.07-0.269 0.678 0 1.21 0.211 1.594 0.631s0.576 1.008 0.576 1.763c0 0.46-0.098 0.872-0.293 1.237-0.192 0.361-0.47 0.642-0.832 0.843-0.361 0.199-0.787 0.299-1.279 0.299-0.43 0-0.829-0.087-1.197-0.259-0.369-0.176-0.659-0.421-0.874-0.737-0.211-0.316-0.324-0.676-0.337-1.08h1.396c0.029 0.296 0.133 0.527 0.309 0.693 0.179 0.163 0.412 0.245 0.699 0.245 0.319 0 0.564-0.114 0.736-0.342 0.173-0.231 0.26-0.557 0.26-0.977 0-0.404-0.1-0.713-0.299-0.927-0.199-0.215-0.479-0.325-0.844-0.325-0.335 0-0.608 0.09-0.816 0.266l-0.137 0.127-1.123-0.279 0.41-3.616zm4.651 0h1.607l1.471 3.205 1.478-3.205h1.604l-2.336 4.534v2.58h-1.49v-2.58l-2.334-4.534zm-18.272 1.045c-0.332 0-0.576 0.13-0.736 0.387-0.156 0.254-0.24 0.653-0.25 1.197v1.729c0 0.579 0.078 1.011 0.234 1.295 0.16 0.28 0.414 0.42 0.762 0.42 0.345 0 0.595-0.136 0.748-0.407 0.153-0.27 0.234-0.683 0.24-1.24v-1.689c0-0.59-0.081-1.018-0.244-1.285-0.159-0.271-0.412-0.407-0.754-0.407zm26.733 0.686c0.671 0 1.207 0.157 1.607 0.472 0.404 0.316 0.606 0.726 0.606 1.231h-1.413c0-0.202-0.065-0.368-0.195-0.498-0.13-0.134-0.334-0.199-0.611-0.199-0.238 0-0.421 0.052-0.551 0.16-0.13 0.107-0.195 0.244-0.195 0.41 0 0.156 0.072 0.283 0.218 0.381 0.15 0.094 0.401 0.178 0.752 0.25 0.352 0.068 0.65 0.146 0.891 0.234 0.746 0.274 1.117 0.748 1.117 1.422 0 0.482-0.205 0.872-0.619 1.172-0.413 0.296-0.949 0.445-1.603 0.445-0.443 0-0.837-0.078-1.182-0.234-0.342-0.16-0.611-0.377-0.807-0.65-0.195-0.277-0.293-0.576-0.293-0.895h1.34c0.013 0.251 0.105 0.445 0.278 0.578 0.172 0.134 0.403 0.199 0.693 0.199 0.27 0 0.474-0.049 0.611-0.15 0.14-0.104 0.211-0.24 0.211-0.406 0-0.173-0.087-0.309-0.26-0.407-0.169-0.101-0.442-0.189-0.82-0.267-1.257-0.264-1.887-0.799-1.887-1.604 0-0.469 0.195-0.859 0.582-1.172 0.391-0.315 0.901-0.472 1.53-0.472zm-23.313 1.767h2.75v1.139h-2.75v-1.139z" fill-rule="evenodd" transform="scale(.26458)" stroke-width="3.7795" fill="#333"/>
</svg>
