<?xml version="1.0" encoding="UTF-8" standalone="no"?>
<!-- Created with Inkscape (http://www.inkscape.org/) -->
<svg id="svg8" xmlns:rdf="http://www.w3.org/1999/02/22-rdf-syntax-ns#" xmlns="http://www.w3.org/2000/svg" height="48" viewBox="0 0 12.7 12.7" width="48" version="1.1" xmlns:cc="http://creativecommons.org/ns#" xmlns:dc="http://purl.org/dc/elements/1.1/">
 <title id="title4753">UIO-icon</title>
 <metadata id="metadata5">
  <rdf:RDF>
   <cc:Work rdf:about="">
    <dc:format>image/svg+xml</dc:format>
    <dc:type rdf:resource="http://purl.org/dc/dcmitype/StillImage"/>
    <dc:title>UIO-icon</dc:title>
    <dc:creator>
     <cc:Agent>
      <dc:title>Joaquín Urbano</dc:title>
     </cc:Agent>
    </dc:creator>
    <dc:rights>
     <cc:Agent>
      <dc:title>GPL</dc:title>
     </cc:Agent>
    </dc:rights>
   </cc:Work>
  </rdf:RDF>
 </metadata>
 <path id="rect858-8" d="m24.029 4.9727c-1.4 0.0015-2.552 1.1015-2.619 2.5h-2.098c-0.588 0-1.062 0.4752-1.062 1.0644v0.2383h-6.389c-1.029 0-1.859 0.8276-1.859 1.8576v30.535c0 1.03 0.83 1.859 1.859 1.859h24.278c1.029 0 1.857-0.829 1.857-1.859v-30.535c0-1.03-0.828-1.8576-1.857-1.8576h-6.391v-0.2383c0-0.5892-0.473-1.0644-1.062-1.0644h-2.038c-0.066-1.3985-1.219-2.4985-2.619-2.5zm0.002 0.5117c1.174 0 2.125 0.9514 2.125 2.125s-0.951 2.125-2.125 2.125c-1.173 0-2.125-0.9514-2.125-2.125s0.952-2.125 2.125-2.125zm-4.724 2.498h2.109c0.185 1.3022 1.3 2.2696 2.615 2.2716 1.316-0.002 2.43-0.9694 2.615-2.2716h2.047c0.3 0 0.541 0.2411 0.541 0.541v0.4649 0.6465 1.6682h-10.468v-1.6682-0.6465-0.4649c0-0.2999 0.241-0.541 0.541-0.541zm-6.789 1.3067h4.312 1.42l0.002 2.5269h1.062 2.465 4.442 2.467 1.062l-0.002-2.5269h0.977l4.947 0.0058c1.638 0.002 1.803 0.9481 1.803 1.8671l0.002 29.809c0 0.919-0.519 1.541-1.786 1.541h-23.498c-0.919 0-1.675-0.606-1.675-1.526v-30.14c0-1.1231 0.553-1.5569 2-1.5569zm11.037 3.8479c-0.103-0.002-0.212 0.097-0.262 0.211l-1.748 4.66-1.088-2.766c-0.094-0.229-0.281-0.24-0.549 0.012l-0.875 0.846h-3.931c-0.503 0.02-0.53 0.525 0 0.513h4.14l0.869-0.842 1.237 3.141c0.102 0.149 0.164 0.45 0.478-0.189l1.492-3.977 0.295 6.908c0.012 0.401 0.384 0.347 0.522-0.017l1.953-5.727 1.668 3.238c0.09 0.104 0.108 0.328 0.457-0.236l-0.004-0.008c0.328-0.531 0.656-1.106 0.979-1.656h3.845c0.37 0.003 0.404-0.506-0.002-0.514h-3.922c-0.224 0.004-0.284 0.117-0.318 0.174l-0.857 1.461-1.614-3.135v-0.002h-0.002c-0.191-0.39-0.386-0.442-0.486-0.164l-1.764 5.17-0.287-6.705h-0.008l0.002-0.006c-0.021-0.287-0.118-0.389-0.22-0.39zm-9.617 11.724l0.001 0.514h20.123l-0.001-0.514h-20.123zm0 4l0.001 0.514h20.123l-0.001-0.514h-20.123zm0 4l0.001 0.514h20.123l-0.001-0.514h-20.123zm0 4l0.001 0.514h12.686l-0.002-0.514h-12.685z" transform="scale(.26458)" stroke-width=".99999" fill="#333"/>
</svg>
