<?xml version="1.0" encoding="UTF-8" standalone="no"?>
<!-- Created with Inkscape (http://www.inkscape.org/) -->
<svg id="svg8" xmlns:rdf="http://www.w3.org/1999/02/22-rdf-syntax-ns#" xmlns="http://www.w3.org/2000/svg" xmlns:osb="http://www.openswatchbook.org/uri/2009/osb" height="48" width="48" version="1.1" xmlns:cc="http://creativecommons.org/ns#" viewBox="0 0 12.7 12.7" xmlns:dc="http://purl.org/dc/elements/1.1/">
 <title id="title4753">UIO-icon</title>
 <metadata id="metadata5">
  <rdf:RDF>
   <cc:Work rdf:about="">
    <dc:format>image/svg+xml</dc:format>
    <dc:type rdf:resource="http://purl.org/dc/dcmitype/StillImage"/>
    <dc:title>UIO-icon</dc:title>
    <dc:creator>
     <cc:Agent>
      <dc:title>Joaquín Urbano</dc:title>
     </cc:Agent>
    </dc:creator>
    <dc:rights>
     <cc:Agent>
      <dc:title>GPL</dc:title>
     </cc:Agent>
    </dc:rights>
   </cc:Work>
  </rdf:RDF>
 </metadata>
 <g id="layer1" fill="#333" transform="translate(0,-284.3)">
  <path id="rect4810" d="m0 0v48h48v-48h-48zm24.029 4.9727c1.4 0.0015 2.553 1.1015 2.619 2.5h2.038c0.589 0 1.062 0.4752 1.062 1.0644v0.2383h6.391c1.029 0 1.857 0.8278 1.857 1.8576v30.535c0 1.03-0.828 1.859-1.857 1.859h-24.278c-1.029 0-1.859-0.829-1.859-1.859v-30.535c0-1.0298 0.83-1.8576 1.859-1.8576h6.389v-0.2383c0-0.5892 0.473-1.0644 1.062-1.0644h2.098c0.067-1.3985 1.219-2.4985 2.619-2.5zm-0.043 1.4511c-0.648-0.0004-1.174 0.5254-1.174 1.1739 0 0.6484 0.526 1.1742 1.174 1.1738 0.648-0.0007 1.173-0.5261 1.172-1.1738 0.001-0.6477-0.524-1.1732-1.172-1.1739zm-4.33 1.7657c-0.355 0-0.64 0.2857-0.64 0.6406v1.1699 1.051h9.935v-1.051-1.1699c0-0.3549-0.286-0.6406-0.64-0.6406h-1.747c-0.195 0.8351-0.782 1.4911-1.535 1.8105h0.012c-0.027 0.01-0.053 0.02-0.08 0.029-0.045 0.018-0.09 0.036-0.137 0.051-0.107 0.036-0.217 0.064-0.328 0.086-0.03 0.006-0.061 0.009-0.092 0.014-0.129 0.021-0.261 0.033-0.392 0.035h-0.012c-0.128-0.003-0.255-0.014-0.381-0.035-0.031-0.005-0.063-0.008-0.094-0.014-0.116-0.022-0.231-0.052-0.343-0.09-0.036-0.012-0.071-0.025-0.106-0.039-0.033-0.012-0.065-0.024-0.097-0.037h0.015c-0.753-0.3194-1.339-0.9754-1.535-1.8105h-1.803zm3.69 4.7325l-0.002 0.002c-0.004 0-0.006 0.004-0.01 0.004-0.003 0-0.006-0.002-0.01-0.002-0.018 0.001-0.033 0.012-0.051 0.015-0.039 0.008-0.077 0.015-0.113 0.034-0.024 0.011-0.043 0.03-0.064 0.045-0.026 0.018-0.053 0.037-0.075 0.06-0.031 0.034-0.054 0.076-0.074 0.119-0.004 0.008-0.012 0.016-0.015 0.028l-0.002 0.007c-0.003 0.008-0.008 0.014-0.01 0.022l-1.301 3.484-0.824-2.111c-0.094-0.24-0.36-0.357-0.6-0.264-0.007 0.003-0.012 0.008-0.019 0.012-0.059 0.023-0.113 0.056-0.16 0.103l-1.282 1.272h-3.398c-0.257 0-0.463 0.208-0.463 0.465s0.206 0.465 0.463 0.465h3.49c0.024 0 0.047-0.012 0.07-0.016 0.129 0.008 0.26-0.03 0.36-0.129l0.93-0.922 1.013 2.602c0.094 0.239 0.362 0.357 0.602 0.263 0.144-0.056 0.235-0.179 0.271-0.318 0.003-0.007 0.007-0.01 0.01-0.017l0.99-2.653 0.432 5.158c0.021 0.257 0.246 0.446 0.502 0.424 0.001 0 0.002-0.002 0.004-0.002 0.18-0.011 0.343-0.13 0.406-0.312l1.738-5.037 1.362 2.173c0.013 0.023 0.034 0.034 0.05 0.055 0.02 0.023 0.034 0.049 0.059 0.069 0.004 0.002 0.008 0.003 0.012 0.007 0.014 0.012 0.031 0.014 0.047 0.022 0.196 0.114 0.448 0.078 0.593-0.106l1.075-1.363h3.308c0.257 0 0.465-0.208 0.465-0.465s-0.208-0.463-0.465-0.463h-3.49c-0.026 0-0.049 0.012-0.074 0.016-0.034 0.002-0.063 0.012-0.096 0.02-0.005 0.001-0.011 0.002-0.016 0.003-0.086 0.027-0.167 0.072-0.228 0.149l-0.799 1.014-1.508-2.407c-0.054-0.086-0.135-0.142-0.222-0.177-0.018-0.008-0.032-0.024-0.051-0.032-0.243-0.084-0.506 0.044-0.59 0.287l-1.338 3.877-0.422-5.025c0-0.008-0.001-0.018-0.002-0.025 0-0.002-0.002-0.003-0.002-0.004-0.005-0.06-0.02-0.118-0.047-0.17-0.004-0.008-0.012-0.016-0.017-0.024-0.026-0.042-0.054-0.082-0.092-0.115-0.012-0.011-0.029-0.014-0.043-0.025-0.031-0.023-0.059-0.045-0.096-0.059-0.005-0.002-0.008 0-0.013-0.002-0.02-0.007-0.042-0.008-0.063-0.012-0.035-0.007-0.071-0.019-0.105-0.019zm-9.408 11.078v1.375h20.123v-1.375h-20.123zm0 4v1.375h20.123v-1.375h-20.123zm0 4v1.375h20.123v-1.375h-20.123zm0 4v1.375h12.685v-1.375h-12.685z" fill-rule="evenodd" transform="matrix(.26458 0 0 .26458 0 284.3)"/>
 </g>
</svg>
