<?xml version="1.0" encoding="UTF-8" standalone="no"?>
<!-- Created with Inkscape (http://www.inkscape.org/) -->
<svg id="svg8" xmlns:rdf="http://www.w3.org/1999/02/22-rdf-syntax-ns#" xmlns="http://www.w3.org/2000/svg" xmlns:osb="http://www.openswatchbook.org/uri/2009/osb" height="48" width="48" version="1.1" xmlns:cc="http://creativecommons.org/ns#" viewBox="0 0 12.7 12.7" xmlns:dc="http://purl.org/dc/elements/1.1/">
 <title id="title4753">UIO-icon</title>
 <metadata id="metadata5">
  <rdf:RDF>
   <cc:Work rdf:about="">
    <dc:format>image/svg+xml</dc:format>
    <dc:type rdf:resource="http://purl.org/dc/dcmitype/StillImage"/>
    <dc:title>UIO-icon</dc:title>
    <dc:creator>
     <cc:Agent>
      <dc:title>Joaquín Urbano</dc:title>
     </cc:Agent>
    </dc:creator>
    <dc:rights>
     <cc:Agent>
      <dc:title>GPL</dc:title>
     </cc:Agent>
    </dc:rights>
   </cc:Work>
  </rdf:RDF>
 </metadata>
 <g id="layer1" transform="translate(0,-284.3)" fill="#333">
  <path id="path1933" d="m23.471 4.9746c-7.0398 0.019502-8.1335 4.1161-8.0742 12.484 0.00878 0.54343 0.022609 1.8203 1.1406 2.0684 0.031019 2.8544 0.59312 4.4879 1.9922 5.4316 2.09 1.3157 3.1271 2.1809 4.9668 2.2383 1.2599 0.00378 2.871-1.135 4.6094-2.2227 1.5631-0.97806 2.3594-3.0259 2.3594-5.0996-0.0005631-0.082031-0.001348-0.16406-0.001953-0.24609 1.1776 0.020107 0.96733-1.3673 1.0703-2.1699 0.039-9.3728-1.147-12.475-8.034-12.483h-0.001953c-0.009913-0.000054047-0.017882 0.000001512-0.027344 0zm-0.112 5.1094c2.26 2.2699 3.8925 4.0739 6.4512 2.7715 0.13851 2.238 0.16984 4.4407 0.13672 6.7168 0 1.8753-0.63336 4.0318-2.0469 4.916-1.572 0.98365-3.2259 2.1971-4.3652 2.1934-1.6637-0.047622-2.946-1.0229-4.8359-2.2129-1.335-0.84099-1.6652-2.9881-1.6602-4.873l0.007813-2.9883c0.72482-6.6209 5.8366-1.7816 6.3125-6.5234zm-2.8672 5.8574c-0.43897 0.00011339-0.79482 0.35602-0.79492 0.79492 0.0000982 0.43894 0.35597 0.79481 0.79492 0.79492 0.43897-0.00011339 0.79482-0.35605 0.79492-0.79492-0.00009831-0.43898-0.35597-0.79481-0.79492-0.79492zm5.9688 0c-0.43897 0.00011339-0.79483 0.35602-0.79492 0.79492 0.00009447 0.43894 0.35593 0.79481 0.79492 0.79492 0.43897-0.00011339 0.79482-0.35605 0.79492-0.79492-0.0000982-0.43898-0.35597-0.79481-0.79492-0.79492zm-3.035 3.668c-0.37814 0.00378-0.67004 0.070579-0.66602 0.14844 0.002 0.080882 0.32239 0.14687 0.7168 0.14648 0.39441 0.00003769 0.71477-0.06561 0.7168-0.14648 0.003201-0.082016-0.31865-0.14844-0.7168-0.14844-0.017008-0.00011339-0.034002-0.00011339-0.050781 0zm2.9551 2.2617c-0.00007555 0.00041575-0.011341 0.001424-0.011719 0.001953 0.00011714 0.00037785 0.011719-0.00041575 0.011719 0zm-0.011719 0.001953c-0.015874-0.053669-1.2268 0.071175-2.7285 0.2832-0.06444 0.007559-0.12896 0.019785-0.19336 0.027344-1.4369 0.2075-2.5416 0.40995-2.5215 0.46094 0.026079 0.052158 1.2485-0.077416 2.7422-0.28906 1.4821-0.21014 2.6733-0.42369 2.7012-0.48242zm3.9434 5.5605-4.0547 10.711c0.006024-0.041031 0.009202-0.056374 0.015625-0.099609-0.905-3.04-1.742-5.967-1.742-5.967 0.45503-1.2894 0.9686-2.6026 0.60547-3.5527-1.0062 0.40275-2.0114 0.47227-3.0176 0.050781-0.50702 0.95897 0.38473 2.3863 0.85742 3.6719l-1.8281 7.3496c-1.526-4.0376-3.06-8.0723-4.582-12.111-0.85013 0.33202-1.7739 0.70036-2.5859 1.0391l-2.6523 1.1484c-0.97219 0.4165-1.9726 0.83023-3.0684 1.2109-2.5451 0.74956-2.5449 2.867-2.5449 4.0195v6.6621h35.572v-6.6621c0-1.1525 0.00016284-3.2682-2.5449-4.0195-1.211-0.42-2.308-0.88-3.373-1.341-1.643-0.741-3.575-1.537-5.057-2.109z" transform="matrix(.26458 0 0 .26458 0 284.3)"/>
 </g>
</svg>
