<?xml version="1.0" encoding="UTF-8" standalone="no"?>
<!-- Created with Inkscape (http://www.inkscape.org/) -->
<svg id="svg8" xmlns:rdf="http://www.w3.org/1999/02/22-rdf-syntax-ns#" xmlns="http://www.w3.org/2000/svg" xmlns:osb="http://www.openswatchbook.org/uri/2009/osb" height="48" width="48" version="1.1" xmlns:cc="http://creativecommons.org/ns#" viewBox="0 0 12.7 12.7" xmlns:dc="http://purl.org/dc/elements/1.1/">
 <title id="title4753">UIO-icon</title>
 <metadata id="metadata5">
  <rdf:RDF>
   <cc:Work rdf:about="">
    <dc:format>image/svg+xml</dc:format>
    <dc:type rdf:resource="http://purl.org/dc/dcmitype/StillImage"/>
    <dc:title>UIO-icon</dc:title>
    <dc:creator>
     <cc:Agent>
      <dc:title>Joaquín Urbano</dc:title>
     </cc:Agent>
    </dc:creator>
    <dc:rights>
     <cc:Agent>
      <dc:title>GPL</dc:title>
     </cc:Agent>
    </dc:rights>
   </cc:Work>
  </rdf:RDF>
 </metadata>
 <g id="layer1" transform="translate(0,-284.3)">
  <path id="rect3210" d="m24.004 4.373c-3.6085 0.00078463-6.5618 0.53471-6.6816 1.2109h-0.011719v3.67h0.003906c0.034526 0.48127 3.0188 0.87101 6.6914 0.87109 3.6722-0.00015685 6.6587-0.38986 6.6934-0.87109h0.001953v-3.6699h-0.007813c-0.11994-0.67697-3.0777-1.2105-6.6875-1.2109zm2.988 0.4551c1.6778 0.12241 2.7006 0.34328 2.7031 0.57812 0 0.37429-2.5493 0.67578-5.6914 0.67578s-5.6872-0.30189-5.6875-0.67578c0.002298-0.22402 0.93673-0.43336 2.498-0.55859-0.12068 0.064736-0.18243 0.14342-0.18359 0.21875 0 0.37429 1.4709 0.67578 3.2852 0.67578 1.8141-0.000078614 3.285-0.3013 3.2852-0.67578-0.001-0.0808-0.071-0.1622-0.209-0.2383zm-5.1387 2.084h0.32031v2.377h-0.32031zm0.66211 0h0.32031v2.377h-0.319zm0.66211 0h0.32031v2.377h-0.32031zm0.66211 0h0.32031v2.377h-0.32031zm0.66211 0h0.32031v2.377h-0.32031zm0.66211 0h0.321v2.377h-0.32031zm0.66211 0h0.32031v2.377h-0.32031zm-7.282 3.1819c0.00459 0.29582 0.067233 0.62534 0.51172 1.1836l-3.2441 1.3984c-0.76879 0.31073-1.0053 0.8248-1.0742 1.2383v3.3906c-0.00001448 5.5749-0.00001033 6.3684 0 9.0059v0.099609c0.00000105 0.39363-0.00000206 0.9921 0 1.3535v1.043c0.00000519 0.74528-0.00000414 2.2521 0 2.9434v0.085938c0.00001558 2.2609 4e-8 5.8546 0 9.627v0.011719h0.003906c0.041822 1.1929 4.1748 2.152 9.2637 2.1523 5.0392-0.00035409 9.1402-0.9425 9.2598-2.1191v-27.426c-0.051043-0.41505-0.26715-1.0006-1.166-1.3613l-3.4824-1.3965c0.36707-0.32446 0.58239-0.75801 0.76367-1.2148-1.22 0.21617-3.1721 0.35547-5.375 0.35547-2.2565 0-4.2461-0.14512-5.459-0.36914zm0.73047 0.61914c2.421 0.32956 6.5709 0.39723 9.123 0.046875l-0.65625 0.77148 4.1504 1.6562c1.0336 0.3901 0.8498 1.03 0.86328 1.293v0.17383c-1.4237 0.81511-4.9401 1.4107-8.6973 1.4121-3.8606-0.001883-7.4416-0.56639-8.793-1.4141-0.013928-0.2494-0.15293-1.1155 0.56641-1.418l4.0488-1.7676zm-4.0273 4.5078c1.374 0.862 4.952 1.362 8.754 1.363 3.7987-0.00027478 7.3725-0.4773 8.7461-1.3438l-0.007813 2.4004c-1.3894 0.83108-4.9267 1.3752-8.7344 1.377-3.8053-0.00153-7.3616-0.59111-8.7539-1.4219zm8.7266 7.0195v0.001953c0.086469 0 0.17304 0.003376 0.25977 0.005859 0.74142 0.028876 1.4644 0.19657 2.1328 0.48828 0.66841 0.29171 1.2822 0.70744 1.8066 1.2324 0.52385 0.5266 0.92842 1.1296 1.2129 1.7754 0.28447 0.64577 0.44915 1.3341 0.49023 2.0293 0.041081 0.69523-0.039784 1.3973-0.24609 2.0723-0.20631 0.67499-0.53839 1.3232-0.99609 1.9082l-8.2461-8.2734c0.514-0.4 1.085-0.709 1.691-0.919 0.60591-0.2097 1.246-0.3205 1.8945-0.32227zm2.8457 2.002c-0.53808-0.003175-1.2035 0.13618-1.6934 0.53125-0.24495 0.19753-0.44579 0.45912-0.56445 0.79883-0.11866 0.3397-0.15605 0.7573-0.072266 1.2676-0.064071 0.036057-0.10219 0.084471-0.10742 0.15234l0.72461 0.71094c0.031925 0 0.057242-0.014402 0.072266-0.054688 0.72637 0.15329 1.2823 0.052807 1.6992-0.18945 0.41696-0.24226 0.69614-0.62652 0.86523-1.041 0.16909-0.4145 0.22816-0.85923 0.21094-1.2227-0.017226-0.36343-0.11191-0.64533-0.25391-0.73438-0.1182-0.12267-0.45976-0.21233-0.88086-0.21484zm-7.4531 0.26367 8.248 8.2715c-0.58646 0.45616-1.2346 0.78426-1.9102 0.98828-0.67555 0.20402-1.3773 0.2839-2.0723 0.24023-0.69501-0.043661-1.3825-0.21116-2.0273-0.49805-0.64486-0.28689-1.2483-0.6931-1.7734-1.2188-0.525-0.528-0.929-1.131-1.214-1.776-0.285-0.646-0.45-1.335-0.492-2.03-0.041568-0.69499 0.040149-1.3975 0.24609-2.0723s0.53644-1.3212 0.99414-1.9062zm2.9609 3.627c-0.32549 0.17101-0.15317 0.6759-0.011719 1.1621 0.070725 0.24311 0.1339 0.48167 0.12305 0.67188-0.010854 0.1902-0.095669 0.33137-0.32031 0.38086-1.008-0.006765-1.4651 0.21634-1.668 0.52539-0.20292 0.30905-0.15173 0.70402-0.14453 1.0391 0.10507-0.47749 0.19997-0.75809 0.44727-0.91797s0.64699-0.19904 1.3652-0.19727c0.36776-0.071709 0.69219-0.19578 0.87695-0.48828 0.18477-0.29251 0.22986-0.75344 0.037109-1.502zm-7.077 7.346c1.3842 0.83245 5.0088 1.9412 8.8203 1.9434 3.802-0.00070602 7.2772-1.1144 8.6738-1.9434l-0.001953 5.1699c-1.744-0.836-5.031-1.483-8.83-1.483-3.802 0.001-7.266 0.653-8.662 1.482z" fill-rule="evenodd" transform="matrix(.26458 0 0 .26458 0 284.3)" fill="#333"/>
 </g>
</svg>
