<?xml version="1.0" encoding="UTF-8" standalone="no"?>
<!-- Created with Inkscape (http://www.inkscape.org/) -->
<svg id="svg8" xmlns:rdf="http://www.w3.org/1999/02/22-rdf-syntax-ns#" xmlns="http://www.w3.org/2000/svg" xmlns:osb="http://www.openswatchbook.org/uri/2009/osb" height="48" width="48" version="1.1" xmlns:cc="http://creativecommons.org/ns#" viewBox="0 0 12.7 12.7" xmlns:dc="http://purl.org/dc/elements/1.1/">
 <title id="title4753">UIO-icon</title>
 <metadata id="metadata5">
  <rdf:RDF>
   <cc:Work rdf:about="">
    <dc:format>image/svg+xml</dc:format>
    <dc:type rdf:resource="http://purl.org/dc/dcmitype/StillImage"/>
    <dc:title>UIO-icon</dc:title>
    <dc:creator>
     <cc:Agent>
      <dc:title>Joaquín Urbano</dc:title>
     </cc:Agent>
    </dc:creator>
    <dc:rights>
     <cc:Agent>
      <dc:title>GPL</dc:title>
     </cc:Agent>
    </dc:rights>
   </cc:Work>
  </rdf:RDF>
 </metadata>
 <g id="layer1" fill="#333" transform="translate(0,-284.3)">
  <path id="rect927" d="m0 0v48h48v-48h-48zm24 13.047c8.036 0 14.65 6.045 15.568 13.834 1.281 0.573 1.989 1.206 1.994 1.853 0.438 6.188-7.878 6.219-17.578 6.219-9.699 0-17.984-0.031-17.546-6.219 0.0064-0.647 0.7093-1.281 1.9936-1.855 0.9196-7.788 7.5334-13.832 15.568-13.832zm0 0.512c-8.381 0-15.176 6.794-15.176 15.175 0.0023 0.075 0.0049 0.149 0.008 0.223 0.0091 0.36-0.5007 0.303-0.5078 0-0.0044-0.074-0.0083-0.148-0.0117-0.223 0-0.471 0.0296-0.935 0.0703-1.396-0.917 0.441-1.4209 0.915-1.4277 1.396 0 1.959 7.6319 3.547 17.047 3.547 9.415 0 17.047-1.588 17.047-3.547-0.001-0.485-0.508-0.962-1.432-1.406 0.042 0.464 0.071 0.931 0.071 1.406-0.003 0.075-0.005 0.149-0.008 0.223-0.018 0.289-0.471 0.449-0.516 0 0.005-0.074 0.008-0.148 0.012-0.223 0-8.381-6.795-15.175-15.176-15.175z" fill-rule="evenodd" transform="matrix(.26458 0 0 .26458 0 284.3)"/>
 </g>
</svg>
