<?xml version="1.0" encoding="UTF-8" standalone="no"?>
<!-- Created with Inkscape (http://www.inkscape.org/) -->
<svg id="svg8" xmlns:rdf="http://www.w3.org/1999/02/22-rdf-syntax-ns#" xmlns="http://www.w3.org/2000/svg" xmlns:osb="http://www.openswatchbook.org/uri/2009/osb" height="48" width="48" version="1.1" xmlns:cc="http://creativecommons.org/ns#" viewBox="0 0 12.7 12.7" xmlns:dc="http://purl.org/dc/elements/1.1/">
 <title id="title4753">UIO-icon</title>
 <metadata id="metadata5">
  <rdf:RDF>
   <cc:Work rdf:about="">
    <dc:format>image/svg+xml</dc:format>
    <dc:type rdf:resource="http://purl.org/dc/dcmitype/StillImage"/>
    <dc:title>UIO-icon</dc:title>
    <dc:creator>
     <cc:Agent>
      <dc:title>Joaquín Urbano</dc:title>
     </cc:Agent>
    </dc:creator>
    <dc:rights>
     <cc:Agent>
      <dc:title>GPL</dc:title>
     </cc:Agent>
    </dc:rights>
   </cc:Work>
  </rdf:RDF>
 </metadata>
 <g id="layer1" transform="translate(0,-284.3)">
  <path id="path3058" d="m13.689 8.0977c-1.933-3.5e-8 -3.5 1.567-3.5 3.5-3e-8 1.933 1.567 3.5 3.5 3.5 1.933 3e-8 3.5-1.567 3.5-3.5 3e-8 -1.933-1.567-3.5-3.5-3.5zm10.586 0v0.0019531c-0.046519-0.00063345-0.093818-0.000528-0.14062 0-0.71853 0.0094488-1.42 0.15976-2.0703 0.43359s-1.249 0.67229-1.7578 1.1797c-0.54008 0.53857-0.94621 1.1615-1.2168 1.8262-0.27059 0.66463-0.40722 1.3712-0.4082 2.0781-0.00098674 0.70691 0.13361 1.4127 0.40234 2.0781 0.26873 0.66541 0.67432 1.29 1.2129 1.8301 0.53857 0.53952 1.1596 0.94461 1.8242 1.2148 0.66464 0.27023 1.3712 0.40547 2.0781 0.40625 0.70691 0.00078349 1.4147-0.13353 2.0801-0.40234 0.6654-0.26882 1.29-0.67237 1.8301-1.2109 0.54004-0.53857 0.94426-1.1597 1.2148-1.8242 0.27058-0.66451 0.40721-1.3733 0.4082-2.0801 0.00099528-0.70674-0.13362-1.4128-0.40234-2.0781-0.269-0.665-0.672-1.288-1.211-1.8283-0.511-0.5122-1.11-0.9141-1.764-1.1895-0.653-0.2754-1.358-0.425-2.08-0.4355zm10.451 0c-1.933 0-3.5 1.567-3.5 3.5s1.567 3.5 3.5 3.5 3.5-1.567 3.5-3.5-1.567-3.5-3.5-3.5zm-21.037 0.5527c1.6277 0.00016954 2.9471 1.3196 2.9473 2.9473-0.00016953 1.6277-1.3196 2.9471-2.9473 2.9473-1.6284 0.0009094-2.949-1.3188-2.9492-2.9473 0.00016936-1.6284 1.3208-2.9482 2.9492-2.9473zm21.037 0c1.6277 0.00015118 2.9471 1.3196 2.9473 2.9473-0.00016889 1.6277-1.3196 2.9471-2.9473 2.9473-1.6284 0.00090703-2.949-1.3189-2.9492-2.9473 0.00017008-1.6284 1.3208-2.9482 2.9492-2.9473zm-10.538 0.5762v0.0019531c0.064559 0 0.12861 0.00011476 0.19336 0.0019531 0.55356 0.021581 1.0929 0.14706 1.5918 0.36523 0.49889 0.21817 0.95809 0.52991 1.3496 0.92187 0.39111 0.39317 0.69182 0.8441 0.9043 1.3262 0.21248 0.48207 0.3364 0.99469 0.36719 1.5137 0.030788 0.51898-0.0316 1.043-0.18555 1.5469-0.15395 0.50389-0.40046 0.98703-0.74219 1.4238l-6.1562-6.1758c0.382-0.2981 0.81-0.5286 1.262-0.6852 0.453-0.1566 0.93-0.2389 1.415-0.2402zm2.123 1.498c-0.40174-0.002363-0.89807 0.1015-1.2637 0.39648-0.1828 0.14749-0.33334 0.34207-0.42188 0.5957-0.088532 0.25364-0.11529 0.56628-0.052734 0.94727-0.047836 0.026948-0.076172 0.062609-0.080078 0.11328l0.54102 0.53125c0.023836 0 0.043471-0.010908 0.054688-0.041016 0.54232 0.11445 0.9563 0.040278 1.2676-0.14062 0.31128-0.1809 0.52028-0.46784 0.64648-0.77734s0.1711-0.6427 0.1582-0.91406c-0.012894-0.27136-0.083438-0.48235-0.18945-0.54883-0.088248-0.091589-0.34575-0.15828-0.66016-0.16016zm-5.5625 0.19141l6.158 6.178c-0.43786 0.34057-0.9233 0.58592-1.4277 0.73828-0.50444 0.15236-1.0279 0.21224-1.5469 0.17969-0.518-0.033-1.032-0.157-1.513-0.371-0.482-0.215-0.932-0.52-1.324-0.912-0.391-0.394-0.694-0.845-0.906-1.327-0.213-0.482-0.335-0.994-0.366-1.513-0.030958-0.51898 0.027821-1.043 0.18164-1.5469 0.15382-0.50388 0.40241-0.98899 0.74414-1.4258zm2.2109 2.7129c-0.12151 0.06384-0.14969 0.19017-0.13477 0.3457 0.014925 0.15553 0.072299 0.33988 0.125 0.52148 0.052701 0.18161 0.099978 0.35987 0.091797 0.50195s-0.072512 0.24821-0.24023 0.28516c-0.75261-0.005027-1.0927 0.16197-1.2441 0.39258-0.15145 0.23061-0.11279 0.52524-0.10742 0.77539 0.078445-0.3565 0.14745-0.566 0.33203-0.68555s0.48328-0.14976 1.0195-0.14844c0.27457-0.053541 0.51808-0.14504 0.65625-0.36328s0.17126-0.5642 0.027344-1.123zm-9.6172 2.3301-3.1875 0.001953v0.008c-0.5724 0.011-1.119 0.327-1.3884 0.879l-3.8691 7.925c-0.38289 0.78455-0.058027 1.7246 0.72656 2.1074 0.78459 0.3829 1.7226 0.060096 2.1055-0.72461l2.4258-4.9707v17.176c0 0.87303 0.70118 1.5762 1.5742 1.5762 0.87303 0 1.5762-0.70314 1.5762-1.5762v-9.267h0.75977v9.2676c0 0.87303 0.70314 1.5762 1.5762 1.5762 0.87303 0 1.5762-0.70314 1.5762-1.5762v-17.188l2.432 4.982c0.14526 0.29765 0.37197 0.52826 0.63867 0.67969l-1.6797 3.4414c-0.2439 0.49975-0.036883 1.0999 0.46289 1.3438s1.0959 0.036956 1.3398-0.46289l1.5449-3.166v10.941c0 0.55611 0.4478 1.0039 1.0039 1.0039 0.55611 0 1.0039-0.4478 1.0039-1.0039v-5.9043h0.48438v5.9043c0 0.55611 0.4478 1.0039 1.0039 1.0039 0.55611 0 1.0039-0.4478 1.0039-1.0039v-10.949l1.5488 3.1738c0.24389 0.49977 0.84202 0.70677 1.3418 0.46289 0.1731-0.084478 0.29464-0.22013 0.39062-0.37109h1.4551v7.1113c0 0.87303 0.70118 1.5762 1.5742 1.5762 0.87303 0 1.5762-0.70314 1.5762-1.5762v-7.111h0.75977v7.1113c0 0.87303 0.70314 1.5762 1.5762 1.5762 0.87303 0 1.5762-0.70314 1.5762-1.5762v-7.111h2.2207c-1.83-3.819-2.22-6.313-2.22-10.076l2.432 4.982c0.38289 0.78459 1.3228 1.1075 2.1074 0.72461 0.78459-0.3829 1.1075-1.3228 0.72461-2.1074l-3.87-7.925c-0.2705-0.55431-0.8192-0.87338-1.3945-0.88086v-0.007813h-3.875l-3.1875 0.001953v0.007813c-0.5727 0.011339-1.1193 0.32691-1.3887 0.87891l-3.8164 7.8164h-3.5586l-3.8164-7.8164c-0.2705-0.55431-0.81919-0.87338-1.3945-0.88086v-0.007813h-3.1875zm3.8184 0.57617v0.011719c0.37576 0.010167 0.73356 0.21252 0.91211 0.57422l0.82812 1.6777c0.009676 0.01852 0.02635 0.026024 0.035156 0.044922l2.8848 5.8477c-0.31261 0.048159-0.59809 0.22981-0.74805 0.53711l-0.56 1.146c-0.15938-0.099479-0.30296-0.22658-0.39258-0.4082l-0.83008-1.6797c-0.009373-0.01474-0.024586-0.026024-0.033203-0.044922l-2.5703-5.207v19.262c0 0.28959-0.11571 0.55126-0.30469 0.74023-0.18888 0.18822-0.45141 0.30416-0.74023 0.30469-0.28961 0-0.55125-0.11571-0.74023-0.30469-0.189-0.189-0.307-0.451-0.307-0.74v-9.748h-1.8184v9.748c2e-8 0.57921-0.46765 1.0449-1.0469 1.0449-0.57923 0-1.0449-0.46571-1.0449-1.0449v-19.297l-2.5879 5.2422c-0.0086173 0.01852-0.023792 0.029804-0.033203 0.044922l-0.8305 1.678c-0.2564 0.519-0.881 0.731-1.4004 0.474-0.5194-0.256-0.731-0.881-0.4746-1.4l3.0586-6.1973c0.0088063-0.01852 0.025481-0.026024 0.035156-0.044922l0.82812-1.6777c0.19228-0.38967 0.59125-0.60471 0.99805-0.58203zm21.037 0v0.011719c0.37576 0.010167 0.73356 0.21252 0.91211 0.57422l0.82812 1.6777c0.009827 0.01852 0.026463 0.026024 0.035156 0.044922l3.0586 6.1973c0.25638 0.51938 0.044792 1.1441-0.47461 1.4004-0.5194 0.25625-1.144 0.045-1.4004-0.47461l-0.83008-1.6797c-0.009449-0.01474-0.02451-0.026024-0.033203-0.044922l-2.5703-5.207c0.21875 3.9804-0.61363 6.7148 1.8633 11.676l-1.8633-0.015625v7.6016c0 0.28959-0.11571 0.55126-0.30469 0.74023-0.18888 0.18822-0.45141 0.30416-0.74023 0.30469-0.28962 0-0.55125-0.11571-0.74023-0.30469-0.18883-0.18883-0.30664-0.45072-0.30664-0.74023v-7.602h-1.819v7.6016c0 0.57921-0.46765 1.0449-1.0469 1.0449-0.57923 0-1.0449-0.46571-1.0449-1.0449v-7.602h-1.8164c-0.0008287-0.035028-0.011062-0.068416-0.015625-0.10352 2.3413-4.8572 1.5717-7.6113 1.832-11.594l-2.5879 5.2422c-0.00858 0.01852-0.023792 0.029804-0.033203 0.044922l-0.83008 1.6797c-0.08612 0.17453-0.22177 0.29951-0.37305 0.39844l-0.552-1.133c-0.154-0.316-0.451-0.504-0.774-0.545l2.8828-5.8418c0.008806-0.01852 0.025443-0.026024 0.035156-0.044922l0.82812-1.6777c0.19228-0.38963 0.59125-0.60471 0.99805-0.58203zm-13.99 3.121c-1.2306 0.00051726-2.228 0.99795-2.2285 2.2285-0.00056112 1.2313 0.99719 2.23 2.2285 2.2305 1.232 0.001 2.231-0.998 2.231-2.23-0.001-1.232-1-2.229-2.231-2.229zm-0.042969 0.50195c0.96291 0.00084314 1.7433 0.78123 1.7441 1.7441 0.00023439 0.96368-0.78047 1.7452-1.7441 1.7461-0.96444 0.00023424-1.7463-0.78166-1.7461-1.7461 0.00084414-0.96368 0.78242-1.7444 1.7461-1.7441zm7.0273 1.0273c0.052203 2.9859-0.1243 5.4562-1.5684 8.7129l-1.4941-3.0625c0.266-0.151 0.491-0.382 0.637-0.68zm-4.941 4.012h0.32031c0.23344 0.006316 0.24845 0.089745 0.35938 0.31445l0.51562 1.043c0.006011 0.01149 0.016013 0.015627 0.021484 0.027344l1.9004 3.8496c0.15928 0.32267 0.088027 0.61296-0.20703 0.7832-0.25251 0.13836-0.55663 0.00126-0.67383-0.20703-0.67361-1.3906-0.92286-1.9771-1.5703-3.252-0.34261-0.69116-0.98244-0.41945-0.97461 0.22852-0.0006503 1.6349 0.033831 3.4077 0.003906 5.1719-0.033257 1.9606 0.001365 3.8857-0.001953 5.7871 0.011692 0.19781-0.16326 0.46867-0.4707 0.47656-0.30974-0.008136-0.5098-0.26735-0.50977-0.49414 0-2.0995-0.011732-4.3136-0.001953-6.4043l-1.5117-0.003906c0 2.0992 0.013256 4.3281 0 6.4219 0 0.35984-0.30971 0.4827-0.4707 0.48438-0.15941 0.001654-0.51953-0.1304-0.51953-0.49023 0-2.2006-0.003666-4.006 0.003906-5.8867 0.005662-1.4063 0.005457-3.5048 0.005859-5.0547-0.080466-0.74652-0.65066-0.76415-0.97852-0.2207-0.61277 1.2107-0.89386 1.8358-1.5312 3.1484-0.1938 0.38503-0.60245 0.27524-0.72266 0.20508-0.1508-0.092885-0.29404-0.35702-0.13477-0.67969l1.6504-3.3887c0.005472-0.01149 0.24023-0.50977 0.24023-0.50977l0.51-1.025c0.11946-0.24208 0.14571-0.3305 0.64062-0.31641z" fill-rule="evenodd" transform="matrix(.26458 0 0 .26458 0 284.3)" fill="#333"/>
 </g>
</svg>
