<?xml version="1.0" encoding="UTF-8" standalone="no"?>
<!-- Created with Inkscape (http://www.inkscape.org/) -->

<svg
   xmlns:dc="http://purl.org/dc/elements/1.1/"
   xmlns:cc="http://creativecommons.org/ns#"
   xmlns:rdf="http://www.w3.org/1999/02/22-rdf-syntax-ns#"
   xmlns:svg="http://www.w3.org/2000/svg"
   xmlns="http://www.w3.org/2000/svg"
   xmlns:sodipodi="http://sodipodi.sourceforge.net/DTD/sodipodi-0.dtd"
   xmlns:inkscape="http://www.inkscape.org/namespaces/inkscape"
   id="svg8"
   height="48"
   width="48"
   version="1.1"
   viewBox="0 0 12.7 12.7"
   sodipodi:docname="female_and_male_positive.svg"
   inkscape:version="0.92.2 (5c3e80d, 2017-08-06)">
  <defs
     id="defs9" />
  <sodipodi:namedview
     pagecolor="#ffffff"
     bordercolor="#666666"
     borderopacity="1"
     objecttolerance="10"
     gridtolerance="10"
     guidetolerance="10"
     inkscape:pageopacity="0"
     inkscape:pageshadow="2"
     inkscape:window-width="872"
     inkscape:window-height="480"
     id="namedview7"
     showgrid="false"
     inkscape:zoom="4.916666667"
     inkscape:cx="24"
     inkscape:cy="24"
     inkscape:window-x="0"
     inkscape:window-y="0"
     inkscape:window-maximized="0"
     inkscape:current-layer="svg8" />
  <title
     id="title4753">UIO-icon</title>
  <metadata
     id="metadata5">
    <rdf:RDF>
      <cc:Work
         rdf:about="">
        <dc:format>image/svg+xml</dc:format>
        <dc:type
           rdf:resource="http://purl.org/dc/dcmitype/StillImage" />
        <dc:title>UIO-icon</dc:title>
        <dc:creator>
          <cc:Agent>
            <dc:title>Joaquín Urbano</dc:title>
          </cc:Agent>
        </dc:creator>
        <dc:rights>
          <cc:Agent>
            <dc:title>GPL</dc:title>
          </cc:Agent>
        </dc:rights>
      </cc:Work>
    </rdf:RDF>
  </metadata>
  <g
     id="layer1"
     transform="matrix(-1,0,0,1,12.80950569,-284.3)">
    <path
       id="rect4902"
       d="m 13.689,8.0977 a 3.5,3.5 0 0 0 -3.5,3.5003 3.5,3.5 0 0 0 3.5,3.5 3.5,3.5 0 0 0 3.5,-3.5 3.5,3.5 0 0 0 -3.5,-3.5003 z m 21.038,0 c -1.933,0 -3.5,1.567 -3.5,3.5003 0,1.933 1.567,3.5 3.5,3.5 1.933,0 3.5,-1.567 3.5,-3.5 0,-1.9333 -1.567,-3.5003 -3.5,-3.5003 z m -21.385,7.8613 -3.188,0.002 v 0.008 C 9.5816,15.98 9.035,16.296 8.7656,16.848 l -3.8691,7.925 c -0.3829,0.785 -0.058,1.725 0.7265,2.108 0.7846,0.383 1.7226,0.06 2.1055,-0.725 l 2.4255,-4.97 v 5.576 1.185 1.147 9.267 c 0,0.873 0.701,1.577 1.575,1.577 0.873,0 1.576,-0.704 1.576,-1.577 v -9.267 h 0.037 0.687 0.035 v 9.267 c 0,0.873 0.704,1.577 1.577,1.577 0.873,0 1.576,-0.704 1.576,-1.577 v -9.267 -1.147 -1.185 -5.588 l 2.431,4.982 c 0.383,0.785 1.323,1.108 2.108,0.725 0.784,-0.383 1.107,-1.323 0.724,-2.108 l -3.869,-7.925 c -0.27,-0.555 -0.819,-0.874 -1.394,-0.881 v -0.008 h -3.188 z m 21.037,0 -3.188,0.002 v 0.008 c -0.572,0.011 -1.119,0.327 -1.388,0.879 l -3.869,7.925 c -0.383,0.785 -0.058,1.725 0.726,2.108 0.785,0.383 1.723,0.06 2.106,-0.725 l 2.425,-4.97 c 0.06,3.386 -0.171,6.104 -2.216,10.064 h 2.216 v 7.111 c 0,0.873 0.702,1.577 1.575,1.577 0.873,0 1.576,-0.704 1.576,-1.577 V 31.25 h 0.76 v 7.111 c 0,0.873 0.703,1.577 1.576,1.577 0.873,0 1.576,-0.704 1.576,-1.577 V 31.25 h 2.221 C 38.644,27.431 38.254,24.937 38.254,21.174 l 2.432,4.982 c 0.382,0.785 1.322,1.108 2.107,0.725 0.785,-0.383 1.107,-1.323 0.725,-2.108 l -3.87,-7.925 c -0.27,-0.555 -0.819,-0.874 -1.394,-0.881 v -0.008 h -3.188 z"
       transform="matrix(0.26458,0,0,0.26458,0,284.3)"
       inkscape:connector-curvature="0"
       style="fill:#333333;fill-opacity:0.995049989;fill-rule:evenodd" />
  </g>
</svg>
