<?xml version="1.0" encoding="UTF-8" standalone="no"?>
<!-- Created with Inkscape (http://www.inkscape.org/) -->
<svg id="svg8" xmlns:rdf="http://www.w3.org/1999/02/22-rdf-syntax-ns#" xmlns="http://www.w3.org/2000/svg" height="48" viewBox="0 0 12.7 12.7" width="48" version="1.1" xmlns:cc="http://creativecommons.org/ns#" xmlns:dc="http://purl.org/dc/elements/1.1/">
 <title id="title4753">UIO-icon</title>
 <metadata id="metadata5">
  <rdf:RDF>
   <cc:Work rdf:about="">
    <dc:format>image/svg+xml</dc:format>
    <dc:type rdf:resource="http://purl.org/dc/dcmitype/StillImage"/>
    <dc:title>UIO-icon</dc:title>
    <dc:creator>
     <cc:Agent>
      <dc:title>Joaquín Urbano</dc:title>
     </cc:Agent>
    </dc:creator>
    <dc:rights>
     <cc:Agent>
      <dc:title>GPL</dc:title>
     </cc:Agent>
    </dc:rights>
   </cc:Work>
  </rdf:RDF>
 </metadata>
 <path id="rect823" d="m0 0v48h48v-48h-48zm12.637 4c0.604 0.0125 1.265 0.1064 1.978 0.2734 2.553 0.6657 4.112 3.7301 5.219 6.7776 0.147-0.083 0.292-0.166 0.443-0.242-0.002-0.001-0.004-0.002-0.006-0.002 1.58-0.893 3.099-1.0492 5.012-1.2015 0.005 0 0.015-0.0039 0.02-0.0039 0.038 0 0.075 0.0073 0.113 0.0078 0.278 0.0041 0.555 0.0168 0.832 0.0429 5.794 0.4907 10.248 5.3357 10.252 11.151 0 6.184-5.013 11.197-11.197 11.197s-11.198-5.013-11.198-11.197c0.005-3.714 1.848-7.146 4.856-9.213-0.918-2.8446-5.075-7.0498-7.094-3.2755-2.6574 3.8555-0.035 15.56-3.9432 15.288-3.5555-0.004-4.9464-3.907-3.1543-6.454-1.9871 3.224 4.76 8.795 3.7832 1.522-1.6649-10.847-0.1459-14.756 4.0843-14.668v-0.002zm14.07 10.5c-0.398-0.035-0.824 0.71-1.316 2.803-3.194 0.402-4.59 2.067-9.495-0.285-0.486 1.202-0.737 2.487-0.74 3.785 0 5.604 4.542 10.148 10.147 10.148 5.605 0.001 10.149-4.543 10.148-10.148-0.004-0.696-0.079-1.39-0.224-2.071-2.236 0.108-4.929 0.456-7.038-1.429-0.505-1.422-0.97-2.758-1.482-2.803zm-5.166 5.035c0.58 0 1.05 0.469 1.051 1.049 0 0.581-0.47 1.051-1.051 1.051-0.58-0.001-1.049-0.471-1.049-1.051 0.001-0.579 0.47-1.048 1.049-1.049zm7.654 0c0.58 0 1.051 0.469 1.051 1.049 0.001 0.581-0.47 1.051-1.051 1.051-0.579-0.001-1.049-0.471-1.049-1.051 0.001-0.579 0.47-1.048 1.049-1.049zm-7.226 5.647c0.173-0.016 0.363 0.122 0.41 0.461 0.14 1.101 1.433 1.946 2.982 1.947 1.601-0.033 2.883-0.79 3.701-1.947-0.141 1.385-1.756 2.456-3.701 2.457-1.943-0.002-3.557-1.073-3.699-2.457-0.023-0.276 0.134-0.446 0.307-0.461zm-17.969 8.818h40v10h-40v-10zm3.7031 1.33c-0.7751 0-1.3696 0.257-1.7832 0.772-0.4103 0.514-0.6152 1.268-0.6152 2.261v1.311c0.0098 0.954 0.2206 1.686 0.6308 2.197 0.4104 0.511 1.0023 0.768 1.7774 0.768 0.7849 0 1.382-0.26 1.7891-0.782 0.4069-0.521 0.609-1.274 0.609-2.257v-1.309c-0.009-0.954-0.2182-1.685-0.6286-2.193-0.4103-0.512-1.0042-0.768-1.7793-0.768zm21.125 0c-0.775 0-1.369 0.257-1.783 0.772-0.41 0.514-0.617 1.268-0.617 2.261v1.311c0.01 0.954 0.22 1.686 0.631 2.197 0.41 0.511 1.004 0.768 1.779 0.768 0.785 0 1.38-0.26 1.787-0.782 0.407-0.521 0.611-1.274 0.611-2.257v-1.309c-0.009-0.954-0.22-1.685-0.631-2.193-0.41-0.512-1.002-0.768-1.777-0.768zm-4.848 0.088l-2.945 1.055v1.148l1.686-0.521v5.441h1.412v-7.123h-0.153zm-12.291 0.01l-0.41 3.615 1.125 0.279 0.137-0.127c0.208-0.176 0.479-0.265 0.814-0.265 0.365 0 0.648 0.109 0.846 0.324 0.199 0.215 0.299 0.524 0.299 0.928 0 0.42-0.087 0.745-0.26 0.976-0.172 0.228-0.419 0.342-0.738 0.342-0.287 0-0.518-0.081-0.697-0.244-0.176-0.166-0.28-0.398-0.309-0.695h-1.396c0.013 0.404 0.124 0.766 0.336 1.082 0.214 0.315 0.507 0.56 0.875 0.736 0.368 0.173 0.767 0.26 1.197 0.26 0.492 0 0.918-0.1 1.279-0.299 0.362-0.202 0.638-0.482 0.83-0.844 0.196-0.365 0.293-0.777 0.293-1.236 0-0.756-0.192-1.344-0.576-1.764s-0.914-0.631-1.592-0.631c-0.378 0-0.735 0.091-1.07 0.27l0.176-1.53h2.828v-1.177h-3.987zm20.03 0l2.336 4.533v2.58h1.49v-2.58l2.334-4.533h-1.602l-1.48 3.205-1.471-3.205h-1.607zm-24.016 1.045c0.342 0 0.5943 0.136 0.7539 0.406 0.1629 0.267 0.2442 0.696 0.2442 1.285v1.69c-0.0065 0.556-0.0872 0.969-0.2403 1.24-0.153 0.27-0.4028 0.406-0.748 0.406-0.3485 0-0.6021-0.14-0.7617-0.42-0.1564-0.283-0.2344-0.715-0.2344-1.295v-1.728c0.0098-0.544 0.0937-0.944 0.25-1.198 0.1596-0.257 0.4041-0.386 0.7363-0.386zm21.125 0c0.342 0 0.592 0.136 0.752 0.406 0.163 0.267 0.244 0.696 0.244 1.285v1.69c-0.006 0.556-0.087 0.969-0.24 1.24-0.153 0.27-0.401 0.406-0.746 0.406-0.349 0-0.604-0.14-0.764-0.42-0.156-0.283-0.234-0.715-0.234-1.295v-1.728c0.01-0.544 0.094-0.944 0.25-1.198 0.159-0.257 0.406-0.386 0.738-0.386zm11.352 0.685c-0.629 0-1.139 0.157-1.53 0.473-0.387 0.313-0.58 0.703-0.58 1.172 0 0.804 0.628 1.339 1.885 1.603 0.378 0.078 0.651 0.167 0.82 0.268 0.173 0.098 0.26 0.233 0.26 0.406 0 0.166-0.071 0.302-0.211 0.406-0.137 0.101-0.339 0.151-0.609 0.151-0.29 0-0.521-0.067-0.694-0.199-0.172-0.134-0.266-0.328-0.279-0.579h-1.338c0 0.32 0.098 0.618 0.293 0.895 0.196 0.273 0.465 0.491 0.807 0.65 0.345 0.157 0.739 0.235 1.182 0.235 0.654 0 1.187-0.149 1.601-0.446 0.414-0.299 0.621-0.691 0.621-1.173 0-0.674-0.373-1.147-1.119-1.42-0.241-0.088-0.537-0.166-0.889-0.235-0.351-0.071-0.602-0.153-0.752-0.248-0.146-0.098-0.22-0.226-0.22-0.383 0-0.166 0.065-0.302 0.195-0.41 0.13-0.107 0.315-0.16 0.553-0.16 0.277 0 0.479 0.066 0.609 0.199 0.13 0.131 0.197 0.296 0.197 0.498h1.411c0-0.504-0.202-0.914-0.606-1.23-0.4-0.316-0.936-0.473-1.607-0.473zm-23.311 1.768v1.138h2.75v-1.138h-2.75z" fill-rule="evenodd" transform="scale(.26458)" fill="#333"/>
</svg>
