<?xml version="1.0" encoding="UTF-8" standalone="no"?>
<!-- Created with Inkscape (http://www.inkscape.org/) -->
<svg id="svg8" xmlns:rdf="http://www.w3.org/1999/02/22-rdf-syntax-ns#" xmlns="http://www.w3.org/2000/svg" xmlns:osb="http://www.openswatchbook.org/uri/2009/osb" height="48" width="48" version="1.1" xmlns:cc="http://creativecommons.org/ns#" viewBox="0 0 12.7 12.7" xmlns:dc="http://purl.org/dc/elements/1.1/">
 <title id="title4753">UIO-icon</title>
 <metadata id="metadata5">
  <rdf:RDF>
   <cc:Work rdf:about="">
    <dc:format>image/svg+xml</dc:format>
    <dc:type rdf:resource="http://purl.org/dc/dcmitype/StillImage"/>
    <dc:title>UIO-icon</dc:title>
    <dc:creator>
     <cc:Agent>
      <dc:title>Joaquín Urbano</dc:title>
     </cc:Agent>
    </dc:creator>
    <dc:rights>
     <cc:Agent>
      <dc:title>GPL</dc:title>
     </cc:Agent>
    </dc:rights>
   </cc:Work>
  </rdf:RDF>
 </metadata>
 <g id="layer1" transform="translate(0,-284.3)" fill="#333">
  <path id="rect900" d="m7.9414 4.3633c-0.4529 0-0.8184 0.3654-0.8184 0.8183 0 0.453 0.3655 0.8184 0.8184 0.8184h15.424v32.043c-0.7 0.319-1.149 1.018-1.15 1.787 0 1.086 0.88 1.967 1.967 1.967 0.913-0.002 1.705-0.632 1.912-1.522 1.956 0.313 2.365 0.575 3.32 2.639 0.155 0.255 0.379 0.437 0.762 0.252 1.665-1.11 1.568-0.458 2.982 0.834h0.656c-1.615-1.518-1.911-2.495-3.371-1.592-0.621 0.383-0.578 0.274-0.705 0.014-0.902-1.855-1.547-2.237-3.593-2.662-0.027-0.743-0.47-1.407-1.145-1.717v-32.043h15.424c0.453 0 0.818-0.3654 0.818-0.8184 0-0.4529-0.365-0.8183-0.818-0.8183h-15.424-1.635-15.424zm16.25 34.733a0.7513 0.7513 0 0 1 0.715 0.527h-0.49c-0.142 0-0.258 0.114-0.258 0.256s0.116 0.258 0.258 0.258h0.467a0.7513 0.7513 0 0 1 -0.692 0.461 0.7513 0.7513 0 0 1 -0.752 -0.752 0.7513 0.7513 0 0 1 0.752 -0.75z" fill-rule="evenodd" transform="matrix(.26458 0 0 .26458 0 284.3)"/>
 </g>
</svg>
