<?xml version="1.0" encoding="UTF-8" standalone="no"?>
<!-- Created with Inkscape (http://www.inkscape.org/) -->
<svg id="svg8" xmlns:rdf="http://www.w3.org/1999/02/22-rdf-syntax-ns#" xmlns="http://www.w3.org/2000/svg" xmlns:osb="http://www.openswatchbook.org/uri/2009/osb" height="48" width="48" version="1.1" xmlns:cc="http://creativecommons.org/ns#" viewBox="0 0 12.7 12.7" xmlns:dc="http://purl.org/dc/elements/1.1/">
 <title id="title4753">UIO-icon</title>
 <metadata id="metadata5">
  <rdf:RDF>
   <cc:Work rdf:about="">
    <dc:format>image/svg+xml</dc:format>
    <dc:type rdf:resource="http://purl.org/dc/dcmitype/StillImage"/>
    <dc:title>UIO-icon</dc:title>
    <dc:creator>
     <cc:Agent>
      <dc:title>Joaquín Urbano</dc:title>
     </cc:Agent>
    </dc:creator>
    <dc:rights>
     <cc:Agent>
      <dc:title>GPL</dc:title>
     </cc:Agent>
    </dc:rights>
   </cc:Work>
  </rdf:RDF>
 </metadata>
 <g id="layer1" transform="translate(0,-284.3)">
  <path id="rect4002" d="m0.13281 0c-0.073448 0-0.13281 0.059362-0.13281 0.13281v47.734c-1.8504e-17 0.074 0.059362 0.133 0.13281 0.133h47.734c0.074 0 0.133-0.059 0.133-0.133v-47.734c0-0.073638-0.059-0.133-0.133-0.133h-47.734zm10.183 4h27.368c0.55 0 0.992 0.4422 0.992 0.9922v38.026c0 0.55-0.442 0.992-0.992 0.992h-27.368c-0.5496 0-0.9918-0.442-0.9918-0.992v-38.026c0-0.5498 0.4422-0.992 0.9918-0.992zm0.649 0.7344c-0.87 0-1.0002-0.001-1.0002 1.1308v36.28c0 0.846-0.0106 1.193 0.9762 1.195l26.125 0.039c1.051 0.001 0.969-0.403 0.969-1.234v-36.28c0-0.8812-0.127-1.1125-1.014-1.113l-26.056-0.0176zm9.824 3.584h6.652c2.076 0 3.786 1.5045 4.108 3.4866-0.004-0.076 0.009-0.154 0.047-0.225 0.071-0.136 0.205-0.218 0.351-0.23 0.088-0.008 0.179 0.009 0.264 0.054l5.381 2.836c0.226 0.12 0.315 0.39 0.201 0.608-0.115 0.217-0.389 0.297-0.615 0.177l-5.381-2.837c-0.124-0.066-0.205-0.177-0.236-0.299 0.027 0.193 0.043 0.39 0.043 0.591v23.928c0 2.306-1.856 4.162-4.163 4.162h-6.652c-2.306 0-4.162-1.856-4.162-4.162v-23.928c0-2.306 1.856-4.1616 4.162-4.1616zm0.746 1.6093c-2.306 0-4.162 1.8563-4.162 4.1623v20.709c0 2.306 0.177 5.002 4.162 5.002h5.158c4.008 0 4.162-2.674 4.162-5.002v-20.709c0-2.306-1.855-4.1623-4.162-4.1623h-5.158zm-5.463 1.4203c0.022-0.002 0.045 0 0.067 0.002 0.145 0.013 0.28 0.095 0.351 0.23 0.115 0.217 0.024 0.488-0.203 0.608l-5.379 2.837c-0.226 0.12-0.501 0.04-0.615-0.177-0.115-0.217-0.025-0.489 0.201-0.608l5.381-2.836c0.064-0.035 0.131-0.051 0.197-0.054v-0.002zm-0.138 2.283h0.002c0.022-0.001 0.042 0 0.064 0.002 0.146 0.013 0.28 0.092 0.352 0.228 0.114 0.217 0.025 0.489-0.202 0.608l-5.38 2.838c-0.227 0.119-0.501 0.041-0.616-0.176-0.114-0.217-0.023-0.49 0.203-0.61l5.379-2.835c0.064-0.035 0.131-0.052 0.198-0.055zm16.15 0c0.022-0.002 0.044-0.001 0.066 0 0.067 0.003 0.136 0.019 0.2 0.055l5.379 2.837c0.226 0.12 0.317 0.39 0.203 0.608-0.115 0.217-0.391 0.295-0.618 0.176l-5.378-2.836c-0.227-0.12-0.318-0.393-0.204-0.61 0.072-0.136 0.206-0.218 0.352-0.23zm-8.223 0.246c1.51 0 2.735 1.225 2.735 2.734 0 1.51-1.225 2.733-2.735 2.733-1.509 0-2.732-1.223-2.732-2.733 0-1.509 1.223-2.734 2.732-2.734zm-7.927 2.035h0.002c0.022-0.001 0.042 0 0.064 0.002 0.146 0.013 0.28 0.093 0.352 0.229 0.114 0.217 0.025 0.49-0.202 0.609l-5.38 2.836c-0.227 0.119-0.501 0.041-0.616-0.176-0.114-0.217-0.023-0.488 0.203-0.607l5.379-2.838c0.064-0.035 0.131-0.052 0.198-0.055zm16.216 0c0.067 0.003 0.136 0.019 0.2 0.055l5.379 2.838c0.226 0.119 0.317 0.39 0.203 0.607-0.115 0.217-0.391 0.295-0.618 0.176l-5.378-2.836c-0.227-0.12-0.318-0.39-0.204-0.607 0.072-0.136 0.206-0.219 0.352-0.231 0.022-0.002 0.044-0.003 0.066-0.002zm-16.216 2.281h0.002c0.022-0.001 0.042 0 0.064 0.002 0.146 0.013 0.28 0.095 0.352 0.231 0.114 0.217 0.025 0.488-0.202 0.607l-5.38 2.836c-0.227 0.119-0.501 0.042-0.616-0.176-0.114-0.217-0.023-0.488 0.203-0.607l5.379-2.838c0.064-0.035 0.131-0.051 0.198-0.055zm16.216 0c0.067 0.004 0.136 0.021 0.2 0.057l5.379 2.836c0.226 0.119 0.317 0.39 0.203 0.607-0.115 0.217-0.391 0.295-0.618 0.176l-5.378-2.836c-0.227-0.119-0.318-0.39-0.204-0.607 0.072-0.136 0.206-0.219 0.352-0.231 0.022-0.002 0.044-0.003 0.066-0.002zm-16.216 2.284h0.002c0.022-0.002 0.042-0.003 0.064 0 0.146 0.013 0.28 0.094 0.352 0.23 0.114 0.217 0.025 0.488-0.202 0.607l-5.38 2.838c-0.227 0.12-0.501 0.04-0.616-0.177-0.114-0.218-0.023-0.489 0.203-0.608l5.379-2.836c0.064-0.035 0.131-0.051 0.198-0.054zm16.15 0c0.022-0.002 0.044-0.001 0.066 0 0.067 0.003 0.136 0.018 0.2 0.054l5.379 2.836c0.226 0.12 0.317 0.39 0.203 0.608-0.115 0.217-0.391 0.297-0.618 0.177l-5.378-2.838c-0.227-0.119-0.318-0.39-0.204-0.607 0.072-0.136 0.206-0.219 0.352-0.23zm-16.15 2.281h0.002c0.022-0.001 0.042-0.002 0.064 0 0.146 0.013 0.28 0.095 0.352 0.23 0.114 0.217 0.025 0.488-0.202 0.608l-5.38 2.838c-0.227 0.119-0.501 0.041-0.616-0.176-0.114-0.218-0.023-0.49 0.203-0.61l5.379-2.836c0.064-0.034 0.131-0.051 0.198-0.054zm16.216 0c0.067 0.003 0.136 0.019 0.2 0.054l5.379 2.838c0.226 0.12 0.317 0.39 0.203 0.608-0.115 0.217-0.389 0.295-0.616 0.176l-5.38-2.836c-0.227-0.12-0.318-0.392-0.204-0.61 0.072-0.135 0.206-0.216 0.352-0.228 0.022-0.002 0.044-0.003 0.066-0.002zm-16.216 2.281h0.002c0.022-0.001 0.042 0 0.064 0.002 0.146 0.013 0.28 0.095 0.352 0.23 0.114 0.218 0.025 0.489-0.202 0.608l-5.38 2.836c-0.227 0.119-0.501 0.041-0.616-0.176-0.114-0.217-0.023-0.488 0.203-0.607l5.379-2.838c0.064-0.035 0.131-0.052 0.198-0.055zm16.216 0c0.067 0.003 0.136 0.019 0.2 0.055l5.379 2.838c0.226 0.119 0.317 0.39 0.203 0.607-0.115 0.217-0.389 0.295-0.616 0.176l-5.38-2.836c-0.227-0.12-0.318-0.39-0.204-0.608 0.072-0.135 0.206-0.218 0.352-0.23 0.022-0.002 0.044-0.003 0.066-0.002zm-16.214 2.281c0.022-0.001 0.042 0 0.064 0.002 0.146 0.014 0.28 0.095 0.352 0.231 0.114 0.217 0.025 0.488-0.202 0.607l-5.38 2.838c-0.227 0.119-0.501 0.039-0.616-0.178-0.114-0.217-0.023-0.488 0.203-0.607l5.379-2.836c0.064-0.035 0.131-0.051 0.198-0.055l0.002-0.002zm16.148 0.002c0.022-0.001 0.044-0.001 0.066 0 0.067 0.003 0.136 0.019 0.2 0.055l5.379 2.836c0.226 0.119 0.317 0.39 0.203 0.607-0.115 0.217-0.391 0.297-0.618 0.178l-5.378-2.838c-0.227-0.119-0.318-0.39-0.204-0.607 0.072-0.136 0.206-0.219 0.352-0.231zm-16.15 2.282h0.002c0.022-0.001 0.042-0.003 0.064 0 0.146 0.013 0.28 0.094 0.352 0.23 0.114 0.217 0.025 0.488-0.202 0.607l-5.38 2.838c-0.227 0.12-0.501 0.04-0.616-0.177-0.114-0.217-0.023-0.489 0.203-0.608l5.379-2.836c0.064-0.035 0.131-0.051 0.198-0.054zm16.15 0c0.022-0.003 0.044-0.002 0.066 0 0.067 0.003 0.136 0.018 0.2 0.054l5.379 2.838c0.226 0.12 0.317 0.391 0.203 0.608-0.115 0.216-0.391 0.295-0.618 0.175l-5.378-2.836c-0.227-0.119-0.318-0.392-0.204-0.609 0.072-0.136 0.206-0.219 0.352-0.23zm-16.15 2.281h0.002c0.022-0.002 0.042 0 0.064 0.002 0.146 0.013 0.28 0.094 0.352 0.23 0.114 0.218 0.025 0.488-0.202 0.608l-5.38 2.836c-0.227 0.119-0.501 0.041-0.616-0.176-0.114-0.217-0.023-0.488 0.203-0.608l5.379-2.838c0.064-0.035 0.131-0.051 0.198-0.054zm16.216 0c0.067 0.003 0.136 0.019 0.2 0.054l5.379 2.838c0.226 0.12 0.317 0.39 0.203 0.608-0.115 0.217-0.391 0.295-0.618 0.176l-5.378-2.836c-0.227-0.12-0.318-0.391-0.204-0.608 0.072-0.136 0.206-0.218 0.352-0.23 0.022-0.002 0.044-0.003 0.066-0.002z" fill-rule="evenodd" transform="matrix(.26458 0 0 .26458 0 284.3)" fill="#333"/>
 </g>
</svg>
