<?xml version="1.0" encoding="UTF-8" standalone="no"?>
<!-- Created with Inkscape (http://www.inkscape.org/) -->
<svg id="svg8" xmlns:rdf="http://www.w3.org/1999/02/22-rdf-syntax-ns#" xmlns="http://www.w3.org/2000/svg" xmlns:osb="http://www.openswatchbook.org/uri/2009/osb" height="48" width="48" version="1.1" xmlns:cc="http://creativecommons.org/ns#" viewBox="0 0 12.7 12.7" xmlns:dc="http://purl.org/dc/elements/1.1/">
 <title id="title4753">UIO-icon</title>
 <metadata id="metadata5">
  <rdf:RDF>
   <cc:Work rdf:about="">
    <dc:format>image/svg+xml</dc:format>
    <dc:type rdf:resource="http://purl.org/dc/dcmitype/StillImage"/>
    <dc:title>UIO-icon</dc:title>
    <dc:creator>
     <cc:Agent>
      <dc:title>Joaquín Urbano</dc:title>
     </cc:Agent>
    </dc:creator>
    <dc:rights>
     <cc:Agent>
      <dc:title>GPL</dc:title>
     </cc:Agent>
    </dc:rights>
   </cc:Work>
  </rdf:RDF>
 </metadata>
 <g id="layer1" transform="translate(0,-284.3)" fill="#333">
  <path id="path48057-4-5" d="m6.084 4v0.0019531c-0.044985-0.000047244-0.090517 0.017022-0.125 0.052734-0.068906 0.069453-0.069278 0.18186 0 0.25195l1.8438 1.8867-0.0039063 1.3008c-0.00020356 0.047528 0.020481 0.093278 0.052734 0.12695l0.9375 0.96094v0.31055c-0.9164 0.1614-2.8061 0.4985-3.8477 0.7148-0.36498 0.07573-0.6266 0.13854-0.70508 0.17188-0.38166 0.16229-0.35465 0.95004 0.48047 1.0723 0.6013 0.087965 1.2238 0.28138 1.7891 0.25195h0.0019531c0.020078 0.013266 0.040686 0.027119 0.060547 0.039062l0.027344-0.042969h0.0019531l-0.0293 0.043-1.8457 2.748c-0.054615 0.081464-0.033502 0.19233 0.046875 0.24805 0.030109 0.019994 0.063678 0.031023 0.097656 0.03125 0.056481 0.00021467 0.11056-0.027162 0.14453-0.078125l1.8652-2.7773h0.0019531l0.2382-0.356c0.0067298-0.002681 0.013124-0.00457 0.017578-0.009766 0.18189-0.091389 0.41643-0.21588 0.66211-0.34961l-0.0039063 0.73242-0.0019531 0.34766c0.00071069 0.00022602 0.0031943-0.00022602 0.0039063 0l-0.0078125 1.4668-0.24805 0.59375-1.2441 2.9531c-0.038112 0.090743 0.0025238 0.19583 0.091797 0.23438 0.022583 0.008844 0.04541 0.015852 0.068359 0.015625 0.068408 0.00026229 0.13347-0.041321 0.16211-0.10938l1.0351-2.46v-0.001953l0.4727-1.119c0.0087987-0.022564 0.013588-0.046528 0.015625-0.070312l0.0039063-1.416 0.0039063-1.2422c0.031654-0.058273 0.063742-0.11676 0.097656-0.17383 0.19187-0.10634 0.37799-0.20989 0.53906-0.30078l-0.0058594 1.8145-0.0058594 1.2031c-0.0018441 0.2946 0.23712 0.536 0.52734 0.53711 0.29025 0.001279 0.52633-0.23862 0.52734-0.5332l0.0058594-1.2188 0.0058594-1.7988c0.16963 0.097005 0.36554 0.2099 0.56836 0.32422 0.022834 0.036737 0.04319 0.073934 0.064453 0.11133l-0.003906 1.25-0.003906 1.4531c-0.00005304 0.023887 0.004473 0.046362 0.013672 0.068359l0.521 1.263v0.001953l0.96094 2.3262c0.028066 0.068319 0.091748 0.10908 0.16016 0.10938 0.022952 0.00010356 0.04617-0.003921 0.068359-0.013672 0.089663-0.038003 0.1332-0.14347 0.095703-0.23438l-1.16-2.806c0.00010624-0.000737-0.00010109-0.002553 0-0.003906l-0.309-0.748 0.005859-1.5156h-0.001953l0.001953-0.41406 0.001953-0.61523c0.24477 0.1355 0.47693 0.26068 0.6582 0.35352 0.006777 0.002558 0.010779 0.002748 0.017578 0.007813l0.19727 0.29688 1.8867 2.8535c0.033755 0.050963 0.090008 0.077989 0.14648 0.078125 0.033758 0.00009675 0.06724-0.009039 0.097656-0.029297 0.080506-0.054962 0.10094-0.16624 0.046875-0.24805l-1.854-2.806c0.58806 0.061606 1.247-0.14654 1.8809-0.23438 0.836-0.116 0.869-0.9034 0.489-1.0685-0.088-0.0381-0.407-0.1127-0.844-0.2051h-0.001953c-1.062-0.2245-2.828-0.5518-3.7032-0.7129l0.0039063-0.24219v-0.072265l0.94531-0.95312c0.033003-0.033373 0.050528-0.077601 0.050781-0.125l0.005859-1.3027 1.8555-1.8711c0.068906-0.069453 0.069499-0.18378 0-0.25391-0.068581-0.070023-0.17906-0.069933-0.24805 0l-1.908 1.9238c-0.033228 0.033373-0.05248 0.077601-0.052734 0.125l-0.003906 1.3027-0.64453 0.64844 0.0019531-0.50977c0.0002-0.2401-0.1575-0.4415-0.3729-0.5097l-0.1133-1.2754c-0.01992-0.21336-0.049955-0.21322-0.070312 0l-0.1211 1.2735c-0.2158 0.0665-0.3761 0.2676-0.3769 0.5078l-0.0019531 0.51172-0.64062-0.65625 0.0039063-1.3008c0.0001559-0.047528-0.018522-0.093274-0.050781-0.12695l-1.8945-1.9375c-0.0343-0.0349-0.08-0.0526-0.125-0.0527zm29.375 0v0.0019531c-0.044985-0.000047244-0.088564 0.017022-0.12305 0.052734-0.068906 0.069453-0.069278 0.18186 0 0.25195l1.8438 1.8867-0.003906 1.3008c-0.00020356 0.047528 0.018527 0.093278 0.050781 0.12695l0.93945 0.96094v0.31055c-0.91632 0.16147-2.806 0.49856-3.8477 0.71484-0.36498 0.07573-0.6266 0.13854-0.70508 0.17188-0.38166 0.16229-0.35465 0.95004 0.48047 1.0723 0.6013 0.087965 1.2238 0.28138 1.7891 0.25195h0.001953c0.020078 0.013266 0.038732 0.027119 0.058594 0.039062l0.027344-0.042969c0.0007735-0.00004574 0.003158 0.00007105 0.003906 0l-0.03125 0.042969-1.8438 2.748c-0.054615 0.081464-0.035455 0.19233 0.044922 0.24805 0.030109 0.019994 0.065631 0.031023 0.099609 0.03125 0.056481 0.00021467 0.11056-0.027162 0.14453-0.078125l1.8652-2.7773 0.23828-0.35547c0.00673-0.002681 0.015077-0.00457 0.019531-0.009766 0.18189-0.091389 0.41448-0.21588 0.66016-0.34961l-0.001953 0.73242-0.001953 0.34766h0.001953l-0.005859 1.4668-0.25 0.59375-1.2441 2.9531c-0.038112 0.090743 0.004477 0.19583 0.09375 0.23438 0.022583 0.008844 0.04541 0.015852 0.068359 0.015625 0.068408 0.00026229 0.13347-0.041321 0.16211-0.10938l1.035-2.46v-0.001953l0.47266-1.1191c0.008799-0.022564 0.013588-0.046528 0.015625-0.070312l0.003906-1.416h-0.001953l0.003906-1.2422c0.031654-0.058273 0.065695-0.11676 0.099609-0.17383 0.19187-0.10634 0.37604-0.20989 0.53711-0.30078l-0.005859 1.8145-0.005859 1.2031c-0.001844 0.2946 0.23712 0.536 0.52734 0.53711 0.29025 0.001279 0.52828-0.23862 0.5293-0.5332l0.005859-1.2188 0.005859-1.7988c0.16963 0.097005 0.36554 0.2099 0.56836 0.32422 0.022832 0.036737 0.043191 0.073934 0.064453 0.11133l-0.003906 1.25-0.003906 1.4531c-0.00005303 0.023887 0.004473 0.046362 0.013672 0.068359l0.52148 1.2637v0.001953l0.95898 2.3262c0.028067 0.068319 0.093702 0.10908 0.16211 0.10938 0.022953 0.00010356 0.04617-0.003921 0.068359-0.013672 0.089663-0.038003 0.1332-0.14347 0.095703-0.23438l-1.1602-2.8066c0.00010625-0.000737-0.00010106-0.002553 0-0.003906l-0.31-0.748 0.005859-1.5156h-0.001953l0.001953-0.41406 0.001953-0.61523c0.24477 0.1355 0.47498 0.26068 0.65625 0.35352 0.006777 0.002558 0.012732 0.002748 0.019531 0.007813l0.19531 0.29688 0.001953-0.001953 1.8867 2.8555c0.033755 0.050963 0.088055 0.077989 0.14453 0.078125 0.033759 0.00009675 0.069192-0.009039 0.099609-0.029297 0.080506-0.054962 0.10094-0.16624 0.046875-0.24805l-1.856-2.806c0.58806 0.061606 1.249-0.14654 1.8828-0.23438 0.836-0.116 0.867-0.9034 0.487-1.0685-0.088-0.0381-0.405-0.1127-0.842-0.2051h-0.002c-1.062-0.2245-2.828-0.5518-3.703-0.7129l0.001953-0.24219v-0.072265l0.94531-0.95312c0.033003-0.033373 0.052482-0.077601 0.052734-0.125l0.005859-1.3027 1.8555-1.8711c0.068906-0.069453 0.069499-0.18378 0-0.25391-0.068581-0.070023-0.17906-0.069933-0.24805 0l-1.908 1.9238c-0.03323 0.033373-0.05248 0.077601-0.052734 0.125l-0.003906 1.3027-0.64453 0.64844 0.001953-0.50977c0.000087-0.24019-0.15766-0.4416-0.37305-0.50977l-0.114-1.2753c-0.019922-0.21336-0.049955-0.21322-0.070312 0l-0.12305 1.2734c-0.21586 0.066512-0.37417 0.26757-0.375 0.50781l-0.001953 0.51172-0.64062-0.65625 0.003906-1.3008c0.0001559-0.047528-0.018522-0.093274-0.050781-0.12695l-1.8965-1.9375c-0.034-0.0349-0.08-0.0526-0.125-0.0527zm-18.258 6.3711v0.004c-0.094627-0.00009978-0.18918 0.034291-0.26172 0.10938-0.14495 0.1461-0.14573 0.3838 0 0.53125l3.8789 3.9668-0.007813 2.7402c-0.00042821 0.09998 0.039574 0.19479 0.10742 0.26562l1.9746 2.0195v0.65625c-1.9275 0.33966-5.9026 1.0489-8.0938 1.5039-0.76776 0.1593-1.3193 0.28729-1.4844 0.35742-0.80285 0.34139-0.745 2.0007 1.0117 2.2578 1.2649 0.18503 2.5766 0.59315 3.7656 0.53125h0.001953c0.042235 0.027855 0.083221 0.054914 0.125 0.080078l0.058594-0.089844c0.001627-0.000096 0.002332 0.00015005 0.003906 0l-0.0625 0.089844-3.8809 5.7793c-0.11489 0.17136-0.071421 0.40624 0.097656 0.52344 0.063335 0.042078 0.1336 0.06596 0.20508 0.066406 0.11881 0.00045278 0.23518-0.056928 0.30664-0.16406l3.9238-5.8418h0.001953l0.50195-0.75c0.014157-0.005631 0.02774-0.008571 0.037109-0.019531 0.38261-0.19224 0.87383-0.45307 1.3906-0.73438l-0.003906 1.5391-0.003906 0.73047c0.001495 0.00047546 0.002408 0.001478 0.003906 0.001953l-0.013672 3.0859-0.52539 1.2461-2.6152 6.2148c-0.080171 0.19089 0.007523 0.4111 0.19531 0.49219 0.047504 0.018633 0.096256 0.033619 0.14453 0.033203 0.1439 0.00055219 0.2796-0.085358 0.33984-0.22852l2.1777-5.1758v-0.003906l0.99219-2.3535c0.018508-0.047441 0.028918-0.096451 0.033203-0.14648l0.009766-2.9785h-0.001953l0.007813-2.6133c0.066586-0.12257 0.13569-0.24517 0.20703-0.36523 0.40362-0.22368 0.79399-0.44162 1.1328-0.63281l-0.011719 3.8145-0.013672 2.5293c-0.003879 0.61971 0.49887 1.1285 1.1094 1.1309 0.61056 0.002691 1.1092-0.50142 1.1113-1.1211l0.013672-2.5625 0.011719-3.7812c0.35682 0.20406 0.76867 0.43724 1.1953 0.67773 0.048031 0.077261 0.091992 0.15572 0.13672 0.23438l-0.009766 2.6309-0.007813 3.0566c-0.00011157 0.050264 0.007993 0.1002 0.027344 0.14648l1.0977 2.6562c-0.00039947 0.001526 0.00038756 0.001041 0 0.003906l2.018 4.894c0.059039 0.14371 0.19594 0.22791 0.33984 0.22852 0.048281 0.0002177 0.097855-0.008812 0.14453-0.029297 0.18861-0.079937 0.2781-0.29902 0.19922-0.49023l-2.4375-5.9082c0.00022348-0.001551-0.00021263-0.001041 0-0.003906l-0.65039-1.5762 0.009766-3.1875h-0.001953l0.003906-0.87305 0.001953-1.2949c0.51489 0.28504 1.0035 0.54885 1.3848 0.74414 0.014256 0.005367 0.024761 0.008797 0.039062 0.019531l0.41211 0.62305 0.001953-0.001953 3.9707 6.0039c0.071006 0.10721 0.18589 0.16573 0.30469 0.16602 0.07101 0.00020372 0.14305-0.021801 0.20703-0.064453 0.16935-0.11562 0.21334-0.34941 0.099609-0.52148l-3.9023-5.9023c1.237 0.12959 2.6237-0.30742 3.957-0.49219 1.7585-0.24401 1.8279-1.8988 1.0273-2.2461-0.18482-0.080107-0.85444-0.24118-1.7734-0.43555l-0.003906 0.003906c-2.2339-0.4722-5.947-1.165-7.7891-1.5039l0.005859-0.50781v-0.15234l1.9883-2.0039c0.069424-0.070163 0.10884-0.16398 0.10938-0.26367l0.013-2.74 3.904-3.938c0.14495-0.1461 0.14619-0.38375 0-0.53125-0.14426-0.1473-0.37831-0.14711-0.52344 0l-4.0137 4.0449c-0.069896 0.070171-0.11079 0.16593-0.11133 0.26562l-0.005859 2.7402-1.3574 1.3633 0.003906-1.0742c0.00018302-0.50526-0.33208-0.92889-0.78516-1.0723l-0.237-2.682c-0.041903-0.44881-0.10757-0.44851-0.15039 0l-0.25586 2.6777c-0.45407 0.13991-0.78927 0.56496-0.79102 1.0703l-0.003906 1.0742-1.3477-1.377 0.007813-2.7402c0.00032795-0.09998-0.03761-0.19479-0.10547-0.26562l-3.9883-4.0762c-0.072132-0.073519-0.16709-0.10914-0.26172-0.10938zm-11.117 20.666v0.001953c-0.044985-0.00004724-0.090517 0.017022-0.125 0.052734-0.068906 0.069453-0.069278 0.18186 0 0.25195l1.8438 1.8848-0.0039063 1.3027c-0.00020356 0.047528 0.020481 0.093278 0.052734 0.12695l0.9375 0.96094v0.31055c-0.91632 0.16147-2.806 0.49856-3.8477 0.71484-0.36498 0.07573-0.6266 0.13658-0.70508 0.16992-0.38166 0.16229-0.35465 0.95199 0.48047 1.0742 0.6013 0.087965 1.2238 0.28138 1.7891 0.25195h0.0019531c0.020078 0.013266 0.040686 0.027119 0.060547 0.039062l0.027344-0.042969h0.0019531l-0.029297 0.042969-1.8457 2.7461c-0.054615 0.081464-0.033502 0.19429 0.046875 0.25 0.030109 0.019994 0.063678 0.031023 0.097656 0.03125 0.056481 0.00021468 0.11056-0.027162 0.14453-0.078125l1.8652-2.778h0.0019531l0.2382-0.358c0.0067298-0.002681 0.013124-0.002617 0.017578-0.007813 0.18189-0.091389 0.41643-0.21588 0.66211-0.34961l-0.0039063 0.73242-0.0019531 0.34766c0.00071069 0.00022601 0.0031943-0.00022602 0.0039063 0l-0.0078125 1.4668-0.24805 0.5918-1.2441 2.9551c-0.038112 0.090743 0.0025238 0.19583 0.091797 0.23438 0.022583 0.008844 0.04541 0.015852 0.068359 0.015625 0.068408 0.0002623 0.13347-0.041321 0.16211-0.10938l1.0351-2.462 0.4727-1.119c0.0087987-0.022564 0.013588-0.046528 0.015625-0.070312l0.0039-1.416 0.0039-1.243c0.031654-0.058273 0.063742-0.11676 0.097656-0.17383 0.19187-0.10634 0.37799-0.20989 0.53906-0.30078l-0.0058594 1.8145-0.0058594 1.2012c-0.0018441 0.2946 0.23712 0.536 0.52734 0.53711 0.29025 0.001279 0.52633-0.23667 0.52734-0.53125l0.0058594-1.2188 0.0058594-1.7988c0.16963 0.097005 0.36554 0.20794 0.56836 0.32227 0.022832 0.036737 0.043191 0.073934 0.064453 0.11133l-0.003906 1.252-0.003906 1.4531c-0.00005303 0.023887 0.004473 0.046362 0.013672 0.068359l0.521 1.264v0.001953l0.96094 2.3262c0.028067 0.068319 0.091749 0.10908 0.16016 0.10938 0.022953 0.00010356 0.04617-0.003921 0.068359-0.013672 0.089663-0.038003 0.1332-0.14347 0.095703-0.23438l-1.16-2.808v-0.001953l-0.30859-0.74805 0.005859-1.5156h-0.001953l0.001953-0.41406 0.001953-0.61719c0.24477 0.1355 0.47693 0.26263 0.6582 0.35547 0.006777 0.002558 0.010779 0.002748 0.017578 0.007813l0.19727 0.29688 1.8867 2.8516c0.033755 0.050963 0.090008 0.079942 0.14648 0.080078 0.033759 0.00009676 0.067239-0.009039 0.097656-0.029297 0.080506-0.054962 0.10094-0.1682 0.046875-0.25l-1.8535-2.8047c0.58806 0.061606 1.247-0.14654 1.8809-0.23438 0.83597-0.116 0.86884-0.90325 0.48828-1.0684-0.087862-0.038082-0.40687-0.11463-0.84375-0.20703l-0.001953 0.001953c-1.062-0.22448-2.8274-0.55374-3.7031-0.71484l0.0039063-0.24219v-0.070312l0.94531-0.95312c0.033003-0.033373 0.050528-0.079554 0.050781-0.12695l0.005859-1.3008 1.8555-1.873c0.068906-0.069453 0.069499-0.18183 0-0.25195-0.068581-0.070023-0.17906-0.069933-0.24805 0l-1.9082 1.9219c-0.03323 0.033373-0.05248 0.079554-0.052734 0.12695l-0.003906 1.3027-0.64453 0.64844 0.0019531-0.50977c0.000087005-0.24019-0.15766-0.44356-0.37305-0.51172l-0.11328-1.2734c-0.019922-0.21336-0.049955-0.21517-0.070312-0.001953l-0.12109 1.2734c-0.21586 0.066512-0.37613 0.26953-0.37695 0.50977l-0.0019531 0.50977-0.64062-0.6543 0.0039063-1.3027c0.0001559-0.047528-0.018522-0.091321-0.050781-0.125l-1.8945-1.9375c-0.034291-0.034961-0.080015-0.052621-0.125-0.052734zm29.375 0v0.001953c-0.044985-0.00004724-0.088564 0.017022-0.12305 0.052734-0.068906 0.069453-0.069278 0.18186 0 0.25195l1.8438 1.8848-0.003906 1.3027c-0.00020356 0.047528 0.018527 0.093278 0.050781 0.12695l0.93945 0.96094v0.31055c-0.91632 0.16147-2.806 0.49856-3.8477 0.71484-0.36498 0.07573-0.6266 0.13658-0.70508 0.16992-0.38166 0.16229-0.35465 0.95199 0.48047 1.0742 0.6013 0.087965 1.2238 0.28138 1.7891 0.25195h0.001953c0.020078 0.013266 0.038732 0.027119 0.058594 0.039062l0.027344-0.042969c0.0007735-0.00004573 0.003158 0.00007106 0.003906 0l-0.03125 0.042969-1.8438 2.7461c-0.054615 0.081464-0.035455 0.19429 0.044922 0.25 0.030109 0.019994 0.065631 0.031023 0.099609 0.03125 0.056481 0.00021468 0.11056-0.027162 0.14453-0.078125l1.8652-2.7773 0.23828-0.35742c0.00673-0.002681 0.015077-0.002617 0.019531-0.007813 0.18189-0.091389 0.41448-0.21588 0.66016-0.34961l-0.001953 0.73242-0.001953 0.34766h0.001953l-0.005859 1.4668-0.25 0.5918-1.2441 2.9551c-0.038112 0.090743 0.004477 0.19583 0.09375 0.23438 0.022583 0.008844 0.04541 0.015852 0.068359 0.015625 0.068408 0.0002623 0.13347-0.041321 0.16211-0.10938l1.0352-2.4609 0.47266-1.1191c0.008799-0.022564 0.013588-0.046528 0.015625-0.070312l0.003906-1.416h-0.001953l0.003-1.245c0.031654-0.058273 0.065695-0.11676 0.099609-0.17383 0.19187-0.10634 0.37604-0.20989 0.53711-0.30078l-0.005859 1.8145-0.005859 1.2012c-0.001844 0.2946 0.23712 0.536 0.52734 0.53711 0.29025 0.001279 0.52828-0.23667 0.5293-0.53125l0.005859-1.2188 0.005859-1.7988c0.16963 0.097005 0.36554 0.20794 0.56836 0.32227 0.022832 0.036737 0.043191 0.073934 0.064453 0.11133l-0.003906 1.252-0.003906 1.4531c-0.00005303 0.023887 0.004473 0.046362 0.013672 0.068359l0.521 1.264v0.001953l0.959 2.327c0.028067 0.068319 0.093702 0.10908 0.16211 0.10938 0.022953 0.00010356 0.04617-0.003921 0.068359-0.013672 0.089663-0.038003 0.1332-0.14347 0.095703-0.23438l-1.1602-2.8086v-0.001953l-0.30859-0.74805 0.005859-1.5156h-0.001953l0.001953-0.41406 0.001953-0.61719c0.24477 0.1355 0.47498 0.26263 0.65625 0.35547 0.006777 0.002558 0.012732 0.002748 0.019531 0.007813l0.19531 0.29688 0.001953-0.001953 1.8867 2.8535c0.033755 0.050963 0.088055 0.079942 0.14453 0.080078 0.033759 0.00009676 0.069192-0.009039 0.099609-0.029297 0.080506-0.054962 0.10094-0.1682 0.046875-0.25l-1.8555-2.8047c0.58806 0.061606 1.249-0.14654 1.8828-0.23438 0.83597-0.116 0.86689-0.90325 0.48633-1.0684-0.087862-0.038082-0.40492-0.11463-0.8418-0.20703l-0.001953 0.001953c-1.061-0.223-2.827-0.552-3.702-0.713l0.001953-0.24219v-0.070312l0.94531-0.95312c0.033003-0.033373 0.052482-0.079554 0.052734-0.12695l0.005859-1.3008 1.8555-1.873c0.068906-0.069453 0.069499-0.18183 0-0.25195-0.068581-0.070023-0.17906-0.069933-0.24805 0l-1.9082 1.9219c-0.03323 0.033373-0.05248 0.079554-0.052734 0.12695l-0.003906 1.3027-0.64453 0.64844 0.001953-0.50977c0.000087-0.24019-0.15766-0.44356-0.37305-0.51172l-0.11328-1.2734c-0.019922-0.21336-0.049955-0.21517-0.070312-0.001953l-0.12305 1.2734c-0.21586 0.066512-0.37417 0.26953-0.375 0.50977l-0.001953 0.50977-0.64062-0.6543 0.003906-1.3027c0.0001559-0.047528-0.018522-0.091321-0.050781-0.125l-1.8965-1.9375c-0.03429-0.034961-0.080015-0.052621-0.125-0.052734z" transform="matrix(.26458 0 0 .26458 0 284.3)"/>
 </g>
</svg>
