<?xml version="1.0" encoding="UTF-8" standalone="no"?>
<!-- Created with Inkscape (http://www.inkscape.org/) -->
<svg id="svg8" xmlns:rdf="http://www.w3.org/1999/02/22-rdf-syntax-ns#" xmlns="http://www.w3.org/2000/svg" xmlns:osb="http://www.openswatchbook.org/uri/2009/osb" height="48" width="48" version="1.1" xmlns:cc="http://creativecommons.org/ns#" viewBox="0 0 12.7 12.7" xmlns:dc="http://purl.org/dc/elements/1.1/">
 <title id="title4753">UIO-icon</title>
 <metadata id="metadata5">
  <rdf:RDF>
   <cc:Work rdf:about="">
    <dc:format>image/svg+xml</dc:format>
    <dc:type rdf:resource="http://purl.org/dc/dcmitype/StillImage"/>
    <dc:title>UIO-icon</dc:title>
    <dc:creator>
     <cc:Agent>
      <dc:title>Joaquín Urbano</dc:title>
     </cc:Agent>
    </dc:creator>
    <dc:rights>
     <cc:Agent>
      <dc:title>GPL</dc:title>
     </cc:Agent>
    </dc:rights>
   </cc:Work>
  </rdf:RDF>
 </metadata>
 <g id="layer1" fill="#333" transform="translate(0,-284.3)">
  <path id="path1419" d="m6.35 285.36c-2.9225-1e-7 -5.2917 2.3692-5.2917 5.2917-9e-8 2.9225 2.3692 5.2917 5.2917 5.2917 2.9225 1e-7 5.2917-2.3692 5.2917-5.2917 9e-8 -2.9225-2.3692-5.2917-5.2917-5.2917zm0 0.13694c2.847-1e-7 5.1547 2.3077 5.1547 5.1547 8e-8 2.847-2.3077 5.1547-5.1547 5.1547-2.847 1e-7 -5.1547-2.3077-5.1547-5.1547-7.9e-8 -2.847 2.3077-5.1547 5.1547-5.1547zm1.4015 1.1539c-0.060778 0.0027-0.11852 0.014971-0.1726 0.03669-0.52444 0.2095-0.60403 1.2437-0.17777 2.3099 0.42658 1.0665 1.1976 1.7607 1.7219 1.5503 0.5241-0.20994 0.60345-1.244 0.17725-2.3099-0.37577-0.93948-1.0296-1.6094-1.5487-1.587zm-2.7182 0.19637c-0.49853 0.023044-1.157 0.46577-1.6717 1.124-0.70729 0.90463-0.91991 1.9199-0.47491 2.2676 0.4448 0.34791 1.3788-0.10323 2.0862-1.0077 0.70729-0.90463 0.91991-1.9199 0.47491-2.2676-0.10766-0.084321-0.24858-0.12386-0.41444-0.11627zm2.9166 0.46974c-0.011027-0.0002217-0.022058-0.0000493-0.033073 0.0005168-0.25546 0.013349-0.4517 0.23133-0.43822 0.48679 0.013623 0.25526 0.23153 0.45119 0.48679 0.4377 0.25525-0.013353 0.4514-0.23101 0.43822-0.48628-0.012702-0.24264-0.21079-0.43418-0.45372-0.43873zm-3.2432 0.079065c-0.072916 0.0037-0.14392 0.024599-0.20722 0.060978-0.22192 0.12713-0.29874 0.41011-0.17157 0.632 0.12731 0.22173 0.41024 0.29831 0.632 0.17105 0.22192-0.12713 0.29874-0.41011 0.17157-0.632-0.086679-0.15108-0.25082-0.24074-0.42478-0.23203zm3.2174 0.058394c0.17949-0.00934 0.33261 0.12851 0.3421 0.30799 0.0096375 0.17969-0.1283 0.33313-0.30799 0.34261-0.17949 0.00934-0.33261-0.12851-0.3421-0.30799-0.0096376-0.17969 0.1283-0.33313 0.30799-0.34261zm-3.2014 0.078548c0.11907-0.00258 0.23005 0.06004 0.28939 0.1633 0.089445 0.15598 0.035543 0.35493-0.12041 0.44442-0.15598 0.089445-0.35493 0.035543-0.44442-0.12041-0.089445-0.15598-0.035543-0.35493 0.12041-0.44442 0.047277-0.027037 0.10058-0.041784 0.15503-0.042891zm-1.0216 0.90537c-0.10688 0.00523-0.21101 0.035692-0.30386 0.088884-0.3248 0.18636-0.43701 0.60074-0.25063 0.92552 0.18636 0.3248 0.60074 0.43701 0.92552 0.25063 0.3248-0.18636 0.43701-0.60074 0.25063-0.92552-0.12693-0.22103-0.3671-0.35219-0.62167-0.33951zm4.9253 0.11834c-0.016027-0.0002249-0.032057 0.0001187-0.048059 0.00103-0.37406 0.019469-0.66146 0.33857-0.64182 0.71262 0.019744 0.37385 0.33876 0.66094 0.71262 0.6413 0.37406-0.019469 0.66146-0.33857 0.64182-0.71262-0.018652-0.35532-0.30881-0.63578-0.66456-0.64234zm-4.9025 0.021187c0.19643-0.00382 0.3793 0.099802 0.47697 0.27027 0.1473 0.25746 0.058279 0.58558-0.19895 0.73329-0.25746 0.1473-0.58558 0.058279-0.73329-0.19895-0.1473-0.25746-0.058279-0.58558 0.19895-0.73329 0.078115-0.044868 0.16625-0.069389 0.25632-0.071313zm4.9155 0.11989c0.27578 0.013283 0.49668 0.23329 0.51108 0.50901 0.015397 0.29633-0.21218 0.54912-0.5085 0.56482-0.29633 0.015397-0.54912-0.21218-0.56482-0.5085-0.015397-0.29633 0.21218-0.54912 0.5085-0.56482 0.017895-0.00107 0.035832-0.00124 0.053743-0.0005168zm-1.789 2.2598c-0.27114-0.00266-0.47939 0.078056-0.59996 0.23254-0.34791 0.4448 0.10323 1.3788 1.0077 2.0862 0.90463 0.70729 1.9199 0.91991 2.2676 0.47491 0.34791-0.4448-0.10323-1.3788-1.0077-2.0862-0.55755-0.436-1.1859-0.70256-1.6676-0.70745zm-3.0675 0.1912c-0.060778 0.0027-0.11852 0.014971-0.1726 0.03669-0.52444 0.2095-0.60403 1.2437-0.17777 2.3099 0.42658 1.0665 1.1976 1.7607 1.7219 1.5503 0.5241-0.20994 0.60345-1.244 0.17725-2.3099-0.37577-0.93948-1.0296-1.6094-1.5487-1.587zm3.5595 0.21601c-0.12975-0.00489-0.25817 0.027571-0.37 0.093534-0.32236 0.19051-0.42925 0.60626-0.23875 0.92863 0.19051 0.32236 0.60626 0.42925 0.92863 0.23875 0.32236-0.19051 0.42925-0.60626 0.23875-0.92863-0.11752-0.19861-0.328-0.32381-0.55862-0.33228zm-0.042891 0.14056c0.19631-0.00653 0.38056 0.094512 0.48059 0.26355 0.15064 0.2556 0.065764 0.58492-0.18965 0.73587-0.25547 0.15073-0.58474 0.066095-0.73587-0.18914-0.15108-0.25558-0.066407-0.58524 0.18914-0.73639 0.077722-0.045689 0.16569-0.0711 0.2558-0.073897zm-3.2701 0.33693c-0.25572 0-0.46302 0.2073-0.46302 0.46302-3.8e-8 0.25572 0.2073 0.46302 0.46302 0.46302s0.46302-0.2073 0.46302-0.46302c-1.7e-8 -0.25572-0.2073-0.46302-0.46302-0.46302zm0 0.13746c0.17979 0.0000365 0.32553 0.14577 0.32556 0.32556-0.000036434 0.17979-0.14577 0.32553-0.32556 0.32556-0.17979-0.0000365-0.32553-0.14577-0.32556-0.32556 0.000036489-0.17979 0.14577-0.32552 0.32556-0.32556zm4.5744 0.57826c-0.088631-0.00328-0.17634 0.018958-0.2527 0.064079-0.21998 0.13019-0.29285 0.41401-0.16278 0.63407 0.13001 0.22017 0.41388 0.29328 0.63407 0.1633 0.21998-0.13019 0.29285-0.41401 0.16278-0.63407-0.080124-0.13578-0.22383-0.22145-0.38137-0.22738zm-0.027905 0.13746c0.11886-0.0039 0.23039 0.057319 0.29094 0.15968 0.091463 0.15483 0.040102 0.35449-0.11472 0.44597-0.15472 0.091111-0.35399 0.03979-0.44545-0.11472-0.091463-0.15483-0.040102-0.35449 0.11472-0.44597 0.046932-0.027677 0.10006-0.043135 0.15451-0.044959zm-3.9512 0.42013c-0.37445 0-0.67799 0.30355-0.67799 0.67799-7e-9 0.37445 0.30355 0.67799 0.67799 0.67799 0.37445 0 0.67799-0.30355 0.67799-0.67799 7e-9 -0.37445-0.30355-0.67799-0.67799-0.67799zm0 0.14056c0.29676 0.0001343 0.5373 0.24067 0.53743 0.53743-0.00013431 0.29676-0.24067 0.5373-0.53743 0.53743-0.29676-0.0001343-0.5373-0.24067-0.53743-0.53743 0.00013431-0.29676 0.24067-0.5373 0.53743-0.53743z" fill-rule="evenodd"/>
 </g>
</svg>
