<?xml version="1.0" encoding="UTF-8" standalone="no"?>
<!-- Created with Inkscape (http://www.inkscape.org/) -->
<svg id="svg8" xmlns:rdf="http://www.w3.org/1999/02/22-rdf-syntax-ns#" xmlns="http://www.w3.org/2000/svg" xmlns:osb="http://www.openswatchbook.org/uri/2009/osb" height="48" width="48" version="1.1" xmlns:cc="http://creativecommons.org/ns#" viewBox="0 0 12.7 12.7" xmlns:dc="http://purl.org/dc/elements/1.1/">
 <title id="title4753">UIO-icon</title>
 <metadata id="metadata5">
  <rdf:RDF>
   <cc:Work rdf:about="">
    <dc:format>image/svg+xml</dc:format>
    <dc:type rdf:resource="http://purl.org/dc/dcmitype/StillImage"/>
    <dc:title>UIO-icon</dc:title>
    <dc:creator>
     <cc:Agent>
      <dc:title>Joaquín Urbano</dc:title>
     </cc:Agent>
    </dc:creator>
    <dc:rights>
     <cc:Agent>
      <dc:title>GPL</dc:title>
     </cc:Agent>
    </dc:rights>
   </cc:Work>
  </rdf:RDF>
 </metadata>
 <g id="layer1" transform="translate(0,-284.3)">
  <path id="rect4902" d="m13.689 8.0977a3.5 3.5 0 0 0 -3.5 3.5003 3.5 3.5 0 0 0 3.5 3.5 3.5 3.5 0 0 0 3.5 -3.5 3.5 3.5 0 0 0 -3.5 -3.5003zm21.038 0c-1.933 0-3.5 1.567-3.5 3.5003 0 1.933 1.567 3.5 3.5 3.5s3.5-1.567 3.5-3.5c0-1.9333-1.567-3.5003-3.5-3.5003zm-21.385 7.8613l-3.188 0.002v0.008c-0.5724 0.011-1.119 0.327-1.3884 0.879l-3.8691 7.925c-0.3829 0.785-0.058 1.725 0.7265 2.108 0.7846 0.383 1.7226 0.06 2.1055-0.725l2.4255-4.97v5.576 1.185 1.147 9.267c0 0.873 0.701 1.577 1.575 1.577 0.873 0 1.576-0.704 1.576-1.577v-9.267h0.037 0.687 0.035v9.267c0 0.873 0.704 1.577 1.577 1.577s1.576-0.704 1.576-1.577v-9.267-1.147-1.185-5.588l2.431 4.982c0.383 0.785 1.323 1.108 2.108 0.725 0.784-0.383 1.107-1.323 0.724-2.108l-3.869-7.925c-0.27-0.555-0.819-0.874-1.394-0.881v-0.008h-3.188-0.687zm21.037 0l-3.188 0.002v0.008c-0.572 0.011-1.119 0.327-1.388 0.879l-3.869 7.925c-0.383 0.785-0.058 1.725 0.726 2.108 0.785 0.383 1.723 0.06 2.106-0.725l2.425-4.97c0.06 3.386-0.171 6.104-2.216 10.064h2.216v7.111c0 0.873 0.702 1.577 1.575 1.577s1.576-0.704 1.576-1.577v-7.111h0.76v7.111c0 0.873 0.703 1.577 1.576 1.577s1.576-0.704 1.576-1.577v-7.111h2.221c-1.831-3.819-2.221-6.313-2.221-10.076l2.432 4.982c0.382 0.785 1.322 1.108 2.107 0.725s1.107-1.323 0.725-2.108l-3.87-7.925c-0.27-0.555-0.819-0.874-1.394-0.881v-0.008h-3.188-0.687z" fill-rule="evenodd" fill-opacity=".99505" transform="matrix(.26458 0 0 .26458 0 284.3)" fill="#333"/>
 </g>
</svg>
