<?xml version="1.0" encoding="UTF-8" standalone="no"?>
<!-- Created with Inkscape (http://www.inkscape.org/) -->
<svg id="svg8" xmlns:rdf="http://www.w3.org/1999/02/22-rdf-syntax-ns#" xmlns="http://www.w3.org/2000/svg" xmlns:osb="http://www.openswatchbook.org/uri/2009/osb" height="48" width="48" version="1.1" xmlns:cc="http://creativecommons.org/ns#" viewBox="0 0 12.7 12.7" xmlns:dc="http://purl.org/dc/elements/1.1/">
 <title id="title4753">UIO-icon</title>
 <metadata id="metadata5">
  <rdf:RDF>
   <cc:Work rdf:about="">
    <dc:format>image/svg+xml</dc:format>
    <dc:type rdf:resource="http://purl.org/dc/dcmitype/StillImage"/>
    <dc:title>UIO-icon</dc:title>
    <dc:creator>
     <cc:Agent>
      <dc:title>Joaquín Urbano</dc:title>
     </cc:Agent>
    </dc:creator>
    <dc:rights>
     <cc:Agent>
      <dc:title>GPL</dc:title>
     </cc:Agent>
    </dc:rights>
   </cc:Work>
  </rdf:RDF>
 </metadata>
 <g id="layer1" transform="translate(0,-284.3)" fill="#333">
  <path id="rect3109" d="m0 0v48h48v-48zm23.502 4.9316c3.1359 0.0051507 6.0132 1.7394 7.4824 4.5098h-4.722c-0.245-1.3317-1.406-2.2987-2.76-2.2988-1.353 0.0011-2.513 0.9678-2.758 2.2988h-4.728c1.469-2.7716 4.349-4.5061 7.486-4.5098zm-8.135 6.0994h5.5488c0.43583 1.0433 1.4552 1.7232 2.5859 1.7246 1.1321 0.00014434 2.1535-0.67996 2.5898-1.7246h5.541c0.2213 0.74598 0.33894 1.5188 0.34961 2.2969h-16.963c0.010032-0.77795 0.12702-1.5508 0.34766-2.2969zm-2.4062 2.6523h21.082v1.2363h-3.623c0.01663 1.6517 0.035536 3.3033 0.046875 4.9551 0 2.0737-0.79828 4.1215-2.3613 5.0996-1.7383 1.0876-3.3495 2.2264-4.6094 2.2227-1.8397-0.057335-2.8768-0.92259-4.9668-2.2383-1.476-0.93-1.992-3-1.992-5.084v-4.955h-3.576zm7.5312 2.2559c0.43897 0.00011339 0.79482 0.35593 0.79492 0.79492-0.00009828 0.43888-0.35594 0.79481-0.79492 0.79492-0.43897-0.00011339-0.79482-0.35597-0.79492-0.79492 0.00009828-0.43892 0.35594-0.79481 0.79492-0.79492zm5.9688 0c0.43897 0.00011339 0.79482 0.35593 0.79492 0.79492-0.00009828 0.43888-0.35594 0.79481-0.79492 0.79492-0.439-0.00011339-0.79483-0.35597-0.79492-0.79492 0.0000945-0.43892 0.35594-0.79481 0.79492-0.79492zm-3.035 3.67c0.016781-0.00011339 0.033773-0.00011339 0.050781 0 0.39814 0 0.72 0.066422 0.7168 0.14844-0.002022 0.080882-0.32239 0.14652-0.7168 0.14648-0.39441 0.00037792-0.7148-0.065602-0.7168-0.14648-0.004021-0.077858 0.28788-0.14466 0.66602-0.14844zm2.9551 2.2617v0.001953c-1e-8 -0.00041575-0.011602 0.00037792-0.011719 0-0.027829 0.058734-1.219 0.27228-2.7012 0.48242-1.4936 0.21165-2.7161 0.34122-2.7422 0.28906-0.02016-0.050986 1.0846-0.25344 2.5215-0.46094 0.064403-0.007559 0.12892-0.019785 0.19336-0.027344 1.5017-0.21203 2.7126-0.33687 2.7285-0.2832 0.000378-0.000529 0.011643-0.001537 0.011719-0.001953zm3.9316 5.5625c0.81693 0.28997 1.6098 0.61807 2.4043 0.95898v9.1055h2.6523v-7.9551c1.0649 0.46137 2.1621 0.92102 3.373 1.3418 2.5451 0.75129 2.5449 2.867 2.5449 4.0195v6.6621h-5.918v-1.791h-2.6523v1.791h-18.737v-1.791h-2.652v1.791h-5.6132v-6.6621c0-1.1525-0.00017116-3.27 2.5449-4.0195 1.0957-0.38071 2.0962-0.79443 3.0684-1.2109v7.8242h2.6523v-8.973c0.855-0.37 1.707-0.729 2.582-1.045l0.10938-0.029297c1.8171 1.8074 4.275 2.8233 6.8379 2.8262 2.085-0.032267 5.2375-1.3736 6.8027-2.8437z" fill-rule="evenodd" transform="matrix(.26458 0 0 .26458 0 284.3)"/>
 </g>
</svg>
