<?xml version="1.0" encoding="UTF-8" standalone="no"?>
<!-- Created with Inkscape (http://www.inkscape.org/) -->
<svg id="svg8" xmlns:rdf="http://www.w3.org/1999/02/22-rdf-syntax-ns#" xmlns="http://www.w3.org/2000/svg" xmlns:osb="http://www.openswatchbook.org/uri/2009/osb" height="48" width="48" version="1.1" xmlns:cc="http://creativecommons.org/ns#" viewBox="0 0 12.7 12.7" xmlns:dc="http://purl.org/dc/elements/1.1/">
 <title id="title4753">UIO-icon</title>
 <metadata id="metadata5">
  <rdf:RDF>
   <cc:Work rdf:about="">
    <dc:format>image/svg+xml</dc:format>
    <dc:type rdf:resource="http://purl.org/dc/dcmitype/StillImage"/>
    <dc:title>UIO-icon</dc:title>
    <dc:creator>
     <cc:Agent>
      <dc:title>Joaquín Urbano</dc:title>
     </cc:Agent>
    </dc:creator>
    <dc:rights>
     <cc:Agent>
      <dc:title>GPL</dc:title>
     </cc:Agent>
    </dc:rights>
   </cc:Work>
  </rdf:RDF>
 </metadata>
 <g id="layer1" transform="translate(0,-284.3)">
  <path id="circle905" d="m30.041 4.0273c-2.993 0-5.514 2.0065-6.303 4.7461-0.79-2.7375-3.309-4.7421-6.3-4.7422-3.625 0.0001-6.563 2.9382-6.563 6.5628 0.001 0.2 0.012 0.4 0.031 0.599-0.156-0.012-0.312-0.036-0.468-0.037-3.6249 0-6.563 2.938-6.563 6.563 0.0027 1.761 0.7195 3.434 1.9648 4.66-1.2382 0.97-1.9625 2.454-1.9648 4.027 0.0024 2.238 1.4565 4.216 3.5918 4.885-0.0991 0.448-0.1508 0.906-0.1543 1.365 0.0004 2.563 1.5055 4.852 3.8025 5.922 0.775 2.834 3.352 4.829 6.323 4.83 2.993 0 5.514-2.006 6.302-4.746 0.79 2.738 3.309 4.742 6.301 4.742 2.97-0.001 5.547-1.996 6.322-4.83 2.298-1.07 3.803-3.359 3.803-5.922-0.004-0.459-0.055-0.916-0.154-1.365 2.135-0.669 3.589-2.647 3.592-4.885-0.003-1.572-0.727-3.057-1.965-4.027 1.245-1.226 1.962-2.899 1.965-4.66 0-3.625-2.939-6.563-6.563-6.563-0.157 0.001-0.312 0.026-0.469 0.037 0.02-0.199 0.03-0.399 0.032-0.599 0-3.6245-2.939-6.5627-6.563-6.5627zm0 0.5157c3.34-0.0003 6.047 2.7071 6.047 6.047-0.003 0.227-0.019 0.454-0.047 0.68-0.018 0.162-0.043 0.324-0.074 0.484-0.142 0.735-0.42 1.437-0.819 2.07-0.332 0.517 0.093 0.709 0.315 0.461 0.523-0.771 0.876-1.644 1.035-2.562 0.181-0.018 0.361-0.05 0.543-0.051 3.337 0 6.043 2.705 6.043 6.043-0.003 1.655-0.689 3.225-1.875 4.357-0.399-0.253-0.831-0.449-1.283-0.584-0.394-0.095-0.713 0.261 0.23 0.614 0.228 0.09 0.448 0.198 0.658 0.324 0.006 0.003 0.011 0.006 0.016 0.01 0.15 0.088 0.295 0.186 0.434 0.291h0.002c1.151 0.871 1.828 2.231 1.83 3.675 0 2.55-2.067 4.618-4.617 4.618-1.13-0.003-2.22-0.419-3.063-1.17-0.579-0.567-0.971-0.26-0.654 0.076 0.966 1.021 2.31 1.6 3.717 1.601 0.351-0.002 0.701-0.039 1.044-0.113 0.088 0.407 0.133 0.822 0.135 1.238-0.002 2.223-1.231 4.233-3.156 5.287l0.025-0.15c0.049-0.313 0.074-0.63 0.077-0.947-0.003-0.665-0.106-1.325-0.307-1.959-0.187-0.53-0.603-0.634-0.293 0.945 0.059 0.335 0.09 0.674 0.092 1.014 0 3.344-2.711 6.055-6.055 6.054-3.297 0.001-5.973-2.636-6.047-5.916 0.001-0.045 0.006-0.089 0.006-0.134l-0.006-0.102h0.002v-0.543l0.004-9.17c-0.001-0.023-0.012-0.031-0.014-0.052-0.007-0.12-0.032-0.215-0.072-0.28-0.071-0.115-0.177-0.142-0.268-0.084-0.032 0.021-0.06 0.055-0.085 0.098-0.036 0.061-0.058 0.147-0.067 0.254-0.002 0.024-0.015 0.034-0.015 0.06l0.003 9.178v0.535h0.002c-0.002 0.034-0.004 0.068-0.005 0.102 0 0.047 0.006 0.092 0.007 0.138-0.072 3.282-2.75 5.921-6.048 5.92-3.345 0.001-6.055-2.71-6.055-6.054 0.002-0.34 0.033-0.679 0.092-1.014 0.31-1.58-0.107-1.475-0.293-0.945-0.201 0.633-0.305 1.294-0.307 1.959 0.002 0.317 0.028 0.633 0.076 0.947l0.026 0.15c-1.9256-1.054-3.1549-3.064-3.1567-5.287 0.0022-0.416 0.0474-0.831 0.1348-1.238 0.3435 0.073 0.6936 0.111 1.0449 0.113 1.406-0.001 2.75-0.58 3.717-1.601 0.317-0.336-0.075-0.643-0.655-0.076-0.843 0.751-1.932 1.167-3.062 1.169-2.5501 0.001-4.6174-2.067-4.6172-4.617 0.0016-1.444 0.6788-2.804 1.8301-3.676h0.0019c0.1391-0.104 0.2836-0.202 0.4336-0.291 0.0053-0.003 0.0104-0.006 0.0157-0.009 0.2104-0.126 0.4305-0.234 0.6582-0.325 0.9428-0.352 0.6241-0.708 0.2304-0.613-0.4526 0.135-0.8844 0.331-1.2832 0.584-1.1861-1.132-1.8725-2.702-1.875-4.357 0-3.338 2.7056-6.043 6.0435-6.043 0.182 0.001 0.361 0.033 0.542 0.051 0.16 0.918 0.513 1.791 1.036 2.562 0.222 0.248 0.647 0.056 0.314-0.461-0.398-0.633-0.676-1.335-0.818-2.07-0.032-0.161-0.056-0.322-0.074-0.485-0.029-0.225-0.045-0.452-0.047-0.679-0.001-3.34 2.707-6.0474 6.047-6.0471 3.319-0.0003 6.01 2.6748 6.042 5.9861 0 0.019-0.001 0.038-0.001 0.057 0 0.012 0.003 0.024 0.003 0.037-0.01 1.3-0.436 2.562-1.22 3.6-0.409 0.477 0.061 0.722 0.279 0.488 0.569-0.705 0.961-1.52 1.199-2.381 0.239 0.859 0.629 1.674 1.198 2.377 0.218 0.234 0.687-0.011 0.279-0.488-0.783-1.037-1.208-2.298-1.219-3.596 0-0.011 0.002-0.022 0.002-0.033 0-0.021-0.004-0.04-0.004-0.061 0.03-3.3132 2.724-5.9903 6.045-5.99zm3.486 8.096c-0.077-0.014-0.198 0.014-0.363 0.099-0.771 0.536-1.231 1.415-1.232 2.354 0 1.586 1.286 2.873 2.873 2.873 1.587 0.001 2.875-1.286 2.875-2.873 0-0.161-0.013-0.321-0.039-0.479-0.007-0.668-0.573-0.491-0.485 0.492-0.008 1.293-1.058 2.337-2.351 2.336-1.298 0-2.349-1.052-2.35-2.349 0.001-0.627 0.252-1.227 0.697-1.668 0.46-0.329 0.608-0.743 0.375-0.785zm-19.576 0.004c-0.233 0.041-0.085 0.455 0.375 0.785 0.446 0.441 0.697 1.041 0.697 1.668 0 1.297-1.052 2.349-2.349 2.349-1.293 0.001-2.344-1.043-2.352-2.336 0.089-0.984-0.4774-1.16-0.4841-0.492-0.0264 0.158-0.0394 0.318-0.0391 0.479 0.0001 1.587 1.2872 2.874 2.8752 2.873 1.587 0 2.873-1.287 2.873-2.873-0.002-0.939-0.462-1.818-1.233-2.354-0.164-0.085-0.285-0.113-0.363-0.099zm14.289 5.08c-0.243 0.023-0.182 0.433 0.461 0.8 1.056 0.746 1.312 2.204 0.572 3.264-0.742 1.064-2.204 1.327-3.269 0.586-0.514-0.359-0.864-0.908-0.971-1.525-0.01-0.754-0.46-1.138-0.556-0.403-0.001 0.939 0.457 1.82 1.226 2.358 1.302 0.907 3.093 0.587 4-0.715 0.908-1.302 0.59-3.094-0.713-4.002-0.131-0.092-0.271-0.173-0.416-0.242-0.138-0.094-0.253-0.129-0.334-0.121zm-9.002 0.004c-0.081-0.008-0.196 0.026-0.334 0.121-0.145 0.068-0.284 0.15-0.416 0.242-1.302 0.907-1.621 2.7-0.713 4.002s2.698 1.622 4 0.715c0.77-0.538 1.228-1.419 1.227-2.358-0.097-0.735-0.547-0.352-0.557 0.403-0.107 0.617-0.457 1.166-0.97 1.525-1.065 0.741-2.528 0.478-3.27-0.586-0.74-1.06-0.484-2.518 0.572-3.264 0.644-0.367 0.704-0.777 0.461-0.8zm12.785 8.169c-2.111 0.001-3.823 1.713-3.822 3.825 0 2.111 1.712 3.822 3.822 3.822h0.002c0.551 0.029 0.609-0.491-0.125-0.516-1.778-0.066-3.186-1.527-3.187-3.306-0.001-1.829 1.481-3.312 3.31-3.313 0.666 0.002 1.316 0.204 1.866 0.58 0.499 0.39 0.766 0.031 0.4-0.342-0.656-0.485-1.45-0.748-2.266-0.75zm-16.568 0.004c-0.816 0.002-1.61 0.265-2.266 0.75-0.365 0.373-0.099 0.731 0.401 0.342 0.549-0.376 1.199-0.578 1.865-0.58 1.829 0.001 3.311 1.484 3.311 3.313-0.002 1.779-1.409 3.24-3.188 3.306-0.734 0.024-0.676 0.545-0.125 0.516h0.002c2.111 0 3.822-1.711 3.822-3.822 0.001-2.112-1.71-3.825-3.822-3.825z" fill-rule="evenodd" transform="matrix(.26458 0 0 .26458 0 284.3)" fill="#333"/>
 </g>
</svg>
