<?xml version="1.0" encoding="UTF-8" standalone="no"?>
<!-- Created with Inkscape (http://www.inkscape.org/) -->
<svg id="svg8" xmlns:rdf="http://www.w3.org/1999/02/22-rdf-syntax-ns#" xmlns="http://www.w3.org/2000/svg" xmlns:osb="http://www.openswatchbook.org/uri/2009/osb" height="48" width="48" version="1.1" xmlns:cc="http://creativecommons.org/ns#" viewBox="0 0 12.7 12.7" xmlns:dc="http://purl.org/dc/elements/1.1/">
 <title id="title4753">UIO-icon</title>
 <metadata id="metadata5">
  <rdf:RDF>
   <cc:Work rdf:about="">
    <dc:format>image/svg+xml</dc:format>
    <dc:type rdf:resource="http://purl.org/dc/dcmitype/StillImage"/>
    <dc:title>UIO-icon</dc:title>
    <dc:creator>
     <cc:Agent>
      <dc:title>Joaquín Urbano</dc:title>
     </cc:Agent>
    </dc:creator>
    <dc:rights>
     <cc:Agent>
      <dc:title>GPL</dc:title>
     </cc:Agent>
    </dc:rights>
   </cc:Work>
  </rdf:RDF>
 </metadata>
 <g id="layer1" fill="#333" transform="translate(0,-284.3)">
  <path id="rect884" d="m0 0v48h48v-48h-48zm13.752 4.0039c2.77 0.0852 5.45 1.3795 7.228 3.6719 0.492 0.6749 0.156 1.0217-0.283 1.2656l-14.886 8.2836c-0.2342 0.13-0.4673 0.26-0.6821 0.238s-0.4122-0.195-0.5742-0.672c-1.6083-4.34 0.1579-9.2853 4.2871-11.59 1.5532-0.8631 3.2482-1.2482 4.9102-1.1971zm20.625 0.0254c3.945-0.0333 7.63 2.4127 9.023 6.3087 1.589 4.465-0.355 9.362-4.441 11.564-0.187 0.094-0.344 0.14-0.479 0.149-0.403 0.026-0.596-0.283-0.722-0.637l-5.717-16.047c-0.09-0.2518-0.18-0.5044-0.123-0.7127s0.261-0.3738 0.758-0.4551c0.568-0.1089 1.137-0.1652 1.701-0.1699zm-3.984 0.998c0.405-0.0293 0.612 0.2656 0.732 0.6016l5.746 16.127c0.161 0.453 0.331 0.944-0.611 1.105-0.57 0.112-1.142 0.169-1.707 0.176-3.959 0.049-7.663-2.397-9.061-6.305-0.595-1.672-0.694-3.405-0.371-5.035 0.538-2.7153 2.25-5.1423 4.797-6.5212 0.183-0.0921 0.34-0.1387 0.475-0.1485zm-8.579 4.5157c0.206 0.0217 0.4 0.1871 0.557 0.639 1.634 4.349-0.13 9.317-4.271 11.629-1.552 0.862-3.244 1.245-4.905 1.195-2.767-0.084-5.4426-1.371-7.2223-3.656-0.4841-0.663-0.1676-1.035 0.248-1.266l14.959-8.3242c0.21-0.1169 0.428-0.2386 0.634-0.2168zm-8.449 15.432c3.959-0.049 7.663 2.397 9.061 6.304 0.595 1.672 0.694 3.406 0.371 5.035-0.538 2.716-2.25 5.143-4.797 6.522-0.733 0.368-1.047-0.005-1.207-0.453l-5.746-16.127c-0.161-0.453-0.331-0.944 0.611-1.106 0.57-0.111 1.142-0.168 1.707-0.175zm21.358 0.031c2.767 0.083 5.443 1.371 7.222 3.656 0.484 0.663 0.168 1.034-0.248 1.266l-14.959 8.324c-0.42 0.234-0.876 0.481-1.191-0.422-1.634-4.35 0.13-9.317 4.271-11.629 1.552-0.862 3.244-1.245 4.905-1.195zm-25.286 0.955c0.4035-0.026 0.5965 0.282 0.7225 0.637l5.717 16.047c0.09 0.252 0.18 0.504 0.123 0.712-0.057 0.209-0.261 0.374-0.758 0.455-4.546 0.872-9.1317-1.686-10.724-6.138-1.5887-4.465 0.3546-9.363 4.441-11.565 0.1867-0.093 0.344-0.139 0.4785-0.148zm33.352 4.588c0.215 0.022 0.412 0.195 0.574 0.672 1.609 4.34-0.158 9.285-4.287 11.59-4.142 2.302-9.293 1.193-12.138-2.475-0.492-0.675-0.156-1.022 0.283-1.266l14.886-8.283c0.234-0.13 0.467-0.26 0.682-0.238z" fill-rule="evenodd" transform="matrix(.26458 0 0 .26458 0 284.3)"/>
 </g>
</svg>
