<?xml version="1.0" encoding="UTF-8" standalone="no"?>
<!-- Created with Inkscape (http://www.inkscape.org/) -->

<svg
   xmlns:dc="http://purl.org/dc/elements/1.1/"
   xmlns:cc="http://creativecommons.org/ns#"
   xmlns:rdf="http://www.w3.org/1999/02/22-rdf-syntax-ns#"
   xmlns:svg="http://www.w3.org/2000/svg"
   xmlns="http://www.w3.org/2000/svg"
   xmlns:sodipodi="http://sodipodi.sourceforge.net/DTD/sodipodi-0.dtd"
   xmlns:inkscape="http://www.inkscape.org/namespaces/inkscape"
   id="svg8"
   height="48"
   width="48"
   version="1.1"
   viewBox="0 0 12.7 12.7"
   sodipodi:docname="plantation_worker_negative.svg"
   inkscape:version="0.92.2 (5c3e80d, 2017-08-06)">
  <defs
     id="defs9" />
  <sodipodi:namedview
     pagecolor="#ffffff"
     bordercolor="#666666"
     borderopacity="1"
     objecttolerance="10"
     gridtolerance="10"
     guidetolerance="10"
     inkscape:pageopacity="0"
     inkscape:pageshadow="2"
     inkscape:window-width="897"
     inkscape:window-height="480"
     id="namedview7"
     showgrid="false"
     inkscape:zoom="4.916666667"
     inkscape:cx="-7.423728814"
     inkscape:cy="24"
     inkscape:window-x="0"
     inkscape:window-y="0"
     inkscape:window-maximized="0"
     inkscape:current-layer="svg8" />
  <title
     id="title4753">UIO-icon</title>
  <metadata
     id="metadata5">
    <rdf:RDF>
      <cc:Work
         rdf:about="">
        <dc:format>image/svg+xml</dc:format>
        <dc:type
           rdf:resource="http://purl.org/dc/dcmitype/StillImage" />
        <dc:title>UIO-icon</dc:title>
        <dc:creator>
          <cc:Agent>
            <dc:title>Joaquín Urbano</dc:title>
          </cc:Agent>
        </dc:creator>
        <dc:rights>
          <cc:Agent>
            <dc:title>GPL</dc:title>
          </cc:Agent>
        </dc:rights>
      </cc:Work>
    </rdf:RDF>
  </metadata>
  <g
     id="layer1"
     transform="translate(0,-284.3)"
     style="fill:#333333;fill-opacity:1">
    <path
       id="rect923"
       d="m0 0v48h48v-48h-48zm23.891 3.875c1.783 0.0022 3.402 1.0395 4.15 2.6582 1.78 0.0883 2.828 0.2264 2.834 0.373 0.004 0.1418-0.966 0.2761-2.641 0.3653 0.103 0.3735 0.157 0.759 0.159 1.1465-0.001 2.425-1.966 4.39-4.391 4.391-2.426 0-4.392-1.965-4.393-4.391 0.001-0.3792 0.051-0.7567 0.149-1.1231-1.961-0.0872-3.135-0.2329-3.133-0.3887 0.005-0.1549 1.173-0.2996 3.121-0.3867 0.751-1.6114 2.367-2.6425 4.145-2.6445zm3.63 3.4277c-1.129 0.0469-2.436 0.0719-3.771 0.0723-1.143 0-2.269-0.0181-3.283-0.0527-0.11 0.3548-0.166 0.7242-0.166 1.0957 0 2.043 1.658 3.699 3.701 3.697 2.042 0 3.697-1.655 3.697-3.697-0.002-0.3787-0.062-0.7548-0.178-1.1153zm-3.957 6.5883h0.864 3.998v0.007c0.722 0.01 1.41 0.41 1.75 1.106l4.853 9.943c0.481 0.985 0.076 2.164-0.908 2.645-0.984 0.48-2.164 0.076-2.644-0.908l-3.051-6.252v7.011 1.487 1.439 11.627c0 1.095-0.881 1.977-1.977 1.977-1.095 0-1.978-0.882-1.978-1.977v-11.627h-0.043-0.864-0.046v11.627c0 1.095-0.882 1.977-1.977 1.977s-1.975-0.882-1.975-1.977v-11.627-1.439-1.487-6.996l-3.045 6.237c-0.295 0.605-0.853 0.988-1.468 1.084v6.709h0.633v0.843h0.718c0.853 0 1.539 0.687 1.539 1.539v0.436 5.127 1.539h-0.343v-1.875-4.799-0.092c0-0.82-0.66-1.48-1.481-1.48h-0.08v8.258h-0.506v-8.258h-1.572v8.258h-0.506v-8.258h-0.435c-0.821 0-1.481 0.66-1.481 1.48v0.092 4.799 1.875h-0.32v-1.539-5.127-0.436c0-0.852 0.686-1.539 1.539-1.539h0.719v-0.843h0.634v-4.127-2.674c-0.077-0.027-0.155-0.048-0.23-0.084-0.984-0.481-1.393-1.66-0.912-2.645l1.142-2.34v-2.427-5.194h-1.787v-0.943h4.516v0.943h-1.787v1.576 4.118l2.771-5.676c0.338-0.693 1.024-1.087 1.742-1.102v-0.009l3.998-0.002z"
       fill-rule="evenodd"
       fill-opacity=".99272"
       transform="matrix(.26458 0 0 .26458 0 284.3)"
       fill="#4d4d4d"
       style="fill:#333333;fill-opacity:1" />
  </g>
</svg>
