<?xml version="1.0" encoding="UTF-8" standalone="no"?>
<!-- Created with Inkscape (http://www.inkscape.org/) -->

<svg
   xmlns:dc="http://purl.org/dc/elements/1.1/"
   xmlns:cc="http://creativecommons.org/ns#"
   xmlns:rdf="http://www.w3.org/1999/02/22-rdf-syntax-ns#"
   xmlns:svg="http://www.w3.org/2000/svg"
   xmlns="http://www.w3.org/2000/svg"
   xmlns:sodipodi="http://sodipodi.sourceforge.net/DTD/sodipodi-0.dtd"
   xmlns:inkscape="http://www.inkscape.org/namespaces/inkscape"
   id="svg8"
   height="48"
   width="48"
   version="1.1"
   viewBox="0 0 12.7 12.7"
   sodipodi:docname="plantation_worker_positive.svg"
   inkscape:version="0.92.2 (5c3e80d, 2017-08-06)">
  <defs
     id="defs9" />
  <sodipodi:namedview
     pagecolor="#ffffff"
     bordercolor="#666666"
     borderopacity="1"
     objecttolerance="10"
     gridtolerance="10"
     guidetolerance="10"
     inkscape:pageopacity="0"
     inkscape:pageshadow="2"
     inkscape:window-width="1920"
     inkscape:window-height="1017"
     id="namedview7"
     showgrid="false"
     inkscape:zoom="4.916666667"
     inkscape:cx="-7.423728814"
     inkscape:cy="24"
     inkscape:window-x="-8"
     inkscape:window-y="-8"
     inkscape:window-maximized="1"
     inkscape:current-layer="svg8" />
  <title
     id="title4753">UIO-icon</title>
  <metadata
     id="metadata5">
    <rdf:RDF>
      <cc:Work
         rdf:about="">
        <dc:format>image/svg+xml</dc:format>
        <dc:type
           rdf:resource="http://purl.org/dc/dcmitype/StillImage" />
        <dc:title>UIO-icon</dc:title>
        <dc:creator>
          <cc:Agent>
            <dc:title>Joaquín Urbano</dc:title>
          </cc:Agent>
        </dc:creator>
        <dc:rights>
          <cc:Agent>
            <dc:title>GPL</dc:title>
          </cc:Agent>
        </dc:rights>
      </cc:Work>
    </rdf:RDF>
  </metadata>
  <g
     id="layer1"
     transform="translate(0,-284.3)"
     style="fill:#333333;fill-opacity:1">
    <path
       id="rect4902"
       d="m23.891 3.875c-1.778 0.002-3.394 1.0331-4.145 2.6445-1.948 0.0871-3.116 0.2318-3.121 0.3867-0.002 0.1558 1.172 0.3015 3.133 0.3887-0.098 0.3664-0.148 0.7439-0.149 1.1231 0.00025427 2.4255 1.967 4.3914 4.3926 4.3906 2.4248-0.00025431 4.3904-1.9659 4.3906-4.3906-0.001-0.3875-0.055-0.773-0.158-1.1465 1.675-0.0892 2.645-0.2235 2.641-0.3653-0.006-0.1466-1.054-0.2847-2.834-0.373-0.748-1.6187-2.367-2.656-4.15-2.6582zm3.6309 3.4277c0.11599 0.36045 0.17594 0.73658 0.17773 1.1152-0.00041237 2.0418-1.6555 3.6969-3.6973 3.6973-2.0433 0.001746-3.7008-1.654-3.7012-3.6973-0.00001241-0.3715 0.055954-0.74088 0.16602-1.0957 1.014 0.0347 2.14 0.0528 3.283 0.0528 1.335-0.0004 2.642-0.0254 3.771-0.0723zm-3.958 6.5883-3.998 0.002v0.009766c-0.71851 0.014211-1.4042 0.40903-1.7422 1.1016l-2.7715 5.6758v-5.695h1.7871v-0.94336h-4.5156v0.94336h1.7871v7.6211l-1.141 2.34c-0.48037 0.9843-0.072234 2.1642 0.91211 2.6445 0.075144 0.036672 0.15348 0.057495 0.23047 0.083984v6.8008h-0.635v0.84375h-0.71875c-0.85259 0-1.5391 0.68648-1.5391 1.5391v7.1017h0.32031v-6.7656c0-0.82076 0.6597-1.4805 1.4805-1.4805h0.43555v8.2578h0.50586v-8.2578h1.5723v8.2578h0.50586v-8.2578h0.080078c0.82078 0 1.4805 0.65971 1.4805 1.4805v6.7656h0.34375v-7.103c0-0.85258-0.68648-1.5391-1.5391-1.5391h-0.71875v-0.84375h-0.63281v-6.709c0.61544-0.095978 1.1733-0.47856 1.4688-1.084l3.0449-6.2363v21.549c0 1.0953 0.8793 1.9766 1.9746 1.9766s1.9766-0.88126 1.9766-1.9766v-11.627h0.95313v11.627c0 1.0953 0.88321 1.9766 1.9785 1.9766s1.9766-0.88126 1.9766-1.9766v-21.564l3.0508 6.252c0.48037 0.98435 1.6602 1.3885 2.6445 0.9082 0.98434-0.48039 1.3886-1.6602 0.9082-2.6445l-4.8535-9.9434c-0.33937-0.69543-1.0282-1.0961-1.75-1.1055v-0.007813h-3.998z"
       transform="matrix(.26458 0 0 .26458 0 284.3)"
       fill-rule="evenodd"
       fill-opacity=".99272"
       fill="#4d4d4d"
       style="fill:#333333;fill-opacity:1" />
  </g>
</svg>
