<?xml version="1.0" encoding="UTF-8" standalone="no"?>
<!-- Created with Inkscape (http://www.inkscape.org/) -->
<svg id="svg8" xmlns:rdf="http://www.w3.org/1999/02/22-rdf-syntax-ns#" xmlns="http://www.w3.org/2000/svg" xmlns:osb="http://www.openswatchbook.org/uri/2009/osb" height="48" width="48" version="1.1" xmlns:cc="http://creativecommons.org/ns#" viewBox="0 0 12.7 12.7" xmlns:dc="http://purl.org/dc/elements/1.1/">
 <title id="title4753">UIO-icon</title>
 <metadata id="metadata5">
  <rdf:RDF>
   <cc:Work rdf:about="">
    <dc:format>image/svg+xml</dc:format>
    <dc:type rdf:resource="http://purl.org/dc/dcmitype/StillImage"/>
    <dc:title>UIO-icon</dc:title>
    <dc:creator>
     <cc:Agent>
      <dc:title>Joaquín Urbano</dc:title>
     </cc:Agent>
    </dc:creator>
    <dc:rights>
     <cc:Agent>
      <dc:title>GPL</dc:title>
     </cc:Agent>
    </dc:rights>
   </cc:Work>
  </rdf:RDF>
 </metadata>
 <g id="layer1" transform="translate(0,-284.3)">
  <path id="circle5040" d="m24 4.0098a14.273 14.273 0 0 0 -14.273 14.273 14.273 14.273 0 0 0 14.273 14.274 14.273 14.273 0 0 0 14.273 -14.274 14.273 14.273 0 0 0 -14.273 -14.273zm0 1.959a12.315 12.315 0 0 1 12.314 12.314 12.315 12.315 0 0 1 -12.314 12.315 12.315 12.315 0 0 1 -12.314 -12.315 12.315 12.315 0 0 1 12.314 -12.314zm-1.088 0.7011c-0.186 0.0013-0.378 0.1044-0.465 0.3535-0.316 0.702-0.86 1.1957-1.099 2.1895-0.304 1.4321 2.153 1.5541 2.92 1.5511 2.213 0.081 3.01 1.459 0.736 1.664-1.887 0.177-3.828 0.224-4.209 4.107-0.049 0.568 0.213 1.576 0.67 2.858 0.151 0.84-0.099 1.808-0.602 2.857-0.256-0.03-0.445-0.122-0.492-0.334 0.044-0.905 0.227-1.67-0.133-2.98-0.354-1.271-1.22-1.876-2.099-2.032-1.763-0.366-3.327-0.697-4.739-0.228-1.488 0.558-1.012 2.763 0.268 2.791l1.568 0.043c1.087 0.022 1.676 0.5 1.112 2.027l-0.766 2.221c-0.626 1.911 1.481 4.001 4.242 4.242 2.792-0.065 4.405-1.312 6.58-1.992 2.085-1.154 1.699-1.973 1.692-2.707-0.347-1.018-0.394-1.388-1.149-2.541-0.295-0.312-0.432-0.399-0.822-0.658-0.949-1.051 0.589-1.718 1.748-3.092 0.602-0.854-0.418-1.856-1.602-1.508-0.999 0.326-1.523 0.935-2.541 1.988-0.58 0.639-1.365 2.133-0.289 3.393 0.301 0.579-0.105 0.854-1.132 1.183-0.337 0.084-0.579 0.101-0.844 0.135 0.534-0.89 0.666-1.799 0.547-2.719-0.228-0.967-0.624-1.893-0.641-2.914 0.327-3.909 2.674-3.371 4.531-3.672 0.882-0.03 2.775-2.126-1.283-2.863-1.273-0.2281-2.531-0.1343-2.316-0.9725 0.183-0.7298 0.678-1.1872 0.998-1.7519 0.217-0.3595-0.079-0.6408-0.389-0.6387zm8.918 9.9201v0.002c-0.9 0-1.798 0.344-2.484 1.031-1.372 1.373-1.374 3.603 0 4.975 1.373 1.372 3.602 1.367 4.974-0.008 1.372-1.374 1.368-3.603-0.006-4.975-0.686-0.686-1.584-1.026-2.484-1.025zm-27.83 17.41v10h40v-10h-40zm3.8672 1.096c0.8281 0 1.462 0.274 1.9004 0.82 0.4384 0.543 0.6614 1.324 0.6714 2.344v1.398c0 1.051-0.217 1.854-0.6519 2.41-0.4349 0.557-1.0716 0.836-1.9101 0.836-0.8282 0-1.4601-0.274-1.8985-0.82s-0.6634-1.328-0.6738-2.348v-1.398c0-1.061 0.2198-1.868 0.6582-2.418 0.4419-0.55 1.0762-0.824 1.9043-0.824zm6.1428 0c0.737 0 1.322 0.191 1.754 0.574 0.435 0.379 0.652 0.897 0.652 1.551 0 0.369-0.091 0.695-0.275 0.98-0.185 0.285-0.44 0.513-0.764 0.684 0.369 0.177 0.661 0.423 0.877 0.736 0.216 0.31 0.324 0.675 0.324 1.096 0 0.675-0.23 1.21-0.689 1.603-0.46 0.39-1.084 0.584-1.873 0.584-0.79 0-1.417-0.196-1.879-0.59-0.463-0.393-0.696-0.926-0.696-1.597 0-0.421 0.109-0.789 0.325-1.102 0.215-0.313 0.505-0.556 0.871-0.73-0.324-0.171-0.578-0.399-0.762-0.684-0.181-0.285-0.271-0.611-0.271-0.98 0-0.647 0.216-1.162 0.648-1.545 0.431-0.386 1.017-0.58 1.758-0.58zm16.373 0c0.783 0 1.391 0.188 1.822 0.564 0.435 0.376 0.652 0.906 0.652 1.592 0 0.376-0.098 0.759-0.293 1.148-0.194 0.39-0.528 0.843-1.002 1.362l-1.726 1.822h3.266v1.215h-5.207v-1.033l2.457-2.62c0.337-0.368 0.586-0.691 0.746-0.966 0.163-0.275 0.246-0.535 0.246-0.782 0-0.337-0.086-0.603-0.256-0.794-0.171-0.195-0.414-0.292-0.731-0.292-0.341 0-0.61 0.119-0.808 0.356-0.195 0.233-0.293 0.539-0.293 0.922h-1.514c0-0.463 0.109-0.885 0.328-1.268 0.223-0.382 0.536-0.68 0.94-0.896 0.403-0.219 0.861-0.33 1.373-0.33zm-5.125 0.093h0.162v7.61h-1.508v-5.813l-1.801 0.557v-1.227l3.147-1.127zm8.439 0.012h1.561l1.029 5.397 1.252-5.397h1.326l1.246 5.406 1.024-5.406h1.56l-1.685 7.598h-1.576l-1.237-5.082-1.238 5.082h-1.576l-1.686-7.598zm-19.687 1.111c-0.282 0-0.5 0.086-0.656 0.26-0.157 0.174-0.237 0.415-0.237 0.721 0 0.303 0.08 0.546 0.237 0.73 0.156 0.185 0.376 0.278 0.662 0.278 0.285 0 0.505-0.093 0.658-0.278 0.156-0.184 0.234-0.427 0.234-0.73 0-0.296-0.078-0.532-0.234-0.709-0.157-0.181-0.379-0.272-0.664-0.272zm-6.1428 0.004c-0.3549 0-0.6186 0.14-0.7891 0.414-0.167 0.272-0.2552 0.697-0.2656 1.278v1.847c0 0.62 0.083 1.081 0.25 1.383 0.1705 0.3 0.4421 0.45 0.8145 0.45 0.3688 0 0.6352-0.145 0.7988-0.434 0.1635-0.289 0.2489-0.729 0.2558-1.324v-1.807c0-0.63-0.0877-1.088-0.2617-1.373-0.1705-0.289-0.4374-0.434-0.8027-0.434zm9.7908 2.622h2.94v1.216h-2.94v-1.216zm-3.652 0.58c-0.32 0-0.576 0.098-0.768 0.296-0.191 0.195-0.287 0.459-0.287 0.793 0 0.324 0.094 0.585 0.281 0.784 0.188 0.198 0.45 0.297 0.784 0.297 0.327 0 0.583-0.096 0.767-0.288 0.188-0.191 0.281-0.455 0.281-0.793 0-0.33-0.095-0.594-0.287-0.793-0.191-0.198-0.448-0.296-0.771-0.296z" fill-rule="evenodd" transform="matrix(.26458 0 0 .26458 0 284.3)" fill="#333"/>
 </g>
</svg>
