<?xml version="1.0" encoding="UTF-8" standalone="no"?>
<!-- Created with Inkscape (http://www.inkscape.org/) -->
<svg id="svg8" xmlns:rdf="http://www.w3.org/1999/02/22-rdf-syntax-ns#" xmlns="http://www.w3.org/2000/svg" xmlns:osb="http://www.openswatchbook.org/uri/2009/osb" height="48" width="48" version="1.1" xmlns:cc="http://creativecommons.org/ns#" viewBox="0 0 12.7 12.7" xmlns:dc="http://purl.org/dc/elements/1.1/">
 <title id="title4753">UIO-icon</title>
 <metadata id="metadata5">
  <rdf:RDF>
   <cc:Work rdf:about="">
    <dc:format>image/svg+xml</dc:format>
    <dc:type rdf:resource="http://purl.org/dc/dcmitype/StillImage"/>
    <dc:title>UIO-icon</dc:title>
    <dc:creator>
     <cc:Agent>
      <dc:title>Joaquín Urbano</dc:title>
     </cc:Agent>
    </dc:creator>
    <dc:rights>
     <cc:Agent>
      <dc:title>GPL</dc:title>
     </cc:Agent>
    </dc:rights>
   </cc:Work>
  </rdf:RDF>
 </metadata>
 <g id="layer1" transform="translate(0,-284.3)" fill="#333">
  <path id="path879" d="m24 4-20 40h40zm0.083984 14.281c1.9409 0 3.451 0.52478 4.5293 1.5723 1.0886 1.0372 1.6328 2.4636 1.6328 4.2812 0 1.7971-0.83245 3.5687-2.4961 5.3145l-1.6777 1.6641c-0.74967 0.83182-1.125 2.0289-1.125 3.5898h-2.8496c0.020539-1.2221 0.15928-2.1879 0.41602-2.8965 0.25674-0.70859 0.77957-1.4948 1.5703-2.3574l2.0195-2.0781c0.86263-0.9756 1.293-2.0232 1.293-3.1426 0-1.0783-0.28284-1.9214-0.84766-2.5273-0.56482-0.61617-1.3866-0.92383-2.4648-0.92383-1.0475 0-1.8887 0.27748-2.5254 0.83203s-0.95508 1.2979-0.95508 2.2324h-2.8496c0.020539-1.6636 0.61104-3.0029 1.7715-4.0195 1.172-1.027 2.691-1.541 4.56-1.541zm-0.42969 19.672c0.55455 0 0.97417 0.15821 1.2617 0.47656 0.28754 0.30808 0.43164 0.69413 0.43164 1.1562 0 0.46212-0.1441 0.84621-0.43164 1.1543-0.288 0.298-0.707 0.448-1.262 0.448-0.55455 0-0.97613-0.14945-1.2637-0.44727-0.27727-0.30808-0.41602-0.69217-0.41602-1.1543 0-0.46212 0.13874-0.84817 0.41602-1.1562 0.28754-0.31835 0.70912-0.47656 1.2637-0.47656z" transform="matrix(.26458 0 0 .26458 0 284.3)"/>
 </g>
</svg>
