<?xml version="1.0" encoding="UTF-8" standalone="no"?>
<!-- Created with Inkscape (http://www.inkscape.org/) -->
<svg id="svg8" xmlns:rdf="http://www.w3.org/1999/02/22-rdf-syntax-ns#" xmlns="http://www.w3.org/2000/svg" height="48" viewBox="0 0 12.7 12.7" width="48" version="1.1" xmlns:cc="http://creativecommons.org/ns#" xmlns:dc="http://purl.org/dc/elements/1.1/">
 <title id="title4753">UIO-icon</title>
 <metadata id="metadata5">
  <rdf:RDF>
   <cc:Work rdf:about="">
    <dc:format>image/svg+xml</dc:format>
    <dc:type rdf:resource="http://purl.org/dc/dcmitype/StillImage"/>
    <dc:title>UIO-icon</dc:title>
    <dc:creator>
     <cc:Agent>
      <dc:title>Joaquín Urbano</dc:title>
     </cc:Agent>
    </dc:creator>
    <dc:rights>
     <cc:Agent>
      <dc:title>GPL</dc:title>
     </cc:Agent>
    </dc:rights>
   </cc:Work>
  </rdf:RDF>
 </metadata>
 <path id="rect883" d="m24 4c-11.046 0-20 8.954-20 20s8.954 20 20 20 20-8.954 20-20-8.954-20-20-20zm0 0.5176c10.76 0 19.482 8.7234 19.482 19.482s-8.722 19.48-19.482 19.48-19.482-8.72-19.482-19.48c-0.0008-10.76 8.722-19.482 19.482-19.482zm0.084 8.0294c-1.869 0-3.388 0.514-4.559 1.541-1.16 1.017-1.75 2.356-1.771 4.019h2.85c0-0.934 0.318-1.678 0.955-2.232 0.636-0.555 1.477-0.832 2.525-0.832 1.078 0 1.9 0.308 2.465 0.924 0.565 0.606 0.847 1.449 0.847 2.527 0 1.12-0.43 2.167-1.292 3.143l-2.02 2.078c-0.791 0.862-1.314 1.649-1.57 2.357-0.257 0.709-0.396 1.675-0.416 2.897h2.849c0-1.561 0.376-2.758 1.125-3.59l1.678-1.664c1.664-1.746 2.496-3.517 2.496-5.315 0-1.817-0.544-3.244-1.633-4.281-1.078-1.047-2.588-1.572-4.529-1.572zm-0.223 0.51h0.321c3.066 0.206 5.302 1.464 5.547 5.24v0.32c-0.185 3.227-2.366 4.458-3.932 6.303l-0.213 0.238c-1.041 1.099-1.065 2.198-1.135 3.297h-1.838c-0.04-2.18 0.771-3.296 1.717-4.242l0.215-0.238c3.054-2.615 3.43-4.103 3.355-5.401v-0.32c-0.1-2.183-1.043-3.661-3.677-3.723h-0.321c-1.858 0.158-3.358 0.838-3.808 3.067l-1.801-0.002c0.491-2.922 2.413-4.367 5.57-4.539zm-0.207 19.162c-0.554 0-0.976 0.158-1.263 0.476-0.278 0.308-0.416 0.694-0.416 1.157 0 0.462 0.138 0.846 0.416 1.154 0.287 0.298 0.709 0.447 1.263 0.447 0.555 0 0.974-0.149 1.262-0.447 0.288-0.308 0.432-0.692 0.432-1.154 0-0.463-0.144-0.849-0.432-1.157-0.288-0.318-0.707-0.476-1.262-0.476zm0.002 0.508c0.381 0 0.668 0.107 0.865 0.326 0.198 0.211 0.297 0.476 0.297 0.793s-0.099 0.581-0.297 0.793c-0.197 0.204-0.484 0.306-0.865 0.306-0.38 0-0.67-0.102-0.867-0.306-0.19-0.212-0.285-0.476-0.285-0.793s0.095-0.582 0.285-0.793c0.197-0.219 0.487-0.326 0.867-0.326z" fill-rule="evenodd" transform="scale(.26458)" stroke-width=".99999" fill="#333"/>
</svg>
