<?xml version="1.0" encoding="UTF-8" standalone="no"?>
<!-- Created with Inkscape (http://www.inkscape.org/) -->
<svg id="svg8" xmlns:rdf="http://www.w3.org/1999/02/22-rdf-syntax-ns#" xmlns="http://www.w3.org/2000/svg" xmlns:osb="http://www.openswatchbook.org/uri/2009/osb" height="48" width="48" version="1.1" xmlns:cc="http://creativecommons.org/ns#" viewBox="0 0 12.7 12.7" xmlns:dc="http://purl.org/dc/elements/1.1/">
 <title id="title4753">UIO-icon</title>
 <metadata id="metadata5">
  <rdf:RDF>
   <cc:Work rdf:about="">
    <dc:format>image/svg+xml</dc:format>
    <dc:type rdf:resource="http://purl.org/dc/dcmitype/StillImage"/>
    <dc:title>UIO-icon</dc:title>
    <dc:creator>
     <cc:Agent>
      <dc:title>Joaquín Urbano</dc:title>
     </cc:Agent>
    </dc:creator>
    <dc:rights>
     <cc:Agent>
      <dc:title>GPL</dc:title>
     </cc:Agent>
    </dc:rights>
   </cc:Work>
  </rdf:RDF>
 </metadata>
 <g id="layer1" fill="#333" transform="translate(0,-284.3)">
  <path id="rect888" d="m0 0v48h48v-48h-48zm23.984 4h0.741c2.457 0 3.984 1.232 3.984 3.2168v23.871c1.789 1.311 2.947 3.394 2.947 5.734 0 3.958-3.313 7.178-7.386 7.178-4.074 0-7.389-3.22-7.389-7.178 0-2.34 1.159-4.423 2.947-5.734v-23.871c0-1.9246 1.67-3.217 4.156-3.217zm0 0.6641c-1.601 0-3.472 0.6675-3.472 2.5527v24.246c-0.24 0.158-0.468 0.333-0.684 0.519-1.37 1.188-2.232 2.916-2.232 4.84 0 3.581 2.988 6.485 6.674 6.485 3.685 0 6.672-2.904 6.671-6.485 0-1.924-0.862-3.652-2.232-4.84-0.216-0.186-0.444-0.361-0.684-0.519v-24.246c0-2.3703-2.528-2.5529-3.302-2.5529h-0.739zm-1.423 2.6543h4.097c0.189 0 0.342 0.1489 0.342 0.332 0 0.1835-0.153 0.332-0.342 0.332h-4.097c-0.189 0-0.342-0.1489-0.342-0.332s0.153-0.332 0.342-0.332zm2.048 1.3281h2.049c0.189 0 0.342 0.1489 0.342 0.332s-0.153 0.332-0.342 0.332h-2.049c-0.188 0-0.341-0.1489-0.341-0.332 0-0.1835 0.153-0.332 0.341-0.332zm-2.048 1.3281h4.097c0.189 0 0.342 0.1494 0.342 0.3324s-0.153 0.332-0.342 0.332h-4.097c-0.189 0-0.342-0.149-0.342-0.332 0-0.184 0.153-0.3324 0.342-0.3324zm2.048 1.3284h2.049c0.189 0 0.342 0.149 0.342 0.332s-0.153 0.33-0.342 0.33h-2.049c-0.188 0-0.341-0.147-0.341-0.33s0.153-0.332 0.341-0.332zm-2.048 1.326h4.097c0.189 0 0.342 0.149 0.342 0.332s-0.153 0.332-0.342 0.332h-4.097c-0.189 0-0.342-0.149-0.342-0.332s0.153-0.332 0.342-0.332zm2.048 1.328h2.049c0.189 0 0.342 0.149 0.342 0.332s-0.153 0.332-0.342 0.332h-2.049c-0.188 0-0.341-0.149-0.341-0.332s0.153-0.332 0.341-0.332zm-1.591 1.504c1.123 0.014 1.617 1.72 3.64 0.488v16.301c1.713 0.849 2.891 2.579 2.891 4.572 0 2.829-2.37 5.131-5.281 5.131-2.912 0-5.28-2.302-5.28-5.131 0-1.993 1.176-3.723 2.889-4.572v-16.301c0.461-0.362 0.826-0.491 1.141-0.488zm3.435 19.467c-0.738 0-1.336 0.58-1.336 1.297 0 0.716 0.599 1.298 1.336 1.298s1.334-0.582 1.334-1.298c0-0.717-0.597-1.297-1.334-1.297z" fill-rule="evenodd" transform="matrix(.26458 0 0 .26458 0 284.3)"/>
 </g>
</svg>
