<?xml version="1.0" encoding="UTF-8" standalone="no"?>
<!-- Created with Inkscape (http://www.inkscape.org/) -->
<svg id="svg8" xmlns:rdf="http://www.w3.org/1999/02/22-rdf-syntax-ns#" xmlns="http://www.w3.org/2000/svg" xmlns:osb="http://www.openswatchbook.org/uri/2009/osb" height="48" width="48" version="1.1" enable-background="new" xmlns:cc="http://creativecommons.org/ns#" viewBox="0 0 12.7 12.7" xmlns:dc="http://purl.org/dc/elements/1.1/">
 <title id="title4753">UIO-icon</title>
 <metadata id="metadata5">
  <rdf:RDF>
   <cc:Work rdf:about="">
    <dc:format>image/svg+xml</dc:format>
    <dc:type rdf:resource="http://purl.org/dc/dcmitype/StillImage"/>
    <dc:title>UIO-icon</dc:title>
    <dc:creator>
     <cc:Agent>
      <dc:title>Joaquín Urbano</dc:title>
     </cc:Agent>
    </dc:creator>
    <dc:rights>
     <cc:Agent>
      <dc:title>GPL</dc:title>
     </cc:Agent>
    </dc:rights>
   </cc:Work>
  </rdf:RDF>
 </metadata>
 <g id="layer1" transform="translate(0,-284.3)">
  <path id="rect1007" d="m24.207 4.0078c-5.111-0.0516-10.048 1.8557-13.797 5.3301-0.098737 0.095989-0.27751 0.26729-0.37109 0.35742-7.8297 7.6414-8.0664 20.156-0.53125 28.088 7.5442 7.9255 20.057 8.3172 28.082 0.87891 0.12608-0.10771 0.27751-0.26729 0.37109-0.35742 7.8297-7.6414 8.0664-20.156 0.53125-28.088-3.727-3.9152-8.88-6.155-14.285-6.2092zm-0.060547 0.51758c5.2695 0.036681 10.318 2.2092 13.973 6.0469 7.3408 7.7256 7.1129 19.916-0.51172 27.361l-0.375 0.35156c-7.817 7.242-20.002 6.86-27.351-0.857-7.341-7.726-7.113-19.916 0.512-27.362l0.375-0.35156c3.369-3.1208 7.734-4.9512 12.322-5.1675 0.353-0.0167 0.705-0.024 1.056-0.0215zm-14.962 15.452c-2.2101 0-3.9883 1.7802-3.9883 3.9902v0.064c0 2.2101 1.7782 3.9922 3.9883 3.9922h29.633c2.2101 0 3.9883-1.7821 3.9883-3.9922v-0.064453c0-2.2101-1.7782-3.9902-3.9883-3.9902h-18.998zm29.654 1.9883c1.1182-0.00087647 2.0252 0.90524 2.0254 2.0234-0.00020217 1.1182-0.9072 2.0243-2.0254 2.0234-1.1174-0.00020258-2.0232-0.90601-2.0234-2.0234 0.00020236-1.1174 0.90601-2.0232 2.0234-2.0234zm-29.367 0.254h18.818c0.93529 0 1.6914 0.75416 1.6914 1.6895 0 0.93529-0.75611 1.6895-1.6914 1.6895h-18.818c-0.93529 0-1.6914-0.75416-1.6914-1.6895 0-0.93529 0.75611-1.6895 1.6914-1.6895zm23.99 0.488c0.71213-0.0004766 1.2895 0.57694 1.2891 1.2891-0.00060239 0.71136-0.5777 1.2876-1.2891 1.2871-0.7106-0.00060163-1.2865-0.57651-1.2871-1.2871-0.00047618-0.71136 0.57575-1.2885 1.2871-1.2891zm-11.51 6.6777v6.6562h-3.072l5.121 6.656 5.1211-6.6562h-3.0723v-6.6562z" fill-rule="evenodd" transform="matrix(.26458 0 0 .26458 0 284.3)" fill="#333"/>
 </g>
</svg>
