<?xml version="1.0" encoding="UTF-8" standalone="no"?>
<!-- Created with Inkscape (http://www.inkscape.org/) -->
<svg id="svg8" xmlns:rdf="http://www.w3.org/1999/02/22-rdf-syntax-ns#" xmlns="http://www.w3.org/2000/svg" xmlns:osb="http://www.openswatchbook.org/uri/2009/osb" height="48" width="48" version="1.1" xmlns:cc="http://creativecommons.org/ns#" viewBox="0 0 12.7 12.7" xmlns:dc="http://purl.org/dc/elements/1.1/">
 <title id="title4753">UIO-icon</title>
 <metadata id="metadata5">
  <rdf:RDF>
   <cc:Work rdf:about="">
    <dc:format>image/svg+xml</dc:format>
    <dc:type rdf:resource="http://purl.org/dc/dcmitype/StillImage"/>
    <dc:title>UIO-icon</dc:title>
    <dc:creator>
     <cc:Agent>
      <dc:title>Joaquín Urbano</dc:title>
     </cc:Agent>
    </dc:creator>
    <dc:rights>
     <cc:Agent>
      <dc:title>GPL</dc:title>
     </cc:Agent>
    </dc:rights>
   </cc:Work>
  </rdf:RDF>
 </metadata>
 <g id="layer1" fill="#333" transform="translate(0,-284.3)">
  <path id="rect2965" d="m0 0v48h48v-48zm23.758 4.0039c0.26175-0.0107 0.52725 0.0026685 0.79297 0.041016 2.1866 0.31546 3.8145 2.1875 3.8145 4.3887-2e-8 2.0881-1.479 3.8959-3.543 4.3301-0.7396 0.15536-1.1372 0.15694-1.8555 0-1.491-0.324-2.81-1.533-3.26-2.9906-0.237-0.7662-0.237-1.9056-0.002-2.6679 0.554-1.7924 2.221-3.0267 4.053-3.1016zm3.383 0.2559a20 20 0 0 1 16.859 19.74 20 20 0 0 1 -8.178 16.104l-0.30469-0.41406a19.486 19.486 0 0 0 7.969 -15.69 19.486 19.486 0 0 0 -15.636 -19.102 5.3033 5.3033 0 0 0 -0.709 -0.6382zm-6.4258 0.035156a5.3033 5.3033 0 0 0 -0.701 0.6542 19.486 19.486 0 0 0 -15.5 19.051 19.486 19.486 0 0 0 7.898 15.639l-0.30469 0.41406a20 20 0 0 1 -8.107 -16.053 20 20 0 0 1 16.715 -19.705zm4.2969 0.28906c-1.1192 3.78e-7 -2.0273 0.90617-2.0273 2.0254s0.90812 2.0273 2.0273 2.0273 2.0254-0.90812 2.0254-2.0273c-1e-8 -1.1192-0.90617-2.0254-2.0254-2.0254zm-1.082 9.0859c1.9483-0.001795 3.8944 0.044392 4.25 0.13867 1.1589 0.30835 2.117 1.0728 2.9707 2.3672 0.42018 0.63714 2.9883 5.7126 2.9883 5.9062 0.60677 1.2125 1.9484 3.5254 1.8184 4.6758-0.10152 0.89807-1.184 1.9423-2.5625 1.377-0.22475-0.092109-0.37404-0.36135-0.58008-0.59961-0.12657-0.13836-1.1701-2.0787-2.3184-4.3105l-2.088-4.056-0.025 6.848c-0.26231-0.84847-1.0455-1.4271-1.9336-1.4277-1.1192 0-2.0273 0.90617-2.0273 2.0254s0.90812 2.0273 2.0273 2.0273c0.8803-0.00052611 1.6589-0.56997 1.9277-1.4082l-0.009766 2.9824c0.16232 0.22928 0.12511 0.18346 0.29102 0.41797 5.9272 8.3726 6.6933 9.48 6.7617 9.7852 0.13429 0.5995-0.040979 1.2529-0.4668 1.7539h-0.001953c-0.42282 0.49787-1.2859 0.7637-1.9395 0.59375-0.74269-0.19292-0.6-0.021577-4.373-5.3496l-1.625-2.2969-1.861-2.627-0.701-0.992c0.001883-0.027216 0.003095-0.054781 0.003906-0.082031 0-1.1192-0.90617-2.0254-2.0254-2.0254s-2.0273 0.90617-2.0273 2.0254c0.001177 0.98823 0.71499 1.8317 1.6895 1.9961l-0.75781 1.0703c-0.33811 0.47745-0.50064 0.70238-0.7793 1.0957l-1.2988 1.8359c-3.773 5.328-3.6284 5.1567-4.3711 5.3496-0.65361 0.16995-1.5186-0.095886-1.9414-0.59375h-0.001953c-0.42582-0.50099-0.59913-1.1544-0.46484-1.7539 0.068419-0.30515 0.83449-1.4125 6.7617-9.7852 0.1659-0.2345 0.12675-0.18868 0.28906-0.41797-0.001998-4.4043-0.021116-7.4789-0.044922-9.2227h0.003906c1.1192 0 2.0273-0.90812 2.0273-2.0273s-0.90812-2.0254-2.0273-2.0254-2.0254 0.90617-2.0254 2.0254c0.00081375 0.79027 0.45994 1.5092 1.1777 1.8398-0.39466 0.74897-0.62566 1.1722-1.332 2.543-2.2118 4.2925-2.3679 4.5351-3.0918 4.752-0.18957 0.056931-0.43387 0.10156-0.54297 0.10156-0.7039 0-1.529-0.60945-1.7285-1.2773-0.24085-0.80602-0.33851-0.56478 2.6562-6.666 0.92863-1.892 1.9044-3.7651 2.1699-4.1641 0.81571-1.226 1.7821-1.9856 2.8945-2.2754 0.36568-0.095271 2.3173-0.14666 4.2656-0.14844zm-4.4023 16.545 0.013672 0.009766c0.002405-0.003251 0.003558-0.006524 0.005859-0.009766zm8.8398 0h-0.007813c0.000941 0.001467 0.001043 0.002441 0.001953 0.003906zm-3.0293-11.969c-1.1192 0-2.0273 0.90812-2.0273 2.0273s0.90812 2.0254 2.0273 2.0254c1.1192 1e-8 2.0273-0.90617 2.0273-2.0254s-0.90812-2.0273-2.0273-2.0273zm-8.87 23.725a19.486 19.486 0 0 0 7.5312 1.5156 19.486 19.486 0 0 0 7.4395 -1.4922l0.32422 0.4375a20 20 0 0 1 -7.764 1.568 20 20 0 0 1 -7.832 -1.621z" fill-rule="evenodd" transform="matrix(.26458 0 0 .26458 0 284.3)"/>
 </g>
</svg>
