<?xml version="1.0" encoding="UTF-8" standalone="no"?>
<!-- Created with Inkscape (http://www.inkscape.org/) -->
<svg id="svg8" xmlns:rdf="http://www.w3.org/1999/02/22-rdf-syntax-ns#" xmlns="http://www.w3.org/2000/svg" xmlns:osb="http://www.openswatchbook.org/uri/2009/osb" height="48" width="48" version="1.1" xmlns:cc="http://creativecommons.org/ns#" viewBox="0 0 12.7 12.7" xmlns:dc="http://purl.org/dc/elements/1.1/">
 <title id="title4753">UIO-icon</title>
 <metadata id="metadata5">
  <rdf:RDF>
   <cc:Work rdf:about="">
    <dc:format>image/svg+xml</dc:format>
    <dc:type rdf:resource="http://purl.org/dc/dcmitype/StillImage"/>
    <dc:title>UIO-icon</dc:title>
    <dc:creator>
     <cc:Agent>
      <dc:title>Joaquín Urbano</dc:title>
     </cc:Agent>
    </dc:creator>
    <dc:rights>
     <cc:Agent>
      <dc:title>GPL</dc:title>
     </cc:Agent>
    </dc:rights>
   </cc:Work>
  </rdf:RDF>
 </metadata>
 <g id="layer1" fill="#333" transform="translate(0,-284.3)">
  <path id="rect2976" d="m0.13281 0c-0.073448 0-0.13281 0.059362-0.13281 0.13281v47.734c-1.8504e-17 0.074 0.059362 0.133 0.13281 0.133h47.734c0.074 0 0.133-0.059 0.133-0.133v-47.734c0-0.073638-0.059-0.133-0.133-0.133h-47.734zm23.469 6.3027a17.698 17.698 0 0 1 16.654 11.773l-3.328 0.971a14.225 14.225 0 0 0 -13.326 -9.2736 14.225 14.225 0 0 0 -14.172 13.17l1.982-0.172-2.9901 6.981-4.4219-6.338 1.9316-0.166a17.698 17.698 0 0 1 17.67 -16.945zm-0.09 4.7973v0.004c0.344 0.077 3.225 3.977 3.224 6.189 0.001 2.283-1.444 4.135-3.226 4.135-1.781-0.001-3.223-1.853-3.223-4.135s3.199-6.186 3.199-6.186c0.006-0.009 0.015-0.01 0.026-0.007zm1.523 3.494c1.061 4.647-1.819 4.701-2.037 5.498-0.064 0.362 0.183 0.568 0.381 0.728 1.677 0.859 4.432-3.989 1.656-6.226zm13.945 4.107l4.043 6.451-1.775 0.17a17.698 17.698 0 0 1 -17.646 16.375 17.698 17.698 0 0 1 -16.471 -11.271l3.346-0.977a14.225 14.225 0 0 0 13.125 8.776 14.225 14.225 0 0 0 14.117 -12.561l-1.473 0.143 2.734-7.106zm-21.792 5.131c0.02 0 0.042 0.017 0.044 0.051 0.051 1.131 0.981 2.023 2.114 2.023 1.132-0.001 2.063-0.892 2.113-2.023 0.003-0.032 0.025-0.051 0.045-0.051s0.037 0.016 0.041 0.051c0.05 1.131 0.982 2.023 2.115 2.023 1.132-0.001 2.063-0.892 2.113-2.023 0.015-0.069 0.075-0.069 0.086 0 0.051 1.131 0.983 2.023 2.116 2.023 1.132-0.001 2.063-0.892 2.113-2.023 0.017-0.069 0.069-0.069 0.086 0 0.05 1.131 0.982 2.023 2.115 2.023 1.132-0.001 2.063-0.892 2.113-2.023h0.004c-0.014 1.648-0.407 3.272-1.148 4.744-3.066 1.066-6.305 1.178-9.707 0.385-3.064-0.675-6.095-0.566-9.135 0.25-0.967-1.629-1.487-3.485-1.506-5.379h0.008c0.05 1.131 0.983 2.023 2.115 2.023 1.132-0.001 2.063-0.892 2.113-2.023 0.001-0.034 0.021-0.051 0.042-0.051zm2.173 6.242c0.179-0.003 0.358-0.002 0.537 0v0.002c1.255 0.017 2.517 0.174 3.788 0.496 2.779 0.603 5.551 0.665 8.314-0.008-2.039 2.516-5.102 3.978-8.34 3.981-3.219-0.005-6.268-1.45-8.306-3.941 1.326-0.316 2.662-0.503 4.007-0.53z" fill-rule="evenodd" transform="matrix(.26458 0 0 .26458 0 284.3)"/>
 </g>
</svg>
