<?xml version="1.0" standalone="no"?>
<!DOCTYPE svg PUBLIC "-//W3C//DTD SVG 1.1//EN" "http://www.w3.org/Graphics/SVG/1.1/DTD/svg11.dtd" >
<svg xmlns="http://www.w3.org/2000/svg">
<metadata></metadata>
<defs>
<font id="padaukbold" horiz-adv-x="1014" >
<font-face units-per-em="2048" ascent="1638" descent="-410" />
<missing-glyph horiz-adv-x="1006" />
<glyph horiz-adv-x="0" />
<glyph unicode="&#xd;" horiz-adv-x="664" />
<glyph unicode=" "  horiz-adv-x="1006" />
<glyph unicode="&#x09;" horiz-adv-x="1006" />
<glyph unicode="&#xa0;" horiz-adv-x="1006" />
<glyph unicode="!" horiz-adv-x="546" d="M112 118q0 64 48 110t114 46q32 0 61 -12t52 -33t36 -50t13 -61q0 -34 -13 -62t-36 -50t-52 -34t-61 -12q-66 0 -114 46t-48 112zM166 1340q0 96 6 166q4 52 30 86t72 34t72 -34t30 -86q6 -70 6 -166q0 -230 -15 -443t-37 -363q-10 -78 -19 -106t-37 -28t-38 28t-20 108 q-10 74 -19 166t-16 196t-11 216t-4 226z" />
<glyph unicode="&#x22;" horiz-adv-x="886" d="M124 1286h240l-46 -516h-150zM520 1286h240l-44 -516h-152z" />
<glyph unicode="#" horiz-adv-x="1108" d="M110 176v184h164l20 170h-184v184h208l36 256h184l-34 -256h168l36 256h184l-34 -256h140v-184h-164l-22 -170h186v-184h-210l-28 -226h-186l30 226h-170l-28 -226h-186l30 226h-140zM458 360h170l20 170h-168z" />
<glyph unicode="$" d="M54 394h220q0 -102 43 -162t145 -68v394q-80 24 -149 49t-120 63t-81 97t-30 151q0 82 31 151t83 120t121 79t145 28v120h92v-118q82 0 149 -28t115 -77t74 -117t26 -148h-220q0 90 -34 133t-110 53v-370q70 -20 142 -43t130 -63t95 -105t37 -169q0 -92 -35 -161 t-92 -117t-129 -75t-148 -35v-160h-92v158q-194 16 -301 124t-107 296zM298 936q0 -34 10 -59t31 -43t52 -33t71 -29v338q-98 -14 -131 -60t-33 -114zM554 166q80 8 134 49t54 129q0 84 -49 124t-139 70v-372z" />
<glyph unicode="%" horiz-adv-x="1482" d="M102 692q0 54 21 103t58 86t86 59t103 22q52 0 100 -22t84 -59t57 -86t21 -103q0 -52 -21 -99t-57 -84t-84 -59t-100 -22q-54 0 -103 22t-86 59t-58 84t-21 99zM256 692q0 -46 33 -79t81 -33q40 0 73 33t33 79t-33 80t-73 34q-48 0 -81 -34t-33 -80zM310 -18l712 1012 l150 -112l-720 -1020zM850 168q0 54 21 103t58 85t85 58t102 22q52 0 100 -22t84 -58t57 -85t21 -103q0 -52 -21 -100t-57 -85t-84 -59t-100 -22q-54 0 -102 22t-85 59t-58 85t-21 100zM1004 168q0 -46 32 -80t80 -34q42 0 75 34t33 80q0 44 -33 79t-75 35q-48 0 -80 -35 t-32 -79z" />
<glyph unicode="&#x26;" horiz-adv-x="1392" d="M98 354q0 142 73 233t199 151q-74 64 -114 140t-40 162q0 70 32 121t83 84t114 49t125 16q64 0 126 -15t112 -45t80 -77t30 -111q0 -68 -25 -121t-64 -95t-87 -76t-94 -64q62 -78 137 -156t165 -164q28 72 35 148t1 162h224q-6 -124 -31 -237t-77 -217q40 -50 116 -117 t158 -125h-290l-110 102q-68 -58 -168 -92t-230 -34q-90 0 -177 23t-154 69t-108 118t-41 168zM326 372q0 -48 21 -89t57 -72t82 -49t98 -18q78 0 143 20t115 66q-112 100 -205 195t-165 185q-66 -48 -106 -112t-40 -126zM428 1026q0 -80 116 -208q34 20 66 45t57 53t40 58 t15 60q0 20 -12 41t-31 37t-44 26t-51 10q-74 0 -115 -35t-41 -87z" />
<glyph unicode="'" horiz-adv-x="706" d="M232 1286h240l-44 -516h-152z" />
<glyph unicode="(" horiz-adv-x="880" d="M148 440q0 404 108 744t328 650h206q-458 -638 -458 -1394q0 -378 110 -725t348 -643h-212q-234 292 -332 631t-98 737z" />
<glyph unicode=")" horiz-adv-x="884" d="M90 -920q242 294 351 644t109 724q0 380 -113 726t-347 668h208q218 -310 327 -650t109 -744q0 -398 -98 -738t-332 -630h-214z" />
<glyph unicode="*" horiz-adv-x="1136" d="M110 764l274 158l-274 156l102 160l262 -152v306h190v-306l264 152l96 -162l-268 -154l268 -156l-96 -164l-264 158v-310h-186v310l-266 -158z" />
<glyph unicode="+" horiz-adv-x="1156" d="M186 356v186h300v302h184v-302h300v-186h-300v-300h-184v300h-300z" />
<glyph unicode="," horiz-adv-x="498" d="M80 124q0 36 14 68t36 57t52 39t64 14q38 0 69 -15t54 -39t35 -56t12 -68q0 -70 -20 -135t-51 -120t-72 -98t-83 -67l-24 30q46 36 81 106t35 150v27t-2 19q-10 -6 -28 -14t-39 -15t-41 -12t-32 -5q-26 0 -43 40t-17 94z" />
<glyph unicode="-" horiz-adv-x="1006" d="M110 348v186h784v-186h-784z" />
<glyph unicode="." horiz-adv-x="486" d="M80 118q0 32 14 61t36 50t52 33t62 12q30 0 60 -12t52 -33t36 -50t14 -61q0 -34 -14 -62t-36 -50t-52 -34t-60 -12q-32 0 -62 12t-52 34t-36 50t-14 62z" />
<glyph unicode="/" horiz-adv-x="1074" d="M110 -364l708 2014l144 -136l-708 -2022z" />
<glyph unicode="0" d="M72 652q0 148 23 270t74 208t134 133t205 47q120 0 203 -47t134 -133t74 -208t23 -270t-23 -273t-74 -215t-134 -140t-203 -50q-122 0 -205 50t-134 140t-74 215t-23 273zM298 652q0 -92 6 -183t27 -164t63 -118t114 -45t112 45t61 118t26 164t5 183t-5 181t-26 157 t-61 110t-112 42t-114 -42t-63 -111t-27 -157t-6 -180z" />
<glyph unicode="1" d="M194 886v194q94 34 170 87t134 119h208v-1286h-214v1046q-132 -114 -298 -160z" />
<glyph unicode="2" d="M74 0v208q212 160 338 279t192 206t86 146t20 99q0 84 -44 138t-128 54q-86 0 -138 -52t-56 -144h-232q2 86 35 156t90 119t133 75t164 26q90 0 165 -27t128 -75t82 -113t29 -143q0 -70 -22 -145t-87 -167t-186 -204t-319 -254h614v-182h-864z" />
<glyph unicode="3" d="M82 354h232q4 -84 48 -144t134 -60q88 0 147 58t59 156q0 70 -19 113t-57 66t-94 31t-130 8v176q66 0 117 9t86 31t53 59t18 93q0 96 -53 141t-123 45q-80 0 -128 -49t-54 -139h-226q8 172 117 267t295 95q90 0 163 -27t126 -74t81 -113t28 -144q0 -60 -17 -105t-45 -78 t-65 -56t-77 -41q48 -16 90 -40t73 -61t50 -89t19 -126q0 -84 -35 -154t-94 -121t-136 -79t-159 -28q-216 0 -320 104t-104 276z" />
<glyph unicode="4" d="M42 292v216l496 778h270v-808h162v-186h-162v-292h-214v292h-552zM236 478h358v584z" />
<glyph unicode="5" d="M76 322h224q0 -86 48 -128t138 -42q52 0 93 22t70 59t44 88t15 109q0 120 -46 184t-148 64q-82 0 -129 -39t-85 -115h-204l32 762h732v-186h-518l-20 -358q42 52 103 77t157 25q84 0 149 -34t111 -89t70 -128t24 -151q0 -96 -34 -181t-93 -148t-140 -100t-175 -37 q-184 0 -297 88t-121 258z" />
<glyph unicode="6" d="M68 594q0 124 18 251t69 231t142 169t235 65q164 0 266 -90t118 -250h-222q-4 80 -47 123t-111 43q-78 0 -126 -55t-74 -132t-35 -159t-9 -134q24 34 49 63t59 50t79 33t107 12q98 0 166 -37t111 -95t63 -128t20 -136q0 -74 -23 -153t-74 -143t-134 -106t-205 -42 q-136 0 -222 48t-135 132t-67 197t-18 243zM326 400q0 -124 46 -187t148 -63q100 0 146 63t46 187t-46 186t-146 62q-102 0 -148 -62t-46 -186z" />
<glyph unicode="7" d="M88 1102v184h838v-224l-430 -1062h-262l478 1102h-624z" />
<glyph unicode="8" d="M68 332q0 76 21 135t55 102t77 71t89 46q-42 16 -81 41t-69 61t-48 85t-18 113q0 90 37 152t96 100t133 55t148 17t148 -16t132 -54t95 -101t37 -159q0 -60 -20 -108t-53 -84t-74 -61t-83 -41q44 -14 90 -42t83 -71t60 -103t23 -138q0 -100 -39 -168t-101 -110t-141 -60 t-157 -18q-84 0 -163 19t-140 61t-99 110t-38 166zM298 374q0 -94 54 -159t156 -65q104 0 156 67t52 157q0 94 -53 157t-155 63q-100 0 -155 -65t-55 -155zM326 954q0 -86 52 -134t130 -48q76 0 128 48t52 134q0 84 -49 133t-131 49q-84 0 -133 -49t-49 -133z" />
<glyph unicode="9" d="M68 868q0 78 23 156t75 142t135 104t201 40q140 0 227 -51t135 -136t65 -198t17 -235q0 -124 -20 -251t-72 -230t-143 -169t-231 -66q-78 0 -146 24t-120 69t-84 108t-36 141h224q4 -84 47 -125t113 -41q76 0 124 54t75 130t36 157t9 137q-44 -74 -119 -115t-177 -41 q-104 0 -173 39t-110 99t-58 129t-17 129zM300 886q0 -124 45 -187t147 -63t148 63t46 187q0 122 -46 186t-148 64t-147 -64t-45 -186z" />
<glyph unicode=":" horiz-adv-x="486" d="M80 118q0 32 14 61t36 51t52 34t62 12q30 0 60 -12t52 -34t36 -51t14 -61t-14 -61t-36 -50t-52 -34t-60 -13q-32 0 -62 13t-52 34t-36 50t-14 61zM80 768q0 32 14 62t36 51t52 34t62 13q30 0 60 -13t52 -34t36 -51t14 -62t-14 -61t-36 -50t-52 -34t-60 -13q-32 0 -62 13 t-52 34t-36 50t-14 61z" />
<glyph unicode=";" horiz-adv-x="490" d="M80 116q0 32 13 61t34 51t49 36t58 14q36 0 66 -14t51 -38t33 -54t12 -62q0 -60 -18 -116t-47 -105t-66 -88t-73 -63l-34 28q42 34 78 97t36 139v14t-2 14q-16 -6 -35 -14t-39 -14t-36 -10t-24 -4q-14 0 -35 31t-21 97zM80 770q0 32 14 61t36 50t52 34t62 13q30 0 60 -13 t52 -34t36 -50t14 -61t-14 -61t-36 -51t-52 -35t-60 -13q-32 0 -62 13t-52 35t-36 51t-14 61z" />
<glyph unicode="&#x3c;" horiz-adv-x="1782" d="M356 476v114l1068 408v-150l-844 -314l844 -314v-152z" />
<glyph unicode="=" horiz-adv-x="1172" d="M70 156v186h1030v-186h-1030zM70 550v184h1030v-184h-1030z" />
<glyph unicode="&#x3e;" horiz-adv-x="1782" d="M356 68v152l844 314l-844 314v150l1068 -408v-114z" />
<glyph unicode="?" horiz-adv-x="894" d="M40 1110v46q0 58 24 126t71 127t116 98t161 39q86 0 155 -33t117 -86t74 -121t26 -138q0 -78 -21 -129t-52 -86t-67 -62t-67 -54t-52 -61t-21 -84v-292h-186v324q0 62 21 104t52 73t68 57t68 55t52 66t21 89q0 36 -16 70t-42 61t-60 43t-70 16q-42 0 -76 -18t-59 -47 t-39 -65t-14 -72v-46h-184zM286 114q0 52 36 87t88 35t90 -35t38 -87q0 -54 -38 -91t-90 -37t-88 39t-36 89z" />
<glyph unicode="@" horiz-adv-x="1830" d="M82 474q0 188 70 340t189 260t273 166t322 58q174 0 322 -53t257 -152t170 -239t61 -314q0 -92 -24 -185t-72 -168t-118 -123t-162 -48q-178 0 -250 154q-52 -72 -115 -109t-147 -37q-82 0 -149 36t-115 95t-74 136t-26 161q0 90 24 170t70 140t111 95t149 35 q72 0 130 -27t110 -91v96h216v-592q0 -48 28 -67t56 -19q52 0 95 78t43 224q0 148 -41 263t-118 193t-187 119t-248 41q-130 0 -244 -47t-200 -133t-135 -206t-49 -266q0 -136 47 -250t129 -196t193 -129t237 -47q134 0 226 10t172 38v-206q-118 -22 -196 -29t-144 -7 q-178 0 -339 51t-282 155t-193 260t-72 366zM718 460q0 -46 9 -94t30 -87t55 -64t86 -25t88 27t58 68t32 91t10 96q0 120 -45 187t-139 67q-50 0 -85 -25t-57 -64t-32 -86t-10 -91z" />
<glyph unicode="A" horiz-adv-x="1290" d="M20 0l502 1286h242l504 -1286h-236l-116 298h-550l-112 -298h-234zM440 482h400l-198 546z" />
<glyph unicode="B" horiz-adv-x="1200" d="M132 0v1286h524q76 0 146 -19t123 -58t85 -99t32 -140q0 -60 -20 -107t-54 -83t-78 -63t-92 -45q64 -18 119 -46t96 -68t64 -93t23 -125q0 -80 -39 -143t-99 -107t-134 -67t-146 -23h-550zM366 188h220q58 0 108 12t87 36t58 60t21 86q0 52 -22 89t-60 60t-88 34t-106 11 h-218v-388zM366 758h208q108 0 172 46t64 124q0 82 -60 126t-162 44h-222v-340z" />
<glyph unicode="C" horiz-adv-x="1268" d="M98 640q0 134 33 256t100 214t172 146t249 54q244 0 367 -108t135 -302h-230q-12 114 -76 171t-196 57q-166 0 -239 -128t-73 -360q0 -242 73 -363t237 -121q122 0 187 68t79 178h252q-8 -96 -52 -175t-113 -135t-160 -87t-191 -31q-150 0 -255 55t-172 148t-97 213 t-30 250z" />
<glyph unicode="D" horiz-adv-x="1292" d="M132 0v1286h392q164 0 289 -47t209 -132t127 -203t43 -260q0 -146 -45 -265t-130 -203t-210 -130t-283 -46h-392zM366 188h160q212 0 322 115t110 341t-110 340t-322 114h-160v-910z" />
<glyph unicode="E" horiz-adv-x="1104" d="M132 0v1286h830v-188h-602v-344h572v-180h-572v-386h620v-188h-848z" />
<glyph unicode="F" horiz-adv-x="1032" d="M132 0v1286h792v-188h-558v-344h522v-186h-522v-568h-234z" />
<glyph unicode="G" horiz-adv-x="1374" d="M98 652q0 140 47 260t133 209t204 139t260 50q124 0 220 -30t161 -83t98 -127t33 -160h-238q-2 48 -23 88t-58 67t-87 42t-106 15q-110 0 -187 -40t-125 -107t-69 -153t-21 -176q0 -102 27 -191t80 -153t133 -101t186 -37q46 0 106 8t130 24v294h-252v194h492v-626 q-138 -40 -259 -62t-205 -22q-174 0 -302 52t-212 144t-125 216t-41 266z" />
<glyph unicode="H" horiz-adv-x="1270" d="M132 0v1286h230v-526h544v526h234v-1286h-234v574h-544v-574h-230z" />
<glyph unicode="I" horiz-adv-x="498" d="M132 0v1286h234v-1286h-234z" />
<glyph unicode="J" horiz-adv-x="1082" d="M98 384h240q0 -118 47 -169t129 -51q100 0 150 54t50 174v896h236v-906q0 -94 -36 -170t-96 -129t-138 -81t-164 -28q-218 0 -318 108t-100 302z" />
<glyph unicode="K" horiz-adv-x="1220" d="M132 0v1286h234v-550l464 550h276l-486 -568l544 -718h-294l-504 656v-656h-234z" />
<glyph unicode="L" horiz-adv-x="990" d="M132 0v1286h234v-1098h578v-188h-812z" />
<glyph unicode="M" horiz-adv-x="1636" d="M132 0v1286h378l308 -966l310 970h378v-1290h-226v1084l-354 -1084h-218l-352 1080v-1080h-224z" />
<glyph unicode="N" horiz-adv-x="1340" d="M132 0v1286h332l520 -1038v1038h226v-1286h-334l-520 1036v-1036h-224z" />
<glyph unicode="O" horiz-adv-x="1402" d="M98 652q0 142 39 263t116 209t189 137t260 49q152 0 264 -52t187 -141t112 -209t37 -256q0 -144 -39 -267t-114 -215t-188 -144t-259 -52q-152 0 -266 54t-189 147t-112 216t-37 261zM342 652q0 -112 20 -202t64 -153t112 -98t164 -35t164 35t111 98t63 153t20 202 q0 222 -83 346t-275 124t-276 -124t-84 -346z" />
<glyph unicode="P" horiz-adv-x="1150" d="M132 0v1286h424q96 0 185 -20t157 -66t108 -121t40 -185q0 -112 -42 -186t-111 -119t-157 -63t-180 -18h-190v-508h-234zM366 696h148q138 0 218 42t80 156t-77 159t-221 45h-148v-402z" />
<glyph unicode="Q" horiz-adv-x="1458" d="M98 652q0 142 39 263t116 209t189 137t260 49q152 0 264 -52t187 -141t112 -209t37 -256q0 -144 -41 -264t-125 -208h260v-180h-468q-86 -12 -141 -19t-85 -7q-152 0 -266 54t-189 147t-112 216t-37 261zM342 652q0 -112 20 -202t64 -153t112 -98t164 -35t164 35t111 98 t63 153t20 202q0 222 -83 346t-275 124t-276 -124t-84 -346z" />
<glyph unicode="R" horiz-adv-x="1182" d="M132 0v1286h466q242 0 363 -83t121 -265q0 -58 -23 -103t-60 -81t-83 -63t-94 -47q62 -14 110 -41t74 -87q18 -42 28 -110t21 -142t24 -145t35 -119h-242q-14 48 -21 88t-12 75l-10 70t-11 75q-12 66 -29 112t-44 73t-68 39t-103 12h-208v-544h-234zM366 732h220 q46 0 93 11t84 33t60 55t23 79q0 50 -21 85t-56 58t-79 34t-92 11h-232v-366z" />
<glyph unicode="S" horiz-adv-x="1202" d="M98 398h242q4 -118 70 -176t178 -58q44 0 94 8t92 29t70 57t28 90q0 78 -55 119t-137 66t-179 45t-179 58t-137 105t-55 187q0 92 43 163t111 120t151 74t163 25q92 0 175 -21t147 -66t102 -116t38 -169h-238q0 50 -19 87t-50 59t-72 33t-85 11q-42 0 -85 -11t-76 -34 t-54 -57t-21 -80q0 -70 55 -108t137 -63t179 -48t179 -63t137 -109t55 -187q0 -104 -48 -179t-124 -123t-168 -70t-178 -22q-98 0 -186 27t-155 81t-106 133t-39 183z" />
<glyph unicode="T" horiz-adv-x="1120" d="M48 1098v188h1024v-188h-396v-1098h-236v1098h-392z" />
<glyph unicode="U" horiz-adv-x="1334" d="M132 544v742h234v-742q0 -108 21 -180t59 -117t93 -64t125 -19t126 19t96 64t61 117t21 180v742h238v-742q0 -140 -38 -247t-109 -179t-173 -108t-228 -36q-264 0 -395 150t-131 420z" />
<glyph unicode="V" horiz-adv-x="1264" d="M20 1286h256l354 -1012l358 1012h254l-478 -1286h-276z" />
<glyph unicode="W" horiz-adv-x="1764" d="M20 1286h252l222 -984l258 984h260l256 -984l222 984h254l-342 -1286h-256l-264 998l-266 -998h-254z" />
<glyph unicode="X" horiz-adv-x="1242" d="M26 0l456 674l-410 612h276l286 -448l282 448h254l-418 -612l460 -674h-276l-336 512l-326 -512h-248z" />
<glyph unicode="Y" horiz-adv-x="1174" d="M20 1286h270l298 -566l300 566h262l-446 -792v-494h-236v494z" />
<glyph unicode="Z" horiz-adv-x="1118" d="M80 0v212l672 886h-634v188h904v-216l-674 -882h688v-188h-956z" />
<glyph unicode="[" horiz-adv-x="698" d="M160 -354v1640h378v-138h-182v-1364h182v-138h-378z" />
<glyph unicode="\" horiz-adv-x="1074" d="M110 1514l144 136l708 -2014l-142 -144z" />
<glyph unicode="]" horiz-adv-x="698" d="M160 -216h186v1364h-186v138h378v-1640h-378v138z" />
<glyph unicode="^" horiz-adv-x="1070" d="M72 1240l464 462l462 -462l-102 -102l-360 362l-364 -362z" />
<glyph unicode="_" horiz-adv-x="1154" d="M0 -172h1154v-186h-1154v186z" />
<glyph unicode="`" horiz-adv-x="436" d="M-46 1384h216l168 -316h-120z" />
<glyph unicode="a" horiz-adv-x="982" d="M82 244q0 96 41 160t105 102t143 53t155 15h130q1 13 1 26q0 31 -4 58q-5 38 -23 65t-50 42t-86 15q-76 0 -113 -32t-45 -102h-214q0 66 28 116t78 84t118 51t150 17q48 0 103 -7t104 -27t88 -53t55 -83q12 -34 16 -91t4 -127v-230q0 -84 6 -166t20 -130h-198 q-6 22 -13 55t-11 57q-38 -38 -69 -64t-62 -42t-64 -23t-75 -7q-62 0 -119 18t-101 52t-71 84t-27 114zM300 260q0 -58 43 -98t107 -40q66 0 107 26t62 70t28 102t7 122q-16 2 -40 3t-46 1q-52 0 -101 -10t-86 -33t-59 -58t-22 -85z" />
<glyph unicode="b" horiz-adv-x="1078" d="M118 0v1286h212v-490q40 46 104 82t172 36q114 0 190 -46t120 -115t62 -151t18 -152q0 -110 -31 -198t-85 -149t-127 -94t-157 -33q-90 0 -158 35t-106 91v-102h-214zM330 448q0 -60 12 -118t39 -105t69 -75t102 -28q56 0 99 26t71 71t42 102t14 121q0 56 -11 115 t-38 109t-71 82t-110 32q-112 0 -165 -90t-53 -242z" />
<glyph unicode="c" horiz-adv-x="922" d="M84 438q0 236 97 356t289 120t282 -84q86 -80 86 -227v-13h-210v8q0 92 -44 133q-46 43 -110 43q-46 0 -81 -16t-58 -55t-35 -102t-12 -159q0 -180 41 -253t141 -73q48 0 79 18t48 47t24 65t7 72h214q0 -158 -87 -250t-279 -92q-392 0 -392 462z" />
<glyph unicode="d" horiz-adv-x="1078" d="M84 430q0 102 25 191t73 154t120 102t166 37q90 0 157 -26t121 -90v488h212v-1286h-212v116q-52 -64 -115 -102t-135 -38q-94 0 -170 36t-130 98t-83 144t-29 176zM296 438q0 -58 14 -114t42 -100t71 -72t101 -28q60 0 102 31t69 78t39 103t12 104q0 156 -58 247t-166 91 q-64 0 -108 -33t-70 -84t-37 -110t-11 -113z" />
<glyph unicode="e" horiz-adv-x="986" d="M84 442q0 96 25 182t76 151t131 102t190 37q116 0 193 -40t122 -103t64 -141t19 -152q0 -20 -1 -38t-3 -36h-596q0 -64 9 -118t31 -92t59 -59t95 -21q84 0 124 47t50 117h218q-16 -136 -112 -219t-286 -83q-114 0 -192 39t-126 104t-69 149t-21 174zM304 544h374v18 q0 94 -39 151q-43 63 -145 63q-50 0 -85 -18t-57 -49t-34 -74t-14 -91z" />
<glyph unicode="f" horiz-adv-x="618" d="M18 750v140h164v136q0 158 68 220t204 62q82 0 164 -28v-146q-24 12 -48 19t-52 7q-70 0 -95 -34t-25 -106v-130h196v-140h-196v-750h-216v750h-164z" />
<glyph unicode="g" horiz-adv-x="1078" d="M84 446q0 108 27 194t78 147t122 94t159 33q96 0 160 -27t114 -83v86h214v-868q0 -176 -113 -276t-325 -100q-118 0 -194 26t-119 65t-60 87t-17 90h214q0 -62 53 -96t135 -34q62 0 103 18t65 61t34 114t10 177q-52 -70 -119 -107t-137 -37q-194 0 -299 117t-105 319z M296 446q0 -60 13 -113t41 -92t71 -62t101 -23q60 0 103 27t70 69t39 94t12 104q0 156 -54 241t-168 85q-66 0 -110 -31t-70 -79t-37 -106t-11 -114z" />
<glyph unicode="h" horiz-adv-x="1048" d="M118 0v1286h214v-496q46 62 115 93t173 31q162 0 236 -88t74 -238v-588h-216v542q0 122 -45 180t-123 58q-52 0 -92 -23t-67 -58t-41 -76t-14 -77v-546h-214z" />
<glyph unicode="i" horiz-adv-x="448" d="M102 1076v210h244v-210h-244zM118 0v890h214v-890h-214z" />
<glyph unicode="j" horiz-adv-x="588" d="M-42 -286l106 134q46 -46 102 -46q42 0 65 28t23 80v980h216v-1034q0 -100 -67 -166t-193 -66q-62 0 -132 22t-120 68zM242 1132l56 154l184 -56l-58 -154z" />
<glyph unicode="k" horiz-adv-x="948" d="M118 0v1286h214v-756l300 360h258l-334 -384l364 -506h-268l-320 468v-468h-214z" />
<glyph unicode="l" horiz-adv-x="448" d="M118 0v1286h214v-1286h-214z" />
<glyph unicode="m" horiz-adv-x="1616" d="M118 0v890h214v-124q52 76 117 112t157 36q110 0 173 -36t109 -126q32 46 65 77t68 50t75 27t88 8q86 0 146 -27t97 -73t53 -106t16 -126v-582h-214v572q0 88 -45 146t-123 58q-42 0 -78 -21t-63 -54t-42 -74t-15 -83v-544h-214v572q0 40 -12 77t-33 65t-52 45t-69 17 q-48 0 -85 -23t-64 -58t-41 -78t-14 -81v-536h-214z" />
<glyph unicode="n" horiz-adv-x="1048" d="M102 0v890h214v-112q48 74 112 105t172 31q160 0 237 -86t77 -230v-598h-214v554q0 108 -48 168t-132 60q-90 0 -147 -72t-57 -192v-518h-214z" />
<glyph unicode="o" horiz-adv-x="1070" d="M84 444q0 108 34 195t94 148t143 94t181 33q100 0 183 -34t143 -95t93 -148t33 -193q0 -108 -34 -195t-95 -148t-144 -93t-179 -32q-100 0 -183 33t-143 95t-93 148t-33 192zM298 444q0 -72 15 -132t44 -103t74 -68t105 -25q120 0 177 90t57 238q0 150 -57 240t-177 90 q-60 0 -105 -25t-74 -69t-44 -104t-15 -132z" />
<glyph unicode="p" horiz-adv-x="1084" d="M118 -354v1244h214v-120q58 70 120 107t138 37q104 0 181 -36t128 -98t77 -146t26 -180q0 -108 -26 -197t-77 -152t-126 -97t-173 -34q-90 0 -149 27t-119 83v-438h-214zM330 448q0 -156 53 -245t167 -89q66 0 111 32t72 82t39 110t12 116t-13 113t-40 102t-70 73 t-105 28q-64 0 -107 -30t-69 -77t-38 -104t-12 -111z" />
<glyph unicode="q" horiz-adv-x="1084" d="M84 454q0 98 25 182t76 146t128 97t181 35q84 0 145 -37t111 -107v120h214v-1244h-214v438q-32 -28 -61 -49t-60 -34t-67 -20t-80 -7q-98 0 -172 34t-124 97t-76 152t-26 197zM298 454q0 -60 12 -120t40 -109t73 -80t111 -31q114 0 166 89t52 245q0 56 -12 113t-39 103 t-70 76t-103 30q-64 0 -108 -29t-71 -75t-39 -102t-12 -110z" />
<glyph unicode="r" horiz-adv-x="676" d="M118 0v890h214v-132q20 40 45 68t60 46t85 26t122 8v-184q-160 0 -236 -64t-76 -188v-470h-214z" />
<glyph unicode="s" horiz-adv-x="916" d="M84 270h212q4 -88 45 -122t121 -34q62 0 112 35t50 97q0 50 -39 76t-96 43t-125 31t-125 43t-96 79t-39 136q0 54 23 101t68 82t111 56t152 21q168 0 260 -64t92 -214h-214q-2 64 -30 102t-118 38q-58 0 -96 -34t-38 -80q0 -44 38 -66t96 -37t125 -30t125 -44t96 -79 t38 -134q0 -82 -34 -138t-89 -91t-126 -51t-143 -16q-76 0 -141 16t-113 51t-75 91t-27 136z" />
<glyph unicode="t" horiz-adv-x="704" d="M52 750v140h172v152l214 106v-258h208v-140h-208v-482q0 -76 32 -108t94 -32q46 0 94 16v-138q-76 -28 -168 -28q-56 0 -104 15t-84 45t-57 76t-21 108v528h-172z" />
<glyph unicode="u" horiz-adv-x="1048" d="M118 290v600h214v-554q0 -110 48 -169t130 -59q96 0 150 66t54 192v524h216v-890h-216v118q-48 -76 -111 -109t-171 -33q-156 0 -235 82t-79 232z" />
<glyph unicode="v" horiz-adv-x="964" d="M20 890h234l232 -646l228 646h228l-344 -890h-232z" />
<glyph unicode="w" horiz-adv-x="1500" d="M20 890h222l186 -624l194 624h254l196 -624l186 624h220l-280 -890h-244l-204 662l-204 -662h-244z" />
<glyph unicode="x" horiz-adv-x="974" d="M24 0l330 472l-302 418h256l196 -284l180 284h238l-298 -418l326 -472h-256l-222 328l-210 -328h-238z" />
<glyph unicode="y" horiz-adv-x="962" d="M14 -204l142 102q38 -84 114 -84q50 0 80 84l36 102l-366 890h244l232 -604l216 604h230l-408 -1096q-26 -70 -92 -114t-164 -44q-84 0 -154 42t-110 118z" />
<glyph unicode="z" horiz-adv-x="882" d="M84 0v174l470 572h-454v144h680v-174l-472 -576h488v-140h-712z" />
<glyph unicode="{" horiz-adv-x="860" d="M140 452q0 44 32 78t69 69t69 77t32 104q0 198 10 371t51 301t122 202t225 74v-180q-72 0 -116 -53t-68 -154t-32 -249t-8 -340q0 -80 -27 -133t-60 -87t-60 -53t-27 -27q0 -10 27 -27t60 -52t60 -89t27 -136q0 -190 8 -338t32 -249t68 -154t116 -53v-180q-144 0 -225 74 t-122 202t-51 301t-10 371q0 62 -32 104t-69 77t-69 69t-32 80z" />
<glyph unicode="|" horiz-adv-x="670" d="M248 -460v1878h174v-1878h-174z" />
<glyph unicode="}" horiz-adv-x="858" d="M110 -644q72 0 116 53t67 154t31 249t8 338q0 80 27 134t60 88t61 52t28 28q0 8 -28 26t-61 52t-60 88t-27 134q0 192 -8 340t-31 249t-67 154t-116 53v180q144 0 225 -73t122 -201t51 -301t10 -371q0 -62 31 -105t68 -78t68 -69t31 -78q0 -46 -31 -80t-68 -69t-68 -77 t-31 -104q0 -198 -10 -371t-51 -301t-122 -202t-225 -74v182z" />
<glyph unicode="~" horiz-adv-x="1142" d="M110 484q74 76 149 104t141 28t110 -18t80 -39t70 -39t80 -18q42 0 90 24t96 66l106 -126q-70 -66 -146 -98t-146 -32q-64 0 -112 18t-88 40t-74 40t-66 18q-42 0 -97 -23t-135 -97z" />
<glyph unicode="&#xad;" horiz-adv-x="1006" d="M110 348v186h784v-186h-784z" />
<glyph unicode="&#xd7;" horiz-adv-x="1058" d="M188 234l212 214l-210 210l128 132l214 -212l212 214l132 -132l-212 -212l210 -212l-132 -132l-210 212l-212 -212z" />
<glyph unicode="&#x2000;" horiz-adv-x="921" />
<glyph unicode="&#x2001;" horiz-adv-x="1842" />
<glyph unicode="&#x2002;" horiz-adv-x="921" />
<glyph unicode="&#x2003;" horiz-adv-x="1842" />
<glyph unicode="&#x2004;" horiz-adv-x="614" />
<glyph unicode="&#x2005;" horiz-adv-x="460" />
<glyph unicode="&#x2006;" horiz-adv-x="307" />
<glyph unicode="&#x2007;" horiz-adv-x="307" />
<glyph unicode="&#x2008;" horiz-adv-x="230" />
<glyph unicode="&#x2009;" horiz-adv-x="368" />
<glyph unicode="&#x200a;" horiz-adv-x="102" />
<glyph unicode="&#x2010;" horiz-adv-x="1006" d="M110 348v186h784v-186h-784z" />
<glyph unicode="&#x2011;" horiz-adv-x="1006" d="M110 348v186h784v-186h-784z" />
<glyph unicode="&#x2012;" horiz-adv-x="1006" d="M110 348v186h784v-186h-784z" />
<glyph unicode="&#x2013;" horiz-adv-x="950" d="M0 348v186h950v-186h-950z" />
<glyph unicode="&#x2014;" horiz-adv-x="1684" d="M0 348v186h1684v-186h-1684z" />
<glyph unicode="&#x2018;" horiz-adv-x="518" d="M100 1332q0 70 20 135t52 121t72 98t82 66l40 -32q-52 -36 -92 -105t-40 -153q0 -16 1 -25t3 -15q12 6 32 14t41 14t40 11t29 5q30 -8 43 -47t13 -87q0 -36 -13 -68t-36 -56t-53 -38t-62 -14q-76 0 -124 53t-48 123z" />
<glyph unicode="&#x2019;" horiz-adv-x="518" d="M80 1576q0 36 14 68t36 56t52 38t64 14q38 0 69 -15t54 -39t35 -56t12 -66q0 -70 -20 -136t-51 -121t-72 -97t-83 -66l-36 30q48 36 88 106t40 154q0 32 -2 40q-12 -6 -32 -14t-40 -14t-39 -11t-29 -5q-34 8 -47 46t-13 88z" />
<glyph unicode="&#x201c;" horiz-adv-x="1004" d="M100 1332q0 70 20 135t52 121t72 98t82 66l40 -30q-52 -40 -92 -108t-40 -152q0 -16 1 -25t3 -15q12 6 32 14t41 14t40 11t29 5q30 -8 43 -46t13 -88q0 -36 -13 -68t-36 -56t-53 -38t-62 -14q-76 0 -124 53t-48 123zM586 1332q0 70 20 135t52 121t73 98t83 66l38 -30 q-50 -38 -91 -107t-41 -153q0 -28 6 -40q12 6 31 14t40 14t39 11t30 5q32 -8 45 -46t13 -88q0 -36 -14 -68t-37 -56t-52 -38t-61 -14q-40 0 -72 15t-54 39t-35 56t-13 66z" />
<glyph unicode="&#x201d;" horiz-adv-x="1004" d="M80 1576q0 36 14 68t36 56t52 38t64 14q38 0 69 -15t54 -39t35 -56t12 -66q0 -70 -20 -136t-51 -121t-72 -97t-83 -66l-36 30q48 36 88 106t40 154q0 32 -2 40q-12 -6 -32 -14t-40 -14t-39 -11t-29 -5q-34 8 -47 46t-13 88zM568 1576q0 36 14 68t36 56t52 38t64 14 q76 0 123 -53t47 -123t-20 -136t-52 -121t-72 -97t-82 -66l-38 30q48 36 89 106t41 154q0 32 -4 40q-12 -6 -32 -14t-41 -14t-39 -11t-30 -5q-30 8 -43 46t-13 88z" />
<glyph unicode="&#x202f;" horiz-adv-x="368" />
<glyph unicode="&#x205f;" horiz-adv-x="460" />
<glyph unicode="&#x25fc;" horiz-adv-x="890" d="M0 0v890h890v-890h-890z" />
</font>
</defs>
</svg>
